<?xml version="1.0" encoding="utf-8" standalone="no"?>
<!DOCTYPE svg PUBLIC "-//W3C//DTD SVG 1.1//EN"
  "http://www.w3.org/Graphics/SVG/1.1/DTD/svg11.dtd">
<svg xmlns:xlink="http://www.w3.org/1999/xlink" width="607.2pt" height="338.4pt" viewBox="0 0 607.2 338.4" xmlns="http://www.w3.org/2000/svg" version="1.1">
 <metadata>
  <rdf:RDF xmlns:dc="http://purl.org/dc/elements/1.1/" xmlns:cc="http://creativecommons.org/ns#" xmlns:rdf="http://www.w3.org/1999/02/22-rdf-syntax-ns#">
   <cc:Work>
    <dc:type rdf:resource="http://purl.org/dc/dcmitype/StillImage"/>
    <dc:date>2025-12-08T08:09:35.418683</dc:date>
    <dc:format>image/svg+xml</dc:format>
    <dc:creator>
     <cc:Agent>
      <dc:title>Matplotlib v3.10.7, https://matplotlib.org/</dc:title>
     </cc:Agent>
    </dc:creator>
   </cc:Work>
  </rdf:RDF>
 </metadata>
 <defs>
  <style type="text/css">*{stroke-linejoin: round; stroke-linecap: butt}</style>
 </defs>
 <g id="figure_1">
  <g id="patch_1">
   <path d="M 0 338.4 
L 607.2 338.4 
L 607.2 0 
L 0 0 
z
" style="fill: #ffffff"/>
  </g>
  <g id="axes_1">
   <g id="patch_2">
    <path d="M 46.965625 318.021875 
L 600 318.021875 
L 600 22.318125 
L 46.965625 22.318125 
z
" style="fill: #ffffff"/>
   </g>
   <g id="line2d_1">
    <path d="M 200.299442 46.324914 
L 201.299442 46.35635 
L 202.299442 46.39329 
L 203.299442 46.491037 
L 204.299442 46.523559 
L 205.299442 46.597183 
L 206.299442 46.635749 
L 207.299442 46.671162 
L 208.299442 46.728802 
L 209.299442 46.799188 
L 210.299442 46.851152 
L 211.299442 46.910242 
L 212.299442 46.998563 
L 213.299442 47.044707 
L 214.299442 47.087118 
L 215.299442 47.117611 
L 216.299442 47.143656 
L 217.299442 47.164856 
L 218.299442 47.219157 
L 219.299442 47.247095 
L 220.299442 47.276819 
L 221.299442 47.302213 
L 222.299442 47.313414 
L 223.299442 47.323538 
L 224.299442 47.323333 
L 225.299442 47.313824 
L 226.299442 47.30217 
L 227.299442 47.271141 
L 228.299442 47.259973 
L 229.299442 47.229855 
L 230.299442 47.170078 
L 231.299442 47.132887 
L 232.299442 47.093791 
L 233.299442 47.051351 
L 234.299442 47.018586 
L 235.299442 46.95116 
L 236.299442 46.912034 
L 237.299442 46.869359 
L 238.299442 46.798778 
L 239.299442 46.762388 
L 240.299442 46.703984 
L 241.299442 46.593032 
L 242.299442 46.522374 
L 243.299442 46.409434 
L 244.299442 46.363661 
L 245.299442 46.302378 
L 246.299442 46.253878 
L 247.299442 46.173056 
L 248.299442 46.054537 
L 249.299442 45.984326 
L 250.299442 45.901064 
L 251.299442 45.867922 
L 252.299442 45.816684 
L 253.299442 45.748286 
L 254.299442 45.682071 
L 255.299442 45.605154 
L 256.619695 45.577838 
" clip-path="url(#pa5d9230d2b)" style="fill: none; stroke: #1f77b4; stroke-opacity: 0.5; stroke-width: 0.2; stroke-linecap: square"/>
   </g>
   <g id="line2d_2">
    <path d="M 200.299442 290.482831 
L 201.299442 290.514268 
L 202.299442 290.551208 
L 203.299442 290.648955 
L 204.299442 290.681476 
L 205.299442 290.755101 
L 206.299442 290.793666 
L 207.299442 290.82908 
L 208.299442 290.886719 
L 209.299442 290.957106 
L 210.299442 291.00907 
L 211.299442 291.06816 
L 212.299442 291.156481 
L 213.299442 291.202625 
L 214.299442 291.245036 
L 215.299442 291.275529 
L 216.299442 291.301573 
L 217.299442 291.322774 
L 218.299442 291.377075 
L 219.299442 291.405012 
L 220.299442 291.434736 
L 221.299442 291.460131 
L 222.299442 291.471331 
L 223.299442 291.481455 
L 224.299442 291.481251 
L 225.299442 291.471741 
L 226.299442 291.460088 
L 227.299442 291.429058 
L 228.299442 291.41789 
L 229.299442 291.387773 
L 230.299442 291.327996 
L 231.299442 291.290804 
L 232.299442 291.251708 
L 233.299442 291.209269 
L 234.299442 291.176504 
L 235.299442 291.109077 
L 236.299442 291.069951 
L 237.299442 291.027277 
L 238.299442 290.956696 
L 239.299442 290.920305 
L 240.299442 290.861902 
L 241.299442 290.750949 
L 242.299442 290.680291 
L 243.299442 290.567351 
L 244.299442 290.521578 
L 245.299442 290.460295 
L 246.299442 290.411796 
L 247.299442 290.330973 
L 248.299442 290.212454 
L 249.299442 290.142244 
L 250.299442 290.058981 
L 251.299442 290.025839 
L 252.299442 289.974602 
L 253.299442 289.906204 
L 254.299442 289.839988 
L 255.299442 289.763071 
L 256.619695 289.735756 
" clip-path="url(#pa5d9230d2b)" style="fill: none; stroke: #1f77b4; stroke-opacity: 0.5; stroke-width: 0.2; stroke-linecap: square"/>
   </g>
   <g id="line2d_3">
    <path d="M 200.299442 114.295476 
L 201.299442 114.326912 
L 202.299442 114.363852 
L 203.299442 114.461599 
L 204.299442 114.494121 
L 205.299442 114.567745 
L 206.299442 114.606311 
L 207.299442 114.641724 
L 208.299442 114.699364 
L 209.299442 114.76975 
L 210.299442 114.821714 
L 211.299442 114.880804 
L 212.299442 114.969125 
L 213.299442 115.015269 
L 214.299442 115.05768 
L 215.299442 115.088173 
L 216.299442 115.114218 
L 217.299442 115.135418 
L 218.299442 115.189719 
L 219.299442 115.217657 
L 220.299442 115.247381 
L 221.299442 115.272775 
L 222.299442 115.283976 
L 223.299442 115.2941 
L 224.299442 115.293896 
L 225.299442 115.284386 
L 226.299442 115.272732 
L 227.299442 115.241703 
L 228.299442 115.230535 
L 229.299442 115.200417 
L 230.299442 115.14064 
L 231.299442 115.103449 
L 232.299442 115.064353 
L 233.299442 115.021913 
L 234.299442 114.989148 
L 235.299442 114.921722 
L 236.299442 114.882596 
L 237.299442 114.839921 
L 238.299442 114.769341 
L 239.299442 114.73295 
L 240.299442 114.674546 
L 241.299442 114.563594 
L 242.299442 114.492936 
L 243.299442 114.379996 
L 244.299442 114.334223 
L 245.299442 114.27294 
L 246.299442 114.22444 
L 247.299442 114.143618 
L 248.299442 114.025099 
L 249.299442 113.954888 
L 250.299442 113.871626 
L 251.299442 113.838484 
L 252.299442 113.787247 
L 253.299442 113.718848 
L 254.299442 113.652633 
L 255.299442 113.575716 
L 256.619695 113.5484 
" clip-path="url(#pa5d9230d2b)" style="fill: none; stroke: #1f77b4; stroke-opacity: 0.5; stroke-width: 0.2; stroke-linecap: square"/>
   </g>
   <g id="line2d_4">
    <path d="M 200.299442 92.30456 
L 201.299442 92.335997 
L 202.299442 92.372937 
L 203.299442 92.470683 
L 204.299442 92.503205 
L 205.299442 92.57683 
L 206.299442 92.615395 
L 207.299442 92.650808 
L 208.299442 92.708448 
L 209.299442 92.778835 
L 210.299442 92.830799 
L 211.299442 92.889889 
L 212.299442 92.97821 
L 213.299442 93.024354 
L 214.299442 93.066765 
L 215.299442 93.097257 
L 216.299442 93.123302 
L 217.299442 93.144503 
L 218.299442 93.198804 
L 219.299442 93.226741 
L 220.299442 93.256465 
L 221.299442 93.28186 
L 222.299442 93.29306 
L 223.299442 93.303184 
L 224.299442 93.30298 
L 225.299442 93.29347 
L 226.299442 93.281817 
L 227.299442 93.250787 
L 228.299442 93.239619 
L 229.299442 93.209502 
L 230.299442 93.149725 
L 231.299442 93.112533 
L 232.299442 93.073437 
L 233.299442 93.030998 
L 234.299442 92.998233 
L 235.299442 92.930806 
L 236.299442 92.89168 
L 237.299442 92.849006 
L 238.299442 92.778425 
L 239.299442 92.742034 
L 240.299442 92.683631 
L 241.299442 92.572678 
L 242.299442 92.50202 
L 243.299442 92.38908 
L 244.299442 92.343307 
L 245.299442 92.282024 
L 246.299442 92.233525 
L 247.299442 92.152702 
L 248.299442 92.034183 
L 249.299442 91.963973 
L 250.299442 91.88071 
L 251.299442 91.847568 
L 252.299442 91.796331 
L 253.299442 91.727933 
L 254.299442 91.661717 
L 255.299442 91.5848 
L 256.619695 91.557485 
" clip-path="url(#pa5d9230d2b)" style="fill: none; stroke: #1f77b4; stroke-opacity: 0.5; stroke-width: 0.2; stroke-linecap: square"/>
   </g>
   <g id="line2d_5">
    <path d="M 200.299442 78.208962 
L 201.299442 78.240398 
L 202.299442 78.277339 
L 203.299442 78.375085 
L 204.299442 78.407607 
L 205.299442 78.481231 
L 206.299442 78.519797 
L 207.299442 78.55521 
L 208.299442 78.61285 
L 209.299442 78.683236 
L 210.299442 78.7352 
L 211.299442 78.79429 
L 212.299442 78.882611 
L 213.299442 78.928755 
L 214.299442 78.971166 
L 215.299442 79.001659 
L 216.299442 79.027704 
L 217.299442 79.048904 
L 218.299442 79.103205 
L 219.299442 79.131143 
L 220.299442 79.160867 
L 221.299442 79.186262 
L 222.299442 79.197462 
L 223.299442 79.207586 
L 224.299442 79.207382 
L 225.299442 79.197872 
L 226.299442 79.186218 
L 227.299442 79.155189 
L 228.299442 79.144021 
L 229.299442 79.113903 
L 230.299442 79.054126 
L 231.299442 79.016935 
L 232.299442 78.977839 
L 233.299442 78.935399 
L 234.299442 78.902634 
L 235.299442 78.835208 
L 236.299442 78.796082 
L 237.299442 78.753407 
L 238.299442 78.682827 
L 239.299442 78.646436 
L 240.299442 78.588033 
L 241.299442 78.47708 
L 242.299442 78.406422 
L 243.299442 78.293482 
L 244.299442 78.247709 
L 245.299442 78.186426 
L 246.299442 78.137926 
L 247.299442 78.057104 
L 248.299442 77.938585 
L 249.299442 77.868374 
L 250.299442 77.785112 
L 251.299442 77.75197 
L 252.299442 77.700733 
L 253.299442 77.632334 
L 254.299442 77.566119 
L 255.299442 77.489202 
L 256.619695 77.461886 
" clip-path="url(#pa5d9230d2b)" style="fill: none; stroke: #1f77b4; stroke-opacity: 0.5; stroke-width: 0.2; stroke-linecap: square"/>
   </g>
   <g id="line2d_6">
    <path d="M 200.299442 92.826152 
L 201.299442 92.857588 
L 202.299442 92.894529 
L 203.299442 92.992275 
L 204.299442 93.024797 
L 205.299442 93.098421 
L 206.299442 93.136987 
L 207.299442 93.1724 
L 208.299442 93.23004 
L 209.299442 93.300426 
L 210.299442 93.35239 
L 211.299442 93.41148 
L 212.299442 93.499801 
L 213.299442 93.545945 
L 214.299442 93.588356 
L 215.299442 93.618849 
L 216.299442 93.644894 
L 217.299442 93.666094 
L 218.299442 93.720395 
L 219.299442 93.748333 
L 220.299442 93.778057 
L 221.299442 93.803452 
L 222.299442 93.814652 
L 223.299442 93.824776 
L 224.299442 93.824572 
L 225.299442 93.815062 
L 226.299442 93.803408 
L 227.299442 93.772379 
L 228.299442 93.761211 
L 229.299442 93.731093 
L 230.299442 93.671316 
L 231.299442 93.634125 
L 232.299442 93.595029 
L 233.299442 93.552589 
L 234.299442 93.519824 
L 235.299442 93.452398 
L 236.299442 93.413272 
L 237.299442 93.370597 
L 238.299442 93.300017 
L 239.299442 93.263626 
L 240.299442 93.205223 
L 241.299442 93.09427 
L 242.299442 93.023612 
L 243.299442 92.910672 
L 244.299442 92.864899 
L 245.299442 92.803616 
L 246.299442 92.755116 
L 247.299442 92.674294 
L 248.299442 92.555775 
L 249.299442 92.485564 
L 250.299442 92.402302 
L 251.299442 92.36916 
L 252.299442 92.317923 
L 253.299442 92.249524 
L 254.299442 92.183309 
L 255.299442 92.106392 
L 256.619695 92.079076 
" clip-path="url(#pa5d9230d2b)" style="fill: none; stroke: #1f77b4; stroke-opacity: 0.5; stroke-width: 0.2; stroke-linecap: square"/>
   </g>
   <g id="line2d_7">
    <path d="M 200.299442 256.10041 
L 201.299442 256.131846 
L 202.299442 256.168786 
L 203.299442 256.266533 
L 204.299442 256.299054 
L 205.299442 256.372679 
L 206.299442 256.411245 
L 207.299442 256.446658 
L 208.299442 256.504298 
L 209.299442 256.574684 
L 210.299442 256.626648 
L 211.299442 256.685738 
L 212.299442 256.774059 
L 213.299442 256.820203 
L 214.299442 256.862614 
L 215.299442 256.893107 
L 216.299442 256.919152 
L 217.299442 256.940352 
L 218.299442 256.994653 
L 219.299442 257.022591 
L 220.299442 257.052315 
L 221.299442 257.077709 
L 222.299442 257.08891 
L 223.299442 257.099034 
L 224.299442 257.098829 
L 225.299442 257.089319 
L 226.299442 257.077666 
L 227.299442 257.046637 
L 228.299442 257.035469 
L 229.299442 257.005351 
L 230.299442 256.945574 
L 231.299442 256.908383 
L 232.299442 256.869287 
L 233.299442 256.826847 
L 234.299442 256.794082 
L 235.299442 256.726655 
L 236.299442 256.687529 
L 237.299442 256.644855 
L 238.299442 256.574274 
L 239.299442 256.537883 
L 240.299442 256.47948 
L 241.299442 256.368528 
L 242.299442 256.297869 
L 243.299442 256.18493 
L 244.299442 256.139157 
L 245.299442 256.077873 
L 246.299442 256.029374 
L 247.299442 255.948551 
L 248.299442 255.830033 
L 249.299442 255.759822 
L 250.299442 255.676559 
L 251.299442 255.643418 
L 252.299442 255.59218 
L 253.299442 255.523782 
L 254.299442 255.457567 
L 255.299442 255.38065 
L 256.619695 255.353334 
" clip-path="url(#pa5d9230d2b)" style="fill: none; stroke: #1f77b4; stroke-opacity: 0.5; stroke-width: 0.2; stroke-linecap: square"/>
   </g>
   <g id="line2d_8">
    <path d="M 200.299442 176.729784 
L 201.299442 176.76122 
L 202.299442 176.79816 
L 203.299442 176.895907 
L 204.299442 176.928429 
L 205.299442 177.002053 
L 206.299442 177.040619 
L 207.299442 177.076032 
L 208.299442 177.133672 
L 209.299442 177.204058 
L 210.299442 177.256022 
L 211.299442 177.315112 
L 212.299442 177.403433 
L 213.299442 177.449577 
L 214.299442 177.491988 
L 215.299442 177.522481 
L 216.299442 177.548526 
L 217.299442 177.569726 
L 218.299442 177.624027 
L 219.299442 177.651965 
L 220.299442 177.681689 
L 221.299442 177.707083 
L 222.299442 177.718284 
L 223.299442 177.728408 
L 224.299442 177.728204 
L 225.299442 177.718694 
L 226.299442 177.70704 
L 227.299442 177.676011 
L 228.299442 177.664843 
L 229.299442 177.634725 
L 230.299442 177.574948 
L 231.299442 177.537757 
L 232.299442 177.498661 
L 233.299442 177.456221 
L 234.299442 177.423456 
L 235.299442 177.35603 
L 236.299442 177.316904 
L 237.299442 177.274229 
L 238.299442 177.203649 
L 239.299442 177.167258 
L 240.299442 177.108854 
L 241.299442 176.997902 
L 242.299442 176.927244 
L 243.299442 176.814304 
L 244.299442 176.768531 
L 245.299442 176.707248 
L 246.299442 176.658748 
L 247.299442 176.577926 
L 248.299442 176.459407 
L 249.299442 176.389196 
L 250.299442 176.305934 
L 251.299442 176.272792 
L 252.299442 176.221555 
L 253.299442 176.153156 
L 254.299442 176.086941 
L 255.299442 176.010024 
L 256.619695 175.982708 
" clip-path="url(#pa5d9230d2b)" style="fill: none; stroke: #1f77b4; stroke-opacity: 0.5; stroke-width: 0.2; stroke-linecap: square"/>
   </g>
   <g id="line2d_9">
    <path d="M 200.299442 316.510219 
L 201.299442 316.541656 
L 202.299442 316.578596 
L 203.299442 316.676343 
L 204.299442 316.708864 
L 205.299442 316.782489 
L 206.299442 316.821055 
L 207.299442 316.856468 
L 208.299442 316.914108 
L 209.299442 316.984494 
L 210.299442 317.036458 
L 211.299442 317.095548 
L 212.299442 317.183869 
L 213.299442 317.230013 
L 214.299442 317.272424 
L 215.299442 317.302917 
L 216.299442 317.328962 
L 217.299442 317.350162 
L 218.299442 317.404463 
L 219.299442 317.4324 
L 220.299442 317.462124 
L 221.299442 317.487519 
L 222.299442 317.49872 
L 223.299442 317.508844 
L 224.299442 317.508639 
L 225.299442 317.499129 
L 226.299442 317.487476 
L 227.299442 317.456447 
L 228.299442 317.445279 
L 229.299442 317.415161 
L 230.299442 317.355384 
L 231.299442 317.318193 
L 232.299442 317.279097 
L 233.299442 317.236657 
L 234.299442 317.203892 
L 235.299442 317.136465 
L 236.299442 317.097339 
L 237.299442 317.054665 
L 238.299442 316.984084 
L 239.299442 316.947693 
L 240.299442 316.88929 
L 241.299442 316.778338 
L 242.299442 316.707679 
L 243.299442 316.594739 
L 244.299442 316.548967 
L 245.299442 316.487683 
L 246.299442 316.439184 
L 247.299442 316.358361 
L 248.299442 316.239842 
L 249.299442 316.169632 
L 250.299442 316.086369 
L 251.299442 316.053228 
L 252.299442 316.00199 
L 253.299442 315.933592 
L 254.299442 315.867376 
L 255.299442 315.790459 
L 256.619695 315.763144 
" clip-path="url(#pa5d9230d2b)" style="fill: none; stroke: #1f77b4; stroke-opacity: 0.5; stroke-width: 0.2; stroke-linecap: square"/>
   </g>
   <g id="line2d_10">
    <path d="M 200.299442 297.467432 
L 201.299442 297.498869 
L 202.299442 297.535809 
L 203.299442 297.633556 
L 204.299442 297.666077 
L 205.299442 297.739702 
L 206.299442 297.778267 
L 207.299442 297.813681 
L 208.299442 297.871321 
L 209.299442 297.941707 
L 210.299442 297.993671 
L 211.299442 298.052761 
L 212.299442 298.141082 
L 213.299442 298.187226 
L 214.299442 298.229637 
L 215.299442 298.26013 
L 216.299442 298.286175 
L 217.299442 298.307375 
L 218.299442 298.361676 
L 219.299442 298.389613 
L 220.299442 298.419337 
L 221.299442 298.444732 
L 222.299442 298.455932 
L 223.299442 298.466056 
L 224.299442 298.465852 
L 225.299442 298.456342 
L 226.299442 298.444689 
L 227.299442 298.413659 
L 228.299442 298.402491 
L 229.299442 298.372374 
L 230.299442 298.312597 
L 231.299442 298.275405 
L 232.299442 298.236309 
L 233.299442 298.19387 
L 234.299442 298.161105 
L 235.299442 298.093678 
L 236.299442 298.054552 
L 237.299442 298.011878 
L 238.299442 297.941297 
L 239.299442 297.904906 
L 240.299442 297.846503 
L 241.299442 297.73555 
L 242.299442 297.664892 
L 243.299442 297.551952 
L 244.299442 297.506179 
L 245.299442 297.444896 
L 246.299442 297.396397 
L 247.299442 297.315574 
L 248.299442 297.197055 
L 249.299442 297.126845 
L 250.299442 297.043582 
L 251.299442 297.01044 
L 252.299442 296.959203 
L 253.299442 296.890805 
L 254.299442 296.824589 
L 255.299442 296.747672 
L 256.619695 296.720357 
" clip-path="url(#pa5d9230d2b)" style="fill: none; stroke: #1f77b4; stroke-opacity: 0.5; stroke-width: 0.2; stroke-linecap: square"/>
   </g>
   <g id="line2d_11">
    <path d="M 256.619695 132.105526 
L 255.619695 132.07409 
L 254.619695 132.037149 
L 253.619695 131.939403 
L 252.619695 131.906881 
L 251.619695 131.833257 
L 250.619695 131.794691 
L 249.619695 131.759278 
L 248.619695 131.701638 
L 247.619695 131.631252 
L 246.619695 131.579288 
L 245.619695 131.520198 
L 244.619695 131.431877 
L 243.619695 131.385732 
L 242.619695 131.343322 
L 241.619695 131.312829 
L 240.619695 131.286784 
L 239.619695 131.265584 
L 238.619695 131.211283 
L 237.619695 131.183345 
L 236.619695 131.153621 
L 235.619695 131.128226 
L 234.619695 131.117026 
L 233.619695 131.106902 
L 232.619695 131.107106 
L 231.619695 131.116616 
L 230.619695 131.12827 
L 229.619695 131.159299 
L 228.619695 131.170467 
L 227.619695 131.200585 
L 226.619695 131.260361 
L 225.619695 131.297553 
L 224.619695 131.336649 
L 223.619695 131.379089 
L 222.619695 131.411854 
L 221.619695 131.47928 
L 220.619695 131.518406 
L 219.619695 131.561081 
L 218.619695 131.631661 
L 217.619695 131.668052 
L 216.619695 131.726455 
L 215.619695 131.837408 
L 214.619695 131.908066 
L 213.619695 132.021006 
L 212.619695 132.066779 
L 211.619695 132.128062 
L 210.619695 132.176562 
L 209.619695 132.257384 
L 208.619695 132.375903 
L 207.619695 132.446114 
L 206.619695 132.529376 
L 205.619695 132.562518 
L 204.619695 132.613755 
L 203.619695 132.682154 
L 202.619695 132.748369 
L 201.619695 132.825286 
L 200.299442 132.852602 
" clip-path="url(#pa5d9230d2b)" style="fill: none; stroke: #ff7f0e; stroke-opacity: 0.5; stroke-width: 0.2; stroke-linecap: square"/>
   </g>
   <g id="line2d_12">
    <path d="M 256.619695 119.671235 
L 255.619695 119.639798 
L 254.619695 119.602858 
L 253.619695 119.505111 
L 252.619695 119.47259 
L 251.619695 119.398965 
L 250.619695 119.360399 
L 249.619695 119.324986 
L 248.619695 119.267346 
L 247.619695 119.19696 
L 246.619695 119.144996 
L 245.619695 119.085906 
L 244.619695 118.997585 
L 243.619695 118.951441 
L 242.619695 118.90903 
L 241.619695 118.878537 
L 240.619695 118.852492 
L 239.619695 118.831292 
L 238.619695 118.776991 
L 237.619695 118.749054 
L 236.619695 118.71933 
L 235.619695 118.693935 
L 234.619695 118.682734 
L 233.619695 118.67261 
L 232.619695 118.672815 
L 231.619695 118.682325 
L 230.619695 118.693978 
L 229.619695 118.725007 
L 228.619695 118.736175 
L 227.619695 118.766293 
L 226.619695 118.82607 
L 225.619695 118.863261 
L 224.619695 118.902357 
L 223.619695 118.944797 
L 222.619695 118.977562 
L 221.619695 119.044989 
L 220.619695 119.084115 
L 219.619695 119.126789 
L 218.619695 119.19737 
L 217.619695 119.233761 
L 216.619695 119.292164 
L 215.619695 119.403116 
L 214.619695 119.473775 
L 213.619695 119.586715 
L 212.619695 119.632487 
L 211.619695 119.693771 
L 210.619695 119.74227 
L 209.619695 119.823093 
L 208.619695 119.941612 
L 207.619695 120.011822 
L 206.619695 120.095085 
L 205.619695 120.128226 
L 204.619695 120.179464 
L 203.619695 120.247862 
L 202.619695 120.314078 
L 201.619695 120.390995 
L 200.299442 120.41831 
" clip-path="url(#pa5d9230d2b)" style="fill: none; stroke: #ff7f0e; stroke-opacity: 0.5; stroke-width: 0.2; stroke-linecap: square"/>
   </g>
   <g id="line2d_13">
    <path d="M 256.619695 123.97494 
L 255.619695 123.943503 
L 254.619695 123.906563 
L 253.619695 123.808816 
L 252.619695 123.776295 
L 251.619695 123.70267 
L 250.619695 123.664104 
L 249.619695 123.628691 
L 248.619695 123.571051 
L 247.619695 123.500665 
L 246.619695 123.448701 
L 245.619695 123.389611 
L 244.619695 123.30129 
L 243.619695 123.255146 
L 242.619695 123.212735 
L 241.619695 123.182242 
L 240.619695 123.156197 
L 239.619695 123.134997 
L 238.619695 123.080696 
L 237.619695 123.052759 
L 236.619695 123.023035 
L 235.619695 122.99764 
L 234.619695 122.986439 
L 233.619695 122.976315 
L 232.619695 122.97652 
L 231.619695 122.98603 
L 230.619695 122.997683 
L 229.619695 123.028712 
L 228.619695 123.03988 
L 227.619695 123.069998 
L 226.619695 123.129775 
L 225.619695 123.166966 
L 224.619695 123.206062 
L 223.619695 123.248502 
L 222.619695 123.281267 
L 221.619695 123.348694 
L 220.619695 123.38782 
L 219.619695 123.430494 
L 218.619695 123.501075 
L 217.619695 123.537466 
L 216.619695 123.595869 
L 215.619695 123.706821 
L 214.619695 123.77748 
L 213.619695 123.890419 
L 212.619695 123.936192 
L 211.619695 123.997476 
L 210.619695 124.045975 
L 209.619695 124.126798 
L 208.619695 124.245317 
L 207.619695 124.315527 
L 206.619695 124.39879 
L 205.619695 124.431931 
L 204.619695 124.483169 
L 203.619695 124.551567 
L 202.619695 124.617783 
L 201.619695 124.6947 
L 200.299442 124.722015 
" clip-path="url(#pa5d9230d2b)" style="fill: none; stroke: #ff7f0e; stroke-opacity: 0.5; stroke-width: 0.2; stroke-linecap: square"/>
   </g>
   <g id="line2d_14">
    <path d="M 256.619695 198.201484 
L 255.619695 198.170048 
L 254.619695 198.133107 
L 253.619695 198.035361 
L 252.619695 198.002839 
L 251.619695 197.929215 
L 250.619695 197.890649 
L 249.619695 197.855236 
L 248.619695 197.797596 
L 247.619695 197.72721 
L 246.619695 197.675245 
L 245.619695 197.616156 
L 244.619695 197.527835 
L 243.619695 197.48169 
L 242.619695 197.439279 
L 241.619695 197.408787 
L 240.619695 197.382742 
L 239.619695 197.361542 
L 238.619695 197.307241 
L 237.619695 197.279303 
L 236.619695 197.249579 
L 235.619695 197.224184 
L 234.619695 197.212984 
L 233.619695 197.20286 
L 232.619695 197.203064 
L 231.619695 197.212574 
L 230.619695 197.224228 
L 229.619695 197.255257 
L 228.619695 197.266425 
L 227.619695 197.296542 
L 226.619695 197.356319 
L 225.619695 197.393511 
L 224.619695 197.432607 
L 223.619695 197.475047 
L 222.619695 197.507812 
L 221.619695 197.575238 
L 220.619695 197.614364 
L 219.619695 197.657039 
L 218.619695 197.727619 
L 217.619695 197.76401 
L 216.619695 197.822413 
L 215.619695 197.933366 
L 214.619695 198.004024 
L 213.619695 198.116964 
L 212.619695 198.162737 
L 211.619695 198.22402 
L 210.619695 198.27252 
L 209.619695 198.353342 
L 208.619695 198.471861 
L 207.619695 198.542072 
L 206.619695 198.625334 
L 205.619695 198.658476 
L 204.619695 198.709713 
L 203.619695 198.778112 
L 202.619695 198.844327 
L 201.619695 198.921244 
L 200.299442 198.94856 
" clip-path="url(#pa5d9230d2b)" style="fill: none; stroke: #ff7f0e; stroke-opacity: 0.5; stroke-width: 0.2; stroke-linecap: square"/>
   </g>
   <g id="line2d_15">
    <path d="M 256.619695 161.529771 
L 255.619695 161.498334 
L 254.619695 161.461394 
L 253.619695 161.363647 
L 252.619695 161.331126 
L 251.619695 161.257501 
L 250.619695 161.218936 
L 249.619695 161.183522 
L 248.619695 161.125882 
L 247.619695 161.055496 
L 246.619695 161.003532 
L 245.619695 160.944442 
L 244.619695 160.856121 
L 243.619695 160.809977 
L 242.619695 160.767566 
L 241.619695 160.737073 
L 240.619695 160.711028 
L 239.619695 160.689828 
L 238.619695 160.635527 
L 237.619695 160.60759 
L 236.619695 160.577866 
L 235.619695 160.552471 
L 234.619695 160.541271 
L 233.619695 160.531147 
L 232.619695 160.531351 
L 231.619695 160.540861 
L 230.619695 160.552514 
L 229.619695 160.583544 
L 228.619695 160.594712 
L 227.619695 160.624829 
L 226.619695 160.684606 
L 225.619695 160.721798 
L 224.619695 160.760894 
L 223.619695 160.803333 
L 222.619695 160.836098 
L 221.619695 160.903525 
L 220.619695 160.942651 
L 219.619695 160.985325 
L 218.619695 161.055906 
L 217.619695 161.092297 
L 216.619695 161.1507 
L 215.619695 161.261653 
L 214.619695 161.332311 
L 213.619695 161.445251 
L 212.619695 161.491024 
L 211.619695 161.552307 
L 210.619695 161.600806 
L 209.619695 161.681629 
L 208.619695 161.800148 
L 207.619695 161.870358 
L 206.619695 161.953621 
L 205.619695 161.986763 
L 204.619695 162.038 
L 203.619695 162.106398 
L 202.619695 162.172614 
L 201.619695 162.249531 
L 200.299442 162.276846 
" clip-path="url(#pa5d9230d2b)" style="fill: none; stroke: #ff7f0e; stroke-opacity: 0.5; stroke-width: 0.2; stroke-linecap: square"/>
   </g>
   <g id="line2d_16">
    <path d="M 256.619695 166.255127 
L 255.619695 166.223691 
L 254.619695 166.186751 
L 253.619695 166.089004 
L 252.619695 166.056482 
L 251.619695 165.982858 
L 250.619695 165.944292 
L 249.619695 165.908879 
L 248.619695 165.851239 
L 247.619695 165.780853 
L 246.619695 165.728889 
L 245.619695 165.669799 
L 244.619695 165.581478 
L 243.619695 165.535334 
L 242.619695 165.492923 
L 241.619695 165.46243 
L 240.619695 165.436385 
L 239.619695 165.415185 
L 238.619695 165.360884 
L 237.619695 165.332946 
L 236.619695 165.303222 
L 235.619695 165.277828 
L 234.619695 165.266627 
L 233.619695 165.256503 
L 232.619695 165.256708 
L 231.619695 165.266217 
L 230.619695 165.277871 
L 229.619695 165.3089 
L 228.619695 165.320068 
L 227.619695 165.350186 
L 226.619695 165.409963 
L 225.619695 165.447154 
L 224.619695 165.48625 
L 223.619695 165.52869 
L 222.619695 165.561455 
L 221.619695 165.628881 
L 220.619695 165.668007 
L 219.619695 165.710682 
L 218.619695 165.781263 
L 217.619695 165.817653 
L 216.619695 165.876057 
L 215.619695 165.987009 
L 214.619695 166.057667 
L 213.619695 166.170607 
L 212.619695 166.21638 
L 211.619695 166.277663 
L 210.619695 166.326163 
L 209.619695 166.406985 
L 208.619695 166.525504 
L 207.619695 166.595715 
L 206.619695 166.678977 
L 205.619695 166.712119 
L 204.619695 166.763357 
L 203.619695 166.831755 
L 202.619695 166.89797 
L 201.619695 166.974887 
L 200.299442 167.002203 
" clip-path="url(#pa5d9230d2b)" style="fill: none; stroke: #ff7f0e; stroke-opacity: 0.5; stroke-width: 0.2; stroke-linecap: square"/>
   </g>
   <g id="line2d_17">
    <path d="M 256.619695 32.890642 
L 255.619695 32.859205 
L 254.619695 32.822265 
L 253.619695 32.724519 
L 252.619695 32.691997 
L 251.619695 32.618372 
L 250.619695 32.579807 
L 249.619695 32.544394 
L 248.619695 32.486754 
L 247.619695 32.416367 
L 246.619695 32.364403 
L 245.619695 32.305313 
L 244.619695 32.216992 
L 243.619695 32.170848 
L 242.619695 32.128437 
L 241.619695 32.097945 
L 240.619695 32.0719 
L 239.619695 32.0507 
L 238.619695 31.996398 
L 237.619695 31.968461 
L 236.619695 31.938737 
L 235.619695 31.913342 
L 234.619695 31.902142 
L 233.619695 31.892018 
L 232.619695 31.892222 
L 231.619695 31.901732 
L 230.619695 31.913386 
L 229.619695 31.944415 
L 228.619695 31.955583 
L 227.619695 31.9857 
L 226.619695 32.045477 
L 225.619695 32.082669 
L 224.619695 32.121765 
L 223.619695 32.164204 
L 222.619695 32.19697 
L 221.619695 32.264396 
L 220.619695 32.303522 
L 219.619695 32.346196 
L 218.619695 32.416777 
L 217.619695 32.453168 
L 216.619695 32.511571 
L 215.619695 32.622524 
L 214.619695 32.693182 
L 213.619695 32.806122 
L 212.619695 32.851895 
L 211.619695 32.913178 
L 210.619695 32.961677 
L 209.619695 33.0425 
L 208.619695 33.161019 
L 207.619695 33.23123 
L 206.619695 33.314492 
L 205.619695 33.347634 
L 204.619695 33.398871 
L 203.619695 33.467269 
L 202.619695 33.533485 
L 201.619695 33.610402 
L 200.299442 33.637717 
" clip-path="url(#pa5d9230d2b)" style="fill: none; stroke: #ff7f0e; stroke-opacity: 0.5; stroke-width: 0.2; stroke-linecap: square"/>
   </g>
   <g id="line2d_18">
    <path d="M 256.619695 157.64556 
L 255.619695 157.614124 
L 254.619695 157.577183 
L 253.619695 157.479437 
L 252.619695 157.446915 
L 251.619695 157.373291 
L 250.619695 157.334725 
L 249.619695 157.299312 
L 248.619695 157.241672 
L 247.619695 157.171286 
L 246.619695 157.119322 
L 245.619695 157.060232 
L 244.619695 156.971911 
L 243.619695 156.925767 
L 242.619695 156.883356 
L 241.619695 156.852863 
L 240.619695 156.826818 
L 239.619695 156.805618 
L 238.619695 156.751317 
L 237.619695 156.723379 
L 236.619695 156.693655 
L 235.619695 156.66826 
L 234.619695 156.65706 
L 233.619695 156.646936 
L 232.619695 156.64714 
L 231.619695 156.65665 
L 230.619695 156.668304 
L 229.619695 156.699333 
L 228.619695 156.710501 
L 227.619695 156.740619 
L 226.619695 156.800396 
L 225.619695 156.837587 
L 224.619695 156.876683 
L 223.619695 156.919123 
L 222.619695 156.951888 
L 221.619695 157.019314 
L 220.619695 157.05844 
L 219.619695 157.101115 
L 218.619695 157.171695 
L 217.619695 157.208086 
L 216.619695 157.266489 
L 215.619695 157.377442 
L 214.619695 157.4481 
L 213.619695 157.56104 
L 212.619695 157.606813 
L 211.619695 157.668096 
L 210.619695 157.716596 
L 209.619695 157.797418 
L 208.619695 157.915937 
L 207.619695 157.986148 
L 206.619695 158.06941 
L 205.619695 158.102552 
L 204.619695 158.153789 
L 203.619695 158.222188 
L 202.619695 158.288403 
L 201.619695 158.36532 
L 200.299442 158.392636 
" clip-path="url(#pa5d9230d2b)" style="fill: none; stroke: #ff7f0e; stroke-opacity: 0.5; stroke-width: 0.2; stroke-linecap: square"/>
   </g>
   <g id="line2d_19">
    <path d="M 256.619695 298.029012 
L 255.619695 297.997575 
L 254.619695 297.960635 
L 253.619695 297.862888 
L 252.619695 297.830367 
L 251.619695 297.756742 
L 250.619695 297.718176 
L 249.619695 297.682763 
L 248.619695 297.625123 
L 247.619695 297.554737 
L 246.619695 297.502773 
L 245.619695 297.443683 
L 244.619695 297.355362 
L 243.619695 297.309218 
L 242.619695 297.266807 
L 241.619695 297.236314 
L 240.619695 297.210269 
L 239.619695 297.189069 
L 238.619695 297.134768 
L 237.619695 297.106831 
L 236.619695 297.077107 
L 235.619695 297.051712 
L 234.619695 297.040511 
L 233.619695 297.030387 
L 232.619695 297.030592 
L 231.619695 297.040102 
L 230.619695 297.051755 
L 229.619695 297.082785 
L 228.619695 297.093952 
L 227.619695 297.12407 
L 226.619695 297.183847 
L 225.619695 297.221038 
L 224.619695 297.260135 
L 223.619695 297.302574 
L 222.619695 297.335339 
L 221.619695 297.402766 
L 220.619695 297.441892 
L 219.619695 297.484566 
L 218.619695 297.555147 
L 217.619695 297.591538 
L 216.619695 297.649941 
L 215.619695 297.760893 
L 214.619695 297.831552 
L 213.619695 297.944492 
L 212.619695 297.990264 
L 211.619695 298.051548 
L 210.619695 298.100047 
L 209.619695 298.18087 
L 208.619695 298.299389 
L 207.619695 298.369599 
L 206.619695 298.452862 
L 205.619695 298.486003 
L 204.619695 298.537241 
L 203.619695 298.605639 
L 202.619695 298.671855 
L 201.619695 298.748772 
L 200.299442 298.776087 
" clip-path="url(#pa5d9230d2b)" style="fill: none; stroke: #ff7f0e; stroke-opacity: 0.5; stroke-width: 0.2; stroke-linecap: square"/>
   </g>
   <g id="line2d_20">
    <path d="M 256.619695 172.873163 
L 255.619695 172.841727 
L 254.619695 172.804787 
L 253.619695 172.70704 
L 252.619695 172.674518 
L 251.619695 172.600894 
L 250.619695 172.562328 
L 249.619695 172.526915 
L 248.619695 172.469275 
L 247.619695 172.398889 
L 246.619695 172.346925 
L 245.619695 172.287835 
L 244.619695 172.199514 
L 243.619695 172.15337 
L 242.619695 172.110959 
L 241.619695 172.080466 
L 240.619695 172.054421 
L 239.619695 172.033221 
L 238.619695 171.97892 
L 237.619695 171.950982 
L 236.619695 171.921258 
L 235.619695 171.895864 
L 234.619695 171.884663 
L 233.619695 171.874539 
L 232.619695 171.874744 
L 231.619695 171.884253 
L 230.619695 171.895907 
L 229.619695 171.926936 
L 228.619695 171.938104 
L 227.619695 171.968222 
L 226.619695 172.027999 
L 225.619695 172.06519 
L 224.619695 172.104286 
L 223.619695 172.146726 
L 222.619695 172.179491 
L 221.619695 172.246917 
L 220.619695 172.286043 
L 219.619695 172.328718 
L 218.619695 172.399299 
L 217.619695 172.435689 
L 216.619695 172.494093 
L 215.619695 172.605045 
L 214.619695 172.675703 
L 213.619695 172.788643 
L 212.619695 172.834416 
L 211.619695 172.895699 
L 210.619695 172.944199 
L 209.619695 173.025021 
L 208.619695 173.14354 
L 207.619695 173.213751 
L 206.619695 173.297013 
L 205.619695 173.330155 
L 204.619695 173.381393 
L 203.619695 173.449791 
L 202.619695 173.516006 
L 201.619695 173.592923 
L 200.299442 173.620239 
" clip-path="url(#pa5d9230d2b)" style="fill: none; stroke: #ff7f0e; stroke-opacity: 0.5; stroke-width: 0.2; stroke-linecap: square"/>
   </g>
   <g id="line2d_21">
    <path d="M 390.34593 47.512644 
L 391.34593 47.544081 
L 392.34593 47.581021 
L 393.34593 47.678768 
L 394.34593 47.711289 
L 395.34593 47.784914 
L 396.34593 47.82348 
L 397.34593 47.858893 
L 398.34593 47.916533 
L 399.34593 47.986919 
L 400.34593 48.038883 
L 401.34593 48.097973 
L 402.34593 48.186294 
L 403.34593 48.232438 
L 404.34593 48.274849 
L 405.34593 48.305342 
L 406.34593 48.331387 
L 407.34593 48.352587 
L 408.34593 48.406888 
L 409.34593 48.434825 
L 410.34593 48.464549 
L 411.34593 48.489944 
L 412.34593 48.501145 
L 413.34593 48.511269 
L 414.34593 48.511064 
L 415.34593 48.501554 
L 416.34593 48.489901 
L 417.34593 48.458871 
L 418.34593 48.447704 
L 419.34593 48.417586 
L 420.34593 48.357809 
L 421.34593 48.320618 
L 422.34593 48.281521 
L 423.34593 48.239082 
L 424.34593 48.206317 
L 425.34593 48.13889 
L 426.34593 48.099764 
L 427.34593 48.05709 
L 428.34593 47.986509 
L 429.34593 47.950118 
L 430.34593 47.891715 
L 431.34593 47.780763 
L 432.34593 47.710104 
L 433.34593 47.597164 
L 434.34593 47.551392 
L 435.34593 47.490108 
L 436.34593 47.441609 
L 437.34593 47.360786 
L 438.34593 47.242267 
L 439.34593 47.172057 
L 440.34593 47.088794 
L 441.34593 47.055653 
L 442.34593 47.004415 
L 443.34593 46.936017 
L 444.34593 46.869801 
L 445.34593 46.792884 
L 446.666183 46.765569 
" clip-path="url(#pa5d9230d2b)" style="fill: none; stroke: #ff7f0e; stroke-opacity: 0.5; stroke-width: 0.2; stroke-linecap: square"/>
   </g>
   <g id="line2d_22">
    <path d="M 390.34593 273.254162 
L 391.34593 273.285599 
L 392.34593 273.322539 
L 393.34593 273.420286 
L 394.34593 273.452807 
L 395.34593 273.526432 
L 396.34593 273.564998 
L 397.34593 273.600411 
L 398.34593 273.658051 
L 399.34593 273.728437 
L 400.34593 273.780401 
L 401.34593 273.839491 
L 402.34593 273.927812 
L 403.34593 273.973956 
L 404.34593 274.016367 
L 405.34593 274.04686 
L 406.34593 274.072905 
L 407.34593 274.094105 
L 408.34593 274.148406 
L 409.34593 274.176343 
L 410.34593 274.206067 
L 411.34593 274.231462 
L 412.34593 274.242663 
L 413.34593 274.252787 
L 414.34593 274.252582 
L 415.34593 274.243072 
L 416.34593 274.231419 
L 417.34593 274.200389 
L 418.34593 274.189222 
L 419.34593 274.159104 
L 420.34593 274.099327 
L 421.34593 274.062136 
L 422.34593 274.023039 
L 423.34593 273.9806 
L 424.34593 273.947835 
L 425.34593 273.880408 
L 426.34593 273.841282 
L 427.34593 273.798608 
L 428.34593 273.728027 
L 429.34593 273.691636 
L 430.34593 273.633233 
L 431.34593 273.522281 
L 432.34593 273.451622 
L 433.34593 273.338682 
L 434.34593 273.29291 
L 435.34593 273.231626 
L 436.34593 273.183127 
L 437.34593 273.102304 
L 438.34593 272.983785 
L 439.34593 272.913575 
L 440.34593 272.830312 
L 441.34593 272.797171 
L 442.34593 272.745933 
L 443.34593 272.677535 
L 444.34593 272.611319 
L 445.34593 272.534402 
L 446.666183 272.507087 
" clip-path="url(#pa5d9230d2b)" style="fill: none; stroke: #ff7f0e; stroke-opacity: 0.5; stroke-width: 0.2; stroke-linecap: square"/>
   </g>
   <g id="line2d_23">
    <path d="M 390.34593 222.393487 
L 391.34593 222.424923 
L 392.34593 222.461864 
L 393.34593 222.55961 
L 394.34593 222.592132 
L 395.34593 222.665757 
L 396.34593 222.704322 
L 397.34593 222.739735 
L 398.34593 222.797375 
L 399.34593 222.867761 
L 400.34593 222.919726 
L 401.34593 222.978815 
L 402.34593 223.067136 
L 403.34593 223.113281 
L 404.34593 223.155692 
L 405.34593 223.186184 
L 406.34593 223.212229 
L 407.34593 223.233429 
L 408.34593 223.28773 
L 409.34593 223.315668 
L 410.34593 223.345392 
L 411.34593 223.370787 
L 412.34593 223.381987 
L 413.34593 223.392111 
L 414.34593 223.391907 
L 415.34593 223.382397 
L 416.34593 223.370743 
L 417.34593 223.339714 
L 418.34593 223.328546 
L 419.34593 223.298429 
L 420.34593 223.238652 
L 421.34593 223.20146 
L 422.34593 223.162364 
L 423.34593 223.119924 
L 424.34593 223.087159 
L 425.34593 223.019733 
L 426.34593 222.980607 
L 427.34593 222.937932 
L 428.34593 222.867352 
L 429.34593 222.830961 
L 430.34593 222.772558 
L 431.34593 222.661605 
L 432.34593 222.590947 
L 433.34593 222.478007 
L 434.34593 222.432234 
L 435.34593 222.370951 
L 436.34593 222.322452 
L 437.34593 222.241629 
L 438.34593 222.12311 
L 439.34593 222.052899 
L 440.34593 221.969637 
L 441.34593 221.936495 
L 442.34593 221.885258 
L 443.34593 221.816859 
L 444.34593 221.750644 
L 445.34593 221.673727 
L 446.666183 221.646411 
" clip-path="url(#pa5d9230d2b)" style="fill: none; stroke: #ff7f0e; stroke-opacity: 0.5; stroke-width: 0.2; stroke-linecap: square"/>
   </g>
   <g id="line2d_24">
    <path d="M 390.34593 215.554729 
L 391.34593 215.586165 
L 392.34593 215.623105 
L 393.34593 215.720852 
L 394.34593 215.753373 
L 395.34593 215.826998 
L 396.34593 215.865564 
L 397.34593 215.900977 
L 398.34593 215.958617 
L 399.34593 216.029003 
L 400.34593 216.080967 
L 401.34593 216.140057 
L 402.34593 216.228378 
L 403.34593 216.274522 
L 404.34593 216.316933 
L 405.34593 216.347426 
L 406.34593 216.373471 
L 407.34593 216.394671 
L 408.34593 216.448972 
L 409.34593 216.47691 
L 410.34593 216.506634 
L 411.34593 216.532028 
L 412.34593 216.543229 
L 413.34593 216.553353 
L 414.34593 216.553148 
L 415.34593 216.543638 
L 416.34593 216.531985 
L 417.34593 216.500956 
L 418.34593 216.489788 
L 419.34593 216.45967 
L 420.34593 216.399893 
L 421.34593 216.362702 
L 422.34593 216.323606 
L 423.34593 216.281166 
L 424.34593 216.248401 
L 425.34593 216.180974 
L 426.34593 216.141849 
L 427.34593 216.099174 
L 428.34593 216.028593 
L 429.34593 215.992203 
L 430.34593 215.933799 
L 431.34593 215.822847 
L 432.34593 215.752188 
L 433.34593 215.639249 
L 434.34593 215.593476 
L 435.34593 215.532192 
L 436.34593 215.483693 
L 437.34593 215.40287 
L 438.34593 215.284352 
L 439.34593 215.214141 
L 440.34593 215.130878 
L 441.34593 215.097737 
L 442.34593 215.046499 
L 443.34593 214.978101 
L 444.34593 214.911886 
L 445.34593 214.834969 
L 446.666183 214.807653 
" clip-path="url(#pa5d9230d2b)" style="fill: none; stroke: #ff7f0e; stroke-opacity: 0.5; stroke-width: 0.2; stroke-linecap: square"/>
   </g>
   <g id="line2d_25">
    <path d="M 390.34593 272.104941 
L 391.34593 272.136377 
L 392.34593 272.173317 
L 393.34593 272.271064 
L 394.34593 272.303585 
L 395.34593 272.37721 
L 396.34593 272.415776 
L 397.34593 272.451189 
L 398.34593 272.508829 
L 399.34593 272.579215 
L 400.34593 272.631179 
L 401.34593 272.690269 
L 402.34593 272.77859 
L 403.34593 272.824734 
L 404.34593 272.867145 
L 405.34593 272.897638 
L 406.34593 272.923683 
L 407.34593 272.944883 
L 408.34593 272.999184 
L 409.34593 273.027122 
L 410.34593 273.056846 
L 411.34593 273.08224 
L 412.34593 273.093441 
L 413.34593 273.103565 
L 414.34593 273.10336 
L 415.34593 273.09385 
L 416.34593 273.082197 
L 417.34593 273.051168 
L 418.34593 273.04 
L 419.34593 273.009882 
L 420.34593 272.950105 
L 421.34593 272.912914 
L 422.34593 272.873818 
L 423.34593 272.831378 
L 424.34593 272.798613 
L 425.34593 272.731186 
L 426.34593 272.69206 
L 427.34593 272.649386 
L 428.34593 272.578805 
L 429.34593 272.542414 
L 430.34593 272.484011 
L 431.34593 272.373059 
L 432.34593 272.3024 
L 433.34593 272.189461 
L 434.34593 272.143688 
L 435.34593 272.082404 
L 436.34593 272.033905 
L 437.34593 271.953082 
L 438.34593 271.834564 
L 439.34593 271.764353 
L 440.34593 271.68109 
L 441.34593 271.647949 
L 442.34593 271.596711 
L 443.34593 271.528313 
L 444.34593 271.462098 
L 445.34593 271.38518 
L 446.666183 271.357865 
" clip-path="url(#pa5d9230d2b)" style="fill: none; stroke: #ff7f0e; stroke-opacity: 0.5; stroke-width: 0.2; stroke-linecap: square"/>
   </g>
   <g id="line2d_26">
    <path d="M 390.34593 151.49228 
L 391.34593 151.523716 
L 392.34593 151.560657 
L 393.34593 151.658403 
L 394.34593 151.690925 
L 395.34593 151.764549 
L 396.34593 151.803115 
L 397.34593 151.838528 
L 398.34593 151.896168 
L 399.34593 151.966554 
L 400.34593 152.018518 
L 401.34593 152.077608 
L 402.34593 152.165929 
L 403.34593 152.212073 
L 404.34593 152.254484 
L 405.34593 152.284977 
L 406.34593 152.311022 
L 407.34593 152.332222 
L 408.34593 152.386523 
L 409.34593 152.414461 
L 410.34593 152.444185 
L 411.34593 152.46958 
L 412.34593 152.48078 
L 413.34593 152.490904 
L 414.34593 152.4907 
L 415.34593 152.48119 
L 416.34593 152.469536 
L 417.34593 152.438507 
L 418.34593 152.427339 
L 419.34593 152.397221 
L 420.34593 152.337444 
L 421.34593 152.300253 
L 422.34593 152.261157 
L 423.34593 152.218717 
L 424.34593 152.185952 
L 425.34593 152.118526 
L 426.34593 152.0794 
L 427.34593 152.036725 
L 428.34593 151.966145 
L 429.34593 151.929754 
L 430.34593 151.871351 
L 431.34593 151.760398 
L 432.34593 151.68974 
L 433.34593 151.5768 
L 434.34593 151.531027 
L 435.34593 151.469744 
L 436.34593 151.421244 
L 437.34593 151.340422 
L 438.34593 151.221903 
L 439.34593 151.151692 
L 440.34593 151.06843 
L 441.34593 151.035288 
L 442.34593 150.984051 
L 443.34593 150.915652 
L 444.34593 150.849437 
L 445.34593 150.77252 
L 446.666183 150.745204 
" clip-path="url(#pa5d9230d2b)" style="fill: none; stroke: #ff7f0e; stroke-opacity: 0.5; stroke-width: 0.2; stroke-linecap: square"/>
   </g>
   <g id="line2d_27">
    <path d="M 390.34593 258.060204 
L 391.34593 258.091641 
L 392.34593 258.128581 
L 393.34593 258.226328 
L 394.34593 258.258849 
L 395.34593 258.332474 
L 396.34593 258.37104 
L 397.34593 258.406453 
L 398.34593 258.464093 
L 399.34593 258.534479 
L 400.34593 258.586443 
L 401.34593 258.645533 
L 402.34593 258.733854 
L 403.34593 258.779998 
L 404.34593 258.822409 
L 405.34593 258.852902 
L 406.34593 258.878947 
L 407.34593 258.900147 
L 408.34593 258.954448 
L 409.34593 258.982385 
L 410.34593 259.012109 
L 411.34593 259.037504 
L 412.34593 259.048705 
L 413.34593 259.058829 
L 414.34593 259.058624 
L 415.34593 259.049114 
L 416.34593 259.037461 
L 417.34593 259.006432 
L 418.34593 258.995264 
L 419.34593 258.965146 
L 420.34593 258.905369 
L 421.34593 258.868178 
L 422.34593 258.829082 
L 423.34593 258.786642 
L 424.34593 258.753877 
L 425.34593 258.68645 
L 426.34593 258.647324 
L 427.34593 258.60465 
L 428.34593 258.534069 
L 429.34593 258.497678 
L 430.34593 258.439275 
L 431.34593 258.328323 
L 432.34593 258.257664 
L 433.34593 258.144724 
L 434.34593 258.098952 
L 435.34593 258.037668 
L 436.34593 257.989169 
L 437.34593 257.908346 
L 438.34593 257.789827 
L 439.34593 257.719617 
L 440.34593 257.636354 
L 441.34593 257.603213 
L 442.34593 257.551975 
L 443.34593 257.483577 
L 444.34593 257.417361 
L 445.34593 257.340444 
L 446.666183 257.313129 
" clip-path="url(#pa5d9230d2b)" style="fill: none; stroke: #ff7f0e; stroke-opacity: 0.5; stroke-width: 0.2; stroke-linecap: square"/>
   </g>
   <g id="line2d_28">
    <path d="M 390.34593 286.143988 
L 391.34593 286.175425 
L 392.34593 286.212365 
L 393.34593 286.310112 
L 394.34593 286.342633 
L 395.34593 286.416258 
L 396.34593 286.454824 
L 397.34593 286.490237 
L 398.34593 286.547877 
L 399.34593 286.618263 
L 400.34593 286.670227 
L 401.34593 286.729317 
L 402.34593 286.817638 
L 403.34593 286.863782 
L 404.34593 286.906193 
L 405.34593 286.936686 
L 406.34593 286.962731 
L 407.34593 286.983931 
L 408.34593 287.038232 
L 409.34593 287.066169 
L 410.34593 287.095893 
L 411.34593 287.121288 
L 412.34593 287.132489 
L 413.34593 287.142613 
L 414.34593 287.142408 
L 415.34593 287.132898 
L 416.34593 287.121245 
L 417.34593 287.090216 
L 418.34593 287.079048 
L 419.34593 287.04893 
L 420.34593 286.989153 
L 421.34593 286.951962 
L 422.34593 286.912866 
L 423.34593 286.870426 
L 424.34593 286.837661 
L 425.34593 286.770234 
L 426.34593 286.731108 
L 427.34593 286.688434 
L 428.34593 286.617853 
L 429.34593 286.581462 
L 430.34593 286.523059 
L 431.34593 286.412107 
L 432.34593 286.341448 
L 433.34593 286.228509 
L 434.34593 286.182736 
L 435.34593 286.121452 
L 436.34593 286.072953 
L 437.34593 285.99213 
L 438.34593 285.873611 
L 439.34593 285.803401 
L 440.34593 285.720138 
L 441.34593 285.686997 
L 442.34593 285.635759 
L 443.34593 285.567361 
L 444.34593 285.501145 
L 445.34593 285.424228 
L 446.666183 285.396913 
" clip-path="url(#pa5d9230d2b)" style="fill: none; stroke: #ff7f0e; stroke-opacity: 0.5; stroke-width: 0.2; stroke-linecap: square"/>
   </g>
   <g id="line2d_29">
    <path d="M 390.34593 202.207246 
L 391.34593 202.238683 
L 392.34593 202.275623 
L 393.34593 202.37337 
L 394.34593 202.405891 
L 395.34593 202.479516 
L 396.34593 202.518082 
L 397.34593 202.553495 
L 398.34593 202.611135 
L 399.34593 202.681521 
L 400.34593 202.733485 
L 401.34593 202.792575 
L 402.34593 202.880896 
L 403.34593 202.92704 
L 404.34593 202.969451 
L 405.34593 202.999944 
L 406.34593 203.025989 
L 407.34593 203.047189 
L 408.34593 203.10149 
L 409.34593 203.129427 
L 410.34593 203.159151 
L 411.34593 203.184546 
L 412.34593 203.195747 
L 413.34593 203.205871 
L 414.34593 203.205666 
L 415.34593 203.196156 
L 416.34593 203.184503 
L 417.34593 203.153473 
L 418.34593 203.142306 
L 419.34593 203.112188 
L 420.34593 203.052411 
L 421.34593 203.01522 
L 422.34593 202.976123 
L 423.34593 202.933684 
L 424.34593 202.900919 
L 425.34593 202.833492 
L 426.34593 202.794366 
L 427.34593 202.751692 
L 428.34593 202.681111 
L 429.34593 202.64472 
L 430.34593 202.586317 
L 431.34593 202.475365 
L 432.34593 202.404706 
L 433.34593 202.291766 
L 434.34593 202.245994 
L 435.34593 202.18471 
L 436.34593 202.136211 
L 437.34593 202.055388 
L 438.34593 201.936869 
L 439.34593 201.866659 
L 440.34593 201.783396 
L 441.34593 201.750254 
L 442.34593 201.699017 
L 443.34593 201.630619 
L 444.34593 201.564403 
L 445.34593 201.487486 
L 446.666183 201.460171 
" clip-path="url(#pa5d9230d2b)" style="fill: none; stroke: #ff7f0e; stroke-opacity: 0.5; stroke-width: 0.2; stroke-linecap: square"/>
   </g>
   <g id="line2d_30">
    <path d="M 390.34593 240.511084 
L 391.34593 240.54252 
L 392.34593 240.579461 
L 393.34593 240.677207 
L 394.34593 240.709729 
L 395.34593 240.783354 
L 396.34593 240.821919 
L 397.34593 240.857332 
L 398.34593 240.914972 
L 399.34593 240.985359 
L 400.34593 241.037323 
L 401.34593 241.096413 
L 402.34593 241.184733 
L 403.34593 241.230878 
L 404.34593 241.273289 
L 405.34593 241.303781 
L 406.34593 241.329826 
L 407.34593 241.351026 
L 408.34593 241.405328 
L 409.34593 241.433265 
L 410.34593 241.462989 
L 411.34593 241.488384 
L 412.34593 241.499584 
L 413.34593 241.509708 
L 414.34593 241.509504 
L 415.34593 241.499994 
L 416.34593 241.48834 
L 417.34593 241.457311 
L 418.34593 241.446143 
L 419.34593 241.416026 
L 420.34593 241.356249 
L 421.34593 241.319057 
L 422.34593 241.279961 
L 423.34593 241.237522 
L 424.34593 241.204756 
L 425.34593 241.13733 
L 426.34593 241.098204 
L 427.34593 241.05553 
L 428.34593 240.984949 
L 429.34593 240.948558 
L 430.34593 240.890155 
L 431.34593 240.779202 
L 432.34593 240.708544 
L 433.34593 240.595604 
L 434.34593 240.549831 
L 435.34593 240.488548 
L 436.34593 240.440049 
L 437.34593 240.359226 
L 438.34593 240.240707 
L 439.34593 240.170496 
L 440.34593 240.087234 
L 441.34593 240.054092 
L 442.34593 240.002855 
L 443.34593 239.934457 
L 444.34593 239.868241 
L 445.34593 239.791324 
L 446.666183 239.764009 
" clip-path="url(#pa5d9230d2b)" style="fill: none; stroke: #ff7f0e; stroke-opacity: 0.5; stroke-width: 0.2; stroke-linecap: square"/>
   </g>
   <g id="line2d_31">
    <path d="M 446.666183 112.940972 
L 445.666183 112.909535 
L 444.666183 112.872595 
L 443.666183 112.774848 
L 442.666183 112.742327 
L 441.666183 112.668702 
L 440.666183 112.630137 
L 439.666183 112.594723 
L 438.666183 112.537083 
L 437.666183 112.466697 
L 436.666183 112.414733 
L 435.666183 112.355643 
L 434.666183 112.267322 
L 433.666183 112.221178 
L 432.666183 112.178767 
L 431.666183 112.148274 
L 430.666183 112.122229 
L 429.666183 112.101029 
L 428.666183 112.046728 
L 427.666183 112.018791 
L 426.666183 111.989067 
L 425.666183 111.963672 
L 424.666183 111.952472 
L 423.666183 111.942348 
L 422.666183 111.942552 
L 421.666183 111.952062 
L 420.666183 111.963715 
L 419.666183 111.994745 
L 418.666183 112.005913 
L 417.666183 112.03603 
L 416.666183 112.095807 
L 415.666183 112.132999 
L 414.666183 112.172095 
L 413.666183 112.214534 
L 412.666183 112.247299 
L 411.666183 112.314726 
L 410.666183 112.353852 
L 409.666183 112.396526 
L 408.666183 112.467107 
L 407.666183 112.503498 
L 406.666183 112.561901 
L 405.666183 112.672854 
L 404.666183 112.743512 
L 403.666183 112.856452 
L 402.666183 112.902225 
L 401.666183 112.963508 
L 400.666183 113.012007 
L 399.666183 113.09283 
L 398.666183 113.211349 
L 397.666183 113.281559 
L 396.666183 113.364822 
L 395.666183 113.397964 
L 394.666183 113.449201 
L 393.666183 113.517599 
L 392.666183 113.583815 
L 391.666183 113.660732 
L 390.34593 113.688047 
" clip-path="url(#pa5d9230d2b)" style="fill: none; stroke: #2ca02c; stroke-opacity: 0.5; stroke-width: 0.2; stroke-linecap: square"/>
   </g>
   <g id="line2d_32">
    <path d="M 446.666183 221.009183 
L 445.666183 220.977747 
L 444.666183 220.940807 
L 443.666183 220.84306 
L 442.666183 220.810538 
L 441.666183 220.736914 
L 440.666183 220.698348 
L 439.666183 220.662935 
L 438.666183 220.605295 
L 437.666183 220.534909 
L 436.666183 220.482945 
L 435.666183 220.423855 
L 434.666183 220.335534 
L 433.666183 220.28939 
L 432.666183 220.246979 
L 431.666183 220.216486 
L 430.666183 220.190441 
L 429.666183 220.169241 
L 428.666183 220.11494 
L 427.666183 220.087002 
L 426.666183 220.057278 
L 425.666183 220.031884 
L 424.666183 220.020683 
L 423.666183 220.010559 
L 422.666183 220.010764 
L 421.666183 220.020273 
L 420.666183 220.031927 
L 419.666183 220.062956 
L 418.666183 220.074124 
L 417.666183 220.104242 
L 416.666183 220.164019 
L 415.666183 220.20121 
L 414.666183 220.240306 
L 413.666183 220.282746 
L 412.666183 220.315511 
L 411.666183 220.382937 
L 410.666183 220.422063 
L 409.666183 220.464738 
L 408.666183 220.535318 
L 407.666183 220.571709 
L 406.666183 220.630113 
L 405.666183 220.741065 
L 404.666183 220.811723 
L 403.666183 220.924663 
L 402.666183 220.970436 
L 401.666183 221.031719 
L 400.666183 221.080219 
L 399.666183 221.161041 
L 398.666183 221.27956 
L 397.666183 221.349771 
L 396.666183 221.433033 
L 395.666183 221.466175 
L 394.666183 221.517412 
L 393.666183 221.585811 
L 392.666183 221.652026 
L 391.666183 221.728943 
L 390.34593 221.756259 
" clip-path="url(#pa5d9230d2b)" style="fill: none; stroke: #2ca02c; stroke-opacity: 0.5; stroke-width: 0.2; stroke-linecap: square"/>
   </g>
   <g id="line2d_33">
    <path d="M 446.666183 135.95992 
L 445.666183 135.928483 
L 444.666183 135.891543 
L 443.666183 135.793796 
L 442.666183 135.761275 
L 441.666183 135.68765 
L 440.666183 135.649084 
L 439.666183 135.613671 
L 438.666183 135.556031 
L 437.666183 135.485645 
L 436.666183 135.433681 
L 435.666183 135.374591 
L 434.666183 135.28627 
L 433.666183 135.240126 
L 432.666183 135.197715 
L 431.666183 135.167222 
L 430.666183 135.141177 
L 429.666183 135.119977 
L 428.666183 135.065676 
L 427.666183 135.037739 
L 426.666183 135.008015 
L 425.666183 134.98262 
L 424.666183 134.971419 
L 423.666183 134.961295 
L 422.666183 134.9615 
L 421.666183 134.97101 
L 420.666183 134.982663 
L 419.666183 135.013692 
L 418.666183 135.02486 
L 417.666183 135.054978 
L 416.666183 135.114755 
L 415.666183 135.151946 
L 414.666183 135.191042 
L 413.666183 135.233482 
L 412.666183 135.266247 
L 411.666183 135.333674 
L 410.666183 135.3728 
L 409.666183 135.415474 
L 408.666183 135.486055 
L 407.666183 135.522446 
L 406.666183 135.580849 
L 405.666183 135.691801 
L 404.666183 135.76246 
L 403.666183 135.875399 
L 402.666183 135.921172 
L 401.666183 135.982456 
L 400.666183 136.030955 
L 399.666183 136.111778 
L 398.666183 136.230297 
L 397.666183 136.300507 
L 396.666183 136.38377 
L 395.666183 136.416911 
L 394.666183 136.468149 
L 393.666183 136.536547 
L 392.666183 136.602763 
L 391.666183 136.67968 
L 390.34593 136.706995 
" clip-path="url(#pa5d9230d2b)" style="fill: none; stroke: #2ca02c; stroke-opacity: 0.5; stroke-width: 0.2; stroke-linecap: square"/>
   </g>
   <g id="line2d_34">
    <path d="M 446.666183 157.38849 
L 445.666183 157.357053 
L 444.666183 157.320113 
L 443.666183 157.222366 
L 442.666183 157.189845 
L 441.666183 157.11622 
L 440.666183 157.077654 
L 439.666183 157.042241 
L 438.666183 156.984601 
L 437.666183 156.914215 
L 436.666183 156.862251 
L 435.666183 156.803161 
L 434.666183 156.71484 
L 433.666183 156.668696 
L 432.666183 156.626285 
L 431.666183 156.595792 
L 430.666183 156.569747 
L 429.666183 156.548547 
L 428.666183 156.494246 
L 427.666183 156.466309 
L 426.666183 156.436585 
L 425.666183 156.41119 
L 424.666183 156.399989 
L 423.666183 156.389865 
L 422.666183 156.39007 
L 421.666183 156.39958 
L 420.666183 156.411233 
L 419.666183 156.442263 
L 418.666183 156.45343 
L 417.666183 156.483548 
L 416.666183 156.543325 
L 415.666183 156.580516 
L 414.666183 156.619613 
L 413.666183 156.662052 
L 412.666183 156.694817 
L 411.666183 156.762244 
L 410.666183 156.80137 
L 409.666183 156.844044 
L 408.666183 156.914625 
L 407.666183 156.951016 
L 406.666183 157.009419 
L 405.666183 157.120371 
L 404.666183 157.19103 
L 403.666183 157.30397 
L 402.666183 157.349742 
L 401.666183 157.411026 
L 400.666183 157.459525 
L 399.666183 157.540348 
L 398.666183 157.658867 
L 397.666183 157.729077 
L 396.666183 157.81234 
L 395.666183 157.845482 
L 394.666183 157.896719 
L 393.666183 157.965117 
L 392.666183 158.031333 
L 391.666183 158.10825 
L 390.34593 158.135565 
" clip-path="url(#pa5d9230d2b)" style="fill: none; stroke: #2ca02c; stroke-opacity: 0.5; stroke-width: 0.2; stroke-linecap: square"/>
   </g>
   <g id="line2d_35">
    <path d="M 446.666183 127.117688 
L 445.666183 127.086252 
L 444.666183 127.049312 
L 443.666183 126.951565 
L 442.666183 126.919043 
L 441.666183 126.845419 
L 440.666183 126.806853 
L 439.666183 126.77144 
L 438.666183 126.7138 
L 437.666183 126.643414 
L 436.666183 126.59145 
L 435.666183 126.53236 
L 434.666183 126.444039 
L 433.666183 126.397895 
L 432.666183 126.355484 
L 431.666183 126.324991 
L 430.666183 126.298946 
L 429.666183 126.277746 
L 428.666183 126.223445 
L 427.666183 126.195507 
L 426.666183 126.165783 
L 425.666183 126.140389 
L 424.666183 126.129188 
L 423.666183 126.119064 
L 422.666183 126.119269 
L 421.666183 126.128778 
L 420.666183 126.140432 
L 419.666183 126.171461 
L 418.666183 126.182629 
L 417.666183 126.212747 
L 416.666183 126.272524 
L 415.666183 126.309715 
L 414.666183 126.348811 
L 413.666183 126.391251 
L 412.666183 126.424016 
L 411.666183 126.491442 
L 410.666183 126.530568 
L 409.666183 126.573243 
L 408.666183 126.643824 
L 407.666183 126.680214 
L 406.666183 126.738618 
L 405.666183 126.84957 
L 404.666183 126.920228 
L 403.666183 127.033168 
L 402.666183 127.078941 
L 401.666183 127.140224 
L 400.666183 127.188724 
L 399.666183 127.269546 
L 398.666183 127.388065 
L 397.666183 127.458276 
L 396.666183 127.541538 
L 395.666183 127.57468 
L 394.666183 127.625918 
L 393.666183 127.694316 
L 392.666183 127.760531 
L 391.666183 127.837448 
L 390.34593 127.864764 
" clip-path="url(#pa5d9230d2b)" style="fill: none; stroke: #2ca02c; stroke-opacity: 0.5; stroke-width: 0.2; stroke-linecap: square"/>
   </g>
   <g id="line2d_36">
    <path d="M 446.666183 272.586266 
L 445.666183 272.55483 
L 444.666183 272.517889 
L 443.666183 272.420143 
L 442.666183 272.387621 
L 441.666183 272.313997 
L 440.666183 272.275431 
L 439.666183 272.240018 
L 438.666183 272.182378 
L 437.666183 272.111992 
L 436.666183 272.060028 
L 435.666183 272.000938 
L 434.666183 271.912617 
L 433.666183 271.866473 
L 432.666183 271.824062 
L 431.666183 271.793569 
L 430.666183 271.767524 
L 429.666183 271.746324 
L 428.666183 271.692023 
L 427.666183 271.664085 
L 426.666183 271.634361 
L 425.666183 271.608966 
L 424.666183 271.597766 
L 423.666183 271.587642 
L 422.666183 271.587846 
L 421.666183 271.597356 
L 420.666183 271.60901 
L 419.666183 271.640039 
L 418.666183 271.651207 
L 417.666183 271.681325 
L 416.666183 271.741102 
L 415.666183 271.778293 
L 414.666183 271.817389 
L 413.666183 271.859829 
L 412.666183 271.892594 
L 411.666183 271.96002 
L 410.666183 271.999146 
L 409.666183 272.041821 
L 408.666183 272.112401 
L 407.666183 272.148792 
L 406.666183 272.207195 
L 405.666183 272.318148 
L 404.666183 272.388806 
L 403.666183 272.501746 
L 402.666183 272.547519 
L 401.666183 272.608802 
L 400.666183 272.657302 
L 399.666183 272.738124 
L 398.666183 272.856643 
L 397.666183 272.926854 
L 396.666183 273.010116 
L 395.666183 273.043258 
L 394.666183 273.094495 
L 393.666183 273.162894 
L 392.666183 273.229109 
L 391.666183 273.306026 
L 390.34593 273.333342 
" clip-path="url(#pa5d9230d2b)" style="fill: none; stroke: #2ca02c; stroke-opacity: 0.5; stroke-width: 0.2; stroke-linecap: square"/>
   </g>
   <g id="line2d_37">
    <path d="M 446.666183 284.304868 
L 445.666183 284.273432 
L 444.666183 284.236491 
L 443.666183 284.138745 
L 442.666183 284.106223 
L 441.666183 284.032599 
L 440.666183 283.994033 
L 439.666183 283.95862 
L 438.666183 283.90098 
L 437.666183 283.830594 
L 436.666183 283.778629 
L 435.666183 283.71954 
L 434.666183 283.631219 
L 433.666183 283.585074 
L 432.666183 283.542664 
L 431.666183 283.512171 
L 430.666183 283.486126 
L 429.666183 283.464926 
L 428.666183 283.410625 
L 427.666183 283.382687 
L 426.666183 283.352963 
L 425.666183 283.327568 
L 424.666183 283.316368 
L 423.666183 283.306244 
L 422.666183 283.306448 
L 421.666183 283.315958 
L 420.666183 283.327612 
L 419.666183 283.358641 
L 418.666183 283.369809 
L 417.666183 283.399927 
L 416.666183 283.459703 
L 415.666183 283.496895 
L 414.666183 283.535991 
L 413.666183 283.578431 
L 412.666183 283.611196 
L 411.666183 283.678622 
L 410.666183 283.717748 
L 409.666183 283.760423 
L 408.666183 283.831003 
L 407.666183 283.867394 
L 406.666183 283.925797 
L 405.666183 284.03675 
L 404.666183 284.107408 
L 403.666183 284.220348 
L 402.666183 284.266121 
L 401.666183 284.327404 
L 400.666183 284.375904 
L 399.666183 284.456726 
L 398.666183 284.575245 
L 397.666183 284.645456 
L 396.666183 284.728718 
L 395.666183 284.76186 
L 394.666183 284.813097 
L 393.666183 284.881496 
L 392.666183 284.947711 
L 391.666183 285.024628 
L 390.34593 285.051944 
" clip-path="url(#pa5d9230d2b)" style="fill: none; stroke: #2ca02c; stroke-opacity: 0.5; stroke-width: 0.2; stroke-linecap: square"/>
   </g>
   <g id="line2d_38">
    <path d="M 446.666183 264.779931 
L 445.666183 264.748495 
L 444.666183 264.711555 
L 443.666183 264.613808 
L 442.666183 264.581287 
L 441.666183 264.507662 
L 440.666183 264.469096 
L 439.666183 264.433683 
L 438.666183 264.376043 
L 437.666183 264.305657 
L 436.666183 264.253693 
L 435.666183 264.194603 
L 434.666183 264.106282 
L 433.666183 264.060138 
L 432.666183 264.017727 
L 431.666183 263.987234 
L 430.666183 263.961189 
L 429.666183 263.939989 
L 428.666183 263.885688 
L 427.666183 263.85775 
L 426.666183 263.828026 
L 425.666183 263.802632 
L 424.666183 263.791431 
L 423.666183 263.781307 
L 422.666183 263.781512 
L 421.666183 263.791022 
L 420.666183 263.802675 
L 419.666183 263.833704 
L 418.666183 263.844872 
L 417.666183 263.87499 
L 416.666183 263.934767 
L 415.666183 263.971958 
L 414.666183 264.011054 
L 413.666183 264.053494 
L 412.666183 264.086259 
L 411.666183 264.153686 
L 410.666183 264.192811 
L 409.666183 264.235486 
L 408.666183 264.306067 
L 407.666183 264.342457 
L 406.666183 264.400861 
L 405.666183 264.511813 
L 404.666183 264.582472 
L 403.666183 264.695411 
L 402.666183 264.741184 
L 401.666183 264.802468 
L 400.666183 264.850967 
L 399.666183 264.93179 
L 398.666183 265.050308 
L 397.666183 265.120519 
L 396.666183 265.203782 
L 395.666183 265.236923 
L 394.666183 265.288161 
L 393.666183 265.356559 
L 392.666183 265.422774 
L 391.666183 265.499691 
L 390.34593 265.527007 
" clip-path="url(#pa5d9230d2b)" style="fill: none; stroke: #2ca02c; stroke-opacity: 0.5; stroke-width: 0.2; stroke-linecap: square"/>
   </g>
   <g id="line2d_39">
    <path d="M 446.666183 299.490284 
L 445.666183 299.458848 
L 444.666183 299.421908 
L 443.666183 299.324161 
L 442.666183 299.29164 
L 441.666183 299.218015 
L 440.666183 299.179449 
L 439.666183 299.144036 
L 438.666183 299.086396 
L 437.666183 299.01601 
L 436.666183 298.964046 
L 435.666183 298.904956 
L 434.666183 298.816635 
L 433.666183 298.770491 
L 432.666183 298.72808 
L 431.666183 298.697587 
L 430.666183 298.671542 
L 429.666183 298.650342 
L 428.666183 298.596041 
L 427.666183 298.568103 
L 426.666183 298.538379 
L 425.666183 298.512985 
L 424.666183 298.501784 
L 423.666183 298.49166 
L 422.666183 298.491865 
L 421.666183 298.501374 
L 420.666183 298.513028 
L 419.666183 298.544057 
L 418.666183 298.555225 
L 417.666183 298.585343 
L 416.666183 298.64512 
L 415.666183 298.682311 
L 414.666183 298.721407 
L 413.666183 298.763847 
L 412.666183 298.796612 
L 411.666183 298.864039 
L 410.666183 298.903164 
L 409.666183 298.945839 
L 408.666183 299.01642 
L 407.666183 299.05281 
L 406.666183 299.111214 
L 405.666183 299.222166 
L 404.666183 299.292825 
L 403.666183 299.405764 
L 402.666183 299.451537 
L 401.666183 299.51282 
L 400.666183 299.56132 
L 399.666183 299.642143 
L 398.666183 299.760661 
L 397.666183 299.830872 
L 396.666183 299.914135 
L 395.666183 299.947276 
L 394.666183 299.998514 
L 393.666183 300.066912 
L 392.666183 300.133127 
L 391.666183 300.210044 
L 390.34593 300.23736 
" clip-path="url(#pa5d9230d2b)" style="fill: none; stroke: #2ca02c; stroke-opacity: 0.5; stroke-width: 0.2; stroke-linecap: square"/>
   </g>
   <g id="line2d_40">
    <path d="M 446.666183 112.405191 
L 445.666183 112.373755 
L 444.666183 112.336814 
L 443.666183 112.239068 
L 442.666183 112.206546 
L 441.666183 112.132922 
L 440.666183 112.094356 
L 439.666183 112.058943 
L 438.666183 112.001303 
L 437.666183 111.930917 
L 436.666183 111.878953 
L 435.666183 111.819863 
L 434.666183 111.731542 
L 433.666183 111.685398 
L 432.666183 111.642987 
L 431.666183 111.612494 
L 430.666183 111.586449 
L 429.666183 111.565249 
L 428.666183 111.510948 
L 427.666183 111.48301 
L 426.666183 111.453286 
L 425.666183 111.427891 
L 424.666183 111.416691 
L 423.666183 111.406567 
L 422.666183 111.406771 
L 421.666183 111.416281 
L 420.666183 111.427935 
L 419.666183 111.458964 
L 418.666183 111.470132 
L 417.666183 111.50025 
L 416.666183 111.560027 
L 415.666183 111.597218 
L 414.666183 111.636314 
L 413.666183 111.678754 
L 412.666183 111.711519 
L 411.666183 111.778945 
L 410.666183 111.818071 
L 409.666183 111.860746 
L 408.666183 111.931326 
L 407.666183 111.967717 
L 406.666183 112.02612 
L 405.666183 112.137073 
L 404.666183 112.207731 
L 403.666183 112.320671 
L 402.666183 112.366444 
L 401.666183 112.427727 
L 400.666183 112.476227 
L 399.666183 112.557049 
L 398.666183 112.675568 
L 397.666183 112.745779 
L 396.666183 112.829041 
L 395.666183 112.862183 
L 394.666183 112.91342 
L 393.666183 112.981819 
L 392.666183 113.048034 
L 391.666183 113.124951 
L 390.34593 113.152267 
" clip-path="url(#pa5d9230d2b)" style="fill: none; stroke: #2ca02c; stroke-opacity: 0.5; stroke-width: 0.2; stroke-linecap: square"/>
   </g>
   <g id="patch_3">
    <path d="M 72.103551 22.318125 
L 72.103551 318.021875 
M 194.769098 22.318125 
L 194.769098 318.021875 
" clip-path="url(#pa5d9230d2b)" style="fill: none; stroke: #ffffff; stroke-width: 3; stroke-linejoin: miter"/>
    <path d="M 72.103551 22.318125 
L 72.103551 318.021875 
M 194.769098 22.318125 
L 194.769098 318.021875 
" clip-path="url(#pa5d9230d2b)" style="fill: none; stroke: #1f77b4; stroke-linejoin: miter"/>
   </g>
   <g id="FillBetweenPolyCollection_1">
    <path d="M 194.769098 22.318125 
L 72.103551 22.318125 
L 72.103551 318.021875 
L 194.769098 318.021875 
L 194.769098 318.021875 
L 194.769098 22.318125 
z
" clip-path="url(#pa5d9230d2b)" style="fill: #1f77b4; fill-opacity: 0.5"/>
   </g>
   <g id="patch_4">
    <path d="M 262.150039 22.318125 
L 262.150039 318.021875 
M 384.815586 22.318125 
L 384.815586 318.021875 
" clip-path="url(#pa5d9230d2b)" style="fill: none; stroke: #ffffff; stroke-width: 3; stroke-linejoin: miter"/>
    <path d="M 262.150039 22.318125 
L 262.150039 318.021875 
M 384.815586 22.318125 
L 384.815586 318.021875 
" clip-path="url(#pa5d9230d2b)" style="fill: none; stroke: #ff7f0e; stroke-linejoin: miter"/>
   </g>
   <g id="FillBetweenPolyCollection_2">
    <path d="M 384.815586 22.318125 
L 262.150039 22.318125 
L 262.150039 318.021875 
L 384.815586 318.021875 
L 384.815586 318.021875 
L 384.815586 22.318125 
z
" clip-path="url(#pa5d9230d2b)" style="fill: #ff7f0e; fill-opacity: 0.5"/>
   </g>
   <g id="patch_5">
    <path d="M 452.196527 22.318125 
L 452.196527 318.021875 
M 574.862074 22.318125 
L 574.862074 318.021875 
" clip-path="url(#pa5d9230d2b)" style="fill: none; stroke: #ffffff; stroke-width: 3; stroke-linejoin: miter"/>
    <path d="M 452.196527 22.318125 
L 452.196527 318.021875 
M 574.862074 22.318125 
L 574.862074 318.021875 
" clip-path="url(#pa5d9230d2b)" style="fill: none; stroke: #2ca02c; stroke-linejoin: miter"/>
   </g>
   <g id="FillBetweenPolyCollection_3">
    <path d="M 574.862074 22.318125 
L 452.196527 22.318125 
L 452.196527 318.021875 
L 574.862074 318.021875 
L 574.862074 318.021875 
L 574.862074 22.318125 
z
" clip-path="url(#pa5d9230d2b)" style="fill: #2ca02c; fill-opacity: 0.5"/>
   </g>
   <g id="matplotlib.axis_1">
    <g id="xtick_1">
     <g id="line2d_41"/>
     <g id="text_1">
      <!-- deme1 -->
      <g transform="translate(116.057418 329.120312) scale(0.1 -0.1)">
       <defs>
        <path id="DejaVuSans-64" d="M 2906 2969 
L 2906 4863 
L 3481 4863 
L 3481 0 
L 2906 0 
L 2906 525 
Q 2725 213 2448 61 
Q 2172 -91 1784 -91 
Q 1150 -91 751 415 
Q 353 922 353 1747 
Q 353 2572 751 3078 
Q 1150 3584 1784 3584 
Q 2172 3584 2448 3432 
Q 2725 3281 2906 2969 
z
M 947 1747 
Q 947 1113 1208 752 
Q 1469 391 1925 391 
Q 2381 391 2643 752 
Q 2906 1113 2906 1747 
Q 2906 2381 2643 2742 
Q 2381 3103 1925 3103 
Q 1469 3103 1208 2742 
Q 947 2381 947 1747 
z
" transform="scale(0.015625)"/>
        <path id="DejaVuSans-65" d="M 3597 1894 
L 3597 1613 
L 953 1613 
Q 991 1019 1311 708 
Q 1631 397 2203 397 
Q 2534 397 2845 478 
Q 3156 559 3463 722 
L 3463 178 
Q 3153 47 2828 -22 
Q 2503 -91 2169 -91 
Q 1331 -91 842 396 
Q 353 884 353 1716 
Q 353 2575 817 3079 
Q 1281 3584 2069 3584 
Q 2775 3584 3186 3129 
Q 3597 2675 3597 1894 
z
M 3022 2063 
Q 3016 2534 2758 2815 
Q 2500 3097 2075 3097 
Q 1594 3097 1305 2825 
Q 1016 2553 972 2059 
L 3022 2063 
z
" transform="scale(0.015625)"/>
        <path id="DejaVuSans-6d" d="M 3328 2828 
Q 3544 3216 3844 3400 
Q 4144 3584 4550 3584 
Q 5097 3584 5394 3201 
Q 5691 2819 5691 2113 
L 5691 0 
L 5113 0 
L 5113 2094 
Q 5113 2597 4934 2840 
Q 4756 3084 4391 3084 
Q 3944 3084 3684 2787 
Q 3425 2491 3425 1978 
L 3425 0 
L 2847 0 
L 2847 2094 
Q 2847 2600 2669 2842 
Q 2491 3084 2119 3084 
Q 1678 3084 1418 2786 
Q 1159 2488 1159 1978 
L 1159 0 
L 581 0 
L 581 3500 
L 1159 3500 
L 1159 2956 
Q 1356 3278 1631 3431 
Q 1906 3584 2284 3584 
Q 2666 3584 2933 3390 
Q 3200 3197 3328 2828 
z
" transform="scale(0.015625)"/>
        <path id="DejaVuSans-31" d="M 794 531 
L 1825 531 
L 1825 4091 
L 703 3866 
L 703 4441 
L 1819 4666 
L 2450 4666 
L 2450 531 
L 3481 531 
L 3481 0 
L 794 0 
L 794 531 
z
" transform="scale(0.015625)"/>
       </defs>
       <use xlink:href="#DejaVuSans-64"/>
       <use xlink:href="#DejaVuSans-65" transform="translate(63.476562 0)"/>
       <use xlink:href="#DejaVuSans-6d" transform="translate(125 0)"/>
       <use xlink:href="#DejaVuSans-65" transform="translate(222.412109 0)"/>
       <use xlink:href="#DejaVuSans-31" transform="translate(283.935547 0)"/>
      </g>
     </g>
    </g>
    <g id="xtick_2">
     <g id="line2d_42"/>
     <g id="text_2">
      <!-- deme2 -->
      <g transform="translate(306.103906 329.120312) scale(0.1 -0.1)">
       <defs>
        <path id="DejaVuSans-32" d="M 1228 531 
L 3431 531 
L 3431 0 
L 469 0 
L 469 531 
Q 828 903 1448 1529 
Q 2069 2156 2228 2338 
Q 2531 2678 2651 2914 
Q 2772 3150 2772 3378 
Q 2772 3750 2511 3984 
Q 2250 4219 1831 4219 
Q 1534 4219 1204 4116 
Q 875 4013 500 3803 
L 500 4441 
Q 881 4594 1212 4672 
Q 1544 4750 1819 4750 
Q 2544 4750 2975 4387 
Q 3406 4025 3406 3419 
Q 3406 3131 3298 2873 
Q 3191 2616 2906 2266 
Q 2828 2175 2409 1742 
Q 1991 1309 1228 531 
z
" transform="scale(0.015625)"/>
       </defs>
       <use xlink:href="#DejaVuSans-64"/>
       <use xlink:href="#DejaVuSans-65" transform="translate(63.476562 0)"/>
       <use xlink:href="#DejaVuSans-6d" transform="translate(125 0)"/>
       <use xlink:href="#DejaVuSans-65" transform="translate(222.412109 0)"/>
       <use xlink:href="#DejaVuSans-32" transform="translate(283.935547 0)"/>
      </g>
     </g>
    </g>
    <g id="xtick_3">
     <g id="line2d_43"/>
     <g id="text_3">
      <!-- deme3 -->
      <g transform="translate(496.150394 329.120312) scale(0.1 -0.1)">
       <defs>
        <path id="DejaVuSans-33" d="M 2597 2516 
Q 3050 2419 3304 2112 
Q 3559 1806 3559 1356 
Q 3559 666 3084 287 
Q 2609 -91 1734 -91 
Q 1441 -91 1130 -33 
Q 819 25 488 141 
L 488 750 
Q 750 597 1062 519 
Q 1375 441 1716 441 
Q 2309 441 2620 675 
Q 2931 909 2931 1356 
Q 2931 1769 2642 2001 
Q 2353 2234 1838 2234 
L 1294 2234 
L 1294 2753 
L 1863 2753 
Q 2328 2753 2575 2939 
Q 2822 3125 2822 3475 
Q 2822 3834 2567 4026 
Q 2313 4219 1838 4219 
Q 1578 4219 1281 4162 
Q 984 4106 628 3988 
L 628 4550 
Q 988 4650 1302 4700 
Q 1616 4750 1894 4750 
Q 2613 4750 3031 4423 
Q 3450 4097 3450 3541 
Q 3450 3153 3228 2886 
Q 3006 2619 2597 2516 
z
" transform="scale(0.015625)"/>
       </defs>
       <use xlink:href="#DejaVuSans-64"/>
       <use xlink:href="#DejaVuSans-65" transform="translate(63.476562 0)"/>
       <use xlink:href="#DejaVuSans-6d" transform="translate(125 0)"/>
       <use xlink:href="#DejaVuSans-65" transform="translate(222.412109 0)"/>
       <use xlink:href="#DejaVuSans-33" transform="translate(283.935547 0)"/>
      </g>
     </g>
    </g>
   </g>
   <g id="matplotlib.axis_2">
    <g id="ytick_1">
     <g id="line2d_44">
      <defs>
       <path id="mbe357cab14" d="M 0 0 
L -3.5 0 
" style="stroke: #000000; stroke-width: 0.8"/>
      </defs>
      <g>
       <use xlink:href="#mbe357cab14" x="46.965625" y="318.021875" style="stroke: #000000; stroke-width: 0.8"/>
      </g>
     </g>
     <g id="text_4">
      <!-- 0 -->
      <g transform="translate(33.603125 321.821094) scale(0.1 -0.1)">
       <defs>
        <path id="DejaVuSans-30" d="M 2034 4250 
Q 1547 4250 1301 3770 
Q 1056 3291 1056 2328 
Q 1056 1369 1301 889 
Q 1547 409 2034 409 
Q 2525 409 2770 889 
Q 3016 1369 3016 2328 
Q 3016 3291 2770 3770 
Q 2525 4250 2034 4250 
z
M 2034 4750 
Q 2819 4750 3233 4129 
Q 3647 3509 3647 2328 
Q 3647 1150 3233 529 
Q 2819 -91 2034 -91 
Q 1250 -91 836 529 
Q 422 1150 422 2328 
Q 422 3509 836 4129 
Q 1250 4750 2034 4750 
z
" transform="scale(0.015625)"/>
       </defs>
       <use xlink:href="#DejaVuSans-30"/>
      </g>
     </g>
    </g>
    <g id="ytick_2">
     <g id="line2d_45">
      <g>
       <use xlink:href="#mbe357cab14" x="46.965625" y="265.684928" style="stroke: #000000; stroke-width: 0.8"/>
      </g>
     </g>
     <g id="text_5">
      <!-- 20 -->
      <g transform="translate(27.240625 269.484147) scale(0.1 -0.1)">
       <use xlink:href="#DejaVuSans-32"/>
       <use xlink:href="#DejaVuSans-30" transform="translate(63.623047 0)"/>
      </g>
     </g>
    </g>
    <g id="ytick_3">
     <g id="line2d_46">
      <g>
       <use xlink:href="#mbe357cab14" x="46.965625" y="213.347981" style="stroke: #000000; stroke-width: 0.8"/>
      </g>
     </g>
     <g id="text_6">
      <!-- 40 -->
      <g transform="translate(27.240625 217.1472) scale(0.1 -0.1)">
       <defs>
        <path id="DejaVuSans-34" d="M 2419 4116 
L 825 1625 
L 2419 1625 
L 2419 4116 
z
M 2253 4666 
L 3047 4666 
L 3047 1625 
L 3713 1625 
L 3713 1100 
L 3047 1100 
L 3047 0 
L 2419 0 
L 2419 1100 
L 313 1100 
L 313 1709 
L 2253 4666 
z
" transform="scale(0.015625)"/>
       </defs>
       <use xlink:href="#DejaVuSans-34"/>
       <use xlink:href="#DejaVuSans-30" transform="translate(63.623047 0)"/>
      </g>
     </g>
    </g>
    <g id="ytick_4">
     <g id="line2d_47">
      <g>
       <use xlink:href="#mbe357cab14" x="46.965625" y="161.011034" style="stroke: #000000; stroke-width: 0.8"/>
      </g>
     </g>
     <g id="text_7">
      <!-- 60 -->
      <g transform="translate(27.240625 164.810253) scale(0.1 -0.1)">
       <defs>
        <path id="DejaVuSans-36" d="M 2113 2584 
Q 1688 2584 1439 2293 
Q 1191 2003 1191 1497 
Q 1191 994 1439 701 
Q 1688 409 2113 409 
Q 2538 409 2786 701 
Q 3034 994 3034 1497 
Q 3034 2003 2786 2293 
Q 2538 2584 2113 2584 
z
M 3366 4563 
L 3366 3988 
Q 3128 4100 2886 4159 
Q 2644 4219 2406 4219 
Q 1781 4219 1451 3797 
Q 1122 3375 1075 2522 
Q 1259 2794 1537 2939 
Q 1816 3084 2150 3084 
Q 2853 3084 3261 2657 
Q 3669 2231 3669 1497 
Q 3669 778 3244 343 
Q 2819 -91 2113 -91 
Q 1303 -91 875 529 
Q 447 1150 447 2328 
Q 447 3434 972 4092 
Q 1497 4750 2381 4750 
Q 2619 4750 2861 4703 
Q 3103 4656 3366 4563 
z
" transform="scale(0.015625)"/>
       </defs>
       <use xlink:href="#DejaVuSans-36"/>
       <use xlink:href="#DejaVuSans-30" transform="translate(63.623047 0)"/>
      </g>
     </g>
    </g>
    <g id="ytick_5">
     <g id="line2d_48">
      <g>
       <use xlink:href="#mbe357cab14" x="46.965625" y="108.674087" style="stroke: #000000; stroke-width: 0.8"/>
      </g>
     </g>
     <g id="text_8">
      <!-- 80 -->
      <g transform="translate(27.240625 112.473306) scale(0.1 -0.1)">
       <defs>
        <path id="DejaVuSans-38" d="M 2034 2216 
Q 1584 2216 1326 1975 
Q 1069 1734 1069 1313 
Q 1069 891 1326 650 
Q 1584 409 2034 409 
Q 2484 409 2743 651 
Q 3003 894 3003 1313 
Q 3003 1734 2745 1975 
Q 2488 2216 2034 2216 
z
M 1403 2484 
Q 997 2584 770 2862 
Q 544 3141 544 3541 
Q 544 4100 942 4425 
Q 1341 4750 2034 4750 
Q 2731 4750 3128 4425 
Q 3525 4100 3525 3541 
Q 3525 3141 3298 2862 
Q 3072 2584 2669 2484 
Q 3125 2378 3379 2068 
Q 3634 1759 3634 1313 
Q 3634 634 3220 271 
Q 2806 -91 2034 -91 
Q 1263 -91 848 271 
Q 434 634 434 1313 
Q 434 1759 690 2068 
Q 947 2378 1403 2484 
z
M 1172 3481 
Q 1172 3119 1398 2916 
Q 1625 2713 2034 2713 
Q 2441 2713 2670 2916 
Q 2900 3119 2900 3481 
Q 2900 3844 2670 4047 
Q 2441 4250 2034 4250 
Q 1625 4250 1398 4047 
Q 1172 3844 1172 3481 
z
" transform="scale(0.015625)"/>
       </defs>
       <use xlink:href="#DejaVuSans-38"/>
       <use xlink:href="#DejaVuSans-30" transform="translate(63.623047 0)"/>
      </g>
     </g>
    </g>
    <g id="ytick_6">
     <g id="line2d_49">
      <g>
       <use xlink:href="#mbe357cab14" x="46.965625" y="56.33714" style="stroke: #000000; stroke-width: 0.8"/>
      </g>
     </g>
     <g id="text_9">
      <!-- 100 -->
      <g transform="translate(20.878125 60.136359) scale(0.1 -0.1)">
       <use xlink:href="#DejaVuSans-31"/>
       <use xlink:href="#DejaVuSans-30" transform="translate(63.623047 0)"/>
       <use xlink:href="#DejaVuSans-30" transform="translate(127.246094 0)"/>
      </g>
     </g>
    </g>
    <g id="text_10">
     <!-- time ago (years) -->
     <g transform="translate(14.798437 211.603594) rotate(-90) scale(0.1 -0.1)">
      <defs>
       <path id="DejaVuSans-74" d="M 1172 4494 
L 1172 3500 
L 2356 3500 
L 2356 3053 
L 1172 3053 
L 1172 1153 
Q 1172 725 1289 603 
Q 1406 481 1766 481 
L 2356 481 
L 2356 0 
L 1766 0 
Q 1100 0 847 248 
Q 594 497 594 1153 
L 594 3053 
L 172 3053 
L 172 3500 
L 594 3500 
L 594 4494 
L 1172 4494 
z
" transform="scale(0.015625)"/>
       <path id="DejaVuSans-69" d="M 603 3500 
L 1178 3500 
L 1178 0 
L 603 0 
L 603 3500 
z
M 603 4863 
L 1178 4863 
L 1178 4134 
L 603 4134 
L 603 4863 
z
" transform="scale(0.015625)"/>
       <path id="DejaVuSans-20" transform="scale(0.015625)"/>
       <path id="DejaVuSans-61" d="M 2194 1759 
Q 1497 1759 1228 1600 
Q 959 1441 959 1056 
Q 959 750 1161 570 
Q 1363 391 1709 391 
Q 2188 391 2477 730 
Q 2766 1069 2766 1631 
L 2766 1759 
L 2194 1759 
z
M 3341 1997 
L 3341 0 
L 2766 0 
L 2766 531 
Q 2569 213 2275 61 
Q 1981 -91 1556 -91 
Q 1019 -91 701 211 
Q 384 513 384 1019 
Q 384 1609 779 1909 
Q 1175 2209 1959 2209 
L 2766 2209 
L 2766 2266 
Q 2766 2663 2505 2880 
Q 2244 3097 1772 3097 
Q 1472 3097 1187 3025 
Q 903 2953 641 2809 
L 641 3341 
Q 956 3463 1253 3523 
Q 1550 3584 1831 3584 
Q 2591 3584 2966 3190 
Q 3341 2797 3341 1997 
z
" transform="scale(0.015625)"/>
       <path id="DejaVuSans-67" d="M 2906 1791 
Q 2906 2416 2648 2759 
Q 2391 3103 1925 3103 
Q 1463 3103 1205 2759 
Q 947 2416 947 1791 
Q 947 1169 1205 825 
Q 1463 481 1925 481 
Q 2391 481 2648 825 
Q 2906 1169 2906 1791 
z
M 3481 434 
Q 3481 -459 3084 -895 
Q 2688 -1331 1869 -1331 
Q 1566 -1331 1297 -1286 
Q 1028 -1241 775 -1147 
L 775 -588 
Q 1028 -725 1275 -790 
Q 1522 -856 1778 -856 
Q 2344 -856 2625 -561 
Q 2906 -266 2906 331 
L 2906 616 
Q 2728 306 2450 153 
Q 2172 0 1784 0 
Q 1141 0 747 490 
Q 353 981 353 1791 
Q 353 2603 747 3093 
Q 1141 3584 1784 3584 
Q 2172 3584 2450 3431 
Q 2728 3278 2906 2969 
L 2906 3500 
L 3481 3500 
L 3481 434 
z
" transform="scale(0.015625)"/>
       <path id="DejaVuSans-6f" d="M 1959 3097 
Q 1497 3097 1228 2736 
Q 959 2375 959 1747 
Q 959 1119 1226 758 
Q 1494 397 1959 397 
Q 2419 397 2687 759 
Q 2956 1122 2956 1747 
Q 2956 2369 2687 2733 
Q 2419 3097 1959 3097 
z
M 1959 3584 
Q 2709 3584 3137 3096 
Q 3566 2609 3566 1747 
Q 3566 888 3137 398 
Q 2709 -91 1959 -91 
Q 1206 -91 779 398 
Q 353 888 353 1747 
Q 353 2609 779 3096 
Q 1206 3584 1959 3584 
z
" transform="scale(0.015625)"/>
       <path id="DejaVuSans-28" d="M 1984 4856 
Q 1566 4138 1362 3434 
Q 1159 2731 1159 2009 
Q 1159 1288 1364 580 
Q 1569 -128 1984 -844 
L 1484 -844 
Q 1016 -109 783 600 
Q 550 1309 550 2009 
Q 550 2706 781 3412 
Q 1013 4119 1484 4856 
L 1984 4856 
z
" transform="scale(0.015625)"/>
       <path id="DejaVuSans-79" d="M 2059 -325 
Q 1816 -950 1584 -1140 
Q 1353 -1331 966 -1331 
L 506 -1331 
L 506 -850 
L 844 -850 
Q 1081 -850 1212 -737 
Q 1344 -625 1503 -206 
L 1606 56 
L 191 3500 
L 800 3500 
L 1894 763 
L 2988 3500 
L 3597 3500 
L 2059 -325 
z
" transform="scale(0.015625)"/>
       <path id="DejaVuSans-72" d="M 2631 2963 
Q 2534 3019 2420 3045 
Q 2306 3072 2169 3072 
Q 1681 3072 1420 2755 
Q 1159 2438 1159 1844 
L 1159 0 
L 581 0 
L 581 3500 
L 1159 3500 
L 1159 2956 
Q 1341 3275 1631 3429 
Q 1922 3584 2338 3584 
Q 2397 3584 2469 3576 
Q 2541 3569 2628 3553 
L 2631 2963 
z
" transform="scale(0.015625)"/>
       <path id="DejaVuSans-73" d="M 2834 3397 
L 2834 2853 
Q 2591 2978 2328 3040 
Q 2066 3103 1784 3103 
Q 1356 3103 1142 2972 
Q 928 2841 928 2578 
Q 928 2378 1081 2264 
Q 1234 2150 1697 2047 
L 1894 2003 
Q 2506 1872 2764 1633 
Q 3022 1394 3022 966 
Q 3022 478 2636 193 
Q 2250 -91 1575 -91 
Q 1294 -91 989 -36 
Q 684 19 347 128 
L 347 722 
Q 666 556 975 473 
Q 1284 391 1588 391 
Q 1994 391 2212 530 
Q 2431 669 2431 922 
Q 2431 1156 2273 1281 
Q 2116 1406 1581 1522 
L 1381 1569 
Q 847 1681 609 1914 
Q 372 2147 372 2553 
Q 372 3047 722 3315 
Q 1072 3584 1716 3584 
Q 2034 3584 2315 3537 
Q 2597 3491 2834 3397 
z
" transform="scale(0.015625)"/>
       <path id="DejaVuSans-29" d="M 513 4856 
L 1013 4856 
Q 1481 4119 1714 3412 
Q 1947 2706 1947 2009 
Q 1947 1309 1714 600 
Q 1481 -109 1013 -844 
L 513 -844 
Q 928 -128 1133 580 
Q 1338 1288 1338 2009 
Q 1338 2731 1133 3434 
Q 928 4138 513 4856 
z
" transform="scale(0.015625)"/>
      </defs>
      <use xlink:href="#DejaVuSans-74"/>
      <use xlink:href="#DejaVuSans-69" transform="translate(39.208984 0)"/>
      <use xlink:href="#DejaVuSans-6d" transform="translate(66.992188 0)"/>
      <use xlink:href="#DejaVuSans-65" transform="translate(164.404297 0)"/>
      <use xlink:href="#DejaVuSans-20" transform="translate(225.927734 0)"/>
      <use xlink:href="#DejaVuSans-61" transform="translate(257.714844 0)"/>
      <use xlink:href="#DejaVuSans-67" transform="translate(318.994141 0)"/>
      <use xlink:href="#DejaVuSans-6f" transform="translate(382.470703 0)"/>
      <use xlink:href="#DejaVuSans-20" transform="translate(443.652344 0)"/>
      <use xlink:href="#DejaVuSans-28" transform="translate(475.439453 0)"/>
      <use xlink:href="#DejaVuSans-79" transform="translate(514.453125 0)"/>
      <use xlink:href="#DejaVuSans-65" transform="translate(573.632812 0)"/>
      <use xlink:href="#DejaVuSans-61" transform="translate(635.15625 0)"/>
      <use xlink:href="#DejaVuSans-72" transform="translate(696.435547 0)"/>
      <use xlink:href="#DejaVuSans-73" transform="translate(737.548828 0)"/>
      <use xlink:href="#DejaVuSans-29" transform="translate(789.648438 0)"/>
     </g>
    </g>
   </g>
   <g id="line2d_50">
    <path d="M 257.619695 46.324914 
L 255.619695 45.324914 
L 255.619695 47.324914 
z
" clip-path="url(#pa5d9230d2b)" style="fill: #1f77b4; fill-opacity: 0.5; stroke: #1f77b4; stroke-opacity: 0.5; stroke-linejoin: miter"/>
   </g>
   <g id="line2d_51">
    <path d="M 257.619695 290.482831 
L 255.619695 289.482831 
L 255.619695 291.482831 
z
" clip-path="url(#pa5d9230d2b)" style="fill: #1f77b4; fill-opacity: 0.5; stroke: #1f77b4; stroke-opacity: 0.5; stroke-linejoin: miter"/>
   </g>
   <g id="line2d_52">
    <path d="M 257.619695 114.295476 
L 255.619695 113.295476 
L 255.619695 115.295476 
z
" clip-path="url(#pa5d9230d2b)" style="fill: #1f77b4; fill-opacity: 0.5; stroke: #1f77b4; stroke-opacity: 0.5; stroke-linejoin: miter"/>
   </g>
   <g id="line2d_53">
    <path d="M 257.619695 92.30456 
L 255.619695 91.30456 
L 255.619695 93.30456 
z
" clip-path="url(#pa5d9230d2b)" style="fill: #1f77b4; fill-opacity: 0.5; stroke: #1f77b4; stroke-opacity: 0.5; stroke-linejoin: miter"/>
   </g>
   <g id="line2d_54">
    <path d="M 257.619695 78.208962 
L 255.619695 77.208962 
L 255.619695 79.208962 
z
" clip-path="url(#pa5d9230d2b)" style="fill: #1f77b4; fill-opacity: 0.5; stroke: #1f77b4; stroke-opacity: 0.5; stroke-linejoin: miter"/>
   </g>
   <g id="line2d_55">
    <path d="M 257.619695 92.826152 
L 255.619695 91.826152 
L 255.619695 93.826152 
z
" clip-path="url(#pa5d9230d2b)" style="fill: #1f77b4; fill-opacity: 0.5; stroke: #1f77b4; stroke-opacity: 0.5; stroke-linejoin: miter"/>
   </g>
   <g id="line2d_56">
    <path d="M 257.619695 256.10041 
L 255.619695 255.10041 
L 255.619695 257.10041 
z
" clip-path="url(#pa5d9230d2b)" style="fill: #1f77b4; fill-opacity: 0.5; stroke: #1f77b4; stroke-opacity: 0.5; stroke-linejoin: miter"/>
   </g>
   <g id="line2d_57">
    <path d="M 257.619695 176.729784 
L 255.619695 175.729784 
L 255.619695 177.729784 
z
" clip-path="url(#pa5d9230d2b)" style="fill: #1f77b4; fill-opacity: 0.5; stroke: #1f77b4; stroke-opacity: 0.5; stroke-linejoin: miter"/>
   </g>
   <g id="line2d_58">
    <path d="M 257.619695 316.510219 
L 255.619695 315.510219 
L 255.619695 317.510219 
z
" clip-path="url(#pa5d9230d2b)" style="fill: #1f77b4; fill-opacity: 0.5; stroke: #1f77b4; stroke-opacity: 0.5; stroke-linejoin: miter"/>
   </g>
   <g id="line2d_59">
    <path d="M 257.619695 297.467432 
L 255.619695 296.467432 
L 255.619695 298.467432 
z
" clip-path="url(#pa5d9230d2b)" style="fill: #1f77b4; fill-opacity: 0.5; stroke: #1f77b4; stroke-opacity: 0.5; stroke-linejoin: miter"/>
   </g>
   <g id="line2d_60">
    <path d="M 199.299442 132.105526 
L 201.299442 133.105526 
L 201.299442 131.105526 
z
" clip-path="url(#pa5d9230d2b)" style="fill: #ff7f0e; fill-opacity: 0.5; stroke: #ff7f0e; stroke-opacity: 0.5; stroke-linejoin: miter"/>
   </g>
   <g id="line2d_61">
    <path d="M 199.299442 119.671235 
L 201.299442 120.671235 
L 201.299442 118.671235 
z
" clip-path="url(#pa5d9230d2b)" style="fill: #ff7f0e; fill-opacity: 0.5; stroke: #ff7f0e; stroke-opacity: 0.5; stroke-linejoin: miter"/>
   </g>
   <g id="line2d_62">
    <path d="M 199.299442 123.97494 
L 201.299442 124.97494 
L 201.299442 122.97494 
z
" clip-path="url(#pa5d9230d2b)" style="fill: #ff7f0e; fill-opacity: 0.5; stroke: #ff7f0e; stroke-opacity: 0.5; stroke-linejoin: miter"/>
   </g>
   <g id="line2d_63">
    <path d="M 199.299442 198.201484 
L 201.299442 199.201484 
L 201.299442 197.201484 
z
" clip-path="url(#pa5d9230d2b)" style="fill: #ff7f0e; fill-opacity: 0.5; stroke: #ff7f0e; stroke-opacity: 0.5; stroke-linejoin: miter"/>
   </g>
   <g id="line2d_64">
    <path d="M 199.299442 161.529771 
L 201.299442 162.529771 
L 201.299442 160.529771 
z
" clip-path="url(#pa5d9230d2b)" style="fill: #ff7f0e; fill-opacity: 0.5; stroke: #ff7f0e; stroke-opacity: 0.5; stroke-linejoin: miter"/>
   </g>
   <g id="line2d_65">
    <path d="M 199.299442 166.255127 
L 201.299442 167.255127 
L 201.299442 165.255127 
z
" clip-path="url(#pa5d9230d2b)" style="fill: #ff7f0e; fill-opacity: 0.5; stroke: #ff7f0e; stroke-opacity: 0.5; stroke-linejoin: miter"/>
   </g>
   <g id="line2d_66">
    <path d="M 199.299442 32.890642 
L 201.299442 33.890642 
L 201.299442 31.890642 
z
" clip-path="url(#pa5d9230d2b)" style="fill: #ff7f0e; fill-opacity: 0.5; stroke: #ff7f0e; stroke-opacity: 0.5; stroke-linejoin: miter"/>
   </g>
   <g id="line2d_67">
    <path d="M 199.299442 157.64556 
L 201.299442 158.64556 
L 201.299442 156.64556 
z
" clip-path="url(#pa5d9230d2b)" style="fill: #ff7f0e; fill-opacity: 0.5; stroke: #ff7f0e; stroke-opacity: 0.5; stroke-linejoin: miter"/>
   </g>
   <g id="line2d_68">
    <path d="M 199.299442 298.029012 
L 201.299442 299.029012 
L 201.299442 297.029012 
z
" clip-path="url(#pa5d9230d2b)" style="fill: #ff7f0e; fill-opacity: 0.5; stroke: #ff7f0e; stroke-opacity: 0.5; stroke-linejoin: miter"/>
   </g>
   <g id="line2d_69">
    <path d="M 199.299442 172.873163 
L 201.299442 173.873163 
L 201.299442 171.873163 
z
" clip-path="url(#pa5d9230d2b)" style="fill: #ff7f0e; fill-opacity: 0.5; stroke: #ff7f0e; stroke-opacity: 0.5; stroke-linejoin: miter"/>
   </g>
   <g id="line2d_70">
    <path d="M 447.666183 47.512644 
L 445.666183 46.512644 
L 445.666183 48.512644 
z
" clip-path="url(#pa5d9230d2b)" style="fill: #ff7f0e; fill-opacity: 0.5; stroke: #ff7f0e; stroke-opacity: 0.5; stroke-linejoin: miter"/>
   </g>
   <g id="line2d_71">
    <path d="M 447.666183 273.254162 
L 445.666183 272.254162 
L 445.666183 274.254162 
z
" clip-path="url(#pa5d9230d2b)" style="fill: #ff7f0e; fill-opacity: 0.5; stroke: #ff7f0e; stroke-opacity: 0.5; stroke-linejoin: miter"/>
   </g>
   <g id="line2d_72">
    <path d="M 447.666183 222.393487 
L 445.666183 221.393487 
L 445.666183 223.393487 
z
" clip-path="url(#pa5d9230d2b)" style="fill: #ff7f0e; fill-opacity: 0.5; stroke: #ff7f0e; stroke-opacity: 0.5; stroke-linejoin: miter"/>
   </g>
   <g id="line2d_73">
    <path d="M 447.666183 215.554729 
L 445.666183 214.554729 
L 445.666183 216.554729 
z
" clip-path="url(#pa5d9230d2b)" style="fill: #ff7f0e; fill-opacity: 0.5; stroke: #ff7f0e; stroke-opacity: 0.5; stroke-linejoin: miter"/>
   </g>
   <g id="line2d_74">
    <path d="M 447.666183 272.104941 
L 445.666183 271.104941 
L 445.666183 273.104941 
z
" clip-path="url(#pa5d9230d2b)" style="fill: #ff7f0e; fill-opacity: 0.5; stroke: #ff7f0e; stroke-opacity: 0.5; stroke-linejoin: miter"/>
   </g>
   <g id="line2d_75">
    <path d="M 447.666183 151.49228 
L 445.666183 150.49228 
L 445.666183 152.49228 
z
" clip-path="url(#pa5d9230d2b)" style="fill: #ff7f0e; fill-opacity: 0.5; stroke: #ff7f0e; stroke-opacity: 0.5; stroke-linejoin: miter"/>
   </g>
   <g id="line2d_76">
    <path d="M 447.666183 258.060204 
L 445.666183 257.060204 
L 445.666183 259.060204 
z
" clip-path="url(#pa5d9230d2b)" style="fill: #ff7f0e; fill-opacity: 0.5; stroke: #ff7f0e; stroke-opacity: 0.5; stroke-linejoin: miter"/>
   </g>
   <g id="line2d_77">
    <path d="M 447.666183 286.143988 
L 445.666183 285.143988 
L 445.666183 287.143988 
z
" clip-path="url(#pa5d9230d2b)" style="fill: #ff7f0e; fill-opacity: 0.5; stroke: #ff7f0e; stroke-opacity: 0.5; stroke-linejoin: miter"/>
   </g>
   <g id="line2d_78">
    <path d="M 447.666183 202.207246 
L 445.666183 201.207246 
L 445.666183 203.207246 
z
" clip-path="url(#pa5d9230d2b)" style="fill: #ff7f0e; fill-opacity: 0.5; stroke: #ff7f0e; stroke-opacity: 0.5; stroke-linejoin: miter"/>
   </g>
   <g id="line2d_79">
    <path d="M 447.666183 240.511084 
L 445.666183 239.511084 
L 445.666183 241.511084 
z
" clip-path="url(#pa5d9230d2b)" style="fill: #ff7f0e; fill-opacity: 0.5; stroke: #ff7f0e; stroke-opacity: 0.5; stroke-linejoin: miter"/>
   </g>
   <g id="line2d_80">
    <path d="M 389.34593 112.940972 
L 391.34593 113.940972 
L 391.34593 111.940972 
z
" clip-path="url(#pa5d9230d2b)" style="fill: #2ca02c; fill-opacity: 0.5; stroke: #2ca02c; stroke-opacity: 0.5; stroke-linejoin: miter"/>
   </g>
   <g id="line2d_81">
    <path d="M 389.34593 221.009183 
L 391.34593 222.009183 
L 391.34593 220.009183 
z
" clip-path="url(#pa5d9230d2b)" style="fill: #2ca02c; fill-opacity: 0.5; stroke: #2ca02c; stroke-opacity: 0.5; stroke-linejoin: miter"/>
   </g>
   <g id="line2d_82">
    <path d="M 389.34593 135.95992 
L 391.34593 136.95992 
L 391.34593 134.95992 
z
" clip-path="url(#pa5d9230d2b)" style="fill: #2ca02c; fill-opacity: 0.5; stroke: #2ca02c; stroke-opacity: 0.5; stroke-linejoin: miter"/>
   </g>
   <g id="line2d_83">
    <path d="M 389.34593 157.38849 
L 391.34593 158.38849 
L 391.34593 156.38849 
z
" clip-path="url(#pa5d9230d2b)" style="fill: #2ca02c; fill-opacity: 0.5; stroke: #2ca02c; stroke-opacity: 0.5; stroke-linejoin: miter"/>
   </g>
   <g id="line2d_84">
    <path d="M 389.34593 127.117688 
L 391.34593 128.117688 
L 391.34593 126.117688 
z
" clip-path="url(#pa5d9230d2b)" style="fill: #2ca02c; fill-opacity: 0.5; stroke: #2ca02c; stroke-opacity: 0.5; stroke-linejoin: miter"/>
   </g>
   <g id="line2d_85">
    <path d="M 389.34593 272.586266 
L 391.34593 273.586266 
L 391.34593 271.586266 
z
" clip-path="url(#pa5d9230d2b)" style="fill: #2ca02c; fill-opacity: 0.5; stroke: #2ca02c; stroke-opacity: 0.5; stroke-linejoin: miter"/>
   </g>
   <g id="line2d_86">
    <path d="M 389.34593 284.304868 
L 391.34593 285.304868 
L 391.34593 283.304868 
z
" clip-path="url(#pa5d9230d2b)" style="fill: #2ca02c; fill-opacity: 0.5; stroke: #2ca02c; stroke-opacity: 0.5; stroke-linejoin: miter"/>
   </g>
   <g id="line2d_87">
    <path d="M 389.34593 264.779931 
L 391.34593 265.779931 
L 391.34593 263.779931 
z
" clip-path="url(#pa5d9230d2b)" style="fill: #2ca02c; fill-opacity: 0.5; stroke: #2ca02c; stroke-opacity: 0.5; stroke-linejoin: miter"/>
   </g>
   <g id="line2d_88">
    <path d="M 389.34593 299.490284 
L 391.34593 300.490284 
L 391.34593 298.490284 
z
" clip-path="url(#pa5d9230d2b)" style="fill: #2ca02c; fill-opacity: 0.5; stroke: #2ca02c; stroke-opacity: 0.5; stroke-linejoin: miter"/>
   </g>
   <g id="line2d_89">
    <path d="M 389.34593 112.405191 
L 391.34593 113.405191 
L 391.34593 111.405191 
z
" clip-path="url(#pa5d9230d2b)" style="fill: #2ca02c; fill-opacity: 0.5; stroke: #2ca02c; stroke-opacity: 0.5; stroke-linejoin: miter"/>
   </g>
   <g id="patch_6">
    <path d="M 46.965625 318.021875 
L 46.965625 22.318125 
" style="fill: none; stroke: #000000; stroke-width: 0.8; stroke-linejoin: miter; stroke-linecap: square"/>
   </g>
   <g id="text_11">
    <!-- stepping_stone_model.yaml -->
    <g transform="translate(239.443437 16.318125) scale(0.12 -0.12)">
     <defs>
      <path id="DejaVuSans-70" d="M 1159 525 
L 1159 -1331 
L 581 -1331 
L 581 3500 
L 1159 3500 
L 1159 2969 
Q 1341 3281 1617 3432 
Q 1894 3584 2278 3584 
Q 2916 3584 3314 3078 
Q 3713 2572 3713 1747 
Q 3713 922 3314 415 
Q 2916 -91 2278 -91 
Q 1894 -91 1617 61 
Q 1341 213 1159 525 
z
M 3116 1747 
Q 3116 2381 2855 2742 
Q 2594 3103 2138 3103 
Q 1681 3103 1420 2742 
Q 1159 2381 1159 1747 
Q 1159 1113 1420 752 
Q 1681 391 2138 391 
Q 2594 391 2855 752 
Q 3116 1113 3116 1747 
z
" transform="scale(0.015625)"/>
      <path id="DejaVuSans-6e" d="M 3513 2113 
L 3513 0 
L 2938 0 
L 2938 2094 
Q 2938 2591 2744 2837 
Q 2550 3084 2163 3084 
Q 1697 3084 1428 2787 
Q 1159 2491 1159 1978 
L 1159 0 
L 581 0 
L 581 3500 
L 1159 3500 
L 1159 2956 
Q 1366 3272 1645 3428 
Q 1925 3584 2291 3584 
Q 2894 3584 3203 3211 
Q 3513 2838 3513 2113 
z
" transform="scale(0.015625)"/>
      <path id="DejaVuSans-5f" d="M 3263 -1063 
L 3263 -1509 
L -63 -1509 
L -63 -1063 
L 3263 -1063 
z
" transform="scale(0.015625)"/>
      <path id="DejaVuSans-6c" d="M 603 4863 
L 1178 4863 
L 1178 0 
L 603 0 
L 603 4863 
z
" transform="scale(0.015625)"/>
      <path id="DejaVuSans-2e" d="M 684 794 
L 1344 794 
L 1344 0 
L 684 0 
L 684 794 
z
" transform="scale(0.015625)"/>
     </defs>
     <use xlink:href="#DejaVuSans-73"/>
     <use xlink:href="#DejaVuSans-74" transform="translate(52.099609 0)"/>
     <use xlink:href="#DejaVuSans-65" transform="translate(91.308594 0)"/>
     <use xlink:href="#DejaVuSans-70" transform="translate(152.832031 0)"/>
     <use xlink:href="#DejaVuSans-70" transform="translate(216.308594 0)"/>
     <use xlink:href="#DejaVuSans-69" transform="translate(279.785156 0)"/>
     <use xlink:href="#DejaVuSans-6e" transform="translate(307.568359 0)"/>
     <use xlink:href="#DejaVuSans-67" transform="translate(370.947266 0)"/>
     <use xlink:href="#DejaVuSans-5f" transform="translate(434.423828 0)"/>
     <use xlink:href="#DejaVuSans-73" transform="translate(484.423828 0)"/>
     <use xlink:href="#DejaVuSans-74" transform="translate(536.523438 0)"/>
     <use xlink:href="#DejaVuSans-6f" transform="translate(575.732422 0)"/>
     <use xlink:href="#DejaVuSans-6e" transform="translate(636.914062 0)"/>
     <use xlink:href="#DejaVuSans-65" transform="translate(700.292969 0)"/>
     <use xlink:href="#DejaVuSans-5f" transform="translate(761.816406 0)"/>
     <use xlink:href="#DejaVuSans-6d" transform="translate(811.816406 0)"/>
     <use xlink:href="#DejaVuSans-6f" transform="translate(909.228516 0)"/>
     <use xlink:href="#DejaVuSans-64" transform="translate(970.410156 0)"/>
     <use xlink:href="#DejaVuSans-65" transform="translate(1033.886719 0)"/>
     <use xlink:href="#DejaVuSans-6c" transform="translate(1095.410156 0)"/>
     <use xlink:href="#DejaVuSans-2e" transform="translate(1123.193359 0)"/>
     <use xlink:href="#DejaVuSans-79" transform="translate(1154.980469 0)"/>
     <use xlink:href="#DejaVuSans-61" transform="translate(1214.160156 0)"/>
     <use xlink:href="#DejaVuSans-6d" transform="translate(1275.439453 0)"/>
     <use xlink:href="#DejaVuSans-6c" transform="translate(1372.851562 0)"/>
    </g>
   </g>
  </g>
 </g>
 <defs>
  <clipPath id="pa5d9230d2b">
   <rect x="46.965625" y="22.318125" width="553.034375" height="295.70375"/>
  </clipPath>
 </defs>
</svg>