<?xml version="1.0" encoding="utf-8" standalone="no"?>
<!DOCTYPE svg PUBLIC "-//W3C//DTD SVG 1.1//EN"
  "http://www.w3.org/Graphics/SVG/1.1/DTD/svg11.dtd">
<svg xmlns:xlink="http://www.w3.org/1999/xlink" width="607.2pt" height="338.4pt" viewBox="0 0 607.2 338.4" xmlns="http://www.w3.org/2000/svg" version="1.1">
 <metadata>
  <rdf:RDF xmlns:dc="http://purl.org/dc/elements/1.1/" xmlns:cc="http://creativecommons.org/ns#" xmlns:rdf="http://www.w3.org/1999/02/22-rdf-syntax-ns#">
   <cc:Work>
    <dc:type rdf:resource="http://purl.org/dc/dcmitype/StillImage"/>
    <dc:date>2025-11-17T08:10:53.600383</dc:date>
    <dc:format>image/svg+xml</dc:format>
    <dc:creator>
     <cc:Agent>
      <dc:title>Matplotlib v3.10.7, https://matplotlib.org/</dc:title>
     </cc:Agent>
    </dc:creator>
   </cc:Work>
  </rdf:RDF>
 </metadata>
 <defs>
  <style type="text/css">*{stroke-linejoin: round; stroke-linecap: butt}</style>
 </defs>
 <g id="figure_1">
  <g id="patch_1">
   <path d="M 0 338.4 
L 607.2 338.4 
L 607.2 0 
L 0 0 
z
" style="fill: #ffffff"/>
  </g>
  <g id="axes_1">
   <g id="patch_2">
    <path d="M 46.965625 318.021875 
L 600 318.021875 
L 600 22.318125 
L 46.965625 22.318125 
z
" style="fill: #ffffff"/>
   </g>
   <g id="line2d_1">
    <path d="M 200.299442 44.364635 
L 201.299442 44.396072 
L 202.299442 44.433012 
L 203.299442 44.530759 
L 204.299442 44.56328 
L 205.299442 44.636905 
L 206.299442 44.675471 
L 207.299442 44.710884 
L 208.299442 44.768524 
L 209.299442 44.83891 
L 210.299442 44.890874 
L 211.299442 44.949964 
L 212.299442 45.038285 
L 213.299442 45.084429 
L 214.299442 45.12684 
L 215.299442 45.157333 
L 216.299442 45.183378 
L 217.299442 45.204578 
L 218.299442 45.258879 
L 219.299442 45.286816 
L 220.299442 45.31654 
L 221.299442 45.341935 
L 222.299442 45.353136 
L 223.299442 45.36326 
L 224.299442 45.363055 
L 225.299442 45.353545 
L 226.299442 45.341892 
L 227.299442 45.310862 
L 228.299442 45.299695 
L 229.299442 45.269577 
L 230.299442 45.2098 
L 231.299442 45.172609 
L 232.299442 45.133512 
L 233.299442 45.091073 
L 234.299442 45.058308 
L 235.299442 44.990881 
L 236.299442 44.951755 
L 237.299442 44.909081 
L 238.299442 44.8385 
L 239.299442 44.802109 
L 240.299442 44.743706 
L 241.299442 44.632754 
L 242.299442 44.562095 
L 243.299442 44.449155 
L 244.299442 44.403383 
L 245.299442 44.342099 
L 246.299442 44.2936 
L 247.299442 44.212777 
L 248.299442 44.094258 
L 249.299442 44.024048 
L 250.299442 43.940785 
L 251.299442 43.907644 
L 252.299442 43.856406 
L 253.299442 43.788008 
L 254.299442 43.721792 
L 255.299442 43.644875 
L 256.619695 43.61756 
" clip-path="url(#p283e40e8f2)" style="fill: none; stroke: #1f77b4; stroke-opacity: 0.5; stroke-width: 0.2; stroke-linecap: square"/>
   </g>
   <g id="line2d_2">
    <path d="M 200.299442 198.338504 
L 201.299442 198.36994 
L 202.299442 198.406881 
L 203.299442 198.504627 
L 204.299442 198.537149 
L 205.299442 198.610773 
L 206.299442 198.649339 
L 207.299442 198.684752 
L 208.299442 198.742392 
L 209.299442 198.812778 
L 210.299442 198.864742 
L 211.299442 198.923832 
L 212.299442 199.012153 
L 213.299442 199.058297 
L 214.299442 199.100708 
L 215.299442 199.131201 
L 216.299442 199.157246 
L 217.299442 199.178446 
L 218.299442 199.232747 
L 219.299442 199.260685 
L 220.299442 199.290409 
L 221.299442 199.315804 
L 222.299442 199.327004 
L 223.299442 199.337128 
L 224.299442 199.336924 
L 225.299442 199.327414 
L 226.299442 199.31576 
L 227.299442 199.284731 
L 228.299442 199.273563 
L 229.299442 199.243445 
L 230.299442 199.183668 
L 231.299442 199.146477 
L 232.299442 199.107381 
L 233.299442 199.064941 
L 234.299442 199.032176 
L 235.299442 198.96475 
L 236.299442 198.925624 
L 237.299442 198.882949 
L 238.299442 198.812369 
L 239.299442 198.775978 
L 240.299442 198.717575 
L 241.299442 198.606622 
L 242.299442 198.535964 
L 243.299442 198.423024 
L 244.299442 198.377251 
L 245.299442 198.315968 
L 246.299442 198.267468 
L 247.299442 198.186646 
L 248.299442 198.068127 
L 249.299442 197.997916 
L 250.299442 197.914654 
L 251.299442 197.881512 
L 252.299442 197.830275 
L 253.299442 197.761876 
L 254.299442 197.695661 
L 255.299442 197.618744 
L 256.619695 197.591428 
" clip-path="url(#p283e40e8f2)" style="fill: none; stroke: #1f77b4; stroke-opacity: 0.5; stroke-width: 0.2; stroke-linecap: square"/>
   </g>
   <g id="line2d_3">
    <path d="M 200.299442 176.865078 
L 201.299442 176.896515 
L 202.299442 176.933455 
L 203.299442 177.031202 
L 204.299442 177.063723 
L 205.299442 177.137348 
L 206.299442 177.175914 
L 207.299442 177.211327 
L 208.299442 177.268967 
L 209.299442 177.339353 
L 210.299442 177.391317 
L 211.299442 177.450407 
L 212.299442 177.538728 
L 213.299442 177.584872 
L 214.299442 177.627283 
L 215.299442 177.657776 
L 216.299442 177.683821 
L 217.299442 177.705021 
L 218.299442 177.759322 
L 219.299442 177.787259 
L 220.299442 177.816983 
L 221.299442 177.842378 
L 222.299442 177.853579 
L 223.299442 177.863703 
L 224.299442 177.863498 
L 225.299442 177.853988 
L 226.299442 177.842335 
L 227.299442 177.811306 
L 228.299442 177.800138 
L 229.299442 177.77002 
L 230.299442 177.710243 
L 231.299442 177.673052 
L 232.299442 177.633956 
L 233.299442 177.591516 
L 234.299442 177.558751 
L 235.299442 177.491324 
L 236.299442 177.452198 
L 237.299442 177.409524 
L 238.299442 177.338943 
L 239.299442 177.302552 
L 240.299442 177.244149 
L 241.299442 177.133197 
L 242.299442 177.062538 
L 243.299442 176.949598 
L 244.299442 176.903826 
L 245.299442 176.842542 
L 246.299442 176.794043 
L 247.299442 176.71322 
L 248.299442 176.594701 
L 249.299442 176.524491 
L 250.299442 176.441228 
L 251.299442 176.408087 
L 252.299442 176.356849 
L 253.299442 176.288451 
L 254.299442 176.222235 
L 255.299442 176.145318 
L 256.619695 176.118003 
" clip-path="url(#p283e40e8f2)" style="fill: none; stroke: #1f77b4; stroke-opacity: 0.5; stroke-width: 0.2; stroke-linecap: square"/>
   </g>
   <g id="line2d_4">
    <path d="M 200.299442 59.065954 
L 201.299442 59.097391 
L 202.299442 59.134331 
L 203.299442 59.232078 
L 204.299442 59.264599 
L 205.299442 59.338224 
L 206.299442 59.37679 
L 207.299442 59.412203 
L 208.299442 59.469843 
L 209.299442 59.540229 
L 210.299442 59.592193 
L 211.299442 59.651283 
L 212.299442 59.739604 
L 213.299442 59.785748 
L 214.299442 59.828159 
L 215.299442 59.858652 
L 216.299442 59.884697 
L 217.299442 59.905897 
L 218.299442 59.960198 
L 219.299442 59.988135 
L 220.299442 60.017859 
L 221.299442 60.043254 
L 222.299442 60.054455 
L 223.299442 60.064579 
L 224.299442 60.064374 
L 225.299442 60.054864 
L 226.299442 60.043211 
L 227.299442 60.012182 
L 228.299442 60.001014 
L 229.299442 59.970896 
L 230.299442 59.911119 
L 231.299442 59.873928 
L 232.299442 59.834832 
L 233.299442 59.792392 
L 234.299442 59.759627 
L 235.299442 59.6922 
L 236.299442 59.653074 
L 237.299442 59.6104 
L 238.299442 59.539819 
L 239.299442 59.503428 
L 240.299442 59.445025 
L 241.299442 59.334073 
L 242.299442 59.263414 
L 243.299442 59.150474 
L 244.299442 59.104702 
L 245.299442 59.043418 
L 246.299442 58.994919 
L 247.299442 58.914096 
L 248.299442 58.795577 
L 249.299442 58.725367 
L 250.299442 58.642104 
L 251.299442 58.608963 
L 252.299442 58.557725 
L 253.299442 58.489327 
L 254.299442 58.423111 
L 255.299442 58.346194 
L 256.619695 58.318879 
" clip-path="url(#p283e40e8f2)" style="fill: none; stroke: #1f77b4; stroke-opacity: 0.5; stroke-width: 0.2; stroke-linecap: square"/>
   </g>
   <g id="line2d_5">
    <path d="M 200.299442 50.029901 
L 201.299442 50.061337 
L 202.299442 50.098277 
L 203.299442 50.196024 
L 204.299442 50.228545 
L 205.299442 50.30217 
L 206.299442 50.340736 
L 207.299442 50.376149 
L 208.299442 50.433789 
L 209.299442 50.504175 
L 210.299442 50.556139 
L 211.299442 50.615229 
L 212.299442 50.70355 
L 213.299442 50.749694 
L 214.299442 50.792105 
L 215.299442 50.822598 
L 216.299442 50.848643 
L 217.299442 50.869843 
L 218.299442 50.924144 
L 219.299442 50.952082 
L 220.299442 50.981806 
L 221.299442 51.0072 
L 222.299442 51.018401 
L 223.299442 51.028525 
L 224.299442 51.02832 
L 225.299442 51.018811 
L 226.299442 51.007157 
L 227.299442 50.976128 
L 228.299442 50.96496 
L 229.299442 50.934842 
L 230.299442 50.875065 
L 231.299442 50.837874 
L 232.299442 50.798778 
L 233.299442 50.756338 
L 234.299442 50.723573 
L 235.299442 50.656146 
L 236.299442 50.617021 
L 237.299442 50.574346 
L 238.299442 50.503765 
L 239.299442 50.467375 
L 240.299442 50.408971 
L 241.299442 50.298019 
L 242.299442 50.22736 
L 243.299442 50.114421 
L 244.299442 50.068648 
L 245.299442 50.007365 
L 246.299442 49.958865 
L 247.299442 49.878042 
L 248.299442 49.759524 
L 249.299442 49.689313 
L 250.299442 49.60605 
L 251.299442 49.572909 
L 252.299442 49.521671 
L 253.299442 49.453273 
L 254.299442 49.387058 
L 255.299442 49.310141 
L 256.619695 49.282825 
" clip-path="url(#p283e40e8f2)" style="fill: none; stroke: #1f77b4; stroke-opacity: 0.5; stroke-width: 0.2; stroke-linecap: square"/>
   </g>
   <g id="line2d_6">
    <path d="M 200.299442 225.358522 
L 201.299442 225.389959 
L 202.299442 225.426899 
L 203.299442 225.524646 
L 204.299442 225.557167 
L 205.299442 225.630792 
L 206.299442 225.669357 
L 207.299442 225.704771 
L 208.299442 225.762411 
L 209.299442 225.832797 
L 210.299442 225.884761 
L 211.299442 225.943851 
L 212.299442 226.032172 
L 213.299442 226.078316 
L 214.299442 226.120727 
L 215.299442 226.15122 
L 216.299442 226.177265 
L 217.299442 226.198465 
L 218.299442 226.252766 
L 219.299442 226.280703 
L 220.299442 226.310427 
L 221.299442 226.335822 
L 222.299442 226.347022 
L 223.299442 226.357146 
L 224.299442 226.356942 
L 225.299442 226.347432 
L 226.299442 226.335779 
L 227.299442 226.304749 
L 228.299442 226.293581 
L 229.299442 226.263464 
L 230.299442 226.203687 
L 231.299442 226.166495 
L 232.299442 226.127399 
L 233.299442 226.08496 
L 234.299442 226.052195 
L 235.299442 225.984768 
L 236.299442 225.945642 
L 237.299442 225.902968 
L 238.299442 225.832387 
L 239.299442 225.795996 
L 240.299442 225.737593 
L 241.299442 225.62664 
L 242.299442 225.555982 
L 243.299442 225.443042 
L 244.299442 225.397269 
L 245.299442 225.335986 
L 246.299442 225.287487 
L 247.299442 225.206664 
L 248.299442 225.088145 
L 249.299442 225.017935 
L 250.299442 224.934672 
L 251.299442 224.90153 
L 252.299442 224.850293 
L 253.299442 224.781895 
L 254.299442 224.715679 
L 255.299442 224.638762 
L 256.619695 224.611447 
" clip-path="url(#p283e40e8f2)" style="fill: none; stroke: #1f77b4; stroke-opacity: 0.5; stroke-width: 0.2; stroke-linecap: square"/>
   </g>
   <g id="line2d_7">
    <path d="M 200.299442 187.513256 
L 201.299442 187.544692 
L 202.299442 187.581633 
L 203.299442 187.679379 
L 204.299442 187.711901 
L 205.299442 187.785525 
L 206.299442 187.824091 
L 207.299442 187.859504 
L 208.299442 187.917144 
L 209.299442 187.98753 
L 210.299442 188.039494 
L 211.299442 188.098584 
L 212.299442 188.186905 
L 213.299442 188.233049 
L 214.299442 188.27546 
L 215.299442 188.305953 
L 216.299442 188.331998 
L 217.299442 188.353198 
L 218.299442 188.407499 
L 219.299442 188.435437 
L 220.299442 188.465161 
L 221.299442 188.490556 
L 222.299442 188.501756 
L 223.299442 188.51188 
L 224.299442 188.511676 
L 225.299442 188.502166 
L 226.299442 188.490512 
L 227.299442 188.459483 
L 228.299442 188.448315 
L 229.299442 188.418197 
L 230.299442 188.35842 
L 231.299442 188.321229 
L 232.299442 188.282133 
L 233.299442 188.239693 
L 234.299442 188.206928 
L 235.299442 188.139502 
L 236.299442 188.100376 
L 237.299442 188.057701 
L 238.299442 187.987121 
L 239.299442 187.95073 
L 240.299442 187.892327 
L 241.299442 187.781374 
L 242.299442 187.710716 
L 243.299442 187.597776 
L 244.299442 187.552003 
L 245.299442 187.49072 
L 246.299442 187.44222 
L 247.299442 187.361398 
L 248.299442 187.242879 
L 249.299442 187.172668 
L 250.299442 187.089406 
L 251.299442 187.056264 
L 252.299442 187.005027 
L 253.299442 186.936628 
L 254.299442 186.870413 
L 255.299442 186.793496 
L 256.619695 186.76618 
" clip-path="url(#p283e40e8f2)" style="fill: none; stroke: #1f77b4; stroke-opacity: 0.5; stroke-width: 0.2; stroke-linecap: square"/>
   </g>
   <g id="line2d_8">
    <path d="M 200.299442 90.754632 
L 201.299442 90.786069 
L 202.299442 90.823009 
L 203.299442 90.920756 
L 204.299442 90.953277 
L 205.299442 91.026902 
L 206.299442 91.065468 
L 207.299442 91.100881 
L 208.299442 91.158521 
L 209.299442 91.228907 
L 210.299442 91.280871 
L 211.299442 91.339961 
L 212.299442 91.428282 
L 213.299442 91.474426 
L 214.299442 91.516837 
L 215.299442 91.54733 
L 216.299442 91.573375 
L 217.299442 91.594575 
L 218.299442 91.648876 
L 219.299442 91.676813 
L 220.299442 91.706537 
L 221.299442 91.731932 
L 222.299442 91.743133 
L 223.299442 91.753257 
L 224.299442 91.753052 
L 225.299442 91.743542 
L 226.299442 91.731889 
L 227.299442 91.700859 
L 228.299442 91.689692 
L 229.299442 91.659574 
L 230.299442 91.599797 
L 231.299442 91.562606 
L 232.299442 91.523509 
L 233.299442 91.48107 
L 234.299442 91.448305 
L 235.299442 91.380878 
L 236.299442 91.341752 
L 237.299442 91.299078 
L 238.299442 91.228497 
L 239.299442 91.192106 
L 240.299442 91.133703 
L 241.299442 91.022751 
L 242.299442 90.952092 
L 243.299442 90.839152 
L 244.299442 90.79338 
L 245.299442 90.732096 
L 246.299442 90.683597 
L 247.299442 90.602774 
L 248.299442 90.484255 
L 249.299442 90.414045 
L 250.299442 90.330782 
L 251.299442 90.29764 
L 252.299442 90.246403 
L 253.299442 90.178005 
L 254.299442 90.111789 
L 255.299442 90.034872 
L 256.619695 90.007557 
" clip-path="url(#p283e40e8f2)" style="fill: none; stroke: #1f77b4; stroke-opacity: 0.5; stroke-width: 0.2; stroke-linecap: square"/>
   </g>
   <g id="line2d_9">
    <path d="M 200.299442 229.545605 
L 201.299442 229.577042 
L 202.299442 229.613982 
L 203.299442 229.711729 
L 204.299442 229.74425 
L 205.299442 229.817875 
L 206.299442 229.85644 
L 207.299442 229.891854 
L 208.299442 229.949493 
L 209.299442 230.01988 
L 210.299442 230.071844 
L 211.299442 230.130934 
L 212.299442 230.219255 
L 213.299442 230.265399 
L 214.299442 230.30781 
L 215.299442 230.338303 
L 216.299442 230.364347 
L 217.299442 230.385548 
L 218.299442 230.439849 
L 219.299442 230.467786 
L 220.299442 230.49751 
L 221.299442 230.522905 
L 222.299442 230.534105 
L 223.299442 230.544229 
L 224.299442 230.544025 
L 225.299442 230.534515 
L 226.299442 230.522862 
L 227.299442 230.491832 
L 228.299442 230.480664 
L 229.299442 230.450547 
L 230.299442 230.39077 
L 231.299442 230.353578 
L 232.299442 230.314482 
L 233.299442 230.272043 
L 234.299442 230.239278 
L 235.299442 230.171851 
L 236.299442 230.132725 
L 237.299442 230.090051 
L 238.299442 230.01947 
L 239.299442 229.983079 
L 240.299442 229.924676 
L 241.299442 229.813723 
L 242.299442 229.743065 
L 243.299442 229.630125 
L 244.299442 229.584352 
L 245.299442 229.523069 
L 246.299442 229.47457 
L 247.299442 229.393747 
L 248.299442 229.275228 
L 249.299442 229.205018 
L 250.299442 229.121755 
L 251.299442 229.088613 
L 252.299442 229.037376 
L 253.299442 228.968978 
L 254.299442 228.902762 
L 255.299442 228.825845 
L 256.619695 228.79853 
" clip-path="url(#p283e40e8f2)" style="fill: none; stroke: #1f77b4; stroke-opacity: 0.5; stroke-width: 0.2; stroke-linecap: square"/>
   </g>
   <g id="line2d_10">
    <path d="M 200.299442 309.813791 
L 201.299442 309.845227 
L 202.299442 309.882168 
L 203.299442 309.979914 
L 204.299442 310.012436 
L 205.299442 310.086061 
L 206.299442 310.124626 
L 207.299442 310.160039 
L 208.299442 310.217679 
L 209.299442 310.288066 
L 210.299442 310.34003 
L 211.299442 310.39912 
L 212.299442 310.48744 
L 213.299442 310.533585 
L 214.299442 310.575996 
L 215.299442 310.606488 
L 216.299442 310.632533 
L 217.299442 310.653733 
L 218.299442 310.708035 
L 219.299442 310.735972 
L 220.299442 310.765696 
L 221.299442 310.791091 
L 222.299442 310.802291 
L 223.299442 310.812415 
L 224.299442 310.812211 
L 225.299442 310.802701 
L 226.299442 310.791047 
L 227.299442 310.760018 
L 228.299442 310.74885 
L 229.299442 310.718733 
L 230.299442 310.658956 
L 231.299442 310.621764 
L 232.299442 310.582668 
L 233.299442 310.540229 
L 234.299442 310.507463 
L 235.299442 310.440037 
L 236.299442 310.400911 
L 237.299442 310.358237 
L 238.299442 310.287656 
L 239.299442 310.251265 
L 240.299442 310.192862 
L 241.299442 310.081909 
L 242.299442 310.011251 
L 243.299442 309.898311 
L 244.299442 309.852538 
L 245.299442 309.791255 
L 246.299442 309.742756 
L 247.299442 309.661933 
L 248.299442 309.543414 
L 249.299442 309.473203 
L 250.299442 309.389941 
L 251.299442 309.356799 
L 252.299442 309.305562 
L 253.299442 309.237164 
L 254.299442 309.170948 
L 255.299442 309.094031 
L 256.619695 309.066716 
" clip-path="url(#p283e40e8f2)" style="fill: none; stroke: #1f77b4; stroke-opacity: 0.5; stroke-width: 0.2; stroke-linecap: square"/>
   </g>
   <g id="line2d_11">
    <path d="M 256.619695 277.174413 
L 255.619695 277.142977 
L 254.619695 277.106037 
L 253.619695 277.00829 
L 252.619695 276.975768 
L 251.619695 276.902144 
L 250.619695 276.863578 
L 249.619695 276.828165 
L 248.619695 276.770525 
L 247.619695 276.700139 
L 246.619695 276.648175 
L 245.619695 276.589085 
L 244.619695 276.500764 
L 243.619695 276.45462 
L 242.619695 276.412209 
L 241.619695 276.381716 
L 240.619695 276.355671 
L 239.619695 276.334471 
L 238.619695 276.28017 
L 237.619695 276.252232 
L 236.619695 276.222508 
L 235.619695 276.197114 
L 234.619695 276.185913 
L 233.619695 276.175789 
L 232.619695 276.175994 
L 231.619695 276.185503 
L 230.619695 276.197157 
L 229.619695 276.228186 
L 228.619695 276.239354 
L 227.619695 276.269472 
L 226.619695 276.329249 
L 225.619695 276.36644 
L 224.619695 276.405536 
L 223.619695 276.447976 
L 222.619695 276.480741 
L 221.619695 276.548167 
L 220.619695 276.587293 
L 219.619695 276.629968 
L 218.619695 276.700549 
L 217.619695 276.736939 
L 216.619695 276.795343 
L 215.619695 276.906295 
L 214.619695 276.976953 
L 213.619695 277.089893 
L 212.619695 277.135666 
L 211.619695 277.196949 
L 210.619695 277.245449 
L 209.619695 277.326271 
L 208.619695 277.44479 
L 207.619695 277.515001 
L 206.619695 277.598263 
L 205.619695 277.631405 
L 204.619695 277.682643 
L 203.619695 277.751041 
L 202.619695 277.817256 
L 201.619695 277.894173 
L 200.299442 277.921489 
" clip-path="url(#p283e40e8f2)" style="fill: none; stroke: #ff7f0e; stroke-opacity: 0.5; stroke-width: 0.2; stroke-linecap: square"/>
   </g>
   <g id="line2d_12">
    <path d="M 256.619695 43.388702 
L 255.619695 43.357265 
L 254.619695 43.320325 
L 253.619695 43.222578 
L 252.619695 43.190057 
L 251.619695 43.116432 
L 250.619695 43.077866 
L 249.619695 43.042453 
L 248.619695 42.984813 
L 247.619695 42.914427 
L 246.619695 42.862463 
L 245.619695 42.803373 
L 244.619695 42.715052 
L 243.619695 42.668908 
L 242.619695 42.626497 
L 241.619695 42.596004 
L 240.619695 42.569959 
L 239.619695 42.548759 
L 238.619695 42.494458 
L 237.619695 42.466521 
L 236.619695 42.436797 
L 235.619695 42.411402 
L 234.619695 42.400201 
L 233.619695 42.390078 
L 232.619695 42.390282 
L 231.619695 42.399792 
L 230.619695 42.411445 
L 229.619695 42.442475 
L 228.619695 42.453642 
L 227.619695 42.48376 
L 226.619695 42.543537 
L 225.619695 42.580728 
L 224.619695 42.619825 
L 223.619695 42.662264 
L 222.619695 42.695029 
L 221.619695 42.762456 
L 220.619695 42.801582 
L 219.619695 42.844256 
L 218.619695 42.914837 
L 217.619695 42.951228 
L 216.619695 43.009631 
L 215.619695 43.120583 
L 214.619695 43.191242 
L 213.619695 43.304182 
L 212.619695 43.349954 
L 211.619695 43.411238 
L 210.619695 43.459737 
L 209.619695 43.54056 
L 208.619695 43.659079 
L 207.619695 43.729289 
L 206.619695 43.812552 
L 205.619695 43.845694 
L 204.619695 43.896931 
L 203.619695 43.965329 
L 202.619695 44.031545 
L 201.619695 44.108462 
L 200.299442 44.135777 
" clip-path="url(#p283e40e8f2)" style="fill: none; stroke: #ff7f0e; stroke-opacity: 0.5; stroke-width: 0.2; stroke-linecap: square"/>
   </g>
   <g id="line2d_13">
    <path d="M 256.619695 289.014261 
L 255.619695 288.982825 
L 254.619695 288.945884 
L 253.619695 288.848138 
L 252.619695 288.815616 
L 251.619695 288.741992 
L 250.619695 288.703426 
L 249.619695 288.668013 
L 248.619695 288.610373 
L 247.619695 288.539987 
L 246.619695 288.488022 
L 245.619695 288.428933 
L 244.619695 288.340612 
L 243.619695 288.294467 
L 242.619695 288.252056 
L 241.619695 288.221564 
L 240.619695 288.195519 
L 239.619695 288.174319 
L 238.619695 288.120018 
L 237.619695 288.09208 
L 236.619695 288.062356 
L 235.619695 288.036961 
L 234.619695 288.025761 
L 233.619695 288.015637 
L 232.619695 288.015841 
L 231.619695 288.025351 
L 230.619695 288.037005 
L 229.619695 288.068034 
L 228.619695 288.079202 
L 227.619695 288.109319 
L 226.619695 288.169096 
L 225.619695 288.206288 
L 224.619695 288.245384 
L 223.619695 288.287824 
L 222.619695 288.320589 
L 221.619695 288.388015 
L 220.619695 288.427141 
L 219.619695 288.469816 
L 218.619695 288.540396 
L 217.619695 288.576787 
L 216.619695 288.63519 
L 215.619695 288.746143 
L 214.619695 288.816801 
L 213.619695 288.929741 
L 212.619695 288.975514 
L 211.619695 289.036797 
L 210.619695 289.085296 
L 209.619695 289.166119 
L 208.619695 289.284638 
L 207.619695 289.354849 
L 206.619695 289.438111 
L 205.619695 289.471253 
L 204.619695 289.52249 
L 203.619695 289.590889 
L 202.619695 289.657104 
L 201.619695 289.734021 
L 200.299442 289.761337 
" clip-path="url(#p283e40e8f2)" style="fill: none; stroke: #ff7f0e; stroke-opacity: 0.5; stroke-width: 0.2; stroke-linecap: square"/>
   </g>
   <g id="line2d_14">
    <path d="M 256.619695 277.478014 
L 255.619695 277.446577 
L 254.619695 277.409637 
L 253.619695 277.311891 
L 252.619695 277.279369 
L 251.619695 277.205744 
L 250.619695 277.167179 
L 249.619695 277.131766 
L 248.619695 277.074126 
L 247.619695 277.003739 
L 246.619695 276.951775 
L 245.619695 276.892685 
L 244.619695 276.804364 
L 243.619695 276.75822 
L 242.619695 276.715809 
L 241.619695 276.685317 
L 240.619695 276.659272 
L 239.619695 276.638071 
L 238.619695 276.58377 
L 237.619695 276.555833 
L 236.619695 276.526109 
L 235.619695 276.500714 
L 234.619695 276.489514 
L 233.619695 276.47939 
L 232.619695 276.479594 
L 231.619695 276.489104 
L 230.619695 276.500757 
L 229.619695 276.531787 
L 228.619695 276.542955 
L 227.619695 276.573072 
L 226.619695 276.632849 
L 225.619695 276.670041 
L 224.619695 276.709137 
L 223.619695 276.751576 
L 222.619695 276.784341 
L 221.619695 276.851768 
L 220.619695 276.890894 
L 219.619695 276.933568 
L 218.619695 277.004149 
L 217.619695 277.04054 
L 216.619695 277.098943 
L 215.619695 277.209896 
L 214.619695 277.280554 
L 213.619695 277.393494 
L 212.619695 277.439267 
L 211.619695 277.50055 
L 210.619695 277.549049 
L 209.619695 277.629872 
L 208.619695 277.748391 
L 207.619695 277.818601 
L 206.619695 277.901864 
L 205.619695 277.935006 
L 204.619695 277.986243 
L 203.619695 278.054641 
L 202.619695 278.120857 
L 201.619695 278.197774 
L 200.299442 278.225089 
" clip-path="url(#p283e40e8f2)" style="fill: none; stroke: #ff7f0e; stroke-opacity: 0.5; stroke-width: 0.2; stroke-linecap: square"/>
   </g>
   <g id="line2d_15">
    <path d="M 256.619695 129.025189 
L 255.619695 128.993752 
L 254.619695 128.956812 
L 253.619695 128.859065 
L 252.619695 128.826544 
L 251.619695 128.752919 
L 250.619695 128.714353 
L 249.619695 128.67894 
L 248.619695 128.6213 
L 247.619695 128.550914 
L 246.619695 128.49895 
L 245.619695 128.43986 
L 244.619695 128.351539 
L 243.619695 128.305395 
L 242.619695 128.262984 
L 241.619695 128.232491 
L 240.619695 128.206446 
L 239.619695 128.185246 
L 238.619695 128.130945 
L 237.619695 128.103008 
L 236.619695 128.073284 
L 235.619695 128.047889 
L 234.619695 128.036688 
L 233.619695 128.026564 
L 232.619695 128.026769 
L 231.619695 128.036279 
L 230.619695 128.047932 
L 229.619695 128.078961 
L 228.619695 128.090129 
L 227.619695 128.120247 
L 226.619695 128.180024 
L 225.619695 128.217215 
L 224.619695 128.256311 
L 223.619695 128.298751 
L 222.619695 128.331516 
L 221.619695 128.398943 
L 220.619695 128.438069 
L 219.619695 128.480743 
L 218.619695 128.551324 
L 217.619695 128.587715 
L 216.619695 128.646118 
L 215.619695 128.75707 
L 214.619695 128.827729 
L 213.619695 128.940668 
L 212.619695 128.986441 
L 211.619695 129.047725 
L 210.619695 129.096224 
L 209.619695 129.177047 
L 208.619695 129.295566 
L 207.619695 129.365776 
L 206.619695 129.449039 
L 205.619695 129.48218 
L 204.619695 129.533418 
L 203.619695 129.601816 
L 202.619695 129.668032 
L 201.619695 129.744949 
L 200.299442 129.772264 
" clip-path="url(#p283e40e8f2)" style="fill: none; stroke: #ff7f0e; stroke-opacity: 0.5; stroke-width: 0.2; stroke-linecap: square"/>
   </g>
   <g id="line2d_16">
    <path d="M 256.619695 25.964677 
L 255.619695 25.933241 
L 254.619695 25.896301 
L 253.619695 25.798554 
L 252.619695 25.766033 
L 251.619695 25.692408 
L 250.619695 25.653842 
L 249.619695 25.618429 
L 248.619695 25.560789 
L 247.619695 25.490403 
L 246.619695 25.438439 
L 245.619695 25.379349 
L 244.619695 25.291028 
L 243.619695 25.244884 
L 242.619695 25.202473 
L 241.619695 25.17198 
L 240.619695 25.145935 
L 239.619695 25.124735 
L 238.619695 25.070434 
L 237.619695 25.042496 
L 236.619695 25.012772 
L 235.619695 24.987378 
L 234.619695 24.976177 
L 233.619695 24.966053 
L 232.619695 24.966258 
L 231.619695 24.975767 
L 230.619695 24.987421 
L 229.619695 25.01845 
L 228.619695 25.029618 
L 227.619695 25.059736 
L 226.619695 25.119513 
L 225.619695 25.156704 
L 224.619695 25.1958 
L 223.619695 25.23824 
L 222.619695 25.271005 
L 221.619695 25.338432 
L 220.619695 25.377557 
L 219.619695 25.420232 
L 218.619695 25.490813 
L 217.619695 25.527203 
L 216.619695 25.585607 
L 215.619695 25.696559 
L 214.619695 25.767218 
L 213.619695 25.880157 
L 212.619695 25.92593 
L 211.619695 25.987213 
L 210.619695 26.035713 
L 209.619695 26.116535 
L 208.619695 26.235054 
L 207.619695 26.305265 
L 206.619695 26.388528 
L 205.619695 26.421669 
L 204.619695 26.472907 
L 203.619695 26.541305 
L 202.619695 26.60752 
L 201.619695 26.684437 
L 200.299442 26.711753 
" clip-path="url(#p283e40e8f2)" style="fill: none; stroke: #ff7f0e; stroke-opacity: 0.5; stroke-width: 0.2; stroke-linecap: square"/>
   </g>
   <g id="line2d_17">
    <path d="M 256.619695 55.112918 
L 255.619695 55.081482 
L 254.619695 55.044542 
L 253.619695 54.946795 
L 252.619695 54.914274 
L 251.619695 54.840649 
L 250.619695 54.802083 
L 249.619695 54.76667 
L 248.619695 54.70903 
L 247.619695 54.638644 
L 246.619695 54.58668 
L 245.619695 54.52759 
L 244.619695 54.439269 
L 243.619695 54.393125 
L 242.619695 54.350714 
L 241.619695 54.320221 
L 240.619695 54.294176 
L 239.619695 54.272976 
L 238.619695 54.218675 
L 237.619695 54.190737 
L 236.619695 54.161013 
L 235.619695 54.135619 
L 234.619695 54.124418 
L 233.619695 54.114294 
L 232.619695 54.114499 
L 231.619695 54.124008 
L 230.619695 54.135662 
L 229.619695 54.166691 
L 228.619695 54.177859 
L 227.619695 54.207977 
L 226.619695 54.267754 
L 225.619695 54.304945 
L 224.619695 54.344041 
L 223.619695 54.386481 
L 222.619695 54.419246 
L 221.619695 54.486673 
L 220.619695 54.525798 
L 219.619695 54.568473 
L 218.619695 54.639054 
L 217.619695 54.675444 
L 216.619695 54.733848 
L 215.619695 54.8448 
L 214.619695 54.915459 
L 213.619695 55.028398 
L 212.619695 55.074171 
L 211.619695 55.135454 
L 210.619695 55.183954 
L 209.619695 55.264776 
L 208.619695 55.383295 
L 207.619695 55.453506 
L 206.619695 55.536769 
L 205.619695 55.56991 
L 204.619695 55.621148 
L 203.619695 55.689546 
L 202.619695 55.755761 
L 201.619695 55.832678 
L 200.299442 55.859994 
" clip-path="url(#p283e40e8f2)" style="fill: none; stroke: #ff7f0e; stroke-opacity: 0.5; stroke-width: 0.2; stroke-linecap: square"/>
   </g>
   <g id="line2d_18">
    <path d="M 256.619695 50.713922 
L 255.619695 50.682485 
L 254.619695 50.645545 
L 253.619695 50.547799 
L 252.619695 50.515277 
L 251.619695 50.441652 
L 250.619695 50.403087 
L 249.619695 50.367673 
L 248.619695 50.310034 
L 247.619695 50.239647 
L 246.619695 50.187683 
L 245.619695 50.128593 
L 244.619695 50.040272 
L 243.619695 49.994128 
L 242.619695 49.951717 
L 241.619695 49.921225 
L 240.619695 49.89518 
L 239.619695 49.873979 
L 238.619695 49.819678 
L 237.619695 49.791741 
L 236.619695 49.762017 
L 235.619695 49.736622 
L 234.619695 49.725422 
L 233.619695 49.715298 
L 232.619695 49.715502 
L 231.619695 49.725012 
L 230.619695 49.736665 
L 229.619695 49.767695 
L 228.619695 49.778863 
L 227.619695 49.80898 
L 226.619695 49.868757 
L 225.619695 49.905949 
L 224.619695 49.945045 
L 223.619695 49.987484 
L 222.619695 50.020249 
L 221.619695 50.087676 
L 220.619695 50.126802 
L 219.619695 50.169476 
L 218.619695 50.240057 
L 217.619695 50.276448 
L 216.619695 50.334851 
L 215.619695 50.445804 
L 214.619695 50.516462 
L 213.619695 50.629402 
L 212.619695 50.675175 
L 211.619695 50.736458 
L 210.619695 50.784957 
L 209.619695 50.86578 
L 208.619695 50.984299 
L 207.619695 51.054509 
L 206.619695 51.137772 
L 205.619695 51.170914 
L 204.619695 51.222151 
L 203.619695 51.290549 
L 202.619695 51.356765 
L 201.619695 51.433682 
L 200.299442 51.460997 
" clip-path="url(#p283e40e8f2)" style="fill: none; stroke: #ff7f0e; stroke-opacity: 0.5; stroke-width: 0.2; stroke-linecap: square"/>
   </g>
   <g id="line2d_19">
    <path d="M 256.619695 238.317002 
L 255.619695 238.285566 
L 254.619695 238.248626 
L 253.619695 238.150879 
L 252.619695 238.118358 
L 251.619695 238.044733 
L 250.619695 238.006167 
L 249.619695 237.970754 
L 248.619695 237.913114 
L 247.619695 237.842728 
L 246.619695 237.790764 
L 245.619695 237.731674 
L 244.619695 237.643353 
L 243.619695 237.597209 
L 242.619695 237.554798 
L 241.619695 237.524305 
L 240.619695 237.49826 
L 239.619695 237.47706 
L 238.619695 237.422759 
L 237.619695 237.394821 
L 236.619695 237.365097 
L 235.619695 237.339703 
L 234.619695 237.328502 
L 233.619695 237.318378 
L 232.619695 237.318583 
L 231.619695 237.328093 
L 230.619695 237.339746 
L 229.619695 237.370775 
L 228.619695 237.381943 
L 227.619695 237.412061 
L 226.619695 237.471838 
L 225.619695 237.509029 
L 224.619695 237.548125 
L 223.619695 237.590565 
L 222.619695 237.62333 
L 221.619695 237.690757 
L 220.619695 237.729882 
L 219.619695 237.772557 
L 218.619695 237.843138 
L 217.619695 237.879529 
L 216.619695 237.937932 
L 215.619695 238.048884 
L 214.619695 238.119543 
L 213.619695 238.232482 
L 212.619695 238.278255 
L 211.619695 238.339539 
L 210.619695 238.388038 
L 209.619695 238.468861 
L 208.619695 238.587379 
L 207.619695 238.65759 
L 206.619695 238.740853 
L 205.619695 238.773994 
L 204.619695 238.825232 
L 203.619695 238.89363 
L 202.619695 238.959845 
L 201.619695 239.036762 
L 200.299442 239.064078 
" clip-path="url(#p283e40e8f2)" style="fill: none; stroke: #ff7f0e; stroke-opacity: 0.5; stroke-width: 0.2; stroke-linecap: square"/>
   </g>
   <g id="line2d_20">
    <path d="M 256.619695 46.784394 
L 255.619695 46.752958 
L 254.619695 46.716017 
L 253.619695 46.618271 
L 252.619695 46.585749 
L 251.619695 46.512124 
L 250.619695 46.473559 
L 249.619695 46.438146 
L 248.619695 46.380506 
L 247.619695 46.310119 
L 246.619695 46.258155 
L 245.619695 46.199065 
L 244.619695 46.110745 
L 243.619695 46.0646 
L 242.619695 46.022189 
L 241.619695 45.991697 
L 240.619695 45.965652 
L 239.619695 45.944452 
L 238.619695 45.89015 
L 237.619695 45.862213 
L 236.619695 45.832489 
L 235.619695 45.807094 
L 234.619695 45.795894 
L 233.619695 45.78577 
L 232.619695 45.785974 
L 231.619695 45.795484 
L 230.619695 45.807138 
L 229.619695 45.838167 
L 228.619695 45.849335 
L 227.619695 45.879452 
L 226.619695 45.939229 
L 225.619695 45.976421 
L 224.619695 46.015517 
L 223.619695 46.057957 
L 222.619695 46.090722 
L 221.619695 46.158148 
L 220.619695 46.197274 
L 219.619695 46.239948 
L 218.619695 46.310529 
L 217.619695 46.34692 
L 216.619695 46.405323 
L 215.619695 46.516276 
L 214.619695 46.586934 
L 213.619695 46.699874 
L 212.619695 46.745647 
L 211.619695 46.80693 
L 210.619695 46.855429 
L 209.619695 46.936252 
L 208.619695 47.054771 
L 207.619695 47.124982 
L 206.619695 47.208244 
L 205.619695 47.241386 
L 204.619695 47.292623 
L 203.619695 47.361021 
L 202.619695 47.427237 
L 201.619695 47.504154 
L 200.299442 47.531469 
" clip-path="url(#p283e40e8f2)" style="fill: none; stroke: #ff7f0e; stroke-opacity: 0.5; stroke-width: 0.2; stroke-linecap: square"/>
   </g>
   <g id="line2d_21">
    <path d="M 390.34593 266.610028 
L 391.34593 266.641465 
L 392.34593 266.678405 
L 393.34593 266.776152 
L 394.34593 266.808673 
L 395.34593 266.882298 
L 396.34593 266.920863 
L 397.34593 266.956277 
L 398.34593 267.013917 
L 399.34593 267.084303 
L 400.34593 267.136267 
L 401.34593 267.195357 
L 402.34593 267.283678 
L 403.34593 267.329822 
L 404.34593 267.372233 
L 405.34593 267.402726 
L 406.34593 267.428771 
L 407.34593 267.449971 
L 408.34593 267.504272 
L 409.34593 267.532209 
L 410.34593 267.561933 
L 411.34593 267.587328 
L 412.34593 267.598529 
L 413.34593 267.608652 
L 414.34593 267.608448 
L 415.34593 267.598938 
L 416.34593 267.587285 
L 417.34593 267.556255 
L 418.34593 267.545088 
L 419.34593 267.51497 
L 420.34593 267.455193 
L 421.34593 267.418001 
L 422.34593 267.378905 
L 423.34593 267.336466 
L 424.34593 267.303701 
L 425.34593 267.236274 
L 426.34593 267.197148 
L 427.34593 267.154474 
L 428.34593 267.083893 
L 429.34593 267.047502 
L 430.34593 266.989099 
L 431.34593 266.878147 
L 432.34593 266.807488 
L 433.34593 266.694548 
L 434.34593 266.648775 
L 435.34593 266.587492 
L 436.34593 266.538993 
L 437.34593 266.45817 
L 438.34593 266.339651 
L 439.34593 266.269441 
L 440.34593 266.186178 
L 441.34593 266.153036 
L 442.34593 266.101799 
L 443.34593 266.033401 
L 444.34593 265.967185 
L 445.34593 265.890268 
L 446.666183 265.862953 
" clip-path="url(#p283e40e8f2)" style="fill: none; stroke: #ff7f0e; stroke-opacity: 0.5; stroke-width: 0.2; stroke-linecap: square"/>
   </g>
   <g id="line2d_22">
    <path d="M 390.34593 304.994879 
L 391.34593 305.026316 
L 392.34593 305.063256 
L 393.34593 305.161003 
L 394.34593 305.193524 
L 395.34593 305.267149 
L 396.34593 305.305715 
L 397.34593 305.341128 
L 398.34593 305.398768 
L 399.34593 305.469154 
L 400.34593 305.521118 
L 401.34593 305.580208 
L 402.34593 305.668529 
L 403.34593 305.714673 
L 404.34593 305.757084 
L 405.34593 305.787577 
L 406.34593 305.813622 
L 407.34593 305.834822 
L 408.34593 305.889123 
L 409.34593 305.91706 
L 410.34593 305.946784 
L 411.34593 305.972179 
L 412.34593 305.98338 
L 413.34593 305.993504 
L 414.34593 305.993299 
L 415.34593 305.983789 
L 416.34593 305.972136 
L 417.34593 305.941107 
L 418.34593 305.929939 
L 419.34593 305.899821 
L 420.34593 305.840044 
L 421.34593 305.802853 
L 422.34593 305.763757 
L 423.34593 305.721317 
L 424.34593 305.688552 
L 425.34593 305.621125 
L 426.34593 305.581999 
L 427.34593 305.539325 
L 428.34593 305.468744 
L 429.34593 305.432353 
L 430.34593 305.37395 
L 431.34593 305.262998 
L 432.34593 305.192339 
L 433.34593 305.079399 
L 434.34593 305.033627 
L 435.34593 304.972343 
L 436.34593 304.923844 
L 437.34593 304.843021 
L 438.34593 304.724502 
L 439.34593 304.654292 
L 440.34593 304.571029 
L 441.34593 304.537888 
L 442.34593 304.48665 
L 443.34593 304.418252 
L 444.34593 304.352036 
L 445.34593 304.275119 
L 446.666183 304.247804 
" clip-path="url(#p283e40e8f2)" style="fill: none; stroke: #ff7f0e; stroke-opacity: 0.5; stroke-width: 0.2; stroke-linecap: square"/>
   </g>
   <g id="line2d_23">
    <path d="M 390.34593 183.191156 
L 391.34593 183.222592 
L 392.34593 183.259533 
L 393.34593 183.357279 
L 394.34593 183.389801 
L 395.34593 183.463425 
L 396.34593 183.501991 
L 397.34593 183.537404 
L 398.34593 183.595044 
L 399.34593 183.66543 
L 400.34593 183.717394 
L 401.34593 183.776484 
L 402.34593 183.864805 
L 403.34593 183.910949 
L 404.34593 183.95336 
L 405.34593 183.983853 
L 406.34593 184.009898 
L 407.34593 184.031098 
L 408.34593 184.085399 
L 409.34593 184.113337 
L 410.34593 184.143061 
L 411.34593 184.168456 
L 412.34593 184.179656 
L 413.34593 184.18978 
L 414.34593 184.189576 
L 415.34593 184.180066 
L 416.34593 184.168412 
L 417.34593 184.137383 
L 418.34593 184.126215 
L 419.34593 184.096097 
L 420.34593 184.03632 
L 421.34593 183.999129 
L 422.34593 183.960033 
L 423.34593 183.917593 
L 424.34593 183.884828 
L 425.34593 183.817402 
L 426.34593 183.778276 
L 427.34593 183.735601 
L 428.34593 183.665021 
L 429.34593 183.62863 
L 430.34593 183.570227 
L 431.34593 183.459274 
L 432.34593 183.388616 
L 433.34593 183.275676 
L 434.34593 183.229903 
L 435.34593 183.16862 
L 436.34593 183.12012 
L 437.34593 183.039298 
L 438.34593 182.920779 
L 439.34593 182.850568 
L 440.34593 182.767306 
L 441.34593 182.734164 
L 442.34593 182.682927 
L 443.34593 182.614528 
L 444.34593 182.548313 
L 445.34593 182.471396 
L 446.666183 182.44408 
" clip-path="url(#p283e40e8f2)" style="fill: none; stroke: #ff7f0e; stroke-opacity: 0.5; stroke-width: 0.2; stroke-linecap: square"/>
   </g>
   <g id="line2d_24">
    <path d="M 390.34593 120.330582 
L 391.34593 120.362018 
L 392.34593 120.398959 
L 393.34593 120.496705 
L 394.34593 120.529227 
L 395.34593 120.602852 
L 396.34593 120.641417 
L 397.34593 120.67683 
L 398.34593 120.73447 
L 399.34593 120.804856 
L 400.34593 120.856821 
L 401.34593 120.91591 
L 402.34593 121.004231 
L 403.34593 121.050376 
L 404.34593 121.092787 
L 405.34593 121.123279 
L 406.34593 121.149324 
L 407.34593 121.170524 
L 408.34593 121.224825 
L 409.34593 121.252763 
L 410.34593 121.282487 
L 411.34593 121.307882 
L 412.34593 121.319082 
L 413.34593 121.329206 
L 414.34593 121.329002 
L 415.34593 121.319492 
L 416.34593 121.307838 
L 417.34593 121.276809 
L 418.34593 121.265641 
L 419.34593 121.235524 
L 420.34593 121.175747 
L 421.34593 121.138555 
L 422.34593 121.099459 
L 423.34593 121.057019 
L 424.34593 121.024254 
L 425.34593 120.956828 
L 426.34593 120.917702 
L 427.34593 120.875027 
L 428.34593 120.804447 
L 429.34593 120.768056 
L 430.34593 120.709653 
L 431.34593 120.5987 
L 432.34593 120.528042 
L 433.34593 120.415102 
L 434.34593 120.369329 
L 435.34593 120.308046 
L 436.34593 120.259547 
L 437.34593 120.178724 
L 438.34593 120.060205 
L 439.34593 119.989994 
L 440.34593 119.906732 
L 441.34593 119.87359 
L 442.34593 119.822353 
L 443.34593 119.753954 
L 444.34593 119.687739 
L 445.34593 119.610822 
L 446.666183 119.583506 
" clip-path="url(#p283e40e8f2)" style="fill: none; stroke: #ff7f0e; stroke-opacity: 0.5; stroke-width: 0.2; stroke-linecap: square"/>
   </g>
   <g id="line2d_25">
    <path d="M 390.34593 277.151247 
L 391.34593 277.182683 
L 392.34593 277.219624 
L 393.34593 277.31737 
L 394.34593 277.349892 
L 395.34593 277.423517 
L 396.34593 277.462082 
L 397.34593 277.497495 
L 398.34593 277.555135 
L 399.34593 277.625522 
L 400.34593 277.677486 
L 401.34593 277.736576 
L 402.34593 277.824896 
L 403.34593 277.871041 
L 404.34593 277.913452 
L 405.34593 277.943944 
L 406.34593 277.969989 
L 407.34593 277.991189 
L 408.34593 278.045491 
L 409.34593 278.073428 
L 410.34593 278.103152 
L 411.34593 278.128547 
L 412.34593 278.139747 
L 413.34593 278.149871 
L 414.34593 278.149667 
L 415.34593 278.140157 
L 416.34593 278.128503 
L 417.34593 278.097474 
L 418.34593 278.086306 
L 419.34593 278.056189 
L 420.34593 277.996412 
L 421.34593 277.95922 
L 422.34593 277.920124 
L 423.34593 277.877685 
L 424.34593 277.844919 
L 425.34593 277.777493 
L 426.34593 277.738367 
L 427.34593 277.695693 
L 428.34593 277.625112 
L 429.34593 277.588721 
L 430.34593 277.530318 
L 431.34593 277.419365 
L 432.34593 277.348707 
L 433.34593 277.235767 
L 434.34593 277.189994 
L 435.34593 277.128711 
L 436.34593 277.080212 
L 437.34593 276.999389 
L 438.34593 276.88087 
L 439.34593 276.810659 
L 440.34593 276.727397 
L 441.34593 276.694255 
L 442.34593 276.643018 
L 443.34593 276.57462 
L 444.34593 276.508404 
L 445.34593 276.431487 
L 446.666183 276.404172 
" clip-path="url(#p283e40e8f2)" style="fill: none; stroke: #ff7f0e; stroke-opacity: 0.5; stroke-width: 0.2; stroke-linecap: square"/>
   </g>
   <g id="line2d_26">
    <path d="M 390.34593 200.240807 
L 391.34593 200.272244 
L 392.34593 200.309184 
L 393.34593 200.406931 
L 394.34593 200.439452 
L 395.34593 200.513077 
L 396.34593 200.551642 
L 397.34593 200.587056 
L 398.34593 200.644695 
L 399.34593 200.715082 
L 400.34593 200.767046 
L 401.34593 200.826136 
L 402.34593 200.914457 
L 403.34593 200.960601 
L 404.34593 201.003012 
L 405.34593 201.033505 
L 406.34593 201.059549 
L 407.34593 201.08075 
L 408.34593 201.135051 
L 409.34593 201.162988 
L 410.34593 201.192712 
L 411.34593 201.218107 
L 412.34593 201.229307 
L 413.34593 201.239431 
L 414.34593 201.239227 
L 415.34593 201.229717 
L 416.34593 201.218064 
L 417.34593 201.187034 
L 418.34593 201.175866 
L 419.34593 201.145749 
L 420.34593 201.085972 
L 421.34593 201.04878 
L 422.34593 201.009684 
L 423.34593 200.967245 
L 424.34593 200.93448 
L 425.34593 200.867053 
L 426.34593 200.827927 
L 427.34593 200.785253 
L 428.34593 200.714672 
L 429.34593 200.678281 
L 430.34593 200.619878 
L 431.34593 200.508925 
L 432.34593 200.438267 
L 433.34593 200.325327 
L 434.34593 200.279554 
L 435.34593 200.218271 
L 436.34593 200.169772 
L 437.34593 200.088949 
L 438.34593 199.97043 
L 439.34593 199.90022 
L 440.34593 199.816957 
L 441.34593 199.783815 
L 442.34593 199.732578 
L 443.34593 199.66418 
L 444.34593 199.597964 
L 445.34593 199.521047 
L 446.666183 199.493732 
" clip-path="url(#p283e40e8f2)" style="fill: none; stroke: #ff7f0e; stroke-opacity: 0.5; stroke-width: 0.2; stroke-linecap: square"/>
   </g>
   <g id="line2d_27">
    <path d="M 390.34593 34.998629 
L 391.34593 35.030066 
L 392.34593 35.067006 
L 393.34593 35.164752 
L 394.34593 35.197274 
L 395.34593 35.270899 
L 396.34593 35.309464 
L 397.34593 35.344878 
L 398.34593 35.402517 
L 399.34593 35.472904 
L 400.34593 35.524868 
L 401.34593 35.583958 
L 402.34593 35.672279 
L 403.34593 35.718423 
L 404.34593 35.760834 
L 405.34593 35.791327 
L 406.34593 35.817371 
L 407.34593 35.838572 
L 408.34593 35.892873 
L 409.34593 35.92081 
L 410.34593 35.950534 
L 411.34593 35.975929 
L 412.34593 35.987129 
L 413.34593 35.997253 
L 414.34593 35.997049 
L 415.34593 35.987539 
L 416.34593 35.975886 
L 417.34593 35.944856 
L 418.34593 35.933688 
L 419.34593 35.903571 
L 420.34593 35.843794 
L 421.34593 35.806602 
L 422.34593 35.767506 
L 423.34593 35.725067 
L 424.34593 35.692302 
L 425.34593 35.624875 
L 426.34593 35.585749 
L 427.34593 35.543075 
L 428.34593 35.472494 
L 429.34593 35.436103 
L 430.34593 35.3777 
L 431.34593 35.266747 
L 432.34593 35.196089 
L 433.34593 35.083149 
L 434.34593 35.037376 
L 435.34593 34.976093 
L 436.34593 34.927594 
L 437.34593 34.846771 
L 438.34593 34.728252 
L 439.34593 34.658042 
L 440.34593 34.574779 
L 441.34593 34.541637 
L 442.34593 34.4904 
L 443.34593 34.422002 
L 444.34593 34.355786 
L 445.34593 34.278869 
L 446.666183 34.251554 
" clip-path="url(#p283e40e8f2)" style="fill: none; stroke: #ff7f0e; stroke-opacity: 0.5; stroke-width: 0.2; stroke-linecap: square"/>
   </g>
   <g id="line2d_28">
    <path d="M 390.34593 239.997582 
L 391.34593 240.029018 
L 392.34593 240.065958 
L 393.34593 240.163705 
L 394.34593 240.196227 
L 395.34593 240.269851 
L 396.34593 240.308417 
L 397.34593 240.34383 
L 398.34593 240.40147 
L 399.34593 240.471856 
L 400.34593 240.52382 
L 401.34593 240.58291 
L 402.34593 240.671231 
L 403.34593 240.717375 
L 404.34593 240.759786 
L 405.34593 240.790279 
L 406.34593 240.816324 
L 407.34593 240.837524 
L 408.34593 240.891825 
L 409.34593 240.919763 
L 410.34593 240.949487 
L 411.34593 240.974881 
L 412.34593 240.986082 
L 413.34593 240.996206 
L 414.34593 240.996002 
L 415.34593 240.986492 
L 416.34593 240.974838 
L 417.34593 240.943809 
L 418.34593 240.932641 
L 419.34593 240.902523 
L 420.34593 240.842746 
L 421.34593 240.805555 
L 422.34593 240.766459 
L 423.34593 240.724019 
L 424.34593 240.691254 
L 425.34593 240.623828 
L 426.34593 240.584702 
L 427.34593 240.542027 
L 428.34593 240.471447 
L 429.34593 240.435056 
L 430.34593 240.376652 
L 431.34593 240.2657 
L 432.34593 240.195042 
L 433.34593 240.082102 
L 434.34593 240.036329 
L 435.34593 239.975046 
L 436.34593 239.926546 
L 437.34593 239.845724 
L 438.34593 239.727205 
L 439.34593 239.656994 
L 440.34593 239.573732 
L 441.34593 239.54059 
L 442.34593 239.489353 
L 443.34593 239.420954 
L 444.34593 239.354739 
L 445.34593 239.277822 
L 446.666183 239.250506 
" clip-path="url(#p283e40e8f2)" style="fill: none; stroke: #ff7f0e; stroke-opacity: 0.5; stroke-width: 0.2; stroke-linecap: square"/>
   </g>
   <g id="line2d_29">
    <path d="M 390.34593 198.023269 
L 391.34593 198.054705 
L 392.34593 198.091645 
L 393.34593 198.189392 
L 394.34593 198.221913 
L 395.34593 198.295538 
L 396.34593 198.334104 
L 397.34593 198.369517 
L 398.34593 198.427157 
L 399.34593 198.497543 
L 400.34593 198.549507 
L 401.34593 198.608597 
L 402.34593 198.696918 
L 403.34593 198.743062 
L 404.34593 198.785473 
L 405.34593 198.815966 
L 406.34593 198.842011 
L 407.34593 198.863211 
L 408.34593 198.917512 
L 409.34593 198.94545 
L 410.34593 198.975174 
L 411.34593 199.000568 
L 412.34593 199.011769 
L 413.34593 199.021893 
L 414.34593 199.021688 
L 415.34593 199.012178 
L 416.34593 199.000525 
L 417.34593 198.969496 
L 418.34593 198.958328 
L 419.34593 198.92821 
L 420.34593 198.868433 
L 421.34593 198.831242 
L 422.34593 198.792146 
L 423.34593 198.749706 
L 424.34593 198.716941 
L 425.34593 198.649514 
L 426.34593 198.610388 
L 427.34593 198.567714 
L 428.34593 198.497133 
L 429.34593 198.460742 
L 430.34593 198.402339 
L 431.34593 198.291387 
L 432.34593 198.220728 
L 433.34593 198.107789 
L 434.34593 198.062016 
L 435.34593 198.000732 
L 436.34593 197.952233 
L 437.34593 197.87141 
L 438.34593 197.752892 
L 439.34593 197.682681 
L 440.34593 197.599418 
L 441.34593 197.566277 
L 442.34593 197.515039 
L 443.34593 197.446641 
L 444.34593 197.380426 
L 445.34593 197.303509 
L 446.666183 197.276193 
" clip-path="url(#p283e40e8f2)" style="fill: none; stroke: #ff7f0e; stroke-opacity: 0.5; stroke-width: 0.2; stroke-linecap: square"/>
   </g>
   <g id="line2d_30">
    <path d="M 390.34593 37.287784 
L 391.34593 37.31922 
L 392.34593 37.356161 
L 393.34593 37.453907 
L 394.34593 37.486429 
L 395.34593 37.560053 
L 396.34593 37.598619 
L 397.34593 37.634032 
L 398.34593 37.691672 
L 399.34593 37.762058 
L 400.34593 37.814022 
L 401.34593 37.873112 
L 402.34593 37.961433 
L 403.34593 38.007578 
L 404.34593 38.049988 
L 405.34593 38.080481 
L 406.34593 38.106526 
L 407.34593 38.127726 
L 408.34593 38.182027 
L 409.34593 38.209965 
L 410.34593 38.239689 
L 411.34593 38.265084 
L 412.34593 38.276284 
L 413.34593 38.286408 
L 414.34593 38.286204 
L 415.34593 38.276694 
L 416.34593 38.26504 
L 417.34593 38.234011 
L 418.34593 38.222843 
L 419.34593 38.192725 
L 420.34593 38.132949 
L 421.34593 38.095757 
L 422.34593 38.056661 
L 423.34593 38.014221 
L 424.34593 37.981456 
L 425.34593 37.91403 
L 426.34593 37.874904 
L 427.34593 37.832229 
L 428.34593 37.761649 
L 429.34593 37.725258 
L 430.34593 37.666855 
L 431.34593 37.555902 
L 432.34593 37.485244 
L 433.34593 37.372304 
L 434.34593 37.326531 
L 435.34593 37.265248 
L 436.34593 37.216748 
L 437.34593 37.135926 
L 438.34593 37.017407 
L 439.34593 36.947196 
L 440.34593 36.863934 
L 441.34593 36.830792 
L 442.34593 36.779555 
L 443.34593 36.711156 
L 444.34593 36.644941 
L 445.34593 36.568024 
L 446.666183 36.540708 
" clip-path="url(#p283e40e8f2)" style="fill: none; stroke: #ff7f0e; stroke-opacity: 0.5; stroke-width: 0.2; stroke-linecap: square"/>
   </g>
   <g id="line2d_31">
    <path d="M 446.666183 191.568437 
L 445.666183 191.537001 
L 444.666183 191.500061 
L 443.666183 191.402314 
L 442.666183 191.369792 
L 441.666183 191.296168 
L 440.666183 191.257602 
L 439.666183 191.222189 
L 438.666183 191.164549 
L 437.666183 191.094163 
L 436.666183 191.042199 
L 435.666183 190.983109 
L 434.666183 190.894788 
L 433.666183 190.848644 
L 432.666183 190.806233 
L 431.666183 190.77574 
L 430.666183 190.749695 
L 429.666183 190.728495 
L 428.666183 190.674194 
L 427.666183 190.646256 
L 426.666183 190.616532 
L 425.666183 190.591138 
L 424.666183 190.579937 
L 423.666183 190.569813 
L 422.666183 190.570018 
L 421.666183 190.579527 
L 420.666183 190.591181 
L 419.666183 190.62221 
L 418.666183 190.633378 
L 417.666183 190.663496 
L 416.666183 190.723273 
L 415.666183 190.760464 
L 414.666183 190.79956 
L 413.666183 190.842 
L 412.666183 190.874765 
L 411.666183 190.942191 
L 410.666183 190.981317 
L 409.666183 191.023992 
L 408.666183 191.094572 
L 407.666183 191.130963 
L 406.666183 191.189367 
L 405.666183 191.300319 
L 404.666183 191.370977 
L 403.666183 191.483917 
L 402.666183 191.52969 
L 401.666183 191.590973 
L 400.666183 191.639473 
L 399.666183 191.720295 
L 398.666183 191.838814 
L 397.666183 191.909025 
L 396.666183 191.992287 
L 395.666183 192.025429 
L 394.666183 192.076666 
L 393.666183 192.145065 
L 392.666183 192.21128 
L 391.666183 192.288197 
L 390.34593 192.315513 
" clip-path="url(#p283e40e8f2)" style="fill: none; stroke: #2ca02c; stroke-opacity: 0.5; stroke-width: 0.2; stroke-linecap: square"/>
   </g>
   <g id="line2d_32">
    <path d="M 446.666183 139.116435 
L 445.666183 139.084998 
L 444.666183 139.048058 
L 443.666183 138.950311 
L 442.666183 138.91779 
L 441.666183 138.844165 
L 440.666183 138.805599 
L 439.666183 138.770186 
L 438.666183 138.712546 
L 437.666183 138.64216 
L 436.666183 138.590196 
L 435.666183 138.531106 
L 434.666183 138.442785 
L 433.666183 138.396641 
L 432.666183 138.35423 
L 431.666183 138.323737 
L 430.666183 138.297692 
L 429.666183 138.276492 
L 428.666183 138.222191 
L 427.666183 138.194254 
L 426.666183 138.16453 
L 425.666183 138.139135 
L 424.666183 138.127934 
L 423.666183 138.11781 
L 422.666183 138.118015 
L 421.666183 138.127525 
L 420.666183 138.139178 
L 419.666183 138.170207 
L 418.666183 138.181375 
L 417.666183 138.211493 
L 416.666183 138.27127 
L 415.666183 138.308461 
L 414.666183 138.347557 
L 413.666183 138.389997 
L 412.666183 138.422762 
L 411.666183 138.490189 
L 410.666183 138.529315 
L 409.666183 138.571989 
L 408.666183 138.64257 
L 407.666183 138.678961 
L 406.666183 138.737364 
L 405.666183 138.848316 
L 404.666183 138.918975 
L 403.666183 139.031914 
L 402.666183 139.077687 
L 401.666183 139.138971 
L 400.666183 139.18747 
L 399.666183 139.268293 
L 398.666183 139.386812 
L 397.666183 139.457022 
L 396.666183 139.540285 
L 395.666183 139.573426 
L 394.666183 139.624664 
L 393.666183 139.693062 
L 392.666183 139.759278 
L 391.666183 139.836195 
L 390.34593 139.86351 
" clip-path="url(#p283e40e8f2)" style="fill: none; stroke: #2ca02c; stroke-opacity: 0.5; stroke-width: 0.2; stroke-linecap: square"/>
   </g>
   <g id="line2d_33">
    <path d="M 446.666183 195.659447 
L 445.666183 195.62801 
L 444.666183 195.59107 
L 443.666183 195.493323 
L 442.666183 195.460802 
L 441.666183 195.387177 
L 440.666183 195.348611 
L 439.666183 195.313198 
L 438.666183 195.255558 
L 437.666183 195.185172 
L 436.666183 195.133208 
L 435.666183 195.074118 
L 434.666183 194.985797 
L 433.666183 194.939653 
L 432.666183 194.897242 
L 431.666183 194.866749 
L 430.666183 194.840704 
L 429.666183 194.819504 
L 428.666183 194.765203 
L 427.666183 194.737266 
L 426.666183 194.707542 
L 425.666183 194.682147 
L 424.666183 194.670946 
L 423.666183 194.660823 
L 422.666183 194.661027 
L 421.666183 194.670537 
L 420.666183 194.68219 
L 419.666183 194.71322 
L 418.666183 194.724387 
L 417.666183 194.754505 
L 416.666183 194.814282 
L 415.666183 194.851473 
L 414.666183 194.89057 
L 413.666183 194.933009 
L 412.666183 194.965774 
L 411.666183 195.033201 
L 410.666183 195.072327 
L 409.666183 195.115001 
L 408.666183 195.185582 
L 407.666183 195.221973 
L 406.666183 195.280376 
L 405.666183 195.391328 
L 404.666183 195.461987 
L 403.666183 195.574927 
L 402.666183 195.620699 
L 401.666183 195.681983 
L 400.666183 195.730482 
L 399.666183 195.811305 
L 398.666183 195.929824 
L 397.666183 196.000034 
L 396.666183 196.083297 
L 395.666183 196.116439 
L 394.666183 196.167676 
L 393.666183 196.236074 
L 392.666183 196.30229 
L 391.666183 196.379207 
L 390.34593 196.406522 
" clip-path="url(#p283e40e8f2)" style="fill: none; stroke: #2ca02c; stroke-opacity: 0.5; stroke-width: 0.2; stroke-linecap: square"/>
   </g>
   <g id="line2d_34">
    <path d="M 446.666183 127.290355 
L 445.666183 127.258918 
L 444.666183 127.221978 
L 443.666183 127.124231 
L 442.666183 127.09171 
L 441.666183 127.018085 
L 440.666183 126.979519 
L 439.666183 126.944106 
L 438.666183 126.886466 
L 437.666183 126.81608 
L 436.666183 126.764116 
L 435.666183 126.705026 
L 434.666183 126.616705 
L 433.666183 126.570561 
L 432.666183 126.52815 
L 431.666183 126.497657 
L 430.666183 126.471612 
L 429.666183 126.450412 
L 428.666183 126.396111 
L 427.666183 126.368173 
L 426.666183 126.33845 
L 425.666183 126.313055 
L 424.666183 126.301854 
L 423.666183 126.29173 
L 422.666183 126.291935 
L 421.666183 126.301445 
L 420.666183 126.313098 
L 419.666183 126.344127 
L 418.666183 126.355295 
L 417.666183 126.385413 
L 416.666183 126.44519 
L 415.666183 126.482381 
L 414.666183 126.521477 
L 413.666183 126.563917 
L 412.666183 126.596682 
L 411.666183 126.664109 
L 410.666183 126.703235 
L 409.666183 126.745909 
L 408.666183 126.81649 
L 407.666183 126.852881 
L 406.666183 126.911284 
L 405.666183 127.022236 
L 404.666183 127.092895 
L 403.666183 127.205834 
L 402.666183 127.251607 
L 401.666183 127.312891 
L 400.666183 127.36139 
L 399.666183 127.442213 
L 398.666183 127.560732 
L 397.666183 127.630942 
L 396.666183 127.714205 
L 395.666183 127.747346 
L 394.666183 127.798584 
L 393.666183 127.866982 
L 392.666183 127.933197 
L 391.666183 128.010115 
L 390.34593 128.03743 
" clip-path="url(#p283e40e8f2)" style="fill: none; stroke: #2ca02c; stroke-opacity: 0.5; stroke-width: 0.2; stroke-linecap: square"/>
   </g>
   <g id="line2d_35">
    <path d="M 446.666183 49.179659 
L 445.666183 49.148222 
L 444.666183 49.111282 
L 443.666183 49.013535 
L 442.666183 48.981014 
L 441.666183 48.907389 
L 440.666183 48.868823 
L 439.666183 48.83341 
L 438.666183 48.77577 
L 437.666183 48.705384 
L 436.666183 48.65342 
L 435.666183 48.59433 
L 434.666183 48.506009 
L 433.666183 48.459865 
L 432.666183 48.417454 
L 431.666183 48.386961 
L 430.666183 48.360916 
L 429.666183 48.339716 
L 428.666183 48.285415 
L 427.666183 48.257478 
L 426.666183 48.227754 
L 425.666183 48.202359 
L 424.666183 48.191158 
L 423.666183 48.181034 
L 422.666183 48.181239 
L 421.666183 48.190749 
L 420.666183 48.202402 
L 419.666183 48.233431 
L 418.666183 48.244599 
L 417.666183 48.274717 
L 416.666183 48.334494 
L 415.666183 48.371685 
L 414.666183 48.410781 
L 413.666183 48.453221 
L 412.666183 48.485986 
L 411.666183 48.553413 
L 410.666183 48.592539 
L 409.666183 48.635213 
L 408.666183 48.705794 
L 407.666183 48.742185 
L 406.666183 48.800588 
L 405.666183 48.91154 
L 404.666183 48.982199 
L 403.666183 49.095138 
L 402.666183 49.140911 
L 401.666183 49.202195 
L 400.666183 49.250694 
L 399.666183 49.331517 
L 398.666183 49.450036 
L 397.666183 49.520246 
L 396.666183 49.603509 
L 395.666183 49.63665 
L 394.666183 49.687888 
L 393.666183 49.756286 
L 392.666183 49.822502 
L 391.666183 49.899419 
L 390.34593 49.926734 
" clip-path="url(#p283e40e8f2)" style="fill: none; stroke: #2ca02c; stroke-opacity: 0.5; stroke-width: 0.2; stroke-linecap: square"/>
   </g>
   <g id="line2d_36">
    <path d="M 446.666183 199.884129 
L 445.666183 199.852692 
L 444.666183 199.815752 
L 443.666183 199.718005 
L 442.666183 199.685484 
L 441.666183 199.611859 
L 440.666183 199.573293 
L 439.666183 199.53788 
L 438.666183 199.48024 
L 437.666183 199.409854 
L 436.666183 199.35789 
L 435.666183 199.2988 
L 434.666183 199.210479 
L 433.666183 199.164335 
L 432.666183 199.121924 
L 431.666183 199.091431 
L 430.666183 199.065386 
L 429.666183 199.044186 
L 428.666183 198.989885 
L 427.666183 198.961948 
L 426.666183 198.932224 
L 425.666183 198.906829 
L 424.666183 198.895628 
L 423.666183 198.885505 
L 422.666183 198.885709 
L 421.666183 198.895219 
L 420.666183 198.906872 
L 419.666183 198.937902 
L 418.666183 198.949069 
L 417.666183 198.979187 
L 416.666183 199.038964 
L 415.666183 199.076155 
L 414.666183 199.115252 
L 413.666183 199.157691 
L 412.666183 199.190456 
L 411.666183 199.257883 
L 410.666183 199.297009 
L 409.666183 199.339683 
L 408.666183 199.410264 
L 407.666183 199.446655 
L 406.666183 199.505058 
L 405.666183 199.61601 
L 404.666183 199.686669 
L 403.666183 199.799609 
L 402.666183 199.845381 
L 401.666183 199.906665 
L 400.666183 199.955164 
L 399.666183 200.035987 
L 398.666183 200.154506 
L 397.666183 200.224716 
L 396.666183 200.307979 
L 395.666183 200.341121 
L 394.666183 200.392358 
L 393.666183 200.460756 
L 392.666183 200.526972 
L 391.666183 200.603889 
L 390.34593 200.631204 
" clip-path="url(#p283e40e8f2)" style="fill: none; stroke: #2ca02c; stroke-opacity: 0.5; stroke-width: 0.2; stroke-linecap: square"/>
   </g>
   <g id="line2d_37">
    <path d="M 446.666183 225.183889 
L 445.666183 225.152452 
L 444.666183 225.115512 
L 443.666183 225.017765 
L 442.666183 224.985244 
L 441.666183 224.911619 
L 440.666183 224.873054 
L 439.666183 224.83764 
L 438.666183 224.78 
L 437.666183 224.709614 
L 436.666183 224.65765 
L 435.666183 224.59856 
L 434.666183 224.510239 
L 433.666183 224.464095 
L 432.666183 224.421684 
L 431.666183 224.391191 
L 430.666183 224.365146 
L 429.666183 224.343946 
L 428.666183 224.289645 
L 427.666183 224.261708 
L 426.666183 224.231984 
L 425.666183 224.206589 
L 424.666183 224.195389 
L 423.666183 224.185265 
L 422.666183 224.185469 
L 421.666183 224.194979 
L 420.666183 224.206632 
L 419.666183 224.237662 
L 418.666183 224.24883 
L 417.666183 224.278947 
L 416.666183 224.338724 
L 415.666183 224.375916 
L 414.666183 224.415012 
L 413.666183 224.457451 
L 412.666183 224.490216 
L 411.666183 224.557643 
L 410.666183 224.596769 
L 409.666183 224.639443 
L 408.666183 224.710024 
L 407.666183 224.746415 
L 406.666183 224.804818 
L 405.666183 224.915771 
L 404.666183 224.986429 
L 403.666183 225.099369 
L 402.666183 225.145142 
L 401.666183 225.206425 
L 400.666183 225.254924 
L 399.666183 225.335747 
L 398.666183 225.454266 
L 397.666183 225.524476 
L 396.666183 225.607739 
L 395.666183 225.640881 
L 394.666183 225.692118 
L 393.666183 225.760516 
L 392.666183 225.826732 
L 391.666183 225.903649 
L 390.34593 225.930964 
" clip-path="url(#p283e40e8f2)" style="fill: none; stroke: #2ca02c; stroke-opacity: 0.5; stroke-width: 0.2; stroke-linecap: square"/>
   </g>
   <g id="line2d_38">
    <path d="M 446.666183 150.050781 
L 445.666183 150.019344 
L 444.666183 149.982404 
L 443.666183 149.884657 
L 442.666183 149.852136 
L 441.666183 149.778511 
L 440.666183 149.739946 
L 439.666183 149.704532 
L 438.666183 149.646893 
L 437.666183 149.576506 
L 436.666183 149.524542 
L 435.666183 149.465452 
L 434.666183 149.377131 
L 433.666183 149.330987 
L 432.666183 149.288576 
L 431.666183 149.258083 
L 430.666183 149.232039 
L 429.666183 149.210838 
L 428.666183 149.156537 
L 427.666183 149.1286 
L 426.666183 149.098876 
L 425.666183 149.073481 
L 424.666183 149.062281 
L 423.666183 149.052157 
L 422.666183 149.052361 
L 421.666183 149.061871 
L 420.666183 149.073524 
L 419.666183 149.104554 
L 418.666183 149.115722 
L 417.666183 149.145839 
L 416.666183 149.205616 
L 415.666183 149.242808 
L 414.666183 149.281904 
L 413.666183 149.324343 
L 412.666183 149.357108 
L 411.666183 149.424535 
L 410.666183 149.463661 
L 409.666183 149.506335 
L 408.666183 149.576916 
L 407.666183 149.613307 
L 406.666183 149.67171 
L 405.666183 149.782663 
L 404.666183 149.853321 
L 403.666183 149.966261 
L 402.666183 150.012034 
L 401.666183 150.073317 
L 400.666183 150.121816 
L 399.666183 150.202639 
L 398.666183 150.321158 
L 397.666183 150.391368 
L 396.666183 150.474631 
L 395.666183 150.507773 
L 394.666183 150.55901 
L 393.666183 150.627408 
L 392.666183 150.693624 
L 391.666183 150.770541 
L 390.34593 150.797856 
" clip-path="url(#p283e40e8f2)" style="fill: none; stroke: #2ca02c; stroke-opacity: 0.5; stroke-width: 0.2; stroke-linecap: square"/>
   </g>
   <g id="line2d_39">
    <path d="M 446.666183 97.933023 
L 445.666183 97.901586 
L 444.666183 97.864646 
L 443.666183 97.7669 
L 442.666183 97.734378 
L 441.666183 97.660753 
L 440.666183 97.622188 
L 439.666183 97.586775 
L 438.666183 97.529135 
L 437.666183 97.458748 
L 436.666183 97.406784 
L 435.666183 97.347694 
L 434.666183 97.259373 
L 433.666183 97.213229 
L 432.666183 97.170818 
L 431.666183 97.140326 
L 430.666183 97.114281 
L 429.666183 97.09308 
L 428.666183 97.038779 
L 427.666183 97.010842 
L 426.666183 96.981118 
L 425.666183 96.955723 
L 424.666183 96.944523 
L 423.666183 96.934399 
L 422.666183 96.934603 
L 421.666183 96.944113 
L 420.666183 96.955766 
L 419.666183 96.986796 
L 418.666183 96.997964 
L 417.666183 97.028081 
L 416.666183 97.087858 
L 415.666183 97.12505 
L 414.666183 97.164146 
L 413.666183 97.206585 
L 412.666183 97.239351 
L 411.666183 97.306777 
L 410.666183 97.345903 
L 409.666183 97.388577 
L 408.666183 97.459158 
L 407.666183 97.495549 
L 406.666183 97.553952 
L 405.666183 97.664905 
L 404.666183 97.735563 
L 403.666183 97.848503 
L 402.666183 97.894276 
L 401.666183 97.955559 
L 400.666183 98.004058 
L 399.666183 98.084881 
L 398.666183 98.2034 
L 397.666183 98.27361 
L 396.666183 98.356873 
L 395.666183 98.390015 
L 394.666183 98.441252 
L 393.666183 98.50965 
L 392.666183 98.575866 
L 391.666183 98.652783 
L 390.34593 98.680098 
" clip-path="url(#p283e40e8f2)" style="fill: none; stroke: #2ca02c; stroke-opacity: 0.5; stroke-width: 0.2; stroke-linecap: square"/>
   </g>
   <g id="line2d_40">
    <path d="M 446.666183 240.151359 
L 445.666183 240.119923 
L 444.666183 240.082982 
L 443.666183 239.985236 
L 442.666183 239.952714 
L 441.666183 239.879089 
L 440.666183 239.840524 
L 439.666183 239.805111 
L 438.666183 239.747471 
L 437.666183 239.677085 
L 436.666183 239.62512 
L 435.666183 239.566031 
L 434.666183 239.47771 
L 433.666183 239.431565 
L 432.666183 239.389154 
L 431.666183 239.358662 
L 430.666183 239.332617 
L 429.666183 239.311417 
L 428.666183 239.257116 
L 427.666183 239.229178 
L 426.666183 239.199454 
L 425.666183 239.174059 
L 424.666183 239.162859 
L 423.666183 239.152735 
L 422.666183 239.152939 
L 421.666183 239.162449 
L 420.666183 239.174103 
L 419.666183 239.205132 
L 418.666183 239.2163 
L 417.666183 239.246417 
L 416.666183 239.306194 
L 415.666183 239.343386 
L 414.666183 239.382482 
L 413.666183 239.424922 
L 412.666183 239.457687 
L 411.666183 239.525113 
L 410.666183 239.564239 
L 409.666183 239.606914 
L 408.666183 239.677494 
L 407.666183 239.713885 
L 406.666183 239.772288 
L 405.666183 239.883241 
L 404.666183 239.953899 
L 403.666183 240.066839 
L 402.666183 240.112612 
L 401.666183 240.173895 
L 400.666183 240.222394 
L 399.666183 240.303217 
L 398.666183 240.421736 
L 397.666183 240.491947 
L 396.666183 240.575209 
L 395.666183 240.608351 
L 394.666183 240.659588 
L 393.666183 240.727987 
L 392.666183 240.794202 
L 391.666183 240.871119 
L 390.34593 240.898434 
" clip-path="url(#p283e40e8f2)" style="fill: none; stroke: #2ca02c; stroke-opacity: 0.5; stroke-width: 0.2; stroke-linecap: square"/>
   </g>
   <g id="patch_3">
    <path d="M 72.103551 22.318125 
L 72.103551 318.021875 
M 194.769098 22.318125 
L 194.769098 318.021875 
" clip-path="url(#p283e40e8f2)" style="fill: none; stroke: #ffffff; stroke-width: 3; stroke-linejoin: miter"/>
    <path d="M 72.103551 22.318125 
L 72.103551 318.021875 
M 194.769098 22.318125 
L 194.769098 318.021875 
" clip-path="url(#p283e40e8f2)" style="fill: none; stroke: #1f77b4; stroke-linejoin: miter"/>
   </g>
   <g id="FillBetweenPolyCollection_1">
    <path d="M 194.769098 22.318125 
L 72.103551 22.318125 
L 72.103551 318.021875 
L 194.769098 318.021875 
L 194.769098 318.021875 
L 194.769098 22.318125 
z
" clip-path="url(#p283e40e8f2)" style="fill: #1f77b4; fill-opacity: 0.5"/>
   </g>
   <g id="patch_4">
    <path d="M 262.150039 22.318125 
L 262.150039 318.021875 
M 384.815586 22.318125 
L 384.815586 318.021875 
" clip-path="url(#p283e40e8f2)" style="fill: none; stroke: #ffffff; stroke-width: 3; stroke-linejoin: miter"/>
    <path d="M 262.150039 22.318125 
L 262.150039 318.021875 
M 384.815586 22.318125 
L 384.815586 318.021875 
" clip-path="url(#p283e40e8f2)" style="fill: none; stroke: #ff7f0e; stroke-linejoin: miter"/>
   </g>
   <g id="FillBetweenPolyCollection_2">
    <path d="M 384.815586 22.318125 
L 262.150039 22.318125 
L 262.150039 318.021875 
L 384.815586 318.021875 
L 384.815586 318.021875 
L 384.815586 22.318125 
z
" clip-path="url(#p283e40e8f2)" style="fill: #ff7f0e; fill-opacity: 0.5"/>
   </g>
   <g id="patch_5">
    <path d="M 452.196527 22.318125 
L 452.196527 318.021875 
M 574.862074 22.318125 
L 574.862074 318.021875 
" clip-path="url(#p283e40e8f2)" style="fill: none; stroke: #ffffff; stroke-width: 3; stroke-linejoin: miter"/>
    <path d="M 452.196527 22.318125 
L 452.196527 318.021875 
M 574.862074 22.318125 
L 574.862074 318.021875 
" clip-path="url(#p283e40e8f2)" style="fill: none; stroke: #2ca02c; stroke-linejoin: miter"/>
   </g>
   <g id="FillBetweenPolyCollection_3">
    <path d="M 574.862074 22.318125 
L 452.196527 22.318125 
L 452.196527 318.021875 
L 574.862074 318.021875 
L 574.862074 318.021875 
L 574.862074 22.318125 
z
" clip-path="url(#p283e40e8f2)" style="fill: #2ca02c; fill-opacity: 0.5"/>
   </g>
   <g id="matplotlib.axis_1">
    <g id="xtick_1">
     <g id="line2d_41"/>
     <g id="text_1">
      <!-- deme1 -->
      <g transform="translate(116.057418 329.120312) scale(0.1 -0.1)">
       <defs>
        <path id="DejaVuSans-64" d="M 2906 2969 
L 2906 4863 
L 3481 4863 
L 3481 0 
L 2906 0 
L 2906 525 
Q 2725 213 2448 61 
Q 2172 -91 1784 -91 
Q 1150 -91 751 415 
Q 353 922 353 1747 
Q 353 2572 751 3078 
Q 1150 3584 1784 3584 
Q 2172 3584 2448 3432 
Q 2725 3281 2906 2969 
z
M 947 1747 
Q 947 1113 1208 752 
Q 1469 391 1925 391 
Q 2381 391 2643 752 
Q 2906 1113 2906 1747 
Q 2906 2381 2643 2742 
Q 2381 3103 1925 3103 
Q 1469 3103 1208 2742 
Q 947 2381 947 1747 
z
" transform="scale(0.015625)"/>
        <path id="DejaVuSans-65" d="M 3597 1894 
L 3597 1613 
L 953 1613 
Q 991 1019 1311 708 
Q 1631 397 2203 397 
Q 2534 397 2845 478 
Q 3156 559 3463 722 
L 3463 178 
Q 3153 47 2828 -22 
Q 2503 -91 2169 -91 
Q 1331 -91 842 396 
Q 353 884 353 1716 
Q 353 2575 817 3079 
Q 1281 3584 2069 3584 
Q 2775 3584 3186 3129 
Q 3597 2675 3597 1894 
z
M 3022 2063 
Q 3016 2534 2758 2815 
Q 2500 3097 2075 3097 
Q 1594 3097 1305 2825 
Q 1016 2553 972 2059 
L 3022 2063 
z
" transform="scale(0.015625)"/>
        <path id="DejaVuSans-6d" d="M 3328 2828 
Q 3544 3216 3844 3400 
Q 4144 3584 4550 3584 
Q 5097 3584 5394 3201 
Q 5691 2819 5691 2113 
L 5691 0 
L 5113 0 
L 5113 2094 
Q 5113 2597 4934 2840 
Q 4756 3084 4391 3084 
Q 3944 3084 3684 2787 
Q 3425 2491 3425 1978 
L 3425 0 
L 2847 0 
L 2847 2094 
Q 2847 2600 2669 2842 
Q 2491 3084 2119 3084 
Q 1678 3084 1418 2786 
Q 1159 2488 1159 1978 
L 1159 0 
L 581 0 
L 581 3500 
L 1159 3500 
L 1159 2956 
Q 1356 3278 1631 3431 
Q 1906 3584 2284 3584 
Q 2666 3584 2933 3390 
Q 3200 3197 3328 2828 
z
" transform="scale(0.015625)"/>
        <path id="DejaVuSans-31" d="M 794 531 
L 1825 531 
L 1825 4091 
L 703 3866 
L 703 4441 
L 1819 4666 
L 2450 4666 
L 2450 531 
L 3481 531 
L 3481 0 
L 794 0 
L 794 531 
z
" transform="scale(0.015625)"/>
       </defs>
       <use xlink:href="#DejaVuSans-64"/>
       <use xlink:href="#DejaVuSans-65" transform="translate(63.476562 0)"/>
       <use xlink:href="#DejaVuSans-6d" transform="translate(125 0)"/>
       <use xlink:href="#DejaVuSans-65" transform="translate(222.412109 0)"/>
       <use xlink:href="#DejaVuSans-31" transform="translate(283.935547 0)"/>
      </g>
     </g>
    </g>
    <g id="xtick_2">
     <g id="line2d_42"/>
     <g id="text_2">
      <!-- deme2 -->
      <g transform="translate(306.103906 329.120312) scale(0.1 -0.1)">
       <defs>
        <path id="DejaVuSans-32" d="M 1228 531 
L 3431 531 
L 3431 0 
L 469 0 
L 469 531 
Q 828 903 1448 1529 
Q 2069 2156 2228 2338 
Q 2531 2678 2651 2914 
Q 2772 3150 2772 3378 
Q 2772 3750 2511 3984 
Q 2250 4219 1831 4219 
Q 1534 4219 1204 4116 
Q 875 4013 500 3803 
L 500 4441 
Q 881 4594 1212 4672 
Q 1544 4750 1819 4750 
Q 2544 4750 2975 4387 
Q 3406 4025 3406 3419 
Q 3406 3131 3298 2873 
Q 3191 2616 2906 2266 
Q 2828 2175 2409 1742 
Q 1991 1309 1228 531 
z
" transform="scale(0.015625)"/>
       </defs>
       <use xlink:href="#DejaVuSans-64"/>
       <use xlink:href="#DejaVuSans-65" transform="translate(63.476562 0)"/>
       <use xlink:href="#DejaVuSans-6d" transform="translate(125 0)"/>
       <use xlink:href="#DejaVuSans-65" transform="translate(222.412109 0)"/>
       <use xlink:href="#DejaVuSans-32" transform="translate(283.935547 0)"/>
      </g>
     </g>
    </g>
    <g id="xtick_3">
     <g id="line2d_43"/>
     <g id="text_3">
      <!-- deme3 -->
      <g transform="translate(496.150394 329.120312) scale(0.1 -0.1)">
       <defs>
        <path id="DejaVuSans-33" d="M 2597 2516 
Q 3050 2419 3304 2112 
Q 3559 1806 3559 1356 
Q 3559 666 3084 287 
Q 2609 -91 1734 -91 
Q 1441 -91 1130 -33 
Q 819 25 488 141 
L 488 750 
Q 750 597 1062 519 
Q 1375 441 1716 441 
Q 2309 441 2620 675 
Q 2931 909 2931 1356 
Q 2931 1769 2642 2001 
Q 2353 2234 1838 2234 
L 1294 2234 
L 1294 2753 
L 1863 2753 
Q 2328 2753 2575 2939 
Q 2822 3125 2822 3475 
Q 2822 3834 2567 4026 
Q 2313 4219 1838 4219 
Q 1578 4219 1281 4162 
Q 984 4106 628 3988 
L 628 4550 
Q 988 4650 1302 4700 
Q 1616 4750 1894 4750 
Q 2613 4750 3031 4423 
Q 3450 4097 3450 3541 
Q 3450 3153 3228 2886 
Q 3006 2619 2597 2516 
z
" transform="scale(0.015625)"/>
       </defs>
       <use xlink:href="#DejaVuSans-64"/>
       <use xlink:href="#DejaVuSans-65" transform="translate(63.476562 0)"/>
       <use xlink:href="#DejaVuSans-6d" transform="translate(125 0)"/>
       <use xlink:href="#DejaVuSans-65" transform="translate(222.412109 0)"/>
       <use xlink:href="#DejaVuSans-33" transform="translate(283.935547 0)"/>
      </g>
     </g>
    </g>
   </g>
   <g id="matplotlib.axis_2">
    <g id="ytick_1">
     <g id="line2d_44">
      <defs>
       <path id="mba6630dbb3" d="M 0 0 
L -3.5 0 
" style="stroke: #000000; stroke-width: 0.8"/>
      </defs>
      <g>
       <use xlink:href="#mba6630dbb3" x="46.965625" y="318.021875" style="stroke: #000000; stroke-width: 0.8"/>
      </g>
     </g>
     <g id="text_4">
      <!-- 0 -->
      <g transform="translate(33.603125 321.821094) scale(0.1 -0.1)">
       <defs>
        <path id="DejaVuSans-30" d="M 2034 4250 
Q 1547 4250 1301 3770 
Q 1056 3291 1056 2328 
Q 1056 1369 1301 889 
Q 1547 409 2034 409 
Q 2525 409 2770 889 
Q 3016 1369 3016 2328 
Q 3016 3291 2770 3770 
Q 2525 4250 2034 4250 
z
M 2034 4750 
Q 2819 4750 3233 4129 
Q 3647 3509 3647 2328 
Q 3647 1150 3233 529 
Q 2819 -91 2034 -91 
Q 1250 -91 836 529 
Q 422 1150 422 2328 
Q 422 3509 836 4129 
Q 1250 4750 2034 4750 
z
" transform="scale(0.015625)"/>
       </defs>
       <use xlink:href="#DejaVuSans-30"/>
      </g>
     </g>
    </g>
    <g id="ytick_2">
     <g id="line2d_45">
      <g>
       <use xlink:href="#mba6630dbb3" x="46.965625" y="265.684928" style="stroke: #000000; stroke-width: 0.8"/>
      </g>
     </g>
     <g id="text_5">
      <!-- 20 -->
      <g transform="translate(27.240625 269.484147) scale(0.1 -0.1)">
       <use xlink:href="#DejaVuSans-32"/>
       <use xlink:href="#DejaVuSans-30" transform="translate(63.623047 0)"/>
      </g>
     </g>
    </g>
    <g id="ytick_3">
     <g id="line2d_46">
      <g>
       <use xlink:href="#mba6630dbb3" x="46.965625" y="213.347981" style="stroke: #000000; stroke-width: 0.8"/>
      </g>
     </g>
     <g id="text_6">
      <!-- 40 -->
      <g transform="translate(27.240625 217.1472) scale(0.1 -0.1)">
       <defs>
        <path id="DejaVuSans-34" d="M 2419 4116 
L 825 1625 
L 2419 1625 
L 2419 4116 
z
M 2253 4666 
L 3047 4666 
L 3047 1625 
L 3713 1625 
L 3713 1100 
L 3047 1100 
L 3047 0 
L 2419 0 
L 2419 1100 
L 313 1100 
L 313 1709 
L 2253 4666 
z
" transform="scale(0.015625)"/>
       </defs>
       <use xlink:href="#DejaVuSans-34"/>
       <use xlink:href="#DejaVuSans-30" transform="translate(63.623047 0)"/>
      </g>
     </g>
    </g>
    <g id="ytick_4">
     <g id="line2d_47">
      <g>
       <use xlink:href="#mba6630dbb3" x="46.965625" y="161.011034" style="stroke: #000000; stroke-width: 0.8"/>
      </g>
     </g>
     <g id="text_7">
      <!-- 60 -->
      <g transform="translate(27.240625 164.810253) scale(0.1 -0.1)">
       <defs>
        <path id="DejaVuSans-36" d="M 2113 2584 
Q 1688 2584 1439 2293 
Q 1191 2003 1191 1497 
Q 1191 994 1439 701 
Q 1688 409 2113 409 
Q 2538 409 2786 701 
Q 3034 994 3034 1497 
Q 3034 2003 2786 2293 
Q 2538 2584 2113 2584 
z
M 3366 4563 
L 3366 3988 
Q 3128 4100 2886 4159 
Q 2644 4219 2406 4219 
Q 1781 4219 1451 3797 
Q 1122 3375 1075 2522 
Q 1259 2794 1537 2939 
Q 1816 3084 2150 3084 
Q 2853 3084 3261 2657 
Q 3669 2231 3669 1497 
Q 3669 778 3244 343 
Q 2819 -91 2113 -91 
Q 1303 -91 875 529 
Q 447 1150 447 2328 
Q 447 3434 972 4092 
Q 1497 4750 2381 4750 
Q 2619 4750 2861 4703 
Q 3103 4656 3366 4563 
z
" transform="scale(0.015625)"/>
       </defs>
       <use xlink:href="#DejaVuSans-36"/>
       <use xlink:href="#DejaVuSans-30" transform="translate(63.623047 0)"/>
      </g>
     </g>
    </g>
    <g id="ytick_5">
     <g id="line2d_48">
      <g>
       <use xlink:href="#mba6630dbb3" x="46.965625" y="108.674087" style="stroke: #000000; stroke-width: 0.8"/>
      </g>
     </g>
     <g id="text_8">
      <!-- 80 -->
      <g transform="translate(27.240625 112.473306) scale(0.1 -0.1)">
       <defs>
        <path id="DejaVuSans-38" d="M 2034 2216 
Q 1584 2216 1326 1975 
Q 1069 1734 1069 1313 
Q 1069 891 1326 650 
Q 1584 409 2034 409 
Q 2484 409 2743 651 
Q 3003 894 3003 1313 
Q 3003 1734 2745 1975 
Q 2488 2216 2034 2216 
z
M 1403 2484 
Q 997 2584 770 2862 
Q 544 3141 544 3541 
Q 544 4100 942 4425 
Q 1341 4750 2034 4750 
Q 2731 4750 3128 4425 
Q 3525 4100 3525 3541 
Q 3525 3141 3298 2862 
Q 3072 2584 2669 2484 
Q 3125 2378 3379 2068 
Q 3634 1759 3634 1313 
Q 3634 634 3220 271 
Q 2806 -91 2034 -91 
Q 1263 -91 848 271 
Q 434 634 434 1313 
Q 434 1759 690 2068 
Q 947 2378 1403 2484 
z
M 1172 3481 
Q 1172 3119 1398 2916 
Q 1625 2713 2034 2713 
Q 2441 2713 2670 2916 
Q 2900 3119 2900 3481 
Q 2900 3844 2670 4047 
Q 2441 4250 2034 4250 
Q 1625 4250 1398 4047 
Q 1172 3844 1172 3481 
z
" transform="scale(0.015625)"/>
       </defs>
       <use xlink:href="#DejaVuSans-38"/>
       <use xlink:href="#DejaVuSans-30" transform="translate(63.623047 0)"/>
      </g>
     </g>
    </g>
    <g id="ytick_6">
     <g id="line2d_49">
      <g>
       <use xlink:href="#mba6630dbb3" x="46.965625" y="56.33714" style="stroke: #000000; stroke-width: 0.8"/>
      </g>
     </g>
     <g id="text_9">
      <!-- 100 -->
      <g transform="translate(20.878125 60.136359) scale(0.1 -0.1)">
       <use xlink:href="#DejaVuSans-31"/>
       <use xlink:href="#DejaVuSans-30" transform="translate(63.623047 0)"/>
       <use xlink:href="#DejaVuSans-30" transform="translate(127.246094 0)"/>
      </g>
     </g>
    </g>
    <g id="text_10">
     <!-- time ago (years) -->
     <g transform="translate(14.798437 211.603594) rotate(-90) scale(0.1 -0.1)">
      <defs>
       <path id="DejaVuSans-74" d="M 1172 4494 
L 1172 3500 
L 2356 3500 
L 2356 3053 
L 1172 3053 
L 1172 1153 
Q 1172 725 1289 603 
Q 1406 481 1766 481 
L 2356 481 
L 2356 0 
L 1766 0 
Q 1100 0 847 248 
Q 594 497 594 1153 
L 594 3053 
L 172 3053 
L 172 3500 
L 594 3500 
L 594 4494 
L 1172 4494 
z
" transform="scale(0.015625)"/>
       <path id="DejaVuSans-69" d="M 603 3500 
L 1178 3500 
L 1178 0 
L 603 0 
L 603 3500 
z
M 603 4863 
L 1178 4863 
L 1178 4134 
L 603 4134 
L 603 4863 
z
" transform="scale(0.015625)"/>
       <path id="DejaVuSans-20" transform="scale(0.015625)"/>
       <path id="DejaVuSans-61" d="M 2194 1759 
Q 1497 1759 1228 1600 
Q 959 1441 959 1056 
Q 959 750 1161 570 
Q 1363 391 1709 391 
Q 2188 391 2477 730 
Q 2766 1069 2766 1631 
L 2766 1759 
L 2194 1759 
z
M 3341 1997 
L 3341 0 
L 2766 0 
L 2766 531 
Q 2569 213 2275 61 
Q 1981 -91 1556 -91 
Q 1019 -91 701 211 
Q 384 513 384 1019 
Q 384 1609 779 1909 
Q 1175 2209 1959 2209 
L 2766 2209 
L 2766 2266 
Q 2766 2663 2505 2880 
Q 2244 3097 1772 3097 
Q 1472 3097 1187 3025 
Q 903 2953 641 2809 
L 641 3341 
Q 956 3463 1253 3523 
Q 1550 3584 1831 3584 
Q 2591 3584 2966 3190 
Q 3341 2797 3341 1997 
z
" transform="scale(0.015625)"/>
       <path id="DejaVuSans-67" d="M 2906 1791 
Q 2906 2416 2648 2759 
Q 2391 3103 1925 3103 
Q 1463 3103 1205 2759 
Q 947 2416 947 1791 
Q 947 1169 1205 825 
Q 1463 481 1925 481 
Q 2391 481 2648 825 
Q 2906 1169 2906 1791 
z
M 3481 434 
Q 3481 -459 3084 -895 
Q 2688 -1331 1869 -1331 
Q 1566 -1331 1297 -1286 
Q 1028 -1241 775 -1147 
L 775 -588 
Q 1028 -725 1275 -790 
Q 1522 -856 1778 -856 
Q 2344 -856 2625 -561 
Q 2906 -266 2906 331 
L 2906 616 
Q 2728 306 2450 153 
Q 2172 0 1784 0 
Q 1141 0 747 490 
Q 353 981 353 1791 
Q 353 2603 747 3093 
Q 1141 3584 1784 3584 
Q 2172 3584 2450 3431 
Q 2728 3278 2906 2969 
L 2906 3500 
L 3481 3500 
L 3481 434 
z
" transform="scale(0.015625)"/>
       <path id="DejaVuSans-6f" d="M 1959 3097 
Q 1497 3097 1228 2736 
Q 959 2375 959 1747 
Q 959 1119 1226 758 
Q 1494 397 1959 397 
Q 2419 397 2687 759 
Q 2956 1122 2956 1747 
Q 2956 2369 2687 2733 
Q 2419 3097 1959 3097 
z
M 1959 3584 
Q 2709 3584 3137 3096 
Q 3566 2609 3566 1747 
Q 3566 888 3137 398 
Q 2709 -91 1959 -91 
Q 1206 -91 779 398 
Q 353 888 353 1747 
Q 353 2609 779 3096 
Q 1206 3584 1959 3584 
z
" transform="scale(0.015625)"/>
       <path id="DejaVuSans-28" d="M 1984 4856 
Q 1566 4138 1362 3434 
Q 1159 2731 1159 2009 
Q 1159 1288 1364 580 
Q 1569 -128 1984 -844 
L 1484 -844 
Q 1016 -109 783 600 
Q 550 1309 550 2009 
Q 550 2706 781 3412 
Q 1013 4119 1484 4856 
L 1984 4856 
z
" transform="scale(0.015625)"/>
       <path id="DejaVuSans-79" d="M 2059 -325 
Q 1816 -950 1584 -1140 
Q 1353 -1331 966 -1331 
L 506 -1331 
L 506 -850 
L 844 -850 
Q 1081 -850 1212 -737 
Q 1344 -625 1503 -206 
L 1606 56 
L 191 3500 
L 800 3500 
L 1894 763 
L 2988 3500 
L 3597 3500 
L 2059 -325 
z
" transform="scale(0.015625)"/>
       <path id="DejaVuSans-72" d="M 2631 2963 
Q 2534 3019 2420 3045 
Q 2306 3072 2169 3072 
Q 1681 3072 1420 2755 
Q 1159 2438 1159 1844 
L 1159 0 
L 581 0 
L 581 3500 
L 1159 3500 
L 1159 2956 
Q 1341 3275 1631 3429 
Q 1922 3584 2338 3584 
Q 2397 3584 2469 3576 
Q 2541 3569 2628 3553 
L 2631 2963 
z
" transform="scale(0.015625)"/>
       <path id="DejaVuSans-73" d="M 2834 3397 
L 2834 2853 
Q 2591 2978 2328 3040 
Q 2066 3103 1784 3103 
Q 1356 3103 1142 2972 
Q 928 2841 928 2578 
Q 928 2378 1081 2264 
Q 1234 2150 1697 2047 
L 1894 2003 
Q 2506 1872 2764 1633 
Q 3022 1394 3022 966 
Q 3022 478 2636 193 
Q 2250 -91 1575 -91 
Q 1294 -91 989 -36 
Q 684 19 347 128 
L 347 722 
Q 666 556 975 473 
Q 1284 391 1588 391 
Q 1994 391 2212 530 
Q 2431 669 2431 922 
Q 2431 1156 2273 1281 
Q 2116 1406 1581 1522 
L 1381 1569 
Q 847 1681 609 1914 
Q 372 2147 372 2553 
Q 372 3047 722 3315 
Q 1072 3584 1716 3584 
Q 2034 3584 2315 3537 
Q 2597 3491 2834 3397 
z
" transform="scale(0.015625)"/>
       <path id="DejaVuSans-29" d="M 513 4856 
L 1013 4856 
Q 1481 4119 1714 3412 
Q 1947 2706 1947 2009 
Q 1947 1309 1714 600 
Q 1481 -109 1013 -844 
L 513 -844 
Q 928 -128 1133 580 
Q 1338 1288 1338 2009 
Q 1338 2731 1133 3434 
Q 928 4138 513 4856 
z
" transform="scale(0.015625)"/>
      </defs>
      <use xlink:href="#DejaVuSans-74"/>
      <use xlink:href="#DejaVuSans-69" transform="translate(39.208984 0)"/>
      <use xlink:href="#DejaVuSans-6d" transform="translate(66.992188 0)"/>
      <use xlink:href="#DejaVuSans-65" transform="translate(164.404297 0)"/>
      <use xlink:href="#DejaVuSans-20" transform="translate(225.927734 0)"/>
      <use xlink:href="#DejaVuSans-61" transform="translate(257.714844 0)"/>
      <use xlink:href="#DejaVuSans-67" transform="translate(318.994141 0)"/>
      <use xlink:href="#DejaVuSans-6f" transform="translate(382.470703 0)"/>
      <use xlink:href="#DejaVuSans-20" transform="translate(443.652344 0)"/>
      <use xlink:href="#DejaVuSans-28" transform="translate(475.439453 0)"/>
      <use xlink:href="#DejaVuSans-79" transform="translate(514.453125 0)"/>
      <use xlink:href="#DejaVuSans-65" transform="translate(573.632812 0)"/>
      <use xlink:href="#DejaVuSans-61" transform="translate(635.15625 0)"/>
      <use xlink:href="#DejaVuSans-72" transform="translate(696.435547 0)"/>
      <use xlink:href="#DejaVuSans-73" transform="translate(737.548828 0)"/>
      <use xlink:href="#DejaVuSans-29" transform="translate(789.648438 0)"/>
     </g>
    </g>
   </g>
   <g id="line2d_50">
    <path d="M 257.619695 44.364635 
L 255.619695 43.364635 
L 255.619695 45.364635 
z
" clip-path="url(#p283e40e8f2)" style="fill: #1f77b4; fill-opacity: 0.5; stroke: #1f77b4; stroke-opacity: 0.5; stroke-linejoin: miter"/>
   </g>
   <g id="line2d_51">
    <path d="M 257.619695 198.338504 
L 255.619695 197.338504 
L 255.619695 199.338504 
z
" clip-path="url(#p283e40e8f2)" style="fill: #1f77b4; fill-opacity: 0.5; stroke: #1f77b4; stroke-opacity: 0.5; stroke-linejoin: miter"/>
   </g>
   <g id="line2d_52">
    <path d="M 257.619695 176.865078 
L 255.619695 175.865078 
L 255.619695 177.865078 
z
" clip-path="url(#p283e40e8f2)" style="fill: #1f77b4; fill-opacity: 0.5; stroke: #1f77b4; stroke-opacity: 0.5; stroke-linejoin: miter"/>
   </g>
   <g id="line2d_53">
    <path d="M 257.619695 59.065954 
L 255.619695 58.065954 
L 255.619695 60.065954 
z
" clip-path="url(#p283e40e8f2)" style="fill: #1f77b4; fill-opacity: 0.5; stroke: #1f77b4; stroke-opacity: 0.5; stroke-linejoin: miter"/>
   </g>
   <g id="line2d_54">
    <path d="M 257.619695 50.029901 
L 255.619695 49.029901 
L 255.619695 51.029901 
z
" clip-path="url(#p283e40e8f2)" style="fill: #1f77b4; fill-opacity: 0.5; stroke: #1f77b4; stroke-opacity: 0.5; stroke-linejoin: miter"/>
   </g>
   <g id="line2d_55">
    <path d="M 257.619695 225.358522 
L 255.619695 224.358522 
L 255.619695 226.358522 
z
" clip-path="url(#p283e40e8f2)" style="fill: #1f77b4; fill-opacity: 0.5; stroke: #1f77b4; stroke-opacity: 0.5; stroke-linejoin: miter"/>
   </g>
   <g id="line2d_56">
    <path d="M 257.619695 187.513256 
L 255.619695 186.513256 
L 255.619695 188.513256 
z
" clip-path="url(#p283e40e8f2)" style="fill: #1f77b4; fill-opacity: 0.5; stroke: #1f77b4; stroke-opacity: 0.5; stroke-linejoin: miter"/>
   </g>
   <g id="line2d_57">
    <path d="M 257.619695 90.754632 
L 255.619695 89.754632 
L 255.619695 91.754632 
z
" clip-path="url(#p283e40e8f2)" style="fill: #1f77b4; fill-opacity: 0.5; stroke: #1f77b4; stroke-opacity: 0.5; stroke-linejoin: miter"/>
   </g>
   <g id="line2d_58">
    <path d="M 257.619695 229.545605 
L 255.619695 228.545605 
L 255.619695 230.545605 
z
" clip-path="url(#p283e40e8f2)" style="fill: #1f77b4; fill-opacity: 0.5; stroke: #1f77b4; stroke-opacity: 0.5; stroke-linejoin: miter"/>
   </g>
   <g id="line2d_59">
    <path d="M 257.619695 309.813791 
L 255.619695 308.813791 
L 255.619695 310.813791 
z
" clip-path="url(#p283e40e8f2)" style="fill: #1f77b4; fill-opacity: 0.5; stroke: #1f77b4; stroke-opacity: 0.5; stroke-linejoin: miter"/>
   </g>
   <g id="line2d_60">
    <path d="M 199.299442 277.174413 
L 201.299442 278.174413 
L 201.299442 276.174413 
z
" clip-path="url(#p283e40e8f2)" style="fill: #ff7f0e; fill-opacity: 0.5; stroke: #ff7f0e; stroke-opacity: 0.5; stroke-linejoin: miter"/>
   </g>
   <g id="line2d_61">
    <path d="M 199.299442 43.388702 
L 201.299442 44.388702 
L 201.299442 42.388702 
z
" clip-path="url(#p283e40e8f2)" style="fill: #ff7f0e; fill-opacity: 0.5; stroke: #ff7f0e; stroke-opacity: 0.5; stroke-linejoin: miter"/>
   </g>
   <g id="line2d_62">
    <path d="M 199.299442 289.014261 
L 201.299442 290.014261 
L 201.299442 288.014261 
z
" clip-path="url(#p283e40e8f2)" style="fill: #ff7f0e; fill-opacity: 0.5; stroke: #ff7f0e; stroke-opacity: 0.5; stroke-linejoin: miter"/>
   </g>
   <g id="line2d_63">
    <path d="M 199.299442 277.478014 
L 201.299442 278.478014 
L 201.299442 276.478014 
z
" clip-path="url(#p283e40e8f2)" style="fill: #ff7f0e; fill-opacity: 0.5; stroke: #ff7f0e; stroke-opacity: 0.5; stroke-linejoin: miter"/>
   </g>
   <g id="line2d_64">
    <path d="M 199.299442 129.025189 
L 201.299442 130.025189 
L 201.299442 128.025189 
z
" clip-path="url(#p283e40e8f2)" style="fill: #ff7f0e; fill-opacity: 0.5; stroke: #ff7f0e; stroke-opacity: 0.5; stroke-linejoin: miter"/>
   </g>
   <g id="line2d_65">
    <path d="M 199.299442 25.964677 
L 201.299442 26.964677 
L 201.299442 24.964677 
z
" clip-path="url(#p283e40e8f2)" style="fill: #ff7f0e; fill-opacity: 0.5; stroke: #ff7f0e; stroke-opacity: 0.5; stroke-linejoin: miter"/>
   </g>
   <g id="line2d_66">
    <path d="M 199.299442 55.112918 
L 201.299442 56.112918 
L 201.299442 54.112918 
z
" clip-path="url(#p283e40e8f2)" style="fill: #ff7f0e; fill-opacity: 0.5; stroke: #ff7f0e; stroke-opacity: 0.5; stroke-linejoin: miter"/>
   </g>
   <g id="line2d_67">
    <path d="M 199.299442 50.713922 
L 201.299442 51.713922 
L 201.299442 49.713922 
z
" clip-path="url(#p283e40e8f2)" style="fill: #ff7f0e; fill-opacity: 0.5; stroke: #ff7f0e; stroke-opacity: 0.5; stroke-linejoin: miter"/>
   </g>
   <g id="line2d_68">
    <path d="M 199.299442 238.317002 
L 201.299442 239.317002 
L 201.299442 237.317002 
z
" clip-path="url(#p283e40e8f2)" style="fill: #ff7f0e; fill-opacity: 0.5; stroke: #ff7f0e; stroke-opacity: 0.5; stroke-linejoin: miter"/>
   </g>
   <g id="line2d_69">
    <path d="M 199.299442 46.784394 
L 201.299442 47.784394 
L 201.299442 45.784394 
z
" clip-path="url(#p283e40e8f2)" style="fill: #ff7f0e; fill-opacity: 0.5; stroke: #ff7f0e; stroke-opacity: 0.5; stroke-linejoin: miter"/>
   </g>
   <g id="line2d_70">
    <path d="M 447.666183 266.610028 
L 445.666183 265.610028 
L 445.666183 267.610028 
z
" clip-path="url(#p283e40e8f2)" style="fill: #ff7f0e; fill-opacity: 0.5; stroke: #ff7f0e; stroke-opacity: 0.5; stroke-linejoin: miter"/>
   </g>
   <g id="line2d_71">
    <path d="M 447.666183 304.994879 
L 445.666183 303.994879 
L 445.666183 305.994879 
z
" clip-path="url(#p283e40e8f2)" style="fill: #ff7f0e; fill-opacity: 0.5; stroke: #ff7f0e; stroke-opacity: 0.5; stroke-linejoin: miter"/>
   </g>
   <g id="line2d_72">
    <path d="M 447.666183 183.191156 
L 445.666183 182.191156 
L 445.666183 184.191156 
z
" clip-path="url(#p283e40e8f2)" style="fill: #ff7f0e; fill-opacity: 0.5; stroke: #ff7f0e; stroke-opacity: 0.5; stroke-linejoin: miter"/>
   </g>
   <g id="line2d_73">
    <path d="M 447.666183 120.330582 
L 445.666183 119.330582 
L 445.666183 121.330582 
z
" clip-path="url(#p283e40e8f2)" style="fill: #ff7f0e; fill-opacity: 0.5; stroke: #ff7f0e; stroke-opacity: 0.5; stroke-linejoin: miter"/>
   </g>
   <g id="line2d_74">
    <path d="M 447.666183 277.151247 
L 445.666183 276.151247 
L 445.666183 278.151247 
z
" clip-path="url(#p283e40e8f2)" style="fill: #ff7f0e; fill-opacity: 0.5; stroke: #ff7f0e; stroke-opacity: 0.5; stroke-linejoin: miter"/>
   </g>
   <g id="line2d_75">
    <path d="M 447.666183 200.240807 
L 445.666183 199.240807 
L 445.666183 201.240807 
z
" clip-path="url(#p283e40e8f2)" style="fill: #ff7f0e; fill-opacity: 0.5; stroke: #ff7f0e; stroke-opacity: 0.5; stroke-linejoin: miter"/>
   </g>
   <g id="line2d_76">
    <path d="M 447.666183 34.998629 
L 445.666183 33.998629 
L 445.666183 35.998629 
z
" clip-path="url(#p283e40e8f2)" style="fill: #ff7f0e; fill-opacity: 0.5; stroke: #ff7f0e; stroke-opacity: 0.5; stroke-linejoin: miter"/>
   </g>
   <g id="line2d_77">
    <path d="M 447.666183 239.997582 
L 445.666183 238.997582 
L 445.666183 240.997582 
z
" clip-path="url(#p283e40e8f2)" style="fill: #ff7f0e; fill-opacity: 0.5; stroke: #ff7f0e; stroke-opacity: 0.5; stroke-linejoin: miter"/>
   </g>
   <g id="line2d_78">
    <path d="M 447.666183 198.023269 
L 445.666183 197.023269 
L 445.666183 199.023269 
z
" clip-path="url(#p283e40e8f2)" style="fill: #ff7f0e; fill-opacity: 0.5; stroke: #ff7f0e; stroke-opacity: 0.5; stroke-linejoin: miter"/>
   </g>
   <g id="line2d_79">
    <path d="M 447.666183 37.287784 
L 445.666183 36.287784 
L 445.666183 38.287784 
z
" clip-path="url(#p283e40e8f2)" style="fill: #ff7f0e; fill-opacity: 0.5; stroke: #ff7f0e; stroke-opacity: 0.5; stroke-linejoin: miter"/>
   </g>
   <g id="line2d_80">
    <path d="M 389.34593 191.568437 
L 391.34593 192.568437 
L 391.34593 190.568437 
z
" clip-path="url(#p283e40e8f2)" style="fill: #2ca02c; fill-opacity: 0.5; stroke: #2ca02c; stroke-opacity: 0.5; stroke-linejoin: miter"/>
   </g>
   <g id="line2d_81">
    <path d="M 389.34593 139.116435 
L 391.34593 140.116435 
L 391.34593 138.116435 
z
" clip-path="url(#p283e40e8f2)" style="fill: #2ca02c; fill-opacity: 0.5; stroke: #2ca02c; stroke-opacity: 0.5; stroke-linejoin: miter"/>
   </g>
   <g id="line2d_82">
    <path d="M 389.34593 195.659447 
L 391.34593 196.659447 
L 391.34593 194.659447 
z
" clip-path="url(#p283e40e8f2)" style="fill: #2ca02c; fill-opacity: 0.5; stroke: #2ca02c; stroke-opacity: 0.5; stroke-linejoin: miter"/>
   </g>
   <g id="line2d_83">
    <path d="M 389.34593 127.290355 
L 391.34593 128.290355 
L 391.34593 126.290355 
z
" clip-path="url(#p283e40e8f2)" style="fill: #2ca02c; fill-opacity: 0.5; stroke: #2ca02c; stroke-opacity: 0.5; stroke-linejoin: miter"/>
   </g>
   <g id="line2d_84">
    <path d="M 389.34593 49.179659 
L 391.34593 50.179659 
L 391.34593 48.179659 
z
" clip-path="url(#p283e40e8f2)" style="fill: #2ca02c; fill-opacity: 0.5; stroke: #2ca02c; stroke-opacity: 0.5; stroke-linejoin: miter"/>
   </g>
   <g id="line2d_85">
    <path d="M 389.34593 199.884129 
L 391.34593 200.884129 
L 391.34593 198.884129 
z
" clip-path="url(#p283e40e8f2)" style="fill: #2ca02c; fill-opacity: 0.5; stroke: #2ca02c; stroke-opacity: 0.5; stroke-linejoin: miter"/>
   </g>
   <g id="line2d_86">
    <path d="M 389.34593 225.183889 
L 391.34593 226.183889 
L 391.34593 224.183889 
z
" clip-path="url(#p283e40e8f2)" style="fill: #2ca02c; fill-opacity: 0.5; stroke: #2ca02c; stroke-opacity: 0.5; stroke-linejoin: miter"/>
   </g>
   <g id="line2d_87">
    <path d="M 389.34593 150.050781 
L 391.34593 151.050781 
L 391.34593 149.050781 
z
" clip-path="url(#p283e40e8f2)" style="fill: #2ca02c; fill-opacity: 0.5; stroke: #2ca02c; stroke-opacity: 0.5; stroke-linejoin: miter"/>
   </g>
   <g id="line2d_88">
    <path d="M 389.34593 97.933023 
L 391.34593 98.933023 
L 391.34593 96.933023 
z
" clip-path="url(#p283e40e8f2)" style="fill: #2ca02c; fill-opacity: 0.5; stroke: #2ca02c; stroke-opacity: 0.5; stroke-linejoin: miter"/>
   </g>
   <g id="line2d_89">
    <path d="M 389.34593 240.151359 
L 391.34593 241.151359 
L 391.34593 239.151359 
z
" clip-path="url(#p283e40e8f2)" style="fill: #2ca02c; fill-opacity: 0.5; stroke: #2ca02c; stroke-opacity: 0.5; stroke-linejoin: miter"/>
   </g>
   <g id="patch_6">
    <path d="M 46.965625 318.021875 
L 46.965625 22.318125 
" style="fill: none; stroke: #000000; stroke-width: 0.8; stroke-linejoin: miter; stroke-linecap: square"/>
   </g>
   <g id="text_11">
    <!-- stepping_stone_model.yaml -->
    <g transform="translate(239.443437 16.318125) scale(0.12 -0.12)">
     <defs>
      <path id="DejaVuSans-70" d="M 1159 525 
L 1159 -1331 
L 581 -1331 
L 581 3500 
L 1159 3500 
L 1159 2969 
Q 1341 3281 1617 3432 
Q 1894 3584 2278 3584 
Q 2916 3584 3314 3078 
Q 3713 2572 3713 1747 
Q 3713 922 3314 415 
Q 2916 -91 2278 -91 
Q 1894 -91 1617 61 
Q 1341 213 1159 525 
z
M 3116 1747 
Q 3116 2381 2855 2742 
Q 2594 3103 2138 3103 
Q 1681 3103 1420 2742 
Q 1159 2381 1159 1747 
Q 1159 1113 1420 752 
Q 1681 391 2138 391 
Q 2594 391 2855 752 
Q 3116 1113 3116 1747 
z
" transform="scale(0.015625)"/>
      <path id="DejaVuSans-6e" d="M 3513 2113 
L 3513 0 
L 2938 0 
L 2938 2094 
Q 2938 2591 2744 2837 
Q 2550 3084 2163 3084 
Q 1697 3084 1428 2787 
Q 1159 2491 1159 1978 
L 1159 0 
L 581 0 
L 581 3500 
L 1159 3500 
L 1159 2956 
Q 1366 3272 1645 3428 
Q 1925 3584 2291 3584 
Q 2894 3584 3203 3211 
Q 3513 2838 3513 2113 
z
" transform="scale(0.015625)"/>
      <path id="DejaVuSans-5f" d="M 3263 -1063 
L 3263 -1509 
L -63 -1509 
L -63 -1063 
L 3263 -1063 
z
" transform="scale(0.015625)"/>
      <path id="DejaVuSans-6c" d="M 603 4863 
L 1178 4863 
L 1178 0 
L 603 0 
L 603 4863 
z
" transform="scale(0.015625)"/>
      <path id="DejaVuSans-2e" d="M 684 794 
L 1344 794 
L 1344 0 
L 684 0 
L 684 794 
z
" transform="scale(0.015625)"/>
     </defs>
     <use xlink:href="#DejaVuSans-73"/>
     <use xlink:href="#DejaVuSans-74" transform="translate(52.099609 0)"/>
     <use xlink:href="#DejaVuSans-65" transform="translate(91.308594 0)"/>
     <use xlink:href="#DejaVuSans-70" transform="translate(152.832031 0)"/>
     <use xlink:href="#DejaVuSans-70" transform="translate(216.308594 0)"/>
     <use xlink:href="#DejaVuSans-69" transform="translate(279.785156 0)"/>
     <use xlink:href="#DejaVuSans-6e" transform="translate(307.568359 0)"/>
     <use xlink:href="#DejaVuSans-67" transform="translate(370.947266 0)"/>
     <use xlink:href="#DejaVuSans-5f" transform="translate(434.423828 0)"/>
     <use xlink:href="#DejaVuSans-73" transform="translate(484.423828 0)"/>
     <use xlink:href="#DejaVuSans-74" transform="translate(536.523438 0)"/>
     <use xlink:href="#DejaVuSans-6f" transform="translate(575.732422 0)"/>
     <use xlink:href="#DejaVuSans-6e" transform="translate(636.914062 0)"/>
     <use xlink:href="#DejaVuSans-65" transform="translate(700.292969 0)"/>
     <use xlink:href="#DejaVuSans-5f" transform="translate(761.816406 0)"/>
     <use xlink:href="#DejaVuSans-6d" transform="translate(811.816406 0)"/>
     <use xlink:href="#DejaVuSans-6f" transform="translate(909.228516 0)"/>
     <use xlink:href="#DejaVuSans-64" transform="translate(970.410156 0)"/>
     <use xlink:href="#DejaVuSans-65" transform="translate(1033.886719 0)"/>
     <use xlink:href="#DejaVuSans-6c" transform="translate(1095.410156 0)"/>
     <use xlink:href="#DejaVuSans-2e" transform="translate(1123.193359 0)"/>
     <use xlink:href="#DejaVuSans-79" transform="translate(1154.980469 0)"/>
     <use xlink:href="#DejaVuSans-61" transform="translate(1214.160156 0)"/>
     <use xlink:href="#DejaVuSans-6d" transform="translate(1275.439453 0)"/>
     <use xlink:href="#DejaVuSans-6c" transform="translate(1372.851562 0)"/>
    </g>
   </g>
  </g>
 </g>
 <defs>
  <clipPath id="p283e40e8f2">
   <rect x="46.965625" y="22.318125" width="553.034375" height="295.70375"/>
  </clipPath>
 </defs>
</svg>