<?xml version="1.0" encoding="utf-8" standalone="no"?>
<!DOCTYPE svg PUBLIC "-//W3C//DTD SVG 1.1//EN"
  "http://www.w3.org/Graphics/SVG/1.1/DTD/svg11.dtd">
<svg xmlns:xlink="http://www.w3.org/1999/xlink" width="607.2pt" height="338.4pt" viewBox="0 0 607.2 338.4" xmlns="http://www.w3.org/2000/svg" version="1.1">
 <metadata>
  <rdf:RDF xmlns:dc="http://purl.org/dc/elements/1.1/" xmlns:cc="http://creativecommons.org/ns#" xmlns:rdf="http://www.w3.org/1999/02/22-rdf-syntax-ns#">
   <cc:Work>
    <dc:type rdf:resource="http://purl.org/dc/dcmitype/StillImage"/>
    <dc:date>2026-03-02T08:58:36.835943</dc:date>
    <dc:format>image/svg+xml</dc:format>
    <dc:creator>
     <cc:Agent>
      <dc:title>Matplotlib v3.10.8, https://matplotlib.org/</dc:title>
     </cc:Agent>
    </dc:creator>
   </cc:Work>
  </rdf:RDF>
 </metadata>
 <defs>
  <style type="text/css">*{stroke-linejoin: round; stroke-linecap: butt}</style>
 </defs>
 <g id="figure_1">
  <g id="patch_1">
   <path d="M 0 338.4 
L 607.2 338.4 
L 607.2 0 
L 0 0 
z
" style="fill: #ffffff"/>
  </g>
  <g id="axes_1">
   <g id="patch_2">
    <path d="M 46.965625 318.021875 
L 600 318.021875 
L 600 7.2 
L 46.965625 7.2 
z
" style="fill: #ffffff"/>
   </g>
   <g id="line2d_1">
    <path d="M 200.299443 250.675418 
L 201.299443 250.706854 
L 202.299443 250.743795 
L 203.299443 250.841541 
L 204.299443 250.874063 
L 205.299443 250.947687 
L 206.299443 250.986253 
L 207.299443 251.021666 
L 208.299443 251.079306 
L 209.299443 251.149692 
L 210.299443 251.201657 
L 211.299443 251.260746 
L 212.299443 251.349067 
L 213.299443 251.395212 
L 214.299443 251.437622 
L 215.299443 251.468115 
L 216.299443 251.49416 
L 217.299443 251.51536 
L 218.299443 251.569661 
L 219.299443 251.597599 
L 220.299443 251.627323 
L 221.299443 251.652718 
L 222.299443 251.663918 
L 223.299443 251.674042 
L 224.299443 251.673838 
L 225.299443 251.664328 
L 226.299443 251.652674 
L 227.299443 251.621645 
L 228.299443 251.610477 
L 229.299443 251.580359 
L 230.299443 251.520583 
L 231.299443 251.483391 
L 232.299443 251.444295 
L 233.299443 251.401855 
L 234.299443 251.36909 
L 235.299443 251.301664 
L 236.299443 251.262538 
L 237.299443 251.219863 
L 238.299443 251.149283 
L 239.299443 251.112892 
L 240.299443 251.054489 
L 241.299443 250.943536 
L 242.299443 250.872878 
L 243.299443 250.759938 
L 244.299443 250.714165 
L 245.299443 250.652882 
L 246.299443 250.604382 
L 247.299443 250.52356 
L 248.299443 250.405041 
L 249.299443 250.33483 
L 250.299443 250.251568 
L 251.299443 250.218426 
L 252.299443 250.167189 
L 253.299443 250.09879 
L 254.299443 250.032575 
L 255.299443 249.955658 
L 256.619695 249.928342 
" clip-path="url(#pb4355ca3a2)" style="fill: none; stroke: #1f77b4; stroke-opacity: 0.5; stroke-width: 0.2; stroke-linecap: square"/>
   </g>
   <g id="line2d_2">
    <path d="M 200.299443 187.926396 
L 201.299443 187.957833 
L 202.299443 187.994773 
L 203.299443 188.092519 
L 204.299443 188.125041 
L 205.299443 188.198666 
L 206.299443 188.237231 
L 207.299443 188.272645 
L 208.299443 188.330284 
L 209.299443 188.400671 
L 210.299443 188.452635 
L 211.299443 188.511725 
L 212.299443 188.600046 
L 213.299443 188.64619 
L 214.299443 188.688601 
L 215.299443 188.719093 
L 216.299443 188.745138 
L 217.299443 188.766339 
L 218.299443 188.82064 
L 219.299443 188.848577 
L 220.299443 188.878301 
L 221.299443 188.903696 
L 222.299443 188.914896 
L 223.299443 188.92502 
L 224.299443 188.924816 
L 225.299443 188.915306 
L 226.299443 188.903653 
L 227.299443 188.872623 
L 228.299443 188.861455 
L 229.299443 188.831338 
L 230.299443 188.771561 
L 231.299443 188.734369 
L 232.299443 188.695273 
L 233.299443 188.652834 
L 234.299443 188.620069 
L 235.299443 188.552642 
L 236.299443 188.513516 
L 237.299443 188.470842 
L 238.299443 188.400261 
L 239.299443 188.36387 
L 240.299443 188.305467 
L 241.299443 188.194514 
L 242.299443 188.123856 
L 243.299443 188.010916 
L 244.299443 187.965143 
L 245.299443 187.90386 
L 246.299443 187.855361 
L 247.299443 187.774538 
L 248.299443 187.656019 
L 249.299443 187.585809 
L 250.299443 187.502546 
L 251.299443 187.469404 
L 252.299443 187.418167 
L 253.299443 187.349769 
L 254.299443 187.283553 
L 255.299443 187.206636 
L 256.619695 187.179321 
" clip-path="url(#pb4355ca3a2)" style="fill: none; stroke: #1f77b4; stroke-opacity: 0.5; stroke-width: 0.2; stroke-linecap: square"/>
   </g>
   <g id="line2d_3">
    <path d="M 200.299443 144.257031 
L 201.299443 144.288468 
L 202.299443 144.325408 
L 203.299443 144.423155 
L 204.299443 144.455676 
L 205.299443 144.529301 
L 206.299443 144.567867 
L 207.299443 144.60328 
L 208.299443 144.66092 
L 209.299443 144.731306 
L 210.299443 144.78327 
L 211.299443 144.84236 
L 212.299443 144.930681 
L 213.299443 144.976825 
L 214.299443 145.019236 
L 215.299443 145.049729 
L 216.299443 145.075774 
L 217.299443 145.096974 
L 218.299443 145.151275 
L 219.299443 145.179213 
L 220.299443 145.208936 
L 221.299443 145.234331 
L 222.299443 145.245532 
L 223.299443 145.255656 
L 224.299443 145.255451 
L 225.299443 145.245941 
L 226.299443 145.234288 
L 227.299443 145.203259 
L 228.299443 145.192091 
L 229.299443 145.161973 
L 230.299443 145.102196 
L 231.299443 145.065005 
L 232.299443 145.025909 
L 233.299443 144.983469 
L 234.299443 144.950704 
L 235.299443 144.883277 
L 236.299443 144.844151 
L 237.299443 144.801477 
L 238.299443 144.730896 
L 239.299443 144.694505 
L 240.299443 144.636102 
L 241.299443 144.52515 
L 242.299443 144.454491 
L 243.299443 144.341552 
L 244.299443 144.295779 
L 245.299443 144.234495 
L 246.299443 144.185996 
L 247.299443 144.105173 
L 248.299443 143.986654 
L 249.299443 143.916444 
L 250.299443 143.833181 
L 251.299443 143.80004 
L 252.299443 143.748802 
L 253.299443 143.680404 
L 254.299443 143.614189 
L 255.299443 143.537271 
L 256.619695 143.509956 
" clip-path="url(#pb4355ca3a2)" style="fill: none; stroke: #1f77b4; stroke-opacity: 0.5; stroke-width: 0.2; stroke-linecap: square"/>
   </g>
   <g id="line2d_4">
    <path d="M 200.299443 84.78448 
L 201.299443 84.815917 
L 202.299443 84.852857 
L 203.299443 84.950604 
L 204.299443 84.983125 
L 205.299443 85.05675 
L 206.299443 85.095316 
L 207.299443 85.130729 
L 208.299443 85.188369 
L 209.299443 85.258755 
L 210.299443 85.310719 
L 211.299443 85.369809 
L 212.299443 85.45813 
L 213.299443 85.504274 
L 214.299443 85.546685 
L 215.299443 85.577178 
L 216.299443 85.603223 
L 217.299443 85.624423 
L 218.299443 85.678724 
L 219.299443 85.706661 
L 220.299443 85.736385 
L 221.299443 85.76178 
L 222.299443 85.772981 
L 223.299443 85.783105 
L 224.299443 85.7829 
L 225.299443 85.77339 
L 226.299443 85.761737 
L 227.299443 85.730708 
L 228.299443 85.71954 
L 229.299443 85.689422 
L 230.299443 85.629645 
L 231.299443 85.592454 
L 232.299443 85.553358 
L 233.299443 85.510918 
L 234.299443 85.478153 
L 235.299443 85.410726 
L 236.299443 85.3716 
L 237.299443 85.328926 
L 238.299443 85.258345 
L 239.299443 85.221954 
L 240.299443 85.163551 
L 241.299443 85.052599 
L 242.299443 84.98194 
L 243.299443 84.869001 
L 244.299443 84.823228 
L 245.299443 84.761944 
L 246.299443 84.713445 
L 247.299443 84.632622 
L 248.299443 84.514103 
L 249.299443 84.443893 
L 250.299443 84.36063 
L 251.299443 84.327489 
L 252.299443 84.276251 
L 253.299443 84.207853 
L 254.299443 84.141637 
L 255.299443 84.06472 
L 256.619695 84.037405 
" clip-path="url(#pb4355ca3a2)" style="fill: none; stroke: #1f77b4; stroke-opacity: 0.5; stroke-width: 0.2; stroke-linecap: square"/>
   </g>
   <g id="line2d_5">
    <path d="M 200.299443 209.484948 
L 201.299443 209.516384 
L 202.299443 209.553324 
L 203.299443 209.651071 
L 204.299443 209.683592 
L 205.299443 209.757217 
L 206.299443 209.795783 
L 207.299443 209.831196 
L 208.299443 209.888836 
L 209.299443 209.959222 
L 210.299443 210.011186 
L 211.299443 210.070276 
L 212.299443 210.158597 
L 213.299443 210.204741 
L 214.299443 210.247152 
L 215.299443 210.277645 
L 216.299443 210.30369 
L 217.299443 210.32489 
L 218.299443 210.379191 
L 219.299443 210.407129 
L 220.299443 210.436853 
L 221.299443 210.462247 
L 222.299443 210.473448 
L 223.299443 210.483572 
L 224.299443 210.483367 
L 225.299443 210.473857 
L 226.299443 210.462204 
L 227.299443 210.431175 
L 228.299443 210.420007 
L 229.299443 210.389889 
L 230.299443 210.330112 
L 231.299443 210.292921 
L 232.299443 210.253825 
L 233.299443 210.211385 
L 234.299443 210.17862 
L 235.299443 210.111193 
L 236.299443 210.072067 
L 237.299443 210.029393 
L 238.299443 209.958812 
L 239.299443 209.922421 
L 240.299443 209.864018 
L 241.299443 209.753066 
L 242.299443 209.682407 
L 243.299443 209.569468 
L 244.299443 209.523695 
L 245.299443 209.462411 
L 246.299443 209.413912 
L 247.299443 209.333089 
L 248.299443 209.214571 
L 249.299443 209.14436 
L 250.299443 209.061097 
L 251.299443 209.027956 
L 252.299443 208.976718 
L 253.299443 208.90832 
L 254.299443 208.842105 
L 255.299443 208.765187 
L 256.619695 208.737872 
" clip-path="url(#pb4355ca3a2)" style="fill: none; stroke: #1f77b4; stroke-opacity: 0.5; stroke-width: 0.2; stroke-linecap: square"/>
   </g>
   <g id="line2d_6">
    <path d="M 200.299443 242.977577 
L 201.299443 243.009014 
L 202.299443 243.045954 
L 203.299443 243.143701 
L 204.299443 243.176222 
L 205.299443 243.249847 
L 206.299443 243.288413 
L 207.299443 243.323826 
L 208.299443 243.381466 
L 209.299443 243.451852 
L 210.299443 243.503816 
L 211.299443 243.562906 
L 212.299443 243.651227 
L 213.299443 243.697371 
L 214.299443 243.739782 
L 215.299443 243.770275 
L 216.299443 243.79632 
L 217.299443 243.81752 
L 218.299443 243.871821 
L 219.299443 243.899758 
L 220.299443 243.929482 
L 221.299443 243.954877 
L 222.299443 243.966078 
L 223.299443 243.976202 
L 224.299443 243.975997 
L 225.299443 243.966487 
L 226.299443 243.954834 
L 227.299443 243.923805 
L 228.299443 243.912637 
L 229.299443 243.882519 
L 230.299443 243.822742 
L 231.299443 243.785551 
L 232.299443 243.746455 
L 233.299443 243.704015 
L 234.299443 243.67125 
L 235.299443 243.603823 
L 236.299443 243.564697 
L 237.299443 243.522023 
L 238.299443 243.451442 
L 239.299443 243.415051 
L 240.299443 243.356648 
L 241.299443 243.245696 
L 242.299443 243.175037 
L 243.299443 243.062097 
L 244.299443 243.016325 
L 245.299443 242.955041 
L 246.299443 242.906542 
L 247.299443 242.825719 
L 248.299443 242.7072 
L 249.299443 242.63699 
L 250.299443 242.553727 
L 251.299443 242.520586 
L 252.299443 242.469348 
L 253.299443 242.40095 
L 254.299443 242.334734 
L 255.299443 242.257817 
L 256.619695 242.230502 
" clip-path="url(#pb4355ca3a2)" style="fill: none; stroke: #1f77b4; stroke-opacity: 0.5; stroke-width: 0.2; stroke-linecap: square"/>
   </g>
   <g id="line2d_7">
    <path d="M 200.299443 196.148778 
L 201.299443 196.180215 
L 202.299443 196.217155 
L 203.299443 196.314902 
L 204.299443 196.347423 
L 205.299443 196.421048 
L 206.299443 196.459613 
L 207.299443 196.495027 
L 208.299443 196.552667 
L 209.299443 196.623053 
L 210.299443 196.675017 
L 211.299443 196.734107 
L 212.299443 196.822428 
L 213.299443 196.868572 
L 214.299443 196.910983 
L 215.299443 196.941476 
L 216.299443 196.967521 
L 217.299443 196.988721 
L 218.299443 197.043022 
L 219.299443 197.070959 
L 220.299443 197.100683 
L 221.299443 197.126078 
L 222.299443 197.137278 
L 223.299443 197.147402 
L 224.299443 197.147198 
L 225.299443 197.137688 
L 226.299443 197.126035 
L 227.299443 197.095005 
L 228.299443 197.083837 
L 229.299443 197.05372 
L 230.299443 196.993943 
L 231.299443 196.956751 
L 232.299443 196.917655 
L 233.299443 196.875216 
L 234.299443 196.842451 
L 235.299443 196.775024 
L 236.299443 196.735898 
L 237.299443 196.693224 
L 238.299443 196.622643 
L 239.299443 196.586252 
L 240.299443 196.527849 
L 241.299443 196.416896 
L 242.299443 196.346238 
L 243.299443 196.233298 
L 244.299443 196.187525 
L 245.299443 196.126242 
L 246.299443 196.077743 
L 247.299443 195.99692 
L 248.299443 195.878401 
L 249.299443 195.808191 
L 250.299443 195.724928 
L 251.299443 195.691786 
L 252.299443 195.640549 
L 253.299443 195.572151 
L 254.299443 195.505935 
L 255.299443 195.429018 
L 256.619695 195.401703 
" clip-path="url(#pb4355ca3a2)" style="fill: none; stroke: #1f77b4; stroke-opacity: 0.5; stroke-width: 0.2; stroke-linecap: square"/>
   </g>
   <g id="line2d_8">
    <path d="M 200.299443 42.517546 
L 201.299443 42.548982 
L 202.299443 42.585922 
L 203.299443 42.683669 
L 204.299443 42.71619 
L 205.299443 42.789815 
L 206.299443 42.828381 
L 207.299443 42.863794 
L 208.299443 42.921434 
L 209.299443 42.99182 
L 210.299443 43.043784 
L 211.299443 43.102874 
L 212.299443 43.191195 
L 213.299443 43.237339 
L 214.299443 43.27975 
L 215.299443 43.310243 
L 216.299443 43.336288 
L 217.299443 43.357488 
L 218.299443 43.411789 
L 219.299443 43.439727 
L 220.299443 43.469451 
L 221.299443 43.494845 
L 222.299443 43.506046 
L 223.299443 43.51617 
L 224.299443 43.515965 
L 225.299443 43.506455 
L 226.299443 43.494802 
L 227.299443 43.463773 
L 228.299443 43.452605 
L 229.299443 43.422487 
L 230.299443 43.36271 
L 231.299443 43.325519 
L 232.299443 43.286423 
L 233.299443 43.243983 
L 234.299443 43.211218 
L 235.299443 43.143791 
L 236.299443 43.104665 
L 237.299443 43.061991 
L 238.299443 42.99141 
L 239.299443 42.955019 
L 240.299443 42.896616 
L 241.299443 42.785664 
L 242.299443 42.715005 
L 243.299443 42.602066 
L 244.299443 42.556293 
L 245.299443 42.495009 
L 246.299443 42.44651 
L 247.299443 42.365687 
L 248.299443 42.247169 
L 249.299443 42.176958 
L 250.299443 42.093695 
L 251.299443 42.060554 
L 252.299443 42.009316 
L 253.299443 41.940918 
L 254.299443 41.874703 
L 255.299443 41.797785 
L 256.619695 41.77047 
" clip-path="url(#pb4355ca3a2)" style="fill: none; stroke: #1f77b4; stroke-opacity: 0.5; stroke-width: 0.2; stroke-linecap: square"/>
   </g>
   <g id="line2d_9">
    <path d="M 200.299443 229.562456 
L 201.299443 229.593892 
L 202.299443 229.630833 
L 203.299443 229.728579 
L 204.299443 229.761101 
L 205.299443 229.834725 
L 206.299443 229.873291 
L 207.299443 229.908704 
L 208.299443 229.966344 
L 209.299443 230.03673 
L 210.299443 230.088695 
L 211.299443 230.147784 
L 212.299443 230.236105 
L 213.299443 230.28225 
L 214.299443 230.324661 
L 215.299443 230.355153 
L 216.299443 230.381198 
L 217.299443 230.402398 
L 218.299443 230.456699 
L 219.299443 230.484637 
L 220.299443 230.514361 
L 221.299443 230.539756 
L 222.299443 230.550956 
L 223.299443 230.56108 
L 224.299443 230.560876 
L 225.299443 230.551366 
L 226.299443 230.539712 
L 227.299443 230.508683 
L 228.299443 230.497515 
L 229.299443 230.467398 
L 230.299443 230.407621 
L 231.299443 230.370429 
L 232.299443 230.331333 
L 233.299443 230.288893 
L 234.299443 230.256128 
L 235.299443 230.188702 
L 236.299443 230.149576 
L 237.299443 230.106901 
L 238.299443 230.036321 
L 239.299443 229.99993 
L 240.299443 229.941527 
L 241.299443 229.830574 
L 242.299443 229.759916 
L 243.299443 229.646976 
L 244.299443 229.601203 
L 245.299443 229.53992 
L 246.299443 229.49142 
L 247.299443 229.410598 
L 248.299443 229.292079 
L 249.299443 229.221868 
L 250.299443 229.138606 
L 251.299443 229.105464 
L 252.299443 229.054227 
L 253.299443 228.985828 
L 254.299443 228.919613 
L 255.299443 228.842696 
L 256.619695 228.81538 
" clip-path="url(#pb4355ca3a2)" style="fill: none; stroke: #1f77b4; stroke-opacity: 0.5; stroke-width: 0.2; stroke-linecap: square"/>
   </g>
   <g id="line2d_10">
    <path d="M 200.299443 218.944878 
L 201.299443 218.976314 
L 202.299443 219.013254 
L 203.299443 219.111001 
L 204.299443 219.143522 
L 205.299443 219.217147 
L 206.299443 219.255713 
L 207.299443 219.291126 
L 208.299443 219.348766 
L 209.299443 219.419152 
L 210.299443 219.471116 
L 211.299443 219.530206 
L 212.299443 219.618527 
L 213.299443 219.664671 
L 214.299443 219.707082 
L 215.299443 219.737575 
L 216.299443 219.76362 
L 217.299443 219.78482 
L 218.299443 219.839121 
L 219.299443 219.867059 
L 220.299443 219.896783 
L 221.299443 219.922177 
L 222.299443 219.933378 
L 223.299443 219.943502 
L 224.299443 219.943297 
L 225.299443 219.933787 
L 226.299443 219.922134 
L 227.299443 219.891105 
L 228.299443 219.879937 
L 229.299443 219.849819 
L 230.299443 219.790042 
L 231.299443 219.752851 
L 232.299443 219.713755 
L 233.299443 219.671315 
L 234.299443 219.63855 
L 235.299443 219.571123 
L 236.299443 219.531997 
L 237.299443 219.489323 
L 238.299443 219.418742 
L 239.299443 219.382351 
L 240.299443 219.323948 
L 241.299443 219.212996 
L 242.299443 219.142337 
L 243.299443 219.029398 
L 244.299443 218.983625 
L 245.299443 218.922341 
L 246.299443 218.873842 
L 247.299443 218.793019 
L 248.299443 218.674501 
L 249.299443 218.60429 
L 250.299443 218.521027 
L 251.299443 218.487886 
L 252.299443 218.436648 
L 253.299443 218.36825 
L 254.299443 218.302035 
L 255.299443 218.225118 
L 256.619695 218.197802 
" clip-path="url(#pb4355ca3a2)" style="fill: none; stroke: #1f77b4; stroke-opacity: 0.5; stroke-width: 0.2; stroke-linecap: square"/>
   </g>
   <g id="line2d_11">
    <path d="M 256.619695 197.814172 
L 255.619695 197.782736 
L 254.619695 197.745795 
L 253.619695 197.648049 
L 252.619695 197.615527 
L 251.619695 197.541902 
L 250.619695 197.503337 
L 249.619695 197.467924 
L 248.619695 197.410284 
L 247.619695 197.339897 
L 246.619695 197.287933 
L 245.619695 197.228844 
L 244.619695 197.140523 
L 243.619695 197.094378 
L 242.619695 197.051967 
L 241.619695 197.021475 
L 240.619695 196.99543 
L 239.619695 196.97423 
L 238.619695 196.919928 
L 237.619695 196.891991 
L 236.619695 196.862267 
L 235.619695 196.836872 
L 234.619695 196.825672 
L 233.619695 196.815548 
L 232.619695 196.815752 
L 231.619695 196.825262 
L 230.619695 196.836916 
L 229.619695 196.867945 
L 228.619695 196.879113 
L 227.619695 196.90923 
L 226.619695 196.969007 
L 225.619695 197.006199 
L 224.619695 197.045295 
L 223.619695 197.087735 
L 222.619695 197.1205 
L 221.619695 197.187926 
L 220.619695 197.227052 
L 219.619695 197.269726 
L 218.619695 197.340307 
L 217.619695 197.376698 
L 216.619695 197.435101 
L 215.619695 197.546054 
L 214.619695 197.616712 
L 213.619695 197.729652 
L 212.619695 197.775425 
L 211.619695 197.836708 
L 210.619695 197.885207 
L 209.619695 197.96603 
L 208.619695 198.084549 
L 207.619695 198.15476 
L 206.619695 198.238022 
L 205.619695 198.271164 
L 204.619695 198.322401 
L 203.619695 198.390799 
L 202.619695 198.457015 
L 201.619695 198.533932 
L 200.299443 198.561247 
" clip-path="url(#pb4355ca3a2)" style="fill: none; stroke: #ff7f0e; stroke-opacity: 0.5; stroke-width: 0.2; stroke-linecap: square"/>
   </g>
   <g id="line2d_12">
    <path d="M 256.619695 202.730751 
L 255.619695 202.699314 
L 254.619695 202.662374 
L 253.619695 202.564628 
L 252.619695 202.532106 
L 251.619695 202.458481 
L 250.619695 202.419916 
L 249.619695 202.384503 
L 248.619695 202.326863 
L 247.619695 202.256476 
L 246.619695 202.204512 
L 245.619695 202.145422 
L 244.619695 202.057101 
L 243.619695 202.010957 
L 242.619695 201.968546 
L 241.619695 201.938054 
L 240.619695 201.912009 
L 239.619695 201.890808 
L 238.619695 201.836507 
L 237.619695 201.80857 
L 236.619695 201.778846 
L 235.619695 201.753451 
L 234.619695 201.742251 
L 233.619695 201.732127 
L 232.619695 201.732331 
L 231.619695 201.741841 
L 230.619695 201.753494 
L 229.619695 201.784524 
L 228.619695 201.795692 
L 227.619695 201.825809 
L 226.619695 201.885586 
L 225.619695 201.922778 
L 224.619695 201.961874 
L 223.619695 202.004313 
L 222.619695 202.037079 
L 221.619695 202.104505 
L 220.619695 202.143631 
L 219.619695 202.186305 
L 218.619695 202.256886 
L 217.619695 202.293277 
L 216.619695 202.35168 
L 215.619695 202.462633 
L 214.619695 202.533291 
L 213.619695 202.646231 
L 212.619695 202.692004 
L 211.619695 202.753287 
L 210.619695 202.801786 
L 209.619695 202.882609 
L 208.619695 203.001128 
L 207.619695 203.071338 
L 206.619695 203.154601 
L 205.619695 203.187743 
L 204.619695 203.23898 
L 203.619695 203.307378 
L 202.619695 203.373594 
L 201.619695 203.450511 
L 200.299443 203.477826 
" clip-path="url(#pb4355ca3a2)" style="fill: none; stroke: #ff7f0e; stroke-opacity: 0.5; stroke-width: 0.2; stroke-linecap: square"/>
   </g>
   <g id="line2d_13">
    <path d="M 256.619695 138.343994 
L 255.619695 138.312558 
L 254.619695 138.275617 
L 253.619695 138.177871 
L 252.619695 138.145349 
L 251.619695 138.071724 
L 250.619695 138.033159 
L 249.619695 137.997746 
L 248.619695 137.940106 
L 247.619695 137.869719 
L 246.619695 137.817755 
L 245.619695 137.758665 
L 244.619695 137.670344 
L 243.619695 137.6242 
L 242.619695 137.581789 
L 241.619695 137.551297 
L 240.619695 137.525252 
L 239.619695 137.504052 
L 238.619695 137.44975 
L 237.619695 137.421813 
L 236.619695 137.392089 
L 235.619695 137.366694 
L 234.619695 137.355494 
L 233.619695 137.34537 
L 232.619695 137.345574 
L 231.619695 137.355084 
L 230.619695 137.366738 
L 229.619695 137.397767 
L 228.619695 137.408935 
L 227.619695 137.439052 
L 226.619695 137.498829 
L 225.619695 137.536021 
L 224.619695 137.575117 
L 223.619695 137.617556 
L 222.619695 137.650322 
L 221.619695 137.717748 
L 220.619695 137.756874 
L 219.619695 137.799548 
L 218.619695 137.870129 
L 217.619695 137.90652 
L 216.619695 137.964923 
L 215.619695 138.075876 
L 214.619695 138.146534 
L 213.619695 138.259474 
L 212.619695 138.305247 
L 211.619695 138.36653 
L 210.619695 138.415029 
L 209.619695 138.495852 
L 208.619695 138.614371 
L 207.619695 138.684582 
L 206.619695 138.767844 
L 205.619695 138.800986 
L 204.619695 138.852223 
L 203.619695 138.920621 
L 202.619695 138.986837 
L 201.619695 139.063754 
L 200.299443 139.091069 
" clip-path="url(#pb4355ca3a2)" style="fill: none; stroke: #ff7f0e; stroke-opacity: 0.5; stroke-width: 0.2; stroke-linecap: square"/>
   </g>
   <g id="line2d_14">
    <path d="M 256.619695 21.258079 
L 255.619695 21.226643 
L 254.619695 21.189703 
L 253.619695 21.091956 
L 252.619695 21.059434 
L 251.619695 20.98581 
L 250.619695 20.947244 
L 249.619695 20.911831 
L 248.619695 20.854191 
L 247.619695 20.783805 
L 246.619695 20.731841 
L 245.619695 20.672751 
L 244.619695 20.58443 
L 243.619695 20.538286 
L 242.619695 20.495875 
L 241.619695 20.465382 
L 240.619695 20.439337 
L 239.619695 20.418137 
L 238.619695 20.363836 
L 237.619695 20.335898 
L 236.619695 20.306174 
L 235.619695 20.28078 
L 234.619695 20.269579 
L 233.619695 20.259455 
L 232.619695 20.259659 
L 231.619695 20.269169 
L 230.619695 20.280823 
L 229.619695 20.311852 
L 228.619695 20.32302 
L 227.619695 20.353138 
L 226.619695 20.412915 
L 225.619695 20.450106 
L 224.619695 20.489202 
L 223.619695 20.531642 
L 222.619695 20.564407 
L 221.619695 20.631833 
L 220.619695 20.670959 
L 219.619695 20.713634 
L 218.619695 20.784214 
L 217.619695 20.820605 
L 216.619695 20.879008 
L 215.619695 20.989961 
L 214.619695 21.060619 
L 213.619695 21.173559 
L 212.619695 21.219332 
L 211.619695 21.280615 
L 210.619695 21.329115 
L 209.619695 21.409937 
L 208.619695 21.528456 
L 207.619695 21.598667 
L 206.619695 21.681929 
L 205.619695 21.715071 
L 204.619695 21.766308 
L 203.619695 21.834707 
L 202.619695 21.900922 
L 201.619695 21.977839 
L 200.299443 22.005155 
" clip-path="url(#pb4355ca3a2)" style="fill: none; stroke: #ff7f0e; stroke-opacity: 0.5; stroke-width: 0.2; stroke-linecap: square"/>
   </g>
   <g id="line2d_15">
    <path d="M 256.619695 136.969225 
L 255.619695 136.937788 
L 254.619695 136.900848 
L 253.619695 136.803101 
L 252.619695 136.77058 
L 251.619695 136.696955 
L 250.619695 136.65839 
L 249.619695 136.622976 
L 248.619695 136.565336 
L 247.619695 136.49495 
L 246.619695 136.442986 
L 245.619695 136.383896 
L 244.619695 136.295575 
L 243.619695 136.249431 
L 242.619695 136.20702 
L 241.619695 136.176527 
L 240.619695 136.150482 
L 239.619695 136.129282 
L 238.619695 136.074981 
L 237.619695 136.047044 
L 236.619695 136.01732 
L 235.619695 135.991925 
L 234.619695 135.980725 
L 233.619695 135.970601 
L 232.619695 135.970805 
L 231.619695 135.980315 
L 230.619695 135.991968 
L 229.619695 136.022998 
L 228.619695 136.034166 
L 227.619695 136.064283 
L 226.619695 136.12406 
L 225.619695 136.161252 
L 224.619695 136.200348 
L 223.619695 136.242787 
L 222.619695 136.275552 
L 221.619695 136.342979 
L 220.619695 136.382105 
L 219.619695 136.424779 
L 218.619695 136.49536 
L 217.619695 136.531751 
L 216.619695 136.590154 
L 215.619695 136.701107 
L 214.619695 136.771765 
L 213.619695 136.884705 
L 212.619695 136.930478 
L 211.619695 136.991761 
L 210.619695 137.04026 
L 209.619695 137.121083 
L 208.619695 137.239602 
L 207.619695 137.309812 
L 206.619695 137.393075 
L 205.619695 137.426217 
L 204.619695 137.477454 
L 203.619695 137.545852 
L 202.619695 137.612068 
L 201.619695 137.688985 
L 200.299443 137.7163 
" clip-path="url(#pb4355ca3a2)" style="fill: none; stroke: #ff7f0e; stroke-opacity: 0.5; stroke-width: 0.2; stroke-linecap: square"/>
   </g>
   <g id="line2d_16">
    <path d="M 256.619695 223.472721 
L 255.619695 223.441284 
L 254.619695 223.404344 
L 253.619695 223.306597 
L 252.619695 223.274076 
L 251.619695 223.200451 
L 250.619695 223.161885 
L 249.619695 223.126472 
L 248.619695 223.068832 
L 247.619695 222.998446 
L 246.619695 222.946482 
L 245.619695 222.887392 
L 244.619695 222.799071 
L 243.619695 222.752927 
L 242.619695 222.710516 
L 241.619695 222.680023 
L 240.619695 222.653978 
L 239.619695 222.632778 
L 238.619695 222.578477 
L 237.619695 222.55054 
L 236.619695 222.520816 
L 235.619695 222.495421 
L 234.619695 222.48422 
L 233.619695 222.474096 
L 232.619695 222.474301 
L 231.619695 222.483811 
L 230.619695 222.495464 
L 229.619695 222.526493 
L 228.619695 222.537661 
L 227.619695 222.567779 
L 226.619695 222.627556 
L 225.619695 222.664747 
L 224.619695 222.703843 
L 223.619695 222.746283 
L 222.619695 222.779048 
L 221.619695 222.846475 
L 220.619695 222.885601 
L 219.619695 222.928275 
L 218.619695 222.998856 
L 217.619695 223.035247 
L 216.619695 223.09365 
L 215.619695 223.204602 
L 214.619695 223.275261 
L 213.619695 223.388201 
L 212.619695 223.433973 
L 211.619695 223.495257 
L 210.619695 223.543756 
L 209.619695 223.624579 
L 208.619695 223.743098 
L 207.619695 223.813308 
L 206.619695 223.896571 
L 205.619695 223.929712 
L 204.619695 223.98095 
L 203.619695 224.049348 
L 202.619695 224.115564 
L 201.619695 224.192481 
L 200.299443 224.219796 
" clip-path="url(#pb4355ca3a2)" style="fill: none; stroke: #ff7f0e; stroke-opacity: 0.5; stroke-width: 0.2; stroke-linecap: square"/>
   </g>
   <g id="line2d_17">
    <path d="M 256.619695 298.84667 
L 255.619695 298.815234 
L 254.619695 298.778294 
L 253.619695 298.680547 
L 252.619695 298.648025 
L 251.619695 298.574401 
L 250.619695 298.535835 
L 249.619695 298.500422 
L 248.619695 298.442782 
L 247.619695 298.372396 
L 246.619695 298.320432 
L 245.619695 298.261342 
L 244.619695 298.173021 
L 243.619695 298.126877 
L 242.619695 298.084466 
L 241.619695 298.053973 
L 240.619695 298.027928 
L 239.619695 298.006728 
L 238.619695 297.952427 
L 237.619695 297.924489 
L 236.619695 297.894765 
L 235.619695 297.869371 
L 234.619695 297.85817 
L 233.619695 297.848046 
L 232.619695 297.84825 
L 231.619695 297.85776 
L 230.619695 297.869414 
L 229.619695 297.900443 
L 228.619695 297.911611 
L 227.619695 297.941729 
L 226.619695 298.001506 
L 225.619695 298.038697 
L 224.619695 298.077793 
L 223.619695 298.120233 
L 222.619695 298.152998 
L 221.619695 298.220424 
L 220.619695 298.25955 
L 219.619695 298.302225 
L 218.619695 298.372805 
L 217.619695 298.409196 
L 216.619695 298.4676 
L 215.619695 298.578552 
L 214.619695 298.64921 
L 213.619695 298.76215 
L 212.619695 298.807923 
L 211.619695 298.869206 
L 210.619695 298.917706 
L 209.619695 298.998528 
L 208.619695 299.117047 
L 207.619695 299.187258 
L 206.619695 299.27052 
L 205.619695 299.303662 
L 204.619695 299.354899 
L 203.619695 299.423298 
L 202.619695 299.489513 
L 201.619695 299.56643 
L 200.299443 299.593746 
" clip-path="url(#pb4355ca3a2)" style="fill: none; stroke: #ff7f0e; stroke-opacity: 0.5; stroke-width: 0.2; stroke-linecap: square"/>
   </g>
   <g id="line2d_18">
    <path d="M 256.619695 314.854375 
L 255.619695 314.822938 
L 254.619695 314.785998 
L 253.619695 314.688252 
L 252.619695 314.65573 
L 251.619695 314.582105 
L 250.619695 314.54354 
L 249.619695 314.508127 
L 248.619695 314.450487 
L 247.619695 314.3801 
L 246.619695 314.328136 
L 245.619695 314.269046 
L 244.619695 314.180725 
L 243.619695 314.134581 
L 242.619695 314.09217 
L 241.619695 314.061678 
L 240.619695 314.035633 
L 239.619695 314.014433 
L 238.619695 313.960131 
L 237.619695 313.932194 
L 236.619695 313.90247 
L 235.619695 313.877075 
L 234.619695 313.865875 
L 233.619695 313.855751 
L 232.619695 313.855955 
L 231.619695 313.865465 
L 230.619695 313.877119 
L 229.619695 313.908148 
L 228.619695 313.919316 
L 227.619695 313.949433 
L 226.619695 314.00921 
L 225.619695 314.046402 
L 224.619695 314.085498 
L 223.619695 314.127937 
L 222.619695 314.160703 
L 221.619695 314.228129 
L 220.619695 314.267255 
L 219.619695 314.309929 
L 218.619695 314.38051 
L 217.619695 314.416901 
L 216.619695 314.475304 
L 215.619695 314.586257 
L 214.619695 314.656915 
L 213.619695 314.769855 
L 212.619695 314.815628 
L 211.619695 314.876911 
L 210.619695 314.92541 
L 209.619695 315.006233 
L 208.619695 315.124752 
L 207.619695 315.194963 
L 206.619695 315.278225 
L 205.619695 315.311367 
L 204.619695 315.362604 
L 203.619695 315.431002 
L 202.619695 315.497218 
L 201.619695 315.574135 
L 200.299443 315.60145 
" clip-path="url(#pb4355ca3a2)" style="fill: none; stroke: #ff7f0e; stroke-opacity: 0.5; stroke-width: 0.2; stroke-linecap: square"/>
   </g>
   <g id="line2d_19">
    <path d="M 256.619695 56.281769 
L 255.619695 56.250332 
L 254.619695 56.213392 
L 253.619695 56.115645 
L 252.619695 56.083124 
L 251.619695 56.009499 
L 250.619695 55.970934 
L 249.619695 55.93552 
L 248.619695 55.87788 
L 247.619695 55.807494 
L 246.619695 55.75553 
L 245.619695 55.69644 
L 244.619695 55.608119 
L 243.619695 55.561975 
L 242.619695 55.519564 
L 241.619695 55.489071 
L 240.619695 55.463026 
L 239.619695 55.441826 
L 238.619695 55.387525 
L 237.619695 55.359588 
L 236.619695 55.329864 
L 235.619695 55.304469 
L 234.619695 55.293269 
L 233.619695 55.283145 
L 232.619695 55.283349 
L 231.619695 55.292859 
L 230.619695 55.304512 
L 229.619695 55.335542 
L 228.619695 55.34671 
L 227.619695 55.376827 
L 226.619695 55.436604 
L 225.619695 55.473796 
L 224.619695 55.512892 
L 223.619695 55.555331 
L 222.619695 55.588096 
L 221.619695 55.655523 
L 220.619695 55.694649 
L 219.619695 55.737323 
L 218.619695 55.807904 
L 217.619695 55.844295 
L 216.619695 55.902698 
L 215.619695 56.013651 
L 214.619695 56.084309 
L 213.619695 56.197249 
L 212.619695 56.243022 
L 211.619695 56.304305 
L 210.619695 56.352804 
L 209.619695 56.433627 
L 208.619695 56.552146 
L 207.619695 56.622356 
L 206.619695 56.705619 
L 205.619695 56.738761 
L 204.619695 56.789998 
L 203.619695 56.858396 
L 202.619695 56.924612 
L 201.619695 57.001529 
L 200.299443 57.028844 
" clip-path="url(#pb4355ca3a2)" style="fill: none; stroke: #ff7f0e; stroke-opacity: 0.5; stroke-width: 0.2; stroke-linecap: square"/>
   </g>
   <g id="line2d_20">
    <path d="M 256.619695 228.082982 
L 255.619695 228.051545 
L 254.619695 228.014605 
L 253.619695 227.916859 
L 252.619695 227.884337 
L 251.619695 227.810712 
L 250.619695 227.772147 
L 249.619695 227.736733 
L 248.619695 227.679094 
L 247.619695 227.608707 
L 246.619695 227.556743 
L 245.619695 227.497653 
L 244.619695 227.409332 
L 243.619695 227.363188 
L 242.619695 227.320777 
L 241.619695 227.290284 
L 240.619695 227.26424 
L 239.619695 227.243039 
L 238.619695 227.188738 
L 237.619695 227.160801 
L 236.619695 227.131077 
L 235.619695 227.105682 
L 234.619695 227.094482 
L 233.619695 227.084358 
L 232.619695 227.084562 
L 231.619695 227.094072 
L 230.619695 227.105725 
L 229.619695 227.136755 
L 228.619695 227.147923 
L 227.619695 227.17804 
L 226.619695 227.237817 
L 225.619695 227.275009 
L 224.619695 227.314105 
L 223.619695 227.356544 
L 222.619695 227.389309 
L 221.619695 227.456736 
L 220.619695 227.495862 
L 219.619695 227.538536 
L 218.619695 227.609117 
L 217.619695 227.645508 
L 216.619695 227.703911 
L 215.619695 227.814864 
L 214.619695 227.885522 
L 213.619695 227.998462 
L 212.619695 228.044235 
L 211.619695 228.105518 
L 210.619695 228.154017 
L 209.619695 228.23484 
L 208.619695 228.353359 
L 207.619695 228.423569 
L 206.619695 228.506832 
L 205.619695 228.539974 
L 204.619695 228.591211 
L 203.619695 228.659609 
L 202.619695 228.725825 
L 201.619695 228.802742 
L 200.299443 228.830057 
" clip-path="url(#pb4355ca3a2)" style="fill: none; stroke: #ff7f0e; stroke-opacity: 0.5; stroke-width: 0.2; stroke-linecap: square"/>
   </g>
   <g id="line2d_21">
    <path d="M 390.34593 36.282717 
L 391.34593 36.314154 
L 392.34593 36.351094 
L 393.34593 36.448841 
L 394.34593 36.481362 
L 395.34593 36.554987 
L 396.34593 36.593552 
L 397.34593 36.628966 
L 398.34593 36.686605 
L 399.34593 36.756992 
L 400.34593 36.808956 
L 401.34593 36.868046 
L 402.34593 36.956367 
L 403.34593 37.002511 
L 404.34593 37.044922 
L 405.34593 37.075415 
L 406.34593 37.101459 
L 407.34593 37.12266 
L 408.34593 37.176961 
L 409.34593 37.204898 
L 410.34593 37.234622 
L 411.34593 37.260017 
L 412.34593 37.271217 
L 413.34593 37.281341 
L 414.34593 37.281137 
L 415.34593 37.271627 
L 416.34593 37.259974 
L 417.34593 37.228944 
L 418.34593 37.217776 
L 419.34593 37.187659 
L 420.34593 37.127882 
L 421.34593 37.09069 
L 422.34593 37.051594 
L 423.34593 37.009155 
L 424.34593 36.97639 
L 425.34593 36.908963 
L 426.34593 36.869837 
L 427.34593 36.827163 
L 428.34593 36.756582 
L 429.34593 36.720191 
L 430.34593 36.661788 
L 431.34593 36.550835 
L 432.34593 36.480177 
L 433.34593 36.367237 
L 434.34593 36.321464 
L 435.34593 36.260181 
L 436.34593 36.211682 
L 437.34593 36.130859 
L 438.34593 36.01234 
L 439.34593 35.94213 
L 440.34593 35.858867 
L 441.34593 35.825725 
L 442.34593 35.774488 
L 443.34593 35.70609 
L 444.34593 35.639874 
L 445.34593 35.562957 
L 446.666182 35.535642 
" clip-path="url(#pb4355ca3a2)" style="fill: none; stroke: #ff7f0e; stroke-opacity: 0.5; stroke-width: 0.2; stroke-linecap: square"/>
   </g>
   <g id="line2d_22">
    <path d="M 390.34593 34.15974 
L 391.34593 34.191176 
L 392.34593 34.228116 
L 393.34593 34.325863 
L 394.34593 34.358384 
L 395.34593 34.432009 
L 396.34593 34.470575 
L 397.34593 34.505988 
L 398.34593 34.563628 
L 399.34593 34.634014 
L 400.34593 34.685978 
L 401.34593 34.745068 
L 402.34593 34.833389 
L 403.34593 34.879533 
L 404.34593 34.921944 
L 405.34593 34.952437 
L 406.34593 34.978482 
L 407.34593 34.999682 
L 408.34593 35.053983 
L 409.34593 35.081921 
L 410.34593 35.111645 
L 411.34593 35.137039 
L 412.34593 35.14824 
L 413.34593 35.158364 
L 414.34593 35.158159 
L 415.34593 35.148649 
L 416.34593 35.136996 
L 417.34593 35.105967 
L 418.34593 35.094799 
L 419.34593 35.064681 
L 420.34593 35.004904 
L 421.34593 34.967713 
L 422.34593 34.928617 
L 423.34593 34.886177 
L 424.34593 34.853412 
L 425.34593 34.785985 
L 426.34593 34.746859 
L 427.34593 34.704185 
L 428.34593 34.633604 
L 429.34593 34.597213 
L 430.34593 34.53881 
L 431.34593 34.427858 
L 432.34593 34.357199 
L 433.34593 34.24426 
L 434.34593 34.198487 
L 435.34593 34.137203 
L 436.34593 34.088704 
L 437.34593 34.007881 
L 438.34593 33.889363 
L 439.34593 33.819152 
L 440.34593 33.735889 
L 441.34593 33.702748 
L 442.34593 33.65151 
L 443.34593 33.583112 
L 444.34593 33.516897 
L 445.34593 33.43998 
L 446.666182 33.412664 
" clip-path="url(#pb4355ca3a2)" style="fill: none; stroke: #ff7f0e; stroke-opacity: 0.5; stroke-width: 0.2; stroke-linecap: square"/>
   </g>
   <g id="line2d_23">
    <path d="M 390.34593 246.109893 
L 391.34593 246.14133 
L 392.34593 246.17827 
L 393.34593 246.276017 
L 394.34593 246.308538 
L 395.34593 246.382163 
L 396.34593 246.420728 
L 397.34593 246.456142 
L 398.34593 246.513781 
L 399.34593 246.584168 
L 400.34593 246.636132 
L 401.34593 246.695222 
L 402.34593 246.783543 
L 403.34593 246.829687 
L 404.34593 246.872098 
L 405.34593 246.902591 
L 406.34593 246.928635 
L 407.34593 246.949836 
L 408.34593 247.004137 
L 409.34593 247.032074 
L 410.34593 247.061798 
L 411.34593 247.087193 
L 412.34593 247.098393 
L 413.34593 247.108517 
L 414.34593 247.108313 
L 415.34593 247.098803 
L 416.34593 247.08715 
L 417.34593 247.05612 
L 418.34593 247.044952 
L 419.34593 247.014835 
L 420.34593 246.955058 
L 421.34593 246.917866 
L 422.34593 246.87877 
L 423.34593 246.836331 
L 424.34593 246.803566 
L 425.34593 246.736139 
L 426.34593 246.697013 
L 427.34593 246.654339 
L 428.34593 246.583758 
L 429.34593 246.547367 
L 430.34593 246.488964 
L 431.34593 246.378011 
L 432.34593 246.307353 
L 433.34593 246.194413 
L 434.34593 246.14864 
L 435.34593 246.087357 
L 436.34593 246.038858 
L 437.34593 245.958035 
L 438.34593 245.839516 
L 439.34593 245.769306 
L 440.34593 245.686043 
L 441.34593 245.652901 
L 442.34593 245.601664 
L 443.34593 245.533266 
L 444.34593 245.46705 
L 445.34593 245.390133 
L 446.666182 245.362818 
" clip-path="url(#pb4355ca3a2)" style="fill: none; stroke: #ff7f0e; stroke-opacity: 0.5; stroke-width: 0.2; stroke-linecap: square"/>
   </g>
   <g id="line2d_24">
    <path d="M 390.34593 66.409392 
L 391.34593 66.440828 
L 392.34593 66.477769 
L 393.34593 66.575515 
L 394.34593 66.608037 
L 395.34593 66.681662 
L 396.34593 66.720227 
L 397.34593 66.75564 
L 398.34593 66.81328 
L 399.34593 66.883666 
L 400.34593 66.935631 
L 401.34593 66.99472 
L 402.34593 67.083041 
L 403.34593 67.129186 
L 404.34593 67.171597 
L 405.34593 67.202089 
L 406.34593 67.228134 
L 407.34593 67.249334 
L 408.34593 67.303635 
L 409.34593 67.331573 
L 410.34593 67.361297 
L 411.34593 67.386692 
L 412.34593 67.397892 
L 413.34593 67.408016 
L 414.34593 67.407812 
L 415.34593 67.398302 
L 416.34593 67.386648 
L 417.34593 67.355619 
L 418.34593 67.344451 
L 419.34593 67.314334 
L 420.34593 67.254557 
L 421.34593 67.217365 
L 422.34593 67.178269 
L 423.34593 67.135829 
L 424.34593 67.103064 
L 425.34593 67.035638 
L 426.34593 66.996512 
L 427.34593 66.953837 
L 428.34593 66.883257 
L 429.34593 66.846866 
L 430.34593 66.788463 
L 431.34593 66.67751 
L 432.34593 66.606852 
L 433.34593 66.493912 
L 434.34593 66.448139 
L 435.34593 66.386856 
L 436.34593 66.338357 
L 437.34593 66.257534 
L 438.34593 66.139015 
L 439.34593 66.068804 
L 440.34593 65.985542 
L 441.34593 65.9524 
L 442.34593 65.901163 
L 443.34593 65.832764 
L 444.34593 65.766549 
L 445.34593 65.689632 
L 446.666182 65.662316 
" clip-path="url(#pb4355ca3a2)" style="fill: none; stroke: #ff7f0e; stroke-opacity: 0.5; stroke-width: 0.2; stroke-linecap: square"/>
   </g>
   <g id="line2d_25">
    <path d="M 390.34593 131.891261 
L 391.34593 131.922698 
L 392.34593 131.959638 
L 393.34593 132.057385 
L 394.34593 132.089906 
L 395.34593 132.163531 
L 396.34593 132.202096 
L 397.34593 132.23751 
L 398.34593 132.29515 
L 399.34593 132.365536 
L 400.34593 132.4175 
L 401.34593 132.47659 
L 402.34593 132.564911 
L 403.34593 132.611055 
L 404.34593 132.653466 
L 405.34593 132.683959 
L 406.34593 132.710004 
L 407.34593 132.731204 
L 408.34593 132.785505 
L 409.34593 132.813442 
L 410.34593 132.843166 
L 411.34593 132.868561 
L 412.34593 132.879761 
L 413.34593 132.889885 
L 414.34593 132.889681 
L 415.34593 132.880171 
L 416.34593 132.868518 
L 417.34593 132.837488 
L 418.34593 132.82632 
L 419.34593 132.796203 
L 420.34593 132.736426 
L 421.34593 132.699234 
L 422.34593 132.660138 
L 423.34593 132.617699 
L 424.34593 132.584934 
L 425.34593 132.517507 
L 426.34593 132.478381 
L 427.34593 132.435707 
L 428.34593 132.365126 
L 429.34593 132.328735 
L 430.34593 132.270332 
L 431.34593 132.159379 
L 432.34593 132.088721 
L 433.34593 131.975781 
L 434.34593 131.930008 
L 435.34593 131.868725 
L 436.34593 131.820226 
L 437.34593 131.739403 
L 438.34593 131.620884 
L 439.34593 131.550674 
L 440.34593 131.467411 
L 441.34593 131.434269 
L 442.34593 131.383032 
L 443.34593 131.314634 
L 444.34593 131.248418 
L 445.34593 131.171501 
L 446.666182 131.144186 
" clip-path="url(#pb4355ca3a2)" style="fill: none; stroke: #ff7f0e; stroke-opacity: 0.5; stroke-width: 0.2; stroke-linecap: square"/>
   </g>
   <g id="line2d_26">
    <path d="M 390.34593 102.033766 
L 391.34593 102.065203 
L 392.34593 102.102143 
L 393.34593 102.19989 
L 394.34593 102.232411 
L 395.34593 102.306036 
L 396.34593 102.344601 
L 397.34593 102.380015 
L 398.34593 102.437655 
L 399.34593 102.508041 
L 400.34593 102.560005 
L 401.34593 102.619095 
L 402.34593 102.707416 
L 403.34593 102.75356 
L 404.34593 102.795971 
L 405.34593 102.826464 
L 406.34593 102.852509 
L 407.34593 102.873709 
L 408.34593 102.92801 
L 409.34593 102.955947 
L 410.34593 102.985671 
L 411.34593 103.011066 
L 412.34593 103.022266 
L 413.34593 103.03239 
L 414.34593 103.032186 
L 415.34593 103.022676 
L 416.34593 103.011023 
L 417.34593 102.979993 
L 418.34593 102.968825 
L 419.34593 102.938708 
L 420.34593 102.878931 
L 421.34593 102.841739 
L 422.34593 102.802643 
L 423.34593 102.760204 
L 424.34593 102.727439 
L 425.34593 102.660012 
L 426.34593 102.620886 
L 427.34593 102.578212 
L 428.34593 102.507631 
L 429.34593 102.47124 
L 430.34593 102.412837 
L 431.34593 102.301884 
L 432.34593 102.231226 
L 433.34593 102.118286 
L 434.34593 102.072513 
L 435.34593 102.01123 
L 436.34593 101.962731 
L 437.34593 101.881908 
L 438.34593 101.763389 
L 439.34593 101.693179 
L 440.34593 101.609916 
L 441.34593 101.576774 
L 442.34593 101.525537 
L 443.34593 101.457139 
L 444.34593 101.390923 
L 445.34593 101.314006 
L 446.666182 101.286691 
" clip-path="url(#pb4355ca3a2)" style="fill: none; stroke: #ff7f0e; stroke-opacity: 0.5; stroke-width: 0.2; stroke-linecap: square"/>
   </g>
   <g id="line2d_27">
    <path d="M 390.34593 286.582307 
L 391.34593 286.613744 
L 392.34593 286.650684 
L 393.34593 286.748431 
L 394.34593 286.780952 
L 395.34593 286.854577 
L 396.34593 286.893142 
L 397.34593 286.928556 
L 398.34593 286.986196 
L 399.34593 287.056582 
L 400.34593 287.108546 
L 401.34593 287.167636 
L 402.34593 287.255957 
L 403.34593 287.302101 
L 404.34593 287.344512 
L 405.34593 287.375005 
L 406.34593 287.401049 
L 407.34593 287.42225 
L 408.34593 287.476551 
L 409.34593 287.504488 
L 410.34593 287.534212 
L 411.34593 287.559607 
L 412.34593 287.570807 
L 413.34593 287.580931 
L 414.34593 287.580727 
L 415.34593 287.571217 
L 416.34593 287.559564 
L 417.34593 287.528534 
L 418.34593 287.517366 
L 419.34593 287.487249 
L 420.34593 287.427472 
L 421.34593 287.39028 
L 422.34593 287.351184 
L 423.34593 287.308745 
L 424.34593 287.27598 
L 425.34593 287.208553 
L 426.34593 287.169427 
L 427.34593 287.126753 
L 428.34593 287.056172 
L 429.34593 287.019781 
L 430.34593 286.961378 
L 431.34593 286.850425 
L 432.34593 286.779767 
L 433.34593 286.666827 
L 434.34593 286.621054 
L 435.34593 286.559771 
L 436.34593 286.511272 
L 437.34593 286.430449 
L 438.34593 286.31193 
L 439.34593 286.24172 
L 440.34593 286.158457 
L 441.34593 286.125315 
L 442.34593 286.074078 
L 443.34593 286.00568 
L 444.34593 285.939464 
L 445.34593 285.862547 
L 446.666182 285.835232 
" clip-path="url(#pb4355ca3a2)" style="fill: none; stroke: #ff7f0e; stroke-opacity: 0.5; stroke-width: 0.2; stroke-linecap: square"/>
   </g>
   <g id="line2d_28">
    <path d="M 390.34593 316.336803 
L 391.34593 316.368239 
L 392.34593 316.40518 
L 393.34593 316.502926 
L 394.34593 316.535448 
L 395.34593 316.609072 
L 396.34593 316.647638 
L 397.34593 316.683051 
L 398.34593 316.740691 
L 399.34593 316.811077 
L 400.34593 316.863041 
L 401.34593 316.922131 
L 402.34593 317.010452 
L 403.34593 317.056596 
L 404.34593 317.099007 
L 405.34593 317.1295 
L 406.34593 317.155545 
L 407.34593 317.176745 
L 408.34593 317.231046 
L 409.34593 317.258984 
L 410.34593 317.288708 
L 411.34593 317.314103 
L 412.34593 317.325303 
L 413.34593 317.335427 
L 414.34593 317.335223 
L 415.34593 317.325713 
L 416.34593 317.314059 
L 417.34593 317.28303 
L 418.34593 317.271862 
L 419.34593 317.241744 
L 420.34593 317.181967 
L 421.34593 317.144776 
L 422.34593 317.10568 
L 423.34593 317.06324 
L 424.34593 317.030475 
L 425.34593 316.963049 
L 426.34593 316.923923 
L 427.34593 316.881248 
L 428.34593 316.810668 
L 429.34593 316.774277 
L 430.34593 316.715874 
L 431.34593 316.604921 
L 432.34593 316.534263 
L 433.34593 316.421323 
L 434.34593 316.37555 
L 435.34593 316.314267 
L 436.34593 316.265767 
L 437.34593 316.184945 
L 438.34593 316.066426 
L 439.34593 315.996215 
L 440.34593 315.912953 
L 441.34593 315.879811 
L 442.34593 315.828574 
L 443.34593 315.760175 
L 444.34593 315.69396 
L 445.34593 315.617043 
L 446.666182 315.589727 
" clip-path="url(#pb4355ca3a2)" style="fill: none; stroke: #ff7f0e; stroke-opacity: 0.5; stroke-width: 0.2; stroke-linecap: square"/>
   </g>
   <g id="line2d_29">
    <path d="M 390.34593 228.062446 
L 391.34593 228.093883 
L 392.34593 228.130823 
L 393.34593 228.228569 
L 394.34593 228.261091 
L 395.34593 228.334716 
L 396.34593 228.373281 
L 397.34593 228.408695 
L 398.34593 228.466334 
L 399.34593 228.536721 
L 400.34593 228.588685 
L 401.34593 228.647775 
L 402.34593 228.736096 
L 403.34593 228.78224 
L 404.34593 228.824651 
L 405.34593 228.855144 
L 406.34593 228.881188 
L 407.34593 228.902389 
L 408.34593 228.95669 
L 409.34593 228.984627 
L 410.34593 229.014351 
L 411.34593 229.039746 
L 412.34593 229.050946 
L 413.34593 229.06107 
L 414.34593 229.060866 
L 415.34593 229.051356 
L 416.34593 229.039703 
L 417.34593 229.008673 
L 418.34593 228.997505 
L 419.34593 228.967388 
L 420.34593 228.907611 
L 421.34593 228.870419 
L 422.34593 228.831323 
L 423.34593 228.788884 
L 424.34593 228.756119 
L 425.34593 228.688692 
L 426.34593 228.649566 
L 427.34593 228.606892 
L 428.34593 228.536311 
L 429.34593 228.49992 
L 430.34593 228.441517 
L 431.34593 228.330564 
L 432.34593 228.259906 
L 433.34593 228.146966 
L 434.34593 228.101193 
L 435.34593 228.03991 
L 436.34593 227.991411 
L 437.34593 227.910588 
L 438.34593 227.792069 
L 439.34593 227.721859 
L 440.34593 227.638596 
L 441.34593 227.605454 
L 442.34593 227.554217 
L 443.34593 227.485819 
L 444.34593 227.419603 
L 445.34593 227.342686 
L 446.666182 227.315371 
" clip-path="url(#pb4355ca3a2)" style="fill: none; stroke: #ff7f0e; stroke-opacity: 0.5; stroke-width: 0.2; stroke-linecap: square"/>
   </g>
   <g id="line2d_30">
    <path d="M 390.34593 96.505457 
L 391.34593 96.536894 
L 392.34593 96.573834 
L 393.34593 96.671581 
L 394.34593 96.704102 
L 395.34593 96.777727 
L 396.34593 96.816293 
L 397.34593 96.851706 
L 398.34593 96.909346 
L 399.34593 96.979732 
L 400.34593 97.031696 
L 401.34593 97.090786 
L 402.34593 97.179107 
L 403.34593 97.225251 
L 404.34593 97.267662 
L 405.34593 97.298155 
L 406.34593 97.3242 
L 407.34593 97.3454 
L 408.34593 97.399701 
L 409.34593 97.427638 
L 410.34593 97.457362 
L 411.34593 97.482757 
L 412.34593 97.493958 
L 413.34593 97.504082 
L 414.34593 97.503877 
L 415.34593 97.494367 
L 416.34593 97.482714 
L 417.34593 97.451684 
L 418.34593 97.440517 
L 419.34593 97.410399 
L 420.34593 97.350622 
L 421.34593 97.313431 
L 422.34593 97.274334 
L 423.34593 97.231895 
L 424.34593 97.19913 
L 425.34593 97.131703 
L 426.34593 97.092577 
L 427.34593 97.049903 
L 428.34593 96.979322 
L 429.34593 96.942931 
L 430.34593 96.884528 
L 431.34593 96.773576 
L 432.34593 96.702917 
L 433.34593 96.589977 
L 434.34593 96.544205 
L 435.34593 96.482921 
L 436.34593 96.434422 
L 437.34593 96.353599 
L 438.34593 96.23508 
L 439.34593 96.16487 
L 440.34593 96.081607 
L 441.34593 96.048466 
L 442.34593 95.997228 
L 443.34593 95.92883 
L 444.34593 95.862614 
L 445.34593 95.785697 
L 446.666182 95.758382 
" clip-path="url(#pb4355ca3a2)" style="fill: none; stroke: #ff7f0e; stroke-opacity: 0.5; stroke-width: 0.2; stroke-linecap: square"/>
   </g>
   <g id="line2d_31">
    <path d="M 446.666182 237.070862 
L 445.666182 237.039426 
L 444.666182 237.002486 
L 443.666182 236.904739 
L 442.666182 236.872217 
L 441.666182 236.798593 
L 440.666182 236.760027 
L 439.666182 236.724614 
L 438.666182 236.666974 
L 437.666182 236.596588 
L 436.666182 236.544624 
L 435.666182 236.485534 
L 434.666182 236.397213 
L 433.666182 236.351069 
L 432.666182 236.308658 
L 431.666182 236.278165 
L 430.666182 236.25212 
L 429.666182 236.23092 
L 428.666182 236.176619 
L 427.666182 236.148681 
L 426.666182 236.118957 
L 425.666182 236.093563 
L 424.666182 236.082362 
L 423.666182 236.072238 
L 422.666182 236.072443 
L 421.666182 236.081952 
L 420.666182 236.093606 
L 419.666182 236.124635 
L 418.666182 236.135803 
L 417.666182 236.165921 
L 416.666182 236.225698 
L 415.666182 236.262889 
L 414.666182 236.301985 
L 413.666182 236.344425 
L 412.666182 236.37719 
L 411.666182 236.444616 
L 410.666182 236.483742 
L 409.666182 236.526417 
L 408.666182 236.596997 
L 407.666182 236.633388 
L 406.666182 236.691792 
L 405.666182 236.802744 
L 404.666182 236.873402 
L 403.666182 236.986342 
L 402.666182 237.032115 
L 401.666182 237.093398 
L 400.666182 237.141898 
L 399.666182 237.22272 
L 398.666182 237.341239 
L 397.666182 237.41145 
L 396.666182 237.494712 
L 395.666182 237.527854 
L 394.666182 237.579091 
L 393.666182 237.64749 
L 392.666182 237.713705 
L 391.666182 237.790622 
L 390.34593 237.817938 
" clip-path="url(#pb4355ca3a2)" style="fill: none; stroke: #2ca02c; stroke-opacity: 0.5; stroke-width: 0.2; stroke-linecap: square"/>
   </g>
   <g id="line2d_32">
    <path d="M 446.666182 59.248901 
L 445.666182 59.217464 
L 444.666182 59.180524 
L 443.666182 59.082777 
L 442.666182 59.050256 
L 441.666182 58.976631 
L 440.666182 58.938065 
L 439.666182 58.902652 
L 438.666182 58.845012 
L 437.666182 58.774626 
L 436.666182 58.722662 
L 435.666182 58.663572 
L 434.666182 58.575251 
L 433.666182 58.529107 
L 432.666182 58.486696 
L 431.666182 58.456203 
L 430.666182 58.430158 
L 429.666182 58.408958 
L 428.666182 58.354657 
L 427.666182 58.32672 
L 426.666182 58.296996 
L 425.666182 58.271601 
L 424.666182 58.2604 
L 423.666182 58.250276 
L 422.666182 58.250481 
L 421.666182 58.259991 
L 420.666182 58.271644 
L 419.666182 58.302674 
L 418.666182 58.313841 
L 417.666182 58.343959 
L 416.666182 58.403736 
L 415.666182 58.440927 
L 414.666182 58.480024 
L 413.666182 58.522463 
L 412.666182 58.555228 
L 411.666182 58.622655 
L 410.666182 58.661781 
L 409.666182 58.704455 
L 408.666182 58.775036 
L 407.666182 58.811427 
L 406.666182 58.86983 
L 405.666182 58.980782 
L 404.666182 59.051441 
L 403.666182 59.164381 
L 402.666182 59.210153 
L 401.666182 59.271437 
L 400.666182 59.319936 
L 399.666182 59.400759 
L 398.666182 59.519278 
L 397.666182 59.589488 
L 396.666182 59.672751 
L 395.666182 59.705893 
L 394.666182 59.75713 
L 393.666182 59.825528 
L 392.666182 59.891744 
L 391.666182 59.968661 
L 390.34593 59.995976 
" clip-path="url(#pb4355ca3a2)" style="fill: none; stroke: #2ca02c; stroke-opacity: 0.5; stroke-width: 0.2; stroke-linecap: square"/>
   </g>
   <g id="line2d_33">
    <path d="M 446.666182 317.294594 
L 445.666182 317.263158 
L 444.666182 317.226218 
L 443.666182 317.128471 
L 442.666182 317.09595 
L 441.666182 317.022325 
L 440.666182 316.983759 
L 439.666182 316.948346 
L 438.666182 316.890706 
L 437.666182 316.82032 
L 436.666182 316.768356 
L 435.666182 316.709266 
L 434.666182 316.620945 
L 433.666182 316.574801 
L 432.666182 316.53239 
L 431.666182 316.501897 
L 430.666182 316.475852 
L 429.666182 316.454652 
L 428.666182 316.400351 
L 427.666182 316.372413 
L 426.666182 316.342689 
L 425.666182 316.317295 
L 424.666182 316.306094 
L 423.666182 316.29597 
L 422.666182 316.296175 
L 421.666182 316.305685 
L 420.666182 316.317338 
L 419.666182 316.348367 
L 418.666182 316.359535 
L 417.666182 316.389653 
L 416.666182 316.44943 
L 415.666182 316.486621 
L 414.666182 316.525717 
L 413.666182 316.568157 
L 412.666182 316.600922 
L 411.666182 316.668349 
L 410.666182 316.707474 
L 409.666182 316.750149 
L 408.666182 316.82073 
L 407.666182 316.85712 
L 406.666182 316.915524 
L 405.666182 317.026476 
L 404.666182 317.097135 
L 403.666182 317.210074 
L 402.666182 317.255847 
L 401.666182 317.317131 
L 400.666182 317.36563 
L 399.666182 317.446453 
L 398.666182 317.564971 
L 397.666182 317.635182 
L 396.666182 317.718445 
L 395.666182 317.751586 
L 394.666182 317.802824 
L 393.666182 317.871222 
L 392.666182 317.937437 
L 391.666182 318.014354 
L 390.34593 318.04167 
" clip-path="url(#pb4355ca3a2)" style="fill: none; stroke: #2ca02c; stroke-opacity: 0.5; stroke-width: 0.2; stroke-linecap: square"/>
   </g>
   <g id="line2d_34">
    <path d="M 446.666182 311.457738 
L 445.666182 311.426301 
L 444.666182 311.389361 
L 443.666182 311.291614 
L 442.666182 311.259093 
L 441.666182 311.185468 
L 440.666182 311.146902 
L 439.666182 311.111489 
L 438.666182 311.053849 
L 437.666182 310.983463 
L 436.666182 310.931499 
L 435.666182 310.872409 
L 434.666182 310.784088 
L 433.666182 310.737944 
L 432.666182 310.695533 
L 431.666182 310.66504 
L 430.666182 310.638995 
L 429.666182 310.617795 
L 428.666182 310.563494 
L 427.666182 310.535557 
L 426.666182 310.505833 
L 425.666182 310.480438 
L 424.666182 310.469237 
L 423.666182 310.459113 
L 422.666182 310.459318 
L 421.666182 310.468828 
L 420.666182 310.480481 
L 419.666182 310.51151 
L 418.666182 310.522678 
L 417.666182 310.552796 
L 416.666182 310.612573 
L 415.666182 310.649764 
L 414.666182 310.68886 
L 413.666182 310.7313 
L 412.666182 310.764065 
L 411.666182 310.831492 
L 410.666182 310.870618 
L 409.666182 310.913292 
L 408.666182 310.983873 
L 407.666182 311.020264 
L 406.666182 311.078667 
L 405.666182 311.189619 
L 404.666182 311.260278 
L 403.666182 311.373217 
L 402.666182 311.41899 
L 401.666182 311.480274 
L 400.666182 311.528773 
L 399.666182 311.609596 
L 398.666182 311.728115 
L 397.666182 311.798325 
L 396.666182 311.881588 
L 395.666182 311.914729 
L 394.666182 311.965967 
L 393.666182 312.034365 
L 392.666182 312.100581 
L 391.666182 312.177498 
L 390.34593 312.204813 
" clip-path="url(#pb4355ca3a2)" style="fill: none; stroke: #2ca02c; stroke-opacity: 0.5; stroke-width: 0.2; stroke-linecap: square"/>
   </g>
   <g id="line2d_35">
    <path d="M 446.666182 240.636873 
L 445.666182 240.605436 
L 444.666182 240.568496 
L 443.666182 240.470749 
L 442.666182 240.438228 
L 441.666182 240.364603 
L 440.666182 240.326038 
L 439.666182 240.290624 
L 438.666182 240.232984 
L 437.666182 240.162598 
L 436.666182 240.110634 
L 435.666182 240.051544 
L 434.666182 239.963223 
L 433.666182 239.917079 
L 432.666182 239.874668 
L 431.666182 239.844175 
L 430.666182 239.818131 
L 429.666182 239.79693 
L 428.666182 239.742629 
L 427.666182 239.714692 
L 426.666182 239.684968 
L 425.666182 239.659573 
L 424.666182 239.648373 
L 423.666182 239.638249 
L 422.666182 239.638453 
L 421.666182 239.647963 
L 420.666182 239.659616 
L 419.666182 239.690646 
L 418.666182 239.701814 
L 417.666182 239.731931 
L 416.666182 239.791708 
L 415.666182 239.8289 
L 414.666182 239.867996 
L 413.666182 239.910435 
L 412.666182 239.9432 
L 411.666182 240.010627 
L 410.666182 240.049753 
L 409.666182 240.092427 
L 408.666182 240.163008 
L 407.666182 240.199399 
L 406.666182 240.257802 
L 405.666182 240.368755 
L 404.666182 240.439413 
L 403.666182 240.552353 
L 402.666182 240.598126 
L 401.666182 240.659409 
L 400.666182 240.707908 
L 399.666182 240.788731 
L 398.666182 240.90725 
L 397.666182 240.97746 
L 396.666182 241.060723 
L 395.666182 241.093865 
L 394.666182 241.145102 
L 393.666182 241.2135 
L 392.666182 241.279716 
L 391.666182 241.356633 
L 390.34593 241.383948 
" clip-path="url(#pb4355ca3a2)" style="fill: none; stroke: #2ca02c; stroke-opacity: 0.5; stroke-width: 0.2; stroke-linecap: square"/>
   </g>
   <g id="line2d_36">
    <path d="M 446.666182 232.013575 
L 445.666182 231.982138 
L 444.666182 231.945198 
L 443.666182 231.847451 
L 442.666182 231.81493 
L 441.666182 231.741305 
L 440.666182 231.702739 
L 439.666182 231.667326 
L 438.666182 231.609686 
L 437.666182 231.5393 
L 436.666182 231.487336 
L 435.666182 231.428246 
L 434.666182 231.339925 
L 433.666182 231.293781 
L 432.666182 231.25137 
L 431.666182 231.220877 
L 430.666182 231.194832 
L 429.666182 231.173632 
L 428.666182 231.119331 
L 427.666182 231.091394 
L 426.666182 231.06167 
L 425.666182 231.036275 
L 424.666182 231.025074 
L 423.666182 231.01495 
L 422.666182 231.015155 
L 421.666182 231.024665 
L 420.666182 231.036318 
L 419.666182 231.067347 
L 418.666182 231.078515 
L 417.666182 231.108633 
L 416.666182 231.16841 
L 415.666182 231.205601 
L 414.666182 231.244697 
L 413.666182 231.287137 
L 412.666182 231.319902 
L 411.666182 231.387329 
L 410.666182 231.426455 
L 409.666182 231.469129 
L 408.666182 231.53971 
L 407.666182 231.576101 
L 406.666182 231.634504 
L 405.666182 231.745456 
L 404.666182 231.816115 
L 403.666182 231.929055 
L 402.666182 231.974827 
L 401.666182 232.036111 
L 400.666182 232.08461 
L 399.666182 232.165433 
L 398.666182 232.283952 
L 397.666182 232.354162 
L 396.666182 232.437425 
L 395.666182 232.470566 
L 394.666182 232.521804 
L 393.666182 232.590202 
L 392.666182 232.656418 
L 391.666182 232.733335 
L 390.34593 232.76065 
" clip-path="url(#pb4355ca3a2)" style="fill: none; stroke: #2ca02c; stroke-opacity: 0.5; stroke-width: 0.2; stroke-linecap: square"/>
   </g>
   <g id="line2d_37">
    <path d="M 446.666182 259.640281 
L 445.666182 259.608844 
L 444.666182 259.571904 
L 443.666182 259.474158 
L 442.666182 259.441636 
L 441.666182 259.368011 
L 440.666182 259.329446 
L 439.666182 259.294032 
L 438.666182 259.236393 
L 437.666182 259.166006 
L 436.666182 259.114042 
L 435.666182 259.054952 
L 434.666182 258.966631 
L 433.666182 258.920487 
L 432.666182 258.878076 
L 431.666182 258.847584 
L 430.666182 258.821539 
L 429.666182 258.800338 
L 428.666182 258.746037 
L 427.666182 258.7181 
L 426.666182 258.688376 
L 425.666182 258.662981 
L 424.666182 258.651781 
L 423.666182 258.641657 
L 422.666182 258.641861 
L 421.666182 258.651371 
L 420.666182 258.663024 
L 419.666182 258.694054 
L 418.666182 258.705222 
L 417.666182 258.735339 
L 416.666182 258.795116 
L 415.666182 258.832308 
L 414.666182 258.871404 
L 413.666182 258.913843 
L 412.666182 258.946608 
L 411.666182 259.014035 
L 410.666182 259.053161 
L 409.666182 259.095835 
L 408.666182 259.166416 
L 407.666182 259.202807 
L 406.666182 259.26121 
L 405.666182 259.372163 
L 404.666182 259.442821 
L 403.666182 259.555761 
L 402.666182 259.601534 
L 401.666182 259.662817 
L 400.666182 259.711316 
L 399.666182 259.792139 
L 398.666182 259.910658 
L 397.666182 259.980868 
L 396.666182 260.064131 
L 395.666182 260.097273 
L 394.666182 260.14851 
L 393.666182 260.216908 
L 392.666182 260.283124 
L 391.666182 260.360041 
L 390.34593 260.387356 
" clip-path="url(#pb4355ca3a2)" style="fill: none; stroke: #2ca02c; stroke-opacity: 0.5; stroke-width: 0.2; stroke-linecap: square"/>
   </g>
   <g id="line2d_38">
    <path d="M 446.666182 280.0895 
L 445.666182 280.058064 
L 444.666182 280.021123 
L 443.666182 279.923377 
L 442.666182 279.890855 
L 441.666182 279.81723 
L 440.666182 279.778665 
L 439.666182 279.743252 
L 438.666182 279.685612 
L 437.666182 279.615226 
L 436.666182 279.563261 
L 435.666182 279.504172 
L 434.666182 279.415851 
L 433.666182 279.369706 
L 432.666182 279.327295 
L 431.666182 279.296803 
L 430.666182 279.270758 
L 429.666182 279.249558 
L 428.666182 279.195257 
L 427.666182 279.167319 
L 426.666182 279.137595 
L 425.666182 279.1122 
L 424.666182 279.101 
L 423.666182 279.090876 
L 422.666182 279.09108 
L 421.666182 279.10059 
L 420.666182 279.112244 
L 419.666182 279.143273 
L 418.666182 279.154441 
L 417.666182 279.184558 
L 416.666182 279.244335 
L 415.666182 279.281527 
L 414.666182 279.320623 
L 413.666182 279.363063 
L 412.666182 279.395828 
L 411.666182 279.463254 
L 410.666182 279.50238 
L 409.666182 279.545055 
L 408.666182 279.615635 
L 407.666182 279.652026 
L 406.666182 279.710429 
L 405.666182 279.821382 
L 404.666182 279.89204 
L 403.666182 280.00498 
L 402.666182 280.050753 
L 401.666182 280.112036 
L 400.666182 280.160535 
L 399.666182 280.241358 
L 398.666182 280.359877 
L 397.666182 280.430088 
L 396.666182 280.51335 
L 395.666182 280.546492 
L 394.666182 280.597729 
L 393.666182 280.666128 
L 392.666182 280.732343 
L 391.666182 280.80926 
L 390.34593 280.836576 
" clip-path="url(#pb4355ca3a2)" style="fill: none; stroke: #2ca02c; stroke-opacity: 0.5; stroke-width: 0.2; stroke-linecap: square"/>
   </g>
   <g id="line2d_39">
    <path d="M 446.666182 99.806122 
L 445.666182 99.774685 
L 444.666182 99.737745 
L 443.666182 99.639998 
L 442.666182 99.607477 
L 441.666182 99.533852 
L 440.666182 99.495287 
L 439.666182 99.459873 
L 438.666182 99.402233 
L 437.666182 99.331847 
L 436.666182 99.279883 
L 435.666182 99.220793 
L 434.666182 99.132472 
L 433.666182 99.086328 
L 432.666182 99.043917 
L 431.666182 99.013424 
L 430.666182 98.987379 
L 429.666182 98.966179 
L 428.666182 98.911878 
L 427.666182 98.883941 
L 426.666182 98.854217 
L 425.666182 98.828822 
L 424.666182 98.817622 
L 423.666182 98.807498 
L 422.666182 98.807702 
L 421.666182 98.817212 
L 420.666182 98.828865 
L 419.666182 98.859895 
L 418.666182 98.871063 
L 417.666182 98.90118 
L 416.666182 98.960957 
L 415.666182 98.998149 
L 414.666182 99.037245 
L 413.666182 99.079684 
L 412.666182 99.112449 
L 411.666182 99.179876 
L 410.666182 99.219002 
L 409.666182 99.261676 
L 408.666182 99.332257 
L 407.666182 99.368648 
L 406.666182 99.427051 
L 405.666182 99.538004 
L 404.666182 99.608662 
L 403.666182 99.721602 
L 402.666182 99.767375 
L 401.666182 99.828658 
L 400.666182 99.877157 
L 399.666182 99.95798 
L 398.666182 100.076499 
L 397.666182 100.146709 
L 396.666182 100.229972 
L 395.666182 100.263114 
L 394.666182 100.314351 
L 393.666182 100.382749 
L 392.666182 100.448965 
L 391.666182 100.525882 
L 390.34593 100.553197 
" clip-path="url(#pb4355ca3a2)" style="fill: none; stroke: #2ca02c; stroke-opacity: 0.5; stroke-width: 0.2; stroke-linecap: square"/>
   </g>
   <g id="line2d_40">
    <path d="M 446.666182 278.468368 
L 445.666182 278.436932 
L 444.666182 278.399992 
L 443.666182 278.302245 
L 442.666182 278.269723 
L 441.666182 278.196099 
L 440.666182 278.157533 
L 439.666182 278.12212 
L 438.666182 278.06448 
L 437.666182 277.994094 
L 436.666182 277.94213 
L 435.666182 277.88304 
L 434.666182 277.794719 
L 433.666182 277.748575 
L 432.666182 277.706164 
L 431.666182 277.675671 
L 430.666182 277.649626 
L 429.666182 277.628426 
L 428.666182 277.574125 
L 427.666182 277.546187 
L 426.666182 277.516463 
L 425.666182 277.491069 
L 424.666182 277.479868 
L 423.666182 277.469744 
L 422.666182 277.469948 
L 421.666182 277.479458 
L 420.666182 277.491112 
L 419.666182 277.522141 
L 418.666182 277.533309 
L 417.666182 277.563427 
L 416.666182 277.623204 
L 415.666182 277.660395 
L 414.666182 277.699491 
L 413.666182 277.741931 
L 412.666182 277.774696 
L 411.666182 277.842122 
L 410.666182 277.881248 
L 409.666182 277.923923 
L 408.666182 277.994503 
L 407.666182 278.030894 
L 406.666182 278.089298 
L 405.666182 278.20025 
L 404.666182 278.270908 
L 403.666182 278.383848 
L 402.666182 278.429621 
L 401.666182 278.490904 
L 400.666182 278.539404 
L 399.666182 278.620226 
L 398.666182 278.738745 
L 397.666182 278.808956 
L 396.666182 278.892218 
L 395.666182 278.92536 
L 394.666182 278.976597 
L 393.666182 279.044996 
L 392.666182 279.111211 
L 391.666182 279.188128 
L 390.34593 279.215444 
" clip-path="url(#pb4355ca3a2)" style="fill: none; stroke: #2ca02c; stroke-opacity: 0.5; stroke-width: 0.2; stroke-linecap: square"/>
   </g>
   <g id="patch_3">
    <path d="M 72.103551 7.2 
L 72.103551 318.021875 
M 194.769099 7.2 
L 194.769099 318.021875 
" clip-path="url(#pb4355ca3a2)" style="fill: none; stroke: #ffffff; stroke-width: 3; stroke-linejoin: miter"/>
    <path d="M 72.103551 7.2 
L 72.103551 318.021875 
M 194.769099 7.2 
L 194.769099 318.021875 
" clip-path="url(#pb4355ca3a2)" style="fill: none; stroke: #1f77b4; stroke-linejoin: miter"/>
   </g>
   <g id="FillBetweenPolyCollection_1">
    <path d="M 194.769099 7.2 
L 72.103551 7.2 
L 72.103551 318.021875 
L 194.769099 318.021875 
L 194.769099 318.021875 
L 194.769099 7.2 
z
" clip-path="url(#pb4355ca3a2)" style="fill: #1f77b4; fill-opacity: 0.5"/>
   </g>
   <g id="patch_4">
    <path d="M 262.150038 7.2 
L 262.150038 318.021875 
M 384.815587 7.2 
L 384.815587 318.021875 
" clip-path="url(#pb4355ca3a2)" style="fill: none; stroke: #ffffff; stroke-width: 3; stroke-linejoin: miter"/>
    <path d="M 262.150038 7.2 
L 262.150038 318.021875 
M 384.815587 7.2 
L 384.815587 318.021875 
" clip-path="url(#pb4355ca3a2)" style="fill: none; stroke: #ff7f0e; stroke-linejoin: miter"/>
   </g>
   <g id="FillBetweenPolyCollection_2">
    <path d="M 384.815587 7.2 
L 262.150038 7.2 
L 262.150038 318.021875 
L 384.815587 318.021875 
L 384.815587 318.021875 
L 384.815587 7.2 
z
" clip-path="url(#pb4355ca3a2)" style="fill: #ff7f0e; fill-opacity: 0.5"/>
   </g>
   <g id="patch_5">
    <path d="M 452.196526 7.2 
L 452.196526 318.021875 
M 574.862074 7.2 
L 574.862074 318.021875 
" clip-path="url(#pb4355ca3a2)" style="fill: none; stroke: #ffffff; stroke-width: 3; stroke-linejoin: miter"/>
    <path d="M 452.196526 7.2 
L 452.196526 318.021875 
M 574.862074 7.2 
L 574.862074 318.021875 
" clip-path="url(#pb4355ca3a2)" style="fill: none; stroke: #2ca02c; stroke-linejoin: miter"/>
   </g>
   <g id="FillBetweenPolyCollection_3">
    <path d="M 574.862074 7.2 
L 452.196526 7.2 
L 452.196526 318.021875 
L 574.862074 318.021875 
L 574.862074 318.021875 
L 574.862074 7.2 
z
" clip-path="url(#pb4355ca3a2)" style="fill: #2ca02c; fill-opacity: 0.5"/>
   </g>
   <g id="matplotlib.axis_1">
    <g id="xtick_1">
     <g id="line2d_41"/>
     <g id="text_1">
      <!-- d0 -->
      <g transform="translate(127.080856 329.120312) scale(0.1 -0.1)">
       <defs>
        <path id="DejaVuSans-64" d="M 2906 2969 
L 2906 4863 
L 3481 4863 
L 3481 0 
L 2906 0 
L 2906 525 
Q 2725 213 2448 61 
Q 2172 -91 1784 -91 
Q 1150 -91 751 415 
Q 353 922 353 1747 
Q 353 2572 751 3078 
Q 1150 3584 1784 3584 
Q 2172 3584 2448 3432 
Q 2725 3281 2906 2969 
z
M 947 1747 
Q 947 1113 1208 752 
Q 1469 391 1925 391 
Q 2381 391 2643 752 
Q 2906 1113 2906 1747 
Q 2906 2381 2643 2742 
Q 2381 3103 1925 3103 
Q 1469 3103 1208 2742 
Q 947 2381 947 1747 
z
" transform="scale(0.015625)"/>
        <path id="DejaVuSans-30" d="M 2034 4250 
Q 1547 4250 1301 3770 
Q 1056 3291 1056 2328 
Q 1056 1369 1301 889 
Q 1547 409 2034 409 
Q 2525 409 2770 889 
Q 3016 1369 3016 2328 
Q 3016 3291 2770 3770 
Q 2525 4250 2034 4250 
z
M 2034 4750 
Q 2819 4750 3233 4129 
Q 3647 3509 3647 2328 
Q 3647 1150 3233 529 
Q 2819 -91 2034 -91 
Q 1250 -91 836 529 
Q 422 1150 422 2328 
Q 422 3509 836 4129 
Q 1250 4750 2034 4750 
z
" transform="scale(0.015625)"/>
       </defs>
       <use xlink:href="#DejaVuSans-64"/>
       <use xlink:href="#DejaVuSans-30" transform="translate(63.476562 0)"/>
      </g>
     </g>
    </g>
    <g id="xtick_2">
     <g id="line2d_42"/>
     <g id="text_2">
      <!-- d1 -->
      <g transform="translate(317.127344 329.120312) scale(0.1 -0.1)">
       <defs>
        <path id="DejaVuSans-31" d="M 794 531 
L 1825 531 
L 1825 4091 
L 703 3866 
L 703 4441 
L 1819 4666 
L 2450 4666 
L 2450 531 
L 3481 531 
L 3481 0 
L 794 0 
L 794 531 
z
" transform="scale(0.015625)"/>
       </defs>
       <use xlink:href="#DejaVuSans-64"/>
       <use xlink:href="#DejaVuSans-31" transform="translate(63.476562 0)"/>
      </g>
     </g>
    </g>
    <g id="xtick_3">
     <g id="line2d_43"/>
     <g id="text_3">
      <!-- d2 -->
      <g transform="translate(507.173831 329.120312) scale(0.1 -0.1)">
       <defs>
        <path id="DejaVuSans-32" d="M 1228 531 
L 3431 531 
L 3431 0 
L 469 0 
L 469 531 
Q 828 903 1448 1529 
Q 2069 2156 2228 2338 
Q 2531 2678 2651 2914 
Q 2772 3150 2772 3378 
Q 2772 3750 2511 3984 
Q 2250 4219 1831 4219 
Q 1534 4219 1204 4116 
Q 875 4013 500 3803 
L 500 4441 
Q 881 4594 1212 4672 
Q 1544 4750 1819 4750 
Q 2544 4750 2975 4387 
Q 3406 4025 3406 3419 
Q 3406 3131 3298 2873 
Q 3191 2616 2906 2266 
Q 2828 2175 2409 1742 
Q 1991 1309 1228 531 
z
" transform="scale(0.015625)"/>
       </defs>
       <use xlink:href="#DejaVuSans-64"/>
       <use xlink:href="#DejaVuSans-32" transform="translate(63.476562 0)"/>
      </g>
     </g>
    </g>
   </g>
   <g id="matplotlib.axis_2">
    <g id="ytick_1">
     <g id="line2d_44">
      <defs>
       <path id="m9f72df2352" d="M 0 0 
L -3.5 0 
" style="stroke: #000000; stroke-width: 0.8"/>
      </defs>
      <g>
       <use xlink:href="#m9f72df2352" x="46.965625" y="318.021875" style="stroke: #000000; stroke-width: 0.8"/>
      </g>
     </g>
     <g id="text_4">
      <!-- 0 -->
      <g transform="translate(33.603125 321.821094) scale(0.1 -0.1)">
       <use xlink:href="#DejaVuSans-30"/>
      </g>
     </g>
    </g>
    <g id="ytick_2">
     <g id="line2d_45">
      <g>
       <use xlink:href="#m9f72df2352" x="46.965625" y="263.009154" style="stroke: #000000; stroke-width: 0.8"/>
      </g>
     </g>
     <g id="text_5">
      <!-- 20 -->
      <g transform="translate(27.240625 266.808373) scale(0.1 -0.1)">
       <use xlink:href="#DejaVuSans-32"/>
       <use xlink:href="#DejaVuSans-30" transform="translate(63.623047 0)"/>
      </g>
     </g>
    </g>
    <g id="ytick_3">
     <g id="line2d_46">
      <g>
       <use xlink:href="#m9f72df2352" x="46.965625" y="207.996433" style="stroke: #000000; stroke-width: 0.8"/>
      </g>
     </g>
     <g id="text_6">
      <!-- 40 -->
      <g transform="translate(27.240625 211.795651) scale(0.1 -0.1)">
       <defs>
        <path id="DejaVuSans-34" d="M 2419 4116 
L 825 1625 
L 2419 1625 
L 2419 4116 
z
M 2253 4666 
L 3047 4666 
L 3047 1625 
L 3713 1625 
L 3713 1100 
L 3047 1100 
L 3047 0 
L 2419 0 
L 2419 1100 
L 313 1100 
L 313 1709 
L 2253 4666 
z
" transform="scale(0.015625)"/>
       </defs>
       <use xlink:href="#DejaVuSans-34"/>
       <use xlink:href="#DejaVuSans-30" transform="translate(63.623047 0)"/>
      </g>
     </g>
    </g>
    <g id="ytick_4">
     <g id="line2d_47">
      <g>
       <use xlink:href="#m9f72df2352" x="46.965625" y="152.983711" style="stroke: #000000; stroke-width: 0.8"/>
      </g>
     </g>
     <g id="text_7">
      <!-- 60 -->
      <g transform="translate(27.240625 156.78293) scale(0.1 -0.1)">
       <defs>
        <path id="DejaVuSans-36" d="M 2113 2584 
Q 1688 2584 1439 2293 
Q 1191 2003 1191 1497 
Q 1191 994 1439 701 
Q 1688 409 2113 409 
Q 2538 409 2786 701 
Q 3034 994 3034 1497 
Q 3034 2003 2786 2293 
Q 2538 2584 2113 2584 
z
M 3366 4563 
L 3366 3988 
Q 3128 4100 2886 4159 
Q 2644 4219 2406 4219 
Q 1781 4219 1451 3797 
Q 1122 3375 1075 2522 
Q 1259 2794 1537 2939 
Q 1816 3084 2150 3084 
Q 2853 3084 3261 2657 
Q 3669 2231 3669 1497 
Q 3669 778 3244 343 
Q 2819 -91 2113 -91 
Q 1303 -91 875 529 
Q 447 1150 447 2328 
Q 447 3434 972 4092 
Q 1497 4750 2381 4750 
Q 2619 4750 2861 4703 
Q 3103 4656 3366 4563 
z
" transform="scale(0.015625)"/>
       </defs>
       <use xlink:href="#DejaVuSans-36"/>
       <use xlink:href="#DejaVuSans-30" transform="translate(63.623047 0)"/>
      </g>
     </g>
    </g>
    <g id="ytick_5">
     <g id="line2d_48">
      <g>
       <use xlink:href="#m9f72df2352" x="46.965625" y="97.97099" style="stroke: #000000; stroke-width: 0.8"/>
      </g>
     </g>
     <g id="text_8">
      <!-- 80 -->
      <g transform="translate(27.240625 101.770209) scale(0.1 -0.1)">
       <defs>
        <path id="DejaVuSans-38" d="M 2034 2216 
Q 1584 2216 1326 1975 
Q 1069 1734 1069 1313 
Q 1069 891 1326 650 
Q 1584 409 2034 409 
Q 2484 409 2743 651 
Q 3003 894 3003 1313 
Q 3003 1734 2745 1975 
Q 2488 2216 2034 2216 
z
M 1403 2484 
Q 997 2584 770 2862 
Q 544 3141 544 3541 
Q 544 4100 942 4425 
Q 1341 4750 2034 4750 
Q 2731 4750 3128 4425 
Q 3525 4100 3525 3541 
Q 3525 3141 3298 2862 
Q 3072 2584 2669 2484 
Q 3125 2378 3379 2068 
Q 3634 1759 3634 1313 
Q 3634 634 3220 271 
Q 2806 -91 2034 -91 
Q 1263 -91 848 271 
Q 434 634 434 1313 
Q 434 1759 690 2068 
Q 947 2378 1403 2484 
z
M 1172 3481 
Q 1172 3119 1398 2916 
Q 1625 2713 2034 2713 
Q 2441 2713 2670 2916 
Q 2900 3119 2900 3481 
Q 2900 3844 2670 4047 
Q 2441 4250 2034 4250 
Q 1625 4250 1398 4047 
Q 1172 3844 1172 3481 
z
" transform="scale(0.015625)"/>
       </defs>
       <use xlink:href="#DejaVuSans-38"/>
       <use xlink:href="#DejaVuSans-30" transform="translate(63.623047 0)"/>
      </g>
     </g>
    </g>
    <g id="ytick_6">
     <g id="line2d_49">
      <g>
       <use xlink:href="#m9f72df2352" x="46.965625" y="42.958269" style="stroke: #000000; stroke-width: 0.8"/>
      </g>
     </g>
     <g id="text_9">
      <!-- 100 -->
      <g transform="translate(20.878125 46.757488) scale(0.1 -0.1)">
       <use xlink:href="#DejaVuSans-31"/>
       <use xlink:href="#DejaVuSans-30" transform="translate(63.623047 0)"/>
       <use xlink:href="#DejaVuSans-30" transform="translate(127.246094 0)"/>
      </g>
     </g>
    </g>
    <g id="text_10">
     <!-- time ago (generations) -->
     <g transform="translate(14.798438 220.082031) rotate(-90) scale(0.1 -0.1)">
      <defs>
       <path id="DejaVuSans-74" d="M 1172 4494 
L 1172 3500 
L 2356 3500 
L 2356 3053 
L 1172 3053 
L 1172 1153 
Q 1172 725 1289 603 
Q 1406 481 1766 481 
L 2356 481 
L 2356 0 
L 1766 0 
Q 1100 0 847 248 
Q 594 497 594 1153 
L 594 3053 
L 172 3053 
L 172 3500 
L 594 3500 
L 594 4494 
L 1172 4494 
z
" transform="scale(0.015625)"/>
       <path id="DejaVuSans-69" d="M 603 3500 
L 1178 3500 
L 1178 0 
L 603 0 
L 603 3500 
z
M 603 4863 
L 1178 4863 
L 1178 4134 
L 603 4134 
L 603 4863 
z
" transform="scale(0.015625)"/>
       <path id="DejaVuSans-6d" d="M 3328 2828 
Q 3544 3216 3844 3400 
Q 4144 3584 4550 3584 
Q 5097 3584 5394 3201 
Q 5691 2819 5691 2113 
L 5691 0 
L 5113 0 
L 5113 2094 
Q 5113 2597 4934 2840 
Q 4756 3084 4391 3084 
Q 3944 3084 3684 2787 
Q 3425 2491 3425 1978 
L 3425 0 
L 2847 0 
L 2847 2094 
Q 2847 2600 2669 2842 
Q 2491 3084 2119 3084 
Q 1678 3084 1418 2786 
Q 1159 2488 1159 1978 
L 1159 0 
L 581 0 
L 581 3500 
L 1159 3500 
L 1159 2956 
Q 1356 3278 1631 3431 
Q 1906 3584 2284 3584 
Q 2666 3584 2933 3390 
Q 3200 3197 3328 2828 
z
" transform="scale(0.015625)"/>
       <path id="DejaVuSans-65" d="M 3597 1894 
L 3597 1613 
L 953 1613 
Q 991 1019 1311 708 
Q 1631 397 2203 397 
Q 2534 397 2845 478 
Q 3156 559 3463 722 
L 3463 178 
Q 3153 47 2828 -22 
Q 2503 -91 2169 -91 
Q 1331 -91 842 396 
Q 353 884 353 1716 
Q 353 2575 817 3079 
Q 1281 3584 2069 3584 
Q 2775 3584 3186 3129 
Q 3597 2675 3597 1894 
z
M 3022 2063 
Q 3016 2534 2758 2815 
Q 2500 3097 2075 3097 
Q 1594 3097 1305 2825 
Q 1016 2553 972 2059 
L 3022 2063 
z
" transform="scale(0.015625)"/>
       <path id="DejaVuSans-20" transform="scale(0.015625)"/>
       <path id="DejaVuSans-61" d="M 2194 1759 
Q 1497 1759 1228 1600 
Q 959 1441 959 1056 
Q 959 750 1161 570 
Q 1363 391 1709 391 
Q 2188 391 2477 730 
Q 2766 1069 2766 1631 
L 2766 1759 
L 2194 1759 
z
M 3341 1997 
L 3341 0 
L 2766 0 
L 2766 531 
Q 2569 213 2275 61 
Q 1981 -91 1556 -91 
Q 1019 -91 701 211 
Q 384 513 384 1019 
Q 384 1609 779 1909 
Q 1175 2209 1959 2209 
L 2766 2209 
L 2766 2266 
Q 2766 2663 2505 2880 
Q 2244 3097 1772 3097 
Q 1472 3097 1187 3025 
Q 903 2953 641 2809 
L 641 3341 
Q 956 3463 1253 3523 
Q 1550 3584 1831 3584 
Q 2591 3584 2966 3190 
Q 3341 2797 3341 1997 
z
" transform="scale(0.015625)"/>
       <path id="DejaVuSans-67" d="M 2906 1791 
Q 2906 2416 2648 2759 
Q 2391 3103 1925 3103 
Q 1463 3103 1205 2759 
Q 947 2416 947 1791 
Q 947 1169 1205 825 
Q 1463 481 1925 481 
Q 2391 481 2648 825 
Q 2906 1169 2906 1791 
z
M 3481 434 
Q 3481 -459 3084 -895 
Q 2688 -1331 1869 -1331 
Q 1566 -1331 1297 -1286 
Q 1028 -1241 775 -1147 
L 775 -588 
Q 1028 -725 1275 -790 
Q 1522 -856 1778 -856 
Q 2344 -856 2625 -561 
Q 2906 -266 2906 331 
L 2906 616 
Q 2728 306 2450 153 
Q 2172 0 1784 0 
Q 1141 0 747 490 
Q 353 981 353 1791 
Q 353 2603 747 3093 
Q 1141 3584 1784 3584 
Q 2172 3584 2450 3431 
Q 2728 3278 2906 2969 
L 2906 3500 
L 3481 3500 
L 3481 434 
z
" transform="scale(0.015625)"/>
       <path id="DejaVuSans-6f" d="M 1959 3097 
Q 1497 3097 1228 2736 
Q 959 2375 959 1747 
Q 959 1119 1226 758 
Q 1494 397 1959 397 
Q 2419 397 2687 759 
Q 2956 1122 2956 1747 
Q 2956 2369 2687 2733 
Q 2419 3097 1959 3097 
z
M 1959 3584 
Q 2709 3584 3137 3096 
Q 3566 2609 3566 1747 
Q 3566 888 3137 398 
Q 2709 -91 1959 -91 
Q 1206 -91 779 398 
Q 353 888 353 1747 
Q 353 2609 779 3096 
Q 1206 3584 1959 3584 
z
" transform="scale(0.015625)"/>
       <path id="DejaVuSans-28" d="M 1984 4856 
Q 1566 4138 1362 3434 
Q 1159 2731 1159 2009 
Q 1159 1288 1364 580 
Q 1569 -128 1984 -844 
L 1484 -844 
Q 1016 -109 783 600 
Q 550 1309 550 2009 
Q 550 2706 781 3412 
Q 1013 4119 1484 4856 
L 1984 4856 
z
" transform="scale(0.015625)"/>
       <path id="DejaVuSans-6e" d="M 3513 2113 
L 3513 0 
L 2938 0 
L 2938 2094 
Q 2938 2591 2744 2837 
Q 2550 3084 2163 3084 
Q 1697 3084 1428 2787 
Q 1159 2491 1159 1978 
L 1159 0 
L 581 0 
L 581 3500 
L 1159 3500 
L 1159 2956 
Q 1366 3272 1645 3428 
Q 1925 3584 2291 3584 
Q 2894 3584 3203 3211 
Q 3513 2838 3513 2113 
z
" transform="scale(0.015625)"/>
       <path id="DejaVuSans-72" d="M 2631 2963 
Q 2534 3019 2420 3045 
Q 2306 3072 2169 3072 
Q 1681 3072 1420 2755 
Q 1159 2438 1159 1844 
L 1159 0 
L 581 0 
L 581 3500 
L 1159 3500 
L 1159 2956 
Q 1341 3275 1631 3429 
Q 1922 3584 2338 3584 
Q 2397 3584 2469 3576 
Q 2541 3569 2628 3553 
L 2631 2963 
z
" transform="scale(0.015625)"/>
       <path id="DejaVuSans-73" d="M 2834 3397 
L 2834 2853 
Q 2591 2978 2328 3040 
Q 2066 3103 1784 3103 
Q 1356 3103 1142 2972 
Q 928 2841 928 2578 
Q 928 2378 1081 2264 
Q 1234 2150 1697 2047 
L 1894 2003 
Q 2506 1872 2764 1633 
Q 3022 1394 3022 966 
Q 3022 478 2636 193 
Q 2250 -91 1575 -91 
Q 1294 -91 989 -36 
Q 684 19 347 128 
L 347 722 
Q 666 556 975 473 
Q 1284 391 1588 391 
Q 1994 391 2212 530 
Q 2431 669 2431 922 
Q 2431 1156 2273 1281 
Q 2116 1406 1581 1522 
L 1381 1569 
Q 847 1681 609 1914 
Q 372 2147 372 2553 
Q 372 3047 722 3315 
Q 1072 3584 1716 3584 
Q 2034 3584 2315 3537 
Q 2597 3491 2834 3397 
z
" transform="scale(0.015625)"/>
       <path id="DejaVuSans-29" d="M 513 4856 
L 1013 4856 
Q 1481 4119 1714 3412 
Q 1947 2706 1947 2009 
Q 1947 1309 1714 600 
Q 1481 -109 1013 -844 
L 513 -844 
Q 928 -128 1133 580 
Q 1338 1288 1338 2009 
Q 1338 2731 1133 3434 
Q 928 4138 513 4856 
z
" transform="scale(0.015625)"/>
      </defs>
      <use xlink:href="#DejaVuSans-74"/>
      <use xlink:href="#DejaVuSans-69" transform="translate(39.208984 0)"/>
      <use xlink:href="#DejaVuSans-6d" transform="translate(66.992188 0)"/>
      <use xlink:href="#DejaVuSans-65" transform="translate(164.404297 0)"/>
      <use xlink:href="#DejaVuSans-20" transform="translate(225.927734 0)"/>
      <use xlink:href="#DejaVuSans-61" transform="translate(257.714844 0)"/>
      <use xlink:href="#DejaVuSans-67" transform="translate(318.994141 0)"/>
      <use xlink:href="#DejaVuSans-6f" transform="translate(382.470703 0)"/>
      <use xlink:href="#DejaVuSans-20" transform="translate(443.652344 0)"/>
      <use xlink:href="#DejaVuSans-28" transform="translate(475.439453 0)"/>
      <use xlink:href="#DejaVuSans-67" transform="translate(514.453125 0)"/>
      <use xlink:href="#DejaVuSans-65" transform="translate(577.929688 0)"/>
      <use xlink:href="#DejaVuSans-6e" transform="translate(639.453125 0)"/>
      <use xlink:href="#DejaVuSans-65" transform="translate(702.832031 0)"/>
      <use xlink:href="#DejaVuSans-72" transform="translate(764.355469 0)"/>
      <use xlink:href="#DejaVuSans-61" transform="translate(805.46875 0)"/>
      <use xlink:href="#DejaVuSans-74" transform="translate(866.748047 0)"/>
      <use xlink:href="#DejaVuSans-69" transform="translate(905.957031 0)"/>
      <use xlink:href="#DejaVuSans-6f" transform="translate(933.740234 0)"/>
      <use xlink:href="#DejaVuSans-6e" transform="translate(994.921875 0)"/>
      <use xlink:href="#DejaVuSans-73" transform="translate(1058.300781 0)"/>
      <use xlink:href="#DejaVuSans-29" transform="translate(1110.400391 0)"/>
     </g>
    </g>
   </g>
   <g id="line2d_50">
    <path d="M 257.619695 250.675418 
L 255.619695 249.675418 
L 255.619695 251.675418 
z
" clip-path="url(#pb4355ca3a2)" style="fill: #1f77b4; fill-opacity: 0.5; stroke: #1f77b4; stroke-opacity: 0.5; stroke-linejoin: miter"/>
   </g>
   <g id="line2d_51">
    <path d="M 257.619695 187.926396 
L 255.619695 186.926396 
L 255.619695 188.926396 
z
" clip-path="url(#pb4355ca3a2)" style="fill: #1f77b4; fill-opacity: 0.5; stroke: #1f77b4; stroke-opacity: 0.5; stroke-linejoin: miter"/>
   </g>
   <g id="line2d_52">
    <path d="M 257.619695 144.257031 
L 255.619695 143.257031 
L 255.619695 145.257031 
z
" clip-path="url(#pb4355ca3a2)" style="fill: #1f77b4; fill-opacity: 0.5; stroke: #1f77b4; stroke-opacity: 0.5; stroke-linejoin: miter"/>
   </g>
   <g id="line2d_53">
    <path d="M 257.619695 84.78448 
L 255.619695 83.78448 
L 255.619695 85.78448 
z
" clip-path="url(#pb4355ca3a2)" style="fill: #1f77b4; fill-opacity: 0.5; stroke: #1f77b4; stroke-opacity: 0.5; stroke-linejoin: miter"/>
   </g>
   <g id="line2d_54">
    <path d="M 257.619695 209.484948 
L 255.619695 208.484948 
L 255.619695 210.484948 
z
" clip-path="url(#pb4355ca3a2)" style="fill: #1f77b4; fill-opacity: 0.5; stroke: #1f77b4; stroke-opacity: 0.5; stroke-linejoin: miter"/>
   </g>
   <g id="line2d_55">
    <path d="M 257.619695 242.977577 
L 255.619695 241.977577 
L 255.619695 243.977577 
z
" clip-path="url(#pb4355ca3a2)" style="fill: #1f77b4; fill-opacity: 0.5; stroke: #1f77b4; stroke-opacity: 0.5; stroke-linejoin: miter"/>
   </g>
   <g id="line2d_56">
    <path d="M 257.619695 196.148778 
L 255.619695 195.148778 
L 255.619695 197.148778 
z
" clip-path="url(#pb4355ca3a2)" style="fill: #1f77b4; fill-opacity: 0.5; stroke: #1f77b4; stroke-opacity: 0.5; stroke-linejoin: miter"/>
   </g>
   <g id="line2d_57">
    <path d="M 257.619695 42.517546 
L 255.619695 41.517546 
L 255.619695 43.517546 
z
" clip-path="url(#pb4355ca3a2)" style="fill: #1f77b4; fill-opacity: 0.5; stroke: #1f77b4; stroke-opacity: 0.5; stroke-linejoin: miter"/>
   </g>
   <g id="line2d_58">
    <path d="M 257.619695 229.562456 
L 255.619695 228.562456 
L 255.619695 230.562456 
z
" clip-path="url(#pb4355ca3a2)" style="fill: #1f77b4; fill-opacity: 0.5; stroke: #1f77b4; stroke-opacity: 0.5; stroke-linejoin: miter"/>
   </g>
   <g id="line2d_59">
    <path d="M 257.619695 218.944878 
L 255.619695 217.944878 
L 255.619695 219.944878 
z
" clip-path="url(#pb4355ca3a2)" style="fill: #1f77b4; fill-opacity: 0.5; stroke: #1f77b4; stroke-opacity: 0.5; stroke-linejoin: miter"/>
   </g>
   <g id="line2d_60">
    <path d="M 199.299443 197.814172 
L 201.299443 198.814172 
L 201.299443 196.814172 
z
" clip-path="url(#pb4355ca3a2)" style="fill: #ff7f0e; fill-opacity: 0.5; stroke: #ff7f0e; stroke-opacity: 0.5; stroke-linejoin: miter"/>
   </g>
   <g id="line2d_61">
    <path d="M 199.299443 202.730751 
L 201.299443 203.730751 
L 201.299443 201.730751 
z
" clip-path="url(#pb4355ca3a2)" style="fill: #ff7f0e; fill-opacity: 0.5; stroke: #ff7f0e; stroke-opacity: 0.5; stroke-linejoin: miter"/>
   </g>
   <g id="line2d_62">
    <path d="M 199.299443 138.343994 
L 201.299443 139.343994 
L 201.299443 137.343994 
z
" clip-path="url(#pb4355ca3a2)" style="fill: #ff7f0e; fill-opacity: 0.5; stroke: #ff7f0e; stroke-opacity: 0.5; stroke-linejoin: miter"/>
   </g>
   <g id="line2d_63">
    <path d="M 199.299443 21.258079 
L 201.299443 22.258079 
L 201.299443 20.258079 
z
" clip-path="url(#pb4355ca3a2)" style="fill: #ff7f0e; fill-opacity: 0.5; stroke: #ff7f0e; stroke-opacity: 0.5; stroke-linejoin: miter"/>
   </g>
   <g id="line2d_64">
    <path d="M 199.299443 136.969225 
L 201.299443 137.969225 
L 201.299443 135.969225 
z
" clip-path="url(#pb4355ca3a2)" style="fill: #ff7f0e; fill-opacity: 0.5; stroke: #ff7f0e; stroke-opacity: 0.5; stroke-linejoin: miter"/>
   </g>
   <g id="line2d_65">
    <path d="M 199.299443 223.472721 
L 201.299443 224.472721 
L 201.299443 222.472721 
z
" clip-path="url(#pb4355ca3a2)" style="fill: #ff7f0e; fill-opacity: 0.5; stroke: #ff7f0e; stroke-opacity: 0.5; stroke-linejoin: miter"/>
   </g>
   <g id="line2d_66">
    <path d="M 199.299443 298.84667 
L 201.299443 299.84667 
L 201.299443 297.84667 
z
" clip-path="url(#pb4355ca3a2)" style="fill: #ff7f0e; fill-opacity: 0.5; stroke: #ff7f0e; stroke-opacity: 0.5; stroke-linejoin: miter"/>
   </g>
   <g id="line2d_67">
    <path d="M 199.299443 314.854375 
L 201.299443 315.854375 
L 201.299443 313.854375 
z
" clip-path="url(#pb4355ca3a2)" style="fill: #ff7f0e; fill-opacity: 0.5; stroke: #ff7f0e; stroke-opacity: 0.5; stroke-linejoin: miter"/>
   </g>
   <g id="line2d_68">
    <path d="M 199.299443 56.281769 
L 201.299443 57.281769 
L 201.299443 55.281769 
z
" clip-path="url(#pb4355ca3a2)" style="fill: #ff7f0e; fill-opacity: 0.5; stroke: #ff7f0e; stroke-opacity: 0.5; stroke-linejoin: miter"/>
   </g>
   <g id="line2d_69">
    <path d="M 199.299443 228.082982 
L 201.299443 229.082982 
L 201.299443 227.082982 
z
" clip-path="url(#pb4355ca3a2)" style="fill: #ff7f0e; fill-opacity: 0.5; stroke: #ff7f0e; stroke-opacity: 0.5; stroke-linejoin: miter"/>
   </g>
   <g id="line2d_70">
    <path d="M 447.666182 36.282717 
L 445.666182 35.282717 
L 445.666182 37.282717 
z
" clip-path="url(#pb4355ca3a2)" style="fill: #ff7f0e; fill-opacity: 0.5; stroke: #ff7f0e; stroke-opacity: 0.5; stroke-linejoin: miter"/>
   </g>
   <g id="line2d_71">
    <path d="M 447.666182 34.15974 
L 445.666182 33.15974 
L 445.666182 35.15974 
z
" clip-path="url(#pb4355ca3a2)" style="fill: #ff7f0e; fill-opacity: 0.5; stroke: #ff7f0e; stroke-opacity: 0.5; stroke-linejoin: miter"/>
   </g>
   <g id="line2d_72">
    <path d="M 447.666182 246.109893 
L 445.666182 245.109893 
L 445.666182 247.109893 
z
" clip-path="url(#pb4355ca3a2)" style="fill: #ff7f0e; fill-opacity: 0.5; stroke: #ff7f0e; stroke-opacity: 0.5; stroke-linejoin: miter"/>
   </g>
   <g id="line2d_73">
    <path d="M 447.666182 66.409392 
L 445.666182 65.409392 
L 445.666182 67.409392 
z
" clip-path="url(#pb4355ca3a2)" style="fill: #ff7f0e; fill-opacity: 0.5; stroke: #ff7f0e; stroke-opacity: 0.5; stroke-linejoin: miter"/>
   </g>
   <g id="line2d_74">
    <path d="M 447.666182 131.891261 
L 445.666182 130.891261 
L 445.666182 132.891261 
z
" clip-path="url(#pb4355ca3a2)" style="fill: #ff7f0e; fill-opacity: 0.5; stroke: #ff7f0e; stroke-opacity: 0.5; stroke-linejoin: miter"/>
   </g>
   <g id="line2d_75">
    <path d="M 447.666182 102.033766 
L 445.666182 101.033766 
L 445.666182 103.033766 
z
" clip-path="url(#pb4355ca3a2)" style="fill: #ff7f0e; fill-opacity: 0.5; stroke: #ff7f0e; stroke-opacity: 0.5; stroke-linejoin: miter"/>
   </g>
   <g id="line2d_76">
    <path d="M 447.666182 286.582307 
L 445.666182 285.582307 
L 445.666182 287.582307 
z
" clip-path="url(#pb4355ca3a2)" style="fill: #ff7f0e; fill-opacity: 0.5; stroke: #ff7f0e; stroke-opacity: 0.5; stroke-linejoin: miter"/>
   </g>
   <g id="line2d_77">
    <path d="M 447.666182 316.336803 
L 445.666182 315.336803 
L 445.666182 317.336803 
z
" clip-path="url(#pb4355ca3a2)" style="fill: #ff7f0e; fill-opacity: 0.5; stroke: #ff7f0e; stroke-opacity: 0.5; stroke-linejoin: miter"/>
   </g>
   <g id="line2d_78">
    <path d="M 447.666182 228.062446 
L 445.666182 227.062446 
L 445.666182 229.062446 
z
" clip-path="url(#pb4355ca3a2)" style="fill: #ff7f0e; fill-opacity: 0.5; stroke: #ff7f0e; stroke-opacity: 0.5; stroke-linejoin: miter"/>
   </g>
   <g id="line2d_79">
    <path d="M 447.666182 96.505457 
L 445.666182 95.505457 
L 445.666182 97.505457 
z
" clip-path="url(#pb4355ca3a2)" style="fill: #ff7f0e; fill-opacity: 0.5; stroke: #ff7f0e; stroke-opacity: 0.5; stroke-linejoin: miter"/>
   </g>
   <g id="line2d_80">
    <path d="M 389.34593 237.070862 
L 391.34593 238.070862 
L 391.34593 236.070862 
z
" clip-path="url(#pb4355ca3a2)" style="fill: #2ca02c; fill-opacity: 0.5; stroke: #2ca02c; stroke-opacity: 0.5; stroke-linejoin: miter"/>
   </g>
   <g id="line2d_81">
    <path d="M 389.34593 59.248901 
L 391.34593 60.248901 
L 391.34593 58.248901 
z
" clip-path="url(#pb4355ca3a2)" style="fill: #2ca02c; fill-opacity: 0.5; stroke: #2ca02c; stroke-opacity: 0.5; stroke-linejoin: miter"/>
   </g>
   <g id="line2d_82">
    <path d="M 389.34593 317.294594 
L 391.34593 318.294594 
L 391.34593 316.294594 
z
" clip-path="url(#pb4355ca3a2)" style="fill: #2ca02c; fill-opacity: 0.5; stroke: #2ca02c; stroke-opacity: 0.5; stroke-linejoin: miter"/>
   </g>
   <g id="line2d_83">
    <path d="M 389.34593 311.457738 
L 391.34593 312.457738 
L 391.34593 310.457738 
z
" clip-path="url(#pb4355ca3a2)" style="fill: #2ca02c; fill-opacity: 0.5; stroke: #2ca02c; stroke-opacity: 0.5; stroke-linejoin: miter"/>
   </g>
   <g id="line2d_84">
    <path d="M 389.34593 240.636873 
L 391.34593 241.636873 
L 391.34593 239.636873 
z
" clip-path="url(#pb4355ca3a2)" style="fill: #2ca02c; fill-opacity: 0.5; stroke: #2ca02c; stroke-opacity: 0.5; stroke-linejoin: miter"/>
   </g>
   <g id="line2d_85">
    <path d="M 389.34593 232.013575 
L 391.34593 233.013575 
L 391.34593 231.013575 
z
" clip-path="url(#pb4355ca3a2)" style="fill: #2ca02c; fill-opacity: 0.5; stroke: #2ca02c; stroke-opacity: 0.5; stroke-linejoin: miter"/>
   </g>
   <g id="line2d_86">
    <path d="M 389.34593 259.640281 
L 391.34593 260.640281 
L 391.34593 258.640281 
z
" clip-path="url(#pb4355ca3a2)" style="fill: #2ca02c; fill-opacity: 0.5; stroke: #2ca02c; stroke-opacity: 0.5; stroke-linejoin: miter"/>
   </g>
   <g id="line2d_87">
    <path d="M 389.34593 280.0895 
L 391.34593 281.0895 
L 391.34593 279.0895 
z
" clip-path="url(#pb4355ca3a2)" style="fill: #2ca02c; fill-opacity: 0.5; stroke: #2ca02c; stroke-opacity: 0.5; stroke-linejoin: miter"/>
   </g>
   <g id="line2d_88">
    <path d="M 389.34593 99.806122 
L 391.34593 100.806122 
L 391.34593 98.806122 
z
" clip-path="url(#pb4355ca3a2)" style="fill: #2ca02c; fill-opacity: 0.5; stroke: #2ca02c; stroke-opacity: 0.5; stroke-linejoin: miter"/>
   </g>
   <g id="line2d_89">
    <path d="M 389.34593 278.468368 
L 391.34593 279.468368 
L 391.34593 277.468368 
z
" clip-path="url(#pb4355ca3a2)" style="fill: #2ca02c; fill-opacity: 0.5; stroke: #2ca02c; stroke-opacity: 0.5; stroke-linejoin: miter"/>
   </g>
   <g id="patch_6">
    <path d="M 46.965625 318.021875 
L 46.965625 7.2 
" style="fill: none; stroke: #000000; stroke-width: 0.8; stroke-linejoin: miter; stroke-linecap: square"/>
   </g>
  </g>
 </g>
 <defs>
  <clipPath id="pb4355ca3a2">
   <rect x="46.965625" y="7.2" width="553.034375" height="310.821875"/>
  </clipPath>
 </defs>
</svg>