<?xml version="1.0" encoding="utf-8" standalone="no"?>
<!DOCTYPE svg PUBLIC "-//W3C//DTD SVG 1.1//EN"
  "http://www.w3.org/Graphics/SVG/1.1/DTD/svg11.dtd">
<svg xmlns:xlink="http://www.w3.org/1999/xlink" width="607.2pt" height="338.4pt" viewBox="0 0 607.2 338.4" xmlns="http://www.w3.org/2000/svg" version="1.1">
 <metadata>
  <rdf:RDF xmlns:dc="http://purl.org/dc/elements/1.1/" xmlns:cc="http://creativecommons.org/ns#" xmlns:rdf="http://www.w3.org/1999/02/22-rdf-syntax-ns#">
   <cc:Work>
    <dc:type rdf:resource="http://purl.org/dc/dcmitype/StillImage"/>
    <dc:date>2023-11-13T09:09:56.130256</dc:date>
    <dc:format>image/svg+xml</dc:format>
    <dc:creator>
     <cc:Agent>
      <dc:title>Matplotlib v3.7.2, https://matplotlib.org/</dc:title>
     </cc:Agent>
    </dc:creator>
   </cc:Work>
  </rdf:RDF>
 </metadata>
 <defs>
  <style type="text/css">*{stroke-linejoin: round; stroke-linecap: butt}</style>
 </defs>
 <g id="figure_1">
  <g id="patch_1">
   <path d="M 0 338.4 
L 607.2 338.4 
L 607.2 0 
L 0 0 
z
" style="fill: #ffffff"/>
  </g>
  <g id="axes_1">
   <g id="patch_2">
    <path d="M 43.78125 318.021875 
L 600 318.021875 
L 600 22.318125 
L 43.78125 22.318125 
z
" style="fill: #ffffff"/>
   </g>
   <path d="M 353.703533 150.139878 
L 352.703533 150.108441 
L 351.703533 150.071501 
L 350.703533 149.973754 
L 349.703533 149.941233 
L 348.703533 149.867608 
L 347.703533 149.829042 
L 346.703533 149.793629 
L 345.703533 149.735989 
L 344.703533 149.665603 
L 343.703533 149.613639 
L 342.703533 149.554549 
L 341.703533 149.466228 
L 340.703533 149.420084 
L 339.703533 149.377673 
L 338.703533 149.34718 
L 337.703533 149.321135 
L 336.703533 149.299935 
L 335.703533 149.245634 
L 334.703533 149.217697 
L 333.703533 149.187973 
L 332.703533 149.162578 
L 331.703533 149.151377 
L 330.703533 149.141253 
L 329.703533 149.141458 
L 328.703533 149.150968 
L 327.703533 149.162621 
L 326.703533 149.19365 
L 325.703533 149.204818 
L 324.703533 149.234936 
L 323.703533 149.294713 
L 322.703533 149.331904 
L 321.703533 149.371 
L 320.703533 149.41344 
L 319.703533 149.446205 
L 318.703533 149.513632 
L 317.703533 149.552758 
L 316.703533 149.595432 
L 315.703533 149.666013 
L 314.703533 149.702404 
L 313.703533 149.760807 
L 312.703533 149.871759 
L 311.703533 149.942418 
L 310.703533 150.055358 
L 309.703533 150.10113 
L 308.703533 150.162414 
L 307.703533 150.210913 
L 306.703533 150.291736 
L 305.703533 150.410255 
L 304.703533 150.480465 
L 303.703533 150.563728 
L 302.703533 150.596869 
L 301.703533 150.648107 
L 300.703533 150.716505 
L 299.703533 150.782721 
L 298.703533 150.859638 
L 297.703533 150.886953 
L 296.703533 150.913431 
L 295.703533 150.936081 
L 294.703533 150.955613 
L 293.703533 150.982006 
L 292.703533 151.031777 
L 291.703533 151.06685 
L 290.077717 151.102716 
" clip-path="url(#p3c32223ee3)" style="fill: none; stroke: #ff7f0e; stroke-opacity: 0.5; stroke-width: 0.2; stroke-linecap: square"/>
   <path d="M 353.703533 172.939531 
L 352.703533 172.908095 
L 351.703533 172.871155 
L 350.703533 172.773408 
L 349.703533 172.740886 
L 348.703533 172.667262 
L 347.703533 172.628696 
L 346.703533 172.593283 
L 345.703533 172.535643 
L 344.703533 172.465257 
L 343.703533 172.413293 
L 342.703533 172.354203 
L 341.703533 172.265882 
L 340.703533 172.219738 
L 339.703533 172.177327 
L 338.703533 172.146834 
L 337.703533 172.120789 
L 336.703533 172.099589 
L 335.703533 172.045288 
L 334.703533 172.01735 
L 333.703533 171.987626 
L 332.703533 171.962232 
L 331.703533 171.951031 
L 330.703533 171.940907 
L 329.703533 171.941112 
L 328.703533 171.950621 
L 327.703533 171.962275 
L 326.703533 171.993304 
L 325.703533 172.004472 
L 324.703533 172.03459 
L 323.703533 172.094367 
L 322.703533 172.131558 
L 321.703533 172.170654 
L 320.703533 172.213094 
L 319.703533 172.245859 
L 318.703533 172.313285 
L 317.703533 172.352411 
L 316.703533 172.395086 
L 315.703533 172.465667 
L 314.703533 172.502057 
L 313.703533 172.560461 
L 312.703533 172.671413 
L 311.703533 172.742071 
L 310.703533 172.855011 
L 309.703533 172.900784 
L 308.703533 172.962067 
L 307.703533 173.010567 
L 306.703533 173.091389 
L 305.703533 173.209908 
L 304.703533 173.280119 
L 303.703533 173.363381 
L 302.703533 173.396523 
L 301.703533 173.447761 
L 300.703533 173.516159 
L 299.703533 173.582374 
L 298.703533 173.659291 
L 297.703533 173.686607 
L 296.703533 173.713084 
L 295.703533 173.735735 
L 294.703533 173.755266 
L 293.703533 173.78166 
L 292.703533 173.831431 
L 291.703533 173.866504 
L 290.077717 173.90237 
" clip-path="url(#p3c32223ee3)" style="fill: none; stroke: #ff7f0e; stroke-opacity: 0.5; stroke-width: 0.2; stroke-linecap: square"/>
   <path d="M 353.703533 158.59629 
L 352.703533 158.564853 
L 351.703533 158.527913 
L 350.703533 158.430166 
L 349.703533 158.397645 
L 348.703533 158.32402 
L 347.703533 158.285455 
L 346.703533 158.250041 
L 345.703533 158.192402 
L 344.703533 158.122015 
L 343.703533 158.070051 
L 342.703533 158.010961 
L 341.703533 157.92264 
L 340.703533 157.876496 
L 339.703533 157.834085 
L 338.703533 157.803592 
L 337.703533 157.777548 
L 336.703533 157.756347 
L 335.703533 157.702046 
L 334.703533 157.674109 
L 333.703533 157.644385 
L 332.703533 157.61899 
L 331.703533 157.60779 
L 330.703533 157.597666 
L 329.703533 157.59787 
L 328.703533 157.60738 
L 327.703533 157.619033 
L 326.703533 157.650063 
L 325.703533 157.661231 
L 324.703533 157.691348 
L 323.703533 157.751125 
L 322.703533 157.788317 
L 321.703533 157.827413 
L 320.703533 157.869852 
L 319.703533 157.902617 
L 318.703533 157.970044 
L 317.703533 158.00917 
L 316.703533 158.051844 
L 315.703533 158.122425 
L 314.703533 158.158816 
L 313.703533 158.217219 
L 312.703533 158.328172 
L 311.703533 158.39883 
L 310.703533 158.51177 
L 309.703533 158.557543 
L 308.703533 158.618826 
L 307.703533 158.667325 
L 306.703533 158.748148 
L 305.703533 158.866667 
L 304.703533 158.936877 
L 303.703533 159.02014 
L 302.703533 159.053282 
L 301.703533 159.104519 
L 300.703533 159.172917 
L 299.703533 159.239133 
L 298.703533 159.31605 
L 297.703533 159.343365 
L 296.703533 159.369843 
L 295.703533 159.392493 
L 294.703533 159.412025 
L 293.703533 159.438419 
L 292.703533 159.48819 
L 291.703533 159.523263 
L 290.077717 159.559128 
" clip-path="url(#p3c32223ee3)" style="fill: none; stroke: #ff7f0e; stroke-opacity: 0.5; stroke-width: 0.2; stroke-linecap: square"/>
   <path d="M 353.703533 115.392224 
L 352.703533 115.360788 
L 351.703533 115.323848 
L 350.703533 115.226101 
L 349.703533 115.19358 
L 348.703533 115.119955 
L 347.703533 115.081389 
L 346.703533 115.045976 
L 345.703533 114.988336 
L 344.703533 114.91795 
L 343.703533 114.865986 
L 342.703533 114.806896 
L 341.703533 114.718575 
L 340.703533 114.672431 
L 339.703533 114.63002 
L 338.703533 114.599527 
L 337.703533 114.573482 
L 336.703533 114.552282 
L 335.703533 114.497981 
L 334.703533 114.470043 
L 333.703533 114.44032 
L 332.703533 114.414925 
L 331.703533 114.403724 
L 330.703533 114.3936 
L 329.703533 114.393805 
L 328.703533 114.403315 
L 327.703533 114.414968 
L 326.703533 114.445997 
L 325.703533 114.457165 
L 324.703533 114.487283 
L 323.703533 114.54706 
L 322.703533 114.584251 
L 321.703533 114.623347 
L 320.703533 114.665787 
L 319.703533 114.698552 
L 318.703533 114.765979 
L 317.703533 114.805105 
L 316.703533 114.847779 
L 315.703533 114.91836 
L 314.703533 114.954751 
L 313.703533 115.013154 
L 312.703533 115.124106 
L 311.703533 115.194765 
L 310.703533 115.307704 
L 309.703533 115.353477 
L 308.703533 115.414761 
L 307.703533 115.46326 
L 306.703533 115.544083 
L 305.703533 115.662601 
L 304.703533 115.732812 
L 303.703533 115.816075 
L 302.703533 115.849216 
L 301.703533 115.900454 
L 300.703533 115.968852 
L 299.703533 116.035067 
L 298.703533 116.111985 
L 297.703533 116.1393 
L 296.703533 116.165778 
L 295.703533 116.188428 
L 294.703533 116.207959 
L 293.703533 116.234353 
L 292.703533 116.284124 
L 291.703533 116.319197 
L 290.077717 116.355063 
" clip-path="url(#p3c32223ee3)" style="fill: none; stroke: #ff7f0e; stroke-opacity: 0.5; stroke-width: 0.2; stroke-linecap: square"/>
   <path d="M 353.703533 92.883641 
L 352.703533 92.852205 
L 351.703533 92.815264 
L 350.703533 92.717518 
L 349.703533 92.684996 
L 348.703533 92.611371 
L 347.703533 92.572806 
L 346.703533 92.537393 
L 345.703533 92.479753 
L 344.703533 92.409366 
L 343.703533 92.357402 
L 342.703533 92.298312 
L 341.703533 92.209991 
L 340.703533 92.163847 
L 339.703533 92.121436 
L 338.703533 92.090944 
L 337.703533 92.064899 
L 336.703533 92.043699 
L 335.703533 91.989397 
L 334.703533 91.96146 
L 333.703533 91.931736 
L 332.703533 91.906341 
L 331.703533 91.895141 
L 330.703533 91.885017 
L 329.703533 91.885221 
L 328.703533 91.894731 
L 327.703533 91.906385 
L 326.703533 91.937414 
L 325.703533 91.948582 
L 324.703533 91.978699 
L 323.703533 92.038476 
L 322.703533 92.075668 
L 321.703533 92.114764 
L 320.703533 92.157203 
L 319.703533 92.189969 
L 318.703533 92.257395 
L 317.703533 92.296521 
L 316.703533 92.339195 
L 315.703533 92.409776 
L 314.703533 92.446167 
L 313.703533 92.50457 
L 312.703533 92.615523 
L 311.703533 92.686181 
L 310.703533 92.799121 
L 309.703533 92.844894 
L 308.703533 92.906177 
L 307.703533 92.954676 
L 306.703533 93.035499 
L 305.703533 93.154018 
L 304.703533 93.224229 
L 303.703533 93.307491 
L 302.703533 93.340633 
L 301.703533 93.39187 
L 300.703533 93.460268 
L 299.703533 93.526484 
L 298.703533 93.603401 
L 297.703533 93.630716 
L 296.703533 93.657194 
L 295.703533 93.679845 
L 294.703533 93.699376 
L 293.703533 93.72577 
L 292.703533 93.775541 
L 291.703533 93.810614 
L 290.077717 93.846479 
" clip-path="url(#p3c32223ee3)" style="fill: none; stroke: #ff7f0e; stroke-opacity: 0.5; stroke-width: 0.2; stroke-linecap: square"/>
   <path d="M 353.703533 188.561011 
L 352.703533 188.529574 
L 351.703533 188.492634 
L 350.703533 188.394888 
L 349.703533 188.362366 
L 348.703533 188.288741 
L 347.703533 188.250176 
L 346.703533 188.214763 
L 345.703533 188.157123 
L 344.703533 188.086736 
L 343.703533 188.034772 
L 342.703533 187.975682 
L 341.703533 187.887361 
L 340.703533 187.841217 
L 339.703533 187.798806 
L 338.703533 187.768314 
L 337.703533 187.742269 
L 336.703533 187.721069 
L 335.703533 187.666767 
L 334.703533 187.63883 
L 333.703533 187.609106 
L 332.703533 187.583711 
L 331.703533 187.572511 
L 330.703533 187.562387 
L 329.703533 187.562591 
L 328.703533 187.572101 
L 327.703533 187.583755 
L 326.703533 187.614784 
L 325.703533 187.625952 
L 324.703533 187.656069 
L 323.703533 187.715846 
L 322.703533 187.753038 
L 321.703533 187.792134 
L 320.703533 187.834573 
L 319.703533 187.867339 
L 318.703533 187.934765 
L 317.703533 187.973891 
L 316.703533 188.016565 
L 315.703533 188.087146 
L 314.703533 188.123537 
L 313.703533 188.18194 
L 312.703533 188.292893 
L 311.703533 188.363551 
L 310.703533 188.476491 
L 309.703533 188.522264 
L 308.703533 188.583547 
L 307.703533 188.632046 
L 306.703533 188.712869 
L 305.703533 188.831388 
L 304.703533 188.901599 
L 303.703533 188.984861 
L 302.703533 189.018003 
L 301.703533 189.06924 
L 300.703533 189.137638 
L 299.703533 189.203854 
L 298.703533 189.280771 
L 297.703533 189.308086 
L 296.703533 189.334564 
L 295.703533 189.357215 
L 294.703533 189.376746 
L 293.703533 189.40314 
L 292.703533 189.452911 
L 291.703533 189.487984 
L 290.077717 189.523849 
" clip-path="url(#p3c32223ee3)" style="fill: none; stroke: #ff7f0e; stroke-opacity: 0.5; stroke-width: 0.2; stroke-linecap: square"/>
   <path d="M 353.703533 138.75792 
L 352.703533 138.726484 
L 351.703533 138.689543 
L 350.703533 138.591797 
L 349.703533 138.559275 
L 348.703533 138.485651 
L 347.703533 138.447085 
L 346.703533 138.411672 
L 345.703533 138.354032 
L 344.703533 138.283646 
L 343.703533 138.231681 
L 342.703533 138.172592 
L 341.703533 138.084271 
L 340.703533 138.038126 
L 339.703533 137.995715 
L 338.703533 137.965223 
L 337.703533 137.939178 
L 336.703533 137.917978 
L 335.703533 137.863677 
L 334.703533 137.835739 
L 333.703533 137.806015 
L 332.703533 137.78062 
L 331.703533 137.76942 
L 330.703533 137.759296 
L 329.703533 137.7595 
L 328.703533 137.76901 
L 327.703533 137.780664 
L 326.703533 137.811693 
L 325.703533 137.822861 
L 324.703533 137.852978 
L 323.703533 137.912755 
L 322.703533 137.949947 
L 321.703533 137.989043 
L 320.703533 138.031483 
L 319.703533 138.064248 
L 318.703533 138.131674 
L 317.703533 138.1708 
L 316.703533 138.213475 
L 315.703533 138.284055 
L 314.703533 138.320446 
L 313.703533 138.378849 
L 312.703533 138.489802 
L 311.703533 138.56046 
L 310.703533 138.6734 
L 309.703533 138.719173 
L 308.703533 138.780456 
L 307.703533 138.828956 
L 306.703533 138.909778 
L 305.703533 139.028297 
L 304.703533 139.098508 
L 303.703533 139.18177 
L 302.703533 139.214912 
L 301.703533 139.266149 
L 300.703533 139.334548 
L 299.703533 139.400763 
L 298.703533 139.47768 
L 297.703533 139.504996 
L 296.703533 139.531473 
L 295.703533 139.554124 
L 294.703533 139.573655 
L 293.703533 139.600049 
L 292.703533 139.64982 
L 291.703533 139.684893 
L 290.077717 139.720759 
" clip-path="url(#p3c32223ee3)" style="fill: none; stroke: #ff7f0e; stroke-opacity: 0.5; stroke-width: 0.2; stroke-linecap: square"/>
   <path d="M 353.703533 145.377668 
L 352.703533 145.346231 
L 351.703533 145.309291 
L 350.703533 145.211544 
L 349.703533 145.179023 
L 348.703533 145.105398 
L 347.703533 145.066832 
L 346.703533 145.031419 
L 345.703533 144.973779 
L 344.703533 144.903393 
L 343.703533 144.851429 
L 342.703533 144.792339 
L 341.703533 144.704018 
L 340.703533 144.657874 
L 339.703533 144.615463 
L 338.703533 144.58497 
L 337.703533 144.558925 
L 336.703533 144.537725 
L 335.703533 144.483424 
L 334.703533 144.455487 
L 333.703533 144.425763 
L 332.703533 144.400368 
L 331.703533 144.389167 
L 330.703533 144.379043 
L 329.703533 144.379248 
L 328.703533 144.388758 
L 327.703533 144.400411 
L 326.703533 144.43144 
L 325.703533 144.442608 
L 324.703533 144.472726 
L 323.703533 144.532503 
L 322.703533 144.569694 
L 321.703533 144.608791 
L 320.703533 144.65123 
L 319.703533 144.683995 
L 318.703533 144.751422 
L 317.703533 144.790548 
L 316.703533 144.833222 
L 315.703533 144.903803 
L 314.703533 144.940194 
L 313.703533 144.998597 
L 312.703533 145.109549 
L 311.703533 145.180208 
L 310.703533 145.293148 
L 309.703533 145.33892 
L 308.703533 145.400204 
L 307.703533 145.448703 
L 306.703533 145.529526 
L 305.703533 145.648045 
L 304.703533 145.718255 
L 303.703533 145.801518 
L 302.703533 145.834659 
L 301.703533 145.885897 
L 300.703533 145.954295 
L 299.703533 146.020511 
L 298.703533 146.097428 
L 297.703533 146.124743 
L 296.703533 146.151221 
L 295.703533 146.173871 
L 294.703533 146.193403 
L 293.703533 146.219797 
L 292.703533 146.269567 
L 291.703533 146.30464 
L 290.077717 146.340506 
" clip-path="url(#p3c32223ee3)" style="fill: none; stroke: #ff7f0e; stroke-opacity: 0.5; stroke-width: 0.2; stroke-linecap: square"/>
   <path d="M 353.703533 199.270656 
L 352.703533 199.239219 
L 351.703533 199.202279 
L 350.703533 199.104532 
L 349.703533 199.072011 
L 348.703533 198.998386 
L 347.703533 198.959821 
L 346.703533 198.924407 
L 345.703533 198.866767 
L 344.703533 198.796381 
L 343.703533 198.744417 
L 342.703533 198.685327 
L 341.703533 198.597006 
L 340.703533 198.550862 
L 339.703533 198.508451 
L 338.703533 198.477958 
L 337.703533 198.451913 
L 336.703533 198.430713 
L 335.703533 198.376412 
L 334.703533 198.348475 
L 333.703533 198.318751 
L 332.703533 198.293356 
L 331.703533 198.282156 
L 330.703533 198.272032 
L 329.703533 198.272236 
L 328.703533 198.281746 
L 327.703533 198.293399 
L 326.703533 198.324429 
L 325.703533 198.335597 
L 324.703533 198.365714 
L 323.703533 198.425491 
L 322.703533 198.462683 
L 321.703533 198.501779 
L 320.703533 198.544218 
L 319.703533 198.576983 
L 318.703533 198.64441 
L 317.703533 198.683536 
L 316.703533 198.72621 
L 315.703533 198.796791 
L 314.703533 198.833182 
L 313.703533 198.891585 
L 312.703533 199.002538 
L 311.703533 199.073196 
L 310.703533 199.186136 
L 309.703533 199.231909 
L 308.703533 199.293192 
L 307.703533 199.341691 
L 306.703533 199.422514 
L 305.703533 199.541033 
L 304.703533 199.611243 
L 303.703533 199.694506 
L 302.703533 199.727648 
L 301.703533 199.778885 
L 300.703533 199.847283 
L 299.703533 199.913499 
L 298.703533 199.990416 
L 297.703533 200.017731 
L 296.703533 200.044209 
L 295.703533 200.066859 
L 294.703533 200.086391 
L 293.703533 200.112785 
L 292.703533 200.162556 
L 291.703533 200.197629 
L 290.077717 200.233494 
" clip-path="url(#p3c32223ee3)" style="fill: none; stroke: #ff7f0e; stroke-opacity: 0.5; stroke-width: 0.2; stroke-linecap: square"/>
   <path d="M 353.703533 131.306474 
L 352.703533 131.275037 
L 351.703533 131.238097 
L 350.703533 131.140351 
L 349.703533 131.107829 
L 348.703533 131.034204 
L 347.703533 130.995639 
L 346.703533 130.960225 
L 345.703533 130.902586 
L 344.703533 130.832199 
L 343.703533 130.780235 
L 342.703533 130.721145 
L 341.703533 130.632824 
L 340.703533 130.58668 
L 339.703533 130.544269 
L 338.703533 130.513776 
L 337.703533 130.487732 
L 336.703533 130.466531 
L 335.703533 130.41223 
L 334.703533 130.384293 
L 333.703533 130.354569 
L 332.703533 130.329174 
L 331.703533 130.317974 
L 330.703533 130.30785 
L 329.703533 130.308054 
L 328.703533 130.317564 
L 327.703533 130.329217 
L 326.703533 130.360247 
L 325.703533 130.371415 
L 324.703533 130.401532 
L 323.703533 130.461309 
L 322.703533 130.498501 
L 321.703533 130.537597 
L 320.703533 130.580036 
L 319.703533 130.612801 
L 318.703533 130.680228 
L 317.703533 130.719354 
L 316.703533 130.762028 
L 315.703533 130.832609 
L 314.703533 130.869 
L 313.703533 130.927403 
L 312.703533 131.038356 
L 311.703533 131.109014 
L 310.703533 131.221954 
L 309.703533 131.267727 
L 308.703533 131.32901 
L 307.703533 131.377509 
L 306.703533 131.458332 
L 305.703533 131.576851 
L 304.703533 131.647061 
L 303.703533 131.730324 
L 302.703533 131.763466 
L 301.703533 131.814703 
L 300.703533 131.883101 
L 299.703533 131.949317 
L 298.703533 132.026234 
L 297.703533 132.053549 
L 296.703533 132.080027 
L 295.703533 132.102677 
L 294.703533 132.122209 
L 293.703533 132.148603 
L 292.703533 132.198374 
L 291.703533 132.233447 
L 290.077717 132.269312 
" clip-path="url(#p3c32223ee3)" style="fill: none; stroke: #ff7f0e; stroke-opacity: 0.5; stroke-width: 0.2; stroke-linecap: square"/>
   <path d="M 290.077717 199.163901 
L 291.077717 199.195338 
L 292.077717 199.232278 
L 293.077717 199.330025 
L 294.077717 199.362546 
L 295.077717 199.436171 
L 296.077717 199.474737 
L 297.077717 199.51015 
L 298.077717 199.56779 
L 299.077717 199.638176 
L 300.077717 199.69014 
L 301.077717 199.74923 
L 302.077717 199.837551 
L 303.077717 199.883695 
L 304.077717 199.926106 
L 305.077717 199.956599 
L 306.077717 199.982644 
L 307.077717 200.003844 
L 308.077717 200.058145 
L 309.077717 200.086082 
L 310.077717 200.115806 
L 311.077717 200.141201 
L 312.077717 200.152402 
L 313.077717 200.162526 
L 314.077717 200.162321 
L 315.077717 200.152811 
L 316.077717 200.141158 
L 317.077717 200.110128 
L 318.077717 200.098961 
L 319.077717 200.068843 
L 320.077717 200.009066 
L 321.077717 199.971875 
L 322.077717 199.932778 
L 323.077717 199.890339 
L 324.077717 199.857574 
L 325.077717 199.790147 
L 326.077717 199.751021 
L 327.077717 199.708347 
L 328.077717 199.637766 
L 329.077717 199.601375 
L 330.077717 199.542972 
L 331.077717 199.43202 
L 332.077717 199.361361 
L 333.077717 199.248421 
L 334.077717 199.202649 
L 335.077717 199.141365 
L 336.077717 199.092866 
L 337.077717 199.012043 
L 338.077717 198.893524 
L 339.077717 198.823314 
L 340.077717 198.740051 
L 341.077717 198.706909 
L 342.077717 198.655672 
L 343.077717 198.587274 
L 344.077717 198.521058 
L 345.077717 198.444141 
L 346.077717 198.416826 
L 347.077717 198.390348 
L 348.077717 198.367698 
L 349.077717 198.348166 
L 350.077717 198.321772 
L 351.077717 198.272002 
L 352.077717 198.236928 
L 353.703533 198.201063 
" clip-path="url(#p3c32223ee3)" style="fill: none; stroke: #1f77b4; stroke-opacity: 0.5; stroke-width: 0.2; stroke-linecap: square"/>
   <path d="M 290.077717 84.505654 
L 291.077717 84.53709 
L 292.077717 84.57403 
L 293.077717 84.671777 
L 294.077717 84.704298 
L 295.077717 84.777923 
L 296.077717 84.816489 
L 297.077717 84.851902 
L 298.077717 84.909542 
L 299.077717 84.979928 
L 300.077717 85.031892 
L 301.077717 85.090982 
L 302.077717 85.179303 
L 303.077717 85.225447 
L 304.077717 85.267858 
L 305.077717 85.298351 
L 306.077717 85.324396 
L 307.077717 85.345596 
L 308.077717 85.399897 
L 309.077717 85.427835 
L 310.077717 85.457558 
L 311.077717 85.482953 
L 312.077717 85.494154 
L 313.077717 85.504278 
L 314.077717 85.504073 
L 315.077717 85.494563 
L 316.077717 85.48291 
L 317.077717 85.451881 
L 318.077717 85.440713 
L 319.077717 85.410595 
L 320.077717 85.350818 
L 321.077717 85.313627 
L 322.077717 85.274531 
L 323.077717 85.232091 
L 324.077717 85.199326 
L 325.077717 85.131899 
L 326.077717 85.092773 
L 327.077717 85.050099 
L 328.077717 84.979518 
L 329.077717 84.943127 
L 330.077717 84.884724 
L 331.077717 84.773772 
L 332.077717 84.703113 
L 333.077717 84.590174 
L 334.077717 84.544401 
L 335.077717 84.483117 
L 336.077717 84.434618 
L 337.077717 84.353795 
L 338.077717 84.235277 
L 339.077717 84.165066 
L 340.077717 84.081803 
L 341.077717 84.048662 
L 342.077717 83.997424 
L 343.077717 83.929026 
L 344.077717 83.862811 
L 345.077717 83.785893 
L 346.077717 83.758578 
L 347.077717 83.7321 
L 348.077717 83.70945 
L 349.077717 83.689919 
L 350.077717 83.663525 
L 351.077717 83.613754 
L 352.077717 83.578681 
L 353.703533 83.542815 
" clip-path="url(#p3c32223ee3)" style="fill: none; stroke: #1f77b4; stroke-opacity: 0.5; stroke-width: 0.2; stroke-linecap: square"/>
   <path d="M 290.077717 144.751969 
L 291.077717 144.783406 
L 292.077717 144.820346 
L 293.077717 144.918093 
L 294.077717 144.950614 
L 295.077717 145.024239 
L 296.077717 145.062805 
L 297.077717 145.098218 
L 298.077717 145.155858 
L 299.077717 145.226244 
L 300.077717 145.278208 
L 301.077717 145.337298 
L 302.077717 145.425619 
L 303.077717 145.471763 
L 304.077717 145.514174 
L 305.077717 145.544667 
L 306.077717 145.570712 
L 307.077717 145.591912 
L 308.077717 145.646213 
L 309.077717 145.67415 
L 310.077717 145.703874 
L 311.077717 145.729269 
L 312.077717 145.74047 
L 313.077717 145.750594 
L 314.077717 145.750389 
L 315.077717 145.740879 
L 316.077717 145.729226 
L 317.077717 145.698197 
L 318.077717 145.687029 
L 319.077717 145.656911 
L 320.077717 145.597134 
L 321.077717 145.559943 
L 322.077717 145.520847 
L 323.077717 145.478407 
L 324.077717 145.445642 
L 325.077717 145.378215 
L 326.077717 145.339089 
L 327.077717 145.296415 
L 328.077717 145.225834 
L 329.077717 145.189443 
L 330.077717 145.13104 
L 331.077717 145.020088 
L 332.077717 144.949429 
L 333.077717 144.836489 
L 334.077717 144.790717 
L 335.077717 144.729433 
L 336.077717 144.680934 
L 337.077717 144.600111 
L 338.077717 144.481592 
L 339.077717 144.411382 
L 340.077717 144.328119 
L 341.077717 144.294978 
L 342.077717 144.24374 
L 343.077717 144.175342 
L 344.077717 144.109126 
L 345.077717 144.032209 
L 346.077717 144.004894 
L 347.077717 143.978416 
L 348.077717 143.955766 
L 349.077717 143.936234 
L 350.077717 143.909841 
L 351.077717 143.86007 
L 352.077717 143.824997 
L 353.703533 143.789131 
" clip-path="url(#p3c32223ee3)" style="fill: none; stroke: #1f77b4; stroke-opacity: 0.5; stroke-width: 0.2; stroke-linecap: square"/>
   <path d="M 290.077717 172.658851 
L 291.077717 172.690288 
L 292.077717 172.727228 
L 293.077717 172.824975 
L 294.077717 172.857496 
L 295.077717 172.931121 
L 296.077717 172.969687 
L 297.077717 173.0051 
L 298.077717 173.06274 
L 299.077717 173.133126 
L 300.077717 173.18509 
L 301.077717 173.24418 
L 302.077717 173.332501 
L 303.077717 173.378645 
L 304.077717 173.421056 
L 305.077717 173.451549 
L 306.077717 173.477594 
L 307.077717 173.498794 
L 308.077717 173.553095 
L 309.077717 173.581032 
L 310.077717 173.610756 
L 311.077717 173.636151 
L 312.077717 173.647352 
L 313.077717 173.657476 
L 314.077717 173.657271 
L 315.077717 173.647761 
L 316.077717 173.636108 
L 317.077717 173.605078 
L 318.077717 173.593911 
L 319.077717 173.563793 
L 320.077717 173.504016 
L 321.077717 173.466825 
L 322.077717 173.427728 
L 323.077717 173.385289 
L 324.077717 173.352524 
L 325.077717 173.285097 
L 326.077717 173.245971 
L 327.077717 173.203297 
L 328.077717 173.132716 
L 329.077717 173.096325 
L 330.077717 173.037922 
L 331.077717 172.92697 
L 332.077717 172.856311 
L 333.077717 172.743371 
L 334.077717 172.697599 
L 335.077717 172.636315 
L 336.077717 172.587816 
L 337.077717 172.506993 
L 338.077717 172.388474 
L 339.077717 172.318264 
L 340.077717 172.235001 
L 341.077717 172.20186 
L 342.077717 172.150622 
L 343.077717 172.082224 
L 344.077717 172.016008 
L 345.077717 171.939091 
L 346.077717 171.911776 
L 347.077717 171.885298 
L 348.077717 171.862648 
L 349.077717 171.843116 
L 350.077717 171.816722 
L 351.077717 171.766952 
L 352.077717 171.731878 
L 353.703533 171.696013 
" clip-path="url(#p3c32223ee3)" style="fill: none; stroke: #1f77b4; stroke-opacity: 0.5; stroke-width: 0.2; stroke-linecap: square"/>
   <path d="M 290.077717 114.984977 
L 291.077717 115.016414 
L 292.077717 115.053354 
L 293.077717 115.151101 
L 294.077717 115.183622 
L 295.077717 115.257247 
L 296.077717 115.295813 
L 297.077717 115.331226 
L 298.077717 115.388866 
L 299.077717 115.459252 
L 300.077717 115.511216 
L 301.077717 115.570306 
L 302.077717 115.658627 
L 303.077717 115.704771 
L 304.077717 115.747182 
L 305.077717 115.777675 
L 306.077717 115.80372 
L 307.077717 115.82492 
L 308.077717 115.879221 
L 309.077717 115.907158 
L 310.077717 115.936882 
L 311.077717 115.962277 
L 312.077717 115.973478 
L 313.077717 115.983601 
L 314.077717 115.983397 
L 315.077717 115.973887 
L 316.077717 115.962234 
L 317.077717 115.931204 
L 318.077717 115.920037 
L 319.077717 115.889919 
L 320.077717 115.830142 
L 321.077717 115.792951 
L 322.077717 115.753854 
L 323.077717 115.711415 
L 324.077717 115.67865 
L 325.077717 115.611223 
L 326.077717 115.572097 
L 327.077717 115.529423 
L 328.077717 115.458842 
L 329.077717 115.422451 
L 330.077717 115.364048 
L 331.077717 115.253096 
L 332.077717 115.182437 
L 333.077717 115.069497 
L 334.077717 115.023725 
L 335.077717 114.962441 
L 336.077717 114.913942 
L 337.077717 114.833119 
L 338.077717 114.7146 
L 339.077717 114.64439 
L 340.077717 114.561127 
L 341.077717 114.527985 
L 342.077717 114.476748 
L 343.077717 114.40835 
L 344.077717 114.342134 
L 345.077717 114.265217 
L 346.077717 114.237902 
L 347.077717 114.211424 
L 348.077717 114.188774 
L 349.077717 114.169242 
L 350.077717 114.142848 
L 351.077717 114.093078 
L 352.077717 114.058004 
L 353.703533 114.022139 
" clip-path="url(#p3c32223ee3)" style="fill: none; stroke: #1f77b4; stroke-opacity: 0.5; stroke-width: 0.2; stroke-linecap: square"/>
   <path d="M 290.077717 91.109591 
L 291.077717 91.141028 
L 292.077717 91.177968 
L 293.077717 91.275715 
L 294.077717 91.308236 
L 295.077717 91.381861 
L 296.077717 91.420427 
L 297.077717 91.45584 
L 298.077717 91.51348 
L 299.077717 91.583866 
L 300.077717 91.63583 
L 301.077717 91.69492 
L 302.077717 91.783241 
L 303.077717 91.829385 
L 304.077717 91.871796 
L 305.077717 91.902289 
L 306.077717 91.928334 
L 307.077717 91.949534 
L 308.077717 92.003835 
L 309.077717 92.031772 
L 310.077717 92.061496 
L 311.077717 92.086891 
L 312.077717 92.098092 
L 313.077717 92.108216 
L 314.077717 92.108011 
L 315.077717 92.098501 
L 316.077717 92.086848 
L 317.077717 92.055818 
L 318.077717 92.044651 
L 319.077717 92.014533 
L 320.077717 91.954756 
L 321.077717 91.917565 
L 322.077717 91.878468 
L 323.077717 91.836029 
L 324.077717 91.803264 
L 325.077717 91.735837 
L 326.077717 91.696711 
L 327.077717 91.654037 
L 328.077717 91.583456 
L 329.077717 91.547065 
L 330.077717 91.488662 
L 331.077717 91.37771 
L 332.077717 91.307051 
L 333.077717 91.194111 
L 334.077717 91.148339 
L 335.077717 91.087055 
L 336.077717 91.038556 
L 337.077717 90.957733 
L 338.077717 90.839214 
L 339.077717 90.769004 
L 340.077717 90.685741 
L 341.077717 90.652599 
L 342.077717 90.601362 
L 343.077717 90.532964 
L 344.077717 90.466748 
L 345.077717 90.389831 
L 346.077717 90.362516 
L 347.077717 90.336038 
L 348.077717 90.313388 
L 349.077717 90.293856 
L 350.077717 90.267462 
L 351.077717 90.217692 
L 352.077717 90.182618 
L 353.703533 90.146753 
" clip-path="url(#p3c32223ee3)" style="fill: none; stroke: #1f77b4; stroke-opacity: 0.5; stroke-width: 0.2; stroke-linecap: square"/>
   <path d="M 290.077717 132.600716 
L 291.077717 132.632152 
L 292.077717 132.669092 
L 293.077717 132.766839 
L 294.077717 132.79936 
L 295.077717 132.872985 
L 296.077717 132.911551 
L 297.077717 132.946964 
L 298.077717 133.004604 
L 299.077717 133.07499 
L 300.077717 133.126954 
L 301.077717 133.186044 
L 302.077717 133.274365 
L 303.077717 133.320509 
L 304.077717 133.36292 
L 305.077717 133.393413 
L 306.077717 133.419458 
L 307.077717 133.440658 
L 308.077717 133.494959 
L 309.077717 133.522897 
L 310.077717 133.552621 
L 311.077717 133.578015 
L 312.077717 133.589216 
L 313.077717 133.59934 
L 314.077717 133.599135 
L 315.077717 133.589626 
L 316.077717 133.577972 
L 317.077717 133.546943 
L 318.077717 133.535775 
L 319.077717 133.505657 
L 320.077717 133.44588 
L 321.077717 133.408689 
L 322.077717 133.369593 
L 323.077717 133.327153 
L 324.077717 133.294388 
L 325.077717 133.226961 
L 326.077717 133.187836 
L 327.077717 133.145161 
L 328.077717 133.07458 
L 329.077717 133.03819 
L 330.077717 132.979786 
L 331.077717 132.868834 
L 332.077717 132.798175 
L 333.077717 132.685236 
L 334.077717 132.639463 
L 335.077717 132.57818 
L 336.077717 132.52968 
L 337.077717 132.448858 
L 338.077717 132.330339 
L 339.077717 132.260128 
L 340.077717 132.176865 
L 341.077717 132.143724 
L 342.077717 132.092486 
L 343.077717 132.024088 
L 344.077717 131.957873 
L 345.077717 131.880956 
L 346.077717 131.85364 
L 347.077717 131.827163 
L 348.077717 131.804512 
L 349.077717 131.784981 
L 350.077717 131.758587 
L 351.077717 131.708816 
L 352.077717 131.673743 
L 353.703533 131.637877 
" clip-path="url(#p3c32223ee3)" style="fill: none; stroke: #1f77b4; stroke-opacity: 0.5; stroke-width: 0.2; stroke-linecap: square"/>
   <path d="M 290.077717 130.950782 
L 291.077717 130.982219 
L 292.077717 131.019159 
L 293.077717 131.116905 
L 294.077717 131.149427 
L 295.077717 131.223052 
L 296.077717 131.261617 
L 297.077717 131.297031 
L 298.077717 131.35467 
L 299.077717 131.425057 
L 300.077717 131.477021 
L 301.077717 131.536111 
L 302.077717 131.624432 
L 303.077717 131.670576 
L 304.077717 131.712987 
L 305.077717 131.74348 
L 306.077717 131.769524 
L 307.077717 131.790725 
L 308.077717 131.845026 
L 309.077717 131.872963 
L 310.077717 131.902687 
L 311.077717 131.928082 
L 312.077717 131.939282 
L 313.077717 131.949406 
L 314.077717 131.949202 
L 315.077717 131.939692 
L 316.077717 131.928039 
L 317.077717 131.897009 
L 318.077717 131.885841 
L 319.077717 131.855724 
L 320.077717 131.795947 
L 321.077717 131.758755 
L 322.077717 131.719659 
L 323.077717 131.67722 
L 324.077717 131.644455 
L 325.077717 131.577028 
L 326.077717 131.537902 
L 327.077717 131.495228 
L 328.077717 131.424647 
L 329.077717 131.388256 
L 330.077717 131.329853 
L 331.077717 131.2189 
L 332.077717 131.148242 
L 333.077717 131.035302 
L 334.077717 130.989529 
L 335.077717 130.928246 
L 336.077717 130.879747 
L 337.077717 130.798924 
L 338.077717 130.680405 
L 339.077717 130.610195 
L 340.077717 130.526932 
L 341.077717 130.49379 
L 342.077717 130.442553 
L 343.077717 130.374155 
L 344.077717 130.307939 
L 345.077717 130.231022 
L 346.077717 130.203707 
L 347.077717 130.177229 
L 348.077717 130.154578 
L 349.077717 130.135047 
L 350.077717 130.108653 
L 351.077717 130.058882 
L 352.077717 130.023809 
L 353.703533 129.987944 
" clip-path="url(#p3c32223ee3)" style="fill: none; stroke: #1f77b4; stroke-opacity: 0.5; stroke-width: 0.2; stroke-linecap: square"/>
   <path d="M 290.077717 153.014555 
L 291.077717 153.045992 
L 292.077717 153.082932 
L 293.077717 153.180679 
L 294.077717 153.2132 
L 295.077717 153.286825 
L 296.077717 153.32539 
L 297.077717 153.360804 
L 298.077717 153.418444 
L 299.077717 153.48883 
L 300.077717 153.540794 
L 301.077717 153.599884 
L 302.077717 153.688205 
L 303.077717 153.734349 
L 304.077717 153.77676 
L 305.077717 153.807253 
L 306.077717 153.833298 
L 307.077717 153.854498 
L 308.077717 153.908799 
L 309.077717 153.936736 
L 310.077717 153.96646 
L 311.077717 153.991855 
L 312.077717 154.003055 
L 313.077717 154.013179 
L 314.077717 154.012975 
L 315.077717 154.003465 
L 316.077717 153.991812 
L 317.077717 153.960782 
L 318.077717 153.949614 
L 319.077717 153.919497 
L 320.077717 153.85972 
L 321.077717 153.822528 
L 322.077717 153.783432 
L 323.077717 153.740993 
L 324.077717 153.708228 
L 325.077717 153.640801 
L 326.077717 153.601675 
L 327.077717 153.559001 
L 328.077717 153.48842 
L 329.077717 153.452029 
L 330.077717 153.393626 
L 331.077717 153.282673 
L 332.077717 153.212015 
L 333.077717 153.099075 
L 334.077717 153.053302 
L 335.077717 152.992019 
L 336.077717 152.94352 
L 337.077717 152.862697 
L 338.077717 152.744178 
L 339.077717 152.673968 
L 340.077717 152.590705 
L 341.077717 152.557563 
L 342.077717 152.506326 
L 343.077717 152.437928 
L 344.077717 152.371712 
L 345.077717 152.294795 
L 346.077717 152.26748 
L 347.077717 152.241002 
L 348.077717 152.218352 
L 349.077717 152.19882 
L 350.077717 152.172426 
L 351.077717 152.122655 
L 352.077717 152.087582 
L 353.703533 152.051717 
" clip-path="url(#p3c32223ee3)" style="fill: none; stroke: #1f77b4; stroke-opacity: 0.5; stroke-width: 0.2; stroke-linecap: square"/>
   <path d="M 290.077717 143.815977 
L 291.077717 143.847413 
L 292.077717 143.884354 
L 293.077717 143.9821 
L 294.077717 144.014622 
L 295.077717 144.088246 
L 296.077717 144.126812 
L 297.077717 144.162225 
L 298.077717 144.219865 
L 299.077717 144.290251 
L 300.077717 144.342216 
L 301.077717 144.401305 
L 302.077717 144.489626 
L 303.077717 144.535771 
L 304.077717 144.578182 
L 305.077717 144.608674 
L 306.077717 144.634719 
L 307.077717 144.655919 
L 308.077717 144.71022 
L 309.077717 144.738158 
L 310.077717 144.767882 
L 311.077717 144.793277 
L 312.077717 144.804477 
L 313.077717 144.814601 
L 314.077717 144.814397 
L 315.077717 144.804887 
L 316.077717 144.793233 
L 317.077717 144.762204 
L 318.077717 144.751036 
L 319.077717 144.720919 
L 320.077717 144.661142 
L 321.077717 144.62395 
L 322.077717 144.584854 
L 323.077717 144.542414 
L 324.077717 144.509649 
L 325.077717 144.442223 
L 326.077717 144.403097 
L 327.077717 144.360422 
L 328.077717 144.289842 
L 329.077717 144.253451 
L 330.077717 144.195048 
L 331.077717 144.084095 
L 332.077717 144.013437 
L 333.077717 143.900497 
L 334.077717 143.854724 
L 335.077717 143.793441 
L 336.077717 143.744941 
L 337.077717 143.664119 
L 338.077717 143.5456 
L 339.077717 143.475389 
L 340.077717 143.392127 
L 341.077717 143.358985 
L 342.077717 143.307748 
L 343.077717 143.239349 
L 344.077717 143.173134 
L 345.077717 143.096217 
L 346.077717 143.068901 
L 347.077717 143.042424 
L 348.077717 143.019773 
L 349.077717 143.000242 
L 350.077717 142.973848 
L 351.077717 142.924077 
L 352.077717 142.889004 
L 353.703533 142.853138 
" clip-path="url(#p3c32223ee3)" style="fill: none; stroke: #1f77b4; stroke-opacity: 0.5; stroke-width: 0.2; stroke-linecap: square"/>
   <path d="M 353.703533 221.378849 
L 352.703533 221.347412 
L 351.703533 221.310472 
L 350.703533 221.212726 
L 349.703533 221.180204 
L 348.703533 221.106579 
L 347.703533 221.068014 
L 346.703533 221.0326 
L 345.703533 220.974961 
L 344.703533 220.904574 
L 343.703533 220.85261 
L 342.703533 220.79352 
L 341.703533 220.705199 
L 340.703533 220.659055 
L 339.703533 220.616644 
L 338.703533 220.586152 
L 337.703533 220.560107 
L 336.703533 220.538906 
L 335.703533 220.484605 
L 334.703533 220.456668 
L 333.703533 220.426944 
L 332.703533 220.401549 
L 331.703533 220.390349 
L 330.703533 220.380225 
L 329.703533 220.380429 
L 328.703533 220.389939 
L 327.703533 220.401592 
L 326.703533 220.432622 
L 325.703533 220.44379 
L 324.703533 220.473907 
L 323.703533 220.533684 
L 322.703533 220.570876 
L 321.703533 220.609972 
L 320.703533 220.652411 
L 319.703533 220.685176 
L 318.703533 220.752603 
L 317.703533 220.791729 
L 316.703533 220.834403 
L 315.703533 220.904984 
L 314.703533 220.941375 
L 313.703533 220.999778 
L 312.703533 221.110731 
L 311.703533 221.181389 
L 310.703533 221.294329 
L 309.703533 221.340102 
L 308.703533 221.401385 
L 307.703533 221.449884 
L 306.703533 221.530707 
L 305.703533 221.649226 
L 304.703533 221.719436 
L 303.703533 221.802699 
L 302.703533 221.835841 
L 301.703533 221.887078 
L 300.703533 221.955476 
L 299.703533 222.021692 
L 298.703533 222.098609 
L 297.703533 222.125924 
L 296.703533 222.152402 
L 295.703533 222.175053 
L 294.703533 222.194584 
L 293.703533 222.220978 
L 292.703533 222.270749 
L 291.703533 222.305822 
L 290.077717 222.341687 
" clip-path="url(#p3c32223ee3)" style="fill: none; stroke: #ff7f0e; stroke-opacity: 0.5; stroke-width: 0.2; stroke-linecap: square"/>
   <path d="M 353.703533 219.127135 
L 352.703533 219.095698 
L 351.703533 219.058758 
L 350.703533 218.961011 
L 349.703533 218.92849 
L 348.703533 218.854865 
L 347.703533 218.816299 
L 346.703533 218.780886 
L 345.703533 218.723246 
L 344.703533 218.65286 
L 343.703533 218.600896 
L 342.703533 218.541806 
L 341.703533 218.453485 
L 340.703533 218.407341 
L 339.703533 218.36493 
L 338.703533 218.334437 
L 337.703533 218.308392 
L 336.703533 218.287192 
L 335.703533 218.232891 
L 334.703533 218.204954 
L 333.703533 218.17523 
L 332.703533 218.149835 
L 331.703533 218.138634 
L 330.703533 218.128511 
L 329.703533 218.128715 
L 328.703533 218.138225 
L 327.703533 218.149878 
L 326.703533 218.180908 
L 325.703533 218.192075 
L 324.703533 218.222193 
L 323.703533 218.28197 
L 322.703533 218.319161 
L 321.703533 218.358258 
L 320.703533 218.400697 
L 319.703533 218.433462 
L 318.703533 218.500889 
L 317.703533 218.540015 
L 316.703533 218.582689 
L 315.703533 218.65327 
L 314.703533 218.689661 
L 313.703533 218.748064 
L 312.703533 218.859016 
L 311.703533 218.929675 
L 310.703533 219.042615 
L 309.703533 219.088387 
L 308.703533 219.149671 
L 307.703533 219.19817 
L 306.703533 219.278993 
L 305.703533 219.397512 
L 304.703533 219.467722 
L 303.703533 219.550985 
L 302.703533 219.584127 
L 301.703533 219.635364 
L 300.703533 219.703762 
L 299.703533 219.769978 
L 298.703533 219.846895 
L 297.703533 219.87421 
L 296.703533 219.900688 
L 295.703533 219.923338 
L 294.703533 219.94287 
L 293.703533 219.969264 
L 292.703533 220.019034 
L 291.703533 220.054108 
L 290.077717 220.089973 
" clip-path="url(#p3c32223ee3)" style="fill: none; stroke: #ff7f0e; stroke-opacity: 0.5; stroke-width: 0.2; stroke-linecap: square"/>
   <path d="M 353.703533 314.591895 
L 352.703533 314.560459 
L 351.703533 314.523519 
L 350.703533 314.425772 
L 349.703533 314.393251 
L 348.703533 314.319626 
L 347.703533 314.28106 
L 346.703533 314.245647 
L 345.703533 314.188007 
L 344.703533 314.117621 
L 343.703533 314.065657 
L 342.703533 314.006567 
L 341.703533 313.918246 
L 340.703533 313.872102 
L 339.703533 313.829691 
L 338.703533 313.799198 
L 337.703533 313.773153 
L 336.703533 313.751953 
L 335.703533 313.697652 
L 334.703533 313.669714 
L 333.703533 313.63999 
L 332.703533 313.614596 
L 331.703533 313.603395 
L 330.703533 313.593271 
L 329.703533 313.593476 
L 328.703533 313.602986 
L 327.703533 313.614639 
L 326.703533 313.645668 
L 325.703533 313.656836 
L 324.703533 313.686954 
L 323.703533 313.746731 
L 322.703533 313.783922 
L 321.703533 313.823018 
L 320.703533 313.865458 
L 319.703533 313.898223 
L 318.703533 313.96565 
L 317.703533 314.004775 
L 316.703533 314.04745 
L 315.703533 314.118031 
L 314.703533 314.154422 
L 313.703533 314.212825 
L 312.703533 314.323777 
L 311.703533 314.394436 
L 310.703533 314.507375 
L 309.703533 314.553148 
L 308.703533 314.614432 
L 307.703533 314.662931 
L 306.703533 314.743754 
L 305.703533 314.862272 
L 304.703533 314.932483 
L 303.703533 315.015746 
L 302.703533 315.048887 
L 301.703533 315.100125 
L 300.703533 315.168523 
L 299.703533 315.234738 
L 298.703533 315.311655 
L 297.703533 315.338971 
L 296.703533 315.365448 
L 295.703533 315.388099 
L 294.703533 315.40763 
L 293.703533 315.434024 
L 292.703533 315.483795 
L 291.703533 315.518868 
L 290.077717 315.554734 
" clip-path="url(#p3c32223ee3)" style="fill: none; stroke: #ff7f0e; stroke-opacity: 0.5; stroke-width: 0.2; stroke-linecap: square"/>
   <path d="M 353.703533 301.514699 
L 352.703533 301.483262 
L 351.703533 301.446322 
L 350.703533 301.348575 
L 349.703533 301.316054 
L 348.703533 301.242429 
L 347.703533 301.203864 
L 346.703533 301.16845 
L 345.703533 301.11081 
L 344.703533 301.040424 
L 343.703533 300.98846 
L 342.703533 300.92937 
L 341.703533 300.841049 
L 340.703533 300.794905 
L 339.703533 300.752494 
L 338.703533 300.722001 
L 337.703533 300.695956 
L 336.703533 300.674756 
L 335.703533 300.620455 
L 334.703533 300.592518 
L 333.703533 300.562794 
L 332.703533 300.537399 
L 331.703533 300.526199 
L 330.703533 300.516075 
L 329.703533 300.516279 
L 328.703533 300.525789 
L 327.703533 300.537442 
L 326.703533 300.568472 
L 325.703533 300.57964 
L 324.703533 300.609757 
L 323.703533 300.669534 
L 322.703533 300.706726 
L 321.703533 300.745822 
L 320.703533 300.788261 
L 319.703533 300.821026 
L 318.703533 300.888453 
L 317.703533 300.927579 
L 316.703533 300.970253 
L 315.703533 301.040834 
L 314.703533 301.077225 
L 313.703533 301.135628 
L 312.703533 301.246581 
L 311.703533 301.317239 
L 310.703533 301.430179 
L 309.703533 301.475952 
L 308.703533 301.537235 
L 307.703533 301.585734 
L 306.703533 301.666557 
L 305.703533 301.785076 
L 304.703533 301.855286 
L 303.703533 301.938549 
L 302.703533 301.971691 
L 301.703533 302.022928 
L 300.703533 302.091326 
L 299.703533 302.157542 
L 298.703533 302.234459 
L 297.703533 302.261774 
L 296.703533 302.288252 
L 295.703533 302.310902 
L 294.703533 302.330434 
L 293.703533 302.356828 
L 292.703533 302.406598 
L 291.703533 302.441672 
L 290.077717 302.477537 
" clip-path="url(#p3c32223ee3)" style="fill: none; stroke: #ff7f0e; stroke-opacity: 0.5; stroke-width: 0.2; stroke-linecap: square"/>
   <path d="M 353.703533 254.579009 
L 352.703533 254.547573 
L 351.703533 254.510633 
L 350.703533 254.412886 
L 349.703533 254.380364 
L 348.703533 254.30674 
L 347.703533 254.268174 
L 346.703533 254.232761 
L 345.703533 254.175121 
L 344.703533 254.104735 
L 343.703533 254.052771 
L 342.703533 253.993681 
L 341.703533 253.90536 
L 340.703533 253.859216 
L 339.703533 253.816805 
L 338.703533 253.786312 
L 337.703533 253.760267 
L 336.703533 253.739067 
L 335.703533 253.684766 
L 334.703533 253.656828 
L 333.703533 253.627104 
L 332.703533 253.60171 
L 331.703533 253.590509 
L 330.703533 253.580385 
L 329.703533 253.58059 
L 328.703533 253.590099 
L 327.703533 253.601753 
L 326.703533 253.632782 
L 325.703533 253.64395 
L 324.703533 253.674068 
L 323.703533 253.733845 
L 322.703533 253.771036 
L 321.703533 253.810132 
L 320.703533 253.852572 
L 319.703533 253.885337 
L 318.703533 253.952763 
L 317.703533 253.991889 
L 316.703533 254.034564 
L 315.703533 254.105145 
L 314.703533 254.141535 
L 313.703533 254.199939 
L 312.703533 254.310891 
L 311.703533 254.381549 
L 310.703533 254.494489 
L 309.703533 254.540262 
L 308.703533 254.601545 
L 307.703533 254.650045 
L 306.703533 254.730867 
L 305.703533 254.849386 
L 304.703533 254.919597 
L 303.703533 255.002859 
L 302.703533 255.036001 
L 301.703533 255.087239 
L 300.703533 255.155637 
L 299.703533 255.221852 
L 298.703533 255.298769 
L 297.703533 255.326085 
L 296.703533 255.352562 
L 295.703533 255.375213 
L 294.703533 255.394744 
L 293.703533 255.421138 
L 292.703533 255.470909 
L 291.703533 255.505982 
L 290.077717 255.541848 
" clip-path="url(#p3c32223ee3)" style="fill: none; stroke: #ff7f0e; stroke-opacity: 0.5; stroke-width: 0.2; stroke-linecap: square"/>
   <path d="M 353.703533 273.946237 
L 352.703533 273.914801 
L 351.703533 273.877861 
L 350.703533 273.780114 
L 349.703533 273.747592 
L 348.703533 273.673968 
L 347.703533 273.635402 
L 346.703533 273.599989 
L 345.703533 273.542349 
L 344.703533 273.471963 
L 343.703533 273.419999 
L 342.703533 273.360909 
L 341.703533 273.272588 
L 340.703533 273.226444 
L 339.703533 273.184033 
L 338.703533 273.15354 
L 337.703533 273.127495 
L 336.703533 273.106295 
L 335.703533 273.051994 
L 334.703533 273.024056 
L 333.703533 272.994332 
L 332.703533 272.968938 
L 331.703533 272.957737 
L 330.703533 272.947613 
L 329.703533 272.947818 
L 328.703533 272.957327 
L 327.703533 272.968981 
L 326.703533 273.00001 
L 325.703533 273.011178 
L 324.703533 273.041296 
L 323.703533 273.101073 
L 322.703533 273.138264 
L 321.703533 273.17736 
L 320.703533 273.2198 
L 319.703533 273.252565 
L 318.703533 273.319991 
L 317.703533 273.359117 
L 316.703533 273.401792 
L 315.703533 273.472373 
L 314.703533 273.508763 
L 313.703533 273.567167 
L 312.703533 273.678119 
L 311.703533 273.748777 
L 310.703533 273.861717 
L 309.703533 273.90749 
L 308.703533 273.968773 
L 307.703533 274.017273 
L 306.703533 274.098095 
L 305.703533 274.216614 
L 304.703533 274.286825 
L 303.703533 274.370087 
L 302.703533 274.403229 
L 301.703533 274.454467 
L 300.703533 274.522865 
L 299.703533 274.58908 
L 298.703533 274.665997 
L 297.703533 274.693313 
L 296.703533 274.71979 
L 295.703533 274.742441 
L 294.703533 274.761972 
L 293.703533 274.788366 
L 292.703533 274.838137 
L 291.703533 274.87321 
L 290.077717 274.909076 
" clip-path="url(#p3c32223ee3)" style="fill: none; stroke: #ff7f0e; stroke-opacity: 0.5; stroke-width: 0.2; stroke-linecap: square"/>
   <path d="M 353.703533 242.598616 
L 352.703533 242.567179 
L 351.703533 242.530239 
L 350.703533 242.432492 
L 349.703533 242.399971 
L 348.703533 242.326346 
L 347.703533 242.28778 
L 346.703533 242.252367 
L 345.703533 242.194727 
L 344.703533 242.124341 
L 343.703533 242.072377 
L 342.703533 242.013287 
L 341.703533 241.924966 
L 340.703533 241.878822 
L 339.703533 241.836411 
L 338.703533 241.805918 
L 337.703533 241.779873 
L 336.703533 241.758673 
L 335.703533 241.704372 
L 334.703533 241.676435 
L 333.703533 241.646711 
L 332.703533 241.621316 
L 331.703533 241.610115 
L 330.703533 241.599991 
L 329.703533 241.600196 
L 328.703533 241.609706 
L 327.703533 241.621359 
L 326.703533 241.652388 
L 325.703533 241.663556 
L 324.703533 241.693674 
L 323.703533 241.753451 
L 322.703533 241.790642 
L 321.703533 241.829738 
L 320.703533 241.872178 
L 319.703533 241.904943 
L 318.703533 241.97237 
L 317.703533 242.011496 
L 316.703533 242.05417 
L 315.703533 242.124751 
L 314.703533 242.161142 
L 313.703533 242.219545 
L 312.703533 242.330497 
L 311.703533 242.401156 
L 310.703533 242.514096 
L 309.703533 242.559868 
L 308.703533 242.621152 
L 307.703533 242.669651 
L 306.703533 242.750474 
L 305.703533 242.868993 
L 304.703533 242.939203 
L 303.703533 243.022466 
L 302.703533 243.055607 
L 301.703533 243.106845 
L 300.703533 243.175243 
L 299.703533 243.241459 
L 298.703533 243.318376 
L 297.703533 243.345691 
L 296.703533 243.372169 
L 295.703533 243.394819 
L 294.703533 243.414351 
L 293.703533 243.440745 
L 292.703533 243.490515 
L 291.703533 243.525588 
L 290.077717 243.561454 
" clip-path="url(#p3c32223ee3)" style="fill: none; stroke: #ff7f0e; stroke-opacity: 0.5; stroke-width: 0.2; stroke-linecap: square"/>
   <path d="M 353.703533 207.248097 
L 352.703533 207.216661 
L 351.703533 207.17972 
L 350.703533 207.081974 
L 349.703533 207.049452 
L 348.703533 206.975828 
L 347.703533 206.937262 
L 346.703533 206.901849 
L 345.703533 206.844209 
L 344.703533 206.773823 
L 343.703533 206.721859 
L 342.703533 206.662769 
L 341.703533 206.574448 
L 340.703533 206.528304 
L 339.703533 206.485893 
L 338.703533 206.4554 
L 337.703533 206.429355 
L 336.703533 206.408155 
L 335.703533 206.353854 
L 334.703533 206.325916 
L 333.703533 206.296192 
L 332.703533 206.270797 
L 331.703533 206.259597 
L 330.703533 206.249473 
L 329.703533 206.249677 
L 328.703533 206.259187 
L 327.703533 206.270841 
L 326.703533 206.30187 
L 325.703533 206.313038 
L 324.703533 206.343156 
L 323.703533 206.402932 
L 322.703533 206.440124 
L 321.703533 206.47922 
L 320.703533 206.52166 
L 319.703533 206.554425 
L 318.703533 206.621851 
L 317.703533 206.660977 
L 316.703533 206.703652 
L 315.703533 206.774232 
L 314.703533 206.810623 
L 313.703533 206.869026 
L 312.703533 206.979979 
L 311.703533 207.050637 
L 310.703533 207.163577 
L 309.703533 207.20935 
L 308.703533 207.270633 
L 307.703533 207.319133 
L 306.703533 207.399955 
L 305.703533 207.518474 
L 304.703533 207.588685 
L 303.703533 207.671947 
L 302.703533 207.705089 
L 301.703533 207.756326 
L 300.703533 207.824725 
L 299.703533 207.89094 
L 298.703533 207.967857 
L 297.703533 207.995173 
L 296.703533 208.02165 
L 295.703533 208.044301 
L 294.703533 208.063832 
L 293.703533 208.090226 
L 292.703533 208.139997 
L 291.703533 208.17507 
L 290.077717 208.210936 
" clip-path="url(#p3c32223ee3)" style="fill: none; stroke: #ff7f0e; stroke-opacity: 0.5; stroke-width: 0.2; stroke-linecap: square"/>
   <path d="M 353.703533 280.965355 
L 352.703533 280.933919 
L 351.703533 280.896979 
L 350.703533 280.799232 
L 349.703533 280.766711 
L 348.703533 280.693086 
L 347.703533 280.65452 
L 346.703533 280.619107 
L 345.703533 280.561467 
L 344.703533 280.491081 
L 343.703533 280.439117 
L 342.703533 280.380027 
L 341.703533 280.291706 
L 340.703533 280.245562 
L 339.703533 280.203151 
L 338.703533 280.172658 
L 337.703533 280.146613 
L 336.703533 280.125413 
L 335.703533 280.071112 
L 334.703533 280.043174 
L 333.703533 280.01345 
L 332.703533 279.988056 
L 331.703533 279.976855 
L 330.703533 279.966731 
L 329.703533 279.966936 
L 328.703533 279.976445 
L 327.703533 279.988099 
L 326.703533 280.019128 
L 325.703533 280.030296 
L 324.703533 280.060414 
L 323.703533 280.120191 
L 322.703533 280.157382 
L 321.703533 280.196478 
L 320.703533 280.238918 
L 319.703533 280.271683 
L 318.703533 280.33911 
L 317.703533 280.378235 
L 316.703533 280.42091 
L 315.703533 280.491491 
L 314.703533 280.527881 
L 313.703533 280.586285 
L 312.703533 280.697237 
L 311.703533 280.767896 
L 310.703533 280.880835 
L 309.703533 280.926608 
L 308.703533 280.987891 
L 307.703533 281.036391 
L 306.703533 281.117213 
L 305.703533 281.235732 
L 304.703533 281.305943 
L 303.703533 281.389206 
L 302.703533 281.422347 
L 301.703533 281.473585 
L 300.703533 281.541983 
L 299.703533 281.608198 
L 298.703533 281.685115 
L 297.703533 281.712431 
L 296.703533 281.738908 
L 295.703533 281.761559 
L 294.703533 281.78109 
L 293.703533 281.807484 
L 292.703533 281.857255 
L 291.703533 281.892328 
L 290.077717 281.928194 
" clip-path="url(#p3c32223ee3)" style="fill: none; stroke: #ff7f0e; stroke-opacity: 0.5; stroke-width: 0.2; stroke-linecap: square"/>
   <path d="M 353.703533 239.166267 
L 352.703533 239.134831 
L 351.703533 239.09789 
L 350.703533 239.000144 
L 349.703533 238.967622 
L 348.703533 238.893997 
L 347.703533 238.855432 
L 346.703533 238.820019 
L 345.703533 238.762379 
L 344.703533 238.691993 
L 343.703533 238.640028 
L 342.703533 238.580939 
L 341.703533 238.492618 
L 340.703533 238.446473 
L 339.703533 238.404062 
L 338.703533 238.37357 
L 337.703533 238.347525 
L 336.703533 238.326325 
L 335.703533 238.272024 
L 334.703533 238.244086 
L 333.703533 238.214362 
L 332.703533 238.188967 
L 331.703533 238.177767 
L 330.703533 238.167643 
L 329.703533 238.167847 
L 328.703533 238.177357 
L 327.703533 238.189011 
L 326.703533 238.22004 
L 325.703533 238.231208 
L 324.703533 238.261325 
L 323.703533 238.321102 
L 322.703533 238.358294 
L 321.703533 238.39739 
L 320.703533 238.43983 
L 319.703533 238.472595 
L 318.703533 238.540021 
L 317.703533 238.579147 
L 316.703533 238.621822 
L 315.703533 238.692402 
L 314.703533 238.728793 
L 313.703533 238.787196 
L 312.703533 238.898149 
L 311.703533 238.968807 
L 310.703533 239.081747 
L 309.703533 239.12752 
L 308.703533 239.188803 
L 307.703533 239.237302 
L 306.703533 239.318125 
L 305.703533 239.436644 
L 304.703533 239.506855 
L 303.703533 239.590117 
L 302.703533 239.623259 
L 301.703533 239.674496 
L 300.703533 239.742895 
L 299.703533 239.80911 
L 298.703533 239.886027 
L 297.703533 239.913343 
L 296.703533 239.93982 
L 295.703533 239.962471 
L 294.703533 239.982002 
L 293.703533 240.008396 
L 292.703533 240.058167 
L 291.703533 240.09324 
L 290.077717 240.129106 
" clip-path="url(#p3c32223ee3)" style="fill: none; stroke: #ff7f0e; stroke-opacity: 0.5; stroke-width: 0.2; stroke-linecap: square"/>
   <path d="M 290.077717 260.263557 
L 291.077717 260.294993 
L 292.077717 260.331933 
L 293.077717 260.42968 
L 294.077717 260.462202 
L 295.077717 260.535826 
L 296.077717 260.574392 
L 297.077717 260.609805 
L 298.077717 260.667445 
L 299.077717 260.737831 
L 300.077717 260.789795 
L 301.077717 260.848885 
L 302.077717 260.937206 
L 303.077717 260.98335 
L 304.077717 261.025761 
L 305.077717 261.056254 
L 306.077717 261.082299 
L 307.077717 261.103499 
L 308.077717 261.1578 
L 309.077717 261.185738 
L 310.077717 261.215462 
L 311.077717 261.240856 
L 312.077717 261.252057 
L 313.077717 261.262181 
L 314.077717 261.261976 
L 315.077717 261.252467 
L 316.077717 261.240813 
L 317.077717 261.209784 
L 318.077717 261.198616 
L 319.077717 261.168498 
L 320.077717 261.108721 
L 321.077717 261.07153 
L 322.077717 261.032434 
L 323.077717 260.989994 
L 324.077717 260.957229 
L 325.077717 260.889802 
L 326.077717 260.850677 
L 327.077717 260.808002 
L 328.077717 260.737421 
L 329.077717 260.701031 
L 330.077717 260.642627 
L 331.077717 260.531675 
L 332.077717 260.461017 
L 333.077717 260.348077 
L 334.077717 260.302304 
L 335.077717 260.241021 
L 336.077717 260.192521 
L 337.077717 260.111699 
L 338.077717 259.99318 
L 339.077717 259.922969 
L 340.077717 259.839707 
L 341.077717 259.806565 
L 342.077717 259.755327 
L 343.077717 259.686929 
L 344.077717 259.620714 
L 345.077717 259.543797 
L 346.077717 259.516481 
L 347.077717 259.490004 
L 348.077717 259.467353 
L 349.077717 259.447822 
L 350.077717 259.421428 
L 351.077717 259.371657 
L 352.077717 259.336584 
L 353.703533 259.300718 
" clip-path="url(#p3c32223ee3)" style="fill: none; stroke: #1f77b4; stroke-opacity: 0.5; stroke-width: 0.2; stroke-linecap: square"/>
   <path d="M 290.077717 289.666457 
L 291.077717 289.697894 
L 292.077717 289.734834 
L 293.077717 289.83258 
L 294.077717 289.865102 
L 295.077717 289.938727 
L 296.077717 289.977292 
L 297.077717 290.012705 
L 298.077717 290.070345 
L 299.077717 290.140732 
L 300.077717 290.192696 
L 301.077717 290.251786 
L 302.077717 290.340107 
L 303.077717 290.386251 
L 304.077717 290.428662 
L 305.077717 290.459154 
L 306.077717 290.485199 
L 307.077717 290.506399 
L 308.077717 290.560701 
L 309.077717 290.588638 
L 310.077717 290.618362 
L 311.077717 290.643757 
L 312.077717 290.654957 
L 313.077717 290.665081 
L 314.077717 290.664877 
L 315.077717 290.655367 
L 316.077717 290.643714 
L 317.077717 290.612684 
L 318.077717 290.601516 
L 319.077717 290.571399 
L 320.077717 290.511622 
L 321.077717 290.47443 
L 322.077717 290.435334 
L 323.077717 290.392895 
L 324.077717 290.360129 
L 325.077717 290.292703 
L 326.077717 290.253577 
L 327.077717 290.210903 
L 328.077717 290.140322 
L 329.077717 290.103931 
L 330.077717 290.045528 
L 331.077717 289.934575 
L 332.077717 289.863917 
L 333.077717 289.750977 
L 334.077717 289.705204 
L 335.077717 289.643921 
L 336.077717 289.595422 
L 337.077717 289.514599 
L 338.077717 289.39608 
L 339.077717 289.32587 
L 340.077717 289.242607 
L 341.077717 289.209465 
L 342.077717 289.158228 
L 343.077717 289.08983 
L 344.077717 289.023614 
L 345.077717 288.946697 
L 346.077717 288.919382 
L 347.077717 288.892904 
L 348.077717 288.870253 
L 349.077717 288.850722 
L 350.077717 288.824328 
L 351.077717 288.774557 
L 352.077717 288.739484 
L 353.703533 288.703619 
" clip-path="url(#p3c32223ee3)" style="fill: none; stroke: #1f77b4; stroke-opacity: 0.5; stroke-width: 0.2; stroke-linecap: square"/>
   <path d="M 290.077717 262.726981 
L 291.077717 262.758417 
L 292.077717 262.795358 
L 293.077717 262.893104 
L 294.077717 262.925626 
L 295.077717 262.99925 
L 296.077717 263.037816 
L 297.077717 263.073229 
L 298.077717 263.130869 
L 299.077717 263.201255 
L 300.077717 263.253219 
L 301.077717 263.312309 
L 302.077717 263.40063 
L 303.077717 263.446774 
L 304.077717 263.489185 
L 305.077717 263.519678 
L 306.077717 263.545723 
L 307.077717 263.566923 
L 308.077717 263.621224 
L 309.077717 263.649162 
L 310.077717 263.678886 
L 311.077717 263.704281 
L 312.077717 263.715481 
L 313.077717 263.725605 
L 314.077717 263.725401 
L 315.077717 263.715891 
L 316.077717 263.704237 
L 317.077717 263.673208 
L 318.077717 263.66204 
L 319.077717 263.631922 
L 320.077717 263.572145 
L 321.077717 263.534954 
L 322.077717 263.495858 
L 323.077717 263.453418 
L 324.077717 263.420653 
L 325.077717 263.353227 
L 326.077717 263.314101 
L 327.077717 263.271426 
L 328.077717 263.200846 
L 329.077717 263.164455 
L 330.077717 263.106052 
L 331.077717 262.995099 
L 332.077717 262.924441 
L 333.077717 262.811501 
L 334.077717 262.765728 
L 335.077717 262.704445 
L 336.077717 262.655945 
L 337.077717 262.575123 
L 338.077717 262.456604 
L 339.077717 262.386393 
L 340.077717 262.303131 
L 341.077717 262.269989 
L 342.077717 262.218752 
L 343.077717 262.150353 
L 344.077717 262.084138 
L 345.077717 262.007221 
L 346.077717 261.979905 
L 347.077717 261.953428 
L 348.077717 261.930777 
L 349.077717 261.911246 
L 350.077717 261.884852 
L 351.077717 261.835081 
L 352.077717 261.800008 
L 353.703533 261.764142 
" clip-path="url(#p3c32223ee3)" style="fill: none; stroke: #1f77b4; stroke-opacity: 0.5; stroke-width: 0.2; stroke-linecap: square"/>
   <path d="M 290.077717 289.246793 
L 291.077717 289.278229 
L 292.077717 289.315169 
L 293.077717 289.412916 
L 294.077717 289.445438 
L 295.077717 289.519062 
L 296.077717 289.557628 
L 297.077717 289.593041 
L 298.077717 289.650681 
L 299.077717 289.721067 
L 300.077717 289.773031 
L 301.077717 289.832121 
L 302.077717 289.920442 
L 303.077717 289.966586 
L 304.077717 290.008997 
L 305.077717 290.03949 
L 306.077717 290.065535 
L 307.077717 290.086735 
L 308.077717 290.141036 
L 309.077717 290.168974 
L 310.077717 290.198698 
L 311.077717 290.224092 
L 312.077717 290.235293 
L 313.077717 290.245417 
L 314.077717 290.245212 
L 315.077717 290.235703 
L 316.077717 290.224049 
L 317.077717 290.19302 
L 318.077717 290.181852 
L 319.077717 290.151734 
L 320.077717 290.091957 
L 321.077717 290.054766 
L 322.077717 290.01567 
L 323.077717 289.97323 
L 324.077717 289.940465 
L 325.077717 289.873039 
L 326.077717 289.833913 
L 327.077717 289.791238 
L 328.077717 289.720657 
L 329.077717 289.684267 
L 330.077717 289.625863 
L 331.077717 289.514911 
L 332.077717 289.444253 
L 333.077717 289.331313 
L 334.077717 289.28554 
L 335.077717 289.224257 
L 336.077717 289.175757 
L 337.077717 289.094935 
L 338.077717 288.976416 
L 339.077717 288.906205 
L 340.077717 288.822943 
L 341.077717 288.789801 
L 342.077717 288.738563 
L 343.077717 288.670165 
L 344.077717 288.60395 
L 345.077717 288.527033 
L 346.077717 288.499717 
L 347.077717 288.47324 
L 348.077717 288.450589 
L 349.077717 288.431058 
L 350.077717 288.404664 
L 351.077717 288.354893 
L 352.077717 288.31982 
L 353.703533 288.283954 
" clip-path="url(#p3c32223ee3)" style="fill: none; stroke: #1f77b4; stroke-opacity: 0.5; stroke-width: 0.2; stroke-linecap: square"/>
   <path d="M 290.077717 255.763949 
L 291.077717 255.795386 
L 292.077717 255.832326 
L 293.077717 255.930073 
L 294.077717 255.962594 
L 295.077717 256.036219 
L 296.077717 256.074785 
L 297.077717 256.110198 
L 298.077717 256.167838 
L 299.077717 256.238224 
L 300.077717 256.290188 
L 301.077717 256.349278 
L 302.077717 256.437599 
L 303.077717 256.483743 
L 304.077717 256.526154 
L 305.077717 256.556647 
L 306.077717 256.582692 
L 307.077717 256.603892 
L 308.077717 256.658193 
L 309.077717 256.686131 
L 310.077717 256.715854 
L 311.077717 256.741249 
L 312.077717 256.75245 
L 313.077717 256.762574 
L 314.077717 256.762369 
L 315.077717 256.752859 
L 316.077717 256.741206 
L 317.077717 256.710177 
L 318.077717 256.699009 
L 319.077717 256.668891 
L 320.077717 256.609114 
L 321.077717 256.571923 
L 322.077717 256.532827 
L 323.077717 256.490387 
L 324.077717 256.457622 
L 325.077717 256.390195 
L 326.077717 256.351069 
L 327.077717 256.308395 
L 328.077717 256.237814 
L 329.077717 256.201423 
L 330.077717 256.14302 
L 331.077717 256.032068 
L 332.077717 255.961409 
L 333.077717 255.84847 
L 334.077717 255.802697 
L 335.077717 255.741413 
L 336.077717 255.692914 
L 337.077717 255.612091 
L 338.077717 255.493572 
L 339.077717 255.423362 
L 340.077717 255.340099 
L 341.077717 255.306958 
L 342.077717 255.25572 
L 343.077717 255.187322 
L 344.077717 255.121107 
L 345.077717 255.044189 
L 346.077717 255.016874 
L 347.077717 254.990396 
L 348.077717 254.967746 
L 349.077717 254.948215 
L 350.077717 254.921821 
L 351.077717 254.87205 
L 352.077717 254.836977 
L 353.703533 254.801111 
" clip-path="url(#p3c32223ee3)" style="fill: none; stroke: #1f77b4; stroke-opacity: 0.5; stroke-width: 0.2; stroke-linecap: square"/>
   <path d="M 290.077717 217.882189 
L 291.077717 217.913626 
L 292.077717 217.950566 
L 293.077717 218.048313 
L 294.077717 218.080834 
L 295.077717 218.154459 
L 296.077717 218.193024 
L 297.077717 218.228438 
L 298.077717 218.286078 
L 299.077717 218.356464 
L 300.077717 218.408428 
L 301.077717 218.467518 
L 302.077717 218.555839 
L 303.077717 218.601983 
L 304.077717 218.644394 
L 305.077717 218.674887 
L 306.077717 218.700932 
L 307.077717 218.722132 
L 308.077717 218.776433 
L 309.077717 218.80437 
L 310.077717 218.834094 
L 311.077717 218.859489 
L 312.077717 218.870689 
L 313.077717 218.880813 
L 314.077717 218.880609 
L 315.077717 218.871099 
L 316.077717 218.859446 
L 317.077717 218.828416 
L 318.077717 218.817248 
L 319.077717 218.787131 
L 320.077717 218.727354 
L 321.077717 218.690162 
L 322.077717 218.651066 
L 323.077717 218.608627 
L 324.077717 218.575862 
L 325.077717 218.508435 
L 326.077717 218.469309 
L 327.077717 218.426635 
L 328.077717 218.356054 
L 329.077717 218.319663 
L 330.077717 218.26126 
L 331.077717 218.150307 
L 332.077717 218.079649 
L 333.077717 217.966709 
L 334.077717 217.920936 
L 335.077717 217.859653 
L 336.077717 217.811154 
L 337.077717 217.730331 
L 338.077717 217.611812 
L 339.077717 217.541602 
L 340.077717 217.458339 
L 341.077717 217.425197 
L 342.077717 217.37396 
L 343.077717 217.305562 
L 344.077717 217.239346 
L 345.077717 217.162429 
L 346.077717 217.135114 
L 347.077717 217.108636 
L 348.077717 217.085986 
L 349.077717 217.066454 
L 350.077717 217.04006 
L 351.077717 216.990289 
L 352.077717 216.955216 
L 353.703533 216.919351 
" clip-path="url(#p3c32223ee3)" style="fill: none; stroke: #1f77b4; stroke-opacity: 0.5; stroke-width: 0.2; stroke-linecap: square"/>
   <path d="M 290.077717 226.3028 
L 291.077717 226.334236 
L 292.077717 226.371176 
L 293.077717 226.468923 
L 294.077717 226.501445 
L 295.077717 226.575069 
L 296.077717 226.613635 
L 297.077717 226.649048 
L 298.077717 226.706688 
L 299.077717 226.777074 
L 300.077717 226.829038 
L 301.077717 226.888128 
L 302.077717 226.976449 
L 303.077717 227.022593 
L 304.077717 227.065004 
L 305.077717 227.095497 
L 306.077717 227.121542 
L 307.077717 227.142742 
L 308.077717 227.197043 
L 309.077717 227.224981 
L 310.077717 227.254705 
L 311.077717 227.280099 
L 312.077717 227.2913 
L 313.077717 227.301424 
L 314.077717 227.30122 
L 315.077717 227.29171 
L 316.077717 227.280056 
L 317.077717 227.249027 
L 318.077717 227.237859 
L 319.077717 227.207741 
L 320.077717 227.147964 
L 321.077717 227.110773 
L 322.077717 227.071677 
L 323.077717 227.029237 
L 324.077717 226.996472 
L 325.077717 226.929046 
L 326.077717 226.88992 
L 327.077717 226.847245 
L 328.077717 226.776665 
L 329.077717 226.740274 
L 330.077717 226.68187 
L 331.077717 226.570918 
L 332.077717 226.50026 
L 333.077717 226.38732 
L 334.077717 226.341547 
L 335.077717 226.280264 
L 336.077717 226.231764 
L 337.077717 226.150942 
L 338.077717 226.032423 
L 339.077717 225.962212 
L 340.077717 225.87895 
L 341.077717 225.845808 
L 342.077717 225.794571 
L 343.077717 225.726172 
L 344.077717 225.659957 
L 345.077717 225.58304 
L 346.077717 225.555724 
L 347.077717 225.529247 
L 348.077717 225.506596 
L 349.077717 225.487065 
L 350.077717 225.460671 
L 351.077717 225.4109 
L 352.077717 225.375827 
L 353.703533 225.339961 
" clip-path="url(#p3c32223ee3)" style="fill: none; stroke: #1f77b4; stroke-opacity: 0.5; stroke-width: 0.2; stroke-linecap: square"/>
   <path d="M 290.077717 304.818091 
L 291.077717 304.849527 
L 292.077717 304.886467 
L 293.077717 304.984214 
L 294.077717 305.016735 
L 295.077717 305.09036 
L 296.077717 305.128926 
L 297.077717 305.164339 
L 298.077717 305.221979 
L 299.077717 305.292365 
L 300.077717 305.344329 
L 301.077717 305.403419 
L 302.077717 305.49174 
L 303.077717 305.537884 
L 304.077717 305.580295 
L 305.077717 305.610788 
L 306.077717 305.636833 
L 307.077717 305.658033 
L 308.077717 305.712334 
L 309.077717 305.740272 
L 310.077717 305.769996 
L 311.077717 305.79539 
L 312.077717 305.806591 
L 313.077717 305.816715 
L 314.077717 305.81651 
L 315.077717 305.807 
L 316.077717 305.795347 
L 317.077717 305.764318 
L 318.077717 305.75315 
L 319.077717 305.723032 
L 320.077717 305.663255 
L 321.077717 305.626064 
L 322.077717 305.586968 
L 323.077717 305.544528 
L 324.077717 305.511763 
L 325.077717 305.444336 
L 326.077717 305.405211 
L 327.077717 305.362536 
L 328.077717 305.291955 
L 329.077717 305.255565 
L 330.077717 305.197161 
L 331.077717 305.086209 
L 332.077717 305.01555 
L 333.077717 304.902611 
L 334.077717 304.856838 
L 335.077717 304.795554 
L 336.077717 304.747055 
L 337.077717 304.666232 
L 338.077717 304.547714 
L 339.077717 304.477503 
L 340.077717 304.39424 
L 341.077717 304.361099 
L 342.077717 304.309861 
L 343.077717 304.241463 
L 344.077717 304.175248 
L 345.077717 304.098331 
L 346.077717 304.071015 
L 347.077717 304.044538 
L 348.077717 304.021887 
L 349.077717 304.002356 
L 350.077717 303.975962 
L 351.077717 303.926191 
L 352.077717 303.891118 
L 353.703533 303.855252 
" clip-path="url(#p3c32223ee3)" style="fill: none; stroke: #1f77b4; stroke-opacity: 0.5; stroke-width: 0.2; stroke-linecap: square"/>
   <path d="M 290.077717 224.90025 
L 291.077717 224.931686 
L 292.077717 224.968626 
L 293.077717 225.066373 
L 294.077717 225.098895 
L 295.077717 225.172519 
L 296.077717 225.211085 
L 297.077717 225.246498 
L 298.077717 225.304138 
L 299.077717 225.374524 
L 300.077717 225.426488 
L 301.077717 225.485578 
L 302.077717 225.573899 
L 303.077717 225.620043 
L 304.077717 225.662454 
L 305.077717 225.692947 
L 306.077717 225.718992 
L 307.077717 225.740192 
L 308.077717 225.794493 
L 309.077717 225.822431 
L 310.077717 225.852155 
L 311.077717 225.877549 
L 312.077717 225.88875 
L 313.077717 225.898874 
L 314.077717 225.898669 
L 315.077717 225.88916 
L 316.077717 225.877506 
L 317.077717 225.846477 
L 318.077717 225.835309 
L 319.077717 225.805191 
L 320.077717 225.745414 
L 321.077717 225.708223 
L 322.077717 225.669127 
L 323.077717 225.626687 
L 324.077717 225.593922 
L 325.077717 225.526496 
L 326.077717 225.48737 
L 327.077717 225.444695 
L 328.077717 225.374114 
L 329.077717 225.337724 
L 330.077717 225.27932 
L 331.077717 225.168368 
L 332.077717 225.09771 
L 333.077717 224.98477 
L 334.077717 224.938997 
L 335.077717 224.877714 
L 336.077717 224.829214 
L 337.077717 224.748392 
L 338.077717 224.629873 
L 339.077717 224.559662 
L 340.077717 224.4764 
L 341.077717 224.443258 
L 342.077717 224.39202 
L 343.077717 224.323622 
L 344.077717 224.257407 
L 345.077717 224.18049 
L 346.077717 224.153174 
L 347.077717 224.126697 
L 348.077717 224.104046 
L 349.077717 224.084515 
L 350.077717 224.058121 
L 351.077717 224.00835 
L 352.077717 223.973277 
L 353.703533 223.937411 
" clip-path="url(#p3c32223ee3)" style="fill: none; stroke: #1f77b4; stroke-opacity: 0.5; stroke-width: 0.2; stroke-linecap: square"/>
   <path d="M 290.077717 300.158136 
L 291.077717 300.189572 
L 292.077717 300.226513 
L 293.077717 300.324259 
L 294.077717 300.356781 
L 295.077717 300.430405 
L 296.077717 300.468971 
L 297.077717 300.504384 
L 298.077717 300.562024 
L 299.077717 300.63241 
L 300.077717 300.684374 
L 301.077717 300.743464 
L 302.077717 300.831785 
L 303.077717 300.877929 
L 304.077717 300.92034 
L 305.077717 300.950833 
L 306.077717 300.976878 
L 307.077717 300.998078 
L 308.077717 301.052379 
L 309.077717 301.080317 
L 310.077717 301.110041 
L 311.077717 301.135436 
L 312.077717 301.146636 
L 313.077717 301.15676 
L 314.077717 301.156556 
L 315.077717 301.147046 
L 316.077717 301.135392 
L 317.077717 301.104363 
L 318.077717 301.093195 
L 319.077717 301.063077 
L 320.077717 301.0033 
L 321.077717 300.966109 
L 322.077717 300.927013 
L 323.077717 300.884573 
L 324.077717 300.851808 
L 325.077717 300.784382 
L 326.077717 300.745256 
L 327.077717 300.702581 
L 328.077717 300.632001 
L 329.077717 300.59561 
L 330.077717 300.537207 
L 331.077717 300.426254 
L 332.077717 300.355596 
L 333.077717 300.242656 
L 334.077717 300.196883 
L 335.077717 300.1356 
L 336.077717 300.0871 
L 337.077717 300.006278 
L 338.077717 299.887759 
L 339.077717 299.817548 
L 340.077717 299.734286 
L 341.077717 299.701144 
L 342.077717 299.649907 
L 343.077717 299.581508 
L 344.077717 299.515293 
L 345.077717 299.438376 
L 346.077717 299.41106 
L 347.077717 299.384583 
L 348.077717 299.361932 
L 349.077717 299.342401 
L 350.077717 299.316007 
L 351.077717 299.266236 
L 352.077717 299.231163 
L 353.703533 299.195297 
" clip-path="url(#p3c32223ee3)" style="fill: none; stroke: #1f77b4; stroke-opacity: 0.5; stroke-width: 0.2; stroke-linecap: square"/>
   <g id="patch_3">
    <path d="M 69.06392 22.318125 
L 69.06392 318.021875 
M 284.51553 22.318125 
L 284.51553 318.021875 
" clip-path="url(#p3c32223ee3)" style="fill: none; stroke: #ffffff; stroke-width: 3; stroke-linejoin: miter"/>
    <path d="M 69.06392 22.318125 
L 69.06392 318.021875 
M 284.51553 22.318125 
L 284.51553 318.021875 
" clip-path="url(#p3c32223ee3)" style="fill: none; stroke: #1f77b4; stroke-linejoin: miter"/>
    <g id="PolyCollection_1">
     <path d="M 284.51553 22.318125 
L 69.06392 22.318125 
L 69.06392 318.021875 
L 284.51553 318.021875 
L 284.51553 318.021875 
L 284.51553 22.318125 
z
" clip-path="url(#p3c32223ee3)" style="fill: #1f77b4; fill-opacity: 0.5"/>
    </g>
    <g id="patch_4">
     <path d="M 359.26572 22.318125 
L 359.26572 318.021875 
M 574.71733 22.318125 
L 574.71733 318.021875 
" clip-path="url(#p3c32223ee3)" style="fill: none; stroke: #ffffff; stroke-width: 3; stroke-linejoin: miter"/>
     <path d="M 359.26572 22.318125 
L 359.26572 318.021875 
M 574.71733 22.318125 
L 574.71733 318.021875 
" clip-path="url(#p3c32223ee3)" style="fill: none; stroke: #ff7f0e; stroke-linejoin: miter"/>
     <g id="PolyCollection_2">
      <path d="M 574.71733 22.318125 
L 359.26572 22.318125 
L 359.26572 318.021875 
L 574.71733 318.021875 
L 574.71733 318.021875 
L 574.71733 22.318125 
z
" clip-path="url(#p3c32223ee3)" style="fill: #ff7f0e; fill-opacity: 0.5"/>
     </g>
     <g id="matplotlib.axis_1">
      <g id="xtick_1">
       <g id="line2d_1"/>
       <g id="text_1">
        <!-- deme0 -->
        <g transform="translate(159.410819 329.120312) scale(0.1 -0.1)">
         <defs>
          <path id="DejaVuSans-64" d="M 2906 2969 
L 2906 4863 
L 3481 4863 
L 3481 0 
L 2906 0 
L 2906 525 
Q 2725 213 2448 61 
Q 2172 -91 1784 -91 
Q 1150 -91 751 415 
Q 353 922 353 1747 
Q 353 2572 751 3078 
Q 1150 3584 1784 3584 
Q 2172 3584 2448 3432 
Q 2725 3281 2906 2969 
z
M 947 1747 
Q 947 1113 1208 752 
Q 1469 391 1925 391 
Q 2381 391 2643 752 
Q 2906 1113 2906 1747 
Q 2906 2381 2643 2742 
Q 2381 3103 1925 3103 
Q 1469 3103 1208 2742 
Q 947 2381 947 1747 
z
" transform="scale(0.015625)"/>
          <path id="DejaVuSans-65" d="M 3597 1894 
L 3597 1613 
L 953 1613 
Q 991 1019 1311 708 
Q 1631 397 2203 397 
Q 2534 397 2845 478 
Q 3156 559 3463 722 
L 3463 178 
Q 3153 47 2828 -22 
Q 2503 -91 2169 -91 
Q 1331 -91 842 396 
Q 353 884 353 1716 
Q 353 2575 817 3079 
Q 1281 3584 2069 3584 
Q 2775 3584 3186 3129 
Q 3597 2675 3597 1894 
z
M 3022 2063 
Q 3016 2534 2758 2815 
Q 2500 3097 2075 3097 
Q 1594 3097 1305 2825 
Q 1016 2553 972 2059 
L 3022 2063 
z
" transform="scale(0.015625)"/>
          <path id="DejaVuSans-6d" d="M 3328 2828 
Q 3544 3216 3844 3400 
Q 4144 3584 4550 3584 
Q 5097 3584 5394 3201 
Q 5691 2819 5691 2113 
L 5691 0 
L 5113 0 
L 5113 2094 
Q 5113 2597 4934 2840 
Q 4756 3084 4391 3084 
Q 3944 3084 3684 2787 
Q 3425 2491 3425 1978 
L 3425 0 
L 2847 0 
L 2847 2094 
Q 2847 2600 2669 2842 
Q 2491 3084 2119 3084 
Q 1678 3084 1418 2786 
Q 1159 2488 1159 1978 
L 1159 0 
L 581 0 
L 581 3500 
L 1159 3500 
L 1159 2956 
Q 1356 3278 1631 3431 
Q 1906 3584 2284 3584 
Q 2666 3584 2933 3390 
Q 3200 3197 3328 2828 
z
" transform="scale(0.015625)"/>
          <path id="DejaVuSans-30" d="M 2034 4250 
Q 1547 4250 1301 3770 
Q 1056 3291 1056 2328 
Q 1056 1369 1301 889 
Q 1547 409 2034 409 
Q 2525 409 2770 889 
Q 3016 1369 3016 2328 
Q 3016 3291 2770 3770 
Q 2525 4250 2034 4250 
z
M 2034 4750 
Q 2819 4750 3233 4129 
Q 3647 3509 3647 2328 
Q 3647 1150 3233 529 
Q 2819 -91 2034 -91 
Q 1250 -91 836 529 
Q 422 1150 422 2328 
Q 422 3509 836 4129 
Q 1250 4750 2034 4750 
z
" transform="scale(0.015625)"/>
         </defs>
         <use xlink:href="#DejaVuSans-64"/>
         <use xlink:href="#DejaVuSans-65" x="63.476562"/>
         <use xlink:href="#DejaVuSans-6d" x="125"/>
         <use xlink:href="#DejaVuSans-65" x="222.412109"/>
         <use xlink:href="#DejaVuSans-30" x="283.935547"/>
        </g>
       </g>
      </g>
      <g id="xtick_2">
       <g id="line2d_2"/>
       <g id="text_2">
        <!-- deme1 -->
        <g transform="translate(449.612619 329.120312) scale(0.1 -0.1)">
         <defs>
          <path id="DejaVuSans-31" d="M 794 531 
L 1825 531 
L 1825 4091 
L 703 3866 
L 703 4441 
L 1819 4666 
L 2450 4666 
L 2450 531 
L 3481 531 
L 3481 0 
L 794 0 
L 794 531 
z
" transform="scale(0.015625)"/>
         </defs>
         <use xlink:href="#DejaVuSans-64"/>
         <use xlink:href="#DejaVuSans-65" x="63.476562"/>
         <use xlink:href="#DejaVuSans-6d" x="125"/>
         <use xlink:href="#DejaVuSans-65" x="222.412109"/>
         <use xlink:href="#DejaVuSans-31" x="283.935547"/>
        </g>
       </g>
      </g>
     </g>
     <g id="matplotlib.axis_2">
      <g id="ytick_1">
       <g id="line2d_3">
        <defs>
         <path id="m48a0ef1af8" d="M 0 0 
L -3.5 0 
" style="stroke: #000000; stroke-width: 0.8"/>
        </defs>
        <g>
         <use xlink:href="#m48a0ef1af8" x="43.78125" y="318.021875" style="stroke: #000000; stroke-width: 0.8"/>
        </g>
       </g>
       <g id="text_3">
        <!-- 0.0 -->
        <g transform="translate(20.878125 321.821094) scale(0.1 -0.1)">
         <defs>
          <path id="DejaVuSans-2e" d="M 684 794 
L 1344 794 
L 1344 0 
L 684 0 
L 684 794 
z
" transform="scale(0.015625)"/>
         </defs>
         <use xlink:href="#DejaVuSans-30"/>
         <use xlink:href="#DejaVuSans-2e" x="63.623047"/>
         <use xlink:href="#DejaVuSans-30" x="95.410156"/>
        </g>
       </g>
      </g>
      <g id="ytick_2">
       <g id="line2d_4">
        <g>
         <use xlink:href="#m48a0ef1af8" x="43.78125" y="258.881125" style="stroke: #000000; stroke-width: 0.8"/>
        </g>
       </g>
       <g id="text_4">
        <!-- 0.5 -->
        <g transform="translate(20.878125 262.680344) scale(0.1 -0.1)">
         <defs>
          <path id="DejaVuSans-35" d="M 691 4666 
L 3169 4666 
L 3169 4134 
L 1269 4134 
L 1269 2991 
Q 1406 3038 1543 3061 
Q 1681 3084 1819 3084 
Q 2600 3084 3056 2656 
Q 3513 2228 3513 1497 
Q 3513 744 3044 326 
Q 2575 -91 1722 -91 
Q 1428 -91 1123 -41 
Q 819 9 494 109 
L 494 744 
Q 775 591 1075 516 
Q 1375 441 1709 441 
Q 2250 441 2565 725 
Q 2881 1009 2881 1497 
Q 2881 1984 2565 2268 
Q 2250 2553 1709 2553 
Q 1456 2553 1204 2497 
Q 953 2441 691 2322 
L 691 4666 
z
" transform="scale(0.015625)"/>
         </defs>
         <use xlink:href="#DejaVuSans-30"/>
         <use xlink:href="#DejaVuSans-2e" x="63.623047"/>
         <use xlink:href="#DejaVuSans-35" x="95.410156"/>
        </g>
       </g>
      </g>
      <g id="ytick_3">
       <g id="line2d_5">
        <g>
         <use xlink:href="#m48a0ef1af8" x="43.78125" y="199.740375" style="stroke: #000000; stroke-width: 0.8"/>
        </g>
       </g>
       <g id="text_5">
        <!-- 1.0 -->
        <g transform="translate(20.878125 203.539594) scale(0.1 -0.1)">
         <use xlink:href="#DejaVuSans-31"/>
         <use xlink:href="#DejaVuSans-2e" x="63.623047"/>
         <use xlink:href="#DejaVuSans-30" x="95.410156"/>
        </g>
       </g>
      </g>
      <g id="ytick_4">
       <g id="line2d_6">
        <g>
         <use xlink:href="#m48a0ef1af8" x="43.78125" y="140.599625" style="stroke: #000000; stroke-width: 0.8"/>
        </g>
       </g>
       <g id="text_6">
        <!-- 1.5 -->
        <g transform="translate(20.878125 144.398844) scale(0.1 -0.1)">
         <use xlink:href="#DejaVuSans-31"/>
         <use xlink:href="#DejaVuSans-2e" x="63.623047"/>
         <use xlink:href="#DejaVuSans-35" x="95.410156"/>
        </g>
       </g>
      </g>
      <g id="ytick_5">
       <g id="line2d_7">
        <g>
         <use xlink:href="#m48a0ef1af8" x="43.78125" y="81.458875" style="stroke: #000000; stroke-width: 0.8"/>
        </g>
       </g>
       <g id="text_7">
        <!-- 2.0 -->
        <g transform="translate(20.878125 85.258094) scale(0.1 -0.1)">
         <defs>
          <path id="DejaVuSans-32" d="M 1228 531 
L 3431 531 
L 3431 0 
L 469 0 
L 469 531 
Q 828 903 1448 1529 
Q 2069 2156 2228 2338 
Q 2531 2678 2651 2914 
Q 2772 3150 2772 3378 
Q 2772 3750 2511 3984 
Q 2250 4219 1831 4219 
Q 1534 4219 1204 4116 
Q 875 4013 500 3803 
L 500 4441 
Q 881 4594 1212 4672 
Q 1544 4750 1819 4750 
Q 2544 4750 2975 4387 
Q 3406 4025 3406 3419 
Q 3406 3131 3298 2873 
Q 3191 2616 2906 2266 
Q 2828 2175 2409 1742 
Q 1991 1309 1228 531 
z
" transform="scale(0.015625)"/>
         </defs>
         <use xlink:href="#DejaVuSans-32"/>
         <use xlink:href="#DejaVuSans-2e" x="63.623047"/>
         <use xlink:href="#DejaVuSans-30" x="95.410156"/>
        </g>
       </g>
      </g>
      <g id="ytick_6">
       <g id="line2d_8">
        <g>
         <use xlink:href="#m48a0ef1af8" x="43.78125" y="22.318125" style="stroke: #000000; stroke-width: 0.8"/>
        </g>
       </g>
       <g id="text_8">
        <!-- 2.5 -->
        <g transform="translate(20.878125 26.117344) scale(0.1 -0.1)">
         <use xlink:href="#DejaVuSans-32"/>
         <use xlink:href="#DejaVuSans-2e" x="63.623047"/>
         <use xlink:href="#DejaVuSans-35" x="95.410156"/>
        </g>
       </g>
      </g>
      <g id="text_9">
       <!-- time ago (generations) -->
       <g transform="translate(14.798438 227.641094) rotate(-90) scale(0.1 -0.1)">
        <defs>
         <path id="DejaVuSans-74" d="M 1172 4494 
L 1172 3500 
L 2356 3500 
L 2356 3053 
L 1172 3053 
L 1172 1153 
Q 1172 725 1289 603 
Q 1406 481 1766 481 
L 2356 481 
L 2356 0 
L 1766 0 
Q 1100 0 847 248 
Q 594 497 594 1153 
L 594 3053 
L 172 3053 
L 172 3500 
L 594 3500 
L 594 4494 
L 1172 4494 
z
" transform="scale(0.015625)"/>
         <path id="DejaVuSans-69" d="M 603 3500 
L 1178 3500 
L 1178 0 
L 603 0 
L 603 3500 
z
M 603 4863 
L 1178 4863 
L 1178 4134 
L 603 4134 
L 603 4863 
z
" transform="scale(0.015625)"/>
         <path id="DejaVuSans-20" transform="scale(0.015625)"/>
         <path id="DejaVuSans-61" d="M 2194 1759 
Q 1497 1759 1228 1600 
Q 959 1441 959 1056 
Q 959 750 1161 570 
Q 1363 391 1709 391 
Q 2188 391 2477 730 
Q 2766 1069 2766 1631 
L 2766 1759 
L 2194 1759 
z
M 3341 1997 
L 3341 0 
L 2766 0 
L 2766 531 
Q 2569 213 2275 61 
Q 1981 -91 1556 -91 
Q 1019 -91 701 211 
Q 384 513 384 1019 
Q 384 1609 779 1909 
Q 1175 2209 1959 2209 
L 2766 2209 
L 2766 2266 
Q 2766 2663 2505 2880 
Q 2244 3097 1772 3097 
Q 1472 3097 1187 3025 
Q 903 2953 641 2809 
L 641 3341 
Q 956 3463 1253 3523 
Q 1550 3584 1831 3584 
Q 2591 3584 2966 3190 
Q 3341 2797 3341 1997 
z
" transform="scale(0.015625)"/>
         <path id="DejaVuSans-67" d="M 2906 1791 
Q 2906 2416 2648 2759 
Q 2391 3103 1925 3103 
Q 1463 3103 1205 2759 
Q 947 2416 947 1791 
Q 947 1169 1205 825 
Q 1463 481 1925 481 
Q 2391 481 2648 825 
Q 2906 1169 2906 1791 
z
M 3481 434 
Q 3481 -459 3084 -895 
Q 2688 -1331 1869 -1331 
Q 1566 -1331 1297 -1286 
Q 1028 -1241 775 -1147 
L 775 -588 
Q 1028 -725 1275 -790 
Q 1522 -856 1778 -856 
Q 2344 -856 2625 -561 
Q 2906 -266 2906 331 
L 2906 616 
Q 2728 306 2450 153 
Q 2172 0 1784 0 
Q 1141 0 747 490 
Q 353 981 353 1791 
Q 353 2603 747 3093 
Q 1141 3584 1784 3584 
Q 2172 3584 2450 3431 
Q 2728 3278 2906 2969 
L 2906 3500 
L 3481 3500 
L 3481 434 
z
" transform="scale(0.015625)"/>
         <path id="DejaVuSans-6f" d="M 1959 3097 
Q 1497 3097 1228 2736 
Q 959 2375 959 1747 
Q 959 1119 1226 758 
Q 1494 397 1959 397 
Q 2419 397 2687 759 
Q 2956 1122 2956 1747 
Q 2956 2369 2687 2733 
Q 2419 3097 1959 3097 
z
M 1959 3584 
Q 2709 3584 3137 3096 
Q 3566 2609 3566 1747 
Q 3566 888 3137 398 
Q 2709 -91 1959 -91 
Q 1206 -91 779 398 
Q 353 888 353 1747 
Q 353 2609 779 3096 
Q 1206 3584 1959 3584 
z
" transform="scale(0.015625)"/>
         <path id="DejaVuSans-28" d="M 1984 4856 
Q 1566 4138 1362 3434 
Q 1159 2731 1159 2009 
Q 1159 1288 1364 580 
Q 1569 -128 1984 -844 
L 1484 -844 
Q 1016 -109 783 600 
Q 550 1309 550 2009 
Q 550 2706 781 3412 
Q 1013 4119 1484 4856 
L 1984 4856 
z
" transform="scale(0.015625)"/>
         <path id="DejaVuSans-6e" d="M 3513 2113 
L 3513 0 
L 2938 0 
L 2938 2094 
Q 2938 2591 2744 2837 
Q 2550 3084 2163 3084 
Q 1697 3084 1428 2787 
Q 1159 2491 1159 1978 
L 1159 0 
L 581 0 
L 581 3500 
L 1159 3500 
L 1159 2956 
Q 1366 3272 1645 3428 
Q 1925 3584 2291 3584 
Q 2894 3584 3203 3211 
Q 3513 2838 3513 2113 
z
" transform="scale(0.015625)"/>
         <path id="DejaVuSans-72" d="M 2631 2963 
Q 2534 3019 2420 3045 
Q 2306 3072 2169 3072 
Q 1681 3072 1420 2755 
Q 1159 2438 1159 1844 
L 1159 0 
L 581 0 
L 581 3500 
L 1159 3500 
L 1159 2956 
Q 1341 3275 1631 3429 
Q 1922 3584 2338 3584 
Q 2397 3584 2469 3576 
Q 2541 3569 2628 3553 
L 2631 2963 
z
" transform="scale(0.015625)"/>
         <path id="DejaVuSans-73" d="M 2834 3397 
L 2834 2853 
Q 2591 2978 2328 3040 
Q 2066 3103 1784 3103 
Q 1356 3103 1142 2972 
Q 928 2841 928 2578 
Q 928 2378 1081 2264 
Q 1234 2150 1697 2047 
L 1894 2003 
Q 2506 1872 2764 1633 
Q 3022 1394 3022 966 
Q 3022 478 2636 193 
Q 2250 -91 1575 -91 
Q 1294 -91 989 -36 
Q 684 19 347 128 
L 347 722 
Q 666 556 975 473 
Q 1284 391 1588 391 
Q 1994 391 2212 530 
Q 2431 669 2431 922 
Q 2431 1156 2273 1281 
Q 2116 1406 1581 1522 
L 1381 1569 
Q 847 1681 609 1914 
Q 372 2147 372 2553 
Q 372 3047 722 3315 
Q 1072 3584 1716 3584 
Q 2034 3584 2315 3537 
Q 2597 3491 2834 3397 
z
" transform="scale(0.015625)"/>
         <path id="DejaVuSans-29" d="M 513 4856 
L 1013 4856 
Q 1481 4119 1714 3412 
Q 1947 2706 1947 2009 
Q 1947 1309 1714 600 
Q 1481 -109 1013 -844 
L 513 -844 
Q 928 -128 1133 580 
Q 1338 1288 1338 2009 
Q 1338 2731 1133 3434 
Q 928 4138 513 4856 
z
" transform="scale(0.015625)"/>
        </defs>
        <use xlink:href="#DejaVuSans-74"/>
        <use xlink:href="#DejaVuSans-69" x="39.208984"/>
        <use xlink:href="#DejaVuSans-6d" x="66.992188"/>
        <use xlink:href="#DejaVuSans-65" x="164.404297"/>
        <use xlink:href="#DejaVuSans-20" x="225.927734"/>
        <use xlink:href="#DejaVuSans-61" x="257.714844"/>
        <use xlink:href="#DejaVuSans-67" x="318.994141"/>
        <use xlink:href="#DejaVuSans-6f" x="382.470703"/>
        <use xlink:href="#DejaVuSans-20" x="443.652344"/>
        <use xlink:href="#DejaVuSans-28" x="475.439453"/>
        <use xlink:href="#DejaVuSans-67" x="514.453125"/>
        <use xlink:href="#DejaVuSans-65" x="577.929688"/>
        <use xlink:href="#DejaVuSans-6e" x="639.453125"/>
        <use xlink:href="#DejaVuSans-65" x="702.832031"/>
        <use xlink:href="#DejaVuSans-72" x="764.355469"/>
        <use xlink:href="#DejaVuSans-61" x="805.46875"/>
        <use xlink:href="#DejaVuSans-74" x="866.748047"/>
        <use xlink:href="#DejaVuSans-69" x="905.957031"/>
        <use xlink:href="#DejaVuSans-6f" x="933.740234"/>
        <use xlink:href="#DejaVuSans-6e" x="994.921875"/>
        <use xlink:href="#DejaVuSans-73" x="1058.300781"/>
        <use xlink:href="#DejaVuSans-29" x="1110.400391"/>
       </g>
      </g>
     </g>
     <path d="M 289.077717 150.139878 
L 291.077717 151.139878 
L 291.077717 149.139878 
z
" clip-path="url(#p3c32223ee3)" style="fill: #ff7f0e; fill-opacity: 0.5; stroke: #ff7f0e; stroke-opacity: 0.5; stroke-linejoin: miter"/>
     <path d="M 289.077717 172.939531 
L 291.077717 173.939531 
L 291.077717 171.939531 
z
" clip-path="url(#p3c32223ee3)" style="fill: #ff7f0e; fill-opacity: 0.5; stroke: #ff7f0e; stroke-opacity: 0.5; stroke-linejoin: miter"/>
     <path d="M 289.077717 158.59629 
L 291.077717 159.59629 
L 291.077717 157.59629 
z
" clip-path="url(#p3c32223ee3)" style="fill: #ff7f0e; fill-opacity: 0.5; stroke: #ff7f0e; stroke-opacity: 0.5; stroke-linejoin: miter"/>
     <path d="M 289.077717 115.392224 
L 291.077717 116.392224 
L 291.077717 114.392224 
z
" clip-path="url(#p3c32223ee3)" style="fill: #ff7f0e; fill-opacity: 0.5; stroke: #ff7f0e; stroke-opacity: 0.5; stroke-linejoin: miter"/>
     <path d="M 289.077717 92.883641 
L 291.077717 93.883641 
L 291.077717 91.883641 
z
" clip-path="url(#p3c32223ee3)" style="fill: #ff7f0e; fill-opacity: 0.5; stroke: #ff7f0e; stroke-opacity: 0.5; stroke-linejoin: miter"/>
     <path d="M 289.077717 188.561011 
L 291.077717 189.561011 
L 291.077717 187.561011 
z
" clip-path="url(#p3c32223ee3)" style="fill: #ff7f0e; fill-opacity: 0.5; stroke: #ff7f0e; stroke-opacity: 0.5; stroke-linejoin: miter"/>
     <path d="M 289.077717 138.75792 
L 291.077717 139.75792 
L 291.077717 137.75792 
z
" clip-path="url(#p3c32223ee3)" style="fill: #ff7f0e; fill-opacity: 0.5; stroke: #ff7f0e; stroke-opacity: 0.5; stroke-linejoin: miter"/>
     <path d="M 289.077717 145.377668 
L 291.077717 146.377668 
L 291.077717 144.377668 
z
" clip-path="url(#p3c32223ee3)" style="fill: #ff7f0e; fill-opacity: 0.5; stroke: #ff7f0e; stroke-opacity: 0.5; stroke-linejoin: miter"/>
     <path d="M 289.077717 199.270656 
L 291.077717 200.270656 
L 291.077717 198.270656 
z
" clip-path="url(#p3c32223ee3)" style="fill: #ff7f0e; fill-opacity: 0.5; stroke: #ff7f0e; stroke-opacity: 0.5; stroke-linejoin: miter"/>
     <path d="M 289.077717 131.306474 
L 291.077717 132.306474 
L 291.077717 130.306474 
z
" clip-path="url(#p3c32223ee3)" style="fill: #ff7f0e; fill-opacity: 0.5; stroke: #ff7f0e; stroke-opacity: 0.5; stroke-linejoin: miter"/>
     <path d="M 354.703533 199.163901 
L 352.703533 198.163901 
L 352.703533 200.163901 
z
" clip-path="url(#p3c32223ee3)" style="fill: #1f77b4; fill-opacity: 0.5; stroke: #1f77b4; stroke-opacity: 0.5; stroke-linejoin: miter"/>
     <path d="M 354.703533 84.505654 
L 352.703533 83.505654 
L 352.703533 85.505654 
z
" clip-path="url(#p3c32223ee3)" style="fill: #1f77b4; fill-opacity: 0.5; stroke: #1f77b4; stroke-opacity: 0.5; stroke-linejoin: miter"/>
     <path d="M 354.703533 144.751969 
L 352.703533 143.751969 
L 352.703533 145.751969 
z
" clip-path="url(#p3c32223ee3)" style="fill: #1f77b4; fill-opacity: 0.5; stroke: #1f77b4; stroke-opacity: 0.5; stroke-linejoin: miter"/>
     <path d="M 354.703533 172.658851 
L 352.703533 171.658851 
L 352.703533 173.658851 
z
" clip-path="url(#p3c32223ee3)" style="fill: #1f77b4; fill-opacity: 0.5; stroke: #1f77b4; stroke-opacity: 0.5; stroke-linejoin: miter"/>
     <path d="M 354.703533 114.984977 
L 352.703533 113.984977 
L 352.703533 115.984977 
z
" clip-path="url(#p3c32223ee3)" style="fill: #1f77b4; fill-opacity: 0.5; stroke: #1f77b4; stroke-opacity: 0.5; stroke-linejoin: miter"/>
     <path d="M 354.703533 91.109591 
L 352.703533 90.109591 
L 352.703533 92.109591 
z
" clip-path="url(#p3c32223ee3)" style="fill: #1f77b4; fill-opacity: 0.5; stroke: #1f77b4; stroke-opacity: 0.5; stroke-linejoin: miter"/>
     <path d="M 354.703533 132.600716 
L 352.703533 131.600716 
L 352.703533 133.600716 
z
" clip-path="url(#p3c32223ee3)" style="fill: #1f77b4; fill-opacity: 0.5; stroke: #1f77b4; stroke-opacity: 0.5; stroke-linejoin: miter"/>
     <path d="M 354.703533 130.950782 
L 352.703533 129.950782 
L 352.703533 131.950782 
z
" clip-path="url(#p3c32223ee3)" style="fill: #1f77b4; fill-opacity: 0.5; stroke: #1f77b4; stroke-opacity: 0.5; stroke-linejoin: miter"/>
     <path d="M 354.703533 153.014555 
L 352.703533 152.014555 
L 352.703533 154.014555 
z
" clip-path="url(#p3c32223ee3)" style="fill: #1f77b4; fill-opacity: 0.5; stroke: #1f77b4; stroke-opacity: 0.5; stroke-linejoin: miter"/>
     <path d="M 354.703533 143.815977 
L 352.703533 142.815977 
L 352.703533 144.815977 
z
" clip-path="url(#p3c32223ee3)" style="fill: #1f77b4; fill-opacity: 0.5; stroke: #1f77b4; stroke-opacity: 0.5; stroke-linejoin: miter"/>
     <path d="M 289.077717 221.378849 
L 291.077717 222.378849 
L 291.077717 220.378849 
z
" clip-path="url(#p3c32223ee3)" style="fill: #ff7f0e; fill-opacity: 0.5; stroke: #ff7f0e; stroke-opacity: 0.5; stroke-linejoin: miter"/>
     <path d="M 289.077717 219.127135 
L 291.077717 220.127135 
L 291.077717 218.127135 
z
" clip-path="url(#p3c32223ee3)" style="fill: #ff7f0e; fill-opacity: 0.5; stroke: #ff7f0e; stroke-opacity: 0.5; stroke-linejoin: miter"/>
     <path d="M 289.077717 314.591895 
L 291.077717 315.591895 
L 291.077717 313.591895 
z
" clip-path="url(#p3c32223ee3)" style="fill: #ff7f0e; fill-opacity: 0.5; stroke: #ff7f0e; stroke-opacity: 0.5; stroke-linejoin: miter"/>
     <path d="M 289.077717 301.514699 
L 291.077717 302.514699 
L 291.077717 300.514699 
z
" clip-path="url(#p3c32223ee3)" style="fill: #ff7f0e; fill-opacity: 0.5; stroke: #ff7f0e; stroke-opacity: 0.5; stroke-linejoin: miter"/>
     <path d="M 289.077717 254.579009 
L 291.077717 255.579009 
L 291.077717 253.579009 
z
" clip-path="url(#p3c32223ee3)" style="fill: #ff7f0e; fill-opacity: 0.5; stroke: #ff7f0e; stroke-opacity: 0.5; stroke-linejoin: miter"/>
     <path d="M 289.077717 273.946237 
L 291.077717 274.946237 
L 291.077717 272.946237 
z
" clip-path="url(#p3c32223ee3)" style="fill: #ff7f0e; fill-opacity: 0.5; stroke: #ff7f0e; stroke-opacity: 0.5; stroke-linejoin: miter"/>
     <path d="M 289.077717 242.598616 
L 291.077717 243.598616 
L 291.077717 241.598616 
z
" clip-path="url(#p3c32223ee3)" style="fill: #ff7f0e; fill-opacity: 0.5; stroke: #ff7f0e; stroke-opacity: 0.5; stroke-linejoin: miter"/>
     <path d="M 289.077717 207.248097 
L 291.077717 208.248097 
L 291.077717 206.248097 
z
" clip-path="url(#p3c32223ee3)" style="fill: #ff7f0e; fill-opacity: 0.5; stroke: #ff7f0e; stroke-opacity: 0.5; stroke-linejoin: miter"/>
     <path d="M 289.077717 280.965355 
L 291.077717 281.965355 
L 291.077717 279.965355 
z
" clip-path="url(#p3c32223ee3)" style="fill: #ff7f0e; fill-opacity: 0.5; stroke: #ff7f0e; stroke-opacity: 0.5; stroke-linejoin: miter"/>
     <path d="M 289.077717 239.166267 
L 291.077717 240.166267 
L 291.077717 238.166267 
z
" clip-path="url(#p3c32223ee3)" style="fill: #ff7f0e; fill-opacity: 0.5; stroke: #ff7f0e; stroke-opacity: 0.5; stroke-linejoin: miter"/>
     <path d="M 354.703533 260.263557 
L 352.703533 259.263557 
L 352.703533 261.263557 
z
" clip-path="url(#p3c32223ee3)" style="fill: #1f77b4; fill-opacity: 0.5; stroke: #1f77b4; stroke-opacity: 0.5; stroke-linejoin: miter"/>
     <path d="M 354.703533 289.666457 
L 352.703533 288.666457 
L 352.703533 290.666457 
z
" clip-path="url(#p3c32223ee3)" style="fill: #1f77b4; fill-opacity: 0.5; stroke: #1f77b4; stroke-opacity: 0.5; stroke-linejoin: miter"/>
     <path d="M 354.703533 262.726981 
L 352.703533 261.726981 
L 352.703533 263.726981 
z
" clip-path="url(#p3c32223ee3)" style="fill: #1f77b4; fill-opacity: 0.5; stroke: #1f77b4; stroke-opacity: 0.5; stroke-linejoin: miter"/>
     <path d="M 354.703533 289.246793 
L 352.703533 288.246793 
L 352.703533 290.246793 
z
" clip-path="url(#p3c32223ee3)" style="fill: #1f77b4; fill-opacity: 0.5; stroke: #1f77b4; stroke-opacity: 0.5; stroke-linejoin: miter"/>
     <path d="M 354.703533 255.763949 
L 352.703533 254.763949 
L 352.703533 256.763949 
z
" clip-path="url(#p3c32223ee3)" style="fill: #1f77b4; fill-opacity: 0.5; stroke: #1f77b4; stroke-opacity: 0.5; stroke-linejoin: miter"/>
     <path d="M 354.703533 217.882189 
L 352.703533 216.882189 
L 352.703533 218.882189 
z
" clip-path="url(#p3c32223ee3)" style="fill: #1f77b4; fill-opacity: 0.5; stroke: #1f77b4; stroke-opacity: 0.5; stroke-linejoin: miter"/>
     <path d="M 354.703533 226.3028 
L 352.703533 225.3028 
L 352.703533 227.3028 
z
" clip-path="url(#p3c32223ee3)" style="fill: #1f77b4; fill-opacity: 0.5; stroke: #1f77b4; stroke-opacity: 0.5; stroke-linejoin: miter"/>
     <path d="M 354.703533 304.818091 
L 352.703533 303.818091 
L 352.703533 305.818091 
z
" clip-path="url(#p3c32223ee3)" style="fill: #1f77b4; fill-opacity: 0.5; stroke: #1f77b4; stroke-opacity: 0.5; stroke-linejoin: miter"/>
     <path d="M 354.703533 224.90025 
L 352.703533 223.90025 
L 352.703533 225.90025 
z
" clip-path="url(#p3c32223ee3)" style="fill: #1f77b4; fill-opacity: 0.5; stroke: #1f77b4; stroke-opacity: 0.5; stroke-linejoin: miter"/>
     <path d="M 354.703533 300.158136 
L 352.703533 299.158136 
L 352.703533 301.158136 
z
" clip-path="url(#p3c32223ee3)" style="fill: #1f77b4; fill-opacity: 0.5; stroke: #1f77b4; stroke-opacity: 0.5; stroke-linejoin: miter"/>
     <g id="patch_5">
      <path d="M 43.78125 318.021875 
L 43.78125 22.318125 
" style="fill: none; stroke: #000000; stroke-width: 0.8; stroke-linejoin: miter; stroke-linecap: square"/>
     </g>
     <g id="text_10">
      <!-- defaults_symmetric_migration_changing_rate.yaml -->
      <g transform="translate(168.3525 16.318125) scale(0.12 -0.12)">
       <defs>
        <path id="DejaVuSans-66" d="M 2375 4863 
L 2375 4384 
L 1825 4384 
Q 1516 4384 1395 4259 
Q 1275 4134 1275 3809 
L 1275 3500 
L 2222 3500 
L 2222 3053 
L 1275 3053 
L 1275 0 
L 697 0 
L 697 3053 
L 147 3053 
L 147 3500 
L 697 3500 
L 697 3744 
Q 697 4328 969 4595 
Q 1241 4863 1831 4863 
L 2375 4863 
z
" transform="scale(0.015625)"/>
        <path id="DejaVuSans-75" d="M 544 1381 
L 544 3500 
L 1119 3500 
L 1119 1403 
Q 1119 906 1312 657 
Q 1506 409 1894 409 
Q 2359 409 2629 706 
Q 2900 1003 2900 1516 
L 2900 3500 
L 3475 3500 
L 3475 0 
L 2900 0 
L 2900 538 
Q 2691 219 2414 64 
Q 2138 -91 1772 -91 
Q 1169 -91 856 284 
Q 544 659 544 1381 
z
M 1991 3584 
L 1991 3584 
z
" transform="scale(0.015625)"/>
        <path id="DejaVuSans-6c" d="M 603 4863 
L 1178 4863 
L 1178 0 
L 603 0 
L 603 4863 
z
" transform="scale(0.015625)"/>
        <path id="DejaVuSans-5f" d="M 3263 -1063 
L 3263 -1509 
L -63 -1509 
L -63 -1063 
L 3263 -1063 
z
" transform="scale(0.015625)"/>
        <path id="DejaVuSans-79" d="M 2059 -325 
Q 1816 -950 1584 -1140 
Q 1353 -1331 966 -1331 
L 506 -1331 
L 506 -850 
L 844 -850 
Q 1081 -850 1212 -737 
Q 1344 -625 1503 -206 
L 1606 56 
L 191 3500 
L 800 3500 
L 1894 763 
L 2988 3500 
L 3597 3500 
L 2059 -325 
z
" transform="scale(0.015625)"/>
        <path id="DejaVuSans-63" d="M 3122 3366 
L 3122 2828 
Q 2878 2963 2633 3030 
Q 2388 3097 2138 3097 
Q 1578 3097 1268 2742 
Q 959 2388 959 1747 
Q 959 1106 1268 751 
Q 1578 397 2138 397 
Q 2388 397 2633 464 
Q 2878 531 3122 666 
L 3122 134 
Q 2881 22 2623 -34 
Q 2366 -91 2075 -91 
Q 1284 -91 818 406 
Q 353 903 353 1747 
Q 353 2603 823 3093 
Q 1294 3584 2113 3584 
Q 2378 3584 2631 3529 
Q 2884 3475 3122 3366 
z
" transform="scale(0.015625)"/>
        <path id="DejaVuSans-68" d="M 3513 2113 
L 3513 0 
L 2938 0 
L 2938 2094 
Q 2938 2591 2744 2837 
Q 2550 3084 2163 3084 
Q 1697 3084 1428 2787 
Q 1159 2491 1159 1978 
L 1159 0 
L 581 0 
L 581 4863 
L 1159 4863 
L 1159 2956 
Q 1366 3272 1645 3428 
Q 1925 3584 2291 3584 
Q 2894 3584 3203 3211 
Q 3513 2838 3513 2113 
z
" transform="scale(0.015625)"/>
       </defs>
       <use xlink:href="#DejaVuSans-64"/>
       <use xlink:href="#DejaVuSans-65" x="63.476562"/>
       <use xlink:href="#DejaVuSans-66" x="125"/>
       <use xlink:href="#DejaVuSans-61" x="160.205078"/>
       <use xlink:href="#DejaVuSans-75" x="221.484375"/>
       <use xlink:href="#DejaVuSans-6c" x="284.863281"/>
       <use xlink:href="#DejaVuSans-74" x="312.646484"/>
       <use xlink:href="#DejaVuSans-73" x="351.855469"/>
       <use xlink:href="#DejaVuSans-5f" x="403.955078"/>
       <use xlink:href="#DejaVuSans-73" x="453.955078"/>
       <use xlink:href="#DejaVuSans-79" x="506.054688"/>
       <use xlink:href="#DejaVuSans-6d" x="565.234375"/>
       <use xlink:href="#DejaVuSans-6d" x="662.646484"/>
       <use xlink:href="#DejaVuSans-65" x="760.058594"/>
       <use xlink:href="#DejaVuSans-74" x="821.582031"/>
       <use xlink:href="#DejaVuSans-72" x="860.791016"/>
       <use xlink:href="#DejaVuSans-69" x="901.904297"/>
       <use xlink:href="#DejaVuSans-63" x="929.6875"/>
       <use xlink:href="#DejaVuSans-5f" x="984.667969"/>
       <use xlink:href="#DejaVuSans-6d" x="1034.667969"/>
       <use xlink:href="#DejaVuSans-69" x="1132.080078"/>
       <use xlink:href="#DejaVuSans-67" x="1159.863281"/>
       <use xlink:href="#DejaVuSans-72" x="1223.339844"/>
       <use xlink:href="#DejaVuSans-61" x="1264.453125"/>
       <use xlink:href="#DejaVuSans-74" x="1325.732422"/>
       <use xlink:href="#DejaVuSans-69" x="1364.941406"/>
       <use xlink:href="#DejaVuSans-6f" x="1392.724609"/>
       <use xlink:href="#DejaVuSans-6e" x="1453.90625"/>
       <use xlink:href="#DejaVuSans-5f" x="1517.285156"/>
       <use xlink:href="#DejaVuSans-63" x="1567.285156"/>
       <use xlink:href="#DejaVuSans-68" x="1622.265625"/>
       <use xlink:href="#DejaVuSans-61" x="1685.644531"/>
       <use xlink:href="#DejaVuSans-6e" x="1746.923828"/>
       <use xlink:href="#DejaVuSans-67" x="1810.302734"/>
       <use xlink:href="#DejaVuSans-69" x="1873.779297"/>
       <use xlink:href="#DejaVuSans-6e" x="1901.5625"/>
       <use xlink:href="#DejaVuSans-67" x="1964.941406"/>
       <use xlink:href="#DejaVuSans-5f" x="2028.417969"/>
       <use xlink:href="#DejaVuSans-72" x="2078.417969"/>
       <use xlink:href="#DejaVuSans-61" x="2119.53125"/>
       <use xlink:href="#DejaVuSans-74" x="2180.810547"/>
       <use xlink:href="#DejaVuSans-65" x="2220.019531"/>
       <use xlink:href="#DejaVuSans-2e" x="2281.542969"/>
       <use xlink:href="#DejaVuSans-79" x="2313.330078"/>
       <use xlink:href="#DejaVuSans-61" x="2372.509766"/>
       <use xlink:href="#DejaVuSans-6d" x="2433.789062"/>
       <use xlink:href="#DejaVuSans-6c" x="2531.201172"/>
      </g>
     </g>
    </g>
   </g>
   <defs>
    <clipPath id="p3c32223ee3">
     <rect x="43.78125" y="22.318125" width="556.21875" height="295.70375"/>
    </clipPath>
   </defs>
  </g>
 </g>
</svg>