<?xml version="1.0" encoding="utf-8" standalone="no"?>
<!DOCTYPE svg PUBLIC "-//W3C//DTD SVG 1.1//EN"
  "http://www.w3.org/Graphics/SVG/1.1/DTD/svg11.dtd">
<svg xmlns:xlink="http://www.w3.org/1999/xlink" width="607.2pt" height="338.4pt" viewBox="0 0 607.2 338.4" xmlns="http://www.w3.org/2000/svg" version="1.1">
 <metadata>
  <rdf:RDF xmlns:dc="http://purl.org/dc/elements/1.1/" xmlns:cc="http://creativecommons.org/ns#" xmlns:rdf="http://www.w3.org/1999/02/22-rdf-syntax-ns#">
   <cc:Work>
    <dc:type rdf:resource="http://purl.org/dc/dcmitype/StillImage"/>
    <dc:date>2025-09-29T10:35:16.661328</dc:date>
    <dc:format>image/svg+xml</dc:format>
    <dc:creator>
     <cc:Agent>
      <dc:title>Matplotlib v3.7.1, https://matplotlib.org/</dc:title>
     </cc:Agent>
    </dc:creator>
   </cc:Work>
  </rdf:RDF>
 </metadata>
 <defs>
  <style type="text/css">*{stroke-linejoin: round; stroke-linecap: butt}</style>
 </defs>
 <g id="figure_1">
  <g id="patch_1">
   <path d="M 0 338.4 
L 607.2 338.4 
L 607.2 0 
L 0 0 
z
" style="fill: #ffffff"/>
  </g>
  <g id="axes_1">
   <g id="patch_2">
    <path d="M 43.78125 318.021875 
L 600 318.021875 
L 600 22.318125 
L 43.78125 22.318125 
z
" style="fill: #ffffff"/>
   </g>
   <path d="M 353.703533 199.244045 
L 352.703533 199.212609 
L 351.703533 199.175669 
L 350.703533 199.077922 
L 349.703533 199.0454 
L 348.703533 198.971776 
L 347.703533 198.93321 
L 346.703533 198.897797 
L 345.703533 198.840157 
L 344.703533 198.769771 
L 343.703533 198.717807 
L 342.703533 198.658717 
L 341.703533 198.570396 
L 340.703533 198.524252 
L 339.703533 198.481841 
L 338.703533 198.451348 
L 337.703533 198.425303 
L 336.703533 198.404103 
L 335.703533 198.349802 
L 334.703533 198.321864 
L 333.703533 198.29214 
L 332.703533 198.266746 
L 331.703533 198.255545 
L 330.703533 198.245421 
L 329.703533 198.245625 
L 328.703533 198.255135 
L 327.703533 198.266789 
L 326.703533 198.297818 
L 325.703533 198.308986 
L 324.703533 198.339104 
L 323.703533 198.398881 
L 322.703533 198.436072 
L 321.703533 198.475168 
L 320.703533 198.517608 
L 319.703533 198.550373 
L 318.703533 198.617799 
L 317.703533 198.656925 
L 316.703533 198.6996 
L 315.703533 198.77018 
L 314.703533 198.806571 
L 313.703533 198.864975 
L 312.703533 198.975927 
L 311.703533 199.046585 
L 310.703533 199.159525 
L 309.703533 199.205298 
L 308.703533 199.266581 
L 307.703533 199.315081 
L 306.703533 199.395903 
L 305.703533 199.514422 
L 304.703533 199.584633 
L 303.703533 199.667895 
L 302.703533 199.701037 
L 301.703533 199.752274 
L 300.703533 199.820673 
L 299.703533 199.886888 
L 298.703533 199.963805 
L 297.703533 199.991121 
L 296.703533 200.017598 
L 295.703533 200.040249 
L 294.703533 200.05978 
L 293.703533 200.086174 
L 292.703533 200.135945 
L 291.703533 200.171018 
L 290.077717 200.206884 
" clip-path="url(#p7791cc3189)" style="fill: none; stroke: #ff7f0e; stroke-opacity: 0.5; stroke-width: 0.2; stroke-linecap: square"/>
   <path d="M 353.703533 146.708764 
L 352.703533 146.677327 
L 351.703533 146.640387 
L 350.703533 146.54264 
L 349.703533 146.510119 
L 348.703533 146.436494 
L 347.703533 146.397929 
L 346.703533 146.362515 
L 345.703533 146.304875 
L 344.703533 146.234489 
L 343.703533 146.182525 
L 342.703533 146.123435 
L 341.703533 146.035114 
L 340.703533 145.98897 
L 339.703533 145.946559 
L 338.703533 145.916066 
L 337.703533 145.890021 
L 336.703533 145.868821 
L 335.703533 145.81452 
L 334.703533 145.786583 
L 333.703533 145.756859 
L 332.703533 145.731464 
L 331.703533 145.720264 
L 330.703533 145.71014 
L 329.703533 145.710344 
L 328.703533 145.719854 
L 327.703533 145.731507 
L 326.703533 145.762537 
L 325.703533 145.773705 
L 324.703533 145.803822 
L 323.703533 145.863599 
L 322.703533 145.900791 
L 321.703533 145.939887 
L 320.703533 145.982326 
L 319.703533 146.015091 
L 318.703533 146.082518 
L 317.703533 146.121644 
L 316.703533 146.164318 
L 315.703533 146.234899 
L 314.703533 146.27129 
L 313.703533 146.329693 
L 312.703533 146.440646 
L 311.703533 146.511304 
L 310.703533 146.624244 
L 309.703533 146.670017 
L 308.703533 146.7313 
L 307.703533 146.779799 
L 306.703533 146.860622 
L 305.703533 146.979141 
L 304.703533 147.049351 
L 303.703533 147.132614 
L 302.703533 147.165756 
L 301.703533 147.216993 
L 300.703533 147.285391 
L 299.703533 147.351607 
L 298.703533 147.428524 
L 297.703533 147.455839 
L 296.703533 147.482317 
L 295.703533 147.504967 
L 294.703533 147.524499 
L 293.703533 147.550893 
L 292.703533 147.600664 
L 291.703533 147.635737 
L 290.077717 147.671602 
" clip-path="url(#p7791cc3189)" style="fill: none; stroke: #ff7f0e; stroke-opacity: 0.5; stroke-width: 0.2; stroke-linecap: square"/>
   <path d="M 353.703533 123.734489 
L 352.703533 123.703052 
L 351.703533 123.666112 
L 350.703533 123.568365 
L 349.703533 123.535844 
L 348.703533 123.462219 
L 347.703533 123.423653 
L 346.703533 123.38824 
L 345.703533 123.3306 
L 344.703533 123.260214 
L 343.703533 123.20825 
L 342.703533 123.14916 
L 341.703533 123.060839 
L 340.703533 123.014695 
L 339.703533 122.972284 
L 338.703533 122.941791 
L 337.703533 122.915746 
L 336.703533 122.894546 
L 335.703533 122.840245 
L 334.703533 122.812308 
L 333.703533 122.782584 
L 332.703533 122.757189 
L 331.703533 122.745988 
L 330.703533 122.735864 
L 329.703533 122.736069 
L 328.703533 122.745579 
L 327.703533 122.757232 
L 326.703533 122.788262 
L 325.703533 122.799429 
L 324.703533 122.829547 
L 323.703533 122.889324 
L 322.703533 122.926515 
L 321.703533 122.965612 
L 320.703533 123.008051 
L 319.703533 123.040816 
L 318.703533 123.108243 
L 317.703533 123.147369 
L 316.703533 123.190043 
L 315.703533 123.260624 
L 314.703533 123.297015 
L 313.703533 123.355418 
L 312.703533 123.46637 
L 311.703533 123.537029 
L 310.703533 123.649969 
L 309.703533 123.695741 
L 308.703533 123.757025 
L 307.703533 123.805524 
L 306.703533 123.886347 
L 305.703533 124.004866 
L 304.703533 124.075076 
L 303.703533 124.158339 
L 302.703533 124.19148 
L 301.703533 124.242718 
L 300.703533 124.311116 
L 299.703533 124.377332 
L 298.703533 124.454249 
L 297.703533 124.481564 
L 296.703533 124.508042 
L 295.703533 124.530692 
L 294.703533 124.550224 
L 293.703533 124.576618 
L 292.703533 124.626388 
L 291.703533 124.661462 
L 290.077717 124.697327 
" clip-path="url(#p7791cc3189)" style="fill: none; stroke: #ff7f0e; stroke-opacity: 0.5; stroke-width: 0.2; stroke-linecap: square"/>
   <path d="M 353.703533 194.877165 
L 352.703533 194.845728 
L 351.703533 194.808788 
L 350.703533 194.711041 
L 349.703533 194.67852 
L 348.703533 194.604895 
L 347.703533 194.56633 
L 346.703533 194.530916 
L 345.703533 194.473277 
L 344.703533 194.40289 
L 343.703533 194.350926 
L 342.703533 194.291836 
L 341.703533 194.203515 
L 340.703533 194.157371 
L 339.703533 194.11496 
L 338.703533 194.084467 
L 337.703533 194.058423 
L 336.703533 194.037222 
L 335.703533 193.982921 
L 334.703533 193.954984 
L 333.703533 193.92526 
L 332.703533 193.899865 
L 331.703533 193.888665 
L 330.703533 193.878541 
L 329.703533 193.878745 
L 328.703533 193.888255 
L 327.703533 193.899908 
L 326.703533 193.930938 
L 325.703533 193.942106 
L 324.703533 193.972223 
L 323.703533 194.032 
L 322.703533 194.069192 
L 321.703533 194.108288 
L 320.703533 194.150727 
L 319.703533 194.183492 
L 318.703533 194.250919 
L 317.703533 194.290045 
L 316.703533 194.332719 
L 315.703533 194.4033 
L 314.703533 194.439691 
L 313.703533 194.498094 
L 312.703533 194.609047 
L 311.703533 194.679705 
L 310.703533 194.792645 
L 309.703533 194.838418 
L 308.703533 194.899701 
L 307.703533 194.9482 
L 306.703533 195.029023 
L 305.703533 195.147542 
L 304.703533 195.217752 
L 303.703533 195.301015 
L 302.703533 195.334157 
L 301.703533 195.385394 
L 300.703533 195.453792 
L 299.703533 195.520008 
L 298.703533 195.596925 
L 297.703533 195.62424 
L 296.703533 195.650718 
L 295.703533 195.673368 
L 294.703533 195.6929 
L 293.703533 195.719294 
L 292.703533 195.769065 
L 291.703533 195.804138 
L 290.077717 195.840003 
" clip-path="url(#p7791cc3189)" style="fill: none; stroke: #ff7f0e; stroke-opacity: 0.5; stroke-width: 0.2; stroke-linecap: square"/>
   <path d="M 353.703533 111.640239 
L 352.703533 111.608803 
L 351.703533 111.571862 
L 350.703533 111.474116 
L 349.703533 111.441594 
L 348.703533 111.36797 
L 347.703533 111.329404 
L 346.703533 111.293991 
L 345.703533 111.236351 
L 344.703533 111.165965 
L 343.703533 111.114001 
L 342.703533 111.054911 
L 341.703533 110.96659 
L 340.703533 110.920446 
L 339.703533 110.878035 
L 338.703533 110.847542 
L 337.703533 110.821497 
L 336.703533 110.800297 
L 335.703533 110.745996 
L 334.703533 110.718058 
L 333.703533 110.688334 
L 332.703533 110.662939 
L 331.703533 110.651739 
L 330.703533 110.641615 
L 329.703533 110.641819 
L 328.703533 110.651329 
L 327.703533 110.662983 
L 326.703533 110.694012 
L 325.703533 110.70518 
L 324.703533 110.735298 
L 323.703533 110.795075 
L 322.703533 110.832266 
L 321.703533 110.871362 
L 320.703533 110.913802 
L 319.703533 110.946567 
L 318.703533 111.013993 
L 317.703533 111.053119 
L 316.703533 111.095794 
L 315.703533 111.166374 
L 314.703533 111.202765 
L 313.703533 111.261168 
L 312.703533 111.372121 
L 311.703533 111.442779 
L 310.703533 111.555719 
L 309.703533 111.601492 
L 308.703533 111.662775 
L 307.703533 111.711275 
L 306.703533 111.792097 
L 305.703533 111.910616 
L 304.703533 111.980827 
L 303.703533 112.064089 
L 302.703533 112.097231 
L 301.703533 112.148468 
L 300.703533 112.216867 
L 299.703533 112.283082 
L 298.703533 112.359999 
L 297.703533 112.387315 
L 296.703533 112.413792 
L 295.703533 112.436443 
L 294.703533 112.455974 
L 293.703533 112.482368 
L 292.703533 112.532139 
L 291.703533 112.567212 
L 290.077717 112.603078 
" clip-path="url(#p7791cc3189)" style="fill: none; stroke: #ff7f0e; stroke-opacity: 0.5; stroke-width: 0.2; stroke-linecap: square"/>
   <path d="M 353.703533 85.180908 
L 352.703533 85.149471 
L 351.703533 85.112531 
L 350.703533 85.014785 
L 349.703533 84.982263 
L 348.703533 84.908638 
L 347.703533 84.870073 
L 346.703533 84.83466 
L 345.703533 84.77702 
L 344.703533 84.706633 
L 343.703533 84.654669 
L 342.703533 84.595579 
L 341.703533 84.507258 
L 340.703533 84.461114 
L 339.703533 84.418703 
L 338.703533 84.388211 
L 337.703533 84.362166 
L 336.703533 84.340966 
L 335.703533 84.286664 
L 334.703533 84.258727 
L 333.703533 84.229003 
L 332.703533 84.203608 
L 331.703533 84.192408 
L 330.703533 84.182284 
L 329.703533 84.182488 
L 328.703533 84.191998 
L 327.703533 84.203651 
L 326.703533 84.234681 
L 325.703533 84.245849 
L 324.703533 84.275966 
L 323.703533 84.335743 
L 322.703533 84.372935 
L 321.703533 84.412031 
L 320.703533 84.45447 
L 319.703533 84.487236 
L 318.703533 84.554662 
L 317.703533 84.593788 
L 316.703533 84.636462 
L 315.703533 84.707043 
L 314.703533 84.743434 
L 313.703533 84.801837 
L 312.703533 84.91279 
L 311.703533 84.983448 
L 310.703533 85.096388 
L 309.703533 85.142161 
L 308.703533 85.203444 
L 307.703533 85.251943 
L 306.703533 85.332766 
L 305.703533 85.451285 
L 304.703533 85.521495 
L 303.703533 85.604758 
L 302.703533 85.6379 
L 301.703533 85.689137 
L 300.703533 85.757535 
L 299.703533 85.823751 
L 298.703533 85.900668 
L 297.703533 85.927983 
L 296.703533 85.954461 
L 295.703533 85.977112 
L 294.703533 85.996643 
L 293.703533 86.023037 
L 292.703533 86.072808 
L 291.703533 86.107881 
L 290.077717 86.143746 
" clip-path="url(#p7791cc3189)" style="fill: none; stroke: #ff7f0e; stroke-opacity: 0.5; stroke-width: 0.2; stroke-linecap: square"/>
   <path d="M 353.703533 85.531026 
L 352.703533 85.49959 
L 351.703533 85.46265 
L 350.703533 85.364903 
L 349.703533 85.332381 
L 348.703533 85.258757 
L 347.703533 85.220191 
L 346.703533 85.184778 
L 345.703533 85.127138 
L 344.703533 85.056752 
L 343.703533 85.004788 
L 342.703533 84.945698 
L 341.703533 84.857377 
L 340.703533 84.811233 
L 339.703533 84.768822 
L 338.703533 84.738329 
L 337.703533 84.712284 
L 336.703533 84.691084 
L 335.703533 84.636783 
L 334.703533 84.608845 
L 333.703533 84.579121 
L 332.703533 84.553727 
L 331.703533 84.542526 
L 330.703533 84.532402 
L 329.703533 84.532606 
L 328.703533 84.542116 
L 327.703533 84.55377 
L 326.703533 84.584799 
L 325.703533 84.595967 
L 324.703533 84.626085 
L 323.703533 84.685862 
L 322.703533 84.723053 
L 321.703533 84.762149 
L 320.703533 84.804589 
L 319.703533 84.837354 
L 318.703533 84.90478 
L 317.703533 84.943906 
L 316.703533 84.986581 
L 315.703533 85.057161 
L 314.703533 85.093552 
L 313.703533 85.151955 
L 312.703533 85.262908 
L 311.703533 85.333566 
L 310.703533 85.446506 
L 309.703533 85.492279 
L 308.703533 85.553562 
L 307.703533 85.602062 
L 306.703533 85.682884 
L 305.703533 85.801403 
L 304.703533 85.871614 
L 303.703533 85.954876 
L 302.703533 85.988018 
L 301.703533 86.039255 
L 300.703533 86.107654 
L 299.703533 86.173869 
L 298.703533 86.250786 
L 297.703533 86.278102 
L 296.703533 86.304579 
L 295.703533 86.32723 
L 294.703533 86.346761 
L 293.703533 86.373155 
L 292.703533 86.422926 
L 291.703533 86.457999 
L 290.077717 86.493865 
" clip-path="url(#p7791cc3189)" style="fill: none; stroke: #ff7f0e; stroke-opacity: 0.5; stroke-width: 0.2; stroke-linecap: square"/>
   <path d="M 353.703533 84.917821 
L 352.703533 84.886385 
L 351.703533 84.849444 
L 350.703533 84.751698 
L 349.703533 84.719176 
L 348.703533 84.645552 
L 347.703533 84.606986 
L 346.703533 84.571573 
L 345.703533 84.513933 
L 344.703533 84.443547 
L 343.703533 84.391582 
L 342.703533 84.332493 
L 341.703533 84.244172 
L 340.703533 84.198027 
L 339.703533 84.155616 
L 338.703533 84.125124 
L 337.703533 84.099079 
L 336.703533 84.077879 
L 335.703533 84.023578 
L 334.703533 83.99564 
L 333.703533 83.965916 
L 332.703533 83.940521 
L 331.703533 83.929321 
L 330.703533 83.919197 
L 329.703533 83.919401 
L 328.703533 83.928911 
L 327.703533 83.940565 
L 326.703533 83.971594 
L 325.703533 83.982762 
L 324.703533 84.012879 
L 323.703533 84.072656 
L 322.703533 84.109848 
L 321.703533 84.148944 
L 320.703533 84.191384 
L 319.703533 84.224149 
L 318.703533 84.291575 
L 317.703533 84.330701 
L 316.703533 84.373376 
L 315.703533 84.443956 
L 314.703533 84.480347 
L 313.703533 84.53875 
L 312.703533 84.649703 
L 311.703533 84.720361 
L 310.703533 84.833301 
L 309.703533 84.879074 
L 308.703533 84.940357 
L 307.703533 84.988857 
L 306.703533 85.069679 
L 305.703533 85.188198 
L 304.703533 85.258409 
L 303.703533 85.341671 
L 302.703533 85.374813 
L 301.703533 85.42605 
L 300.703533 85.494449 
L 299.703533 85.560664 
L 298.703533 85.637581 
L 297.703533 85.664897 
L 296.703533 85.691374 
L 295.703533 85.714025 
L 294.703533 85.733556 
L 293.703533 85.75995 
L 292.703533 85.809721 
L 291.703533 85.844794 
L 290.077717 85.88066 
" clip-path="url(#p7791cc3189)" style="fill: none; stroke: #ff7f0e; stroke-opacity: 0.5; stroke-width: 0.2; stroke-linecap: square"/>
   <path d="M 353.703533 99.333128 
L 352.703533 99.301692 
L 351.703533 99.264751 
L 350.703533 99.167005 
L 349.703533 99.134483 
L 348.703533 99.060859 
L 347.703533 99.022293 
L 346.703533 98.98688 
L 345.703533 98.92924 
L 344.703533 98.858854 
L 343.703533 98.806889 
L 342.703533 98.7478 
L 341.703533 98.659479 
L 340.703533 98.613334 
L 339.703533 98.570924 
L 338.703533 98.540431 
L 337.703533 98.514386 
L 336.703533 98.493186 
L 335.703533 98.438885 
L 334.703533 98.410947 
L 333.703533 98.381223 
L 332.703533 98.355828 
L 331.703533 98.344628 
L 330.703533 98.334504 
L 329.703533 98.334708 
L 328.703533 98.344218 
L 327.703533 98.355872 
L 326.703533 98.386901 
L 325.703533 98.398069 
L 324.703533 98.428187 
L 323.703533 98.487963 
L 322.703533 98.525155 
L 321.703533 98.564251 
L 320.703533 98.606691 
L 319.703533 98.639456 
L 318.703533 98.706882 
L 317.703533 98.746008 
L 316.703533 98.788683 
L 315.703533 98.859263 
L 314.703533 98.895654 
L 313.703533 98.954057 
L 312.703533 99.06501 
L 311.703533 99.135668 
L 310.703533 99.248608 
L 309.703533 99.294381 
L 308.703533 99.355664 
L 307.703533 99.404164 
L 306.703533 99.484986 
L 305.703533 99.603505 
L 304.703533 99.673716 
L 303.703533 99.756978 
L 302.703533 99.79012 
L 301.703533 99.841357 
L 300.703533 99.909756 
L 299.703533 99.975971 
L 298.703533 100.052888 
L 297.703533 100.080204 
L 296.703533 100.106681 
L 295.703533 100.129332 
L 294.703533 100.148863 
L 293.703533 100.175257 
L 292.703533 100.225028 
L 291.703533 100.260101 
L 290.077717 100.295967 
" clip-path="url(#p7791cc3189)" style="fill: none; stroke: #ff7f0e; stroke-opacity: 0.5; stroke-width: 0.2; stroke-linecap: square"/>
   <path d="M 353.703533 127.461886 
L 352.703533 127.43045 
L 351.703533 127.39351 
L 350.703533 127.295763 
L 349.703533 127.263242 
L 348.703533 127.189617 
L 347.703533 127.151051 
L 346.703533 127.115638 
L 345.703533 127.057998 
L 344.703533 126.987612 
L 343.703533 126.935648 
L 342.703533 126.876558 
L 341.703533 126.788237 
L 340.703533 126.742093 
L 339.703533 126.699682 
L 338.703533 126.669189 
L 337.703533 126.643144 
L 336.703533 126.621944 
L 335.703533 126.567643 
L 334.703533 126.539705 
L 333.703533 126.509981 
L 332.703533 126.484587 
L 331.703533 126.473386 
L 330.703533 126.463262 
L 329.703533 126.463467 
L 328.703533 126.472977 
L 327.703533 126.48463 
L 326.703533 126.515659 
L 325.703533 126.526827 
L 324.703533 126.556945 
L 323.703533 126.616722 
L 322.703533 126.653913 
L 321.703533 126.693009 
L 320.703533 126.735449 
L 319.703533 126.768214 
L 318.703533 126.835641 
L 317.703533 126.874766 
L 316.703533 126.917441 
L 315.703533 126.988022 
L 314.703533 127.024412 
L 313.703533 127.082816 
L 312.703533 127.193768 
L 311.703533 127.264427 
L 310.703533 127.377366 
L 309.703533 127.423139 
L 308.703533 127.484422 
L 307.703533 127.532922 
L 306.703533 127.613745 
L 305.703533 127.732263 
L 304.703533 127.802474 
L 303.703533 127.885737 
L 302.703533 127.918878 
L 301.703533 127.970116 
L 300.703533 128.038514 
L 299.703533 128.104729 
L 298.703533 128.181646 
L 297.703533 128.208962 
L 296.703533 128.235439 
L 295.703533 128.25809 
L 294.703533 128.277621 
L 293.703533 128.304015 
L 292.703533 128.353786 
L 291.703533 128.388859 
L 290.077717 128.424725 
" clip-path="url(#p7791cc3189)" style="fill: none; stroke: #ff7f0e; stroke-opacity: 0.5; stroke-width: 0.2; stroke-linecap: square"/>
   <path d="M 290.077717 89.387676 
L 291.077717 89.419112 
L 292.077717 89.456053 
L 293.077717 89.553799 
L 294.077717 89.586321 
L 295.077717 89.659945 
L 296.077717 89.698511 
L 297.077717 89.733924 
L 298.077717 89.791564 
L 299.077717 89.86195 
L 300.077717 89.913915 
L 301.077717 89.973004 
L 302.077717 90.061325 
L 303.077717 90.10747 
L 304.077717 90.14988 
L 305.077717 90.180373 
L 306.077717 90.206418 
L 307.077717 90.227618 
L 308.077717 90.281919 
L 309.077717 90.309857 
L 310.077717 90.339581 
L 311.077717 90.364976 
L 312.077717 90.376176 
L 313.077717 90.3863 
L 314.077717 90.386096 
L 315.077717 90.376586 
L 316.077717 90.364932 
L 317.077717 90.333903 
L 318.077717 90.322735 
L 319.077717 90.292617 
L 320.077717 90.232841 
L 321.077717 90.195649 
L 322.077717 90.156553 
L 323.077717 90.114113 
L 324.077717 90.081348 
L 325.077717 90.013922 
L 326.077717 89.974796 
L 327.077717 89.932121 
L 328.077717 89.861541 
L 329.077717 89.82515 
L 330.077717 89.766747 
L 331.077717 89.655794 
L 332.077717 89.585136 
L 333.077717 89.472196 
L 334.077717 89.426423 
L 335.077717 89.36514 
L 336.077717 89.31664 
L 337.077717 89.235818 
L 338.077717 89.117299 
L 339.077717 89.047088 
L 340.077717 88.963826 
L 341.077717 88.930684 
L 342.077717 88.879447 
L 343.077717 88.811048 
L 344.077717 88.744833 
L 345.077717 88.667916 
L 346.077717 88.6406 
L 347.077717 88.614123 
L 348.077717 88.591472 
L 349.077717 88.571941 
L 350.077717 88.545547 
L 351.077717 88.495776 
L 352.077717 88.460703 
L 353.703533 88.424837 
" clip-path="url(#p7791cc3189)" style="fill: none; stroke: #1f77b4; stroke-opacity: 0.5; stroke-width: 0.2; stroke-linecap: square"/>
   <path d="M 290.077717 89.379816 
L 291.077717 89.411252 
L 292.077717 89.448192 
L 293.077717 89.545939 
L 294.077717 89.578461 
L 295.077717 89.652085 
L 296.077717 89.690651 
L 297.077717 89.726064 
L 298.077717 89.783704 
L 299.077717 89.85409 
L 300.077717 89.906054 
L 301.077717 89.965144 
L 302.077717 90.053465 
L 303.077717 90.099609 
L 304.077717 90.14202 
L 305.077717 90.172513 
L 306.077717 90.198558 
L 307.077717 90.219758 
L 308.077717 90.274059 
L 309.077717 90.301997 
L 310.077717 90.331721 
L 311.077717 90.357115 
L 312.077717 90.368316 
L 313.077717 90.37844 
L 314.077717 90.378236 
L 315.077717 90.368726 
L 316.077717 90.357072 
L 317.077717 90.326043 
L 318.077717 90.314875 
L 319.077717 90.284757 
L 320.077717 90.22498 
L 321.077717 90.187789 
L 322.077717 90.148693 
L 323.077717 90.106253 
L 324.077717 90.073488 
L 325.077717 90.006062 
L 326.077717 89.966936 
L 327.077717 89.924261 
L 328.077717 89.853681 
L 329.077717 89.81729 
L 330.077717 89.758886 
L 331.077717 89.647934 
L 332.077717 89.577276 
L 333.077717 89.464336 
L 334.077717 89.418563 
L 335.077717 89.35728 
L 336.077717 89.30878 
L 337.077717 89.227958 
L 338.077717 89.109439 
L 339.077717 89.039228 
L 340.077717 88.955966 
L 341.077717 88.922824 
L 342.077717 88.871587 
L 343.077717 88.803188 
L 344.077717 88.736973 
L 345.077717 88.660056 
L 346.077717 88.63274 
L 347.077717 88.606263 
L 348.077717 88.583612 
L 349.077717 88.564081 
L 350.077717 88.537687 
L 351.077717 88.487916 
L 352.077717 88.452843 
L 353.703533 88.416977 
" clip-path="url(#p7791cc3189)" style="fill: none; stroke: #1f77b4; stroke-opacity: 0.5; stroke-width: 0.2; stroke-linecap: square"/>
   <path d="M 290.077717 192.458826 
L 291.077717 192.490262 
L 292.077717 192.527203 
L 293.077717 192.624949 
L 294.077717 192.657471 
L 295.077717 192.731096 
L 296.077717 192.769661 
L 297.077717 192.805074 
L 298.077717 192.862714 
L 299.077717 192.9331 
L 300.077717 192.985065 
L 301.077717 193.044154 
L 302.077717 193.132475 
L 303.077717 193.17862 
L 304.077717 193.221031 
L 305.077717 193.251523 
L 306.077717 193.277568 
L 307.077717 193.298768 
L 308.077717 193.353069 
L 309.077717 193.381007 
L 310.077717 193.410731 
L 311.077717 193.436126 
L 312.077717 193.447326 
L 313.077717 193.45745 
L 314.077717 193.457246 
L 315.077717 193.447736 
L 316.077717 193.436082 
L 317.077717 193.405053 
L 318.077717 193.393885 
L 319.077717 193.363768 
L 320.077717 193.303991 
L 321.077717 193.266799 
L 322.077717 193.227703 
L 323.077717 193.185263 
L 324.077717 193.152498 
L 325.077717 193.085072 
L 326.077717 193.045946 
L 327.077717 193.003271 
L 328.077717 192.932691 
L 329.077717 192.8963 
L 330.077717 192.837897 
L 331.077717 192.726944 
L 332.077717 192.656286 
L 333.077717 192.543346 
L 334.077717 192.497573 
L 335.077717 192.43629 
L 336.077717 192.387791 
L 337.077717 192.306968 
L 338.077717 192.188449 
L 339.077717 192.118238 
L 340.077717 192.034976 
L 341.077717 192.001834 
L 342.077717 191.950597 
L 343.077717 191.882198 
L 344.077717 191.815983 
L 345.077717 191.739066 
L 346.077717 191.711751 
L 347.077717 191.685273 
L 348.077717 191.662622 
L 349.077717 191.643091 
L 350.077717 191.616697 
L 351.077717 191.566926 
L 352.077717 191.531853 
L 353.703533 191.495987 
" clip-path="url(#p7791cc3189)" style="fill: none; stroke: #1f77b4; stroke-opacity: 0.5; stroke-width: 0.2; stroke-linecap: square"/>
   <path d="M 290.077717 161.787533 
L 291.077717 161.818969 
L 292.077717 161.85591 
L 293.077717 161.953656 
L 294.077717 161.986178 
L 295.077717 162.059802 
L 296.077717 162.098368 
L 297.077717 162.133781 
L 298.077717 162.191421 
L 299.077717 162.261807 
L 300.077717 162.313772 
L 301.077717 162.372861 
L 302.077717 162.461182 
L 303.077717 162.507327 
L 304.077717 162.549737 
L 305.077717 162.58023 
L 306.077717 162.606275 
L 307.077717 162.627475 
L 308.077717 162.681776 
L 309.077717 162.709714 
L 310.077717 162.739438 
L 311.077717 162.764833 
L 312.077717 162.776033 
L 313.077717 162.786157 
L 314.077717 162.785953 
L 315.077717 162.776443 
L 316.077717 162.764789 
L 317.077717 162.73376 
L 318.077717 162.722592 
L 319.077717 162.692474 
L 320.077717 162.632698 
L 321.077717 162.595506 
L 322.077717 162.55641 
L 323.077717 162.51397 
L 324.077717 162.481205 
L 325.077717 162.413779 
L 326.077717 162.374653 
L 327.077717 162.331978 
L 328.077717 162.261398 
L 329.077717 162.225007 
L 330.077717 162.166604 
L 331.077717 162.055651 
L 332.077717 161.984993 
L 333.077717 161.872053 
L 334.077717 161.82628 
L 335.077717 161.764997 
L 336.077717 161.716497 
L 337.077717 161.635675 
L 338.077717 161.517156 
L 339.077717 161.446945 
L 340.077717 161.363683 
L 341.077717 161.330541 
L 342.077717 161.279304 
L 343.077717 161.210905 
L 344.077717 161.14469 
L 345.077717 161.067773 
L 346.077717 161.040457 
L 347.077717 161.01398 
L 348.077717 160.991329 
L 349.077717 160.971798 
L 350.077717 160.945404 
L 351.077717 160.895633 
L 352.077717 160.86056 
L 353.703533 160.824694 
" clip-path="url(#p7791cc3189)" style="fill: none; stroke: #1f77b4; stroke-opacity: 0.5; stroke-width: 0.2; stroke-linecap: square"/>
   <path d="M 290.077717 91.805949 
L 291.077717 91.837386 
L 292.077717 91.874326 
L 293.077717 91.972072 
L 294.077717 92.004594 
L 295.077717 92.078219 
L 296.077717 92.116784 
L 297.077717 92.152197 
L 298.077717 92.209837 
L 299.077717 92.280224 
L 300.077717 92.332188 
L 301.077717 92.391278 
L 302.077717 92.479599 
L 303.077717 92.525743 
L 304.077717 92.568154 
L 305.077717 92.598646 
L 306.077717 92.624691 
L 307.077717 92.645891 
L 308.077717 92.700193 
L 309.077717 92.72813 
L 310.077717 92.757854 
L 311.077717 92.783249 
L 312.077717 92.794449 
L 313.077717 92.804573 
L 314.077717 92.804369 
L 315.077717 92.794859 
L 316.077717 92.783206 
L 317.077717 92.752176 
L 318.077717 92.741008 
L 319.077717 92.710891 
L 320.077717 92.651114 
L 321.077717 92.613922 
L 322.077717 92.574826 
L 323.077717 92.532387 
L 324.077717 92.499621 
L 325.077717 92.432195 
L 326.077717 92.393069 
L 327.077717 92.350395 
L 328.077717 92.279814 
L 329.077717 92.243423 
L 330.077717 92.18502 
L 331.077717 92.074067 
L 332.077717 92.003409 
L 333.077717 91.890469 
L 334.077717 91.844696 
L 335.077717 91.783413 
L 336.077717 91.734914 
L 337.077717 91.654091 
L 338.077717 91.535572 
L 339.077717 91.465362 
L 340.077717 91.382099 
L 341.077717 91.348957 
L 342.077717 91.29772 
L 343.077717 91.229322 
L 344.077717 91.163106 
L 345.077717 91.086189 
L 346.077717 91.058874 
L 347.077717 91.032396 
L 348.077717 91.009745 
L 349.077717 90.990214 
L 350.077717 90.96382 
L 351.077717 90.914049 
L 352.077717 90.878976 
L 353.703533 90.843111 
" clip-path="url(#p7791cc3189)" style="fill: none; stroke: #1f77b4; stroke-opacity: 0.5; stroke-width: 0.2; stroke-linecap: square"/>
   <path d="M 290.077717 129.266453 
L 291.077717 129.297889 
L 292.077717 129.33483 
L 293.077717 129.432576 
L 294.077717 129.465098 
L 295.077717 129.538723 
L 296.077717 129.577288 
L 297.077717 129.612701 
L 298.077717 129.670341 
L 299.077717 129.740727 
L 300.077717 129.792692 
L 301.077717 129.851781 
L 302.077717 129.940102 
L 303.077717 129.986247 
L 304.077717 130.028658 
L 305.077717 130.05915 
L 306.077717 130.085195 
L 307.077717 130.106395 
L 308.077717 130.160696 
L 309.077717 130.188634 
L 310.077717 130.218358 
L 311.077717 130.243753 
L 312.077717 130.254953 
L 313.077717 130.265077 
L 314.077717 130.264873 
L 315.077717 130.255363 
L 316.077717 130.243709 
L 317.077717 130.21268 
L 318.077717 130.201512 
L 319.077717 130.171395 
L 320.077717 130.111618 
L 321.077717 130.074426 
L 322.077717 130.03533 
L 323.077717 129.99289 
L 324.077717 129.960125 
L 325.077717 129.892699 
L 326.077717 129.853573 
L 327.077717 129.810898 
L 328.077717 129.740318 
L 329.077717 129.703927 
L 330.077717 129.645524 
L 331.077717 129.534571 
L 332.077717 129.463913 
L 333.077717 129.350973 
L 334.077717 129.3052 
L 335.077717 129.243917 
L 336.077717 129.195418 
L 337.077717 129.114595 
L 338.077717 128.996076 
L 339.077717 128.925865 
L 340.077717 128.842603 
L 341.077717 128.809461 
L 342.077717 128.758224 
L 343.077717 128.689825 
L 344.077717 128.62361 
L 345.077717 128.546693 
L 346.077717 128.519377 
L 347.077717 128.4929 
L 348.077717 128.470249 
L 349.077717 128.450718 
L 350.077717 128.424324 
L 351.077717 128.374553 
L 352.077717 128.33948 
L 353.703533 128.303614 
" clip-path="url(#p7791cc3189)" style="fill: none; stroke: #1f77b4; stroke-opacity: 0.5; stroke-width: 0.2; stroke-linecap: square"/>
   <path d="M 290.077717 178.001744 
L 291.077717 178.033181 
L 292.077717 178.070121 
L 293.077717 178.167868 
L 294.077717 178.200389 
L 295.077717 178.274014 
L 296.077717 178.31258 
L 297.077717 178.347993 
L 298.077717 178.405633 
L 299.077717 178.476019 
L 300.077717 178.527983 
L 301.077717 178.587073 
L 302.077717 178.675394 
L 303.077717 178.721538 
L 304.077717 178.763949 
L 305.077717 178.794442 
L 306.077717 178.820487 
L 307.077717 178.841687 
L 308.077717 178.895988 
L 309.077717 178.923925 
L 310.077717 178.953649 
L 311.077717 178.979044 
L 312.077717 178.990245 
L 313.077717 179.000369 
L 314.077717 179.000164 
L 315.077717 178.990654 
L 316.077717 178.979001 
L 317.077717 178.947971 
L 318.077717 178.936804 
L 319.077717 178.906686 
L 320.077717 178.846909 
L 321.077717 178.809718 
L 322.077717 178.770621 
L 323.077717 178.728182 
L 324.077717 178.695417 
L 325.077717 178.62799 
L 326.077717 178.588864 
L 327.077717 178.54619 
L 328.077717 178.475609 
L 329.077717 178.439218 
L 330.077717 178.380815 
L 331.077717 178.269863 
L 332.077717 178.199204 
L 333.077717 178.086264 
L 334.077717 178.040492 
L 335.077717 177.979208 
L 336.077717 177.930709 
L 337.077717 177.849886 
L 338.077717 177.731367 
L 339.077717 177.661157 
L 340.077717 177.577894 
L 341.077717 177.544753 
L 342.077717 177.493515 
L 343.077717 177.425117 
L 344.077717 177.358901 
L 345.077717 177.281984 
L 346.077717 177.254669 
L 347.077717 177.228191 
L 348.077717 177.205541 
L 349.077717 177.186009 
L 350.077717 177.159615 
L 351.077717 177.109845 
L 352.077717 177.074771 
L 353.703533 177.038906 
" clip-path="url(#p7791cc3189)" style="fill: none; stroke: #1f77b4; stroke-opacity: 0.5; stroke-width: 0.2; stroke-linecap: square"/>
   <path d="M 290.077717 105.752363 
L 291.077717 105.783799 
L 292.077717 105.82074 
L 293.077717 105.918486 
L 294.077717 105.951008 
L 295.077717 106.024632 
L 296.077717 106.063198 
L 297.077717 106.098611 
L 298.077717 106.156251 
L 299.077717 106.226637 
L 300.077717 106.278601 
L 301.077717 106.337691 
L 302.077717 106.426012 
L 303.077717 106.472156 
L 304.077717 106.514567 
L 305.077717 106.54506 
L 306.077717 106.571105 
L 307.077717 106.592305 
L 308.077717 106.646606 
L 309.077717 106.674544 
L 310.077717 106.704268 
L 311.077717 106.729663 
L 312.077717 106.740863 
L 313.077717 106.750987 
L 314.077717 106.750783 
L 315.077717 106.741273 
L 316.077717 106.729619 
L 317.077717 106.69859 
L 318.077717 106.687422 
L 319.077717 106.657304 
L 320.077717 106.597527 
L 321.077717 106.560336 
L 322.077717 106.52124 
L 323.077717 106.4788 
L 324.077717 106.446035 
L 325.077717 106.378609 
L 326.077717 106.339483 
L 327.077717 106.296808 
L 328.077717 106.226228 
L 329.077717 106.189837 
L 330.077717 106.131434 
L 331.077717 106.020481 
L 332.077717 105.949823 
L 333.077717 105.836883 
L 334.077717 105.79111 
L 335.077717 105.729827 
L 336.077717 105.681327 
L 337.077717 105.600505 
L 338.077717 105.481986 
L 339.077717 105.411775 
L 340.077717 105.328513 
L 341.077717 105.295371 
L 342.077717 105.244134 
L 343.077717 105.175735 
L 344.077717 105.10952 
L 345.077717 105.032603 
L 346.077717 105.005287 
L 347.077717 104.97881 
L 348.077717 104.956159 
L 349.077717 104.936628 
L 350.077717 104.910234 
L 351.077717 104.860463 
L 352.077717 104.82539 
L 353.703533 104.789524 
" clip-path="url(#p7791cc3189)" style="fill: none; stroke: #1f77b4; stroke-opacity: 0.5; stroke-width: 0.2; stroke-linecap: square"/>
   <path d="M 290.077717 133.560395 
L 291.077717 133.591831 
L 292.077717 133.628771 
L 293.077717 133.726518 
L 294.077717 133.759039 
L 295.077717 133.832664 
L 296.077717 133.87123 
L 297.077717 133.906643 
L 298.077717 133.964283 
L 299.077717 134.034669 
L 300.077717 134.086633 
L 301.077717 134.145723 
L 302.077717 134.234044 
L 303.077717 134.280188 
L 304.077717 134.322599 
L 305.077717 134.353092 
L 306.077717 134.379137 
L 307.077717 134.400337 
L 308.077717 134.454638 
L 309.077717 134.482576 
L 310.077717 134.5123 
L 311.077717 134.537694 
L 312.077717 134.548895 
L 313.077717 134.559019 
L 314.077717 134.558814 
L 315.077717 134.549305 
L 316.077717 134.537651 
L 317.077717 134.506622 
L 318.077717 134.495454 
L 319.077717 134.465336 
L 320.077717 134.405559 
L 321.077717 134.368368 
L 322.077717 134.329272 
L 323.077717 134.286832 
L 324.077717 134.254067 
L 325.077717 134.18664 
L 326.077717 134.147515 
L 327.077717 134.10484 
L 328.077717 134.034259 
L 329.077717 133.997869 
L 330.077717 133.939465 
L 331.077717 133.828513 
L 332.077717 133.757854 
L 333.077717 133.644915 
L 334.077717 133.599142 
L 335.077717 133.537859 
L 336.077717 133.489359 
L 337.077717 133.408536 
L 338.077717 133.290018 
L 339.077717 133.219807 
L 340.077717 133.136544 
L 341.077717 133.103403 
L 342.077717 133.052165 
L 343.077717 132.983767 
L 344.077717 132.917552 
L 345.077717 132.840635 
L 346.077717 132.813319 
L 347.077717 132.786842 
L 348.077717 132.764191 
L 349.077717 132.74466 
L 350.077717 132.718266 
L 351.077717 132.668495 
L 352.077717 132.633422 
L 353.703533 132.597556 
" clip-path="url(#p7791cc3189)" style="fill: none; stroke: #1f77b4; stroke-opacity: 0.5; stroke-width: 0.2; stroke-linecap: square"/>
   <path d="M 290.077717 136.454657 
L 291.077717 136.486093 
L 292.077717 136.523034 
L 293.077717 136.62078 
L 294.077717 136.653302 
L 295.077717 136.726926 
L 296.077717 136.765492 
L 297.077717 136.800905 
L 298.077717 136.858545 
L 299.077717 136.928931 
L 300.077717 136.980895 
L 301.077717 137.039985 
L 302.077717 137.128306 
L 303.077717 137.17445 
L 304.077717 137.216861 
L 305.077717 137.247354 
L 306.077717 137.273399 
L 307.077717 137.294599 
L 308.077717 137.3489 
L 309.077717 137.376838 
L 310.077717 137.406562 
L 311.077717 137.431957 
L 312.077717 137.443157 
L 313.077717 137.453281 
L 314.077717 137.453077 
L 315.077717 137.443567 
L 316.077717 137.431913 
L 317.077717 137.400884 
L 318.077717 137.389716 
L 319.077717 137.359598 
L 320.077717 137.299822 
L 321.077717 137.26263 
L 322.077717 137.223534 
L 323.077717 137.181094 
L 324.077717 137.148329 
L 325.077717 137.080903 
L 326.077717 137.041777 
L 327.077717 136.999102 
L 328.077717 136.928522 
L 329.077717 136.892131 
L 330.077717 136.833728 
L 331.077717 136.722775 
L 332.077717 136.652117 
L 333.077717 136.539177 
L 334.077717 136.493404 
L 335.077717 136.432121 
L 336.077717 136.383621 
L 337.077717 136.302799 
L 338.077717 136.18428 
L 339.077717 136.114069 
L 340.077717 136.030807 
L 341.077717 135.997665 
L 342.077717 135.946428 
L 343.077717 135.878029 
L 344.077717 135.811814 
L 345.077717 135.734897 
L 346.077717 135.707581 
L 347.077717 135.681104 
L 348.077717 135.658453 
L 349.077717 135.638922 
L 350.077717 135.612528 
L 351.077717 135.562757 
L 352.077717 135.527684 
L 353.703533 135.491818 
" clip-path="url(#p7791cc3189)" style="fill: none; stroke: #1f77b4; stroke-opacity: 0.5; stroke-width: 0.2; stroke-linecap: square"/>
   <path d="M 353.703533 240.811369 
L 352.703533 240.779933 
L 351.703533 240.742993 
L 350.703533 240.645246 
L 349.703533 240.612724 
L 348.703533 240.5391 
L 347.703533 240.500534 
L 346.703533 240.465121 
L 345.703533 240.407481 
L 344.703533 240.337095 
L 343.703533 240.285131 
L 342.703533 240.226041 
L 341.703533 240.13772 
L 340.703533 240.091576 
L 339.703533 240.049165 
L 338.703533 240.018672 
L 337.703533 239.992627 
L 336.703533 239.971427 
L 335.703533 239.917126 
L 334.703533 239.889188 
L 333.703533 239.859464 
L 332.703533 239.83407 
L 331.703533 239.822869 
L 330.703533 239.812745 
L 329.703533 239.81295 
L 328.703533 239.822459 
L 327.703533 239.834113 
L 326.703533 239.865142 
L 325.703533 239.87631 
L 324.703533 239.906428 
L 323.703533 239.966205 
L 322.703533 240.003396 
L 321.703533 240.042492 
L 320.703533 240.084932 
L 319.703533 240.117697 
L 318.703533 240.185123 
L 317.703533 240.224249 
L 316.703533 240.266924 
L 315.703533 240.337504 
L 314.703533 240.373895 
L 313.703533 240.432299 
L 312.703533 240.543251 
L 311.703533 240.613909 
L 310.703533 240.726849 
L 309.703533 240.772622 
L 308.703533 240.833905 
L 307.703533 240.882405 
L 306.703533 240.963227 
L 305.703533 241.081746 
L 304.703533 241.151957 
L 303.703533 241.235219 
L 302.703533 241.268361 
L 301.703533 241.319598 
L 300.703533 241.387997 
L 299.703533 241.454212 
L 298.703533 241.531129 
L 297.703533 241.558445 
L 296.703533 241.584922 
L 295.703533 241.607573 
L 294.703533 241.627104 
L 293.703533 241.653498 
L 292.703533 241.703269 
L 291.703533 241.738342 
L 290.077717 241.774208 
" clip-path="url(#p7791cc3189)" style="fill: none; stroke: #ff7f0e; stroke-opacity: 0.5; stroke-width: 0.2; stroke-linecap: square"/>
   <path d="M 353.703533 223.873237 
L 352.703533 223.8418 
L 351.703533 223.80486 
L 350.703533 223.707114 
L 349.703533 223.674592 
L 348.703533 223.600967 
L 347.703533 223.562402 
L 346.703533 223.526989 
L 345.703533 223.469349 
L 344.703533 223.398962 
L 343.703533 223.346998 
L 342.703533 223.287908 
L 341.703533 223.199587 
L 340.703533 223.153443 
L 339.703533 223.111032 
L 338.703533 223.08054 
L 337.703533 223.054495 
L 336.703533 223.033295 
L 335.703533 222.978993 
L 334.703533 222.951056 
L 333.703533 222.921332 
L 332.703533 222.895937 
L 331.703533 222.884737 
L 330.703533 222.874613 
L 329.703533 222.874817 
L 328.703533 222.884327 
L 327.703533 222.895981 
L 326.703533 222.92701 
L 325.703533 222.938178 
L 324.703533 222.968295 
L 323.703533 223.028072 
L 322.703533 223.065264 
L 321.703533 223.10436 
L 320.703533 223.146799 
L 319.703533 223.179565 
L 318.703533 223.246991 
L 317.703533 223.286117 
L 316.703533 223.328791 
L 315.703533 223.399372 
L 314.703533 223.435763 
L 313.703533 223.494166 
L 312.703533 223.605119 
L 311.703533 223.675777 
L 310.703533 223.788717 
L 309.703533 223.83449 
L 308.703533 223.895773 
L 307.703533 223.944272 
L 306.703533 224.025095 
L 305.703533 224.143614 
L 304.703533 224.213825 
L 303.703533 224.297087 
L 302.703533 224.330229 
L 301.703533 224.381466 
L 300.703533 224.449864 
L 299.703533 224.51608 
L 298.703533 224.592997 
L 297.703533 224.620312 
L 296.703533 224.64679 
L 295.703533 224.669441 
L 294.703533 224.688972 
L 293.703533 224.715366 
L 292.703533 224.765137 
L 291.703533 224.80021 
L 290.077717 224.836075 
" clip-path="url(#p7791cc3189)" style="fill: none; stroke: #ff7f0e; stroke-opacity: 0.5; stroke-width: 0.2; stroke-linecap: square"/>
   <path d="M 353.703533 207.796843 
L 352.703533 207.765407 
L 351.703533 207.728467 
L 350.703533 207.63072 
L 349.703533 207.598199 
L 348.703533 207.524574 
L 347.703533 207.486008 
L 346.703533 207.450595 
L 345.703533 207.392955 
L 344.703533 207.322569 
L 343.703533 207.270605 
L 342.703533 207.211515 
L 341.703533 207.123194 
L 340.703533 207.07705 
L 339.703533 207.034639 
L 338.703533 207.004146 
L 337.703533 206.978101 
L 336.703533 206.956901 
L 335.703533 206.9026 
L 334.703533 206.874662 
L 333.703533 206.844938 
L 332.703533 206.819544 
L 331.703533 206.808343 
L 330.703533 206.798219 
L 329.703533 206.798424 
L 328.703533 206.807934 
L 327.703533 206.819587 
L 326.703533 206.850616 
L 325.703533 206.861784 
L 324.703533 206.891902 
L 323.703533 206.951679 
L 322.703533 206.98887 
L 321.703533 207.027966 
L 320.703533 207.070406 
L 319.703533 207.103171 
L 318.703533 207.170598 
L 317.703533 207.209724 
L 316.703533 207.252398 
L 315.703533 207.322979 
L 314.703533 207.35937 
L 313.703533 207.417773 
L 312.703533 207.528725 
L 311.703533 207.599384 
L 310.703533 207.712323 
L 309.703533 207.758096 
L 308.703533 207.81938 
L 307.703533 207.867879 
L 306.703533 207.948702 
L 305.703533 208.06722 
L 304.703533 208.137431 
L 303.703533 208.220694 
L 302.703533 208.253835 
L 301.703533 208.305073 
L 300.703533 208.373471 
L 299.703533 208.439686 
L 298.703533 208.516604 
L 297.703533 208.543919 
L 296.703533 208.570397 
L 295.703533 208.593047 
L 294.703533 208.612578 
L 293.703533 208.638972 
L 292.703533 208.688743 
L 291.703533 208.723816 
L 290.077717 208.759682 
" clip-path="url(#p7791cc3189)" style="fill: none; stroke: #ff7f0e; stroke-opacity: 0.5; stroke-width: 0.2; stroke-linecap: square"/>
   <path d="M 353.703533 210.949442 
L 352.703533 210.918006 
L 351.703533 210.881065 
L 350.703533 210.783319 
L 349.703533 210.750797 
L 348.703533 210.677172 
L 347.703533 210.638607 
L 346.703533 210.603194 
L 345.703533 210.545554 
L 344.703533 210.475168 
L 343.703533 210.423203 
L 342.703533 210.364114 
L 341.703533 210.275793 
L 340.703533 210.229648 
L 339.703533 210.187237 
L 338.703533 210.156745 
L 337.703533 210.1307 
L 336.703533 210.1095 
L 335.703533 210.055199 
L 334.703533 210.027261 
L 333.703533 209.997537 
L 332.703533 209.972142 
L 331.703533 209.960942 
L 330.703533 209.950818 
L 329.703533 209.951022 
L 328.703533 209.960532 
L 327.703533 209.972186 
L 326.703533 210.003215 
L 325.703533 210.014383 
L 324.703533 210.0445 
L 323.703533 210.104277 
L 322.703533 210.141469 
L 321.703533 210.180565 
L 320.703533 210.223005 
L 319.703533 210.25577 
L 318.703533 210.323196 
L 317.703533 210.362322 
L 316.703533 210.404997 
L 315.703533 210.475577 
L 314.703533 210.511968 
L 313.703533 210.570371 
L 312.703533 210.681324 
L 311.703533 210.751982 
L 310.703533 210.864922 
L 309.703533 210.910695 
L 308.703533 210.971978 
L 307.703533 211.020477 
L 306.703533 211.1013 
L 305.703533 211.219819 
L 304.703533 211.29003 
L 303.703533 211.373292 
L 302.703533 211.406434 
L 301.703533 211.457671 
L 300.703533 211.52607 
L 299.703533 211.592285 
L 298.703533 211.669202 
L 297.703533 211.696518 
L 296.703533 211.722995 
L 295.703533 211.745646 
L 294.703533 211.765177 
L 293.703533 211.791571 
L 292.703533 211.841342 
L 291.703533 211.876415 
L 290.077717 211.912281 
" clip-path="url(#p7791cc3189)" style="fill: none; stroke: #ff7f0e; stroke-opacity: 0.5; stroke-width: 0.2; stroke-linecap: square"/>
   <path d="M 353.703533 235.229048 
L 352.703533 235.197611 
L 351.703533 235.160671 
L 350.703533 235.062924 
L 349.703533 235.030403 
L 348.703533 234.956778 
L 347.703533 234.918212 
L 346.703533 234.882799 
L 345.703533 234.825159 
L 344.703533 234.754773 
L 343.703533 234.702809 
L 342.703533 234.643719 
L 341.703533 234.555398 
L 340.703533 234.509254 
L 339.703533 234.466843 
L 338.703533 234.43635 
L 337.703533 234.410305 
L 336.703533 234.389105 
L 335.703533 234.334804 
L 334.703533 234.306867 
L 333.703533 234.277143 
L 332.703533 234.251748 
L 331.703533 234.240547 
L 330.703533 234.230423 
L 329.703533 234.230628 
L 328.703533 234.240138 
L 327.703533 234.251791 
L 326.703533 234.28282 
L 325.703533 234.293988 
L 324.703533 234.324106 
L 323.703533 234.383883 
L 322.703533 234.421074 
L 321.703533 234.46017 
L 320.703533 234.50261 
L 319.703533 234.535375 
L 318.703533 234.602802 
L 317.703533 234.641928 
L 316.703533 234.684602 
L 315.703533 234.755183 
L 314.703533 234.791574 
L 313.703533 234.849977 
L 312.703533 234.960929 
L 311.703533 235.031588 
L 310.703533 235.144527 
L 309.703533 235.1903 
L 308.703533 235.251584 
L 307.703533 235.300083 
L 306.703533 235.380906 
L 305.703533 235.499425 
L 304.703533 235.569635 
L 303.703533 235.652898 
L 302.703533 235.686039 
L 301.703533 235.737277 
L 300.703533 235.805675 
L 299.703533 235.871891 
L 298.703533 235.948808 
L 297.703533 235.976123 
L 296.703533 236.002601 
L 295.703533 236.025251 
L 294.703533 236.044783 
L 293.703533 236.071176 
L 292.703533 236.120947 
L 291.703533 236.15602 
L 290.077717 236.191886 
" clip-path="url(#p7791cc3189)" style="fill: none; stroke: #ff7f0e; stroke-opacity: 0.5; stroke-width: 0.2; stroke-linecap: square"/>
   <path d="M 353.703533 211.82366 
L 352.703533 211.792224 
L 351.703533 211.755283 
L 350.703533 211.657537 
L 349.703533 211.625015 
L 348.703533 211.55139 
L 347.703533 211.512825 
L 346.703533 211.477412 
L 345.703533 211.419772 
L 344.703533 211.349385 
L 343.703533 211.297421 
L 342.703533 211.238331 
L 341.703533 211.150011 
L 340.703533 211.103866 
L 339.703533 211.061455 
L 338.703533 211.030963 
L 337.703533 211.004918 
L 336.703533 210.983718 
L 335.703533 210.929416 
L 334.703533 210.901479 
L 333.703533 210.871755 
L 332.703533 210.84636 
L 331.703533 210.83516 
L 330.703533 210.825036 
L 329.703533 210.82524 
L 328.703533 210.83475 
L 327.703533 210.846404 
L 326.703533 210.877433 
L 325.703533 210.888601 
L 324.703533 210.918718 
L 323.703533 210.978495 
L 322.703533 211.015687 
L 321.703533 211.054783 
L 320.703533 211.097222 
L 319.703533 211.129988 
L 318.703533 211.197414 
L 317.703533 211.23654 
L 316.703533 211.279214 
L 315.703533 211.349795 
L 314.703533 211.386186 
L 313.703533 211.444589 
L 312.703533 211.555542 
L 311.703533 211.6262 
L 310.703533 211.73914 
L 309.703533 211.784913 
L 308.703533 211.846196 
L 307.703533 211.894695 
L 306.703533 211.975518 
L 305.703533 212.094037 
L 304.703533 212.164248 
L 303.703533 212.24751 
L 302.703533 212.280652 
L 301.703533 212.331889 
L 300.703533 212.400287 
L 299.703533 212.466503 
L 298.703533 212.54342 
L 297.703533 212.570735 
L 296.703533 212.597213 
L 295.703533 212.619864 
L 294.703533 212.639395 
L 293.703533 212.665789 
L 292.703533 212.71556 
L 291.703533 212.750633 
L 290.077717 212.786499 
" clip-path="url(#p7791cc3189)" style="fill: none; stroke: #ff7f0e; stroke-opacity: 0.5; stroke-width: 0.2; stroke-linecap: square"/>
   <path d="M 353.703533 250.38003 
L 352.703533 250.348593 
L 351.703533 250.311653 
L 350.703533 250.213906 
L 349.703533 250.181385 
L 348.703533 250.10776 
L 347.703533 250.069194 
L 346.703533 250.033781 
L 345.703533 249.976141 
L 344.703533 249.905755 
L 343.703533 249.853791 
L 342.703533 249.794701 
L 341.703533 249.70638 
L 340.703533 249.660236 
L 339.703533 249.617825 
L 338.703533 249.587332 
L 337.703533 249.561287 
L 336.703533 249.540087 
L 335.703533 249.485786 
L 334.703533 249.457849 
L 333.703533 249.428125 
L 332.703533 249.40273 
L 331.703533 249.391529 
L 330.703533 249.381405 
L 329.703533 249.38161 
L 328.703533 249.39112 
L 327.703533 249.402773 
L 326.703533 249.433803 
L 325.703533 249.44497 
L 324.703533 249.475088 
L 323.703533 249.534865 
L 322.703533 249.572056 
L 321.703533 249.611153 
L 320.703533 249.653592 
L 319.703533 249.686357 
L 318.703533 249.753784 
L 317.703533 249.79291 
L 316.703533 249.835584 
L 315.703533 249.906165 
L 314.703533 249.942556 
L 313.703533 250.000959 
L 312.703533 250.111911 
L 311.703533 250.18257 
L 310.703533 250.29551 
L 309.703533 250.341282 
L 308.703533 250.402566 
L 307.703533 250.451065 
L 306.703533 250.531888 
L 305.703533 250.650407 
L 304.703533 250.720617 
L 303.703533 250.80388 
L 302.703533 250.837021 
L 301.703533 250.888259 
L 300.703533 250.956657 
L 299.703533 251.022873 
L 298.703533 251.09979 
L 297.703533 251.127105 
L 296.703533 251.153583 
L 295.703533 251.176233 
L 294.703533 251.195765 
L 293.703533 251.222159 
L 292.703533 251.271929 
L 291.703533 251.307003 
L 290.077717 251.342868 
" clip-path="url(#p7791cc3189)" style="fill: none; stroke: #ff7f0e; stroke-opacity: 0.5; stroke-width: 0.2; stroke-linecap: square"/>
   <path d="M 353.703533 312.43945 
L 352.703533 312.408014 
L 351.703533 312.371073 
L 350.703533 312.273327 
L 349.703533 312.240805 
L 348.703533 312.16718 
L 347.703533 312.128615 
L 346.703533 312.093202 
L 345.703533 312.035562 
L 344.703533 311.965175 
L 343.703533 311.913211 
L 342.703533 311.854122 
L 341.703533 311.765801 
L 340.703533 311.719656 
L 339.703533 311.677245 
L 338.703533 311.646753 
L 337.703533 311.620708 
L 336.703533 311.599508 
L 335.703533 311.545206 
L 334.703533 311.517269 
L 333.703533 311.487545 
L 332.703533 311.46215 
L 331.703533 311.45095 
L 330.703533 311.440826 
L 329.703533 311.44103 
L 328.703533 311.45054 
L 327.703533 311.462194 
L 326.703533 311.493223 
L 325.703533 311.504391 
L 324.703533 311.534508 
L 323.703533 311.594285 
L 322.703533 311.631477 
L 321.703533 311.670573 
L 320.703533 311.713013 
L 319.703533 311.745778 
L 318.703533 311.813204 
L 317.703533 311.85233 
L 316.703533 311.895005 
L 315.703533 311.965585 
L 314.703533 312.001976 
L 313.703533 312.060379 
L 312.703533 312.171332 
L 311.703533 312.24199 
L 310.703533 312.35493 
L 309.703533 312.400703 
L 308.703533 312.461986 
L 307.703533 312.510485 
L 306.703533 312.591308 
L 305.703533 312.709827 
L 304.703533 312.780038 
L 303.703533 312.8633 
L 302.703533 312.896442 
L 301.703533 312.947679 
L 300.703533 313.016077 
L 299.703533 313.082293 
L 298.703533 313.15921 
L 297.703533 313.186525 
L 296.703533 313.213003 
L 295.703533 313.235654 
L 294.703533 313.255185 
L 293.703533 313.281579 
L 292.703533 313.33135 
L 291.703533 313.366423 
L 290.077717 313.402289 
" clip-path="url(#p7791cc3189)" style="fill: none; stroke: #ff7f0e; stroke-opacity: 0.5; stroke-width: 0.2; stroke-linecap: square"/>
   <path d="M 353.703533 201.095466 
L 352.703533 201.064029 
L 351.703533 201.027089 
L 350.703533 200.929342 
L 349.703533 200.896821 
L 348.703533 200.823196 
L 347.703533 200.78463 
L 346.703533 200.749217 
L 345.703533 200.691577 
L 344.703533 200.621191 
L 343.703533 200.569227 
L 342.703533 200.510137 
L 341.703533 200.421816 
L 340.703533 200.375672 
L 339.703533 200.333261 
L 338.703533 200.302768 
L 337.703533 200.276723 
L 336.703533 200.255523 
L 335.703533 200.201222 
L 334.703533 200.173285 
L 333.703533 200.143561 
L 332.703533 200.118166 
L 331.703533 200.106965 
L 330.703533 200.096842 
L 329.703533 200.097046 
L 328.703533 200.106556 
L 327.703533 200.118209 
L 326.703533 200.149239 
L 325.703533 200.160406 
L 324.703533 200.190524 
L 323.703533 200.250301 
L 322.703533 200.287492 
L 321.703533 200.326589 
L 320.703533 200.369028 
L 319.703533 200.401793 
L 318.703533 200.46922 
L 317.703533 200.508346 
L 316.703533 200.55102 
L 315.703533 200.621601 
L 314.703533 200.657992 
L 313.703533 200.716395 
L 312.703533 200.827347 
L 311.703533 200.898006 
L 310.703533 201.010946 
L 309.703533 201.056718 
L 308.703533 201.118002 
L 307.703533 201.166501 
L 306.703533 201.247324 
L 305.703533 201.365843 
L 304.703533 201.436053 
L 303.703533 201.519316 
L 302.703533 201.552458 
L 301.703533 201.603695 
L 300.703533 201.672093 
L 299.703533 201.738309 
L 298.703533 201.815226 
L 297.703533 201.842541 
L 296.703533 201.869019 
L 295.703533 201.891669 
L 294.703533 201.911201 
L 293.703533 201.937595 
L 292.703533 201.987365 
L 291.703533 202.022439 
L 290.077717 202.058304 
" clip-path="url(#p7791cc3189)" style="fill: none; stroke: #ff7f0e; stroke-opacity: 0.5; stroke-width: 0.2; stroke-linecap: square"/>
   <path d="M 353.703533 200.282067 
L 352.703533 200.250631 
L 351.703533 200.21369 
L 350.703533 200.115944 
L 349.703533 200.083422 
L 348.703533 200.009798 
L 347.703533 199.971232 
L 346.703533 199.935819 
L 345.703533 199.878179 
L 344.703533 199.807793 
L 343.703533 199.755828 
L 342.703533 199.696739 
L 341.703533 199.608418 
L 340.703533 199.562273 
L 339.703533 199.519863 
L 338.703533 199.48937 
L 337.703533 199.463325 
L 336.703533 199.442125 
L 335.703533 199.387824 
L 334.703533 199.359886 
L 333.703533 199.330162 
L 332.703533 199.304767 
L 331.703533 199.293567 
L 330.703533 199.283443 
L 329.703533 199.283647 
L 328.703533 199.293157 
L 327.703533 199.304811 
L 326.703533 199.33584 
L 325.703533 199.347008 
L 324.703533 199.377126 
L 323.703533 199.436902 
L 322.703533 199.474094 
L 321.703533 199.51319 
L 320.703533 199.55563 
L 319.703533 199.588395 
L 318.703533 199.655821 
L 317.703533 199.694947 
L 316.703533 199.737622 
L 315.703533 199.808202 
L 314.703533 199.844593 
L 313.703533 199.902996 
L 312.703533 200.013949 
L 311.703533 200.084607 
L 310.703533 200.197547 
L 309.703533 200.24332 
L 308.703533 200.304603 
L 307.703533 200.353103 
L 306.703533 200.433925 
L 305.703533 200.552444 
L 304.703533 200.622655 
L 303.703533 200.705917 
L 302.703533 200.739059 
L 301.703533 200.790296 
L 300.703533 200.858695 
L 299.703533 200.92491 
L 298.703533 201.001827 
L 297.703533 201.029143 
L 296.703533 201.05562 
L 295.703533 201.078271 
L 294.703533 201.097802 
L 293.703533 201.124196 
L 292.703533 201.173967 
L 291.703533 201.20904 
L 290.077717 201.244906 
" clip-path="url(#p7791cc3189)" style="fill: none; stroke: #ff7f0e; stroke-opacity: 0.5; stroke-width: 0.2; stroke-linecap: square"/>
   <path d="M 290.077717 267.420518 
L 291.077717 267.451954 
L 292.077717 267.488895 
L 293.077717 267.586641 
L 294.077717 267.619163 
L 295.077717 267.692787 
L 296.077717 267.731353 
L 297.077717 267.766766 
L 298.077717 267.824406 
L 299.077717 267.894792 
L 300.077717 267.946756 
L 301.077717 268.005846 
L 302.077717 268.094167 
L 303.077717 268.140311 
L 304.077717 268.182722 
L 305.077717 268.213215 
L 306.077717 268.23926 
L 307.077717 268.26046 
L 308.077717 268.314761 
L 309.077717 268.342699 
L 310.077717 268.372423 
L 311.077717 268.397818 
L 312.077717 268.409018 
L 313.077717 268.419142 
L 314.077717 268.418938 
L 315.077717 268.409428 
L 316.077717 268.397774 
L 317.077717 268.366745 
L 318.077717 268.355577 
L 319.077717 268.325459 
L 320.077717 268.265682 
L 321.077717 268.228491 
L 322.077717 268.189395 
L 323.077717 268.146955 
L 324.077717 268.11419 
L 325.077717 268.046764 
L 326.077717 268.007638 
L 327.077717 267.964963 
L 328.077717 267.894383 
L 329.077717 267.857992 
L 330.077717 267.799589 
L 331.077717 267.688636 
L 332.077717 267.617978 
L 333.077717 267.505038 
L 334.077717 267.459265 
L 335.077717 267.397982 
L 336.077717 267.349482 
L 337.077717 267.26866 
L 338.077717 267.150141 
L 339.077717 267.07993 
L 340.077717 266.996668 
L 341.077717 266.963526 
L 342.077717 266.912289 
L 343.077717 266.84389 
L 344.077717 266.777675 
L 345.077717 266.700758 
L 346.077717 266.673442 
L 347.077717 266.646965 
L 348.077717 266.624314 
L 349.077717 266.604783 
L 350.077717 266.578389 
L 351.077717 266.528618 
L 352.077717 266.493545 
L 353.703533 266.457679 
" clip-path="url(#p7791cc3189)" style="fill: none; stroke: #1f77b4; stroke-opacity: 0.5; stroke-width: 0.2; stroke-linecap: square"/>
   <path d="M 290.077717 254.565224 
L 291.077717 254.596661 
L 292.077717 254.633601 
L 293.077717 254.731348 
L 294.077717 254.763869 
L 295.077717 254.837494 
L 296.077717 254.87606 
L 297.077717 254.911473 
L 298.077717 254.969113 
L 299.077717 255.039499 
L 300.077717 255.091463 
L 301.077717 255.150553 
L 302.077717 255.238874 
L 303.077717 255.285018 
L 304.077717 255.327429 
L 305.077717 255.357922 
L 306.077717 255.383967 
L 307.077717 255.405167 
L 308.077717 255.459468 
L 309.077717 255.487405 
L 310.077717 255.517129 
L 311.077717 255.542524 
L 312.077717 255.553725 
L 313.077717 255.563849 
L 314.077717 255.563644 
L 315.077717 255.554134 
L 316.077717 255.542481 
L 317.077717 255.511452 
L 318.077717 255.500284 
L 319.077717 255.470166 
L 320.077717 255.410389 
L 321.077717 255.373198 
L 322.077717 255.334102 
L 323.077717 255.291662 
L 324.077717 255.258897 
L 325.077717 255.19147 
L 326.077717 255.152344 
L 327.077717 255.10967 
L 328.077717 255.039089 
L 329.077717 255.002698 
L 330.077717 254.944295 
L 331.077717 254.833343 
L 332.077717 254.762684 
L 333.077717 254.649744 
L 334.077717 254.603972 
L 335.077717 254.542688 
L 336.077717 254.494189 
L 337.077717 254.413366 
L 338.077717 254.294847 
L 339.077717 254.224637 
L 340.077717 254.141374 
L 341.077717 254.108233 
L 342.077717 254.056995 
L 343.077717 253.988597 
L 344.077717 253.922381 
L 345.077717 253.845464 
L 346.077717 253.818149 
L 347.077717 253.791671 
L 348.077717 253.769021 
L 349.077717 253.749489 
L 350.077717 253.723096 
L 351.077717 253.673325 
L 352.077717 253.638252 
L 353.703533 253.602386 
" clip-path="url(#p7791cc3189)" style="fill: none; stroke: #1f77b4; stroke-opacity: 0.5; stroke-width: 0.2; stroke-linecap: square"/>
   <path d="M 290.077717 317.343516 
L 291.077717 317.374953 
L 292.077717 317.411893 
L 293.077717 317.50964 
L 294.077717 317.542161 
L 295.077717 317.615786 
L 296.077717 317.654351 
L 297.077717 317.689765 
L 298.077717 317.747404 
L 299.077717 317.817791 
L 300.077717 317.869755 
L 301.077717 317.928845 
L 302.077717 318.017166 
L 303.077717 318.06331 
L 304.077717 318.105721 
L 305.077717 318.136214 
L 306.077717 318.162258 
L 307.077717 318.183459 
L 308.077717 318.23776 
L 309.077717 318.265697 
L 310.077717 318.295421 
L 311.077717 318.320816 
L 312.077717 318.332016 
L 313.077717 318.34214 
L 314.077717 318.341936 
L 315.077717 318.332426 
L 316.077717 318.320773 
L 317.077717 318.289743 
L 318.077717 318.278575 
L 319.077717 318.248458 
L 320.077717 318.188681 
L 321.077717 318.151489 
L 322.077717 318.112393 
L 323.077717 318.069954 
L 324.077717 318.037189 
L 325.077717 317.969762 
L 326.077717 317.930636 
L 327.077717 317.887962 
L 328.077717 317.817381 
L 329.077717 317.78099 
L 330.077717 317.722587 
L 331.077717 317.611634 
L 332.077717 317.540976 
L 333.077717 317.428036 
L 334.077717 317.382263 
L 335.077717 317.32098 
L 336.077717 317.272481 
L 337.077717 317.191658 
L 338.077717 317.073139 
L 339.077717 317.002929 
L 340.077717 316.919666 
L 341.077717 316.886524 
L 342.077717 316.835287 
L 343.077717 316.766889 
L 344.077717 316.700673 
L 345.077717 316.623756 
L 346.077717 316.596441 
L 347.077717 316.569963 
L 348.077717 316.547313 
L 349.077717 316.527781 
L 350.077717 316.501387 
L 351.077717 316.451616 
L 352.077717 316.416543 
L 353.703533 316.380678 
" clip-path="url(#p7791cc3189)" style="fill: none; stroke: #1f77b4; stroke-opacity: 0.5; stroke-width: 0.2; stroke-linecap: square"/>
   <path d="M 290.077717 221.991597 
L 291.077717 222.023033 
L 292.077717 222.059973 
L 293.077717 222.15772 
L 294.077717 222.190242 
L 295.077717 222.263866 
L 296.077717 222.302432 
L 297.077717 222.337845 
L 298.077717 222.395485 
L 299.077717 222.465871 
L 300.077717 222.517835 
L 301.077717 222.576925 
L 302.077717 222.665246 
L 303.077717 222.71139 
L 304.077717 222.753801 
L 305.077717 222.784294 
L 306.077717 222.810339 
L 307.077717 222.831539 
L 308.077717 222.88584 
L 309.077717 222.913778 
L 310.077717 222.943502 
L 311.077717 222.968896 
L 312.077717 222.980097 
L 313.077717 222.990221 
L 314.077717 222.990016 
L 315.077717 222.980507 
L 316.077717 222.968853 
L 317.077717 222.937824 
L 318.077717 222.926656 
L 319.077717 222.896538 
L 320.077717 222.836761 
L 321.077717 222.79957 
L 322.077717 222.760474 
L 323.077717 222.718034 
L 324.077717 222.685269 
L 325.077717 222.617842 
L 326.077717 222.578717 
L 327.077717 222.536042 
L 328.077717 222.465461 
L 329.077717 222.429071 
L 330.077717 222.370667 
L 331.077717 222.259715 
L 332.077717 222.189056 
L 333.077717 222.076117 
L 334.077717 222.030344 
L 335.077717 221.969061 
L 336.077717 221.920561 
L 337.077717 221.839739 
L 338.077717 221.72122 
L 339.077717 221.651009 
L 340.077717 221.567747 
L 341.077717 221.534605 
L 342.077717 221.483367 
L 343.077717 221.414969 
L 344.077717 221.348754 
L 345.077717 221.271837 
L 346.077717 221.244521 
L 347.077717 221.218044 
L 348.077717 221.195393 
L 349.077717 221.175862 
L 350.077717 221.149468 
L 351.077717 221.099697 
L 352.077717 221.064624 
L 353.703533 221.028758 
" clip-path="url(#p7791cc3189)" style="fill: none; stroke: #1f77b4; stroke-opacity: 0.5; stroke-width: 0.2; stroke-linecap: square"/>
   <path d="M 290.077717 270.87394 
L 291.077717 270.905377 
L 292.077717 270.942317 
L 293.077717 271.040064 
L 294.077717 271.072585 
L 295.077717 271.14621 
L 296.077717 271.184775 
L 297.077717 271.220189 
L 298.077717 271.277829 
L 299.077717 271.348215 
L 300.077717 271.400179 
L 301.077717 271.459269 
L 302.077717 271.54759 
L 303.077717 271.593734 
L 304.077717 271.636145 
L 305.077717 271.666638 
L 306.077717 271.692683 
L 307.077717 271.713883 
L 308.077717 271.768184 
L 309.077717 271.796121 
L 310.077717 271.825845 
L 311.077717 271.85124 
L 312.077717 271.86244 
L 313.077717 271.872564 
L 314.077717 271.87236 
L 315.077717 271.86285 
L 316.077717 271.851197 
L 317.077717 271.820167 
L 318.077717 271.808999 
L 319.077717 271.778882 
L 320.077717 271.719105 
L 321.077717 271.681913 
L 322.077717 271.642817 
L 323.077717 271.600378 
L 324.077717 271.567613 
L 325.077717 271.500186 
L 326.077717 271.46106 
L 327.077717 271.418386 
L 328.077717 271.347805 
L 329.077717 271.311414 
L 330.077717 271.253011 
L 331.077717 271.142058 
L 332.077717 271.0714 
L 333.077717 270.95846 
L 334.077717 270.912687 
L 335.077717 270.851404 
L 336.077717 270.802905 
L 337.077717 270.722082 
L 338.077717 270.603563 
L 339.077717 270.533353 
L 340.077717 270.45009 
L 341.077717 270.416948 
L 342.077717 270.365711 
L 343.077717 270.297313 
L 344.077717 270.231097 
L 345.077717 270.15418 
L 346.077717 270.126865 
L 347.077717 270.100387 
L 348.077717 270.077737 
L 349.077717 270.058205 
L 350.077717 270.031811 
L 351.077717 269.98204 
L 352.077717 269.946967 
L 353.703533 269.911102 
" clip-path="url(#p7791cc3189)" style="fill: none; stroke: #1f77b4; stroke-opacity: 0.5; stroke-width: 0.2; stroke-linecap: square"/>
   <path d="M 290.077717 211.333113 
L 291.077717 211.36455 
L 292.077717 211.40149 
L 293.077717 211.499236 
L 294.077717 211.531758 
L 295.077717 211.605383 
L 296.077717 211.643948 
L 297.077717 211.679361 
L 298.077717 211.737001 
L 299.077717 211.807388 
L 300.077717 211.859352 
L 301.077717 211.918442 
L 302.077717 212.006763 
L 303.077717 212.052907 
L 304.077717 212.095318 
L 305.077717 212.12581 
L 306.077717 212.151855 
L 307.077717 212.173056 
L 308.077717 212.227357 
L 309.077717 212.255294 
L 310.077717 212.285018 
L 311.077717 212.310413 
L 312.077717 212.321613 
L 313.077717 212.331737 
L 314.077717 212.331533 
L 315.077717 212.322023 
L 316.077717 212.31037 
L 317.077717 212.27934 
L 318.077717 212.268172 
L 319.077717 212.238055 
L 320.077717 212.178278 
L 321.077717 212.141086 
L 322.077717 212.10199 
L 323.077717 212.059551 
L 324.077717 212.026785 
L 325.077717 211.959359 
L 326.077717 211.920233 
L 327.077717 211.877559 
L 328.077717 211.806978 
L 329.077717 211.770587 
L 330.077717 211.712184 
L 331.077717 211.601231 
L 332.077717 211.530573 
L 333.077717 211.417633 
L 334.077717 211.37186 
L 335.077717 211.310577 
L 336.077717 211.262078 
L 337.077717 211.181255 
L 338.077717 211.062736 
L 339.077717 210.992526 
L 340.077717 210.909263 
L 341.077717 210.876121 
L 342.077717 210.824884 
L 343.077717 210.756486 
L 344.077717 210.69027 
L 345.077717 210.613353 
L 346.077717 210.586038 
L 347.077717 210.55956 
L 348.077717 210.536909 
L 349.077717 210.517378 
L 350.077717 210.490984 
L 351.077717 210.441213 
L 352.077717 210.40614 
L 353.703533 210.370275 
" clip-path="url(#p7791cc3189)" style="fill: none; stroke: #1f77b4; stroke-opacity: 0.5; stroke-width: 0.2; stroke-linecap: square"/>
   <path d="M 290.077717 280.379818 
L 291.077717 280.411254 
L 292.077717 280.448195 
L 293.077717 280.545941 
L 294.077717 280.578463 
L 295.077717 280.652087 
L 296.077717 280.690653 
L 297.077717 280.726066 
L 298.077717 280.783706 
L 299.077717 280.854092 
L 300.077717 280.906056 
L 301.077717 280.965146 
L 302.077717 281.053467 
L 303.077717 281.099612 
L 304.077717 281.142022 
L 305.077717 281.172515 
L 306.077717 281.19856 
L 307.077717 281.21976 
L 308.077717 281.274061 
L 309.077717 281.301999 
L 310.077717 281.331723 
L 311.077717 281.357118 
L 312.077717 281.368318 
L 313.077717 281.378442 
L 314.077717 281.378238 
L 315.077717 281.368728 
L 316.077717 281.357074 
L 317.077717 281.326045 
L 318.077717 281.314877 
L 319.077717 281.284759 
L 320.077717 281.224983 
L 321.077717 281.187791 
L 322.077717 281.148695 
L 323.077717 281.106255 
L 324.077717 281.07349 
L 325.077717 281.006064 
L 326.077717 280.966938 
L 327.077717 280.924263 
L 328.077717 280.853683 
L 329.077717 280.817292 
L 330.077717 280.758889 
L 331.077717 280.647936 
L 332.077717 280.577278 
L 333.077717 280.464338 
L 334.077717 280.418565 
L 335.077717 280.357282 
L 336.077717 280.308782 
L 337.077717 280.22796 
L 338.077717 280.109441 
L 339.077717 280.03923 
L 340.077717 279.955968 
L 341.077717 279.922826 
L 342.077717 279.871589 
L 343.077717 279.80319 
L 344.077717 279.736975 
L 345.077717 279.660058 
L 346.077717 279.632742 
L 347.077717 279.606265 
L 348.077717 279.583614 
L 349.077717 279.564083 
L 350.077717 279.537689 
L 351.077717 279.487918 
L 352.077717 279.452845 
L 353.703533 279.416979 
" clip-path="url(#p7791cc3189)" style="fill: none; stroke: #1f77b4; stroke-opacity: 0.5; stroke-width: 0.2; stroke-linecap: square"/>
   <path d="M 290.077717 211.893632 
L 291.077717 211.925068 
L 292.077717 211.962008 
L 293.077717 212.059755 
L 294.077717 212.092277 
L 295.077717 212.165901 
L 296.077717 212.204467 
L 297.077717 212.23988 
L 298.077717 212.29752 
L 299.077717 212.367906 
L 300.077717 212.41987 
L 301.077717 212.47896 
L 302.077717 212.567281 
L 303.077717 212.613425 
L 304.077717 212.655836 
L 305.077717 212.686329 
L 306.077717 212.712374 
L 307.077717 212.733574 
L 308.077717 212.787875 
L 309.077717 212.815813 
L 310.077717 212.845537 
L 311.077717 212.870931 
L 312.077717 212.882132 
L 313.077717 212.892256 
L 314.077717 212.892051 
L 315.077717 212.882542 
L 316.077717 212.870888 
L 317.077717 212.839859 
L 318.077717 212.828691 
L 319.077717 212.798573 
L 320.077717 212.738796 
L 321.077717 212.701605 
L 322.077717 212.662509 
L 323.077717 212.620069 
L 324.077717 212.587304 
L 325.077717 212.519878 
L 326.077717 212.480752 
L 327.077717 212.438077 
L 328.077717 212.367496 
L 329.077717 212.331106 
L 330.077717 212.272702 
L 331.077717 212.16175 
L 332.077717 212.091092 
L 333.077717 211.978152 
L 334.077717 211.932379 
L 335.077717 211.871096 
L 336.077717 211.822596 
L 337.077717 211.741774 
L 338.077717 211.623255 
L 339.077717 211.553044 
L 340.077717 211.469782 
L 341.077717 211.43664 
L 342.077717 211.385402 
L 343.077717 211.317004 
L 344.077717 211.250789 
L 345.077717 211.173872 
L 346.077717 211.146556 
L 347.077717 211.120079 
L 348.077717 211.097428 
L 349.077717 211.077897 
L 350.077717 211.051503 
L 351.077717 211.001732 
L 352.077717 210.966659 
L 353.703533 210.930793 
" clip-path="url(#p7791cc3189)" style="fill: none; stroke: #1f77b4; stroke-opacity: 0.5; stroke-width: 0.2; stroke-linecap: square"/>
   <path d="M 290.077717 270.366621 
L 291.077717 270.398058 
L 292.077717 270.434998 
L 293.077717 270.532745 
L 294.077717 270.565266 
L 295.077717 270.638891 
L 296.077717 270.677456 
L 297.077717 270.71287 
L 298.077717 270.77051 
L 299.077717 270.840896 
L 300.077717 270.89286 
L 301.077717 270.95195 
L 302.077717 271.040271 
L 303.077717 271.086415 
L 304.077717 271.128826 
L 305.077717 271.159319 
L 306.077717 271.185364 
L 307.077717 271.206564 
L 308.077717 271.260865 
L 309.077717 271.288802 
L 310.077717 271.318526 
L 311.077717 271.343921 
L 312.077717 271.355121 
L 313.077717 271.365245 
L 314.077717 271.365041 
L 315.077717 271.355531 
L 316.077717 271.343878 
L 317.077717 271.312848 
L 318.077717 271.30168 
L 319.077717 271.271563 
L 320.077717 271.211786 
L 321.077717 271.174594 
L 322.077717 271.135498 
L 323.077717 271.093059 
L 324.077717 271.060294 
L 325.077717 270.992867 
L 326.077717 270.953741 
L 327.077717 270.911067 
L 328.077717 270.840486 
L 329.077717 270.804095 
L 330.077717 270.745692 
L 331.077717 270.634739 
L 332.077717 270.564081 
L 333.077717 270.451141 
L 334.077717 270.405368 
L 335.077717 270.344085 
L 336.077717 270.295586 
L 337.077717 270.214763 
L 338.077717 270.096244 
L 339.077717 270.026034 
L 340.077717 269.942771 
L 341.077717 269.909629 
L 342.077717 269.858392 
L 343.077717 269.789994 
L 344.077717 269.723778 
L 345.077717 269.646861 
L 346.077717 269.619546 
L 347.077717 269.593068 
L 348.077717 269.570418 
L 349.077717 269.550886 
L 350.077717 269.524492 
L 351.077717 269.474721 
L 352.077717 269.439648 
L 353.703533 269.403783 
" clip-path="url(#p7791cc3189)" style="fill: none; stroke: #1f77b4; stroke-opacity: 0.5; stroke-width: 0.2; stroke-linecap: square"/>
   <path d="M 290.077717 259.227071 
L 291.077717 259.258508 
L 292.077717 259.295448 
L 293.077717 259.393195 
L 294.077717 259.425716 
L 295.077717 259.499341 
L 296.077717 259.537907 
L 297.077717 259.57332 
L 298.077717 259.63096 
L 299.077717 259.701346 
L 300.077717 259.75331 
L 301.077717 259.8124 
L 302.077717 259.900721 
L 303.077717 259.946865 
L 304.077717 259.989276 
L 305.077717 260.019769 
L 306.077717 260.045814 
L 307.077717 260.067014 
L 308.077717 260.121315 
L 309.077717 260.149252 
L 310.077717 260.178976 
L 311.077717 260.204371 
L 312.077717 260.215572 
L 313.077717 260.225696 
L 314.077717 260.225491 
L 315.077717 260.215981 
L 316.077717 260.204328 
L 317.077717 260.173299 
L 318.077717 260.162131 
L 319.077717 260.132013 
L 320.077717 260.072236 
L 321.077717 260.035045 
L 322.077717 259.995949 
L 323.077717 259.953509 
L 324.077717 259.920744 
L 325.077717 259.853317 
L 326.077717 259.814191 
L 327.077717 259.771517 
L 328.077717 259.700936 
L 329.077717 259.664545 
L 330.077717 259.606142 
L 331.077717 259.49519 
L 332.077717 259.424531 
L 333.077717 259.311591 
L 334.077717 259.265819 
L 335.077717 259.204535 
L 336.077717 259.156036 
L 337.077717 259.075213 
L 338.077717 258.956694 
L 339.077717 258.886484 
L 340.077717 258.803221 
L 341.077717 258.77008 
L 342.077717 258.718842 
L 343.077717 258.650444 
L 344.077717 258.584228 
L 345.077717 258.507311 
L 346.077717 258.479996 
L 347.077717 258.453518 
L 348.077717 258.430868 
L 349.077717 258.411336 
L 350.077717 258.384943 
L 351.077717 258.335172 
L 352.077717 258.300099 
L 353.703533 258.264233 
" clip-path="url(#p7791cc3189)" style="fill: none; stroke: #1f77b4; stroke-opacity: 0.5; stroke-width: 0.2; stroke-linecap: square"/>
   <g id="patch_3">
    <path d="M 69.06392 22.318125 
L 69.06392 318.021875 
M 284.51553 22.318125 
L 284.51553 318.021875 
" clip-path="url(#p7791cc3189)" style="fill: none; stroke: #ffffff; stroke-width: 3; stroke-linejoin: miter"/>
    <path d="M 69.06392 22.318125 
L 69.06392 318.021875 
M 284.51553 22.318125 
L 284.51553 318.021875 
" clip-path="url(#p7791cc3189)" style="fill: none; stroke: #1f77b4; stroke-linejoin: miter"/>
    <g id="PolyCollection_1">
     <path d="M 284.51553 22.318125 
L 69.06392 22.318125 
L 69.06392 318.021875 
L 284.51553 318.021875 
L 284.51553 318.021875 
L 284.51553 22.318125 
z
" clip-path="url(#p7791cc3189)" style="fill: #1f77b4; fill-opacity: 0.5"/>
    </g>
    <g id="patch_4">
     <path d="M 359.26572 22.318125 
L 359.26572 318.021875 
M 574.71733 22.318125 
L 574.71733 318.021875 
" clip-path="url(#p7791cc3189)" style="fill: none; stroke: #ffffff; stroke-width: 3; stroke-linejoin: miter"/>
     <path d="M 359.26572 22.318125 
L 359.26572 318.021875 
M 574.71733 22.318125 
L 574.71733 318.021875 
" clip-path="url(#p7791cc3189)" style="fill: none; stroke: #ff7f0e; stroke-linejoin: miter"/>
     <g id="PolyCollection_2">
      <path d="M 574.71733 22.318125 
L 359.26572 22.318125 
L 359.26572 318.021875 
L 574.71733 318.021875 
L 574.71733 318.021875 
L 574.71733 22.318125 
z
" clip-path="url(#p7791cc3189)" style="fill: #ff7f0e; fill-opacity: 0.5"/>
     </g>
     <g id="matplotlib.axis_1">
      <g id="xtick_1">
       <g id="line2d_1"/>
       <g id="text_1">
        <!-- deme0 -->
        <g transform="translate(159.410819 329.120312) scale(0.1 -0.1)">
         <defs>
          <path id="DejaVuSans-64" d="M 2906 2969 
L 2906 4863 
L 3481 4863 
L 3481 0 
L 2906 0 
L 2906 525 
Q 2725 213 2448 61 
Q 2172 -91 1784 -91 
Q 1150 -91 751 415 
Q 353 922 353 1747 
Q 353 2572 751 3078 
Q 1150 3584 1784 3584 
Q 2172 3584 2448 3432 
Q 2725 3281 2906 2969 
z
M 947 1747 
Q 947 1113 1208 752 
Q 1469 391 1925 391 
Q 2381 391 2643 752 
Q 2906 1113 2906 1747 
Q 2906 2381 2643 2742 
Q 2381 3103 1925 3103 
Q 1469 3103 1208 2742 
Q 947 2381 947 1747 
z
" transform="scale(0.015625)"/>
          <path id="DejaVuSans-65" d="M 3597 1894 
L 3597 1613 
L 953 1613 
Q 991 1019 1311 708 
Q 1631 397 2203 397 
Q 2534 397 2845 478 
Q 3156 559 3463 722 
L 3463 178 
Q 3153 47 2828 -22 
Q 2503 -91 2169 -91 
Q 1331 -91 842 396 
Q 353 884 353 1716 
Q 353 2575 817 3079 
Q 1281 3584 2069 3584 
Q 2775 3584 3186 3129 
Q 3597 2675 3597 1894 
z
M 3022 2063 
Q 3016 2534 2758 2815 
Q 2500 3097 2075 3097 
Q 1594 3097 1305 2825 
Q 1016 2553 972 2059 
L 3022 2063 
z
" transform="scale(0.015625)"/>
          <path id="DejaVuSans-6d" d="M 3328 2828 
Q 3544 3216 3844 3400 
Q 4144 3584 4550 3584 
Q 5097 3584 5394 3201 
Q 5691 2819 5691 2113 
L 5691 0 
L 5113 0 
L 5113 2094 
Q 5113 2597 4934 2840 
Q 4756 3084 4391 3084 
Q 3944 3084 3684 2787 
Q 3425 2491 3425 1978 
L 3425 0 
L 2847 0 
L 2847 2094 
Q 2847 2600 2669 2842 
Q 2491 3084 2119 3084 
Q 1678 3084 1418 2786 
Q 1159 2488 1159 1978 
L 1159 0 
L 581 0 
L 581 3500 
L 1159 3500 
L 1159 2956 
Q 1356 3278 1631 3431 
Q 1906 3584 2284 3584 
Q 2666 3584 2933 3390 
Q 3200 3197 3328 2828 
z
" transform="scale(0.015625)"/>
          <path id="DejaVuSans-30" d="M 2034 4250 
Q 1547 4250 1301 3770 
Q 1056 3291 1056 2328 
Q 1056 1369 1301 889 
Q 1547 409 2034 409 
Q 2525 409 2770 889 
Q 3016 1369 3016 2328 
Q 3016 3291 2770 3770 
Q 2525 4250 2034 4250 
z
M 2034 4750 
Q 2819 4750 3233 4129 
Q 3647 3509 3647 2328 
Q 3647 1150 3233 529 
Q 2819 -91 2034 -91 
Q 1250 -91 836 529 
Q 422 1150 422 2328 
Q 422 3509 836 4129 
Q 1250 4750 2034 4750 
z
" transform="scale(0.015625)"/>
         </defs>
         <use xlink:href="#DejaVuSans-64"/>
         <use xlink:href="#DejaVuSans-65" x="63.476562"/>
         <use xlink:href="#DejaVuSans-6d" x="125"/>
         <use xlink:href="#DejaVuSans-65" x="222.412109"/>
         <use xlink:href="#DejaVuSans-30" x="283.935547"/>
        </g>
       </g>
      </g>
      <g id="xtick_2">
       <g id="line2d_2"/>
       <g id="text_2">
        <!-- deme1 -->
        <g transform="translate(449.612619 329.120312) scale(0.1 -0.1)">
         <defs>
          <path id="DejaVuSans-31" d="M 794 531 
L 1825 531 
L 1825 4091 
L 703 3866 
L 703 4441 
L 1819 4666 
L 2450 4666 
L 2450 531 
L 3481 531 
L 3481 0 
L 794 0 
L 794 531 
z
" transform="scale(0.015625)"/>
         </defs>
         <use xlink:href="#DejaVuSans-64"/>
         <use xlink:href="#DejaVuSans-65" x="63.476562"/>
         <use xlink:href="#DejaVuSans-6d" x="125"/>
         <use xlink:href="#DejaVuSans-65" x="222.412109"/>
         <use xlink:href="#DejaVuSans-31" x="283.935547"/>
        </g>
       </g>
      </g>
     </g>
     <g id="matplotlib.axis_2">
      <g id="ytick_1">
       <g id="line2d_3">
        <defs>
         <path id="mbf493b0623" d="M 0 0 
L -3.5 0 
" style="stroke: #000000; stroke-width: 0.8"/>
        </defs>
        <g>
         <use xlink:href="#mbf493b0623" x="43.78125" y="318.021875" style="stroke: #000000; stroke-width: 0.8"/>
        </g>
       </g>
       <g id="text_3">
        <!-- 0.0 -->
        <g transform="translate(20.878125 321.821094) scale(0.1 -0.1)">
         <defs>
          <path id="DejaVuSans-2e" d="M 684 794 
L 1344 794 
L 1344 0 
L 684 0 
L 684 794 
z
" transform="scale(0.015625)"/>
         </defs>
         <use xlink:href="#DejaVuSans-30"/>
         <use xlink:href="#DejaVuSans-2e" x="63.623047"/>
         <use xlink:href="#DejaVuSans-30" x="95.410156"/>
        </g>
       </g>
      </g>
      <g id="ytick_2">
       <g id="line2d_4">
        <g>
         <use xlink:href="#mbf493b0623" x="43.78125" y="258.881125" style="stroke: #000000; stroke-width: 0.8"/>
        </g>
       </g>
       <g id="text_4">
        <!-- 0.5 -->
        <g transform="translate(20.878125 262.680344) scale(0.1 -0.1)">
         <defs>
          <path id="DejaVuSans-35" d="M 691 4666 
L 3169 4666 
L 3169 4134 
L 1269 4134 
L 1269 2991 
Q 1406 3038 1543 3061 
Q 1681 3084 1819 3084 
Q 2600 3084 3056 2656 
Q 3513 2228 3513 1497 
Q 3513 744 3044 326 
Q 2575 -91 1722 -91 
Q 1428 -91 1123 -41 
Q 819 9 494 109 
L 494 744 
Q 775 591 1075 516 
Q 1375 441 1709 441 
Q 2250 441 2565 725 
Q 2881 1009 2881 1497 
Q 2881 1984 2565 2268 
Q 2250 2553 1709 2553 
Q 1456 2553 1204 2497 
Q 953 2441 691 2322 
L 691 4666 
z
" transform="scale(0.015625)"/>
         </defs>
         <use xlink:href="#DejaVuSans-30"/>
         <use xlink:href="#DejaVuSans-2e" x="63.623047"/>
         <use xlink:href="#DejaVuSans-35" x="95.410156"/>
        </g>
       </g>
      </g>
      <g id="ytick_3">
       <g id="line2d_5">
        <g>
         <use xlink:href="#mbf493b0623" x="43.78125" y="199.740375" style="stroke: #000000; stroke-width: 0.8"/>
        </g>
       </g>
       <g id="text_5">
        <!-- 1.0 -->
        <g transform="translate(20.878125 203.539594) scale(0.1 -0.1)">
         <use xlink:href="#DejaVuSans-31"/>
         <use xlink:href="#DejaVuSans-2e" x="63.623047"/>
         <use xlink:href="#DejaVuSans-30" x="95.410156"/>
        </g>
       </g>
      </g>
      <g id="ytick_4">
       <g id="line2d_6">
        <g>
         <use xlink:href="#mbf493b0623" x="43.78125" y="140.599625" style="stroke: #000000; stroke-width: 0.8"/>
        </g>
       </g>
       <g id="text_6">
        <!-- 1.5 -->
        <g transform="translate(20.878125 144.398844) scale(0.1 -0.1)">
         <use xlink:href="#DejaVuSans-31"/>
         <use xlink:href="#DejaVuSans-2e" x="63.623047"/>
         <use xlink:href="#DejaVuSans-35" x="95.410156"/>
        </g>
       </g>
      </g>
      <g id="ytick_5">
       <g id="line2d_7">
        <g>
         <use xlink:href="#mbf493b0623" x="43.78125" y="81.458875" style="stroke: #000000; stroke-width: 0.8"/>
        </g>
       </g>
       <g id="text_7">
        <!-- 2.0 -->
        <g transform="translate(20.878125 85.258094) scale(0.1 -0.1)">
         <defs>
          <path id="DejaVuSans-32" d="M 1228 531 
L 3431 531 
L 3431 0 
L 469 0 
L 469 531 
Q 828 903 1448 1529 
Q 2069 2156 2228 2338 
Q 2531 2678 2651 2914 
Q 2772 3150 2772 3378 
Q 2772 3750 2511 3984 
Q 2250 4219 1831 4219 
Q 1534 4219 1204 4116 
Q 875 4013 500 3803 
L 500 4441 
Q 881 4594 1212 4672 
Q 1544 4750 1819 4750 
Q 2544 4750 2975 4387 
Q 3406 4025 3406 3419 
Q 3406 3131 3298 2873 
Q 3191 2616 2906 2266 
Q 2828 2175 2409 1742 
Q 1991 1309 1228 531 
z
" transform="scale(0.015625)"/>
         </defs>
         <use xlink:href="#DejaVuSans-32"/>
         <use xlink:href="#DejaVuSans-2e" x="63.623047"/>
         <use xlink:href="#DejaVuSans-30" x="95.410156"/>
        </g>
       </g>
      </g>
      <g id="ytick_6">
       <g id="line2d_8">
        <g>
         <use xlink:href="#mbf493b0623" x="43.78125" y="22.318125" style="stroke: #000000; stroke-width: 0.8"/>
        </g>
       </g>
       <g id="text_8">
        <!-- 2.5 -->
        <g transform="translate(20.878125 26.117344) scale(0.1 -0.1)">
         <use xlink:href="#DejaVuSans-32"/>
         <use xlink:href="#DejaVuSans-2e" x="63.623047"/>
         <use xlink:href="#DejaVuSans-35" x="95.410156"/>
        </g>
       </g>
      </g>
      <g id="text_9">
       <!-- time ago (generations) -->
       <g transform="translate(14.798438 227.641094) rotate(-90) scale(0.1 -0.1)">
        <defs>
         <path id="DejaVuSans-74" d="M 1172 4494 
L 1172 3500 
L 2356 3500 
L 2356 3053 
L 1172 3053 
L 1172 1153 
Q 1172 725 1289 603 
Q 1406 481 1766 481 
L 2356 481 
L 2356 0 
L 1766 0 
Q 1100 0 847 248 
Q 594 497 594 1153 
L 594 3053 
L 172 3053 
L 172 3500 
L 594 3500 
L 594 4494 
L 1172 4494 
z
" transform="scale(0.015625)"/>
         <path id="DejaVuSans-69" d="M 603 3500 
L 1178 3500 
L 1178 0 
L 603 0 
L 603 3500 
z
M 603 4863 
L 1178 4863 
L 1178 4134 
L 603 4134 
L 603 4863 
z
" transform="scale(0.015625)"/>
         <path id="DejaVuSans-20" transform="scale(0.015625)"/>
         <path id="DejaVuSans-61" d="M 2194 1759 
Q 1497 1759 1228 1600 
Q 959 1441 959 1056 
Q 959 750 1161 570 
Q 1363 391 1709 391 
Q 2188 391 2477 730 
Q 2766 1069 2766 1631 
L 2766 1759 
L 2194 1759 
z
M 3341 1997 
L 3341 0 
L 2766 0 
L 2766 531 
Q 2569 213 2275 61 
Q 1981 -91 1556 -91 
Q 1019 -91 701 211 
Q 384 513 384 1019 
Q 384 1609 779 1909 
Q 1175 2209 1959 2209 
L 2766 2209 
L 2766 2266 
Q 2766 2663 2505 2880 
Q 2244 3097 1772 3097 
Q 1472 3097 1187 3025 
Q 903 2953 641 2809 
L 641 3341 
Q 956 3463 1253 3523 
Q 1550 3584 1831 3584 
Q 2591 3584 2966 3190 
Q 3341 2797 3341 1997 
z
" transform="scale(0.015625)"/>
         <path id="DejaVuSans-67" d="M 2906 1791 
Q 2906 2416 2648 2759 
Q 2391 3103 1925 3103 
Q 1463 3103 1205 2759 
Q 947 2416 947 1791 
Q 947 1169 1205 825 
Q 1463 481 1925 481 
Q 2391 481 2648 825 
Q 2906 1169 2906 1791 
z
M 3481 434 
Q 3481 -459 3084 -895 
Q 2688 -1331 1869 -1331 
Q 1566 -1331 1297 -1286 
Q 1028 -1241 775 -1147 
L 775 -588 
Q 1028 -725 1275 -790 
Q 1522 -856 1778 -856 
Q 2344 -856 2625 -561 
Q 2906 -266 2906 331 
L 2906 616 
Q 2728 306 2450 153 
Q 2172 0 1784 0 
Q 1141 0 747 490 
Q 353 981 353 1791 
Q 353 2603 747 3093 
Q 1141 3584 1784 3584 
Q 2172 3584 2450 3431 
Q 2728 3278 2906 2969 
L 2906 3500 
L 3481 3500 
L 3481 434 
z
" transform="scale(0.015625)"/>
         <path id="DejaVuSans-6f" d="M 1959 3097 
Q 1497 3097 1228 2736 
Q 959 2375 959 1747 
Q 959 1119 1226 758 
Q 1494 397 1959 397 
Q 2419 397 2687 759 
Q 2956 1122 2956 1747 
Q 2956 2369 2687 2733 
Q 2419 3097 1959 3097 
z
M 1959 3584 
Q 2709 3584 3137 3096 
Q 3566 2609 3566 1747 
Q 3566 888 3137 398 
Q 2709 -91 1959 -91 
Q 1206 -91 779 398 
Q 353 888 353 1747 
Q 353 2609 779 3096 
Q 1206 3584 1959 3584 
z
" transform="scale(0.015625)"/>
         <path id="DejaVuSans-28" d="M 1984 4856 
Q 1566 4138 1362 3434 
Q 1159 2731 1159 2009 
Q 1159 1288 1364 580 
Q 1569 -128 1984 -844 
L 1484 -844 
Q 1016 -109 783 600 
Q 550 1309 550 2009 
Q 550 2706 781 3412 
Q 1013 4119 1484 4856 
L 1984 4856 
z
" transform="scale(0.015625)"/>
         <path id="DejaVuSans-6e" d="M 3513 2113 
L 3513 0 
L 2938 0 
L 2938 2094 
Q 2938 2591 2744 2837 
Q 2550 3084 2163 3084 
Q 1697 3084 1428 2787 
Q 1159 2491 1159 1978 
L 1159 0 
L 581 0 
L 581 3500 
L 1159 3500 
L 1159 2956 
Q 1366 3272 1645 3428 
Q 1925 3584 2291 3584 
Q 2894 3584 3203 3211 
Q 3513 2838 3513 2113 
z
" transform="scale(0.015625)"/>
         <path id="DejaVuSans-72" d="M 2631 2963 
Q 2534 3019 2420 3045 
Q 2306 3072 2169 3072 
Q 1681 3072 1420 2755 
Q 1159 2438 1159 1844 
L 1159 0 
L 581 0 
L 581 3500 
L 1159 3500 
L 1159 2956 
Q 1341 3275 1631 3429 
Q 1922 3584 2338 3584 
Q 2397 3584 2469 3576 
Q 2541 3569 2628 3553 
L 2631 2963 
z
" transform="scale(0.015625)"/>
         <path id="DejaVuSans-73" d="M 2834 3397 
L 2834 2853 
Q 2591 2978 2328 3040 
Q 2066 3103 1784 3103 
Q 1356 3103 1142 2972 
Q 928 2841 928 2578 
Q 928 2378 1081 2264 
Q 1234 2150 1697 2047 
L 1894 2003 
Q 2506 1872 2764 1633 
Q 3022 1394 3022 966 
Q 3022 478 2636 193 
Q 2250 -91 1575 -91 
Q 1294 -91 989 -36 
Q 684 19 347 128 
L 347 722 
Q 666 556 975 473 
Q 1284 391 1588 391 
Q 1994 391 2212 530 
Q 2431 669 2431 922 
Q 2431 1156 2273 1281 
Q 2116 1406 1581 1522 
L 1381 1569 
Q 847 1681 609 1914 
Q 372 2147 372 2553 
Q 372 3047 722 3315 
Q 1072 3584 1716 3584 
Q 2034 3584 2315 3537 
Q 2597 3491 2834 3397 
z
" transform="scale(0.015625)"/>
         <path id="DejaVuSans-29" d="M 513 4856 
L 1013 4856 
Q 1481 4119 1714 3412 
Q 1947 2706 1947 2009 
Q 1947 1309 1714 600 
Q 1481 -109 1013 -844 
L 513 -844 
Q 928 -128 1133 580 
Q 1338 1288 1338 2009 
Q 1338 2731 1133 3434 
Q 928 4138 513 4856 
z
" transform="scale(0.015625)"/>
        </defs>
        <use xlink:href="#DejaVuSans-74"/>
        <use xlink:href="#DejaVuSans-69" x="39.208984"/>
        <use xlink:href="#DejaVuSans-6d" x="66.992188"/>
        <use xlink:href="#DejaVuSans-65" x="164.404297"/>
        <use xlink:href="#DejaVuSans-20" x="225.927734"/>
        <use xlink:href="#DejaVuSans-61" x="257.714844"/>
        <use xlink:href="#DejaVuSans-67" x="318.994141"/>
        <use xlink:href="#DejaVuSans-6f" x="382.470703"/>
        <use xlink:href="#DejaVuSans-20" x="443.652344"/>
        <use xlink:href="#DejaVuSans-28" x="475.439453"/>
        <use xlink:href="#DejaVuSans-67" x="514.453125"/>
        <use xlink:href="#DejaVuSans-65" x="577.929688"/>
        <use xlink:href="#DejaVuSans-6e" x="639.453125"/>
        <use xlink:href="#DejaVuSans-65" x="702.832031"/>
        <use xlink:href="#DejaVuSans-72" x="764.355469"/>
        <use xlink:href="#DejaVuSans-61" x="805.46875"/>
        <use xlink:href="#DejaVuSans-74" x="866.748047"/>
        <use xlink:href="#DejaVuSans-69" x="905.957031"/>
        <use xlink:href="#DejaVuSans-6f" x="933.740234"/>
        <use xlink:href="#DejaVuSans-6e" x="994.921875"/>
        <use xlink:href="#DejaVuSans-73" x="1058.300781"/>
        <use xlink:href="#DejaVuSans-29" x="1110.400391"/>
       </g>
      </g>
     </g>
     <path d="M 289.077717 199.244045 
L 291.077717 200.244045 
L 291.077717 198.244045 
z
" clip-path="url(#p7791cc3189)" style="fill: #ff7f0e; fill-opacity: 0.5; stroke: #ff7f0e; stroke-opacity: 0.5; stroke-linejoin: miter"/>
     <path d="M 289.077717 146.708764 
L 291.077717 147.708764 
L 291.077717 145.708764 
z
" clip-path="url(#p7791cc3189)" style="fill: #ff7f0e; fill-opacity: 0.5; stroke: #ff7f0e; stroke-opacity: 0.5; stroke-linejoin: miter"/>
     <path d="M 289.077717 123.734489 
L 291.077717 124.734489 
L 291.077717 122.734489 
z
" clip-path="url(#p7791cc3189)" style="fill: #ff7f0e; fill-opacity: 0.5; stroke: #ff7f0e; stroke-opacity: 0.5; stroke-linejoin: miter"/>
     <path d="M 289.077717 194.877165 
L 291.077717 195.877165 
L 291.077717 193.877165 
z
" clip-path="url(#p7791cc3189)" style="fill: #ff7f0e; fill-opacity: 0.5; stroke: #ff7f0e; stroke-opacity: 0.5; stroke-linejoin: miter"/>
     <path d="M 289.077717 111.640239 
L 291.077717 112.640239 
L 291.077717 110.640239 
z
" clip-path="url(#p7791cc3189)" style="fill: #ff7f0e; fill-opacity: 0.5; stroke: #ff7f0e; stroke-opacity: 0.5; stroke-linejoin: miter"/>
     <path d="M 289.077717 85.180908 
L 291.077717 86.180908 
L 291.077717 84.180908 
z
" clip-path="url(#p7791cc3189)" style="fill: #ff7f0e; fill-opacity: 0.5; stroke: #ff7f0e; stroke-opacity: 0.5; stroke-linejoin: miter"/>
     <path d="M 289.077717 85.531026 
L 291.077717 86.531026 
L 291.077717 84.531026 
z
" clip-path="url(#p7791cc3189)" style="fill: #ff7f0e; fill-opacity: 0.5; stroke: #ff7f0e; stroke-opacity: 0.5; stroke-linejoin: miter"/>
     <path d="M 289.077717 84.917821 
L 291.077717 85.917821 
L 291.077717 83.917821 
z
" clip-path="url(#p7791cc3189)" style="fill: #ff7f0e; fill-opacity: 0.5; stroke: #ff7f0e; stroke-opacity: 0.5; stroke-linejoin: miter"/>
     <path d="M 289.077717 99.333128 
L 291.077717 100.333128 
L 291.077717 98.333128 
z
" clip-path="url(#p7791cc3189)" style="fill: #ff7f0e; fill-opacity: 0.5; stroke: #ff7f0e; stroke-opacity: 0.5; stroke-linejoin: miter"/>
     <path d="M 289.077717 127.461886 
L 291.077717 128.461886 
L 291.077717 126.461886 
z
" clip-path="url(#p7791cc3189)" style="fill: #ff7f0e; fill-opacity: 0.5; stroke: #ff7f0e; stroke-opacity: 0.5; stroke-linejoin: miter"/>
     <path d="M 354.703533 89.387676 
L 352.703533 88.387676 
L 352.703533 90.387676 
z
" clip-path="url(#p7791cc3189)" style="fill: #1f77b4; fill-opacity: 0.5; stroke: #1f77b4; stroke-opacity: 0.5; stroke-linejoin: miter"/>
     <path d="M 354.703533 89.379816 
L 352.703533 88.379816 
L 352.703533 90.379816 
z
" clip-path="url(#p7791cc3189)" style="fill: #1f77b4; fill-opacity: 0.5; stroke: #1f77b4; stroke-opacity: 0.5; stroke-linejoin: miter"/>
     <path d="M 354.703533 192.458826 
L 352.703533 191.458826 
L 352.703533 193.458826 
z
" clip-path="url(#p7791cc3189)" style="fill: #1f77b4; fill-opacity: 0.5; stroke: #1f77b4; stroke-opacity: 0.5; stroke-linejoin: miter"/>
     <path d="M 354.703533 161.787533 
L 352.703533 160.787533 
L 352.703533 162.787533 
z
" clip-path="url(#p7791cc3189)" style="fill: #1f77b4; fill-opacity: 0.5; stroke: #1f77b4; stroke-opacity: 0.5; stroke-linejoin: miter"/>
     <path d="M 354.703533 91.805949 
L 352.703533 90.805949 
L 352.703533 92.805949 
z
" clip-path="url(#p7791cc3189)" style="fill: #1f77b4; fill-opacity: 0.5; stroke: #1f77b4; stroke-opacity: 0.5; stroke-linejoin: miter"/>
     <path d="M 354.703533 129.266453 
L 352.703533 128.266453 
L 352.703533 130.266453 
z
" clip-path="url(#p7791cc3189)" style="fill: #1f77b4; fill-opacity: 0.5; stroke: #1f77b4; stroke-opacity: 0.5; stroke-linejoin: miter"/>
     <path d="M 354.703533 178.001744 
L 352.703533 177.001744 
L 352.703533 179.001744 
z
" clip-path="url(#p7791cc3189)" style="fill: #1f77b4; fill-opacity: 0.5; stroke: #1f77b4; stroke-opacity: 0.5; stroke-linejoin: miter"/>
     <path d="M 354.703533 105.752363 
L 352.703533 104.752363 
L 352.703533 106.752363 
z
" clip-path="url(#p7791cc3189)" style="fill: #1f77b4; fill-opacity: 0.5; stroke: #1f77b4; stroke-opacity: 0.5; stroke-linejoin: miter"/>
     <path d="M 354.703533 133.560395 
L 352.703533 132.560395 
L 352.703533 134.560395 
z
" clip-path="url(#p7791cc3189)" style="fill: #1f77b4; fill-opacity: 0.5; stroke: #1f77b4; stroke-opacity: 0.5; stroke-linejoin: miter"/>
     <path d="M 354.703533 136.454657 
L 352.703533 135.454657 
L 352.703533 137.454657 
z
" clip-path="url(#p7791cc3189)" style="fill: #1f77b4; fill-opacity: 0.5; stroke: #1f77b4; stroke-opacity: 0.5; stroke-linejoin: miter"/>
     <path d="M 289.077717 240.811369 
L 291.077717 241.811369 
L 291.077717 239.811369 
z
" clip-path="url(#p7791cc3189)" style="fill: #ff7f0e; fill-opacity: 0.5; stroke: #ff7f0e; stroke-opacity: 0.5; stroke-linejoin: miter"/>
     <path d="M 289.077717 223.873237 
L 291.077717 224.873237 
L 291.077717 222.873237 
z
" clip-path="url(#p7791cc3189)" style="fill: #ff7f0e; fill-opacity: 0.5; stroke: #ff7f0e; stroke-opacity: 0.5; stroke-linejoin: miter"/>
     <path d="M 289.077717 207.796843 
L 291.077717 208.796843 
L 291.077717 206.796843 
z
" clip-path="url(#p7791cc3189)" style="fill: #ff7f0e; fill-opacity: 0.5; stroke: #ff7f0e; stroke-opacity: 0.5; stroke-linejoin: miter"/>
     <path d="M 289.077717 210.949442 
L 291.077717 211.949442 
L 291.077717 209.949442 
z
" clip-path="url(#p7791cc3189)" style="fill: #ff7f0e; fill-opacity: 0.5; stroke: #ff7f0e; stroke-opacity: 0.5; stroke-linejoin: miter"/>
     <path d="M 289.077717 235.229048 
L 291.077717 236.229048 
L 291.077717 234.229048 
z
" clip-path="url(#p7791cc3189)" style="fill: #ff7f0e; fill-opacity: 0.5; stroke: #ff7f0e; stroke-opacity: 0.5; stroke-linejoin: miter"/>
     <path d="M 289.077717 211.82366 
L 291.077717 212.82366 
L 291.077717 210.82366 
z
" clip-path="url(#p7791cc3189)" style="fill: #ff7f0e; fill-opacity: 0.5; stroke: #ff7f0e; stroke-opacity: 0.5; stroke-linejoin: miter"/>
     <path d="M 289.077717 250.38003 
L 291.077717 251.38003 
L 291.077717 249.38003 
z
" clip-path="url(#p7791cc3189)" style="fill: #ff7f0e; fill-opacity: 0.5; stroke: #ff7f0e; stroke-opacity: 0.5; stroke-linejoin: miter"/>
     <path d="M 289.077717 312.43945 
L 291.077717 313.43945 
L 291.077717 311.43945 
z
" clip-path="url(#p7791cc3189)" style="fill: #ff7f0e; fill-opacity: 0.5; stroke: #ff7f0e; stroke-opacity: 0.5; stroke-linejoin: miter"/>
     <path d="M 289.077717 201.095466 
L 291.077717 202.095466 
L 291.077717 200.095466 
z
" clip-path="url(#p7791cc3189)" style="fill: #ff7f0e; fill-opacity: 0.5; stroke: #ff7f0e; stroke-opacity: 0.5; stroke-linejoin: miter"/>
     <path d="M 289.077717 200.282067 
L 291.077717 201.282067 
L 291.077717 199.282067 
z
" clip-path="url(#p7791cc3189)" style="fill: #ff7f0e; fill-opacity: 0.5; stroke: #ff7f0e; stroke-opacity: 0.5; stroke-linejoin: miter"/>
     <path d="M 354.703533 267.420518 
L 352.703533 266.420518 
L 352.703533 268.420518 
z
" clip-path="url(#p7791cc3189)" style="fill: #1f77b4; fill-opacity: 0.5; stroke: #1f77b4; stroke-opacity: 0.5; stroke-linejoin: miter"/>
     <path d="M 354.703533 254.565224 
L 352.703533 253.565224 
L 352.703533 255.565224 
z
" clip-path="url(#p7791cc3189)" style="fill: #1f77b4; fill-opacity: 0.5; stroke: #1f77b4; stroke-opacity: 0.5; stroke-linejoin: miter"/>
     <path d="M 354.703533 317.343516 
L 352.703533 316.343516 
L 352.703533 318.343516 
z
" clip-path="url(#p7791cc3189)" style="fill: #1f77b4; fill-opacity: 0.5; stroke: #1f77b4; stroke-opacity: 0.5; stroke-linejoin: miter"/>
     <path d="M 354.703533 221.991597 
L 352.703533 220.991597 
L 352.703533 222.991597 
z
" clip-path="url(#p7791cc3189)" style="fill: #1f77b4; fill-opacity: 0.5; stroke: #1f77b4; stroke-opacity: 0.5; stroke-linejoin: miter"/>
     <path d="M 354.703533 270.87394 
L 352.703533 269.87394 
L 352.703533 271.87394 
z
" clip-path="url(#p7791cc3189)" style="fill: #1f77b4; fill-opacity: 0.5; stroke: #1f77b4; stroke-opacity: 0.5; stroke-linejoin: miter"/>
     <path d="M 354.703533 211.333113 
L 352.703533 210.333113 
L 352.703533 212.333113 
z
" clip-path="url(#p7791cc3189)" style="fill: #1f77b4; fill-opacity: 0.5; stroke: #1f77b4; stroke-opacity: 0.5; stroke-linejoin: miter"/>
     <path d="M 354.703533 280.379818 
L 352.703533 279.379818 
L 352.703533 281.379818 
z
" clip-path="url(#p7791cc3189)" style="fill: #1f77b4; fill-opacity: 0.5; stroke: #1f77b4; stroke-opacity: 0.5; stroke-linejoin: miter"/>
     <path d="M 354.703533 211.893632 
L 352.703533 210.893632 
L 352.703533 212.893632 
z
" clip-path="url(#p7791cc3189)" style="fill: #1f77b4; fill-opacity: 0.5; stroke: #1f77b4; stroke-opacity: 0.5; stroke-linejoin: miter"/>
     <path d="M 354.703533 270.366621 
L 352.703533 269.366621 
L 352.703533 271.366621 
z
" clip-path="url(#p7791cc3189)" style="fill: #1f77b4; fill-opacity: 0.5; stroke: #1f77b4; stroke-opacity: 0.5; stroke-linejoin: miter"/>
     <path d="M 354.703533 259.227071 
L 352.703533 258.227071 
L 352.703533 260.227071 
z
" clip-path="url(#p7791cc3189)" style="fill: #1f77b4; fill-opacity: 0.5; stroke: #1f77b4; stroke-opacity: 0.5; stroke-linejoin: miter"/>
     <g id="patch_5">
      <path d="M 43.78125 318.021875 
L 43.78125 22.318125 
" style="fill: none; stroke: #000000; stroke-width: 0.8; stroke-linejoin: miter; stroke-linecap: square"/>
     </g>
     <g id="text_10">
      <!-- defaults_symmetric_migration_changing_rate.yaml -->
      <g transform="translate(168.3525 16.318125) scale(0.12 -0.12)">
       <defs>
        <path id="DejaVuSans-66" d="M 2375 4863 
L 2375 4384 
L 1825 4384 
Q 1516 4384 1395 4259 
Q 1275 4134 1275 3809 
L 1275 3500 
L 2222 3500 
L 2222 3053 
L 1275 3053 
L 1275 0 
L 697 0 
L 697 3053 
L 147 3053 
L 147 3500 
L 697 3500 
L 697 3744 
Q 697 4328 969 4595 
Q 1241 4863 1831 4863 
L 2375 4863 
z
" transform="scale(0.015625)"/>
        <path id="DejaVuSans-75" d="M 544 1381 
L 544 3500 
L 1119 3500 
L 1119 1403 
Q 1119 906 1312 657 
Q 1506 409 1894 409 
Q 2359 409 2629 706 
Q 2900 1003 2900 1516 
L 2900 3500 
L 3475 3500 
L 3475 0 
L 2900 0 
L 2900 538 
Q 2691 219 2414 64 
Q 2138 -91 1772 -91 
Q 1169 -91 856 284 
Q 544 659 544 1381 
z
M 1991 3584 
L 1991 3584 
z
" transform="scale(0.015625)"/>
        <path id="DejaVuSans-6c" d="M 603 4863 
L 1178 4863 
L 1178 0 
L 603 0 
L 603 4863 
z
" transform="scale(0.015625)"/>
        <path id="DejaVuSans-5f" d="M 3263 -1063 
L 3263 -1509 
L -63 -1509 
L -63 -1063 
L 3263 -1063 
z
" transform="scale(0.015625)"/>
        <path id="DejaVuSans-79" d="M 2059 -325 
Q 1816 -950 1584 -1140 
Q 1353 -1331 966 -1331 
L 506 -1331 
L 506 -850 
L 844 -850 
Q 1081 -850 1212 -737 
Q 1344 -625 1503 -206 
L 1606 56 
L 191 3500 
L 800 3500 
L 1894 763 
L 2988 3500 
L 3597 3500 
L 2059 -325 
z
" transform="scale(0.015625)"/>
        <path id="DejaVuSans-63" d="M 3122 3366 
L 3122 2828 
Q 2878 2963 2633 3030 
Q 2388 3097 2138 3097 
Q 1578 3097 1268 2742 
Q 959 2388 959 1747 
Q 959 1106 1268 751 
Q 1578 397 2138 397 
Q 2388 397 2633 464 
Q 2878 531 3122 666 
L 3122 134 
Q 2881 22 2623 -34 
Q 2366 -91 2075 -91 
Q 1284 -91 818 406 
Q 353 903 353 1747 
Q 353 2603 823 3093 
Q 1294 3584 2113 3584 
Q 2378 3584 2631 3529 
Q 2884 3475 3122 3366 
z
" transform="scale(0.015625)"/>
        <path id="DejaVuSans-68" d="M 3513 2113 
L 3513 0 
L 2938 0 
L 2938 2094 
Q 2938 2591 2744 2837 
Q 2550 3084 2163 3084 
Q 1697 3084 1428 2787 
Q 1159 2491 1159 1978 
L 1159 0 
L 581 0 
L 581 4863 
L 1159 4863 
L 1159 2956 
Q 1366 3272 1645 3428 
Q 1925 3584 2291 3584 
Q 2894 3584 3203 3211 
Q 3513 2838 3513 2113 
z
" transform="scale(0.015625)"/>
       </defs>
       <use xlink:href="#DejaVuSans-64"/>
       <use xlink:href="#DejaVuSans-65" x="63.476562"/>
       <use xlink:href="#DejaVuSans-66" x="125"/>
       <use xlink:href="#DejaVuSans-61" x="160.205078"/>
       <use xlink:href="#DejaVuSans-75" x="221.484375"/>
       <use xlink:href="#DejaVuSans-6c" x="284.863281"/>
       <use xlink:href="#DejaVuSans-74" x="312.646484"/>
       <use xlink:href="#DejaVuSans-73" x="351.855469"/>
       <use xlink:href="#DejaVuSans-5f" x="403.955078"/>
       <use xlink:href="#DejaVuSans-73" x="453.955078"/>
       <use xlink:href="#DejaVuSans-79" x="506.054688"/>
       <use xlink:href="#DejaVuSans-6d" x="565.234375"/>
       <use xlink:href="#DejaVuSans-6d" x="662.646484"/>
       <use xlink:href="#DejaVuSans-65" x="760.058594"/>
       <use xlink:href="#DejaVuSans-74" x="821.582031"/>
       <use xlink:href="#DejaVuSans-72" x="860.791016"/>
       <use xlink:href="#DejaVuSans-69" x="901.904297"/>
       <use xlink:href="#DejaVuSans-63" x="929.6875"/>
       <use xlink:href="#DejaVuSans-5f" x="984.667969"/>
       <use xlink:href="#DejaVuSans-6d" x="1034.667969"/>
       <use xlink:href="#DejaVuSans-69" x="1132.080078"/>
       <use xlink:href="#DejaVuSans-67" x="1159.863281"/>
       <use xlink:href="#DejaVuSans-72" x="1223.339844"/>
       <use xlink:href="#DejaVuSans-61" x="1264.453125"/>
       <use xlink:href="#DejaVuSans-74" x="1325.732422"/>
       <use xlink:href="#DejaVuSans-69" x="1364.941406"/>
       <use xlink:href="#DejaVuSans-6f" x="1392.724609"/>
       <use xlink:href="#DejaVuSans-6e" x="1453.90625"/>
       <use xlink:href="#DejaVuSans-5f" x="1517.285156"/>
       <use xlink:href="#DejaVuSans-63" x="1567.285156"/>
       <use xlink:href="#DejaVuSans-68" x="1622.265625"/>
       <use xlink:href="#DejaVuSans-61" x="1685.644531"/>
       <use xlink:href="#DejaVuSans-6e" x="1746.923828"/>
       <use xlink:href="#DejaVuSans-67" x="1810.302734"/>
       <use xlink:href="#DejaVuSans-69" x="1873.779297"/>
       <use xlink:href="#DejaVuSans-6e" x="1901.5625"/>
       <use xlink:href="#DejaVuSans-67" x="1964.941406"/>
       <use xlink:href="#DejaVuSans-5f" x="2028.417969"/>
       <use xlink:href="#DejaVuSans-72" x="2078.417969"/>
       <use xlink:href="#DejaVuSans-61" x="2119.53125"/>
       <use xlink:href="#DejaVuSans-74" x="2180.810547"/>
       <use xlink:href="#DejaVuSans-65" x="2220.019531"/>
       <use xlink:href="#DejaVuSans-2e" x="2281.542969"/>
       <use xlink:href="#DejaVuSans-79" x="2313.330078"/>
       <use xlink:href="#DejaVuSans-61" x="2372.509766"/>
       <use xlink:href="#DejaVuSans-6d" x="2433.789062"/>
       <use xlink:href="#DejaVuSans-6c" x="2531.201172"/>
      </g>
     </g>
    </g>
   </g>
   <defs>
    <clipPath id="p7791cc3189">
     <rect x="43.78125" y="22.318125" width="556.21875" height="295.70375"/>
    </clipPath>
   </defs>
  </g>
 </g>
</svg>