<?xml version="1.0" encoding="utf-8" standalone="no"?>
<!DOCTYPE svg PUBLIC "-//W3C//DTD SVG 1.1//EN"
  "http://www.w3.org/Graphics/SVG/1.1/DTD/svg11.dtd">
<svg xmlns:xlink="http://www.w3.org/1999/xlink" width="607.2pt" height="338.4pt" viewBox="0 0 607.2 338.4" xmlns="http://www.w3.org/2000/svg" version="1.1">
 <metadata>
  <rdf:RDF xmlns:dc="http://purl.org/dc/elements/1.1/" xmlns:cc="http://creativecommons.org/ns#" xmlns:rdf="http://www.w3.org/1999/02/22-rdf-syntax-ns#">
   <cc:Work>
    <dc:type rdf:resource="http://purl.org/dc/dcmitype/StillImage"/>
    <dc:date>2024-01-29T08:40:36.695867</dc:date>
    <dc:format>image/svg+xml</dc:format>
    <dc:creator>
     <cc:Agent>
      <dc:title>Matplotlib v3.7.2, https://matplotlib.org/</dc:title>
     </cc:Agent>
    </dc:creator>
   </cc:Work>
  </rdf:RDF>
 </metadata>
 <defs>
  <style type="text/css">*{stroke-linejoin: round; stroke-linecap: butt}</style>
 </defs>
 <g id="figure_1">
  <g id="patch_1">
   <path d="M 0 338.4 
L 607.2 338.4 
L 607.2 0 
L 0 0 
z
" style="fill: #ffffff"/>
  </g>
  <g id="axes_1">
   <g id="patch_2">
    <path d="M 43.78125 318.021875 
L 600 318.021875 
L 600 22.318125 
L 43.78125 22.318125 
z
" style="fill: #ffffff"/>
   </g>
   <path d="M 290.098299 141.913705 
L 291.098299 141.945142 
L 292.098299 141.982082 
L 293.098299 142.079829 
L 294.098299 142.11235 
L 295.098299 142.185975 
L 296.098299 142.22454 
L 297.098299 142.259954 
L 298.098299 142.317594 
L 299.098299 142.38798 
L 300.098299 142.439944 
L 301.098299 142.499034 
L 302.098299 142.587355 
L 303.098299 142.633499 
L 304.098299 142.67591 
L 305.098299 142.706403 
L 306.098299 142.732448 
L 307.098299 142.753648 
L 308.098299 142.807949 
L 309.098299 142.835886 
L 310.098299 142.86561 
L 311.098299 142.891005 
L 312.098299 142.902205 
L 313.098299 142.912329 
L 314.098299 142.912125 
L 315.098299 142.902615 
L 316.098299 142.890962 
L 317.098299 142.859932 
L 318.098299 142.848764 
L 319.098299 142.818647 
L 320.098299 142.75887 
L 321.098299 142.721678 
L 322.098299 142.682582 
L 323.098299 142.640143 
L 324.098299 142.607378 
L 325.098299 142.539951 
L 326.098299 142.500825 
L 327.098299 142.458151 
L 328.098299 142.38757 
L 329.098299 142.351179 
L 330.098299 142.292776 
L 331.098299 142.181824 
L 332.098299 142.111165 
L 333.098299 141.998225 
L 334.098299 141.952452 
L 335.098299 141.891169 
L 336.098299 141.84267 
L 337.098299 141.761847 
L 338.098299 141.643328 
L 339.098299 141.573118 
L 340.098299 141.489855 
L 341.098299 141.456713 
L 342.098299 141.405476 
L 343.098299 141.337078 
L 344.098299 141.270862 
L 345.098299 141.193945 
L 346.098299 141.16663 
L 347.098299 141.140152 
L 348.098299 141.117502 
L 349.098299 141.09797 
L 350.098299 141.071576 
L 351.098299 141.021806 
L 352.098299 140.986732 
L 353.682951 140.950867 
" clip-path="url(#p74594a393c)" style="fill: none; stroke: #1f77b4; stroke-opacity: 0.5; stroke-width: 0.2; stroke-linecap: square"/>
   <path d="M 290.098299 96.553551 
L 291.098299 96.584988 
L 292.098299 96.621928 
L 293.098299 96.719675 
L 294.098299 96.752196 
L 295.098299 96.825821 
L 296.098299 96.864387 
L 297.098299 96.8998 
L 298.098299 96.95744 
L 299.098299 97.027826 
L 300.098299 97.07979 
L 301.098299 97.13888 
L 302.098299 97.227201 
L 303.098299 97.273345 
L 304.098299 97.315756 
L 305.098299 97.346249 
L 306.098299 97.372294 
L 307.098299 97.393494 
L 308.098299 97.447795 
L 309.098299 97.475732 
L 310.098299 97.505456 
L 311.098299 97.530851 
L 312.098299 97.542052 
L 313.098299 97.552176 
L 314.098299 97.551971 
L 315.098299 97.542461 
L 316.098299 97.530808 
L 317.098299 97.499778 
L 318.098299 97.488611 
L 319.098299 97.458493 
L 320.098299 97.398716 
L 321.098299 97.361525 
L 322.098299 97.322428 
L 323.098299 97.279989 
L 324.098299 97.247224 
L 325.098299 97.179797 
L 326.098299 97.140671 
L 327.098299 97.097997 
L 328.098299 97.027416 
L 329.098299 96.991025 
L 330.098299 96.932622 
L 331.098299 96.82167 
L 332.098299 96.751011 
L 333.098299 96.638071 
L 334.098299 96.592299 
L 335.098299 96.531015 
L 336.098299 96.482516 
L 337.098299 96.401693 
L 338.098299 96.283174 
L 339.098299 96.212964 
L 340.098299 96.129701 
L 341.098299 96.096559 
L 342.098299 96.045322 
L 343.098299 95.976924 
L 344.098299 95.910708 
L 345.098299 95.833791 
L 346.098299 95.806476 
L 347.098299 95.779998 
L 348.098299 95.757348 
L 349.098299 95.737816 
L 350.098299 95.711422 
L 351.098299 95.661652 
L 352.098299 95.626578 
L 353.682951 95.590713 
" clip-path="url(#p74594a393c)" style="fill: none; stroke: #1f77b4; stroke-opacity: 0.5; stroke-width: 0.2; stroke-linecap: square"/>
   <path d="M 290.098299 84.542205 
L 291.098299 84.573641 
L 292.098299 84.610581 
L 293.098299 84.708328 
L 294.098299 84.74085 
L 295.098299 84.814474 
L 296.098299 84.85304 
L 297.098299 84.888453 
L 298.098299 84.946093 
L 299.098299 85.016479 
L 300.098299 85.068443 
L 301.098299 85.127533 
L 302.098299 85.215854 
L 303.098299 85.261998 
L 304.098299 85.304409 
L 305.098299 85.334902 
L 306.098299 85.360947 
L 307.098299 85.382147 
L 308.098299 85.436448 
L 309.098299 85.464386 
L 310.098299 85.49411 
L 311.098299 85.519504 
L 312.098299 85.530705 
L 313.098299 85.540829 
L 314.098299 85.540624 
L 315.098299 85.531115 
L 316.098299 85.519461 
L 317.098299 85.488432 
L 318.098299 85.477264 
L 319.098299 85.447146 
L 320.098299 85.387369 
L 321.098299 85.350178 
L 322.098299 85.311082 
L 323.098299 85.268642 
L 324.098299 85.235877 
L 325.098299 85.16845 
L 326.098299 85.129325 
L 327.098299 85.08665 
L 328.098299 85.016069 
L 329.098299 84.979679 
L 330.098299 84.921275 
L 331.098299 84.810323 
L 332.098299 84.739665 
L 333.098299 84.626725 
L 334.098299 84.580952 
L 335.098299 84.519669 
L 336.098299 84.471169 
L 337.098299 84.390347 
L 338.098299 84.271828 
L 339.098299 84.201617 
L 340.098299 84.118355 
L 341.098299 84.085213 
L 342.098299 84.033975 
L 343.098299 83.965577 
L 344.098299 83.899362 
L 345.098299 83.822445 
L 346.098299 83.795129 
L 347.098299 83.768652 
L 348.098299 83.746001 
L 349.098299 83.72647 
L 350.098299 83.700076 
L 351.098299 83.650305 
L 352.098299 83.615232 
L 353.682951 83.579366 
" clip-path="url(#p74594a393c)" style="fill: none; stroke: #1f77b4; stroke-opacity: 0.5; stroke-width: 0.2; stroke-linecap: square"/>
   <path d="M 290.098299 135.056179 
L 291.098299 135.087616 
L 292.098299 135.124556 
L 293.098299 135.222303 
L 294.098299 135.254824 
L 295.098299 135.328449 
L 296.098299 135.367015 
L 297.098299 135.402428 
L 298.098299 135.460068 
L 299.098299 135.530454 
L 300.098299 135.582418 
L 301.098299 135.641508 
L 302.098299 135.729829 
L 303.098299 135.775973 
L 304.098299 135.818384 
L 305.098299 135.848877 
L 306.098299 135.874922 
L 307.098299 135.896122 
L 308.098299 135.950423 
L 309.098299 135.97836 
L 310.098299 136.008084 
L 311.098299 136.033479 
L 312.098299 136.04468 
L 313.098299 136.054804 
L 314.098299 136.054599 
L 315.098299 136.045089 
L 316.098299 136.033436 
L 317.098299 136.002406 
L 318.098299 135.991239 
L 319.098299 135.961121 
L 320.098299 135.901344 
L 321.098299 135.864153 
L 322.098299 135.825056 
L 323.098299 135.782617 
L 324.098299 135.749852 
L 325.098299 135.682425 
L 326.098299 135.643299 
L 327.098299 135.600625 
L 328.098299 135.530044 
L 329.098299 135.493653 
L 330.098299 135.43525 
L 331.098299 135.324298 
L 332.098299 135.253639 
L 333.098299 135.140699 
L 334.098299 135.094927 
L 335.098299 135.033643 
L 336.098299 134.985144 
L 337.098299 134.904321 
L 338.098299 134.785802 
L 339.098299 134.715592 
L 340.098299 134.632329 
L 341.098299 134.599188 
L 342.098299 134.54795 
L 343.098299 134.479552 
L 344.098299 134.413336 
L 345.098299 134.336419 
L 346.098299 134.309104 
L 347.098299 134.282626 
L 348.098299 134.259976 
L 349.098299 134.240444 
L 350.098299 134.21405 
L 351.098299 134.16428 
L 352.098299 134.129206 
L 353.682951 134.093341 
" clip-path="url(#p74594a393c)" style="fill: none; stroke: #1f77b4; stroke-opacity: 0.5; stroke-width: 0.2; stroke-linecap: square"/>
   <path d="M 290.098299 128.468744 
L 291.098299 128.500181 
L 292.098299 128.537121 
L 293.098299 128.634867 
L 294.098299 128.667389 
L 295.098299 128.741014 
L 296.098299 128.779579 
L 297.098299 128.814993 
L 298.098299 128.872632 
L 299.098299 128.943019 
L 300.098299 128.994983 
L 301.098299 129.054073 
L 302.098299 129.142394 
L 303.098299 129.188538 
L 304.098299 129.230949 
L 305.098299 129.261441 
L 306.098299 129.287486 
L 307.098299 129.308687 
L 308.098299 129.362988 
L 309.098299 129.390925 
L 310.098299 129.420649 
L 311.098299 129.446044 
L 312.098299 129.457244 
L 313.098299 129.467368 
L 314.098299 129.467164 
L 315.098299 129.457654 
L 316.098299 129.446001 
L 317.098299 129.414971 
L 318.098299 129.403803 
L 319.098299 129.373686 
L 320.098299 129.313909 
L 321.098299 129.276717 
L 322.098299 129.237621 
L 323.098299 129.195182 
L 324.098299 129.162417 
L 325.098299 129.09499 
L 326.098299 129.055864 
L 327.098299 129.01319 
L 328.098299 128.942609 
L 329.098299 128.906218 
L 330.098299 128.847815 
L 331.098299 128.736862 
L 332.098299 128.666204 
L 333.098299 128.553264 
L 334.098299 128.507491 
L 335.098299 128.446208 
L 336.098299 128.397709 
L 337.098299 128.316886 
L 338.098299 128.198367 
L 339.098299 128.128157 
L 340.098299 128.044894 
L 341.098299 128.011752 
L 342.098299 127.960515 
L 343.098299 127.892117 
L 344.098299 127.825901 
L 345.098299 127.748984 
L 346.098299 127.721669 
L 347.098299 127.695191 
L 348.098299 127.67254 
L 349.098299 127.653009 
L 350.098299 127.626615 
L 351.098299 127.576844 
L 352.098299 127.541771 
L 353.682951 127.505906 
" clip-path="url(#p74594a393c)" style="fill: none; stroke: #1f77b4; stroke-opacity: 0.5; stroke-width: 0.2; stroke-linecap: square"/>
   <path d="M 290.098299 196.927091 
L 291.098299 196.958528 
L 292.098299 196.995468 
L 293.098299 197.093215 
L 294.098299 197.125736 
L 295.098299 197.199361 
L 296.098299 197.237926 
L 297.098299 197.27334 
L 298.098299 197.330979 
L 299.098299 197.401366 
L 300.098299 197.45333 
L 301.098299 197.51242 
L 302.098299 197.600741 
L 303.098299 197.646885 
L 304.098299 197.689296 
L 305.098299 197.719789 
L 306.098299 197.745833 
L 307.098299 197.767034 
L 308.098299 197.821335 
L 309.098299 197.849272 
L 310.098299 197.878996 
L 311.098299 197.904391 
L 312.098299 197.915591 
L 313.098299 197.925715 
L 314.098299 197.925511 
L 315.098299 197.916001 
L 316.098299 197.904348 
L 317.098299 197.873318 
L 318.098299 197.86215 
L 319.098299 197.832033 
L 320.098299 197.772256 
L 321.098299 197.735064 
L 322.098299 197.695968 
L 323.098299 197.653529 
L 324.098299 197.620764 
L 325.098299 197.553337 
L 326.098299 197.514211 
L 327.098299 197.471537 
L 328.098299 197.400956 
L 329.098299 197.364565 
L 330.098299 197.306162 
L 331.098299 197.195209 
L 332.098299 197.124551 
L 333.098299 197.011611 
L 334.098299 196.965838 
L 335.098299 196.904555 
L 336.098299 196.856056 
L 337.098299 196.775233 
L 338.098299 196.656714 
L 339.098299 196.586504 
L 340.098299 196.503241 
L 341.098299 196.470099 
L 342.098299 196.418862 
L 343.098299 196.350464 
L 344.098299 196.284248 
L 345.098299 196.207331 
L 346.098299 196.180016 
L 347.098299 196.153538 
L 348.098299 196.130888 
L 349.098299 196.111356 
L 350.098299 196.084962 
L 351.098299 196.035191 
L 352.098299 196.000118 
L 353.682951 195.964253 
" clip-path="url(#p74594a393c)" style="fill: none; stroke: #1f77b4; stroke-opacity: 0.5; stroke-width: 0.2; stroke-linecap: square"/>
   <path d="M 290.098299 199.630978 
L 291.098299 199.662415 
L 292.098299 199.699355 
L 293.098299 199.797101 
L 294.098299 199.829623 
L 295.098299 199.903248 
L 296.098299 199.941813 
L 297.098299 199.977227 
L 298.098299 200.034866 
L 299.098299 200.105253 
L 300.098299 200.157217 
L 301.098299 200.216307 
L 302.098299 200.304628 
L 303.098299 200.350772 
L 304.098299 200.393183 
L 305.098299 200.423676 
L 306.098299 200.44972 
L 307.098299 200.470921 
L 308.098299 200.525222 
L 309.098299 200.553159 
L 310.098299 200.582883 
L 311.098299 200.608278 
L 312.098299 200.619478 
L 313.098299 200.629602 
L 314.098299 200.629398 
L 315.098299 200.619888 
L 316.098299 200.608235 
L 317.098299 200.577205 
L 318.098299 200.566037 
L 319.098299 200.53592 
L 320.098299 200.476143 
L 321.098299 200.438951 
L 322.098299 200.399855 
L 323.098299 200.357416 
L 324.098299 200.324651 
L 325.098299 200.257224 
L 326.098299 200.218098 
L 327.098299 200.175424 
L 328.098299 200.104843 
L 329.098299 200.068452 
L 330.098299 200.010049 
L 331.098299 199.899096 
L 332.098299 199.828438 
L 333.098299 199.715498 
L 334.098299 199.669725 
L 335.098299 199.608442 
L 336.098299 199.559943 
L 337.098299 199.47912 
L 338.098299 199.360601 
L 339.098299 199.290391 
L 340.098299 199.207128 
L 341.098299 199.173986 
L 342.098299 199.122749 
L 343.098299 199.054351 
L 344.098299 198.988135 
L 345.098299 198.911218 
L 346.098299 198.883903 
L 347.098299 198.857425 
L 348.098299 198.834775 
L 349.098299 198.815243 
L 350.098299 198.788849 
L 351.098299 198.739078 
L 352.098299 198.704005 
L 353.682951 198.66814 
" clip-path="url(#p74594a393c)" style="fill: none; stroke: #1f77b4; stroke-opacity: 0.5; stroke-width: 0.2; stroke-linecap: square"/>
   <path d="M 290.098299 91.48762 
L 291.098299 91.519057 
L 292.098299 91.555997 
L 293.098299 91.653743 
L 294.098299 91.686265 
L 295.098299 91.75989 
L 296.098299 91.798455 
L 297.098299 91.833868 
L 298.098299 91.891508 
L 299.098299 91.961895 
L 300.098299 92.013859 
L 301.098299 92.072949 
L 302.098299 92.16127 
L 303.098299 92.207414 
L 304.098299 92.249825 
L 305.098299 92.280317 
L 306.098299 92.306362 
L 307.098299 92.327562 
L 308.098299 92.381864 
L 309.098299 92.409801 
L 310.098299 92.439525 
L 311.098299 92.46492 
L 312.098299 92.47612 
L 313.098299 92.486244 
L 314.098299 92.48604 
L 315.098299 92.47653 
L 316.098299 92.464877 
L 317.098299 92.433847 
L 318.098299 92.422679 
L 319.098299 92.392562 
L 320.098299 92.332785 
L 321.098299 92.295593 
L 322.098299 92.256497 
L 323.098299 92.214058 
L 324.098299 92.181292 
L 325.098299 92.113866 
L 326.098299 92.07474 
L 327.098299 92.032066 
L 328.098299 91.961485 
L 329.098299 91.925094 
L 330.098299 91.866691 
L 331.098299 91.755738 
L 332.098299 91.68508 
L 333.098299 91.57214 
L 334.098299 91.526367 
L 335.098299 91.465084 
L 336.098299 91.416585 
L 337.098299 91.335762 
L 338.098299 91.217243 
L 339.098299 91.147033 
L 340.098299 91.06377 
L 341.098299 91.030628 
L 342.098299 90.979391 
L 343.098299 90.910993 
L 344.098299 90.844777 
L 345.098299 90.76786 
L 346.098299 90.740545 
L 347.098299 90.714067 
L 348.098299 90.691416 
L 349.098299 90.671885 
L 350.098299 90.645491 
L 351.098299 90.59572 
L 352.098299 90.560647 
L 353.682951 90.524782 
" clip-path="url(#p74594a393c)" style="fill: none; stroke: #1f77b4; stroke-opacity: 0.5; stroke-width: 0.2; stroke-linecap: square"/>
   <path d="M 290.098299 90.623925 
L 291.098299 90.655361 
L 292.098299 90.692301 
L 293.098299 90.790048 
L 294.098299 90.82257 
L 295.098299 90.896194 
L 296.098299 90.93476 
L 297.098299 90.970173 
L 298.098299 91.027813 
L 299.098299 91.098199 
L 300.098299 91.150163 
L 301.098299 91.209253 
L 302.098299 91.297574 
L 303.098299 91.343718 
L 304.098299 91.386129 
L 305.098299 91.416622 
L 306.098299 91.442667 
L 307.098299 91.463867 
L 308.098299 91.518168 
L 309.098299 91.546106 
L 310.098299 91.57583 
L 311.098299 91.601224 
L 312.098299 91.612425 
L 313.098299 91.622549 
L 314.098299 91.622344 
L 315.098299 91.612835 
L 316.098299 91.601181 
L 317.098299 91.570152 
L 318.098299 91.558984 
L 319.098299 91.528866 
L 320.098299 91.469089 
L 321.098299 91.431898 
L 322.098299 91.392802 
L 323.098299 91.350362 
L 324.098299 91.317597 
L 325.098299 91.250171 
L 326.098299 91.211045 
L 327.098299 91.16837 
L 328.098299 91.097789 
L 329.098299 91.061399 
L 330.098299 91.002995 
L 331.098299 90.892043 
L 332.098299 90.821385 
L 333.098299 90.708445 
L 334.098299 90.662672 
L 335.098299 90.601389 
L 336.098299 90.552889 
L 337.098299 90.472067 
L 338.098299 90.353548 
L 339.098299 90.283337 
L 340.098299 90.200075 
L 341.098299 90.166933 
L 342.098299 90.115695 
L 343.098299 90.047297 
L 344.098299 89.981082 
L 345.098299 89.904165 
L 346.098299 89.876849 
L 347.098299 89.850372 
L 348.098299 89.827721 
L 349.098299 89.80819 
L 350.098299 89.781796 
L 351.098299 89.732025 
L 352.098299 89.696952 
L 353.682951 89.661086 
" clip-path="url(#p74594a393c)" style="fill: none; stroke: #1f77b4; stroke-opacity: 0.5; stroke-width: 0.2; stroke-linecap: square"/>
   <path d="M 290.098299 115.473814 
L 291.098299 115.50525 
L 292.098299 115.54219 
L 293.098299 115.639937 
L 294.098299 115.672458 
L 295.098299 115.746083 
L 296.098299 115.784649 
L 297.098299 115.820062 
L 298.098299 115.877702 
L 299.098299 115.948088 
L 300.098299 116.000052 
L 301.098299 116.059142 
L 302.098299 116.147463 
L 303.098299 116.193607 
L 304.098299 116.236018 
L 305.098299 116.266511 
L 306.098299 116.292556 
L 307.098299 116.313756 
L 308.098299 116.368057 
L 309.098299 116.395995 
L 310.098299 116.425719 
L 311.098299 116.451113 
L 312.098299 116.462314 
L 313.098299 116.472438 
L 314.098299 116.472233 
L 315.098299 116.462724 
L 316.098299 116.45107 
L 317.098299 116.420041 
L 318.098299 116.408873 
L 319.098299 116.378755 
L 320.098299 116.318978 
L 321.098299 116.281787 
L 322.098299 116.242691 
L 323.098299 116.200251 
L 324.098299 116.167486 
L 325.098299 116.100059 
L 326.098299 116.060934 
L 327.098299 116.018259 
L 328.098299 115.947678 
L 329.098299 115.911288 
L 330.098299 115.852884 
L 331.098299 115.741932 
L 332.098299 115.671273 
L 333.098299 115.558334 
L 334.098299 115.512561 
L 335.098299 115.451278 
L 336.098299 115.402778 
L 337.098299 115.321956 
L 338.098299 115.203437 
L 339.098299 115.133226 
L 340.098299 115.049963 
L 341.098299 115.016822 
L 342.098299 114.965584 
L 343.098299 114.897186 
L 344.098299 114.830971 
L 345.098299 114.754054 
L 346.098299 114.726738 
L 347.098299 114.700261 
L 348.098299 114.67761 
L 349.098299 114.658079 
L 350.098299 114.631685 
L 351.098299 114.581914 
L 352.098299 114.546841 
L 353.682951 114.510975 
" clip-path="url(#p74594a393c)" style="fill: none; stroke: #1f77b4; stroke-opacity: 0.5; stroke-width: 0.2; stroke-linecap: square"/>
   <path d="M 290.098299 242.470696 
L 291.098299 242.502132 
L 292.098299 242.539073 
L 293.098299 242.636819 
L 294.098299 242.669341 
L 295.098299 242.742966 
L 296.098299 242.781531 
L 297.098299 242.816944 
L 298.098299 242.874584 
L 299.098299 242.94497 
L 300.098299 242.996935 
L 301.098299 243.056024 
L 302.098299 243.144345 
L 303.098299 243.19049 
L 304.098299 243.232901 
L 305.098299 243.263393 
L 306.098299 243.289438 
L 307.098299 243.310638 
L 308.098299 243.364939 
L 309.098299 243.392877 
L 310.098299 243.422601 
L 311.098299 243.447996 
L 312.098299 243.459196 
L 313.098299 243.46932 
L 314.098299 243.469116 
L 315.098299 243.459606 
L 316.098299 243.447952 
L 317.098299 243.416923 
L 318.098299 243.405755 
L 319.098299 243.375638 
L 320.098299 243.315861 
L 321.098299 243.278669 
L 322.098299 243.239573 
L 323.098299 243.197133 
L 324.098299 243.164368 
L 325.098299 243.096942 
L 326.098299 243.057816 
L 327.098299 243.015141 
L 328.098299 242.944561 
L 329.098299 242.90817 
L 330.098299 242.849767 
L 331.098299 242.738814 
L 332.098299 242.668156 
L 333.098299 242.555216 
L 334.098299 242.509443 
L 335.098299 242.44816 
L 336.098299 242.399661 
L 337.098299 242.318838 
L 338.098299 242.200319 
L 339.098299 242.130108 
L 340.098299 242.046846 
L 341.098299 242.013704 
L 342.098299 241.962467 
L 343.098299 241.894068 
L 344.098299 241.827853 
L 345.098299 241.750936 
L 346.098299 241.72362 
L 347.098299 241.697143 
L 348.098299 241.674492 
L 349.098299 241.654961 
L 350.098299 241.628567 
L 351.098299 241.578796 
L 352.098299 241.543723 
L 353.682951 241.507857 
" clip-path="url(#p74594a393c)" style="fill: none; stroke: #1f77b4; stroke-opacity: 0.5; stroke-width: 0.2; stroke-linecap: square"/>
   <path d="M 290.098299 274.170181 
L 291.098299 274.201618 
L 292.098299 274.238558 
L 293.098299 274.336305 
L 294.098299 274.368826 
L 295.098299 274.442451 
L 296.098299 274.481016 
L 297.098299 274.51643 
L 298.098299 274.57407 
L 299.098299 274.644456 
L 300.098299 274.69642 
L 301.098299 274.75551 
L 302.098299 274.843831 
L 303.098299 274.889975 
L 304.098299 274.932386 
L 305.098299 274.962879 
L 306.098299 274.988924 
L 307.098299 275.010124 
L 308.098299 275.064425 
L 309.098299 275.092362 
L 310.098299 275.122086 
L 311.098299 275.147481 
L 312.098299 275.158682 
L 313.098299 275.168805 
L 314.098299 275.168601 
L 315.098299 275.159091 
L 316.098299 275.147438 
L 317.098299 275.116408 
L 318.098299 275.105241 
L 319.098299 275.075123 
L 320.098299 275.015346 
L 321.098299 274.978155 
L 322.098299 274.939058 
L 323.098299 274.896619 
L 324.098299 274.863854 
L 325.098299 274.796427 
L 326.098299 274.757301 
L 327.098299 274.714627 
L 328.098299 274.644046 
L 329.098299 274.607655 
L 330.098299 274.549252 
L 331.098299 274.4383 
L 332.098299 274.367641 
L 333.098299 274.254701 
L 334.098299 274.208929 
L 335.098299 274.147645 
L 336.098299 274.099146 
L 337.098299 274.018323 
L 338.098299 273.899804 
L 339.098299 273.829594 
L 340.098299 273.746331 
L 341.098299 273.713189 
L 342.098299 273.661952 
L 343.098299 273.593554 
L 344.098299 273.527338 
L 345.098299 273.450421 
L 346.098299 273.423106 
L 347.098299 273.396628 
L 348.098299 273.373978 
L 349.098299 273.354446 
L 350.098299 273.328052 
L 351.098299 273.278282 
L 352.098299 273.243208 
L 353.682951 273.207343 
" clip-path="url(#p74594a393c)" style="fill: none; stroke: #1f77b4; stroke-opacity: 0.5; stroke-width: 0.2; stroke-linecap: square"/>
   <path d="M 290.098299 264.626628 
L 291.098299 264.658065 
L 292.098299 264.695005 
L 293.098299 264.792752 
L 294.098299 264.825273 
L 295.098299 264.898898 
L 296.098299 264.937464 
L 297.098299 264.972877 
L 298.098299 265.030517 
L 299.098299 265.100903 
L 300.098299 265.152867 
L 301.098299 265.211957 
L 302.098299 265.300278 
L 303.098299 265.346422 
L 304.098299 265.388833 
L 305.098299 265.419326 
L 306.098299 265.445371 
L 307.098299 265.466571 
L 308.098299 265.520872 
L 309.098299 265.548809 
L 310.098299 265.578533 
L 311.098299 265.603928 
L 312.098299 265.615129 
L 313.098299 265.625253 
L 314.098299 265.625048 
L 315.098299 265.615538 
L 316.098299 265.603885 
L 317.098299 265.572856 
L 318.098299 265.561688 
L 319.098299 265.53157 
L 320.098299 265.471793 
L 321.098299 265.434602 
L 322.098299 265.395506 
L 323.098299 265.353066 
L 324.098299 265.320301 
L 325.098299 265.252874 
L 326.098299 265.213748 
L 327.098299 265.171074 
L 328.098299 265.100493 
L 329.098299 265.064102 
L 330.098299 265.005699 
L 331.098299 264.894747 
L 332.098299 264.824088 
L 333.098299 264.711149 
L 334.098299 264.665376 
L 335.098299 264.604092 
L 336.098299 264.555593 
L 337.098299 264.47477 
L 338.098299 264.356251 
L 339.098299 264.286041 
L 340.098299 264.202778 
L 341.098299 264.169637 
L 342.098299 264.118399 
L 343.098299 264.050001 
L 344.098299 263.983785 
L 345.098299 263.906868 
L 346.098299 263.879553 
L 347.098299 263.853075 
L 348.098299 263.830425 
L 349.098299 263.810894 
L 350.098299 263.7845 
L 351.098299 263.734729 
L 352.098299 263.699656 
L 353.682951 263.66379 
" clip-path="url(#p74594a393c)" style="fill: none; stroke: #1f77b4; stroke-opacity: 0.5; stroke-width: 0.2; stroke-linecap: square"/>
   <path d="M 290.098299 207.038432 
L 291.098299 207.069868 
L 292.098299 207.106808 
L 293.098299 207.204555 
L 294.098299 207.237077 
L 295.098299 207.310701 
L 296.098299 207.349267 
L 297.098299 207.38468 
L 298.098299 207.44232 
L 299.098299 207.512706 
L 300.098299 207.56467 
L 301.098299 207.62376 
L 302.098299 207.712081 
L 303.098299 207.758225 
L 304.098299 207.800636 
L 305.098299 207.831129 
L 306.098299 207.857174 
L 307.098299 207.878374 
L 308.098299 207.932675 
L 309.098299 207.960613 
L 310.098299 207.990337 
L 311.098299 208.015731 
L 312.098299 208.026932 
L 313.098299 208.037056 
L 314.098299 208.036851 
L 315.098299 208.027342 
L 316.098299 208.015688 
L 317.098299 207.984659 
L 318.098299 207.973491 
L 319.098299 207.943373 
L 320.098299 207.883596 
L 321.098299 207.846405 
L 322.098299 207.807309 
L 323.098299 207.764869 
L 324.098299 207.732104 
L 325.098299 207.664678 
L 326.098299 207.625552 
L 327.098299 207.582877 
L 328.098299 207.512296 
L 329.098299 207.475906 
L 330.098299 207.417502 
L 331.098299 207.30655 
L 332.098299 207.235892 
L 333.098299 207.122952 
L 334.098299 207.077179 
L 335.098299 207.015896 
L 336.098299 206.967396 
L 337.098299 206.886574 
L 338.098299 206.768055 
L 339.098299 206.697844 
L 340.098299 206.614582 
L 341.098299 206.58144 
L 342.098299 206.530202 
L 343.098299 206.461804 
L 344.098299 206.395589 
L 345.098299 206.318672 
L 346.098299 206.291356 
L 347.098299 206.264879 
L 348.098299 206.242228 
L 349.098299 206.222697 
L 350.098299 206.196303 
L 351.098299 206.146532 
L 352.098299 206.111459 
L 353.682951 206.075593 
" clip-path="url(#p74594a393c)" style="fill: none; stroke: #1f77b4; stroke-opacity: 0.5; stroke-width: 0.2; stroke-linecap: square"/>
   <path d="M 290.098299 214.392274 
L 291.098299 214.42371 
L 292.098299 214.460651 
L 293.098299 214.558397 
L 294.098299 214.590919 
L 295.098299 214.664544 
L 296.098299 214.703109 
L 297.098299 214.738522 
L 298.098299 214.796162 
L 299.098299 214.866549 
L 300.098299 214.918513 
L 301.098299 214.977603 
L 302.098299 215.065923 
L 303.098299 215.112068 
L 304.098299 215.154479 
L 305.098299 215.184971 
L 306.098299 215.211016 
L 307.098299 215.232216 
L 308.098299 215.286518 
L 309.098299 215.314455 
L 310.098299 215.344179 
L 311.098299 215.369574 
L 312.098299 215.380774 
L 313.098299 215.390898 
L 314.098299 215.390694 
L 315.098299 215.381184 
L 316.098299 215.36953 
L 317.098299 215.338501 
L 318.098299 215.327333 
L 319.098299 215.297216 
L 320.098299 215.237439 
L 321.098299 215.200247 
L 322.098299 215.161151 
L 323.098299 215.118712 
L 324.098299 215.085946 
L 325.098299 215.01852 
L 326.098299 214.979394 
L 327.098299 214.93672 
L 328.098299 214.866139 
L 329.098299 214.829748 
L 330.098299 214.771345 
L 331.098299 214.660392 
L 332.098299 214.589734 
L 333.098299 214.476794 
L 334.098299 214.431021 
L 335.098299 214.369738 
L 336.098299 214.321239 
L 337.098299 214.240416 
L 338.098299 214.121897 
L 339.098299 214.051686 
L 340.098299 213.968424 
L 341.098299 213.935282 
L 342.098299 213.884045 
L 343.098299 213.815647 
L 344.098299 213.749431 
L 345.098299 213.672514 
L 346.098299 213.645199 
L 347.098299 213.618721 
L 348.098299 213.59607 
L 349.098299 213.576539 
L 350.098299 213.550145 
L 351.098299 213.500374 
L 352.098299 213.465301 
L 353.682951 213.429436 
" clip-path="url(#p74594a393c)" style="fill: none; stroke: #1f77b4; stroke-opacity: 0.5; stroke-width: 0.2; stroke-linecap: square"/>
   <path d="M 290.098299 288.848885 
L 291.098299 288.880321 
L 292.098299 288.917262 
L 293.098299 289.015008 
L 294.098299 289.04753 
L 295.098299 289.121154 
L 296.098299 289.15972 
L 297.098299 289.195133 
L 298.098299 289.252773 
L 299.098299 289.323159 
L 300.098299 289.375123 
L 301.098299 289.434213 
L 302.098299 289.522534 
L 303.098299 289.568679 
L 304.098299 289.611089 
L 305.098299 289.641582 
L 306.098299 289.667627 
L 307.098299 289.688827 
L 308.098299 289.743128 
L 309.098299 289.771066 
L 310.098299 289.80079 
L 311.098299 289.826185 
L 312.098299 289.837385 
L 313.098299 289.847509 
L 314.098299 289.847305 
L 315.098299 289.837795 
L 316.098299 289.826141 
L 317.098299 289.795112 
L 318.098299 289.783944 
L 319.098299 289.753826 
L 320.098299 289.69405 
L 321.098299 289.656858 
L 322.098299 289.617762 
L 323.098299 289.575322 
L 324.098299 289.542557 
L 325.098299 289.475131 
L 326.098299 289.436005 
L 327.098299 289.39333 
L 328.098299 289.32275 
L 329.098299 289.286359 
L 330.098299 289.227956 
L 331.098299 289.117003 
L 332.098299 289.046345 
L 333.098299 288.933405 
L 334.098299 288.887632 
L 335.098299 288.826349 
L 336.098299 288.777849 
L 337.098299 288.697027 
L 338.098299 288.578508 
L 339.098299 288.508297 
L 340.098299 288.425035 
L 341.098299 288.391893 
L 342.098299 288.340656 
L 343.098299 288.272257 
L 344.098299 288.206042 
L 345.098299 288.129125 
L 346.098299 288.101809 
L 347.098299 288.075332 
L 348.098299 288.052681 
L 349.098299 288.03315 
L 350.098299 288.006756 
L 351.098299 287.956985 
L 352.098299 287.921912 
L 353.682951 287.886046 
" clip-path="url(#p74594a393c)" style="fill: none; stroke: #1f77b4; stroke-opacity: 0.5; stroke-width: 0.2; stroke-linecap: square"/>
   <path d="M 290.098299 259.370307 
L 291.098299 259.401743 
L 292.098299 259.438683 
L 293.098299 259.53643 
L 294.098299 259.568951 
L 295.098299 259.642576 
L 296.098299 259.681142 
L 297.098299 259.716555 
L 298.098299 259.774195 
L 299.098299 259.844581 
L 300.098299 259.896545 
L 301.098299 259.955635 
L 302.098299 260.043956 
L 303.098299 260.0901 
L 304.098299 260.132511 
L 305.098299 260.163004 
L 306.098299 260.189049 
L 307.098299 260.210249 
L 308.098299 260.26455 
L 309.098299 260.292488 
L 310.098299 260.322212 
L 311.098299 260.347606 
L 312.098299 260.358807 
L 313.098299 260.368931 
L 314.098299 260.368726 
L 315.098299 260.359216 
L 316.098299 260.347563 
L 317.098299 260.316534 
L 318.098299 260.305366 
L 319.098299 260.275248 
L 320.098299 260.215471 
L 321.098299 260.17828 
L 322.098299 260.139184 
L 323.098299 260.096744 
L 324.098299 260.063979 
L 325.098299 259.996552 
L 326.098299 259.957426 
L 327.098299 259.914752 
L 328.098299 259.844171 
L 329.098299 259.80778 
L 330.098299 259.749377 
L 331.098299 259.638425 
L 332.098299 259.567766 
L 333.098299 259.454827 
L 334.098299 259.409054 
L 335.098299 259.34777 
L 336.098299 259.299271 
L 337.098299 259.218448 
L 338.098299 259.09993 
L 339.098299 259.029719 
L 340.098299 258.946456 
L 341.098299 258.913315 
L 342.098299 258.862077 
L 343.098299 258.793679 
L 344.098299 258.727464 
L 345.098299 258.650547 
L 346.098299 258.623231 
L 347.098299 258.596754 
L 348.098299 258.574103 
L 349.098299 258.554572 
L 350.098299 258.528178 
L 351.098299 258.478407 
L 352.098299 258.443334 
L 353.682951 258.407468 
" clip-path="url(#p74594a393c)" style="fill: none; stroke: #1f77b4; stroke-opacity: 0.5; stroke-width: 0.2; stroke-linecap: square"/>
   <path d="M 290.098299 311.741063 
L 291.098299 311.7725 
L 292.098299 311.80944 
L 293.098299 311.907187 
L 294.098299 311.939708 
L 295.098299 312.013333 
L 296.098299 312.051899 
L 297.098299 312.087312 
L 298.098299 312.144952 
L 299.098299 312.215338 
L 300.098299 312.267302 
L 301.098299 312.326392 
L 302.098299 312.414713 
L 303.098299 312.460857 
L 304.098299 312.503268 
L 305.098299 312.533761 
L 306.098299 312.559806 
L 307.098299 312.581006 
L 308.098299 312.635307 
L 309.098299 312.663244 
L 310.098299 312.692968 
L 311.098299 312.718363 
L 312.098299 312.729564 
L 313.098299 312.739688 
L 314.098299 312.739483 
L 315.098299 312.729973 
L 316.098299 312.71832 
L 317.098299 312.687291 
L 318.098299 312.676123 
L 319.098299 312.646005 
L 320.098299 312.586228 
L 321.098299 312.549037 
L 322.098299 312.509941 
L 323.098299 312.467501 
L 324.098299 312.434736 
L 325.098299 312.367309 
L 326.098299 312.328183 
L 327.098299 312.285509 
L 328.098299 312.214928 
L 329.098299 312.178537 
L 330.098299 312.120134 
L 331.098299 312.009182 
L 332.098299 311.938523 
L 333.098299 311.825583 
L 334.098299 311.779811 
L 335.098299 311.718527 
L 336.098299 311.670028 
L 337.098299 311.589205 
L 338.098299 311.470686 
L 339.098299 311.400476 
L 340.098299 311.317213 
L 341.098299 311.284072 
L 342.098299 311.232834 
L 343.098299 311.164436 
L 344.098299 311.09822 
L 345.098299 311.021303 
L 346.098299 310.993988 
L 347.098299 310.96751 
L 348.098299 310.94486 
L 349.098299 310.925328 
L 350.098299 310.898935 
L 351.098299 310.849164 
L 352.098299 310.814091 
L 353.682951 310.778225 
" clip-path="url(#p74594a393c)" style="fill: none; stroke: #1f77b4; stroke-opacity: 0.5; stroke-width: 0.2; stroke-linecap: square"/>
   <path d="M 290.098299 242.354886 
L 291.098299 242.386322 
L 292.098299 242.423263 
L 293.098299 242.521009 
L 294.098299 242.553531 
L 295.098299 242.627156 
L 296.098299 242.665721 
L 297.098299 242.701134 
L 298.098299 242.758774 
L 299.098299 242.829161 
L 300.098299 242.881125 
L 301.098299 242.940215 
L 302.098299 243.028536 
L 303.098299 243.07468 
L 304.098299 243.117091 
L 305.098299 243.147583 
L 306.098299 243.173628 
L 307.098299 243.194828 
L 308.098299 243.24913 
L 309.098299 243.277067 
L 310.098299 243.306791 
L 311.098299 243.332186 
L 312.098299 243.343386 
L 313.098299 243.35351 
L 314.098299 243.353306 
L 315.098299 243.343796 
L 316.098299 243.332142 
L 317.098299 243.301113 
L 318.098299 243.289945 
L 319.098299 243.259828 
L 320.098299 243.200051 
L 321.098299 243.162859 
L 322.098299 243.123763 
L 323.098299 243.081324 
L 324.098299 243.048558 
L 325.098299 242.981132 
L 326.098299 242.942006 
L 327.098299 242.899332 
L 328.098299 242.828751 
L 329.098299 242.79236 
L 330.098299 242.733957 
L 331.098299 242.623004 
L 332.098299 242.552346 
L 333.098299 242.439406 
L 334.098299 242.393633 
L 335.098299 242.33235 
L 336.098299 242.283851 
L 337.098299 242.203028 
L 338.098299 242.084509 
L 339.098299 242.014298 
L 340.098299 241.931036 
L 341.098299 241.897894 
L 342.098299 241.846657 
L 343.098299 241.778259 
L 344.098299 241.712043 
L 345.098299 241.635126 
L 346.098299 241.607811 
L 347.098299 241.581333 
L 348.098299 241.558682 
L 349.098299 241.539151 
L 350.098299 241.512757 
L 351.098299 241.462986 
L 352.098299 241.427913 
L 353.682951 241.392048 
" clip-path="url(#p74594a393c)" style="fill: none; stroke: #1f77b4; stroke-opacity: 0.5; stroke-width: 0.2; stroke-linecap: square"/>
   <path d="M 290.098299 283.439422 
L 291.098299 283.470858 
L 292.098299 283.507799 
L 293.098299 283.605545 
L 294.098299 283.638067 
L 295.098299 283.711691 
L 296.098299 283.750257 
L 297.098299 283.78567 
L 298.098299 283.84331 
L 299.098299 283.913696 
L 300.098299 283.965661 
L 301.098299 284.02475 
L 302.098299 284.113071 
L 303.098299 284.159216 
L 304.098299 284.201626 
L 305.098299 284.232119 
L 306.098299 284.258164 
L 307.098299 284.279364 
L 308.098299 284.333665 
L 309.098299 284.361603 
L 310.098299 284.391327 
L 311.098299 284.416722 
L 312.098299 284.427922 
L 313.098299 284.438046 
L 314.098299 284.437842 
L 315.098299 284.428332 
L 316.098299 284.416678 
L 317.098299 284.385649 
L 318.098299 284.374481 
L 319.098299 284.344363 
L 320.098299 284.284587 
L 321.098299 284.247395 
L 322.098299 284.208299 
L 323.098299 284.165859 
L 324.098299 284.133094 
L 325.098299 284.065668 
L 326.098299 284.026542 
L 327.098299 283.983867 
L 328.098299 283.913287 
L 329.098299 283.876896 
L 330.098299 283.818493 
L 331.098299 283.70754 
L 332.098299 283.636882 
L 333.098299 283.523942 
L 334.098299 283.478169 
L 335.098299 283.416886 
L 336.098299 283.368386 
L 337.098299 283.287564 
L 338.098299 283.169045 
L 339.098299 283.098834 
L 340.098299 283.015572 
L 341.098299 282.98243 
L 342.098299 282.931193 
L 343.098299 282.862794 
L 344.098299 282.796579 
L 345.098299 282.719662 
L 346.098299 282.692346 
L 347.098299 282.665869 
L 348.098299 282.643218 
L 349.098299 282.623687 
L 350.098299 282.597293 
L 351.098299 282.547522 
L 352.098299 282.512449 
L 353.682951 282.476583 
" clip-path="url(#p74594a393c)" style="fill: none; stroke: #1f77b4; stroke-opacity: 0.5; stroke-width: 0.2; stroke-linecap: square"/>
   <g id="patch_3">
    <path d="M 69.06392 22.318125 
L 69.06392 318.021875 
M 284.536112 22.318125 
L 284.536112 318.021875 
" clip-path="url(#p74594a393c)" style="fill: none; stroke: #ffffff; stroke-width: 3; stroke-linejoin: miter"/>
    <path d="M 69.06392 22.318125 
L 69.06392 318.021875 
M 284.536112 22.318125 
L 284.536112 318.021875 
" clip-path="url(#p74594a393c)" style="fill: none; stroke: #1f77b4; stroke-linejoin: miter"/>
    <g id="PolyCollection_1">
     <path d="M 284.536112 22.318125 
L 69.06392 22.318125 
L 69.06392 318.021875 
L 284.536112 318.021875 
L 284.536112 318.021875 
L 284.536112 22.318125 
z
" clip-path="url(#p74594a393c)" style="fill: #1f77b4; fill-opacity: 0.5"/>
    </g>
    <g id="patch_4">
     <path d="M 359.245138 22.318125 
L 359.245138 318.021875 
M 574.71733 22.318125 
L 574.71733 318.021875 
" clip-path="url(#p74594a393c)" style="fill: none; stroke: #ffffff; stroke-width: 3; stroke-linejoin: miter"/>
     <path d="M 359.245138 22.318125 
L 359.245138 318.021875 
M 574.71733 22.318125 
L 574.71733 318.021875 
" clip-path="url(#p74594a393c)" style="fill: none; stroke: #ff7f0e; stroke-linejoin: miter"/>
     <g id="PolyCollection_2">
      <path d="M 574.71733 22.318125 
L 359.245138 22.318125 
L 359.245138 318.021875 
L 574.71733 318.021875 
L 574.71733 318.021875 
L 574.71733 22.318125 
z
" clip-path="url(#p74594a393c)" style="fill: #ff7f0e; fill-opacity: 0.5"/>
     </g>
     <g id="matplotlib.axis_1">
      <g id="xtick_1">
       <g id="line2d_1"/>
       <g id="text_1">
        <!-- deme0 -->
        <g transform="translate(159.42111 329.120312) scale(0.1 -0.1)">
         <defs>
          <path id="DejaVuSans-64" d="M 2906 2969 
L 2906 4863 
L 3481 4863 
L 3481 0 
L 2906 0 
L 2906 525 
Q 2725 213 2448 61 
Q 2172 -91 1784 -91 
Q 1150 -91 751 415 
Q 353 922 353 1747 
Q 353 2572 751 3078 
Q 1150 3584 1784 3584 
Q 2172 3584 2448 3432 
Q 2725 3281 2906 2969 
z
M 947 1747 
Q 947 1113 1208 752 
Q 1469 391 1925 391 
Q 2381 391 2643 752 
Q 2906 1113 2906 1747 
Q 2906 2381 2643 2742 
Q 2381 3103 1925 3103 
Q 1469 3103 1208 2742 
Q 947 2381 947 1747 
z
" transform="scale(0.015625)"/>
          <path id="DejaVuSans-65" d="M 3597 1894 
L 3597 1613 
L 953 1613 
Q 991 1019 1311 708 
Q 1631 397 2203 397 
Q 2534 397 2845 478 
Q 3156 559 3463 722 
L 3463 178 
Q 3153 47 2828 -22 
Q 2503 -91 2169 -91 
Q 1331 -91 842 396 
Q 353 884 353 1716 
Q 353 2575 817 3079 
Q 1281 3584 2069 3584 
Q 2775 3584 3186 3129 
Q 3597 2675 3597 1894 
z
M 3022 2063 
Q 3016 2534 2758 2815 
Q 2500 3097 2075 3097 
Q 1594 3097 1305 2825 
Q 1016 2553 972 2059 
L 3022 2063 
z
" transform="scale(0.015625)"/>
          <path id="DejaVuSans-6d" d="M 3328 2828 
Q 3544 3216 3844 3400 
Q 4144 3584 4550 3584 
Q 5097 3584 5394 3201 
Q 5691 2819 5691 2113 
L 5691 0 
L 5113 0 
L 5113 2094 
Q 5113 2597 4934 2840 
Q 4756 3084 4391 3084 
Q 3944 3084 3684 2787 
Q 3425 2491 3425 1978 
L 3425 0 
L 2847 0 
L 2847 2094 
Q 2847 2600 2669 2842 
Q 2491 3084 2119 3084 
Q 1678 3084 1418 2786 
Q 1159 2488 1159 1978 
L 1159 0 
L 581 0 
L 581 3500 
L 1159 3500 
L 1159 2956 
Q 1356 3278 1631 3431 
Q 1906 3584 2284 3584 
Q 2666 3584 2933 3390 
Q 3200 3197 3328 2828 
z
" transform="scale(0.015625)"/>
          <path id="DejaVuSans-30" d="M 2034 4250 
Q 1547 4250 1301 3770 
Q 1056 3291 1056 2328 
Q 1056 1369 1301 889 
Q 1547 409 2034 409 
Q 2525 409 2770 889 
Q 3016 1369 3016 2328 
Q 3016 3291 2770 3770 
Q 2525 4250 2034 4250 
z
M 2034 4750 
Q 2819 4750 3233 4129 
Q 3647 3509 3647 2328 
Q 3647 1150 3233 529 
Q 2819 -91 2034 -91 
Q 1250 -91 836 529 
Q 422 1150 422 2328 
Q 422 3509 836 4129 
Q 1250 4750 2034 4750 
z
" transform="scale(0.015625)"/>
         </defs>
         <use xlink:href="#DejaVuSans-64"/>
         <use xlink:href="#DejaVuSans-65" x="63.476562"/>
         <use xlink:href="#DejaVuSans-6d" x="125"/>
         <use xlink:href="#DejaVuSans-65" x="222.412109"/>
         <use xlink:href="#DejaVuSans-30" x="283.935547"/>
        </g>
       </g>
      </g>
      <g id="xtick_2">
       <g id="line2d_2"/>
       <g id="text_2">
        <!-- deme1 -->
        <g transform="translate(449.602328 329.120312) scale(0.1 -0.1)">
         <defs>
          <path id="DejaVuSans-31" d="M 794 531 
L 1825 531 
L 1825 4091 
L 703 3866 
L 703 4441 
L 1819 4666 
L 2450 4666 
L 2450 531 
L 3481 531 
L 3481 0 
L 794 0 
L 794 531 
z
" transform="scale(0.015625)"/>
         </defs>
         <use xlink:href="#DejaVuSans-64"/>
         <use xlink:href="#DejaVuSans-65" x="63.476562"/>
         <use xlink:href="#DejaVuSans-6d" x="125"/>
         <use xlink:href="#DejaVuSans-65" x="222.412109"/>
         <use xlink:href="#DejaVuSans-31" x="283.935547"/>
        </g>
       </g>
      </g>
     </g>
     <g id="matplotlib.axis_2">
      <g id="ytick_1">
       <g id="line2d_3">
        <defs>
         <path id="m44a2374200" d="M 0 0 
L -3.5 0 
" style="stroke: #000000; stroke-width: 0.8"/>
        </defs>
        <g>
         <use xlink:href="#m44a2374200" x="43.78125" y="318.021875" style="stroke: #000000; stroke-width: 0.8"/>
        </g>
       </g>
       <g id="text_3">
        <!-- 0.0 -->
        <g transform="translate(20.878125 321.821094) scale(0.1 -0.1)">
         <defs>
          <path id="DejaVuSans-2e" d="M 684 794 
L 1344 794 
L 1344 0 
L 684 0 
L 684 794 
z
" transform="scale(0.015625)"/>
         </defs>
         <use xlink:href="#DejaVuSans-30"/>
         <use xlink:href="#DejaVuSans-2e" x="63.623047"/>
         <use xlink:href="#DejaVuSans-30" x="95.410156"/>
        </g>
       </g>
      </g>
      <g id="ytick_2">
       <g id="line2d_4">
        <g>
         <use xlink:href="#m44a2374200" x="43.78125" y="258.881125" style="stroke: #000000; stroke-width: 0.8"/>
        </g>
       </g>
       <g id="text_4">
        <!-- 0.5 -->
        <g transform="translate(20.878125 262.680344) scale(0.1 -0.1)">
         <defs>
          <path id="DejaVuSans-35" d="M 691 4666 
L 3169 4666 
L 3169 4134 
L 1269 4134 
L 1269 2991 
Q 1406 3038 1543 3061 
Q 1681 3084 1819 3084 
Q 2600 3084 3056 2656 
Q 3513 2228 3513 1497 
Q 3513 744 3044 326 
Q 2575 -91 1722 -91 
Q 1428 -91 1123 -41 
Q 819 9 494 109 
L 494 744 
Q 775 591 1075 516 
Q 1375 441 1709 441 
Q 2250 441 2565 725 
Q 2881 1009 2881 1497 
Q 2881 1984 2565 2268 
Q 2250 2553 1709 2553 
Q 1456 2553 1204 2497 
Q 953 2441 691 2322 
L 691 4666 
z
" transform="scale(0.015625)"/>
         </defs>
         <use xlink:href="#DejaVuSans-30"/>
         <use xlink:href="#DejaVuSans-2e" x="63.623047"/>
         <use xlink:href="#DejaVuSans-35" x="95.410156"/>
        </g>
       </g>
      </g>
      <g id="ytick_3">
       <g id="line2d_5">
        <g>
         <use xlink:href="#m44a2374200" x="43.78125" y="199.740375" style="stroke: #000000; stroke-width: 0.8"/>
        </g>
       </g>
       <g id="text_5">
        <!-- 1.0 -->
        <g transform="translate(20.878125 203.539594) scale(0.1 -0.1)">
         <use xlink:href="#DejaVuSans-31"/>
         <use xlink:href="#DejaVuSans-2e" x="63.623047"/>
         <use xlink:href="#DejaVuSans-30" x="95.410156"/>
        </g>
       </g>
      </g>
      <g id="ytick_4">
       <g id="line2d_6">
        <g>
         <use xlink:href="#m44a2374200" x="43.78125" y="140.599625" style="stroke: #000000; stroke-width: 0.8"/>
        </g>
       </g>
       <g id="text_6">
        <!-- 1.5 -->
        <g transform="translate(20.878125 144.398844) scale(0.1 -0.1)">
         <use xlink:href="#DejaVuSans-31"/>
         <use xlink:href="#DejaVuSans-2e" x="63.623047"/>
         <use xlink:href="#DejaVuSans-35" x="95.410156"/>
        </g>
       </g>
      </g>
      <g id="ytick_5">
       <g id="line2d_7">
        <g>
         <use xlink:href="#m44a2374200" x="43.78125" y="81.458875" style="stroke: #000000; stroke-width: 0.8"/>
        </g>
       </g>
       <g id="text_7">
        <!-- 2.0 -->
        <g transform="translate(20.878125 85.258094) scale(0.1 -0.1)">
         <defs>
          <path id="DejaVuSans-32" d="M 1228 531 
L 3431 531 
L 3431 0 
L 469 0 
L 469 531 
Q 828 903 1448 1529 
Q 2069 2156 2228 2338 
Q 2531 2678 2651 2914 
Q 2772 3150 2772 3378 
Q 2772 3750 2511 3984 
Q 2250 4219 1831 4219 
Q 1534 4219 1204 4116 
Q 875 4013 500 3803 
L 500 4441 
Q 881 4594 1212 4672 
Q 1544 4750 1819 4750 
Q 2544 4750 2975 4387 
Q 3406 4025 3406 3419 
Q 3406 3131 3298 2873 
Q 3191 2616 2906 2266 
Q 2828 2175 2409 1742 
Q 1991 1309 1228 531 
z
" transform="scale(0.015625)"/>
         </defs>
         <use xlink:href="#DejaVuSans-32"/>
         <use xlink:href="#DejaVuSans-2e" x="63.623047"/>
         <use xlink:href="#DejaVuSans-30" x="95.410156"/>
        </g>
       </g>
      </g>
      <g id="ytick_6">
       <g id="line2d_8">
        <g>
         <use xlink:href="#m44a2374200" x="43.78125" y="22.318125" style="stroke: #000000; stroke-width: 0.8"/>
        </g>
       </g>
       <g id="text_8">
        <!-- 2.5 -->
        <g transform="translate(20.878125 26.117344) scale(0.1 -0.1)">
         <use xlink:href="#DejaVuSans-32"/>
         <use xlink:href="#DejaVuSans-2e" x="63.623047"/>
         <use xlink:href="#DejaVuSans-35" x="95.410156"/>
        </g>
       </g>
      </g>
      <g id="text_9">
       <!-- time ago (generations) -->
       <g transform="translate(14.798438 227.641094) rotate(-90) scale(0.1 -0.1)">
        <defs>
         <path id="DejaVuSans-74" d="M 1172 4494 
L 1172 3500 
L 2356 3500 
L 2356 3053 
L 1172 3053 
L 1172 1153 
Q 1172 725 1289 603 
Q 1406 481 1766 481 
L 2356 481 
L 2356 0 
L 1766 0 
Q 1100 0 847 248 
Q 594 497 594 1153 
L 594 3053 
L 172 3053 
L 172 3500 
L 594 3500 
L 594 4494 
L 1172 4494 
z
" transform="scale(0.015625)"/>
         <path id="DejaVuSans-69" d="M 603 3500 
L 1178 3500 
L 1178 0 
L 603 0 
L 603 3500 
z
M 603 4863 
L 1178 4863 
L 1178 4134 
L 603 4134 
L 603 4863 
z
" transform="scale(0.015625)"/>
         <path id="DejaVuSans-20" transform="scale(0.015625)"/>
         <path id="DejaVuSans-61" d="M 2194 1759 
Q 1497 1759 1228 1600 
Q 959 1441 959 1056 
Q 959 750 1161 570 
Q 1363 391 1709 391 
Q 2188 391 2477 730 
Q 2766 1069 2766 1631 
L 2766 1759 
L 2194 1759 
z
M 3341 1997 
L 3341 0 
L 2766 0 
L 2766 531 
Q 2569 213 2275 61 
Q 1981 -91 1556 -91 
Q 1019 -91 701 211 
Q 384 513 384 1019 
Q 384 1609 779 1909 
Q 1175 2209 1959 2209 
L 2766 2209 
L 2766 2266 
Q 2766 2663 2505 2880 
Q 2244 3097 1772 3097 
Q 1472 3097 1187 3025 
Q 903 2953 641 2809 
L 641 3341 
Q 956 3463 1253 3523 
Q 1550 3584 1831 3584 
Q 2591 3584 2966 3190 
Q 3341 2797 3341 1997 
z
" transform="scale(0.015625)"/>
         <path id="DejaVuSans-67" d="M 2906 1791 
Q 2906 2416 2648 2759 
Q 2391 3103 1925 3103 
Q 1463 3103 1205 2759 
Q 947 2416 947 1791 
Q 947 1169 1205 825 
Q 1463 481 1925 481 
Q 2391 481 2648 825 
Q 2906 1169 2906 1791 
z
M 3481 434 
Q 3481 -459 3084 -895 
Q 2688 -1331 1869 -1331 
Q 1566 -1331 1297 -1286 
Q 1028 -1241 775 -1147 
L 775 -588 
Q 1028 -725 1275 -790 
Q 1522 -856 1778 -856 
Q 2344 -856 2625 -561 
Q 2906 -266 2906 331 
L 2906 616 
Q 2728 306 2450 153 
Q 2172 0 1784 0 
Q 1141 0 747 490 
Q 353 981 353 1791 
Q 353 2603 747 3093 
Q 1141 3584 1784 3584 
Q 2172 3584 2450 3431 
Q 2728 3278 2906 2969 
L 2906 3500 
L 3481 3500 
L 3481 434 
z
" transform="scale(0.015625)"/>
         <path id="DejaVuSans-6f" d="M 1959 3097 
Q 1497 3097 1228 2736 
Q 959 2375 959 1747 
Q 959 1119 1226 758 
Q 1494 397 1959 397 
Q 2419 397 2687 759 
Q 2956 1122 2956 1747 
Q 2956 2369 2687 2733 
Q 2419 3097 1959 3097 
z
M 1959 3584 
Q 2709 3584 3137 3096 
Q 3566 2609 3566 1747 
Q 3566 888 3137 398 
Q 2709 -91 1959 -91 
Q 1206 -91 779 398 
Q 353 888 353 1747 
Q 353 2609 779 3096 
Q 1206 3584 1959 3584 
z
" transform="scale(0.015625)"/>
         <path id="DejaVuSans-28" d="M 1984 4856 
Q 1566 4138 1362 3434 
Q 1159 2731 1159 2009 
Q 1159 1288 1364 580 
Q 1569 -128 1984 -844 
L 1484 -844 
Q 1016 -109 783 600 
Q 550 1309 550 2009 
Q 550 2706 781 3412 
Q 1013 4119 1484 4856 
L 1984 4856 
z
" transform="scale(0.015625)"/>
         <path id="DejaVuSans-6e" d="M 3513 2113 
L 3513 0 
L 2938 0 
L 2938 2094 
Q 2938 2591 2744 2837 
Q 2550 3084 2163 3084 
Q 1697 3084 1428 2787 
Q 1159 2491 1159 1978 
L 1159 0 
L 581 0 
L 581 3500 
L 1159 3500 
L 1159 2956 
Q 1366 3272 1645 3428 
Q 1925 3584 2291 3584 
Q 2894 3584 3203 3211 
Q 3513 2838 3513 2113 
z
" transform="scale(0.015625)"/>
         <path id="DejaVuSans-72" d="M 2631 2963 
Q 2534 3019 2420 3045 
Q 2306 3072 2169 3072 
Q 1681 3072 1420 2755 
Q 1159 2438 1159 1844 
L 1159 0 
L 581 0 
L 581 3500 
L 1159 3500 
L 1159 2956 
Q 1341 3275 1631 3429 
Q 1922 3584 2338 3584 
Q 2397 3584 2469 3576 
Q 2541 3569 2628 3553 
L 2631 2963 
z
" transform="scale(0.015625)"/>
         <path id="DejaVuSans-73" d="M 2834 3397 
L 2834 2853 
Q 2591 2978 2328 3040 
Q 2066 3103 1784 3103 
Q 1356 3103 1142 2972 
Q 928 2841 928 2578 
Q 928 2378 1081 2264 
Q 1234 2150 1697 2047 
L 1894 2003 
Q 2506 1872 2764 1633 
Q 3022 1394 3022 966 
Q 3022 478 2636 193 
Q 2250 -91 1575 -91 
Q 1294 -91 989 -36 
Q 684 19 347 128 
L 347 722 
Q 666 556 975 473 
Q 1284 391 1588 391 
Q 1994 391 2212 530 
Q 2431 669 2431 922 
Q 2431 1156 2273 1281 
Q 2116 1406 1581 1522 
L 1381 1569 
Q 847 1681 609 1914 
Q 372 2147 372 2553 
Q 372 3047 722 3315 
Q 1072 3584 1716 3584 
Q 2034 3584 2315 3537 
Q 2597 3491 2834 3397 
z
" transform="scale(0.015625)"/>
         <path id="DejaVuSans-29" d="M 513 4856 
L 1013 4856 
Q 1481 4119 1714 3412 
Q 1947 2706 1947 2009 
Q 1947 1309 1714 600 
Q 1481 -109 1013 -844 
L 513 -844 
Q 928 -128 1133 580 
Q 1338 1288 1338 2009 
Q 1338 2731 1133 3434 
Q 928 4138 513 4856 
z
" transform="scale(0.015625)"/>
        </defs>
        <use xlink:href="#DejaVuSans-74"/>
        <use xlink:href="#DejaVuSans-69" x="39.208984"/>
        <use xlink:href="#DejaVuSans-6d" x="66.992188"/>
        <use xlink:href="#DejaVuSans-65" x="164.404297"/>
        <use xlink:href="#DejaVuSans-20" x="225.927734"/>
        <use xlink:href="#DejaVuSans-61" x="257.714844"/>
        <use xlink:href="#DejaVuSans-67" x="318.994141"/>
        <use xlink:href="#DejaVuSans-6f" x="382.470703"/>
        <use xlink:href="#DejaVuSans-20" x="443.652344"/>
        <use xlink:href="#DejaVuSans-28" x="475.439453"/>
        <use xlink:href="#DejaVuSans-67" x="514.453125"/>
        <use xlink:href="#DejaVuSans-65" x="577.929688"/>
        <use xlink:href="#DejaVuSans-6e" x="639.453125"/>
        <use xlink:href="#DejaVuSans-65" x="702.832031"/>
        <use xlink:href="#DejaVuSans-72" x="764.355469"/>
        <use xlink:href="#DejaVuSans-61" x="805.46875"/>
        <use xlink:href="#DejaVuSans-74" x="866.748047"/>
        <use xlink:href="#DejaVuSans-69" x="905.957031"/>
        <use xlink:href="#DejaVuSans-6f" x="933.740234"/>
        <use xlink:href="#DejaVuSans-6e" x="994.921875"/>
        <use xlink:href="#DejaVuSans-73" x="1058.300781"/>
        <use xlink:href="#DejaVuSans-29" x="1110.400391"/>
       </g>
      </g>
     </g>
     <path d="M 354.682951 141.913705 
L 352.682951 140.913705 
L 352.682951 142.913705 
z
" clip-path="url(#p74594a393c)" style="fill: #1f77b4; fill-opacity: 0.5; stroke: #1f77b4; stroke-opacity: 0.5; stroke-linejoin: miter"/>
     <path d="M 354.682951 96.553551 
L 352.682951 95.553551 
L 352.682951 97.553551 
z
" clip-path="url(#p74594a393c)" style="fill: #1f77b4; fill-opacity: 0.5; stroke: #1f77b4; stroke-opacity: 0.5; stroke-linejoin: miter"/>
     <path d="M 354.682951 84.542205 
L 352.682951 83.542205 
L 352.682951 85.542205 
z
" clip-path="url(#p74594a393c)" style="fill: #1f77b4; fill-opacity: 0.5; stroke: #1f77b4; stroke-opacity: 0.5; stroke-linejoin: miter"/>
     <path d="M 354.682951 135.056179 
L 352.682951 134.056179 
L 352.682951 136.056179 
z
" clip-path="url(#p74594a393c)" style="fill: #1f77b4; fill-opacity: 0.5; stroke: #1f77b4; stroke-opacity: 0.5; stroke-linejoin: miter"/>
     <path d="M 354.682951 128.468744 
L 352.682951 127.468744 
L 352.682951 129.468744 
z
" clip-path="url(#p74594a393c)" style="fill: #1f77b4; fill-opacity: 0.5; stroke: #1f77b4; stroke-opacity: 0.5; stroke-linejoin: miter"/>
     <path d="M 354.682951 196.927091 
L 352.682951 195.927091 
L 352.682951 197.927091 
z
" clip-path="url(#p74594a393c)" style="fill: #1f77b4; fill-opacity: 0.5; stroke: #1f77b4; stroke-opacity: 0.5; stroke-linejoin: miter"/>
     <path d="M 354.682951 199.630978 
L 352.682951 198.630978 
L 352.682951 200.630978 
z
" clip-path="url(#p74594a393c)" style="fill: #1f77b4; fill-opacity: 0.5; stroke: #1f77b4; stroke-opacity: 0.5; stroke-linejoin: miter"/>
     <path d="M 354.682951 91.48762 
L 352.682951 90.48762 
L 352.682951 92.48762 
z
" clip-path="url(#p74594a393c)" style="fill: #1f77b4; fill-opacity: 0.5; stroke: #1f77b4; stroke-opacity: 0.5; stroke-linejoin: miter"/>
     <path d="M 354.682951 90.623925 
L 352.682951 89.623925 
L 352.682951 91.623925 
z
" clip-path="url(#p74594a393c)" style="fill: #1f77b4; fill-opacity: 0.5; stroke: #1f77b4; stroke-opacity: 0.5; stroke-linejoin: miter"/>
     <path d="M 354.682951 115.473814 
L 352.682951 114.473814 
L 352.682951 116.473814 
z
" clip-path="url(#p74594a393c)" style="fill: #1f77b4; fill-opacity: 0.5; stroke: #1f77b4; stroke-opacity: 0.5; stroke-linejoin: miter"/>
     <path d="M 354.682951 242.470696 
L 352.682951 241.470696 
L 352.682951 243.470696 
z
" clip-path="url(#p74594a393c)" style="fill: #1f77b4; fill-opacity: 0.5; stroke: #1f77b4; stroke-opacity: 0.5; stroke-linejoin: miter"/>
     <path d="M 354.682951 274.170181 
L 352.682951 273.170181 
L 352.682951 275.170181 
z
" clip-path="url(#p74594a393c)" style="fill: #1f77b4; fill-opacity: 0.5; stroke: #1f77b4; stroke-opacity: 0.5; stroke-linejoin: miter"/>
     <path d="M 354.682951 264.626628 
L 352.682951 263.626628 
L 352.682951 265.626628 
z
" clip-path="url(#p74594a393c)" style="fill: #1f77b4; fill-opacity: 0.5; stroke: #1f77b4; stroke-opacity: 0.5; stroke-linejoin: miter"/>
     <path d="M 354.682951 207.038432 
L 352.682951 206.038432 
L 352.682951 208.038432 
z
" clip-path="url(#p74594a393c)" style="fill: #1f77b4; fill-opacity: 0.5; stroke: #1f77b4; stroke-opacity: 0.5; stroke-linejoin: miter"/>
     <path d="M 354.682951 214.392274 
L 352.682951 213.392274 
L 352.682951 215.392274 
z
" clip-path="url(#p74594a393c)" style="fill: #1f77b4; fill-opacity: 0.5; stroke: #1f77b4; stroke-opacity: 0.5; stroke-linejoin: miter"/>
     <path d="M 354.682951 288.848885 
L 352.682951 287.848885 
L 352.682951 289.848885 
z
" clip-path="url(#p74594a393c)" style="fill: #1f77b4; fill-opacity: 0.5; stroke: #1f77b4; stroke-opacity: 0.5; stroke-linejoin: miter"/>
     <path d="M 354.682951 259.370307 
L 352.682951 258.370307 
L 352.682951 260.370307 
z
" clip-path="url(#p74594a393c)" style="fill: #1f77b4; fill-opacity: 0.5; stroke: #1f77b4; stroke-opacity: 0.5; stroke-linejoin: miter"/>
     <path d="M 354.682951 311.741063 
L 352.682951 310.741063 
L 352.682951 312.741063 
z
" clip-path="url(#p74594a393c)" style="fill: #1f77b4; fill-opacity: 0.5; stroke: #1f77b4; stroke-opacity: 0.5; stroke-linejoin: miter"/>
     <path d="M 354.682951 242.354886 
L 352.682951 241.354886 
L 352.682951 243.354886 
z
" clip-path="url(#p74594a393c)" style="fill: #1f77b4; fill-opacity: 0.5; stroke: #1f77b4; stroke-opacity: 0.5; stroke-linejoin: miter"/>
     <path d="M 354.682951 283.439422 
L 352.682951 282.439422 
L 352.682951 284.439422 
z
" clip-path="url(#p74594a393c)" style="fill: #1f77b4; fill-opacity: 0.5; stroke: #1f77b4; stroke-opacity: 0.5; stroke-linejoin: miter"/>
     <g id="patch_5">
      <path d="M 43.78125 318.021875 
L 43.78125 22.318125 
" style="fill: none; stroke: #000000; stroke-width: 0.8; stroke-linejoin: miter; stroke-linecap: square"/>
     </g>
     <g id="text_10">
      <!-- defaults_asymmetric_migration_changing_rate.yaml -->
      <g transform="translate(164.675625 16.318125) scale(0.12 -0.12)">
       <defs>
        <path id="DejaVuSans-66" d="M 2375 4863 
L 2375 4384 
L 1825 4384 
Q 1516 4384 1395 4259 
Q 1275 4134 1275 3809 
L 1275 3500 
L 2222 3500 
L 2222 3053 
L 1275 3053 
L 1275 0 
L 697 0 
L 697 3053 
L 147 3053 
L 147 3500 
L 697 3500 
L 697 3744 
Q 697 4328 969 4595 
Q 1241 4863 1831 4863 
L 2375 4863 
z
" transform="scale(0.015625)"/>
        <path id="DejaVuSans-75" d="M 544 1381 
L 544 3500 
L 1119 3500 
L 1119 1403 
Q 1119 906 1312 657 
Q 1506 409 1894 409 
Q 2359 409 2629 706 
Q 2900 1003 2900 1516 
L 2900 3500 
L 3475 3500 
L 3475 0 
L 2900 0 
L 2900 538 
Q 2691 219 2414 64 
Q 2138 -91 1772 -91 
Q 1169 -91 856 284 
Q 544 659 544 1381 
z
M 1991 3584 
L 1991 3584 
z
" transform="scale(0.015625)"/>
        <path id="DejaVuSans-6c" d="M 603 4863 
L 1178 4863 
L 1178 0 
L 603 0 
L 603 4863 
z
" transform="scale(0.015625)"/>
        <path id="DejaVuSans-5f" d="M 3263 -1063 
L 3263 -1509 
L -63 -1509 
L -63 -1063 
L 3263 -1063 
z
" transform="scale(0.015625)"/>
        <path id="DejaVuSans-79" d="M 2059 -325 
Q 1816 -950 1584 -1140 
Q 1353 -1331 966 -1331 
L 506 -1331 
L 506 -850 
L 844 -850 
Q 1081 -850 1212 -737 
Q 1344 -625 1503 -206 
L 1606 56 
L 191 3500 
L 800 3500 
L 1894 763 
L 2988 3500 
L 3597 3500 
L 2059 -325 
z
" transform="scale(0.015625)"/>
        <path id="DejaVuSans-63" d="M 3122 3366 
L 3122 2828 
Q 2878 2963 2633 3030 
Q 2388 3097 2138 3097 
Q 1578 3097 1268 2742 
Q 959 2388 959 1747 
Q 959 1106 1268 751 
Q 1578 397 2138 397 
Q 2388 397 2633 464 
Q 2878 531 3122 666 
L 3122 134 
Q 2881 22 2623 -34 
Q 2366 -91 2075 -91 
Q 1284 -91 818 406 
Q 353 903 353 1747 
Q 353 2603 823 3093 
Q 1294 3584 2113 3584 
Q 2378 3584 2631 3529 
Q 2884 3475 3122 3366 
z
" transform="scale(0.015625)"/>
        <path id="DejaVuSans-68" d="M 3513 2113 
L 3513 0 
L 2938 0 
L 2938 2094 
Q 2938 2591 2744 2837 
Q 2550 3084 2163 3084 
Q 1697 3084 1428 2787 
Q 1159 2491 1159 1978 
L 1159 0 
L 581 0 
L 581 4863 
L 1159 4863 
L 1159 2956 
Q 1366 3272 1645 3428 
Q 1925 3584 2291 3584 
Q 2894 3584 3203 3211 
Q 3513 2838 3513 2113 
z
" transform="scale(0.015625)"/>
       </defs>
       <use xlink:href="#DejaVuSans-64"/>
       <use xlink:href="#DejaVuSans-65" x="63.476562"/>
       <use xlink:href="#DejaVuSans-66" x="125"/>
       <use xlink:href="#DejaVuSans-61" x="160.205078"/>
       <use xlink:href="#DejaVuSans-75" x="221.484375"/>
       <use xlink:href="#DejaVuSans-6c" x="284.863281"/>
       <use xlink:href="#DejaVuSans-74" x="312.646484"/>
       <use xlink:href="#DejaVuSans-73" x="351.855469"/>
       <use xlink:href="#DejaVuSans-5f" x="403.955078"/>
       <use xlink:href="#DejaVuSans-61" x="453.955078"/>
       <use xlink:href="#DejaVuSans-73" x="515.234375"/>
       <use xlink:href="#DejaVuSans-79" x="567.333984"/>
       <use xlink:href="#DejaVuSans-6d" x="626.513672"/>
       <use xlink:href="#DejaVuSans-6d" x="723.925781"/>
       <use xlink:href="#DejaVuSans-65" x="821.337891"/>
       <use xlink:href="#DejaVuSans-74" x="882.861328"/>
       <use xlink:href="#DejaVuSans-72" x="922.070312"/>
       <use xlink:href="#DejaVuSans-69" x="963.183594"/>
       <use xlink:href="#DejaVuSans-63" x="990.966797"/>
       <use xlink:href="#DejaVuSans-5f" x="1045.947266"/>
       <use xlink:href="#DejaVuSans-6d" x="1095.947266"/>
       <use xlink:href="#DejaVuSans-69" x="1193.359375"/>
       <use xlink:href="#DejaVuSans-67" x="1221.142578"/>
       <use xlink:href="#DejaVuSans-72" x="1284.619141"/>
       <use xlink:href="#DejaVuSans-61" x="1325.732422"/>
       <use xlink:href="#DejaVuSans-74" x="1387.011719"/>
       <use xlink:href="#DejaVuSans-69" x="1426.220703"/>
       <use xlink:href="#DejaVuSans-6f" x="1454.003906"/>
       <use xlink:href="#DejaVuSans-6e" x="1515.185547"/>
       <use xlink:href="#DejaVuSans-5f" x="1578.564453"/>
       <use xlink:href="#DejaVuSans-63" x="1628.564453"/>
       <use xlink:href="#DejaVuSans-68" x="1683.544922"/>
       <use xlink:href="#DejaVuSans-61" x="1746.923828"/>
       <use xlink:href="#DejaVuSans-6e" x="1808.203125"/>
       <use xlink:href="#DejaVuSans-67" x="1871.582031"/>
       <use xlink:href="#DejaVuSans-69" x="1935.058594"/>
       <use xlink:href="#DejaVuSans-6e" x="1962.841797"/>
       <use xlink:href="#DejaVuSans-67" x="2026.220703"/>
       <use xlink:href="#DejaVuSans-5f" x="2089.697266"/>
       <use xlink:href="#DejaVuSans-72" x="2139.697266"/>
       <use xlink:href="#DejaVuSans-61" x="2180.810547"/>
       <use xlink:href="#DejaVuSans-74" x="2242.089844"/>
       <use xlink:href="#DejaVuSans-65" x="2281.298828"/>
       <use xlink:href="#DejaVuSans-2e" x="2342.822266"/>
       <use xlink:href="#DejaVuSans-79" x="2374.609375"/>
       <use xlink:href="#DejaVuSans-61" x="2433.789062"/>
       <use xlink:href="#DejaVuSans-6d" x="2495.068359"/>
       <use xlink:href="#DejaVuSans-6c" x="2592.480469"/>
      </g>
     </g>
    </g>
   </g>
   <defs>
    <clipPath id="p74594a393c">
     <rect x="43.78125" y="22.318125" width="556.21875" height="295.70375"/>
    </clipPath>
   </defs>
  </g>
 </g>
</svg>