<?xml version="1.0" encoding="utf-8" standalone="no"?>
<!DOCTYPE svg PUBLIC "-//W3C//DTD SVG 1.1//EN"
  "http://www.w3.org/Graphics/SVG/1.1/DTD/svg11.dtd">
<svg xmlns:xlink="http://www.w3.org/1999/xlink" width="607.2pt" height="338.4pt" viewBox="0 0 607.2 338.4" xmlns="http://www.w3.org/2000/svg" version="1.1">
 <metadata>
  <rdf:RDF xmlns:dc="http://purl.org/dc/elements/1.1/" xmlns:cc="http://creativecommons.org/ns#" xmlns:rdf="http://www.w3.org/1999/02/22-rdf-syntax-ns#">
   <cc:Work>
    <dc:type rdf:resource="http://purl.org/dc/dcmitype/StillImage"/>
    <dc:date>2025-10-13T08:26:04.716746</dc:date>
    <dc:format>image/svg+xml</dc:format>
    <dc:creator>
     <cc:Agent>
      <dc:title>Matplotlib v3.10.6, https://matplotlib.org/</dc:title>
     </cc:Agent>
    </dc:creator>
   </cc:Work>
  </rdf:RDF>
 </metadata>
 <defs>
  <style type="text/css">*{stroke-linejoin: round; stroke-linecap: butt}</style>
 </defs>
 <g id="figure_1">
  <g id="patch_1">
   <path d="M 0 338.4 
L 607.2 338.4 
L 607.2 0 
L 0 0 
z
" style="fill: #ffffff"/>
  </g>
  <g id="axes_1">
   <g id="patch_2">
    <path d="M 43.78125 318.021875 
L 600 318.021875 
L 600 22.318125 
L 43.78125 22.318125 
z
" style="fill: #ffffff"/>
   </g>
   <g id="line2d_1">
    <path d="M 197.982246 96.462467 
L 198.982246 96.493903 
L 199.982246 96.530843 
L 200.982246 96.62859 
L 201.982246 96.661112 
L 202.982246 96.734736 
L 203.982246 96.773302 
L 204.982246 96.808715 
L 205.982246 96.866355 
L 206.982246 96.936741 
L 207.982246 96.988705 
L 208.982246 97.047795 
L 209.982246 97.136116 
L 210.982246 97.18226 
L 211.982246 97.224671 
L 212.982246 97.255164 
L 213.982246 97.281209 
L 214.982246 97.302409 
L 215.982246 97.35671 
L 216.982246 97.384648 
L 217.982246 97.414372 
L 218.982246 97.439766 
L 219.982246 97.450967 
L 220.982246 97.461091 
L 221.982246 97.460886 
L 222.982246 97.451377 
L 223.982246 97.439723 
L 224.982246 97.408694 
L 225.982246 97.397526 
L 226.982246 97.367408 
L 227.982246 97.307631 
L 228.982246 97.27044 
L 229.982246 97.231344 
L 230.982246 97.188904 
L 231.982246 97.156139 
L 232.982246 97.088713 
L 233.982246 97.049587 
L 234.982246 97.006912 
L 235.982246 96.936332 
L 236.982246 96.899941 
L 237.982246 96.841537 
L 238.982246 96.730585 
L 239.982246 96.659927 
L 240.982246 96.546987 
L 241.982246 96.501214 
L 242.982246 96.439931 
L 243.982246 96.391431 
L 244.982246 96.310609 
L 245.982246 96.19209 
L 246.982246 96.121879 
L 247.982246 96.038617 
L 248.982246 96.005475 
L 249.982246 95.954238 
L 250.982246 95.885839 
L 251.982246 95.819624 
L 252.982246 95.742707 
L 254.650368 95.715391 
" clip-path="url(#pe402e90176)" style="fill: none; stroke: #1f77b4; stroke-opacity: 0.5; stroke-width: 0.2; stroke-linecap: square"/>
   </g>
   <g id="line2d_2">
    <path d="M 197.982246 81.872331 
L 198.982246 81.903768 
L 199.982246 81.940708 
L 200.982246 82.038455 
L 201.982246 82.070976 
L 202.982246 82.144601 
L 203.982246 82.183167 
L 204.982246 82.21858 
L 205.982246 82.27622 
L 206.982246 82.346606 
L 207.982246 82.39857 
L 208.982246 82.45766 
L 209.982246 82.545981 
L 210.982246 82.592125 
L 211.982246 82.634536 
L 212.982246 82.665029 
L 213.982246 82.691074 
L 214.982246 82.712274 
L 215.982246 82.766575 
L 216.982246 82.794513 
L 217.982246 82.824236 
L 218.982246 82.849631 
L 219.982246 82.860832 
L 220.982246 82.870956 
L 221.982246 82.870751 
L 222.982246 82.861241 
L 223.982246 82.849588 
L 224.982246 82.818559 
L 225.982246 82.807391 
L 226.982246 82.777273 
L 227.982246 82.717496 
L 228.982246 82.680305 
L 229.982246 82.641209 
L 230.982246 82.598769 
L 231.982246 82.566004 
L 232.982246 82.498577 
L 233.982246 82.459451 
L 234.982246 82.416777 
L 235.982246 82.346196 
L 236.982246 82.309805 
L 237.982246 82.251402 
L 238.982246 82.14045 
L 239.982246 82.069791 
L 240.982246 81.956852 
L 241.982246 81.911079 
L 242.982246 81.849795 
L 243.982246 81.801296 
L 244.982246 81.720473 
L 245.982246 81.601954 
L 246.982246 81.531744 
L 247.982246 81.448481 
L 248.982246 81.41534 
L 249.982246 81.364102 
L 250.982246 81.295704 
L 251.982246 81.229489 
L 252.982246 81.152571 
L 254.650368 81.125256 
" clip-path="url(#pe402e90176)" style="fill: none; stroke: #1f77b4; stroke-opacity: 0.5; stroke-width: 0.2; stroke-linecap: square"/>
   </g>
   <g id="line2d_3">
    <path d="M 197.982246 143.543223 
L 198.982246 143.57466 
L 199.982246 143.6116 
L 200.982246 143.709347 
L 201.982246 143.741868 
L 202.982246 143.815493 
L 203.982246 143.854059 
L 204.982246 143.889472 
L 205.982246 143.947112 
L 206.982246 144.017498 
L 207.982246 144.069462 
L 208.982246 144.128552 
L 209.982246 144.216873 
L 210.982246 144.263017 
L 211.982246 144.305428 
L 212.982246 144.335921 
L 213.982246 144.361966 
L 214.982246 144.383166 
L 215.982246 144.437467 
L 216.982246 144.465404 
L 217.982246 144.495128 
L 218.982246 144.520523 
L 219.982246 144.531724 
L 220.982246 144.541848 
L 221.982246 144.541643 
L 222.982246 144.532133 
L 223.982246 144.52048 
L 224.982246 144.489451 
L 225.982246 144.478283 
L 226.982246 144.448165 
L 227.982246 144.388388 
L 228.982246 144.351197 
L 229.982246 144.312101 
L 230.982246 144.269661 
L 231.982246 144.236896 
L 232.982246 144.169469 
L 233.982246 144.130343 
L 234.982246 144.087669 
L 235.982246 144.017088 
L 236.982246 143.980697 
L 237.982246 143.922294 
L 238.982246 143.811342 
L 239.982246 143.740683 
L 240.982246 143.627743 
L 241.982246 143.581971 
L 242.982246 143.520687 
L 243.982246 143.472188 
L 244.982246 143.391365 
L 245.982246 143.272846 
L 246.982246 143.202636 
L 247.982246 143.119373 
L 248.982246 143.086232 
L 249.982246 143.034994 
L 250.982246 142.966596 
L 251.982246 142.90038 
L 252.982246 142.823463 
L 254.650368 142.796148 
" clip-path="url(#pe402e90176)" style="fill: none; stroke: #1f77b4; stroke-opacity: 0.5; stroke-width: 0.2; stroke-linecap: square"/>
   </g>
   <g id="line2d_4">
    <path d="M 197.982246 108.292034 
L 198.982246 108.32347 
L 199.982246 108.36041 
L 200.982246 108.458157 
L 201.982246 108.490679 
L 202.982246 108.564303 
L 203.982246 108.602869 
L 204.982246 108.638282 
L 205.982246 108.695922 
L 206.982246 108.766308 
L 207.982246 108.818272 
L 208.982246 108.877362 
L 209.982246 108.965683 
L 210.982246 109.011827 
L 211.982246 109.054238 
L 212.982246 109.084731 
L 213.982246 109.110776 
L 214.982246 109.131976 
L 215.982246 109.186277 
L 216.982246 109.214215 
L 217.982246 109.243939 
L 218.982246 109.269333 
L 219.982246 109.280534 
L 220.982246 109.290658 
L 221.982246 109.290453 
L 222.982246 109.280944 
L 223.982246 109.26929 
L 224.982246 109.238261 
L 225.982246 109.227093 
L 226.982246 109.196975 
L 227.982246 109.137198 
L 228.982246 109.100007 
L 229.982246 109.060911 
L 230.982246 109.018471 
L 231.982246 108.985706 
L 232.982246 108.91828 
L 233.982246 108.879154 
L 234.982246 108.836479 
L 235.982246 108.765898 
L 236.982246 108.729508 
L 237.982246 108.671104 
L 238.982246 108.560152 
L 239.982246 108.489494 
L 240.982246 108.376554 
L 241.982246 108.330781 
L 242.982246 108.269498 
L 243.982246 108.220998 
L 244.982246 108.140176 
L 245.982246 108.021657 
L 246.982246 107.951446 
L 247.982246 107.868184 
L 248.982246 107.835042 
L 249.982246 107.783804 
L 250.982246 107.715406 
L 251.982246 107.649191 
L 252.982246 107.572274 
L 254.650368 107.544958 
" clip-path="url(#pe402e90176)" style="fill: none; stroke: #1f77b4; stroke-opacity: 0.5; stroke-width: 0.2; stroke-linecap: square"/>
   </g>
   <g id="line2d_5">
    <path d="M 197.982246 154.835055 
L 198.982246 154.866491 
L 199.982246 154.903432 
L 200.982246 155.001178 
L 201.982246 155.0337 
L 202.982246 155.107325 
L 203.982246 155.14589 
L 204.982246 155.181303 
L 205.982246 155.238943 
L 206.982246 155.30933 
L 207.982246 155.361294 
L 208.982246 155.420384 
L 209.982246 155.508704 
L 210.982246 155.554849 
L 211.982246 155.59726 
L 212.982246 155.627752 
L 213.982246 155.653797 
L 214.982246 155.674997 
L 215.982246 155.729299 
L 216.982246 155.757236 
L 217.982246 155.78696 
L 218.982246 155.812355 
L 219.982246 155.823555 
L 220.982246 155.833679 
L 221.982246 155.833475 
L 222.982246 155.823965 
L 223.982246 155.812311 
L 224.982246 155.781282 
L 225.982246 155.770114 
L 226.982246 155.739997 
L 227.982246 155.68022 
L 228.982246 155.643028 
L 229.982246 155.603932 
L 230.982246 155.561493 
L 231.982246 155.528727 
L 232.982246 155.461301 
L 233.982246 155.422175 
L 234.982246 155.379501 
L 235.982246 155.30892 
L 236.982246 155.272529 
L 237.982246 155.214126 
L 238.982246 155.103173 
L 239.982246 155.032515 
L 240.982246 154.919575 
L 241.982246 154.873802 
L 242.982246 154.812519 
L 243.982246 154.76402 
L 244.982246 154.683197 
L 245.982246 154.564678 
L 246.982246 154.494467 
L 247.982246 154.411205 
L 248.982246 154.378063 
L 249.982246 154.326826 
L 250.982246 154.258428 
L 251.982246 154.192212 
L 252.982246 154.115295 
L 254.650368 154.08798 
" clip-path="url(#pe402e90176)" style="fill: none; stroke: #1f77b4; stroke-opacity: 0.5; stroke-width: 0.2; stroke-linecap: square"/>
   </g>
   <g id="line2d_6">
    <path d="M 197.982246 188.198688 
L 198.982246 188.230125 
L 199.982246 188.267065 
L 200.982246 188.364812 
L 201.982246 188.397333 
L 202.982246 188.470958 
L 203.982246 188.509523 
L 204.982246 188.544937 
L 205.982246 188.602576 
L 206.982246 188.672963 
L 207.982246 188.724927 
L 208.982246 188.784017 
L 209.982246 188.872338 
L 210.982246 188.918482 
L 211.982246 188.960893 
L 212.982246 188.991386 
L 213.982246 189.01743 
L 214.982246 189.038631 
L 215.982246 189.092932 
L 216.982246 189.120869 
L 217.982246 189.150593 
L 218.982246 189.175988 
L 219.982246 189.187188 
L 220.982246 189.197312 
L 221.982246 189.197108 
L 222.982246 189.187598 
L 223.982246 189.175945 
L 224.982246 189.144915 
L 225.982246 189.133747 
L 226.982246 189.10363 
L 227.982246 189.043853 
L 228.982246 189.006661 
L 229.982246 188.967565 
L 230.982246 188.925126 
L 231.982246 188.892361 
L 232.982246 188.824934 
L 233.982246 188.785808 
L 234.982246 188.743134 
L 235.982246 188.672553 
L 236.982246 188.636162 
L 237.982246 188.577759 
L 238.982246 188.466806 
L 239.982246 188.396148 
L 240.982246 188.283208 
L 241.982246 188.237435 
L 242.982246 188.176152 
L 243.982246 188.127653 
L 244.982246 188.04683 
L 245.982246 187.928311 
L 246.982246 187.858101 
L 247.982246 187.774838 
L 248.982246 187.741696 
L 249.982246 187.690459 
L 250.982246 187.622061 
L 251.982246 187.555845 
L 252.982246 187.478928 
L 254.650368 187.451613 
" clip-path="url(#pe402e90176)" style="fill: none; stroke: #1f77b4; stroke-opacity: 0.5; stroke-width: 0.2; stroke-linecap: square"/>
   </g>
   <g id="line2d_7">
    <path d="M 197.982246 93.498551 
L 198.982246 93.529988 
L 199.982246 93.566928 
L 200.982246 93.664675 
L 201.982246 93.697196 
L 202.982246 93.770821 
L 203.982246 93.809387 
L 204.982246 93.8448 
L 205.982246 93.90244 
L 206.982246 93.972826 
L 207.982246 94.02479 
L 208.982246 94.08388 
L 209.982246 94.172201 
L 210.982246 94.218345 
L 211.982246 94.260756 
L 212.982246 94.291249 
L 213.982246 94.317294 
L 214.982246 94.338494 
L 215.982246 94.392795 
L 216.982246 94.420732 
L 217.982246 94.450456 
L 218.982246 94.475851 
L 219.982246 94.487052 
L 220.982246 94.497176 
L 221.982246 94.496971 
L 222.982246 94.487461 
L 223.982246 94.475808 
L 224.982246 94.444778 
L 225.982246 94.433611 
L 226.982246 94.403493 
L 227.982246 94.343716 
L 228.982246 94.306525 
L 229.982246 94.267428 
L 230.982246 94.224989 
L 231.982246 94.192224 
L 232.982246 94.124797 
L 233.982246 94.085671 
L 234.982246 94.042997 
L 235.982246 93.972416 
L 236.982246 93.936025 
L 237.982246 93.877622 
L 238.982246 93.76667 
L 239.982246 93.696011 
L 240.982246 93.583071 
L 241.982246 93.537299 
L 242.982246 93.476015 
L 243.982246 93.427516 
L 244.982246 93.346693 
L 245.982246 93.228174 
L 246.982246 93.157964 
L 247.982246 93.074701 
L 248.982246 93.04156 
L 249.982246 92.990322 
L 250.982246 92.921924 
L 251.982246 92.855708 
L 252.982246 92.778791 
L 254.650368 92.751476 
" clip-path="url(#pe402e90176)" style="fill: none; stroke: #1f77b4; stroke-opacity: 0.5; stroke-width: 0.2; stroke-linecap: square"/>
   </g>
   <g id="line2d_8">
    <path d="M 197.982246 94.651434 
L 198.982246 94.68287 
L 199.982246 94.719811 
L 200.982246 94.817557 
L 201.982246 94.850079 
L 202.982246 94.923703 
L 203.982246 94.962269 
L 204.982246 94.997682 
L 205.982246 95.055322 
L 206.982246 95.125708 
L 207.982246 95.177672 
L 208.982246 95.236762 
L 209.982246 95.325083 
L 210.982246 95.371227 
L 211.982246 95.413638 
L 212.982246 95.444131 
L 213.982246 95.470176 
L 214.982246 95.491376 
L 215.982246 95.545677 
L 216.982246 95.573615 
L 217.982246 95.603339 
L 218.982246 95.628734 
L 219.982246 95.639934 
L 220.982246 95.650058 
L 221.982246 95.649854 
L 222.982246 95.640344 
L 223.982246 95.62869 
L 224.982246 95.597661 
L 225.982246 95.586493 
L 226.982246 95.556375 
L 227.982246 95.496598 
L 228.982246 95.459407 
L 229.982246 95.420311 
L 230.982246 95.377871 
L 231.982246 95.345106 
L 232.982246 95.27768 
L 233.982246 95.238554 
L 234.982246 95.195879 
L 235.982246 95.125299 
L 236.982246 95.088908 
L 237.982246 95.030505 
L 238.982246 94.919552 
L 239.982246 94.848894 
L 240.982246 94.735954 
L 241.982246 94.690181 
L 242.982246 94.628898 
L 243.982246 94.580398 
L 244.982246 94.499576 
L 245.982246 94.381057 
L 246.982246 94.310846 
L 247.982246 94.227584 
L 248.982246 94.194442 
L 249.982246 94.143205 
L 250.982246 94.074806 
L 251.982246 94.008591 
L 252.982246 93.931674 
L 254.650368 93.904358 
" clip-path="url(#pe402e90176)" style="fill: none; stroke: #1f77b4; stroke-opacity: 0.5; stroke-width: 0.2; stroke-linecap: square"/>
   </g>
   <g id="line2d_9">
    <path d="M 197.982246 124.555424 
L 198.982246 124.58686 
L 199.982246 124.6238 
L 200.982246 124.721547 
L 201.982246 124.754068 
L 202.982246 124.827693 
L 203.982246 124.866259 
L 204.982246 124.901672 
L 205.982246 124.959312 
L 206.982246 125.029698 
L 207.982246 125.081662 
L 208.982246 125.140752 
L 209.982246 125.229073 
L 210.982246 125.275217 
L 211.982246 125.317628 
L 212.982246 125.348121 
L 213.982246 125.374166 
L 214.982246 125.395366 
L 215.982246 125.449667 
L 216.982246 125.477605 
L 217.982246 125.507329 
L 218.982246 125.532723 
L 219.982246 125.543924 
L 220.982246 125.554048 
L 221.982246 125.553843 
L 222.982246 125.544334 
L 223.982246 125.53268 
L 224.982246 125.501651 
L 225.982246 125.490483 
L 226.982246 125.460365 
L 227.982246 125.400588 
L 228.982246 125.363397 
L 229.982246 125.324301 
L 230.982246 125.281861 
L 231.982246 125.249096 
L 232.982246 125.181669 
L 233.982246 125.142544 
L 234.982246 125.099869 
L 235.982246 125.029288 
L 236.982246 124.992898 
L 237.982246 124.934494 
L 238.982246 124.823542 
L 239.982246 124.752883 
L 240.982246 124.639944 
L 241.982246 124.594171 
L 242.982246 124.532888 
L 243.982246 124.484388 
L 244.982246 124.403566 
L 245.982246 124.285047 
L 246.982246 124.214836 
L 247.982246 124.131573 
L 248.982246 124.098432 
L 249.982246 124.047194 
L 250.982246 123.978796 
L 251.982246 123.912581 
L 252.982246 123.835664 
L 254.650368 123.808348 
" clip-path="url(#pe402e90176)" style="fill: none; stroke: #1f77b4; stroke-opacity: 0.5; stroke-width: 0.2; stroke-linecap: square"/>
   </g>
   <g id="line2d_10">
    <path d="M 197.982246 194.27254 
L 198.982246 194.303976 
L 199.982246 194.340916 
L 200.982246 194.438663 
L 201.982246 194.471184 
L 202.982246 194.544809 
L 203.982246 194.583375 
L 204.982246 194.618788 
L 205.982246 194.676428 
L 206.982246 194.746814 
L 207.982246 194.798778 
L 208.982246 194.857868 
L 209.982246 194.946189 
L 210.982246 194.992333 
L 211.982246 195.034744 
L 212.982246 195.065237 
L 213.982246 195.091282 
L 214.982246 195.112482 
L 215.982246 195.166783 
L 216.982246 195.194721 
L 217.982246 195.224445 
L 218.982246 195.249839 
L 219.982246 195.26104 
L 220.982246 195.271164 
L 221.982246 195.270959 
L 222.982246 195.261449 
L 223.982246 195.249796 
L 224.982246 195.218767 
L 225.982246 195.207599 
L 226.982246 195.177481 
L 227.982246 195.117704 
L 228.982246 195.080513 
L 229.982246 195.041417 
L 230.982246 194.998977 
L 231.982246 194.966212 
L 232.982246 194.898785 
L 233.982246 194.859659 
L 234.982246 194.816985 
L 235.982246 194.746404 
L 236.982246 194.710013 
L 237.982246 194.65161 
L 238.982246 194.540658 
L 239.982246 194.469999 
L 240.982246 194.35706 
L 241.982246 194.311287 
L 242.982246 194.250003 
L 243.982246 194.201504 
L 244.982246 194.120681 
L 245.982246 194.002163 
L 246.982246 193.931952 
L 247.982246 193.848689 
L 248.982246 193.815548 
L 249.982246 193.76431 
L 250.982246 193.695912 
L 251.982246 193.629697 
L 252.982246 193.552779 
L 254.650368 193.525464 
" clip-path="url(#pe402e90176)" style="fill: none; stroke: #1f77b4; stroke-opacity: 0.5; stroke-width: 0.2; stroke-linecap: square"/>
   </g>
   <g id="line2d_11">
    <path d="M 389.130882 137.770766 
L 390.130882 137.802203 
L 391.130882 137.839143 
L 392.130882 137.93689 
L 393.130882 137.969411 
L 394.130882 138.043036 
L 395.130882 138.081602 
L 396.130882 138.117015 
L 397.130882 138.174655 
L 398.130882 138.245041 
L 399.130882 138.297005 
L 400.130882 138.356095 
L 401.130882 138.444416 
L 402.130882 138.49056 
L 403.130882 138.532971 
L 404.130882 138.563464 
L 405.130882 138.589509 
L 406.130882 138.610709 
L 407.130882 138.66501 
L 408.130882 138.692947 
L 409.130882 138.722671 
L 410.130882 138.748066 
L 411.130882 138.759267 
L 412.130882 138.769391 
L 413.130882 138.769186 
L 414.130882 138.759676 
L 415.130882 138.748023 
L 416.130882 138.716994 
L 417.130882 138.705826 
L 418.130882 138.675708 
L 419.130882 138.615931 
L 420.130882 138.57874 
L 421.130882 138.539643 
L 422.130882 138.497204 
L 423.130882 138.464439 
L 424.130882 138.397012 
L 425.130882 138.357886 
L 426.130882 138.315212 
L 427.130882 138.244631 
L 428.130882 138.20824 
L 429.130882 138.149837 
L 430.130882 138.038885 
L 431.130882 137.968226 
L 432.130882 137.855286 
L 433.130882 137.809514 
L 434.130882 137.74823 
L 435.130882 137.699731 
L 436.130882 137.618908 
L 437.130882 137.500389 
L 438.130882 137.430179 
L 439.130882 137.346916 
L 440.130882 137.313775 
L 441.130882 137.262537 
L 442.130882 137.194139 
L 443.130882 137.127923 
L 444.130882 137.051006 
L 445.799004 137.023691 
" clip-path="url(#pe402e90176)" style="fill: none; stroke: #ff7f0e; stroke-opacity: 0.5; stroke-width: 0.2; stroke-linecap: square"/>
   </g>
   <g id="line2d_12">
    <path d="M 389.130882 185.312011 
L 390.130882 185.343447 
L 391.130882 185.380388 
L 392.130882 185.478134 
L 393.130882 185.510656 
L 394.130882 185.584281 
L 395.130882 185.622846 
L 396.130882 185.658259 
L 397.130882 185.715899 
L 398.130882 185.786285 
L 399.130882 185.83825 
L 400.130882 185.897339 
L 401.130882 185.98566 
L 402.130882 186.031805 
L 403.130882 186.074216 
L 404.130882 186.104708 
L 405.130882 186.130753 
L 406.130882 186.151953 
L 407.130882 186.206254 
L 408.130882 186.234192 
L 409.130882 186.263916 
L 410.130882 186.289311 
L 411.130882 186.300511 
L 412.130882 186.310635 
L 413.130882 186.310431 
L 414.130882 186.300921 
L 415.130882 186.289267 
L 416.130882 186.258238 
L 417.130882 186.24707 
L 418.130882 186.216953 
L 419.130882 186.157176 
L 420.130882 186.119984 
L 421.130882 186.080888 
L 422.130882 186.038448 
L 423.130882 186.005683 
L 424.130882 185.938257 
L 425.130882 185.899131 
L 426.130882 185.856456 
L 427.130882 185.785876 
L 428.130882 185.749485 
L 429.130882 185.691082 
L 430.130882 185.580129 
L 431.130882 185.509471 
L 432.130882 185.396531 
L 433.130882 185.350758 
L 434.130882 185.289475 
L 435.130882 185.240976 
L 436.130882 185.160153 
L 437.130882 185.041634 
L 438.130882 184.971423 
L 439.130882 184.888161 
L 440.130882 184.855019 
L 441.130882 184.803782 
L 442.130882 184.735383 
L 443.130882 184.669168 
L 444.130882 184.592251 
L 445.799004 184.564935 
" clip-path="url(#pe402e90176)" style="fill: none; stroke: #ff7f0e; stroke-opacity: 0.5; stroke-width: 0.2; stroke-linecap: square"/>
   </g>
   <g id="line2d_13">
    <path d="M 389.130882 97.688611 
L 390.130882 97.720047 
L 391.130882 97.756987 
L 392.130882 97.854734 
L 393.130882 97.887256 
L 394.130882 97.96088 
L 395.130882 97.999446 
L 396.130882 98.034859 
L 397.130882 98.092499 
L 398.130882 98.162885 
L 399.130882 98.214849 
L 400.130882 98.273939 
L 401.130882 98.36226 
L 402.130882 98.408404 
L 403.130882 98.450815 
L 404.130882 98.481308 
L 405.130882 98.507353 
L 406.130882 98.528553 
L 407.130882 98.582854 
L 408.130882 98.610792 
L 409.130882 98.640516 
L 410.130882 98.66591 
L 411.130882 98.677111 
L 412.130882 98.687235 
L 413.130882 98.68703 
L 414.130882 98.677521 
L 415.130882 98.665867 
L 416.130882 98.634838 
L 417.130882 98.62367 
L 418.130882 98.593552 
L 419.130882 98.533775 
L 420.130882 98.496584 
L 421.130882 98.457488 
L 422.130882 98.415048 
L 423.130882 98.382283 
L 424.130882 98.314856 
L 425.130882 98.275731 
L 426.130882 98.233056 
L 427.130882 98.162475 
L 428.130882 98.126085 
L 429.130882 98.067681 
L 430.130882 97.956729 
L 431.130882 97.88607 
L 432.130882 97.773131 
L 433.130882 97.727358 
L 434.130882 97.666075 
L 435.130882 97.617575 
L 436.130882 97.536753 
L 437.130882 97.418234 
L 438.130882 97.348023 
L 439.130882 97.264761 
L 440.130882 97.231619 
L 441.130882 97.180381 
L 442.130882 97.111983 
L 443.130882 97.045768 
L 444.130882 96.968851 
L 445.799004 96.941535 
" clip-path="url(#pe402e90176)" style="fill: none; stroke: #ff7f0e; stroke-opacity: 0.5; stroke-width: 0.2; stroke-linecap: square"/>
   </g>
   <g id="line2d_14">
    <path d="M 389.130882 182.968145 
L 390.130882 182.999581 
L 391.130882 183.036522 
L 392.130882 183.134268 
L 393.130882 183.16679 
L 394.130882 183.240414 
L 395.130882 183.27898 
L 396.130882 183.314393 
L 397.130882 183.372033 
L 398.130882 183.442419 
L 399.130882 183.494383 
L 400.130882 183.553473 
L 401.130882 183.641794 
L 402.130882 183.687939 
L 403.130882 183.730349 
L 404.130882 183.760842 
L 405.130882 183.786887 
L 406.130882 183.808087 
L 407.130882 183.862388 
L 408.130882 183.890326 
L 409.130882 183.92005 
L 410.130882 183.945445 
L 411.130882 183.956645 
L 412.130882 183.966769 
L 413.130882 183.966565 
L 414.130882 183.957055 
L 415.130882 183.945401 
L 416.130882 183.914372 
L 417.130882 183.903204 
L 418.130882 183.873086 
L 419.130882 183.81331 
L 420.130882 183.776118 
L 421.130882 183.737022 
L 422.130882 183.694582 
L 423.130882 183.661817 
L 424.130882 183.594391 
L 425.130882 183.555265 
L 426.130882 183.51259 
L 427.130882 183.44201 
L 428.130882 183.405619 
L 429.130882 183.347216 
L 430.130882 183.236263 
L 431.130882 183.165605 
L 432.130882 183.052665 
L 433.130882 183.006892 
L 434.130882 182.945609 
L 435.130882 182.897109 
L 436.130882 182.816287 
L 437.130882 182.697768 
L 438.130882 182.627557 
L 439.130882 182.544295 
L 440.130882 182.511153 
L 441.130882 182.459916 
L 442.130882 182.391517 
L 443.130882 182.325302 
L 444.130882 182.248385 
L 445.799004 182.221069 
" clip-path="url(#pe402e90176)" style="fill: none; stroke: #ff7f0e; stroke-opacity: 0.5; stroke-width: 0.2; stroke-linecap: square"/>
   </g>
   <g id="line2d_15">
    <path d="M 389.130882 178.764377 
L 390.130882 178.795813 
L 391.130882 178.832754 
L 392.130882 178.9305 
L 393.130882 178.963022 
L 394.130882 179.036646 
L 395.130882 179.075212 
L 396.130882 179.110625 
L 397.130882 179.168265 
L 398.130882 179.238651 
L 399.130882 179.290616 
L 400.130882 179.349705 
L 401.130882 179.438026 
L 402.130882 179.484171 
L 403.130882 179.526582 
L 404.130882 179.557074 
L 405.130882 179.583119 
L 406.130882 179.604319 
L 407.130882 179.65862 
L 408.130882 179.686558 
L 409.130882 179.716282 
L 410.130882 179.741677 
L 411.130882 179.752877 
L 412.130882 179.763001 
L 413.130882 179.762797 
L 414.130882 179.753287 
L 415.130882 179.741633 
L 416.130882 179.710604 
L 417.130882 179.699436 
L 418.130882 179.669319 
L 419.130882 179.609542 
L 420.130882 179.57235 
L 421.130882 179.533254 
L 422.130882 179.490814 
L 423.130882 179.458049 
L 424.130882 179.390623 
L 425.130882 179.351497 
L 426.130882 179.308822 
L 427.130882 179.238242 
L 428.130882 179.201851 
L 429.130882 179.143448 
L 430.130882 179.032495 
L 431.130882 178.961837 
L 432.130882 178.848897 
L 433.130882 178.803124 
L 434.130882 178.741841 
L 435.130882 178.693341 
L 436.130882 178.612519 
L 437.130882 178.494 
L 438.130882 178.423789 
L 439.130882 178.340527 
L 440.130882 178.307385 
L 441.130882 178.256148 
L 442.130882 178.187749 
L 443.130882 178.121534 
L 444.130882 178.044617 
L 445.799004 178.017301 
" clip-path="url(#pe402e90176)" style="fill: none; stroke: #ff7f0e; stroke-opacity: 0.5; stroke-width: 0.2; stroke-linecap: square"/>
   </g>
   <g id="line2d_16">
    <path d="M 389.130882 159.583726 
L 390.130882 159.615163 
L 391.130882 159.652103 
L 392.130882 159.74985 
L 393.130882 159.782371 
L 394.130882 159.855996 
L 395.130882 159.894561 
L 396.130882 159.929975 
L 397.130882 159.987615 
L 398.130882 160.058001 
L 399.130882 160.109965 
L 400.130882 160.169055 
L 401.130882 160.257376 
L 402.130882 160.30352 
L 403.130882 160.345931 
L 404.130882 160.376424 
L 405.130882 160.402468 
L 406.130882 160.423669 
L 407.130882 160.47797 
L 408.130882 160.505907 
L 409.130882 160.535631 
L 410.130882 160.561026 
L 411.130882 160.572226 
L 412.130882 160.58235 
L 413.130882 160.582146 
L 414.130882 160.572636 
L 415.130882 160.560983 
L 416.130882 160.529953 
L 417.130882 160.518785 
L 418.130882 160.488668 
L 419.130882 160.428891 
L 420.130882 160.391699 
L 421.130882 160.352603 
L 422.130882 160.310164 
L 423.130882 160.277399 
L 424.130882 160.209972 
L 425.130882 160.170846 
L 426.130882 160.128172 
L 427.130882 160.057591 
L 428.130882 160.0212 
L 429.130882 159.962797 
L 430.130882 159.851844 
L 431.130882 159.781186 
L 432.130882 159.668246 
L 433.130882 159.622473 
L 434.130882 159.56119 
L 435.130882 159.512691 
L 436.130882 159.431868 
L 437.130882 159.313349 
L 438.130882 159.243139 
L 439.130882 159.159876 
L 440.130882 159.126734 
L 441.130882 159.075497 
L 442.130882 159.007099 
L 443.130882 158.940883 
L 444.130882 158.863966 
L 445.799004 158.836651 
" clip-path="url(#pe402e90176)" style="fill: none; stroke: #ff7f0e; stroke-opacity: 0.5; stroke-width: 0.2; stroke-linecap: square"/>
   </g>
   <g id="line2d_17">
    <path d="M 389.130882 150.781528 
L 390.130882 150.812964 
L 391.130882 150.849905 
L 392.130882 150.947651 
L 393.130882 150.980173 
L 394.130882 151.053797 
L 395.130882 151.092363 
L 396.130882 151.127776 
L 397.130882 151.185416 
L 398.130882 151.255802 
L 399.130882 151.307766 
L 400.130882 151.366856 
L 401.130882 151.455177 
L 402.130882 151.501321 
L 403.130882 151.543732 
L 404.130882 151.574225 
L 405.130882 151.60027 
L 406.130882 151.62147 
L 407.130882 151.675771 
L 408.130882 151.703709 
L 409.130882 151.733433 
L 410.130882 151.758828 
L 411.130882 151.770028 
L 412.130882 151.780152 
L 413.130882 151.779948 
L 414.130882 151.770438 
L 415.130882 151.758784 
L 416.130882 151.727755 
L 417.130882 151.716587 
L 418.130882 151.686469 
L 419.130882 151.626693 
L 420.130882 151.589501 
L 421.130882 151.550405 
L 422.130882 151.507965 
L 423.130882 151.4752 
L 424.130882 151.407774 
L 425.130882 151.368648 
L 426.130882 151.325973 
L 427.130882 151.255393 
L 428.130882 151.219002 
L 429.130882 151.160599 
L 430.130882 151.049646 
L 431.130882 150.978988 
L 432.130882 150.866048 
L 433.130882 150.820275 
L 434.130882 150.758992 
L 435.130882 150.710492 
L 436.130882 150.62967 
L 437.130882 150.511151 
L 438.130882 150.44094 
L 439.130882 150.357678 
L 440.130882 150.324536 
L 441.130882 150.273299 
L 442.130882 150.2049 
L 443.130882 150.138685 
L 444.130882 150.061768 
L 445.799004 150.034452 
" clip-path="url(#pe402e90176)" style="fill: none; stroke: #ff7f0e; stroke-opacity: 0.5; stroke-width: 0.2; stroke-linecap: square"/>
   </g>
   <g id="line2d_18">
    <path d="M 389.130882 169.293945 
L 390.130882 169.325382 
L 391.130882 169.362322 
L 392.130882 169.460068 
L 393.130882 169.49259 
L 394.130882 169.566215 
L 395.130882 169.60478 
L 396.130882 169.640193 
L 397.130882 169.697833 
L 398.130882 169.76822 
L 399.130882 169.820184 
L 400.130882 169.879274 
L 401.130882 169.967595 
L 402.130882 170.013739 
L 403.130882 170.05615 
L 404.130882 170.086642 
L 405.130882 170.112687 
L 406.130882 170.133887 
L 407.130882 170.188189 
L 408.130882 170.216126 
L 409.130882 170.24585 
L 410.130882 170.271245 
L 411.130882 170.282445 
L 412.130882 170.292569 
L 413.130882 170.292365 
L 414.130882 170.282855 
L 415.130882 170.271202 
L 416.130882 170.240172 
L 417.130882 170.229004 
L 418.130882 170.198887 
L 419.130882 170.13911 
L 420.130882 170.101918 
L 421.130882 170.062822 
L 422.130882 170.020383 
L 423.130882 169.987617 
L 424.130882 169.920191 
L 425.130882 169.881065 
L 426.130882 169.838391 
L 427.130882 169.76781 
L 428.130882 169.731419 
L 429.130882 169.673016 
L 430.130882 169.562063 
L 431.130882 169.491405 
L 432.130882 169.378465 
L 433.130882 169.332692 
L 434.130882 169.271409 
L 435.130882 169.22291 
L 436.130882 169.142087 
L 437.130882 169.023568 
L 438.130882 168.953358 
L 439.130882 168.870095 
L 440.130882 168.836953 
L 441.130882 168.785716 
L 442.130882 168.717318 
L 443.130882 168.651102 
L 444.130882 168.574185 
L 445.799004 168.54687 
" clip-path="url(#pe402e90176)" style="fill: none; stroke: #ff7f0e; stroke-opacity: 0.5; stroke-width: 0.2; stroke-linecap: square"/>
   </g>
   <g id="line2d_19">
    <path d="M 389.130882 110.92565 
L 390.130882 110.957087 
L 391.130882 110.994027 
L 392.130882 111.091773 
L 393.130882 111.124295 
L 394.130882 111.19792 
L 395.130882 111.236485 
L 396.130882 111.271898 
L 397.130882 111.329538 
L 398.130882 111.399925 
L 399.130882 111.451889 
L 400.130882 111.510979 
L 401.130882 111.5993 
L 402.130882 111.645444 
L 403.130882 111.687855 
L 404.130882 111.718347 
L 405.130882 111.744392 
L 406.130882 111.765592 
L 407.130882 111.819894 
L 408.130882 111.847831 
L 409.130882 111.877555 
L 410.130882 111.90295 
L 411.130882 111.91415 
L 412.130882 111.924274 
L 413.130882 111.92407 
L 414.130882 111.91456 
L 415.130882 111.902906 
L 416.130882 111.871877 
L 417.130882 111.860709 
L 418.130882 111.830592 
L 419.130882 111.770815 
L 420.130882 111.733623 
L 421.130882 111.694527 
L 422.130882 111.652088 
L 423.130882 111.619322 
L 424.130882 111.551896 
L 425.130882 111.51277 
L 426.130882 111.470096 
L 427.130882 111.399515 
L 428.130882 111.363124 
L 429.130882 111.304721 
L 430.130882 111.193768 
L 431.130882 111.12311 
L 432.130882 111.01017 
L 433.130882 110.964397 
L 434.130882 110.903114 
L 435.130882 110.854615 
L 436.130882 110.773792 
L 437.130882 110.655273 
L 438.130882 110.585062 
L 439.130882 110.5018 
L 440.130882 110.468658 
L 441.130882 110.417421 
L 442.130882 110.349023 
L 443.130882 110.282807 
L 444.130882 110.20589 
L 445.799004 110.178575 
" clip-path="url(#pe402e90176)" style="fill: none; stroke: #ff7f0e; stroke-opacity: 0.5; stroke-width: 0.2; stroke-linecap: square"/>
   </g>
   <g id="line2d_20">
    <path d="M 389.130882 96.291707 
L 390.130882 96.323143 
L 391.130882 96.360083 
L 392.130882 96.45783 
L 393.130882 96.490352 
L 394.130882 96.563976 
L 395.130882 96.602542 
L 396.130882 96.637955 
L 397.130882 96.695595 
L 398.130882 96.765981 
L 399.130882 96.817945 
L 400.130882 96.877035 
L 401.130882 96.965356 
L 402.130882 97.0115 
L 403.130882 97.053911 
L 404.130882 97.084404 
L 405.130882 97.110449 
L 406.130882 97.131649 
L 407.130882 97.18595 
L 408.130882 97.213888 
L 409.130882 97.243612 
L 410.130882 97.269006 
L 411.130882 97.280207 
L 412.130882 97.290331 
L 413.130882 97.290126 
L 414.130882 97.280617 
L 415.130882 97.268963 
L 416.130882 97.237934 
L 417.130882 97.226766 
L 418.130882 97.196648 
L 419.130882 97.136871 
L 420.130882 97.09968 
L 421.130882 97.060584 
L 422.130882 97.018144 
L 423.130882 96.985379 
L 424.130882 96.917952 
L 425.130882 96.878827 
L 426.130882 96.836152 
L 427.130882 96.765571 
L 428.130882 96.729181 
L 429.130882 96.670777 
L 430.130882 96.559825 
L 431.130882 96.489166 
L 432.130882 96.376227 
L 433.130882 96.330454 
L 434.130882 96.269171 
L 435.130882 96.220671 
L 436.130882 96.139849 
L 437.130882 96.02133 
L 438.130882 95.951119 
L 439.130882 95.867857 
L 440.130882 95.834715 
L 441.130882 95.783477 
L 442.130882 95.715079 
L 443.130882 95.648864 
L 444.130882 95.571947 
L 445.799004 95.544631 
" clip-path="url(#pe402e90176)" style="fill: none; stroke: #ff7f0e; stroke-opacity: 0.5; stroke-width: 0.2; stroke-linecap: square"/>
   </g>
   <g id="patch_3">
    <path d="M 69.06392 22.318125 
L 69.06392 318.021875 
M 192.420059 22.318125 
L 192.420059 318.021875 
" clip-path="url(#pe402e90176)" style="fill: none; stroke: #ffffff; stroke-width: 3; stroke-linejoin: miter"/>
    <path d="M 69.06392 22.318125 
L 69.06392 318.021875 
M 192.420059 22.318125 
L 192.420059 318.021875 
" clip-path="url(#pe402e90176)" style="fill: none; stroke: #1f77b4; stroke-linejoin: miter"/>
   </g>
   <g id="FillBetweenPolyCollection_1">
    <path d="M 192.420059 22.318125 
L 69.06392 22.318125 
L 69.06392 318.021875 
L 192.420059 318.021875 
L 192.420059 318.021875 
L 192.420059 22.318125 
z
" clip-path="url(#pe402e90176)" style="fill: #1f77b4; fill-opacity: 0.5"/>
   </g>
   <g id="patch_4">
    <path d="M 260.212556 22.318125 
L 260.212556 318.021875 
M 383.568694 22.318125 
L 383.568694 318.021875 
" clip-path="url(#pe402e90176)" style="fill: none; stroke: #ffffff; stroke-width: 3; stroke-linejoin: miter"/>
    <path d="M 260.212556 22.318125 
L 260.212556 318.021875 
M 383.568694 22.318125 
L 383.568694 318.021875 
" clip-path="url(#pe402e90176)" style="fill: none; stroke: #ff7f0e; stroke-linejoin: miter"/>
   </g>
   <g id="FillBetweenPolyCollection_2">
    <path d="M 383.568694 22.318125 
L 260.212556 22.318125 
L 260.212556 318.021875 
L 383.568694 318.021875 
L 383.568694 318.021875 
L 383.568694 22.318125 
z
" clip-path="url(#pe402e90176)" style="fill: #ff7f0e; fill-opacity: 0.5"/>
   </g>
   <g id="patch_5">
    <path d="M 451.361191 22.318125 
L 451.361191 318.021875 
M 574.71733 22.318125 
L 574.71733 318.021875 
" clip-path="url(#pe402e90176)" style="fill: none; stroke: #ffffff; stroke-width: 3; stroke-linejoin: miter"/>
    <path d="M 451.361191 22.318125 
L 451.361191 318.021875 
M 574.71733 22.318125 
L 574.71733 318.021875 
" clip-path="url(#pe402e90176)" style="fill: none; stroke: #2ca02c; stroke-linejoin: miter"/>
   </g>
   <g id="FillBetweenPolyCollection_3">
    <path d="M 574.71733 22.318125 
L 451.361191 22.318125 
L 451.361191 318.021875 
L 574.71733 318.021875 
L 574.71733 318.021875 
L 574.71733 22.318125 
z
" clip-path="url(#pe402e90176)" style="fill: #2ca02c; fill-opacity: 0.5"/>
   </g>
   <g id="matplotlib.axis_1">
    <g id="xtick_1">
     <g id="line2d_21"/>
     <g id="text_1">
      <!-- deme0 -->
      <g transform="translate(113.363083 329.120312) scale(0.1 -0.1)">
       <defs>
        <path id="DejaVuSans-64" d="M 2906 2969 
L 2906 4863 
L 3481 4863 
L 3481 0 
L 2906 0 
L 2906 525 
Q 2725 213 2448 61 
Q 2172 -91 1784 -91 
Q 1150 -91 751 415 
Q 353 922 353 1747 
Q 353 2572 751 3078 
Q 1150 3584 1784 3584 
Q 2172 3584 2448 3432 
Q 2725 3281 2906 2969 
z
M 947 1747 
Q 947 1113 1208 752 
Q 1469 391 1925 391 
Q 2381 391 2643 752 
Q 2906 1113 2906 1747 
Q 2906 2381 2643 2742 
Q 2381 3103 1925 3103 
Q 1469 3103 1208 2742 
Q 947 2381 947 1747 
z
" transform="scale(0.015625)"/>
        <path id="DejaVuSans-65" d="M 3597 1894 
L 3597 1613 
L 953 1613 
Q 991 1019 1311 708 
Q 1631 397 2203 397 
Q 2534 397 2845 478 
Q 3156 559 3463 722 
L 3463 178 
Q 3153 47 2828 -22 
Q 2503 -91 2169 -91 
Q 1331 -91 842 396 
Q 353 884 353 1716 
Q 353 2575 817 3079 
Q 1281 3584 2069 3584 
Q 2775 3584 3186 3129 
Q 3597 2675 3597 1894 
z
M 3022 2063 
Q 3016 2534 2758 2815 
Q 2500 3097 2075 3097 
Q 1594 3097 1305 2825 
Q 1016 2553 972 2059 
L 3022 2063 
z
" transform="scale(0.015625)"/>
        <path id="DejaVuSans-6d" d="M 3328 2828 
Q 3544 3216 3844 3400 
Q 4144 3584 4550 3584 
Q 5097 3584 5394 3201 
Q 5691 2819 5691 2113 
L 5691 0 
L 5113 0 
L 5113 2094 
Q 5113 2597 4934 2840 
Q 4756 3084 4391 3084 
Q 3944 3084 3684 2787 
Q 3425 2491 3425 1978 
L 3425 0 
L 2847 0 
L 2847 2094 
Q 2847 2600 2669 2842 
Q 2491 3084 2119 3084 
Q 1678 3084 1418 2786 
Q 1159 2488 1159 1978 
L 1159 0 
L 581 0 
L 581 3500 
L 1159 3500 
L 1159 2956 
Q 1356 3278 1631 3431 
Q 1906 3584 2284 3584 
Q 2666 3584 2933 3390 
Q 3200 3197 3328 2828 
z
" transform="scale(0.015625)"/>
        <path id="DejaVuSans-30" d="M 2034 4250 
Q 1547 4250 1301 3770 
Q 1056 3291 1056 2328 
Q 1056 1369 1301 889 
Q 1547 409 2034 409 
Q 2525 409 2770 889 
Q 3016 1369 3016 2328 
Q 3016 3291 2770 3770 
Q 2525 4250 2034 4250 
z
M 2034 4750 
Q 2819 4750 3233 4129 
Q 3647 3509 3647 2328 
Q 3647 1150 3233 529 
Q 2819 -91 2034 -91 
Q 1250 -91 836 529 
Q 422 1150 422 2328 
Q 422 3509 836 4129 
Q 1250 4750 2034 4750 
z
" transform="scale(0.015625)"/>
       </defs>
       <use xlink:href="#DejaVuSans-64"/>
       <use xlink:href="#DejaVuSans-65" transform="translate(63.476562 0)"/>
       <use xlink:href="#DejaVuSans-6d" transform="translate(125 0)"/>
       <use xlink:href="#DejaVuSans-65" transform="translate(222.412109 0)"/>
       <use xlink:href="#DejaVuSans-30" transform="translate(283.935547 0)"/>
      </g>
     </g>
    </g>
    <g id="xtick_2">
     <g id="line2d_22"/>
     <g id="text_2">
      <!-- deme1 -->
      <g transform="translate(304.511719 329.120312) scale(0.1 -0.1)">
       <defs>
        <path id="DejaVuSans-31" d="M 794 531 
L 1825 531 
L 1825 4091 
L 703 3866 
L 703 4441 
L 1819 4666 
L 2450 4666 
L 2450 531 
L 3481 531 
L 3481 0 
L 794 0 
L 794 531 
z
" transform="scale(0.015625)"/>
       </defs>
       <use xlink:href="#DejaVuSans-64"/>
       <use xlink:href="#DejaVuSans-65" transform="translate(63.476562 0)"/>
       <use xlink:href="#DejaVuSans-6d" transform="translate(125 0)"/>
       <use xlink:href="#DejaVuSans-65" transform="translate(222.412109 0)"/>
       <use xlink:href="#DejaVuSans-31" transform="translate(283.935547 0)"/>
      </g>
     </g>
    </g>
    <g id="xtick_3">
     <g id="line2d_23"/>
     <g id="text_3">
      <!-- deme2 -->
      <g transform="translate(495.660354 329.120312) scale(0.1 -0.1)">
       <defs>
        <path id="DejaVuSans-32" d="M 1228 531 
L 3431 531 
L 3431 0 
L 469 0 
L 469 531 
Q 828 903 1448 1529 
Q 2069 2156 2228 2338 
Q 2531 2678 2651 2914 
Q 2772 3150 2772 3378 
Q 2772 3750 2511 3984 
Q 2250 4219 1831 4219 
Q 1534 4219 1204 4116 
Q 875 4013 500 3803 
L 500 4441 
Q 881 4594 1212 4672 
Q 1544 4750 1819 4750 
Q 2544 4750 2975 4387 
Q 3406 4025 3406 3419 
Q 3406 3131 3298 2873 
Q 3191 2616 2906 2266 
Q 2828 2175 2409 1742 
Q 1991 1309 1228 531 
z
" transform="scale(0.015625)"/>
       </defs>
       <use xlink:href="#DejaVuSans-64"/>
       <use xlink:href="#DejaVuSans-65" transform="translate(63.476562 0)"/>
       <use xlink:href="#DejaVuSans-6d" transform="translate(125 0)"/>
       <use xlink:href="#DejaVuSans-65" transform="translate(222.412109 0)"/>
       <use xlink:href="#DejaVuSans-32" transform="translate(283.935547 0)"/>
      </g>
     </g>
    </g>
   </g>
   <g id="matplotlib.axis_2">
    <g id="ytick_1">
     <g id="line2d_24">
      <defs>
       <path id="medd6921fe3" d="M 0 0 
L -3.5 0 
" style="stroke: #000000; stroke-width: 0.8"/>
      </defs>
      <g>
       <use xlink:href="#medd6921fe3" x="43.78125" y="318.021875" style="stroke: #000000; stroke-width: 0.8"/>
      </g>
     </g>
     <g id="text_4">
      <!-- 0.0 -->
      <g transform="translate(20.878125 321.821094) scale(0.1 -0.1)">
       <defs>
        <path id="DejaVuSans-2e" d="M 684 794 
L 1344 794 
L 1344 0 
L 684 0 
L 684 794 
z
" transform="scale(0.015625)"/>
       </defs>
       <use xlink:href="#DejaVuSans-30"/>
       <use xlink:href="#DejaVuSans-2e" transform="translate(63.623047 0)"/>
       <use xlink:href="#DejaVuSans-30" transform="translate(95.410156 0)"/>
      </g>
     </g>
    </g>
    <g id="ytick_2">
     <g id="line2d_25">
      <g>
       <use xlink:href="#medd6921fe3" x="43.78125" y="258.881125" style="stroke: #000000; stroke-width: 0.8"/>
      </g>
     </g>
     <g id="text_5">
      <!-- 0.5 -->
      <g transform="translate(20.878125 262.680344) scale(0.1 -0.1)">
       <defs>
        <path id="DejaVuSans-35" d="M 691 4666 
L 3169 4666 
L 3169 4134 
L 1269 4134 
L 1269 2991 
Q 1406 3038 1543 3061 
Q 1681 3084 1819 3084 
Q 2600 3084 3056 2656 
Q 3513 2228 3513 1497 
Q 3513 744 3044 326 
Q 2575 -91 1722 -91 
Q 1428 -91 1123 -41 
Q 819 9 494 109 
L 494 744 
Q 775 591 1075 516 
Q 1375 441 1709 441 
Q 2250 441 2565 725 
Q 2881 1009 2881 1497 
Q 2881 1984 2565 2268 
Q 2250 2553 1709 2553 
Q 1456 2553 1204 2497 
Q 953 2441 691 2322 
L 691 4666 
z
" transform="scale(0.015625)"/>
       </defs>
       <use xlink:href="#DejaVuSans-30"/>
       <use xlink:href="#DejaVuSans-2e" transform="translate(63.623047 0)"/>
       <use xlink:href="#DejaVuSans-35" transform="translate(95.410156 0)"/>
      </g>
     </g>
    </g>
    <g id="ytick_3">
     <g id="line2d_26">
      <g>
       <use xlink:href="#medd6921fe3" x="43.78125" y="199.740375" style="stroke: #000000; stroke-width: 0.8"/>
      </g>
     </g>
     <g id="text_6">
      <!-- 1.0 -->
      <g transform="translate(20.878125 203.539594) scale(0.1 -0.1)">
       <use xlink:href="#DejaVuSans-31"/>
       <use xlink:href="#DejaVuSans-2e" transform="translate(63.623047 0)"/>
       <use xlink:href="#DejaVuSans-30" transform="translate(95.410156 0)"/>
      </g>
     </g>
    </g>
    <g id="ytick_4">
     <g id="line2d_27">
      <g>
       <use xlink:href="#medd6921fe3" x="43.78125" y="140.599625" style="stroke: #000000; stroke-width: 0.8"/>
      </g>
     </g>
     <g id="text_7">
      <!-- 1.5 -->
      <g transform="translate(20.878125 144.398844) scale(0.1 -0.1)">
       <use xlink:href="#DejaVuSans-31"/>
       <use xlink:href="#DejaVuSans-2e" transform="translate(63.623047 0)"/>
       <use xlink:href="#DejaVuSans-35" transform="translate(95.410156 0)"/>
      </g>
     </g>
    </g>
    <g id="ytick_5">
     <g id="line2d_28">
      <g>
       <use xlink:href="#medd6921fe3" x="43.78125" y="81.458875" style="stroke: #000000; stroke-width: 0.8"/>
      </g>
     </g>
     <g id="text_8">
      <!-- 2.0 -->
      <g transform="translate(20.878125 85.258094) scale(0.1 -0.1)">
       <use xlink:href="#DejaVuSans-32"/>
       <use xlink:href="#DejaVuSans-2e" transform="translate(63.623047 0)"/>
       <use xlink:href="#DejaVuSans-30" transform="translate(95.410156 0)"/>
      </g>
     </g>
    </g>
    <g id="ytick_6">
     <g id="line2d_29">
      <g>
       <use xlink:href="#medd6921fe3" x="43.78125" y="22.318125" style="stroke: #000000; stroke-width: 0.8"/>
      </g>
     </g>
     <g id="text_9">
      <!-- 2.5 -->
      <g transform="translate(20.878125 26.117344) scale(0.1 -0.1)">
       <use xlink:href="#DejaVuSans-32"/>
       <use xlink:href="#DejaVuSans-2e" transform="translate(63.623047 0)"/>
       <use xlink:href="#DejaVuSans-35" transform="translate(95.410156 0)"/>
      </g>
     </g>
    </g>
    <g id="text_10">
     <!-- time ago (generations) -->
     <g transform="translate(14.798438 227.641094) rotate(-90) scale(0.1 -0.1)">
      <defs>
       <path id="DejaVuSans-74" d="M 1172 4494 
L 1172 3500 
L 2356 3500 
L 2356 3053 
L 1172 3053 
L 1172 1153 
Q 1172 725 1289 603 
Q 1406 481 1766 481 
L 2356 481 
L 2356 0 
L 1766 0 
Q 1100 0 847 248 
Q 594 497 594 1153 
L 594 3053 
L 172 3053 
L 172 3500 
L 594 3500 
L 594 4494 
L 1172 4494 
z
" transform="scale(0.015625)"/>
       <path id="DejaVuSans-69" d="M 603 3500 
L 1178 3500 
L 1178 0 
L 603 0 
L 603 3500 
z
M 603 4863 
L 1178 4863 
L 1178 4134 
L 603 4134 
L 603 4863 
z
" transform="scale(0.015625)"/>
       <path id="DejaVuSans-20" transform="scale(0.015625)"/>
       <path id="DejaVuSans-61" d="M 2194 1759 
Q 1497 1759 1228 1600 
Q 959 1441 959 1056 
Q 959 750 1161 570 
Q 1363 391 1709 391 
Q 2188 391 2477 730 
Q 2766 1069 2766 1631 
L 2766 1759 
L 2194 1759 
z
M 3341 1997 
L 3341 0 
L 2766 0 
L 2766 531 
Q 2569 213 2275 61 
Q 1981 -91 1556 -91 
Q 1019 -91 701 211 
Q 384 513 384 1019 
Q 384 1609 779 1909 
Q 1175 2209 1959 2209 
L 2766 2209 
L 2766 2266 
Q 2766 2663 2505 2880 
Q 2244 3097 1772 3097 
Q 1472 3097 1187 3025 
Q 903 2953 641 2809 
L 641 3341 
Q 956 3463 1253 3523 
Q 1550 3584 1831 3584 
Q 2591 3584 2966 3190 
Q 3341 2797 3341 1997 
z
" transform="scale(0.015625)"/>
       <path id="DejaVuSans-67" d="M 2906 1791 
Q 2906 2416 2648 2759 
Q 2391 3103 1925 3103 
Q 1463 3103 1205 2759 
Q 947 2416 947 1791 
Q 947 1169 1205 825 
Q 1463 481 1925 481 
Q 2391 481 2648 825 
Q 2906 1169 2906 1791 
z
M 3481 434 
Q 3481 -459 3084 -895 
Q 2688 -1331 1869 -1331 
Q 1566 -1331 1297 -1286 
Q 1028 -1241 775 -1147 
L 775 -588 
Q 1028 -725 1275 -790 
Q 1522 -856 1778 -856 
Q 2344 -856 2625 -561 
Q 2906 -266 2906 331 
L 2906 616 
Q 2728 306 2450 153 
Q 2172 0 1784 0 
Q 1141 0 747 490 
Q 353 981 353 1791 
Q 353 2603 747 3093 
Q 1141 3584 1784 3584 
Q 2172 3584 2450 3431 
Q 2728 3278 2906 2969 
L 2906 3500 
L 3481 3500 
L 3481 434 
z
" transform="scale(0.015625)"/>
       <path id="DejaVuSans-6f" d="M 1959 3097 
Q 1497 3097 1228 2736 
Q 959 2375 959 1747 
Q 959 1119 1226 758 
Q 1494 397 1959 397 
Q 2419 397 2687 759 
Q 2956 1122 2956 1747 
Q 2956 2369 2687 2733 
Q 2419 3097 1959 3097 
z
M 1959 3584 
Q 2709 3584 3137 3096 
Q 3566 2609 3566 1747 
Q 3566 888 3137 398 
Q 2709 -91 1959 -91 
Q 1206 -91 779 398 
Q 353 888 353 1747 
Q 353 2609 779 3096 
Q 1206 3584 1959 3584 
z
" transform="scale(0.015625)"/>
       <path id="DejaVuSans-28" d="M 1984 4856 
Q 1566 4138 1362 3434 
Q 1159 2731 1159 2009 
Q 1159 1288 1364 580 
Q 1569 -128 1984 -844 
L 1484 -844 
Q 1016 -109 783 600 
Q 550 1309 550 2009 
Q 550 2706 781 3412 
Q 1013 4119 1484 4856 
L 1984 4856 
z
" transform="scale(0.015625)"/>
       <path id="DejaVuSans-6e" d="M 3513 2113 
L 3513 0 
L 2938 0 
L 2938 2094 
Q 2938 2591 2744 2837 
Q 2550 3084 2163 3084 
Q 1697 3084 1428 2787 
Q 1159 2491 1159 1978 
L 1159 0 
L 581 0 
L 581 3500 
L 1159 3500 
L 1159 2956 
Q 1366 3272 1645 3428 
Q 1925 3584 2291 3584 
Q 2894 3584 3203 3211 
Q 3513 2838 3513 2113 
z
" transform="scale(0.015625)"/>
       <path id="DejaVuSans-72" d="M 2631 2963 
Q 2534 3019 2420 3045 
Q 2306 3072 2169 3072 
Q 1681 3072 1420 2755 
Q 1159 2438 1159 1844 
L 1159 0 
L 581 0 
L 581 3500 
L 1159 3500 
L 1159 2956 
Q 1341 3275 1631 3429 
Q 1922 3584 2338 3584 
Q 2397 3584 2469 3576 
Q 2541 3569 2628 3553 
L 2631 2963 
z
" transform="scale(0.015625)"/>
       <path id="DejaVuSans-73" d="M 2834 3397 
L 2834 2853 
Q 2591 2978 2328 3040 
Q 2066 3103 1784 3103 
Q 1356 3103 1142 2972 
Q 928 2841 928 2578 
Q 928 2378 1081 2264 
Q 1234 2150 1697 2047 
L 1894 2003 
Q 2506 1872 2764 1633 
Q 3022 1394 3022 966 
Q 3022 478 2636 193 
Q 2250 -91 1575 -91 
Q 1294 -91 989 -36 
Q 684 19 347 128 
L 347 722 
Q 666 556 975 473 
Q 1284 391 1588 391 
Q 1994 391 2212 530 
Q 2431 669 2431 922 
Q 2431 1156 2273 1281 
Q 2116 1406 1581 1522 
L 1381 1569 
Q 847 1681 609 1914 
Q 372 2147 372 2553 
Q 372 3047 722 3315 
Q 1072 3584 1716 3584 
Q 2034 3584 2315 3537 
Q 2597 3491 2834 3397 
z
" transform="scale(0.015625)"/>
       <path id="DejaVuSans-29" d="M 513 4856 
L 1013 4856 
Q 1481 4119 1714 3412 
Q 1947 2706 1947 2009 
Q 1947 1309 1714 600 
Q 1481 -109 1013 -844 
L 513 -844 
Q 928 -128 1133 580 
Q 1338 1288 1338 2009 
Q 1338 2731 1133 3434 
Q 928 4138 513 4856 
z
" transform="scale(0.015625)"/>
      </defs>
      <use xlink:href="#DejaVuSans-74"/>
      <use xlink:href="#DejaVuSans-69" transform="translate(39.208984 0)"/>
      <use xlink:href="#DejaVuSans-6d" transform="translate(66.992188 0)"/>
      <use xlink:href="#DejaVuSans-65" transform="translate(164.404297 0)"/>
      <use xlink:href="#DejaVuSans-20" transform="translate(225.927734 0)"/>
      <use xlink:href="#DejaVuSans-61" transform="translate(257.714844 0)"/>
      <use xlink:href="#DejaVuSans-67" transform="translate(318.994141 0)"/>
      <use xlink:href="#DejaVuSans-6f" transform="translate(382.470703 0)"/>
      <use xlink:href="#DejaVuSans-20" transform="translate(443.652344 0)"/>
      <use xlink:href="#DejaVuSans-28" transform="translate(475.439453 0)"/>
      <use xlink:href="#DejaVuSans-67" transform="translate(514.453125 0)"/>
      <use xlink:href="#DejaVuSans-65" transform="translate(577.929688 0)"/>
      <use xlink:href="#DejaVuSans-6e" transform="translate(639.453125 0)"/>
      <use xlink:href="#DejaVuSans-65" transform="translate(702.832031 0)"/>
      <use xlink:href="#DejaVuSans-72" transform="translate(764.355469 0)"/>
      <use xlink:href="#DejaVuSans-61" transform="translate(805.46875 0)"/>
      <use xlink:href="#DejaVuSans-74" transform="translate(866.748047 0)"/>
      <use xlink:href="#DejaVuSans-69" transform="translate(905.957031 0)"/>
      <use xlink:href="#DejaVuSans-6f" transform="translate(933.740234 0)"/>
      <use xlink:href="#DejaVuSans-6e" transform="translate(994.921875 0)"/>
      <use xlink:href="#DejaVuSans-73" transform="translate(1058.300781 0)"/>
      <use xlink:href="#DejaVuSans-29" transform="translate(1110.400391 0)"/>
     </g>
    </g>
   </g>
   <g id="line2d_30">
    <path d="M 255.650368 96.462467 
L 253.650368 95.462467 
L 253.650368 97.462467 
z
" clip-path="url(#pe402e90176)" style="fill: #1f77b4; fill-opacity: 0.5; stroke: #1f77b4; stroke-opacity: 0.5; stroke-linejoin: miter"/>
   </g>
   <g id="line2d_31">
    <path d="M 255.650368 81.872331 
L 253.650368 80.872331 
L 253.650368 82.872331 
z
" clip-path="url(#pe402e90176)" style="fill: #1f77b4; fill-opacity: 0.5; stroke: #1f77b4; stroke-opacity: 0.5; stroke-linejoin: miter"/>
   </g>
   <g id="line2d_32">
    <path d="M 255.650368 143.543223 
L 253.650368 142.543223 
L 253.650368 144.543223 
z
" clip-path="url(#pe402e90176)" style="fill: #1f77b4; fill-opacity: 0.5; stroke: #1f77b4; stroke-opacity: 0.5; stroke-linejoin: miter"/>
   </g>
   <g id="line2d_33">
    <path d="M 255.650368 108.292034 
L 253.650368 107.292034 
L 253.650368 109.292034 
z
" clip-path="url(#pe402e90176)" style="fill: #1f77b4; fill-opacity: 0.5; stroke: #1f77b4; stroke-opacity: 0.5; stroke-linejoin: miter"/>
   </g>
   <g id="line2d_34">
    <path d="M 255.650368 154.835055 
L 253.650368 153.835055 
L 253.650368 155.835055 
z
" clip-path="url(#pe402e90176)" style="fill: #1f77b4; fill-opacity: 0.5; stroke: #1f77b4; stroke-opacity: 0.5; stroke-linejoin: miter"/>
   </g>
   <g id="line2d_35">
    <path d="M 255.650368 188.198688 
L 253.650368 187.198688 
L 253.650368 189.198688 
z
" clip-path="url(#pe402e90176)" style="fill: #1f77b4; fill-opacity: 0.5; stroke: #1f77b4; stroke-opacity: 0.5; stroke-linejoin: miter"/>
   </g>
   <g id="line2d_36">
    <path d="M 255.650368 93.498551 
L 253.650368 92.498551 
L 253.650368 94.498551 
z
" clip-path="url(#pe402e90176)" style="fill: #1f77b4; fill-opacity: 0.5; stroke: #1f77b4; stroke-opacity: 0.5; stroke-linejoin: miter"/>
   </g>
   <g id="line2d_37">
    <path d="M 255.650368 94.651434 
L 253.650368 93.651434 
L 253.650368 95.651434 
z
" clip-path="url(#pe402e90176)" style="fill: #1f77b4; fill-opacity: 0.5; stroke: #1f77b4; stroke-opacity: 0.5; stroke-linejoin: miter"/>
   </g>
   <g id="line2d_38">
    <path d="M 255.650368 124.555424 
L 253.650368 123.555424 
L 253.650368 125.555424 
z
" clip-path="url(#pe402e90176)" style="fill: #1f77b4; fill-opacity: 0.5; stroke: #1f77b4; stroke-opacity: 0.5; stroke-linejoin: miter"/>
   </g>
   <g id="line2d_39">
    <path d="M 255.650368 194.27254 
L 253.650368 193.27254 
L 253.650368 195.27254 
z
" clip-path="url(#pe402e90176)" style="fill: #1f77b4; fill-opacity: 0.5; stroke: #1f77b4; stroke-opacity: 0.5; stroke-linejoin: miter"/>
   </g>
   <g id="line2d_40">
    <path d="M 446.799004 137.770766 
L 444.799004 136.770766 
L 444.799004 138.770766 
z
" clip-path="url(#pe402e90176)" style="fill: #ff7f0e; fill-opacity: 0.5; stroke: #ff7f0e; stroke-opacity: 0.5; stroke-linejoin: miter"/>
   </g>
   <g id="line2d_41">
    <path d="M 446.799004 185.312011 
L 444.799004 184.312011 
L 444.799004 186.312011 
z
" clip-path="url(#pe402e90176)" style="fill: #ff7f0e; fill-opacity: 0.5; stroke: #ff7f0e; stroke-opacity: 0.5; stroke-linejoin: miter"/>
   </g>
   <g id="line2d_42">
    <path d="M 446.799004 97.688611 
L 444.799004 96.688611 
L 444.799004 98.688611 
z
" clip-path="url(#pe402e90176)" style="fill: #ff7f0e; fill-opacity: 0.5; stroke: #ff7f0e; stroke-opacity: 0.5; stroke-linejoin: miter"/>
   </g>
   <g id="line2d_43">
    <path d="M 446.799004 182.968145 
L 444.799004 181.968145 
L 444.799004 183.968145 
z
" clip-path="url(#pe402e90176)" style="fill: #ff7f0e; fill-opacity: 0.5; stroke: #ff7f0e; stroke-opacity: 0.5; stroke-linejoin: miter"/>
   </g>
   <g id="line2d_44">
    <path d="M 446.799004 178.764377 
L 444.799004 177.764377 
L 444.799004 179.764377 
z
" clip-path="url(#pe402e90176)" style="fill: #ff7f0e; fill-opacity: 0.5; stroke: #ff7f0e; stroke-opacity: 0.5; stroke-linejoin: miter"/>
   </g>
   <g id="line2d_45">
    <path d="M 446.799004 159.583726 
L 444.799004 158.583726 
L 444.799004 160.583726 
z
" clip-path="url(#pe402e90176)" style="fill: #ff7f0e; fill-opacity: 0.5; stroke: #ff7f0e; stroke-opacity: 0.5; stroke-linejoin: miter"/>
   </g>
   <g id="line2d_46">
    <path d="M 446.799004 150.781528 
L 444.799004 149.781528 
L 444.799004 151.781528 
z
" clip-path="url(#pe402e90176)" style="fill: #ff7f0e; fill-opacity: 0.5; stroke: #ff7f0e; stroke-opacity: 0.5; stroke-linejoin: miter"/>
   </g>
   <g id="line2d_47">
    <path d="M 446.799004 169.293945 
L 444.799004 168.293945 
L 444.799004 170.293945 
z
" clip-path="url(#pe402e90176)" style="fill: #ff7f0e; fill-opacity: 0.5; stroke: #ff7f0e; stroke-opacity: 0.5; stroke-linejoin: miter"/>
   </g>
   <g id="line2d_48">
    <path d="M 446.799004 110.92565 
L 444.799004 109.92565 
L 444.799004 111.92565 
z
" clip-path="url(#pe402e90176)" style="fill: #ff7f0e; fill-opacity: 0.5; stroke: #ff7f0e; stroke-opacity: 0.5; stroke-linejoin: miter"/>
   </g>
   <g id="line2d_49">
    <path d="M 446.799004 96.291707 
L 444.799004 95.291707 
L 444.799004 97.291707 
z
" clip-path="url(#pe402e90176)" style="fill: #ff7f0e; fill-opacity: 0.5; stroke: #ff7f0e; stroke-opacity: 0.5; stroke-linejoin: miter"/>
   </g>
   <g id="patch_6">
    <path d="M 43.78125 318.021875 
L 43.78125 22.318125 
" style="fill: none; stroke: #000000; stroke-width: 0.8; stroke-linejoin: miter; stroke-linecap: square"/>
   </g>
   <g id="text_11">
    <!-- defaults_migration_properties.yaml -->
    <g transform="translate(215.434687 16.318125) scale(0.12 -0.12)">
     <defs>
      <path id="DejaVuSans-66" d="M 2375 4863 
L 2375 4384 
L 1825 4384 
Q 1516 4384 1395 4259 
Q 1275 4134 1275 3809 
L 1275 3500 
L 2222 3500 
L 2222 3053 
L 1275 3053 
L 1275 0 
L 697 0 
L 697 3053 
L 147 3053 
L 147 3500 
L 697 3500 
L 697 3744 
Q 697 4328 969 4595 
Q 1241 4863 1831 4863 
L 2375 4863 
z
" transform="scale(0.015625)"/>
      <path id="DejaVuSans-75" d="M 544 1381 
L 544 3500 
L 1119 3500 
L 1119 1403 
Q 1119 906 1312 657 
Q 1506 409 1894 409 
Q 2359 409 2629 706 
Q 2900 1003 2900 1516 
L 2900 3500 
L 3475 3500 
L 3475 0 
L 2900 0 
L 2900 538 
Q 2691 219 2414 64 
Q 2138 -91 1772 -91 
Q 1169 -91 856 284 
Q 544 659 544 1381 
z
M 1991 3584 
L 1991 3584 
z
" transform="scale(0.015625)"/>
      <path id="DejaVuSans-6c" d="M 603 4863 
L 1178 4863 
L 1178 0 
L 603 0 
L 603 4863 
z
" transform="scale(0.015625)"/>
      <path id="DejaVuSans-5f" d="M 3263 -1063 
L 3263 -1509 
L -63 -1509 
L -63 -1063 
L 3263 -1063 
z
" transform="scale(0.015625)"/>
      <path id="DejaVuSans-70" d="M 1159 525 
L 1159 -1331 
L 581 -1331 
L 581 3500 
L 1159 3500 
L 1159 2969 
Q 1341 3281 1617 3432 
Q 1894 3584 2278 3584 
Q 2916 3584 3314 3078 
Q 3713 2572 3713 1747 
Q 3713 922 3314 415 
Q 2916 -91 2278 -91 
Q 1894 -91 1617 61 
Q 1341 213 1159 525 
z
M 3116 1747 
Q 3116 2381 2855 2742 
Q 2594 3103 2138 3103 
Q 1681 3103 1420 2742 
Q 1159 2381 1159 1747 
Q 1159 1113 1420 752 
Q 1681 391 2138 391 
Q 2594 391 2855 752 
Q 3116 1113 3116 1747 
z
" transform="scale(0.015625)"/>
      <path id="DejaVuSans-79" d="M 2059 -325 
Q 1816 -950 1584 -1140 
Q 1353 -1331 966 -1331 
L 506 -1331 
L 506 -850 
L 844 -850 
Q 1081 -850 1212 -737 
Q 1344 -625 1503 -206 
L 1606 56 
L 191 3500 
L 800 3500 
L 1894 763 
L 2988 3500 
L 3597 3500 
L 2059 -325 
z
" transform="scale(0.015625)"/>
     </defs>
     <use xlink:href="#DejaVuSans-64"/>
     <use xlink:href="#DejaVuSans-65" transform="translate(63.476562 0)"/>
     <use xlink:href="#DejaVuSans-66" transform="translate(125 0)"/>
     <use xlink:href="#DejaVuSans-61" transform="translate(160.205078 0)"/>
     <use xlink:href="#DejaVuSans-75" transform="translate(221.484375 0)"/>
     <use xlink:href="#DejaVuSans-6c" transform="translate(284.863281 0)"/>
     <use xlink:href="#DejaVuSans-74" transform="translate(312.646484 0)"/>
     <use xlink:href="#DejaVuSans-73" transform="translate(351.855469 0)"/>
     <use xlink:href="#DejaVuSans-5f" transform="translate(403.955078 0)"/>
     <use xlink:href="#DejaVuSans-6d" transform="translate(453.955078 0)"/>
     <use xlink:href="#DejaVuSans-69" transform="translate(551.367188 0)"/>
     <use xlink:href="#DejaVuSans-67" transform="translate(579.150391 0)"/>
     <use xlink:href="#DejaVuSans-72" transform="translate(642.626953 0)"/>
     <use xlink:href="#DejaVuSans-61" transform="translate(683.740234 0)"/>
     <use xlink:href="#DejaVuSans-74" transform="translate(745.019531 0)"/>
     <use xlink:href="#DejaVuSans-69" transform="translate(784.228516 0)"/>
     <use xlink:href="#DejaVuSans-6f" transform="translate(812.011719 0)"/>
     <use xlink:href="#DejaVuSans-6e" transform="translate(873.193359 0)"/>
     <use xlink:href="#DejaVuSans-5f" transform="translate(936.572266 0)"/>
     <use xlink:href="#DejaVuSans-70" transform="translate(986.572266 0)"/>
     <use xlink:href="#DejaVuSans-72" transform="translate(1050.048828 0)"/>
     <use xlink:href="#DejaVuSans-6f" transform="translate(1088.912109 0)"/>
     <use xlink:href="#DejaVuSans-70" transform="translate(1150.09375 0)"/>
     <use xlink:href="#DejaVuSans-65" transform="translate(1213.570312 0)"/>
     <use xlink:href="#DejaVuSans-72" transform="translate(1275.09375 0)"/>
     <use xlink:href="#DejaVuSans-74" transform="translate(1316.207031 0)"/>
     <use xlink:href="#DejaVuSans-69" transform="translate(1355.416016 0)"/>
     <use xlink:href="#DejaVuSans-65" transform="translate(1383.199219 0)"/>
     <use xlink:href="#DejaVuSans-73" transform="translate(1444.722656 0)"/>
     <use xlink:href="#DejaVuSans-2e" transform="translate(1496.822266 0)"/>
     <use xlink:href="#DejaVuSans-79" transform="translate(1528.609375 0)"/>
     <use xlink:href="#DejaVuSans-61" transform="translate(1587.789062 0)"/>
     <use xlink:href="#DejaVuSans-6d" transform="translate(1649.068359 0)"/>
     <use xlink:href="#DejaVuSans-6c" transform="translate(1746.480469 0)"/>
    </g>
   </g>
  </g>
 </g>
 <defs>
  <clipPath id="pe402e90176">
   <rect x="43.78125" y="22.318125" width="556.21875" height="295.70375"/>
  </clipPath>
 </defs>
</svg>