<?xml version="1.0" encoding="utf-8" standalone="no"?>
<!DOCTYPE svg PUBLIC "-//W3C//DTD SVG 1.1//EN"
  "http://www.w3.org/Graphics/SVG/1.1/DTD/svg11.dtd">
<svg xmlns:xlink="http://www.w3.org/1999/xlink" width="607.2pt" height="338.4pt" viewBox="0 0 607.2 338.4" xmlns="http://www.w3.org/2000/svg" version="1.1">
 <metadata>
  <rdf:RDF xmlns:dc="http://purl.org/dc/elements/1.1/" xmlns:cc="http://creativecommons.org/ns#" xmlns:rdf="http://www.w3.org/1999/02/22-rdf-syntax-ns#">
   <cc:Work>
    <dc:type rdf:resource="http://purl.org/dc/dcmitype/StillImage"/>
    <dc:date>2023-05-15T09:05:45.174602</dc:date>
    <dc:format>image/svg+xml</dc:format>
    <dc:creator>
     <cc:Agent>
      <dc:title>Matplotlib v3.7.1, https://matplotlib.org/</dc:title>
     </cc:Agent>
    </dc:creator>
   </cc:Work>
  </rdf:RDF>
 </metadata>
 <defs>
  <style type="text/css">*{stroke-linejoin: round; stroke-linecap: butt}</style>
 </defs>
 <g id="figure_1">
  <g id="patch_1">
   <path d="M 0 338.4 
L 607.2 338.4 
L 607.2 0 
L 0 0 
z
" style="fill: #ffffff"/>
  </g>
  <g id="axes_1">
   <g id="patch_2">
    <path d="M 46.965625 318.021875 
L 600 318.021875 
L 600 22.318125 
L 46.965625 22.318125 
z
" style="fill: #ffffff"/>
   </g>
   <path d="M 200.299442 188.678408 
L 201.299442 188.709845 
L 202.299442 188.746785 
L 203.299442 188.844532 
L 204.299442 188.877053 
L 205.299442 188.950678 
L 206.299442 188.989244 
L 207.299442 189.024657 
L 208.299442 189.082297 
L 209.299442 189.152683 
L 210.299442 189.204647 
L 211.299442 189.263737 
L 212.299442 189.352058 
L 213.299442 189.398202 
L 214.299442 189.440613 
L 215.299442 189.471106 
L 216.299442 189.497151 
L 217.299442 189.518351 
L 218.299442 189.572652 
L 219.299442 189.600589 
L 220.299442 189.630313 
L 221.299442 189.655708 
L 222.299442 189.666909 
L 223.299442 189.677033 
L 224.299442 189.676828 
L 225.299442 189.667318 
L 226.299442 189.655665 
L 227.299442 189.624636 
L 228.299442 189.613468 
L 229.299442 189.58335 
L 230.299442 189.523573 
L 231.299442 189.486382 
L 232.299442 189.447286 
L 233.299442 189.404846 
L 234.299442 189.372081 
L 235.299442 189.304654 
L 236.299442 189.265528 
L 237.299442 189.222854 
L 238.299442 189.152273 
L 239.299442 189.115882 
L 240.299442 189.057479 
L 241.299442 188.946527 
L 242.299442 188.875868 
L 243.299442 188.762928 
L 244.299442 188.717156 
L 245.299442 188.655872 
L 246.299442 188.607373 
L 247.299442 188.52655 
L 248.299442 188.408031 
L 249.299442 188.337821 
L 250.299442 188.254558 
L 251.299442 188.221417 
L 252.299442 188.170179 
L 253.299442 188.101781 
L 254.299442 188.035565 
L 255.299442 187.958648 
L 256.619695 187.931333 
" clip-path="url(#peab8800ba1)" style="fill: none; stroke: #1f77b4; stroke-opacity: 0.5; stroke-width: 0.2; stroke-linecap: square"/>
   <path d="M 200.299442 81.43688 
L 201.299442 81.468316 
L 202.299442 81.505257 
L 203.299442 81.603003 
L 204.299442 81.635525 
L 205.299442 81.709149 
L 206.299442 81.747715 
L 207.299442 81.783128 
L 208.299442 81.840768 
L 209.299442 81.911154 
L 210.299442 81.963118 
L 211.299442 82.022208 
L 212.299442 82.110529 
L 213.299442 82.156673 
L 214.299442 82.199084 
L 215.299442 82.229577 
L 216.299442 82.255622 
L 217.299442 82.276822 
L 218.299442 82.331123 
L 219.299442 82.359061 
L 220.299442 82.388785 
L 221.299442 82.41418 
L 222.299442 82.42538 
L 223.299442 82.435504 
L 224.299442 82.4353 
L 225.299442 82.42579 
L 226.299442 82.414136 
L 227.299442 82.383107 
L 228.299442 82.371939 
L 229.299442 82.341821 
L 230.299442 82.282044 
L 231.299442 82.244853 
L 232.299442 82.205757 
L 233.299442 82.163317 
L 234.299442 82.130552 
L 235.299442 82.063126 
L 236.299442 82.024 
L 237.299442 81.981325 
L 238.299442 81.910745 
L 239.299442 81.874354 
L 240.299442 81.815951 
L 241.299442 81.704998 
L 242.299442 81.63434 
L 243.299442 81.5214 
L 244.299442 81.475627 
L 245.299442 81.414344 
L 246.299442 81.365844 
L 247.299442 81.285022 
L 248.299442 81.166503 
L 249.299442 81.096292 
L 250.299442 81.01303 
L 251.299442 80.979888 
L 252.299442 80.928651 
L 253.299442 80.860252 
L 254.299442 80.794037 
L 255.299442 80.71712 
L 256.619695 80.689804 
" clip-path="url(#peab8800ba1)" style="fill: none; stroke: #1f77b4; stroke-opacity: 0.5; stroke-width: 0.2; stroke-linecap: square"/>
   <path d="M 200.299442 240.633936 
L 201.299442 240.665372 
L 202.299442 240.702313 
L 203.299442 240.800059 
L 204.299442 240.832581 
L 205.299442 240.906206 
L 206.299442 240.944771 
L 207.299442 240.980184 
L 208.299442 241.037824 
L 209.299442 241.10821 
L 210.299442 241.160175 
L 211.299442 241.219264 
L 212.299442 241.307585 
L 213.299442 241.35373 
L 214.299442 241.396141 
L 215.299442 241.426633 
L 216.299442 241.452678 
L 217.299442 241.473878 
L 218.299442 241.528179 
L 219.299442 241.556117 
L 220.299442 241.585841 
L 221.299442 241.611236 
L 222.299442 241.622436 
L 223.299442 241.63256 
L 224.299442 241.632356 
L 225.299442 241.622846 
L 226.299442 241.611192 
L 227.299442 241.580163 
L 228.299442 241.568995 
L 229.299442 241.538878 
L 230.299442 241.479101 
L 231.299442 241.441909 
L 232.299442 241.402813 
L 233.299442 241.360373 
L 234.299442 241.327608 
L 235.299442 241.260182 
L 236.299442 241.221056 
L 237.299442 241.178381 
L 238.299442 241.107801 
L 239.299442 241.07141 
L 240.299442 241.013007 
L 241.299442 240.902054 
L 242.299442 240.831396 
L 243.299442 240.718456 
L 244.299442 240.672683 
L 245.299442 240.6114 
L 246.299442 240.562901 
L 247.299442 240.482078 
L 248.299442 240.363559 
L 249.299442 240.293348 
L 250.299442 240.210086 
L 251.299442 240.176944 
L 252.299442 240.125707 
L 253.299442 240.057308 
L 254.299442 239.991093 
L 255.299442 239.914176 
L 256.619695 239.886861 
" clip-path="url(#peab8800ba1)" style="fill: none; stroke: #1f77b4; stroke-opacity: 0.5; stroke-width: 0.2; stroke-linecap: square"/>
   <path d="M 200.299442 59.204285 
L 201.299442 59.235722 
L 202.299442 59.272662 
L 203.299442 59.370409 
L 204.299442 59.40293 
L 205.299442 59.476555 
L 206.299442 59.515121 
L 207.299442 59.550534 
L 208.299442 59.608174 
L 209.299442 59.67856 
L 210.299442 59.730524 
L 211.299442 59.789614 
L 212.299442 59.877935 
L 213.299442 59.924079 
L 214.299442 59.96649 
L 215.299442 59.996983 
L 216.299442 60.023028 
L 217.299442 60.044228 
L 218.299442 60.098529 
L 219.299442 60.126466 
L 220.299442 60.15619 
L 221.299442 60.181585 
L 222.299442 60.192786 
L 223.299442 60.20291 
L 224.299442 60.202705 
L 225.299442 60.193195 
L 226.299442 60.181542 
L 227.299442 60.150513 
L 228.299442 60.139345 
L 229.299442 60.109227 
L 230.299442 60.04945 
L 231.299442 60.012259 
L 232.299442 59.973163 
L 233.299442 59.930723 
L 234.299442 59.897958 
L 235.299442 59.830531 
L 236.299442 59.791405 
L 237.299442 59.748731 
L 238.299442 59.67815 
L 239.299442 59.641759 
L 240.299442 59.583356 
L 241.299442 59.472404 
L 242.299442 59.401745 
L 243.299442 59.288805 
L 244.299442 59.243033 
L 245.299442 59.181749 
L 246.299442 59.13325 
L 247.299442 59.052427 
L 248.299442 58.933908 
L 249.299442 58.863698 
L 250.299442 58.780435 
L 251.299442 58.747294 
L 252.299442 58.696056 
L 253.299442 58.627658 
L 254.299442 58.561442 
L 255.299442 58.484525 
L 256.619695 58.45721 
" clip-path="url(#peab8800ba1)" style="fill: none; stroke: #1f77b4; stroke-opacity: 0.5; stroke-width: 0.2; stroke-linecap: square"/>
   <path d="M 200.299442 180.366666 
L 201.299442 180.398103 
L 202.299442 180.435043 
L 203.299442 180.53279 
L 204.299442 180.565311 
L 205.299442 180.638936 
L 206.299442 180.677502 
L 207.299442 180.712915 
L 208.299442 180.770555 
L 209.299442 180.840941 
L 210.299442 180.892905 
L 211.299442 180.951995 
L 212.299442 181.040316 
L 213.299442 181.08646 
L 214.299442 181.128871 
L 215.299442 181.159364 
L 216.299442 181.185409 
L 217.299442 181.206609 
L 218.299442 181.26091 
L 219.299442 181.288847 
L 220.299442 181.318571 
L 221.299442 181.343966 
L 222.299442 181.355167 
L 223.299442 181.365291 
L 224.299442 181.365086 
L 225.299442 181.355576 
L 226.299442 181.343923 
L 227.299442 181.312894 
L 228.299442 181.301726 
L 229.299442 181.271608 
L 230.299442 181.211831 
L 231.299442 181.17464 
L 232.299442 181.135544 
L 233.299442 181.093104 
L 234.299442 181.060339 
L 235.299442 180.992912 
L 236.299442 180.953786 
L 237.299442 180.911112 
L 238.299442 180.840531 
L 239.299442 180.80414 
L 240.299442 180.745737 
L 241.299442 180.634785 
L 242.299442 180.564126 
L 243.299442 180.451186 
L 244.299442 180.405414 
L 245.299442 180.34413 
L 246.299442 180.295631 
L 247.299442 180.214808 
L 248.299442 180.096289 
L 249.299442 180.026079 
L 250.299442 179.942816 
L 251.299442 179.909675 
L 252.299442 179.858437 
L 253.299442 179.790039 
L 254.299442 179.723823 
L 255.299442 179.646906 
L 256.619695 179.619591 
" clip-path="url(#peab8800ba1)" style="fill: none; stroke: #1f77b4; stroke-opacity: 0.5; stroke-width: 0.2; stroke-linecap: square"/>
   <path d="M 200.299442 64.223789 
L 201.299442 64.255226 
L 202.299442 64.292166 
L 203.299442 64.389913 
L 204.299442 64.422434 
L 205.299442 64.496059 
L 206.299442 64.534625 
L 207.299442 64.570038 
L 208.299442 64.627678 
L 209.299442 64.698064 
L 210.299442 64.750028 
L 211.299442 64.809118 
L 212.299442 64.897439 
L 213.299442 64.943583 
L 214.299442 64.985994 
L 215.299442 65.016487 
L 216.299442 65.042532 
L 217.299442 65.063732 
L 218.299442 65.118033 
L 219.299442 65.14597 
L 220.299442 65.175694 
L 221.299442 65.201089 
L 222.299442 65.21229 
L 223.299442 65.222414 
L 224.299442 65.222209 
L 225.299442 65.212699 
L 226.299442 65.201046 
L 227.299442 65.170017 
L 228.299442 65.158849 
L 229.299442 65.128731 
L 230.299442 65.068954 
L 231.299442 65.031763 
L 232.299442 64.992667 
L 233.299442 64.950227 
L 234.299442 64.917462 
L 235.299442 64.850035 
L 236.299442 64.810909 
L 237.299442 64.768235 
L 238.299442 64.697654 
L 239.299442 64.661263 
L 240.299442 64.60286 
L 241.299442 64.491908 
L 242.299442 64.421249 
L 243.299442 64.30831 
L 244.299442 64.262537 
L 245.299442 64.201253 
L 246.299442 64.152754 
L 247.299442 64.071931 
L 248.299442 63.953412 
L 249.299442 63.883202 
L 250.299442 63.799939 
L 251.299442 63.766798 
L 252.299442 63.71556 
L 253.299442 63.647162 
L 254.299442 63.580946 
L 255.299442 63.504029 
L 256.619695 63.476714 
" clip-path="url(#peab8800ba1)" style="fill: none; stroke: #1f77b4; stroke-opacity: 0.5; stroke-width: 0.2; stroke-linecap: square"/>
   <path d="M 200.299442 148.85491 
L 201.299442 148.886347 
L 202.299442 148.923287 
L 203.299442 149.021034 
L 204.299442 149.053555 
L 205.299442 149.12718 
L 206.299442 149.165745 
L 207.299442 149.201159 
L 208.299442 149.258799 
L 209.299442 149.329185 
L 210.299442 149.381149 
L 211.299442 149.440239 
L 212.299442 149.52856 
L 213.299442 149.574704 
L 214.299442 149.617115 
L 215.299442 149.647608 
L 216.299442 149.673653 
L 217.299442 149.694853 
L 218.299442 149.749154 
L 219.299442 149.777091 
L 220.299442 149.806815 
L 221.299442 149.83221 
L 222.299442 149.84341 
L 223.299442 149.853534 
L 224.299442 149.85333 
L 225.299442 149.84382 
L 226.299442 149.832167 
L 227.299442 149.801137 
L 228.299442 149.789969 
L 229.299442 149.759852 
L 230.299442 149.700075 
L 231.299442 149.662883 
L 232.299442 149.623787 
L 233.299442 149.581348 
L 234.299442 149.548583 
L 235.299442 149.481156 
L 236.299442 149.44203 
L 237.299442 149.399356 
L 238.299442 149.328775 
L 239.299442 149.292384 
L 240.299442 149.233981 
L 241.299442 149.123028 
L 242.299442 149.05237 
L 243.299442 148.93943 
L 244.299442 148.893657 
L 245.299442 148.832374 
L 246.299442 148.783875 
L 247.299442 148.703052 
L 248.299442 148.584533 
L 249.299442 148.514323 
L 250.299442 148.43106 
L 251.299442 148.397918 
L 252.299442 148.346681 
L 253.299442 148.278283 
L 254.299442 148.212067 
L 255.299442 148.13515 
L 256.619695 148.107835 
" clip-path="url(#peab8800ba1)" style="fill: none; stroke: #1f77b4; stroke-opacity: 0.5; stroke-width: 0.2; stroke-linecap: square"/>
   <path d="M 200.299442 108.918717 
L 201.299442 108.950153 
L 202.299442 108.987094 
L 203.299442 109.08484 
L 204.299442 109.117362 
L 205.299442 109.190986 
L 206.299442 109.229552 
L 207.299442 109.264965 
L 208.299442 109.322605 
L 209.299442 109.392991 
L 210.299442 109.444956 
L 211.299442 109.504045 
L 212.299442 109.592366 
L 213.299442 109.638511 
L 214.299442 109.680921 
L 215.299442 109.711414 
L 216.299442 109.737459 
L 217.299442 109.758659 
L 218.299442 109.81296 
L 219.299442 109.840898 
L 220.299442 109.870622 
L 221.299442 109.896017 
L 222.299442 109.907217 
L 223.299442 109.917341 
L 224.299442 109.917137 
L 225.299442 109.907627 
L 226.299442 109.895973 
L 227.299442 109.864944 
L 228.299442 109.853776 
L 229.299442 109.823658 
L 230.299442 109.763882 
L 231.299442 109.72669 
L 232.299442 109.687594 
L 233.299442 109.645154 
L 234.299442 109.612389 
L 235.299442 109.544963 
L 236.299442 109.505837 
L 237.299442 109.463162 
L 238.299442 109.392582 
L 239.299442 109.356191 
L 240.299442 109.297788 
L 241.299442 109.186835 
L 242.299442 109.116177 
L 243.299442 109.003237 
L 244.299442 108.957464 
L 245.299442 108.896181 
L 246.299442 108.847681 
L 247.299442 108.766859 
L 248.299442 108.64834 
L 249.299442 108.578129 
L 250.299442 108.494867 
L 251.299442 108.461725 
L 252.299442 108.410488 
L 253.299442 108.342089 
L 254.299442 108.275874 
L 255.299442 108.198957 
L 256.619695 108.171641 
" clip-path="url(#peab8800ba1)" style="fill: none; stroke: #1f77b4; stroke-opacity: 0.5; stroke-width: 0.2; stroke-linecap: square"/>
   <path d="M 200.299442 53.470739 
L 201.299442 53.502175 
L 202.299442 53.539115 
L 203.299442 53.636862 
L 204.299442 53.669384 
L 205.299442 53.743008 
L 206.299442 53.781574 
L 207.299442 53.816987 
L 208.299442 53.874627 
L 209.299442 53.945013 
L 210.299442 53.996977 
L 211.299442 54.056067 
L 212.299442 54.144388 
L 213.299442 54.190532 
L 214.299442 54.232943 
L 215.299442 54.263436 
L 216.299442 54.289481 
L 217.299442 54.310681 
L 218.299442 54.364982 
L 219.299442 54.39292 
L 220.299442 54.422644 
L 221.299442 54.448038 
L 222.299442 54.459239 
L 223.299442 54.469363 
L 224.299442 54.469158 
L 225.299442 54.459649 
L 226.299442 54.447995 
L 227.299442 54.416966 
L 228.299442 54.405798 
L 229.299442 54.37568 
L 230.299442 54.315903 
L 231.299442 54.278712 
L 232.299442 54.239616 
L 233.299442 54.197176 
L 234.299442 54.164411 
L 235.299442 54.096984 
L 236.299442 54.057859 
L 237.299442 54.015184 
L 238.299442 53.944603 
L 239.299442 53.908213 
L 240.299442 53.849809 
L 241.299442 53.738857 
L 242.299442 53.668198 
L 243.299442 53.555259 
L 244.299442 53.509486 
L 245.299442 53.448203 
L 246.299442 53.399703 
L 247.299442 53.318881 
L 248.299442 53.200362 
L 249.299442 53.130151 
L 250.299442 53.046889 
L 251.299442 53.013747 
L 252.299442 52.962509 
L 253.299442 52.894111 
L 254.299442 52.827896 
L 255.299442 52.750979 
L 256.619695 52.723663 
" clip-path="url(#peab8800ba1)" style="fill: none; stroke: #1f77b4; stroke-opacity: 0.5; stroke-width: 0.2; stroke-linecap: square"/>
   <path d="M 200.299442 307.384693 
L 201.299442 307.416129 
L 202.299442 307.45307 
L 203.299442 307.550816 
L 204.299442 307.583338 
L 205.299442 307.656962 
L 206.299442 307.695528 
L 207.299442 307.730941 
L 208.299442 307.788581 
L 209.299442 307.858967 
L 210.299442 307.910931 
L 211.299442 307.970021 
L 212.299442 308.058342 
L 213.299442 308.104486 
L 214.299442 308.146897 
L 215.299442 308.17739 
L 216.299442 308.203435 
L 217.299442 308.224635 
L 218.299442 308.278936 
L 219.299442 308.306874 
L 220.299442 308.336598 
L 221.299442 308.361993 
L 222.299442 308.373193 
L 223.299442 308.383317 
L 224.299442 308.383113 
L 225.299442 308.373603 
L 226.299442 308.361949 
L 227.299442 308.33092 
L 228.299442 308.319752 
L 229.299442 308.289634 
L 230.299442 308.229857 
L 231.299442 308.192666 
L 232.299442 308.15357 
L 233.299442 308.11113 
L 234.299442 308.078365 
L 235.299442 308.010939 
L 236.299442 307.971813 
L 237.299442 307.929138 
L 238.299442 307.858558 
L 239.299442 307.822167 
L 240.299442 307.763764 
L 241.299442 307.652811 
L 242.299442 307.582153 
L 243.299442 307.469213 
L 244.299442 307.42344 
L 245.299442 307.362157 
L 246.299442 307.313657 
L 247.299442 307.232835 
L 248.299442 307.114316 
L 249.299442 307.044105 
L 250.299442 306.960843 
L 251.299442 306.927701 
L 252.299442 306.876464 
L 253.299442 306.808065 
L 254.299442 306.74185 
L 255.299442 306.664933 
L 256.619695 306.637617 
" clip-path="url(#peab8800ba1)" style="fill: none; stroke: #1f77b4; stroke-opacity: 0.5; stroke-width: 0.2; stroke-linecap: square"/>
   <path d="M 256.619695 82.542082 
L 255.619695 82.510645 
L 254.619695 82.473705 
L 253.619695 82.375958 
L 252.619695 82.343437 
L 251.619695 82.269812 
L 250.619695 82.231246 
L 249.619695 82.195833 
L 248.619695 82.138193 
L 247.619695 82.067807 
L 246.619695 82.015843 
L 245.619695 81.956753 
L 244.619695 81.868432 
L 243.619695 81.822288 
L 242.619695 81.779877 
L 241.619695 81.749384 
L 240.619695 81.723339 
L 239.619695 81.702139 
L 238.619695 81.647838 
L 237.619695 81.619901 
L 236.619695 81.590177 
L 235.619695 81.564782 
L 234.619695 81.553581 
L 233.619695 81.543457 
L 232.619695 81.543662 
L 231.619695 81.553172 
L 230.619695 81.564825 
L 229.619695 81.595855 
L 228.619695 81.607022 
L 227.619695 81.63714 
L 226.619695 81.696917 
L 225.619695 81.734108 
L 224.619695 81.773205 
L 223.619695 81.815644 
L 222.619695 81.848409 
L 221.619695 81.915836 
L 220.619695 81.954962 
L 219.619695 81.997636 
L 218.619695 82.068217 
L 217.619695 82.104608 
L 216.619695 82.163011 
L 215.619695 82.273963 
L 214.619695 82.344622 
L 213.619695 82.457562 
L 212.619695 82.503334 
L 211.619695 82.564618 
L 210.619695 82.613117 
L 209.619695 82.69394 
L 208.619695 82.812459 
L 207.619695 82.882669 
L 206.619695 82.965932 
L 205.619695 82.999073 
L 204.619695 83.050311 
L 203.619695 83.118709 
L 202.619695 83.184925 
L 201.619695 83.261842 
L 200.299442 83.289157 
" clip-path="url(#peab8800ba1)" style="fill: none; stroke: #ff7f0e; stroke-opacity: 0.5; stroke-width: 0.2; stroke-linecap: square"/>
   <path d="M 256.619695 118.879381 
L 255.619695 118.847944 
L 254.619695 118.811004 
L 253.619695 118.713257 
L 252.619695 118.680736 
L 251.619695 118.607111 
L 250.619695 118.568546 
L 249.619695 118.533132 
L 248.619695 118.475492 
L 247.619695 118.405106 
L 246.619695 118.353142 
L 245.619695 118.294052 
L 244.619695 118.205731 
L 243.619695 118.159587 
L 242.619695 118.117176 
L 241.619695 118.086683 
L 240.619695 118.060638 
L 239.619695 118.039438 
L 238.619695 117.985137 
L 237.619695 117.9572 
L 236.619695 117.927476 
L 235.619695 117.902081 
L 234.619695 117.890881 
L 233.619695 117.880757 
L 232.619695 117.880961 
L 231.619695 117.890471 
L 230.619695 117.902124 
L 229.619695 117.933154 
L 228.619695 117.944322 
L 227.619695 117.974439 
L 226.619695 118.034216 
L 225.619695 118.071408 
L 224.619695 118.110504 
L 223.619695 118.152943 
L 222.619695 118.185708 
L 221.619695 118.253135 
L 220.619695 118.292261 
L 219.619695 118.334935 
L 218.619695 118.405516 
L 217.619695 118.441907 
L 216.619695 118.50031 
L 215.619695 118.611263 
L 214.619695 118.681921 
L 213.619695 118.794861 
L 212.619695 118.840634 
L 211.619695 118.901917 
L 210.619695 118.950416 
L 209.619695 119.031239 
L 208.619695 119.149758 
L 207.619695 119.219968 
L 206.619695 119.303231 
L 205.619695 119.336373 
L 204.619695 119.38761 
L 203.619695 119.456008 
L 202.619695 119.522224 
L 201.619695 119.599141 
L 200.299442 119.626456 
" clip-path="url(#peab8800ba1)" style="fill: none; stroke: #ff7f0e; stroke-opacity: 0.5; stroke-width: 0.2; stroke-linecap: square"/>
   <path d="M 256.619695 134.432505 
L 255.619695 134.401069 
L 254.619695 134.364128 
L 253.619695 134.266382 
L 252.619695 134.23386 
L 251.619695 134.160235 
L 250.619695 134.12167 
L 249.619695 134.086257 
L 248.619695 134.028617 
L 247.619695 133.95823 
L 246.619695 133.906266 
L 245.619695 133.847176 
L 244.619695 133.758856 
L 243.619695 133.712711 
L 242.619695 133.6703 
L 241.619695 133.639808 
L 240.619695 133.613763 
L 239.619695 133.592563 
L 238.619695 133.538261 
L 237.619695 133.510324 
L 236.619695 133.4806 
L 235.619695 133.455205 
L 234.619695 133.444005 
L 233.619695 133.433881 
L 232.619695 133.434085 
L 231.619695 133.443595 
L 230.619695 133.455249 
L 229.619695 133.486278 
L 228.619695 133.497446 
L 227.619695 133.527563 
L 226.619695 133.58734 
L 225.619695 133.624532 
L 224.619695 133.663628 
L 223.619695 133.706067 
L 222.619695 133.738833 
L 221.619695 133.806259 
L 220.619695 133.845385 
L 219.619695 133.888059 
L 218.619695 133.95864 
L 217.619695 133.995031 
L 216.619695 134.053434 
L 215.619695 134.164387 
L 214.619695 134.235045 
L 213.619695 134.347985 
L 212.619695 134.393758 
L 211.619695 134.455041 
L 210.619695 134.50354 
L 209.619695 134.584363 
L 208.619695 134.702882 
L 207.619695 134.773093 
L 206.619695 134.856355 
L 205.619695 134.889497 
L 204.619695 134.940734 
L 203.619695 135.009132 
L 202.619695 135.075348 
L 201.619695 135.152265 
L 200.299442 135.17958 
" clip-path="url(#peab8800ba1)" style="fill: none; stroke: #ff7f0e; stroke-opacity: 0.5; stroke-width: 0.2; stroke-linecap: square"/>
   <path d="M 256.619695 266.844163 
L 255.619695 266.812727 
L 254.619695 266.775786 
L 253.619695 266.67804 
L 252.619695 266.645518 
L 251.619695 266.571893 
L 250.619695 266.533328 
L 249.619695 266.497915 
L 248.619695 266.440275 
L 247.619695 266.369888 
L 246.619695 266.317924 
L 245.619695 266.258834 
L 244.619695 266.170514 
L 243.619695 266.124369 
L 242.619695 266.081958 
L 241.619695 266.051466 
L 240.619695 266.025421 
L 239.619695 266.004221 
L 238.619695 265.949919 
L 237.619695 265.921982 
L 236.619695 265.892258 
L 235.619695 265.866863 
L 234.619695 265.855663 
L 233.619695 265.845539 
L 232.619695 265.845743 
L 231.619695 265.855253 
L 230.619695 265.866907 
L 229.619695 265.897936 
L 228.619695 265.909104 
L 227.619695 265.939221 
L 226.619695 265.998998 
L 225.619695 266.03619 
L 224.619695 266.075286 
L 223.619695 266.117725 
L 222.619695 266.150491 
L 221.619695 266.217917 
L 220.619695 266.257043 
L 219.619695 266.299717 
L 218.619695 266.370298 
L 217.619695 266.406689 
L 216.619695 266.465092 
L 215.619695 266.576045 
L 214.619695 266.646703 
L 213.619695 266.759643 
L 212.619695 266.805416 
L 211.619695 266.866699 
L 210.619695 266.915198 
L 209.619695 266.996021 
L 208.619695 267.11454 
L 207.619695 267.184751 
L 206.619695 267.268013 
L 205.619695 267.301155 
L 204.619695 267.352392 
L 203.619695 267.42079 
L 202.619695 267.487006 
L 201.619695 267.563923 
L 200.299442 267.591238 
" clip-path="url(#peab8800ba1)" style="fill: none; stroke: #ff7f0e; stroke-opacity: 0.5; stroke-width: 0.2; stroke-linecap: square"/>
   <path d="M 256.619695 242.667646 
L 255.619695 242.63621 
L 254.619695 242.599269 
L 253.619695 242.501523 
L 252.619695 242.469001 
L 251.619695 242.395377 
L 250.619695 242.356811 
L 249.619695 242.321398 
L 248.619695 242.263758 
L 247.619695 242.193372 
L 246.619695 242.141408 
L 245.619695 242.082318 
L 244.619695 241.993997 
L 243.619695 241.947852 
L 242.619695 241.905442 
L 241.619695 241.874949 
L 240.619695 241.848904 
L 239.619695 241.827704 
L 238.619695 241.773403 
L 237.619695 241.745465 
L 236.619695 241.715741 
L 235.619695 241.690346 
L 234.619695 241.679146 
L 233.619695 241.669022 
L 232.619695 241.669226 
L 231.619695 241.678736 
L 230.619695 241.69039 
L 229.619695 241.721419 
L 228.619695 241.732587 
L 227.619695 241.762705 
L 226.619695 241.822481 
L 225.619695 241.859673 
L 224.619695 241.898769 
L 223.619695 241.941209 
L 222.619695 241.973974 
L 221.619695 242.0414 
L 220.619695 242.080526 
L 219.619695 242.123201 
L 218.619695 242.193781 
L 217.619695 242.230172 
L 216.619695 242.288575 
L 215.619695 242.399528 
L 214.619695 242.470186 
L 213.619695 242.583126 
L 212.619695 242.628899 
L 211.619695 242.690182 
L 210.619695 242.738682 
L 209.619695 242.819504 
L 208.619695 242.938023 
L 207.619695 243.008234 
L 206.619695 243.091496 
L 205.619695 243.124638 
L 204.619695 243.175875 
L 203.619695 243.244274 
L 202.619695 243.310489 
L 201.619695 243.387406 
L 200.299442 243.414722 
" clip-path="url(#peab8800ba1)" style="fill: none; stroke: #ff7f0e; stroke-opacity: 0.5; stroke-width: 0.2; stroke-linecap: square"/>
   <path d="M 256.619695 280.041334 
L 255.619695 280.009898 
L 254.619695 279.972957 
L 253.619695 279.875211 
L 252.619695 279.842689 
L 251.619695 279.769064 
L 250.619695 279.730499 
L 249.619695 279.695086 
L 248.619695 279.637446 
L 247.619695 279.56706 
L 246.619695 279.515095 
L 245.619695 279.456006 
L 244.619695 279.367685 
L 243.619695 279.32154 
L 242.619695 279.279129 
L 241.619695 279.248637 
L 240.619695 279.222592 
L 239.619695 279.201392 
L 238.619695 279.147091 
L 237.619695 279.119153 
L 236.619695 279.089429 
L 235.619695 279.064034 
L 234.619695 279.052834 
L 233.619695 279.04271 
L 232.619695 279.042914 
L 231.619695 279.052424 
L 230.619695 279.064078 
L 229.619695 279.095107 
L 228.619695 279.106275 
L 227.619695 279.136392 
L 226.619695 279.196169 
L 225.619695 279.233361 
L 224.619695 279.272457 
L 223.619695 279.314897 
L 222.619695 279.347662 
L 221.619695 279.415088 
L 220.619695 279.454214 
L 219.619695 279.496889 
L 218.619695 279.567469 
L 217.619695 279.60386 
L 216.619695 279.662263 
L 215.619695 279.773216 
L 214.619695 279.843874 
L 213.619695 279.956814 
L 212.619695 280.002587 
L 211.619695 280.06387 
L 210.619695 280.112369 
L 209.619695 280.193192 
L 208.619695 280.311711 
L 207.619695 280.381922 
L 206.619695 280.465184 
L 205.619695 280.498326 
L 204.619695 280.549563 
L 203.619695 280.617962 
L 202.619695 280.684177 
L 201.619695 280.761094 
L 200.299442 280.78841 
" clip-path="url(#peab8800ba1)" style="fill: none; stroke: #ff7f0e; stroke-opacity: 0.5; stroke-width: 0.2; stroke-linecap: square"/>
   <path d="M 256.619695 260.952938 
L 255.619695 260.921502 
L 254.619695 260.884561 
L 253.619695 260.786815 
L 252.619695 260.754293 
L 251.619695 260.680669 
L 250.619695 260.642103 
L 249.619695 260.60669 
L 248.619695 260.54905 
L 247.619695 260.478664 
L 246.619695 260.4267 
L 245.619695 260.36761 
L 244.619695 260.279289 
L 243.619695 260.233144 
L 242.619695 260.190734 
L 241.619695 260.160241 
L 240.619695 260.134196 
L 239.619695 260.112996 
L 238.619695 260.058695 
L 237.619695 260.030757 
L 236.619695 260.001033 
L 235.619695 259.975638 
L 234.619695 259.964438 
L 233.619695 259.954314 
L 232.619695 259.954518 
L 231.619695 259.964028 
L 230.619695 259.975682 
L 229.619695 260.006711 
L 228.619695 260.017879 
L 227.619695 260.047997 
L 226.619695 260.107773 
L 225.619695 260.144965 
L 224.619695 260.184061 
L 223.619695 260.226501 
L 222.619695 260.259266 
L 221.619695 260.326692 
L 220.619695 260.365818 
L 219.619695 260.408493 
L 218.619695 260.479073 
L 217.619695 260.515464 
L 216.619695 260.573867 
L 215.619695 260.68482 
L 214.619695 260.755478 
L 213.619695 260.868418 
L 212.619695 260.914191 
L 211.619695 260.975474 
L 210.619695 261.023974 
L 209.619695 261.104796 
L 208.619695 261.223315 
L 207.619695 261.293526 
L 206.619695 261.376788 
L 205.619695 261.40993 
L 204.619695 261.461167 
L 203.619695 261.529566 
L 202.619695 261.595781 
L 201.619695 261.672698 
L 200.299442 261.700014 
" clip-path="url(#peab8800ba1)" style="fill: none; stroke: #ff7f0e; stroke-opacity: 0.5; stroke-width: 0.2; stroke-linecap: square"/>
   <path d="M 256.619695 204.973415 
L 255.619695 204.941978 
L 254.619695 204.905038 
L 253.619695 204.807291 
L 252.619695 204.77477 
L 251.619695 204.701145 
L 250.619695 204.66258 
L 249.619695 204.627166 
L 248.619695 204.569527 
L 247.619695 204.49914 
L 246.619695 204.447176 
L 245.619695 204.388086 
L 244.619695 204.299765 
L 243.619695 204.253621 
L 242.619695 204.21121 
L 241.619695 204.180717 
L 240.619695 204.154673 
L 239.619695 204.133472 
L 238.619695 204.079171 
L 237.619695 204.051234 
L 236.619695 204.02151 
L 235.619695 203.996115 
L 234.619695 203.984915 
L 233.619695 203.974791 
L 232.619695 203.974995 
L 231.619695 203.984505 
L 230.619695 203.996158 
L 229.619695 204.027188 
L 228.619695 204.038356 
L 227.619695 204.068473 
L 226.619695 204.12825 
L 225.619695 204.165442 
L 224.619695 204.204538 
L 223.619695 204.246977 
L 222.619695 204.279742 
L 221.619695 204.347169 
L 220.619695 204.386295 
L 219.619695 204.428969 
L 218.619695 204.49955 
L 217.619695 204.535941 
L 216.619695 204.594344 
L 215.619695 204.705297 
L 214.619695 204.775955 
L 213.619695 204.888895 
L 212.619695 204.934668 
L 211.619695 204.995951 
L 210.619695 205.04445 
L 209.619695 205.125273 
L 208.619695 205.243792 
L 207.619695 205.314002 
L 206.619695 205.397265 
L 205.619695 205.430407 
L 204.619695 205.481644 
L 203.619695 205.550042 
L 202.619695 205.616258 
L 201.619695 205.693175 
L 200.299442 205.72049 
" clip-path="url(#peab8800ba1)" style="fill: none; stroke: #ff7f0e; stroke-opacity: 0.5; stroke-width: 0.2; stroke-linecap: square"/>
   <path d="M 256.619695 116.771366 
L 255.619695 116.739929 
L 254.619695 116.702989 
L 253.619695 116.605242 
L 252.619695 116.572721 
L 251.619695 116.499096 
L 250.619695 116.46053 
L 249.619695 116.425117 
L 248.619695 116.367477 
L 247.619695 116.297091 
L 246.619695 116.245127 
L 245.619695 116.186037 
L 244.619695 116.097716 
L 243.619695 116.051572 
L 242.619695 116.009161 
L 241.619695 115.978668 
L 240.619695 115.952623 
L 239.619695 115.931423 
L 238.619695 115.877122 
L 237.619695 115.849185 
L 236.619695 115.819461 
L 235.619695 115.794066 
L 234.619695 115.782865 
L 233.619695 115.772741 
L 232.619695 115.772946 
L 231.619695 115.782456 
L 230.619695 115.794109 
L 229.619695 115.825138 
L 228.619695 115.836306 
L 227.619695 115.866424 
L 226.619695 115.926201 
L 225.619695 115.963392 
L 224.619695 116.002488 
L 223.619695 116.044928 
L 222.619695 116.077693 
L 221.619695 116.14512 
L 220.619695 116.184246 
L 219.619695 116.22692 
L 218.619695 116.297501 
L 217.619695 116.333892 
L 216.619695 116.392295 
L 215.619695 116.503247 
L 214.619695 116.573906 
L 213.619695 116.686846 
L 212.619695 116.732618 
L 211.619695 116.793902 
L 210.619695 116.842401 
L 209.619695 116.923224 
L 208.619695 117.041743 
L 207.619695 117.111953 
L 206.619695 117.195216 
L 205.619695 117.228357 
L 204.619695 117.279595 
L 203.619695 117.347993 
L 202.619695 117.414209 
L 201.619695 117.491126 
L 200.299442 117.518441 
" clip-path="url(#peab8800ba1)" style="fill: none; stroke: #ff7f0e; stroke-opacity: 0.5; stroke-width: 0.2; stroke-linecap: square"/>
   <path d="M 256.619695 164.188559 
L 255.619695 164.157123 
L 254.619695 164.120182 
L 253.619695 164.022436 
L 252.619695 163.989914 
L 251.619695 163.916289 
L 250.619695 163.877724 
L 249.619695 163.842311 
L 248.619695 163.784671 
L 247.619695 163.714284 
L 246.619695 163.66232 
L 245.619695 163.60323 
L 244.619695 163.51491 
L 243.619695 163.468765 
L 242.619695 163.426354 
L 241.619695 163.395862 
L 240.619695 163.369817 
L 239.619695 163.348617 
L 238.619695 163.294315 
L 237.619695 163.266378 
L 236.619695 163.236654 
L 235.619695 163.211259 
L 234.619695 163.200059 
L 233.619695 163.189935 
L 232.619695 163.190139 
L 231.619695 163.199649 
L 230.619695 163.211303 
L 229.619695 163.242332 
L 228.619695 163.2535 
L 227.619695 163.283617 
L 226.619695 163.343394 
L 225.619695 163.380586 
L 224.619695 163.419682 
L 223.619695 163.462121 
L 222.619695 163.494887 
L 221.619695 163.562313 
L 220.619695 163.601439 
L 219.619695 163.644113 
L 218.619695 163.714694 
L 217.619695 163.751085 
L 216.619695 163.809488 
L 215.619695 163.920441 
L 214.619695 163.991099 
L 213.619695 164.104039 
L 212.619695 164.149812 
L 211.619695 164.211095 
L 210.619695 164.259594 
L 209.619695 164.340417 
L 208.619695 164.458936 
L 207.619695 164.529147 
L 206.619695 164.612409 
L 205.619695 164.645551 
L 204.619695 164.696788 
L 203.619695 164.765186 
L 202.619695 164.831402 
L 201.619695 164.908319 
L 200.299442 164.935634 
" clip-path="url(#peab8800ba1)" style="fill: none; stroke: #ff7f0e; stroke-opacity: 0.5; stroke-width: 0.2; stroke-linecap: square"/>
   <path d="M 390.34593 186.517746 
L 391.34593 186.549183 
L 392.34593 186.586123 
L 393.34593 186.68387 
L 394.34593 186.716391 
L 395.34593 186.790016 
L 396.34593 186.828582 
L 397.34593 186.863995 
L 398.34593 186.921635 
L 399.34593 186.992021 
L 400.34593 187.043985 
L 401.34593 187.103075 
L 402.34593 187.191396 
L 403.34593 187.23754 
L 404.34593 187.279951 
L 405.34593 187.310444 
L 406.34593 187.336489 
L 407.34593 187.357689 
L 408.34593 187.41199 
L 409.34593 187.439928 
L 410.34593 187.469651 
L 411.34593 187.495046 
L 412.34593 187.506247 
L 413.34593 187.516371 
L 414.34593 187.516166 
L 415.34593 187.506656 
L 416.34593 187.495003 
L 417.34593 187.463974 
L 418.34593 187.452806 
L 419.34593 187.422688 
L 420.34593 187.362911 
L 421.34593 187.32572 
L 422.34593 187.286624 
L 423.34593 187.244184 
L 424.34593 187.211419 
L 425.34593 187.143992 
L 426.34593 187.104866 
L 427.34593 187.062192 
L 428.34593 186.991611 
L 429.34593 186.95522 
L 430.34593 186.896817 
L 431.34593 186.785865 
L 432.34593 186.715206 
L 433.34593 186.602267 
L 434.34593 186.556494 
L 435.34593 186.49521 
L 436.34593 186.446711 
L 437.34593 186.365888 
L 438.34593 186.247369 
L 439.34593 186.177159 
L 440.34593 186.093896 
L 441.34593 186.060755 
L 442.34593 186.009517 
L 443.34593 185.941119 
L 444.34593 185.874904 
L 445.34593 185.797986 
L 446.666183 185.770671 
" clip-path="url(#peab8800ba1)" style="fill: none; stroke: #ff7f0e; stroke-opacity: 0.5; stroke-width: 0.2; stroke-linecap: square"/>
   <path d="M 390.34593 201.946577 
L 391.34593 201.978013 
L 392.34593 202.014953 
L 393.34593 202.1127 
L 394.34593 202.145222 
L 395.34593 202.218846 
L 396.34593 202.257412 
L 397.34593 202.292825 
L 398.34593 202.350465 
L 399.34593 202.420851 
L 400.34593 202.472815 
L 401.34593 202.531905 
L 402.34593 202.620226 
L 403.34593 202.66637 
L 404.34593 202.708781 
L 405.34593 202.739274 
L 406.34593 202.765319 
L 407.34593 202.786519 
L 408.34593 202.84082 
L 409.34593 202.868758 
L 410.34593 202.898482 
L 411.34593 202.923876 
L 412.34593 202.935077 
L 413.34593 202.945201 
L 414.34593 202.944996 
L 415.34593 202.935487 
L 416.34593 202.923833 
L 417.34593 202.892804 
L 418.34593 202.881636 
L 419.34593 202.851518 
L 420.34593 202.791741 
L 421.34593 202.75455 
L 422.34593 202.715454 
L 423.34593 202.673014 
L 424.34593 202.640249 
L 425.34593 202.572823 
L 426.34593 202.533697 
L 427.34593 202.491022 
L 428.34593 202.420441 
L 429.34593 202.384051 
L 430.34593 202.325647 
L 431.34593 202.214695 
L 432.34593 202.144037 
L 433.34593 202.031097 
L 434.34593 201.985324 
L 435.34593 201.924041 
L 436.34593 201.875541 
L 437.34593 201.794719 
L 438.34593 201.6762 
L 439.34593 201.605989 
L 440.34593 201.522727 
L 441.34593 201.489585 
L 442.34593 201.438347 
L 443.34593 201.369949 
L 444.34593 201.303734 
L 445.34593 201.226817 
L 446.666183 201.199501 
" clip-path="url(#peab8800ba1)" style="fill: none; stroke: #ff7f0e; stroke-opacity: 0.5; stroke-width: 0.2; stroke-linecap: square"/>
   <path d="M 390.34593 257.976273 
L 391.34593 258.007709 
L 392.34593 258.04465 
L 393.34593 258.142396 
L 394.34593 258.174918 
L 395.34593 258.248542 
L 396.34593 258.287108 
L 397.34593 258.322521 
L 398.34593 258.380161 
L 399.34593 258.450547 
L 400.34593 258.502511 
L 401.34593 258.561601 
L 402.34593 258.649922 
L 403.34593 258.696066 
L 404.34593 258.738477 
L 405.34593 258.76897 
L 406.34593 258.795015 
L 407.34593 258.816215 
L 408.34593 258.870516 
L 409.34593 258.898454 
L 410.34593 258.928178 
L 411.34593 258.953573 
L 412.34593 258.964773 
L 413.34593 258.974897 
L 414.34593 258.974693 
L 415.34593 258.965183 
L 416.34593 258.953529 
L 417.34593 258.9225 
L 418.34593 258.911332 
L 419.34593 258.881214 
L 420.34593 258.821437 
L 421.34593 258.784246 
L 422.34593 258.74515 
L 423.34593 258.70271 
L 424.34593 258.669945 
L 425.34593 258.602519 
L 426.34593 258.563393 
L 427.34593 258.520718 
L 428.34593 258.450138 
L 429.34593 258.413747 
L 430.34593 258.355344 
L 431.34593 258.244391 
L 432.34593 258.173733 
L 433.34593 258.060793 
L 434.34593 258.01502 
L 435.34593 257.953737 
L 436.34593 257.905237 
L 437.34593 257.824415 
L 438.34593 257.705896 
L 439.34593 257.635685 
L 440.34593 257.552423 
L 441.34593 257.519281 
L 442.34593 257.468044 
L 443.34593 257.399645 
L 444.34593 257.33343 
L 445.34593 257.256513 
L 446.666183 257.229197 
" clip-path="url(#peab8800ba1)" style="fill: none; stroke: #ff7f0e; stroke-opacity: 0.5; stroke-width: 0.2; stroke-linecap: square"/>
   <path d="M 390.34593 103.015072 
L 391.34593 103.046508 
L 392.34593 103.083449 
L 393.34593 103.181195 
L 394.34593 103.213717 
L 395.34593 103.287341 
L 396.34593 103.325907 
L 397.34593 103.36132 
L 398.34593 103.41896 
L 399.34593 103.489346 
L 400.34593 103.54131 
L 401.34593 103.6004 
L 402.34593 103.688721 
L 403.34593 103.734865 
L 404.34593 103.777276 
L 405.34593 103.807769 
L 406.34593 103.833814 
L 407.34593 103.855014 
L 408.34593 103.909315 
L 409.34593 103.937253 
L 410.34593 103.966977 
L 411.34593 103.992372 
L 412.34593 104.003572 
L 413.34593 104.013696 
L 414.34593 104.013492 
L 415.34593 104.003982 
L 416.34593 103.992328 
L 417.34593 103.961299 
L 418.34593 103.950131 
L 419.34593 103.920013 
L 420.34593 103.860236 
L 421.34593 103.823045 
L 422.34593 103.783949 
L 423.34593 103.741509 
L 424.34593 103.708744 
L 425.34593 103.641318 
L 426.34593 103.602192 
L 427.34593 103.559517 
L 428.34593 103.488937 
L 429.34593 103.452546 
L 430.34593 103.394143 
L 431.34593 103.28319 
L 432.34593 103.212532 
L 433.34593 103.099592 
L 434.34593 103.053819 
L 435.34593 102.992536 
L 436.34593 102.944036 
L 437.34593 102.863214 
L 438.34593 102.744695 
L 439.34593 102.674484 
L 440.34593 102.591222 
L 441.34593 102.55808 
L 442.34593 102.506843 
L 443.34593 102.438444 
L 444.34593 102.372229 
L 445.34593 102.295312 
L 446.666183 102.267996 
" clip-path="url(#peab8800ba1)" style="fill: none; stroke: #ff7f0e; stroke-opacity: 0.5; stroke-width: 0.2; stroke-linecap: square"/>
   <path d="M 390.34593 271.607168 
L 391.34593 271.638605 
L 392.34593 271.675545 
L 393.34593 271.773292 
L 394.34593 271.805813 
L 395.34593 271.879438 
L 396.34593 271.918004 
L 397.34593 271.953417 
L 398.34593 272.011057 
L 399.34593 272.081443 
L 400.34593 272.133407 
L 401.34593 272.192497 
L 402.34593 272.280818 
L 403.34593 272.326962 
L 404.34593 272.369373 
L 405.34593 272.399866 
L 406.34593 272.425911 
L 407.34593 272.447111 
L 408.34593 272.501412 
L 409.34593 272.529349 
L 410.34593 272.559073 
L 411.34593 272.584468 
L 412.34593 272.595669 
L 413.34593 272.605793 
L 414.34593 272.605588 
L 415.34593 272.596078 
L 416.34593 272.584425 
L 417.34593 272.553396 
L 418.34593 272.542228 
L 419.34593 272.51211 
L 420.34593 272.452333 
L 421.34593 272.415142 
L 422.34593 272.376046 
L 423.34593 272.333606 
L 424.34593 272.300841 
L 425.34593 272.233414 
L 426.34593 272.194288 
L 427.34593 272.151614 
L 428.34593 272.081033 
L 429.34593 272.044642 
L 430.34593 271.986239 
L 431.34593 271.875287 
L 432.34593 271.804628 
L 433.34593 271.691688 
L 434.34593 271.645916 
L 435.34593 271.584632 
L 436.34593 271.536133 
L 437.34593 271.45531 
L 438.34593 271.336791 
L 439.34593 271.266581 
L 440.34593 271.183318 
L 441.34593 271.150177 
L 442.34593 271.098939 
L 443.34593 271.030541 
L 444.34593 270.964325 
L 445.34593 270.887408 
L 446.666183 270.860093 
" clip-path="url(#peab8800ba1)" style="fill: none; stroke: #ff7f0e; stroke-opacity: 0.5; stroke-width: 0.2; stroke-linecap: square"/>
   <path d="M 390.34593 168.296065 
L 391.34593 168.327501 
L 392.34593 168.364442 
L 393.34593 168.462188 
L 394.34593 168.49471 
L 395.34593 168.568334 
L 396.34593 168.6069 
L 397.34593 168.642313 
L 398.34593 168.699953 
L 399.34593 168.770339 
L 400.34593 168.822304 
L 401.34593 168.881393 
L 402.34593 168.969714 
L 403.34593 169.015859 
L 404.34593 169.058269 
L 405.34593 169.088762 
L 406.34593 169.114807 
L 407.34593 169.136007 
L 408.34593 169.190308 
L 409.34593 169.218246 
L 410.34593 169.24797 
L 411.34593 169.273365 
L 412.34593 169.284565 
L 413.34593 169.294689 
L 414.34593 169.294485 
L 415.34593 169.284975 
L 416.34593 169.273321 
L 417.34593 169.242292 
L 418.34593 169.231124 
L 419.34593 169.201006 
L 420.34593 169.14123 
L 421.34593 169.104038 
L 422.34593 169.064942 
L 423.34593 169.022502 
L 424.34593 168.989737 
L 425.34593 168.922311 
L 426.34593 168.883185 
L 427.34593 168.84051 
L 428.34593 168.76993 
L 429.34593 168.733539 
L 430.34593 168.675136 
L 431.34593 168.564183 
L 432.34593 168.493525 
L 433.34593 168.380585 
L 434.34593 168.334812 
L 435.34593 168.273529 
L 436.34593 168.225029 
L 437.34593 168.144207 
L 438.34593 168.025688 
L 439.34593 167.955477 
L 440.34593 167.872215 
L 441.34593 167.839073 
L 442.34593 167.787836 
L 443.34593 167.719437 
L 444.34593 167.653222 
L 445.34593 167.576305 
L 446.666183 167.548989 
" clip-path="url(#peab8800ba1)" style="fill: none; stroke: #ff7f0e; stroke-opacity: 0.5; stroke-width: 0.2; stroke-linecap: square"/>
   <path d="M 390.34593 105.259789 
L 391.34593 105.291226 
L 392.34593 105.328166 
L 393.34593 105.425912 
L 394.34593 105.458434 
L 395.34593 105.532059 
L 396.34593 105.570624 
L 397.34593 105.606037 
L 398.34593 105.663677 
L 399.34593 105.734064 
L 400.34593 105.786028 
L 401.34593 105.845118 
L 402.34593 105.933439 
L 403.34593 105.979583 
L 404.34593 106.021994 
L 405.34593 106.052486 
L 406.34593 106.078531 
L 407.34593 106.099732 
L 408.34593 106.154033 
L 409.34593 106.18197 
L 410.34593 106.211694 
L 411.34593 106.237089 
L 412.34593 106.248289 
L 413.34593 106.258413 
L 414.34593 106.258209 
L 415.34593 106.248699 
L 416.34593 106.237046 
L 417.34593 106.206016 
L 418.34593 106.194848 
L 419.34593 106.164731 
L 420.34593 106.104954 
L 421.34593 106.067762 
L 422.34593 106.028666 
L 423.34593 105.986227 
L 424.34593 105.953462 
L 425.34593 105.886035 
L 426.34593 105.846909 
L 427.34593 105.804235 
L 428.34593 105.733654 
L 429.34593 105.697263 
L 430.34593 105.63886 
L 431.34593 105.527907 
L 432.34593 105.457249 
L 433.34593 105.344309 
L 434.34593 105.298536 
L 435.34593 105.237253 
L 436.34593 105.188754 
L 437.34593 105.107931 
L 438.34593 104.989412 
L 439.34593 104.919202 
L 440.34593 104.835939 
L 441.34593 104.802797 
L 442.34593 104.75156 
L 443.34593 104.683162 
L 444.34593 104.616946 
L 445.34593 104.540029 
L 446.666183 104.512714 
" clip-path="url(#peab8800ba1)" style="fill: none; stroke: #ff7f0e; stroke-opacity: 0.5; stroke-width: 0.2; stroke-linecap: square"/>
   <path d="M 390.34593 29.056838 
L 391.34593 29.088274 
L 392.34593 29.125215 
L 393.34593 29.222961 
L 394.34593 29.255483 
L 395.34593 29.329107 
L 396.34593 29.367673 
L 397.34593 29.403086 
L 398.34593 29.460726 
L 399.34593 29.531112 
L 400.34593 29.583077 
L 401.34593 29.642166 
L 402.34593 29.730487 
L 403.34593 29.776632 
L 404.34593 29.819043 
L 405.34593 29.849535 
L 406.34593 29.87558 
L 407.34593 29.89678 
L 408.34593 29.951081 
L 409.34593 29.979019 
L 410.34593 30.008743 
L 411.34593 30.034138 
L 412.34593 30.045338 
L 413.34593 30.055462 
L 414.34593 30.055258 
L 415.34593 30.045748 
L 416.34593 30.034094 
L 417.34593 30.003065 
L 418.34593 29.991897 
L 419.34593 29.96178 
L 420.34593 29.902003 
L 421.34593 29.864811 
L 422.34593 29.825715 
L 423.34593 29.783275 
L 424.34593 29.75051 
L 425.34593 29.683084 
L 426.34593 29.643958 
L 427.34593 29.601283 
L 428.34593 29.530703 
L 429.34593 29.494312 
L 430.34593 29.435909 
L 431.34593 29.324956 
L 432.34593 29.254298 
L 433.34593 29.141358 
L 434.34593 29.095585 
L 435.34593 29.034302 
L 436.34593 28.985802 
L 437.34593 28.90498 
L 438.34593 28.786461 
L 439.34593 28.71625 
L 440.34593 28.632988 
L 441.34593 28.599846 
L 442.34593 28.548609 
L 443.34593 28.48021 
L 444.34593 28.413995 
L 445.34593 28.337078 
L 446.666183 28.309762 
" clip-path="url(#peab8800ba1)" style="fill: none; stroke: #ff7f0e; stroke-opacity: 0.5; stroke-width: 0.2; stroke-linecap: square"/>
   <path d="M 390.34593 203.87208 
L 391.34593 203.903516 
L 392.34593 203.940456 
L 393.34593 204.038203 
L 394.34593 204.070724 
L 395.34593 204.144349 
L 396.34593 204.182915 
L 397.34593 204.218328 
L 398.34593 204.275968 
L 399.34593 204.346354 
L 400.34593 204.398318 
L 401.34593 204.457408 
L 402.34593 204.545729 
L 403.34593 204.591873 
L 404.34593 204.634284 
L 405.34593 204.664777 
L 406.34593 204.690822 
L 407.34593 204.712022 
L 408.34593 204.766323 
L 409.34593 204.794261 
L 410.34593 204.823985 
L 411.34593 204.849379 
L 412.34593 204.86058 
L 413.34593 204.870704 
L 414.34593 204.870499 
L 415.34593 204.86099 
L 416.34593 204.849336 
L 417.34593 204.818307 
L 418.34593 204.807139 
L 419.34593 204.777021 
L 420.34593 204.717244 
L 421.34593 204.680053 
L 422.34593 204.640957 
L 423.34593 204.598517 
L 424.34593 204.565752 
L 425.34593 204.498325 
L 426.34593 204.4592 
L 427.34593 204.416525 
L 428.34593 204.345944 
L 429.34593 204.309554 
L 430.34593 204.25115 
L 431.34593 204.140198 
L 432.34593 204.069539 
L 433.34593 203.9566 
L 434.34593 203.910827 
L 435.34593 203.849544 
L 436.34593 203.801044 
L 437.34593 203.720221 
L 438.34593 203.601703 
L 439.34593 203.531492 
L 440.34593 203.448229 
L 441.34593 203.415088 
L 442.34593 203.36385 
L 443.34593 203.295452 
L 444.34593 203.229237 
L 445.34593 203.15232 
L 446.666183 203.125004 
" clip-path="url(#peab8800ba1)" style="fill: none; stroke: #ff7f0e; stroke-opacity: 0.5; stroke-width: 0.2; stroke-linecap: square"/>
   <path d="M 390.34593 41.698924 
L 391.34593 41.73036 
L 392.34593 41.767301 
L 393.34593 41.865047 
L 394.34593 41.897569 
L 395.34593 41.971194 
L 396.34593 42.009759 
L 397.34593 42.045172 
L 398.34593 42.102812 
L 399.34593 42.173198 
L 400.34593 42.225163 
L 401.34593 42.284252 
L 402.34593 42.372573 
L 403.34593 42.418718 
L 404.34593 42.461129 
L 405.34593 42.491621 
L 406.34593 42.517666 
L 407.34593 42.538866 
L 408.34593 42.593167 
L 409.34593 42.621105 
L 410.34593 42.650829 
L 411.34593 42.676224 
L 412.34593 42.687424 
L 413.34593 42.697548 
L 414.34593 42.697344 
L 415.34593 42.687834 
L 416.34593 42.67618 
L 417.34593 42.645151 
L 418.34593 42.633983 
L 419.34593 42.603866 
L 420.34593 42.544089 
L 421.34593 42.506897 
L 422.34593 42.467801 
L 423.34593 42.425361 
L 424.34593 42.392596 
L 425.34593 42.32517 
L 426.34593 42.286044 
L 427.34593 42.243369 
L 428.34593 42.172789 
L 429.34593 42.136398 
L 430.34593 42.077995 
L 431.34593 41.967042 
L 432.34593 41.896384 
L 433.34593 41.783444 
L 434.34593 41.737671 
L 435.34593 41.676388 
L 436.34593 41.627889 
L 437.34593 41.547066 
L 438.34593 41.428547 
L 439.34593 41.358336 
L 440.34593 41.275074 
L 441.34593 41.241932 
L 442.34593 41.190695 
L 443.34593 41.122296 
L 444.34593 41.056081 
L 445.34593 40.979164 
L 446.666183 40.951848 
" clip-path="url(#peab8800ba1)" style="fill: none; stroke: #ff7f0e; stroke-opacity: 0.5; stroke-width: 0.2; stroke-linecap: square"/>
   <path d="M 446.666183 59.222913 
L 445.666183 59.191477 
L 444.666183 59.154537 
L 443.666183 59.05679 
L 442.666183 59.024268 
L 441.666183 58.950644 
L 440.666183 58.912078 
L 439.666183 58.876665 
L 438.666183 58.819025 
L 437.666183 58.748639 
L 436.666183 58.696675 
L 435.666183 58.637585 
L 434.666183 58.549264 
L 433.666183 58.50312 
L 432.666183 58.460709 
L 431.666183 58.430216 
L 430.666183 58.404171 
L 429.666183 58.382971 
L 428.666183 58.32867 
L 427.666183 58.300732 
L 426.666183 58.271008 
L 425.666183 58.245614 
L 424.666183 58.234413 
L 423.666183 58.224289 
L 422.666183 58.224494 
L 421.666183 58.234003 
L 420.666183 58.245657 
L 419.666183 58.276686 
L 418.666183 58.287854 
L 417.666183 58.317972 
L 416.666183 58.377749 
L 415.666183 58.41494 
L 414.666183 58.454036 
L 413.666183 58.496476 
L 412.666183 58.529241 
L 411.666183 58.596667 
L 410.666183 58.635793 
L 409.666183 58.678468 
L 408.666183 58.749049 
L 407.666183 58.785439 
L 406.666183 58.843843 
L 405.666183 58.954795 
L 404.666183 59.025453 
L 403.666183 59.138393 
L 402.666183 59.184166 
L 401.666183 59.245449 
L 400.666183 59.293949 
L 399.666183 59.374771 
L 398.666183 59.49329 
L 397.666183 59.563501 
L 396.666183 59.646763 
L 395.666183 59.679905 
L 394.666183 59.731143 
L 393.666183 59.799541 
L 392.666183 59.865756 
L 391.666183 59.942673 
L 390.34593 59.969989 
" clip-path="url(#peab8800ba1)" style="fill: none; stroke: #2ca02c; stroke-opacity: 0.5; stroke-width: 0.2; stroke-linecap: square"/>
   <path d="M 446.666183 86.425404 
L 445.666183 86.393967 
L 444.666183 86.357027 
L 443.666183 86.25928 
L 442.666183 86.226759 
L 441.666183 86.153134 
L 440.666183 86.114569 
L 439.666183 86.079155 
L 438.666183 86.021515 
L 437.666183 85.951129 
L 436.666183 85.899165 
L 435.666183 85.840075 
L 434.666183 85.751754 
L 433.666183 85.70561 
L 432.666183 85.663199 
L 431.666183 85.632706 
L 430.666183 85.606661 
L 429.666183 85.585461 
L 428.666183 85.53116 
L 427.666183 85.503223 
L 426.666183 85.473499 
L 425.666183 85.448104 
L 424.666183 85.436904 
L 423.666183 85.42678 
L 422.666183 85.426984 
L 421.666183 85.436494 
L 420.666183 85.448147 
L 419.666183 85.479177 
L 418.666183 85.490345 
L 417.666183 85.520462 
L 416.666183 85.580239 
L 415.666183 85.617431 
L 414.666183 85.656527 
L 413.666183 85.698966 
L 412.666183 85.731731 
L 411.666183 85.799158 
L 410.666183 85.838284 
L 409.666183 85.880958 
L 408.666183 85.951539 
L 407.666183 85.98793 
L 406.666183 86.046333 
L 405.666183 86.157286 
L 404.666183 86.227944 
L 403.666183 86.340884 
L 402.666183 86.386657 
L 401.666183 86.44794 
L 400.666183 86.496439 
L 399.666183 86.577262 
L 398.666183 86.695781 
L 397.666183 86.765991 
L 396.666183 86.849254 
L 395.666183 86.882396 
L 394.666183 86.933633 
L 393.666183 87.002031 
L 392.666183 87.068247 
L 391.666183 87.145164 
L 390.34593 87.172479 
" clip-path="url(#peab8800ba1)" style="fill: none; stroke: #2ca02c; stroke-opacity: 0.5; stroke-width: 0.2; stroke-linecap: square"/>
   <path d="M 446.666183 211.824854 
L 445.666183 211.793418 
L 444.666183 211.756477 
L 443.666183 211.658731 
L 442.666183 211.626209 
L 441.666183 211.552585 
L 440.666183 211.514019 
L 439.666183 211.478606 
L 438.666183 211.420966 
L 437.666183 211.35058 
L 436.666183 211.298616 
L 435.666183 211.239526 
L 434.666183 211.151205 
L 433.666183 211.105061 
L 432.666183 211.06265 
L 431.666183 211.032157 
L 430.666183 211.006112 
L 429.666183 210.984912 
L 428.666183 210.930611 
L 427.666183 210.902673 
L 426.666183 210.872949 
L 425.666183 210.847554 
L 424.666183 210.836354 
L 423.666183 210.82623 
L 422.666183 210.826434 
L 421.666183 210.835944 
L 420.666183 210.847598 
L 419.666183 210.878627 
L 418.666183 210.889795 
L 417.666183 210.919913 
L 416.666183 210.979689 
L 415.666183 211.016881 
L 414.666183 211.055977 
L 413.666183 211.098417 
L 412.666183 211.131182 
L 411.666183 211.198608 
L 410.666183 211.237734 
L 409.666183 211.280409 
L 408.666183 211.350989 
L 407.666183 211.38738 
L 406.666183 211.445783 
L 405.666183 211.556736 
L 404.666183 211.627394 
L 403.666183 211.740334 
L 402.666183 211.786107 
L 401.666183 211.84739 
L 400.666183 211.89589 
L 399.666183 211.976712 
L 398.666183 212.095231 
L 397.666183 212.165442 
L 396.666183 212.248704 
L 395.666183 212.281846 
L 394.666183 212.333083 
L 393.666183 212.401482 
L 392.666183 212.467697 
L 391.666183 212.544614 
L 390.34593 212.57193 
" clip-path="url(#peab8800ba1)" style="fill: none; stroke: #2ca02c; stroke-opacity: 0.5; stroke-width: 0.2; stroke-linecap: square"/>
   <path d="M 446.666183 96.995591 
L 445.666183 96.964155 
L 444.666183 96.927215 
L 443.666183 96.829468 
L 442.666183 96.796946 
L 441.666183 96.723322 
L 440.666183 96.684756 
L 439.666183 96.649343 
L 438.666183 96.591703 
L 437.666183 96.521317 
L 436.666183 96.469353 
L 435.666183 96.410263 
L 434.666183 96.321942 
L 433.666183 96.275798 
L 432.666183 96.233387 
L 431.666183 96.202894 
L 430.666183 96.176849 
L 429.666183 96.155649 
L 428.666183 96.101348 
L 427.666183 96.07341 
L 426.666183 96.043686 
L 425.666183 96.018292 
L 424.666183 96.007091 
L 423.666183 95.996967 
L 422.666183 95.997172 
L 421.666183 96.006681 
L 420.666183 96.018335 
L 419.666183 96.049364 
L 418.666183 96.060532 
L 417.666183 96.09065 
L 416.666183 96.150427 
L 415.666183 96.187618 
L 414.666183 96.226714 
L 413.666183 96.269154 
L 412.666183 96.301919 
L 411.666183 96.369345 
L 410.666183 96.408471 
L 409.666183 96.451146 
L 408.666183 96.521726 
L 407.666183 96.558117 
L 406.666183 96.616521 
L 405.666183 96.727473 
L 404.666183 96.798131 
L 403.666183 96.911071 
L 402.666183 96.956844 
L 401.666183 97.018127 
L 400.666183 97.066627 
L 399.666183 97.147449 
L 398.666183 97.265968 
L 397.666183 97.336179 
L 396.666183 97.419441 
L 395.666183 97.452583 
L 394.666183 97.50382 
L 393.666183 97.572219 
L 392.666183 97.638434 
L 391.666183 97.715351 
L 390.34593 97.742667 
" clip-path="url(#peab8800ba1)" style="fill: none; stroke: #2ca02c; stroke-opacity: 0.5; stroke-width: 0.2; stroke-linecap: square"/>
   <path d="M 446.666183 174.308375 
L 445.666183 174.276939 
L 444.666183 174.239999 
L 443.666183 174.142252 
L 442.666183 174.10973 
L 441.666183 174.036106 
L 440.666183 173.99754 
L 439.666183 173.962127 
L 438.666183 173.904487 
L 437.666183 173.834101 
L 436.666183 173.782137 
L 435.666183 173.723047 
L 434.666183 173.634726 
L 433.666183 173.588582 
L 432.666183 173.546171 
L 431.666183 173.515678 
L 430.666183 173.489633 
L 429.666183 173.468433 
L 428.666183 173.414132 
L 427.666183 173.386194 
L 426.666183 173.35647 
L 425.666183 173.331076 
L 424.666183 173.319875 
L 423.666183 173.309751 
L 422.666183 173.309956 
L 421.666183 173.319465 
L 420.666183 173.331119 
L 419.666183 173.362148 
L 418.666183 173.373316 
L 417.666183 173.403434 
L 416.666183 173.463211 
L 415.666183 173.500402 
L 414.666183 173.539498 
L 413.666183 173.581938 
L 412.666183 173.614703 
L 411.666183 173.682129 
L 410.666183 173.721255 
L 409.666183 173.76393 
L 408.666183 173.834511 
L 407.666183 173.870901 
L 406.666183 173.929305 
L 405.666183 174.040257 
L 404.666183 174.110915 
L 403.666183 174.223855 
L 402.666183 174.269628 
L 401.666183 174.330911 
L 400.666183 174.379411 
L 399.666183 174.460233 
L 398.666183 174.578752 
L 397.666183 174.648963 
L 396.666183 174.732225 
L 395.666183 174.765367 
L 394.666183 174.816605 
L 393.666183 174.885003 
L 392.666183 174.951218 
L 391.666183 175.028135 
L 390.34593 175.055451 
" clip-path="url(#peab8800ba1)" style="fill: none; stroke: #2ca02c; stroke-opacity: 0.5; stroke-width: 0.2; stroke-linecap: square"/>
   <path d="M 446.666183 229.405604 
L 445.666183 229.374168 
L 444.666183 229.337228 
L 443.666183 229.239481 
L 442.666183 229.206959 
L 441.666183 229.133335 
L 440.666183 229.094769 
L 439.666183 229.059356 
L 438.666183 229.001716 
L 437.666183 228.93133 
L 436.666183 228.879366 
L 435.666183 228.820276 
L 434.666183 228.731955 
L 433.666183 228.685811 
L 432.666183 228.6434 
L 431.666183 228.612907 
L 430.666183 228.586862 
L 429.666183 228.565662 
L 428.666183 228.511361 
L 427.666183 228.483423 
L 426.666183 228.453699 
L 425.666183 228.428305 
L 424.666183 228.417104 
L 423.666183 228.40698 
L 422.666183 228.407185 
L 421.666183 228.416694 
L 420.666183 228.428348 
L 419.666183 228.459377 
L 418.666183 228.470545 
L 417.666183 228.500663 
L 416.666183 228.56044 
L 415.666183 228.597631 
L 414.666183 228.636727 
L 413.666183 228.679167 
L 412.666183 228.711932 
L 411.666183 228.779358 
L 410.666183 228.818484 
L 409.666183 228.861159 
L 408.666183 228.931739 
L 407.666183 228.96813 
L 406.666183 229.026534 
L 405.666183 229.137486 
L 404.666183 229.208144 
L 403.666183 229.321084 
L 402.666183 229.366857 
L 401.666183 229.42814 
L 400.666183 229.47664 
L 399.666183 229.557462 
L 398.666183 229.675981 
L 397.666183 229.746192 
L 396.666183 229.829454 
L 395.666183 229.862596 
L 394.666183 229.913833 
L 393.666183 229.982232 
L 392.666183 230.048447 
L 391.666183 230.125364 
L 390.34593 230.15268 
" clip-path="url(#peab8800ba1)" style="fill: none; stroke: #2ca02c; stroke-opacity: 0.5; stroke-width: 0.2; stroke-linecap: square"/>
   <path d="M 446.666183 123.823643 
L 445.666183 123.792207 
L 444.666183 123.755267 
L 443.666183 123.65752 
L 442.666183 123.624999 
L 441.666183 123.551374 
L 440.666183 123.512808 
L 439.666183 123.477395 
L 438.666183 123.419755 
L 437.666183 123.349369 
L 436.666183 123.297405 
L 435.666183 123.238315 
L 434.666183 123.149994 
L 433.666183 123.10385 
L 432.666183 123.061439 
L 431.666183 123.030946 
L 430.666183 123.004901 
L 429.666183 122.983701 
L 428.666183 122.9294 
L 427.666183 122.901462 
L 426.666183 122.871738 
L 425.666183 122.846344 
L 424.666183 122.835143 
L 423.666183 122.825019 
L 422.666183 122.825224 
L 421.666183 122.834734 
L 420.666183 122.846387 
L 419.666183 122.877416 
L 418.666183 122.888584 
L 417.666183 122.918702 
L 416.666183 122.978479 
L 415.666183 123.01567 
L 414.666183 123.054766 
L 413.666183 123.097206 
L 412.666183 123.129971 
L 411.666183 123.197398 
L 410.666183 123.236524 
L 409.666183 123.279198 
L 408.666183 123.349779 
L 407.666183 123.38617 
L 406.666183 123.444573 
L 405.666183 123.555525 
L 404.666183 123.626184 
L 403.666183 123.739123 
L 402.666183 123.784896 
L 401.666183 123.84618 
L 400.666183 123.894679 
L 399.666183 123.975502 
L 398.666183 124.09402 
L 397.666183 124.164231 
L 396.666183 124.247494 
L 395.666183 124.280635 
L 394.666183 124.331873 
L 393.666183 124.400271 
L 392.666183 124.466486 
L 391.666183 124.543404 
L 390.34593 124.570719 
" clip-path="url(#peab8800ba1)" style="fill: none; stroke: #2ca02c; stroke-opacity: 0.5; stroke-width: 0.2; stroke-linecap: square"/>
   <path d="M 446.666183 133.348363 
L 445.666183 133.316926 
L 444.666183 133.279986 
L 443.666183 133.182239 
L 442.666183 133.149718 
L 441.666183 133.076093 
L 440.666183 133.037528 
L 439.666183 133.002114 
L 438.666183 132.944474 
L 437.666183 132.874088 
L 436.666183 132.822124 
L 435.666183 132.763034 
L 434.666183 132.674713 
L 433.666183 132.628569 
L 432.666183 132.586158 
L 431.666183 132.555665 
L 430.666183 132.52962 
L 429.666183 132.50842 
L 428.666183 132.454119 
L 427.666183 132.426182 
L 426.666183 132.396458 
L 425.666183 132.371063 
L 424.666183 132.359863 
L 423.666183 132.349739 
L 422.666183 132.349943 
L 421.666183 132.359453 
L 420.666183 132.371106 
L 419.666183 132.402136 
L 418.666183 132.413304 
L 417.666183 132.443421 
L 416.666183 132.503198 
L 415.666183 132.54039 
L 414.666183 132.579486 
L 413.666183 132.621925 
L 412.666183 132.65469 
L 411.666183 132.722117 
L 410.666183 132.761243 
L 409.666183 132.803917 
L 408.666183 132.874498 
L 407.666183 132.910889 
L 406.666183 132.969292 
L 405.666183 133.080244 
L 404.666183 133.150903 
L 403.666183 133.263843 
L 402.666183 133.309616 
L 401.666183 133.370899 
L 400.666183 133.419398 
L 399.666183 133.500221 
L 398.666183 133.61874 
L 397.666183 133.68895 
L 396.666183 133.772213 
L 395.666183 133.805355 
L 394.666183 133.856592 
L 393.666183 133.92499 
L 392.666183 133.991206 
L 391.666183 134.068123 
L 390.34593 134.095438 
" clip-path="url(#peab8800ba1)" style="fill: none; stroke: #2ca02c; stroke-opacity: 0.5; stroke-width: 0.2; stroke-linecap: square"/>
   <path d="M 446.666183 192.895271 
L 445.666183 192.863835 
L 444.666183 192.826895 
L 443.666183 192.729148 
L 442.666183 192.696626 
L 441.666183 192.623002 
L 440.666183 192.584436 
L 439.666183 192.549023 
L 438.666183 192.491383 
L 437.666183 192.420997 
L 436.666183 192.369033 
L 435.666183 192.309943 
L 434.666183 192.221622 
L 433.666183 192.175478 
L 432.666183 192.133067 
L 431.666183 192.102574 
L 430.666183 192.076529 
L 429.666183 192.055329 
L 428.666183 192.001028 
L 427.666183 191.97309 
L 426.666183 191.943366 
L 425.666183 191.917972 
L 424.666183 191.906771 
L 423.666183 191.896647 
L 422.666183 191.896852 
L 421.666183 191.906361 
L 420.666183 191.918015 
L 419.666183 191.949044 
L 418.666183 191.960212 
L 417.666183 191.99033 
L 416.666183 192.050107 
L 415.666183 192.087298 
L 414.666183 192.126394 
L 413.666183 192.168834 
L 412.666183 192.201599 
L 411.666183 192.269025 
L 410.666183 192.308151 
L 409.666183 192.350826 
L 408.666183 192.421407 
L 407.666183 192.457797 
L 406.666183 192.516201 
L 405.666183 192.627153 
L 404.666183 192.697811 
L 403.666183 192.810751 
L 402.666183 192.856524 
L 401.666183 192.917807 
L 400.666183 192.966307 
L 399.666183 193.047129 
L 398.666183 193.165648 
L 397.666183 193.235859 
L 396.666183 193.319121 
L 395.666183 193.352263 
L 394.666183 193.403501 
L 393.666183 193.471899 
L 392.666183 193.538114 
L 391.666183 193.615031 
L 390.34593 193.642347 
" clip-path="url(#peab8800ba1)" style="fill: none; stroke: #2ca02c; stroke-opacity: 0.5; stroke-width: 0.2; stroke-linecap: square"/>
   <path d="M 446.666183 157.393161 
L 445.666183 157.361725 
L 444.666183 157.324785 
L 443.666183 157.227038 
L 442.666183 157.194517 
L 441.666183 157.120892 
L 440.666183 157.082326 
L 439.666183 157.046913 
L 438.666183 156.989273 
L 437.666183 156.918887 
L 436.666183 156.866923 
L 435.666183 156.807833 
L 434.666183 156.719512 
L 433.666183 156.673368 
L 432.666183 156.630957 
L 431.666183 156.600464 
L 430.666183 156.574419 
L 429.666183 156.553219 
L 428.666183 156.498918 
L 427.666183 156.47098 
L 426.666183 156.441256 
L 425.666183 156.415862 
L 424.666183 156.404661 
L 423.666183 156.394537 
L 422.666183 156.394742 
L 421.666183 156.404251 
L 420.666183 156.415905 
L 419.666183 156.446934 
L 418.666183 156.458102 
L 417.666183 156.48822 
L 416.666183 156.547997 
L 415.666183 156.585188 
L 414.666183 156.624284 
L 413.666183 156.666724 
L 412.666183 156.699489 
L 411.666183 156.766916 
L 410.666183 156.806041 
L 409.666183 156.848716 
L 408.666183 156.919297 
L 407.666183 156.955687 
L 406.666183 157.014091 
L 405.666183 157.125043 
L 404.666183 157.195702 
L 403.666183 157.308641 
L 402.666183 157.354414 
L 401.666183 157.415697 
L 400.666183 157.464197 
L 399.666183 157.545019 
L 398.666183 157.663538 
L 397.666183 157.733749 
L 396.666183 157.817012 
L 395.666183 157.850153 
L 394.666183 157.901391 
L 393.666183 157.969789 
L 392.666183 158.036004 
L 391.666183 158.112921 
L 390.34593 158.140237 
" clip-path="url(#peab8800ba1)" style="fill: none; stroke: #2ca02c; stroke-opacity: 0.5; stroke-width: 0.2; stroke-linecap: square"/>
   <g id="patch_3">
    <path d="M 72.103551 22.318125 
L 72.103551 318.021875 
M 194.769098 22.318125 
L 194.769098 318.021875 
" clip-path="url(#peab8800ba1)" style="fill: none; stroke: #ffffff; stroke-width: 3; stroke-linejoin: miter"/>
    <path d="M 72.103551 22.318125 
L 72.103551 318.021875 
M 194.769098 22.318125 
L 194.769098 318.021875 
" clip-path="url(#peab8800ba1)" style="fill: none; stroke: #1f77b4; stroke-linejoin: miter"/>
    <g id="PolyCollection_1">
     <path d="M 194.769098 22.318125 
L 72.103551 22.318125 
L 72.103551 318.021875 
L 194.769098 318.021875 
L 194.769098 318.021875 
L 194.769098 22.318125 
z
" clip-path="url(#peab8800ba1)" style="fill: #1f77b4; fill-opacity: 0.5"/>
    </g>
    <g id="patch_4">
     <path d="M 262.150039 22.318125 
L 262.150039 318.021875 
M 384.815586 22.318125 
L 384.815586 318.021875 
" clip-path="url(#peab8800ba1)" style="fill: none; stroke: #ffffff; stroke-width: 3; stroke-linejoin: miter"/>
     <path d="M 262.150039 22.318125 
L 262.150039 318.021875 
M 384.815586 22.318125 
L 384.815586 318.021875 
" clip-path="url(#peab8800ba1)" style="fill: none; stroke: #ff7f0e; stroke-linejoin: miter"/>
     <g id="PolyCollection_2">
      <path d="M 384.815586 22.318125 
L 262.150039 22.318125 
L 262.150039 318.021875 
L 384.815586 318.021875 
L 384.815586 318.021875 
L 384.815586 22.318125 
z
" clip-path="url(#peab8800ba1)" style="fill: #ff7f0e; fill-opacity: 0.5"/>
     </g>
     <g id="patch_5">
      <path d="M 452.196527 22.318125 
L 452.196527 318.021875 
M 574.862074 22.318125 
L 574.862074 318.021875 
" clip-path="url(#peab8800ba1)" style="fill: none; stroke: #ffffff; stroke-width: 3; stroke-linejoin: miter"/>
      <path d="M 452.196527 22.318125 
L 452.196527 318.021875 
M 574.862074 22.318125 
L 574.862074 318.021875 
" clip-path="url(#peab8800ba1)" style="fill: none; stroke: #2ca02c; stroke-linejoin: miter"/>
      <g id="PolyCollection_3">
       <path d="M 574.862074 22.318125 
L 452.196527 22.318125 
L 452.196527 318.021875 
L 574.862074 318.021875 
L 574.862074 318.021875 
L 574.862074 22.318125 
z
" clip-path="url(#peab8800ba1)" style="fill: #2ca02c; fill-opacity: 0.5"/>
      </g>
      <g id="matplotlib.axis_1">
       <g id="xtick_1">
        <g id="line2d_1"/>
        <g id="text_1">
         <!-- deme1 -->
         <g transform="translate(116.057418 329.120312) scale(0.1 -0.1)">
          <defs>
           <path id="DejaVuSans-64" d="M 2906 2969 
L 2906 4863 
L 3481 4863 
L 3481 0 
L 2906 0 
L 2906 525 
Q 2725 213 2448 61 
Q 2172 -91 1784 -91 
Q 1150 -91 751 415 
Q 353 922 353 1747 
Q 353 2572 751 3078 
Q 1150 3584 1784 3584 
Q 2172 3584 2448 3432 
Q 2725 3281 2906 2969 
z
M 947 1747 
Q 947 1113 1208 752 
Q 1469 391 1925 391 
Q 2381 391 2643 752 
Q 2906 1113 2906 1747 
Q 2906 2381 2643 2742 
Q 2381 3103 1925 3103 
Q 1469 3103 1208 2742 
Q 947 2381 947 1747 
z
" transform="scale(0.015625)"/>
           <path id="DejaVuSans-65" d="M 3597 1894 
L 3597 1613 
L 953 1613 
Q 991 1019 1311 708 
Q 1631 397 2203 397 
Q 2534 397 2845 478 
Q 3156 559 3463 722 
L 3463 178 
Q 3153 47 2828 -22 
Q 2503 -91 2169 -91 
Q 1331 -91 842 396 
Q 353 884 353 1716 
Q 353 2575 817 3079 
Q 1281 3584 2069 3584 
Q 2775 3584 3186 3129 
Q 3597 2675 3597 1894 
z
M 3022 2063 
Q 3016 2534 2758 2815 
Q 2500 3097 2075 3097 
Q 1594 3097 1305 2825 
Q 1016 2553 972 2059 
L 3022 2063 
z
" transform="scale(0.015625)"/>
           <path id="DejaVuSans-6d" d="M 3328 2828 
Q 3544 3216 3844 3400 
Q 4144 3584 4550 3584 
Q 5097 3584 5394 3201 
Q 5691 2819 5691 2113 
L 5691 0 
L 5113 0 
L 5113 2094 
Q 5113 2597 4934 2840 
Q 4756 3084 4391 3084 
Q 3944 3084 3684 2787 
Q 3425 2491 3425 1978 
L 3425 0 
L 2847 0 
L 2847 2094 
Q 2847 2600 2669 2842 
Q 2491 3084 2119 3084 
Q 1678 3084 1418 2786 
Q 1159 2488 1159 1978 
L 1159 0 
L 581 0 
L 581 3500 
L 1159 3500 
L 1159 2956 
Q 1356 3278 1631 3431 
Q 1906 3584 2284 3584 
Q 2666 3584 2933 3390 
Q 3200 3197 3328 2828 
z
" transform="scale(0.015625)"/>
           <path id="DejaVuSans-31" d="M 794 531 
L 1825 531 
L 1825 4091 
L 703 3866 
L 703 4441 
L 1819 4666 
L 2450 4666 
L 2450 531 
L 3481 531 
L 3481 0 
L 794 0 
L 794 531 
z
" transform="scale(0.015625)"/>
          </defs>
          <use xlink:href="#DejaVuSans-64"/>
          <use xlink:href="#DejaVuSans-65" x="63.476562"/>
          <use xlink:href="#DejaVuSans-6d" x="125"/>
          <use xlink:href="#DejaVuSans-65" x="222.412109"/>
          <use xlink:href="#DejaVuSans-31" x="283.935547"/>
         </g>
        </g>
       </g>
       <g id="xtick_2">
        <g id="line2d_2"/>
        <g id="text_2">
         <!-- deme2 -->
         <g transform="translate(306.103906 329.120312) scale(0.1 -0.1)">
          <defs>
           <path id="DejaVuSans-32" d="M 1228 531 
L 3431 531 
L 3431 0 
L 469 0 
L 469 531 
Q 828 903 1448 1529 
Q 2069 2156 2228 2338 
Q 2531 2678 2651 2914 
Q 2772 3150 2772 3378 
Q 2772 3750 2511 3984 
Q 2250 4219 1831 4219 
Q 1534 4219 1204 4116 
Q 875 4013 500 3803 
L 500 4441 
Q 881 4594 1212 4672 
Q 1544 4750 1819 4750 
Q 2544 4750 2975 4387 
Q 3406 4025 3406 3419 
Q 3406 3131 3298 2873 
Q 3191 2616 2906 2266 
Q 2828 2175 2409 1742 
Q 1991 1309 1228 531 
z
" transform="scale(0.015625)"/>
          </defs>
          <use xlink:href="#DejaVuSans-64"/>
          <use xlink:href="#DejaVuSans-65" x="63.476562"/>
          <use xlink:href="#DejaVuSans-6d" x="125"/>
          <use xlink:href="#DejaVuSans-65" x="222.412109"/>
          <use xlink:href="#DejaVuSans-32" x="283.935547"/>
         </g>
        </g>
       </g>
       <g id="xtick_3">
        <g id="line2d_3"/>
        <g id="text_3">
         <!-- deme3 -->
         <g transform="translate(496.150394 329.120312) scale(0.1 -0.1)">
          <defs>
           <path id="DejaVuSans-33" d="M 2597 2516 
Q 3050 2419 3304 2112 
Q 3559 1806 3559 1356 
Q 3559 666 3084 287 
Q 2609 -91 1734 -91 
Q 1441 -91 1130 -33 
Q 819 25 488 141 
L 488 750 
Q 750 597 1062 519 
Q 1375 441 1716 441 
Q 2309 441 2620 675 
Q 2931 909 2931 1356 
Q 2931 1769 2642 2001 
Q 2353 2234 1838 2234 
L 1294 2234 
L 1294 2753 
L 1863 2753 
Q 2328 2753 2575 2939 
Q 2822 3125 2822 3475 
Q 2822 3834 2567 4026 
Q 2313 4219 1838 4219 
Q 1578 4219 1281 4162 
Q 984 4106 628 3988 
L 628 4550 
Q 988 4650 1302 4700 
Q 1616 4750 1894 4750 
Q 2613 4750 3031 4423 
Q 3450 4097 3450 3541 
Q 3450 3153 3228 2886 
Q 3006 2619 2597 2516 
z
" transform="scale(0.015625)"/>
          </defs>
          <use xlink:href="#DejaVuSans-64"/>
          <use xlink:href="#DejaVuSans-65" x="63.476562"/>
          <use xlink:href="#DejaVuSans-6d" x="125"/>
          <use xlink:href="#DejaVuSans-65" x="222.412109"/>
          <use xlink:href="#DejaVuSans-33" x="283.935547"/>
         </g>
        </g>
       </g>
      </g>
      <g id="matplotlib.axis_2">
       <g id="ytick_1">
        <g id="line2d_4">
         <defs>
          <path id="me77937e0dc" d="M 0 0 
L -3.5 0 
" style="stroke: #000000; stroke-width: 0.8"/>
         </defs>
         <g>
          <use xlink:href="#me77937e0dc" x="46.965625" y="318.021875" style="stroke: #000000; stroke-width: 0.8"/>
         </g>
        </g>
        <g id="text_4">
         <!-- 0 -->
         <g transform="translate(33.603125 321.821094) scale(0.1 -0.1)">
          <defs>
           <path id="DejaVuSans-30" d="M 2034 4250 
Q 1547 4250 1301 3770 
Q 1056 3291 1056 2328 
Q 1056 1369 1301 889 
Q 1547 409 2034 409 
Q 2525 409 2770 889 
Q 3016 1369 3016 2328 
Q 3016 3291 2770 3770 
Q 2525 4250 2034 4250 
z
M 2034 4750 
Q 2819 4750 3233 4129 
Q 3647 3509 3647 2328 
Q 3647 1150 3233 529 
Q 2819 -91 2034 -91 
Q 1250 -91 836 529 
Q 422 1150 422 2328 
Q 422 3509 836 4129 
Q 1250 4750 2034 4750 
z
" transform="scale(0.015625)"/>
          </defs>
          <use xlink:href="#DejaVuSans-30"/>
         </g>
        </g>
       </g>
       <g id="ytick_2">
        <g id="line2d_5">
         <g>
          <use xlink:href="#me77937e0dc" x="46.965625" y="265.684928" style="stroke: #000000; stroke-width: 0.8"/>
         </g>
        </g>
        <g id="text_5">
         <!-- 20 -->
         <g transform="translate(27.240625 269.484147) scale(0.1 -0.1)">
          <use xlink:href="#DejaVuSans-32"/>
          <use xlink:href="#DejaVuSans-30" x="63.623047"/>
         </g>
        </g>
       </g>
       <g id="ytick_3">
        <g id="line2d_6">
         <g>
          <use xlink:href="#me77937e0dc" x="46.965625" y="213.347981" style="stroke: #000000; stroke-width: 0.8"/>
         </g>
        </g>
        <g id="text_6">
         <!-- 40 -->
         <g transform="translate(27.240625 217.1472) scale(0.1 -0.1)">
          <defs>
           <path id="DejaVuSans-34" d="M 2419 4116 
L 825 1625 
L 2419 1625 
L 2419 4116 
z
M 2253 4666 
L 3047 4666 
L 3047 1625 
L 3713 1625 
L 3713 1100 
L 3047 1100 
L 3047 0 
L 2419 0 
L 2419 1100 
L 313 1100 
L 313 1709 
L 2253 4666 
z
" transform="scale(0.015625)"/>
          </defs>
          <use xlink:href="#DejaVuSans-34"/>
          <use xlink:href="#DejaVuSans-30" x="63.623047"/>
         </g>
        </g>
       </g>
       <g id="ytick_4">
        <g id="line2d_7">
         <g>
          <use xlink:href="#me77937e0dc" x="46.965625" y="161.011034" style="stroke: #000000; stroke-width: 0.8"/>
         </g>
        </g>
        <g id="text_7">
         <!-- 60 -->
         <g transform="translate(27.240625 164.810253) scale(0.1 -0.1)">
          <defs>
           <path id="DejaVuSans-36" d="M 2113 2584 
Q 1688 2584 1439 2293 
Q 1191 2003 1191 1497 
Q 1191 994 1439 701 
Q 1688 409 2113 409 
Q 2538 409 2786 701 
Q 3034 994 3034 1497 
Q 3034 2003 2786 2293 
Q 2538 2584 2113 2584 
z
M 3366 4563 
L 3366 3988 
Q 3128 4100 2886 4159 
Q 2644 4219 2406 4219 
Q 1781 4219 1451 3797 
Q 1122 3375 1075 2522 
Q 1259 2794 1537 2939 
Q 1816 3084 2150 3084 
Q 2853 3084 3261 2657 
Q 3669 2231 3669 1497 
Q 3669 778 3244 343 
Q 2819 -91 2113 -91 
Q 1303 -91 875 529 
Q 447 1150 447 2328 
Q 447 3434 972 4092 
Q 1497 4750 2381 4750 
Q 2619 4750 2861 4703 
Q 3103 4656 3366 4563 
z
" transform="scale(0.015625)"/>
          </defs>
          <use xlink:href="#DejaVuSans-36"/>
          <use xlink:href="#DejaVuSans-30" x="63.623047"/>
         </g>
        </g>
       </g>
       <g id="ytick_5">
        <g id="line2d_8">
         <g>
          <use xlink:href="#me77937e0dc" x="46.965625" y="108.674087" style="stroke: #000000; stroke-width: 0.8"/>
         </g>
        </g>
        <g id="text_8">
         <!-- 80 -->
         <g transform="translate(27.240625 112.473306) scale(0.1 -0.1)">
          <defs>
           <path id="DejaVuSans-38" d="M 2034 2216 
Q 1584 2216 1326 1975 
Q 1069 1734 1069 1313 
Q 1069 891 1326 650 
Q 1584 409 2034 409 
Q 2484 409 2743 651 
Q 3003 894 3003 1313 
Q 3003 1734 2745 1975 
Q 2488 2216 2034 2216 
z
M 1403 2484 
Q 997 2584 770 2862 
Q 544 3141 544 3541 
Q 544 4100 942 4425 
Q 1341 4750 2034 4750 
Q 2731 4750 3128 4425 
Q 3525 4100 3525 3541 
Q 3525 3141 3298 2862 
Q 3072 2584 2669 2484 
Q 3125 2378 3379 2068 
Q 3634 1759 3634 1313 
Q 3634 634 3220 271 
Q 2806 -91 2034 -91 
Q 1263 -91 848 271 
Q 434 634 434 1313 
Q 434 1759 690 2068 
Q 947 2378 1403 2484 
z
M 1172 3481 
Q 1172 3119 1398 2916 
Q 1625 2713 2034 2713 
Q 2441 2713 2670 2916 
Q 2900 3119 2900 3481 
Q 2900 3844 2670 4047 
Q 2441 4250 2034 4250 
Q 1625 4250 1398 4047 
Q 1172 3844 1172 3481 
z
" transform="scale(0.015625)"/>
          </defs>
          <use xlink:href="#DejaVuSans-38"/>
          <use xlink:href="#DejaVuSans-30" x="63.623047"/>
         </g>
        </g>
       </g>
       <g id="ytick_6">
        <g id="line2d_9">
         <g>
          <use xlink:href="#me77937e0dc" x="46.965625" y="56.33714" style="stroke: #000000; stroke-width: 0.8"/>
         </g>
        </g>
        <g id="text_9">
         <!-- 100 -->
         <g transform="translate(20.878125 60.136359) scale(0.1 -0.1)">
          <use xlink:href="#DejaVuSans-31"/>
          <use xlink:href="#DejaVuSans-30" x="63.623047"/>
          <use xlink:href="#DejaVuSans-30" x="127.246094"/>
         </g>
        </g>
       </g>
       <g id="text_10">
        <!-- time ago (years) -->
        <g transform="translate(14.798437 211.603594) rotate(-90) scale(0.1 -0.1)">
         <defs>
          <path id="DejaVuSans-74" d="M 1172 4494 
L 1172 3500 
L 2356 3500 
L 2356 3053 
L 1172 3053 
L 1172 1153 
Q 1172 725 1289 603 
Q 1406 481 1766 481 
L 2356 481 
L 2356 0 
L 1766 0 
Q 1100 0 847 248 
Q 594 497 594 1153 
L 594 3053 
L 172 3053 
L 172 3500 
L 594 3500 
L 594 4494 
L 1172 4494 
z
" transform="scale(0.015625)"/>
          <path id="DejaVuSans-69" d="M 603 3500 
L 1178 3500 
L 1178 0 
L 603 0 
L 603 3500 
z
M 603 4863 
L 1178 4863 
L 1178 4134 
L 603 4134 
L 603 4863 
z
" transform="scale(0.015625)"/>
          <path id="DejaVuSans-20" transform="scale(0.015625)"/>
          <path id="DejaVuSans-61" d="M 2194 1759 
Q 1497 1759 1228 1600 
Q 959 1441 959 1056 
Q 959 750 1161 570 
Q 1363 391 1709 391 
Q 2188 391 2477 730 
Q 2766 1069 2766 1631 
L 2766 1759 
L 2194 1759 
z
M 3341 1997 
L 3341 0 
L 2766 0 
L 2766 531 
Q 2569 213 2275 61 
Q 1981 -91 1556 -91 
Q 1019 -91 701 211 
Q 384 513 384 1019 
Q 384 1609 779 1909 
Q 1175 2209 1959 2209 
L 2766 2209 
L 2766 2266 
Q 2766 2663 2505 2880 
Q 2244 3097 1772 3097 
Q 1472 3097 1187 3025 
Q 903 2953 641 2809 
L 641 3341 
Q 956 3463 1253 3523 
Q 1550 3584 1831 3584 
Q 2591 3584 2966 3190 
Q 3341 2797 3341 1997 
z
" transform="scale(0.015625)"/>
          <path id="DejaVuSans-67" d="M 2906 1791 
Q 2906 2416 2648 2759 
Q 2391 3103 1925 3103 
Q 1463 3103 1205 2759 
Q 947 2416 947 1791 
Q 947 1169 1205 825 
Q 1463 481 1925 481 
Q 2391 481 2648 825 
Q 2906 1169 2906 1791 
z
M 3481 434 
Q 3481 -459 3084 -895 
Q 2688 -1331 1869 -1331 
Q 1566 -1331 1297 -1286 
Q 1028 -1241 775 -1147 
L 775 -588 
Q 1028 -725 1275 -790 
Q 1522 -856 1778 -856 
Q 2344 -856 2625 -561 
Q 2906 -266 2906 331 
L 2906 616 
Q 2728 306 2450 153 
Q 2172 0 1784 0 
Q 1141 0 747 490 
Q 353 981 353 1791 
Q 353 2603 747 3093 
Q 1141 3584 1784 3584 
Q 2172 3584 2450 3431 
Q 2728 3278 2906 2969 
L 2906 3500 
L 3481 3500 
L 3481 434 
z
" transform="scale(0.015625)"/>
          <path id="DejaVuSans-6f" d="M 1959 3097 
Q 1497 3097 1228 2736 
Q 959 2375 959 1747 
Q 959 1119 1226 758 
Q 1494 397 1959 397 
Q 2419 397 2687 759 
Q 2956 1122 2956 1747 
Q 2956 2369 2687 2733 
Q 2419 3097 1959 3097 
z
M 1959 3584 
Q 2709 3584 3137 3096 
Q 3566 2609 3566 1747 
Q 3566 888 3137 398 
Q 2709 -91 1959 -91 
Q 1206 -91 779 398 
Q 353 888 353 1747 
Q 353 2609 779 3096 
Q 1206 3584 1959 3584 
z
" transform="scale(0.015625)"/>
          <path id="DejaVuSans-28" d="M 1984 4856 
Q 1566 4138 1362 3434 
Q 1159 2731 1159 2009 
Q 1159 1288 1364 580 
Q 1569 -128 1984 -844 
L 1484 -844 
Q 1016 -109 783 600 
Q 550 1309 550 2009 
Q 550 2706 781 3412 
Q 1013 4119 1484 4856 
L 1984 4856 
z
" transform="scale(0.015625)"/>
          <path id="DejaVuSans-79" d="M 2059 -325 
Q 1816 -950 1584 -1140 
Q 1353 -1331 966 -1331 
L 506 -1331 
L 506 -850 
L 844 -850 
Q 1081 -850 1212 -737 
Q 1344 -625 1503 -206 
L 1606 56 
L 191 3500 
L 800 3500 
L 1894 763 
L 2988 3500 
L 3597 3500 
L 2059 -325 
z
" transform="scale(0.015625)"/>
          <path id="DejaVuSans-72" d="M 2631 2963 
Q 2534 3019 2420 3045 
Q 2306 3072 2169 3072 
Q 1681 3072 1420 2755 
Q 1159 2438 1159 1844 
L 1159 0 
L 581 0 
L 581 3500 
L 1159 3500 
L 1159 2956 
Q 1341 3275 1631 3429 
Q 1922 3584 2338 3584 
Q 2397 3584 2469 3576 
Q 2541 3569 2628 3553 
L 2631 2963 
z
" transform="scale(0.015625)"/>
          <path id="DejaVuSans-73" d="M 2834 3397 
L 2834 2853 
Q 2591 2978 2328 3040 
Q 2066 3103 1784 3103 
Q 1356 3103 1142 2972 
Q 928 2841 928 2578 
Q 928 2378 1081 2264 
Q 1234 2150 1697 2047 
L 1894 2003 
Q 2506 1872 2764 1633 
Q 3022 1394 3022 966 
Q 3022 478 2636 193 
Q 2250 -91 1575 -91 
Q 1294 -91 989 -36 
Q 684 19 347 128 
L 347 722 
Q 666 556 975 473 
Q 1284 391 1588 391 
Q 1994 391 2212 530 
Q 2431 669 2431 922 
Q 2431 1156 2273 1281 
Q 2116 1406 1581 1522 
L 1381 1569 
Q 847 1681 609 1914 
Q 372 2147 372 2553 
Q 372 3047 722 3315 
Q 1072 3584 1716 3584 
Q 2034 3584 2315 3537 
Q 2597 3491 2834 3397 
z
" transform="scale(0.015625)"/>
          <path id="DejaVuSans-29" d="M 513 4856 
L 1013 4856 
Q 1481 4119 1714 3412 
Q 1947 2706 1947 2009 
Q 1947 1309 1714 600 
Q 1481 -109 1013 -844 
L 513 -844 
Q 928 -128 1133 580 
Q 1338 1288 1338 2009 
Q 1338 2731 1133 3434 
Q 928 4138 513 4856 
z
" transform="scale(0.015625)"/>
         </defs>
         <use xlink:href="#DejaVuSans-74"/>
         <use xlink:href="#DejaVuSans-69" x="39.208984"/>
         <use xlink:href="#DejaVuSans-6d" x="66.992188"/>
         <use xlink:href="#DejaVuSans-65" x="164.404297"/>
         <use xlink:href="#DejaVuSans-20" x="225.927734"/>
         <use xlink:href="#DejaVuSans-61" x="257.714844"/>
         <use xlink:href="#DejaVuSans-67" x="318.994141"/>
         <use xlink:href="#DejaVuSans-6f" x="382.470703"/>
         <use xlink:href="#DejaVuSans-20" x="443.652344"/>
         <use xlink:href="#DejaVuSans-28" x="475.439453"/>
         <use xlink:href="#DejaVuSans-79" x="514.453125"/>
         <use xlink:href="#DejaVuSans-65" x="573.632812"/>
         <use xlink:href="#DejaVuSans-61" x="635.15625"/>
         <use xlink:href="#DejaVuSans-72" x="696.435547"/>
         <use xlink:href="#DejaVuSans-73" x="737.548828"/>
         <use xlink:href="#DejaVuSans-29" x="789.648438"/>
        </g>
       </g>
      </g>
      <path d="M 257.619695 188.678408 
L 255.619695 187.678408 
L 255.619695 189.678408 
z
" clip-path="url(#peab8800ba1)" style="fill: #1f77b4; fill-opacity: 0.5; stroke: #1f77b4; stroke-opacity: 0.5; stroke-linejoin: miter"/>
      <path d="M 257.619695 81.43688 
L 255.619695 80.43688 
L 255.619695 82.43688 
z
" clip-path="url(#peab8800ba1)" style="fill: #1f77b4; fill-opacity: 0.5; stroke: #1f77b4; stroke-opacity: 0.5; stroke-linejoin: miter"/>
      <path d="M 257.619695 240.633936 
L 255.619695 239.633936 
L 255.619695 241.633936 
z
" clip-path="url(#peab8800ba1)" style="fill: #1f77b4; fill-opacity: 0.5; stroke: #1f77b4; stroke-opacity: 0.5; stroke-linejoin: miter"/>
      <path d="M 257.619695 59.204285 
L 255.619695 58.204285 
L 255.619695 60.204285 
z
" clip-path="url(#peab8800ba1)" style="fill: #1f77b4; fill-opacity: 0.5; stroke: #1f77b4; stroke-opacity: 0.5; stroke-linejoin: miter"/>
      <path d="M 257.619695 180.366666 
L 255.619695 179.366666 
L 255.619695 181.366666 
z
" clip-path="url(#peab8800ba1)" style="fill: #1f77b4; fill-opacity: 0.5; stroke: #1f77b4; stroke-opacity: 0.5; stroke-linejoin: miter"/>
      <path d="M 257.619695 64.223789 
L 255.619695 63.223789 
L 255.619695 65.223789 
z
" clip-path="url(#peab8800ba1)" style="fill: #1f77b4; fill-opacity: 0.5; stroke: #1f77b4; stroke-opacity: 0.5; stroke-linejoin: miter"/>
      <path d="M 257.619695 148.85491 
L 255.619695 147.85491 
L 255.619695 149.85491 
z
" clip-path="url(#peab8800ba1)" style="fill: #1f77b4; fill-opacity: 0.5; stroke: #1f77b4; stroke-opacity: 0.5; stroke-linejoin: miter"/>
      <path d="M 257.619695 108.918717 
L 255.619695 107.918717 
L 255.619695 109.918717 
z
" clip-path="url(#peab8800ba1)" style="fill: #1f77b4; fill-opacity: 0.5; stroke: #1f77b4; stroke-opacity: 0.5; stroke-linejoin: miter"/>
      <path d="M 257.619695 53.470739 
L 255.619695 52.470739 
L 255.619695 54.470739 
z
" clip-path="url(#peab8800ba1)" style="fill: #1f77b4; fill-opacity: 0.5; stroke: #1f77b4; stroke-opacity: 0.5; stroke-linejoin: miter"/>
      <path d="M 257.619695 307.384693 
L 255.619695 306.384693 
L 255.619695 308.384693 
z
" clip-path="url(#peab8800ba1)" style="fill: #1f77b4; fill-opacity: 0.5; stroke: #1f77b4; stroke-opacity: 0.5; stroke-linejoin: miter"/>
      <path d="M 199.299442 82.542082 
L 201.299442 83.542082 
L 201.299442 81.542082 
z
" clip-path="url(#peab8800ba1)" style="fill: #ff7f0e; fill-opacity: 0.5; stroke: #ff7f0e; stroke-opacity: 0.5; stroke-linejoin: miter"/>
      <path d="M 199.299442 118.879381 
L 201.299442 119.879381 
L 201.299442 117.879381 
z
" clip-path="url(#peab8800ba1)" style="fill: #ff7f0e; fill-opacity: 0.5; stroke: #ff7f0e; stroke-opacity: 0.5; stroke-linejoin: miter"/>
      <path d="M 199.299442 134.432505 
L 201.299442 135.432505 
L 201.299442 133.432505 
z
" clip-path="url(#peab8800ba1)" style="fill: #ff7f0e; fill-opacity: 0.5; stroke: #ff7f0e; stroke-opacity: 0.5; stroke-linejoin: miter"/>
      <path d="M 199.299442 266.844163 
L 201.299442 267.844163 
L 201.299442 265.844163 
z
" clip-path="url(#peab8800ba1)" style="fill: #ff7f0e; fill-opacity: 0.5; stroke: #ff7f0e; stroke-opacity: 0.5; stroke-linejoin: miter"/>
      <path d="M 199.299442 242.667646 
L 201.299442 243.667646 
L 201.299442 241.667646 
z
" clip-path="url(#peab8800ba1)" style="fill: #ff7f0e; fill-opacity: 0.5; stroke: #ff7f0e; stroke-opacity: 0.5; stroke-linejoin: miter"/>
      <path d="M 199.299442 280.041334 
L 201.299442 281.041334 
L 201.299442 279.041334 
z
" clip-path="url(#peab8800ba1)" style="fill: #ff7f0e; fill-opacity: 0.5; stroke: #ff7f0e; stroke-opacity: 0.5; stroke-linejoin: miter"/>
      <path d="M 199.299442 260.952938 
L 201.299442 261.952938 
L 201.299442 259.952938 
z
" clip-path="url(#peab8800ba1)" style="fill: #ff7f0e; fill-opacity: 0.5; stroke: #ff7f0e; stroke-opacity: 0.5; stroke-linejoin: miter"/>
      <path d="M 199.299442 204.973415 
L 201.299442 205.973415 
L 201.299442 203.973415 
z
" clip-path="url(#peab8800ba1)" style="fill: #ff7f0e; fill-opacity: 0.5; stroke: #ff7f0e; stroke-opacity: 0.5; stroke-linejoin: miter"/>
      <path d="M 199.299442 116.771366 
L 201.299442 117.771366 
L 201.299442 115.771366 
z
" clip-path="url(#peab8800ba1)" style="fill: #ff7f0e; fill-opacity: 0.5; stroke: #ff7f0e; stroke-opacity: 0.5; stroke-linejoin: miter"/>
      <path d="M 199.299442 164.188559 
L 201.299442 165.188559 
L 201.299442 163.188559 
z
" clip-path="url(#peab8800ba1)" style="fill: #ff7f0e; fill-opacity: 0.5; stroke: #ff7f0e; stroke-opacity: 0.5; stroke-linejoin: miter"/>
      <path d="M 447.666183 186.517746 
L 445.666183 185.517746 
L 445.666183 187.517746 
z
" clip-path="url(#peab8800ba1)" style="fill: #ff7f0e; fill-opacity: 0.5; stroke: #ff7f0e; stroke-opacity: 0.5; stroke-linejoin: miter"/>
      <path d="M 447.666183 201.946577 
L 445.666183 200.946577 
L 445.666183 202.946577 
z
" clip-path="url(#peab8800ba1)" style="fill: #ff7f0e; fill-opacity: 0.5; stroke: #ff7f0e; stroke-opacity: 0.5; stroke-linejoin: miter"/>
      <path d="M 447.666183 257.976273 
L 445.666183 256.976273 
L 445.666183 258.976273 
z
" clip-path="url(#peab8800ba1)" style="fill: #ff7f0e; fill-opacity: 0.5; stroke: #ff7f0e; stroke-opacity: 0.5; stroke-linejoin: miter"/>
      <path d="M 447.666183 103.015072 
L 445.666183 102.015072 
L 445.666183 104.015072 
z
" clip-path="url(#peab8800ba1)" style="fill: #ff7f0e; fill-opacity: 0.5; stroke: #ff7f0e; stroke-opacity: 0.5; stroke-linejoin: miter"/>
      <path d="M 447.666183 271.607168 
L 445.666183 270.607168 
L 445.666183 272.607168 
z
" clip-path="url(#peab8800ba1)" style="fill: #ff7f0e; fill-opacity: 0.5; stroke: #ff7f0e; stroke-opacity: 0.5; stroke-linejoin: miter"/>
      <path d="M 447.666183 168.296065 
L 445.666183 167.296065 
L 445.666183 169.296065 
z
" clip-path="url(#peab8800ba1)" style="fill: #ff7f0e; fill-opacity: 0.5; stroke: #ff7f0e; stroke-opacity: 0.5; stroke-linejoin: miter"/>
      <path d="M 447.666183 105.259789 
L 445.666183 104.259789 
L 445.666183 106.259789 
z
" clip-path="url(#peab8800ba1)" style="fill: #ff7f0e; fill-opacity: 0.5; stroke: #ff7f0e; stroke-opacity: 0.5; stroke-linejoin: miter"/>
      <path d="M 447.666183 29.056838 
L 445.666183 28.056838 
L 445.666183 30.056838 
z
" clip-path="url(#peab8800ba1)" style="fill: #ff7f0e; fill-opacity: 0.5; stroke: #ff7f0e; stroke-opacity: 0.5; stroke-linejoin: miter"/>
      <path d="M 447.666183 203.87208 
L 445.666183 202.87208 
L 445.666183 204.87208 
z
" clip-path="url(#peab8800ba1)" style="fill: #ff7f0e; fill-opacity: 0.5; stroke: #ff7f0e; stroke-opacity: 0.5; stroke-linejoin: miter"/>
      <path d="M 447.666183 41.698924 
L 445.666183 40.698924 
L 445.666183 42.698924 
z
" clip-path="url(#peab8800ba1)" style="fill: #ff7f0e; fill-opacity: 0.5; stroke: #ff7f0e; stroke-opacity: 0.5; stroke-linejoin: miter"/>
      <path d="M 389.34593 59.222913 
L 391.34593 60.222913 
L 391.34593 58.222913 
z
" clip-path="url(#peab8800ba1)" style="fill: #2ca02c; fill-opacity: 0.5; stroke: #2ca02c; stroke-opacity: 0.5; stroke-linejoin: miter"/>
      <path d="M 389.34593 86.425404 
L 391.34593 87.425404 
L 391.34593 85.425404 
z
" clip-path="url(#peab8800ba1)" style="fill: #2ca02c; fill-opacity: 0.5; stroke: #2ca02c; stroke-opacity: 0.5; stroke-linejoin: miter"/>
      <path d="M 389.34593 211.824854 
L 391.34593 212.824854 
L 391.34593 210.824854 
z
" clip-path="url(#peab8800ba1)" style="fill: #2ca02c; fill-opacity: 0.5; stroke: #2ca02c; stroke-opacity: 0.5; stroke-linejoin: miter"/>
      <path d="M 389.34593 96.995591 
L 391.34593 97.995591 
L 391.34593 95.995591 
z
" clip-path="url(#peab8800ba1)" style="fill: #2ca02c; fill-opacity: 0.5; stroke: #2ca02c; stroke-opacity: 0.5; stroke-linejoin: miter"/>
      <path d="M 389.34593 174.308375 
L 391.34593 175.308375 
L 391.34593 173.308375 
z
" clip-path="url(#peab8800ba1)" style="fill: #2ca02c; fill-opacity: 0.5; stroke: #2ca02c; stroke-opacity: 0.5; stroke-linejoin: miter"/>
      <path d="M 389.34593 229.405604 
L 391.34593 230.405604 
L 391.34593 228.405604 
z
" clip-path="url(#peab8800ba1)" style="fill: #2ca02c; fill-opacity: 0.5; stroke: #2ca02c; stroke-opacity: 0.5; stroke-linejoin: miter"/>
      <path d="M 389.34593 123.823643 
L 391.34593 124.823643 
L 391.34593 122.823643 
z
" clip-path="url(#peab8800ba1)" style="fill: #2ca02c; fill-opacity: 0.5; stroke: #2ca02c; stroke-opacity: 0.5; stroke-linejoin: miter"/>
      <path d="M 389.34593 133.348363 
L 391.34593 134.348363 
L 391.34593 132.348363 
z
" clip-path="url(#peab8800ba1)" style="fill: #2ca02c; fill-opacity: 0.5; stroke: #2ca02c; stroke-opacity: 0.5; stroke-linejoin: miter"/>
      <path d="M 389.34593 192.895271 
L 391.34593 193.895271 
L 391.34593 191.895271 
z
" clip-path="url(#peab8800ba1)" style="fill: #2ca02c; fill-opacity: 0.5; stroke: #2ca02c; stroke-opacity: 0.5; stroke-linejoin: miter"/>
      <path d="M 389.34593 157.393161 
L 391.34593 158.393161 
L 391.34593 156.393161 
z
" clip-path="url(#peab8800ba1)" style="fill: #2ca02c; fill-opacity: 0.5; stroke: #2ca02c; stroke-opacity: 0.5; stroke-linejoin: miter"/>
      <g id="patch_6">
       <path d="M 46.965625 318.021875 
L 46.965625 22.318125 
" style="fill: none; stroke: #000000; stroke-width: 0.8; stroke-linejoin: miter; stroke-linecap: square"/>
      </g>
      <g id="text_11">
       <!-- stepping_stone_model.yaml -->
       <g transform="translate(239.443437 16.318125) scale(0.12 -0.12)">
        <defs>
         <path id="DejaVuSans-70" d="M 1159 525 
L 1159 -1331 
L 581 -1331 
L 581 3500 
L 1159 3500 
L 1159 2969 
Q 1341 3281 1617 3432 
Q 1894 3584 2278 3584 
Q 2916 3584 3314 3078 
Q 3713 2572 3713 1747 
Q 3713 922 3314 415 
Q 2916 -91 2278 -91 
Q 1894 -91 1617 61 
Q 1341 213 1159 525 
z
M 3116 1747 
Q 3116 2381 2855 2742 
Q 2594 3103 2138 3103 
Q 1681 3103 1420 2742 
Q 1159 2381 1159 1747 
Q 1159 1113 1420 752 
Q 1681 391 2138 391 
Q 2594 391 2855 752 
Q 3116 1113 3116 1747 
z
" transform="scale(0.015625)"/>
         <path id="DejaVuSans-6e" d="M 3513 2113 
L 3513 0 
L 2938 0 
L 2938 2094 
Q 2938 2591 2744 2837 
Q 2550 3084 2163 3084 
Q 1697 3084 1428 2787 
Q 1159 2491 1159 1978 
L 1159 0 
L 581 0 
L 581 3500 
L 1159 3500 
L 1159 2956 
Q 1366 3272 1645 3428 
Q 1925 3584 2291 3584 
Q 2894 3584 3203 3211 
Q 3513 2838 3513 2113 
z
" transform="scale(0.015625)"/>
         <path id="DejaVuSans-5f" d="M 3263 -1063 
L 3263 -1509 
L -63 -1509 
L -63 -1063 
L 3263 -1063 
z
" transform="scale(0.015625)"/>
         <path id="DejaVuSans-6c" d="M 603 4863 
L 1178 4863 
L 1178 0 
L 603 0 
L 603 4863 
z
" transform="scale(0.015625)"/>
         <path id="DejaVuSans-2e" d="M 684 794 
L 1344 794 
L 1344 0 
L 684 0 
L 684 794 
z
" transform="scale(0.015625)"/>
        </defs>
        <use xlink:href="#DejaVuSans-73"/>
        <use xlink:href="#DejaVuSans-74" x="52.099609"/>
        <use xlink:href="#DejaVuSans-65" x="91.308594"/>
        <use xlink:href="#DejaVuSans-70" x="152.832031"/>
        <use xlink:href="#DejaVuSans-70" x="216.308594"/>
        <use xlink:href="#DejaVuSans-69" x="279.785156"/>
        <use xlink:href="#DejaVuSans-6e" x="307.568359"/>
        <use xlink:href="#DejaVuSans-67" x="370.947266"/>
        <use xlink:href="#DejaVuSans-5f" x="434.423828"/>
        <use xlink:href="#DejaVuSans-73" x="484.423828"/>
        <use xlink:href="#DejaVuSans-74" x="536.523438"/>
        <use xlink:href="#DejaVuSans-6f" x="575.732422"/>
        <use xlink:href="#DejaVuSans-6e" x="636.914062"/>
        <use xlink:href="#DejaVuSans-65" x="700.292969"/>
        <use xlink:href="#DejaVuSans-5f" x="761.816406"/>
        <use xlink:href="#DejaVuSans-6d" x="811.816406"/>
        <use xlink:href="#DejaVuSans-6f" x="909.228516"/>
        <use xlink:href="#DejaVuSans-64" x="970.410156"/>
        <use xlink:href="#DejaVuSans-65" x="1033.886719"/>
        <use xlink:href="#DejaVuSans-6c" x="1095.410156"/>
        <use xlink:href="#DejaVuSans-2e" x="1123.193359"/>
        <use xlink:href="#DejaVuSans-79" x="1154.980469"/>
        <use xlink:href="#DejaVuSans-61" x="1214.160156"/>
        <use xlink:href="#DejaVuSans-6d" x="1275.439453"/>
        <use xlink:href="#DejaVuSans-6c" x="1372.851562"/>
       </g>
      </g>
     </g>
    </g>
    <defs>
     <clipPath id="peab8800ba1">
      <rect x="46.965625" y="22.318125" width="553.034375" height="295.70375"/>
     </clipPath>
    </defs>
   </g>
  </g>
 </g>
</svg>