<?xml version="1.0" encoding="utf-8" standalone="no"?>
<!DOCTYPE svg PUBLIC "-//W3C//DTD SVG 1.1//EN"
  "http://www.w3.org/Graphics/SVG/1.1/DTD/svg11.dtd">
<svg xmlns:xlink="http://www.w3.org/1999/xlink" width="607.2pt" height="338.4pt" viewBox="0 0 607.2 338.4" xmlns="http://www.w3.org/2000/svg" version="1.1">
 <metadata>
  <rdf:RDF xmlns:dc="http://purl.org/dc/elements/1.1/" xmlns:cc="http://creativecommons.org/ns#" xmlns:rdf="http://www.w3.org/1999/02/22-rdf-syntax-ns#">
   <cc:Work>
    <dc:type rdf:resource="http://purl.org/dc/dcmitype/StillImage"/>
    <dc:date>2024-01-08T08:26:52.338267</dc:date>
    <dc:format>image/svg+xml</dc:format>
    <dc:creator>
     <cc:Agent>
      <dc:title>Matplotlib v3.7.2, https://matplotlib.org/</dc:title>
     </cc:Agent>
    </dc:creator>
   </cc:Work>
  </rdf:RDF>
 </metadata>
 <defs>
  <style type="text/css">*{stroke-linejoin: round; stroke-linecap: butt}</style>
 </defs>
 <g id="figure_1">
  <g id="patch_1">
   <path d="M 0 338.4 
L 607.2 338.4 
L 607.2 0 
L 0 0 
z
" style="fill: #ffffff"/>
  </g>
  <g id="axes_1">
   <g id="patch_2">
    <path d="M 43.78125 318.021875 
L 600 318.021875 
L 600 22.318125 
L 43.78125 22.318125 
z
" style="fill: #ffffff"/>
   </g>
   <path d="M 290.098299 188.367132 
L 291.098299 188.398569 
L 292.098299 188.435509 
L 293.098299 188.533256 
L 294.098299 188.565777 
L 295.098299 188.639402 
L 296.098299 188.677968 
L 297.098299 188.713381 
L 298.098299 188.771021 
L 299.098299 188.841407 
L 300.098299 188.893371 
L 301.098299 188.952461 
L 302.098299 189.040782 
L 303.098299 189.086926 
L 304.098299 189.129337 
L 305.098299 189.15983 
L 306.098299 189.185875 
L 307.098299 189.207075 
L 308.098299 189.261376 
L 309.098299 189.289313 
L 310.098299 189.319037 
L 311.098299 189.344432 
L 312.098299 189.355633 
L 313.098299 189.365757 
L 314.098299 189.365552 
L 315.098299 189.356042 
L 316.098299 189.344389 
L 317.098299 189.31336 
L 318.098299 189.302192 
L 319.098299 189.272074 
L 320.098299 189.212297 
L 321.098299 189.175106 
L 322.098299 189.13601 
L 323.098299 189.09357 
L 324.098299 189.060805 
L 325.098299 188.993378 
L 326.098299 188.954252 
L 327.098299 188.911578 
L 328.098299 188.840997 
L 329.098299 188.804606 
L 330.098299 188.746203 
L 331.098299 188.635251 
L 332.098299 188.564592 
L 333.098299 188.451652 
L 334.098299 188.40588 
L 335.098299 188.344596 
L 336.098299 188.296097 
L 337.098299 188.215274 
L 338.098299 188.096755 
L 339.098299 188.026545 
L 340.098299 187.943282 
L 341.098299 187.910141 
L 342.098299 187.858903 
L 343.098299 187.790505 
L 344.098299 187.724289 
L 345.098299 187.647372 
L 346.098299 187.620057 
L 347.098299 187.593579 
L 348.098299 187.570929 
L 349.098299 187.551397 
L 350.098299 187.525004 
L 351.098299 187.475233 
L 352.098299 187.44016 
L 353.682951 187.404294 
" clip-path="url(#p399bfad925)" style="fill: none; stroke: #1f77b4; stroke-opacity: 0.5; stroke-width: 0.2; stroke-linecap: square"/>
   <path d="M 290.098299 109.35005 
L 291.098299 109.381487 
L 292.098299 109.418427 
L 293.098299 109.516174 
L 294.098299 109.548695 
L 295.098299 109.62232 
L 296.098299 109.660886 
L 297.098299 109.696299 
L 298.098299 109.753939 
L 299.098299 109.824325 
L 300.098299 109.876289 
L 301.098299 109.935379 
L 302.098299 110.0237 
L 303.098299 110.069844 
L 304.098299 110.112255 
L 305.098299 110.142748 
L 306.098299 110.168793 
L 307.098299 110.189993 
L 308.098299 110.244294 
L 309.098299 110.272231 
L 310.098299 110.301955 
L 311.098299 110.32735 
L 312.098299 110.338551 
L 313.098299 110.348675 
L 314.098299 110.34847 
L 315.098299 110.33896 
L 316.098299 110.327307 
L 317.098299 110.296277 
L 318.098299 110.28511 
L 319.098299 110.254992 
L 320.098299 110.195215 
L 321.098299 110.158024 
L 322.098299 110.118927 
L 323.098299 110.076488 
L 324.098299 110.043723 
L 325.098299 109.976296 
L 326.098299 109.93717 
L 327.098299 109.894496 
L 328.098299 109.823915 
L 329.098299 109.787524 
L 330.098299 109.729121 
L 331.098299 109.618169 
L 332.098299 109.54751 
L 333.098299 109.43457 
L 334.098299 109.388798 
L 335.098299 109.327514 
L 336.098299 109.279015 
L 337.098299 109.198192 
L 338.098299 109.079673 
L 339.098299 109.009463 
L 340.098299 108.9262 
L 341.098299 108.893059 
L 342.098299 108.841821 
L 343.098299 108.773423 
L 344.098299 108.707207 
L 345.098299 108.63029 
L 346.098299 108.602975 
L 347.098299 108.576497 
L 348.098299 108.553847 
L 349.098299 108.534315 
L 350.098299 108.507921 
L 351.098299 108.458151 
L 352.098299 108.423077 
L 353.682951 108.387212 
" clip-path="url(#p399bfad925)" style="fill: none; stroke: #1f77b4; stroke-opacity: 0.5; stroke-width: 0.2; stroke-linecap: square"/>
   <path d="M 290.098299 107.798542 
L 291.098299 107.829978 
L 292.098299 107.866918 
L 293.098299 107.964665 
L 294.098299 107.997187 
L 295.098299 108.070811 
L 296.098299 108.109377 
L 297.098299 108.14479 
L 298.098299 108.20243 
L 299.098299 108.272816 
L 300.098299 108.32478 
L 301.098299 108.38387 
L 302.098299 108.472191 
L 303.098299 108.518335 
L 304.098299 108.560746 
L 305.098299 108.591239 
L 306.098299 108.617284 
L 307.098299 108.638484 
L 308.098299 108.692785 
L 309.098299 108.720723 
L 310.098299 108.750447 
L 311.098299 108.775841 
L 312.098299 108.787042 
L 313.098299 108.797166 
L 314.098299 108.796961 
L 315.098299 108.787452 
L 316.098299 108.775798 
L 317.098299 108.744769 
L 318.098299 108.733601 
L 319.098299 108.703483 
L 320.098299 108.643706 
L 321.098299 108.606515 
L 322.098299 108.567419 
L 323.098299 108.524979 
L 324.098299 108.492214 
L 325.098299 108.424788 
L 326.098299 108.385662 
L 327.098299 108.342987 
L 328.098299 108.272406 
L 329.098299 108.236016 
L 330.098299 108.177612 
L 331.098299 108.06666 
L 332.098299 107.996002 
L 333.098299 107.883062 
L 334.098299 107.837289 
L 335.098299 107.776006 
L 336.098299 107.727506 
L 337.098299 107.646684 
L 338.098299 107.528165 
L 339.098299 107.457954 
L 340.098299 107.374692 
L 341.098299 107.34155 
L 342.098299 107.290312 
L 343.098299 107.221914 
L 344.098299 107.155699 
L 345.098299 107.078782 
L 346.098299 107.051466 
L 347.098299 107.024989 
L 348.098299 107.002338 
L 349.098299 106.982807 
L 350.098299 106.956413 
L 351.098299 106.906642 
L 352.098299 106.871569 
L 353.682951 106.835703 
" clip-path="url(#p399bfad925)" style="fill: none; stroke: #1f77b4; stroke-opacity: 0.5; stroke-width: 0.2; stroke-linecap: square"/>
   <path d="M 290.098299 155.856568 
L 291.098299 155.888004 
L 292.098299 155.924945 
L 293.098299 156.022691 
L 294.098299 156.055213 
L 295.098299 156.128837 
L 296.098299 156.167403 
L 297.098299 156.202816 
L 298.098299 156.260456 
L 299.098299 156.330842 
L 300.098299 156.382807 
L 301.098299 156.441896 
L 302.098299 156.530217 
L 303.098299 156.576362 
L 304.098299 156.618773 
L 305.098299 156.649265 
L 306.098299 156.67531 
L 307.098299 156.69651 
L 308.098299 156.750811 
L 309.098299 156.778749 
L 310.098299 156.808473 
L 311.098299 156.833868 
L 312.098299 156.845068 
L 313.098299 156.855192 
L 314.098299 156.854988 
L 315.098299 156.845478 
L 316.098299 156.833824 
L 317.098299 156.802795 
L 318.098299 156.791627 
L 319.098299 156.76151 
L 320.098299 156.701733 
L 321.098299 156.664541 
L 322.098299 156.625445 
L 323.098299 156.583005 
L 324.098299 156.55024 
L 325.098299 156.482814 
L 326.098299 156.443688 
L 327.098299 156.401013 
L 328.098299 156.330433 
L 329.098299 156.294042 
L 330.098299 156.235639 
L 331.098299 156.124686 
L 332.098299 156.054028 
L 333.098299 155.941088 
L 334.098299 155.895315 
L 335.098299 155.834032 
L 336.098299 155.785532 
L 337.098299 155.70471 
L 338.098299 155.586191 
L 339.098299 155.51598 
L 340.098299 155.432718 
L 341.098299 155.399576 
L 342.098299 155.348339 
L 343.098299 155.27994 
L 344.098299 155.213725 
L 345.098299 155.136808 
L 346.098299 155.109492 
L 347.098299 155.083015 
L 348.098299 155.060364 
L 349.098299 155.040833 
L 350.098299 155.014439 
L 351.098299 154.964668 
L 352.098299 154.929595 
L 353.682951 154.893729 
" clip-path="url(#p399bfad925)" style="fill: none; stroke: #1f77b4; stroke-opacity: 0.5; stroke-width: 0.2; stroke-linecap: square"/>
   <path d="M 290.098299 113.883238 
L 291.098299 113.914675 
L 292.098299 113.951615 
L 293.098299 114.049362 
L 294.098299 114.081883 
L 295.098299 114.155508 
L 296.098299 114.194074 
L 297.098299 114.229487 
L 298.098299 114.287127 
L 299.098299 114.357513 
L 300.098299 114.409477 
L 301.098299 114.468567 
L 302.098299 114.556888 
L 303.098299 114.603032 
L 304.098299 114.645443 
L 305.098299 114.675936 
L 306.098299 114.701981 
L 307.098299 114.723181 
L 308.098299 114.777482 
L 309.098299 114.805419 
L 310.098299 114.835143 
L 311.098299 114.860538 
L 312.098299 114.871739 
L 313.098299 114.881863 
L 314.098299 114.881658 
L 315.098299 114.872148 
L 316.098299 114.860495 
L 317.098299 114.829466 
L 318.098299 114.818298 
L 319.098299 114.78818 
L 320.098299 114.728403 
L 321.098299 114.691212 
L 322.098299 114.652116 
L 323.098299 114.609676 
L 324.098299 114.576911 
L 325.098299 114.509484 
L 326.098299 114.470358 
L 327.098299 114.427684 
L 328.098299 114.357103 
L 329.098299 114.320712 
L 330.098299 114.262309 
L 331.098299 114.151357 
L 332.098299 114.080698 
L 333.098299 113.967758 
L 334.098299 113.921986 
L 335.098299 113.860702 
L 336.098299 113.812203 
L 337.098299 113.73138 
L 338.098299 113.612861 
L 339.098299 113.542651 
L 340.098299 113.459388 
L 341.098299 113.426247 
L 342.098299 113.375009 
L 343.098299 113.306611 
L 344.098299 113.240395 
L 345.098299 113.163478 
L 346.098299 113.136163 
L 347.098299 113.109685 
L 348.098299 113.087035 
L 349.098299 113.067503 
L 350.098299 113.04111 
L 351.098299 112.991339 
L 352.098299 112.956266 
L 353.682951 112.9204 
" clip-path="url(#p399bfad925)" style="fill: none; stroke: #1f77b4; stroke-opacity: 0.5; stroke-width: 0.2; stroke-linecap: square"/>
   <path d="M 290.098299 107.096724 
L 291.098299 107.128161 
L 292.098299 107.165101 
L 293.098299 107.262847 
L 294.098299 107.295369 
L 295.098299 107.368994 
L 296.098299 107.407559 
L 297.098299 107.442972 
L 298.098299 107.500612 
L 299.098299 107.570999 
L 300.098299 107.622963 
L 301.098299 107.682053 
L 302.098299 107.770374 
L 303.098299 107.816518 
L 304.098299 107.858929 
L 305.098299 107.889421 
L 306.098299 107.915466 
L 307.098299 107.936666 
L 308.098299 107.990968 
L 309.098299 108.018905 
L 310.098299 108.048629 
L 311.098299 108.074024 
L 312.098299 108.085224 
L 313.098299 108.095348 
L 314.098299 108.095144 
L 315.098299 108.085634 
L 316.098299 108.07398 
L 317.098299 108.042951 
L 318.098299 108.031783 
L 319.098299 108.001666 
L 320.098299 107.941889 
L 321.098299 107.904697 
L 322.098299 107.865601 
L 323.098299 107.823162 
L 324.098299 107.790396 
L 325.098299 107.72297 
L 326.098299 107.683844 
L 327.098299 107.64117 
L 328.098299 107.570589 
L 329.098299 107.534198 
L 330.098299 107.475795 
L 331.098299 107.364842 
L 332.098299 107.294184 
L 333.098299 107.181244 
L 334.098299 107.135471 
L 335.098299 107.074188 
L 336.098299 107.025689 
L 337.098299 106.944866 
L 338.098299 106.826347 
L 339.098299 106.756136 
L 340.098299 106.672874 
L 341.098299 106.639732 
L 342.098299 106.588495 
L 343.098299 106.520097 
L 344.098299 106.453881 
L 345.098299 106.376964 
L 346.098299 106.349649 
L 347.098299 106.323171 
L 348.098299 106.30052 
L 349.098299 106.280989 
L 350.098299 106.254595 
L 351.098299 106.204824 
L 352.098299 106.169751 
L 353.682951 106.133886 
" clip-path="url(#p399bfad925)" style="fill: none; stroke: #1f77b4; stroke-opacity: 0.5; stroke-width: 0.2; stroke-linecap: square"/>
   <path d="M 290.098299 156.929904 
L 291.098299 156.96134 
L 292.098299 156.998281 
L 293.098299 157.096027 
L 294.098299 157.128549 
L 295.098299 157.202173 
L 296.098299 157.240739 
L 297.098299 157.276152 
L 298.098299 157.333792 
L 299.098299 157.404178 
L 300.098299 157.456142 
L 301.098299 157.515232 
L 302.098299 157.603553 
L 303.098299 157.649697 
L 304.098299 157.692108 
L 305.098299 157.722601 
L 306.098299 157.748646 
L 307.098299 157.769846 
L 308.098299 157.824147 
L 309.098299 157.852085 
L 310.098299 157.881809 
L 311.098299 157.907204 
L 312.098299 157.918404 
L 313.098299 157.928528 
L 314.098299 157.928324 
L 315.098299 157.918814 
L 316.098299 157.90716 
L 317.098299 157.876131 
L 318.098299 157.864963 
L 319.098299 157.834845 
L 320.098299 157.775068 
L 321.098299 157.737877 
L 322.098299 157.698781 
L 323.098299 157.656341 
L 324.098299 157.623576 
L 325.098299 157.55615 
L 326.098299 157.517024 
L 327.098299 157.474349 
L 328.098299 157.403769 
L 329.098299 157.367378 
L 330.098299 157.308975 
L 331.098299 157.198022 
L 332.098299 157.127364 
L 333.098299 157.014424 
L 334.098299 156.968651 
L 335.098299 156.907368 
L 336.098299 156.858868 
L 337.098299 156.778046 
L 338.098299 156.659527 
L 339.098299 156.589316 
L 340.098299 156.506054 
L 341.098299 156.472912 
L 342.098299 156.421675 
L 343.098299 156.353276 
L 344.098299 156.287061 
L 345.098299 156.210144 
L 346.098299 156.182828 
L 347.098299 156.156351 
L 348.098299 156.1337 
L 349.098299 156.114169 
L 350.098299 156.087775 
L 351.098299 156.038004 
L 352.098299 156.002931 
L 353.682951 155.967065 
" clip-path="url(#p399bfad925)" style="fill: none; stroke: #1f77b4; stroke-opacity: 0.5; stroke-width: 0.2; stroke-linecap: square"/>
   <path d="M 290.098299 187.481705 
L 291.098299 187.513141 
L 292.098299 187.550081 
L 293.098299 187.647828 
L 294.098299 187.680349 
L 295.098299 187.753974 
L 296.098299 187.79254 
L 297.098299 187.827953 
L 298.098299 187.885593 
L 299.098299 187.955979 
L 300.098299 188.007943 
L 301.098299 188.067033 
L 302.098299 188.155354 
L 303.098299 188.201498 
L 304.098299 188.243909 
L 305.098299 188.274402 
L 306.098299 188.300447 
L 307.098299 188.321647 
L 308.098299 188.375948 
L 309.098299 188.403886 
L 310.098299 188.43361 
L 311.098299 188.459004 
L 312.098299 188.470205 
L 313.098299 188.480329 
L 314.098299 188.480124 
L 315.098299 188.470615 
L 316.098299 188.458961 
L 317.098299 188.427932 
L 318.098299 188.416764 
L 319.098299 188.386646 
L 320.098299 188.326869 
L 321.098299 188.289678 
L 322.098299 188.250582 
L 323.098299 188.208142 
L 324.098299 188.175377 
L 325.098299 188.10795 
L 326.098299 188.068825 
L 327.098299 188.02615 
L 328.098299 187.955569 
L 329.098299 187.919179 
L 330.098299 187.860775 
L 331.098299 187.749823 
L 332.098299 187.679164 
L 333.098299 187.566225 
L 334.098299 187.520452 
L 335.098299 187.459169 
L 336.098299 187.410669 
L 337.098299 187.329847 
L 338.098299 187.211328 
L 339.098299 187.141117 
L 340.098299 187.057854 
L 341.098299 187.024713 
L 342.098299 186.973475 
L 343.098299 186.905077 
L 344.098299 186.838862 
L 345.098299 186.761945 
L 346.098299 186.734629 
L 347.098299 186.708152 
L 348.098299 186.685501 
L 349.098299 186.66597 
L 350.098299 186.639576 
L 351.098299 186.589805 
L 352.098299 186.554732 
L 353.682951 186.518866 
" clip-path="url(#p399bfad925)" style="fill: none; stroke: #1f77b4; stroke-opacity: 0.5; stroke-width: 0.2; stroke-linecap: square"/>
   <path d="M 290.098299 125.439104 
L 291.098299 125.470541 
L 292.098299 125.507481 
L 293.098299 125.605227 
L 294.098299 125.637749 
L 295.098299 125.711374 
L 296.098299 125.749939 
L 297.098299 125.785352 
L 298.098299 125.842992 
L 299.098299 125.913379 
L 300.098299 125.965343 
L 301.098299 126.024433 
L 302.098299 126.112754 
L 303.098299 126.158898 
L 304.098299 126.201309 
L 305.098299 126.231801 
L 306.098299 126.257846 
L 307.098299 126.279046 
L 308.098299 126.333348 
L 309.098299 126.361285 
L 310.098299 126.391009 
L 311.098299 126.416404 
L 312.098299 126.427604 
L 313.098299 126.437728 
L 314.098299 126.437524 
L 315.098299 126.428014 
L 316.098299 126.41636 
L 317.098299 126.385331 
L 318.098299 126.374163 
L 319.098299 126.344046 
L 320.098299 126.284269 
L 321.098299 126.247077 
L 322.098299 126.207981 
L 323.098299 126.165542 
L 324.098299 126.132776 
L 325.098299 126.06535 
L 326.098299 126.026224 
L 327.098299 125.98355 
L 328.098299 125.912969 
L 329.098299 125.876578 
L 330.098299 125.818175 
L 331.098299 125.707222 
L 332.098299 125.636564 
L 333.098299 125.523624 
L 334.098299 125.477851 
L 335.098299 125.416568 
L 336.098299 125.368069 
L 337.098299 125.287246 
L 338.098299 125.168727 
L 339.098299 125.098516 
L 340.098299 125.015254 
L 341.098299 124.982112 
L 342.098299 124.930875 
L 343.098299 124.862477 
L 344.098299 124.796261 
L 345.098299 124.719344 
L 346.098299 124.692029 
L 347.098299 124.665551 
L 348.098299 124.6429 
L 349.098299 124.623369 
L 350.098299 124.596975 
L 351.098299 124.547204 
L 352.098299 124.512131 
L 353.682951 124.476266 
" clip-path="url(#p399bfad925)" style="fill: none; stroke: #1f77b4; stroke-opacity: 0.5; stroke-width: 0.2; stroke-linecap: square"/>
   <path d="M 290.098299 132.637497 
L 291.098299 132.668934 
L 292.098299 132.705874 
L 293.098299 132.803621 
L 294.098299 132.836142 
L 295.098299 132.909767 
L 296.098299 132.948333 
L 297.098299 132.983746 
L 298.098299 133.041386 
L 299.098299 133.111772 
L 300.098299 133.163736 
L 301.098299 133.222826 
L 302.098299 133.311147 
L 303.098299 133.357291 
L 304.098299 133.399702 
L 305.098299 133.430195 
L 306.098299 133.45624 
L 307.098299 133.47744 
L 308.098299 133.531741 
L 309.098299 133.559678 
L 310.098299 133.589402 
L 311.098299 133.614797 
L 312.098299 133.625998 
L 313.098299 133.636121 
L 314.098299 133.635917 
L 315.098299 133.626407 
L 316.098299 133.614754 
L 317.098299 133.583724 
L 318.098299 133.572557 
L 319.098299 133.542439 
L 320.098299 133.482662 
L 321.098299 133.445471 
L 322.098299 133.406374 
L 323.098299 133.363935 
L 324.098299 133.33117 
L 325.098299 133.263743 
L 326.098299 133.224617 
L 327.098299 133.181943 
L 328.098299 133.111362 
L 329.098299 133.074971 
L 330.098299 133.016568 
L 331.098299 132.905616 
L 332.098299 132.834957 
L 333.098299 132.722017 
L 334.098299 132.676245 
L 335.098299 132.614961 
L 336.098299 132.566462 
L 337.098299 132.485639 
L 338.098299 132.36712 
L 339.098299 132.29691 
L 340.098299 132.213647 
L 341.098299 132.180505 
L 342.098299 132.129268 
L 343.098299 132.06087 
L 344.098299 131.994654 
L 345.098299 131.917737 
L 346.098299 131.890422 
L 347.098299 131.863944 
L 348.098299 131.841294 
L 349.098299 131.821762 
L 350.098299 131.795368 
L 351.098299 131.745598 
L 352.098299 131.710524 
L 353.682951 131.674659 
" clip-path="url(#p399bfad925)" style="fill: none; stroke: #1f77b4; stroke-opacity: 0.5; stroke-width: 0.2; stroke-linecap: square"/>
   <path d="M 290.098299 202.923113 
L 291.098299 202.954549 
L 292.098299 202.99149 
L 293.098299 203.089236 
L 294.098299 203.121758 
L 295.098299 203.195383 
L 296.098299 203.233948 
L 297.098299 203.269361 
L 298.098299 203.327001 
L 299.098299 203.397387 
L 300.098299 203.449352 
L 301.098299 203.508441 
L 302.098299 203.596762 
L 303.098299 203.642907 
L 304.098299 203.685318 
L 305.098299 203.71581 
L 306.098299 203.741855 
L 307.098299 203.763055 
L 308.098299 203.817356 
L 309.098299 203.845294 
L 310.098299 203.875018 
L 311.098299 203.900413 
L 312.098299 203.911613 
L 313.098299 203.921737 
L 314.098299 203.921533 
L 315.098299 203.912023 
L 316.098299 203.900369 
L 317.098299 203.86934 
L 318.098299 203.858172 
L 319.098299 203.828055 
L 320.098299 203.768278 
L 321.098299 203.731086 
L 322.098299 203.69199 
L 323.098299 203.64955 
L 324.098299 203.616785 
L 325.098299 203.549359 
L 326.098299 203.510233 
L 327.098299 203.467558 
L 328.098299 203.396978 
L 329.098299 203.360587 
L 330.098299 203.302184 
L 331.098299 203.191231 
L 332.098299 203.120573 
L 333.098299 203.007633 
L 334.098299 202.96186 
L 335.098299 202.900577 
L 336.098299 202.852078 
L 337.098299 202.771255 
L 338.098299 202.652736 
L 339.098299 202.582525 
L 340.098299 202.499263 
L 341.098299 202.466121 
L 342.098299 202.414884 
L 343.098299 202.346485 
L 344.098299 202.28027 
L 345.098299 202.203353 
L 346.098299 202.176037 
L 347.098299 202.14956 
L 348.098299 202.126909 
L 349.098299 202.107378 
L 350.098299 202.080984 
L 351.098299 202.031213 
L 352.098299 201.99614 
L 353.682951 201.960274 
" clip-path="url(#p399bfad925)" style="fill: none; stroke: #1f77b4; stroke-opacity: 0.5; stroke-width: 0.2; stroke-linecap: square"/>
   <path d="M 290.098299 310.941312 
L 291.098299 310.972748 
L 292.098299 311.009689 
L 293.098299 311.107435 
L 294.098299 311.139957 
L 295.098299 311.213582 
L 296.098299 311.252147 
L 297.098299 311.28756 
L 298.098299 311.3452 
L 299.098299 311.415586 
L 300.098299 311.467551 
L 301.098299 311.52664 
L 302.098299 311.614961 
L 303.098299 311.661106 
L 304.098299 311.703517 
L 305.098299 311.734009 
L 306.098299 311.760054 
L 307.098299 311.781254 
L 308.098299 311.835555 
L 309.098299 311.863493 
L 310.098299 311.893217 
L 311.098299 311.918612 
L 312.098299 311.929812 
L 313.098299 311.939936 
L 314.098299 311.939732 
L 315.098299 311.930222 
L 316.098299 311.918568 
L 317.098299 311.887539 
L 318.098299 311.876371 
L 319.098299 311.846254 
L 320.098299 311.786477 
L 321.098299 311.749285 
L 322.098299 311.710189 
L 323.098299 311.667749 
L 324.098299 311.634984 
L 325.098299 311.567558 
L 326.098299 311.528432 
L 327.098299 311.485757 
L 328.098299 311.415177 
L 329.098299 311.378786 
L 330.098299 311.320383 
L 331.098299 311.20943 
L 332.098299 311.138772 
L 333.098299 311.025832 
L 334.098299 310.980059 
L 335.098299 310.918776 
L 336.098299 310.870277 
L 337.098299 310.789454 
L 338.098299 310.670935 
L 339.098299 310.600724 
L 340.098299 310.517462 
L 341.098299 310.48432 
L 342.098299 310.433083 
L 343.098299 310.364684 
L 344.098299 310.298469 
L 345.098299 310.221552 
L 346.098299 310.194237 
L 347.098299 310.167759 
L 348.098299 310.145108 
L 349.098299 310.125577 
L 350.098299 310.099183 
L 351.098299 310.049412 
L 352.098299 310.014339 
L 353.682951 309.978473 
" clip-path="url(#p399bfad925)" style="fill: none; stroke: #1f77b4; stroke-opacity: 0.5; stroke-width: 0.2; stroke-linecap: square"/>
   <path d="M 290.098299 268.677426 
L 291.098299 268.708862 
L 292.098299 268.745802 
L 293.098299 268.843549 
L 294.098299 268.876071 
L 295.098299 268.949695 
L 296.098299 268.988261 
L 297.098299 269.023674 
L 298.098299 269.081314 
L 299.098299 269.1517 
L 300.098299 269.203664 
L 301.098299 269.262754 
L 302.098299 269.351075 
L 303.098299 269.397219 
L 304.098299 269.43963 
L 305.098299 269.470123 
L 306.098299 269.496168 
L 307.098299 269.517368 
L 308.098299 269.571669 
L 309.098299 269.599607 
L 310.098299 269.629331 
L 311.098299 269.654725 
L 312.098299 269.665926 
L 313.098299 269.67605 
L 314.098299 269.675846 
L 315.098299 269.666336 
L 316.098299 269.654682 
L 317.098299 269.623653 
L 318.098299 269.612485 
L 319.098299 269.582367 
L 320.098299 269.52259 
L 321.098299 269.485399 
L 322.098299 269.446303 
L 323.098299 269.403863 
L 324.098299 269.371098 
L 325.098299 269.303672 
L 326.098299 269.264546 
L 327.098299 269.221871 
L 328.098299 269.151291 
L 329.098299 269.1149 
L 330.098299 269.056496 
L 331.098299 268.945544 
L 332.098299 268.874886 
L 333.098299 268.761946 
L 334.098299 268.716173 
L 335.098299 268.65489 
L 336.098299 268.60639 
L 337.098299 268.525568 
L 338.098299 268.407049 
L 339.098299 268.336838 
L 340.098299 268.253576 
L 341.098299 268.220434 
L 342.098299 268.169197 
L 343.098299 268.100798 
L 344.098299 268.034583 
L 345.098299 267.957666 
L 346.098299 267.93035 
L 347.098299 267.903873 
L 348.098299 267.881222 
L 349.098299 267.861691 
L 350.098299 267.835297 
L 351.098299 267.785526 
L 352.098299 267.750453 
L 353.682951 267.714587 
" clip-path="url(#p399bfad925)" style="fill: none; stroke: #1f77b4; stroke-opacity: 0.5; stroke-width: 0.2; stroke-linecap: square"/>
   <path d="M 290.098299 305.992398 
L 291.098299 306.023834 
L 292.098299 306.060775 
L 293.098299 306.158521 
L 294.098299 306.191043 
L 295.098299 306.264667 
L 296.098299 306.303233 
L 297.098299 306.338646 
L 298.098299 306.396286 
L 299.098299 306.466672 
L 300.098299 306.518636 
L 301.098299 306.577726 
L 302.098299 306.666047 
L 303.098299 306.712191 
L 304.098299 306.754602 
L 305.098299 306.785095 
L 306.098299 306.81114 
L 307.098299 306.83234 
L 308.098299 306.886641 
L 309.098299 306.914579 
L 310.098299 306.944303 
L 311.098299 306.969698 
L 312.098299 306.980898 
L 313.098299 306.991022 
L 314.098299 306.990818 
L 315.098299 306.981308 
L 316.098299 306.969654 
L 317.098299 306.938625 
L 318.098299 306.927457 
L 319.098299 306.897339 
L 320.098299 306.837562 
L 321.098299 306.800371 
L 322.098299 306.761275 
L 323.098299 306.718835 
L 324.098299 306.68607 
L 325.098299 306.618644 
L 326.098299 306.579518 
L 327.098299 306.536843 
L 328.098299 306.466263 
L 329.098299 306.429872 
L 330.098299 306.371469 
L 331.098299 306.260516 
L 332.098299 306.189858 
L 333.098299 306.076918 
L 334.098299 306.031145 
L 335.098299 305.969862 
L 336.098299 305.921362 
L 337.098299 305.84054 
L 338.098299 305.722021 
L 339.098299 305.65181 
L 340.098299 305.568548 
L 341.098299 305.535406 
L 342.098299 305.484169 
L 343.098299 305.41577 
L 344.098299 305.349555 
L 345.098299 305.272638 
L 346.098299 305.245322 
L 347.098299 305.218845 
L 348.098299 305.196194 
L 349.098299 305.176663 
L 350.098299 305.150269 
L 351.098299 305.100498 
L 352.098299 305.065425 
L 353.682951 305.029559 
" clip-path="url(#p399bfad925)" style="fill: none; stroke: #1f77b4; stroke-opacity: 0.5; stroke-width: 0.2; stroke-linecap: square"/>
   <path d="M 290.098299 267.075494 
L 291.098299 267.106931 
L 292.098299 267.143871 
L 293.098299 267.241618 
L 294.098299 267.274139 
L 295.098299 267.347764 
L 296.098299 267.38633 
L 297.098299 267.421743 
L 298.098299 267.479383 
L 299.098299 267.549769 
L 300.098299 267.601733 
L 301.098299 267.660823 
L 302.098299 267.749144 
L 303.098299 267.795288 
L 304.098299 267.837699 
L 305.098299 267.868192 
L 306.098299 267.894237 
L 307.098299 267.915437 
L 308.098299 267.969738 
L 309.098299 267.997675 
L 310.098299 268.027399 
L 311.098299 268.052794 
L 312.098299 268.063995 
L 313.098299 268.074119 
L 314.098299 268.073914 
L 315.098299 268.064404 
L 316.098299 268.052751 
L 317.098299 268.021722 
L 318.098299 268.010554 
L 319.098299 267.980436 
L 320.098299 267.920659 
L 321.098299 267.883468 
L 322.098299 267.844372 
L 323.098299 267.801932 
L 324.098299 267.769167 
L 325.098299 267.70174 
L 326.098299 267.662614 
L 327.098299 267.61994 
L 328.098299 267.549359 
L 329.098299 267.512968 
L 330.098299 267.454565 
L 331.098299 267.343613 
L 332.098299 267.272954 
L 333.098299 267.160014 
L 334.098299 267.114242 
L 335.098299 267.052958 
L 336.098299 267.004459 
L 337.098299 266.923636 
L 338.098299 266.805117 
L 339.098299 266.734907 
L 340.098299 266.651644 
L 341.098299 266.618503 
L 342.098299 266.567265 
L 343.098299 266.498867 
L 344.098299 266.432651 
L 345.098299 266.355734 
L 346.098299 266.328419 
L 347.098299 266.301941 
L 348.098299 266.279291 
L 349.098299 266.259759 
L 350.098299 266.233365 
L 351.098299 266.183595 
L 352.098299 266.148522 
L 353.682951 266.112656 
" clip-path="url(#p399bfad925)" style="fill: none; stroke: #1f77b4; stroke-opacity: 0.5; stroke-width: 0.2; stroke-linecap: square"/>
   <path d="M 290.098299 207.410735 
L 291.098299 207.442172 
L 292.098299 207.479112 
L 293.098299 207.576858 
L 294.098299 207.60938 
L 295.098299 207.683005 
L 296.098299 207.72157 
L 297.098299 207.756983 
L 298.098299 207.814623 
L 299.098299 207.88501 
L 300.098299 207.936974 
L 301.098299 207.996064 
L 302.098299 208.084385 
L 303.098299 208.130529 
L 304.098299 208.17294 
L 305.098299 208.203432 
L 306.098299 208.229477 
L 307.098299 208.250677 
L 308.098299 208.304979 
L 309.098299 208.332916 
L 310.098299 208.36264 
L 311.098299 208.388035 
L 312.098299 208.399235 
L 313.098299 208.409359 
L 314.098299 208.409155 
L 315.098299 208.399645 
L 316.098299 208.387992 
L 317.098299 208.356962 
L 318.098299 208.345794 
L 319.098299 208.315677 
L 320.098299 208.2559 
L 321.098299 208.218708 
L 322.098299 208.179612 
L 323.098299 208.137173 
L 324.098299 208.104407 
L 325.098299 208.036981 
L 326.098299 207.997855 
L 327.098299 207.955181 
L 328.098299 207.8846 
L 329.098299 207.848209 
L 330.098299 207.789806 
L 331.098299 207.678853 
L 332.098299 207.608195 
L 333.098299 207.495255 
L 334.098299 207.449482 
L 335.098299 207.388199 
L 336.098299 207.3397 
L 337.098299 207.258877 
L 338.098299 207.140358 
L 339.098299 207.070148 
L 340.098299 206.986885 
L 341.098299 206.953743 
L 342.098299 206.902506 
L 343.098299 206.834108 
L 344.098299 206.767892 
L 345.098299 206.690975 
L 346.098299 206.66366 
L 347.098299 206.637182 
L 348.098299 206.614531 
L 349.098299 206.595 
L 350.098299 206.568606 
L 351.098299 206.518835 
L 352.098299 206.483762 
L 353.682951 206.447897 
" clip-path="url(#p399bfad925)" style="fill: none; stroke: #1f77b4; stroke-opacity: 0.5; stroke-width: 0.2; stroke-linecap: square"/>
   <path d="M 290.098299 233.348148 
L 291.098299 233.379585 
L 292.098299 233.416525 
L 293.098299 233.514272 
L 294.098299 233.546793 
L 295.098299 233.620418 
L 296.098299 233.658984 
L 297.098299 233.694397 
L 298.098299 233.752037 
L 299.098299 233.822423 
L 300.098299 233.874387 
L 301.098299 233.933477 
L 302.098299 234.021798 
L 303.098299 234.067942 
L 304.098299 234.110353 
L 305.098299 234.140846 
L 306.098299 234.166891 
L 307.098299 234.188091 
L 308.098299 234.242392 
L 309.098299 234.270329 
L 310.098299 234.300053 
L 311.098299 234.325448 
L 312.098299 234.336649 
L 313.098299 234.346773 
L 314.098299 234.346568 
L 315.098299 234.337058 
L 316.098299 234.325405 
L 317.098299 234.294375 
L 318.098299 234.283208 
L 319.098299 234.25309 
L 320.098299 234.193313 
L 321.098299 234.156122 
L 322.098299 234.117025 
L 323.098299 234.074586 
L 324.098299 234.041821 
L 325.098299 233.974394 
L 326.098299 233.935268 
L 327.098299 233.892594 
L 328.098299 233.822013 
L 329.098299 233.785622 
L 330.098299 233.727219 
L 331.098299 233.616267 
L 332.098299 233.545608 
L 333.098299 233.432668 
L 334.098299 233.386896 
L 335.098299 233.325612 
L 336.098299 233.277113 
L 337.098299 233.19629 
L 338.098299 233.077771 
L 339.098299 233.007561 
L 340.098299 232.924298 
L 341.098299 232.891157 
L 342.098299 232.839919 
L 343.098299 232.771521 
L 344.098299 232.705305 
L 345.098299 232.628388 
L 346.098299 232.601073 
L 347.098299 232.574595 
L 348.098299 232.551945 
L 349.098299 232.532413 
L 350.098299 232.506019 
L 351.098299 232.456249 
L 352.098299 232.421175 
L 353.682951 232.38531 
" clip-path="url(#p399bfad925)" style="fill: none; stroke: #1f77b4; stroke-opacity: 0.5; stroke-width: 0.2; stroke-linecap: square"/>
   <path d="M 290.098299 259.973128 
L 291.098299 260.004564 
L 292.098299 260.041504 
L 293.098299 260.139251 
L 294.098299 260.171772 
L 295.098299 260.245397 
L 296.098299 260.283963 
L 297.098299 260.319376 
L 298.098299 260.377016 
L 299.098299 260.447402 
L 300.098299 260.499366 
L 301.098299 260.558456 
L 302.098299 260.646777 
L 303.098299 260.692921 
L 304.098299 260.735332 
L 305.098299 260.765825 
L 306.098299 260.79187 
L 307.098299 260.81307 
L 308.098299 260.867371 
L 309.098299 260.895309 
L 310.098299 260.925033 
L 311.098299 260.950427 
L 312.098299 260.961628 
L 313.098299 260.971752 
L 314.098299 260.971547 
L 315.098299 260.962038 
L 316.098299 260.950384 
L 317.098299 260.919355 
L 318.098299 260.908187 
L 319.098299 260.878069 
L 320.098299 260.818292 
L 321.098299 260.781101 
L 322.098299 260.742005 
L 323.098299 260.699565 
L 324.098299 260.6668 
L 325.098299 260.599373 
L 326.098299 260.560248 
L 327.098299 260.517573 
L 328.098299 260.446992 
L 329.098299 260.410602 
L 330.098299 260.352198 
L 331.098299 260.241246 
L 332.098299 260.170587 
L 333.098299 260.057648 
L 334.098299 260.011875 
L 335.098299 259.950592 
L 336.098299 259.902092 
L 337.098299 259.82127 
L 338.098299 259.702751 
L 339.098299 259.63254 
L 340.098299 259.549277 
L 341.098299 259.516136 
L 342.098299 259.464898 
L 343.098299 259.3965 
L 344.098299 259.330285 
L 345.098299 259.253368 
L 346.098299 259.226052 
L 347.098299 259.199575 
L 348.098299 259.176924 
L 349.098299 259.157393 
L 350.098299 259.130999 
L 351.098299 259.081228 
L 352.098299 259.046155 
L 353.682951 259.010289 
" clip-path="url(#p399bfad925)" style="fill: none; stroke: #1f77b4; stroke-opacity: 0.5; stroke-width: 0.2; stroke-linecap: square"/>
   <path d="M 290.098299 204.307857 
L 291.098299 204.339293 
L 292.098299 204.376233 
L 293.098299 204.47398 
L 294.098299 204.506501 
L 295.098299 204.580126 
L 296.098299 204.618692 
L 297.098299 204.654105 
L 298.098299 204.711745 
L 299.098299 204.782131 
L 300.098299 204.834095 
L 301.098299 204.893185 
L 302.098299 204.981506 
L 303.098299 205.02765 
L 304.098299 205.070061 
L 305.098299 205.100554 
L 306.098299 205.126599 
L 307.098299 205.147799 
L 308.098299 205.2021 
L 309.098299 205.230038 
L 310.098299 205.259762 
L 311.098299 205.285156 
L 312.098299 205.296357 
L 313.098299 205.306481 
L 314.098299 205.306276 
L 315.098299 205.296766 
L 316.098299 205.285113 
L 317.098299 205.254084 
L 318.098299 205.242916 
L 319.098299 205.212798 
L 320.098299 205.153021 
L 321.098299 205.11583 
L 322.098299 205.076734 
L 323.098299 205.034294 
L 324.098299 205.001529 
L 325.098299 204.934102 
L 326.098299 204.894976 
L 327.098299 204.852302 
L 328.098299 204.781721 
L 329.098299 204.74533 
L 330.098299 204.686927 
L 331.098299 204.575975 
L 332.098299 204.505316 
L 333.098299 204.392377 
L 334.098299 204.346604 
L 335.098299 204.28532 
L 336.098299 204.236821 
L 337.098299 204.155998 
L 338.098299 204.03748 
L 339.098299 203.967269 
L 340.098299 203.884006 
L 341.098299 203.850865 
L 342.098299 203.799627 
L 343.098299 203.731229 
L 344.098299 203.665014 
L 345.098299 203.588096 
L 346.098299 203.560781 
L 347.098299 203.534304 
L 348.098299 203.511653 
L 349.098299 203.492122 
L 350.098299 203.465728 
L 351.098299 203.415957 
L 352.098299 203.380884 
L 353.682951 203.345018 
" clip-path="url(#p399bfad925)" style="fill: none; stroke: #1f77b4; stroke-opacity: 0.5; stroke-width: 0.2; stroke-linecap: square"/>
   <path d="M 290.098299 312.938657 
L 291.098299 312.970093 
L 292.098299 313.007033 
L 293.098299 313.10478 
L 294.098299 313.137302 
L 295.098299 313.210926 
L 296.098299 313.249492 
L 297.098299 313.284905 
L 298.098299 313.342545 
L 299.098299 313.412931 
L 300.098299 313.464895 
L 301.098299 313.523985 
L 302.098299 313.612306 
L 303.098299 313.65845 
L 304.098299 313.700861 
L 305.098299 313.731354 
L 306.098299 313.757399 
L 307.098299 313.778599 
L 308.098299 313.8329 
L 309.098299 313.860838 
L 310.098299 313.890562 
L 311.098299 313.915956 
L 312.098299 313.927157 
L 313.098299 313.937281 
L 314.098299 313.937077 
L 315.098299 313.927567 
L 316.098299 313.915913 
L 317.098299 313.884884 
L 318.098299 313.873716 
L 319.098299 313.843598 
L 320.098299 313.783821 
L 321.098299 313.74663 
L 322.098299 313.707534 
L 323.098299 313.665094 
L 324.098299 313.632329 
L 325.098299 313.564903 
L 326.098299 313.525777 
L 327.098299 313.483102 
L 328.098299 313.412522 
L 329.098299 313.376131 
L 330.098299 313.317728 
L 331.098299 313.206775 
L 332.098299 313.136117 
L 333.098299 313.023177 
L 334.098299 312.977404 
L 335.098299 312.916121 
L 336.098299 312.867621 
L 337.098299 312.786799 
L 338.098299 312.66828 
L 339.098299 312.598069 
L 340.098299 312.514807 
L 341.098299 312.481665 
L 342.098299 312.430428 
L 343.098299 312.362029 
L 344.098299 312.295814 
L 345.098299 312.218897 
L 346.098299 312.191581 
L 347.098299 312.165104 
L 348.098299 312.142453 
L 349.098299 312.122922 
L 350.098299 312.096528 
L 351.098299 312.046757 
L 352.098299 312.011684 
L 353.682951 311.975818 
" clip-path="url(#p399bfad925)" style="fill: none; stroke: #1f77b4; stroke-opacity: 0.5; stroke-width: 0.2; stroke-linecap: square"/>
   <g id="patch_3">
    <path d="M 69.06392 22.318125 
L 69.06392 318.021875 
M 284.536112 22.318125 
L 284.536112 318.021875 
" clip-path="url(#p399bfad925)" style="fill: none; stroke: #ffffff; stroke-width: 3; stroke-linejoin: miter"/>
    <path d="M 69.06392 22.318125 
L 69.06392 318.021875 
M 284.536112 22.318125 
L 284.536112 318.021875 
" clip-path="url(#p399bfad925)" style="fill: none; stroke: #1f77b4; stroke-linejoin: miter"/>
    <g id="PolyCollection_1">
     <path d="M 284.536112 22.318125 
L 69.06392 22.318125 
L 69.06392 318.021875 
L 284.536112 318.021875 
L 284.536112 318.021875 
L 284.536112 22.318125 
z
" clip-path="url(#p399bfad925)" style="fill: #1f77b4; fill-opacity: 0.5"/>
    </g>
    <g id="patch_4">
     <path d="M 359.245138 22.318125 
L 359.245138 318.021875 
M 574.71733 22.318125 
L 574.71733 318.021875 
" clip-path="url(#p399bfad925)" style="fill: none; stroke: #ffffff; stroke-width: 3; stroke-linejoin: miter"/>
     <path d="M 359.245138 22.318125 
L 359.245138 318.021875 
M 574.71733 22.318125 
L 574.71733 318.021875 
" clip-path="url(#p399bfad925)" style="fill: none; stroke: #ff7f0e; stroke-linejoin: miter"/>
     <g id="PolyCollection_2">
      <path d="M 574.71733 22.318125 
L 359.245138 22.318125 
L 359.245138 318.021875 
L 574.71733 318.021875 
L 574.71733 318.021875 
L 574.71733 22.318125 
z
" clip-path="url(#p399bfad925)" style="fill: #ff7f0e; fill-opacity: 0.5"/>
     </g>
     <g id="matplotlib.axis_1">
      <g id="xtick_1">
       <g id="line2d_1"/>
       <g id="text_1">
        <!-- deme0 -->
        <g transform="translate(159.42111 329.120312) scale(0.1 -0.1)">
         <defs>
          <path id="DejaVuSans-64" d="M 2906 2969 
L 2906 4863 
L 3481 4863 
L 3481 0 
L 2906 0 
L 2906 525 
Q 2725 213 2448 61 
Q 2172 -91 1784 -91 
Q 1150 -91 751 415 
Q 353 922 353 1747 
Q 353 2572 751 3078 
Q 1150 3584 1784 3584 
Q 2172 3584 2448 3432 
Q 2725 3281 2906 2969 
z
M 947 1747 
Q 947 1113 1208 752 
Q 1469 391 1925 391 
Q 2381 391 2643 752 
Q 2906 1113 2906 1747 
Q 2906 2381 2643 2742 
Q 2381 3103 1925 3103 
Q 1469 3103 1208 2742 
Q 947 2381 947 1747 
z
" transform="scale(0.015625)"/>
          <path id="DejaVuSans-65" d="M 3597 1894 
L 3597 1613 
L 953 1613 
Q 991 1019 1311 708 
Q 1631 397 2203 397 
Q 2534 397 2845 478 
Q 3156 559 3463 722 
L 3463 178 
Q 3153 47 2828 -22 
Q 2503 -91 2169 -91 
Q 1331 -91 842 396 
Q 353 884 353 1716 
Q 353 2575 817 3079 
Q 1281 3584 2069 3584 
Q 2775 3584 3186 3129 
Q 3597 2675 3597 1894 
z
M 3022 2063 
Q 3016 2534 2758 2815 
Q 2500 3097 2075 3097 
Q 1594 3097 1305 2825 
Q 1016 2553 972 2059 
L 3022 2063 
z
" transform="scale(0.015625)"/>
          <path id="DejaVuSans-6d" d="M 3328 2828 
Q 3544 3216 3844 3400 
Q 4144 3584 4550 3584 
Q 5097 3584 5394 3201 
Q 5691 2819 5691 2113 
L 5691 0 
L 5113 0 
L 5113 2094 
Q 5113 2597 4934 2840 
Q 4756 3084 4391 3084 
Q 3944 3084 3684 2787 
Q 3425 2491 3425 1978 
L 3425 0 
L 2847 0 
L 2847 2094 
Q 2847 2600 2669 2842 
Q 2491 3084 2119 3084 
Q 1678 3084 1418 2786 
Q 1159 2488 1159 1978 
L 1159 0 
L 581 0 
L 581 3500 
L 1159 3500 
L 1159 2956 
Q 1356 3278 1631 3431 
Q 1906 3584 2284 3584 
Q 2666 3584 2933 3390 
Q 3200 3197 3328 2828 
z
" transform="scale(0.015625)"/>
          <path id="DejaVuSans-30" d="M 2034 4250 
Q 1547 4250 1301 3770 
Q 1056 3291 1056 2328 
Q 1056 1369 1301 889 
Q 1547 409 2034 409 
Q 2525 409 2770 889 
Q 3016 1369 3016 2328 
Q 3016 3291 2770 3770 
Q 2525 4250 2034 4250 
z
M 2034 4750 
Q 2819 4750 3233 4129 
Q 3647 3509 3647 2328 
Q 3647 1150 3233 529 
Q 2819 -91 2034 -91 
Q 1250 -91 836 529 
Q 422 1150 422 2328 
Q 422 3509 836 4129 
Q 1250 4750 2034 4750 
z
" transform="scale(0.015625)"/>
         </defs>
         <use xlink:href="#DejaVuSans-64"/>
         <use xlink:href="#DejaVuSans-65" x="63.476562"/>
         <use xlink:href="#DejaVuSans-6d" x="125"/>
         <use xlink:href="#DejaVuSans-65" x="222.412109"/>
         <use xlink:href="#DejaVuSans-30" x="283.935547"/>
        </g>
       </g>
      </g>
      <g id="xtick_2">
       <g id="line2d_2"/>
       <g id="text_2">
        <!-- deme1 -->
        <g transform="translate(449.602328 329.120312) scale(0.1 -0.1)">
         <defs>
          <path id="DejaVuSans-31" d="M 794 531 
L 1825 531 
L 1825 4091 
L 703 3866 
L 703 4441 
L 1819 4666 
L 2450 4666 
L 2450 531 
L 3481 531 
L 3481 0 
L 794 0 
L 794 531 
z
" transform="scale(0.015625)"/>
         </defs>
         <use xlink:href="#DejaVuSans-64"/>
         <use xlink:href="#DejaVuSans-65" x="63.476562"/>
         <use xlink:href="#DejaVuSans-6d" x="125"/>
         <use xlink:href="#DejaVuSans-65" x="222.412109"/>
         <use xlink:href="#DejaVuSans-31" x="283.935547"/>
        </g>
       </g>
      </g>
     </g>
     <g id="matplotlib.axis_2">
      <g id="ytick_1">
       <g id="line2d_3">
        <defs>
         <path id="m7dea6a7451" d="M 0 0 
L -3.5 0 
" style="stroke: #000000; stroke-width: 0.8"/>
        </defs>
        <g>
         <use xlink:href="#m7dea6a7451" x="43.78125" y="318.021875" style="stroke: #000000; stroke-width: 0.8"/>
        </g>
       </g>
       <g id="text_3">
        <!-- 0.0 -->
        <g transform="translate(20.878125 321.821094) scale(0.1 -0.1)">
         <defs>
          <path id="DejaVuSans-2e" d="M 684 794 
L 1344 794 
L 1344 0 
L 684 0 
L 684 794 
z
" transform="scale(0.015625)"/>
         </defs>
         <use xlink:href="#DejaVuSans-30"/>
         <use xlink:href="#DejaVuSans-2e" x="63.623047"/>
         <use xlink:href="#DejaVuSans-30" x="95.410156"/>
        </g>
       </g>
      </g>
      <g id="ytick_2">
       <g id="line2d_4">
        <g>
         <use xlink:href="#m7dea6a7451" x="43.78125" y="258.881125" style="stroke: #000000; stroke-width: 0.8"/>
        </g>
       </g>
       <g id="text_4">
        <!-- 0.5 -->
        <g transform="translate(20.878125 262.680344) scale(0.1 -0.1)">
         <defs>
          <path id="DejaVuSans-35" d="M 691 4666 
L 3169 4666 
L 3169 4134 
L 1269 4134 
L 1269 2991 
Q 1406 3038 1543 3061 
Q 1681 3084 1819 3084 
Q 2600 3084 3056 2656 
Q 3513 2228 3513 1497 
Q 3513 744 3044 326 
Q 2575 -91 1722 -91 
Q 1428 -91 1123 -41 
Q 819 9 494 109 
L 494 744 
Q 775 591 1075 516 
Q 1375 441 1709 441 
Q 2250 441 2565 725 
Q 2881 1009 2881 1497 
Q 2881 1984 2565 2268 
Q 2250 2553 1709 2553 
Q 1456 2553 1204 2497 
Q 953 2441 691 2322 
L 691 4666 
z
" transform="scale(0.015625)"/>
         </defs>
         <use xlink:href="#DejaVuSans-30"/>
         <use xlink:href="#DejaVuSans-2e" x="63.623047"/>
         <use xlink:href="#DejaVuSans-35" x="95.410156"/>
        </g>
       </g>
      </g>
      <g id="ytick_3">
       <g id="line2d_5">
        <g>
         <use xlink:href="#m7dea6a7451" x="43.78125" y="199.740375" style="stroke: #000000; stroke-width: 0.8"/>
        </g>
       </g>
       <g id="text_5">
        <!-- 1.0 -->
        <g transform="translate(20.878125 203.539594) scale(0.1 -0.1)">
         <use xlink:href="#DejaVuSans-31"/>
         <use xlink:href="#DejaVuSans-2e" x="63.623047"/>
         <use xlink:href="#DejaVuSans-30" x="95.410156"/>
        </g>
       </g>
      </g>
      <g id="ytick_4">
       <g id="line2d_6">
        <g>
         <use xlink:href="#m7dea6a7451" x="43.78125" y="140.599625" style="stroke: #000000; stroke-width: 0.8"/>
        </g>
       </g>
       <g id="text_6">
        <!-- 1.5 -->
        <g transform="translate(20.878125 144.398844) scale(0.1 -0.1)">
         <use xlink:href="#DejaVuSans-31"/>
         <use xlink:href="#DejaVuSans-2e" x="63.623047"/>
         <use xlink:href="#DejaVuSans-35" x="95.410156"/>
        </g>
       </g>
      </g>
      <g id="ytick_5">
       <g id="line2d_7">
        <g>
         <use xlink:href="#m7dea6a7451" x="43.78125" y="81.458875" style="stroke: #000000; stroke-width: 0.8"/>
        </g>
       </g>
       <g id="text_7">
        <!-- 2.0 -->
        <g transform="translate(20.878125 85.258094) scale(0.1 -0.1)">
         <defs>
          <path id="DejaVuSans-32" d="M 1228 531 
L 3431 531 
L 3431 0 
L 469 0 
L 469 531 
Q 828 903 1448 1529 
Q 2069 2156 2228 2338 
Q 2531 2678 2651 2914 
Q 2772 3150 2772 3378 
Q 2772 3750 2511 3984 
Q 2250 4219 1831 4219 
Q 1534 4219 1204 4116 
Q 875 4013 500 3803 
L 500 4441 
Q 881 4594 1212 4672 
Q 1544 4750 1819 4750 
Q 2544 4750 2975 4387 
Q 3406 4025 3406 3419 
Q 3406 3131 3298 2873 
Q 3191 2616 2906 2266 
Q 2828 2175 2409 1742 
Q 1991 1309 1228 531 
z
" transform="scale(0.015625)"/>
         </defs>
         <use xlink:href="#DejaVuSans-32"/>
         <use xlink:href="#DejaVuSans-2e" x="63.623047"/>
         <use xlink:href="#DejaVuSans-30" x="95.410156"/>
        </g>
       </g>
      </g>
      <g id="ytick_6">
       <g id="line2d_8">
        <g>
         <use xlink:href="#m7dea6a7451" x="43.78125" y="22.318125" style="stroke: #000000; stroke-width: 0.8"/>
        </g>
       </g>
       <g id="text_8">
        <!-- 2.5 -->
        <g transform="translate(20.878125 26.117344) scale(0.1 -0.1)">
         <use xlink:href="#DejaVuSans-32"/>
         <use xlink:href="#DejaVuSans-2e" x="63.623047"/>
         <use xlink:href="#DejaVuSans-35" x="95.410156"/>
        </g>
       </g>
      </g>
      <g id="text_9">
       <!-- time ago (generations) -->
       <g transform="translate(14.798438 227.641094) rotate(-90) scale(0.1 -0.1)">
        <defs>
         <path id="DejaVuSans-74" d="M 1172 4494 
L 1172 3500 
L 2356 3500 
L 2356 3053 
L 1172 3053 
L 1172 1153 
Q 1172 725 1289 603 
Q 1406 481 1766 481 
L 2356 481 
L 2356 0 
L 1766 0 
Q 1100 0 847 248 
Q 594 497 594 1153 
L 594 3053 
L 172 3053 
L 172 3500 
L 594 3500 
L 594 4494 
L 1172 4494 
z
" transform="scale(0.015625)"/>
         <path id="DejaVuSans-69" d="M 603 3500 
L 1178 3500 
L 1178 0 
L 603 0 
L 603 3500 
z
M 603 4863 
L 1178 4863 
L 1178 4134 
L 603 4134 
L 603 4863 
z
" transform="scale(0.015625)"/>
         <path id="DejaVuSans-20" transform="scale(0.015625)"/>
         <path id="DejaVuSans-61" d="M 2194 1759 
Q 1497 1759 1228 1600 
Q 959 1441 959 1056 
Q 959 750 1161 570 
Q 1363 391 1709 391 
Q 2188 391 2477 730 
Q 2766 1069 2766 1631 
L 2766 1759 
L 2194 1759 
z
M 3341 1997 
L 3341 0 
L 2766 0 
L 2766 531 
Q 2569 213 2275 61 
Q 1981 -91 1556 -91 
Q 1019 -91 701 211 
Q 384 513 384 1019 
Q 384 1609 779 1909 
Q 1175 2209 1959 2209 
L 2766 2209 
L 2766 2266 
Q 2766 2663 2505 2880 
Q 2244 3097 1772 3097 
Q 1472 3097 1187 3025 
Q 903 2953 641 2809 
L 641 3341 
Q 956 3463 1253 3523 
Q 1550 3584 1831 3584 
Q 2591 3584 2966 3190 
Q 3341 2797 3341 1997 
z
" transform="scale(0.015625)"/>
         <path id="DejaVuSans-67" d="M 2906 1791 
Q 2906 2416 2648 2759 
Q 2391 3103 1925 3103 
Q 1463 3103 1205 2759 
Q 947 2416 947 1791 
Q 947 1169 1205 825 
Q 1463 481 1925 481 
Q 2391 481 2648 825 
Q 2906 1169 2906 1791 
z
M 3481 434 
Q 3481 -459 3084 -895 
Q 2688 -1331 1869 -1331 
Q 1566 -1331 1297 -1286 
Q 1028 -1241 775 -1147 
L 775 -588 
Q 1028 -725 1275 -790 
Q 1522 -856 1778 -856 
Q 2344 -856 2625 -561 
Q 2906 -266 2906 331 
L 2906 616 
Q 2728 306 2450 153 
Q 2172 0 1784 0 
Q 1141 0 747 490 
Q 353 981 353 1791 
Q 353 2603 747 3093 
Q 1141 3584 1784 3584 
Q 2172 3584 2450 3431 
Q 2728 3278 2906 2969 
L 2906 3500 
L 3481 3500 
L 3481 434 
z
" transform="scale(0.015625)"/>
         <path id="DejaVuSans-6f" d="M 1959 3097 
Q 1497 3097 1228 2736 
Q 959 2375 959 1747 
Q 959 1119 1226 758 
Q 1494 397 1959 397 
Q 2419 397 2687 759 
Q 2956 1122 2956 1747 
Q 2956 2369 2687 2733 
Q 2419 3097 1959 3097 
z
M 1959 3584 
Q 2709 3584 3137 3096 
Q 3566 2609 3566 1747 
Q 3566 888 3137 398 
Q 2709 -91 1959 -91 
Q 1206 -91 779 398 
Q 353 888 353 1747 
Q 353 2609 779 3096 
Q 1206 3584 1959 3584 
z
" transform="scale(0.015625)"/>
         <path id="DejaVuSans-28" d="M 1984 4856 
Q 1566 4138 1362 3434 
Q 1159 2731 1159 2009 
Q 1159 1288 1364 580 
Q 1569 -128 1984 -844 
L 1484 -844 
Q 1016 -109 783 600 
Q 550 1309 550 2009 
Q 550 2706 781 3412 
Q 1013 4119 1484 4856 
L 1984 4856 
z
" transform="scale(0.015625)"/>
         <path id="DejaVuSans-6e" d="M 3513 2113 
L 3513 0 
L 2938 0 
L 2938 2094 
Q 2938 2591 2744 2837 
Q 2550 3084 2163 3084 
Q 1697 3084 1428 2787 
Q 1159 2491 1159 1978 
L 1159 0 
L 581 0 
L 581 3500 
L 1159 3500 
L 1159 2956 
Q 1366 3272 1645 3428 
Q 1925 3584 2291 3584 
Q 2894 3584 3203 3211 
Q 3513 2838 3513 2113 
z
" transform="scale(0.015625)"/>
         <path id="DejaVuSans-72" d="M 2631 2963 
Q 2534 3019 2420 3045 
Q 2306 3072 2169 3072 
Q 1681 3072 1420 2755 
Q 1159 2438 1159 1844 
L 1159 0 
L 581 0 
L 581 3500 
L 1159 3500 
L 1159 2956 
Q 1341 3275 1631 3429 
Q 1922 3584 2338 3584 
Q 2397 3584 2469 3576 
Q 2541 3569 2628 3553 
L 2631 2963 
z
" transform="scale(0.015625)"/>
         <path id="DejaVuSans-73" d="M 2834 3397 
L 2834 2853 
Q 2591 2978 2328 3040 
Q 2066 3103 1784 3103 
Q 1356 3103 1142 2972 
Q 928 2841 928 2578 
Q 928 2378 1081 2264 
Q 1234 2150 1697 2047 
L 1894 2003 
Q 2506 1872 2764 1633 
Q 3022 1394 3022 966 
Q 3022 478 2636 193 
Q 2250 -91 1575 -91 
Q 1294 -91 989 -36 
Q 684 19 347 128 
L 347 722 
Q 666 556 975 473 
Q 1284 391 1588 391 
Q 1994 391 2212 530 
Q 2431 669 2431 922 
Q 2431 1156 2273 1281 
Q 2116 1406 1581 1522 
L 1381 1569 
Q 847 1681 609 1914 
Q 372 2147 372 2553 
Q 372 3047 722 3315 
Q 1072 3584 1716 3584 
Q 2034 3584 2315 3537 
Q 2597 3491 2834 3397 
z
" transform="scale(0.015625)"/>
         <path id="DejaVuSans-29" d="M 513 4856 
L 1013 4856 
Q 1481 4119 1714 3412 
Q 1947 2706 1947 2009 
Q 1947 1309 1714 600 
Q 1481 -109 1013 -844 
L 513 -844 
Q 928 -128 1133 580 
Q 1338 1288 1338 2009 
Q 1338 2731 1133 3434 
Q 928 4138 513 4856 
z
" transform="scale(0.015625)"/>
        </defs>
        <use xlink:href="#DejaVuSans-74"/>
        <use xlink:href="#DejaVuSans-69" x="39.208984"/>
        <use xlink:href="#DejaVuSans-6d" x="66.992188"/>
        <use xlink:href="#DejaVuSans-65" x="164.404297"/>
        <use xlink:href="#DejaVuSans-20" x="225.927734"/>
        <use xlink:href="#DejaVuSans-61" x="257.714844"/>
        <use xlink:href="#DejaVuSans-67" x="318.994141"/>
        <use xlink:href="#DejaVuSans-6f" x="382.470703"/>
        <use xlink:href="#DejaVuSans-20" x="443.652344"/>
        <use xlink:href="#DejaVuSans-28" x="475.439453"/>
        <use xlink:href="#DejaVuSans-67" x="514.453125"/>
        <use xlink:href="#DejaVuSans-65" x="577.929688"/>
        <use xlink:href="#DejaVuSans-6e" x="639.453125"/>
        <use xlink:href="#DejaVuSans-65" x="702.832031"/>
        <use xlink:href="#DejaVuSans-72" x="764.355469"/>
        <use xlink:href="#DejaVuSans-61" x="805.46875"/>
        <use xlink:href="#DejaVuSans-74" x="866.748047"/>
        <use xlink:href="#DejaVuSans-69" x="905.957031"/>
        <use xlink:href="#DejaVuSans-6f" x="933.740234"/>
        <use xlink:href="#DejaVuSans-6e" x="994.921875"/>
        <use xlink:href="#DejaVuSans-73" x="1058.300781"/>
        <use xlink:href="#DejaVuSans-29" x="1110.400391"/>
       </g>
      </g>
     </g>
     <path d="M 354.682951 188.367132 
L 352.682951 187.367132 
L 352.682951 189.367132 
z
" clip-path="url(#p399bfad925)" style="fill: #1f77b4; fill-opacity: 0.5; stroke: #1f77b4; stroke-opacity: 0.5; stroke-linejoin: miter"/>
     <path d="M 354.682951 109.35005 
L 352.682951 108.35005 
L 352.682951 110.35005 
z
" clip-path="url(#p399bfad925)" style="fill: #1f77b4; fill-opacity: 0.5; stroke: #1f77b4; stroke-opacity: 0.5; stroke-linejoin: miter"/>
     <path d="M 354.682951 107.798542 
L 352.682951 106.798542 
L 352.682951 108.798542 
z
" clip-path="url(#p399bfad925)" style="fill: #1f77b4; fill-opacity: 0.5; stroke: #1f77b4; stroke-opacity: 0.5; stroke-linejoin: miter"/>
     <path d="M 354.682951 155.856568 
L 352.682951 154.856568 
L 352.682951 156.856568 
z
" clip-path="url(#p399bfad925)" style="fill: #1f77b4; fill-opacity: 0.5; stroke: #1f77b4; stroke-opacity: 0.5; stroke-linejoin: miter"/>
     <path d="M 354.682951 113.883238 
L 352.682951 112.883238 
L 352.682951 114.883238 
z
" clip-path="url(#p399bfad925)" style="fill: #1f77b4; fill-opacity: 0.5; stroke: #1f77b4; stroke-opacity: 0.5; stroke-linejoin: miter"/>
     <path d="M 354.682951 107.096724 
L 352.682951 106.096724 
L 352.682951 108.096724 
z
" clip-path="url(#p399bfad925)" style="fill: #1f77b4; fill-opacity: 0.5; stroke: #1f77b4; stroke-opacity: 0.5; stroke-linejoin: miter"/>
     <path d="M 354.682951 156.929904 
L 352.682951 155.929904 
L 352.682951 157.929904 
z
" clip-path="url(#p399bfad925)" style="fill: #1f77b4; fill-opacity: 0.5; stroke: #1f77b4; stroke-opacity: 0.5; stroke-linejoin: miter"/>
     <path d="M 354.682951 187.481705 
L 352.682951 186.481705 
L 352.682951 188.481705 
z
" clip-path="url(#p399bfad925)" style="fill: #1f77b4; fill-opacity: 0.5; stroke: #1f77b4; stroke-opacity: 0.5; stroke-linejoin: miter"/>
     <path d="M 354.682951 125.439104 
L 352.682951 124.439104 
L 352.682951 126.439104 
z
" clip-path="url(#p399bfad925)" style="fill: #1f77b4; fill-opacity: 0.5; stroke: #1f77b4; stroke-opacity: 0.5; stroke-linejoin: miter"/>
     <path d="M 354.682951 132.637497 
L 352.682951 131.637497 
L 352.682951 133.637497 
z
" clip-path="url(#p399bfad925)" style="fill: #1f77b4; fill-opacity: 0.5; stroke: #1f77b4; stroke-opacity: 0.5; stroke-linejoin: miter"/>
     <path d="M 354.682951 202.923113 
L 352.682951 201.923113 
L 352.682951 203.923113 
z
" clip-path="url(#p399bfad925)" style="fill: #1f77b4; fill-opacity: 0.5; stroke: #1f77b4; stroke-opacity: 0.5; stroke-linejoin: miter"/>
     <path d="M 354.682951 310.941312 
L 352.682951 309.941312 
L 352.682951 311.941312 
z
" clip-path="url(#p399bfad925)" style="fill: #1f77b4; fill-opacity: 0.5; stroke: #1f77b4; stroke-opacity: 0.5; stroke-linejoin: miter"/>
     <path d="M 354.682951 268.677426 
L 352.682951 267.677426 
L 352.682951 269.677426 
z
" clip-path="url(#p399bfad925)" style="fill: #1f77b4; fill-opacity: 0.5; stroke: #1f77b4; stroke-opacity: 0.5; stroke-linejoin: miter"/>
     <path d="M 354.682951 305.992398 
L 352.682951 304.992398 
L 352.682951 306.992398 
z
" clip-path="url(#p399bfad925)" style="fill: #1f77b4; fill-opacity: 0.5; stroke: #1f77b4; stroke-opacity: 0.5; stroke-linejoin: miter"/>
     <path d="M 354.682951 267.075494 
L 352.682951 266.075494 
L 352.682951 268.075494 
z
" clip-path="url(#p399bfad925)" style="fill: #1f77b4; fill-opacity: 0.5; stroke: #1f77b4; stroke-opacity: 0.5; stroke-linejoin: miter"/>
     <path d="M 354.682951 207.410735 
L 352.682951 206.410735 
L 352.682951 208.410735 
z
" clip-path="url(#p399bfad925)" style="fill: #1f77b4; fill-opacity: 0.5; stroke: #1f77b4; stroke-opacity: 0.5; stroke-linejoin: miter"/>
     <path d="M 354.682951 233.348148 
L 352.682951 232.348148 
L 352.682951 234.348148 
z
" clip-path="url(#p399bfad925)" style="fill: #1f77b4; fill-opacity: 0.5; stroke: #1f77b4; stroke-opacity: 0.5; stroke-linejoin: miter"/>
     <path d="M 354.682951 259.973128 
L 352.682951 258.973128 
L 352.682951 260.973128 
z
" clip-path="url(#p399bfad925)" style="fill: #1f77b4; fill-opacity: 0.5; stroke: #1f77b4; stroke-opacity: 0.5; stroke-linejoin: miter"/>
     <path d="M 354.682951 204.307857 
L 352.682951 203.307857 
L 352.682951 205.307857 
z
" clip-path="url(#p399bfad925)" style="fill: #1f77b4; fill-opacity: 0.5; stroke: #1f77b4; stroke-opacity: 0.5; stroke-linejoin: miter"/>
     <path d="M 354.682951 312.938657 
L 352.682951 311.938657 
L 352.682951 313.938657 
z
" clip-path="url(#p399bfad925)" style="fill: #1f77b4; fill-opacity: 0.5; stroke: #1f77b4; stroke-opacity: 0.5; stroke-linejoin: miter"/>
     <g id="patch_5">
      <path d="M 43.78125 318.021875 
L 43.78125 22.318125 
" style="fill: none; stroke: #000000; stroke-width: 0.8; stroke-linejoin: miter; stroke-linecap: square"/>
     </g>
     <g id="text_10">
      <!-- defaults_asymmetric_migration_changing_rate.yaml -->
      <g transform="translate(164.675625 16.318125) scale(0.12 -0.12)">
       <defs>
        <path id="DejaVuSans-66" d="M 2375 4863 
L 2375 4384 
L 1825 4384 
Q 1516 4384 1395 4259 
Q 1275 4134 1275 3809 
L 1275 3500 
L 2222 3500 
L 2222 3053 
L 1275 3053 
L 1275 0 
L 697 0 
L 697 3053 
L 147 3053 
L 147 3500 
L 697 3500 
L 697 3744 
Q 697 4328 969 4595 
Q 1241 4863 1831 4863 
L 2375 4863 
z
" transform="scale(0.015625)"/>
        <path id="DejaVuSans-75" d="M 544 1381 
L 544 3500 
L 1119 3500 
L 1119 1403 
Q 1119 906 1312 657 
Q 1506 409 1894 409 
Q 2359 409 2629 706 
Q 2900 1003 2900 1516 
L 2900 3500 
L 3475 3500 
L 3475 0 
L 2900 0 
L 2900 538 
Q 2691 219 2414 64 
Q 2138 -91 1772 -91 
Q 1169 -91 856 284 
Q 544 659 544 1381 
z
M 1991 3584 
L 1991 3584 
z
" transform="scale(0.015625)"/>
        <path id="DejaVuSans-6c" d="M 603 4863 
L 1178 4863 
L 1178 0 
L 603 0 
L 603 4863 
z
" transform="scale(0.015625)"/>
        <path id="DejaVuSans-5f" d="M 3263 -1063 
L 3263 -1509 
L -63 -1509 
L -63 -1063 
L 3263 -1063 
z
" transform="scale(0.015625)"/>
        <path id="DejaVuSans-79" d="M 2059 -325 
Q 1816 -950 1584 -1140 
Q 1353 -1331 966 -1331 
L 506 -1331 
L 506 -850 
L 844 -850 
Q 1081 -850 1212 -737 
Q 1344 -625 1503 -206 
L 1606 56 
L 191 3500 
L 800 3500 
L 1894 763 
L 2988 3500 
L 3597 3500 
L 2059 -325 
z
" transform="scale(0.015625)"/>
        <path id="DejaVuSans-63" d="M 3122 3366 
L 3122 2828 
Q 2878 2963 2633 3030 
Q 2388 3097 2138 3097 
Q 1578 3097 1268 2742 
Q 959 2388 959 1747 
Q 959 1106 1268 751 
Q 1578 397 2138 397 
Q 2388 397 2633 464 
Q 2878 531 3122 666 
L 3122 134 
Q 2881 22 2623 -34 
Q 2366 -91 2075 -91 
Q 1284 -91 818 406 
Q 353 903 353 1747 
Q 353 2603 823 3093 
Q 1294 3584 2113 3584 
Q 2378 3584 2631 3529 
Q 2884 3475 3122 3366 
z
" transform="scale(0.015625)"/>
        <path id="DejaVuSans-68" d="M 3513 2113 
L 3513 0 
L 2938 0 
L 2938 2094 
Q 2938 2591 2744 2837 
Q 2550 3084 2163 3084 
Q 1697 3084 1428 2787 
Q 1159 2491 1159 1978 
L 1159 0 
L 581 0 
L 581 4863 
L 1159 4863 
L 1159 2956 
Q 1366 3272 1645 3428 
Q 1925 3584 2291 3584 
Q 2894 3584 3203 3211 
Q 3513 2838 3513 2113 
z
" transform="scale(0.015625)"/>
       </defs>
       <use xlink:href="#DejaVuSans-64"/>
       <use xlink:href="#DejaVuSans-65" x="63.476562"/>
       <use xlink:href="#DejaVuSans-66" x="125"/>
       <use xlink:href="#DejaVuSans-61" x="160.205078"/>
       <use xlink:href="#DejaVuSans-75" x="221.484375"/>
       <use xlink:href="#DejaVuSans-6c" x="284.863281"/>
       <use xlink:href="#DejaVuSans-74" x="312.646484"/>
       <use xlink:href="#DejaVuSans-73" x="351.855469"/>
       <use xlink:href="#DejaVuSans-5f" x="403.955078"/>
       <use xlink:href="#DejaVuSans-61" x="453.955078"/>
       <use xlink:href="#DejaVuSans-73" x="515.234375"/>
       <use xlink:href="#DejaVuSans-79" x="567.333984"/>
       <use xlink:href="#DejaVuSans-6d" x="626.513672"/>
       <use xlink:href="#DejaVuSans-6d" x="723.925781"/>
       <use xlink:href="#DejaVuSans-65" x="821.337891"/>
       <use xlink:href="#DejaVuSans-74" x="882.861328"/>
       <use xlink:href="#DejaVuSans-72" x="922.070312"/>
       <use xlink:href="#DejaVuSans-69" x="963.183594"/>
       <use xlink:href="#DejaVuSans-63" x="990.966797"/>
       <use xlink:href="#DejaVuSans-5f" x="1045.947266"/>
       <use xlink:href="#DejaVuSans-6d" x="1095.947266"/>
       <use xlink:href="#DejaVuSans-69" x="1193.359375"/>
       <use xlink:href="#DejaVuSans-67" x="1221.142578"/>
       <use xlink:href="#DejaVuSans-72" x="1284.619141"/>
       <use xlink:href="#DejaVuSans-61" x="1325.732422"/>
       <use xlink:href="#DejaVuSans-74" x="1387.011719"/>
       <use xlink:href="#DejaVuSans-69" x="1426.220703"/>
       <use xlink:href="#DejaVuSans-6f" x="1454.003906"/>
       <use xlink:href="#DejaVuSans-6e" x="1515.185547"/>
       <use xlink:href="#DejaVuSans-5f" x="1578.564453"/>
       <use xlink:href="#DejaVuSans-63" x="1628.564453"/>
       <use xlink:href="#DejaVuSans-68" x="1683.544922"/>
       <use xlink:href="#DejaVuSans-61" x="1746.923828"/>
       <use xlink:href="#DejaVuSans-6e" x="1808.203125"/>
       <use xlink:href="#DejaVuSans-67" x="1871.582031"/>
       <use xlink:href="#DejaVuSans-69" x="1935.058594"/>
       <use xlink:href="#DejaVuSans-6e" x="1962.841797"/>
       <use xlink:href="#DejaVuSans-67" x="2026.220703"/>
       <use xlink:href="#DejaVuSans-5f" x="2089.697266"/>
       <use xlink:href="#DejaVuSans-72" x="2139.697266"/>
       <use xlink:href="#DejaVuSans-61" x="2180.810547"/>
       <use xlink:href="#DejaVuSans-74" x="2242.089844"/>
       <use xlink:href="#DejaVuSans-65" x="2281.298828"/>
       <use xlink:href="#DejaVuSans-2e" x="2342.822266"/>
       <use xlink:href="#DejaVuSans-79" x="2374.609375"/>
       <use xlink:href="#DejaVuSans-61" x="2433.789062"/>
       <use xlink:href="#DejaVuSans-6d" x="2495.068359"/>
       <use xlink:href="#DejaVuSans-6c" x="2592.480469"/>
      </g>
     </g>
    </g>
   </g>
   <defs>
    <clipPath id="p399bfad925">
     <rect x="43.78125" y="22.318125" width="556.21875" height="295.70375"/>
    </clipPath>
   </defs>
  </g>
 </g>
</svg>