<?xml version="1.0" encoding="utf-8" standalone="no"?>
<!DOCTYPE svg PUBLIC "-//W3C//DTD SVG 1.1//EN"
  "http://www.w3.org/Graphics/SVG/1.1/DTD/svg11.dtd">
<svg xmlns:xlink="http://www.w3.org/1999/xlink" width="607.2pt" height="338.4pt" viewBox="0 0 607.2 338.4" xmlns="http://www.w3.org/2000/svg" version="1.1">
 <metadata>
  <rdf:RDF xmlns:dc="http://purl.org/dc/elements/1.1/" xmlns:cc="http://creativecommons.org/ns#" xmlns:rdf="http://www.w3.org/1999/02/22-rdf-syntax-ns#">
   <cc:Work>
    <dc:type rdf:resource="http://purl.org/dc/dcmitype/StillImage"/>
    <dc:date>2025-10-04T07:56:06.749213</dc:date>
    <dc:format>image/svg+xml</dc:format>
    <dc:creator>
     <cc:Agent>
      <dc:title>Matplotlib v3.10.6, https://matplotlib.org/</dc:title>
     </cc:Agent>
    </dc:creator>
   </cc:Work>
  </rdf:RDF>
 </metadata>
 <defs>
  <style type="text/css">*{stroke-linejoin: round; stroke-linecap: butt}</style>
 </defs>
 <g id="figure_1">
  <g id="patch_1">
   <path d="M 0 338.4 
L 607.2 338.4 
L 607.2 0 
L 0 0 
z
" style="fill: #ffffff"/>
  </g>
  <g id="axes_1">
   <g id="patch_2">
    <path d="M 43.78125 318.021875 
L 600 318.021875 
L 600 22.318125 
L 43.78125 22.318125 
z
" style="fill: #ffffff"/>
   </g>
   <g id="line2d_1">
    <path d="M 290.098299 147.341737 
L 291.098299 147.373174 
L 292.098299 147.410114 
L 293.098299 147.50786 
L 294.098299 147.540382 
L 295.098299 147.614007 
L 296.098299 147.652572 
L 297.098299 147.687985 
L 298.098299 147.745625 
L 299.098299 147.816012 
L 300.098299 147.867976 
L 301.098299 147.927066 
L 302.098299 148.015387 
L 303.098299 148.061531 
L 304.098299 148.103942 
L 305.098299 148.134434 
L 306.098299 148.160479 
L 307.098299 148.181679 
L 308.098299 148.235981 
L 309.098299 148.263918 
L 310.098299 148.293642 
L 311.098299 148.319037 
L 312.098299 148.330237 
L 313.098299 148.340361 
L 314.098299 148.340157 
L 315.098299 148.330647 
L 316.098299 148.318994 
L 317.098299 148.287964 
L 318.098299 148.276796 
L 319.098299 148.246679 
L 320.098299 148.186902 
L 321.098299 148.14971 
L 322.098299 148.110614 
L 323.098299 148.068175 
L 324.098299 148.035409 
L 325.098299 147.967983 
L 326.098299 147.928857 
L 327.098299 147.886183 
L 328.098299 147.815602 
L 329.098299 147.779211 
L 330.098299 147.720808 
L 331.098299 147.609855 
L 332.098299 147.539197 
L 333.098299 147.426257 
L 334.098299 147.380484 
L 335.098299 147.319201 
L 336.098299 147.270702 
L 337.098299 147.189879 
L 338.098299 147.07136 
L 339.098299 147.00115 
L 340.098299 146.917887 
L 341.098299 146.884745 
L 342.098299 146.833508 
L 343.098299 146.76511 
L 344.098299 146.698894 
L 345.098299 146.621977 
L 346.098299 146.594662 
L 347.098299 146.568184 
L 348.098299 146.545533 
L 349.098299 146.526002 
L 350.098299 146.499608 
L 351.098299 146.449837 
L 352.098299 146.414764 
L 353.682951 146.378899 
" clip-path="url(#pd2d4f796c8)" style="fill: none; stroke: #1f77b4; stroke-opacity: 0.5; stroke-width: 0.2; stroke-linecap: square"/>
   </g>
   <g id="line2d_2">
    <path d="M 290.098299 112.976431 
L 291.098299 113.007867 
L 292.098299 113.044807 
L 293.098299 113.142554 
L 294.098299 113.175076 
L 295.098299 113.2487 
L 296.098299 113.287266 
L 297.098299 113.322679 
L 298.098299 113.380319 
L 299.098299 113.450705 
L 300.098299 113.502669 
L 301.098299 113.561759 
L 302.098299 113.65008 
L 303.098299 113.696224 
L 304.098299 113.738635 
L 305.098299 113.769128 
L 306.098299 113.795173 
L 307.098299 113.816373 
L 308.098299 113.870674 
L 309.098299 113.898612 
L 310.098299 113.928336 
L 311.098299 113.95373 
L 312.098299 113.964931 
L 313.098299 113.975055 
L 314.098299 113.974851 
L 315.098299 113.965341 
L 316.098299 113.953687 
L 317.098299 113.922658 
L 318.098299 113.91149 
L 319.098299 113.881372 
L 320.098299 113.821595 
L 321.098299 113.784404 
L 322.098299 113.745308 
L 323.098299 113.702868 
L 324.098299 113.670103 
L 325.098299 113.602677 
L 326.098299 113.563551 
L 327.098299 113.520876 
L 328.098299 113.450296 
L 329.098299 113.413905 
L 330.098299 113.355501 
L 331.098299 113.244549 
L 332.098299 113.173891 
L 333.098299 113.060951 
L 334.098299 113.015178 
L 335.098299 112.953895 
L 336.098299 112.905395 
L 337.098299 112.824573 
L 338.098299 112.706054 
L 339.098299 112.635843 
L 340.098299 112.552581 
L 341.098299 112.519439 
L 342.098299 112.468202 
L 343.098299 112.399803 
L 344.098299 112.333588 
L 345.098299 112.256671 
L 346.098299 112.229355 
L 347.098299 112.202878 
L 348.098299 112.180227 
L 349.098299 112.160696 
L 350.098299 112.134302 
L 351.098299 112.084531 
L 352.098299 112.049458 
L 353.682951 112.013592 
" clip-path="url(#pd2d4f796c8)" style="fill: none; stroke: #1f77b4; stroke-opacity: 0.5; stroke-width: 0.2; stroke-linecap: square"/>
   </g>
   <g id="line2d_3">
    <path d="M 290.098299 141.440002 
L 291.098299 141.471439 
L 292.098299 141.508379 
L 293.098299 141.606126 
L 294.098299 141.638647 
L 295.098299 141.712272 
L 296.098299 141.750837 
L 297.098299 141.786251 
L 298.098299 141.843891 
L 299.098299 141.914277 
L 300.098299 141.966241 
L 301.098299 142.025331 
L 302.098299 142.113652 
L 303.098299 142.159796 
L 304.098299 142.202207 
L 305.098299 142.2327 
L 306.098299 142.258745 
L 307.098299 142.279945 
L 308.098299 142.334246 
L 309.098299 142.362183 
L 310.098299 142.391907 
L 311.098299 142.417302 
L 312.098299 142.428502 
L 313.098299 142.438626 
L 314.098299 142.438422 
L 315.098299 142.428912 
L 316.098299 142.417259 
L 317.098299 142.386229 
L 318.098299 142.375061 
L 319.098299 142.344944 
L 320.098299 142.285167 
L 321.098299 142.247975 
L 322.098299 142.208879 
L 323.098299 142.16644 
L 324.098299 142.133675 
L 325.098299 142.066248 
L 326.098299 142.027122 
L 327.098299 141.984448 
L 328.098299 141.913867 
L 329.098299 141.877476 
L 330.098299 141.819073 
L 331.098299 141.70812 
L 332.098299 141.637462 
L 333.098299 141.524522 
L 334.098299 141.478749 
L 335.098299 141.417466 
L 336.098299 141.368967 
L 337.098299 141.288144 
L 338.098299 141.169625 
L 339.098299 141.099415 
L 340.098299 141.016152 
L 341.098299 140.98301 
L 342.098299 140.931773 
L 343.098299 140.863375 
L 344.098299 140.797159 
L 345.098299 140.720242 
L 346.098299 140.692927 
L 347.098299 140.666449 
L 348.098299 140.643799 
L 349.098299 140.624267 
L 350.098299 140.597873 
L 351.098299 140.548102 
L 352.098299 140.513029 
L 353.682951 140.477164 
" clip-path="url(#pd2d4f796c8)" style="fill: none; stroke: #1f77b4; stroke-opacity: 0.5; stroke-width: 0.2; stroke-linecap: square"/>
   </g>
   <g id="line2d_4">
    <path d="M 290.098299 158.972071 
L 291.098299 159.003508 
L 292.098299 159.040448 
L 293.098299 159.138195 
L 294.098299 159.170716 
L 295.098299 159.244341 
L 296.098299 159.282906 
L 297.098299 159.31832 
L 298.098299 159.375959 
L 299.098299 159.446346 
L 300.098299 159.49831 
L 301.098299 159.5574 
L 302.098299 159.645721 
L 303.098299 159.691865 
L 304.098299 159.734276 
L 305.098299 159.764769 
L 306.098299 159.790813 
L 307.098299 159.812014 
L 308.098299 159.866315 
L 309.098299 159.894252 
L 310.098299 159.923976 
L 311.098299 159.949371 
L 312.098299 159.960571 
L 313.098299 159.970695 
L 314.098299 159.970491 
L 315.098299 159.960981 
L 316.098299 159.949328 
L 317.098299 159.918298 
L 318.098299 159.90713 
L 319.098299 159.877013 
L 320.098299 159.817236 
L 321.098299 159.780044 
L 322.098299 159.740948 
L 323.098299 159.698509 
L 324.098299 159.665744 
L 325.098299 159.598317 
L 326.098299 159.559191 
L 327.098299 159.516517 
L 328.098299 159.445936 
L 329.098299 159.409545 
L 330.098299 159.351142 
L 331.098299 159.240189 
L 332.098299 159.169531 
L 333.098299 159.056591 
L 334.098299 159.010818 
L 335.098299 158.949535 
L 336.098299 158.901036 
L 337.098299 158.820213 
L 338.098299 158.701694 
L 339.098299 158.631484 
L 340.098299 158.548221 
L 341.098299 158.515079 
L 342.098299 158.463842 
L 343.098299 158.395444 
L 344.098299 158.329228 
L 345.098299 158.252311 
L 346.098299 158.224996 
L 347.098299 158.198518 
L 348.098299 158.175868 
L 349.098299 158.156336 
L 350.098299 158.129942 
L 351.098299 158.080171 
L 352.098299 158.045098 
L 353.682951 158.009233 
" clip-path="url(#pd2d4f796c8)" style="fill: none; stroke: #1f77b4; stroke-opacity: 0.5; stroke-width: 0.2; stroke-linecap: square"/>
   </g>
   <g id="line2d_5">
    <path d="M 290.098299 136.489171 
L 291.098299 136.520607 
L 292.098299 136.557548 
L 293.098299 136.655294 
L 294.098299 136.687816 
L 295.098299 136.76144 
L 296.098299 136.800006 
L 297.098299 136.835419 
L 298.098299 136.893059 
L 299.098299 136.963445 
L 300.098299 137.01541 
L 301.098299 137.074499 
L 302.098299 137.16282 
L 303.098299 137.208965 
L 304.098299 137.251376 
L 305.098299 137.281868 
L 306.098299 137.307913 
L 307.098299 137.329113 
L 308.098299 137.383414 
L 309.098299 137.411352 
L 310.098299 137.441076 
L 311.098299 137.466471 
L 312.098299 137.477671 
L 313.098299 137.487795 
L 314.098299 137.487591 
L 315.098299 137.478081 
L 316.098299 137.466427 
L 317.098299 137.435398 
L 318.098299 137.42423 
L 319.098299 137.394113 
L 320.098299 137.334336 
L 321.098299 137.297144 
L 322.098299 137.258048 
L 323.098299 137.215608 
L 324.098299 137.182843 
L 325.098299 137.115417 
L 326.098299 137.076291 
L 327.098299 137.033616 
L 328.098299 136.963036 
L 329.098299 136.926645 
L 330.098299 136.868242 
L 331.098299 136.757289 
L 332.098299 136.686631 
L 333.098299 136.573691 
L 334.098299 136.527918 
L 335.098299 136.466635 
L 336.098299 136.418135 
L 337.098299 136.337313 
L 338.098299 136.218794 
L 339.098299 136.148583 
L 340.098299 136.065321 
L 341.098299 136.032179 
L 342.098299 135.980942 
L 343.098299 135.912543 
L 344.098299 135.846328 
L 345.098299 135.769411 
L 346.098299 135.742095 
L 347.098299 135.715618 
L 348.098299 135.692967 
L 349.098299 135.673436 
L 350.098299 135.647042 
L 351.098299 135.597271 
L 352.098299 135.562198 
L 353.682951 135.526332 
" clip-path="url(#pd2d4f796c8)" style="fill: none; stroke: #1f77b4; stroke-opacity: 0.5; stroke-width: 0.2; stroke-linecap: square"/>
   </g>
   <g id="line2d_6">
    <path d="M 290.098299 178.684726 
L 291.098299 178.716163 
L 292.098299 178.753103 
L 293.098299 178.85085 
L 294.098299 178.883371 
L 295.098299 178.956996 
L 296.098299 178.995561 
L 297.098299 179.030975 
L 298.098299 179.088615 
L 299.098299 179.159001 
L 300.098299 179.210965 
L 301.098299 179.270055 
L 302.098299 179.358376 
L 303.098299 179.40452 
L 304.098299 179.446931 
L 305.098299 179.477424 
L 306.098299 179.503469 
L 307.098299 179.524669 
L 308.098299 179.57897 
L 309.098299 179.606907 
L 310.098299 179.636631 
L 311.098299 179.662026 
L 312.098299 179.673226 
L 313.098299 179.68335 
L 314.098299 179.683146 
L 315.098299 179.673636 
L 316.098299 179.661983 
L 317.098299 179.630953 
L 318.098299 179.619785 
L 319.098299 179.589668 
L 320.098299 179.529891 
L 321.098299 179.492699 
L 322.098299 179.453603 
L 323.098299 179.411164 
L 324.098299 179.378399 
L 325.098299 179.310972 
L 326.098299 179.271846 
L 327.098299 179.229172 
L 328.098299 179.158591 
L 329.098299 179.1222 
L 330.098299 179.063797 
L 331.098299 178.952845 
L 332.098299 178.882186 
L 333.098299 178.769246 
L 334.098299 178.723473 
L 335.098299 178.66219 
L 336.098299 178.613691 
L 337.098299 178.532868 
L 338.098299 178.414349 
L 339.098299 178.344139 
L 340.098299 178.260876 
L 341.098299 178.227734 
L 342.098299 178.176497 
L 343.098299 178.108099 
L 344.098299 178.041883 
L 345.098299 177.964966 
L 346.098299 177.937651 
L 347.098299 177.911173 
L 348.098299 177.888523 
L 349.098299 177.868991 
L 350.098299 177.842597 
L 351.098299 177.792827 
L 352.098299 177.757753 
L 353.682951 177.721888 
" clip-path="url(#pd2d4f796c8)" style="fill: none; stroke: #1f77b4; stroke-opacity: 0.5; stroke-width: 0.2; stroke-linecap: square"/>
   </g>
   <g id="line2d_7">
    <path d="M 290.098299 93.940612 
L 291.098299 93.972048 
L 292.098299 94.008988 
L 293.098299 94.106735 
L 294.098299 94.139256 
L 295.098299 94.212881 
L 296.098299 94.251447 
L 297.098299 94.28686 
L 298.098299 94.3445 
L 299.098299 94.414886 
L 300.098299 94.46685 
L 301.098299 94.52594 
L 302.098299 94.614261 
L 303.098299 94.660405 
L 304.098299 94.702816 
L 305.098299 94.733309 
L 306.098299 94.759354 
L 307.098299 94.780554 
L 308.098299 94.834855 
L 309.098299 94.862793 
L 310.098299 94.892517 
L 311.098299 94.917911 
L 312.098299 94.929112 
L 313.098299 94.939236 
L 314.098299 94.939031 
L 315.098299 94.929522 
L 316.098299 94.917868 
L 317.098299 94.886839 
L 318.098299 94.875671 
L 319.098299 94.845553 
L 320.098299 94.785776 
L 321.098299 94.748585 
L 322.098299 94.709489 
L 323.098299 94.667049 
L 324.098299 94.634284 
L 325.098299 94.566857 
L 326.098299 94.527732 
L 327.098299 94.485057 
L 328.098299 94.414476 
L 329.098299 94.378086 
L 330.098299 94.319682 
L 331.098299 94.20873 
L 332.098299 94.138071 
L 333.098299 94.025132 
L 334.098299 93.979359 
L 335.098299 93.918076 
L 336.098299 93.869576 
L 337.098299 93.788754 
L 338.098299 93.670235 
L 339.098299 93.600024 
L 340.098299 93.516761 
L 341.098299 93.48362 
L 342.098299 93.432382 
L 343.098299 93.363984 
L 344.098299 93.297769 
L 345.098299 93.220852 
L 346.098299 93.193536 
L 347.098299 93.167059 
L 348.098299 93.144408 
L 349.098299 93.124877 
L 350.098299 93.098483 
L 351.098299 93.048712 
L 352.098299 93.013639 
L 353.682951 92.977773 
" clip-path="url(#pd2d4f796c8)" style="fill: none; stroke: #1f77b4; stroke-opacity: 0.5; stroke-width: 0.2; stroke-linecap: square"/>
   </g>
   <g id="line2d_8">
    <path d="M 290.098299 157.425211 
L 291.098299 157.456647 
L 292.098299 157.493588 
L 293.098299 157.591334 
L 294.098299 157.623856 
L 295.098299 157.69748 
L 296.098299 157.736046 
L 297.098299 157.771459 
L 298.098299 157.829099 
L 299.098299 157.899485 
L 300.098299 157.95145 
L 301.098299 158.010539 
L 302.098299 158.09886 
L 303.098299 158.145005 
L 304.098299 158.187416 
L 305.098299 158.217908 
L 306.098299 158.243953 
L 307.098299 158.265153 
L 308.098299 158.319454 
L 309.098299 158.347392 
L 310.098299 158.377116 
L 311.098299 158.402511 
L 312.098299 158.413711 
L 313.098299 158.423835 
L 314.098299 158.423631 
L 315.098299 158.414121 
L 316.098299 158.402467 
L 317.098299 158.371438 
L 318.098299 158.36027 
L 319.098299 158.330153 
L 320.098299 158.270376 
L 321.098299 158.233184 
L 322.098299 158.194088 
L 323.098299 158.151648 
L 324.098299 158.118883 
L 325.098299 158.051457 
L 326.098299 158.012331 
L 327.098299 157.969656 
L 328.098299 157.899076 
L 329.098299 157.862685 
L 330.098299 157.804282 
L 331.098299 157.693329 
L 332.098299 157.622671 
L 333.098299 157.509731 
L 334.098299 157.463958 
L 335.098299 157.402675 
L 336.098299 157.354175 
L 337.098299 157.273353 
L 338.098299 157.154834 
L 339.098299 157.084623 
L 340.098299 157.001361 
L 341.098299 156.968219 
L 342.098299 156.916982 
L 343.098299 156.848583 
L 344.098299 156.782368 
L 345.098299 156.705451 
L 346.098299 156.678135 
L 347.098299 156.651658 
L 348.098299 156.629007 
L 349.098299 156.609476 
L 350.098299 156.583082 
L 351.098299 156.533311 
L 352.098299 156.498238 
L 353.682951 156.462372 
" clip-path="url(#pd2d4f796c8)" style="fill: none; stroke: #1f77b4; stroke-opacity: 0.5; stroke-width: 0.2; stroke-linecap: square"/>
   </g>
   <g id="line2d_9">
    <path d="M 290.098299 177.254492 
L 291.098299 177.285928 
L 292.098299 177.322869 
L 293.098299 177.420615 
L 294.098299 177.453137 
L 295.098299 177.526762 
L 296.098299 177.565327 
L 297.098299 177.60074 
L 298.098299 177.65838 
L 299.098299 177.728767 
L 300.098299 177.780731 
L 301.098299 177.839821 
L 302.098299 177.928142 
L 303.098299 177.974286 
L 304.098299 178.016697 
L 305.098299 178.047189 
L 306.098299 178.073234 
L 307.098299 178.094434 
L 308.098299 178.148736 
L 309.098299 178.176673 
L 310.098299 178.206397 
L 311.098299 178.231792 
L 312.098299 178.242992 
L 313.098299 178.253116 
L 314.098299 178.252912 
L 315.098299 178.243402 
L 316.098299 178.231748 
L 317.098299 178.200719 
L 318.098299 178.189551 
L 319.098299 178.159434 
L 320.098299 178.099657 
L 321.098299 178.062465 
L 322.098299 178.023369 
L 323.098299 177.98093 
L 324.098299 177.948164 
L 325.098299 177.880738 
L 326.098299 177.841612 
L 327.098299 177.798938 
L 328.098299 177.728357 
L 329.098299 177.691966 
L 330.098299 177.633563 
L 331.098299 177.52261 
L 332.098299 177.451952 
L 333.098299 177.339012 
L 334.098299 177.293239 
L 335.098299 177.231956 
L 336.098299 177.183457 
L 337.098299 177.102634 
L 338.098299 176.984115 
L 339.098299 176.913904 
L 340.098299 176.830642 
L 341.098299 176.7975 
L 342.098299 176.746263 
L 343.098299 176.677865 
L 344.098299 176.611649 
L 345.098299 176.534732 
L 346.098299 176.507417 
L 347.098299 176.480939 
L 348.098299 176.458288 
L 349.098299 176.438757 
L 350.098299 176.412363 
L 351.098299 176.362592 
L 352.098299 176.327519 
L 353.682951 176.291654 
" clip-path="url(#pd2d4f796c8)" style="fill: none; stroke: #1f77b4; stroke-opacity: 0.5; stroke-width: 0.2; stroke-linecap: square"/>
   </g>
   <g id="line2d_10">
    <path d="M 290.098299 92.110977 
L 291.098299 92.142413 
L 292.098299 92.179353 
L 293.098299 92.2771 
L 294.098299 92.309621 
L 295.098299 92.383246 
L 296.098299 92.421812 
L 297.098299 92.457225 
L 298.098299 92.514865 
L 299.098299 92.585251 
L 300.098299 92.637215 
L 301.098299 92.696305 
L 302.098299 92.784626 
L 303.098299 92.83077 
L 304.098299 92.873181 
L 305.098299 92.903674 
L 306.098299 92.929719 
L 307.098299 92.950919 
L 308.098299 93.00522 
L 309.098299 93.033158 
L 310.098299 93.062882 
L 311.098299 93.088276 
L 312.098299 93.099477 
L 313.098299 93.109601 
L 314.098299 93.109396 
L 315.098299 93.099887 
L 316.098299 93.088233 
L 317.098299 93.057204 
L 318.098299 93.046036 
L 319.098299 93.015918 
L 320.098299 92.956141 
L 321.098299 92.91895 
L 322.098299 92.879854 
L 323.098299 92.837414 
L 324.098299 92.804649 
L 325.098299 92.737222 
L 326.098299 92.698097 
L 327.098299 92.655422 
L 328.098299 92.584841 
L 329.098299 92.548451 
L 330.098299 92.490047 
L 331.098299 92.379095 
L 332.098299 92.308436 
L 333.098299 92.195497 
L 334.098299 92.149724 
L 335.098299 92.088441 
L 336.098299 92.039941 
L 337.098299 91.959119 
L 338.098299 91.8406 
L 339.098299 91.770389 
L 340.098299 91.687126 
L 341.098299 91.653985 
L 342.098299 91.602747 
L 343.098299 91.534349 
L 344.098299 91.468134 
L 345.098299 91.391217 
L 346.098299 91.363901 
L 347.098299 91.337424 
L 348.098299 91.314773 
L 349.098299 91.295242 
L 350.098299 91.268848 
L 351.098299 91.219077 
L 352.098299 91.184004 
L 353.682951 91.148138 
" clip-path="url(#pd2d4f796c8)" style="fill: none; stroke: #1f77b4; stroke-opacity: 0.5; stroke-width: 0.2; stroke-linecap: square"/>
   </g>
   <g id="line2d_11">
    <path d="M 290.098299 216.65925 
L 291.098299 216.690687 
L 292.098299 216.727627 
L 293.098299 216.825374 
L 294.098299 216.857895 
L 295.098299 216.93152 
L 296.098299 216.970086 
L 297.098299 217.005499 
L 298.098299 217.063139 
L 299.098299 217.133525 
L 300.098299 217.185489 
L 301.098299 217.244579 
L 302.098299 217.3329 
L 303.098299 217.379044 
L 304.098299 217.421455 
L 305.098299 217.451948 
L 306.098299 217.477993 
L 307.098299 217.499193 
L 308.098299 217.553494 
L 309.098299 217.581431 
L 310.098299 217.611155 
L 311.098299 217.63655 
L 312.098299 217.647751 
L 313.098299 217.657875 
L 314.098299 217.65767 
L 315.098299 217.64816 
L 316.098299 217.636507 
L 317.098299 217.605478 
L 318.098299 217.59431 
L 319.098299 217.564192 
L 320.098299 217.504415 
L 321.098299 217.467224 
L 322.098299 217.428128 
L 323.098299 217.385688 
L 324.098299 217.352923 
L 325.098299 217.285496 
L 326.098299 217.24637 
L 327.098299 217.203696 
L 328.098299 217.133115 
L 329.098299 217.096724 
L 330.098299 217.038321 
L 331.098299 216.927369 
L 332.098299 216.85671 
L 333.098299 216.74377 
L 334.098299 216.697998 
L 335.098299 216.636714 
L 336.098299 216.588215 
L 337.098299 216.507392 
L 338.098299 216.388873 
L 339.098299 216.318663 
L 340.098299 216.2354 
L 341.098299 216.202259 
L 342.098299 216.151021 
L 343.098299 216.082623 
L 344.098299 216.016407 
L 345.098299 215.93949 
L 346.098299 215.912175 
L 347.098299 215.885697 
L 348.098299 215.863047 
L 349.098299 215.843515 
L 350.098299 215.817122 
L 351.098299 215.767351 
L 352.098299 215.732278 
L 353.682951 215.696412 
" clip-path="url(#pd2d4f796c8)" style="fill: none; stroke: #1f77b4; stroke-opacity: 0.5; stroke-width: 0.2; stroke-linecap: square"/>
   </g>
   <g id="line2d_12">
    <path d="M 290.098299 209.477179 
L 291.098299 209.508616 
L 292.098299 209.545556 
L 293.098299 209.643303 
L 294.098299 209.675824 
L 295.098299 209.749449 
L 296.098299 209.788015 
L 297.098299 209.823428 
L 298.098299 209.881068 
L 299.098299 209.951454 
L 300.098299 210.003418 
L 301.098299 210.062508 
L 302.098299 210.150829 
L 303.098299 210.196973 
L 304.098299 210.239384 
L 305.098299 210.269877 
L 306.098299 210.295922 
L 307.098299 210.317122 
L 308.098299 210.371423 
L 309.098299 210.399361 
L 310.098299 210.429084 
L 311.098299 210.454479 
L 312.098299 210.46568 
L 313.098299 210.475804 
L 314.098299 210.475599 
L 315.098299 210.466089 
L 316.098299 210.454436 
L 317.098299 210.423407 
L 318.098299 210.412239 
L 319.098299 210.382121 
L 320.098299 210.322344 
L 321.098299 210.285153 
L 322.098299 210.246057 
L 323.098299 210.203617 
L 324.098299 210.170852 
L 325.098299 210.103425 
L 326.098299 210.064299 
L 327.098299 210.021625 
L 328.098299 209.951044 
L 329.098299 209.914653 
L 330.098299 209.85625 
L 331.098299 209.745298 
L 332.098299 209.674639 
L 333.098299 209.5617 
L 334.098299 209.515927 
L 335.098299 209.454643 
L 336.098299 209.406144 
L 337.098299 209.325321 
L 338.098299 209.206802 
L 339.098299 209.136592 
L 340.098299 209.053329 
L 341.098299 209.020188 
L 342.098299 208.96895 
L 343.098299 208.900552 
L 344.098299 208.834337 
L 345.098299 208.757419 
L 346.098299 208.730104 
L 347.098299 208.703626 
L 348.098299 208.680976 
L 349.098299 208.661445 
L 350.098299 208.635051 
L 351.098299 208.58528 
L 352.098299 208.550207 
L 353.682951 208.514341 
" clip-path="url(#pd2d4f796c8)" style="fill: none; stroke: #1f77b4; stroke-opacity: 0.5; stroke-width: 0.2; stroke-linecap: square"/>
   </g>
   <g id="line2d_13">
    <path d="M 290.098299 226.262443 
L 291.098299 226.293879 
L 292.098299 226.33082 
L 293.098299 226.428566 
L 294.098299 226.461088 
L 295.098299 226.534712 
L 296.098299 226.573278 
L 297.098299 226.608691 
L 298.098299 226.666331 
L 299.098299 226.736717 
L 300.098299 226.788682 
L 301.098299 226.847771 
L 302.098299 226.936092 
L 303.098299 226.982237 
L 304.098299 227.024647 
L 305.098299 227.05514 
L 306.098299 227.081185 
L 307.098299 227.102385 
L 308.098299 227.156686 
L 309.098299 227.184624 
L 310.098299 227.214348 
L 311.098299 227.239743 
L 312.098299 227.250943 
L 313.098299 227.261067 
L 314.098299 227.260863 
L 315.098299 227.251353 
L 316.098299 227.239699 
L 317.098299 227.20867 
L 318.098299 227.197502 
L 319.098299 227.167384 
L 320.098299 227.107608 
L 321.098299 227.070416 
L 322.098299 227.03132 
L 323.098299 226.98888 
L 324.098299 226.956115 
L 325.098299 226.888689 
L 326.098299 226.849563 
L 327.098299 226.806888 
L 328.098299 226.736308 
L 329.098299 226.699917 
L 330.098299 226.641514 
L 331.098299 226.530561 
L 332.098299 226.459903 
L 333.098299 226.346963 
L 334.098299 226.30119 
L 335.098299 226.239907 
L 336.098299 226.191407 
L 337.098299 226.110585 
L 338.098299 225.992066 
L 339.098299 225.921855 
L 340.098299 225.838593 
L 341.098299 225.805451 
L 342.098299 225.754214 
L 343.098299 225.685815 
L 344.098299 225.6196 
L 345.098299 225.542683 
L 346.098299 225.515367 
L 347.098299 225.48889 
L 348.098299 225.466239 
L 349.098299 225.446708 
L 350.098299 225.420314 
L 351.098299 225.370543 
L 352.098299 225.33547 
L 353.682951 225.299604 
" clip-path="url(#pd2d4f796c8)" style="fill: none; stroke: #1f77b4; stroke-opacity: 0.5; stroke-width: 0.2; stroke-linecap: square"/>
   </g>
   <g id="line2d_14">
    <path d="M 290.098299 314.867752 
L 291.098299 314.899188 
L 292.098299 314.936128 
L 293.098299 315.033875 
L 294.098299 315.066397 
L 295.098299 315.140021 
L 296.098299 315.178587 
L 297.098299 315.214 
L 298.098299 315.27164 
L 299.098299 315.342026 
L 300.098299 315.39399 
L 301.098299 315.45308 
L 302.098299 315.541401 
L 303.098299 315.587545 
L 304.098299 315.629956 
L 305.098299 315.660449 
L 306.098299 315.686494 
L 307.098299 315.707694 
L 308.098299 315.761995 
L 309.098299 315.789933 
L 310.098299 315.819657 
L 311.098299 315.845051 
L 312.098299 315.856252 
L 313.098299 315.866376 
L 314.098299 315.866171 
L 315.098299 315.856662 
L 316.098299 315.845008 
L 317.098299 315.813979 
L 318.098299 315.802811 
L 319.098299 315.772693 
L 320.098299 315.712916 
L 321.098299 315.675725 
L 322.098299 315.636629 
L 323.098299 315.594189 
L 324.098299 315.561424 
L 325.098299 315.493998 
L 326.098299 315.454872 
L 327.098299 315.412197 
L 328.098299 315.341617 
L 329.098299 315.305226 
L 330.098299 315.246822 
L 331.098299 315.13587 
L 332.098299 315.065212 
L 333.098299 314.952272 
L 334.098299 314.906499 
L 335.098299 314.845216 
L 336.098299 314.796716 
L 337.098299 314.715894 
L 338.098299 314.597375 
L 339.098299 314.527164 
L 340.098299 314.443902 
L 341.098299 314.41076 
L 342.098299 314.359523 
L 343.098299 314.291124 
L 344.098299 314.224909 
L 345.098299 314.147992 
L 346.098299 314.120676 
L 347.098299 314.094199 
L 348.098299 314.071548 
L 349.098299 314.052017 
L 350.098299 314.025623 
L 351.098299 313.975852 
L 352.098299 313.940779 
L 353.682951 313.904913 
" clip-path="url(#pd2d4f796c8)" style="fill: none; stroke: #1f77b4; stroke-opacity: 0.5; stroke-width: 0.2; stroke-linecap: square"/>
   </g>
   <g id="line2d_15">
    <path d="M 290.098299 291.068992 
L 291.098299 291.100429 
L 292.098299 291.137369 
L 293.098299 291.235116 
L 294.098299 291.267637 
L 295.098299 291.341262 
L 296.098299 291.379828 
L 297.098299 291.415241 
L 298.098299 291.472881 
L 299.098299 291.543267 
L 300.098299 291.595231 
L 301.098299 291.654321 
L 302.098299 291.742642 
L 303.098299 291.788786 
L 304.098299 291.831197 
L 305.098299 291.86169 
L 306.098299 291.887735 
L 307.098299 291.908935 
L 308.098299 291.963236 
L 309.098299 291.991173 
L 310.098299 292.020897 
L 311.098299 292.046292 
L 312.098299 292.057493 
L 313.098299 292.067617 
L 314.098299 292.067412 
L 315.098299 292.057902 
L 316.098299 292.046249 
L 317.098299 292.015219 
L 318.098299 292.004052 
L 319.098299 291.973934 
L 320.098299 291.914157 
L 321.098299 291.876966 
L 322.098299 291.837869 
L 323.098299 291.79543 
L 324.098299 291.762665 
L 325.098299 291.695238 
L 326.098299 291.656112 
L 327.098299 291.613438 
L 328.098299 291.542857 
L 329.098299 291.506466 
L 330.098299 291.448063 
L 331.098299 291.337111 
L 332.098299 291.266452 
L 333.098299 291.153512 
L 334.098299 291.10774 
L 335.098299 291.046456 
L 336.098299 290.997957 
L 337.098299 290.917134 
L 338.098299 290.798615 
L 339.098299 290.728405 
L 340.098299 290.645142 
L 341.098299 290.612 
L 342.098299 290.560763 
L 343.098299 290.492365 
L 344.098299 290.426149 
L 345.098299 290.349232 
L 346.098299 290.321917 
L 347.098299 290.295439 
L 348.098299 290.272789 
L 349.098299 290.253257 
L 350.098299 290.226863 
L 351.098299 290.177093 
L 352.098299 290.142019 
L 353.682951 290.106154 
" clip-path="url(#pd2d4f796c8)" style="fill: none; stroke: #1f77b4; stroke-opacity: 0.5; stroke-width: 0.2; stroke-linecap: square"/>
   </g>
   <g id="line2d_16">
    <path d="M 290.098299 289.653826 
L 291.098299 289.685262 
L 292.098299 289.722202 
L 293.098299 289.819949 
L 294.098299 289.852471 
L 295.098299 289.926095 
L 296.098299 289.964661 
L 297.098299 290.000074 
L 298.098299 290.057714 
L 299.098299 290.1281 
L 300.098299 290.180064 
L 301.098299 290.239154 
L 302.098299 290.327475 
L 303.098299 290.373619 
L 304.098299 290.41603 
L 305.098299 290.446523 
L 306.098299 290.472568 
L 307.098299 290.493768 
L 308.098299 290.548069 
L 309.098299 290.576007 
L 310.098299 290.605731 
L 311.098299 290.631125 
L 312.098299 290.642326 
L 313.098299 290.65245 
L 314.098299 290.652245 
L 315.098299 290.642736 
L 316.098299 290.631082 
L 317.098299 290.600053 
L 318.098299 290.588885 
L 319.098299 290.558767 
L 320.098299 290.49899 
L 321.098299 290.461799 
L 322.098299 290.422703 
L 323.098299 290.380263 
L 324.098299 290.347498 
L 325.098299 290.280071 
L 326.098299 290.240946 
L 327.098299 290.198271 
L 328.098299 290.12769 
L 329.098299 290.0913 
L 330.098299 290.032896 
L 331.098299 289.921944 
L 332.098299 289.851286 
L 333.098299 289.738346 
L 334.098299 289.692573 
L 335.098299 289.63129 
L 336.098299 289.58279 
L 337.098299 289.501968 
L 338.098299 289.383449 
L 339.098299 289.313238 
L 340.098299 289.229976 
L 341.098299 289.196834 
L 342.098299 289.145596 
L 343.098299 289.077198 
L 344.098299 289.010983 
L 345.098299 288.934066 
L 346.098299 288.90675 
L 347.098299 288.880273 
L 348.098299 288.857622 
L 349.098299 288.838091 
L 350.098299 288.811697 
L 351.098299 288.761926 
L 352.098299 288.726853 
L 353.682951 288.690987 
" clip-path="url(#pd2d4f796c8)" style="fill: none; stroke: #1f77b4; stroke-opacity: 0.5; stroke-width: 0.2; stroke-linecap: square"/>
   </g>
   <g id="line2d_17">
    <path d="M 290.098299 273.895389 
L 291.098299 273.926825 
L 292.098299 273.963766 
L 293.098299 274.061512 
L 294.098299 274.094034 
L 295.098299 274.167659 
L 296.098299 274.206224 
L 297.098299 274.241637 
L 298.098299 274.299277 
L 299.098299 274.369663 
L 300.098299 274.421628 
L 301.098299 274.480717 
L 302.098299 274.569038 
L 303.098299 274.615183 
L 304.098299 274.657594 
L 305.098299 274.688086 
L 306.098299 274.714131 
L 307.098299 274.735331 
L 308.098299 274.789632 
L 309.098299 274.81757 
L 310.098299 274.847294 
L 311.098299 274.872689 
L 312.098299 274.883889 
L 313.098299 274.894013 
L 314.098299 274.893809 
L 315.098299 274.884299 
L 316.098299 274.872645 
L 317.098299 274.841616 
L 318.098299 274.830448 
L 319.098299 274.800331 
L 320.098299 274.740554 
L 321.098299 274.703362 
L 322.098299 274.664266 
L 323.098299 274.621826 
L 324.098299 274.589061 
L 325.098299 274.521635 
L 326.098299 274.482509 
L 327.098299 274.439834 
L 328.098299 274.369254 
L 329.098299 274.332863 
L 330.098299 274.27446 
L 331.098299 274.163507 
L 332.098299 274.092849 
L 333.098299 273.979909 
L 334.098299 273.934136 
L 335.098299 273.872853 
L 336.098299 273.824354 
L 337.098299 273.743531 
L 338.098299 273.625012 
L 339.098299 273.554801 
L 340.098299 273.471539 
L 341.098299 273.438397 
L 342.098299 273.38716 
L 343.098299 273.318761 
L 344.098299 273.252546 
L 345.098299 273.175629 
L 346.098299 273.148313 
L 347.098299 273.121836 
L 348.098299 273.099185 
L 349.098299 273.079654 
L 350.098299 273.05326 
L 351.098299 273.003489 
L 352.098299 272.968416 
L 353.682951 272.93255 
" clip-path="url(#pd2d4f796c8)" style="fill: none; stroke: #1f77b4; stroke-opacity: 0.5; stroke-width: 0.2; stroke-linecap: square"/>
   </g>
   <g id="line2d_18">
    <path d="M 290.098299 309.399984 
L 291.098299 309.43142 
L 292.098299 309.468361 
L 293.098299 309.566107 
L 294.098299 309.598629 
L 295.098299 309.672253 
L 296.098299 309.710819 
L 297.098299 309.746232 
L 298.098299 309.803872 
L 299.098299 309.874258 
L 300.098299 309.926222 
L 301.098299 309.985312 
L 302.098299 310.073633 
L 303.098299 310.119777 
L 304.098299 310.162188 
L 305.098299 310.192681 
L 306.098299 310.218726 
L 307.098299 310.239926 
L 308.098299 310.294227 
L 309.098299 310.322165 
L 310.098299 310.351889 
L 311.098299 310.377284 
L 312.098299 310.388484 
L 313.098299 310.398608 
L 314.098299 310.398404 
L 315.098299 310.388894 
L 316.098299 310.37724 
L 317.098299 310.346211 
L 318.098299 310.335043 
L 319.098299 310.304925 
L 320.098299 310.245148 
L 321.098299 310.207957 
L 322.098299 310.168861 
L 323.098299 310.126421 
L 324.098299 310.093656 
L 325.098299 310.02623 
L 326.098299 309.987104 
L 327.098299 309.944429 
L 328.098299 309.873849 
L 329.098299 309.837458 
L 330.098299 309.779055 
L 331.098299 309.668102 
L 332.098299 309.597444 
L 333.098299 309.484504 
L 334.098299 309.438731 
L 335.098299 309.377448 
L 336.098299 309.328948 
L 337.098299 309.248126 
L 338.098299 309.129607 
L 339.098299 309.059396 
L 340.098299 308.976134 
L 341.098299 308.942992 
L 342.098299 308.891755 
L 343.098299 308.823356 
L 344.098299 308.757141 
L 345.098299 308.680224 
L 346.098299 308.652908 
L 347.098299 308.626431 
L 348.098299 308.60378 
L 349.098299 308.584249 
L 350.098299 308.557855 
L 351.098299 308.508084 
L 352.098299 308.473011 
L 353.682951 308.437145 
" clip-path="url(#pd2d4f796c8)" style="fill: none; stroke: #1f77b4; stroke-opacity: 0.5; stroke-width: 0.2; stroke-linecap: square"/>
   </g>
   <g id="line2d_19">
    <path d="M 290.098299 203.255142 
L 291.098299 203.286579 
L 292.098299 203.323519 
L 293.098299 203.421265 
L 294.098299 203.453787 
L 295.098299 203.527412 
L 296.098299 203.565977 
L 297.098299 203.60139 
L 298.098299 203.65903 
L 299.098299 203.729417 
L 300.098299 203.781381 
L 301.098299 203.840471 
L 302.098299 203.928792 
L 303.098299 203.974936 
L 304.098299 204.017347 
L 305.098299 204.047839 
L 306.098299 204.073884 
L 307.098299 204.095085 
L 308.098299 204.149386 
L 309.098299 204.177323 
L 310.098299 204.207047 
L 311.098299 204.232442 
L 312.098299 204.243642 
L 313.098299 204.253766 
L 314.098299 204.253562 
L 315.098299 204.244052 
L 316.098299 204.232399 
L 317.098299 204.201369 
L 318.098299 204.190201 
L 319.098299 204.160084 
L 320.098299 204.100307 
L 321.098299 204.063115 
L 322.098299 204.024019 
L 323.098299 203.98158 
L 324.098299 203.948815 
L 325.098299 203.881388 
L 326.098299 203.842262 
L 327.098299 203.799588 
L 328.098299 203.729007 
L 329.098299 203.692616 
L 330.098299 203.634213 
L 331.098299 203.52326 
L 332.098299 203.452602 
L 333.098299 203.339662 
L 334.098299 203.293889 
L 335.098299 203.232606 
L 336.098299 203.184107 
L 337.098299 203.103284 
L 338.098299 202.984765 
L 339.098299 202.914555 
L 340.098299 202.831292 
L 341.098299 202.79815 
L 342.098299 202.746913 
L 343.098299 202.678515 
L 344.098299 202.612299 
L 345.098299 202.535382 
L 346.098299 202.508067 
L 347.098299 202.481589 
L 348.098299 202.458938 
L 349.098299 202.439407 
L 350.098299 202.413013 
L 351.098299 202.363242 
L 352.098299 202.328169 
L 353.682951 202.292304 
" clip-path="url(#pd2d4f796c8)" style="fill: none; stroke: #1f77b4; stroke-opacity: 0.5; stroke-width: 0.2; stroke-linecap: square"/>
   </g>
   <g id="line2d_20">
    <path d="M 290.098299 310.703454 
L 291.098299 310.734891 
L 292.098299 310.771831 
L 293.098299 310.869578 
L 294.098299 310.902099 
L 295.098299 310.975724 
L 296.098299 311.01429 
L 297.098299 311.049703 
L 298.098299 311.107343 
L 299.098299 311.177729 
L 300.098299 311.229693 
L 301.098299 311.288783 
L 302.098299 311.377104 
L 303.098299 311.423248 
L 304.098299 311.465659 
L 305.098299 311.496152 
L 306.098299 311.522197 
L 307.098299 311.543397 
L 308.098299 311.597698 
L 309.098299 311.625636 
L 310.098299 311.655359 
L 311.098299 311.680754 
L 312.098299 311.691955 
L 313.098299 311.702079 
L 314.098299 311.701874 
L 315.098299 311.692364 
L 316.098299 311.680711 
L 317.098299 311.649682 
L 318.098299 311.638514 
L 319.098299 311.608396 
L 320.098299 311.548619 
L 321.098299 311.511428 
L 322.098299 311.472332 
L 323.098299 311.429892 
L 324.098299 311.397127 
L 325.098299 311.3297 
L 326.098299 311.290574 
L 327.098299 311.2479 
L 328.098299 311.177319 
L 329.098299 311.140928 
L 330.098299 311.082525 
L 331.098299 310.971573 
L 332.098299 310.900914 
L 333.098299 310.787975 
L 334.098299 310.742202 
L 335.098299 310.680918 
L 336.098299 310.632419 
L 337.098299 310.551596 
L 338.098299 310.433077 
L 339.098299 310.362867 
L 340.098299 310.279604 
L 341.098299 310.246463 
L 342.098299 310.195225 
L 343.098299 310.126827 
L 344.098299 310.060612 
L 345.098299 309.983694 
L 346.098299 309.956379 
L 347.098299 309.929901 
L 348.098299 309.907251 
L 349.098299 309.88772 
L 350.098299 309.861326 
L 351.098299 309.811555 
L 352.098299 309.776482 
L 353.682951 309.740616 
" clip-path="url(#pd2d4f796c8)" style="fill: none; stroke: #1f77b4; stroke-opacity: 0.5; stroke-width: 0.2; stroke-linecap: square"/>
   </g>
   <g id="patch_3">
    <path d="M 69.06392 22.318125 
L 69.06392 318.021875 
M 284.536112 22.318125 
L 284.536112 318.021875 
" clip-path="url(#pd2d4f796c8)" style="fill: none; stroke: #ffffff; stroke-width: 3; stroke-linejoin: miter"/>
    <path d="M 69.06392 22.318125 
L 69.06392 318.021875 
M 284.536112 22.318125 
L 284.536112 318.021875 
" clip-path="url(#pd2d4f796c8)" style="fill: none; stroke: #1f77b4; stroke-linejoin: miter"/>
   </g>
   <g id="FillBetweenPolyCollection_1">
    <path d="M 284.536112 22.318125 
L 69.06392 22.318125 
L 69.06392 318.021875 
L 284.536112 318.021875 
L 284.536112 318.021875 
L 284.536112 22.318125 
z
" clip-path="url(#pd2d4f796c8)" style="fill: #1f77b4; fill-opacity: 0.5"/>
   </g>
   <g id="patch_4">
    <path d="M 359.245138 22.318125 
L 359.245138 318.021875 
M 574.71733 22.318125 
L 574.71733 318.021875 
" clip-path="url(#pd2d4f796c8)" style="fill: none; stroke: #ffffff; stroke-width: 3; stroke-linejoin: miter"/>
    <path d="M 359.245138 22.318125 
L 359.245138 318.021875 
M 574.71733 22.318125 
L 574.71733 318.021875 
" clip-path="url(#pd2d4f796c8)" style="fill: none; stroke: #ff7f0e; stroke-linejoin: miter"/>
   </g>
   <g id="FillBetweenPolyCollection_2">
    <path d="M 574.71733 22.318125 
L 359.245138 22.318125 
L 359.245138 318.021875 
L 574.71733 318.021875 
L 574.71733 318.021875 
L 574.71733 22.318125 
z
" clip-path="url(#pd2d4f796c8)" style="fill: #ff7f0e; fill-opacity: 0.5"/>
   </g>
   <g id="matplotlib.axis_1">
    <g id="xtick_1">
     <g id="line2d_21"/>
     <g id="text_1">
      <!-- deme0 -->
      <g transform="translate(159.42111 329.120312) scale(0.1 -0.1)">
       <defs>
        <path id="DejaVuSans-64" d="M 2906 2969 
L 2906 4863 
L 3481 4863 
L 3481 0 
L 2906 0 
L 2906 525 
Q 2725 213 2448 61 
Q 2172 -91 1784 -91 
Q 1150 -91 751 415 
Q 353 922 353 1747 
Q 353 2572 751 3078 
Q 1150 3584 1784 3584 
Q 2172 3584 2448 3432 
Q 2725 3281 2906 2969 
z
M 947 1747 
Q 947 1113 1208 752 
Q 1469 391 1925 391 
Q 2381 391 2643 752 
Q 2906 1113 2906 1747 
Q 2906 2381 2643 2742 
Q 2381 3103 1925 3103 
Q 1469 3103 1208 2742 
Q 947 2381 947 1747 
z
" transform="scale(0.015625)"/>
        <path id="DejaVuSans-65" d="M 3597 1894 
L 3597 1613 
L 953 1613 
Q 991 1019 1311 708 
Q 1631 397 2203 397 
Q 2534 397 2845 478 
Q 3156 559 3463 722 
L 3463 178 
Q 3153 47 2828 -22 
Q 2503 -91 2169 -91 
Q 1331 -91 842 396 
Q 353 884 353 1716 
Q 353 2575 817 3079 
Q 1281 3584 2069 3584 
Q 2775 3584 3186 3129 
Q 3597 2675 3597 1894 
z
M 3022 2063 
Q 3016 2534 2758 2815 
Q 2500 3097 2075 3097 
Q 1594 3097 1305 2825 
Q 1016 2553 972 2059 
L 3022 2063 
z
" transform="scale(0.015625)"/>
        <path id="DejaVuSans-6d" d="M 3328 2828 
Q 3544 3216 3844 3400 
Q 4144 3584 4550 3584 
Q 5097 3584 5394 3201 
Q 5691 2819 5691 2113 
L 5691 0 
L 5113 0 
L 5113 2094 
Q 5113 2597 4934 2840 
Q 4756 3084 4391 3084 
Q 3944 3084 3684 2787 
Q 3425 2491 3425 1978 
L 3425 0 
L 2847 0 
L 2847 2094 
Q 2847 2600 2669 2842 
Q 2491 3084 2119 3084 
Q 1678 3084 1418 2786 
Q 1159 2488 1159 1978 
L 1159 0 
L 581 0 
L 581 3500 
L 1159 3500 
L 1159 2956 
Q 1356 3278 1631 3431 
Q 1906 3584 2284 3584 
Q 2666 3584 2933 3390 
Q 3200 3197 3328 2828 
z
" transform="scale(0.015625)"/>
        <path id="DejaVuSans-30" d="M 2034 4250 
Q 1547 4250 1301 3770 
Q 1056 3291 1056 2328 
Q 1056 1369 1301 889 
Q 1547 409 2034 409 
Q 2525 409 2770 889 
Q 3016 1369 3016 2328 
Q 3016 3291 2770 3770 
Q 2525 4250 2034 4250 
z
M 2034 4750 
Q 2819 4750 3233 4129 
Q 3647 3509 3647 2328 
Q 3647 1150 3233 529 
Q 2819 -91 2034 -91 
Q 1250 -91 836 529 
Q 422 1150 422 2328 
Q 422 3509 836 4129 
Q 1250 4750 2034 4750 
z
" transform="scale(0.015625)"/>
       </defs>
       <use xlink:href="#DejaVuSans-64"/>
       <use xlink:href="#DejaVuSans-65" transform="translate(63.476562 0)"/>
       <use xlink:href="#DejaVuSans-6d" transform="translate(125 0)"/>
       <use xlink:href="#DejaVuSans-65" transform="translate(222.412109 0)"/>
       <use xlink:href="#DejaVuSans-30" transform="translate(283.935547 0)"/>
      </g>
     </g>
    </g>
    <g id="xtick_2">
     <g id="line2d_22"/>
     <g id="text_2">
      <!-- deme1 -->
      <g transform="translate(449.602328 329.120312) scale(0.1 -0.1)">
       <defs>
        <path id="DejaVuSans-31" d="M 794 531 
L 1825 531 
L 1825 4091 
L 703 3866 
L 703 4441 
L 1819 4666 
L 2450 4666 
L 2450 531 
L 3481 531 
L 3481 0 
L 794 0 
L 794 531 
z
" transform="scale(0.015625)"/>
       </defs>
       <use xlink:href="#DejaVuSans-64"/>
       <use xlink:href="#DejaVuSans-65" transform="translate(63.476562 0)"/>
       <use xlink:href="#DejaVuSans-6d" transform="translate(125 0)"/>
       <use xlink:href="#DejaVuSans-65" transform="translate(222.412109 0)"/>
       <use xlink:href="#DejaVuSans-31" transform="translate(283.935547 0)"/>
      </g>
     </g>
    </g>
   </g>
   <g id="matplotlib.axis_2">
    <g id="ytick_1">
     <g id="line2d_23">
      <defs>
       <path id="m8d8de9ea96" d="M 0 0 
L -3.5 0 
" style="stroke: #000000; stroke-width: 0.8"/>
      </defs>
      <g>
       <use xlink:href="#m8d8de9ea96" x="43.78125" y="318.021875" style="stroke: #000000; stroke-width: 0.8"/>
      </g>
     </g>
     <g id="text_3">
      <!-- 0.0 -->
      <g transform="translate(20.878125 321.821094) scale(0.1 -0.1)">
       <defs>
        <path id="DejaVuSans-2e" d="M 684 794 
L 1344 794 
L 1344 0 
L 684 0 
L 684 794 
z
" transform="scale(0.015625)"/>
       </defs>
       <use xlink:href="#DejaVuSans-30"/>
       <use xlink:href="#DejaVuSans-2e" transform="translate(63.623047 0)"/>
       <use xlink:href="#DejaVuSans-30" transform="translate(95.410156 0)"/>
      </g>
     </g>
    </g>
    <g id="ytick_2">
     <g id="line2d_24">
      <g>
       <use xlink:href="#m8d8de9ea96" x="43.78125" y="258.881125" style="stroke: #000000; stroke-width: 0.8"/>
      </g>
     </g>
     <g id="text_4">
      <!-- 0.5 -->
      <g transform="translate(20.878125 262.680344) scale(0.1 -0.1)">
       <defs>
        <path id="DejaVuSans-35" d="M 691 4666 
L 3169 4666 
L 3169 4134 
L 1269 4134 
L 1269 2991 
Q 1406 3038 1543 3061 
Q 1681 3084 1819 3084 
Q 2600 3084 3056 2656 
Q 3513 2228 3513 1497 
Q 3513 744 3044 326 
Q 2575 -91 1722 -91 
Q 1428 -91 1123 -41 
Q 819 9 494 109 
L 494 744 
Q 775 591 1075 516 
Q 1375 441 1709 441 
Q 2250 441 2565 725 
Q 2881 1009 2881 1497 
Q 2881 1984 2565 2268 
Q 2250 2553 1709 2553 
Q 1456 2553 1204 2497 
Q 953 2441 691 2322 
L 691 4666 
z
" transform="scale(0.015625)"/>
       </defs>
       <use xlink:href="#DejaVuSans-30"/>
       <use xlink:href="#DejaVuSans-2e" transform="translate(63.623047 0)"/>
       <use xlink:href="#DejaVuSans-35" transform="translate(95.410156 0)"/>
      </g>
     </g>
    </g>
    <g id="ytick_3">
     <g id="line2d_25">
      <g>
       <use xlink:href="#m8d8de9ea96" x="43.78125" y="199.740375" style="stroke: #000000; stroke-width: 0.8"/>
      </g>
     </g>
     <g id="text_5">
      <!-- 1.0 -->
      <g transform="translate(20.878125 203.539594) scale(0.1 -0.1)">
       <use xlink:href="#DejaVuSans-31"/>
       <use xlink:href="#DejaVuSans-2e" transform="translate(63.623047 0)"/>
       <use xlink:href="#DejaVuSans-30" transform="translate(95.410156 0)"/>
      </g>
     </g>
    </g>
    <g id="ytick_4">
     <g id="line2d_26">
      <g>
       <use xlink:href="#m8d8de9ea96" x="43.78125" y="140.599625" style="stroke: #000000; stroke-width: 0.8"/>
      </g>
     </g>
     <g id="text_6">
      <!-- 1.5 -->
      <g transform="translate(20.878125 144.398844) scale(0.1 -0.1)">
       <use xlink:href="#DejaVuSans-31"/>
       <use xlink:href="#DejaVuSans-2e" transform="translate(63.623047 0)"/>
       <use xlink:href="#DejaVuSans-35" transform="translate(95.410156 0)"/>
      </g>
     </g>
    </g>
    <g id="ytick_5">
     <g id="line2d_27">
      <g>
       <use xlink:href="#m8d8de9ea96" x="43.78125" y="81.458875" style="stroke: #000000; stroke-width: 0.8"/>
      </g>
     </g>
     <g id="text_7">
      <!-- 2.0 -->
      <g transform="translate(20.878125 85.258094) scale(0.1 -0.1)">
       <defs>
        <path id="DejaVuSans-32" d="M 1228 531 
L 3431 531 
L 3431 0 
L 469 0 
L 469 531 
Q 828 903 1448 1529 
Q 2069 2156 2228 2338 
Q 2531 2678 2651 2914 
Q 2772 3150 2772 3378 
Q 2772 3750 2511 3984 
Q 2250 4219 1831 4219 
Q 1534 4219 1204 4116 
Q 875 4013 500 3803 
L 500 4441 
Q 881 4594 1212 4672 
Q 1544 4750 1819 4750 
Q 2544 4750 2975 4387 
Q 3406 4025 3406 3419 
Q 3406 3131 3298 2873 
Q 3191 2616 2906 2266 
Q 2828 2175 2409 1742 
Q 1991 1309 1228 531 
z
" transform="scale(0.015625)"/>
       </defs>
       <use xlink:href="#DejaVuSans-32"/>
       <use xlink:href="#DejaVuSans-2e" transform="translate(63.623047 0)"/>
       <use xlink:href="#DejaVuSans-30" transform="translate(95.410156 0)"/>
      </g>
     </g>
    </g>
    <g id="ytick_6">
     <g id="line2d_28">
      <g>
       <use xlink:href="#m8d8de9ea96" x="43.78125" y="22.318125" style="stroke: #000000; stroke-width: 0.8"/>
      </g>
     </g>
     <g id="text_8">
      <!-- 2.5 -->
      <g transform="translate(20.878125 26.117344) scale(0.1 -0.1)">
       <use xlink:href="#DejaVuSans-32"/>
       <use xlink:href="#DejaVuSans-2e" transform="translate(63.623047 0)"/>
       <use xlink:href="#DejaVuSans-35" transform="translate(95.410156 0)"/>
      </g>
     </g>
    </g>
    <g id="text_9">
     <!-- time ago (generations) -->
     <g transform="translate(14.798438 227.641094) rotate(-90) scale(0.1 -0.1)">
      <defs>
       <path id="DejaVuSans-74" d="M 1172 4494 
L 1172 3500 
L 2356 3500 
L 2356 3053 
L 1172 3053 
L 1172 1153 
Q 1172 725 1289 603 
Q 1406 481 1766 481 
L 2356 481 
L 2356 0 
L 1766 0 
Q 1100 0 847 248 
Q 594 497 594 1153 
L 594 3053 
L 172 3053 
L 172 3500 
L 594 3500 
L 594 4494 
L 1172 4494 
z
" transform="scale(0.015625)"/>
       <path id="DejaVuSans-69" d="M 603 3500 
L 1178 3500 
L 1178 0 
L 603 0 
L 603 3500 
z
M 603 4863 
L 1178 4863 
L 1178 4134 
L 603 4134 
L 603 4863 
z
" transform="scale(0.015625)"/>
       <path id="DejaVuSans-20" transform="scale(0.015625)"/>
       <path id="DejaVuSans-61" d="M 2194 1759 
Q 1497 1759 1228 1600 
Q 959 1441 959 1056 
Q 959 750 1161 570 
Q 1363 391 1709 391 
Q 2188 391 2477 730 
Q 2766 1069 2766 1631 
L 2766 1759 
L 2194 1759 
z
M 3341 1997 
L 3341 0 
L 2766 0 
L 2766 531 
Q 2569 213 2275 61 
Q 1981 -91 1556 -91 
Q 1019 -91 701 211 
Q 384 513 384 1019 
Q 384 1609 779 1909 
Q 1175 2209 1959 2209 
L 2766 2209 
L 2766 2266 
Q 2766 2663 2505 2880 
Q 2244 3097 1772 3097 
Q 1472 3097 1187 3025 
Q 903 2953 641 2809 
L 641 3341 
Q 956 3463 1253 3523 
Q 1550 3584 1831 3584 
Q 2591 3584 2966 3190 
Q 3341 2797 3341 1997 
z
" transform="scale(0.015625)"/>
       <path id="DejaVuSans-67" d="M 2906 1791 
Q 2906 2416 2648 2759 
Q 2391 3103 1925 3103 
Q 1463 3103 1205 2759 
Q 947 2416 947 1791 
Q 947 1169 1205 825 
Q 1463 481 1925 481 
Q 2391 481 2648 825 
Q 2906 1169 2906 1791 
z
M 3481 434 
Q 3481 -459 3084 -895 
Q 2688 -1331 1869 -1331 
Q 1566 -1331 1297 -1286 
Q 1028 -1241 775 -1147 
L 775 -588 
Q 1028 -725 1275 -790 
Q 1522 -856 1778 -856 
Q 2344 -856 2625 -561 
Q 2906 -266 2906 331 
L 2906 616 
Q 2728 306 2450 153 
Q 2172 0 1784 0 
Q 1141 0 747 490 
Q 353 981 353 1791 
Q 353 2603 747 3093 
Q 1141 3584 1784 3584 
Q 2172 3584 2450 3431 
Q 2728 3278 2906 2969 
L 2906 3500 
L 3481 3500 
L 3481 434 
z
" transform="scale(0.015625)"/>
       <path id="DejaVuSans-6f" d="M 1959 3097 
Q 1497 3097 1228 2736 
Q 959 2375 959 1747 
Q 959 1119 1226 758 
Q 1494 397 1959 397 
Q 2419 397 2687 759 
Q 2956 1122 2956 1747 
Q 2956 2369 2687 2733 
Q 2419 3097 1959 3097 
z
M 1959 3584 
Q 2709 3584 3137 3096 
Q 3566 2609 3566 1747 
Q 3566 888 3137 398 
Q 2709 -91 1959 -91 
Q 1206 -91 779 398 
Q 353 888 353 1747 
Q 353 2609 779 3096 
Q 1206 3584 1959 3584 
z
" transform="scale(0.015625)"/>
       <path id="DejaVuSans-28" d="M 1984 4856 
Q 1566 4138 1362 3434 
Q 1159 2731 1159 2009 
Q 1159 1288 1364 580 
Q 1569 -128 1984 -844 
L 1484 -844 
Q 1016 -109 783 600 
Q 550 1309 550 2009 
Q 550 2706 781 3412 
Q 1013 4119 1484 4856 
L 1984 4856 
z
" transform="scale(0.015625)"/>
       <path id="DejaVuSans-6e" d="M 3513 2113 
L 3513 0 
L 2938 0 
L 2938 2094 
Q 2938 2591 2744 2837 
Q 2550 3084 2163 3084 
Q 1697 3084 1428 2787 
Q 1159 2491 1159 1978 
L 1159 0 
L 581 0 
L 581 3500 
L 1159 3500 
L 1159 2956 
Q 1366 3272 1645 3428 
Q 1925 3584 2291 3584 
Q 2894 3584 3203 3211 
Q 3513 2838 3513 2113 
z
" transform="scale(0.015625)"/>
       <path id="DejaVuSans-72" d="M 2631 2963 
Q 2534 3019 2420 3045 
Q 2306 3072 2169 3072 
Q 1681 3072 1420 2755 
Q 1159 2438 1159 1844 
L 1159 0 
L 581 0 
L 581 3500 
L 1159 3500 
L 1159 2956 
Q 1341 3275 1631 3429 
Q 1922 3584 2338 3584 
Q 2397 3584 2469 3576 
Q 2541 3569 2628 3553 
L 2631 2963 
z
" transform="scale(0.015625)"/>
       <path id="DejaVuSans-73" d="M 2834 3397 
L 2834 2853 
Q 2591 2978 2328 3040 
Q 2066 3103 1784 3103 
Q 1356 3103 1142 2972 
Q 928 2841 928 2578 
Q 928 2378 1081 2264 
Q 1234 2150 1697 2047 
L 1894 2003 
Q 2506 1872 2764 1633 
Q 3022 1394 3022 966 
Q 3022 478 2636 193 
Q 2250 -91 1575 -91 
Q 1294 -91 989 -36 
Q 684 19 347 128 
L 347 722 
Q 666 556 975 473 
Q 1284 391 1588 391 
Q 1994 391 2212 530 
Q 2431 669 2431 922 
Q 2431 1156 2273 1281 
Q 2116 1406 1581 1522 
L 1381 1569 
Q 847 1681 609 1914 
Q 372 2147 372 2553 
Q 372 3047 722 3315 
Q 1072 3584 1716 3584 
Q 2034 3584 2315 3537 
Q 2597 3491 2834 3397 
z
" transform="scale(0.015625)"/>
       <path id="DejaVuSans-29" d="M 513 4856 
L 1013 4856 
Q 1481 4119 1714 3412 
Q 1947 2706 1947 2009 
Q 1947 1309 1714 600 
Q 1481 -109 1013 -844 
L 513 -844 
Q 928 -128 1133 580 
Q 1338 1288 1338 2009 
Q 1338 2731 1133 3434 
Q 928 4138 513 4856 
z
" transform="scale(0.015625)"/>
      </defs>
      <use xlink:href="#DejaVuSans-74"/>
      <use xlink:href="#DejaVuSans-69" transform="translate(39.208984 0)"/>
      <use xlink:href="#DejaVuSans-6d" transform="translate(66.992188 0)"/>
      <use xlink:href="#DejaVuSans-65" transform="translate(164.404297 0)"/>
      <use xlink:href="#DejaVuSans-20" transform="translate(225.927734 0)"/>
      <use xlink:href="#DejaVuSans-61" transform="translate(257.714844 0)"/>
      <use xlink:href="#DejaVuSans-67" transform="translate(318.994141 0)"/>
      <use xlink:href="#DejaVuSans-6f" transform="translate(382.470703 0)"/>
      <use xlink:href="#DejaVuSans-20" transform="translate(443.652344 0)"/>
      <use xlink:href="#DejaVuSans-28" transform="translate(475.439453 0)"/>
      <use xlink:href="#DejaVuSans-67" transform="translate(514.453125 0)"/>
      <use xlink:href="#DejaVuSans-65" transform="translate(577.929688 0)"/>
      <use xlink:href="#DejaVuSans-6e" transform="translate(639.453125 0)"/>
      <use xlink:href="#DejaVuSans-65" transform="translate(702.832031 0)"/>
      <use xlink:href="#DejaVuSans-72" transform="translate(764.355469 0)"/>
      <use xlink:href="#DejaVuSans-61" transform="translate(805.46875 0)"/>
      <use xlink:href="#DejaVuSans-74" transform="translate(866.748047 0)"/>
      <use xlink:href="#DejaVuSans-69" transform="translate(905.957031 0)"/>
      <use xlink:href="#DejaVuSans-6f" transform="translate(933.740234 0)"/>
      <use xlink:href="#DejaVuSans-6e" transform="translate(994.921875 0)"/>
      <use xlink:href="#DejaVuSans-73" transform="translate(1058.300781 0)"/>
      <use xlink:href="#DejaVuSans-29" transform="translate(1110.400391 0)"/>
     </g>
    </g>
   </g>
   <g id="line2d_29">
    <path d="M 354.682951 147.341737 
L 352.682951 146.341737 
L 352.682951 148.341737 
z
" clip-path="url(#pd2d4f796c8)" style="fill: #1f77b4; fill-opacity: 0.5; stroke: #1f77b4; stroke-opacity: 0.5; stroke-linejoin: miter"/>
   </g>
   <g id="line2d_30">
    <path d="M 354.682951 112.976431 
L 352.682951 111.976431 
L 352.682951 113.976431 
z
" clip-path="url(#pd2d4f796c8)" style="fill: #1f77b4; fill-opacity: 0.5; stroke: #1f77b4; stroke-opacity: 0.5; stroke-linejoin: miter"/>
   </g>
   <g id="line2d_31">
    <path d="M 354.682951 141.440002 
L 352.682951 140.440002 
L 352.682951 142.440002 
z
" clip-path="url(#pd2d4f796c8)" style="fill: #1f77b4; fill-opacity: 0.5; stroke: #1f77b4; stroke-opacity: 0.5; stroke-linejoin: miter"/>
   </g>
   <g id="line2d_32">
    <path d="M 354.682951 158.972071 
L 352.682951 157.972071 
L 352.682951 159.972071 
z
" clip-path="url(#pd2d4f796c8)" style="fill: #1f77b4; fill-opacity: 0.5; stroke: #1f77b4; stroke-opacity: 0.5; stroke-linejoin: miter"/>
   </g>
   <g id="line2d_33">
    <path d="M 354.682951 136.489171 
L 352.682951 135.489171 
L 352.682951 137.489171 
z
" clip-path="url(#pd2d4f796c8)" style="fill: #1f77b4; fill-opacity: 0.5; stroke: #1f77b4; stroke-opacity: 0.5; stroke-linejoin: miter"/>
   </g>
   <g id="line2d_34">
    <path d="M 354.682951 178.684726 
L 352.682951 177.684726 
L 352.682951 179.684726 
z
" clip-path="url(#pd2d4f796c8)" style="fill: #1f77b4; fill-opacity: 0.5; stroke: #1f77b4; stroke-opacity: 0.5; stroke-linejoin: miter"/>
   </g>
   <g id="line2d_35">
    <path d="M 354.682951 93.940612 
L 352.682951 92.940612 
L 352.682951 94.940612 
z
" clip-path="url(#pd2d4f796c8)" style="fill: #1f77b4; fill-opacity: 0.5; stroke: #1f77b4; stroke-opacity: 0.5; stroke-linejoin: miter"/>
   </g>
   <g id="line2d_36">
    <path d="M 354.682951 157.425211 
L 352.682951 156.425211 
L 352.682951 158.425211 
z
" clip-path="url(#pd2d4f796c8)" style="fill: #1f77b4; fill-opacity: 0.5; stroke: #1f77b4; stroke-opacity: 0.5; stroke-linejoin: miter"/>
   </g>
   <g id="line2d_37">
    <path d="M 354.682951 177.254492 
L 352.682951 176.254492 
L 352.682951 178.254492 
z
" clip-path="url(#pd2d4f796c8)" style="fill: #1f77b4; fill-opacity: 0.5; stroke: #1f77b4; stroke-opacity: 0.5; stroke-linejoin: miter"/>
   </g>
   <g id="line2d_38">
    <path d="M 354.682951 92.110977 
L 352.682951 91.110977 
L 352.682951 93.110977 
z
" clip-path="url(#pd2d4f796c8)" style="fill: #1f77b4; fill-opacity: 0.5; stroke: #1f77b4; stroke-opacity: 0.5; stroke-linejoin: miter"/>
   </g>
   <g id="line2d_39">
    <path d="M 354.682951 216.65925 
L 352.682951 215.65925 
L 352.682951 217.65925 
z
" clip-path="url(#pd2d4f796c8)" style="fill: #1f77b4; fill-opacity: 0.5; stroke: #1f77b4; stroke-opacity: 0.5; stroke-linejoin: miter"/>
   </g>
   <g id="line2d_40">
    <path d="M 354.682951 209.477179 
L 352.682951 208.477179 
L 352.682951 210.477179 
z
" clip-path="url(#pd2d4f796c8)" style="fill: #1f77b4; fill-opacity: 0.5; stroke: #1f77b4; stroke-opacity: 0.5; stroke-linejoin: miter"/>
   </g>
   <g id="line2d_41">
    <path d="M 354.682951 226.262443 
L 352.682951 225.262443 
L 352.682951 227.262443 
z
" clip-path="url(#pd2d4f796c8)" style="fill: #1f77b4; fill-opacity: 0.5; stroke: #1f77b4; stroke-opacity: 0.5; stroke-linejoin: miter"/>
   </g>
   <g id="line2d_42">
    <path d="M 354.682951 314.867752 
L 352.682951 313.867752 
L 352.682951 315.867752 
z
" clip-path="url(#pd2d4f796c8)" style="fill: #1f77b4; fill-opacity: 0.5; stroke: #1f77b4; stroke-opacity: 0.5; stroke-linejoin: miter"/>
   </g>
   <g id="line2d_43">
    <path d="M 354.682951 291.068992 
L 352.682951 290.068992 
L 352.682951 292.068992 
z
" clip-path="url(#pd2d4f796c8)" style="fill: #1f77b4; fill-opacity: 0.5; stroke: #1f77b4; stroke-opacity: 0.5; stroke-linejoin: miter"/>
   </g>
   <g id="line2d_44">
    <path d="M 354.682951 289.653826 
L 352.682951 288.653826 
L 352.682951 290.653826 
z
" clip-path="url(#pd2d4f796c8)" style="fill: #1f77b4; fill-opacity: 0.5; stroke: #1f77b4; stroke-opacity: 0.5; stroke-linejoin: miter"/>
   </g>
   <g id="line2d_45">
    <path d="M 354.682951 273.895389 
L 352.682951 272.895389 
L 352.682951 274.895389 
z
" clip-path="url(#pd2d4f796c8)" style="fill: #1f77b4; fill-opacity: 0.5; stroke: #1f77b4; stroke-opacity: 0.5; stroke-linejoin: miter"/>
   </g>
   <g id="line2d_46">
    <path d="M 354.682951 309.399984 
L 352.682951 308.399984 
L 352.682951 310.399984 
z
" clip-path="url(#pd2d4f796c8)" style="fill: #1f77b4; fill-opacity: 0.5; stroke: #1f77b4; stroke-opacity: 0.5; stroke-linejoin: miter"/>
   </g>
   <g id="line2d_47">
    <path d="M 354.682951 203.255142 
L 352.682951 202.255142 
L 352.682951 204.255142 
z
" clip-path="url(#pd2d4f796c8)" style="fill: #1f77b4; fill-opacity: 0.5; stroke: #1f77b4; stroke-opacity: 0.5; stroke-linejoin: miter"/>
   </g>
   <g id="line2d_48">
    <path d="M 354.682951 310.703454 
L 352.682951 309.703454 
L 352.682951 311.703454 
z
" clip-path="url(#pd2d4f796c8)" style="fill: #1f77b4; fill-opacity: 0.5; stroke: #1f77b4; stroke-opacity: 0.5; stroke-linejoin: miter"/>
   </g>
   <g id="patch_5">
    <path d="M 43.78125 318.021875 
L 43.78125 22.318125 
" style="fill: none; stroke: #000000; stroke-width: 0.8; stroke-linejoin: miter; stroke-linecap: square"/>
   </g>
   <g id="text_10">
    <!-- defaults_asymmetric_migration_changing_rate.yaml -->
    <g transform="translate(164.675625 16.318125) scale(0.12 -0.12)">
     <defs>
      <path id="DejaVuSans-66" d="M 2375 4863 
L 2375 4384 
L 1825 4384 
Q 1516 4384 1395 4259 
Q 1275 4134 1275 3809 
L 1275 3500 
L 2222 3500 
L 2222 3053 
L 1275 3053 
L 1275 0 
L 697 0 
L 697 3053 
L 147 3053 
L 147 3500 
L 697 3500 
L 697 3744 
Q 697 4328 969 4595 
Q 1241 4863 1831 4863 
L 2375 4863 
z
" transform="scale(0.015625)"/>
      <path id="DejaVuSans-75" d="M 544 1381 
L 544 3500 
L 1119 3500 
L 1119 1403 
Q 1119 906 1312 657 
Q 1506 409 1894 409 
Q 2359 409 2629 706 
Q 2900 1003 2900 1516 
L 2900 3500 
L 3475 3500 
L 3475 0 
L 2900 0 
L 2900 538 
Q 2691 219 2414 64 
Q 2138 -91 1772 -91 
Q 1169 -91 856 284 
Q 544 659 544 1381 
z
M 1991 3584 
L 1991 3584 
z
" transform="scale(0.015625)"/>
      <path id="DejaVuSans-6c" d="M 603 4863 
L 1178 4863 
L 1178 0 
L 603 0 
L 603 4863 
z
" transform="scale(0.015625)"/>
      <path id="DejaVuSans-5f" d="M 3263 -1063 
L 3263 -1509 
L -63 -1509 
L -63 -1063 
L 3263 -1063 
z
" transform="scale(0.015625)"/>
      <path id="DejaVuSans-79" d="M 2059 -325 
Q 1816 -950 1584 -1140 
Q 1353 -1331 966 -1331 
L 506 -1331 
L 506 -850 
L 844 -850 
Q 1081 -850 1212 -737 
Q 1344 -625 1503 -206 
L 1606 56 
L 191 3500 
L 800 3500 
L 1894 763 
L 2988 3500 
L 3597 3500 
L 2059 -325 
z
" transform="scale(0.015625)"/>
      <path id="DejaVuSans-63" d="M 3122 3366 
L 3122 2828 
Q 2878 2963 2633 3030 
Q 2388 3097 2138 3097 
Q 1578 3097 1268 2742 
Q 959 2388 959 1747 
Q 959 1106 1268 751 
Q 1578 397 2138 397 
Q 2388 397 2633 464 
Q 2878 531 3122 666 
L 3122 134 
Q 2881 22 2623 -34 
Q 2366 -91 2075 -91 
Q 1284 -91 818 406 
Q 353 903 353 1747 
Q 353 2603 823 3093 
Q 1294 3584 2113 3584 
Q 2378 3584 2631 3529 
Q 2884 3475 3122 3366 
z
" transform="scale(0.015625)"/>
      <path id="DejaVuSans-68" d="M 3513 2113 
L 3513 0 
L 2938 0 
L 2938 2094 
Q 2938 2591 2744 2837 
Q 2550 3084 2163 3084 
Q 1697 3084 1428 2787 
Q 1159 2491 1159 1978 
L 1159 0 
L 581 0 
L 581 4863 
L 1159 4863 
L 1159 2956 
Q 1366 3272 1645 3428 
Q 1925 3584 2291 3584 
Q 2894 3584 3203 3211 
Q 3513 2838 3513 2113 
z
" transform="scale(0.015625)"/>
     </defs>
     <use xlink:href="#DejaVuSans-64"/>
     <use xlink:href="#DejaVuSans-65" transform="translate(63.476562 0)"/>
     <use xlink:href="#DejaVuSans-66" transform="translate(125 0)"/>
     <use xlink:href="#DejaVuSans-61" transform="translate(160.205078 0)"/>
     <use xlink:href="#DejaVuSans-75" transform="translate(221.484375 0)"/>
     <use xlink:href="#DejaVuSans-6c" transform="translate(284.863281 0)"/>
     <use xlink:href="#DejaVuSans-74" transform="translate(312.646484 0)"/>
     <use xlink:href="#DejaVuSans-73" transform="translate(351.855469 0)"/>
     <use xlink:href="#DejaVuSans-5f" transform="translate(403.955078 0)"/>
     <use xlink:href="#DejaVuSans-61" transform="translate(453.955078 0)"/>
     <use xlink:href="#DejaVuSans-73" transform="translate(515.234375 0)"/>
     <use xlink:href="#DejaVuSans-79" transform="translate(567.333984 0)"/>
     <use xlink:href="#DejaVuSans-6d" transform="translate(626.513672 0)"/>
     <use xlink:href="#DejaVuSans-6d" transform="translate(723.925781 0)"/>
     <use xlink:href="#DejaVuSans-65" transform="translate(821.337891 0)"/>
     <use xlink:href="#DejaVuSans-74" transform="translate(882.861328 0)"/>
     <use xlink:href="#DejaVuSans-72" transform="translate(922.070312 0)"/>
     <use xlink:href="#DejaVuSans-69" transform="translate(963.183594 0)"/>
     <use xlink:href="#DejaVuSans-63" transform="translate(990.966797 0)"/>
     <use xlink:href="#DejaVuSans-5f" transform="translate(1045.947266 0)"/>
     <use xlink:href="#DejaVuSans-6d" transform="translate(1095.947266 0)"/>
     <use xlink:href="#DejaVuSans-69" transform="translate(1193.359375 0)"/>
     <use xlink:href="#DejaVuSans-67" transform="translate(1221.142578 0)"/>
     <use xlink:href="#DejaVuSans-72" transform="translate(1284.619141 0)"/>
     <use xlink:href="#DejaVuSans-61" transform="translate(1325.732422 0)"/>
     <use xlink:href="#DejaVuSans-74" transform="translate(1387.011719 0)"/>
     <use xlink:href="#DejaVuSans-69" transform="translate(1426.220703 0)"/>
     <use xlink:href="#DejaVuSans-6f" transform="translate(1454.003906 0)"/>
     <use xlink:href="#DejaVuSans-6e" transform="translate(1515.185547 0)"/>
     <use xlink:href="#DejaVuSans-5f" transform="translate(1578.564453 0)"/>
     <use xlink:href="#DejaVuSans-63" transform="translate(1628.564453 0)"/>
     <use xlink:href="#DejaVuSans-68" transform="translate(1683.544922 0)"/>
     <use xlink:href="#DejaVuSans-61" transform="translate(1746.923828 0)"/>
     <use xlink:href="#DejaVuSans-6e" transform="translate(1808.203125 0)"/>
     <use xlink:href="#DejaVuSans-67" transform="translate(1871.582031 0)"/>
     <use xlink:href="#DejaVuSans-69" transform="translate(1935.058594 0)"/>
     <use xlink:href="#DejaVuSans-6e" transform="translate(1962.841797 0)"/>
     <use xlink:href="#DejaVuSans-67" transform="translate(2026.220703 0)"/>
     <use xlink:href="#DejaVuSans-5f" transform="translate(2089.697266 0)"/>
     <use xlink:href="#DejaVuSans-72" transform="translate(2139.697266 0)"/>
     <use xlink:href="#DejaVuSans-61" transform="translate(2180.810547 0)"/>
     <use xlink:href="#DejaVuSans-74" transform="translate(2242.089844 0)"/>
     <use xlink:href="#DejaVuSans-65" transform="translate(2281.298828 0)"/>
     <use xlink:href="#DejaVuSans-2e" transform="translate(2342.822266 0)"/>
     <use xlink:href="#DejaVuSans-79" transform="translate(2374.609375 0)"/>
     <use xlink:href="#DejaVuSans-61" transform="translate(2433.789062 0)"/>
     <use xlink:href="#DejaVuSans-6d" transform="translate(2495.068359 0)"/>
     <use xlink:href="#DejaVuSans-6c" transform="translate(2592.480469 0)"/>
    </g>
   </g>
  </g>
 </g>
 <defs>
  <clipPath id="pd2d4f796c8">
   <rect x="43.78125" y="22.318125" width="556.21875" height="295.70375"/>
  </clipPath>
 </defs>
</svg>