<?xml version="1.0" encoding="utf-8" standalone="no"?>
<!DOCTYPE svg PUBLIC "-//W3C//DTD SVG 1.1//EN"
  "http://www.w3.org/Graphics/SVG/1.1/DTD/svg11.dtd">
<svg xmlns:xlink="http://www.w3.org/1999/xlink" width="607.2pt" height="338.4pt" viewBox="0 0 607.2 338.4" xmlns="http://www.w3.org/2000/svg" version="1.1">
 <metadata>
  <rdf:RDF xmlns:dc="http://purl.org/dc/elements/1.1/" xmlns:cc="http://creativecommons.org/ns#" xmlns:rdf="http://www.w3.org/1999/02/22-rdf-syntax-ns#">
   <cc:Work>
    <dc:type rdf:resource="http://purl.org/dc/dcmitype/StillImage"/>
    <dc:date>2023-05-15T09:11:40.435950</dc:date>
    <dc:format>image/svg+xml</dc:format>
    <dc:creator>
     <cc:Agent>
      <dc:title>Matplotlib v3.7.1, https://matplotlib.org/</dc:title>
     </cc:Agent>
    </dc:creator>
   </cc:Work>
  </rdf:RDF>
 </metadata>
 <defs>
  <style type="text/css">*{stroke-linejoin: round; stroke-linecap: butt}</style>
 </defs>
 <g id="figure_1">
  <g id="patch_1">
   <path d="M 0 338.4 
L 607.2 338.4 
L 607.2 0 
L 0 0 
z
" style="fill: #ffffff"/>
  </g>
  <g id="axes_1">
   <g id="patch_2">
    <path d="M 46.965625 318.021875 
L 600 318.021875 
L 600 7.2 
L 46.965625 7.2 
z
" style="fill: #ffffff"/>
   </g>
   <path d="M 200.299443 34.408111 
L 201.299443 34.439548 
L 202.299443 34.476488 
L 203.299443 34.574235 
L 204.299443 34.606756 
L 205.299443 34.680381 
L 206.299443 34.718946 
L 207.299443 34.75436 
L 208.299443 34.812 
L 209.299443 34.882386 
L 210.299443 34.93435 
L 211.299443 34.99344 
L 212.299443 35.081761 
L 213.299443 35.127905 
L 214.299443 35.170316 
L 215.299443 35.200809 
L 216.299443 35.226854 
L 217.299443 35.248054 
L 218.299443 35.302355 
L 219.299443 35.330292 
L 220.299443 35.360016 
L 221.299443 35.385411 
L 222.299443 35.396611 
L 223.299443 35.406735 
L 224.299443 35.406531 
L 225.299443 35.397021 
L 226.299443 35.385368 
L 227.299443 35.354338 
L 228.299443 35.34317 
L 229.299443 35.313053 
L 230.299443 35.253276 
L 231.299443 35.216084 
L 232.299443 35.176988 
L 233.299443 35.134549 
L 234.299443 35.101784 
L 235.299443 35.034357 
L 236.299443 34.995231 
L 237.299443 34.952557 
L 238.299443 34.881976 
L 239.299443 34.845585 
L 240.299443 34.787182 
L 241.299443 34.676229 
L 242.299443 34.605571 
L 243.299443 34.492631 
L 244.299443 34.446858 
L 245.299443 34.385575 
L 246.299443 34.337076 
L 247.299443 34.256253 
L 248.299443 34.137734 
L 249.299443 34.067524 
L 250.299443 33.984261 
L 251.299443 33.951119 
L 252.299443 33.899882 
L 253.299443 33.831484 
L 254.299443 33.765268 
L 255.299443 33.688351 
L 256.619695 33.661036 
" clip-path="url(#p7b61411dc4)" style="fill: none; stroke: #1f77b4; stroke-opacity: 0.5; stroke-width: 0.2; stroke-linecap: square"/>
   <path d="M 200.299443 29.03847 
L 201.299443 29.069906 
L 202.299443 29.106846 
L 203.299443 29.204593 
L 204.299443 29.237114 
L 205.299443 29.310739 
L 206.299443 29.349305 
L 207.299443 29.384718 
L 208.299443 29.442358 
L 209.299443 29.512744 
L 210.299443 29.564708 
L 211.299443 29.623798 
L 212.299443 29.712119 
L 213.299443 29.758263 
L 214.299443 29.800674 
L 215.299443 29.831167 
L 216.299443 29.857212 
L 217.299443 29.878412 
L 218.299443 29.932713 
L 219.299443 29.960651 
L 220.299443 29.990375 
L 221.299443 30.015769 
L 222.299443 30.02697 
L 223.299443 30.037094 
L 224.299443 30.036889 
L 225.299443 30.027379 
L 226.299443 30.015726 
L 227.299443 29.984697 
L 228.299443 29.973529 
L 229.299443 29.943411 
L 230.299443 29.883634 
L 231.299443 29.846443 
L 232.299443 29.807347 
L 233.299443 29.764907 
L 234.299443 29.732142 
L 235.299443 29.664715 
L 236.299443 29.625589 
L 237.299443 29.582915 
L 238.299443 29.512334 
L 239.299443 29.475943 
L 240.299443 29.41754 
L 241.299443 29.306588 
L 242.299443 29.235929 
L 243.299443 29.12299 
L 244.299443 29.077217 
L 245.299443 29.015933 
L 246.299443 28.967434 
L 247.299443 28.886611 
L 248.299443 28.768093 
L 249.299443 28.697882 
L 250.299443 28.614619 
L 251.299443 28.581478 
L 252.299443 28.53024 
L 253.299443 28.461842 
L 254.299443 28.395627 
L 255.299443 28.31871 
L 256.619695 28.291394 
" clip-path="url(#p7b61411dc4)" style="fill: none; stroke: #1f77b4; stroke-opacity: 0.5; stroke-width: 0.2; stroke-linecap: square"/>
   <path d="M 200.299443 275.499389 
L 201.299443 275.530826 
L 202.299443 275.567766 
L 203.299443 275.665513 
L 204.299443 275.698034 
L 205.299443 275.771659 
L 206.299443 275.810224 
L 207.299443 275.845638 
L 208.299443 275.903278 
L 209.299443 275.973664 
L 210.299443 276.025628 
L 211.299443 276.084718 
L 212.299443 276.173039 
L 213.299443 276.219183 
L 214.299443 276.261594 
L 215.299443 276.292087 
L 216.299443 276.318132 
L 217.299443 276.339332 
L 218.299443 276.393633 
L 219.299443 276.42157 
L 220.299443 276.451294 
L 221.299443 276.476689 
L 222.299443 276.48789 
L 223.299443 276.498013 
L 224.299443 276.497809 
L 225.299443 276.488299 
L 226.299443 276.476646 
L 227.299443 276.445616 
L 228.299443 276.434449 
L 229.299443 276.404331 
L 230.299443 276.344554 
L 231.299443 276.307363 
L 232.299443 276.268266 
L 233.299443 276.225827 
L 234.299443 276.193062 
L 235.299443 276.125635 
L 236.299443 276.086509 
L 237.299443 276.043835 
L 238.299443 275.973254 
L 239.299443 275.936863 
L 240.299443 275.87846 
L 241.299443 275.767508 
L 242.299443 275.696849 
L 243.299443 275.583909 
L 244.299443 275.538137 
L 245.299443 275.476853 
L 246.299443 275.428354 
L 247.299443 275.347531 
L 248.299443 275.229012 
L 249.299443 275.158802 
L 250.299443 275.075539 
L 251.299443 275.042397 
L 252.299443 274.99116 
L 253.299443 274.922762 
L 254.299443 274.856546 
L 255.299443 274.779629 
L 256.619695 274.752314 
" clip-path="url(#p7b61411dc4)" style="fill: none; stroke: #1f77b4; stroke-opacity: 0.5; stroke-width: 0.2; stroke-linecap: square"/>
   <path d="M 200.299443 261.242112 
L 201.299443 261.273549 
L 202.299443 261.310489 
L 203.299443 261.408236 
L 204.299443 261.440757 
L 205.299443 261.514382 
L 206.299443 261.552948 
L 207.299443 261.588361 
L 208.299443 261.646001 
L 209.299443 261.716387 
L 210.299443 261.768351 
L 211.299443 261.827441 
L 212.299443 261.915762 
L 213.299443 261.961906 
L 214.299443 262.004317 
L 215.299443 262.03481 
L 216.299443 262.060855 
L 217.299443 262.082055 
L 218.299443 262.136356 
L 219.299443 262.164293 
L 220.299443 262.194017 
L 221.299443 262.219412 
L 222.299443 262.230613 
L 223.299443 262.240737 
L 224.299443 262.240532 
L 225.299443 262.231022 
L 226.299443 262.219369 
L 227.299443 262.18834 
L 228.299443 262.177172 
L 229.299443 262.147054 
L 230.299443 262.087277 
L 231.299443 262.050086 
L 232.299443 262.01099 
L 233.299443 261.96855 
L 234.299443 261.935785 
L 235.299443 261.868358 
L 236.299443 261.829232 
L 237.299443 261.786558 
L 238.299443 261.715977 
L 239.299443 261.679586 
L 240.299443 261.621183 
L 241.299443 261.510231 
L 242.299443 261.439572 
L 243.299443 261.326633 
L 244.299443 261.28086 
L 245.299443 261.219576 
L 246.299443 261.171077 
L 247.299443 261.090254 
L 248.299443 260.971735 
L 249.299443 260.901525 
L 250.299443 260.818262 
L 251.299443 260.785121 
L 252.299443 260.733883 
L 253.299443 260.665485 
L 254.299443 260.599269 
L 255.299443 260.522352 
L 256.619695 260.495037 
" clip-path="url(#p7b61411dc4)" style="fill: none; stroke: #1f77b4; stroke-opacity: 0.5; stroke-width: 0.2; stroke-linecap: square"/>
   <path d="M 200.299443 146.231171 
L 201.299443 146.262607 
L 202.299443 146.299548 
L 203.299443 146.397294 
L 204.299443 146.429816 
L 205.299443 146.503441 
L 206.299443 146.542006 
L 207.299443 146.577419 
L 208.299443 146.635059 
L 209.299443 146.705445 
L 210.299443 146.75741 
L 211.299443 146.816499 
L 212.299443 146.90482 
L 213.299443 146.950965 
L 214.299443 146.993376 
L 215.299443 147.023868 
L 216.299443 147.049913 
L 217.299443 147.071113 
L 218.299443 147.125414 
L 219.299443 147.153352 
L 220.299443 147.183076 
L 221.299443 147.208471 
L 222.299443 147.219671 
L 223.299443 147.229795 
L 224.299443 147.229591 
L 225.299443 147.220081 
L 226.299443 147.208427 
L 227.299443 147.177398 
L 228.299443 147.16623 
L 229.299443 147.136113 
L 230.299443 147.076336 
L 231.299443 147.039144 
L 232.299443 147.000048 
L 233.299443 146.957608 
L 234.299443 146.924843 
L 235.299443 146.857417 
L 236.299443 146.818291 
L 237.299443 146.775616 
L 238.299443 146.705036 
L 239.299443 146.668645 
L 240.299443 146.610242 
L 241.299443 146.499289 
L 242.299443 146.428631 
L 243.299443 146.315691 
L 244.299443 146.269918 
L 245.299443 146.208635 
L 246.299443 146.160136 
L 247.299443 146.079313 
L 248.299443 145.960794 
L 249.299443 145.890583 
L 250.299443 145.807321 
L 251.299443 145.774179 
L 252.299443 145.722942 
L 253.299443 145.654543 
L 254.299443 145.588328 
L 255.299443 145.511411 
L 256.619695 145.484095 
" clip-path="url(#p7b61411dc4)" style="fill: none; stroke: #1f77b4; stroke-opacity: 0.5; stroke-width: 0.2; stroke-linecap: square"/>
   <path d="M 200.299443 188.002064 
L 201.299443 188.033501 
L 202.299443 188.070441 
L 203.299443 188.168188 
L 204.299443 188.200709 
L 205.299443 188.274334 
L 206.299443 188.312899 
L 207.299443 188.348313 
L 208.299443 188.405953 
L 209.299443 188.476339 
L 210.299443 188.528303 
L 211.299443 188.587393 
L 212.299443 188.675714 
L 213.299443 188.721858 
L 214.299443 188.764269 
L 215.299443 188.794762 
L 216.299443 188.820807 
L 217.299443 188.842007 
L 218.299443 188.896308 
L 219.299443 188.924245 
L 220.299443 188.953969 
L 221.299443 188.979364 
L 222.299443 188.990564 
L 223.299443 189.000688 
L 224.299443 189.000484 
L 225.299443 188.990974 
L 226.299443 188.979321 
L 227.299443 188.948291 
L 228.299443 188.937123 
L 229.299443 188.907006 
L 230.299443 188.847229 
L 231.299443 188.810037 
L 232.299443 188.770941 
L 233.299443 188.728502 
L 234.299443 188.695737 
L 235.299443 188.62831 
L 236.299443 188.589184 
L 237.299443 188.54651 
L 238.299443 188.475929 
L 239.299443 188.439538 
L 240.299443 188.381135 
L 241.299443 188.270182 
L 242.299443 188.199524 
L 243.299443 188.086584 
L 244.299443 188.040811 
L 245.299443 187.979528 
L 246.299443 187.931029 
L 247.299443 187.850206 
L 248.299443 187.731687 
L 249.299443 187.661477 
L 250.299443 187.578214 
L 251.299443 187.545072 
L 252.299443 187.493835 
L 253.299443 187.425437 
L 254.299443 187.359221 
L 255.299443 187.282304 
L 256.619695 187.254989 
" clip-path="url(#p7b61411dc4)" style="fill: none; stroke: #1f77b4; stroke-opacity: 0.5; stroke-width: 0.2; stroke-linecap: square"/>
   <path d="M 200.299443 228.222959 
L 201.299443 228.254396 
L 202.299443 228.291336 
L 203.299443 228.389083 
L 204.299443 228.421604 
L 205.299443 228.495229 
L 206.299443 228.533794 
L 207.299443 228.569208 
L 208.299443 228.626847 
L 209.299443 228.697234 
L 210.299443 228.749198 
L 211.299443 228.808288 
L 212.299443 228.896609 
L 213.299443 228.942753 
L 214.299443 228.985164 
L 215.299443 229.015657 
L 216.299443 229.041701 
L 217.299443 229.062902 
L 218.299443 229.117203 
L 219.299443 229.14514 
L 220.299443 229.174864 
L 221.299443 229.200259 
L 222.299443 229.211459 
L 223.299443 229.221583 
L 224.299443 229.221379 
L 225.299443 229.211869 
L 226.299443 229.200216 
L 227.299443 229.169186 
L 228.299443 229.158018 
L 229.299443 229.127901 
L 230.299443 229.068124 
L 231.299443 229.030932 
L 232.299443 228.991836 
L 233.299443 228.949397 
L 234.299443 228.916632 
L 235.299443 228.849205 
L 236.299443 228.810079 
L 237.299443 228.767405 
L 238.299443 228.696824 
L 239.299443 228.660433 
L 240.299443 228.60203 
L 241.299443 228.491077 
L 242.299443 228.420419 
L 243.299443 228.307479 
L 244.299443 228.261706 
L 245.299443 228.200423 
L 246.299443 228.151924 
L 247.299443 228.071101 
L 248.299443 227.952582 
L 249.299443 227.882372 
L 250.299443 227.799109 
L 251.299443 227.765967 
L 252.299443 227.71473 
L 253.299443 227.646332 
L 254.299443 227.580116 
L 255.299443 227.503199 
L 256.619695 227.475884 
" clip-path="url(#p7b61411dc4)" style="fill: none; stroke: #1f77b4; stroke-opacity: 0.5; stroke-width: 0.2; stroke-linecap: square"/>
   <path d="M 200.299443 152.770727 
L 201.299443 152.802164 
L 202.299443 152.839104 
L 203.299443 152.936851 
L 204.299443 152.969372 
L 205.299443 153.042997 
L 206.299443 153.081563 
L 207.299443 153.116976 
L 208.299443 153.174616 
L 209.299443 153.245002 
L 210.299443 153.296966 
L 211.299443 153.356056 
L 212.299443 153.444377 
L 213.299443 153.490521 
L 214.299443 153.532932 
L 215.299443 153.563425 
L 216.299443 153.58947 
L 217.299443 153.61067 
L 218.299443 153.664971 
L 219.299443 153.692908 
L 220.299443 153.722632 
L 221.299443 153.748027 
L 222.299443 153.759228 
L 223.299443 153.769352 
L 224.299443 153.769147 
L 225.299443 153.759637 
L 226.299443 153.747984 
L 227.299443 153.716955 
L 228.299443 153.705787 
L 229.299443 153.675669 
L 230.299443 153.615892 
L 231.299443 153.578701 
L 232.299443 153.539605 
L 233.299443 153.497165 
L 234.299443 153.4644 
L 235.299443 153.396973 
L 236.299443 153.357847 
L 237.299443 153.315173 
L 238.299443 153.244592 
L 239.299443 153.208201 
L 240.299443 153.149798 
L 241.299443 153.038846 
L 242.299443 152.968187 
L 243.299443 152.855248 
L 244.299443 152.809475 
L 245.299443 152.748191 
L 246.299443 152.699692 
L 247.299443 152.618869 
L 248.299443 152.50035 
L 249.299443 152.43014 
L 250.299443 152.346877 
L 251.299443 152.313736 
L 252.299443 152.262498 
L 253.299443 152.1941 
L 254.299443 152.127884 
L 255.299443 152.050967 
L 256.619695 152.023652 
" clip-path="url(#p7b61411dc4)" style="fill: none; stroke: #1f77b4; stroke-opacity: 0.5; stroke-width: 0.2; stroke-linecap: square"/>
   <path d="M 200.299443 293.208776 
L 201.299443 293.240212 
L 202.299443 293.277153 
L 203.299443 293.374899 
L 204.299443 293.407421 
L 205.299443 293.481045 
L 206.299443 293.519611 
L 207.299443 293.555024 
L 208.299443 293.612664 
L 209.299443 293.68305 
L 210.299443 293.735014 
L 211.299443 293.794104 
L 212.299443 293.882425 
L 213.299443 293.928569 
L 214.299443 293.97098 
L 215.299443 294.001473 
L 216.299443 294.027518 
L 217.299443 294.048718 
L 218.299443 294.103019 
L 219.299443 294.130957 
L 220.299443 294.160681 
L 221.299443 294.186076 
L 222.299443 294.197276 
L 223.299443 294.2074 
L 224.299443 294.207196 
L 225.299443 294.197686 
L 226.299443 294.186032 
L 227.299443 294.155003 
L 228.299443 294.143835 
L 229.299443 294.113717 
L 230.299443 294.053941 
L 231.299443 294.016749 
L 232.299443 293.977653 
L 233.299443 293.935213 
L 234.299443 293.902448 
L 235.299443 293.835022 
L 236.299443 293.795896 
L 237.299443 293.753221 
L 238.299443 293.682641 
L 239.299443 293.64625 
L 240.299443 293.587847 
L 241.299443 293.476894 
L 242.299443 293.406236 
L 243.299443 293.293296 
L 244.299443 293.247523 
L 245.299443 293.18624 
L 246.299443 293.13774 
L 247.299443 293.056918 
L 248.299443 292.938399 
L 249.299443 292.868188 
L 250.299443 292.784926 
L 251.299443 292.751784 
L 252.299443 292.700547 
L 253.299443 292.632148 
L 254.299443 292.565933 
L 255.299443 292.489016 
L 256.619695 292.4617 
" clip-path="url(#p7b61411dc4)" style="fill: none; stroke: #1f77b4; stroke-opacity: 0.5; stroke-width: 0.2; stroke-linecap: square"/>
   <path d="M 200.299443 258.339083 
L 201.299443 258.370519 
L 202.299443 258.407459 
L 203.299443 258.505206 
L 204.299443 258.537727 
L 205.299443 258.611352 
L 206.299443 258.649918 
L 207.299443 258.685331 
L 208.299443 258.742971 
L 209.299443 258.813357 
L 210.299443 258.865321 
L 211.299443 258.924411 
L 212.299443 259.012732 
L 213.299443 259.058876 
L 214.299443 259.101287 
L 215.299443 259.13178 
L 216.299443 259.157825 
L 217.299443 259.179025 
L 218.299443 259.233326 
L 219.299443 259.261264 
L 220.299443 259.290988 
L 221.299443 259.316382 
L 222.299443 259.327583 
L 223.299443 259.337707 
L 224.299443 259.337502 
L 225.299443 259.327992 
L 226.299443 259.316339 
L 227.299443 259.28531 
L 228.299443 259.274142 
L 229.299443 259.244024 
L 230.299443 259.184247 
L 231.299443 259.147056 
L 232.299443 259.10796 
L 233.299443 259.06552 
L 234.299443 259.032755 
L 235.299443 258.965328 
L 236.299443 258.926202 
L 237.299443 258.883528 
L 238.299443 258.812947 
L 239.299443 258.776556 
L 240.299443 258.718153 
L 241.299443 258.607201 
L 242.299443 258.536542 
L 243.299443 258.423603 
L 244.299443 258.37783 
L 245.299443 258.316546 
L 246.299443 258.268047 
L 247.299443 258.187224 
L 248.299443 258.068706 
L 249.299443 257.998495 
L 250.299443 257.915232 
L 251.299443 257.882091 
L 252.299443 257.830853 
L 253.299443 257.762455 
L 254.299443 257.69624 
L 255.299443 257.619322 
L 256.619695 257.592007 
" clip-path="url(#p7b61411dc4)" style="fill: none; stroke: #1f77b4; stroke-opacity: 0.5; stroke-width: 0.2; stroke-linecap: square"/>
   <path d="M 256.619695 24.689059 
L 255.619695 24.657622 
L 254.619695 24.620682 
L 253.619695 24.522935 
L 252.619695 24.490414 
L 251.619695 24.416789 
L 250.619695 24.378223 
L 249.619695 24.34281 
L 248.619695 24.28517 
L 247.619695 24.214784 
L 246.619695 24.16282 
L 245.619695 24.10373 
L 244.619695 24.015409 
L 243.619695 23.969265 
L 242.619695 23.926854 
L 241.619695 23.896361 
L 240.619695 23.870316 
L 239.619695 23.849116 
L 238.619695 23.794815 
L 237.619695 23.766878 
L 236.619695 23.737154 
L 235.619695 23.711759 
L 234.619695 23.700558 
L 233.619695 23.690434 
L 232.619695 23.690639 
L 231.619695 23.700149 
L 230.619695 23.711802 
L 229.619695 23.742832 
L 228.619695 23.753999 
L 227.619695 23.784117 
L 226.619695 23.843894 
L 225.619695 23.881085 
L 224.619695 23.920182 
L 223.619695 23.962621 
L 222.619695 23.995386 
L 221.619695 24.062813 
L 220.619695 24.101939 
L 219.619695 24.144613 
L 218.619695 24.215194 
L 217.619695 24.251585 
L 216.619695 24.309988 
L 215.619695 24.42094 
L 214.619695 24.491599 
L 213.619695 24.604539 
L 212.619695 24.650311 
L 211.619695 24.711595 
L 210.619695 24.760094 
L 209.619695 24.840917 
L 208.619695 24.959436 
L 207.619695 25.029646 
L 206.619695 25.112909 
L 205.619695 25.14605 
L 204.619695 25.197288 
L 203.619695 25.265686 
L 202.619695 25.331902 
L 201.619695 25.408819 
L 200.299443 25.436134 
" clip-path="url(#p7b61411dc4)" style="fill: none; stroke: #ff7f0e; stroke-opacity: 0.5; stroke-width: 0.2; stroke-linecap: square"/>
   <path d="M 256.619695 209.919961 
L 255.619695 209.888525 
L 254.619695 209.851585 
L 253.619695 209.753838 
L 252.619695 209.721316 
L 251.619695 209.647692 
L 250.619695 209.609126 
L 249.619695 209.573713 
L 248.619695 209.516073 
L 247.619695 209.445687 
L 246.619695 209.393723 
L 245.619695 209.334633 
L 244.619695 209.246312 
L 243.619695 209.200168 
L 242.619695 209.157757 
L 241.619695 209.127264 
L 240.619695 209.101219 
L 239.619695 209.080019 
L 238.619695 209.025718 
L 237.619695 208.99778 
L 236.619695 208.968056 
L 235.619695 208.942662 
L 234.619695 208.931461 
L 233.619695 208.921337 
L 232.619695 208.921541 
L 231.619695 208.931051 
L 230.619695 208.942705 
L 229.619695 208.973734 
L 228.619695 208.984902 
L 227.619695 209.01502 
L 226.619695 209.074797 
L 225.619695 209.111988 
L 224.619695 209.151084 
L 223.619695 209.193524 
L 222.619695 209.226289 
L 221.619695 209.293715 
L 220.619695 209.332841 
L 219.619695 209.375516 
L 218.619695 209.446096 
L 217.619695 209.482487 
L 216.619695 209.540891 
L 215.619695 209.651843 
L 214.619695 209.722501 
L 213.619695 209.835441 
L 212.619695 209.881214 
L 211.619695 209.942497 
L 210.619695 209.990997 
L 209.619695 210.071819 
L 208.619695 210.190338 
L 207.619695 210.260549 
L 206.619695 210.343811 
L 205.619695 210.376953 
L 204.619695 210.42819 
L 203.619695 210.496589 
L 202.619695 210.562804 
L 201.619695 210.639721 
L 200.299443 210.667037 
" clip-path="url(#p7b61411dc4)" style="fill: none; stroke: #ff7f0e; stroke-opacity: 0.5; stroke-width: 0.2; stroke-linecap: square"/>
   <path d="M 256.619695 155.102878 
L 255.619695 155.071442 
L 254.619695 155.034501 
L 253.619695 154.936755 
L 252.619695 154.904233 
L 251.619695 154.830608 
L 250.619695 154.792043 
L 249.619695 154.75663 
L 248.619695 154.69899 
L 247.619695 154.628604 
L 246.619695 154.576639 
L 245.619695 154.51755 
L 244.619695 154.429229 
L 243.619695 154.383084 
L 242.619695 154.340673 
L 241.619695 154.310181 
L 240.619695 154.284136 
L 239.619695 154.262936 
L 238.619695 154.208635 
L 237.619695 154.180697 
L 236.619695 154.150973 
L 235.619695 154.125578 
L 234.619695 154.114378 
L 233.619695 154.104254 
L 232.619695 154.104458 
L 231.619695 154.113968 
L 230.619695 154.125622 
L 229.619695 154.156651 
L 228.619695 154.167819 
L 227.619695 154.197936 
L 226.619695 154.257713 
L 225.619695 154.294905 
L 224.619695 154.334001 
L 223.619695 154.376441 
L 222.619695 154.409206 
L 221.619695 154.476632 
L 220.619695 154.515758 
L 219.619695 154.558433 
L 218.619695 154.629013 
L 217.619695 154.665404 
L 216.619695 154.723807 
L 215.619695 154.83476 
L 214.619695 154.905418 
L 213.619695 155.018358 
L 212.619695 155.064131 
L 211.619695 155.125414 
L 210.619695 155.173913 
L 209.619695 155.254736 
L 208.619695 155.373255 
L 207.619695 155.443466 
L 206.619695 155.526728 
L 205.619695 155.55987 
L 204.619695 155.611107 
L 203.619695 155.679506 
L 202.619695 155.745721 
L 201.619695 155.822638 
L 200.299443 155.849953 
" clip-path="url(#p7b61411dc4)" style="fill: none; stroke: #ff7f0e; stroke-opacity: 0.5; stroke-width: 0.2; stroke-linecap: square"/>
   <path d="M 256.619695 283.017747 
L 255.619695 282.98631 
L 254.619695 282.94937 
L 253.619695 282.851623 
L 252.619695 282.819102 
L 251.619695 282.745477 
L 250.619695 282.706911 
L 249.619695 282.671498 
L 248.619695 282.613858 
L 247.619695 282.543472 
L 246.619695 282.491508 
L 245.619695 282.432418 
L 244.619695 282.344097 
L 243.619695 282.297953 
L 242.619695 282.255542 
L 241.619695 282.225049 
L 240.619695 282.199004 
L 239.619695 282.177804 
L 238.619695 282.123503 
L 237.619695 282.095566 
L 236.619695 282.065842 
L 235.619695 282.040447 
L 234.619695 282.029246 
L 233.619695 282.019122 
L 232.619695 282.019327 
L 231.619695 282.028837 
L 230.619695 282.04049 
L 229.619695 282.07152 
L 228.619695 282.082687 
L 227.619695 282.112805 
L 226.619695 282.172582 
L 225.619695 282.209773 
L 224.619695 282.24887 
L 223.619695 282.291309 
L 222.619695 282.324074 
L 221.619695 282.391501 
L 220.619695 282.430627 
L 219.619695 282.473301 
L 218.619695 282.543882 
L 217.619695 282.580273 
L 216.619695 282.638676 
L 215.619695 282.749628 
L 214.619695 282.820287 
L 213.619695 282.933227 
L 212.619695 282.978999 
L 211.619695 283.040283 
L 210.619695 283.088782 
L 209.619695 283.169605 
L 208.619695 283.288124 
L 207.619695 283.358334 
L 206.619695 283.441597 
L 205.619695 283.474738 
L 204.619695 283.525976 
L 203.619695 283.594374 
L 202.619695 283.66059 
L 201.619695 283.737507 
L 200.299443 283.764822 
" clip-path="url(#p7b61411dc4)" style="fill: none; stroke: #ff7f0e; stroke-opacity: 0.5; stroke-width: 0.2; stroke-linecap: square"/>
   <path d="M 256.619695 54.275951 
L 255.619695 54.244514 
L 254.619695 54.207574 
L 253.619695 54.109827 
L 252.619695 54.077306 
L 251.619695 54.003681 
L 250.619695 53.965115 
L 249.619695 53.929702 
L 248.619695 53.872062 
L 247.619695 53.801676 
L 246.619695 53.749712 
L 245.619695 53.690622 
L 244.619695 53.602301 
L 243.619695 53.556157 
L 242.619695 53.513746 
L 241.619695 53.483253 
L 240.619695 53.457208 
L 239.619695 53.436008 
L 238.619695 53.381707 
L 237.619695 53.35377 
L 236.619695 53.324046 
L 235.619695 53.298651 
L 234.619695 53.28745 
L 233.619695 53.277326 
L 232.619695 53.277531 
L 231.619695 53.287041 
L 230.619695 53.298694 
L 229.619695 53.329723 
L 228.619695 53.340891 
L 227.619695 53.371009 
L 226.619695 53.430786 
L 225.619695 53.467977 
L 224.619695 53.507073 
L 223.619695 53.549513 
L 222.619695 53.582278 
L 221.619695 53.649705 
L 220.619695 53.688831 
L 219.619695 53.731505 
L 218.619695 53.802086 
L 217.619695 53.838477 
L 216.619695 53.89688 
L 215.619695 54.007832 
L 214.619695 54.078491 
L 213.619695 54.19143 
L 212.619695 54.237203 
L 211.619695 54.298487 
L 210.619695 54.346986 
L 209.619695 54.427809 
L 208.619695 54.546328 
L 207.619695 54.616538 
L 206.619695 54.699801 
L 205.619695 54.732942 
L 204.619695 54.78418 
L 203.619695 54.852578 
L 202.619695 54.918794 
L 201.619695 54.995711 
L 200.299443 55.023026 
" clip-path="url(#p7b61411dc4)" style="fill: none; stroke: #ff7f0e; stroke-opacity: 0.5; stroke-width: 0.2; stroke-linecap: square"/>
   <path d="M 256.619695 114.077803 
L 255.619695 114.046366 
L 254.619695 114.009426 
L 253.619695 113.911679 
L 252.619695 113.879158 
L 251.619695 113.805533 
L 250.619695 113.766967 
L 249.619695 113.731554 
L 248.619695 113.673914 
L 247.619695 113.603528 
L 246.619695 113.551564 
L 245.619695 113.492474 
L 244.619695 113.404153 
L 243.619695 113.358009 
L 242.619695 113.315598 
L 241.619695 113.285105 
L 240.619695 113.25906 
L 239.619695 113.23786 
L 238.619695 113.183559 
L 237.619695 113.155621 
L 236.619695 113.125898 
L 235.619695 113.100503 
L 234.619695 113.089302 
L 233.619695 113.079178 
L 232.619695 113.079383 
L 231.619695 113.088893 
L 230.619695 113.100546 
L 229.619695 113.131575 
L 228.619695 113.142743 
L 227.619695 113.172861 
L 226.619695 113.232638 
L 225.619695 113.269829 
L 224.619695 113.308925 
L 223.619695 113.351365 
L 222.619695 113.38413 
L 221.619695 113.451557 
L 220.619695 113.490683 
L 219.619695 113.533357 
L 218.619695 113.603938 
L 217.619695 113.640329 
L 216.619695 113.698732 
L 215.619695 113.809684 
L 214.619695 113.880343 
L 213.619695 113.993282 
L 212.619695 114.039055 
L 211.619695 114.100339 
L 210.619695 114.148838 
L 209.619695 114.229661 
L 208.619695 114.34818 
L 207.619695 114.41839 
L 206.619695 114.501653 
L 205.619695 114.534794 
L 204.619695 114.586032 
L 203.619695 114.65443 
L 202.619695 114.720646 
L 201.619695 114.797563 
L 200.299443 114.824878 
" clip-path="url(#p7b61411dc4)" style="fill: none; stroke: #ff7f0e; stroke-opacity: 0.5; stroke-width: 0.2; stroke-linecap: square"/>
   <path d="M 256.619695 263.579014 
L 255.619695 263.547577 
L 254.619695 263.510637 
L 253.619695 263.41289 
L 252.619695 263.380369 
L 251.619695 263.306744 
L 250.619695 263.268179 
L 249.619695 263.232765 
L 248.619695 263.175125 
L 247.619695 263.104739 
L 246.619695 263.052775 
L 245.619695 262.993685 
L 244.619695 262.905364 
L 243.619695 262.85922 
L 242.619695 262.816809 
L 241.619695 262.786316 
L 240.619695 262.760271 
L 239.619695 262.739071 
L 238.619695 262.68477 
L 237.619695 262.656833 
L 236.619695 262.627109 
L 235.619695 262.601714 
L 234.619695 262.590514 
L 233.619695 262.58039 
L 232.619695 262.580594 
L 231.619695 262.590104 
L 230.619695 262.601757 
L 229.619695 262.632787 
L 228.619695 262.643955 
L 227.619695 262.674072 
L 226.619695 262.733849 
L 225.619695 262.771041 
L 224.619695 262.810137 
L 223.619695 262.852576 
L 222.619695 262.885341 
L 221.619695 262.952768 
L 220.619695 262.991894 
L 219.619695 263.034568 
L 218.619695 263.105149 
L 217.619695 263.14154 
L 216.619695 263.199943 
L 215.619695 263.310896 
L 214.619695 263.381554 
L 213.619695 263.494494 
L 212.619695 263.540267 
L 211.619695 263.60155 
L 210.619695 263.650049 
L 209.619695 263.730872 
L 208.619695 263.849391 
L 207.619695 263.919601 
L 206.619695 264.002864 
L 205.619695 264.036006 
L 204.619695 264.087243 
L 203.619695 264.155641 
L 202.619695 264.221857 
L 201.619695 264.298774 
L 200.299443 264.326089 
" clip-path="url(#p7b61411dc4)" style="fill: none; stroke: #ff7f0e; stroke-opacity: 0.5; stroke-width: 0.2; stroke-linecap: square"/>
   <path d="M 256.619695 272.876287 
L 255.619695 272.844851 
L 254.619695 272.80791 
L 253.619695 272.710164 
L 252.619695 272.677642 
L 251.619695 272.604017 
L 250.619695 272.565452 
L 249.619695 272.530039 
L 248.619695 272.472399 
L 247.619695 272.402012 
L 246.619695 272.350048 
L 245.619695 272.290958 
L 244.619695 272.202638 
L 243.619695 272.156493 
L 242.619695 272.114082 
L 241.619695 272.08359 
L 240.619695 272.057545 
L 239.619695 272.036345 
L 238.619695 271.982043 
L 237.619695 271.954106 
L 236.619695 271.924382 
L 235.619695 271.898987 
L 234.619695 271.887787 
L 233.619695 271.877663 
L 232.619695 271.877867 
L 231.619695 271.887377 
L 230.619695 271.899031 
L 229.619695 271.93006 
L 228.619695 271.941228 
L 227.619695 271.971345 
L 226.619695 272.031122 
L 225.619695 272.068314 
L 224.619695 272.10741 
L 223.619695 272.149849 
L 222.619695 272.182615 
L 221.619695 272.250041 
L 220.619695 272.289167 
L 219.619695 272.331841 
L 218.619695 272.402422 
L 217.619695 272.438813 
L 216.619695 272.497216 
L 215.619695 272.608169 
L 214.619695 272.678827 
L 213.619695 272.791767 
L 212.619695 272.83754 
L 211.619695 272.898823 
L 210.619695 272.947322 
L 209.619695 273.028145 
L 208.619695 273.146664 
L 207.619695 273.216875 
L 206.619695 273.300137 
L 205.619695 273.333279 
L 204.619695 273.384516 
L 203.619695 273.452914 
L 202.619695 273.51913 
L 201.619695 273.596047 
L 200.299443 273.623362 
" clip-path="url(#p7b61411dc4)" style="fill: none; stroke: #ff7f0e; stroke-opacity: 0.5; stroke-width: 0.2; stroke-linecap: square"/>
   <path d="M 256.619695 88.838553 
L 255.619695 88.807117 
L 254.619695 88.770176 
L 253.619695 88.67243 
L 252.619695 88.639908 
L 251.619695 88.566284 
L 250.619695 88.527718 
L 249.619695 88.492305 
L 248.619695 88.434665 
L 247.619695 88.364279 
L 246.619695 88.312315 
L 245.619695 88.253225 
L 244.619695 88.164904 
L 243.619695 88.11876 
L 242.619695 88.076349 
L 241.619695 88.045856 
L 240.619695 88.019811 
L 239.619695 87.998611 
L 238.619695 87.94431 
L 237.619695 87.916372 
L 236.619695 87.886648 
L 235.619695 87.861253 
L 234.619695 87.850053 
L 233.619695 87.839929 
L 232.619695 87.840133 
L 231.619695 87.849643 
L 230.619695 87.861297 
L 229.619695 87.892326 
L 228.619695 87.903494 
L 227.619695 87.933612 
L 226.619695 87.993389 
L 225.619695 88.03058 
L 224.619695 88.069676 
L 223.619695 88.112116 
L 222.619695 88.144881 
L 221.619695 88.212307 
L 220.619695 88.251433 
L 219.619695 88.294108 
L 218.619695 88.364688 
L 217.619695 88.401079 
L 216.619695 88.459482 
L 215.619695 88.570435 
L 214.619695 88.641093 
L 213.619695 88.754033 
L 212.619695 88.799806 
L 211.619695 88.861089 
L 210.619695 88.909589 
L 209.619695 88.990411 
L 208.619695 89.10893 
L 207.619695 89.179141 
L 206.619695 89.262403 
L 205.619695 89.295545 
L 204.619695 89.346782 
L 203.619695 89.415181 
L 202.619695 89.481396 
L 201.619695 89.558313 
L 200.299443 89.585629 
" clip-path="url(#p7b61411dc4)" style="fill: none; stroke: #ff7f0e; stroke-opacity: 0.5; stroke-width: 0.2; stroke-linecap: square"/>
   <path d="M 256.619695 290.689842 
L 255.619695 290.658405 
L 254.619695 290.621465 
L 253.619695 290.523718 
L 252.619695 290.491197 
L 251.619695 290.417572 
L 250.619695 290.379006 
L 249.619695 290.343593 
L 248.619695 290.285953 
L 247.619695 290.215567 
L 246.619695 290.163603 
L 245.619695 290.104513 
L 244.619695 290.016192 
L 243.619695 289.970048 
L 242.619695 289.927637 
L 241.619695 289.897144 
L 240.619695 289.871099 
L 239.619695 289.849899 
L 238.619695 289.795598 
L 237.619695 289.767661 
L 236.619695 289.737937 
L 235.619695 289.712542 
L 234.619695 289.701341 
L 233.619695 289.691217 
L 232.619695 289.691422 
L 231.619695 289.700932 
L 230.619695 289.712585 
L 229.619695 289.743614 
L 228.619695 289.754782 
L 227.619695 289.7849 
L 226.619695 289.844677 
L 225.619695 289.881868 
L 224.619695 289.920964 
L 223.619695 289.963404 
L 222.619695 289.996169 
L 221.619695 290.063596 
L 220.619695 290.102722 
L 219.619695 290.145396 
L 218.619695 290.215977 
L 217.619695 290.252368 
L 216.619695 290.310771 
L 215.619695 290.421723 
L 214.619695 290.492382 
L 213.619695 290.605322 
L 212.619695 290.651094 
L 211.619695 290.712378 
L 210.619695 290.760877 
L 209.619695 290.8417 
L 208.619695 290.960219 
L 207.619695 291.030429 
L 206.619695 291.113692 
L 205.619695 291.146833 
L 204.619695 291.198071 
L 203.619695 291.266469 
L 202.619695 291.332685 
L 201.619695 291.409602 
L 200.299443 291.436917 
" clip-path="url(#p7b61411dc4)" style="fill: none; stroke: #ff7f0e; stroke-opacity: 0.5; stroke-width: 0.2; stroke-linecap: square"/>
   <path d="M 390.34593 275.518027 
L 391.34593 275.549464 
L 392.34593 275.586404 
L 393.34593 275.684151 
L 394.34593 275.716672 
L 395.34593 275.790297 
L 396.34593 275.828863 
L 397.34593 275.864276 
L 398.34593 275.921916 
L 399.34593 275.992302 
L 400.34593 276.044266 
L 401.34593 276.103356 
L 402.34593 276.191677 
L 403.34593 276.237821 
L 404.34593 276.280232 
L 405.34593 276.310725 
L 406.34593 276.33677 
L 407.34593 276.35797 
L 408.34593 276.412271 
L 409.34593 276.440208 
L 410.34593 276.469932 
L 411.34593 276.495327 
L 412.34593 276.506528 
L 413.34593 276.516652 
L 414.34593 276.516447 
L 415.34593 276.506937 
L 416.34593 276.495284 
L 417.34593 276.464254 
L 418.34593 276.453087 
L 419.34593 276.422969 
L 420.34593 276.363192 
L 421.34593 276.326001 
L 422.34593 276.286904 
L 423.34593 276.244465 
L 424.34593 276.2117 
L 425.34593 276.144273 
L 426.34593 276.105147 
L 427.34593 276.062473 
L 428.34593 275.991892 
L 429.34593 275.955501 
L 430.34593 275.897098 
L 431.34593 275.786146 
L 432.34593 275.715487 
L 433.34593 275.602547 
L 434.34593 275.556775 
L 435.34593 275.495491 
L 436.34593 275.446992 
L 437.34593 275.366169 
L 438.34593 275.24765 
L 439.34593 275.17744 
L 440.34593 275.094177 
L 441.34593 275.061036 
L 442.34593 275.009798 
L 443.34593 274.9414 
L 444.34593 274.875184 
L 445.34593 274.798267 
L 446.666182 274.770952 
" clip-path="url(#p7b61411dc4)" style="fill: none; stroke: #ff7f0e; stroke-opacity: 0.5; stroke-width: 0.2; stroke-linecap: square"/>
   <path d="M 390.34593 297.151853 
L 391.34593 297.183289 
L 392.34593 297.22023 
L 393.34593 297.317976 
L 394.34593 297.350498 
L 395.34593 297.424122 
L 396.34593 297.462688 
L 397.34593 297.498101 
L 398.34593 297.555741 
L 399.34593 297.626127 
L 400.34593 297.678091 
L 401.34593 297.737181 
L 402.34593 297.825502 
L 403.34593 297.871647 
L 404.34593 297.914057 
L 405.34593 297.94455 
L 406.34593 297.970595 
L 407.34593 297.991795 
L 408.34593 298.046096 
L 409.34593 298.074034 
L 410.34593 298.103758 
L 411.34593 298.129153 
L 412.34593 298.140353 
L 413.34593 298.150477 
L 414.34593 298.150273 
L 415.34593 298.140763 
L 416.34593 298.129109 
L 417.34593 298.09808 
L 418.34593 298.086912 
L 419.34593 298.056794 
L 420.34593 297.997018 
L 421.34593 297.959826 
L 422.34593 297.92073 
L 423.34593 297.87829 
L 424.34593 297.845525 
L 425.34593 297.778099 
L 426.34593 297.738973 
L 427.34593 297.696298 
L 428.34593 297.625718 
L 429.34593 297.589327 
L 430.34593 297.530924 
L 431.34593 297.419971 
L 432.34593 297.349313 
L 433.34593 297.236373 
L 434.34593 297.1906 
L 435.34593 297.129317 
L 436.34593 297.080817 
L 437.34593 296.999995 
L 438.34593 296.881476 
L 439.34593 296.811265 
L 440.34593 296.728003 
L 441.34593 296.694861 
L 442.34593 296.643624 
L 443.34593 296.575225 
L 444.34593 296.50901 
L 445.34593 296.432093 
L 446.666182 296.404777 
" clip-path="url(#p7b61411dc4)" style="fill: none; stroke: #ff7f0e; stroke-opacity: 0.5; stroke-width: 0.2; stroke-linecap: square"/>
   <path d="M 390.34593 193.626092 
L 391.34593 193.657529 
L 392.34593 193.694469 
L 393.34593 193.792216 
L 394.34593 193.824737 
L 395.34593 193.898362 
L 396.34593 193.936928 
L 397.34593 193.972341 
L 398.34593 194.029981 
L 399.34593 194.100367 
L 400.34593 194.152331 
L 401.34593 194.211421 
L 402.34593 194.299742 
L 403.34593 194.345886 
L 404.34593 194.388297 
L 405.34593 194.41879 
L 406.34593 194.444835 
L 407.34593 194.466035 
L 408.34593 194.520336 
L 409.34593 194.548274 
L 410.34593 194.577997 
L 411.34593 194.603392 
L 412.34593 194.614593 
L 413.34593 194.624717 
L 414.34593 194.624512 
L 415.34593 194.615002 
L 416.34593 194.603349 
L 417.34593 194.57232 
L 418.34593 194.561152 
L 419.34593 194.531034 
L 420.34593 194.471257 
L 421.34593 194.434066 
L 422.34593 194.39497 
L 423.34593 194.35253 
L 424.34593 194.319765 
L 425.34593 194.252338 
L 426.34593 194.213212 
L 427.34593 194.170538 
L 428.34593 194.099957 
L 429.34593 194.063566 
L 430.34593 194.005163 
L 431.34593 193.894211 
L 432.34593 193.823552 
L 433.34593 193.710613 
L 434.34593 193.66484 
L 435.34593 193.603556 
L 436.34593 193.555057 
L 437.34593 193.474234 
L 438.34593 193.355715 
L 439.34593 193.285505 
L 440.34593 193.202242 
L 441.34593 193.169101 
L 442.34593 193.117863 
L 443.34593 193.049465 
L 444.34593 192.98325 
L 445.34593 192.906332 
L 446.666182 192.879017 
" clip-path="url(#p7b61411dc4)" style="fill: none; stroke: #ff7f0e; stroke-opacity: 0.5; stroke-width: 0.2; stroke-linecap: square"/>
   <path d="M 390.34593 67.019745 
L 391.34593 67.051181 
L 392.34593 67.088122 
L 393.34593 67.185868 
L 394.34593 67.21839 
L 395.34593 67.292014 
L 396.34593 67.33058 
L 397.34593 67.365993 
L 398.34593 67.423633 
L 399.34593 67.494019 
L 400.34593 67.545984 
L 401.34593 67.605073 
L 402.34593 67.693394 
L 403.34593 67.739539 
L 404.34593 67.78195 
L 405.34593 67.812442 
L 406.34593 67.838487 
L 407.34593 67.859687 
L 408.34593 67.913988 
L 409.34593 67.941926 
L 410.34593 67.97165 
L 411.34593 67.997045 
L 412.34593 68.008245 
L 413.34593 68.018369 
L 414.34593 68.018165 
L 415.34593 68.008655 
L 416.34593 67.997001 
L 417.34593 67.965972 
L 418.34593 67.954804 
L 419.34593 67.924687 
L 420.34593 67.86491 
L 421.34593 67.827718 
L 422.34593 67.788622 
L 423.34593 67.746182 
L 424.34593 67.713417 
L 425.34593 67.645991 
L 426.34593 67.606865 
L 427.34593 67.56419 
L 428.34593 67.49361 
L 429.34593 67.457219 
L 430.34593 67.398816 
L 431.34593 67.287863 
L 432.34593 67.217205 
L 433.34593 67.104265 
L 434.34593 67.058492 
L 435.34593 66.997209 
L 436.34593 66.94871 
L 437.34593 66.867887 
L 438.34593 66.749368 
L 439.34593 66.679157 
L 440.34593 66.595895 
L 441.34593 66.562753 
L 442.34593 66.511516 
L 443.34593 66.443117 
L 444.34593 66.376902 
L 445.34593 66.299985 
L 446.666182 66.272669 
" clip-path="url(#p7b61411dc4)" style="fill: none; stroke: #ff7f0e; stroke-opacity: 0.5; stroke-width: 0.2; stroke-linecap: square"/>
   <path d="M 390.34593 289.858145 
L 391.34593 289.889582 
L 392.34593 289.926522 
L 393.34593 290.024269 
L 394.34593 290.05679 
L 395.34593 290.130415 
L 396.34593 290.168981 
L 397.34593 290.204394 
L 398.34593 290.262034 
L 399.34593 290.33242 
L 400.34593 290.384384 
L 401.34593 290.443474 
L 402.34593 290.531795 
L 403.34593 290.577939 
L 404.34593 290.62035 
L 405.34593 290.650843 
L 406.34593 290.676888 
L 407.34593 290.698088 
L 408.34593 290.752389 
L 409.34593 290.780326 
L 410.34593 290.81005 
L 411.34593 290.835445 
L 412.34593 290.846646 
L 413.34593 290.85677 
L 414.34593 290.856565 
L 415.34593 290.847055 
L 416.34593 290.835402 
L 417.34593 290.804373 
L 418.34593 290.793205 
L 419.34593 290.763087 
L 420.34593 290.70331 
L 421.34593 290.666119 
L 422.34593 290.627023 
L 423.34593 290.584583 
L 424.34593 290.551818 
L 425.34593 290.484391 
L 426.34593 290.445265 
L 427.34593 290.402591 
L 428.34593 290.33201 
L 429.34593 290.295619 
L 430.34593 290.237216 
L 431.34593 290.126264 
L 432.34593 290.055605 
L 433.34593 289.942665 
L 434.34593 289.896893 
L 435.34593 289.835609 
L 436.34593 289.78711 
L 437.34593 289.706287 
L 438.34593 289.587768 
L 439.34593 289.517558 
L 440.34593 289.434295 
L 441.34593 289.401154 
L 442.34593 289.349916 
L 443.34593 289.281518 
L 444.34593 289.215302 
L 445.34593 289.138385 
L 446.666182 289.11107 
" clip-path="url(#p7b61411dc4)" style="fill: none; stroke: #ff7f0e; stroke-opacity: 0.5; stroke-width: 0.2; stroke-linecap: square"/>
   <path d="M 390.34593 217.755054 
L 391.34593 217.786491 
L 392.34593 217.823431 
L 393.34593 217.921178 
L 394.34593 217.953699 
L 395.34593 218.027324 
L 396.34593 218.06589 
L 397.34593 218.101303 
L 398.34593 218.158943 
L 399.34593 218.229329 
L 400.34593 218.281293 
L 401.34593 218.340383 
L 402.34593 218.428704 
L 403.34593 218.474848 
L 404.34593 218.517259 
L 405.34593 218.547752 
L 406.34593 218.573797 
L 407.34593 218.594997 
L 408.34593 218.649298 
L 409.34593 218.677235 
L 410.34593 218.706959 
L 411.34593 218.732354 
L 412.34593 218.743555 
L 413.34593 218.753679 
L 414.34593 218.753474 
L 415.34593 218.743964 
L 416.34593 218.732311 
L 417.34593 218.701281 
L 418.34593 218.690114 
L 419.34593 218.659996 
L 420.34593 218.600219 
L 421.34593 218.563028 
L 422.34593 218.523931 
L 423.34593 218.481492 
L 424.34593 218.448727 
L 425.34593 218.3813 
L 426.34593 218.342174 
L 427.34593 218.2995 
L 428.34593 218.228919 
L 429.34593 218.192528 
L 430.34593 218.134125 
L 431.34593 218.023173 
L 432.34593 217.952514 
L 433.34593 217.839574 
L 434.34593 217.793802 
L 435.34593 217.732518 
L 436.34593 217.684019 
L 437.34593 217.603196 
L 438.34593 217.484677 
L 439.34593 217.414467 
L 440.34593 217.331204 
L 441.34593 217.298062 
L 442.34593 217.246825 
L 443.34593 217.178427 
L 444.34593 217.112211 
L 445.34593 217.035294 
L 446.666182 217.007979 
" clip-path="url(#p7b61411dc4)" style="fill: none; stroke: #ff7f0e; stroke-opacity: 0.5; stroke-width: 0.2; stroke-linecap: square"/>
   <path d="M 390.34593 127.340539 
L 391.34593 127.371975 
L 392.34593 127.408916 
L 393.34593 127.506662 
L 394.34593 127.539184 
L 395.34593 127.612808 
L 396.34593 127.651374 
L 397.34593 127.686787 
L 398.34593 127.744427 
L 399.34593 127.814813 
L 400.34593 127.866777 
L 401.34593 127.925867 
L 402.34593 128.014188 
L 403.34593 128.060333 
L 404.34593 128.102743 
L 405.34593 128.133236 
L 406.34593 128.159281 
L 407.34593 128.180481 
L 408.34593 128.234782 
L 409.34593 128.26272 
L 410.34593 128.292444 
L 411.34593 128.317839 
L 412.34593 128.329039 
L 413.34593 128.339163 
L 414.34593 128.338959 
L 415.34593 128.329449 
L 416.34593 128.317795 
L 417.34593 128.286766 
L 418.34593 128.275598 
L 419.34593 128.24548 
L 420.34593 128.185704 
L 421.34593 128.148512 
L 422.34593 128.109416 
L 423.34593 128.066976 
L 424.34593 128.034211 
L 425.34593 127.966785 
L 426.34593 127.927659 
L 427.34593 127.884984 
L 428.34593 127.814404 
L 429.34593 127.778013 
L 430.34593 127.71961 
L 431.34593 127.608657 
L 432.34593 127.537999 
L 433.34593 127.425059 
L 434.34593 127.379286 
L 435.34593 127.318003 
L 436.34593 127.269503 
L 437.34593 127.188681 
L 438.34593 127.070162 
L 439.34593 126.999951 
L 440.34593 126.916689 
L 441.34593 126.883547 
L 442.34593 126.83231 
L 443.34593 126.763911 
L 444.34593 126.697696 
L 445.34593 126.620779 
L 446.666182 126.593463 
" clip-path="url(#p7b61411dc4)" style="fill: none; stroke: #ff7f0e; stroke-opacity: 0.5; stroke-width: 0.2; stroke-linecap: square"/>
   <path d="M 390.34593 45.19291 
L 391.34593 45.224347 
L 392.34593 45.261287 
L 393.34593 45.359034 
L 394.34593 45.391555 
L 395.34593 45.46518 
L 396.34593 45.503746 
L 397.34593 45.539159 
L 398.34593 45.596799 
L 399.34593 45.667185 
L 400.34593 45.719149 
L 401.34593 45.778239 
L 402.34593 45.86656 
L 403.34593 45.912704 
L 404.34593 45.955115 
L 405.34593 45.985608 
L 406.34593 46.011653 
L 407.34593 46.032853 
L 408.34593 46.087154 
L 409.34593 46.115091 
L 410.34593 46.144815 
L 411.34593 46.17021 
L 412.34593 46.181411 
L 413.34593 46.191535 
L 414.34593 46.19133 
L 415.34593 46.18182 
L 416.34593 46.170167 
L 417.34593 46.139137 
L 418.34593 46.12797 
L 419.34593 46.097852 
L 420.34593 46.038075 
L 421.34593 46.000884 
L 422.34593 45.961787 
L 423.34593 45.919348 
L 424.34593 45.886583 
L 425.34593 45.819156 
L 426.34593 45.78003 
L 427.34593 45.737356 
L 428.34593 45.666775 
L 429.34593 45.630384 
L 430.34593 45.571981 
L 431.34593 45.461029 
L 432.34593 45.39037 
L 433.34593 45.27743 
L 434.34593 45.231658 
L 435.34593 45.170374 
L 436.34593 45.121875 
L 437.34593 45.041052 
L 438.34593 44.922533 
L 439.34593 44.852323 
L 440.34593 44.76906 
L 441.34593 44.735919 
L 442.34593 44.684681 
L 443.34593 44.616283 
L 444.34593 44.550067 
L 445.34593 44.47315 
L 446.666182 44.445835 
" clip-path="url(#p7b61411dc4)" style="fill: none; stroke: #ff7f0e; stroke-opacity: 0.5; stroke-width: 0.2; stroke-linecap: square"/>
   <path d="M 390.34593 250.902287 
L 391.34593 250.933724 
L 392.34593 250.970664 
L 393.34593 251.068411 
L 394.34593 251.100932 
L 395.34593 251.174557 
L 396.34593 251.213123 
L 397.34593 251.248536 
L 398.34593 251.306176 
L 399.34593 251.376562 
L 400.34593 251.428526 
L 401.34593 251.487616 
L 402.34593 251.575937 
L 403.34593 251.622081 
L 404.34593 251.664492 
L 405.34593 251.694985 
L 406.34593 251.72103 
L 407.34593 251.74223 
L 408.34593 251.796531 
L 409.34593 251.824468 
L 410.34593 251.854192 
L 411.34593 251.879587 
L 412.34593 251.890788 
L 413.34593 251.900912 
L 414.34593 251.900707 
L 415.34593 251.891197 
L 416.34593 251.879544 
L 417.34593 251.848514 
L 418.34593 251.837347 
L 419.34593 251.807229 
L 420.34593 251.747452 
L 421.34593 251.710261 
L 422.34593 251.671164 
L 423.34593 251.628725 
L 424.34593 251.59596 
L 425.34593 251.528533 
L 426.34593 251.489407 
L 427.34593 251.446733 
L 428.34593 251.376152 
L 429.34593 251.339761 
L 430.34593 251.281358 
L 431.34593 251.170406 
L 432.34593 251.099747 
L 433.34593 250.986807 
L 434.34593 250.941035 
L 435.34593 250.879751 
L 436.34593 250.831252 
L 437.34593 250.750429 
L 438.34593 250.63191 
L 439.34593 250.5617 
L 440.34593 250.478437 
L 441.34593 250.445296 
L 442.34593 250.394058 
L 443.34593 250.32566 
L 444.34593 250.259444 
L 445.34593 250.182527 
L 446.666182 250.155212 
" clip-path="url(#p7b61411dc4)" style="fill: none; stroke: #ff7f0e; stroke-opacity: 0.5; stroke-width: 0.2; stroke-linecap: square"/>
   <path d="M 390.34593 130.634588 
L 391.34593 130.666025 
L 392.34593 130.702965 
L 393.34593 130.800712 
L 394.34593 130.833233 
L 395.34593 130.906858 
L 396.34593 130.945423 
L 397.34593 130.980837 
L 398.34593 131.038476 
L 399.34593 131.108863 
L 400.34593 131.160827 
L 401.34593 131.219917 
L 402.34593 131.308238 
L 403.34593 131.354382 
L 404.34593 131.396793 
L 405.34593 131.427286 
L 406.34593 131.45333 
L 407.34593 131.474531 
L 408.34593 131.528832 
L 409.34593 131.556769 
L 410.34593 131.586493 
L 411.34593 131.611888 
L 412.34593 131.623088 
L 413.34593 131.633212 
L 414.34593 131.633008 
L 415.34593 131.623498 
L 416.34593 131.611845 
L 417.34593 131.580815 
L 418.34593 131.569647 
L 419.34593 131.53953 
L 420.34593 131.479753 
L 421.34593 131.442561 
L 422.34593 131.403465 
L 423.34593 131.361026 
L 424.34593 131.328261 
L 425.34593 131.260834 
L 426.34593 131.221708 
L 427.34593 131.179034 
L 428.34593 131.108453 
L 429.34593 131.072062 
L 430.34593 131.013659 
L 431.34593 130.902706 
L 432.34593 130.832048 
L 433.34593 130.719108 
L 434.34593 130.673335 
L 435.34593 130.612052 
L 436.34593 130.563553 
L 437.34593 130.48273 
L 438.34593 130.364211 
L 439.34593 130.294001 
L 440.34593 130.210738 
L 441.34593 130.177596 
L 442.34593 130.126359 
L 443.34593 130.057961 
L 444.34593 129.991745 
L 445.34593 129.914828 
L 446.666182 129.887513 
" clip-path="url(#p7b61411dc4)" style="fill: none; stroke: #ff7f0e; stroke-opacity: 0.5; stroke-width: 0.2; stroke-linecap: square"/>
   <path d="M 446.666182 31.254946 
L 445.666182 31.22351 
L 444.666182 31.18657 
L 443.666182 31.088823 
L 442.666182 31.056301 
L 441.666182 30.982677 
L 440.666182 30.944111 
L 439.666182 30.908698 
L 438.666182 30.851058 
L 437.666182 30.780672 
L 436.666182 30.728708 
L 435.666182 30.669618 
L 434.666182 30.581297 
L 433.666182 30.535153 
L 432.666182 30.492742 
L 431.666182 30.462249 
L 430.666182 30.436204 
L 429.666182 30.415004 
L 428.666182 30.360703 
L 427.666182 30.332765 
L 426.666182 30.303041 
L 425.666182 30.277647 
L 424.666182 30.266446 
L 423.666182 30.256322 
L 422.666182 30.256527 
L 421.666182 30.266036 
L 420.666182 30.27769 
L 419.666182 30.308719 
L 418.666182 30.319887 
L 417.666182 30.350005 
L 416.666182 30.409782 
L 415.666182 30.446973 
L 414.666182 30.486069 
L 413.666182 30.528509 
L 412.666182 30.561274 
L 411.666182 30.6287 
L 410.666182 30.667826 
L 409.666182 30.710501 
L 408.666182 30.781081 
L 407.666182 30.817472 
L 406.666182 30.875876 
L 405.666182 30.986828 
L 404.666182 31.057486 
L 403.666182 31.170426 
L 402.666182 31.216199 
L 401.666182 31.277482 
L 400.666182 31.325982 
L 399.666182 31.406804 
L 398.666182 31.525323 
L 397.666182 31.595534 
L 396.666182 31.678796 
L 395.666182 31.711938 
L 394.666182 31.763176 
L 393.666182 31.831574 
L 392.666182 31.897789 
L 391.666182 31.974706 
L 390.34593 32.002022 
" clip-path="url(#p7b61411dc4)" style="fill: none; stroke: #2ca02c; stroke-opacity: 0.5; stroke-width: 0.2; stroke-linecap: square"/>
   <path d="M 446.666182 30.659986 
L 445.666182 30.62855 
L 444.666182 30.59161 
L 443.666182 30.493863 
L 442.666182 30.461342 
L 441.666182 30.387717 
L 440.666182 30.349151 
L 439.666182 30.313738 
L 438.666182 30.256098 
L 437.666182 30.185712 
L 436.666182 30.133748 
L 435.666182 30.074658 
L 434.666182 29.986337 
L 433.666182 29.940193 
L 432.666182 29.897782 
L 431.666182 29.867289 
L 430.666182 29.841244 
L 429.666182 29.820044 
L 428.666182 29.765743 
L 427.666182 29.737805 
L 426.666182 29.708081 
L 425.666182 29.682687 
L 424.666182 29.671486 
L 423.666182 29.661362 
L 422.666182 29.661567 
L 421.666182 29.671076 
L 420.666182 29.68273 
L 419.666182 29.713759 
L 418.666182 29.724927 
L 417.666182 29.755045 
L 416.666182 29.814822 
L 415.666182 29.852013 
L 414.666182 29.891109 
L 413.666182 29.933549 
L 412.666182 29.966314 
L 411.666182 30.033741 
L 410.666182 30.072866 
L 409.666182 30.115541 
L 408.666182 30.186122 
L 407.666182 30.222512 
L 406.666182 30.280916 
L 405.666182 30.391868 
L 404.666182 30.462527 
L 403.666182 30.575466 
L 402.666182 30.621239 
L 401.666182 30.682522 
L 400.666182 30.731022 
L 399.666182 30.811844 
L 398.666182 30.930363 
L 397.666182 31.000574 
L 396.666182 31.083837 
L 395.666182 31.116978 
L 394.666182 31.168216 
L 393.666182 31.236614 
L 392.666182 31.302829 
L 391.666182 31.379746 
L 390.34593 31.407062 
" clip-path="url(#p7b61411dc4)" style="fill: none; stroke: #2ca02c; stroke-opacity: 0.5; stroke-width: 0.2; stroke-linecap: square"/>
   <path d="M 446.666182 55.691203 
L 445.666182 55.659766 
L 444.666182 55.622826 
L 443.666182 55.525079 
L 442.666182 55.492558 
L 441.666182 55.418933 
L 440.666182 55.380367 
L 439.666182 55.344954 
L 438.666182 55.287314 
L 437.666182 55.216928 
L 436.666182 55.164964 
L 435.666182 55.105874 
L 434.666182 55.017553 
L 433.666182 54.971409 
L 432.666182 54.928998 
L 431.666182 54.898505 
L 430.666182 54.87246 
L 429.666182 54.85126 
L 428.666182 54.796959 
L 427.666182 54.769022 
L 426.666182 54.739298 
L 425.666182 54.713903 
L 424.666182 54.702702 
L 423.666182 54.692578 
L 422.666182 54.692783 
L 421.666182 54.702293 
L 420.666182 54.713946 
L 419.666182 54.744975 
L 418.666182 54.756143 
L 417.666182 54.786261 
L 416.666182 54.846038 
L 415.666182 54.883229 
L 414.666182 54.922325 
L 413.666182 54.964765 
L 412.666182 54.99753 
L 411.666182 55.064957 
L 410.666182 55.104083 
L 409.666182 55.146757 
L 408.666182 55.217338 
L 407.666182 55.253729 
L 406.666182 55.312132 
L 405.666182 55.423084 
L 404.666182 55.493743 
L 403.666182 55.606683 
L 402.666182 55.652455 
L 401.666182 55.713739 
L 400.666182 55.762238 
L 399.666182 55.843061 
L 398.666182 55.96158 
L 397.666182 56.03179 
L 396.666182 56.115053 
L 395.666182 56.148194 
L 394.666182 56.199432 
L 393.666182 56.26783 
L 392.666182 56.334046 
L 391.666182 56.410963 
L 390.34593 56.438278 
" clip-path="url(#p7b61411dc4)" style="fill: none; stroke: #2ca02c; stroke-opacity: 0.5; stroke-width: 0.2; stroke-linecap: square"/>
   <path d="M 446.666182 24.149616 
L 445.666182 24.11818 
L 444.666182 24.081239 
L 443.666182 23.983493 
L 442.666182 23.950971 
L 441.666182 23.877346 
L 440.666182 23.838781 
L 439.666182 23.803368 
L 438.666182 23.745728 
L 437.666182 23.675341 
L 436.666182 23.623377 
L 435.666182 23.564287 
L 434.666182 23.475966 
L 433.666182 23.429822 
L 432.666182 23.387411 
L 431.666182 23.356919 
L 430.666182 23.330874 
L 429.666182 23.309674 
L 428.666182 23.255372 
L 427.666182 23.227435 
L 426.666182 23.197711 
L 425.666182 23.172316 
L 424.666182 23.161116 
L 423.666182 23.150992 
L 422.666182 23.151196 
L 421.666182 23.160706 
L 420.666182 23.17236 
L 419.666182 23.203389 
L 418.666182 23.214557 
L 417.666182 23.244674 
L 416.666182 23.304451 
L 415.666182 23.341643 
L 414.666182 23.380739 
L 413.666182 23.423178 
L 412.666182 23.455944 
L 411.666182 23.52337 
L 410.666182 23.562496 
L 409.666182 23.60517 
L 408.666182 23.675751 
L 407.666182 23.712142 
L 406.666182 23.770545 
L 405.666182 23.881498 
L 404.666182 23.952156 
L 403.666182 24.065096 
L 402.666182 24.110869 
L 401.666182 24.172152 
L 400.666182 24.220651 
L 399.666182 24.301474 
L 398.666182 24.419993 
L 397.666182 24.490204 
L 396.666182 24.573466 
L 395.666182 24.606608 
L 394.666182 24.657845 
L 393.666182 24.726243 
L 392.666182 24.792459 
L 391.666182 24.869376 
L 390.34593 24.896691 
" clip-path="url(#p7b61411dc4)" style="fill: none; stroke: #2ca02c; stroke-opacity: 0.5; stroke-width: 0.2; stroke-linecap: square"/>
   <path d="M 446.666182 287.40897 
L 445.666182 287.377534 
L 444.666182 287.340593 
L 443.666182 287.242847 
L 442.666182 287.210325 
L 441.666182 287.1367 
L 440.666182 287.098135 
L 439.666182 287.062722 
L 438.666182 287.005082 
L 437.666182 286.934696 
L 436.666182 286.882731 
L 435.666182 286.823642 
L 434.666182 286.735321 
L 433.666182 286.689176 
L 432.666182 286.646765 
L 431.666182 286.616273 
L 430.666182 286.590228 
L 429.666182 286.569028 
L 428.666182 286.514727 
L 427.666182 286.486789 
L 426.666182 286.457065 
L 425.666182 286.43167 
L 424.666182 286.42047 
L 423.666182 286.410346 
L 422.666182 286.41055 
L 421.666182 286.42006 
L 420.666182 286.431714 
L 419.666182 286.462743 
L 418.666182 286.473911 
L 417.666182 286.504028 
L 416.666182 286.563805 
L 415.666182 286.600997 
L 414.666182 286.640093 
L 413.666182 286.682533 
L 412.666182 286.715298 
L 411.666182 286.782724 
L 410.666182 286.82185 
L 409.666182 286.864525 
L 408.666182 286.935105 
L 407.666182 286.971496 
L 406.666182 287.029899 
L 405.666182 287.140852 
L 404.666182 287.21151 
L 403.666182 287.32445 
L 402.666182 287.370223 
L 401.666182 287.431506 
L 400.666182 287.480005 
L 399.666182 287.560828 
L 398.666182 287.679347 
L 397.666182 287.749558 
L 396.666182 287.83282 
L 395.666182 287.865962 
L 394.666182 287.917199 
L 393.666182 287.985598 
L 392.666182 288.051813 
L 391.666182 288.12873 
L 390.34593 288.156046 
" clip-path="url(#p7b61411dc4)" style="fill: none; stroke: #2ca02c; stroke-opacity: 0.5; stroke-width: 0.2; stroke-linecap: square"/>
   <path d="M 446.666182 85.254752 
L 445.666182 85.223316 
L 444.666182 85.186376 
L 443.666182 85.088629 
L 442.666182 85.056107 
L 441.666182 84.982483 
L 440.666182 84.943917 
L 439.666182 84.908504 
L 438.666182 84.850864 
L 437.666182 84.780478 
L 436.666182 84.728514 
L 435.666182 84.669424 
L 434.666182 84.581103 
L 433.666182 84.534959 
L 432.666182 84.492548 
L 431.666182 84.462055 
L 430.666182 84.43601 
L 429.666182 84.41481 
L 428.666182 84.360509 
L 427.666182 84.332571 
L 426.666182 84.302847 
L 425.666182 84.277453 
L 424.666182 84.266252 
L 423.666182 84.256128 
L 422.666182 84.256333 
L 421.666182 84.265842 
L 420.666182 84.277496 
L 419.666182 84.308525 
L 418.666182 84.319693 
L 417.666182 84.349811 
L 416.666182 84.409588 
L 415.666182 84.446779 
L 414.666182 84.485875 
L 413.666182 84.528315 
L 412.666182 84.56108 
L 411.666182 84.628507 
L 410.666182 84.667632 
L 409.666182 84.710307 
L 408.666182 84.780888 
L 407.666182 84.817278 
L 406.666182 84.875682 
L 405.666182 84.986634 
L 404.666182 85.057293 
L 403.666182 85.170232 
L 402.666182 85.216005 
L 401.666182 85.277288 
L 400.666182 85.325788 
L 399.666182 85.40661 
L 398.666182 85.525129 
L 397.666182 85.59534 
L 396.666182 85.678602 
L 395.666182 85.711744 
L 394.666182 85.762982 
L 393.666182 85.83138 
L 392.666182 85.897595 
L 391.666182 85.974512 
L 390.34593 86.001828 
" clip-path="url(#p7b61411dc4)" style="fill: none; stroke: #2ca02c; stroke-opacity: 0.5; stroke-width: 0.2; stroke-linecap: square"/>
   <path d="M 446.666182 305.502246 
L 445.666182 305.47081 
L 444.666182 305.43387 
L 443.666182 305.336123 
L 442.666182 305.303601 
L 441.666182 305.229977 
L 440.666182 305.191411 
L 439.666182 305.155998 
L 438.666182 305.098358 
L 437.666182 305.027972 
L 436.666182 304.976008 
L 435.666182 304.916918 
L 434.666182 304.828597 
L 433.666182 304.782453 
L 432.666182 304.740042 
L 431.666182 304.709549 
L 430.666182 304.683504 
L 429.666182 304.662304 
L 428.666182 304.608003 
L 427.666182 304.580065 
L 426.666182 304.550341 
L 425.666182 304.524947 
L 424.666182 304.513746 
L 423.666182 304.503622 
L 422.666182 304.503827 
L 421.666182 304.513336 
L 420.666182 304.52499 
L 419.666182 304.556019 
L 418.666182 304.567187 
L 417.666182 304.597305 
L 416.666182 304.657082 
L 415.666182 304.694273 
L 414.666182 304.733369 
L 413.666182 304.775809 
L 412.666182 304.808574 
L 411.666182 304.876001 
L 410.666182 304.915126 
L 409.666182 304.957801 
L 408.666182 305.028382 
L 407.666182 305.064772 
L 406.666182 305.123176 
L 405.666182 305.234128 
L 404.666182 305.304787 
L 403.666182 305.417726 
L 402.666182 305.463499 
L 401.666182 305.524782 
L 400.666182 305.573282 
L 399.666182 305.654104 
L 398.666182 305.772623 
L 397.666182 305.842834 
L 396.666182 305.926096 
L 395.666182 305.959238 
L 394.666182 306.010476 
L 393.666182 306.078874 
L 392.666182 306.145089 
L 391.666182 306.222006 
L 390.34593 306.249322 
" clip-path="url(#p7b61411dc4)" style="fill: none; stroke: #2ca02c; stroke-opacity: 0.5; stroke-width: 0.2; stroke-linecap: square"/>
   <path d="M 446.666182 171.831409 
L 445.666182 171.799972 
L 444.666182 171.763032 
L 443.666182 171.665285 
L 442.666182 171.632764 
L 441.666182 171.559139 
L 440.666182 171.520573 
L 439.666182 171.48516 
L 438.666182 171.42752 
L 437.666182 171.357134 
L 436.666182 171.30517 
L 435.666182 171.24608 
L 434.666182 171.157759 
L 433.666182 171.111615 
L 432.666182 171.069204 
L 431.666182 171.038711 
L 430.666182 171.012666 
L 429.666182 170.991466 
L 428.666182 170.937165 
L 427.666182 170.909228 
L 426.666182 170.879504 
L 425.666182 170.854109 
L 424.666182 170.842908 
L 423.666182 170.832784 
L 422.666182 170.832989 
L 421.666182 170.842499 
L 420.666182 170.854152 
L 419.666182 170.885181 
L 418.666182 170.896349 
L 417.666182 170.926467 
L 416.666182 170.986244 
L 415.666182 171.023435 
L 414.666182 171.062531 
L 413.666182 171.104971 
L 412.666182 171.137736 
L 411.666182 171.205163 
L 410.666182 171.244289 
L 409.666182 171.286963 
L 408.666182 171.357544 
L 407.666182 171.393935 
L 406.666182 171.452338 
L 405.666182 171.56329 
L 404.666182 171.633949 
L 403.666182 171.746889 
L 402.666182 171.792661 
L 401.666182 171.853945 
L 400.666182 171.902444 
L 399.666182 171.983267 
L 398.666182 172.101786 
L 397.666182 172.171996 
L 396.666182 172.255259 
L 395.666182 172.2884 
L 394.666182 172.339638 
L 393.666182 172.408036 
L 392.666182 172.474252 
L 391.666182 172.551169 
L 390.34593 172.578484 
" clip-path="url(#p7b61411dc4)" style="fill: none; stroke: #2ca02c; stroke-opacity: 0.5; stroke-width: 0.2; stroke-linecap: square"/>
   <path d="M 446.666182 70.284562 
L 445.666182 70.253125 
L 444.666182 70.216185 
L 443.666182 70.118438 
L 442.666182 70.085917 
L 441.666182 70.012292 
L 440.666182 69.973726 
L 439.666182 69.938313 
L 438.666182 69.880673 
L 437.666182 69.810287 
L 436.666182 69.758323 
L 435.666182 69.699233 
L 434.666182 69.610912 
L 433.666182 69.564768 
L 432.666182 69.522357 
L 431.666182 69.491864 
L 430.666182 69.465819 
L 429.666182 69.444619 
L 428.666182 69.390318 
L 427.666182 69.362381 
L 426.666182 69.332657 
L 425.666182 69.307262 
L 424.666182 69.296061 
L 423.666182 69.285937 
L 422.666182 69.286142 
L 421.666182 69.295652 
L 420.666182 69.307305 
L 419.666182 69.338335 
L 418.666182 69.349502 
L 417.666182 69.37962 
L 416.666182 69.439397 
L 415.666182 69.476588 
L 414.666182 69.515685 
L 413.666182 69.558124 
L 412.666182 69.590889 
L 411.666182 69.658316 
L 410.666182 69.697442 
L 409.666182 69.740116 
L 408.666182 69.810697 
L 407.666182 69.847088 
L 406.666182 69.905491 
L 405.666182 70.016443 
L 404.666182 70.087102 
L 403.666182 70.200042 
L 402.666182 70.245814 
L 401.666182 70.307098 
L 400.666182 70.355597 
L 399.666182 70.43642 
L 398.666182 70.554939 
L 397.666182 70.625149 
L 396.666182 70.708412 
L 395.666182 70.741553 
L 394.666182 70.792791 
L 393.666182 70.861189 
L 392.666182 70.927405 
L 391.666182 71.004322 
L 390.34593 71.031637 
" clip-path="url(#p7b61411dc4)" style="fill: none; stroke: #2ca02c; stroke-opacity: 0.5; stroke-width: 0.2; stroke-linecap: square"/>
   <path d="M 446.666182 265.313407 
L 445.666182 265.281971 
L 444.666182 265.24503 
L 443.666182 265.147284 
L 442.666182 265.114762 
L 441.666182 265.041137 
L 440.666182 265.002572 
L 439.666182 264.967159 
L 438.666182 264.909519 
L 437.666182 264.839132 
L 436.666182 264.787168 
L 435.666182 264.728079 
L 434.666182 264.639758 
L 433.666182 264.593613 
L 432.666182 264.551202 
L 431.666182 264.52071 
L 430.666182 264.494665 
L 429.666182 264.473465 
L 428.666182 264.419163 
L 427.666182 264.391226 
L 426.666182 264.361502 
L 425.666182 264.336107 
L 424.666182 264.324907 
L 423.666182 264.314783 
L 422.666182 264.314987 
L 421.666182 264.324497 
L 420.666182 264.336151 
L 419.666182 264.36718 
L 418.666182 264.378348 
L 417.666182 264.408465 
L 416.666182 264.468242 
L 415.666182 264.505434 
L 414.666182 264.54453 
L 413.666182 264.58697 
L 412.666182 264.619735 
L 411.666182 264.687161 
L 410.666182 264.726287 
L 409.666182 264.768962 
L 408.666182 264.839542 
L 407.666182 264.875933 
L 406.666182 264.934336 
L 405.666182 265.045289 
L 404.666182 265.115947 
L 403.666182 265.228887 
L 402.666182 265.27466 
L 401.666182 265.335943 
L 400.666182 265.384442 
L 399.666182 265.465265 
L 398.666182 265.583784 
L 397.666182 265.653995 
L 396.666182 265.737257 
L 395.666182 265.770399 
L 394.666182 265.821636 
L 393.666182 265.890034 
L 392.666182 265.95625 
L 391.666182 266.033167 
L 390.34593 266.060482 
" clip-path="url(#p7b61411dc4)" style="fill: none; stroke: #2ca02c; stroke-opacity: 0.5; stroke-width: 0.2; stroke-linecap: square"/>
   <g id="patch_3">
    <path d="M 72.103551 7.2 
L 72.103551 318.021875 
M 194.769099 7.2 
L 194.769099 318.021875 
" clip-path="url(#p7b61411dc4)" style="fill: none; stroke: #ffffff; stroke-width: 3; stroke-linejoin: miter"/>
    <path d="M 72.103551 7.2 
L 72.103551 318.021875 
M 194.769099 7.2 
L 194.769099 318.021875 
" clip-path="url(#p7b61411dc4)" style="fill: none; stroke: #1f77b4; stroke-linejoin: miter"/>
    <g id="PolyCollection_1">
     <path d="M 194.769099 7.2 
L 72.103551 7.2 
L 72.103551 318.021875 
L 194.769099 318.021875 
L 194.769099 318.021875 
L 194.769099 7.2 
z
" clip-path="url(#p7b61411dc4)" style="fill: #1f77b4; fill-opacity: 0.5"/>
    </g>
    <g id="patch_4">
     <path d="M 262.150038 7.2 
L 262.150038 318.021875 
M 384.815587 7.2 
L 384.815587 318.021875 
" clip-path="url(#p7b61411dc4)" style="fill: none; stroke: #ffffff; stroke-width: 3; stroke-linejoin: miter"/>
     <path d="M 262.150038 7.2 
L 262.150038 318.021875 
M 384.815587 7.2 
L 384.815587 318.021875 
" clip-path="url(#p7b61411dc4)" style="fill: none; stroke: #ff7f0e; stroke-linejoin: miter"/>
     <g id="PolyCollection_2">
      <path d="M 384.815587 7.2 
L 262.150038 7.2 
L 262.150038 318.021875 
L 384.815587 318.021875 
L 384.815587 318.021875 
L 384.815587 7.2 
z
" clip-path="url(#p7b61411dc4)" style="fill: #ff7f0e; fill-opacity: 0.5"/>
     </g>
     <g id="patch_5">
      <path d="M 452.196526 7.2 
L 452.196526 318.021875 
M 574.862074 7.2 
L 574.862074 318.021875 
" clip-path="url(#p7b61411dc4)" style="fill: none; stroke: #ffffff; stroke-width: 3; stroke-linejoin: miter"/>
      <path d="M 452.196526 7.2 
L 452.196526 318.021875 
M 574.862074 7.2 
L 574.862074 318.021875 
" clip-path="url(#p7b61411dc4)" style="fill: none; stroke: #2ca02c; stroke-linejoin: miter"/>
      <g id="PolyCollection_3">
       <path d="M 574.862074 7.2 
L 452.196526 7.2 
L 452.196526 318.021875 
L 574.862074 318.021875 
L 574.862074 318.021875 
L 574.862074 7.2 
z
" clip-path="url(#p7b61411dc4)" style="fill: #2ca02c; fill-opacity: 0.5"/>
      </g>
      <g id="matplotlib.axis_1">
       <g id="xtick_1">
        <g id="line2d_1"/>
        <g id="text_1">
         <!-- d0 -->
         <g transform="translate(127.080856 329.120312) scale(0.1 -0.1)">
          <defs>
           <path id="DejaVuSans-64" d="M 2906 2969 
L 2906 4863 
L 3481 4863 
L 3481 0 
L 2906 0 
L 2906 525 
Q 2725 213 2448 61 
Q 2172 -91 1784 -91 
Q 1150 -91 751 415 
Q 353 922 353 1747 
Q 353 2572 751 3078 
Q 1150 3584 1784 3584 
Q 2172 3584 2448 3432 
Q 2725 3281 2906 2969 
z
M 947 1747 
Q 947 1113 1208 752 
Q 1469 391 1925 391 
Q 2381 391 2643 752 
Q 2906 1113 2906 1747 
Q 2906 2381 2643 2742 
Q 2381 3103 1925 3103 
Q 1469 3103 1208 2742 
Q 947 2381 947 1747 
z
" transform="scale(0.015625)"/>
           <path id="DejaVuSans-30" d="M 2034 4250 
Q 1547 4250 1301 3770 
Q 1056 3291 1056 2328 
Q 1056 1369 1301 889 
Q 1547 409 2034 409 
Q 2525 409 2770 889 
Q 3016 1369 3016 2328 
Q 3016 3291 2770 3770 
Q 2525 4250 2034 4250 
z
M 2034 4750 
Q 2819 4750 3233 4129 
Q 3647 3509 3647 2328 
Q 3647 1150 3233 529 
Q 2819 -91 2034 -91 
Q 1250 -91 836 529 
Q 422 1150 422 2328 
Q 422 3509 836 4129 
Q 1250 4750 2034 4750 
z
" transform="scale(0.015625)"/>
          </defs>
          <use xlink:href="#DejaVuSans-64"/>
          <use xlink:href="#DejaVuSans-30" x="63.476562"/>
         </g>
        </g>
       </g>
       <g id="xtick_2">
        <g id="line2d_2"/>
        <g id="text_2">
         <!-- d1 -->
         <g transform="translate(317.127344 329.120312) scale(0.1 -0.1)">
          <defs>
           <path id="DejaVuSans-31" d="M 794 531 
L 1825 531 
L 1825 4091 
L 703 3866 
L 703 4441 
L 1819 4666 
L 2450 4666 
L 2450 531 
L 3481 531 
L 3481 0 
L 794 0 
L 794 531 
z
" transform="scale(0.015625)"/>
          </defs>
          <use xlink:href="#DejaVuSans-64"/>
          <use xlink:href="#DejaVuSans-31" x="63.476562"/>
         </g>
        </g>
       </g>
       <g id="xtick_3">
        <g id="line2d_3"/>
        <g id="text_3">
         <!-- d2 -->
         <g transform="translate(507.173831 329.120312) scale(0.1 -0.1)">
          <defs>
           <path id="DejaVuSans-32" d="M 1228 531 
L 3431 531 
L 3431 0 
L 469 0 
L 469 531 
Q 828 903 1448 1529 
Q 2069 2156 2228 2338 
Q 2531 2678 2651 2914 
Q 2772 3150 2772 3378 
Q 2772 3750 2511 3984 
Q 2250 4219 1831 4219 
Q 1534 4219 1204 4116 
Q 875 4013 500 3803 
L 500 4441 
Q 881 4594 1212 4672 
Q 1544 4750 1819 4750 
Q 2544 4750 2975 4387 
Q 3406 4025 3406 3419 
Q 3406 3131 3298 2873 
Q 3191 2616 2906 2266 
Q 2828 2175 2409 1742 
Q 1991 1309 1228 531 
z
" transform="scale(0.015625)"/>
          </defs>
          <use xlink:href="#DejaVuSans-64"/>
          <use xlink:href="#DejaVuSans-32" x="63.476562"/>
         </g>
        </g>
       </g>
      </g>
      <g id="matplotlib.axis_2">
       <g id="ytick_1">
        <g id="line2d_4">
         <defs>
          <path id="m9ce8c7bc44" d="M 0 0 
L -3.5 0 
" style="stroke: #000000; stroke-width: 0.8"/>
         </defs>
         <g>
          <use xlink:href="#m9ce8c7bc44" x="46.965625" y="318.021875" style="stroke: #000000; stroke-width: 0.8"/>
         </g>
        </g>
        <g id="text_4">
         <!-- 0 -->
         <g transform="translate(33.603125 321.821094) scale(0.1 -0.1)">
          <use xlink:href="#DejaVuSans-30"/>
         </g>
        </g>
       </g>
       <g id="ytick_2">
        <g id="line2d_5">
         <g>
          <use xlink:href="#m9ce8c7bc44" x="46.965625" y="263.009154" style="stroke: #000000; stroke-width: 0.8"/>
         </g>
        </g>
        <g id="text_5">
         <!-- 20 -->
         <g transform="translate(27.240625 266.808373) scale(0.1 -0.1)">
          <use xlink:href="#DejaVuSans-32"/>
          <use xlink:href="#DejaVuSans-30" x="63.623047"/>
         </g>
        </g>
       </g>
       <g id="ytick_3">
        <g id="line2d_6">
         <g>
          <use xlink:href="#m9ce8c7bc44" x="46.965625" y="207.996433" style="stroke: #000000; stroke-width: 0.8"/>
         </g>
        </g>
        <g id="text_6">
         <!-- 40 -->
         <g transform="translate(27.240625 211.795651) scale(0.1 -0.1)">
          <defs>
           <path id="DejaVuSans-34" d="M 2419 4116 
L 825 1625 
L 2419 1625 
L 2419 4116 
z
M 2253 4666 
L 3047 4666 
L 3047 1625 
L 3713 1625 
L 3713 1100 
L 3047 1100 
L 3047 0 
L 2419 0 
L 2419 1100 
L 313 1100 
L 313 1709 
L 2253 4666 
z
" transform="scale(0.015625)"/>
          </defs>
          <use xlink:href="#DejaVuSans-34"/>
          <use xlink:href="#DejaVuSans-30" x="63.623047"/>
         </g>
        </g>
       </g>
       <g id="ytick_4">
        <g id="line2d_7">
         <g>
          <use xlink:href="#m9ce8c7bc44" x="46.965625" y="152.983711" style="stroke: #000000; stroke-width: 0.8"/>
         </g>
        </g>
        <g id="text_7">
         <!-- 60 -->
         <g transform="translate(27.240625 156.78293) scale(0.1 -0.1)">
          <defs>
           <path id="DejaVuSans-36" d="M 2113 2584 
Q 1688 2584 1439 2293 
Q 1191 2003 1191 1497 
Q 1191 994 1439 701 
Q 1688 409 2113 409 
Q 2538 409 2786 701 
Q 3034 994 3034 1497 
Q 3034 2003 2786 2293 
Q 2538 2584 2113 2584 
z
M 3366 4563 
L 3366 3988 
Q 3128 4100 2886 4159 
Q 2644 4219 2406 4219 
Q 1781 4219 1451 3797 
Q 1122 3375 1075 2522 
Q 1259 2794 1537 2939 
Q 1816 3084 2150 3084 
Q 2853 3084 3261 2657 
Q 3669 2231 3669 1497 
Q 3669 778 3244 343 
Q 2819 -91 2113 -91 
Q 1303 -91 875 529 
Q 447 1150 447 2328 
Q 447 3434 972 4092 
Q 1497 4750 2381 4750 
Q 2619 4750 2861 4703 
Q 3103 4656 3366 4563 
z
" transform="scale(0.015625)"/>
          </defs>
          <use xlink:href="#DejaVuSans-36"/>
          <use xlink:href="#DejaVuSans-30" x="63.623047"/>
         </g>
        </g>
       </g>
       <g id="ytick_5">
        <g id="line2d_8">
         <g>
          <use xlink:href="#m9ce8c7bc44" x="46.965625" y="97.97099" style="stroke: #000000; stroke-width: 0.8"/>
         </g>
        </g>
        <g id="text_8">
         <!-- 80 -->
         <g transform="translate(27.240625 101.770209) scale(0.1 -0.1)">
          <defs>
           <path id="DejaVuSans-38" d="M 2034 2216 
Q 1584 2216 1326 1975 
Q 1069 1734 1069 1313 
Q 1069 891 1326 650 
Q 1584 409 2034 409 
Q 2484 409 2743 651 
Q 3003 894 3003 1313 
Q 3003 1734 2745 1975 
Q 2488 2216 2034 2216 
z
M 1403 2484 
Q 997 2584 770 2862 
Q 544 3141 544 3541 
Q 544 4100 942 4425 
Q 1341 4750 2034 4750 
Q 2731 4750 3128 4425 
Q 3525 4100 3525 3541 
Q 3525 3141 3298 2862 
Q 3072 2584 2669 2484 
Q 3125 2378 3379 2068 
Q 3634 1759 3634 1313 
Q 3634 634 3220 271 
Q 2806 -91 2034 -91 
Q 1263 -91 848 271 
Q 434 634 434 1313 
Q 434 1759 690 2068 
Q 947 2378 1403 2484 
z
M 1172 3481 
Q 1172 3119 1398 2916 
Q 1625 2713 2034 2713 
Q 2441 2713 2670 2916 
Q 2900 3119 2900 3481 
Q 2900 3844 2670 4047 
Q 2441 4250 2034 4250 
Q 1625 4250 1398 4047 
Q 1172 3844 1172 3481 
z
" transform="scale(0.015625)"/>
          </defs>
          <use xlink:href="#DejaVuSans-38"/>
          <use xlink:href="#DejaVuSans-30" x="63.623047"/>
         </g>
        </g>
       </g>
       <g id="ytick_6">
        <g id="line2d_9">
         <g>
          <use xlink:href="#m9ce8c7bc44" x="46.965625" y="42.958269" style="stroke: #000000; stroke-width: 0.8"/>
         </g>
        </g>
        <g id="text_9">
         <!-- 100 -->
         <g transform="translate(20.878125 46.757488) scale(0.1 -0.1)">
          <use xlink:href="#DejaVuSans-31"/>
          <use xlink:href="#DejaVuSans-30" x="63.623047"/>
          <use xlink:href="#DejaVuSans-30" x="127.246094"/>
         </g>
        </g>
       </g>
       <g id="text_10">
        <!-- time ago (generations) -->
        <g transform="translate(14.798438 220.082031) rotate(-90) scale(0.1 -0.1)">
         <defs>
          <path id="DejaVuSans-74" d="M 1172 4494 
L 1172 3500 
L 2356 3500 
L 2356 3053 
L 1172 3053 
L 1172 1153 
Q 1172 725 1289 603 
Q 1406 481 1766 481 
L 2356 481 
L 2356 0 
L 1766 0 
Q 1100 0 847 248 
Q 594 497 594 1153 
L 594 3053 
L 172 3053 
L 172 3500 
L 594 3500 
L 594 4494 
L 1172 4494 
z
" transform="scale(0.015625)"/>
          <path id="DejaVuSans-69" d="M 603 3500 
L 1178 3500 
L 1178 0 
L 603 0 
L 603 3500 
z
M 603 4863 
L 1178 4863 
L 1178 4134 
L 603 4134 
L 603 4863 
z
" transform="scale(0.015625)"/>
          <path id="DejaVuSans-6d" d="M 3328 2828 
Q 3544 3216 3844 3400 
Q 4144 3584 4550 3584 
Q 5097 3584 5394 3201 
Q 5691 2819 5691 2113 
L 5691 0 
L 5113 0 
L 5113 2094 
Q 5113 2597 4934 2840 
Q 4756 3084 4391 3084 
Q 3944 3084 3684 2787 
Q 3425 2491 3425 1978 
L 3425 0 
L 2847 0 
L 2847 2094 
Q 2847 2600 2669 2842 
Q 2491 3084 2119 3084 
Q 1678 3084 1418 2786 
Q 1159 2488 1159 1978 
L 1159 0 
L 581 0 
L 581 3500 
L 1159 3500 
L 1159 2956 
Q 1356 3278 1631 3431 
Q 1906 3584 2284 3584 
Q 2666 3584 2933 3390 
Q 3200 3197 3328 2828 
z
" transform="scale(0.015625)"/>
          <path id="DejaVuSans-65" d="M 3597 1894 
L 3597 1613 
L 953 1613 
Q 991 1019 1311 708 
Q 1631 397 2203 397 
Q 2534 397 2845 478 
Q 3156 559 3463 722 
L 3463 178 
Q 3153 47 2828 -22 
Q 2503 -91 2169 -91 
Q 1331 -91 842 396 
Q 353 884 353 1716 
Q 353 2575 817 3079 
Q 1281 3584 2069 3584 
Q 2775 3584 3186 3129 
Q 3597 2675 3597 1894 
z
M 3022 2063 
Q 3016 2534 2758 2815 
Q 2500 3097 2075 3097 
Q 1594 3097 1305 2825 
Q 1016 2553 972 2059 
L 3022 2063 
z
" transform="scale(0.015625)"/>
          <path id="DejaVuSans-20" transform="scale(0.015625)"/>
          <path id="DejaVuSans-61" d="M 2194 1759 
Q 1497 1759 1228 1600 
Q 959 1441 959 1056 
Q 959 750 1161 570 
Q 1363 391 1709 391 
Q 2188 391 2477 730 
Q 2766 1069 2766 1631 
L 2766 1759 
L 2194 1759 
z
M 3341 1997 
L 3341 0 
L 2766 0 
L 2766 531 
Q 2569 213 2275 61 
Q 1981 -91 1556 -91 
Q 1019 -91 701 211 
Q 384 513 384 1019 
Q 384 1609 779 1909 
Q 1175 2209 1959 2209 
L 2766 2209 
L 2766 2266 
Q 2766 2663 2505 2880 
Q 2244 3097 1772 3097 
Q 1472 3097 1187 3025 
Q 903 2953 641 2809 
L 641 3341 
Q 956 3463 1253 3523 
Q 1550 3584 1831 3584 
Q 2591 3584 2966 3190 
Q 3341 2797 3341 1997 
z
" transform="scale(0.015625)"/>
          <path id="DejaVuSans-67" d="M 2906 1791 
Q 2906 2416 2648 2759 
Q 2391 3103 1925 3103 
Q 1463 3103 1205 2759 
Q 947 2416 947 1791 
Q 947 1169 1205 825 
Q 1463 481 1925 481 
Q 2391 481 2648 825 
Q 2906 1169 2906 1791 
z
M 3481 434 
Q 3481 -459 3084 -895 
Q 2688 -1331 1869 -1331 
Q 1566 -1331 1297 -1286 
Q 1028 -1241 775 -1147 
L 775 -588 
Q 1028 -725 1275 -790 
Q 1522 -856 1778 -856 
Q 2344 -856 2625 -561 
Q 2906 -266 2906 331 
L 2906 616 
Q 2728 306 2450 153 
Q 2172 0 1784 0 
Q 1141 0 747 490 
Q 353 981 353 1791 
Q 353 2603 747 3093 
Q 1141 3584 1784 3584 
Q 2172 3584 2450 3431 
Q 2728 3278 2906 2969 
L 2906 3500 
L 3481 3500 
L 3481 434 
z
" transform="scale(0.015625)"/>
          <path id="DejaVuSans-6f" d="M 1959 3097 
Q 1497 3097 1228 2736 
Q 959 2375 959 1747 
Q 959 1119 1226 758 
Q 1494 397 1959 397 
Q 2419 397 2687 759 
Q 2956 1122 2956 1747 
Q 2956 2369 2687 2733 
Q 2419 3097 1959 3097 
z
M 1959 3584 
Q 2709 3584 3137 3096 
Q 3566 2609 3566 1747 
Q 3566 888 3137 398 
Q 2709 -91 1959 -91 
Q 1206 -91 779 398 
Q 353 888 353 1747 
Q 353 2609 779 3096 
Q 1206 3584 1959 3584 
z
" transform="scale(0.015625)"/>
          <path id="DejaVuSans-28" d="M 1984 4856 
Q 1566 4138 1362 3434 
Q 1159 2731 1159 2009 
Q 1159 1288 1364 580 
Q 1569 -128 1984 -844 
L 1484 -844 
Q 1016 -109 783 600 
Q 550 1309 550 2009 
Q 550 2706 781 3412 
Q 1013 4119 1484 4856 
L 1984 4856 
z
" transform="scale(0.015625)"/>
          <path id="DejaVuSans-6e" d="M 3513 2113 
L 3513 0 
L 2938 0 
L 2938 2094 
Q 2938 2591 2744 2837 
Q 2550 3084 2163 3084 
Q 1697 3084 1428 2787 
Q 1159 2491 1159 1978 
L 1159 0 
L 581 0 
L 581 3500 
L 1159 3500 
L 1159 2956 
Q 1366 3272 1645 3428 
Q 1925 3584 2291 3584 
Q 2894 3584 3203 3211 
Q 3513 2838 3513 2113 
z
" transform="scale(0.015625)"/>
          <path id="DejaVuSans-72" d="M 2631 2963 
Q 2534 3019 2420 3045 
Q 2306 3072 2169 3072 
Q 1681 3072 1420 2755 
Q 1159 2438 1159 1844 
L 1159 0 
L 581 0 
L 581 3500 
L 1159 3500 
L 1159 2956 
Q 1341 3275 1631 3429 
Q 1922 3584 2338 3584 
Q 2397 3584 2469 3576 
Q 2541 3569 2628 3553 
L 2631 2963 
z
" transform="scale(0.015625)"/>
          <path id="DejaVuSans-73" d="M 2834 3397 
L 2834 2853 
Q 2591 2978 2328 3040 
Q 2066 3103 1784 3103 
Q 1356 3103 1142 2972 
Q 928 2841 928 2578 
Q 928 2378 1081 2264 
Q 1234 2150 1697 2047 
L 1894 2003 
Q 2506 1872 2764 1633 
Q 3022 1394 3022 966 
Q 3022 478 2636 193 
Q 2250 -91 1575 -91 
Q 1294 -91 989 -36 
Q 684 19 347 128 
L 347 722 
Q 666 556 975 473 
Q 1284 391 1588 391 
Q 1994 391 2212 530 
Q 2431 669 2431 922 
Q 2431 1156 2273 1281 
Q 2116 1406 1581 1522 
L 1381 1569 
Q 847 1681 609 1914 
Q 372 2147 372 2553 
Q 372 3047 722 3315 
Q 1072 3584 1716 3584 
Q 2034 3584 2315 3537 
Q 2597 3491 2834 3397 
z
" transform="scale(0.015625)"/>
          <path id="DejaVuSans-29" d="M 513 4856 
L 1013 4856 
Q 1481 4119 1714 3412 
Q 1947 2706 1947 2009 
Q 1947 1309 1714 600 
Q 1481 -109 1013 -844 
L 513 -844 
Q 928 -128 1133 580 
Q 1338 1288 1338 2009 
Q 1338 2731 1133 3434 
Q 928 4138 513 4856 
z
" transform="scale(0.015625)"/>
         </defs>
         <use xlink:href="#DejaVuSans-74"/>
         <use xlink:href="#DejaVuSans-69" x="39.208984"/>
         <use xlink:href="#DejaVuSans-6d" x="66.992188"/>
         <use xlink:href="#DejaVuSans-65" x="164.404297"/>
         <use xlink:href="#DejaVuSans-20" x="225.927734"/>
         <use xlink:href="#DejaVuSans-61" x="257.714844"/>
         <use xlink:href="#DejaVuSans-67" x="318.994141"/>
         <use xlink:href="#DejaVuSans-6f" x="382.470703"/>
         <use xlink:href="#DejaVuSans-20" x="443.652344"/>
         <use xlink:href="#DejaVuSans-28" x="475.439453"/>
         <use xlink:href="#DejaVuSans-67" x="514.453125"/>
         <use xlink:href="#DejaVuSans-65" x="577.929688"/>
         <use xlink:href="#DejaVuSans-6e" x="639.453125"/>
         <use xlink:href="#DejaVuSans-65" x="702.832031"/>
         <use xlink:href="#DejaVuSans-72" x="764.355469"/>
         <use xlink:href="#DejaVuSans-61" x="805.46875"/>
         <use xlink:href="#DejaVuSans-74" x="866.748047"/>
         <use xlink:href="#DejaVuSans-69" x="905.957031"/>
         <use xlink:href="#DejaVuSans-6f" x="933.740234"/>
         <use xlink:href="#DejaVuSans-6e" x="994.921875"/>
         <use xlink:href="#DejaVuSans-73" x="1058.300781"/>
         <use xlink:href="#DejaVuSans-29" x="1110.400391"/>
        </g>
       </g>
      </g>
      <path d="M 257.619695 34.408111 
L 255.619695 33.408111 
L 255.619695 35.408111 
z
" clip-path="url(#p7b61411dc4)" style="fill: #1f77b4; fill-opacity: 0.5; stroke: #1f77b4; stroke-opacity: 0.5; stroke-linejoin: miter"/>
      <path d="M 257.619695 29.03847 
L 255.619695 28.03847 
L 255.619695 30.03847 
z
" clip-path="url(#p7b61411dc4)" style="fill: #1f77b4; fill-opacity: 0.5; stroke: #1f77b4; stroke-opacity: 0.5; stroke-linejoin: miter"/>
      <path d="M 257.619695 275.499389 
L 255.619695 274.499389 
L 255.619695 276.499389 
z
" clip-path="url(#p7b61411dc4)" style="fill: #1f77b4; fill-opacity: 0.5; stroke: #1f77b4; stroke-opacity: 0.5; stroke-linejoin: miter"/>
      <path d="M 257.619695 261.242112 
L 255.619695 260.242112 
L 255.619695 262.242112 
z
" clip-path="url(#p7b61411dc4)" style="fill: #1f77b4; fill-opacity: 0.5; stroke: #1f77b4; stroke-opacity: 0.5; stroke-linejoin: miter"/>
      <path d="M 257.619695 146.231171 
L 255.619695 145.231171 
L 255.619695 147.231171 
z
" clip-path="url(#p7b61411dc4)" style="fill: #1f77b4; fill-opacity: 0.5; stroke: #1f77b4; stroke-opacity: 0.5; stroke-linejoin: miter"/>
      <path d="M 257.619695 188.002064 
L 255.619695 187.002064 
L 255.619695 189.002064 
z
" clip-path="url(#p7b61411dc4)" style="fill: #1f77b4; fill-opacity: 0.5; stroke: #1f77b4; stroke-opacity: 0.5; stroke-linejoin: miter"/>
      <path d="M 257.619695 228.222959 
L 255.619695 227.222959 
L 255.619695 229.222959 
z
" clip-path="url(#p7b61411dc4)" style="fill: #1f77b4; fill-opacity: 0.5; stroke: #1f77b4; stroke-opacity: 0.5; stroke-linejoin: miter"/>
      <path d="M 257.619695 152.770727 
L 255.619695 151.770727 
L 255.619695 153.770727 
z
" clip-path="url(#p7b61411dc4)" style="fill: #1f77b4; fill-opacity: 0.5; stroke: #1f77b4; stroke-opacity: 0.5; stroke-linejoin: miter"/>
      <path d="M 257.619695 293.208776 
L 255.619695 292.208776 
L 255.619695 294.208776 
z
" clip-path="url(#p7b61411dc4)" style="fill: #1f77b4; fill-opacity: 0.5; stroke: #1f77b4; stroke-opacity: 0.5; stroke-linejoin: miter"/>
      <path d="M 257.619695 258.339083 
L 255.619695 257.339083 
L 255.619695 259.339083 
z
" clip-path="url(#p7b61411dc4)" style="fill: #1f77b4; fill-opacity: 0.5; stroke: #1f77b4; stroke-opacity: 0.5; stroke-linejoin: miter"/>
      <path d="M 199.299443 24.689059 
L 201.299443 25.689059 
L 201.299443 23.689059 
z
" clip-path="url(#p7b61411dc4)" style="fill: #ff7f0e; fill-opacity: 0.5; stroke: #ff7f0e; stroke-opacity: 0.5; stroke-linejoin: miter"/>
      <path d="M 199.299443 209.919961 
L 201.299443 210.919961 
L 201.299443 208.919961 
z
" clip-path="url(#p7b61411dc4)" style="fill: #ff7f0e; fill-opacity: 0.5; stroke: #ff7f0e; stroke-opacity: 0.5; stroke-linejoin: miter"/>
      <path d="M 199.299443 155.102878 
L 201.299443 156.102878 
L 201.299443 154.102878 
z
" clip-path="url(#p7b61411dc4)" style="fill: #ff7f0e; fill-opacity: 0.5; stroke: #ff7f0e; stroke-opacity: 0.5; stroke-linejoin: miter"/>
      <path d="M 199.299443 283.017747 
L 201.299443 284.017747 
L 201.299443 282.017747 
z
" clip-path="url(#p7b61411dc4)" style="fill: #ff7f0e; fill-opacity: 0.5; stroke: #ff7f0e; stroke-opacity: 0.5; stroke-linejoin: miter"/>
      <path d="M 199.299443 54.275951 
L 201.299443 55.275951 
L 201.299443 53.275951 
z
" clip-path="url(#p7b61411dc4)" style="fill: #ff7f0e; fill-opacity: 0.5; stroke: #ff7f0e; stroke-opacity: 0.5; stroke-linejoin: miter"/>
      <path d="M 199.299443 114.077803 
L 201.299443 115.077803 
L 201.299443 113.077803 
z
" clip-path="url(#p7b61411dc4)" style="fill: #ff7f0e; fill-opacity: 0.5; stroke: #ff7f0e; stroke-opacity: 0.5; stroke-linejoin: miter"/>
      <path d="M 199.299443 263.579014 
L 201.299443 264.579014 
L 201.299443 262.579014 
z
" clip-path="url(#p7b61411dc4)" style="fill: #ff7f0e; fill-opacity: 0.5; stroke: #ff7f0e; stroke-opacity: 0.5; stroke-linejoin: miter"/>
      <path d="M 199.299443 272.876287 
L 201.299443 273.876287 
L 201.299443 271.876287 
z
" clip-path="url(#p7b61411dc4)" style="fill: #ff7f0e; fill-opacity: 0.5; stroke: #ff7f0e; stroke-opacity: 0.5; stroke-linejoin: miter"/>
      <path d="M 199.299443 88.838553 
L 201.299443 89.838553 
L 201.299443 87.838553 
z
" clip-path="url(#p7b61411dc4)" style="fill: #ff7f0e; fill-opacity: 0.5; stroke: #ff7f0e; stroke-opacity: 0.5; stroke-linejoin: miter"/>
      <path d="M 199.299443 290.689842 
L 201.299443 291.689842 
L 201.299443 289.689842 
z
" clip-path="url(#p7b61411dc4)" style="fill: #ff7f0e; fill-opacity: 0.5; stroke: #ff7f0e; stroke-opacity: 0.5; stroke-linejoin: miter"/>
      <path d="M 447.666182 275.518027 
L 445.666182 274.518027 
L 445.666182 276.518027 
z
" clip-path="url(#p7b61411dc4)" style="fill: #ff7f0e; fill-opacity: 0.5; stroke: #ff7f0e; stroke-opacity: 0.5; stroke-linejoin: miter"/>
      <path d="M 447.666182 297.151853 
L 445.666182 296.151853 
L 445.666182 298.151853 
z
" clip-path="url(#p7b61411dc4)" style="fill: #ff7f0e; fill-opacity: 0.5; stroke: #ff7f0e; stroke-opacity: 0.5; stroke-linejoin: miter"/>
      <path d="M 447.666182 193.626092 
L 445.666182 192.626092 
L 445.666182 194.626092 
z
" clip-path="url(#p7b61411dc4)" style="fill: #ff7f0e; fill-opacity: 0.5; stroke: #ff7f0e; stroke-opacity: 0.5; stroke-linejoin: miter"/>
      <path d="M 447.666182 67.019745 
L 445.666182 66.019745 
L 445.666182 68.019745 
z
" clip-path="url(#p7b61411dc4)" style="fill: #ff7f0e; fill-opacity: 0.5; stroke: #ff7f0e; stroke-opacity: 0.5; stroke-linejoin: miter"/>
      <path d="M 447.666182 289.858145 
L 445.666182 288.858145 
L 445.666182 290.858145 
z
" clip-path="url(#p7b61411dc4)" style="fill: #ff7f0e; fill-opacity: 0.5; stroke: #ff7f0e; stroke-opacity: 0.5; stroke-linejoin: miter"/>
      <path d="M 447.666182 217.755054 
L 445.666182 216.755054 
L 445.666182 218.755054 
z
" clip-path="url(#p7b61411dc4)" style="fill: #ff7f0e; fill-opacity: 0.5; stroke: #ff7f0e; stroke-opacity: 0.5; stroke-linejoin: miter"/>
      <path d="M 447.666182 127.340539 
L 445.666182 126.340539 
L 445.666182 128.340539 
z
" clip-path="url(#p7b61411dc4)" style="fill: #ff7f0e; fill-opacity: 0.5; stroke: #ff7f0e; stroke-opacity: 0.5; stroke-linejoin: miter"/>
      <path d="M 447.666182 45.19291 
L 445.666182 44.19291 
L 445.666182 46.19291 
z
" clip-path="url(#p7b61411dc4)" style="fill: #ff7f0e; fill-opacity: 0.5; stroke: #ff7f0e; stroke-opacity: 0.5; stroke-linejoin: miter"/>
      <path d="M 447.666182 250.902287 
L 445.666182 249.902287 
L 445.666182 251.902287 
z
" clip-path="url(#p7b61411dc4)" style="fill: #ff7f0e; fill-opacity: 0.5; stroke: #ff7f0e; stroke-opacity: 0.5; stroke-linejoin: miter"/>
      <path d="M 447.666182 130.634588 
L 445.666182 129.634588 
L 445.666182 131.634588 
z
" clip-path="url(#p7b61411dc4)" style="fill: #ff7f0e; fill-opacity: 0.5; stroke: #ff7f0e; stroke-opacity: 0.5; stroke-linejoin: miter"/>
      <path d="M 389.34593 31.254946 
L 391.34593 32.254946 
L 391.34593 30.254946 
z
" clip-path="url(#p7b61411dc4)" style="fill: #2ca02c; fill-opacity: 0.5; stroke: #2ca02c; stroke-opacity: 0.5; stroke-linejoin: miter"/>
      <path d="M 389.34593 30.659986 
L 391.34593 31.659986 
L 391.34593 29.659986 
z
" clip-path="url(#p7b61411dc4)" style="fill: #2ca02c; fill-opacity: 0.5; stroke: #2ca02c; stroke-opacity: 0.5; stroke-linejoin: miter"/>
      <path d="M 389.34593 55.691203 
L 391.34593 56.691203 
L 391.34593 54.691203 
z
" clip-path="url(#p7b61411dc4)" style="fill: #2ca02c; fill-opacity: 0.5; stroke: #2ca02c; stroke-opacity: 0.5; stroke-linejoin: miter"/>
      <path d="M 389.34593 24.149616 
L 391.34593 25.149616 
L 391.34593 23.149616 
z
" clip-path="url(#p7b61411dc4)" style="fill: #2ca02c; fill-opacity: 0.5; stroke: #2ca02c; stroke-opacity: 0.5; stroke-linejoin: miter"/>
      <path d="M 389.34593 287.40897 
L 391.34593 288.40897 
L 391.34593 286.40897 
z
" clip-path="url(#p7b61411dc4)" style="fill: #2ca02c; fill-opacity: 0.5; stroke: #2ca02c; stroke-opacity: 0.5; stroke-linejoin: miter"/>
      <path d="M 389.34593 85.254752 
L 391.34593 86.254752 
L 391.34593 84.254752 
z
" clip-path="url(#p7b61411dc4)" style="fill: #2ca02c; fill-opacity: 0.5; stroke: #2ca02c; stroke-opacity: 0.5; stroke-linejoin: miter"/>
      <path d="M 389.34593 305.502246 
L 391.34593 306.502246 
L 391.34593 304.502246 
z
" clip-path="url(#p7b61411dc4)" style="fill: #2ca02c; fill-opacity: 0.5; stroke: #2ca02c; stroke-opacity: 0.5; stroke-linejoin: miter"/>
      <path d="M 389.34593 171.831409 
L 391.34593 172.831409 
L 391.34593 170.831409 
z
" clip-path="url(#p7b61411dc4)" style="fill: #2ca02c; fill-opacity: 0.5; stroke: #2ca02c; stroke-opacity: 0.5; stroke-linejoin: miter"/>
      <path d="M 389.34593 70.284562 
L 391.34593 71.284562 
L 391.34593 69.284562 
z
" clip-path="url(#p7b61411dc4)" style="fill: #2ca02c; fill-opacity: 0.5; stroke: #2ca02c; stroke-opacity: 0.5; stroke-linejoin: miter"/>
      <path d="M 389.34593 265.313407 
L 391.34593 266.313407 
L 391.34593 264.313407 
z
" clip-path="url(#p7b61411dc4)" style="fill: #2ca02c; fill-opacity: 0.5; stroke: #2ca02c; stroke-opacity: 0.5; stroke-linejoin: miter"/>
      <g id="patch_6">
       <path d="M 46.965625 318.021875 
L 46.965625 7.2 
" style="fill: none; stroke: #000000; stroke-width: 0.8; stroke-linejoin: miter; stroke-linecap: square"/>
      </g>
     </g>
    </g>
    <defs>
     <clipPath id="p7b61411dc4">
      <rect x="46.965625" y="7.2" width="553.034375" height="310.821875"/>
     </clipPath>
    </defs>
   </g>
  </g>
 </g>
</svg>