<?xml version="1.0" encoding="utf-8" standalone="no"?>
<!DOCTYPE svg PUBLIC "-//W3C//DTD SVG 1.1//EN"
  "http://www.w3.org/Graphics/SVG/1.1/DTD/svg11.dtd">
<svg xmlns:xlink="http://www.w3.org/1999/xlink" width="607.2pt" height="338.4pt" viewBox="0 0 607.2 338.4" xmlns="http://www.w3.org/2000/svg" version="1.1">
 <metadata>
  <rdf:RDF xmlns:dc="http://purl.org/dc/elements/1.1/" xmlns:cc="http://creativecommons.org/ns#" xmlns:rdf="http://www.w3.org/1999/02/22-rdf-syntax-ns#">
   <cc:Work>
    <dc:type rdf:resource="http://purl.org/dc/dcmitype/StillImage"/>
    <dc:date>2026-06-08T08:52:13.321594</dc:date>
    <dc:format>image/svg+xml</dc:format>
    <dc:creator>
     <cc:Agent>
      <dc:title>Matplotlib v3.10.8, https://matplotlib.org/</dc:title>
     </cc:Agent>
    </dc:creator>
   </cc:Work>
  </rdf:RDF>
 </metadata>
 <defs>
  <style type="text/css">*{stroke-linejoin: round; stroke-linecap: butt}</style>
 </defs>
 <g id="figure_1">
  <g id="patch_1">
   <path d="M 0 338.4 
L 607.2 338.4 
L 607.2 0 
L 0 0 
z
" style="fill: #ffffff"/>
  </g>
  <g id="axes_1">
   <g id="patch_2">
    <path d="M 46.965625 318.021875 
L 600 318.021875 
L 600 22.318125 
L 46.965625 22.318125 
z
" style="fill: #ffffff"/>
   </g>
   <g id="line2d_1">
    <path d="M 200.299442 64.095707 
L 201.299442 64.127144 
L 202.299442 64.164084 
L 203.299442 64.261831 
L 204.299442 64.294352 
L 205.299442 64.367977 
L 206.299442 64.406543 
L 207.299442 64.441956 
L 208.299442 64.499596 
L 209.299442 64.569982 
L 210.299442 64.621946 
L 211.299442 64.681036 
L 212.299442 64.769357 
L 213.299442 64.815501 
L 214.299442 64.857912 
L 215.299442 64.888405 
L 216.299442 64.91445 
L 217.299442 64.93565 
L 218.299442 64.989951 
L 219.299442 65.017888 
L 220.299442 65.047612 
L 221.299442 65.073007 
L 222.299442 65.084208 
L 223.299442 65.094332 
L 224.299442 65.094127 
L 225.299442 65.084617 
L 226.299442 65.072964 
L 227.299442 65.041934 
L 228.299442 65.030767 
L 229.299442 65.000649 
L 230.299442 64.940872 
L 231.299442 64.903681 
L 232.299442 64.864584 
L 233.299442 64.822145 
L 234.299442 64.78938 
L 235.299442 64.721953 
L 236.299442 64.682827 
L 237.299442 64.640153 
L 238.299442 64.569572 
L 239.299442 64.533181 
L 240.299442 64.474778 
L 241.299442 64.363826 
L 242.299442 64.293167 
L 243.299442 64.180227 
L 244.299442 64.134455 
L 245.299442 64.073171 
L 246.299442 64.024672 
L 247.299442 63.943849 
L 248.299442 63.82533 
L 249.299442 63.75512 
L 250.299442 63.671857 
L 251.299442 63.638715 
L 252.299442 63.587478 
L 253.299442 63.51908 
L 254.299442 63.452864 
L 255.299442 63.375947 
L 256.619695 63.348632 
" clip-path="url(#p51a5a06126)" style="fill: none; stroke: #1f77b4; stroke-opacity: 0.5; stroke-width: 0.2; stroke-linecap: square"/>
   </g>
   <g id="line2d_2">
    <path d="M 200.299442 224.868327 
L 201.299442 224.899764 
L 202.299442 224.936704 
L 203.299442 225.034451 
L 204.299442 225.066972 
L 205.299442 225.140597 
L 206.299442 225.179163 
L 207.299442 225.214576 
L 208.299442 225.272216 
L 209.299442 225.342602 
L 210.299442 225.394566 
L 211.299442 225.453656 
L 212.299442 225.541977 
L 213.299442 225.588121 
L 214.299442 225.630532 
L 215.299442 225.661025 
L 216.299442 225.68707 
L 217.299442 225.70827 
L 218.299442 225.762571 
L 219.299442 225.790508 
L 220.299442 225.820232 
L 221.299442 225.845627 
L 222.299442 225.856828 
L 223.299442 225.866952 
L 224.299442 225.866747 
L 225.299442 225.857237 
L 226.299442 225.845584 
L 227.299442 225.814554 
L 228.299442 225.803387 
L 229.299442 225.773269 
L 230.299442 225.713492 
L 231.299442 225.676301 
L 232.299442 225.637204 
L 233.299442 225.594765 
L 234.299442 225.562 
L 235.299442 225.494573 
L 236.299442 225.455447 
L 237.299442 225.412773 
L 238.299442 225.342192 
L 239.299442 225.305801 
L 240.299442 225.247398 
L 241.299442 225.136446 
L 242.299442 225.065787 
L 243.299442 224.952847 
L 244.299442 224.907075 
L 245.299442 224.845791 
L 246.299442 224.797292 
L 247.299442 224.716469 
L 248.299442 224.59795 
L 249.299442 224.52774 
L 250.299442 224.444477 
L 251.299442 224.411336 
L 252.299442 224.360098 
L 253.299442 224.2917 
L 254.299442 224.225484 
L 255.299442 224.148567 
L 256.619695 224.121252 
" clip-path="url(#p51a5a06126)" style="fill: none; stroke: #1f77b4; stroke-opacity: 0.5; stroke-width: 0.2; stroke-linecap: square"/>
   </g>
   <g id="line2d_3">
    <path d="M 200.299442 217.062002 
L 201.299442 217.093438 
L 202.299442 217.130379 
L 203.299442 217.228125 
L 204.299442 217.260647 
L 205.299442 217.334272 
L 206.299442 217.372837 
L 207.299442 217.40825 
L 208.299442 217.46589 
L 209.299442 217.536276 
L 210.299442 217.588241 
L 211.299442 217.64733 
L 212.299442 217.735651 
L 213.299442 217.781796 
L 214.299442 217.824207 
L 215.299442 217.854699 
L 216.299442 217.880744 
L 217.299442 217.901944 
L 218.299442 217.956245 
L 219.299442 217.984183 
L 220.299442 218.013907 
L 221.299442 218.039302 
L 222.299442 218.050502 
L 223.299442 218.060626 
L 224.299442 218.060422 
L 225.299442 218.050912 
L 226.299442 218.039258 
L 227.299442 218.008229 
L 228.299442 217.997061 
L 229.299442 217.966944 
L 230.299442 217.907167 
L 231.299442 217.869975 
L 232.299442 217.830879 
L 233.299442 217.788439 
L 234.299442 217.755674 
L 235.299442 217.688248 
L 236.299442 217.649122 
L 237.299442 217.606447 
L 238.299442 217.535867 
L 239.299442 217.499476 
L 240.299442 217.441073 
L 241.299442 217.33012 
L 242.299442 217.259462 
L 243.299442 217.146522 
L 244.299442 217.100749 
L 245.299442 217.039466 
L 246.299442 216.990967 
L 247.299442 216.910144 
L 248.299442 216.791625 
L 249.299442 216.721414 
L 250.299442 216.638152 
L 251.299442 216.60501 
L 252.299442 216.553773 
L 253.299442 216.485374 
L 254.299442 216.419159 
L 255.299442 216.342242 
L 256.619695 216.314926 
" clip-path="url(#p51a5a06126)" style="fill: none; stroke: #1f77b4; stroke-opacity: 0.5; stroke-width: 0.2; stroke-linecap: square"/>
   </g>
   <g id="line2d_4">
    <path d="M 200.299442 293.682499 
L 201.299442 293.713935 
L 202.299442 293.750875 
L 203.299442 293.848622 
L 204.299442 293.881143 
L 205.299442 293.954768 
L 206.299442 293.993334 
L 207.299442 294.028747 
L 208.299442 294.086387 
L 209.299442 294.156773 
L 210.299442 294.208737 
L 211.299442 294.267827 
L 212.299442 294.356148 
L 213.299442 294.402292 
L 214.299442 294.444703 
L 215.299442 294.475196 
L 216.299442 294.501241 
L 217.299442 294.522441 
L 218.299442 294.576742 
L 219.299442 294.60468 
L 220.299442 294.634404 
L 221.299442 294.659798 
L 222.299442 294.670999 
L 223.299442 294.681123 
L 224.299442 294.680918 
L 225.299442 294.671408 
L 226.299442 294.659755 
L 227.299442 294.628726 
L 228.299442 294.617558 
L 229.299442 294.58744 
L 230.299442 294.527663 
L 231.299442 294.490472 
L 232.299442 294.451376 
L 233.299442 294.408936 
L 234.299442 294.376171 
L 235.299442 294.308744 
L 236.299442 294.269618 
L 237.299442 294.226944 
L 238.299442 294.156363 
L 239.299442 294.119972 
L 240.299442 294.061569 
L 241.299442 293.950617 
L 242.299442 293.879958 
L 243.299442 293.767019 
L 244.299442 293.721246 
L 245.299442 293.659962 
L 246.299442 293.611463 
L 247.299442 293.53064 
L 248.299442 293.412122 
L 249.299442 293.341911 
L 250.299442 293.258648 
L 251.299442 293.225507 
L 252.299442 293.174269 
L 253.299442 293.105871 
L 254.299442 293.039656 
L 255.299442 292.962738 
L 256.619695 292.935423 
" clip-path="url(#p51a5a06126)" style="fill: none; stroke: #1f77b4; stroke-opacity: 0.5; stroke-width: 0.2; stroke-linecap: square"/>
   </g>
   <g id="line2d_5">
    <path d="M 200.299442 111.251602 
L 201.299442 111.283038 
L 202.299442 111.319978 
L 203.299442 111.417725 
L 204.299442 111.450246 
L 205.299442 111.523871 
L 206.299442 111.562437 
L 207.299442 111.59785 
L 208.299442 111.65549 
L 209.299442 111.725876 
L 210.299442 111.77784 
L 211.299442 111.83693 
L 212.299442 111.925251 
L 213.299442 111.971395 
L 214.299442 112.013806 
L 215.299442 112.044299 
L 216.299442 112.070344 
L 217.299442 112.091544 
L 218.299442 112.145845 
L 219.299442 112.173783 
L 220.299442 112.203507 
L 221.299442 112.228901 
L 222.299442 112.240102 
L 223.299442 112.250226 
L 224.299442 112.250021 
L 225.299442 112.240512 
L 226.299442 112.228858 
L 227.299442 112.197829 
L 228.299442 112.186661 
L 229.299442 112.156543 
L 230.299442 112.096766 
L 231.299442 112.059575 
L 232.299442 112.020479 
L 233.299442 111.978039 
L 234.299442 111.945274 
L 235.299442 111.877847 
L 236.299442 111.838722 
L 237.299442 111.796047 
L 238.299442 111.725466 
L 239.299442 111.689076 
L 240.299442 111.630672 
L 241.299442 111.51972 
L 242.299442 111.449061 
L 243.299442 111.336122 
L 244.299442 111.290349 
L 245.299442 111.229066 
L 246.299442 111.180566 
L 247.299442 111.099744 
L 248.299442 110.981225 
L 249.299442 110.911014 
L 250.299442 110.827751 
L 251.299442 110.79461 
L 252.299442 110.743372 
L 253.299442 110.674974 
L 254.299442 110.608759 
L 255.299442 110.531842 
L 256.619695 110.504526 
" clip-path="url(#p51a5a06126)" style="fill: none; stroke: #1f77b4; stroke-opacity: 0.5; stroke-width: 0.2; stroke-linecap: square"/>
   </g>
   <g id="line2d_6">
    <path d="M 200.299442 55.630231 
L 201.299442 55.661668 
L 202.299442 55.698608 
L 203.299442 55.796354 
L 204.299442 55.828876 
L 205.299442 55.902501 
L 206.299442 55.941066 
L 207.299442 55.97648 
L 208.299442 56.034119 
L 209.299442 56.104506 
L 210.299442 56.15647 
L 211.299442 56.21556 
L 212.299442 56.303881 
L 213.299442 56.350025 
L 214.299442 56.392436 
L 215.299442 56.422928 
L 216.299442 56.448973 
L 217.299442 56.470174 
L 218.299442 56.524475 
L 219.299442 56.552412 
L 220.299442 56.582136 
L 221.299442 56.607531 
L 222.299442 56.618731 
L 223.299442 56.628855 
L 224.299442 56.628651 
L 225.299442 56.619141 
L 226.299442 56.607488 
L 227.299442 56.576458 
L 228.299442 56.56529 
L 229.299442 56.535173 
L 230.299442 56.475396 
L 231.299442 56.438204 
L 232.299442 56.399108 
L 233.299442 56.356669 
L 234.299442 56.323904 
L 235.299442 56.256477 
L 236.299442 56.217351 
L 237.299442 56.174677 
L 238.299442 56.104096 
L 239.299442 56.067705 
L 240.299442 56.009302 
L 241.299442 55.898349 
L 242.299442 55.827691 
L 243.299442 55.714751 
L 244.299442 55.668978 
L 245.299442 55.607695 
L 246.299442 55.559196 
L 247.299442 55.478373 
L 248.299442 55.359854 
L 249.299442 55.289644 
L 250.299442 55.206381 
L 251.299442 55.173239 
L 252.299442 55.122002 
L 253.299442 55.053604 
L 254.299442 54.987388 
L 255.299442 54.910471 
L 256.619695 54.883156 
" clip-path="url(#p51a5a06126)" style="fill: none; stroke: #1f77b4; stroke-opacity: 0.5; stroke-width: 0.2; stroke-linecap: square"/>
   </g>
   <g id="line2d_7">
    <path d="M 200.299442 255.628934 
L 201.299442 255.660371 
L 202.299442 255.697311 
L 203.299442 255.795058 
L 204.299442 255.827579 
L 205.299442 255.901204 
L 206.299442 255.939769 
L 207.299442 255.975183 
L 208.299442 256.032823 
L 209.299442 256.103209 
L 210.299442 256.155173 
L 211.299442 256.214263 
L 212.299442 256.302584 
L 213.299442 256.348728 
L 214.299442 256.391139 
L 215.299442 256.421632 
L 216.299442 256.447677 
L 217.299442 256.468877 
L 218.299442 256.523178 
L 219.299442 256.551115 
L 220.299442 256.580839 
L 221.299442 256.606234 
L 222.299442 256.617434 
L 223.299442 256.627558 
L 224.299442 256.627354 
L 225.299442 256.617844 
L 226.299442 256.606191 
L 227.299442 256.575161 
L 228.299442 256.563993 
L 229.299442 256.533876 
L 230.299442 256.474099 
L 231.299442 256.436907 
L 232.299442 256.397811 
L 233.299442 256.355372 
L 234.299442 256.322607 
L 235.299442 256.25518 
L 236.299442 256.216054 
L 237.299442 256.17338 
L 238.299442 256.102799 
L 239.299442 256.066408 
L 240.299442 256.008005 
L 241.299442 255.897052 
L 242.299442 255.826394 
L 243.299442 255.713454 
L 244.299442 255.667681 
L 245.299442 255.606398 
L 246.299442 255.557899 
L 247.299442 255.477076 
L 248.299442 255.358557 
L 249.299442 255.288347 
L 250.299442 255.205084 
L 251.299442 255.171942 
L 252.299442 255.120705 
L 253.299442 255.052307 
L 254.299442 254.986091 
L 255.299442 254.909174 
L 256.619695 254.881859 
" clip-path="url(#p51a5a06126)" style="fill: none; stroke: #1f77b4; stroke-opacity: 0.5; stroke-width: 0.2; stroke-linecap: square"/>
   </g>
   <g id="line2d_8">
    <path d="M 200.299442 316.822946 
L 201.299442 316.854382 
L 202.299442 316.891323 
L 203.299442 316.989069 
L 204.299442 317.021591 
L 205.299442 317.095216 
L 206.299442 317.133781 
L 207.299442 317.169194 
L 208.299442 317.226834 
L 209.299442 317.29722 
L 210.299442 317.349185 
L 211.299442 317.408274 
L 212.299442 317.496595 
L 213.299442 317.54274 
L 214.299442 317.585151 
L 215.299442 317.615643 
L 216.299442 317.641688 
L 217.299442 317.662888 
L 218.299442 317.717189 
L 219.299442 317.745127 
L 220.299442 317.774851 
L 221.299442 317.800246 
L 222.299442 317.811446 
L 223.299442 317.82157 
L 224.299442 317.821366 
L 225.299442 317.811856 
L 226.299442 317.800202 
L 227.299442 317.769173 
L 228.299442 317.758005 
L 229.299442 317.727888 
L 230.299442 317.668111 
L 231.299442 317.630919 
L 232.299442 317.591823 
L 233.299442 317.549383 
L 234.299442 317.516618 
L 235.299442 317.449192 
L 236.299442 317.410066 
L 237.299442 317.367391 
L 238.299442 317.296811 
L 239.299442 317.26042 
L 240.299442 317.202017 
L 241.299442 317.091064 
L 242.299442 317.020406 
L 243.299442 316.907466 
L 244.299442 316.861693 
L 245.299442 316.80041 
L 246.299442 316.751911 
L 247.299442 316.671088 
L 248.299442 316.552569 
L 249.299442 316.482358 
L 250.299442 316.399096 
L 251.299442 316.365954 
L 252.299442 316.314717 
L 253.299442 316.246318 
L 254.299442 316.180103 
L 255.299442 316.103186 
L 256.619695 316.07587 
" clip-path="url(#p51a5a06126)" style="fill: none; stroke: #1f77b4; stroke-opacity: 0.5; stroke-width: 0.2; stroke-linecap: square"/>
   </g>
   <g id="line2d_9">
    <path d="M 200.299442 167.91745 
L 201.299442 167.948887 
L 202.299442 167.985827 
L 203.299442 168.083574 
L 204.299442 168.116095 
L 205.299442 168.18972 
L 206.299442 168.228285 
L 207.299442 168.263699 
L 208.299442 168.321339 
L 209.299442 168.391725 
L 210.299442 168.443689 
L 211.299442 168.502779 
L 212.299442 168.5911 
L 213.299442 168.637244 
L 214.299442 168.679655 
L 215.299442 168.710148 
L 216.299442 168.736193 
L 217.299442 168.757393 
L 218.299442 168.811694 
L 219.299442 168.839631 
L 220.299442 168.869355 
L 221.299442 168.89475 
L 222.299442 168.90595 
L 223.299442 168.916074 
L 224.299442 168.91587 
L 225.299442 168.90636 
L 226.299442 168.894707 
L 227.299442 168.863677 
L 228.299442 168.852509 
L 229.299442 168.822392 
L 230.299442 168.762615 
L 231.299442 168.725423 
L 232.299442 168.686327 
L 233.299442 168.643888 
L 234.299442 168.611123 
L 235.299442 168.543696 
L 236.299442 168.50457 
L 237.299442 168.461896 
L 238.299442 168.391315 
L 239.299442 168.354924 
L 240.299442 168.296521 
L 241.299442 168.185568 
L 242.299442 168.11491 
L 243.299442 168.00197 
L 244.299442 167.956197 
L 245.299442 167.894914 
L 246.299442 167.846415 
L 247.299442 167.765592 
L 248.299442 167.647073 
L 249.299442 167.576863 
L 250.299442 167.4936 
L 251.299442 167.460458 
L 252.299442 167.409221 
L 253.299442 167.340823 
L 254.299442 167.274607 
L 255.299442 167.19769 
L 256.619695 167.170375 
" clip-path="url(#p51a5a06126)" style="fill: none; stroke: #1f77b4; stroke-opacity: 0.5; stroke-width: 0.2; stroke-linecap: square"/>
   </g>
   <g id="line2d_10">
    <path d="M 200.299442 189.761725 
L 201.299442 189.793162 
L 202.299442 189.830102 
L 203.299442 189.927849 
L 204.299442 189.96037 
L 205.299442 190.033995 
L 206.299442 190.072561 
L 207.299442 190.107974 
L 208.299442 190.165614 
L 209.299442 190.236 
L 210.299442 190.287964 
L 211.299442 190.347054 
L 212.299442 190.435375 
L 213.299442 190.481519 
L 214.299442 190.52393 
L 215.299442 190.554423 
L 216.299442 190.580468 
L 217.299442 190.601668 
L 218.299442 190.655969 
L 219.299442 190.683906 
L 220.299442 190.71363 
L 221.299442 190.739025 
L 222.299442 190.750226 
L 223.299442 190.76035 
L 224.299442 190.760145 
L 225.299442 190.750635 
L 226.299442 190.738982 
L 227.299442 190.707953 
L 228.299442 190.696785 
L 229.299442 190.666667 
L 230.299442 190.60689 
L 231.299442 190.569699 
L 232.299442 190.530602 
L 233.299442 190.488163 
L 234.299442 190.455398 
L 235.299442 190.387971 
L 236.299442 190.348845 
L 237.299442 190.306171 
L 238.299442 190.23559 
L 239.299442 190.199199 
L 240.299442 190.140796 
L 241.299442 190.029844 
L 242.299442 189.959185 
L 243.299442 189.846245 
L 244.299442 189.800473 
L 245.299442 189.739189 
L 246.299442 189.69069 
L 247.299442 189.609867 
L 248.299442 189.491348 
L 249.299442 189.421138 
L 250.299442 189.337875 
L 251.299442 189.304734 
L 252.299442 189.253496 
L 253.299442 189.185098 
L 254.299442 189.118882 
L 255.299442 189.041965 
L 256.619695 189.01465 
" clip-path="url(#p51a5a06126)" style="fill: none; stroke: #1f77b4; stroke-opacity: 0.5; stroke-width: 0.2; stroke-linecap: square"/>
   </g>
   <g id="line2d_11">
    <path d="M 256.619695 310.210742 
L 255.619695 310.179306 
L 254.619695 310.142366 
L 253.619695 310.044619 
L 252.619695 310.012097 
L 251.619695 309.938473 
L 250.619695 309.899907 
L 249.619695 309.864494 
L 248.619695 309.806854 
L 247.619695 309.736468 
L 246.619695 309.684504 
L 245.619695 309.625414 
L 244.619695 309.537093 
L 243.619695 309.490949 
L 242.619695 309.448538 
L 241.619695 309.418045 
L 240.619695 309.392 
L 239.619695 309.3708 
L 238.619695 309.316499 
L 237.619695 309.288561 
L 236.619695 309.258837 
L 235.619695 309.233443 
L 234.619695 309.222242 
L 233.619695 309.212118 
L 232.619695 309.212323 
L 231.619695 309.221832 
L 230.619695 309.233486 
L 229.619695 309.264515 
L 228.619695 309.275683 
L 227.619695 309.305801 
L 226.619695 309.365578 
L 225.619695 309.402769 
L 224.619695 309.441865 
L 223.619695 309.484305 
L 222.619695 309.51707 
L 221.619695 309.584496 
L 220.619695 309.623622 
L 219.619695 309.666297 
L 218.619695 309.736877 
L 217.619695 309.773268 
L 216.619695 309.831672 
L 215.619695 309.942624 
L 214.619695 310.013282 
L 213.619695 310.126222 
L 212.619695 310.171995 
L 211.619695 310.233278 
L 210.619695 310.281778 
L 209.619695 310.3626 
L 208.619695 310.481119 
L 207.619695 310.55133 
L 206.619695 310.634592 
L 205.619695 310.667734 
L 204.619695 310.718971 
L 203.619695 310.78737 
L 202.619695 310.853585 
L 201.619695 310.930502 
L 200.299442 310.957818 
" clip-path="url(#p51a5a06126)" style="fill: none; stroke: #ff7f0e; stroke-opacity: 0.5; stroke-width: 0.2; stroke-linecap: square"/>
   </g>
   <g id="line2d_12">
    <path d="M 256.619695 286.241907 
L 255.619695 286.210471 
L 254.619695 286.17353 
L 253.619695 286.075784 
L 252.619695 286.043262 
L 251.619695 285.969638 
L 250.619695 285.931072 
L 249.619695 285.895659 
L 248.619695 285.838019 
L 247.619695 285.767633 
L 246.619695 285.715669 
L 245.619695 285.656579 
L 244.619695 285.568258 
L 243.619695 285.522114 
L 242.619695 285.479703 
L 241.619695 285.44921 
L 240.619695 285.423165 
L 239.619695 285.401965 
L 238.619695 285.347664 
L 237.619695 285.319726 
L 236.619695 285.290002 
L 235.619695 285.264607 
L 234.619695 285.253407 
L 233.619695 285.243283 
L 232.619695 285.243487 
L 231.619695 285.252997 
L 230.619695 285.264651 
L 229.619695 285.29568 
L 228.619695 285.306848 
L 227.619695 285.336966 
L 226.619695 285.396742 
L 225.619695 285.433934 
L 224.619695 285.47303 
L 223.619695 285.51547 
L 222.619695 285.548235 
L 221.619695 285.615661 
L 220.619695 285.654787 
L 219.619695 285.697462 
L 218.619695 285.768042 
L 217.619695 285.804433 
L 216.619695 285.862836 
L 215.619695 285.973789 
L 214.619695 286.044447 
L 213.619695 286.157387 
L 212.619695 286.20316 
L 211.619695 286.264443 
L 210.619695 286.312943 
L 209.619695 286.393765 
L 208.619695 286.512284 
L 207.619695 286.582495 
L 206.619695 286.665757 
L 205.619695 286.698899 
L 204.619695 286.750136 
L 203.619695 286.818535 
L 202.619695 286.88475 
L 201.619695 286.961667 
L 200.299442 286.988983 
" clip-path="url(#p51a5a06126)" style="fill: none; stroke: #ff7f0e; stroke-opacity: 0.5; stroke-width: 0.2; stroke-linecap: square"/>
   </g>
   <g id="line2d_13">
    <path d="M 256.619695 165.365551 
L 255.619695 165.334115 
L 254.619695 165.297175 
L 253.619695 165.199428 
L 252.619695 165.166907 
L 251.619695 165.093282 
L 250.619695 165.054716 
L 249.619695 165.019303 
L 248.619695 164.961663 
L 247.619695 164.891277 
L 246.619695 164.839313 
L 245.619695 164.780223 
L 244.619695 164.691902 
L 243.619695 164.645758 
L 242.619695 164.603347 
L 241.619695 164.572854 
L 240.619695 164.546809 
L 239.619695 164.525609 
L 238.619695 164.471308 
L 237.619695 164.44337 
L 236.619695 164.413646 
L 235.619695 164.388252 
L 234.619695 164.377051 
L 233.619695 164.366927 
L 232.619695 164.367132 
L 231.619695 164.376642 
L 230.619695 164.388295 
L 229.619695 164.419324 
L 228.619695 164.430492 
L 227.619695 164.46061 
L 226.619695 164.520387 
L 225.619695 164.557578 
L 224.619695 164.596674 
L 223.619695 164.639114 
L 222.619695 164.671879 
L 221.619695 164.739306 
L 220.619695 164.778431 
L 219.619695 164.821106 
L 218.619695 164.891687 
L 217.619695 164.928077 
L 216.619695 164.986481 
L 215.619695 165.097433 
L 214.619695 165.168092 
L 213.619695 165.281031 
L 212.619695 165.326804 
L 211.619695 165.388088 
L 210.619695 165.436587 
L 209.619695 165.51741 
L 208.619695 165.635928 
L 207.619695 165.706139 
L 206.619695 165.789402 
L 205.619695 165.822543 
L 204.619695 165.873781 
L 203.619695 165.942179 
L 202.619695 166.008394 
L 201.619695 166.085311 
L 200.299442 166.112627 
" clip-path="url(#p51a5a06126)" style="fill: none; stroke: #ff7f0e; stroke-opacity: 0.5; stroke-width: 0.2; stroke-linecap: square"/>
   </g>
   <g id="line2d_14">
    <path d="M 256.619695 206.008211 
L 255.619695 205.976774 
L 254.619695 205.939834 
L 253.619695 205.842088 
L 252.619695 205.809566 
L 251.619695 205.735941 
L 250.619695 205.697376 
L 249.619695 205.661963 
L 248.619695 205.604323 
L 247.619695 205.533936 
L 246.619695 205.481972 
L 245.619695 205.422882 
L 244.619695 205.334561 
L 243.619695 205.288417 
L 242.619695 205.246006 
L 241.619695 205.215514 
L 240.619695 205.189469 
L 239.619695 205.168268 
L 238.619695 205.113967 
L 237.619695 205.08603 
L 236.619695 205.056306 
L 235.619695 205.030911 
L 234.619695 205.019711 
L 233.619695 205.009587 
L 232.619695 205.009791 
L 231.619695 205.019301 
L 230.619695 205.030954 
L 229.619695 205.061984 
L 228.619695 205.073152 
L 227.619695 205.103269 
L 226.619695 205.163046 
L 225.619695 205.200238 
L 224.619695 205.239334 
L 223.619695 205.281773 
L 222.619695 205.314538 
L 221.619695 205.381965 
L 220.619695 205.421091 
L 219.619695 205.463765 
L 218.619695 205.534346 
L 217.619695 205.570737 
L 216.619695 205.62914 
L 215.619695 205.740093 
L 214.619695 205.810751 
L 213.619695 205.923691 
L 212.619695 205.969464 
L 211.619695 206.030747 
L 210.619695 206.079246 
L 209.619695 206.160069 
L 208.619695 206.278588 
L 207.619695 206.348798 
L 206.619695 206.432061 
L 205.619695 206.465203 
L 204.619695 206.51644 
L 203.619695 206.584838 
L 202.619695 206.651054 
L 201.619695 206.727971 
L 200.299442 206.755286 
" clip-path="url(#p51a5a06126)" style="fill: none; stroke: #ff7f0e; stroke-opacity: 0.5; stroke-width: 0.2; stroke-linecap: square"/>
   </g>
   <g id="line2d_15">
    <path d="M 256.619695 270.57882 
L 255.619695 270.547384 
L 254.619695 270.510443 
L 253.619695 270.412697 
L 252.619695 270.380175 
L 251.619695 270.306551 
L 250.619695 270.267985 
L 249.619695 270.232572 
L 248.619695 270.174932 
L 247.619695 270.104546 
L 246.619695 270.052581 
L 245.619695 269.993492 
L 244.619695 269.905171 
L 243.619695 269.859026 
L 242.619695 269.816615 
L 241.619695 269.786123 
L 240.619695 269.760078 
L 239.619695 269.738878 
L 238.619695 269.684577 
L 237.619695 269.656639 
L 236.619695 269.626915 
L 235.619695 269.60152 
L 234.619695 269.59032 
L 233.619695 269.580196 
L 232.619695 269.5804 
L 231.619695 269.58991 
L 230.619695 269.601564 
L 229.619695 269.632593 
L 228.619695 269.643761 
L 227.619695 269.673878 
L 226.619695 269.733655 
L 225.619695 269.770847 
L 224.619695 269.809943 
L 223.619695 269.852383 
L 222.619695 269.885148 
L 221.619695 269.952574 
L 220.619695 269.9917 
L 219.619695 270.034375 
L 218.619695 270.104955 
L 217.619695 270.141346 
L 216.619695 270.199749 
L 215.619695 270.310702 
L 214.619695 270.38136 
L 213.619695 270.4943 
L 212.619695 270.540073 
L 211.619695 270.601356 
L 210.619695 270.649856 
L 209.619695 270.730678 
L 208.619695 270.849197 
L 207.619695 270.919408 
L 206.619695 271.00267 
L 205.619695 271.035812 
L 204.619695 271.087049 
L 203.619695 271.155448 
L 202.619695 271.221663 
L 201.619695 271.29858 
L 200.299442 271.325896 
" clip-path="url(#p51a5a06126)" style="fill: none; stroke: #ff7f0e; stroke-opacity: 0.5; stroke-width: 0.2; stroke-linecap: square"/>
   </g>
   <g id="line2d_16">
    <path d="M 256.619695 61.567193 
L 255.619695 61.535756 
L 254.619695 61.498816 
L 253.619695 61.401069 
L 252.619695 61.368548 
L 251.619695 61.294923 
L 250.619695 61.256358 
L 249.619695 61.220944 
L 248.619695 61.163304 
L 247.619695 61.092918 
L 246.619695 61.040954 
L 245.619695 60.981864 
L 244.619695 60.893543 
L 243.619695 60.847399 
L 242.619695 60.804988 
L 241.619695 60.774495 
L 240.619695 60.74845 
L 239.619695 60.72725 
L 238.619695 60.672949 
L 237.619695 60.645012 
L 236.619695 60.615288 
L 235.619695 60.589893 
L 234.619695 60.578693 
L 233.619695 60.568569 
L 232.619695 60.568773 
L 231.619695 60.578283 
L 230.619695 60.589936 
L 229.619695 60.620966 
L 228.619695 60.632134 
L 227.619695 60.662251 
L 226.619695 60.722028 
L 225.619695 60.75922 
L 224.619695 60.798316 
L 223.619695 60.840755 
L 222.619695 60.87352 
L 221.619695 60.940947 
L 220.619695 60.980073 
L 219.619695 61.022747 
L 218.619695 61.093328 
L 217.619695 61.129719 
L 216.619695 61.188122 
L 215.619695 61.299075 
L 214.619695 61.369733 
L 213.619695 61.482673 
L 212.619695 61.528446 
L 211.619695 61.589729 
L 210.619695 61.638228 
L 209.619695 61.719051 
L 208.619695 61.83757 
L 207.619695 61.90778 
L 206.619695 61.991043 
L 205.619695 62.024185 
L 204.619695 62.075422 
L 203.619695 62.14382 
L 202.619695 62.210036 
L 201.619695 62.286953 
L 200.299442 62.314268 
" clip-path="url(#p51a5a06126)" style="fill: none; stroke: #ff7f0e; stroke-opacity: 0.5; stroke-width: 0.2; stroke-linecap: square"/>
   </g>
   <g id="line2d_17">
    <path d="M 256.619695 312.836369 
L 255.619695 312.804933 
L 254.619695 312.767992 
L 253.619695 312.670246 
L 252.619695 312.637724 
L 251.619695 312.564099 
L 250.619695 312.525534 
L 249.619695 312.490121 
L 248.619695 312.432481 
L 247.619695 312.362095 
L 246.619695 312.31013 
L 245.619695 312.251041 
L 244.619695 312.16272 
L 243.619695 312.116575 
L 242.619695 312.074164 
L 241.619695 312.043672 
L 240.619695 312.017627 
L 239.619695 311.996427 
L 238.619695 311.942126 
L 237.619695 311.914188 
L 236.619695 311.884464 
L 235.619695 311.859069 
L 234.619695 311.847869 
L 233.619695 311.837745 
L 232.619695 311.837949 
L 231.619695 311.847459 
L 230.619695 311.859113 
L 229.619695 311.890142 
L 228.619695 311.90131 
L 227.619695 311.931427 
L 226.619695 311.991204 
L 225.619695 312.028396 
L 224.619695 312.067492 
L 223.619695 312.109932 
L 222.619695 312.142697 
L 221.619695 312.210123 
L 220.619695 312.249249 
L 219.619695 312.291924 
L 218.619695 312.362504 
L 217.619695 312.398895 
L 216.619695 312.457298 
L 215.619695 312.568251 
L 214.619695 312.638909 
L 213.619695 312.751849 
L 212.619695 312.797622 
L 211.619695 312.858905 
L 210.619695 312.907404 
L 209.619695 312.988227 
L 208.619695 313.106746 
L 207.619695 313.176957 
L 206.619695 313.260219 
L 205.619695 313.293361 
L 204.619695 313.344598 
L 203.619695 313.412997 
L 202.619695 313.479212 
L 201.619695 313.556129 
L 200.299442 313.583445 
" clip-path="url(#p51a5a06126)" style="fill: none; stroke: #ff7f0e; stroke-opacity: 0.5; stroke-width: 0.2; stroke-linecap: square"/>
   </g>
   <g id="line2d_18">
    <path d="M 256.619695 150.88418 
L 255.619695 150.852744 
L 254.619695 150.815804 
L 253.619695 150.718057 
L 252.619695 150.685535 
L 251.619695 150.611911 
L 250.619695 150.573345 
L 249.619695 150.537932 
L 248.619695 150.480292 
L 247.619695 150.409906 
L 246.619695 150.357942 
L 245.619695 150.298852 
L 244.619695 150.210531 
L 243.619695 150.164387 
L 242.619695 150.121976 
L 241.619695 150.091483 
L 240.619695 150.065438 
L 239.619695 150.044238 
L 238.619695 149.989937 
L 237.619695 149.961999 
L 236.619695 149.932275 
L 235.619695 149.906881 
L 234.619695 149.89568 
L 233.619695 149.885556 
L 232.619695 149.88576 
L 231.619695 149.89527 
L 230.619695 149.906924 
L 229.619695 149.937953 
L 228.619695 149.949121 
L 227.619695 149.979239 
L 226.619695 150.039016 
L 225.619695 150.076207 
L 224.619695 150.115303 
L 223.619695 150.157743 
L 222.619695 150.190508 
L 221.619695 150.257934 
L 220.619695 150.29706 
L 219.619695 150.339735 
L 218.619695 150.410315 
L 217.619695 150.446706 
L 216.619695 150.50511 
L 215.619695 150.616062 
L 214.619695 150.68672 
L 213.619695 150.79966 
L 212.619695 150.845433 
L 211.619695 150.906716 
L 210.619695 150.955216 
L 209.619695 151.036038 
L 208.619695 151.154557 
L 207.619695 151.224768 
L 206.619695 151.30803 
L 205.619695 151.341172 
L 204.619695 151.392409 
L 203.619695 151.460808 
L 202.619695 151.527023 
L 201.619695 151.60394 
L 200.299442 151.631256 
" clip-path="url(#p51a5a06126)" style="fill: none; stroke: #ff7f0e; stroke-opacity: 0.5; stroke-width: 0.2; stroke-linecap: square"/>
   </g>
   <g id="line2d_19">
    <path d="M 256.619695 83.32166 
L 255.619695 83.290224 
L 254.619695 83.253284 
L 253.619695 83.155537 
L 252.619695 83.123016 
L 251.619695 83.049391 
L 250.619695 83.010825 
L 249.619695 82.975412 
L 248.619695 82.917772 
L 247.619695 82.847386 
L 246.619695 82.795422 
L 245.619695 82.736332 
L 244.619695 82.648011 
L 243.619695 82.601867 
L 242.619695 82.559456 
L 241.619695 82.528963 
L 240.619695 82.502918 
L 239.619695 82.481718 
L 238.619695 82.427417 
L 237.619695 82.399479 
L 236.619695 82.369755 
L 235.619695 82.344361 
L 234.619695 82.33316 
L 233.619695 82.323036 
L 232.619695 82.323241 
L 231.619695 82.332751 
L 230.619695 82.344404 
L 229.619695 82.375433 
L 228.619695 82.386601 
L 227.619695 82.416719 
L 226.619695 82.476496 
L 225.619695 82.513687 
L 224.619695 82.552783 
L 223.619695 82.595223 
L 222.619695 82.627988 
L 221.619695 82.695415 
L 220.619695 82.734541 
L 219.619695 82.777215 
L 218.619695 82.847796 
L 217.619695 82.884187 
L 216.619695 82.94259 
L 215.619695 83.053542 
L 214.619695 83.124201 
L 213.619695 83.23714 
L 212.619695 83.282913 
L 211.619695 83.344197 
L 210.619695 83.392696 
L 209.619695 83.473519 
L 208.619695 83.592037 
L 207.619695 83.662248 
L 206.619695 83.745511 
L 205.619695 83.778652 
L 204.619695 83.82989 
L 203.619695 83.898288 
L 202.619695 83.964503 
L 201.619695 84.041421 
L 200.299442 84.068736 
" clip-path="url(#p51a5a06126)" style="fill: none; stroke: #ff7f0e; stroke-opacity: 0.5; stroke-width: 0.2; stroke-linecap: square"/>
   </g>
   <g id="line2d_20">
    <path d="M 256.619695 42.991468 
L 255.619695 42.960032 
L 254.619695 42.923091 
L 253.619695 42.825345 
L 252.619695 42.792823 
L 251.619695 42.719198 
L 250.619695 42.680633 
L 249.619695 42.64522 
L 248.619695 42.58758 
L 247.619695 42.517194 
L 246.619695 42.465229 
L 245.619695 42.40614 
L 244.619695 42.317819 
L 243.619695 42.271674 
L 242.619695 42.229263 
L 241.619695 42.198771 
L 240.619695 42.172726 
L 239.619695 42.151526 
L 238.619695 42.097225 
L 237.619695 42.069287 
L 236.619695 42.039563 
L 235.619695 42.014168 
L 234.619695 42.002968 
L 233.619695 41.992844 
L 232.619695 41.993048 
L 231.619695 42.002558 
L 230.619695 42.014212 
L 229.619695 42.045241 
L 228.619695 42.056409 
L 227.619695 42.086526 
L 226.619695 42.146303 
L 225.619695 42.183495 
L 224.619695 42.222591 
L 223.619695 42.265031 
L 222.619695 42.297796 
L 221.619695 42.365222 
L 220.619695 42.404348 
L 219.619695 42.447023 
L 218.619695 42.517603 
L 217.619695 42.553994 
L 216.619695 42.612397 
L 215.619695 42.72335 
L 214.619695 42.794008 
L 213.619695 42.906948 
L 212.619695 42.952721 
L 211.619695 43.014004 
L 210.619695 43.062503 
L 209.619695 43.143326 
L 208.619695 43.261845 
L 207.619695 43.332056 
L 206.619695 43.415318 
L 205.619695 43.44846 
L 204.619695 43.499697 
L 203.619695 43.568096 
L 202.619695 43.634311 
L 201.619695 43.711228 
L 200.299442 43.738544 
" clip-path="url(#p51a5a06126)" style="fill: none; stroke: #ff7f0e; stroke-opacity: 0.5; stroke-width: 0.2; stroke-linecap: square"/>
   </g>
   <g id="line2d_21">
    <path d="M 390.34593 62.53995 
L 391.34593 62.571386 
L 392.34593 62.608327 
L 393.34593 62.706073 
L 394.34593 62.738595 
L 395.34593 62.812219 
L 396.34593 62.850785 
L 397.34593 62.886198 
L 398.34593 62.943838 
L 399.34593 63.014224 
L 400.34593 63.066189 
L 401.34593 63.125278 
L 402.34593 63.213599 
L 403.34593 63.259744 
L 404.34593 63.302155 
L 405.34593 63.332647 
L 406.34593 63.358692 
L 407.34593 63.379892 
L 408.34593 63.434193 
L 409.34593 63.462131 
L 410.34593 63.491855 
L 411.34593 63.51725 
L 412.34593 63.52845 
L 413.34593 63.538574 
L 414.34593 63.53837 
L 415.34593 63.52886 
L 416.34593 63.517206 
L 417.34593 63.486177 
L 418.34593 63.475009 
L 419.34593 63.444892 
L 420.34593 63.385115 
L 421.34593 63.347923 
L 422.34593 63.308827 
L 423.34593 63.266387 
L 424.34593 63.233622 
L 425.34593 63.166196 
L 426.34593 63.12707 
L 427.34593 63.084395 
L 428.34593 63.013815 
L 429.34593 62.977424 
L 430.34593 62.919021 
L 431.34593 62.808068 
L 432.34593 62.73741 
L 433.34593 62.62447 
L 434.34593 62.578697 
L 435.34593 62.517414 
L 436.34593 62.468915 
L 437.34593 62.388092 
L 438.34593 62.269573 
L 439.34593 62.199362 
L 440.34593 62.1161 
L 441.34593 62.082958 
L 442.34593 62.031721 
L 443.34593 61.963322 
L 444.34593 61.897107 
L 445.34593 61.82019 
L 446.666183 61.792874 
" clip-path="url(#p51a5a06126)" style="fill: none; stroke: #ff7f0e; stroke-opacity: 0.5; stroke-width: 0.2; stroke-linecap: square"/>
   </g>
   <g id="line2d_22">
    <path d="M 390.34593 173.37647 
L 391.34593 173.407906 
L 392.34593 173.444847 
L 393.34593 173.542593 
L 394.34593 173.575115 
L 395.34593 173.648739 
L 396.34593 173.687305 
L 397.34593 173.722718 
L 398.34593 173.780358 
L 399.34593 173.850744 
L 400.34593 173.902709 
L 401.34593 173.961798 
L 402.34593 174.050119 
L 403.34593 174.096264 
L 404.34593 174.138675 
L 405.34593 174.169167 
L 406.34593 174.195212 
L 407.34593 174.216412 
L 408.34593 174.270713 
L 409.34593 174.298651 
L 410.34593 174.328375 
L 411.34593 174.35377 
L 412.34593 174.36497 
L 413.34593 174.375094 
L 414.34593 174.37489 
L 415.34593 174.36538 
L 416.34593 174.353726 
L 417.34593 174.322697 
L 418.34593 174.311529 
L 419.34593 174.281412 
L 420.34593 174.221635 
L 421.34593 174.184443 
L 422.34593 174.145347 
L 423.34593 174.102907 
L 424.34593 174.070142 
L 425.34593 174.002716 
L 426.34593 173.96359 
L 427.34593 173.920915 
L 428.34593 173.850335 
L 429.34593 173.813944 
L 430.34593 173.755541 
L 431.34593 173.644588 
L 432.34593 173.57393 
L 433.34593 173.46099 
L 434.34593 173.415217 
L 435.34593 173.353934 
L 436.34593 173.305434 
L 437.34593 173.224612 
L 438.34593 173.106093 
L 439.34593 173.035882 
L 440.34593 172.95262 
L 441.34593 172.919478 
L 442.34593 172.868241 
L 443.34593 172.799842 
L 444.34593 172.733627 
L 445.34593 172.65671 
L 446.666183 172.629394 
" clip-path="url(#p51a5a06126)" style="fill: none; stroke: #ff7f0e; stroke-opacity: 0.5; stroke-width: 0.2; stroke-linecap: square"/>
   </g>
   <g id="line2d_23">
    <path d="M 390.34593 73.636727 
L 391.34593 73.668163 
L 392.34593 73.705103 
L 393.34593 73.80285 
L 394.34593 73.835371 
L 395.34593 73.908996 
L 396.34593 73.947562 
L 397.34593 73.982975 
L 398.34593 74.040615 
L 399.34593 74.111001 
L 400.34593 74.162965 
L 401.34593 74.222055 
L 402.34593 74.310376 
L 403.34593 74.35652 
L 404.34593 74.398931 
L 405.34593 74.429424 
L 406.34593 74.455469 
L 407.34593 74.476669 
L 408.34593 74.53097 
L 409.34593 74.558908 
L 410.34593 74.588632 
L 411.34593 74.614026 
L 412.34593 74.625227 
L 413.34593 74.635351 
L 414.34593 74.635146 
L 415.34593 74.625636 
L 416.34593 74.613983 
L 417.34593 74.582954 
L 418.34593 74.571786 
L 419.34593 74.541668 
L 420.34593 74.481891 
L 421.34593 74.4447 
L 422.34593 74.405604 
L 423.34593 74.363164 
L 424.34593 74.330399 
L 425.34593 74.262972 
L 426.34593 74.223847 
L 427.34593 74.181172 
L 428.34593 74.110591 
L 429.34593 74.074201 
L 430.34593 74.015797 
L 431.34593 73.904845 
L 432.34593 73.834186 
L 433.34593 73.721247 
L 434.34593 73.675474 
L 435.34593 73.61419 
L 436.34593 73.565691 
L 437.34593 73.484868 
L 438.34593 73.36635 
L 439.34593 73.296139 
L 440.34593 73.212876 
L 441.34593 73.179735 
L 442.34593 73.128497 
L 443.34593 73.060099 
L 444.34593 72.993884 
L 445.34593 72.916967 
L 446.666183 72.889651 
" clip-path="url(#p51a5a06126)" style="fill: none; stroke: #ff7f0e; stroke-opacity: 0.5; stroke-width: 0.2; stroke-linecap: square"/>
   </g>
   <g id="line2d_24">
    <path d="M 390.34593 224.139258 
L 391.34593 224.170694 
L 392.34593 224.207635 
L 393.34593 224.305381 
L 394.34593 224.337903 
L 395.34593 224.411527 
L 396.34593 224.450093 
L 397.34593 224.485506 
L 398.34593 224.543146 
L 399.34593 224.613532 
L 400.34593 224.665497 
L 401.34593 224.724586 
L 402.34593 224.812907 
L 403.34593 224.859052 
L 404.34593 224.901462 
L 405.34593 224.931955 
L 406.34593 224.958 
L 407.34593 224.9792 
L 408.34593 225.033501 
L 409.34593 225.061439 
L 410.34593 225.091163 
L 411.34593 225.116558 
L 412.34593 225.127758 
L 413.34593 225.137882 
L 414.34593 225.137678 
L 415.34593 225.128168 
L 416.34593 225.116514 
L 417.34593 225.085485 
L 418.34593 225.074317 
L 419.34593 225.044199 
L 420.34593 224.984423 
L 421.34593 224.947231 
L 422.34593 224.908135 
L 423.34593 224.865695 
L 424.34593 224.83293 
L 425.34593 224.765504 
L 426.34593 224.726378 
L 427.34593 224.683703 
L 428.34593 224.613123 
L 429.34593 224.576732 
L 430.34593 224.518329 
L 431.34593 224.407376 
L 432.34593 224.336718 
L 433.34593 224.223778 
L 434.34593 224.178005 
L 435.34593 224.116722 
L 436.34593 224.068222 
L 437.34593 223.9874 
L 438.34593 223.868881 
L 439.34593 223.79867 
L 440.34593 223.715408 
L 441.34593 223.682266 
L 442.34593 223.631029 
L 443.34593 223.56263 
L 444.34593 223.496415 
L 445.34593 223.419498 
L 446.666183 223.392182 
" clip-path="url(#p51a5a06126)" style="fill: none; stroke: #ff7f0e; stroke-opacity: 0.5; stroke-width: 0.2; stroke-linecap: square"/>
   </g>
   <g id="line2d_25">
    <path d="M 390.34593 316.459623 
L 391.34593 316.491059 
L 392.34593 316.527999 
L 393.34593 316.625746 
L 394.34593 316.658268 
L 395.34593 316.731892 
L 396.34593 316.770458 
L 397.34593 316.805871 
L 398.34593 316.863511 
L 399.34593 316.933897 
L 400.34593 316.985861 
L 401.34593 317.044951 
L 402.34593 317.133272 
L 403.34593 317.179416 
L 404.34593 317.221827 
L 405.34593 317.25232 
L 406.34593 317.278365 
L 407.34593 317.299565 
L 408.34593 317.353866 
L 409.34593 317.381804 
L 410.34593 317.411528 
L 411.34593 317.436922 
L 412.34593 317.448123 
L 413.34593 317.458247 
L 414.34593 317.458042 
L 415.34593 317.448533 
L 416.34593 317.436879 
L 417.34593 317.40585 
L 418.34593 317.394682 
L 419.34593 317.364564 
L 420.34593 317.304787 
L 421.34593 317.267596 
L 422.34593 317.2285 
L 423.34593 317.18606 
L 424.34593 317.153295 
L 425.34593 317.085869 
L 426.34593 317.046743 
L 427.34593 317.004068 
L 428.34593 316.933487 
L 429.34593 316.897097 
L 430.34593 316.838693 
L 431.34593 316.727741 
L 432.34593 316.657083 
L 433.34593 316.544143 
L 434.34593 316.49837 
L 435.34593 316.437087 
L 436.34593 316.388587 
L 437.34593 316.307765 
L 438.34593 316.189246 
L 439.34593 316.119035 
L 440.34593 316.035773 
L 441.34593 316.002631 
L 442.34593 315.951393 
L 443.34593 315.882995 
L 444.34593 315.81678 
L 445.34593 315.739863 
L 446.666183 315.712547 
" clip-path="url(#p51a5a06126)" style="fill: none; stroke: #ff7f0e; stroke-opacity: 0.5; stroke-width: 0.2; stroke-linecap: square"/>
   </g>
   <g id="line2d_26">
    <path d="M 390.34593 51.207575 
L 391.34593 51.239011 
L 392.34593 51.275951 
L 393.34593 51.373698 
L 394.34593 51.406219 
L 395.34593 51.479844 
L 396.34593 51.51841 
L 397.34593 51.553823 
L 398.34593 51.611463 
L 399.34593 51.681849 
L 400.34593 51.733813 
L 401.34593 51.792903 
L 402.34593 51.881224 
L 403.34593 51.927368 
L 404.34593 51.969779 
L 405.34593 52.000272 
L 406.34593 52.026317 
L 407.34593 52.047517 
L 408.34593 52.101818 
L 409.34593 52.129756 
L 410.34593 52.15948 
L 411.34593 52.184874 
L 412.34593 52.196075 
L 413.34593 52.206199 
L 414.34593 52.205994 
L 415.34593 52.196484 
L 416.34593 52.184831 
L 417.34593 52.153802 
L 418.34593 52.142634 
L 419.34593 52.112516 
L 420.34593 52.052739 
L 421.34593 52.015548 
L 422.34593 51.976452 
L 423.34593 51.934012 
L 424.34593 51.901247 
L 425.34593 51.83382 
L 426.34593 51.794694 
L 427.34593 51.75202 
L 428.34593 51.681439 
L 429.34593 51.645048 
L 430.34593 51.586645 
L 431.34593 51.475693 
L 432.34593 51.405034 
L 433.34593 51.292095 
L 434.34593 51.246322 
L 435.34593 51.185038 
L 436.34593 51.136539 
L 437.34593 51.055716 
L 438.34593 50.937198 
L 439.34593 50.866987 
L 440.34593 50.783724 
L 441.34593 50.750583 
L 442.34593 50.699345 
L 443.34593 50.630947 
L 444.34593 50.564732 
L 445.34593 50.487814 
L 446.666183 50.460499 
" clip-path="url(#p51a5a06126)" style="fill: none; stroke: #ff7f0e; stroke-opacity: 0.5; stroke-width: 0.2; stroke-linecap: square"/>
   </g>
   <g id="line2d_27">
    <path d="M 390.34593 164.310502 
L 391.34593 164.341938 
L 392.34593 164.378878 
L 393.34593 164.476625 
L 394.34593 164.509146 
L 395.34593 164.582771 
L 396.34593 164.621337 
L 397.34593 164.65675 
L 398.34593 164.71439 
L 399.34593 164.784776 
L 400.34593 164.83674 
L 401.34593 164.89583 
L 402.34593 164.984151 
L 403.34593 165.030295 
L 404.34593 165.072706 
L 405.34593 165.103199 
L 406.34593 165.129244 
L 407.34593 165.150444 
L 408.34593 165.204745 
L 409.34593 165.232683 
L 410.34593 165.262407 
L 411.34593 165.287801 
L 412.34593 165.299002 
L 413.34593 165.309126 
L 414.34593 165.308921 
L 415.34593 165.299411 
L 416.34593 165.287758 
L 417.34593 165.256729 
L 418.34593 165.245561 
L 419.34593 165.215443 
L 420.34593 165.155666 
L 421.34593 165.118475 
L 422.34593 165.079379 
L 423.34593 165.036939 
L 424.34593 165.004174 
L 425.34593 164.936747 
L 426.34593 164.897621 
L 427.34593 164.854947 
L 428.34593 164.784366 
L 429.34593 164.747975 
L 430.34593 164.689572 
L 431.34593 164.57862 
L 432.34593 164.507961 
L 433.34593 164.395022 
L 434.34593 164.349249 
L 435.34593 164.287965 
L 436.34593 164.239466 
L 437.34593 164.158643 
L 438.34593 164.040125 
L 439.34593 163.969914 
L 440.34593 163.886651 
L 441.34593 163.85351 
L 442.34593 163.802272 
L 443.34593 163.733874 
L 444.34593 163.667659 
L 445.34593 163.590741 
L 446.666183 163.563426 
" clip-path="url(#p51a5a06126)" style="fill: none; stroke: #ff7f0e; stroke-opacity: 0.5; stroke-width: 0.2; stroke-linecap: square"/>
   </g>
   <g id="line2d_28">
    <path d="M 390.34593 151.064614 
L 391.34593 151.09605 
L 392.34593 151.132991 
L 393.34593 151.230737 
L 394.34593 151.263259 
L 395.34593 151.336883 
L 396.34593 151.375449 
L 397.34593 151.410862 
L 398.34593 151.468502 
L 399.34593 151.538888 
L 400.34593 151.590852 
L 401.34593 151.649942 
L 402.34593 151.738263 
L 403.34593 151.784408 
L 404.34593 151.826818 
L 405.34593 151.857311 
L 406.34593 151.883356 
L 407.34593 151.904556 
L 408.34593 151.958857 
L 409.34593 151.986795 
L 410.34593 152.016519 
L 411.34593 152.041914 
L 412.34593 152.053114 
L 413.34593 152.063238 
L 414.34593 152.063034 
L 415.34593 152.053524 
L 416.34593 152.04187 
L 417.34593 152.010841 
L 418.34593 151.999673 
L 419.34593 151.969555 
L 420.34593 151.909779 
L 421.34593 151.872587 
L 422.34593 151.833491 
L 423.34593 151.791051 
L 424.34593 151.758286 
L 425.34593 151.69086 
L 426.34593 151.651734 
L 427.34593 151.609059 
L 428.34593 151.538479 
L 429.34593 151.502088 
L 430.34593 151.443685 
L 431.34593 151.332732 
L 432.34593 151.262074 
L 433.34593 151.149134 
L 434.34593 151.103361 
L 435.34593 151.042078 
L 436.34593 150.993578 
L 437.34593 150.912756 
L 438.34593 150.794237 
L 439.34593 150.724026 
L 440.34593 150.640764 
L 441.34593 150.607622 
L 442.34593 150.556385 
L 443.34593 150.487986 
L 444.34593 150.421771 
L 445.34593 150.344854 
L 446.666183 150.317538 
" clip-path="url(#p51a5a06126)" style="fill: none; stroke: #ff7f0e; stroke-opacity: 0.5; stroke-width: 0.2; stroke-linecap: square"/>
   </g>
   <g id="line2d_29">
    <path d="M 390.34593 304.101212 
L 391.34593 304.132649 
L 392.34593 304.169589 
L 393.34593 304.267336 
L 394.34593 304.299857 
L 395.34593 304.373482 
L 396.34593 304.412048 
L 397.34593 304.447461 
L 398.34593 304.505101 
L 399.34593 304.575487 
L 400.34593 304.627451 
L 401.34593 304.686541 
L 402.34593 304.774862 
L 403.34593 304.821006 
L 404.34593 304.863417 
L 405.34593 304.89391 
L 406.34593 304.919955 
L 407.34593 304.941155 
L 408.34593 304.995456 
L 409.34593 305.023393 
L 410.34593 305.053117 
L 411.34593 305.078512 
L 412.34593 305.089713 
L 413.34593 305.099837 
L 414.34593 305.099632 
L 415.34593 305.090122 
L 416.34593 305.078469 
L 417.34593 305.04744 
L 418.34593 305.036272 
L 419.34593 305.006154 
L 420.34593 304.946377 
L 421.34593 304.909186 
L 422.34593 304.87009 
L 423.34593 304.82765 
L 424.34593 304.794885 
L 425.34593 304.727458 
L 426.34593 304.688332 
L 427.34593 304.645658 
L 428.34593 304.575077 
L 429.34593 304.538686 
L 430.34593 304.480283 
L 431.34593 304.369331 
L 432.34593 304.298672 
L 433.34593 304.185732 
L 434.34593 304.13996 
L 435.34593 304.078676 
L 436.34593 304.030177 
L 437.34593 303.949354 
L 438.34593 303.830835 
L 439.34593 303.760625 
L 440.34593 303.677362 
L 441.34593 303.644221 
L 442.34593 303.592983 
L 443.34593 303.524585 
L 444.34593 303.458369 
L 445.34593 303.381452 
L 446.666183 303.354137 
" clip-path="url(#p51a5a06126)" style="fill: none; stroke: #ff7f0e; stroke-opacity: 0.5; stroke-width: 0.2; stroke-linecap: square"/>
   </g>
   <g id="line2d_30">
    <path d="M 390.34593 213.205861 
L 391.34593 213.237297 
L 392.34593 213.274238 
L 393.34593 213.371984 
L 394.34593 213.404506 
L 395.34593 213.478131 
L 396.34593 213.516696 
L 397.34593 213.552109 
L 398.34593 213.609749 
L 399.34593 213.680135 
L 400.34593 213.7321 
L 401.34593 213.791189 
L 402.34593 213.87951 
L 403.34593 213.925655 
L 404.34593 213.968066 
L 405.34593 213.998558 
L 406.34593 214.024603 
L 407.34593 214.045803 
L 408.34593 214.100104 
L 409.34593 214.128042 
L 410.34593 214.157766 
L 411.34593 214.183161 
L 412.34593 214.194361 
L 413.34593 214.204485 
L 414.34593 214.204281 
L 415.34593 214.194771 
L 416.34593 214.183117 
L 417.34593 214.152088 
L 418.34593 214.14092 
L 419.34593 214.110803 
L 420.34593 214.051026 
L 421.34593 214.013834 
L 422.34593 213.974738 
L 423.34593 213.932298 
L 424.34593 213.899533 
L 425.34593 213.832107 
L 426.34593 213.792981 
L 427.34593 213.750306 
L 428.34593 213.679726 
L 429.34593 213.643335 
L 430.34593 213.584932 
L 431.34593 213.473979 
L 432.34593 213.403321 
L 433.34593 213.290381 
L 434.34593 213.244608 
L 435.34593 213.183325 
L 436.34593 213.134826 
L 437.34593 213.054003 
L 438.34593 212.935484 
L 439.34593 212.865273 
L 440.34593 212.782011 
L 441.34593 212.748869 
L 442.34593 212.697632 
L 443.34593 212.629233 
L 444.34593 212.563018 
L 445.34593 212.486101 
L 446.666183 212.458785 
" clip-path="url(#p51a5a06126)" style="fill: none; stroke: #ff7f0e; stroke-opacity: 0.5; stroke-width: 0.2; stroke-linecap: square"/>
   </g>
   <g id="line2d_31">
    <path d="M 446.666183 107.057219 
L 445.666183 107.025783 
L 444.666183 106.988843 
L 443.666183 106.891096 
L 442.666183 106.858575 
L 441.666183 106.78495 
L 440.666183 106.746384 
L 439.666183 106.710971 
L 438.666183 106.653331 
L 437.666183 106.582945 
L 436.666183 106.530981 
L 435.666183 106.471891 
L 434.666183 106.38357 
L 433.666183 106.337426 
L 432.666183 106.295015 
L 431.666183 106.264522 
L 430.666183 106.238477 
L 429.666183 106.217277 
L 428.666183 106.162976 
L 427.666183 106.135038 
L 426.666183 106.105314 
L 425.666183 106.07992 
L 424.666183 106.068719 
L 423.666183 106.058595 
L 422.666183 106.0588 
L 421.666183 106.06831 
L 420.666183 106.079963 
L 419.666183 106.110992 
L 418.666183 106.12216 
L 417.666183 106.152278 
L 416.666183 106.212055 
L 415.666183 106.249246 
L 414.666183 106.288342 
L 413.666183 106.330782 
L 412.666183 106.363547 
L 411.666183 106.430974 
L 410.666183 106.4701 
L 409.666183 106.512774 
L 408.666183 106.583355 
L 407.666183 106.619746 
L 406.666183 106.678149 
L 405.666183 106.789101 
L 404.666183 106.85976 
L 403.666183 106.972699 
L 402.666183 107.018472 
L 401.666183 107.079756 
L 400.666183 107.128255 
L 399.666183 107.209078 
L 398.666183 107.327596 
L 397.666183 107.397807 
L 396.666183 107.48107 
L 395.666183 107.514211 
L 394.666183 107.565449 
L 393.666183 107.633847 
L 392.666183 107.700062 
L 391.666183 107.77698 
L 390.34593 107.804295 
" clip-path="url(#p51a5a06126)" style="fill: none; stroke: #2ca02c; stroke-opacity: 0.5; stroke-width: 0.2; stroke-linecap: square"/>
   </g>
   <g id="line2d_32">
    <path d="M 446.666183 294.839057 
L 445.666183 294.807621 
L 444.666183 294.77068 
L 443.666183 294.672934 
L 442.666183 294.640412 
L 441.666183 294.566788 
L 440.666183 294.528222 
L 439.666183 294.492809 
L 438.666183 294.435169 
L 437.666183 294.364783 
L 436.666183 294.312819 
L 435.666183 294.253729 
L 434.666183 294.165408 
L 433.666183 294.119263 
L 432.666183 294.076853 
L 431.666183 294.04636 
L 430.666183 294.020315 
L 429.666183 293.999115 
L 428.666183 293.944814 
L 427.666183 293.916876 
L 426.666183 293.887152 
L 425.666183 293.861757 
L 424.666183 293.850557 
L 423.666183 293.840433 
L 422.666183 293.840637 
L 421.666183 293.850147 
L 420.666183 293.861801 
L 419.666183 293.89283 
L 418.666183 293.903998 
L 417.666183 293.934116 
L 416.666183 293.993892 
L 415.666183 294.031084 
L 414.666183 294.07018 
L 413.666183 294.11262 
L 412.666183 294.145385 
L 411.666183 294.212811 
L 410.666183 294.251937 
L 409.666183 294.294612 
L 408.666183 294.365192 
L 407.666183 294.401583 
L 406.666183 294.459986 
L 405.666183 294.570939 
L 404.666183 294.641597 
L 403.666183 294.754537 
L 402.666183 294.80031 
L 401.666183 294.861593 
L 400.666183 294.910093 
L 399.666183 294.990915 
L 398.666183 295.109434 
L 397.666183 295.179645 
L 396.666183 295.262907 
L 395.666183 295.296049 
L 394.666183 295.347286 
L 393.666183 295.415685 
L 392.666183 295.4819 
L 391.666183 295.558817 
L 390.34593 295.586133 
" clip-path="url(#p51a5a06126)" style="fill: none; stroke: #2ca02c; stroke-opacity: 0.5; stroke-width: 0.2; stroke-linecap: square"/>
   </g>
   <g id="line2d_33">
    <path d="M 446.666183 148.31725 
L 445.666183 148.285814 
L 444.666183 148.248873 
L 443.666183 148.151127 
L 442.666183 148.118605 
L 441.666183 148.04498 
L 440.666183 148.006415 
L 439.666183 147.971002 
L 438.666183 147.913362 
L 437.666183 147.842975 
L 436.666183 147.791011 
L 435.666183 147.731921 
L 434.666183 147.643601 
L 433.666183 147.597456 
L 432.666183 147.555045 
L 431.666183 147.524553 
L 430.666183 147.498508 
L 429.666183 147.477308 
L 428.666183 147.423006 
L 427.666183 147.395069 
L 426.666183 147.365345 
L 425.666183 147.33995 
L 424.666183 147.32875 
L 423.666183 147.318626 
L 422.666183 147.31883 
L 421.666183 147.32834 
L 420.666183 147.339994 
L 419.666183 147.371023 
L 418.666183 147.382191 
L 417.666183 147.412308 
L 416.666183 147.472085 
L 415.666183 147.509277 
L 414.666183 147.548373 
L 413.666183 147.590812 
L 412.666183 147.623578 
L 411.666183 147.691004 
L 410.666183 147.73013 
L 409.666183 147.772804 
L 408.666183 147.843385 
L 407.666183 147.879776 
L 406.666183 147.938179 
L 405.666183 148.049132 
L 404.666183 148.11979 
L 403.666183 148.23273 
L 402.666183 148.278503 
L 401.666183 148.339786 
L 400.666183 148.388285 
L 399.666183 148.469108 
L 398.666183 148.587627 
L 397.666183 148.657838 
L 396.666183 148.7411 
L 395.666183 148.774242 
L 394.666183 148.825479 
L 393.666183 148.893877 
L 392.666183 148.960093 
L 391.666183 149.03701 
L 390.34593 149.064325 
" clip-path="url(#p51a5a06126)" style="fill: none; stroke: #2ca02c; stroke-opacity: 0.5; stroke-width: 0.2; stroke-linecap: square"/>
   </g>
   <g id="line2d_34">
    <path d="M 446.666183 122.355895 
L 445.666183 122.324459 
L 444.666183 122.287519 
L 443.666183 122.189772 
L 442.666183 122.15725 
L 441.666183 122.083626 
L 440.666183 122.04506 
L 439.666183 122.009647 
L 438.666183 121.952007 
L 437.666183 121.881621 
L 436.666183 121.829657 
L 435.666183 121.770567 
L 434.666183 121.682246 
L 433.666183 121.636102 
L 432.666183 121.593691 
L 431.666183 121.563198 
L 430.666183 121.537153 
L 429.666183 121.515953 
L 428.666183 121.461652 
L 427.666183 121.433714 
L 426.666183 121.40399 
L 425.666183 121.378596 
L 424.666183 121.367395 
L 423.666183 121.357271 
L 422.666183 121.357475 
L 421.666183 121.366985 
L 420.666183 121.378639 
L 419.666183 121.409668 
L 418.666183 121.420836 
L 417.666183 121.450954 
L 416.666183 121.510731 
L 415.666183 121.547922 
L 414.666183 121.587018 
L 413.666183 121.629458 
L 412.666183 121.662223 
L 411.666183 121.729649 
L 410.666183 121.768775 
L 409.666183 121.81145 
L 408.666183 121.88203 
L 407.666183 121.918421 
L 406.666183 121.976825 
L 405.666183 122.087777 
L 404.666183 122.158435 
L 403.666183 122.271375 
L 402.666183 122.317148 
L 401.666183 122.378431 
L 400.666183 122.426931 
L 399.666183 122.507753 
L 398.666183 122.626272 
L 397.666183 122.696483 
L 396.666183 122.779745 
L 395.666183 122.812887 
L 394.666183 122.864124 
L 393.666183 122.932523 
L 392.666183 122.998738 
L 391.666183 123.075655 
L 390.34593 123.102971 
" clip-path="url(#p51a5a06126)" style="fill: none; stroke: #2ca02c; stroke-opacity: 0.5; stroke-width: 0.2; stroke-linecap: square"/>
   </g>
   <g id="line2d_35">
    <path d="M 446.666183 284.749697 
L 445.666183 284.71826 
L 444.666183 284.68132 
L 443.666183 284.583574 
L 442.666183 284.551052 
L 441.666183 284.477427 
L 440.666183 284.438862 
L 439.666183 284.403448 
L 438.666183 284.345809 
L 437.666183 284.275422 
L 436.666183 284.223458 
L 435.666183 284.164368 
L 434.666183 284.076047 
L 433.666183 284.029903 
L 432.666183 283.987492 
L 431.666183 283.956999 
L 430.666183 283.930955 
L 429.666183 283.909754 
L 428.666183 283.855453 
L 427.666183 283.827516 
L 426.666183 283.797792 
L 425.666183 283.772397 
L 424.666183 283.761197 
L 423.666183 283.751073 
L 422.666183 283.751277 
L 421.666183 283.760787 
L 420.666183 283.77244 
L 419.666183 283.80347 
L 418.666183 283.814638 
L 417.666183 283.844755 
L 416.666183 283.904532 
L 415.666183 283.941724 
L 414.666183 283.98082 
L 413.666183 284.023259 
L 412.666183 284.056024 
L 411.666183 284.123451 
L 410.666183 284.162577 
L 409.666183 284.205251 
L 408.666183 284.275832 
L 407.666183 284.312223 
L 406.666183 284.370626 
L 405.666183 284.481579 
L 404.666183 284.552237 
L 403.666183 284.665177 
L 402.666183 284.71095 
L 401.666183 284.772233 
L 400.666183 284.820732 
L 399.666183 284.901555 
L 398.666183 285.020074 
L 397.666183 285.090284 
L 396.666183 285.173547 
L 395.666183 285.206689 
L 394.666183 285.257926 
L 393.666183 285.326324 
L 392.666183 285.39254 
L 391.666183 285.469457 
L 390.34593 285.496772 
" clip-path="url(#p51a5a06126)" style="fill: none; stroke: #2ca02c; stroke-opacity: 0.5; stroke-width: 0.2; stroke-linecap: square"/>
   </g>
   <g id="line2d_36">
    <path d="M 446.666183 152.599539 
L 445.666183 152.568103 
L 444.666183 152.531162 
L 443.666183 152.433416 
L 442.666183 152.400894 
L 441.666183 152.32727 
L 440.666183 152.288704 
L 439.666183 152.253291 
L 438.666183 152.195651 
L 437.666183 152.125265 
L 436.666183 152.0733 
L 435.666183 152.014211 
L 434.666183 151.92589 
L 433.666183 151.879745 
L 432.666183 151.837335 
L 431.666183 151.806842 
L 430.666183 151.780797 
L 429.666183 151.759597 
L 428.666183 151.705296 
L 427.666183 151.677358 
L 426.666183 151.647634 
L 425.666183 151.622239 
L 424.666183 151.611039 
L 423.666183 151.600915 
L 422.666183 151.601119 
L 421.666183 151.610629 
L 420.666183 151.622283 
L 419.666183 151.653312 
L 418.666183 151.66448 
L 417.666183 151.694597 
L 416.666183 151.754374 
L 415.666183 151.791566 
L 414.666183 151.830662 
L 413.666183 151.873102 
L 412.666183 151.905867 
L 411.666183 151.973293 
L 410.666183 152.012419 
L 409.666183 152.055094 
L 408.666183 152.125674 
L 407.666183 152.162065 
L 406.666183 152.220468 
L 405.666183 152.331421 
L 404.666183 152.402079 
L 403.666183 152.515019 
L 402.666183 152.560792 
L 401.666183 152.622075 
L 400.666183 152.670575 
L 399.666183 152.751397 
L 398.666183 152.869916 
L 397.666183 152.940127 
L 396.666183 153.023389 
L 395.666183 153.056531 
L 394.666183 153.107768 
L 393.666183 153.176167 
L 392.666183 153.242382 
L 391.666183 153.319299 
L 390.34593 153.346615 
" clip-path="url(#p51a5a06126)" style="fill: none; stroke: #2ca02c; stroke-opacity: 0.5; stroke-width: 0.2; stroke-linecap: square"/>
   </g>
   <g id="line2d_37">
    <path d="M 446.666183 254.722228 
L 445.666183 254.690791 
L 444.666183 254.653851 
L 443.666183 254.556104 
L 442.666183 254.523583 
L 441.666183 254.449958 
L 440.666183 254.411392 
L 439.666183 254.375979 
L 438.666183 254.318339 
L 437.666183 254.247953 
L 436.666183 254.195989 
L 435.666183 254.136899 
L 434.666183 254.048578 
L 433.666183 254.002434 
L 432.666183 253.960023 
L 431.666183 253.92953 
L 430.666183 253.903485 
L 429.666183 253.882285 
L 428.666183 253.827984 
L 427.666183 253.800047 
L 426.666183 253.770323 
L 425.666183 253.744928 
L 424.666183 253.733727 
L 423.666183 253.723603 
L 422.666183 253.723808 
L 421.666183 253.733318 
L 420.666183 253.744971 
L 419.666183 253.776 
L 418.666183 253.787168 
L 417.666183 253.817286 
L 416.666183 253.877063 
L 415.666183 253.914254 
L 414.666183 253.95335 
L 413.666183 253.99579 
L 412.666183 254.028555 
L 411.666183 254.095982 
L 410.666183 254.135108 
L 409.666183 254.177782 
L 408.666183 254.248363 
L 407.666183 254.284754 
L 406.666183 254.343157 
L 405.666183 254.454109 
L 404.666183 254.524768 
L 403.666183 254.637707 
L 402.666183 254.68348 
L 401.666183 254.744764 
L 400.666183 254.793263 
L 399.666183 254.874086 
L 398.666183 254.992605 
L 397.666183 255.062815 
L 396.666183 255.146078 
L 395.666183 255.179219 
L 394.666183 255.230457 
L 393.666183 255.298855 
L 392.666183 255.365071 
L 391.666183 255.441988 
L 390.34593 255.469303 
" clip-path="url(#p51a5a06126)" style="fill: none; stroke: #2ca02c; stroke-opacity: 0.5; stroke-width: 0.2; stroke-linecap: square"/>
   </g>
   <g id="line2d_38">
    <path d="M 446.666183 55.380564 
L 445.666183 55.349128 
L 444.666183 55.312187 
L 443.666183 55.214441 
L 442.666183 55.181919 
L 441.666183 55.108295 
L 440.666183 55.069729 
L 439.666183 55.034316 
L 438.666183 54.976676 
L 437.666183 54.90629 
L 436.666183 54.854326 
L 435.666183 54.795236 
L 434.666183 54.706915 
L 433.666183 54.660771 
L 432.666183 54.61836 
L 431.666183 54.587867 
L 430.666183 54.561822 
L 429.666183 54.540622 
L 428.666183 54.486321 
L 427.666183 54.458383 
L 426.666183 54.428659 
L 425.666183 54.403264 
L 424.666183 54.392064 
L 423.666183 54.38194 
L 422.666183 54.382144 
L 421.666183 54.391654 
L 420.666183 54.403308 
L 419.666183 54.434337 
L 418.666183 54.445505 
L 417.666183 54.475623 
L 416.666183 54.535399 
L 415.666183 54.572591 
L 414.666183 54.611687 
L 413.666183 54.654127 
L 412.666183 54.686892 
L 411.666183 54.754318 
L 410.666183 54.793444 
L 409.666183 54.836119 
L 408.666183 54.906699 
L 407.666183 54.94309 
L 406.666183 55.001493 
L 405.666183 55.112446 
L 404.666183 55.183104 
L 403.666183 55.296044 
L 402.666183 55.341817 
L 401.666183 55.4031 
L 400.666183 55.4516 
L 399.666183 55.532422 
L 398.666183 55.650941 
L 397.666183 55.721152 
L 396.666183 55.804414 
L 395.666183 55.837556 
L 394.666183 55.888793 
L 393.666183 55.957192 
L 392.666183 56.023407 
L 391.666183 56.100324 
L 390.34593 56.12764 
" clip-path="url(#p51a5a06126)" style="fill: none; stroke: #2ca02c; stroke-opacity: 0.5; stroke-width: 0.2; stroke-linecap: square"/>
   </g>
   <g id="line2d_39">
    <path d="M 446.666183 305.30195 
L 445.666183 305.270514 
L 444.666183 305.233573 
L 443.666183 305.135827 
L 442.666183 305.103305 
L 441.666183 305.02968 
L 440.666183 304.991115 
L 439.666183 304.955702 
L 438.666183 304.898062 
L 437.666183 304.827676 
L 436.666183 304.775711 
L 435.666183 304.716622 
L 434.666183 304.628301 
L 433.666183 304.582156 
L 432.666183 304.539745 
L 431.666183 304.509253 
L 430.666183 304.483208 
L 429.666183 304.462008 
L 428.666183 304.407707 
L 427.666183 304.379769 
L 426.666183 304.350045 
L 425.666183 304.32465 
L 424.666183 304.31345 
L 423.666183 304.303326 
L 422.666183 304.30353 
L 421.666183 304.31304 
L 420.666183 304.324694 
L 419.666183 304.355723 
L 418.666183 304.366891 
L 417.666183 304.397008 
L 416.666183 304.456785 
L 415.666183 304.493977 
L 414.666183 304.533073 
L 413.666183 304.575513 
L 412.666183 304.608278 
L 411.666183 304.675704 
L 410.666183 304.71483 
L 409.666183 304.757505 
L 408.666183 304.828085 
L 407.666183 304.864476 
L 406.666183 304.922879 
L 405.666183 305.033832 
L 404.666183 305.10449 
L 403.666183 305.21743 
L 402.666183 305.263203 
L 401.666183 305.324486 
L 400.666183 305.372985 
L 399.666183 305.453808 
L 398.666183 305.572327 
L 397.666183 305.642538 
L 396.666183 305.7258 
L 395.666183 305.758942 
L 394.666183 305.810179 
L 393.666183 305.878578 
L 392.666183 305.944793 
L 391.666183 306.02171 
L 390.34593 306.049026 
" clip-path="url(#p51a5a06126)" style="fill: none; stroke: #2ca02c; stroke-opacity: 0.5; stroke-width: 0.2; stroke-linecap: square"/>
   </g>
   <g id="line2d_40">
    <path d="M 446.666183 112.021832 
L 445.666183 111.990395 
L 444.666183 111.953455 
L 443.666183 111.855708 
L 442.666183 111.823187 
L 441.666183 111.749562 
L 440.666183 111.710996 
L 439.666183 111.675583 
L 438.666183 111.617943 
L 437.666183 111.547557 
L 436.666183 111.495593 
L 435.666183 111.436503 
L 434.666183 111.348182 
L 433.666183 111.302038 
L 432.666183 111.259627 
L 431.666183 111.229134 
L 430.666183 111.203089 
L 429.666183 111.181889 
L 428.666183 111.127588 
L 427.666183 111.099651 
L 426.666183 111.069927 
L 425.666183 111.044532 
L 424.666183 111.033331 
L 423.666183 111.023207 
L 422.666183 111.023412 
L 421.666183 111.032922 
L 420.666183 111.044575 
L 419.666183 111.075605 
L 418.666183 111.086772 
L 417.666183 111.11689 
L 416.666183 111.176667 
L 415.666183 111.213858 
L 414.666183 111.252955 
L 413.666183 111.295394 
L 412.666183 111.328159 
L 411.666183 111.395586 
L 410.666183 111.434712 
L 409.666183 111.477386 
L 408.666183 111.547967 
L 407.666183 111.584358 
L 406.666183 111.642761 
L 405.666183 111.753713 
L 404.666183 111.824372 
L 403.666183 111.937312 
L 402.666183 111.983084 
L 401.666183 112.044368 
L 400.666183 112.092867 
L 399.666183 112.17369 
L 398.666183 112.292209 
L 397.666183 112.362419 
L 396.666183 112.445682 
L 395.666183 112.478823 
L 394.666183 112.530061 
L 393.666183 112.598459 
L 392.666183 112.664675 
L 391.666183 112.741592 
L 390.34593 112.768907 
" clip-path="url(#p51a5a06126)" style="fill: none; stroke: #2ca02c; stroke-opacity: 0.5; stroke-width: 0.2; stroke-linecap: square"/>
   </g>
   <g id="patch_3">
    <path d="M 72.103551 22.318125 
L 72.103551 318.021875 
M 194.769098 22.318125 
L 194.769098 318.021875 
" clip-path="url(#p51a5a06126)" style="fill: none; stroke: #ffffff; stroke-width: 3; stroke-linejoin: miter"/>
    <path d="M 72.103551 22.318125 
L 72.103551 318.021875 
M 194.769098 22.318125 
L 194.769098 318.021875 
" clip-path="url(#p51a5a06126)" style="fill: none; stroke: #1f77b4; stroke-linejoin: miter"/>
   </g>
   <g id="FillBetweenPolyCollection_1">
    <path d="M 194.769098 22.318125 
L 72.103551 22.318125 
L 72.103551 318.021875 
L 194.769098 318.021875 
L 194.769098 318.021875 
L 194.769098 22.318125 
z
" clip-path="url(#p51a5a06126)" style="fill: #1f77b4; fill-opacity: 0.5"/>
   </g>
   <g id="patch_4">
    <path d="M 262.150039 22.318125 
L 262.150039 318.021875 
M 384.815586 22.318125 
L 384.815586 318.021875 
" clip-path="url(#p51a5a06126)" style="fill: none; stroke: #ffffff; stroke-width: 3; stroke-linejoin: miter"/>
    <path d="M 262.150039 22.318125 
L 262.150039 318.021875 
M 384.815586 22.318125 
L 384.815586 318.021875 
" clip-path="url(#p51a5a06126)" style="fill: none; stroke: #ff7f0e; stroke-linejoin: miter"/>
   </g>
   <g id="FillBetweenPolyCollection_2">
    <path d="M 384.815586 22.318125 
L 262.150039 22.318125 
L 262.150039 318.021875 
L 384.815586 318.021875 
L 384.815586 318.021875 
L 384.815586 22.318125 
z
" clip-path="url(#p51a5a06126)" style="fill: #ff7f0e; fill-opacity: 0.5"/>
   </g>
   <g id="patch_5">
    <path d="M 452.196527 22.318125 
L 452.196527 318.021875 
M 574.862074 22.318125 
L 574.862074 318.021875 
" clip-path="url(#p51a5a06126)" style="fill: none; stroke: #ffffff; stroke-width: 3; stroke-linejoin: miter"/>
    <path d="M 452.196527 22.318125 
L 452.196527 318.021875 
M 574.862074 22.318125 
L 574.862074 318.021875 
" clip-path="url(#p51a5a06126)" style="fill: none; stroke: #2ca02c; stroke-linejoin: miter"/>
   </g>
   <g id="FillBetweenPolyCollection_3">
    <path d="M 574.862074 22.318125 
L 452.196527 22.318125 
L 452.196527 318.021875 
L 574.862074 318.021875 
L 574.862074 318.021875 
L 574.862074 22.318125 
z
" clip-path="url(#p51a5a06126)" style="fill: #2ca02c; fill-opacity: 0.5"/>
   </g>
   <g id="matplotlib.axis_1">
    <g id="xtick_1">
     <g id="line2d_41"/>
     <g id="text_1">
      <!-- deme1 -->
      <g transform="translate(116.057418 329.120312) scale(0.1 -0.1)">
       <defs>
        <path id="DejaVuSans-64" d="M 2906 2969 
L 2906 4863 
L 3481 4863 
L 3481 0 
L 2906 0 
L 2906 525 
Q 2725 213 2448 61 
Q 2172 -91 1784 -91 
Q 1150 -91 751 415 
Q 353 922 353 1747 
Q 353 2572 751 3078 
Q 1150 3584 1784 3584 
Q 2172 3584 2448 3432 
Q 2725 3281 2906 2969 
z
M 947 1747 
Q 947 1113 1208 752 
Q 1469 391 1925 391 
Q 2381 391 2643 752 
Q 2906 1113 2906 1747 
Q 2906 2381 2643 2742 
Q 2381 3103 1925 3103 
Q 1469 3103 1208 2742 
Q 947 2381 947 1747 
z
" transform="scale(0.015625)"/>
        <path id="DejaVuSans-65" d="M 3597 1894 
L 3597 1613 
L 953 1613 
Q 991 1019 1311 708 
Q 1631 397 2203 397 
Q 2534 397 2845 478 
Q 3156 559 3463 722 
L 3463 178 
Q 3153 47 2828 -22 
Q 2503 -91 2169 -91 
Q 1331 -91 842 396 
Q 353 884 353 1716 
Q 353 2575 817 3079 
Q 1281 3584 2069 3584 
Q 2775 3584 3186 3129 
Q 3597 2675 3597 1894 
z
M 3022 2063 
Q 3016 2534 2758 2815 
Q 2500 3097 2075 3097 
Q 1594 3097 1305 2825 
Q 1016 2553 972 2059 
L 3022 2063 
z
" transform="scale(0.015625)"/>
        <path id="DejaVuSans-6d" d="M 3328 2828 
Q 3544 3216 3844 3400 
Q 4144 3584 4550 3584 
Q 5097 3584 5394 3201 
Q 5691 2819 5691 2113 
L 5691 0 
L 5113 0 
L 5113 2094 
Q 5113 2597 4934 2840 
Q 4756 3084 4391 3084 
Q 3944 3084 3684 2787 
Q 3425 2491 3425 1978 
L 3425 0 
L 2847 0 
L 2847 2094 
Q 2847 2600 2669 2842 
Q 2491 3084 2119 3084 
Q 1678 3084 1418 2786 
Q 1159 2488 1159 1978 
L 1159 0 
L 581 0 
L 581 3500 
L 1159 3500 
L 1159 2956 
Q 1356 3278 1631 3431 
Q 1906 3584 2284 3584 
Q 2666 3584 2933 3390 
Q 3200 3197 3328 2828 
z
" transform="scale(0.015625)"/>
        <path id="DejaVuSans-31" d="M 794 531 
L 1825 531 
L 1825 4091 
L 703 3866 
L 703 4441 
L 1819 4666 
L 2450 4666 
L 2450 531 
L 3481 531 
L 3481 0 
L 794 0 
L 794 531 
z
" transform="scale(0.015625)"/>
       </defs>
       <use xlink:href="#DejaVuSans-64"/>
       <use xlink:href="#DejaVuSans-65" transform="translate(63.476562 0)"/>
       <use xlink:href="#DejaVuSans-6d" transform="translate(125 0)"/>
       <use xlink:href="#DejaVuSans-65" transform="translate(222.412109 0)"/>
       <use xlink:href="#DejaVuSans-31" transform="translate(283.935547 0)"/>
      </g>
     </g>
    </g>
    <g id="xtick_2">
     <g id="line2d_42"/>
     <g id="text_2">
      <!-- deme2 -->
      <g transform="translate(306.103906 329.120312) scale(0.1 -0.1)">
       <defs>
        <path id="DejaVuSans-32" d="M 1228 531 
L 3431 531 
L 3431 0 
L 469 0 
L 469 531 
Q 828 903 1448 1529 
Q 2069 2156 2228 2338 
Q 2531 2678 2651 2914 
Q 2772 3150 2772 3378 
Q 2772 3750 2511 3984 
Q 2250 4219 1831 4219 
Q 1534 4219 1204 4116 
Q 875 4013 500 3803 
L 500 4441 
Q 881 4594 1212 4672 
Q 1544 4750 1819 4750 
Q 2544 4750 2975 4387 
Q 3406 4025 3406 3419 
Q 3406 3131 3298 2873 
Q 3191 2616 2906 2266 
Q 2828 2175 2409 1742 
Q 1991 1309 1228 531 
z
" transform="scale(0.015625)"/>
       </defs>
       <use xlink:href="#DejaVuSans-64"/>
       <use xlink:href="#DejaVuSans-65" transform="translate(63.476562 0)"/>
       <use xlink:href="#DejaVuSans-6d" transform="translate(125 0)"/>
       <use xlink:href="#DejaVuSans-65" transform="translate(222.412109 0)"/>
       <use xlink:href="#DejaVuSans-32" transform="translate(283.935547 0)"/>
      </g>
     </g>
    </g>
    <g id="xtick_3">
     <g id="line2d_43"/>
     <g id="text_3">
      <!-- deme3 -->
      <g transform="translate(496.150394 329.120312) scale(0.1 -0.1)">
       <defs>
        <path id="DejaVuSans-33" d="M 2597 2516 
Q 3050 2419 3304 2112 
Q 3559 1806 3559 1356 
Q 3559 666 3084 287 
Q 2609 -91 1734 -91 
Q 1441 -91 1130 -33 
Q 819 25 488 141 
L 488 750 
Q 750 597 1062 519 
Q 1375 441 1716 441 
Q 2309 441 2620 675 
Q 2931 909 2931 1356 
Q 2931 1769 2642 2001 
Q 2353 2234 1838 2234 
L 1294 2234 
L 1294 2753 
L 1863 2753 
Q 2328 2753 2575 2939 
Q 2822 3125 2822 3475 
Q 2822 3834 2567 4026 
Q 2313 4219 1838 4219 
Q 1578 4219 1281 4162 
Q 984 4106 628 3988 
L 628 4550 
Q 988 4650 1302 4700 
Q 1616 4750 1894 4750 
Q 2613 4750 3031 4423 
Q 3450 4097 3450 3541 
Q 3450 3153 3228 2886 
Q 3006 2619 2597 2516 
z
" transform="scale(0.015625)"/>
       </defs>
       <use xlink:href="#DejaVuSans-64"/>
       <use xlink:href="#DejaVuSans-65" transform="translate(63.476562 0)"/>
       <use xlink:href="#DejaVuSans-6d" transform="translate(125 0)"/>
       <use xlink:href="#DejaVuSans-65" transform="translate(222.412109 0)"/>
       <use xlink:href="#DejaVuSans-33" transform="translate(283.935547 0)"/>
      </g>
     </g>
    </g>
   </g>
   <g id="matplotlib.axis_2">
    <g id="ytick_1">
     <g id="line2d_44">
      <defs>
       <path id="mbd8d6ae69a" d="M 0 0 
L -3.5 0 
" style="stroke: #000000; stroke-width: 0.8"/>
      </defs>
      <g>
       <use xlink:href="#mbd8d6ae69a" x="46.965625" y="318.021875" style="stroke: #000000; stroke-width: 0.8"/>
      </g>
     </g>
     <g id="text_4">
      <!-- 0 -->
      <g transform="translate(33.603125 321.821094) scale(0.1 -0.1)">
       <defs>
        <path id="DejaVuSans-30" d="M 2034 4250 
Q 1547 4250 1301 3770 
Q 1056 3291 1056 2328 
Q 1056 1369 1301 889 
Q 1547 409 2034 409 
Q 2525 409 2770 889 
Q 3016 1369 3016 2328 
Q 3016 3291 2770 3770 
Q 2525 4250 2034 4250 
z
M 2034 4750 
Q 2819 4750 3233 4129 
Q 3647 3509 3647 2328 
Q 3647 1150 3233 529 
Q 2819 -91 2034 -91 
Q 1250 -91 836 529 
Q 422 1150 422 2328 
Q 422 3509 836 4129 
Q 1250 4750 2034 4750 
z
" transform="scale(0.015625)"/>
       </defs>
       <use xlink:href="#DejaVuSans-30"/>
      </g>
     </g>
    </g>
    <g id="ytick_2">
     <g id="line2d_45">
      <g>
       <use xlink:href="#mbd8d6ae69a" x="46.965625" y="265.684928" style="stroke: #000000; stroke-width: 0.8"/>
      </g>
     </g>
     <g id="text_5">
      <!-- 20 -->
      <g transform="translate(27.240625 269.484147) scale(0.1 -0.1)">
       <use xlink:href="#DejaVuSans-32"/>
       <use xlink:href="#DejaVuSans-30" transform="translate(63.623047 0)"/>
      </g>
     </g>
    </g>
    <g id="ytick_3">
     <g id="line2d_46">
      <g>
       <use xlink:href="#mbd8d6ae69a" x="46.965625" y="213.347981" style="stroke: #000000; stroke-width: 0.8"/>
      </g>
     </g>
     <g id="text_6">
      <!-- 40 -->
      <g transform="translate(27.240625 217.1472) scale(0.1 -0.1)">
       <defs>
        <path id="DejaVuSans-34" d="M 2419 4116 
L 825 1625 
L 2419 1625 
L 2419 4116 
z
M 2253 4666 
L 3047 4666 
L 3047 1625 
L 3713 1625 
L 3713 1100 
L 3047 1100 
L 3047 0 
L 2419 0 
L 2419 1100 
L 313 1100 
L 313 1709 
L 2253 4666 
z
" transform="scale(0.015625)"/>
       </defs>
       <use xlink:href="#DejaVuSans-34"/>
       <use xlink:href="#DejaVuSans-30" transform="translate(63.623047 0)"/>
      </g>
     </g>
    </g>
    <g id="ytick_4">
     <g id="line2d_47">
      <g>
       <use xlink:href="#mbd8d6ae69a" x="46.965625" y="161.011034" style="stroke: #000000; stroke-width: 0.8"/>
      </g>
     </g>
     <g id="text_7">
      <!-- 60 -->
      <g transform="translate(27.240625 164.810253) scale(0.1 -0.1)">
       <defs>
        <path id="DejaVuSans-36" d="M 2113 2584 
Q 1688 2584 1439 2293 
Q 1191 2003 1191 1497 
Q 1191 994 1439 701 
Q 1688 409 2113 409 
Q 2538 409 2786 701 
Q 3034 994 3034 1497 
Q 3034 2003 2786 2293 
Q 2538 2584 2113 2584 
z
M 3366 4563 
L 3366 3988 
Q 3128 4100 2886 4159 
Q 2644 4219 2406 4219 
Q 1781 4219 1451 3797 
Q 1122 3375 1075 2522 
Q 1259 2794 1537 2939 
Q 1816 3084 2150 3084 
Q 2853 3084 3261 2657 
Q 3669 2231 3669 1497 
Q 3669 778 3244 343 
Q 2819 -91 2113 -91 
Q 1303 -91 875 529 
Q 447 1150 447 2328 
Q 447 3434 972 4092 
Q 1497 4750 2381 4750 
Q 2619 4750 2861 4703 
Q 3103 4656 3366 4563 
z
" transform="scale(0.015625)"/>
       </defs>
       <use xlink:href="#DejaVuSans-36"/>
       <use xlink:href="#DejaVuSans-30" transform="translate(63.623047 0)"/>
      </g>
     </g>
    </g>
    <g id="ytick_5">
     <g id="line2d_48">
      <g>
       <use xlink:href="#mbd8d6ae69a" x="46.965625" y="108.674087" style="stroke: #000000; stroke-width: 0.8"/>
      </g>
     </g>
     <g id="text_8">
      <!-- 80 -->
      <g transform="translate(27.240625 112.473306) scale(0.1 -0.1)">
       <defs>
        <path id="DejaVuSans-38" d="M 2034 2216 
Q 1584 2216 1326 1975 
Q 1069 1734 1069 1313 
Q 1069 891 1326 650 
Q 1584 409 2034 409 
Q 2484 409 2743 651 
Q 3003 894 3003 1313 
Q 3003 1734 2745 1975 
Q 2488 2216 2034 2216 
z
M 1403 2484 
Q 997 2584 770 2862 
Q 544 3141 544 3541 
Q 544 4100 942 4425 
Q 1341 4750 2034 4750 
Q 2731 4750 3128 4425 
Q 3525 4100 3525 3541 
Q 3525 3141 3298 2862 
Q 3072 2584 2669 2484 
Q 3125 2378 3379 2068 
Q 3634 1759 3634 1313 
Q 3634 634 3220 271 
Q 2806 -91 2034 -91 
Q 1263 -91 848 271 
Q 434 634 434 1313 
Q 434 1759 690 2068 
Q 947 2378 1403 2484 
z
M 1172 3481 
Q 1172 3119 1398 2916 
Q 1625 2713 2034 2713 
Q 2441 2713 2670 2916 
Q 2900 3119 2900 3481 
Q 2900 3844 2670 4047 
Q 2441 4250 2034 4250 
Q 1625 4250 1398 4047 
Q 1172 3844 1172 3481 
z
" transform="scale(0.015625)"/>
       </defs>
       <use xlink:href="#DejaVuSans-38"/>
       <use xlink:href="#DejaVuSans-30" transform="translate(63.623047 0)"/>
      </g>
     </g>
    </g>
    <g id="ytick_6">
     <g id="line2d_49">
      <g>
       <use xlink:href="#mbd8d6ae69a" x="46.965625" y="56.33714" style="stroke: #000000; stroke-width: 0.8"/>
      </g>
     </g>
     <g id="text_9">
      <!-- 100 -->
      <g transform="translate(20.878125 60.136359) scale(0.1 -0.1)">
       <use xlink:href="#DejaVuSans-31"/>
       <use xlink:href="#DejaVuSans-30" transform="translate(63.623047 0)"/>
       <use xlink:href="#DejaVuSans-30" transform="translate(127.246094 0)"/>
      </g>
     </g>
    </g>
    <g id="text_10">
     <!-- time ago (years) -->
     <g transform="translate(14.798437 211.603594) rotate(-90) scale(0.1 -0.1)">
      <defs>
       <path id="DejaVuSans-74" d="M 1172 4494 
L 1172 3500 
L 2356 3500 
L 2356 3053 
L 1172 3053 
L 1172 1153 
Q 1172 725 1289 603 
Q 1406 481 1766 481 
L 2356 481 
L 2356 0 
L 1766 0 
Q 1100 0 847 248 
Q 594 497 594 1153 
L 594 3053 
L 172 3053 
L 172 3500 
L 594 3500 
L 594 4494 
L 1172 4494 
z
" transform="scale(0.015625)"/>
       <path id="DejaVuSans-69" d="M 603 3500 
L 1178 3500 
L 1178 0 
L 603 0 
L 603 3500 
z
M 603 4863 
L 1178 4863 
L 1178 4134 
L 603 4134 
L 603 4863 
z
" transform="scale(0.015625)"/>
       <path id="DejaVuSans-20" transform="scale(0.015625)"/>
       <path id="DejaVuSans-61" d="M 2194 1759 
Q 1497 1759 1228 1600 
Q 959 1441 959 1056 
Q 959 750 1161 570 
Q 1363 391 1709 391 
Q 2188 391 2477 730 
Q 2766 1069 2766 1631 
L 2766 1759 
L 2194 1759 
z
M 3341 1997 
L 3341 0 
L 2766 0 
L 2766 531 
Q 2569 213 2275 61 
Q 1981 -91 1556 -91 
Q 1019 -91 701 211 
Q 384 513 384 1019 
Q 384 1609 779 1909 
Q 1175 2209 1959 2209 
L 2766 2209 
L 2766 2266 
Q 2766 2663 2505 2880 
Q 2244 3097 1772 3097 
Q 1472 3097 1187 3025 
Q 903 2953 641 2809 
L 641 3341 
Q 956 3463 1253 3523 
Q 1550 3584 1831 3584 
Q 2591 3584 2966 3190 
Q 3341 2797 3341 1997 
z
" transform="scale(0.015625)"/>
       <path id="DejaVuSans-67" d="M 2906 1791 
Q 2906 2416 2648 2759 
Q 2391 3103 1925 3103 
Q 1463 3103 1205 2759 
Q 947 2416 947 1791 
Q 947 1169 1205 825 
Q 1463 481 1925 481 
Q 2391 481 2648 825 
Q 2906 1169 2906 1791 
z
M 3481 434 
Q 3481 -459 3084 -895 
Q 2688 -1331 1869 -1331 
Q 1566 -1331 1297 -1286 
Q 1028 -1241 775 -1147 
L 775 -588 
Q 1028 -725 1275 -790 
Q 1522 -856 1778 -856 
Q 2344 -856 2625 -561 
Q 2906 -266 2906 331 
L 2906 616 
Q 2728 306 2450 153 
Q 2172 0 1784 0 
Q 1141 0 747 490 
Q 353 981 353 1791 
Q 353 2603 747 3093 
Q 1141 3584 1784 3584 
Q 2172 3584 2450 3431 
Q 2728 3278 2906 2969 
L 2906 3500 
L 3481 3500 
L 3481 434 
z
" transform="scale(0.015625)"/>
       <path id="DejaVuSans-6f" d="M 1959 3097 
Q 1497 3097 1228 2736 
Q 959 2375 959 1747 
Q 959 1119 1226 758 
Q 1494 397 1959 397 
Q 2419 397 2687 759 
Q 2956 1122 2956 1747 
Q 2956 2369 2687 2733 
Q 2419 3097 1959 3097 
z
M 1959 3584 
Q 2709 3584 3137 3096 
Q 3566 2609 3566 1747 
Q 3566 888 3137 398 
Q 2709 -91 1959 -91 
Q 1206 -91 779 398 
Q 353 888 353 1747 
Q 353 2609 779 3096 
Q 1206 3584 1959 3584 
z
" transform="scale(0.015625)"/>
       <path id="DejaVuSans-28" d="M 1984 4856 
Q 1566 4138 1362 3434 
Q 1159 2731 1159 2009 
Q 1159 1288 1364 580 
Q 1569 -128 1984 -844 
L 1484 -844 
Q 1016 -109 783 600 
Q 550 1309 550 2009 
Q 550 2706 781 3412 
Q 1013 4119 1484 4856 
L 1984 4856 
z
" transform="scale(0.015625)"/>
       <path id="DejaVuSans-79" d="M 2059 -325 
Q 1816 -950 1584 -1140 
Q 1353 -1331 966 -1331 
L 506 -1331 
L 506 -850 
L 844 -850 
Q 1081 -850 1212 -737 
Q 1344 -625 1503 -206 
L 1606 56 
L 191 3500 
L 800 3500 
L 1894 763 
L 2988 3500 
L 3597 3500 
L 2059 -325 
z
" transform="scale(0.015625)"/>
       <path id="DejaVuSans-72" d="M 2631 2963 
Q 2534 3019 2420 3045 
Q 2306 3072 2169 3072 
Q 1681 3072 1420 2755 
Q 1159 2438 1159 1844 
L 1159 0 
L 581 0 
L 581 3500 
L 1159 3500 
L 1159 2956 
Q 1341 3275 1631 3429 
Q 1922 3584 2338 3584 
Q 2397 3584 2469 3576 
Q 2541 3569 2628 3553 
L 2631 2963 
z
" transform="scale(0.015625)"/>
       <path id="DejaVuSans-73" d="M 2834 3397 
L 2834 2853 
Q 2591 2978 2328 3040 
Q 2066 3103 1784 3103 
Q 1356 3103 1142 2972 
Q 928 2841 928 2578 
Q 928 2378 1081 2264 
Q 1234 2150 1697 2047 
L 1894 2003 
Q 2506 1872 2764 1633 
Q 3022 1394 3022 966 
Q 3022 478 2636 193 
Q 2250 -91 1575 -91 
Q 1294 -91 989 -36 
Q 684 19 347 128 
L 347 722 
Q 666 556 975 473 
Q 1284 391 1588 391 
Q 1994 391 2212 530 
Q 2431 669 2431 922 
Q 2431 1156 2273 1281 
Q 2116 1406 1581 1522 
L 1381 1569 
Q 847 1681 609 1914 
Q 372 2147 372 2553 
Q 372 3047 722 3315 
Q 1072 3584 1716 3584 
Q 2034 3584 2315 3537 
Q 2597 3491 2834 3397 
z
" transform="scale(0.015625)"/>
       <path id="DejaVuSans-29" d="M 513 4856 
L 1013 4856 
Q 1481 4119 1714 3412 
Q 1947 2706 1947 2009 
Q 1947 1309 1714 600 
Q 1481 -109 1013 -844 
L 513 -844 
Q 928 -128 1133 580 
Q 1338 1288 1338 2009 
Q 1338 2731 1133 3434 
Q 928 4138 513 4856 
z
" transform="scale(0.015625)"/>
      </defs>
      <use xlink:href="#DejaVuSans-74"/>
      <use xlink:href="#DejaVuSans-69" transform="translate(39.208984 0)"/>
      <use xlink:href="#DejaVuSans-6d" transform="translate(66.992188 0)"/>
      <use xlink:href="#DejaVuSans-65" transform="translate(164.404297 0)"/>
      <use xlink:href="#DejaVuSans-20" transform="translate(225.927734 0)"/>
      <use xlink:href="#DejaVuSans-61" transform="translate(257.714844 0)"/>
      <use xlink:href="#DejaVuSans-67" transform="translate(318.994141 0)"/>
      <use xlink:href="#DejaVuSans-6f" transform="translate(382.470703 0)"/>
      <use xlink:href="#DejaVuSans-20" transform="translate(443.652344 0)"/>
      <use xlink:href="#DejaVuSans-28" transform="translate(475.439453 0)"/>
      <use xlink:href="#DejaVuSans-79" transform="translate(514.453125 0)"/>
      <use xlink:href="#DejaVuSans-65" transform="translate(573.632812 0)"/>
      <use xlink:href="#DejaVuSans-61" transform="translate(635.15625 0)"/>
      <use xlink:href="#DejaVuSans-72" transform="translate(696.435547 0)"/>
      <use xlink:href="#DejaVuSans-73" transform="translate(737.548828 0)"/>
      <use xlink:href="#DejaVuSans-29" transform="translate(789.648438 0)"/>
     </g>
    </g>
   </g>
   <g id="line2d_50">
    <path d="M 257.619695 64.095707 
L 255.619695 63.095707 
L 255.619695 65.095707 
z
" clip-path="url(#p51a5a06126)" style="fill: #1f77b4; fill-opacity: 0.5; stroke: #1f77b4; stroke-opacity: 0.5; stroke-linejoin: miter"/>
   </g>
   <g id="line2d_51">
    <path d="M 257.619695 224.868327 
L 255.619695 223.868327 
L 255.619695 225.868327 
z
" clip-path="url(#p51a5a06126)" style="fill: #1f77b4; fill-opacity: 0.5; stroke: #1f77b4; stroke-opacity: 0.5; stroke-linejoin: miter"/>
   </g>
   <g id="line2d_52">
    <path d="M 257.619695 217.062002 
L 255.619695 216.062002 
L 255.619695 218.062002 
z
" clip-path="url(#p51a5a06126)" style="fill: #1f77b4; fill-opacity: 0.5; stroke: #1f77b4; stroke-opacity: 0.5; stroke-linejoin: miter"/>
   </g>
   <g id="line2d_53">
    <path d="M 257.619695 293.682499 
L 255.619695 292.682499 
L 255.619695 294.682499 
z
" clip-path="url(#p51a5a06126)" style="fill: #1f77b4; fill-opacity: 0.5; stroke: #1f77b4; stroke-opacity: 0.5; stroke-linejoin: miter"/>
   </g>
   <g id="line2d_54">
    <path d="M 257.619695 111.251602 
L 255.619695 110.251602 
L 255.619695 112.251602 
z
" clip-path="url(#p51a5a06126)" style="fill: #1f77b4; fill-opacity: 0.5; stroke: #1f77b4; stroke-opacity: 0.5; stroke-linejoin: miter"/>
   </g>
   <g id="line2d_55">
    <path d="M 257.619695 55.630231 
L 255.619695 54.630231 
L 255.619695 56.630231 
z
" clip-path="url(#p51a5a06126)" style="fill: #1f77b4; fill-opacity: 0.5; stroke: #1f77b4; stroke-opacity: 0.5; stroke-linejoin: miter"/>
   </g>
   <g id="line2d_56">
    <path d="M 257.619695 255.628934 
L 255.619695 254.628934 
L 255.619695 256.628934 
z
" clip-path="url(#p51a5a06126)" style="fill: #1f77b4; fill-opacity: 0.5; stroke: #1f77b4; stroke-opacity: 0.5; stroke-linejoin: miter"/>
   </g>
   <g id="line2d_57">
    <path d="M 257.619695 316.822946 
L 255.619695 315.822946 
L 255.619695 317.822946 
z
" clip-path="url(#p51a5a06126)" style="fill: #1f77b4; fill-opacity: 0.5; stroke: #1f77b4; stroke-opacity: 0.5; stroke-linejoin: miter"/>
   </g>
   <g id="line2d_58">
    <path d="M 257.619695 167.91745 
L 255.619695 166.91745 
L 255.619695 168.91745 
z
" clip-path="url(#p51a5a06126)" style="fill: #1f77b4; fill-opacity: 0.5; stroke: #1f77b4; stroke-opacity: 0.5; stroke-linejoin: miter"/>
   </g>
   <g id="line2d_59">
    <path d="M 257.619695 189.761725 
L 255.619695 188.761725 
L 255.619695 190.761725 
z
" clip-path="url(#p51a5a06126)" style="fill: #1f77b4; fill-opacity: 0.5; stroke: #1f77b4; stroke-opacity: 0.5; stroke-linejoin: miter"/>
   </g>
   <g id="line2d_60">
    <path d="M 199.299442 310.210742 
L 201.299442 311.210742 
L 201.299442 309.210742 
z
" clip-path="url(#p51a5a06126)" style="fill: #ff7f0e; fill-opacity: 0.5; stroke: #ff7f0e; stroke-opacity: 0.5; stroke-linejoin: miter"/>
   </g>
   <g id="line2d_61">
    <path d="M 199.299442 286.241907 
L 201.299442 287.241907 
L 201.299442 285.241907 
z
" clip-path="url(#p51a5a06126)" style="fill: #ff7f0e; fill-opacity: 0.5; stroke: #ff7f0e; stroke-opacity: 0.5; stroke-linejoin: miter"/>
   </g>
   <g id="line2d_62">
    <path d="M 199.299442 165.365551 
L 201.299442 166.365551 
L 201.299442 164.365551 
z
" clip-path="url(#p51a5a06126)" style="fill: #ff7f0e; fill-opacity: 0.5; stroke: #ff7f0e; stroke-opacity: 0.5; stroke-linejoin: miter"/>
   </g>
   <g id="line2d_63">
    <path d="M 199.299442 206.008211 
L 201.299442 207.008211 
L 201.299442 205.008211 
z
" clip-path="url(#p51a5a06126)" style="fill: #ff7f0e; fill-opacity: 0.5; stroke: #ff7f0e; stroke-opacity: 0.5; stroke-linejoin: miter"/>
   </g>
   <g id="line2d_64">
    <path d="M 199.299442 270.57882 
L 201.299442 271.57882 
L 201.299442 269.57882 
z
" clip-path="url(#p51a5a06126)" style="fill: #ff7f0e; fill-opacity: 0.5; stroke: #ff7f0e; stroke-opacity: 0.5; stroke-linejoin: miter"/>
   </g>
   <g id="line2d_65">
    <path d="M 199.299442 61.567193 
L 201.299442 62.567193 
L 201.299442 60.567193 
z
" clip-path="url(#p51a5a06126)" style="fill: #ff7f0e; fill-opacity: 0.5; stroke: #ff7f0e; stroke-opacity: 0.5; stroke-linejoin: miter"/>
   </g>
   <g id="line2d_66">
    <path d="M 199.299442 312.836369 
L 201.299442 313.836369 
L 201.299442 311.836369 
z
" clip-path="url(#p51a5a06126)" style="fill: #ff7f0e; fill-opacity: 0.5; stroke: #ff7f0e; stroke-opacity: 0.5; stroke-linejoin: miter"/>
   </g>
   <g id="line2d_67">
    <path d="M 199.299442 150.88418 
L 201.299442 151.88418 
L 201.299442 149.88418 
z
" clip-path="url(#p51a5a06126)" style="fill: #ff7f0e; fill-opacity: 0.5; stroke: #ff7f0e; stroke-opacity: 0.5; stroke-linejoin: miter"/>
   </g>
   <g id="line2d_68">
    <path d="M 199.299442 83.32166 
L 201.299442 84.32166 
L 201.299442 82.32166 
z
" clip-path="url(#p51a5a06126)" style="fill: #ff7f0e; fill-opacity: 0.5; stroke: #ff7f0e; stroke-opacity: 0.5; stroke-linejoin: miter"/>
   </g>
   <g id="line2d_69">
    <path d="M 199.299442 42.991468 
L 201.299442 43.991468 
L 201.299442 41.991468 
z
" clip-path="url(#p51a5a06126)" style="fill: #ff7f0e; fill-opacity: 0.5; stroke: #ff7f0e; stroke-opacity: 0.5; stroke-linejoin: miter"/>
   </g>
   <g id="line2d_70">
    <path d="M 447.666183 62.53995 
L 445.666183 61.53995 
L 445.666183 63.53995 
z
" clip-path="url(#p51a5a06126)" style="fill: #ff7f0e; fill-opacity: 0.5; stroke: #ff7f0e; stroke-opacity: 0.5; stroke-linejoin: miter"/>
   </g>
   <g id="line2d_71">
    <path d="M 447.666183 173.37647 
L 445.666183 172.37647 
L 445.666183 174.37647 
z
" clip-path="url(#p51a5a06126)" style="fill: #ff7f0e; fill-opacity: 0.5; stroke: #ff7f0e; stroke-opacity: 0.5; stroke-linejoin: miter"/>
   </g>
   <g id="line2d_72">
    <path d="M 447.666183 73.636727 
L 445.666183 72.636727 
L 445.666183 74.636727 
z
" clip-path="url(#p51a5a06126)" style="fill: #ff7f0e; fill-opacity: 0.5; stroke: #ff7f0e; stroke-opacity: 0.5; stroke-linejoin: miter"/>
   </g>
   <g id="line2d_73">
    <path d="M 447.666183 224.139258 
L 445.666183 223.139258 
L 445.666183 225.139258 
z
" clip-path="url(#p51a5a06126)" style="fill: #ff7f0e; fill-opacity: 0.5; stroke: #ff7f0e; stroke-opacity: 0.5; stroke-linejoin: miter"/>
   </g>
   <g id="line2d_74">
    <path d="M 447.666183 316.459623 
L 445.666183 315.459623 
L 445.666183 317.459623 
z
" clip-path="url(#p51a5a06126)" style="fill: #ff7f0e; fill-opacity: 0.5; stroke: #ff7f0e; stroke-opacity: 0.5; stroke-linejoin: miter"/>
   </g>
   <g id="line2d_75">
    <path d="M 447.666183 51.207575 
L 445.666183 50.207575 
L 445.666183 52.207575 
z
" clip-path="url(#p51a5a06126)" style="fill: #ff7f0e; fill-opacity: 0.5; stroke: #ff7f0e; stroke-opacity: 0.5; stroke-linejoin: miter"/>
   </g>
   <g id="line2d_76">
    <path d="M 447.666183 164.310502 
L 445.666183 163.310502 
L 445.666183 165.310502 
z
" clip-path="url(#p51a5a06126)" style="fill: #ff7f0e; fill-opacity: 0.5; stroke: #ff7f0e; stroke-opacity: 0.5; stroke-linejoin: miter"/>
   </g>
   <g id="line2d_77">
    <path d="M 447.666183 151.064614 
L 445.666183 150.064614 
L 445.666183 152.064614 
z
" clip-path="url(#p51a5a06126)" style="fill: #ff7f0e; fill-opacity: 0.5; stroke: #ff7f0e; stroke-opacity: 0.5; stroke-linejoin: miter"/>
   </g>
   <g id="line2d_78">
    <path d="M 447.666183 304.101212 
L 445.666183 303.101212 
L 445.666183 305.101212 
z
" clip-path="url(#p51a5a06126)" style="fill: #ff7f0e; fill-opacity: 0.5; stroke: #ff7f0e; stroke-opacity: 0.5; stroke-linejoin: miter"/>
   </g>
   <g id="line2d_79">
    <path d="M 447.666183 213.205861 
L 445.666183 212.205861 
L 445.666183 214.205861 
z
" clip-path="url(#p51a5a06126)" style="fill: #ff7f0e; fill-opacity: 0.5; stroke: #ff7f0e; stroke-opacity: 0.5; stroke-linejoin: miter"/>
   </g>
   <g id="line2d_80">
    <path d="M 389.34593 107.057219 
L 391.34593 108.057219 
L 391.34593 106.057219 
z
" clip-path="url(#p51a5a06126)" style="fill: #2ca02c; fill-opacity: 0.5; stroke: #2ca02c; stroke-opacity: 0.5; stroke-linejoin: miter"/>
   </g>
   <g id="line2d_81">
    <path d="M 389.34593 294.839057 
L 391.34593 295.839057 
L 391.34593 293.839057 
z
" clip-path="url(#p51a5a06126)" style="fill: #2ca02c; fill-opacity: 0.5; stroke: #2ca02c; stroke-opacity: 0.5; stroke-linejoin: miter"/>
   </g>
   <g id="line2d_82">
    <path d="M 389.34593 148.31725 
L 391.34593 149.31725 
L 391.34593 147.31725 
z
" clip-path="url(#p51a5a06126)" style="fill: #2ca02c; fill-opacity: 0.5; stroke: #2ca02c; stroke-opacity: 0.5; stroke-linejoin: miter"/>
   </g>
   <g id="line2d_83">
    <path d="M 389.34593 122.355895 
L 391.34593 123.355895 
L 391.34593 121.355895 
z
" clip-path="url(#p51a5a06126)" style="fill: #2ca02c; fill-opacity: 0.5; stroke: #2ca02c; stroke-opacity: 0.5; stroke-linejoin: miter"/>
   </g>
   <g id="line2d_84">
    <path d="M 389.34593 284.749697 
L 391.34593 285.749697 
L 391.34593 283.749697 
z
" clip-path="url(#p51a5a06126)" style="fill: #2ca02c; fill-opacity: 0.5; stroke: #2ca02c; stroke-opacity: 0.5; stroke-linejoin: miter"/>
   </g>
   <g id="line2d_85">
    <path d="M 389.34593 152.599539 
L 391.34593 153.599539 
L 391.34593 151.599539 
z
" clip-path="url(#p51a5a06126)" style="fill: #2ca02c; fill-opacity: 0.5; stroke: #2ca02c; stroke-opacity: 0.5; stroke-linejoin: miter"/>
   </g>
   <g id="line2d_86">
    <path d="M 389.34593 254.722228 
L 391.34593 255.722228 
L 391.34593 253.722228 
z
" clip-path="url(#p51a5a06126)" style="fill: #2ca02c; fill-opacity: 0.5; stroke: #2ca02c; stroke-opacity: 0.5; stroke-linejoin: miter"/>
   </g>
   <g id="line2d_87">
    <path d="M 389.34593 55.380564 
L 391.34593 56.380564 
L 391.34593 54.380564 
z
" clip-path="url(#p51a5a06126)" style="fill: #2ca02c; fill-opacity: 0.5; stroke: #2ca02c; stroke-opacity: 0.5; stroke-linejoin: miter"/>
   </g>
   <g id="line2d_88">
    <path d="M 389.34593 305.30195 
L 391.34593 306.30195 
L 391.34593 304.30195 
z
" clip-path="url(#p51a5a06126)" style="fill: #2ca02c; fill-opacity: 0.5; stroke: #2ca02c; stroke-opacity: 0.5; stroke-linejoin: miter"/>
   </g>
   <g id="line2d_89">
    <path d="M 389.34593 112.021832 
L 391.34593 113.021832 
L 391.34593 111.021832 
z
" clip-path="url(#p51a5a06126)" style="fill: #2ca02c; fill-opacity: 0.5; stroke: #2ca02c; stroke-opacity: 0.5; stroke-linejoin: miter"/>
   </g>
   <g id="patch_6">
    <path d="M 46.965625 318.021875 
L 46.965625 22.318125 
" style="fill: none; stroke: #000000; stroke-width: 0.8; stroke-linejoin: miter; stroke-linecap: square"/>
   </g>
   <g id="text_11">
    <!-- stepping_stone_model.yaml -->
    <g transform="translate(239.443437 16.318125) scale(0.12 -0.12)">
     <defs>
      <path id="DejaVuSans-70" d="M 1159 525 
L 1159 -1331 
L 581 -1331 
L 581 3500 
L 1159 3500 
L 1159 2969 
Q 1341 3281 1617 3432 
Q 1894 3584 2278 3584 
Q 2916 3584 3314 3078 
Q 3713 2572 3713 1747 
Q 3713 922 3314 415 
Q 2916 -91 2278 -91 
Q 1894 -91 1617 61 
Q 1341 213 1159 525 
z
M 3116 1747 
Q 3116 2381 2855 2742 
Q 2594 3103 2138 3103 
Q 1681 3103 1420 2742 
Q 1159 2381 1159 1747 
Q 1159 1113 1420 752 
Q 1681 391 2138 391 
Q 2594 391 2855 752 
Q 3116 1113 3116 1747 
z
" transform="scale(0.015625)"/>
      <path id="DejaVuSans-6e" d="M 3513 2113 
L 3513 0 
L 2938 0 
L 2938 2094 
Q 2938 2591 2744 2837 
Q 2550 3084 2163 3084 
Q 1697 3084 1428 2787 
Q 1159 2491 1159 1978 
L 1159 0 
L 581 0 
L 581 3500 
L 1159 3500 
L 1159 2956 
Q 1366 3272 1645 3428 
Q 1925 3584 2291 3584 
Q 2894 3584 3203 3211 
Q 3513 2838 3513 2113 
z
" transform="scale(0.015625)"/>
      <path id="DejaVuSans-5f" d="M 3263 -1063 
L 3263 -1509 
L -63 -1509 
L -63 -1063 
L 3263 -1063 
z
" transform="scale(0.015625)"/>
      <path id="DejaVuSans-6c" d="M 603 4863 
L 1178 4863 
L 1178 0 
L 603 0 
L 603 4863 
z
" transform="scale(0.015625)"/>
      <path id="DejaVuSans-2e" d="M 684 794 
L 1344 794 
L 1344 0 
L 684 0 
L 684 794 
z
" transform="scale(0.015625)"/>
     </defs>
     <use xlink:href="#DejaVuSans-73"/>
     <use xlink:href="#DejaVuSans-74" transform="translate(52.099609 0)"/>
     <use xlink:href="#DejaVuSans-65" transform="translate(91.308594 0)"/>
     <use xlink:href="#DejaVuSans-70" transform="translate(152.832031 0)"/>
     <use xlink:href="#DejaVuSans-70" transform="translate(216.308594 0)"/>
     <use xlink:href="#DejaVuSans-69" transform="translate(279.785156 0)"/>
     <use xlink:href="#DejaVuSans-6e" transform="translate(307.568359 0)"/>
     <use xlink:href="#DejaVuSans-67" transform="translate(370.947266 0)"/>
     <use xlink:href="#DejaVuSans-5f" transform="translate(434.423828 0)"/>
     <use xlink:href="#DejaVuSans-73" transform="translate(484.423828 0)"/>
     <use xlink:href="#DejaVuSans-74" transform="translate(536.523438 0)"/>
     <use xlink:href="#DejaVuSans-6f" transform="translate(575.732422 0)"/>
     <use xlink:href="#DejaVuSans-6e" transform="translate(636.914062 0)"/>
     <use xlink:href="#DejaVuSans-65" transform="translate(700.292969 0)"/>
     <use xlink:href="#DejaVuSans-5f" transform="translate(761.816406 0)"/>
     <use xlink:href="#DejaVuSans-6d" transform="translate(811.816406 0)"/>
     <use xlink:href="#DejaVuSans-6f" transform="translate(909.228516 0)"/>
     <use xlink:href="#DejaVuSans-64" transform="translate(970.410156 0)"/>
     <use xlink:href="#DejaVuSans-65" transform="translate(1033.886719 0)"/>
     <use xlink:href="#DejaVuSans-6c" transform="translate(1095.410156 0)"/>
     <use xlink:href="#DejaVuSans-2e" transform="translate(1123.193359 0)"/>
     <use xlink:href="#DejaVuSans-79" transform="translate(1154.980469 0)"/>
     <use xlink:href="#DejaVuSans-61" transform="translate(1214.160156 0)"/>
     <use xlink:href="#DejaVuSans-6d" transform="translate(1275.439453 0)"/>
     <use xlink:href="#DejaVuSans-6c" transform="translate(1372.851562 0)"/>
    </g>
   </g>
  </g>
 </g>
 <defs>
  <clipPath id="p51a5a06126">
   <rect x="46.965625" y="22.318125" width="553.034375" height="295.70375"/>
  </clipPath>
 </defs>
</svg>