<?xml version="1.0" encoding="utf-8" standalone="no"?>
<!DOCTYPE svg PUBLIC "-//W3C//DTD SVG 1.1//EN"
  "http://www.w3.org/Graphics/SVG/1.1/DTD/svg11.dtd">
<svg xmlns:xlink="http://www.w3.org/1999/xlink" width="607.2pt" height="338.4pt" viewBox="0 0 607.2 338.4" xmlns="http://www.w3.org/2000/svg" version="1.1">
 <metadata>
  <rdf:RDF xmlns:dc="http://purl.org/dc/elements/1.1/" xmlns:cc="http://creativecommons.org/ns#" xmlns:rdf="http://www.w3.org/1999/02/22-rdf-syntax-ns#">
   <cc:Work>
    <dc:type rdf:resource="http://purl.org/dc/dcmitype/StillImage"/>
    <dc:date>2023-12-18T08:37:39.466674</dc:date>
    <dc:format>image/svg+xml</dc:format>
    <dc:creator>
     <cc:Agent>
      <dc:title>Matplotlib v3.7.2, https://matplotlib.org/</dc:title>
     </cc:Agent>
    </dc:creator>
   </cc:Work>
  </rdf:RDF>
 </metadata>
 <defs>
  <style type="text/css">*{stroke-linejoin: round; stroke-linecap: butt}</style>
 </defs>
 <g id="figure_1">
  <g id="patch_1">
   <path d="M 0 338.4 
L 607.2 338.4 
L 607.2 0 
L 0 0 
z
" style="fill: #ffffff"/>
  </g>
  <g id="axes_1">
   <g id="patch_2">
    <path d="M 43.78125 318.021875 
L 600 318.021875 
L 600 22.318125 
L 43.78125 22.318125 
z
" style="fill: #ffffff"/>
   </g>
   <path d="M 353.703533 118.784563 
L 352.703533 118.753127 
L 351.703533 118.716186 
L 350.703533 118.61844 
L 349.703533 118.585918 
L 348.703533 118.512294 
L 347.703533 118.473728 
L 346.703533 118.438315 
L 345.703533 118.380675 
L 344.703533 118.310289 
L 343.703533 118.258324 
L 342.703533 118.199235 
L 341.703533 118.110914 
L 340.703533 118.064769 
L 339.703533 118.022358 
L 338.703533 117.991866 
L 337.703533 117.965821 
L 336.703533 117.944621 
L 335.703533 117.89032 
L 334.703533 117.862382 
L 333.703533 117.832658 
L 332.703533 117.807263 
L 331.703533 117.796063 
L 330.703533 117.785939 
L 329.703533 117.786143 
L 328.703533 117.795653 
L 327.703533 117.807307 
L 326.703533 117.838336 
L 325.703533 117.849504 
L 324.703533 117.879621 
L 323.703533 117.939398 
L 322.703533 117.97659 
L 321.703533 118.015686 
L 320.703533 118.058126 
L 319.703533 118.090891 
L 318.703533 118.158317 
L 317.703533 118.197443 
L 316.703533 118.240118 
L 315.703533 118.310698 
L 314.703533 118.347089 
L 313.703533 118.405492 
L 312.703533 118.516445 
L 311.703533 118.587103 
L 310.703533 118.700043 
L 309.703533 118.745816 
L 308.703533 118.807099 
L 307.703533 118.855598 
L 306.703533 118.936421 
L 305.703533 119.05494 
L 304.703533 119.125151 
L 303.703533 119.208413 
L 302.703533 119.241555 
L 301.703533 119.292792 
L 300.703533 119.361191 
L 299.703533 119.427406 
L 298.703533 119.504323 
L 297.703533 119.531639 
L 296.703533 119.558116 
L 295.703533 119.580767 
L 294.703533 119.600298 
L 293.703533 119.626692 
L 292.703533 119.676463 
L 291.703533 119.711536 
L 290.077717 119.747402 
" clip-path="url(#p7353e28ea1)" style="fill: none; stroke: #ff7f0e; stroke-opacity: 0.5; stroke-width: 0.2; stroke-linecap: square"/>
   <path d="M 353.703533 194.861925 
L 352.703533 194.830489 
L 351.703533 194.793548 
L 350.703533 194.695802 
L 349.703533 194.66328 
L 348.703533 194.589656 
L 347.703533 194.55109 
L 346.703533 194.515677 
L 345.703533 194.458037 
L 344.703533 194.387651 
L 343.703533 194.335686 
L 342.703533 194.276597 
L 341.703533 194.188276 
L 340.703533 194.142131 
L 339.703533 194.09972 
L 338.703533 194.069228 
L 337.703533 194.043183 
L 336.703533 194.021983 
L 335.703533 193.967682 
L 334.703533 193.939744 
L 333.703533 193.91002 
L 332.703533 193.884625 
L 331.703533 193.873425 
L 330.703533 193.863301 
L 329.703533 193.863505 
L 328.703533 193.873015 
L 327.703533 193.884669 
L 326.703533 193.915698 
L 325.703533 193.926866 
L 324.703533 193.956983 
L 323.703533 194.01676 
L 322.703533 194.053952 
L 321.703533 194.093048 
L 320.703533 194.135488 
L 319.703533 194.168253 
L 318.703533 194.235679 
L 317.703533 194.274805 
L 316.703533 194.31748 
L 315.703533 194.38806 
L 314.703533 194.424451 
L 313.703533 194.482854 
L 312.703533 194.593807 
L 311.703533 194.664465 
L 310.703533 194.777405 
L 309.703533 194.823178 
L 308.703533 194.884461 
L 307.703533 194.932961 
L 306.703533 195.013783 
L 305.703533 195.132302 
L 304.703533 195.202513 
L 303.703533 195.285775 
L 302.703533 195.318917 
L 301.703533 195.370154 
L 300.703533 195.438553 
L 299.703533 195.504768 
L 298.703533 195.581685 
L 297.703533 195.609001 
L 296.703533 195.635478 
L 295.703533 195.658129 
L 294.703533 195.67766 
L 293.703533 195.704054 
L 292.703533 195.753825 
L 291.703533 195.788898 
L 290.077717 195.824764 
" clip-path="url(#p7353e28ea1)" style="fill: none; stroke: #ff7f0e; stroke-opacity: 0.5; stroke-width: 0.2; stroke-linecap: square"/>
   <path d="M 353.703533 84.07843 
L 352.703533 84.046993 
L 351.703533 84.010053 
L 350.703533 83.912306 
L 349.703533 83.879785 
L 348.703533 83.80616 
L 347.703533 83.767594 
L 346.703533 83.732181 
L 345.703533 83.674541 
L 344.703533 83.604155 
L 343.703533 83.552191 
L 342.703533 83.493101 
L 341.703533 83.40478 
L 340.703533 83.358636 
L 339.703533 83.316225 
L 338.703533 83.285732 
L 337.703533 83.259687 
L 336.703533 83.238487 
L 335.703533 83.184186 
L 334.703533 83.156249 
L 333.703533 83.126525 
L 332.703533 83.10113 
L 331.703533 83.089929 
L 330.703533 83.079805 
L 329.703533 83.08001 
L 328.703533 83.08952 
L 327.703533 83.101173 
L 326.703533 83.132202 
L 325.703533 83.14337 
L 324.703533 83.173488 
L 323.703533 83.233265 
L 322.703533 83.270456 
L 321.703533 83.309552 
L 320.703533 83.351992 
L 319.703533 83.384757 
L 318.703533 83.452184 
L 317.703533 83.49131 
L 316.703533 83.533984 
L 315.703533 83.604565 
L 314.703533 83.640956 
L 313.703533 83.699359 
L 312.703533 83.810311 
L 311.703533 83.88097 
L 310.703533 83.99391 
L 309.703533 84.039682 
L 308.703533 84.100966 
L 307.703533 84.149465 
L 306.703533 84.230288 
L 305.703533 84.348807 
L 304.703533 84.419017 
L 303.703533 84.50228 
L 302.703533 84.535421 
L 301.703533 84.586659 
L 300.703533 84.655057 
L 299.703533 84.721273 
L 298.703533 84.79819 
L 297.703533 84.825505 
L 296.703533 84.851983 
L 295.703533 84.874633 
L 294.703533 84.894165 
L 293.703533 84.920558 
L 292.703533 84.970329 
L 291.703533 85.005402 
L 290.077717 85.041268 
" clip-path="url(#p7353e28ea1)" style="fill: none; stroke: #ff7f0e; stroke-opacity: 0.5; stroke-width: 0.2; stroke-linecap: square"/>
   <path d="M 353.703533 163.261017 
L 352.703533 163.22958 
L 351.703533 163.19264 
L 350.703533 163.094893 
L 349.703533 163.062372 
L 348.703533 162.988747 
L 347.703533 162.950181 
L 346.703533 162.914768 
L 345.703533 162.857128 
L 344.703533 162.786742 
L 343.703533 162.734778 
L 342.703533 162.675688 
L 341.703533 162.587367 
L 340.703533 162.541223 
L 339.703533 162.498812 
L 338.703533 162.468319 
L 337.703533 162.442274 
L 336.703533 162.421074 
L 335.703533 162.366773 
L 334.703533 162.338836 
L 333.703533 162.309112 
L 332.703533 162.283717 
L 331.703533 162.272516 
L 330.703533 162.262392 
L 329.703533 162.262597 
L 328.703533 162.272107 
L 327.703533 162.28376 
L 326.703533 162.314789 
L 325.703533 162.325957 
L 324.703533 162.356075 
L 323.703533 162.415852 
L 322.703533 162.453043 
L 321.703533 162.492139 
L 320.703533 162.534579 
L 319.703533 162.567344 
L 318.703533 162.634771 
L 317.703533 162.673897 
L 316.703533 162.716571 
L 315.703533 162.787152 
L 314.703533 162.823543 
L 313.703533 162.881946 
L 312.703533 162.992898 
L 311.703533 163.063557 
L 310.703533 163.176496 
L 309.703533 163.222269 
L 308.703533 163.283553 
L 307.703533 163.332052 
L 306.703533 163.412875 
L 305.703533 163.531394 
L 304.703533 163.601604 
L 303.703533 163.684867 
L 302.703533 163.718008 
L 301.703533 163.769246 
L 300.703533 163.837644 
L 299.703533 163.90386 
L 298.703533 163.980777 
L 297.703533 164.008092 
L 296.703533 164.03457 
L 295.703533 164.05722 
L 294.703533 164.076752 
L 293.703533 164.103145 
L 292.703533 164.152916 
L 291.703533 164.187989 
L 290.077717 164.223855 
" clip-path="url(#p7353e28ea1)" style="fill: none; stroke: #ff7f0e; stroke-opacity: 0.5; stroke-width: 0.2; stroke-linecap: square"/>
   <path d="M 353.703533 174.973382 
L 352.703533 174.941946 
L 351.703533 174.905006 
L 350.703533 174.807259 
L 349.703533 174.774738 
L 348.703533 174.701113 
L 347.703533 174.662547 
L 346.703533 174.627134 
L 345.703533 174.569494 
L 344.703533 174.499108 
L 343.703533 174.447144 
L 342.703533 174.388054 
L 341.703533 174.299733 
L 340.703533 174.253589 
L 339.703533 174.211178 
L 338.703533 174.180685 
L 337.703533 174.15464 
L 336.703533 174.13344 
L 335.703533 174.079139 
L 334.703533 174.051201 
L 333.703533 174.021477 
L 332.703533 173.996083 
L 331.703533 173.984882 
L 330.703533 173.974758 
L 329.703533 173.974963 
L 328.703533 173.984472 
L 327.703533 173.996126 
L 326.703533 174.027155 
L 325.703533 174.038323 
L 324.703533 174.068441 
L 323.703533 174.128218 
L 322.703533 174.165409 
L 321.703533 174.204505 
L 320.703533 174.246945 
L 319.703533 174.27971 
L 318.703533 174.347137 
L 317.703533 174.386262 
L 316.703533 174.428937 
L 315.703533 174.499518 
L 314.703533 174.535908 
L 313.703533 174.594312 
L 312.703533 174.705264 
L 311.703533 174.775923 
L 310.703533 174.888862 
L 309.703533 174.934635 
L 308.703533 174.995918 
L 307.703533 175.044418 
L 306.703533 175.12524 
L 305.703533 175.243759 
L 304.703533 175.31397 
L 303.703533 175.397233 
L 302.703533 175.430374 
L 301.703533 175.481612 
L 300.703533 175.55001 
L 299.703533 175.616225 
L 298.703533 175.693142 
L 297.703533 175.720458 
L 296.703533 175.746935 
L 295.703533 175.769586 
L 294.703533 175.789117 
L 293.703533 175.815511 
L 292.703533 175.865282 
L 291.703533 175.900355 
L 290.077717 175.936221 
" clip-path="url(#p7353e28ea1)" style="fill: none; stroke: #ff7f0e; stroke-opacity: 0.5; stroke-width: 0.2; stroke-linecap: square"/>
   <path d="M 353.703533 119.49697 
L 352.703533 119.465533 
L 351.703533 119.428593 
L 350.703533 119.330846 
L 349.703533 119.298325 
L 348.703533 119.2247 
L 347.703533 119.186134 
L 346.703533 119.150721 
L 345.703533 119.093081 
L 344.703533 119.022695 
L 343.703533 118.970731 
L 342.703533 118.911641 
L 341.703533 118.82332 
L 340.703533 118.777176 
L 339.703533 118.734765 
L 338.703533 118.704272 
L 337.703533 118.678227 
L 336.703533 118.657027 
L 335.703533 118.602726 
L 334.703533 118.574789 
L 333.703533 118.545065 
L 332.703533 118.51967 
L 331.703533 118.508469 
L 330.703533 118.498345 
L 329.703533 118.49855 
L 328.703533 118.50806 
L 327.703533 118.519713 
L 326.703533 118.550742 
L 325.703533 118.56191 
L 324.703533 118.592028 
L 323.703533 118.651805 
L 322.703533 118.688996 
L 321.703533 118.728092 
L 320.703533 118.770532 
L 319.703533 118.803297 
L 318.703533 118.870724 
L 317.703533 118.90985 
L 316.703533 118.952524 
L 315.703533 119.023105 
L 314.703533 119.059496 
L 313.703533 119.117899 
L 312.703533 119.228851 
L 311.703533 119.29951 
L 310.703533 119.41245 
L 309.703533 119.458222 
L 308.703533 119.519506 
L 307.703533 119.568005 
L 306.703533 119.648828 
L 305.703533 119.767347 
L 304.703533 119.837557 
L 303.703533 119.92082 
L 302.703533 119.953961 
L 301.703533 120.005199 
L 300.703533 120.073597 
L 299.703533 120.139813 
L 298.703533 120.21673 
L 297.703533 120.244045 
L 296.703533 120.270523 
L 295.703533 120.293173 
L 294.703533 120.312705 
L 293.703533 120.339098 
L 292.703533 120.388869 
L 291.703533 120.423942 
L 290.077717 120.459808 
" clip-path="url(#p7353e28ea1)" style="fill: none; stroke: #ff7f0e; stroke-opacity: 0.5; stroke-width: 0.2; stroke-linecap: square"/>
   <path d="M 353.703533 197.572234 
L 352.703533 197.540797 
L 351.703533 197.503857 
L 350.703533 197.40611 
L 349.703533 197.373589 
L 348.703533 197.299964 
L 347.703533 197.261398 
L 346.703533 197.225985 
L 345.703533 197.168345 
L 344.703533 197.097959 
L 343.703533 197.045995 
L 342.703533 196.986905 
L 341.703533 196.898584 
L 340.703533 196.85244 
L 339.703533 196.810029 
L 338.703533 196.779536 
L 337.703533 196.753491 
L 336.703533 196.732291 
L 335.703533 196.67799 
L 334.703533 196.650053 
L 333.703533 196.620329 
L 332.703533 196.594934 
L 331.703533 196.583733 
L 330.703533 196.573609 
L 329.703533 196.573814 
L 328.703533 196.583324 
L 327.703533 196.594977 
L 326.703533 196.626006 
L 325.703533 196.637174 
L 324.703533 196.667292 
L 323.703533 196.727069 
L 322.703533 196.76426 
L 321.703533 196.803356 
L 320.703533 196.845796 
L 319.703533 196.878561 
L 318.703533 196.945988 
L 317.703533 196.985114 
L 316.703533 197.027788 
L 315.703533 197.098369 
L 314.703533 197.13476 
L 313.703533 197.193163 
L 312.703533 197.304115 
L 311.703533 197.374774 
L 310.703533 197.487713 
L 309.703533 197.533486 
L 308.703533 197.59477 
L 307.703533 197.643269 
L 306.703533 197.724092 
L 305.703533 197.842611 
L 304.703533 197.912821 
L 303.703533 197.996084 
L 302.703533 198.029225 
L 301.703533 198.080463 
L 300.703533 198.148861 
L 299.703533 198.215077 
L 298.703533 198.291994 
L 297.703533 198.319309 
L 296.703533 198.345787 
L 295.703533 198.368437 
L 294.703533 198.387969 
L 293.703533 198.414362 
L 292.703533 198.464133 
L 291.703533 198.499206 
L 290.077717 198.535072 
" clip-path="url(#p7353e28ea1)" style="fill: none; stroke: #ff7f0e; stroke-opacity: 0.5; stroke-width: 0.2; stroke-linecap: square"/>
   <path d="M 353.703533 187.145664 
L 352.703533 187.114227 
L 351.703533 187.077287 
L 350.703533 186.97954 
L 349.703533 186.947019 
L 348.703533 186.873394 
L 347.703533 186.834828 
L 346.703533 186.799415 
L 345.703533 186.741775 
L 344.703533 186.671389 
L 343.703533 186.619425 
L 342.703533 186.560335 
L 341.703533 186.472014 
L 340.703533 186.42587 
L 339.703533 186.383459 
L 338.703533 186.352966 
L 337.703533 186.326921 
L 336.703533 186.305721 
L 335.703533 186.25142 
L 334.703533 186.223483 
L 333.703533 186.193759 
L 332.703533 186.168364 
L 331.703533 186.157163 
L 330.703533 186.147039 
L 329.703533 186.147244 
L 328.703533 186.156754 
L 327.703533 186.168407 
L 326.703533 186.199437 
L 325.703533 186.210604 
L 324.703533 186.240722 
L 323.703533 186.300499 
L 322.703533 186.33769 
L 321.703533 186.376787 
L 320.703533 186.419226 
L 319.703533 186.451991 
L 318.703533 186.519418 
L 317.703533 186.558544 
L 316.703533 186.601218 
L 315.703533 186.671799 
L 314.703533 186.70819 
L 313.703533 186.766593 
L 312.703533 186.877545 
L 311.703533 186.948204 
L 310.703533 187.061144 
L 309.703533 187.106916 
L 308.703533 187.1682 
L 307.703533 187.216699 
L 306.703533 187.297522 
L 305.703533 187.416041 
L 304.703533 187.486251 
L 303.703533 187.569514 
L 302.703533 187.602656 
L 301.703533 187.653893 
L 300.703533 187.722291 
L 299.703533 187.788507 
L 298.703533 187.865424 
L 297.703533 187.892739 
L 296.703533 187.919217 
L 295.703533 187.941867 
L 294.703533 187.961399 
L 293.703533 187.987793 
L 292.703533 188.037563 
L 291.703533 188.072637 
L 290.077717 188.108502 
" clip-path="url(#p7353e28ea1)" style="fill: none; stroke: #ff7f0e; stroke-opacity: 0.5; stroke-width: 0.2; stroke-linecap: square"/>
   <path d="M 353.703533 198.526465 
L 352.703533 198.495029 
L 351.703533 198.458089 
L 350.703533 198.360342 
L 349.703533 198.32782 
L 348.703533 198.254196 
L 347.703533 198.21563 
L 346.703533 198.180217 
L 345.703533 198.122577 
L 344.703533 198.052191 
L 343.703533 198.000227 
L 342.703533 197.941137 
L 341.703533 197.852816 
L 340.703533 197.806672 
L 339.703533 197.764261 
L 338.703533 197.733768 
L 337.703533 197.707723 
L 336.703533 197.686523 
L 335.703533 197.632222 
L 334.703533 197.604284 
L 333.703533 197.57456 
L 332.703533 197.549166 
L 331.703533 197.537965 
L 330.703533 197.527841 
L 329.703533 197.528045 
L 328.703533 197.537555 
L 327.703533 197.549209 
L 326.703533 197.580238 
L 325.703533 197.591406 
L 324.703533 197.621524 
L 323.703533 197.681301 
L 322.703533 197.718492 
L 321.703533 197.757588 
L 320.703533 197.800028 
L 319.703533 197.832793 
L 318.703533 197.900219 
L 317.703533 197.939345 
L 316.703533 197.98202 
L 315.703533 198.0526 
L 314.703533 198.088991 
L 313.703533 198.147395 
L 312.703533 198.258347 
L 311.703533 198.329005 
L 310.703533 198.441945 
L 309.703533 198.487718 
L 308.703533 198.549001 
L 307.703533 198.597501 
L 306.703533 198.678323 
L 305.703533 198.796842 
L 304.703533 198.867053 
L 303.703533 198.950315 
L 302.703533 198.983457 
L 301.703533 199.034694 
L 300.703533 199.103093 
L 299.703533 199.169308 
L 298.703533 199.246225 
L 297.703533 199.273541 
L 296.703533 199.300018 
L 295.703533 199.322669 
L 294.703533 199.3422 
L 293.703533 199.368594 
L 292.703533 199.418365 
L 291.703533 199.453438 
L 290.077717 199.489304 
" clip-path="url(#p7353e28ea1)" style="fill: none; stroke: #ff7f0e; stroke-opacity: 0.5; stroke-width: 0.2; stroke-linecap: square"/>
   <path d="M 353.703533 126.125522 
L 352.703533 126.094086 
L 351.703533 126.057146 
L 350.703533 125.959399 
L 349.703533 125.926878 
L 348.703533 125.853253 
L 347.703533 125.814687 
L 346.703533 125.779274 
L 345.703533 125.721634 
L 344.703533 125.651248 
L 343.703533 125.599284 
L 342.703533 125.540194 
L 341.703533 125.451873 
L 340.703533 125.405729 
L 339.703533 125.363318 
L 338.703533 125.332825 
L 337.703533 125.30678 
L 336.703533 125.28558 
L 335.703533 125.231279 
L 334.703533 125.203341 
L 333.703533 125.173617 
L 332.703533 125.148223 
L 331.703533 125.137022 
L 330.703533 125.126898 
L 329.703533 125.127103 
L 328.703533 125.136612 
L 327.703533 125.148266 
L 326.703533 125.179295 
L 325.703533 125.190463 
L 324.703533 125.220581 
L 323.703533 125.280358 
L 322.703533 125.317549 
L 321.703533 125.356645 
L 320.703533 125.399085 
L 319.703533 125.43185 
L 318.703533 125.499277 
L 317.703533 125.538402 
L 316.703533 125.581077 
L 315.703533 125.651658 
L 314.703533 125.688048 
L 313.703533 125.746452 
L 312.703533 125.857404 
L 311.703533 125.928063 
L 310.703533 126.041002 
L 309.703533 126.086775 
L 308.703533 126.148058 
L 307.703533 126.196558 
L 306.703533 126.27738 
L 305.703533 126.395899 
L 304.703533 126.46611 
L 303.703533 126.549373 
L 302.703533 126.582514 
L 301.703533 126.633752 
L 300.703533 126.70215 
L 299.703533 126.768365 
L 298.703533 126.845282 
L 297.703533 126.872598 
L 296.703533 126.899075 
L 295.703533 126.921726 
L 294.703533 126.941257 
L 293.703533 126.967651 
L 292.703533 127.017422 
L 291.703533 127.052495 
L 290.077717 127.088361 
" clip-path="url(#p7353e28ea1)" style="fill: none; stroke: #ff7f0e; stroke-opacity: 0.5; stroke-width: 0.2; stroke-linecap: square"/>
   <path d="M 290.077717 167.84909 
L 291.077717 167.880526 
L 292.077717 167.917466 
L 293.077717 168.015213 
L 294.077717 168.047735 
L 295.077717 168.121359 
L 296.077717 168.159925 
L 297.077717 168.195338 
L 298.077717 168.252978 
L 299.077717 168.323364 
L 300.077717 168.375328 
L 301.077717 168.434418 
L 302.077717 168.522739 
L 303.077717 168.568883 
L 304.077717 168.611294 
L 305.077717 168.641787 
L 306.077717 168.667832 
L 307.077717 168.689032 
L 308.077717 168.743333 
L 309.077717 168.771271 
L 310.077717 168.800995 
L 311.077717 168.826389 
L 312.077717 168.83759 
L 313.077717 168.847714 
L 314.077717 168.847509 
L 315.077717 168.838 
L 316.077717 168.826346 
L 317.077717 168.795317 
L 318.077717 168.784149 
L 319.077717 168.754031 
L 320.077717 168.694254 
L 321.077717 168.657063 
L 322.077717 168.617967 
L 323.077717 168.575527 
L 324.077717 168.542762 
L 325.077717 168.475336 
L 326.077717 168.43621 
L 327.077717 168.393535 
L 328.077717 168.322955 
L 329.077717 168.286564 
L 330.077717 168.22816 
L 331.077717 168.117208 
L 332.077717 168.04655 
L 333.077717 167.93361 
L 334.077717 167.887837 
L 335.077717 167.826554 
L 336.077717 167.778054 
L 337.077717 167.697232 
L 338.077717 167.578713 
L 339.077717 167.508502 
L 340.077717 167.42524 
L 341.077717 167.392098 
L 342.077717 167.340861 
L 343.077717 167.272462 
L 344.077717 167.206247 
L 345.077717 167.12933 
L 346.077717 167.102014 
L 347.077717 167.075537 
L 348.077717 167.052886 
L 349.077717 167.033355 
L 350.077717 167.006961 
L 351.077717 166.95719 
L 352.077717 166.922117 
L 353.703533 166.886251 
" clip-path="url(#p7353e28ea1)" style="fill: none; stroke: #1f77b4; stroke-opacity: 0.5; stroke-width: 0.2; stroke-linecap: square"/>
   <path d="M 290.077717 182.762858 
L 291.077717 182.794295 
L 292.077717 182.831235 
L 293.077717 182.928982 
L 294.077717 182.961503 
L 295.077717 183.035128 
L 296.077717 183.073693 
L 297.077717 183.109107 
L 298.077717 183.166747 
L 299.077717 183.237133 
L 300.077717 183.289097 
L 301.077717 183.348187 
L 302.077717 183.436508 
L 303.077717 183.482652 
L 304.077717 183.525063 
L 305.077717 183.555556 
L 306.077717 183.581601 
L 307.077717 183.602801 
L 308.077717 183.657102 
L 309.077717 183.685039 
L 310.077717 183.714763 
L 311.077717 183.740158 
L 312.077717 183.751358 
L 313.077717 183.761482 
L 314.077717 183.761278 
L 315.077717 183.751768 
L 316.077717 183.740115 
L 317.077717 183.709085 
L 318.077717 183.697917 
L 319.077717 183.6678 
L 320.077717 183.608023 
L 321.077717 183.570831 
L 322.077717 183.531735 
L 323.077717 183.489296 
L 324.077717 183.456531 
L 325.077717 183.389104 
L 326.077717 183.349978 
L 327.077717 183.307304 
L 328.077717 183.236723 
L 329.077717 183.200332 
L 330.077717 183.141929 
L 331.077717 183.030976 
L 332.077717 182.960318 
L 333.077717 182.847378 
L 334.077717 182.801605 
L 335.077717 182.740322 
L 336.077717 182.691823 
L 337.077717 182.611 
L 338.077717 182.492481 
L 339.077717 182.422271 
L 340.077717 182.339008 
L 341.077717 182.305866 
L 342.077717 182.254629 
L 343.077717 182.186231 
L 344.077717 182.120015 
L 345.077717 182.043098 
L 346.077717 182.015783 
L 347.077717 181.989305 
L 348.077717 181.966655 
L 349.077717 181.947123 
L 350.077717 181.920729 
L 351.077717 181.870958 
L 352.077717 181.835885 
L 353.703533 181.80002 
" clip-path="url(#p7353e28ea1)" style="fill: none; stroke: #1f77b4; stroke-opacity: 0.5; stroke-width: 0.2; stroke-linecap: square"/>
   <path d="M 290.077717 179.454348 
L 291.077717 179.485784 
L 292.077717 179.522725 
L 293.077717 179.620471 
L 294.077717 179.652993 
L 295.077717 179.726618 
L 296.077717 179.765183 
L 297.077717 179.800596 
L 298.077717 179.858236 
L 299.077717 179.928623 
L 300.077717 179.980587 
L 301.077717 180.039677 
L 302.077717 180.127997 
L 303.077717 180.174142 
L 304.077717 180.216553 
L 305.077717 180.247045 
L 306.077717 180.27309 
L 307.077717 180.29429 
L 308.077717 180.348592 
L 309.077717 180.376529 
L 310.077717 180.406253 
L 311.077717 180.431648 
L 312.077717 180.442848 
L 313.077717 180.452972 
L 314.077717 180.452768 
L 315.077717 180.443258 
L 316.077717 180.431604 
L 317.077717 180.400575 
L 318.077717 180.389407 
L 319.077717 180.35929 
L 320.077717 180.299513 
L 321.077717 180.262321 
L 322.077717 180.223225 
L 323.077717 180.180786 
L 324.077717 180.14802 
L 325.077717 180.080594 
L 326.077717 180.041468 
L 327.077717 179.998794 
L 328.077717 179.928213 
L 329.077717 179.891822 
L 330.077717 179.833419 
L 331.077717 179.722466 
L 332.077717 179.651808 
L 333.077717 179.538868 
L 334.077717 179.493095 
L 335.077717 179.431812 
L 336.077717 179.383313 
L 337.077717 179.30249 
L 338.077717 179.183971 
L 339.077717 179.11376 
L 340.077717 179.030498 
L 341.077717 178.997356 
L 342.077717 178.946119 
L 343.077717 178.877721 
L 344.077717 178.811505 
L 345.077717 178.734588 
L 346.077717 178.707273 
L 347.077717 178.680795 
L 348.077717 178.658144 
L 349.077717 178.638613 
L 350.077717 178.612219 
L 351.077717 178.562448 
L 352.077717 178.527375 
L 353.703533 178.49151 
" clip-path="url(#p7353e28ea1)" style="fill: none; stroke: #1f77b4; stroke-opacity: 0.5; stroke-width: 0.2; stroke-linecap: square"/>
   <path d="M 290.077717 185.278533 
L 291.077717 185.309969 
L 292.077717 185.346909 
L 293.077717 185.444656 
L 294.077717 185.477177 
L 295.077717 185.550802 
L 296.077717 185.589368 
L 297.077717 185.624781 
L 298.077717 185.682421 
L 299.077717 185.752807 
L 300.077717 185.804771 
L 301.077717 185.863861 
L 302.077717 185.952182 
L 303.077717 185.998326 
L 304.077717 186.040737 
L 305.077717 186.07123 
L 306.077717 186.097275 
L 307.077717 186.118475 
L 308.077717 186.172776 
L 309.077717 186.200714 
L 310.077717 186.230438 
L 311.077717 186.255832 
L 312.077717 186.267033 
L 313.077717 186.277157 
L 314.077717 186.276952 
L 315.077717 186.267442 
L 316.077717 186.255789 
L 317.077717 186.22476 
L 318.077717 186.213592 
L 319.077717 186.183474 
L 320.077717 186.123697 
L 321.077717 186.086506 
L 322.077717 186.04741 
L 323.077717 186.00497 
L 324.077717 185.972205 
L 325.077717 185.904778 
L 326.077717 185.865653 
L 327.077717 185.822978 
L 328.077717 185.752397 
L 329.077717 185.716007 
L 330.077717 185.657603 
L 331.077717 185.546651 
L 332.077717 185.475992 
L 333.077717 185.363053 
L 334.077717 185.31728 
L 335.077717 185.255996 
L 336.077717 185.207497 
L 337.077717 185.126674 
L 338.077717 185.008156 
L 339.077717 184.937945 
L 340.077717 184.854682 
L 341.077717 184.821541 
L 342.077717 184.770303 
L 343.077717 184.701905 
L 344.077717 184.63569 
L 345.077717 184.558773 
L 346.077717 184.531457 
L 347.077717 184.50498 
L 348.077717 184.482329 
L 349.077717 184.462798 
L 350.077717 184.436404 
L 351.077717 184.386633 
L 352.077717 184.35156 
L 353.703533 184.315694 
" clip-path="url(#p7353e28ea1)" style="fill: none; stroke: #1f77b4; stroke-opacity: 0.5; stroke-width: 0.2; stroke-linecap: square"/>
   <path d="M 290.077717 90.854751 
L 291.077717 90.886188 
L 292.077717 90.923128 
L 293.077717 91.020874 
L 294.077717 91.053396 
L 295.077717 91.127021 
L 296.077717 91.165586 
L 297.077717 91.200999 
L 298.077717 91.258639 
L 299.077717 91.329026 
L 300.077717 91.38099 
L 301.077717 91.44008 
L 302.077717 91.528401 
L 303.077717 91.574545 
L 304.077717 91.616956 
L 305.077717 91.647448 
L 306.077717 91.673493 
L 307.077717 91.694693 
L 308.077717 91.748995 
L 309.077717 91.776932 
L 310.077717 91.806656 
L 311.077717 91.832051 
L 312.077717 91.843251 
L 313.077717 91.853375 
L 314.077717 91.853171 
L 315.077717 91.843661 
L 316.077717 91.832008 
L 317.077717 91.800978 
L 318.077717 91.78981 
L 319.077717 91.759693 
L 320.077717 91.699916 
L 321.077717 91.662724 
L 322.077717 91.623628 
L 323.077717 91.581189 
L 324.077717 91.548423 
L 325.077717 91.480997 
L 326.077717 91.441871 
L 327.077717 91.399197 
L 328.077717 91.328616 
L 329.077717 91.292225 
L 330.077717 91.233822 
L 331.077717 91.122869 
L 332.077717 91.052211 
L 333.077717 90.939271 
L 334.077717 90.893498 
L 335.077717 90.832215 
L 336.077717 90.783716 
L 337.077717 90.702893 
L 338.077717 90.584374 
L 339.077717 90.514164 
L 340.077717 90.430901 
L 341.077717 90.397759 
L 342.077717 90.346522 
L 343.077717 90.278124 
L 344.077717 90.211908 
L 345.077717 90.134991 
L 346.077717 90.107676 
L 347.077717 90.081198 
L 348.077717 90.058547 
L 349.077717 90.039016 
L 350.077717 90.012622 
L 351.077717 89.962851 
L 352.077717 89.927778 
L 353.703533 89.891913 
" clip-path="url(#p7353e28ea1)" style="fill: none; stroke: #1f77b4; stroke-opacity: 0.5; stroke-width: 0.2; stroke-linecap: square"/>
   <path d="M 290.077717 137.479646 
L 291.077717 137.511082 
L 292.077717 137.548023 
L 293.077717 137.645769 
L 294.077717 137.678291 
L 295.077717 137.751915 
L 296.077717 137.790481 
L 297.077717 137.825894 
L 298.077717 137.883534 
L 299.077717 137.95392 
L 300.077717 138.005885 
L 301.077717 138.064974 
L 302.077717 138.153295 
L 303.077717 138.19944 
L 304.077717 138.24185 
L 305.077717 138.272343 
L 306.077717 138.298388 
L 307.077717 138.319588 
L 308.077717 138.373889 
L 309.077717 138.401827 
L 310.077717 138.431551 
L 311.077717 138.456946 
L 312.077717 138.468146 
L 313.077717 138.47827 
L 314.077717 138.478066 
L 315.077717 138.468556 
L 316.077717 138.456902 
L 317.077717 138.425873 
L 318.077717 138.414705 
L 319.077717 138.384587 
L 320.077717 138.324811 
L 321.077717 138.287619 
L 322.077717 138.248523 
L 323.077717 138.206083 
L 324.077717 138.173318 
L 325.077717 138.105892 
L 326.077717 138.066766 
L 327.077717 138.024091 
L 328.077717 137.953511 
L 329.077717 137.91712 
L 330.077717 137.858717 
L 331.077717 137.747764 
L 332.077717 137.677106 
L 333.077717 137.564166 
L 334.077717 137.518393 
L 335.077717 137.45711 
L 336.077717 137.40861 
L 337.077717 137.327788 
L 338.077717 137.209269 
L 339.077717 137.139058 
L 340.077717 137.055796 
L 341.077717 137.022654 
L 342.077717 136.971417 
L 343.077717 136.903018 
L 344.077717 136.836803 
L 345.077717 136.759886 
L 346.077717 136.73257 
L 347.077717 136.706093 
L 348.077717 136.683442 
L 349.077717 136.663911 
L 350.077717 136.637517 
L 351.077717 136.587746 
L 352.077717 136.552673 
L 353.703533 136.516807 
" clip-path="url(#p7353e28ea1)" style="fill: none; stroke: #1f77b4; stroke-opacity: 0.5; stroke-width: 0.2; stroke-linecap: square"/>
   <path d="M 290.077717 196.825731 
L 291.077717 196.857167 
L 292.077717 196.894108 
L 293.077717 196.991854 
L 294.077717 197.024376 
L 295.077717 197.098 
L 296.077717 197.136566 
L 297.077717 197.171979 
L 298.077717 197.229619 
L 299.077717 197.300005 
L 300.077717 197.351969 
L 301.077717 197.411059 
L 302.077717 197.49938 
L 303.077717 197.545525 
L 304.077717 197.587935 
L 305.077717 197.618428 
L 306.077717 197.644473 
L 307.077717 197.665673 
L 308.077717 197.719974 
L 309.077717 197.747912 
L 310.077717 197.777636 
L 311.077717 197.803031 
L 312.077717 197.814231 
L 313.077717 197.824355 
L 314.077717 197.824151 
L 315.077717 197.814641 
L 316.077717 197.802987 
L 317.077717 197.771958 
L 318.077717 197.76079 
L 319.077717 197.730672 
L 320.077717 197.670896 
L 321.077717 197.633704 
L 322.077717 197.594608 
L 323.077717 197.552168 
L 324.077717 197.519403 
L 325.077717 197.451977 
L 326.077717 197.412851 
L 327.077717 197.370176 
L 328.077717 197.299596 
L 329.077717 197.263205 
L 330.077717 197.204802 
L 331.077717 197.093849 
L 332.077717 197.023191 
L 333.077717 196.910251 
L 334.077717 196.864478 
L 335.077717 196.803195 
L 336.077717 196.754695 
L 337.077717 196.673873 
L 338.077717 196.555354 
L 339.077717 196.485143 
L 340.077717 196.401881 
L 341.077717 196.368739 
L 342.077717 196.317502 
L 343.077717 196.249103 
L 344.077717 196.182888 
L 345.077717 196.105971 
L 346.077717 196.078655 
L 347.077717 196.052178 
L 348.077717 196.029527 
L 349.077717 196.009996 
L 350.077717 195.983602 
L 351.077717 195.933831 
L 352.077717 195.898758 
L 353.703533 195.862892 
" clip-path="url(#p7353e28ea1)" style="fill: none; stroke: #1f77b4; stroke-opacity: 0.5; stroke-width: 0.2; stroke-linecap: square"/>
   <path d="M 290.077717 93.835768 
L 291.077717 93.867205 
L 292.077717 93.904145 
L 293.077717 94.001892 
L 294.077717 94.034413 
L 295.077717 94.108038 
L 296.077717 94.146604 
L 297.077717 94.182017 
L 298.077717 94.239657 
L 299.077717 94.310043 
L 300.077717 94.362007 
L 301.077717 94.421097 
L 302.077717 94.509418 
L 303.077717 94.555562 
L 304.077717 94.597973 
L 305.077717 94.628466 
L 306.077717 94.654511 
L 307.077717 94.675711 
L 308.077717 94.730012 
L 309.077717 94.757949 
L 310.077717 94.787673 
L 311.077717 94.813068 
L 312.077717 94.824269 
L 313.077717 94.834392 
L 314.077717 94.834188 
L 315.077717 94.824678 
L 316.077717 94.813025 
L 317.077717 94.781995 
L 318.077717 94.770828 
L 319.077717 94.74071 
L 320.077717 94.680933 
L 321.077717 94.643742 
L 322.077717 94.604645 
L 323.077717 94.562206 
L 324.077717 94.529441 
L 325.077717 94.462014 
L 326.077717 94.422888 
L 327.077717 94.380214 
L 328.077717 94.309633 
L 329.077717 94.273242 
L 330.077717 94.214839 
L 331.077717 94.103887 
L 332.077717 94.033228 
L 333.077717 93.920288 
L 334.077717 93.874516 
L 335.077717 93.813232 
L 336.077717 93.764733 
L 337.077717 93.68391 
L 338.077717 93.565391 
L 339.077717 93.495181 
L 340.077717 93.411918 
L 341.077717 93.378776 
L 342.077717 93.327539 
L 343.077717 93.259141 
L 344.077717 93.192925 
L 345.077717 93.116008 
L 346.077717 93.088693 
L 347.077717 93.062215 
L 348.077717 93.039565 
L 349.077717 93.020033 
L 350.077717 92.993639 
L 351.077717 92.943869 
L 352.077717 92.908795 
L 353.703533 92.87293 
" clip-path="url(#p7353e28ea1)" style="fill: none; stroke: #1f77b4; stroke-opacity: 0.5; stroke-width: 0.2; stroke-linecap: square"/>
   <path d="M 290.077717 110.381957 
L 291.077717 110.413393 
L 292.077717 110.450333 
L 293.077717 110.54808 
L 294.077717 110.580602 
L 295.077717 110.654226 
L 296.077717 110.692792 
L 297.077717 110.728205 
L 298.077717 110.785845 
L 299.077717 110.856231 
L 300.077717 110.908195 
L 301.077717 110.967285 
L 302.077717 111.055606 
L 303.077717 111.10175 
L 304.077717 111.144161 
L 305.077717 111.174654 
L 306.077717 111.200699 
L 307.077717 111.221899 
L 308.077717 111.2762 
L 309.077717 111.304138 
L 310.077717 111.333862 
L 311.077717 111.359256 
L 312.077717 111.370457 
L 313.077717 111.380581 
L 314.077717 111.380376 
L 315.077717 111.370867 
L 316.077717 111.359213 
L 317.077717 111.328184 
L 318.077717 111.317016 
L 319.077717 111.286898 
L 320.077717 111.227121 
L 321.077717 111.18993 
L 322.077717 111.150834 
L 323.077717 111.108394 
L 324.077717 111.075629 
L 325.077717 111.008203 
L 326.077717 110.969077 
L 327.077717 110.926402 
L 328.077717 110.855822 
L 329.077717 110.819431 
L 330.077717 110.761027 
L 331.077717 110.650075 
L 332.077717 110.579417 
L 333.077717 110.466477 
L 334.077717 110.420704 
L 335.077717 110.359421 
L 336.077717 110.310921 
L 337.077717 110.230099 
L 338.077717 110.11158 
L 339.077717 110.041369 
L 340.077717 109.958107 
L 341.077717 109.924965 
L 342.077717 109.873728 
L 343.077717 109.805329 
L 344.077717 109.739114 
L 345.077717 109.662197 
L 346.077717 109.634881 
L 347.077717 109.608404 
L 348.077717 109.585753 
L 349.077717 109.566222 
L 350.077717 109.539828 
L 351.077717 109.490057 
L 352.077717 109.454984 
L 353.703533 109.419118 
" clip-path="url(#p7353e28ea1)" style="fill: none; stroke: #1f77b4; stroke-opacity: 0.5; stroke-width: 0.2; stroke-linecap: square"/>
   <path d="M 290.077717 91.433537 
L 291.077717 91.464974 
L 292.077717 91.501914 
L 293.077717 91.599661 
L 294.077717 91.632182 
L 295.077717 91.705807 
L 296.077717 91.744372 
L 297.077717 91.779786 
L 298.077717 91.837426 
L 299.077717 91.907812 
L 300.077717 91.959776 
L 301.077717 92.018866 
L 302.077717 92.107187 
L 303.077717 92.153331 
L 304.077717 92.195742 
L 305.077717 92.226235 
L 306.077717 92.25228 
L 307.077717 92.27348 
L 308.077717 92.327781 
L 309.077717 92.355718 
L 310.077717 92.385442 
L 311.077717 92.410837 
L 312.077717 92.422037 
L 313.077717 92.432161 
L 314.077717 92.431957 
L 315.077717 92.422447 
L 316.077717 92.410794 
L 317.077717 92.379764 
L 318.077717 92.368596 
L 319.077717 92.338479 
L 320.077717 92.278702 
L 321.077717 92.24151 
L 322.077717 92.202414 
L 323.077717 92.159975 
L 324.077717 92.12721 
L 325.077717 92.059783 
L 326.077717 92.020657 
L 327.077717 91.977983 
L 328.077717 91.907402 
L 329.077717 91.871011 
L 330.077717 91.812608 
L 331.077717 91.701655 
L 332.077717 91.630997 
L 333.077717 91.518057 
L 334.077717 91.472284 
L 335.077717 91.411001 
L 336.077717 91.362502 
L 337.077717 91.281679 
L 338.077717 91.16316 
L 339.077717 91.09295 
L 340.077717 91.009687 
L 341.077717 90.976545 
L 342.077717 90.925308 
L 343.077717 90.85691 
L 344.077717 90.790694 
L 345.077717 90.713777 
L 346.077717 90.686462 
L 347.077717 90.659984 
L 348.077717 90.637334 
L 349.077717 90.617802 
L 350.077717 90.591408 
L 351.077717 90.541638 
L 352.077717 90.506564 
L 353.703533 90.470699 
" clip-path="url(#p7353e28ea1)" style="fill: none; stroke: #1f77b4; stroke-opacity: 0.5; stroke-width: 0.2; stroke-linecap: square"/>
   <path d="M 353.703533 311.421133 
L 352.703533 311.389697 
L 351.703533 311.352756 
L 350.703533 311.25501 
L 349.703533 311.222488 
L 348.703533 311.148863 
L 347.703533 311.110298 
L 346.703533 311.074885 
L 345.703533 311.017245 
L 344.703533 310.946859 
L 343.703533 310.894894 
L 342.703533 310.835805 
L 341.703533 310.747484 
L 340.703533 310.701339 
L 339.703533 310.658928 
L 338.703533 310.628436 
L 337.703533 310.602391 
L 336.703533 310.581191 
L 335.703533 310.52689 
L 334.703533 310.498952 
L 333.703533 310.469228 
L 332.703533 310.443833 
L 331.703533 310.432633 
L 330.703533 310.422509 
L 329.703533 310.422713 
L 328.703533 310.432223 
L 327.703533 310.443877 
L 326.703533 310.474906 
L 325.703533 310.486074 
L 324.703533 310.516191 
L 323.703533 310.575968 
L 322.703533 310.61316 
L 321.703533 310.652256 
L 320.703533 310.694696 
L 319.703533 310.727461 
L 318.703533 310.794887 
L 317.703533 310.834013 
L 316.703533 310.876688 
L 315.703533 310.947268 
L 314.703533 310.983659 
L 313.703533 311.042062 
L 312.703533 311.153015 
L 311.703533 311.223673 
L 310.703533 311.336613 
L 309.703533 311.382386 
L 308.703533 311.443669 
L 307.703533 311.492168 
L 306.703533 311.572991 
L 305.703533 311.69151 
L 304.703533 311.761721 
L 303.703533 311.844983 
L 302.703533 311.878125 
L 301.703533 311.929362 
L 300.703533 311.997761 
L 299.703533 312.063976 
L 298.703533 312.140893 
L 297.703533 312.168209 
L 296.703533 312.194686 
L 295.703533 312.217337 
L 294.703533 312.236868 
L 293.703533 312.263262 
L 292.703533 312.313033 
L 291.703533 312.348106 
L 290.077717 312.383972 
" clip-path="url(#p7353e28ea1)" style="fill: none; stroke: #ff7f0e; stroke-opacity: 0.5; stroke-width: 0.2; stroke-linecap: square"/>
   <path d="M 353.703533 299.650992 
L 352.703533 299.619555 
L 351.703533 299.582615 
L 350.703533 299.484868 
L 349.703533 299.452347 
L 348.703533 299.378722 
L 347.703533 299.340156 
L 346.703533 299.304743 
L 345.703533 299.247103 
L 344.703533 299.176717 
L 343.703533 299.124753 
L 342.703533 299.065663 
L 341.703533 298.977342 
L 340.703533 298.931198 
L 339.703533 298.888787 
L 338.703533 298.858294 
L 337.703533 298.832249 
L 336.703533 298.811049 
L 335.703533 298.756748 
L 334.703533 298.728811 
L 333.703533 298.699087 
L 332.703533 298.673692 
L 331.703533 298.662491 
L 330.703533 298.652367 
L 329.703533 298.652572 
L 328.703533 298.662082 
L 327.703533 298.673735 
L 326.703533 298.704764 
L 325.703533 298.715932 
L 324.703533 298.74605 
L 323.703533 298.805827 
L 322.703533 298.843018 
L 321.703533 298.882114 
L 320.703533 298.924554 
L 319.703533 298.957319 
L 318.703533 299.024746 
L 317.703533 299.063872 
L 316.703533 299.106546 
L 315.703533 299.177127 
L 314.703533 299.213518 
L 313.703533 299.271921 
L 312.703533 299.382873 
L 311.703533 299.453532 
L 310.703533 299.566472 
L 309.703533 299.612244 
L 308.703533 299.673528 
L 307.703533 299.722027 
L 306.703533 299.80285 
L 305.703533 299.921369 
L 304.703533 299.991579 
L 303.703533 300.074842 
L 302.703533 300.107983 
L 301.703533 300.159221 
L 300.703533 300.227619 
L 299.703533 300.293835 
L 298.703533 300.370752 
L 297.703533 300.398067 
L 296.703533 300.424545 
L 295.703533 300.447195 
L 294.703533 300.466727 
L 293.703533 300.493121 
L 292.703533 300.542891 
L 291.703533 300.577964 
L 290.077717 300.61383 
" clip-path="url(#p7353e28ea1)" style="fill: none; stroke: #ff7f0e; stroke-opacity: 0.5; stroke-width: 0.2; stroke-linecap: square"/>
   <path d="M 353.703533 270.946383 
L 352.703533 270.914946 
L 351.703533 270.878006 
L 350.703533 270.78026 
L 349.703533 270.747738 
L 348.703533 270.674113 
L 347.703533 270.635548 
L 346.703533 270.600135 
L 345.703533 270.542495 
L 344.703533 270.472108 
L 343.703533 270.420144 
L 342.703533 270.361054 
L 341.703533 270.272733 
L 340.703533 270.226589 
L 339.703533 270.184178 
L 338.703533 270.153686 
L 337.703533 270.127641 
L 336.703533 270.10644 
L 335.703533 270.052139 
L 334.703533 270.024202 
L 333.703533 269.994478 
L 332.703533 269.969083 
L 331.703533 269.957883 
L 330.703533 269.947759 
L 329.703533 269.947963 
L 328.703533 269.957473 
L 327.703533 269.969126 
L 326.703533 270.000156 
L 325.703533 270.011324 
L 324.703533 270.041441 
L 323.703533 270.101218 
L 322.703533 270.13841 
L 321.703533 270.177506 
L 320.703533 270.219945 
L 319.703533 270.25271 
L 318.703533 270.320137 
L 317.703533 270.359263 
L 316.703533 270.401937 
L 315.703533 270.472518 
L 314.703533 270.508909 
L 313.703533 270.567312 
L 312.703533 270.678265 
L 311.703533 270.748923 
L 310.703533 270.861863 
L 309.703533 270.907636 
L 308.703533 270.968919 
L 307.703533 271.017418 
L 306.703533 271.098241 
L 305.703533 271.21676 
L 304.703533 271.28697 
L 303.703533 271.370233 
L 302.703533 271.403375 
L 301.703533 271.454612 
L 300.703533 271.52301 
L 299.703533 271.589226 
L 298.703533 271.666143 
L 297.703533 271.693458 
L 296.703533 271.719936 
L 295.703533 271.742587 
L 294.703533 271.762118 
L 293.703533 271.788512 
L 292.703533 271.838283 
L 291.703533 271.873356 
L 290.077717 271.909221 
" clip-path="url(#p7353e28ea1)" style="fill: none; stroke: #ff7f0e; stroke-opacity: 0.5; stroke-width: 0.2; stroke-linecap: square"/>
   <path d="M 353.703533 293.069861 
L 352.703533 293.038425 
L 351.703533 293.001484 
L 350.703533 292.903738 
L 349.703533 292.871216 
L 348.703533 292.797591 
L 347.703533 292.759026 
L 346.703533 292.723613 
L 345.703533 292.665973 
L 344.703533 292.595586 
L 343.703533 292.543622 
L 342.703533 292.484532 
L 341.703533 292.396212 
L 340.703533 292.350067 
L 339.703533 292.307656 
L 338.703533 292.277164 
L 337.703533 292.251119 
L 336.703533 292.229919 
L 335.703533 292.175617 
L 334.703533 292.14768 
L 333.703533 292.117956 
L 332.703533 292.092561 
L 331.703533 292.081361 
L 330.703533 292.071237 
L 329.703533 292.071441 
L 328.703533 292.080951 
L 327.703533 292.092605 
L 326.703533 292.123634 
L 325.703533 292.134802 
L 324.703533 292.164919 
L 323.703533 292.224696 
L 322.703533 292.261888 
L 321.703533 292.300984 
L 320.703533 292.343423 
L 319.703533 292.376189 
L 318.703533 292.443615 
L 317.703533 292.482741 
L 316.703533 292.525415 
L 315.703533 292.595996 
L 314.703533 292.632387 
L 313.703533 292.69079 
L 312.703533 292.801743 
L 311.703533 292.872401 
L 310.703533 292.985341 
L 309.703533 293.031114 
L 308.703533 293.092397 
L 307.703533 293.140896 
L 306.703533 293.221719 
L 305.703533 293.340238 
L 304.703533 293.410449 
L 303.703533 293.493711 
L 302.703533 293.526853 
L 301.703533 293.57809 
L 300.703533 293.646488 
L 299.703533 293.712704 
L 298.703533 293.789621 
L 297.703533 293.816936 
L 296.703533 293.843414 
L 295.703533 293.866065 
L 294.703533 293.885596 
L 293.703533 293.91199 
L 292.703533 293.961761 
L 291.703533 293.996834 
L 290.077717 294.032699 
" clip-path="url(#p7353e28ea1)" style="fill: none; stroke: #ff7f0e; stroke-opacity: 0.5; stroke-width: 0.2; stroke-linecap: square"/>
   <path d="M 353.703533 263.489952 
L 352.703533 263.458516 
L 351.703533 263.421576 
L 350.703533 263.323829 
L 349.703533 263.291308 
L 348.703533 263.217683 
L 347.703533 263.179117 
L 346.703533 263.143704 
L 345.703533 263.086064 
L 344.703533 263.015678 
L 343.703533 262.963714 
L 342.703533 262.904624 
L 341.703533 262.816303 
L 340.703533 262.770159 
L 339.703533 262.727748 
L 338.703533 262.697255 
L 337.703533 262.67121 
L 336.703533 262.65001 
L 335.703533 262.595709 
L 334.703533 262.567771 
L 333.703533 262.538047 
L 332.703533 262.512653 
L 331.703533 262.501452 
L 330.703533 262.491328 
L 329.703533 262.491533 
L 328.703533 262.501043 
L 327.703533 262.512696 
L 326.703533 262.543725 
L 325.703533 262.554893 
L 324.703533 262.585011 
L 323.703533 262.644788 
L 322.703533 262.681979 
L 321.703533 262.721075 
L 320.703533 262.763515 
L 319.703533 262.79628 
L 318.703533 262.863707 
L 317.703533 262.902832 
L 316.703533 262.945507 
L 315.703533 263.016088 
L 314.703533 263.052478 
L 313.703533 263.110882 
L 312.703533 263.221834 
L 311.703533 263.292493 
L 310.703533 263.405432 
L 309.703533 263.451205 
L 308.703533 263.512489 
L 307.703533 263.560988 
L 306.703533 263.641811 
L 305.703533 263.760329 
L 304.703533 263.83054 
L 303.703533 263.913803 
L 302.703533 263.946944 
L 301.703533 263.998182 
L 300.703533 264.06658 
L 299.703533 264.132795 
L 298.703533 264.209712 
L 297.703533 264.237028 
L 296.703533 264.263505 
L 295.703533 264.286156 
L 294.703533 264.305687 
L 293.703533 264.332081 
L 292.703533 264.381852 
L 291.703533 264.416925 
L 290.077717 264.452791 
" clip-path="url(#p7353e28ea1)" style="fill: none; stroke: #ff7f0e; stroke-opacity: 0.5; stroke-width: 0.2; stroke-linecap: square"/>
   <path d="M 353.703533 241.03103 
L 352.703533 240.999594 
L 351.703533 240.962654 
L 350.703533 240.864907 
L 349.703533 240.832385 
L 348.703533 240.758761 
L 347.703533 240.720195 
L 346.703533 240.684782 
L 345.703533 240.627142 
L 344.703533 240.556756 
L 343.703533 240.504792 
L 342.703533 240.445702 
L 341.703533 240.357381 
L 340.703533 240.311237 
L 339.703533 240.268826 
L 338.703533 240.238333 
L 337.703533 240.212288 
L 336.703533 240.191088 
L 335.703533 240.136787 
L 334.703533 240.108849 
L 333.703533 240.079125 
L 332.703533 240.053731 
L 331.703533 240.04253 
L 330.703533 240.032406 
L 329.703533 240.032611 
L 328.703533 240.04212 
L 327.703533 240.053774 
L 326.703533 240.084803 
L 325.703533 240.095971 
L 324.703533 240.126089 
L 323.703533 240.185866 
L 322.703533 240.223057 
L 321.703533 240.262153 
L 320.703533 240.304593 
L 319.703533 240.337358 
L 318.703533 240.404784 
L 317.703533 240.44391 
L 316.703533 240.486585 
L 315.703533 240.557166 
L 314.703533 240.593556 
L 313.703533 240.65196 
L 312.703533 240.762912 
L 311.703533 240.83357 
L 310.703533 240.94651 
L 309.703533 240.992283 
L 308.703533 241.053566 
L 307.703533 241.102066 
L 306.703533 241.182888 
L 305.703533 241.301407 
L 304.703533 241.371618 
L 303.703533 241.45488 
L 302.703533 241.488022 
L 301.703533 241.53926 
L 300.703533 241.607658 
L 299.703533 241.673873 
L 298.703533 241.75079 
L 297.703533 241.778106 
L 296.703533 241.804583 
L 295.703533 241.827234 
L 294.703533 241.846765 
L 293.703533 241.873159 
L 292.703533 241.92293 
L 291.703533 241.958003 
L 290.077717 241.993869 
" clip-path="url(#p7353e28ea1)" style="fill: none; stroke: #ff7f0e; stroke-opacity: 0.5; stroke-width: 0.2; stroke-linecap: square"/>
   <path d="M 353.703533 247.115951 
L 352.703533 247.084515 
L 351.703533 247.047574 
L 350.703533 246.949828 
L 349.703533 246.917306 
L 348.703533 246.843682 
L 347.703533 246.805116 
L 346.703533 246.769703 
L 345.703533 246.712063 
L 344.703533 246.641677 
L 343.703533 246.589713 
L 342.703533 246.530623 
L 341.703533 246.442302 
L 340.703533 246.396158 
L 339.703533 246.353747 
L 338.703533 246.323254 
L 337.703533 246.297209 
L 336.703533 246.276009 
L 335.703533 246.221708 
L 334.703533 246.19377 
L 333.703533 246.164046 
L 332.703533 246.138651 
L 331.703533 246.127451 
L 330.703533 246.117327 
L 329.703533 246.117531 
L 328.703533 246.127041 
L 327.703533 246.138695 
L 326.703533 246.169724 
L 325.703533 246.180892 
L 324.703533 246.21101 
L 323.703533 246.270787 
L 322.703533 246.307978 
L 321.703533 246.347074 
L 320.703533 246.389514 
L 319.703533 246.422279 
L 318.703533 246.489705 
L 317.703533 246.528831 
L 316.703533 246.571506 
L 315.703533 246.642086 
L 314.703533 246.678477 
L 313.703533 246.73688 
L 312.703533 246.847833 
L 311.703533 246.918491 
L 310.703533 247.031431 
L 309.703533 247.077204 
L 308.703533 247.138487 
L 307.703533 247.186987 
L 306.703533 247.267809 
L 305.703533 247.386328 
L 304.703533 247.456539 
L 303.703533 247.539801 
L 302.703533 247.572943 
L 301.703533 247.62418 
L 300.703533 247.692579 
L 299.703533 247.758794 
L 298.703533 247.835711 
L 297.703533 247.863027 
L 296.703533 247.889504 
L 295.703533 247.912155 
L 294.703533 247.931686 
L 293.703533 247.95808 
L 292.703533 248.007851 
L 291.703533 248.042924 
L 290.077717 248.07879 
" clip-path="url(#p7353e28ea1)" style="fill: none; stroke: #ff7f0e; stroke-opacity: 0.5; stroke-width: 0.2; stroke-linecap: square"/>
   <path d="M 353.703533 273.018975 
L 352.703533 272.987539 
L 351.703533 272.950599 
L 350.703533 272.852852 
L 349.703533 272.82033 
L 348.703533 272.746706 
L 347.703533 272.70814 
L 346.703533 272.672727 
L 345.703533 272.615087 
L 344.703533 272.544701 
L 343.703533 272.492737 
L 342.703533 272.433647 
L 341.703533 272.345326 
L 340.703533 272.299182 
L 339.703533 272.256771 
L 338.703533 272.226278 
L 337.703533 272.200233 
L 336.703533 272.179033 
L 335.703533 272.124732 
L 334.703533 272.096794 
L 333.703533 272.06707 
L 332.703533 272.041676 
L 331.703533 272.030475 
L 330.703533 272.020351 
L 329.703533 272.020555 
L 328.703533 272.030065 
L 327.703533 272.041719 
L 326.703533 272.072748 
L 325.703533 272.083916 
L 324.703533 272.114034 
L 323.703533 272.173811 
L 322.703533 272.211002 
L 321.703533 272.250098 
L 320.703533 272.292538 
L 319.703533 272.325303 
L 318.703533 272.392729 
L 317.703533 272.431855 
L 316.703533 272.47453 
L 315.703533 272.54511 
L 314.703533 272.581501 
L 313.703533 272.639904 
L 312.703533 272.750857 
L 311.703533 272.821515 
L 310.703533 272.934455 
L 309.703533 272.980228 
L 308.703533 273.041511 
L 307.703533 273.090011 
L 306.703533 273.170833 
L 305.703533 273.289352 
L 304.703533 273.359563 
L 303.703533 273.442825 
L 302.703533 273.475967 
L 301.703533 273.527204 
L 300.703533 273.595603 
L 299.703533 273.661818 
L 298.703533 273.738735 
L 297.703533 273.766051 
L 296.703533 273.792528 
L 295.703533 273.815179 
L 294.703533 273.83471 
L 293.703533 273.861104 
L 292.703533 273.910875 
L 291.703533 273.945948 
L 290.077717 273.981814 
" clip-path="url(#p7353e28ea1)" style="fill: none; stroke: #ff7f0e; stroke-opacity: 0.5; stroke-width: 0.2; stroke-linecap: square"/>
   <path d="M 353.703533 216.08619 
L 352.703533 216.054753 
L 351.703533 216.017813 
L 350.703533 215.920066 
L 349.703533 215.887545 
L 348.703533 215.81392 
L 347.703533 215.775355 
L 346.703533 215.739941 
L 345.703533 215.682301 
L 344.703533 215.611915 
L 343.703533 215.559951 
L 342.703533 215.500861 
L 341.703533 215.41254 
L 340.703533 215.366396 
L 339.703533 215.323985 
L 338.703533 215.293492 
L 337.703533 215.267447 
L 336.703533 215.246247 
L 335.703533 215.191946 
L 334.703533 215.164009 
L 333.703533 215.134285 
L 332.703533 215.10889 
L 331.703533 215.09769 
L 330.703533 215.087566 
L 329.703533 215.08777 
L 328.703533 215.09728 
L 327.703533 215.108933 
L 326.703533 215.139963 
L 325.703533 215.151131 
L 324.703533 215.181248 
L 323.703533 215.241025 
L 322.703533 215.278217 
L 321.703533 215.317313 
L 320.703533 215.359752 
L 319.703533 215.392517 
L 318.703533 215.459944 
L 317.703533 215.49907 
L 316.703533 215.541744 
L 315.703533 215.612325 
L 314.703533 215.648716 
L 313.703533 215.707119 
L 312.703533 215.818072 
L 311.703533 215.88873 
L 310.703533 216.00167 
L 309.703533 216.047443 
L 308.703533 216.108726 
L 307.703533 216.157225 
L 306.703533 216.238048 
L 305.703533 216.356567 
L 304.703533 216.426777 
L 303.703533 216.51004 
L 302.703533 216.543182 
L 301.703533 216.594419 
L 300.703533 216.662817 
L 299.703533 216.729033 
L 298.703533 216.80595 
L 297.703533 216.833265 
L 296.703533 216.859743 
L 295.703533 216.882393 
L 294.703533 216.901925 
L 293.703533 216.928319 
L 292.703533 216.97809 
L 291.703533 217.013163 
L 290.077717 217.049028 
" clip-path="url(#p7353e28ea1)" style="fill: none; stroke: #ff7f0e; stroke-opacity: 0.5; stroke-width: 0.2; stroke-linecap: square"/>
   <path d="M 353.703533 269.42486 
L 352.703533 269.393424 
L 351.703533 269.356484 
L 350.703533 269.258737 
L 349.703533 269.226215 
L 348.703533 269.152591 
L 347.703533 269.114025 
L 346.703533 269.078612 
L 345.703533 269.020972 
L 344.703533 268.950586 
L 343.703533 268.898622 
L 342.703533 268.839532 
L 341.703533 268.751211 
L 340.703533 268.705067 
L 339.703533 268.662656 
L 338.703533 268.632163 
L 337.703533 268.606118 
L 336.703533 268.584918 
L 335.703533 268.530617 
L 334.703533 268.502679 
L 333.703533 268.472955 
L 332.703533 268.447561 
L 331.703533 268.43636 
L 330.703533 268.426236 
L 329.703533 268.426441 
L 328.703533 268.43595 
L 327.703533 268.447604 
L 326.703533 268.478633 
L 325.703533 268.489801 
L 324.703533 268.519919 
L 323.703533 268.579696 
L 322.703533 268.616887 
L 321.703533 268.655983 
L 320.703533 268.698423 
L 319.703533 268.731188 
L 318.703533 268.798615 
L 317.703533 268.83774 
L 316.703533 268.880415 
L 315.703533 268.950996 
L 314.703533 268.987386 
L 313.703533 269.04579 
L 312.703533 269.156742 
L 311.703533 269.227401 
L 310.703533 269.34034 
L 309.703533 269.386113 
L 308.703533 269.447396 
L 307.703533 269.495896 
L 306.703533 269.576718 
L 305.703533 269.695237 
L 304.703533 269.765448 
L 303.703533 269.84871 
L 302.703533 269.881852 
L 301.703533 269.93309 
L 300.703533 270.001488 
L 299.703533 270.067703 
L 298.703533 270.14462 
L 297.703533 270.171936 
L 296.703533 270.198413 
L 295.703533 270.221064 
L 294.703533 270.240595 
L 293.703533 270.266989 
L 292.703533 270.31676 
L 291.703533 270.351833 
L 290.077717 270.387699 
" clip-path="url(#p7353e28ea1)" style="fill: none; stroke: #ff7f0e; stroke-opacity: 0.5; stroke-width: 0.2; stroke-linecap: square"/>
   <path d="M 290.077717 283.479599 
L 291.077717 283.511035 
L 292.077717 283.547975 
L 293.077717 283.645722 
L 294.077717 283.678243 
L 295.077717 283.751868 
L 296.077717 283.790434 
L 297.077717 283.825847 
L 298.077717 283.883487 
L 299.077717 283.953873 
L 300.077717 284.005837 
L 301.077717 284.064927 
L 302.077717 284.153248 
L 303.077717 284.199392 
L 304.077717 284.241803 
L 305.077717 284.272296 
L 306.077717 284.298341 
L 307.077717 284.319541 
L 308.077717 284.373842 
L 309.077717 284.40178 
L 310.077717 284.431504 
L 311.077717 284.456898 
L 312.077717 284.468099 
L 313.077717 284.478223 
L 314.077717 284.478018 
L 315.077717 284.468508 
L 316.077717 284.456855 
L 317.077717 284.425826 
L 318.077717 284.414658 
L 319.077717 284.38454 
L 320.077717 284.324763 
L 321.077717 284.287572 
L 322.077717 284.248476 
L 323.077717 284.206036 
L 324.077717 284.173271 
L 325.077717 284.105844 
L 326.077717 284.066718 
L 327.077717 284.024044 
L 328.077717 283.953463 
L 329.077717 283.917072 
L 330.077717 283.858669 
L 331.077717 283.747717 
L 332.077717 283.677058 
L 333.077717 283.564119 
L 334.077717 283.518346 
L 335.077717 283.457062 
L 336.077717 283.408563 
L 337.077717 283.32774 
L 338.077717 283.209222 
L 339.077717 283.139011 
L 340.077717 283.055748 
L 341.077717 283.022607 
L 342.077717 282.971369 
L 343.077717 282.902971 
L 344.077717 282.836756 
L 345.077717 282.759838 
L 346.077717 282.732523 
L 347.077717 282.706045 
L 348.077717 282.683395 
L 349.077717 282.663864 
L 350.077717 282.63747 
L 351.077717 282.587699 
L 352.077717 282.552626 
L 353.703533 282.51676 
" clip-path="url(#p7353e28ea1)" style="fill: none; stroke: #1f77b4; stroke-opacity: 0.5; stroke-width: 0.2; stroke-linecap: square"/>
   <path d="M 290.077717 209.635082 
L 291.077717 209.666518 
L 292.077717 209.703459 
L 293.077717 209.801205 
L 294.077717 209.833727 
L 295.077717 209.907351 
L 296.077717 209.945917 
L 297.077717 209.98133 
L 298.077717 210.03897 
L 299.077717 210.109356 
L 300.077717 210.16132 
L 301.077717 210.22041 
L 302.077717 210.308731 
L 303.077717 210.354875 
L 304.077717 210.397286 
L 305.077717 210.427779 
L 306.077717 210.453824 
L 307.077717 210.475024 
L 308.077717 210.529325 
L 309.077717 210.557263 
L 310.077717 210.586987 
L 311.077717 210.612382 
L 312.077717 210.623582 
L 313.077717 210.633706 
L 314.077717 210.633502 
L 315.077717 210.623992 
L 316.077717 210.612338 
L 317.077717 210.581309 
L 318.077717 210.570141 
L 319.077717 210.540023 
L 320.077717 210.480246 
L 321.077717 210.443055 
L 322.077717 210.403959 
L 323.077717 210.361519 
L 324.077717 210.328754 
L 325.077717 210.261328 
L 326.077717 210.222202 
L 327.077717 210.179527 
L 328.077717 210.108947 
L 329.077717 210.072556 
L 330.077717 210.014153 
L 331.077717 209.9032 
L 332.077717 209.832542 
L 333.077717 209.719602 
L 334.077717 209.673829 
L 335.077717 209.612546 
L 336.077717 209.564046 
L 337.077717 209.483224 
L 338.077717 209.364705 
L 339.077717 209.294494 
L 340.077717 209.211232 
L 341.077717 209.17809 
L 342.077717 209.126853 
L 343.077717 209.058454 
L 344.077717 208.992239 
L 345.077717 208.915322 
L 346.077717 208.888006 
L 347.077717 208.861529 
L 348.077717 208.838878 
L 349.077717 208.819347 
L 350.077717 208.792953 
L 351.077717 208.743182 
L 352.077717 208.708109 
L 353.703533 208.672243 
" clip-path="url(#p7353e28ea1)" style="fill: none; stroke: #1f77b4; stroke-opacity: 0.5; stroke-width: 0.2; stroke-linecap: square"/>
   <path d="M 290.077717 212.829334 
L 291.077717 212.86077 
L 292.077717 212.89771 
L 293.077717 212.995457 
L 294.077717 213.027979 
L 295.077717 213.101603 
L 296.077717 213.140169 
L 297.077717 213.175582 
L 298.077717 213.233222 
L 299.077717 213.303608 
L 300.077717 213.355572 
L 301.077717 213.414662 
L 302.077717 213.502983 
L 303.077717 213.549127 
L 304.077717 213.591538 
L 305.077717 213.622031 
L 306.077717 213.648076 
L 307.077717 213.669276 
L 308.077717 213.723577 
L 309.077717 213.751515 
L 310.077717 213.781239 
L 311.077717 213.806633 
L 312.077717 213.817834 
L 313.077717 213.827958 
L 314.077717 213.827754 
L 315.077717 213.818244 
L 316.077717 213.80659 
L 317.077717 213.775561 
L 318.077717 213.764393 
L 319.077717 213.734275 
L 320.077717 213.674498 
L 321.077717 213.637307 
L 322.077717 213.598211 
L 323.077717 213.555771 
L 324.077717 213.523006 
L 325.077717 213.45558 
L 326.077717 213.416454 
L 327.077717 213.373779 
L 328.077717 213.303199 
L 329.077717 213.266808 
L 330.077717 213.208405 
L 331.077717 213.097452 
L 332.077717 213.026794 
L 333.077717 212.913854 
L 334.077717 212.868081 
L 335.077717 212.806798 
L 336.077717 212.758298 
L 337.077717 212.677476 
L 338.077717 212.558957 
L 339.077717 212.488746 
L 340.077717 212.405484 
L 341.077717 212.372342 
L 342.077717 212.321105 
L 343.077717 212.252706 
L 344.077717 212.186491 
L 345.077717 212.109574 
L 346.077717 212.082258 
L 347.077717 212.055781 
L 348.077717 212.03313 
L 349.077717 212.013599 
L 350.077717 211.987205 
L 351.077717 211.937434 
L 352.077717 211.902361 
L 353.703533 211.866495 
" clip-path="url(#p7353e28ea1)" style="fill: none; stroke: #1f77b4; stroke-opacity: 0.5; stroke-width: 0.2; stroke-linecap: square"/>
   <path d="M 290.077717 259.192529 
L 291.077717 259.223966 
L 292.077717 259.260906 
L 293.077717 259.358653 
L 294.077717 259.391174 
L 295.077717 259.464799 
L 296.077717 259.503364 
L 297.077717 259.538778 
L 298.077717 259.596417 
L 299.077717 259.666804 
L 300.077717 259.718768 
L 301.077717 259.777858 
L 302.077717 259.866179 
L 303.077717 259.912323 
L 304.077717 259.954734 
L 305.077717 259.985227 
L 306.077717 260.011271 
L 307.077717 260.032472 
L 308.077717 260.086773 
L 309.077717 260.11471 
L 310.077717 260.144434 
L 311.077717 260.169829 
L 312.077717 260.181029 
L 313.077717 260.191153 
L 314.077717 260.190949 
L 315.077717 260.181439 
L 316.077717 260.169786 
L 317.077717 260.138756 
L 318.077717 260.127588 
L 319.077717 260.097471 
L 320.077717 260.037694 
L 321.077717 260.000502 
L 322.077717 259.961406 
L 323.077717 259.918967 
L 324.077717 259.886202 
L 325.077717 259.818775 
L 326.077717 259.779649 
L 327.077717 259.736975 
L 328.077717 259.666394 
L 329.077717 259.630003 
L 330.077717 259.5716 
L 331.077717 259.460647 
L 332.077717 259.389989 
L 333.077717 259.277049 
L 334.077717 259.231276 
L 335.077717 259.169993 
L 336.077717 259.121494 
L 337.077717 259.040671 
L 338.077717 258.922152 
L 339.077717 258.851942 
L 340.077717 258.768679 
L 341.077717 258.735537 
L 342.077717 258.6843 
L 343.077717 258.615902 
L 344.077717 258.549686 
L 345.077717 258.472769 
L 346.077717 258.445454 
L 347.077717 258.418976 
L 348.077717 258.396326 
L 349.077717 258.376794 
L 350.077717 258.3504 
L 351.077717 258.300629 
L 352.077717 258.265556 
L 353.703533 258.229691 
" clip-path="url(#p7353e28ea1)" style="fill: none; stroke: #1f77b4; stroke-opacity: 0.5; stroke-width: 0.2; stroke-linecap: square"/>
   <path d="M 290.077717 225.980809 
L 291.077717 226.012245 
L 292.077717 226.049186 
L 293.077717 226.146932 
L 294.077717 226.179454 
L 295.077717 226.253078 
L 296.077717 226.291644 
L 297.077717 226.327057 
L 298.077717 226.384697 
L 299.077717 226.455083 
L 300.077717 226.507047 
L 301.077717 226.566137 
L 302.077717 226.654458 
L 303.077717 226.700603 
L 304.077717 226.743013 
L 305.077717 226.773506 
L 306.077717 226.799551 
L 307.077717 226.820751 
L 308.077717 226.875052 
L 309.077717 226.90299 
L 310.077717 226.932714 
L 311.077717 226.958109 
L 312.077717 226.969309 
L 313.077717 226.979433 
L 314.077717 226.979229 
L 315.077717 226.969719 
L 316.077717 226.958065 
L 317.077717 226.927036 
L 318.077717 226.915868 
L 319.077717 226.88575 
L 320.077717 226.825974 
L 321.077717 226.788782 
L 322.077717 226.749686 
L 323.077717 226.707246 
L 324.077717 226.674481 
L 325.077717 226.607055 
L 326.077717 226.567929 
L 327.077717 226.525254 
L 328.077717 226.454674 
L 329.077717 226.418283 
L 330.077717 226.35988 
L 331.077717 226.248927 
L 332.077717 226.178269 
L 333.077717 226.065329 
L 334.077717 226.019556 
L 335.077717 225.958273 
L 336.077717 225.909773 
L 337.077717 225.828951 
L 338.077717 225.710432 
L 339.077717 225.640221 
L 340.077717 225.556959 
L 341.077717 225.523817 
L 342.077717 225.47258 
L 343.077717 225.404181 
L 344.077717 225.337966 
L 345.077717 225.261049 
L 346.077717 225.233733 
L 347.077717 225.207256 
L 348.077717 225.184605 
L 349.077717 225.165074 
L 350.077717 225.13868 
L 351.077717 225.088909 
L 352.077717 225.053836 
L 353.703533 225.01797 
" clip-path="url(#p7353e28ea1)" style="fill: none; stroke: #1f77b4; stroke-opacity: 0.5; stroke-width: 0.2; stroke-linecap: square"/>
   <path d="M 290.077717 254.886353 
L 291.077717 254.91779 
L 292.077717 254.95473 
L 293.077717 255.052477 
L 294.077717 255.084998 
L 295.077717 255.158623 
L 296.077717 255.197189 
L 297.077717 255.232602 
L 298.077717 255.290242 
L 299.077717 255.360628 
L 300.077717 255.412592 
L 301.077717 255.471682 
L 302.077717 255.560003 
L 303.077717 255.606147 
L 304.077717 255.648558 
L 305.077717 255.679051 
L 306.077717 255.705096 
L 307.077717 255.726296 
L 308.077717 255.780597 
L 309.077717 255.808534 
L 310.077717 255.838258 
L 311.077717 255.863653 
L 312.077717 255.874854 
L 313.077717 255.884978 
L 314.077717 255.884773 
L 315.077717 255.875263 
L 316.077717 255.86361 
L 317.077717 255.83258 
L 318.077717 255.821413 
L 319.077717 255.791295 
L 320.077717 255.731518 
L 321.077717 255.694327 
L 322.077717 255.65523 
L 323.077717 255.612791 
L 324.077717 255.580026 
L 325.077717 255.512599 
L 326.077717 255.473473 
L 327.077717 255.430799 
L 328.077717 255.360218 
L 329.077717 255.323827 
L 330.077717 255.265424 
L 331.077717 255.154472 
L 332.077717 255.083813 
L 333.077717 254.970873 
L 334.077717 254.925101 
L 335.077717 254.863817 
L 336.077717 254.815318 
L 337.077717 254.734495 
L 338.077717 254.615976 
L 339.077717 254.545766 
L 340.077717 254.462503 
L 341.077717 254.429362 
L 342.077717 254.378124 
L 343.077717 254.309726 
L 344.077717 254.24351 
L 345.077717 254.166593 
L 346.077717 254.139278 
L 347.077717 254.1128 
L 348.077717 254.09015 
L 349.077717 254.070618 
L 350.077717 254.044224 
L 351.077717 253.994454 
L 352.077717 253.95938 
L 353.703533 253.923515 
" clip-path="url(#p7353e28ea1)" style="fill: none; stroke: #1f77b4; stroke-opacity: 0.5; stroke-width: 0.2; stroke-linecap: square"/>
   <path d="M 290.077717 226.079611 
L 291.077717 226.111048 
L 292.077717 226.147988 
L 293.077717 226.245735 
L 294.077717 226.278256 
L 295.077717 226.351881 
L 296.077717 226.390446 
L 297.077717 226.42586 
L 298.077717 226.483499 
L 299.077717 226.553886 
L 300.077717 226.60585 
L 301.077717 226.66494 
L 302.077717 226.753261 
L 303.077717 226.799405 
L 304.077717 226.841816 
L 305.077717 226.872309 
L 306.077717 226.898353 
L 307.077717 226.919554 
L 308.077717 226.973855 
L 309.077717 227.001792 
L 310.077717 227.031516 
L 311.077717 227.056911 
L 312.077717 227.068111 
L 313.077717 227.078235 
L 314.077717 227.078031 
L 315.077717 227.068521 
L 316.077717 227.056868 
L 317.077717 227.025838 
L 318.077717 227.01467 
L 319.077717 226.984553 
L 320.077717 226.924776 
L 321.077717 226.887584 
L 322.077717 226.848488 
L 323.077717 226.806049 
L 324.077717 226.773284 
L 325.077717 226.705857 
L 326.077717 226.666731 
L 327.077717 226.624057 
L 328.077717 226.553476 
L 329.077717 226.517085 
L 330.077717 226.458682 
L 331.077717 226.347729 
L 332.077717 226.277071 
L 333.077717 226.164131 
L 334.077717 226.118358 
L 335.077717 226.057075 
L 336.077717 226.008576 
L 337.077717 225.927753 
L 338.077717 225.809234 
L 339.077717 225.739024 
L 340.077717 225.655761 
L 341.077717 225.622619 
L 342.077717 225.571382 
L 343.077717 225.502984 
L 344.077717 225.436768 
L 345.077717 225.359851 
L 346.077717 225.332536 
L 347.077717 225.306058 
L 348.077717 225.283408 
L 349.077717 225.263876 
L 350.077717 225.237482 
L 351.077717 225.187711 
L 352.077717 225.152638 
L 353.703533 225.116773 
" clip-path="url(#p7353e28ea1)" style="fill: none; stroke: #1f77b4; stroke-opacity: 0.5; stroke-width: 0.2; stroke-linecap: square"/>
   <path d="M 290.077717 228.247906 
L 291.077717 228.279343 
L 292.077717 228.316283 
L 293.077717 228.41403 
L 294.077717 228.446551 
L 295.077717 228.520176 
L 296.077717 228.558742 
L 297.077717 228.594155 
L 298.077717 228.651795 
L 299.077717 228.722181 
L 300.077717 228.774145 
L 301.077717 228.833235 
L 302.077717 228.921556 
L 303.077717 228.9677 
L 304.077717 229.010111 
L 305.077717 229.040604 
L 306.077717 229.066649 
L 307.077717 229.087849 
L 308.077717 229.14215 
L 309.077717 229.170087 
L 310.077717 229.199811 
L 311.077717 229.225206 
L 312.077717 229.236407 
L 313.077717 229.246531 
L 314.077717 229.246326 
L 315.077717 229.236816 
L 316.077717 229.225163 
L 317.077717 229.194133 
L 318.077717 229.182966 
L 319.077717 229.152848 
L 320.077717 229.093071 
L 321.077717 229.05588 
L 322.077717 229.016783 
L 323.077717 228.974344 
L 324.077717 228.941579 
L 325.077717 228.874152 
L 326.077717 228.835026 
L 327.077717 228.792352 
L 328.077717 228.721771 
L 329.077717 228.68538 
L 330.077717 228.626977 
L 331.077717 228.516025 
L 332.077717 228.445366 
L 333.077717 228.332426 
L 334.077717 228.286654 
L 335.077717 228.22537 
L 336.077717 228.176871 
L 337.077717 228.096048 
L 338.077717 227.977529 
L 339.077717 227.907319 
L 340.077717 227.824056 
L 341.077717 227.790915 
L 342.077717 227.739677 
L 343.077717 227.671279 
L 344.077717 227.605063 
L 345.077717 227.528146 
L 346.077717 227.500831 
L 347.077717 227.474353 
L 348.077717 227.451703 
L 349.077717 227.432171 
L 350.077717 227.405777 
L 351.077717 227.356007 
L 352.077717 227.320933 
L 353.703533 227.285068 
" clip-path="url(#p7353e28ea1)" style="fill: none; stroke: #1f77b4; stroke-opacity: 0.5; stroke-width: 0.2; stroke-linecap: square"/>
   <path d="M 290.077717 211.405799 
L 291.077717 211.437235 
L 292.077717 211.474175 
L 293.077717 211.571922 
L 294.077717 211.604444 
L 295.077717 211.678068 
L 296.077717 211.716634 
L 297.077717 211.752047 
L 298.077717 211.809687 
L 299.077717 211.880073 
L 300.077717 211.932037 
L 301.077717 211.991127 
L 302.077717 212.079448 
L 303.077717 212.125592 
L 304.077717 212.168003 
L 305.077717 212.198496 
L 306.077717 212.224541 
L 307.077717 212.245741 
L 308.077717 212.300042 
L 309.077717 212.32798 
L 310.077717 212.357704 
L 311.077717 212.383098 
L 312.077717 212.394299 
L 313.077717 212.404423 
L 314.077717 212.404218 
L 315.077717 212.394709 
L 316.077717 212.383055 
L 317.077717 212.352026 
L 318.077717 212.340858 
L 319.077717 212.31074 
L 320.077717 212.250963 
L 321.077717 212.213772 
L 322.077717 212.174676 
L 323.077717 212.132236 
L 324.077717 212.099471 
L 325.077717 212.032045 
L 326.077717 211.992919 
L 327.077717 211.950244 
L 328.077717 211.879664 
L 329.077717 211.843273 
L 330.077717 211.784869 
L 331.077717 211.673917 
L 332.077717 211.603259 
L 333.077717 211.490319 
L 334.077717 211.444546 
L 335.077717 211.383263 
L 336.077717 211.334763 
L 337.077717 211.253941 
L 338.077717 211.135422 
L 339.077717 211.065211 
L 340.077717 210.981949 
L 341.077717 210.948807 
L 342.077717 210.89757 
L 343.077717 210.829171 
L 344.077717 210.762956 
L 345.077717 210.686039 
L 346.077717 210.658723 
L 347.077717 210.632246 
L 348.077717 210.609595 
L 349.077717 210.590064 
L 350.077717 210.56367 
L 351.077717 210.513899 
L 352.077717 210.478826 
L 353.703533 210.44296 
" clip-path="url(#p7353e28ea1)" style="fill: none; stroke: #1f77b4; stroke-opacity: 0.5; stroke-width: 0.2; stroke-linecap: square"/>
   <path d="M 290.077717 210.859973 
L 291.077717 210.89141 
L 292.077717 210.92835 
L 293.077717 211.026097 
L 294.077717 211.058618 
L 295.077717 211.132243 
L 296.077717 211.170809 
L 297.077717 211.206222 
L 298.077717 211.263862 
L 299.077717 211.334248 
L 300.077717 211.386212 
L 301.077717 211.445302 
L 302.077717 211.533623 
L 303.077717 211.579767 
L 304.077717 211.622178 
L 305.077717 211.652671 
L 306.077717 211.678716 
L 307.077717 211.699916 
L 308.077717 211.754217 
L 309.077717 211.782154 
L 310.077717 211.811878 
L 311.077717 211.837273 
L 312.077717 211.848474 
L 313.077717 211.858598 
L 314.077717 211.858393 
L 315.077717 211.848883 
L 316.077717 211.83723 
L 317.077717 211.8062 
L 318.077717 211.795033 
L 319.077717 211.764915 
L 320.077717 211.705138 
L 321.077717 211.667947 
L 322.077717 211.62885 
L 323.077717 211.586411 
L 324.077717 211.553646 
L 325.077717 211.486219 
L 326.077717 211.447093 
L 327.077717 211.404419 
L 328.077717 211.333838 
L 329.077717 211.297447 
L 330.077717 211.239044 
L 331.077717 211.128092 
L 332.077717 211.057433 
L 333.077717 210.944493 
L 334.077717 210.898721 
L 335.077717 210.837437 
L 336.077717 210.788938 
L 337.077717 210.708115 
L 338.077717 210.589596 
L 339.077717 210.519386 
L 340.077717 210.436123 
L 341.077717 210.402982 
L 342.077717 210.351744 
L 343.077717 210.283346 
L 344.077717 210.21713 
L 345.077717 210.140213 
L 346.077717 210.112898 
L 347.077717 210.08642 
L 348.077717 210.06377 
L 349.077717 210.044238 
L 350.077717 210.017844 
L 351.077717 209.968074 
L 352.077717 209.933 
L 353.703533 209.897135 
" clip-path="url(#p7353e28ea1)" style="fill: none; stroke: #1f77b4; stroke-opacity: 0.5; stroke-width: 0.2; stroke-linecap: square"/>
   <g id="patch_3">
    <path d="M 69.06392 22.318125 
L 69.06392 318.021875 
M 284.51553 22.318125 
L 284.51553 318.021875 
" clip-path="url(#p7353e28ea1)" style="fill: none; stroke: #ffffff; stroke-width: 3; stroke-linejoin: miter"/>
    <path d="M 69.06392 22.318125 
L 69.06392 318.021875 
M 284.51553 22.318125 
L 284.51553 318.021875 
" clip-path="url(#p7353e28ea1)" style="fill: none; stroke: #1f77b4; stroke-linejoin: miter"/>
    <g id="PolyCollection_1">
     <path d="M 284.51553 22.318125 
L 69.06392 22.318125 
L 69.06392 318.021875 
L 284.51553 318.021875 
L 284.51553 318.021875 
L 284.51553 22.318125 
z
" clip-path="url(#p7353e28ea1)" style="fill: #1f77b4; fill-opacity: 0.5"/>
    </g>
    <g id="patch_4">
     <path d="M 359.26572 22.318125 
L 359.26572 318.021875 
M 574.71733 22.318125 
L 574.71733 318.021875 
" clip-path="url(#p7353e28ea1)" style="fill: none; stroke: #ffffff; stroke-width: 3; stroke-linejoin: miter"/>
     <path d="M 359.26572 22.318125 
L 359.26572 318.021875 
M 574.71733 22.318125 
L 574.71733 318.021875 
" clip-path="url(#p7353e28ea1)" style="fill: none; stroke: #ff7f0e; stroke-linejoin: miter"/>
     <g id="PolyCollection_2">
      <path d="M 574.71733 22.318125 
L 359.26572 22.318125 
L 359.26572 318.021875 
L 574.71733 318.021875 
L 574.71733 318.021875 
L 574.71733 22.318125 
z
" clip-path="url(#p7353e28ea1)" style="fill: #ff7f0e; fill-opacity: 0.5"/>
     </g>
     <g id="matplotlib.axis_1">
      <g id="xtick_1">
       <g id="line2d_1"/>
       <g id="text_1">
        <!-- deme0 -->
        <g transform="translate(159.410819 329.120312) scale(0.1 -0.1)">
         <defs>
          <path id="DejaVuSans-64" d="M 2906 2969 
L 2906 4863 
L 3481 4863 
L 3481 0 
L 2906 0 
L 2906 525 
Q 2725 213 2448 61 
Q 2172 -91 1784 -91 
Q 1150 -91 751 415 
Q 353 922 353 1747 
Q 353 2572 751 3078 
Q 1150 3584 1784 3584 
Q 2172 3584 2448 3432 
Q 2725 3281 2906 2969 
z
M 947 1747 
Q 947 1113 1208 752 
Q 1469 391 1925 391 
Q 2381 391 2643 752 
Q 2906 1113 2906 1747 
Q 2906 2381 2643 2742 
Q 2381 3103 1925 3103 
Q 1469 3103 1208 2742 
Q 947 2381 947 1747 
z
" transform="scale(0.015625)"/>
          <path id="DejaVuSans-65" d="M 3597 1894 
L 3597 1613 
L 953 1613 
Q 991 1019 1311 708 
Q 1631 397 2203 397 
Q 2534 397 2845 478 
Q 3156 559 3463 722 
L 3463 178 
Q 3153 47 2828 -22 
Q 2503 -91 2169 -91 
Q 1331 -91 842 396 
Q 353 884 353 1716 
Q 353 2575 817 3079 
Q 1281 3584 2069 3584 
Q 2775 3584 3186 3129 
Q 3597 2675 3597 1894 
z
M 3022 2063 
Q 3016 2534 2758 2815 
Q 2500 3097 2075 3097 
Q 1594 3097 1305 2825 
Q 1016 2553 972 2059 
L 3022 2063 
z
" transform="scale(0.015625)"/>
          <path id="DejaVuSans-6d" d="M 3328 2828 
Q 3544 3216 3844 3400 
Q 4144 3584 4550 3584 
Q 5097 3584 5394 3201 
Q 5691 2819 5691 2113 
L 5691 0 
L 5113 0 
L 5113 2094 
Q 5113 2597 4934 2840 
Q 4756 3084 4391 3084 
Q 3944 3084 3684 2787 
Q 3425 2491 3425 1978 
L 3425 0 
L 2847 0 
L 2847 2094 
Q 2847 2600 2669 2842 
Q 2491 3084 2119 3084 
Q 1678 3084 1418 2786 
Q 1159 2488 1159 1978 
L 1159 0 
L 581 0 
L 581 3500 
L 1159 3500 
L 1159 2956 
Q 1356 3278 1631 3431 
Q 1906 3584 2284 3584 
Q 2666 3584 2933 3390 
Q 3200 3197 3328 2828 
z
" transform="scale(0.015625)"/>
          <path id="DejaVuSans-30" d="M 2034 4250 
Q 1547 4250 1301 3770 
Q 1056 3291 1056 2328 
Q 1056 1369 1301 889 
Q 1547 409 2034 409 
Q 2525 409 2770 889 
Q 3016 1369 3016 2328 
Q 3016 3291 2770 3770 
Q 2525 4250 2034 4250 
z
M 2034 4750 
Q 2819 4750 3233 4129 
Q 3647 3509 3647 2328 
Q 3647 1150 3233 529 
Q 2819 -91 2034 -91 
Q 1250 -91 836 529 
Q 422 1150 422 2328 
Q 422 3509 836 4129 
Q 1250 4750 2034 4750 
z
" transform="scale(0.015625)"/>
         </defs>
         <use xlink:href="#DejaVuSans-64"/>
         <use xlink:href="#DejaVuSans-65" x="63.476562"/>
         <use xlink:href="#DejaVuSans-6d" x="125"/>
         <use xlink:href="#DejaVuSans-65" x="222.412109"/>
         <use xlink:href="#DejaVuSans-30" x="283.935547"/>
        </g>
       </g>
      </g>
      <g id="xtick_2">
       <g id="line2d_2"/>
       <g id="text_2">
        <!-- deme1 -->
        <g transform="translate(449.612619 329.120312) scale(0.1 -0.1)">
         <defs>
          <path id="DejaVuSans-31" d="M 794 531 
L 1825 531 
L 1825 4091 
L 703 3866 
L 703 4441 
L 1819 4666 
L 2450 4666 
L 2450 531 
L 3481 531 
L 3481 0 
L 794 0 
L 794 531 
z
" transform="scale(0.015625)"/>
         </defs>
         <use xlink:href="#DejaVuSans-64"/>
         <use xlink:href="#DejaVuSans-65" x="63.476562"/>
         <use xlink:href="#DejaVuSans-6d" x="125"/>
         <use xlink:href="#DejaVuSans-65" x="222.412109"/>
         <use xlink:href="#DejaVuSans-31" x="283.935547"/>
        </g>
       </g>
      </g>
     </g>
     <g id="matplotlib.axis_2">
      <g id="ytick_1">
       <g id="line2d_3">
        <defs>
         <path id="m697c2ac99d" d="M 0 0 
L -3.5 0 
" style="stroke: #000000; stroke-width: 0.8"/>
        </defs>
        <g>
         <use xlink:href="#m697c2ac99d" x="43.78125" y="318.021875" style="stroke: #000000; stroke-width: 0.8"/>
        </g>
       </g>
       <g id="text_3">
        <!-- 0.0 -->
        <g transform="translate(20.878125 321.821094) scale(0.1 -0.1)">
         <defs>
          <path id="DejaVuSans-2e" d="M 684 794 
L 1344 794 
L 1344 0 
L 684 0 
L 684 794 
z
" transform="scale(0.015625)"/>
         </defs>
         <use xlink:href="#DejaVuSans-30"/>
         <use xlink:href="#DejaVuSans-2e" x="63.623047"/>
         <use xlink:href="#DejaVuSans-30" x="95.410156"/>
        </g>
       </g>
      </g>
      <g id="ytick_2">
       <g id="line2d_4">
        <g>
         <use xlink:href="#m697c2ac99d" x="43.78125" y="258.881125" style="stroke: #000000; stroke-width: 0.8"/>
        </g>
       </g>
       <g id="text_4">
        <!-- 0.5 -->
        <g transform="translate(20.878125 262.680344) scale(0.1 -0.1)">
         <defs>
          <path id="DejaVuSans-35" d="M 691 4666 
L 3169 4666 
L 3169 4134 
L 1269 4134 
L 1269 2991 
Q 1406 3038 1543 3061 
Q 1681 3084 1819 3084 
Q 2600 3084 3056 2656 
Q 3513 2228 3513 1497 
Q 3513 744 3044 326 
Q 2575 -91 1722 -91 
Q 1428 -91 1123 -41 
Q 819 9 494 109 
L 494 744 
Q 775 591 1075 516 
Q 1375 441 1709 441 
Q 2250 441 2565 725 
Q 2881 1009 2881 1497 
Q 2881 1984 2565 2268 
Q 2250 2553 1709 2553 
Q 1456 2553 1204 2497 
Q 953 2441 691 2322 
L 691 4666 
z
" transform="scale(0.015625)"/>
         </defs>
         <use xlink:href="#DejaVuSans-30"/>
         <use xlink:href="#DejaVuSans-2e" x="63.623047"/>
         <use xlink:href="#DejaVuSans-35" x="95.410156"/>
        </g>
       </g>
      </g>
      <g id="ytick_3">
       <g id="line2d_5">
        <g>
         <use xlink:href="#m697c2ac99d" x="43.78125" y="199.740375" style="stroke: #000000; stroke-width: 0.8"/>
        </g>
       </g>
       <g id="text_5">
        <!-- 1.0 -->
        <g transform="translate(20.878125 203.539594) scale(0.1 -0.1)">
         <use xlink:href="#DejaVuSans-31"/>
         <use xlink:href="#DejaVuSans-2e" x="63.623047"/>
         <use xlink:href="#DejaVuSans-30" x="95.410156"/>
        </g>
       </g>
      </g>
      <g id="ytick_4">
       <g id="line2d_6">
        <g>
         <use xlink:href="#m697c2ac99d" x="43.78125" y="140.599625" style="stroke: #000000; stroke-width: 0.8"/>
        </g>
       </g>
       <g id="text_6">
        <!-- 1.5 -->
        <g transform="translate(20.878125 144.398844) scale(0.1 -0.1)">
         <use xlink:href="#DejaVuSans-31"/>
         <use xlink:href="#DejaVuSans-2e" x="63.623047"/>
         <use xlink:href="#DejaVuSans-35" x="95.410156"/>
        </g>
       </g>
      </g>
      <g id="ytick_5">
       <g id="line2d_7">
        <g>
         <use xlink:href="#m697c2ac99d" x="43.78125" y="81.458875" style="stroke: #000000; stroke-width: 0.8"/>
        </g>
       </g>
       <g id="text_7">
        <!-- 2.0 -->
        <g transform="translate(20.878125 85.258094) scale(0.1 -0.1)">
         <defs>
          <path id="DejaVuSans-32" d="M 1228 531 
L 3431 531 
L 3431 0 
L 469 0 
L 469 531 
Q 828 903 1448 1529 
Q 2069 2156 2228 2338 
Q 2531 2678 2651 2914 
Q 2772 3150 2772 3378 
Q 2772 3750 2511 3984 
Q 2250 4219 1831 4219 
Q 1534 4219 1204 4116 
Q 875 4013 500 3803 
L 500 4441 
Q 881 4594 1212 4672 
Q 1544 4750 1819 4750 
Q 2544 4750 2975 4387 
Q 3406 4025 3406 3419 
Q 3406 3131 3298 2873 
Q 3191 2616 2906 2266 
Q 2828 2175 2409 1742 
Q 1991 1309 1228 531 
z
" transform="scale(0.015625)"/>
         </defs>
         <use xlink:href="#DejaVuSans-32"/>
         <use xlink:href="#DejaVuSans-2e" x="63.623047"/>
         <use xlink:href="#DejaVuSans-30" x="95.410156"/>
        </g>
       </g>
      </g>
      <g id="ytick_6">
       <g id="line2d_8">
        <g>
         <use xlink:href="#m697c2ac99d" x="43.78125" y="22.318125" style="stroke: #000000; stroke-width: 0.8"/>
        </g>
       </g>
       <g id="text_8">
        <!-- 2.5 -->
        <g transform="translate(20.878125 26.117344) scale(0.1 -0.1)">
         <use xlink:href="#DejaVuSans-32"/>
         <use xlink:href="#DejaVuSans-2e" x="63.623047"/>
         <use xlink:href="#DejaVuSans-35" x="95.410156"/>
        </g>
       </g>
      </g>
      <g id="text_9">
       <!-- time ago (generations) -->
       <g transform="translate(14.798438 227.641094) rotate(-90) scale(0.1 -0.1)">
        <defs>
         <path id="DejaVuSans-74" d="M 1172 4494 
L 1172 3500 
L 2356 3500 
L 2356 3053 
L 1172 3053 
L 1172 1153 
Q 1172 725 1289 603 
Q 1406 481 1766 481 
L 2356 481 
L 2356 0 
L 1766 0 
Q 1100 0 847 248 
Q 594 497 594 1153 
L 594 3053 
L 172 3053 
L 172 3500 
L 594 3500 
L 594 4494 
L 1172 4494 
z
" transform="scale(0.015625)"/>
         <path id="DejaVuSans-69" d="M 603 3500 
L 1178 3500 
L 1178 0 
L 603 0 
L 603 3500 
z
M 603 4863 
L 1178 4863 
L 1178 4134 
L 603 4134 
L 603 4863 
z
" transform="scale(0.015625)"/>
         <path id="DejaVuSans-20" transform="scale(0.015625)"/>
         <path id="DejaVuSans-61" d="M 2194 1759 
Q 1497 1759 1228 1600 
Q 959 1441 959 1056 
Q 959 750 1161 570 
Q 1363 391 1709 391 
Q 2188 391 2477 730 
Q 2766 1069 2766 1631 
L 2766 1759 
L 2194 1759 
z
M 3341 1997 
L 3341 0 
L 2766 0 
L 2766 531 
Q 2569 213 2275 61 
Q 1981 -91 1556 -91 
Q 1019 -91 701 211 
Q 384 513 384 1019 
Q 384 1609 779 1909 
Q 1175 2209 1959 2209 
L 2766 2209 
L 2766 2266 
Q 2766 2663 2505 2880 
Q 2244 3097 1772 3097 
Q 1472 3097 1187 3025 
Q 903 2953 641 2809 
L 641 3341 
Q 956 3463 1253 3523 
Q 1550 3584 1831 3584 
Q 2591 3584 2966 3190 
Q 3341 2797 3341 1997 
z
" transform="scale(0.015625)"/>
         <path id="DejaVuSans-67" d="M 2906 1791 
Q 2906 2416 2648 2759 
Q 2391 3103 1925 3103 
Q 1463 3103 1205 2759 
Q 947 2416 947 1791 
Q 947 1169 1205 825 
Q 1463 481 1925 481 
Q 2391 481 2648 825 
Q 2906 1169 2906 1791 
z
M 3481 434 
Q 3481 -459 3084 -895 
Q 2688 -1331 1869 -1331 
Q 1566 -1331 1297 -1286 
Q 1028 -1241 775 -1147 
L 775 -588 
Q 1028 -725 1275 -790 
Q 1522 -856 1778 -856 
Q 2344 -856 2625 -561 
Q 2906 -266 2906 331 
L 2906 616 
Q 2728 306 2450 153 
Q 2172 0 1784 0 
Q 1141 0 747 490 
Q 353 981 353 1791 
Q 353 2603 747 3093 
Q 1141 3584 1784 3584 
Q 2172 3584 2450 3431 
Q 2728 3278 2906 2969 
L 2906 3500 
L 3481 3500 
L 3481 434 
z
" transform="scale(0.015625)"/>
         <path id="DejaVuSans-6f" d="M 1959 3097 
Q 1497 3097 1228 2736 
Q 959 2375 959 1747 
Q 959 1119 1226 758 
Q 1494 397 1959 397 
Q 2419 397 2687 759 
Q 2956 1122 2956 1747 
Q 2956 2369 2687 2733 
Q 2419 3097 1959 3097 
z
M 1959 3584 
Q 2709 3584 3137 3096 
Q 3566 2609 3566 1747 
Q 3566 888 3137 398 
Q 2709 -91 1959 -91 
Q 1206 -91 779 398 
Q 353 888 353 1747 
Q 353 2609 779 3096 
Q 1206 3584 1959 3584 
z
" transform="scale(0.015625)"/>
         <path id="DejaVuSans-28" d="M 1984 4856 
Q 1566 4138 1362 3434 
Q 1159 2731 1159 2009 
Q 1159 1288 1364 580 
Q 1569 -128 1984 -844 
L 1484 -844 
Q 1016 -109 783 600 
Q 550 1309 550 2009 
Q 550 2706 781 3412 
Q 1013 4119 1484 4856 
L 1984 4856 
z
" transform="scale(0.015625)"/>
         <path id="DejaVuSans-6e" d="M 3513 2113 
L 3513 0 
L 2938 0 
L 2938 2094 
Q 2938 2591 2744 2837 
Q 2550 3084 2163 3084 
Q 1697 3084 1428 2787 
Q 1159 2491 1159 1978 
L 1159 0 
L 581 0 
L 581 3500 
L 1159 3500 
L 1159 2956 
Q 1366 3272 1645 3428 
Q 1925 3584 2291 3584 
Q 2894 3584 3203 3211 
Q 3513 2838 3513 2113 
z
" transform="scale(0.015625)"/>
         <path id="DejaVuSans-72" d="M 2631 2963 
Q 2534 3019 2420 3045 
Q 2306 3072 2169 3072 
Q 1681 3072 1420 2755 
Q 1159 2438 1159 1844 
L 1159 0 
L 581 0 
L 581 3500 
L 1159 3500 
L 1159 2956 
Q 1341 3275 1631 3429 
Q 1922 3584 2338 3584 
Q 2397 3584 2469 3576 
Q 2541 3569 2628 3553 
L 2631 2963 
z
" transform="scale(0.015625)"/>
         <path id="DejaVuSans-73" d="M 2834 3397 
L 2834 2853 
Q 2591 2978 2328 3040 
Q 2066 3103 1784 3103 
Q 1356 3103 1142 2972 
Q 928 2841 928 2578 
Q 928 2378 1081 2264 
Q 1234 2150 1697 2047 
L 1894 2003 
Q 2506 1872 2764 1633 
Q 3022 1394 3022 966 
Q 3022 478 2636 193 
Q 2250 -91 1575 -91 
Q 1294 -91 989 -36 
Q 684 19 347 128 
L 347 722 
Q 666 556 975 473 
Q 1284 391 1588 391 
Q 1994 391 2212 530 
Q 2431 669 2431 922 
Q 2431 1156 2273 1281 
Q 2116 1406 1581 1522 
L 1381 1569 
Q 847 1681 609 1914 
Q 372 2147 372 2553 
Q 372 3047 722 3315 
Q 1072 3584 1716 3584 
Q 2034 3584 2315 3537 
Q 2597 3491 2834 3397 
z
" transform="scale(0.015625)"/>
         <path id="DejaVuSans-29" d="M 513 4856 
L 1013 4856 
Q 1481 4119 1714 3412 
Q 1947 2706 1947 2009 
Q 1947 1309 1714 600 
Q 1481 -109 1013 -844 
L 513 -844 
Q 928 -128 1133 580 
Q 1338 1288 1338 2009 
Q 1338 2731 1133 3434 
Q 928 4138 513 4856 
z
" transform="scale(0.015625)"/>
        </defs>
        <use xlink:href="#DejaVuSans-74"/>
        <use xlink:href="#DejaVuSans-69" x="39.208984"/>
        <use xlink:href="#DejaVuSans-6d" x="66.992188"/>
        <use xlink:href="#DejaVuSans-65" x="164.404297"/>
        <use xlink:href="#DejaVuSans-20" x="225.927734"/>
        <use xlink:href="#DejaVuSans-61" x="257.714844"/>
        <use xlink:href="#DejaVuSans-67" x="318.994141"/>
        <use xlink:href="#DejaVuSans-6f" x="382.470703"/>
        <use xlink:href="#DejaVuSans-20" x="443.652344"/>
        <use xlink:href="#DejaVuSans-28" x="475.439453"/>
        <use xlink:href="#DejaVuSans-67" x="514.453125"/>
        <use xlink:href="#DejaVuSans-65" x="577.929688"/>
        <use xlink:href="#DejaVuSans-6e" x="639.453125"/>
        <use xlink:href="#DejaVuSans-65" x="702.832031"/>
        <use xlink:href="#DejaVuSans-72" x="764.355469"/>
        <use xlink:href="#DejaVuSans-61" x="805.46875"/>
        <use xlink:href="#DejaVuSans-74" x="866.748047"/>
        <use xlink:href="#DejaVuSans-69" x="905.957031"/>
        <use xlink:href="#DejaVuSans-6f" x="933.740234"/>
        <use xlink:href="#DejaVuSans-6e" x="994.921875"/>
        <use xlink:href="#DejaVuSans-73" x="1058.300781"/>
        <use xlink:href="#DejaVuSans-29" x="1110.400391"/>
       </g>
      </g>
     </g>
     <path d="M 289.077717 118.784563 
L 291.077717 119.784563 
L 291.077717 117.784563 
z
" clip-path="url(#p7353e28ea1)" style="fill: #ff7f0e; fill-opacity: 0.5; stroke: #ff7f0e; stroke-opacity: 0.5; stroke-linejoin: miter"/>
     <path d="M 289.077717 194.861925 
L 291.077717 195.861925 
L 291.077717 193.861925 
z
" clip-path="url(#p7353e28ea1)" style="fill: #ff7f0e; fill-opacity: 0.5; stroke: #ff7f0e; stroke-opacity: 0.5; stroke-linejoin: miter"/>
     <path d="M 289.077717 84.07843 
L 291.077717 85.07843 
L 291.077717 83.07843 
z
" clip-path="url(#p7353e28ea1)" style="fill: #ff7f0e; fill-opacity: 0.5; stroke: #ff7f0e; stroke-opacity: 0.5; stroke-linejoin: miter"/>
     <path d="M 289.077717 163.261017 
L 291.077717 164.261017 
L 291.077717 162.261017 
z
" clip-path="url(#p7353e28ea1)" style="fill: #ff7f0e; fill-opacity: 0.5; stroke: #ff7f0e; stroke-opacity: 0.5; stroke-linejoin: miter"/>
     <path d="M 289.077717 174.973382 
L 291.077717 175.973382 
L 291.077717 173.973382 
z
" clip-path="url(#p7353e28ea1)" style="fill: #ff7f0e; fill-opacity: 0.5; stroke: #ff7f0e; stroke-opacity: 0.5; stroke-linejoin: miter"/>
     <path d="M 289.077717 119.49697 
L 291.077717 120.49697 
L 291.077717 118.49697 
z
" clip-path="url(#p7353e28ea1)" style="fill: #ff7f0e; fill-opacity: 0.5; stroke: #ff7f0e; stroke-opacity: 0.5; stroke-linejoin: miter"/>
     <path d="M 289.077717 197.572234 
L 291.077717 198.572234 
L 291.077717 196.572234 
z
" clip-path="url(#p7353e28ea1)" style="fill: #ff7f0e; fill-opacity: 0.5; stroke: #ff7f0e; stroke-opacity: 0.5; stroke-linejoin: miter"/>
     <path d="M 289.077717 187.145664 
L 291.077717 188.145664 
L 291.077717 186.145664 
z
" clip-path="url(#p7353e28ea1)" style="fill: #ff7f0e; fill-opacity: 0.5; stroke: #ff7f0e; stroke-opacity: 0.5; stroke-linejoin: miter"/>
     <path d="M 289.077717 198.526465 
L 291.077717 199.526465 
L 291.077717 197.526465 
z
" clip-path="url(#p7353e28ea1)" style="fill: #ff7f0e; fill-opacity: 0.5; stroke: #ff7f0e; stroke-opacity: 0.5; stroke-linejoin: miter"/>
     <path d="M 289.077717 126.125522 
L 291.077717 127.125522 
L 291.077717 125.125522 
z
" clip-path="url(#p7353e28ea1)" style="fill: #ff7f0e; fill-opacity: 0.5; stroke: #ff7f0e; stroke-opacity: 0.5; stroke-linejoin: miter"/>
     <path d="M 354.703533 167.84909 
L 352.703533 166.84909 
L 352.703533 168.84909 
z
" clip-path="url(#p7353e28ea1)" style="fill: #1f77b4; fill-opacity: 0.5; stroke: #1f77b4; stroke-opacity: 0.5; stroke-linejoin: miter"/>
     <path d="M 354.703533 182.762858 
L 352.703533 181.762858 
L 352.703533 183.762858 
z
" clip-path="url(#p7353e28ea1)" style="fill: #1f77b4; fill-opacity: 0.5; stroke: #1f77b4; stroke-opacity: 0.5; stroke-linejoin: miter"/>
     <path d="M 354.703533 179.454348 
L 352.703533 178.454348 
L 352.703533 180.454348 
z
" clip-path="url(#p7353e28ea1)" style="fill: #1f77b4; fill-opacity: 0.5; stroke: #1f77b4; stroke-opacity: 0.5; stroke-linejoin: miter"/>
     <path d="M 354.703533 185.278533 
L 352.703533 184.278533 
L 352.703533 186.278533 
z
" clip-path="url(#p7353e28ea1)" style="fill: #1f77b4; fill-opacity: 0.5; stroke: #1f77b4; stroke-opacity: 0.5; stroke-linejoin: miter"/>
     <path d="M 354.703533 90.854751 
L 352.703533 89.854751 
L 352.703533 91.854751 
z
" clip-path="url(#p7353e28ea1)" style="fill: #1f77b4; fill-opacity: 0.5; stroke: #1f77b4; stroke-opacity: 0.5; stroke-linejoin: miter"/>
     <path d="M 354.703533 137.479646 
L 352.703533 136.479646 
L 352.703533 138.479646 
z
" clip-path="url(#p7353e28ea1)" style="fill: #1f77b4; fill-opacity: 0.5; stroke: #1f77b4; stroke-opacity: 0.5; stroke-linejoin: miter"/>
     <path d="M 354.703533 196.825731 
L 352.703533 195.825731 
L 352.703533 197.825731 
z
" clip-path="url(#p7353e28ea1)" style="fill: #1f77b4; fill-opacity: 0.5; stroke: #1f77b4; stroke-opacity: 0.5; stroke-linejoin: miter"/>
     <path d="M 354.703533 93.835768 
L 352.703533 92.835768 
L 352.703533 94.835768 
z
" clip-path="url(#p7353e28ea1)" style="fill: #1f77b4; fill-opacity: 0.5; stroke: #1f77b4; stroke-opacity: 0.5; stroke-linejoin: miter"/>
     <path d="M 354.703533 110.381957 
L 352.703533 109.381957 
L 352.703533 111.381957 
z
" clip-path="url(#p7353e28ea1)" style="fill: #1f77b4; fill-opacity: 0.5; stroke: #1f77b4; stroke-opacity: 0.5; stroke-linejoin: miter"/>
     <path d="M 354.703533 91.433537 
L 352.703533 90.433537 
L 352.703533 92.433537 
z
" clip-path="url(#p7353e28ea1)" style="fill: #1f77b4; fill-opacity: 0.5; stroke: #1f77b4; stroke-opacity: 0.5; stroke-linejoin: miter"/>
     <path d="M 289.077717 311.421133 
L 291.077717 312.421133 
L 291.077717 310.421133 
z
" clip-path="url(#p7353e28ea1)" style="fill: #ff7f0e; fill-opacity: 0.5; stroke: #ff7f0e; stroke-opacity: 0.5; stroke-linejoin: miter"/>
     <path d="M 289.077717 299.650992 
L 291.077717 300.650992 
L 291.077717 298.650992 
z
" clip-path="url(#p7353e28ea1)" style="fill: #ff7f0e; fill-opacity: 0.5; stroke: #ff7f0e; stroke-opacity: 0.5; stroke-linejoin: miter"/>
     <path d="M 289.077717 270.946383 
L 291.077717 271.946383 
L 291.077717 269.946383 
z
" clip-path="url(#p7353e28ea1)" style="fill: #ff7f0e; fill-opacity: 0.5; stroke: #ff7f0e; stroke-opacity: 0.5; stroke-linejoin: miter"/>
     <path d="M 289.077717 293.069861 
L 291.077717 294.069861 
L 291.077717 292.069861 
z
" clip-path="url(#p7353e28ea1)" style="fill: #ff7f0e; fill-opacity: 0.5; stroke: #ff7f0e; stroke-opacity: 0.5; stroke-linejoin: miter"/>
     <path d="M 289.077717 263.489952 
L 291.077717 264.489952 
L 291.077717 262.489952 
z
" clip-path="url(#p7353e28ea1)" style="fill: #ff7f0e; fill-opacity: 0.5; stroke: #ff7f0e; stroke-opacity: 0.5; stroke-linejoin: miter"/>
     <path d="M 289.077717 241.03103 
L 291.077717 242.03103 
L 291.077717 240.03103 
z
" clip-path="url(#p7353e28ea1)" style="fill: #ff7f0e; fill-opacity: 0.5; stroke: #ff7f0e; stroke-opacity: 0.5; stroke-linejoin: miter"/>
     <path d="M 289.077717 247.115951 
L 291.077717 248.115951 
L 291.077717 246.115951 
z
" clip-path="url(#p7353e28ea1)" style="fill: #ff7f0e; fill-opacity: 0.5; stroke: #ff7f0e; stroke-opacity: 0.5; stroke-linejoin: miter"/>
     <path d="M 289.077717 273.018975 
L 291.077717 274.018975 
L 291.077717 272.018975 
z
" clip-path="url(#p7353e28ea1)" style="fill: #ff7f0e; fill-opacity: 0.5; stroke: #ff7f0e; stroke-opacity: 0.5; stroke-linejoin: miter"/>
     <path d="M 289.077717 216.08619 
L 291.077717 217.08619 
L 291.077717 215.08619 
z
" clip-path="url(#p7353e28ea1)" style="fill: #ff7f0e; fill-opacity: 0.5; stroke: #ff7f0e; stroke-opacity: 0.5; stroke-linejoin: miter"/>
     <path d="M 289.077717 269.42486 
L 291.077717 270.42486 
L 291.077717 268.42486 
z
" clip-path="url(#p7353e28ea1)" style="fill: #ff7f0e; fill-opacity: 0.5; stroke: #ff7f0e; stroke-opacity: 0.5; stroke-linejoin: miter"/>
     <path d="M 354.703533 283.479599 
L 352.703533 282.479599 
L 352.703533 284.479599 
z
" clip-path="url(#p7353e28ea1)" style="fill: #1f77b4; fill-opacity: 0.5; stroke: #1f77b4; stroke-opacity: 0.5; stroke-linejoin: miter"/>
     <path d="M 354.703533 209.635082 
L 352.703533 208.635082 
L 352.703533 210.635082 
z
" clip-path="url(#p7353e28ea1)" style="fill: #1f77b4; fill-opacity: 0.5; stroke: #1f77b4; stroke-opacity: 0.5; stroke-linejoin: miter"/>
     <path d="M 354.703533 212.829334 
L 352.703533 211.829334 
L 352.703533 213.829334 
z
" clip-path="url(#p7353e28ea1)" style="fill: #1f77b4; fill-opacity: 0.5; stroke: #1f77b4; stroke-opacity: 0.5; stroke-linejoin: miter"/>
     <path d="M 354.703533 259.192529 
L 352.703533 258.192529 
L 352.703533 260.192529 
z
" clip-path="url(#p7353e28ea1)" style="fill: #1f77b4; fill-opacity: 0.5; stroke: #1f77b4; stroke-opacity: 0.5; stroke-linejoin: miter"/>
     <path d="M 354.703533 225.980809 
L 352.703533 224.980809 
L 352.703533 226.980809 
z
" clip-path="url(#p7353e28ea1)" style="fill: #1f77b4; fill-opacity: 0.5; stroke: #1f77b4; stroke-opacity: 0.5; stroke-linejoin: miter"/>
     <path d="M 354.703533 254.886353 
L 352.703533 253.886353 
L 352.703533 255.886353 
z
" clip-path="url(#p7353e28ea1)" style="fill: #1f77b4; fill-opacity: 0.5; stroke: #1f77b4; stroke-opacity: 0.5; stroke-linejoin: miter"/>
     <path d="M 354.703533 226.079611 
L 352.703533 225.079611 
L 352.703533 227.079611 
z
" clip-path="url(#p7353e28ea1)" style="fill: #1f77b4; fill-opacity: 0.5; stroke: #1f77b4; stroke-opacity: 0.5; stroke-linejoin: miter"/>
     <path d="M 354.703533 228.247906 
L 352.703533 227.247906 
L 352.703533 229.247906 
z
" clip-path="url(#p7353e28ea1)" style="fill: #1f77b4; fill-opacity: 0.5; stroke: #1f77b4; stroke-opacity: 0.5; stroke-linejoin: miter"/>
     <path d="M 354.703533 211.405799 
L 352.703533 210.405799 
L 352.703533 212.405799 
z
" clip-path="url(#p7353e28ea1)" style="fill: #1f77b4; fill-opacity: 0.5; stroke: #1f77b4; stroke-opacity: 0.5; stroke-linejoin: miter"/>
     <path d="M 354.703533 210.859973 
L 352.703533 209.859973 
L 352.703533 211.859973 
z
" clip-path="url(#p7353e28ea1)" style="fill: #1f77b4; fill-opacity: 0.5; stroke: #1f77b4; stroke-opacity: 0.5; stroke-linejoin: miter"/>
     <g id="patch_5">
      <path d="M 43.78125 318.021875 
L 43.78125 22.318125 
" style="fill: none; stroke: #000000; stroke-width: 0.8; stroke-linejoin: miter; stroke-linecap: square"/>
     </g>
     <g id="text_10">
      <!-- defaults_symmetric_migration_changing_rate.yaml -->
      <g transform="translate(168.3525 16.318125) scale(0.12 -0.12)">
       <defs>
        <path id="DejaVuSans-66" d="M 2375 4863 
L 2375 4384 
L 1825 4384 
Q 1516 4384 1395 4259 
Q 1275 4134 1275 3809 
L 1275 3500 
L 2222 3500 
L 2222 3053 
L 1275 3053 
L 1275 0 
L 697 0 
L 697 3053 
L 147 3053 
L 147 3500 
L 697 3500 
L 697 3744 
Q 697 4328 969 4595 
Q 1241 4863 1831 4863 
L 2375 4863 
z
" transform="scale(0.015625)"/>
        <path id="DejaVuSans-75" d="M 544 1381 
L 544 3500 
L 1119 3500 
L 1119 1403 
Q 1119 906 1312 657 
Q 1506 409 1894 409 
Q 2359 409 2629 706 
Q 2900 1003 2900 1516 
L 2900 3500 
L 3475 3500 
L 3475 0 
L 2900 0 
L 2900 538 
Q 2691 219 2414 64 
Q 2138 -91 1772 -91 
Q 1169 -91 856 284 
Q 544 659 544 1381 
z
M 1991 3584 
L 1991 3584 
z
" transform="scale(0.015625)"/>
        <path id="DejaVuSans-6c" d="M 603 4863 
L 1178 4863 
L 1178 0 
L 603 0 
L 603 4863 
z
" transform="scale(0.015625)"/>
        <path id="DejaVuSans-5f" d="M 3263 -1063 
L 3263 -1509 
L -63 -1509 
L -63 -1063 
L 3263 -1063 
z
" transform="scale(0.015625)"/>
        <path id="DejaVuSans-79" d="M 2059 -325 
Q 1816 -950 1584 -1140 
Q 1353 -1331 966 -1331 
L 506 -1331 
L 506 -850 
L 844 -850 
Q 1081 -850 1212 -737 
Q 1344 -625 1503 -206 
L 1606 56 
L 191 3500 
L 800 3500 
L 1894 763 
L 2988 3500 
L 3597 3500 
L 2059 -325 
z
" transform="scale(0.015625)"/>
        <path id="DejaVuSans-63" d="M 3122 3366 
L 3122 2828 
Q 2878 2963 2633 3030 
Q 2388 3097 2138 3097 
Q 1578 3097 1268 2742 
Q 959 2388 959 1747 
Q 959 1106 1268 751 
Q 1578 397 2138 397 
Q 2388 397 2633 464 
Q 2878 531 3122 666 
L 3122 134 
Q 2881 22 2623 -34 
Q 2366 -91 2075 -91 
Q 1284 -91 818 406 
Q 353 903 353 1747 
Q 353 2603 823 3093 
Q 1294 3584 2113 3584 
Q 2378 3584 2631 3529 
Q 2884 3475 3122 3366 
z
" transform="scale(0.015625)"/>
        <path id="DejaVuSans-68" d="M 3513 2113 
L 3513 0 
L 2938 0 
L 2938 2094 
Q 2938 2591 2744 2837 
Q 2550 3084 2163 3084 
Q 1697 3084 1428 2787 
Q 1159 2491 1159 1978 
L 1159 0 
L 581 0 
L 581 4863 
L 1159 4863 
L 1159 2956 
Q 1366 3272 1645 3428 
Q 1925 3584 2291 3584 
Q 2894 3584 3203 3211 
Q 3513 2838 3513 2113 
z
" transform="scale(0.015625)"/>
       </defs>
       <use xlink:href="#DejaVuSans-64"/>
       <use xlink:href="#DejaVuSans-65" x="63.476562"/>
       <use xlink:href="#DejaVuSans-66" x="125"/>
       <use xlink:href="#DejaVuSans-61" x="160.205078"/>
       <use xlink:href="#DejaVuSans-75" x="221.484375"/>
       <use xlink:href="#DejaVuSans-6c" x="284.863281"/>
       <use xlink:href="#DejaVuSans-74" x="312.646484"/>
       <use xlink:href="#DejaVuSans-73" x="351.855469"/>
       <use xlink:href="#DejaVuSans-5f" x="403.955078"/>
       <use xlink:href="#DejaVuSans-73" x="453.955078"/>
       <use xlink:href="#DejaVuSans-79" x="506.054688"/>
       <use xlink:href="#DejaVuSans-6d" x="565.234375"/>
       <use xlink:href="#DejaVuSans-6d" x="662.646484"/>
       <use xlink:href="#DejaVuSans-65" x="760.058594"/>
       <use xlink:href="#DejaVuSans-74" x="821.582031"/>
       <use xlink:href="#DejaVuSans-72" x="860.791016"/>
       <use xlink:href="#DejaVuSans-69" x="901.904297"/>
       <use xlink:href="#DejaVuSans-63" x="929.6875"/>
       <use xlink:href="#DejaVuSans-5f" x="984.667969"/>
       <use xlink:href="#DejaVuSans-6d" x="1034.667969"/>
       <use xlink:href="#DejaVuSans-69" x="1132.080078"/>
       <use xlink:href="#DejaVuSans-67" x="1159.863281"/>
       <use xlink:href="#DejaVuSans-72" x="1223.339844"/>
       <use xlink:href="#DejaVuSans-61" x="1264.453125"/>
       <use xlink:href="#DejaVuSans-74" x="1325.732422"/>
       <use xlink:href="#DejaVuSans-69" x="1364.941406"/>
       <use xlink:href="#DejaVuSans-6f" x="1392.724609"/>
       <use xlink:href="#DejaVuSans-6e" x="1453.90625"/>
       <use xlink:href="#DejaVuSans-5f" x="1517.285156"/>
       <use xlink:href="#DejaVuSans-63" x="1567.285156"/>
       <use xlink:href="#DejaVuSans-68" x="1622.265625"/>
       <use xlink:href="#DejaVuSans-61" x="1685.644531"/>
       <use xlink:href="#DejaVuSans-6e" x="1746.923828"/>
       <use xlink:href="#DejaVuSans-67" x="1810.302734"/>
       <use xlink:href="#DejaVuSans-69" x="1873.779297"/>
       <use xlink:href="#DejaVuSans-6e" x="1901.5625"/>
       <use xlink:href="#DejaVuSans-67" x="1964.941406"/>
       <use xlink:href="#DejaVuSans-5f" x="2028.417969"/>
       <use xlink:href="#DejaVuSans-72" x="2078.417969"/>
       <use xlink:href="#DejaVuSans-61" x="2119.53125"/>
       <use xlink:href="#DejaVuSans-74" x="2180.810547"/>
       <use xlink:href="#DejaVuSans-65" x="2220.019531"/>
       <use xlink:href="#DejaVuSans-2e" x="2281.542969"/>
       <use xlink:href="#DejaVuSans-79" x="2313.330078"/>
       <use xlink:href="#DejaVuSans-61" x="2372.509766"/>
       <use xlink:href="#DejaVuSans-6d" x="2433.789062"/>
       <use xlink:href="#DejaVuSans-6c" x="2531.201172"/>
      </g>
     </g>
    </g>
   </g>
   <defs>
    <clipPath id="p7353e28ea1">
     <rect x="43.78125" y="22.318125" width="556.21875" height="295.70375"/>
    </clipPath>
   </defs>
  </g>
 </g>
</svg>