<?xml version="1.0" encoding="utf-8" standalone="no"?>
<!DOCTYPE svg PUBLIC "-//W3C//DTD SVG 1.1//EN"
  "http://www.w3.org/Graphics/SVG/1.1/DTD/svg11.dtd">
<svg xmlns:xlink="http://www.w3.org/1999/xlink" width="607.2pt" height="338.4pt" viewBox="0 0 607.2 338.4" xmlns="http://www.w3.org/2000/svg" version="1.1">
 <metadata>
  <rdf:RDF xmlns:dc="http://purl.org/dc/elements/1.1/" xmlns:cc="http://creativecommons.org/ns#" xmlns:rdf="http://www.w3.org/1999/02/22-rdf-syntax-ns#">
   <cc:Work>
    <dc:type rdf:resource="http://purl.org/dc/dcmitype/StillImage"/>
    <dc:date>2025-10-04T09:52:01.025078</dc:date>
    <dc:format>image/svg+xml</dc:format>
    <dc:creator>
     <cc:Agent>
      <dc:title>Matplotlib v3.10.6, https://matplotlib.org/</dc:title>
     </cc:Agent>
    </dc:creator>
   </cc:Work>
  </rdf:RDF>
 </metadata>
 <defs>
  <style type="text/css">*{stroke-linejoin: round; stroke-linecap: butt}</style>
 </defs>
 <g id="figure_1">
  <g id="patch_1">
   <path d="M 0 338.4 
L 607.2 338.4 
L 607.2 0 
L 0 0 
z
" style="fill: #ffffff"/>
  </g>
  <g id="axes_1">
   <g id="patch_2">
    <path d="M 43.78125 318.021875 
L 600 318.021875 
L 600 22.318125 
L 43.78125 22.318125 
z
" style="fill: #ffffff"/>
   </g>
   <g id="line2d_1">
    <path d="M 290.098299 151.502962 
L 291.098299 151.534398 
L 292.098299 151.571339 
L 293.098299 151.669085 
L 294.098299 151.701607 
L 295.098299 151.775232 
L 296.098299 151.813797 
L 297.098299 151.84921 
L 298.098299 151.90685 
L 299.098299 151.977237 
L 300.098299 152.029201 
L 301.098299 152.08829 
L 302.098299 152.176611 
L 303.098299 152.222756 
L 304.098299 152.265167 
L 305.098299 152.295659 
L 306.098299 152.321704 
L 307.098299 152.342904 
L 308.098299 152.397205 
L 309.098299 152.425143 
L 310.098299 152.454867 
L 311.098299 152.480262 
L 312.098299 152.491462 
L 313.098299 152.501586 
L 314.098299 152.501382 
L 315.098299 152.491872 
L 316.098299 152.480218 
L 317.098299 152.449189 
L 318.098299 152.438021 
L 319.098299 152.407904 
L 320.098299 152.348127 
L 321.098299 152.310935 
L 322.098299 152.271839 
L 323.098299 152.229399 
L 324.098299 152.196634 
L 325.098299 152.129208 
L 326.098299 152.090082 
L 327.098299 152.047407 
L 328.098299 151.976827 
L 329.098299 151.940436 
L 330.098299 151.882033 
L 331.098299 151.77108 
L 332.098299 151.700422 
L 333.098299 151.587482 
L 334.098299 151.541709 
L 335.098299 151.480426 
L 336.098299 151.431927 
L 337.098299 151.351104 
L 338.098299 151.232585 
L 339.098299 151.162374 
L 340.098299 151.079112 
L 341.098299 151.04597 
L 342.098299 150.994733 
L 343.098299 150.926334 
L 344.098299 150.860119 
L 345.098299 150.783202 
L 346.098299 150.755887 
L 347.098299 150.729409 
L 348.098299 150.706758 
L 349.098299 150.687227 
L 350.098299 150.660833 
L 351.098299 150.611062 
L 352.098299 150.575989 
L 353.682951 150.540123 
" clip-path="url(#p4fea2cdf38)" style="fill: none; stroke: #1f77b4; stroke-opacity: 0.5; stroke-width: 0.2; stroke-linecap: square"/>
   </g>
   <g id="line2d_2">
    <path d="M 290.098299 95.870742 
L 291.098299 95.902178 
L 292.098299 95.939118 
L 293.098299 96.036865 
L 294.098299 96.069387 
L 295.098299 96.143011 
L 296.098299 96.181577 
L 297.098299 96.21699 
L 298.098299 96.27463 
L 299.098299 96.345016 
L 300.098299 96.39698 
L 301.098299 96.45607 
L 302.098299 96.544391 
L 303.098299 96.590535 
L 304.098299 96.632946 
L 305.098299 96.663439 
L 306.098299 96.689484 
L 307.098299 96.710684 
L 308.098299 96.764985 
L 309.098299 96.792923 
L 310.098299 96.822647 
L 311.098299 96.848041 
L 312.098299 96.859242 
L 313.098299 96.869366 
L 314.098299 96.869162 
L 315.098299 96.859652 
L 316.098299 96.847998 
L 317.098299 96.816969 
L 318.098299 96.805801 
L 319.098299 96.775683 
L 320.098299 96.715906 
L 321.098299 96.678715 
L 322.098299 96.639619 
L 323.098299 96.597179 
L 324.098299 96.564414 
L 325.098299 96.496988 
L 326.098299 96.457862 
L 327.098299 96.415187 
L 328.098299 96.344607 
L 329.098299 96.308216 
L 330.098299 96.249813 
L 331.098299 96.13886 
L 332.098299 96.068202 
L 333.098299 95.955262 
L 334.098299 95.909489 
L 335.098299 95.848206 
L 336.098299 95.799706 
L 337.098299 95.718884 
L 338.098299 95.600365 
L 339.098299 95.530154 
L 340.098299 95.446892 
L 341.098299 95.41375 
L 342.098299 95.362513 
L 343.098299 95.294114 
L 344.098299 95.227899 
L 345.098299 95.150982 
L 346.098299 95.123666 
L 347.098299 95.097189 
L 348.098299 95.074538 
L 349.098299 95.055007 
L 350.098299 95.028613 
L 351.098299 94.978842 
L 352.098299 94.943769 
L 353.682951 94.907903 
" clip-path="url(#p4fea2cdf38)" style="fill: none; stroke: #1f77b4; stroke-opacity: 0.5; stroke-width: 0.2; stroke-linecap: square"/>
   </g>
   <g id="line2d_3">
    <path d="M 290.098299 96.082955 
L 291.098299 96.114392 
L 292.098299 96.151332 
L 293.098299 96.249079 
L 294.098299 96.2816 
L 295.098299 96.355225 
L 296.098299 96.393791 
L 297.098299 96.429204 
L 298.098299 96.486844 
L 299.098299 96.55723 
L 300.098299 96.609194 
L 301.098299 96.668284 
L 302.098299 96.756605 
L 303.098299 96.802749 
L 304.098299 96.84516 
L 305.098299 96.875653 
L 306.098299 96.901698 
L 307.098299 96.922898 
L 308.098299 96.977199 
L 309.098299 97.005136 
L 310.098299 97.03486 
L 311.098299 97.060255 
L 312.098299 97.071456 
L 313.098299 97.08158 
L 314.098299 97.081375 
L 315.098299 97.071865 
L 316.098299 97.060212 
L 317.098299 97.029182 
L 318.098299 97.018015 
L 319.098299 96.987897 
L 320.098299 96.92812 
L 321.098299 96.890929 
L 322.098299 96.851832 
L 323.098299 96.809393 
L 324.098299 96.776628 
L 325.098299 96.709201 
L 326.098299 96.670075 
L 327.098299 96.627401 
L 328.098299 96.55682 
L 329.098299 96.520429 
L 330.098299 96.462026 
L 331.098299 96.351074 
L 332.098299 96.280415 
L 333.098299 96.167475 
L 334.098299 96.121703 
L 335.098299 96.060419 
L 336.098299 96.01192 
L 337.098299 95.931097 
L 338.098299 95.812578 
L 339.098299 95.742368 
L 340.098299 95.659105 
L 341.098299 95.625964 
L 342.098299 95.574726 
L 343.098299 95.506328 
L 344.098299 95.440112 
L 345.098299 95.363195 
L 346.098299 95.33588 
L 347.098299 95.309402 
L 348.098299 95.286752 
L 349.098299 95.26722 
L 350.098299 95.240826 
L 351.098299 95.191056 
L 352.098299 95.155982 
L 353.682951 95.120117 
" clip-path="url(#p4fea2cdf38)" style="fill: none; stroke: #1f77b4; stroke-opacity: 0.5; stroke-width: 0.2; stroke-linecap: square"/>
   </g>
   <g id="line2d_4">
    <path d="M 290.098299 188.015175 
L 291.098299 188.046611 
L 292.098299 188.083551 
L 293.098299 188.181298 
L 294.098299 188.213819 
L 295.098299 188.287444 
L 296.098299 188.32601 
L 297.098299 188.361423 
L 298.098299 188.419063 
L 299.098299 188.489449 
L 300.098299 188.541413 
L 301.098299 188.600503 
L 302.098299 188.688824 
L 303.098299 188.734968 
L 304.098299 188.777379 
L 305.098299 188.807872 
L 306.098299 188.833917 
L 307.098299 188.855117 
L 308.098299 188.909418 
L 309.098299 188.937356 
L 310.098299 188.96708 
L 311.098299 188.992474 
L 312.098299 189.003675 
L 313.098299 189.013799 
L 314.098299 189.013594 
L 315.098299 189.004084 
L 316.098299 188.992431 
L 317.098299 188.961402 
L 318.098299 188.950234 
L 319.098299 188.920116 
L 320.098299 188.860339 
L 321.098299 188.823148 
L 322.098299 188.784052 
L 323.098299 188.741612 
L 324.098299 188.708847 
L 325.098299 188.64142 
L 326.098299 188.602294 
L 327.098299 188.55962 
L 328.098299 188.489039 
L 329.098299 188.452648 
L 330.098299 188.394245 
L 331.098299 188.283293 
L 332.098299 188.212634 
L 333.098299 188.099695 
L 334.098299 188.053922 
L 335.098299 187.992638 
L 336.098299 187.944139 
L 337.098299 187.863316 
L 338.098299 187.744798 
L 339.098299 187.674587 
L 340.098299 187.591324 
L 341.098299 187.558183 
L 342.098299 187.506945 
L 343.098299 187.438547 
L 344.098299 187.372332 
L 345.098299 187.295414 
L 346.098299 187.268099 
L 347.098299 187.241621 
L 348.098299 187.218971 
L 349.098299 187.19944 
L 350.098299 187.173046 
L 351.098299 187.123275 
L 352.098299 187.088202 
L 353.682951 187.052336 
" clip-path="url(#p4fea2cdf38)" style="fill: none; stroke: #1f77b4; stroke-opacity: 0.5; stroke-width: 0.2; stroke-linecap: square"/>
   </g>
   <g id="line2d_5">
    <path d="M 290.098299 187.482857 
L 291.098299 187.514293 
L 292.098299 187.551234 
L 293.098299 187.64898 
L 294.098299 187.681502 
L 295.098299 187.755127 
L 296.098299 187.793692 
L 297.098299 187.829105 
L 298.098299 187.886745 
L 299.098299 187.957131 
L 300.098299 188.009096 
L 301.098299 188.068185 
L 302.098299 188.156506 
L 303.098299 188.202651 
L 304.098299 188.245062 
L 305.098299 188.275554 
L 306.098299 188.301599 
L 307.098299 188.322799 
L 308.098299 188.3771 
L 309.098299 188.405038 
L 310.098299 188.434762 
L 311.098299 188.460157 
L 312.098299 188.471357 
L 313.098299 188.481481 
L 314.098299 188.481277 
L 315.098299 188.471767 
L 316.098299 188.460113 
L 317.098299 188.429084 
L 318.098299 188.417916 
L 319.098299 188.387799 
L 320.098299 188.328022 
L 321.098299 188.29083 
L 322.098299 188.251734 
L 323.098299 188.209294 
L 324.098299 188.176529 
L 325.098299 188.109103 
L 326.098299 188.069977 
L 327.098299 188.027302 
L 328.098299 187.956722 
L 329.098299 187.920331 
L 330.098299 187.861928 
L 331.098299 187.750975 
L 332.098299 187.680317 
L 333.098299 187.567377 
L 334.098299 187.521604 
L 335.098299 187.460321 
L 336.098299 187.411822 
L 337.098299 187.330999 
L 338.098299 187.21248 
L 339.098299 187.142269 
L 340.098299 187.059007 
L 341.098299 187.025865 
L 342.098299 186.974628 
L 343.098299 186.906229 
L 344.098299 186.840014 
L 345.098299 186.763097 
L 346.098299 186.735781 
L 347.098299 186.709304 
L 348.098299 186.686653 
L 349.098299 186.667122 
L 350.098299 186.640728 
L 351.098299 186.590957 
L 352.098299 186.555884 
L 353.682951 186.520018 
" clip-path="url(#p4fea2cdf38)" style="fill: none; stroke: #1f77b4; stroke-opacity: 0.5; stroke-width: 0.2; stroke-linecap: square"/>
   </g>
   <g id="line2d_6">
    <path d="M 290.098299 129.063408 
L 291.098299 129.094844 
L 292.098299 129.131784 
L 293.098299 129.229531 
L 294.098299 129.262053 
L 295.098299 129.335677 
L 296.098299 129.374243 
L 297.098299 129.409656 
L 298.098299 129.467296 
L 299.098299 129.537682 
L 300.098299 129.589646 
L 301.098299 129.648736 
L 302.098299 129.737057 
L 303.098299 129.783201 
L 304.098299 129.825612 
L 305.098299 129.856105 
L 306.098299 129.88215 
L 307.098299 129.90335 
L 308.098299 129.957651 
L 309.098299 129.985589 
L 310.098299 130.015313 
L 311.098299 130.040707 
L 312.098299 130.051908 
L 313.098299 130.062032 
L 314.098299 130.061828 
L 315.098299 130.052318 
L 316.098299 130.040664 
L 317.098299 130.009635 
L 318.098299 129.998467 
L 319.098299 129.968349 
L 320.098299 129.908572 
L 321.098299 129.871381 
L 322.098299 129.832285 
L 323.098299 129.789845 
L 324.098299 129.75708 
L 325.098299 129.689654 
L 326.098299 129.650528 
L 327.098299 129.607853 
L 328.098299 129.537273 
L 329.098299 129.500882 
L 330.098299 129.442479 
L 331.098299 129.331526 
L 332.098299 129.260868 
L 333.098299 129.147928 
L 334.098299 129.102155 
L 335.098299 129.040872 
L 336.098299 128.992372 
L 337.098299 128.91155 
L 338.098299 128.793031 
L 339.098299 128.72282 
L 340.098299 128.639558 
L 341.098299 128.606416 
L 342.098299 128.555179 
L 343.098299 128.48678 
L 344.098299 128.420565 
L 345.098299 128.343648 
L 346.098299 128.316332 
L 347.098299 128.289855 
L 348.098299 128.267204 
L 349.098299 128.247673 
L 350.098299 128.221279 
L 351.098299 128.171508 
L 352.098299 128.136435 
L 353.682951 128.100569 
" clip-path="url(#p4fea2cdf38)" style="fill: none; stroke: #1f77b4; stroke-opacity: 0.5; stroke-width: 0.2; stroke-linecap: square"/>
   </g>
   <g id="line2d_7">
    <path d="M 290.098299 106.684648 
L 291.098299 106.716085 
L 292.098299 106.753025 
L 293.098299 106.850771 
L 294.098299 106.883293 
L 295.098299 106.956918 
L 296.098299 106.995483 
L 297.098299 107.030897 
L 298.098299 107.088536 
L 299.098299 107.158923 
L 300.098299 107.210887 
L 301.098299 107.269977 
L 302.098299 107.358298 
L 303.098299 107.404442 
L 304.098299 107.446853 
L 305.098299 107.477346 
L 306.098299 107.50339 
L 307.098299 107.524591 
L 308.098299 107.578892 
L 309.098299 107.606829 
L 310.098299 107.636553 
L 311.098299 107.661948 
L 312.098299 107.673148 
L 313.098299 107.683272 
L 314.098299 107.683068 
L 315.098299 107.673558 
L 316.098299 107.661905 
L 317.098299 107.630875 
L 318.098299 107.619707 
L 319.098299 107.58959 
L 320.098299 107.529813 
L 321.098299 107.492621 
L 322.098299 107.453525 
L 323.098299 107.411086 
L 324.098299 107.378321 
L 325.098299 107.310894 
L 326.098299 107.271768 
L 327.098299 107.229094 
L 328.098299 107.158513 
L 329.098299 107.122122 
L 330.098299 107.063719 
L 331.098299 106.952766 
L 332.098299 106.882108 
L 333.098299 106.769168 
L 334.098299 106.723395 
L 335.098299 106.662112 
L 336.098299 106.613613 
L 337.098299 106.53279 
L 338.098299 106.414271 
L 339.098299 106.344061 
L 340.098299 106.260798 
L 341.098299 106.227656 
L 342.098299 106.176419 
L 343.098299 106.108021 
L 344.098299 106.041805 
L 345.098299 105.964888 
L 346.098299 105.937573 
L 347.098299 105.911095 
L 348.098299 105.888445 
L 349.098299 105.868913 
L 350.098299 105.842519 
L 351.098299 105.792748 
L 352.098299 105.757675 
L 353.682951 105.72181 
" clip-path="url(#p4fea2cdf38)" style="fill: none; stroke: #1f77b4; stroke-opacity: 0.5; stroke-width: 0.2; stroke-linecap: square"/>
   </g>
   <g id="line2d_8">
    <path d="M 290.098299 128.251476 
L 291.098299 128.282913 
L 292.098299 128.319853 
L 293.098299 128.4176 
L 294.098299 128.450121 
L 295.098299 128.523746 
L 296.098299 128.562312 
L 297.098299 128.597725 
L 298.098299 128.655365 
L 299.098299 128.725751 
L 300.098299 128.777715 
L 301.098299 128.836805 
L 302.098299 128.925126 
L 303.098299 128.97127 
L 304.098299 129.013681 
L 305.098299 129.044174 
L 306.098299 129.070219 
L 307.098299 129.091419 
L 308.098299 129.14572 
L 309.098299 129.173657 
L 310.098299 129.203381 
L 311.098299 129.228776 
L 312.098299 129.239977 
L 313.098299 129.250101 
L 314.098299 129.249896 
L 315.098299 129.240386 
L 316.098299 129.228733 
L 317.098299 129.197704 
L 318.098299 129.186536 
L 319.098299 129.156418 
L 320.098299 129.096641 
L 321.098299 129.05945 
L 322.098299 129.020354 
L 323.098299 128.977914 
L 324.098299 128.945149 
L 325.098299 128.877722 
L 326.098299 128.838596 
L 327.098299 128.795922 
L 328.098299 128.725341 
L 329.098299 128.68895 
L 330.098299 128.630547 
L 331.098299 128.519595 
L 332.098299 128.448936 
L 333.098299 128.335996 
L 334.098299 128.290224 
L 335.098299 128.22894 
L 336.098299 128.180441 
L 337.098299 128.099618 
L 338.098299 127.981099 
L 339.098299 127.910889 
L 340.098299 127.827626 
L 341.098299 127.794485 
L 342.098299 127.743247 
L 343.098299 127.674849 
L 344.098299 127.608633 
L 345.098299 127.531716 
L 346.098299 127.504401 
L 347.098299 127.477923 
L 348.098299 127.455273 
L 349.098299 127.435741 
L 350.098299 127.409347 
L 351.098299 127.359577 
L 352.098299 127.324504 
L 353.682951 127.288638 
" clip-path="url(#p4fea2cdf38)" style="fill: none; stroke: #1f77b4; stroke-opacity: 0.5; stroke-width: 0.2; stroke-linecap: square"/>
   </g>
   <g id="line2d_9">
    <path d="M 290.098299 169.979906 
L 291.098299 170.011343 
L 292.098299 170.048283 
L 293.098299 170.14603 
L 294.098299 170.178551 
L 295.098299 170.252176 
L 296.098299 170.290742 
L 297.098299 170.326155 
L 298.098299 170.383795 
L 299.098299 170.454181 
L 300.098299 170.506145 
L 301.098299 170.565235 
L 302.098299 170.653556 
L 303.098299 170.6997 
L 304.098299 170.742111 
L 305.098299 170.772604 
L 306.098299 170.798649 
L 307.098299 170.819849 
L 308.098299 170.87415 
L 309.098299 170.902087 
L 310.098299 170.931811 
L 311.098299 170.957206 
L 312.098299 170.968407 
L 313.098299 170.978531 
L 314.098299 170.978326 
L 315.098299 170.968816 
L 316.098299 170.957163 
L 317.098299 170.926133 
L 318.098299 170.914966 
L 319.098299 170.884848 
L 320.098299 170.825071 
L 321.098299 170.78788 
L 322.098299 170.748783 
L 323.098299 170.706344 
L 324.098299 170.673579 
L 325.098299 170.606152 
L 326.098299 170.567026 
L 327.098299 170.524352 
L 328.098299 170.453771 
L 329.098299 170.41738 
L 330.098299 170.358977 
L 331.098299 170.248025 
L 332.098299 170.177366 
L 333.098299 170.064426 
L 334.098299 170.018654 
L 335.098299 169.95737 
L 336.098299 169.908871 
L 337.098299 169.828048 
L 338.098299 169.709529 
L 339.098299 169.639319 
L 340.098299 169.556056 
L 341.098299 169.522915 
L 342.098299 169.471677 
L 343.098299 169.403279 
L 344.098299 169.337063 
L 345.098299 169.260146 
L 346.098299 169.232831 
L 347.098299 169.206353 
L 348.098299 169.183703 
L 349.098299 169.164171 
L 350.098299 169.137777 
L 351.098299 169.088007 
L 352.098299 169.052933 
L 353.682951 169.017068 
" clip-path="url(#p4fea2cdf38)" style="fill: none; stroke: #1f77b4; stroke-opacity: 0.5; stroke-width: 0.2; stroke-linecap: square"/>
   </g>
   <g id="line2d_10">
    <path d="M 290.098299 171.173608 
L 291.098299 171.205045 
L 292.098299 171.241985 
L 293.098299 171.339732 
L 294.098299 171.372253 
L 295.098299 171.445878 
L 296.098299 171.484444 
L 297.098299 171.519857 
L 298.098299 171.577497 
L 299.098299 171.647883 
L 300.098299 171.699847 
L 301.098299 171.758937 
L 302.098299 171.847258 
L 303.098299 171.893402 
L 304.098299 171.935813 
L 305.098299 171.966306 
L 306.098299 171.992351 
L 307.098299 172.013551 
L 308.098299 172.067852 
L 309.098299 172.095789 
L 310.098299 172.125513 
L 311.098299 172.150908 
L 312.098299 172.162109 
L 313.098299 172.172233 
L 314.098299 172.172028 
L 315.098299 172.162518 
L 316.098299 172.150865 
L 317.098299 172.119836 
L 318.098299 172.108668 
L 319.098299 172.07855 
L 320.098299 172.018773 
L 321.098299 171.981582 
L 322.098299 171.942486 
L 323.098299 171.900046 
L 324.098299 171.867281 
L 325.098299 171.799854 
L 326.098299 171.760728 
L 327.098299 171.718054 
L 328.098299 171.647473 
L 329.098299 171.611082 
L 330.098299 171.552679 
L 331.098299 171.441727 
L 332.098299 171.371068 
L 333.098299 171.258128 
L 334.098299 171.212356 
L 335.098299 171.151072 
L 336.098299 171.102573 
L 337.098299 171.02175 
L 338.098299 170.903231 
L 339.098299 170.833021 
L 340.098299 170.749758 
L 341.098299 170.716617 
L 342.098299 170.665379 
L 343.098299 170.596981 
L 344.098299 170.530765 
L 345.098299 170.453848 
L 346.098299 170.426533 
L 347.098299 170.400055 
L 348.098299 170.377405 
L 349.098299 170.357873 
L 350.098299 170.331479 
L 351.098299 170.281709 
L 352.098299 170.246636 
L 353.682951 170.21077 
" clip-path="url(#p4fea2cdf38)" style="fill: none; stroke: #1f77b4; stroke-opacity: 0.5; stroke-width: 0.2; stroke-linecap: square"/>
   </g>
   <g id="line2d_11">
    <path d="M 290.098299 200.950277 
L 291.098299 200.981713 
L 292.098299 201.018654 
L 293.098299 201.1164 
L 294.098299 201.148922 
L 295.098299 201.222547 
L 296.098299 201.261112 
L 297.098299 201.296525 
L 298.098299 201.354165 
L 299.098299 201.424551 
L 300.098299 201.476516 
L 301.098299 201.535605 
L 302.098299 201.623926 
L 303.098299 201.670071 
L 304.098299 201.712482 
L 305.098299 201.742974 
L 306.098299 201.769019 
L 307.098299 201.790219 
L 308.098299 201.84452 
L 309.098299 201.872458 
L 310.098299 201.902182 
L 311.098299 201.927577 
L 312.098299 201.938777 
L 313.098299 201.948901 
L 314.098299 201.948697 
L 315.098299 201.939187 
L 316.098299 201.927533 
L 317.098299 201.896504 
L 318.098299 201.885336 
L 319.098299 201.855219 
L 320.098299 201.795442 
L 321.098299 201.75825 
L 322.098299 201.719154 
L 323.098299 201.676714 
L 324.098299 201.643949 
L 325.098299 201.576523 
L 326.098299 201.537397 
L 327.098299 201.494722 
L 328.098299 201.424142 
L 329.098299 201.387751 
L 330.098299 201.329348 
L 331.098299 201.218395 
L 332.098299 201.147737 
L 333.098299 201.034797 
L 334.098299 200.989024 
L 335.098299 200.927741 
L 336.098299 200.879242 
L 337.098299 200.798419 
L 338.098299 200.6799 
L 339.098299 200.609689 
L 340.098299 200.526427 
L 341.098299 200.493285 
L 342.098299 200.442048 
L 343.098299 200.373649 
L 344.098299 200.307434 
L 345.098299 200.230517 
L 346.098299 200.203201 
L 347.098299 200.176724 
L 348.098299 200.154073 
L 349.098299 200.134542 
L 350.098299 200.108148 
L 351.098299 200.058377 
L 352.098299 200.023304 
L 353.682951 199.987438 
" clip-path="url(#p4fea2cdf38)" style="fill: none; stroke: #1f77b4; stroke-opacity: 0.5; stroke-width: 0.2; stroke-linecap: square"/>
   </g>
   <g id="line2d_12">
    <path d="M 290.098299 290.102863 
L 291.098299 290.134299 
L 292.098299 290.17124 
L 293.098299 290.268986 
L 294.098299 290.301508 
L 295.098299 290.375133 
L 296.098299 290.413698 
L 297.098299 290.449111 
L 298.098299 290.506751 
L 299.098299 290.577137 
L 300.098299 290.629102 
L 301.098299 290.688191 
L 302.098299 290.776512 
L 303.098299 290.822657 
L 304.098299 290.865068 
L 305.098299 290.89556 
L 306.098299 290.921605 
L 307.098299 290.942805 
L 308.098299 290.997106 
L 309.098299 291.025044 
L 310.098299 291.054768 
L 311.098299 291.080163 
L 312.098299 291.091363 
L 313.098299 291.101487 
L 314.098299 291.101283 
L 315.098299 291.091773 
L 316.098299 291.080119 
L 317.098299 291.04909 
L 318.098299 291.037922 
L 319.098299 291.007805 
L 320.098299 290.948028 
L 321.098299 290.910836 
L 322.098299 290.87174 
L 323.098299 290.8293 
L 324.098299 290.796535 
L 325.098299 290.729109 
L 326.098299 290.689983 
L 327.098299 290.647308 
L 328.098299 290.576728 
L 329.098299 290.540337 
L 330.098299 290.481934 
L 331.098299 290.370981 
L 332.098299 290.300323 
L 333.098299 290.187383 
L 334.098299 290.14161 
L 335.098299 290.080327 
L 336.098299 290.031828 
L 337.098299 289.951005 
L 338.098299 289.832486 
L 339.098299 289.762275 
L 340.098299 289.679013 
L 341.098299 289.645871 
L 342.098299 289.594634 
L 343.098299 289.526235 
L 344.098299 289.46002 
L 345.098299 289.383103 
L 346.098299 289.355788 
L 347.098299 289.32931 
L 348.098299 289.306659 
L 349.098299 289.287128 
L 350.098299 289.260734 
L 351.098299 289.210963 
L 352.098299 289.17589 
L 353.682951 289.140024 
" clip-path="url(#p4fea2cdf38)" style="fill: none; stroke: #1f77b4; stroke-opacity: 0.5; stroke-width: 0.2; stroke-linecap: square"/>
   </g>
   <g id="line2d_13">
    <path d="M 290.098299 247.925897 
L 291.098299 247.957334 
L 292.098299 247.994274 
L 293.098299 248.092021 
L 294.098299 248.124542 
L 295.098299 248.198167 
L 296.098299 248.236733 
L 297.098299 248.272146 
L 298.098299 248.329786 
L 299.098299 248.400172 
L 300.098299 248.452136 
L 301.098299 248.511226 
L 302.098299 248.599547 
L 303.098299 248.645691 
L 304.098299 248.688102 
L 305.098299 248.718595 
L 306.098299 248.74464 
L 307.098299 248.76584 
L 308.098299 248.820141 
L 309.098299 248.848078 
L 310.098299 248.877802 
L 311.098299 248.903197 
L 312.098299 248.914398 
L 313.098299 248.924522 
L 314.098299 248.924317 
L 315.098299 248.914807 
L 316.098299 248.903154 
L 317.098299 248.872125 
L 318.098299 248.860957 
L 319.098299 248.830839 
L 320.098299 248.771062 
L 321.098299 248.733871 
L 322.098299 248.694775 
L 323.098299 248.652335 
L 324.098299 248.61957 
L 325.098299 248.552143 
L 326.098299 248.513017 
L 327.098299 248.470343 
L 328.098299 248.399762 
L 329.098299 248.363371 
L 330.098299 248.304968 
L 331.098299 248.194016 
L 332.098299 248.123357 
L 333.098299 248.010417 
L 334.098299 247.964645 
L 335.098299 247.903361 
L 336.098299 247.854862 
L 337.098299 247.774039 
L 338.098299 247.65552 
L 339.098299 247.58531 
L 340.098299 247.502047 
L 341.098299 247.468906 
L 342.098299 247.417668 
L 343.098299 247.34927 
L 344.098299 247.283054 
L 345.098299 247.206137 
L 346.098299 247.178822 
L 347.098299 247.152344 
L 348.098299 247.129694 
L 349.098299 247.110162 
L 350.098299 247.083768 
L 351.098299 247.033998 
L 352.098299 246.998925 
L 353.682951 246.963059 
" clip-path="url(#p4fea2cdf38)" style="fill: none; stroke: #1f77b4; stroke-opacity: 0.5; stroke-width: 0.2; stroke-linecap: square"/>
   </g>
   <g id="line2d_14">
    <path d="M 290.098299 241.319474 
L 291.098299 241.350911 
L 292.098299 241.387851 
L 293.098299 241.485598 
L 294.098299 241.518119 
L 295.098299 241.591744 
L 296.098299 241.630309 
L 297.098299 241.665723 
L 298.098299 241.723363 
L 299.098299 241.793749 
L 300.098299 241.845713 
L 301.098299 241.904803 
L 302.098299 241.993124 
L 303.098299 242.039268 
L 304.098299 242.081679 
L 305.098299 242.112172 
L 306.098299 242.138217 
L 307.098299 242.159417 
L 308.098299 242.213718 
L 309.098299 242.241655 
L 310.098299 242.271379 
L 311.098299 242.296774 
L 312.098299 242.307974 
L 313.098299 242.318098 
L 314.098299 242.317894 
L 315.098299 242.308384 
L 316.098299 242.296731 
L 317.098299 242.265701 
L 318.098299 242.254533 
L 319.098299 242.224416 
L 320.098299 242.164639 
L 321.098299 242.127447 
L 322.098299 242.088351 
L 323.098299 242.045912 
L 324.098299 242.013147 
L 325.098299 241.94572 
L 326.098299 241.906594 
L 327.098299 241.86392 
L 328.098299 241.793339 
L 329.098299 241.756948 
L 330.098299 241.698545 
L 331.098299 241.587592 
L 332.098299 241.516934 
L 333.098299 241.403994 
L 334.098299 241.358221 
L 335.098299 241.296938 
L 336.098299 241.248439 
L 337.098299 241.167616 
L 338.098299 241.049097 
L 339.098299 240.978887 
L 340.098299 240.895624 
L 341.098299 240.862482 
L 342.098299 240.811245 
L 343.098299 240.742847 
L 344.098299 240.676631 
L 345.098299 240.599714 
L 346.098299 240.572399 
L 347.098299 240.545921 
L 348.098299 240.523271 
L 349.098299 240.503739 
L 350.098299 240.477345 
L 351.098299 240.427574 
L 352.098299 240.392501 
L 353.682951 240.356636 
" clip-path="url(#p4fea2cdf38)" style="fill: none; stroke: #1f77b4; stroke-opacity: 0.5; stroke-width: 0.2; stroke-linecap: square"/>
   </g>
   <g id="line2d_15">
    <path d="M 290.098299 217.502273 
L 291.098299 217.533709 
L 292.098299 217.57065 
L 293.098299 217.668396 
L 294.098299 217.700918 
L 295.098299 217.774542 
L 296.098299 217.813108 
L 297.098299 217.848521 
L 298.098299 217.906161 
L 299.098299 217.976547 
L 300.098299 218.028512 
L 301.098299 218.087601 
L 302.098299 218.175922 
L 303.098299 218.222067 
L 304.098299 218.264477 
L 305.098299 218.29497 
L 306.098299 218.321015 
L 307.098299 218.342215 
L 308.098299 218.396516 
L 309.098299 218.424454 
L 310.098299 218.454178 
L 311.098299 218.479573 
L 312.098299 218.490773 
L 313.098299 218.500897 
L 314.098299 218.500693 
L 315.098299 218.491183 
L 316.098299 218.479529 
L 317.098299 218.4485 
L 318.098299 218.437332 
L 319.098299 218.407214 
L 320.098299 218.347438 
L 321.098299 218.310246 
L 322.098299 218.27115 
L 323.098299 218.22871 
L 324.098299 218.195945 
L 325.098299 218.128519 
L 326.098299 218.089393 
L 327.098299 218.046718 
L 328.098299 217.976138 
L 329.098299 217.939747 
L 330.098299 217.881344 
L 331.098299 217.770391 
L 332.098299 217.699733 
L 333.098299 217.586793 
L 334.098299 217.54102 
L 335.098299 217.479737 
L 336.098299 217.431237 
L 337.098299 217.350415 
L 338.098299 217.231896 
L 339.098299 217.161685 
L 340.098299 217.078423 
L 341.098299 217.045281 
L 342.098299 216.994044 
L 343.098299 216.925645 
L 344.098299 216.85943 
L 345.098299 216.782513 
L 346.098299 216.755197 
L 347.098299 216.72872 
L 348.098299 216.706069 
L 349.098299 216.686538 
L 350.098299 216.660144 
L 351.098299 216.610373 
L 352.098299 216.5753 
L 353.682951 216.539434 
" clip-path="url(#p4fea2cdf38)" style="fill: none; stroke: #1f77b4; stroke-opacity: 0.5; stroke-width: 0.2; stroke-linecap: square"/>
   </g>
   <g id="line2d_16">
    <path d="M 290.098299 211.655543 
L 291.098299 211.68698 
L 292.098299 211.72392 
L 293.098299 211.821667 
L 294.098299 211.854188 
L 295.098299 211.927813 
L 296.098299 211.966379 
L 297.098299 212.001792 
L 298.098299 212.059432 
L 299.098299 212.129818 
L 300.098299 212.181782 
L 301.098299 212.240872 
L 302.098299 212.329193 
L 303.098299 212.375337 
L 304.098299 212.417748 
L 305.098299 212.448241 
L 306.098299 212.474286 
L 307.098299 212.495486 
L 308.098299 212.549787 
L 309.098299 212.577724 
L 310.098299 212.607448 
L 311.098299 212.632843 
L 312.098299 212.644044 
L 313.098299 212.654168 
L 314.098299 212.653963 
L 315.098299 212.644453 
L 316.098299 212.6328 
L 317.098299 212.60177 
L 318.098299 212.590603 
L 319.098299 212.560485 
L 320.098299 212.500708 
L 321.098299 212.463517 
L 322.098299 212.42442 
L 323.098299 212.381981 
L 324.098299 212.349216 
L 325.098299 212.281789 
L 326.098299 212.242663 
L 327.098299 212.199989 
L 328.098299 212.129408 
L 329.098299 212.093017 
L 330.098299 212.034614 
L 331.098299 211.923662 
L 332.098299 211.853003 
L 333.098299 211.740063 
L 334.098299 211.694291 
L 335.098299 211.633007 
L 336.098299 211.584508 
L 337.098299 211.503685 
L 338.098299 211.385166 
L 339.098299 211.314956 
L 340.098299 211.231693 
L 341.098299 211.198552 
L 342.098299 211.147314 
L 343.098299 211.078916 
L 344.098299 211.0127 
L 345.098299 210.935783 
L 346.098299 210.908468 
L 347.098299 210.88199 
L 348.098299 210.85934 
L 349.098299 210.839808 
L 350.098299 210.813414 
L 351.098299 210.763644 
L 352.098299 210.72857 
L 353.682951 210.692705 
" clip-path="url(#p4fea2cdf38)" style="fill: none; stroke: #1f77b4; stroke-opacity: 0.5; stroke-width: 0.2; stroke-linecap: square"/>
   </g>
   <g id="line2d_17">
    <path d="M 290.098299 265.695125 
L 291.098299 265.726562 
L 292.098299 265.763502 
L 293.098299 265.861249 
L 294.098299 265.89377 
L 295.098299 265.967395 
L 296.098299 266.005961 
L 297.098299 266.041374 
L 298.098299 266.099014 
L 299.098299 266.1694 
L 300.098299 266.221364 
L 301.098299 266.280454 
L 302.098299 266.368775 
L 303.098299 266.414919 
L 304.098299 266.45733 
L 305.098299 266.487823 
L 306.098299 266.513868 
L 307.098299 266.535068 
L 308.098299 266.589369 
L 309.098299 266.617306 
L 310.098299 266.64703 
L 311.098299 266.672425 
L 312.098299 266.683626 
L 313.098299 266.69375 
L 314.098299 266.693545 
L 315.098299 266.684035 
L 316.098299 266.672382 
L 317.098299 266.641353 
L 318.098299 266.630185 
L 319.098299 266.600067 
L 320.098299 266.54029 
L 321.098299 266.503099 
L 322.098299 266.464003 
L 323.098299 266.421563 
L 324.098299 266.388798 
L 325.098299 266.321371 
L 326.098299 266.282245 
L 327.098299 266.239571 
L 328.098299 266.16899 
L 329.098299 266.132599 
L 330.098299 266.074196 
L 331.098299 265.963244 
L 332.098299 265.892585 
L 333.098299 265.779645 
L 334.098299 265.733873 
L 335.098299 265.672589 
L 336.098299 265.62409 
L 337.098299 265.543267 
L 338.098299 265.424748 
L 339.098299 265.354538 
L 340.098299 265.271275 
L 341.098299 265.238134 
L 342.098299 265.186896 
L 343.098299 265.118498 
L 344.098299 265.052282 
L 345.098299 264.975365 
L 346.098299 264.94805 
L 347.098299 264.921572 
L 348.098299 264.898922 
L 349.098299 264.87939 
L 350.098299 264.852996 
L 351.098299 264.803226 
L 352.098299 264.768153 
L 353.682951 264.732287 
" clip-path="url(#p4fea2cdf38)" style="fill: none; stroke: #1f77b4; stroke-opacity: 0.5; stroke-width: 0.2; stroke-linecap: square"/>
   </g>
   <g id="line2d_18">
    <path d="M 290.098299 278.797544 
L 291.098299 278.828981 
L 292.098299 278.865921 
L 293.098299 278.963668 
L 294.098299 278.996189 
L 295.098299 279.069814 
L 296.098299 279.108379 
L 297.098299 279.143793 
L 298.098299 279.201433 
L 299.098299 279.271819 
L 300.098299 279.323783 
L 301.098299 279.382873 
L 302.098299 279.471194 
L 303.098299 279.517338 
L 304.098299 279.559749 
L 305.098299 279.590242 
L 306.098299 279.616287 
L 307.098299 279.637487 
L 308.098299 279.691788 
L 309.098299 279.719725 
L 310.098299 279.749449 
L 311.098299 279.774844 
L 312.098299 279.786044 
L 313.098299 279.796168 
L 314.098299 279.795964 
L 315.098299 279.786454 
L 316.098299 279.774801 
L 317.098299 279.743771 
L 318.098299 279.732603 
L 319.098299 279.702486 
L 320.098299 279.642709 
L 321.098299 279.605517 
L 322.098299 279.566421 
L 323.098299 279.523982 
L 324.098299 279.491217 
L 325.098299 279.42379 
L 326.098299 279.384664 
L 327.098299 279.34199 
L 328.098299 279.271409 
L 329.098299 279.235018 
L 330.098299 279.176615 
L 331.098299 279.065662 
L 332.098299 278.995004 
L 333.098299 278.882064 
L 334.098299 278.836291 
L 335.098299 278.775008 
L 336.098299 278.726509 
L 337.098299 278.645686 
L 338.098299 278.527167 
L 339.098299 278.456957 
L 340.098299 278.373694 
L 341.098299 278.340552 
L 342.098299 278.289315 
L 343.098299 278.220917 
L 344.098299 278.154701 
L 345.098299 278.077784 
L 346.098299 278.050469 
L 347.098299 278.023991 
L 348.098299 278.001341 
L 349.098299 277.981809 
L 350.098299 277.955415 
L 351.098299 277.905644 
L 352.098299 277.870571 
L 353.682951 277.834706 
" clip-path="url(#p4fea2cdf38)" style="fill: none; stroke: #1f77b4; stroke-opacity: 0.5; stroke-width: 0.2; stroke-linecap: square"/>
   </g>
   <g id="line2d_19">
    <path d="M 290.098299 226.041574 
L 291.098299 226.07301 
L 292.098299 226.109951 
L 293.098299 226.207697 
L 294.098299 226.240219 
L 295.098299 226.313843 
L 296.098299 226.352409 
L 297.098299 226.387822 
L 298.098299 226.445462 
L 299.098299 226.515848 
L 300.098299 226.567812 
L 301.098299 226.626902 
L 302.098299 226.715223 
L 303.098299 226.761367 
L 304.098299 226.803778 
L 305.098299 226.834271 
L 306.098299 226.860316 
L 307.098299 226.881516 
L 308.098299 226.935817 
L 309.098299 226.963755 
L 310.098299 226.993479 
L 311.098299 227.018874 
L 312.098299 227.030074 
L 313.098299 227.040198 
L 314.098299 227.039994 
L 315.098299 227.030484 
L 316.098299 227.01883 
L 317.098299 226.987801 
L 318.098299 226.976633 
L 319.098299 226.946515 
L 320.098299 226.886739 
L 321.098299 226.849547 
L 322.098299 226.810451 
L 323.098299 226.768011 
L 324.098299 226.735246 
L 325.098299 226.66782 
L 326.098299 226.628694 
L 327.098299 226.586019 
L 328.098299 226.515439 
L 329.098299 226.479048 
L 330.098299 226.420645 
L 331.098299 226.309692 
L 332.098299 226.239034 
L 333.098299 226.126094 
L 334.098299 226.080321 
L 335.098299 226.019038 
L 336.098299 225.970538 
L 337.098299 225.889716 
L 338.098299 225.771197 
L 339.098299 225.700986 
L 340.098299 225.617724 
L 341.098299 225.584582 
L 342.098299 225.533345 
L 343.098299 225.464946 
L 344.098299 225.398731 
L 345.098299 225.321814 
L 346.098299 225.294498 
L 347.098299 225.268021 
L 348.098299 225.24537 
L 349.098299 225.225839 
L 350.098299 225.199445 
L 351.098299 225.149674 
L 352.098299 225.114601 
L 353.682951 225.078735 
" clip-path="url(#p4fea2cdf38)" style="fill: none; stroke: #1f77b4; stroke-opacity: 0.5; stroke-width: 0.2; stroke-linecap: square"/>
   </g>
   <g id="line2d_20">
    <path d="M 290.098299 208.575274 
L 291.098299 208.60671 
L 292.098299 208.64365 
L 293.098299 208.741397 
L 294.098299 208.773918 
L 295.098299 208.847543 
L 296.098299 208.886109 
L 297.098299 208.921522 
L 298.098299 208.979162 
L 299.098299 209.049548 
L 300.098299 209.101512 
L 301.098299 209.160602 
L 302.098299 209.248923 
L 303.098299 209.295067 
L 304.098299 209.337478 
L 305.098299 209.367971 
L 306.098299 209.394016 
L 307.098299 209.415216 
L 308.098299 209.469517 
L 309.098299 209.497455 
L 310.098299 209.527179 
L 311.098299 209.552573 
L 312.098299 209.563774 
L 313.098299 209.573898 
L 314.098299 209.573693 
L 315.098299 209.564183 
L 316.098299 209.55253 
L 317.098299 209.521501 
L 318.098299 209.510333 
L 319.098299 209.480215 
L 320.098299 209.420438 
L 321.098299 209.383247 
L 322.098299 209.344151 
L 323.098299 209.301711 
L 324.098299 209.268946 
L 325.098299 209.201519 
L 326.098299 209.162393 
L 327.098299 209.119719 
L 328.098299 209.049138 
L 329.098299 209.012747 
L 330.098299 208.954344 
L 331.098299 208.843392 
L 332.098299 208.772733 
L 333.098299 208.659794 
L 334.098299 208.614021 
L 335.098299 208.552737 
L 336.098299 208.504238 
L 337.098299 208.423415 
L 338.098299 208.304897 
L 339.098299 208.234686 
L 340.098299 208.151423 
L 341.098299 208.118282 
L 342.098299 208.067044 
L 343.098299 207.998646 
L 344.098299 207.932431 
L 345.098299 207.855514 
L 346.098299 207.828198 
L 347.098299 207.801721 
L 348.098299 207.77907 
L 349.098299 207.759539 
L 350.098299 207.733145 
L 351.098299 207.683374 
L 352.098299 207.648301 
L 353.682951 207.612435 
" clip-path="url(#p4fea2cdf38)" style="fill: none; stroke: #1f77b4; stroke-opacity: 0.5; stroke-width: 0.2; stroke-linecap: square"/>
   </g>
   <g id="patch_3">
    <path d="M 69.06392 22.318125 
L 69.06392 318.021875 
M 284.536112 22.318125 
L 284.536112 318.021875 
" clip-path="url(#p4fea2cdf38)" style="fill: none; stroke: #ffffff; stroke-width: 3; stroke-linejoin: miter"/>
    <path d="M 69.06392 22.318125 
L 69.06392 318.021875 
M 284.536112 22.318125 
L 284.536112 318.021875 
" clip-path="url(#p4fea2cdf38)" style="fill: none; stroke: #1f77b4; stroke-linejoin: miter"/>
   </g>
   <g id="FillBetweenPolyCollection_1">
    <path d="M 284.536112 22.318125 
L 69.06392 22.318125 
L 69.06392 318.021875 
L 284.536112 318.021875 
L 284.536112 318.021875 
L 284.536112 22.318125 
z
" clip-path="url(#p4fea2cdf38)" style="fill: #1f77b4; fill-opacity: 0.5"/>
   </g>
   <g id="patch_4">
    <path d="M 359.245138 22.318125 
L 359.245138 318.021875 
M 574.71733 22.318125 
L 574.71733 318.021875 
" clip-path="url(#p4fea2cdf38)" style="fill: none; stroke: #ffffff; stroke-width: 3; stroke-linejoin: miter"/>
    <path d="M 359.245138 22.318125 
L 359.245138 318.021875 
M 574.71733 22.318125 
L 574.71733 318.021875 
" clip-path="url(#p4fea2cdf38)" style="fill: none; stroke: #ff7f0e; stroke-linejoin: miter"/>
   </g>
   <g id="FillBetweenPolyCollection_2">
    <path d="M 574.71733 22.318125 
L 359.245138 22.318125 
L 359.245138 318.021875 
L 574.71733 318.021875 
L 574.71733 318.021875 
L 574.71733 22.318125 
z
" clip-path="url(#p4fea2cdf38)" style="fill: #ff7f0e; fill-opacity: 0.5"/>
   </g>
   <g id="matplotlib.axis_1">
    <g id="xtick_1">
     <g id="line2d_21"/>
     <g id="text_1">
      <!-- deme0 -->
      <g transform="translate(159.42111 329.120312) scale(0.1 -0.1)">
       <defs>
        <path id="DejaVuSans-64" d="M 2906 2969 
L 2906 4863 
L 3481 4863 
L 3481 0 
L 2906 0 
L 2906 525 
Q 2725 213 2448 61 
Q 2172 -91 1784 -91 
Q 1150 -91 751 415 
Q 353 922 353 1747 
Q 353 2572 751 3078 
Q 1150 3584 1784 3584 
Q 2172 3584 2448 3432 
Q 2725 3281 2906 2969 
z
M 947 1747 
Q 947 1113 1208 752 
Q 1469 391 1925 391 
Q 2381 391 2643 752 
Q 2906 1113 2906 1747 
Q 2906 2381 2643 2742 
Q 2381 3103 1925 3103 
Q 1469 3103 1208 2742 
Q 947 2381 947 1747 
z
" transform="scale(0.015625)"/>
        <path id="DejaVuSans-65" d="M 3597 1894 
L 3597 1613 
L 953 1613 
Q 991 1019 1311 708 
Q 1631 397 2203 397 
Q 2534 397 2845 478 
Q 3156 559 3463 722 
L 3463 178 
Q 3153 47 2828 -22 
Q 2503 -91 2169 -91 
Q 1331 -91 842 396 
Q 353 884 353 1716 
Q 353 2575 817 3079 
Q 1281 3584 2069 3584 
Q 2775 3584 3186 3129 
Q 3597 2675 3597 1894 
z
M 3022 2063 
Q 3016 2534 2758 2815 
Q 2500 3097 2075 3097 
Q 1594 3097 1305 2825 
Q 1016 2553 972 2059 
L 3022 2063 
z
" transform="scale(0.015625)"/>
        <path id="DejaVuSans-6d" d="M 3328 2828 
Q 3544 3216 3844 3400 
Q 4144 3584 4550 3584 
Q 5097 3584 5394 3201 
Q 5691 2819 5691 2113 
L 5691 0 
L 5113 0 
L 5113 2094 
Q 5113 2597 4934 2840 
Q 4756 3084 4391 3084 
Q 3944 3084 3684 2787 
Q 3425 2491 3425 1978 
L 3425 0 
L 2847 0 
L 2847 2094 
Q 2847 2600 2669 2842 
Q 2491 3084 2119 3084 
Q 1678 3084 1418 2786 
Q 1159 2488 1159 1978 
L 1159 0 
L 581 0 
L 581 3500 
L 1159 3500 
L 1159 2956 
Q 1356 3278 1631 3431 
Q 1906 3584 2284 3584 
Q 2666 3584 2933 3390 
Q 3200 3197 3328 2828 
z
" transform="scale(0.015625)"/>
        <path id="DejaVuSans-30" d="M 2034 4250 
Q 1547 4250 1301 3770 
Q 1056 3291 1056 2328 
Q 1056 1369 1301 889 
Q 1547 409 2034 409 
Q 2525 409 2770 889 
Q 3016 1369 3016 2328 
Q 3016 3291 2770 3770 
Q 2525 4250 2034 4250 
z
M 2034 4750 
Q 2819 4750 3233 4129 
Q 3647 3509 3647 2328 
Q 3647 1150 3233 529 
Q 2819 -91 2034 -91 
Q 1250 -91 836 529 
Q 422 1150 422 2328 
Q 422 3509 836 4129 
Q 1250 4750 2034 4750 
z
" transform="scale(0.015625)"/>
       </defs>
       <use xlink:href="#DejaVuSans-64"/>
       <use xlink:href="#DejaVuSans-65" transform="translate(63.476562 0)"/>
       <use xlink:href="#DejaVuSans-6d" transform="translate(125 0)"/>
       <use xlink:href="#DejaVuSans-65" transform="translate(222.412109 0)"/>
       <use xlink:href="#DejaVuSans-30" transform="translate(283.935547 0)"/>
      </g>
     </g>
    </g>
    <g id="xtick_2">
     <g id="line2d_22"/>
     <g id="text_2">
      <!-- deme1 -->
      <g transform="translate(449.602328 329.120312) scale(0.1 -0.1)">
       <defs>
        <path id="DejaVuSans-31" d="M 794 531 
L 1825 531 
L 1825 4091 
L 703 3866 
L 703 4441 
L 1819 4666 
L 2450 4666 
L 2450 531 
L 3481 531 
L 3481 0 
L 794 0 
L 794 531 
z
" transform="scale(0.015625)"/>
       </defs>
       <use xlink:href="#DejaVuSans-64"/>
       <use xlink:href="#DejaVuSans-65" transform="translate(63.476562 0)"/>
       <use xlink:href="#DejaVuSans-6d" transform="translate(125 0)"/>
       <use xlink:href="#DejaVuSans-65" transform="translate(222.412109 0)"/>
       <use xlink:href="#DejaVuSans-31" transform="translate(283.935547 0)"/>
      </g>
     </g>
    </g>
   </g>
   <g id="matplotlib.axis_2">
    <g id="ytick_1">
     <g id="line2d_23">
      <defs>
       <path id="mb1913199b0" d="M 0 0 
L -3.5 0 
" style="stroke: #000000; stroke-width: 0.8"/>
      </defs>
      <g>
       <use xlink:href="#mb1913199b0" x="43.78125" y="318.021875" style="stroke: #000000; stroke-width: 0.8"/>
      </g>
     </g>
     <g id="text_3">
      <!-- 0.0 -->
      <g transform="translate(20.878125 321.821094) scale(0.1 -0.1)">
       <defs>
        <path id="DejaVuSans-2e" d="M 684 794 
L 1344 794 
L 1344 0 
L 684 0 
L 684 794 
z
" transform="scale(0.015625)"/>
       </defs>
       <use xlink:href="#DejaVuSans-30"/>
       <use xlink:href="#DejaVuSans-2e" transform="translate(63.623047 0)"/>
       <use xlink:href="#DejaVuSans-30" transform="translate(95.410156 0)"/>
      </g>
     </g>
    </g>
    <g id="ytick_2">
     <g id="line2d_24">
      <g>
       <use xlink:href="#mb1913199b0" x="43.78125" y="258.881125" style="stroke: #000000; stroke-width: 0.8"/>
      </g>
     </g>
     <g id="text_4">
      <!-- 0.5 -->
      <g transform="translate(20.878125 262.680344) scale(0.1 -0.1)">
       <defs>
        <path id="DejaVuSans-35" d="M 691 4666 
L 3169 4666 
L 3169 4134 
L 1269 4134 
L 1269 2991 
Q 1406 3038 1543 3061 
Q 1681 3084 1819 3084 
Q 2600 3084 3056 2656 
Q 3513 2228 3513 1497 
Q 3513 744 3044 326 
Q 2575 -91 1722 -91 
Q 1428 -91 1123 -41 
Q 819 9 494 109 
L 494 744 
Q 775 591 1075 516 
Q 1375 441 1709 441 
Q 2250 441 2565 725 
Q 2881 1009 2881 1497 
Q 2881 1984 2565 2268 
Q 2250 2553 1709 2553 
Q 1456 2553 1204 2497 
Q 953 2441 691 2322 
L 691 4666 
z
" transform="scale(0.015625)"/>
       </defs>
       <use xlink:href="#DejaVuSans-30"/>
       <use xlink:href="#DejaVuSans-2e" transform="translate(63.623047 0)"/>
       <use xlink:href="#DejaVuSans-35" transform="translate(95.410156 0)"/>
      </g>
     </g>
    </g>
    <g id="ytick_3">
     <g id="line2d_25">
      <g>
       <use xlink:href="#mb1913199b0" x="43.78125" y="199.740375" style="stroke: #000000; stroke-width: 0.8"/>
      </g>
     </g>
     <g id="text_5">
      <!-- 1.0 -->
      <g transform="translate(20.878125 203.539594) scale(0.1 -0.1)">
       <use xlink:href="#DejaVuSans-31"/>
       <use xlink:href="#DejaVuSans-2e" transform="translate(63.623047 0)"/>
       <use xlink:href="#DejaVuSans-30" transform="translate(95.410156 0)"/>
      </g>
     </g>
    </g>
    <g id="ytick_4">
     <g id="line2d_26">
      <g>
       <use xlink:href="#mb1913199b0" x="43.78125" y="140.599625" style="stroke: #000000; stroke-width: 0.8"/>
      </g>
     </g>
     <g id="text_6">
      <!-- 1.5 -->
      <g transform="translate(20.878125 144.398844) scale(0.1 -0.1)">
       <use xlink:href="#DejaVuSans-31"/>
       <use xlink:href="#DejaVuSans-2e" transform="translate(63.623047 0)"/>
       <use xlink:href="#DejaVuSans-35" transform="translate(95.410156 0)"/>
      </g>
     </g>
    </g>
    <g id="ytick_5">
     <g id="line2d_27">
      <g>
       <use xlink:href="#mb1913199b0" x="43.78125" y="81.458875" style="stroke: #000000; stroke-width: 0.8"/>
      </g>
     </g>
     <g id="text_7">
      <!-- 2.0 -->
      <g transform="translate(20.878125 85.258094) scale(0.1 -0.1)">
       <defs>
        <path id="DejaVuSans-32" d="M 1228 531 
L 3431 531 
L 3431 0 
L 469 0 
L 469 531 
Q 828 903 1448 1529 
Q 2069 2156 2228 2338 
Q 2531 2678 2651 2914 
Q 2772 3150 2772 3378 
Q 2772 3750 2511 3984 
Q 2250 4219 1831 4219 
Q 1534 4219 1204 4116 
Q 875 4013 500 3803 
L 500 4441 
Q 881 4594 1212 4672 
Q 1544 4750 1819 4750 
Q 2544 4750 2975 4387 
Q 3406 4025 3406 3419 
Q 3406 3131 3298 2873 
Q 3191 2616 2906 2266 
Q 2828 2175 2409 1742 
Q 1991 1309 1228 531 
z
" transform="scale(0.015625)"/>
       </defs>
       <use xlink:href="#DejaVuSans-32"/>
       <use xlink:href="#DejaVuSans-2e" transform="translate(63.623047 0)"/>
       <use xlink:href="#DejaVuSans-30" transform="translate(95.410156 0)"/>
      </g>
     </g>
    </g>
    <g id="ytick_6">
     <g id="line2d_28">
      <g>
       <use xlink:href="#mb1913199b0" x="43.78125" y="22.318125" style="stroke: #000000; stroke-width: 0.8"/>
      </g>
     </g>
     <g id="text_8">
      <!-- 2.5 -->
      <g transform="translate(20.878125 26.117344) scale(0.1 -0.1)">
       <use xlink:href="#DejaVuSans-32"/>
       <use xlink:href="#DejaVuSans-2e" transform="translate(63.623047 0)"/>
       <use xlink:href="#DejaVuSans-35" transform="translate(95.410156 0)"/>
      </g>
     </g>
    </g>
    <g id="text_9">
     <!-- time ago (generations) -->
     <g transform="translate(14.798438 227.641094) rotate(-90) scale(0.1 -0.1)">
      <defs>
       <path id="DejaVuSans-74" d="M 1172 4494 
L 1172 3500 
L 2356 3500 
L 2356 3053 
L 1172 3053 
L 1172 1153 
Q 1172 725 1289 603 
Q 1406 481 1766 481 
L 2356 481 
L 2356 0 
L 1766 0 
Q 1100 0 847 248 
Q 594 497 594 1153 
L 594 3053 
L 172 3053 
L 172 3500 
L 594 3500 
L 594 4494 
L 1172 4494 
z
" transform="scale(0.015625)"/>
       <path id="DejaVuSans-69" d="M 603 3500 
L 1178 3500 
L 1178 0 
L 603 0 
L 603 3500 
z
M 603 4863 
L 1178 4863 
L 1178 4134 
L 603 4134 
L 603 4863 
z
" transform="scale(0.015625)"/>
       <path id="DejaVuSans-20" transform="scale(0.015625)"/>
       <path id="DejaVuSans-61" d="M 2194 1759 
Q 1497 1759 1228 1600 
Q 959 1441 959 1056 
Q 959 750 1161 570 
Q 1363 391 1709 391 
Q 2188 391 2477 730 
Q 2766 1069 2766 1631 
L 2766 1759 
L 2194 1759 
z
M 3341 1997 
L 3341 0 
L 2766 0 
L 2766 531 
Q 2569 213 2275 61 
Q 1981 -91 1556 -91 
Q 1019 -91 701 211 
Q 384 513 384 1019 
Q 384 1609 779 1909 
Q 1175 2209 1959 2209 
L 2766 2209 
L 2766 2266 
Q 2766 2663 2505 2880 
Q 2244 3097 1772 3097 
Q 1472 3097 1187 3025 
Q 903 2953 641 2809 
L 641 3341 
Q 956 3463 1253 3523 
Q 1550 3584 1831 3584 
Q 2591 3584 2966 3190 
Q 3341 2797 3341 1997 
z
" transform="scale(0.015625)"/>
       <path id="DejaVuSans-67" d="M 2906 1791 
Q 2906 2416 2648 2759 
Q 2391 3103 1925 3103 
Q 1463 3103 1205 2759 
Q 947 2416 947 1791 
Q 947 1169 1205 825 
Q 1463 481 1925 481 
Q 2391 481 2648 825 
Q 2906 1169 2906 1791 
z
M 3481 434 
Q 3481 -459 3084 -895 
Q 2688 -1331 1869 -1331 
Q 1566 -1331 1297 -1286 
Q 1028 -1241 775 -1147 
L 775 -588 
Q 1028 -725 1275 -790 
Q 1522 -856 1778 -856 
Q 2344 -856 2625 -561 
Q 2906 -266 2906 331 
L 2906 616 
Q 2728 306 2450 153 
Q 2172 0 1784 0 
Q 1141 0 747 490 
Q 353 981 353 1791 
Q 353 2603 747 3093 
Q 1141 3584 1784 3584 
Q 2172 3584 2450 3431 
Q 2728 3278 2906 2969 
L 2906 3500 
L 3481 3500 
L 3481 434 
z
" transform="scale(0.015625)"/>
       <path id="DejaVuSans-6f" d="M 1959 3097 
Q 1497 3097 1228 2736 
Q 959 2375 959 1747 
Q 959 1119 1226 758 
Q 1494 397 1959 397 
Q 2419 397 2687 759 
Q 2956 1122 2956 1747 
Q 2956 2369 2687 2733 
Q 2419 3097 1959 3097 
z
M 1959 3584 
Q 2709 3584 3137 3096 
Q 3566 2609 3566 1747 
Q 3566 888 3137 398 
Q 2709 -91 1959 -91 
Q 1206 -91 779 398 
Q 353 888 353 1747 
Q 353 2609 779 3096 
Q 1206 3584 1959 3584 
z
" transform="scale(0.015625)"/>
       <path id="DejaVuSans-28" d="M 1984 4856 
Q 1566 4138 1362 3434 
Q 1159 2731 1159 2009 
Q 1159 1288 1364 580 
Q 1569 -128 1984 -844 
L 1484 -844 
Q 1016 -109 783 600 
Q 550 1309 550 2009 
Q 550 2706 781 3412 
Q 1013 4119 1484 4856 
L 1984 4856 
z
" transform="scale(0.015625)"/>
       <path id="DejaVuSans-6e" d="M 3513 2113 
L 3513 0 
L 2938 0 
L 2938 2094 
Q 2938 2591 2744 2837 
Q 2550 3084 2163 3084 
Q 1697 3084 1428 2787 
Q 1159 2491 1159 1978 
L 1159 0 
L 581 0 
L 581 3500 
L 1159 3500 
L 1159 2956 
Q 1366 3272 1645 3428 
Q 1925 3584 2291 3584 
Q 2894 3584 3203 3211 
Q 3513 2838 3513 2113 
z
" transform="scale(0.015625)"/>
       <path id="DejaVuSans-72" d="M 2631 2963 
Q 2534 3019 2420 3045 
Q 2306 3072 2169 3072 
Q 1681 3072 1420 2755 
Q 1159 2438 1159 1844 
L 1159 0 
L 581 0 
L 581 3500 
L 1159 3500 
L 1159 2956 
Q 1341 3275 1631 3429 
Q 1922 3584 2338 3584 
Q 2397 3584 2469 3576 
Q 2541 3569 2628 3553 
L 2631 2963 
z
" transform="scale(0.015625)"/>
       <path id="DejaVuSans-73" d="M 2834 3397 
L 2834 2853 
Q 2591 2978 2328 3040 
Q 2066 3103 1784 3103 
Q 1356 3103 1142 2972 
Q 928 2841 928 2578 
Q 928 2378 1081 2264 
Q 1234 2150 1697 2047 
L 1894 2003 
Q 2506 1872 2764 1633 
Q 3022 1394 3022 966 
Q 3022 478 2636 193 
Q 2250 -91 1575 -91 
Q 1294 -91 989 -36 
Q 684 19 347 128 
L 347 722 
Q 666 556 975 473 
Q 1284 391 1588 391 
Q 1994 391 2212 530 
Q 2431 669 2431 922 
Q 2431 1156 2273 1281 
Q 2116 1406 1581 1522 
L 1381 1569 
Q 847 1681 609 1914 
Q 372 2147 372 2553 
Q 372 3047 722 3315 
Q 1072 3584 1716 3584 
Q 2034 3584 2315 3537 
Q 2597 3491 2834 3397 
z
" transform="scale(0.015625)"/>
       <path id="DejaVuSans-29" d="M 513 4856 
L 1013 4856 
Q 1481 4119 1714 3412 
Q 1947 2706 1947 2009 
Q 1947 1309 1714 600 
Q 1481 -109 1013 -844 
L 513 -844 
Q 928 -128 1133 580 
Q 1338 1288 1338 2009 
Q 1338 2731 1133 3434 
Q 928 4138 513 4856 
z
" transform="scale(0.015625)"/>
      </defs>
      <use xlink:href="#DejaVuSans-74"/>
      <use xlink:href="#DejaVuSans-69" transform="translate(39.208984 0)"/>
      <use xlink:href="#DejaVuSans-6d" transform="translate(66.992188 0)"/>
      <use xlink:href="#DejaVuSans-65" transform="translate(164.404297 0)"/>
      <use xlink:href="#DejaVuSans-20" transform="translate(225.927734 0)"/>
      <use xlink:href="#DejaVuSans-61" transform="translate(257.714844 0)"/>
      <use xlink:href="#DejaVuSans-67" transform="translate(318.994141 0)"/>
      <use xlink:href="#DejaVuSans-6f" transform="translate(382.470703 0)"/>
      <use xlink:href="#DejaVuSans-20" transform="translate(443.652344 0)"/>
      <use xlink:href="#DejaVuSans-28" transform="translate(475.439453 0)"/>
      <use xlink:href="#DejaVuSans-67" transform="translate(514.453125 0)"/>
      <use xlink:href="#DejaVuSans-65" transform="translate(577.929688 0)"/>
      <use xlink:href="#DejaVuSans-6e" transform="translate(639.453125 0)"/>
      <use xlink:href="#DejaVuSans-65" transform="translate(702.832031 0)"/>
      <use xlink:href="#DejaVuSans-72" transform="translate(764.355469 0)"/>
      <use xlink:href="#DejaVuSans-61" transform="translate(805.46875 0)"/>
      <use xlink:href="#DejaVuSans-74" transform="translate(866.748047 0)"/>
      <use xlink:href="#DejaVuSans-69" transform="translate(905.957031 0)"/>
      <use xlink:href="#DejaVuSans-6f" transform="translate(933.740234 0)"/>
      <use xlink:href="#DejaVuSans-6e" transform="translate(994.921875 0)"/>
      <use xlink:href="#DejaVuSans-73" transform="translate(1058.300781 0)"/>
      <use xlink:href="#DejaVuSans-29" transform="translate(1110.400391 0)"/>
     </g>
    </g>
   </g>
   <g id="line2d_29">
    <path d="M 354.682951 151.502962 
L 352.682951 150.502962 
L 352.682951 152.502962 
z
" clip-path="url(#p4fea2cdf38)" style="fill: #1f77b4; fill-opacity: 0.5; stroke: #1f77b4; stroke-opacity: 0.5; stroke-linejoin: miter"/>
   </g>
   <g id="line2d_30">
    <path d="M 354.682951 95.870742 
L 352.682951 94.870742 
L 352.682951 96.870742 
z
" clip-path="url(#p4fea2cdf38)" style="fill: #1f77b4; fill-opacity: 0.5; stroke: #1f77b4; stroke-opacity: 0.5; stroke-linejoin: miter"/>
   </g>
   <g id="line2d_31">
    <path d="M 354.682951 96.082955 
L 352.682951 95.082955 
L 352.682951 97.082955 
z
" clip-path="url(#p4fea2cdf38)" style="fill: #1f77b4; fill-opacity: 0.5; stroke: #1f77b4; stroke-opacity: 0.5; stroke-linejoin: miter"/>
   </g>
   <g id="line2d_32">
    <path d="M 354.682951 188.015175 
L 352.682951 187.015175 
L 352.682951 189.015175 
z
" clip-path="url(#p4fea2cdf38)" style="fill: #1f77b4; fill-opacity: 0.5; stroke: #1f77b4; stroke-opacity: 0.5; stroke-linejoin: miter"/>
   </g>
   <g id="line2d_33">
    <path d="M 354.682951 187.482857 
L 352.682951 186.482857 
L 352.682951 188.482857 
z
" clip-path="url(#p4fea2cdf38)" style="fill: #1f77b4; fill-opacity: 0.5; stroke: #1f77b4; stroke-opacity: 0.5; stroke-linejoin: miter"/>
   </g>
   <g id="line2d_34">
    <path d="M 354.682951 129.063408 
L 352.682951 128.063408 
L 352.682951 130.063408 
z
" clip-path="url(#p4fea2cdf38)" style="fill: #1f77b4; fill-opacity: 0.5; stroke: #1f77b4; stroke-opacity: 0.5; stroke-linejoin: miter"/>
   </g>
   <g id="line2d_35">
    <path d="M 354.682951 106.684648 
L 352.682951 105.684648 
L 352.682951 107.684648 
z
" clip-path="url(#p4fea2cdf38)" style="fill: #1f77b4; fill-opacity: 0.5; stroke: #1f77b4; stroke-opacity: 0.5; stroke-linejoin: miter"/>
   </g>
   <g id="line2d_36">
    <path d="M 354.682951 128.251476 
L 352.682951 127.251476 
L 352.682951 129.251476 
z
" clip-path="url(#p4fea2cdf38)" style="fill: #1f77b4; fill-opacity: 0.5; stroke: #1f77b4; stroke-opacity: 0.5; stroke-linejoin: miter"/>
   </g>
   <g id="line2d_37">
    <path d="M 354.682951 169.979906 
L 352.682951 168.979906 
L 352.682951 170.979906 
z
" clip-path="url(#p4fea2cdf38)" style="fill: #1f77b4; fill-opacity: 0.5; stroke: #1f77b4; stroke-opacity: 0.5; stroke-linejoin: miter"/>
   </g>
   <g id="line2d_38">
    <path d="M 354.682951 171.173608 
L 352.682951 170.173608 
L 352.682951 172.173608 
z
" clip-path="url(#p4fea2cdf38)" style="fill: #1f77b4; fill-opacity: 0.5; stroke: #1f77b4; stroke-opacity: 0.5; stroke-linejoin: miter"/>
   </g>
   <g id="line2d_39">
    <path d="M 354.682951 200.950277 
L 352.682951 199.950277 
L 352.682951 201.950277 
z
" clip-path="url(#p4fea2cdf38)" style="fill: #1f77b4; fill-opacity: 0.5; stroke: #1f77b4; stroke-opacity: 0.5; stroke-linejoin: miter"/>
   </g>
   <g id="line2d_40">
    <path d="M 354.682951 290.102863 
L 352.682951 289.102863 
L 352.682951 291.102863 
z
" clip-path="url(#p4fea2cdf38)" style="fill: #1f77b4; fill-opacity: 0.5; stroke: #1f77b4; stroke-opacity: 0.5; stroke-linejoin: miter"/>
   </g>
   <g id="line2d_41">
    <path d="M 354.682951 247.925897 
L 352.682951 246.925897 
L 352.682951 248.925897 
z
" clip-path="url(#p4fea2cdf38)" style="fill: #1f77b4; fill-opacity: 0.5; stroke: #1f77b4; stroke-opacity: 0.5; stroke-linejoin: miter"/>
   </g>
   <g id="line2d_42">
    <path d="M 354.682951 241.319474 
L 352.682951 240.319474 
L 352.682951 242.319474 
z
" clip-path="url(#p4fea2cdf38)" style="fill: #1f77b4; fill-opacity: 0.5; stroke: #1f77b4; stroke-opacity: 0.5; stroke-linejoin: miter"/>
   </g>
   <g id="line2d_43">
    <path d="M 354.682951 217.502273 
L 352.682951 216.502273 
L 352.682951 218.502273 
z
" clip-path="url(#p4fea2cdf38)" style="fill: #1f77b4; fill-opacity: 0.5; stroke: #1f77b4; stroke-opacity: 0.5; stroke-linejoin: miter"/>
   </g>
   <g id="line2d_44">
    <path d="M 354.682951 211.655543 
L 352.682951 210.655543 
L 352.682951 212.655543 
z
" clip-path="url(#p4fea2cdf38)" style="fill: #1f77b4; fill-opacity: 0.5; stroke: #1f77b4; stroke-opacity: 0.5; stroke-linejoin: miter"/>
   </g>
   <g id="line2d_45">
    <path d="M 354.682951 265.695125 
L 352.682951 264.695125 
L 352.682951 266.695125 
z
" clip-path="url(#p4fea2cdf38)" style="fill: #1f77b4; fill-opacity: 0.5; stroke: #1f77b4; stroke-opacity: 0.5; stroke-linejoin: miter"/>
   </g>
   <g id="line2d_46">
    <path d="M 354.682951 278.797544 
L 352.682951 277.797544 
L 352.682951 279.797544 
z
" clip-path="url(#p4fea2cdf38)" style="fill: #1f77b4; fill-opacity: 0.5; stroke: #1f77b4; stroke-opacity: 0.5; stroke-linejoin: miter"/>
   </g>
   <g id="line2d_47">
    <path d="M 354.682951 226.041574 
L 352.682951 225.041574 
L 352.682951 227.041574 
z
" clip-path="url(#p4fea2cdf38)" style="fill: #1f77b4; fill-opacity: 0.5; stroke: #1f77b4; stroke-opacity: 0.5; stroke-linejoin: miter"/>
   </g>
   <g id="line2d_48">
    <path d="M 354.682951 208.575274 
L 352.682951 207.575274 
L 352.682951 209.575274 
z
" clip-path="url(#p4fea2cdf38)" style="fill: #1f77b4; fill-opacity: 0.5; stroke: #1f77b4; stroke-opacity: 0.5; stroke-linejoin: miter"/>
   </g>
   <g id="patch_5">
    <path d="M 43.78125 318.021875 
L 43.78125 22.318125 
" style="fill: none; stroke: #000000; stroke-width: 0.8; stroke-linejoin: miter; stroke-linecap: square"/>
   </g>
   <g id="text_10">
    <!-- defaults_asymmetric_migration_changing_rate.yaml -->
    <g transform="translate(164.675625 16.318125) scale(0.12 -0.12)">
     <defs>
      <path id="DejaVuSans-66" d="M 2375 4863 
L 2375 4384 
L 1825 4384 
Q 1516 4384 1395 4259 
Q 1275 4134 1275 3809 
L 1275 3500 
L 2222 3500 
L 2222 3053 
L 1275 3053 
L 1275 0 
L 697 0 
L 697 3053 
L 147 3053 
L 147 3500 
L 697 3500 
L 697 3744 
Q 697 4328 969 4595 
Q 1241 4863 1831 4863 
L 2375 4863 
z
" transform="scale(0.015625)"/>
      <path id="DejaVuSans-75" d="M 544 1381 
L 544 3500 
L 1119 3500 
L 1119 1403 
Q 1119 906 1312 657 
Q 1506 409 1894 409 
Q 2359 409 2629 706 
Q 2900 1003 2900 1516 
L 2900 3500 
L 3475 3500 
L 3475 0 
L 2900 0 
L 2900 538 
Q 2691 219 2414 64 
Q 2138 -91 1772 -91 
Q 1169 -91 856 284 
Q 544 659 544 1381 
z
M 1991 3584 
L 1991 3584 
z
" transform="scale(0.015625)"/>
      <path id="DejaVuSans-6c" d="M 603 4863 
L 1178 4863 
L 1178 0 
L 603 0 
L 603 4863 
z
" transform="scale(0.015625)"/>
      <path id="DejaVuSans-5f" d="M 3263 -1063 
L 3263 -1509 
L -63 -1509 
L -63 -1063 
L 3263 -1063 
z
" transform="scale(0.015625)"/>
      <path id="DejaVuSans-79" d="M 2059 -325 
Q 1816 -950 1584 -1140 
Q 1353 -1331 966 -1331 
L 506 -1331 
L 506 -850 
L 844 -850 
Q 1081 -850 1212 -737 
Q 1344 -625 1503 -206 
L 1606 56 
L 191 3500 
L 800 3500 
L 1894 763 
L 2988 3500 
L 3597 3500 
L 2059 -325 
z
" transform="scale(0.015625)"/>
      <path id="DejaVuSans-63" d="M 3122 3366 
L 3122 2828 
Q 2878 2963 2633 3030 
Q 2388 3097 2138 3097 
Q 1578 3097 1268 2742 
Q 959 2388 959 1747 
Q 959 1106 1268 751 
Q 1578 397 2138 397 
Q 2388 397 2633 464 
Q 2878 531 3122 666 
L 3122 134 
Q 2881 22 2623 -34 
Q 2366 -91 2075 -91 
Q 1284 -91 818 406 
Q 353 903 353 1747 
Q 353 2603 823 3093 
Q 1294 3584 2113 3584 
Q 2378 3584 2631 3529 
Q 2884 3475 3122 3366 
z
" transform="scale(0.015625)"/>
      <path id="DejaVuSans-68" d="M 3513 2113 
L 3513 0 
L 2938 0 
L 2938 2094 
Q 2938 2591 2744 2837 
Q 2550 3084 2163 3084 
Q 1697 3084 1428 2787 
Q 1159 2491 1159 1978 
L 1159 0 
L 581 0 
L 581 4863 
L 1159 4863 
L 1159 2956 
Q 1366 3272 1645 3428 
Q 1925 3584 2291 3584 
Q 2894 3584 3203 3211 
Q 3513 2838 3513 2113 
z
" transform="scale(0.015625)"/>
     </defs>
     <use xlink:href="#DejaVuSans-64"/>
     <use xlink:href="#DejaVuSans-65" transform="translate(63.476562 0)"/>
     <use xlink:href="#DejaVuSans-66" transform="translate(125 0)"/>
     <use xlink:href="#DejaVuSans-61" transform="translate(160.205078 0)"/>
     <use xlink:href="#DejaVuSans-75" transform="translate(221.484375 0)"/>
     <use xlink:href="#DejaVuSans-6c" transform="translate(284.863281 0)"/>
     <use xlink:href="#DejaVuSans-74" transform="translate(312.646484 0)"/>
     <use xlink:href="#DejaVuSans-73" transform="translate(351.855469 0)"/>
     <use xlink:href="#DejaVuSans-5f" transform="translate(403.955078 0)"/>
     <use xlink:href="#DejaVuSans-61" transform="translate(453.955078 0)"/>
     <use xlink:href="#DejaVuSans-73" transform="translate(515.234375 0)"/>
     <use xlink:href="#DejaVuSans-79" transform="translate(567.333984 0)"/>
     <use xlink:href="#DejaVuSans-6d" transform="translate(626.513672 0)"/>
     <use xlink:href="#DejaVuSans-6d" transform="translate(723.925781 0)"/>
     <use xlink:href="#DejaVuSans-65" transform="translate(821.337891 0)"/>
     <use xlink:href="#DejaVuSans-74" transform="translate(882.861328 0)"/>
     <use xlink:href="#DejaVuSans-72" transform="translate(922.070312 0)"/>
     <use xlink:href="#DejaVuSans-69" transform="translate(963.183594 0)"/>
     <use xlink:href="#DejaVuSans-63" transform="translate(990.966797 0)"/>
     <use xlink:href="#DejaVuSans-5f" transform="translate(1045.947266 0)"/>
     <use xlink:href="#DejaVuSans-6d" transform="translate(1095.947266 0)"/>
     <use xlink:href="#DejaVuSans-69" transform="translate(1193.359375 0)"/>
     <use xlink:href="#DejaVuSans-67" transform="translate(1221.142578 0)"/>
     <use xlink:href="#DejaVuSans-72" transform="translate(1284.619141 0)"/>
     <use xlink:href="#DejaVuSans-61" transform="translate(1325.732422 0)"/>
     <use xlink:href="#DejaVuSans-74" transform="translate(1387.011719 0)"/>
     <use xlink:href="#DejaVuSans-69" transform="translate(1426.220703 0)"/>
     <use xlink:href="#DejaVuSans-6f" transform="translate(1454.003906 0)"/>
     <use xlink:href="#DejaVuSans-6e" transform="translate(1515.185547 0)"/>
     <use xlink:href="#DejaVuSans-5f" transform="translate(1578.564453 0)"/>
     <use xlink:href="#DejaVuSans-63" transform="translate(1628.564453 0)"/>
     <use xlink:href="#DejaVuSans-68" transform="translate(1683.544922 0)"/>
     <use xlink:href="#DejaVuSans-61" transform="translate(1746.923828 0)"/>
     <use xlink:href="#DejaVuSans-6e" transform="translate(1808.203125 0)"/>
     <use xlink:href="#DejaVuSans-67" transform="translate(1871.582031 0)"/>
     <use xlink:href="#DejaVuSans-69" transform="translate(1935.058594 0)"/>
     <use xlink:href="#DejaVuSans-6e" transform="translate(1962.841797 0)"/>
     <use xlink:href="#DejaVuSans-67" transform="translate(2026.220703 0)"/>
     <use xlink:href="#DejaVuSans-5f" transform="translate(2089.697266 0)"/>
     <use xlink:href="#DejaVuSans-72" transform="translate(2139.697266 0)"/>
     <use xlink:href="#DejaVuSans-61" transform="translate(2180.810547 0)"/>
     <use xlink:href="#DejaVuSans-74" transform="translate(2242.089844 0)"/>
     <use xlink:href="#DejaVuSans-65" transform="translate(2281.298828 0)"/>
     <use xlink:href="#DejaVuSans-2e" transform="translate(2342.822266 0)"/>
     <use xlink:href="#DejaVuSans-79" transform="translate(2374.609375 0)"/>
     <use xlink:href="#DejaVuSans-61" transform="translate(2433.789062 0)"/>
     <use xlink:href="#DejaVuSans-6d" transform="translate(2495.068359 0)"/>
     <use xlink:href="#DejaVuSans-6c" transform="translate(2592.480469 0)"/>
    </g>
   </g>
  </g>
 </g>
 <defs>
  <clipPath id="p4fea2cdf38">
   <rect x="43.78125" y="22.318125" width="556.21875" height="295.70375"/>
  </clipPath>
 </defs>
</svg>