<?xml version="1.0" encoding="utf-8" standalone="no"?>
<!DOCTYPE svg PUBLIC "-//W3C//DTD SVG 1.1//EN"
  "http://www.w3.org/Graphics/SVG/1.1/DTD/svg11.dtd">
<svg xmlns:xlink="http://www.w3.org/1999/xlink" width="607.2pt" height="338.4pt" viewBox="0 0 607.2 338.4" xmlns="http://www.w3.org/2000/svg" version="1.1">
 <metadata>
  <rdf:RDF xmlns:dc="http://purl.org/dc/elements/1.1/" xmlns:cc="http://creativecommons.org/ns#" xmlns:rdf="http://www.w3.org/1999/02/22-rdf-syntax-ns#">
   <cc:Work>
    <dc:type rdf:resource="http://purl.org/dc/dcmitype/StillImage"/>
    <dc:date>2023-10-16T08:34:08.218412</dc:date>
    <dc:format>image/svg+xml</dc:format>
    <dc:creator>
     <cc:Agent>
      <dc:title>Matplotlib v3.7.2, https://matplotlib.org/</dc:title>
     </cc:Agent>
    </dc:creator>
   </cc:Work>
  </rdf:RDF>
 </metadata>
 <defs>
  <style type="text/css">*{stroke-linejoin: round; stroke-linecap: butt}</style>
 </defs>
 <g id="figure_1">
  <g id="patch_1">
   <path d="M 0 338.4 
L 607.2 338.4 
L 607.2 0 
L 0 0 
z
" style="fill: #ffffff"/>
  </g>
  <g id="axes_1">
   <g id="patch_2">
    <path d="M 43.78125 318.021875 
L 600 318.021875 
L 600 22.318125 
L 43.78125 22.318125 
z
" style="fill: #ffffff"/>
   </g>
   <path d="M 197.982246 88.388974 
L 198.982246 88.42041 
L 199.982246 88.457351 
L 200.982246 88.555097 
L 201.982246 88.587619 
L 202.982246 88.661243 
L 203.982246 88.699809 
L 204.982246 88.735222 
L 205.982246 88.792862 
L 206.982246 88.863248 
L 207.982246 88.915213 
L 208.982246 88.974302 
L 209.982246 89.062623 
L 210.982246 89.108768 
L 211.982246 89.151178 
L 212.982246 89.181671 
L 213.982246 89.207716 
L 214.982246 89.228916 
L 215.982246 89.283217 
L 216.982246 89.311155 
L 217.982246 89.340879 
L 218.982246 89.366274 
L 219.982246 89.377474 
L 220.982246 89.387598 
L 221.982246 89.387394 
L 222.982246 89.377884 
L 223.982246 89.36623 
L 224.982246 89.335201 
L 225.982246 89.324033 
L 226.982246 89.293915 
L 227.982246 89.234139 
L 228.982246 89.196947 
L 229.982246 89.157851 
L 230.982246 89.115411 
L 231.982246 89.082646 
L 232.982246 89.01522 
L 233.982246 88.976094 
L 234.982246 88.933419 
L 235.982246 88.862839 
L 236.982246 88.826448 
L 237.982246 88.768045 
L 238.982246 88.657092 
L 239.982246 88.586434 
L 240.982246 88.473494 
L 241.982246 88.427721 
L 242.982246 88.366438 
L 243.982246 88.317938 
L 244.982246 88.237116 
L 245.982246 88.118597 
L 246.982246 88.048386 
L 247.982246 87.965124 
L 248.982246 87.931982 
L 249.982246 87.880745 
L 250.982246 87.812346 
L 251.982246 87.746131 
L 252.982246 87.669214 
L 254.650369 87.641898 
" clip-path="url(#p3ed54d6fbe)" style="fill: none; stroke: #1f77b4; stroke-opacity: 0.5; stroke-width: 0.2; stroke-linecap: square"/>
   <path d="M 197.982246 108.356879 
L 198.982246 108.388316 
L 199.982246 108.425256 
L 200.982246 108.523002 
L 201.982246 108.555524 
L 202.982246 108.629149 
L 203.982246 108.667714 
L 204.982246 108.703127 
L 205.982246 108.760767 
L 206.982246 108.831154 
L 207.982246 108.883118 
L 208.982246 108.942208 
L 209.982246 109.030529 
L 210.982246 109.076673 
L 211.982246 109.119084 
L 212.982246 109.149576 
L 213.982246 109.175621 
L 214.982246 109.196821 
L 215.982246 109.251123 
L 216.982246 109.27906 
L 217.982246 109.308784 
L 218.982246 109.334179 
L 219.982246 109.345379 
L 220.982246 109.355503 
L 221.982246 109.355299 
L 222.982246 109.345789 
L 223.982246 109.334135 
L 224.982246 109.303106 
L 225.982246 109.291938 
L 226.982246 109.261821 
L 227.982246 109.202044 
L 228.982246 109.164852 
L 229.982246 109.125756 
L 230.982246 109.083317 
L 231.982246 109.050551 
L 232.982246 108.983125 
L 233.982246 108.943999 
L 234.982246 108.901325 
L 235.982246 108.830744 
L 236.982246 108.794353 
L 237.982246 108.73595 
L 238.982246 108.624997 
L 239.982246 108.554339 
L 240.982246 108.441399 
L 241.982246 108.395626 
L 242.982246 108.334343 
L 243.982246 108.285844 
L 244.982246 108.205021 
L 245.982246 108.086502 
L 246.982246 108.016291 
L 247.982246 107.933029 
L 248.982246 107.899887 
L 249.982246 107.84865 
L 250.982246 107.780252 
L 251.982246 107.714036 
L 252.982246 107.637119 
L 254.650369 107.609804 
" clip-path="url(#p3ed54d6fbe)" style="fill: none; stroke: #1f77b4; stroke-opacity: 0.5; stroke-width: 0.2; stroke-linecap: square"/>
   <path d="M 197.982246 171.008894 
L 198.982246 171.040331 
L 199.982246 171.077271 
L 200.982246 171.175018 
L 201.982246 171.207539 
L 202.982246 171.281164 
L 203.982246 171.319729 
L 204.982246 171.355143 
L 205.982246 171.412782 
L 206.982246 171.483169 
L 207.982246 171.535133 
L 208.982246 171.594223 
L 209.982246 171.682544 
L 210.982246 171.728688 
L 211.982246 171.771099 
L 212.982246 171.801592 
L 213.982246 171.827636 
L 214.982246 171.848837 
L 215.982246 171.903138 
L 216.982246 171.931075 
L 217.982246 171.960799 
L 218.982246 171.986194 
L 219.982246 171.997394 
L 220.982246 172.007518 
L 221.982246 172.007314 
L 222.982246 171.997804 
L 223.982246 171.986151 
L 224.982246 171.955121 
L 225.982246 171.943953 
L 226.982246 171.913836 
L 227.982246 171.854059 
L 228.982246 171.816867 
L 229.982246 171.777771 
L 230.982246 171.735332 
L 231.982246 171.702567 
L 232.982246 171.63514 
L 233.982246 171.596014 
L 234.982246 171.55334 
L 235.982246 171.482759 
L 236.982246 171.446368 
L 237.982246 171.387965 
L 238.982246 171.277012 
L 239.982246 171.206354 
L 240.982246 171.093414 
L 241.982246 171.047641 
L 242.982246 170.986358 
L 243.982246 170.937859 
L 244.982246 170.857036 
L 245.982246 170.738517 
L 246.982246 170.668307 
L 247.982246 170.585044 
L 248.982246 170.551902 
L 249.982246 170.500665 
L 250.982246 170.432267 
L 251.982246 170.366051 
L 252.982246 170.289134 
L 254.650369 170.261819 
" clip-path="url(#p3ed54d6fbe)" style="fill: none; stroke: #1f77b4; stroke-opacity: 0.5; stroke-width: 0.2; stroke-linecap: square"/>
   <path d="M 197.982246 181.720476 
L 198.982246 181.751912 
L 199.982246 181.788852 
L 200.982246 181.886599 
L 201.982246 181.91912 
L 202.982246 181.992745 
L 203.982246 182.031311 
L 204.982246 182.066724 
L 205.982246 182.124364 
L 206.982246 182.19475 
L 207.982246 182.246714 
L 208.982246 182.305804 
L 209.982246 182.394125 
L 210.982246 182.440269 
L 211.982246 182.48268 
L 212.982246 182.513173 
L 213.982246 182.539218 
L 214.982246 182.560418 
L 215.982246 182.614719 
L 216.982246 182.642657 
L 217.982246 182.672381 
L 218.982246 182.697775 
L 219.982246 182.708976 
L 220.982246 182.7191 
L 221.982246 182.718895 
L 222.982246 182.709386 
L 223.982246 182.697732 
L 224.982246 182.666703 
L 225.982246 182.655535 
L 226.982246 182.625417 
L 227.982246 182.56564 
L 228.982246 182.528449 
L 229.982246 182.489353 
L 230.982246 182.446913 
L 231.982246 182.414148 
L 232.982246 182.346721 
L 233.982246 182.307596 
L 234.982246 182.264921 
L 235.982246 182.19434 
L 236.982246 182.15795 
L 237.982246 182.099546 
L 238.982246 181.988594 
L 239.982246 181.917935 
L 240.982246 181.804996 
L 241.982246 181.759223 
L 242.982246 181.69794 
L 243.982246 181.64944 
L 244.982246 181.568618 
L 245.982246 181.450099 
L 246.982246 181.379888 
L 247.982246 181.296625 
L 248.982246 181.263484 
L 249.982246 181.212246 
L 250.982246 181.143848 
L 251.982246 181.077633 
L 252.982246 181.000716 
L 254.650369 180.9734 
" clip-path="url(#p3ed54d6fbe)" style="fill: none; stroke: #1f77b4; stroke-opacity: 0.5; stroke-width: 0.2; stroke-linecap: square"/>
   <path d="M 197.982246 172.843488 
L 198.982246 172.874925 
L 199.982246 172.911865 
L 200.982246 173.009611 
L 201.982246 173.042133 
L 202.982246 173.115758 
L 203.982246 173.154323 
L 204.982246 173.189737 
L 205.982246 173.247376 
L 206.982246 173.317763 
L 207.982246 173.369727 
L 208.982246 173.428817 
L 209.982246 173.517138 
L 210.982246 173.563282 
L 211.982246 173.605693 
L 212.982246 173.636186 
L 213.982246 173.66223 
L 214.982246 173.683431 
L 215.982246 173.737732 
L 216.982246 173.765669 
L 217.982246 173.795393 
L 218.982246 173.820788 
L 219.982246 173.831988 
L 220.982246 173.842112 
L 221.982246 173.841908 
L 222.982246 173.832398 
L 223.982246 173.820745 
L 224.982246 173.789715 
L 225.982246 173.778547 
L 226.982246 173.74843 
L 227.982246 173.688653 
L 228.982246 173.651461 
L 229.982246 173.612365 
L 230.982246 173.569926 
L 231.982246 173.537161 
L 232.982246 173.469734 
L 233.982246 173.430608 
L 234.982246 173.387934 
L 235.982246 173.317353 
L 236.982246 173.280962 
L 237.982246 173.222559 
L 238.982246 173.111606 
L 239.982246 173.040948 
L 240.982246 172.928008 
L 241.982246 172.882235 
L 242.982246 172.820952 
L 243.982246 172.772453 
L 244.982246 172.69163 
L 245.982246 172.573111 
L 246.982246 172.502901 
L 247.982246 172.419638 
L 248.982246 172.386496 
L 249.982246 172.335259 
L 250.982246 172.266861 
L 251.982246 172.200645 
L 252.982246 172.123728 
L 254.650369 172.096413 
" clip-path="url(#p3ed54d6fbe)" style="fill: none; stroke: #1f77b4; stroke-opacity: 0.5; stroke-width: 0.2; stroke-linecap: square"/>
   <path d="M 197.982246 98.921583 
L 198.982246 98.953019 
L 199.982246 98.98996 
L 200.982246 99.087706 
L 201.982246 99.120228 
L 202.982246 99.193853 
L 203.982246 99.232418 
L 204.982246 99.267831 
L 205.982246 99.325471 
L 206.982246 99.395857 
L 207.982246 99.447822 
L 208.982246 99.506911 
L 209.982246 99.595232 
L 210.982246 99.641377 
L 211.982246 99.683788 
L 212.982246 99.71428 
L 213.982246 99.740325 
L 214.982246 99.761525 
L 215.982246 99.815826 
L 216.982246 99.843764 
L 217.982246 99.873488 
L 218.982246 99.898883 
L 219.982246 99.910083 
L 220.982246 99.920207 
L 221.982246 99.920003 
L 222.982246 99.910493 
L 223.982246 99.898839 
L 224.982246 99.86781 
L 225.982246 99.856642 
L 226.982246 99.826525 
L 227.982246 99.766748 
L 228.982246 99.729556 
L 229.982246 99.69046 
L 230.982246 99.64802 
L 231.982246 99.615255 
L 232.982246 99.547829 
L 233.982246 99.508703 
L 234.982246 99.466028 
L 235.982246 99.395448 
L 236.982246 99.359057 
L 237.982246 99.300654 
L 238.982246 99.189701 
L 239.982246 99.119043 
L 240.982246 99.006103 
L 241.982246 98.96033 
L 242.982246 98.899047 
L 243.982246 98.850548 
L 244.982246 98.769725 
L 245.982246 98.651206 
L 246.982246 98.580995 
L 247.982246 98.497733 
L 248.982246 98.464591 
L 249.982246 98.413354 
L 250.982246 98.344955 
L 251.982246 98.27874 
L 252.982246 98.201823 
L 254.650369 98.174508 
" clip-path="url(#p3ed54d6fbe)" style="fill: none; stroke: #1f77b4; stroke-opacity: 0.5; stroke-width: 0.2; stroke-linecap: square"/>
   <path d="M 197.982246 172.008927 
L 198.982246 172.040363 
L 199.982246 172.077304 
L 200.982246 172.17505 
L 201.982246 172.207572 
L 202.982246 172.281197 
L 203.982246 172.319762 
L 204.982246 172.355175 
L 205.982246 172.412815 
L 206.982246 172.483202 
L 207.982246 172.535166 
L 208.982246 172.594255 
L 209.982246 172.682576 
L 210.982246 172.728721 
L 211.982246 172.771132 
L 212.982246 172.801624 
L 213.982246 172.827669 
L 214.982246 172.848869 
L 215.982246 172.903171 
L 216.982246 172.931108 
L 217.982246 172.960832 
L 218.982246 172.986227 
L 219.982246 172.997427 
L 220.982246 173.007551 
L 221.982246 173.007347 
L 222.982246 172.997837 
L 223.982246 172.986183 
L 224.982246 172.955154 
L 225.982246 172.943986 
L 226.982246 172.913869 
L 227.982246 172.854092 
L 228.982246 172.8169 
L 229.982246 172.777804 
L 230.982246 172.735364 
L 231.982246 172.702599 
L 232.982246 172.635173 
L 233.982246 172.596047 
L 234.982246 172.553372 
L 235.982246 172.482792 
L 236.982246 172.446401 
L 237.982246 172.387998 
L 238.982246 172.277045 
L 239.982246 172.206387 
L 240.982246 172.093447 
L 241.982246 172.047674 
L 242.982246 171.986391 
L 243.982246 171.937892 
L 244.982246 171.857069 
L 245.982246 171.73855 
L 246.982246 171.668339 
L 247.982246 171.585077 
L 248.982246 171.551935 
L 249.982246 171.500698 
L 250.982246 171.4323 
L 251.982246 171.366084 
L 252.982246 171.289167 
L 254.650369 171.261852 
" clip-path="url(#p3ed54d6fbe)" style="fill: none; stroke: #1f77b4; stroke-opacity: 0.5; stroke-width: 0.2; stroke-linecap: square"/>
   <path d="M 197.982246 164.878946 
L 198.982246 164.910383 
L 199.982246 164.947323 
L 200.982246 165.04507 
L 201.982246 165.077591 
L 202.982246 165.151216 
L 203.982246 165.189781 
L 204.982246 165.225195 
L 205.982246 165.282834 
L 206.982246 165.353221 
L 207.982246 165.405185 
L 208.982246 165.464275 
L 209.982246 165.552596 
L 210.982246 165.59874 
L 211.982246 165.641151 
L 212.982246 165.671644 
L 213.982246 165.697688 
L 214.982246 165.718889 
L 215.982246 165.77319 
L 216.982246 165.801127 
L 217.982246 165.830851 
L 218.982246 165.856246 
L 219.982246 165.867446 
L 220.982246 165.87757 
L 221.982246 165.877366 
L 222.982246 165.867856 
L 223.982246 165.856203 
L 224.982246 165.825173 
L 225.982246 165.814005 
L 226.982246 165.783888 
L 227.982246 165.724111 
L 228.982246 165.686919 
L 229.982246 165.647823 
L 230.982246 165.605384 
L 231.982246 165.572619 
L 232.982246 165.505192 
L 233.982246 165.466066 
L 234.982246 165.423392 
L 235.982246 165.352811 
L 236.982246 165.31642 
L 237.982246 165.258017 
L 238.982246 165.147064 
L 239.982246 165.076406 
L 240.982246 164.963466 
L 241.982246 164.917693 
L 242.982246 164.85641 
L 243.982246 164.807911 
L 244.982246 164.727088 
L 245.982246 164.608569 
L 246.982246 164.538359 
L 247.982246 164.455096 
L 248.982246 164.421954 
L 249.982246 164.370717 
L 250.982246 164.302319 
L 251.982246 164.236103 
L 252.982246 164.159186 
L 254.650369 164.131871 
" clip-path="url(#p3ed54d6fbe)" style="fill: none; stroke: #1f77b4; stroke-opacity: 0.5; stroke-width: 0.2; stroke-linecap: square"/>
   <path d="M 197.982246 133.483854 
L 198.982246 133.515291 
L 199.982246 133.552231 
L 200.982246 133.649978 
L 201.982246 133.682499 
L 202.982246 133.756124 
L 203.982246 133.79469 
L 204.982246 133.830103 
L 205.982246 133.887743 
L 206.982246 133.958129 
L 207.982246 134.010093 
L 208.982246 134.069183 
L 209.982246 134.157504 
L 210.982246 134.203648 
L 211.982246 134.246059 
L 212.982246 134.276552 
L 213.982246 134.302597 
L 214.982246 134.323797 
L 215.982246 134.378098 
L 216.982246 134.406036 
L 217.982246 134.435759 
L 218.982246 134.461154 
L 219.982246 134.472355 
L 220.982246 134.482479 
L 221.982246 134.482274 
L 222.982246 134.472764 
L 223.982246 134.461111 
L 224.982246 134.430082 
L 225.982246 134.418914 
L 226.982246 134.388796 
L 227.982246 134.329019 
L 228.982246 134.291828 
L 229.982246 134.252732 
L 230.982246 134.210292 
L 231.982246 134.177527 
L 232.982246 134.1101 
L 233.982246 134.070974 
L 234.982246 134.0283 
L 235.982246 133.957719 
L 236.982246 133.921328 
L 237.982246 133.862925 
L 238.982246 133.751973 
L 239.982246 133.681314 
L 240.982246 133.568375 
L 241.982246 133.522602 
L 242.982246 133.461318 
L 243.982246 133.412819 
L 244.982246 133.331996 
L 245.982246 133.213477 
L 246.982246 133.143267 
L 247.982246 133.060004 
L 248.982246 133.026863 
L 249.982246 132.975625 
L 250.982246 132.907227 
L 251.982246 132.841011 
L 252.982246 132.764094 
L 254.650369 132.736779 
" clip-path="url(#p3ed54d6fbe)" style="fill: none; stroke: #1f77b4; stroke-opacity: 0.5; stroke-width: 0.2; stroke-linecap: square"/>
   <path d="M 197.982246 142.059239 
L 198.982246 142.090675 
L 199.982246 142.127616 
L 200.982246 142.225362 
L 201.982246 142.257884 
L 202.982246 142.331509 
L 203.982246 142.370074 
L 204.982246 142.405487 
L 205.982246 142.463127 
L 206.982246 142.533513 
L 207.982246 142.585478 
L 208.982246 142.644567 
L 209.982246 142.732888 
L 210.982246 142.779033 
L 211.982246 142.821444 
L 212.982246 142.851936 
L 213.982246 142.877981 
L 214.982246 142.899181 
L 215.982246 142.953482 
L 216.982246 142.98142 
L 217.982246 143.011144 
L 218.982246 143.036539 
L 219.982246 143.047739 
L 220.982246 143.057863 
L 221.982246 143.057659 
L 222.982246 143.048149 
L 223.982246 143.036495 
L 224.982246 143.005466 
L 225.982246 142.994298 
L 226.982246 142.964181 
L 227.982246 142.904404 
L 228.982246 142.867212 
L 229.982246 142.828116 
L 230.982246 142.785676 
L 231.982246 142.752911 
L 232.982246 142.685485 
L 233.982246 142.646359 
L 234.982246 142.603684 
L 235.982246 142.533104 
L 236.982246 142.496713 
L 237.982246 142.43831 
L 238.982246 142.327357 
L 239.982246 142.256699 
L 240.982246 142.143759 
L 241.982246 142.097986 
L 242.982246 142.036703 
L 243.982246 141.988204 
L 244.982246 141.907381 
L 245.982246 141.788862 
L 246.982246 141.718651 
L 247.982246 141.635389 
L 248.982246 141.602247 
L 249.982246 141.55101 
L 250.982246 141.482611 
L 251.982246 141.416396 
L 252.982246 141.339479 
L 254.650369 141.312163 
" clip-path="url(#p3ed54d6fbe)" style="fill: none; stroke: #1f77b4; stroke-opacity: 0.5; stroke-width: 0.2; stroke-linecap: square"/>
   <path d="M 389.130882 175.013425 
L 390.130882 175.044861 
L 391.130882 175.081802 
L 392.130882 175.179548 
L 393.130882 175.21207 
L 394.130882 175.285694 
L 395.130882 175.32426 
L 396.130882 175.359673 
L 397.130882 175.417313 
L 398.130882 175.487699 
L 399.130882 175.539663 
L 400.130882 175.598753 
L 401.130882 175.687074 
L 402.130882 175.733219 
L 403.130882 175.775629 
L 404.130882 175.806122 
L 405.130882 175.832167 
L 406.130882 175.853367 
L 407.130882 175.907668 
L 408.130882 175.935606 
L 409.130882 175.96533 
L 410.130882 175.990725 
L 411.130882 176.001925 
L 412.130882 176.012049 
L 413.130882 176.011845 
L 414.130882 176.002335 
L 415.130882 175.990681 
L 416.130882 175.959652 
L 417.130882 175.948484 
L 418.130882 175.918366 
L 419.130882 175.85859 
L 420.130882 175.821398 
L 421.130882 175.782302 
L 422.130882 175.739862 
L 423.130882 175.707097 
L 424.130882 175.639671 
L 425.130882 175.600545 
L 426.130882 175.55787 
L 427.130882 175.48729 
L 428.130882 175.450899 
L 429.130882 175.392496 
L 430.130882 175.281543 
L 431.130882 175.210885 
L 432.130882 175.097945 
L 433.130882 175.052172 
L 434.130882 174.990889 
L 435.130882 174.942389 
L 436.130882 174.861567 
L 437.130882 174.743048 
L 438.130882 174.672837 
L 439.130882 174.589575 
L 440.130882 174.556433 
L 441.130882 174.505196 
L 442.130882 174.436797 
L 443.130882 174.370582 
L 444.130882 174.293665 
L 445.799004 174.266349 
" clip-path="url(#p3ed54d6fbe)" style="fill: none; stroke: #ff7f0e; stroke-opacity: 0.5; stroke-width: 0.2; stroke-linecap: square"/>
   <path d="M 389.130882 174.544673 
L 390.130882 174.57611 
L 391.130882 174.61305 
L 392.130882 174.710797 
L 393.130882 174.743318 
L 394.130882 174.816943 
L 395.130882 174.855509 
L 396.130882 174.890922 
L 397.130882 174.948562 
L 398.130882 175.018948 
L 399.130882 175.070912 
L 400.130882 175.130002 
L 401.130882 175.218323 
L 402.130882 175.264467 
L 403.130882 175.306878 
L 404.130882 175.337371 
L 405.130882 175.363416 
L 406.130882 175.384616 
L 407.130882 175.438917 
L 408.130882 175.466854 
L 409.130882 175.496578 
L 410.130882 175.521973 
L 411.130882 175.533174 
L 412.130882 175.543298 
L 413.130882 175.543093 
L 414.130882 175.533583 
L 415.130882 175.52193 
L 416.130882 175.4909 
L 417.130882 175.479733 
L 418.130882 175.449615 
L 419.130882 175.389838 
L 420.130882 175.352647 
L 421.130882 175.31355 
L 422.130882 175.271111 
L 423.130882 175.238346 
L 424.130882 175.170919 
L 425.130882 175.131793 
L 426.130882 175.089119 
L 427.130882 175.018538 
L 428.130882 174.982147 
L 429.130882 174.923744 
L 430.130882 174.812792 
L 431.130882 174.742133 
L 432.130882 174.629193 
L 433.130882 174.583421 
L 434.130882 174.522137 
L 435.130882 174.473638 
L 436.130882 174.392815 
L 437.130882 174.274296 
L 438.130882 174.204086 
L 439.130882 174.120823 
L 440.130882 174.087681 
L 441.130882 174.036444 
L 442.130882 173.968046 
L 443.130882 173.90183 
L 444.130882 173.824913 
L 445.799004 173.797598 
" clip-path="url(#p3ed54d6fbe)" style="fill: none; stroke: #ff7f0e; stroke-opacity: 0.5; stroke-width: 0.2; stroke-linecap: square"/>
   <path d="M 389.130882 115.065582 
L 390.130882 115.097019 
L 391.130882 115.133959 
L 392.130882 115.231706 
L 393.130882 115.264227 
L 394.130882 115.337852 
L 395.130882 115.376418 
L 396.130882 115.411831 
L 397.130882 115.469471 
L 398.130882 115.539857 
L 399.130882 115.591821 
L 400.130882 115.650911 
L 401.130882 115.739232 
L 402.130882 115.785376 
L 403.130882 115.827787 
L 404.130882 115.85828 
L 405.130882 115.884325 
L 406.130882 115.905525 
L 407.130882 115.959826 
L 408.130882 115.987763 
L 409.130882 116.017487 
L 410.130882 116.042882 
L 411.130882 116.054083 
L 412.130882 116.064207 
L 413.130882 116.064002 
L 414.130882 116.054492 
L 415.130882 116.042839 
L 416.130882 116.01181 
L 417.130882 116.000642 
L 418.130882 115.970524 
L 419.130882 115.910747 
L 420.130882 115.873556 
L 421.130882 115.83446 
L 422.130882 115.79202 
L 423.130882 115.759255 
L 424.130882 115.691828 
L 425.130882 115.652702 
L 426.130882 115.610028 
L 427.130882 115.539447 
L 428.130882 115.503056 
L 429.130882 115.444653 
L 430.130882 115.333701 
L 431.130882 115.263042 
L 432.130882 115.150102 
L 433.130882 115.10433 
L 434.130882 115.043046 
L 435.130882 114.994547 
L 436.130882 114.913724 
L 437.130882 114.795205 
L 438.130882 114.724995 
L 439.130882 114.641732 
L 440.130882 114.608591 
L 441.130882 114.557353 
L 442.130882 114.488955 
L 443.130882 114.422739 
L 444.130882 114.345822 
L 445.799004 114.318507 
" clip-path="url(#p3ed54d6fbe)" style="fill: none; stroke: #ff7f0e; stroke-opacity: 0.5; stroke-width: 0.2; stroke-linecap: square"/>
   <path d="M 389.130882 97.153924 
L 390.130882 97.185361 
L 391.130882 97.222301 
L 392.130882 97.320048 
L 393.130882 97.352569 
L 394.130882 97.426194 
L 395.130882 97.464759 
L 396.130882 97.500173 
L 397.130882 97.557812 
L 398.130882 97.628199 
L 399.130882 97.680163 
L 400.130882 97.739253 
L 401.130882 97.827574 
L 402.130882 97.873718 
L 403.130882 97.916129 
L 404.130882 97.946622 
L 405.130882 97.972666 
L 406.130882 97.993867 
L 407.130882 98.048168 
L 408.130882 98.076105 
L 409.130882 98.105829 
L 410.130882 98.131224 
L 411.130882 98.142424 
L 412.130882 98.152548 
L 413.130882 98.152344 
L 414.130882 98.142834 
L 415.130882 98.131181 
L 416.130882 98.100151 
L 417.130882 98.088983 
L 418.130882 98.058866 
L 419.130882 97.999089 
L 420.130882 97.961897 
L 421.130882 97.922801 
L 422.130882 97.880362 
L 423.130882 97.847597 
L 424.130882 97.78017 
L 425.130882 97.741044 
L 426.130882 97.69837 
L 427.130882 97.627789 
L 428.130882 97.591398 
L 429.130882 97.532995 
L 430.130882 97.422042 
L 431.130882 97.351384 
L 432.130882 97.238444 
L 433.130882 97.192671 
L 434.130882 97.131388 
L 435.130882 97.082889 
L 436.130882 97.002066 
L 437.130882 96.883547 
L 438.130882 96.813337 
L 439.130882 96.730074 
L 440.130882 96.696932 
L 441.130882 96.645695 
L 442.130882 96.577297 
L 443.130882 96.511081 
L 444.130882 96.434164 
L 445.799004 96.406849 
" clip-path="url(#p3ed54d6fbe)" style="fill: none; stroke: #ff7f0e; stroke-opacity: 0.5; stroke-width: 0.2; stroke-linecap: square"/>
   <path d="M 389.130882 100.860144 
L 390.130882 100.89158 
L 391.130882 100.928521 
L 392.130882 101.026267 
L 393.130882 101.058789 
L 394.130882 101.132413 
L 395.130882 101.170979 
L 396.130882 101.206392 
L 397.130882 101.264032 
L 398.130882 101.334418 
L 399.130882 101.386382 
L 400.130882 101.445472 
L 401.130882 101.533793 
L 402.130882 101.579937 
L 403.130882 101.622348 
L 404.130882 101.652841 
L 405.130882 101.678886 
L 406.130882 101.700086 
L 407.130882 101.754387 
L 408.130882 101.782325 
L 409.130882 101.812049 
L 410.130882 101.837444 
L 411.130882 101.848644 
L 412.130882 101.858768 
L 413.130882 101.858564 
L 414.130882 101.849054 
L 415.130882 101.8374 
L 416.130882 101.806371 
L 417.130882 101.795203 
L 418.130882 101.765085 
L 419.130882 101.705308 
L 420.130882 101.668117 
L 421.130882 101.629021 
L 422.130882 101.586581 
L 423.130882 101.553816 
L 424.130882 101.48639 
L 425.130882 101.447264 
L 426.130882 101.404589 
L 427.130882 101.334009 
L 428.130882 101.297618 
L 429.130882 101.239215 
L 430.130882 101.128262 
L 431.130882 101.057604 
L 432.130882 100.944664 
L 433.130882 100.898891 
L 434.130882 100.837608 
L 435.130882 100.789108 
L 436.130882 100.708286 
L 437.130882 100.589767 
L 438.130882 100.519556 
L 439.130882 100.436294 
L 440.130882 100.403152 
L 441.130882 100.351915 
L 442.130882 100.283516 
L 443.130882 100.217301 
L 444.130882 100.140384 
L 445.799004 100.113068 
" clip-path="url(#p3ed54d6fbe)" style="fill: none; stroke: #ff7f0e; stroke-opacity: 0.5; stroke-width: 0.2; stroke-linecap: square"/>
   <path d="M 389.130882 152.622882 
L 390.130882 152.654319 
L 391.130882 152.691259 
L 392.130882 152.789006 
L 393.130882 152.821527 
L 394.130882 152.895152 
L 395.130882 152.933718 
L 396.130882 152.969131 
L 397.130882 153.026771 
L 398.130882 153.097157 
L 399.130882 153.149121 
L 400.130882 153.208211 
L 401.130882 153.296532 
L 402.130882 153.342676 
L 403.130882 153.385087 
L 404.130882 153.41558 
L 405.130882 153.441625 
L 406.130882 153.462825 
L 407.130882 153.517126 
L 408.130882 153.545063 
L 409.130882 153.574787 
L 410.130882 153.600182 
L 411.130882 153.611383 
L 412.130882 153.621507 
L 413.130882 153.621302 
L 414.130882 153.611792 
L 415.130882 153.600139 
L 416.130882 153.56911 
L 417.130882 153.557942 
L 418.130882 153.527824 
L 419.130882 153.468047 
L 420.130882 153.430856 
L 421.130882 153.39176 
L 422.130882 153.34932 
L 423.130882 153.316555 
L 424.130882 153.249128 
L 425.130882 153.210002 
L 426.130882 153.167328 
L 427.130882 153.096747 
L 428.130882 153.060356 
L 429.130882 153.001953 
L 430.130882 152.891001 
L 431.130882 152.820342 
L 432.130882 152.707402 
L 433.130882 152.66163 
L 434.130882 152.600346 
L 435.130882 152.551847 
L 436.130882 152.471024 
L 437.130882 152.352505 
L 438.130882 152.282295 
L 439.130882 152.199032 
L 440.130882 152.165891 
L 441.130882 152.114653 
L 442.130882 152.046255 
L 443.130882 151.980039 
L 444.130882 151.903122 
L 445.799004 151.875807 
" clip-path="url(#p3ed54d6fbe)" style="fill: none; stroke: #ff7f0e; stroke-opacity: 0.5; stroke-width: 0.2; stroke-linecap: square"/>
   <path d="M 389.130882 183.280704 
L 390.130882 183.31214 
L 391.130882 183.34908 
L 392.130882 183.446827 
L 393.130882 183.479349 
L 394.130882 183.552973 
L 395.130882 183.591539 
L 396.130882 183.626952 
L 397.130882 183.684592 
L 398.130882 183.754978 
L 399.130882 183.806942 
L 400.130882 183.866032 
L 401.130882 183.954353 
L 402.130882 184.000497 
L 403.130882 184.042908 
L 404.130882 184.073401 
L 405.130882 184.099446 
L 406.130882 184.120646 
L 407.130882 184.174947 
L 408.130882 184.202885 
L 409.130882 184.232609 
L 410.130882 184.258003 
L 411.130882 184.269204 
L 412.130882 184.279328 
L 413.130882 184.279123 
L 414.130882 184.269614 
L 415.130882 184.25796 
L 416.130882 184.226931 
L 417.130882 184.215763 
L 418.130882 184.185645 
L 419.130882 184.125868 
L 420.130882 184.088677 
L 421.130882 184.049581 
L 422.130882 184.007141 
L 423.130882 183.974376 
L 424.130882 183.90695 
L 425.130882 183.867824 
L 426.130882 183.825149 
L 427.130882 183.754569 
L 428.130882 183.718178 
L 429.130882 183.659774 
L 430.130882 183.548822 
L 431.130882 183.478164 
L 432.130882 183.365224 
L 433.130882 183.319451 
L 434.130882 183.258168 
L 435.130882 183.209668 
L 436.130882 183.128846 
L 437.130882 183.010327 
L 438.130882 182.940116 
L 439.130882 182.856854 
L 440.130882 182.823712 
L 441.130882 182.772475 
L 442.130882 182.704076 
L 443.130882 182.637861 
L 444.130882 182.560944 
L 445.799004 182.533628 
" clip-path="url(#p3ed54d6fbe)" style="fill: none; stroke: #ff7f0e; stroke-opacity: 0.5; stroke-width: 0.2; stroke-linecap: square"/>
   <path d="M 389.130882 139.044293 
L 390.130882 139.07573 
L 391.130882 139.11267 
L 392.130882 139.210417 
L 393.130882 139.242938 
L 394.130882 139.316563 
L 395.130882 139.355128 
L 396.130882 139.390542 
L 397.130882 139.448182 
L 398.130882 139.518568 
L 399.130882 139.570532 
L 400.130882 139.629622 
L 401.130882 139.717943 
L 402.130882 139.764087 
L 403.130882 139.806498 
L 404.130882 139.836991 
L 405.130882 139.863036 
L 406.130882 139.884236 
L 407.130882 139.938537 
L 408.130882 139.966474 
L 409.130882 139.996198 
L 410.130882 140.021593 
L 411.130882 140.032793 
L 412.130882 140.042917 
L 413.130882 140.042713 
L 414.130882 140.033203 
L 415.130882 140.02155 
L 416.130882 139.99052 
L 417.130882 139.979352 
L 418.130882 139.949235 
L 419.130882 139.889458 
L 420.130882 139.852266 
L 421.130882 139.81317 
L 422.130882 139.770731 
L 423.130882 139.737966 
L 424.130882 139.670539 
L 425.130882 139.631413 
L 426.130882 139.588739 
L 427.130882 139.518158 
L 428.130882 139.481767 
L 429.130882 139.423364 
L 430.130882 139.312411 
L 431.130882 139.241753 
L 432.130882 139.128813 
L 433.130882 139.08304 
L 434.130882 139.021757 
L 435.130882 138.973258 
L 436.130882 138.892435 
L 437.130882 138.773916 
L 438.130882 138.703706 
L 439.130882 138.620443 
L 440.130882 138.587301 
L 441.130882 138.536064 
L 442.130882 138.467666 
L 443.130882 138.40145 
L 444.130882 138.324533 
L 445.799004 138.297218 
" clip-path="url(#p3ed54d6fbe)" style="fill: none; stroke: #ff7f0e; stroke-opacity: 0.5; stroke-width: 0.2; stroke-linecap: square"/>
   <path d="M 389.130882 168.288679 
L 390.130882 168.320116 
L 391.130882 168.357056 
L 392.130882 168.454803 
L 393.130882 168.487324 
L 394.130882 168.560949 
L 395.130882 168.599514 
L 396.130882 168.634928 
L 397.130882 168.692568 
L 398.130882 168.762954 
L 399.130882 168.814918 
L 400.130882 168.874008 
L 401.130882 168.962329 
L 402.130882 169.008473 
L 403.130882 169.050884 
L 404.130882 169.081377 
L 405.130882 169.107422 
L 406.130882 169.128622 
L 407.130882 169.182923 
L 408.130882 169.21086 
L 409.130882 169.240584 
L 410.130882 169.265979 
L 411.130882 169.277179 
L 412.130882 169.287303 
L 413.130882 169.287099 
L 414.130882 169.277589 
L 415.130882 169.265936 
L 416.130882 169.234906 
L 417.130882 169.223738 
L 418.130882 169.193621 
L 419.130882 169.133844 
L 420.130882 169.096652 
L 421.130882 169.057556 
L 422.130882 169.015117 
L 423.130882 168.982352 
L 424.130882 168.914925 
L 425.130882 168.875799 
L 426.130882 168.833125 
L 427.130882 168.762544 
L 428.130882 168.726153 
L 429.130882 168.66775 
L 430.130882 168.556798 
L 431.130882 168.486139 
L 432.130882 168.373199 
L 433.130882 168.327426 
L 434.130882 168.266143 
L 435.130882 168.217644 
L 436.130882 168.136821 
L 437.130882 168.018302 
L 438.130882 167.948092 
L 439.130882 167.864829 
L 440.130882 167.831687 
L 441.130882 167.78045 
L 442.130882 167.712052 
L 443.130882 167.645836 
L 444.130882 167.568919 
L 445.799004 167.541604 
" clip-path="url(#p3ed54d6fbe)" style="fill: none; stroke: #ff7f0e; stroke-opacity: 0.5; stroke-width: 0.2; stroke-linecap: square"/>
   <path d="M 389.130882 124.397011 
L 390.130882 124.428448 
L 391.130882 124.465388 
L 392.130882 124.563134 
L 393.130882 124.595656 
L 394.130882 124.669281 
L 395.130882 124.707846 
L 396.130882 124.743259 
L 397.130882 124.800899 
L 398.130882 124.871286 
L 399.130882 124.92325 
L 400.130882 124.98234 
L 401.130882 125.070661 
L 402.130882 125.116805 
L 403.130882 125.159216 
L 404.130882 125.189708 
L 405.130882 125.215753 
L 406.130882 125.236953 
L 407.130882 125.291255 
L 408.130882 125.319192 
L 409.130882 125.348916 
L 410.130882 125.374311 
L 411.130882 125.385511 
L 412.130882 125.395635 
L 413.130882 125.395431 
L 414.130882 125.385921 
L 415.130882 125.374268 
L 416.130882 125.343238 
L 417.130882 125.33207 
L 418.130882 125.301953 
L 419.130882 125.242176 
L 420.130882 125.204984 
L 421.130882 125.165888 
L 422.130882 125.123449 
L 423.130882 125.090683 
L 424.130882 125.023257 
L 425.130882 124.984131 
L 426.130882 124.941457 
L 427.130882 124.870876 
L 428.130882 124.834485 
L 429.130882 124.776082 
L 430.130882 124.665129 
L 431.130882 124.594471 
L 432.130882 124.481531 
L 433.130882 124.435758 
L 434.130882 124.374475 
L 435.130882 124.325976 
L 436.130882 124.245153 
L 437.130882 124.126634 
L 438.130882 124.056424 
L 439.130882 123.973161 
L 440.130882 123.940019 
L 441.130882 123.888782 
L 442.130882 123.820384 
L 443.130882 123.754168 
L 444.130882 123.677251 
L 445.799004 123.649936 
" clip-path="url(#p3ed54d6fbe)" style="fill: none; stroke: #ff7f0e; stroke-opacity: 0.5; stroke-width: 0.2; stroke-linecap: square"/>
   <g id="patch_3">
    <path d="M 69.06392 22.318125 
L 69.06392 318.021875 
M 192.420059 22.318125 
L 192.420059 318.021875 
" clip-path="url(#p3ed54d6fbe)" style="fill: none; stroke: #ffffff; stroke-width: 3; stroke-linejoin: miter"/>
    <path d="M 69.06392 22.318125 
L 69.06392 318.021875 
M 192.420059 22.318125 
L 192.420059 318.021875 
" clip-path="url(#p3ed54d6fbe)" style="fill: none; stroke: #1f77b4; stroke-linejoin: miter"/>
    <g id="PolyCollection_1">
     <path d="M 192.420059 22.318125 
L 69.06392 22.318125 
L 69.06392 318.021875 
L 192.420059 318.021875 
L 192.420059 318.021875 
L 192.420059 22.318125 
z
" clip-path="url(#p3ed54d6fbe)" style="fill: #1f77b4; fill-opacity: 0.5"/>
    </g>
    <g id="patch_4">
     <path d="M 260.212556 22.318125 
L 260.212556 318.021875 
M 383.568694 22.318125 
L 383.568694 318.021875 
" clip-path="url(#p3ed54d6fbe)" style="fill: none; stroke: #ffffff; stroke-width: 3; stroke-linejoin: miter"/>
     <path d="M 260.212556 22.318125 
L 260.212556 318.021875 
M 383.568694 22.318125 
L 383.568694 318.021875 
" clip-path="url(#p3ed54d6fbe)" style="fill: none; stroke: #ff7f0e; stroke-linejoin: miter"/>
     <g id="PolyCollection_2">
      <path d="M 383.568694 22.318125 
L 260.212556 22.318125 
L 260.212556 318.021875 
L 383.568694 318.021875 
L 383.568694 318.021875 
L 383.568694 22.318125 
z
" clip-path="url(#p3ed54d6fbe)" style="fill: #ff7f0e; fill-opacity: 0.5"/>
     </g>
     <g id="patch_5">
      <path d="M 451.361191 22.318125 
L 451.361191 318.021875 
M 574.71733 22.318125 
L 574.71733 318.021875 
" clip-path="url(#p3ed54d6fbe)" style="fill: none; stroke: #ffffff; stroke-width: 3; stroke-linejoin: miter"/>
      <path d="M 451.361191 22.318125 
L 451.361191 318.021875 
M 574.71733 22.318125 
L 574.71733 318.021875 
" clip-path="url(#p3ed54d6fbe)" style="fill: none; stroke: #2ca02c; stroke-linejoin: miter"/>
      <g id="PolyCollection_3">
       <path d="M 574.71733 22.318125 
L 451.361191 22.318125 
L 451.361191 318.021875 
L 574.71733 318.021875 
L 574.71733 318.021875 
L 574.71733 22.318125 
z
" clip-path="url(#p3ed54d6fbe)" style="fill: #2ca02c; fill-opacity: 0.5"/>
      </g>
      <g id="matplotlib.axis_1">
       <g id="xtick_1">
        <g id="line2d_1"/>
        <g id="text_1">
         <!-- deme0 -->
         <g transform="translate(113.363083 329.120312) scale(0.1 -0.1)">
          <defs>
           <path id="DejaVuSans-64" d="M 2906 2969 
L 2906 4863 
L 3481 4863 
L 3481 0 
L 2906 0 
L 2906 525 
Q 2725 213 2448 61 
Q 2172 -91 1784 -91 
Q 1150 -91 751 415 
Q 353 922 353 1747 
Q 353 2572 751 3078 
Q 1150 3584 1784 3584 
Q 2172 3584 2448 3432 
Q 2725 3281 2906 2969 
z
M 947 1747 
Q 947 1113 1208 752 
Q 1469 391 1925 391 
Q 2381 391 2643 752 
Q 2906 1113 2906 1747 
Q 2906 2381 2643 2742 
Q 2381 3103 1925 3103 
Q 1469 3103 1208 2742 
Q 947 2381 947 1747 
z
" transform="scale(0.015625)"/>
           <path id="DejaVuSans-65" d="M 3597 1894 
L 3597 1613 
L 953 1613 
Q 991 1019 1311 708 
Q 1631 397 2203 397 
Q 2534 397 2845 478 
Q 3156 559 3463 722 
L 3463 178 
Q 3153 47 2828 -22 
Q 2503 -91 2169 -91 
Q 1331 -91 842 396 
Q 353 884 353 1716 
Q 353 2575 817 3079 
Q 1281 3584 2069 3584 
Q 2775 3584 3186 3129 
Q 3597 2675 3597 1894 
z
M 3022 2063 
Q 3016 2534 2758 2815 
Q 2500 3097 2075 3097 
Q 1594 3097 1305 2825 
Q 1016 2553 972 2059 
L 3022 2063 
z
" transform="scale(0.015625)"/>
           <path id="DejaVuSans-6d" d="M 3328 2828 
Q 3544 3216 3844 3400 
Q 4144 3584 4550 3584 
Q 5097 3584 5394 3201 
Q 5691 2819 5691 2113 
L 5691 0 
L 5113 0 
L 5113 2094 
Q 5113 2597 4934 2840 
Q 4756 3084 4391 3084 
Q 3944 3084 3684 2787 
Q 3425 2491 3425 1978 
L 3425 0 
L 2847 0 
L 2847 2094 
Q 2847 2600 2669 2842 
Q 2491 3084 2119 3084 
Q 1678 3084 1418 2786 
Q 1159 2488 1159 1978 
L 1159 0 
L 581 0 
L 581 3500 
L 1159 3500 
L 1159 2956 
Q 1356 3278 1631 3431 
Q 1906 3584 2284 3584 
Q 2666 3584 2933 3390 
Q 3200 3197 3328 2828 
z
" transform="scale(0.015625)"/>
           <path id="DejaVuSans-30" d="M 2034 4250 
Q 1547 4250 1301 3770 
Q 1056 3291 1056 2328 
Q 1056 1369 1301 889 
Q 1547 409 2034 409 
Q 2525 409 2770 889 
Q 3016 1369 3016 2328 
Q 3016 3291 2770 3770 
Q 2525 4250 2034 4250 
z
M 2034 4750 
Q 2819 4750 3233 4129 
Q 3647 3509 3647 2328 
Q 3647 1150 3233 529 
Q 2819 -91 2034 -91 
Q 1250 -91 836 529 
Q 422 1150 422 2328 
Q 422 3509 836 4129 
Q 1250 4750 2034 4750 
z
" transform="scale(0.015625)"/>
          </defs>
          <use xlink:href="#DejaVuSans-64"/>
          <use xlink:href="#DejaVuSans-65" x="63.476562"/>
          <use xlink:href="#DejaVuSans-6d" x="125"/>
          <use xlink:href="#DejaVuSans-65" x="222.412109"/>
          <use xlink:href="#DejaVuSans-30" x="283.935547"/>
         </g>
        </g>
       </g>
       <g id="xtick_2">
        <g id="line2d_2"/>
        <g id="text_2">
         <!-- deme1 -->
         <g transform="translate(304.511719 329.120312) scale(0.1 -0.1)">
          <defs>
           <path id="DejaVuSans-31" d="M 794 531 
L 1825 531 
L 1825 4091 
L 703 3866 
L 703 4441 
L 1819 4666 
L 2450 4666 
L 2450 531 
L 3481 531 
L 3481 0 
L 794 0 
L 794 531 
z
" transform="scale(0.015625)"/>
          </defs>
          <use xlink:href="#DejaVuSans-64"/>
          <use xlink:href="#DejaVuSans-65" x="63.476562"/>
          <use xlink:href="#DejaVuSans-6d" x="125"/>
          <use xlink:href="#DejaVuSans-65" x="222.412109"/>
          <use xlink:href="#DejaVuSans-31" x="283.935547"/>
         </g>
        </g>
       </g>
       <g id="xtick_3">
        <g id="line2d_3"/>
        <g id="text_3">
         <!-- deme2 -->
         <g transform="translate(495.660354 329.120312) scale(0.1 -0.1)">
          <defs>
           <path id="DejaVuSans-32" d="M 1228 531 
L 3431 531 
L 3431 0 
L 469 0 
L 469 531 
Q 828 903 1448 1529 
Q 2069 2156 2228 2338 
Q 2531 2678 2651 2914 
Q 2772 3150 2772 3378 
Q 2772 3750 2511 3984 
Q 2250 4219 1831 4219 
Q 1534 4219 1204 4116 
Q 875 4013 500 3803 
L 500 4441 
Q 881 4594 1212 4672 
Q 1544 4750 1819 4750 
Q 2544 4750 2975 4387 
Q 3406 4025 3406 3419 
Q 3406 3131 3298 2873 
Q 3191 2616 2906 2266 
Q 2828 2175 2409 1742 
Q 1991 1309 1228 531 
z
" transform="scale(0.015625)"/>
          </defs>
          <use xlink:href="#DejaVuSans-64"/>
          <use xlink:href="#DejaVuSans-65" x="63.476562"/>
          <use xlink:href="#DejaVuSans-6d" x="125"/>
          <use xlink:href="#DejaVuSans-65" x="222.412109"/>
          <use xlink:href="#DejaVuSans-32" x="283.935547"/>
         </g>
        </g>
       </g>
      </g>
      <g id="matplotlib.axis_2">
       <g id="ytick_1">
        <g id="line2d_4">
         <defs>
          <path id="m5b48d2829d" d="M 0 0 
L -3.5 0 
" style="stroke: #000000; stroke-width: 0.8"/>
         </defs>
         <g>
          <use xlink:href="#m5b48d2829d" x="43.78125" y="318.021875" style="stroke: #000000; stroke-width: 0.8"/>
         </g>
        </g>
        <g id="text_4">
         <!-- 0.0 -->
         <g transform="translate(20.878125 321.821094) scale(0.1 -0.1)">
          <defs>
           <path id="DejaVuSans-2e" d="M 684 794 
L 1344 794 
L 1344 0 
L 684 0 
L 684 794 
z
" transform="scale(0.015625)"/>
          </defs>
          <use xlink:href="#DejaVuSans-30"/>
          <use xlink:href="#DejaVuSans-2e" x="63.623047"/>
          <use xlink:href="#DejaVuSans-30" x="95.410156"/>
         </g>
        </g>
       </g>
       <g id="ytick_2">
        <g id="line2d_5">
         <g>
          <use xlink:href="#m5b48d2829d" x="43.78125" y="258.881125" style="stroke: #000000; stroke-width: 0.8"/>
         </g>
        </g>
        <g id="text_5">
         <!-- 0.5 -->
         <g transform="translate(20.878125 262.680344) scale(0.1 -0.1)">
          <defs>
           <path id="DejaVuSans-35" d="M 691 4666 
L 3169 4666 
L 3169 4134 
L 1269 4134 
L 1269 2991 
Q 1406 3038 1543 3061 
Q 1681 3084 1819 3084 
Q 2600 3084 3056 2656 
Q 3513 2228 3513 1497 
Q 3513 744 3044 326 
Q 2575 -91 1722 -91 
Q 1428 -91 1123 -41 
Q 819 9 494 109 
L 494 744 
Q 775 591 1075 516 
Q 1375 441 1709 441 
Q 2250 441 2565 725 
Q 2881 1009 2881 1497 
Q 2881 1984 2565 2268 
Q 2250 2553 1709 2553 
Q 1456 2553 1204 2497 
Q 953 2441 691 2322 
L 691 4666 
z
" transform="scale(0.015625)"/>
          </defs>
          <use xlink:href="#DejaVuSans-30"/>
          <use xlink:href="#DejaVuSans-2e" x="63.623047"/>
          <use xlink:href="#DejaVuSans-35" x="95.410156"/>
         </g>
        </g>
       </g>
       <g id="ytick_3">
        <g id="line2d_6">
         <g>
          <use xlink:href="#m5b48d2829d" x="43.78125" y="199.740375" style="stroke: #000000; stroke-width: 0.8"/>
         </g>
        </g>
        <g id="text_6">
         <!-- 1.0 -->
         <g transform="translate(20.878125 203.539594) scale(0.1 -0.1)">
          <use xlink:href="#DejaVuSans-31"/>
          <use xlink:href="#DejaVuSans-2e" x="63.623047"/>
          <use xlink:href="#DejaVuSans-30" x="95.410156"/>
         </g>
        </g>
       </g>
       <g id="ytick_4">
        <g id="line2d_7">
         <g>
          <use xlink:href="#m5b48d2829d" x="43.78125" y="140.599625" style="stroke: #000000; stroke-width: 0.8"/>
         </g>
        </g>
        <g id="text_7">
         <!-- 1.5 -->
         <g transform="translate(20.878125 144.398844) scale(0.1 -0.1)">
          <use xlink:href="#DejaVuSans-31"/>
          <use xlink:href="#DejaVuSans-2e" x="63.623047"/>
          <use xlink:href="#DejaVuSans-35" x="95.410156"/>
         </g>
        </g>
       </g>
       <g id="ytick_5">
        <g id="line2d_8">
         <g>
          <use xlink:href="#m5b48d2829d" x="43.78125" y="81.458875" style="stroke: #000000; stroke-width: 0.8"/>
         </g>
        </g>
        <g id="text_8">
         <!-- 2.0 -->
         <g transform="translate(20.878125 85.258094) scale(0.1 -0.1)">
          <use xlink:href="#DejaVuSans-32"/>
          <use xlink:href="#DejaVuSans-2e" x="63.623047"/>
          <use xlink:href="#DejaVuSans-30" x="95.410156"/>
         </g>
        </g>
       </g>
       <g id="ytick_6">
        <g id="line2d_9">
         <g>
          <use xlink:href="#m5b48d2829d" x="43.78125" y="22.318125" style="stroke: #000000; stroke-width: 0.8"/>
         </g>
        </g>
        <g id="text_9">
         <!-- 2.5 -->
         <g transform="translate(20.878125 26.117344) scale(0.1 -0.1)">
          <use xlink:href="#DejaVuSans-32"/>
          <use xlink:href="#DejaVuSans-2e" x="63.623047"/>
          <use xlink:href="#DejaVuSans-35" x="95.410156"/>
         </g>
        </g>
       </g>
       <g id="text_10">
        <!-- time ago (generations) -->
        <g transform="translate(14.798438 227.641094) rotate(-90) scale(0.1 -0.1)">
         <defs>
          <path id="DejaVuSans-74" d="M 1172 4494 
L 1172 3500 
L 2356 3500 
L 2356 3053 
L 1172 3053 
L 1172 1153 
Q 1172 725 1289 603 
Q 1406 481 1766 481 
L 2356 481 
L 2356 0 
L 1766 0 
Q 1100 0 847 248 
Q 594 497 594 1153 
L 594 3053 
L 172 3053 
L 172 3500 
L 594 3500 
L 594 4494 
L 1172 4494 
z
" transform="scale(0.015625)"/>
          <path id="DejaVuSans-69" d="M 603 3500 
L 1178 3500 
L 1178 0 
L 603 0 
L 603 3500 
z
M 603 4863 
L 1178 4863 
L 1178 4134 
L 603 4134 
L 603 4863 
z
" transform="scale(0.015625)"/>
          <path id="DejaVuSans-20" transform="scale(0.015625)"/>
          <path id="DejaVuSans-61" d="M 2194 1759 
Q 1497 1759 1228 1600 
Q 959 1441 959 1056 
Q 959 750 1161 570 
Q 1363 391 1709 391 
Q 2188 391 2477 730 
Q 2766 1069 2766 1631 
L 2766 1759 
L 2194 1759 
z
M 3341 1997 
L 3341 0 
L 2766 0 
L 2766 531 
Q 2569 213 2275 61 
Q 1981 -91 1556 -91 
Q 1019 -91 701 211 
Q 384 513 384 1019 
Q 384 1609 779 1909 
Q 1175 2209 1959 2209 
L 2766 2209 
L 2766 2266 
Q 2766 2663 2505 2880 
Q 2244 3097 1772 3097 
Q 1472 3097 1187 3025 
Q 903 2953 641 2809 
L 641 3341 
Q 956 3463 1253 3523 
Q 1550 3584 1831 3584 
Q 2591 3584 2966 3190 
Q 3341 2797 3341 1997 
z
" transform="scale(0.015625)"/>
          <path id="DejaVuSans-67" d="M 2906 1791 
Q 2906 2416 2648 2759 
Q 2391 3103 1925 3103 
Q 1463 3103 1205 2759 
Q 947 2416 947 1791 
Q 947 1169 1205 825 
Q 1463 481 1925 481 
Q 2391 481 2648 825 
Q 2906 1169 2906 1791 
z
M 3481 434 
Q 3481 -459 3084 -895 
Q 2688 -1331 1869 -1331 
Q 1566 -1331 1297 -1286 
Q 1028 -1241 775 -1147 
L 775 -588 
Q 1028 -725 1275 -790 
Q 1522 -856 1778 -856 
Q 2344 -856 2625 -561 
Q 2906 -266 2906 331 
L 2906 616 
Q 2728 306 2450 153 
Q 2172 0 1784 0 
Q 1141 0 747 490 
Q 353 981 353 1791 
Q 353 2603 747 3093 
Q 1141 3584 1784 3584 
Q 2172 3584 2450 3431 
Q 2728 3278 2906 2969 
L 2906 3500 
L 3481 3500 
L 3481 434 
z
" transform="scale(0.015625)"/>
          <path id="DejaVuSans-6f" d="M 1959 3097 
Q 1497 3097 1228 2736 
Q 959 2375 959 1747 
Q 959 1119 1226 758 
Q 1494 397 1959 397 
Q 2419 397 2687 759 
Q 2956 1122 2956 1747 
Q 2956 2369 2687 2733 
Q 2419 3097 1959 3097 
z
M 1959 3584 
Q 2709 3584 3137 3096 
Q 3566 2609 3566 1747 
Q 3566 888 3137 398 
Q 2709 -91 1959 -91 
Q 1206 -91 779 398 
Q 353 888 353 1747 
Q 353 2609 779 3096 
Q 1206 3584 1959 3584 
z
" transform="scale(0.015625)"/>
          <path id="DejaVuSans-28" d="M 1984 4856 
Q 1566 4138 1362 3434 
Q 1159 2731 1159 2009 
Q 1159 1288 1364 580 
Q 1569 -128 1984 -844 
L 1484 -844 
Q 1016 -109 783 600 
Q 550 1309 550 2009 
Q 550 2706 781 3412 
Q 1013 4119 1484 4856 
L 1984 4856 
z
" transform="scale(0.015625)"/>
          <path id="DejaVuSans-6e" d="M 3513 2113 
L 3513 0 
L 2938 0 
L 2938 2094 
Q 2938 2591 2744 2837 
Q 2550 3084 2163 3084 
Q 1697 3084 1428 2787 
Q 1159 2491 1159 1978 
L 1159 0 
L 581 0 
L 581 3500 
L 1159 3500 
L 1159 2956 
Q 1366 3272 1645 3428 
Q 1925 3584 2291 3584 
Q 2894 3584 3203 3211 
Q 3513 2838 3513 2113 
z
" transform="scale(0.015625)"/>
          <path id="DejaVuSans-72" d="M 2631 2963 
Q 2534 3019 2420 3045 
Q 2306 3072 2169 3072 
Q 1681 3072 1420 2755 
Q 1159 2438 1159 1844 
L 1159 0 
L 581 0 
L 581 3500 
L 1159 3500 
L 1159 2956 
Q 1341 3275 1631 3429 
Q 1922 3584 2338 3584 
Q 2397 3584 2469 3576 
Q 2541 3569 2628 3553 
L 2631 2963 
z
" transform="scale(0.015625)"/>
          <path id="DejaVuSans-73" d="M 2834 3397 
L 2834 2853 
Q 2591 2978 2328 3040 
Q 2066 3103 1784 3103 
Q 1356 3103 1142 2972 
Q 928 2841 928 2578 
Q 928 2378 1081 2264 
Q 1234 2150 1697 2047 
L 1894 2003 
Q 2506 1872 2764 1633 
Q 3022 1394 3022 966 
Q 3022 478 2636 193 
Q 2250 -91 1575 -91 
Q 1294 -91 989 -36 
Q 684 19 347 128 
L 347 722 
Q 666 556 975 473 
Q 1284 391 1588 391 
Q 1994 391 2212 530 
Q 2431 669 2431 922 
Q 2431 1156 2273 1281 
Q 2116 1406 1581 1522 
L 1381 1569 
Q 847 1681 609 1914 
Q 372 2147 372 2553 
Q 372 3047 722 3315 
Q 1072 3584 1716 3584 
Q 2034 3584 2315 3537 
Q 2597 3491 2834 3397 
z
" transform="scale(0.015625)"/>
          <path id="DejaVuSans-29" d="M 513 4856 
L 1013 4856 
Q 1481 4119 1714 3412 
Q 1947 2706 1947 2009 
Q 1947 1309 1714 600 
Q 1481 -109 1013 -844 
L 513 -844 
Q 928 -128 1133 580 
Q 1338 1288 1338 2009 
Q 1338 2731 1133 3434 
Q 928 4138 513 4856 
z
" transform="scale(0.015625)"/>
         </defs>
         <use xlink:href="#DejaVuSans-74"/>
         <use xlink:href="#DejaVuSans-69" x="39.208984"/>
         <use xlink:href="#DejaVuSans-6d" x="66.992188"/>
         <use xlink:href="#DejaVuSans-65" x="164.404297"/>
         <use xlink:href="#DejaVuSans-20" x="225.927734"/>
         <use xlink:href="#DejaVuSans-61" x="257.714844"/>
         <use xlink:href="#DejaVuSans-67" x="318.994141"/>
         <use xlink:href="#DejaVuSans-6f" x="382.470703"/>
         <use xlink:href="#DejaVuSans-20" x="443.652344"/>
         <use xlink:href="#DejaVuSans-28" x="475.439453"/>
         <use xlink:href="#DejaVuSans-67" x="514.453125"/>
         <use xlink:href="#DejaVuSans-65" x="577.929688"/>
         <use xlink:href="#DejaVuSans-6e" x="639.453125"/>
         <use xlink:href="#DejaVuSans-65" x="702.832031"/>
         <use xlink:href="#DejaVuSans-72" x="764.355469"/>
         <use xlink:href="#DejaVuSans-61" x="805.46875"/>
         <use xlink:href="#DejaVuSans-74" x="866.748047"/>
         <use xlink:href="#DejaVuSans-69" x="905.957031"/>
         <use xlink:href="#DejaVuSans-6f" x="933.740234"/>
         <use xlink:href="#DejaVuSans-6e" x="994.921875"/>
         <use xlink:href="#DejaVuSans-73" x="1058.300781"/>
         <use xlink:href="#DejaVuSans-29" x="1110.400391"/>
        </g>
       </g>
      </g>
      <path d="M 255.650369 88.388974 
L 253.650369 87.388974 
L 253.650369 89.388974 
z
" clip-path="url(#p3ed54d6fbe)" style="fill: #1f77b4; fill-opacity: 0.5; stroke: #1f77b4; stroke-opacity: 0.5; stroke-linejoin: miter"/>
      <path d="M 255.650369 108.356879 
L 253.650369 107.356879 
L 253.650369 109.356879 
z
" clip-path="url(#p3ed54d6fbe)" style="fill: #1f77b4; fill-opacity: 0.5; stroke: #1f77b4; stroke-opacity: 0.5; stroke-linejoin: miter"/>
      <path d="M 255.650369 171.008894 
L 253.650369 170.008894 
L 253.650369 172.008894 
z
" clip-path="url(#p3ed54d6fbe)" style="fill: #1f77b4; fill-opacity: 0.5; stroke: #1f77b4; stroke-opacity: 0.5; stroke-linejoin: miter"/>
      <path d="M 255.650369 181.720476 
L 253.650369 180.720476 
L 253.650369 182.720476 
z
" clip-path="url(#p3ed54d6fbe)" style="fill: #1f77b4; fill-opacity: 0.5; stroke: #1f77b4; stroke-opacity: 0.5; stroke-linejoin: miter"/>
      <path d="M 255.650369 172.843488 
L 253.650369 171.843488 
L 253.650369 173.843488 
z
" clip-path="url(#p3ed54d6fbe)" style="fill: #1f77b4; fill-opacity: 0.5; stroke: #1f77b4; stroke-opacity: 0.5; stroke-linejoin: miter"/>
      <path d="M 255.650369 98.921583 
L 253.650369 97.921583 
L 253.650369 99.921583 
z
" clip-path="url(#p3ed54d6fbe)" style="fill: #1f77b4; fill-opacity: 0.5; stroke: #1f77b4; stroke-opacity: 0.5; stroke-linejoin: miter"/>
      <path d="M 255.650369 172.008927 
L 253.650369 171.008927 
L 253.650369 173.008927 
z
" clip-path="url(#p3ed54d6fbe)" style="fill: #1f77b4; fill-opacity: 0.5; stroke: #1f77b4; stroke-opacity: 0.5; stroke-linejoin: miter"/>
      <path d="M 255.650369 164.878946 
L 253.650369 163.878946 
L 253.650369 165.878946 
z
" clip-path="url(#p3ed54d6fbe)" style="fill: #1f77b4; fill-opacity: 0.5; stroke: #1f77b4; stroke-opacity: 0.5; stroke-linejoin: miter"/>
      <path d="M 255.650369 133.483854 
L 253.650369 132.483854 
L 253.650369 134.483854 
z
" clip-path="url(#p3ed54d6fbe)" style="fill: #1f77b4; fill-opacity: 0.5; stroke: #1f77b4; stroke-opacity: 0.5; stroke-linejoin: miter"/>
      <path d="M 255.650369 142.059239 
L 253.650369 141.059239 
L 253.650369 143.059239 
z
" clip-path="url(#p3ed54d6fbe)" style="fill: #1f77b4; fill-opacity: 0.5; stroke: #1f77b4; stroke-opacity: 0.5; stroke-linejoin: miter"/>
      <path d="M 446.799004 175.013425 
L 444.799004 174.013425 
L 444.799004 176.013425 
z
" clip-path="url(#p3ed54d6fbe)" style="fill: #ff7f0e; fill-opacity: 0.5; stroke: #ff7f0e; stroke-opacity: 0.5; stroke-linejoin: miter"/>
      <path d="M 446.799004 174.544673 
L 444.799004 173.544673 
L 444.799004 175.544673 
z
" clip-path="url(#p3ed54d6fbe)" style="fill: #ff7f0e; fill-opacity: 0.5; stroke: #ff7f0e; stroke-opacity: 0.5; stroke-linejoin: miter"/>
      <path d="M 446.799004 115.065582 
L 444.799004 114.065582 
L 444.799004 116.065582 
z
" clip-path="url(#p3ed54d6fbe)" style="fill: #ff7f0e; fill-opacity: 0.5; stroke: #ff7f0e; stroke-opacity: 0.5; stroke-linejoin: miter"/>
      <path d="M 446.799004 97.153924 
L 444.799004 96.153924 
L 444.799004 98.153924 
z
" clip-path="url(#p3ed54d6fbe)" style="fill: #ff7f0e; fill-opacity: 0.5; stroke: #ff7f0e; stroke-opacity: 0.5; stroke-linejoin: miter"/>
      <path d="M 446.799004 100.860144 
L 444.799004 99.860144 
L 444.799004 101.860144 
z
" clip-path="url(#p3ed54d6fbe)" style="fill: #ff7f0e; fill-opacity: 0.5; stroke: #ff7f0e; stroke-opacity: 0.5; stroke-linejoin: miter"/>
      <path d="M 446.799004 152.622882 
L 444.799004 151.622882 
L 444.799004 153.622882 
z
" clip-path="url(#p3ed54d6fbe)" style="fill: #ff7f0e; fill-opacity: 0.5; stroke: #ff7f0e; stroke-opacity: 0.5; stroke-linejoin: miter"/>
      <path d="M 446.799004 183.280704 
L 444.799004 182.280704 
L 444.799004 184.280704 
z
" clip-path="url(#p3ed54d6fbe)" style="fill: #ff7f0e; fill-opacity: 0.5; stroke: #ff7f0e; stroke-opacity: 0.5; stroke-linejoin: miter"/>
      <path d="M 446.799004 139.044293 
L 444.799004 138.044293 
L 444.799004 140.044293 
z
" clip-path="url(#p3ed54d6fbe)" style="fill: #ff7f0e; fill-opacity: 0.5; stroke: #ff7f0e; stroke-opacity: 0.5; stroke-linejoin: miter"/>
      <path d="M 446.799004 168.288679 
L 444.799004 167.288679 
L 444.799004 169.288679 
z
" clip-path="url(#p3ed54d6fbe)" style="fill: #ff7f0e; fill-opacity: 0.5; stroke: #ff7f0e; stroke-opacity: 0.5; stroke-linejoin: miter"/>
      <path d="M 446.799004 124.397011 
L 444.799004 123.397011 
L 444.799004 125.397011 
z
" clip-path="url(#p3ed54d6fbe)" style="fill: #ff7f0e; fill-opacity: 0.5; stroke: #ff7f0e; stroke-opacity: 0.5; stroke-linejoin: miter"/>
      <g id="patch_6">
       <path d="M 43.78125 318.021875 
L 43.78125 22.318125 
" style="fill: none; stroke: #000000; stroke-width: 0.8; stroke-linejoin: miter; stroke-linecap: square"/>
      </g>
      <g id="text_11">
       <!-- defaults_migration_properties.yaml -->
       <g transform="translate(215.434687 16.318125) scale(0.12 -0.12)">
        <defs>
         <path id="DejaVuSans-66" d="M 2375 4863 
L 2375 4384 
L 1825 4384 
Q 1516 4384 1395 4259 
Q 1275 4134 1275 3809 
L 1275 3500 
L 2222 3500 
L 2222 3053 
L 1275 3053 
L 1275 0 
L 697 0 
L 697 3053 
L 147 3053 
L 147 3500 
L 697 3500 
L 697 3744 
Q 697 4328 969 4595 
Q 1241 4863 1831 4863 
L 2375 4863 
z
" transform="scale(0.015625)"/>
         <path id="DejaVuSans-75" d="M 544 1381 
L 544 3500 
L 1119 3500 
L 1119 1403 
Q 1119 906 1312 657 
Q 1506 409 1894 409 
Q 2359 409 2629 706 
Q 2900 1003 2900 1516 
L 2900 3500 
L 3475 3500 
L 3475 0 
L 2900 0 
L 2900 538 
Q 2691 219 2414 64 
Q 2138 -91 1772 -91 
Q 1169 -91 856 284 
Q 544 659 544 1381 
z
M 1991 3584 
L 1991 3584 
z
" transform="scale(0.015625)"/>
         <path id="DejaVuSans-6c" d="M 603 4863 
L 1178 4863 
L 1178 0 
L 603 0 
L 603 4863 
z
" transform="scale(0.015625)"/>
         <path id="DejaVuSans-5f" d="M 3263 -1063 
L 3263 -1509 
L -63 -1509 
L -63 -1063 
L 3263 -1063 
z
" transform="scale(0.015625)"/>
         <path id="DejaVuSans-70" d="M 1159 525 
L 1159 -1331 
L 581 -1331 
L 581 3500 
L 1159 3500 
L 1159 2969 
Q 1341 3281 1617 3432 
Q 1894 3584 2278 3584 
Q 2916 3584 3314 3078 
Q 3713 2572 3713 1747 
Q 3713 922 3314 415 
Q 2916 -91 2278 -91 
Q 1894 -91 1617 61 
Q 1341 213 1159 525 
z
M 3116 1747 
Q 3116 2381 2855 2742 
Q 2594 3103 2138 3103 
Q 1681 3103 1420 2742 
Q 1159 2381 1159 1747 
Q 1159 1113 1420 752 
Q 1681 391 2138 391 
Q 2594 391 2855 752 
Q 3116 1113 3116 1747 
z
" transform="scale(0.015625)"/>
         <path id="DejaVuSans-79" d="M 2059 -325 
Q 1816 -950 1584 -1140 
Q 1353 -1331 966 -1331 
L 506 -1331 
L 506 -850 
L 844 -850 
Q 1081 -850 1212 -737 
Q 1344 -625 1503 -206 
L 1606 56 
L 191 3500 
L 800 3500 
L 1894 763 
L 2988 3500 
L 3597 3500 
L 2059 -325 
z
" transform="scale(0.015625)"/>
        </defs>
        <use xlink:href="#DejaVuSans-64"/>
        <use xlink:href="#DejaVuSans-65" x="63.476562"/>
        <use xlink:href="#DejaVuSans-66" x="125"/>
        <use xlink:href="#DejaVuSans-61" x="160.205078"/>
        <use xlink:href="#DejaVuSans-75" x="221.484375"/>
        <use xlink:href="#DejaVuSans-6c" x="284.863281"/>
        <use xlink:href="#DejaVuSans-74" x="312.646484"/>
        <use xlink:href="#DejaVuSans-73" x="351.855469"/>
        <use xlink:href="#DejaVuSans-5f" x="403.955078"/>
        <use xlink:href="#DejaVuSans-6d" x="453.955078"/>
        <use xlink:href="#DejaVuSans-69" x="551.367188"/>
        <use xlink:href="#DejaVuSans-67" x="579.150391"/>
        <use xlink:href="#DejaVuSans-72" x="642.626953"/>
        <use xlink:href="#DejaVuSans-61" x="683.740234"/>
        <use xlink:href="#DejaVuSans-74" x="745.019531"/>
        <use xlink:href="#DejaVuSans-69" x="784.228516"/>
        <use xlink:href="#DejaVuSans-6f" x="812.011719"/>
        <use xlink:href="#DejaVuSans-6e" x="873.193359"/>
        <use xlink:href="#DejaVuSans-5f" x="936.572266"/>
        <use xlink:href="#DejaVuSans-70" x="986.572266"/>
        <use xlink:href="#DejaVuSans-72" x="1050.048828"/>
        <use xlink:href="#DejaVuSans-6f" x="1088.912109"/>
        <use xlink:href="#DejaVuSans-70" x="1150.09375"/>
        <use xlink:href="#DejaVuSans-65" x="1213.570312"/>
        <use xlink:href="#DejaVuSans-72" x="1275.09375"/>
        <use xlink:href="#DejaVuSans-74" x="1316.207031"/>
        <use xlink:href="#DejaVuSans-69" x="1355.416016"/>
        <use xlink:href="#DejaVuSans-65" x="1383.199219"/>
        <use xlink:href="#DejaVuSans-73" x="1444.722656"/>
        <use xlink:href="#DejaVuSans-2e" x="1496.822266"/>
        <use xlink:href="#DejaVuSans-79" x="1528.609375"/>
        <use xlink:href="#DejaVuSans-61" x="1587.789062"/>
        <use xlink:href="#DejaVuSans-6d" x="1649.068359"/>
        <use xlink:href="#DejaVuSans-6c" x="1746.480469"/>
       </g>
      </g>
     </g>
    </g>
    <defs>
     <clipPath id="p3ed54d6fbe">
      <rect x="43.78125" y="22.318125" width="556.21875" height="295.70375"/>
     </clipPath>
    </defs>
   </g>
  </g>
 </g>
</svg>