<?xml version="1.0" encoding="utf-8" standalone="no"?>
<!DOCTYPE svg PUBLIC "-//W3C//DTD SVG 1.1//EN"
  "http://www.w3.org/Graphics/SVG/1.1/DTD/svg11.dtd">
<svg xmlns:xlink="http://www.w3.org/1999/xlink" width="607.2pt" height="338.4pt" viewBox="0 0 607.2 338.4" xmlns="http://www.w3.org/2000/svg" version="1.1">
 <metadata>
  <rdf:RDF xmlns:dc="http://purl.org/dc/elements/1.1/" xmlns:cc="http://creativecommons.org/ns#" xmlns:rdf="http://www.w3.org/1999/02/22-rdf-syntax-ns#">
   <cc:Work>
    <dc:type rdf:resource="http://purl.org/dc/dcmitype/StillImage"/>
    <dc:date>2024-02-05T08:23:42.975468</dc:date>
    <dc:format>image/svg+xml</dc:format>
    <dc:creator>
     <cc:Agent>
      <dc:title>Matplotlib v3.7.2, https://matplotlib.org/</dc:title>
     </cc:Agent>
    </dc:creator>
   </cc:Work>
  </rdf:RDF>
 </metadata>
 <defs>
  <style type="text/css">*{stroke-linejoin: round; stroke-linecap: butt}</style>
 </defs>
 <g id="figure_1">
  <g id="patch_1">
   <path d="M 0 338.4 
L 607.2 338.4 
L 607.2 0 
L 0 0 
z
" style="fill: #ffffff"/>
  </g>
  <g id="axes_1">
   <g id="patch_2">
    <path d="M 43.78125 318.021875 
L 600 318.021875 
L 600 22.318125 
L 43.78125 22.318125 
z
" style="fill: #ffffff"/>
   </g>
   <path d="M 290.098299 192.866792 
L 291.098299 192.898228 
L 292.098299 192.935168 
L 293.098299 193.032915 
L 294.098299 193.065436 
L 295.098299 193.139061 
L 296.098299 193.177627 
L 297.098299 193.21304 
L 298.098299 193.27068 
L 299.098299 193.341066 
L 300.098299 193.39303 
L 301.098299 193.45212 
L 302.098299 193.540441 
L 303.098299 193.586585 
L 304.098299 193.628996 
L 305.098299 193.659489 
L 306.098299 193.685534 
L 307.098299 193.706734 
L 308.098299 193.761035 
L 309.098299 193.788973 
L 310.098299 193.818697 
L 311.098299 193.844091 
L 312.098299 193.855292 
L 313.098299 193.865416 
L 314.098299 193.865211 
L 315.098299 193.855701 
L 316.098299 193.844048 
L 317.098299 193.813019 
L 318.098299 193.801851 
L 319.098299 193.771733 
L 320.098299 193.711956 
L 321.098299 193.674765 
L 322.098299 193.635669 
L 323.098299 193.593229 
L 324.098299 193.560464 
L 325.098299 193.493037 
L 326.098299 193.453911 
L 327.098299 193.411237 
L 328.098299 193.340656 
L 329.098299 193.304265 
L 330.098299 193.245862 
L 331.098299 193.13491 
L 332.098299 193.064251 
L 333.098299 192.951312 
L 334.098299 192.905539 
L 335.098299 192.844255 
L 336.098299 192.795756 
L 337.098299 192.714933 
L 338.098299 192.596415 
L 339.098299 192.526204 
L 340.098299 192.442941 
L 341.098299 192.4098 
L 342.098299 192.358562 
L 343.098299 192.290164 
L 344.098299 192.223949 
L 345.098299 192.147032 
L 346.098299 192.119716 
L 347.098299 192.093239 
L 348.098299 192.070588 
L 349.098299 192.051057 
L 350.098299 192.024663 
L 351.098299 191.974892 
L 352.098299 191.939819 
L 353.682951 191.903953 
" clip-path="url(#p94ef64f7f5)" style="fill: none; stroke: #1f77b4; stroke-opacity: 0.5; stroke-width: 0.2; stroke-linecap: square"/>
   <path d="M 290.098299 120.217266 
L 291.098299 120.248702 
L 292.098299 120.285642 
L 293.098299 120.383389 
L 294.098299 120.415911 
L 295.098299 120.489535 
L 296.098299 120.528101 
L 297.098299 120.563514 
L 298.098299 120.621154 
L 299.098299 120.69154 
L 300.098299 120.743504 
L 301.098299 120.802594 
L 302.098299 120.890915 
L 303.098299 120.937059 
L 304.098299 120.97947 
L 305.098299 121.009963 
L 306.098299 121.036008 
L 307.098299 121.057208 
L 308.098299 121.111509 
L 309.098299 121.139447 
L 310.098299 121.169171 
L 311.098299 121.194565 
L 312.098299 121.205766 
L 313.098299 121.21589 
L 314.098299 121.215685 
L 315.098299 121.206176 
L 316.098299 121.194522 
L 317.098299 121.163493 
L 318.098299 121.152325 
L 319.098299 121.122207 
L 320.098299 121.06243 
L 321.098299 121.025239 
L 322.098299 120.986143 
L 323.098299 120.943703 
L 324.098299 120.910938 
L 325.098299 120.843512 
L 326.098299 120.804386 
L 327.098299 120.761711 
L 328.098299 120.69113 
L 329.098299 120.65474 
L 330.098299 120.596336 
L 331.098299 120.485384 
L 332.098299 120.414726 
L 333.098299 120.301786 
L 334.098299 120.256013 
L 335.098299 120.19473 
L 336.098299 120.14623 
L 337.098299 120.065408 
L 338.098299 119.946889 
L 339.098299 119.876678 
L 340.098299 119.793416 
L 341.098299 119.760274 
L 342.098299 119.709036 
L 343.098299 119.640638 
L 344.098299 119.574423 
L 345.098299 119.497506 
L 346.098299 119.47019 
L 347.098299 119.443713 
L 348.098299 119.421062 
L 349.098299 119.401531 
L 350.098299 119.375137 
L 351.098299 119.325366 
L 352.098299 119.290293 
L 353.682951 119.254427 
" clip-path="url(#p94ef64f7f5)" style="fill: none; stroke: #1f77b4; stroke-opacity: 0.5; stroke-width: 0.2; stroke-linecap: square"/>
   <path d="M 290.098299 158.748765 
L 291.098299 158.780202 
L 292.098299 158.817142 
L 293.098299 158.914889 
L 294.098299 158.94741 
L 295.098299 159.021035 
L 296.098299 159.059601 
L 297.098299 159.095014 
L 298.098299 159.152654 
L 299.098299 159.22304 
L 300.098299 159.275004 
L 301.098299 159.334094 
L 302.098299 159.422415 
L 303.098299 159.468559 
L 304.098299 159.51097 
L 305.098299 159.541463 
L 306.098299 159.567508 
L 307.098299 159.588708 
L 308.098299 159.643009 
L 309.098299 159.670946 
L 310.098299 159.70067 
L 311.098299 159.726065 
L 312.098299 159.737266 
L 313.098299 159.747389 
L 314.098299 159.747185 
L 315.098299 159.737675 
L 316.098299 159.726022 
L 317.098299 159.694992 
L 318.098299 159.683825 
L 319.098299 159.653707 
L 320.098299 159.59393 
L 321.098299 159.556739 
L 322.098299 159.517642 
L 323.098299 159.475203 
L 324.098299 159.442438 
L 325.098299 159.375011 
L 326.098299 159.335885 
L 327.098299 159.293211 
L 328.098299 159.22263 
L 329.098299 159.186239 
L 330.098299 159.127836 
L 331.098299 159.016884 
L 332.098299 158.946225 
L 333.098299 158.833285 
L 334.098299 158.787513 
L 335.098299 158.726229 
L 336.098299 158.67773 
L 337.098299 158.596907 
L 338.098299 158.478388 
L 339.098299 158.408178 
L 340.098299 158.324915 
L 341.098299 158.291773 
L 342.098299 158.240536 
L 343.098299 158.172138 
L 344.098299 158.105922 
L 345.098299 158.029005 
L 346.098299 158.00169 
L 347.098299 157.975212 
L 348.098299 157.952562 
L 349.098299 157.93303 
L 350.098299 157.906636 
L 351.098299 157.856866 
L 352.098299 157.821792 
L 353.682951 157.785927 
" clip-path="url(#p94ef64f7f5)" style="fill: none; stroke: #1f77b4; stroke-opacity: 0.5; stroke-width: 0.2; stroke-linecap: square"/>
   <path d="M 290.098299 125.705433 
L 291.098299 125.736869 
L 292.098299 125.773809 
L 293.098299 125.871556 
L 294.098299 125.904077 
L 295.098299 125.977702 
L 296.098299 126.016268 
L 297.098299 126.051681 
L 298.098299 126.109321 
L 299.098299 126.179707 
L 300.098299 126.231671 
L 301.098299 126.290761 
L 302.098299 126.379082 
L 303.098299 126.425226 
L 304.098299 126.467637 
L 305.098299 126.49813 
L 306.098299 126.524175 
L 307.098299 126.545375 
L 308.098299 126.599676 
L 309.098299 126.627614 
L 310.098299 126.657338 
L 311.098299 126.682732 
L 312.098299 126.693933 
L 313.098299 126.704057 
L 314.098299 126.703852 
L 315.098299 126.694342 
L 316.098299 126.682689 
L 317.098299 126.65166 
L 318.098299 126.640492 
L 319.098299 126.610374 
L 320.098299 126.550597 
L 321.098299 126.513406 
L 322.098299 126.47431 
L 323.098299 126.43187 
L 324.098299 126.399105 
L 325.098299 126.331678 
L 326.098299 126.292552 
L 327.098299 126.249878 
L 328.098299 126.179297 
L 329.098299 126.142906 
L 330.098299 126.084503 
L 331.098299 125.973551 
L 332.098299 125.902892 
L 333.098299 125.789953 
L 334.098299 125.74418 
L 335.098299 125.682896 
L 336.098299 125.634397 
L 337.098299 125.553574 
L 338.098299 125.435056 
L 339.098299 125.364845 
L 340.098299 125.281582 
L 341.098299 125.248441 
L 342.098299 125.197203 
L 343.098299 125.128805 
L 344.098299 125.06259 
L 345.098299 124.985672 
L 346.098299 124.958357 
L 347.098299 124.93188 
L 348.098299 124.909229 
L 349.098299 124.889698 
L 350.098299 124.863304 
L 351.098299 124.813533 
L 352.098299 124.77846 
L 353.682951 124.742594 
" clip-path="url(#p94ef64f7f5)" style="fill: none; stroke: #1f77b4; stroke-opacity: 0.5; stroke-width: 0.2; stroke-linecap: square"/>
   <path d="M 290.098299 92.543036 
L 291.098299 92.574473 
L 292.098299 92.611413 
L 293.098299 92.70916 
L 294.098299 92.741681 
L 295.098299 92.815306 
L 296.098299 92.853871 
L 297.098299 92.889285 
L 298.098299 92.946925 
L 299.098299 93.017311 
L 300.098299 93.069275 
L 301.098299 93.128365 
L 302.098299 93.216686 
L 303.098299 93.26283 
L 304.098299 93.305241 
L 305.098299 93.335734 
L 306.098299 93.361778 
L 307.098299 93.382979 
L 308.098299 93.43728 
L 309.098299 93.465217 
L 310.098299 93.494941 
L 311.098299 93.520336 
L 312.098299 93.531536 
L 313.098299 93.54166 
L 314.098299 93.541456 
L 315.098299 93.531946 
L 316.098299 93.520293 
L 317.098299 93.489263 
L 318.098299 93.478095 
L 319.098299 93.447978 
L 320.098299 93.388201 
L 321.098299 93.351009 
L 322.098299 93.311913 
L 323.098299 93.269474 
L 324.098299 93.236709 
L 325.098299 93.169282 
L 326.098299 93.130156 
L 327.098299 93.087482 
L 328.098299 93.016901 
L 329.098299 92.98051 
L 330.098299 92.922107 
L 331.098299 92.811154 
L 332.098299 92.740496 
L 333.098299 92.627556 
L 334.098299 92.581783 
L 335.098299 92.5205 
L 336.098299 92.472001 
L 337.098299 92.391178 
L 338.098299 92.272659 
L 339.098299 92.202449 
L 340.098299 92.119186 
L 341.098299 92.086044 
L 342.098299 92.034807 
L 343.098299 91.966409 
L 344.098299 91.900193 
L 345.098299 91.823276 
L 346.098299 91.795961 
L 347.098299 91.769483 
L 348.098299 91.746833 
L 349.098299 91.727301 
L 350.098299 91.700907 
L 351.098299 91.651136 
L 352.098299 91.616063 
L 353.682951 91.580198 
" clip-path="url(#p94ef64f7f5)" style="fill: none; stroke: #1f77b4; stroke-opacity: 0.5; stroke-width: 0.2; stroke-linecap: square"/>
   <path d="M 290.098299 175.092992 
L 291.098299 175.124428 
L 292.098299 175.161368 
L 293.098299 175.259115 
L 294.098299 175.291637 
L 295.098299 175.365261 
L 296.098299 175.403827 
L 297.098299 175.43924 
L 298.098299 175.49688 
L 299.098299 175.567266 
L 300.098299 175.61923 
L 301.098299 175.67832 
L 302.098299 175.766641 
L 303.098299 175.812785 
L 304.098299 175.855196 
L 305.098299 175.885689 
L 306.098299 175.911734 
L 307.098299 175.932934 
L 308.098299 175.987235 
L 309.098299 176.015173 
L 310.098299 176.044897 
L 311.098299 176.070291 
L 312.098299 176.081492 
L 313.098299 176.091616 
L 314.098299 176.091411 
L 315.098299 176.081902 
L 316.098299 176.070248 
L 317.098299 176.039219 
L 318.098299 176.028051 
L 319.098299 175.997933 
L 320.098299 175.938156 
L 321.098299 175.900965 
L 322.098299 175.861869 
L 323.098299 175.819429 
L 324.098299 175.786664 
L 325.098299 175.719238 
L 326.098299 175.680112 
L 327.098299 175.637437 
L 328.098299 175.566857 
L 329.098299 175.530466 
L 330.098299 175.472062 
L 331.098299 175.36111 
L 332.098299 175.290452 
L 333.098299 175.177512 
L 334.098299 175.131739 
L 335.098299 175.070456 
L 336.098299 175.021956 
L 337.098299 174.941134 
L 338.098299 174.822615 
L 339.098299 174.752404 
L 340.098299 174.669142 
L 341.098299 174.636 
L 342.098299 174.584763 
L 343.098299 174.516364 
L 344.098299 174.450149 
L 345.098299 174.373232 
L 346.098299 174.345916 
L 347.098299 174.319439 
L 348.098299 174.296788 
L 349.098299 174.277257 
L 350.098299 174.250863 
L 351.098299 174.201092 
L 352.098299 174.166019 
L 353.682951 174.130153 
" clip-path="url(#p94ef64f7f5)" style="fill: none; stroke: #1f77b4; stroke-opacity: 0.5; stroke-width: 0.2; stroke-linecap: square"/>
   <path d="M 290.098299 113.737931 
L 291.098299 113.769368 
L 292.098299 113.806308 
L 293.098299 113.904055 
L 294.098299 113.936576 
L 295.098299 114.010201 
L 296.098299 114.048767 
L 297.098299 114.08418 
L 298.098299 114.14182 
L 299.098299 114.212206 
L 300.098299 114.26417 
L 301.098299 114.32326 
L 302.098299 114.411581 
L 303.098299 114.457725 
L 304.098299 114.500136 
L 305.098299 114.530629 
L 306.098299 114.556674 
L 307.098299 114.577874 
L 308.098299 114.632175 
L 309.098299 114.660112 
L 310.098299 114.689836 
L 311.098299 114.715231 
L 312.098299 114.726432 
L 313.098299 114.736556 
L 314.098299 114.736351 
L 315.098299 114.726841 
L 316.098299 114.715188 
L 317.098299 114.684158 
L 318.098299 114.672991 
L 319.098299 114.642873 
L 320.098299 114.583096 
L 321.098299 114.545905 
L 322.098299 114.506808 
L 323.098299 114.464369 
L 324.098299 114.431604 
L 325.098299 114.364177 
L 326.098299 114.325051 
L 327.098299 114.282377 
L 328.098299 114.211796 
L 329.098299 114.175405 
L 330.098299 114.117002 
L 331.098299 114.00605 
L 332.098299 113.935391 
L 333.098299 113.822451 
L 334.098299 113.776679 
L 335.098299 113.715395 
L 336.098299 113.666896 
L 337.098299 113.586073 
L 338.098299 113.467554 
L 339.098299 113.397344 
L 340.098299 113.314081 
L 341.098299 113.280939 
L 342.098299 113.229702 
L 343.098299 113.161304 
L 344.098299 113.095088 
L 345.098299 113.018171 
L 346.098299 112.990856 
L 347.098299 112.964378 
L 348.098299 112.941728 
L 349.098299 112.922196 
L 350.098299 112.895802 
L 351.098299 112.846032 
L 352.098299 112.810958 
L 353.682951 112.775093 
" clip-path="url(#p94ef64f7f5)" style="fill: none; stroke: #1f77b4; stroke-opacity: 0.5; stroke-width: 0.2; stroke-linecap: square"/>
   <path d="M 290.098299 193.854743 
L 291.098299 193.886179 
L 292.098299 193.92312 
L 293.098299 194.020866 
L 294.098299 194.053388 
L 295.098299 194.127013 
L 296.098299 194.165578 
L 297.098299 194.200991 
L 298.098299 194.258631 
L 299.098299 194.329018 
L 300.098299 194.380982 
L 301.098299 194.440072 
L 302.098299 194.528392 
L 303.098299 194.574537 
L 304.098299 194.616948 
L 305.098299 194.64744 
L 306.098299 194.673485 
L 307.098299 194.694685 
L 308.098299 194.748987 
L 309.098299 194.776924 
L 310.098299 194.806648 
L 311.098299 194.832043 
L 312.098299 194.843243 
L 313.098299 194.853367 
L 314.098299 194.853163 
L 315.098299 194.843653 
L 316.098299 194.831999 
L 317.098299 194.80097 
L 318.098299 194.789802 
L 319.098299 194.759685 
L 320.098299 194.699908 
L 321.098299 194.662716 
L 322.098299 194.62362 
L 323.098299 194.581181 
L 324.098299 194.548415 
L 325.098299 194.480989 
L 326.098299 194.441863 
L 327.098299 194.399189 
L 328.098299 194.328608 
L 329.098299 194.292217 
L 330.098299 194.233814 
L 331.098299 194.122861 
L 332.098299 194.052203 
L 333.098299 193.939263 
L 334.098299 193.89349 
L 335.098299 193.832207 
L 336.098299 193.783708 
L 337.098299 193.702885 
L 338.098299 193.584366 
L 339.098299 193.514155 
L 340.098299 193.430893 
L 341.098299 193.397751 
L 342.098299 193.346514 
L 343.098299 193.278116 
L 344.098299 193.2119 
L 345.098299 193.134983 
L 346.098299 193.107668 
L 347.098299 193.08119 
L 348.098299 193.058539 
L 349.098299 193.039008 
L 350.098299 193.012614 
L 351.098299 192.962843 
L 352.098299 192.92777 
L 353.682951 192.891905 
" clip-path="url(#p94ef64f7f5)" style="fill: none; stroke: #1f77b4; stroke-opacity: 0.5; stroke-width: 0.2; stroke-linecap: square"/>
   <path d="M 290.098299 81.522172 
L 291.098299 81.553608 
L 292.098299 81.590549 
L 293.098299 81.688295 
L 294.098299 81.720817 
L 295.098299 81.794441 
L 296.098299 81.833007 
L 297.098299 81.86842 
L 298.098299 81.92606 
L 299.098299 81.996446 
L 300.098299 82.048411 
L 301.098299 82.1075 
L 302.098299 82.195821 
L 303.098299 82.241966 
L 304.098299 82.284376 
L 305.098299 82.314869 
L 306.098299 82.340914 
L 307.098299 82.362114 
L 308.098299 82.416415 
L 309.098299 82.444353 
L 310.098299 82.474077 
L 311.098299 82.499472 
L 312.098299 82.510672 
L 313.098299 82.520796 
L 314.098299 82.520592 
L 315.098299 82.511082 
L 316.098299 82.499428 
L 317.098299 82.468399 
L 318.098299 82.457231 
L 319.098299 82.427114 
L 320.098299 82.367337 
L 321.098299 82.330145 
L 322.098299 82.291049 
L 323.098299 82.248609 
L 324.098299 82.215844 
L 325.098299 82.148418 
L 326.098299 82.109292 
L 327.098299 82.066617 
L 328.098299 81.996037 
L 329.098299 81.959646 
L 330.098299 81.901243 
L 331.098299 81.79029 
L 332.098299 81.719632 
L 333.098299 81.606692 
L 334.098299 81.560919 
L 335.098299 81.499636 
L 336.098299 81.451136 
L 337.098299 81.370314 
L 338.098299 81.251795 
L 339.098299 81.181584 
L 340.098299 81.098322 
L 341.098299 81.06518 
L 342.098299 81.013943 
L 343.098299 80.945544 
L 344.098299 80.879329 
L 345.098299 80.802412 
L 346.098299 80.775096 
L 347.098299 80.748619 
L 348.098299 80.725968 
L 349.098299 80.706437 
L 350.098299 80.680043 
L 351.098299 80.630272 
L 352.098299 80.595199 
L 353.682951 80.559333 
" clip-path="url(#p94ef64f7f5)" style="fill: none; stroke: #1f77b4; stroke-opacity: 0.5; stroke-width: 0.2; stroke-linecap: square"/>
   <path d="M 290.098299 151.895045 
L 291.098299 151.926481 
L 292.098299 151.963422 
L 293.098299 152.061168 
L 294.098299 152.09369 
L 295.098299 152.167314 
L 296.098299 152.20588 
L 297.098299 152.241293 
L 298.098299 152.298933 
L 299.098299 152.369319 
L 300.098299 152.421284 
L 301.098299 152.480373 
L 302.098299 152.568694 
L 303.098299 152.614839 
L 304.098299 152.657249 
L 305.098299 152.687742 
L 306.098299 152.713787 
L 307.098299 152.734987 
L 308.098299 152.789288 
L 309.098299 152.817226 
L 310.098299 152.84695 
L 311.098299 152.872345 
L 312.098299 152.883545 
L 313.098299 152.893669 
L 314.098299 152.893465 
L 315.098299 152.883955 
L 316.098299 152.872301 
L 317.098299 152.841272 
L 318.098299 152.830104 
L 319.098299 152.799986 
L 320.098299 152.74021 
L 321.098299 152.703018 
L 322.098299 152.663922 
L 323.098299 152.621482 
L 324.098299 152.588717 
L 325.098299 152.521291 
L 326.098299 152.482165 
L 327.098299 152.43949 
L 328.098299 152.36891 
L 329.098299 152.332519 
L 330.098299 152.274116 
L 331.098299 152.163163 
L 332.098299 152.092505 
L 333.098299 151.979565 
L 334.098299 151.933792 
L 335.098299 151.872509 
L 336.098299 151.824009 
L 337.098299 151.743187 
L 338.098299 151.624668 
L 339.098299 151.554457 
L 340.098299 151.471195 
L 341.098299 151.438053 
L 342.098299 151.386816 
L 343.098299 151.318417 
L 344.098299 151.252202 
L 345.098299 151.175285 
L 346.098299 151.147969 
L 347.098299 151.121492 
L 348.098299 151.098841 
L 349.098299 151.07931 
L 350.098299 151.052916 
L 351.098299 151.003145 
L 352.098299 150.968072 
L 353.682951 150.932206 
" clip-path="url(#p94ef64f7f5)" style="fill: none; stroke: #1f77b4; stroke-opacity: 0.5; stroke-width: 0.2; stroke-linecap: square"/>
   <path d="M 290.098299 298.72426 
L 291.098299 298.755696 
L 292.098299 298.792637 
L 293.098299 298.890383 
L 294.098299 298.922905 
L 295.098299 298.99653 
L 296.098299 299.035095 
L 297.098299 299.070508 
L 298.098299 299.128148 
L 299.098299 299.198534 
L 300.098299 299.250499 
L 301.098299 299.309588 
L 302.098299 299.397909 
L 303.098299 299.444054 
L 304.098299 299.486465 
L 305.098299 299.516957 
L 306.098299 299.543002 
L 307.098299 299.564202 
L 308.098299 299.618503 
L 309.098299 299.646441 
L 310.098299 299.676165 
L 311.098299 299.70156 
L 312.098299 299.71276 
L 313.098299 299.722884 
L 314.098299 299.72268 
L 315.098299 299.71317 
L 316.098299 299.701516 
L 317.098299 299.670487 
L 318.098299 299.659319 
L 319.098299 299.629202 
L 320.098299 299.569425 
L 321.098299 299.532233 
L 322.098299 299.493137 
L 323.098299 299.450697 
L 324.098299 299.417932 
L 325.098299 299.350506 
L 326.098299 299.31138 
L 327.098299 299.268705 
L 328.098299 299.198125 
L 329.098299 299.161734 
L 330.098299 299.103331 
L 331.098299 298.992378 
L 332.098299 298.92172 
L 333.098299 298.80878 
L 334.098299 298.763007 
L 335.098299 298.701724 
L 336.098299 298.653225 
L 337.098299 298.572402 
L 338.098299 298.453883 
L 339.098299 298.383672 
L 340.098299 298.30041 
L 341.098299 298.267268 
L 342.098299 298.216031 
L 343.098299 298.147632 
L 344.098299 298.081417 
L 345.098299 298.0045 
L 346.098299 297.977184 
L 347.098299 297.950707 
L 348.098299 297.928056 
L 349.098299 297.908525 
L 350.098299 297.882131 
L 351.098299 297.83236 
L 352.098299 297.797287 
L 353.682951 297.761421 
" clip-path="url(#p94ef64f7f5)" style="fill: none; stroke: #1f77b4; stroke-opacity: 0.5; stroke-width: 0.2; stroke-linecap: square"/>
   <path d="M 290.098299 250.75576 
L 291.098299 250.787196 
L 292.098299 250.824137 
L 293.098299 250.921883 
L 294.098299 250.954405 
L 295.098299 251.028029 
L 296.098299 251.066595 
L 297.098299 251.102008 
L 298.098299 251.159648 
L 299.098299 251.230034 
L 300.098299 251.281999 
L 301.098299 251.341088 
L 302.098299 251.429409 
L 303.098299 251.475554 
L 304.098299 251.517965 
L 305.098299 251.548457 
L 306.098299 251.574502 
L 307.098299 251.595702 
L 308.098299 251.650003 
L 309.098299 251.677941 
L 310.098299 251.707665 
L 311.098299 251.73306 
L 312.098299 251.74426 
L 313.098299 251.754384 
L 314.098299 251.75418 
L 315.098299 251.74467 
L 316.098299 251.733016 
L 317.098299 251.701987 
L 318.098299 251.690819 
L 319.098299 251.660702 
L 320.098299 251.600925 
L 321.098299 251.563733 
L 322.098299 251.524637 
L 323.098299 251.482197 
L 324.098299 251.449432 
L 325.098299 251.382006 
L 326.098299 251.34288 
L 327.098299 251.300205 
L 328.098299 251.229625 
L 329.098299 251.193234 
L 330.098299 251.134831 
L 331.098299 251.023878 
L 332.098299 250.95322 
L 333.098299 250.84028 
L 334.098299 250.794507 
L 335.098299 250.733224 
L 336.098299 250.684725 
L 337.098299 250.603902 
L 338.098299 250.485383 
L 339.098299 250.415172 
L 340.098299 250.33191 
L 341.098299 250.298768 
L 342.098299 250.247531 
L 343.098299 250.179132 
L 344.098299 250.112917 
L 345.098299 250.036 
L 346.098299 250.008684 
L 347.098299 249.982207 
L 348.098299 249.959556 
L 349.098299 249.940025 
L 350.098299 249.913631 
L 351.098299 249.86386 
L 352.098299 249.828787 
L 353.682951 249.792921 
" clip-path="url(#p94ef64f7f5)" style="fill: none; stroke: #1f77b4; stroke-opacity: 0.5; stroke-width: 0.2; stroke-linecap: square"/>
   <path d="M 290.098299 294.713387 
L 291.098299 294.744823 
L 292.098299 294.781764 
L 293.098299 294.87951 
L 294.098299 294.912032 
L 295.098299 294.985656 
L 296.098299 295.024222 
L 297.098299 295.059635 
L 298.098299 295.117275 
L 299.098299 295.187661 
L 300.098299 295.239625 
L 301.098299 295.298715 
L 302.098299 295.387036 
L 303.098299 295.43318 
L 304.098299 295.475591 
L 305.098299 295.506084 
L 306.098299 295.532129 
L 307.098299 295.553329 
L 308.098299 295.60763 
L 309.098299 295.635568 
L 310.098299 295.665292 
L 311.098299 295.690687 
L 312.098299 295.701887 
L 313.098299 295.712011 
L 314.098299 295.711807 
L 315.098299 295.702297 
L 316.098299 295.690643 
L 317.098299 295.659614 
L 318.098299 295.648446 
L 319.098299 295.618328 
L 320.098299 295.558552 
L 321.098299 295.52136 
L 322.098299 295.482264 
L 323.098299 295.439824 
L 324.098299 295.407059 
L 325.098299 295.339633 
L 326.098299 295.300507 
L 327.098299 295.257832 
L 328.098299 295.187252 
L 329.098299 295.150861 
L 330.098299 295.092458 
L 331.098299 294.981505 
L 332.098299 294.910847 
L 333.098299 294.797907 
L 334.098299 294.752134 
L 335.098299 294.690851 
L 336.098299 294.642351 
L 337.098299 294.561529 
L 338.098299 294.44301 
L 339.098299 294.372799 
L 340.098299 294.289537 
L 341.098299 294.256395 
L 342.098299 294.205158 
L 343.098299 294.136759 
L 344.098299 294.070544 
L 345.098299 293.993627 
L 346.098299 293.966311 
L 347.098299 293.939834 
L 348.098299 293.917183 
L 349.098299 293.897652 
L 350.098299 293.871258 
L 351.098299 293.821487 
L 352.098299 293.786414 
L 353.682951 293.750548 
" clip-path="url(#p94ef64f7f5)" style="fill: none; stroke: #1f77b4; stroke-opacity: 0.5; stroke-width: 0.2; stroke-linecap: square"/>
   <path d="M 290.098299 287.154963 
L 291.098299 287.186399 
L 292.098299 287.22334 
L 293.098299 287.321086 
L 294.098299 287.353608 
L 295.098299 287.427232 
L 296.098299 287.465798 
L 297.098299 287.501211 
L 298.098299 287.558851 
L 299.098299 287.629237 
L 300.098299 287.681202 
L 301.098299 287.740291 
L 302.098299 287.828612 
L 303.098299 287.874757 
L 304.098299 287.917167 
L 305.098299 287.94766 
L 306.098299 287.973705 
L 307.098299 287.994905 
L 308.098299 288.049206 
L 309.098299 288.077144 
L 310.098299 288.106868 
L 311.098299 288.132263 
L 312.098299 288.143463 
L 313.098299 288.153587 
L 314.098299 288.153383 
L 315.098299 288.143873 
L 316.098299 288.132219 
L 317.098299 288.10119 
L 318.098299 288.090022 
L 319.098299 288.059904 
L 320.098299 288.000128 
L 321.098299 287.962936 
L 322.098299 287.92384 
L 323.098299 287.8814 
L 324.098299 287.848635 
L 325.098299 287.781209 
L 326.098299 287.742083 
L 327.098299 287.699408 
L 328.098299 287.628828 
L 329.098299 287.592437 
L 330.098299 287.534034 
L 331.098299 287.423081 
L 332.098299 287.352423 
L 333.098299 287.239483 
L 334.098299 287.19371 
L 335.098299 287.132427 
L 336.098299 287.083927 
L 337.098299 287.003105 
L 338.098299 286.884586 
L 339.098299 286.814375 
L 340.098299 286.731113 
L 341.098299 286.697971 
L 342.098299 286.646734 
L 343.098299 286.578335 
L 344.098299 286.51212 
L 345.098299 286.435203 
L 346.098299 286.407887 
L 347.098299 286.38141 
L 348.098299 286.358759 
L 349.098299 286.339228 
L 350.098299 286.312834 
L 351.098299 286.263063 
L 352.098299 286.22799 
L 353.682951 286.192124 
" clip-path="url(#p94ef64f7f5)" style="fill: none; stroke: #1f77b4; stroke-opacity: 0.5; stroke-width: 0.2; stroke-linecap: square"/>
   <path d="M 290.098299 250.103494 
L 291.098299 250.13493 
L 292.098299 250.171871 
L 293.098299 250.269617 
L 294.098299 250.302139 
L 295.098299 250.375763 
L 296.098299 250.414329 
L 297.098299 250.449742 
L 298.098299 250.507382 
L 299.098299 250.577768 
L 300.098299 250.629732 
L 301.098299 250.688822 
L 302.098299 250.777143 
L 303.098299 250.823288 
L 304.098299 250.865698 
L 305.098299 250.896191 
L 306.098299 250.922236 
L 307.098299 250.943436 
L 308.098299 250.997737 
L 309.098299 251.025675 
L 310.098299 251.055399 
L 311.098299 251.080794 
L 312.098299 251.091994 
L 313.098299 251.102118 
L 314.098299 251.101914 
L 315.098299 251.092404 
L 316.098299 251.08075 
L 317.098299 251.049721 
L 318.098299 251.038553 
L 319.098299 251.008435 
L 320.098299 250.948659 
L 321.098299 250.911467 
L 322.098299 250.872371 
L 323.098299 250.829931 
L 324.098299 250.797166 
L 325.098299 250.72974 
L 326.098299 250.690614 
L 327.098299 250.647939 
L 328.098299 250.577359 
L 329.098299 250.540968 
L 330.098299 250.482565 
L 331.098299 250.371612 
L 332.098299 250.300954 
L 333.098299 250.188014 
L 334.098299 250.142241 
L 335.098299 250.080958 
L 336.098299 250.032458 
L 337.098299 249.951636 
L 338.098299 249.833117 
L 339.098299 249.762906 
L 340.098299 249.679644 
L 341.098299 249.646502 
L 342.098299 249.595265 
L 343.098299 249.526866 
L 344.098299 249.460651 
L 345.098299 249.383734 
L 346.098299 249.356418 
L 347.098299 249.329941 
L 348.098299 249.30729 
L 349.098299 249.287759 
L 350.098299 249.261365 
L 351.098299 249.211594 
L 352.098299 249.176521 
L 353.682951 249.140655 
" clip-path="url(#p94ef64f7f5)" style="fill: none; stroke: #1f77b4; stroke-opacity: 0.5; stroke-width: 0.2; stroke-linecap: square"/>
   <path d="M 290.098299 264.055032 
L 291.098299 264.086469 
L 292.098299 264.123409 
L 293.098299 264.221156 
L 294.098299 264.253677 
L 295.098299 264.327302 
L 296.098299 264.365867 
L 297.098299 264.401281 
L 298.098299 264.458921 
L 299.098299 264.529307 
L 300.098299 264.581271 
L 301.098299 264.640361 
L 302.098299 264.728682 
L 303.098299 264.774826 
L 304.098299 264.817237 
L 305.098299 264.84773 
L 306.098299 264.873774 
L 307.098299 264.894975 
L 308.098299 264.949276 
L 309.098299 264.977213 
L 310.098299 265.006937 
L 311.098299 265.032332 
L 312.098299 265.043532 
L 313.098299 265.053656 
L 314.098299 265.053452 
L 315.098299 265.043942 
L 316.098299 265.032289 
L 317.098299 265.001259 
L 318.098299 264.990091 
L 319.098299 264.959974 
L 320.098299 264.900197 
L 321.098299 264.863005 
L 322.098299 264.823909 
L 323.098299 264.78147 
L 324.098299 264.748705 
L 325.098299 264.681278 
L 326.098299 264.642152 
L 327.098299 264.599478 
L 328.098299 264.528897 
L 329.098299 264.492506 
L 330.098299 264.434103 
L 331.098299 264.32315 
L 332.098299 264.252492 
L 333.098299 264.139552 
L 334.098299 264.093779 
L 335.098299 264.032496 
L 336.098299 263.983997 
L 337.098299 263.903174 
L 338.098299 263.784655 
L 339.098299 263.714445 
L 340.098299 263.631182 
L 341.098299 263.59804 
L 342.098299 263.546803 
L 343.098299 263.478405 
L 344.098299 263.412189 
L 345.098299 263.335272 
L 346.098299 263.307957 
L 347.098299 263.281479 
L 348.098299 263.258829 
L 349.098299 263.239297 
L 350.098299 263.212903 
L 351.098299 263.163132 
L 352.098299 263.128059 
L 353.682951 263.092194 
" clip-path="url(#p94ef64f7f5)" style="fill: none; stroke: #1f77b4; stroke-opacity: 0.5; stroke-width: 0.2; stroke-linecap: square"/>
   <path d="M 290.098299 214.482856 
L 291.098299 214.514293 
L 292.098299 214.551233 
L 293.098299 214.648979 
L 294.098299 214.681501 
L 295.098299 214.755126 
L 296.098299 214.793691 
L 297.098299 214.829104 
L 298.098299 214.886744 
L 299.098299 214.957131 
L 300.098299 215.009095 
L 301.098299 215.068185 
L 302.098299 215.156506 
L 303.098299 215.20265 
L 304.098299 215.245061 
L 305.098299 215.275553 
L 306.098299 215.301598 
L 307.098299 215.322799 
L 308.098299 215.3771 
L 309.098299 215.405037 
L 310.098299 215.434761 
L 311.098299 215.460156 
L 312.098299 215.471356 
L 313.098299 215.48148 
L 314.098299 215.481276 
L 315.098299 215.471766 
L 316.098299 215.460113 
L 317.098299 215.429083 
L 318.098299 215.417915 
L 319.098299 215.387798 
L 320.098299 215.328021 
L 321.098299 215.290829 
L 322.098299 215.251733 
L 323.098299 215.209294 
L 324.098299 215.176528 
L 325.098299 215.109102 
L 326.098299 215.069976 
L 327.098299 215.027302 
L 328.098299 214.956721 
L 329.098299 214.92033 
L 330.098299 214.861927 
L 331.098299 214.750974 
L 332.098299 214.680316 
L 333.098299 214.567376 
L 334.098299 214.521603 
L 335.098299 214.46032 
L 336.098299 214.411821 
L 337.098299 214.330998 
L 338.098299 214.212479 
L 339.098299 214.142269 
L 340.098299 214.059006 
L 341.098299 214.025864 
L 342.098299 213.974627 
L 343.098299 213.906229 
L 344.098299 213.840013 
L 345.098299 213.763096 
L 346.098299 213.735781 
L 347.098299 213.709303 
L 348.098299 213.686652 
L 349.098299 213.667121 
L 350.098299 213.640727 
L 351.098299 213.590956 
L 352.098299 213.555883 
L 353.682951 213.520018 
" clip-path="url(#p94ef64f7f5)" style="fill: none; stroke: #1f77b4; stroke-opacity: 0.5; stroke-width: 0.2; stroke-linecap: square"/>
   <path d="M 290.098299 233.541246 
L 291.098299 233.572682 
L 292.098299 233.609623 
L 293.098299 233.707369 
L 294.098299 233.739891 
L 295.098299 233.813515 
L 296.098299 233.852081 
L 297.098299 233.887494 
L 298.098299 233.945134 
L 299.098299 234.01552 
L 300.098299 234.067485 
L 301.098299 234.126574 
L 302.098299 234.214895 
L 303.098299 234.26104 
L 304.098299 234.303451 
L 305.098299 234.333943 
L 306.098299 234.359988 
L 307.098299 234.381188 
L 308.098299 234.435489 
L 309.098299 234.463427 
L 310.098299 234.493151 
L 311.098299 234.518546 
L 312.098299 234.529746 
L 313.098299 234.53987 
L 314.098299 234.539666 
L 315.098299 234.530156 
L 316.098299 234.518502 
L 317.098299 234.487473 
L 318.098299 234.476305 
L 319.098299 234.446188 
L 320.098299 234.386411 
L 321.098299 234.349219 
L 322.098299 234.310123 
L 323.098299 234.267683 
L 324.098299 234.234918 
L 325.098299 234.167492 
L 326.098299 234.128366 
L 327.098299 234.085691 
L 328.098299 234.015111 
L 329.098299 233.97872 
L 330.098299 233.920317 
L 331.098299 233.809364 
L 332.098299 233.738706 
L 333.098299 233.625766 
L 334.098299 233.579993 
L 335.098299 233.51871 
L 336.098299 233.47021 
L 337.098299 233.389388 
L 338.098299 233.270869 
L 339.098299 233.200658 
L 340.098299 233.117396 
L 341.098299 233.084254 
L 342.098299 233.033017 
L 343.098299 232.964618 
L 344.098299 232.898403 
L 345.098299 232.821486 
L 346.098299 232.79417 
L 347.098299 232.767693 
L 348.098299 232.745042 
L 349.098299 232.725511 
L 350.098299 232.699117 
L 351.098299 232.649346 
L 352.098299 232.614273 
L 353.682951 232.578407 
" clip-path="url(#p94ef64f7f5)" style="fill: none; stroke: #1f77b4; stroke-opacity: 0.5; stroke-width: 0.2; stroke-linecap: square"/>
   <path d="M 290.098299 255.751575 
L 291.098299 255.783012 
L 292.098299 255.819952 
L 293.098299 255.917699 
L 294.098299 255.95022 
L 295.098299 256.023845 
L 296.098299 256.06241 
L 297.098299 256.097824 
L 298.098299 256.155464 
L 299.098299 256.22585 
L 300.098299 256.277814 
L 301.098299 256.336904 
L 302.098299 256.425225 
L 303.098299 256.471369 
L 304.098299 256.51378 
L 305.098299 256.544273 
L 306.098299 256.570318 
L 307.098299 256.591518 
L 308.098299 256.645819 
L 309.098299 256.673756 
L 310.098299 256.70348 
L 311.098299 256.728875 
L 312.098299 256.740075 
L 313.098299 256.750199 
L 314.098299 256.749995 
L 315.098299 256.740485 
L 316.098299 256.728832 
L 317.098299 256.697802 
L 318.098299 256.686634 
L 319.098299 256.656517 
L 320.098299 256.59674 
L 321.098299 256.559548 
L 322.098299 256.520452 
L 323.098299 256.478013 
L 324.098299 256.445248 
L 325.098299 256.377821 
L 326.098299 256.338695 
L 327.098299 256.296021 
L 328.098299 256.22544 
L 329.098299 256.189049 
L 330.098299 256.130646 
L 331.098299 256.019693 
L 332.098299 255.949035 
L 333.098299 255.836095 
L 334.098299 255.790322 
L 335.098299 255.729039 
L 336.098299 255.68054 
L 337.098299 255.599717 
L 338.098299 255.481198 
L 339.098299 255.410988 
L 340.098299 255.327725 
L 341.098299 255.294583 
L 342.098299 255.243346 
L 343.098299 255.174948 
L 344.098299 255.108732 
L 345.098299 255.031815 
L 346.098299 255.0045 
L 347.098299 254.978022 
L 348.098299 254.955372 
L 349.098299 254.93584 
L 350.098299 254.909446 
L 351.098299 254.859675 
L 352.098299 254.824602 
L 353.682951 254.788737 
" clip-path="url(#p94ef64f7f5)" style="fill: none; stroke: #1f77b4; stroke-opacity: 0.5; stroke-width: 0.2; stroke-linecap: square"/>
   <path d="M 290.098299 313.744835 
L 291.098299 313.776272 
L 292.098299 313.813212 
L 293.098299 313.910959 
L 294.098299 313.94348 
L 295.098299 314.017105 
L 296.098299 314.05567 
L 297.098299 314.091084 
L 298.098299 314.148724 
L 299.098299 314.21911 
L 300.098299 314.271074 
L 301.098299 314.330164 
L 302.098299 314.418485 
L 303.098299 314.464629 
L 304.098299 314.50704 
L 305.098299 314.537533 
L 306.098299 314.563578 
L 307.098299 314.584778 
L 308.098299 314.639079 
L 309.098299 314.667016 
L 310.098299 314.69674 
L 311.098299 314.722135 
L 312.098299 314.733336 
L 313.098299 314.743459 
L 314.098299 314.743255 
L 315.098299 314.733745 
L 316.098299 314.722092 
L 317.098299 314.691062 
L 318.098299 314.679894 
L 319.098299 314.649777 
L 320.098299 314.59 
L 321.098299 314.552808 
L 322.098299 314.513712 
L 323.098299 314.471273 
L 324.098299 314.438508 
L 325.098299 314.371081 
L 326.098299 314.331955 
L 327.098299 314.289281 
L 328.098299 314.2187 
L 329.098299 314.182309 
L 330.098299 314.123906 
L 331.098299 314.012954 
L 332.098299 313.942295 
L 333.098299 313.829355 
L 334.098299 313.783582 
L 335.098299 313.722299 
L 336.098299 313.6738 
L 337.098299 313.592977 
L 338.098299 313.474458 
L 339.098299 313.404248 
L 340.098299 313.320985 
L 341.098299 313.287843 
L 342.098299 313.236606 
L 343.098299 313.168208 
L 344.098299 313.101992 
L 345.098299 313.025075 
L 346.098299 312.99776 
L 347.098299 312.971282 
L 348.098299 312.948632 
L 349.098299 312.9291 
L 350.098299 312.902706 
L 351.098299 312.852936 
L 352.098299 312.817862 
L 353.682951 312.781997 
" clip-path="url(#p94ef64f7f5)" style="fill: none; stroke: #1f77b4; stroke-opacity: 0.5; stroke-width: 0.2; stroke-linecap: square"/>
   <g id="patch_3">
    <path d="M 69.06392 22.318125 
L 69.06392 318.021875 
M 284.536112 22.318125 
L 284.536112 318.021875 
" clip-path="url(#p94ef64f7f5)" style="fill: none; stroke: #ffffff; stroke-width: 3; stroke-linejoin: miter"/>
    <path d="M 69.06392 22.318125 
L 69.06392 318.021875 
M 284.536112 22.318125 
L 284.536112 318.021875 
" clip-path="url(#p94ef64f7f5)" style="fill: none; stroke: #1f77b4; stroke-linejoin: miter"/>
    <g id="PolyCollection_1">
     <path d="M 284.536112 22.318125 
L 69.06392 22.318125 
L 69.06392 318.021875 
L 284.536112 318.021875 
L 284.536112 318.021875 
L 284.536112 22.318125 
z
" clip-path="url(#p94ef64f7f5)" style="fill: #1f77b4; fill-opacity: 0.5"/>
    </g>
    <g id="patch_4">
     <path d="M 359.245138 22.318125 
L 359.245138 318.021875 
M 574.71733 22.318125 
L 574.71733 318.021875 
" clip-path="url(#p94ef64f7f5)" style="fill: none; stroke: #ffffff; stroke-width: 3; stroke-linejoin: miter"/>
     <path d="M 359.245138 22.318125 
L 359.245138 318.021875 
M 574.71733 22.318125 
L 574.71733 318.021875 
" clip-path="url(#p94ef64f7f5)" style="fill: none; stroke: #ff7f0e; stroke-linejoin: miter"/>
     <g id="PolyCollection_2">
      <path d="M 574.71733 22.318125 
L 359.245138 22.318125 
L 359.245138 318.021875 
L 574.71733 318.021875 
L 574.71733 318.021875 
L 574.71733 22.318125 
z
" clip-path="url(#p94ef64f7f5)" style="fill: #ff7f0e; fill-opacity: 0.5"/>
     </g>
     <g id="matplotlib.axis_1">
      <g id="xtick_1">
       <g id="line2d_1"/>
       <g id="text_1">
        <!-- deme0 -->
        <g transform="translate(159.42111 329.120312) scale(0.1 -0.1)">
         <defs>
          <path id="DejaVuSans-64" d="M 2906 2969 
L 2906 4863 
L 3481 4863 
L 3481 0 
L 2906 0 
L 2906 525 
Q 2725 213 2448 61 
Q 2172 -91 1784 -91 
Q 1150 -91 751 415 
Q 353 922 353 1747 
Q 353 2572 751 3078 
Q 1150 3584 1784 3584 
Q 2172 3584 2448 3432 
Q 2725 3281 2906 2969 
z
M 947 1747 
Q 947 1113 1208 752 
Q 1469 391 1925 391 
Q 2381 391 2643 752 
Q 2906 1113 2906 1747 
Q 2906 2381 2643 2742 
Q 2381 3103 1925 3103 
Q 1469 3103 1208 2742 
Q 947 2381 947 1747 
z
" transform="scale(0.015625)"/>
          <path id="DejaVuSans-65" d="M 3597 1894 
L 3597 1613 
L 953 1613 
Q 991 1019 1311 708 
Q 1631 397 2203 397 
Q 2534 397 2845 478 
Q 3156 559 3463 722 
L 3463 178 
Q 3153 47 2828 -22 
Q 2503 -91 2169 -91 
Q 1331 -91 842 396 
Q 353 884 353 1716 
Q 353 2575 817 3079 
Q 1281 3584 2069 3584 
Q 2775 3584 3186 3129 
Q 3597 2675 3597 1894 
z
M 3022 2063 
Q 3016 2534 2758 2815 
Q 2500 3097 2075 3097 
Q 1594 3097 1305 2825 
Q 1016 2553 972 2059 
L 3022 2063 
z
" transform="scale(0.015625)"/>
          <path id="DejaVuSans-6d" d="M 3328 2828 
Q 3544 3216 3844 3400 
Q 4144 3584 4550 3584 
Q 5097 3584 5394 3201 
Q 5691 2819 5691 2113 
L 5691 0 
L 5113 0 
L 5113 2094 
Q 5113 2597 4934 2840 
Q 4756 3084 4391 3084 
Q 3944 3084 3684 2787 
Q 3425 2491 3425 1978 
L 3425 0 
L 2847 0 
L 2847 2094 
Q 2847 2600 2669 2842 
Q 2491 3084 2119 3084 
Q 1678 3084 1418 2786 
Q 1159 2488 1159 1978 
L 1159 0 
L 581 0 
L 581 3500 
L 1159 3500 
L 1159 2956 
Q 1356 3278 1631 3431 
Q 1906 3584 2284 3584 
Q 2666 3584 2933 3390 
Q 3200 3197 3328 2828 
z
" transform="scale(0.015625)"/>
          <path id="DejaVuSans-30" d="M 2034 4250 
Q 1547 4250 1301 3770 
Q 1056 3291 1056 2328 
Q 1056 1369 1301 889 
Q 1547 409 2034 409 
Q 2525 409 2770 889 
Q 3016 1369 3016 2328 
Q 3016 3291 2770 3770 
Q 2525 4250 2034 4250 
z
M 2034 4750 
Q 2819 4750 3233 4129 
Q 3647 3509 3647 2328 
Q 3647 1150 3233 529 
Q 2819 -91 2034 -91 
Q 1250 -91 836 529 
Q 422 1150 422 2328 
Q 422 3509 836 4129 
Q 1250 4750 2034 4750 
z
" transform="scale(0.015625)"/>
         </defs>
         <use xlink:href="#DejaVuSans-64"/>
         <use xlink:href="#DejaVuSans-65" x="63.476562"/>
         <use xlink:href="#DejaVuSans-6d" x="125"/>
         <use xlink:href="#DejaVuSans-65" x="222.412109"/>
         <use xlink:href="#DejaVuSans-30" x="283.935547"/>
        </g>
       </g>
      </g>
      <g id="xtick_2">
       <g id="line2d_2"/>
       <g id="text_2">
        <!-- deme1 -->
        <g transform="translate(449.602328 329.120312) scale(0.1 -0.1)">
         <defs>
          <path id="DejaVuSans-31" d="M 794 531 
L 1825 531 
L 1825 4091 
L 703 3866 
L 703 4441 
L 1819 4666 
L 2450 4666 
L 2450 531 
L 3481 531 
L 3481 0 
L 794 0 
L 794 531 
z
" transform="scale(0.015625)"/>
         </defs>
         <use xlink:href="#DejaVuSans-64"/>
         <use xlink:href="#DejaVuSans-65" x="63.476562"/>
         <use xlink:href="#DejaVuSans-6d" x="125"/>
         <use xlink:href="#DejaVuSans-65" x="222.412109"/>
         <use xlink:href="#DejaVuSans-31" x="283.935547"/>
        </g>
       </g>
      </g>
     </g>
     <g id="matplotlib.axis_2">
      <g id="ytick_1">
       <g id="line2d_3">
        <defs>
         <path id="m02ef5a9076" d="M 0 0 
L -3.5 0 
" style="stroke: #000000; stroke-width: 0.8"/>
        </defs>
        <g>
         <use xlink:href="#m02ef5a9076" x="43.78125" y="318.021875" style="stroke: #000000; stroke-width: 0.8"/>
        </g>
       </g>
       <g id="text_3">
        <!-- 0.0 -->
        <g transform="translate(20.878125 321.821094) scale(0.1 -0.1)">
         <defs>
          <path id="DejaVuSans-2e" d="M 684 794 
L 1344 794 
L 1344 0 
L 684 0 
L 684 794 
z
" transform="scale(0.015625)"/>
         </defs>
         <use xlink:href="#DejaVuSans-30"/>
         <use xlink:href="#DejaVuSans-2e" x="63.623047"/>
         <use xlink:href="#DejaVuSans-30" x="95.410156"/>
        </g>
       </g>
      </g>
      <g id="ytick_2">
       <g id="line2d_4">
        <g>
         <use xlink:href="#m02ef5a9076" x="43.78125" y="258.881125" style="stroke: #000000; stroke-width: 0.8"/>
        </g>
       </g>
       <g id="text_4">
        <!-- 0.5 -->
        <g transform="translate(20.878125 262.680344) scale(0.1 -0.1)">
         <defs>
          <path id="DejaVuSans-35" d="M 691 4666 
L 3169 4666 
L 3169 4134 
L 1269 4134 
L 1269 2991 
Q 1406 3038 1543 3061 
Q 1681 3084 1819 3084 
Q 2600 3084 3056 2656 
Q 3513 2228 3513 1497 
Q 3513 744 3044 326 
Q 2575 -91 1722 -91 
Q 1428 -91 1123 -41 
Q 819 9 494 109 
L 494 744 
Q 775 591 1075 516 
Q 1375 441 1709 441 
Q 2250 441 2565 725 
Q 2881 1009 2881 1497 
Q 2881 1984 2565 2268 
Q 2250 2553 1709 2553 
Q 1456 2553 1204 2497 
Q 953 2441 691 2322 
L 691 4666 
z
" transform="scale(0.015625)"/>
         </defs>
         <use xlink:href="#DejaVuSans-30"/>
         <use xlink:href="#DejaVuSans-2e" x="63.623047"/>
         <use xlink:href="#DejaVuSans-35" x="95.410156"/>
        </g>
       </g>
      </g>
      <g id="ytick_3">
       <g id="line2d_5">
        <g>
         <use xlink:href="#m02ef5a9076" x="43.78125" y="199.740375" style="stroke: #000000; stroke-width: 0.8"/>
        </g>
       </g>
       <g id="text_5">
        <!-- 1.0 -->
        <g transform="translate(20.878125 203.539594) scale(0.1 -0.1)">
         <use xlink:href="#DejaVuSans-31"/>
         <use xlink:href="#DejaVuSans-2e" x="63.623047"/>
         <use xlink:href="#DejaVuSans-30" x="95.410156"/>
        </g>
       </g>
      </g>
      <g id="ytick_4">
       <g id="line2d_6">
        <g>
         <use xlink:href="#m02ef5a9076" x="43.78125" y="140.599625" style="stroke: #000000; stroke-width: 0.8"/>
        </g>
       </g>
       <g id="text_6">
        <!-- 1.5 -->
        <g transform="translate(20.878125 144.398844) scale(0.1 -0.1)">
         <use xlink:href="#DejaVuSans-31"/>
         <use xlink:href="#DejaVuSans-2e" x="63.623047"/>
         <use xlink:href="#DejaVuSans-35" x="95.410156"/>
        </g>
       </g>
      </g>
      <g id="ytick_5">
       <g id="line2d_7">
        <g>
         <use xlink:href="#m02ef5a9076" x="43.78125" y="81.458875" style="stroke: #000000; stroke-width: 0.8"/>
        </g>
       </g>
       <g id="text_7">
        <!-- 2.0 -->
        <g transform="translate(20.878125 85.258094) scale(0.1 -0.1)">
         <defs>
          <path id="DejaVuSans-32" d="M 1228 531 
L 3431 531 
L 3431 0 
L 469 0 
L 469 531 
Q 828 903 1448 1529 
Q 2069 2156 2228 2338 
Q 2531 2678 2651 2914 
Q 2772 3150 2772 3378 
Q 2772 3750 2511 3984 
Q 2250 4219 1831 4219 
Q 1534 4219 1204 4116 
Q 875 4013 500 3803 
L 500 4441 
Q 881 4594 1212 4672 
Q 1544 4750 1819 4750 
Q 2544 4750 2975 4387 
Q 3406 4025 3406 3419 
Q 3406 3131 3298 2873 
Q 3191 2616 2906 2266 
Q 2828 2175 2409 1742 
Q 1991 1309 1228 531 
z
" transform="scale(0.015625)"/>
         </defs>
         <use xlink:href="#DejaVuSans-32"/>
         <use xlink:href="#DejaVuSans-2e" x="63.623047"/>
         <use xlink:href="#DejaVuSans-30" x="95.410156"/>
        </g>
       </g>
      </g>
      <g id="ytick_6">
       <g id="line2d_8">
        <g>
         <use xlink:href="#m02ef5a9076" x="43.78125" y="22.318125" style="stroke: #000000; stroke-width: 0.8"/>
        </g>
       </g>
       <g id="text_8">
        <!-- 2.5 -->
        <g transform="translate(20.878125 26.117344) scale(0.1 -0.1)">
         <use xlink:href="#DejaVuSans-32"/>
         <use xlink:href="#DejaVuSans-2e" x="63.623047"/>
         <use xlink:href="#DejaVuSans-35" x="95.410156"/>
        </g>
       </g>
      </g>
      <g id="text_9">
       <!-- time ago (generations) -->
       <g transform="translate(14.798438 227.641094) rotate(-90) scale(0.1 -0.1)">
        <defs>
         <path id="DejaVuSans-74" d="M 1172 4494 
L 1172 3500 
L 2356 3500 
L 2356 3053 
L 1172 3053 
L 1172 1153 
Q 1172 725 1289 603 
Q 1406 481 1766 481 
L 2356 481 
L 2356 0 
L 1766 0 
Q 1100 0 847 248 
Q 594 497 594 1153 
L 594 3053 
L 172 3053 
L 172 3500 
L 594 3500 
L 594 4494 
L 1172 4494 
z
" transform="scale(0.015625)"/>
         <path id="DejaVuSans-69" d="M 603 3500 
L 1178 3500 
L 1178 0 
L 603 0 
L 603 3500 
z
M 603 4863 
L 1178 4863 
L 1178 4134 
L 603 4134 
L 603 4863 
z
" transform="scale(0.015625)"/>
         <path id="DejaVuSans-20" transform="scale(0.015625)"/>
         <path id="DejaVuSans-61" d="M 2194 1759 
Q 1497 1759 1228 1600 
Q 959 1441 959 1056 
Q 959 750 1161 570 
Q 1363 391 1709 391 
Q 2188 391 2477 730 
Q 2766 1069 2766 1631 
L 2766 1759 
L 2194 1759 
z
M 3341 1997 
L 3341 0 
L 2766 0 
L 2766 531 
Q 2569 213 2275 61 
Q 1981 -91 1556 -91 
Q 1019 -91 701 211 
Q 384 513 384 1019 
Q 384 1609 779 1909 
Q 1175 2209 1959 2209 
L 2766 2209 
L 2766 2266 
Q 2766 2663 2505 2880 
Q 2244 3097 1772 3097 
Q 1472 3097 1187 3025 
Q 903 2953 641 2809 
L 641 3341 
Q 956 3463 1253 3523 
Q 1550 3584 1831 3584 
Q 2591 3584 2966 3190 
Q 3341 2797 3341 1997 
z
" transform="scale(0.015625)"/>
         <path id="DejaVuSans-67" d="M 2906 1791 
Q 2906 2416 2648 2759 
Q 2391 3103 1925 3103 
Q 1463 3103 1205 2759 
Q 947 2416 947 1791 
Q 947 1169 1205 825 
Q 1463 481 1925 481 
Q 2391 481 2648 825 
Q 2906 1169 2906 1791 
z
M 3481 434 
Q 3481 -459 3084 -895 
Q 2688 -1331 1869 -1331 
Q 1566 -1331 1297 -1286 
Q 1028 -1241 775 -1147 
L 775 -588 
Q 1028 -725 1275 -790 
Q 1522 -856 1778 -856 
Q 2344 -856 2625 -561 
Q 2906 -266 2906 331 
L 2906 616 
Q 2728 306 2450 153 
Q 2172 0 1784 0 
Q 1141 0 747 490 
Q 353 981 353 1791 
Q 353 2603 747 3093 
Q 1141 3584 1784 3584 
Q 2172 3584 2450 3431 
Q 2728 3278 2906 2969 
L 2906 3500 
L 3481 3500 
L 3481 434 
z
" transform="scale(0.015625)"/>
         <path id="DejaVuSans-6f" d="M 1959 3097 
Q 1497 3097 1228 2736 
Q 959 2375 959 1747 
Q 959 1119 1226 758 
Q 1494 397 1959 397 
Q 2419 397 2687 759 
Q 2956 1122 2956 1747 
Q 2956 2369 2687 2733 
Q 2419 3097 1959 3097 
z
M 1959 3584 
Q 2709 3584 3137 3096 
Q 3566 2609 3566 1747 
Q 3566 888 3137 398 
Q 2709 -91 1959 -91 
Q 1206 -91 779 398 
Q 353 888 353 1747 
Q 353 2609 779 3096 
Q 1206 3584 1959 3584 
z
" transform="scale(0.015625)"/>
         <path id="DejaVuSans-28" d="M 1984 4856 
Q 1566 4138 1362 3434 
Q 1159 2731 1159 2009 
Q 1159 1288 1364 580 
Q 1569 -128 1984 -844 
L 1484 -844 
Q 1016 -109 783 600 
Q 550 1309 550 2009 
Q 550 2706 781 3412 
Q 1013 4119 1484 4856 
L 1984 4856 
z
" transform="scale(0.015625)"/>
         <path id="DejaVuSans-6e" d="M 3513 2113 
L 3513 0 
L 2938 0 
L 2938 2094 
Q 2938 2591 2744 2837 
Q 2550 3084 2163 3084 
Q 1697 3084 1428 2787 
Q 1159 2491 1159 1978 
L 1159 0 
L 581 0 
L 581 3500 
L 1159 3500 
L 1159 2956 
Q 1366 3272 1645 3428 
Q 1925 3584 2291 3584 
Q 2894 3584 3203 3211 
Q 3513 2838 3513 2113 
z
" transform="scale(0.015625)"/>
         <path id="DejaVuSans-72" d="M 2631 2963 
Q 2534 3019 2420 3045 
Q 2306 3072 2169 3072 
Q 1681 3072 1420 2755 
Q 1159 2438 1159 1844 
L 1159 0 
L 581 0 
L 581 3500 
L 1159 3500 
L 1159 2956 
Q 1341 3275 1631 3429 
Q 1922 3584 2338 3584 
Q 2397 3584 2469 3576 
Q 2541 3569 2628 3553 
L 2631 2963 
z
" transform="scale(0.015625)"/>
         <path id="DejaVuSans-73" d="M 2834 3397 
L 2834 2853 
Q 2591 2978 2328 3040 
Q 2066 3103 1784 3103 
Q 1356 3103 1142 2972 
Q 928 2841 928 2578 
Q 928 2378 1081 2264 
Q 1234 2150 1697 2047 
L 1894 2003 
Q 2506 1872 2764 1633 
Q 3022 1394 3022 966 
Q 3022 478 2636 193 
Q 2250 -91 1575 -91 
Q 1294 -91 989 -36 
Q 684 19 347 128 
L 347 722 
Q 666 556 975 473 
Q 1284 391 1588 391 
Q 1994 391 2212 530 
Q 2431 669 2431 922 
Q 2431 1156 2273 1281 
Q 2116 1406 1581 1522 
L 1381 1569 
Q 847 1681 609 1914 
Q 372 2147 372 2553 
Q 372 3047 722 3315 
Q 1072 3584 1716 3584 
Q 2034 3584 2315 3537 
Q 2597 3491 2834 3397 
z
" transform="scale(0.015625)"/>
         <path id="DejaVuSans-29" d="M 513 4856 
L 1013 4856 
Q 1481 4119 1714 3412 
Q 1947 2706 1947 2009 
Q 1947 1309 1714 600 
Q 1481 -109 1013 -844 
L 513 -844 
Q 928 -128 1133 580 
Q 1338 1288 1338 2009 
Q 1338 2731 1133 3434 
Q 928 4138 513 4856 
z
" transform="scale(0.015625)"/>
        </defs>
        <use xlink:href="#DejaVuSans-74"/>
        <use xlink:href="#DejaVuSans-69" x="39.208984"/>
        <use xlink:href="#DejaVuSans-6d" x="66.992188"/>
        <use xlink:href="#DejaVuSans-65" x="164.404297"/>
        <use xlink:href="#DejaVuSans-20" x="225.927734"/>
        <use xlink:href="#DejaVuSans-61" x="257.714844"/>
        <use xlink:href="#DejaVuSans-67" x="318.994141"/>
        <use xlink:href="#DejaVuSans-6f" x="382.470703"/>
        <use xlink:href="#DejaVuSans-20" x="443.652344"/>
        <use xlink:href="#DejaVuSans-28" x="475.439453"/>
        <use xlink:href="#DejaVuSans-67" x="514.453125"/>
        <use xlink:href="#DejaVuSans-65" x="577.929688"/>
        <use xlink:href="#DejaVuSans-6e" x="639.453125"/>
        <use xlink:href="#DejaVuSans-65" x="702.832031"/>
        <use xlink:href="#DejaVuSans-72" x="764.355469"/>
        <use xlink:href="#DejaVuSans-61" x="805.46875"/>
        <use xlink:href="#DejaVuSans-74" x="866.748047"/>
        <use xlink:href="#DejaVuSans-69" x="905.957031"/>
        <use xlink:href="#DejaVuSans-6f" x="933.740234"/>
        <use xlink:href="#DejaVuSans-6e" x="994.921875"/>
        <use xlink:href="#DejaVuSans-73" x="1058.300781"/>
        <use xlink:href="#DejaVuSans-29" x="1110.400391"/>
       </g>
      </g>
     </g>
     <path d="M 354.682951 192.866792 
L 352.682951 191.866792 
L 352.682951 193.866792 
z
" clip-path="url(#p94ef64f7f5)" style="fill: #1f77b4; fill-opacity: 0.5; stroke: #1f77b4; stroke-opacity: 0.5; stroke-linejoin: miter"/>
     <path d="M 354.682951 120.217266 
L 352.682951 119.217266 
L 352.682951 121.217266 
z
" clip-path="url(#p94ef64f7f5)" style="fill: #1f77b4; fill-opacity: 0.5; stroke: #1f77b4; stroke-opacity: 0.5; stroke-linejoin: miter"/>
     <path d="M 354.682951 158.748765 
L 352.682951 157.748765 
L 352.682951 159.748765 
z
" clip-path="url(#p94ef64f7f5)" style="fill: #1f77b4; fill-opacity: 0.5; stroke: #1f77b4; stroke-opacity: 0.5; stroke-linejoin: miter"/>
     <path d="M 354.682951 125.705433 
L 352.682951 124.705433 
L 352.682951 126.705433 
z
" clip-path="url(#p94ef64f7f5)" style="fill: #1f77b4; fill-opacity: 0.5; stroke: #1f77b4; stroke-opacity: 0.5; stroke-linejoin: miter"/>
     <path d="M 354.682951 92.543036 
L 352.682951 91.543036 
L 352.682951 93.543036 
z
" clip-path="url(#p94ef64f7f5)" style="fill: #1f77b4; fill-opacity: 0.5; stroke: #1f77b4; stroke-opacity: 0.5; stroke-linejoin: miter"/>
     <path d="M 354.682951 175.092992 
L 352.682951 174.092992 
L 352.682951 176.092992 
z
" clip-path="url(#p94ef64f7f5)" style="fill: #1f77b4; fill-opacity: 0.5; stroke: #1f77b4; stroke-opacity: 0.5; stroke-linejoin: miter"/>
     <path d="M 354.682951 113.737931 
L 352.682951 112.737931 
L 352.682951 114.737931 
z
" clip-path="url(#p94ef64f7f5)" style="fill: #1f77b4; fill-opacity: 0.5; stroke: #1f77b4; stroke-opacity: 0.5; stroke-linejoin: miter"/>
     <path d="M 354.682951 193.854743 
L 352.682951 192.854743 
L 352.682951 194.854743 
z
" clip-path="url(#p94ef64f7f5)" style="fill: #1f77b4; fill-opacity: 0.5; stroke: #1f77b4; stroke-opacity: 0.5; stroke-linejoin: miter"/>
     <path d="M 354.682951 81.522172 
L 352.682951 80.522172 
L 352.682951 82.522172 
z
" clip-path="url(#p94ef64f7f5)" style="fill: #1f77b4; fill-opacity: 0.5; stroke: #1f77b4; stroke-opacity: 0.5; stroke-linejoin: miter"/>
     <path d="M 354.682951 151.895045 
L 352.682951 150.895045 
L 352.682951 152.895045 
z
" clip-path="url(#p94ef64f7f5)" style="fill: #1f77b4; fill-opacity: 0.5; stroke: #1f77b4; stroke-opacity: 0.5; stroke-linejoin: miter"/>
     <path d="M 354.682951 298.72426 
L 352.682951 297.72426 
L 352.682951 299.72426 
z
" clip-path="url(#p94ef64f7f5)" style="fill: #1f77b4; fill-opacity: 0.5; stroke: #1f77b4; stroke-opacity: 0.5; stroke-linejoin: miter"/>
     <path d="M 354.682951 250.75576 
L 352.682951 249.75576 
L 352.682951 251.75576 
z
" clip-path="url(#p94ef64f7f5)" style="fill: #1f77b4; fill-opacity: 0.5; stroke: #1f77b4; stroke-opacity: 0.5; stroke-linejoin: miter"/>
     <path d="M 354.682951 294.713387 
L 352.682951 293.713387 
L 352.682951 295.713387 
z
" clip-path="url(#p94ef64f7f5)" style="fill: #1f77b4; fill-opacity: 0.5; stroke: #1f77b4; stroke-opacity: 0.5; stroke-linejoin: miter"/>
     <path d="M 354.682951 287.154963 
L 352.682951 286.154963 
L 352.682951 288.154963 
z
" clip-path="url(#p94ef64f7f5)" style="fill: #1f77b4; fill-opacity: 0.5; stroke: #1f77b4; stroke-opacity: 0.5; stroke-linejoin: miter"/>
     <path d="M 354.682951 250.103494 
L 352.682951 249.103494 
L 352.682951 251.103494 
z
" clip-path="url(#p94ef64f7f5)" style="fill: #1f77b4; fill-opacity: 0.5; stroke: #1f77b4; stroke-opacity: 0.5; stroke-linejoin: miter"/>
     <path d="M 354.682951 264.055032 
L 352.682951 263.055032 
L 352.682951 265.055032 
z
" clip-path="url(#p94ef64f7f5)" style="fill: #1f77b4; fill-opacity: 0.5; stroke: #1f77b4; stroke-opacity: 0.5; stroke-linejoin: miter"/>
     <path d="M 354.682951 214.482856 
L 352.682951 213.482856 
L 352.682951 215.482856 
z
" clip-path="url(#p94ef64f7f5)" style="fill: #1f77b4; fill-opacity: 0.5; stroke: #1f77b4; stroke-opacity: 0.5; stroke-linejoin: miter"/>
     <path d="M 354.682951 233.541246 
L 352.682951 232.541246 
L 352.682951 234.541246 
z
" clip-path="url(#p94ef64f7f5)" style="fill: #1f77b4; fill-opacity: 0.5; stroke: #1f77b4; stroke-opacity: 0.5; stroke-linejoin: miter"/>
     <path d="M 354.682951 255.751575 
L 352.682951 254.751575 
L 352.682951 256.751575 
z
" clip-path="url(#p94ef64f7f5)" style="fill: #1f77b4; fill-opacity: 0.5; stroke: #1f77b4; stroke-opacity: 0.5; stroke-linejoin: miter"/>
     <path d="M 354.682951 313.744835 
L 352.682951 312.744835 
L 352.682951 314.744835 
z
" clip-path="url(#p94ef64f7f5)" style="fill: #1f77b4; fill-opacity: 0.5; stroke: #1f77b4; stroke-opacity: 0.5; stroke-linejoin: miter"/>
     <g id="patch_5">
      <path d="M 43.78125 318.021875 
L 43.78125 22.318125 
" style="fill: none; stroke: #000000; stroke-width: 0.8; stroke-linejoin: miter; stroke-linecap: square"/>
     </g>
     <g id="text_10">
      <!-- defaults_asymmetric_migration_changing_rate.yaml -->
      <g transform="translate(164.675625 16.318125) scale(0.12 -0.12)">
       <defs>
        <path id="DejaVuSans-66" d="M 2375 4863 
L 2375 4384 
L 1825 4384 
Q 1516 4384 1395 4259 
Q 1275 4134 1275 3809 
L 1275 3500 
L 2222 3500 
L 2222 3053 
L 1275 3053 
L 1275 0 
L 697 0 
L 697 3053 
L 147 3053 
L 147 3500 
L 697 3500 
L 697 3744 
Q 697 4328 969 4595 
Q 1241 4863 1831 4863 
L 2375 4863 
z
" transform="scale(0.015625)"/>
        <path id="DejaVuSans-75" d="M 544 1381 
L 544 3500 
L 1119 3500 
L 1119 1403 
Q 1119 906 1312 657 
Q 1506 409 1894 409 
Q 2359 409 2629 706 
Q 2900 1003 2900 1516 
L 2900 3500 
L 3475 3500 
L 3475 0 
L 2900 0 
L 2900 538 
Q 2691 219 2414 64 
Q 2138 -91 1772 -91 
Q 1169 -91 856 284 
Q 544 659 544 1381 
z
M 1991 3584 
L 1991 3584 
z
" transform="scale(0.015625)"/>
        <path id="DejaVuSans-6c" d="M 603 4863 
L 1178 4863 
L 1178 0 
L 603 0 
L 603 4863 
z
" transform="scale(0.015625)"/>
        <path id="DejaVuSans-5f" d="M 3263 -1063 
L 3263 -1509 
L -63 -1509 
L -63 -1063 
L 3263 -1063 
z
" transform="scale(0.015625)"/>
        <path id="DejaVuSans-79" d="M 2059 -325 
Q 1816 -950 1584 -1140 
Q 1353 -1331 966 -1331 
L 506 -1331 
L 506 -850 
L 844 -850 
Q 1081 -850 1212 -737 
Q 1344 -625 1503 -206 
L 1606 56 
L 191 3500 
L 800 3500 
L 1894 763 
L 2988 3500 
L 3597 3500 
L 2059 -325 
z
" transform="scale(0.015625)"/>
        <path id="DejaVuSans-63" d="M 3122 3366 
L 3122 2828 
Q 2878 2963 2633 3030 
Q 2388 3097 2138 3097 
Q 1578 3097 1268 2742 
Q 959 2388 959 1747 
Q 959 1106 1268 751 
Q 1578 397 2138 397 
Q 2388 397 2633 464 
Q 2878 531 3122 666 
L 3122 134 
Q 2881 22 2623 -34 
Q 2366 -91 2075 -91 
Q 1284 -91 818 406 
Q 353 903 353 1747 
Q 353 2603 823 3093 
Q 1294 3584 2113 3584 
Q 2378 3584 2631 3529 
Q 2884 3475 3122 3366 
z
" transform="scale(0.015625)"/>
        <path id="DejaVuSans-68" d="M 3513 2113 
L 3513 0 
L 2938 0 
L 2938 2094 
Q 2938 2591 2744 2837 
Q 2550 3084 2163 3084 
Q 1697 3084 1428 2787 
Q 1159 2491 1159 1978 
L 1159 0 
L 581 0 
L 581 4863 
L 1159 4863 
L 1159 2956 
Q 1366 3272 1645 3428 
Q 1925 3584 2291 3584 
Q 2894 3584 3203 3211 
Q 3513 2838 3513 2113 
z
" transform="scale(0.015625)"/>
       </defs>
       <use xlink:href="#DejaVuSans-64"/>
       <use xlink:href="#DejaVuSans-65" x="63.476562"/>
       <use xlink:href="#DejaVuSans-66" x="125"/>
       <use xlink:href="#DejaVuSans-61" x="160.205078"/>
       <use xlink:href="#DejaVuSans-75" x="221.484375"/>
       <use xlink:href="#DejaVuSans-6c" x="284.863281"/>
       <use xlink:href="#DejaVuSans-74" x="312.646484"/>
       <use xlink:href="#DejaVuSans-73" x="351.855469"/>
       <use xlink:href="#DejaVuSans-5f" x="403.955078"/>
       <use xlink:href="#DejaVuSans-61" x="453.955078"/>
       <use xlink:href="#DejaVuSans-73" x="515.234375"/>
       <use xlink:href="#DejaVuSans-79" x="567.333984"/>
       <use xlink:href="#DejaVuSans-6d" x="626.513672"/>
       <use xlink:href="#DejaVuSans-6d" x="723.925781"/>
       <use xlink:href="#DejaVuSans-65" x="821.337891"/>
       <use xlink:href="#DejaVuSans-74" x="882.861328"/>
       <use xlink:href="#DejaVuSans-72" x="922.070312"/>
       <use xlink:href="#DejaVuSans-69" x="963.183594"/>
       <use xlink:href="#DejaVuSans-63" x="990.966797"/>
       <use xlink:href="#DejaVuSans-5f" x="1045.947266"/>
       <use xlink:href="#DejaVuSans-6d" x="1095.947266"/>
       <use xlink:href="#DejaVuSans-69" x="1193.359375"/>
       <use xlink:href="#DejaVuSans-67" x="1221.142578"/>
       <use xlink:href="#DejaVuSans-72" x="1284.619141"/>
       <use xlink:href="#DejaVuSans-61" x="1325.732422"/>
       <use xlink:href="#DejaVuSans-74" x="1387.011719"/>
       <use xlink:href="#DejaVuSans-69" x="1426.220703"/>
       <use xlink:href="#DejaVuSans-6f" x="1454.003906"/>
       <use xlink:href="#DejaVuSans-6e" x="1515.185547"/>
       <use xlink:href="#DejaVuSans-5f" x="1578.564453"/>
       <use xlink:href="#DejaVuSans-63" x="1628.564453"/>
       <use xlink:href="#DejaVuSans-68" x="1683.544922"/>
       <use xlink:href="#DejaVuSans-61" x="1746.923828"/>
       <use xlink:href="#DejaVuSans-6e" x="1808.203125"/>
       <use xlink:href="#DejaVuSans-67" x="1871.582031"/>
       <use xlink:href="#DejaVuSans-69" x="1935.058594"/>
       <use xlink:href="#DejaVuSans-6e" x="1962.841797"/>
       <use xlink:href="#DejaVuSans-67" x="2026.220703"/>
       <use xlink:href="#DejaVuSans-5f" x="2089.697266"/>
       <use xlink:href="#DejaVuSans-72" x="2139.697266"/>
       <use xlink:href="#DejaVuSans-61" x="2180.810547"/>
       <use xlink:href="#DejaVuSans-74" x="2242.089844"/>
       <use xlink:href="#DejaVuSans-65" x="2281.298828"/>
       <use xlink:href="#DejaVuSans-2e" x="2342.822266"/>
       <use xlink:href="#DejaVuSans-79" x="2374.609375"/>
       <use xlink:href="#DejaVuSans-61" x="2433.789062"/>
       <use xlink:href="#DejaVuSans-6d" x="2495.068359"/>
       <use xlink:href="#DejaVuSans-6c" x="2592.480469"/>
      </g>
     </g>
    </g>
   </g>
   <defs>
    <clipPath id="p94ef64f7f5">
     <rect x="43.78125" y="22.318125" width="556.21875" height="295.70375"/>
    </clipPath>
   </defs>
  </g>
 </g>
</svg>