<?xml version="1.0" encoding="utf-8" standalone="no"?>
<!DOCTYPE svg PUBLIC "-//W3C//DTD SVG 1.1//EN"
  "http://www.w3.org/Graphics/SVG/1.1/DTD/svg11.dtd">
<svg xmlns:xlink="http://www.w3.org/1999/xlink" width="607.2pt" height="338.4pt" viewBox="0 0 607.2 338.4" xmlns="http://www.w3.org/2000/svg" version="1.1">
 <metadata>
  <rdf:RDF xmlns:dc="http://purl.org/dc/elements/1.1/" xmlns:cc="http://creativecommons.org/ns#" xmlns:rdf="http://www.w3.org/1999/02/22-rdf-syntax-ns#">
   <cc:Work>
    <dc:type rdf:resource="http://purl.org/dc/dcmitype/StillImage"/>
    <dc:date>2023-11-27T08:32:38.303780</dc:date>
    <dc:format>image/svg+xml</dc:format>
    <dc:creator>
     <cc:Agent>
      <dc:title>Matplotlib v3.7.2, https://matplotlib.org/</dc:title>
     </cc:Agent>
    </dc:creator>
   </cc:Work>
  </rdf:RDF>
 </metadata>
 <defs>
  <style type="text/css">*{stroke-linejoin: round; stroke-linecap: butt}</style>
 </defs>
 <g id="figure_1">
  <g id="patch_1">
   <path d="M 0 338.4 
L 607.2 338.4 
L 607.2 0 
L 0 0 
z
" style="fill: #ffffff"/>
  </g>
  <g id="axes_1">
   <g id="patch_2">
    <path d="M 46.965625 318.021875 
L 600 318.021875 
L 600 22.318125 
L 46.965625 22.318125 
z
" style="fill: #ffffff"/>
   </g>
   <path d="M 200.299442 152.875083 
L 201.299442 152.90652 
L 202.299442 152.94346 
L 203.299442 153.041207 
L 204.299442 153.073728 
L 205.299442 153.147353 
L 206.299442 153.185919 
L 207.299442 153.221332 
L 208.299442 153.278972 
L 209.299442 153.349358 
L 210.299442 153.401322 
L 211.299442 153.460412 
L 212.299442 153.548733 
L 213.299442 153.594877 
L 214.299442 153.637288 
L 215.299442 153.667781 
L 216.299442 153.693826 
L 217.299442 153.715026 
L 218.299442 153.769327 
L 219.299442 153.797264 
L 220.299442 153.826988 
L 221.299442 153.852383 
L 222.299442 153.863584 
L 223.299442 153.873708 
L 224.299442 153.873503 
L 225.299442 153.863993 
L 226.299442 153.85234 
L 227.299442 153.821311 
L 228.299442 153.810143 
L 229.299442 153.780025 
L 230.299442 153.720248 
L 231.299442 153.683057 
L 232.299442 153.643961 
L 233.299442 153.601521 
L 234.299442 153.568756 
L 235.299442 153.501329 
L 236.299442 153.462203 
L 237.299442 153.419529 
L 238.299442 153.348948 
L 239.299442 153.312557 
L 240.299442 153.254154 
L 241.299442 153.143202 
L 242.299442 153.072543 
L 243.299442 152.959604 
L 244.299442 152.913831 
L 245.299442 152.852547 
L 246.299442 152.804048 
L 247.299442 152.723225 
L 248.299442 152.604706 
L 249.299442 152.534496 
L 250.299442 152.451233 
L 251.299442 152.418092 
L 252.299442 152.366854 
L 253.299442 152.298456 
L 254.299442 152.23224 
L 255.299442 152.155323 
L 256.619695 152.128008 
" clip-path="url(#pee58469511)" style="fill: none; stroke: #1f77b4; stroke-opacity: 0.5; stroke-width: 0.2; stroke-linecap: square"/>
   <path d="M 200.299442 71.533401 
L 201.299442 71.564837 
L 202.299442 71.601777 
L 203.299442 71.699524 
L 204.299442 71.732046 
L 205.299442 71.80567 
L 206.299442 71.844236 
L 207.299442 71.879649 
L 208.299442 71.937289 
L 209.299442 72.007675 
L 210.299442 72.059639 
L 211.299442 72.118729 
L 212.299442 72.20705 
L 213.299442 72.253194 
L 214.299442 72.295605 
L 215.299442 72.326098 
L 216.299442 72.352143 
L 217.299442 72.373343 
L 218.299442 72.427644 
L 219.299442 72.455582 
L 220.299442 72.485306 
L 221.299442 72.5107 
L 222.299442 72.521901 
L 223.299442 72.532025 
L 224.299442 72.53182 
L 225.299442 72.522311 
L 226.299442 72.510657 
L 227.299442 72.479628 
L 228.299442 72.46846 
L 229.299442 72.438342 
L 230.299442 72.378565 
L 231.299442 72.341374 
L 232.299442 72.302278 
L 233.299442 72.259838 
L 234.299442 72.227073 
L 235.299442 72.159647 
L 236.299442 72.120521 
L 237.299442 72.077846 
L 238.299442 72.007265 
L 239.299442 71.970875 
L 240.299442 71.912471 
L 241.299442 71.801519 
L 242.299442 71.730861 
L 243.299442 71.617921 
L 244.299442 71.572148 
L 245.299442 71.510865 
L 246.299442 71.462365 
L 247.299442 71.381543 
L 248.299442 71.263024 
L 249.299442 71.192813 
L 250.299442 71.109551 
L 251.299442 71.076409 
L 252.299442 71.025171 
L 253.299442 70.956773 
L 254.299442 70.890558 
L 255.299442 70.813641 
L 256.619695 70.786325 
" clip-path="url(#pee58469511)" style="fill: none; stroke: #1f77b4; stroke-opacity: 0.5; stroke-width: 0.2; stroke-linecap: square"/>
   <path d="M 200.299442 166.015125 
L 201.299442 166.046561 
L 202.299442 166.083501 
L 203.299442 166.181248 
L 204.299442 166.213769 
L 205.299442 166.287394 
L 206.299442 166.32596 
L 207.299442 166.361373 
L 208.299442 166.419013 
L 209.299442 166.489399 
L 210.299442 166.541363 
L 211.299442 166.600453 
L 212.299442 166.688774 
L 213.299442 166.734918 
L 214.299442 166.777329 
L 215.299442 166.807822 
L 216.299442 166.833867 
L 217.299442 166.855067 
L 218.299442 166.909368 
L 219.299442 166.937306 
L 220.299442 166.96703 
L 221.299442 166.992424 
L 222.299442 167.003625 
L 223.299442 167.013749 
L 224.299442 167.013544 
L 225.299442 167.004035 
L 226.299442 166.992381 
L 227.299442 166.961352 
L 228.299442 166.950184 
L 229.299442 166.920066 
L 230.299442 166.860289 
L 231.299442 166.823098 
L 232.299442 166.784002 
L 233.299442 166.741562 
L 234.299442 166.708797 
L 235.299442 166.64137 
L 236.299442 166.602245 
L 237.299442 166.55957 
L 238.299442 166.488989 
L 239.299442 166.452599 
L 240.299442 166.394195 
L 241.299442 166.283243 
L 242.299442 166.212584 
L 243.299442 166.099645 
L 244.299442 166.053872 
L 245.299442 165.992589 
L 246.299442 165.944089 
L 247.299442 165.863267 
L 248.299442 165.744748 
L 249.299442 165.674537 
L 250.299442 165.591274 
L 251.299442 165.558133 
L 252.299442 165.506895 
L 253.299442 165.438497 
L 254.299442 165.372282 
L 255.299442 165.295365 
L 256.619695 165.268049 
" clip-path="url(#pee58469511)" style="fill: none; stroke: #1f77b4; stroke-opacity: 0.5; stroke-width: 0.2; stroke-linecap: square"/>
   <path d="M 200.299442 49.019582 
L 201.299442 49.051019 
L 202.299442 49.087959 
L 203.299442 49.185705 
L 204.299442 49.218227 
L 205.299442 49.291852 
L 206.299442 49.330417 
L 207.299442 49.36583 
L 208.299442 49.42347 
L 209.299442 49.493857 
L 210.299442 49.545821 
L 211.299442 49.604911 
L 212.299442 49.693232 
L 213.299442 49.739376 
L 214.299442 49.781787 
L 215.299442 49.812279 
L 216.299442 49.838324 
L 217.299442 49.859524 
L 218.299442 49.913826 
L 219.299442 49.941763 
L 220.299442 49.971487 
L 221.299442 49.996882 
L 222.299442 50.008082 
L 223.299442 50.018206 
L 224.299442 50.018002 
L 225.299442 50.008492 
L 226.299442 49.996838 
L 227.299442 49.965809 
L 228.299442 49.954641 
L 229.299442 49.924524 
L 230.299442 49.864747 
L 231.299442 49.827555 
L 232.299442 49.788459 
L 233.299442 49.74602 
L 234.299442 49.713254 
L 235.299442 49.645828 
L 236.299442 49.606702 
L 237.299442 49.564028 
L 238.299442 49.493447 
L 239.299442 49.457056 
L 240.299442 49.398653 
L 241.299442 49.2877 
L 242.299442 49.217042 
L 243.299442 49.104102 
L 244.299442 49.058329 
L 245.299442 48.997046 
L 246.299442 48.948547 
L 247.299442 48.867724 
L 248.299442 48.749205 
L 249.299442 48.678994 
L 250.299442 48.595732 
L 251.299442 48.56259 
L 252.299442 48.511353 
L 253.299442 48.442955 
L 254.299442 48.376739 
L 255.299442 48.299822 
L 256.619695 48.272507 
" clip-path="url(#pee58469511)" style="fill: none; stroke: #1f77b4; stroke-opacity: 0.5; stroke-width: 0.2; stroke-linecap: square"/>
   <path d="M 200.299442 65.629551 
L 201.299442 65.660988 
L 202.299442 65.697928 
L 203.299442 65.795675 
L 204.299442 65.828196 
L 205.299442 65.901821 
L 206.299442 65.940386 
L 207.299442 65.9758 
L 208.299442 66.033439 
L 209.299442 66.103826 
L 210.299442 66.15579 
L 211.299442 66.21488 
L 212.299442 66.303201 
L 213.299442 66.349345 
L 214.299442 66.391756 
L 215.299442 66.422249 
L 216.299442 66.448293 
L 217.299442 66.469494 
L 218.299442 66.523795 
L 219.299442 66.551732 
L 220.299442 66.581456 
L 221.299442 66.606851 
L 222.299442 66.618051 
L 223.299442 66.628175 
L 224.299442 66.627971 
L 225.299442 66.618461 
L 226.299442 66.606808 
L 227.299442 66.575778 
L 228.299442 66.56461 
L 229.299442 66.534493 
L 230.299442 66.474716 
L 231.299442 66.437524 
L 232.299442 66.398428 
L 233.299442 66.355989 
L 234.299442 66.323224 
L 235.299442 66.255797 
L 236.299442 66.216671 
L 237.299442 66.173997 
L 238.299442 66.103416 
L 239.299442 66.067025 
L 240.299442 66.008622 
L 241.299442 65.897669 
L 242.299442 65.827011 
L 243.299442 65.714071 
L 244.299442 65.668298 
L 245.299442 65.607015 
L 246.299442 65.558516 
L 247.299442 65.477693 
L 248.299442 65.359174 
L 249.299442 65.288964 
L 250.299442 65.205701 
L 251.299442 65.172559 
L 252.299442 65.121322 
L 253.299442 65.052924 
L 254.299442 64.986708 
L 255.299442 64.909791 
L 256.619695 64.882476 
" clip-path="url(#pee58469511)" style="fill: none; stroke: #1f77b4; stroke-opacity: 0.5; stroke-width: 0.2; stroke-linecap: square"/>
   <path d="M 200.299442 192.033822 
L 201.299442 192.065258 
L 202.299442 192.102199 
L 203.299442 192.199945 
L 204.299442 192.232467 
L 205.299442 192.306091 
L 206.299442 192.344657 
L 207.299442 192.38007 
L 208.299442 192.43771 
L 209.299442 192.508096 
L 210.299442 192.56006 
L 211.299442 192.61915 
L 212.299442 192.707471 
L 213.299442 192.753615 
L 214.299442 192.796026 
L 215.299442 192.826519 
L 216.299442 192.852564 
L 217.299442 192.873764 
L 218.299442 192.928065 
L 219.299442 192.956003 
L 220.299442 192.985727 
L 221.299442 193.011122 
L 222.299442 193.022322 
L 223.299442 193.032446 
L 224.299442 193.032242 
L 225.299442 193.022732 
L 226.299442 193.011078 
L 227.299442 192.980049 
L 228.299442 192.968881 
L 229.299442 192.938763 
L 230.299442 192.878987 
L 231.299442 192.841795 
L 232.299442 192.802699 
L 233.299442 192.760259 
L 234.299442 192.727494 
L 235.299442 192.660068 
L 236.299442 192.620942 
L 237.299442 192.578267 
L 238.299442 192.507687 
L 239.299442 192.471296 
L 240.299442 192.412893 
L 241.299442 192.30194 
L 242.299442 192.231282 
L 243.299442 192.118342 
L 244.299442 192.072569 
L 245.299442 192.011286 
L 246.299442 191.962786 
L 247.299442 191.881964 
L 248.299442 191.763445 
L 249.299442 191.693234 
L 250.299442 191.609972 
L 251.299442 191.57683 
L 252.299442 191.525593 
L 253.299442 191.457194 
L 254.299442 191.390979 
L 255.299442 191.314062 
L 256.619695 191.286746 
" clip-path="url(#pee58469511)" style="fill: none; stroke: #1f77b4; stroke-opacity: 0.5; stroke-width: 0.2; stroke-linecap: square"/>
   <path d="M 200.299442 311.851844 
L 201.299442 311.88328 
L 202.299442 311.920221 
L 203.299442 312.017967 
L 204.299442 312.050489 
L 205.299442 312.124113 
L 206.299442 312.162679 
L 207.299442 312.198092 
L 208.299442 312.255732 
L 209.299442 312.326118 
L 210.299442 312.378082 
L 211.299442 312.437172 
L 212.299442 312.525493 
L 213.299442 312.571637 
L 214.299442 312.614048 
L 215.299442 312.644541 
L 216.299442 312.670586 
L 217.299442 312.691786 
L 218.299442 312.746087 
L 219.299442 312.774025 
L 220.299442 312.803749 
L 221.299442 312.829144 
L 222.299442 312.840344 
L 223.299442 312.850468 
L 224.299442 312.850264 
L 225.299442 312.840754 
L 226.299442 312.8291 
L 227.299442 312.798071 
L 228.299442 312.786903 
L 229.299442 312.756785 
L 230.299442 312.697008 
L 231.299442 312.659817 
L 232.299442 312.620721 
L 233.299442 312.578281 
L 234.299442 312.545516 
L 235.299442 312.47809 
L 236.299442 312.438964 
L 237.299442 312.396289 
L 238.299442 312.325709 
L 239.299442 312.289318 
L 240.299442 312.230915 
L 241.299442 312.119962 
L 242.299442 312.049304 
L 243.299442 311.936364 
L 244.299442 311.890591 
L 245.299442 311.829308 
L 246.299442 311.780808 
L 247.299442 311.699986 
L 248.299442 311.581467 
L 249.299442 311.511256 
L 250.299442 311.427994 
L 251.299442 311.394852 
L 252.299442 311.343615 
L 253.299442 311.275216 
L 254.299442 311.209001 
L 255.299442 311.132084 
L 256.619695 311.104768 
" clip-path="url(#pee58469511)" style="fill: none; stroke: #1f77b4; stroke-opacity: 0.5; stroke-width: 0.2; stroke-linecap: square"/>
   <path d="M 200.299442 293.594818 
L 201.299442 293.626254 
L 202.299442 293.663194 
L 203.299442 293.760941 
L 204.299442 293.793463 
L 205.299442 293.867087 
L 206.299442 293.905653 
L 207.299442 293.941066 
L 208.299442 293.998706 
L 209.299442 294.069092 
L 210.299442 294.121056 
L 211.299442 294.180146 
L 212.299442 294.268467 
L 213.299442 294.314611 
L 214.299442 294.357022 
L 215.299442 294.387515 
L 216.299442 294.41356 
L 217.299442 294.43476 
L 218.299442 294.489061 
L 219.299442 294.516999 
L 220.299442 294.546723 
L 221.299442 294.572117 
L 222.299442 294.583318 
L 223.299442 294.593442 
L 224.299442 294.593237 
L 225.299442 294.583728 
L 226.299442 294.572074 
L 227.299442 294.541045 
L 228.299442 294.529877 
L 229.299442 294.499759 
L 230.299442 294.439982 
L 231.299442 294.402791 
L 232.299442 294.363695 
L 233.299442 294.321255 
L 234.299442 294.28849 
L 235.299442 294.221064 
L 236.299442 294.181938 
L 237.299442 294.139263 
L 238.299442 294.068682 
L 239.299442 294.032292 
L 240.299442 293.973888 
L 241.299442 293.862936 
L 242.299442 293.792278 
L 243.299442 293.679338 
L 244.299442 293.633565 
L 245.299442 293.572282 
L 246.299442 293.523782 
L 247.299442 293.44296 
L 248.299442 293.324441 
L 249.299442 293.25423 
L 250.299442 293.170968 
L 251.299442 293.137826 
L 252.299442 293.086588 
L 253.299442 293.01819 
L 254.299442 292.951975 
L 255.299442 292.875058 
L 256.619695 292.847742 
" clip-path="url(#pee58469511)" style="fill: none; stroke: #1f77b4; stroke-opacity: 0.5; stroke-width: 0.2; stroke-linecap: square"/>
   <path d="M 200.299442 315.485724 
L 201.299442 315.517161 
L 202.299442 315.554101 
L 203.299442 315.651848 
L 204.299442 315.684369 
L 205.299442 315.757994 
L 206.299442 315.79656 
L 207.299442 315.831973 
L 208.299442 315.889613 
L 209.299442 315.959999 
L 210.299442 316.011963 
L 211.299442 316.071053 
L 212.299442 316.159374 
L 213.299442 316.205518 
L 214.299442 316.247929 
L 215.299442 316.278422 
L 216.299442 316.304467 
L 217.299442 316.325667 
L 218.299442 316.379968 
L 219.299442 316.407906 
L 220.299442 316.437629 
L 221.299442 316.463024 
L 222.299442 316.474225 
L 223.299442 316.484349 
L 224.299442 316.484144 
L 225.299442 316.474634 
L 226.299442 316.462981 
L 227.299442 316.431952 
L 228.299442 316.420784 
L 229.299442 316.390666 
L 230.299442 316.330889 
L 231.299442 316.293698 
L 232.299442 316.254602 
L 233.299442 316.212162 
L 234.299442 316.179397 
L 235.299442 316.11197 
L 236.299442 316.072844 
L 237.299442 316.03017 
L 238.299442 315.959589 
L 239.299442 315.923198 
L 240.299442 315.864795 
L 241.299442 315.753843 
L 242.299442 315.683184 
L 243.299442 315.570245 
L 244.299442 315.524472 
L 245.299442 315.463188 
L 246.299442 315.414689 
L 247.299442 315.333866 
L 248.299442 315.215347 
L 249.299442 315.145137 
L 250.299442 315.061874 
L 251.299442 315.028733 
L 252.299442 314.977495 
L 253.299442 314.909097 
L 254.299442 314.842881 
L 255.299442 314.765964 
L 256.619695 314.738649 
" clip-path="url(#pee58469511)" style="fill: none; stroke: #1f77b4; stroke-opacity: 0.5; stroke-width: 0.2; stroke-linecap: square"/>
   <path d="M 200.299442 68.432452 
L 201.299442 68.463889 
L 202.299442 68.500829 
L 203.299442 68.598576 
L 204.299442 68.631097 
L 205.299442 68.704722 
L 206.299442 68.743288 
L 207.299442 68.778701 
L 208.299442 68.836341 
L 209.299442 68.906727 
L 210.299442 68.958691 
L 211.299442 69.017781 
L 212.299442 69.106102 
L 213.299442 69.152246 
L 214.299442 69.194657 
L 215.299442 69.22515 
L 216.299442 69.251195 
L 217.299442 69.272395 
L 218.299442 69.326696 
L 219.299442 69.354633 
L 220.299442 69.384357 
L 221.299442 69.409752 
L 222.299442 69.420953 
L 223.299442 69.431077 
L 224.299442 69.430872 
L 225.299442 69.421362 
L 226.299442 69.409709 
L 227.299442 69.37868 
L 228.299442 69.367512 
L 229.299442 69.337394 
L 230.299442 69.277617 
L 231.299442 69.240426 
L 232.299442 69.20133 
L 233.299442 69.15889 
L 234.299442 69.126125 
L 235.299442 69.058698 
L 236.299442 69.019572 
L 237.299442 68.976898 
L 238.299442 68.906317 
L 239.299442 68.869926 
L 240.299442 68.811523 
L 241.299442 68.700571 
L 242.299442 68.629912 
L 243.299442 68.516973 
L 244.299442 68.4712 
L 245.299442 68.409916 
L 246.299442 68.361417 
L 247.299442 68.280594 
L 248.299442 68.162075 
L 249.299442 68.091865 
L 250.299442 68.008602 
L 251.299442 67.975461 
L 252.299442 67.924223 
L 253.299442 67.855825 
L 254.299442 67.789609 
L 255.299442 67.712692 
L 256.619695 67.685377 
" clip-path="url(#pee58469511)" style="fill: none; stroke: #1f77b4; stroke-opacity: 0.5; stroke-width: 0.2; stroke-linecap: square"/>
   <path d="M 256.619695 65.319334 
L 255.619695 65.287898 
L 254.619695 65.250957 
L 253.619695 65.153211 
L 252.619695 65.120689 
L 251.619695 65.047065 
L 250.619695 65.008499 
L 249.619695 64.973086 
L 248.619695 64.915446 
L 247.619695 64.84506 
L 246.619695 64.793096 
L 245.619695 64.734006 
L 244.619695 64.645685 
L 243.619695 64.59954 
L 242.619695 64.55713 
L 241.619695 64.526637 
L 240.619695 64.500592 
L 239.619695 64.479392 
L 238.619695 64.425091 
L 237.619695 64.397153 
L 236.619695 64.367429 
L 235.619695 64.342034 
L 234.619695 64.330834 
L 233.619695 64.32071 
L 232.619695 64.320914 
L 231.619695 64.330424 
L 230.619695 64.342078 
L 229.619695 64.373107 
L 228.619695 64.384275 
L 227.619695 64.414393 
L 226.619695 64.474169 
L 225.619695 64.511361 
L 224.619695 64.550457 
L 223.619695 64.592897 
L 222.619695 64.625662 
L 221.619695 64.693088 
L 220.619695 64.732214 
L 219.619695 64.774889 
L 218.619695 64.845469 
L 217.619695 64.88186 
L 216.619695 64.940263 
L 215.619695 65.051216 
L 214.619695 65.121874 
L 213.619695 65.234814 
L 212.619695 65.280587 
L 211.619695 65.34187 
L 210.619695 65.39037 
L 209.619695 65.471192 
L 208.619695 65.589711 
L 207.619695 65.659922 
L 206.619695 65.743184 
L 205.619695 65.776326 
L 204.619695 65.827563 
L 203.619695 65.895962 
L 202.619695 65.962177 
L 201.619695 66.039094 
L 200.299442 66.06641 
" clip-path="url(#pee58469511)" style="fill: none; stroke: #ff7f0e; stroke-opacity: 0.5; stroke-width: 0.2; stroke-linecap: square"/>
   <path d="M 256.619695 165.906877 
L 255.619695 165.87544 
L 254.619695 165.8385 
L 253.619695 165.740754 
L 252.619695 165.708232 
L 251.619695 165.634607 
L 250.619695 165.596042 
L 249.619695 165.560629 
L 248.619695 165.502989 
L 247.619695 165.432602 
L 246.619695 165.380638 
L 245.619695 165.321548 
L 244.619695 165.233227 
L 243.619695 165.187083 
L 242.619695 165.144672 
L 241.619695 165.11418 
L 240.619695 165.088135 
L 239.619695 165.066935 
L 238.619695 165.012633 
L 237.619695 164.984696 
L 236.619695 164.954972 
L 235.619695 164.929577 
L 234.619695 164.918377 
L 233.619695 164.908253 
L 232.619695 164.908457 
L 231.619695 164.917967 
L 230.619695 164.92962 
L 229.619695 164.96065 
L 228.619695 164.971818 
L 227.619695 165.001935 
L 226.619695 165.061712 
L 225.619695 165.098904 
L 224.619695 165.138 
L 223.619695 165.180439 
L 222.619695 165.213205 
L 221.619695 165.280631 
L 220.619695 165.319757 
L 219.619695 165.362431 
L 218.619695 165.433012 
L 217.619695 165.469403 
L 216.619695 165.527806 
L 215.619695 165.638759 
L 214.619695 165.709417 
L 213.619695 165.822357 
L 212.619695 165.86813 
L 211.619695 165.929413 
L 210.619695 165.977912 
L 209.619695 166.058735 
L 208.619695 166.177254 
L 207.619695 166.247464 
L 206.619695 166.330727 
L 205.619695 166.363869 
L 204.619695 166.415106 
L 203.619695 166.483504 
L 202.619695 166.54972 
L 201.619695 166.626637 
L 200.299442 166.653952 
" clip-path="url(#pee58469511)" style="fill: none; stroke: #ff7f0e; stroke-opacity: 0.5; stroke-width: 0.2; stroke-linecap: square"/>
   <path d="M 256.619695 89.331292 
L 255.619695 89.299855 
L 254.619695 89.262915 
L 253.619695 89.165168 
L 252.619695 89.132647 
L 251.619695 89.059022 
L 250.619695 89.020457 
L 249.619695 88.985043 
L 248.619695 88.927403 
L 247.619695 88.857017 
L 246.619695 88.805053 
L 245.619695 88.745963 
L 244.619695 88.657642 
L 243.619695 88.611498 
L 242.619695 88.569087 
L 241.619695 88.538594 
L 240.619695 88.512549 
L 239.619695 88.491349 
L 238.619695 88.437048 
L 237.619695 88.409111 
L 236.619695 88.379387 
L 235.619695 88.353992 
L 234.619695 88.342791 
L 233.619695 88.332668 
L 232.619695 88.332872 
L 231.619695 88.342382 
L 230.619695 88.354035 
L 229.619695 88.385065 
L 228.619695 88.396232 
L 227.619695 88.42635 
L 226.619695 88.486127 
L 225.619695 88.523318 
L 224.619695 88.562415 
L 223.619695 88.604854 
L 222.619695 88.637619 
L 221.619695 88.705046 
L 220.619695 88.744172 
L 219.619695 88.786846 
L 218.619695 88.857427 
L 217.619695 88.893818 
L 216.619695 88.952221 
L 215.619695 89.063173 
L 214.619695 89.133832 
L 213.619695 89.246772 
L 212.619695 89.292544 
L 211.619695 89.353828 
L 210.619695 89.402327 
L 209.619695 89.48315 
L 208.619695 89.601669 
L 207.619695 89.671879 
L 206.619695 89.755142 
L 205.619695 89.788284 
L 204.619695 89.839521 
L 203.619695 89.907919 
L 202.619695 89.974135 
L 201.619695 90.051052 
L 200.299442 90.078367 
" clip-path="url(#pee58469511)" style="fill: none; stroke: #ff7f0e; stroke-opacity: 0.5; stroke-width: 0.2; stroke-linecap: square"/>
   <path d="M 256.619695 256.871712 
L 255.619695 256.840276 
L 254.619695 256.803335 
L 253.619695 256.705589 
L 252.619695 256.673067 
L 251.619695 256.599442 
L 250.619695 256.560877 
L 249.619695 256.525464 
L 248.619695 256.467824 
L 247.619695 256.397438 
L 246.619695 256.345473 
L 245.619695 256.286384 
L 244.619695 256.198063 
L 243.619695 256.151918 
L 242.619695 256.109507 
L 241.619695 256.079015 
L 240.619695 256.05297 
L 239.619695 256.03177 
L 238.619695 255.977469 
L 237.619695 255.949531 
L 236.619695 255.919807 
L 235.619695 255.894412 
L 234.619695 255.883212 
L 233.619695 255.873088 
L 232.619695 255.873292 
L 231.619695 255.882802 
L 230.619695 255.894456 
L 229.619695 255.925485 
L 228.619695 255.936653 
L 227.619695 255.96677 
L 226.619695 256.026547 
L 225.619695 256.063739 
L 224.619695 256.102835 
L 223.619695 256.145275 
L 222.619695 256.17804 
L 221.619695 256.245466 
L 220.619695 256.284592 
L 219.619695 256.327267 
L 218.619695 256.397847 
L 217.619695 256.434238 
L 216.619695 256.492641 
L 215.619695 256.603594 
L 214.619695 256.674252 
L 213.619695 256.787192 
L 212.619695 256.832965 
L 211.619695 256.894248 
L 210.619695 256.942747 
L 209.619695 257.02357 
L 208.619695 257.142089 
L 207.619695 257.2123 
L 206.619695 257.295562 
L 205.619695 257.328704 
L 204.619695 257.379941 
L 203.619695 257.44834 
L 202.619695 257.514555 
L 201.619695 257.591472 
L 200.299442 257.618788 
" clip-path="url(#pee58469511)" style="fill: none; stroke: #ff7f0e; stroke-opacity: 0.5; stroke-width: 0.2; stroke-linecap: square"/>
   <path d="M 256.619695 261.791141 
L 255.619695 261.759704 
L 254.619695 261.722764 
L 253.619695 261.625017 
L 252.619695 261.592496 
L 251.619695 261.518871 
L 250.619695 261.480305 
L 249.619695 261.444892 
L 248.619695 261.387252 
L 247.619695 261.316866 
L 246.619695 261.264902 
L 245.619695 261.205812 
L 244.619695 261.117491 
L 243.619695 261.071347 
L 242.619695 261.028936 
L 241.619695 260.998443 
L 240.619695 260.972398 
L 239.619695 260.951198 
L 238.619695 260.896897 
L 237.619695 260.86896 
L 236.619695 260.839236 
L 235.619695 260.813841 
L 234.619695 260.80264 
L 233.619695 260.792516 
L 232.619695 260.792721 
L 231.619695 260.802231 
L 230.619695 260.813884 
L 229.619695 260.844913 
L 228.619695 260.856081 
L 227.619695 260.886199 
L 226.619695 260.945976 
L 225.619695 260.983167 
L 224.619695 261.022263 
L 223.619695 261.064703 
L 222.619695 261.097468 
L 221.619695 261.164895 
L 220.619695 261.204021 
L 219.619695 261.246695 
L 218.619695 261.317276 
L 217.619695 261.353667 
L 216.619695 261.41207 
L 215.619695 261.523022 
L 214.619695 261.593681 
L 213.619695 261.706621 
L 212.619695 261.752393 
L 211.619695 261.813677 
L 210.619695 261.862176 
L 209.619695 261.942999 
L 208.619695 262.061518 
L 207.619695 262.131728 
L 206.619695 262.214991 
L 205.619695 262.248132 
L 204.619695 262.29937 
L 203.619695 262.367768 
L 202.619695 262.433984 
L 201.619695 262.510901 
L 200.299442 262.538216 
" clip-path="url(#pee58469511)" style="fill: none; stroke: #ff7f0e; stroke-opacity: 0.5; stroke-width: 0.2; stroke-linecap: square"/>
   <path d="M 256.619695 89.04209 
L 255.619695 89.010654 
L 254.619695 88.973713 
L 253.619695 88.875967 
L 252.619695 88.843445 
L 251.619695 88.769821 
L 250.619695 88.731255 
L 249.619695 88.695842 
L 248.619695 88.638202 
L 247.619695 88.567816 
L 246.619695 88.515851 
L 245.619695 88.456762 
L 244.619695 88.368441 
L 243.619695 88.322296 
L 242.619695 88.279886 
L 241.619695 88.249393 
L 240.619695 88.223348 
L 239.619695 88.202148 
L 238.619695 88.147847 
L 237.619695 88.119909 
L 236.619695 88.090185 
L 235.619695 88.06479 
L 234.619695 88.05359 
L 233.619695 88.043466 
L 232.619695 88.04367 
L 231.619695 88.05318 
L 230.619695 88.064834 
L 229.619695 88.095863 
L 228.619695 88.107031 
L 227.619695 88.137148 
L 226.619695 88.196925 
L 225.619695 88.234117 
L 224.619695 88.273213 
L 223.619695 88.315653 
L 222.619695 88.348418 
L 221.619695 88.415844 
L 220.619695 88.45497 
L 219.619695 88.497645 
L 218.619695 88.568225 
L 217.619695 88.604616 
L 216.619695 88.663019 
L 215.619695 88.773972 
L 214.619695 88.84463 
L 213.619695 88.95757 
L 212.619695 89.003343 
L 211.619695 89.064626 
L 210.619695 89.113126 
L 209.619695 89.193948 
L 208.619695 89.312467 
L 207.619695 89.382678 
L 206.619695 89.46594 
L 205.619695 89.499082 
L 204.619695 89.550319 
L 203.619695 89.618718 
L 202.619695 89.684933 
L 201.619695 89.76185 
L 200.299442 89.789166 
" clip-path="url(#pee58469511)" style="fill: none; stroke: #ff7f0e; stroke-opacity: 0.5; stroke-width: 0.2; stroke-linecap: square"/>
   <path d="M 256.619695 278.811535 
L 255.619695 278.780099 
L 254.619695 278.743158 
L 253.619695 278.645412 
L 252.619695 278.61289 
L 251.619695 278.539265 
L 250.619695 278.5007 
L 249.619695 278.465287 
L 248.619695 278.407647 
L 247.619695 278.33726 
L 246.619695 278.285296 
L 245.619695 278.226206 
L 244.619695 278.137886 
L 243.619695 278.091741 
L 242.619695 278.04933 
L 241.619695 278.018838 
L 240.619695 277.992793 
L 239.619695 277.971593 
L 238.619695 277.917291 
L 237.619695 277.889354 
L 236.619695 277.85963 
L 235.619695 277.834235 
L 234.619695 277.823035 
L 233.619695 277.812911 
L 232.619695 277.813115 
L 231.619695 277.822625 
L 230.619695 277.834279 
L 229.619695 277.865308 
L 228.619695 277.876476 
L 227.619695 277.906593 
L 226.619695 277.96637 
L 225.619695 278.003562 
L 224.619695 278.042658 
L 223.619695 278.085097 
L 222.619695 278.117863 
L 221.619695 278.185289 
L 220.619695 278.224415 
L 219.619695 278.267089 
L 218.619695 278.33767 
L 217.619695 278.374061 
L 216.619695 278.432464 
L 215.619695 278.543417 
L 214.619695 278.614075 
L 213.619695 278.727015 
L 212.619695 278.772788 
L 211.619695 278.834071 
L 210.619695 278.88257 
L 209.619695 278.963393 
L 208.619695 279.081912 
L 207.619695 279.152123 
L 206.619695 279.235385 
L 205.619695 279.268527 
L 204.619695 279.319764 
L 203.619695 279.388162 
L 202.619695 279.454378 
L 201.619695 279.531295 
L 200.299442 279.55861 
" clip-path="url(#pee58469511)" style="fill: none; stroke: #ff7f0e; stroke-opacity: 0.5; stroke-width: 0.2; stroke-linecap: square"/>
   <path d="M 256.619695 233.021066 
L 255.619695 232.98963 
L 254.619695 232.95269 
L 253.619695 232.854943 
L 252.619695 232.822421 
L 251.619695 232.748797 
L 250.619695 232.710231 
L 249.619695 232.674818 
L 248.619695 232.617178 
L 247.619695 232.546792 
L 246.619695 232.494828 
L 245.619695 232.435738 
L 244.619695 232.347417 
L 243.619695 232.301273 
L 242.619695 232.258862 
L 241.619695 232.228369 
L 240.619695 232.202324 
L 239.619695 232.181124 
L 238.619695 232.126823 
L 237.619695 232.098885 
L 236.619695 232.069161 
L 235.619695 232.043767 
L 234.619695 232.032566 
L 233.619695 232.022442 
L 232.619695 232.022647 
L 231.619695 232.032156 
L 230.619695 232.04381 
L 229.619695 232.074839 
L 228.619695 232.086007 
L 227.619695 232.116125 
L 226.619695 232.175902 
L 225.619695 232.213093 
L 224.619695 232.252189 
L 223.619695 232.294629 
L 222.619695 232.327394 
L 221.619695 232.39482 
L 220.619695 232.433946 
L 219.619695 232.476621 
L 218.619695 232.547201 
L 217.619695 232.583592 
L 216.619695 232.641996 
L 215.619695 232.752948 
L 214.619695 232.823606 
L 213.619695 232.936546 
L 212.619695 232.982319 
L 211.619695 233.043602 
L 210.619695 233.092102 
L 209.619695 233.172924 
L 208.619695 233.291443 
L 207.619695 233.361654 
L 206.619695 233.444916 
L 205.619695 233.478058 
L 204.619695 233.529296 
L 203.619695 233.597694 
L 202.619695 233.663909 
L 201.619695 233.740826 
L 200.299442 233.768142 
" clip-path="url(#pee58469511)" style="fill: none; stroke: #ff7f0e; stroke-opacity: 0.5; stroke-width: 0.2; stroke-linecap: square"/>
   <path d="M 256.619695 163.379909 
L 255.619695 163.348473 
L 254.619695 163.311532 
L 253.619695 163.213786 
L 252.619695 163.181264 
L 251.619695 163.107639 
L 250.619695 163.069074 
L 249.619695 163.033661 
L 248.619695 162.976021 
L 247.619695 162.905635 
L 246.619695 162.85367 
L 245.619695 162.794581 
L 244.619695 162.70626 
L 243.619695 162.660115 
L 242.619695 162.617704 
L 241.619695 162.587212 
L 240.619695 162.561167 
L 239.619695 162.539967 
L 238.619695 162.485666 
L 237.619695 162.457728 
L 236.619695 162.428004 
L 235.619695 162.402609 
L 234.619695 162.391409 
L 233.619695 162.381285 
L 232.619695 162.381489 
L 231.619695 162.390999 
L 230.619695 162.402653 
L 229.619695 162.433682 
L 228.619695 162.44485 
L 227.619695 162.474967 
L 226.619695 162.534744 
L 225.619695 162.571936 
L 224.619695 162.611032 
L 223.619695 162.653472 
L 222.619695 162.686237 
L 221.619695 162.753663 
L 220.619695 162.792789 
L 219.619695 162.835464 
L 218.619695 162.906044 
L 217.619695 162.942435 
L 216.619695 163.000838 
L 215.619695 163.111791 
L 214.619695 163.182449 
L 213.619695 163.295389 
L 212.619695 163.341162 
L 211.619695 163.402445 
L 210.619695 163.450944 
L 209.619695 163.531767 
L 208.619695 163.650286 
L 207.619695 163.720497 
L 206.619695 163.803759 
L 205.619695 163.836901 
L 204.619695 163.888138 
L 203.619695 163.956537 
L 202.619695 164.022752 
L 201.619695 164.099669 
L 200.299442 164.126985 
" clip-path="url(#pee58469511)" style="fill: none; stroke: #ff7f0e; stroke-opacity: 0.5; stroke-width: 0.2; stroke-linecap: square"/>
   <path d="M 256.619695 264.717501 
L 255.619695 264.686064 
L 254.619695 264.649124 
L 253.619695 264.551377 
L 252.619695 264.518856 
L 251.619695 264.445231 
L 250.619695 264.406666 
L 249.619695 264.371252 
L 248.619695 264.313612 
L 247.619695 264.243226 
L 246.619695 264.191262 
L 245.619695 264.132172 
L 244.619695 264.043851 
L 243.619695 263.997707 
L 242.619695 263.955296 
L 241.619695 263.924803 
L 240.619695 263.898758 
L 239.619695 263.877558 
L 238.619695 263.823257 
L 237.619695 263.79532 
L 236.619695 263.765596 
L 235.619695 263.740201 
L 234.619695 263.729001 
L 233.619695 263.718877 
L 232.619695 263.719081 
L 231.619695 263.728591 
L 230.619695 263.740244 
L 229.619695 263.771274 
L 228.619695 263.782442 
L 227.619695 263.812559 
L 226.619695 263.872336 
L 225.619695 263.909528 
L 224.619695 263.948624 
L 223.619695 263.991063 
L 222.619695 264.023828 
L 221.619695 264.091255 
L 220.619695 264.130381 
L 219.619695 264.173055 
L 218.619695 264.243636 
L 217.619695 264.280027 
L 216.619695 264.33843 
L 215.619695 264.449383 
L 214.619695 264.520041 
L 213.619695 264.632981 
L 212.619695 264.678754 
L 211.619695 264.740037 
L 210.619695 264.788536 
L 209.619695 264.869359 
L 208.619695 264.987878 
L 207.619695 265.058088 
L 206.619695 265.141351 
L 205.619695 265.174493 
L 204.619695 265.22573 
L 203.619695 265.294128 
L 202.619695 265.360344 
L 201.619695 265.437261 
L 200.299442 265.464576 
" clip-path="url(#pee58469511)" style="fill: none; stroke: #ff7f0e; stroke-opacity: 0.5; stroke-width: 0.2; stroke-linecap: square"/>
   <path d="M 390.34593 162.812981 
L 391.34593 162.844417 
L 392.34593 162.881357 
L 393.34593 162.979104 
L 394.34593 163.011625 
L 395.34593 163.08525 
L 396.34593 163.123816 
L 397.34593 163.159229 
L 398.34593 163.216869 
L 399.34593 163.287255 
L 400.34593 163.339219 
L 401.34593 163.398309 
L 402.34593 163.48663 
L 403.34593 163.532774 
L 404.34593 163.575185 
L 405.34593 163.605678 
L 406.34593 163.631723 
L 407.34593 163.652923 
L 408.34593 163.707224 
L 409.34593 163.735162 
L 410.34593 163.764886 
L 411.34593 163.79028 
L 412.34593 163.801481 
L 413.34593 163.811605 
L 414.34593 163.8114 
L 415.34593 163.80189 
L 416.34593 163.790237 
L 417.34593 163.759208 
L 418.34593 163.74804 
L 419.34593 163.717922 
L 420.34593 163.658145 
L 421.34593 163.620954 
L 422.34593 163.581858 
L 423.34593 163.539418 
L 424.34593 163.506653 
L 425.34593 163.439226 
L 426.34593 163.4001 
L 427.34593 163.357426 
L 428.34593 163.286845 
L 429.34593 163.250454 
L 430.34593 163.192051 
L 431.34593 163.081099 
L 432.34593 163.01044 
L 433.34593 162.897501 
L 434.34593 162.851728 
L 435.34593 162.790444 
L 436.34593 162.741945 
L 437.34593 162.661122 
L 438.34593 162.542604 
L 439.34593 162.472393 
L 440.34593 162.38913 
L 441.34593 162.355989 
L 442.34593 162.304751 
L 443.34593 162.236353 
L 444.34593 162.170138 
L 445.34593 162.09322 
L 446.666183 162.065905 
" clip-path="url(#pee58469511)" style="fill: none; stroke: #ff7f0e; stroke-opacity: 0.5; stroke-width: 0.2; stroke-linecap: square"/>
   <path d="M 390.34593 148.224136 
L 391.34593 148.255572 
L 392.34593 148.292512 
L 393.34593 148.390259 
L 394.34593 148.42278 
L 395.34593 148.496405 
L 396.34593 148.534971 
L 397.34593 148.570384 
L 398.34593 148.628024 
L 399.34593 148.69841 
L 400.34593 148.750374 
L 401.34593 148.809464 
L 402.34593 148.897785 
L 403.34593 148.943929 
L 404.34593 148.98634 
L 405.34593 149.016833 
L 406.34593 149.042878 
L 407.34593 149.064078 
L 408.34593 149.118379 
L 409.34593 149.146317 
L 410.34593 149.176041 
L 411.34593 149.201435 
L 412.34593 149.212636 
L 413.34593 149.22276 
L 414.34593 149.222555 
L 415.34593 149.213045 
L 416.34593 149.201392 
L 417.34593 149.170363 
L 418.34593 149.159195 
L 419.34593 149.129077 
L 420.34593 149.0693 
L 421.34593 149.032109 
L 422.34593 148.993013 
L 423.34593 148.950573 
L 424.34593 148.917808 
L 425.34593 148.850381 
L 426.34593 148.811255 
L 427.34593 148.768581 
L 428.34593 148.698 
L 429.34593 148.661609 
L 430.34593 148.603206 
L 431.34593 148.492254 
L 432.34593 148.421595 
L 433.34593 148.308656 
L 434.34593 148.262883 
L 435.34593 148.201599 
L 436.34593 148.1531 
L 437.34593 148.072277 
L 438.34593 147.953759 
L 439.34593 147.883548 
L 440.34593 147.800285 
L 441.34593 147.767144 
L 442.34593 147.715906 
L 443.34593 147.647508 
L 444.34593 147.581293 
L 445.34593 147.504375 
L 446.666183 147.47706 
" clip-path="url(#pee58469511)" style="fill: none; stroke: #ff7f0e; stroke-opacity: 0.5; stroke-width: 0.2; stroke-linecap: square"/>
   <path d="M 390.34593 219.519924 
L 391.34593 219.551361 
L 392.34593 219.588301 
L 393.34593 219.686047 
L 394.34593 219.718569 
L 395.34593 219.792194 
L 396.34593 219.830759 
L 397.34593 219.866173 
L 398.34593 219.923812 
L 399.34593 219.994199 
L 400.34593 220.046163 
L 401.34593 220.105253 
L 402.34593 220.193574 
L 403.34593 220.239718 
L 404.34593 220.282129 
L 405.34593 220.312621 
L 406.34593 220.338666 
L 407.34593 220.359867 
L 408.34593 220.414168 
L 409.34593 220.442105 
L 410.34593 220.471829 
L 411.34593 220.497224 
L 412.34593 220.508424 
L 413.34593 220.518548 
L 414.34593 220.518344 
L 415.34593 220.508834 
L 416.34593 220.497181 
L 417.34593 220.466151 
L 418.34593 220.454983 
L 419.34593 220.424866 
L 420.34593 220.365089 
L 421.34593 220.327897 
L 422.34593 220.288801 
L 423.34593 220.246362 
L 424.34593 220.213597 
L 425.34593 220.14617 
L 426.34593 220.107044 
L 427.34593 220.06437 
L 428.34593 219.993789 
L 429.34593 219.957398 
L 430.34593 219.898995 
L 431.34593 219.788042 
L 432.34593 219.717384 
L 433.34593 219.604444 
L 434.34593 219.558671 
L 435.34593 219.497388 
L 436.34593 219.448889 
L 437.34593 219.368066 
L 438.34593 219.249547 
L 439.34593 219.179337 
L 440.34593 219.096074 
L 441.34593 219.062932 
L 442.34593 219.011695 
L 443.34593 218.943297 
L 444.34593 218.877081 
L 445.34593 218.800164 
L 446.666183 218.772849 
" clip-path="url(#pee58469511)" style="fill: none; stroke: #ff7f0e; stroke-opacity: 0.5; stroke-width: 0.2; stroke-linecap: square"/>
   <path d="M 390.34593 26.615567 
L 391.34593 26.647003 
L 392.34593 26.683944 
L 393.34593 26.78169 
L 394.34593 26.814212 
L 395.34593 26.887837 
L 396.34593 26.926402 
L 397.34593 26.961815 
L 398.34593 27.019455 
L 399.34593 27.089841 
L 400.34593 27.141806 
L 401.34593 27.200895 
L 402.34593 27.289216 
L 403.34593 27.335361 
L 404.34593 27.377772 
L 405.34593 27.408264 
L 406.34593 27.434309 
L 407.34593 27.455509 
L 408.34593 27.50981 
L 409.34593 27.537748 
L 410.34593 27.567472 
L 411.34593 27.592867 
L 412.34593 27.604067 
L 413.34593 27.614191 
L 414.34593 27.613987 
L 415.34593 27.604477 
L 416.34593 27.592823 
L 417.34593 27.561794 
L 418.34593 27.550626 
L 419.34593 27.520509 
L 420.34593 27.460732 
L 421.34593 27.42354 
L 422.34593 27.384444 
L 423.34593 27.342004 
L 424.34593 27.309239 
L 425.34593 27.241813 
L 426.34593 27.202687 
L 427.34593 27.160012 
L 428.34593 27.089432 
L 429.34593 27.053041 
L 430.34593 26.994638 
L 431.34593 26.883685 
L 432.34593 26.813027 
L 433.34593 26.700087 
L 434.34593 26.654314 
L 435.34593 26.593031 
L 436.34593 26.544532 
L 437.34593 26.463709 
L 438.34593 26.34519 
L 439.34593 26.274979 
L 440.34593 26.191717 
L 441.34593 26.158575 
L 442.34593 26.107338 
L 443.34593 26.038939 
L 444.34593 25.972724 
L 445.34593 25.895807 
L 446.666183 25.868491 
" clip-path="url(#pee58469511)" style="fill: none; stroke: #ff7f0e; stroke-opacity: 0.5; stroke-width: 0.2; stroke-linecap: square"/>
   <path d="M 390.34593 280.680458 
L 391.34593 280.711894 
L 392.34593 280.748835 
L 393.34593 280.846581 
L 394.34593 280.879103 
L 395.34593 280.952727 
L 396.34593 280.991293 
L 397.34593 281.026706 
L 398.34593 281.084346 
L 399.34593 281.154732 
L 400.34593 281.206697 
L 401.34593 281.265786 
L 402.34593 281.354107 
L 403.34593 281.400252 
L 404.34593 281.442662 
L 405.34593 281.473155 
L 406.34593 281.4992 
L 407.34593 281.5204 
L 408.34593 281.574701 
L 409.34593 281.602639 
L 410.34593 281.632363 
L 411.34593 281.657758 
L 412.34593 281.668958 
L 413.34593 281.679082 
L 414.34593 281.678878 
L 415.34593 281.669368 
L 416.34593 281.657714 
L 417.34593 281.626685 
L 418.34593 281.615517 
L 419.34593 281.585399 
L 420.34593 281.525623 
L 421.34593 281.488431 
L 422.34593 281.449335 
L 423.34593 281.406895 
L 424.34593 281.37413 
L 425.34593 281.306704 
L 426.34593 281.267578 
L 427.34593 281.224903 
L 428.34593 281.154323 
L 429.34593 281.117932 
L 430.34593 281.059529 
L 431.34593 280.948576 
L 432.34593 280.877918 
L 433.34593 280.764978 
L 434.34593 280.719205 
L 435.34593 280.657922 
L 436.34593 280.609422 
L 437.34593 280.5286 
L 438.34593 280.410081 
L 439.34593 280.33987 
L 440.34593 280.256608 
L 441.34593 280.223466 
L 442.34593 280.172229 
L 443.34593 280.10383 
L 444.34593 280.037615 
L 445.34593 279.960698 
L 446.666183 279.933382 
" clip-path="url(#pee58469511)" style="fill: none; stroke: #ff7f0e; stroke-opacity: 0.5; stroke-width: 0.2; stroke-linecap: square"/>
   <path d="M 390.34593 96.52463 
L 391.34593 96.556066 
L 392.34593 96.593006 
L 393.34593 96.690753 
L 394.34593 96.723275 
L 395.34593 96.796899 
L 396.34593 96.835465 
L 397.34593 96.870878 
L 398.34593 96.928518 
L 399.34593 96.998904 
L 400.34593 97.050868 
L 401.34593 97.109958 
L 402.34593 97.198279 
L 403.34593 97.244423 
L 404.34593 97.286834 
L 405.34593 97.317327 
L 406.34593 97.343372 
L 407.34593 97.364572 
L 408.34593 97.418873 
L 409.34593 97.446811 
L 410.34593 97.476535 
L 411.34593 97.501929 
L 412.34593 97.51313 
L 413.34593 97.523254 
L 414.34593 97.523049 
L 415.34593 97.51354 
L 416.34593 97.501886 
L 417.34593 97.470857 
L 418.34593 97.459689 
L 419.34593 97.429571 
L 420.34593 97.369794 
L 421.34593 97.332603 
L 422.34593 97.293507 
L 423.34593 97.251067 
L 424.34593 97.218302 
L 425.34593 97.150876 
L 426.34593 97.11175 
L 427.34593 97.069075 
L 428.34593 96.998495 
L 429.34593 96.962104 
L 430.34593 96.9037 
L 431.34593 96.792748 
L 432.34593 96.72209 
L 433.34593 96.60915 
L 434.34593 96.563377 
L 435.34593 96.502094 
L 436.34593 96.453594 
L 437.34593 96.372772 
L 438.34593 96.254253 
L 439.34593 96.184042 
L 440.34593 96.10078 
L 441.34593 96.067638 
L 442.34593 96.016401 
L 443.34593 95.948002 
L 444.34593 95.881787 
L 445.34593 95.80487 
L 446.666183 95.777554 
" clip-path="url(#pee58469511)" style="fill: none; stroke: #ff7f0e; stroke-opacity: 0.5; stroke-width: 0.2; stroke-linecap: square"/>
   <path d="M 390.34593 276.577175 
L 391.34593 276.608612 
L 392.34593 276.645552 
L 393.34593 276.743299 
L 394.34593 276.77582 
L 395.34593 276.849445 
L 396.34593 276.888011 
L 397.34593 276.923424 
L 398.34593 276.981064 
L 399.34593 277.05145 
L 400.34593 277.103414 
L 401.34593 277.162504 
L 402.34593 277.250825 
L 403.34593 277.296969 
L 404.34593 277.33938 
L 405.34593 277.369873 
L 406.34593 277.395918 
L 407.34593 277.417118 
L 408.34593 277.471419 
L 409.34593 277.499356 
L 410.34593 277.52908 
L 411.34593 277.554475 
L 412.34593 277.565676 
L 413.34593 277.5758 
L 414.34593 277.575595 
L 415.34593 277.566085 
L 416.34593 277.554432 
L 417.34593 277.523403 
L 418.34593 277.512235 
L 419.34593 277.482117 
L 420.34593 277.42234 
L 421.34593 277.385149 
L 422.34593 277.346053 
L 423.34593 277.303613 
L 424.34593 277.270848 
L 425.34593 277.203421 
L 426.34593 277.164295 
L 427.34593 277.121621 
L 428.34593 277.05104 
L 429.34593 277.014649 
L 430.34593 276.956246 
L 431.34593 276.845294 
L 432.34593 276.774635 
L 433.34593 276.661695 
L 434.34593 276.615923 
L 435.34593 276.554639 
L 436.34593 276.50614 
L 437.34593 276.425317 
L 438.34593 276.306798 
L 439.34593 276.236588 
L 440.34593 276.153325 
L 441.34593 276.120184 
L 442.34593 276.068946 
L 443.34593 276.000548 
L 444.34593 275.934332 
L 445.34593 275.857415 
L 446.666183 275.8301 
" clip-path="url(#pee58469511)" style="fill: none; stroke: #ff7f0e; stroke-opacity: 0.5; stroke-width: 0.2; stroke-linecap: square"/>
   <path d="M 390.34593 303.330008 
L 391.34593 303.361444 
L 392.34593 303.398385 
L 393.34593 303.496131 
L 394.34593 303.528653 
L 395.34593 303.602277 
L 396.34593 303.640843 
L 397.34593 303.676256 
L 398.34593 303.733896 
L 399.34593 303.804282 
L 400.34593 303.856247 
L 401.34593 303.915336 
L 402.34593 304.003657 
L 403.34593 304.049802 
L 404.34593 304.092213 
L 405.34593 304.122705 
L 406.34593 304.14875 
L 407.34593 304.16995 
L 408.34593 304.224251 
L 409.34593 304.252189 
L 410.34593 304.281913 
L 411.34593 304.307308 
L 412.34593 304.318508 
L 413.34593 304.328632 
L 414.34593 304.328428 
L 415.34593 304.318918 
L 416.34593 304.307264 
L 417.34593 304.276235 
L 418.34593 304.265067 
L 419.34593 304.23495 
L 420.34593 304.175173 
L 421.34593 304.137981 
L 422.34593 304.098885 
L 423.34593 304.056445 
L 424.34593 304.02368 
L 425.34593 303.956254 
L 426.34593 303.917128 
L 427.34593 303.874453 
L 428.34593 303.803873 
L 429.34593 303.767482 
L 430.34593 303.709079 
L 431.34593 303.598126 
L 432.34593 303.527468 
L 433.34593 303.414528 
L 434.34593 303.368755 
L 435.34593 303.307472 
L 436.34593 303.258972 
L 437.34593 303.17815 
L 438.34593 303.059631 
L 439.34593 302.98942 
L 440.34593 302.906158 
L 441.34593 302.873016 
L 442.34593 302.821779 
L 443.34593 302.75338 
L 444.34593 302.687165 
L 445.34593 302.610248 
L 446.666183 302.582932 
" clip-path="url(#pee58469511)" style="fill: none; stroke: #ff7f0e; stroke-opacity: 0.5; stroke-width: 0.2; stroke-linecap: square"/>
   <path d="M 390.34593 185.168133 
L 391.34593 185.19957 
L 392.34593 185.23651 
L 393.34593 185.334257 
L 394.34593 185.366778 
L 395.34593 185.440403 
L 396.34593 185.478968 
L 397.34593 185.514382 
L 398.34593 185.572022 
L 399.34593 185.642408 
L 400.34593 185.694372 
L 401.34593 185.753462 
L 402.34593 185.841783 
L 403.34593 185.887927 
L 404.34593 185.930338 
L 405.34593 185.960831 
L 406.34593 185.986876 
L 407.34593 186.008076 
L 408.34593 186.062377 
L 409.34593 186.090314 
L 410.34593 186.120038 
L 411.34593 186.145433 
L 412.34593 186.156633 
L 413.34593 186.166757 
L 414.34593 186.166553 
L 415.34593 186.157043 
L 416.34593 186.14539 
L 417.34593 186.11436 
L 418.34593 186.103192 
L 419.34593 186.073075 
L 420.34593 186.013298 
L 421.34593 185.976106 
L 422.34593 185.93701 
L 423.34593 185.894571 
L 424.34593 185.861806 
L 425.34593 185.794379 
L 426.34593 185.755253 
L 427.34593 185.712579 
L 428.34593 185.641998 
L 429.34593 185.605607 
L 430.34593 185.547204 
L 431.34593 185.436251 
L 432.34593 185.365593 
L 433.34593 185.252653 
L 434.34593 185.20688 
L 435.34593 185.145597 
L 436.34593 185.097098 
L 437.34593 185.016275 
L 438.34593 184.897756 
L 439.34593 184.827546 
L 440.34593 184.744283 
L 441.34593 184.711141 
L 442.34593 184.659904 
L 443.34593 184.591506 
L 444.34593 184.52529 
L 445.34593 184.448373 
L 446.666183 184.421058 
" clip-path="url(#pee58469511)" style="fill: none; stroke: #ff7f0e; stroke-opacity: 0.5; stroke-width: 0.2; stroke-linecap: square"/>
   <path d="M 390.34593 250.208357 
L 391.34593 250.239793 
L 392.34593 250.276733 
L 393.34593 250.37448 
L 394.34593 250.407001 
L 395.34593 250.480626 
L 396.34593 250.519192 
L 397.34593 250.554605 
L 398.34593 250.612245 
L 399.34593 250.682631 
L 400.34593 250.734595 
L 401.34593 250.793685 
L 402.34593 250.882006 
L 403.34593 250.92815 
L 404.34593 250.970561 
L 405.34593 251.001054 
L 406.34593 251.027099 
L 407.34593 251.048299 
L 408.34593 251.1026 
L 409.34593 251.130538 
L 410.34593 251.160262 
L 411.34593 251.185656 
L 412.34593 251.196857 
L 413.34593 251.206981 
L 414.34593 251.206776 
L 415.34593 251.197266 
L 416.34593 251.185613 
L 417.34593 251.154584 
L 418.34593 251.143416 
L 419.34593 251.113298 
L 420.34593 251.053521 
L 421.34593 251.01633 
L 422.34593 250.977234 
L 423.34593 250.934794 
L 424.34593 250.902029 
L 425.34593 250.834602 
L 426.34593 250.795477 
L 427.34593 250.752802 
L 428.34593 250.682221 
L 429.34593 250.645831 
L 430.34593 250.587427 
L 431.34593 250.476475 
L 432.34593 250.405816 
L 433.34593 250.292877 
L 434.34593 250.247104 
L 435.34593 250.18582 
L 436.34593 250.137321 
L 437.34593 250.056498 
L 438.34593 249.93798 
L 439.34593 249.867769 
L 440.34593 249.784506 
L 441.34593 249.751365 
L 442.34593 249.700127 
L 443.34593 249.631729 
L 444.34593 249.565514 
L 445.34593 249.488597 
L 446.666183 249.461281 
" clip-path="url(#pee58469511)" style="fill: none; stroke: #ff7f0e; stroke-opacity: 0.5; stroke-width: 0.2; stroke-linecap: square"/>
   <path d="M 446.666183 77.050326 
L 445.666183 77.018889 
L 444.666183 76.981949 
L 443.666183 76.884202 
L 442.666183 76.851681 
L 441.666183 76.778056 
L 440.666183 76.739491 
L 439.666183 76.704077 
L 438.666183 76.646437 
L 437.666183 76.576051 
L 436.666183 76.524087 
L 435.666183 76.464997 
L 434.666183 76.376676 
L 433.666183 76.330532 
L 432.666183 76.288121 
L 431.666183 76.257628 
L 430.666183 76.231583 
L 429.666183 76.210383 
L 428.666183 76.156082 
L 427.666183 76.128145 
L 426.666183 76.098421 
L 425.666183 76.073026 
L 424.666183 76.061825 
L 423.666183 76.051702 
L 422.666183 76.051906 
L 421.666183 76.061416 
L 420.666183 76.073069 
L 419.666183 76.104099 
L 418.666183 76.115266 
L 417.666183 76.145384 
L 416.666183 76.205161 
L 415.666183 76.242353 
L 414.666183 76.281449 
L 413.666183 76.323888 
L 412.666183 76.356653 
L 411.666183 76.42408 
L 410.666183 76.463206 
L 409.666183 76.50588 
L 408.666183 76.576461 
L 407.666183 76.612852 
L 406.666183 76.671255 
L 405.666183 76.782207 
L 404.666183 76.852866 
L 403.666183 76.965806 
L 402.666183 77.011579 
L 401.666183 77.072862 
L 400.666183 77.121361 
L 399.666183 77.202184 
L 398.666183 77.320703 
L 397.666183 77.390913 
L 396.666183 77.474176 
L 395.666183 77.507318 
L 394.666183 77.558555 
L 393.666183 77.626953 
L 392.666183 77.693169 
L 391.666183 77.770086 
L 390.34593 77.797401 
" clip-path="url(#pee58469511)" style="fill: none; stroke: #2ca02c; stroke-opacity: 0.5; stroke-width: 0.2; stroke-linecap: square"/>
   <path d="M 446.666183 163.621517 
L 445.666183 163.59008 
L 444.666183 163.55314 
L 443.666183 163.455394 
L 442.666183 163.422872 
L 441.666183 163.349247 
L 440.666183 163.310682 
L 439.666183 163.275268 
L 438.666183 163.217629 
L 437.666183 163.147242 
L 436.666183 163.095278 
L 435.666183 163.036188 
L 434.666183 162.947867 
L 433.666183 162.901723 
L 432.666183 162.859312 
L 431.666183 162.82882 
L 430.666183 162.802775 
L 429.666183 162.781574 
L 428.666183 162.727273 
L 427.666183 162.699336 
L 426.666183 162.669612 
L 425.666183 162.644217 
L 424.666183 162.633017 
L 423.666183 162.622893 
L 422.666183 162.623097 
L 421.666183 162.632607 
L 420.666183 162.64426 
L 419.666183 162.67529 
L 418.666183 162.686458 
L 417.666183 162.716575 
L 416.666183 162.776352 
L 415.666183 162.813544 
L 414.666183 162.85264 
L 413.666183 162.895079 
L 412.666183 162.927844 
L 411.666183 162.995271 
L 410.666183 163.034397 
L 409.666183 163.077071 
L 408.666183 163.147652 
L 407.666183 163.184043 
L 406.666183 163.242446 
L 405.666183 163.353399 
L 404.666183 163.424057 
L 403.666183 163.536997 
L 402.666183 163.58277 
L 401.666183 163.644053 
L 400.666183 163.692552 
L 399.666183 163.773375 
L 398.666183 163.891894 
L 397.666183 163.962104 
L 396.666183 164.045367 
L 395.666183 164.078509 
L 394.666183 164.129746 
L 393.666183 164.198144 
L 392.666183 164.26436 
L 391.666183 164.341277 
L 390.34593 164.368592 
" clip-path="url(#pee58469511)" style="fill: none; stroke: #2ca02c; stroke-opacity: 0.5; stroke-width: 0.2; stroke-linecap: square"/>
   <path d="M 446.666183 139.201866 
L 445.666183 139.170429 
L 444.666183 139.133489 
L 443.666183 139.035742 
L 442.666183 139.003221 
L 441.666183 138.929596 
L 440.666183 138.89103 
L 439.666183 138.855617 
L 438.666183 138.797977 
L 437.666183 138.727591 
L 436.666183 138.675627 
L 435.666183 138.616537 
L 434.666183 138.528216 
L 433.666183 138.482072 
L 432.666183 138.439661 
L 431.666183 138.409168 
L 430.666183 138.383123 
L 429.666183 138.361923 
L 428.666183 138.307622 
L 427.666183 138.279685 
L 426.666183 138.249961 
L 425.666183 138.224566 
L 424.666183 138.213365 
L 423.666183 138.203241 
L 422.666183 138.203446 
L 421.666183 138.212956 
L 420.666183 138.224609 
L 419.666183 138.255638 
L 418.666183 138.266806 
L 417.666183 138.296924 
L 416.666183 138.356701 
L 415.666183 138.393892 
L 414.666183 138.432988 
L 413.666183 138.475428 
L 412.666183 138.508193 
L 411.666183 138.57562 
L 410.666183 138.614746 
L 409.666183 138.65742 
L 408.666183 138.728001 
L 407.666183 138.764392 
L 406.666183 138.822795 
L 405.666183 138.933747 
L 404.666183 139.004406 
L 403.666183 139.117346 
L 402.666183 139.163118 
L 401.666183 139.224402 
L 400.666183 139.272901 
L 399.666183 139.353724 
L 398.666183 139.472243 
L 397.666183 139.542453 
L 396.666183 139.625716 
L 395.666183 139.658857 
L 394.666183 139.710095 
L 393.666183 139.778493 
L 392.666183 139.844709 
L 391.666183 139.921626 
L 390.34593 139.948941 
" clip-path="url(#pee58469511)" style="fill: none; stroke: #2ca02c; stroke-opacity: 0.5; stroke-width: 0.2; stroke-linecap: square"/>
   <path d="M 446.666183 272.459693 
L 445.666183 272.428256 
L 444.666183 272.391316 
L 443.666183 272.293569 
L 442.666183 272.261048 
L 441.666183 272.187423 
L 440.666183 272.148858 
L 439.666183 272.113444 
L 438.666183 272.055805 
L 437.666183 271.985418 
L 436.666183 271.933454 
L 435.666183 271.874364 
L 434.666183 271.786043 
L 433.666183 271.739899 
L 432.666183 271.697488 
L 431.666183 271.666995 
L 430.666183 271.640951 
L 429.666183 271.61975 
L 428.666183 271.565449 
L 427.666183 271.537512 
L 426.666183 271.507788 
L 425.666183 271.482393 
L 424.666183 271.471193 
L 423.666183 271.461069 
L 422.666183 271.461273 
L 421.666183 271.470783 
L 420.666183 271.482436 
L 419.666183 271.513466 
L 418.666183 271.524634 
L 417.666183 271.554751 
L 416.666183 271.614528 
L 415.666183 271.65172 
L 414.666183 271.690816 
L 413.666183 271.733255 
L 412.666183 271.76602 
L 411.666183 271.833447 
L 410.666183 271.872573 
L 409.666183 271.915247 
L 408.666183 271.985828 
L 407.666183 272.022219 
L 406.666183 272.080622 
L 405.666183 272.191575 
L 404.666183 272.262233 
L 403.666183 272.375173 
L 402.666183 272.420946 
L 401.666183 272.482229 
L 400.666183 272.530728 
L 399.666183 272.611551 
L 398.666183 272.73007 
L 397.666183 272.80028 
L 396.666183 272.883543 
L 395.666183 272.916685 
L 394.666183 272.967922 
L 393.666183 273.03632 
L 392.666183 273.102536 
L 391.666183 273.179453 
L 390.34593 273.206768 
" clip-path="url(#pee58469511)" style="fill: none; stroke: #2ca02c; stroke-opacity: 0.5; stroke-width: 0.2; stroke-linecap: square"/>
   <path d="M 446.666183 242.743922 
L 445.666183 242.712486 
L 444.666183 242.675545 
L 443.666183 242.577799 
L 442.666183 242.545277 
L 441.666183 242.471652 
L 440.666183 242.433087 
L 439.666183 242.397674 
L 438.666183 242.340034 
L 437.666183 242.269648 
L 436.666183 242.217683 
L 435.666183 242.158594 
L 434.666183 242.070273 
L 433.666183 242.024128 
L 432.666183 241.981717 
L 431.666183 241.951225 
L 430.666183 241.92518 
L 429.666183 241.90398 
L 428.666183 241.849679 
L 427.666183 241.821741 
L 426.666183 241.792017 
L 425.666183 241.766622 
L 424.666183 241.755422 
L 423.666183 241.745298 
L 422.666183 241.745502 
L 421.666183 241.755012 
L 420.666183 241.766666 
L 419.666183 241.797695 
L 418.666183 241.808863 
L 417.666183 241.83898 
L 416.666183 241.898757 
L 415.666183 241.935949 
L 414.666183 241.975045 
L 413.666183 242.017485 
L 412.666183 242.05025 
L 411.666183 242.117676 
L 410.666183 242.156802 
L 409.666183 242.199477 
L 408.666183 242.270057 
L 407.666183 242.306448 
L 406.666183 242.364851 
L 405.666183 242.475804 
L 404.666183 242.546462 
L 403.666183 242.659402 
L 402.666183 242.705175 
L 401.666183 242.766458 
L 400.666183 242.814957 
L 399.666183 242.89578 
L 398.666183 243.014299 
L 397.666183 243.08451 
L 396.666183 243.167772 
L 395.666183 243.200914 
L 394.666183 243.252151 
L 393.666183 243.32055 
L 392.666183 243.386765 
L 391.666183 243.463682 
L 390.34593 243.490998 
" clip-path="url(#pee58469511)" style="fill: none; stroke: #2ca02c; stroke-opacity: 0.5; stroke-width: 0.2; stroke-linecap: square"/>
   <path d="M 446.666183 110.995529 
L 445.666183 110.964093 
L 444.666183 110.927153 
L 443.666183 110.829406 
L 442.666183 110.796884 
L 441.666183 110.72326 
L 440.666183 110.684694 
L 439.666183 110.649281 
L 438.666183 110.591641 
L 437.666183 110.521255 
L 436.666183 110.469291 
L 435.666183 110.410201 
L 434.666183 110.32188 
L 433.666183 110.275736 
L 432.666183 110.233325 
L 431.666183 110.202832 
L 430.666183 110.176787 
L 429.666183 110.155587 
L 428.666183 110.101286 
L 427.666183 110.073348 
L 426.666183 110.043624 
L 425.666183 110.01823 
L 424.666183 110.007029 
L 423.666183 109.996905 
L 422.666183 109.997109 
L 421.666183 110.006619 
L 420.666183 110.018273 
L 419.666183 110.049302 
L 418.666183 110.06047 
L 417.666183 110.090588 
L 416.666183 110.150365 
L 415.666183 110.187556 
L 414.666183 110.226652 
L 413.666183 110.269092 
L 412.666183 110.301857 
L 411.666183 110.369283 
L 410.666183 110.408409 
L 409.666183 110.451084 
L 408.666183 110.521664 
L 407.666183 110.558055 
L 406.666183 110.616458 
L 405.666183 110.727411 
L 404.666183 110.798069 
L 403.666183 110.911009 
L 402.666183 110.956782 
L 401.666183 111.018065 
L 400.666183 111.066565 
L 399.666183 111.147387 
L 398.666183 111.265906 
L 397.666183 111.336117 
L 396.666183 111.419379 
L 395.666183 111.452521 
L 394.666183 111.503758 
L 393.666183 111.572157 
L 392.666183 111.638372 
L 391.666183 111.715289 
L 390.34593 111.742605 
" clip-path="url(#pee58469511)" style="fill: none; stroke: #2ca02c; stroke-opacity: 0.5; stroke-width: 0.2; stroke-linecap: square"/>
   <path d="M 446.666183 259.549444 
L 445.666183 259.518008 
L 444.666183 259.481068 
L 443.666183 259.383321 
L 442.666183 259.350799 
L 441.666183 259.277175 
L 440.666183 259.238609 
L 439.666183 259.203196 
L 438.666183 259.145556 
L 437.666183 259.07517 
L 436.666183 259.023206 
L 435.666183 258.964116 
L 434.666183 258.875795 
L 433.666183 258.829651 
L 432.666183 258.78724 
L 431.666183 258.756747 
L 430.666183 258.730702 
L 429.666183 258.709502 
L 428.666183 258.655201 
L 427.666183 258.627263 
L 426.666183 258.597539 
L 425.666183 258.572145 
L 424.666183 258.560944 
L 423.666183 258.55082 
L 422.666183 258.551025 
L 421.666183 258.560534 
L 420.666183 258.572188 
L 419.666183 258.603217 
L 418.666183 258.614385 
L 417.666183 258.644503 
L 416.666183 258.70428 
L 415.666183 258.741471 
L 414.666183 258.780567 
L 413.666183 258.823007 
L 412.666183 258.855772 
L 411.666183 258.923198 
L 410.666183 258.962324 
L 409.666183 259.004999 
L 408.666183 259.07558 
L 407.666183 259.11197 
L 406.666183 259.170374 
L 405.666183 259.281326 
L 404.666183 259.351984 
L 403.666183 259.464924 
L 402.666183 259.510697 
L 401.666183 259.57198 
L 400.666183 259.62048 
L 399.666183 259.701302 
L 398.666183 259.819821 
L 397.666183 259.890032 
L 396.666183 259.973294 
L 395.666183 260.006436 
L 394.666183 260.057674 
L 393.666183 260.126072 
L 392.666183 260.192287 
L 391.666183 260.269204 
L 390.34593 260.29652 
" clip-path="url(#pee58469511)" style="fill: none; stroke: #2ca02c; stroke-opacity: 0.5; stroke-width: 0.2; stroke-linecap: square"/>
   <path d="M 446.666183 168.200345 
L 445.666183 168.168909 
L 444.666183 168.131968 
L 443.666183 168.034222 
L 442.666183 168.0017 
L 441.666183 167.928075 
L 440.666183 167.88951 
L 439.666183 167.854097 
L 438.666183 167.796457 
L 437.666183 167.726071 
L 436.666183 167.674106 
L 435.666183 167.615017 
L 434.666183 167.526696 
L 433.666183 167.480551 
L 432.666183 167.43814 
L 431.666183 167.407648 
L 430.666183 167.381603 
L 429.666183 167.360403 
L 428.666183 167.306102 
L 427.666183 167.278164 
L 426.666183 167.24844 
L 425.666183 167.223045 
L 424.666183 167.211845 
L 423.666183 167.201721 
L 422.666183 167.201925 
L 421.666183 167.211435 
L 420.666183 167.223089 
L 419.666183 167.254118 
L 418.666183 167.265286 
L 417.666183 167.295403 
L 416.666183 167.35518 
L 415.666183 167.392372 
L 414.666183 167.431468 
L 413.666183 167.473908 
L 412.666183 167.506673 
L 411.666183 167.574099 
L 410.666183 167.613225 
L 409.666183 167.6559 
L 408.666183 167.72648 
L 407.666183 167.762871 
L 406.666183 167.821274 
L 405.666183 167.932227 
L 404.666183 168.002885 
L 403.666183 168.115825 
L 402.666183 168.161598 
L 401.666183 168.222881 
L 400.666183 168.27138 
L 399.666183 168.352203 
L 398.666183 168.470722 
L 397.666183 168.540933 
L 396.666183 168.624195 
L 395.666183 168.657337 
L 394.666183 168.708574 
L 393.666183 168.776973 
L 392.666183 168.843188 
L 391.666183 168.920105 
L 390.34593 168.947421 
" clip-path="url(#pee58469511)" style="fill: none; stroke: #2ca02c; stroke-opacity: 0.5; stroke-width: 0.2; stroke-linecap: square"/>
   <path d="M 446.666183 91.425998 
L 445.666183 91.394561 
L 444.666183 91.357621 
L 443.666183 91.259874 
L 442.666183 91.227353 
L 441.666183 91.153728 
L 440.666183 91.115163 
L 439.666183 91.079749 
L 438.666183 91.02211 
L 437.666183 90.951723 
L 436.666183 90.899759 
L 435.666183 90.840669 
L 434.666183 90.752348 
L 433.666183 90.706204 
L 432.666183 90.663793 
L 431.666183 90.6333 
L 430.666183 90.607256 
L 429.666183 90.586055 
L 428.666183 90.531754 
L 427.666183 90.503817 
L 426.666183 90.474093 
L 425.666183 90.448698 
L 424.666183 90.437498 
L 423.666183 90.427374 
L 422.666183 90.427578 
L 421.666183 90.437088 
L 420.666183 90.448741 
L 419.666183 90.479771 
L 418.666183 90.490939 
L 417.666183 90.521056 
L 416.666183 90.580833 
L 415.666183 90.618025 
L 414.666183 90.657121 
L 413.666183 90.69956 
L 412.666183 90.732325 
L 411.666183 90.799752 
L 410.666183 90.838878 
L 409.666183 90.881552 
L 408.666183 90.952133 
L 407.666183 90.988524 
L 406.666183 91.046927 
L 405.666183 91.15788 
L 404.666183 91.228538 
L 403.666183 91.341478 
L 402.666183 91.387251 
L 401.666183 91.448534 
L 400.666183 91.497033 
L 399.666183 91.577856 
L 398.666183 91.696375 
L 397.666183 91.766585 
L 396.666183 91.849848 
L 395.666183 91.88299 
L 394.666183 91.934227 
L 393.666183 92.002625 
L 392.666183 92.068841 
L 391.666183 92.145758 
L 390.34593 92.173073 
" clip-path="url(#pee58469511)" style="fill: none; stroke: #2ca02c; stroke-opacity: 0.5; stroke-width: 0.2; stroke-linecap: square"/>
   <path d="M 446.666183 256.339513 
L 445.666183 256.308077 
L 444.666183 256.271136 
L 443.666183 256.17339 
L 442.666183 256.140868 
L 441.666183 256.067243 
L 440.666183 256.028678 
L 439.666183 255.993265 
L 438.666183 255.935625 
L 437.666183 255.865238 
L 436.666183 255.813274 
L 435.666183 255.754184 
L 434.666183 255.665863 
L 433.666183 255.619719 
L 432.666183 255.577308 
L 431.666183 255.546816 
L 430.666183 255.520771 
L 429.666183 255.499571 
L 428.666183 255.445269 
L 427.666183 255.417332 
L 426.666183 255.387608 
L 425.666183 255.362213 
L 424.666183 255.351013 
L 423.666183 255.340889 
L 422.666183 255.341093 
L 421.666183 255.350603 
L 420.666183 255.362257 
L 419.666183 255.393286 
L 418.666183 255.404454 
L 417.666183 255.434571 
L 416.666183 255.494348 
L 415.666183 255.53154 
L 414.666183 255.570636 
L 413.666183 255.613075 
L 412.666183 255.645841 
L 411.666183 255.713267 
L 410.666183 255.752393 
L 409.666183 255.795067 
L 408.666183 255.865648 
L 407.666183 255.902039 
L 406.666183 255.960442 
L 405.666183 256.071395 
L 404.666183 256.142053 
L 403.666183 256.254993 
L 402.666183 256.300766 
L 401.666183 256.362049 
L 400.666183 256.410548 
L 399.666183 256.491371 
L 398.666183 256.60989 
L 397.666183 256.680101 
L 396.666183 256.763363 
L 395.666183 256.796505 
L 394.666183 256.847742 
L 393.666183 256.91614 
L 392.666183 256.982356 
L 391.666183 257.059273 
L 390.34593 257.086588 
" clip-path="url(#pee58469511)" style="fill: none; stroke: #2ca02c; stroke-opacity: 0.5; stroke-width: 0.2; stroke-linecap: square"/>
   <g id="patch_3">
    <path d="M 72.103551 22.318125 
L 72.103551 318.021875 
M 194.769098 22.318125 
L 194.769098 318.021875 
" clip-path="url(#pee58469511)" style="fill: none; stroke: #ffffff; stroke-width: 3; stroke-linejoin: miter"/>
    <path d="M 72.103551 22.318125 
L 72.103551 318.021875 
M 194.769098 22.318125 
L 194.769098 318.021875 
" clip-path="url(#pee58469511)" style="fill: none; stroke: #1f77b4; stroke-linejoin: miter"/>
    <g id="PolyCollection_1">
     <path d="M 194.769098 22.318125 
L 72.103551 22.318125 
L 72.103551 318.021875 
L 194.769098 318.021875 
L 194.769098 318.021875 
L 194.769098 22.318125 
z
" clip-path="url(#pee58469511)" style="fill: #1f77b4; fill-opacity: 0.5"/>
    </g>
    <g id="patch_4">
     <path d="M 262.150039 22.318125 
L 262.150039 318.021875 
M 384.815586 22.318125 
L 384.815586 318.021875 
" clip-path="url(#pee58469511)" style="fill: none; stroke: #ffffff; stroke-width: 3; stroke-linejoin: miter"/>
     <path d="M 262.150039 22.318125 
L 262.150039 318.021875 
M 384.815586 22.318125 
L 384.815586 318.021875 
" clip-path="url(#pee58469511)" style="fill: none; stroke: #ff7f0e; stroke-linejoin: miter"/>
     <g id="PolyCollection_2">
      <path d="M 384.815586 22.318125 
L 262.150039 22.318125 
L 262.150039 318.021875 
L 384.815586 318.021875 
L 384.815586 318.021875 
L 384.815586 22.318125 
z
" clip-path="url(#pee58469511)" style="fill: #ff7f0e; fill-opacity: 0.5"/>
     </g>
     <g id="patch_5">
      <path d="M 452.196527 22.318125 
L 452.196527 318.021875 
M 574.862074 22.318125 
L 574.862074 318.021875 
" clip-path="url(#pee58469511)" style="fill: none; stroke: #ffffff; stroke-width: 3; stroke-linejoin: miter"/>
      <path d="M 452.196527 22.318125 
L 452.196527 318.021875 
M 574.862074 22.318125 
L 574.862074 318.021875 
" clip-path="url(#pee58469511)" style="fill: none; stroke: #2ca02c; stroke-linejoin: miter"/>
      <g id="PolyCollection_3">
       <path d="M 574.862074 22.318125 
L 452.196527 22.318125 
L 452.196527 318.021875 
L 574.862074 318.021875 
L 574.862074 318.021875 
L 574.862074 22.318125 
z
" clip-path="url(#pee58469511)" style="fill: #2ca02c; fill-opacity: 0.5"/>
      </g>
      <g id="matplotlib.axis_1">
       <g id="xtick_1">
        <g id="line2d_1"/>
        <g id="text_1">
         <!-- deme1 -->
         <g transform="translate(116.057418 329.120312) scale(0.1 -0.1)">
          <defs>
           <path id="DejaVuSans-64" d="M 2906 2969 
L 2906 4863 
L 3481 4863 
L 3481 0 
L 2906 0 
L 2906 525 
Q 2725 213 2448 61 
Q 2172 -91 1784 -91 
Q 1150 -91 751 415 
Q 353 922 353 1747 
Q 353 2572 751 3078 
Q 1150 3584 1784 3584 
Q 2172 3584 2448 3432 
Q 2725 3281 2906 2969 
z
M 947 1747 
Q 947 1113 1208 752 
Q 1469 391 1925 391 
Q 2381 391 2643 752 
Q 2906 1113 2906 1747 
Q 2906 2381 2643 2742 
Q 2381 3103 1925 3103 
Q 1469 3103 1208 2742 
Q 947 2381 947 1747 
z
" transform="scale(0.015625)"/>
           <path id="DejaVuSans-65" d="M 3597 1894 
L 3597 1613 
L 953 1613 
Q 991 1019 1311 708 
Q 1631 397 2203 397 
Q 2534 397 2845 478 
Q 3156 559 3463 722 
L 3463 178 
Q 3153 47 2828 -22 
Q 2503 -91 2169 -91 
Q 1331 -91 842 396 
Q 353 884 353 1716 
Q 353 2575 817 3079 
Q 1281 3584 2069 3584 
Q 2775 3584 3186 3129 
Q 3597 2675 3597 1894 
z
M 3022 2063 
Q 3016 2534 2758 2815 
Q 2500 3097 2075 3097 
Q 1594 3097 1305 2825 
Q 1016 2553 972 2059 
L 3022 2063 
z
" transform="scale(0.015625)"/>
           <path id="DejaVuSans-6d" d="M 3328 2828 
Q 3544 3216 3844 3400 
Q 4144 3584 4550 3584 
Q 5097 3584 5394 3201 
Q 5691 2819 5691 2113 
L 5691 0 
L 5113 0 
L 5113 2094 
Q 5113 2597 4934 2840 
Q 4756 3084 4391 3084 
Q 3944 3084 3684 2787 
Q 3425 2491 3425 1978 
L 3425 0 
L 2847 0 
L 2847 2094 
Q 2847 2600 2669 2842 
Q 2491 3084 2119 3084 
Q 1678 3084 1418 2786 
Q 1159 2488 1159 1978 
L 1159 0 
L 581 0 
L 581 3500 
L 1159 3500 
L 1159 2956 
Q 1356 3278 1631 3431 
Q 1906 3584 2284 3584 
Q 2666 3584 2933 3390 
Q 3200 3197 3328 2828 
z
" transform="scale(0.015625)"/>
           <path id="DejaVuSans-31" d="M 794 531 
L 1825 531 
L 1825 4091 
L 703 3866 
L 703 4441 
L 1819 4666 
L 2450 4666 
L 2450 531 
L 3481 531 
L 3481 0 
L 794 0 
L 794 531 
z
" transform="scale(0.015625)"/>
          </defs>
          <use xlink:href="#DejaVuSans-64"/>
          <use xlink:href="#DejaVuSans-65" x="63.476562"/>
          <use xlink:href="#DejaVuSans-6d" x="125"/>
          <use xlink:href="#DejaVuSans-65" x="222.412109"/>
          <use xlink:href="#DejaVuSans-31" x="283.935547"/>
         </g>
        </g>
       </g>
       <g id="xtick_2">
        <g id="line2d_2"/>
        <g id="text_2">
         <!-- deme2 -->
         <g transform="translate(306.103906 329.120312) scale(0.1 -0.1)">
          <defs>
           <path id="DejaVuSans-32" d="M 1228 531 
L 3431 531 
L 3431 0 
L 469 0 
L 469 531 
Q 828 903 1448 1529 
Q 2069 2156 2228 2338 
Q 2531 2678 2651 2914 
Q 2772 3150 2772 3378 
Q 2772 3750 2511 3984 
Q 2250 4219 1831 4219 
Q 1534 4219 1204 4116 
Q 875 4013 500 3803 
L 500 4441 
Q 881 4594 1212 4672 
Q 1544 4750 1819 4750 
Q 2544 4750 2975 4387 
Q 3406 4025 3406 3419 
Q 3406 3131 3298 2873 
Q 3191 2616 2906 2266 
Q 2828 2175 2409 1742 
Q 1991 1309 1228 531 
z
" transform="scale(0.015625)"/>
          </defs>
          <use xlink:href="#DejaVuSans-64"/>
          <use xlink:href="#DejaVuSans-65" x="63.476562"/>
          <use xlink:href="#DejaVuSans-6d" x="125"/>
          <use xlink:href="#DejaVuSans-65" x="222.412109"/>
          <use xlink:href="#DejaVuSans-32" x="283.935547"/>
         </g>
        </g>
       </g>
       <g id="xtick_3">
        <g id="line2d_3"/>
        <g id="text_3">
         <!-- deme3 -->
         <g transform="translate(496.150394 329.120312) scale(0.1 -0.1)">
          <defs>
           <path id="DejaVuSans-33" d="M 2597 2516 
Q 3050 2419 3304 2112 
Q 3559 1806 3559 1356 
Q 3559 666 3084 287 
Q 2609 -91 1734 -91 
Q 1441 -91 1130 -33 
Q 819 25 488 141 
L 488 750 
Q 750 597 1062 519 
Q 1375 441 1716 441 
Q 2309 441 2620 675 
Q 2931 909 2931 1356 
Q 2931 1769 2642 2001 
Q 2353 2234 1838 2234 
L 1294 2234 
L 1294 2753 
L 1863 2753 
Q 2328 2753 2575 2939 
Q 2822 3125 2822 3475 
Q 2822 3834 2567 4026 
Q 2313 4219 1838 4219 
Q 1578 4219 1281 4162 
Q 984 4106 628 3988 
L 628 4550 
Q 988 4650 1302 4700 
Q 1616 4750 1894 4750 
Q 2613 4750 3031 4423 
Q 3450 4097 3450 3541 
Q 3450 3153 3228 2886 
Q 3006 2619 2597 2516 
z
" transform="scale(0.015625)"/>
          </defs>
          <use xlink:href="#DejaVuSans-64"/>
          <use xlink:href="#DejaVuSans-65" x="63.476562"/>
          <use xlink:href="#DejaVuSans-6d" x="125"/>
          <use xlink:href="#DejaVuSans-65" x="222.412109"/>
          <use xlink:href="#DejaVuSans-33" x="283.935547"/>
         </g>
        </g>
       </g>
      </g>
      <g id="matplotlib.axis_2">
       <g id="ytick_1">
        <g id="line2d_4">
         <defs>
          <path id="m6167120ae4" d="M 0 0 
L -3.5 0 
" style="stroke: #000000; stroke-width: 0.8"/>
         </defs>
         <g>
          <use xlink:href="#m6167120ae4" x="46.965625" y="318.021875" style="stroke: #000000; stroke-width: 0.8"/>
         </g>
        </g>
        <g id="text_4">
         <!-- 0 -->
         <g transform="translate(33.603125 321.821094) scale(0.1 -0.1)">
          <defs>
           <path id="DejaVuSans-30" d="M 2034 4250 
Q 1547 4250 1301 3770 
Q 1056 3291 1056 2328 
Q 1056 1369 1301 889 
Q 1547 409 2034 409 
Q 2525 409 2770 889 
Q 3016 1369 3016 2328 
Q 3016 3291 2770 3770 
Q 2525 4250 2034 4250 
z
M 2034 4750 
Q 2819 4750 3233 4129 
Q 3647 3509 3647 2328 
Q 3647 1150 3233 529 
Q 2819 -91 2034 -91 
Q 1250 -91 836 529 
Q 422 1150 422 2328 
Q 422 3509 836 4129 
Q 1250 4750 2034 4750 
z
" transform="scale(0.015625)"/>
          </defs>
          <use xlink:href="#DejaVuSans-30"/>
         </g>
        </g>
       </g>
       <g id="ytick_2">
        <g id="line2d_5">
         <g>
          <use xlink:href="#m6167120ae4" x="46.965625" y="265.684928" style="stroke: #000000; stroke-width: 0.8"/>
         </g>
        </g>
        <g id="text_5">
         <!-- 20 -->
         <g transform="translate(27.240625 269.484147) scale(0.1 -0.1)">
          <use xlink:href="#DejaVuSans-32"/>
          <use xlink:href="#DejaVuSans-30" x="63.623047"/>
         </g>
        </g>
       </g>
       <g id="ytick_3">
        <g id="line2d_6">
         <g>
          <use xlink:href="#m6167120ae4" x="46.965625" y="213.347981" style="stroke: #000000; stroke-width: 0.8"/>
         </g>
        </g>
        <g id="text_6">
         <!-- 40 -->
         <g transform="translate(27.240625 217.1472) scale(0.1 -0.1)">
          <defs>
           <path id="DejaVuSans-34" d="M 2419 4116 
L 825 1625 
L 2419 1625 
L 2419 4116 
z
M 2253 4666 
L 3047 4666 
L 3047 1625 
L 3713 1625 
L 3713 1100 
L 3047 1100 
L 3047 0 
L 2419 0 
L 2419 1100 
L 313 1100 
L 313 1709 
L 2253 4666 
z
" transform="scale(0.015625)"/>
          </defs>
          <use xlink:href="#DejaVuSans-34"/>
          <use xlink:href="#DejaVuSans-30" x="63.623047"/>
         </g>
        </g>
       </g>
       <g id="ytick_4">
        <g id="line2d_7">
         <g>
          <use xlink:href="#m6167120ae4" x="46.965625" y="161.011034" style="stroke: #000000; stroke-width: 0.8"/>
         </g>
        </g>
        <g id="text_7">
         <!-- 60 -->
         <g transform="translate(27.240625 164.810253) scale(0.1 -0.1)">
          <defs>
           <path id="DejaVuSans-36" d="M 2113 2584 
Q 1688 2584 1439 2293 
Q 1191 2003 1191 1497 
Q 1191 994 1439 701 
Q 1688 409 2113 409 
Q 2538 409 2786 701 
Q 3034 994 3034 1497 
Q 3034 2003 2786 2293 
Q 2538 2584 2113 2584 
z
M 3366 4563 
L 3366 3988 
Q 3128 4100 2886 4159 
Q 2644 4219 2406 4219 
Q 1781 4219 1451 3797 
Q 1122 3375 1075 2522 
Q 1259 2794 1537 2939 
Q 1816 3084 2150 3084 
Q 2853 3084 3261 2657 
Q 3669 2231 3669 1497 
Q 3669 778 3244 343 
Q 2819 -91 2113 -91 
Q 1303 -91 875 529 
Q 447 1150 447 2328 
Q 447 3434 972 4092 
Q 1497 4750 2381 4750 
Q 2619 4750 2861 4703 
Q 3103 4656 3366 4563 
z
" transform="scale(0.015625)"/>
          </defs>
          <use xlink:href="#DejaVuSans-36"/>
          <use xlink:href="#DejaVuSans-30" x="63.623047"/>
         </g>
        </g>
       </g>
       <g id="ytick_5">
        <g id="line2d_8">
         <g>
          <use xlink:href="#m6167120ae4" x="46.965625" y="108.674087" style="stroke: #000000; stroke-width: 0.8"/>
         </g>
        </g>
        <g id="text_8">
         <!-- 80 -->
         <g transform="translate(27.240625 112.473306) scale(0.1 -0.1)">
          <defs>
           <path id="DejaVuSans-38" d="M 2034 2216 
Q 1584 2216 1326 1975 
Q 1069 1734 1069 1313 
Q 1069 891 1326 650 
Q 1584 409 2034 409 
Q 2484 409 2743 651 
Q 3003 894 3003 1313 
Q 3003 1734 2745 1975 
Q 2488 2216 2034 2216 
z
M 1403 2484 
Q 997 2584 770 2862 
Q 544 3141 544 3541 
Q 544 4100 942 4425 
Q 1341 4750 2034 4750 
Q 2731 4750 3128 4425 
Q 3525 4100 3525 3541 
Q 3525 3141 3298 2862 
Q 3072 2584 2669 2484 
Q 3125 2378 3379 2068 
Q 3634 1759 3634 1313 
Q 3634 634 3220 271 
Q 2806 -91 2034 -91 
Q 1263 -91 848 271 
Q 434 634 434 1313 
Q 434 1759 690 2068 
Q 947 2378 1403 2484 
z
M 1172 3481 
Q 1172 3119 1398 2916 
Q 1625 2713 2034 2713 
Q 2441 2713 2670 2916 
Q 2900 3119 2900 3481 
Q 2900 3844 2670 4047 
Q 2441 4250 2034 4250 
Q 1625 4250 1398 4047 
Q 1172 3844 1172 3481 
z
" transform="scale(0.015625)"/>
          </defs>
          <use xlink:href="#DejaVuSans-38"/>
          <use xlink:href="#DejaVuSans-30" x="63.623047"/>
         </g>
        </g>
       </g>
       <g id="ytick_6">
        <g id="line2d_9">
         <g>
          <use xlink:href="#m6167120ae4" x="46.965625" y="56.33714" style="stroke: #000000; stroke-width: 0.8"/>
         </g>
        </g>
        <g id="text_9">
         <!-- 100 -->
         <g transform="translate(20.878125 60.136359) scale(0.1 -0.1)">
          <use xlink:href="#DejaVuSans-31"/>
          <use xlink:href="#DejaVuSans-30" x="63.623047"/>
          <use xlink:href="#DejaVuSans-30" x="127.246094"/>
         </g>
        </g>
       </g>
       <g id="text_10">
        <!-- time ago (years) -->
        <g transform="translate(14.798437 211.603594) rotate(-90) scale(0.1 -0.1)">
         <defs>
          <path id="DejaVuSans-74" d="M 1172 4494 
L 1172 3500 
L 2356 3500 
L 2356 3053 
L 1172 3053 
L 1172 1153 
Q 1172 725 1289 603 
Q 1406 481 1766 481 
L 2356 481 
L 2356 0 
L 1766 0 
Q 1100 0 847 248 
Q 594 497 594 1153 
L 594 3053 
L 172 3053 
L 172 3500 
L 594 3500 
L 594 4494 
L 1172 4494 
z
" transform="scale(0.015625)"/>
          <path id="DejaVuSans-69" d="M 603 3500 
L 1178 3500 
L 1178 0 
L 603 0 
L 603 3500 
z
M 603 4863 
L 1178 4863 
L 1178 4134 
L 603 4134 
L 603 4863 
z
" transform="scale(0.015625)"/>
          <path id="DejaVuSans-20" transform="scale(0.015625)"/>
          <path id="DejaVuSans-61" d="M 2194 1759 
Q 1497 1759 1228 1600 
Q 959 1441 959 1056 
Q 959 750 1161 570 
Q 1363 391 1709 391 
Q 2188 391 2477 730 
Q 2766 1069 2766 1631 
L 2766 1759 
L 2194 1759 
z
M 3341 1997 
L 3341 0 
L 2766 0 
L 2766 531 
Q 2569 213 2275 61 
Q 1981 -91 1556 -91 
Q 1019 -91 701 211 
Q 384 513 384 1019 
Q 384 1609 779 1909 
Q 1175 2209 1959 2209 
L 2766 2209 
L 2766 2266 
Q 2766 2663 2505 2880 
Q 2244 3097 1772 3097 
Q 1472 3097 1187 3025 
Q 903 2953 641 2809 
L 641 3341 
Q 956 3463 1253 3523 
Q 1550 3584 1831 3584 
Q 2591 3584 2966 3190 
Q 3341 2797 3341 1997 
z
" transform="scale(0.015625)"/>
          <path id="DejaVuSans-67" d="M 2906 1791 
Q 2906 2416 2648 2759 
Q 2391 3103 1925 3103 
Q 1463 3103 1205 2759 
Q 947 2416 947 1791 
Q 947 1169 1205 825 
Q 1463 481 1925 481 
Q 2391 481 2648 825 
Q 2906 1169 2906 1791 
z
M 3481 434 
Q 3481 -459 3084 -895 
Q 2688 -1331 1869 -1331 
Q 1566 -1331 1297 -1286 
Q 1028 -1241 775 -1147 
L 775 -588 
Q 1028 -725 1275 -790 
Q 1522 -856 1778 -856 
Q 2344 -856 2625 -561 
Q 2906 -266 2906 331 
L 2906 616 
Q 2728 306 2450 153 
Q 2172 0 1784 0 
Q 1141 0 747 490 
Q 353 981 353 1791 
Q 353 2603 747 3093 
Q 1141 3584 1784 3584 
Q 2172 3584 2450 3431 
Q 2728 3278 2906 2969 
L 2906 3500 
L 3481 3500 
L 3481 434 
z
" transform="scale(0.015625)"/>
          <path id="DejaVuSans-6f" d="M 1959 3097 
Q 1497 3097 1228 2736 
Q 959 2375 959 1747 
Q 959 1119 1226 758 
Q 1494 397 1959 397 
Q 2419 397 2687 759 
Q 2956 1122 2956 1747 
Q 2956 2369 2687 2733 
Q 2419 3097 1959 3097 
z
M 1959 3584 
Q 2709 3584 3137 3096 
Q 3566 2609 3566 1747 
Q 3566 888 3137 398 
Q 2709 -91 1959 -91 
Q 1206 -91 779 398 
Q 353 888 353 1747 
Q 353 2609 779 3096 
Q 1206 3584 1959 3584 
z
" transform="scale(0.015625)"/>
          <path id="DejaVuSans-28" d="M 1984 4856 
Q 1566 4138 1362 3434 
Q 1159 2731 1159 2009 
Q 1159 1288 1364 580 
Q 1569 -128 1984 -844 
L 1484 -844 
Q 1016 -109 783 600 
Q 550 1309 550 2009 
Q 550 2706 781 3412 
Q 1013 4119 1484 4856 
L 1984 4856 
z
" transform="scale(0.015625)"/>
          <path id="DejaVuSans-79" d="M 2059 -325 
Q 1816 -950 1584 -1140 
Q 1353 -1331 966 -1331 
L 506 -1331 
L 506 -850 
L 844 -850 
Q 1081 -850 1212 -737 
Q 1344 -625 1503 -206 
L 1606 56 
L 191 3500 
L 800 3500 
L 1894 763 
L 2988 3500 
L 3597 3500 
L 2059 -325 
z
" transform="scale(0.015625)"/>
          <path id="DejaVuSans-72" d="M 2631 2963 
Q 2534 3019 2420 3045 
Q 2306 3072 2169 3072 
Q 1681 3072 1420 2755 
Q 1159 2438 1159 1844 
L 1159 0 
L 581 0 
L 581 3500 
L 1159 3500 
L 1159 2956 
Q 1341 3275 1631 3429 
Q 1922 3584 2338 3584 
Q 2397 3584 2469 3576 
Q 2541 3569 2628 3553 
L 2631 2963 
z
" transform="scale(0.015625)"/>
          <path id="DejaVuSans-73" d="M 2834 3397 
L 2834 2853 
Q 2591 2978 2328 3040 
Q 2066 3103 1784 3103 
Q 1356 3103 1142 2972 
Q 928 2841 928 2578 
Q 928 2378 1081 2264 
Q 1234 2150 1697 2047 
L 1894 2003 
Q 2506 1872 2764 1633 
Q 3022 1394 3022 966 
Q 3022 478 2636 193 
Q 2250 -91 1575 -91 
Q 1294 -91 989 -36 
Q 684 19 347 128 
L 347 722 
Q 666 556 975 473 
Q 1284 391 1588 391 
Q 1994 391 2212 530 
Q 2431 669 2431 922 
Q 2431 1156 2273 1281 
Q 2116 1406 1581 1522 
L 1381 1569 
Q 847 1681 609 1914 
Q 372 2147 372 2553 
Q 372 3047 722 3315 
Q 1072 3584 1716 3584 
Q 2034 3584 2315 3537 
Q 2597 3491 2834 3397 
z
" transform="scale(0.015625)"/>
          <path id="DejaVuSans-29" d="M 513 4856 
L 1013 4856 
Q 1481 4119 1714 3412 
Q 1947 2706 1947 2009 
Q 1947 1309 1714 600 
Q 1481 -109 1013 -844 
L 513 -844 
Q 928 -128 1133 580 
Q 1338 1288 1338 2009 
Q 1338 2731 1133 3434 
Q 928 4138 513 4856 
z
" transform="scale(0.015625)"/>
         </defs>
         <use xlink:href="#DejaVuSans-74"/>
         <use xlink:href="#DejaVuSans-69" x="39.208984"/>
         <use xlink:href="#DejaVuSans-6d" x="66.992188"/>
         <use xlink:href="#DejaVuSans-65" x="164.404297"/>
         <use xlink:href="#DejaVuSans-20" x="225.927734"/>
         <use xlink:href="#DejaVuSans-61" x="257.714844"/>
         <use xlink:href="#DejaVuSans-67" x="318.994141"/>
         <use xlink:href="#DejaVuSans-6f" x="382.470703"/>
         <use xlink:href="#DejaVuSans-20" x="443.652344"/>
         <use xlink:href="#DejaVuSans-28" x="475.439453"/>
         <use xlink:href="#DejaVuSans-79" x="514.453125"/>
         <use xlink:href="#DejaVuSans-65" x="573.632812"/>
         <use xlink:href="#DejaVuSans-61" x="635.15625"/>
         <use xlink:href="#DejaVuSans-72" x="696.435547"/>
         <use xlink:href="#DejaVuSans-73" x="737.548828"/>
         <use xlink:href="#DejaVuSans-29" x="789.648438"/>
        </g>
       </g>
      </g>
      <path d="M 257.619695 152.875083 
L 255.619695 151.875083 
L 255.619695 153.875083 
z
" clip-path="url(#pee58469511)" style="fill: #1f77b4; fill-opacity: 0.5; stroke: #1f77b4; stroke-opacity: 0.5; stroke-linejoin: miter"/>
      <path d="M 257.619695 71.533401 
L 255.619695 70.533401 
L 255.619695 72.533401 
z
" clip-path="url(#pee58469511)" style="fill: #1f77b4; fill-opacity: 0.5; stroke: #1f77b4; stroke-opacity: 0.5; stroke-linejoin: miter"/>
      <path d="M 257.619695 166.015125 
L 255.619695 165.015125 
L 255.619695 167.015125 
z
" clip-path="url(#pee58469511)" style="fill: #1f77b4; fill-opacity: 0.5; stroke: #1f77b4; stroke-opacity: 0.5; stroke-linejoin: miter"/>
      <path d="M 257.619695 49.019582 
L 255.619695 48.019582 
L 255.619695 50.019582 
z
" clip-path="url(#pee58469511)" style="fill: #1f77b4; fill-opacity: 0.5; stroke: #1f77b4; stroke-opacity: 0.5; stroke-linejoin: miter"/>
      <path d="M 257.619695 65.629551 
L 255.619695 64.629551 
L 255.619695 66.629551 
z
" clip-path="url(#pee58469511)" style="fill: #1f77b4; fill-opacity: 0.5; stroke: #1f77b4; stroke-opacity: 0.5; stroke-linejoin: miter"/>
      <path d="M 257.619695 192.033822 
L 255.619695 191.033822 
L 255.619695 193.033822 
z
" clip-path="url(#pee58469511)" style="fill: #1f77b4; fill-opacity: 0.5; stroke: #1f77b4; stroke-opacity: 0.5; stroke-linejoin: miter"/>
      <path d="M 257.619695 311.851844 
L 255.619695 310.851844 
L 255.619695 312.851844 
z
" clip-path="url(#pee58469511)" style="fill: #1f77b4; fill-opacity: 0.5; stroke: #1f77b4; stroke-opacity: 0.5; stroke-linejoin: miter"/>
      <path d="M 257.619695 293.594818 
L 255.619695 292.594818 
L 255.619695 294.594818 
z
" clip-path="url(#pee58469511)" style="fill: #1f77b4; fill-opacity: 0.5; stroke: #1f77b4; stroke-opacity: 0.5; stroke-linejoin: miter"/>
      <path d="M 257.619695 315.485724 
L 255.619695 314.485724 
L 255.619695 316.485724 
z
" clip-path="url(#pee58469511)" style="fill: #1f77b4; fill-opacity: 0.5; stroke: #1f77b4; stroke-opacity: 0.5; stroke-linejoin: miter"/>
      <path d="M 257.619695 68.432452 
L 255.619695 67.432452 
L 255.619695 69.432452 
z
" clip-path="url(#pee58469511)" style="fill: #1f77b4; fill-opacity: 0.5; stroke: #1f77b4; stroke-opacity: 0.5; stroke-linejoin: miter"/>
      <path d="M 199.299442 65.319334 
L 201.299442 66.319334 
L 201.299442 64.319334 
z
" clip-path="url(#pee58469511)" style="fill: #ff7f0e; fill-opacity: 0.5; stroke: #ff7f0e; stroke-opacity: 0.5; stroke-linejoin: miter"/>
      <path d="M 199.299442 165.906877 
L 201.299442 166.906877 
L 201.299442 164.906877 
z
" clip-path="url(#pee58469511)" style="fill: #ff7f0e; fill-opacity: 0.5; stroke: #ff7f0e; stroke-opacity: 0.5; stroke-linejoin: miter"/>
      <path d="M 199.299442 89.331292 
L 201.299442 90.331292 
L 201.299442 88.331292 
z
" clip-path="url(#pee58469511)" style="fill: #ff7f0e; fill-opacity: 0.5; stroke: #ff7f0e; stroke-opacity: 0.5; stroke-linejoin: miter"/>
      <path d="M 199.299442 256.871712 
L 201.299442 257.871712 
L 201.299442 255.871712 
z
" clip-path="url(#pee58469511)" style="fill: #ff7f0e; fill-opacity: 0.5; stroke: #ff7f0e; stroke-opacity: 0.5; stroke-linejoin: miter"/>
      <path d="M 199.299442 261.791141 
L 201.299442 262.791141 
L 201.299442 260.791141 
z
" clip-path="url(#pee58469511)" style="fill: #ff7f0e; fill-opacity: 0.5; stroke: #ff7f0e; stroke-opacity: 0.5; stroke-linejoin: miter"/>
      <path d="M 199.299442 89.04209 
L 201.299442 90.04209 
L 201.299442 88.04209 
z
" clip-path="url(#pee58469511)" style="fill: #ff7f0e; fill-opacity: 0.5; stroke: #ff7f0e; stroke-opacity: 0.5; stroke-linejoin: miter"/>
      <path d="M 199.299442 278.811535 
L 201.299442 279.811535 
L 201.299442 277.811535 
z
" clip-path="url(#pee58469511)" style="fill: #ff7f0e; fill-opacity: 0.5; stroke: #ff7f0e; stroke-opacity: 0.5; stroke-linejoin: miter"/>
      <path d="M 199.299442 233.021066 
L 201.299442 234.021066 
L 201.299442 232.021066 
z
" clip-path="url(#pee58469511)" style="fill: #ff7f0e; fill-opacity: 0.5; stroke: #ff7f0e; stroke-opacity: 0.5; stroke-linejoin: miter"/>
      <path d="M 199.299442 163.379909 
L 201.299442 164.379909 
L 201.299442 162.379909 
z
" clip-path="url(#pee58469511)" style="fill: #ff7f0e; fill-opacity: 0.5; stroke: #ff7f0e; stroke-opacity: 0.5; stroke-linejoin: miter"/>
      <path d="M 199.299442 264.717501 
L 201.299442 265.717501 
L 201.299442 263.717501 
z
" clip-path="url(#pee58469511)" style="fill: #ff7f0e; fill-opacity: 0.5; stroke: #ff7f0e; stroke-opacity: 0.5; stroke-linejoin: miter"/>
      <path d="M 447.666183 162.812981 
L 445.666183 161.812981 
L 445.666183 163.812981 
z
" clip-path="url(#pee58469511)" style="fill: #ff7f0e; fill-opacity: 0.5; stroke: #ff7f0e; stroke-opacity: 0.5; stroke-linejoin: miter"/>
      <path d="M 447.666183 148.224136 
L 445.666183 147.224136 
L 445.666183 149.224136 
z
" clip-path="url(#pee58469511)" style="fill: #ff7f0e; fill-opacity: 0.5; stroke: #ff7f0e; stroke-opacity: 0.5; stroke-linejoin: miter"/>
      <path d="M 447.666183 219.519924 
L 445.666183 218.519924 
L 445.666183 220.519924 
z
" clip-path="url(#pee58469511)" style="fill: #ff7f0e; fill-opacity: 0.5; stroke: #ff7f0e; stroke-opacity: 0.5; stroke-linejoin: miter"/>
      <path d="M 447.666183 26.615567 
L 445.666183 25.615567 
L 445.666183 27.615567 
z
" clip-path="url(#pee58469511)" style="fill: #ff7f0e; fill-opacity: 0.5; stroke: #ff7f0e; stroke-opacity: 0.5; stroke-linejoin: miter"/>
      <path d="M 447.666183 280.680458 
L 445.666183 279.680458 
L 445.666183 281.680458 
z
" clip-path="url(#pee58469511)" style="fill: #ff7f0e; fill-opacity: 0.5; stroke: #ff7f0e; stroke-opacity: 0.5; stroke-linejoin: miter"/>
      <path d="M 447.666183 96.52463 
L 445.666183 95.52463 
L 445.666183 97.52463 
z
" clip-path="url(#pee58469511)" style="fill: #ff7f0e; fill-opacity: 0.5; stroke: #ff7f0e; stroke-opacity: 0.5; stroke-linejoin: miter"/>
      <path d="M 447.666183 276.577175 
L 445.666183 275.577175 
L 445.666183 277.577175 
z
" clip-path="url(#pee58469511)" style="fill: #ff7f0e; fill-opacity: 0.5; stroke: #ff7f0e; stroke-opacity: 0.5; stroke-linejoin: miter"/>
      <path d="M 447.666183 303.330008 
L 445.666183 302.330008 
L 445.666183 304.330008 
z
" clip-path="url(#pee58469511)" style="fill: #ff7f0e; fill-opacity: 0.5; stroke: #ff7f0e; stroke-opacity: 0.5; stroke-linejoin: miter"/>
      <path d="M 447.666183 185.168133 
L 445.666183 184.168133 
L 445.666183 186.168133 
z
" clip-path="url(#pee58469511)" style="fill: #ff7f0e; fill-opacity: 0.5; stroke: #ff7f0e; stroke-opacity: 0.5; stroke-linejoin: miter"/>
      <path d="M 447.666183 250.208357 
L 445.666183 249.208357 
L 445.666183 251.208357 
z
" clip-path="url(#pee58469511)" style="fill: #ff7f0e; fill-opacity: 0.5; stroke: #ff7f0e; stroke-opacity: 0.5; stroke-linejoin: miter"/>
      <path d="M 389.34593 77.050326 
L 391.34593 78.050326 
L 391.34593 76.050326 
z
" clip-path="url(#pee58469511)" style="fill: #2ca02c; fill-opacity: 0.5; stroke: #2ca02c; stroke-opacity: 0.5; stroke-linejoin: miter"/>
      <path d="M 389.34593 163.621517 
L 391.34593 164.621517 
L 391.34593 162.621517 
z
" clip-path="url(#pee58469511)" style="fill: #2ca02c; fill-opacity: 0.5; stroke: #2ca02c; stroke-opacity: 0.5; stroke-linejoin: miter"/>
      <path d="M 389.34593 139.201866 
L 391.34593 140.201866 
L 391.34593 138.201866 
z
" clip-path="url(#pee58469511)" style="fill: #2ca02c; fill-opacity: 0.5; stroke: #2ca02c; stroke-opacity: 0.5; stroke-linejoin: miter"/>
      <path d="M 389.34593 272.459693 
L 391.34593 273.459693 
L 391.34593 271.459693 
z
" clip-path="url(#pee58469511)" style="fill: #2ca02c; fill-opacity: 0.5; stroke: #2ca02c; stroke-opacity: 0.5; stroke-linejoin: miter"/>
      <path d="M 389.34593 242.743922 
L 391.34593 243.743922 
L 391.34593 241.743922 
z
" clip-path="url(#pee58469511)" style="fill: #2ca02c; fill-opacity: 0.5; stroke: #2ca02c; stroke-opacity: 0.5; stroke-linejoin: miter"/>
      <path d="M 389.34593 110.995529 
L 391.34593 111.995529 
L 391.34593 109.995529 
z
" clip-path="url(#pee58469511)" style="fill: #2ca02c; fill-opacity: 0.5; stroke: #2ca02c; stroke-opacity: 0.5; stroke-linejoin: miter"/>
      <path d="M 389.34593 259.549444 
L 391.34593 260.549444 
L 391.34593 258.549444 
z
" clip-path="url(#pee58469511)" style="fill: #2ca02c; fill-opacity: 0.5; stroke: #2ca02c; stroke-opacity: 0.5; stroke-linejoin: miter"/>
      <path d="M 389.34593 168.200345 
L 391.34593 169.200345 
L 391.34593 167.200345 
z
" clip-path="url(#pee58469511)" style="fill: #2ca02c; fill-opacity: 0.5; stroke: #2ca02c; stroke-opacity: 0.5; stroke-linejoin: miter"/>
      <path d="M 389.34593 91.425998 
L 391.34593 92.425998 
L 391.34593 90.425998 
z
" clip-path="url(#pee58469511)" style="fill: #2ca02c; fill-opacity: 0.5; stroke: #2ca02c; stroke-opacity: 0.5; stroke-linejoin: miter"/>
      <path d="M 389.34593 256.339513 
L 391.34593 257.339513 
L 391.34593 255.339513 
z
" clip-path="url(#pee58469511)" style="fill: #2ca02c; fill-opacity: 0.5; stroke: #2ca02c; stroke-opacity: 0.5; stroke-linejoin: miter"/>
      <g id="patch_6">
       <path d="M 46.965625 318.021875 
L 46.965625 22.318125 
" style="fill: none; stroke: #000000; stroke-width: 0.8; stroke-linejoin: miter; stroke-linecap: square"/>
      </g>
      <g id="text_11">
       <!-- stepping_stone_model.yaml -->
       <g transform="translate(239.443437 16.318125) scale(0.12 -0.12)">
        <defs>
         <path id="DejaVuSans-70" d="M 1159 525 
L 1159 -1331 
L 581 -1331 
L 581 3500 
L 1159 3500 
L 1159 2969 
Q 1341 3281 1617 3432 
Q 1894 3584 2278 3584 
Q 2916 3584 3314 3078 
Q 3713 2572 3713 1747 
Q 3713 922 3314 415 
Q 2916 -91 2278 -91 
Q 1894 -91 1617 61 
Q 1341 213 1159 525 
z
M 3116 1747 
Q 3116 2381 2855 2742 
Q 2594 3103 2138 3103 
Q 1681 3103 1420 2742 
Q 1159 2381 1159 1747 
Q 1159 1113 1420 752 
Q 1681 391 2138 391 
Q 2594 391 2855 752 
Q 3116 1113 3116 1747 
z
" transform="scale(0.015625)"/>
         <path id="DejaVuSans-6e" d="M 3513 2113 
L 3513 0 
L 2938 0 
L 2938 2094 
Q 2938 2591 2744 2837 
Q 2550 3084 2163 3084 
Q 1697 3084 1428 2787 
Q 1159 2491 1159 1978 
L 1159 0 
L 581 0 
L 581 3500 
L 1159 3500 
L 1159 2956 
Q 1366 3272 1645 3428 
Q 1925 3584 2291 3584 
Q 2894 3584 3203 3211 
Q 3513 2838 3513 2113 
z
" transform="scale(0.015625)"/>
         <path id="DejaVuSans-5f" d="M 3263 -1063 
L 3263 -1509 
L -63 -1509 
L -63 -1063 
L 3263 -1063 
z
" transform="scale(0.015625)"/>
         <path id="DejaVuSans-6c" d="M 603 4863 
L 1178 4863 
L 1178 0 
L 603 0 
L 603 4863 
z
" transform="scale(0.015625)"/>
         <path id="DejaVuSans-2e" d="M 684 794 
L 1344 794 
L 1344 0 
L 684 0 
L 684 794 
z
" transform="scale(0.015625)"/>
        </defs>
        <use xlink:href="#DejaVuSans-73"/>
        <use xlink:href="#DejaVuSans-74" x="52.099609"/>
        <use xlink:href="#DejaVuSans-65" x="91.308594"/>
        <use xlink:href="#DejaVuSans-70" x="152.832031"/>
        <use xlink:href="#DejaVuSans-70" x="216.308594"/>
        <use xlink:href="#DejaVuSans-69" x="279.785156"/>
        <use xlink:href="#DejaVuSans-6e" x="307.568359"/>
        <use xlink:href="#DejaVuSans-67" x="370.947266"/>
        <use xlink:href="#DejaVuSans-5f" x="434.423828"/>
        <use xlink:href="#DejaVuSans-73" x="484.423828"/>
        <use xlink:href="#DejaVuSans-74" x="536.523438"/>
        <use xlink:href="#DejaVuSans-6f" x="575.732422"/>
        <use xlink:href="#DejaVuSans-6e" x="636.914062"/>
        <use xlink:href="#DejaVuSans-65" x="700.292969"/>
        <use xlink:href="#DejaVuSans-5f" x="761.816406"/>
        <use xlink:href="#DejaVuSans-6d" x="811.816406"/>
        <use xlink:href="#DejaVuSans-6f" x="909.228516"/>
        <use xlink:href="#DejaVuSans-64" x="970.410156"/>
        <use xlink:href="#DejaVuSans-65" x="1033.886719"/>
        <use xlink:href="#DejaVuSans-6c" x="1095.410156"/>
        <use xlink:href="#DejaVuSans-2e" x="1123.193359"/>
        <use xlink:href="#DejaVuSans-79" x="1154.980469"/>
        <use xlink:href="#DejaVuSans-61" x="1214.160156"/>
        <use xlink:href="#DejaVuSans-6d" x="1275.439453"/>
        <use xlink:href="#DejaVuSans-6c" x="1372.851562"/>
       </g>
      </g>
     </g>
    </g>
    <defs>
     <clipPath id="pee58469511">
      <rect x="46.965625" y="22.318125" width="553.034375" height="295.70375"/>
     </clipPath>
    </defs>
   </g>
  </g>
 </g>
</svg>