<?xml version="1.0" encoding="utf-8" standalone="no"?>
<!DOCTYPE svg PUBLIC "-//W3C//DTD SVG 1.1//EN"
  "http://www.w3.org/Graphics/SVG/1.1/DTD/svg11.dtd">
<svg xmlns:xlink="http://www.w3.org/1999/xlink" width="607.2pt" height="338.4pt" viewBox="0 0 607.2 338.4" xmlns="http://www.w3.org/2000/svg" version="1.1">
 <metadata>
  <rdf:RDF xmlns:dc="http://purl.org/dc/elements/1.1/" xmlns:cc="http://creativecommons.org/ns#" xmlns:rdf="http://www.w3.org/1999/02/22-rdf-syntax-ns#">
   <cc:Work>
    <dc:type rdf:resource="http://purl.org/dc/dcmitype/StillImage"/>
    <dc:date>2023-10-30T09:06:18.056064</dc:date>
    <dc:format>image/svg+xml</dc:format>
    <dc:creator>
     <cc:Agent>
      <dc:title>Matplotlib v3.7.2, https://matplotlib.org/</dc:title>
     </cc:Agent>
    </dc:creator>
   </cc:Work>
  </rdf:RDF>
 </metadata>
 <defs>
  <style type="text/css">*{stroke-linejoin: round; stroke-linecap: butt}</style>
 </defs>
 <g id="figure_1">
  <g id="patch_1">
   <path d="M 0 338.4 
L 607.2 338.4 
L 607.2 0 
L 0 0 
z
" style="fill: #ffffff"/>
  </g>
  <g id="axes_1">
   <g id="patch_2">
    <path d="M 46.965625 318.021875 
L 600 318.021875 
L 600 22.318125 
L 46.965625 22.318125 
z
" style="fill: #ffffff"/>
   </g>
   <path d="M 200.299442 121.991926 
L 201.299442 122.023362 
L 202.299442 122.060303 
L 203.299442 122.158049 
L 204.299442 122.190571 
L 205.299442 122.264195 
L 206.299442 122.302761 
L 207.299442 122.338174 
L 208.299442 122.395814 
L 209.299442 122.4662 
L 210.299442 122.518165 
L 211.299442 122.577254 
L 212.299442 122.665575 
L 213.299442 122.71172 
L 214.299442 122.75413 
L 215.299442 122.784623 
L 216.299442 122.810668 
L 217.299442 122.831868 
L 218.299442 122.886169 
L 219.299442 122.914107 
L 220.299442 122.943831 
L 221.299442 122.969226 
L 222.299442 122.980426 
L 223.299442 122.99055 
L 224.299442 122.990346 
L 225.299442 122.980836 
L 226.299442 122.969182 
L 227.299442 122.938153 
L 228.299442 122.926985 
L 229.299442 122.896867 
L 230.299442 122.837091 
L 231.299442 122.799899 
L 232.299442 122.760803 
L 233.299442 122.718363 
L 234.299442 122.685598 
L 235.299442 122.618172 
L 236.299442 122.579046 
L 237.299442 122.536371 
L 238.299442 122.465791 
L 239.299442 122.4294 
L 240.299442 122.370997 
L 241.299442 122.260044 
L 242.299442 122.189386 
L 243.299442 122.076446 
L 244.299442 122.030673 
L 245.299442 121.96939 
L 246.299442 121.92089 
L 247.299442 121.840068 
L 248.299442 121.721549 
L 249.299442 121.651338 
L 250.299442 121.568076 
L 251.299442 121.534934 
L 252.299442 121.483697 
L 253.299442 121.415298 
L 254.299442 121.349083 
L 255.299442 121.272166 
L 256.619695 121.24485 
" clip-path="url(#pbf68e78f71)" style="fill: none; stroke: #1f77b4; stroke-opacity: 0.5; stroke-width: 0.2; stroke-linecap: square"/>
   <path d="M 200.299442 189.641078 
L 201.299442 189.672514 
L 202.299442 189.709454 
L 203.299442 189.807201 
L 204.299442 189.839723 
L 205.299442 189.913347 
L 206.299442 189.951913 
L 207.299442 189.987326 
L 208.299442 190.044966 
L 209.299442 190.115352 
L 210.299442 190.167316 
L 211.299442 190.226406 
L 212.299442 190.314727 
L 213.299442 190.360871 
L 214.299442 190.403282 
L 215.299442 190.433775 
L 216.299442 190.45982 
L 217.299442 190.48102 
L 218.299442 190.535321 
L 219.299442 190.563259 
L 220.299442 190.592983 
L 221.299442 190.618377 
L 222.299442 190.629578 
L 223.299442 190.639702 
L 224.299442 190.639497 
L 225.299442 190.629988 
L 226.299442 190.618334 
L 227.299442 190.587305 
L 228.299442 190.576137 
L 229.299442 190.546019 
L 230.299442 190.486242 
L 231.299442 190.449051 
L 232.299442 190.409955 
L 233.299442 190.367515 
L 234.299442 190.33475 
L 235.299442 190.267323 
L 236.299442 190.228198 
L 237.299442 190.185523 
L 238.299442 190.114942 
L 239.299442 190.078552 
L 240.299442 190.020148 
L 241.299442 189.909196 
L 242.299442 189.838537 
L 243.299442 189.725598 
L 244.299442 189.679825 
L 245.299442 189.618542 
L 246.299442 189.570042 
L 247.299442 189.48922 
L 248.299442 189.370701 
L 249.299442 189.30049 
L 250.299442 189.217228 
L 251.299442 189.184086 
L 252.299442 189.132848 
L 253.299442 189.06445 
L 254.299442 188.998235 
L 255.299442 188.921318 
L 256.619695 188.894002 
" clip-path="url(#pbf68e78f71)" style="fill: none; stroke: #1f77b4; stroke-opacity: 0.5; stroke-width: 0.2; stroke-linecap: square"/>
   <path d="M 200.299442 57.322339 
L 201.299442 57.353776 
L 202.299442 57.390716 
L 203.299442 57.488463 
L 204.299442 57.520984 
L 205.299442 57.594609 
L 206.299442 57.633175 
L 207.299442 57.668588 
L 208.299442 57.726228 
L 209.299442 57.796614 
L 210.299442 57.848578 
L 211.299442 57.907668 
L 212.299442 57.995989 
L 213.299442 58.042133 
L 214.299442 58.084544 
L 215.299442 58.115037 
L 216.299442 58.141082 
L 217.299442 58.162282 
L 218.299442 58.216583 
L 219.299442 58.24452 
L 220.299442 58.274244 
L 221.299442 58.299639 
L 222.299442 58.31084 
L 223.299442 58.320964 
L 224.299442 58.320759 
L 225.299442 58.311249 
L 226.299442 58.299596 
L 227.299442 58.268566 
L 228.299442 58.257399 
L 229.299442 58.227281 
L 230.299442 58.167504 
L 231.299442 58.130313 
L 232.299442 58.091216 
L 233.299442 58.048777 
L 234.299442 58.016012 
L 235.299442 57.948585 
L 236.299442 57.909459 
L 237.299442 57.866785 
L 238.299442 57.796204 
L 239.299442 57.759813 
L 240.299442 57.70141 
L 241.299442 57.590458 
L 242.299442 57.519799 
L 243.299442 57.406859 
L 244.299442 57.361087 
L 245.299442 57.299803 
L 246.299442 57.251304 
L 247.299442 57.170481 
L 248.299442 57.051962 
L 249.299442 56.981752 
L 250.299442 56.898489 
L 251.299442 56.865348 
L 252.299442 56.81411 
L 253.299442 56.745712 
L 254.299442 56.679496 
L 255.299442 56.602579 
L 256.619695 56.575264 
" clip-path="url(#pbf68e78f71)" style="fill: none; stroke: #1f77b4; stroke-opacity: 0.5; stroke-width: 0.2; stroke-linecap: square"/>
   <path d="M 200.299442 27.718517 
L 201.299442 27.749954 
L 202.299442 27.786894 
L 203.299442 27.884641 
L 204.299442 27.917162 
L 205.299442 27.990787 
L 206.299442 28.029352 
L 207.299442 28.064766 
L 208.299442 28.122406 
L 209.299442 28.192792 
L 210.299442 28.244756 
L 211.299442 28.303846 
L 212.299442 28.392167 
L 213.299442 28.438311 
L 214.299442 28.480722 
L 215.299442 28.511215 
L 216.299442 28.53726 
L 217.299442 28.55846 
L 218.299442 28.612761 
L 219.299442 28.640698 
L 220.299442 28.670422 
L 221.299442 28.695817 
L 222.299442 28.707018 
L 223.299442 28.717141 
L 224.299442 28.716937 
L 225.299442 28.707427 
L 226.299442 28.695774 
L 227.299442 28.664744 
L 228.299442 28.653577 
L 229.299442 28.623459 
L 230.299442 28.563682 
L 231.299442 28.526491 
L 232.299442 28.487394 
L 233.299442 28.444955 
L 234.299442 28.41219 
L 235.299442 28.344763 
L 236.299442 28.305637 
L 237.299442 28.262963 
L 238.299442 28.192382 
L 239.299442 28.155991 
L 240.299442 28.097588 
L 241.299442 27.986636 
L 242.299442 27.915977 
L 243.299442 27.803037 
L 244.299442 27.757265 
L 245.299442 27.695981 
L 246.299442 27.647482 
L 247.299442 27.566659 
L 248.299442 27.44814 
L 249.299442 27.37793 
L 250.299442 27.294667 
L 251.299442 27.261525 
L 252.299442 27.210288 
L 253.299442 27.14189 
L 254.299442 27.075674 
L 255.299442 26.998757 
L 256.619695 26.971442 
" clip-path="url(#pbf68e78f71)" style="fill: none; stroke: #1f77b4; stroke-opacity: 0.5; stroke-width: 0.2; stroke-linecap: square"/>
   <path d="M 200.299442 51.794086 
L 201.299442 51.825522 
L 202.299442 51.862463 
L 203.299442 51.960209 
L 204.299442 51.992731 
L 205.299442 52.066356 
L 206.299442 52.104921 
L 207.299442 52.140334 
L 208.299442 52.197974 
L 209.299442 52.268361 
L 210.299442 52.320325 
L 211.299442 52.379415 
L 212.299442 52.467736 
L 213.299442 52.51388 
L 214.299442 52.556291 
L 215.299442 52.586783 
L 216.299442 52.612828 
L 217.299442 52.634028 
L 218.299442 52.68833 
L 219.299442 52.716267 
L 220.299442 52.745991 
L 221.299442 52.771386 
L 222.299442 52.782586 
L 223.299442 52.79271 
L 224.299442 52.792506 
L 225.299442 52.782996 
L 226.299442 52.771342 
L 227.299442 52.740313 
L 228.299442 52.729145 
L 229.299442 52.699028 
L 230.299442 52.639251 
L 231.299442 52.602059 
L 232.299442 52.562963 
L 233.299442 52.520524 
L 234.299442 52.487758 
L 235.299442 52.420332 
L 236.299442 52.381206 
L 237.299442 52.338532 
L 238.299442 52.267951 
L 239.299442 52.23156 
L 240.299442 52.173157 
L 241.299442 52.062204 
L 242.299442 51.991546 
L 243.299442 51.878606 
L 244.299442 51.832833 
L 245.299442 51.77155 
L 246.299442 51.723051 
L 247.299442 51.642228 
L 248.299442 51.523709 
L 249.299442 51.453498 
L 250.299442 51.370236 
L 251.299442 51.337094 
L 252.299442 51.285857 
L 253.299442 51.217459 
L 254.299442 51.151243 
L 255.299442 51.074326 
L 256.619695 51.047011 
" clip-path="url(#pbf68e78f71)" style="fill: none; stroke: #1f77b4; stroke-opacity: 0.5; stroke-width: 0.2; stroke-linecap: square"/>
   <path d="M 200.299442 194.466035 
L 201.299442 194.497472 
L 202.299442 194.534412 
L 203.299442 194.632159 
L 204.299442 194.66468 
L 205.299442 194.738305 
L 206.299442 194.77687 
L 207.299442 194.812284 
L 208.299442 194.869924 
L 209.299442 194.94031 
L 210.299442 194.992274 
L 211.299442 195.051364 
L 212.299442 195.139685 
L 213.299442 195.185829 
L 214.299442 195.22824 
L 215.299442 195.258733 
L 216.299442 195.284778 
L 217.299442 195.305978 
L 218.299442 195.360279 
L 219.299442 195.388216 
L 220.299442 195.41794 
L 221.299442 195.443335 
L 222.299442 195.454535 
L 223.299442 195.464659 
L 224.299442 195.464455 
L 225.299442 195.454945 
L 226.299442 195.443292 
L 227.299442 195.412262 
L 228.299442 195.401094 
L 229.299442 195.370977 
L 230.299442 195.3112 
L 231.299442 195.274008 
L 232.299442 195.234912 
L 233.299442 195.192473 
L 234.299442 195.159708 
L 235.299442 195.092281 
L 236.299442 195.053155 
L 237.299442 195.010481 
L 238.299442 194.9399 
L 239.299442 194.903509 
L 240.299442 194.845106 
L 241.299442 194.734153 
L 242.299442 194.663495 
L 243.299442 194.550555 
L 244.299442 194.504782 
L 245.299442 194.443499 
L 246.299442 194.395 
L 247.299442 194.314177 
L 248.299442 194.195658 
L 249.299442 194.125448 
L 250.299442 194.042185 
L 251.299442 194.009043 
L 252.299442 193.957806 
L 253.299442 193.889408 
L 254.299442 193.823192 
L 255.299442 193.746275 
L 256.619695 193.71896 
" clip-path="url(#pbf68e78f71)" style="fill: none; stroke: #1f77b4; stroke-opacity: 0.5; stroke-width: 0.2; stroke-linecap: square"/>
   <path d="M 200.299442 240.325822 
L 201.299442 240.357258 
L 202.299442 240.394199 
L 203.299442 240.491945 
L 204.299442 240.524467 
L 205.299442 240.598092 
L 206.299442 240.636657 
L 207.299442 240.67207 
L 208.299442 240.72971 
L 209.299442 240.800097 
L 210.299442 240.852061 
L 211.299442 240.91115 
L 212.299442 240.999471 
L 213.299442 241.045616 
L 214.299442 241.088027 
L 215.299442 241.118519 
L 216.299442 241.144564 
L 217.299442 241.165764 
L 218.299442 241.220066 
L 219.299442 241.248003 
L 220.299442 241.277727 
L 221.299442 241.303122 
L 222.299442 241.314322 
L 223.299442 241.324446 
L 224.299442 241.324242 
L 225.299442 241.314732 
L 226.299442 241.303078 
L 227.299442 241.272049 
L 228.299442 241.260881 
L 229.299442 241.230764 
L 230.299442 241.170987 
L 231.299442 241.133795 
L 232.299442 241.094699 
L 233.299442 241.052259 
L 234.299442 241.019494 
L 235.299442 240.952068 
L 236.299442 240.912942 
L 237.299442 240.870267 
L 238.299442 240.799687 
L 239.299442 240.763296 
L 240.299442 240.704893 
L 241.299442 240.59394 
L 242.299442 240.523282 
L 243.299442 240.410342 
L 244.299442 240.364569 
L 245.299442 240.303286 
L 246.299442 240.254787 
L 247.299442 240.173964 
L 248.299442 240.055445 
L 249.299442 239.985234 
L 250.299442 239.901972 
L 251.299442 239.86883 
L 252.299442 239.817593 
L 253.299442 239.749195 
L 254.299442 239.682979 
L 255.299442 239.606062 
L 256.619695 239.578747 
" clip-path="url(#pbf68e78f71)" style="fill: none; stroke: #1f77b4; stroke-opacity: 0.5; stroke-width: 0.2; stroke-linecap: square"/>
   <path d="M 200.299442 172.932748 
L 201.299442 172.964184 
L 202.299442 173.001125 
L 203.299442 173.098871 
L 204.299442 173.131393 
L 205.299442 173.205017 
L 206.299442 173.243583 
L 207.299442 173.278996 
L 208.299442 173.336636 
L 209.299442 173.407022 
L 210.299442 173.458987 
L 211.299442 173.518076 
L 212.299442 173.606397 
L 213.299442 173.652542 
L 214.299442 173.694953 
L 215.299442 173.725445 
L 216.299442 173.75149 
L 217.299442 173.77269 
L 218.299442 173.826991 
L 219.299442 173.854929 
L 220.299442 173.884653 
L 221.299442 173.910048 
L 222.299442 173.921248 
L 223.299442 173.931372 
L 224.299442 173.931168 
L 225.299442 173.921658 
L 226.299442 173.910004 
L 227.299442 173.878975 
L 228.299442 173.867807 
L 229.299442 173.83769 
L 230.299442 173.777913 
L 231.299442 173.740721 
L 232.299442 173.701625 
L 233.299442 173.659185 
L 234.299442 173.62642 
L 235.299442 173.558994 
L 236.299442 173.519868 
L 237.299442 173.477193 
L 238.299442 173.406613 
L 239.299442 173.370222 
L 240.299442 173.311819 
L 241.299442 173.200866 
L 242.299442 173.130208 
L 243.299442 173.017268 
L 244.299442 172.971495 
L 245.299442 172.910212 
L 246.299442 172.861712 
L 247.299442 172.78089 
L 248.299442 172.662371 
L 249.299442 172.59216 
L 250.299442 172.508898 
L 251.299442 172.475756 
L 252.299442 172.424519 
L 253.299442 172.35612 
L 254.299442 172.289905 
L 255.299442 172.212988 
L 256.619695 172.185672 
" clip-path="url(#pbf68e78f71)" style="fill: none; stroke: #1f77b4; stroke-opacity: 0.5; stroke-width: 0.2; stroke-linecap: square"/>
   <path d="M 200.299442 31.577785 
L 201.299442 31.609221 
L 202.299442 31.646161 
L 203.299442 31.743908 
L 204.299442 31.776429 
L 205.299442 31.850054 
L 206.299442 31.88862 
L 207.299442 31.924033 
L 208.299442 31.981673 
L 209.299442 32.052059 
L 210.299442 32.104023 
L 211.299442 32.163113 
L 212.299442 32.251434 
L 213.299442 32.297578 
L 214.299442 32.339989 
L 215.299442 32.370482 
L 216.299442 32.396527 
L 217.299442 32.417727 
L 218.299442 32.472028 
L 219.299442 32.499966 
L 220.299442 32.529689 
L 221.299442 32.555084 
L 222.299442 32.566285 
L 223.299442 32.576409 
L 224.299442 32.576204 
L 225.299442 32.566694 
L 226.299442 32.555041 
L 227.299442 32.524012 
L 228.299442 32.512844 
L 229.299442 32.482726 
L 230.299442 32.422949 
L 231.299442 32.385758 
L 232.299442 32.346662 
L 233.299442 32.304222 
L 234.299442 32.271457 
L 235.299442 32.20403 
L 236.299442 32.164904 
L 237.299442 32.12223 
L 238.299442 32.051649 
L 239.299442 32.015258 
L 240.299442 31.956855 
L 241.299442 31.845903 
L 242.299442 31.775244 
L 243.299442 31.662305 
L 244.299442 31.616532 
L 245.299442 31.555248 
L 246.299442 31.506749 
L 247.299442 31.425926 
L 248.299442 31.307408 
L 249.299442 31.237197 
L 250.299442 31.153934 
L 251.299442 31.120793 
L 252.299442 31.069555 
L 253.299442 31.001157 
L 254.299442 30.934942 
L 255.299442 30.858024 
L 256.619695 30.830709 
" clip-path="url(#pbf68e78f71)" style="fill: none; stroke: #1f77b4; stroke-opacity: 0.5; stroke-width: 0.2; stroke-linecap: square"/>
   <path d="M 200.299442 198.166342 
L 201.299442 198.197778 
L 202.299442 198.234718 
L 203.299442 198.332465 
L 204.299442 198.364986 
L 205.299442 198.438611 
L 206.299442 198.477177 
L 207.299442 198.51259 
L 208.299442 198.57023 
L 209.299442 198.640616 
L 210.299442 198.69258 
L 211.299442 198.75167 
L 212.299442 198.839991 
L 213.299442 198.886135 
L 214.299442 198.928546 
L 215.299442 198.959039 
L 216.299442 198.985084 
L 217.299442 199.006284 
L 218.299442 199.060585 
L 219.299442 199.088523 
L 220.299442 199.118247 
L 221.299442 199.143641 
L 222.299442 199.154842 
L 223.299442 199.164966 
L 224.299442 199.164761 
L 225.299442 199.155252 
L 226.299442 199.143598 
L 227.299442 199.112569 
L 228.299442 199.101401 
L 229.299442 199.071283 
L 230.299442 199.011506 
L 231.299442 198.974315 
L 232.299442 198.935219 
L 233.299442 198.892779 
L 234.299442 198.860014 
L 235.299442 198.792587 
L 236.299442 198.753462 
L 237.299442 198.710787 
L 238.299442 198.640206 
L 239.299442 198.603816 
L 240.299442 198.545412 
L 241.299442 198.43446 
L 242.299442 198.363801 
L 243.299442 198.250862 
L 244.299442 198.205089 
L 245.299442 198.143806 
L 246.299442 198.095306 
L 247.299442 198.014484 
L 248.299442 197.895965 
L 249.299442 197.825754 
L 250.299442 197.742491 
L 251.299442 197.70935 
L 252.299442 197.658112 
L 253.299442 197.589714 
L 254.299442 197.523499 
L 255.299442 197.446582 
L 256.619695 197.419266 
" clip-path="url(#pbf68e78f71)" style="fill: none; stroke: #1f77b4; stroke-opacity: 0.5; stroke-width: 0.2; stroke-linecap: square"/>
   <path d="M 256.619695 27.486648 
L 255.619695 27.455212 
L 254.619695 27.418271 
L 253.619695 27.320525 
L 252.619695 27.288003 
L 251.619695 27.214378 
L 250.619695 27.175813 
L 249.619695 27.1404 
L 248.619695 27.08276 
L 247.619695 27.012374 
L 246.619695 26.960409 
L 245.619695 26.90132 
L 244.619695 26.812999 
L 243.619695 26.766854 
L 242.619695 26.724443 
L 241.619695 26.693951 
L 240.619695 26.667906 
L 239.619695 26.646706 
L 238.619695 26.592405 
L 237.619695 26.564467 
L 236.619695 26.534743 
L 235.619695 26.509348 
L 234.619695 26.498148 
L 233.619695 26.488024 
L 232.619695 26.488228 
L 231.619695 26.497738 
L 230.619695 26.509392 
L 229.619695 26.540421 
L 228.619695 26.551589 
L 227.619695 26.581706 
L 226.619695 26.641483 
L 225.619695 26.678675 
L 224.619695 26.717771 
L 223.619695 26.760211 
L 222.619695 26.792976 
L 221.619695 26.860402 
L 220.619695 26.899528 
L 219.619695 26.942203 
L 218.619695 27.012783 
L 217.619695 27.049174 
L 216.619695 27.107577 
L 215.619695 27.21853 
L 214.619695 27.289188 
L 213.619695 27.402128 
L 212.619695 27.447901 
L 211.619695 27.509184 
L 210.619695 27.557683 
L 209.619695 27.638506 
L 208.619695 27.757025 
L 207.619695 27.827236 
L 206.619695 27.910498 
L 205.619695 27.94364 
L 204.619695 27.994877 
L 203.619695 28.063276 
L 202.619695 28.129491 
L 201.619695 28.206408 
L 200.299442 28.233723 
" clip-path="url(#pbf68e78f71)" style="fill: none; stroke: #ff7f0e; stroke-opacity: 0.5; stroke-width: 0.2; stroke-linecap: square"/>
   <path d="M 256.619695 88.445355 
L 255.619695 88.413918 
L 254.619695 88.376978 
L 253.619695 88.279232 
L 252.619695 88.24671 
L 251.619695 88.173085 
L 250.619695 88.13452 
L 249.619695 88.099107 
L 248.619695 88.041467 
L 247.619695 87.97108 
L 246.619695 87.919116 
L 245.619695 87.860026 
L 244.619695 87.771705 
L 243.619695 87.725561 
L 242.619695 87.68315 
L 241.619695 87.652658 
L 240.619695 87.626613 
L 239.619695 87.605412 
L 238.619695 87.551111 
L 237.619695 87.523174 
L 236.619695 87.49345 
L 235.619695 87.468055 
L 234.619695 87.456855 
L 233.619695 87.446731 
L 232.619695 87.446935 
L 231.619695 87.456445 
L 230.619695 87.468098 
L 229.619695 87.499128 
L 228.619695 87.510296 
L 227.619695 87.540413 
L 226.619695 87.60019 
L 225.619695 87.637382 
L 224.619695 87.676478 
L 223.619695 87.718917 
L 222.619695 87.751683 
L 221.619695 87.819109 
L 220.619695 87.858235 
L 219.619695 87.900909 
L 218.619695 87.97149 
L 217.619695 88.007881 
L 216.619695 88.066284 
L 215.619695 88.177237 
L 214.619695 88.247895 
L 213.619695 88.360835 
L 212.619695 88.406608 
L 211.619695 88.467891 
L 210.619695 88.51639 
L 209.619695 88.597213 
L 208.619695 88.715732 
L 207.619695 88.785942 
L 206.619695 88.869205 
L 205.619695 88.902347 
L 204.619695 88.953584 
L 203.619695 89.021982 
L 202.619695 89.088198 
L 201.619695 89.165115 
L 200.299442 89.19243 
" clip-path="url(#pbf68e78f71)" style="fill: none; stroke: #ff7f0e; stroke-opacity: 0.5; stroke-width: 0.2; stroke-linecap: square"/>
   <path d="M 256.619695 118.538845 
L 255.619695 118.507408 
L 254.619695 118.470468 
L 253.619695 118.372721 
L 252.619695 118.3402 
L 251.619695 118.266575 
L 250.619695 118.22801 
L 249.619695 118.192596 
L 248.619695 118.134956 
L 247.619695 118.06457 
L 246.619695 118.012606 
L 245.619695 117.953516 
L 244.619695 117.865195 
L 243.619695 117.819051 
L 242.619695 117.77664 
L 241.619695 117.746147 
L 240.619695 117.720102 
L 239.619695 117.698902 
L 238.619695 117.644601 
L 237.619695 117.616664 
L 236.619695 117.58694 
L 235.619695 117.561545 
L 234.619695 117.550345 
L 233.619695 117.540221 
L 232.619695 117.540425 
L 231.619695 117.549935 
L 230.619695 117.561588 
L 229.619695 117.592618 
L 228.619695 117.603786 
L 227.619695 117.633903 
L 226.619695 117.69368 
L 225.619695 117.730872 
L 224.619695 117.769968 
L 223.619695 117.812407 
L 222.619695 117.845172 
L 221.619695 117.912599 
L 220.619695 117.951725 
L 219.619695 117.994399 
L 218.619695 118.06498 
L 217.619695 118.101371 
L 216.619695 118.159774 
L 215.619695 118.270727 
L 214.619695 118.341385 
L 213.619695 118.454325 
L 212.619695 118.500098 
L 211.619695 118.561381 
L 210.619695 118.60988 
L 209.619695 118.690703 
L 208.619695 118.809222 
L 207.619695 118.879432 
L 206.619695 118.962695 
L 205.619695 118.995837 
L 204.619695 119.047074 
L 203.619695 119.115472 
L 202.619695 119.181688 
L 201.619695 119.258605 
L 200.299442 119.28592 
" clip-path="url(#pbf68e78f71)" style="fill: none; stroke: #ff7f0e; stroke-opacity: 0.5; stroke-width: 0.2; stroke-linecap: square"/>
   <path d="M 256.619695 312.147038 
L 255.619695 312.115601 
L 254.619695 312.078661 
L 253.619695 311.980915 
L 252.619695 311.948393 
L 251.619695 311.874768 
L 250.619695 311.836203 
L 249.619695 311.800789 
L 248.619695 311.74315 
L 247.619695 311.672763 
L 246.619695 311.620799 
L 245.619695 311.561709 
L 244.619695 311.473388 
L 243.619695 311.427244 
L 242.619695 311.384833 
L 241.619695 311.354341 
L 240.619695 311.328296 
L 239.619695 311.307095 
L 238.619695 311.252794 
L 237.619695 311.224857 
L 236.619695 311.195133 
L 235.619695 311.169738 
L 234.619695 311.158538 
L 233.619695 311.148414 
L 232.619695 311.148618 
L 231.619695 311.158128 
L 230.619695 311.169781 
L 229.619695 311.200811 
L 228.619695 311.211979 
L 227.619695 311.242096 
L 226.619695 311.301873 
L 225.619695 311.339065 
L 224.619695 311.378161 
L 223.619695 311.4206 
L 222.619695 311.453365 
L 221.619695 311.520792 
L 220.619695 311.559918 
L 219.619695 311.602592 
L 218.619695 311.673173 
L 217.619695 311.709564 
L 216.619695 311.767967 
L 215.619695 311.87892 
L 214.619695 311.949578 
L 213.619695 312.062518 
L 212.619695 312.108291 
L 211.619695 312.169574 
L 210.619695 312.218073 
L 209.619695 312.298896 
L 208.619695 312.417415 
L 207.619695 312.487625 
L 206.619695 312.570888 
L 205.619695 312.60403 
L 204.619695 312.655267 
L 203.619695 312.723665 
L 202.619695 312.789881 
L 201.619695 312.866798 
L 200.299442 312.894113 
" clip-path="url(#pbf68e78f71)" style="fill: none; stroke: #ff7f0e; stroke-opacity: 0.5; stroke-width: 0.2; stroke-linecap: square"/>
   <path d="M 256.619695 201.543364 
L 255.619695 201.511927 
L 254.619695 201.474987 
L 253.619695 201.37724 
L 252.619695 201.344719 
L 251.619695 201.271094 
L 250.619695 201.232529 
L 249.619695 201.197115 
L 248.619695 201.139475 
L 247.619695 201.069089 
L 246.619695 201.017125 
L 245.619695 200.958035 
L 244.619695 200.869714 
L 243.619695 200.82357 
L 242.619695 200.781159 
L 241.619695 200.750666 
L 240.619695 200.724621 
L 239.619695 200.703421 
L 238.619695 200.64912 
L 237.619695 200.621183 
L 236.619695 200.591459 
L 235.619695 200.566064 
L 234.619695 200.554864 
L 233.619695 200.54474 
L 232.619695 200.544944 
L 231.619695 200.554454 
L 230.619695 200.566107 
L 229.619695 200.597137 
L 228.619695 200.608305 
L 227.619695 200.638422 
L 226.619695 200.698199 
L 225.619695 200.735391 
L 224.619695 200.774487 
L 223.619695 200.816926 
L 222.619695 200.849691 
L 221.619695 200.917118 
L 220.619695 200.956244 
L 219.619695 200.998918 
L 218.619695 201.069499 
L 217.619695 201.10589 
L 216.619695 201.164293 
L 215.619695 201.275246 
L 214.619695 201.345904 
L 213.619695 201.458844 
L 212.619695 201.504617 
L 211.619695 201.5659 
L 210.619695 201.614399 
L 209.619695 201.695222 
L 208.619695 201.813741 
L 207.619695 201.883951 
L 206.619695 201.967214 
L 205.619695 202.000356 
L 204.619695 202.051593 
L 203.619695 202.119991 
L 202.619695 202.186207 
L 201.619695 202.263124 
L 200.299442 202.290439 
" clip-path="url(#pbf68e78f71)" style="fill: none; stroke: #ff7f0e; stroke-opacity: 0.5; stroke-width: 0.2; stroke-linecap: square"/>
   <path d="M 256.619695 278.808585 
L 255.619695 278.777149 
L 254.619695 278.740209 
L 253.619695 278.642462 
L 252.619695 278.609941 
L 251.619695 278.536316 
L 250.619695 278.49775 
L 249.619695 278.462337 
L 248.619695 278.404697 
L 247.619695 278.334311 
L 246.619695 278.282347 
L 245.619695 278.223257 
L 244.619695 278.134936 
L 243.619695 278.088792 
L 242.619695 278.046381 
L 241.619695 278.015888 
L 240.619695 277.989843 
L 239.619695 277.968643 
L 238.619695 277.914342 
L 237.619695 277.886404 
L 236.619695 277.85668 
L 235.619695 277.831286 
L 234.619695 277.820085 
L 233.619695 277.809961 
L 232.619695 277.810166 
L 231.619695 277.819676 
L 230.619695 277.831329 
L 229.619695 277.862358 
L 228.619695 277.873526 
L 227.619695 277.903644 
L 226.619695 277.963421 
L 225.619695 278.000612 
L 224.619695 278.039708 
L 223.619695 278.082148 
L 222.619695 278.114913 
L 221.619695 278.18234 
L 220.619695 278.221465 
L 219.619695 278.26414 
L 218.619695 278.334721 
L 217.619695 278.371111 
L 216.619695 278.429515 
L 215.619695 278.540467 
L 214.619695 278.611126 
L 213.619695 278.724065 
L 212.619695 278.769838 
L 211.619695 278.831122 
L 210.619695 278.879621 
L 209.619695 278.960444 
L 208.619695 279.078962 
L 207.619695 279.149173 
L 206.619695 279.232436 
L 205.619695 279.265577 
L 204.619695 279.316815 
L 203.619695 279.385213 
L 202.619695 279.451428 
L 201.619695 279.528345 
L 200.299442 279.555661 
" clip-path="url(#pbf68e78f71)" style="fill: none; stroke: #ff7f0e; stroke-opacity: 0.5; stroke-width: 0.2; stroke-linecap: square"/>
   <path d="M 256.619695 25.115849 
L 255.619695 25.084412 
L 254.619695 25.047472 
L 253.619695 24.949726 
L 252.619695 24.917204 
L 251.619695 24.843579 
L 250.619695 24.805014 
L 249.619695 24.7696 
L 248.619695 24.711961 
L 247.619695 24.641574 
L 246.619695 24.58961 
L 245.619695 24.53052 
L 244.619695 24.442199 
L 243.619695 24.396055 
L 242.619695 24.353644 
L 241.619695 24.323152 
L 240.619695 24.297107 
L 239.619695 24.275906 
L 238.619695 24.221605 
L 237.619695 24.193668 
L 236.619695 24.163944 
L 235.619695 24.138549 
L 234.619695 24.127349 
L 233.619695 24.117225 
L 232.619695 24.117429 
L 231.619695 24.126939 
L 230.619695 24.138592 
L 229.619695 24.169622 
L 228.619695 24.18079 
L 227.619695 24.210907 
L 226.619695 24.270684 
L 225.619695 24.307876 
L 224.619695 24.346972 
L 223.619695 24.389411 
L 222.619695 24.422176 
L 221.619695 24.489603 
L 220.619695 24.528729 
L 219.619695 24.571403 
L 218.619695 24.641984 
L 217.619695 24.678375 
L 216.619695 24.736778 
L 215.619695 24.847731 
L 214.619695 24.918389 
L 213.619695 25.031329 
L 212.619695 25.077102 
L 211.619695 25.138385 
L 210.619695 25.186884 
L 209.619695 25.267707 
L 208.619695 25.386226 
L 207.619695 25.456436 
L 206.619695 25.539699 
L 205.619695 25.572841 
L 204.619695 25.624078 
L 203.619695 25.692476 
L 202.619695 25.758692 
L 201.619695 25.835609 
L 200.299442 25.862924 
" clip-path="url(#pbf68e78f71)" style="fill: none; stroke: #ff7f0e; stroke-opacity: 0.5; stroke-width: 0.2; stroke-linecap: square"/>
   <path d="M 256.619695 64.212285 
L 255.619695 64.180848 
L 254.619695 64.143908 
L 253.619695 64.046161 
L 252.619695 64.01364 
L 251.619695 63.940015 
L 250.619695 63.90145 
L 249.619695 63.866036 
L 248.619695 63.808396 
L 247.619695 63.73801 
L 246.619695 63.686046 
L 245.619695 63.626956 
L 244.619695 63.538635 
L 243.619695 63.492491 
L 242.619695 63.45008 
L 241.619695 63.419587 
L 240.619695 63.393542 
L 239.619695 63.372342 
L 238.619695 63.318041 
L 237.619695 63.290104 
L 236.619695 63.26038 
L 235.619695 63.234985 
L 234.619695 63.223785 
L 233.619695 63.213661 
L 232.619695 63.213865 
L 231.619695 63.223375 
L 230.619695 63.235028 
L 229.619695 63.266058 
L 228.619695 63.277226 
L 227.619695 63.307343 
L 226.619695 63.36712 
L 225.619695 63.404312 
L 224.619695 63.443408 
L 223.619695 63.485847 
L 222.619695 63.518612 
L 221.619695 63.586039 
L 220.619695 63.625165 
L 219.619695 63.667839 
L 218.619695 63.73842 
L 217.619695 63.774811 
L 216.619695 63.833214 
L 215.619695 63.944167 
L 214.619695 64.014825 
L 213.619695 64.127765 
L 212.619695 64.173538 
L 211.619695 64.234821 
L 210.619695 64.28332 
L 209.619695 64.364143 
L 208.619695 64.482662 
L 207.619695 64.552872 
L 206.619695 64.636135 
L 205.619695 64.669277 
L 204.619695 64.720514 
L 203.619695 64.788912 
L 202.619695 64.855128 
L 201.619695 64.932045 
L 200.299442 64.95936 
" clip-path="url(#pbf68e78f71)" style="fill: none; stroke: #ff7f0e; stroke-opacity: 0.5; stroke-width: 0.2; stroke-linecap: square"/>
   <path d="M 256.619695 83.023973 
L 255.619695 82.992537 
L 254.619695 82.955596 
L 253.619695 82.85785 
L 252.619695 82.825328 
L 251.619695 82.751703 
L 250.619695 82.713138 
L 249.619695 82.677725 
L 248.619695 82.620085 
L 247.619695 82.549698 
L 246.619695 82.497734 
L 245.619695 82.438645 
L 244.619695 82.350324 
L 243.619695 82.304179 
L 242.619695 82.261768 
L 241.619695 82.231276 
L 240.619695 82.205231 
L 239.619695 82.184031 
L 238.619695 82.129729 
L 237.619695 82.101792 
L 236.619695 82.072068 
L 235.619695 82.046673 
L 234.619695 82.035473 
L 233.619695 82.025349 
L 232.619695 82.025553 
L 231.619695 82.035063 
L 230.619695 82.046717 
L 229.619695 82.077746 
L 228.619695 82.088914 
L 227.619695 82.119031 
L 226.619695 82.178808 
L 225.619695 82.216 
L 224.619695 82.255096 
L 223.619695 82.297536 
L 222.619695 82.330301 
L 221.619695 82.397727 
L 220.619695 82.436853 
L 219.619695 82.479527 
L 218.619695 82.550108 
L 217.619695 82.586499 
L 216.619695 82.644902 
L 215.619695 82.755855 
L 214.619695 82.826513 
L 213.619695 82.939453 
L 212.619695 82.985226 
L 211.619695 83.046509 
L 210.619695 83.095008 
L 209.619695 83.175831 
L 208.619695 83.29435 
L 207.619695 83.364561 
L 206.619695 83.447823 
L 205.619695 83.480965 
L 204.619695 83.532202 
L 203.619695 83.6006 
L 202.619695 83.666816 
L 201.619695 83.743733 
L 200.299442 83.771048 
" clip-path="url(#pbf68e78f71)" style="fill: none; stroke: #ff7f0e; stroke-opacity: 0.5; stroke-width: 0.2; stroke-linecap: square"/>
   <path d="M 256.619695 27.587525 
L 255.619695 27.556089 
L 254.619695 27.519149 
L 253.619695 27.421402 
L 252.619695 27.38888 
L 251.619695 27.315256 
L 250.619695 27.27669 
L 249.619695 27.241277 
L 248.619695 27.183637 
L 247.619695 27.113251 
L 246.619695 27.061287 
L 245.619695 27.002197 
L 244.619695 26.913876 
L 243.619695 26.867732 
L 242.619695 26.825321 
L 241.619695 26.794828 
L 240.619695 26.768783 
L 239.619695 26.747583 
L 238.619695 26.693282 
L 237.619695 26.665344 
L 236.619695 26.63562 
L 235.619695 26.610226 
L 234.619695 26.599025 
L 233.619695 26.588901 
L 232.619695 26.589105 
L 231.619695 26.598615 
L 230.619695 26.610269 
L 229.619695 26.641298 
L 228.619695 26.652466 
L 227.619695 26.682584 
L 226.619695 26.742361 
L 225.619695 26.779552 
L 224.619695 26.818648 
L 223.619695 26.861088 
L 222.619695 26.893853 
L 221.619695 26.961279 
L 220.619695 27.000405 
L 219.619695 27.04308 
L 218.619695 27.11366 
L 217.619695 27.150051 
L 216.619695 27.208454 
L 215.619695 27.319407 
L 214.619695 27.390065 
L 213.619695 27.503005 
L 212.619695 27.548778 
L 211.619695 27.610061 
L 210.619695 27.658561 
L 209.619695 27.739383 
L 208.619695 27.857902 
L 207.619695 27.928113 
L 206.619695 28.011375 
L 205.619695 28.044517 
L 204.619695 28.095754 
L 203.619695 28.164153 
L 202.619695 28.230368 
L 201.619695 28.307285 
L 200.299442 28.334601 
" clip-path="url(#pbf68e78f71)" style="fill: none; stroke: #ff7f0e; stroke-opacity: 0.5; stroke-width: 0.2; stroke-linecap: square"/>
   <path d="M 390.34593 81.903723 
L 391.34593 81.935159 
L 392.34593 81.9721 
L 393.34593 82.069846 
L 394.34593 82.102368 
L 395.34593 82.175992 
L 396.34593 82.214558 
L 397.34593 82.249971 
L 398.34593 82.307611 
L 399.34593 82.377997 
L 400.34593 82.429961 
L 401.34593 82.489051 
L 402.34593 82.577372 
L 403.34593 82.623516 
L 404.34593 82.665927 
L 405.34593 82.69642 
L 406.34593 82.722465 
L 407.34593 82.743665 
L 408.34593 82.797966 
L 409.34593 82.825904 
L 410.34593 82.855628 
L 411.34593 82.881023 
L 412.34593 82.892223 
L 413.34593 82.902347 
L 414.34593 82.902143 
L 415.34593 82.892633 
L 416.34593 82.880979 
L 417.34593 82.84995 
L 418.34593 82.838782 
L 419.34593 82.808664 
L 420.34593 82.748888 
L 421.34593 82.711696 
L 422.34593 82.6726 
L 423.34593 82.63016 
L 424.34593 82.597395 
L 425.34593 82.529969 
L 426.34593 82.490843 
L 427.34593 82.448168 
L 428.34593 82.377588 
L 429.34593 82.341197 
L 430.34593 82.282794 
L 431.34593 82.171841 
L 432.34593 82.101183 
L 433.34593 81.988243 
L 434.34593 81.94247 
L 435.34593 81.881187 
L 436.34593 81.832687 
L 437.34593 81.751865 
L 438.34593 81.633346 
L 439.34593 81.563135 
L 440.34593 81.479873 
L 441.34593 81.446731 
L 442.34593 81.395494 
L 443.34593 81.327095 
L 444.34593 81.26088 
L 445.34593 81.183963 
L 446.666183 81.156647 
" clip-path="url(#pbf68e78f71)" style="fill: none; stroke: #ff7f0e; stroke-opacity: 0.5; stroke-width: 0.2; stroke-linecap: square"/>
   <path d="M 390.34593 50.377817 
L 391.34593 50.409253 
L 392.34593 50.446194 
L 393.34593 50.54394 
L 394.34593 50.576462 
L 395.34593 50.650086 
L 396.34593 50.688652 
L 397.34593 50.724065 
L 398.34593 50.781705 
L 399.34593 50.852091 
L 400.34593 50.904056 
L 401.34593 50.963145 
L 402.34593 51.051466 
L 403.34593 51.097611 
L 404.34593 51.140021 
L 405.34593 51.170514 
L 406.34593 51.196559 
L 407.34593 51.217759 
L 408.34593 51.27206 
L 409.34593 51.299998 
L 410.34593 51.329722 
L 411.34593 51.355117 
L 412.34593 51.366317 
L 413.34593 51.376441 
L 414.34593 51.376237 
L 415.34593 51.366727 
L 416.34593 51.355073 
L 417.34593 51.324044 
L 418.34593 51.312876 
L 419.34593 51.282758 
L 420.34593 51.222982 
L 421.34593 51.18579 
L 422.34593 51.146694 
L 423.34593 51.104254 
L 424.34593 51.071489 
L 425.34593 51.004063 
L 426.34593 50.964937 
L 427.34593 50.922262 
L 428.34593 50.851682 
L 429.34593 50.815291 
L 430.34593 50.756888 
L 431.34593 50.645935 
L 432.34593 50.575277 
L 433.34593 50.462337 
L 434.34593 50.416564 
L 435.34593 50.355281 
L 436.34593 50.306781 
L 437.34593 50.225959 
L 438.34593 50.10744 
L 439.34593 50.037229 
L 440.34593 49.953967 
L 441.34593 49.920825 
L 442.34593 49.869588 
L 443.34593 49.801189 
L 444.34593 49.734974 
L 445.34593 49.658057 
L 446.666183 49.630741 
" clip-path="url(#pbf68e78f71)" style="fill: none; stroke: #ff7f0e; stroke-opacity: 0.5; stroke-width: 0.2; stroke-linecap: square"/>
   <path d="M 390.34593 223.863851 
L 391.34593 223.895287 
L 392.34593 223.932227 
L 393.34593 224.029974 
L 394.34593 224.062495 
L 395.34593 224.13612 
L 396.34593 224.174686 
L 397.34593 224.210099 
L 398.34593 224.267739 
L 399.34593 224.338125 
L 400.34593 224.390089 
L 401.34593 224.449179 
L 402.34593 224.5375 
L 403.34593 224.583644 
L 404.34593 224.626055 
L 405.34593 224.656548 
L 406.34593 224.682593 
L 407.34593 224.703793 
L 408.34593 224.758094 
L 409.34593 224.786032 
L 410.34593 224.815756 
L 411.34593 224.84115 
L 412.34593 224.852351 
L 413.34593 224.862475 
L 414.34593 224.86227 
L 415.34593 224.852761 
L 416.34593 224.841107 
L 417.34593 224.810078 
L 418.34593 224.79891 
L 419.34593 224.768792 
L 420.34593 224.709015 
L 421.34593 224.671824 
L 422.34593 224.632728 
L 423.34593 224.590288 
L 424.34593 224.557523 
L 425.34593 224.490096 
L 426.34593 224.450971 
L 427.34593 224.408296 
L 428.34593 224.337715 
L 429.34593 224.301325 
L 430.34593 224.242921 
L 431.34593 224.131969 
L 432.34593 224.06131 
L 433.34593 223.948371 
L 434.34593 223.902598 
L 435.34593 223.841315 
L 436.34593 223.792815 
L 437.34593 223.711993 
L 438.34593 223.593474 
L 439.34593 223.523263 
L 440.34593 223.44 
L 441.34593 223.406859 
L 442.34593 223.355621 
L 443.34593 223.287223 
L 444.34593 223.221008 
L 445.34593 223.144091 
L 446.666183 223.116775 
" clip-path="url(#pbf68e78f71)" style="fill: none; stroke: #ff7f0e; stroke-opacity: 0.5; stroke-width: 0.2; stroke-linecap: square"/>
   <path d="M 390.34593 122.360149 
L 391.34593 122.391585 
L 392.34593 122.428525 
L 393.34593 122.526272 
L 394.34593 122.558793 
L 395.34593 122.632418 
L 396.34593 122.670984 
L 397.34593 122.706397 
L 398.34593 122.764037 
L 399.34593 122.834423 
L 400.34593 122.886387 
L 401.34593 122.945477 
L 402.34593 123.033798 
L 403.34593 123.079942 
L 404.34593 123.122353 
L 405.34593 123.152846 
L 406.34593 123.178891 
L 407.34593 123.200091 
L 408.34593 123.254392 
L 409.34593 123.28233 
L 410.34593 123.312054 
L 411.34593 123.337448 
L 412.34593 123.348649 
L 413.34593 123.358773 
L 414.34593 123.358568 
L 415.34593 123.349058 
L 416.34593 123.337405 
L 417.34593 123.306376 
L 418.34593 123.295208 
L 419.34593 123.26509 
L 420.34593 123.205313 
L 421.34593 123.168122 
L 422.34593 123.129026 
L 423.34593 123.086586 
L 424.34593 123.053821 
L 425.34593 122.986394 
L 426.34593 122.947268 
L 427.34593 122.904594 
L 428.34593 122.834013 
L 429.34593 122.797622 
L 430.34593 122.739219 
L 431.34593 122.628267 
L 432.34593 122.557608 
L 433.34593 122.444669 
L 434.34593 122.398896 
L 435.34593 122.337612 
L 436.34593 122.289113 
L 437.34593 122.20829 
L 438.34593 122.089772 
L 439.34593 122.019561 
L 440.34593 121.936298 
L 441.34593 121.903157 
L 442.34593 121.851919 
L 443.34593 121.783521 
L 444.34593 121.717306 
L 445.34593 121.640388 
L 446.666183 121.613073 
" clip-path="url(#pbf68e78f71)" style="fill: none; stroke: #ff7f0e; stroke-opacity: 0.5; stroke-width: 0.2; stroke-linecap: square"/>
   <path d="M 390.34593 127.778007 
L 391.34593 127.809444 
L 392.34593 127.846384 
L 393.34593 127.944131 
L 394.34593 127.976652 
L 395.34593 128.050277 
L 396.34593 128.088842 
L 397.34593 128.124256 
L 398.34593 128.181896 
L 399.34593 128.252282 
L 400.34593 128.304246 
L 401.34593 128.363336 
L 402.34593 128.451657 
L 403.34593 128.497801 
L 404.34593 128.540212 
L 405.34593 128.570705 
L 406.34593 128.59675 
L 407.34593 128.61795 
L 408.34593 128.672251 
L 409.34593 128.700188 
L 410.34593 128.729912 
L 411.34593 128.755307 
L 412.34593 128.766508 
L 413.34593 128.776631 
L 414.34593 128.776427 
L 415.34593 128.766917 
L 416.34593 128.755264 
L 417.34593 128.724234 
L 418.34593 128.713067 
L 419.34593 128.682949 
L 420.34593 128.623172 
L 421.34593 128.58598 
L 422.34593 128.546884 
L 423.34593 128.504445 
L 424.34593 128.47168 
L 425.34593 128.404253 
L 426.34593 128.365127 
L 427.34593 128.322453 
L 428.34593 128.251872 
L 429.34593 128.215481 
L 430.34593 128.157078 
L 431.34593 128.046126 
L 432.34593 127.975467 
L 433.34593 127.862527 
L 434.34593 127.816754 
L 435.34593 127.755471 
L 436.34593 127.706972 
L 437.34593 127.626149 
L 438.34593 127.50763 
L 439.34593 127.43742 
L 440.34593 127.354157 
L 441.34593 127.321015 
L 442.34593 127.269778 
L 443.34593 127.20138 
L 444.34593 127.135164 
L 445.34593 127.058247 
L 446.666183 127.030932 
" clip-path="url(#pbf68e78f71)" style="fill: none; stroke: #ff7f0e; stroke-opacity: 0.5; stroke-width: 0.2; stroke-linecap: square"/>
   <path d="M 390.34593 40.907361 
L 391.34593 40.938797 
L 392.34593 40.975737 
L 393.34593 41.073484 
L 394.34593 41.106006 
L 395.34593 41.17963 
L 396.34593 41.218196 
L 397.34593 41.253609 
L 398.34593 41.311249 
L 399.34593 41.381635 
L 400.34593 41.433599 
L 401.34593 41.492689 
L 402.34593 41.58101 
L 403.34593 41.627154 
L 404.34593 41.669565 
L 405.34593 41.700058 
L 406.34593 41.726103 
L 407.34593 41.747303 
L 408.34593 41.801604 
L 409.34593 41.829542 
L 410.34593 41.859266 
L 411.34593 41.88466 
L 412.34593 41.895861 
L 413.34593 41.905985 
L 414.34593 41.90578 
L 415.34593 41.896271 
L 416.34593 41.884617 
L 417.34593 41.853588 
L 418.34593 41.84242 
L 419.34593 41.812302 
L 420.34593 41.752525 
L 421.34593 41.715334 
L 422.34593 41.676238 
L 423.34593 41.633798 
L 424.34593 41.601033 
L 425.34593 41.533607 
L 426.34593 41.494481 
L 427.34593 41.451806 
L 428.34593 41.381225 
L 429.34593 41.344835 
L 430.34593 41.286431 
L 431.34593 41.175479 
L 432.34593 41.104821 
L 433.34593 40.991881 
L 434.34593 40.946108 
L 435.34593 40.884825 
L 436.34593 40.836325 
L 437.34593 40.755503 
L 438.34593 40.636984 
L 439.34593 40.566773 
L 440.34593 40.483511 
L 441.34593 40.450369 
L 442.34593 40.399131 
L 443.34593 40.330733 
L 444.34593 40.264518 
L 445.34593 40.187601 
L 446.666183 40.160285 
" clip-path="url(#pbf68e78f71)" style="fill: none; stroke: #ff7f0e; stroke-opacity: 0.5; stroke-width: 0.2; stroke-linecap: square"/>
   <path d="M 390.34593 52.148443 
L 391.34593 52.17988 
L 392.34593 52.21682 
L 393.34593 52.314567 
L 394.34593 52.347088 
L 395.34593 52.420713 
L 396.34593 52.459279 
L 397.34593 52.494692 
L 398.34593 52.552332 
L 399.34593 52.622718 
L 400.34593 52.674682 
L 401.34593 52.733772 
L 402.34593 52.822093 
L 403.34593 52.868237 
L 404.34593 52.910648 
L 405.34593 52.941141 
L 406.34593 52.967186 
L 407.34593 52.988386 
L 408.34593 53.042687 
L 409.34593 53.070624 
L 410.34593 53.100348 
L 411.34593 53.125743 
L 412.34593 53.136944 
L 413.34593 53.147068 
L 414.34593 53.146863 
L 415.34593 53.137353 
L 416.34593 53.1257 
L 417.34593 53.09467 
L 418.34593 53.083503 
L 419.34593 53.053385 
L 420.34593 52.993608 
L 421.34593 52.956417 
L 422.34593 52.91732 
L 423.34593 52.874881 
L 424.34593 52.842116 
L 425.34593 52.774689 
L 426.34593 52.735563 
L 427.34593 52.692889 
L 428.34593 52.622308 
L 429.34593 52.585917 
L 430.34593 52.527514 
L 431.34593 52.416562 
L 432.34593 52.345903 
L 433.34593 52.232963 
L 434.34593 52.187191 
L 435.34593 52.125907 
L 436.34593 52.077408 
L 437.34593 51.996585 
L 438.34593 51.878066 
L 439.34593 51.807856 
L 440.34593 51.724593 
L 441.34593 51.691452 
L 442.34593 51.640214 
L 443.34593 51.571816 
L 444.34593 51.5056 
L 445.34593 51.428683 
L 446.666183 51.401368 
" clip-path="url(#pbf68e78f71)" style="fill: none; stroke: #ff7f0e; stroke-opacity: 0.5; stroke-width: 0.2; stroke-linecap: square"/>
   <path d="M 390.34593 304.645595 
L 391.34593 304.677031 
L 392.34593 304.713971 
L 393.34593 304.811718 
L 394.34593 304.84424 
L 395.34593 304.917864 
L 396.34593 304.95643 
L 397.34593 304.991843 
L 398.34593 305.049483 
L 399.34593 305.119869 
L 400.34593 305.171833 
L 401.34593 305.230923 
L 402.34593 305.319244 
L 403.34593 305.365388 
L 404.34593 305.407799 
L 405.34593 305.438292 
L 406.34593 305.464337 
L 407.34593 305.485537 
L 408.34593 305.539838 
L 409.34593 305.567776 
L 410.34593 305.5975 
L 411.34593 305.622894 
L 412.34593 305.634095 
L 413.34593 305.644219 
L 414.34593 305.644015 
L 415.34593 305.634505 
L 416.34593 305.622851 
L 417.34593 305.591822 
L 418.34593 305.580654 
L 419.34593 305.550536 
L 420.34593 305.490759 
L 421.34593 305.453568 
L 422.34593 305.414472 
L 423.34593 305.372032 
L 424.34593 305.339267 
L 425.34593 305.271841 
L 426.34593 305.232715 
L 427.34593 305.19004 
L 428.34593 305.11946 
L 429.34593 305.083069 
L 430.34593 305.024665 
L 431.34593 304.913713 
L 432.34593 304.843055 
L 433.34593 304.730115 
L 434.34593 304.684342 
L 435.34593 304.623059 
L 436.34593 304.574559 
L 437.34593 304.493737 
L 438.34593 304.375218 
L 439.34593 304.305007 
L 440.34593 304.221745 
L 441.34593 304.188603 
L 442.34593 304.137366 
L 443.34593 304.068967 
L 444.34593 304.002752 
L 445.34593 303.925835 
L 446.666183 303.898519 
" clip-path="url(#pbf68e78f71)" style="fill: none; stroke: #ff7f0e; stroke-opacity: 0.5; stroke-width: 0.2; stroke-linecap: square"/>
   <path d="M 390.34593 114.035567 
L 391.34593 114.067004 
L 392.34593 114.103944 
L 393.34593 114.201691 
L 394.34593 114.234212 
L 395.34593 114.307837 
L 396.34593 114.346403 
L 397.34593 114.381816 
L 398.34593 114.439456 
L 399.34593 114.509842 
L 400.34593 114.561806 
L 401.34593 114.620896 
L 402.34593 114.709217 
L 403.34593 114.755361 
L 404.34593 114.797772 
L 405.34593 114.828265 
L 406.34593 114.85431 
L 407.34593 114.87551 
L 408.34593 114.929811 
L 409.34593 114.957748 
L 410.34593 114.987472 
L 411.34593 115.012867 
L 412.34593 115.024068 
L 413.34593 115.034192 
L 414.34593 115.033987 
L 415.34593 115.024477 
L 416.34593 115.012824 
L 417.34593 114.981795 
L 418.34593 114.970627 
L 419.34593 114.940509 
L 420.34593 114.880732 
L 421.34593 114.843541 
L 422.34593 114.804445 
L 423.34593 114.762005 
L 424.34593 114.72924 
L 425.34593 114.661813 
L 426.34593 114.622687 
L 427.34593 114.580013 
L 428.34593 114.509432 
L 429.34593 114.473041 
L 430.34593 114.414638 
L 431.34593 114.303686 
L 432.34593 114.233027 
L 433.34593 114.120087 
L 434.34593 114.074315 
L 435.34593 114.013031 
L 436.34593 113.964532 
L 437.34593 113.883709 
L 438.34593 113.76519 
L 439.34593 113.69498 
L 440.34593 113.611717 
L 441.34593 113.578576 
L 442.34593 113.527338 
L 443.34593 113.45894 
L 444.34593 113.392724 
L 445.34593 113.315807 
L 446.666183 113.288492 
" clip-path="url(#pbf68e78f71)" style="fill: none; stroke: #ff7f0e; stroke-opacity: 0.5; stroke-width: 0.2; stroke-linecap: square"/>
   <path d="M 390.34593 273.609914 
L 391.34593 273.64135 
L 392.34593 273.678291 
L 393.34593 273.776037 
L 394.34593 273.808559 
L 395.34593 273.882183 
L 396.34593 273.920749 
L 397.34593 273.956162 
L 398.34593 274.013802 
L 399.34593 274.084188 
L 400.34593 274.136153 
L 401.34593 274.195242 
L 402.34593 274.283563 
L 403.34593 274.329708 
L 404.34593 274.372119 
L 405.34593 274.402611 
L 406.34593 274.428656 
L 407.34593 274.449856 
L 408.34593 274.504157 
L 409.34593 274.532095 
L 410.34593 274.561819 
L 411.34593 274.587214 
L 412.34593 274.598414 
L 413.34593 274.608538 
L 414.34593 274.608334 
L 415.34593 274.598824 
L 416.34593 274.58717 
L 417.34593 274.556141 
L 418.34593 274.544973 
L 419.34593 274.514856 
L 420.34593 274.455079 
L 421.34593 274.417887 
L 422.34593 274.378791 
L 423.34593 274.336351 
L 424.34593 274.303586 
L 425.34593 274.23616 
L 426.34593 274.197034 
L 427.34593 274.154359 
L 428.34593 274.083779 
L 429.34593 274.047388 
L 430.34593 273.988985 
L 431.34593 273.878032 
L 432.34593 273.807374 
L 433.34593 273.694434 
L 434.34593 273.648661 
L 435.34593 273.587378 
L 436.34593 273.538878 
L 437.34593 273.458056 
L 438.34593 273.339537 
L 439.34593 273.269326 
L 440.34593 273.186064 
L 441.34593 273.152922 
L 442.34593 273.101685 
L 443.34593 273.033286 
L 444.34593 272.967071 
L 445.34593 272.890154 
L 446.666183 272.862838 
" clip-path="url(#pbf68e78f71)" style="fill: none; stroke: #ff7f0e; stroke-opacity: 0.5; stroke-width: 0.2; stroke-linecap: square"/>
   <path d="M 446.666183 92.904942 
L 445.666183 92.873506 
L 444.666183 92.836565 
L 443.666183 92.738819 
L 442.666183 92.706297 
L 441.666183 92.632672 
L 440.666183 92.594107 
L 439.666183 92.558694 
L 438.666183 92.501054 
L 437.666183 92.430668 
L 436.666183 92.378703 
L 435.666183 92.319614 
L 434.666183 92.231293 
L 433.666183 92.185148 
L 432.666183 92.142737 
L 431.666183 92.112245 
L 430.666183 92.0862 
L 429.666183 92.065 
L 428.666183 92.010699 
L 427.666183 91.982761 
L 426.666183 91.953037 
L 425.666183 91.927642 
L 424.666183 91.916442 
L 423.666183 91.906318 
L 422.666183 91.906522 
L 421.666183 91.916032 
L 420.666183 91.927686 
L 419.666183 91.958715 
L 418.666183 91.969883 
L 417.666183 92 
L 416.666183 92.059777 
L 415.666183 92.096969 
L 414.666183 92.136065 
L 413.666183 92.178505 
L 412.666183 92.21127 
L 411.666183 92.278696 
L 410.666183 92.317822 
L 409.666183 92.360497 
L 408.666183 92.431077 
L 407.666183 92.467468 
L 406.666183 92.525871 
L 405.666183 92.636824 
L 404.666183 92.707482 
L 403.666183 92.820422 
L 402.666183 92.866195 
L 401.666183 92.927478 
L 400.666183 92.975977 
L 399.666183 93.0568 
L 398.666183 93.175319 
L 397.666183 93.24553 
L 396.666183 93.328792 
L 395.666183 93.361934 
L 394.666183 93.413171 
L 393.666183 93.48157 
L 392.666183 93.547785 
L 391.666183 93.624702 
L 390.34593 93.652018 
" clip-path="url(#pbf68e78f71)" style="fill: none; stroke: #2ca02c; stroke-opacity: 0.5; stroke-width: 0.2; stroke-linecap: square"/>
   <path d="M 446.666183 249.43268 
L 445.666183 249.401243 
L 444.666183 249.364303 
L 443.666183 249.266556 
L 442.666183 249.234035 
L 441.666183 249.16041 
L 440.666183 249.121845 
L 439.666183 249.086431 
L 438.666183 249.028791 
L 437.666183 248.958405 
L 436.666183 248.906441 
L 435.666183 248.847351 
L 434.666183 248.75903 
L 433.666183 248.712886 
L 432.666183 248.670475 
L 431.666183 248.639982 
L 430.666183 248.613937 
L 429.666183 248.592737 
L 428.666183 248.538436 
L 427.666183 248.510499 
L 426.666183 248.480775 
L 425.666183 248.45538 
L 424.666183 248.44418 
L 423.666183 248.434056 
L 422.666183 248.43426 
L 421.666183 248.44377 
L 420.666183 248.455423 
L 419.666183 248.486453 
L 418.666183 248.497621 
L 417.666183 248.527738 
L 416.666183 248.587515 
L 415.666183 248.624707 
L 414.666183 248.663803 
L 413.666183 248.706242 
L 412.666183 248.739007 
L 411.666183 248.806434 
L 410.666183 248.84556 
L 409.666183 248.888234 
L 408.666183 248.958815 
L 407.666183 248.995206 
L 406.666183 249.053609 
L 405.666183 249.164562 
L 404.666183 249.23522 
L 403.666183 249.34816 
L 402.666183 249.393933 
L 401.666183 249.455216 
L 400.666183 249.503715 
L 399.666183 249.584538 
L 398.666183 249.703057 
L 397.666183 249.773267 
L 396.666183 249.85653 
L 395.666183 249.889672 
L 394.666183 249.940909 
L 393.666183 250.009307 
L 392.666183 250.075523 
L 391.666183 250.15244 
L 390.34593 250.179755 
" clip-path="url(#pbf68e78f71)" style="fill: none; stroke: #2ca02c; stroke-opacity: 0.5; stroke-width: 0.2; stroke-linecap: square"/>
   <path d="M 446.666183 52.274968 
L 445.666183 52.243531 
L 444.666183 52.206591 
L 443.666183 52.108844 
L 442.666183 52.076323 
L 441.666183 52.002698 
L 440.666183 51.964133 
L 439.666183 51.928719 
L 438.666183 51.871079 
L 437.666183 51.800693 
L 436.666183 51.748729 
L 435.666183 51.689639 
L 434.666183 51.601318 
L 433.666183 51.555174 
L 432.666183 51.512763 
L 431.666183 51.48227 
L 430.666183 51.456225 
L 429.666183 51.435025 
L 428.666183 51.380724 
L 427.666183 51.352787 
L 426.666183 51.323063 
L 425.666183 51.297668 
L 424.666183 51.286467 
L 423.666183 51.276344 
L 422.666183 51.276548 
L 421.666183 51.286058 
L 420.666183 51.297711 
L 419.666183 51.328741 
L 418.666183 51.339908 
L 417.666183 51.370026 
L 416.666183 51.429803 
L 415.666183 51.466994 
L 414.666183 51.506091 
L 413.666183 51.54853 
L 412.666183 51.581295 
L 411.666183 51.648722 
L 410.666183 51.687848 
L 409.666183 51.730522 
L 408.666183 51.801103 
L 407.666183 51.837494 
L 406.666183 51.895897 
L 405.666183 52.006849 
L 404.666183 52.077508 
L 403.666183 52.190448 
L 402.666183 52.23622 
L 401.666183 52.297504 
L 400.666183 52.346003 
L 399.666183 52.426826 
L 398.666183 52.545345 
L 397.666183 52.615555 
L 396.666183 52.698818 
L 395.666183 52.73196 
L 394.666183 52.783197 
L 393.666183 52.851595 
L 392.666183 52.917811 
L 391.666183 52.994728 
L 390.34593 53.022043 
" clip-path="url(#pbf68e78f71)" style="fill: none; stroke: #2ca02c; stroke-opacity: 0.5; stroke-width: 0.2; stroke-linecap: square"/>
   <path d="M 446.666183 110.260613 
L 445.666183 110.229177 
L 444.666183 110.192236 
L 443.666183 110.09449 
L 442.666183 110.061968 
L 441.666183 109.988344 
L 440.666183 109.949778 
L 439.666183 109.914365 
L 438.666183 109.856725 
L 437.666183 109.786339 
L 436.666183 109.734375 
L 435.666183 109.675285 
L 434.666183 109.586964 
L 433.666183 109.54082 
L 432.666183 109.498409 
L 431.666183 109.467916 
L 430.666183 109.441871 
L 429.666183 109.420671 
L 428.666183 109.36637 
L 427.666183 109.338432 
L 426.666183 109.308708 
L 425.666183 109.283313 
L 424.666183 109.272113 
L 423.666183 109.261989 
L 422.666183 109.262193 
L 421.666183 109.271703 
L 420.666183 109.283357 
L 419.666183 109.314386 
L 418.666183 109.325554 
L 417.666183 109.355672 
L 416.666183 109.415449 
L 415.666183 109.45264 
L 414.666183 109.491736 
L 413.666183 109.534176 
L 412.666183 109.566941 
L 411.666183 109.634367 
L 410.666183 109.673493 
L 409.666183 109.716168 
L 408.666183 109.786748 
L 407.666183 109.823139 
L 406.666183 109.881542 
L 405.666183 109.992495 
L 404.666183 110.063153 
L 403.666183 110.176093 
L 402.666183 110.221866 
L 401.666183 110.283149 
L 400.666183 110.331649 
L 399.666183 110.412471 
L 398.666183 110.53099 
L 397.666183 110.601201 
L 396.666183 110.684463 
L 395.666183 110.717605 
L 394.666183 110.768842 
L 393.666183 110.837241 
L 392.666183 110.903456 
L 391.666183 110.980373 
L 390.34593 111.007689 
" clip-path="url(#pbf68e78f71)" style="fill: none; stroke: #2ca02c; stroke-opacity: 0.5; stroke-width: 0.2; stroke-linecap: square"/>
   <path d="M 446.666183 156.098256 
L 445.666183 156.06682 
L 444.666183 156.02988 
L 443.666183 155.932133 
L 442.666183 155.899611 
L 441.666183 155.825987 
L 440.666183 155.787421 
L 439.666183 155.752008 
L 438.666183 155.694368 
L 437.666183 155.623982 
L 436.666183 155.572018 
L 435.666183 155.512928 
L 434.666183 155.424607 
L 433.666183 155.378463 
L 432.666183 155.336052 
L 431.666183 155.305559 
L 430.666183 155.279514 
L 429.666183 155.258314 
L 428.666183 155.204013 
L 427.666183 155.176075 
L 426.666183 155.146351 
L 425.666183 155.120957 
L 424.666183 155.109756 
L 423.666183 155.099632 
L 422.666183 155.099837 
L 421.666183 155.109346 
L 420.666183 155.121 
L 419.666183 155.152029 
L 418.666183 155.163197 
L 417.666183 155.193315 
L 416.666183 155.253092 
L 415.666183 155.290283 
L 414.666183 155.329379 
L 413.666183 155.371819 
L 412.666183 155.404584 
L 411.666183 155.47201 
L 410.666183 155.511136 
L 409.666183 155.553811 
L 408.666183 155.624392 
L 407.666183 155.660782 
L 406.666183 155.719186 
L 405.666183 155.830138 
L 404.666183 155.900796 
L 403.666183 156.013736 
L 402.666183 156.059509 
L 401.666183 156.120792 
L 400.666183 156.169292 
L 399.666183 156.250114 
L 398.666183 156.368633 
L 397.666183 156.438844 
L 396.666183 156.522106 
L 395.666183 156.555248 
L 394.666183 156.606486 
L 393.666183 156.674884 
L 392.666183 156.741099 
L 391.666183 156.818016 
L 390.34593 156.845332 
" clip-path="url(#pbf68e78f71)" style="fill: none; stroke: #2ca02c; stroke-opacity: 0.5; stroke-width: 0.2; stroke-linecap: square"/>
   <path d="M 446.666183 98.149808 
L 445.666183 98.118371 
L 444.666183 98.081431 
L 443.666183 97.983684 
L 442.666183 97.951163 
L 441.666183 97.877538 
L 440.666183 97.838972 
L 439.666183 97.803559 
L 438.666183 97.745919 
L 437.666183 97.675533 
L 436.666183 97.623569 
L 435.666183 97.564479 
L 434.666183 97.476158 
L 433.666183 97.430014 
L 432.666183 97.387603 
L 431.666183 97.35711 
L 430.666183 97.331065 
L 429.666183 97.309865 
L 428.666183 97.255564 
L 427.666183 97.227627 
L 426.666183 97.197903 
L 425.666183 97.172508 
L 424.666183 97.161307 
L 423.666183 97.151184 
L 422.666183 97.151388 
L 421.666183 97.160898 
L 420.666183 97.172551 
L 419.666183 97.203581 
L 418.666183 97.214748 
L 417.666183 97.244866 
L 416.666183 97.304643 
L 415.666183 97.341834 
L 414.666183 97.380931 
L 413.666183 97.42337 
L 412.666183 97.456135 
L 411.666183 97.523562 
L 410.666183 97.562688 
L 409.666183 97.605362 
L 408.666183 97.675943 
L 407.666183 97.712334 
L 406.666183 97.770737 
L 405.666183 97.881689 
L 404.666183 97.952348 
L 403.666183 98.065288 
L 402.666183 98.11106 
L 401.666183 98.172344 
L 400.666183 98.220843 
L 399.666183 98.301666 
L 398.666183 98.420185 
L 397.666183 98.490395 
L 396.666183 98.573658 
L 395.666183 98.6068 
L 394.666183 98.658037 
L 393.666183 98.726435 
L 392.666183 98.792651 
L 391.666183 98.869568 
L 390.34593 98.896883 
" clip-path="url(#pbf68e78f71)" style="fill: none; stroke: #2ca02c; stroke-opacity: 0.5; stroke-width: 0.2; stroke-linecap: square"/>
   <path d="M 446.666183 146.679498 
L 445.666183 146.648062 
L 444.666183 146.611121 
L 443.666183 146.513375 
L 442.666183 146.480853 
L 441.666183 146.407228 
L 440.666183 146.368663 
L 439.666183 146.33325 
L 438.666183 146.27561 
L 437.666183 146.205224 
L 436.666183 146.153259 
L 435.666183 146.09417 
L 434.666183 146.005849 
L 433.666183 145.959704 
L 432.666183 145.917293 
L 431.666183 145.886801 
L 430.666183 145.860756 
L 429.666183 145.839556 
L 428.666183 145.785255 
L 427.666183 145.757317 
L 426.666183 145.727593 
L 425.666183 145.702198 
L 424.666183 145.690998 
L 423.666183 145.680874 
L 422.666183 145.681078 
L 421.666183 145.690588 
L 420.666183 145.702242 
L 419.666183 145.733271 
L 418.666183 145.744439 
L 417.666183 145.774556 
L 416.666183 145.834333 
L 415.666183 145.871525 
L 414.666183 145.910621 
L 413.666183 145.953061 
L 412.666183 145.985826 
L 411.666183 146.053252 
L 410.666183 146.092378 
L 409.666183 146.135053 
L 408.666183 146.205633 
L 407.666183 146.242024 
L 406.666183 146.300427 
L 405.666183 146.41138 
L 404.666183 146.482038 
L 403.666183 146.594978 
L 402.666183 146.640751 
L 401.666183 146.702034 
L 400.666183 146.750533 
L 399.666183 146.831356 
L 398.666183 146.949875 
L 397.666183 147.020086 
L 396.666183 147.103348 
L 395.666183 147.13649 
L 394.666183 147.187727 
L 393.666183 147.256126 
L 392.666183 147.322341 
L 391.666183 147.399258 
L 390.34593 147.426574 
" clip-path="url(#pbf68e78f71)" style="fill: none; stroke: #2ca02c; stroke-opacity: 0.5; stroke-width: 0.2; stroke-linecap: square"/>
   <path d="M 446.666183 135.141772 
L 445.666183 135.110336 
L 444.666183 135.073396 
L 443.666183 134.975649 
L 442.666183 134.943127 
L 441.666183 134.869503 
L 440.666183 134.830937 
L 439.666183 134.795524 
L 438.666183 134.737884 
L 437.666183 134.667498 
L 436.666183 134.615534 
L 435.666183 134.556444 
L 434.666183 134.468123 
L 433.666183 134.421979 
L 432.666183 134.379568 
L 431.666183 134.349075 
L 430.666183 134.32303 
L 429.666183 134.30183 
L 428.666183 134.247529 
L 427.666183 134.219591 
L 426.666183 134.189867 
L 425.666183 134.164473 
L 424.666183 134.153272 
L 423.666183 134.143148 
L 422.666183 134.143353 
L 421.666183 134.152862 
L 420.666183 134.164516 
L 419.666183 134.195545 
L 418.666183 134.206713 
L 417.666183 134.236831 
L 416.666183 134.296608 
L 415.666183 134.333799 
L 414.666183 134.372895 
L 413.666183 134.415335 
L 412.666183 134.4481 
L 411.666183 134.515526 
L 410.666183 134.554652 
L 409.666183 134.597327 
L 408.666183 134.667908 
L 407.666183 134.704298 
L 406.666183 134.762702 
L 405.666183 134.873654 
L 404.666183 134.944312 
L 403.666183 135.057252 
L 402.666183 135.103025 
L 401.666183 135.164308 
L 400.666183 135.212808 
L 399.666183 135.29363 
L 398.666183 135.412149 
L 397.666183 135.48236 
L 396.666183 135.565622 
L 395.666183 135.598764 
L 394.666183 135.650002 
L 393.666183 135.7184 
L 392.666183 135.784615 
L 391.666183 135.861532 
L 390.34593 135.888848 
" clip-path="url(#pbf68e78f71)" style="fill: none; stroke: #2ca02c; stroke-opacity: 0.5; stroke-width: 0.2; stroke-linecap: square"/>
   <path d="M 446.666183 244.609681 
L 445.666183 244.578245 
L 444.666183 244.541304 
L 443.666183 244.443558 
L 442.666183 244.411036 
L 441.666183 244.337411 
L 440.666183 244.298846 
L 439.666183 244.263433 
L 438.666183 244.205793 
L 437.666183 244.135406 
L 436.666183 244.083442 
L 435.666183 244.024352 
L 434.666183 243.936031 
L 433.666183 243.889887 
L 432.666183 243.847476 
L 431.666183 243.816984 
L 430.666183 243.790939 
L 429.666183 243.769739 
L 428.666183 243.715437 
L 427.666183 243.6875 
L 426.666183 243.657776 
L 425.666183 243.632381 
L 424.666183 243.621181 
L 423.666183 243.611057 
L 422.666183 243.611261 
L 421.666183 243.620771 
L 420.666183 243.632425 
L 419.666183 243.663454 
L 418.666183 243.674622 
L 417.666183 243.704739 
L 416.666183 243.764516 
L 415.666183 243.801708 
L 414.666183 243.840804 
L 413.666183 243.883243 
L 412.666183 243.916009 
L 411.666183 243.983435 
L 410.666183 244.022561 
L 409.666183 244.065235 
L 408.666183 244.135816 
L 407.666183 244.172207 
L 406.666183 244.23061 
L 405.666183 244.341563 
L 404.666183 244.412221 
L 403.666183 244.525161 
L 402.666183 244.570934 
L 401.666183 244.632217 
L 400.666183 244.680716 
L 399.666183 244.761539 
L 398.666183 244.880058 
L 397.666183 244.950269 
L 396.666183 245.033531 
L 395.666183 245.066673 
L 394.666183 245.11791 
L 393.666183 245.186308 
L 392.666183 245.252524 
L 391.666183 245.329441 
L 390.34593 245.356756 
" clip-path="url(#pbf68e78f71)" style="fill: none; stroke: #2ca02c; stroke-opacity: 0.5; stroke-width: 0.2; stroke-linecap: square"/>
   <path d="M 446.666183 72.252156 
L 445.666183 72.22072 
L 444.666183 72.18378 
L 443.666183 72.086033 
L 442.666183 72.053512 
L 441.666183 71.979887 
L 440.666183 71.941321 
L 439.666183 71.905908 
L 438.666183 71.848268 
L 437.666183 71.777882 
L 436.666183 71.725918 
L 435.666183 71.666828 
L 434.666183 71.578507 
L 433.666183 71.532363 
L 432.666183 71.489952 
L 431.666183 71.459459 
L 430.666183 71.433414 
L 429.666183 71.412214 
L 428.666183 71.357913 
L 427.666183 71.329975 
L 426.666183 71.300251 
L 425.666183 71.274857 
L 424.666183 71.263656 
L 423.666183 71.253532 
L 422.666183 71.253737 
L 421.666183 71.263246 
L 420.666183 71.2749 
L 419.666183 71.305929 
L 418.666183 71.317097 
L 417.666183 71.347215 
L 416.666183 71.406992 
L 415.666183 71.444183 
L 414.666183 71.483279 
L 413.666183 71.525719 
L 412.666183 71.558484 
L 411.666183 71.625911 
L 410.666183 71.665036 
L 409.666183 71.707711 
L 408.666183 71.778292 
L 407.666183 71.814682 
L 406.666183 71.873086 
L 405.666183 71.984038 
L 404.666183 72.054697 
L 403.666183 72.167636 
L 402.666183 72.213409 
L 401.666183 72.274692 
L 400.666183 72.323192 
L 399.666183 72.404014 
L 398.666183 72.522533 
L 397.666183 72.592744 
L 396.666183 72.676007 
L 395.666183 72.709148 
L 394.666183 72.760386 
L 393.666183 72.828784 
L 392.666183 72.894999 
L 391.666183 72.971916 
L 390.34593 72.999232 
" clip-path="url(#pbf68e78f71)" style="fill: none; stroke: #2ca02c; stroke-opacity: 0.5; stroke-width: 0.2; stroke-linecap: square"/>
   <g id="patch_3">
    <path d="M 72.103551 22.318125 
L 72.103551 318.021875 
M 194.769098 22.318125 
L 194.769098 318.021875 
" clip-path="url(#pbf68e78f71)" style="fill: none; stroke: #ffffff; stroke-width: 3; stroke-linejoin: miter"/>
    <path d="M 72.103551 22.318125 
L 72.103551 318.021875 
M 194.769098 22.318125 
L 194.769098 318.021875 
" clip-path="url(#pbf68e78f71)" style="fill: none; stroke: #1f77b4; stroke-linejoin: miter"/>
    <g id="PolyCollection_1">
     <path d="M 194.769098 22.318125 
L 72.103551 22.318125 
L 72.103551 318.021875 
L 194.769098 318.021875 
L 194.769098 318.021875 
L 194.769098 22.318125 
z
" clip-path="url(#pbf68e78f71)" style="fill: #1f77b4; fill-opacity: 0.5"/>
    </g>
    <g id="patch_4">
     <path d="M 262.150039 22.318125 
L 262.150039 318.021875 
M 384.815586 22.318125 
L 384.815586 318.021875 
" clip-path="url(#pbf68e78f71)" style="fill: none; stroke: #ffffff; stroke-width: 3; stroke-linejoin: miter"/>
     <path d="M 262.150039 22.318125 
L 262.150039 318.021875 
M 384.815586 22.318125 
L 384.815586 318.021875 
" clip-path="url(#pbf68e78f71)" style="fill: none; stroke: #ff7f0e; stroke-linejoin: miter"/>
     <g id="PolyCollection_2">
      <path d="M 384.815586 22.318125 
L 262.150039 22.318125 
L 262.150039 318.021875 
L 384.815586 318.021875 
L 384.815586 318.021875 
L 384.815586 22.318125 
z
" clip-path="url(#pbf68e78f71)" style="fill: #ff7f0e; fill-opacity: 0.5"/>
     </g>
     <g id="patch_5">
      <path d="M 452.196527 22.318125 
L 452.196527 318.021875 
M 574.862074 22.318125 
L 574.862074 318.021875 
" clip-path="url(#pbf68e78f71)" style="fill: none; stroke: #ffffff; stroke-width: 3; stroke-linejoin: miter"/>
      <path d="M 452.196527 22.318125 
L 452.196527 318.021875 
M 574.862074 22.318125 
L 574.862074 318.021875 
" clip-path="url(#pbf68e78f71)" style="fill: none; stroke: #2ca02c; stroke-linejoin: miter"/>
      <g id="PolyCollection_3">
       <path d="M 574.862074 22.318125 
L 452.196527 22.318125 
L 452.196527 318.021875 
L 574.862074 318.021875 
L 574.862074 318.021875 
L 574.862074 22.318125 
z
" clip-path="url(#pbf68e78f71)" style="fill: #2ca02c; fill-opacity: 0.5"/>
      </g>
      <g id="matplotlib.axis_1">
       <g id="xtick_1">
        <g id="line2d_1"/>
        <g id="text_1">
         <!-- deme1 -->
         <g transform="translate(116.057418 329.120312) scale(0.1 -0.1)">
          <defs>
           <path id="DejaVuSans-64" d="M 2906 2969 
L 2906 4863 
L 3481 4863 
L 3481 0 
L 2906 0 
L 2906 525 
Q 2725 213 2448 61 
Q 2172 -91 1784 -91 
Q 1150 -91 751 415 
Q 353 922 353 1747 
Q 353 2572 751 3078 
Q 1150 3584 1784 3584 
Q 2172 3584 2448 3432 
Q 2725 3281 2906 2969 
z
M 947 1747 
Q 947 1113 1208 752 
Q 1469 391 1925 391 
Q 2381 391 2643 752 
Q 2906 1113 2906 1747 
Q 2906 2381 2643 2742 
Q 2381 3103 1925 3103 
Q 1469 3103 1208 2742 
Q 947 2381 947 1747 
z
" transform="scale(0.015625)"/>
           <path id="DejaVuSans-65" d="M 3597 1894 
L 3597 1613 
L 953 1613 
Q 991 1019 1311 708 
Q 1631 397 2203 397 
Q 2534 397 2845 478 
Q 3156 559 3463 722 
L 3463 178 
Q 3153 47 2828 -22 
Q 2503 -91 2169 -91 
Q 1331 -91 842 396 
Q 353 884 353 1716 
Q 353 2575 817 3079 
Q 1281 3584 2069 3584 
Q 2775 3584 3186 3129 
Q 3597 2675 3597 1894 
z
M 3022 2063 
Q 3016 2534 2758 2815 
Q 2500 3097 2075 3097 
Q 1594 3097 1305 2825 
Q 1016 2553 972 2059 
L 3022 2063 
z
" transform="scale(0.015625)"/>
           <path id="DejaVuSans-6d" d="M 3328 2828 
Q 3544 3216 3844 3400 
Q 4144 3584 4550 3584 
Q 5097 3584 5394 3201 
Q 5691 2819 5691 2113 
L 5691 0 
L 5113 0 
L 5113 2094 
Q 5113 2597 4934 2840 
Q 4756 3084 4391 3084 
Q 3944 3084 3684 2787 
Q 3425 2491 3425 1978 
L 3425 0 
L 2847 0 
L 2847 2094 
Q 2847 2600 2669 2842 
Q 2491 3084 2119 3084 
Q 1678 3084 1418 2786 
Q 1159 2488 1159 1978 
L 1159 0 
L 581 0 
L 581 3500 
L 1159 3500 
L 1159 2956 
Q 1356 3278 1631 3431 
Q 1906 3584 2284 3584 
Q 2666 3584 2933 3390 
Q 3200 3197 3328 2828 
z
" transform="scale(0.015625)"/>
           <path id="DejaVuSans-31" d="M 794 531 
L 1825 531 
L 1825 4091 
L 703 3866 
L 703 4441 
L 1819 4666 
L 2450 4666 
L 2450 531 
L 3481 531 
L 3481 0 
L 794 0 
L 794 531 
z
" transform="scale(0.015625)"/>
          </defs>
          <use xlink:href="#DejaVuSans-64"/>
          <use xlink:href="#DejaVuSans-65" x="63.476562"/>
          <use xlink:href="#DejaVuSans-6d" x="125"/>
          <use xlink:href="#DejaVuSans-65" x="222.412109"/>
          <use xlink:href="#DejaVuSans-31" x="283.935547"/>
         </g>
        </g>
       </g>
       <g id="xtick_2">
        <g id="line2d_2"/>
        <g id="text_2">
         <!-- deme2 -->
         <g transform="translate(306.103906 329.120312) scale(0.1 -0.1)">
          <defs>
           <path id="DejaVuSans-32" d="M 1228 531 
L 3431 531 
L 3431 0 
L 469 0 
L 469 531 
Q 828 903 1448 1529 
Q 2069 2156 2228 2338 
Q 2531 2678 2651 2914 
Q 2772 3150 2772 3378 
Q 2772 3750 2511 3984 
Q 2250 4219 1831 4219 
Q 1534 4219 1204 4116 
Q 875 4013 500 3803 
L 500 4441 
Q 881 4594 1212 4672 
Q 1544 4750 1819 4750 
Q 2544 4750 2975 4387 
Q 3406 4025 3406 3419 
Q 3406 3131 3298 2873 
Q 3191 2616 2906 2266 
Q 2828 2175 2409 1742 
Q 1991 1309 1228 531 
z
" transform="scale(0.015625)"/>
          </defs>
          <use xlink:href="#DejaVuSans-64"/>
          <use xlink:href="#DejaVuSans-65" x="63.476562"/>
          <use xlink:href="#DejaVuSans-6d" x="125"/>
          <use xlink:href="#DejaVuSans-65" x="222.412109"/>
          <use xlink:href="#DejaVuSans-32" x="283.935547"/>
         </g>
        </g>
       </g>
       <g id="xtick_3">
        <g id="line2d_3"/>
        <g id="text_3">
         <!-- deme3 -->
         <g transform="translate(496.150394 329.120312) scale(0.1 -0.1)">
          <defs>
           <path id="DejaVuSans-33" d="M 2597 2516 
Q 3050 2419 3304 2112 
Q 3559 1806 3559 1356 
Q 3559 666 3084 287 
Q 2609 -91 1734 -91 
Q 1441 -91 1130 -33 
Q 819 25 488 141 
L 488 750 
Q 750 597 1062 519 
Q 1375 441 1716 441 
Q 2309 441 2620 675 
Q 2931 909 2931 1356 
Q 2931 1769 2642 2001 
Q 2353 2234 1838 2234 
L 1294 2234 
L 1294 2753 
L 1863 2753 
Q 2328 2753 2575 2939 
Q 2822 3125 2822 3475 
Q 2822 3834 2567 4026 
Q 2313 4219 1838 4219 
Q 1578 4219 1281 4162 
Q 984 4106 628 3988 
L 628 4550 
Q 988 4650 1302 4700 
Q 1616 4750 1894 4750 
Q 2613 4750 3031 4423 
Q 3450 4097 3450 3541 
Q 3450 3153 3228 2886 
Q 3006 2619 2597 2516 
z
" transform="scale(0.015625)"/>
          </defs>
          <use xlink:href="#DejaVuSans-64"/>
          <use xlink:href="#DejaVuSans-65" x="63.476562"/>
          <use xlink:href="#DejaVuSans-6d" x="125"/>
          <use xlink:href="#DejaVuSans-65" x="222.412109"/>
          <use xlink:href="#DejaVuSans-33" x="283.935547"/>
         </g>
        </g>
       </g>
      </g>
      <g id="matplotlib.axis_2">
       <g id="ytick_1">
        <g id="line2d_4">
         <defs>
          <path id="m54fe7f9a20" d="M 0 0 
L -3.5 0 
" style="stroke: #000000; stroke-width: 0.8"/>
         </defs>
         <g>
          <use xlink:href="#m54fe7f9a20" x="46.965625" y="318.021875" style="stroke: #000000; stroke-width: 0.8"/>
         </g>
        </g>
        <g id="text_4">
         <!-- 0 -->
         <g transform="translate(33.603125 321.821094) scale(0.1 -0.1)">
          <defs>
           <path id="DejaVuSans-30" d="M 2034 4250 
Q 1547 4250 1301 3770 
Q 1056 3291 1056 2328 
Q 1056 1369 1301 889 
Q 1547 409 2034 409 
Q 2525 409 2770 889 
Q 3016 1369 3016 2328 
Q 3016 3291 2770 3770 
Q 2525 4250 2034 4250 
z
M 2034 4750 
Q 2819 4750 3233 4129 
Q 3647 3509 3647 2328 
Q 3647 1150 3233 529 
Q 2819 -91 2034 -91 
Q 1250 -91 836 529 
Q 422 1150 422 2328 
Q 422 3509 836 4129 
Q 1250 4750 2034 4750 
z
" transform="scale(0.015625)"/>
          </defs>
          <use xlink:href="#DejaVuSans-30"/>
         </g>
        </g>
       </g>
       <g id="ytick_2">
        <g id="line2d_5">
         <g>
          <use xlink:href="#m54fe7f9a20" x="46.965625" y="265.684928" style="stroke: #000000; stroke-width: 0.8"/>
         </g>
        </g>
        <g id="text_5">
         <!-- 20 -->
         <g transform="translate(27.240625 269.484147) scale(0.1 -0.1)">
          <use xlink:href="#DejaVuSans-32"/>
          <use xlink:href="#DejaVuSans-30" x="63.623047"/>
         </g>
        </g>
       </g>
       <g id="ytick_3">
        <g id="line2d_6">
         <g>
          <use xlink:href="#m54fe7f9a20" x="46.965625" y="213.347981" style="stroke: #000000; stroke-width: 0.8"/>
         </g>
        </g>
        <g id="text_6">
         <!-- 40 -->
         <g transform="translate(27.240625 217.1472) scale(0.1 -0.1)">
          <defs>
           <path id="DejaVuSans-34" d="M 2419 4116 
L 825 1625 
L 2419 1625 
L 2419 4116 
z
M 2253 4666 
L 3047 4666 
L 3047 1625 
L 3713 1625 
L 3713 1100 
L 3047 1100 
L 3047 0 
L 2419 0 
L 2419 1100 
L 313 1100 
L 313 1709 
L 2253 4666 
z
" transform="scale(0.015625)"/>
          </defs>
          <use xlink:href="#DejaVuSans-34"/>
          <use xlink:href="#DejaVuSans-30" x="63.623047"/>
         </g>
        </g>
       </g>
       <g id="ytick_4">
        <g id="line2d_7">
         <g>
          <use xlink:href="#m54fe7f9a20" x="46.965625" y="161.011034" style="stroke: #000000; stroke-width: 0.8"/>
         </g>
        </g>
        <g id="text_7">
         <!-- 60 -->
         <g transform="translate(27.240625 164.810253) scale(0.1 -0.1)">
          <defs>
           <path id="DejaVuSans-36" d="M 2113 2584 
Q 1688 2584 1439 2293 
Q 1191 2003 1191 1497 
Q 1191 994 1439 701 
Q 1688 409 2113 409 
Q 2538 409 2786 701 
Q 3034 994 3034 1497 
Q 3034 2003 2786 2293 
Q 2538 2584 2113 2584 
z
M 3366 4563 
L 3366 3988 
Q 3128 4100 2886 4159 
Q 2644 4219 2406 4219 
Q 1781 4219 1451 3797 
Q 1122 3375 1075 2522 
Q 1259 2794 1537 2939 
Q 1816 3084 2150 3084 
Q 2853 3084 3261 2657 
Q 3669 2231 3669 1497 
Q 3669 778 3244 343 
Q 2819 -91 2113 -91 
Q 1303 -91 875 529 
Q 447 1150 447 2328 
Q 447 3434 972 4092 
Q 1497 4750 2381 4750 
Q 2619 4750 2861 4703 
Q 3103 4656 3366 4563 
z
" transform="scale(0.015625)"/>
          </defs>
          <use xlink:href="#DejaVuSans-36"/>
          <use xlink:href="#DejaVuSans-30" x="63.623047"/>
         </g>
        </g>
       </g>
       <g id="ytick_5">
        <g id="line2d_8">
         <g>
          <use xlink:href="#m54fe7f9a20" x="46.965625" y="108.674087" style="stroke: #000000; stroke-width: 0.8"/>
         </g>
        </g>
        <g id="text_8">
         <!-- 80 -->
         <g transform="translate(27.240625 112.473306) scale(0.1 -0.1)">
          <defs>
           <path id="DejaVuSans-38" d="M 2034 2216 
Q 1584 2216 1326 1975 
Q 1069 1734 1069 1313 
Q 1069 891 1326 650 
Q 1584 409 2034 409 
Q 2484 409 2743 651 
Q 3003 894 3003 1313 
Q 3003 1734 2745 1975 
Q 2488 2216 2034 2216 
z
M 1403 2484 
Q 997 2584 770 2862 
Q 544 3141 544 3541 
Q 544 4100 942 4425 
Q 1341 4750 2034 4750 
Q 2731 4750 3128 4425 
Q 3525 4100 3525 3541 
Q 3525 3141 3298 2862 
Q 3072 2584 2669 2484 
Q 3125 2378 3379 2068 
Q 3634 1759 3634 1313 
Q 3634 634 3220 271 
Q 2806 -91 2034 -91 
Q 1263 -91 848 271 
Q 434 634 434 1313 
Q 434 1759 690 2068 
Q 947 2378 1403 2484 
z
M 1172 3481 
Q 1172 3119 1398 2916 
Q 1625 2713 2034 2713 
Q 2441 2713 2670 2916 
Q 2900 3119 2900 3481 
Q 2900 3844 2670 4047 
Q 2441 4250 2034 4250 
Q 1625 4250 1398 4047 
Q 1172 3844 1172 3481 
z
" transform="scale(0.015625)"/>
          </defs>
          <use xlink:href="#DejaVuSans-38"/>
          <use xlink:href="#DejaVuSans-30" x="63.623047"/>
         </g>
        </g>
       </g>
       <g id="ytick_6">
        <g id="line2d_9">
         <g>
          <use xlink:href="#m54fe7f9a20" x="46.965625" y="56.33714" style="stroke: #000000; stroke-width: 0.8"/>
         </g>
        </g>
        <g id="text_9">
         <!-- 100 -->
         <g transform="translate(20.878125 60.136359) scale(0.1 -0.1)">
          <use xlink:href="#DejaVuSans-31"/>
          <use xlink:href="#DejaVuSans-30" x="63.623047"/>
          <use xlink:href="#DejaVuSans-30" x="127.246094"/>
         </g>
        </g>
       </g>
       <g id="text_10">
        <!-- time ago (years) -->
        <g transform="translate(14.798437 211.603594) rotate(-90) scale(0.1 -0.1)">
         <defs>
          <path id="DejaVuSans-74" d="M 1172 4494 
L 1172 3500 
L 2356 3500 
L 2356 3053 
L 1172 3053 
L 1172 1153 
Q 1172 725 1289 603 
Q 1406 481 1766 481 
L 2356 481 
L 2356 0 
L 1766 0 
Q 1100 0 847 248 
Q 594 497 594 1153 
L 594 3053 
L 172 3053 
L 172 3500 
L 594 3500 
L 594 4494 
L 1172 4494 
z
" transform="scale(0.015625)"/>
          <path id="DejaVuSans-69" d="M 603 3500 
L 1178 3500 
L 1178 0 
L 603 0 
L 603 3500 
z
M 603 4863 
L 1178 4863 
L 1178 4134 
L 603 4134 
L 603 4863 
z
" transform="scale(0.015625)"/>
          <path id="DejaVuSans-20" transform="scale(0.015625)"/>
          <path id="DejaVuSans-61" d="M 2194 1759 
Q 1497 1759 1228 1600 
Q 959 1441 959 1056 
Q 959 750 1161 570 
Q 1363 391 1709 391 
Q 2188 391 2477 730 
Q 2766 1069 2766 1631 
L 2766 1759 
L 2194 1759 
z
M 3341 1997 
L 3341 0 
L 2766 0 
L 2766 531 
Q 2569 213 2275 61 
Q 1981 -91 1556 -91 
Q 1019 -91 701 211 
Q 384 513 384 1019 
Q 384 1609 779 1909 
Q 1175 2209 1959 2209 
L 2766 2209 
L 2766 2266 
Q 2766 2663 2505 2880 
Q 2244 3097 1772 3097 
Q 1472 3097 1187 3025 
Q 903 2953 641 2809 
L 641 3341 
Q 956 3463 1253 3523 
Q 1550 3584 1831 3584 
Q 2591 3584 2966 3190 
Q 3341 2797 3341 1997 
z
" transform="scale(0.015625)"/>
          <path id="DejaVuSans-67" d="M 2906 1791 
Q 2906 2416 2648 2759 
Q 2391 3103 1925 3103 
Q 1463 3103 1205 2759 
Q 947 2416 947 1791 
Q 947 1169 1205 825 
Q 1463 481 1925 481 
Q 2391 481 2648 825 
Q 2906 1169 2906 1791 
z
M 3481 434 
Q 3481 -459 3084 -895 
Q 2688 -1331 1869 -1331 
Q 1566 -1331 1297 -1286 
Q 1028 -1241 775 -1147 
L 775 -588 
Q 1028 -725 1275 -790 
Q 1522 -856 1778 -856 
Q 2344 -856 2625 -561 
Q 2906 -266 2906 331 
L 2906 616 
Q 2728 306 2450 153 
Q 2172 0 1784 0 
Q 1141 0 747 490 
Q 353 981 353 1791 
Q 353 2603 747 3093 
Q 1141 3584 1784 3584 
Q 2172 3584 2450 3431 
Q 2728 3278 2906 2969 
L 2906 3500 
L 3481 3500 
L 3481 434 
z
" transform="scale(0.015625)"/>
          <path id="DejaVuSans-6f" d="M 1959 3097 
Q 1497 3097 1228 2736 
Q 959 2375 959 1747 
Q 959 1119 1226 758 
Q 1494 397 1959 397 
Q 2419 397 2687 759 
Q 2956 1122 2956 1747 
Q 2956 2369 2687 2733 
Q 2419 3097 1959 3097 
z
M 1959 3584 
Q 2709 3584 3137 3096 
Q 3566 2609 3566 1747 
Q 3566 888 3137 398 
Q 2709 -91 1959 -91 
Q 1206 -91 779 398 
Q 353 888 353 1747 
Q 353 2609 779 3096 
Q 1206 3584 1959 3584 
z
" transform="scale(0.015625)"/>
          <path id="DejaVuSans-28" d="M 1984 4856 
Q 1566 4138 1362 3434 
Q 1159 2731 1159 2009 
Q 1159 1288 1364 580 
Q 1569 -128 1984 -844 
L 1484 -844 
Q 1016 -109 783 600 
Q 550 1309 550 2009 
Q 550 2706 781 3412 
Q 1013 4119 1484 4856 
L 1984 4856 
z
" transform="scale(0.015625)"/>
          <path id="DejaVuSans-79" d="M 2059 -325 
Q 1816 -950 1584 -1140 
Q 1353 -1331 966 -1331 
L 506 -1331 
L 506 -850 
L 844 -850 
Q 1081 -850 1212 -737 
Q 1344 -625 1503 -206 
L 1606 56 
L 191 3500 
L 800 3500 
L 1894 763 
L 2988 3500 
L 3597 3500 
L 2059 -325 
z
" transform="scale(0.015625)"/>
          <path id="DejaVuSans-72" d="M 2631 2963 
Q 2534 3019 2420 3045 
Q 2306 3072 2169 3072 
Q 1681 3072 1420 2755 
Q 1159 2438 1159 1844 
L 1159 0 
L 581 0 
L 581 3500 
L 1159 3500 
L 1159 2956 
Q 1341 3275 1631 3429 
Q 1922 3584 2338 3584 
Q 2397 3584 2469 3576 
Q 2541 3569 2628 3553 
L 2631 2963 
z
" transform="scale(0.015625)"/>
          <path id="DejaVuSans-73" d="M 2834 3397 
L 2834 2853 
Q 2591 2978 2328 3040 
Q 2066 3103 1784 3103 
Q 1356 3103 1142 2972 
Q 928 2841 928 2578 
Q 928 2378 1081 2264 
Q 1234 2150 1697 2047 
L 1894 2003 
Q 2506 1872 2764 1633 
Q 3022 1394 3022 966 
Q 3022 478 2636 193 
Q 2250 -91 1575 -91 
Q 1294 -91 989 -36 
Q 684 19 347 128 
L 347 722 
Q 666 556 975 473 
Q 1284 391 1588 391 
Q 1994 391 2212 530 
Q 2431 669 2431 922 
Q 2431 1156 2273 1281 
Q 2116 1406 1581 1522 
L 1381 1569 
Q 847 1681 609 1914 
Q 372 2147 372 2553 
Q 372 3047 722 3315 
Q 1072 3584 1716 3584 
Q 2034 3584 2315 3537 
Q 2597 3491 2834 3397 
z
" transform="scale(0.015625)"/>
          <path id="DejaVuSans-29" d="M 513 4856 
L 1013 4856 
Q 1481 4119 1714 3412 
Q 1947 2706 1947 2009 
Q 1947 1309 1714 600 
Q 1481 -109 1013 -844 
L 513 -844 
Q 928 -128 1133 580 
Q 1338 1288 1338 2009 
Q 1338 2731 1133 3434 
Q 928 4138 513 4856 
z
" transform="scale(0.015625)"/>
         </defs>
         <use xlink:href="#DejaVuSans-74"/>
         <use xlink:href="#DejaVuSans-69" x="39.208984"/>
         <use xlink:href="#DejaVuSans-6d" x="66.992188"/>
         <use xlink:href="#DejaVuSans-65" x="164.404297"/>
         <use xlink:href="#DejaVuSans-20" x="225.927734"/>
         <use xlink:href="#DejaVuSans-61" x="257.714844"/>
         <use xlink:href="#DejaVuSans-67" x="318.994141"/>
         <use xlink:href="#DejaVuSans-6f" x="382.470703"/>
         <use xlink:href="#DejaVuSans-20" x="443.652344"/>
         <use xlink:href="#DejaVuSans-28" x="475.439453"/>
         <use xlink:href="#DejaVuSans-79" x="514.453125"/>
         <use xlink:href="#DejaVuSans-65" x="573.632812"/>
         <use xlink:href="#DejaVuSans-61" x="635.15625"/>
         <use xlink:href="#DejaVuSans-72" x="696.435547"/>
         <use xlink:href="#DejaVuSans-73" x="737.548828"/>
         <use xlink:href="#DejaVuSans-29" x="789.648438"/>
        </g>
       </g>
      </g>
      <path d="M 257.619695 121.991926 
L 255.619695 120.991926 
L 255.619695 122.991926 
z
" clip-path="url(#pbf68e78f71)" style="fill: #1f77b4; fill-opacity: 0.5; stroke: #1f77b4; stroke-opacity: 0.5; stroke-linejoin: miter"/>
      <path d="M 257.619695 189.641078 
L 255.619695 188.641078 
L 255.619695 190.641078 
z
" clip-path="url(#pbf68e78f71)" style="fill: #1f77b4; fill-opacity: 0.5; stroke: #1f77b4; stroke-opacity: 0.5; stroke-linejoin: miter"/>
      <path d="M 257.619695 57.322339 
L 255.619695 56.322339 
L 255.619695 58.322339 
z
" clip-path="url(#pbf68e78f71)" style="fill: #1f77b4; fill-opacity: 0.5; stroke: #1f77b4; stroke-opacity: 0.5; stroke-linejoin: miter"/>
      <path d="M 257.619695 27.718517 
L 255.619695 26.718517 
L 255.619695 28.718517 
z
" clip-path="url(#pbf68e78f71)" style="fill: #1f77b4; fill-opacity: 0.5; stroke: #1f77b4; stroke-opacity: 0.5; stroke-linejoin: miter"/>
      <path d="M 257.619695 51.794086 
L 255.619695 50.794086 
L 255.619695 52.794086 
z
" clip-path="url(#pbf68e78f71)" style="fill: #1f77b4; fill-opacity: 0.5; stroke: #1f77b4; stroke-opacity: 0.5; stroke-linejoin: miter"/>
      <path d="M 257.619695 194.466035 
L 255.619695 193.466035 
L 255.619695 195.466035 
z
" clip-path="url(#pbf68e78f71)" style="fill: #1f77b4; fill-opacity: 0.5; stroke: #1f77b4; stroke-opacity: 0.5; stroke-linejoin: miter"/>
      <path d="M 257.619695 240.325822 
L 255.619695 239.325822 
L 255.619695 241.325822 
z
" clip-path="url(#pbf68e78f71)" style="fill: #1f77b4; fill-opacity: 0.5; stroke: #1f77b4; stroke-opacity: 0.5; stroke-linejoin: miter"/>
      <path d="M 257.619695 172.932748 
L 255.619695 171.932748 
L 255.619695 173.932748 
z
" clip-path="url(#pbf68e78f71)" style="fill: #1f77b4; fill-opacity: 0.5; stroke: #1f77b4; stroke-opacity: 0.5; stroke-linejoin: miter"/>
      <path d="M 257.619695 31.577785 
L 255.619695 30.577785 
L 255.619695 32.577785 
z
" clip-path="url(#pbf68e78f71)" style="fill: #1f77b4; fill-opacity: 0.5; stroke: #1f77b4; stroke-opacity: 0.5; stroke-linejoin: miter"/>
      <path d="M 257.619695 198.166342 
L 255.619695 197.166342 
L 255.619695 199.166342 
z
" clip-path="url(#pbf68e78f71)" style="fill: #1f77b4; fill-opacity: 0.5; stroke: #1f77b4; stroke-opacity: 0.5; stroke-linejoin: miter"/>
      <path d="M 199.299442 27.486648 
L 201.299442 28.486648 
L 201.299442 26.486648 
z
" clip-path="url(#pbf68e78f71)" style="fill: #ff7f0e; fill-opacity: 0.5; stroke: #ff7f0e; stroke-opacity: 0.5; stroke-linejoin: miter"/>
      <path d="M 199.299442 88.445355 
L 201.299442 89.445355 
L 201.299442 87.445355 
z
" clip-path="url(#pbf68e78f71)" style="fill: #ff7f0e; fill-opacity: 0.5; stroke: #ff7f0e; stroke-opacity: 0.5; stroke-linejoin: miter"/>
      <path d="M 199.299442 118.538845 
L 201.299442 119.538845 
L 201.299442 117.538845 
z
" clip-path="url(#pbf68e78f71)" style="fill: #ff7f0e; fill-opacity: 0.5; stroke: #ff7f0e; stroke-opacity: 0.5; stroke-linejoin: miter"/>
      <path d="M 199.299442 312.147038 
L 201.299442 313.147038 
L 201.299442 311.147038 
z
" clip-path="url(#pbf68e78f71)" style="fill: #ff7f0e; fill-opacity: 0.5; stroke: #ff7f0e; stroke-opacity: 0.5; stroke-linejoin: miter"/>
      <path d="M 199.299442 201.543364 
L 201.299442 202.543364 
L 201.299442 200.543364 
z
" clip-path="url(#pbf68e78f71)" style="fill: #ff7f0e; fill-opacity: 0.5; stroke: #ff7f0e; stroke-opacity: 0.5; stroke-linejoin: miter"/>
      <path d="M 199.299442 278.808585 
L 201.299442 279.808585 
L 201.299442 277.808585 
z
" clip-path="url(#pbf68e78f71)" style="fill: #ff7f0e; fill-opacity: 0.5; stroke: #ff7f0e; stroke-opacity: 0.5; stroke-linejoin: miter"/>
      <path d="M 199.299442 25.115849 
L 201.299442 26.115849 
L 201.299442 24.115849 
z
" clip-path="url(#pbf68e78f71)" style="fill: #ff7f0e; fill-opacity: 0.5; stroke: #ff7f0e; stroke-opacity: 0.5; stroke-linejoin: miter"/>
      <path d="M 199.299442 64.212285 
L 201.299442 65.212285 
L 201.299442 63.212285 
z
" clip-path="url(#pbf68e78f71)" style="fill: #ff7f0e; fill-opacity: 0.5; stroke: #ff7f0e; stroke-opacity: 0.5; stroke-linejoin: miter"/>
      <path d="M 199.299442 83.023973 
L 201.299442 84.023973 
L 201.299442 82.023973 
z
" clip-path="url(#pbf68e78f71)" style="fill: #ff7f0e; fill-opacity: 0.5; stroke: #ff7f0e; stroke-opacity: 0.5; stroke-linejoin: miter"/>
      <path d="M 199.299442 27.587525 
L 201.299442 28.587525 
L 201.299442 26.587525 
z
" clip-path="url(#pbf68e78f71)" style="fill: #ff7f0e; fill-opacity: 0.5; stroke: #ff7f0e; stroke-opacity: 0.5; stroke-linejoin: miter"/>
      <path d="M 447.666183 81.903723 
L 445.666183 80.903723 
L 445.666183 82.903723 
z
" clip-path="url(#pbf68e78f71)" style="fill: #ff7f0e; fill-opacity: 0.5; stroke: #ff7f0e; stroke-opacity: 0.5; stroke-linejoin: miter"/>
      <path d="M 447.666183 50.377817 
L 445.666183 49.377817 
L 445.666183 51.377817 
z
" clip-path="url(#pbf68e78f71)" style="fill: #ff7f0e; fill-opacity: 0.5; stroke: #ff7f0e; stroke-opacity: 0.5; stroke-linejoin: miter"/>
      <path d="M 447.666183 223.863851 
L 445.666183 222.863851 
L 445.666183 224.863851 
z
" clip-path="url(#pbf68e78f71)" style="fill: #ff7f0e; fill-opacity: 0.5; stroke: #ff7f0e; stroke-opacity: 0.5; stroke-linejoin: miter"/>
      <path d="M 447.666183 122.360149 
L 445.666183 121.360149 
L 445.666183 123.360149 
z
" clip-path="url(#pbf68e78f71)" style="fill: #ff7f0e; fill-opacity: 0.5; stroke: #ff7f0e; stroke-opacity: 0.5; stroke-linejoin: miter"/>
      <path d="M 447.666183 127.778007 
L 445.666183 126.778007 
L 445.666183 128.778007 
z
" clip-path="url(#pbf68e78f71)" style="fill: #ff7f0e; fill-opacity: 0.5; stroke: #ff7f0e; stroke-opacity: 0.5; stroke-linejoin: miter"/>
      <path d="M 447.666183 40.907361 
L 445.666183 39.907361 
L 445.666183 41.907361 
z
" clip-path="url(#pbf68e78f71)" style="fill: #ff7f0e; fill-opacity: 0.5; stroke: #ff7f0e; stroke-opacity: 0.5; stroke-linejoin: miter"/>
      <path d="M 447.666183 52.148443 
L 445.666183 51.148443 
L 445.666183 53.148443 
z
" clip-path="url(#pbf68e78f71)" style="fill: #ff7f0e; fill-opacity: 0.5; stroke: #ff7f0e; stroke-opacity: 0.5; stroke-linejoin: miter"/>
      <path d="M 447.666183 304.645595 
L 445.666183 303.645595 
L 445.666183 305.645595 
z
" clip-path="url(#pbf68e78f71)" style="fill: #ff7f0e; fill-opacity: 0.5; stroke: #ff7f0e; stroke-opacity: 0.5; stroke-linejoin: miter"/>
      <path d="M 447.666183 114.035567 
L 445.666183 113.035567 
L 445.666183 115.035567 
z
" clip-path="url(#pbf68e78f71)" style="fill: #ff7f0e; fill-opacity: 0.5; stroke: #ff7f0e; stroke-opacity: 0.5; stroke-linejoin: miter"/>
      <path d="M 447.666183 273.609914 
L 445.666183 272.609914 
L 445.666183 274.609914 
z
" clip-path="url(#pbf68e78f71)" style="fill: #ff7f0e; fill-opacity: 0.5; stroke: #ff7f0e; stroke-opacity: 0.5; stroke-linejoin: miter"/>
      <path d="M 389.34593 92.904942 
L 391.34593 93.904942 
L 391.34593 91.904942 
z
" clip-path="url(#pbf68e78f71)" style="fill: #2ca02c; fill-opacity: 0.5; stroke: #2ca02c; stroke-opacity: 0.5; stroke-linejoin: miter"/>
      <path d="M 389.34593 249.43268 
L 391.34593 250.43268 
L 391.34593 248.43268 
z
" clip-path="url(#pbf68e78f71)" style="fill: #2ca02c; fill-opacity: 0.5; stroke: #2ca02c; stroke-opacity: 0.5; stroke-linejoin: miter"/>
      <path d="M 389.34593 52.274968 
L 391.34593 53.274968 
L 391.34593 51.274968 
z
" clip-path="url(#pbf68e78f71)" style="fill: #2ca02c; fill-opacity: 0.5; stroke: #2ca02c; stroke-opacity: 0.5; stroke-linejoin: miter"/>
      <path d="M 389.34593 110.260613 
L 391.34593 111.260613 
L 391.34593 109.260613 
z
" clip-path="url(#pbf68e78f71)" style="fill: #2ca02c; fill-opacity: 0.5; stroke: #2ca02c; stroke-opacity: 0.5; stroke-linejoin: miter"/>
      <path d="M 389.34593 156.098256 
L 391.34593 157.098256 
L 391.34593 155.098256 
z
" clip-path="url(#pbf68e78f71)" style="fill: #2ca02c; fill-opacity: 0.5; stroke: #2ca02c; stroke-opacity: 0.5; stroke-linejoin: miter"/>
      <path d="M 389.34593 98.149808 
L 391.34593 99.149808 
L 391.34593 97.149808 
z
" clip-path="url(#pbf68e78f71)" style="fill: #2ca02c; fill-opacity: 0.5; stroke: #2ca02c; stroke-opacity: 0.5; stroke-linejoin: miter"/>
      <path d="M 389.34593 146.679498 
L 391.34593 147.679498 
L 391.34593 145.679498 
z
" clip-path="url(#pbf68e78f71)" style="fill: #2ca02c; fill-opacity: 0.5; stroke: #2ca02c; stroke-opacity: 0.5; stroke-linejoin: miter"/>
      <path d="M 389.34593 135.141772 
L 391.34593 136.141772 
L 391.34593 134.141772 
z
" clip-path="url(#pbf68e78f71)" style="fill: #2ca02c; fill-opacity: 0.5; stroke: #2ca02c; stroke-opacity: 0.5; stroke-linejoin: miter"/>
      <path d="M 389.34593 244.609681 
L 391.34593 245.609681 
L 391.34593 243.609681 
z
" clip-path="url(#pbf68e78f71)" style="fill: #2ca02c; fill-opacity: 0.5; stroke: #2ca02c; stroke-opacity: 0.5; stroke-linejoin: miter"/>
      <path d="M 389.34593 72.252156 
L 391.34593 73.252156 
L 391.34593 71.252156 
z
" clip-path="url(#pbf68e78f71)" style="fill: #2ca02c; fill-opacity: 0.5; stroke: #2ca02c; stroke-opacity: 0.5; stroke-linejoin: miter"/>
      <g id="patch_6">
       <path d="M 46.965625 318.021875 
L 46.965625 22.318125 
" style="fill: none; stroke: #000000; stroke-width: 0.8; stroke-linejoin: miter; stroke-linecap: square"/>
      </g>
      <g id="text_11">
       <!-- stepping_stone_model.yaml -->
       <g transform="translate(239.443437 16.318125) scale(0.12 -0.12)">
        <defs>
         <path id="DejaVuSans-70" d="M 1159 525 
L 1159 -1331 
L 581 -1331 
L 581 3500 
L 1159 3500 
L 1159 2969 
Q 1341 3281 1617 3432 
Q 1894 3584 2278 3584 
Q 2916 3584 3314 3078 
Q 3713 2572 3713 1747 
Q 3713 922 3314 415 
Q 2916 -91 2278 -91 
Q 1894 -91 1617 61 
Q 1341 213 1159 525 
z
M 3116 1747 
Q 3116 2381 2855 2742 
Q 2594 3103 2138 3103 
Q 1681 3103 1420 2742 
Q 1159 2381 1159 1747 
Q 1159 1113 1420 752 
Q 1681 391 2138 391 
Q 2594 391 2855 752 
Q 3116 1113 3116 1747 
z
" transform="scale(0.015625)"/>
         <path id="DejaVuSans-6e" d="M 3513 2113 
L 3513 0 
L 2938 0 
L 2938 2094 
Q 2938 2591 2744 2837 
Q 2550 3084 2163 3084 
Q 1697 3084 1428 2787 
Q 1159 2491 1159 1978 
L 1159 0 
L 581 0 
L 581 3500 
L 1159 3500 
L 1159 2956 
Q 1366 3272 1645 3428 
Q 1925 3584 2291 3584 
Q 2894 3584 3203 3211 
Q 3513 2838 3513 2113 
z
" transform="scale(0.015625)"/>
         <path id="DejaVuSans-5f" d="M 3263 -1063 
L 3263 -1509 
L -63 -1509 
L -63 -1063 
L 3263 -1063 
z
" transform="scale(0.015625)"/>
         <path id="DejaVuSans-6c" d="M 603 4863 
L 1178 4863 
L 1178 0 
L 603 0 
L 603 4863 
z
" transform="scale(0.015625)"/>
         <path id="DejaVuSans-2e" d="M 684 794 
L 1344 794 
L 1344 0 
L 684 0 
L 684 794 
z
" transform="scale(0.015625)"/>
        </defs>
        <use xlink:href="#DejaVuSans-73"/>
        <use xlink:href="#DejaVuSans-74" x="52.099609"/>
        <use xlink:href="#DejaVuSans-65" x="91.308594"/>
        <use xlink:href="#DejaVuSans-70" x="152.832031"/>
        <use xlink:href="#DejaVuSans-70" x="216.308594"/>
        <use xlink:href="#DejaVuSans-69" x="279.785156"/>
        <use xlink:href="#DejaVuSans-6e" x="307.568359"/>
        <use xlink:href="#DejaVuSans-67" x="370.947266"/>
        <use xlink:href="#DejaVuSans-5f" x="434.423828"/>
        <use xlink:href="#DejaVuSans-73" x="484.423828"/>
        <use xlink:href="#DejaVuSans-74" x="536.523438"/>
        <use xlink:href="#DejaVuSans-6f" x="575.732422"/>
        <use xlink:href="#DejaVuSans-6e" x="636.914062"/>
        <use xlink:href="#DejaVuSans-65" x="700.292969"/>
        <use xlink:href="#DejaVuSans-5f" x="761.816406"/>
        <use xlink:href="#DejaVuSans-6d" x="811.816406"/>
        <use xlink:href="#DejaVuSans-6f" x="909.228516"/>
        <use xlink:href="#DejaVuSans-64" x="970.410156"/>
        <use xlink:href="#DejaVuSans-65" x="1033.886719"/>
        <use xlink:href="#DejaVuSans-6c" x="1095.410156"/>
        <use xlink:href="#DejaVuSans-2e" x="1123.193359"/>
        <use xlink:href="#DejaVuSans-79" x="1154.980469"/>
        <use xlink:href="#DejaVuSans-61" x="1214.160156"/>
        <use xlink:href="#DejaVuSans-6d" x="1275.439453"/>
        <use xlink:href="#DejaVuSans-6c" x="1372.851562"/>
       </g>
      </g>
     </g>
    </g>
    <defs>
     <clipPath id="pbf68e78f71">
      <rect x="46.965625" y="22.318125" width="553.034375" height="295.70375"/>
     </clipPath>
    </defs>
   </g>
  </g>
 </g>
</svg>