<?xml version="1.0" encoding="utf-8" standalone="no"?>
<!DOCTYPE svg PUBLIC "-//W3C//DTD SVG 1.1//EN"
  "http://www.w3.org/Graphics/SVG/1.1/DTD/svg11.dtd">
<svg xmlns:xlink="http://www.w3.org/1999/xlink" width="607.2pt" height="338.4pt" viewBox="0 0 607.2 338.4" xmlns="http://www.w3.org/2000/svg" version="1.1">
 <metadata>
  <rdf:RDF xmlns:dc="http://purl.org/dc/elements/1.1/" xmlns:cc="http://creativecommons.org/ns#" xmlns:rdf="http://www.w3.org/1999/02/22-rdf-syntax-ns#">
   <cc:Work>
    <dc:type rdf:resource="http://purl.org/dc/dcmitype/StillImage"/>
    <dc:date>2024-02-12T09:01:17.130183</dc:date>
    <dc:format>image/svg+xml</dc:format>
    <dc:creator>
     <cc:Agent>
      <dc:title>Matplotlib v3.7.2, https://matplotlib.org/</dc:title>
     </cc:Agent>
    </dc:creator>
   </cc:Work>
  </rdf:RDF>
 </metadata>
 <defs>
  <style type="text/css">*{stroke-linejoin: round; stroke-linecap: butt}</style>
 </defs>
 <g id="figure_1">
  <g id="patch_1">
   <path d="M 0 338.4 
L 607.2 338.4 
L 607.2 0 
L 0 0 
z
" style="fill: #ffffff"/>
  </g>
  <g id="axes_1">
   <g id="patch_2">
    <path d="M 46.965625 318.021875 
L 600 318.021875 
L 600 22.318125 
L 46.965625 22.318125 
z
" style="fill: #ffffff"/>
   </g>
   <path d="M 200.299442 109.623433 
L 201.299442 109.654869 
L 202.299442 109.691809 
L 203.299442 109.789556 
L 204.299442 109.822078 
L 205.299442 109.895702 
L 206.299442 109.934268 
L 207.299442 109.969681 
L 208.299442 110.027321 
L 209.299442 110.097707 
L 210.299442 110.149671 
L 211.299442 110.208761 
L 212.299442 110.297082 
L 213.299442 110.343226 
L 214.299442 110.385637 
L 215.299442 110.41613 
L 216.299442 110.442175 
L 217.299442 110.463375 
L 218.299442 110.517676 
L 219.299442 110.545614 
L 220.299442 110.575338 
L 221.299442 110.600732 
L 222.299442 110.611933 
L 223.299442 110.622057 
L 224.299442 110.621853 
L 225.299442 110.612343 
L 226.299442 110.600689 
L 227.299442 110.56966 
L 228.299442 110.558492 
L 229.299442 110.528374 
L 230.299442 110.468597 
L 231.299442 110.431406 
L 232.299442 110.39231 
L 233.299442 110.34987 
L 234.299442 110.317105 
L 235.299442 110.249679 
L 236.299442 110.210553 
L 237.299442 110.167878 
L 238.299442 110.097298 
L 239.299442 110.060907 
L 240.299442 110.002503 
L 241.299442 109.891551 
L 242.299442 109.820893 
L 243.299442 109.707953 
L 244.299442 109.66218 
L 245.299442 109.600897 
L 246.299442 109.552397 
L 247.299442 109.471575 
L 248.299442 109.353056 
L 249.299442 109.282845 
L 250.299442 109.199583 
L 251.299442 109.166441 
L 252.299442 109.115204 
L 253.299442 109.046805 
L 254.299442 108.98059 
L 255.299442 108.903673 
L 256.619695 108.876357 
" clip-path="url(#p4a2d484d8e)" style="fill: none; stroke: #1f77b4; stroke-opacity: 0.5; stroke-width: 0.2; stroke-linecap: square"/>
   <path d="M 200.299442 219.637459 
L 201.299442 219.668896 
L 202.299442 219.705836 
L 203.299442 219.803583 
L 204.299442 219.836104 
L 205.299442 219.909729 
L 206.299442 219.948295 
L 207.299442 219.983708 
L 208.299442 220.041348 
L 209.299442 220.111734 
L 210.299442 220.163698 
L 211.299442 220.222788 
L 212.299442 220.311109 
L 213.299442 220.357253 
L 214.299442 220.399664 
L 215.299442 220.430157 
L 216.299442 220.456202 
L 217.299442 220.477402 
L 218.299442 220.531703 
L 219.299442 220.55964 
L 220.299442 220.589364 
L 221.299442 220.614759 
L 222.299442 220.62596 
L 223.299442 220.636084 
L 224.299442 220.635879 
L 225.299442 220.626369 
L 226.299442 220.614716 
L 227.299442 220.583687 
L 228.299442 220.572519 
L 229.299442 220.542401 
L 230.299442 220.482624 
L 231.299442 220.445433 
L 232.299442 220.406337 
L 233.299442 220.363897 
L 234.299442 220.331132 
L 235.299442 220.263705 
L 236.299442 220.224579 
L 237.299442 220.181905 
L 238.299442 220.111324 
L 239.299442 220.074933 
L 240.299442 220.01653 
L 241.299442 219.905578 
L 242.299442 219.834919 
L 243.299442 219.72198 
L 244.299442 219.676207 
L 245.299442 219.614923 
L 246.299442 219.566424 
L 247.299442 219.485601 
L 248.299442 219.367082 
L 249.299442 219.296872 
L 250.299442 219.213609 
L 251.299442 219.180468 
L 252.299442 219.12923 
L 253.299442 219.060832 
L 254.299442 218.994616 
L 255.299442 218.917699 
L 256.619695 218.890384 
" clip-path="url(#p4a2d484d8e)" style="fill: none; stroke: #1f77b4; stroke-opacity: 0.5; stroke-width: 0.2; stroke-linecap: square"/>
   <path d="M 200.299442 146.5913 
L 201.299442 146.622736 
L 202.299442 146.659677 
L 203.299442 146.757423 
L 204.299442 146.789945 
L 205.299442 146.86357 
L 206.299442 146.902135 
L 207.299442 146.937548 
L 208.299442 146.995188 
L 209.299442 147.065575 
L 210.299442 147.117539 
L 211.299442 147.176629 
L 212.299442 147.26495 
L 213.299442 147.311094 
L 214.299442 147.353505 
L 215.299442 147.383997 
L 216.299442 147.410042 
L 217.299442 147.431242 
L 218.299442 147.485544 
L 219.299442 147.513481 
L 220.299442 147.543205 
L 221.299442 147.5686 
L 222.299442 147.5798 
L 223.299442 147.589924 
L 224.299442 147.58972 
L 225.299442 147.58021 
L 226.299442 147.568556 
L 227.299442 147.537527 
L 228.299442 147.526359 
L 229.299442 147.496242 
L 230.299442 147.436465 
L 231.299442 147.399273 
L 232.299442 147.360177 
L 233.299442 147.317738 
L 234.299442 147.284972 
L 235.299442 147.217546 
L 236.299442 147.17842 
L 237.299442 147.135746 
L 238.299442 147.065165 
L 239.299442 147.028774 
L 240.299442 146.970371 
L 241.299442 146.859418 
L 242.299442 146.78876 
L 243.299442 146.67582 
L 244.299442 146.630047 
L 245.299442 146.568764 
L 246.299442 146.520265 
L 247.299442 146.439442 
L 248.299442 146.320923 
L 249.299442 146.250712 
L 250.299442 146.16745 
L 251.299442 146.134308 
L 252.299442 146.083071 
L 253.299442 146.014673 
L 254.299442 145.948457 
L 255.299442 145.87154 
L 256.619695 145.844225 
" clip-path="url(#p4a2d484d8e)" style="fill: none; stroke: #1f77b4; stroke-opacity: 0.5; stroke-width: 0.2; stroke-linecap: square"/>
   <path d="M 200.299442 114.480614 
L 201.299442 114.51205 
L 202.299442 114.54899 
L 203.299442 114.646737 
L 204.299442 114.679259 
L 205.299442 114.752883 
L 206.299442 114.791449 
L 207.299442 114.826862 
L 208.299442 114.884502 
L 209.299442 114.954888 
L 210.299442 115.006852 
L 211.299442 115.065942 
L 212.299442 115.154263 
L 213.299442 115.200407 
L 214.299442 115.242818 
L 215.299442 115.273311 
L 216.299442 115.299356 
L 217.299442 115.320556 
L 218.299442 115.374857 
L 219.299442 115.402795 
L 220.299442 115.432519 
L 221.299442 115.457913 
L 222.299442 115.469114 
L 223.299442 115.479238 
L 224.299442 115.479033 
L 225.299442 115.469524 
L 226.299442 115.45787 
L 227.299442 115.426841 
L 228.299442 115.415673 
L 229.299442 115.385555 
L 230.299442 115.325778 
L 231.299442 115.288587 
L 232.299442 115.249491 
L 233.299442 115.207051 
L 234.299442 115.174286 
L 235.299442 115.106859 
L 236.299442 115.067734 
L 237.299442 115.025059 
L 238.299442 114.954478 
L 239.299442 114.918088 
L 240.299442 114.859684 
L 241.299442 114.748732 
L 242.299442 114.678073 
L 243.299442 114.565134 
L 244.299442 114.519361 
L 245.299442 114.458078 
L 246.299442 114.409578 
L 247.299442 114.328756 
L 248.299442 114.210237 
L 249.299442 114.140026 
L 250.299442 114.056764 
L 251.299442 114.023622 
L 252.299442 113.972384 
L 253.299442 113.903986 
L 254.299442 113.837771 
L 255.299442 113.760854 
L 256.619695 113.733538 
" clip-path="url(#p4a2d484d8e)" style="fill: none; stroke: #1f77b4; stroke-opacity: 0.5; stroke-width: 0.2; stroke-linecap: square"/>
   <path d="M 200.299442 49.947981 
L 201.299442 49.979418 
L 202.299442 50.016358 
L 203.299442 50.114105 
L 204.299442 50.146626 
L 205.299442 50.220251 
L 206.299442 50.258817 
L 207.299442 50.29423 
L 208.299442 50.35187 
L 209.299442 50.422256 
L 210.299442 50.47422 
L 211.299442 50.53331 
L 212.299442 50.621631 
L 213.299442 50.667775 
L 214.299442 50.710186 
L 215.299442 50.740679 
L 216.299442 50.766724 
L 217.299442 50.787924 
L 218.299442 50.842225 
L 219.299442 50.870162 
L 220.299442 50.899886 
L 221.299442 50.925281 
L 222.299442 50.936482 
L 223.299442 50.946606 
L 224.299442 50.946401 
L 225.299442 50.936891 
L 226.299442 50.925238 
L 227.299442 50.894209 
L 228.299442 50.883041 
L 229.299442 50.852923 
L 230.299442 50.793146 
L 231.299442 50.755955 
L 232.299442 50.716859 
L 233.299442 50.674419 
L 234.299442 50.641654 
L 235.299442 50.574227 
L 236.299442 50.535101 
L 237.299442 50.492427 
L 238.299442 50.421846 
L 239.299442 50.385455 
L 240.299442 50.327052 
L 241.299442 50.2161 
L 242.299442 50.145441 
L 243.299442 50.032501 
L 244.299442 49.986729 
L 245.299442 49.925445 
L 246.299442 49.876946 
L 247.299442 49.796123 
L 248.299442 49.677604 
L 249.299442 49.607394 
L 250.299442 49.524131 
L 251.299442 49.49099 
L 252.299442 49.439752 
L 253.299442 49.371354 
L 254.299442 49.305138 
L 255.299442 49.228221 
L 256.619695 49.200906 
" clip-path="url(#p4a2d484d8e)" style="fill: none; stroke: #1f77b4; stroke-opacity: 0.5; stroke-width: 0.2; stroke-linecap: square"/>
   <path d="M 200.299442 282.685027 
L 201.299442 282.716463 
L 202.299442 282.753403 
L 203.299442 282.85115 
L 204.299442 282.883672 
L 205.299442 282.957296 
L 206.299442 282.995862 
L 207.299442 283.031275 
L 208.299442 283.088915 
L 209.299442 283.159301 
L 210.299442 283.211265 
L 211.299442 283.270355 
L 212.299442 283.358676 
L 213.299442 283.40482 
L 214.299442 283.447231 
L 215.299442 283.477724 
L 216.299442 283.503769 
L 217.299442 283.524969 
L 218.299442 283.57927 
L 219.299442 283.607208 
L 220.299442 283.636932 
L 221.299442 283.662326 
L 222.299442 283.673527 
L 223.299442 283.683651 
L 224.299442 283.683446 
L 225.299442 283.673937 
L 226.299442 283.662283 
L 227.299442 283.631254 
L 228.299442 283.620086 
L 229.299442 283.589968 
L 230.299442 283.530191 
L 231.299442 283.493 
L 232.299442 283.453904 
L 233.299442 283.411464 
L 234.299442 283.378699 
L 235.299442 283.311273 
L 236.299442 283.272147 
L 237.299442 283.229472 
L 238.299442 283.158891 
L 239.299442 283.122501 
L 240.299442 283.064097 
L 241.299442 282.953145 
L 242.299442 282.882487 
L 243.299442 282.769547 
L 244.299442 282.723774 
L 245.299442 282.662491 
L 246.299442 282.613991 
L 247.299442 282.533169 
L 248.299442 282.41465 
L 249.299442 282.344439 
L 250.299442 282.261177 
L 251.299442 282.228035 
L 252.299442 282.176797 
L 253.299442 282.108399 
L 254.299442 282.042184 
L 255.299442 281.965267 
L 256.619695 281.937951 
" clip-path="url(#p4a2d484d8e)" style="fill: none; stroke: #1f77b4; stroke-opacity: 0.5; stroke-width: 0.2; stroke-linecap: square"/>
   <path d="M 200.299442 176.9926 
L 201.299442 177.024037 
L 202.299442 177.060977 
L 203.299442 177.158724 
L 204.299442 177.191245 
L 205.299442 177.26487 
L 206.299442 177.303436 
L 207.299442 177.338849 
L 208.299442 177.396489 
L 209.299442 177.466875 
L 210.299442 177.518839 
L 211.299442 177.577929 
L 212.299442 177.66625 
L 213.299442 177.712394 
L 214.299442 177.754805 
L 215.299442 177.785298 
L 216.299442 177.811343 
L 217.299442 177.832543 
L 218.299442 177.886844 
L 219.299442 177.914781 
L 220.299442 177.944505 
L 221.299442 177.9699 
L 222.299442 177.981101 
L 223.299442 177.991224 
L 224.299442 177.99102 
L 225.299442 177.98151 
L 226.299442 177.969857 
L 227.299442 177.938827 
L 228.299442 177.92766 
L 229.299442 177.897542 
L 230.299442 177.837765 
L 231.299442 177.800574 
L 232.299442 177.761477 
L 233.299442 177.719038 
L 234.299442 177.686273 
L 235.299442 177.618846 
L 236.299442 177.57972 
L 237.299442 177.537046 
L 238.299442 177.466465 
L 239.299442 177.430074 
L 240.299442 177.371671 
L 241.299442 177.260719 
L 242.299442 177.19006 
L 243.299442 177.07712 
L 244.299442 177.031348 
L 245.299442 176.970064 
L 246.299442 176.921565 
L 247.299442 176.840742 
L 248.299442 176.722223 
L 249.299442 176.652013 
L 250.299442 176.56875 
L 251.299442 176.535608 
L 252.299442 176.484371 
L 253.299442 176.415973 
L 254.299442 176.349757 
L 255.299442 176.27284 
L 256.619695 176.245525 
" clip-path="url(#p4a2d484d8e)" style="fill: none; stroke: #1f77b4; stroke-opacity: 0.5; stroke-width: 0.2; stroke-linecap: square"/>
   <path d="M 200.299442 49.594452 
L 201.299442 49.625888 
L 202.299442 49.662829 
L 203.299442 49.760575 
L 204.299442 49.793097 
L 205.299442 49.866722 
L 206.299442 49.905287 
L 207.299442 49.9407 
L 208.299442 49.99834 
L 209.299442 50.068726 
L 210.299442 50.120691 
L 211.299442 50.17978 
L 212.299442 50.268101 
L 213.299442 50.314246 
L 214.299442 50.356657 
L 215.299442 50.387149 
L 216.299442 50.413194 
L 217.299442 50.434394 
L 218.299442 50.488695 
L 219.299442 50.516633 
L 220.299442 50.546357 
L 221.299442 50.571752 
L 222.299442 50.582952 
L 223.299442 50.593076 
L 224.299442 50.592872 
L 225.299442 50.583362 
L 226.299442 50.571708 
L 227.299442 50.540679 
L 228.299442 50.529511 
L 229.299442 50.499394 
L 230.299442 50.439617 
L 231.299442 50.402425 
L 232.299442 50.363329 
L 233.299442 50.320889 
L 234.299442 50.288124 
L 235.299442 50.220698 
L 236.299442 50.181572 
L 237.299442 50.138897 
L 238.299442 50.068317 
L 239.299442 50.031926 
L 240.299442 49.973523 
L 241.299442 49.86257 
L 242.299442 49.791912 
L 243.299442 49.678972 
L 244.299442 49.633199 
L 245.299442 49.571916 
L 246.299442 49.523417 
L 247.299442 49.442594 
L 248.299442 49.324075 
L 249.299442 49.253864 
L 250.299442 49.170602 
L 251.299442 49.13746 
L 252.299442 49.086223 
L 253.299442 49.017824 
L 254.299442 48.951609 
L 255.299442 48.874692 
L 256.619695 48.847376 
" clip-path="url(#p4a2d484d8e)" style="fill: none; stroke: #1f77b4; stroke-opacity: 0.5; stroke-width: 0.2; stroke-linecap: square"/>
   <path d="M 200.299442 169.094165 
L 201.299442 169.125602 
L 202.299442 169.162542 
L 203.299442 169.260289 
L 204.299442 169.29281 
L 205.299442 169.366435 
L 206.299442 169.405001 
L 207.299442 169.440414 
L 208.299442 169.498054 
L 209.299442 169.56844 
L 210.299442 169.620404 
L 211.299442 169.679494 
L 212.299442 169.767815 
L 213.299442 169.813959 
L 214.299442 169.85637 
L 215.299442 169.886863 
L 216.299442 169.912908 
L 217.299442 169.934108 
L 218.299442 169.988409 
L 219.299442 170.016346 
L 220.299442 170.04607 
L 221.299442 170.071465 
L 222.299442 170.082666 
L 223.299442 170.09279 
L 224.299442 170.092585 
L 225.299442 170.083075 
L 226.299442 170.071422 
L 227.299442 170.040392 
L 228.299442 170.029225 
L 229.299442 169.999107 
L 230.299442 169.93933 
L 231.299442 169.902139 
L 232.299442 169.863042 
L 233.299442 169.820603 
L 234.299442 169.787838 
L 235.299442 169.720411 
L 236.299442 169.681285 
L 237.299442 169.638611 
L 238.299442 169.56803 
L 239.299442 169.531639 
L 240.299442 169.473236 
L 241.299442 169.362284 
L 242.299442 169.291625 
L 243.299442 169.178685 
L 244.299442 169.132913 
L 245.299442 169.071629 
L 246.299442 169.02313 
L 247.299442 168.942307 
L 248.299442 168.823788 
L 249.299442 168.753578 
L 250.299442 168.670315 
L 251.299442 168.637174 
L 252.299442 168.585936 
L 253.299442 168.517538 
L 254.299442 168.451322 
L 255.299442 168.374405 
L 256.619695 168.34709 
" clip-path="url(#p4a2d484d8e)" style="fill: none; stroke: #1f77b4; stroke-opacity: 0.5; stroke-width: 0.2; stroke-linecap: square"/>
   <path d="M 200.299442 219.460701 
L 201.299442 219.492137 
L 202.299442 219.529078 
L 203.299442 219.626824 
L 204.299442 219.659346 
L 205.299442 219.73297 
L 206.299442 219.771536 
L 207.299442 219.806949 
L 208.299442 219.864589 
L 209.299442 219.934975 
L 210.299442 219.986939 
L 211.299442 220.046029 
L 212.299442 220.13435 
L 213.299442 220.180494 
L 214.299442 220.222905 
L 215.299442 220.253398 
L 216.299442 220.279443 
L 217.299442 220.300643 
L 218.299442 220.354944 
L 219.299442 220.382882 
L 220.299442 220.412606 
L 221.299442 220.438001 
L 222.299442 220.449201 
L 223.299442 220.459325 
L 224.299442 220.459121 
L 225.299442 220.449611 
L 226.299442 220.437957 
L 227.299442 220.406928 
L 228.299442 220.39576 
L 229.299442 220.365642 
L 230.299442 220.305865 
L 231.299442 220.268674 
L 232.299442 220.229578 
L 233.299442 220.187138 
L 234.299442 220.154373 
L 235.299442 220.086947 
L 236.299442 220.047821 
L 237.299442 220.005146 
L 238.299442 219.934566 
L 239.299442 219.898175 
L 240.299442 219.839772 
L 241.299442 219.728819 
L 242.299442 219.658161 
L 243.299442 219.545221 
L 244.299442 219.499448 
L 245.299442 219.438165 
L 246.299442 219.389665 
L 247.299442 219.308843 
L 248.299442 219.190324 
L 249.299442 219.120113 
L 250.299442 219.036851 
L 251.299442 219.003709 
L 252.299442 218.952472 
L 253.299442 218.884073 
L 254.299442 218.817858 
L 255.299442 218.740941 
L 256.619695 218.713625 
" clip-path="url(#p4a2d484d8e)" style="fill: none; stroke: #1f77b4; stroke-opacity: 0.5; stroke-width: 0.2; stroke-linecap: square"/>
   <path d="M 256.619695 148.516455 
L 255.619695 148.485018 
L 254.619695 148.448078 
L 253.619695 148.350331 
L 252.619695 148.31781 
L 251.619695 148.244185 
L 250.619695 148.205619 
L 249.619695 148.170206 
L 248.619695 148.112566 
L 247.619695 148.04218 
L 246.619695 147.990216 
L 245.619695 147.931126 
L 244.619695 147.842805 
L 243.619695 147.796661 
L 242.619695 147.75425 
L 241.619695 147.723757 
L 240.619695 147.697712 
L 239.619695 147.676512 
L 238.619695 147.622211 
L 237.619695 147.594274 
L 236.619695 147.56455 
L 235.619695 147.539155 
L 234.619695 147.527954 
L 233.619695 147.51783 
L 232.619695 147.518035 
L 231.619695 147.527545 
L 230.619695 147.539198 
L 229.619695 147.570227 
L 228.619695 147.581395 
L 227.619695 147.611513 
L 226.619695 147.67129 
L 225.619695 147.708481 
L 224.619695 147.747577 
L 223.619695 147.790017 
L 222.619695 147.822782 
L 221.619695 147.890209 
L 220.619695 147.929335 
L 219.619695 147.972009 
L 218.619695 148.04259 
L 217.619695 148.078981 
L 216.619695 148.137384 
L 215.619695 148.248336 
L 214.619695 148.318995 
L 213.619695 148.431934 
L 212.619695 148.477707 
L 211.619695 148.538991 
L 210.619695 148.58749 
L 209.619695 148.668313 
L 208.619695 148.786832 
L 207.619695 148.857042 
L 206.619695 148.940305 
L 205.619695 148.973446 
L 204.619695 149.024684 
L 203.619695 149.093082 
L 202.619695 149.159298 
L 201.619695 149.236215 
L 200.299442 149.26353 
" clip-path="url(#p4a2d484d8e)" style="fill: none; stroke: #ff7f0e; stroke-opacity: 0.5; stroke-width: 0.2; stroke-linecap: square"/>
   <path d="M 256.619695 278.935486 
L 255.619695 278.904049 
L 254.619695 278.867109 
L 253.619695 278.769362 
L 252.619695 278.736841 
L 251.619695 278.663216 
L 250.619695 278.62465 
L 249.619695 278.589237 
L 248.619695 278.531597 
L 247.619695 278.461211 
L 246.619695 278.409247 
L 245.619695 278.350157 
L 244.619695 278.261836 
L 243.619695 278.215692 
L 242.619695 278.173281 
L 241.619695 278.142788 
L 240.619695 278.116743 
L 239.619695 278.095543 
L 238.619695 278.041242 
L 237.619695 278.013305 
L 236.619695 277.983581 
L 235.619695 277.958186 
L 234.619695 277.946985 
L 233.619695 277.936861 
L 232.619695 277.937066 
L 231.619695 277.946576 
L 230.619695 277.958229 
L 229.619695 277.989259 
L 228.619695 278.000426 
L 227.619695 278.030544 
L 226.619695 278.090321 
L 225.619695 278.127512 
L 224.619695 278.166609 
L 223.619695 278.209048 
L 222.619695 278.241813 
L 221.619695 278.30924 
L 220.619695 278.348366 
L 219.619695 278.39104 
L 218.619695 278.461621 
L 217.619695 278.498012 
L 216.619695 278.556415 
L 215.619695 278.667367 
L 214.619695 278.738026 
L 213.619695 278.850966 
L 212.619695 278.896738 
L 211.619695 278.958022 
L 210.619695 279.006521 
L 209.619695 279.087344 
L 208.619695 279.205863 
L 207.619695 279.276073 
L 206.619695 279.359336 
L 205.619695 279.392478 
L 204.619695 279.443715 
L 203.619695 279.512113 
L 202.619695 279.578329 
L 201.619695 279.655246 
L 200.299442 279.682561 
" clip-path="url(#p4a2d484d8e)" style="fill: none; stroke: #ff7f0e; stroke-opacity: 0.5; stroke-width: 0.2; stroke-linecap: square"/>
   <path d="M 256.619695 69.480994 
L 255.619695 69.449558 
L 254.619695 69.412618 
L 253.619695 69.314871 
L 252.619695 69.28235 
L 251.619695 69.208725 
L 250.619695 69.170159 
L 249.619695 69.134746 
L 248.619695 69.077106 
L 247.619695 69.00672 
L 246.619695 68.954756 
L 245.619695 68.895666 
L 244.619695 68.807345 
L 243.619695 68.761201 
L 242.619695 68.71879 
L 241.619695 68.688297 
L 240.619695 68.662252 
L 239.619695 68.641052 
L 238.619695 68.586751 
L 237.619695 68.558813 
L 236.619695 68.529089 
L 235.619695 68.503695 
L 234.619695 68.492494 
L 233.619695 68.48237 
L 232.619695 68.482575 
L 231.619695 68.492085 
L 230.619695 68.503738 
L 229.619695 68.534767 
L 228.619695 68.545935 
L 227.619695 68.576053 
L 226.619695 68.63583 
L 225.619695 68.673021 
L 224.619695 68.712117 
L 223.619695 68.754557 
L 222.619695 68.787322 
L 221.619695 68.854749 
L 220.619695 68.893875 
L 219.619695 68.936549 
L 218.619695 69.00713 
L 217.619695 69.043521 
L 216.619695 69.101924 
L 215.619695 69.212876 
L 214.619695 69.283535 
L 213.619695 69.396474 
L 212.619695 69.442247 
L 211.619695 69.503531 
L 210.619695 69.55203 
L 209.619695 69.632853 
L 208.619695 69.751371 
L 207.619695 69.821582 
L 206.619695 69.904845 
L 205.619695 69.937986 
L 204.619695 69.989224 
L 203.619695 70.057622 
L 202.619695 70.123837 
L 201.619695 70.200755 
L 200.299442 70.22807 
" clip-path="url(#p4a2d484d8e)" style="fill: none; stroke: #ff7f0e; stroke-opacity: 0.5; stroke-width: 0.2; stroke-linecap: square"/>
   <path d="M 256.619695 75.439479 
L 255.619695 75.408043 
L 254.619695 75.371102 
L 253.619695 75.273356 
L 252.619695 75.240834 
L 251.619695 75.167209 
L 250.619695 75.128644 
L 249.619695 75.093231 
L 248.619695 75.035591 
L 247.619695 74.965205 
L 246.619695 74.91324 
L 245.619695 74.854151 
L 244.619695 74.76583 
L 243.619695 74.719685 
L 242.619695 74.677274 
L 241.619695 74.646782 
L 240.619695 74.620737 
L 239.619695 74.599537 
L 238.619695 74.545236 
L 237.619695 74.517298 
L 236.619695 74.487574 
L 235.619695 74.462179 
L 234.619695 74.450979 
L 233.619695 74.440855 
L 232.619695 74.441059 
L 231.619695 74.450569 
L 230.619695 74.462223 
L 229.619695 74.493252 
L 228.619695 74.50442 
L 227.619695 74.534537 
L 226.619695 74.594314 
L 225.619695 74.631506 
L 224.619695 74.670602 
L 223.619695 74.713042 
L 222.619695 74.745807 
L 221.619695 74.813233 
L 220.619695 74.852359 
L 219.619695 74.895034 
L 218.619695 74.965614 
L 217.619695 75.002005 
L 216.619695 75.060408 
L 215.619695 75.171361 
L 214.619695 75.242019 
L 213.619695 75.354959 
L 212.619695 75.400732 
L 211.619695 75.462015 
L 210.619695 75.510514 
L 209.619695 75.591337 
L 208.619695 75.709856 
L 207.619695 75.780067 
L 206.619695 75.863329 
L 205.619695 75.896471 
L 204.619695 75.947708 
L 203.619695 76.016107 
L 202.619695 76.082322 
L 201.619695 76.159239 
L 200.299442 76.186555 
" clip-path="url(#p4a2d484d8e)" style="fill: none; stroke: #ff7f0e; stroke-opacity: 0.5; stroke-width: 0.2; stroke-linecap: square"/>
   <path d="M 256.619695 39.021964 
L 255.619695 38.990527 
L 254.619695 38.953587 
L 253.619695 38.85584 
L 252.619695 38.823319 
L 251.619695 38.749694 
L 250.619695 38.711129 
L 249.619695 38.675715 
L 248.619695 38.618075 
L 247.619695 38.547689 
L 246.619695 38.495725 
L 245.619695 38.436635 
L 244.619695 38.348314 
L 243.619695 38.30217 
L 242.619695 38.259759 
L 241.619695 38.229266 
L 240.619695 38.203221 
L 239.619695 38.182021 
L 238.619695 38.12772 
L 237.619695 38.099783 
L 236.619695 38.070059 
L 235.619695 38.044664 
L 234.619695 38.033464 
L 233.619695 38.02334 
L 232.619695 38.023544 
L 231.619695 38.033054 
L 230.619695 38.044707 
L 229.619695 38.075737 
L 228.619695 38.086905 
L 227.619695 38.117022 
L 226.619695 38.176799 
L 225.619695 38.213991 
L 224.619695 38.253087 
L 223.619695 38.295526 
L 222.619695 38.328291 
L 221.619695 38.395718 
L 220.619695 38.434844 
L 219.619695 38.477518 
L 218.619695 38.548099 
L 217.619695 38.58449 
L 216.619695 38.642893 
L 215.619695 38.753846 
L 214.619695 38.824504 
L 213.619695 38.937444 
L 212.619695 38.983217 
L 211.619695 39.0445 
L 210.619695 39.092999 
L 209.619695 39.173822 
L 208.619695 39.292341 
L 207.619695 39.362551 
L 206.619695 39.445814 
L 205.619695 39.478956 
L 204.619695 39.530193 
L 203.619695 39.598591 
L 202.619695 39.664807 
L 201.619695 39.741724 
L 200.299442 39.769039 
" clip-path="url(#p4a2d484d8e)" style="fill: none; stroke: #ff7f0e; stroke-opacity: 0.5; stroke-width: 0.2; stroke-linecap: square"/>
   <path d="M 256.619695 77.355203 
L 255.619695 77.323766 
L 254.619695 77.286826 
L 253.619695 77.189079 
L 252.619695 77.156558 
L 251.619695 77.082933 
L 250.619695 77.044367 
L 249.619695 77.008954 
L 248.619695 76.951314 
L 247.619695 76.880928 
L 246.619695 76.828964 
L 245.619695 76.769874 
L 244.619695 76.681553 
L 243.619695 76.635409 
L 242.619695 76.592998 
L 241.619695 76.562505 
L 240.619695 76.53646 
L 239.619695 76.51526 
L 238.619695 76.460959 
L 237.619695 76.433022 
L 236.619695 76.403298 
L 235.619695 76.377903 
L 234.619695 76.366702 
L 233.619695 76.356578 
L 232.619695 76.356783 
L 231.619695 76.366293 
L 230.619695 76.377946 
L 229.619695 76.408976 
L 228.619695 76.420143 
L 227.619695 76.450261 
L 226.619695 76.510038 
L 225.619695 76.547229 
L 224.619695 76.586326 
L 223.619695 76.628765 
L 222.619695 76.66153 
L 221.619695 76.728957 
L 220.619695 76.768083 
L 219.619695 76.810757 
L 218.619695 76.881338 
L 217.619695 76.917729 
L 216.619695 76.976132 
L 215.619695 77.087084 
L 214.619695 77.157743 
L 213.619695 77.270683 
L 212.619695 77.316455 
L 211.619695 77.377739 
L 210.619695 77.426238 
L 209.619695 77.507061 
L 208.619695 77.62558 
L 207.619695 77.69579 
L 206.619695 77.779053 
L 205.619695 77.812195 
L 204.619695 77.863432 
L 203.619695 77.93183 
L 202.619695 77.998046 
L 201.619695 78.074963 
L 200.299442 78.102278 
" clip-path="url(#p4a2d484d8e)" style="fill: none; stroke: #ff7f0e; stroke-opacity: 0.5; stroke-width: 0.2; stroke-linecap: square"/>
   <path d="M 256.619695 239.594929 
L 255.619695 239.563492 
L 254.619695 239.526552 
L 253.619695 239.428805 
L 252.619695 239.396284 
L 251.619695 239.322659 
L 250.619695 239.284093 
L 249.619695 239.24868 
L 248.619695 239.19104 
L 247.619695 239.120654 
L 246.619695 239.06869 
L 245.619695 239.0096 
L 244.619695 238.921279 
L 243.619695 238.875135 
L 242.619695 238.832724 
L 241.619695 238.802231 
L 240.619695 238.776186 
L 239.619695 238.754986 
L 238.619695 238.700685 
L 237.619695 238.672748 
L 236.619695 238.643024 
L 235.619695 238.617629 
L 234.619695 238.606428 
L 233.619695 238.596305 
L 232.619695 238.596509 
L 231.619695 238.606019 
L 230.619695 238.617672 
L 229.619695 238.648702 
L 228.619695 238.659869 
L 227.619695 238.689987 
L 226.619695 238.749764 
L 225.619695 238.786955 
L 224.619695 238.826052 
L 223.619695 238.868491 
L 222.619695 238.901256 
L 221.619695 238.968683 
L 220.619695 239.007809 
L 219.619695 239.050483 
L 218.619695 239.121064 
L 217.619695 239.157455 
L 216.619695 239.215858 
L 215.619695 239.32681 
L 214.619695 239.397469 
L 213.619695 239.510409 
L 212.619695 239.556181 
L 211.619695 239.617465 
L 210.619695 239.665964 
L 209.619695 239.746787 
L 208.619695 239.865306 
L 207.619695 239.935516 
L 206.619695 240.018779 
L 205.619695 240.051921 
L 204.619695 240.103158 
L 203.619695 240.171556 
L 202.619695 240.237772 
L 201.619695 240.314689 
L 200.299442 240.342004 
" clip-path="url(#p4a2d484d8e)" style="fill: none; stroke: #ff7f0e; stroke-opacity: 0.5; stroke-width: 0.2; stroke-linecap: square"/>
   <path d="M 256.619695 170.14922 
L 255.619695 170.117784 
L 254.619695 170.080844 
L 253.619695 169.983097 
L 252.619695 169.950576 
L 251.619695 169.876951 
L 250.619695 169.838385 
L 249.619695 169.802972 
L 248.619695 169.745332 
L 247.619695 169.674946 
L 246.619695 169.622982 
L 245.619695 169.563892 
L 244.619695 169.475571 
L 243.619695 169.429427 
L 242.619695 169.387016 
L 241.619695 169.356523 
L 240.619695 169.330478 
L 239.619695 169.309278 
L 238.619695 169.254977 
L 237.619695 169.227039 
L 236.619695 169.197315 
L 235.619695 169.171921 
L 234.619695 169.16072 
L 233.619695 169.150596 
L 232.619695 169.150801 
L 231.619695 169.160311 
L 230.619695 169.171964 
L 229.619695 169.202993 
L 228.619695 169.214161 
L 227.619695 169.244279 
L 226.619695 169.304056 
L 225.619695 169.341247 
L 224.619695 169.380343 
L 223.619695 169.422783 
L 222.619695 169.455548 
L 221.619695 169.522975 
L 220.619695 169.5621 
L 219.619695 169.604775 
L 218.619695 169.675356 
L 217.619695 169.711746 
L 216.619695 169.77015 
L 215.619695 169.881102 
L 214.619695 169.951761 
L 213.619695 170.0647 
L 212.619695 170.110473 
L 211.619695 170.171757 
L 210.619695 170.220256 
L 209.619695 170.301079 
L 208.619695 170.419597 
L 207.619695 170.489808 
L 206.619695 170.573071 
L 205.619695 170.606212 
L 204.619695 170.65745 
L 203.619695 170.725848 
L 202.619695 170.792063 
L 201.619695 170.86898 
L 200.299442 170.896296 
" clip-path="url(#p4a2d484d8e)" style="fill: none; stroke: #ff7f0e; stroke-opacity: 0.5; stroke-width: 0.2; stroke-linecap: square"/>
   <path d="M 256.619695 282.391775 
L 255.619695 282.360339 
L 254.619695 282.323398 
L 253.619695 282.225652 
L 252.619695 282.19313 
L 251.619695 282.119506 
L 250.619695 282.08094 
L 249.619695 282.045527 
L 248.619695 281.987887 
L 247.619695 281.917501 
L 246.619695 281.865536 
L 245.619695 281.806447 
L 244.619695 281.718126 
L 243.619695 281.671981 
L 242.619695 281.62957 
L 241.619695 281.599078 
L 240.619695 281.573033 
L 239.619695 281.551833 
L 238.619695 281.497532 
L 237.619695 281.469594 
L 236.619695 281.43987 
L 235.619695 281.414475 
L 234.619695 281.403275 
L 233.619695 281.393151 
L 232.619695 281.393355 
L 231.619695 281.402865 
L 230.619695 281.414519 
L 229.619695 281.445548 
L 228.619695 281.456716 
L 227.619695 281.486833 
L 226.619695 281.54661 
L 225.619695 281.583802 
L 224.619695 281.622898 
L 223.619695 281.665338 
L 222.619695 281.698103 
L 221.619695 281.765529 
L 220.619695 281.804655 
L 219.619695 281.84733 
L 218.619695 281.91791 
L 217.619695 281.954301 
L 216.619695 282.012704 
L 215.619695 282.123657 
L 214.619695 282.194315 
L 213.619695 282.307255 
L 212.619695 282.353028 
L 211.619695 282.414311 
L 210.619695 282.46281 
L 209.619695 282.543633 
L 208.619695 282.662152 
L 207.619695 282.732363 
L 206.619695 282.815625 
L 205.619695 282.848767 
L 204.619695 282.900004 
L 203.619695 282.968403 
L 202.619695 283.034618 
L 201.619695 283.111535 
L 200.299442 283.138851 
" clip-path="url(#p4a2d484d8e)" style="fill: none; stroke: #ff7f0e; stroke-opacity: 0.5; stroke-width: 0.2; stroke-linecap: square"/>
   <path d="M 256.619695 270.873013 
L 255.619695 270.841576 
L 254.619695 270.804636 
L 253.619695 270.70689 
L 252.619695 270.674368 
L 251.619695 270.600743 
L 250.619695 270.562178 
L 249.619695 270.526765 
L 248.619695 270.469125 
L 247.619695 270.398738 
L 246.619695 270.346774 
L 245.619695 270.287684 
L 244.619695 270.199363 
L 243.619695 270.153219 
L 242.619695 270.110808 
L 241.619695 270.080316 
L 240.619695 270.054271 
L 239.619695 270.03307 
L 238.619695 269.978769 
L 237.619695 269.950832 
L 236.619695 269.921108 
L 235.619695 269.895713 
L 234.619695 269.884513 
L 233.619695 269.874389 
L 232.619695 269.874593 
L 231.619695 269.884103 
L 230.619695 269.895756 
L 229.619695 269.926786 
L 228.619695 269.937954 
L 227.619695 269.968071 
L 226.619695 270.027848 
L 225.619695 270.06504 
L 224.619695 270.104136 
L 223.619695 270.146575 
L 222.619695 270.17934 
L 221.619695 270.246767 
L 220.619695 270.285893 
L 219.619695 270.328567 
L 218.619695 270.399148 
L 217.619695 270.435539 
L 216.619695 270.493942 
L 215.619695 270.604895 
L 214.619695 270.675553 
L 213.619695 270.788493 
L 212.619695 270.834266 
L 211.619695 270.895549 
L 210.619695 270.944048 
L 209.619695 271.024871 
L 208.619695 271.14339 
L 207.619695 271.2136 
L 206.619695 271.296863 
L 205.619695 271.330005 
L 204.619695 271.381242 
L 203.619695 271.44964 
L 202.619695 271.515856 
L 201.619695 271.592773 
L 200.299442 271.620088 
" clip-path="url(#p4a2d484d8e)" style="fill: none; stroke: #ff7f0e; stroke-opacity: 0.5; stroke-width: 0.2; stroke-linecap: square"/>
   <path d="M 390.34593 33.501497 
L 391.34593 33.532934 
L 392.34593 33.569874 
L 393.34593 33.667621 
L 394.34593 33.700142 
L 395.34593 33.773767 
L 396.34593 33.812332 
L 397.34593 33.847746 
L 398.34593 33.905385 
L 399.34593 33.975772 
L 400.34593 34.027736 
L 401.34593 34.086826 
L 402.34593 34.175147 
L 403.34593 34.221291 
L 404.34593 34.263702 
L 405.34593 34.294195 
L 406.34593 34.320239 
L 407.34593 34.34144 
L 408.34593 34.395741 
L 409.34593 34.423678 
L 410.34593 34.453402 
L 411.34593 34.478797 
L 412.34593 34.489997 
L 413.34593 34.500121 
L 414.34593 34.499917 
L 415.34593 34.490407 
L 416.34593 34.478754 
L 417.34593 34.447724 
L 418.34593 34.436556 
L 419.34593 34.406439 
L 420.34593 34.346662 
L 421.34593 34.30947 
L 422.34593 34.270374 
L 423.34593 34.227935 
L 424.34593 34.19517 
L 425.34593 34.127743 
L 426.34593 34.088617 
L 427.34593 34.045943 
L 428.34593 33.975362 
L 429.34593 33.938971 
L 430.34593 33.880568 
L 431.34593 33.769615 
L 432.34593 33.698957 
L 433.34593 33.586017 
L 434.34593 33.540244 
L 435.34593 33.478961 
L 436.34593 33.430462 
L 437.34593 33.349639 
L 438.34593 33.23112 
L 439.34593 33.16091 
L 440.34593 33.077647 
L 441.34593 33.044505 
L 442.34593 32.993268 
L 443.34593 32.92487 
L 444.34593 32.858654 
L 445.34593 32.781737 
L 446.666183 32.754422 
" clip-path="url(#p4a2d484d8e)" style="fill: none; stroke: #ff7f0e; stroke-opacity: 0.5; stroke-width: 0.2; stroke-linecap: square"/>
   <path d="M 390.34593 76.200452 
L 391.34593 76.231888 
L 392.34593 76.268828 
L 393.34593 76.366575 
L 394.34593 76.399096 
L 395.34593 76.472721 
L 396.34593 76.511287 
L 397.34593 76.5467 
L 398.34593 76.60434 
L 399.34593 76.674726 
L 400.34593 76.72669 
L 401.34593 76.78578 
L 402.34593 76.874101 
L 403.34593 76.920245 
L 404.34593 76.962656 
L 405.34593 76.993149 
L 406.34593 77.019194 
L 407.34593 77.040394 
L 408.34593 77.094695 
L 409.34593 77.122633 
L 410.34593 77.152357 
L 411.34593 77.177751 
L 412.34593 77.188952 
L 413.34593 77.199076 
L 414.34593 77.198871 
L 415.34593 77.189362 
L 416.34593 77.177708 
L 417.34593 77.146679 
L 418.34593 77.135511 
L 419.34593 77.105393 
L 420.34593 77.045616 
L 421.34593 77.008425 
L 422.34593 76.969329 
L 423.34593 76.926889 
L 424.34593 76.894124 
L 425.34593 76.826697 
L 426.34593 76.787572 
L 427.34593 76.744897 
L 428.34593 76.674316 
L 429.34593 76.637926 
L 430.34593 76.579522 
L 431.34593 76.46857 
L 432.34593 76.397911 
L 433.34593 76.284972 
L 434.34593 76.239199 
L 435.34593 76.177916 
L 436.34593 76.129416 
L 437.34593 76.048594 
L 438.34593 75.930075 
L 439.34593 75.859864 
L 440.34593 75.776601 
L 441.34593 75.74346 
L 442.34593 75.692222 
L 443.34593 75.623824 
L 444.34593 75.557609 
L 445.34593 75.480692 
L 446.666183 75.453376 
" clip-path="url(#p4a2d484d8e)" style="fill: none; stroke: #ff7f0e; stroke-opacity: 0.5; stroke-width: 0.2; stroke-linecap: square"/>
   <path d="M 390.34593 263.969085 
L 391.34593 264.000522 
L 392.34593 264.037462 
L 393.34593 264.135209 
L 394.34593 264.16773 
L 395.34593 264.241355 
L 396.34593 264.279921 
L 397.34593 264.315334 
L 398.34593 264.372974 
L 399.34593 264.44336 
L 400.34593 264.495324 
L 401.34593 264.554414 
L 402.34593 264.642735 
L 403.34593 264.688879 
L 404.34593 264.73129 
L 405.34593 264.761783 
L 406.34593 264.787828 
L 407.34593 264.809028 
L 408.34593 264.863329 
L 409.34593 264.891266 
L 410.34593 264.92099 
L 411.34593 264.946385 
L 412.34593 264.957586 
L 413.34593 264.96771 
L 414.34593 264.967505 
L 415.34593 264.957995 
L 416.34593 264.946342 
L 417.34593 264.915313 
L 418.34593 264.904145 
L 419.34593 264.874027 
L 420.34593 264.81425 
L 421.34593 264.777059 
L 422.34593 264.737963 
L 423.34593 264.695523 
L 424.34593 264.662758 
L 425.34593 264.595331 
L 426.34593 264.556205 
L 427.34593 264.513531 
L 428.34593 264.44295 
L 429.34593 264.406559 
L 430.34593 264.348156 
L 431.34593 264.237204 
L 432.34593 264.166545 
L 433.34593 264.053605 
L 434.34593 264.007833 
L 435.34593 263.946549 
L 436.34593 263.89805 
L 437.34593 263.817227 
L 438.34593 263.698708 
L 439.34593 263.628498 
L 440.34593 263.545235 
L 441.34593 263.512094 
L 442.34593 263.460856 
L 443.34593 263.392458 
L 444.34593 263.326242 
L 445.34593 263.249325 
L 446.666183 263.22201 
" clip-path="url(#p4a2d484d8e)" style="fill: none; stroke: #ff7f0e; stroke-opacity: 0.5; stroke-width: 0.2; stroke-linecap: square"/>
   <path d="M 390.34593 303.281662 
L 391.34593 303.313098 
L 392.34593 303.350038 
L 393.34593 303.447785 
L 394.34593 303.480307 
L 395.34593 303.553931 
L 396.34593 303.592497 
L 397.34593 303.62791 
L 398.34593 303.68555 
L 399.34593 303.755936 
L 400.34593 303.8079 
L 401.34593 303.86699 
L 402.34593 303.955311 
L 403.34593 304.001455 
L 404.34593 304.043866 
L 405.34593 304.074359 
L 406.34593 304.100404 
L 407.34593 304.121604 
L 408.34593 304.175905 
L 409.34593 304.203843 
L 410.34593 304.233567 
L 411.34593 304.258961 
L 412.34593 304.270162 
L 413.34593 304.280286 
L 414.34593 304.280081 
L 415.34593 304.270572 
L 416.34593 304.258918 
L 417.34593 304.227889 
L 418.34593 304.216721 
L 419.34593 304.186603 
L 420.34593 304.126826 
L 421.34593 304.089635 
L 422.34593 304.050539 
L 423.34593 304.008099 
L 424.34593 303.975334 
L 425.34593 303.907908 
L 426.34593 303.868782 
L 427.34593 303.826107 
L 428.34593 303.755526 
L 429.34593 303.719136 
L 430.34593 303.660732 
L 431.34593 303.54978 
L 432.34593 303.479122 
L 433.34593 303.366182 
L 434.34593 303.320409 
L 435.34593 303.259126 
L 436.34593 303.210626 
L 437.34593 303.129804 
L 438.34593 303.011285 
L 439.34593 302.941074 
L 440.34593 302.857812 
L 441.34593 302.82467 
L 442.34593 302.773432 
L 443.34593 302.705034 
L 444.34593 302.638819 
L 445.34593 302.561902 
L 446.666183 302.534586 
" clip-path="url(#p4a2d484d8e)" style="fill: none; stroke: #ff7f0e; stroke-opacity: 0.5; stroke-width: 0.2; stroke-linecap: square"/>
   <path d="M 390.34593 43.924494 
L 391.34593 43.955931 
L 392.34593 43.992871 
L 393.34593 44.090618 
L 394.34593 44.123139 
L 395.34593 44.196764 
L 396.34593 44.23533 
L 397.34593 44.270743 
L 398.34593 44.328383 
L 399.34593 44.398769 
L 400.34593 44.450733 
L 401.34593 44.509823 
L 402.34593 44.598144 
L 403.34593 44.644288 
L 404.34593 44.686699 
L 405.34593 44.717192 
L 406.34593 44.743237 
L 407.34593 44.764437 
L 408.34593 44.818738 
L 409.34593 44.846675 
L 410.34593 44.876399 
L 411.34593 44.901794 
L 412.34593 44.912995 
L 413.34593 44.923119 
L 414.34593 44.922914 
L 415.34593 44.913404 
L 416.34593 44.901751 
L 417.34593 44.870721 
L 418.34593 44.859554 
L 419.34593 44.829436 
L 420.34593 44.769659 
L 421.34593 44.732468 
L 422.34593 44.693371 
L 423.34593 44.650932 
L 424.34593 44.618167 
L 425.34593 44.55074 
L 426.34593 44.511614 
L 427.34593 44.46894 
L 428.34593 44.398359 
L 429.34593 44.361968 
L 430.34593 44.303565 
L 431.34593 44.192613 
L 432.34593 44.121954 
L 433.34593 44.009014 
L 434.34593 43.963242 
L 435.34593 43.901958 
L 436.34593 43.853459 
L 437.34593 43.772636 
L 438.34593 43.654117 
L 439.34593 43.583907 
L 440.34593 43.500644 
L 441.34593 43.467503 
L 442.34593 43.416265 
L 443.34593 43.347867 
L 444.34593 43.281651 
L 445.34593 43.204734 
L 446.666183 43.177419 
" clip-path="url(#p4a2d484d8e)" style="fill: none; stroke: #ff7f0e; stroke-opacity: 0.5; stroke-width: 0.2; stroke-linecap: square"/>
   <path d="M 390.34593 276.074192 
L 391.34593 276.105628 
L 392.34593 276.142569 
L 393.34593 276.240315 
L 394.34593 276.272837 
L 395.34593 276.346462 
L 396.34593 276.385027 
L 397.34593 276.42044 
L 398.34593 276.47808 
L 399.34593 276.548466 
L 400.34593 276.600431 
L 401.34593 276.65952 
L 402.34593 276.747841 
L 403.34593 276.793986 
L 404.34593 276.836397 
L 405.34593 276.866889 
L 406.34593 276.892934 
L 407.34593 276.914134 
L 408.34593 276.968435 
L 409.34593 276.996373 
L 410.34593 277.026097 
L 411.34593 277.051492 
L 412.34593 277.062692 
L 413.34593 277.072816 
L 414.34593 277.072612 
L 415.34593 277.063102 
L 416.34593 277.051448 
L 417.34593 277.020419 
L 418.34593 277.009251 
L 419.34593 276.979134 
L 420.34593 276.919357 
L 421.34593 276.882165 
L 422.34593 276.843069 
L 423.34593 276.800629 
L 424.34593 276.767864 
L 425.34593 276.700438 
L 426.34593 276.661312 
L 427.34593 276.618637 
L 428.34593 276.548057 
L 429.34593 276.511666 
L 430.34593 276.453263 
L 431.34593 276.34231 
L 432.34593 276.271652 
L 433.34593 276.158712 
L 434.34593 276.112939 
L 435.34593 276.051656 
L 436.34593 276.003157 
L 437.34593 275.922334 
L 438.34593 275.803815 
L 439.34593 275.733604 
L 440.34593 275.650342 
L 441.34593 275.6172 
L 442.34593 275.565963 
L 443.34593 275.497564 
L 444.34593 275.431349 
L 445.34593 275.354432 
L 446.666183 275.327116 
" clip-path="url(#p4a2d484d8e)" style="fill: none; stroke: #ff7f0e; stroke-opacity: 0.5; stroke-width: 0.2; stroke-linecap: square"/>
   <path d="M 390.34593 184.753285 
L 391.34593 184.784722 
L 392.34593 184.821662 
L 393.34593 184.919408 
L 394.34593 184.95193 
L 395.34593 185.025555 
L 396.34593 185.06412 
L 397.34593 185.099534 
L 398.34593 185.157173 
L 399.34593 185.22756 
L 400.34593 185.279524 
L 401.34593 185.338614 
L 402.34593 185.426935 
L 403.34593 185.473079 
L 404.34593 185.51549 
L 405.34593 185.545983 
L 406.34593 185.572027 
L 407.34593 185.593228 
L 408.34593 185.647529 
L 409.34593 185.675466 
L 410.34593 185.70519 
L 411.34593 185.730585 
L 412.34593 185.741785 
L 413.34593 185.751909 
L 414.34593 185.751705 
L 415.34593 185.742195 
L 416.34593 185.730542 
L 417.34593 185.699512 
L 418.34593 185.688344 
L 419.34593 185.658227 
L 420.34593 185.59845 
L 421.34593 185.561258 
L 422.34593 185.522162 
L 423.34593 185.479723 
L 424.34593 185.446958 
L 425.34593 185.379531 
L 426.34593 185.340405 
L 427.34593 185.297731 
L 428.34593 185.22715 
L 429.34593 185.190759 
L 430.34593 185.132356 
L 431.34593 185.021403 
L 432.34593 184.950745 
L 433.34593 184.837805 
L 434.34593 184.792032 
L 435.34593 184.730749 
L 436.34593 184.68225 
L 437.34593 184.601427 
L 438.34593 184.482908 
L 439.34593 184.412698 
L 440.34593 184.329435 
L 441.34593 184.296293 
L 442.34593 184.245056 
L 443.34593 184.176658 
L 444.34593 184.110442 
L 445.34593 184.033525 
L 446.666183 184.00621 
" clip-path="url(#p4a2d484d8e)" style="fill: none; stroke: #ff7f0e; stroke-opacity: 0.5; stroke-width: 0.2; stroke-linecap: square"/>
   <path d="M 390.34593 56.493844 
L 391.34593 56.52528 
L 392.34593 56.562221 
L 393.34593 56.659967 
L 394.34593 56.692489 
L 395.34593 56.766114 
L 396.34593 56.804679 
L 397.34593 56.840092 
L 398.34593 56.897732 
L 399.34593 56.968118 
L 400.34593 57.020083 
L 401.34593 57.079172 
L 402.34593 57.167493 
L 403.34593 57.213638 
L 404.34593 57.256049 
L 405.34593 57.286541 
L 406.34593 57.312586 
L 407.34593 57.333786 
L 408.34593 57.388087 
L 409.34593 57.416025 
L 410.34593 57.445749 
L 411.34593 57.471144 
L 412.34593 57.482344 
L 413.34593 57.492468 
L 414.34593 57.492264 
L 415.34593 57.482754 
L 416.34593 57.4711 
L 417.34593 57.440071 
L 418.34593 57.428903 
L 419.34593 57.398786 
L 420.34593 57.339009 
L 421.34593 57.301817 
L 422.34593 57.262721 
L 423.34593 57.220281 
L 424.34593 57.187516 
L 425.34593 57.12009 
L 426.34593 57.080964 
L 427.34593 57.038289 
L 428.34593 56.967709 
L 429.34593 56.931318 
L 430.34593 56.872915 
L 431.34593 56.761962 
L 432.34593 56.691304 
L 433.34593 56.578364 
L 434.34593 56.532591 
L 435.34593 56.471308 
L 436.34593 56.422809 
L 437.34593 56.341986 
L 438.34593 56.223467 
L 439.34593 56.153256 
L 440.34593 56.069994 
L 441.34593 56.036852 
L 442.34593 55.985615 
L 443.34593 55.917216 
L 444.34593 55.851001 
L 445.34593 55.774084 
L 446.666183 55.746768 
" clip-path="url(#p4a2d484d8e)" style="fill: none; stroke: #ff7f0e; stroke-opacity: 0.5; stroke-width: 0.2; stroke-linecap: square"/>
   <path d="M 390.34593 315.944321 
L 391.34593 315.975758 
L 392.34593 316.012698 
L 393.34593 316.110445 
L 394.34593 316.142966 
L 395.34593 316.216591 
L 396.34593 316.255156 
L 397.34593 316.29057 
L 398.34593 316.348209 
L 399.34593 316.418596 
L 400.34593 316.47056 
L 401.34593 316.52965 
L 402.34593 316.617971 
L 403.34593 316.664115 
L 404.34593 316.706526 
L 405.34593 316.737019 
L 406.34593 316.763063 
L 407.34593 316.784264 
L 408.34593 316.838565 
L 409.34593 316.866502 
L 410.34593 316.896226 
L 411.34593 316.921621 
L 412.34593 316.932821 
L 413.34593 316.942945 
L 414.34593 316.942741 
L 415.34593 316.933231 
L 416.34593 316.921578 
L 417.34593 316.890548 
L 418.34593 316.87938 
L 419.34593 316.849263 
L 420.34593 316.789486 
L 421.34593 316.752294 
L 422.34593 316.713198 
L 423.34593 316.670759 
L 424.34593 316.637994 
L 425.34593 316.570567 
L 426.34593 316.531441 
L 427.34593 316.488767 
L 428.34593 316.418186 
L 429.34593 316.381795 
L 430.34593 316.323392 
L 431.34593 316.212439 
L 432.34593 316.141781 
L 433.34593 316.028841 
L 434.34593 315.983068 
L 435.34593 315.921785 
L 436.34593 315.873286 
L 437.34593 315.792463 
L 438.34593 315.673944 
L 439.34593 315.603734 
L 440.34593 315.520471 
L 441.34593 315.487329 
L 442.34593 315.436092 
L 443.34593 315.367694 
L 444.34593 315.301478 
L 445.34593 315.224561 
L 446.666183 315.197246 
" clip-path="url(#p4a2d484d8e)" style="fill: none; stroke: #ff7f0e; stroke-opacity: 0.5; stroke-width: 0.2; stroke-linecap: square"/>
   <path d="M 390.34593 81.764515 
L 391.34593 81.795951 
L 392.34593 81.832891 
L 393.34593 81.930638 
L 394.34593 81.96316 
L 395.34593 82.036784 
L 396.34593 82.07535 
L 397.34593 82.110763 
L 398.34593 82.168403 
L 399.34593 82.238789 
L 400.34593 82.290753 
L 401.34593 82.349843 
L 402.34593 82.438164 
L 403.34593 82.484308 
L 404.34593 82.526719 
L 405.34593 82.557212 
L 406.34593 82.583257 
L 407.34593 82.604457 
L 408.34593 82.658758 
L 409.34593 82.686696 
L 410.34593 82.71642 
L 411.34593 82.741814 
L 412.34593 82.753015 
L 413.34593 82.763139 
L 414.34593 82.762934 
L 415.34593 82.753425 
L 416.34593 82.741771 
L 417.34593 82.710742 
L 418.34593 82.699574 
L 419.34593 82.669456 
L 420.34593 82.609679 
L 421.34593 82.572488 
L 422.34593 82.533392 
L 423.34593 82.490952 
L 424.34593 82.458187 
L 425.34593 82.39076 
L 426.34593 82.351635 
L 427.34593 82.30896 
L 428.34593 82.238379 
L 429.34593 82.201989 
L 430.34593 82.143585 
L 431.34593 82.032633 
L 432.34593 81.961974 
L 433.34593 81.849035 
L 434.34593 81.803262 
L 435.34593 81.741979 
L 436.34593 81.693479 
L 437.34593 81.612657 
L 438.34593 81.494138 
L 439.34593 81.423927 
L 440.34593 81.340665 
L 441.34593 81.307523 
L 442.34593 81.256285 
L 443.34593 81.187887 
L 444.34593 81.121672 
L 445.34593 81.044755 
L 446.666183 81.017439 
" clip-path="url(#p4a2d484d8e)" style="fill: none; stroke: #ff7f0e; stroke-opacity: 0.5; stroke-width: 0.2; stroke-linecap: square"/>
   <path d="M 446.666183 302.665664 
L 445.666183 302.634227 
L 444.666183 302.597287 
L 443.666183 302.49954 
L 442.666183 302.467019 
L 441.666183 302.393394 
L 440.666183 302.354828 
L 439.666183 302.319415 
L 438.666183 302.261775 
L 437.666183 302.191389 
L 436.666183 302.139425 
L 435.666183 302.080335 
L 434.666183 301.992014 
L 433.666183 301.94587 
L 432.666183 301.903459 
L 431.666183 301.872966 
L 430.666183 301.846921 
L 429.666183 301.825721 
L 428.666183 301.77142 
L 427.666183 301.743483 
L 426.666183 301.713759 
L 425.666183 301.688364 
L 424.666183 301.677163 
L 423.666183 301.667039 
L 422.666183 301.667244 
L 421.666183 301.676754 
L 420.666183 301.688407 
L 419.666183 301.719437 
L 418.666183 301.730604 
L 417.666183 301.760722 
L 416.666183 301.820499 
L 415.666183 301.85769 
L 414.666183 301.896787 
L 413.666183 301.939226 
L 412.666183 301.971991 
L 411.666183 302.039418 
L 410.666183 302.078544 
L 409.666183 302.121218 
L 408.666183 302.191799 
L 407.666183 302.22819 
L 406.666183 302.286593 
L 405.666183 302.397545 
L 404.666183 302.468204 
L 403.666183 302.581144 
L 402.666183 302.626916 
L 401.666183 302.6882 
L 400.666183 302.736699 
L 399.666183 302.817522 
L 398.666183 302.936041 
L 397.666183 303.006251 
L 396.666183 303.089514 
L 395.666183 303.122655 
L 394.666183 303.173893 
L 393.666183 303.242291 
L 392.666183 303.308507 
L 391.666183 303.385424 
L 390.34593 303.412739 
" clip-path="url(#p4a2d484d8e)" style="fill: none; stroke: #2ca02c; stroke-opacity: 0.5; stroke-width: 0.2; stroke-linecap: square"/>
   <path d="M 446.666183 88.586996 
L 445.666183 88.55556 
L 444.666183 88.51862 
L 443.666183 88.420873 
L 442.666183 88.388351 
L 441.666183 88.314727 
L 440.666183 88.276161 
L 439.666183 88.240748 
L 438.666183 88.183108 
L 437.666183 88.112722 
L 436.666183 88.060758 
L 435.666183 88.001668 
L 434.666183 87.913347 
L 433.666183 87.867203 
L 432.666183 87.824792 
L 431.666183 87.794299 
L 430.666183 87.768254 
L 429.666183 87.747054 
L 428.666183 87.692753 
L 427.666183 87.664815 
L 426.666183 87.635091 
L 425.666183 87.609697 
L 424.666183 87.598496 
L 423.666183 87.588372 
L 422.666183 87.588577 
L 421.666183 87.598086 
L 420.666183 87.60974 
L 419.666183 87.640769 
L 418.666183 87.651937 
L 417.666183 87.682055 
L 416.666183 87.741832 
L 415.666183 87.779023 
L 414.666183 87.818119 
L 413.666183 87.860559 
L 412.666183 87.893324 
L 411.666183 87.96075 
L 410.666183 87.999876 
L 409.666183 88.042551 
L 408.666183 88.113132 
L 407.666183 88.149522 
L 406.666183 88.207926 
L 405.666183 88.318878 
L 404.666183 88.389536 
L 403.666183 88.502476 
L 402.666183 88.548249 
L 401.666183 88.609532 
L 400.666183 88.658032 
L 399.666183 88.738854 
L 398.666183 88.857373 
L 397.666183 88.927584 
L 396.666183 89.010846 
L 395.666183 89.043988 
L 394.666183 89.095226 
L 393.666183 89.163624 
L 392.666183 89.229839 
L 391.666183 89.306756 
L 390.34593 89.334072 
" clip-path="url(#p4a2d484d8e)" style="fill: none; stroke: #2ca02c; stroke-opacity: 0.5; stroke-width: 0.2; stroke-linecap: square"/>
   <path d="M 446.666183 201.430612 
L 445.666183 201.399175 
L 444.666183 201.362235 
L 443.666183 201.264488 
L 442.666183 201.231967 
L 441.666183 201.158342 
L 440.666183 201.119776 
L 439.666183 201.084363 
L 438.666183 201.026723 
L 437.666183 200.956337 
L 436.666183 200.904373 
L 435.666183 200.845283 
L 434.666183 200.756962 
L 433.666183 200.710818 
L 432.666183 200.668407 
L 431.666183 200.637914 
L 430.666183 200.611869 
L 429.666183 200.590669 
L 428.666183 200.536368 
L 427.666183 200.508431 
L 426.666183 200.478707 
L 425.666183 200.453312 
L 424.666183 200.442111 
L 423.666183 200.431987 
L 422.666183 200.432192 
L 421.666183 200.441702 
L 420.666183 200.453355 
L 419.666183 200.484385 
L 418.666183 200.495552 
L 417.666183 200.52567 
L 416.666183 200.585447 
L 415.666183 200.622638 
L 414.666183 200.661735 
L 413.666183 200.704174 
L 412.666183 200.736939 
L 411.666183 200.804366 
L 410.666183 200.843492 
L 409.666183 200.886166 
L 408.666183 200.956747 
L 407.666183 200.993138 
L 406.666183 201.051541 
L 405.666183 201.162493 
L 404.666183 201.233152 
L 403.666183 201.346092 
L 402.666183 201.391864 
L 401.666183 201.453148 
L 400.666183 201.501647 
L 399.666183 201.58247 
L 398.666183 201.700989 
L 397.666183 201.771199 
L 396.666183 201.854462 
L 395.666183 201.887603 
L 394.666183 201.938841 
L 393.666183 202.007239 
L 392.666183 202.073455 
L 391.666183 202.150372 
L 390.34593 202.177687 
" clip-path="url(#p4a2d484d8e)" style="fill: none; stroke: #2ca02c; stroke-opacity: 0.5; stroke-width: 0.2; stroke-linecap: square"/>
   <path d="M 446.666183 34.622679 
L 445.666183 34.591243 
L 444.666183 34.554303 
L 443.666183 34.456556 
L 442.666183 34.424034 
L 441.666183 34.35041 
L 440.666183 34.311844 
L 439.666183 34.276431 
L 438.666183 34.218791 
L 437.666183 34.148405 
L 436.666183 34.096441 
L 435.666183 34.037351 
L 434.666183 33.94903 
L 433.666183 33.902886 
L 432.666183 33.860475 
L 431.666183 33.829982 
L 430.666183 33.803937 
L 429.666183 33.782737 
L 428.666183 33.728436 
L 427.666183 33.700498 
L 426.666183 33.670774 
L 425.666183 33.64538 
L 424.666183 33.634179 
L 423.666183 33.624055 
L 422.666183 33.62426 
L 421.666183 33.633769 
L 420.666183 33.645423 
L 419.666183 33.676452 
L 418.666183 33.68762 
L 417.666183 33.717738 
L 416.666183 33.777515 
L 415.666183 33.814706 
L 414.666183 33.853802 
L 413.666183 33.896242 
L 412.666183 33.929007 
L 411.666183 33.996434 
L 410.666183 34.035559 
L 409.666183 34.078234 
L 408.666183 34.148815 
L 407.666183 34.185205 
L 406.666183 34.243609 
L 405.666183 34.354561 
L 404.666183 34.425219 
L 403.666183 34.538159 
L 402.666183 34.583932 
L 401.666183 34.645215 
L 400.666183 34.693715 
L 399.666183 34.774537 
L 398.666183 34.893056 
L 397.666183 34.963267 
L 396.666183 35.046529 
L 395.666183 35.079671 
L 394.666183 35.130909 
L 393.666183 35.199307 
L 392.666183 35.265522 
L 391.666183 35.342439 
L 390.34593 35.369755 
" clip-path="url(#p4a2d484d8e)" style="fill: none; stroke: #2ca02c; stroke-opacity: 0.5; stroke-width: 0.2; stroke-linecap: square"/>
   <path d="M 446.666183 279.899103 
L 445.666183 279.867666 
L 444.666183 279.830726 
L 443.666183 279.732979 
L 442.666183 279.700458 
L 441.666183 279.626833 
L 440.666183 279.588267 
L 439.666183 279.552854 
L 438.666183 279.495214 
L 437.666183 279.424828 
L 436.666183 279.372864 
L 435.666183 279.313774 
L 434.666183 279.225453 
L 433.666183 279.179309 
L 432.666183 279.136898 
L 431.666183 279.106405 
L 430.666183 279.08036 
L 429.666183 279.05916 
L 428.666183 279.004859 
L 427.666183 278.976922 
L 426.666183 278.947198 
L 425.666183 278.921803 
L 424.666183 278.910602 
L 423.666183 278.900478 
L 422.666183 278.900683 
L 421.666183 278.910193 
L 420.666183 278.921846 
L 419.666183 278.952875 
L 418.666183 278.964043 
L 417.666183 278.994161 
L 416.666183 279.053938 
L 415.666183 279.091129 
L 414.666183 279.130225 
L 413.666183 279.172665 
L 412.666183 279.20543 
L 411.666183 279.272857 
L 410.666183 279.311983 
L 409.666183 279.354657 
L 408.666183 279.425238 
L 407.666183 279.461629 
L 406.666183 279.520032 
L 405.666183 279.630984 
L 404.666183 279.701643 
L 403.666183 279.814583 
L 402.666183 279.860355 
L 401.666183 279.921639 
L 400.666183 279.970138 
L 399.666183 280.050961 
L 398.666183 280.16948 
L 397.666183 280.23969 
L 396.666183 280.322953 
L 395.666183 280.356094 
L 394.666183 280.407332 
L 393.666183 280.47573 
L 392.666183 280.541946 
L 391.666183 280.618863 
L 390.34593 280.646178 
" clip-path="url(#p4a2d484d8e)" style="fill: none; stroke: #2ca02c; stroke-opacity: 0.5; stroke-width: 0.2; stroke-linecap: square"/>
   <path d="M 446.666183 263.754599 
L 445.666183 263.723163 
L 444.666183 263.686223 
L 443.666183 263.588476 
L 442.666183 263.555955 
L 441.666183 263.48233 
L 440.666183 263.443764 
L 439.666183 263.408351 
L 438.666183 263.350711 
L 437.666183 263.280325 
L 436.666183 263.228361 
L 435.666183 263.169271 
L 434.666183 263.08095 
L 433.666183 263.034806 
L 432.666183 262.992395 
L 431.666183 262.961902 
L 430.666183 262.935857 
L 429.666183 262.914657 
L 428.666183 262.860356 
L 427.666183 262.832418 
L 426.666183 262.802694 
L 425.666183 262.7773 
L 424.666183 262.766099 
L 423.666183 262.755975 
L 422.666183 262.75618 
L 421.666183 262.765689 
L 420.666183 262.777343 
L 419.666183 262.808372 
L 418.666183 262.81954 
L 417.666183 262.849658 
L 416.666183 262.909435 
L 415.666183 262.946626 
L 414.666183 262.985722 
L 413.666183 263.028162 
L 412.666183 263.060927 
L 411.666183 263.128354 
L 410.666183 263.167479 
L 409.666183 263.210154 
L 408.666183 263.280735 
L 407.666183 263.317125 
L 406.666183 263.375529 
L 405.666183 263.486481 
L 404.666183 263.55714 
L 403.666183 263.670079 
L 402.666183 263.715852 
L 401.666183 263.777135 
L 400.666183 263.825635 
L 399.666183 263.906457 
L 398.666183 264.024976 
L 397.666183 264.095187 
L 396.666183 264.17845 
L 395.666183 264.211591 
L 394.666183 264.262829 
L 393.666183 264.331227 
L 392.666183 264.397442 
L 391.666183 264.474359 
L 390.34593 264.501675 
" clip-path="url(#p4a2d484d8e)" style="fill: none; stroke: #2ca02c; stroke-opacity: 0.5; stroke-width: 0.2; stroke-linecap: square"/>
   <path d="M 446.666183 179.118856 
L 445.666183 179.08742 
L 444.666183 179.05048 
L 443.666183 178.952733 
L 442.666183 178.920212 
L 441.666183 178.846587 
L 440.666183 178.808021 
L 439.666183 178.772608 
L 438.666183 178.714968 
L 437.666183 178.644582 
L 436.666183 178.592618 
L 435.666183 178.533528 
L 434.666183 178.445207 
L 433.666183 178.399063 
L 432.666183 178.356652 
L 431.666183 178.326159 
L 430.666183 178.300114 
L 429.666183 178.278914 
L 428.666183 178.224613 
L 427.666183 178.196675 
L 426.666183 178.166951 
L 425.666183 178.141557 
L 424.666183 178.130356 
L 423.666183 178.120232 
L 422.666183 178.120437 
L 421.666183 178.129946 
L 420.666183 178.1416 
L 419.666183 178.172629 
L 418.666183 178.183797 
L 417.666183 178.213915 
L 416.666183 178.273692 
L 415.666183 178.310883 
L 414.666183 178.349979 
L 413.666183 178.392419 
L 412.666183 178.425184 
L 411.666183 178.492611 
L 410.666183 178.531736 
L 409.666183 178.574411 
L 408.666183 178.644992 
L 407.666183 178.681382 
L 406.666183 178.739786 
L 405.666183 178.850738 
L 404.666183 178.921397 
L 403.666183 179.034336 
L 402.666183 179.080109 
L 401.666183 179.141392 
L 400.666183 179.189892 
L 399.666183 179.270715 
L 398.666183 179.389233 
L 397.666183 179.459444 
L 396.666183 179.542707 
L 395.666183 179.575848 
L 394.666183 179.627086 
L 393.666183 179.695484 
L 392.666183 179.761699 
L 391.666183 179.838616 
L 390.34593 179.865932 
" clip-path="url(#p4a2d484d8e)" style="fill: none; stroke: #2ca02c; stroke-opacity: 0.5; stroke-width: 0.2; stroke-linecap: square"/>
   <path d="M 446.666183 150.348449 
L 445.666183 150.317013 
L 444.666183 150.280073 
L 443.666183 150.182326 
L 442.666183 150.149805 
L 441.666183 150.07618 
L 440.666183 150.037614 
L 439.666183 150.002201 
L 438.666183 149.944561 
L 437.666183 149.874175 
L 436.666183 149.822211 
L 435.666183 149.763121 
L 434.666183 149.6748 
L 433.666183 149.628656 
L 432.666183 149.586245 
L 431.666183 149.555752 
L 430.666183 149.529707 
L 429.666183 149.508507 
L 428.666183 149.454206 
L 427.666183 149.426268 
L 426.666183 149.396544 
L 425.666183 149.37115 
L 424.666183 149.359949 
L 423.666183 149.349825 
L 422.666183 149.35003 
L 421.666183 149.35954 
L 420.666183 149.371193 
L 419.666183 149.402222 
L 418.666183 149.41339 
L 417.666183 149.443508 
L 416.666183 149.503285 
L 415.666183 149.540476 
L 414.666183 149.579572 
L 413.666183 149.622012 
L 412.666183 149.654777 
L 411.666183 149.722204 
L 410.666183 149.76133 
L 409.666183 149.804004 
L 408.666183 149.874585 
L 407.666183 149.910976 
L 406.666183 149.969379 
L 405.666183 150.080331 
L 404.666183 150.15099 
L 403.666183 150.263929 
L 402.666183 150.309702 
L 401.666183 150.370986 
L 400.666183 150.419485 
L 399.666183 150.500308 
L 398.666183 150.618826 
L 397.666183 150.689037 
L 396.666183 150.7723 
L 395.666183 150.805441 
L 394.666183 150.856679 
L 393.666183 150.925077 
L 392.666183 150.991292 
L 391.666183 151.06821 
L 390.34593 151.095525 
" clip-path="url(#p4a2d484d8e)" style="fill: none; stroke: #2ca02c; stroke-opacity: 0.5; stroke-width: 0.2; stroke-linecap: square"/>
   <path d="M 446.666183 39.061795 
L 445.666183 39.030359 
L 444.666183 38.993418 
L 443.666183 38.895672 
L 442.666183 38.86315 
L 441.666183 38.789526 
L 440.666183 38.75096 
L 439.666183 38.715547 
L 438.666183 38.657907 
L 437.666183 38.587521 
L 436.666183 38.535556 
L 435.666183 38.476467 
L 434.666183 38.388146 
L 433.666183 38.342001 
L 432.666183 38.299591 
L 431.666183 38.269098 
L 430.666183 38.243053 
L 429.666183 38.221853 
L 428.666183 38.167552 
L 427.666183 38.139614 
L 426.666183 38.10989 
L 425.666183 38.084495 
L 424.666183 38.073295 
L 423.666183 38.063171 
L 422.666183 38.063375 
L 421.666183 38.072885 
L 420.666183 38.084539 
L 419.666183 38.115568 
L 418.666183 38.126736 
L 417.666183 38.156854 
L 416.666183 38.21663 
L 415.666183 38.253822 
L 414.666183 38.292918 
L 413.666183 38.335358 
L 412.666183 38.368123 
L 411.666183 38.435549 
L 410.666183 38.474675 
L 409.666183 38.51735 
L 408.666183 38.58793 
L 407.666183 38.624321 
L 406.666183 38.682724 
L 405.666183 38.793677 
L 404.666183 38.864335 
L 403.666183 38.977275 
L 402.666183 39.023048 
L 401.666183 39.084331 
L 400.666183 39.132831 
L 399.666183 39.213653 
L 398.666183 39.332172 
L 397.666183 39.402383 
L 396.666183 39.485645 
L 395.666183 39.518787 
L 394.666183 39.570024 
L 393.666183 39.638423 
L 392.666183 39.704638 
L 391.666183 39.781555 
L 390.34593 39.808871 
" clip-path="url(#p4a2d484d8e)" style="fill: none; stroke: #2ca02c; stroke-opacity: 0.5; stroke-width: 0.2; stroke-linecap: square"/>
   <path d="M 446.666183 262.374349 
L 445.666183 262.342913 
L 444.666183 262.305973 
L 443.666183 262.208226 
L 442.666183 262.175704 
L 441.666183 262.10208 
L 440.666183 262.063514 
L 439.666183 262.028101 
L 438.666183 261.970461 
L 437.666183 261.900075 
L 436.666183 261.848111 
L 435.666183 261.789021 
L 434.666183 261.7007 
L 433.666183 261.654556 
L 432.666183 261.612145 
L 431.666183 261.581652 
L 430.666183 261.555607 
L 429.666183 261.534407 
L 428.666183 261.480106 
L 427.666183 261.452168 
L 426.666183 261.422444 
L 425.666183 261.39705 
L 424.666183 261.385849 
L 423.666183 261.375725 
L 422.666183 261.37593 
L 421.666183 261.385439 
L 420.666183 261.397093 
L 419.666183 261.428122 
L 418.666183 261.43929 
L 417.666183 261.469408 
L 416.666183 261.529185 
L 415.666183 261.566376 
L 414.666183 261.605472 
L 413.666183 261.647912 
L 412.666183 261.680677 
L 411.666183 261.748103 
L 410.666183 261.787229 
L 409.666183 261.829904 
L 408.666183 261.900485 
L 407.666183 261.936875 
L 406.666183 261.995279 
L 405.666183 262.106231 
L 404.666183 262.176889 
L 403.666183 262.289829 
L 402.666183 262.335602 
L 401.666183 262.396885 
L 400.666183 262.445385 
L 399.666183 262.526207 
L 398.666183 262.644726 
L 397.666183 262.714937 
L 396.666183 262.798199 
L 395.666183 262.831341 
L 394.666183 262.882579 
L 393.666183 262.950977 
L 392.666183 263.017192 
L 391.666183 263.094109 
L 390.34593 263.121425 
" clip-path="url(#p4a2d484d8e)" style="fill: none; stroke: #2ca02c; stroke-opacity: 0.5; stroke-width: 0.2; stroke-linecap: square"/>
   <g id="patch_3">
    <path d="M 72.103551 22.318125 
L 72.103551 318.021875 
M 194.769098 22.318125 
L 194.769098 318.021875 
" clip-path="url(#p4a2d484d8e)" style="fill: none; stroke: #ffffff; stroke-width: 3; stroke-linejoin: miter"/>
    <path d="M 72.103551 22.318125 
L 72.103551 318.021875 
M 194.769098 22.318125 
L 194.769098 318.021875 
" clip-path="url(#p4a2d484d8e)" style="fill: none; stroke: #1f77b4; stroke-linejoin: miter"/>
    <g id="PolyCollection_1">
     <path d="M 194.769098 22.318125 
L 72.103551 22.318125 
L 72.103551 318.021875 
L 194.769098 318.021875 
L 194.769098 318.021875 
L 194.769098 22.318125 
z
" clip-path="url(#p4a2d484d8e)" style="fill: #1f77b4; fill-opacity: 0.5"/>
    </g>
    <g id="patch_4">
     <path d="M 262.150039 22.318125 
L 262.150039 318.021875 
M 384.815586 22.318125 
L 384.815586 318.021875 
" clip-path="url(#p4a2d484d8e)" style="fill: none; stroke: #ffffff; stroke-width: 3; stroke-linejoin: miter"/>
     <path d="M 262.150039 22.318125 
L 262.150039 318.021875 
M 384.815586 22.318125 
L 384.815586 318.021875 
" clip-path="url(#p4a2d484d8e)" style="fill: none; stroke: #ff7f0e; stroke-linejoin: miter"/>
     <g id="PolyCollection_2">
      <path d="M 384.815586 22.318125 
L 262.150039 22.318125 
L 262.150039 318.021875 
L 384.815586 318.021875 
L 384.815586 318.021875 
L 384.815586 22.318125 
z
" clip-path="url(#p4a2d484d8e)" style="fill: #ff7f0e; fill-opacity: 0.5"/>
     </g>
     <g id="patch_5">
      <path d="M 452.196527 22.318125 
L 452.196527 318.021875 
M 574.862074 22.318125 
L 574.862074 318.021875 
" clip-path="url(#p4a2d484d8e)" style="fill: none; stroke: #ffffff; stroke-width: 3; stroke-linejoin: miter"/>
      <path d="M 452.196527 22.318125 
L 452.196527 318.021875 
M 574.862074 22.318125 
L 574.862074 318.021875 
" clip-path="url(#p4a2d484d8e)" style="fill: none; stroke: #2ca02c; stroke-linejoin: miter"/>
      <g id="PolyCollection_3">
       <path d="M 574.862074 22.318125 
L 452.196527 22.318125 
L 452.196527 318.021875 
L 574.862074 318.021875 
L 574.862074 318.021875 
L 574.862074 22.318125 
z
" clip-path="url(#p4a2d484d8e)" style="fill: #2ca02c; fill-opacity: 0.5"/>
      </g>
      <g id="matplotlib.axis_1">
       <g id="xtick_1">
        <g id="line2d_1"/>
        <g id="text_1">
         <!-- deme1 -->
         <g transform="translate(116.057418 329.120312) scale(0.1 -0.1)">
          <defs>
           <path id="DejaVuSans-64" d="M 2906 2969 
L 2906 4863 
L 3481 4863 
L 3481 0 
L 2906 0 
L 2906 525 
Q 2725 213 2448 61 
Q 2172 -91 1784 -91 
Q 1150 -91 751 415 
Q 353 922 353 1747 
Q 353 2572 751 3078 
Q 1150 3584 1784 3584 
Q 2172 3584 2448 3432 
Q 2725 3281 2906 2969 
z
M 947 1747 
Q 947 1113 1208 752 
Q 1469 391 1925 391 
Q 2381 391 2643 752 
Q 2906 1113 2906 1747 
Q 2906 2381 2643 2742 
Q 2381 3103 1925 3103 
Q 1469 3103 1208 2742 
Q 947 2381 947 1747 
z
" transform="scale(0.015625)"/>
           <path id="DejaVuSans-65" d="M 3597 1894 
L 3597 1613 
L 953 1613 
Q 991 1019 1311 708 
Q 1631 397 2203 397 
Q 2534 397 2845 478 
Q 3156 559 3463 722 
L 3463 178 
Q 3153 47 2828 -22 
Q 2503 -91 2169 -91 
Q 1331 -91 842 396 
Q 353 884 353 1716 
Q 353 2575 817 3079 
Q 1281 3584 2069 3584 
Q 2775 3584 3186 3129 
Q 3597 2675 3597 1894 
z
M 3022 2063 
Q 3016 2534 2758 2815 
Q 2500 3097 2075 3097 
Q 1594 3097 1305 2825 
Q 1016 2553 972 2059 
L 3022 2063 
z
" transform="scale(0.015625)"/>
           <path id="DejaVuSans-6d" d="M 3328 2828 
Q 3544 3216 3844 3400 
Q 4144 3584 4550 3584 
Q 5097 3584 5394 3201 
Q 5691 2819 5691 2113 
L 5691 0 
L 5113 0 
L 5113 2094 
Q 5113 2597 4934 2840 
Q 4756 3084 4391 3084 
Q 3944 3084 3684 2787 
Q 3425 2491 3425 1978 
L 3425 0 
L 2847 0 
L 2847 2094 
Q 2847 2600 2669 2842 
Q 2491 3084 2119 3084 
Q 1678 3084 1418 2786 
Q 1159 2488 1159 1978 
L 1159 0 
L 581 0 
L 581 3500 
L 1159 3500 
L 1159 2956 
Q 1356 3278 1631 3431 
Q 1906 3584 2284 3584 
Q 2666 3584 2933 3390 
Q 3200 3197 3328 2828 
z
" transform="scale(0.015625)"/>
           <path id="DejaVuSans-31" d="M 794 531 
L 1825 531 
L 1825 4091 
L 703 3866 
L 703 4441 
L 1819 4666 
L 2450 4666 
L 2450 531 
L 3481 531 
L 3481 0 
L 794 0 
L 794 531 
z
" transform="scale(0.015625)"/>
          </defs>
          <use xlink:href="#DejaVuSans-64"/>
          <use xlink:href="#DejaVuSans-65" x="63.476562"/>
          <use xlink:href="#DejaVuSans-6d" x="125"/>
          <use xlink:href="#DejaVuSans-65" x="222.412109"/>
          <use xlink:href="#DejaVuSans-31" x="283.935547"/>
         </g>
        </g>
       </g>
       <g id="xtick_2">
        <g id="line2d_2"/>
        <g id="text_2">
         <!-- deme2 -->
         <g transform="translate(306.103906 329.120312) scale(0.1 -0.1)">
          <defs>
           <path id="DejaVuSans-32" d="M 1228 531 
L 3431 531 
L 3431 0 
L 469 0 
L 469 531 
Q 828 903 1448 1529 
Q 2069 2156 2228 2338 
Q 2531 2678 2651 2914 
Q 2772 3150 2772 3378 
Q 2772 3750 2511 3984 
Q 2250 4219 1831 4219 
Q 1534 4219 1204 4116 
Q 875 4013 500 3803 
L 500 4441 
Q 881 4594 1212 4672 
Q 1544 4750 1819 4750 
Q 2544 4750 2975 4387 
Q 3406 4025 3406 3419 
Q 3406 3131 3298 2873 
Q 3191 2616 2906 2266 
Q 2828 2175 2409 1742 
Q 1991 1309 1228 531 
z
" transform="scale(0.015625)"/>
          </defs>
          <use xlink:href="#DejaVuSans-64"/>
          <use xlink:href="#DejaVuSans-65" x="63.476562"/>
          <use xlink:href="#DejaVuSans-6d" x="125"/>
          <use xlink:href="#DejaVuSans-65" x="222.412109"/>
          <use xlink:href="#DejaVuSans-32" x="283.935547"/>
         </g>
        </g>
       </g>
       <g id="xtick_3">
        <g id="line2d_3"/>
        <g id="text_3">
         <!-- deme3 -->
         <g transform="translate(496.150394 329.120312) scale(0.1 -0.1)">
          <defs>
           <path id="DejaVuSans-33" d="M 2597 2516 
Q 3050 2419 3304 2112 
Q 3559 1806 3559 1356 
Q 3559 666 3084 287 
Q 2609 -91 1734 -91 
Q 1441 -91 1130 -33 
Q 819 25 488 141 
L 488 750 
Q 750 597 1062 519 
Q 1375 441 1716 441 
Q 2309 441 2620 675 
Q 2931 909 2931 1356 
Q 2931 1769 2642 2001 
Q 2353 2234 1838 2234 
L 1294 2234 
L 1294 2753 
L 1863 2753 
Q 2328 2753 2575 2939 
Q 2822 3125 2822 3475 
Q 2822 3834 2567 4026 
Q 2313 4219 1838 4219 
Q 1578 4219 1281 4162 
Q 984 4106 628 3988 
L 628 4550 
Q 988 4650 1302 4700 
Q 1616 4750 1894 4750 
Q 2613 4750 3031 4423 
Q 3450 4097 3450 3541 
Q 3450 3153 3228 2886 
Q 3006 2619 2597 2516 
z
" transform="scale(0.015625)"/>
          </defs>
          <use xlink:href="#DejaVuSans-64"/>
          <use xlink:href="#DejaVuSans-65" x="63.476562"/>
          <use xlink:href="#DejaVuSans-6d" x="125"/>
          <use xlink:href="#DejaVuSans-65" x="222.412109"/>
          <use xlink:href="#DejaVuSans-33" x="283.935547"/>
         </g>
        </g>
       </g>
      </g>
      <g id="matplotlib.axis_2">
       <g id="ytick_1">
        <g id="line2d_4">
         <defs>
          <path id="m672624fc7e" d="M 0 0 
L -3.5 0 
" style="stroke: #000000; stroke-width: 0.8"/>
         </defs>
         <g>
          <use xlink:href="#m672624fc7e" x="46.965625" y="318.021875" style="stroke: #000000; stroke-width: 0.8"/>
         </g>
        </g>
        <g id="text_4">
         <!-- 0 -->
         <g transform="translate(33.603125 321.821094) scale(0.1 -0.1)">
          <defs>
           <path id="DejaVuSans-30" d="M 2034 4250 
Q 1547 4250 1301 3770 
Q 1056 3291 1056 2328 
Q 1056 1369 1301 889 
Q 1547 409 2034 409 
Q 2525 409 2770 889 
Q 3016 1369 3016 2328 
Q 3016 3291 2770 3770 
Q 2525 4250 2034 4250 
z
M 2034 4750 
Q 2819 4750 3233 4129 
Q 3647 3509 3647 2328 
Q 3647 1150 3233 529 
Q 2819 -91 2034 -91 
Q 1250 -91 836 529 
Q 422 1150 422 2328 
Q 422 3509 836 4129 
Q 1250 4750 2034 4750 
z
" transform="scale(0.015625)"/>
          </defs>
          <use xlink:href="#DejaVuSans-30"/>
         </g>
        </g>
       </g>
       <g id="ytick_2">
        <g id="line2d_5">
         <g>
          <use xlink:href="#m672624fc7e" x="46.965625" y="265.684928" style="stroke: #000000; stroke-width: 0.8"/>
         </g>
        </g>
        <g id="text_5">
         <!-- 20 -->
         <g transform="translate(27.240625 269.484147) scale(0.1 -0.1)">
          <use xlink:href="#DejaVuSans-32"/>
          <use xlink:href="#DejaVuSans-30" x="63.623047"/>
         </g>
        </g>
       </g>
       <g id="ytick_3">
        <g id="line2d_6">
         <g>
          <use xlink:href="#m672624fc7e" x="46.965625" y="213.347981" style="stroke: #000000; stroke-width: 0.8"/>
         </g>
        </g>
        <g id="text_6">
         <!-- 40 -->
         <g transform="translate(27.240625 217.1472) scale(0.1 -0.1)">
          <defs>
           <path id="DejaVuSans-34" d="M 2419 4116 
L 825 1625 
L 2419 1625 
L 2419 4116 
z
M 2253 4666 
L 3047 4666 
L 3047 1625 
L 3713 1625 
L 3713 1100 
L 3047 1100 
L 3047 0 
L 2419 0 
L 2419 1100 
L 313 1100 
L 313 1709 
L 2253 4666 
z
" transform="scale(0.015625)"/>
          </defs>
          <use xlink:href="#DejaVuSans-34"/>
          <use xlink:href="#DejaVuSans-30" x="63.623047"/>
         </g>
        </g>
       </g>
       <g id="ytick_4">
        <g id="line2d_7">
         <g>
          <use xlink:href="#m672624fc7e" x="46.965625" y="161.011034" style="stroke: #000000; stroke-width: 0.8"/>
         </g>
        </g>
        <g id="text_7">
         <!-- 60 -->
         <g transform="translate(27.240625 164.810253) scale(0.1 -0.1)">
          <defs>
           <path id="DejaVuSans-36" d="M 2113 2584 
Q 1688 2584 1439 2293 
Q 1191 2003 1191 1497 
Q 1191 994 1439 701 
Q 1688 409 2113 409 
Q 2538 409 2786 701 
Q 3034 994 3034 1497 
Q 3034 2003 2786 2293 
Q 2538 2584 2113 2584 
z
M 3366 4563 
L 3366 3988 
Q 3128 4100 2886 4159 
Q 2644 4219 2406 4219 
Q 1781 4219 1451 3797 
Q 1122 3375 1075 2522 
Q 1259 2794 1537 2939 
Q 1816 3084 2150 3084 
Q 2853 3084 3261 2657 
Q 3669 2231 3669 1497 
Q 3669 778 3244 343 
Q 2819 -91 2113 -91 
Q 1303 -91 875 529 
Q 447 1150 447 2328 
Q 447 3434 972 4092 
Q 1497 4750 2381 4750 
Q 2619 4750 2861 4703 
Q 3103 4656 3366 4563 
z
" transform="scale(0.015625)"/>
          </defs>
          <use xlink:href="#DejaVuSans-36"/>
          <use xlink:href="#DejaVuSans-30" x="63.623047"/>
         </g>
        </g>
       </g>
       <g id="ytick_5">
        <g id="line2d_8">
         <g>
          <use xlink:href="#m672624fc7e" x="46.965625" y="108.674087" style="stroke: #000000; stroke-width: 0.8"/>
         </g>
        </g>
        <g id="text_8">
         <!-- 80 -->
         <g transform="translate(27.240625 112.473306) scale(0.1 -0.1)">
          <defs>
           <path id="DejaVuSans-38" d="M 2034 2216 
Q 1584 2216 1326 1975 
Q 1069 1734 1069 1313 
Q 1069 891 1326 650 
Q 1584 409 2034 409 
Q 2484 409 2743 651 
Q 3003 894 3003 1313 
Q 3003 1734 2745 1975 
Q 2488 2216 2034 2216 
z
M 1403 2484 
Q 997 2584 770 2862 
Q 544 3141 544 3541 
Q 544 4100 942 4425 
Q 1341 4750 2034 4750 
Q 2731 4750 3128 4425 
Q 3525 4100 3525 3541 
Q 3525 3141 3298 2862 
Q 3072 2584 2669 2484 
Q 3125 2378 3379 2068 
Q 3634 1759 3634 1313 
Q 3634 634 3220 271 
Q 2806 -91 2034 -91 
Q 1263 -91 848 271 
Q 434 634 434 1313 
Q 434 1759 690 2068 
Q 947 2378 1403 2484 
z
M 1172 3481 
Q 1172 3119 1398 2916 
Q 1625 2713 2034 2713 
Q 2441 2713 2670 2916 
Q 2900 3119 2900 3481 
Q 2900 3844 2670 4047 
Q 2441 4250 2034 4250 
Q 1625 4250 1398 4047 
Q 1172 3844 1172 3481 
z
" transform="scale(0.015625)"/>
          </defs>
          <use xlink:href="#DejaVuSans-38"/>
          <use xlink:href="#DejaVuSans-30" x="63.623047"/>
         </g>
        </g>
       </g>
       <g id="ytick_6">
        <g id="line2d_9">
         <g>
          <use xlink:href="#m672624fc7e" x="46.965625" y="56.33714" style="stroke: #000000; stroke-width: 0.8"/>
         </g>
        </g>
        <g id="text_9">
         <!-- 100 -->
         <g transform="translate(20.878125 60.136359) scale(0.1 -0.1)">
          <use xlink:href="#DejaVuSans-31"/>
          <use xlink:href="#DejaVuSans-30" x="63.623047"/>
          <use xlink:href="#DejaVuSans-30" x="127.246094"/>
         </g>
        </g>
       </g>
       <g id="text_10">
        <!-- time ago (years) -->
        <g transform="translate(14.798437 211.603594) rotate(-90) scale(0.1 -0.1)">
         <defs>
          <path id="DejaVuSans-74" d="M 1172 4494 
L 1172 3500 
L 2356 3500 
L 2356 3053 
L 1172 3053 
L 1172 1153 
Q 1172 725 1289 603 
Q 1406 481 1766 481 
L 2356 481 
L 2356 0 
L 1766 0 
Q 1100 0 847 248 
Q 594 497 594 1153 
L 594 3053 
L 172 3053 
L 172 3500 
L 594 3500 
L 594 4494 
L 1172 4494 
z
" transform="scale(0.015625)"/>
          <path id="DejaVuSans-69" d="M 603 3500 
L 1178 3500 
L 1178 0 
L 603 0 
L 603 3500 
z
M 603 4863 
L 1178 4863 
L 1178 4134 
L 603 4134 
L 603 4863 
z
" transform="scale(0.015625)"/>
          <path id="DejaVuSans-20" transform="scale(0.015625)"/>
          <path id="DejaVuSans-61" d="M 2194 1759 
Q 1497 1759 1228 1600 
Q 959 1441 959 1056 
Q 959 750 1161 570 
Q 1363 391 1709 391 
Q 2188 391 2477 730 
Q 2766 1069 2766 1631 
L 2766 1759 
L 2194 1759 
z
M 3341 1997 
L 3341 0 
L 2766 0 
L 2766 531 
Q 2569 213 2275 61 
Q 1981 -91 1556 -91 
Q 1019 -91 701 211 
Q 384 513 384 1019 
Q 384 1609 779 1909 
Q 1175 2209 1959 2209 
L 2766 2209 
L 2766 2266 
Q 2766 2663 2505 2880 
Q 2244 3097 1772 3097 
Q 1472 3097 1187 3025 
Q 903 2953 641 2809 
L 641 3341 
Q 956 3463 1253 3523 
Q 1550 3584 1831 3584 
Q 2591 3584 2966 3190 
Q 3341 2797 3341 1997 
z
" transform="scale(0.015625)"/>
          <path id="DejaVuSans-67" d="M 2906 1791 
Q 2906 2416 2648 2759 
Q 2391 3103 1925 3103 
Q 1463 3103 1205 2759 
Q 947 2416 947 1791 
Q 947 1169 1205 825 
Q 1463 481 1925 481 
Q 2391 481 2648 825 
Q 2906 1169 2906 1791 
z
M 3481 434 
Q 3481 -459 3084 -895 
Q 2688 -1331 1869 -1331 
Q 1566 -1331 1297 -1286 
Q 1028 -1241 775 -1147 
L 775 -588 
Q 1028 -725 1275 -790 
Q 1522 -856 1778 -856 
Q 2344 -856 2625 -561 
Q 2906 -266 2906 331 
L 2906 616 
Q 2728 306 2450 153 
Q 2172 0 1784 0 
Q 1141 0 747 490 
Q 353 981 353 1791 
Q 353 2603 747 3093 
Q 1141 3584 1784 3584 
Q 2172 3584 2450 3431 
Q 2728 3278 2906 2969 
L 2906 3500 
L 3481 3500 
L 3481 434 
z
" transform="scale(0.015625)"/>
          <path id="DejaVuSans-6f" d="M 1959 3097 
Q 1497 3097 1228 2736 
Q 959 2375 959 1747 
Q 959 1119 1226 758 
Q 1494 397 1959 397 
Q 2419 397 2687 759 
Q 2956 1122 2956 1747 
Q 2956 2369 2687 2733 
Q 2419 3097 1959 3097 
z
M 1959 3584 
Q 2709 3584 3137 3096 
Q 3566 2609 3566 1747 
Q 3566 888 3137 398 
Q 2709 -91 1959 -91 
Q 1206 -91 779 398 
Q 353 888 353 1747 
Q 353 2609 779 3096 
Q 1206 3584 1959 3584 
z
" transform="scale(0.015625)"/>
          <path id="DejaVuSans-28" d="M 1984 4856 
Q 1566 4138 1362 3434 
Q 1159 2731 1159 2009 
Q 1159 1288 1364 580 
Q 1569 -128 1984 -844 
L 1484 -844 
Q 1016 -109 783 600 
Q 550 1309 550 2009 
Q 550 2706 781 3412 
Q 1013 4119 1484 4856 
L 1984 4856 
z
" transform="scale(0.015625)"/>
          <path id="DejaVuSans-79" d="M 2059 -325 
Q 1816 -950 1584 -1140 
Q 1353 -1331 966 -1331 
L 506 -1331 
L 506 -850 
L 844 -850 
Q 1081 -850 1212 -737 
Q 1344 -625 1503 -206 
L 1606 56 
L 191 3500 
L 800 3500 
L 1894 763 
L 2988 3500 
L 3597 3500 
L 2059 -325 
z
" transform="scale(0.015625)"/>
          <path id="DejaVuSans-72" d="M 2631 2963 
Q 2534 3019 2420 3045 
Q 2306 3072 2169 3072 
Q 1681 3072 1420 2755 
Q 1159 2438 1159 1844 
L 1159 0 
L 581 0 
L 581 3500 
L 1159 3500 
L 1159 2956 
Q 1341 3275 1631 3429 
Q 1922 3584 2338 3584 
Q 2397 3584 2469 3576 
Q 2541 3569 2628 3553 
L 2631 2963 
z
" transform="scale(0.015625)"/>
          <path id="DejaVuSans-73" d="M 2834 3397 
L 2834 2853 
Q 2591 2978 2328 3040 
Q 2066 3103 1784 3103 
Q 1356 3103 1142 2972 
Q 928 2841 928 2578 
Q 928 2378 1081 2264 
Q 1234 2150 1697 2047 
L 1894 2003 
Q 2506 1872 2764 1633 
Q 3022 1394 3022 966 
Q 3022 478 2636 193 
Q 2250 -91 1575 -91 
Q 1294 -91 989 -36 
Q 684 19 347 128 
L 347 722 
Q 666 556 975 473 
Q 1284 391 1588 391 
Q 1994 391 2212 530 
Q 2431 669 2431 922 
Q 2431 1156 2273 1281 
Q 2116 1406 1581 1522 
L 1381 1569 
Q 847 1681 609 1914 
Q 372 2147 372 2553 
Q 372 3047 722 3315 
Q 1072 3584 1716 3584 
Q 2034 3584 2315 3537 
Q 2597 3491 2834 3397 
z
" transform="scale(0.015625)"/>
          <path id="DejaVuSans-29" d="M 513 4856 
L 1013 4856 
Q 1481 4119 1714 3412 
Q 1947 2706 1947 2009 
Q 1947 1309 1714 600 
Q 1481 -109 1013 -844 
L 513 -844 
Q 928 -128 1133 580 
Q 1338 1288 1338 2009 
Q 1338 2731 1133 3434 
Q 928 4138 513 4856 
z
" transform="scale(0.015625)"/>
         </defs>
         <use xlink:href="#DejaVuSans-74"/>
         <use xlink:href="#DejaVuSans-69" x="39.208984"/>
         <use xlink:href="#DejaVuSans-6d" x="66.992188"/>
         <use xlink:href="#DejaVuSans-65" x="164.404297"/>
         <use xlink:href="#DejaVuSans-20" x="225.927734"/>
         <use xlink:href="#DejaVuSans-61" x="257.714844"/>
         <use xlink:href="#DejaVuSans-67" x="318.994141"/>
         <use xlink:href="#DejaVuSans-6f" x="382.470703"/>
         <use xlink:href="#DejaVuSans-20" x="443.652344"/>
         <use xlink:href="#DejaVuSans-28" x="475.439453"/>
         <use xlink:href="#DejaVuSans-79" x="514.453125"/>
         <use xlink:href="#DejaVuSans-65" x="573.632812"/>
         <use xlink:href="#DejaVuSans-61" x="635.15625"/>
         <use xlink:href="#DejaVuSans-72" x="696.435547"/>
         <use xlink:href="#DejaVuSans-73" x="737.548828"/>
         <use xlink:href="#DejaVuSans-29" x="789.648438"/>
        </g>
       </g>
      </g>
      <path d="M 257.619695 109.623433 
L 255.619695 108.623433 
L 255.619695 110.623433 
z
" clip-path="url(#p4a2d484d8e)" style="fill: #1f77b4; fill-opacity: 0.5; stroke: #1f77b4; stroke-opacity: 0.5; stroke-linejoin: miter"/>
      <path d="M 257.619695 219.637459 
L 255.619695 218.637459 
L 255.619695 220.637459 
z
" clip-path="url(#p4a2d484d8e)" style="fill: #1f77b4; fill-opacity: 0.5; stroke: #1f77b4; stroke-opacity: 0.5; stroke-linejoin: miter"/>
      <path d="M 257.619695 146.5913 
L 255.619695 145.5913 
L 255.619695 147.5913 
z
" clip-path="url(#p4a2d484d8e)" style="fill: #1f77b4; fill-opacity: 0.5; stroke: #1f77b4; stroke-opacity: 0.5; stroke-linejoin: miter"/>
      <path d="M 257.619695 114.480614 
L 255.619695 113.480614 
L 255.619695 115.480614 
z
" clip-path="url(#p4a2d484d8e)" style="fill: #1f77b4; fill-opacity: 0.5; stroke: #1f77b4; stroke-opacity: 0.5; stroke-linejoin: miter"/>
      <path d="M 257.619695 49.947981 
L 255.619695 48.947981 
L 255.619695 50.947981 
z
" clip-path="url(#p4a2d484d8e)" style="fill: #1f77b4; fill-opacity: 0.5; stroke: #1f77b4; stroke-opacity: 0.5; stroke-linejoin: miter"/>
      <path d="M 257.619695 282.685027 
L 255.619695 281.685027 
L 255.619695 283.685027 
z
" clip-path="url(#p4a2d484d8e)" style="fill: #1f77b4; fill-opacity: 0.5; stroke: #1f77b4; stroke-opacity: 0.5; stroke-linejoin: miter"/>
      <path d="M 257.619695 176.9926 
L 255.619695 175.9926 
L 255.619695 177.9926 
z
" clip-path="url(#p4a2d484d8e)" style="fill: #1f77b4; fill-opacity: 0.5; stroke: #1f77b4; stroke-opacity: 0.5; stroke-linejoin: miter"/>
      <path d="M 257.619695 49.594452 
L 255.619695 48.594452 
L 255.619695 50.594452 
z
" clip-path="url(#p4a2d484d8e)" style="fill: #1f77b4; fill-opacity: 0.5; stroke: #1f77b4; stroke-opacity: 0.5; stroke-linejoin: miter"/>
      <path d="M 257.619695 169.094165 
L 255.619695 168.094165 
L 255.619695 170.094165 
z
" clip-path="url(#p4a2d484d8e)" style="fill: #1f77b4; fill-opacity: 0.5; stroke: #1f77b4; stroke-opacity: 0.5; stroke-linejoin: miter"/>
      <path d="M 257.619695 219.460701 
L 255.619695 218.460701 
L 255.619695 220.460701 
z
" clip-path="url(#p4a2d484d8e)" style="fill: #1f77b4; fill-opacity: 0.5; stroke: #1f77b4; stroke-opacity: 0.5; stroke-linejoin: miter"/>
      <path d="M 199.299442 148.516455 
L 201.299442 149.516455 
L 201.299442 147.516455 
z
" clip-path="url(#p4a2d484d8e)" style="fill: #ff7f0e; fill-opacity: 0.5; stroke: #ff7f0e; stroke-opacity: 0.5; stroke-linejoin: miter"/>
      <path d="M 199.299442 278.935486 
L 201.299442 279.935486 
L 201.299442 277.935486 
z
" clip-path="url(#p4a2d484d8e)" style="fill: #ff7f0e; fill-opacity: 0.5; stroke: #ff7f0e; stroke-opacity: 0.5; stroke-linejoin: miter"/>
      <path d="M 199.299442 69.480994 
L 201.299442 70.480994 
L 201.299442 68.480994 
z
" clip-path="url(#p4a2d484d8e)" style="fill: #ff7f0e; fill-opacity: 0.5; stroke: #ff7f0e; stroke-opacity: 0.5; stroke-linejoin: miter"/>
      <path d="M 199.299442 75.439479 
L 201.299442 76.439479 
L 201.299442 74.439479 
z
" clip-path="url(#p4a2d484d8e)" style="fill: #ff7f0e; fill-opacity: 0.5; stroke: #ff7f0e; stroke-opacity: 0.5; stroke-linejoin: miter"/>
      <path d="M 199.299442 39.021964 
L 201.299442 40.021964 
L 201.299442 38.021964 
z
" clip-path="url(#p4a2d484d8e)" style="fill: #ff7f0e; fill-opacity: 0.5; stroke: #ff7f0e; stroke-opacity: 0.5; stroke-linejoin: miter"/>
      <path d="M 199.299442 77.355203 
L 201.299442 78.355203 
L 201.299442 76.355203 
z
" clip-path="url(#p4a2d484d8e)" style="fill: #ff7f0e; fill-opacity: 0.5; stroke: #ff7f0e; stroke-opacity: 0.5; stroke-linejoin: miter"/>
      <path d="M 199.299442 239.594929 
L 201.299442 240.594929 
L 201.299442 238.594929 
z
" clip-path="url(#p4a2d484d8e)" style="fill: #ff7f0e; fill-opacity: 0.5; stroke: #ff7f0e; stroke-opacity: 0.5; stroke-linejoin: miter"/>
      <path d="M 199.299442 170.14922 
L 201.299442 171.14922 
L 201.299442 169.14922 
z
" clip-path="url(#p4a2d484d8e)" style="fill: #ff7f0e; fill-opacity: 0.5; stroke: #ff7f0e; stroke-opacity: 0.5; stroke-linejoin: miter"/>
      <path d="M 199.299442 282.391775 
L 201.299442 283.391775 
L 201.299442 281.391775 
z
" clip-path="url(#p4a2d484d8e)" style="fill: #ff7f0e; fill-opacity: 0.5; stroke: #ff7f0e; stroke-opacity: 0.5; stroke-linejoin: miter"/>
      <path d="M 199.299442 270.873013 
L 201.299442 271.873013 
L 201.299442 269.873013 
z
" clip-path="url(#p4a2d484d8e)" style="fill: #ff7f0e; fill-opacity: 0.5; stroke: #ff7f0e; stroke-opacity: 0.5; stroke-linejoin: miter"/>
      <path d="M 447.666183 33.501497 
L 445.666183 32.501497 
L 445.666183 34.501497 
z
" clip-path="url(#p4a2d484d8e)" style="fill: #ff7f0e; fill-opacity: 0.5; stroke: #ff7f0e; stroke-opacity: 0.5; stroke-linejoin: miter"/>
      <path d="M 447.666183 76.200452 
L 445.666183 75.200452 
L 445.666183 77.200452 
z
" clip-path="url(#p4a2d484d8e)" style="fill: #ff7f0e; fill-opacity: 0.5; stroke: #ff7f0e; stroke-opacity: 0.5; stroke-linejoin: miter"/>
      <path d="M 447.666183 263.969085 
L 445.666183 262.969085 
L 445.666183 264.969085 
z
" clip-path="url(#p4a2d484d8e)" style="fill: #ff7f0e; fill-opacity: 0.5; stroke: #ff7f0e; stroke-opacity: 0.5; stroke-linejoin: miter"/>
      <path d="M 447.666183 303.281662 
L 445.666183 302.281662 
L 445.666183 304.281662 
z
" clip-path="url(#p4a2d484d8e)" style="fill: #ff7f0e; fill-opacity: 0.5; stroke: #ff7f0e; stroke-opacity: 0.5; stroke-linejoin: miter"/>
      <path d="M 447.666183 43.924494 
L 445.666183 42.924494 
L 445.666183 44.924494 
z
" clip-path="url(#p4a2d484d8e)" style="fill: #ff7f0e; fill-opacity: 0.5; stroke: #ff7f0e; stroke-opacity: 0.5; stroke-linejoin: miter"/>
      <path d="M 447.666183 276.074192 
L 445.666183 275.074192 
L 445.666183 277.074192 
z
" clip-path="url(#p4a2d484d8e)" style="fill: #ff7f0e; fill-opacity: 0.5; stroke: #ff7f0e; stroke-opacity: 0.5; stroke-linejoin: miter"/>
      <path d="M 447.666183 184.753285 
L 445.666183 183.753285 
L 445.666183 185.753285 
z
" clip-path="url(#p4a2d484d8e)" style="fill: #ff7f0e; fill-opacity: 0.5; stroke: #ff7f0e; stroke-opacity: 0.5; stroke-linejoin: miter"/>
      <path d="M 447.666183 56.493844 
L 445.666183 55.493844 
L 445.666183 57.493844 
z
" clip-path="url(#p4a2d484d8e)" style="fill: #ff7f0e; fill-opacity: 0.5; stroke: #ff7f0e; stroke-opacity: 0.5; stroke-linejoin: miter"/>
      <path d="M 447.666183 315.944321 
L 445.666183 314.944321 
L 445.666183 316.944321 
z
" clip-path="url(#p4a2d484d8e)" style="fill: #ff7f0e; fill-opacity: 0.5; stroke: #ff7f0e; stroke-opacity: 0.5; stroke-linejoin: miter"/>
      <path d="M 447.666183 81.764515 
L 445.666183 80.764515 
L 445.666183 82.764515 
z
" clip-path="url(#p4a2d484d8e)" style="fill: #ff7f0e; fill-opacity: 0.5; stroke: #ff7f0e; stroke-opacity: 0.5; stroke-linejoin: miter"/>
      <path d="M 389.34593 302.665664 
L 391.34593 303.665664 
L 391.34593 301.665664 
z
" clip-path="url(#p4a2d484d8e)" style="fill: #2ca02c; fill-opacity: 0.5; stroke: #2ca02c; stroke-opacity: 0.5; stroke-linejoin: miter"/>
      <path d="M 389.34593 88.586996 
L 391.34593 89.586996 
L 391.34593 87.586996 
z
" clip-path="url(#p4a2d484d8e)" style="fill: #2ca02c; fill-opacity: 0.5; stroke: #2ca02c; stroke-opacity: 0.5; stroke-linejoin: miter"/>
      <path d="M 389.34593 201.430612 
L 391.34593 202.430612 
L 391.34593 200.430612 
z
" clip-path="url(#p4a2d484d8e)" style="fill: #2ca02c; fill-opacity: 0.5; stroke: #2ca02c; stroke-opacity: 0.5; stroke-linejoin: miter"/>
      <path d="M 389.34593 34.622679 
L 391.34593 35.622679 
L 391.34593 33.622679 
z
" clip-path="url(#p4a2d484d8e)" style="fill: #2ca02c; fill-opacity: 0.5; stroke: #2ca02c; stroke-opacity: 0.5; stroke-linejoin: miter"/>
      <path d="M 389.34593 279.899103 
L 391.34593 280.899103 
L 391.34593 278.899103 
z
" clip-path="url(#p4a2d484d8e)" style="fill: #2ca02c; fill-opacity: 0.5; stroke: #2ca02c; stroke-opacity: 0.5; stroke-linejoin: miter"/>
      <path d="M 389.34593 263.754599 
L 391.34593 264.754599 
L 391.34593 262.754599 
z
" clip-path="url(#p4a2d484d8e)" style="fill: #2ca02c; fill-opacity: 0.5; stroke: #2ca02c; stroke-opacity: 0.5; stroke-linejoin: miter"/>
      <path d="M 389.34593 179.118856 
L 391.34593 180.118856 
L 391.34593 178.118856 
z
" clip-path="url(#p4a2d484d8e)" style="fill: #2ca02c; fill-opacity: 0.5; stroke: #2ca02c; stroke-opacity: 0.5; stroke-linejoin: miter"/>
      <path d="M 389.34593 150.348449 
L 391.34593 151.348449 
L 391.34593 149.348449 
z
" clip-path="url(#p4a2d484d8e)" style="fill: #2ca02c; fill-opacity: 0.5; stroke: #2ca02c; stroke-opacity: 0.5; stroke-linejoin: miter"/>
      <path d="M 389.34593 39.061795 
L 391.34593 40.061795 
L 391.34593 38.061795 
z
" clip-path="url(#p4a2d484d8e)" style="fill: #2ca02c; fill-opacity: 0.5; stroke: #2ca02c; stroke-opacity: 0.5; stroke-linejoin: miter"/>
      <path d="M 389.34593 262.374349 
L 391.34593 263.374349 
L 391.34593 261.374349 
z
" clip-path="url(#p4a2d484d8e)" style="fill: #2ca02c; fill-opacity: 0.5; stroke: #2ca02c; stroke-opacity: 0.5; stroke-linejoin: miter"/>
      <g id="patch_6">
       <path d="M 46.965625 318.021875 
L 46.965625 22.318125 
" style="fill: none; stroke: #000000; stroke-width: 0.8; stroke-linejoin: miter; stroke-linecap: square"/>
      </g>
      <g id="text_11">
       <!-- stepping_stone_model.yaml -->
       <g transform="translate(239.443437 16.318125) scale(0.12 -0.12)">
        <defs>
         <path id="DejaVuSans-70" d="M 1159 525 
L 1159 -1331 
L 581 -1331 
L 581 3500 
L 1159 3500 
L 1159 2969 
Q 1341 3281 1617 3432 
Q 1894 3584 2278 3584 
Q 2916 3584 3314 3078 
Q 3713 2572 3713 1747 
Q 3713 922 3314 415 
Q 2916 -91 2278 -91 
Q 1894 -91 1617 61 
Q 1341 213 1159 525 
z
M 3116 1747 
Q 3116 2381 2855 2742 
Q 2594 3103 2138 3103 
Q 1681 3103 1420 2742 
Q 1159 2381 1159 1747 
Q 1159 1113 1420 752 
Q 1681 391 2138 391 
Q 2594 391 2855 752 
Q 3116 1113 3116 1747 
z
" transform="scale(0.015625)"/>
         <path id="DejaVuSans-6e" d="M 3513 2113 
L 3513 0 
L 2938 0 
L 2938 2094 
Q 2938 2591 2744 2837 
Q 2550 3084 2163 3084 
Q 1697 3084 1428 2787 
Q 1159 2491 1159 1978 
L 1159 0 
L 581 0 
L 581 3500 
L 1159 3500 
L 1159 2956 
Q 1366 3272 1645 3428 
Q 1925 3584 2291 3584 
Q 2894 3584 3203 3211 
Q 3513 2838 3513 2113 
z
" transform="scale(0.015625)"/>
         <path id="DejaVuSans-5f" d="M 3263 -1063 
L 3263 -1509 
L -63 -1509 
L -63 -1063 
L 3263 -1063 
z
" transform="scale(0.015625)"/>
         <path id="DejaVuSans-6c" d="M 603 4863 
L 1178 4863 
L 1178 0 
L 603 0 
L 603 4863 
z
" transform="scale(0.015625)"/>
         <path id="DejaVuSans-2e" d="M 684 794 
L 1344 794 
L 1344 0 
L 684 0 
L 684 794 
z
" transform="scale(0.015625)"/>
        </defs>
        <use xlink:href="#DejaVuSans-73"/>
        <use xlink:href="#DejaVuSans-74" x="52.099609"/>
        <use xlink:href="#DejaVuSans-65" x="91.308594"/>
        <use xlink:href="#DejaVuSans-70" x="152.832031"/>
        <use xlink:href="#DejaVuSans-70" x="216.308594"/>
        <use xlink:href="#DejaVuSans-69" x="279.785156"/>
        <use xlink:href="#DejaVuSans-6e" x="307.568359"/>
        <use xlink:href="#DejaVuSans-67" x="370.947266"/>
        <use xlink:href="#DejaVuSans-5f" x="434.423828"/>
        <use xlink:href="#DejaVuSans-73" x="484.423828"/>
        <use xlink:href="#DejaVuSans-74" x="536.523438"/>
        <use xlink:href="#DejaVuSans-6f" x="575.732422"/>
        <use xlink:href="#DejaVuSans-6e" x="636.914062"/>
        <use xlink:href="#DejaVuSans-65" x="700.292969"/>
        <use xlink:href="#DejaVuSans-5f" x="761.816406"/>
        <use xlink:href="#DejaVuSans-6d" x="811.816406"/>
        <use xlink:href="#DejaVuSans-6f" x="909.228516"/>
        <use xlink:href="#DejaVuSans-64" x="970.410156"/>
        <use xlink:href="#DejaVuSans-65" x="1033.886719"/>
        <use xlink:href="#DejaVuSans-6c" x="1095.410156"/>
        <use xlink:href="#DejaVuSans-2e" x="1123.193359"/>
        <use xlink:href="#DejaVuSans-79" x="1154.980469"/>
        <use xlink:href="#DejaVuSans-61" x="1214.160156"/>
        <use xlink:href="#DejaVuSans-6d" x="1275.439453"/>
        <use xlink:href="#DejaVuSans-6c" x="1372.851562"/>
       </g>
      </g>
     </g>
    </g>
    <defs>
     <clipPath id="p4a2d484d8e">
      <rect x="46.965625" y="22.318125" width="553.034375" height="295.70375"/>
     </clipPath>
    </defs>
   </g>
  </g>
 </g>
</svg>