<?xml version="1.0" encoding="utf-8" standalone="no"?>
<!DOCTYPE svg PUBLIC "-//W3C//DTD SVG 1.1//EN"
  "http://www.w3.org/Graphics/SVG/1.1/DTD/svg11.dtd">
<svg xmlns:xlink="http://www.w3.org/1999/xlink" width="607.2pt" height="338.4pt" viewBox="0 0 607.2 338.4" xmlns="http://www.w3.org/2000/svg" version="1.1">
 <metadata>
  <rdf:RDF xmlns:dc="http://purl.org/dc/elements/1.1/" xmlns:cc="http://creativecommons.org/ns#" xmlns:rdf="http://www.w3.org/1999/02/22-rdf-syntax-ns#">
   <cc:Work>
    <dc:type rdf:resource="http://purl.org/dc/dcmitype/StillImage"/>
    <dc:date>2023-06-19T09:04:08.946259</dc:date>
    <dc:format>image/svg+xml</dc:format>
    <dc:creator>
     <cc:Agent>
      <dc:title>Matplotlib v3.7.1, https://matplotlib.org/</dc:title>
     </cc:Agent>
    </dc:creator>
   </cc:Work>
  </rdf:RDF>
 </metadata>
 <defs>
  <style type="text/css">*{stroke-linejoin: round; stroke-linecap: butt}</style>
 </defs>
 <g id="figure_1">
  <g id="patch_1">
   <path d="M 0 338.4 
L 607.2 338.4 
L 607.2 0 
L 0 0 
z
" style="fill: #ffffff"/>
  </g>
  <g id="axes_1">
   <g id="patch_2">
    <path d="M 43.78125 318.021875 
L 600 318.021875 
L 600 22.318125 
L 43.78125 22.318125 
z
" style="fill: #ffffff"/>
   </g>
   <path d="M 353.703533 187.346036 
L 352.703533 187.3146 
L 351.703533 187.277659 
L 350.703533 187.179913 
L 349.703533 187.147391 
L 348.703533 187.073767 
L 347.703533 187.035201 
L 346.703533 186.999788 
L 345.703533 186.942148 
L 344.703533 186.871762 
L 343.703533 186.819797 
L 342.703533 186.760708 
L 341.703533 186.672387 
L 340.703533 186.626242 
L 339.703533 186.583832 
L 338.703533 186.553339 
L 337.703533 186.527294 
L 336.703533 186.506094 
L 335.703533 186.451793 
L 334.703533 186.423855 
L 333.703533 186.394131 
L 332.703533 186.368736 
L 331.703533 186.357536 
L 330.703533 186.347412 
L 329.703533 186.347616 
L 328.703533 186.357126 
L 327.703533 186.36878 
L 326.703533 186.399809 
L 325.703533 186.410977 
L 324.703533 186.441095 
L 323.703533 186.500871 
L 322.703533 186.538063 
L 321.703533 186.577159 
L 320.703533 186.619599 
L 319.703533 186.652364 
L 318.703533 186.71979 
L 317.703533 186.758916 
L 316.703533 186.801591 
L 315.703533 186.872171 
L 314.703533 186.908562 
L 313.703533 186.966965 
L 312.703533 187.077918 
L 311.703533 187.148576 
L 310.703533 187.261516 
L 309.703533 187.307289 
L 308.703533 187.368572 
L 307.703533 187.417072 
L 306.703533 187.497894 
L 305.703533 187.616413 
L 304.703533 187.686624 
L 303.703533 187.769886 
L 302.703533 187.803028 
L 301.703533 187.854265 
L 300.703533 187.922664 
L 299.703533 187.988879 
L 298.703533 188.065796 
L 297.703533 188.093112 
L 296.703533 188.119589 
L 295.703533 188.14224 
L 294.703533 188.161771 
L 293.703533 188.188165 
L 292.703533 188.237936 
L 291.703533 188.273009 
L 290.077717 188.308875 
" clip-path="url(#pdae2478129)" style="fill: none; stroke: #ff7f0e; stroke-opacity: 0.5; stroke-width: 0.2; stroke-linecap: square"/>
   <path d="M 353.703533 97.386471 
L 352.703533 97.355034 
L 351.703533 97.318094 
L 350.703533 97.220347 
L 349.703533 97.187826 
L 348.703533 97.114201 
L 347.703533 97.075635 
L 346.703533 97.040222 
L 345.703533 96.982582 
L 344.703533 96.912196 
L 343.703533 96.860232 
L 342.703533 96.801142 
L 341.703533 96.712821 
L 340.703533 96.666677 
L 339.703533 96.624266 
L 338.703533 96.593773 
L 337.703533 96.567728 
L 336.703533 96.546528 
L 335.703533 96.492227 
L 334.703533 96.464289 
L 333.703533 96.434566 
L 332.703533 96.409171 
L 331.703533 96.39797 
L 330.703533 96.387846 
L 329.703533 96.388051 
L 328.703533 96.397561 
L 327.703533 96.409214 
L 326.703533 96.440243 
L 325.703533 96.451411 
L 324.703533 96.481529 
L 323.703533 96.541306 
L 322.703533 96.578497 
L 321.703533 96.617593 
L 320.703533 96.660033 
L 319.703533 96.692798 
L 318.703533 96.760225 
L 317.703533 96.799351 
L 316.703533 96.842025 
L 315.703533 96.912606 
L 314.703533 96.948997 
L 313.703533 97.0074 
L 312.703533 97.118352 
L 311.703533 97.189011 
L 310.703533 97.30195 
L 309.703533 97.347723 
L 308.703533 97.409007 
L 307.703533 97.457506 
L 306.703533 97.538329 
L 305.703533 97.656848 
L 304.703533 97.727058 
L 303.703533 97.810321 
L 302.703533 97.843462 
L 301.703533 97.8947 
L 300.703533 97.963098 
L 299.703533 98.029313 
L 298.703533 98.106231 
L 297.703533 98.133546 
L 296.703533 98.160024 
L 295.703533 98.182674 
L 294.703533 98.202205 
L 293.703533 98.228599 
L 292.703533 98.27837 
L 291.703533 98.313443 
L 290.077717 98.349309 
" clip-path="url(#pdae2478129)" style="fill: none; stroke: #ff7f0e; stroke-opacity: 0.5; stroke-width: 0.2; stroke-linecap: square"/>
   <path d="M 353.703533 140.651221 
L 352.703533 140.619785 
L 351.703533 140.582845 
L 350.703533 140.485098 
L 349.703533 140.452576 
L 348.703533 140.378952 
L 347.703533 140.340386 
L 346.703533 140.304973 
L 345.703533 140.247333 
L 344.703533 140.176947 
L 343.703533 140.124983 
L 342.703533 140.065893 
L 341.703533 139.977572 
L 340.703533 139.931428 
L 339.703533 139.889017 
L 338.703533 139.858524 
L 337.703533 139.832479 
L 336.703533 139.811279 
L 335.703533 139.756978 
L 334.703533 139.72904 
L 333.703533 139.699316 
L 332.703533 139.673922 
L 331.703533 139.662721 
L 330.703533 139.652597 
L 329.703533 139.652801 
L 328.703533 139.662311 
L 327.703533 139.673965 
L 326.703533 139.704994 
L 325.703533 139.716162 
L 324.703533 139.74628 
L 323.703533 139.806057 
L 322.703533 139.843248 
L 321.703533 139.882344 
L 320.703533 139.924784 
L 319.703533 139.957549 
L 318.703533 140.024975 
L 317.703533 140.064101 
L 316.703533 140.106776 
L 315.703533 140.177356 
L 314.703533 140.213747 
L 313.703533 140.272151 
L 312.703533 140.383103 
L 311.703533 140.453761 
L 310.703533 140.566701 
L 309.703533 140.612474 
L 308.703533 140.673757 
L 307.703533 140.722257 
L 306.703533 140.803079 
L 305.703533 140.921598 
L 304.703533 140.991809 
L 303.703533 141.075071 
L 302.703533 141.108213 
L 301.703533 141.15945 
L 300.703533 141.227849 
L 299.703533 141.294064 
L 298.703533 141.370981 
L 297.703533 141.398297 
L 296.703533 141.424774 
L 295.703533 141.447425 
L 294.703533 141.466956 
L 293.703533 141.49335 
L 292.703533 141.543121 
L 291.703533 141.578194 
L 290.077717 141.61406 
" clip-path="url(#pdae2478129)" style="fill: none; stroke: #ff7f0e; stroke-opacity: 0.5; stroke-width: 0.2; stroke-linecap: square"/>
   <path d="M 353.703533 194.860828 
L 352.703533 194.829392 
L 351.703533 194.792451 
L 350.703533 194.694705 
L 349.703533 194.662183 
L 348.703533 194.588558 
L 347.703533 194.549993 
L 346.703533 194.51458 
L 345.703533 194.45694 
L 344.703533 194.386554 
L 343.703533 194.334589 
L 342.703533 194.2755 
L 341.703533 194.187179 
L 340.703533 194.141034 
L 339.703533 194.098623 
L 338.703533 194.068131 
L 337.703533 194.042086 
L 336.703533 194.020886 
L 335.703533 193.966585 
L 334.703533 193.938647 
L 333.703533 193.908923 
L 332.703533 193.883528 
L 331.703533 193.872328 
L 330.703533 193.862204 
L 329.703533 193.862408 
L 328.703533 193.871918 
L 327.703533 193.883572 
L 326.703533 193.914601 
L 325.703533 193.925769 
L 324.703533 193.955886 
L 323.703533 194.015663 
L 322.703533 194.052855 
L 321.703533 194.091951 
L 320.703533 194.134391 
L 319.703533 194.167156 
L 318.703533 194.234582 
L 317.703533 194.273708 
L 316.703533 194.316383 
L 315.703533 194.386963 
L 314.703533 194.423354 
L 313.703533 194.481757 
L 312.703533 194.59271 
L 311.703533 194.663368 
L 310.703533 194.776308 
L 309.703533 194.822081 
L 308.703533 194.883364 
L 307.703533 194.931863 
L 306.703533 195.012686 
L 305.703533 195.131205 
L 304.703533 195.201416 
L 303.703533 195.284678 
L 302.703533 195.31782 
L 301.703533 195.369057 
L 300.703533 195.437456 
L 299.703533 195.503671 
L 298.703533 195.580588 
L 297.703533 195.607904 
L 296.703533 195.634381 
L 295.703533 195.657032 
L 294.703533 195.676563 
L 293.703533 195.702957 
L 292.703533 195.752728 
L 291.703533 195.787801 
L 290.077717 195.823667 
" clip-path="url(#pdae2478129)" style="fill: none; stroke: #ff7f0e; stroke-opacity: 0.5; stroke-width: 0.2; stroke-linecap: square"/>
   <path d="M 353.703533 93.500091 
L 352.703533 93.468655 
L 351.703533 93.431714 
L 350.703533 93.333968 
L 349.703533 93.301446 
L 348.703533 93.227822 
L 347.703533 93.189256 
L 346.703533 93.153843 
L 345.703533 93.096203 
L 344.703533 93.025817 
L 343.703533 92.973852 
L 342.703533 92.914763 
L 341.703533 92.826442 
L 340.703533 92.780297 
L 339.703533 92.737886 
L 338.703533 92.707394 
L 337.703533 92.681349 
L 336.703533 92.660149 
L 335.703533 92.605848 
L 334.703533 92.57791 
L 333.703533 92.548186 
L 332.703533 92.522791 
L 331.703533 92.511591 
L 330.703533 92.501467 
L 329.703533 92.501671 
L 328.703533 92.511181 
L 327.703533 92.522835 
L 326.703533 92.553864 
L 325.703533 92.565032 
L 324.703533 92.595149 
L 323.703533 92.654926 
L 322.703533 92.692118 
L 321.703533 92.731214 
L 320.703533 92.773654 
L 319.703533 92.806419 
L 318.703533 92.873845 
L 317.703533 92.912971 
L 316.703533 92.955646 
L 315.703533 93.026226 
L 314.703533 93.062617 
L 313.703533 93.12102 
L 312.703533 93.231973 
L 311.703533 93.302631 
L 310.703533 93.415571 
L 309.703533 93.461344 
L 308.703533 93.522627 
L 307.703533 93.571127 
L 306.703533 93.651949 
L 305.703533 93.770468 
L 304.703533 93.840679 
L 303.703533 93.923941 
L 302.703533 93.957083 
L 301.703533 94.00832 
L 300.703533 94.076719 
L 299.703533 94.142934 
L 298.703533 94.219851 
L 297.703533 94.247167 
L 296.703533 94.273644 
L 295.703533 94.296295 
L 294.703533 94.315826 
L 293.703533 94.34222 
L 292.703533 94.391991 
L 291.703533 94.427064 
L 290.077717 94.46293 
" clip-path="url(#pdae2478129)" style="fill: none; stroke: #ff7f0e; stroke-opacity: 0.5; stroke-width: 0.2; stroke-linecap: square"/>
   <path d="M 353.703533 195.790149 
L 352.703533 195.758713 
L 351.703533 195.721773 
L 350.703533 195.624026 
L 349.703533 195.591505 
L 348.703533 195.51788 
L 347.703533 195.479314 
L 346.703533 195.443901 
L 345.703533 195.386261 
L 344.703533 195.315875 
L 343.703533 195.263911 
L 342.703533 195.204821 
L 341.703533 195.1165 
L 340.703533 195.070356 
L 339.703533 195.027945 
L 338.703533 194.997452 
L 337.703533 194.971407 
L 336.703533 194.950207 
L 335.703533 194.895906 
L 334.703533 194.867968 
L 333.703533 194.838244 
L 332.703533 194.81285 
L 331.703533 194.801649 
L 330.703533 194.791525 
L 329.703533 194.79173 
L 328.703533 194.80124 
L 327.703533 194.812893 
L 326.703533 194.843922 
L 325.703533 194.85509 
L 324.703533 194.885208 
L 323.703533 194.944985 
L 322.703533 194.982176 
L 321.703533 195.021272 
L 320.703533 195.063712 
L 319.703533 195.096477 
L 318.703533 195.163904 
L 317.703533 195.203029 
L 316.703533 195.245704 
L 315.703533 195.316285 
L 314.703533 195.352675 
L 313.703533 195.411079 
L 312.703533 195.522031 
L 311.703533 195.59269 
L 310.703533 195.705629 
L 309.703533 195.751402 
L 308.703533 195.812686 
L 307.703533 195.861185 
L 306.703533 195.942008 
L 305.703533 196.060526 
L 304.703533 196.130737 
L 303.703533 196.214 
L 302.703533 196.247141 
L 301.703533 196.298379 
L 300.703533 196.366777 
L 299.703533 196.432992 
L 298.703533 196.509909 
L 297.703533 196.537225 
L 296.703533 196.563702 
L 295.703533 196.586353 
L 294.703533 196.605884 
L 293.703533 196.632278 
L 292.703533 196.682049 
L 291.703533 196.717122 
L 290.077717 196.752988 
" clip-path="url(#pdae2478129)" style="fill: none; stroke: #ff7f0e; stroke-opacity: 0.5; stroke-width: 0.2; stroke-linecap: square"/>
   <path d="M 353.703533 194.484758 
L 352.703533 194.453321 
L 351.703533 194.416381 
L 350.703533 194.318635 
L 349.703533 194.286113 
L 348.703533 194.212488 
L 347.703533 194.173923 
L 346.703533 194.13851 
L 345.703533 194.08087 
L 344.703533 194.010483 
L 343.703533 193.958519 
L 342.703533 193.899429 
L 341.703533 193.811108 
L 340.703533 193.764964 
L 339.703533 193.722553 
L 338.703533 193.692061 
L 337.703533 193.666016 
L 336.703533 193.644816 
L 335.703533 193.590514 
L 334.703533 193.562577 
L 333.703533 193.532853 
L 332.703533 193.507458 
L 331.703533 193.496258 
L 330.703533 193.486134 
L 329.703533 193.486338 
L 328.703533 193.495848 
L 327.703533 193.507501 
L 326.703533 193.538531 
L 325.703533 193.549699 
L 324.703533 193.579816 
L 323.703533 193.639593 
L 322.703533 193.676785 
L 321.703533 193.715881 
L 320.703533 193.75832 
L 319.703533 193.791086 
L 318.703533 193.858512 
L 317.703533 193.897638 
L 316.703533 193.940312 
L 315.703533 194.010893 
L 314.703533 194.047284 
L 313.703533 194.105687 
L 312.703533 194.21664 
L 311.703533 194.287298 
L 310.703533 194.400238 
L 309.703533 194.446011 
L 308.703533 194.507294 
L 307.703533 194.555793 
L 306.703533 194.636616 
L 305.703533 194.755135 
L 304.703533 194.825345 
L 303.703533 194.908608 
L 302.703533 194.94175 
L 301.703533 194.992987 
L 300.703533 195.061385 
L 299.703533 195.127601 
L 298.703533 195.204518 
L 297.703533 195.231833 
L 296.703533 195.258311 
L 295.703533 195.280962 
L 294.703533 195.300493 
L 293.703533 195.326887 
L 292.703533 195.376658 
L 291.703533 195.411731 
L 290.077717 195.447596 
" clip-path="url(#pdae2478129)" style="fill: none; stroke: #ff7f0e; stroke-opacity: 0.5; stroke-width: 0.2; stroke-linecap: square"/>
   <path d="M 353.703533 152.34726 
L 352.703533 152.315823 
L 351.703533 152.278883 
L 350.703533 152.181136 
L 349.703533 152.148615 
L 348.703533 152.07499 
L 347.703533 152.036425 
L 346.703533 152.001011 
L 345.703533 151.943371 
L 344.703533 151.872985 
L 343.703533 151.821021 
L 342.703533 151.761931 
L 341.703533 151.67361 
L 340.703533 151.627466 
L 339.703533 151.585055 
L 338.703533 151.554562 
L 337.703533 151.528517 
L 336.703533 151.507317 
L 335.703533 151.453016 
L 334.703533 151.425079 
L 333.703533 151.395355 
L 332.703533 151.36996 
L 331.703533 151.358759 
L 330.703533 151.348636 
L 329.703533 151.34884 
L 328.703533 151.35835 
L 327.703533 151.370003 
L 326.703533 151.401033 
L 325.703533 151.4122 
L 324.703533 151.442318 
L 323.703533 151.502095 
L 322.703533 151.539287 
L 321.703533 151.578383 
L 320.703533 151.620822 
L 319.703533 151.653587 
L 318.703533 151.721014 
L 317.703533 151.76014 
L 316.703533 151.802814 
L 315.703533 151.873395 
L 314.703533 151.909786 
L 313.703533 151.968189 
L 312.703533 152.079141 
L 311.703533 152.1498 
L 310.703533 152.26274 
L 309.703533 152.308513 
L 308.703533 152.369796 
L 307.703533 152.418295 
L 306.703533 152.499118 
L 305.703533 152.617637 
L 304.703533 152.687847 
L 303.703533 152.77111 
L 302.703533 152.804252 
L 301.703533 152.855489 
L 300.703533 152.923887 
L 299.703533 152.990103 
L 298.703533 153.06702 
L 297.703533 153.094335 
L 296.703533 153.120813 
L 295.703533 153.143463 
L 294.703533 153.162995 
L 293.703533 153.189389 
L 292.703533 153.239159 
L 291.703533 153.274233 
L 290.077717 153.310098 
" clip-path="url(#pdae2478129)" style="fill: none; stroke: #ff7f0e; stroke-opacity: 0.5; stroke-width: 0.2; stroke-linecap: square"/>
   <path d="M 353.703533 86.217381 
L 352.703533 86.185944 
L 351.703533 86.149004 
L 350.703533 86.051257 
L 349.703533 86.018736 
L 348.703533 85.945111 
L 347.703533 85.906545 
L 346.703533 85.871132 
L 345.703533 85.813492 
L 344.703533 85.743106 
L 343.703533 85.691142 
L 342.703533 85.632052 
L 341.703533 85.543731 
L 340.703533 85.497587 
L 339.703533 85.455176 
L 338.703533 85.424683 
L 337.703533 85.398638 
L 336.703533 85.377438 
L 335.703533 85.323137 
L 334.703533 85.2952 
L 333.703533 85.265476 
L 332.703533 85.240081 
L 331.703533 85.22888 
L 330.703533 85.218757 
L 329.703533 85.218961 
L 328.703533 85.228471 
L 327.703533 85.240124 
L 326.703533 85.271154 
L 325.703533 85.282321 
L 324.703533 85.312439 
L 323.703533 85.372216 
L 322.703533 85.409407 
L 321.703533 85.448504 
L 320.703533 85.490943 
L 319.703533 85.523708 
L 318.703533 85.591135 
L 317.703533 85.630261 
L 316.703533 85.672935 
L 315.703533 85.743516 
L 314.703533 85.779907 
L 313.703533 85.83831 
L 312.703533 85.949262 
L 311.703533 86.019921 
L 310.703533 86.132861 
L 309.703533 86.178633 
L 308.703533 86.239917 
L 307.703533 86.288416 
L 306.703533 86.369239 
L 305.703533 86.487758 
L 304.703533 86.557968 
L 303.703533 86.641231 
L 302.703533 86.674373 
L 301.703533 86.72561 
L 300.703533 86.794008 
L 299.703533 86.860224 
L 298.703533 86.937141 
L 297.703533 86.964456 
L 296.703533 86.990934 
L 295.703533 87.013584 
L 294.703533 87.033116 
L 293.703533 87.05951 
L 292.703533 87.10928 
L 291.703533 87.144354 
L 290.077717 87.180219 
" clip-path="url(#pdae2478129)" style="fill: none; stroke: #ff7f0e; stroke-opacity: 0.5; stroke-width: 0.2; stroke-linecap: square"/>
   <path d="M 353.703533 119.536198 
L 352.703533 119.504761 
L 351.703533 119.467821 
L 350.703533 119.370074 
L 349.703533 119.337553 
L 348.703533 119.263928 
L 347.703533 119.225363 
L 346.703533 119.189949 
L 345.703533 119.13231 
L 344.703533 119.061923 
L 343.703533 119.009959 
L 342.703533 118.950869 
L 341.703533 118.862548 
L 340.703533 118.816404 
L 339.703533 118.773993 
L 338.703533 118.7435 
L 337.703533 118.717456 
L 336.703533 118.696255 
L 335.703533 118.641954 
L 334.703533 118.614017 
L 333.703533 118.584293 
L 332.703533 118.558898 
L 331.703533 118.547698 
L 330.703533 118.537574 
L 329.703533 118.537778 
L 328.703533 118.547288 
L 327.703533 118.558941 
L 326.703533 118.589971 
L 325.703533 118.601139 
L 324.703533 118.631256 
L 323.703533 118.691033 
L 322.703533 118.728225 
L 321.703533 118.767321 
L 320.703533 118.80976 
L 319.703533 118.842525 
L 318.703533 118.909952 
L 317.703533 118.949078 
L 316.703533 118.991752 
L 315.703533 119.062333 
L 314.703533 119.098724 
L 313.703533 119.157127 
L 312.703533 119.26808 
L 311.703533 119.338738 
L 310.703533 119.451678 
L 309.703533 119.497451 
L 308.703533 119.558734 
L 307.703533 119.607233 
L 306.703533 119.688056 
L 305.703533 119.806575 
L 304.703533 119.876785 
L 303.703533 119.960048 
L 302.703533 119.99319 
L 301.703533 120.044427 
L 300.703533 120.112825 
L 299.703533 120.179041 
L 298.703533 120.255958 
L 297.703533 120.283273 
L 296.703533 120.309751 
L 295.703533 120.332401 
L 294.703533 120.351933 
L 293.703533 120.378327 
L 292.703533 120.428098 
L 291.703533 120.463171 
L 290.077717 120.499036 
" clip-path="url(#pdae2478129)" style="fill: none; stroke: #ff7f0e; stroke-opacity: 0.5; stroke-width: 0.2; stroke-linecap: square"/>
   <path d="M 290.077717 141.340321 
L 291.077717 141.371757 
L 292.077717 141.408698 
L 293.077717 141.506444 
L 294.077717 141.538966 
L 295.077717 141.612591 
L 296.077717 141.651156 
L 297.077717 141.686569 
L 298.077717 141.744209 
L 299.077717 141.814596 
L 300.077717 141.86656 
L 301.077717 141.925649 
L 302.077717 142.01397 
L 303.077717 142.060115 
L 304.077717 142.102526 
L 305.077717 142.133018 
L 306.077717 142.159063 
L 307.077717 142.180263 
L 308.077717 142.234565 
L 309.077717 142.262502 
L 310.077717 142.292226 
L 311.077717 142.317621 
L 312.077717 142.328821 
L 313.077717 142.338945 
L 314.077717 142.338741 
L 315.077717 142.329231 
L 316.077717 142.317577 
L 317.077717 142.286548 
L 318.077717 142.27538 
L 319.077717 142.245263 
L 320.077717 142.185486 
L 321.077717 142.148294 
L 322.077717 142.109198 
L 323.077717 142.066758 
L 324.077717 142.033993 
L 325.077717 141.966567 
L 326.077717 141.927441 
L 327.077717 141.884766 
L 328.077717 141.814186 
L 329.077717 141.777795 
L 330.077717 141.719392 
L 331.077717 141.608439 
L 332.077717 141.537781 
L 333.077717 141.424841 
L 334.077717 141.379068 
L 335.077717 141.317785 
L 336.077717 141.269286 
L 337.077717 141.188463 
L 338.077717 141.069944 
L 339.077717 140.999733 
L 340.077717 140.916471 
L 341.077717 140.883329 
L 342.077717 140.832092 
L 343.077717 140.763694 
L 344.077717 140.697478 
L 345.077717 140.620561 
L 346.077717 140.593246 
L 347.077717 140.566768 
L 348.077717 140.544117 
L 349.077717 140.524586 
L 350.077717 140.498192 
L 351.077717 140.448421 
L 352.077717 140.413348 
L 353.703533 140.377482 
" clip-path="url(#pdae2478129)" style="fill: none; stroke: #1f77b4; stroke-opacity: 0.5; stroke-width: 0.2; stroke-linecap: square"/>
   <path d="M 290.077717 187.186679 
L 291.077717 187.218116 
L 292.077717 187.255056 
L 293.077717 187.352803 
L 294.077717 187.385324 
L 295.077717 187.458949 
L 296.077717 187.497514 
L 297.077717 187.532928 
L 298.077717 187.590567 
L 299.077717 187.660954 
L 300.077717 187.712918 
L 301.077717 187.772008 
L 302.077717 187.860329 
L 303.077717 187.906473 
L 304.077717 187.948884 
L 305.077717 187.979377 
L 306.077717 188.005421 
L 307.077717 188.026622 
L 308.077717 188.080923 
L 309.077717 188.10886 
L 310.077717 188.138584 
L 311.077717 188.163979 
L 312.077717 188.175179 
L 313.077717 188.185303 
L 314.077717 188.185099 
L 315.077717 188.175589 
L 316.077717 188.163936 
L 317.077717 188.132906 
L 318.077717 188.121738 
L 319.077717 188.091621 
L 320.077717 188.031844 
L 321.077717 187.994652 
L 322.077717 187.955556 
L 323.077717 187.913117 
L 324.077717 187.880352 
L 325.077717 187.812925 
L 326.077717 187.773799 
L 327.077717 187.731125 
L 328.077717 187.660544 
L 329.077717 187.624153 
L 330.077717 187.56575 
L 331.077717 187.454797 
L 332.077717 187.384139 
L 333.077717 187.271199 
L 334.077717 187.225426 
L 335.077717 187.164143 
L 336.077717 187.115644 
L 337.077717 187.034821 
L 338.077717 186.916302 
L 339.077717 186.846092 
L 340.077717 186.762829 
L 341.077717 186.729687 
L 342.077717 186.67845 
L 343.077717 186.610052 
L 344.077717 186.543836 
L 345.077717 186.466919 
L 346.077717 186.439604 
L 347.077717 186.413126 
L 348.077717 186.390476 
L 349.077717 186.370944 
L 350.077717 186.34455 
L 351.077717 186.294779 
L 352.077717 186.259706 
L 353.703533 186.223841 
" clip-path="url(#pdae2478129)" style="fill: none; stroke: #1f77b4; stroke-opacity: 0.5; stroke-width: 0.2; stroke-linecap: square"/>
   <path d="M 290.077717 123.163891 
L 291.077717 123.195328 
L 292.077717 123.232268 
L 293.077717 123.330015 
L 294.077717 123.362536 
L 295.077717 123.436161 
L 296.077717 123.474727 
L 297.077717 123.51014 
L 298.077717 123.56778 
L 299.077717 123.638166 
L 300.077717 123.69013 
L 301.077717 123.74922 
L 302.077717 123.837541 
L 303.077717 123.883685 
L 304.077717 123.926096 
L 305.077717 123.956589 
L 306.077717 123.982634 
L 307.077717 124.003834 
L 308.077717 124.058135 
L 309.077717 124.086072 
L 310.077717 124.115796 
L 311.077717 124.141191 
L 312.077717 124.152392 
L 313.077717 124.162516 
L 314.077717 124.162311 
L 315.077717 124.152801 
L 316.077717 124.141148 
L 317.077717 124.110118 
L 318.077717 124.098951 
L 319.077717 124.068833 
L 320.077717 124.009056 
L 321.077717 123.971865 
L 322.077717 123.932768 
L 323.077717 123.890329 
L 324.077717 123.857564 
L 325.077717 123.790137 
L 326.077717 123.751011 
L 327.077717 123.708337 
L 328.077717 123.637756 
L 329.077717 123.601365 
L 330.077717 123.542962 
L 331.077717 123.43201 
L 332.077717 123.361351 
L 333.077717 123.248411 
L 334.077717 123.202639 
L 335.077717 123.141355 
L 336.077717 123.092856 
L 337.077717 123.012033 
L 338.077717 122.893514 
L 339.077717 122.823304 
L 340.077717 122.740041 
L 341.077717 122.706899 
L 342.077717 122.655662 
L 343.077717 122.587264 
L 344.077717 122.521048 
L 345.077717 122.444131 
L 346.077717 122.416816 
L 347.077717 122.390338 
L 348.077717 122.367688 
L 349.077717 122.348156 
L 350.077717 122.321762 
L 351.077717 122.271992 
L 352.077717 122.236918 
L 353.703533 122.201053 
" clip-path="url(#pdae2478129)" style="fill: none; stroke: #1f77b4; stroke-opacity: 0.5; stroke-width: 0.2; stroke-linecap: square"/>
   <path d="M 290.077717 129.546789 
L 291.077717 129.578225 
L 292.077717 129.615166 
L 293.077717 129.712912 
L 294.077717 129.745434 
L 295.077717 129.819058 
L 296.077717 129.857624 
L 297.077717 129.893037 
L 298.077717 129.950677 
L 299.077717 130.021063 
L 300.077717 130.073028 
L 301.077717 130.132117 
L 302.077717 130.220438 
L 303.077717 130.266583 
L 304.077717 130.308993 
L 305.077717 130.339486 
L 306.077717 130.365531 
L 307.077717 130.386731 
L 308.077717 130.441032 
L 309.077717 130.46897 
L 310.077717 130.498694 
L 311.077717 130.524089 
L 312.077717 130.535289 
L 313.077717 130.545413 
L 314.077717 130.545209 
L 315.077717 130.535699 
L 316.077717 130.524045 
L 317.077717 130.493016 
L 318.077717 130.481848 
L 319.077717 130.45173 
L 320.077717 130.391954 
L 321.077717 130.354762 
L 322.077717 130.315666 
L 323.077717 130.273226 
L 324.077717 130.240461 
L 325.077717 130.173035 
L 326.077717 130.133909 
L 327.077717 130.091234 
L 328.077717 130.020654 
L 329.077717 129.984263 
L 330.077717 129.92586 
L 331.077717 129.814907 
L 332.077717 129.744249 
L 333.077717 129.631309 
L 334.077717 129.585536 
L 335.077717 129.524253 
L 336.077717 129.475753 
L 337.077717 129.394931 
L 338.077717 129.276412 
L 339.077717 129.206201 
L 340.077717 129.122939 
L 341.077717 129.089797 
L 342.077717 129.03856 
L 343.077717 128.970161 
L 344.077717 128.903946 
L 345.077717 128.827029 
L 346.077717 128.799713 
L 347.077717 128.773236 
L 348.077717 128.750585 
L 349.077717 128.731054 
L 350.077717 128.70466 
L 351.077717 128.654889 
L 352.077717 128.619816 
L 353.703533 128.58395 
" clip-path="url(#pdae2478129)" style="fill: none; stroke: #1f77b4; stroke-opacity: 0.5; stroke-width: 0.2; stroke-linecap: square"/>
   <path d="M 290.077717 90.090309 
L 291.077717 90.121745 
L 292.077717 90.158686 
L 293.077717 90.256432 
L 294.077717 90.288954 
L 295.077717 90.362579 
L 296.077717 90.401144 
L 297.077717 90.436557 
L 298.077717 90.494197 
L 299.077717 90.564583 
L 300.077717 90.616548 
L 301.077717 90.675637 
L 302.077717 90.763958 
L 303.077717 90.810103 
L 304.077717 90.852514 
L 305.077717 90.883006 
L 306.077717 90.909051 
L 307.077717 90.930251 
L 308.077717 90.984552 
L 309.077717 91.01249 
L 310.077717 91.042214 
L 311.077717 91.067609 
L 312.077717 91.078809 
L 313.077717 91.088933 
L 314.077717 91.088729 
L 315.077717 91.079219 
L 316.077717 91.067565 
L 317.077717 91.036536 
L 318.077717 91.025368 
L 319.077717 90.995251 
L 320.077717 90.935474 
L 321.077717 90.898282 
L 322.077717 90.859186 
L 323.077717 90.816746 
L 324.077717 90.783981 
L 325.077717 90.716555 
L 326.077717 90.677429 
L 327.077717 90.634754 
L 328.077717 90.564174 
L 329.077717 90.527783 
L 330.077717 90.46938 
L 331.077717 90.358427 
L 332.077717 90.287769 
L 333.077717 90.174829 
L 334.077717 90.129056 
L 335.077717 90.067773 
L 336.077717 90.019274 
L 337.077717 89.938451 
L 338.077717 89.819932 
L 339.077717 89.749721 
L 340.077717 89.666459 
L 341.077717 89.633317 
L 342.077717 89.58208 
L 343.077717 89.513681 
L 344.077717 89.447466 
L 345.077717 89.370549 
L 346.077717 89.343233 
L 347.077717 89.316756 
L 348.077717 89.294105 
L 349.077717 89.274574 
L 350.077717 89.24818 
L 351.077717 89.198409 
L 352.077717 89.163336 
L 353.703533 89.12747 
" clip-path="url(#pdae2478129)" style="fill: none; stroke: #1f77b4; stroke-opacity: 0.5; stroke-width: 0.2; stroke-linecap: square"/>
   <path d="M 290.077717 168.131318 
L 291.077717 168.162755 
L 292.077717 168.199695 
L 293.077717 168.297441 
L 294.077717 168.329963 
L 295.077717 168.403588 
L 296.077717 168.442153 
L 297.077717 168.477566 
L 298.077717 168.535206 
L 299.077717 168.605593 
L 300.077717 168.657557 
L 301.077717 168.716647 
L 302.077717 168.804968 
L 303.077717 168.851112 
L 304.077717 168.893523 
L 305.077717 168.924015 
L 306.077717 168.95006 
L 307.077717 168.971261 
L 308.077717 169.025562 
L 309.077717 169.053499 
L 310.077717 169.083223 
L 311.077717 169.108618 
L 312.077717 169.119818 
L 313.077717 169.129942 
L 314.077717 169.129738 
L 315.077717 169.120228 
L 316.077717 169.108575 
L 317.077717 169.077545 
L 318.077717 169.066377 
L 319.077717 169.03626 
L 320.077717 168.976483 
L 321.077717 168.939291 
L 322.077717 168.900195 
L 323.077717 168.857756 
L 324.077717 168.824991 
L 325.077717 168.757564 
L 326.077717 168.718438 
L 327.077717 168.675764 
L 328.077717 168.605183 
L 329.077717 168.568792 
L 330.077717 168.510389 
L 331.077717 168.399436 
L 332.077717 168.328778 
L 333.077717 168.215838 
L 334.077717 168.170065 
L 335.077717 168.108782 
L 336.077717 168.060283 
L 337.077717 167.97946 
L 338.077717 167.860941 
L 339.077717 167.790731 
L 340.077717 167.707468 
L 341.077717 167.674326 
L 342.077717 167.623089 
L 343.077717 167.554691 
L 344.077717 167.488475 
L 345.077717 167.411558 
L 346.077717 167.384243 
L 347.077717 167.357765 
L 348.077717 167.335114 
L 349.077717 167.315583 
L 350.077717 167.289189 
L 351.077717 167.239418 
L 352.077717 167.204345 
L 353.703533 167.16848 
" clip-path="url(#pdae2478129)" style="fill: none; stroke: #1f77b4; stroke-opacity: 0.5; stroke-width: 0.2; stroke-linecap: square"/>
   <path d="M 290.077717 147.579045 
L 291.077717 147.610481 
L 292.077717 147.647422 
L 293.077717 147.745168 
L 294.077717 147.77769 
L 295.077717 147.851315 
L 296.077717 147.88988 
L 297.077717 147.925293 
L 298.077717 147.982933 
L 299.077717 148.053319 
L 300.077717 148.105284 
L 301.077717 148.164373 
L 302.077717 148.252694 
L 303.077717 148.298839 
L 304.077717 148.34125 
L 305.077717 148.371742 
L 306.077717 148.397787 
L 307.077717 148.418987 
L 308.077717 148.473288 
L 309.077717 148.501226 
L 310.077717 148.53095 
L 311.077717 148.556345 
L 312.077717 148.567545 
L 313.077717 148.577669 
L 314.077717 148.577465 
L 315.077717 148.567955 
L 316.077717 148.556301 
L 317.077717 148.525272 
L 318.077717 148.514104 
L 319.077717 148.483987 
L 320.077717 148.42421 
L 321.077717 148.387018 
L 322.077717 148.347922 
L 323.077717 148.305482 
L 324.077717 148.272717 
L 325.077717 148.205291 
L 326.077717 148.166165 
L 327.077717 148.12349 
L 328.077717 148.05291 
L 329.077717 148.016519 
L 330.077717 147.958116 
L 331.077717 147.847163 
L 332.077717 147.776505 
L 333.077717 147.663565 
L 334.077717 147.617792 
L 335.077717 147.556509 
L 336.077717 147.50801 
L 337.077717 147.427187 
L 338.077717 147.308668 
L 339.077717 147.238457 
L 340.077717 147.155195 
L 341.077717 147.122053 
L 342.077717 147.070816 
L 343.077717 147.002417 
L 344.077717 146.936202 
L 345.077717 146.859285 
L 346.077717 146.831969 
L 347.077717 146.805492 
L 348.077717 146.782841 
L 349.077717 146.76331 
L 350.077717 146.736916 
L 351.077717 146.687145 
L 352.077717 146.652072 
L 353.703533 146.616206 
" clip-path="url(#pdae2478129)" style="fill: none; stroke: #1f77b4; stroke-opacity: 0.5; stroke-width: 0.2; stroke-linecap: square"/>
   <path d="M 290.077717 130.459373 
L 291.077717 130.490809 
L 292.077717 130.527749 
L 293.077717 130.625496 
L 294.077717 130.658018 
L 295.077717 130.731642 
L 296.077717 130.770208 
L 297.077717 130.805621 
L 298.077717 130.863261 
L 299.077717 130.933647 
L 300.077717 130.985611 
L 301.077717 131.044701 
L 302.077717 131.133022 
L 303.077717 131.179166 
L 304.077717 131.221577 
L 305.077717 131.25207 
L 306.077717 131.278115 
L 307.077717 131.299315 
L 308.077717 131.353616 
L 309.077717 131.381554 
L 310.077717 131.411278 
L 311.077717 131.436672 
L 312.077717 131.447873 
L 313.077717 131.457997 
L 314.077717 131.457792 
L 315.077717 131.448283 
L 316.077717 131.436629 
L 317.077717 131.4056 
L 318.077717 131.394432 
L 319.077717 131.364314 
L 320.077717 131.304537 
L 321.077717 131.267346 
L 322.077717 131.22825 
L 323.077717 131.18581 
L 324.077717 131.153045 
L 325.077717 131.085619 
L 326.077717 131.046493 
L 327.077717 131.003818 
L 328.077717 130.933237 
L 329.077717 130.896847 
L 330.077717 130.838443 
L 331.077717 130.727491 
L 332.077717 130.656833 
L 333.077717 130.543893 
L 334.077717 130.49812 
L 335.077717 130.436837 
L 336.077717 130.388337 
L 337.077717 130.307515 
L 338.077717 130.188996 
L 339.077717 130.118785 
L 340.077717 130.035523 
L 341.077717 130.002381 
L 342.077717 129.951143 
L 343.077717 129.882745 
L 344.077717 129.81653 
L 345.077717 129.739613 
L 346.077717 129.712297 
L 347.077717 129.68582 
L 348.077717 129.663169 
L 349.077717 129.643638 
L 350.077717 129.617244 
L 351.077717 129.567473 
L 352.077717 129.5324 
L 353.703533 129.496534 
" clip-path="url(#pdae2478129)" style="fill: none; stroke: #1f77b4; stroke-opacity: 0.5; stroke-width: 0.2; stroke-linecap: square"/>
   <path d="M 290.077717 169.495149 
L 291.077717 169.526586 
L 292.077717 169.563526 
L 293.077717 169.661273 
L 294.077717 169.693794 
L 295.077717 169.767419 
L 296.077717 169.805984 
L 297.077717 169.841398 
L 298.077717 169.899038 
L 299.077717 169.969424 
L 300.077717 170.021388 
L 301.077717 170.080478 
L 302.077717 170.168799 
L 303.077717 170.214943 
L 304.077717 170.257354 
L 305.077717 170.287847 
L 306.077717 170.313891 
L 307.077717 170.335092 
L 308.077717 170.389393 
L 309.077717 170.41733 
L 310.077717 170.447054 
L 311.077717 170.472449 
L 312.077717 170.483649 
L 313.077717 170.493773 
L 314.077717 170.493569 
L 315.077717 170.484059 
L 316.077717 170.472406 
L 317.077717 170.441376 
L 318.077717 170.430208 
L 319.077717 170.400091 
L 320.077717 170.340314 
L 321.077717 170.303122 
L 322.077717 170.264026 
L 323.077717 170.221587 
L 324.077717 170.188822 
L 325.077717 170.121395 
L 326.077717 170.082269 
L 327.077717 170.039595 
L 328.077717 169.969014 
L 329.077717 169.932623 
L 330.077717 169.87422 
L 331.077717 169.763267 
L 332.077717 169.692609 
L 333.077717 169.579669 
L 334.077717 169.533896 
L 335.077717 169.472613 
L 336.077717 169.424114 
L 337.077717 169.343291 
L 338.077717 169.224772 
L 339.077717 169.154562 
L 340.077717 169.071299 
L 341.077717 169.038157 
L 342.077717 168.98692 
L 343.077717 168.918522 
L 344.077717 168.852306 
L 345.077717 168.775389 
L 346.077717 168.748074 
L 347.077717 168.721596 
L 348.077717 168.698946 
L 349.077717 168.679414 
L 350.077717 168.65302 
L 351.077717 168.603249 
L 352.077717 168.568176 
L 353.703533 168.532311 
" clip-path="url(#pdae2478129)" style="fill: none; stroke: #1f77b4; stroke-opacity: 0.5; stroke-width: 0.2; stroke-linecap: square"/>
   <path d="M 290.077717 131.137617 
L 291.077717 131.169054 
L 292.077717 131.205994 
L 293.077717 131.303741 
L 294.077717 131.336262 
L 295.077717 131.409887 
L 296.077717 131.448452 
L 297.077717 131.483866 
L 298.077717 131.541506 
L 299.077717 131.611892 
L 300.077717 131.663856 
L 301.077717 131.722946 
L 302.077717 131.811267 
L 303.077717 131.857411 
L 304.077717 131.899822 
L 305.077717 131.930315 
L 306.077717 131.95636 
L 307.077717 131.97756 
L 308.077717 132.031861 
L 309.077717 132.059798 
L 310.077717 132.089522 
L 311.077717 132.114917 
L 312.077717 132.126117 
L 313.077717 132.136241 
L 314.077717 132.136037 
L 315.077717 132.126527 
L 316.077717 132.114874 
L 317.077717 132.083844 
L 318.077717 132.072676 
L 319.077717 132.042559 
L 320.077717 131.982782 
L 321.077717 131.94559 
L 322.077717 131.906494 
L 323.077717 131.864055 
L 324.077717 131.83129 
L 325.077717 131.763863 
L 326.077717 131.724737 
L 327.077717 131.682063 
L 328.077717 131.611482 
L 329.077717 131.575091 
L 330.077717 131.516688 
L 331.077717 131.405735 
L 332.077717 131.335077 
L 333.077717 131.222137 
L 334.077717 131.176364 
L 335.077717 131.115081 
L 336.077717 131.066582 
L 337.077717 130.985759 
L 338.077717 130.86724 
L 339.077717 130.79703 
L 340.077717 130.713767 
L 341.077717 130.680625 
L 342.077717 130.629388 
L 343.077717 130.56099 
L 344.077717 130.494774 
L 345.077717 130.417857 
L 346.077717 130.390542 
L 347.077717 130.364064 
L 348.077717 130.341414 
L 349.077717 130.321882 
L 350.077717 130.295488 
L 351.077717 130.245717 
L 352.077717 130.210644 
L 353.703533 130.174779 
" clip-path="url(#pdae2478129)" style="fill: none; stroke: #1f77b4; stroke-opacity: 0.5; stroke-width: 0.2; stroke-linecap: square"/>
   <path d="M 353.703533 280.572576 
L 352.703533 280.54114 
L 351.703533 280.504199 
L 350.703533 280.406453 
L 349.703533 280.373931 
L 348.703533 280.300307 
L 347.703533 280.261741 
L 346.703533 280.226328 
L 345.703533 280.168688 
L 344.703533 280.098302 
L 343.703533 280.046337 
L 342.703533 279.987248 
L 341.703533 279.898927 
L 340.703533 279.852782 
L 339.703533 279.810372 
L 338.703533 279.779879 
L 337.703533 279.753834 
L 336.703533 279.732634 
L 335.703533 279.678333 
L 334.703533 279.650395 
L 333.703533 279.620671 
L 332.703533 279.595276 
L 331.703533 279.584076 
L 330.703533 279.573952 
L 329.703533 279.574156 
L 328.703533 279.583666 
L 327.703533 279.59532 
L 326.703533 279.626349 
L 325.703533 279.637517 
L 324.703533 279.667635 
L 323.703533 279.727411 
L 322.703533 279.764603 
L 321.703533 279.803699 
L 320.703533 279.846139 
L 319.703533 279.878904 
L 318.703533 279.94633 
L 317.703533 279.985456 
L 316.703533 280.028131 
L 315.703533 280.098711 
L 314.703533 280.135102 
L 313.703533 280.193505 
L 312.703533 280.304458 
L 311.703533 280.375116 
L 310.703533 280.488056 
L 309.703533 280.533829 
L 308.703533 280.595112 
L 307.703533 280.643612 
L 306.703533 280.724434 
L 305.703533 280.842953 
L 304.703533 280.913164 
L 303.703533 280.996426 
L 302.703533 281.029568 
L 301.703533 281.080805 
L 300.703533 281.149204 
L 299.703533 281.215419 
L 298.703533 281.292336 
L 297.703533 281.319652 
L 296.703533 281.346129 
L 295.703533 281.36878 
L 294.703533 281.388311 
L 293.703533 281.414705 
L 292.703533 281.464476 
L 291.703533 281.499549 
L 290.077717 281.535415 
" clip-path="url(#pdae2478129)" style="fill: none; stroke: #ff7f0e; stroke-opacity: 0.5; stroke-width: 0.2; stroke-linecap: square"/>
   <path d="M 353.703533 236.449151 
L 352.703533 236.417715 
L 351.703533 236.380774 
L 350.703533 236.283028 
L 349.703533 236.250506 
L 348.703533 236.176882 
L 347.703533 236.138316 
L 346.703533 236.102903 
L 345.703533 236.045263 
L 344.703533 235.974877 
L 343.703533 235.922912 
L 342.703533 235.863823 
L 341.703533 235.775502 
L 340.703533 235.729357 
L 339.703533 235.686946 
L 338.703533 235.656454 
L 337.703533 235.630409 
L 336.703533 235.609209 
L 335.703533 235.554908 
L 334.703533 235.52697 
L 333.703533 235.497246 
L 332.703533 235.471851 
L 331.703533 235.460651 
L 330.703533 235.450527 
L 329.703533 235.450731 
L 328.703533 235.460241 
L 327.703533 235.471895 
L 326.703533 235.502924 
L 325.703533 235.514092 
L 324.703533 235.544209 
L 323.703533 235.603986 
L 322.703533 235.641178 
L 321.703533 235.680274 
L 320.703533 235.722714 
L 319.703533 235.755479 
L 318.703533 235.822905 
L 317.703533 235.862031 
L 316.703533 235.904706 
L 315.703533 235.975286 
L 314.703533 236.011677 
L 313.703533 236.07008 
L 312.703533 236.181033 
L 311.703533 236.251691 
L 310.703533 236.364631 
L 309.703533 236.410404 
L 308.703533 236.471687 
L 307.703533 236.520186 
L 306.703533 236.601009 
L 305.703533 236.719528 
L 304.703533 236.789739 
L 303.703533 236.873001 
L 302.703533 236.906143 
L 301.703533 236.95738 
L 300.703533 237.025779 
L 299.703533 237.091994 
L 298.703533 237.168911 
L 297.703533 237.196227 
L 296.703533 237.222704 
L 295.703533 237.245355 
L 294.703533 237.264886 
L 293.703533 237.29128 
L 292.703533 237.341051 
L 291.703533 237.376124 
L 290.077717 237.41199 
" clip-path="url(#pdae2478129)" style="fill: none; stroke: #ff7f0e; stroke-opacity: 0.5; stroke-width: 0.2; stroke-linecap: square"/>
   <path d="M 353.703533 317.761378 
L 352.703533 317.729942 
L 351.703533 317.693001 
L 350.703533 317.595255 
L 349.703533 317.562733 
L 348.703533 317.489109 
L 347.703533 317.450543 
L 346.703533 317.41513 
L 345.703533 317.35749 
L 344.703533 317.287104 
L 343.703533 317.23514 
L 342.703533 317.17605 
L 341.703533 317.087729 
L 340.703533 317.041585 
L 339.703533 316.999174 
L 338.703533 316.968681 
L 337.703533 316.942636 
L 336.703533 316.921436 
L 335.703533 316.867135 
L 334.703533 316.839197 
L 333.703533 316.809473 
L 332.703533 316.784078 
L 331.703533 316.772878 
L 330.703533 316.762754 
L 329.703533 316.762958 
L 328.703533 316.772468 
L 327.703533 316.784122 
L 326.703533 316.815151 
L 325.703533 316.826319 
L 324.703533 316.856437 
L 323.703533 316.916214 
L 322.703533 316.953405 
L 321.703533 316.992501 
L 320.703533 317.034941 
L 319.703533 317.067706 
L 318.703533 317.135132 
L 317.703533 317.174258 
L 316.703533 317.216933 
L 315.703533 317.287513 
L 314.703533 317.323904 
L 313.703533 317.382307 
L 312.703533 317.49326 
L 311.703533 317.563918 
L 310.703533 317.676858 
L 309.703533 317.722631 
L 308.703533 317.783914 
L 307.703533 317.832414 
L 306.703533 317.913236 
L 305.703533 318.031755 
L 304.703533 318.101966 
L 303.703533 318.185228 
L 302.703533 318.21837 
L 301.703533 318.269607 
L 300.703533 318.338006 
L 299.703533 318.404221 
L 298.703533 318.481138 
L 297.703533 318.508454 
L 296.703533 318.534931 
L 295.703533 318.557582 
L 294.703533 318.577113 
L 293.703533 318.603507 
L 292.703533 318.653278 
L 291.703533 318.688351 
L 290.077717 318.724217 
" clip-path="url(#pdae2478129)" style="fill: none; stroke: #ff7f0e; stroke-opacity: 0.5; stroke-width: 0.2; stroke-linecap: square"/>
   <path d="M 353.703533 275.996306 
L 352.703533 275.96487 
L 351.703533 275.92793 
L 350.703533 275.830183 
L 349.703533 275.797661 
L 348.703533 275.724037 
L 347.703533 275.685471 
L 346.703533 275.650058 
L 345.703533 275.592418 
L 344.703533 275.522032 
L 343.703533 275.470068 
L 342.703533 275.410978 
L 341.703533 275.322657 
L 340.703533 275.276513 
L 339.703533 275.234102 
L 338.703533 275.203609 
L 337.703533 275.177564 
L 336.703533 275.156364 
L 335.703533 275.102063 
L 334.703533 275.074125 
L 333.703533 275.044401 
L 332.703533 275.019007 
L 331.703533 275.007806 
L 330.703533 274.997682 
L 329.703533 274.997887 
L 328.703533 275.007396 
L 327.703533 275.01905 
L 326.703533 275.050079 
L 325.703533 275.061247 
L 324.703533 275.091365 
L 323.703533 275.151142 
L 322.703533 275.188333 
L 321.703533 275.227429 
L 320.703533 275.269869 
L 319.703533 275.302634 
L 318.703533 275.37006 
L 317.703533 275.409186 
L 316.703533 275.451861 
L 315.703533 275.522442 
L 314.703533 275.558832 
L 313.703533 275.617236 
L 312.703533 275.728188 
L 311.703533 275.798846 
L 310.703533 275.911786 
L 309.703533 275.957559 
L 308.703533 276.018842 
L 307.703533 276.067342 
L 306.703533 276.148164 
L 305.703533 276.266683 
L 304.703533 276.336894 
L 303.703533 276.420156 
L 302.703533 276.453298 
L 301.703533 276.504536 
L 300.703533 276.572934 
L 299.703533 276.639149 
L 298.703533 276.716066 
L 297.703533 276.743382 
L 296.703533 276.769859 
L 295.703533 276.79251 
L 294.703533 276.812041 
L 293.703533 276.838435 
L 292.703533 276.888206 
L 291.703533 276.923279 
L 290.077717 276.959145 
" clip-path="url(#pdae2478129)" style="fill: none; stroke: #ff7f0e; stroke-opacity: 0.5; stroke-width: 0.2; stroke-linecap: square"/>
   <path d="M 353.703533 230.868034 
L 352.703533 230.836598 
L 351.703533 230.799657 
L 350.703533 230.701911 
L 349.703533 230.669389 
L 348.703533 230.595764 
L 347.703533 230.557199 
L 346.703533 230.521786 
L 345.703533 230.464146 
L 344.703533 230.393759 
L 343.703533 230.341795 
L 342.703533 230.282706 
L 341.703533 230.194385 
L 340.703533 230.14824 
L 339.703533 230.105829 
L 338.703533 230.075337 
L 337.703533 230.049292 
L 336.703533 230.028092 
L 335.703533 229.97379 
L 334.703533 229.945853 
L 333.703533 229.916129 
L 332.703533 229.890734 
L 331.703533 229.879534 
L 330.703533 229.86941 
L 329.703533 229.869614 
L 328.703533 229.879124 
L 327.703533 229.890778 
L 326.703533 229.921807 
L 325.703533 229.932975 
L 324.703533 229.963092 
L 323.703533 230.022869 
L 322.703533 230.060061 
L 321.703533 230.099157 
L 320.703533 230.141597 
L 319.703533 230.174362 
L 318.703533 230.241788 
L 317.703533 230.280914 
L 316.703533 230.323589 
L 315.703533 230.394169 
L 314.703533 230.43056 
L 313.703533 230.488963 
L 312.703533 230.599916 
L 311.703533 230.670574 
L 310.703533 230.783514 
L 309.703533 230.829287 
L 308.703533 230.89057 
L 307.703533 230.939069 
L 306.703533 231.019892 
L 305.703533 231.138411 
L 304.703533 231.208622 
L 303.703533 231.291884 
L 302.703533 231.325026 
L 301.703533 231.376263 
L 300.703533 231.444661 
L 299.703533 231.510877 
L 298.703533 231.587794 
L 297.703533 231.615109 
L 296.703533 231.641587 
L 295.703533 231.664238 
L 294.703533 231.683769 
L 293.703533 231.710163 
L 292.703533 231.759934 
L 291.703533 231.795007 
L 290.077717 231.830873 
" clip-path="url(#pdae2478129)" style="fill: none; stroke: #ff7f0e; stroke-opacity: 0.5; stroke-width: 0.2; stroke-linecap: square"/>
   <path d="M 353.703533 289.466812 
L 352.703533 289.435376 
L 351.703533 289.398435 
L 350.703533 289.300689 
L 349.703533 289.268167 
L 348.703533 289.194542 
L 347.703533 289.155977 
L 346.703533 289.120564 
L 345.703533 289.062924 
L 344.703533 288.992538 
L 343.703533 288.940573 
L 342.703533 288.881484 
L 341.703533 288.793163 
L 340.703533 288.747018 
L 339.703533 288.704607 
L 338.703533 288.674115 
L 337.703533 288.64807 
L 336.703533 288.62687 
L 335.703533 288.572569 
L 334.703533 288.544631 
L 333.703533 288.514907 
L 332.703533 288.489512 
L 331.703533 288.478312 
L 330.703533 288.468188 
L 329.703533 288.468392 
L 328.703533 288.477902 
L 327.703533 288.489556 
L 326.703533 288.520585 
L 325.703533 288.531753 
L 324.703533 288.56187 
L 323.703533 288.621647 
L 322.703533 288.658839 
L 321.703533 288.697935 
L 320.703533 288.740375 
L 319.703533 288.77314 
L 318.703533 288.840566 
L 317.703533 288.879692 
L 316.703533 288.922367 
L 315.703533 288.992947 
L 314.703533 289.029338 
L 313.703533 289.087741 
L 312.703533 289.198694 
L 311.703533 289.269352 
L 310.703533 289.382292 
L 309.703533 289.428065 
L 308.703533 289.489348 
L 307.703533 289.537847 
L 306.703533 289.61867 
L 305.703533 289.737189 
L 304.703533 289.8074 
L 303.703533 289.890662 
L 302.703533 289.923804 
L 301.703533 289.975041 
L 300.703533 290.04344 
L 299.703533 290.109655 
L 298.703533 290.186572 
L 297.703533 290.213888 
L 296.703533 290.240365 
L 295.703533 290.263016 
L 294.703533 290.282547 
L 293.703533 290.308941 
L 292.703533 290.358712 
L 291.703533 290.393785 
L 290.077717 290.429651 
" clip-path="url(#pdae2478129)" style="fill: none; stroke: #ff7f0e; stroke-opacity: 0.5; stroke-width: 0.2; stroke-linecap: square"/>
   <path d="M 353.703533 254.967296 
L 352.703533 254.935859 
L 351.703533 254.898919 
L 350.703533 254.801172 
L 349.703533 254.768651 
L 348.703533 254.695026 
L 347.703533 254.65646 
L 346.703533 254.621047 
L 345.703533 254.563407 
L 344.703533 254.493021 
L 343.703533 254.441057 
L 342.703533 254.381967 
L 341.703533 254.293646 
L 340.703533 254.247502 
L 339.703533 254.205091 
L 338.703533 254.174598 
L 337.703533 254.148553 
L 336.703533 254.127353 
L 335.703533 254.073052 
L 334.703533 254.045115 
L 333.703533 254.015391 
L 332.703533 253.989996 
L 331.703533 253.978795 
L 330.703533 253.968671 
L 329.703533 253.968876 
L 328.703533 253.978386 
L 327.703533 253.990039 
L 326.703533 254.021069 
L 325.703533 254.032236 
L 324.703533 254.062354 
L 323.703533 254.122131 
L 322.703533 254.159322 
L 321.703533 254.198419 
L 320.703533 254.240858 
L 319.703533 254.273623 
L 318.703533 254.34105 
L 317.703533 254.380176 
L 316.703533 254.42285 
L 315.703533 254.493431 
L 314.703533 254.529822 
L 313.703533 254.588225 
L 312.703533 254.699177 
L 311.703533 254.769836 
L 310.703533 254.882776 
L 309.703533 254.928548 
L 308.703533 254.989832 
L 307.703533 255.038331 
L 306.703533 255.119154 
L 305.703533 255.237673 
L 304.703533 255.307883 
L 303.703533 255.391146 
L 302.703533 255.424287 
L 301.703533 255.475525 
L 300.703533 255.543923 
L 299.703533 255.610139 
L 298.703533 255.687056 
L 297.703533 255.714371 
L 296.703533 255.740849 
L 295.703533 255.763499 
L 294.703533 255.783031 
L 293.703533 255.809425 
L 292.703533 255.859195 
L 291.703533 255.894269 
L 290.077717 255.930134 
" clip-path="url(#pdae2478129)" style="fill: none; stroke: #ff7f0e; stroke-opacity: 0.5; stroke-width: 0.2; stroke-linecap: square"/>
   <path d="M 353.703533 276.218436 
L 352.703533 276.187 
L 351.703533 276.150059 
L 350.703533 276.052313 
L 349.703533 276.019791 
L 348.703533 275.946166 
L 347.703533 275.907601 
L 346.703533 275.872188 
L 345.703533 275.814548 
L 344.703533 275.744161 
L 343.703533 275.692197 
L 342.703533 275.633108 
L 341.703533 275.544787 
L 340.703533 275.498642 
L 339.703533 275.456231 
L 338.703533 275.425739 
L 337.703533 275.399694 
L 336.703533 275.378494 
L 335.703533 275.324192 
L 334.703533 275.296255 
L 333.703533 275.266531 
L 332.703533 275.241136 
L 331.703533 275.229936 
L 330.703533 275.219812 
L 329.703533 275.220016 
L 328.703533 275.229526 
L 327.703533 275.24118 
L 326.703533 275.272209 
L 325.703533 275.283377 
L 324.703533 275.313494 
L 323.703533 275.373271 
L 322.703533 275.410463 
L 321.703533 275.449559 
L 320.703533 275.491999 
L 319.703533 275.524764 
L 318.703533 275.59219 
L 317.703533 275.631316 
L 316.703533 275.673991 
L 315.703533 275.744571 
L 314.703533 275.780962 
L 313.703533 275.839365 
L 312.703533 275.950318 
L 311.703533 276.020976 
L 310.703533 276.133916 
L 309.703533 276.179689 
L 308.703533 276.240972 
L 307.703533 276.289471 
L 306.703533 276.370294 
L 305.703533 276.488813 
L 304.703533 276.559024 
L 303.703533 276.642286 
L 302.703533 276.675428 
L 301.703533 276.726665 
L 300.703533 276.795063 
L 299.703533 276.861279 
L 298.703533 276.938196 
L 297.703533 276.965511 
L 296.703533 276.991989 
L 295.703533 277.01464 
L 294.703533 277.034171 
L 293.703533 277.060565 
L 292.703533 277.110336 
L 291.703533 277.145409 
L 290.077717 277.181275 
" clip-path="url(#pdae2478129)" style="fill: none; stroke: #ff7f0e; stroke-opacity: 0.5; stroke-width: 0.2; stroke-linecap: square"/>
   <path d="M 353.703533 269.056718 
L 352.703533 269.025281 
L 351.703533 268.988341 
L 350.703533 268.890594 
L 349.703533 268.858073 
L 348.703533 268.784448 
L 347.703533 268.745883 
L 346.703533 268.710469 
L 345.703533 268.65283 
L 344.703533 268.582443 
L 343.703533 268.530479 
L 342.703533 268.471389 
L 341.703533 268.383068 
L 340.703533 268.336924 
L 339.703533 268.294513 
L 338.703533 268.26402 
L 337.703533 268.237976 
L 336.703533 268.216775 
L 335.703533 268.162474 
L 334.703533 268.134537 
L 333.703533 268.104813 
L 332.703533 268.079418 
L 331.703533 268.068218 
L 330.703533 268.058094 
L 329.703533 268.058298 
L 328.703533 268.067808 
L 327.703533 268.079461 
L 326.703533 268.110491 
L 325.703533 268.121659 
L 324.703533 268.151776 
L 323.703533 268.211553 
L 322.703533 268.248745 
L 321.703533 268.287841 
L 320.703533 268.33028 
L 319.703533 268.363045 
L 318.703533 268.430472 
L 317.703533 268.469598 
L 316.703533 268.512272 
L 315.703533 268.582853 
L 314.703533 268.619244 
L 313.703533 268.677647 
L 312.703533 268.7886 
L 311.703533 268.859258 
L 310.703533 268.972198 
L 309.703533 269.017971 
L 308.703533 269.079254 
L 307.703533 269.127753 
L 306.703533 269.208576 
L 305.703533 269.327095 
L 304.703533 269.397305 
L 303.703533 269.480568 
L 302.703533 269.51371 
L 301.703533 269.564947 
L 300.703533 269.633345 
L 299.703533 269.699561 
L 298.703533 269.776478 
L 297.703533 269.803793 
L 296.703533 269.830271 
L 295.703533 269.852921 
L 294.703533 269.872453 
L 293.703533 269.898847 
L 292.703533 269.948618 
L 291.703533 269.983691 
L 290.077717 270.019556 
" clip-path="url(#pdae2478129)" style="fill: none; stroke: #ff7f0e; stroke-opacity: 0.5; stroke-width: 0.2; stroke-linecap: square"/>
   <path d="M 353.703533 316.227801 
L 352.703533 316.196365 
L 351.703533 316.159425 
L 350.703533 316.061678 
L 349.703533 316.029157 
L 348.703533 315.955532 
L 347.703533 315.916966 
L 346.703533 315.881553 
L 345.703533 315.823913 
L 344.703533 315.753527 
L 343.703533 315.701563 
L 342.703533 315.642473 
L 341.703533 315.554152 
L 340.703533 315.508008 
L 339.703533 315.465597 
L 338.703533 315.435104 
L 337.703533 315.409059 
L 336.703533 315.387859 
L 335.703533 315.333558 
L 334.703533 315.30562 
L 333.703533 315.275896 
L 332.703533 315.250502 
L 331.703533 315.239301 
L 330.703533 315.229177 
L 329.703533 315.229382 
L 328.703533 315.238891 
L 327.703533 315.250545 
L 326.703533 315.281574 
L 325.703533 315.292742 
L 324.703533 315.32286 
L 323.703533 315.382637 
L 322.703533 315.419828 
L 321.703533 315.458924 
L 320.703533 315.501364 
L 319.703533 315.534129 
L 318.703533 315.601556 
L 317.703533 315.640681 
L 316.703533 315.683356 
L 315.703533 315.753937 
L 314.703533 315.790327 
L 313.703533 315.848731 
L 312.703533 315.959683 
L 311.703533 316.030342 
L 310.703533 316.143281 
L 309.703533 316.189054 
L 308.703533 316.250337 
L 307.703533 316.298837 
L 306.703533 316.379659 
L 305.703533 316.498178 
L 304.703533 316.568389 
L 303.703533 316.651652 
L 302.703533 316.684793 
L 301.703533 316.736031 
L 300.703533 316.804429 
L 299.703533 316.870644 
L 298.703533 316.947561 
L 297.703533 316.974877 
L 296.703533 317.001354 
L 295.703533 317.024005 
L 294.703533 317.043536 
L 293.703533 317.06993 
L 292.703533 317.119701 
L 291.703533 317.154774 
L 290.077717 317.19064 
" clip-path="url(#pdae2478129)" style="fill: none; stroke: #ff7f0e; stroke-opacity: 0.5; stroke-width: 0.2; stroke-linecap: square"/>
   <path d="M 290.077717 236.007056 
L 291.077717 236.038493 
L 292.077717 236.075433 
L 293.077717 236.17318 
L 294.077717 236.205701 
L 295.077717 236.279326 
L 296.077717 236.317892 
L 297.077717 236.353305 
L 298.077717 236.410945 
L 299.077717 236.481331 
L 300.077717 236.533295 
L 301.077717 236.592385 
L 302.077717 236.680706 
L 303.077717 236.72685 
L 304.077717 236.769261 
L 305.077717 236.799754 
L 306.077717 236.825799 
L 307.077717 236.846999 
L 308.077717 236.9013 
L 309.077717 236.929238 
L 310.077717 236.958961 
L 311.077717 236.984356 
L 312.077717 236.995557 
L 313.077717 237.005681 
L 314.077717 237.005476 
L 315.077717 236.995966 
L 316.077717 236.984313 
L 317.077717 236.953284 
L 318.077717 236.942116 
L 319.077717 236.911998 
L 320.077717 236.852221 
L 321.077717 236.81503 
L 322.077717 236.775934 
L 323.077717 236.733494 
L 324.077717 236.700729 
L 325.077717 236.633302 
L 326.077717 236.594176 
L 327.077717 236.551502 
L 328.077717 236.480921 
L 329.077717 236.44453 
L 330.077717 236.386127 
L 331.077717 236.275175 
L 332.077717 236.204516 
L 333.077717 236.091577 
L 334.077717 236.045804 
L 335.077717 235.98452 
L 336.077717 235.936021 
L 337.077717 235.855198 
L 338.077717 235.736679 
L 339.077717 235.666469 
L 340.077717 235.583206 
L 341.077717 235.550065 
L 342.077717 235.498827 
L 343.077717 235.430429 
L 344.077717 235.364213 
L 345.077717 235.287296 
L 346.077717 235.259981 
L 347.077717 235.233503 
L 348.077717 235.210853 
L 349.077717 235.191322 
L 350.077717 235.164928 
L 351.077717 235.115157 
L 352.077717 235.080084 
L 353.703533 235.044218 
" clip-path="url(#pdae2478129)" style="fill: none; stroke: #1f77b4; stroke-opacity: 0.5; stroke-width: 0.2; stroke-linecap: square"/>
   <path d="M 290.077717 304.485989 
L 291.077717 304.517426 
L 292.077717 304.554366 
L 293.077717 304.652112 
L 294.077717 304.684634 
L 295.077717 304.758259 
L 296.077717 304.796824 
L 297.077717 304.832237 
L 298.077717 304.889877 
L 299.077717 304.960264 
L 300.077717 305.012228 
L 301.077717 305.071318 
L 302.077717 305.159639 
L 303.077717 305.205783 
L 304.077717 305.248194 
L 305.077717 305.278686 
L 306.077717 305.304731 
L 307.077717 305.325932 
L 308.077717 305.380233 
L 309.077717 305.40817 
L 310.077717 305.437894 
L 311.077717 305.463289 
L 312.077717 305.474489 
L 313.077717 305.484613 
L 314.077717 305.484409 
L 315.077717 305.474899 
L 316.077717 305.463246 
L 317.077717 305.432216 
L 318.077717 305.421048 
L 319.077717 305.390931 
L 320.077717 305.331154 
L 321.077717 305.293962 
L 322.077717 305.254866 
L 323.077717 305.212427 
L 324.077717 305.179662 
L 325.077717 305.112235 
L 326.077717 305.073109 
L 327.077717 305.030435 
L 328.077717 304.959854 
L 329.077717 304.923463 
L 330.077717 304.86506 
L 331.077717 304.754107 
L 332.077717 304.683449 
L 333.077717 304.570509 
L 334.077717 304.524736 
L 335.077717 304.463453 
L 336.077717 304.414954 
L 337.077717 304.334131 
L 338.077717 304.215612 
L 339.077717 304.145402 
L 340.077717 304.062139 
L 341.077717 304.028997 
L 342.077717 303.97776 
L 343.077717 303.909362 
L 344.077717 303.843146 
L 345.077717 303.766229 
L 346.077717 303.738914 
L 347.077717 303.712436 
L 348.077717 303.689785 
L 349.077717 303.670254 
L 350.077717 303.64386 
L 351.077717 303.594089 
L 352.077717 303.559016 
L 353.703533 303.523151 
" clip-path="url(#pdae2478129)" style="fill: none; stroke: #1f77b4; stroke-opacity: 0.5; stroke-width: 0.2; stroke-linecap: square"/>
   <path d="M 290.077717 306.395426 
L 291.077717 306.426862 
L 292.077717 306.463803 
L 293.077717 306.561549 
L 294.077717 306.594071 
L 295.077717 306.667696 
L 296.077717 306.706261 
L 297.077717 306.741674 
L 298.077717 306.799314 
L 299.077717 306.8697 
L 300.077717 306.921665 
L 301.077717 306.980754 
L 302.077717 307.069075 
L 303.077717 307.11522 
L 304.077717 307.157631 
L 305.077717 307.188123 
L 306.077717 307.214168 
L 307.077717 307.235368 
L 308.077717 307.289669 
L 309.077717 307.317607 
L 310.077717 307.347331 
L 311.077717 307.372726 
L 312.077717 307.383926 
L 313.077717 307.39405 
L 314.077717 307.393846 
L 315.077717 307.384336 
L 316.077717 307.372682 
L 317.077717 307.341653 
L 318.077717 307.330485 
L 319.077717 307.300368 
L 320.077717 307.240591 
L 321.077717 307.203399 
L 322.077717 307.164303 
L 323.077717 307.121863 
L 324.077717 307.089098 
L 325.077717 307.021672 
L 326.077717 306.982546 
L 327.077717 306.939871 
L 328.077717 306.869291 
L 329.077717 306.8329 
L 330.077717 306.774497 
L 331.077717 306.663544 
L 332.077717 306.592886 
L 333.077717 306.479946 
L 334.077717 306.434173 
L 335.077717 306.37289 
L 336.077717 306.324391 
L 337.077717 306.243568 
L 338.077717 306.125049 
L 339.077717 306.054838 
L 340.077717 305.971576 
L 341.077717 305.938434 
L 342.077717 305.887197 
L 343.077717 305.818798 
L 344.077717 305.752583 
L 345.077717 305.675666 
L 346.077717 305.64835 
L 347.077717 305.621873 
L 348.077717 305.599222 
L 349.077717 305.579691 
L 350.077717 305.553297 
L 351.077717 305.503526 
L 352.077717 305.468453 
L 353.703533 305.432587 
" clip-path="url(#pdae2478129)" style="fill: none; stroke: #1f77b4; stroke-opacity: 0.5; stroke-width: 0.2; stroke-linecap: square"/>
   <path d="M 290.077717 247.94985 
L 291.077717 247.981286 
L 292.077717 248.018227 
L 293.077717 248.115973 
L 294.077717 248.148495 
L 295.077717 248.222119 
L 296.077717 248.260685 
L 297.077717 248.296098 
L 298.077717 248.353738 
L 299.077717 248.424124 
L 300.077717 248.476088 
L 301.077717 248.535178 
L 302.077717 248.623499 
L 303.077717 248.669644 
L 304.077717 248.712054 
L 305.077717 248.742547 
L 306.077717 248.768592 
L 307.077717 248.789792 
L 308.077717 248.844093 
L 309.077717 248.872031 
L 310.077717 248.901755 
L 311.077717 248.92715 
L 312.077717 248.93835 
L 313.077717 248.948474 
L 314.077717 248.94827 
L 315.077717 248.93876 
L 316.077717 248.927106 
L 317.077717 248.896077 
L 318.077717 248.884909 
L 319.077717 248.854791 
L 320.077717 248.795015 
L 321.077717 248.757823 
L 322.077717 248.718727 
L 323.077717 248.676287 
L 324.077717 248.643522 
L 325.077717 248.576096 
L 326.077717 248.53697 
L 327.077717 248.494295 
L 328.077717 248.423715 
L 329.077717 248.387324 
L 330.077717 248.328921 
L 331.077717 248.217968 
L 332.077717 248.14731 
L 333.077717 248.03437 
L 334.077717 247.988597 
L 335.077717 247.927314 
L 336.077717 247.878814 
L 337.077717 247.797992 
L 338.077717 247.679473 
L 339.077717 247.609262 
L 340.077717 247.526 
L 341.077717 247.492858 
L 342.077717 247.441621 
L 343.077717 247.373222 
L 344.077717 247.307007 
L 345.077717 247.23009 
L 346.077717 247.202774 
L 347.077717 247.176297 
L 348.077717 247.153646 
L 349.077717 247.134115 
L 350.077717 247.107721 
L 351.077717 247.05795 
L 352.077717 247.022877 
L 353.703533 246.987011 
" clip-path="url(#pdae2478129)" style="fill: none; stroke: #1f77b4; stroke-opacity: 0.5; stroke-width: 0.2; stroke-linecap: square"/>
   <path d="M 290.077717 281.07189 
L 291.077717 281.103326 
L 292.077717 281.140267 
L 293.077717 281.238013 
L 294.077717 281.270535 
L 295.077717 281.344159 
L 296.077717 281.382725 
L 297.077717 281.418138 
L 298.077717 281.475778 
L 299.077717 281.546164 
L 300.077717 281.598129 
L 301.077717 281.657218 
L 302.077717 281.745539 
L 303.077717 281.791684 
L 304.077717 281.834095 
L 305.077717 281.864587 
L 306.077717 281.890632 
L 307.077717 281.911832 
L 308.077717 281.966133 
L 309.077717 281.994071 
L 310.077717 282.023795 
L 311.077717 282.04919 
L 312.077717 282.06039 
L 313.077717 282.070514 
L 314.077717 282.07031 
L 315.077717 282.0608 
L 316.077717 282.049146 
L 317.077717 282.018117 
L 318.077717 282.006949 
L 319.077717 281.976832 
L 320.077717 281.917055 
L 321.077717 281.879863 
L 322.077717 281.840767 
L 323.077717 281.798327 
L 324.077717 281.765562 
L 325.077717 281.698136 
L 326.077717 281.65901 
L 327.077717 281.616335 
L 328.077717 281.545755 
L 329.077717 281.509364 
L 330.077717 281.450961 
L 331.077717 281.340008 
L 332.077717 281.26935 
L 333.077717 281.15641 
L 334.077717 281.110637 
L 335.077717 281.049354 
L 336.077717 281.000854 
L 337.077717 280.920032 
L 338.077717 280.801513 
L 339.077717 280.731302 
L 340.077717 280.64804 
L 341.077717 280.614898 
L 342.077717 280.563661 
L 343.077717 280.495262 
L 344.077717 280.429047 
L 345.077717 280.35213 
L 346.077717 280.324814 
L 347.077717 280.298337 
L 348.077717 280.275686 
L 349.077717 280.256155 
L 350.077717 280.229761 
L 351.077717 280.17999 
L 352.077717 280.144917 
L 353.703533 280.109051 
" clip-path="url(#pdae2478129)" style="fill: none; stroke: #1f77b4; stroke-opacity: 0.5; stroke-width: 0.2; stroke-linecap: square"/>
   <path d="M 290.077717 234.782971 
L 291.077717 234.814407 
L 292.077717 234.851348 
L 293.077717 234.949094 
L 294.077717 234.981616 
L 295.077717 235.055241 
L 296.077717 235.093806 
L 297.077717 235.129219 
L 298.077717 235.186859 
L 299.077717 235.257245 
L 300.077717 235.30921 
L 301.077717 235.368299 
L 302.077717 235.45662 
L 303.077717 235.502765 
L 304.077717 235.545176 
L 305.077717 235.575668 
L 306.077717 235.601713 
L 307.077717 235.622913 
L 308.077717 235.677214 
L 309.077717 235.705152 
L 310.077717 235.734876 
L 311.077717 235.760271 
L 312.077717 235.771471 
L 313.077717 235.781595 
L 314.077717 235.781391 
L 315.077717 235.771881 
L 316.077717 235.760227 
L 317.077717 235.729198 
L 318.077717 235.71803 
L 319.077717 235.687913 
L 320.077717 235.628136 
L 321.077717 235.590944 
L 322.077717 235.551848 
L 323.077717 235.509408 
L 324.077717 235.476643 
L 325.077717 235.409217 
L 326.077717 235.370091 
L 327.077717 235.327416 
L 328.077717 235.256836 
L 329.077717 235.220445 
L 330.077717 235.162042 
L 331.077717 235.051089 
L 332.077717 234.980431 
L 333.077717 234.867491 
L 334.077717 234.821718 
L 335.077717 234.760435 
L 336.077717 234.711936 
L 337.077717 234.631113 
L 338.077717 234.512594 
L 339.077717 234.442383 
L 340.077717 234.359121 
L 341.077717 234.325979 
L 342.077717 234.274742 
L 343.077717 234.206343 
L 344.077717 234.140128 
L 345.077717 234.063211 
L 346.077717 234.035896 
L 347.077717 234.009418 
L 348.077717 233.986767 
L 349.077717 233.967236 
L 350.077717 233.940842 
L 351.077717 233.891071 
L 352.077717 233.855998 
L 353.703533 233.820132 
" clip-path="url(#pdae2478129)" style="fill: none; stroke: #1f77b4; stroke-opacity: 0.5; stroke-width: 0.2; stroke-linecap: square"/>
   <path d="M 290.077717 215.620356 
L 291.077717 215.651792 
L 292.077717 215.688733 
L 293.077717 215.786479 
L 294.077717 215.819001 
L 295.077717 215.892625 
L 296.077717 215.931191 
L 297.077717 215.966604 
L 298.077717 216.024244 
L 299.077717 216.09463 
L 300.077717 216.146595 
L 301.077717 216.205684 
L 302.077717 216.294005 
L 303.077717 216.34015 
L 304.077717 216.382561 
L 305.077717 216.413053 
L 306.077717 216.439098 
L 307.077717 216.460298 
L 308.077717 216.514599 
L 309.077717 216.542537 
L 310.077717 216.572261 
L 311.077717 216.597656 
L 312.077717 216.608856 
L 313.077717 216.61898 
L 314.077717 216.618776 
L 315.077717 216.609266 
L 316.077717 216.597612 
L 317.077717 216.566583 
L 318.077717 216.555415 
L 319.077717 216.525298 
L 320.077717 216.465521 
L 321.077717 216.428329 
L 322.077717 216.389233 
L 323.077717 216.346793 
L 324.077717 216.314028 
L 325.077717 216.246602 
L 326.077717 216.207476 
L 327.077717 216.164801 
L 328.077717 216.094221 
L 329.077717 216.05783 
L 330.077717 215.999427 
L 331.077717 215.888474 
L 332.077717 215.817816 
L 333.077717 215.704876 
L 334.077717 215.659103 
L 335.077717 215.59782 
L 336.077717 215.54932 
L 337.077717 215.468498 
L 338.077717 215.349979 
L 339.077717 215.279768 
L 340.077717 215.196506 
L 341.077717 215.163364 
L 342.077717 215.112127 
L 343.077717 215.043728 
L 344.077717 214.977513 
L 345.077717 214.900596 
L 346.077717 214.87328 
L 347.077717 214.846803 
L 348.077717 214.824152 
L 349.077717 214.804621 
L 350.077717 214.778227 
L 351.077717 214.728456 
L 352.077717 214.693383 
L 353.703533 214.657517 
" clip-path="url(#pdae2478129)" style="fill: none; stroke: #1f77b4; stroke-opacity: 0.5; stroke-width: 0.2; stroke-linecap: square"/>
   <path d="M 290.077717 267.172918 
L 291.077717 267.204354 
L 292.077717 267.241294 
L 293.077717 267.339041 
L 294.077717 267.371563 
L 295.077717 267.445187 
L 296.077717 267.483753 
L 297.077717 267.519166 
L 298.077717 267.576806 
L 299.077717 267.647192 
L 300.077717 267.699156 
L 301.077717 267.758246 
L 302.077717 267.846567 
L 303.077717 267.892711 
L 304.077717 267.935122 
L 305.077717 267.965615 
L 306.077717 267.99166 
L 307.077717 268.01286 
L 308.077717 268.067161 
L 309.077717 268.095099 
L 310.077717 268.124823 
L 311.077717 268.150217 
L 312.077717 268.161418 
L 313.077717 268.171542 
L 314.077717 268.171338 
L 315.077717 268.161828 
L 316.077717 268.150174 
L 317.077717 268.119145 
L 318.077717 268.107977 
L 319.077717 268.077859 
L 320.077717 268.018082 
L 321.077717 267.980891 
L 322.077717 267.941795 
L 323.077717 267.899355 
L 324.077717 267.86659 
L 325.077717 267.799164 
L 326.077717 267.760038 
L 327.077717 267.717363 
L 328.077717 267.646783 
L 329.077717 267.610392 
L 330.077717 267.551989 
L 331.077717 267.441036 
L 332.077717 267.370378 
L 333.077717 267.257438 
L 334.077717 267.211665 
L 335.077717 267.150382 
L 336.077717 267.101882 
L 337.077717 267.02106 
L 338.077717 266.902541 
L 339.077717 266.83233 
L 340.077717 266.749068 
L 341.077717 266.715926 
L 342.077717 266.664689 
L 343.077717 266.59629 
L 344.077717 266.530075 
L 345.077717 266.453158 
L 346.077717 266.425842 
L 347.077717 266.399365 
L 348.077717 266.376714 
L 349.077717 266.357183 
L 350.077717 266.330789 
L 351.077717 266.281018 
L 352.077717 266.245945 
L 353.703533 266.210079 
" clip-path="url(#pdae2478129)" style="fill: none; stroke: #1f77b4; stroke-opacity: 0.5; stroke-width: 0.2; stroke-linecap: square"/>
   <path d="M 290.077717 201.326442 
L 291.077717 201.357879 
L 292.077717 201.394819 
L 293.077717 201.492566 
L 294.077717 201.525087 
L 295.077717 201.598712 
L 296.077717 201.637278 
L 297.077717 201.672691 
L 298.077717 201.730331 
L 299.077717 201.800717 
L 300.077717 201.852681 
L 301.077717 201.911771 
L 302.077717 202.000092 
L 303.077717 202.046236 
L 304.077717 202.088647 
L 305.077717 202.11914 
L 306.077717 202.145185 
L 307.077717 202.166385 
L 308.077717 202.220686 
L 309.077717 202.248623 
L 310.077717 202.278347 
L 311.077717 202.303742 
L 312.077717 202.314943 
L 313.077717 202.325066 
L 314.077717 202.324862 
L 315.077717 202.315352 
L 316.077717 202.303699 
L 317.077717 202.272669 
L 318.077717 202.261502 
L 319.077717 202.231384 
L 320.077717 202.171607 
L 321.077717 202.134416 
L 322.077717 202.095319 
L 323.077717 202.05288 
L 324.077717 202.020115 
L 325.077717 201.952688 
L 326.077717 201.913562 
L 327.077717 201.870888 
L 328.077717 201.800307 
L 329.077717 201.763916 
L 330.077717 201.705513 
L 331.077717 201.594561 
L 332.077717 201.523902 
L 333.077717 201.410962 
L 334.077717 201.36519 
L 335.077717 201.303906 
L 336.077717 201.255407 
L 337.077717 201.174584 
L 338.077717 201.056065 
L 339.077717 200.985855 
L 340.077717 200.902592 
L 341.077717 200.86945 
L 342.077717 200.818213 
L 343.077717 200.749815 
L 344.077717 200.683599 
L 345.077717 200.606682 
L 346.077717 200.579367 
L 347.077717 200.552889 
L 348.077717 200.530239 
L 349.077717 200.510707 
L 350.077717 200.484313 
L 351.077717 200.434543 
L 352.077717 200.399469 
L 353.703533 200.363604 
" clip-path="url(#pdae2478129)" style="fill: none; stroke: #1f77b4; stroke-opacity: 0.5; stroke-width: 0.2; stroke-linecap: square"/>
   <path d="M 290.077717 291.916215 
L 291.077717 291.947651 
L 292.077717 291.984591 
L 293.077717 292.082338 
L 294.077717 292.11486 
L 295.077717 292.188484 
L 296.077717 292.22705 
L 297.077717 292.262463 
L 298.077717 292.320103 
L 299.077717 292.390489 
L 300.077717 292.442453 
L 301.077717 292.501543 
L 302.077717 292.589864 
L 303.077717 292.636008 
L 304.077717 292.678419 
L 305.077717 292.708912 
L 306.077717 292.734957 
L 307.077717 292.756157 
L 308.077717 292.810458 
L 309.077717 292.838396 
L 310.077717 292.86812 
L 311.077717 292.893514 
L 312.077717 292.904715 
L 313.077717 292.914839 
L 314.077717 292.914634 
L 315.077717 292.905125 
L 316.077717 292.893471 
L 317.077717 292.862442 
L 318.077717 292.851274 
L 319.077717 292.821156 
L 320.077717 292.761379 
L 321.077717 292.724188 
L 322.077717 292.685092 
L 323.077717 292.642652 
L 324.077717 292.609887 
L 325.077717 292.542461 
L 326.077717 292.503335 
L 327.077717 292.46066 
L 328.077717 292.39008 
L 329.077717 292.353689 
L 330.077717 292.295285 
L 331.077717 292.184333 
L 332.077717 292.113675 
L 333.077717 292.000735 
L 334.077717 291.954962 
L 335.077717 291.893679 
L 336.077717 291.845179 
L 337.077717 291.764357 
L 338.077717 291.645838 
L 339.077717 291.575627 
L 340.077717 291.492365 
L 341.077717 291.459223 
L 342.077717 291.407986 
L 343.077717 291.339587 
L 344.077717 291.273372 
L 345.077717 291.196455 
L 346.077717 291.169139 
L 347.077717 291.142662 
L 348.077717 291.120011 
L 349.077717 291.10048 
L 350.077717 291.074086 
L 351.077717 291.024315 
L 352.077717 290.989242 
L 353.703533 290.953376 
" clip-path="url(#pdae2478129)" style="fill: none; stroke: #1f77b4; stroke-opacity: 0.5; stroke-width: 0.2; stroke-linecap: square"/>
   <g id="patch_3">
    <path d="M 69.06392 22.318125 
L 69.06392 318.021875 
M 284.51553 22.318125 
L 284.51553 318.021875 
" clip-path="url(#pdae2478129)" style="fill: none; stroke: #ffffff; stroke-width: 3; stroke-linejoin: miter"/>
    <path d="M 69.06392 22.318125 
L 69.06392 318.021875 
M 284.51553 22.318125 
L 284.51553 318.021875 
" clip-path="url(#pdae2478129)" style="fill: none; stroke: #1f77b4; stroke-linejoin: miter"/>
    <g id="PolyCollection_1">
     <path d="M 284.51553 22.318125 
L 69.06392 22.318125 
L 69.06392 318.021875 
L 284.51553 318.021875 
L 284.51553 318.021875 
L 284.51553 22.318125 
z
" clip-path="url(#pdae2478129)" style="fill: #1f77b4; fill-opacity: 0.5"/>
    </g>
    <g id="patch_4">
     <path d="M 359.26572 22.318125 
L 359.26572 318.021875 
M 574.71733 22.318125 
L 574.71733 318.021875 
" clip-path="url(#pdae2478129)" style="fill: none; stroke: #ffffff; stroke-width: 3; stroke-linejoin: miter"/>
     <path d="M 359.26572 22.318125 
L 359.26572 318.021875 
M 574.71733 22.318125 
L 574.71733 318.021875 
" clip-path="url(#pdae2478129)" style="fill: none; stroke: #ff7f0e; stroke-linejoin: miter"/>
     <g id="PolyCollection_2">
      <path d="M 574.71733 22.318125 
L 359.26572 22.318125 
L 359.26572 318.021875 
L 574.71733 318.021875 
L 574.71733 318.021875 
L 574.71733 22.318125 
z
" clip-path="url(#pdae2478129)" style="fill: #ff7f0e; fill-opacity: 0.5"/>
     </g>
     <g id="matplotlib.axis_1">
      <g id="xtick_1">
       <g id="line2d_1"/>
       <g id="text_1">
        <!-- deme0 -->
        <g transform="translate(159.410819 329.120312) scale(0.1 -0.1)">
         <defs>
          <path id="DejaVuSans-64" d="M 2906 2969 
L 2906 4863 
L 3481 4863 
L 3481 0 
L 2906 0 
L 2906 525 
Q 2725 213 2448 61 
Q 2172 -91 1784 -91 
Q 1150 -91 751 415 
Q 353 922 353 1747 
Q 353 2572 751 3078 
Q 1150 3584 1784 3584 
Q 2172 3584 2448 3432 
Q 2725 3281 2906 2969 
z
M 947 1747 
Q 947 1113 1208 752 
Q 1469 391 1925 391 
Q 2381 391 2643 752 
Q 2906 1113 2906 1747 
Q 2906 2381 2643 2742 
Q 2381 3103 1925 3103 
Q 1469 3103 1208 2742 
Q 947 2381 947 1747 
z
" transform="scale(0.015625)"/>
          <path id="DejaVuSans-65" d="M 3597 1894 
L 3597 1613 
L 953 1613 
Q 991 1019 1311 708 
Q 1631 397 2203 397 
Q 2534 397 2845 478 
Q 3156 559 3463 722 
L 3463 178 
Q 3153 47 2828 -22 
Q 2503 -91 2169 -91 
Q 1331 -91 842 396 
Q 353 884 353 1716 
Q 353 2575 817 3079 
Q 1281 3584 2069 3584 
Q 2775 3584 3186 3129 
Q 3597 2675 3597 1894 
z
M 3022 2063 
Q 3016 2534 2758 2815 
Q 2500 3097 2075 3097 
Q 1594 3097 1305 2825 
Q 1016 2553 972 2059 
L 3022 2063 
z
" transform="scale(0.015625)"/>
          <path id="DejaVuSans-6d" d="M 3328 2828 
Q 3544 3216 3844 3400 
Q 4144 3584 4550 3584 
Q 5097 3584 5394 3201 
Q 5691 2819 5691 2113 
L 5691 0 
L 5113 0 
L 5113 2094 
Q 5113 2597 4934 2840 
Q 4756 3084 4391 3084 
Q 3944 3084 3684 2787 
Q 3425 2491 3425 1978 
L 3425 0 
L 2847 0 
L 2847 2094 
Q 2847 2600 2669 2842 
Q 2491 3084 2119 3084 
Q 1678 3084 1418 2786 
Q 1159 2488 1159 1978 
L 1159 0 
L 581 0 
L 581 3500 
L 1159 3500 
L 1159 2956 
Q 1356 3278 1631 3431 
Q 1906 3584 2284 3584 
Q 2666 3584 2933 3390 
Q 3200 3197 3328 2828 
z
" transform="scale(0.015625)"/>
          <path id="DejaVuSans-30" d="M 2034 4250 
Q 1547 4250 1301 3770 
Q 1056 3291 1056 2328 
Q 1056 1369 1301 889 
Q 1547 409 2034 409 
Q 2525 409 2770 889 
Q 3016 1369 3016 2328 
Q 3016 3291 2770 3770 
Q 2525 4250 2034 4250 
z
M 2034 4750 
Q 2819 4750 3233 4129 
Q 3647 3509 3647 2328 
Q 3647 1150 3233 529 
Q 2819 -91 2034 -91 
Q 1250 -91 836 529 
Q 422 1150 422 2328 
Q 422 3509 836 4129 
Q 1250 4750 2034 4750 
z
" transform="scale(0.015625)"/>
         </defs>
         <use xlink:href="#DejaVuSans-64"/>
         <use xlink:href="#DejaVuSans-65" x="63.476562"/>
         <use xlink:href="#DejaVuSans-6d" x="125"/>
         <use xlink:href="#DejaVuSans-65" x="222.412109"/>
         <use xlink:href="#DejaVuSans-30" x="283.935547"/>
        </g>
       </g>
      </g>
      <g id="xtick_2">
       <g id="line2d_2"/>
       <g id="text_2">
        <!-- deme1 -->
        <g transform="translate(449.612619 329.120312) scale(0.1 -0.1)">
         <defs>
          <path id="DejaVuSans-31" d="M 794 531 
L 1825 531 
L 1825 4091 
L 703 3866 
L 703 4441 
L 1819 4666 
L 2450 4666 
L 2450 531 
L 3481 531 
L 3481 0 
L 794 0 
L 794 531 
z
" transform="scale(0.015625)"/>
         </defs>
         <use xlink:href="#DejaVuSans-64"/>
         <use xlink:href="#DejaVuSans-65" x="63.476562"/>
         <use xlink:href="#DejaVuSans-6d" x="125"/>
         <use xlink:href="#DejaVuSans-65" x="222.412109"/>
         <use xlink:href="#DejaVuSans-31" x="283.935547"/>
        </g>
       </g>
      </g>
     </g>
     <g id="matplotlib.axis_2">
      <g id="ytick_1">
       <g id="line2d_3">
        <defs>
         <path id="m6f2ea9f138" d="M 0 0 
L -3.5 0 
" style="stroke: #000000; stroke-width: 0.8"/>
        </defs>
        <g>
         <use xlink:href="#m6f2ea9f138" x="43.78125" y="318.021875" style="stroke: #000000; stroke-width: 0.8"/>
        </g>
       </g>
       <g id="text_3">
        <!-- 0.0 -->
        <g transform="translate(20.878125 321.821094) scale(0.1 -0.1)">
         <defs>
          <path id="DejaVuSans-2e" d="M 684 794 
L 1344 794 
L 1344 0 
L 684 0 
L 684 794 
z
" transform="scale(0.015625)"/>
         </defs>
         <use xlink:href="#DejaVuSans-30"/>
         <use xlink:href="#DejaVuSans-2e" x="63.623047"/>
         <use xlink:href="#DejaVuSans-30" x="95.410156"/>
        </g>
       </g>
      </g>
      <g id="ytick_2">
       <g id="line2d_4">
        <g>
         <use xlink:href="#m6f2ea9f138" x="43.78125" y="258.881125" style="stroke: #000000; stroke-width: 0.8"/>
        </g>
       </g>
       <g id="text_4">
        <!-- 0.5 -->
        <g transform="translate(20.878125 262.680344) scale(0.1 -0.1)">
         <defs>
          <path id="DejaVuSans-35" d="M 691 4666 
L 3169 4666 
L 3169 4134 
L 1269 4134 
L 1269 2991 
Q 1406 3038 1543 3061 
Q 1681 3084 1819 3084 
Q 2600 3084 3056 2656 
Q 3513 2228 3513 1497 
Q 3513 744 3044 326 
Q 2575 -91 1722 -91 
Q 1428 -91 1123 -41 
Q 819 9 494 109 
L 494 744 
Q 775 591 1075 516 
Q 1375 441 1709 441 
Q 2250 441 2565 725 
Q 2881 1009 2881 1497 
Q 2881 1984 2565 2268 
Q 2250 2553 1709 2553 
Q 1456 2553 1204 2497 
Q 953 2441 691 2322 
L 691 4666 
z
" transform="scale(0.015625)"/>
         </defs>
         <use xlink:href="#DejaVuSans-30"/>
         <use xlink:href="#DejaVuSans-2e" x="63.623047"/>
         <use xlink:href="#DejaVuSans-35" x="95.410156"/>
        </g>
       </g>
      </g>
      <g id="ytick_3">
       <g id="line2d_5">
        <g>
         <use xlink:href="#m6f2ea9f138" x="43.78125" y="199.740375" style="stroke: #000000; stroke-width: 0.8"/>
        </g>
       </g>
       <g id="text_5">
        <!-- 1.0 -->
        <g transform="translate(20.878125 203.539594) scale(0.1 -0.1)">
         <use xlink:href="#DejaVuSans-31"/>
         <use xlink:href="#DejaVuSans-2e" x="63.623047"/>
         <use xlink:href="#DejaVuSans-30" x="95.410156"/>
        </g>
       </g>
      </g>
      <g id="ytick_4">
       <g id="line2d_6">
        <g>
         <use xlink:href="#m6f2ea9f138" x="43.78125" y="140.599625" style="stroke: #000000; stroke-width: 0.8"/>
        </g>
       </g>
       <g id="text_6">
        <!-- 1.5 -->
        <g transform="translate(20.878125 144.398844) scale(0.1 -0.1)">
         <use xlink:href="#DejaVuSans-31"/>
         <use xlink:href="#DejaVuSans-2e" x="63.623047"/>
         <use xlink:href="#DejaVuSans-35" x="95.410156"/>
        </g>
       </g>
      </g>
      <g id="ytick_5">
       <g id="line2d_7">
        <g>
         <use xlink:href="#m6f2ea9f138" x="43.78125" y="81.458875" style="stroke: #000000; stroke-width: 0.8"/>
        </g>
       </g>
       <g id="text_7">
        <!-- 2.0 -->
        <g transform="translate(20.878125 85.258094) scale(0.1 -0.1)">
         <defs>
          <path id="DejaVuSans-32" d="M 1228 531 
L 3431 531 
L 3431 0 
L 469 0 
L 469 531 
Q 828 903 1448 1529 
Q 2069 2156 2228 2338 
Q 2531 2678 2651 2914 
Q 2772 3150 2772 3378 
Q 2772 3750 2511 3984 
Q 2250 4219 1831 4219 
Q 1534 4219 1204 4116 
Q 875 4013 500 3803 
L 500 4441 
Q 881 4594 1212 4672 
Q 1544 4750 1819 4750 
Q 2544 4750 2975 4387 
Q 3406 4025 3406 3419 
Q 3406 3131 3298 2873 
Q 3191 2616 2906 2266 
Q 2828 2175 2409 1742 
Q 1991 1309 1228 531 
z
" transform="scale(0.015625)"/>
         </defs>
         <use xlink:href="#DejaVuSans-32"/>
         <use xlink:href="#DejaVuSans-2e" x="63.623047"/>
         <use xlink:href="#DejaVuSans-30" x="95.410156"/>
        </g>
       </g>
      </g>
      <g id="ytick_6">
       <g id="line2d_8">
        <g>
         <use xlink:href="#m6f2ea9f138" x="43.78125" y="22.318125" style="stroke: #000000; stroke-width: 0.8"/>
        </g>
       </g>
       <g id="text_8">
        <!-- 2.5 -->
        <g transform="translate(20.878125 26.117344) scale(0.1 -0.1)">
         <use xlink:href="#DejaVuSans-32"/>
         <use xlink:href="#DejaVuSans-2e" x="63.623047"/>
         <use xlink:href="#DejaVuSans-35" x="95.410156"/>
        </g>
       </g>
      </g>
      <g id="text_9">
       <!-- time ago (generations) -->
       <g transform="translate(14.798438 227.641094) rotate(-90) scale(0.1 -0.1)">
        <defs>
         <path id="DejaVuSans-74" d="M 1172 4494 
L 1172 3500 
L 2356 3500 
L 2356 3053 
L 1172 3053 
L 1172 1153 
Q 1172 725 1289 603 
Q 1406 481 1766 481 
L 2356 481 
L 2356 0 
L 1766 0 
Q 1100 0 847 248 
Q 594 497 594 1153 
L 594 3053 
L 172 3053 
L 172 3500 
L 594 3500 
L 594 4494 
L 1172 4494 
z
" transform="scale(0.015625)"/>
         <path id="DejaVuSans-69" d="M 603 3500 
L 1178 3500 
L 1178 0 
L 603 0 
L 603 3500 
z
M 603 4863 
L 1178 4863 
L 1178 4134 
L 603 4134 
L 603 4863 
z
" transform="scale(0.015625)"/>
         <path id="DejaVuSans-20" transform="scale(0.015625)"/>
         <path id="DejaVuSans-61" d="M 2194 1759 
Q 1497 1759 1228 1600 
Q 959 1441 959 1056 
Q 959 750 1161 570 
Q 1363 391 1709 391 
Q 2188 391 2477 730 
Q 2766 1069 2766 1631 
L 2766 1759 
L 2194 1759 
z
M 3341 1997 
L 3341 0 
L 2766 0 
L 2766 531 
Q 2569 213 2275 61 
Q 1981 -91 1556 -91 
Q 1019 -91 701 211 
Q 384 513 384 1019 
Q 384 1609 779 1909 
Q 1175 2209 1959 2209 
L 2766 2209 
L 2766 2266 
Q 2766 2663 2505 2880 
Q 2244 3097 1772 3097 
Q 1472 3097 1187 3025 
Q 903 2953 641 2809 
L 641 3341 
Q 956 3463 1253 3523 
Q 1550 3584 1831 3584 
Q 2591 3584 2966 3190 
Q 3341 2797 3341 1997 
z
" transform="scale(0.015625)"/>
         <path id="DejaVuSans-67" d="M 2906 1791 
Q 2906 2416 2648 2759 
Q 2391 3103 1925 3103 
Q 1463 3103 1205 2759 
Q 947 2416 947 1791 
Q 947 1169 1205 825 
Q 1463 481 1925 481 
Q 2391 481 2648 825 
Q 2906 1169 2906 1791 
z
M 3481 434 
Q 3481 -459 3084 -895 
Q 2688 -1331 1869 -1331 
Q 1566 -1331 1297 -1286 
Q 1028 -1241 775 -1147 
L 775 -588 
Q 1028 -725 1275 -790 
Q 1522 -856 1778 -856 
Q 2344 -856 2625 -561 
Q 2906 -266 2906 331 
L 2906 616 
Q 2728 306 2450 153 
Q 2172 0 1784 0 
Q 1141 0 747 490 
Q 353 981 353 1791 
Q 353 2603 747 3093 
Q 1141 3584 1784 3584 
Q 2172 3584 2450 3431 
Q 2728 3278 2906 2969 
L 2906 3500 
L 3481 3500 
L 3481 434 
z
" transform="scale(0.015625)"/>
         <path id="DejaVuSans-6f" d="M 1959 3097 
Q 1497 3097 1228 2736 
Q 959 2375 959 1747 
Q 959 1119 1226 758 
Q 1494 397 1959 397 
Q 2419 397 2687 759 
Q 2956 1122 2956 1747 
Q 2956 2369 2687 2733 
Q 2419 3097 1959 3097 
z
M 1959 3584 
Q 2709 3584 3137 3096 
Q 3566 2609 3566 1747 
Q 3566 888 3137 398 
Q 2709 -91 1959 -91 
Q 1206 -91 779 398 
Q 353 888 353 1747 
Q 353 2609 779 3096 
Q 1206 3584 1959 3584 
z
" transform="scale(0.015625)"/>
         <path id="DejaVuSans-28" d="M 1984 4856 
Q 1566 4138 1362 3434 
Q 1159 2731 1159 2009 
Q 1159 1288 1364 580 
Q 1569 -128 1984 -844 
L 1484 -844 
Q 1016 -109 783 600 
Q 550 1309 550 2009 
Q 550 2706 781 3412 
Q 1013 4119 1484 4856 
L 1984 4856 
z
" transform="scale(0.015625)"/>
         <path id="DejaVuSans-6e" d="M 3513 2113 
L 3513 0 
L 2938 0 
L 2938 2094 
Q 2938 2591 2744 2837 
Q 2550 3084 2163 3084 
Q 1697 3084 1428 2787 
Q 1159 2491 1159 1978 
L 1159 0 
L 581 0 
L 581 3500 
L 1159 3500 
L 1159 2956 
Q 1366 3272 1645 3428 
Q 1925 3584 2291 3584 
Q 2894 3584 3203 3211 
Q 3513 2838 3513 2113 
z
" transform="scale(0.015625)"/>
         <path id="DejaVuSans-72" d="M 2631 2963 
Q 2534 3019 2420 3045 
Q 2306 3072 2169 3072 
Q 1681 3072 1420 2755 
Q 1159 2438 1159 1844 
L 1159 0 
L 581 0 
L 581 3500 
L 1159 3500 
L 1159 2956 
Q 1341 3275 1631 3429 
Q 1922 3584 2338 3584 
Q 2397 3584 2469 3576 
Q 2541 3569 2628 3553 
L 2631 2963 
z
" transform="scale(0.015625)"/>
         <path id="DejaVuSans-73" d="M 2834 3397 
L 2834 2853 
Q 2591 2978 2328 3040 
Q 2066 3103 1784 3103 
Q 1356 3103 1142 2972 
Q 928 2841 928 2578 
Q 928 2378 1081 2264 
Q 1234 2150 1697 2047 
L 1894 2003 
Q 2506 1872 2764 1633 
Q 3022 1394 3022 966 
Q 3022 478 2636 193 
Q 2250 -91 1575 -91 
Q 1294 -91 989 -36 
Q 684 19 347 128 
L 347 722 
Q 666 556 975 473 
Q 1284 391 1588 391 
Q 1994 391 2212 530 
Q 2431 669 2431 922 
Q 2431 1156 2273 1281 
Q 2116 1406 1581 1522 
L 1381 1569 
Q 847 1681 609 1914 
Q 372 2147 372 2553 
Q 372 3047 722 3315 
Q 1072 3584 1716 3584 
Q 2034 3584 2315 3537 
Q 2597 3491 2834 3397 
z
" transform="scale(0.015625)"/>
         <path id="DejaVuSans-29" d="M 513 4856 
L 1013 4856 
Q 1481 4119 1714 3412 
Q 1947 2706 1947 2009 
Q 1947 1309 1714 600 
Q 1481 -109 1013 -844 
L 513 -844 
Q 928 -128 1133 580 
Q 1338 1288 1338 2009 
Q 1338 2731 1133 3434 
Q 928 4138 513 4856 
z
" transform="scale(0.015625)"/>
        </defs>
        <use xlink:href="#DejaVuSans-74"/>
        <use xlink:href="#DejaVuSans-69" x="39.208984"/>
        <use xlink:href="#DejaVuSans-6d" x="66.992188"/>
        <use xlink:href="#DejaVuSans-65" x="164.404297"/>
        <use xlink:href="#DejaVuSans-20" x="225.927734"/>
        <use xlink:href="#DejaVuSans-61" x="257.714844"/>
        <use xlink:href="#DejaVuSans-67" x="318.994141"/>
        <use xlink:href="#DejaVuSans-6f" x="382.470703"/>
        <use xlink:href="#DejaVuSans-20" x="443.652344"/>
        <use xlink:href="#DejaVuSans-28" x="475.439453"/>
        <use xlink:href="#DejaVuSans-67" x="514.453125"/>
        <use xlink:href="#DejaVuSans-65" x="577.929688"/>
        <use xlink:href="#DejaVuSans-6e" x="639.453125"/>
        <use xlink:href="#DejaVuSans-65" x="702.832031"/>
        <use xlink:href="#DejaVuSans-72" x="764.355469"/>
        <use xlink:href="#DejaVuSans-61" x="805.46875"/>
        <use xlink:href="#DejaVuSans-74" x="866.748047"/>
        <use xlink:href="#DejaVuSans-69" x="905.957031"/>
        <use xlink:href="#DejaVuSans-6f" x="933.740234"/>
        <use xlink:href="#DejaVuSans-6e" x="994.921875"/>
        <use xlink:href="#DejaVuSans-73" x="1058.300781"/>
        <use xlink:href="#DejaVuSans-29" x="1110.400391"/>
       </g>
      </g>
     </g>
     <path d="M 289.077717 187.346036 
L 291.077717 188.346036 
L 291.077717 186.346036 
z
" clip-path="url(#pdae2478129)" style="fill: #ff7f0e; fill-opacity: 0.5; stroke: #ff7f0e; stroke-opacity: 0.5; stroke-linejoin: miter"/>
     <path d="M 289.077717 97.386471 
L 291.077717 98.386471 
L 291.077717 96.386471 
z
" clip-path="url(#pdae2478129)" style="fill: #ff7f0e; fill-opacity: 0.5; stroke: #ff7f0e; stroke-opacity: 0.5; stroke-linejoin: miter"/>
     <path d="M 289.077717 140.651221 
L 291.077717 141.651221 
L 291.077717 139.651221 
z
" clip-path="url(#pdae2478129)" style="fill: #ff7f0e; fill-opacity: 0.5; stroke: #ff7f0e; stroke-opacity: 0.5; stroke-linejoin: miter"/>
     <path d="M 289.077717 194.860828 
L 291.077717 195.860828 
L 291.077717 193.860828 
z
" clip-path="url(#pdae2478129)" style="fill: #ff7f0e; fill-opacity: 0.5; stroke: #ff7f0e; stroke-opacity: 0.5; stroke-linejoin: miter"/>
     <path d="M 289.077717 93.500091 
L 291.077717 94.500091 
L 291.077717 92.500091 
z
" clip-path="url(#pdae2478129)" style="fill: #ff7f0e; fill-opacity: 0.5; stroke: #ff7f0e; stroke-opacity: 0.5; stroke-linejoin: miter"/>
     <path d="M 289.077717 195.790149 
L 291.077717 196.790149 
L 291.077717 194.790149 
z
" clip-path="url(#pdae2478129)" style="fill: #ff7f0e; fill-opacity: 0.5; stroke: #ff7f0e; stroke-opacity: 0.5; stroke-linejoin: miter"/>
     <path d="M 289.077717 194.484758 
L 291.077717 195.484758 
L 291.077717 193.484758 
z
" clip-path="url(#pdae2478129)" style="fill: #ff7f0e; fill-opacity: 0.5; stroke: #ff7f0e; stroke-opacity: 0.5; stroke-linejoin: miter"/>
     <path d="M 289.077717 152.34726 
L 291.077717 153.34726 
L 291.077717 151.34726 
z
" clip-path="url(#pdae2478129)" style="fill: #ff7f0e; fill-opacity: 0.5; stroke: #ff7f0e; stroke-opacity: 0.5; stroke-linejoin: miter"/>
     <path d="M 289.077717 86.217381 
L 291.077717 87.217381 
L 291.077717 85.217381 
z
" clip-path="url(#pdae2478129)" style="fill: #ff7f0e; fill-opacity: 0.5; stroke: #ff7f0e; stroke-opacity: 0.5; stroke-linejoin: miter"/>
     <path d="M 289.077717 119.536198 
L 291.077717 120.536198 
L 291.077717 118.536198 
z
" clip-path="url(#pdae2478129)" style="fill: #ff7f0e; fill-opacity: 0.5; stroke: #ff7f0e; stroke-opacity: 0.5; stroke-linejoin: miter"/>
     <path d="M 354.703533 141.340321 
L 352.703533 140.340321 
L 352.703533 142.340321 
z
" clip-path="url(#pdae2478129)" style="fill: #1f77b4; fill-opacity: 0.5; stroke: #1f77b4; stroke-opacity: 0.5; stroke-linejoin: miter"/>
     <path d="M 354.703533 187.186679 
L 352.703533 186.186679 
L 352.703533 188.186679 
z
" clip-path="url(#pdae2478129)" style="fill: #1f77b4; fill-opacity: 0.5; stroke: #1f77b4; stroke-opacity: 0.5; stroke-linejoin: miter"/>
     <path d="M 354.703533 123.163891 
L 352.703533 122.163891 
L 352.703533 124.163891 
z
" clip-path="url(#pdae2478129)" style="fill: #1f77b4; fill-opacity: 0.5; stroke: #1f77b4; stroke-opacity: 0.5; stroke-linejoin: miter"/>
     <path d="M 354.703533 129.546789 
L 352.703533 128.546789 
L 352.703533 130.546789 
z
" clip-path="url(#pdae2478129)" style="fill: #1f77b4; fill-opacity: 0.5; stroke: #1f77b4; stroke-opacity: 0.5; stroke-linejoin: miter"/>
     <path d="M 354.703533 90.090309 
L 352.703533 89.090309 
L 352.703533 91.090309 
z
" clip-path="url(#pdae2478129)" style="fill: #1f77b4; fill-opacity: 0.5; stroke: #1f77b4; stroke-opacity: 0.5; stroke-linejoin: miter"/>
     <path d="M 354.703533 168.131318 
L 352.703533 167.131318 
L 352.703533 169.131318 
z
" clip-path="url(#pdae2478129)" style="fill: #1f77b4; fill-opacity: 0.5; stroke: #1f77b4; stroke-opacity: 0.5; stroke-linejoin: miter"/>
     <path d="M 354.703533 147.579045 
L 352.703533 146.579045 
L 352.703533 148.579045 
z
" clip-path="url(#pdae2478129)" style="fill: #1f77b4; fill-opacity: 0.5; stroke: #1f77b4; stroke-opacity: 0.5; stroke-linejoin: miter"/>
     <path d="M 354.703533 130.459373 
L 352.703533 129.459373 
L 352.703533 131.459373 
z
" clip-path="url(#pdae2478129)" style="fill: #1f77b4; fill-opacity: 0.5; stroke: #1f77b4; stroke-opacity: 0.5; stroke-linejoin: miter"/>
     <path d="M 354.703533 169.495149 
L 352.703533 168.495149 
L 352.703533 170.495149 
z
" clip-path="url(#pdae2478129)" style="fill: #1f77b4; fill-opacity: 0.5; stroke: #1f77b4; stroke-opacity: 0.5; stroke-linejoin: miter"/>
     <path d="M 354.703533 131.137617 
L 352.703533 130.137617 
L 352.703533 132.137617 
z
" clip-path="url(#pdae2478129)" style="fill: #1f77b4; fill-opacity: 0.5; stroke: #1f77b4; stroke-opacity: 0.5; stroke-linejoin: miter"/>
     <path d="M 289.077717 280.572576 
L 291.077717 281.572576 
L 291.077717 279.572576 
z
" clip-path="url(#pdae2478129)" style="fill: #ff7f0e; fill-opacity: 0.5; stroke: #ff7f0e; stroke-opacity: 0.5; stroke-linejoin: miter"/>
     <path d="M 289.077717 236.449151 
L 291.077717 237.449151 
L 291.077717 235.449151 
z
" clip-path="url(#pdae2478129)" style="fill: #ff7f0e; fill-opacity: 0.5; stroke: #ff7f0e; stroke-opacity: 0.5; stroke-linejoin: miter"/>
     <path d="M 289.077717 317.761378 
L 291.077717 318.761378 
L 291.077717 316.761378 
z
" clip-path="url(#pdae2478129)" style="fill: #ff7f0e; fill-opacity: 0.5; stroke: #ff7f0e; stroke-opacity: 0.5; stroke-linejoin: miter"/>
     <path d="M 289.077717 275.996306 
L 291.077717 276.996306 
L 291.077717 274.996306 
z
" clip-path="url(#pdae2478129)" style="fill: #ff7f0e; fill-opacity: 0.5; stroke: #ff7f0e; stroke-opacity: 0.5; stroke-linejoin: miter"/>
     <path d="M 289.077717 230.868034 
L 291.077717 231.868034 
L 291.077717 229.868034 
z
" clip-path="url(#pdae2478129)" style="fill: #ff7f0e; fill-opacity: 0.5; stroke: #ff7f0e; stroke-opacity: 0.5; stroke-linejoin: miter"/>
     <path d="M 289.077717 289.466812 
L 291.077717 290.466812 
L 291.077717 288.466812 
z
" clip-path="url(#pdae2478129)" style="fill: #ff7f0e; fill-opacity: 0.5; stroke: #ff7f0e; stroke-opacity: 0.5; stroke-linejoin: miter"/>
     <path d="M 289.077717 254.967296 
L 291.077717 255.967296 
L 291.077717 253.967296 
z
" clip-path="url(#pdae2478129)" style="fill: #ff7f0e; fill-opacity: 0.5; stroke: #ff7f0e; stroke-opacity: 0.5; stroke-linejoin: miter"/>
     <path d="M 289.077717 276.218436 
L 291.077717 277.218436 
L 291.077717 275.218436 
z
" clip-path="url(#pdae2478129)" style="fill: #ff7f0e; fill-opacity: 0.5; stroke: #ff7f0e; stroke-opacity: 0.5; stroke-linejoin: miter"/>
     <path d="M 289.077717 269.056718 
L 291.077717 270.056718 
L 291.077717 268.056718 
z
" clip-path="url(#pdae2478129)" style="fill: #ff7f0e; fill-opacity: 0.5; stroke: #ff7f0e; stroke-opacity: 0.5; stroke-linejoin: miter"/>
     <path d="M 289.077717 316.227801 
L 291.077717 317.227801 
L 291.077717 315.227801 
z
" clip-path="url(#pdae2478129)" style="fill: #ff7f0e; fill-opacity: 0.5; stroke: #ff7f0e; stroke-opacity: 0.5; stroke-linejoin: miter"/>
     <path d="M 354.703533 236.007056 
L 352.703533 235.007056 
L 352.703533 237.007056 
z
" clip-path="url(#pdae2478129)" style="fill: #1f77b4; fill-opacity: 0.5; stroke: #1f77b4; stroke-opacity: 0.5; stroke-linejoin: miter"/>
     <path d="M 354.703533 304.485989 
L 352.703533 303.485989 
L 352.703533 305.485989 
z
" clip-path="url(#pdae2478129)" style="fill: #1f77b4; fill-opacity: 0.5; stroke: #1f77b4; stroke-opacity: 0.5; stroke-linejoin: miter"/>
     <path d="M 354.703533 306.395426 
L 352.703533 305.395426 
L 352.703533 307.395426 
z
" clip-path="url(#pdae2478129)" style="fill: #1f77b4; fill-opacity: 0.5; stroke: #1f77b4; stroke-opacity: 0.5; stroke-linejoin: miter"/>
     <path d="M 354.703533 247.94985 
L 352.703533 246.94985 
L 352.703533 248.94985 
z
" clip-path="url(#pdae2478129)" style="fill: #1f77b4; fill-opacity: 0.5; stroke: #1f77b4; stroke-opacity: 0.5; stroke-linejoin: miter"/>
     <path d="M 354.703533 281.07189 
L 352.703533 280.07189 
L 352.703533 282.07189 
z
" clip-path="url(#pdae2478129)" style="fill: #1f77b4; fill-opacity: 0.5; stroke: #1f77b4; stroke-opacity: 0.5; stroke-linejoin: miter"/>
     <path d="M 354.703533 234.782971 
L 352.703533 233.782971 
L 352.703533 235.782971 
z
" clip-path="url(#pdae2478129)" style="fill: #1f77b4; fill-opacity: 0.5; stroke: #1f77b4; stroke-opacity: 0.5; stroke-linejoin: miter"/>
     <path d="M 354.703533 215.620356 
L 352.703533 214.620356 
L 352.703533 216.620356 
z
" clip-path="url(#pdae2478129)" style="fill: #1f77b4; fill-opacity: 0.5; stroke: #1f77b4; stroke-opacity: 0.5; stroke-linejoin: miter"/>
     <path d="M 354.703533 267.172918 
L 352.703533 266.172918 
L 352.703533 268.172918 
z
" clip-path="url(#pdae2478129)" style="fill: #1f77b4; fill-opacity: 0.5; stroke: #1f77b4; stroke-opacity: 0.5; stroke-linejoin: miter"/>
     <path d="M 354.703533 201.326442 
L 352.703533 200.326442 
L 352.703533 202.326442 
z
" clip-path="url(#pdae2478129)" style="fill: #1f77b4; fill-opacity: 0.5; stroke: #1f77b4; stroke-opacity: 0.5; stroke-linejoin: miter"/>
     <path d="M 354.703533 291.916215 
L 352.703533 290.916215 
L 352.703533 292.916215 
z
" clip-path="url(#pdae2478129)" style="fill: #1f77b4; fill-opacity: 0.5; stroke: #1f77b4; stroke-opacity: 0.5; stroke-linejoin: miter"/>
     <g id="patch_5">
      <path d="M 43.78125 318.021875 
L 43.78125 22.318125 
" style="fill: none; stroke: #000000; stroke-width: 0.8; stroke-linejoin: miter; stroke-linecap: square"/>
     </g>
     <g id="text_10">
      <!-- defaults_symmetric_migration_changing_rate.yaml -->
      <g transform="translate(168.3525 16.318125) scale(0.12 -0.12)">
       <defs>
        <path id="DejaVuSans-66" d="M 2375 4863 
L 2375 4384 
L 1825 4384 
Q 1516 4384 1395 4259 
Q 1275 4134 1275 3809 
L 1275 3500 
L 2222 3500 
L 2222 3053 
L 1275 3053 
L 1275 0 
L 697 0 
L 697 3053 
L 147 3053 
L 147 3500 
L 697 3500 
L 697 3744 
Q 697 4328 969 4595 
Q 1241 4863 1831 4863 
L 2375 4863 
z
" transform="scale(0.015625)"/>
        <path id="DejaVuSans-75" d="M 544 1381 
L 544 3500 
L 1119 3500 
L 1119 1403 
Q 1119 906 1312 657 
Q 1506 409 1894 409 
Q 2359 409 2629 706 
Q 2900 1003 2900 1516 
L 2900 3500 
L 3475 3500 
L 3475 0 
L 2900 0 
L 2900 538 
Q 2691 219 2414 64 
Q 2138 -91 1772 -91 
Q 1169 -91 856 284 
Q 544 659 544 1381 
z
M 1991 3584 
L 1991 3584 
z
" transform="scale(0.015625)"/>
        <path id="DejaVuSans-6c" d="M 603 4863 
L 1178 4863 
L 1178 0 
L 603 0 
L 603 4863 
z
" transform="scale(0.015625)"/>
        <path id="DejaVuSans-5f" d="M 3263 -1063 
L 3263 -1509 
L -63 -1509 
L -63 -1063 
L 3263 -1063 
z
" transform="scale(0.015625)"/>
        <path id="DejaVuSans-79" d="M 2059 -325 
Q 1816 -950 1584 -1140 
Q 1353 -1331 966 -1331 
L 506 -1331 
L 506 -850 
L 844 -850 
Q 1081 -850 1212 -737 
Q 1344 -625 1503 -206 
L 1606 56 
L 191 3500 
L 800 3500 
L 1894 763 
L 2988 3500 
L 3597 3500 
L 2059 -325 
z
" transform="scale(0.015625)"/>
        <path id="DejaVuSans-63" d="M 3122 3366 
L 3122 2828 
Q 2878 2963 2633 3030 
Q 2388 3097 2138 3097 
Q 1578 3097 1268 2742 
Q 959 2388 959 1747 
Q 959 1106 1268 751 
Q 1578 397 2138 397 
Q 2388 397 2633 464 
Q 2878 531 3122 666 
L 3122 134 
Q 2881 22 2623 -34 
Q 2366 -91 2075 -91 
Q 1284 -91 818 406 
Q 353 903 353 1747 
Q 353 2603 823 3093 
Q 1294 3584 2113 3584 
Q 2378 3584 2631 3529 
Q 2884 3475 3122 3366 
z
" transform="scale(0.015625)"/>
        <path id="DejaVuSans-68" d="M 3513 2113 
L 3513 0 
L 2938 0 
L 2938 2094 
Q 2938 2591 2744 2837 
Q 2550 3084 2163 3084 
Q 1697 3084 1428 2787 
Q 1159 2491 1159 1978 
L 1159 0 
L 581 0 
L 581 4863 
L 1159 4863 
L 1159 2956 
Q 1366 3272 1645 3428 
Q 1925 3584 2291 3584 
Q 2894 3584 3203 3211 
Q 3513 2838 3513 2113 
z
" transform="scale(0.015625)"/>
       </defs>
       <use xlink:href="#DejaVuSans-64"/>
       <use xlink:href="#DejaVuSans-65" x="63.476562"/>
       <use xlink:href="#DejaVuSans-66" x="125"/>
       <use xlink:href="#DejaVuSans-61" x="160.205078"/>
       <use xlink:href="#DejaVuSans-75" x="221.484375"/>
       <use xlink:href="#DejaVuSans-6c" x="284.863281"/>
       <use xlink:href="#DejaVuSans-74" x="312.646484"/>
       <use xlink:href="#DejaVuSans-73" x="351.855469"/>
       <use xlink:href="#DejaVuSans-5f" x="403.955078"/>
       <use xlink:href="#DejaVuSans-73" x="453.955078"/>
       <use xlink:href="#DejaVuSans-79" x="506.054688"/>
       <use xlink:href="#DejaVuSans-6d" x="565.234375"/>
       <use xlink:href="#DejaVuSans-6d" x="662.646484"/>
       <use xlink:href="#DejaVuSans-65" x="760.058594"/>
       <use xlink:href="#DejaVuSans-74" x="821.582031"/>
       <use xlink:href="#DejaVuSans-72" x="860.791016"/>
       <use xlink:href="#DejaVuSans-69" x="901.904297"/>
       <use xlink:href="#DejaVuSans-63" x="929.6875"/>
       <use xlink:href="#DejaVuSans-5f" x="984.667969"/>
       <use xlink:href="#DejaVuSans-6d" x="1034.667969"/>
       <use xlink:href="#DejaVuSans-69" x="1132.080078"/>
       <use xlink:href="#DejaVuSans-67" x="1159.863281"/>
       <use xlink:href="#DejaVuSans-72" x="1223.339844"/>
       <use xlink:href="#DejaVuSans-61" x="1264.453125"/>
       <use xlink:href="#DejaVuSans-74" x="1325.732422"/>
       <use xlink:href="#DejaVuSans-69" x="1364.941406"/>
       <use xlink:href="#DejaVuSans-6f" x="1392.724609"/>
       <use xlink:href="#DejaVuSans-6e" x="1453.90625"/>
       <use xlink:href="#DejaVuSans-5f" x="1517.285156"/>
       <use xlink:href="#DejaVuSans-63" x="1567.285156"/>
       <use xlink:href="#DejaVuSans-68" x="1622.265625"/>
       <use xlink:href="#DejaVuSans-61" x="1685.644531"/>
       <use xlink:href="#DejaVuSans-6e" x="1746.923828"/>
       <use xlink:href="#DejaVuSans-67" x="1810.302734"/>
       <use xlink:href="#DejaVuSans-69" x="1873.779297"/>
       <use xlink:href="#DejaVuSans-6e" x="1901.5625"/>
       <use xlink:href="#DejaVuSans-67" x="1964.941406"/>
       <use xlink:href="#DejaVuSans-5f" x="2028.417969"/>
       <use xlink:href="#DejaVuSans-72" x="2078.417969"/>
       <use xlink:href="#DejaVuSans-61" x="2119.53125"/>
       <use xlink:href="#DejaVuSans-74" x="2180.810547"/>
       <use xlink:href="#DejaVuSans-65" x="2220.019531"/>
       <use xlink:href="#DejaVuSans-2e" x="2281.542969"/>
       <use xlink:href="#DejaVuSans-79" x="2313.330078"/>
       <use xlink:href="#DejaVuSans-61" x="2372.509766"/>
       <use xlink:href="#DejaVuSans-6d" x="2433.789062"/>
       <use xlink:href="#DejaVuSans-6c" x="2531.201172"/>
      </g>
     </g>
    </g>
   </g>
   <defs>
    <clipPath id="pdae2478129">
     <rect x="43.78125" y="22.318125" width="556.21875" height="295.70375"/>
    </clipPath>
   </defs>
  </g>
 </g>
</svg>