<?xml version="1.0" encoding="utf-8" standalone="no"?>
<!DOCTYPE svg PUBLIC "-//W3C//DTD SVG 1.1//EN"
  "http://www.w3.org/Graphics/SVG/1.1/DTD/svg11.dtd">
<svg xmlns:xlink="http://www.w3.org/1999/xlink" width="607.2pt" height="338.43281pt" viewBox="0 0 607.2 338.43281" xmlns="http://www.w3.org/2000/svg" version="1.1">
 <metadata>
  <rdf:RDF xmlns:dc="http://purl.org/dc/elements/1.1/" xmlns:cc="http://creativecommons.org/ns#" xmlns:rdf="http://www.w3.org/1999/02/22-rdf-syntax-ns#">
   <cc:Work>
    <dc:type rdf:resource="http://purl.org/dc/dcmitype/StillImage"/>
    <dc:date>2023-11-20T08:24:37.698413</dc:date>
    <dc:format>image/svg+xml</dc:format>
    <dc:creator>
     <cc:Agent>
      <dc:title>Matplotlib v3.7.2, https://matplotlib.org/</dc:title>
     </cc:Agent>
    </dc:creator>
   </cc:Work>
  </rdf:RDF>
 </metadata>
 <defs>
  <style type="text/css">*{stroke-linejoin: round; stroke-linecap: butt}</style>
 </defs>
 <g id="figure_1">
  <g id="patch_1">
   <path d="M 0 338.43281 
L 607.2 338.43281 
L 607.2 0 
L 0 0 
z
" style="fill: #ffffff"/>
  </g>
  <g id="axes_1">
   <g id="patch_2">
    <path d="M 46.965625 274.747142 
L 600 274.747142 
L 600 7.2 
L 46.965625 7.2 
z
" style="fill: #ffffff"/>
   </g>
   <path d="M 234.745933 231.087459 
L 235.745933 231.118896 
L 236.745933 231.155836 
L 237.745933 231.253583 
L 239.39645 231.286104 
" clip-path="url(#p2fde994cbb)" style="fill: none; stroke: #1f77b4; stroke-opacity: 0.5; stroke-width: 0.2; stroke-linecap: square"/>
   <path d="M 234.745933 94.20142 
L 235.745933 94.232857 
L 236.745933 94.269797 
L 237.745933 94.367544 
L 239.39645 94.400065 
" clip-path="url(#p2fde994cbb)" style="fill: none; stroke: #1f77b4; stroke-opacity: 0.5; stroke-width: 0.2; stroke-linecap: square"/>
   <path d="M 234.745933 237.694704 
L 235.745933 237.72614 
L 236.745933 237.763081 
L 237.745933 237.860827 
L 239.39645 237.893349 
" clip-path="url(#p2fde994cbb)" style="fill: none; stroke: #1f77b4; stroke-opacity: 0.5; stroke-width: 0.2; stroke-linecap: square"/>
   <path d="M 234.745933 106.845762 
L 235.745933 106.877198 
L 236.745933 106.914139 
L 237.745933 107.011885 
L 239.39645 107.044407 
" clip-path="url(#p2fde994cbb)" style="fill: none; stroke: #1f77b4; stroke-opacity: 0.5; stroke-width: 0.2; stroke-linecap: square"/>
   <path d="M 234.745933 160.833112 
L 235.745933 160.864548 
L 236.745933 160.901489 
L 237.745933 160.999235 
L 239.39645 161.031757 
" clip-path="url(#p2fde994cbb)" style="fill: none; stroke: #1f77b4; stroke-opacity: 0.5; stroke-width: 0.2; stroke-linecap: square"/>
   <path d="M 234.745933 190.990759 
L 235.745933 191.022196 
L 236.745933 191.059136 
L 237.745933 191.156883 
L 239.39645 191.189404 
" clip-path="url(#p2fde994cbb)" style="fill: none; stroke: #1f77b4; stroke-opacity: 0.5; stroke-width: 0.2; stroke-linecap: square"/>
   <path d="M 234.745933 33.462727 
L 235.745933 33.494163 
L 236.745933 33.531104 
L 237.745933 33.62885 
L 239.39645 33.661372 
" clip-path="url(#p2fde994cbb)" style="fill: none; stroke: #1f77b4; stroke-opacity: 0.5; stroke-width: 0.2; stroke-linecap: square"/>
   <path d="M 234.745933 260.924479 
L 235.745933 260.955916 
L 236.745933 260.992856 
L 237.745933 261.090603 
L 239.39645 261.123124 
" clip-path="url(#p2fde994cbb)" style="fill: none; stroke: #1f77b4; stroke-opacity: 0.5; stroke-width: 0.2; stroke-linecap: square"/>
   <path d="M 234.745933 34.900178 
L 235.745933 34.931615 
L 236.745933 34.968555 
L 237.745933 35.066302 
L 239.39645 35.098823 
" clip-path="url(#p2fde994cbb)" style="fill: none; stroke: #1f77b4; stroke-opacity: 0.5; stroke-width: 0.2; stroke-linecap: square"/>
   <path d="M 234.745933 263.474443 
L 235.745933 263.505879 
L 236.745933 263.54282 
L 237.745933 263.640566 
L 239.39645 263.673088 
" clip-path="url(#p2fde994cbb)" style="fill: none; stroke: #1f77b4; stroke-opacity: 0.5; stroke-width: 0.2; stroke-linecap: square"/>
   <path d="M 239.39645 87.381738 
L 238.39645 87.350301 
L 237.39645 87.313361 
L 236.39645 87.215614 
L 234.745933 87.183093 
" clip-path="url(#p2fde994cbb)" style="fill: none; stroke: #ff7f0e; stroke-opacity: 0.5; stroke-width: 0.2; stroke-linecap: square"/>
   <path d="M 239.39645 204.773306 
L 238.39645 204.741869 
L 237.39645 204.704929 
L 236.39645 204.607182 
L 234.745933 204.574661 
" clip-path="url(#p2fde994cbb)" style="fill: none; stroke: #ff7f0e; stroke-opacity: 0.5; stroke-width: 0.2; stroke-linecap: square"/>
   <path d="M 239.39645 164.315901 
L 238.39645 164.284465 
L 237.39645 164.247524 
L 236.39645 164.149778 
L 234.745933 164.117256 
" clip-path="url(#p2fde994cbb)" style="fill: none; stroke: #ff7f0e; stroke-opacity: 0.5; stroke-width: 0.2; stroke-linecap: square"/>
   <path d="M 239.39645 56.812903 
L 238.39645 56.781467 
L 237.39645 56.744526 
L 236.39645 56.64678 
L 234.745933 56.614258 
" clip-path="url(#p2fde994cbb)" style="fill: none; stroke: #ff7f0e; stroke-opacity: 0.5; stroke-width: 0.2; stroke-linecap: square"/>
   <path d="M 239.39645 254.933953 
L 238.39645 254.902516 
L 237.39645 254.865576 
L 236.39645 254.767829 
L 234.745933 254.735308 
" clip-path="url(#p2fde994cbb)" style="fill: none; stroke: #ff7f0e; stroke-opacity: 0.5; stroke-width: 0.2; stroke-linecap: square"/>
   <path d="M 239.39645 245.774353 
L 238.39645 245.742917 
L 237.39645 245.705977 
L 236.39645 245.60823 
L 234.745933 245.575708 
" clip-path="url(#p2fde994cbb)" style="fill: none; stroke: #ff7f0e; stroke-opacity: 0.5; stroke-width: 0.2; stroke-linecap: square"/>
   <path d="M 239.39645 185.118747 
L 238.39645 185.087311 
L 237.39645 185.05037 
L 236.39645 184.952624 
L 234.745933 184.920102 
" clip-path="url(#p2fde994cbb)" style="fill: none; stroke: #ff7f0e; stroke-opacity: 0.5; stroke-width: 0.2; stroke-linecap: square"/>
   <path d="M 239.39645 55.607821 
L 238.39645 55.576385 
L 237.39645 55.539445 
L 236.39645 55.441698 
L 234.745933 55.409176 
" clip-path="url(#p2fde994cbb)" style="fill: none; stroke: #ff7f0e; stroke-opacity: 0.5; stroke-width: 0.2; stroke-linecap: square"/>
   <path d="M 239.39645 95.828805 
L 238.39645 95.797369 
L 237.39645 95.760428 
L 236.39645 95.662682 
L 234.745933 95.63016 
" clip-path="url(#p2fde994cbb)" style="fill: none; stroke: #ff7f0e; stroke-opacity: 0.5; stroke-width: 0.2; stroke-linecap: square"/>
   <path d="M 239.39645 133.889027 
L 238.39645 133.85759 
L 237.39645 133.82065 
L 236.39645 133.722903 
L 234.745933 133.690382 
" clip-path="url(#p2fde994cbb)" style="fill: none; stroke: #ff7f0e; stroke-opacity: 0.5; stroke-width: 0.2; stroke-linecap: square"/>
   <path d="M 407.569175 260.529418 
L 408.569175 260.560855 
L 409.569175 260.597795 
L 410.569175 260.695542 
L 412.219692 260.728063 
" clip-path="url(#p2fde994cbb)" style="fill: none; stroke: #ff7f0e; stroke-opacity: 0.5; stroke-width: 0.2; stroke-linecap: square"/>
   <path d="M 407.569175 27.650627 
L 408.569175 27.682064 
L 409.569175 27.719004 
L 410.569175 27.816751 
L 412.219692 27.849272 
" clip-path="url(#p2fde994cbb)" style="fill: none; stroke: #ff7f0e; stroke-opacity: 0.5; stroke-width: 0.2; stroke-linecap: square"/>
   <path d="M 407.569175 218.250586 
L 408.569175 218.282022 
L 409.569175 218.318963 
L 410.569175 218.416709 
L 412.219692 218.449231 
" clip-path="url(#p2fde994cbb)" style="fill: none; stroke: #ff7f0e; stroke-opacity: 0.5; stroke-width: 0.2; stroke-linecap: square"/>
   <path d="M 407.569175 154.420638 
L 408.569175 154.452074 
L 409.569175 154.489015 
L 410.569175 154.586761 
L 412.219692 154.619283 
" clip-path="url(#p2fde994cbb)" style="fill: none; stroke: #ff7f0e; stroke-opacity: 0.5; stroke-width: 0.2; stroke-linecap: square"/>
   <path d="M 407.569175 105.535753 
L 408.569175 105.56719 
L 409.569175 105.60413 
L 410.569175 105.701877 
L 412.219692 105.734398 
" clip-path="url(#p2fde994cbb)" style="fill: none; stroke: #ff7f0e; stroke-opacity: 0.5; stroke-width: 0.2; stroke-linecap: square"/>
   <path d="M 407.569175 66.302707 
L 408.569175 66.334144 
L 409.569175 66.371084 
L 410.569175 66.468831 
L 412.219692 66.501352 
" clip-path="url(#p2fde994cbb)" style="fill: none; stroke: #ff7f0e; stroke-opacity: 0.5; stroke-width: 0.2; stroke-linecap: square"/>
   <path d="M 407.569175 228.924012 
L 408.569175 228.955448 
L 409.569175 228.992389 
L 410.569175 229.090135 
L 412.219692 229.122657 
" clip-path="url(#p2fde994cbb)" style="fill: none; stroke: #ff7f0e; stroke-opacity: 0.5; stroke-width: 0.2; stroke-linecap: square"/>
   <path d="M 407.569175 136.031526 
L 408.569175 136.062963 
L 409.569175 136.099903 
L 410.569175 136.19765 
L 412.219692 136.230171 
" clip-path="url(#p2fde994cbb)" style="fill: none; stroke: #ff7f0e; stroke-opacity: 0.5; stroke-width: 0.2; stroke-linecap: square"/>
   <path d="M 407.569175 211.148866 
L 408.569175 211.180303 
L 409.569175 211.217243 
L 410.569175 211.314989 
L 412.219692 211.347511 
" clip-path="url(#p2fde994cbb)" style="fill: none; stroke: #ff7f0e; stroke-opacity: 0.5; stroke-width: 0.2; stroke-linecap: square"/>
   <path d="M 407.569175 240.649341 
L 408.569175 240.680777 
L 409.569175 240.717718 
L 410.569175 240.815464 
L 412.219692 240.847986 
" clip-path="url(#p2fde994cbb)" style="fill: none; stroke: #ff7f0e; stroke-opacity: 0.5; stroke-width: 0.2; stroke-linecap: square"/>
   <path d="M 412.219692 222.738823 
L 411.219692 222.707387 
L 410.219692 222.670447 
L 409.219692 222.5727 
L 407.569175 222.540179 
" clip-path="url(#p2fde994cbb)" style="fill: none; stroke: #2ca02c; stroke-opacity: 0.5; stroke-width: 0.2; stroke-linecap: square"/>
   <path d="M 412.219692 107.789498 
L 411.219692 107.758061 
L 410.219692 107.721121 
L 409.219692 107.623375 
L 407.569175 107.590853 
" clip-path="url(#p2fde994cbb)" style="fill: none; stroke: #2ca02c; stroke-opacity: 0.5; stroke-width: 0.2; stroke-linecap: square"/>
   <path d="M 412.219692 185.209593 
L 411.219692 185.178156 
L 410.219692 185.141216 
L 409.219692 185.043469 
L 407.569175 185.010948 
" clip-path="url(#p2fde994cbb)" style="fill: none; stroke: #2ca02c; stroke-opacity: 0.5; stroke-width: 0.2; stroke-linecap: square"/>
   <path d="M 412.219692 64.571801 
L 411.219692 64.540365 
L 410.219692 64.503424 
L 409.219692 64.405678 
L 407.569175 64.373156 
" clip-path="url(#p2fde994cbb)" style="fill: none; stroke: #2ca02c; stroke-opacity: 0.5; stroke-width: 0.2; stroke-linecap: square"/>
   <path d="M 412.219692 119.352425 
L 411.219692 119.320989 
L 410.219692 119.284049 
L 409.219692 119.186302 
L 407.569175 119.15378 
" clip-path="url(#p2fde994cbb)" style="fill: none; stroke: #2ca02c; stroke-opacity: 0.5; stroke-width: 0.2; stroke-linecap: square"/>
   <path d="M 412.219692 265.152601 
L 411.219692 265.121165 
L 410.219692 265.084225 
L 409.219692 264.986478 
L 407.569175 264.953957 
" clip-path="url(#p2fde994cbb)" style="fill: none; stroke: #2ca02c; stroke-opacity: 0.5; stroke-width: 0.2; stroke-linecap: square"/>
   <path d="M 412.219692 101.011209 
L 411.219692 100.979772 
L 410.219692 100.942832 
L 409.219692 100.845085 
L 407.569175 100.812564 
" clip-path="url(#p2fde994cbb)" style="fill: none; stroke: #2ca02c; stroke-opacity: 0.5; stroke-width: 0.2; stroke-linecap: square"/>
   <path d="M 412.219692 255.894337 
L 411.219692 255.8629 
L 410.219692 255.82596 
L 409.219692 255.728213 
L 407.569175 255.695692 
" clip-path="url(#p2fde994cbb)" style="fill: none; stroke: #2ca02c; stroke-opacity: 0.5; stroke-width: 0.2; stroke-linecap: square"/>
   <path d="M 412.219692 161.576018 
L 411.219692 161.544581 
L 410.219692 161.507641 
L 409.219692 161.409894 
L 407.569175 161.377373 
" clip-path="url(#p2fde994cbb)" style="fill: none; stroke: #2ca02c; stroke-opacity: 0.5; stroke-width: 0.2; stroke-linecap: square"/>
   <path d="M 412.219692 217.940932 
L 411.219692 217.909496 
L 410.219692 217.872555 
L 409.219692 217.774809 
L 407.569175 217.742287 
" clip-path="url(#p2fde994cbb)" style="fill: none; stroke: #2ca02c; stroke-opacity: 0.5; stroke-width: 0.2; stroke-linecap: square"/>
   <g id="patch_3">
    <path d="M 72.103551 7.2 
L 72.103551 274.747142 
M 229.215589 7.2 
L 229.215589 274.747142 
" clip-path="url(#p2fde994cbb)" style="fill: none; stroke: #ffffff; stroke-width: 3; stroke-linejoin: miter"/>
    <path d="M 72.103551 7.2 
L 72.103551 274.747142 
M 229.215589 7.2 
L 229.215589 274.747142 
" clip-path="url(#p2fde994cbb)" style="fill: none; stroke: #1f77b4; stroke-linejoin: miter"/>
    <g id="PolyCollection_1">
     <path d="M 229.215589 7.2 
L 72.103551 7.2 
L 72.103551 274.747142 
L 229.215589 274.747142 
L 229.215589 274.747142 
L 229.215589 7.2 
z
" clip-path="url(#p2fde994cbb)" style="fill: #1f77b4; fill-opacity: 0.5"/>
    </g>
    <g id="patch_4">
     <path d="M 244.926793 7.2 
L 244.926793 274.747142 
M 402.038832 7.2 
L 402.038832 274.747142 
" clip-path="url(#p2fde994cbb)" style="fill: none; stroke: #ffffff; stroke-width: 3; stroke-linejoin: miter"/>
     <path d="M 244.926793 7.2 
L 244.926793 274.747142 
M 402.038832 7.2 
L 402.038832 274.747142 
" clip-path="url(#p2fde994cbb)" style="fill: none; stroke: #ff7f0e; stroke-linejoin: miter"/>
     <g id="PolyCollection_2">
      <path d="M 402.038832 7.2 
L 244.926793 7.2 
L 244.926793 274.747142 
L 402.038832 274.747142 
L 402.038832 274.747142 
L 402.038832 7.2 
z
" clip-path="url(#p2fde994cbb)" style="fill: #ff7f0e; fill-opacity: 0.5"/>
     </g>
     <g id="patch_5">
      <path d="M 417.750036 7.2 
L 417.750036 274.747142 
M 574.862074 7.2 
L 574.862074 274.747142 
" clip-path="url(#p2fde994cbb)" style="fill: none; stroke: #ffffff; stroke-width: 3; stroke-linejoin: miter"/>
      <path d="M 417.750036 7.2 
L 417.750036 274.747142 
M 574.862074 7.2 
L 574.862074 274.747142 
" clip-path="url(#p2fde994cbb)" style="fill: none; stroke: #2ca02c; stroke-linejoin: miter"/>
      <g id="PolyCollection_3">
       <path d="M 574.862074 7.2 
L 417.750036 7.2 
L 417.750036 274.747142 
L 574.862074 274.747142 
L 574.862074 274.747142 
L 574.862074 7.2 
z
" clip-path="url(#p2fde994cbb)" style="fill: #2ca02c; fill-opacity: 0.5"/>
      </g>
      <g id="matplotlib.axis_1">
       <g id="xtick_1">
        <g id="line2d_1"/>
        <g id="text_1">
         <!-- d0 -->
         <g transform="translate(144.304102 285.84558) scale(0.1 -0.1)">
          <defs>
           <path id="DejaVuSans-64" d="M 2906 2969 
L 2906 4863 
L 3481 4863 
L 3481 0 
L 2906 0 
L 2906 525 
Q 2725 213 2448 61 
Q 2172 -91 1784 -91 
Q 1150 -91 751 415 
Q 353 922 353 1747 
Q 353 2572 751 3078 
Q 1150 3584 1784 3584 
Q 2172 3584 2448 3432 
Q 2725 3281 2906 2969 
z
M 947 1747 
Q 947 1113 1208 752 
Q 1469 391 1925 391 
Q 2381 391 2643 752 
Q 2906 1113 2906 1747 
Q 2906 2381 2643 2742 
Q 2381 3103 1925 3103 
Q 1469 3103 1208 2742 
Q 947 2381 947 1747 
z
" transform="scale(0.015625)"/>
           <path id="DejaVuSans-30" d="M 2034 4250 
Q 1547 4250 1301 3770 
Q 1056 3291 1056 2328 
Q 1056 1369 1301 889 
Q 1547 409 2034 409 
Q 2525 409 2770 889 
Q 3016 1369 3016 2328 
Q 3016 3291 2770 3770 
Q 2525 4250 2034 4250 
z
M 2034 4750 
Q 2819 4750 3233 4129 
Q 3647 3509 3647 2328 
Q 3647 1150 3233 529 
Q 2819 -91 2034 -91 
Q 1250 -91 836 529 
Q 422 1150 422 2328 
Q 422 3509 836 4129 
Q 1250 4750 2034 4750 
z
" transform="scale(0.015625)"/>
          </defs>
          <use xlink:href="#DejaVuSans-64"/>
          <use xlink:href="#DejaVuSans-30" x="63.476562"/>
         </g>
        </g>
       </g>
       <g id="xtick_2">
        <g id="line2d_2"/>
        <g id="text_2">
         <!-- d1 -->
         <g transform="translate(317.127344 285.84558) scale(0.1 -0.1)">
          <defs>
           <path id="DejaVuSans-31" d="M 794 531 
L 1825 531 
L 1825 4091 
L 703 3866 
L 703 4441 
L 1819 4666 
L 2450 4666 
L 2450 531 
L 3481 531 
L 3481 0 
L 794 0 
L 794 531 
z
" transform="scale(0.015625)"/>
          </defs>
          <use xlink:href="#DejaVuSans-64"/>
          <use xlink:href="#DejaVuSans-31" x="63.476562"/>
         </g>
        </g>
       </g>
       <g id="xtick_3">
        <g id="line2d_3"/>
        <g id="text_3">
         <!-- d2 -->
         <g transform="translate(489.950586 285.84558) scale(0.1 -0.1)">
          <defs>
           <path id="DejaVuSans-32" d="M 1228 531 
L 3431 531 
L 3431 0 
L 469 0 
L 469 531 
Q 828 903 1448 1529 
Q 2069 2156 2228 2338 
Q 2531 2678 2651 2914 
Q 2772 3150 2772 3378 
Q 2772 3750 2511 3984 
Q 2250 4219 1831 4219 
Q 1534 4219 1204 4116 
Q 875 4013 500 3803 
L 500 4441 
Q 881 4594 1212 4672 
Q 1544 4750 1819 4750 
Q 2544 4750 2975 4387 
Q 3406 4025 3406 3419 
Q 3406 3131 3298 2873 
Q 3191 2616 2906 2266 
Q 2828 2175 2409 1742 
Q 1991 1309 1228 531 
z
" transform="scale(0.015625)"/>
          </defs>
          <use xlink:href="#DejaVuSans-64"/>
          <use xlink:href="#DejaVuSans-32" x="63.476562"/>
         </g>
        </g>
       </g>
      </g>
      <g id="matplotlib.axis_2">
       <g id="ytick_1">
        <g id="line2d_4">
         <defs>
          <path id="mfb3d52765e" d="M 0 0 
L -3.5 0 
" style="stroke: #000000; stroke-width: 0.8"/>
         </defs>
         <g>
          <use xlink:href="#mfb3d52765e" x="46.965625" y="274.747142" style="stroke: #000000; stroke-width: 0.8"/>
         </g>
        </g>
        <g id="text_4">
         <!-- 0 -->
         <g transform="translate(33.603125 278.546361) scale(0.1 -0.1)">
          <use xlink:href="#DejaVuSans-30"/>
         </g>
        </g>
       </g>
       <g id="ytick_2">
        <g id="line2d_5">
         <g>
          <use xlink:href="#mfb3d52765e" x="46.965625" y="227.393666" style="stroke: #000000; stroke-width: 0.8"/>
         </g>
        </g>
        <g id="text_5">
         <!-- 20 -->
         <g transform="translate(27.240625 231.192884) scale(0.1 -0.1)">
          <use xlink:href="#DejaVuSans-32"/>
          <use xlink:href="#DejaVuSans-30" x="63.623047"/>
         </g>
        </g>
       </g>
       <g id="ytick_3">
        <g id="line2d_6">
         <g>
          <use xlink:href="#mfb3d52765e" x="46.965625" y="180.040189" style="stroke: #000000; stroke-width: 0.8"/>
         </g>
        </g>
        <g id="text_6">
         <!-- 40 -->
         <g transform="translate(27.240625 183.839408) scale(0.1 -0.1)">
          <defs>
           <path id="DejaVuSans-34" d="M 2419 4116 
L 825 1625 
L 2419 1625 
L 2419 4116 
z
M 2253 4666 
L 3047 4666 
L 3047 1625 
L 3713 1625 
L 3713 1100 
L 3047 1100 
L 3047 0 
L 2419 0 
L 2419 1100 
L 313 1100 
L 313 1709 
L 2253 4666 
z
" transform="scale(0.015625)"/>
          </defs>
          <use xlink:href="#DejaVuSans-34"/>
          <use xlink:href="#DejaVuSans-30" x="63.623047"/>
         </g>
        </g>
       </g>
       <g id="ytick_4">
        <g id="line2d_7">
         <g>
          <use xlink:href="#mfb3d52765e" x="46.965625" y="132.686713" style="stroke: #000000; stroke-width: 0.8"/>
         </g>
        </g>
        <g id="text_7">
         <!-- 60 -->
         <g transform="translate(27.240625 136.485931) scale(0.1 -0.1)">
          <defs>
           <path id="DejaVuSans-36" d="M 2113 2584 
Q 1688 2584 1439 2293 
Q 1191 2003 1191 1497 
Q 1191 994 1439 701 
Q 1688 409 2113 409 
Q 2538 409 2786 701 
Q 3034 994 3034 1497 
Q 3034 2003 2786 2293 
Q 2538 2584 2113 2584 
z
M 3366 4563 
L 3366 3988 
Q 3128 4100 2886 4159 
Q 2644 4219 2406 4219 
Q 1781 4219 1451 3797 
Q 1122 3375 1075 2522 
Q 1259 2794 1537 2939 
Q 1816 3084 2150 3084 
Q 2853 3084 3261 2657 
Q 3669 2231 3669 1497 
Q 3669 778 3244 343 
Q 2819 -91 2113 -91 
Q 1303 -91 875 529 
Q 447 1150 447 2328 
Q 447 3434 972 4092 
Q 1497 4750 2381 4750 
Q 2619 4750 2861 4703 
Q 3103 4656 3366 4563 
z
" transform="scale(0.015625)"/>
          </defs>
          <use xlink:href="#DejaVuSans-36"/>
          <use xlink:href="#DejaVuSans-30" x="63.623047"/>
         </g>
        </g>
       </g>
       <g id="ytick_5">
        <g id="line2d_8">
         <g>
          <use xlink:href="#mfb3d52765e" x="46.965625" y="85.333236" style="stroke: #000000; stroke-width: 0.8"/>
         </g>
        </g>
        <g id="text_8">
         <!-- 80 -->
         <g transform="translate(27.240625 89.132455) scale(0.1 -0.1)">
          <defs>
           <path id="DejaVuSans-38" d="M 2034 2216 
Q 1584 2216 1326 1975 
Q 1069 1734 1069 1313 
Q 1069 891 1326 650 
Q 1584 409 2034 409 
Q 2484 409 2743 651 
Q 3003 894 3003 1313 
Q 3003 1734 2745 1975 
Q 2488 2216 2034 2216 
z
M 1403 2484 
Q 997 2584 770 2862 
Q 544 3141 544 3541 
Q 544 4100 942 4425 
Q 1341 4750 2034 4750 
Q 2731 4750 3128 4425 
Q 3525 4100 3525 3541 
Q 3525 3141 3298 2862 
Q 3072 2584 2669 2484 
Q 3125 2378 3379 2068 
Q 3634 1759 3634 1313 
Q 3634 634 3220 271 
Q 2806 -91 2034 -91 
Q 1263 -91 848 271 
Q 434 634 434 1313 
Q 434 1759 690 2068 
Q 947 2378 1403 2484 
z
M 1172 3481 
Q 1172 3119 1398 2916 
Q 1625 2713 2034 2713 
Q 2441 2713 2670 2916 
Q 2900 3119 2900 3481 
Q 2900 3844 2670 4047 
Q 2441 4250 2034 4250 
Q 1625 4250 1398 4047 
Q 1172 3844 1172 3481 
z
" transform="scale(0.015625)"/>
          </defs>
          <use xlink:href="#DejaVuSans-38"/>
          <use xlink:href="#DejaVuSans-30" x="63.623047"/>
         </g>
        </g>
       </g>
       <g id="ytick_6">
        <g id="line2d_9">
         <g>
          <use xlink:href="#mfb3d52765e" x="46.965625" y="37.97976" style="stroke: #000000; stroke-width: 0.8"/>
         </g>
        </g>
        <g id="text_9">
         <!-- 100 -->
         <g transform="translate(20.878125 41.778978) scale(0.1 -0.1)">
          <use xlink:href="#DejaVuSans-31"/>
          <use xlink:href="#DejaVuSans-30" x="63.623047"/>
          <use xlink:href="#DejaVuSans-30" x="127.246094"/>
         </g>
        </g>
       </g>
       <g id="text_10">
        <!-- time ago (generations) -->
        <g transform="translate(14.798438 198.444665) rotate(-90) scale(0.1 -0.1)">
         <defs>
          <path id="DejaVuSans-74" d="M 1172 4494 
L 1172 3500 
L 2356 3500 
L 2356 3053 
L 1172 3053 
L 1172 1153 
Q 1172 725 1289 603 
Q 1406 481 1766 481 
L 2356 481 
L 2356 0 
L 1766 0 
Q 1100 0 847 248 
Q 594 497 594 1153 
L 594 3053 
L 172 3053 
L 172 3500 
L 594 3500 
L 594 4494 
L 1172 4494 
z
" transform="scale(0.015625)"/>
          <path id="DejaVuSans-69" d="M 603 3500 
L 1178 3500 
L 1178 0 
L 603 0 
L 603 3500 
z
M 603 4863 
L 1178 4863 
L 1178 4134 
L 603 4134 
L 603 4863 
z
" transform="scale(0.015625)"/>
          <path id="DejaVuSans-6d" d="M 3328 2828 
Q 3544 3216 3844 3400 
Q 4144 3584 4550 3584 
Q 5097 3584 5394 3201 
Q 5691 2819 5691 2113 
L 5691 0 
L 5113 0 
L 5113 2094 
Q 5113 2597 4934 2840 
Q 4756 3084 4391 3084 
Q 3944 3084 3684 2787 
Q 3425 2491 3425 1978 
L 3425 0 
L 2847 0 
L 2847 2094 
Q 2847 2600 2669 2842 
Q 2491 3084 2119 3084 
Q 1678 3084 1418 2786 
Q 1159 2488 1159 1978 
L 1159 0 
L 581 0 
L 581 3500 
L 1159 3500 
L 1159 2956 
Q 1356 3278 1631 3431 
Q 1906 3584 2284 3584 
Q 2666 3584 2933 3390 
Q 3200 3197 3328 2828 
z
" transform="scale(0.015625)"/>
          <path id="DejaVuSans-65" d="M 3597 1894 
L 3597 1613 
L 953 1613 
Q 991 1019 1311 708 
Q 1631 397 2203 397 
Q 2534 397 2845 478 
Q 3156 559 3463 722 
L 3463 178 
Q 3153 47 2828 -22 
Q 2503 -91 2169 -91 
Q 1331 -91 842 396 
Q 353 884 353 1716 
Q 353 2575 817 3079 
Q 1281 3584 2069 3584 
Q 2775 3584 3186 3129 
Q 3597 2675 3597 1894 
z
M 3022 2063 
Q 3016 2534 2758 2815 
Q 2500 3097 2075 3097 
Q 1594 3097 1305 2825 
Q 1016 2553 972 2059 
L 3022 2063 
z
" transform="scale(0.015625)"/>
          <path id="DejaVuSans-20" transform="scale(0.015625)"/>
          <path id="DejaVuSans-61" d="M 2194 1759 
Q 1497 1759 1228 1600 
Q 959 1441 959 1056 
Q 959 750 1161 570 
Q 1363 391 1709 391 
Q 2188 391 2477 730 
Q 2766 1069 2766 1631 
L 2766 1759 
L 2194 1759 
z
M 3341 1997 
L 3341 0 
L 2766 0 
L 2766 531 
Q 2569 213 2275 61 
Q 1981 -91 1556 -91 
Q 1019 -91 701 211 
Q 384 513 384 1019 
Q 384 1609 779 1909 
Q 1175 2209 1959 2209 
L 2766 2209 
L 2766 2266 
Q 2766 2663 2505 2880 
Q 2244 3097 1772 3097 
Q 1472 3097 1187 3025 
Q 903 2953 641 2809 
L 641 3341 
Q 956 3463 1253 3523 
Q 1550 3584 1831 3584 
Q 2591 3584 2966 3190 
Q 3341 2797 3341 1997 
z
" transform="scale(0.015625)"/>
          <path id="DejaVuSans-67" d="M 2906 1791 
Q 2906 2416 2648 2759 
Q 2391 3103 1925 3103 
Q 1463 3103 1205 2759 
Q 947 2416 947 1791 
Q 947 1169 1205 825 
Q 1463 481 1925 481 
Q 2391 481 2648 825 
Q 2906 1169 2906 1791 
z
M 3481 434 
Q 3481 -459 3084 -895 
Q 2688 -1331 1869 -1331 
Q 1566 -1331 1297 -1286 
Q 1028 -1241 775 -1147 
L 775 -588 
Q 1028 -725 1275 -790 
Q 1522 -856 1778 -856 
Q 2344 -856 2625 -561 
Q 2906 -266 2906 331 
L 2906 616 
Q 2728 306 2450 153 
Q 2172 0 1784 0 
Q 1141 0 747 490 
Q 353 981 353 1791 
Q 353 2603 747 3093 
Q 1141 3584 1784 3584 
Q 2172 3584 2450 3431 
Q 2728 3278 2906 2969 
L 2906 3500 
L 3481 3500 
L 3481 434 
z
" transform="scale(0.015625)"/>
          <path id="DejaVuSans-6f" d="M 1959 3097 
Q 1497 3097 1228 2736 
Q 959 2375 959 1747 
Q 959 1119 1226 758 
Q 1494 397 1959 397 
Q 2419 397 2687 759 
Q 2956 1122 2956 1747 
Q 2956 2369 2687 2733 
Q 2419 3097 1959 3097 
z
M 1959 3584 
Q 2709 3584 3137 3096 
Q 3566 2609 3566 1747 
Q 3566 888 3137 398 
Q 2709 -91 1959 -91 
Q 1206 -91 779 398 
Q 353 888 353 1747 
Q 353 2609 779 3096 
Q 1206 3584 1959 3584 
z
" transform="scale(0.015625)"/>
          <path id="DejaVuSans-28" d="M 1984 4856 
Q 1566 4138 1362 3434 
Q 1159 2731 1159 2009 
Q 1159 1288 1364 580 
Q 1569 -128 1984 -844 
L 1484 -844 
Q 1016 -109 783 600 
Q 550 1309 550 2009 
Q 550 2706 781 3412 
Q 1013 4119 1484 4856 
L 1984 4856 
z
" transform="scale(0.015625)"/>
          <path id="DejaVuSans-6e" d="M 3513 2113 
L 3513 0 
L 2938 0 
L 2938 2094 
Q 2938 2591 2744 2837 
Q 2550 3084 2163 3084 
Q 1697 3084 1428 2787 
Q 1159 2491 1159 1978 
L 1159 0 
L 581 0 
L 581 3500 
L 1159 3500 
L 1159 2956 
Q 1366 3272 1645 3428 
Q 1925 3584 2291 3584 
Q 2894 3584 3203 3211 
Q 3513 2838 3513 2113 
z
" transform="scale(0.015625)"/>
          <path id="DejaVuSans-72" d="M 2631 2963 
Q 2534 3019 2420 3045 
Q 2306 3072 2169 3072 
Q 1681 3072 1420 2755 
Q 1159 2438 1159 1844 
L 1159 0 
L 581 0 
L 581 3500 
L 1159 3500 
L 1159 2956 
Q 1341 3275 1631 3429 
Q 1922 3584 2338 3584 
Q 2397 3584 2469 3576 
Q 2541 3569 2628 3553 
L 2631 2963 
z
" transform="scale(0.015625)"/>
          <path id="DejaVuSans-73" d="M 2834 3397 
L 2834 2853 
Q 2591 2978 2328 3040 
Q 2066 3103 1784 3103 
Q 1356 3103 1142 2972 
Q 928 2841 928 2578 
Q 928 2378 1081 2264 
Q 1234 2150 1697 2047 
L 1894 2003 
Q 2506 1872 2764 1633 
Q 3022 1394 3022 966 
Q 3022 478 2636 193 
Q 2250 -91 1575 -91 
Q 1294 -91 989 -36 
Q 684 19 347 128 
L 347 722 
Q 666 556 975 473 
Q 1284 391 1588 391 
Q 1994 391 2212 530 
Q 2431 669 2431 922 
Q 2431 1156 2273 1281 
Q 2116 1406 1581 1522 
L 1381 1569 
Q 847 1681 609 1914 
Q 372 2147 372 2553 
Q 372 3047 722 3315 
Q 1072 3584 1716 3584 
Q 2034 3584 2315 3537 
Q 2597 3491 2834 3397 
z
" transform="scale(0.015625)"/>
          <path id="DejaVuSans-29" d="M 513 4856 
L 1013 4856 
Q 1481 4119 1714 3412 
Q 1947 2706 1947 2009 
Q 1947 1309 1714 600 
Q 1481 -109 1013 -844 
L 513 -844 
Q 928 -128 1133 580 
Q 1338 1288 1338 2009 
Q 1338 2731 1133 3434 
Q 928 4138 513 4856 
z
" transform="scale(0.015625)"/>
         </defs>
         <use xlink:href="#DejaVuSans-74"/>
         <use xlink:href="#DejaVuSans-69" x="39.208984"/>
         <use xlink:href="#DejaVuSans-6d" x="66.992188"/>
         <use xlink:href="#DejaVuSans-65" x="164.404297"/>
         <use xlink:href="#DejaVuSans-20" x="225.927734"/>
         <use xlink:href="#DejaVuSans-61" x="257.714844"/>
         <use xlink:href="#DejaVuSans-67" x="318.994141"/>
         <use xlink:href="#DejaVuSans-6f" x="382.470703"/>
         <use xlink:href="#DejaVuSans-20" x="443.652344"/>
         <use xlink:href="#DejaVuSans-28" x="475.439453"/>
         <use xlink:href="#DejaVuSans-67" x="514.453125"/>
         <use xlink:href="#DejaVuSans-65" x="577.929688"/>
         <use xlink:href="#DejaVuSans-6e" x="639.453125"/>
         <use xlink:href="#DejaVuSans-65" x="702.832031"/>
         <use xlink:href="#DejaVuSans-72" x="764.355469"/>
         <use xlink:href="#DejaVuSans-61" x="805.46875"/>
         <use xlink:href="#DejaVuSans-74" x="866.748047"/>
         <use xlink:href="#DejaVuSans-69" x="905.957031"/>
         <use xlink:href="#DejaVuSans-6f" x="933.740234"/>
         <use xlink:href="#DejaVuSans-6e" x="994.921875"/>
         <use xlink:href="#DejaVuSans-73" x="1058.300781"/>
         <use xlink:href="#DejaVuSans-29" x="1110.400391"/>
        </g>
       </g>
      </g>
      <path d="M 240.39645 231.087459 
L 238.39645 230.087459 
L 238.39645 232.087459 
z
" clip-path="url(#p2fde994cbb)" style="fill: #1f77b4; fill-opacity: 0.5; stroke: #1f77b4; stroke-opacity: 0.5; stroke-linejoin: miter"/>
      <path d="M 240.39645 94.20142 
L 238.39645 93.20142 
L 238.39645 95.20142 
z
" clip-path="url(#p2fde994cbb)" style="fill: #1f77b4; fill-opacity: 0.5; stroke: #1f77b4; stroke-opacity: 0.5; stroke-linejoin: miter"/>
      <path d="M 240.39645 237.694704 
L 238.39645 236.694704 
L 238.39645 238.694704 
z
" clip-path="url(#p2fde994cbb)" style="fill: #1f77b4; fill-opacity: 0.5; stroke: #1f77b4; stroke-opacity: 0.5; stroke-linejoin: miter"/>
      <path d="M 240.39645 106.845762 
L 238.39645 105.845762 
L 238.39645 107.845762 
z
" clip-path="url(#p2fde994cbb)" style="fill: #1f77b4; fill-opacity: 0.5; stroke: #1f77b4; stroke-opacity: 0.5; stroke-linejoin: miter"/>
      <path d="M 240.39645 160.833112 
L 238.39645 159.833112 
L 238.39645 161.833112 
z
" clip-path="url(#p2fde994cbb)" style="fill: #1f77b4; fill-opacity: 0.5; stroke: #1f77b4; stroke-opacity: 0.5; stroke-linejoin: miter"/>
      <path d="M 240.39645 190.990759 
L 238.39645 189.990759 
L 238.39645 191.990759 
z
" clip-path="url(#p2fde994cbb)" style="fill: #1f77b4; fill-opacity: 0.5; stroke: #1f77b4; stroke-opacity: 0.5; stroke-linejoin: miter"/>
      <path d="M 240.39645 33.462727 
L 238.39645 32.462727 
L 238.39645 34.462727 
z
" clip-path="url(#p2fde994cbb)" style="fill: #1f77b4; fill-opacity: 0.5; stroke: #1f77b4; stroke-opacity: 0.5; stroke-linejoin: miter"/>
      <path d="M 240.39645 260.924479 
L 238.39645 259.924479 
L 238.39645 261.924479 
z
" clip-path="url(#p2fde994cbb)" style="fill: #1f77b4; fill-opacity: 0.5; stroke: #1f77b4; stroke-opacity: 0.5; stroke-linejoin: miter"/>
      <path d="M 240.39645 34.900178 
L 238.39645 33.900178 
L 238.39645 35.900178 
z
" clip-path="url(#p2fde994cbb)" style="fill: #1f77b4; fill-opacity: 0.5; stroke: #1f77b4; stroke-opacity: 0.5; stroke-linejoin: miter"/>
      <path d="M 240.39645 263.474443 
L 238.39645 262.474443 
L 238.39645 264.474443 
z
" clip-path="url(#p2fde994cbb)" style="fill: #1f77b4; fill-opacity: 0.5; stroke: #1f77b4; stroke-opacity: 0.5; stroke-linejoin: miter"/>
      <path d="M 233.745933 87.381738 
L 235.745933 88.381738 
L 235.745933 86.381738 
z
" clip-path="url(#p2fde994cbb)" style="fill: #ff7f0e; fill-opacity: 0.5; stroke: #ff7f0e; stroke-opacity: 0.5; stroke-linejoin: miter"/>
      <path d="M 233.745933 204.773306 
L 235.745933 205.773306 
L 235.745933 203.773306 
z
" clip-path="url(#p2fde994cbb)" style="fill: #ff7f0e; fill-opacity: 0.5; stroke: #ff7f0e; stroke-opacity: 0.5; stroke-linejoin: miter"/>
      <path d="M 233.745933 164.315901 
L 235.745933 165.315901 
L 235.745933 163.315901 
z
" clip-path="url(#p2fde994cbb)" style="fill: #ff7f0e; fill-opacity: 0.5; stroke: #ff7f0e; stroke-opacity: 0.5; stroke-linejoin: miter"/>
      <path d="M 233.745933 56.812903 
L 235.745933 57.812903 
L 235.745933 55.812903 
z
" clip-path="url(#p2fde994cbb)" style="fill: #ff7f0e; fill-opacity: 0.5; stroke: #ff7f0e; stroke-opacity: 0.5; stroke-linejoin: miter"/>
      <path d="M 233.745933 254.933953 
L 235.745933 255.933953 
L 235.745933 253.933953 
z
" clip-path="url(#p2fde994cbb)" style="fill: #ff7f0e; fill-opacity: 0.5; stroke: #ff7f0e; stroke-opacity: 0.5; stroke-linejoin: miter"/>
      <path d="M 233.745933 245.774353 
L 235.745933 246.774353 
L 235.745933 244.774353 
z
" clip-path="url(#p2fde994cbb)" style="fill: #ff7f0e; fill-opacity: 0.5; stroke: #ff7f0e; stroke-opacity: 0.5; stroke-linejoin: miter"/>
      <path d="M 233.745933 185.118747 
L 235.745933 186.118747 
L 235.745933 184.118747 
z
" clip-path="url(#p2fde994cbb)" style="fill: #ff7f0e; fill-opacity: 0.5; stroke: #ff7f0e; stroke-opacity: 0.5; stroke-linejoin: miter"/>
      <path d="M 233.745933 55.607821 
L 235.745933 56.607821 
L 235.745933 54.607821 
z
" clip-path="url(#p2fde994cbb)" style="fill: #ff7f0e; fill-opacity: 0.5; stroke: #ff7f0e; stroke-opacity: 0.5; stroke-linejoin: miter"/>
      <path d="M 233.745933 95.828805 
L 235.745933 96.828805 
L 235.745933 94.828805 
z
" clip-path="url(#p2fde994cbb)" style="fill: #ff7f0e; fill-opacity: 0.5; stroke: #ff7f0e; stroke-opacity: 0.5; stroke-linejoin: miter"/>
      <path d="M 233.745933 133.889027 
L 235.745933 134.889027 
L 235.745933 132.889027 
z
" clip-path="url(#p2fde994cbb)" style="fill: #ff7f0e; fill-opacity: 0.5; stroke: #ff7f0e; stroke-opacity: 0.5; stroke-linejoin: miter"/>
      <path d="M 413.219692 260.529418 
L 411.219692 259.529418 
L 411.219692 261.529418 
z
" clip-path="url(#p2fde994cbb)" style="fill: #ff7f0e; fill-opacity: 0.5; stroke: #ff7f0e; stroke-opacity: 0.5; stroke-linejoin: miter"/>
      <path d="M 413.219692 27.650627 
L 411.219692 26.650627 
L 411.219692 28.650627 
z
" clip-path="url(#p2fde994cbb)" style="fill: #ff7f0e; fill-opacity: 0.5; stroke: #ff7f0e; stroke-opacity: 0.5; stroke-linejoin: miter"/>
      <path d="M 413.219692 218.250586 
L 411.219692 217.250586 
L 411.219692 219.250586 
z
" clip-path="url(#p2fde994cbb)" style="fill: #ff7f0e; fill-opacity: 0.5; stroke: #ff7f0e; stroke-opacity: 0.5; stroke-linejoin: miter"/>
      <path d="M 413.219692 154.420638 
L 411.219692 153.420638 
L 411.219692 155.420638 
z
" clip-path="url(#p2fde994cbb)" style="fill: #ff7f0e; fill-opacity: 0.5; stroke: #ff7f0e; stroke-opacity: 0.5; stroke-linejoin: miter"/>
      <path d="M 413.219692 105.535753 
L 411.219692 104.535753 
L 411.219692 106.535753 
z
" clip-path="url(#p2fde994cbb)" style="fill: #ff7f0e; fill-opacity: 0.5; stroke: #ff7f0e; stroke-opacity: 0.5; stroke-linejoin: miter"/>
      <path d="M 413.219692 66.302707 
L 411.219692 65.302707 
L 411.219692 67.302707 
z
" clip-path="url(#p2fde994cbb)" style="fill: #ff7f0e; fill-opacity: 0.5; stroke: #ff7f0e; stroke-opacity: 0.5; stroke-linejoin: miter"/>
      <path d="M 413.219692 228.924012 
L 411.219692 227.924012 
L 411.219692 229.924012 
z
" clip-path="url(#p2fde994cbb)" style="fill: #ff7f0e; fill-opacity: 0.5; stroke: #ff7f0e; stroke-opacity: 0.5; stroke-linejoin: miter"/>
      <path d="M 413.219692 136.031526 
L 411.219692 135.031526 
L 411.219692 137.031526 
z
" clip-path="url(#p2fde994cbb)" style="fill: #ff7f0e; fill-opacity: 0.5; stroke: #ff7f0e; stroke-opacity: 0.5; stroke-linejoin: miter"/>
      <path d="M 413.219692 211.148866 
L 411.219692 210.148866 
L 411.219692 212.148866 
z
" clip-path="url(#p2fde994cbb)" style="fill: #ff7f0e; fill-opacity: 0.5; stroke: #ff7f0e; stroke-opacity: 0.5; stroke-linejoin: miter"/>
      <path d="M 413.219692 240.649341 
L 411.219692 239.649341 
L 411.219692 241.649341 
z
" clip-path="url(#p2fde994cbb)" style="fill: #ff7f0e; fill-opacity: 0.5; stroke: #ff7f0e; stroke-opacity: 0.5; stroke-linejoin: miter"/>
      <path d="M 406.569175 222.738823 
L 408.569175 223.738823 
L 408.569175 221.738823 
z
" clip-path="url(#p2fde994cbb)" style="fill: #2ca02c; fill-opacity: 0.5; stroke: #2ca02c; stroke-opacity: 0.5; stroke-linejoin: miter"/>
      <path d="M 406.569175 107.789498 
L 408.569175 108.789498 
L 408.569175 106.789498 
z
" clip-path="url(#p2fde994cbb)" style="fill: #2ca02c; fill-opacity: 0.5; stroke: #2ca02c; stroke-opacity: 0.5; stroke-linejoin: miter"/>
      <path d="M 406.569175 185.209593 
L 408.569175 186.209593 
L 408.569175 184.209593 
z
" clip-path="url(#p2fde994cbb)" style="fill: #2ca02c; fill-opacity: 0.5; stroke: #2ca02c; stroke-opacity: 0.5; stroke-linejoin: miter"/>
      <path d="M 406.569175 64.571801 
L 408.569175 65.571801 
L 408.569175 63.571801 
z
" clip-path="url(#p2fde994cbb)" style="fill: #2ca02c; fill-opacity: 0.5; stroke: #2ca02c; stroke-opacity: 0.5; stroke-linejoin: miter"/>
      <path d="M 406.569175 119.352425 
L 408.569175 120.352425 
L 408.569175 118.352425 
z
" clip-path="url(#p2fde994cbb)" style="fill: #2ca02c; fill-opacity: 0.5; stroke: #2ca02c; stroke-opacity: 0.5; stroke-linejoin: miter"/>
      <path d="M 406.569175 265.152601 
L 408.569175 266.152601 
L 408.569175 264.152601 
z
" clip-path="url(#p2fde994cbb)" style="fill: #2ca02c; fill-opacity: 0.5; stroke: #2ca02c; stroke-opacity: 0.5; stroke-linejoin: miter"/>
      <path d="M 406.569175 101.011209 
L 408.569175 102.011209 
L 408.569175 100.011209 
z
" clip-path="url(#p2fde994cbb)" style="fill: #2ca02c; fill-opacity: 0.5; stroke: #2ca02c; stroke-opacity: 0.5; stroke-linejoin: miter"/>
      <path d="M 406.569175 255.894337 
L 408.569175 256.894337 
L 408.569175 254.894337 
z
" clip-path="url(#p2fde994cbb)" style="fill: #2ca02c; fill-opacity: 0.5; stroke: #2ca02c; stroke-opacity: 0.5; stroke-linejoin: miter"/>
      <path d="M 406.569175 161.576018 
L 408.569175 162.576018 
L 408.569175 160.576018 
z
" clip-path="url(#p2fde994cbb)" style="fill: #2ca02c; fill-opacity: 0.5; stroke: #2ca02c; stroke-opacity: 0.5; stroke-linejoin: miter"/>
      <path d="M 406.569175 217.940932 
L 408.569175 218.940932 
L 408.569175 216.940932 
z
" clip-path="url(#p2fde994cbb)" style="fill: #2ca02c; fill-opacity: 0.5; stroke: #2ca02c; stroke-opacity: 0.5; stroke-linejoin: miter"/>
      <g id="patch_6">
       <path d="M 46.965625 274.747142 
L 46.965625 7.2 
" style="fill: none; stroke: #000000; stroke-width: 0.8; stroke-linejoin: miter; stroke-linecap: square"/>
      </g>
      <g id="axes_2">
       <g id="patch_7">
        <path d="M 72.103551 317.554685 
L 229.215589 317.554685 
L 229.215589 317.554417 
L 72.103551 317.554417 
z
" style="fill: #ffffff"/>
       </g>
       <g id="matplotlib.axis_3">
        <g id="xtick_4">
         <g id="line2d_10">
          <defs>
           <path id="m79966830f4" d="M 0 0 
L 0 -3.5 
" style="stroke: #000000; stroke-width: 0.8"/>
          </defs>
          <g>
           <use xlink:href="#m79966830f4" x="72.103551" y="317.554417" style="stroke: #000000; stroke-width: 0.8"/>
          </g>
         </g>
         <g id="text_11">
          <!-- 0 -->
          <g transform="translate(68.922301 308.47473) scale(0.1 -0.1)">
           <use xlink:href="#DejaVuSans-30"/>
          </g>
         </g>
        </g>
        <g id="xtick_5">
         <g id="line2d_11">
          <g>
           <use xlink:href="#m79966830f4" x="103.525959" y="317.554417" style="stroke: #000000; stroke-width: 0.8"/>
          </g>
         </g>
         <g id="text_12">
          <!-- 100 -->
          <g transform="translate(93.982209 308.47473) scale(0.1 -0.1)">
           <use xlink:href="#DejaVuSans-31"/>
           <use xlink:href="#DejaVuSans-30" x="63.623047"/>
           <use xlink:href="#DejaVuSans-30" x="127.246094"/>
          </g>
         </g>
        </g>
        <g id="xtick_6">
         <g id="line2d_12">
          <g>
           <use xlink:href="#m79966830f4" x="134.948366" y="317.554417" style="stroke: #000000; stroke-width: 0.8"/>
          </g>
         </g>
         <g id="text_13">
          <!-- 200 -->
          <g transform="translate(125.404616 308.47473) scale(0.1 -0.1)">
           <use xlink:href="#DejaVuSans-32"/>
           <use xlink:href="#DejaVuSans-30" x="63.623047"/>
           <use xlink:href="#DejaVuSans-30" x="127.246094"/>
          </g>
         </g>
        </g>
        <g id="xtick_7">
         <g id="line2d_13">
          <g>
           <use xlink:href="#m79966830f4" x="166.370774" y="317.554417" style="stroke: #000000; stroke-width: 0.8"/>
          </g>
         </g>
         <g id="text_14">
          <!-- 300 -->
          <g transform="translate(156.827024 308.47473) scale(0.1 -0.1)">
           <defs>
            <path id="DejaVuSans-33" d="M 2597 2516 
Q 3050 2419 3304 2112 
Q 3559 1806 3559 1356 
Q 3559 666 3084 287 
Q 2609 -91 1734 -91 
Q 1441 -91 1130 -33 
Q 819 25 488 141 
L 488 750 
Q 750 597 1062 519 
Q 1375 441 1716 441 
Q 2309 441 2620 675 
Q 2931 909 2931 1356 
Q 2931 1769 2642 2001 
Q 2353 2234 1838 2234 
L 1294 2234 
L 1294 2753 
L 1863 2753 
Q 2328 2753 2575 2939 
Q 2822 3125 2822 3475 
Q 2822 3834 2567 4026 
Q 2313 4219 1838 4219 
Q 1578 4219 1281 4162 
Q 984 4106 628 3988 
L 628 4550 
Q 988 4650 1302 4700 
Q 1616 4750 1894 4750 
Q 2613 4750 3031 4423 
Q 3450 4097 3450 3541 
Q 3450 3153 3228 2886 
Q 3006 2619 2597 2516 
z
" transform="scale(0.015625)"/>
           </defs>
           <use xlink:href="#DejaVuSans-33"/>
           <use xlink:href="#DejaVuSans-30" x="63.623047"/>
           <use xlink:href="#DejaVuSans-30" x="127.246094"/>
          </g>
         </g>
        </g>
        <g id="xtick_8">
         <g id="line2d_14">
          <g>
           <use xlink:href="#m79966830f4" x="197.793182" y="317.554417" style="stroke: #000000; stroke-width: 0.8"/>
          </g>
         </g>
         <g id="text_15">
          <!-- 400 -->
          <g transform="translate(188.249432 308.47473) scale(0.1 -0.1)">
           <use xlink:href="#DejaVuSans-34"/>
           <use xlink:href="#DejaVuSans-30" x="63.623047"/>
           <use xlink:href="#DejaVuSans-30" x="127.246094"/>
          </g>
         </g>
        </g>
        <g id="xtick_9">
         <g id="line2d_15">
          <g>
           <use xlink:href="#m79966830f4" x="229.215589" y="317.554417" style="stroke: #000000; stroke-width: 0.8"/>
          </g>
         </g>
         <g id="text_16">
          <!-- 500 -->
          <g transform="translate(219.671839 308.47473) scale(0.1 -0.1)">
           <defs>
            <path id="DejaVuSans-35" d="M 691 4666 
L 3169 4666 
L 3169 4134 
L 1269 4134 
L 1269 2991 
Q 1406 3038 1543 3061 
Q 1681 3084 1819 3084 
Q 2600 3084 3056 2656 
Q 3513 2228 3513 1497 
Q 3513 744 3044 326 
Q 2575 -91 1722 -91 
Q 1428 -91 1123 -41 
Q 819 9 494 109 
L 494 744 
Q 775 591 1075 516 
Q 1375 441 1709 441 
Q 2250 441 2565 725 
Q 2881 1009 2881 1497 
Q 2881 1984 2565 2268 
Q 2250 2553 1709 2553 
Q 1456 2553 1204 2497 
Q 953 2441 691 2322 
L 691 4666 
z
" transform="scale(0.015625)"/>
           </defs>
           <use xlink:href="#DejaVuSans-35"/>
           <use xlink:href="#DejaVuSans-30" x="63.623047"/>
           <use xlink:href="#DejaVuSans-30" x="127.246094"/>
          </g>
         </g>
        </g>
        <g id="xtick_10">
         <g id="line2d_16">
          <defs>
           <path id="mc2b463dd79" d="M 0 0 
L 0 -2 
" style="stroke: #000000; stroke-width: 0.6"/>
          </defs>
          <g>
           <use xlink:href="#mc2b463dd79" x="78.388033" y="317.554417" style="stroke: #000000; stroke-width: 0.6"/>
          </g>
         </g>
        </g>
        <g id="xtick_11">
         <g id="line2d_17">
          <g>
           <use xlink:href="#mc2b463dd79" x="84.672514" y="317.554417" style="stroke: #000000; stroke-width: 0.6"/>
          </g>
         </g>
        </g>
        <g id="xtick_12">
         <g id="line2d_18">
          <g>
           <use xlink:href="#mc2b463dd79" x="90.956996" y="317.554417" style="stroke: #000000; stroke-width: 0.6"/>
          </g>
         </g>
        </g>
        <g id="xtick_13">
         <g id="line2d_19">
          <g>
           <use xlink:href="#mc2b463dd79" x="97.241477" y="317.554417" style="stroke: #000000; stroke-width: 0.6"/>
          </g>
         </g>
        </g>
        <g id="xtick_14">
         <g id="line2d_20">
          <g>
           <use xlink:href="#mc2b463dd79" x="109.81044" y="317.554417" style="stroke: #000000; stroke-width: 0.6"/>
          </g>
         </g>
        </g>
        <g id="xtick_15">
         <g id="line2d_21">
          <g>
           <use xlink:href="#mc2b463dd79" x="116.094922" y="317.554417" style="stroke: #000000; stroke-width: 0.6"/>
          </g>
         </g>
        </g>
        <g id="xtick_16">
         <g id="line2d_22">
          <g>
           <use xlink:href="#mc2b463dd79" x="122.379403" y="317.554417" style="stroke: #000000; stroke-width: 0.6"/>
          </g>
         </g>
        </g>
        <g id="xtick_17">
         <g id="line2d_23">
          <g>
           <use xlink:href="#mc2b463dd79" x="128.663885" y="317.554417" style="stroke: #000000; stroke-width: 0.6"/>
          </g>
         </g>
        </g>
        <g id="xtick_18">
         <g id="line2d_24">
          <g>
           <use xlink:href="#mc2b463dd79" x="141.232848" y="317.554417" style="stroke: #000000; stroke-width: 0.6"/>
          </g>
         </g>
        </g>
        <g id="xtick_19">
         <g id="line2d_25">
          <g>
           <use xlink:href="#mc2b463dd79" x="147.51733" y="317.554417" style="stroke: #000000; stroke-width: 0.6"/>
          </g>
         </g>
        </g>
        <g id="xtick_20">
         <g id="line2d_26">
          <g>
           <use xlink:href="#mc2b463dd79" x="153.801811" y="317.554417" style="stroke: #000000; stroke-width: 0.6"/>
          </g>
         </g>
        </g>
        <g id="xtick_21">
         <g id="line2d_27">
          <g>
           <use xlink:href="#mc2b463dd79" x="160.086293" y="317.554417" style="stroke: #000000; stroke-width: 0.6"/>
          </g>
         </g>
        </g>
        <g id="xtick_22">
         <g id="line2d_28">
          <g>
           <use xlink:href="#mc2b463dd79" x="172.655256" y="317.554417" style="stroke: #000000; stroke-width: 0.6"/>
          </g>
         </g>
        </g>
        <g id="xtick_23">
         <g id="line2d_29">
          <g>
           <use xlink:href="#mc2b463dd79" x="178.939737" y="317.554417" style="stroke: #000000; stroke-width: 0.6"/>
          </g>
         </g>
        </g>
        <g id="xtick_24">
         <g id="line2d_30">
          <g>
           <use xlink:href="#mc2b463dd79" x="185.224219" y="317.554417" style="stroke: #000000; stroke-width: 0.6"/>
          </g>
         </g>
        </g>
        <g id="xtick_25">
         <g id="line2d_31">
          <g>
           <use xlink:href="#mc2b463dd79" x="191.5087" y="317.554417" style="stroke: #000000; stroke-width: 0.6"/>
          </g>
         </g>
        </g>
        <g id="xtick_26">
         <g id="line2d_32">
          <g>
           <use xlink:href="#mc2b463dd79" x="204.077663" y="317.554417" style="stroke: #000000; stroke-width: 0.6"/>
          </g>
         </g>
        </g>
        <g id="xtick_27">
         <g id="line2d_33">
          <g>
           <use xlink:href="#mc2b463dd79" x="210.362145" y="317.554417" style="stroke: #000000; stroke-width: 0.6"/>
          </g>
         </g>
        </g>
        <g id="xtick_28">
         <g id="line2d_34">
          <g>
           <use xlink:href="#mc2b463dd79" x="216.646626" y="317.554417" style="stroke: #000000; stroke-width: 0.6"/>
          </g>
         </g>
        </g>
        <g id="xtick_29">
         <g id="line2d_35">
          <g>
           <use xlink:href="#mc2b463dd79" x="222.931108" y="317.554417" style="stroke: #000000; stroke-width: 0.6"/>
          </g>
         </g>
        </g>
        <g id="text_17">
         <!-- deme size (individuals) -->
         <g transform="translate(92.817383 329.153122) scale(0.1 -0.1)">
          <defs>
           <path id="DejaVuSans-7a" d="M 353 3500 
L 3084 3500 
L 3084 2975 
L 922 459 
L 3084 459 
L 3084 0 
L 275 0 
L 275 525 
L 2438 3041 
L 353 3041 
L 353 3500 
z
" transform="scale(0.015625)"/>
           <path id="DejaVuSans-76" d="M 191 3500 
L 800 3500 
L 1894 563 
L 2988 3500 
L 3597 3500 
L 2284 0 
L 1503 0 
L 191 3500 
z
" transform="scale(0.015625)"/>
           <path id="DejaVuSans-75" d="M 544 1381 
L 544 3500 
L 1119 3500 
L 1119 1403 
Q 1119 906 1312 657 
Q 1506 409 1894 409 
Q 2359 409 2629 706 
Q 2900 1003 2900 1516 
L 2900 3500 
L 3475 3500 
L 3475 0 
L 2900 0 
L 2900 538 
Q 2691 219 2414 64 
Q 2138 -91 1772 -91 
Q 1169 -91 856 284 
Q 544 659 544 1381 
z
M 1991 3584 
L 1991 3584 
z
" transform="scale(0.015625)"/>
           <path id="DejaVuSans-6c" d="M 603 4863 
L 1178 4863 
L 1178 0 
L 603 0 
L 603 4863 
z
" transform="scale(0.015625)"/>
          </defs>
          <use xlink:href="#DejaVuSans-64"/>
          <use xlink:href="#DejaVuSans-65" x="63.476562"/>
          <use xlink:href="#DejaVuSans-6d" x="125"/>
          <use xlink:href="#DejaVuSans-65" x="222.412109"/>
          <use xlink:href="#DejaVuSans-20" x="283.935547"/>
          <use xlink:href="#DejaVuSans-73" x="315.722656"/>
          <use xlink:href="#DejaVuSans-69" x="367.822266"/>
          <use xlink:href="#DejaVuSans-7a" x="395.605469"/>
          <use xlink:href="#DejaVuSans-65" x="448.095703"/>
          <use xlink:href="#DejaVuSans-20" x="509.619141"/>
          <use xlink:href="#DejaVuSans-28" x="541.40625"/>
          <use xlink:href="#DejaVuSans-69" x="580.419922"/>
          <use xlink:href="#DejaVuSans-6e" x="608.203125"/>
          <use xlink:href="#DejaVuSans-64" x="671.582031"/>
          <use xlink:href="#DejaVuSans-69" x="735.058594"/>
          <use xlink:href="#DejaVuSans-76" x="762.841797"/>
          <use xlink:href="#DejaVuSans-69" x="822.021484"/>
          <use xlink:href="#DejaVuSans-64" x="849.804688"/>
          <use xlink:href="#DejaVuSans-75" x="913.28125"/>
          <use xlink:href="#DejaVuSans-61" x="976.660156"/>
          <use xlink:href="#DejaVuSans-6c" x="1037.939453"/>
          <use xlink:href="#DejaVuSans-73" x="1065.722656"/>
          <use xlink:href="#DejaVuSans-29" x="1117.822266"/>
         </g>
        </g>
       </g>
       <g id="matplotlib.axis_4"/>
       <g id="patch_8">
        <path d="M 72.103551 317.554685 
L 229.215589 317.554685 
" style="fill: none; stroke: #000000; stroke-width: 0.8; stroke-linejoin: miter; stroke-linecap: square"/>
       </g>
      </g>
     </g>
    </g>
    <defs>
     <clipPath id="p2fde994cbb">
      <rect x="46.965625" y="7.2" width="553.034375" height="267.547142"/>
     </clipPath>
    </defs>
   </g>
  </g>
 </g>
</svg>