<?xml version="1.0" encoding="utf-8" standalone="no"?>
<!DOCTYPE svg PUBLIC "-//W3C//DTD SVG 1.1//EN"
  "http://www.w3.org/Graphics/SVG/1.1/DTD/svg11.dtd">
<svg xmlns:xlink="http://www.w3.org/1999/xlink" width="607.2pt" height="338.4pt" viewBox="0 0 607.2 338.4" xmlns="http://www.w3.org/2000/svg" version="1.1">
 <metadata>
  <rdf:RDF xmlns:dc="http://purl.org/dc/elements/1.1/" xmlns:cc="http://creativecommons.org/ns#" xmlns:rdf="http://www.w3.org/1999/02/22-rdf-syntax-ns#">
   <cc:Work>
    <dc:type rdf:resource="http://purl.org/dc/dcmitype/StillImage"/>
    <dc:date>2025-10-13T08:26:23.832021</dc:date>
    <dc:format>image/svg+xml</dc:format>
    <dc:creator>
     <cc:Agent>
      <dc:title>Matplotlib v3.10.6, https://matplotlib.org/</dc:title>
     </cc:Agent>
    </dc:creator>
   </cc:Work>
  </rdf:RDF>
 </metadata>
 <defs>
  <style type="text/css">*{stroke-linejoin: round; stroke-linecap: butt}</style>
 </defs>
 <g id="figure_1">
  <g id="patch_1">
   <path d="M 0 338.4 
L 607.2 338.4 
L 607.2 0 
L 0 0 
z
" style="fill: #ffffff"/>
  </g>
  <g id="axes_1">
   <g id="patch_2">
    <path d="M 46.965625 318.021875 
L 600 318.021875 
L 600 7.2 
L 46.965625 7.2 
z
" style="fill: #ffffff"/>
   </g>
   <g id="line2d_1">
    <path d="M 200.299443 137.83478 
L 201.299443 137.866217 
L 202.299443 137.903157 
L 203.299443 138.000904 
L 204.299443 138.033425 
L 205.299443 138.10705 
L 206.299443 138.145616 
L 207.299443 138.181029 
L 208.299443 138.238669 
L 209.299443 138.309055 
L 210.299443 138.361019 
L 211.299443 138.420109 
L 212.299443 138.50843 
L 213.299443 138.554574 
L 214.299443 138.596985 
L 215.299443 138.627478 
L 216.299443 138.653523 
L 217.299443 138.674723 
L 218.299443 138.729024 
L 219.299443 138.756961 
L 220.299443 138.786685 
L 221.299443 138.81208 
L 222.299443 138.823281 
L 223.299443 138.833405 
L 224.299443 138.8332 
L 225.299443 138.82369 
L 226.299443 138.812037 
L 227.299443 138.781007 
L 228.299443 138.76984 
L 229.299443 138.739722 
L 230.299443 138.679945 
L 231.299443 138.642754 
L 232.299443 138.603657 
L 233.299443 138.561218 
L 234.299443 138.528453 
L 235.299443 138.461026 
L 236.299443 138.4219 
L 237.299443 138.379226 
L 238.299443 138.308645 
L 239.299443 138.272254 
L 240.299443 138.213851 
L 241.299443 138.102899 
L 242.299443 138.03224 
L 243.299443 137.9193 
L 244.299443 137.873528 
L 245.299443 137.812244 
L 246.299443 137.763745 
L 247.299443 137.682922 
L 248.299443 137.564403 
L 249.299443 137.494193 
L 250.299443 137.41093 
L 251.299443 137.377789 
L 252.299443 137.326551 
L 253.299443 137.258153 
L 254.299443 137.191937 
L 255.299443 137.11502 
L 256.619695 137.087705 
" clip-path="url(#p82d13b3951)" style="fill: none; stroke: #1f77b4; stroke-opacity: 0.5; stroke-width: 0.2; stroke-linecap: square"/>
   </g>
   <g id="line2d_2">
    <path d="M 200.299443 13.073552 
L 201.299443 13.104988 
L 202.299443 13.141929 
L 203.299443 13.239675 
L 204.299443 13.272197 
L 205.299443 13.345821 
L 206.299443 13.384387 
L 207.299443 13.4198 
L 208.299443 13.47744 
L 209.299443 13.547826 
L 210.299443 13.59979 
L 211.299443 13.65888 
L 212.299443 13.747201 
L 213.299443 13.793345 
L 214.299443 13.835756 
L 215.299443 13.866249 
L 216.299443 13.892294 
L 217.299443 13.913494 
L 218.299443 13.967795 
L 219.299443 13.995733 
L 220.299443 14.025457 
L 221.299443 14.050852 
L 222.299443 14.062052 
L 223.299443 14.072176 
L 224.299443 14.071972 
L 225.299443 14.062462 
L 226.299443 14.050808 
L 227.299443 14.019779 
L 228.299443 14.008611 
L 229.299443 13.978493 
L 230.299443 13.918716 
L 231.299443 13.881525 
L 232.299443 13.842429 
L 233.299443 13.799989 
L 234.299443 13.767224 
L 235.299443 13.699798 
L 236.299443 13.660672 
L 237.299443 13.617997 
L 238.299443 13.547417 
L 239.299443 13.511026 
L 240.299443 13.452623 
L 241.299443 13.34167 
L 242.299443 13.271012 
L 243.299443 13.158072 
L 244.299443 13.112299 
L 245.299443 13.051016 
L 246.299443 13.002516 
L 247.299443 12.921694 
L 248.299443 12.803175 
L 249.299443 12.732964 
L 250.299443 12.649702 
L 251.299443 12.61656 
L 252.299443 12.565323 
L 253.299443 12.496924 
L 254.299443 12.430709 
L 255.299443 12.353792 
L 256.619695 12.326476 
" clip-path="url(#p82d13b3951)" style="fill: none; stroke: #1f77b4; stroke-opacity: 0.5; stroke-width: 0.2; stroke-linecap: square"/>
   </g>
   <g id="line2d_3">
    <path d="M 200.299443 150.602354 
L 201.299443 150.633791 
L 202.299443 150.670731 
L 203.299443 150.768478 
L 204.299443 150.800999 
L 205.299443 150.874624 
L 206.299443 150.913189 
L 207.299443 150.948603 
L 208.299443 151.006243 
L 209.299443 151.076629 
L 210.299443 151.128593 
L 211.299443 151.187683 
L 212.299443 151.276004 
L 213.299443 151.322148 
L 214.299443 151.364559 
L 215.299443 151.395052 
L 216.299443 151.421097 
L 217.299443 151.442297 
L 218.299443 151.496598 
L 219.299443 151.524535 
L 220.299443 151.554259 
L 221.299443 151.579654 
L 222.299443 151.590854 
L 223.299443 151.600978 
L 224.299443 151.600774 
L 225.299443 151.591264 
L 226.299443 151.579611 
L 227.299443 151.548581 
L 228.299443 151.537413 
L 229.299443 151.507296 
L 230.299443 151.447519 
L 231.299443 151.410327 
L 232.299443 151.371231 
L 233.299443 151.328792 
L 234.299443 151.296027 
L 235.299443 151.2286 
L 236.299443 151.189474 
L 237.299443 151.1468 
L 238.299443 151.076219 
L 239.299443 151.039828 
L 240.299443 150.981425 
L 241.299443 150.870472 
L 242.299443 150.799814 
L 243.299443 150.686874 
L 244.299443 150.641101 
L 245.299443 150.579818 
L 246.299443 150.531319 
L 247.299443 150.450496 
L 248.299443 150.331977 
L 249.299443 150.261767 
L 250.299443 150.178504 
L 251.299443 150.145362 
L 252.299443 150.094125 
L 253.299443 150.025727 
L 254.299443 149.959511 
L 255.299443 149.882594 
L 256.619695 149.855279 
" clip-path="url(#p82d13b3951)" style="fill: none; stroke: #1f77b4; stroke-opacity: 0.5; stroke-width: 0.2; stroke-linecap: square"/>
   </g>
   <g id="line2d_4">
    <path d="M 200.299443 156.948556 
L 201.299443 156.979992 
L 202.299443 157.016933 
L 203.299443 157.114679 
L 204.299443 157.147201 
L 205.299443 157.220825 
L 206.299443 157.259391 
L 207.299443 157.294804 
L 208.299443 157.352444 
L 209.299443 157.42283 
L 210.299443 157.474794 
L 211.299443 157.533884 
L 212.299443 157.622205 
L 213.299443 157.668349 
L 214.299443 157.71076 
L 215.299443 157.741253 
L 216.299443 157.767298 
L 217.299443 157.788498 
L 218.299443 157.842799 
L 219.299443 157.870737 
L 220.299443 157.900461 
L 221.299443 157.925856 
L 222.299443 157.937056 
L 223.299443 157.94718 
L 224.299443 157.946976 
L 225.299443 157.937466 
L 226.299443 157.925812 
L 227.299443 157.894783 
L 228.299443 157.883615 
L 229.299443 157.853497 
L 230.299443 157.79372 
L 231.299443 157.756529 
L 232.299443 157.717433 
L 233.299443 157.674993 
L 234.299443 157.642228 
L 235.299443 157.574802 
L 236.299443 157.535676 
L 237.299443 157.493001 
L 238.299443 157.422421 
L 239.299443 157.38603 
L 240.299443 157.327627 
L 241.299443 157.216674 
L 242.299443 157.146016 
L 243.299443 157.033076 
L 244.299443 156.987303 
L 245.299443 156.92602 
L 246.299443 156.87752 
L 247.299443 156.796698 
L 248.299443 156.678179 
L 249.299443 156.607968 
L 250.299443 156.524706 
L 251.299443 156.491564 
L 252.299443 156.440327 
L 253.299443 156.371928 
L 254.299443 156.305713 
L 255.299443 156.228796 
L 256.619695 156.20148 
" clip-path="url(#p82d13b3951)" style="fill: none; stroke: #1f77b4; stroke-opacity: 0.5; stroke-width: 0.2; stroke-linecap: square"/>
   </g>
   <g id="line2d_5">
    <path d="M 200.299443 101.086213 
L 201.299443 101.11765 
L 202.299443 101.15459 
L 203.299443 101.252337 
L 204.299443 101.284858 
L 205.299443 101.358483 
L 206.299443 101.397049 
L 207.299443 101.432462 
L 208.299443 101.490102 
L 209.299443 101.560488 
L 210.299443 101.612452 
L 211.299443 101.671542 
L 212.299443 101.759863 
L 213.299443 101.806007 
L 214.299443 101.848418 
L 215.299443 101.878911 
L 216.299443 101.904956 
L 217.299443 101.926156 
L 218.299443 101.980457 
L 219.299443 102.008394 
L 220.299443 102.038118 
L 221.299443 102.063513 
L 222.299443 102.074714 
L 223.299443 102.084838 
L 224.299443 102.084633 
L 225.299443 102.075123 
L 226.299443 102.06347 
L 227.299443 102.032441 
L 228.299443 102.021273 
L 229.299443 101.991155 
L 230.299443 101.931378 
L 231.299443 101.894187 
L 232.299443 101.855091 
L 233.299443 101.812651 
L 234.299443 101.779886 
L 235.299443 101.712459 
L 236.299443 101.673333 
L 237.299443 101.630659 
L 238.299443 101.560078 
L 239.299443 101.523687 
L 240.299443 101.465284 
L 241.299443 101.354332 
L 242.299443 101.283673 
L 243.299443 101.170734 
L 244.299443 101.124961 
L 245.299443 101.063677 
L 246.299443 101.015178 
L 247.299443 100.934355 
L 248.299443 100.815836 
L 249.299443 100.745626 
L 250.299443 100.662363 
L 251.299443 100.629222 
L 252.299443 100.577984 
L 253.299443 100.509586 
L 254.299443 100.44337 
L 255.299443 100.366453 
L 256.619695 100.339138 
" clip-path="url(#p82d13b3951)" style="fill: none; stroke: #1f77b4; stroke-opacity: 0.5; stroke-width: 0.2; stroke-linecap: square"/>
   </g>
   <g id="line2d_6">
    <path d="M 200.299443 195.769645 
L 201.299443 195.801081 
L 202.299443 195.838022 
L 203.299443 195.935768 
L 204.299443 195.96829 
L 205.299443 196.041915 
L 206.299443 196.08048 
L 207.299443 196.115893 
L 208.299443 196.173533 
L 209.299443 196.243919 
L 210.299443 196.295884 
L 211.299443 196.354973 
L 212.299443 196.443294 
L 213.299443 196.489439 
L 214.299443 196.53185 
L 215.299443 196.562342 
L 216.299443 196.588387 
L 217.299443 196.609587 
L 218.299443 196.663888 
L 219.299443 196.691826 
L 220.299443 196.72155 
L 221.299443 196.746945 
L 222.299443 196.758145 
L 223.299443 196.768269 
L 224.299443 196.768065 
L 225.299443 196.758555 
L 226.299443 196.746901 
L 227.299443 196.715872 
L 228.299443 196.704704 
L 229.299443 196.674587 
L 230.299443 196.61481 
L 231.299443 196.577618 
L 232.299443 196.538522 
L 233.299443 196.496082 
L 234.299443 196.463317 
L 235.299443 196.395891 
L 236.299443 196.356765 
L 237.299443 196.31409 
L 238.299443 196.24351 
L 239.299443 196.207119 
L 240.299443 196.148716 
L 241.299443 196.037763 
L 242.299443 195.967105 
L 243.299443 195.854165 
L 244.299443 195.808392 
L 245.299443 195.747109 
L 246.299443 195.69861 
L 247.299443 195.617787 
L 248.299443 195.499268 
L 249.299443 195.429057 
L 250.299443 195.345795 
L 251.299443 195.312653 
L 252.299443 195.261416 
L 253.299443 195.193017 
L 254.299443 195.126802 
L 255.299443 195.049885 
L 256.619695 195.02257 
" clip-path="url(#p82d13b3951)" style="fill: none; stroke: #1f77b4; stroke-opacity: 0.5; stroke-width: 0.2; stroke-linecap: square"/>
   </g>
   <g id="line2d_7">
    <path d="M 200.299443 66.651763 
L 201.299443 66.683199 
L 202.299443 66.72014 
L 203.299443 66.817886 
L 204.299443 66.850408 
L 205.299443 66.924032 
L 206.299443 66.962598 
L 207.299443 66.998011 
L 208.299443 67.055651 
L 209.299443 67.126037 
L 210.299443 67.178002 
L 211.299443 67.237091 
L 212.299443 67.325412 
L 213.299443 67.371557 
L 214.299443 67.413967 
L 215.299443 67.44446 
L 216.299443 67.470505 
L 217.299443 67.491705 
L 218.299443 67.546006 
L 219.299443 67.573944 
L 220.299443 67.603668 
L 221.299443 67.629063 
L 222.299443 67.640263 
L 223.299443 67.650387 
L 224.299443 67.650183 
L 225.299443 67.640673 
L 226.299443 67.629019 
L 227.299443 67.59799 
L 228.299443 67.586822 
L 229.299443 67.556704 
L 230.299443 67.496928 
L 231.299443 67.459736 
L 232.299443 67.42064 
L 233.299443 67.3782 
L 234.299443 67.345435 
L 235.299443 67.278009 
L 236.299443 67.238883 
L 237.299443 67.196208 
L 238.299443 67.125628 
L 239.299443 67.089237 
L 240.299443 67.030834 
L 241.299443 66.919881 
L 242.299443 66.849223 
L 243.299443 66.736283 
L 244.299443 66.69051 
L 245.299443 66.629227 
L 246.299443 66.580727 
L 247.299443 66.499905 
L 248.299443 66.381386 
L 249.299443 66.311175 
L 250.299443 66.227913 
L 251.299443 66.194771 
L 252.299443 66.143534 
L 253.299443 66.075135 
L 254.299443 66.00892 
L 255.299443 65.932003 
L 256.619695 65.904687 
" clip-path="url(#p82d13b3951)" style="fill: none; stroke: #1f77b4; stroke-opacity: 0.5; stroke-width: 0.2; stroke-linecap: square"/>
   </g>
   <g id="line2d_8">
    <path d="M 200.299443 163.746948 
L 201.299443 163.778385 
L 202.299443 163.815325 
L 203.299443 163.913072 
L 204.299443 163.945593 
L 205.299443 164.019218 
L 206.299443 164.057783 
L 207.299443 164.093197 
L 208.299443 164.150837 
L 209.299443 164.221223 
L 210.299443 164.273187 
L 211.299443 164.332277 
L 212.299443 164.420598 
L 213.299443 164.466742 
L 214.299443 164.509153 
L 215.299443 164.539646 
L 216.299443 164.565691 
L 217.299443 164.586891 
L 218.299443 164.641192 
L 219.299443 164.669129 
L 220.299443 164.698853 
L 221.299443 164.724248 
L 222.299443 164.735448 
L 223.299443 164.745572 
L 224.299443 164.745368 
L 225.299443 164.735858 
L 226.299443 164.724205 
L 227.299443 164.693175 
L 228.299443 164.682007 
L 229.299443 164.65189 
L 230.299443 164.592113 
L 231.299443 164.554921 
L 232.299443 164.515825 
L 233.299443 164.473386 
L 234.299443 164.440621 
L 235.299443 164.373194 
L 236.299443 164.334068 
L 237.299443 164.291394 
L 238.299443 164.220813 
L 239.299443 164.184422 
L 240.299443 164.126019 
L 241.299443 164.015066 
L 242.299443 163.944408 
L 243.299443 163.831468 
L 244.299443 163.785695 
L 245.299443 163.724412 
L 246.299443 163.675913 
L 247.299443 163.59509 
L 248.299443 163.476571 
L 249.299443 163.406361 
L 250.299443 163.323098 
L 251.299443 163.289956 
L 252.299443 163.238719 
L 253.299443 163.170321 
L 254.299443 163.104105 
L 255.299443 163.027188 
L 256.619695 162.999873 
" clip-path="url(#p82d13b3951)" style="fill: none; stroke: #1f77b4; stroke-opacity: 0.5; stroke-width: 0.2; stroke-linecap: square"/>
   </g>
   <g id="line2d_9">
    <path d="M 200.299443 36.533535 
L 201.299443 36.564971 
L 202.299443 36.601912 
L 203.299443 36.699658 
L 204.299443 36.73218 
L 205.299443 36.805804 
L 206.299443 36.84437 
L 207.299443 36.879783 
L 208.299443 36.937423 
L 209.299443 37.007809 
L 210.299443 37.059773 
L 211.299443 37.118863 
L 212.299443 37.207184 
L 213.299443 37.253328 
L 214.299443 37.295739 
L 215.299443 37.326232 
L 216.299443 37.352277 
L 217.299443 37.373477 
L 218.299443 37.427778 
L 219.299443 37.455716 
L 220.299443 37.48544 
L 221.299443 37.510835 
L 222.299443 37.522035 
L 223.299443 37.532159 
L 224.299443 37.531955 
L 225.299443 37.522445 
L 226.299443 37.510791 
L 227.299443 37.479762 
L 228.299443 37.468594 
L 229.299443 37.438476 
L 230.299443 37.378699 
L 231.299443 37.341508 
L 232.299443 37.302412 
L 233.299443 37.259972 
L 234.299443 37.227207 
L 235.299443 37.159781 
L 236.299443 37.120655 
L 237.299443 37.07798 
L 238.299443 37.0074 
L 239.299443 36.971009 
L 240.299443 36.912606 
L 241.299443 36.801653 
L 242.299443 36.730995 
L 243.299443 36.618055 
L 244.299443 36.572282 
L 245.299443 36.510999 
L 246.299443 36.462499 
L 247.299443 36.381677 
L 248.299443 36.263158 
L 249.299443 36.192947 
L 250.299443 36.109685 
L 251.299443 36.076543 
L 252.299443 36.025306 
L 253.299443 35.956907 
L 254.299443 35.890692 
L 255.299443 35.813775 
L 256.619695 35.786459 
" clip-path="url(#p82d13b3951)" style="fill: none; stroke: #1f77b4; stroke-opacity: 0.5; stroke-width: 0.2; stroke-linecap: square"/>
   </g>
   <g id="line2d_10">
    <path d="M 200.299443 279.230207 
L 201.299443 279.261643 
L 202.299443 279.298583 
L 203.299443 279.39633 
L 204.299443 279.428852 
L 205.299443 279.502476 
L 206.299443 279.541042 
L 207.299443 279.576455 
L 208.299443 279.634095 
L 209.299443 279.704481 
L 210.299443 279.756445 
L 211.299443 279.815535 
L 212.299443 279.903856 
L 213.299443 279.95 
L 214.299443 279.992411 
L 215.299443 280.022904 
L 216.299443 280.048949 
L 217.299443 280.070149 
L 218.299443 280.12445 
L 219.299443 280.152388 
L 220.299443 280.182112 
L 221.299443 280.207506 
L 222.299443 280.218707 
L 223.299443 280.228831 
L 224.299443 280.228626 
L 225.299443 280.219117 
L 226.299443 280.207463 
L 227.299443 280.176434 
L 228.299443 280.165266 
L 229.299443 280.135148 
L 230.299443 280.075371 
L 231.299443 280.03818 
L 232.299443 279.999084 
L 233.299443 279.956644 
L 234.299443 279.923879 
L 235.299443 279.856453 
L 236.299443 279.817327 
L 237.299443 279.774652 
L 238.299443 279.704071 
L 239.299443 279.667681 
L 240.299443 279.609277 
L 241.299443 279.498325 
L 242.299443 279.427667 
L 243.299443 279.314727 
L 244.299443 279.268954 
L 245.299443 279.207671 
L 246.299443 279.159171 
L 247.299443 279.078349 
L 248.299443 278.95983 
L 249.299443 278.889619 
L 250.299443 278.806357 
L 251.299443 278.773215 
L 252.299443 278.721977 
L 253.299443 278.653579 
L 254.299443 278.587364 
L 255.299443 278.510447 
L 256.619695 278.483131 
" clip-path="url(#p82d13b3951)" style="fill: none; stroke: #1f77b4; stroke-opacity: 0.5; stroke-width: 0.2; stroke-linecap: square"/>
   </g>
   <g id="line2d_11">
    <path d="M 256.619695 225.756785 
L 255.619695 225.725348 
L 254.619695 225.688408 
L 253.619695 225.590661 
L 252.619695 225.55814 
L 251.619695 225.484515 
L 250.619695 225.445949 
L 249.619695 225.410536 
L 248.619695 225.352896 
L 247.619695 225.28251 
L 246.619695 225.230546 
L 245.619695 225.171456 
L 244.619695 225.083135 
L 243.619695 225.036991 
L 242.619695 224.99458 
L 241.619695 224.964087 
L 240.619695 224.938042 
L 239.619695 224.916842 
L 238.619695 224.862541 
L 237.619695 224.834604 
L 236.619695 224.80488 
L 235.619695 224.779485 
L 234.619695 224.768284 
L 233.619695 224.75816 
L 232.619695 224.758365 
L 231.619695 224.767875 
L 230.619695 224.779528 
L 229.619695 224.810557 
L 228.619695 224.821725 
L 227.619695 224.851843 
L 226.619695 224.91162 
L 225.619695 224.948811 
L 224.619695 224.987907 
L 223.619695 225.030347 
L 222.619695 225.063112 
L 221.619695 225.130539 
L 220.619695 225.169665 
L 219.619695 225.212339 
L 218.619695 225.28292 
L 217.619695 225.319311 
L 216.619695 225.377714 
L 215.619695 225.488666 
L 214.619695 225.559325 
L 213.619695 225.672264 
L 212.619695 225.718037 
L 211.619695 225.779321 
L 210.619695 225.82782 
L 209.619695 225.908643 
L 208.619695 226.027162 
L 207.619695 226.097372 
L 206.619695 226.180635 
L 205.619695 226.213776 
L 204.619695 226.265014 
L 203.619695 226.333412 
L 202.619695 226.399628 
L 201.619695 226.476545 
L 200.299443 226.50386 
" clip-path="url(#p82d13b3951)" style="fill: none; stroke: #ff7f0e; stroke-opacity: 0.5; stroke-width: 0.2; stroke-linecap: square"/>
   </g>
   <g id="line2d_12">
    <path d="M 256.619695 119.611691 
L 255.619695 119.580255 
L 254.619695 119.543315 
L 253.619695 119.445568 
L 252.619695 119.413046 
L 251.619695 119.339422 
L 250.619695 119.300856 
L 249.619695 119.265443 
L 248.619695 119.207803 
L 247.619695 119.137417 
L 246.619695 119.085453 
L 245.619695 119.026363 
L 244.619695 118.938042 
L 243.619695 118.891898 
L 242.619695 118.849487 
L 241.619695 118.818994 
L 240.619695 118.792949 
L 239.619695 118.771749 
L 238.619695 118.717448 
L 237.619695 118.68951 
L 236.619695 118.659786 
L 235.619695 118.634392 
L 234.619695 118.623191 
L 233.619695 118.613067 
L 232.619695 118.613272 
L 231.619695 118.622781 
L 230.619695 118.634435 
L 229.619695 118.665464 
L 228.619695 118.676632 
L 227.619695 118.70675 
L 226.619695 118.766527 
L 225.619695 118.803718 
L 224.619695 118.842814 
L 223.619695 118.885254 
L 222.619695 118.918019 
L 221.619695 118.985445 
L 220.619695 119.024571 
L 219.619695 119.067246 
L 218.619695 119.137826 
L 217.619695 119.174217 
L 216.619695 119.232621 
L 215.619695 119.343573 
L 214.619695 119.414231 
L 213.619695 119.527171 
L 212.619695 119.572944 
L 211.619695 119.634227 
L 210.619695 119.682727 
L 209.619695 119.763549 
L 208.619695 119.882068 
L 207.619695 119.952279 
L 206.619695 120.035541 
L 205.619695 120.068683 
L 204.619695 120.11992 
L 203.619695 120.188319 
L 202.619695 120.254534 
L 201.619695 120.331451 
L 200.299443 120.358767 
" clip-path="url(#p82d13b3951)" style="fill: none; stroke: #ff7f0e; stroke-opacity: 0.5; stroke-width: 0.2; stroke-linecap: square"/>
   </g>
   <g id="line2d_13">
    <path d="M 256.619695 131.768754 
L 255.619695 131.737318 
L 254.619695 131.700378 
L 253.619695 131.602631 
L 252.619695 131.570109 
L 251.619695 131.496485 
L 250.619695 131.457919 
L 249.619695 131.422506 
L 248.619695 131.364866 
L 247.619695 131.29448 
L 246.619695 131.242516 
L 245.619695 131.183426 
L 244.619695 131.095105 
L 243.619695 131.048961 
L 242.619695 131.00655 
L 241.619695 130.976057 
L 240.619695 130.950012 
L 239.619695 130.928812 
L 238.619695 130.874511 
L 237.619695 130.846573 
L 236.619695 130.816849 
L 235.619695 130.791455 
L 234.619695 130.780254 
L 233.619695 130.77013 
L 232.619695 130.770335 
L 231.619695 130.779844 
L 230.619695 130.791498 
L 229.619695 130.822527 
L 228.619695 130.833695 
L 227.619695 130.863813 
L 226.619695 130.92359 
L 225.619695 130.960781 
L 224.619695 130.999877 
L 223.619695 131.042317 
L 222.619695 131.075082 
L 221.619695 131.142508 
L 220.619695 131.181634 
L 219.619695 131.224309 
L 218.619695 131.29489 
L 217.619695 131.33128 
L 216.619695 131.389684 
L 215.619695 131.500636 
L 214.619695 131.571294 
L 213.619695 131.684234 
L 212.619695 131.730007 
L 211.619695 131.79129 
L 210.619695 131.83979 
L 209.619695 131.920612 
L 208.619695 132.039131 
L 207.619695 132.109342 
L 206.619695 132.192604 
L 205.619695 132.225746 
L 204.619695 132.276984 
L 203.619695 132.345382 
L 202.619695 132.411597 
L 201.619695 132.488514 
L 200.299443 132.51583 
" clip-path="url(#p82d13b3951)" style="fill: none; stroke: #ff7f0e; stroke-opacity: 0.5; stroke-width: 0.2; stroke-linecap: square"/>
   </g>
   <g id="line2d_14">
    <path d="M 256.619695 238.805291 
L 255.619695 238.773855 
L 254.619695 238.736915 
L 253.619695 238.639168 
L 252.619695 238.606646 
L 251.619695 238.533022 
L 250.619695 238.494456 
L 249.619695 238.459043 
L 248.619695 238.401403 
L 247.619695 238.331017 
L 246.619695 238.279053 
L 245.619695 238.219963 
L 244.619695 238.131642 
L 243.619695 238.085498 
L 242.619695 238.043087 
L 241.619695 238.012594 
L 240.619695 237.986549 
L 239.619695 237.965349 
L 238.619695 237.911048 
L 237.619695 237.88311 
L 236.619695 237.853386 
L 235.619695 237.827992 
L 234.619695 237.816791 
L 233.619695 237.806667 
L 232.619695 237.806872 
L 231.619695 237.816381 
L 230.619695 237.828035 
L 229.619695 237.859064 
L 228.619695 237.870232 
L 227.619695 237.90035 
L 226.619695 237.960127 
L 225.619695 237.997318 
L 224.619695 238.036414 
L 223.619695 238.078854 
L 222.619695 238.111619 
L 221.619695 238.179045 
L 220.619695 238.218171 
L 219.619695 238.260846 
L 218.619695 238.331427 
L 217.619695 238.367817 
L 216.619695 238.426221 
L 215.619695 238.537173 
L 214.619695 238.607831 
L 213.619695 238.720771 
L 212.619695 238.766544 
L 211.619695 238.827827 
L 210.619695 238.876327 
L 209.619695 238.957149 
L 208.619695 239.075668 
L 207.619695 239.145879 
L 206.619695 239.229141 
L 205.619695 239.262283 
L 204.619695 239.313521 
L 203.619695 239.381919 
L 202.619695 239.448134 
L 201.619695 239.525051 
L 200.299443 239.552367 
" clip-path="url(#p82d13b3951)" style="fill: none; stroke: #ff7f0e; stroke-opacity: 0.5; stroke-width: 0.2; stroke-linecap: square"/>
   </g>
   <g id="line2d_15">
    <path d="M 256.619695 83.064489 
L 255.619695 83.033053 
L 254.619695 82.996113 
L 253.619695 82.898366 
L 252.619695 82.865844 
L 251.619695 82.79222 
L 250.619695 82.753654 
L 249.619695 82.718241 
L 248.619695 82.660601 
L 247.619695 82.590215 
L 246.619695 82.538251 
L 245.619695 82.479161 
L 244.619695 82.39084 
L 243.619695 82.344696 
L 242.619695 82.302285 
L 241.619695 82.271792 
L 240.619695 82.245747 
L 239.619695 82.224547 
L 238.619695 82.170246 
L 237.619695 82.142308 
L 236.619695 82.112584 
L 235.619695 82.08719 
L 234.619695 82.075989 
L 233.619695 82.065865 
L 232.619695 82.06607 
L 231.619695 82.075579 
L 230.619695 82.087233 
L 229.619695 82.118262 
L 228.619695 82.12943 
L 227.619695 82.159548 
L 226.619695 82.219325 
L 225.619695 82.256516 
L 224.619695 82.295612 
L 223.619695 82.338052 
L 222.619695 82.370817 
L 221.619695 82.438243 
L 220.619695 82.477369 
L 219.619695 82.520044 
L 218.619695 82.590625 
L 217.619695 82.627015 
L 216.619695 82.685419 
L 215.619695 82.796371 
L 214.619695 82.867029 
L 213.619695 82.979969 
L 212.619695 83.025742 
L 211.619695 83.087025 
L 210.619695 83.135525 
L 209.619695 83.216347 
L 208.619695 83.334866 
L 207.619695 83.405077 
L 206.619695 83.488339 
L 205.619695 83.521481 
L 204.619695 83.572719 
L 203.619695 83.641117 
L 202.619695 83.707332 
L 201.619695 83.784249 
L 200.299443 83.811565 
" clip-path="url(#p82d13b3951)" style="fill: none; stroke: #ff7f0e; stroke-opacity: 0.5; stroke-width: 0.2; stroke-linecap: square"/>
   </g>
   <g id="line2d_16">
    <path d="M 256.619695 21.112763 
L 255.619695 21.081326 
L 254.619695 21.044386 
L 253.619695 20.946639 
L 252.619695 20.914118 
L 251.619695 20.840493 
L 250.619695 20.801928 
L 249.619695 20.766514 
L 248.619695 20.708874 
L 247.619695 20.638488 
L 246.619695 20.586524 
L 245.619695 20.527434 
L 244.619695 20.439113 
L 243.619695 20.392969 
L 242.619695 20.350558 
L 241.619695 20.320065 
L 240.619695 20.29402 
L 239.619695 20.27282 
L 238.619695 20.218519 
L 237.619695 20.190582 
L 236.619695 20.160858 
L 235.619695 20.135463 
L 234.619695 20.124263 
L 233.619695 20.114139 
L 232.619695 20.114343 
L 231.619695 20.123853 
L 230.619695 20.135506 
L 229.619695 20.166536 
L 228.619695 20.177704 
L 227.619695 20.207821 
L 226.619695 20.267598 
L 225.619695 20.30479 
L 224.619695 20.343886 
L 223.619695 20.386325 
L 222.619695 20.41909 
L 221.619695 20.486517 
L 220.619695 20.525643 
L 219.619695 20.568317 
L 218.619695 20.638898 
L 217.619695 20.675289 
L 216.619695 20.733692 
L 215.619695 20.844645 
L 214.619695 20.915303 
L 213.619695 21.028243 
L 212.619695 21.074016 
L 211.619695 21.135299 
L 210.619695 21.183798 
L 209.619695 21.264621 
L 208.619695 21.38314 
L 207.619695 21.45335 
L 206.619695 21.536613 
L 205.619695 21.569755 
L 204.619695 21.620992 
L 203.619695 21.68939 
L 202.619695 21.755606 
L 201.619695 21.832523 
L 200.299443 21.859838 
" clip-path="url(#p82d13b3951)" style="fill: none; stroke: #ff7f0e; stroke-opacity: 0.5; stroke-width: 0.2; stroke-linecap: square"/>
   </g>
   <g id="line2d_17">
    <path d="M 256.619695 215.059419 
L 255.619695 215.027983 
L 254.619695 214.991042 
L 253.619695 214.893296 
L 252.619695 214.860774 
L 251.619695 214.78715 
L 250.619695 214.748584 
L 249.619695 214.713171 
L 248.619695 214.655531 
L 247.619695 214.585145 
L 246.619695 214.53318 
L 245.619695 214.474091 
L 244.619695 214.38577 
L 243.619695 214.339625 
L 242.619695 214.297215 
L 241.619695 214.266722 
L 240.619695 214.240677 
L 239.619695 214.219477 
L 238.619695 214.165176 
L 237.619695 214.137238 
L 236.619695 214.107514 
L 235.619695 214.082119 
L 234.619695 214.070919 
L 233.619695 214.060795 
L 232.619695 214.060999 
L 231.619695 214.070509 
L 230.619695 214.082163 
L 229.619695 214.113192 
L 228.619695 214.12436 
L 227.619695 214.154478 
L 226.619695 214.214254 
L 225.619695 214.251446 
L 224.619695 214.290542 
L 223.619695 214.332982 
L 222.619695 214.365747 
L 221.619695 214.433173 
L 220.619695 214.472299 
L 219.619695 214.514974 
L 218.619695 214.585554 
L 217.619695 214.621945 
L 216.619695 214.680348 
L 215.619695 214.791301 
L 214.619695 214.861959 
L 213.619695 214.974899 
L 212.619695 215.020672 
L 211.619695 215.081955 
L 210.619695 215.130455 
L 209.619695 215.211277 
L 208.619695 215.329796 
L 207.619695 215.400007 
L 206.619695 215.483269 
L 205.619695 215.516411 
L 204.619695 215.567648 
L 203.619695 215.636047 
L 202.619695 215.702262 
L 201.619695 215.779179 
L 200.299443 215.806495 
" clip-path="url(#p82d13b3951)" style="fill: none; stroke: #ff7f0e; stroke-opacity: 0.5; stroke-width: 0.2; stroke-linecap: square"/>
   </g>
   <g id="line2d_18">
    <path d="M 256.619695 161.645506 
L 255.619695 161.61407 
L 254.619695 161.57713 
L 253.619695 161.479383 
L 252.619695 161.446861 
L 251.619695 161.373237 
L 250.619695 161.334671 
L 249.619695 161.299258 
L 248.619695 161.241618 
L 247.619695 161.171232 
L 246.619695 161.119268 
L 245.619695 161.060178 
L 244.619695 160.971857 
L 243.619695 160.925713 
L 242.619695 160.883302 
L 241.619695 160.852809 
L 240.619695 160.826764 
L 239.619695 160.805564 
L 238.619695 160.751263 
L 237.619695 160.723325 
L 236.619695 160.693601 
L 235.619695 160.668207 
L 234.619695 160.657006 
L 233.619695 160.646882 
L 232.619695 160.647087 
L 231.619695 160.656596 
L 230.619695 160.66825 
L 229.619695 160.699279 
L 228.619695 160.710447 
L 227.619695 160.740565 
L 226.619695 160.800342 
L 225.619695 160.837533 
L 224.619695 160.876629 
L 223.619695 160.919069 
L 222.619695 160.951834 
L 221.619695 161.01926 
L 220.619695 161.058386 
L 219.619695 161.101061 
L 218.619695 161.171642 
L 217.619695 161.208032 
L 216.619695 161.266436 
L 215.619695 161.377388 
L 214.619695 161.448046 
L 213.619695 161.560986 
L 212.619695 161.606759 
L 211.619695 161.668042 
L 210.619695 161.716542 
L 209.619695 161.797364 
L 208.619695 161.915883 
L 207.619695 161.986094 
L 206.619695 162.069356 
L 205.619695 162.102498 
L 204.619695 162.153736 
L 203.619695 162.222134 
L 202.619695 162.288349 
L 201.619695 162.365266 
L 200.299443 162.392582 
" clip-path="url(#p82d13b3951)" style="fill: none; stroke: #ff7f0e; stroke-opacity: 0.5; stroke-width: 0.2; stroke-linecap: square"/>
   </g>
   <g id="line2d_19">
    <path d="M 256.619695 255.477754 
L 255.619695 255.446317 
L 254.619695 255.409377 
L 253.619695 255.31163 
L 252.619695 255.279109 
L 251.619695 255.205484 
L 250.619695 255.166918 
L 249.619695 255.131505 
L 248.619695 255.073865 
L 247.619695 255.003479 
L 246.619695 254.951515 
L 245.619695 254.892425 
L 244.619695 254.804104 
L 243.619695 254.75796 
L 242.619695 254.715549 
L 241.619695 254.685056 
L 240.619695 254.659011 
L 239.619695 254.637811 
L 238.619695 254.58351 
L 237.619695 254.555573 
L 236.619695 254.525849 
L 235.619695 254.500454 
L 234.619695 254.489253 
L 233.619695 254.479129 
L 232.619695 254.479334 
L 231.619695 254.488844 
L 230.619695 254.500497 
L 229.619695 254.531526 
L 228.619695 254.542694 
L 227.619695 254.572812 
L 226.619695 254.632589 
L 225.619695 254.66978 
L 224.619695 254.708877 
L 223.619695 254.751316 
L 222.619695 254.784081 
L 221.619695 254.851508 
L 220.619695 254.890634 
L 219.619695 254.933308 
L 218.619695 255.003889 
L 217.619695 255.04028 
L 216.619695 255.098683 
L 215.619695 255.209635 
L 214.619695 255.280294 
L 213.619695 255.393234 
L 212.619695 255.439006 
L 211.619695 255.50029 
L 210.619695 255.548789 
L 209.619695 255.629612 
L 208.619695 255.748131 
L 207.619695 255.818341 
L 206.619695 255.901604 
L 205.619695 255.934745 
L 204.619695 255.985983 
L 203.619695 256.054381 
L 202.619695 256.120597 
L 201.619695 256.197514 
L 200.299443 256.224829 
" clip-path="url(#p82d13b3951)" style="fill: none; stroke: #ff7f0e; stroke-opacity: 0.5; stroke-width: 0.2; stroke-linecap: square"/>
   </g>
   <g id="line2d_20">
    <path d="M 256.619695 125.588307 
L 255.619695 125.55687 
L 254.619695 125.51993 
L 253.619695 125.422183 
L 252.619695 125.389662 
L 251.619695 125.316037 
L 250.619695 125.277472 
L 249.619695 125.242058 
L 248.619695 125.184418 
L 247.619695 125.114032 
L 246.619695 125.062068 
L 245.619695 125.002978 
L 244.619695 124.914657 
L 243.619695 124.868513 
L 242.619695 124.826102 
L 241.619695 124.795609 
L 240.619695 124.769564 
L 239.619695 124.748364 
L 238.619695 124.694063 
L 237.619695 124.666126 
L 236.619695 124.636402 
L 235.619695 124.611007 
L 234.619695 124.599807 
L 233.619695 124.589683 
L 232.619695 124.589887 
L 231.619695 124.599397 
L 230.619695 124.61105 
L 229.619695 124.64208 
L 228.619695 124.653248 
L 227.619695 124.683365 
L 226.619695 124.743142 
L 225.619695 124.780334 
L 224.619695 124.81943 
L 223.619695 124.861869 
L 222.619695 124.894634 
L 221.619695 124.962061 
L 220.619695 125.001187 
L 219.619695 125.043861 
L 218.619695 125.114442 
L 217.619695 125.150833 
L 216.619695 125.209236 
L 215.619695 125.320189 
L 214.619695 125.390847 
L 213.619695 125.503787 
L 212.619695 125.54956 
L 211.619695 125.610843 
L 210.619695 125.659342 
L 209.619695 125.740165 
L 208.619695 125.858684 
L 207.619695 125.928894 
L 206.619695 126.012157 
L 205.619695 126.045299 
L 204.619695 126.096536 
L 203.619695 126.164934 
L 202.619695 126.23115 
L 201.619695 126.308067 
L 200.299443 126.335382 
" clip-path="url(#p82d13b3951)" style="fill: none; stroke: #ff7f0e; stroke-opacity: 0.5; stroke-width: 0.2; stroke-linecap: square"/>
   </g>
   <g id="line2d_21">
    <path d="M 390.34593 104.059938 
L 391.34593 104.091374 
L 392.34593 104.128314 
L 393.34593 104.226061 
L 394.34593 104.258582 
L 395.34593 104.332207 
L 396.34593 104.370773 
L 397.34593 104.406186 
L 398.34593 104.463826 
L 399.34593 104.534212 
L 400.34593 104.586176 
L 401.34593 104.645266 
L 402.34593 104.733587 
L 403.34593 104.779731 
L 404.34593 104.822142 
L 405.34593 104.852635 
L 406.34593 104.87868 
L 407.34593 104.89988 
L 408.34593 104.954181 
L 409.34593 104.982119 
L 410.34593 105.011843 
L 411.34593 105.037237 
L 412.34593 105.048438 
L 413.34593 105.058562 
L 414.34593 105.058357 
L 415.34593 105.048848 
L 416.34593 105.037194 
L 417.34593 105.006165 
L 418.34593 104.994997 
L 419.34593 104.964879 
L 420.34593 104.905102 
L 421.34593 104.867911 
L 422.34593 104.828815 
L 423.34593 104.786375 
L 424.34593 104.75361 
L 425.34593 104.686183 
L 426.34593 104.647058 
L 427.34593 104.604383 
L 428.34593 104.533802 
L 429.34593 104.497412 
L 430.34593 104.439008 
L 431.34593 104.328056 
L 432.34593 104.257397 
L 433.34593 104.144458 
L 434.34593 104.098685 
L 435.34593 104.037402 
L 436.34593 103.988902 
L 437.34593 103.90808 
L 438.34593 103.789561 
L 439.34593 103.71935 
L 440.34593 103.636087 
L 441.34593 103.602946 
L 442.34593 103.551708 
L 443.34593 103.48331 
L 444.34593 103.417095 
L 445.34593 103.340178 
L 446.666182 103.312862 
" clip-path="url(#p82d13b3951)" style="fill: none; stroke: #ff7f0e; stroke-opacity: 0.5; stroke-width: 0.2; stroke-linecap: square"/>
   </g>
   <g id="line2d_22">
    <path d="M 390.34593 203.331986 
L 391.34593 203.363423 
L 392.34593 203.400363 
L 393.34593 203.49811 
L 394.34593 203.530631 
L 395.34593 203.604256 
L 396.34593 203.642821 
L 397.34593 203.678235 
L 398.34593 203.735875 
L 399.34593 203.806261 
L 400.34593 203.858225 
L 401.34593 203.917315 
L 402.34593 204.005636 
L 403.34593 204.05178 
L 404.34593 204.094191 
L 405.34593 204.124684 
L 406.34593 204.150729 
L 407.34593 204.171929 
L 408.34593 204.22623 
L 409.34593 204.254167 
L 410.34593 204.283891 
L 411.34593 204.309286 
L 412.34593 204.320487 
L 413.34593 204.33061 
L 414.34593 204.330406 
L 415.34593 204.320896 
L 416.34593 204.309243 
L 417.34593 204.278213 
L 418.34593 204.267046 
L 419.34593 204.236928 
L 420.34593 204.177151 
L 421.34593 204.13996 
L 422.34593 204.100863 
L 423.34593 204.058424 
L 424.34593 204.025659 
L 425.34593 203.958232 
L 426.34593 203.919106 
L 427.34593 203.876432 
L 428.34593 203.805851 
L 429.34593 203.76946 
L 430.34593 203.711057 
L 431.34593 203.600105 
L 432.34593 203.529446 
L 433.34593 203.416506 
L 434.34593 203.370733 
L 435.34593 203.30945 
L 436.34593 203.260951 
L 437.34593 203.180128 
L 438.34593 203.061609 
L 439.34593 202.991399 
L 440.34593 202.908136 
L 441.34593 202.874994 
L 442.34593 202.823757 
L 443.34593 202.755359 
L 444.34593 202.689143 
L 445.34593 202.612226 
L 446.666182 202.584911 
" clip-path="url(#p82d13b3951)" style="fill: none; stroke: #ff7f0e; stroke-opacity: 0.5; stroke-width: 0.2; stroke-linecap: square"/>
   </g>
   <g id="line2d_23">
    <path d="M 390.34593 288.80438 
L 391.34593 288.835816 
L 392.34593 288.872757 
L 393.34593 288.970503 
L 394.34593 289.003025 
L 395.34593 289.07665 
L 396.34593 289.115215 
L 397.34593 289.150628 
L 398.34593 289.208268 
L 399.34593 289.278655 
L 400.34593 289.330619 
L 401.34593 289.389709 
L 402.34593 289.478029 
L 403.34593 289.524174 
L 404.34593 289.566585 
L 405.34593 289.597077 
L 406.34593 289.623122 
L 407.34593 289.644322 
L 408.34593 289.698624 
L 409.34593 289.726561 
L 410.34593 289.756285 
L 411.34593 289.78168 
L 412.34593 289.79288 
L 413.34593 289.803004 
L 414.34593 289.8028 
L 415.34593 289.79329 
L 416.34593 289.781636 
L 417.34593 289.750607 
L 418.34593 289.739439 
L 419.34593 289.709322 
L 420.34593 289.649545 
L 421.34593 289.612353 
L 422.34593 289.573257 
L 423.34593 289.530818 
L 424.34593 289.498052 
L 425.34593 289.430626 
L 426.34593 289.3915 
L 427.34593 289.348826 
L 428.34593 289.278245 
L 429.34593 289.241854 
L 430.34593 289.183451 
L 431.34593 289.072498 
L 432.34593 289.00184 
L 433.34593 288.8889 
L 434.34593 288.843127 
L 435.34593 288.781844 
L 436.34593 288.733345 
L 437.34593 288.652522 
L 438.34593 288.534003 
L 439.34593 288.463792 
L 440.34593 288.38053 
L 441.34593 288.347388 
L 442.34593 288.296151 
L 443.34593 288.227753 
L 444.34593 288.161537 
L 445.34593 288.08462 
L 446.666182 288.057305 
" clip-path="url(#p82d13b3951)" style="fill: none; stroke: #ff7f0e; stroke-opacity: 0.5; stroke-width: 0.2; stroke-linecap: square"/>
   </g>
   <g id="line2d_24">
    <path d="M 390.34593 36.675422 
L 391.34593 36.706859 
L 392.34593 36.743799 
L 393.34593 36.841546 
L 394.34593 36.874067 
L 395.34593 36.947692 
L 396.34593 36.986258 
L 397.34593 37.021671 
L 398.34593 37.079311 
L 399.34593 37.149697 
L 400.34593 37.201661 
L 401.34593 37.260751 
L 402.34593 37.349072 
L 403.34593 37.395216 
L 404.34593 37.437627 
L 405.34593 37.46812 
L 406.34593 37.494165 
L 407.34593 37.515365 
L 408.34593 37.569666 
L 409.34593 37.597603 
L 410.34593 37.627327 
L 411.34593 37.652722 
L 412.34593 37.663923 
L 413.34593 37.674047 
L 414.34593 37.673842 
L 415.34593 37.664332 
L 416.34593 37.652679 
L 417.34593 37.621649 
L 418.34593 37.610482 
L 419.34593 37.580364 
L 420.34593 37.520587 
L 421.34593 37.483396 
L 422.34593 37.444299 
L 423.34593 37.40186 
L 424.34593 37.369095 
L 425.34593 37.301668 
L 426.34593 37.262542 
L 427.34593 37.219868 
L 428.34593 37.149287 
L 429.34593 37.112896 
L 430.34593 37.054493 
L 431.34593 36.943541 
L 432.34593 36.872882 
L 433.34593 36.759942 
L 434.34593 36.71417 
L 435.34593 36.652886 
L 436.34593 36.604387 
L 437.34593 36.523564 
L 438.34593 36.405045 
L 439.34593 36.334835 
L 440.34593 36.251572 
L 441.34593 36.218431 
L 442.34593 36.167193 
L 443.34593 36.098795 
L 444.34593 36.032579 
L 445.34593 35.955662 
L 446.666182 35.928347 
" clip-path="url(#p82d13b3951)" style="fill: none; stroke: #ff7f0e; stroke-opacity: 0.5; stroke-width: 0.2; stroke-linecap: square"/>
   </g>
   <g id="line2d_25">
    <path d="M 390.34593 77.546746 
L 391.34593 77.578182 
L 392.34593 77.615122 
L 393.34593 77.712869 
L 394.34593 77.74539 
L 395.34593 77.819015 
L 396.34593 77.857581 
L 397.34593 77.892994 
L 398.34593 77.950634 
L 399.34593 78.02102 
L 400.34593 78.072984 
L 401.34593 78.132074 
L 402.34593 78.220395 
L 403.34593 78.266539 
L 404.34593 78.30895 
L 405.34593 78.339443 
L 406.34593 78.365488 
L 407.34593 78.386688 
L 408.34593 78.440989 
L 409.34593 78.468927 
L 410.34593 78.498651 
L 411.34593 78.524045 
L 412.34593 78.535246 
L 413.34593 78.54537 
L 414.34593 78.545165 
L 415.34593 78.535656 
L 416.34593 78.524002 
L 417.34593 78.492973 
L 418.34593 78.481805 
L 419.34593 78.451687 
L 420.34593 78.39191 
L 421.34593 78.354719 
L 422.34593 78.315623 
L 423.34593 78.273183 
L 424.34593 78.240418 
L 425.34593 78.172991 
L 426.34593 78.133866 
L 427.34593 78.091191 
L 428.34593 78.02061 
L 429.34593 77.98422 
L 430.34593 77.925816 
L 431.34593 77.814864 
L 432.34593 77.744205 
L 433.34593 77.631266 
L 434.34593 77.585493 
L 435.34593 77.52421 
L 436.34593 77.47571 
L 437.34593 77.394888 
L 438.34593 77.276369 
L 439.34593 77.206158 
L 440.34593 77.122895 
L 441.34593 77.089754 
L 442.34593 77.038516 
L 443.34593 76.970118 
L 444.34593 76.903903 
L 445.34593 76.826986 
L 446.666182 76.79967 
" clip-path="url(#p82d13b3951)" style="fill: none; stroke: #ff7f0e; stroke-opacity: 0.5; stroke-width: 0.2; stroke-linecap: square"/>
   </g>
   <g id="line2d_26">
    <path d="M 390.34593 45.291197 
L 391.34593 45.322633 
L 392.34593 45.359573 
L 393.34593 45.45732 
L 394.34593 45.489842 
L 395.34593 45.563466 
L 396.34593 45.602032 
L 397.34593 45.637445 
L 398.34593 45.695085 
L 399.34593 45.765471 
L 400.34593 45.817435 
L 401.34593 45.876525 
L 402.34593 45.964846 
L 403.34593 46.01099 
L 404.34593 46.053401 
L 405.34593 46.083894 
L 406.34593 46.109939 
L 407.34593 46.131139 
L 408.34593 46.18544 
L 409.34593 46.213378 
L 410.34593 46.243102 
L 411.34593 46.268496 
L 412.34593 46.279697 
L 413.34593 46.289821 
L 414.34593 46.289617 
L 415.34593 46.280107 
L 416.34593 46.268453 
L 417.34593 46.237424 
L 418.34593 46.226256 
L 419.34593 46.196138 
L 420.34593 46.136361 
L 421.34593 46.09917 
L 422.34593 46.060074 
L 423.34593 46.017634 
L 424.34593 45.984869 
L 425.34593 45.917443 
L 426.34593 45.878317 
L 427.34593 45.835642 
L 428.34593 45.765062 
L 429.34593 45.728671 
L 430.34593 45.670268 
L 431.34593 45.559315 
L 432.34593 45.488657 
L 433.34593 45.375717 
L 434.34593 45.329944 
L 435.34593 45.268661 
L 436.34593 45.220161 
L 437.34593 45.139339 
L 438.34593 45.02082 
L 439.34593 44.950609 
L 440.34593 44.867347 
L 441.34593 44.834205 
L 442.34593 44.782968 
L 443.34593 44.714569 
L 444.34593 44.648354 
L 445.34593 44.571437 
L 446.666182 44.544121 
" clip-path="url(#p82d13b3951)" style="fill: none; stroke: #ff7f0e; stroke-opacity: 0.5; stroke-width: 0.2; stroke-linecap: square"/>
   </g>
   <g id="line2d_27">
    <path d="M 390.34593 193.846022 
L 391.34593 193.877458 
L 392.34593 193.914399 
L 393.34593 194.012145 
L 394.34593 194.044667 
L 395.34593 194.118291 
L 396.34593 194.156857 
L 397.34593 194.19227 
L 398.34593 194.24991 
L 399.34593 194.320296 
L 400.34593 194.37226 
L 401.34593 194.43135 
L 402.34593 194.519671 
L 403.34593 194.565816 
L 404.34593 194.608226 
L 405.34593 194.638719 
L 406.34593 194.664764 
L 407.34593 194.685964 
L 408.34593 194.740265 
L 409.34593 194.768203 
L 410.34593 194.797927 
L 411.34593 194.823322 
L 412.34593 194.834522 
L 413.34593 194.844646 
L 414.34593 194.844442 
L 415.34593 194.834932 
L 416.34593 194.823278 
L 417.34593 194.792249 
L 418.34593 194.781081 
L 419.34593 194.750963 
L 420.34593 194.691187 
L 421.34593 194.653995 
L 422.34593 194.614899 
L 423.34593 194.572459 
L 424.34593 194.539694 
L 425.34593 194.472268 
L 426.34593 194.433142 
L 427.34593 194.390467 
L 428.34593 194.319887 
L 429.34593 194.283496 
L 430.34593 194.225093 
L 431.34593 194.11414 
L 432.34593 194.043482 
L 433.34593 193.930542 
L 434.34593 193.884769 
L 435.34593 193.823486 
L 436.34593 193.774986 
L 437.34593 193.694164 
L 438.34593 193.575645 
L 439.34593 193.505434 
L 440.34593 193.422172 
L 441.34593 193.38903 
L 442.34593 193.337793 
L 443.34593 193.269394 
L 444.34593 193.203179 
L 445.34593 193.126262 
L 446.666182 193.098946 
" clip-path="url(#p82d13b3951)" style="fill: none; stroke: #ff7f0e; stroke-opacity: 0.5; stroke-width: 0.2; stroke-linecap: square"/>
   </g>
   <g id="line2d_28">
    <path d="M 390.34593 249.939872 
L 391.34593 249.971309 
L 392.34593 250.008249 
L 393.34593 250.105996 
L 394.34593 250.138517 
L 395.34593 250.212142 
L 396.34593 250.250708 
L 397.34593 250.286121 
L 398.34593 250.343761 
L 399.34593 250.414147 
L 400.34593 250.466111 
L 401.34593 250.525201 
L 402.34593 250.613522 
L 403.34593 250.659666 
L 404.34593 250.702077 
L 405.34593 250.73257 
L 406.34593 250.758615 
L 407.34593 250.779815 
L 408.34593 250.834116 
L 409.34593 250.862053 
L 410.34593 250.891777 
L 411.34593 250.917172 
L 412.34593 250.928373 
L 413.34593 250.938497 
L 414.34593 250.938292 
L 415.34593 250.928782 
L 416.34593 250.917129 
L 417.34593 250.886099 
L 418.34593 250.874932 
L 419.34593 250.844814 
L 420.34593 250.785037 
L 421.34593 250.747846 
L 422.34593 250.708749 
L 423.34593 250.66631 
L 424.34593 250.633545 
L 425.34593 250.566118 
L 426.34593 250.526992 
L 427.34593 250.484318 
L 428.34593 250.413737 
L 429.34593 250.377346 
L 430.34593 250.318943 
L 431.34593 250.207991 
L 432.34593 250.137332 
L 433.34593 250.024392 
L 434.34593 249.97862 
L 435.34593 249.917336 
L 436.34593 249.868837 
L 437.34593 249.788014 
L 438.34593 249.669495 
L 439.34593 249.599285 
L 440.34593 249.516022 
L 441.34593 249.482881 
L 442.34593 249.431643 
L 443.34593 249.363245 
L 444.34593 249.297029 
L 445.34593 249.220112 
L 446.666182 249.192797 
" clip-path="url(#p82d13b3951)" style="fill: none; stroke: #ff7f0e; stroke-opacity: 0.5; stroke-width: 0.2; stroke-linecap: square"/>
   </g>
   <g id="line2d_29">
    <path d="M 390.34593 163.508535 
L 391.34593 163.539971 
L 392.34593 163.576911 
L 393.34593 163.674658 
L 394.34593 163.707179 
L 395.34593 163.780804 
L 396.34593 163.81937 
L 397.34593 163.854783 
L 398.34593 163.912423 
L 399.34593 163.982809 
L 400.34593 164.034773 
L 401.34593 164.093863 
L 402.34593 164.182184 
L 403.34593 164.228328 
L 404.34593 164.270739 
L 405.34593 164.301232 
L 406.34593 164.327277 
L 407.34593 164.348477 
L 408.34593 164.402778 
L 409.34593 164.430716 
L 410.34593 164.460439 
L 411.34593 164.485834 
L 412.34593 164.497035 
L 413.34593 164.507159 
L 414.34593 164.506954 
L 415.34593 164.497444 
L 416.34593 164.485791 
L 417.34593 164.454762 
L 418.34593 164.443594 
L 419.34593 164.413476 
L 420.34593 164.353699 
L 421.34593 164.316508 
L 422.34593 164.277412 
L 423.34593 164.234972 
L 424.34593 164.202207 
L 425.34593 164.13478 
L 426.34593 164.095654 
L 427.34593 164.05298 
L 428.34593 163.982399 
L 429.34593 163.946008 
L 430.34593 163.887605 
L 431.34593 163.776653 
L 432.34593 163.705994 
L 433.34593 163.593055 
L 434.34593 163.547282 
L 435.34593 163.485998 
L 436.34593 163.437499 
L 437.34593 163.356676 
L 438.34593 163.238158 
L 439.34593 163.167947 
L 440.34593 163.084684 
L 441.34593 163.051543 
L 442.34593 163.000305 
L 443.34593 162.931907 
L 444.34593 162.865692 
L 445.34593 162.788774 
L 446.666182 162.761459 
" clip-path="url(#p82d13b3951)" style="fill: none; stroke: #ff7f0e; stroke-opacity: 0.5; stroke-width: 0.2; stroke-linecap: square"/>
   </g>
   <g id="line2d_30">
    <path d="M 390.34593 206.1049 
L 391.34593 206.136336 
L 392.34593 206.173276 
L 393.34593 206.271023 
L 394.34593 206.303544 
L 395.34593 206.377169 
L 396.34593 206.415735 
L 397.34593 206.451148 
L 398.34593 206.508788 
L 399.34593 206.579174 
L 400.34593 206.631138 
L 401.34593 206.690228 
L 402.34593 206.778549 
L 403.34593 206.824693 
L 404.34593 206.867104 
L 405.34593 206.897597 
L 406.34593 206.923642 
L 407.34593 206.944842 
L 408.34593 206.999143 
L 409.34593 207.027081 
L 410.34593 207.056804 
L 411.34593 207.082199 
L 412.34593 207.0934 
L 413.34593 207.103524 
L 414.34593 207.103319 
L 415.34593 207.093809 
L 416.34593 207.082156 
L 417.34593 207.051127 
L 418.34593 207.039959 
L 419.34593 207.009841 
L 420.34593 206.950064 
L 421.34593 206.912873 
L 422.34593 206.873777 
L 423.34593 206.831337 
L 424.34593 206.798572 
L 425.34593 206.731145 
L 426.34593 206.692019 
L 427.34593 206.649345 
L 428.34593 206.578764 
L 429.34593 206.542373 
L 430.34593 206.48397 
L 431.34593 206.373018 
L 432.34593 206.302359 
L 433.34593 206.18942 
L 434.34593 206.143647 
L 435.34593 206.082363 
L 436.34593 206.033864 
L 437.34593 205.953041 
L 438.34593 205.834523 
L 439.34593 205.764312 
L 440.34593 205.681049 
L 441.34593 205.647908 
L 442.34593 205.59667 
L 443.34593 205.528272 
L 444.34593 205.462057 
L 445.34593 205.385139 
L 446.666182 205.357824 
" clip-path="url(#p82d13b3951)" style="fill: none; stroke: #ff7f0e; stroke-opacity: 0.5; stroke-width: 0.2; stroke-linecap: square"/>
   </g>
   <g id="line2d_31">
    <path d="M 446.666182 231.691669 
L 445.666182 231.660233 
L 444.666182 231.623293 
L 443.666182 231.525546 
L 442.666182 231.493025 
L 441.666182 231.4194 
L 440.666182 231.380834 
L 439.666182 231.345421 
L 438.666182 231.287781 
L 437.666182 231.217395 
L 436.666182 231.165431 
L 435.666182 231.106341 
L 434.666182 231.01802 
L 433.666182 230.971876 
L 432.666182 230.929465 
L 431.666182 230.898972 
L 430.666182 230.872927 
L 429.666182 230.851727 
L 428.666182 230.797426 
L 427.666182 230.769488 
L 426.666182 230.739764 
L 425.666182 230.71437 
L 424.666182 230.703169 
L 423.666182 230.693045 
L 422.666182 230.69325 
L 421.666182 230.70276 
L 420.666182 230.714413 
L 419.666182 230.745442 
L 418.666182 230.75661 
L 417.666182 230.786728 
L 416.666182 230.846505 
L 415.666182 230.883696 
L 414.666182 230.922792 
L 413.666182 230.965232 
L 412.666182 230.997997 
L 411.666182 231.065424 
L 410.666182 231.104549 
L 409.666182 231.147224 
L 408.666182 231.217805 
L 407.666182 231.254195 
L 406.666182 231.312599 
L 405.666182 231.423551 
L 404.666182 231.49421 
L 403.666182 231.607149 
L 402.666182 231.652922 
L 401.666182 231.714206 
L 400.666182 231.762705 
L 399.666182 231.843528 
L 398.666182 231.962046 
L 397.666182 232.032257 
L 396.666182 232.11552 
L 395.666182 232.148661 
L 394.666182 232.199899 
L 393.666182 232.268297 
L 392.666182 232.334512 
L 391.666182 232.411429 
L 390.34593 232.438745 
" clip-path="url(#p82d13b3951)" style="fill: none; stroke: #2ca02c; stroke-opacity: 0.5; stroke-width: 0.2; stroke-linecap: square"/>
   </g>
   <g id="line2d_32">
    <path d="M 446.666182 251.138699 
L 445.666182 251.107262 
L 444.666182 251.070322 
L 443.666182 250.972575 
L 442.666182 250.940054 
L 441.666182 250.866429 
L 440.666182 250.827863 
L 439.666182 250.79245 
L 438.666182 250.73481 
L 437.666182 250.664424 
L 436.666182 250.61246 
L 435.666182 250.55337 
L 434.666182 250.465049 
L 433.666182 250.418905 
L 432.666182 250.376494 
L 431.666182 250.346001 
L 430.666182 250.319956 
L 429.666182 250.298756 
L 428.666182 250.244455 
L 427.666182 250.216517 
L 426.666182 250.186794 
L 425.666182 250.161399 
L 424.666182 250.150198 
L 423.666182 250.140074 
L 422.666182 250.140279 
L 421.666182 250.149789 
L 420.666182 250.161442 
L 419.666182 250.192471 
L 418.666182 250.203639 
L 417.666182 250.233757 
L 416.666182 250.293534 
L 415.666182 250.330725 
L 414.666182 250.369821 
L 413.666182 250.412261 
L 412.666182 250.445026 
L 411.666182 250.512453 
L 410.666182 250.551579 
L 409.666182 250.594253 
L 408.666182 250.664834 
L 407.666182 250.701225 
L 406.666182 250.759628 
L 405.666182 250.87058 
L 404.666182 250.941239 
L 403.666182 251.054178 
L 402.666182 251.099951 
L 401.666182 251.161235 
L 400.666182 251.209734 
L 399.666182 251.290557 
L 398.666182 251.409076 
L 397.666182 251.479286 
L 396.666182 251.562549 
L 395.666182 251.59569 
L 394.666182 251.646928 
L 393.666182 251.715326 
L 392.666182 251.781541 
L 391.666182 251.858459 
L 390.34593 251.885774 
" clip-path="url(#p82d13b3951)" style="fill: none; stroke: #2ca02c; stroke-opacity: 0.5; stroke-width: 0.2; stroke-linecap: square"/>
   </g>
   <g id="line2d_33">
    <path d="M 446.666182 246.043187 
L 445.666182 246.011751 
L 444.666182 245.974811 
L 443.666182 245.877064 
L 442.666182 245.844542 
L 441.666182 245.770918 
L 440.666182 245.732352 
L 439.666182 245.696939 
L 438.666182 245.639299 
L 437.666182 245.568913 
L 436.666182 245.516949 
L 435.666182 245.457859 
L 434.666182 245.369538 
L 433.666182 245.323394 
L 432.666182 245.280983 
L 431.666182 245.25049 
L 430.666182 245.224445 
L 429.666182 245.203245 
L 428.666182 245.148944 
L 427.666182 245.121006 
L 426.666182 245.091282 
L 425.666182 245.065888 
L 424.666182 245.054687 
L 423.666182 245.044563 
L 422.666182 245.044767 
L 421.666182 245.054277 
L 420.666182 245.065931 
L 419.666182 245.09696 
L 418.666182 245.108128 
L 417.666182 245.138246 
L 416.666182 245.198023 
L 415.666182 245.235214 
L 414.666182 245.27431 
L 413.666182 245.31675 
L 412.666182 245.349515 
L 411.666182 245.416941 
L 410.666182 245.456067 
L 409.666182 245.498742 
L 408.666182 245.569322 
L 407.666182 245.605713 
L 406.666182 245.664116 
L 405.666182 245.775069 
L 404.666182 245.845727 
L 403.666182 245.958667 
L 402.666182 246.00444 
L 401.666182 246.065723 
L 400.666182 246.114223 
L 399.666182 246.195045 
L 398.666182 246.313564 
L 397.666182 246.383775 
L 396.666182 246.467037 
L 395.666182 246.500179 
L 394.666182 246.551416 
L 393.666182 246.619815 
L 392.666182 246.68603 
L 391.666182 246.762947 
L 390.34593 246.790263 
" clip-path="url(#p82d13b3951)" style="fill: none; stroke: #2ca02c; stroke-opacity: 0.5; stroke-width: 0.2; stroke-linecap: square"/>
   </g>
   <g id="line2d_34">
    <path d="M 446.666182 250.203555 
L 445.666182 250.172119 
L 444.666182 250.135178 
L 443.666182 250.037432 
L 442.666182 250.00491 
L 441.666182 249.931285 
L 440.666182 249.89272 
L 439.666182 249.857307 
L 438.666182 249.799667 
L 437.666182 249.729281 
L 436.666182 249.677316 
L 435.666182 249.618227 
L 434.666182 249.529906 
L 433.666182 249.483761 
L 432.666182 249.44135 
L 431.666182 249.410858 
L 430.666182 249.384813 
L 429.666182 249.363613 
L 428.666182 249.309312 
L 427.666182 249.281374 
L 426.666182 249.25165 
L 425.666182 249.226255 
L 424.666182 249.215055 
L 423.666182 249.204931 
L 422.666182 249.205135 
L 421.666182 249.214645 
L 420.666182 249.226299 
L 419.666182 249.257328 
L 418.666182 249.268496 
L 417.666182 249.298613 
L 416.666182 249.35839 
L 415.666182 249.395582 
L 414.666182 249.434678 
L 413.666182 249.477118 
L 412.666182 249.509883 
L 411.666182 249.577309 
L 410.666182 249.616435 
L 409.666182 249.65911 
L 408.666182 249.72969 
L 407.666182 249.766081 
L 406.666182 249.824484 
L 405.666182 249.935437 
L 404.666182 250.006095 
L 403.666182 250.119035 
L 402.666182 250.164808 
L 401.666182 250.226091 
L 400.666182 250.27459 
L 399.666182 250.355413 
L 398.666182 250.473932 
L 397.666182 250.544143 
L 396.666182 250.627405 
L 395.666182 250.660547 
L 394.666182 250.711784 
L 393.666182 250.780183 
L 392.666182 250.846398 
L 391.666182 250.923315 
L 390.34593 250.95063 
" clip-path="url(#p82d13b3951)" style="fill: none; stroke: #2ca02c; stroke-opacity: 0.5; stroke-width: 0.2; stroke-linecap: square"/>
   </g>
   <g id="line2d_35">
    <path d="M 446.666182 305.824473 
L 445.666182 305.793036 
L 444.666182 305.756096 
L 443.666182 305.658349 
L 442.666182 305.625828 
L 441.666182 305.552203 
L 440.666182 305.513638 
L 439.666182 305.478224 
L 438.666182 305.420584 
L 437.666182 305.350198 
L 436.666182 305.298234 
L 435.666182 305.239144 
L 434.666182 305.150823 
L 433.666182 305.104679 
L 432.666182 305.062268 
L 431.666182 305.031775 
L 430.666182 305.00573 
L 429.666182 304.98453 
L 428.666182 304.930229 
L 427.666182 304.902292 
L 426.666182 304.872568 
L 425.666182 304.847173 
L 424.666182 304.835973 
L 423.666182 304.825849 
L 422.666182 304.826053 
L 421.666182 304.835563 
L 420.666182 304.847216 
L 419.666182 304.878246 
L 418.666182 304.889414 
L 417.666182 304.919531 
L 416.666182 304.979308 
L 415.666182 305.0165 
L 414.666182 305.055596 
L 413.666182 305.098035 
L 412.666182 305.1308 
L 411.666182 305.198227 
L 410.666182 305.237353 
L 409.666182 305.280027 
L 408.666182 305.350608 
L 407.666182 305.386999 
L 406.666182 305.445402 
L 405.666182 305.556355 
L 404.666182 305.627013 
L 403.666182 305.739953 
L 402.666182 305.785726 
L 401.666182 305.847009 
L 400.666182 305.895508 
L 399.666182 305.976331 
L 398.666182 306.09485 
L 397.666182 306.16506 
L 396.666182 306.248323 
L 395.666182 306.281465 
L 394.666182 306.332702 
L 393.666182 306.4011 
L 392.666182 306.467316 
L 391.666182 306.544233 
L 390.34593 306.571548 
" clip-path="url(#p82d13b3951)" style="fill: none; stroke: #2ca02c; stroke-opacity: 0.5; stroke-width: 0.2; stroke-linecap: square"/>
   </g>
   <g id="line2d_36">
    <path d="M 446.666182 15.332224 
L 445.666182 15.300788 
L 444.666182 15.263848 
L 443.666182 15.166101 
L 442.666182 15.13358 
L 441.666182 15.059955 
L 440.666182 15.021389 
L 439.666182 14.985976 
L 438.666182 14.928336 
L 437.666182 14.85795 
L 436.666182 14.805986 
L 435.666182 14.746896 
L 434.666182 14.658575 
L 433.666182 14.612431 
L 432.666182 14.57002 
L 431.666182 14.539527 
L 430.666182 14.513482 
L 429.666182 14.492282 
L 428.666182 14.437981 
L 427.666182 14.410043 
L 426.666182 14.380319 
L 425.666182 14.354925 
L 424.666182 14.343724 
L 423.666182 14.3336 
L 422.666182 14.333805 
L 421.666182 14.343314 
L 420.666182 14.354968 
L 419.666182 14.385997 
L 418.666182 14.397165 
L 417.666182 14.427283 
L 416.666182 14.48706 
L 415.666182 14.524251 
L 414.666182 14.563347 
L 413.666182 14.605787 
L 412.666182 14.638552 
L 411.666182 14.705979 
L 410.666182 14.745104 
L 409.666182 14.787779 
L 408.666182 14.85836 
L 407.666182 14.89475 
L 406.666182 14.953154 
L 405.666182 15.064106 
L 404.666182 15.134765 
L 403.666182 15.247704 
L 402.666182 15.293477 
L 401.666182 15.35476 
L 400.666182 15.40326 
L 399.666182 15.484082 
L 398.666182 15.602601 
L 397.666182 15.672812 
L 396.666182 15.756075 
L 395.666182 15.789216 
L 394.666182 15.840454 
L 393.666182 15.908852 
L 392.666182 15.975067 
L 391.666182 16.051984 
L 390.34593 16.0793 
" clip-path="url(#p82d13b3951)" style="fill: none; stroke: #2ca02c; stroke-opacity: 0.5; stroke-width: 0.2; stroke-linecap: square"/>
   </g>
   <g id="line2d_37">
    <path d="M 446.666182 175.286482 
L 445.666182 175.255045 
L 444.666182 175.218105 
L 443.666182 175.120358 
L 442.666182 175.087837 
L 441.666182 175.014212 
L 440.666182 174.975646 
L 439.666182 174.940233 
L 438.666182 174.882593 
L 437.666182 174.812207 
L 436.666182 174.760243 
L 435.666182 174.701153 
L 434.666182 174.612832 
L 433.666182 174.566688 
L 432.666182 174.524277 
L 431.666182 174.493784 
L 430.666182 174.467739 
L 429.666182 174.446539 
L 428.666182 174.392238 
L 427.666182 174.364301 
L 426.666182 174.334577 
L 425.666182 174.309182 
L 424.666182 174.297981 
L 423.666182 174.287857 
L 422.666182 174.288062 
L 421.666182 174.297572 
L 420.666182 174.309225 
L 419.666182 174.340255 
L 418.666182 174.351422 
L 417.666182 174.38154 
L 416.666182 174.441317 
L 415.666182 174.478508 
L 414.666182 174.517605 
L 413.666182 174.560044 
L 412.666182 174.592809 
L 411.666182 174.660236 
L 410.666182 174.699362 
L 409.666182 174.742036 
L 408.666182 174.812617 
L 407.666182 174.849008 
L 406.666182 174.907411 
L 405.666182 175.018363 
L 404.666182 175.089022 
L 403.666182 175.201962 
L 402.666182 175.247734 
L 401.666182 175.309018 
L 400.666182 175.357517 
L 399.666182 175.43834 
L 398.666182 175.556859 
L 397.666182 175.627069 
L 396.666182 175.710332 
L 395.666182 175.743473 
L 394.666182 175.794711 
L 393.666182 175.863109 
L 392.666182 175.929325 
L 391.666182 176.006242 
L 390.34593 176.033557 
" clip-path="url(#p82d13b3951)" style="fill: none; stroke: #2ca02c; stroke-opacity: 0.5; stroke-width: 0.2; stroke-linecap: square"/>
   </g>
   <g id="line2d_38">
    <path d="M 446.666182 70.339589 
L 445.666182 70.308152 
L 444.666182 70.271212 
L 443.666182 70.173465 
L 442.666182 70.140944 
L 441.666182 70.067319 
L 440.666182 70.028754 
L 439.666182 69.99334 
L 438.666182 69.9357 
L 437.666182 69.865314 
L 436.666182 69.81335 
L 435.666182 69.75426 
L 434.666182 69.665939 
L 433.666182 69.619795 
L 432.666182 69.577384 
L 431.666182 69.546891 
L 430.666182 69.520846 
L 429.666182 69.499646 
L 428.666182 69.445345 
L 427.666182 69.417408 
L 426.666182 69.387684 
L 425.666182 69.362289 
L 424.666182 69.351088 
L 423.666182 69.340965 
L 422.666182 69.341169 
L 421.666182 69.350679 
L 420.666182 69.362332 
L 419.666182 69.393362 
L 418.666182 69.404529 
L 417.666182 69.434647 
L 416.666182 69.494424 
L 415.666182 69.531616 
L 414.666182 69.570712 
L 413.666182 69.613151 
L 412.666182 69.645916 
L 411.666182 69.713343 
L 410.666182 69.752469 
L 409.666182 69.795143 
L 408.666182 69.865724 
L 407.666182 69.902115 
L 406.666182 69.960518 
L 405.666182 70.07147 
L 404.666182 70.142129 
L 403.666182 70.255069 
L 402.666182 70.300842 
L 401.666182 70.362125 
L 400.666182 70.410624 
L 399.666182 70.491447 
L 398.666182 70.609966 
L 397.666182 70.680176 
L 396.666182 70.763439 
L 395.666182 70.796581 
L 394.666182 70.847818 
L 393.666182 70.916216 
L 392.666182 70.982432 
L 391.666182 71.059349 
L 390.34593 71.086664 
" clip-path="url(#p82d13b3951)" style="fill: none; stroke: #2ca02c; stroke-opacity: 0.5; stroke-width: 0.2; stroke-linecap: square"/>
   </g>
   <g id="line2d_39">
    <path d="M 446.666182 51.473616 
L 445.666182 51.442179 
L 444.666182 51.405239 
L 443.666182 51.307492 
L 442.666182 51.274971 
L 441.666182 51.201346 
L 440.666182 51.16278 
L 439.666182 51.127367 
L 438.666182 51.069727 
L 437.666182 50.999341 
L 436.666182 50.947377 
L 435.666182 50.888287 
L 434.666182 50.799966 
L 433.666182 50.753822 
L 432.666182 50.711411 
L 431.666182 50.680918 
L 430.666182 50.654873 
L 429.666182 50.633673 
L 428.666182 50.579372 
L 427.666182 50.551435 
L 426.666182 50.521711 
L 425.666182 50.496316 
L 424.666182 50.485115 
L 423.666182 50.474992 
L 422.666182 50.475196 
L 421.666182 50.484706 
L 420.666182 50.496359 
L 419.666182 50.527389 
L 418.666182 50.538556 
L 417.666182 50.568674 
L 416.666182 50.628451 
L 415.666182 50.665642 
L 414.666182 50.704739 
L 413.666182 50.747178 
L 412.666182 50.779943 
L 411.666182 50.84737 
L 410.666182 50.886496 
L 409.666182 50.92917 
L 408.666182 50.999751 
L 407.666182 51.036142 
L 406.666182 51.094545 
L 405.666182 51.205497 
L 404.666182 51.276156 
L 403.666182 51.389096 
L 402.666182 51.434868 
L 401.666182 51.496152 
L 400.666182 51.544651 
L 399.666182 51.625474 
L 398.666182 51.743993 
L 397.666182 51.814203 
L 396.666182 51.897466 
L 395.666182 51.930608 
L 394.666182 51.981845 
L 393.666182 52.050243 
L 392.666182 52.116459 
L 391.666182 52.193376 
L 390.34593 52.220691 
" clip-path="url(#p82d13b3951)" style="fill: none; stroke: #2ca02c; stroke-opacity: 0.5; stroke-width: 0.2; stroke-linecap: square"/>
   </g>
   <g id="line2d_40">
    <path d="M 446.666182 274.982311 
L 445.666182 274.950874 
L 444.666182 274.913934 
L 443.666182 274.816187 
L 442.666182 274.783666 
L 441.666182 274.710041 
L 440.666182 274.671475 
L 439.666182 274.636062 
L 438.666182 274.578422 
L 437.666182 274.508036 
L 436.666182 274.456072 
L 435.666182 274.396982 
L 434.666182 274.308661 
L 433.666182 274.262517 
L 432.666182 274.220106 
L 431.666182 274.189613 
L 430.666182 274.163568 
L 429.666182 274.142368 
L 428.666182 274.088067 
L 427.666182 274.06013 
L 426.666182 274.030406 
L 425.666182 274.005011 
L 424.666182 273.99381 
L 423.666182 273.983686 
L 422.666182 273.983891 
L 421.666182 273.993401 
L 420.666182 274.005054 
L 419.666182 274.036083 
L 418.666182 274.047251 
L 417.666182 274.077369 
L 416.666182 274.137146 
L 415.666182 274.174337 
L 414.666182 274.213433 
L 413.666182 274.255873 
L 412.666182 274.288638 
L 411.666182 274.356065 
L 410.666182 274.395191 
L 409.666182 274.437865 
L 408.666182 274.508446 
L 407.666182 274.544837 
L 406.666182 274.60324 
L 405.666182 274.714192 
L 404.666182 274.784851 
L 403.666182 274.897791 
L 402.666182 274.943563 
L 401.666182 275.004847 
L 400.666182 275.053346 
L 399.666182 275.134169 
L 398.666182 275.252688 
L 397.666182 275.322898 
L 396.666182 275.406161 
L 395.666182 275.439302 
L 394.666182 275.49054 
L 393.666182 275.558938 
L 392.666182 275.625154 
L 391.666182 275.702071 
L 390.34593 275.729386 
" clip-path="url(#p82d13b3951)" style="fill: none; stroke: #2ca02c; stroke-opacity: 0.5; stroke-width: 0.2; stroke-linecap: square"/>
   </g>
   <g id="patch_3">
    <path d="M 72.103551 7.2 
L 72.103551 318.021875 
M 194.769099 7.2 
L 194.769099 318.021875 
" clip-path="url(#p82d13b3951)" style="fill: none; stroke: #ffffff; stroke-width: 3; stroke-linejoin: miter"/>
    <path d="M 72.103551 7.2 
L 72.103551 318.021875 
M 194.769099 7.2 
L 194.769099 318.021875 
" clip-path="url(#p82d13b3951)" style="fill: none; stroke: #1f77b4; stroke-linejoin: miter"/>
   </g>
   <g id="FillBetweenPolyCollection_1">
    <path d="M 194.769099 7.2 
L 72.103551 7.2 
L 72.103551 318.021875 
L 194.769099 318.021875 
L 194.769099 318.021875 
L 194.769099 7.2 
z
" clip-path="url(#p82d13b3951)" style="fill: #1f77b4; fill-opacity: 0.5"/>
   </g>
   <g id="patch_4">
    <path d="M 262.150038 7.2 
L 262.150038 318.021875 
M 384.815587 7.2 
L 384.815587 318.021875 
" clip-path="url(#p82d13b3951)" style="fill: none; stroke: #ffffff; stroke-width: 3; stroke-linejoin: miter"/>
    <path d="M 262.150038 7.2 
L 262.150038 318.021875 
M 384.815587 7.2 
L 384.815587 318.021875 
" clip-path="url(#p82d13b3951)" style="fill: none; stroke: #ff7f0e; stroke-linejoin: miter"/>
   </g>
   <g id="FillBetweenPolyCollection_2">
    <path d="M 384.815587 7.2 
L 262.150038 7.2 
L 262.150038 318.021875 
L 384.815587 318.021875 
L 384.815587 318.021875 
L 384.815587 7.2 
z
" clip-path="url(#p82d13b3951)" style="fill: #ff7f0e; fill-opacity: 0.5"/>
   </g>
   <g id="patch_5">
    <path d="M 452.196526 7.2 
L 452.196526 318.021875 
M 574.862074 7.2 
L 574.862074 318.021875 
" clip-path="url(#p82d13b3951)" style="fill: none; stroke: #ffffff; stroke-width: 3; stroke-linejoin: miter"/>
    <path d="M 452.196526 7.2 
L 452.196526 318.021875 
M 574.862074 7.2 
L 574.862074 318.021875 
" clip-path="url(#p82d13b3951)" style="fill: none; stroke: #2ca02c; stroke-linejoin: miter"/>
   </g>
   <g id="FillBetweenPolyCollection_3">
    <path d="M 574.862074 7.2 
L 452.196526 7.2 
L 452.196526 318.021875 
L 574.862074 318.021875 
L 574.862074 318.021875 
L 574.862074 7.2 
z
" clip-path="url(#p82d13b3951)" style="fill: #2ca02c; fill-opacity: 0.5"/>
   </g>
   <g id="matplotlib.axis_1">
    <g id="xtick_1">
     <g id="line2d_41"/>
     <g id="text_1">
      <!-- d0 -->
      <g transform="translate(127.080856 329.120312) scale(0.1 -0.1)">
       <defs>
        <path id="DejaVuSans-64" d="M 2906 2969 
L 2906 4863 
L 3481 4863 
L 3481 0 
L 2906 0 
L 2906 525 
Q 2725 213 2448 61 
Q 2172 -91 1784 -91 
Q 1150 -91 751 415 
Q 353 922 353 1747 
Q 353 2572 751 3078 
Q 1150 3584 1784 3584 
Q 2172 3584 2448 3432 
Q 2725 3281 2906 2969 
z
M 947 1747 
Q 947 1113 1208 752 
Q 1469 391 1925 391 
Q 2381 391 2643 752 
Q 2906 1113 2906 1747 
Q 2906 2381 2643 2742 
Q 2381 3103 1925 3103 
Q 1469 3103 1208 2742 
Q 947 2381 947 1747 
z
" transform="scale(0.015625)"/>
        <path id="DejaVuSans-30" d="M 2034 4250 
Q 1547 4250 1301 3770 
Q 1056 3291 1056 2328 
Q 1056 1369 1301 889 
Q 1547 409 2034 409 
Q 2525 409 2770 889 
Q 3016 1369 3016 2328 
Q 3016 3291 2770 3770 
Q 2525 4250 2034 4250 
z
M 2034 4750 
Q 2819 4750 3233 4129 
Q 3647 3509 3647 2328 
Q 3647 1150 3233 529 
Q 2819 -91 2034 -91 
Q 1250 -91 836 529 
Q 422 1150 422 2328 
Q 422 3509 836 4129 
Q 1250 4750 2034 4750 
z
" transform="scale(0.015625)"/>
       </defs>
       <use xlink:href="#DejaVuSans-64"/>
       <use xlink:href="#DejaVuSans-30" transform="translate(63.476562 0)"/>
      </g>
     </g>
    </g>
    <g id="xtick_2">
     <g id="line2d_42"/>
     <g id="text_2">
      <!-- d1 -->
      <g transform="translate(317.127344 329.120312) scale(0.1 -0.1)">
       <defs>
        <path id="DejaVuSans-31" d="M 794 531 
L 1825 531 
L 1825 4091 
L 703 3866 
L 703 4441 
L 1819 4666 
L 2450 4666 
L 2450 531 
L 3481 531 
L 3481 0 
L 794 0 
L 794 531 
z
" transform="scale(0.015625)"/>
       </defs>
       <use xlink:href="#DejaVuSans-64"/>
       <use xlink:href="#DejaVuSans-31" transform="translate(63.476562 0)"/>
      </g>
     </g>
    </g>
    <g id="xtick_3">
     <g id="line2d_43"/>
     <g id="text_3">
      <!-- d2 -->
      <g transform="translate(507.173831 329.120312) scale(0.1 -0.1)">
       <defs>
        <path id="DejaVuSans-32" d="M 1228 531 
L 3431 531 
L 3431 0 
L 469 0 
L 469 531 
Q 828 903 1448 1529 
Q 2069 2156 2228 2338 
Q 2531 2678 2651 2914 
Q 2772 3150 2772 3378 
Q 2772 3750 2511 3984 
Q 2250 4219 1831 4219 
Q 1534 4219 1204 4116 
Q 875 4013 500 3803 
L 500 4441 
Q 881 4594 1212 4672 
Q 1544 4750 1819 4750 
Q 2544 4750 2975 4387 
Q 3406 4025 3406 3419 
Q 3406 3131 3298 2873 
Q 3191 2616 2906 2266 
Q 2828 2175 2409 1742 
Q 1991 1309 1228 531 
z
" transform="scale(0.015625)"/>
       </defs>
       <use xlink:href="#DejaVuSans-64"/>
       <use xlink:href="#DejaVuSans-32" transform="translate(63.476562 0)"/>
      </g>
     </g>
    </g>
   </g>
   <g id="matplotlib.axis_2">
    <g id="ytick_1">
     <g id="line2d_44">
      <defs>
       <path id="m8b1372aae5" d="M 0 0 
L -3.5 0 
" style="stroke: #000000; stroke-width: 0.8"/>
      </defs>
      <g>
       <use xlink:href="#m8b1372aae5" x="46.965625" y="318.021875" style="stroke: #000000; stroke-width: 0.8"/>
      </g>
     </g>
     <g id="text_4">
      <!-- 0 -->
      <g transform="translate(33.603125 321.821094) scale(0.1 -0.1)">
       <use xlink:href="#DejaVuSans-30"/>
      </g>
     </g>
    </g>
    <g id="ytick_2">
     <g id="line2d_45">
      <g>
       <use xlink:href="#m8b1372aae5" x="46.965625" y="263.009154" style="stroke: #000000; stroke-width: 0.8"/>
      </g>
     </g>
     <g id="text_5">
      <!-- 20 -->
      <g transform="translate(27.240625 266.808373) scale(0.1 -0.1)">
       <use xlink:href="#DejaVuSans-32"/>
       <use xlink:href="#DejaVuSans-30" transform="translate(63.623047 0)"/>
      </g>
     </g>
    </g>
    <g id="ytick_3">
     <g id="line2d_46">
      <g>
       <use xlink:href="#m8b1372aae5" x="46.965625" y="207.996433" style="stroke: #000000; stroke-width: 0.8"/>
      </g>
     </g>
     <g id="text_6">
      <!-- 40 -->
      <g transform="translate(27.240625 211.795651) scale(0.1 -0.1)">
       <defs>
        <path id="DejaVuSans-34" d="M 2419 4116 
L 825 1625 
L 2419 1625 
L 2419 4116 
z
M 2253 4666 
L 3047 4666 
L 3047 1625 
L 3713 1625 
L 3713 1100 
L 3047 1100 
L 3047 0 
L 2419 0 
L 2419 1100 
L 313 1100 
L 313 1709 
L 2253 4666 
z
" transform="scale(0.015625)"/>
       </defs>
       <use xlink:href="#DejaVuSans-34"/>
       <use xlink:href="#DejaVuSans-30" transform="translate(63.623047 0)"/>
      </g>
     </g>
    </g>
    <g id="ytick_4">
     <g id="line2d_47">
      <g>
       <use xlink:href="#m8b1372aae5" x="46.965625" y="152.983711" style="stroke: #000000; stroke-width: 0.8"/>
      </g>
     </g>
     <g id="text_7">
      <!-- 60 -->
      <g transform="translate(27.240625 156.78293) scale(0.1 -0.1)">
       <defs>
        <path id="DejaVuSans-36" d="M 2113 2584 
Q 1688 2584 1439 2293 
Q 1191 2003 1191 1497 
Q 1191 994 1439 701 
Q 1688 409 2113 409 
Q 2538 409 2786 701 
Q 3034 994 3034 1497 
Q 3034 2003 2786 2293 
Q 2538 2584 2113 2584 
z
M 3366 4563 
L 3366 3988 
Q 3128 4100 2886 4159 
Q 2644 4219 2406 4219 
Q 1781 4219 1451 3797 
Q 1122 3375 1075 2522 
Q 1259 2794 1537 2939 
Q 1816 3084 2150 3084 
Q 2853 3084 3261 2657 
Q 3669 2231 3669 1497 
Q 3669 778 3244 343 
Q 2819 -91 2113 -91 
Q 1303 -91 875 529 
Q 447 1150 447 2328 
Q 447 3434 972 4092 
Q 1497 4750 2381 4750 
Q 2619 4750 2861 4703 
Q 3103 4656 3366 4563 
z
" transform="scale(0.015625)"/>
       </defs>
       <use xlink:href="#DejaVuSans-36"/>
       <use xlink:href="#DejaVuSans-30" transform="translate(63.623047 0)"/>
      </g>
     </g>
    </g>
    <g id="ytick_5">
     <g id="line2d_48">
      <g>
       <use xlink:href="#m8b1372aae5" x="46.965625" y="97.97099" style="stroke: #000000; stroke-width: 0.8"/>
      </g>
     </g>
     <g id="text_8">
      <!-- 80 -->
      <g transform="translate(27.240625 101.770209) scale(0.1 -0.1)">
       <defs>
        <path id="DejaVuSans-38" d="M 2034 2216 
Q 1584 2216 1326 1975 
Q 1069 1734 1069 1313 
Q 1069 891 1326 650 
Q 1584 409 2034 409 
Q 2484 409 2743 651 
Q 3003 894 3003 1313 
Q 3003 1734 2745 1975 
Q 2488 2216 2034 2216 
z
M 1403 2484 
Q 997 2584 770 2862 
Q 544 3141 544 3541 
Q 544 4100 942 4425 
Q 1341 4750 2034 4750 
Q 2731 4750 3128 4425 
Q 3525 4100 3525 3541 
Q 3525 3141 3298 2862 
Q 3072 2584 2669 2484 
Q 3125 2378 3379 2068 
Q 3634 1759 3634 1313 
Q 3634 634 3220 271 
Q 2806 -91 2034 -91 
Q 1263 -91 848 271 
Q 434 634 434 1313 
Q 434 1759 690 2068 
Q 947 2378 1403 2484 
z
M 1172 3481 
Q 1172 3119 1398 2916 
Q 1625 2713 2034 2713 
Q 2441 2713 2670 2916 
Q 2900 3119 2900 3481 
Q 2900 3844 2670 4047 
Q 2441 4250 2034 4250 
Q 1625 4250 1398 4047 
Q 1172 3844 1172 3481 
z
" transform="scale(0.015625)"/>
       </defs>
       <use xlink:href="#DejaVuSans-38"/>
       <use xlink:href="#DejaVuSans-30" transform="translate(63.623047 0)"/>
      </g>
     </g>
    </g>
    <g id="ytick_6">
     <g id="line2d_49">
      <g>
       <use xlink:href="#m8b1372aae5" x="46.965625" y="42.958269" style="stroke: #000000; stroke-width: 0.8"/>
      </g>
     </g>
     <g id="text_9">
      <!-- 100 -->
      <g transform="translate(20.878125 46.757488) scale(0.1 -0.1)">
       <use xlink:href="#DejaVuSans-31"/>
       <use xlink:href="#DejaVuSans-30" transform="translate(63.623047 0)"/>
       <use xlink:href="#DejaVuSans-30" transform="translate(127.246094 0)"/>
      </g>
     </g>
    </g>
    <g id="text_10">
     <!-- time ago (generations) -->
     <g transform="translate(14.798438 220.082031) rotate(-90) scale(0.1 -0.1)">
      <defs>
       <path id="DejaVuSans-74" d="M 1172 4494 
L 1172 3500 
L 2356 3500 
L 2356 3053 
L 1172 3053 
L 1172 1153 
Q 1172 725 1289 603 
Q 1406 481 1766 481 
L 2356 481 
L 2356 0 
L 1766 0 
Q 1100 0 847 248 
Q 594 497 594 1153 
L 594 3053 
L 172 3053 
L 172 3500 
L 594 3500 
L 594 4494 
L 1172 4494 
z
" transform="scale(0.015625)"/>
       <path id="DejaVuSans-69" d="M 603 3500 
L 1178 3500 
L 1178 0 
L 603 0 
L 603 3500 
z
M 603 4863 
L 1178 4863 
L 1178 4134 
L 603 4134 
L 603 4863 
z
" transform="scale(0.015625)"/>
       <path id="DejaVuSans-6d" d="M 3328 2828 
Q 3544 3216 3844 3400 
Q 4144 3584 4550 3584 
Q 5097 3584 5394 3201 
Q 5691 2819 5691 2113 
L 5691 0 
L 5113 0 
L 5113 2094 
Q 5113 2597 4934 2840 
Q 4756 3084 4391 3084 
Q 3944 3084 3684 2787 
Q 3425 2491 3425 1978 
L 3425 0 
L 2847 0 
L 2847 2094 
Q 2847 2600 2669 2842 
Q 2491 3084 2119 3084 
Q 1678 3084 1418 2786 
Q 1159 2488 1159 1978 
L 1159 0 
L 581 0 
L 581 3500 
L 1159 3500 
L 1159 2956 
Q 1356 3278 1631 3431 
Q 1906 3584 2284 3584 
Q 2666 3584 2933 3390 
Q 3200 3197 3328 2828 
z
" transform="scale(0.015625)"/>
       <path id="DejaVuSans-65" d="M 3597 1894 
L 3597 1613 
L 953 1613 
Q 991 1019 1311 708 
Q 1631 397 2203 397 
Q 2534 397 2845 478 
Q 3156 559 3463 722 
L 3463 178 
Q 3153 47 2828 -22 
Q 2503 -91 2169 -91 
Q 1331 -91 842 396 
Q 353 884 353 1716 
Q 353 2575 817 3079 
Q 1281 3584 2069 3584 
Q 2775 3584 3186 3129 
Q 3597 2675 3597 1894 
z
M 3022 2063 
Q 3016 2534 2758 2815 
Q 2500 3097 2075 3097 
Q 1594 3097 1305 2825 
Q 1016 2553 972 2059 
L 3022 2063 
z
" transform="scale(0.015625)"/>
       <path id="DejaVuSans-20" transform="scale(0.015625)"/>
       <path id="DejaVuSans-61" d="M 2194 1759 
Q 1497 1759 1228 1600 
Q 959 1441 959 1056 
Q 959 750 1161 570 
Q 1363 391 1709 391 
Q 2188 391 2477 730 
Q 2766 1069 2766 1631 
L 2766 1759 
L 2194 1759 
z
M 3341 1997 
L 3341 0 
L 2766 0 
L 2766 531 
Q 2569 213 2275 61 
Q 1981 -91 1556 -91 
Q 1019 -91 701 211 
Q 384 513 384 1019 
Q 384 1609 779 1909 
Q 1175 2209 1959 2209 
L 2766 2209 
L 2766 2266 
Q 2766 2663 2505 2880 
Q 2244 3097 1772 3097 
Q 1472 3097 1187 3025 
Q 903 2953 641 2809 
L 641 3341 
Q 956 3463 1253 3523 
Q 1550 3584 1831 3584 
Q 2591 3584 2966 3190 
Q 3341 2797 3341 1997 
z
" transform="scale(0.015625)"/>
       <path id="DejaVuSans-67" d="M 2906 1791 
Q 2906 2416 2648 2759 
Q 2391 3103 1925 3103 
Q 1463 3103 1205 2759 
Q 947 2416 947 1791 
Q 947 1169 1205 825 
Q 1463 481 1925 481 
Q 2391 481 2648 825 
Q 2906 1169 2906 1791 
z
M 3481 434 
Q 3481 -459 3084 -895 
Q 2688 -1331 1869 -1331 
Q 1566 -1331 1297 -1286 
Q 1028 -1241 775 -1147 
L 775 -588 
Q 1028 -725 1275 -790 
Q 1522 -856 1778 -856 
Q 2344 -856 2625 -561 
Q 2906 -266 2906 331 
L 2906 616 
Q 2728 306 2450 153 
Q 2172 0 1784 0 
Q 1141 0 747 490 
Q 353 981 353 1791 
Q 353 2603 747 3093 
Q 1141 3584 1784 3584 
Q 2172 3584 2450 3431 
Q 2728 3278 2906 2969 
L 2906 3500 
L 3481 3500 
L 3481 434 
z
" transform="scale(0.015625)"/>
       <path id="DejaVuSans-6f" d="M 1959 3097 
Q 1497 3097 1228 2736 
Q 959 2375 959 1747 
Q 959 1119 1226 758 
Q 1494 397 1959 397 
Q 2419 397 2687 759 
Q 2956 1122 2956 1747 
Q 2956 2369 2687 2733 
Q 2419 3097 1959 3097 
z
M 1959 3584 
Q 2709 3584 3137 3096 
Q 3566 2609 3566 1747 
Q 3566 888 3137 398 
Q 2709 -91 1959 -91 
Q 1206 -91 779 398 
Q 353 888 353 1747 
Q 353 2609 779 3096 
Q 1206 3584 1959 3584 
z
" transform="scale(0.015625)"/>
       <path id="DejaVuSans-28" d="M 1984 4856 
Q 1566 4138 1362 3434 
Q 1159 2731 1159 2009 
Q 1159 1288 1364 580 
Q 1569 -128 1984 -844 
L 1484 -844 
Q 1016 -109 783 600 
Q 550 1309 550 2009 
Q 550 2706 781 3412 
Q 1013 4119 1484 4856 
L 1984 4856 
z
" transform="scale(0.015625)"/>
       <path id="DejaVuSans-6e" d="M 3513 2113 
L 3513 0 
L 2938 0 
L 2938 2094 
Q 2938 2591 2744 2837 
Q 2550 3084 2163 3084 
Q 1697 3084 1428 2787 
Q 1159 2491 1159 1978 
L 1159 0 
L 581 0 
L 581 3500 
L 1159 3500 
L 1159 2956 
Q 1366 3272 1645 3428 
Q 1925 3584 2291 3584 
Q 2894 3584 3203 3211 
Q 3513 2838 3513 2113 
z
" transform="scale(0.015625)"/>
       <path id="DejaVuSans-72" d="M 2631 2963 
Q 2534 3019 2420 3045 
Q 2306 3072 2169 3072 
Q 1681 3072 1420 2755 
Q 1159 2438 1159 1844 
L 1159 0 
L 581 0 
L 581 3500 
L 1159 3500 
L 1159 2956 
Q 1341 3275 1631 3429 
Q 1922 3584 2338 3584 
Q 2397 3584 2469 3576 
Q 2541 3569 2628 3553 
L 2631 2963 
z
" transform="scale(0.015625)"/>
       <path id="DejaVuSans-73" d="M 2834 3397 
L 2834 2853 
Q 2591 2978 2328 3040 
Q 2066 3103 1784 3103 
Q 1356 3103 1142 2972 
Q 928 2841 928 2578 
Q 928 2378 1081 2264 
Q 1234 2150 1697 2047 
L 1894 2003 
Q 2506 1872 2764 1633 
Q 3022 1394 3022 966 
Q 3022 478 2636 193 
Q 2250 -91 1575 -91 
Q 1294 -91 989 -36 
Q 684 19 347 128 
L 347 722 
Q 666 556 975 473 
Q 1284 391 1588 391 
Q 1994 391 2212 530 
Q 2431 669 2431 922 
Q 2431 1156 2273 1281 
Q 2116 1406 1581 1522 
L 1381 1569 
Q 847 1681 609 1914 
Q 372 2147 372 2553 
Q 372 3047 722 3315 
Q 1072 3584 1716 3584 
Q 2034 3584 2315 3537 
Q 2597 3491 2834 3397 
z
" transform="scale(0.015625)"/>
       <path id="DejaVuSans-29" d="M 513 4856 
L 1013 4856 
Q 1481 4119 1714 3412 
Q 1947 2706 1947 2009 
Q 1947 1309 1714 600 
Q 1481 -109 1013 -844 
L 513 -844 
Q 928 -128 1133 580 
Q 1338 1288 1338 2009 
Q 1338 2731 1133 3434 
Q 928 4138 513 4856 
z
" transform="scale(0.015625)"/>
      </defs>
      <use xlink:href="#DejaVuSans-74"/>
      <use xlink:href="#DejaVuSans-69" transform="translate(39.208984 0)"/>
      <use xlink:href="#DejaVuSans-6d" transform="translate(66.992188 0)"/>
      <use xlink:href="#DejaVuSans-65" transform="translate(164.404297 0)"/>
      <use xlink:href="#DejaVuSans-20" transform="translate(225.927734 0)"/>
      <use xlink:href="#DejaVuSans-61" transform="translate(257.714844 0)"/>
      <use xlink:href="#DejaVuSans-67" transform="translate(318.994141 0)"/>
      <use xlink:href="#DejaVuSans-6f" transform="translate(382.470703 0)"/>
      <use xlink:href="#DejaVuSans-20" transform="translate(443.652344 0)"/>
      <use xlink:href="#DejaVuSans-28" transform="translate(475.439453 0)"/>
      <use xlink:href="#DejaVuSans-67" transform="translate(514.453125 0)"/>
      <use xlink:href="#DejaVuSans-65" transform="translate(577.929688 0)"/>
      <use xlink:href="#DejaVuSans-6e" transform="translate(639.453125 0)"/>
      <use xlink:href="#DejaVuSans-65" transform="translate(702.832031 0)"/>
      <use xlink:href="#DejaVuSans-72" transform="translate(764.355469 0)"/>
      <use xlink:href="#DejaVuSans-61" transform="translate(805.46875 0)"/>
      <use xlink:href="#DejaVuSans-74" transform="translate(866.748047 0)"/>
      <use xlink:href="#DejaVuSans-69" transform="translate(905.957031 0)"/>
      <use xlink:href="#DejaVuSans-6f" transform="translate(933.740234 0)"/>
      <use xlink:href="#DejaVuSans-6e" transform="translate(994.921875 0)"/>
      <use xlink:href="#DejaVuSans-73" transform="translate(1058.300781 0)"/>
      <use xlink:href="#DejaVuSans-29" transform="translate(1110.400391 0)"/>
     </g>
    </g>
   </g>
   <g id="line2d_50">
    <path d="M 257.619695 137.83478 
L 255.619695 136.83478 
L 255.619695 138.83478 
z
" clip-path="url(#p82d13b3951)" style="fill: #1f77b4; fill-opacity: 0.5; stroke: #1f77b4; stroke-opacity: 0.5; stroke-linejoin: miter"/>
   </g>
   <g id="line2d_51">
    <path d="M 257.619695 13.073552 
L 255.619695 12.073552 
L 255.619695 14.073552 
z
" clip-path="url(#p82d13b3951)" style="fill: #1f77b4; fill-opacity: 0.5; stroke: #1f77b4; stroke-opacity: 0.5; stroke-linejoin: miter"/>
   </g>
   <g id="line2d_52">
    <path d="M 257.619695 150.602354 
L 255.619695 149.602354 
L 255.619695 151.602354 
z
" clip-path="url(#p82d13b3951)" style="fill: #1f77b4; fill-opacity: 0.5; stroke: #1f77b4; stroke-opacity: 0.5; stroke-linejoin: miter"/>
   </g>
   <g id="line2d_53">
    <path d="M 257.619695 156.948556 
L 255.619695 155.948556 
L 255.619695 157.948556 
z
" clip-path="url(#p82d13b3951)" style="fill: #1f77b4; fill-opacity: 0.5; stroke: #1f77b4; stroke-opacity: 0.5; stroke-linejoin: miter"/>
   </g>
   <g id="line2d_54">
    <path d="M 257.619695 101.086213 
L 255.619695 100.086213 
L 255.619695 102.086213 
z
" clip-path="url(#p82d13b3951)" style="fill: #1f77b4; fill-opacity: 0.5; stroke: #1f77b4; stroke-opacity: 0.5; stroke-linejoin: miter"/>
   </g>
   <g id="line2d_55">
    <path d="M 257.619695 195.769645 
L 255.619695 194.769645 
L 255.619695 196.769645 
z
" clip-path="url(#p82d13b3951)" style="fill: #1f77b4; fill-opacity: 0.5; stroke: #1f77b4; stroke-opacity: 0.5; stroke-linejoin: miter"/>
   </g>
   <g id="line2d_56">
    <path d="M 257.619695 66.651763 
L 255.619695 65.651763 
L 255.619695 67.651763 
z
" clip-path="url(#p82d13b3951)" style="fill: #1f77b4; fill-opacity: 0.5; stroke: #1f77b4; stroke-opacity: 0.5; stroke-linejoin: miter"/>
   </g>
   <g id="line2d_57">
    <path d="M 257.619695 163.746948 
L 255.619695 162.746948 
L 255.619695 164.746948 
z
" clip-path="url(#p82d13b3951)" style="fill: #1f77b4; fill-opacity: 0.5; stroke: #1f77b4; stroke-opacity: 0.5; stroke-linejoin: miter"/>
   </g>
   <g id="line2d_58">
    <path d="M 257.619695 36.533535 
L 255.619695 35.533535 
L 255.619695 37.533535 
z
" clip-path="url(#p82d13b3951)" style="fill: #1f77b4; fill-opacity: 0.5; stroke: #1f77b4; stroke-opacity: 0.5; stroke-linejoin: miter"/>
   </g>
   <g id="line2d_59">
    <path d="M 257.619695 279.230207 
L 255.619695 278.230207 
L 255.619695 280.230207 
z
" clip-path="url(#p82d13b3951)" style="fill: #1f77b4; fill-opacity: 0.5; stroke: #1f77b4; stroke-opacity: 0.5; stroke-linejoin: miter"/>
   </g>
   <g id="line2d_60">
    <path d="M 199.299443 225.756785 
L 201.299443 226.756785 
L 201.299443 224.756785 
z
" clip-path="url(#p82d13b3951)" style="fill: #ff7f0e; fill-opacity: 0.5; stroke: #ff7f0e; stroke-opacity: 0.5; stroke-linejoin: miter"/>
   </g>
   <g id="line2d_61">
    <path d="M 199.299443 119.611691 
L 201.299443 120.611691 
L 201.299443 118.611691 
z
" clip-path="url(#p82d13b3951)" style="fill: #ff7f0e; fill-opacity: 0.5; stroke: #ff7f0e; stroke-opacity: 0.5; stroke-linejoin: miter"/>
   </g>
   <g id="line2d_62">
    <path d="M 199.299443 131.768754 
L 201.299443 132.768754 
L 201.299443 130.768754 
z
" clip-path="url(#p82d13b3951)" style="fill: #ff7f0e; fill-opacity: 0.5; stroke: #ff7f0e; stroke-opacity: 0.5; stroke-linejoin: miter"/>
   </g>
   <g id="line2d_63">
    <path d="M 199.299443 238.805291 
L 201.299443 239.805291 
L 201.299443 237.805291 
z
" clip-path="url(#p82d13b3951)" style="fill: #ff7f0e; fill-opacity: 0.5; stroke: #ff7f0e; stroke-opacity: 0.5; stroke-linejoin: miter"/>
   </g>
   <g id="line2d_64">
    <path d="M 199.299443 83.064489 
L 201.299443 84.064489 
L 201.299443 82.064489 
z
" clip-path="url(#p82d13b3951)" style="fill: #ff7f0e; fill-opacity: 0.5; stroke: #ff7f0e; stroke-opacity: 0.5; stroke-linejoin: miter"/>
   </g>
   <g id="line2d_65">
    <path d="M 199.299443 21.112763 
L 201.299443 22.112763 
L 201.299443 20.112763 
z
" clip-path="url(#p82d13b3951)" style="fill: #ff7f0e; fill-opacity: 0.5; stroke: #ff7f0e; stroke-opacity: 0.5; stroke-linejoin: miter"/>
   </g>
   <g id="line2d_66">
    <path d="M 199.299443 215.059419 
L 201.299443 216.059419 
L 201.299443 214.059419 
z
" clip-path="url(#p82d13b3951)" style="fill: #ff7f0e; fill-opacity: 0.5; stroke: #ff7f0e; stroke-opacity: 0.5; stroke-linejoin: miter"/>
   </g>
   <g id="line2d_67">
    <path d="M 199.299443 161.645506 
L 201.299443 162.645506 
L 201.299443 160.645506 
z
" clip-path="url(#p82d13b3951)" style="fill: #ff7f0e; fill-opacity: 0.5; stroke: #ff7f0e; stroke-opacity: 0.5; stroke-linejoin: miter"/>
   </g>
   <g id="line2d_68">
    <path d="M 199.299443 255.477754 
L 201.299443 256.477754 
L 201.299443 254.477754 
z
" clip-path="url(#p82d13b3951)" style="fill: #ff7f0e; fill-opacity: 0.5; stroke: #ff7f0e; stroke-opacity: 0.5; stroke-linejoin: miter"/>
   </g>
   <g id="line2d_69">
    <path d="M 199.299443 125.588307 
L 201.299443 126.588307 
L 201.299443 124.588307 
z
" clip-path="url(#p82d13b3951)" style="fill: #ff7f0e; fill-opacity: 0.5; stroke: #ff7f0e; stroke-opacity: 0.5; stroke-linejoin: miter"/>
   </g>
   <g id="line2d_70">
    <path d="M 447.666182 104.059938 
L 445.666182 103.059938 
L 445.666182 105.059938 
z
" clip-path="url(#p82d13b3951)" style="fill: #ff7f0e; fill-opacity: 0.5; stroke: #ff7f0e; stroke-opacity: 0.5; stroke-linejoin: miter"/>
   </g>
   <g id="line2d_71">
    <path d="M 447.666182 203.331986 
L 445.666182 202.331986 
L 445.666182 204.331986 
z
" clip-path="url(#p82d13b3951)" style="fill: #ff7f0e; fill-opacity: 0.5; stroke: #ff7f0e; stroke-opacity: 0.5; stroke-linejoin: miter"/>
   </g>
   <g id="line2d_72">
    <path d="M 447.666182 288.80438 
L 445.666182 287.80438 
L 445.666182 289.80438 
z
" clip-path="url(#p82d13b3951)" style="fill: #ff7f0e; fill-opacity: 0.5; stroke: #ff7f0e; stroke-opacity: 0.5; stroke-linejoin: miter"/>
   </g>
   <g id="line2d_73">
    <path d="M 447.666182 36.675422 
L 445.666182 35.675422 
L 445.666182 37.675422 
z
" clip-path="url(#p82d13b3951)" style="fill: #ff7f0e; fill-opacity: 0.5; stroke: #ff7f0e; stroke-opacity: 0.5; stroke-linejoin: miter"/>
   </g>
   <g id="line2d_74">
    <path d="M 447.666182 77.546746 
L 445.666182 76.546746 
L 445.666182 78.546746 
z
" clip-path="url(#p82d13b3951)" style="fill: #ff7f0e; fill-opacity: 0.5; stroke: #ff7f0e; stroke-opacity: 0.5; stroke-linejoin: miter"/>
   </g>
   <g id="line2d_75">
    <path d="M 447.666182 45.291197 
L 445.666182 44.291197 
L 445.666182 46.291197 
z
" clip-path="url(#p82d13b3951)" style="fill: #ff7f0e; fill-opacity: 0.5; stroke: #ff7f0e; stroke-opacity: 0.5; stroke-linejoin: miter"/>
   </g>
   <g id="line2d_76">
    <path d="M 447.666182 193.846022 
L 445.666182 192.846022 
L 445.666182 194.846022 
z
" clip-path="url(#p82d13b3951)" style="fill: #ff7f0e; fill-opacity: 0.5; stroke: #ff7f0e; stroke-opacity: 0.5; stroke-linejoin: miter"/>
   </g>
   <g id="line2d_77">
    <path d="M 447.666182 249.939872 
L 445.666182 248.939872 
L 445.666182 250.939872 
z
" clip-path="url(#p82d13b3951)" style="fill: #ff7f0e; fill-opacity: 0.5; stroke: #ff7f0e; stroke-opacity: 0.5; stroke-linejoin: miter"/>
   </g>
   <g id="line2d_78">
    <path d="M 447.666182 163.508535 
L 445.666182 162.508535 
L 445.666182 164.508535 
z
" clip-path="url(#p82d13b3951)" style="fill: #ff7f0e; fill-opacity: 0.5; stroke: #ff7f0e; stroke-opacity: 0.5; stroke-linejoin: miter"/>
   </g>
   <g id="line2d_79">
    <path d="M 447.666182 206.1049 
L 445.666182 205.1049 
L 445.666182 207.1049 
z
" clip-path="url(#p82d13b3951)" style="fill: #ff7f0e; fill-opacity: 0.5; stroke: #ff7f0e; stroke-opacity: 0.5; stroke-linejoin: miter"/>
   </g>
   <g id="line2d_80">
    <path d="M 389.34593 231.691669 
L 391.34593 232.691669 
L 391.34593 230.691669 
z
" clip-path="url(#p82d13b3951)" style="fill: #2ca02c; fill-opacity: 0.5; stroke: #2ca02c; stroke-opacity: 0.5; stroke-linejoin: miter"/>
   </g>
   <g id="line2d_81">
    <path d="M 389.34593 251.138699 
L 391.34593 252.138699 
L 391.34593 250.138699 
z
" clip-path="url(#p82d13b3951)" style="fill: #2ca02c; fill-opacity: 0.5; stroke: #2ca02c; stroke-opacity: 0.5; stroke-linejoin: miter"/>
   </g>
   <g id="line2d_82">
    <path d="M 389.34593 246.043187 
L 391.34593 247.043187 
L 391.34593 245.043187 
z
" clip-path="url(#p82d13b3951)" style="fill: #2ca02c; fill-opacity: 0.5; stroke: #2ca02c; stroke-opacity: 0.5; stroke-linejoin: miter"/>
   </g>
   <g id="line2d_83">
    <path d="M 389.34593 250.203555 
L 391.34593 251.203555 
L 391.34593 249.203555 
z
" clip-path="url(#p82d13b3951)" style="fill: #2ca02c; fill-opacity: 0.5; stroke: #2ca02c; stroke-opacity: 0.5; stroke-linejoin: miter"/>
   </g>
   <g id="line2d_84">
    <path d="M 389.34593 305.824473 
L 391.34593 306.824473 
L 391.34593 304.824473 
z
" clip-path="url(#p82d13b3951)" style="fill: #2ca02c; fill-opacity: 0.5; stroke: #2ca02c; stroke-opacity: 0.5; stroke-linejoin: miter"/>
   </g>
   <g id="line2d_85">
    <path d="M 389.34593 15.332224 
L 391.34593 16.332224 
L 391.34593 14.332224 
z
" clip-path="url(#p82d13b3951)" style="fill: #2ca02c; fill-opacity: 0.5; stroke: #2ca02c; stroke-opacity: 0.5; stroke-linejoin: miter"/>
   </g>
   <g id="line2d_86">
    <path d="M 389.34593 175.286482 
L 391.34593 176.286482 
L 391.34593 174.286482 
z
" clip-path="url(#p82d13b3951)" style="fill: #2ca02c; fill-opacity: 0.5; stroke: #2ca02c; stroke-opacity: 0.5; stroke-linejoin: miter"/>
   </g>
   <g id="line2d_87">
    <path d="M 389.34593 70.339589 
L 391.34593 71.339589 
L 391.34593 69.339589 
z
" clip-path="url(#p82d13b3951)" style="fill: #2ca02c; fill-opacity: 0.5; stroke: #2ca02c; stroke-opacity: 0.5; stroke-linejoin: miter"/>
   </g>
   <g id="line2d_88">
    <path d="M 389.34593 51.473616 
L 391.34593 52.473616 
L 391.34593 50.473616 
z
" clip-path="url(#p82d13b3951)" style="fill: #2ca02c; fill-opacity: 0.5; stroke: #2ca02c; stroke-opacity: 0.5; stroke-linejoin: miter"/>
   </g>
   <g id="line2d_89">
    <path d="M 389.34593 274.982311 
L 391.34593 275.982311 
L 391.34593 273.982311 
z
" clip-path="url(#p82d13b3951)" style="fill: #2ca02c; fill-opacity: 0.5; stroke: #2ca02c; stroke-opacity: 0.5; stroke-linejoin: miter"/>
   </g>
   <g id="patch_6">
    <path d="M 46.965625 318.021875 
L 46.965625 7.2 
" style="fill: none; stroke: #000000; stroke-width: 0.8; stroke-linejoin: miter; stroke-linecap: square"/>
   </g>
  </g>
 </g>
 <defs>
  <clipPath id="p82d13b3951">
   <rect x="46.965625" y="7.2" width="553.034375" height="310.821875"/>
  </clipPath>
 </defs>
</svg>