<?xml version="1.0" encoding="utf-8" standalone="no"?>
<!DOCTYPE svg PUBLIC "-//W3C//DTD SVG 1.1//EN"
  "http://www.w3.org/Graphics/SVG/1.1/DTD/svg11.dtd">
<svg xmlns:xlink="http://www.w3.org/1999/xlink" width="607.2pt" height="338.4pt" viewBox="0 0 607.2 338.4" xmlns="http://www.w3.org/2000/svg" version="1.1">
 <metadata>
  <rdf:RDF xmlns:dc="http://purl.org/dc/elements/1.1/" xmlns:cc="http://creativecommons.org/ns#" xmlns:rdf="http://www.w3.org/1999/02/22-rdf-syntax-ns#">
   <cc:Work>
    <dc:type rdf:resource="http://purl.org/dc/dcmitype/StillImage"/>
    <dc:date>2025-12-15T08:10:25.696351</dc:date>
    <dc:format>image/svg+xml</dc:format>
    <dc:creator>
     <cc:Agent>
      <dc:title>Matplotlib v3.10.7, https://matplotlib.org/</dc:title>
     </cc:Agent>
    </dc:creator>
   </cc:Work>
  </rdf:RDF>
 </metadata>
 <defs>
  <style type="text/css">*{stroke-linejoin: round; stroke-linecap: butt}</style>
 </defs>
 <g id="figure_1">
  <g id="patch_1">
   <path d="M 0 338.4 
L 607.2 338.4 
L 607.2 0 
L 0 0 
z
" style="fill: #ffffff"/>
  </g>
  <g id="axes_1">
   <g id="patch_2">
    <path d="M 43.78125 318.021875 
L 600 318.021875 
L 600 22.318125 
L 43.78125 22.318125 
z
" style="fill: #ffffff"/>
   </g>
   <g id="line2d_1">
    <path d="M 290.098299 111.56467 
L 291.098299 111.596106 
L 292.098299 111.633046 
L 293.098299 111.730793 
L 294.098299 111.763315 
L 295.098299 111.836939 
L 296.098299 111.875505 
L 297.098299 111.910918 
L 298.098299 111.968558 
L 299.098299 112.038944 
L 300.098299 112.090908 
L 301.098299 112.149998 
L 302.098299 112.238319 
L 303.098299 112.284463 
L 304.098299 112.326874 
L 305.098299 112.357367 
L 306.098299 112.383412 
L 307.098299 112.404612 
L 308.098299 112.458913 
L 309.098299 112.486851 
L 310.098299 112.516575 
L 311.098299 112.541969 
L 312.098299 112.55317 
L 313.098299 112.563294 
L 314.098299 112.563089 
L 315.098299 112.55358 
L 316.098299 112.541926 
L 317.098299 112.510897 
L 318.098299 112.499729 
L 319.098299 112.469611 
L 320.098299 112.409834 
L 321.098299 112.372643 
L 322.098299 112.333547 
L 323.098299 112.291107 
L 324.098299 112.258342 
L 325.098299 112.190916 
L 326.098299 112.15179 
L 327.098299 112.109115 
L 328.098299 112.038534 
L 329.098299 112.002144 
L 330.098299 111.94374 
L 331.098299 111.832788 
L 332.098299 111.76213 
L 333.098299 111.64919 
L 334.098299 111.603417 
L 335.098299 111.542134 
L 336.098299 111.493634 
L 337.098299 111.412812 
L 338.098299 111.294293 
L 339.098299 111.224082 
L 340.098299 111.14082 
L 341.098299 111.107678 
L 342.098299 111.05644 
L 343.098299 110.988042 
L 344.098299 110.921827 
L 345.098299 110.84491 
L 346.098299 110.817594 
L 347.098299 110.791117 
L 348.098299 110.768466 
L 349.098299 110.748935 
L 350.098299 110.722541 
L 351.098299 110.67277 
L 352.098299 110.637697 
L 353.682951 110.601831 
" clip-path="url(#pade395e203)" style="fill: none; stroke: #1f77b4; stroke-opacity: 0.5; stroke-width: 0.2; stroke-linecap: square"/>
   </g>
   <g id="line2d_2">
    <path d="M 290.098299 193.270233 
L 291.098299 193.301669 
L 292.098299 193.33861 
L 293.098299 193.436356 
L 294.098299 193.468878 
L 295.098299 193.542503 
L 296.098299 193.581068 
L 297.098299 193.616481 
L 298.098299 193.674121 
L 299.098299 193.744507 
L 300.098299 193.796472 
L 301.098299 193.855561 
L 302.098299 193.943882 
L 303.098299 193.990027 
L 304.098299 194.032438 
L 305.098299 194.06293 
L 306.098299 194.088975 
L 307.098299 194.110175 
L 308.098299 194.164476 
L 309.098299 194.192414 
L 310.098299 194.222138 
L 311.098299 194.247533 
L 312.098299 194.258733 
L 313.098299 194.268857 
L 314.098299 194.268653 
L 315.098299 194.259143 
L 316.098299 194.247489 
L 317.098299 194.21646 
L 318.098299 194.205292 
L 319.098299 194.175175 
L 320.098299 194.115398 
L 321.098299 194.078206 
L 322.098299 194.03911 
L 323.098299 193.99667 
L 324.098299 193.963905 
L 325.098299 193.896479 
L 326.098299 193.857353 
L 327.098299 193.814678 
L 328.098299 193.744098 
L 329.098299 193.707707 
L 330.098299 193.649304 
L 331.098299 193.538351 
L 332.098299 193.467693 
L 333.098299 193.354753 
L 334.098299 193.30898 
L 335.098299 193.247697 
L 336.098299 193.199198 
L 337.098299 193.118375 
L 338.098299 192.999856 
L 339.098299 192.929645 
L 340.098299 192.846383 
L 341.098299 192.813241 
L 342.098299 192.762004 
L 343.098299 192.693605 
L 344.098299 192.62739 
L 345.098299 192.550473 
L 346.098299 192.523158 
L 347.098299 192.49668 
L 348.098299 192.474029 
L 349.098299 192.454498 
L 350.098299 192.428104 
L 351.098299 192.378333 
L 352.098299 192.34326 
L 353.682951 192.307394 
" clip-path="url(#pade395e203)" style="fill: none; stroke: #1f77b4; stroke-opacity: 0.5; stroke-width: 0.2; stroke-linecap: square"/>
   </g>
   <g id="line2d_3">
    <path d="M 290.098299 194.072123 
L 291.098299 194.103559 
L 292.098299 194.140499 
L 293.098299 194.238246 
L 294.098299 194.270768 
L 295.098299 194.344392 
L 296.098299 194.382958 
L 297.098299 194.418371 
L 298.098299 194.476011 
L 299.098299 194.546397 
L 300.098299 194.598361 
L 301.098299 194.657451 
L 302.098299 194.745772 
L 303.098299 194.791916 
L 304.098299 194.834327 
L 305.098299 194.86482 
L 306.098299 194.890865 
L 307.098299 194.912065 
L 308.098299 194.966366 
L 309.098299 194.994304 
L 310.098299 195.024028 
L 311.098299 195.049422 
L 312.098299 195.060623 
L 313.098299 195.070747 
L 314.098299 195.070542 
L 315.098299 195.061033 
L 316.098299 195.049379 
L 317.098299 195.01835 
L 318.098299 195.007182 
L 319.098299 194.977064 
L 320.098299 194.917287 
L 321.098299 194.880096 
L 322.098299 194.841 
L 323.098299 194.79856 
L 324.098299 194.765795 
L 325.098299 194.698369 
L 326.098299 194.659243 
L 327.098299 194.616568 
L 328.098299 194.545988 
L 329.098299 194.509597 
L 330.098299 194.451193 
L 331.098299 194.340241 
L 332.098299 194.269583 
L 333.098299 194.156643 
L 334.098299 194.11087 
L 335.098299 194.049587 
L 336.098299 194.001087 
L 337.098299 193.920265 
L 338.098299 193.801746 
L 339.098299 193.731535 
L 340.098299 193.648273 
L 341.098299 193.615131 
L 342.098299 193.563894 
L 343.098299 193.495495 
L 344.098299 193.42928 
L 345.098299 193.352363 
L 346.098299 193.325047 
L 347.098299 193.29857 
L 348.098299 193.275919 
L 349.098299 193.256388 
L 350.098299 193.229994 
L 351.098299 193.180223 
L 352.098299 193.14515 
L 353.682951 193.109284 
" clip-path="url(#pade395e203)" style="fill: none; stroke: #1f77b4; stroke-opacity: 0.5; stroke-width: 0.2; stroke-linecap: square"/>
   </g>
   <g id="line2d_4">
    <path d="M 290.098299 182.573986 
L 291.098299 182.605423 
L 292.098299 182.642363 
L 293.098299 182.740109 
L 294.098299 182.772631 
L 295.098299 182.846256 
L 296.098299 182.884821 
L 297.098299 182.920234 
L 298.098299 182.977874 
L 299.098299 183.048261 
L 300.098299 183.100225 
L 301.098299 183.159315 
L 302.098299 183.247636 
L 303.098299 183.29378 
L 304.098299 183.336191 
L 305.098299 183.366683 
L 306.098299 183.392728 
L 307.098299 183.413929 
L 308.098299 183.46823 
L 309.098299 183.496167 
L 310.098299 183.525891 
L 311.098299 183.551286 
L 312.098299 183.562486 
L 313.098299 183.57261 
L 314.098299 183.572406 
L 315.098299 183.562896 
L 316.098299 183.551243 
L 317.098299 183.520213 
L 318.098299 183.509045 
L 319.098299 183.478928 
L 320.098299 183.419151 
L 321.098299 183.381959 
L 322.098299 183.342863 
L 323.098299 183.300424 
L 324.098299 183.267658 
L 325.098299 183.200232 
L 326.098299 183.161106 
L 327.098299 183.118432 
L 328.098299 183.047851 
L 329.098299 183.01146 
L 330.098299 182.953057 
L 331.098299 182.842104 
L 332.098299 182.771446 
L 333.098299 182.658506 
L 334.098299 182.612733 
L 335.098299 182.55145 
L 336.098299 182.502951 
L 337.098299 182.422128 
L 338.098299 182.303609 
L 339.098299 182.233399 
L 340.098299 182.150136 
L 341.098299 182.116994 
L 342.098299 182.065757 
L 343.098299 181.997359 
L 344.098299 181.931143 
L 345.098299 181.854226 
L 346.098299 181.826911 
L 347.098299 181.800433 
L 348.098299 181.777782 
L 349.098299 181.758251 
L 350.098299 181.731857 
L 351.098299 181.682086 
L 352.098299 181.647013 
L 353.682951 181.611148 
" clip-path="url(#pade395e203)" style="fill: none; stroke: #1f77b4; stroke-opacity: 0.5; stroke-width: 0.2; stroke-linecap: square"/>
   </g>
   <g id="line2d_5">
    <path d="M 290.098299 117.446347 
L 291.098299 117.477783 
L 292.098299 117.514723 
L 293.098299 117.61247 
L 294.098299 117.644992 
L 295.098299 117.718616 
L 296.098299 117.757182 
L 297.098299 117.792595 
L 298.098299 117.850235 
L 299.098299 117.920621 
L 300.098299 117.972585 
L 301.098299 118.031675 
L 302.098299 118.119996 
L 303.098299 118.16614 
L 304.098299 118.208551 
L 305.098299 118.239044 
L 306.098299 118.265089 
L 307.098299 118.286289 
L 308.098299 118.34059 
L 309.098299 118.368528 
L 310.098299 118.398252 
L 311.098299 118.423646 
L 312.098299 118.434847 
L 313.098299 118.444971 
L 314.098299 118.444767 
L 315.098299 118.435257 
L 316.098299 118.423603 
L 317.098299 118.392574 
L 318.098299 118.381406 
L 319.098299 118.351288 
L 320.098299 118.291511 
L 321.098299 118.25432 
L 322.098299 118.215224 
L 323.098299 118.172784 
L 324.098299 118.140019 
L 325.098299 118.072593 
L 326.098299 118.033467 
L 327.098299 117.990792 
L 328.098299 117.920212 
L 329.098299 117.883821 
L 330.098299 117.825418 
L 331.098299 117.714465 
L 332.098299 117.643807 
L 333.098299 117.530867 
L 334.098299 117.485094 
L 335.098299 117.423811 
L 336.098299 117.375311 
L 337.098299 117.294489 
L 338.098299 117.17597 
L 339.098299 117.105759 
L 340.098299 117.022497 
L 341.098299 116.989355 
L 342.098299 116.938118 
L 343.098299 116.869719 
L 344.098299 116.803504 
L 345.098299 116.726587 
L 346.098299 116.699271 
L 347.098299 116.672794 
L 348.098299 116.650143 
L 349.098299 116.630612 
L 350.098299 116.604218 
L 351.098299 116.554447 
L 352.098299 116.519374 
L 353.682951 116.483508 
" clip-path="url(#pade395e203)" style="fill: none; stroke: #1f77b4; stroke-opacity: 0.5; stroke-width: 0.2; stroke-linecap: square"/>
   </g>
   <g id="line2d_6">
    <path d="M 290.098299 110.574893 
L 291.098299 110.60633 
L 292.098299 110.64327 
L 293.098299 110.741016 
L 294.098299 110.773538 
L 295.098299 110.847163 
L 296.098299 110.885728 
L 297.098299 110.921142 
L 298.098299 110.978781 
L 299.098299 111.049168 
L 300.098299 111.101132 
L 301.098299 111.160222 
L 302.098299 111.248543 
L 303.098299 111.294687 
L 304.098299 111.337098 
L 305.098299 111.367591 
L 306.098299 111.393635 
L 307.098299 111.414836 
L 308.098299 111.469137 
L 309.098299 111.497074 
L 310.098299 111.526798 
L 311.098299 111.552193 
L 312.098299 111.563393 
L 313.098299 111.573517 
L 314.098299 111.573313 
L 315.098299 111.563803 
L 316.098299 111.55215 
L 317.098299 111.52112 
L 318.098299 111.509952 
L 319.098299 111.479835 
L 320.098299 111.420058 
L 321.098299 111.382866 
L 322.098299 111.34377 
L 323.098299 111.301331 
L 324.098299 111.268566 
L 325.098299 111.201139 
L 326.098299 111.162013 
L 327.098299 111.119339 
L 328.098299 111.048758 
L 329.098299 111.012367 
L 330.098299 110.953964 
L 331.098299 110.843011 
L 332.098299 110.772353 
L 333.098299 110.659413 
L 334.098299 110.61364 
L 335.098299 110.552357 
L 336.098299 110.503858 
L 337.098299 110.423035 
L 338.098299 110.304516 
L 339.098299 110.234306 
L 340.098299 110.151043 
L 341.098299 110.117901 
L 342.098299 110.066664 
L 343.098299 109.998266 
L 344.098299 109.93205 
L 345.098299 109.855133 
L 346.098299 109.827818 
L 347.098299 109.80134 
L 348.098299 109.77869 
L 349.098299 109.759158 
L 350.098299 109.732764 
L 351.098299 109.682993 
L 352.098299 109.64792 
L 353.682951 109.612055 
" clip-path="url(#pade395e203)" style="fill: none; stroke: #1f77b4; stroke-opacity: 0.5; stroke-width: 0.2; stroke-linecap: square"/>
   </g>
   <g id="line2d_7">
    <path d="M 290.098299 185.118411 
L 291.098299 185.149847 
L 292.098299 185.186788 
L 293.098299 185.284534 
L 294.098299 185.317056 
L 295.098299 185.39068 
L 296.098299 185.429246 
L 297.098299 185.464659 
L 298.098299 185.522299 
L 299.098299 185.592685 
L 300.098299 185.644649 
L 301.098299 185.703739 
L 302.098299 185.79206 
L 303.098299 185.838204 
L 304.098299 185.880615 
L 305.098299 185.911108 
L 306.098299 185.937153 
L 307.098299 185.958353 
L 308.098299 186.012654 
L 309.098299 186.040592 
L 310.098299 186.070316 
L 311.098299 186.095711 
L 312.098299 186.106911 
L 313.098299 186.117035 
L 314.098299 186.116831 
L 315.098299 186.107321 
L 316.098299 186.095667 
L 317.098299 186.064638 
L 318.098299 186.05347 
L 319.098299 186.023352 
L 320.098299 185.963576 
L 321.098299 185.926384 
L 322.098299 185.887288 
L 323.098299 185.844848 
L 324.098299 185.812083 
L 325.098299 185.744657 
L 326.098299 185.705531 
L 327.098299 185.662856 
L 328.098299 185.592276 
L 329.098299 185.555885 
L 330.098299 185.497482 
L 331.098299 185.386529 
L 332.098299 185.315871 
L 333.098299 185.202931 
L 334.098299 185.157158 
L 335.098299 185.095875 
L 336.098299 185.047375 
L 337.098299 184.966553 
L 338.098299 184.848034 
L 339.098299 184.777823 
L 340.098299 184.694561 
L 341.098299 184.661419 
L 342.098299 184.610182 
L 343.098299 184.541783 
L 344.098299 184.475568 
L 345.098299 184.398651 
L 346.098299 184.371335 
L 347.098299 184.344858 
L 348.098299 184.322207 
L 349.098299 184.302676 
L 350.098299 184.276282 
L 351.098299 184.226511 
L 352.098299 184.191438 
L 353.682951 184.155572 
" clip-path="url(#pade395e203)" style="fill: none; stroke: #1f77b4; stroke-opacity: 0.5; stroke-width: 0.2; stroke-linecap: square"/>
   </g>
   <g id="line2d_8">
    <path d="M 290.098299 188.683336 
L 291.098299 188.714772 
L 292.098299 188.751713 
L 293.098299 188.849459 
L 294.098299 188.881981 
L 295.098299 188.955605 
L 296.098299 188.994171 
L 297.098299 189.029584 
L 298.098299 189.087224 
L 299.098299 189.15761 
L 300.098299 189.209574 
L 301.098299 189.268664 
L 302.098299 189.356985 
L 303.098299 189.403129 
L 304.098299 189.44554 
L 305.098299 189.476033 
L 306.098299 189.502078 
L 307.098299 189.523278 
L 308.098299 189.577579 
L 309.098299 189.605517 
L 310.098299 189.635241 
L 311.098299 189.660636 
L 312.098299 189.671836 
L 313.098299 189.68196 
L 314.098299 189.681756 
L 315.098299 189.672246 
L 316.098299 189.660592 
L 317.098299 189.629563 
L 318.098299 189.618395 
L 319.098299 189.588277 
L 320.098299 189.5285 
L 321.098299 189.491309 
L 322.098299 189.452213 
L 323.098299 189.409773 
L 324.098299 189.377008 
L 325.098299 189.309582 
L 326.098299 189.270456 
L 327.098299 189.227781 
L 328.098299 189.157201 
L 329.098299 189.12081 
L 330.098299 189.062407 
L 331.098299 188.951454 
L 332.098299 188.880796 
L 333.098299 188.767856 
L 334.098299 188.722083 
L 335.098299 188.6608 
L 336.098299 188.6123 
L 337.098299 188.531478 
L 338.098299 188.412959 
L 339.098299 188.342748 
L 340.098299 188.259486 
L 341.098299 188.226344 
L 342.098299 188.175107 
L 343.098299 188.106708 
L 344.098299 188.040493 
L 345.098299 187.963576 
L 346.098299 187.93626 
L 347.098299 187.909783 
L 348.098299 187.887132 
L 349.098299 187.867601 
L 350.098299 187.841207 
L 351.098299 187.791436 
L 352.098299 187.756363 
L 353.682951 187.720497 
" clip-path="url(#pade395e203)" style="fill: none; stroke: #1f77b4; stroke-opacity: 0.5; stroke-width: 0.2; stroke-linecap: square"/>
   </g>
   <g id="line2d_9">
    <path d="M 290.098299 184.326046 
L 291.098299 184.357482 
L 292.098299 184.394423 
L 293.098299 184.492169 
L 294.098299 184.524691 
L 295.098299 184.598316 
L 296.098299 184.636881 
L 297.098299 184.672294 
L 298.098299 184.729934 
L 299.098299 184.800321 
L 300.098299 184.852285 
L 301.098299 184.911375 
L 302.098299 184.999695 
L 303.098299 185.04584 
L 304.098299 185.088251 
L 305.098299 185.118743 
L 306.098299 185.144788 
L 307.098299 185.165988 
L 308.098299 185.22029 
L 309.098299 185.248227 
L 310.098299 185.277951 
L 311.098299 185.303346 
L 312.098299 185.314546 
L 313.098299 185.32467 
L 314.098299 185.324466 
L 315.098299 185.314956 
L 316.098299 185.303302 
L 317.098299 185.272273 
L 318.098299 185.261105 
L 319.098299 185.230988 
L 320.098299 185.171211 
L 321.098299 185.134019 
L 322.098299 185.094923 
L 323.098299 185.052484 
L 324.098299 185.019718 
L 325.098299 184.952292 
L 326.098299 184.913166 
L 327.098299 184.870492 
L 328.098299 184.799911 
L 329.098299 184.76352 
L 330.098299 184.705117 
L 331.098299 184.594164 
L 332.098299 184.523506 
L 333.098299 184.410566 
L 334.098299 184.364793 
L 335.098299 184.30351 
L 336.098299 184.255011 
L 337.098299 184.174188 
L 338.098299 184.055669 
L 339.098299 183.985458 
L 340.098299 183.902196 
L 341.098299 183.869054 
L 342.098299 183.817817 
L 343.098299 183.749419 
L 344.098299 183.683203 
L 345.098299 183.606286 
L 346.098299 183.578971 
L 347.098299 183.552493 
L 348.098299 183.529842 
L 349.098299 183.510311 
L 350.098299 183.483917 
L 351.098299 183.434146 
L 352.098299 183.399073 
L 353.682951 183.363208 
" clip-path="url(#pade395e203)" style="fill: none; stroke: #1f77b4; stroke-opacity: 0.5; stroke-width: 0.2; stroke-linecap: square"/>
   </g>
   <g id="line2d_10">
    <path d="M 290.098299 83.161706 
L 291.098299 83.193142 
L 292.098299 83.230083 
L 293.098299 83.327829 
L 294.098299 83.360351 
L 295.098299 83.433976 
L 296.098299 83.472541 
L 297.098299 83.507954 
L 298.098299 83.565594 
L 299.098299 83.63598 
L 300.098299 83.687945 
L 301.098299 83.747034 
L 302.098299 83.835355 
L 303.098299 83.8815 
L 304.098299 83.923911 
L 305.098299 83.954403 
L 306.098299 83.980448 
L 307.098299 84.001648 
L 308.098299 84.055949 
L 309.098299 84.083887 
L 310.098299 84.113611 
L 311.098299 84.139006 
L 312.098299 84.150206 
L 313.098299 84.16033 
L 314.098299 84.160126 
L 315.098299 84.150616 
L 316.098299 84.138962 
L 317.098299 84.107933 
L 318.098299 84.096765 
L 319.098299 84.066648 
L 320.098299 84.006871 
L 321.098299 83.969679 
L 322.098299 83.930583 
L 323.098299 83.888143 
L 324.098299 83.855378 
L 325.098299 83.787952 
L 326.098299 83.748826 
L 327.098299 83.706151 
L 328.098299 83.635571 
L 329.098299 83.59918 
L 330.098299 83.540777 
L 331.098299 83.429824 
L 332.098299 83.359166 
L 333.098299 83.246226 
L 334.098299 83.200453 
L 335.098299 83.13917 
L 336.098299 83.090671 
L 337.098299 83.009848 
L 338.098299 82.891329 
L 339.098299 82.821118 
L 340.098299 82.737856 
L 341.098299 82.704714 
L 342.098299 82.653477 
L 343.098299 82.585078 
L 344.098299 82.518863 
L 345.098299 82.441946 
L 346.098299 82.41463 
L 347.098299 82.388153 
L 348.098299 82.365502 
L 349.098299 82.345971 
L 350.098299 82.319577 
L 351.098299 82.269806 
L 352.098299 82.234733 
L 353.682951 82.198867 
" clip-path="url(#pade395e203)" style="fill: none; stroke: #1f77b4; stroke-opacity: 0.5; stroke-width: 0.2; stroke-linecap: square"/>
   </g>
   <g id="line2d_11">
    <path d="M 290.098299 287.505288 
L 291.098299 287.536725 
L 292.098299 287.573665 
L 293.098299 287.671411 
L 294.098299 287.703933 
L 295.098299 287.777558 
L 296.098299 287.816123 
L 297.098299 287.851536 
L 298.098299 287.909176 
L 299.098299 287.979563 
L 300.098299 288.031527 
L 301.098299 288.090617 
L 302.098299 288.178938 
L 303.098299 288.225082 
L 304.098299 288.267493 
L 305.098299 288.297985 
L 306.098299 288.32403 
L 307.098299 288.34523 
L 308.098299 288.399532 
L 309.098299 288.427469 
L 310.098299 288.457193 
L 311.098299 288.482588 
L 312.098299 288.493788 
L 313.098299 288.503912 
L 314.098299 288.503708 
L 315.098299 288.494198 
L 316.098299 288.482545 
L 317.098299 288.451515 
L 318.098299 288.440347 
L 319.098299 288.41023 
L 320.098299 288.350453 
L 321.098299 288.313261 
L 322.098299 288.274165 
L 323.098299 288.231726 
L 324.098299 288.19896 
L 325.098299 288.131534 
L 326.098299 288.092408 
L 327.098299 288.049734 
L 328.098299 287.979153 
L 329.098299 287.942762 
L 330.098299 287.884359 
L 331.098299 287.773406 
L 332.098299 287.702748 
L 333.098299 287.589808 
L 334.098299 287.544035 
L 335.098299 287.482752 
L 336.098299 287.434253 
L 337.098299 287.35343 
L 338.098299 287.234911 
L 339.098299 287.164701 
L 340.098299 287.081438 
L 341.098299 287.048296 
L 342.098299 286.997059 
L 343.098299 286.928661 
L 344.098299 286.862445 
L 345.098299 286.785528 
L 346.098299 286.758213 
L 347.098299 286.731735 
L 348.098299 286.709084 
L 349.098299 286.689553 
L 350.098299 286.663159 
L 351.098299 286.613388 
L 352.098299 286.578315 
L 353.682951 286.54245 
" clip-path="url(#pade395e203)" style="fill: none; stroke: #1f77b4; stroke-opacity: 0.5; stroke-width: 0.2; stroke-linecap: square"/>
   </g>
   <g id="line2d_12">
    <path d="M 290.098299 231.163202 
L 291.098299 231.194638 
L 292.098299 231.231579 
L 293.098299 231.329325 
L 294.098299 231.361847 
L 295.098299 231.435472 
L 296.098299 231.474037 
L 297.098299 231.50945 
L 298.098299 231.56709 
L 299.098299 231.637477 
L 300.098299 231.689441 
L 301.098299 231.748531 
L 302.098299 231.836852 
L 303.098299 231.882996 
L 304.098299 231.925407 
L 305.098299 231.955899 
L 306.098299 231.981944 
L 307.098299 232.003144 
L 308.098299 232.057446 
L 309.098299 232.085383 
L 310.098299 232.115107 
L 311.098299 232.140502 
L 312.098299 232.151702 
L 313.098299 232.161826 
L 314.098299 232.161622 
L 315.098299 232.152112 
L 316.098299 232.140458 
L 317.098299 232.109429 
L 318.098299 232.098261 
L 319.098299 232.068144 
L 320.098299 232.008367 
L 321.098299 231.971175 
L 322.098299 231.932079 
L 323.098299 231.88964 
L 324.098299 231.856874 
L 325.098299 231.789448 
L 326.098299 231.750322 
L 327.098299 231.707648 
L 328.098299 231.637067 
L 329.098299 231.600676 
L 330.098299 231.542273 
L 331.098299 231.43132 
L 332.098299 231.360662 
L 333.098299 231.247722 
L 334.098299 231.201949 
L 335.098299 231.140666 
L 336.098299 231.092167 
L 337.098299 231.011344 
L 338.098299 230.892825 
L 339.098299 230.822614 
L 340.098299 230.739352 
L 341.098299 230.70621 
L 342.098299 230.654973 
L 343.098299 230.586575 
L 344.098299 230.520359 
L 345.098299 230.443442 
L 346.098299 230.416127 
L 347.098299 230.389649 
L 348.098299 230.366998 
L 349.098299 230.347467 
L 350.098299 230.321073 
L 351.098299 230.271302 
L 352.098299 230.236229 
L 353.682951 230.200364 
" clip-path="url(#pade395e203)" style="fill: none; stroke: #1f77b4; stroke-opacity: 0.5; stroke-width: 0.2; stroke-linecap: square"/>
   </g>
   <g id="line2d_13">
    <path d="M 290.098299 207.625678 
L 291.098299 207.657114 
L 292.098299 207.694054 
L 293.098299 207.791801 
L 294.098299 207.824322 
L 295.098299 207.897947 
L 296.098299 207.936513 
L 297.098299 207.971926 
L 298.098299 208.029566 
L 299.098299 208.099952 
L 300.098299 208.151916 
L 301.098299 208.211006 
L 302.098299 208.299327 
L 303.098299 208.345471 
L 304.098299 208.387882 
L 305.098299 208.418375 
L 306.098299 208.44442 
L 307.098299 208.46562 
L 308.098299 208.519921 
L 309.098299 208.547859 
L 310.098299 208.577583 
L 311.098299 208.602977 
L 312.098299 208.614178 
L 313.098299 208.624302 
L 314.098299 208.624097 
L 315.098299 208.614587 
L 316.098299 208.602934 
L 317.098299 208.571905 
L 318.098299 208.560737 
L 319.098299 208.530619 
L 320.098299 208.470842 
L 321.098299 208.433651 
L 322.098299 208.394555 
L 323.098299 208.352115 
L 324.098299 208.31935 
L 325.098299 208.251923 
L 326.098299 208.212797 
L 327.098299 208.170123 
L 328.098299 208.099542 
L 329.098299 208.063151 
L 330.098299 208.004748 
L 331.098299 207.893796 
L 332.098299 207.823137 
L 333.098299 207.710198 
L 334.098299 207.664425 
L 335.098299 207.603141 
L 336.098299 207.554642 
L 337.098299 207.473819 
L 338.098299 207.355301 
L 339.098299 207.28509 
L 340.098299 207.201827 
L 341.098299 207.168686 
L 342.098299 207.117448 
L 343.098299 207.04905 
L 344.098299 206.982835 
L 345.098299 206.905918 
L 346.098299 206.878602 
L 347.098299 206.852125 
L 348.098299 206.829474 
L 349.098299 206.809943 
L 350.098299 206.783549 
L 351.098299 206.733778 
L 352.098299 206.698705 
L 353.682951 206.662839 
" clip-path="url(#pade395e203)" style="fill: none; stroke: #1f77b4; stroke-opacity: 0.5; stroke-width: 0.2; stroke-linecap: square"/>
   </g>
   <g id="line2d_14">
    <path d="M 290.098299 294.7083 
L 291.098299 294.739736 
L 292.098299 294.776677 
L 293.098299 294.874423 
L 294.098299 294.906945 
L 295.098299 294.980569 
L 296.098299 295.019135 
L 297.098299 295.054548 
L 298.098299 295.112188 
L 299.098299 295.182574 
L 300.098299 295.234538 
L 301.098299 295.293628 
L 302.098299 295.381949 
L 303.098299 295.428093 
L 304.098299 295.470504 
L 305.098299 295.500997 
L 306.098299 295.527042 
L 307.098299 295.548242 
L 308.098299 295.602543 
L 309.098299 295.630481 
L 310.098299 295.660205 
L 311.098299 295.6856 
L 312.098299 295.6968 
L 313.098299 295.706924 
L 314.098299 295.70672 
L 315.098299 295.69721 
L 316.098299 295.685556 
L 317.098299 295.654527 
L 318.098299 295.643359 
L 319.098299 295.613241 
L 320.098299 295.553464 
L 321.098299 295.516273 
L 322.098299 295.477177 
L 323.098299 295.434737 
L 324.098299 295.401972 
L 325.098299 295.334546 
L 326.098299 295.29542 
L 327.098299 295.252745 
L 328.098299 295.182165 
L 329.098299 295.145774 
L 330.098299 295.087371 
L 331.098299 294.976418 
L 332.098299 294.90576 
L 333.098299 294.79282 
L 334.098299 294.747047 
L 335.098299 294.685764 
L 336.098299 294.637264 
L 337.098299 294.556442 
L 338.098299 294.437923 
L 339.098299 294.367712 
L 340.098299 294.28445 
L 341.098299 294.251308 
L 342.098299 294.200071 
L 343.098299 294.131672 
L 344.098299 294.065457 
L 345.098299 293.98854 
L 346.098299 293.961224 
L 347.098299 293.934747 
L 348.098299 293.912096 
L 349.098299 293.892565 
L 350.098299 293.866171 
L 351.098299 293.8164 
L 352.098299 293.781327 
L 353.682951 293.745461 
" clip-path="url(#pade395e203)" style="fill: none; stroke: #1f77b4; stroke-opacity: 0.5; stroke-width: 0.2; stroke-linecap: square"/>
   </g>
   <g id="line2d_15">
    <path d="M 290.098299 215.475407 
L 291.098299 215.506844 
L 292.098299 215.543784 
L 293.098299 215.64153 
L 294.098299 215.674052 
L 295.098299 215.747677 
L 296.098299 215.786242 
L 297.098299 215.821656 
L 298.098299 215.879295 
L 299.098299 215.949682 
L 300.098299 216.001646 
L 301.098299 216.060736 
L 302.098299 216.149057 
L 303.098299 216.195201 
L 304.098299 216.237612 
L 305.098299 216.268105 
L 306.098299 216.294149 
L 307.098299 216.31535 
L 308.098299 216.369651 
L 309.098299 216.397588 
L 310.098299 216.427312 
L 311.098299 216.452707 
L 312.098299 216.463907 
L 313.098299 216.474031 
L 314.098299 216.473827 
L 315.098299 216.464317 
L 316.098299 216.452664 
L 317.098299 216.421634 
L 318.098299 216.410466 
L 319.098299 216.380349 
L 320.098299 216.320572 
L 321.098299 216.28338 
L 322.098299 216.244284 
L 323.098299 216.201845 
L 324.098299 216.16908 
L 325.098299 216.101653 
L 326.098299 216.062527 
L 327.098299 216.019853 
L 328.098299 215.949272 
L 329.098299 215.912881 
L 330.098299 215.854478 
L 331.098299 215.743525 
L 332.098299 215.672867 
L 333.098299 215.559927 
L 334.098299 215.514154 
L 335.098299 215.452871 
L 336.098299 215.404372 
L 337.098299 215.323549 
L 338.098299 215.20503 
L 339.098299 215.13482 
L 340.098299 215.051557 
L 341.098299 215.018415 
L 342.098299 214.967178 
L 343.098299 214.89878 
L 344.098299 214.832564 
L 345.098299 214.755647 
L 346.098299 214.728332 
L 347.098299 214.701854 
L 348.098299 214.679204 
L 349.098299 214.659672 
L 350.098299 214.633278 
L 351.098299 214.583507 
L 352.098299 214.548434 
L 353.682951 214.512569 
" clip-path="url(#pade395e203)" style="fill: none; stroke: #1f77b4; stroke-opacity: 0.5; stroke-width: 0.2; stroke-linecap: square"/>
   </g>
   <g id="line2d_16">
    <path d="M 290.098299 303.680216 
L 291.098299 303.711652 
L 292.098299 303.748592 
L 293.098299 303.846339 
L 294.098299 303.87886 
L 295.098299 303.952485 
L 296.098299 303.991051 
L 297.098299 304.026464 
L 298.098299 304.084104 
L 299.098299 304.15449 
L 300.098299 304.206454 
L 301.098299 304.265544 
L 302.098299 304.353865 
L 303.098299 304.400009 
L 304.098299 304.44242 
L 305.098299 304.472913 
L 306.098299 304.498958 
L 307.098299 304.520158 
L 308.098299 304.574459 
L 309.098299 304.602397 
L 310.098299 304.632121 
L 311.098299 304.657515 
L 312.098299 304.668716 
L 313.098299 304.67884 
L 314.098299 304.678635 
L 315.098299 304.669126 
L 316.098299 304.657472 
L 317.098299 304.626443 
L 318.098299 304.615275 
L 319.098299 304.585157 
L 320.098299 304.52538 
L 321.098299 304.488189 
L 322.098299 304.449093 
L 323.098299 304.406653 
L 324.098299 304.373888 
L 325.098299 304.306461 
L 326.098299 304.267336 
L 327.098299 304.224661 
L 328.098299 304.15408 
L 329.098299 304.11769 
L 330.098299 304.059286 
L 331.098299 303.948334 
L 332.098299 303.877675 
L 333.098299 303.764736 
L 334.098299 303.718963 
L 335.098299 303.65768 
L 336.098299 303.60918 
L 337.098299 303.528358 
L 338.098299 303.409839 
L 339.098299 303.339628 
L 340.098299 303.256365 
L 341.098299 303.223224 
L 342.098299 303.171986 
L 343.098299 303.103588 
L 344.098299 303.037373 
L 345.098299 302.960456 
L 346.098299 302.93314 
L 347.098299 302.906663 
L 348.098299 302.884012 
L 349.098299 302.864481 
L 350.098299 302.838087 
L 351.098299 302.788316 
L 352.098299 302.753243 
L 353.682951 302.717377 
" clip-path="url(#pade395e203)" style="fill: none; stroke: #1f77b4; stroke-opacity: 0.5; stroke-width: 0.2; stroke-linecap: square"/>
   </g>
   <g id="line2d_17">
    <path d="M 290.098299 247.56491 
L 291.098299 247.596346 
L 292.098299 247.633287 
L 293.098299 247.731033 
L 294.098299 247.763555 
L 295.098299 247.83718 
L 296.098299 247.875745 
L 297.098299 247.911158 
L 298.098299 247.968798 
L 299.098299 248.039185 
L 300.098299 248.091149 
L 301.098299 248.150239 
L 302.098299 248.238559 
L 303.098299 248.284704 
L 304.098299 248.327115 
L 305.098299 248.357607 
L 306.098299 248.383652 
L 307.098299 248.404852 
L 308.098299 248.459154 
L 309.098299 248.487091 
L 310.098299 248.516815 
L 311.098299 248.54221 
L 312.098299 248.55341 
L 313.098299 248.563534 
L 314.098299 248.56333 
L 315.098299 248.55382 
L 316.098299 248.542166 
L 317.098299 248.511137 
L 318.098299 248.499969 
L 319.098299 248.469852 
L 320.098299 248.410075 
L 321.098299 248.372883 
L 322.098299 248.333787 
L 323.098299 248.291348 
L 324.098299 248.258582 
L 325.098299 248.191156 
L 326.098299 248.15203 
L 327.098299 248.109356 
L 328.098299 248.038775 
L 329.098299 248.002384 
L 330.098299 247.943981 
L 331.098299 247.833028 
L 332.098299 247.76237 
L 333.098299 247.64943 
L 334.098299 247.603657 
L 335.098299 247.542374 
L 336.098299 247.493875 
L 337.098299 247.413052 
L 338.098299 247.294533 
L 339.098299 247.224322 
L 340.098299 247.14106 
L 341.098299 247.107918 
L 342.098299 247.056681 
L 343.098299 246.988283 
L 344.098299 246.922067 
L 345.098299 246.84515 
L 346.098299 246.817835 
L 347.098299 246.791357 
L 348.098299 246.768706 
L 349.098299 246.749175 
L 350.098299 246.722781 
L 351.098299 246.67301 
L 352.098299 246.637937 
L 353.682951 246.602071 
" clip-path="url(#pade395e203)" style="fill: none; stroke: #1f77b4; stroke-opacity: 0.5; stroke-width: 0.2; stroke-linecap: square"/>
   </g>
   <g id="line2d_18">
    <path d="M 290.098299 295.414759 
L 291.098299 295.446195 
L 292.098299 295.483136 
L 293.098299 295.580882 
L 294.098299 295.613404 
L 295.098299 295.687029 
L 296.098299 295.725594 
L 297.098299 295.761007 
L 298.098299 295.818647 
L 299.098299 295.889033 
L 300.098299 295.940998 
L 301.098299 296.000087 
L 302.098299 296.088408 
L 303.098299 296.134553 
L 304.098299 296.176964 
L 305.098299 296.207456 
L 306.098299 296.233501 
L 307.098299 296.254701 
L 308.098299 296.309002 
L 309.098299 296.33694 
L 310.098299 296.366664 
L 311.098299 296.392059 
L 312.098299 296.403259 
L 313.098299 296.413383 
L 314.098299 296.413179 
L 315.098299 296.403669 
L 316.098299 296.392015 
L 317.098299 296.360986 
L 318.098299 296.349818 
L 319.098299 296.319701 
L 320.098299 296.259924 
L 321.098299 296.222732 
L 322.098299 296.183636 
L 323.098299 296.141196 
L 324.098299 296.108431 
L 325.098299 296.041005 
L 326.098299 296.001879 
L 327.098299 295.959204 
L 328.098299 295.888624 
L 329.098299 295.852233 
L 330.098299 295.79383 
L 331.098299 295.682877 
L 332.098299 295.612219 
L 333.098299 295.499279 
L 334.098299 295.453506 
L 335.098299 295.392223 
L 336.098299 295.343724 
L 337.098299 295.262901 
L 338.098299 295.144382 
L 339.098299 295.074171 
L 340.098299 294.990909 
L 341.098299 294.957767 
L 342.098299 294.90653 
L 343.098299 294.838131 
L 344.098299 294.771916 
L 345.098299 294.694999 
L 346.098299 294.667683 
L 347.098299 294.641206 
L 348.098299 294.618555 
L 349.098299 294.599024 
L 350.098299 294.57263 
L 351.098299 294.522859 
L 352.098299 294.487786 
L 353.682951 294.45192 
" clip-path="url(#pade395e203)" style="fill: none; stroke: #1f77b4; stroke-opacity: 0.5; stroke-width: 0.2; stroke-linecap: square"/>
   </g>
   <g id="line2d_19">
    <path d="M 290.098299 235.583545 
L 291.098299 235.614982 
L 292.098299 235.651922 
L 293.098299 235.749669 
L 294.098299 235.78219 
L 295.098299 235.855815 
L 296.098299 235.894381 
L 297.098299 235.929794 
L 298.098299 235.987434 
L 299.098299 236.05782 
L 300.098299 236.109784 
L 301.098299 236.168874 
L 302.098299 236.257195 
L 303.098299 236.303339 
L 304.098299 236.34575 
L 305.098299 236.376243 
L 306.098299 236.402288 
L 307.098299 236.423488 
L 308.098299 236.477789 
L 309.098299 236.505726 
L 310.098299 236.53545 
L 311.098299 236.560845 
L 312.098299 236.572046 
L 313.098299 236.58217 
L 314.098299 236.581965 
L 315.098299 236.572455 
L 316.098299 236.560802 
L 317.098299 236.529772 
L 318.098299 236.518605 
L 319.098299 236.488487 
L 320.098299 236.42871 
L 321.098299 236.391519 
L 322.098299 236.352422 
L 323.098299 236.309983 
L 324.098299 236.277218 
L 325.098299 236.209791 
L 326.098299 236.170665 
L 327.098299 236.127991 
L 328.098299 236.05741 
L 329.098299 236.021019 
L 330.098299 235.962616 
L 331.098299 235.851664 
L 332.098299 235.781005 
L 333.098299 235.668065 
L 334.098299 235.622293 
L 335.098299 235.561009 
L 336.098299 235.51251 
L 337.098299 235.431687 
L 338.098299 235.313168 
L 339.098299 235.242958 
L 340.098299 235.159695 
L 341.098299 235.126554 
L 342.098299 235.075316 
L 343.098299 235.006918 
L 344.098299 234.940702 
L 345.098299 234.863785 
L 346.098299 234.83647 
L 347.098299 234.809992 
L 348.098299 234.787342 
L 349.098299 234.76781 
L 350.098299 234.741416 
L 351.098299 234.691646 
L 352.098299 234.656572 
L 353.682951 234.620707 
" clip-path="url(#pade395e203)" style="fill: none; stroke: #1f77b4; stroke-opacity: 0.5; stroke-width: 0.2; stroke-linecap: square"/>
   </g>
   <g id="line2d_20">
    <path d="M 290.098299 298.850973 
L 291.098299 298.882409 
L 292.098299 298.919349 
L 293.098299 299.017096 
L 294.098299 299.049618 
L 295.098299 299.123242 
L 296.098299 299.161808 
L 297.098299 299.197221 
L 298.098299 299.254861 
L 299.098299 299.325247 
L 300.098299 299.377211 
L 301.098299 299.436301 
L 302.098299 299.524622 
L 303.098299 299.570766 
L 304.098299 299.613177 
L 305.098299 299.64367 
L 306.098299 299.669715 
L 307.098299 299.690915 
L 308.098299 299.745216 
L 309.098299 299.773154 
L 310.098299 299.802878 
L 311.098299 299.828272 
L 312.098299 299.839473 
L 313.098299 299.849597 
L 314.098299 299.849393 
L 315.098299 299.839883 
L 316.098299 299.828229 
L 317.098299 299.7972 
L 318.098299 299.786032 
L 319.098299 299.755914 
L 320.098299 299.696137 
L 321.098299 299.658946 
L 322.098299 299.61985 
L 323.098299 299.57741 
L 324.098299 299.544645 
L 325.098299 299.477219 
L 326.098299 299.438093 
L 327.098299 299.395418 
L 328.098299 299.324838 
L 329.098299 299.288447 
L 330.098299 299.230043 
L 331.098299 299.119091 
L 332.098299 299.048433 
L 333.098299 298.935493 
L 334.098299 298.88972 
L 335.098299 298.828437 
L 336.098299 298.779937 
L 337.098299 298.699115 
L 338.098299 298.580596 
L 339.098299 298.510385 
L 340.098299 298.427123 
L 341.098299 298.393981 
L 342.098299 298.342744 
L 343.098299 298.274345 
L 344.098299 298.20813 
L 345.098299 298.131213 
L 346.098299 298.103897 
L 347.098299 298.07742 
L 348.098299 298.054769 
L 349.098299 298.035238 
L 350.098299 298.008844 
L 351.098299 297.959073 
L 352.098299 297.924 
L 353.682951 297.888134 
" clip-path="url(#pade395e203)" style="fill: none; stroke: #1f77b4; stroke-opacity: 0.5; stroke-width: 0.2; stroke-linecap: square"/>
   </g>
   <g id="patch_3">
    <path d="M 69.06392 22.318125 
L 69.06392 318.021875 
M 284.536112 22.318125 
L 284.536112 318.021875 
" clip-path="url(#pade395e203)" style="fill: none; stroke: #ffffff; stroke-width: 3; stroke-linejoin: miter"/>
    <path d="M 69.06392 22.318125 
L 69.06392 318.021875 
M 284.536112 22.318125 
L 284.536112 318.021875 
" clip-path="url(#pade395e203)" style="fill: none; stroke: #1f77b4; stroke-linejoin: miter"/>
   </g>
   <g id="FillBetweenPolyCollection_1">
    <path d="M 284.536112 22.318125 
L 69.06392 22.318125 
L 69.06392 318.021875 
L 284.536112 318.021875 
L 284.536112 318.021875 
L 284.536112 22.318125 
z
" clip-path="url(#pade395e203)" style="fill: #1f77b4; fill-opacity: 0.5"/>
   </g>
   <g id="patch_4">
    <path d="M 359.245138 22.318125 
L 359.245138 318.021875 
M 574.71733 22.318125 
L 574.71733 318.021875 
" clip-path="url(#pade395e203)" style="fill: none; stroke: #ffffff; stroke-width: 3; stroke-linejoin: miter"/>
    <path d="M 359.245138 22.318125 
L 359.245138 318.021875 
M 574.71733 22.318125 
L 574.71733 318.021875 
" clip-path="url(#pade395e203)" style="fill: none; stroke: #ff7f0e; stroke-linejoin: miter"/>
   </g>
   <g id="FillBetweenPolyCollection_2">
    <path d="M 574.71733 22.318125 
L 359.245138 22.318125 
L 359.245138 318.021875 
L 574.71733 318.021875 
L 574.71733 318.021875 
L 574.71733 22.318125 
z
" clip-path="url(#pade395e203)" style="fill: #ff7f0e; fill-opacity: 0.5"/>
   </g>
   <g id="matplotlib.axis_1">
    <g id="xtick_1">
     <g id="line2d_21"/>
     <g id="text_1">
      <!-- deme0 -->
      <g transform="translate(159.42111 329.120312) scale(0.1 -0.1)">
       <defs>
        <path id="DejaVuSans-64" d="M 2906 2969 
L 2906 4863 
L 3481 4863 
L 3481 0 
L 2906 0 
L 2906 525 
Q 2725 213 2448 61 
Q 2172 -91 1784 -91 
Q 1150 -91 751 415 
Q 353 922 353 1747 
Q 353 2572 751 3078 
Q 1150 3584 1784 3584 
Q 2172 3584 2448 3432 
Q 2725 3281 2906 2969 
z
M 947 1747 
Q 947 1113 1208 752 
Q 1469 391 1925 391 
Q 2381 391 2643 752 
Q 2906 1113 2906 1747 
Q 2906 2381 2643 2742 
Q 2381 3103 1925 3103 
Q 1469 3103 1208 2742 
Q 947 2381 947 1747 
z
" transform="scale(0.015625)"/>
        <path id="DejaVuSans-65" d="M 3597 1894 
L 3597 1613 
L 953 1613 
Q 991 1019 1311 708 
Q 1631 397 2203 397 
Q 2534 397 2845 478 
Q 3156 559 3463 722 
L 3463 178 
Q 3153 47 2828 -22 
Q 2503 -91 2169 -91 
Q 1331 -91 842 396 
Q 353 884 353 1716 
Q 353 2575 817 3079 
Q 1281 3584 2069 3584 
Q 2775 3584 3186 3129 
Q 3597 2675 3597 1894 
z
M 3022 2063 
Q 3016 2534 2758 2815 
Q 2500 3097 2075 3097 
Q 1594 3097 1305 2825 
Q 1016 2553 972 2059 
L 3022 2063 
z
" transform="scale(0.015625)"/>
        <path id="DejaVuSans-6d" d="M 3328 2828 
Q 3544 3216 3844 3400 
Q 4144 3584 4550 3584 
Q 5097 3584 5394 3201 
Q 5691 2819 5691 2113 
L 5691 0 
L 5113 0 
L 5113 2094 
Q 5113 2597 4934 2840 
Q 4756 3084 4391 3084 
Q 3944 3084 3684 2787 
Q 3425 2491 3425 1978 
L 3425 0 
L 2847 0 
L 2847 2094 
Q 2847 2600 2669 2842 
Q 2491 3084 2119 3084 
Q 1678 3084 1418 2786 
Q 1159 2488 1159 1978 
L 1159 0 
L 581 0 
L 581 3500 
L 1159 3500 
L 1159 2956 
Q 1356 3278 1631 3431 
Q 1906 3584 2284 3584 
Q 2666 3584 2933 3390 
Q 3200 3197 3328 2828 
z
" transform="scale(0.015625)"/>
        <path id="DejaVuSans-30" d="M 2034 4250 
Q 1547 4250 1301 3770 
Q 1056 3291 1056 2328 
Q 1056 1369 1301 889 
Q 1547 409 2034 409 
Q 2525 409 2770 889 
Q 3016 1369 3016 2328 
Q 3016 3291 2770 3770 
Q 2525 4250 2034 4250 
z
M 2034 4750 
Q 2819 4750 3233 4129 
Q 3647 3509 3647 2328 
Q 3647 1150 3233 529 
Q 2819 -91 2034 -91 
Q 1250 -91 836 529 
Q 422 1150 422 2328 
Q 422 3509 836 4129 
Q 1250 4750 2034 4750 
z
" transform="scale(0.015625)"/>
       </defs>
       <use xlink:href="#DejaVuSans-64"/>
       <use xlink:href="#DejaVuSans-65" transform="translate(63.476562 0)"/>
       <use xlink:href="#DejaVuSans-6d" transform="translate(125 0)"/>
       <use xlink:href="#DejaVuSans-65" transform="translate(222.412109 0)"/>
       <use xlink:href="#DejaVuSans-30" transform="translate(283.935547 0)"/>
      </g>
     </g>
    </g>
    <g id="xtick_2">
     <g id="line2d_22"/>
     <g id="text_2">
      <!-- deme1 -->
      <g transform="translate(449.602328 329.120312) scale(0.1 -0.1)">
       <defs>
        <path id="DejaVuSans-31" d="M 794 531 
L 1825 531 
L 1825 4091 
L 703 3866 
L 703 4441 
L 1819 4666 
L 2450 4666 
L 2450 531 
L 3481 531 
L 3481 0 
L 794 0 
L 794 531 
z
" transform="scale(0.015625)"/>
       </defs>
       <use xlink:href="#DejaVuSans-64"/>
       <use xlink:href="#DejaVuSans-65" transform="translate(63.476562 0)"/>
       <use xlink:href="#DejaVuSans-6d" transform="translate(125 0)"/>
       <use xlink:href="#DejaVuSans-65" transform="translate(222.412109 0)"/>
       <use xlink:href="#DejaVuSans-31" transform="translate(283.935547 0)"/>
      </g>
     </g>
    </g>
   </g>
   <g id="matplotlib.axis_2">
    <g id="ytick_1">
     <g id="line2d_23">
      <defs>
       <path id="mb509223d5d" d="M 0 0 
L -3.5 0 
" style="stroke: #000000; stroke-width: 0.8"/>
      </defs>
      <g>
       <use xlink:href="#mb509223d5d" x="43.78125" y="318.021875" style="stroke: #000000; stroke-width: 0.8"/>
      </g>
     </g>
     <g id="text_3">
      <!-- 0.0 -->
      <g transform="translate(20.878125 321.821094) scale(0.1 -0.1)">
       <defs>
        <path id="DejaVuSans-2e" d="M 684 794 
L 1344 794 
L 1344 0 
L 684 0 
L 684 794 
z
" transform="scale(0.015625)"/>
       </defs>
       <use xlink:href="#DejaVuSans-30"/>
       <use xlink:href="#DejaVuSans-2e" transform="translate(63.623047 0)"/>
       <use xlink:href="#DejaVuSans-30" transform="translate(95.410156 0)"/>
      </g>
     </g>
    </g>
    <g id="ytick_2">
     <g id="line2d_24">
      <g>
       <use xlink:href="#mb509223d5d" x="43.78125" y="258.881125" style="stroke: #000000; stroke-width: 0.8"/>
      </g>
     </g>
     <g id="text_4">
      <!-- 0.5 -->
      <g transform="translate(20.878125 262.680344) scale(0.1 -0.1)">
       <defs>
        <path id="DejaVuSans-35" d="M 691 4666 
L 3169 4666 
L 3169 4134 
L 1269 4134 
L 1269 2991 
Q 1406 3038 1543 3061 
Q 1681 3084 1819 3084 
Q 2600 3084 3056 2656 
Q 3513 2228 3513 1497 
Q 3513 744 3044 326 
Q 2575 -91 1722 -91 
Q 1428 -91 1123 -41 
Q 819 9 494 109 
L 494 744 
Q 775 591 1075 516 
Q 1375 441 1709 441 
Q 2250 441 2565 725 
Q 2881 1009 2881 1497 
Q 2881 1984 2565 2268 
Q 2250 2553 1709 2553 
Q 1456 2553 1204 2497 
Q 953 2441 691 2322 
L 691 4666 
z
" transform="scale(0.015625)"/>
       </defs>
       <use xlink:href="#DejaVuSans-30"/>
       <use xlink:href="#DejaVuSans-2e" transform="translate(63.623047 0)"/>
       <use xlink:href="#DejaVuSans-35" transform="translate(95.410156 0)"/>
      </g>
     </g>
    </g>
    <g id="ytick_3">
     <g id="line2d_25">
      <g>
       <use xlink:href="#mb509223d5d" x="43.78125" y="199.740375" style="stroke: #000000; stroke-width: 0.8"/>
      </g>
     </g>
     <g id="text_5">
      <!-- 1.0 -->
      <g transform="translate(20.878125 203.539594) scale(0.1 -0.1)">
       <use xlink:href="#DejaVuSans-31"/>
       <use xlink:href="#DejaVuSans-2e" transform="translate(63.623047 0)"/>
       <use xlink:href="#DejaVuSans-30" transform="translate(95.410156 0)"/>
      </g>
     </g>
    </g>
    <g id="ytick_4">
     <g id="line2d_26">
      <g>
       <use xlink:href="#mb509223d5d" x="43.78125" y="140.599625" style="stroke: #000000; stroke-width: 0.8"/>
      </g>
     </g>
     <g id="text_6">
      <!-- 1.5 -->
      <g transform="translate(20.878125 144.398844) scale(0.1 -0.1)">
       <use xlink:href="#DejaVuSans-31"/>
       <use xlink:href="#DejaVuSans-2e" transform="translate(63.623047 0)"/>
       <use xlink:href="#DejaVuSans-35" transform="translate(95.410156 0)"/>
      </g>
     </g>
    </g>
    <g id="ytick_5">
     <g id="line2d_27">
      <g>
       <use xlink:href="#mb509223d5d" x="43.78125" y="81.458875" style="stroke: #000000; stroke-width: 0.8"/>
      </g>
     </g>
     <g id="text_7">
      <!-- 2.0 -->
      <g transform="translate(20.878125 85.258094) scale(0.1 -0.1)">
       <defs>
        <path id="DejaVuSans-32" d="M 1228 531 
L 3431 531 
L 3431 0 
L 469 0 
L 469 531 
Q 828 903 1448 1529 
Q 2069 2156 2228 2338 
Q 2531 2678 2651 2914 
Q 2772 3150 2772 3378 
Q 2772 3750 2511 3984 
Q 2250 4219 1831 4219 
Q 1534 4219 1204 4116 
Q 875 4013 500 3803 
L 500 4441 
Q 881 4594 1212 4672 
Q 1544 4750 1819 4750 
Q 2544 4750 2975 4387 
Q 3406 4025 3406 3419 
Q 3406 3131 3298 2873 
Q 3191 2616 2906 2266 
Q 2828 2175 2409 1742 
Q 1991 1309 1228 531 
z
" transform="scale(0.015625)"/>
       </defs>
       <use xlink:href="#DejaVuSans-32"/>
       <use xlink:href="#DejaVuSans-2e" transform="translate(63.623047 0)"/>
       <use xlink:href="#DejaVuSans-30" transform="translate(95.410156 0)"/>
      </g>
     </g>
    </g>
    <g id="ytick_6">
     <g id="line2d_28">
      <g>
       <use xlink:href="#mb509223d5d" x="43.78125" y="22.318125" style="stroke: #000000; stroke-width: 0.8"/>
      </g>
     </g>
     <g id="text_8">
      <!-- 2.5 -->
      <g transform="translate(20.878125 26.117344) scale(0.1 -0.1)">
       <use xlink:href="#DejaVuSans-32"/>
       <use xlink:href="#DejaVuSans-2e" transform="translate(63.623047 0)"/>
       <use xlink:href="#DejaVuSans-35" transform="translate(95.410156 0)"/>
      </g>
     </g>
    </g>
    <g id="text_9">
     <!-- time ago (generations) -->
     <g transform="translate(14.798438 227.641094) rotate(-90) scale(0.1 -0.1)">
      <defs>
       <path id="DejaVuSans-74" d="M 1172 4494 
L 1172 3500 
L 2356 3500 
L 2356 3053 
L 1172 3053 
L 1172 1153 
Q 1172 725 1289 603 
Q 1406 481 1766 481 
L 2356 481 
L 2356 0 
L 1766 0 
Q 1100 0 847 248 
Q 594 497 594 1153 
L 594 3053 
L 172 3053 
L 172 3500 
L 594 3500 
L 594 4494 
L 1172 4494 
z
" transform="scale(0.015625)"/>
       <path id="DejaVuSans-69" d="M 603 3500 
L 1178 3500 
L 1178 0 
L 603 0 
L 603 3500 
z
M 603 4863 
L 1178 4863 
L 1178 4134 
L 603 4134 
L 603 4863 
z
" transform="scale(0.015625)"/>
       <path id="DejaVuSans-20" transform="scale(0.015625)"/>
       <path id="DejaVuSans-61" d="M 2194 1759 
Q 1497 1759 1228 1600 
Q 959 1441 959 1056 
Q 959 750 1161 570 
Q 1363 391 1709 391 
Q 2188 391 2477 730 
Q 2766 1069 2766 1631 
L 2766 1759 
L 2194 1759 
z
M 3341 1997 
L 3341 0 
L 2766 0 
L 2766 531 
Q 2569 213 2275 61 
Q 1981 -91 1556 -91 
Q 1019 -91 701 211 
Q 384 513 384 1019 
Q 384 1609 779 1909 
Q 1175 2209 1959 2209 
L 2766 2209 
L 2766 2266 
Q 2766 2663 2505 2880 
Q 2244 3097 1772 3097 
Q 1472 3097 1187 3025 
Q 903 2953 641 2809 
L 641 3341 
Q 956 3463 1253 3523 
Q 1550 3584 1831 3584 
Q 2591 3584 2966 3190 
Q 3341 2797 3341 1997 
z
" transform="scale(0.015625)"/>
       <path id="DejaVuSans-67" d="M 2906 1791 
Q 2906 2416 2648 2759 
Q 2391 3103 1925 3103 
Q 1463 3103 1205 2759 
Q 947 2416 947 1791 
Q 947 1169 1205 825 
Q 1463 481 1925 481 
Q 2391 481 2648 825 
Q 2906 1169 2906 1791 
z
M 3481 434 
Q 3481 -459 3084 -895 
Q 2688 -1331 1869 -1331 
Q 1566 -1331 1297 -1286 
Q 1028 -1241 775 -1147 
L 775 -588 
Q 1028 -725 1275 -790 
Q 1522 -856 1778 -856 
Q 2344 -856 2625 -561 
Q 2906 -266 2906 331 
L 2906 616 
Q 2728 306 2450 153 
Q 2172 0 1784 0 
Q 1141 0 747 490 
Q 353 981 353 1791 
Q 353 2603 747 3093 
Q 1141 3584 1784 3584 
Q 2172 3584 2450 3431 
Q 2728 3278 2906 2969 
L 2906 3500 
L 3481 3500 
L 3481 434 
z
" transform="scale(0.015625)"/>
       <path id="DejaVuSans-6f" d="M 1959 3097 
Q 1497 3097 1228 2736 
Q 959 2375 959 1747 
Q 959 1119 1226 758 
Q 1494 397 1959 397 
Q 2419 397 2687 759 
Q 2956 1122 2956 1747 
Q 2956 2369 2687 2733 
Q 2419 3097 1959 3097 
z
M 1959 3584 
Q 2709 3584 3137 3096 
Q 3566 2609 3566 1747 
Q 3566 888 3137 398 
Q 2709 -91 1959 -91 
Q 1206 -91 779 398 
Q 353 888 353 1747 
Q 353 2609 779 3096 
Q 1206 3584 1959 3584 
z
" transform="scale(0.015625)"/>
       <path id="DejaVuSans-28" d="M 1984 4856 
Q 1566 4138 1362 3434 
Q 1159 2731 1159 2009 
Q 1159 1288 1364 580 
Q 1569 -128 1984 -844 
L 1484 -844 
Q 1016 -109 783 600 
Q 550 1309 550 2009 
Q 550 2706 781 3412 
Q 1013 4119 1484 4856 
L 1984 4856 
z
" transform="scale(0.015625)"/>
       <path id="DejaVuSans-6e" d="M 3513 2113 
L 3513 0 
L 2938 0 
L 2938 2094 
Q 2938 2591 2744 2837 
Q 2550 3084 2163 3084 
Q 1697 3084 1428 2787 
Q 1159 2491 1159 1978 
L 1159 0 
L 581 0 
L 581 3500 
L 1159 3500 
L 1159 2956 
Q 1366 3272 1645 3428 
Q 1925 3584 2291 3584 
Q 2894 3584 3203 3211 
Q 3513 2838 3513 2113 
z
" transform="scale(0.015625)"/>
       <path id="DejaVuSans-72" d="M 2631 2963 
Q 2534 3019 2420 3045 
Q 2306 3072 2169 3072 
Q 1681 3072 1420 2755 
Q 1159 2438 1159 1844 
L 1159 0 
L 581 0 
L 581 3500 
L 1159 3500 
L 1159 2956 
Q 1341 3275 1631 3429 
Q 1922 3584 2338 3584 
Q 2397 3584 2469 3576 
Q 2541 3569 2628 3553 
L 2631 2963 
z
" transform="scale(0.015625)"/>
       <path id="DejaVuSans-73" d="M 2834 3397 
L 2834 2853 
Q 2591 2978 2328 3040 
Q 2066 3103 1784 3103 
Q 1356 3103 1142 2972 
Q 928 2841 928 2578 
Q 928 2378 1081 2264 
Q 1234 2150 1697 2047 
L 1894 2003 
Q 2506 1872 2764 1633 
Q 3022 1394 3022 966 
Q 3022 478 2636 193 
Q 2250 -91 1575 -91 
Q 1294 -91 989 -36 
Q 684 19 347 128 
L 347 722 
Q 666 556 975 473 
Q 1284 391 1588 391 
Q 1994 391 2212 530 
Q 2431 669 2431 922 
Q 2431 1156 2273 1281 
Q 2116 1406 1581 1522 
L 1381 1569 
Q 847 1681 609 1914 
Q 372 2147 372 2553 
Q 372 3047 722 3315 
Q 1072 3584 1716 3584 
Q 2034 3584 2315 3537 
Q 2597 3491 2834 3397 
z
" transform="scale(0.015625)"/>
       <path id="DejaVuSans-29" d="M 513 4856 
L 1013 4856 
Q 1481 4119 1714 3412 
Q 1947 2706 1947 2009 
Q 1947 1309 1714 600 
Q 1481 -109 1013 -844 
L 513 -844 
Q 928 -128 1133 580 
Q 1338 1288 1338 2009 
Q 1338 2731 1133 3434 
Q 928 4138 513 4856 
z
" transform="scale(0.015625)"/>
      </defs>
      <use xlink:href="#DejaVuSans-74"/>
      <use xlink:href="#DejaVuSans-69" transform="translate(39.208984 0)"/>
      <use xlink:href="#DejaVuSans-6d" transform="translate(66.992188 0)"/>
      <use xlink:href="#DejaVuSans-65" transform="translate(164.404297 0)"/>
      <use xlink:href="#DejaVuSans-20" transform="translate(225.927734 0)"/>
      <use xlink:href="#DejaVuSans-61" transform="translate(257.714844 0)"/>
      <use xlink:href="#DejaVuSans-67" transform="translate(318.994141 0)"/>
      <use xlink:href="#DejaVuSans-6f" transform="translate(382.470703 0)"/>
      <use xlink:href="#DejaVuSans-20" transform="translate(443.652344 0)"/>
      <use xlink:href="#DejaVuSans-28" transform="translate(475.439453 0)"/>
      <use xlink:href="#DejaVuSans-67" transform="translate(514.453125 0)"/>
      <use xlink:href="#DejaVuSans-65" transform="translate(577.929688 0)"/>
      <use xlink:href="#DejaVuSans-6e" transform="translate(639.453125 0)"/>
      <use xlink:href="#DejaVuSans-65" transform="translate(702.832031 0)"/>
      <use xlink:href="#DejaVuSans-72" transform="translate(764.355469 0)"/>
      <use xlink:href="#DejaVuSans-61" transform="translate(805.46875 0)"/>
      <use xlink:href="#DejaVuSans-74" transform="translate(866.748047 0)"/>
      <use xlink:href="#DejaVuSans-69" transform="translate(905.957031 0)"/>
      <use xlink:href="#DejaVuSans-6f" transform="translate(933.740234 0)"/>
      <use xlink:href="#DejaVuSans-6e" transform="translate(994.921875 0)"/>
      <use xlink:href="#DejaVuSans-73" transform="translate(1058.300781 0)"/>
      <use xlink:href="#DejaVuSans-29" transform="translate(1110.400391 0)"/>
     </g>
    </g>
   </g>
   <g id="line2d_29">
    <path d="M 354.682951 111.56467 
L 352.682951 110.56467 
L 352.682951 112.56467 
z
" clip-path="url(#pade395e203)" style="fill: #1f77b4; fill-opacity: 0.5; stroke: #1f77b4; stroke-opacity: 0.5; stroke-linejoin: miter"/>
   </g>
   <g id="line2d_30">
    <path d="M 354.682951 193.270233 
L 352.682951 192.270233 
L 352.682951 194.270233 
z
" clip-path="url(#pade395e203)" style="fill: #1f77b4; fill-opacity: 0.5; stroke: #1f77b4; stroke-opacity: 0.5; stroke-linejoin: miter"/>
   </g>
   <g id="line2d_31">
    <path d="M 354.682951 194.072123 
L 352.682951 193.072123 
L 352.682951 195.072123 
z
" clip-path="url(#pade395e203)" style="fill: #1f77b4; fill-opacity: 0.5; stroke: #1f77b4; stroke-opacity: 0.5; stroke-linejoin: miter"/>
   </g>
   <g id="line2d_32">
    <path d="M 354.682951 182.573986 
L 352.682951 181.573986 
L 352.682951 183.573986 
z
" clip-path="url(#pade395e203)" style="fill: #1f77b4; fill-opacity: 0.5; stroke: #1f77b4; stroke-opacity: 0.5; stroke-linejoin: miter"/>
   </g>
   <g id="line2d_33">
    <path d="M 354.682951 117.446347 
L 352.682951 116.446347 
L 352.682951 118.446347 
z
" clip-path="url(#pade395e203)" style="fill: #1f77b4; fill-opacity: 0.5; stroke: #1f77b4; stroke-opacity: 0.5; stroke-linejoin: miter"/>
   </g>
   <g id="line2d_34">
    <path d="M 354.682951 110.574893 
L 352.682951 109.574893 
L 352.682951 111.574893 
z
" clip-path="url(#pade395e203)" style="fill: #1f77b4; fill-opacity: 0.5; stroke: #1f77b4; stroke-opacity: 0.5; stroke-linejoin: miter"/>
   </g>
   <g id="line2d_35">
    <path d="M 354.682951 185.118411 
L 352.682951 184.118411 
L 352.682951 186.118411 
z
" clip-path="url(#pade395e203)" style="fill: #1f77b4; fill-opacity: 0.5; stroke: #1f77b4; stroke-opacity: 0.5; stroke-linejoin: miter"/>
   </g>
   <g id="line2d_36">
    <path d="M 354.682951 188.683336 
L 352.682951 187.683336 
L 352.682951 189.683336 
z
" clip-path="url(#pade395e203)" style="fill: #1f77b4; fill-opacity: 0.5; stroke: #1f77b4; stroke-opacity: 0.5; stroke-linejoin: miter"/>
   </g>
   <g id="line2d_37">
    <path d="M 354.682951 184.326046 
L 352.682951 183.326046 
L 352.682951 185.326046 
z
" clip-path="url(#pade395e203)" style="fill: #1f77b4; fill-opacity: 0.5; stroke: #1f77b4; stroke-opacity: 0.5; stroke-linejoin: miter"/>
   </g>
   <g id="line2d_38">
    <path d="M 354.682951 83.161706 
L 352.682951 82.161706 
L 352.682951 84.161706 
z
" clip-path="url(#pade395e203)" style="fill: #1f77b4; fill-opacity: 0.5; stroke: #1f77b4; stroke-opacity: 0.5; stroke-linejoin: miter"/>
   </g>
   <g id="line2d_39">
    <path d="M 354.682951 287.505288 
L 352.682951 286.505288 
L 352.682951 288.505288 
z
" clip-path="url(#pade395e203)" style="fill: #1f77b4; fill-opacity: 0.5; stroke: #1f77b4; stroke-opacity: 0.5; stroke-linejoin: miter"/>
   </g>
   <g id="line2d_40">
    <path d="M 354.682951 231.163202 
L 352.682951 230.163202 
L 352.682951 232.163202 
z
" clip-path="url(#pade395e203)" style="fill: #1f77b4; fill-opacity: 0.5; stroke: #1f77b4; stroke-opacity: 0.5; stroke-linejoin: miter"/>
   </g>
   <g id="line2d_41">
    <path d="M 354.682951 207.625678 
L 352.682951 206.625678 
L 352.682951 208.625678 
z
" clip-path="url(#pade395e203)" style="fill: #1f77b4; fill-opacity: 0.5; stroke: #1f77b4; stroke-opacity: 0.5; stroke-linejoin: miter"/>
   </g>
   <g id="line2d_42">
    <path d="M 354.682951 294.7083 
L 352.682951 293.7083 
L 352.682951 295.7083 
z
" clip-path="url(#pade395e203)" style="fill: #1f77b4; fill-opacity: 0.5; stroke: #1f77b4; stroke-opacity: 0.5; stroke-linejoin: miter"/>
   </g>
   <g id="line2d_43">
    <path d="M 354.682951 215.475407 
L 352.682951 214.475407 
L 352.682951 216.475407 
z
" clip-path="url(#pade395e203)" style="fill: #1f77b4; fill-opacity: 0.5; stroke: #1f77b4; stroke-opacity: 0.5; stroke-linejoin: miter"/>
   </g>
   <g id="line2d_44">
    <path d="M 354.682951 303.680216 
L 352.682951 302.680216 
L 352.682951 304.680216 
z
" clip-path="url(#pade395e203)" style="fill: #1f77b4; fill-opacity: 0.5; stroke: #1f77b4; stroke-opacity: 0.5; stroke-linejoin: miter"/>
   </g>
   <g id="line2d_45">
    <path d="M 354.682951 247.56491 
L 352.682951 246.56491 
L 352.682951 248.56491 
z
" clip-path="url(#pade395e203)" style="fill: #1f77b4; fill-opacity: 0.5; stroke: #1f77b4; stroke-opacity: 0.5; stroke-linejoin: miter"/>
   </g>
   <g id="line2d_46">
    <path d="M 354.682951 295.414759 
L 352.682951 294.414759 
L 352.682951 296.414759 
z
" clip-path="url(#pade395e203)" style="fill: #1f77b4; fill-opacity: 0.5; stroke: #1f77b4; stroke-opacity: 0.5; stroke-linejoin: miter"/>
   </g>
   <g id="line2d_47">
    <path d="M 354.682951 235.583545 
L 352.682951 234.583545 
L 352.682951 236.583545 
z
" clip-path="url(#pade395e203)" style="fill: #1f77b4; fill-opacity: 0.5; stroke: #1f77b4; stroke-opacity: 0.5; stroke-linejoin: miter"/>
   </g>
   <g id="line2d_48">
    <path d="M 354.682951 298.850973 
L 352.682951 297.850973 
L 352.682951 299.850973 
z
" clip-path="url(#pade395e203)" style="fill: #1f77b4; fill-opacity: 0.5; stroke: #1f77b4; stroke-opacity: 0.5; stroke-linejoin: miter"/>
   </g>
   <g id="patch_5">
    <path d="M 43.78125 318.021875 
L 43.78125 22.318125 
" style="fill: none; stroke: #000000; stroke-width: 0.8; stroke-linejoin: miter; stroke-linecap: square"/>
   </g>
   <g id="text_10">
    <!-- defaults_asymmetric_migration_changing_rate.yaml -->
    <g transform="translate(164.675625 16.318125) scale(0.12 -0.12)">
     <defs>
      <path id="DejaVuSans-66" d="M 2375 4863 
L 2375 4384 
L 1825 4384 
Q 1516 4384 1395 4259 
Q 1275 4134 1275 3809 
L 1275 3500 
L 2222 3500 
L 2222 3053 
L 1275 3053 
L 1275 0 
L 697 0 
L 697 3053 
L 147 3053 
L 147 3500 
L 697 3500 
L 697 3744 
Q 697 4328 969 4595 
Q 1241 4863 1831 4863 
L 2375 4863 
z
" transform="scale(0.015625)"/>
      <path id="DejaVuSans-75" d="M 544 1381 
L 544 3500 
L 1119 3500 
L 1119 1403 
Q 1119 906 1312 657 
Q 1506 409 1894 409 
Q 2359 409 2629 706 
Q 2900 1003 2900 1516 
L 2900 3500 
L 3475 3500 
L 3475 0 
L 2900 0 
L 2900 538 
Q 2691 219 2414 64 
Q 2138 -91 1772 -91 
Q 1169 -91 856 284 
Q 544 659 544 1381 
z
M 1991 3584 
L 1991 3584 
z
" transform="scale(0.015625)"/>
      <path id="DejaVuSans-6c" d="M 603 4863 
L 1178 4863 
L 1178 0 
L 603 0 
L 603 4863 
z
" transform="scale(0.015625)"/>
      <path id="DejaVuSans-5f" d="M 3263 -1063 
L 3263 -1509 
L -63 -1509 
L -63 -1063 
L 3263 -1063 
z
" transform="scale(0.015625)"/>
      <path id="DejaVuSans-79" d="M 2059 -325 
Q 1816 -950 1584 -1140 
Q 1353 -1331 966 -1331 
L 506 -1331 
L 506 -850 
L 844 -850 
Q 1081 -850 1212 -737 
Q 1344 -625 1503 -206 
L 1606 56 
L 191 3500 
L 800 3500 
L 1894 763 
L 2988 3500 
L 3597 3500 
L 2059 -325 
z
" transform="scale(0.015625)"/>
      <path id="DejaVuSans-63" d="M 3122 3366 
L 3122 2828 
Q 2878 2963 2633 3030 
Q 2388 3097 2138 3097 
Q 1578 3097 1268 2742 
Q 959 2388 959 1747 
Q 959 1106 1268 751 
Q 1578 397 2138 397 
Q 2388 397 2633 464 
Q 2878 531 3122 666 
L 3122 134 
Q 2881 22 2623 -34 
Q 2366 -91 2075 -91 
Q 1284 -91 818 406 
Q 353 903 353 1747 
Q 353 2603 823 3093 
Q 1294 3584 2113 3584 
Q 2378 3584 2631 3529 
Q 2884 3475 3122 3366 
z
" transform="scale(0.015625)"/>
      <path id="DejaVuSans-68" d="M 3513 2113 
L 3513 0 
L 2938 0 
L 2938 2094 
Q 2938 2591 2744 2837 
Q 2550 3084 2163 3084 
Q 1697 3084 1428 2787 
Q 1159 2491 1159 1978 
L 1159 0 
L 581 0 
L 581 4863 
L 1159 4863 
L 1159 2956 
Q 1366 3272 1645 3428 
Q 1925 3584 2291 3584 
Q 2894 3584 3203 3211 
Q 3513 2838 3513 2113 
z
" transform="scale(0.015625)"/>
     </defs>
     <use xlink:href="#DejaVuSans-64"/>
     <use xlink:href="#DejaVuSans-65" transform="translate(63.476562 0)"/>
     <use xlink:href="#DejaVuSans-66" transform="translate(125 0)"/>
     <use xlink:href="#DejaVuSans-61" transform="translate(160.205078 0)"/>
     <use xlink:href="#DejaVuSans-75" transform="translate(221.484375 0)"/>
     <use xlink:href="#DejaVuSans-6c" transform="translate(284.863281 0)"/>
     <use xlink:href="#DejaVuSans-74" transform="translate(312.646484 0)"/>
     <use xlink:href="#DejaVuSans-73" transform="translate(351.855469 0)"/>
     <use xlink:href="#DejaVuSans-5f" transform="translate(403.955078 0)"/>
     <use xlink:href="#DejaVuSans-61" transform="translate(453.955078 0)"/>
     <use xlink:href="#DejaVuSans-73" transform="translate(515.234375 0)"/>
     <use xlink:href="#DejaVuSans-79" transform="translate(567.333984 0)"/>
     <use xlink:href="#DejaVuSans-6d" transform="translate(626.513672 0)"/>
     <use xlink:href="#DejaVuSans-6d" transform="translate(723.925781 0)"/>
     <use xlink:href="#DejaVuSans-65" transform="translate(821.337891 0)"/>
     <use xlink:href="#DejaVuSans-74" transform="translate(882.861328 0)"/>
     <use xlink:href="#DejaVuSans-72" transform="translate(922.070312 0)"/>
     <use xlink:href="#DejaVuSans-69" transform="translate(963.183594 0)"/>
     <use xlink:href="#DejaVuSans-63" transform="translate(990.966797 0)"/>
     <use xlink:href="#DejaVuSans-5f" transform="translate(1045.947266 0)"/>
     <use xlink:href="#DejaVuSans-6d" transform="translate(1095.947266 0)"/>
     <use xlink:href="#DejaVuSans-69" transform="translate(1193.359375 0)"/>
     <use xlink:href="#DejaVuSans-67" transform="translate(1221.142578 0)"/>
     <use xlink:href="#DejaVuSans-72" transform="translate(1284.619141 0)"/>
     <use xlink:href="#DejaVuSans-61" transform="translate(1325.732422 0)"/>
     <use xlink:href="#DejaVuSans-74" transform="translate(1387.011719 0)"/>
     <use xlink:href="#DejaVuSans-69" transform="translate(1426.220703 0)"/>
     <use xlink:href="#DejaVuSans-6f" transform="translate(1454.003906 0)"/>
     <use xlink:href="#DejaVuSans-6e" transform="translate(1515.185547 0)"/>
     <use xlink:href="#DejaVuSans-5f" transform="translate(1578.564453 0)"/>
     <use xlink:href="#DejaVuSans-63" transform="translate(1628.564453 0)"/>
     <use xlink:href="#DejaVuSans-68" transform="translate(1683.544922 0)"/>
     <use xlink:href="#DejaVuSans-61" transform="translate(1746.923828 0)"/>
     <use xlink:href="#DejaVuSans-6e" transform="translate(1808.203125 0)"/>
     <use xlink:href="#DejaVuSans-67" transform="translate(1871.582031 0)"/>
     <use xlink:href="#DejaVuSans-69" transform="translate(1935.058594 0)"/>
     <use xlink:href="#DejaVuSans-6e" transform="translate(1962.841797 0)"/>
     <use xlink:href="#DejaVuSans-67" transform="translate(2026.220703 0)"/>
     <use xlink:href="#DejaVuSans-5f" transform="translate(2089.697266 0)"/>
     <use xlink:href="#DejaVuSans-72" transform="translate(2139.697266 0)"/>
     <use xlink:href="#DejaVuSans-61" transform="translate(2180.810547 0)"/>
     <use xlink:href="#DejaVuSans-74" transform="translate(2242.089844 0)"/>
     <use xlink:href="#DejaVuSans-65" transform="translate(2281.298828 0)"/>
     <use xlink:href="#DejaVuSans-2e" transform="translate(2342.822266 0)"/>
     <use xlink:href="#DejaVuSans-79" transform="translate(2374.609375 0)"/>
     <use xlink:href="#DejaVuSans-61" transform="translate(2433.789062 0)"/>
     <use xlink:href="#DejaVuSans-6d" transform="translate(2495.068359 0)"/>
     <use xlink:href="#DejaVuSans-6c" transform="translate(2592.480469 0)"/>
    </g>
   </g>
  </g>
 </g>
 <defs>
  <clipPath id="pade395e203">
   <rect x="43.78125" y="22.318125" width="556.21875" height="295.70375"/>
  </clipPath>
 </defs>
</svg>