<?xml version="1.0" encoding="utf-8" standalone="no"?>
<!DOCTYPE svg PUBLIC "-//W3C//DTD SVG 1.1//EN"
  "http://www.w3.org/Graphics/SVG/1.1/DTD/svg11.dtd">
<svg xmlns:xlink="http://www.w3.org/1999/xlink" width="607.2pt" height="338.4pt" viewBox="0 0 607.2 338.4" xmlns="http://www.w3.org/2000/svg" version="1.1">
 <metadata>
  <rdf:RDF xmlns:dc="http://purl.org/dc/elements/1.1/" xmlns:cc="http://creativecommons.org/ns#" xmlns:rdf="http://www.w3.org/1999/02/22-rdf-syntax-ns#">
   <cc:Work>
    <dc:type rdf:resource="http://purl.org/dc/dcmitype/StillImage"/>
    <dc:date>2023-11-20T08:24:30.412351</dc:date>
    <dc:format>image/svg+xml</dc:format>
    <dc:creator>
     <cc:Agent>
      <dc:title>Matplotlib v3.7.2, https://matplotlib.org/</dc:title>
     </cc:Agent>
    </dc:creator>
   </cc:Work>
  </rdf:RDF>
 </metadata>
 <defs>
  <style type="text/css">*{stroke-linejoin: round; stroke-linecap: butt}</style>
 </defs>
 <g id="figure_1">
  <g id="patch_1">
   <path d="M 0 338.4 
L 607.2 338.4 
L 607.2 0 
L 0 0 
z
" style="fill: #ffffff"/>
  </g>
  <g id="axes_1">
   <g id="patch_2">
    <path d="M 46.965625 318.021875 
L 600 318.021875 
L 600 22.318125 
L 46.965625 22.318125 
z
" style="fill: #ffffff"/>
   </g>
   <path d="M 200.299442 248.274094 
L 201.299442 248.305531 
L 202.299442 248.342471 
L 203.299442 248.440217 
L 204.299442 248.472739 
L 205.299442 248.546364 
L 206.299442 248.584929 
L 207.299442 248.620343 
L 208.299442 248.677982 
L 209.299442 248.748369 
L 210.299442 248.800333 
L 211.299442 248.859423 
L 212.299442 248.947744 
L 213.299442 248.993888 
L 214.299442 249.036299 
L 215.299442 249.066792 
L 216.299442 249.092836 
L 217.299442 249.114037 
L 218.299442 249.168338 
L 219.299442 249.196275 
L 220.299442 249.225999 
L 221.299442 249.251394 
L 222.299442 249.262594 
L 223.299442 249.272718 
L 224.299442 249.272514 
L 225.299442 249.263004 
L 226.299442 249.251351 
L 227.299442 249.220321 
L 228.299442 249.209153 
L 229.299442 249.179036 
L 230.299442 249.119259 
L 231.299442 249.082067 
L 232.299442 249.042971 
L 233.299442 249.000532 
L 234.299442 248.967767 
L 235.299442 248.90034 
L 236.299442 248.861214 
L 237.299442 248.81854 
L 238.299442 248.747959 
L 239.299442 248.711568 
L 240.299442 248.653165 
L 241.299442 248.542212 
L 242.299442 248.471554 
L 243.299442 248.358614 
L 244.299442 248.312841 
L 245.299442 248.251558 
L 246.299442 248.203059 
L 247.299442 248.122236 
L 248.299442 248.003717 
L 249.299442 247.933507 
L 250.299442 247.850244 
L 251.299442 247.817102 
L 252.299442 247.765865 
L 253.299442 247.697467 
L 254.299442 247.631251 
L 255.299442 247.554334 
L 256.619695 247.527019 
" clip-path="url(#p8643e7a120)" style="fill: none; stroke: #1f77b4; stroke-opacity: 0.5; stroke-width: 0.2; stroke-linecap: square"/>
   <path d="M 200.299442 152.951156 
L 201.299442 152.982593 
L 202.299442 153.019533 
L 203.299442 153.11728 
L 204.299442 153.149801 
L 205.299442 153.223426 
L 206.299442 153.261992 
L 207.299442 153.297405 
L 208.299442 153.355045 
L 209.299442 153.425431 
L 210.299442 153.477395 
L 211.299442 153.536485 
L 212.299442 153.624806 
L 213.299442 153.67095 
L 214.299442 153.713361 
L 215.299442 153.743854 
L 216.299442 153.769899 
L 217.299442 153.791099 
L 218.299442 153.8454 
L 219.299442 153.873337 
L 220.299442 153.903061 
L 221.299442 153.928456 
L 222.299442 153.939657 
L 223.299442 153.949781 
L 224.299442 153.949576 
L 225.299442 153.940066 
L 226.299442 153.928413 
L 227.299442 153.897384 
L 228.299442 153.886216 
L 229.299442 153.856098 
L 230.299442 153.796321 
L 231.299442 153.75913 
L 232.299442 153.720034 
L 233.299442 153.677594 
L 234.299442 153.644829 
L 235.299442 153.577402 
L 236.299442 153.538276 
L 237.299442 153.495602 
L 238.299442 153.425021 
L 239.299442 153.38863 
L 240.299442 153.330227 
L 241.299442 153.219275 
L 242.299442 153.148616 
L 243.299442 153.035677 
L 244.299442 152.989904 
L 245.299442 152.92862 
L 246.299442 152.880121 
L 247.299442 152.799298 
L 248.299442 152.680779 
L 249.299442 152.610569 
L 250.299442 152.527306 
L 251.299442 152.494165 
L 252.299442 152.442927 
L 253.299442 152.374529 
L 254.299442 152.308313 
L 255.299442 152.231396 
L 256.619695 152.204081 
" clip-path="url(#p8643e7a120)" style="fill: none; stroke: #1f77b4; stroke-opacity: 0.5; stroke-width: 0.2; stroke-linecap: square"/>
   <path d="M 200.299442 36.026883 
L 201.299442 36.058319 
L 202.299442 36.09526 
L 203.299442 36.193006 
L 204.299442 36.225528 
L 205.299442 36.299153 
L 206.299442 36.337718 
L 207.299442 36.373131 
L 208.299442 36.430771 
L 209.299442 36.501157 
L 210.299442 36.553122 
L 211.299442 36.612211 
L 212.299442 36.700532 
L 213.299442 36.746677 
L 214.299442 36.789088 
L 215.299442 36.81958 
L 216.299442 36.845625 
L 217.299442 36.866825 
L 218.299442 36.921126 
L 219.299442 36.949064 
L 220.299442 36.978788 
L 221.299442 37.004183 
L 222.299442 37.015383 
L 223.299442 37.025507 
L 224.299442 37.025303 
L 225.299442 37.015793 
L 226.299442 37.004139 
L 227.299442 36.97311 
L 228.299442 36.961942 
L 229.299442 36.931825 
L 230.299442 36.872048 
L 231.299442 36.834856 
L 232.299442 36.79576 
L 233.299442 36.75332 
L 234.299442 36.720555 
L 235.299442 36.653129 
L 236.299442 36.614003 
L 237.299442 36.571328 
L 238.299442 36.500748 
L 239.299442 36.464357 
L 240.299442 36.405954 
L 241.299442 36.295001 
L 242.299442 36.224343 
L 243.299442 36.111403 
L 244.299442 36.06563 
L 245.299442 36.004347 
L 246.299442 35.955848 
L 247.299442 35.875025 
L 248.299442 35.756506 
L 249.299442 35.686295 
L 250.299442 35.603033 
L 251.299442 35.569891 
L 252.299442 35.518654 
L 253.299442 35.450255 
L 254.299442 35.38404 
L 255.299442 35.307123 
L 256.619695 35.279807 
" clip-path="url(#p8643e7a120)" style="fill: none; stroke: #1f77b4; stroke-opacity: 0.5; stroke-width: 0.2; stroke-linecap: square"/>
   <path d="M 200.299442 292.544591 
L 201.299442 292.576027 
L 202.299442 292.612968 
L 203.299442 292.710714 
L 204.299442 292.743236 
L 205.299442 292.816861 
L 206.299442 292.855426 
L 207.299442 292.890839 
L 208.299442 292.948479 
L 209.299442 293.018865 
L 210.299442 293.07083 
L 211.299442 293.129919 
L 212.299442 293.21824 
L 213.299442 293.264385 
L 214.299442 293.306796 
L 215.299442 293.337288 
L 216.299442 293.363333 
L 217.299442 293.384533 
L 218.299442 293.438834 
L 219.299442 293.466772 
L 220.299442 293.496496 
L 221.299442 293.521891 
L 222.299442 293.533091 
L 223.299442 293.543215 
L 224.299442 293.543011 
L 225.299442 293.533501 
L 226.299442 293.521847 
L 227.299442 293.490818 
L 228.299442 293.47965 
L 229.299442 293.449533 
L 230.299442 293.389756 
L 231.299442 293.352564 
L 232.299442 293.313468 
L 233.299442 293.271028 
L 234.299442 293.238263 
L 235.299442 293.170837 
L 236.299442 293.131711 
L 237.299442 293.089036 
L 238.299442 293.018456 
L 239.299442 292.982065 
L 240.299442 292.923662 
L 241.299442 292.812709 
L 242.299442 292.742051 
L 243.299442 292.629111 
L 244.299442 292.583338 
L 245.299442 292.522055 
L 246.299442 292.473556 
L 247.299442 292.392733 
L 248.299442 292.274214 
L 249.299442 292.204003 
L 250.299442 292.120741 
L 251.299442 292.087599 
L 252.299442 292.036362 
L 253.299442 291.967963 
L 254.299442 291.901748 
L 255.299442 291.824831 
L 256.619695 291.797515 
" clip-path="url(#p8643e7a120)" style="fill: none; stroke: #1f77b4; stroke-opacity: 0.5; stroke-width: 0.2; stroke-linecap: square"/>
   <path d="M 200.299442 150.127841 
L 201.299442 150.159278 
L 202.299442 150.196218 
L 203.299442 150.293965 
L 204.299442 150.326486 
L 205.299442 150.400111 
L 206.299442 150.438677 
L 207.299442 150.47409 
L 208.299442 150.53173 
L 209.299442 150.602116 
L 210.299442 150.65408 
L 211.299442 150.71317 
L 212.299442 150.801491 
L 213.299442 150.847635 
L 214.299442 150.890046 
L 215.299442 150.920539 
L 216.299442 150.946584 
L 217.299442 150.967784 
L 218.299442 151.022085 
L 219.299442 151.050023 
L 220.299442 151.079746 
L 221.299442 151.105141 
L 222.299442 151.116342 
L 223.299442 151.126466 
L 224.299442 151.126261 
L 225.299442 151.116751 
L 226.299442 151.105098 
L 227.299442 151.074069 
L 228.299442 151.062901 
L 229.299442 151.032783 
L 230.299442 150.973006 
L 231.299442 150.935815 
L 232.299442 150.896719 
L 233.299442 150.854279 
L 234.299442 150.821514 
L 235.299442 150.754087 
L 236.299442 150.714961 
L 237.299442 150.672287 
L 238.299442 150.601706 
L 239.299442 150.565315 
L 240.299442 150.506912 
L 241.299442 150.39596 
L 242.299442 150.325301 
L 243.299442 150.212362 
L 244.299442 150.166589 
L 245.299442 150.105305 
L 246.299442 150.056806 
L 247.299442 149.975983 
L 248.299442 149.857464 
L 249.299442 149.787254 
L 250.299442 149.703991 
L 251.299442 149.67085 
L 252.299442 149.619612 
L 253.299442 149.551214 
L 254.299442 149.484999 
L 255.299442 149.408081 
L 256.619695 149.380766 
" clip-path="url(#p8643e7a120)" style="fill: none; stroke: #1f77b4; stroke-opacity: 0.5; stroke-width: 0.2; stroke-linecap: square"/>
   <path d="M 200.299442 59.118412 
L 201.299442 59.149849 
L 202.299442 59.186789 
L 203.299442 59.284536 
L 204.299442 59.317057 
L 205.299442 59.390682 
L 206.299442 59.429247 
L 207.299442 59.464661 
L 208.299442 59.522301 
L 209.299442 59.592687 
L 210.299442 59.644651 
L 211.299442 59.703741 
L 212.299442 59.792062 
L 213.299442 59.838206 
L 214.299442 59.880617 
L 215.299442 59.91111 
L 216.299442 59.937155 
L 217.299442 59.958355 
L 218.299442 60.012656 
L 219.299442 60.040593 
L 220.299442 60.070317 
L 221.299442 60.095712 
L 222.299442 60.106912 
L 223.299442 60.117036 
L 224.299442 60.116832 
L 225.299442 60.107322 
L 226.299442 60.095669 
L 227.299442 60.064639 
L 228.299442 60.053471 
L 229.299442 60.023354 
L 230.299442 59.963577 
L 231.299442 59.926385 
L 232.299442 59.887289 
L 233.299442 59.84485 
L 234.299442 59.812085 
L 235.299442 59.744658 
L 236.299442 59.705532 
L 237.299442 59.662858 
L 238.299442 59.592277 
L 239.299442 59.555886 
L 240.299442 59.497483 
L 241.299442 59.38653 
L 242.299442 59.315872 
L 243.299442 59.202932 
L 244.299442 59.157159 
L 245.299442 59.095876 
L 246.299442 59.047377 
L 247.299442 58.966554 
L 248.299442 58.848035 
L 249.299442 58.777825 
L 250.299442 58.694562 
L 251.299442 58.66142 
L 252.299442 58.610183 
L 253.299442 58.541785 
L 254.299442 58.475569 
L 255.299442 58.398652 
L 256.619695 58.371337 
" clip-path="url(#p8643e7a120)" style="fill: none; stroke: #1f77b4; stroke-opacity: 0.5; stroke-width: 0.2; stroke-linecap: square"/>
   <path d="M 200.299442 313.068045 
L 201.299442 313.099481 
L 202.299442 313.136422 
L 203.299442 313.234168 
L 204.299442 313.26669 
L 205.299442 313.340314 
L 206.299442 313.37888 
L 207.299442 313.414293 
L 208.299442 313.471933 
L 209.299442 313.542319 
L 210.299442 313.594283 
L 211.299442 313.653373 
L 212.299442 313.741694 
L 213.299442 313.787838 
L 214.299442 313.830249 
L 215.299442 313.860742 
L 216.299442 313.886787 
L 217.299442 313.907987 
L 218.299442 313.962288 
L 219.299442 313.990226 
L 220.299442 314.01995 
L 221.299442 314.045345 
L 222.299442 314.056545 
L 223.299442 314.066669 
L 224.299442 314.066465 
L 225.299442 314.056955 
L 226.299442 314.045301 
L 227.299442 314.014272 
L 228.299442 314.003104 
L 229.299442 313.972986 
L 230.299442 313.913209 
L 231.299442 313.876018 
L 232.299442 313.836922 
L 233.299442 313.794482 
L 234.299442 313.761717 
L 235.299442 313.694291 
L 236.299442 313.655165 
L 237.299442 313.61249 
L 238.299442 313.54191 
L 239.299442 313.505519 
L 240.299442 313.447116 
L 241.299442 313.336163 
L 242.299442 313.265505 
L 243.299442 313.152565 
L 244.299442 313.106792 
L 245.299442 313.045509 
L 246.299442 312.997009 
L 247.299442 312.916187 
L 248.299442 312.797668 
L 249.299442 312.727457 
L 250.299442 312.644195 
L 251.299442 312.611053 
L 252.299442 312.559816 
L 253.299442 312.491417 
L 254.299442 312.425202 
L 255.299442 312.348285 
L 256.619695 312.320969 
" clip-path="url(#p8643e7a120)" style="fill: none; stroke: #1f77b4; stroke-opacity: 0.5; stroke-width: 0.2; stroke-linecap: square"/>
   <path d="M 200.299442 59.612606 
L 201.299442 59.644042 
L 202.299442 59.680983 
L 203.299442 59.778729 
L 204.299442 59.811251 
L 205.299442 59.884875 
L 206.299442 59.923441 
L 207.299442 59.958854 
L 208.299442 60.016494 
L 209.299442 60.08688 
L 210.299442 60.138845 
L 211.299442 60.197934 
L 212.299442 60.286255 
L 213.299442 60.3324 
L 214.299442 60.37481 
L 215.299442 60.405303 
L 216.299442 60.431348 
L 217.299442 60.452548 
L 218.299442 60.506849 
L 219.299442 60.534787 
L 220.299442 60.564511 
L 221.299442 60.589906 
L 222.299442 60.601106 
L 223.299442 60.61123 
L 224.299442 60.611026 
L 225.299442 60.601516 
L 226.299442 60.589862 
L 227.299442 60.558833 
L 228.299442 60.547665 
L 229.299442 60.517548 
L 230.299442 60.457771 
L 231.299442 60.420579 
L 232.299442 60.381483 
L 233.299442 60.339043 
L 234.299442 60.306278 
L 235.299442 60.238852 
L 236.299442 60.199726 
L 237.299442 60.157051 
L 238.299442 60.086471 
L 239.299442 60.05008 
L 240.299442 59.991677 
L 241.299442 59.880724 
L 242.299442 59.810066 
L 243.299442 59.697126 
L 244.299442 59.651353 
L 245.299442 59.59007 
L 246.299442 59.54157 
L 247.299442 59.460748 
L 248.299442 59.342229 
L 249.299442 59.272018 
L 250.299442 59.188756 
L 251.299442 59.155614 
L 252.299442 59.104377 
L 253.299442 59.035978 
L 254.299442 58.969763 
L 255.299442 58.892846 
L 256.619695 58.86553 
" clip-path="url(#p8643e7a120)" style="fill: none; stroke: #1f77b4; stroke-opacity: 0.5; stroke-width: 0.2; stroke-linecap: square"/>
   <path d="M 200.299442 275.205085 
L 201.299442 275.236521 
L 202.299442 275.273462 
L 203.299442 275.371208 
L 204.299442 275.40373 
L 205.299442 275.477354 
L 206.299442 275.51592 
L 207.299442 275.551333 
L 208.299442 275.608973 
L 209.299442 275.679359 
L 210.299442 275.731324 
L 211.299442 275.790413 
L 212.299442 275.878734 
L 213.299442 275.924879 
L 214.299442 275.967289 
L 215.299442 275.997782 
L 216.299442 276.023827 
L 217.299442 276.045027 
L 218.299442 276.099328 
L 219.299442 276.127266 
L 220.299442 276.15699 
L 221.299442 276.182385 
L 222.299442 276.193585 
L 223.299442 276.203709 
L 224.299442 276.203505 
L 225.299442 276.193995 
L 226.299442 276.182341 
L 227.299442 276.151312 
L 228.299442 276.140144 
L 229.299442 276.110026 
L 230.299442 276.05025 
L 231.299442 276.013058 
L 232.299442 275.973962 
L 233.299442 275.931522 
L 234.299442 275.898757 
L 235.299442 275.831331 
L 236.299442 275.792205 
L 237.299442 275.74953 
L 238.299442 275.67895 
L 239.299442 275.642559 
L 240.299442 275.584156 
L 241.299442 275.473203 
L 242.299442 275.402545 
L 243.299442 275.289605 
L 244.299442 275.243832 
L 245.299442 275.182549 
L 246.299442 275.134049 
L 247.299442 275.053227 
L 248.299442 274.934708 
L 249.299442 274.864497 
L 250.299442 274.781235 
L 251.299442 274.748093 
L 252.299442 274.696856 
L 253.299442 274.628457 
L 254.299442 274.562242 
L 255.299442 274.485325 
L 256.619695 274.458009 
" clip-path="url(#p8643e7a120)" style="fill: none; stroke: #1f77b4; stroke-opacity: 0.5; stroke-width: 0.2; stroke-linecap: square"/>
   <path d="M 200.299442 262.388333 
L 201.299442 262.419769 
L 202.299442 262.45671 
L 203.299442 262.554456 
L 204.299442 262.586978 
L 205.299442 262.660603 
L 206.299442 262.699168 
L 207.299442 262.734581 
L 208.299442 262.792221 
L 209.299442 262.862607 
L 210.299442 262.914572 
L 211.299442 262.973661 
L 212.299442 263.061982 
L 213.299442 263.108127 
L 214.299442 263.150538 
L 215.299442 263.18103 
L 216.299442 263.207075 
L 217.299442 263.228275 
L 218.299442 263.282576 
L 219.299442 263.310514 
L 220.299442 263.340238 
L 221.299442 263.365633 
L 222.299442 263.376833 
L 223.299442 263.386957 
L 224.299442 263.386753 
L 225.299442 263.377243 
L 226.299442 263.365589 
L 227.299442 263.33456 
L 228.299442 263.323392 
L 229.299442 263.293275 
L 230.299442 263.233498 
L 231.299442 263.196306 
L 232.299442 263.15721 
L 233.299442 263.11477 
L 234.299442 263.082005 
L 235.299442 263.014579 
L 236.299442 262.975453 
L 237.299442 262.932778 
L 238.299442 262.862198 
L 239.299442 262.825807 
L 240.299442 262.767404 
L 241.299442 262.656451 
L 242.299442 262.585793 
L 243.299442 262.472853 
L 244.299442 262.42708 
L 245.299442 262.365797 
L 246.299442 262.317298 
L 247.299442 262.236475 
L 248.299442 262.117956 
L 249.299442 262.047745 
L 250.299442 261.964483 
L 251.299442 261.931341 
L 252.299442 261.880104 
L 253.299442 261.811705 
L 254.299442 261.74549 
L 255.299442 261.668573 
L 256.619695 261.641257 
" clip-path="url(#p8643e7a120)" style="fill: none; stroke: #1f77b4; stroke-opacity: 0.5; stroke-width: 0.2; stroke-linecap: square"/>
   <path d="M 256.619695 274.328886 
L 255.619695 274.29745 
L 254.619695 274.260509 
L 253.619695 274.162763 
L 252.619695 274.130241 
L 251.619695 274.056617 
L 250.619695 274.018051 
L 249.619695 273.982638 
L 248.619695 273.924998 
L 247.619695 273.854612 
L 246.619695 273.802648 
L 245.619695 273.743558 
L 244.619695 273.655237 
L 243.619695 273.609093 
L 242.619695 273.566682 
L 241.619695 273.536189 
L 240.619695 273.510144 
L 239.619695 273.488944 
L 238.619695 273.434643 
L 237.619695 273.406705 
L 236.619695 273.376981 
L 235.619695 273.351586 
L 234.619695 273.340386 
L 233.619695 273.330262 
L 232.619695 273.330466 
L 231.619695 273.339976 
L 230.619695 273.35163 
L 229.619695 273.382659 
L 228.619695 273.393827 
L 227.619695 273.423945 
L 226.619695 273.483722 
L 225.619695 273.520913 
L 224.619695 273.560009 
L 223.619695 273.602449 
L 222.619695 273.635214 
L 221.619695 273.70264 
L 220.619695 273.741766 
L 219.619695 273.784441 
L 218.619695 273.855021 
L 217.619695 273.891412 
L 216.619695 273.949815 
L 215.619695 274.060768 
L 214.619695 274.131426 
L 213.619695 274.244366 
L 212.619695 274.290139 
L 211.619695 274.351422 
L 210.619695 274.399922 
L 209.619695 274.480744 
L 208.619695 274.599263 
L 207.619695 274.669474 
L 206.619695 274.752736 
L 205.619695 274.785878 
L 204.619695 274.837115 
L 203.619695 274.905514 
L 202.619695 274.971729 
L 201.619695 275.048646 
L 200.299442 275.075962 
" clip-path="url(#p8643e7a120)" style="fill: none; stroke: #ff7f0e; stroke-opacity: 0.5; stroke-width: 0.2; stroke-linecap: square"/>
   <path d="M 256.619695 214.441925 
L 255.619695 214.410488 
L 254.619695 214.373548 
L 253.619695 214.275801 
L 252.619695 214.24328 
L 251.619695 214.169655 
L 250.619695 214.13109 
L 249.619695 214.095676 
L 248.619695 214.038036 
L 247.619695 213.96765 
L 246.619695 213.915686 
L 245.619695 213.856596 
L 244.619695 213.768275 
L 243.619695 213.722131 
L 242.619695 213.67972 
L 241.619695 213.649227 
L 240.619695 213.623182 
L 239.619695 213.601982 
L 238.619695 213.547681 
L 237.619695 213.519744 
L 236.619695 213.49002 
L 235.619695 213.464625 
L 234.619695 213.453425 
L 233.619695 213.443301 
L 232.619695 213.443505 
L 231.619695 213.453015 
L 230.619695 213.464668 
L 229.619695 213.495698 
L 228.619695 213.506866 
L 227.619695 213.536983 
L 226.619695 213.59676 
L 225.619695 213.633952 
L 224.619695 213.673048 
L 223.619695 213.715487 
L 222.619695 213.748252 
L 221.619695 213.815679 
L 220.619695 213.854805 
L 219.619695 213.897479 
L 218.619695 213.96806 
L 217.619695 214.004451 
L 216.619695 214.062854 
L 215.619695 214.173807 
L 214.619695 214.244465 
L 213.619695 214.357405 
L 212.619695 214.403178 
L 211.619695 214.464461 
L 210.619695 214.51296 
L 209.619695 214.593783 
L 208.619695 214.712302 
L 207.619695 214.782512 
L 206.619695 214.865775 
L 205.619695 214.898917 
L 204.619695 214.950154 
L 203.619695 215.018552 
L 202.619695 215.084768 
L 201.619695 215.161685 
L 200.299442 215.189 
" clip-path="url(#p8643e7a120)" style="fill: none; stroke: #ff7f0e; stroke-opacity: 0.5; stroke-width: 0.2; stroke-linecap: square"/>
   <path d="M 256.619695 123.380277 
L 255.619695 123.348841 
L 254.619695 123.311901 
L 253.619695 123.214154 
L 252.619695 123.181632 
L 251.619695 123.108008 
L 250.619695 123.069442 
L 249.619695 123.034029 
L 248.619695 122.976389 
L 247.619695 122.906003 
L 246.619695 122.854039 
L 245.619695 122.794949 
L 244.619695 122.706628 
L 243.619695 122.660484 
L 242.619695 122.618073 
L 241.619695 122.58758 
L 240.619695 122.561535 
L 239.619695 122.540335 
L 238.619695 122.486034 
L 237.619695 122.458096 
L 236.619695 122.428372 
L 235.619695 122.402978 
L 234.619695 122.391777 
L 233.619695 122.381653 
L 232.619695 122.381858 
L 231.619695 122.391367 
L 230.619695 122.403021 
L 229.619695 122.43405 
L 228.619695 122.445218 
L 227.619695 122.475336 
L 226.619695 122.535113 
L 225.619695 122.572304 
L 224.619695 122.6114 
L 223.619695 122.65384 
L 222.619695 122.686605 
L 221.619695 122.754031 
L 220.619695 122.793157 
L 219.619695 122.835832 
L 218.619695 122.906413 
L 217.619695 122.942803 
L 216.619695 123.001207 
L 215.619695 123.112159 
L 214.619695 123.182817 
L 213.619695 123.295757 
L 212.619695 123.34153 
L 211.619695 123.402813 
L 210.619695 123.451313 
L 209.619695 123.532135 
L 208.619695 123.650654 
L 207.619695 123.720865 
L 206.619695 123.804127 
L 205.619695 123.837269 
L 204.619695 123.888507 
L 203.619695 123.956905 
L 202.619695 124.02312 
L 201.619695 124.100037 
L 200.299442 124.127353 
" clip-path="url(#p8643e7a120)" style="fill: none; stroke: #ff7f0e; stroke-opacity: 0.5; stroke-width: 0.2; stroke-linecap: square"/>
   <path d="M 256.619695 302.149701 
L 255.619695 302.118264 
L 254.619695 302.081324 
L 253.619695 301.983577 
L 252.619695 301.951056 
L 251.619695 301.877431 
L 250.619695 301.838865 
L 249.619695 301.803452 
L 248.619695 301.745812 
L 247.619695 301.675426 
L 246.619695 301.623462 
L 245.619695 301.564372 
L 244.619695 301.476051 
L 243.619695 301.429907 
L 242.619695 301.387496 
L 241.619695 301.357003 
L 240.619695 301.330958 
L 239.619695 301.309758 
L 238.619695 301.255457 
L 237.619695 301.22752 
L 236.619695 301.197796 
L 235.619695 301.172401 
L 234.619695 301.1612 
L 233.619695 301.151076 
L 232.619695 301.151281 
L 231.619695 301.160791 
L 230.619695 301.172444 
L 229.619695 301.203474 
L 228.619695 301.214641 
L 227.619695 301.244759 
L 226.619695 301.304536 
L 225.619695 301.341727 
L 224.619695 301.380824 
L 223.619695 301.423263 
L 222.619695 301.456028 
L 221.619695 301.523455 
L 220.619695 301.562581 
L 219.619695 301.605255 
L 218.619695 301.675836 
L 217.619695 301.712227 
L 216.619695 301.77063 
L 215.619695 301.881582 
L 214.619695 301.952241 
L 213.619695 302.065181 
L 212.619695 302.110953 
L 211.619695 302.172237 
L 210.619695 302.220736 
L 209.619695 302.301559 
L 208.619695 302.420078 
L 207.619695 302.490288 
L 206.619695 302.573551 
L 205.619695 302.606692 
L 204.619695 302.65793 
L 203.619695 302.726328 
L 202.619695 302.792544 
L 201.619695 302.869461 
L 200.299442 302.896776 
" clip-path="url(#p8643e7a120)" style="fill: none; stroke: #ff7f0e; stroke-opacity: 0.5; stroke-width: 0.2; stroke-linecap: square"/>
   <path d="M 256.619695 160.725879 
L 255.619695 160.694442 
L 254.619695 160.657502 
L 253.619695 160.559755 
L 252.619695 160.527234 
L 251.619695 160.453609 
L 250.619695 160.415044 
L 249.619695 160.37963 
L 248.619695 160.321991 
L 247.619695 160.251604 
L 246.619695 160.19964 
L 245.619695 160.14055 
L 244.619695 160.052229 
L 243.619695 160.006085 
L 242.619695 159.963674 
L 241.619695 159.933181 
L 240.619695 159.907137 
L 239.619695 159.885936 
L 238.619695 159.831635 
L 237.619695 159.803698 
L 236.619695 159.773974 
L 235.619695 159.748579 
L 234.619695 159.737379 
L 233.619695 159.727255 
L 232.619695 159.727459 
L 231.619695 159.736969 
L 230.619695 159.748622 
L 229.619695 159.779652 
L 228.619695 159.79082 
L 227.619695 159.820937 
L 226.619695 159.880714 
L 225.619695 159.917906 
L 224.619695 159.957002 
L 223.619695 159.999441 
L 222.619695 160.032206 
L 221.619695 160.099633 
L 220.619695 160.138759 
L 219.619695 160.181433 
L 218.619695 160.252014 
L 217.619695 160.288405 
L 216.619695 160.346808 
L 215.619695 160.457761 
L 214.619695 160.528419 
L 213.619695 160.641359 
L 212.619695 160.687132 
L 211.619695 160.748415 
L 210.619695 160.796914 
L 209.619695 160.877737 
L 208.619695 160.996256 
L 207.619695 161.066466 
L 206.619695 161.149729 
L 205.619695 161.182871 
L 204.619695 161.234108 
L 203.619695 161.302506 
L 202.619695 161.368722 
L 201.619695 161.445639 
L 200.299442 161.472954 
" clip-path="url(#p8643e7a120)" style="fill: none; stroke: #ff7f0e; stroke-opacity: 0.5; stroke-width: 0.2; stroke-linecap: square"/>
   <path d="M 256.619695 83.112321 
L 255.619695 83.080885 
L 254.619695 83.043945 
L 253.619695 82.946198 
L 252.619695 82.913677 
L 251.619695 82.840052 
L 250.619695 82.801486 
L 249.619695 82.766073 
L 248.619695 82.708433 
L 247.619695 82.638047 
L 246.619695 82.586083 
L 245.619695 82.526993 
L 244.619695 82.438672 
L 243.619695 82.392528 
L 242.619695 82.350117 
L 241.619695 82.319624 
L 240.619695 82.293579 
L 239.619695 82.272379 
L 238.619695 82.218078 
L 237.619695 82.19014 
L 236.619695 82.160416 
L 235.619695 82.135022 
L 234.619695 82.123821 
L 233.619695 82.113697 
L 232.619695 82.113902 
L 231.619695 82.123411 
L 230.619695 82.135065 
L 229.619695 82.166094 
L 228.619695 82.177262 
L 227.619695 82.20738 
L 226.619695 82.267157 
L 225.619695 82.304348 
L 224.619695 82.343444 
L 223.619695 82.385884 
L 222.619695 82.418649 
L 221.619695 82.486076 
L 220.619695 82.525201 
L 219.619695 82.567876 
L 218.619695 82.638457 
L 217.619695 82.674847 
L 216.619695 82.733251 
L 215.619695 82.844203 
L 214.619695 82.914862 
L 213.619695 83.027801 
L 212.619695 83.073574 
L 211.619695 83.134857 
L 210.619695 83.183357 
L 209.619695 83.26418 
L 208.619695 83.382698 
L 207.619695 83.452909 
L 206.619695 83.536172 
L 205.619695 83.569313 
L 204.619695 83.620551 
L 203.619695 83.688949 
L 202.619695 83.755164 
L 201.619695 83.832081 
L 200.299442 83.859397 
" clip-path="url(#p8643e7a120)" style="fill: none; stroke: #ff7f0e; stroke-opacity: 0.5; stroke-width: 0.2; stroke-linecap: square"/>
   <path d="M 256.619695 29.785263 
L 255.619695 29.753827 
L 254.619695 29.716886 
L 253.619695 29.61914 
L 252.619695 29.586618 
L 251.619695 29.512993 
L 250.619695 29.474428 
L 249.619695 29.439015 
L 248.619695 29.381375 
L 247.619695 29.310989 
L 246.619695 29.259024 
L 245.619695 29.199935 
L 244.619695 29.111614 
L 243.619695 29.065469 
L 242.619695 29.023058 
L 241.619695 28.992566 
L 240.619695 28.966521 
L 239.619695 28.945321 
L 238.619695 28.89102 
L 237.619695 28.863082 
L 236.619695 28.833358 
L 235.619695 28.807963 
L 234.619695 28.796763 
L 233.619695 28.786639 
L 232.619695 28.786843 
L 231.619695 28.796353 
L 230.619695 28.808007 
L 229.619695 28.839036 
L 228.619695 28.850204 
L 227.619695 28.880321 
L 226.619695 28.940098 
L 225.619695 28.97729 
L 224.619695 29.016386 
L 223.619695 29.058826 
L 222.619695 29.091591 
L 221.619695 29.159017 
L 220.619695 29.198143 
L 219.619695 29.240818 
L 218.619695 29.311398 
L 217.619695 29.347789 
L 216.619695 29.406192 
L 215.619695 29.517145 
L 214.619695 29.587803 
L 213.619695 29.700743 
L 212.619695 29.746516 
L 211.619695 29.807799 
L 210.619695 29.856298 
L 209.619695 29.937121 
L 208.619695 30.05564 
L 207.619695 30.125851 
L 206.619695 30.209113 
L 205.619695 30.242255 
L 204.619695 30.293492 
L 203.619695 30.361891 
L 202.619695 30.428106 
L 201.619695 30.505023 
L 200.299442 30.532339 
" clip-path="url(#p8643e7a120)" style="fill: none; stroke: #ff7f0e; stroke-opacity: 0.5; stroke-width: 0.2; stroke-linecap: square"/>
   <path d="M 256.619695 68.71841 
L 255.619695 68.686973 
L 254.619695 68.650033 
L 253.619695 68.552286 
L 252.619695 68.519765 
L 251.619695 68.44614 
L 250.619695 68.407574 
L 249.619695 68.372161 
L 248.619695 68.314521 
L 247.619695 68.244135 
L 246.619695 68.192171 
L 245.619695 68.133081 
L 244.619695 68.04476 
L 243.619695 67.998616 
L 242.619695 67.956205 
L 241.619695 67.925712 
L 240.619695 67.899667 
L 239.619695 67.878467 
L 238.619695 67.824166 
L 237.619695 67.796229 
L 236.619695 67.766505 
L 235.619695 67.74111 
L 234.619695 67.729909 
L 233.619695 67.719785 
L 232.619695 67.71999 
L 231.619695 67.7295 
L 230.619695 67.741153 
L 229.619695 67.772183 
L 228.619695 67.78335 
L 227.619695 67.813468 
L 226.619695 67.873245 
L 225.619695 67.910436 
L 224.619695 67.949533 
L 223.619695 67.991972 
L 222.619695 68.024737 
L 221.619695 68.092164 
L 220.619695 68.13129 
L 219.619695 68.173964 
L 218.619695 68.244545 
L 217.619695 68.280936 
L 216.619695 68.339339 
L 215.619695 68.450291 
L 214.619695 68.52095 
L 213.619695 68.63389 
L 212.619695 68.679662 
L 211.619695 68.740946 
L 210.619695 68.789445 
L 209.619695 68.870268 
L 208.619695 68.988787 
L 207.619695 69.058997 
L 206.619695 69.14226 
L 205.619695 69.175401 
L 204.619695 69.226639 
L 203.619695 69.295037 
L 202.619695 69.361253 
L 201.619695 69.43817 
L 200.299442 69.465485 
" clip-path="url(#p8643e7a120)" style="fill: none; stroke: #ff7f0e; stroke-opacity: 0.5; stroke-width: 0.2; stroke-linecap: square"/>
   <path d="M 256.619695 107.086639 
L 255.619695 107.055203 
L 254.619695 107.018262 
L 253.619695 106.920516 
L 252.619695 106.887994 
L 251.619695 106.81437 
L 250.619695 106.775804 
L 249.619695 106.740391 
L 248.619695 106.682751 
L 247.619695 106.612365 
L 246.619695 106.5604 
L 245.619695 106.501311 
L 244.619695 106.41299 
L 243.619695 106.366845 
L 242.619695 106.324435 
L 241.619695 106.293942 
L 240.619695 106.267897 
L 239.619695 106.246697 
L 238.619695 106.192396 
L 237.619695 106.164458 
L 236.619695 106.134734 
L 235.619695 106.109339 
L 234.619695 106.098139 
L 233.619695 106.088015 
L 232.619695 106.088219 
L 231.619695 106.097729 
L 230.619695 106.109383 
L 229.619695 106.140412 
L 228.619695 106.15158 
L 227.619695 106.181698 
L 226.619695 106.241474 
L 225.619695 106.278666 
L 224.619695 106.317762 
L 223.619695 106.360202 
L 222.619695 106.392967 
L 221.619695 106.460393 
L 220.619695 106.499519 
L 219.619695 106.542194 
L 218.619695 106.612774 
L 217.619695 106.649165 
L 216.619695 106.707568 
L 215.619695 106.818521 
L 214.619695 106.889179 
L 213.619695 107.002119 
L 212.619695 107.047892 
L 211.619695 107.109175 
L 210.619695 107.157675 
L 209.619695 107.238497 
L 208.619695 107.357016 
L 207.619695 107.427227 
L 206.619695 107.510489 
L 205.619695 107.543631 
L 204.619695 107.594868 
L 203.619695 107.663267 
L 202.619695 107.729482 
L 201.619695 107.806399 
L 200.299442 107.833715 
" clip-path="url(#p8643e7a120)" style="fill: none; stroke: #ff7f0e; stroke-opacity: 0.5; stroke-width: 0.2; stroke-linecap: square"/>
   <path d="M 256.619695 288.986389 
L 255.619695 288.954952 
L 254.619695 288.918012 
L 253.619695 288.820265 
L 252.619695 288.787744 
L 251.619695 288.714119 
L 250.619695 288.675554 
L 249.619695 288.64014 
L 248.619695 288.5825 
L 247.619695 288.512114 
L 246.619695 288.46015 
L 245.619695 288.40106 
L 244.619695 288.312739 
L 243.619695 288.266595 
L 242.619695 288.224184 
L 241.619695 288.193691 
L 240.619695 288.167646 
L 239.619695 288.146446 
L 238.619695 288.092145 
L 237.619695 288.064208 
L 236.619695 288.034484 
L 235.619695 288.009089 
L 234.619695 287.997888 
L 233.619695 287.987765 
L 232.619695 287.987969 
L 231.619695 287.997479 
L 230.619695 288.009132 
L 229.619695 288.040162 
L 228.619695 288.051329 
L 227.619695 288.081447 
L 226.619695 288.141224 
L 225.619695 288.178416 
L 224.619695 288.217512 
L 223.619695 288.259951 
L 222.619695 288.292716 
L 221.619695 288.360143 
L 220.619695 288.399269 
L 219.619695 288.441943 
L 218.619695 288.512524 
L 217.619695 288.548915 
L 216.619695 288.607318 
L 215.619695 288.71827 
L 214.619695 288.788929 
L 213.619695 288.901869 
L 212.619695 288.947642 
L 211.619695 289.008925 
L 210.619695 289.057424 
L 209.619695 289.138247 
L 208.619695 289.256766 
L 207.619695 289.326976 
L 206.619695 289.410239 
L 205.619695 289.443381 
L 204.619695 289.494618 
L 203.619695 289.563016 
L 202.619695 289.629232 
L 201.619695 289.706149 
L 200.299442 289.733464 
" clip-path="url(#p8643e7a120)" style="fill: none; stroke: #ff7f0e; stroke-opacity: 0.5; stroke-width: 0.2; stroke-linecap: square"/>
   <path d="M 390.34593 24.193757 
L 391.34593 24.225194 
L 392.34593 24.262134 
L 393.34593 24.35988 
L 394.34593 24.392402 
L 395.34593 24.466027 
L 396.34593 24.504592 
L 397.34593 24.540006 
L 398.34593 24.597645 
L 399.34593 24.668032 
L 400.34593 24.719996 
L 401.34593 24.779086 
L 402.34593 24.867407 
L 403.34593 24.913551 
L 404.34593 24.955962 
L 405.34593 24.986454 
L 406.34593 25.012499 
L 407.34593 25.0337 
L 408.34593 25.088001 
L 409.34593 25.115938 
L 410.34593 25.145662 
L 411.34593 25.171057 
L 412.34593 25.182257 
L 413.34593 25.192381 
L 414.34593 25.192177 
L 415.34593 25.182667 
L 416.34593 25.171014 
L 417.34593 25.139984 
L 418.34593 25.128816 
L 419.34593 25.098699 
L 420.34593 25.038922 
L 421.34593 25.00173 
L 422.34593 24.962634 
L 423.34593 24.920195 
L 424.34593 24.88743 
L 425.34593 24.820003 
L 426.34593 24.780877 
L 427.34593 24.738203 
L 428.34593 24.667622 
L 429.34593 24.631231 
L 430.34593 24.572828 
L 431.34593 24.461875 
L 432.34593 24.391217 
L 433.34593 24.278277 
L 434.34593 24.232504 
L 435.34593 24.171221 
L 436.34593 24.122722 
L 437.34593 24.041899 
L 438.34593 23.92338 
L 439.34593 23.85317 
L 440.34593 23.769907 
L 441.34593 23.736765 
L 442.34593 23.685528 
L 443.34593 23.61713 
L 444.34593 23.550914 
L 445.34593 23.473997 
L 446.666183 23.446682 
" clip-path="url(#p8643e7a120)" style="fill: none; stroke: #ff7f0e; stroke-opacity: 0.5; stroke-width: 0.2; stroke-linecap: square"/>
   <path d="M 390.34593 311.327102 
L 391.34593 311.358539 
L 392.34593 311.395479 
L 393.34593 311.493225 
L 394.34593 311.525747 
L 395.34593 311.599372 
L 396.34593 311.637937 
L 397.34593 311.67335 
L 398.34593 311.73099 
L 399.34593 311.801377 
L 400.34593 311.853341 
L 401.34593 311.912431 
L 402.34593 312.000752 
L 403.34593 312.046896 
L 404.34593 312.089307 
L 405.34593 312.119799 
L 406.34593 312.145844 
L 407.34593 312.167045 
L 408.34593 312.221346 
L 409.34593 312.249283 
L 410.34593 312.279007 
L 411.34593 312.304402 
L 412.34593 312.315602 
L 413.34593 312.325726 
L 414.34593 312.325522 
L 415.34593 312.316012 
L 416.34593 312.304359 
L 417.34593 312.273329 
L 418.34593 312.262161 
L 419.34593 312.232044 
L 420.34593 312.172267 
L 421.34593 312.135075 
L 422.34593 312.095979 
L 423.34593 312.05354 
L 424.34593 312.020775 
L 425.34593 311.953348 
L 426.34593 311.914222 
L 427.34593 311.871548 
L 428.34593 311.800967 
L 429.34593 311.764576 
L 430.34593 311.706173 
L 431.34593 311.59522 
L 432.34593 311.524562 
L 433.34593 311.411622 
L 434.34593 311.365849 
L 435.34593 311.304566 
L 436.34593 311.256067 
L 437.34593 311.175244 
L 438.34593 311.056725 
L 439.34593 310.986515 
L 440.34593 310.903252 
L 441.34593 310.87011 
L 442.34593 310.818873 
L 443.34593 310.750475 
L 444.34593 310.684259 
L 445.34593 310.607342 
L 446.666183 310.580027 
" clip-path="url(#p8643e7a120)" style="fill: none; stroke: #ff7f0e; stroke-opacity: 0.5; stroke-width: 0.2; stroke-linecap: square"/>
   <path d="M 390.34593 249.402608 
L 391.34593 249.434044 
L 392.34593 249.470984 
L 393.34593 249.568731 
L 394.34593 249.601252 
L 395.34593 249.674877 
L 396.34593 249.713443 
L 397.34593 249.748856 
L 398.34593 249.806496 
L 399.34593 249.876882 
L 400.34593 249.928846 
L 401.34593 249.987936 
L 402.34593 250.076257 
L 403.34593 250.122401 
L 404.34593 250.164812 
L 405.34593 250.195305 
L 406.34593 250.22135 
L 407.34593 250.24255 
L 408.34593 250.296851 
L 409.34593 250.324789 
L 410.34593 250.354513 
L 411.34593 250.379907 
L 412.34593 250.391108 
L 413.34593 250.401232 
L 414.34593 250.401027 
L 415.34593 250.391517 
L 416.34593 250.379864 
L 417.34593 250.348835 
L 418.34593 250.337667 
L 419.34593 250.307549 
L 420.34593 250.247772 
L 421.34593 250.210581 
L 422.34593 250.171485 
L 423.34593 250.129045 
L 424.34593 250.09628 
L 425.34593 250.028853 
L 426.34593 249.989727 
L 427.34593 249.947053 
L 428.34593 249.876472 
L 429.34593 249.840081 
L 430.34593 249.781678 
L 431.34593 249.670726 
L 432.34593 249.600067 
L 433.34593 249.487128 
L 434.34593 249.441355 
L 435.34593 249.380071 
L 436.34593 249.331572 
L 437.34593 249.250749 
L 438.34593 249.132231 
L 439.34593 249.06202 
L 440.34593 248.978757 
L 441.34593 248.945616 
L 442.34593 248.894378 
L 443.34593 248.82598 
L 444.34593 248.759765 
L 445.34593 248.682847 
L 446.666183 248.655532 
" clip-path="url(#p8643e7a120)" style="fill: none; stroke: #ff7f0e; stroke-opacity: 0.5; stroke-width: 0.2; stroke-linecap: square"/>
   <path d="M 390.34593 250.086824 
L 391.34593 250.118261 
L 392.34593 250.155201 
L 393.34593 250.252947 
L 394.34593 250.285469 
L 395.34593 250.359094 
L 396.34593 250.397659 
L 397.34593 250.433072 
L 398.34593 250.490712 
L 399.34593 250.561099 
L 400.34593 250.613063 
L 401.34593 250.672153 
L 402.34593 250.760474 
L 403.34593 250.806618 
L 404.34593 250.849029 
L 405.34593 250.879521 
L 406.34593 250.905566 
L 407.34593 250.926767 
L 408.34593 250.981068 
L 409.34593 251.009005 
L 410.34593 251.038729 
L 411.34593 251.064124 
L 412.34593 251.075324 
L 413.34593 251.085448 
L 414.34593 251.085244 
L 415.34593 251.075734 
L 416.34593 251.064081 
L 417.34593 251.033051 
L 418.34593 251.021883 
L 419.34593 250.991766 
L 420.34593 250.931989 
L 421.34593 250.894797 
L 422.34593 250.855701 
L 423.34593 250.813262 
L 424.34593 250.780496 
L 425.34593 250.71307 
L 426.34593 250.673944 
L 427.34593 250.63127 
L 428.34593 250.560689 
L 429.34593 250.524298 
L 430.34593 250.465895 
L 431.34593 250.354942 
L 432.34593 250.284284 
L 433.34593 250.171344 
L 434.34593 250.125571 
L 435.34593 250.064288 
L 436.34593 250.015789 
L 437.34593 249.934966 
L 438.34593 249.816447 
L 439.34593 249.746237 
L 440.34593 249.662974 
L 441.34593 249.629832 
L 442.34593 249.578595 
L 443.34593 249.510197 
L 444.34593 249.443981 
L 445.34593 249.367064 
L 446.666183 249.339749 
" clip-path="url(#p8643e7a120)" style="fill: none; stroke: #ff7f0e; stroke-opacity: 0.5; stroke-width: 0.2; stroke-linecap: square"/>
   <path d="M 390.34593 135.551863 
L 391.34593 135.5833 
L 392.34593 135.62024 
L 393.34593 135.717986 
L 394.34593 135.750508 
L 395.34593 135.824133 
L 396.34593 135.862698 
L 397.34593 135.898111 
L 398.34593 135.955751 
L 399.34593 136.026138 
L 400.34593 136.078102 
L 401.34593 136.137192 
L 402.34593 136.225513 
L 403.34593 136.271657 
L 404.34593 136.314068 
L 405.34593 136.34456 
L 406.34593 136.370605 
L 407.34593 136.391805 
L 408.34593 136.446107 
L 409.34593 136.474044 
L 410.34593 136.503768 
L 411.34593 136.529163 
L 412.34593 136.540363 
L 413.34593 136.550487 
L 414.34593 136.550283 
L 415.34593 136.540773 
L 416.34593 136.529119 
L 417.34593 136.49809 
L 418.34593 136.486922 
L 419.34593 136.456805 
L 420.34593 136.397028 
L 421.34593 136.359836 
L 422.34593 136.32074 
L 423.34593 136.278301 
L 424.34593 136.245535 
L 425.34593 136.178109 
L 426.34593 136.138983 
L 427.34593 136.096309 
L 428.34593 136.025728 
L 429.34593 135.989337 
L 430.34593 135.930934 
L 431.34593 135.819981 
L 432.34593 135.749323 
L 433.34593 135.636383 
L 434.34593 135.59061 
L 435.34593 135.529327 
L 436.34593 135.480828 
L 437.34593 135.400005 
L 438.34593 135.281486 
L 439.34593 135.211275 
L 440.34593 135.128013 
L 441.34593 135.094871 
L 442.34593 135.043634 
L 443.34593 134.975236 
L 444.34593 134.90902 
L 445.34593 134.832103 
L 446.666183 134.804788 
" clip-path="url(#p8643e7a120)" style="fill: none; stroke: #ff7f0e; stroke-opacity: 0.5; stroke-width: 0.2; stroke-linecap: square"/>
   <path d="M 390.34593 264.835985 
L 391.34593 264.867421 
L 392.34593 264.904362 
L 393.34593 265.002108 
L 394.34593 265.03463 
L 395.34593 265.108254 
L 396.34593 265.14682 
L 397.34593 265.182233 
L 398.34593 265.239873 
L 399.34593 265.310259 
L 400.34593 265.362223 
L 401.34593 265.421313 
L 402.34593 265.509634 
L 403.34593 265.555778 
L 404.34593 265.598189 
L 405.34593 265.628682 
L 406.34593 265.654727 
L 407.34593 265.675927 
L 408.34593 265.730228 
L 409.34593 265.758166 
L 410.34593 265.78789 
L 411.34593 265.813285 
L 412.34593 265.824485 
L 413.34593 265.834609 
L 414.34593 265.834405 
L 415.34593 265.824895 
L 416.34593 265.813241 
L 417.34593 265.782212 
L 418.34593 265.771044 
L 419.34593 265.740926 
L 420.34593 265.68115 
L 421.34593 265.643958 
L 422.34593 265.604862 
L 423.34593 265.562422 
L 424.34593 265.529657 
L 425.34593 265.462231 
L 426.34593 265.423105 
L 427.34593 265.38043 
L 428.34593 265.30985 
L 429.34593 265.273459 
L 430.34593 265.215056 
L 431.34593 265.104103 
L 432.34593 265.033445 
L 433.34593 264.920505 
L 434.34593 264.874732 
L 435.34593 264.813449 
L 436.34593 264.764949 
L 437.34593 264.684127 
L 438.34593 264.565608 
L 439.34593 264.495397 
L 440.34593 264.412135 
L 441.34593 264.378993 
L 442.34593 264.327756 
L 443.34593 264.259357 
L 444.34593 264.193142 
L 445.34593 264.116225 
L 446.666183 264.088909 
" clip-path="url(#p8643e7a120)" style="fill: none; stroke: #ff7f0e; stroke-opacity: 0.5; stroke-width: 0.2; stroke-linecap: square"/>
   <path d="M 390.34593 121.762934 
L 391.34593 121.794371 
L 392.34593 121.831311 
L 393.34593 121.929058 
L 394.34593 121.961579 
L 395.34593 122.035204 
L 396.34593 122.073769 
L 397.34593 122.109183 
L 398.34593 122.166823 
L 399.34593 122.237209 
L 400.34593 122.289173 
L 401.34593 122.348263 
L 402.34593 122.436584 
L 403.34593 122.482728 
L 404.34593 122.525139 
L 405.34593 122.555632 
L 406.34593 122.581677 
L 407.34593 122.602877 
L 408.34593 122.657178 
L 409.34593 122.685115 
L 410.34593 122.714839 
L 411.34593 122.740234 
L 412.34593 122.751434 
L 413.34593 122.761558 
L 414.34593 122.761354 
L 415.34593 122.751844 
L 416.34593 122.740191 
L 417.34593 122.709161 
L 418.34593 122.697993 
L 419.34593 122.667876 
L 420.34593 122.608099 
L 421.34593 122.570907 
L 422.34593 122.531811 
L 423.34593 122.489372 
L 424.34593 122.456607 
L 425.34593 122.38918 
L 426.34593 122.350054 
L 427.34593 122.30738 
L 428.34593 122.236799 
L 429.34593 122.200408 
L 430.34593 122.142005 
L 431.34593 122.031052 
L 432.34593 121.960394 
L 433.34593 121.847454 
L 434.34593 121.801681 
L 435.34593 121.740398 
L 436.34593 121.691899 
L 437.34593 121.611076 
L 438.34593 121.492557 
L 439.34593 121.422347 
L 440.34593 121.339084 
L 441.34593 121.305942 
L 442.34593 121.254705 
L 443.34593 121.186307 
L 444.34593 121.120091 
L 445.34593 121.043174 
L 446.666183 121.015859 
" clip-path="url(#p8643e7a120)" style="fill: none; stroke: #ff7f0e; stroke-opacity: 0.5; stroke-width: 0.2; stroke-linecap: square"/>
   <path d="M 390.34593 303.214336 
L 391.34593 303.245773 
L 392.34593 303.282713 
L 393.34593 303.38046 
L 394.34593 303.412981 
L 395.34593 303.486606 
L 396.34593 303.525172 
L 397.34593 303.560585 
L 398.34593 303.618225 
L 399.34593 303.688611 
L 400.34593 303.740575 
L 401.34593 303.799665 
L 402.34593 303.887986 
L 403.34593 303.93413 
L 404.34593 303.976541 
L 405.34593 304.007034 
L 406.34593 304.033079 
L 407.34593 304.054279 
L 408.34593 304.10858 
L 409.34593 304.136517 
L 410.34593 304.166241 
L 411.34593 304.191636 
L 412.34593 304.202837 
L 413.34593 304.21296 
L 414.34593 304.212756 
L 415.34593 304.203246 
L 416.34593 304.191593 
L 417.34593 304.160563 
L 418.34593 304.149396 
L 419.34593 304.119278 
L 420.34593 304.059501 
L 421.34593 304.02231 
L 422.34593 303.983213 
L 423.34593 303.940774 
L 424.34593 303.908009 
L 425.34593 303.840582 
L 426.34593 303.801456 
L 427.34593 303.758782 
L 428.34593 303.688201 
L 429.34593 303.65181 
L 430.34593 303.593407 
L 431.34593 303.482455 
L 432.34593 303.411796 
L 433.34593 303.298856 
L 434.34593 303.253084 
L 435.34593 303.1918 
L 436.34593 303.143301 
L 437.34593 303.062478 
L 438.34593 302.943959 
L 439.34593 302.873749 
L 440.34593 302.790486 
L 441.34593 302.757344 
L 442.34593 302.706107 
L 443.34593 302.637709 
L 444.34593 302.571493 
L 445.34593 302.494576 
L 446.666183 302.467261 
" clip-path="url(#p8643e7a120)" style="fill: none; stroke: #ff7f0e; stroke-opacity: 0.5; stroke-width: 0.2; stroke-linecap: square"/>
   <path d="M 390.34593 54.697915 
L 391.34593 54.729351 
L 392.34593 54.766291 
L 393.34593 54.864038 
L 394.34593 54.89656 
L 395.34593 54.970184 
L 396.34593 55.00875 
L 397.34593 55.044163 
L 398.34593 55.101803 
L 399.34593 55.172189 
L 400.34593 55.224153 
L 401.34593 55.283243 
L 402.34593 55.371564 
L 403.34593 55.417708 
L 404.34593 55.460119 
L 405.34593 55.490612 
L 406.34593 55.516657 
L 407.34593 55.537857 
L 408.34593 55.592158 
L 409.34593 55.620096 
L 410.34593 55.64982 
L 411.34593 55.675214 
L 412.34593 55.686415 
L 413.34593 55.696539 
L 414.34593 55.696334 
L 415.34593 55.686825 
L 416.34593 55.675171 
L 417.34593 55.644142 
L 418.34593 55.632974 
L 419.34593 55.602856 
L 420.34593 55.543079 
L 421.34593 55.505888 
L 422.34593 55.466792 
L 423.34593 55.424352 
L 424.34593 55.391587 
L 425.34593 55.324161 
L 426.34593 55.285035 
L 427.34593 55.24236 
L 428.34593 55.171779 
L 429.34593 55.135389 
L 430.34593 55.076985 
L 431.34593 54.966033 
L 432.34593 54.895375 
L 433.34593 54.782435 
L 434.34593 54.736662 
L 435.34593 54.675379 
L 436.34593 54.626879 
L 437.34593 54.546057 
L 438.34593 54.427538 
L 439.34593 54.357327 
L 440.34593 54.274065 
L 441.34593 54.240923 
L 442.34593 54.189685 
L 443.34593 54.121287 
L 444.34593 54.055072 
L 445.34593 53.978155 
L 446.666183 53.950839 
" clip-path="url(#p8643e7a120)" style="fill: none; stroke: #ff7f0e; stroke-opacity: 0.5; stroke-width: 0.2; stroke-linecap: square"/>
   <path d="M 390.34593 133.041991 
L 391.34593 133.073428 
L 392.34593 133.110368 
L 393.34593 133.208114 
L 394.34593 133.240636 
L 395.34593 133.314261 
L 396.34593 133.352826 
L 397.34593 133.388239 
L 398.34593 133.445879 
L 399.34593 133.516266 
L 400.34593 133.56823 
L 401.34593 133.62732 
L 402.34593 133.715641 
L 403.34593 133.761785 
L 404.34593 133.804196 
L 405.34593 133.834688 
L 406.34593 133.860733 
L 407.34593 133.881933 
L 408.34593 133.936235 
L 409.34593 133.964172 
L 410.34593 133.993896 
L 411.34593 134.019291 
L 412.34593 134.030491 
L 413.34593 134.040615 
L 414.34593 134.040411 
L 415.34593 134.030901 
L 416.34593 134.019248 
L 417.34593 133.988218 
L 418.34593 133.97705 
L 419.34593 133.946933 
L 420.34593 133.887156 
L 421.34593 133.849964 
L 422.34593 133.810868 
L 423.34593 133.768429 
L 424.34593 133.735663 
L 425.34593 133.668237 
L 426.34593 133.629111 
L 427.34593 133.586437 
L 428.34593 133.515856 
L 429.34593 133.479465 
L 430.34593 133.421062 
L 431.34593 133.310109 
L 432.34593 133.239451 
L 433.34593 133.126511 
L 434.34593 133.080738 
L 435.34593 133.019455 
L 436.34593 132.970956 
L 437.34593 132.890133 
L 438.34593 132.771614 
L 439.34593 132.701404 
L 440.34593 132.618141 
L 441.34593 132.584999 
L 442.34593 132.533762 
L 443.34593 132.465364 
L 444.34593 132.399148 
L 445.34593 132.322231 
L 446.666183 132.294916 
" clip-path="url(#p8643e7a120)" style="fill: none; stroke: #ff7f0e; stroke-opacity: 0.5; stroke-width: 0.2; stroke-linecap: square"/>
   <path d="M 446.666183 135.421013 
L 445.666183 135.389577 
L 444.666183 135.352636 
L 443.666183 135.25489 
L 442.666183 135.222368 
L 441.666183 135.148744 
L 440.666183 135.110178 
L 439.666183 135.074765 
L 438.666183 135.017125 
L 437.666183 134.946739 
L 436.666183 134.894775 
L 435.666183 134.835685 
L 434.666183 134.747364 
L 433.666183 134.70122 
L 432.666183 134.658809 
L 431.666183 134.628316 
L 430.666183 134.602271 
L 429.666183 134.581071 
L 428.666183 134.52677 
L 427.666183 134.498832 
L 426.666183 134.469108 
L 425.666183 134.443713 
L 424.666183 134.432513 
L 423.666183 134.422389 
L 422.666183 134.422593 
L 421.666183 134.432103 
L 420.666183 134.443757 
L 419.666183 134.474786 
L 418.666183 134.485954 
L 417.666183 134.516072 
L 416.666183 134.575849 
L 415.666183 134.61304 
L 414.666183 134.652136 
L 413.666183 134.694576 
L 412.666183 134.727341 
L 411.666183 134.794767 
L 410.666183 134.833893 
L 409.666183 134.876568 
L 408.666183 134.947148 
L 407.666183 134.983539 
L 406.666183 135.041942 
L 405.666183 135.152895 
L 404.666183 135.223553 
L 403.666183 135.336493 
L 402.666183 135.382266 
L 401.666183 135.443549 
L 400.666183 135.492049 
L 399.666183 135.572871 
L 398.666183 135.69139 
L 397.666183 135.761601 
L 396.666183 135.844863 
L 395.666183 135.878005 
L 394.666183 135.929242 
L 393.666183 135.997641 
L 392.666183 136.063856 
L 391.666183 136.140773 
L 390.34593 136.168089 
" clip-path="url(#p8643e7a120)" style="fill: none; stroke: #2ca02c; stroke-opacity: 0.5; stroke-width: 0.2; stroke-linecap: square"/>
   <path d="M 446.666183 148.901538 
L 445.666183 148.870102 
L 444.666183 148.833161 
L 443.666183 148.735415 
L 442.666183 148.702893 
L 441.666183 148.629269 
L 440.666183 148.590703 
L 439.666183 148.55529 
L 438.666183 148.49765 
L 437.666183 148.427264 
L 436.666183 148.375299 
L 435.666183 148.31621 
L 434.666183 148.227889 
L 433.666183 148.181744 
L 432.666183 148.139334 
L 431.666183 148.108841 
L 430.666183 148.082796 
L 429.666183 148.061596 
L 428.666183 148.007295 
L 427.666183 147.979357 
L 426.666183 147.949633 
L 425.666183 147.924238 
L 424.666183 147.913038 
L 423.666183 147.902914 
L 422.666183 147.903118 
L 421.666183 147.912628 
L 420.666183 147.924282 
L 419.666183 147.955311 
L 418.666183 147.966479 
L 417.666183 147.996596 
L 416.666183 148.056373 
L 415.666183 148.093565 
L 414.666183 148.132661 
L 413.666183 148.175101 
L 412.666183 148.207866 
L 411.666183 148.275292 
L 410.666183 148.314418 
L 409.666183 148.357093 
L 408.666183 148.427673 
L 407.666183 148.464064 
L 406.666183 148.522467 
L 405.666183 148.63342 
L 404.666183 148.704078 
L 403.666183 148.817018 
L 402.666183 148.862791 
L 401.666183 148.924074 
L 400.666183 148.972574 
L 399.666183 149.053396 
L 398.666183 149.171915 
L 397.666183 149.242126 
L 396.666183 149.325388 
L 395.666183 149.35853 
L 394.666183 149.409767 
L 393.666183 149.478166 
L 392.666183 149.544381 
L 391.666183 149.621298 
L 390.34593 149.648614 
" clip-path="url(#p8643e7a120)" style="fill: none; stroke: #2ca02c; stroke-opacity: 0.5; stroke-width: 0.2; stroke-linecap: square"/>
   <path d="M 446.666183 69.670374 
L 445.666183 69.638938 
L 444.666183 69.601997 
L 443.666183 69.504251 
L 442.666183 69.471729 
L 441.666183 69.398105 
L 440.666183 69.359539 
L 439.666183 69.324126 
L 438.666183 69.266486 
L 437.666183 69.1961 
L 436.666183 69.144136 
L 435.666183 69.085046 
L 434.666183 68.996725 
L 433.666183 68.95058 
L 432.666183 68.90817 
L 431.666183 68.877677 
L 430.666183 68.851632 
L 429.666183 68.830432 
L 428.666183 68.776131 
L 427.666183 68.748193 
L 426.666183 68.718469 
L 425.666183 68.693074 
L 424.666183 68.681874 
L 423.666183 68.67175 
L 422.666183 68.671954 
L 421.666183 68.681464 
L 420.666183 68.693118 
L 419.666183 68.724147 
L 418.666183 68.735315 
L 417.666183 68.765433 
L 416.666183 68.825209 
L 415.666183 68.862401 
L 414.666183 68.901497 
L 413.666183 68.943937 
L 412.666183 68.976702 
L 411.666183 69.044128 
L 410.666183 69.083254 
L 409.666183 69.125929 
L 408.666183 69.196509 
L 407.666183 69.2329 
L 406.666183 69.291303 
L 405.666183 69.402256 
L 404.666183 69.472914 
L 403.666183 69.585854 
L 402.666183 69.631627 
L 401.666183 69.69291 
L 400.666183 69.74141 
L 399.666183 69.822232 
L 398.666183 69.940751 
L 397.666183 70.010962 
L 396.666183 70.094224 
L 395.666183 70.127366 
L 394.666183 70.178603 
L 393.666183 70.247002 
L 392.666183 70.313217 
L 391.666183 70.390134 
L 390.34593 70.41745 
" clip-path="url(#p8643e7a120)" style="fill: none; stroke: #2ca02c; stroke-opacity: 0.5; stroke-width: 0.2; stroke-linecap: square"/>
   <path d="M 446.666183 177.317444 
L 445.666183 177.286007 
L 444.666183 177.249067 
L 443.666183 177.15132 
L 442.666183 177.118799 
L 441.666183 177.045174 
L 440.666183 177.006609 
L 439.666183 176.971195 
L 438.666183 176.913555 
L 437.666183 176.843169 
L 436.666183 176.791205 
L 435.666183 176.732115 
L 434.666183 176.643794 
L 433.666183 176.59765 
L 432.666183 176.555239 
L 431.666183 176.524746 
L 430.666183 176.498701 
L 429.666183 176.477501 
L 428.666183 176.4232 
L 427.666183 176.395263 
L 426.666183 176.365539 
L 425.666183 176.340144 
L 424.666183 176.328944 
L 423.666183 176.31882 
L 422.666183 176.319024 
L 421.666183 176.328534 
L 420.666183 176.340187 
L 419.666183 176.371217 
L 418.666183 176.382385 
L 417.666183 176.412502 
L 416.666183 176.472279 
L 415.666183 176.509471 
L 414.666183 176.548567 
L 413.666183 176.591006 
L 412.666183 176.623771 
L 411.666183 176.691198 
L 410.666183 176.730324 
L 409.666183 176.772998 
L 408.666183 176.843579 
L 407.666183 176.87997 
L 406.666183 176.938373 
L 405.666183 177.049326 
L 404.666183 177.119984 
L 403.666183 177.232924 
L 402.666183 177.278697 
L 401.666183 177.33998 
L 400.666183 177.388479 
L 399.666183 177.469302 
L 398.666183 177.587821 
L 397.666183 177.658031 
L 396.666183 177.741294 
L 395.666183 177.774436 
L 394.666183 177.825673 
L 393.666183 177.894071 
L 392.666183 177.960287 
L 391.666183 178.037204 
L 390.34593 178.064519 
" clip-path="url(#p8643e7a120)" style="fill: none; stroke: #2ca02c; stroke-opacity: 0.5; stroke-width: 0.2; stroke-linecap: square"/>
   <path d="M 446.666183 93.409123 
L 445.666183 93.377687 
L 444.666183 93.340747 
L 443.666183 93.243 
L 442.666183 93.210478 
L 441.666183 93.136854 
L 440.666183 93.098288 
L 439.666183 93.062875 
L 438.666183 93.005235 
L 437.666183 92.934849 
L 436.666183 92.882885 
L 435.666183 92.823795 
L 434.666183 92.735474 
L 433.666183 92.68933 
L 432.666183 92.646919 
L 431.666183 92.616426 
L 430.666183 92.590381 
L 429.666183 92.569181 
L 428.666183 92.51488 
L 427.666183 92.486942 
L 426.666183 92.457218 
L 425.666183 92.431824 
L 424.666183 92.420623 
L 423.666183 92.410499 
L 422.666183 92.410704 
L 421.666183 92.420213 
L 420.666183 92.431867 
L 419.666183 92.462896 
L 418.666183 92.474064 
L 417.666183 92.504182 
L 416.666183 92.563959 
L 415.666183 92.60115 
L 414.666183 92.640246 
L 413.666183 92.682686 
L 412.666183 92.715451 
L 411.666183 92.782877 
L 410.666183 92.822003 
L 409.666183 92.864678 
L 408.666183 92.935259 
L 407.666183 92.971649 
L 406.666183 93.030053 
L 405.666183 93.141005 
L 404.666183 93.211663 
L 403.666183 93.324603 
L 402.666183 93.370376 
L 401.666183 93.431659 
L 400.666183 93.480159 
L 399.666183 93.560981 
L 398.666183 93.6795 
L 397.666183 93.749711 
L 396.666183 93.832973 
L 395.666183 93.866115 
L 394.666183 93.917353 
L 393.666183 93.985751 
L 392.666183 94.051966 
L 391.666183 94.128883 
L 390.34593 94.156199 
" clip-path="url(#p8643e7a120)" style="fill: none; stroke: #2ca02c; stroke-opacity: 0.5; stroke-width: 0.2; stroke-linecap: square"/>
   <path d="M 446.666183 290.458786 
L 445.666183 290.42735 
L 444.666183 290.390409 
L 443.666183 290.292663 
L 442.666183 290.260141 
L 441.666183 290.186516 
L 440.666183 290.147951 
L 439.666183 290.112538 
L 438.666183 290.054898 
L 437.666183 289.984512 
L 436.666183 289.932547 
L 435.666183 289.873458 
L 434.666183 289.785137 
L 433.666183 289.738992 
L 432.666183 289.696581 
L 431.666183 289.666089 
L 430.666183 289.640044 
L 429.666183 289.618844 
L 428.666183 289.564543 
L 427.666183 289.536605 
L 426.666183 289.506881 
L 425.666183 289.481486 
L 424.666183 289.470286 
L 423.666183 289.460162 
L 422.666183 289.460366 
L 421.666183 289.469876 
L 420.666183 289.48153 
L 419.666183 289.512559 
L 418.666183 289.523727 
L 417.666183 289.553844 
L 416.666183 289.613621 
L 415.666183 289.650813 
L 414.666183 289.689909 
L 413.666183 289.732349 
L 412.666183 289.765114 
L 411.666183 289.83254 
L 410.666183 289.871666 
L 409.666183 289.914341 
L 408.666183 289.984921 
L 407.666183 290.021312 
L 406.666183 290.079715 
L 405.666183 290.190668 
L 404.666183 290.261326 
L 403.666183 290.374266 
L 402.666183 290.420039 
L 401.666183 290.481322 
L 400.666183 290.529821 
L 399.666183 290.610644 
L 398.666183 290.729163 
L 397.666183 290.799374 
L 396.666183 290.882636 
L 395.666183 290.915778 
L 394.666183 290.967015 
L 393.666183 291.035414 
L 392.666183 291.101629 
L 391.666183 291.178546 
L 390.34593 291.205862 
" clip-path="url(#p8643e7a120)" style="fill: none; stroke: #2ca02c; stroke-opacity: 0.5; stroke-width: 0.2; stroke-linecap: square"/>
   <path d="M 446.666183 209.493633 
L 445.666183 209.462197 
L 444.666183 209.425257 
L 443.666183 209.32751 
L 442.666183 209.294988 
L 441.666183 209.221364 
L 440.666183 209.182798 
L 439.666183 209.147385 
L 438.666183 209.089745 
L 437.666183 209.019359 
L 436.666183 208.967395 
L 435.666183 208.908305 
L 434.666183 208.819984 
L 433.666183 208.77384 
L 432.666183 208.731429 
L 431.666183 208.700936 
L 430.666183 208.674891 
L 429.666183 208.653691 
L 428.666183 208.59939 
L 427.666183 208.571452 
L 426.666183 208.541728 
L 425.666183 208.516334 
L 424.666183 208.505133 
L 423.666183 208.495009 
L 422.666183 208.495214 
L 421.666183 208.504723 
L 420.666183 208.516377 
L 419.666183 208.547406 
L 418.666183 208.558574 
L 417.666183 208.588692 
L 416.666183 208.648469 
L 415.666183 208.68566 
L 414.666183 208.724756 
L 413.666183 208.767196 
L 412.666183 208.799961 
L 411.666183 208.867387 
L 410.666183 208.906513 
L 409.666183 208.949188 
L 408.666183 209.019769 
L 407.666183 209.056159 
L 406.666183 209.114563 
L 405.666183 209.225515 
L 404.666183 209.296173 
L 403.666183 209.409113 
L 402.666183 209.454886 
L 401.666183 209.516169 
L 400.666183 209.564669 
L 399.666183 209.645491 
L 398.666183 209.76401 
L 397.666183 209.834221 
L 396.666183 209.917483 
L 395.666183 209.950625 
L 394.666183 210.001863 
L 393.666183 210.070261 
L 392.666183 210.136476 
L 391.666183 210.213393 
L 390.34593 210.240709 
" clip-path="url(#p8643e7a120)" style="fill: none; stroke: #2ca02c; stroke-opacity: 0.5; stroke-width: 0.2; stroke-linecap: square"/>
   <path d="M 446.666183 64.901021 
L 445.666183 64.869584 
L 444.666183 64.832644 
L 443.666183 64.734897 
L 442.666183 64.702376 
L 441.666183 64.628751 
L 440.666183 64.590185 
L 439.666183 64.554772 
L 438.666183 64.497132 
L 437.666183 64.426746 
L 436.666183 64.374782 
L 435.666183 64.315692 
L 434.666183 64.227371 
L 433.666183 64.181227 
L 432.666183 64.138816 
L 431.666183 64.108323 
L 430.666183 64.082278 
L 429.666183 64.061078 
L 428.666183 64.006777 
L 427.666183 63.97884 
L 426.666183 63.949116 
L 425.666183 63.923721 
L 424.666183 63.91252 
L 423.666183 63.902396 
L 422.666183 63.902601 
L 421.666183 63.912111 
L 420.666183 63.923764 
L 419.666183 63.954793 
L 418.666183 63.965961 
L 417.666183 63.996079 
L 416.666183 64.055856 
L 415.666183 64.093047 
L 414.666183 64.132143 
L 413.666183 64.174583 
L 412.666183 64.207348 
L 411.666183 64.274775 
L 410.666183 64.313901 
L 409.666183 64.356575 
L 408.666183 64.427156 
L 407.666183 64.463547 
L 406.666183 64.52195 
L 405.666183 64.632902 
L 404.666183 64.703561 
L 403.666183 64.8165 
L 402.666183 64.862273 
L 401.666183 64.923557 
L 400.666183 64.972056 
L 399.666183 65.052879 
L 398.666183 65.171398 
L 397.666183 65.241608 
L 396.666183 65.324871 
L 395.666183 65.358012 
L 394.666183 65.40925 
L 393.666183 65.477648 
L 392.666183 65.543864 
L 391.666183 65.620781 
L 390.34593 65.648096 
" clip-path="url(#p8643e7a120)" style="fill: none; stroke: #2ca02c; stroke-opacity: 0.5; stroke-width: 0.2; stroke-linecap: square"/>
   <path d="M 446.666183 309.981665 
L 445.666183 309.950228 
L 444.666183 309.913288 
L 443.666183 309.815541 
L 442.666183 309.78302 
L 441.666183 309.709395 
L 440.666183 309.670829 
L 439.666183 309.635416 
L 438.666183 309.577776 
L 437.666183 309.50739 
L 436.666183 309.455426 
L 435.666183 309.396336 
L 434.666183 309.308015 
L 433.666183 309.261871 
L 432.666183 309.21946 
L 431.666183 309.188967 
L 430.666183 309.162922 
L 429.666183 309.141722 
L 428.666183 309.087421 
L 427.666183 309.059484 
L 426.666183 309.02976 
L 425.666183 309.004365 
L 424.666183 308.993164 
L 423.666183 308.98304 
L 422.666183 308.983245 
L 421.666183 308.992755 
L 420.666183 309.004408 
L 419.666183 309.035437 
L 418.666183 309.046605 
L 417.666183 309.076723 
L 416.666183 309.1365 
L 415.666183 309.173691 
L 414.666183 309.212788 
L 413.666183 309.255227 
L 412.666183 309.287992 
L 411.666183 309.355419 
L 410.666183 309.394545 
L 409.666183 309.437219 
L 408.666183 309.5078 
L 407.666183 309.544191 
L 406.666183 309.602594 
L 405.666183 309.713546 
L 404.666183 309.784205 
L 403.666183 309.897145 
L 402.666183 309.942917 
L 401.666183 310.004201 
L 400.666183 310.0527 
L 399.666183 310.133523 
L 398.666183 310.252042 
L 397.666183 310.322252 
L 396.666183 310.405515 
L 395.666183 310.438656 
L 394.666183 310.489894 
L 393.666183 310.558292 
L 392.666183 310.624508 
L 391.666183 310.701425 
L 390.34593 310.72874 
" clip-path="url(#p8643e7a120)" style="fill: none; stroke: #2ca02c; stroke-opacity: 0.5; stroke-width: 0.2; stroke-linecap: square"/>
   <path d="M 446.666183 269.652531 
L 445.666183 269.621094 
L 444.666183 269.584154 
L 443.666183 269.486408 
L 442.666183 269.453886 
L 441.666183 269.380261 
L 440.666183 269.341696 
L 439.666183 269.306283 
L 438.666183 269.248643 
L 437.666183 269.178256 
L 436.666183 269.126292 
L 435.666183 269.067202 
L 434.666183 268.978881 
L 433.666183 268.932737 
L 432.666183 268.890326 
L 431.666183 268.859834 
L 430.666183 268.833789 
L 429.666183 268.812588 
L 428.666183 268.758287 
L 427.666183 268.73035 
L 426.666183 268.700626 
L 425.666183 268.675231 
L 424.666183 268.664031 
L 423.666183 268.653907 
L 422.666183 268.654111 
L 421.666183 268.663621 
L 420.666183 268.675274 
L 419.666183 268.706304 
L 418.666183 268.717472 
L 417.666183 268.747589 
L 416.666183 268.807366 
L 415.666183 268.844558 
L 414.666183 268.883654 
L 413.666183 268.926093 
L 412.666183 268.958858 
L 411.666183 269.026285 
L 410.666183 269.065411 
L 409.666183 269.108085 
L 408.666183 269.178666 
L 407.666183 269.215057 
L 406.666183 269.27346 
L 405.666183 269.384413 
L 404.666183 269.455071 
L 403.666183 269.568011 
L 402.666183 269.613784 
L 401.666183 269.675067 
L 400.666183 269.723566 
L 399.666183 269.804389 
L 398.666183 269.922908 
L 397.666183 269.993118 
L 396.666183 270.076381 
L 395.666183 270.109523 
L 394.666183 270.16076 
L 393.666183 270.229158 
L 392.666183 270.295374 
L 391.666183 270.372291 
L 390.34593 270.399606 
" clip-path="url(#p8643e7a120)" style="fill: none; stroke: #2ca02c; stroke-opacity: 0.5; stroke-width: 0.2; stroke-linecap: square"/>
   <g id="patch_3">
    <path d="M 72.103551 22.318125 
L 72.103551 318.021875 
M 194.769098 22.318125 
L 194.769098 318.021875 
" clip-path="url(#p8643e7a120)" style="fill: none; stroke: #ffffff; stroke-width: 3; stroke-linejoin: miter"/>
    <path d="M 72.103551 22.318125 
L 72.103551 318.021875 
M 194.769098 22.318125 
L 194.769098 318.021875 
" clip-path="url(#p8643e7a120)" style="fill: none; stroke: #1f77b4; stroke-linejoin: miter"/>
    <g id="PolyCollection_1">
     <path d="M 194.769098 22.318125 
L 72.103551 22.318125 
L 72.103551 318.021875 
L 194.769098 318.021875 
L 194.769098 318.021875 
L 194.769098 22.318125 
z
" clip-path="url(#p8643e7a120)" style="fill: #1f77b4; fill-opacity: 0.5"/>
    </g>
    <g id="patch_4">
     <path d="M 262.150039 22.318125 
L 262.150039 318.021875 
M 384.815586 22.318125 
L 384.815586 318.021875 
" clip-path="url(#p8643e7a120)" style="fill: none; stroke: #ffffff; stroke-width: 3; stroke-linejoin: miter"/>
     <path d="M 262.150039 22.318125 
L 262.150039 318.021875 
M 384.815586 22.318125 
L 384.815586 318.021875 
" clip-path="url(#p8643e7a120)" style="fill: none; stroke: #ff7f0e; stroke-linejoin: miter"/>
     <g id="PolyCollection_2">
      <path d="M 384.815586 22.318125 
L 262.150039 22.318125 
L 262.150039 318.021875 
L 384.815586 318.021875 
L 384.815586 318.021875 
L 384.815586 22.318125 
z
" clip-path="url(#p8643e7a120)" style="fill: #ff7f0e; fill-opacity: 0.5"/>
     </g>
     <g id="patch_5">
      <path d="M 452.196527 22.318125 
L 452.196527 318.021875 
M 574.862074 22.318125 
L 574.862074 318.021875 
" clip-path="url(#p8643e7a120)" style="fill: none; stroke: #ffffff; stroke-width: 3; stroke-linejoin: miter"/>
      <path d="M 452.196527 22.318125 
L 452.196527 318.021875 
M 574.862074 22.318125 
L 574.862074 318.021875 
" clip-path="url(#p8643e7a120)" style="fill: none; stroke: #2ca02c; stroke-linejoin: miter"/>
      <g id="PolyCollection_3">
       <path d="M 574.862074 22.318125 
L 452.196527 22.318125 
L 452.196527 318.021875 
L 574.862074 318.021875 
L 574.862074 318.021875 
L 574.862074 22.318125 
z
" clip-path="url(#p8643e7a120)" style="fill: #2ca02c; fill-opacity: 0.5"/>
      </g>
      <g id="matplotlib.axis_1">
       <g id="xtick_1">
        <g id="line2d_1"/>
        <g id="text_1">
         <!-- deme1 -->
         <g transform="translate(116.057418 329.120312) scale(0.1 -0.1)">
          <defs>
           <path id="DejaVuSans-64" d="M 2906 2969 
L 2906 4863 
L 3481 4863 
L 3481 0 
L 2906 0 
L 2906 525 
Q 2725 213 2448 61 
Q 2172 -91 1784 -91 
Q 1150 -91 751 415 
Q 353 922 353 1747 
Q 353 2572 751 3078 
Q 1150 3584 1784 3584 
Q 2172 3584 2448 3432 
Q 2725 3281 2906 2969 
z
M 947 1747 
Q 947 1113 1208 752 
Q 1469 391 1925 391 
Q 2381 391 2643 752 
Q 2906 1113 2906 1747 
Q 2906 2381 2643 2742 
Q 2381 3103 1925 3103 
Q 1469 3103 1208 2742 
Q 947 2381 947 1747 
z
" transform="scale(0.015625)"/>
           <path id="DejaVuSans-65" d="M 3597 1894 
L 3597 1613 
L 953 1613 
Q 991 1019 1311 708 
Q 1631 397 2203 397 
Q 2534 397 2845 478 
Q 3156 559 3463 722 
L 3463 178 
Q 3153 47 2828 -22 
Q 2503 -91 2169 -91 
Q 1331 -91 842 396 
Q 353 884 353 1716 
Q 353 2575 817 3079 
Q 1281 3584 2069 3584 
Q 2775 3584 3186 3129 
Q 3597 2675 3597 1894 
z
M 3022 2063 
Q 3016 2534 2758 2815 
Q 2500 3097 2075 3097 
Q 1594 3097 1305 2825 
Q 1016 2553 972 2059 
L 3022 2063 
z
" transform="scale(0.015625)"/>
           <path id="DejaVuSans-6d" d="M 3328 2828 
Q 3544 3216 3844 3400 
Q 4144 3584 4550 3584 
Q 5097 3584 5394 3201 
Q 5691 2819 5691 2113 
L 5691 0 
L 5113 0 
L 5113 2094 
Q 5113 2597 4934 2840 
Q 4756 3084 4391 3084 
Q 3944 3084 3684 2787 
Q 3425 2491 3425 1978 
L 3425 0 
L 2847 0 
L 2847 2094 
Q 2847 2600 2669 2842 
Q 2491 3084 2119 3084 
Q 1678 3084 1418 2786 
Q 1159 2488 1159 1978 
L 1159 0 
L 581 0 
L 581 3500 
L 1159 3500 
L 1159 2956 
Q 1356 3278 1631 3431 
Q 1906 3584 2284 3584 
Q 2666 3584 2933 3390 
Q 3200 3197 3328 2828 
z
" transform="scale(0.015625)"/>
           <path id="DejaVuSans-31" d="M 794 531 
L 1825 531 
L 1825 4091 
L 703 3866 
L 703 4441 
L 1819 4666 
L 2450 4666 
L 2450 531 
L 3481 531 
L 3481 0 
L 794 0 
L 794 531 
z
" transform="scale(0.015625)"/>
          </defs>
          <use xlink:href="#DejaVuSans-64"/>
          <use xlink:href="#DejaVuSans-65" x="63.476562"/>
          <use xlink:href="#DejaVuSans-6d" x="125"/>
          <use xlink:href="#DejaVuSans-65" x="222.412109"/>
          <use xlink:href="#DejaVuSans-31" x="283.935547"/>
         </g>
        </g>
       </g>
       <g id="xtick_2">
        <g id="line2d_2"/>
        <g id="text_2">
         <!-- deme2 -->
         <g transform="translate(306.103906 329.120312) scale(0.1 -0.1)">
          <defs>
           <path id="DejaVuSans-32" d="M 1228 531 
L 3431 531 
L 3431 0 
L 469 0 
L 469 531 
Q 828 903 1448 1529 
Q 2069 2156 2228 2338 
Q 2531 2678 2651 2914 
Q 2772 3150 2772 3378 
Q 2772 3750 2511 3984 
Q 2250 4219 1831 4219 
Q 1534 4219 1204 4116 
Q 875 4013 500 3803 
L 500 4441 
Q 881 4594 1212 4672 
Q 1544 4750 1819 4750 
Q 2544 4750 2975 4387 
Q 3406 4025 3406 3419 
Q 3406 3131 3298 2873 
Q 3191 2616 2906 2266 
Q 2828 2175 2409 1742 
Q 1991 1309 1228 531 
z
" transform="scale(0.015625)"/>
          </defs>
          <use xlink:href="#DejaVuSans-64"/>
          <use xlink:href="#DejaVuSans-65" x="63.476562"/>
          <use xlink:href="#DejaVuSans-6d" x="125"/>
          <use xlink:href="#DejaVuSans-65" x="222.412109"/>
          <use xlink:href="#DejaVuSans-32" x="283.935547"/>
         </g>
        </g>
       </g>
       <g id="xtick_3">
        <g id="line2d_3"/>
        <g id="text_3">
         <!-- deme3 -->
         <g transform="translate(496.150394 329.120312) scale(0.1 -0.1)">
          <defs>
           <path id="DejaVuSans-33" d="M 2597 2516 
Q 3050 2419 3304 2112 
Q 3559 1806 3559 1356 
Q 3559 666 3084 287 
Q 2609 -91 1734 -91 
Q 1441 -91 1130 -33 
Q 819 25 488 141 
L 488 750 
Q 750 597 1062 519 
Q 1375 441 1716 441 
Q 2309 441 2620 675 
Q 2931 909 2931 1356 
Q 2931 1769 2642 2001 
Q 2353 2234 1838 2234 
L 1294 2234 
L 1294 2753 
L 1863 2753 
Q 2328 2753 2575 2939 
Q 2822 3125 2822 3475 
Q 2822 3834 2567 4026 
Q 2313 4219 1838 4219 
Q 1578 4219 1281 4162 
Q 984 4106 628 3988 
L 628 4550 
Q 988 4650 1302 4700 
Q 1616 4750 1894 4750 
Q 2613 4750 3031 4423 
Q 3450 4097 3450 3541 
Q 3450 3153 3228 2886 
Q 3006 2619 2597 2516 
z
" transform="scale(0.015625)"/>
          </defs>
          <use xlink:href="#DejaVuSans-64"/>
          <use xlink:href="#DejaVuSans-65" x="63.476562"/>
          <use xlink:href="#DejaVuSans-6d" x="125"/>
          <use xlink:href="#DejaVuSans-65" x="222.412109"/>
          <use xlink:href="#DejaVuSans-33" x="283.935547"/>
         </g>
        </g>
       </g>
      </g>
      <g id="matplotlib.axis_2">
       <g id="ytick_1">
        <g id="line2d_4">
         <defs>
          <path id="mbc3ef1cc28" d="M 0 0 
L -3.5 0 
" style="stroke: #000000; stroke-width: 0.8"/>
         </defs>
         <g>
          <use xlink:href="#mbc3ef1cc28" x="46.965625" y="318.021875" style="stroke: #000000; stroke-width: 0.8"/>
         </g>
        </g>
        <g id="text_4">
         <!-- 0 -->
         <g transform="translate(33.603125 321.821094) scale(0.1 -0.1)">
          <defs>
           <path id="DejaVuSans-30" d="M 2034 4250 
Q 1547 4250 1301 3770 
Q 1056 3291 1056 2328 
Q 1056 1369 1301 889 
Q 1547 409 2034 409 
Q 2525 409 2770 889 
Q 3016 1369 3016 2328 
Q 3016 3291 2770 3770 
Q 2525 4250 2034 4250 
z
M 2034 4750 
Q 2819 4750 3233 4129 
Q 3647 3509 3647 2328 
Q 3647 1150 3233 529 
Q 2819 -91 2034 -91 
Q 1250 -91 836 529 
Q 422 1150 422 2328 
Q 422 3509 836 4129 
Q 1250 4750 2034 4750 
z
" transform="scale(0.015625)"/>
          </defs>
          <use xlink:href="#DejaVuSans-30"/>
         </g>
        </g>
       </g>
       <g id="ytick_2">
        <g id="line2d_5">
         <g>
          <use xlink:href="#mbc3ef1cc28" x="46.965625" y="265.684928" style="stroke: #000000; stroke-width: 0.8"/>
         </g>
        </g>
        <g id="text_5">
         <!-- 20 -->
         <g transform="translate(27.240625 269.484147) scale(0.1 -0.1)">
          <use xlink:href="#DejaVuSans-32"/>
          <use xlink:href="#DejaVuSans-30" x="63.623047"/>
         </g>
        </g>
       </g>
       <g id="ytick_3">
        <g id="line2d_6">
         <g>
          <use xlink:href="#mbc3ef1cc28" x="46.965625" y="213.347981" style="stroke: #000000; stroke-width: 0.8"/>
         </g>
        </g>
        <g id="text_6">
         <!-- 40 -->
         <g transform="translate(27.240625 217.1472) scale(0.1 -0.1)">
          <defs>
           <path id="DejaVuSans-34" d="M 2419 4116 
L 825 1625 
L 2419 1625 
L 2419 4116 
z
M 2253 4666 
L 3047 4666 
L 3047 1625 
L 3713 1625 
L 3713 1100 
L 3047 1100 
L 3047 0 
L 2419 0 
L 2419 1100 
L 313 1100 
L 313 1709 
L 2253 4666 
z
" transform="scale(0.015625)"/>
          </defs>
          <use xlink:href="#DejaVuSans-34"/>
          <use xlink:href="#DejaVuSans-30" x="63.623047"/>
         </g>
        </g>
       </g>
       <g id="ytick_4">
        <g id="line2d_7">
         <g>
          <use xlink:href="#mbc3ef1cc28" x="46.965625" y="161.011034" style="stroke: #000000; stroke-width: 0.8"/>
         </g>
        </g>
        <g id="text_7">
         <!-- 60 -->
         <g transform="translate(27.240625 164.810253) scale(0.1 -0.1)">
          <defs>
           <path id="DejaVuSans-36" d="M 2113 2584 
Q 1688 2584 1439 2293 
Q 1191 2003 1191 1497 
Q 1191 994 1439 701 
Q 1688 409 2113 409 
Q 2538 409 2786 701 
Q 3034 994 3034 1497 
Q 3034 2003 2786 2293 
Q 2538 2584 2113 2584 
z
M 3366 4563 
L 3366 3988 
Q 3128 4100 2886 4159 
Q 2644 4219 2406 4219 
Q 1781 4219 1451 3797 
Q 1122 3375 1075 2522 
Q 1259 2794 1537 2939 
Q 1816 3084 2150 3084 
Q 2853 3084 3261 2657 
Q 3669 2231 3669 1497 
Q 3669 778 3244 343 
Q 2819 -91 2113 -91 
Q 1303 -91 875 529 
Q 447 1150 447 2328 
Q 447 3434 972 4092 
Q 1497 4750 2381 4750 
Q 2619 4750 2861 4703 
Q 3103 4656 3366 4563 
z
" transform="scale(0.015625)"/>
          </defs>
          <use xlink:href="#DejaVuSans-36"/>
          <use xlink:href="#DejaVuSans-30" x="63.623047"/>
         </g>
        </g>
       </g>
       <g id="ytick_5">
        <g id="line2d_8">
         <g>
          <use xlink:href="#mbc3ef1cc28" x="46.965625" y="108.674087" style="stroke: #000000; stroke-width: 0.8"/>
         </g>
        </g>
        <g id="text_8">
         <!-- 80 -->
         <g transform="translate(27.240625 112.473306) scale(0.1 -0.1)">
          <defs>
           <path id="DejaVuSans-38" d="M 2034 2216 
Q 1584 2216 1326 1975 
Q 1069 1734 1069 1313 
Q 1069 891 1326 650 
Q 1584 409 2034 409 
Q 2484 409 2743 651 
Q 3003 894 3003 1313 
Q 3003 1734 2745 1975 
Q 2488 2216 2034 2216 
z
M 1403 2484 
Q 997 2584 770 2862 
Q 544 3141 544 3541 
Q 544 4100 942 4425 
Q 1341 4750 2034 4750 
Q 2731 4750 3128 4425 
Q 3525 4100 3525 3541 
Q 3525 3141 3298 2862 
Q 3072 2584 2669 2484 
Q 3125 2378 3379 2068 
Q 3634 1759 3634 1313 
Q 3634 634 3220 271 
Q 2806 -91 2034 -91 
Q 1263 -91 848 271 
Q 434 634 434 1313 
Q 434 1759 690 2068 
Q 947 2378 1403 2484 
z
M 1172 3481 
Q 1172 3119 1398 2916 
Q 1625 2713 2034 2713 
Q 2441 2713 2670 2916 
Q 2900 3119 2900 3481 
Q 2900 3844 2670 4047 
Q 2441 4250 2034 4250 
Q 1625 4250 1398 4047 
Q 1172 3844 1172 3481 
z
" transform="scale(0.015625)"/>
          </defs>
          <use xlink:href="#DejaVuSans-38"/>
          <use xlink:href="#DejaVuSans-30" x="63.623047"/>
         </g>
        </g>
       </g>
       <g id="ytick_6">
        <g id="line2d_9">
         <g>
          <use xlink:href="#mbc3ef1cc28" x="46.965625" y="56.33714" style="stroke: #000000; stroke-width: 0.8"/>
         </g>
        </g>
        <g id="text_9">
         <!-- 100 -->
         <g transform="translate(20.878125 60.136359) scale(0.1 -0.1)">
          <use xlink:href="#DejaVuSans-31"/>
          <use xlink:href="#DejaVuSans-30" x="63.623047"/>
          <use xlink:href="#DejaVuSans-30" x="127.246094"/>
         </g>
        </g>
       </g>
       <g id="text_10">
        <!-- time ago (years) -->
        <g transform="translate(14.798437 211.603594) rotate(-90) scale(0.1 -0.1)">
         <defs>
          <path id="DejaVuSans-74" d="M 1172 4494 
L 1172 3500 
L 2356 3500 
L 2356 3053 
L 1172 3053 
L 1172 1153 
Q 1172 725 1289 603 
Q 1406 481 1766 481 
L 2356 481 
L 2356 0 
L 1766 0 
Q 1100 0 847 248 
Q 594 497 594 1153 
L 594 3053 
L 172 3053 
L 172 3500 
L 594 3500 
L 594 4494 
L 1172 4494 
z
" transform="scale(0.015625)"/>
          <path id="DejaVuSans-69" d="M 603 3500 
L 1178 3500 
L 1178 0 
L 603 0 
L 603 3500 
z
M 603 4863 
L 1178 4863 
L 1178 4134 
L 603 4134 
L 603 4863 
z
" transform="scale(0.015625)"/>
          <path id="DejaVuSans-20" transform="scale(0.015625)"/>
          <path id="DejaVuSans-61" d="M 2194 1759 
Q 1497 1759 1228 1600 
Q 959 1441 959 1056 
Q 959 750 1161 570 
Q 1363 391 1709 391 
Q 2188 391 2477 730 
Q 2766 1069 2766 1631 
L 2766 1759 
L 2194 1759 
z
M 3341 1997 
L 3341 0 
L 2766 0 
L 2766 531 
Q 2569 213 2275 61 
Q 1981 -91 1556 -91 
Q 1019 -91 701 211 
Q 384 513 384 1019 
Q 384 1609 779 1909 
Q 1175 2209 1959 2209 
L 2766 2209 
L 2766 2266 
Q 2766 2663 2505 2880 
Q 2244 3097 1772 3097 
Q 1472 3097 1187 3025 
Q 903 2953 641 2809 
L 641 3341 
Q 956 3463 1253 3523 
Q 1550 3584 1831 3584 
Q 2591 3584 2966 3190 
Q 3341 2797 3341 1997 
z
" transform="scale(0.015625)"/>
          <path id="DejaVuSans-67" d="M 2906 1791 
Q 2906 2416 2648 2759 
Q 2391 3103 1925 3103 
Q 1463 3103 1205 2759 
Q 947 2416 947 1791 
Q 947 1169 1205 825 
Q 1463 481 1925 481 
Q 2391 481 2648 825 
Q 2906 1169 2906 1791 
z
M 3481 434 
Q 3481 -459 3084 -895 
Q 2688 -1331 1869 -1331 
Q 1566 -1331 1297 -1286 
Q 1028 -1241 775 -1147 
L 775 -588 
Q 1028 -725 1275 -790 
Q 1522 -856 1778 -856 
Q 2344 -856 2625 -561 
Q 2906 -266 2906 331 
L 2906 616 
Q 2728 306 2450 153 
Q 2172 0 1784 0 
Q 1141 0 747 490 
Q 353 981 353 1791 
Q 353 2603 747 3093 
Q 1141 3584 1784 3584 
Q 2172 3584 2450 3431 
Q 2728 3278 2906 2969 
L 2906 3500 
L 3481 3500 
L 3481 434 
z
" transform="scale(0.015625)"/>
          <path id="DejaVuSans-6f" d="M 1959 3097 
Q 1497 3097 1228 2736 
Q 959 2375 959 1747 
Q 959 1119 1226 758 
Q 1494 397 1959 397 
Q 2419 397 2687 759 
Q 2956 1122 2956 1747 
Q 2956 2369 2687 2733 
Q 2419 3097 1959 3097 
z
M 1959 3584 
Q 2709 3584 3137 3096 
Q 3566 2609 3566 1747 
Q 3566 888 3137 398 
Q 2709 -91 1959 -91 
Q 1206 -91 779 398 
Q 353 888 353 1747 
Q 353 2609 779 3096 
Q 1206 3584 1959 3584 
z
" transform="scale(0.015625)"/>
          <path id="DejaVuSans-28" d="M 1984 4856 
Q 1566 4138 1362 3434 
Q 1159 2731 1159 2009 
Q 1159 1288 1364 580 
Q 1569 -128 1984 -844 
L 1484 -844 
Q 1016 -109 783 600 
Q 550 1309 550 2009 
Q 550 2706 781 3412 
Q 1013 4119 1484 4856 
L 1984 4856 
z
" transform="scale(0.015625)"/>
          <path id="DejaVuSans-79" d="M 2059 -325 
Q 1816 -950 1584 -1140 
Q 1353 -1331 966 -1331 
L 506 -1331 
L 506 -850 
L 844 -850 
Q 1081 -850 1212 -737 
Q 1344 -625 1503 -206 
L 1606 56 
L 191 3500 
L 800 3500 
L 1894 763 
L 2988 3500 
L 3597 3500 
L 2059 -325 
z
" transform="scale(0.015625)"/>
          <path id="DejaVuSans-72" d="M 2631 2963 
Q 2534 3019 2420 3045 
Q 2306 3072 2169 3072 
Q 1681 3072 1420 2755 
Q 1159 2438 1159 1844 
L 1159 0 
L 581 0 
L 581 3500 
L 1159 3500 
L 1159 2956 
Q 1341 3275 1631 3429 
Q 1922 3584 2338 3584 
Q 2397 3584 2469 3576 
Q 2541 3569 2628 3553 
L 2631 2963 
z
" transform="scale(0.015625)"/>
          <path id="DejaVuSans-73" d="M 2834 3397 
L 2834 2853 
Q 2591 2978 2328 3040 
Q 2066 3103 1784 3103 
Q 1356 3103 1142 2972 
Q 928 2841 928 2578 
Q 928 2378 1081 2264 
Q 1234 2150 1697 2047 
L 1894 2003 
Q 2506 1872 2764 1633 
Q 3022 1394 3022 966 
Q 3022 478 2636 193 
Q 2250 -91 1575 -91 
Q 1294 -91 989 -36 
Q 684 19 347 128 
L 347 722 
Q 666 556 975 473 
Q 1284 391 1588 391 
Q 1994 391 2212 530 
Q 2431 669 2431 922 
Q 2431 1156 2273 1281 
Q 2116 1406 1581 1522 
L 1381 1569 
Q 847 1681 609 1914 
Q 372 2147 372 2553 
Q 372 3047 722 3315 
Q 1072 3584 1716 3584 
Q 2034 3584 2315 3537 
Q 2597 3491 2834 3397 
z
" transform="scale(0.015625)"/>
          <path id="DejaVuSans-29" d="M 513 4856 
L 1013 4856 
Q 1481 4119 1714 3412 
Q 1947 2706 1947 2009 
Q 1947 1309 1714 600 
Q 1481 -109 1013 -844 
L 513 -844 
Q 928 -128 1133 580 
Q 1338 1288 1338 2009 
Q 1338 2731 1133 3434 
Q 928 4138 513 4856 
z
" transform="scale(0.015625)"/>
         </defs>
         <use xlink:href="#DejaVuSans-74"/>
         <use xlink:href="#DejaVuSans-69" x="39.208984"/>
         <use xlink:href="#DejaVuSans-6d" x="66.992188"/>
         <use xlink:href="#DejaVuSans-65" x="164.404297"/>
         <use xlink:href="#DejaVuSans-20" x="225.927734"/>
         <use xlink:href="#DejaVuSans-61" x="257.714844"/>
         <use xlink:href="#DejaVuSans-67" x="318.994141"/>
         <use xlink:href="#DejaVuSans-6f" x="382.470703"/>
         <use xlink:href="#DejaVuSans-20" x="443.652344"/>
         <use xlink:href="#DejaVuSans-28" x="475.439453"/>
         <use xlink:href="#DejaVuSans-79" x="514.453125"/>
         <use xlink:href="#DejaVuSans-65" x="573.632812"/>
         <use xlink:href="#DejaVuSans-61" x="635.15625"/>
         <use xlink:href="#DejaVuSans-72" x="696.435547"/>
         <use xlink:href="#DejaVuSans-73" x="737.548828"/>
         <use xlink:href="#DejaVuSans-29" x="789.648438"/>
        </g>
       </g>
      </g>
      <path d="M 257.619695 248.274094 
L 255.619695 247.274094 
L 255.619695 249.274094 
z
" clip-path="url(#p8643e7a120)" style="fill: #1f77b4; fill-opacity: 0.5; stroke: #1f77b4; stroke-opacity: 0.5; stroke-linejoin: miter"/>
      <path d="M 257.619695 152.951156 
L 255.619695 151.951156 
L 255.619695 153.951156 
z
" clip-path="url(#p8643e7a120)" style="fill: #1f77b4; fill-opacity: 0.5; stroke: #1f77b4; stroke-opacity: 0.5; stroke-linejoin: miter"/>
      <path d="M 257.619695 36.026883 
L 255.619695 35.026883 
L 255.619695 37.026883 
z
" clip-path="url(#p8643e7a120)" style="fill: #1f77b4; fill-opacity: 0.5; stroke: #1f77b4; stroke-opacity: 0.5; stroke-linejoin: miter"/>
      <path d="M 257.619695 292.544591 
L 255.619695 291.544591 
L 255.619695 293.544591 
z
" clip-path="url(#p8643e7a120)" style="fill: #1f77b4; fill-opacity: 0.5; stroke: #1f77b4; stroke-opacity: 0.5; stroke-linejoin: miter"/>
      <path d="M 257.619695 150.127841 
L 255.619695 149.127841 
L 255.619695 151.127841 
z
" clip-path="url(#p8643e7a120)" style="fill: #1f77b4; fill-opacity: 0.5; stroke: #1f77b4; stroke-opacity: 0.5; stroke-linejoin: miter"/>
      <path d="M 257.619695 59.118412 
L 255.619695 58.118412 
L 255.619695 60.118412 
z
" clip-path="url(#p8643e7a120)" style="fill: #1f77b4; fill-opacity: 0.5; stroke: #1f77b4; stroke-opacity: 0.5; stroke-linejoin: miter"/>
      <path d="M 257.619695 313.068045 
L 255.619695 312.068045 
L 255.619695 314.068045 
z
" clip-path="url(#p8643e7a120)" style="fill: #1f77b4; fill-opacity: 0.5; stroke: #1f77b4; stroke-opacity: 0.5; stroke-linejoin: miter"/>
      <path d="M 257.619695 59.612606 
L 255.619695 58.612606 
L 255.619695 60.612606 
z
" clip-path="url(#p8643e7a120)" style="fill: #1f77b4; fill-opacity: 0.5; stroke: #1f77b4; stroke-opacity: 0.5; stroke-linejoin: miter"/>
      <path d="M 257.619695 275.205085 
L 255.619695 274.205085 
L 255.619695 276.205085 
z
" clip-path="url(#p8643e7a120)" style="fill: #1f77b4; fill-opacity: 0.5; stroke: #1f77b4; stroke-opacity: 0.5; stroke-linejoin: miter"/>
      <path d="M 257.619695 262.388333 
L 255.619695 261.388333 
L 255.619695 263.388333 
z
" clip-path="url(#p8643e7a120)" style="fill: #1f77b4; fill-opacity: 0.5; stroke: #1f77b4; stroke-opacity: 0.5; stroke-linejoin: miter"/>
      <path d="M 199.299442 274.328886 
L 201.299442 275.328886 
L 201.299442 273.328886 
z
" clip-path="url(#p8643e7a120)" style="fill: #ff7f0e; fill-opacity: 0.5; stroke: #ff7f0e; stroke-opacity: 0.5; stroke-linejoin: miter"/>
      <path d="M 199.299442 214.441925 
L 201.299442 215.441925 
L 201.299442 213.441925 
z
" clip-path="url(#p8643e7a120)" style="fill: #ff7f0e; fill-opacity: 0.5; stroke: #ff7f0e; stroke-opacity: 0.5; stroke-linejoin: miter"/>
      <path d="M 199.299442 123.380277 
L 201.299442 124.380277 
L 201.299442 122.380277 
z
" clip-path="url(#p8643e7a120)" style="fill: #ff7f0e; fill-opacity: 0.5; stroke: #ff7f0e; stroke-opacity: 0.5; stroke-linejoin: miter"/>
      <path d="M 199.299442 302.149701 
L 201.299442 303.149701 
L 201.299442 301.149701 
z
" clip-path="url(#p8643e7a120)" style="fill: #ff7f0e; fill-opacity: 0.5; stroke: #ff7f0e; stroke-opacity: 0.5; stroke-linejoin: miter"/>
      <path d="M 199.299442 160.725879 
L 201.299442 161.725879 
L 201.299442 159.725879 
z
" clip-path="url(#p8643e7a120)" style="fill: #ff7f0e; fill-opacity: 0.5; stroke: #ff7f0e; stroke-opacity: 0.5; stroke-linejoin: miter"/>
      <path d="M 199.299442 83.112321 
L 201.299442 84.112321 
L 201.299442 82.112321 
z
" clip-path="url(#p8643e7a120)" style="fill: #ff7f0e; fill-opacity: 0.5; stroke: #ff7f0e; stroke-opacity: 0.5; stroke-linejoin: miter"/>
      <path d="M 199.299442 29.785263 
L 201.299442 30.785263 
L 201.299442 28.785263 
z
" clip-path="url(#p8643e7a120)" style="fill: #ff7f0e; fill-opacity: 0.5; stroke: #ff7f0e; stroke-opacity: 0.5; stroke-linejoin: miter"/>
      <path d="M 199.299442 68.71841 
L 201.299442 69.71841 
L 201.299442 67.71841 
z
" clip-path="url(#p8643e7a120)" style="fill: #ff7f0e; fill-opacity: 0.5; stroke: #ff7f0e; stroke-opacity: 0.5; stroke-linejoin: miter"/>
      <path d="M 199.299442 107.086639 
L 201.299442 108.086639 
L 201.299442 106.086639 
z
" clip-path="url(#p8643e7a120)" style="fill: #ff7f0e; fill-opacity: 0.5; stroke: #ff7f0e; stroke-opacity: 0.5; stroke-linejoin: miter"/>
      <path d="M 199.299442 288.986389 
L 201.299442 289.986389 
L 201.299442 287.986389 
z
" clip-path="url(#p8643e7a120)" style="fill: #ff7f0e; fill-opacity: 0.5; stroke: #ff7f0e; stroke-opacity: 0.5; stroke-linejoin: miter"/>
      <path d="M 447.666183 24.193757 
L 445.666183 23.193757 
L 445.666183 25.193757 
z
" clip-path="url(#p8643e7a120)" style="fill: #ff7f0e; fill-opacity: 0.5; stroke: #ff7f0e; stroke-opacity: 0.5; stroke-linejoin: miter"/>
      <path d="M 447.666183 311.327102 
L 445.666183 310.327102 
L 445.666183 312.327102 
z
" clip-path="url(#p8643e7a120)" style="fill: #ff7f0e; fill-opacity: 0.5; stroke: #ff7f0e; stroke-opacity: 0.5; stroke-linejoin: miter"/>
      <path d="M 447.666183 249.402608 
L 445.666183 248.402608 
L 445.666183 250.402608 
z
" clip-path="url(#p8643e7a120)" style="fill: #ff7f0e; fill-opacity: 0.5; stroke: #ff7f0e; stroke-opacity: 0.5; stroke-linejoin: miter"/>
      <path d="M 447.666183 250.086824 
L 445.666183 249.086824 
L 445.666183 251.086824 
z
" clip-path="url(#p8643e7a120)" style="fill: #ff7f0e; fill-opacity: 0.5; stroke: #ff7f0e; stroke-opacity: 0.5; stroke-linejoin: miter"/>
      <path d="M 447.666183 135.551863 
L 445.666183 134.551863 
L 445.666183 136.551863 
z
" clip-path="url(#p8643e7a120)" style="fill: #ff7f0e; fill-opacity: 0.5; stroke: #ff7f0e; stroke-opacity: 0.5; stroke-linejoin: miter"/>
      <path d="M 447.666183 264.835985 
L 445.666183 263.835985 
L 445.666183 265.835985 
z
" clip-path="url(#p8643e7a120)" style="fill: #ff7f0e; fill-opacity: 0.5; stroke: #ff7f0e; stroke-opacity: 0.5; stroke-linejoin: miter"/>
      <path d="M 447.666183 121.762934 
L 445.666183 120.762934 
L 445.666183 122.762934 
z
" clip-path="url(#p8643e7a120)" style="fill: #ff7f0e; fill-opacity: 0.5; stroke: #ff7f0e; stroke-opacity: 0.5; stroke-linejoin: miter"/>
      <path d="M 447.666183 303.214336 
L 445.666183 302.214336 
L 445.666183 304.214336 
z
" clip-path="url(#p8643e7a120)" style="fill: #ff7f0e; fill-opacity: 0.5; stroke: #ff7f0e; stroke-opacity: 0.5; stroke-linejoin: miter"/>
      <path d="M 447.666183 54.697915 
L 445.666183 53.697915 
L 445.666183 55.697915 
z
" clip-path="url(#p8643e7a120)" style="fill: #ff7f0e; fill-opacity: 0.5; stroke: #ff7f0e; stroke-opacity: 0.5; stroke-linejoin: miter"/>
      <path d="M 447.666183 133.041991 
L 445.666183 132.041991 
L 445.666183 134.041991 
z
" clip-path="url(#p8643e7a120)" style="fill: #ff7f0e; fill-opacity: 0.5; stroke: #ff7f0e; stroke-opacity: 0.5; stroke-linejoin: miter"/>
      <path d="M 389.34593 135.421013 
L 391.34593 136.421013 
L 391.34593 134.421013 
z
" clip-path="url(#p8643e7a120)" style="fill: #2ca02c; fill-opacity: 0.5; stroke: #2ca02c; stroke-opacity: 0.5; stroke-linejoin: miter"/>
      <path d="M 389.34593 148.901538 
L 391.34593 149.901538 
L 391.34593 147.901538 
z
" clip-path="url(#p8643e7a120)" style="fill: #2ca02c; fill-opacity: 0.5; stroke: #2ca02c; stroke-opacity: 0.5; stroke-linejoin: miter"/>
      <path d="M 389.34593 69.670374 
L 391.34593 70.670374 
L 391.34593 68.670374 
z
" clip-path="url(#p8643e7a120)" style="fill: #2ca02c; fill-opacity: 0.5; stroke: #2ca02c; stroke-opacity: 0.5; stroke-linejoin: miter"/>
      <path d="M 389.34593 177.317444 
L 391.34593 178.317444 
L 391.34593 176.317444 
z
" clip-path="url(#p8643e7a120)" style="fill: #2ca02c; fill-opacity: 0.5; stroke: #2ca02c; stroke-opacity: 0.5; stroke-linejoin: miter"/>
      <path d="M 389.34593 93.409123 
L 391.34593 94.409123 
L 391.34593 92.409123 
z
" clip-path="url(#p8643e7a120)" style="fill: #2ca02c; fill-opacity: 0.5; stroke: #2ca02c; stroke-opacity: 0.5; stroke-linejoin: miter"/>
      <path d="M 389.34593 290.458786 
L 391.34593 291.458786 
L 391.34593 289.458786 
z
" clip-path="url(#p8643e7a120)" style="fill: #2ca02c; fill-opacity: 0.5; stroke: #2ca02c; stroke-opacity: 0.5; stroke-linejoin: miter"/>
      <path d="M 389.34593 209.493633 
L 391.34593 210.493633 
L 391.34593 208.493633 
z
" clip-path="url(#p8643e7a120)" style="fill: #2ca02c; fill-opacity: 0.5; stroke: #2ca02c; stroke-opacity: 0.5; stroke-linejoin: miter"/>
      <path d="M 389.34593 64.901021 
L 391.34593 65.901021 
L 391.34593 63.901021 
z
" clip-path="url(#p8643e7a120)" style="fill: #2ca02c; fill-opacity: 0.5; stroke: #2ca02c; stroke-opacity: 0.5; stroke-linejoin: miter"/>
      <path d="M 389.34593 309.981665 
L 391.34593 310.981665 
L 391.34593 308.981665 
z
" clip-path="url(#p8643e7a120)" style="fill: #2ca02c; fill-opacity: 0.5; stroke: #2ca02c; stroke-opacity: 0.5; stroke-linejoin: miter"/>
      <path d="M 389.34593 269.652531 
L 391.34593 270.652531 
L 391.34593 268.652531 
z
" clip-path="url(#p8643e7a120)" style="fill: #2ca02c; fill-opacity: 0.5; stroke: #2ca02c; stroke-opacity: 0.5; stroke-linejoin: miter"/>
      <g id="patch_6">
       <path d="M 46.965625 318.021875 
L 46.965625 22.318125 
" style="fill: none; stroke: #000000; stroke-width: 0.8; stroke-linejoin: miter; stroke-linecap: square"/>
      </g>
      <g id="text_11">
       <!-- stepping_stone_model.yaml -->
       <g transform="translate(239.443437 16.318125) scale(0.12 -0.12)">
        <defs>
         <path id="DejaVuSans-70" d="M 1159 525 
L 1159 -1331 
L 581 -1331 
L 581 3500 
L 1159 3500 
L 1159 2969 
Q 1341 3281 1617 3432 
Q 1894 3584 2278 3584 
Q 2916 3584 3314 3078 
Q 3713 2572 3713 1747 
Q 3713 922 3314 415 
Q 2916 -91 2278 -91 
Q 1894 -91 1617 61 
Q 1341 213 1159 525 
z
M 3116 1747 
Q 3116 2381 2855 2742 
Q 2594 3103 2138 3103 
Q 1681 3103 1420 2742 
Q 1159 2381 1159 1747 
Q 1159 1113 1420 752 
Q 1681 391 2138 391 
Q 2594 391 2855 752 
Q 3116 1113 3116 1747 
z
" transform="scale(0.015625)"/>
         <path id="DejaVuSans-6e" d="M 3513 2113 
L 3513 0 
L 2938 0 
L 2938 2094 
Q 2938 2591 2744 2837 
Q 2550 3084 2163 3084 
Q 1697 3084 1428 2787 
Q 1159 2491 1159 1978 
L 1159 0 
L 581 0 
L 581 3500 
L 1159 3500 
L 1159 2956 
Q 1366 3272 1645 3428 
Q 1925 3584 2291 3584 
Q 2894 3584 3203 3211 
Q 3513 2838 3513 2113 
z
" transform="scale(0.015625)"/>
         <path id="DejaVuSans-5f" d="M 3263 -1063 
L 3263 -1509 
L -63 -1509 
L -63 -1063 
L 3263 -1063 
z
" transform="scale(0.015625)"/>
         <path id="DejaVuSans-6c" d="M 603 4863 
L 1178 4863 
L 1178 0 
L 603 0 
L 603 4863 
z
" transform="scale(0.015625)"/>
         <path id="DejaVuSans-2e" d="M 684 794 
L 1344 794 
L 1344 0 
L 684 0 
L 684 794 
z
" transform="scale(0.015625)"/>
        </defs>
        <use xlink:href="#DejaVuSans-73"/>
        <use xlink:href="#DejaVuSans-74" x="52.099609"/>
        <use xlink:href="#DejaVuSans-65" x="91.308594"/>
        <use xlink:href="#DejaVuSans-70" x="152.832031"/>
        <use xlink:href="#DejaVuSans-70" x="216.308594"/>
        <use xlink:href="#DejaVuSans-69" x="279.785156"/>
        <use xlink:href="#DejaVuSans-6e" x="307.568359"/>
        <use xlink:href="#DejaVuSans-67" x="370.947266"/>
        <use xlink:href="#DejaVuSans-5f" x="434.423828"/>
        <use xlink:href="#DejaVuSans-73" x="484.423828"/>
        <use xlink:href="#DejaVuSans-74" x="536.523438"/>
        <use xlink:href="#DejaVuSans-6f" x="575.732422"/>
        <use xlink:href="#DejaVuSans-6e" x="636.914062"/>
        <use xlink:href="#DejaVuSans-65" x="700.292969"/>
        <use xlink:href="#DejaVuSans-5f" x="761.816406"/>
        <use xlink:href="#DejaVuSans-6d" x="811.816406"/>
        <use xlink:href="#DejaVuSans-6f" x="909.228516"/>
        <use xlink:href="#DejaVuSans-64" x="970.410156"/>
        <use xlink:href="#DejaVuSans-65" x="1033.886719"/>
        <use xlink:href="#DejaVuSans-6c" x="1095.410156"/>
        <use xlink:href="#DejaVuSans-2e" x="1123.193359"/>
        <use xlink:href="#DejaVuSans-79" x="1154.980469"/>
        <use xlink:href="#DejaVuSans-61" x="1214.160156"/>
        <use xlink:href="#DejaVuSans-6d" x="1275.439453"/>
        <use xlink:href="#DejaVuSans-6c" x="1372.851562"/>
       </g>
      </g>
     </g>
    </g>
    <defs>
     <clipPath id="p8643e7a120">
      <rect x="46.965625" y="22.318125" width="553.034375" height="295.70375"/>
     </clipPath>
    </defs>
   </g>
  </g>
 </g>
</svg>