<?xml version="1.0" encoding="utf-8" standalone="no"?>
<!DOCTYPE svg PUBLIC "-//W3C//DTD SVG 1.1//EN"
  "http://www.w3.org/Graphics/SVG/1.1/DTD/svg11.dtd">
<svg xmlns:xlink="http://www.w3.org/1999/xlink" width="607.2pt" height="338.4pt" viewBox="0 0 607.2 338.4" xmlns="http://www.w3.org/2000/svg" version="1.1">
 <metadata>
  <rdf:RDF xmlns:dc="http://purl.org/dc/elements/1.1/" xmlns:cc="http://creativecommons.org/ns#" xmlns:rdf="http://www.w3.org/1999/02/22-rdf-syntax-ns#">
   <cc:Work>
    <dc:type rdf:resource="http://purl.org/dc/dcmitype/StillImage"/>
    <dc:date>2025-10-27T08:24:57.777126</dc:date>
    <dc:format>image/svg+xml</dc:format>
    <dc:creator>
     <cc:Agent>
      <dc:title>Matplotlib v3.10.7, https://matplotlib.org/</dc:title>
     </cc:Agent>
    </dc:creator>
   </cc:Work>
  </rdf:RDF>
 </metadata>
 <defs>
  <style type="text/css">*{stroke-linejoin: round; stroke-linecap: butt}</style>
 </defs>
 <g id="figure_1">
  <g id="patch_1">
   <path d="M 0 338.4 
L 607.2 338.4 
L 607.2 0 
L 0 0 
z
" style="fill: #ffffff"/>
  </g>
  <g id="axes_1">
   <g id="patch_2">
    <path d="M 46.965625 318.021875 
L 600 318.021875 
L 600 7.2 
L 46.965625 7.2 
z
" style="fill: #ffffff"/>
   </g>
   <g id="line2d_1">
    <path d="M 200.299443 199.645021 
L 201.299443 199.676458 
L 202.299443 199.713398 
L 203.299443 199.811145 
L 204.299443 199.843666 
L 205.299443 199.917291 
L 206.299443 199.955857 
L 207.299443 199.99127 
L 208.299443 200.04891 
L 209.299443 200.119296 
L 210.299443 200.17126 
L 211.299443 200.23035 
L 212.299443 200.318671 
L 213.299443 200.364815 
L 214.299443 200.407226 
L 215.299443 200.437719 
L 216.299443 200.463764 
L 217.299443 200.484964 
L 218.299443 200.539265 
L 219.299443 200.567202 
L 220.299443 200.596926 
L 221.299443 200.622321 
L 222.299443 200.633522 
L 223.299443 200.643646 
L 224.299443 200.643441 
L 225.299443 200.633931 
L 226.299443 200.622278 
L 227.299443 200.591249 
L 228.299443 200.580081 
L 229.299443 200.549963 
L 230.299443 200.490186 
L 231.299443 200.452995 
L 232.299443 200.413899 
L 233.299443 200.371459 
L 234.299443 200.338694 
L 235.299443 200.271267 
L 236.299443 200.232141 
L 237.299443 200.189467 
L 238.299443 200.118886 
L 239.299443 200.082495 
L 240.299443 200.024092 
L 241.299443 199.91314 
L 242.299443 199.842481 
L 243.299443 199.729541 
L 244.299443 199.683769 
L 245.299443 199.622485 
L 246.299443 199.573986 
L 247.299443 199.493163 
L 248.299443 199.374644 
L 249.299443 199.304434 
L 250.299443 199.221171 
L 251.299443 199.18803 
L 252.299443 199.136792 
L 253.299443 199.068394 
L 254.299443 199.002178 
L 255.299443 198.925261 
L 256.619695 198.897946 
" clip-path="url(#p14e6d5cbb1)" style="fill: none; stroke: #1f77b4; stroke-opacity: 0.5; stroke-width: 0.2; stroke-linecap: square"/>
   </g>
   <g id="line2d_2">
    <path d="M 200.299443 166.767771 
L 201.299443 166.799208 
L 202.299443 166.836148 
L 203.299443 166.933895 
L 204.299443 166.966416 
L 205.299443 167.040041 
L 206.299443 167.078607 
L 207.299443 167.11402 
L 208.299443 167.17166 
L 209.299443 167.242046 
L 210.299443 167.29401 
L 211.299443 167.3531 
L 212.299443 167.441421 
L 213.299443 167.487565 
L 214.299443 167.529976 
L 215.299443 167.560469 
L 216.299443 167.586514 
L 217.299443 167.607714 
L 218.299443 167.662015 
L 219.299443 167.689952 
L 220.299443 167.719676 
L 221.299443 167.745071 
L 222.299443 167.756272 
L 223.299443 167.766395 
L 224.299443 167.766191 
L 225.299443 167.756681 
L 226.299443 167.745028 
L 227.299443 167.713998 
L 228.299443 167.702831 
L 229.299443 167.672713 
L 230.299443 167.612936 
L 231.299443 167.575745 
L 232.299443 167.536648 
L 233.299443 167.494209 
L 234.299443 167.461444 
L 235.299443 167.394017 
L 236.299443 167.354891 
L 237.299443 167.312217 
L 238.299443 167.241636 
L 239.299443 167.205245 
L 240.299443 167.146842 
L 241.299443 167.03589 
L 242.299443 166.965231 
L 243.299443 166.852291 
L 244.299443 166.806519 
L 245.299443 166.745235 
L 246.299443 166.696736 
L 247.299443 166.615913 
L 248.299443 166.497394 
L 249.299443 166.427184 
L 250.299443 166.343921 
L 251.299443 166.310779 
L 252.299443 166.259542 
L 253.299443 166.191144 
L 254.299443 166.124928 
L 255.299443 166.048011 
L 256.619695 166.020696 
" clip-path="url(#p14e6d5cbb1)" style="fill: none; stroke: #1f77b4; stroke-opacity: 0.5; stroke-width: 0.2; stroke-linecap: square"/>
   </g>
   <g id="line2d_3">
    <path d="M 200.299443 50.030505 
L 201.299443 50.061941 
L 202.299443 50.098881 
L 203.299443 50.196628 
L 204.299443 50.22915 
L 205.299443 50.302774 
L 206.299443 50.34134 
L 207.299443 50.376753 
L 208.299443 50.434393 
L 209.299443 50.504779 
L 210.299443 50.556743 
L 211.299443 50.615833 
L 212.299443 50.704154 
L 213.299443 50.750298 
L 214.299443 50.792709 
L 215.299443 50.823202 
L 216.299443 50.849247 
L 217.299443 50.870447 
L 218.299443 50.924748 
L 219.299443 50.952686 
L 220.299443 50.98241 
L 221.299443 51.007804 
L 222.299443 51.019005 
L 223.299443 51.029129 
L 224.299443 51.028924 
L 225.299443 51.019415 
L 226.299443 51.007761 
L 227.299443 50.976732 
L 228.299443 50.965564 
L 229.299443 50.935446 
L 230.299443 50.875669 
L 231.299443 50.838478 
L 232.299443 50.799382 
L 233.299443 50.756942 
L 234.299443 50.724177 
L 235.299443 50.656751 
L 236.299443 50.617625 
L 237.299443 50.57495 
L 238.299443 50.50437 
L 239.299443 50.467979 
L 240.299443 50.409575 
L 241.299443 50.298623 
L 242.299443 50.227965 
L 243.299443 50.115025 
L 244.299443 50.069252 
L 245.299443 50.007969 
L 246.299443 49.959469 
L 247.299443 49.878647 
L 248.299443 49.760128 
L 249.299443 49.689917 
L 250.299443 49.606655 
L 251.299443 49.573513 
L 252.299443 49.522276 
L 253.299443 49.453877 
L 254.299443 49.387662 
L 255.299443 49.310745 
L 256.619695 49.283429 
" clip-path="url(#p14e6d5cbb1)" style="fill: none; stroke: #1f77b4; stroke-opacity: 0.5; stroke-width: 0.2; stroke-linecap: square"/>
   </g>
   <g id="line2d_4">
    <path d="M 200.299443 65.404208 
L 201.299443 65.435644 
L 202.299443 65.472584 
L 203.299443 65.570331 
L 204.299443 65.602853 
L 205.299443 65.676477 
L 206.299443 65.715043 
L 207.299443 65.750456 
L 208.299443 65.808096 
L 209.299443 65.878482 
L 210.299443 65.930446 
L 211.299443 65.989536 
L 212.299443 66.077857 
L 213.299443 66.124001 
L 214.299443 66.166412 
L 215.299443 66.196905 
L 216.299443 66.22295 
L 217.299443 66.24415 
L 218.299443 66.298451 
L 219.299443 66.326389 
L 220.299443 66.356113 
L 221.299443 66.381507 
L 222.299443 66.392708 
L 223.299443 66.402832 
L 224.299443 66.402627 
L 225.299443 66.393118 
L 226.299443 66.381464 
L 227.299443 66.350435 
L 228.299443 66.339267 
L 229.299443 66.309149 
L 230.299443 66.249372 
L 231.299443 66.212181 
L 232.299443 66.173085 
L 233.299443 66.130645 
L 234.299443 66.09788 
L 235.299443 66.030454 
L 236.299443 65.991328 
L 237.299443 65.948653 
L 238.299443 65.878072 
L 239.299443 65.841682 
L 240.299443 65.783278 
L 241.299443 65.672326 
L 242.299443 65.601668 
L 243.299443 65.488728 
L 244.299443 65.442955 
L 245.299443 65.381672 
L 246.299443 65.333172 
L 247.299443 65.25235 
L 248.299443 65.133831 
L 249.299443 65.06362 
L 250.299443 64.980358 
L 251.299443 64.947216 
L 252.299443 64.895978 
L 253.299443 64.82758 
L 254.299443 64.761365 
L 255.299443 64.684448 
L 256.619695 64.657132 
" clip-path="url(#p14e6d5cbb1)" style="fill: none; stroke: #1f77b4; stroke-opacity: 0.5; stroke-width: 0.2; stroke-linecap: square"/>
   </g>
   <g id="line2d_5">
    <path d="M 200.299443 230.26501 
L 201.299443 230.296447 
L 202.299443 230.333387 
L 203.299443 230.431134 
L 204.299443 230.463655 
L 205.299443 230.53728 
L 206.299443 230.575845 
L 207.299443 230.611259 
L 208.299443 230.668899 
L 209.299443 230.739285 
L 210.299443 230.791249 
L 211.299443 230.850339 
L 212.299443 230.93866 
L 213.299443 230.984804 
L 214.299443 231.027215 
L 215.299443 231.057708 
L 216.299443 231.083753 
L 217.299443 231.104953 
L 218.299443 231.159254 
L 219.299443 231.187191 
L 220.299443 231.216915 
L 221.299443 231.24231 
L 222.299443 231.253511 
L 223.299443 231.263634 
L 224.299443 231.26343 
L 225.299443 231.25392 
L 226.299443 231.242267 
L 227.299443 231.211237 
L 228.299443 231.20007 
L 229.299443 231.169952 
L 230.299443 231.110175 
L 231.299443 231.072984 
L 232.299443 231.033887 
L 233.299443 230.991448 
L 234.299443 230.958683 
L 235.299443 230.891256 
L 236.299443 230.85213 
L 237.299443 230.809456 
L 238.299443 230.738875 
L 239.299443 230.702484 
L 240.299443 230.644081 
L 241.299443 230.533129 
L 242.299443 230.46247 
L 243.299443 230.34953 
L 244.299443 230.303758 
L 245.299443 230.242474 
L 246.299443 230.193975 
L 247.299443 230.113152 
L 248.299443 229.994633 
L 249.299443 229.924423 
L 250.299443 229.84116 
L 251.299443 229.808018 
L 252.299443 229.756781 
L 253.299443 229.688383 
L 254.299443 229.622167 
L 255.299443 229.54525 
L 256.619695 229.517935 
" clip-path="url(#p14e6d5cbb1)" style="fill: none; stroke: #1f77b4; stroke-opacity: 0.5; stroke-width: 0.2; stroke-linecap: square"/>
   </g>
   <g id="line2d_6">
    <path d="M 200.299443 113.467212 
L 201.299443 113.498648 
L 202.299443 113.535589 
L 203.299443 113.633335 
L 204.299443 113.665857 
L 205.299443 113.739482 
L 206.299443 113.778047 
L 207.299443 113.81346 
L 208.299443 113.8711 
L 209.299443 113.941486 
L 210.299443 113.993451 
L 211.299443 114.05254 
L 212.299443 114.140861 
L 213.299443 114.187006 
L 214.299443 114.229417 
L 215.299443 114.259909 
L 216.299443 114.285954 
L 217.299443 114.307154 
L 218.299443 114.361455 
L 219.299443 114.389393 
L 220.299443 114.419117 
L 221.299443 114.444512 
L 222.299443 114.455712 
L 223.299443 114.465836 
L 224.299443 114.465632 
L 225.299443 114.456122 
L 226.299443 114.444468 
L 227.299443 114.413439 
L 228.299443 114.402271 
L 229.299443 114.372154 
L 230.299443 114.312377 
L 231.299443 114.275185 
L 232.299443 114.236089 
L 233.299443 114.193649 
L 234.299443 114.160884 
L 235.299443 114.093458 
L 236.299443 114.054332 
L 237.299443 114.011657 
L 238.299443 113.941077 
L 239.299443 113.904686 
L 240.299443 113.846283 
L 241.299443 113.73533 
L 242.299443 113.664672 
L 243.299443 113.551732 
L 244.299443 113.505959 
L 245.299443 113.444676 
L 246.299443 113.396177 
L 247.299443 113.315354 
L 248.299443 113.196835 
L 249.299443 113.126624 
L 250.299443 113.043362 
L 251.299443 113.01022 
L 252.299443 112.958983 
L 253.299443 112.890584 
L 254.299443 112.824369 
L 255.299443 112.747452 
L 256.619695 112.720136 
" clip-path="url(#p14e6d5cbb1)" style="fill: none; stroke: #1f77b4; stroke-opacity: 0.5; stroke-width: 0.2; stroke-linecap: square"/>
   </g>
   <g id="line2d_7">
    <path d="M 200.299443 11.490087 
L 201.299443 11.521524 
L 202.299443 11.558464 
L 203.299443 11.65621 
L 204.299443 11.688732 
L 205.299443 11.762357 
L 206.299443 11.800922 
L 207.299443 11.836335 
L 208.299443 11.893975 
L 209.299443 11.964362 
L 210.299443 12.016326 
L 211.299443 12.075416 
L 212.299443 12.163737 
L 213.299443 12.209881 
L 214.299443 12.252292 
L 215.299443 12.282784 
L 216.299443 12.308829 
L 217.299443 12.330029 
L 218.299443 12.384331 
L 219.299443 12.412268 
L 220.299443 12.441992 
L 221.299443 12.467387 
L 222.299443 12.478587 
L 223.299443 12.488711 
L 224.299443 12.488507 
L 225.299443 12.478997 
L 226.299443 12.467343 
L 227.299443 12.436314 
L 228.299443 12.425146 
L 229.299443 12.395029 
L 230.299443 12.335252 
L 231.299443 12.29806 
L 232.299443 12.258964 
L 233.299443 12.216525 
L 234.299443 12.183759 
L 235.299443 12.116333 
L 236.299443 12.077207 
L 237.299443 12.034533 
L 238.299443 11.963952 
L 239.299443 11.927561 
L 240.299443 11.869158 
L 241.299443 11.758205 
L 242.299443 11.687547 
L 243.299443 11.574607 
L 244.299443 11.528834 
L 245.299443 11.467551 
L 246.299443 11.419052 
L 247.299443 11.338229 
L 248.299443 11.21971 
L 249.299443 11.149499 
L 250.299443 11.066237 
L 251.299443 11.033095 
L 252.299443 10.981858 
L 253.299443 10.91346 
L 254.299443 10.847244 
L 255.299443 10.770327 
L 256.619695 10.743012 
" clip-path="url(#p14e6d5cbb1)" style="fill: none; stroke: #1f77b4; stroke-opacity: 0.5; stroke-width: 0.2; stroke-linecap: square"/>
   </g>
   <g id="line2d_8">
    <path d="M 200.299443 301.166824 
L 201.299443 301.198261 
L 202.299443 301.235201 
L 203.299443 301.332948 
L 204.299443 301.365469 
L 205.299443 301.439094 
L 206.299443 301.47766 
L 207.299443 301.513073 
L 208.299443 301.570713 
L 209.299443 301.641099 
L 210.299443 301.693063 
L 211.299443 301.752153 
L 212.299443 301.840474 
L 213.299443 301.886618 
L 214.299443 301.929029 
L 215.299443 301.959522 
L 216.299443 301.985567 
L 217.299443 302.006767 
L 218.299443 302.061068 
L 219.299443 302.089005 
L 220.299443 302.118729 
L 221.299443 302.144124 
L 222.299443 302.155325 
L 223.299443 302.165449 
L 224.299443 302.165244 
L 225.299443 302.155734 
L 226.299443 302.144081 
L 227.299443 302.113052 
L 228.299443 302.101884 
L 229.299443 302.071766 
L 230.299443 302.011989 
L 231.299443 301.974798 
L 232.299443 301.935702 
L 233.299443 301.893262 
L 234.299443 301.860497 
L 235.299443 301.79307 
L 236.299443 301.753944 
L 237.299443 301.71127 
L 238.299443 301.640689 
L 239.299443 301.604298 
L 240.299443 301.545895 
L 241.299443 301.434943 
L 242.299443 301.364284 
L 243.299443 301.251344 
L 244.299443 301.205572 
L 245.299443 301.144288 
L 246.299443 301.095789 
L 247.299443 301.014966 
L 248.299443 300.896447 
L 249.299443 300.826237 
L 250.299443 300.742974 
L 251.299443 300.709833 
L 252.299443 300.658595 
L 253.299443 300.590197 
L 254.299443 300.523981 
L 255.299443 300.447064 
L 256.619695 300.419749 
" clip-path="url(#p14e6d5cbb1)" style="fill: none; stroke: #1f77b4; stroke-opacity: 0.5; stroke-width: 0.2; stroke-linecap: square"/>
   </g>
   <g id="line2d_9">
    <path d="M 200.299443 180.726125 
L 201.299443 180.757561 
L 202.299443 180.794502 
L 203.299443 180.892248 
L 204.299443 180.92477 
L 205.299443 180.998395 
L 206.299443 181.03696 
L 207.299443 181.072373 
L 208.299443 181.130013 
L 209.299443 181.200399 
L 210.299443 181.252364 
L 211.299443 181.311453 
L 212.299443 181.399774 
L 213.299443 181.445919 
L 214.299443 181.48833 
L 215.299443 181.518822 
L 216.299443 181.544867 
L 217.299443 181.566067 
L 218.299443 181.620368 
L 219.299443 181.648306 
L 220.299443 181.67803 
L 221.299443 181.703425 
L 222.299443 181.714625 
L 223.299443 181.724749 
L 224.299443 181.724545 
L 225.299443 181.715035 
L 226.299443 181.703381 
L 227.299443 181.672352 
L 228.299443 181.661184 
L 229.299443 181.631067 
L 230.299443 181.57129 
L 231.299443 181.534098 
L 232.299443 181.495002 
L 233.299443 181.452562 
L 234.299443 181.419797 
L 235.299443 181.352371 
L 236.299443 181.313245 
L 237.299443 181.27057 
L 238.299443 181.19999 
L 239.299443 181.163599 
L 240.299443 181.105196 
L 241.299443 180.994243 
L 242.299443 180.923585 
L 243.299443 180.810645 
L 244.299443 180.764872 
L 245.299443 180.703589 
L 246.299443 180.65509 
L 247.299443 180.574267 
L 248.299443 180.455748 
L 249.299443 180.385537 
L 250.299443 180.302275 
L 251.299443 180.269133 
L 252.299443 180.217896 
L 253.299443 180.149497 
L 254.299443 180.083282 
L 255.299443 180.006365 
L 256.619695 179.979049 
" clip-path="url(#p14e6d5cbb1)" style="fill: none; stroke: #1f77b4; stroke-opacity: 0.5; stroke-width: 0.2; stroke-linecap: square"/>
   </g>
   <g id="line2d_10">
    <path d="M 200.299443 74.89281 
L 201.299443 74.924246 
L 202.299443 74.961187 
L 203.299443 75.058933 
L 204.299443 75.091455 
L 205.299443 75.165079 
L 206.299443 75.203645 
L 207.299443 75.239058 
L 208.299443 75.296698 
L 209.299443 75.367084 
L 210.299443 75.419049 
L 211.299443 75.478138 
L 212.299443 75.566459 
L 213.299443 75.612604 
L 214.299443 75.655014 
L 215.299443 75.685507 
L 216.299443 75.711552 
L 217.299443 75.732752 
L 218.299443 75.787053 
L 219.299443 75.814991 
L 220.299443 75.844715 
L 221.299443 75.87011 
L 222.299443 75.88131 
L 223.299443 75.891434 
L 224.299443 75.89123 
L 225.299443 75.88172 
L 226.299443 75.870066 
L 227.299443 75.839037 
L 228.299443 75.827869 
L 229.299443 75.797751 
L 230.299443 75.737975 
L 231.299443 75.700783 
L 232.299443 75.661687 
L 233.299443 75.619247 
L 234.299443 75.586482 
L 235.299443 75.519056 
L 236.299443 75.47993 
L 237.299443 75.437255 
L 238.299443 75.366675 
L 239.299443 75.330284 
L 240.299443 75.271881 
L 241.299443 75.160928 
L 242.299443 75.09027 
L 243.299443 74.97733 
L 244.299443 74.931557 
L 245.299443 74.870274 
L 246.299443 74.821774 
L 247.299443 74.740952 
L 248.299443 74.622433 
L 249.299443 74.552222 
L 250.299443 74.46896 
L 251.299443 74.435818 
L 252.299443 74.384581 
L 253.299443 74.316182 
L 254.299443 74.249967 
L 255.299443 74.17305 
L 256.619695 74.145734 
" clip-path="url(#p14e6d5cbb1)" style="fill: none; stroke: #1f77b4; stroke-opacity: 0.5; stroke-width: 0.2; stroke-linecap: square"/>
   </g>
   <g id="line2d_11">
    <path d="M 256.619695 169.316215 
L 255.619695 169.284779 
L 254.619695 169.247839 
L 253.619695 169.150092 
L 252.619695 169.117571 
L 251.619695 169.043946 
L 250.619695 169.00538 
L 249.619695 168.969967 
L 248.619695 168.912327 
L 247.619695 168.841941 
L 246.619695 168.789977 
L 245.619695 168.730887 
L 244.619695 168.642566 
L 243.619695 168.596422 
L 242.619695 168.554011 
L 241.619695 168.523518 
L 240.619695 168.497473 
L 239.619695 168.476273 
L 238.619695 168.421972 
L 237.619695 168.394034 
L 236.619695 168.36431 
L 235.619695 168.338916 
L 234.619695 168.327715 
L 233.619695 168.317591 
L 232.619695 168.317796 
L 231.619695 168.327306 
L 230.619695 168.338959 
L 229.619695 168.369988 
L 228.619695 168.381156 
L 227.619695 168.411274 
L 226.619695 168.471051 
L 225.619695 168.508242 
L 224.619695 168.547338 
L 223.619695 168.589778 
L 222.619695 168.622543 
L 221.619695 168.68997 
L 220.619695 168.729095 
L 219.619695 168.77177 
L 218.619695 168.842351 
L 217.619695 168.878741 
L 216.619695 168.937145 
L 215.619695 169.048097 
L 214.619695 169.118756 
L 213.619695 169.231695 
L 212.619695 169.277468 
L 211.619695 169.338752 
L 210.619695 169.387251 
L 209.619695 169.468074 
L 208.619695 169.586592 
L 207.619695 169.656803 
L 206.619695 169.740066 
L 205.619695 169.773207 
L 204.619695 169.824445 
L 203.619695 169.892843 
L 202.619695 169.959058 
L 201.619695 170.035975 
L 200.299443 170.063291 
" clip-path="url(#p14e6d5cbb1)" style="fill: none; stroke: #ff7f0e; stroke-opacity: 0.5; stroke-width: 0.2; stroke-linecap: square"/>
   </g>
   <g id="line2d_12">
    <path d="M 256.619695 316.438495 
L 255.619695 316.407059 
L 254.619695 316.370119 
L 253.619695 316.272372 
L 252.619695 316.23985 
L 251.619695 316.166226 
L 250.619695 316.12766 
L 249.619695 316.092247 
L 248.619695 316.034607 
L 247.619695 315.964221 
L 246.619695 315.912257 
L 245.619695 315.853167 
L 244.619695 315.764846 
L 243.619695 315.718702 
L 242.619695 315.676291 
L 241.619695 315.645798 
L 240.619695 315.619753 
L 239.619695 315.598553 
L 238.619695 315.544252 
L 237.619695 315.516314 
L 236.619695 315.48659 
L 235.619695 315.461196 
L 234.619695 315.449995 
L 233.619695 315.439871 
L 232.619695 315.440075 
L 231.619695 315.449585 
L 230.619695 315.461239 
L 229.619695 315.492268 
L 228.619695 315.503436 
L 227.619695 315.533554 
L 226.619695 315.593331 
L 225.619695 315.630522 
L 224.619695 315.669618 
L 223.619695 315.712058 
L 222.619695 315.744823 
L 221.619695 315.812249 
L 220.619695 315.851375 
L 219.619695 315.89405 
L 218.619695 315.96463 
L 217.619695 316.001021 
L 216.619695 316.059425 
L 215.619695 316.170377 
L 214.619695 316.241035 
L 213.619695 316.353975 
L 212.619695 316.399748 
L 211.619695 316.461031 
L 210.619695 316.509531 
L 209.619695 316.590353 
L 208.619695 316.708872 
L 207.619695 316.779083 
L 206.619695 316.862345 
L 205.619695 316.895487 
L 204.619695 316.946724 
L 203.619695 317.015123 
L 202.619695 317.081338 
L 201.619695 317.158255 
L 200.299443 317.185571 
" clip-path="url(#p14e6d5cbb1)" style="fill: none; stroke: #ff7f0e; stroke-opacity: 0.5; stroke-width: 0.2; stroke-linecap: square"/>
   </g>
   <g id="line2d_13">
    <path d="M 256.619695 124.021039 
L 255.619695 123.989603 
L 254.619695 123.952663 
L 253.619695 123.854916 
L 252.619695 123.822394 
L 251.619695 123.74877 
L 250.619695 123.710204 
L 249.619695 123.674791 
L 248.619695 123.617151 
L 247.619695 123.546765 
L 246.619695 123.494801 
L 245.619695 123.435711 
L 244.619695 123.34739 
L 243.619695 123.301246 
L 242.619695 123.258835 
L 241.619695 123.228342 
L 240.619695 123.202297 
L 239.619695 123.181097 
L 238.619695 123.126796 
L 237.619695 123.098858 
L 236.619695 123.069134 
L 235.619695 123.04374 
L 234.619695 123.032539 
L 233.619695 123.022415 
L 232.619695 123.02262 
L 231.619695 123.032129 
L 230.619695 123.043783 
L 229.619695 123.074812 
L 228.619695 123.08598 
L 227.619695 123.116098 
L 226.619695 123.175875 
L 225.619695 123.213066 
L 224.619695 123.252162 
L 223.619695 123.294602 
L 222.619695 123.327367 
L 221.619695 123.394793 
L 220.619695 123.433919 
L 219.619695 123.476594 
L 218.619695 123.547174 
L 217.619695 123.583565 
L 216.619695 123.641969 
L 215.619695 123.752921 
L 214.619695 123.823579 
L 213.619695 123.936519 
L 212.619695 123.982292 
L 211.619695 124.043575 
L 210.619695 124.092075 
L 209.619695 124.172897 
L 208.619695 124.291416 
L 207.619695 124.361627 
L 206.619695 124.444889 
L 205.619695 124.478031 
L 204.619695 124.529268 
L 203.619695 124.597667 
L 202.619695 124.663882 
L 201.619695 124.740799 
L 200.299443 124.768115 
" clip-path="url(#p14e6d5cbb1)" style="fill: none; stroke: #ff7f0e; stroke-opacity: 0.5; stroke-width: 0.2; stroke-linecap: square"/>
   </g>
   <g id="line2d_14">
    <path d="M 256.619695 314.316105 
L 255.619695 314.284669 
L 254.619695 314.247729 
L 253.619695 314.149982 
L 252.619695 314.11746 
L 251.619695 314.043836 
L 250.619695 314.00527 
L 249.619695 313.969857 
L 248.619695 313.912217 
L 247.619695 313.841831 
L 246.619695 313.789867 
L 245.619695 313.730777 
L 244.619695 313.642456 
L 243.619695 313.596312 
L 242.619695 313.553901 
L 241.619695 313.523408 
L 240.619695 313.497363 
L 239.619695 313.476163 
L 238.619695 313.421862 
L 237.619695 313.393924 
L 236.619695 313.3642 
L 235.619695 313.338806 
L 234.619695 313.327605 
L 233.619695 313.317481 
L 232.619695 313.317686 
L 231.619695 313.327195 
L 230.619695 313.338849 
L 229.619695 313.369878 
L 228.619695 313.381046 
L 227.619695 313.411164 
L 226.619695 313.470941 
L 225.619695 313.508132 
L 224.619695 313.547228 
L 223.619695 313.589668 
L 222.619695 313.622433 
L 221.619695 313.689859 
L 220.619695 313.728985 
L 219.619695 313.77166 
L 218.619695 313.842241 
L 217.619695 313.878631 
L 216.619695 313.937035 
L 215.619695 314.047987 
L 214.619695 314.118645 
L 213.619695 314.231585 
L 212.619695 314.277358 
L 211.619695 314.338641 
L 210.619695 314.387141 
L 209.619695 314.467963 
L 208.619695 314.586482 
L 207.619695 314.656693 
L 206.619695 314.739955 
L 205.619695 314.773097 
L 204.619695 314.824335 
L 203.619695 314.892733 
L 202.619695 314.958948 
L 201.619695 315.035865 
L 200.299443 315.063181 
" clip-path="url(#p14e6d5cbb1)" style="fill: none; stroke: #ff7f0e; stroke-opacity: 0.5; stroke-width: 0.2; stroke-linecap: square"/>
   </g>
   <g id="line2d_15">
    <path d="M 256.619695 251.135751 
L 255.619695 251.104315 
L 254.619695 251.067374 
L 253.619695 250.969628 
L 252.619695 250.937106 
L 251.619695 250.863482 
L 250.619695 250.824916 
L 249.619695 250.789503 
L 248.619695 250.731863 
L 247.619695 250.661477 
L 246.619695 250.609513 
L 245.619695 250.550423 
L 244.619695 250.462102 
L 243.619695 250.415957 
L 242.619695 250.373547 
L 241.619695 250.343054 
L 240.619695 250.317009 
L 239.619695 250.295809 
L 238.619695 250.241508 
L 237.619695 250.21357 
L 236.619695 250.183846 
L 235.619695 250.158451 
L 234.619695 250.147251 
L 233.619695 250.137127 
L 232.619695 250.137331 
L 231.619695 250.146841 
L 230.619695 250.158495 
L 229.619695 250.189524 
L 228.619695 250.200692 
L 227.619695 250.23081 
L 226.619695 250.290586 
L 225.619695 250.327778 
L 224.619695 250.366874 
L 223.619695 250.409314 
L 222.619695 250.442079 
L 221.619695 250.509505 
L 220.619695 250.548631 
L 219.619695 250.591306 
L 218.619695 250.661886 
L 217.619695 250.698277 
L 216.619695 250.75668 
L 215.619695 250.867633 
L 214.619695 250.938291 
L 213.619695 251.051231 
L 212.619695 251.097004 
L 211.619695 251.158287 
L 210.619695 251.206787 
L 209.619695 251.287609 
L 208.619695 251.406128 
L 207.619695 251.476339 
L 206.619695 251.559601 
L 205.619695 251.592743 
L 204.619695 251.64398 
L 203.619695 251.712379 
L 202.619695 251.778594 
L 201.619695 251.855511 
L 200.299443 251.882827 
" clip-path="url(#p14e6d5cbb1)" style="fill: none; stroke: #ff7f0e; stroke-opacity: 0.5; stroke-width: 0.2; stroke-linecap: square"/>
   </g>
   <g id="line2d_16">
    <path d="M 256.619695 180.63328 
L 255.619695 180.601844 
L 254.619695 180.564903 
L 253.619695 180.467157 
L 252.619695 180.434635 
L 251.619695 180.36101 
L 250.619695 180.322445 
L 249.619695 180.287032 
L 248.619695 180.229392 
L 247.619695 180.159006 
L 246.619695 180.107041 
L 245.619695 180.047952 
L 244.619695 179.959631 
L 243.619695 179.913486 
L 242.619695 179.871075 
L 241.619695 179.840583 
L 240.619695 179.814538 
L 239.619695 179.793338 
L 238.619695 179.739037 
L 237.619695 179.711099 
L 236.619695 179.681375 
L 235.619695 179.65598 
L 234.619695 179.64478 
L 233.619695 179.634656 
L 232.619695 179.63486 
L 231.619695 179.64437 
L 230.619695 179.656024 
L 229.619695 179.687053 
L 228.619695 179.698221 
L 227.619695 179.728338 
L 226.619695 179.788115 
L 225.619695 179.825307 
L 224.619695 179.864403 
L 223.619695 179.906843 
L 222.619695 179.939608 
L 221.619695 180.007034 
L 220.619695 180.04616 
L 219.619695 180.088835 
L 218.619695 180.159415 
L 217.619695 180.195806 
L 216.619695 180.254209 
L 215.619695 180.365162 
L 214.619695 180.43582 
L 213.619695 180.54876 
L 212.619695 180.594533 
L 211.619695 180.655816 
L 210.619695 180.704315 
L 209.619695 180.785138 
L 208.619695 180.903657 
L 207.619695 180.973868 
L 206.619695 181.05713 
L 205.619695 181.090272 
L 204.619695 181.141509 
L 203.619695 181.209908 
L 202.619695 181.276123 
L 201.619695 181.35304 
L 200.299443 181.380356 
" clip-path="url(#p14e6d5cbb1)" style="fill: none; stroke: #ff7f0e; stroke-opacity: 0.5; stroke-width: 0.2; stroke-linecap: square"/>
   </g>
   <g id="line2d_17">
    <path d="M 256.619695 38.477089 
L 255.619695 38.445653 
L 254.619695 38.408713 
L 253.619695 38.310966 
L 252.619695 38.278444 
L 251.619695 38.20482 
L 250.619695 38.166254 
L 249.619695 38.130841 
L 248.619695 38.073201 
L 247.619695 38.002815 
L 246.619695 37.950851 
L 245.619695 37.891761 
L 244.619695 37.80344 
L 243.619695 37.757296 
L 242.619695 37.714885 
L 241.619695 37.684392 
L 240.619695 37.658347 
L 239.619695 37.637147 
L 238.619695 37.582846 
L 237.619695 37.554908 
L 236.619695 37.525184 
L 235.619695 37.49979 
L 234.619695 37.488589 
L 233.619695 37.478465 
L 232.619695 37.47867 
L 231.619695 37.488179 
L 230.619695 37.499833 
L 229.619695 37.530862 
L 228.619695 37.54203 
L 227.619695 37.572148 
L 226.619695 37.631925 
L 225.619695 37.669116 
L 224.619695 37.708212 
L 223.619695 37.750652 
L 222.619695 37.783417 
L 221.619695 37.850844 
L 220.619695 37.889969 
L 219.619695 37.932644 
L 218.619695 38.003225 
L 217.619695 38.039615 
L 216.619695 38.098019 
L 215.619695 38.208971 
L 214.619695 38.27963 
L 213.619695 38.392569 
L 212.619695 38.438342 
L 211.619695 38.499625 
L 210.619695 38.548125 
L 209.619695 38.628947 
L 208.619695 38.747466 
L 207.619695 38.817677 
L 206.619695 38.900939 
L 205.619695 38.934081 
L 204.619695 38.985319 
L 203.619695 39.053717 
L 202.619695 39.119932 
L 201.619695 39.196849 
L 200.299443 39.224165 
" clip-path="url(#p14e6d5cbb1)" style="fill: none; stroke: #ff7f0e; stroke-opacity: 0.5; stroke-width: 0.2; stroke-linecap: square"/>
   </g>
   <g id="line2d_18">
    <path d="M 256.619695 186.181322 
L 255.619695 186.149885 
L 254.619695 186.112945 
L 253.619695 186.015198 
L 252.619695 185.982677 
L 251.619695 185.909052 
L 250.619695 185.870486 
L 249.619695 185.835073 
L 248.619695 185.777433 
L 247.619695 185.707047 
L 246.619695 185.655083 
L 245.619695 185.595993 
L 244.619695 185.507672 
L 243.619695 185.461528 
L 242.619695 185.419117 
L 241.619695 185.388624 
L 240.619695 185.362579 
L 239.619695 185.341379 
L 238.619695 185.287078 
L 237.619695 185.259141 
L 236.619695 185.229417 
L 235.619695 185.204022 
L 234.619695 185.192821 
L 233.619695 185.182698 
L 232.619695 185.182902 
L 231.619695 185.192412 
L 230.619695 185.204065 
L 229.619695 185.235095 
L 228.619695 185.246262 
L 227.619695 185.27638 
L 226.619695 185.336157 
L 225.619695 185.373348 
L 224.619695 185.412445 
L 223.619695 185.454884 
L 222.619695 185.487649 
L 221.619695 185.555076 
L 220.619695 185.594202 
L 219.619695 185.636876 
L 218.619695 185.707457 
L 217.619695 185.743848 
L 216.619695 185.802251 
L 215.619695 185.913203 
L 214.619695 185.983862 
L 213.619695 186.096802 
L 212.619695 186.142574 
L 211.619695 186.203858 
L 210.619695 186.252357 
L 209.619695 186.33318 
L 208.619695 186.451699 
L 207.619695 186.521909 
L 206.619695 186.605172 
L 205.619695 186.638314 
L 204.619695 186.689551 
L 203.619695 186.757949 
L 202.619695 186.824165 
L 201.619695 186.901082 
L 200.299443 186.928397 
" clip-path="url(#p14e6d5cbb1)" style="fill: none; stroke: #ff7f0e; stroke-opacity: 0.5; stroke-width: 0.2; stroke-linecap: square"/>
   </g>
   <g id="line2d_19">
    <path d="M 256.619695 265.771805 
L 255.619695 265.740369 
L 254.619695 265.703428 
L 253.619695 265.605682 
L 252.619695 265.57316 
L 251.619695 265.499536 
L 250.619695 265.46097 
L 249.619695 265.425557 
L 248.619695 265.367917 
L 247.619695 265.297531 
L 246.619695 265.245566 
L 245.619695 265.186477 
L 244.619695 265.098156 
L 243.619695 265.052011 
L 242.619695 265.009601 
L 241.619695 264.979108 
L 240.619695 264.953063 
L 239.619695 264.931863 
L 238.619695 264.877562 
L 237.619695 264.849624 
L 236.619695 264.8199 
L 235.619695 264.794505 
L 234.619695 264.783305 
L 233.619695 264.773181 
L 232.619695 264.773385 
L 231.619695 264.782895 
L 230.619695 264.794549 
L 229.619695 264.825578 
L 228.619695 264.836746 
L 227.619695 264.866864 
L 226.619695 264.92664 
L 225.619695 264.963832 
L 224.619695 265.002928 
L 223.619695 265.045368 
L 222.619695 265.078133 
L 221.619695 265.145559 
L 220.619695 265.184685 
L 219.619695 265.22736 
L 218.619695 265.29794 
L 217.619695 265.334331 
L 216.619695 265.392734 
L 215.619695 265.503687 
L 214.619695 265.574345 
L 213.619695 265.687285 
L 212.619695 265.733058 
L 211.619695 265.794341 
L 210.619695 265.842841 
L 209.619695 265.923663 
L 208.619695 266.042182 
L 207.619695 266.112393 
L 206.619695 266.195655 
L 205.619695 266.228797 
L 204.619695 266.280034 
L 203.619695 266.348433 
L 202.619695 266.414648 
L 201.619695 266.491565 
L 200.299443 266.518881 
" clip-path="url(#p14e6d5cbb1)" style="fill: none; stroke: #ff7f0e; stroke-opacity: 0.5; stroke-width: 0.2; stroke-linecap: square"/>
   </g>
   <g id="line2d_20">
    <path d="M 256.619695 300.211149 
L 255.619695 300.179713 
L 254.619695 300.142773 
L 253.619695 300.045026 
L 252.619695 300.012504 
L 251.619695 299.93888 
L 250.619695 299.900314 
L 249.619695 299.864901 
L 248.619695 299.807261 
L 247.619695 299.736875 
L 246.619695 299.684911 
L 245.619695 299.625821 
L 244.619695 299.5375 
L 243.619695 299.491356 
L 242.619695 299.448945 
L 241.619695 299.418452 
L 240.619695 299.392407 
L 239.619695 299.371207 
L 238.619695 299.316906 
L 237.619695 299.288968 
L 236.619695 299.259244 
L 235.619695 299.23385 
L 234.619695 299.222649 
L 233.619695 299.212525 
L 232.619695 299.21273 
L 231.619695 299.222239 
L 230.619695 299.233893 
L 229.619695 299.264922 
L 228.619695 299.27609 
L 227.619695 299.306208 
L 226.619695 299.365985 
L 225.619695 299.403176 
L 224.619695 299.442272 
L 223.619695 299.484712 
L 222.619695 299.517477 
L 221.619695 299.584903 
L 220.619695 299.624029 
L 219.619695 299.666704 
L 218.619695 299.737285 
L 217.619695 299.773675 
L 216.619695 299.832079 
L 215.619695 299.943031 
L 214.619695 300.013689 
L 213.619695 300.126629 
L 212.619695 300.172402 
L 211.619695 300.233685 
L 210.619695 300.282185 
L 209.619695 300.363007 
L 208.619695 300.481526 
L 207.619695 300.551737 
L 206.619695 300.634999 
L 205.619695 300.668141 
L 204.619695 300.719379 
L 203.619695 300.787777 
L 202.619695 300.853992 
L 201.619695 300.930909 
L 200.299443 300.958225 
" clip-path="url(#p14e6d5cbb1)" style="fill: none; stroke: #ff7f0e; stroke-opacity: 0.5; stroke-width: 0.2; stroke-linecap: square"/>
   </g>
   <g id="line2d_21">
    <path d="M 390.34593 159.674445 
L 391.34593 159.705882 
L 392.34593 159.742822 
L 393.34593 159.840569 
L 394.34593 159.87309 
L 395.34593 159.946715 
L 396.34593 159.98528 
L 397.34593 160.020694 
L 398.34593 160.078334 
L 399.34593 160.14872 
L 400.34593 160.200684 
L 401.34593 160.259774 
L 402.34593 160.348095 
L 403.34593 160.394239 
L 404.34593 160.43665 
L 405.34593 160.467143 
L 406.34593 160.493188 
L 407.34593 160.514388 
L 408.34593 160.568689 
L 409.34593 160.596626 
L 410.34593 160.62635 
L 411.34593 160.651745 
L 412.34593 160.662945 
L 413.34593 160.673069 
L 414.34593 160.672865 
L 415.34593 160.663355 
L 416.34593 160.651702 
L 417.34593 160.620672 
L 418.34593 160.609504 
L 419.34593 160.579387 
L 420.34593 160.51961 
L 421.34593 160.482418 
L 422.34593 160.443322 
L 423.34593 160.400883 
L 424.34593 160.368118 
L 425.34593 160.300691 
L 426.34593 160.261565 
L 427.34593 160.218891 
L 428.34593 160.14831 
L 429.34593 160.111919 
L 430.34593 160.053516 
L 431.34593 159.942563 
L 432.34593 159.871905 
L 433.34593 159.758965 
L 434.34593 159.713192 
L 435.34593 159.651909 
L 436.34593 159.60341 
L 437.34593 159.522587 
L 438.34593 159.404068 
L 439.34593 159.333858 
L 440.34593 159.250595 
L 441.34593 159.217453 
L 442.34593 159.166216 
L 443.34593 159.097818 
L 444.34593 159.031602 
L 445.34593 158.954685 
L 446.666182 158.92737 
" clip-path="url(#p14e6d5cbb1)" style="fill: none; stroke: #ff7f0e; stroke-opacity: 0.5; stroke-width: 0.2; stroke-linecap: square"/>
   </g>
   <g id="line2d_22">
    <path d="M 390.34593 293.639338 
L 391.34593 293.670775 
L 392.34593 293.707715 
L 393.34593 293.805462 
L 394.34593 293.837983 
L 395.34593 293.911608 
L 396.34593 293.950174 
L 397.34593 293.985587 
L 398.34593 294.043227 
L 399.34593 294.113613 
L 400.34593 294.165577 
L 401.34593 294.224667 
L 402.34593 294.312988 
L 403.34593 294.359132 
L 404.34593 294.401543 
L 405.34593 294.432036 
L 406.34593 294.458081 
L 407.34593 294.479281 
L 408.34593 294.533582 
L 409.34593 294.561519 
L 410.34593 294.591243 
L 411.34593 294.616638 
L 412.34593 294.627839 
L 413.34593 294.637962 
L 414.34593 294.637758 
L 415.34593 294.628248 
L 416.34593 294.616595 
L 417.34593 294.585565 
L 418.34593 294.574398 
L 419.34593 294.54428 
L 420.34593 294.484503 
L 421.34593 294.447312 
L 422.34593 294.408215 
L 423.34593 294.365776 
L 424.34593 294.333011 
L 425.34593 294.265584 
L 426.34593 294.226458 
L 427.34593 294.183784 
L 428.34593 294.113203 
L 429.34593 294.076812 
L 430.34593 294.018409 
L 431.34593 293.907457 
L 432.34593 293.836798 
L 433.34593 293.723858 
L 434.34593 293.678086 
L 435.34593 293.616802 
L 436.34593 293.568303 
L 437.34593 293.48748 
L 438.34593 293.368961 
L 439.34593 293.298751 
L 440.34593 293.215488 
L 441.34593 293.182346 
L 442.34593 293.131109 
L 443.34593 293.062711 
L 444.34593 292.996495 
L 445.34593 292.919578 
L 446.666182 292.892263 
" clip-path="url(#p14e6d5cbb1)" style="fill: none; stroke: #ff7f0e; stroke-opacity: 0.5; stroke-width: 0.2; stroke-linecap: square"/>
   </g>
   <g id="line2d_23">
    <path d="M 390.34593 13.527546 
L 391.34593 13.558983 
L 392.34593 13.595923 
L 393.34593 13.69367 
L 394.34593 13.726191 
L 395.34593 13.799816 
L 396.34593 13.838382 
L 397.34593 13.873795 
L 398.34593 13.931435 
L 399.34593 14.001821 
L 400.34593 14.053785 
L 401.34593 14.112875 
L 402.34593 14.201196 
L 403.34593 14.24734 
L 404.34593 14.289751 
L 405.34593 14.320244 
L 406.34593 14.346289 
L 407.34593 14.367489 
L 408.34593 14.42179 
L 409.34593 14.449727 
L 410.34593 14.479451 
L 411.34593 14.504846 
L 412.34593 14.516047 
L 413.34593 14.526171 
L 414.34593 14.525966 
L 415.34593 14.516456 
L 416.34593 14.504803 
L 417.34593 14.473774 
L 418.34593 14.462606 
L 419.34593 14.432488 
L 420.34593 14.372711 
L 421.34593 14.33552 
L 422.34593 14.296424 
L 423.34593 14.253984 
L 424.34593 14.221219 
L 425.34593 14.153792 
L 426.34593 14.114666 
L 427.34593 14.071992 
L 428.34593 14.001411 
L 429.34593 13.96502 
L 430.34593 13.906617 
L 431.34593 13.795665 
L 432.34593 13.725006 
L 433.34593 13.612066 
L 434.34593 13.566294 
L 435.34593 13.50501 
L 436.34593 13.456511 
L 437.34593 13.375688 
L 438.34593 13.257169 
L 439.34593 13.186959 
L 440.34593 13.103696 
L 441.34593 13.070555 
L 442.34593 13.019317 
L 443.34593 12.950919 
L 444.34593 12.884703 
L 445.34593 12.807786 
L 446.666182 12.780471 
" clip-path="url(#p14e6d5cbb1)" style="fill: none; stroke: #ff7f0e; stroke-opacity: 0.5; stroke-width: 0.2; stroke-linecap: square"/>
   </g>
   <g id="line2d_24">
    <path d="M 390.34593 65.369406 
L 391.34593 65.400842 
L 392.34593 65.437783 
L 393.34593 65.535529 
L 394.34593 65.568051 
L 395.34593 65.641675 
L 396.34593 65.680241 
L 397.34593 65.715654 
L 398.34593 65.773294 
L 399.34593 65.84368 
L 400.34593 65.895644 
L 401.34593 65.954734 
L 402.34593 66.043055 
L 403.34593 66.089199 
L 404.34593 66.13161 
L 405.34593 66.162103 
L 406.34593 66.188148 
L 407.34593 66.209348 
L 408.34593 66.263649 
L 409.34593 66.291587 
L 410.34593 66.321311 
L 411.34593 66.346706 
L 412.34593 66.357906 
L 413.34593 66.36803 
L 414.34593 66.367826 
L 415.34593 66.358316 
L 416.34593 66.346662 
L 417.34593 66.315633 
L 418.34593 66.304465 
L 419.34593 66.274347 
L 420.34593 66.21457 
L 421.34593 66.177379 
L 422.34593 66.138283 
L 423.34593 66.095843 
L 424.34593 66.063078 
L 425.34593 65.995652 
L 426.34593 65.956526 
L 427.34593 65.913851 
L 428.34593 65.843271 
L 429.34593 65.80688 
L 430.34593 65.748477 
L 431.34593 65.637524 
L 432.34593 65.566866 
L 433.34593 65.453926 
L 434.34593 65.408153 
L 435.34593 65.34687 
L 436.34593 65.29837 
L 437.34593 65.217548 
L 438.34593 65.099029 
L 439.34593 65.028818 
L 440.34593 64.945556 
L 441.34593 64.912414 
L 442.34593 64.861177 
L 443.34593 64.792778 
L 444.34593 64.726563 
L 445.34593 64.649646 
L 446.666182 64.62233 
" clip-path="url(#p14e6d5cbb1)" style="fill: none; stroke: #ff7f0e; stroke-opacity: 0.5; stroke-width: 0.2; stroke-linecap: square"/>
   </g>
   <g id="line2d_25">
    <path d="M 390.34593 18.294285 
L 391.34593 18.325722 
L 392.34593 18.362662 
L 393.34593 18.460408 
L 394.34593 18.49293 
L 395.34593 18.566555 
L 396.34593 18.60512 
L 397.34593 18.640534 
L 398.34593 18.698173 
L 399.34593 18.76856 
L 400.34593 18.820524 
L 401.34593 18.879614 
L 402.34593 18.967935 
L 403.34593 19.014079 
L 404.34593 19.05649 
L 405.34593 19.086983 
L 406.34593 19.113027 
L 407.34593 19.134228 
L 408.34593 19.188529 
L 409.34593 19.216466 
L 410.34593 19.24619 
L 411.34593 19.271585 
L 412.34593 19.282785 
L 413.34593 19.292909 
L 414.34593 19.292705 
L 415.34593 19.283195 
L 416.34593 19.271542 
L 417.34593 19.240512 
L 418.34593 19.229344 
L 419.34593 19.199227 
L 420.34593 19.13945 
L 421.34593 19.102258 
L 422.34593 19.063162 
L 423.34593 19.020723 
L 424.34593 18.987958 
L 425.34593 18.920531 
L 426.34593 18.881405 
L 427.34593 18.838731 
L 428.34593 18.76815 
L 429.34593 18.731759 
L 430.34593 18.673356 
L 431.34593 18.562403 
L 432.34593 18.491745 
L 433.34593 18.378805 
L 434.34593 18.333032 
L 435.34593 18.271749 
L 436.34593 18.22325 
L 437.34593 18.142427 
L 438.34593 18.023908 
L 439.34593 17.953698 
L 440.34593 17.870435 
L 441.34593 17.837293 
L 442.34593 17.786056 
L 443.34593 17.717658 
L 444.34593 17.651442 
L 445.34593 17.574525 
L 446.666182 17.54721 
" clip-path="url(#p14e6d5cbb1)" style="fill: none; stroke: #ff7f0e; stroke-opacity: 0.5; stroke-width: 0.2; stroke-linecap: square"/>
   </g>
   <g id="line2d_26">
    <path d="M 390.34593 129.867025 
L 391.34593 129.898461 
L 392.34593 129.935402 
L 393.34593 130.033148 
L 394.34593 130.06567 
L 395.34593 130.139295 
L 396.34593 130.17786 
L 397.34593 130.213273 
L 398.34593 130.270913 
L 399.34593 130.3413 
L 400.34593 130.393264 
L 401.34593 130.452354 
L 402.34593 130.540674 
L 403.34593 130.586819 
L 404.34593 130.62923 
L 405.34593 130.659722 
L 406.34593 130.685767 
L 407.34593 130.706967 
L 408.34593 130.761269 
L 409.34593 130.789206 
L 410.34593 130.81893 
L 411.34593 130.844325 
L 412.34593 130.855525 
L 413.34593 130.865649 
L 414.34593 130.865445 
L 415.34593 130.855935 
L 416.34593 130.844281 
L 417.34593 130.813252 
L 418.34593 130.802084 
L 419.34593 130.771967 
L 420.34593 130.71219 
L 421.34593 130.674998 
L 422.34593 130.635902 
L 423.34593 130.593463 
L 424.34593 130.560697 
L 425.34593 130.493271 
L 426.34593 130.454145 
L 427.34593 130.411471 
L 428.34593 130.34089 
L 429.34593 130.304499 
L 430.34593 130.246096 
L 431.34593 130.135143 
L 432.34593 130.064485 
L 433.34593 129.951545 
L 434.34593 129.905772 
L 435.34593 129.844489 
L 436.34593 129.79599 
L 437.34593 129.715167 
L 438.34593 129.596648 
L 439.34593 129.526437 
L 440.34593 129.443175 
L 441.34593 129.410033 
L 442.34593 129.358796 
L 443.34593 129.290398 
L 444.34593 129.224182 
L 445.34593 129.147265 
L 446.666182 129.11995 
" clip-path="url(#p14e6d5cbb1)" style="fill: none; stroke: #ff7f0e; stroke-opacity: 0.5; stroke-width: 0.2; stroke-linecap: square"/>
   </g>
   <g id="line2d_27">
    <path d="M 390.34593 91.896766 
L 391.34593 91.928202 
L 392.34593 91.965142 
L 393.34593 92.062889 
L 394.34593 92.095411 
L 395.34593 92.169035 
L 396.34593 92.207601 
L 397.34593 92.243014 
L 398.34593 92.300654 
L 399.34593 92.37104 
L 400.34593 92.423004 
L 401.34593 92.482094 
L 402.34593 92.570415 
L 403.34593 92.616559 
L 404.34593 92.65897 
L 405.34593 92.689463 
L 406.34593 92.715508 
L 407.34593 92.736708 
L 408.34593 92.791009 
L 409.34593 92.818947 
L 410.34593 92.848671 
L 411.34593 92.874065 
L 412.34593 92.885266 
L 413.34593 92.89539 
L 414.34593 92.895185 
L 415.34593 92.885676 
L 416.34593 92.874022 
L 417.34593 92.842993 
L 418.34593 92.831825 
L 419.34593 92.801707 
L 420.34593 92.74193 
L 421.34593 92.704739 
L 422.34593 92.665643 
L 423.34593 92.623203 
L 424.34593 92.590438 
L 425.34593 92.523012 
L 426.34593 92.483886 
L 427.34593 92.441211 
L 428.34593 92.37063 
L 429.34593 92.33424 
L 430.34593 92.275836 
L 431.34593 92.164884 
L 432.34593 92.094226 
L 433.34593 91.981286 
L 434.34593 91.935513 
L 435.34593 91.87423 
L 436.34593 91.82573 
L 437.34593 91.744908 
L 438.34593 91.626389 
L 439.34593 91.556178 
L 440.34593 91.472916 
L 441.34593 91.439774 
L 442.34593 91.388536 
L 443.34593 91.320138 
L 444.34593 91.253923 
L 445.34593 91.177006 
L 446.666182 91.14969 
" clip-path="url(#p14e6d5cbb1)" style="fill: none; stroke: #ff7f0e; stroke-opacity: 0.5; stroke-width: 0.2; stroke-linecap: square"/>
   </g>
   <g id="line2d_28">
    <path d="M 390.34593 20.328578 
L 391.34593 20.360014 
L 392.34593 20.396954 
L 393.34593 20.494701 
L 394.34593 20.527223 
L 395.34593 20.600847 
L 396.34593 20.639413 
L 397.34593 20.674826 
L 398.34593 20.732466 
L 399.34593 20.802852 
L 400.34593 20.854816 
L 401.34593 20.913906 
L 402.34593 21.002227 
L 403.34593 21.048371 
L 404.34593 21.090782 
L 405.34593 21.121275 
L 406.34593 21.14732 
L 407.34593 21.16852 
L 408.34593 21.222821 
L 409.34593 21.250759 
L 410.34593 21.280483 
L 411.34593 21.305877 
L 412.34593 21.317078 
L 413.34593 21.327202 
L 414.34593 21.326997 
L 415.34593 21.317488 
L 416.34593 21.305834 
L 417.34593 21.274805 
L 418.34593 21.263637 
L 419.34593 21.233519 
L 420.34593 21.173742 
L 421.34593 21.136551 
L 422.34593 21.097455 
L 423.34593 21.055015 
L 424.34593 21.02225 
L 425.34593 20.954824 
L 426.34593 20.915698 
L 427.34593 20.873023 
L 428.34593 20.802442 
L 429.34593 20.766052 
L 430.34593 20.707648 
L 431.34593 20.596696 
L 432.34593 20.526038 
L 433.34593 20.413098 
L 434.34593 20.367325 
L 435.34593 20.306042 
L 436.34593 20.257542 
L 437.34593 20.17672 
L 438.34593 20.058201 
L 439.34593 19.98799 
L 440.34593 19.904728 
L 441.34593 19.871586 
L 442.34593 19.820348 
L 443.34593 19.75195 
L 444.34593 19.685735 
L 445.34593 19.608818 
L 446.666182 19.581502 
" clip-path="url(#p14e6d5cbb1)" style="fill: none; stroke: #ff7f0e; stroke-opacity: 0.5; stroke-width: 0.2; stroke-linecap: square"/>
   </g>
   <g id="line2d_29">
    <path d="M 390.34593 65.574793 
L 391.34593 65.60623 
L 392.34593 65.64317 
L 393.34593 65.740917 
L 394.34593 65.773438 
L 395.34593 65.847063 
L 396.34593 65.885629 
L 397.34593 65.921042 
L 398.34593 65.978682 
L 399.34593 66.049068 
L 400.34593 66.101032 
L 401.34593 66.160122 
L 402.34593 66.248443 
L 403.34593 66.294587 
L 404.34593 66.336998 
L 405.34593 66.367491 
L 406.34593 66.393536 
L 407.34593 66.414736 
L 408.34593 66.469037 
L 409.34593 66.496974 
L 410.34593 66.526698 
L 411.34593 66.552093 
L 412.34593 66.563294 
L 413.34593 66.573418 
L 414.34593 66.573213 
L 415.34593 66.563703 
L 416.34593 66.55205 
L 417.34593 66.521021 
L 418.34593 66.509853 
L 419.34593 66.479735 
L 420.34593 66.419958 
L 421.34593 66.382767 
L 422.34593 66.343671 
L 423.34593 66.301231 
L 424.34593 66.268466 
L 425.34593 66.201039 
L 426.34593 66.161913 
L 427.34593 66.119239 
L 428.34593 66.048658 
L 429.34593 66.012267 
L 430.34593 65.953864 
L 431.34593 65.842912 
L 432.34593 65.772253 
L 433.34593 65.659313 
L 434.34593 65.613541 
L 435.34593 65.552257 
L 436.34593 65.503758 
L 437.34593 65.422935 
L 438.34593 65.304416 
L 439.34593 65.234206 
L 440.34593 65.150943 
L 441.34593 65.117802 
L 442.34593 65.066564 
L 443.34593 64.998166 
L 444.34593 64.93195 
L 445.34593 64.855033 
L 446.666182 64.827718 
" clip-path="url(#p14e6d5cbb1)" style="fill: none; stroke: #ff7f0e; stroke-opacity: 0.5; stroke-width: 0.2; stroke-linecap: square"/>
   </g>
   <g id="line2d_30">
    <path d="M 390.34593 172.414554 
L 391.34593 172.44599 
L 392.34593 172.482931 
L 393.34593 172.580677 
L 394.34593 172.613199 
L 395.34593 172.686824 
L 396.34593 172.725389 
L 397.34593 172.760802 
L 398.34593 172.818442 
L 399.34593 172.888828 
L 400.34593 172.940793 
L 401.34593 172.999882 
L 402.34593 173.088203 
L 403.34593 173.134348 
L 404.34593 173.176759 
L 405.34593 173.207251 
L 406.34593 173.233296 
L 407.34593 173.254496 
L 408.34593 173.308797 
L 409.34593 173.336735 
L 410.34593 173.366459 
L 411.34593 173.391854 
L 412.34593 173.403054 
L 413.34593 173.413178 
L 414.34593 173.412974 
L 415.34593 173.403464 
L 416.34593 173.39181 
L 417.34593 173.360781 
L 418.34593 173.349613 
L 419.34593 173.319496 
L 420.34593 173.259719 
L 421.34593 173.222527 
L 422.34593 173.183431 
L 423.34593 173.140991 
L 424.34593 173.108226 
L 425.34593 173.0408 
L 426.34593 173.001674 
L 427.34593 172.958999 
L 428.34593 172.888419 
L 429.34593 172.852028 
L 430.34593 172.793625 
L 431.34593 172.682672 
L 432.34593 172.612014 
L 433.34593 172.499074 
L 434.34593 172.453301 
L 435.34593 172.392018 
L 436.34593 172.343519 
L 437.34593 172.262696 
L 438.34593 172.144177 
L 439.34593 172.073966 
L 440.34593 171.990704 
L 441.34593 171.957562 
L 442.34593 171.906325 
L 443.34593 171.837926 
L 444.34593 171.771711 
L 445.34593 171.694794 
L 446.666182 171.667478 
" clip-path="url(#p14e6d5cbb1)" style="fill: none; stroke: #ff7f0e; stroke-opacity: 0.5; stroke-width: 0.2; stroke-linecap: square"/>
   </g>
   <g id="line2d_31">
    <path d="M 446.666182 214.983522 
L 445.666182 214.952086 
L 444.666182 214.915145 
L 443.666182 214.817399 
L 442.666182 214.784877 
L 441.666182 214.711253 
L 440.666182 214.672687 
L 439.666182 214.637274 
L 438.666182 214.579634 
L 437.666182 214.509248 
L 436.666182 214.457283 
L 435.666182 214.398194 
L 434.666182 214.309873 
L 433.666182 214.263728 
L 432.666182 214.221317 
L 431.666182 214.190825 
L 430.666182 214.16478 
L 429.666182 214.14358 
L 428.666182 214.089279 
L 427.666182 214.061341 
L 426.666182 214.031617 
L 425.666182 214.006222 
L 424.666182 213.995022 
L 423.666182 213.984898 
L 422.666182 213.985102 
L 421.666182 213.994612 
L 420.666182 214.006266 
L 419.666182 214.037295 
L 418.666182 214.048463 
L 417.666182 214.07858 
L 416.666182 214.138357 
L 415.666182 214.175549 
L 414.666182 214.214645 
L 413.666182 214.257085 
L 412.666182 214.28985 
L 411.666182 214.357276 
L 410.666182 214.396402 
L 409.666182 214.439077 
L 408.666182 214.509657 
L 407.666182 214.546048 
L 406.666182 214.604451 
L 405.666182 214.715404 
L 404.666182 214.786062 
L 403.666182 214.899002 
L 402.666182 214.944775 
L 401.666182 215.006058 
L 400.666182 215.054558 
L 399.666182 215.13538 
L 398.666182 215.253899 
L 397.666182 215.32411 
L 396.666182 215.407372 
L 395.666182 215.440514 
L 394.666182 215.491751 
L 393.666182 215.56015 
L 392.666182 215.626365 
L 391.666182 215.703282 
L 390.34593 215.730598 
" clip-path="url(#p14e6d5cbb1)" style="fill: none; stroke: #2ca02c; stroke-opacity: 0.5; stroke-width: 0.2; stroke-linecap: square"/>
   </g>
   <g id="line2d_32">
    <path d="M 446.666182 31.185823 
L 445.666182 31.154386 
L 444.666182 31.117446 
L 443.666182 31.019699 
L 442.666182 30.987178 
L 441.666182 30.913553 
L 440.666182 30.874987 
L 439.666182 30.839574 
L 438.666182 30.781934 
L 437.666182 30.711548 
L 436.666182 30.659584 
L 435.666182 30.600494 
L 434.666182 30.512173 
L 433.666182 30.466029 
L 432.666182 30.423618 
L 431.666182 30.393125 
L 430.666182 30.36708 
L 429.666182 30.34588 
L 428.666182 30.291579 
L 427.666182 30.263641 
L 426.666182 30.233918 
L 425.666182 30.208523 
L 424.666182 30.197322 
L 423.666182 30.187198 
L 422.666182 30.187403 
L 421.666182 30.196913 
L 420.666182 30.208566 
L 419.666182 30.239595 
L 418.666182 30.250763 
L 417.666182 30.280881 
L 416.666182 30.340658 
L 415.666182 30.377849 
L 414.666182 30.416945 
L 413.666182 30.459385 
L 412.666182 30.49215 
L 411.666182 30.559577 
L 410.666182 30.598703 
L 409.666182 30.641377 
L 408.666182 30.711958 
L 407.666182 30.748349 
L 406.666182 30.806752 
L 405.666182 30.917704 
L 404.666182 30.988363 
L 403.666182 31.101302 
L 402.666182 31.147075 
L 401.666182 31.208359 
L 400.666182 31.256858 
L 399.666182 31.337681 
L 398.666182 31.4562 
L 397.666182 31.52641 
L 396.666182 31.609673 
L 395.666182 31.642814 
L 394.666182 31.694052 
L 393.666182 31.76245 
L 392.666182 31.828666 
L 391.666182 31.905583 
L 390.34593 31.932898 
" clip-path="url(#p14e6d5cbb1)" style="fill: none; stroke: #2ca02c; stroke-opacity: 0.5; stroke-width: 0.2; stroke-linecap: square"/>
   </g>
   <g id="line2d_33">
    <path d="M 446.666182 303.677479 
L 445.666182 303.646043 
L 444.666182 303.609102 
L 443.666182 303.511356 
L 442.666182 303.478834 
L 441.666182 303.405209 
L 440.666182 303.366644 
L 439.666182 303.331231 
L 438.666182 303.273591 
L 437.666182 303.203205 
L 436.666182 303.15124 
L 435.666182 303.092151 
L 434.666182 303.00383 
L 433.666182 302.957685 
L 432.666182 302.915274 
L 431.666182 302.884782 
L 430.666182 302.858737 
L 429.666182 302.837537 
L 428.666182 302.783236 
L 427.666182 302.755298 
L 426.666182 302.725574 
L 425.666182 302.700179 
L 424.666182 302.688979 
L 423.666182 302.678855 
L 422.666182 302.679059 
L 421.666182 302.688569 
L 420.666182 302.700223 
L 419.666182 302.731252 
L 418.666182 302.74242 
L 417.666182 302.772537 
L 416.666182 302.832314 
L 415.666182 302.869506 
L 414.666182 302.908602 
L 413.666182 302.951042 
L 412.666182 302.983807 
L 411.666182 303.051233 
L 410.666182 303.090359 
L 409.666182 303.133034 
L 408.666182 303.203614 
L 407.666182 303.240005 
L 406.666182 303.298408 
L 405.666182 303.409361 
L 404.666182 303.480019 
L 403.666182 303.592959 
L 402.666182 303.638732 
L 401.666182 303.700015 
L 400.666182 303.748514 
L 399.666182 303.829337 
L 398.666182 303.947856 
L 397.666182 304.018067 
L 396.666182 304.101329 
L 395.666182 304.134471 
L 394.666182 304.185708 
L 393.666182 304.254107 
L 392.666182 304.320322 
L 391.666182 304.397239 
L 390.34593 304.424555 
" clip-path="url(#p14e6d5cbb1)" style="fill: none; stroke: #2ca02c; stroke-opacity: 0.5; stroke-width: 0.2; stroke-linecap: square"/>
   </g>
   <g id="line2d_34">
    <path d="M 446.666182 114.697385 
L 445.666182 114.665949 
L 444.666182 114.629008 
L 443.666182 114.531262 
L 442.666182 114.49874 
L 441.666182 114.425115 
L 440.666182 114.38655 
L 439.666182 114.351137 
L 438.666182 114.293497 
L 437.666182 114.22311 
L 436.666182 114.171146 
L 435.666182 114.112056 
L 434.666182 114.023736 
L 433.666182 113.977591 
L 432.666182 113.93518 
L 431.666182 113.904688 
L 430.666182 113.878643 
L 429.666182 113.857443 
L 428.666182 113.803141 
L 427.666182 113.775204 
L 426.666182 113.74548 
L 425.666182 113.720085 
L 424.666182 113.708885 
L 423.666182 113.698761 
L 422.666182 113.698965 
L 421.666182 113.708475 
L 420.666182 113.720129 
L 419.666182 113.751158 
L 418.666182 113.762326 
L 417.666182 113.792443 
L 416.666182 113.85222 
L 415.666182 113.889412 
L 414.666182 113.928508 
L 413.666182 113.970947 
L 412.666182 114.003713 
L 411.666182 114.071139 
L 410.666182 114.110265 
L 409.666182 114.152939 
L 408.666182 114.22352 
L 407.666182 114.259911 
L 406.666182 114.318314 
L 405.666182 114.429267 
L 404.666182 114.499925 
L 403.666182 114.612865 
L 402.666182 114.658638 
L 401.666182 114.719921 
L 400.666182 114.76842 
L 399.666182 114.849243 
L 398.666182 114.967762 
L 397.666182 115.037973 
L 396.666182 115.121235 
L 395.666182 115.154377 
L 394.666182 115.205614 
L 393.666182 115.274012 
L 392.666182 115.340228 
L 391.666182 115.417145 
L 390.34593 115.44446 
" clip-path="url(#p14e6d5cbb1)" style="fill: none; stroke: #2ca02c; stroke-opacity: 0.5; stroke-width: 0.2; stroke-linecap: square"/>
   </g>
   <g id="line2d_35">
    <path d="M 446.666182 311.066053 
L 445.666182 311.034617 
L 444.666182 310.997677 
L 443.666182 310.89993 
L 442.666182 310.867408 
L 441.666182 310.793784 
L 440.666182 310.755218 
L 439.666182 310.719805 
L 438.666182 310.662165 
L 437.666182 310.591779 
L 436.666182 310.539815 
L 435.666182 310.480725 
L 434.666182 310.392404 
L 433.666182 310.34626 
L 432.666182 310.303849 
L 431.666182 310.273356 
L 430.666182 310.247311 
L 429.666182 310.226111 
L 428.666182 310.17181 
L 427.666182 310.143872 
L 426.666182 310.114148 
L 425.666182 310.088754 
L 424.666182 310.077553 
L 423.666182 310.067429 
L 422.666182 310.067633 
L 421.666182 310.077143 
L 420.666182 310.088797 
L 419.666182 310.119826 
L 418.666182 310.130994 
L 417.666182 310.161112 
L 416.666182 310.220889 
L 415.666182 310.25808 
L 414.666182 310.297176 
L 413.666182 310.339616 
L 412.666182 310.372381 
L 411.666182 310.439807 
L 410.666182 310.478933 
L 409.666182 310.521608 
L 408.666182 310.592188 
L 407.666182 310.628579 
L 406.666182 310.686983 
L 405.666182 310.797935 
L 404.666182 310.868593 
L 403.666182 310.981533 
L 402.666182 311.027306 
L 401.666182 311.088589 
L 400.666182 311.137089 
L 399.666182 311.217911 
L 398.666182 311.33643 
L 397.666182 311.406641 
L 396.666182 311.489903 
L 395.666182 311.523045 
L 394.666182 311.574282 
L 393.666182 311.642681 
L 392.666182 311.708896 
L 391.666182 311.785813 
L 390.34593 311.813129 
" clip-path="url(#p14e6d5cbb1)" style="fill: none; stroke: #2ca02c; stroke-opacity: 0.5; stroke-width: 0.2; stroke-linecap: square"/>
   </g>
   <g id="line2d_36">
    <path d="M 446.666182 250.484629 
L 445.666182 250.453193 
L 444.666182 250.416253 
L 443.666182 250.318506 
L 442.666182 250.285984 
L 441.666182 250.21236 
L 440.666182 250.173794 
L 439.666182 250.138381 
L 438.666182 250.080741 
L 437.666182 250.010355 
L 436.666182 249.958391 
L 435.666182 249.899301 
L 434.666182 249.81098 
L 433.666182 249.764836 
L 432.666182 249.722425 
L 431.666182 249.691932 
L 430.666182 249.665887 
L 429.666182 249.644687 
L 428.666182 249.590386 
L 427.666182 249.562448 
L 426.666182 249.532724 
L 425.666182 249.50733 
L 424.666182 249.496129 
L 423.666182 249.486005 
L 422.666182 249.48621 
L 421.666182 249.495719 
L 420.666182 249.507373 
L 419.666182 249.538402 
L 418.666182 249.54957 
L 417.666182 249.579688 
L 416.666182 249.639465 
L 415.666182 249.676656 
L 414.666182 249.715752 
L 413.666182 249.758192 
L 412.666182 249.790957 
L 411.666182 249.858384 
L 410.666182 249.897509 
L 409.666182 249.940184 
L 408.666182 250.010765 
L 407.666182 250.047155 
L 406.666182 250.105559 
L 405.666182 250.216511 
L 404.666182 250.28717 
L 403.666182 250.400109 
L 402.666182 250.445882 
L 401.666182 250.507165 
L 400.666182 250.555665 
L 399.666182 250.636487 
L 398.666182 250.755006 
L 397.666182 250.825217 
L 396.666182 250.908479 
L 395.666182 250.941621 
L 394.666182 250.992859 
L 393.666182 251.061257 
L 392.666182 251.127472 
L 391.666182 251.204389 
L 390.34593 251.231705 
" clip-path="url(#p14e6d5cbb1)" style="fill: none; stroke: #2ca02c; stroke-opacity: 0.5; stroke-width: 0.2; stroke-linecap: square"/>
   </g>
   <g id="line2d_37">
    <path d="M 446.666182 52.932007 
L 445.666182 52.900571 
L 444.666182 52.863631 
L 443.666182 52.765884 
L 442.666182 52.733363 
L 441.666182 52.659738 
L 440.666182 52.621172 
L 439.666182 52.585759 
L 438.666182 52.528119 
L 437.666182 52.457733 
L 436.666182 52.405769 
L 435.666182 52.346679 
L 434.666182 52.258358 
L 433.666182 52.212214 
L 432.666182 52.169803 
L 431.666182 52.13931 
L 430.666182 52.113265 
L 429.666182 52.092065 
L 428.666182 52.037764 
L 427.666182 52.009826 
L 426.666182 51.980102 
L 425.666182 51.954708 
L 424.666182 51.943507 
L 423.666182 51.933383 
L 422.666182 51.933588 
L 421.666182 51.943097 
L 420.666182 51.954751 
L 419.666182 51.98578 
L 418.666182 51.996948 
L 417.666182 52.027066 
L 416.666182 52.086843 
L 415.666182 52.124034 
L 414.666182 52.16313 
L 413.666182 52.20557 
L 412.666182 52.238335 
L 411.666182 52.305762 
L 410.666182 52.344887 
L 409.666182 52.387562 
L 408.666182 52.458143 
L 407.666182 52.494533 
L 406.666182 52.552937 
L 405.666182 52.663889 
L 404.666182 52.734548 
L 403.666182 52.847487 
L 402.666182 52.89326 
L 401.666182 52.954543 
L 400.666182 53.003043 
L 399.666182 53.083865 
L 398.666182 53.202384 
L 397.666182 53.272595 
L 396.666182 53.355858 
L 395.666182 53.388999 
L 394.666182 53.440237 
L 393.666182 53.508635 
L 392.666182 53.57485 
L 391.666182 53.651767 
L 390.34593 53.679083 
" clip-path="url(#p14e6d5cbb1)" style="fill: none; stroke: #2ca02c; stroke-opacity: 0.5; stroke-width: 0.2; stroke-linecap: square"/>
   </g>
   <g id="line2d_38">
    <path d="M 446.666182 287.086203 
L 445.666182 287.054767 
L 444.666182 287.017827 
L 443.666182 286.92008 
L 442.666182 286.887559 
L 441.666182 286.813934 
L 440.666182 286.775368 
L 439.666182 286.739955 
L 438.666182 286.682315 
L 437.666182 286.611929 
L 436.666182 286.559965 
L 435.666182 286.500875 
L 434.666182 286.412554 
L 433.666182 286.36641 
L 432.666182 286.323999 
L 431.666182 286.293506 
L 430.666182 286.267461 
L 429.666182 286.246261 
L 428.666182 286.19196 
L 427.666182 286.164022 
L 426.666182 286.134298 
L 425.666182 286.108904 
L 424.666182 286.097703 
L 423.666182 286.087579 
L 422.666182 286.087784 
L 421.666182 286.097293 
L 420.666182 286.108947 
L 419.666182 286.139976 
L 418.666182 286.151144 
L 417.666182 286.181262 
L 416.666182 286.241039 
L 415.666182 286.27823 
L 414.666182 286.317326 
L 413.666182 286.359766 
L 412.666182 286.392531 
L 411.666182 286.459958 
L 410.666182 286.499083 
L 409.666182 286.541758 
L 408.666182 286.612339 
L 407.666182 286.648729 
L 406.666182 286.707133 
L 405.666182 286.818085 
L 404.666182 286.888744 
L 403.666182 287.001683 
L 402.666182 287.047456 
L 401.666182 287.108739 
L 400.666182 287.157239 
L 399.666182 287.238061 
L 398.666182 287.35658 
L 397.666182 287.426791 
L 396.666182 287.510054 
L 395.666182 287.543195 
L 394.666182 287.594433 
L 393.666182 287.662831 
L 392.666182 287.729046 
L 391.666182 287.805963 
L 390.34593 287.833279 
" clip-path="url(#p14e6d5cbb1)" style="fill: none; stroke: #2ca02c; stroke-opacity: 0.5; stroke-width: 0.2; stroke-linecap: square"/>
   </g>
   <g id="line2d_39">
    <path d="M 446.666182 72.321368 
L 445.666182 72.289932 
L 444.666182 72.252991 
L 443.666182 72.155245 
L 442.666182 72.122723 
L 441.666182 72.049099 
L 440.666182 72.010533 
L 439.666182 71.97512 
L 438.666182 71.91748 
L 437.666182 71.847094 
L 436.666182 71.79513 
L 435.666182 71.73604 
L 434.666182 71.647719 
L 433.666182 71.601574 
L 432.666182 71.559164 
L 431.666182 71.528671 
L 430.666182 71.502626 
L 429.666182 71.481426 
L 428.666182 71.427125 
L 427.666182 71.399187 
L 426.666182 71.369463 
L 425.666182 71.344068 
L 424.666182 71.332868 
L 423.666182 71.322744 
L 422.666182 71.322948 
L 421.666182 71.332458 
L 420.666182 71.344112 
L 419.666182 71.375141 
L 418.666182 71.386309 
L 417.666182 71.416427 
L 416.666182 71.476203 
L 415.666182 71.513395 
L 414.666182 71.552491 
L 413.666182 71.594931 
L 412.666182 71.627696 
L 411.666182 71.695122 
L 410.666182 71.734248 
L 409.666182 71.776923 
L 408.666182 71.847503 
L 407.666182 71.883894 
L 406.666182 71.942297 
L 405.666182 72.05325 
L 404.666182 72.123908 
L 403.666182 72.236848 
L 402.666182 72.282621 
L 401.666182 72.343904 
L 400.666182 72.392404 
L 399.666182 72.473226 
L 398.666182 72.591745 
L 397.666182 72.661956 
L 396.666182 72.745218 
L 395.666182 72.77836 
L 394.666182 72.829597 
L 393.666182 72.897996 
L 392.666182 72.964211 
L 391.666182 73.041128 
L 390.34593 73.068444 
" clip-path="url(#p14e6d5cbb1)" style="fill: none; stroke: #2ca02c; stroke-opacity: 0.5; stroke-width: 0.2; stroke-linecap: square"/>
   </g>
   <g id="line2d_40">
    <path d="M 446.666182 119.439318 
L 445.666182 119.407882 
L 444.666182 119.370941 
L 443.666182 119.273195 
L 442.666182 119.240673 
L 441.666182 119.167048 
L 440.666182 119.128483 
L 439.666182 119.09307 
L 438.666182 119.03543 
L 437.666182 118.965044 
L 436.666182 118.913079 
L 435.666182 118.85399 
L 434.666182 118.765669 
L 433.666182 118.719524 
L 432.666182 118.677113 
L 431.666182 118.646621 
L 430.666182 118.620576 
L 429.666182 118.599376 
L 428.666182 118.545075 
L 427.666182 118.517137 
L 426.666182 118.487413 
L 425.666182 118.462018 
L 424.666182 118.450818 
L 423.666182 118.440694 
L 422.666182 118.440898 
L 421.666182 118.450408 
L 420.666182 118.462062 
L 419.666182 118.493091 
L 418.666182 118.504259 
L 417.666182 118.534376 
L 416.666182 118.594153 
L 415.666182 118.631345 
L 414.666182 118.670441 
L 413.666182 118.712881 
L 412.666182 118.745646 
L 411.666182 118.813072 
L 410.666182 118.852198 
L 409.666182 118.894873 
L 408.666182 118.965453 
L 407.666182 119.001844 
L 406.666182 119.060247 
L 405.666182 119.1712 
L 404.666182 119.241858 
L 403.666182 119.354798 
L 402.666182 119.400571 
L 401.666182 119.461854 
L 400.666182 119.510353 
L 399.666182 119.591176 
L 398.666182 119.709695 
L 397.666182 119.779906 
L 396.666182 119.863168 
L 395.666182 119.89631 
L 394.666182 119.947547 
L 393.666182 120.015946 
L 392.666182 120.082161 
L 391.666182 120.159078 
L 390.34593 120.186394 
" clip-path="url(#p14e6d5cbb1)" style="fill: none; stroke: #2ca02c; stroke-opacity: 0.5; stroke-width: 0.2; stroke-linecap: square"/>
   </g>
   <g id="patch_3">
    <path d="M 72.103551 7.2 
L 72.103551 318.021875 
M 194.769099 7.2 
L 194.769099 318.021875 
" clip-path="url(#p14e6d5cbb1)" style="fill: none; stroke: #ffffff; stroke-width: 3; stroke-linejoin: miter"/>
    <path d="M 72.103551 7.2 
L 72.103551 318.021875 
M 194.769099 7.2 
L 194.769099 318.021875 
" clip-path="url(#p14e6d5cbb1)" style="fill: none; stroke: #1f77b4; stroke-linejoin: miter"/>
   </g>
   <g id="FillBetweenPolyCollection_1">
    <path d="M 194.769099 7.2 
L 72.103551 7.2 
L 72.103551 318.021875 
L 194.769099 318.021875 
L 194.769099 318.021875 
L 194.769099 7.2 
z
" clip-path="url(#p14e6d5cbb1)" style="fill: #1f77b4; fill-opacity: 0.5"/>
   </g>
   <g id="patch_4">
    <path d="M 262.150038 7.2 
L 262.150038 318.021875 
M 384.815587 7.2 
L 384.815587 318.021875 
" clip-path="url(#p14e6d5cbb1)" style="fill: none; stroke: #ffffff; stroke-width: 3; stroke-linejoin: miter"/>
    <path d="M 262.150038 7.2 
L 262.150038 318.021875 
M 384.815587 7.2 
L 384.815587 318.021875 
" clip-path="url(#p14e6d5cbb1)" style="fill: none; stroke: #ff7f0e; stroke-linejoin: miter"/>
   </g>
   <g id="FillBetweenPolyCollection_2">
    <path d="M 384.815587 7.2 
L 262.150038 7.2 
L 262.150038 318.021875 
L 384.815587 318.021875 
L 384.815587 318.021875 
L 384.815587 7.2 
z
" clip-path="url(#p14e6d5cbb1)" style="fill: #ff7f0e; fill-opacity: 0.5"/>
   </g>
   <g id="patch_5">
    <path d="M 452.196526 7.2 
L 452.196526 318.021875 
M 574.862074 7.2 
L 574.862074 318.021875 
" clip-path="url(#p14e6d5cbb1)" style="fill: none; stroke: #ffffff; stroke-width: 3; stroke-linejoin: miter"/>
    <path d="M 452.196526 7.2 
L 452.196526 318.021875 
M 574.862074 7.2 
L 574.862074 318.021875 
" clip-path="url(#p14e6d5cbb1)" style="fill: none; stroke: #2ca02c; stroke-linejoin: miter"/>
   </g>
   <g id="FillBetweenPolyCollection_3">
    <path d="M 574.862074 7.2 
L 452.196526 7.2 
L 452.196526 318.021875 
L 574.862074 318.021875 
L 574.862074 318.021875 
L 574.862074 7.2 
z
" clip-path="url(#p14e6d5cbb1)" style="fill: #2ca02c; fill-opacity: 0.5"/>
   </g>
   <g id="matplotlib.axis_1">
    <g id="xtick_1">
     <g id="line2d_41"/>
     <g id="text_1">
      <!-- d0 -->
      <g transform="translate(127.080856 329.120312) scale(0.1 -0.1)">
       <defs>
        <path id="DejaVuSans-64" d="M 2906 2969 
L 2906 4863 
L 3481 4863 
L 3481 0 
L 2906 0 
L 2906 525 
Q 2725 213 2448 61 
Q 2172 -91 1784 -91 
Q 1150 -91 751 415 
Q 353 922 353 1747 
Q 353 2572 751 3078 
Q 1150 3584 1784 3584 
Q 2172 3584 2448 3432 
Q 2725 3281 2906 2969 
z
M 947 1747 
Q 947 1113 1208 752 
Q 1469 391 1925 391 
Q 2381 391 2643 752 
Q 2906 1113 2906 1747 
Q 2906 2381 2643 2742 
Q 2381 3103 1925 3103 
Q 1469 3103 1208 2742 
Q 947 2381 947 1747 
z
" transform="scale(0.015625)"/>
        <path id="DejaVuSans-30" d="M 2034 4250 
Q 1547 4250 1301 3770 
Q 1056 3291 1056 2328 
Q 1056 1369 1301 889 
Q 1547 409 2034 409 
Q 2525 409 2770 889 
Q 3016 1369 3016 2328 
Q 3016 3291 2770 3770 
Q 2525 4250 2034 4250 
z
M 2034 4750 
Q 2819 4750 3233 4129 
Q 3647 3509 3647 2328 
Q 3647 1150 3233 529 
Q 2819 -91 2034 -91 
Q 1250 -91 836 529 
Q 422 1150 422 2328 
Q 422 3509 836 4129 
Q 1250 4750 2034 4750 
z
" transform="scale(0.015625)"/>
       </defs>
       <use xlink:href="#DejaVuSans-64"/>
       <use xlink:href="#DejaVuSans-30" transform="translate(63.476562 0)"/>
      </g>
     </g>
    </g>
    <g id="xtick_2">
     <g id="line2d_42"/>
     <g id="text_2">
      <!-- d1 -->
      <g transform="translate(317.127344 329.120312) scale(0.1 -0.1)">
       <defs>
        <path id="DejaVuSans-31" d="M 794 531 
L 1825 531 
L 1825 4091 
L 703 3866 
L 703 4441 
L 1819 4666 
L 2450 4666 
L 2450 531 
L 3481 531 
L 3481 0 
L 794 0 
L 794 531 
z
" transform="scale(0.015625)"/>
       </defs>
       <use xlink:href="#DejaVuSans-64"/>
       <use xlink:href="#DejaVuSans-31" transform="translate(63.476562 0)"/>
      </g>
     </g>
    </g>
    <g id="xtick_3">
     <g id="line2d_43"/>
     <g id="text_3">
      <!-- d2 -->
      <g transform="translate(507.173831 329.120312) scale(0.1 -0.1)">
       <defs>
        <path id="DejaVuSans-32" d="M 1228 531 
L 3431 531 
L 3431 0 
L 469 0 
L 469 531 
Q 828 903 1448 1529 
Q 2069 2156 2228 2338 
Q 2531 2678 2651 2914 
Q 2772 3150 2772 3378 
Q 2772 3750 2511 3984 
Q 2250 4219 1831 4219 
Q 1534 4219 1204 4116 
Q 875 4013 500 3803 
L 500 4441 
Q 881 4594 1212 4672 
Q 1544 4750 1819 4750 
Q 2544 4750 2975 4387 
Q 3406 4025 3406 3419 
Q 3406 3131 3298 2873 
Q 3191 2616 2906 2266 
Q 2828 2175 2409 1742 
Q 1991 1309 1228 531 
z
" transform="scale(0.015625)"/>
       </defs>
       <use xlink:href="#DejaVuSans-64"/>
       <use xlink:href="#DejaVuSans-32" transform="translate(63.476562 0)"/>
      </g>
     </g>
    </g>
   </g>
   <g id="matplotlib.axis_2">
    <g id="ytick_1">
     <g id="line2d_44">
      <defs>
       <path id="mf5b7005004" d="M 0 0 
L -3.5 0 
" style="stroke: #000000; stroke-width: 0.8"/>
      </defs>
      <g>
       <use xlink:href="#mf5b7005004" x="46.965625" y="318.021875" style="stroke: #000000; stroke-width: 0.8"/>
      </g>
     </g>
     <g id="text_4">
      <!-- 0 -->
      <g transform="translate(33.603125 321.821094) scale(0.1 -0.1)">
       <use xlink:href="#DejaVuSans-30"/>
      </g>
     </g>
    </g>
    <g id="ytick_2">
     <g id="line2d_45">
      <g>
       <use xlink:href="#mf5b7005004" x="46.965625" y="263.009154" style="stroke: #000000; stroke-width: 0.8"/>
      </g>
     </g>
     <g id="text_5">
      <!-- 20 -->
      <g transform="translate(27.240625 266.808373) scale(0.1 -0.1)">
       <use xlink:href="#DejaVuSans-32"/>
       <use xlink:href="#DejaVuSans-30" transform="translate(63.623047 0)"/>
      </g>
     </g>
    </g>
    <g id="ytick_3">
     <g id="line2d_46">
      <g>
       <use xlink:href="#mf5b7005004" x="46.965625" y="207.996433" style="stroke: #000000; stroke-width: 0.8"/>
      </g>
     </g>
     <g id="text_6">
      <!-- 40 -->
      <g transform="translate(27.240625 211.795651) scale(0.1 -0.1)">
       <defs>
        <path id="DejaVuSans-34" d="M 2419 4116 
L 825 1625 
L 2419 1625 
L 2419 4116 
z
M 2253 4666 
L 3047 4666 
L 3047 1625 
L 3713 1625 
L 3713 1100 
L 3047 1100 
L 3047 0 
L 2419 0 
L 2419 1100 
L 313 1100 
L 313 1709 
L 2253 4666 
z
" transform="scale(0.015625)"/>
       </defs>
       <use xlink:href="#DejaVuSans-34"/>
       <use xlink:href="#DejaVuSans-30" transform="translate(63.623047 0)"/>
      </g>
     </g>
    </g>
    <g id="ytick_4">
     <g id="line2d_47">
      <g>
       <use xlink:href="#mf5b7005004" x="46.965625" y="152.983711" style="stroke: #000000; stroke-width: 0.8"/>
      </g>
     </g>
     <g id="text_7">
      <!-- 60 -->
      <g transform="translate(27.240625 156.78293) scale(0.1 -0.1)">
       <defs>
        <path id="DejaVuSans-36" d="M 2113 2584 
Q 1688 2584 1439 2293 
Q 1191 2003 1191 1497 
Q 1191 994 1439 701 
Q 1688 409 2113 409 
Q 2538 409 2786 701 
Q 3034 994 3034 1497 
Q 3034 2003 2786 2293 
Q 2538 2584 2113 2584 
z
M 3366 4563 
L 3366 3988 
Q 3128 4100 2886 4159 
Q 2644 4219 2406 4219 
Q 1781 4219 1451 3797 
Q 1122 3375 1075 2522 
Q 1259 2794 1537 2939 
Q 1816 3084 2150 3084 
Q 2853 3084 3261 2657 
Q 3669 2231 3669 1497 
Q 3669 778 3244 343 
Q 2819 -91 2113 -91 
Q 1303 -91 875 529 
Q 447 1150 447 2328 
Q 447 3434 972 4092 
Q 1497 4750 2381 4750 
Q 2619 4750 2861 4703 
Q 3103 4656 3366 4563 
z
" transform="scale(0.015625)"/>
       </defs>
       <use xlink:href="#DejaVuSans-36"/>
       <use xlink:href="#DejaVuSans-30" transform="translate(63.623047 0)"/>
      </g>
     </g>
    </g>
    <g id="ytick_5">
     <g id="line2d_48">
      <g>
       <use xlink:href="#mf5b7005004" x="46.965625" y="97.97099" style="stroke: #000000; stroke-width: 0.8"/>
      </g>
     </g>
     <g id="text_8">
      <!-- 80 -->
      <g transform="translate(27.240625 101.770209) scale(0.1 -0.1)">
       <defs>
        <path id="DejaVuSans-38" d="M 2034 2216 
Q 1584 2216 1326 1975 
Q 1069 1734 1069 1313 
Q 1069 891 1326 650 
Q 1584 409 2034 409 
Q 2484 409 2743 651 
Q 3003 894 3003 1313 
Q 3003 1734 2745 1975 
Q 2488 2216 2034 2216 
z
M 1403 2484 
Q 997 2584 770 2862 
Q 544 3141 544 3541 
Q 544 4100 942 4425 
Q 1341 4750 2034 4750 
Q 2731 4750 3128 4425 
Q 3525 4100 3525 3541 
Q 3525 3141 3298 2862 
Q 3072 2584 2669 2484 
Q 3125 2378 3379 2068 
Q 3634 1759 3634 1313 
Q 3634 634 3220 271 
Q 2806 -91 2034 -91 
Q 1263 -91 848 271 
Q 434 634 434 1313 
Q 434 1759 690 2068 
Q 947 2378 1403 2484 
z
M 1172 3481 
Q 1172 3119 1398 2916 
Q 1625 2713 2034 2713 
Q 2441 2713 2670 2916 
Q 2900 3119 2900 3481 
Q 2900 3844 2670 4047 
Q 2441 4250 2034 4250 
Q 1625 4250 1398 4047 
Q 1172 3844 1172 3481 
z
" transform="scale(0.015625)"/>
       </defs>
       <use xlink:href="#DejaVuSans-38"/>
       <use xlink:href="#DejaVuSans-30" transform="translate(63.623047 0)"/>
      </g>
     </g>
    </g>
    <g id="ytick_6">
     <g id="line2d_49">
      <g>
       <use xlink:href="#mf5b7005004" x="46.965625" y="42.958269" style="stroke: #000000; stroke-width: 0.8"/>
      </g>
     </g>
     <g id="text_9">
      <!-- 100 -->
      <g transform="translate(20.878125 46.757488) scale(0.1 -0.1)">
       <use xlink:href="#DejaVuSans-31"/>
       <use xlink:href="#DejaVuSans-30" transform="translate(63.623047 0)"/>
       <use xlink:href="#DejaVuSans-30" transform="translate(127.246094 0)"/>
      </g>
     </g>
    </g>
    <g id="text_10">
     <!-- time ago (generations) -->
     <g transform="translate(14.798438 220.082031) rotate(-90) scale(0.1 -0.1)">
      <defs>
       <path id="DejaVuSans-74" d="M 1172 4494 
L 1172 3500 
L 2356 3500 
L 2356 3053 
L 1172 3053 
L 1172 1153 
Q 1172 725 1289 603 
Q 1406 481 1766 481 
L 2356 481 
L 2356 0 
L 1766 0 
Q 1100 0 847 248 
Q 594 497 594 1153 
L 594 3053 
L 172 3053 
L 172 3500 
L 594 3500 
L 594 4494 
L 1172 4494 
z
" transform="scale(0.015625)"/>
       <path id="DejaVuSans-69" d="M 603 3500 
L 1178 3500 
L 1178 0 
L 603 0 
L 603 3500 
z
M 603 4863 
L 1178 4863 
L 1178 4134 
L 603 4134 
L 603 4863 
z
" transform="scale(0.015625)"/>
       <path id="DejaVuSans-6d" d="M 3328 2828 
Q 3544 3216 3844 3400 
Q 4144 3584 4550 3584 
Q 5097 3584 5394 3201 
Q 5691 2819 5691 2113 
L 5691 0 
L 5113 0 
L 5113 2094 
Q 5113 2597 4934 2840 
Q 4756 3084 4391 3084 
Q 3944 3084 3684 2787 
Q 3425 2491 3425 1978 
L 3425 0 
L 2847 0 
L 2847 2094 
Q 2847 2600 2669 2842 
Q 2491 3084 2119 3084 
Q 1678 3084 1418 2786 
Q 1159 2488 1159 1978 
L 1159 0 
L 581 0 
L 581 3500 
L 1159 3500 
L 1159 2956 
Q 1356 3278 1631 3431 
Q 1906 3584 2284 3584 
Q 2666 3584 2933 3390 
Q 3200 3197 3328 2828 
z
" transform="scale(0.015625)"/>
       <path id="DejaVuSans-65" d="M 3597 1894 
L 3597 1613 
L 953 1613 
Q 991 1019 1311 708 
Q 1631 397 2203 397 
Q 2534 397 2845 478 
Q 3156 559 3463 722 
L 3463 178 
Q 3153 47 2828 -22 
Q 2503 -91 2169 -91 
Q 1331 -91 842 396 
Q 353 884 353 1716 
Q 353 2575 817 3079 
Q 1281 3584 2069 3584 
Q 2775 3584 3186 3129 
Q 3597 2675 3597 1894 
z
M 3022 2063 
Q 3016 2534 2758 2815 
Q 2500 3097 2075 3097 
Q 1594 3097 1305 2825 
Q 1016 2553 972 2059 
L 3022 2063 
z
" transform="scale(0.015625)"/>
       <path id="DejaVuSans-20" transform="scale(0.015625)"/>
       <path id="DejaVuSans-61" d="M 2194 1759 
Q 1497 1759 1228 1600 
Q 959 1441 959 1056 
Q 959 750 1161 570 
Q 1363 391 1709 391 
Q 2188 391 2477 730 
Q 2766 1069 2766 1631 
L 2766 1759 
L 2194 1759 
z
M 3341 1997 
L 3341 0 
L 2766 0 
L 2766 531 
Q 2569 213 2275 61 
Q 1981 -91 1556 -91 
Q 1019 -91 701 211 
Q 384 513 384 1019 
Q 384 1609 779 1909 
Q 1175 2209 1959 2209 
L 2766 2209 
L 2766 2266 
Q 2766 2663 2505 2880 
Q 2244 3097 1772 3097 
Q 1472 3097 1187 3025 
Q 903 2953 641 2809 
L 641 3341 
Q 956 3463 1253 3523 
Q 1550 3584 1831 3584 
Q 2591 3584 2966 3190 
Q 3341 2797 3341 1997 
z
" transform="scale(0.015625)"/>
       <path id="DejaVuSans-67" d="M 2906 1791 
Q 2906 2416 2648 2759 
Q 2391 3103 1925 3103 
Q 1463 3103 1205 2759 
Q 947 2416 947 1791 
Q 947 1169 1205 825 
Q 1463 481 1925 481 
Q 2391 481 2648 825 
Q 2906 1169 2906 1791 
z
M 3481 434 
Q 3481 -459 3084 -895 
Q 2688 -1331 1869 -1331 
Q 1566 -1331 1297 -1286 
Q 1028 -1241 775 -1147 
L 775 -588 
Q 1028 -725 1275 -790 
Q 1522 -856 1778 -856 
Q 2344 -856 2625 -561 
Q 2906 -266 2906 331 
L 2906 616 
Q 2728 306 2450 153 
Q 2172 0 1784 0 
Q 1141 0 747 490 
Q 353 981 353 1791 
Q 353 2603 747 3093 
Q 1141 3584 1784 3584 
Q 2172 3584 2450 3431 
Q 2728 3278 2906 2969 
L 2906 3500 
L 3481 3500 
L 3481 434 
z
" transform="scale(0.015625)"/>
       <path id="DejaVuSans-6f" d="M 1959 3097 
Q 1497 3097 1228 2736 
Q 959 2375 959 1747 
Q 959 1119 1226 758 
Q 1494 397 1959 397 
Q 2419 397 2687 759 
Q 2956 1122 2956 1747 
Q 2956 2369 2687 2733 
Q 2419 3097 1959 3097 
z
M 1959 3584 
Q 2709 3584 3137 3096 
Q 3566 2609 3566 1747 
Q 3566 888 3137 398 
Q 2709 -91 1959 -91 
Q 1206 -91 779 398 
Q 353 888 353 1747 
Q 353 2609 779 3096 
Q 1206 3584 1959 3584 
z
" transform="scale(0.015625)"/>
       <path id="DejaVuSans-28" d="M 1984 4856 
Q 1566 4138 1362 3434 
Q 1159 2731 1159 2009 
Q 1159 1288 1364 580 
Q 1569 -128 1984 -844 
L 1484 -844 
Q 1016 -109 783 600 
Q 550 1309 550 2009 
Q 550 2706 781 3412 
Q 1013 4119 1484 4856 
L 1984 4856 
z
" transform="scale(0.015625)"/>
       <path id="DejaVuSans-6e" d="M 3513 2113 
L 3513 0 
L 2938 0 
L 2938 2094 
Q 2938 2591 2744 2837 
Q 2550 3084 2163 3084 
Q 1697 3084 1428 2787 
Q 1159 2491 1159 1978 
L 1159 0 
L 581 0 
L 581 3500 
L 1159 3500 
L 1159 2956 
Q 1366 3272 1645 3428 
Q 1925 3584 2291 3584 
Q 2894 3584 3203 3211 
Q 3513 2838 3513 2113 
z
" transform="scale(0.015625)"/>
       <path id="DejaVuSans-72" d="M 2631 2963 
Q 2534 3019 2420 3045 
Q 2306 3072 2169 3072 
Q 1681 3072 1420 2755 
Q 1159 2438 1159 1844 
L 1159 0 
L 581 0 
L 581 3500 
L 1159 3500 
L 1159 2956 
Q 1341 3275 1631 3429 
Q 1922 3584 2338 3584 
Q 2397 3584 2469 3576 
Q 2541 3569 2628 3553 
L 2631 2963 
z
" transform="scale(0.015625)"/>
       <path id="DejaVuSans-73" d="M 2834 3397 
L 2834 2853 
Q 2591 2978 2328 3040 
Q 2066 3103 1784 3103 
Q 1356 3103 1142 2972 
Q 928 2841 928 2578 
Q 928 2378 1081 2264 
Q 1234 2150 1697 2047 
L 1894 2003 
Q 2506 1872 2764 1633 
Q 3022 1394 3022 966 
Q 3022 478 2636 193 
Q 2250 -91 1575 -91 
Q 1294 -91 989 -36 
Q 684 19 347 128 
L 347 722 
Q 666 556 975 473 
Q 1284 391 1588 391 
Q 1994 391 2212 530 
Q 2431 669 2431 922 
Q 2431 1156 2273 1281 
Q 2116 1406 1581 1522 
L 1381 1569 
Q 847 1681 609 1914 
Q 372 2147 372 2553 
Q 372 3047 722 3315 
Q 1072 3584 1716 3584 
Q 2034 3584 2315 3537 
Q 2597 3491 2834 3397 
z
" transform="scale(0.015625)"/>
       <path id="DejaVuSans-29" d="M 513 4856 
L 1013 4856 
Q 1481 4119 1714 3412 
Q 1947 2706 1947 2009 
Q 1947 1309 1714 600 
Q 1481 -109 1013 -844 
L 513 -844 
Q 928 -128 1133 580 
Q 1338 1288 1338 2009 
Q 1338 2731 1133 3434 
Q 928 4138 513 4856 
z
" transform="scale(0.015625)"/>
      </defs>
      <use xlink:href="#DejaVuSans-74"/>
      <use xlink:href="#DejaVuSans-69" transform="translate(39.208984 0)"/>
      <use xlink:href="#DejaVuSans-6d" transform="translate(66.992188 0)"/>
      <use xlink:href="#DejaVuSans-65" transform="translate(164.404297 0)"/>
      <use xlink:href="#DejaVuSans-20" transform="translate(225.927734 0)"/>
      <use xlink:href="#DejaVuSans-61" transform="translate(257.714844 0)"/>
      <use xlink:href="#DejaVuSans-67" transform="translate(318.994141 0)"/>
      <use xlink:href="#DejaVuSans-6f" transform="translate(382.470703 0)"/>
      <use xlink:href="#DejaVuSans-20" transform="translate(443.652344 0)"/>
      <use xlink:href="#DejaVuSans-28" transform="translate(475.439453 0)"/>
      <use xlink:href="#DejaVuSans-67" transform="translate(514.453125 0)"/>
      <use xlink:href="#DejaVuSans-65" transform="translate(577.929688 0)"/>
      <use xlink:href="#DejaVuSans-6e" transform="translate(639.453125 0)"/>
      <use xlink:href="#DejaVuSans-65" transform="translate(702.832031 0)"/>
      <use xlink:href="#DejaVuSans-72" transform="translate(764.355469 0)"/>
      <use xlink:href="#DejaVuSans-61" transform="translate(805.46875 0)"/>
      <use xlink:href="#DejaVuSans-74" transform="translate(866.748047 0)"/>
      <use xlink:href="#DejaVuSans-69" transform="translate(905.957031 0)"/>
      <use xlink:href="#DejaVuSans-6f" transform="translate(933.740234 0)"/>
      <use xlink:href="#DejaVuSans-6e" transform="translate(994.921875 0)"/>
      <use xlink:href="#DejaVuSans-73" transform="translate(1058.300781 0)"/>
      <use xlink:href="#DejaVuSans-29" transform="translate(1110.400391 0)"/>
     </g>
    </g>
   </g>
   <g id="line2d_50">
    <path d="M 257.619695 199.645021 
L 255.619695 198.645021 
L 255.619695 200.645021 
z
" clip-path="url(#p14e6d5cbb1)" style="fill: #1f77b4; fill-opacity: 0.5; stroke: #1f77b4; stroke-opacity: 0.5; stroke-linejoin: miter"/>
   </g>
   <g id="line2d_51">
    <path d="M 257.619695 166.767771 
L 255.619695 165.767771 
L 255.619695 167.767771 
z
" clip-path="url(#p14e6d5cbb1)" style="fill: #1f77b4; fill-opacity: 0.5; stroke: #1f77b4; stroke-opacity: 0.5; stroke-linejoin: miter"/>
   </g>
   <g id="line2d_52">
    <path d="M 257.619695 50.030505 
L 255.619695 49.030505 
L 255.619695 51.030505 
z
" clip-path="url(#p14e6d5cbb1)" style="fill: #1f77b4; fill-opacity: 0.5; stroke: #1f77b4; stroke-opacity: 0.5; stroke-linejoin: miter"/>
   </g>
   <g id="line2d_53">
    <path d="M 257.619695 65.404208 
L 255.619695 64.404208 
L 255.619695 66.404208 
z
" clip-path="url(#p14e6d5cbb1)" style="fill: #1f77b4; fill-opacity: 0.5; stroke: #1f77b4; stroke-opacity: 0.5; stroke-linejoin: miter"/>
   </g>
   <g id="line2d_54">
    <path d="M 257.619695 230.26501 
L 255.619695 229.26501 
L 255.619695 231.26501 
z
" clip-path="url(#p14e6d5cbb1)" style="fill: #1f77b4; fill-opacity: 0.5; stroke: #1f77b4; stroke-opacity: 0.5; stroke-linejoin: miter"/>
   </g>
   <g id="line2d_55">
    <path d="M 257.619695 113.467212 
L 255.619695 112.467212 
L 255.619695 114.467212 
z
" clip-path="url(#p14e6d5cbb1)" style="fill: #1f77b4; fill-opacity: 0.5; stroke: #1f77b4; stroke-opacity: 0.5; stroke-linejoin: miter"/>
   </g>
   <g id="line2d_56">
    <path d="M 257.619695 11.490087 
L 255.619695 10.490087 
L 255.619695 12.490087 
z
" clip-path="url(#p14e6d5cbb1)" style="fill: #1f77b4; fill-opacity: 0.5; stroke: #1f77b4; stroke-opacity: 0.5; stroke-linejoin: miter"/>
   </g>
   <g id="line2d_57">
    <path d="M 257.619695 301.166824 
L 255.619695 300.166824 
L 255.619695 302.166824 
z
" clip-path="url(#p14e6d5cbb1)" style="fill: #1f77b4; fill-opacity: 0.5; stroke: #1f77b4; stroke-opacity: 0.5; stroke-linejoin: miter"/>
   </g>
   <g id="line2d_58">
    <path d="M 257.619695 180.726125 
L 255.619695 179.726125 
L 255.619695 181.726125 
z
" clip-path="url(#p14e6d5cbb1)" style="fill: #1f77b4; fill-opacity: 0.5; stroke: #1f77b4; stroke-opacity: 0.5; stroke-linejoin: miter"/>
   </g>
   <g id="line2d_59">
    <path d="M 257.619695 74.89281 
L 255.619695 73.89281 
L 255.619695 75.89281 
z
" clip-path="url(#p14e6d5cbb1)" style="fill: #1f77b4; fill-opacity: 0.5; stroke: #1f77b4; stroke-opacity: 0.5; stroke-linejoin: miter"/>
   </g>
   <g id="line2d_60">
    <path d="M 199.299443 169.316215 
L 201.299443 170.316215 
L 201.299443 168.316215 
z
" clip-path="url(#p14e6d5cbb1)" style="fill: #ff7f0e; fill-opacity: 0.5; stroke: #ff7f0e; stroke-opacity: 0.5; stroke-linejoin: miter"/>
   </g>
   <g id="line2d_61">
    <path d="M 199.299443 316.438495 
L 201.299443 317.438495 
L 201.299443 315.438495 
z
" clip-path="url(#p14e6d5cbb1)" style="fill: #ff7f0e; fill-opacity: 0.5; stroke: #ff7f0e; stroke-opacity: 0.5; stroke-linejoin: miter"/>
   </g>
   <g id="line2d_62">
    <path d="M 199.299443 124.021039 
L 201.299443 125.021039 
L 201.299443 123.021039 
z
" clip-path="url(#p14e6d5cbb1)" style="fill: #ff7f0e; fill-opacity: 0.5; stroke: #ff7f0e; stroke-opacity: 0.5; stroke-linejoin: miter"/>
   </g>
   <g id="line2d_63">
    <path d="M 199.299443 314.316105 
L 201.299443 315.316105 
L 201.299443 313.316105 
z
" clip-path="url(#p14e6d5cbb1)" style="fill: #ff7f0e; fill-opacity: 0.5; stroke: #ff7f0e; stroke-opacity: 0.5; stroke-linejoin: miter"/>
   </g>
   <g id="line2d_64">
    <path d="M 199.299443 251.135751 
L 201.299443 252.135751 
L 201.299443 250.135751 
z
" clip-path="url(#p14e6d5cbb1)" style="fill: #ff7f0e; fill-opacity: 0.5; stroke: #ff7f0e; stroke-opacity: 0.5; stroke-linejoin: miter"/>
   </g>
   <g id="line2d_65">
    <path d="M 199.299443 180.63328 
L 201.299443 181.63328 
L 201.299443 179.63328 
z
" clip-path="url(#p14e6d5cbb1)" style="fill: #ff7f0e; fill-opacity: 0.5; stroke: #ff7f0e; stroke-opacity: 0.5; stroke-linejoin: miter"/>
   </g>
   <g id="line2d_66">
    <path d="M 199.299443 38.477089 
L 201.299443 39.477089 
L 201.299443 37.477089 
z
" clip-path="url(#p14e6d5cbb1)" style="fill: #ff7f0e; fill-opacity: 0.5; stroke: #ff7f0e; stroke-opacity: 0.5; stroke-linejoin: miter"/>
   </g>
   <g id="line2d_67">
    <path d="M 199.299443 186.181322 
L 201.299443 187.181322 
L 201.299443 185.181322 
z
" clip-path="url(#p14e6d5cbb1)" style="fill: #ff7f0e; fill-opacity: 0.5; stroke: #ff7f0e; stroke-opacity: 0.5; stroke-linejoin: miter"/>
   </g>
   <g id="line2d_68">
    <path d="M 199.299443 265.771805 
L 201.299443 266.771805 
L 201.299443 264.771805 
z
" clip-path="url(#p14e6d5cbb1)" style="fill: #ff7f0e; fill-opacity: 0.5; stroke: #ff7f0e; stroke-opacity: 0.5; stroke-linejoin: miter"/>
   </g>
   <g id="line2d_69">
    <path d="M 199.299443 300.211149 
L 201.299443 301.211149 
L 201.299443 299.211149 
z
" clip-path="url(#p14e6d5cbb1)" style="fill: #ff7f0e; fill-opacity: 0.5; stroke: #ff7f0e; stroke-opacity: 0.5; stroke-linejoin: miter"/>
   </g>
   <g id="line2d_70">
    <path d="M 447.666182 159.674445 
L 445.666182 158.674445 
L 445.666182 160.674445 
z
" clip-path="url(#p14e6d5cbb1)" style="fill: #ff7f0e; fill-opacity: 0.5; stroke: #ff7f0e; stroke-opacity: 0.5; stroke-linejoin: miter"/>
   </g>
   <g id="line2d_71">
    <path d="M 447.666182 293.639338 
L 445.666182 292.639338 
L 445.666182 294.639338 
z
" clip-path="url(#p14e6d5cbb1)" style="fill: #ff7f0e; fill-opacity: 0.5; stroke: #ff7f0e; stroke-opacity: 0.5; stroke-linejoin: miter"/>
   </g>
   <g id="line2d_72">
    <path d="M 447.666182 13.527546 
L 445.666182 12.527546 
L 445.666182 14.527546 
z
" clip-path="url(#p14e6d5cbb1)" style="fill: #ff7f0e; fill-opacity: 0.5; stroke: #ff7f0e; stroke-opacity: 0.5; stroke-linejoin: miter"/>
   </g>
   <g id="line2d_73">
    <path d="M 447.666182 65.369406 
L 445.666182 64.369406 
L 445.666182 66.369406 
z
" clip-path="url(#p14e6d5cbb1)" style="fill: #ff7f0e; fill-opacity: 0.5; stroke: #ff7f0e; stroke-opacity: 0.5; stroke-linejoin: miter"/>
   </g>
   <g id="line2d_74">
    <path d="M 447.666182 18.294285 
L 445.666182 17.294285 
L 445.666182 19.294285 
z
" clip-path="url(#p14e6d5cbb1)" style="fill: #ff7f0e; fill-opacity: 0.5; stroke: #ff7f0e; stroke-opacity: 0.5; stroke-linejoin: miter"/>
   </g>
   <g id="line2d_75">
    <path d="M 447.666182 129.867025 
L 445.666182 128.867025 
L 445.666182 130.867025 
z
" clip-path="url(#p14e6d5cbb1)" style="fill: #ff7f0e; fill-opacity: 0.5; stroke: #ff7f0e; stroke-opacity: 0.5; stroke-linejoin: miter"/>
   </g>
   <g id="line2d_76">
    <path d="M 447.666182 91.896766 
L 445.666182 90.896766 
L 445.666182 92.896766 
z
" clip-path="url(#p14e6d5cbb1)" style="fill: #ff7f0e; fill-opacity: 0.5; stroke: #ff7f0e; stroke-opacity: 0.5; stroke-linejoin: miter"/>
   </g>
   <g id="line2d_77">
    <path d="M 447.666182 20.328578 
L 445.666182 19.328578 
L 445.666182 21.328578 
z
" clip-path="url(#p14e6d5cbb1)" style="fill: #ff7f0e; fill-opacity: 0.5; stroke: #ff7f0e; stroke-opacity: 0.5; stroke-linejoin: miter"/>
   </g>
   <g id="line2d_78">
    <path d="M 447.666182 65.574793 
L 445.666182 64.574793 
L 445.666182 66.574793 
z
" clip-path="url(#p14e6d5cbb1)" style="fill: #ff7f0e; fill-opacity: 0.5; stroke: #ff7f0e; stroke-opacity: 0.5; stroke-linejoin: miter"/>
   </g>
   <g id="line2d_79">
    <path d="M 447.666182 172.414554 
L 445.666182 171.414554 
L 445.666182 173.414554 
z
" clip-path="url(#p14e6d5cbb1)" style="fill: #ff7f0e; fill-opacity: 0.5; stroke: #ff7f0e; stroke-opacity: 0.5; stroke-linejoin: miter"/>
   </g>
   <g id="line2d_80">
    <path d="M 389.34593 214.983522 
L 391.34593 215.983522 
L 391.34593 213.983522 
z
" clip-path="url(#p14e6d5cbb1)" style="fill: #2ca02c; fill-opacity: 0.5; stroke: #2ca02c; stroke-opacity: 0.5; stroke-linejoin: miter"/>
   </g>
   <g id="line2d_81">
    <path d="M 389.34593 31.185823 
L 391.34593 32.185823 
L 391.34593 30.185823 
z
" clip-path="url(#p14e6d5cbb1)" style="fill: #2ca02c; fill-opacity: 0.5; stroke: #2ca02c; stroke-opacity: 0.5; stroke-linejoin: miter"/>
   </g>
   <g id="line2d_82">
    <path d="M 389.34593 303.677479 
L 391.34593 304.677479 
L 391.34593 302.677479 
z
" clip-path="url(#p14e6d5cbb1)" style="fill: #2ca02c; fill-opacity: 0.5; stroke: #2ca02c; stroke-opacity: 0.5; stroke-linejoin: miter"/>
   </g>
   <g id="line2d_83">
    <path d="M 389.34593 114.697385 
L 391.34593 115.697385 
L 391.34593 113.697385 
z
" clip-path="url(#p14e6d5cbb1)" style="fill: #2ca02c; fill-opacity: 0.5; stroke: #2ca02c; stroke-opacity: 0.5; stroke-linejoin: miter"/>
   </g>
   <g id="line2d_84">
    <path d="M 389.34593 311.066053 
L 391.34593 312.066053 
L 391.34593 310.066053 
z
" clip-path="url(#p14e6d5cbb1)" style="fill: #2ca02c; fill-opacity: 0.5; stroke: #2ca02c; stroke-opacity: 0.5; stroke-linejoin: miter"/>
   </g>
   <g id="line2d_85">
    <path d="M 389.34593 250.484629 
L 391.34593 251.484629 
L 391.34593 249.484629 
z
" clip-path="url(#p14e6d5cbb1)" style="fill: #2ca02c; fill-opacity: 0.5; stroke: #2ca02c; stroke-opacity: 0.5; stroke-linejoin: miter"/>
   </g>
   <g id="line2d_86">
    <path d="M 389.34593 52.932007 
L 391.34593 53.932007 
L 391.34593 51.932007 
z
" clip-path="url(#p14e6d5cbb1)" style="fill: #2ca02c; fill-opacity: 0.5; stroke: #2ca02c; stroke-opacity: 0.5; stroke-linejoin: miter"/>
   </g>
   <g id="line2d_87">
    <path d="M 389.34593 287.086203 
L 391.34593 288.086203 
L 391.34593 286.086203 
z
" clip-path="url(#p14e6d5cbb1)" style="fill: #2ca02c; fill-opacity: 0.5; stroke: #2ca02c; stroke-opacity: 0.5; stroke-linejoin: miter"/>
   </g>
   <g id="line2d_88">
    <path d="M 389.34593 72.321368 
L 391.34593 73.321368 
L 391.34593 71.321368 
z
" clip-path="url(#p14e6d5cbb1)" style="fill: #2ca02c; fill-opacity: 0.5; stroke: #2ca02c; stroke-opacity: 0.5; stroke-linejoin: miter"/>
   </g>
   <g id="line2d_89">
    <path d="M 389.34593 119.439318 
L 391.34593 120.439318 
L 391.34593 118.439318 
z
" clip-path="url(#p14e6d5cbb1)" style="fill: #2ca02c; fill-opacity: 0.5; stroke: #2ca02c; stroke-opacity: 0.5; stroke-linejoin: miter"/>
   </g>
   <g id="patch_6">
    <path d="M 46.965625 318.021875 
L 46.965625 7.2 
" style="fill: none; stroke: #000000; stroke-width: 0.8; stroke-linejoin: miter; stroke-linecap: square"/>
   </g>
  </g>
 </g>
 <defs>
  <clipPath id="p14e6d5cbb1">
   <rect x="46.965625" y="7.2" width="553.034375" height="310.821875"/>
  </clipPath>
 </defs>
</svg>