<?xml version="1.0" encoding="utf-8" standalone="no"?>
<!DOCTYPE svg PUBLIC "-//W3C//DTD SVG 1.1//EN"
  "http://www.w3.org/Graphics/SVG/1.1/DTD/svg11.dtd">
<svg xmlns:xlink="http://www.w3.org/1999/xlink" width="607.2pt" height="338.4pt" viewBox="0 0 607.2 338.4" xmlns="http://www.w3.org/2000/svg" version="1.1">
 <metadata>
  <rdf:RDF xmlns:dc="http://purl.org/dc/elements/1.1/" xmlns:cc="http://creativecommons.org/ns#" xmlns:rdf="http://www.w3.org/1999/02/22-rdf-syntax-ns#">
   <cc:Work>
    <dc:type rdf:resource="http://purl.org/dc/dcmitype/StillImage"/>
    <dc:date>2023-11-20T08:23:59.127697</dc:date>
    <dc:format>image/svg+xml</dc:format>
    <dc:creator>
     <cc:Agent>
      <dc:title>Matplotlib v3.7.2, https://matplotlib.org/</dc:title>
     </cc:Agent>
    </dc:creator>
   </cc:Work>
  </rdf:RDF>
 </metadata>
 <defs>
  <style type="text/css">*{stroke-linejoin: round; stroke-linecap: butt}</style>
 </defs>
 <g id="figure_1">
  <g id="patch_1">
   <path d="M 0 338.4 
L 607.2 338.4 
L 607.2 0 
L 0 0 
z
" style="fill: #ffffff"/>
  </g>
  <g id="axes_1">
   <g id="patch_2">
    <path d="M 43.78125 318.021875 
L 600 318.021875 
L 600 22.318125 
L 43.78125 22.318125 
z
" style="fill: #ffffff"/>
   </g>
   <path d="M 290.098299 92.161421 
L 291.098299 92.192857 
L 292.098299 92.229798 
L 293.098299 92.327544 
L 294.098299 92.360066 
L 295.098299 92.433691 
L 296.098299 92.472256 
L 297.098299 92.507669 
L 298.098299 92.565309 
L 299.098299 92.635695 
L 300.098299 92.68766 
L 301.098299 92.746749 
L 302.098299 92.83507 
L 303.098299 92.881215 
L 304.098299 92.923626 
L 305.098299 92.954118 
L 306.098299 92.980163 
L 307.098299 93.001363 
L 308.098299 93.055664 
L 309.098299 93.083602 
L 310.098299 93.113326 
L 311.098299 93.138721 
L 312.098299 93.149921 
L 313.098299 93.160045 
L 314.098299 93.159841 
L 315.098299 93.150331 
L 316.098299 93.138677 
L 317.098299 93.107648 
L 318.098299 93.09648 
L 319.098299 93.066363 
L 320.098299 93.006586 
L 321.098299 92.969394 
L 322.098299 92.930298 
L 323.098299 92.887858 
L 324.098299 92.855093 
L 325.098299 92.787667 
L 326.098299 92.748541 
L 327.098299 92.705866 
L 328.098299 92.635286 
L 329.098299 92.598895 
L 330.098299 92.540492 
L 331.098299 92.429539 
L 332.098299 92.358881 
L 333.098299 92.245941 
L 334.098299 92.200168 
L 335.098299 92.138885 
L 336.098299 92.090386 
L 337.098299 92.009563 
L 338.098299 91.891044 
L 339.098299 91.820833 
L 340.098299 91.737571 
L 341.098299 91.704429 
L 342.098299 91.653192 
L 343.098299 91.584793 
L 344.098299 91.518578 
L 345.098299 91.441661 
L 346.098299 91.414345 
L 347.098299 91.387868 
L 348.098299 91.365217 
L 349.098299 91.345686 
L 350.098299 91.319292 
L 351.098299 91.269521 
L 352.098299 91.234448 
L 353.682951 91.198582 
" clip-path="url(#p6e08f1a989)" style="fill: none; stroke: #1f77b4; stroke-opacity: 0.5; stroke-width: 0.2; stroke-linecap: square"/>
   <path d="M 290.098299 141.45678 
L 291.098299 141.488217 
L 292.098299 141.525157 
L 293.098299 141.622904 
L 294.098299 141.655425 
L 295.098299 141.72905 
L 296.098299 141.767616 
L 297.098299 141.803029 
L 298.098299 141.860669 
L 299.098299 141.931055 
L 300.098299 141.983019 
L 301.098299 142.042109 
L 302.098299 142.13043 
L 303.098299 142.176574 
L 304.098299 142.218985 
L 305.098299 142.249478 
L 306.098299 142.275523 
L 307.098299 142.296723 
L 308.098299 142.351024 
L 309.098299 142.378961 
L 310.098299 142.408685 
L 311.098299 142.43408 
L 312.098299 142.445281 
L 313.098299 142.455405 
L 314.098299 142.4552 
L 315.098299 142.44569 
L 316.098299 142.434037 
L 317.098299 142.403007 
L 318.098299 142.39184 
L 319.098299 142.361722 
L 320.098299 142.301945 
L 321.098299 142.264754 
L 322.098299 142.225657 
L 323.098299 142.183218 
L 324.098299 142.150453 
L 325.098299 142.083026 
L 326.098299 142.0439 
L 327.098299 142.001226 
L 328.098299 141.930645 
L 329.098299 141.894254 
L 330.098299 141.835851 
L 331.098299 141.724899 
L 332.098299 141.65424 
L 333.098299 141.5413 
L 334.098299 141.495528 
L 335.098299 141.434244 
L 336.098299 141.385745 
L 337.098299 141.304922 
L 338.098299 141.186403 
L 339.098299 141.116193 
L 340.098299 141.03293 
L 341.098299 140.999788 
L 342.098299 140.948551 
L 343.098299 140.880153 
L 344.098299 140.813937 
L 345.098299 140.73702 
L 346.098299 140.709705 
L 347.098299 140.683227 
L 348.098299 140.660577 
L 349.098299 140.641045 
L 350.098299 140.614651 
L 351.098299 140.564881 
L 352.098299 140.529807 
L 353.682951 140.493942 
" clip-path="url(#p6e08f1a989)" style="fill: none; stroke: #1f77b4; stroke-opacity: 0.5; stroke-width: 0.2; stroke-linecap: square"/>
   <path d="M 290.098299 168.017331 
L 291.098299 168.048767 
L 292.098299 168.085708 
L 293.098299 168.183454 
L 294.098299 168.215976 
L 295.098299 168.2896 
L 296.098299 168.328166 
L 297.098299 168.363579 
L 298.098299 168.421219 
L 299.098299 168.491605 
L 300.098299 168.54357 
L 301.098299 168.602659 
L 302.098299 168.69098 
L 303.098299 168.737125 
L 304.098299 168.779535 
L 305.098299 168.810028 
L 306.098299 168.836073 
L 307.098299 168.857273 
L 308.098299 168.911574 
L 309.098299 168.939512 
L 310.098299 168.969236 
L 311.098299 168.994631 
L 312.098299 169.005831 
L 313.098299 169.015955 
L 314.098299 169.015751 
L 315.098299 169.006241 
L 316.098299 168.994587 
L 317.098299 168.963558 
L 318.098299 168.95239 
L 319.098299 168.922272 
L 320.098299 168.862496 
L 321.098299 168.825304 
L 322.098299 168.786208 
L 323.098299 168.743768 
L 324.098299 168.711003 
L 325.098299 168.643577 
L 326.098299 168.604451 
L 327.098299 168.561776 
L 328.098299 168.491196 
L 329.098299 168.454805 
L 330.098299 168.396402 
L 331.098299 168.285449 
L 332.098299 168.214791 
L 333.098299 168.101851 
L 334.098299 168.056078 
L 335.098299 167.994795 
L 336.098299 167.946295 
L 337.098299 167.865473 
L 338.098299 167.746954 
L 339.098299 167.676743 
L 340.098299 167.593481 
L 341.098299 167.560339 
L 342.098299 167.509102 
L 343.098299 167.440703 
L 344.098299 167.374488 
L 345.098299 167.297571 
L 346.098299 167.270255 
L 347.098299 167.243778 
L 348.098299 167.221127 
L 349.098299 167.201596 
L 350.098299 167.175202 
L 351.098299 167.125431 
L 352.098299 167.090358 
L 353.682951 167.054492 
" clip-path="url(#p6e08f1a989)" style="fill: none; stroke: #1f77b4; stroke-opacity: 0.5; stroke-width: 0.2; stroke-linecap: square"/>
   <path d="M 290.098299 109.928795 
L 291.098299 109.960232 
L 292.098299 109.997172 
L 293.098299 110.094919 
L 294.098299 110.12744 
L 295.098299 110.201065 
L 296.098299 110.239631 
L 297.098299 110.275044 
L 298.098299 110.332684 
L 299.098299 110.40307 
L 300.098299 110.455034 
L 301.098299 110.514124 
L 302.098299 110.602445 
L 303.098299 110.648589 
L 304.098299 110.691 
L 305.098299 110.721493 
L 306.098299 110.747538 
L 307.098299 110.768738 
L 308.098299 110.823039 
L 309.098299 110.850976 
L 310.098299 110.8807 
L 311.098299 110.906095 
L 312.098299 110.917296 
L 313.098299 110.92742 
L 314.098299 110.927215 
L 315.098299 110.917705 
L 316.098299 110.906052 
L 317.098299 110.875022 
L 318.098299 110.863855 
L 319.098299 110.833737 
L 320.098299 110.77396 
L 321.098299 110.736769 
L 322.098299 110.697672 
L 323.098299 110.655233 
L 324.098299 110.622468 
L 325.098299 110.555041 
L 326.098299 110.515915 
L 327.098299 110.473241 
L 328.098299 110.40266 
L 329.098299 110.366269 
L 330.098299 110.307866 
L 331.098299 110.196914 
L 332.098299 110.126255 
L 333.098299 110.013315 
L 334.098299 109.967543 
L 335.098299 109.906259 
L 336.098299 109.85776 
L 337.098299 109.776937 
L 338.098299 109.658418 
L 339.098299 109.588208 
L 340.098299 109.504945 
L 341.098299 109.471804 
L 342.098299 109.420566 
L 343.098299 109.352168 
L 344.098299 109.285952 
L 345.098299 109.209035 
L 346.098299 109.18172 
L 347.098299 109.155242 
L 348.098299 109.132592 
L 349.098299 109.11306 
L 350.098299 109.086666 
L 351.098299 109.036896 
L 352.098299 109.001822 
L 353.682951 108.965957 
" clip-path="url(#p6e08f1a989)" style="fill: none; stroke: #1f77b4; stroke-opacity: 0.5; stroke-width: 0.2; stroke-linecap: square"/>
   <path d="M 290.098299 112.797403 
L 291.098299 112.828839 
L 292.098299 112.86578 
L 293.098299 112.963526 
L 294.098299 112.996048 
L 295.098299 113.069672 
L 296.098299 113.108238 
L 297.098299 113.143651 
L 298.098299 113.201291 
L 299.098299 113.271677 
L 300.098299 113.323641 
L 301.098299 113.382731 
L 302.098299 113.471052 
L 303.098299 113.517196 
L 304.098299 113.559607 
L 305.098299 113.5901 
L 306.098299 113.616145 
L 307.098299 113.637345 
L 308.098299 113.691646 
L 309.098299 113.719584 
L 310.098299 113.749308 
L 311.098299 113.774703 
L 312.098299 113.785903 
L 313.098299 113.796027 
L 314.098299 113.795823 
L 315.098299 113.786313 
L 316.098299 113.774659 
L 317.098299 113.74363 
L 318.098299 113.732462 
L 319.098299 113.702344 
L 320.098299 113.642567 
L 321.098299 113.605376 
L 322.098299 113.56628 
L 323.098299 113.52384 
L 324.098299 113.491075 
L 325.098299 113.423649 
L 326.098299 113.384523 
L 327.098299 113.341848 
L 328.098299 113.271268 
L 329.098299 113.234877 
L 330.098299 113.176474 
L 331.098299 113.065521 
L 332.098299 112.994863 
L 333.098299 112.881923 
L 334.098299 112.83615 
L 335.098299 112.774867 
L 336.098299 112.726367 
L 337.098299 112.645545 
L 338.098299 112.527026 
L 339.098299 112.456815 
L 340.098299 112.373553 
L 341.098299 112.340411 
L 342.098299 112.289174 
L 343.098299 112.220775 
L 344.098299 112.15456 
L 345.098299 112.077643 
L 346.098299 112.050327 
L 347.098299 112.02385 
L 348.098299 112.001199 
L 349.098299 111.981668 
L 350.098299 111.955274 
L 351.098299 111.905503 
L 352.098299 111.87043 
L 353.682951 111.834564 
" clip-path="url(#p6e08f1a989)" style="fill: none; stroke: #1f77b4; stroke-opacity: 0.5; stroke-width: 0.2; stroke-linecap: square"/>
   <path d="M 290.098299 186.516254 
L 291.098299 186.54769 
L 292.098299 186.584631 
L 293.098299 186.682377 
L 294.098299 186.714899 
L 295.098299 186.788523 
L 296.098299 186.827089 
L 297.098299 186.862502 
L 298.098299 186.920142 
L 299.098299 186.990528 
L 300.098299 187.042493 
L 301.098299 187.101582 
L 302.098299 187.189903 
L 303.098299 187.236048 
L 304.098299 187.278459 
L 305.098299 187.308951 
L 306.098299 187.334996 
L 307.098299 187.356196 
L 308.098299 187.410497 
L 309.098299 187.438435 
L 310.098299 187.468159 
L 311.098299 187.493554 
L 312.098299 187.504754 
L 313.098299 187.514878 
L 314.098299 187.514674 
L 315.098299 187.505164 
L 316.098299 187.49351 
L 317.098299 187.462481 
L 318.098299 187.451313 
L 319.098299 187.421196 
L 320.098299 187.361419 
L 321.098299 187.324227 
L 322.098299 187.285131 
L 323.098299 187.242691 
L 324.098299 187.209926 
L 325.098299 187.1425 
L 326.098299 187.103374 
L 327.098299 187.060699 
L 328.098299 186.990119 
L 329.098299 186.953728 
L 330.098299 186.895325 
L 331.098299 186.784372 
L 332.098299 186.713714 
L 333.098299 186.600774 
L 334.098299 186.555001 
L 335.098299 186.493718 
L 336.098299 186.445218 
L 337.098299 186.364396 
L 338.098299 186.245877 
L 339.098299 186.175666 
L 340.098299 186.092404 
L 341.098299 186.059262 
L 342.098299 186.008025 
L 343.098299 185.939626 
L 344.098299 185.873411 
L 345.098299 185.796494 
L 346.098299 185.769178 
L 347.098299 185.742701 
L 348.098299 185.72005 
L 349.098299 185.700519 
L 350.098299 185.674125 
L 351.098299 185.624354 
L 352.098299 185.589281 
L 353.682951 185.553415 
" clip-path="url(#p6e08f1a989)" style="fill: none; stroke: #1f77b4; stroke-opacity: 0.5; stroke-width: 0.2; stroke-linecap: square"/>
   <path d="M 290.098299 84.218444 
L 291.098299 84.24988 
L 292.098299 84.28682 
L 293.098299 84.384567 
L 294.098299 84.417088 
L 295.098299 84.490713 
L 296.098299 84.529279 
L 297.098299 84.564692 
L 298.098299 84.622332 
L 299.098299 84.692718 
L 300.098299 84.744682 
L 301.098299 84.803772 
L 302.098299 84.892093 
L 303.098299 84.938237 
L 304.098299 84.980648 
L 305.098299 85.011141 
L 306.098299 85.037186 
L 307.098299 85.058386 
L 308.098299 85.112687 
L 309.098299 85.140625 
L 310.098299 85.170349 
L 311.098299 85.195743 
L 312.098299 85.206944 
L 313.098299 85.217068 
L 314.098299 85.216863 
L 315.098299 85.207353 
L 316.098299 85.1957 
L 317.098299 85.164671 
L 318.098299 85.153503 
L 319.098299 85.123385 
L 320.098299 85.063608 
L 321.098299 85.026417 
L 322.098299 84.987321 
L 323.098299 84.944881 
L 324.098299 84.912116 
L 325.098299 84.844689 
L 326.098299 84.805563 
L 327.098299 84.762889 
L 328.098299 84.692308 
L 329.098299 84.655917 
L 330.098299 84.597514 
L 331.098299 84.486562 
L 332.098299 84.415903 
L 333.098299 84.302964 
L 334.098299 84.257191 
L 335.098299 84.195907 
L 336.098299 84.147408 
L 337.098299 84.066585 
L 338.098299 83.948067 
L 339.098299 83.877856 
L 340.098299 83.794593 
L 341.098299 83.761452 
L 342.098299 83.710214 
L 343.098299 83.641816 
L 344.098299 83.575601 
L 345.098299 83.498683 
L 346.098299 83.471368 
L 347.098299 83.44489 
L 348.098299 83.42224 
L 349.098299 83.402709 
L 350.098299 83.376315 
L 351.098299 83.326544 
L 352.098299 83.291471 
L 353.682951 83.255605 
" clip-path="url(#p6e08f1a989)" style="fill: none; stroke: #1f77b4; stroke-opacity: 0.5; stroke-width: 0.2; stroke-linecap: square"/>
   <path d="M 290.098299 81.548431 
L 291.098299 81.579868 
L 292.098299 81.616808 
L 293.098299 81.714555 
L 294.098299 81.747076 
L 295.098299 81.820701 
L 296.098299 81.859266 
L 297.098299 81.89468 
L 298.098299 81.95232 
L 299.098299 82.022706 
L 300.098299 82.07467 
L 301.098299 82.13376 
L 302.098299 82.222081 
L 303.098299 82.268225 
L 304.098299 82.310636 
L 305.098299 82.341129 
L 306.098299 82.367174 
L 307.098299 82.388374 
L 308.098299 82.442675 
L 309.098299 82.470612 
L 310.098299 82.500336 
L 311.098299 82.525731 
L 312.098299 82.536931 
L 313.098299 82.547055 
L 314.098299 82.546851 
L 315.098299 82.537341 
L 316.098299 82.525688 
L 317.098299 82.494658 
L 318.098299 82.48349 
L 319.098299 82.453373 
L 320.098299 82.393596 
L 321.098299 82.356404 
L 322.098299 82.317308 
L 323.098299 82.274869 
L 324.098299 82.242104 
L 325.098299 82.174677 
L 326.098299 82.135551 
L 327.098299 82.092877 
L 328.098299 82.022296 
L 329.098299 81.985905 
L 330.098299 81.927502 
L 331.098299 81.816549 
L 332.098299 81.745891 
L 333.098299 81.632951 
L 334.098299 81.587178 
L 335.098299 81.525895 
L 336.098299 81.477396 
L 337.098299 81.396573 
L 338.098299 81.278054 
L 339.098299 81.207844 
L 340.098299 81.124581 
L 341.098299 81.091439 
L 342.098299 81.040202 
L 343.098299 80.971804 
L 344.098299 80.905588 
L 345.098299 80.828671 
L 346.098299 80.801356 
L 347.098299 80.774878 
L 348.098299 80.752228 
L 349.098299 80.732696 
L 350.098299 80.706302 
L 351.098299 80.656532 
L 352.098299 80.621458 
L 353.682951 80.585593 
" clip-path="url(#p6e08f1a989)" style="fill: none; stroke: #1f77b4; stroke-opacity: 0.5; stroke-width: 0.2; stroke-linecap: square"/>
   <path d="M 290.098299 119.595449 
L 291.098299 119.626886 
L 292.098299 119.663826 
L 293.098299 119.761573 
L 294.098299 119.794094 
L 295.098299 119.867719 
L 296.098299 119.906285 
L 297.098299 119.941698 
L 298.098299 119.999338 
L 299.098299 120.069724 
L 300.098299 120.121688 
L 301.098299 120.180778 
L 302.098299 120.269099 
L 303.098299 120.315243 
L 304.098299 120.357654 
L 305.098299 120.388147 
L 306.098299 120.414192 
L 307.098299 120.435392 
L 308.098299 120.489693 
L 309.098299 120.51763 
L 310.098299 120.547354 
L 311.098299 120.572749 
L 312.098299 120.58395 
L 313.098299 120.594074 
L 314.098299 120.593869 
L 315.098299 120.584359 
L 316.098299 120.572706 
L 317.098299 120.541676 
L 318.098299 120.530509 
L 319.098299 120.500391 
L 320.098299 120.440614 
L 321.098299 120.403423 
L 322.098299 120.364326 
L 323.098299 120.321887 
L 324.098299 120.289122 
L 325.098299 120.221695 
L 326.098299 120.182569 
L 327.098299 120.139895 
L 328.098299 120.069314 
L 329.098299 120.032923 
L 330.098299 119.97452 
L 331.098299 119.863568 
L 332.098299 119.792909 
L 333.098299 119.679969 
L 334.098299 119.634197 
L 335.098299 119.572913 
L 336.098299 119.524414 
L 337.098299 119.443591 
L 338.098299 119.325072 
L 339.098299 119.254862 
L 340.098299 119.171599 
L 341.098299 119.138458 
L 342.098299 119.08722 
L 343.098299 119.018822 
L 344.098299 118.952606 
L 345.098299 118.875689 
L 346.098299 118.848374 
L 347.098299 118.821896 
L 348.098299 118.799246 
L 349.098299 118.779714 
L 350.098299 118.75332 
L 351.098299 118.70355 
L 352.098299 118.668476 
L 353.682951 118.632611 
" clip-path="url(#p6e08f1a989)" style="fill: none; stroke: #1f77b4; stroke-opacity: 0.5; stroke-width: 0.2; stroke-linecap: square"/>
   <path d="M 290.098299 103.358032 
L 291.098299 103.389469 
L 292.098299 103.426409 
L 293.098299 103.524156 
L 294.098299 103.556677 
L 295.098299 103.630302 
L 296.098299 103.668867 
L 297.098299 103.704281 
L 298.098299 103.76192 
L 299.098299 103.832307 
L 300.098299 103.884271 
L 301.098299 103.943361 
L 302.098299 104.031682 
L 303.098299 104.077826 
L 304.098299 104.120237 
L 305.098299 104.15073 
L 306.098299 104.176774 
L 307.098299 104.197975 
L 308.098299 104.252276 
L 309.098299 104.280213 
L 310.098299 104.309937 
L 311.098299 104.335332 
L 312.098299 104.346532 
L 313.098299 104.356656 
L 314.098299 104.356452 
L 315.098299 104.346942 
L 316.098299 104.335289 
L 317.098299 104.304259 
L 318.098299 104.293091 
L 319.098299 104.262974 
L 320.098299 104.203197 
L 321.098299 104.166005 
L 322.098299 104.126909 
L 323.098299 104.08447 
L 324.098299 104.051705 
L 325.098299 103.984278 
L 326.098299 103.945152 
L 327.098299 103.902478 
L 328.098299 103.831897 
L 329.098299 103.795506 
L 330.098299 103.737103 
L 331.098299 103.62615 
L 332.098299 103.555492 
L 333.098299 103.442552 
L 334.098299 103.396779 
L 335.098299 103.335496 
L 336.098299 103.286997 
L 337.098299 103.206174 
L 338.098299 103.087655 
L 339.098299 103.017445 
L 340.098299 102.934182 
L 341.098299 102.90104 
L 342.098299 102.849803 
L 343.098299 102.781405 
L 344.098299 102.715189 
L 345.098299 102.638272 
L 346.098299 102.610957 
L 347.098299 102.584479 
L 348.098299 102.561829 
L 349.098299 102.542297 
L 350.098299 102.515903 
L 351.098299 102.466132 
L 352.098299 102.431059 
L 353.682951 102.395194 
" clip-path="url(#p6e08f1a989)" style="fill: none; stroke: #1f77b4; stroke-opacity: 0.5; stroke-width: 0.2; stroke-linecap: square"/>
   <path d="M 290.098299 213.928945 
L 291.098299 213.960381 
L 292.098299 213.997322 
L 293.098299 214.095068 
L 294.098299 214.12759 
L 295.098299 214.201214 
L 296.098299 214.23978 
L 297.098299 214.275193 
L 298.098299 214.332833 
L 299.098299 214.403219 
L 300.098299 214.455184 
L 301.098299 214.514273 
L 302.098299 214.602594 
L 303.098299 214.648739 
L 304.098299 214.691149 
L 305.098299 214.721642 
L 306.098299 214.747687 
L 307.098299 214.768887 
L 308.098299 214.823188 
L 309.098299 214.851126 
L 310.098299 214.88085 
L 311.098299 214.906245 
L 312.098299 214.917445 
L 313.098299 214.927569 
L 314.098299 214.927365 
L 315.098299 214.917855 
L 316.098299 214.906201 
L 317.098299 214.875172 
L 318.098299 214.864004 
L 319.098299 214.833886 
L 320.098299 214.77411 
L 321.098299 214.736918 
L 322.098299 214.697822 
L 323.098299 214.655382 
L 324.098299 214.622617 
L 325.098299 214.555191 
L 326.098299 214.516065 
L 327.098299 214.47339 
L 328.098299 214.40281 
L 329.098299 214.366419 
L 330.098299 214.308016 
L 331.098299 214.197063 
L 332.098299 214.126405 
L 333.098299 214.013465 
L 334.098299 213.967692 
L 335.098299 213.906409 
L 336.098299 213.857909 
L 337.098299 213.777087 
L 338.098299 213.658568 
L 339.098299 213.588357 
L 340.098299 213.505095 
L 341.098299 213.471953 
L 342.098299 213.420716 
L 343.098299 213.352317 
L 344.098299 213.286102 
L 345.098299 213.209185 
L 346.098299 213.181869 
L 347.098299 213.155392 
L 348.098299 213.132741 
L 349.098299 213.11321 
L 350.098299 213.086816 
L 351.098299 213.037045 
L 352.098299 213.001972 
L 353.682951 212.966106 
" clip-path="url(#p6e08f1a989)" style="fill: none; stroke: #1f77b4; stroke-opacity: 0.5; stroke-width: 0.2; stroke-linecap: square"/>
   <path d="M 290.098299 249.947589 
L 291.098299 249.979025 
L 292.098299 250.015966 
L 293.098299 250.113712 
L 294.098299 250.146234 
L 295.098299 250.219859 
L 296.098299 250.258424 
L 297.098299 250.293837 
L 298.098299 250.351477 
L 299.098299 250.421864 
L 300.098299 250.473828 
L 301.098299 250.532918 
L 302.098299 250.621238 
L 303.098299 250.667383 
L 304.098299 250.709794 
L 305.098299 250.740286 
L 306.098299 250.766331 
L 307.098299 250.787531 
L 308.098299 250.841833 
L 309.098299 250.86977 
L 310.098299 250.899494 
L 311.098299 250.924889 
L 312.098299 250.936089 
L 313.098299 250.946213 
L 314.098299 250.946009 
L 315.098299 250.936499 
L 316.098299 250.924845 
L 317.098299 250.893816 
L 318.098299 250.882648 
L 319.098299 250.852531 
L 320.098299 250.792754 
L 321.098299 250.755562 
L 322.098299 250.716466 
L 323.098299 250.674027 
L 324.098299 250.641261 
L 325.098299 250.573835 
L 326.098299 250.534709 
L 327.098299 250.492035 
L 328.098299 250.421454 
L 329.098299 250.385063 
L 330.098299 250.32666 
L 331.098299 250.215707 
L 332.098299 250.145049 
L 333.098299 250.032109 
L 334.098299 249.986336 
L 335.098299 249.925053 
L 336.098299 249.876554 
L 337.098299 249.795731 
L 338.098299 249.677212 
L 339.098299 249.607001 
L 340.098299 249.523739 
L 341.098299 249.490597 
L 342.098299 249.43936 
L 343.098299 249.370962 
L 344.098299 249.304746 
L 345.098299 249.227829 
L 346.098299 249.200514 
L 347.098299 249.174036 
L 348.098299 249.151385 
L 349.098299 249.131854 
L 350.098299 249.10546 
L 351.098299 249.055689 
L 352.098299 249.020616 
L 353.682951 248.984751 
" clip-path="url(#p6e08f1a989)" style="fill: none; stroke: #1f77b4; stroke-opacity: 0.5; stroke-width: 0.2; stroke-linecap: square"/>
   <path d="M 290.098299 300.677317 
L 291.098299 300.708754 
L 292.098299 300.745694 
L 293.098299 300.84344 
L 294.098299 300.875962 
L 295.098299 300.949587 
L 296.098299 300.988152 
L 297.098299 301.023566 
L 298.098299 301.081205 
L 299.098299 301.151592 
L 300.098299 301.203556 
L 301.098299 301.262646 
L 302.098299 301.350967 
L 303.098299 301.397111 
L 304.098299 301.439522 
L 305.098299 301.470014 
L 306.098299 301.496059 
L 307.098299 301.51726 
L 308.098299 301.571561 
L 309.098299 301.599498 
L 310.098299 301.629222 
L 311.098299 301.654617 
L 312.098299 301.665817 
L 313.098299 301.675941 
L 314.098299 301.675737 
L 315.098299 301.666227 
L 316.098299 301.654574 
L 317.098299 301.623544 
L 318.098299 301.612376 
L 319.098299 301.582259 
L 320.098299 301.522482 
L 321.098299 301.48529 
L 322.098299 301.446194 
L 323.098299 301.403755 
L 324.098299 301.37099 
L 325.098299 301.303563 
L 326.098299 301.264437 
L 327.098299 301.221763 
L 328.098299 301.151182 
L 329.098299 301.114791 
L 330.098299 301.056388 
L 331.098299 300.945435 
L 332.098299 300.874777 
L 333.098299 300.761837 
L 334.098299 300.716064 
L 335.098299 300.654781 
L 336.098299 300.606282 
L 337.098299 300.525459 
L 338.098299 300.40694 
L 339.098299 300.33673 
L 340.098299 300.253467 
L 341.098299 300.220325 
L 342.098299 300.169088 
L 343.098299 300.10069 
L 344.098299 300.034474 
L 345.098299 299.957557 
L 346.098299 299.930242 
L 347.098299 299.903764 
L 348.098299 299.881113 
L 349.098299 299.861582 
L 350.098299 299.835188 
L 351.098299 299.785417 
L 352.098299 299.750344 
L 353.682951 299.714479 
" clip-path="url(#p6e08f1a989)" style="fill: none; stroke: #1f77b4; stroke-opacity: 0.5; stroke-width: 0.2; stroke-linecap: square"/>
   <path d="M 290.098299 215.629685 
L 291.098299 215.661121 
L 292.098299 215.698061 
L 293.098299 215.795808 
L 294.098299 215.82833 
L 295.098299 215.901954 
L 296.098299 215.94052 
L 297.098299 215.975933 
L 298.098299 216.033573 
L 299.098299 216.103959 
L 300.098299 216.155923 
L 301.098299 216.215013 
L 302.098299 216.303334 
L 303.098299 216.349478 
L 304.098299 216.391889 
L 305.098299 216.422382 
L 306.098299 216.448427 
L 307.098299 216.469627 
L 308.098299 216.523928 
L 309.098299 216.551866 
L 310.098299 216.58159 
L 311.098299 216.606984 
L 312.098299 216.618185 
L 313.098299 216.628309 
L 314.098299 216.628104 
L 315.098299 216.618595 
L 316.098299 216.606941 
L 317.098299 216.575912 
L 318.098299 216.564744 
L 319.098299 216.534626 
L 320.098299 216.474849 
L 321.098299 216.437658 
L 322.098299 216.398562 
L 323.098299 216.356122 
L 324.098299 216.323357 
L 325.098299 216.255931 
L 326.098299 216.216805 
L 327.098299 216.17413 
L 328.098299 216.103549 
L 329.098299 216.067159 
L 330.098299 216.008755 
L 331.098299 215.897803 
L 332.098299 215.827145 
L 333.098299 215.714205 
L 334.098299 215.668432 
L 335.098299 215.607149 
L 336.098299 215.558649 
L 337.098299 215.477827 
L 338.098299 215.359308 
L 339.098299 215.289097 
L 340.098299 215.205835 
L 341.098299 215.172693 
L 342.098299 215.121455 
L 343.098299 215.053057 
L 344.098299 214.986842 
L 345.098299 214.909925 
L 346.098299 214.882609 
L 347.098299 214.856132 
L 348.098299 214.833481 
L 349.098299 214.81395 
L 350.098299 214.787556 
L 351.098299 214.737785 
L 352.098299 214.702712 
L 353.682951 214.666846 
" clip-path="url(#p6e08f1a989)" style="fill: none; stroke: #1f77b4; stroke-opacity: 0.5; stroke-width: 0.2; stroke-linecap: square"/>
   <path d="M 290.098299 259.44723 
L 291.098299 259.478666 
L 292.098299 259.515607 
L 293.098299 259.613353 
L 294.098299 259.645875 
L 295.098299 259.719499 
L 296.098299 259.758065 
L 297.098299 259.793478 
L 298.098299 259.851118 
L 299.098299 259.921504 
L 300.098299 259.973468 
L 301.098299 260.032558 
L 302.098299 260.120879 
L 303.098299 260.167023 
L 304.098299 260.209434 
L 305.098299 260.239927 
L 306.098299 260.265972 
L 307.098299 260.287172 
L 308.098299 260.341473 
L 309.098299 260.369411 
L 310.098299 260.399135 
L 311.098299 260.42453 
L 312.098299 260.43573 
L 313.098299 260.445854 
L 314.098299 260.44565 
L 315.098299 260.43614 
L 316.098299 260.424486 
L 317.098299 260.393457 
L 318.098299 260.382289 
L 319.098299 260.352171 
L 320.098299 260.292394 
L 321.098299 260.255203 
L 322.098299 260.216107 
L 323.098299 260.173667 
L 324.098299 260.140902 
L 325.098299 260.073476 
L 326.098299 260.03435 
L 327.098299 259.991675 
L 328.098299 259.921095 
L 329.098299 259.884704 
L 330.098299 259.826301 
L 331.098299 259.715348 
L 332.098299 259.64469 
L 333.098299 259.53175 
L 334.098299 259.485977 
L 335.098299 259.424694 
L 336.098299 259.376194 
L 337.098299 259.295372 
L 338.098299 259.176853 
L 339.098299 259.106642 
L 340.098299 259.02338 
L 341.098299 258.990238 
L 342.098299 258.939001 
L 343.098299 258.870602 
L 344.098299 258.804387 
L 345.098299 258.72747 
L 346.098299 258.700154 
L 347.098299 258.673677 
L 348.098299 258.651026 
L 349.098299 258.631495 
L 350.098299 258.605101 
L 351.098299 258.55533 
L 352.098299 258.520257 
L 353.682951 258.484391 
" clip-path="url(#p6e08f1a989)" style="fill: none; stroke: #1f77b4; stroke-opacity: 0.5; stroke-width: 0.2; stroke-linecap: square"/>
   <path d="M 290.098299 276.626667 
L 291.098299 276.658103 
L 292.098299 276.695043 
L 293.098299 276.79279 
L 294.098299 276.825311 
L 295.098299 276.898936 
L 296.098299 276.937502 
L 297.098299 276.972915 
L 298.098299 277.030555 
L 299.098299 277.100941 
L 300.098299 277.152905 
L 301.098299 277.211995 
L 302.098299 277.300316 
L 303.098299 277.34646 
L 304.098299 277.388871 
L 305.098299 277.419364 
L 306.098299 277.445409 
L 307.098299 277.466609 
L 308.098299 277.52091 
L 309.098299 277.548848 
L 310.098299 277.578572 
L 311.098299 277.603966 
L 312.098299 277.615167 
L 313.098299 277.625291 
L 314.098299 277.625086 
L 315.098299 277.615576 
L 316.098299 277.603923 
L 317.098299 277.572894 
L 318.098299 277.561726 
L 319.098299 277.531608 
L 320.098299 277.471831 
L 321.098299 277.43464 
L 322.098299 277.395544 
L 323.098299 277.353104 
L 324.098299 277.320339 
L 325.098299 277.252912 
L 326.098299 277.213786 
L 327.098299 277.171112 
L 328.098299 277.100531 
L 329.098299 277.06414 
L 330.098299 277.005737 
L 331.098299 276.894785 
L 332.098299 276.824126 
L 333.098299 276.711187 
L 334.098299 276.665414 
L 335.098299 276.60413 
L 336.098299 276.555631 
L 337.098299 276.474808 
L 338.098299 276.35629 
L 339.098299 276.286079 
L 340.098299 276.202816 
L 341.098299 276.169675 
L 342.098299 276.118437 
L 343.098299 276.050039 
L 344.098299 275.983824 
L 345.098299 275.906906 
L 346.098299 275.879591 
L 347.098299 275.853113 
L 348.098299 275.830463 
L 349.098299 275.810932 
L 350.098299 275.784538 
L 351.098299 275.734767 
L 352.098299 275.699694 
L 353.682951 275.663828 
" clip-path="url(#p6e08f1a989)" style="fill: none; stroke: #1f77b4; stroke-opacity: 0.5; stroke-width: 0.2; stroke-linecap: square"/>
   <path d="M 290.098299 271.223015 
L 291.098299 271.254452 
L 292.098299 271.291392 
L 293.098299 271.389139 
L 294.098299 271.42166 
L 295.098299 271.495285 
L 296.098299 271.533851 
L 297.098299 271.569264 
L 298.098299 271.626904 
L 299.098299 271.69729 
L 300.098299 271.749254 
L 301.098299 271.808344 
L 302.098299 271.896665 
L 303.098299 271.942809 
L 304.098299 271.98522 
L 305.098299 272.015713 
L 306.098299 272.041758 
L 307.098299 272.062958 
L 308.098299 272.117259 
L 309.098299 272.145196 
L 310.098299 272.17492 
L 311.098299 272.200315 
L 312.098299 272.211516 
L 313.098299 272.22164 
L 314.098299 272.221435 
L 315.098299 272.211925 
L 316.098299 272.200272 
L 317.098299 272.169242 
L 318.098299 272.158075 
L 319.098299 272.127957 
L 320.098299 272.06818 
L 321.098299 272.030989 
L 322.098299 271.991892 
L 323.098299 271.949453 
L 324.098299 271.916688 
L 325.098299 271.849261 
L 326.098299 271.810135 
L 327.098299 271.767461 
L 328.098299 271.69688 
L 329.098299 271.660489 
L 330.098299 271.602086 
L 331.098299 271.491134 
L 332.098299 271.420475 
L 333.098299 271.307535 
L 334.098299 271.261763 
L 335.098299 271.200479 
L 336.098299 271.15198 
L 337.098299 271.071157 
L 338.098299 270.952638 
L 339.098299 270.882428 
L 340.098299 270.799165 
L 341.098299 270.766024 
L 342.098299 270.714786 
L 343.098299 270.646388 
L 344.098299 270.580172 
L 345.098299 270.503255 
L 346.098299 270.47594 
L 347.098299 270.449462 
L 348.098299 270.426812 
L 349.098299 270.40728 
L 350.098299 270.380886 
L 351.098299 270.331116 
L 352.098299 270.296042 
L 353.682951 270.260177 
" clip-path="url(#p6e08f1a989)" style="fill: none; stroke: #1f77b4; stroke-opacity: 0.5; stroke-width: 0.2; stroke-linecap: square"/>
   <path d="M 290.098299 257.361795 
L 291.098299 257.393231 
L 292.098299 257.430171 
L 293.098299 257.527918 
L 294.098299 257.56044 
L 295.098299 257.634064 
L 296.098299 257.67263 
L 297.098299 257.708043 
L 298.098299 257.765683 
L 299.098299 257.836069 
L 300.098299 257.888033 
L 301.098299 257.947123 
L 302.098299 258.035444 
L 303.098299 258.081588 
L 304.098299 258.123999 
L 305.098299 258.154492 
L 306.098299 258.180537 
L 307.098299 258.201737 
L 308.098299 258.256038 
L 309.098299 258.283976 
L 310.098299 258.3137 
L 311.098299 258.339094 
L 312.098299 258.350295 
L 313.098299 258.360419 
L 314.098299 258.360214 
L 315.098299 258.350705 
L 316.098299 258.339051 
L 317.098299 258.308022 
L 318.098299 258.296854 
L 319.098299 258.266736 
L 320.098299 258.206959 
L 321.098299 258.169768 
L 322.098299 258.130672 
L 323.098299 258.088232 
L 324.098299 258.055467 
L 325.098299 257.988041 
L 326.098299 257.948915 
L 327.098299 257.90624 
L 328.098299 257.835659 
L 329.098299 257.799269 
L 330.098299 257.740865 
L 331.098299 257.629913 
L 332.098299 257.559255 
L 333.098299 257.446315 
L 334.098299 257.400542 
L 335.098299 257.339259 
L 336.098299 257.290759 
L 337.098299 257.209937 
L 338.098299 257.091418 
L 339.098299 257.021207 
L 340.098299 256.937945 
L 341.098299 256.904803 
L 342.098299 256.853565 
L 343.098299 256.785167 
L 344.098299 256.718952 
L 345.098299 256.642035 
L 346.098299 256.614719 
L 347.098299 256.588242 
L 348.098299 256.565591 
L 349.098299 256.54606 
L 350.098299 256.519666 
L 351.098299 256.469895 
L 352.098299 256.434822 
L 353.682951 256.398956 
" clip-path="url(#p6e08f1a989)" style="fill: none; stroke: #1f77b4; stroke-opacity: 0.5; stroke-width: 0.2; stroke-linecap: square"/>
   <path d="M 290.098299 276.712995 
L 291.098299 276.744432 
L 292.098299 276.781372 
L 293.098299 276.879119 
L 294.098299 276.91164 
L 295.098299 276.985265 
L 296.098299 277.023831 
L 297.098299 277.059244 
L 298.098299 277.116884 
L 299.098299 277.18727 
L 300.098299 277.239234 
L 301.098299 277.298324 
L 302.098299 277.386645 
L 303.098299 277.432789 
L 304.098299 277.4752 
L 305.098299 277.505693 
L 306.098299 277.531738 
L 307.098299 277.552938 
L 308.098299 277.607239 
L 309.098299 277.635176 
L 310.098299 277.6649 
L 311.098299 277.690295 
L 312.098299 277.701496 
L 313.098299 277.711619 
L 314.098299 277.711415 
L 315.098299 277.701905 
L 316.098299 277.690252 
L 317.098299 277.659222 
L 318.098299 277.648055 
L 319.098299 277.617937 
L 320.098299 277.55816 
L 321.098299 277.520969 
L 322.098299 277.481872 
L 323.098299 277.439433 
L 324.098299 277.406668 
L 325.098299 277.339241 
L 326.098299 277.300115 
L 327.098299 277.257441 
L 328.098299 277.18686 
L 329.098299 277.150469 
L 330.098299 277.092066 
L 331.098299 276.981114 
L 332.098299 276.910455 
L 333.098299 276.797515 
L 334.098299 276.751743 
L 335.098299 276.690459 
L 336.098299 276.64196 
L 337.098299 276.561137 
L 338.098299 276.442618 
L 339.098299 276.372408 
L 340.098299 276.289145 
L 341.098299 276.256003 
L 342.098299 276.204766 
L 343.098299 276.136368 
L 344.098299 276.070152 
L 345.098299 275.993235 
L 346.098299 275.96592 
L 347.098299 275.939442 
L 348.098299 275.916792 
L 349.098299 275.89726 
L 350.098299 275.870866 
L 351.098299 275.821096 
L 352.098299 275.786022 
L 353.682951 275.750157 
" clip-path="url(#p6e08f1a989)" style="fill: none; stroke: #1f77b4; stroke-opacity: 0.5; stroke-width: 0.2; stroke-linecap: square"/>
   <path d="M 290.098299 235.112825 
L 291.098299 235.144262 
L 292.098299 235.181202 
L 293.098299 235.278949 
L 294.098299 235.31147 
L 295.098299 235.385095 
L 296.098299 235.42366 
L 297.098299 235.459074 
L 298.098299 235.516713 
L 299.098299 235.5871 
L 300.098299 235.639064 
L 301.098299 235.698154 
L 302.098299 235.786475 
L 303.098299 235.832619 
L 304.098299 235.87503 
L 305.098299 235.905523 
L 306.098299 235.931567 
L 307.098299 235.952768 
L 308.098299 236.007069 
L 309.098299 236.035006 
L 310.098299 236.06473 
L 311.098299 236.090125 
L 312.098299 236.101325 
L 313.098299 236.111449 
L 314.098299 236.111245 
L 315.098299 236.101735 
L 316.098299 236.090082 
L 317.098299 236.059052 
L 318.098299 236.047884 
L 319.098299 236.017767 
L 320.098299 235.95799 
L 321.098299 235.920798 
L 322.098299 235.881702 
L 323.098299 235.839263 
L 324.098299 235.806498 
L 325.098299 235.739071 
L 326.098299 235.699945 
L 327.098299 235.657271 
L 328.098299 235.58669 
L 329.098299 235.550299 
L 330.098299 235.491896 
L 331.098299 235.380943 
L 332.098299 235.310285 
L 333.098299 235.197345 
L 334.098299 235.151572 
L 335.098299 235.090289 
L 336.098299 235.04179 
L 337.098299 234.960967 
L 338.098299 234.842448 
L 339.098299 234.772238 
L 340.098299 234.688975 
L 341.098299 234.655833 
L 342.098299 234.604596 
L 343.098299 234.536198 
L 344.098299 234.469982 
L 345.098299 234.393065 
L 346.098299 234.36575 
L 347.098299 234.339272 
L 348.098299 234.316622 
L 349.098299 234.29709 
L 350.098299 234.270696 
L 351.098299 234.220925 
L 352.098299 234.185852 
L 353.682951 234.149987 
" clip-path="url(#p6e08f1a989)" style="fill: none; stroke: #1f77b4; stroke-opacity: 0.5; stroke-width: 0.2; stroke-linecap: square"/>
   <g id="patch_3">
    <path d="M 69.06392 22.318125 
L 69.06392 318.021875 
M 284.536112 22.318125 
L 284.536112 318.021875 
" clip-path="url(#p6e08f1a989)" style="fill: none; stroke: #ffffff; stroke-width: 3; stroke-linejoin: miter"/>
    <path d="M 69.06392 22.318125 
L 69.06392 318.021875 
M 284.536112 22.318125 
L 284.536112 318.021875 
" clip-path="url(#p6e08f1a989)" style="fill: none; stroke: #1f77b4; stroke-linejoin: miter"/>
    <g id="PolyCollection_1">
     <path d="M 284.536112 22.318125 
L 69.06392 22.318125 
L 69.06392 318.021875 
L 284.536112 318.021875 
L 284.536112 318.021875 
L 284.536112 22.318125 
z
" clip-path="url(#p6e08f1a989)" style="fill: #1f77b4; fill-opacity: 0.5"/>
    </g>
    <g id="patch_4">
     <path d="M 359.245138 22.318125 
L 359.245138 318.021875 
M 574.71733 22.318125 
L 574.71733 318.021875 
" clip-path="url(#p6e08f1a989)" style="fill: none; stroke: #ffffff; stroke-width: 3; stroke-linejoin: miter"/>
     <path d="M 359.245138 22.318125 
L 359.245138 318.021875 
M 574.71733 22.318125 
L 574.71733 318.021875 
" clip-path="url(#p6e08f1a989)" style="fill: none; stroke: #ff7f0e; stroke-linejoin: miter"/>
     <g id="PolyCollection_2">
      <path d="M 574.71733 22.318125 
L 359.245138 22.318125 
L 359.245138 318.021875 
L 574.71733 318.021875 
L 574.71733 318.021875 
L 574.71733 22.318125 
z
" clip-path="url(#p6e08f1a989)" style="fill: #ff7f0e; fill-opacity: 0.5"/>
     </g>
     <g id="matplotlib.axis_1">
      <g id="xtick_1">
       <g id="line2d_1"/>
       <g id="text_1">
        <!-- deme0 -->
        <g transform="translate(159.42111 329.120312) scale(0.1 -0.1)">
         <defs>
          <path id="DejaVuSans-64" d="M 2906 2969 
L 2906 4863 
L 3481 4863 
L 3481 0 
L 2906 0 
L 2906 525 
Q 2725 213 2448 61 
Q 2172 -91 1784 -91 
Q 1150 -91 751 415 
Q 353 922 353 1747 
Q 353 2572 751 3078 
Q 1150 3584 1784 3584 
Q 2172 3584 2448 3432 
Q 2725 3281 2906 2969 
z
M 947 1747 
Q 947 1113 1208 752 
Q 1469 391 1925 391 
Q 2381 391 2643 752 
Q 2906 1113 2906 1747 
Q 2906 2381 2643 2742 
Q 2381 3103 1925 3103 
Q 1469 3103 1208 2742 
Q 947 2381 947 1747 
z
" transform="scale(0.015625)"/>
          <path id="DejaVuSans-65" d="M 3597 1894 
L 3597 1613 
L 953 1613 
Q 991 1019 1311 708 
Q 1631 397 2203 397 
Q 2534 397 2845 478 
Q 3156 559 3463 722 
L 3463 178 
Q 3153 47 2828 -22 
Q 2503 -91 2169 -91 
Q 1331 -91 842 396 
Q 353 884 353 1716 
Q 353 2575 817 3079 
Q 1281 3584 2069 3584 
Q 2775 3584 3186 3129 
Q 3597 2675 3597 1894 
z
M 3022 2063 
Q 3016 2534 2758 2815 
Q 2500 3097 2075 3097 
Q 1594 3097 1305 2825 
Q 1016 2553 972 2059 
L 3022 2063 
z
" transform="scale(0.015625)"/>
          <path id="DejaVuSans-6d" d="M 3328 2828 
Q 3544 3216 3844 3400 
Q 4144 3584 4550 3584 
Q 5097 3584 5394 3201 
Q 5691 2819 5691 2113 
L 5691 0 
L 5113 0 
L 5113 2094 
Q 5113 2597 4934 2840 
Q 4756 3084 4391 3084 
Q 3944 3084 3684 2787 
Q 3425 2491 3425 1978 
L 3425 0 
L 2847 0 
L 2847 2094 
Q 2847 2600 2669 2842 
Q 2491 3084 2119 3084 
Q 1678 3084 1418 2786 
Q 1159 2488 1159 1978 
L 1159 0 
L 581 0 
L 581 3500 
L 1159 3500 
L 1159 2956 
Q 1356 3278 1631 3431 
Q 1906 3584 2284 3584 
Q 2666 3584 2933 3390 
Q 3200 3197 3328 2828 
z
" transform="scale(0.015625)"/>
          <path id="DejaVuSans-30" d="M 2034 4250 
Q 1547 4250 1301 3770 
Q 1056 3291 1056 2328 
Q 1056 1369 1301 889 
Q 1547 409 2034 409 
Q 2525 409 2770 889 
Q 3016 1369 3016 2328 
Q 3016 3291 2770 3770 
Q 2525 4250 2034 4250 
z
M 2034 4750 
Q 2819 4750 3233 4129 
Q 3647 3509 3647 2328 
Q 3647 1150 3233 529 
Q 2819 -91 2034 -91 
Q 1250 -91 836 529 
Q 422 1150 422 2328 
Q 422 3509 836 4129 
Q 1250 4750 2034 4750 
z
" transform="scale(0.015625)"/>
         </defs>
         <use xlink:href="#DejaVuSans-64"/>
         <use xlink:href="#DejaVuSans-65" x="63.476562"/>
         <use xlink:href="#DejaVuSans-6d" x="125"/>
         <use xlink:href="#DejaVuSans-65" x="222.412109"/>
         <use xlink:href="#DejaVuSans-30" x="283.935547"/>
        </g>
       </g>
      </g>
      <g id="xtick_2">
       <g id="line2d_2"/>
       <g id="text_2">
        <!-- deme1 -->
        <g transform="translate(449.602328 329.120312) scale(0.1 -0.1)">
         <defs>
          <path id="DejaVuSans-31" d="M 794 531 
L 1825 531 
L 1825 4091 
L 703 3866 
L 703 4441 
L 1819 4666 
L 2450 4666 
L 2450 531 
L 3481 531 
L 3481 0 
L 794 0 
L 794 531 
z
" transform="scale(0.015625)"/>
         </defs>
         <use xlink:href="#DejaVuSans-64"/>
         <use xlink:href="#DejaVuSans-65" x="63.476562"/>
         <use xlink:href="#DejaVuSans-6d" x="125"/>
         <use xlink:href="#DejaVuSans-65" x="222.412109"/>
         <use xlink:href="#DejaVuSans-31" x="283.935547"/>
        </g>
       </g>
      </g>
     </g>
     <g id="matplotlib.axis_2">
      <g id="ytick_1">
       <g id="line2d_3">
        <defs>
         <path id="m94a13fcc99" d="M 0 0 
L -3.5 0 
" style="stroke: #000000; stroke-width: 0.8"/>
        </defs>
        <g>
         <use xlink:href="#m94a13fcc99" x="43.78125" y="318.021875" style="stroke: #000000; stroke-width: 0.8"/>
        </g>
       </g>
       <g id="text_3">
        <!-- 0.0 -->
        <g transform="translate(20.878125 321.821094) scale(0.1 -0.1)">
         <defs>
          <path id="DejaVuSans-2e" d="M 684 794 
L 1344 794 
L 1344 0 
L 684 0 
L 684 794 
z
" transform="scale(0.015625)"/>
         </defs>
         <use xlink:href="#DejaVuSans-30"/>
         <use xlink:href="#DejaVuSans-2e" x="63.623047"/>
         <use xlink:href="#DejaVuSans-30" x="95.410156"/>
        </g>
       </g>
      </g>
      <g id="ytick_2">
       <g id="line2d_4">
        <g>
         <use xlink:href="#m94a13fcc99" x="43.78125" y="258.881125" style="stroke: #000000; stroke-width: 0.8"/>
        </g>
       </g>
       <g id="text_4">
        <!-- 0.5 -->
        <g transform="translate(20.878125 262.680344) scale(0.1 -0.1)">
         <defs>
          <path id="DejaVuSans-35" d="M 691 4666 
L 3169 4666 
L 3169 4134 
L 1269 4134 
L 1269 2991 
Q 1406 3038 1543 3061 
Q 1681 3084 1819 3084 
Q 2600 3084 3056 2656 
Q 3513 2228 3513 1497 
Q 3513 744 3044 326 
Q 2575 -91 1722 -91 
Q 1428 -91 1123 -41 
Q 819 9 494 109 
L 494 744 
Q 775 591 1075 516 
Q 1375 441 1709 441 
Q 2250 441 2565 725 
Q 2881 1009 2881 1497 
Q 2881 1984 2565 2268 
Q 2250 2553 1709 2553 
Q 1456 2553 1204 2497 
Q 953 2441 691 2322 
L 691 4666 
z
" transform="scale(0.015625)"/>
         </defs>
         <use xlink:href="#DejaVuSans-30"/>
         <use xlink:href="#DejaVuSans-2e" x="63.623047"/>
         <use xlink:href="#DejaVuSans-35" x="95.410156"/>
        </g>
       </g>
      </g>
      <g id="ytick_3">
       <g id="line2d_5">
        <g>
         <use xlink:href="#m94a13fcc99" x="43.78125" y="199.740375" style="stroke: #000000; stroke-width: 0.8"/>
        </g>
       </g>
       <g id="text_5">
        <!-- 1.0 -->
        <g transform="translate(20.878125 203.539594) scale(0.1 -0.1)">
         <use xlink:href="#DejaVuSans-31"/>
         <use xlink:href="#DejaVuSans-2e" x="63.623047"/>
         <use xlink:href="#DejaVuSans-30" x="95.410156"/>
        </g>
       </g>
      </g>
      <g id="ytick_4">
       <g id="line2d_6">
        <g>
         <use xlink:href="#m94a13fcc99" x="43.78125" y="140.599625" style="stroke: #000000; stroke-width: 0.8"/>
        </g>
       </g>
       <g id="text_6">
        <!-- 1.5 -->
        <g transform="translate(20.878125 144.398844) scale(0.1 -0.1)">
         <use xlink:href="#DejaVuSans-31"/>
         <use xlink:href="#DejaVuSans-2e" x="63.623047"/>
         <use xlink:href="#DejaVuSans-35" x="95.410156"/>
        </g>
       </g>
      </g>
      <g id="ytick_5">
       <g id="line2d_7">
        <g>
         <use xlink:href="#m94a13fcc99" x="43.78125" y="81.458875" style="stroke: #000000; stroke-width: 0.8"/>
        </g>
       </g>
       <g id="text_7">
        <!-- 2.0 -->
        <g transform="translate(20.878125 85.258094) scale(0.1 -0.1)">
         <defs>
          <path id="DejaVuSans-32" d="M 1228 531 
L 3431 531 
L 3431 0 
L 469 0 
L 469 531 
Q 828 903 1448 1529 
Q 2069 2156 2228 2338 
Q 2531 2678 2651 2914 
Q 2772 3150 2772 3378 
Q 2772 3750 2511 3984 
Q 2250 4219 1831 4219 
Q 1534 4219 1204 4116 
Q 875 4013 500 3803 
L 500 4441 
Q 881 4594 1212 4672 
Q 1544 4750 1819 4750 
Q 2544 4750 2975 4387 
Q 3406 4025 3406 3419 
Q 3406 3131 3298 2873 
Q 3191 2616 2906 2266 
Q 2828 2175 2409 1742 
Q 1991 1309 1228 531 
z
" transform="scale(0.015625)"/>
         </defs>
         <use xlink:href="#DejaVuSans-32"/>
         <use xlink:href="#DejaVuSans-2e" x="63.623047"/>
         <use xlink:href="#DejaVuSans-30" x="95.410156"/>
        </g>
       </g>
      </g>
      <g id="ytick_6">
       <g id="line2d_8">
        <g>
         <use xlink:href="#m94a13fcc99" x="43.78125" y="22.318125" style="stroke: #000000; stroke-width: 0.8"/>
        </g>
       </g>
       <g id="text_8">
        <!-- 2.5 -->
        <g transform="translate(20.878125 26.117344) scale(0.1 -0.1)">
         <use xlink:href="#DejaVuSans-32"/>
         <use xlink:href="#DejaVuSans-2e" x="63.623047"/>
         <use xlink:href="#DejaVuSans-35" x="95.410156"/>
        </g>
       </g>
      </g>
      <g id="text_9">
       <!-- time ago (generations) -->
       <g transform="translate(14.798438 227.641094) rotate(-90) scale(0.1 -0.1)">
        <defs>
         <path id="DejaVuSans-74" d="M 1172 4494 
L 1172 3500 
L 2356 3500 
L 2356 3053 
L 1172 3053 
L 1172 1153 
Q 1172 725 1289 603 
Q 1406 481 1766 481 
L 2356 481 
L 2356 0 
L 1766 0 
Q 1100 0 847 248 
Q 594 497 594 1153 
L 594 3053 
L 172 3053 
L 172 3500 
L 594 3500 
L 594 4494 
L 1172 4494 
z
" transform="scale(0.015625)"/>
         <path id="DejaVuSans-69" d="M 603 3500 
L 1178 3500 
L 1178 0 
L 603 0 
L 603 3500 
z
M 603 4863 
L 1178 4863 
L 1178 4134 
L 603 4134 
L 603 4863 
z
" transform="scale(0.015625)"/>
         <path id="DejaVuSans-20" transform="scale(0.015625)"/>
         <path id="DejaVuSans-61" d="M 2194 1759 
Q 1497 1759 1228 1600 
Q 959 1441 959 1056 
Q 959 750 1161 570 
Q 1363 391 1709 391 
Q 2188 391 2477 730 
Q 2766 1069 2766 1631 
L 2766 1759 
L 2194 1759 
z
M 3341 1997 
L 3341 0 
L 2766 0 
L 2766 531 
Q 2569 213 2275 61 
Q 1981 -91 1556 -91 
Q 1019 -91 701 211 
Q 384 513 384 1019 
Q 384 1609 779 1909 
Q 1175 2209 1959 2209 
L 2766 2209 
L 2766 2266 
Q 2766 2663 2505 2880 
Q 2244 3097 1772 3097 
Q 1472 3097 1187 3025 
Q 903 2953 641 2809 
L 641 3341 
Q 956 3463 1253 3523 
Q 1550 3584 1831 3584 
Q 2591 3584 2966 3190 
Q 3341 2797 3341 1997 
z
" transform="scale(0.015625)"/>
         <path id="DejaVuSans-67" d="M 2906 1791 
Q 2906 2416 2648 2759 
Q 2391 3103 1925 3103 
Q 1463 3103 1205 2759 
Q 947 2416 947 1791 
Q 947 1169 1205 825 
Q 1463 481 1925 481 
Q 2391 481 2648 825 
Q 2906 1169 2906 1791 
z
M 3481 434 
Q 3481 -459 3084 -895 
Q 2688 -1331 1869 -1331 
Q 1566 -1331 1297 -1286 
Q 1028 -1241 775 -1147 
L 775 -588 
Q 1028 -725 1275 -790 
Q 1522 -856 1778 -856 
Q 2344 -856 2625 -561 
Q 2906 -266 2906 331 
L 2906 616 
Q 2728 306 2450 153 
Q 2172 0 1784 0 
Q 1141 0 747 490 
Q 353 981 353 1791 
Q 353 2603 747 3093 
Q 1141 3584 1784 3584 
Q 2172 3584 2450 3431 
Q 2728 3278 2906 2969 
L 2906 3500 
L 3481 3500 
L 3481 434 
z
" transform="scale(0.015625)"/>
         <path id="DejaVuSans-6f" d="M 1959 3097 
Q 1497 3097 1228 2736 
Q 959 2375 959 1747 
Q 959 1119 1226 758 
Q 1494 397 1959 397 
Q 2419 397 2687 759 
Q 2956 1122 2956 1747 
Q 2956 2369 2687 2733 
Q 2419 3097 1959 3097 
z
M 1959 3584 
Q 2709 3584 3137 3096 
Q 3566 2609 3566 1747 
Q 3566 888 3137 398 
Q 2709 -91 1959 -91 
Q 1206 -91 779 398 
Q 353 888 353 1747 
Q 353 2609 779 3096 
Q 1206 3584 1959 3584 
z
" transform="scale(0.015625)"/>
         <path id="DejaVuSans-28" d="M 1984 4856 
Q 1566 4138 1362 3434 
Q 1159 2731 1159 2009 
Q 1159 1288 1364 580 
Q 1569 -128 1984 -844 
L 1484 -844 
Q 1016 -109 783 600 
Q 550 1309 550 2009 
Q 550 2706 781 3412 
Q 1013 4119 1484 4856 
L 1984 4856 
z
" transform="scale(0.015625)"/>
         <path id="DejaVuSans-6e" d="M 3513 2113 
L 3513 0 
L 2938 0 
L 2938 2094 
Q 2938 2591 2744 2837 
Q 2550 3084 2163 3084 
Q 1697 3084 1428 2787 
Q 1159 2491 1159 1978 
L 1159 0 
L 581 0 
L 581 3500 
L 1159 3500 
L 1159 2956 
Q 1366 3272 1645 3428 
Q 1925 3584 2291 3584 
Q 2894 3584 3203 3211 
Q 3513 2838 3513 2113 
z
" transform="scale(0.015625)"/>
         <path id="DejaVuSans-72" d="M 2631 2963 
Q 2534 3019 2420 3045 
Q 2306 3072 2169 3072 
Q 1681 3072 1420 2755 
Q 1159 2438 1159 1844 
L 1159 0 
L 581 0 
L 581 3500 
L 1159 3500 
L 1159 2956 
Q 1341 3275 1631 3429 
Q 1922 3584 2338 3584 
Q 2397 3584 2469 3576 
Q 2541 3569 2628 3553 
L 2631 2963 
z
" transform="scale(0.015625)"/>
         <path id="DejaVuSans-73" d="M 2834 3397 
L 2834 2853 
Q 2591 2978 2328 3040 
Q 2066 3103 1784 3103 
Q 1356 3103 1142 2972 
Q 928 2841 928 2578 
Q 928 2378 1081 2264 
Q 1234 2150 1697 2047 
L 1894 2003 
Q 2506 1872 2764 1633 
Q 3022 1394 3022 966 
Q 3022 478 2636 193 
Q 2250 -91 1575 -91 
Q 1294 -91 989 -36 
Q 684 19 347 128 
L 347 722 
Q 666 556 975 473 
Q 1284 391 1588 391 
Q 1994 391 2212 530 
Q 2431 669 2431 922 
Q 2431 1156 2273 1281 
Q 2116 1406 1581 1522 
L 1381 1569 
Q 847 1681 609 1914 
Q 372 2147 372 2553 
Q 372 3047 722 3315 
Q 1072 3584 1716 3584 
Q 2034 3584 2315 3537 
Q 2597 3491 2834 3397 
z
" transform="scale(0.015625)"/>
         <path id="DejaVuSans-29" d="M 513 4856 
L 1013 4856 
Q 1481 4119 1714 3412 
Q 1947 2706 1947 2009 
Q 1947 1309 1714 600 
Q 1481 -109 1013 -844 
L 513 -844 
Q 928 -128 1133 580 
Q 1338 1288 1338 2009 
Q 1338 2731 1133 3434 
Q 928 4138 513 4856 
z
" transform="scale(0.015625)"/>
        </defs>
        <use xlink:href="#DejaVuSans-74"/>
        <use xlink:href="#DejaVuSans-69" x="39.208984"/>
        <use xlink:href="#DejaVuSans-6d" x="66.992188"/>
        <use xlink:href="#DejaVuSans-65" x="164.404297"/>
        <use xlink:href="#DejaVuSans-20" x="225.927734"/>
        <use xlink:href="#DejaVuSans-61" x="257.714844"/>
        <use xlink:href="#DejaVuSans-67" x="318.994141"/>
        <use xlink:href="#DejaVuSans-6f" x="382.470703"/>
        <use xlink:href="#DejaVuSans-20" x="443.652344"/>
        <use xlink:href="#DejaVuSans-28" x="475.439453"/>
        <use xlink:href="#DejaVuSans-67" x="514.453125"/>
        <use xlink:href="#DejaVuSans-65" x="577.929688"/>
        <use xlink:href="#DejaVuSans-6e" x="639.453125"/>
        <use xlink:href="#DejaVuSans-65" x="702.832031"/>
        <use xlink:href="#DejaVuSans-72" x="764.355469"/>
        <use xlink:href="#DejaVuSans-61" x="805.46875"/>
        <use xlink:href="#DejaVuSans-74" x="866.748047"/>
        <use xlink:href="#DejaVuSans-69" x="905.957031"/>
        <use xlink:href="#DejaVuSans-6f" x="933.740234"/>
        <use xlink:href="#DejaVuSans-6e" x="994.921875"/>
        <use xlink:href="#DejaVuSans-73" x="1058.300781"/>
        <use xlink:href="#DejaVuSans-29" x="1110.400391"/>
       </g>
      </g>
     </g>
     <path d="M 354.682951 92.161421 
L 352.682951 91.161421 
L 352.682951 93.161421 
z
" clip-path="url(#p6e08f1a989)" style="fill: #1f77b4; fill-opacity: 0.5; stroke: #1f77b4; stroke-opacity: 0.5; stroke-linejoin: miter"/>
     <path d="M 354.682951 141.45678 
L 352.682951 140.45678 
L 352.682951 142.45678 
z
" clip-path="url(#p6e08f1a989)" style="fill: #1f77b4; fill-opacity: 0.5; stroke: #1f77b4; stroke-opacity: 0.5; stroke-linejoin: miter"/>
     <path d="M 354.682951 168.017331 
L 352.682951 167.017331 
L 352.682951 169.017331 
z
" clip-path="url(#p6e08f1a989)" style="fill: #1f77b4; fill-opacity: 0.5; stroke: #1f77b4; stroke-opacity: 0.5; stroke-linejoin: miter"/>
     <path d="M 354.682951 109.928795 
L 352.682951 108.928795 
L 352.682951 110.928795 
z
" clip-path="url(#p6e08f1a989)" style="fill: #1f77b4; fill-opacity: 0.5; stroke: #1f77b4; stroke-opacity: 0.5; stroke-linejoin: miter"/>
     <path d="M 354.682951 112.797403 
L 352.682951 111.797403 
L 352.682951 113.797403 
z
" clip-path="url(#p6e08f1a989)" style="fill: #1f77b4; fill-opacity: 0.5; stroke: #1f77b4; stroke-opacity: 0.5; stroke-linejoin: miter"/>
     <path d="M 354.682951 186.516254 
L 352.682951 185.516254 
L 352.682951 187.516254 
z
" clip-path="url(#p6e08f1a989)" style="fill: #1f77b4; fill-opacity: 0.5; stroke: #1f77b4; stroke-opacity: 0.5; stroke-linejoin: miter"/>
     <path d="M 354.682951 84.218444 
L 352.682951 83.218444 
L 352.682951 85.218444 
z
" clip-path="url(#p6e08f1a989)" style="fill: #1f77b4; fill-opacity: 0.5; stroke: #1f77b4; stroke-opacity: 0.5; stroke-linejoin: miter"/>
     <path d="M 354.682951 81.548431 
L 352.682951 80.548431 
L 352.682951 82.548431 
z
" clip-path="url(#p6e08f1a989)" style="fill: #1f77b4; fill-opacity: 0.5; stroke: #1f77b4; stroke-opacity: 0.5; stroke-linejoin: miter"/>
     <path d="M 354.682951 119.595449 
L 352.682951 118.595449 
L 352.682951 120.595449 
z
" clip-path="url(#p6e08f1a989)" style="fill: #1f77b4; fill-opacity: 0.5; stroke: #1f77b4; stroke-opacity: 0.5; stroke-linejoin: miter"/>
     <path d="M 354.682951 103.358032 
L 352.682951 102.358032 
L 352.682951 104.358032 
z
" clip-path="url(#p6e08f1a989)" style="fill: #1f77b4; fill-opacity: 0.5; stroke: #1f77b4; stroke-opacity: 0.5; stroke-linejoin: miter"/>
     <path d="M 354.682951 213.928945 
L 352.682951 212.928945 
L 352.682951 214.928945 
z
" clip-path="url(#p6e08f1a989)" style="fill: #1f77b4; fill-opacity: 0.5; stroke: #1f77b4; stroke-opacity: 0.5; stroke-linejoin: miter"/>
     <path d="M 354.682951 249.947589 
L 352.682951 248.947589 
L 352.682951 250.947589 
z
" clip-path="url(#p6e08f1a989)" style="fill: #1f77b4; fill-opacity: 0.5; stroke: #1f77b4; stroke-opacity: 0.5; stroke-linejoin: miter"/>
     <path d="M 354.682951 300.677317 
L 352.682951 299.677317 
L 352.682951 301.677317 
z
" clip-path="url(#p6e08f1a989)" style="fill: #1f77b4; fill-opacity: 0.5; stroke: #1f77b4; stroke-opacity: 0.5; stroke-linejoin: miter"/>
     <path d="M 354.682951 215.629685 
L 352.682951 214.629685 
L 352.682951 216.629685 
z
" clip-path="url(#p6e08f1a989)" style="fill: #1f77b4; fill-opacity: 0.5; stroke: #1f77b4; stroke-opacity: 0.5; stroke-linejoin: miter"/>
     <path d="M 354.682951 259.44723 
L 352.682951 258.44723 
L 352.682951 260.44723 
z
" clip-path="url(#p6e08f1a989)" style="fill: #1f77b4; fill-opacity: 0.5; stroke: #1f77b4; stroke-opacity: 0.5; stroke-linejoin: miter"/>
     <path d="M 354.682951 276.626667 
L 352.682951 275.626667 
L 352.682951 277.626667 
z
" clip-path="url(#p6e08f1a989)" style="fill: #1f77b4; fill-opacity: 0.5; stroke: #1f77b4; stroke-opacity: 0.5; stroke-linejoin: miter"/>
     <path d="M 354.682951 271.223015 
L 352.682951 270.223015 
L 352.682951 272.223015 
z
" clip-path="url(#p6e08f1a989)" style="fill: #1f77b4; fill-opacity: 0.5; stroke: #1f77b4; stroke-opacity: 0.5; stroke-linejoin: miter"/>
     <path d="M 354.682951 257.361795 
L 352.682951 256.361795 
L 352.682951 258.361795 
z
" clip-path="url(#p6e08f1a989)" style="fill: #1f77b4; fill-opacity: 0.5; stroke: #1f77b4; stroke-opacity: 0.5; stroke-linejoin: miter"/>
     <path d="M 354.682951 276.712995 
L 352.682951 275.712995 
L 352.682951 277.712995 
z
" clip-path="url(#p6e08f1a989)" style="fill: #1f77b4; fill-opacity: 0.5; stroke: #1f77b4; stroke-opacity: 0.5; stroke-linejoin: miter"/>
     <path d="M 354.682951 235.112825 
L 352.682951 234.112825 
L 352.682951 236.112825 
z
" clip-path="url(#p6e08f1a989)" style="fill: #1f77b4; fill-opacity: 0.5; stroke: #1f77b4; stroke-opacity: 0.5; stroke-linejoin: miter"/>
     <g id="patch_5">
      <path d="M 43.78125 318.021875 
L 43.78125 22.318125 
" style="fill: none; stroke: #000000; stroke-width: 0.8; stroke-linejoin: miter; stroke-linecap: square"/>
     </g>
     <g id="text_10">
      <!-- defaults_asymmetric_migration_changing_rate.yaml -->
      <g transform="translate(164.675625 16.318125) scale(0.12 -0.12)">
       <defs>
        <path id="DejaVuSans-66" d="M 2375 4863 
L 2375 4384 
L 1825 4384 
Q 1516 4384 1395 4259 
Q 1275 4134 1275 3809 
L 1275 3500 
L 2222 3500 
L 2222 3053 
L 1275 3053 
L 1275 0 
L 697 0 
L 697 3053 
L 147 3053 
L 147 3500 
L 697 3500 
L 697 3744 
Q 697 4328 969 4595 
Q 1241 4863 1831 4863 
L 2375 4863 
z
" transform="scale(0.015625)"/>
        <path id="DejaVuSans-75" d="M 544 1381 
L 544 3500 
L 1119 3500 
L 1119 1403 
Q 1119 906 1312 657 
Q 1506 409 1894 409 
Q 2359 409 2629 706 
Q 2900 1003 2900 1516 
L 2900 3500 
L 3475 3500 
L 3475 0 
L 2900 0 
L 2900 538 
Q 2691 219 2414 64 
Q 2138 -91 1772 -91 
Q 1169 -91 856 284 
Q 544 659 544 1381 
z
M 1991 3584 
L 1991 3584 
z
" transform="scale(0.015625)"/>
        <path id="DejaVuSans-6c" d="M 603 4863 
L 1178 4863 
L 1178 0 
L 603 0 
L 603 4863 
z
" transform="scale(0.015625)"/>
        <path id="DejaVuSans-5f" d="M 3263 -1063 
L 3263 -1509 
L -63 -1509 
L -63 -1063 
L 3263 -1063 
z
" transform="scale(0.015625)"/>
        <path id="DejaVuSans-79" d="M 2059 -325 
Q 1816 -950 1584 -1140 
Q 1353 -1331 966 -1331 
L 506 -1331 
L 506 -850 
L 844 -850 
Q 1081 -850 1212 -737 
Q 1344 -625 1503 -206 
L 1606 56 
L 191 3500 
L 800 3500 
L 1894 763 
L 2988 3500 
L 3597 3500 
L 2059 -325 
z
" transform="scale(0.015625)"/>
        <path id="DejaVuSans-63" d="M 3122 3366 
L 3122 2828 
Q 2878 2963 2633 3030 
Q 2388 3097 2138 3097 
Q 1578 3097 1268 2742 
Q 959 2388 959 1747 
Q 959 1106 1268 751 
Q 1578 397 2138 397 
Q 2388 397 2633 464 
Q 2878 531 3122 666 
L 3122 134 
Q 2881 22 2623 -34 
Q 2366 -91 2075 -91 
Q 1284 -91 818 406 
Q 353 903 353 1747 
Q 353 2603 823 3093 
Q 1294 3584 2113 3584 
Q 2378 3584 2631 3529 
Q 2884 3475 3122 3366 
z
" transform="scale(0.015625)"/>
        <path id="DejaVuSans-68" d="M 3513 2113 
L 3513 0 
L 2938 0 
L 2938 2094 
Q 2938 2591 2744 2837 
Q 2550 3084 2163 3084 
Q 1697 3084 1428 2787 
Q 1159 2491 1159 1978 
L 1159 0 
L 581 0 
L 581 4863 
L 1159 4863 
L 1159 2956 
Q 1366 3272 1645 3428 
Q 1925 3584 2291 3584 
Q 2894 3584 3203 3211 
Q 3513 2838 3513 2113 
z
" transform="scale(0.015625)"/>
       </defs>
       <use xlink:href="#DejaVuSans-64"/>
       <use xlink:href="#DejaVuSans-65" x="63.476562"/>
       <use xlink:href="#DejaVuSans-66" x="125"/>
       <use xlink:href="#DejaVuSans-61" x="160.205078"/>
       <use xlink:href="#DejaVuSans-75" x="221.484375"/>
       <use xlink:href="#DejaVuSans-6c" x="284.863281"/>
       <use xlink:href="#DejaVuSans-74" x="312.646484"/>
       <use xlink:href="#DejaVuSans-73" x="351.855469"/>
       <use xlink:href="#DejaVuSans-5f" x="403.955078"/>
       <use xlink:href="#DejaVuSans-61" x="453.955078"/>
       <use xlink:href="#DejaVuSans-73" x="515.234375"/>
       <use xlink:href="#DejaVuSans-79" x="567.333984"/>
       <use xlink:href="#DejaVuSans-6d" x="626.513672"/>
       <use xlink:href="#DejaVuSans-6d" x="723.925781"/>
       <use xlink:href="#DejaVuSans-65" x="821.337891"/>
       <use xlink:href="#DejaVuSans-74" x="882.861328"/>
       <use xlink:href="#DejaVuSans-72" x="922.070312"/>
       <use xlink:href="#DejaVuSans-69" x="963.183594"/>
       <use xlink:href="#DejaVuSans-63" x="990.966797"/>
       <use xlink:href="#DejaVuSans-5f" x="1045.947266"/>
       <use xlink:href="#DejaVuSans-6d" x="1095.947266"/>
       <use xlink:href="#DejaVuSans-69" x="1193.359375"/>
       <use xlink:href="#DejaVuSans-67" x="1221.142578"/>
       <use xlink:href="#DejaVuSans-72" x="1284.619141"/>
       <use xlink:href="#DejaVuSans-61" x="1325.732422"/>
       <use xlink:href="#DejaVuSans-74" x="1387.011719"/>
       <use xlink:href="#DejaVuSans-69" x="1426.220703"/>
       <use xlink:href="#DejaVuSans-6f" x="1454.003906"/>
       <use xlink:href="#DejaVuSans-6e" x="1515.185547"/>
       <use xlink:href="#DejaVuSans-5f" x="1578.564453"/>
       <use xlink:href="#DejaVuSans-63" x="1628.564453"/>
       <use xlink:href="#DejaVuSans-68" x="1683.544922"/>
       <use xlink:href="#DejaVuSans-61" x="1746.923828"/>
       <use xlink:href="#DejaVuSans-6e" x="1808.203125"/>
       <use xlink:href="#DejaVuSans-67" x="1871.582031"/>
       <use xlink:href="#DejaVuSans-69" x="1935.058594"/>
       <use xlink:href="#DejaVuSans-6e" x="1962.841797"/>
       <use xlink:href="#DejaVuSans-67" x="2026.220703"/>
       <use xlink:href="#DejaVuSans-5f" x="2089.697266"/>
       <use xlink:href="#DejaVuSans-72" x="2139.697266"/>
       <use xlink:href="#DejaVuSans-61" x="2180.810547"/>
       <use xlink:href="#DejaVuSans-74" x="2242.089844"/>
       <use xlink:href="#DejaVuSans-65" x="2281.298828"/>
       <use xlink:href="#DejaVuSans-2e" x="2342.822266"/>
       <use xlink:href="#DejaVuSans-79" x="2374.609375"/>
       <use xlink:href="#DejaVuSans-61" x="2433.789062"/>
       <use xlink:href="#DejaVuSans-6d" x="2495.068359"/>
       <use xlink:href="#DejaVuSans-6c" x="2592.480469"/>
      </g>
     </g>
    </g>
   </g>
   <defs>
    <clipPath id="p6e08f1a989">
     <rect x="43.78125" y="22.318125" width="556.21875" height="295.70375"/>
    </clipPath>
   </defs>
  </g>
 </g>
</svg>