<?xml version="1.0" encoding="utf-8" standalone="no"?>
<!DOCTYPE svg PUBLIC "-//W3C//DTD SVG 1.1//EN"
  "http://www.w3.org/Graphics/SVG/1.1/DTD/svg11.dtd">
<svg xmlns:xlink="http://www.w3.org/1999/xlink" width="607.2pt" height="338.4pt" viewBox="0 0 607.2 338.4" xmlns="http://www.w3.org/2000/svg" version="1.1">
 <metadata>
  <rdf:RDF xmlns:dc="http://purl.org/dc/elements/1.1/" xmlns:cc="http://creativecommons.org/ns#" xmlns:rdf="http://www.w3.org/1999/02/22-rdf-syntax-ns#">
   <cc:Work>
    <dc:type rdf:resource="http://purl.org/dc/dcmitype/StillImage"/>
    <dc:date>2024-01-22T08:46:38.985668</dc:date>
    <dc:format>image/svg+xml</dc:format>
    <dc:creator>
     <cc:Agent>
      <dc:title>Matplotlib v3.7.2, https://matplotlib.org/</dc:title>
     </cc:Agent>
    </dc:creator>
   </cc:Work>
  </rdf:RDF>
 </metadata>
 <defs>
  <style type="text/css">*{stroke-linejoin: round; stroke-linecap: butt}</style>
 </defs>
 <g id="figure_1">
  <g id="patch_1">
   <path d="M 0 338.4 
L 607.2 338.4 
L 607.2 0 
L 0 0 
z
" style="fill: #ffffff"/>
  </g>
  <g id="axes_1">
   <g id="patch_2">
    <path d="M 46.965625 318.021875 
L 600 318.021875 
L 600 22.318125 
L 46.965625 22.318125 
z
" style="fill: #ffffff"/>
   </g>
   <path d="M 200.299442 24.066888 
L 201.299442 24.098324 
L 202.299442 24.135264 
L 203.299442 24.233011 
L 204.299442 24.265533 
L 205.299442 24.339157 
L 206.299442 24.377723 
L 207.299442 24.413136 
L 208.299442 24.470776 
L 209.299442 24.541162 
L 210.299442 24.593126 
L 211.299442 24.652216 
L 212.299442 24.740537 
L 213.299442 24.786681 
L 214.299442 24.829092 
L 215.299442 24.859585 
L 216.299442 24.88563 
L 217.299442 24.90683 
L 218.299442 24.961131 
L 219.299442 24.989069 
L 220.299442 25.018793 
L 221.299442 25.044187 
L 222.299442 25.055388 
L 223.299442 25.065512 
L 224.299442 25.065308 
L 225.299442 25.055798 
L 226.299442 25.044144 
L 227.299442 25.013115 
L 228.299442 25.001947 
L 229.299442 24.971829 
L 230.299442 24.912052 
L 231.299442 24.874861 
L 232.299442 24.835765 
L 233.299442 24.793325 
L 234.299442 24.76056 
L 235.299442 24.693134 
L 236.299442 24.654008 
L 237.299442 24.611333 
L 238.299442 24.540753 
L 239.299442 24.504362 
L 240.299442 24.445958 
L 241.299442 24.335006 
L 242.299442 24.264348 
L 243.299442 24.151408 
L 244.299442 24.105635 
L 245.299442 24.044352 
L 246.299442 23.995852 
L 247.299442 23.91503 
L 248.299442 23.796511 
L 249.299442 23.7263 
L 250.299442 23.643038 
L 251.299442 23.609896 
L 252.299442 23.558659 
L 253.299442 23.49026 
L 254.299442 23.424045 
L 255.299442 23.347128 
L 256.619695 23.319812 
" clip-path="url(#pc7d99c1850)" style="fill: none; stroke: #1f77b4; stroke-opacity: 0.5; stroke-width: 0.2; stroke-linecap: square"/>
   <path d="M 200.299442 55.364209 
L 201.299442 55.395646 
L 202.299442 55.432586 
L 203.299442 55.530333 
L 204.299442 55.562854 
L 205.299442 55.636479 
L 206.299442 55.675045 
L 207.299442 55.710458 
L 208.299442 55.768098 
L 209.299442 55.838484 
L 210.299442 55.890448 
L 211.299442 55.949538 
L 212.299442 56.037859 
L 213.299442 56.084003 
L 214.299442 56.126414 
L 215.299442 56.156907 
L 216.299442 56.182952 
L 217.299442 56.204152 
L 218.299442 56.258453 
L 219.299442 56.28639 
L 220.299442 56.316114 
L 221.299442 56.341509 
L 222.299442 56.35271 
L 223.299442 56.362833 
L 224.299442 56.362629 
L 225.299442 56.353119 
L 226.299442 56.341466 
L 227.299442 56.310436 
L 228.299442 56.299269 
L 229.299442 56.269151 
L 230.299442 56.209374 
L 231.299442 56.172183 
L 232.299442 56.133086 
L 233.299442 56.090647 
L 234.299442 56.057882 
L 235.299442 55.990455 
L 236.299442 55.951329 
L 237.299442 55.908655 
L 238.299442 55.838074 
L 239.299442 55.801683 
L 240.299442 55.74328 
L 241.299442 55.632328 
L 242.299442 55.561669 
L 243.299442 55.448729 
L 244.299442 55.402957 
L 245.299442 55.341673 
L 246.299442 55.293174 
L 247.299442 55.212351 
L 248.299442 55.093832 
L 249.299442 55.023622 
L 250.299442 54.940359 
L 251.299442 54.907217 
L 252.299442 54.85598 
L 253.299442 54.787582 
L 254.299442 54.721366 
L 255.299442 54.644449 
L 256.619695 54.617134 
" clip-path="url(#pc7d99c1850)" style="fill: none; stroke: #1f77b4; stroke-opacity: 0.5; stroke-width: 0.2; stroke-linecap: square"/>
   <path d="M 200.299442 29.258895 
L 201.299442 29.290331 
L 202.299442 29.327272 
L 203.299442 29.425018 
L 204.299442 29.45754 
L 205.299442 29.531164 
L 206.299442 29.56973 
L 207.299442 29.605143 
L 208.299442 29.662783 
L 209.299442 29.733169 
L 210.299442 29.785133 
L 211.299442 29.844223 
L 212.299442 29.932544 
L 213.299442 29.978688 
L 214.299442 30.021099 
L 215.299442 30.051592 
L 216.299442 30.077637 
L 217.299442 30.098837 
L 218.299442 30.153138 
L 219.299442 30.181076 
L 220.299442 30.2108 
L 221.299442 30.236195 
L 222.299442 30.247395 
L 223.299442 30.257519 
L 224.299442 30.257315 
L 225.299442 30.247805 
L 226.299442 30.236151 
L 227.299442 30.205122 
L 228.299442 30.193954 
L 229.299442 30.163836 
L 230.299442 30.104059 
L 231.299442 30.066868 
L 232.299442 30.027772 
L 233.299442 29.985332 
L 234.299442 29.952567 
L 235.299442 29.885141 
L 236.299442 29.846015 
L 237.299442 29.80334 
L 238.299442 29.73276 
L 239.299442 29.696369 
L 240.299442 29.637966 
L 241.299442 29.527013 
L 242.299442 29.456355 
L 243.299442 29.343415 
L 244.299442 29.297642 
L 245.299442 29.236359 
L 246.299442 29.187859 
L 247.299442 29.107037 
L 248.299442 28.988518 
L 249.299442 28.918307 
L 250.299442 28.835045 
L 251.299442 28.801903 
L 252.299442 28.750666 
L 253.299442 28.682267 
L 254.299442 28.616052 
L 255.299442 28.539135 
L 256.619695 28.511819 
" clip-path="url(#pc7d99c1850)" style="fill: none; stroke: #1f77b4; stroke-opacity: 0.5; stroke-width: 0.2; stroke-linecap: square"/>
   <path d="M 200.299442 120.176424 
L 201.299442 120.20786 
L 202.299442 120.244801 
L 203.299442 120.342547 
L 204.299442 120.375069 
L 205.299442 120.448693 
L 206.299442 120.487259 
L 207.299442 120.522672 
L 208.299442 120.580312 
L 209.299442 120.650698 
L 210.299442 120.702663 
L 211.299442 120.761752 
L 212.299442 120.850073 
L 213.299442 120.896218 
L 214.299442 120.938628 
L 215.299442 120.969121 
L 216.299442 120.995166 
L 217.299442 121.016366 
L 218.299442 121.070667 
L 219.299442 121.098605 
L 220.299442 121.128329 
L 221.299442 121.153724 
L 222.299442 121.164924 
L 223.299442 121.175048 
L 224.299442 121.174844 
L 225.299442 121.165334 
L 226.299442 121.15368 
L 227.299442 121.122651 
L 228.299442 121.111483 
L 229.299442 121.081366 
L 230.299442 121.021589 
L 231.299442 120.984397 
L 232.299442 120.945301 
L 233.299442 120.902861 
L 234.299442 120.870096 
L 235.299442 120.80267 
L 236.299442 120.763544 
L 237.299442 120.720869 
L 238.299442 120.650289 
L 239.299442 120.613898 
L 240.299442 120.555495 
L 241.299442 120.444542 
L 242.299442 120.373884 
L 243.299442 120.260944 
L 244.299442 120.215171 
L 245.299442 120.153888 
L 246.299442 120.105388 
L 247.299442 120.024566 
L 248.299442 119.906047 
L 249.299442 119.835836 
L 250.299442 119.752574 
L 251.299442 119.719432 
L 252.299442 119.668195 
L 253.299442 119.599796 
L 254.299442 119.533581 
L 255.299442 119.456664 
L 256.619695 119.429348 
" clip-path="url(#pc7d99c1850)" style="fill: none; stroke: #1f77b4; stroke-opacity: 0.5; stroke-width: 0.2; stroke-linecap: square"/>
   <path d="M 200.299442 85.690929 
L 201.299442 85.722365 
L 202.299442 85.759305 
L 203.299442 85.857052 
L 204.299442 85.889574 
L 205.299442 85.963198 
L 206.299442 86.001764 
L 207.299442 86.037177 
L 208.299442 86.094817 
L 209.299442 86.165203 
L 210.299442 86.217167 
L 211.299442 86.276257 
L 212.299442 86.364578 
L 213.299442 86.410722 
L 214.299442 86.453133 
L 215.299442 86.483626 
L 216.299442 86.509671 
L 217.299442 86.530871 
L 218.299442 86.585172 
L 219.299442 86.61311 
L 220.299442 86.642834 
L 221.299442 86.668228 
L 222.299442 86.679429 
L 223.299442 86.689553 
L 224.299442 86.689348 
L 225.299442 86.679839 
L 226.299442 86.668185 
L 227.299442 86.637156 
L 228.299442 86.625988 
L 229.299442 86.59587 
L 230.299442 86.536093 
L 231.299442 86.498902 
L 232.299442 86.459806 
L 233.299442 86.417366 
L 234.299442 86.384601 
L 235.299442 86.317175 
L 236.299442 86.278049 
L 237.299442 86.235374 
L 238.299442 86.164793 
L 239.299442 86.128403 
L 240.299442 86.069999 
L 241.299442 85.959047 
L 242.299442 85.888389 
L 243.299442 85.775449 
L 244.299442 85.729676 
L 245.299442 85.668393 
L 246.299442 85.619893 
L 247.299442 85.539071 
L 248.299442 85.420552 
L 249.299442 85.350341 
L 250.299442 85.267079 
L 251.299442 85.233937 
L 252.299442 85.182699 
L 253.299442 85.114301 
L 254.299442 85.048086 
L 255.299442 84.971169 
L 256.619695 84.943853 
" clip-path="url(#pc7d99c1850)" style="fill: none; stroke: #1f77b4; stroke-opacity: 0.5; stroke-width: 0.2; stroke-linecap: square"/>
   <path d="M 200.299442 150.429283 
L 201.299442 150.460719 
L 202.299442 150.49766 
L 203.299442 150.595406 
L 204.299442 150.627928 
L 205.299442 150.701553 
L 206.299442 150.740118 
L 207.299442 150.775531 
L 208.299442 150.833171 
L 209.299442 150.903558 
L 210.299442 150.955522 
L 211.299442 151.014612 
L 212.299442 151.102932 
L 213.299442 151.149077 
L 214.299442 151.191488 
L 215.299442 151.22198 
L 216.299442 151.248025 
L 217.299442 151.269225 
L 218.299442 151.323527 
L 219.299442 151.351464 
L 220.299442 151.381188 
L 221.299442 151.406583 
L 222.299442 151.417783 
L 223.299442 151.427907 
L 224.299442 151.427703 
L 225.299442 151.418193 
L 226.299442 151.406539 
L 227.299442 151.37551 
L 228.299442 151.364342 
L 229.299442 151.334225 
L 230.299442 151.274448 
L 231.299442 151.237256 
L 232.299442 151.19816 
L 233.299442 151.155721 
L 234.299442 151.122955 
L 235.299442 151.055529 
L 236.299442 151.016403 
L 237.299442 150.973729 
L 238.299442 150.903148 
L 239.299442 150.866757 
L 240.299442 150.808354 
L 241.299442 150.697401 
L 242.299442 150.626743 
L 243.299442 150.513803 
L 244.299442 150.46803 
L 245.299442 150.406747 
L 246.299442 150.358248 
L 247.299442 150.277425 
L 248.299442 150.158906 
L 249.299442 150.088695 
L 250.299442 150.005433 
L 251.299442 149.972291 
L 252.299442 149.921054 
L 253.299442 149.852656 
L 254.299442 149.78644 
L 255.299442 149.709523 
L 256.619695 149.682208 
" clip-path="url(#pc7d99c1850)" style="fill: none; stroke: #1f77b4; stroke-opacity: 0.5; stroke-width: 0.2; stroke-linecap: square"/>
   <path d="M 200.299442 109.497652 
L 201.299442 109.529088 
L 202.299442 109.566028 
L 203.299442 109.663775 
L 204.299442 109.696297 
L 205.299442 109.769921 
L 206.299442 109.808487 
L 207.299442 109.8439 
L 208.299442 109.90154 
L 209.299442 109.971926 
L 210.299442 110.02389 
L 211.299442 110.08298 
L 212.299442 110.171301 
L 213.299442 110.217445 
L 214.299442 110.259856 
L 215.299442 110.290349 
L 216.299442 110.316394 
L 217.299442 110.337594 
L 218.299442 110.391895 
L 219.299442 110.419833 
L 220.299442 110.449557 
L 221.299442 110.474951 
L 222.299442 110.486152 
L 223.299442 110.496276 
L 224.299442 110.496071 
L 225.299442 110.486562 
L 226.299442 110.474908 
L 227.299442 110.443879 
L 228.299442 110.432711 
L 229.299442 110.402593 
L 230.299442 110.342816 
L 231.299442 110.305625 
L 232.299442 110.266529 
L 233.299442 110.224089 
L 234.299442 110.191324 
L 235.299442 110.123898 
L 236.299442 110.084772 
L 237.299442 110.042097 
L 238.299442 109.971517 
L 239.299442 109.935126 
L 240.299442 109.876722 
L 241.299442 109.76577 
L 242.299442 109.695112 
L 243.299442 109.582172 
L 244.299442 109.536399 
L 245.299442 109.475116 
L 246.299442 109.426616 
L 247.299442 109.345794 
L 248.299442 109.227275 
L 249.299442 109.157064 
L 250.299442 109.073802 
L 251.299442 109.04066 
L 252.299442 108.989423 
L 253.299442 108.921024 
L 254.299442 108.854809 
L 255.299442 108.777892 
L 256.619695 108.750576 
" clip-path="url(#pc7d99c1850)" style="fill: none; stroke: #1f77b4; stroke-opacity: 0.5; stroke-width: 0.2; stroke-linecap: square"/>
   <path d="M 200.299442 258.914264 
L 201.299442 258.9457 
L 202.299442 258.98264 
L 203.299442 259.080387 
L 204.299442 259.112909 
L 205.299442 259.186533 
L 206.299442 259.225099 
L 207.299442 259.260512 
L 208.299442 259.318152 
L 209.299442 259.388538 
L 210.299442 259.440502 
L 211.299442 259.499592 
L 212.299442 259.587913 
L 213.299442 259.634057 
L 214.299442 259.676468 
L 215.299442 259.706961 
L 216.299442 259.733006 
L 217.299442 259.754206 
L 218.299442 259.808507 
L 219.299442 259.836445 
L 220.299442 259.866169 
L 221.299442 259.891563 
L 222.299442 259.902764 
L 223.299442 259.912888 
L 224.299442 259.912684 
L 225.299442 259.903174 
L 226.299442 259.89152 
L 227.299442 259.860491 
L 228.299442 259.849323 
L 229.299442 259.819205 
L 230.299442 259.759428 
L 231.299442 259.722237 
L 232.299442 259.683141 
L 233.299442 259.640701 
L 234.299442 259.607936 
L 235.299442 259.54051 
L 236.299442 259.501384 
L 237.299442 259.458709 
L 238.299442 259.388129 
L 239.299442 259.351738 
L 240.299442 259.293334 
L 241.299442 259.182382 
L 242.299442 259.111724 
L 243.299442 258.998784 
L 244.299442 258.953011 
L 245.299442 258.891728 
L 246.299442 258.843228 
L 247.299442 258.762406 
L 248.299442 258.643887 
L 249.299442 258.573676 
L 250.299442 258.490414 
L 251.299442 258.457272 
L 252.299442 258.406035 
L 253.299442 258.337636 
L 254.299442 258.271421 
L 255.299442 258.194504 
L 256.619695 258.167188 
" clip-path="url(#pc7d99c1850)" style="fill: none; stroke: #1f77b4; stroke-opacity: 0.5; stroke-width: 0.2; stroke-linecap: square"/>
   <path d="M 200.299442 124.397774 
L 201.299442 124.429211 
L 202.299442 124.466151 
L 203.299442 124.563898 
L 204.299442 124.596419 
L 205.299442 124.670044 
L 206.299442 124.70861 
L 207.299442 124.744023 
L 208.299442 124.801663 
L 209.299442 124.872049 
L 210.299442 124.924013 
L 211.299442 124.983103 
L 212.299442 125.071424 
L 213.299442 125.117568 
L 214.299442 125.159979 
L 215.299442 125.190472 
L 216.299442 125.216517 
L 217.299442 125.237717 
L 218.299442 125.292018 
L 219.299442 125.319955 
L 220.299442 125.349679 
L 221.299442 125.375074 
L 222.299442 125.386275 
L 223.299442 125.396399 
L 224.299442 125.396194 
L 225.299442 125.386684 
L 226.299442 125.375031 
L 227.299442 125.344002 
L 228.299442 125.332834 
L 229.299442 125.302716 
L 230.299442 125.242939 
L 231.299442 125.205748 
L 232.299442 125.166652 
L 233.299442 125.124212 
L 234.299442 125.091447 
L 235.299442 125.02402 
L 236.299442 124.984894 
L 237.299442 124.94222 
L 238.299442 124.871639 
L 239.299442 124.835248 
L 240.299442 124.776845 
L 241.299442 124.665893 
L 242.299442 124.595234 
L 243.299442 124.482295 
L 244.299442 124.436522 
L 245.299442 124.375238 
L 246.299442 124.326739 
L 247.299442 124.245916 
L 248.299442 124.127397 
L 249.299442 124.057187 
L 250.299442 123.973924 
L 251.299442 123.940783 
L 252.299442 123.889545 
L 253.299442 123.821147 
L 254.299442 123.754931 
L 255.299442 123.678014 
L 256.619695 123.650699 
" clip-path="url(#pc7d99c1850)" style="fill: none; stroke: #1f77b4; stroke-opacity: 0.5; stroke-width: 0.2; stroke-linecap: square"/>
   <path d="M 200.299442 217.973208 
L 201.299442 218.004644 
L 202.299442 218.041585 
L 203.299442 218.139331 
L 204.299442 218.171853 
L 205.299442 218.245477 
L 206.299442 218.284043 
L 207.299442 218.319456 
L 208.299442 218.377096 
L 209.299442 218.447482 
L 210.299442 218.499446 
L 211.299442 218.558536 
L 212.299442 218.646857 
L 213.299442 218.693001 
L 214.299442 218.735412 
L 215.299442 218.765905 
L 216.299442 218.79195 
L 217.299442 218.81315 
L 218.299442 218.867451 
L 219.299442 218.895389 
L 220.299442 218.925113 
L 221.299442 218.950508 
L 222.299442 218.961708 
L 223.299442 218.971832 
L 224.299442 218.971628 
L 225.299442 218.962118 
L 226.299442 218.950464 
L 227.299442 218.919435 
L 228.299442 218.908267 
L 229.299442 218.878149 
L 230.299442 218.818372 
L 231.299442 218.781181 
L 232.299442 218.742085 
L 233.299442 218.699645 
L 234.299442 218.66688 
L 235.299442 218.599454 
L 236.299442 218.560328 
L 237.299442 218.517653 
L 238.299442 218.447073 
L 239.299442 218.410682 
L 240.299442 218.352279 
L 241.299442 218.241326 
L 242.299442 218.170668 
L 243.299442 218.057728 
L 244.299442 218.011955 
L 245.299442 217.950672 
L 246.299442 217.902172 
L 247.299442 217.82135 
L 248.299442 217.702831 
L 249.299442 217.63262 
L 250.299442 217.549358 
L 251.299442 217.516216 
L 252.299442 217.464979 
L 253.299442 217.39658 
L 254.299442 217.330365 
L 255.299442 217.253448 
L 256.619695 217.226132 
" clip-path="url(#pc7d99c1850)" style="fill: none; stroke: #1f77b4; stroke-opacity: 0.5; stroke-width: 0.2; stroke-linecap: square"/>
   <path d="M 256.619695 235.990135 
L 255.619695 235.958698 
L 254.619695 235.921758 
L 253.619695 235.824011 
L 252.619695 235.79149 
L 251.619695 235.717865 
L 250.619695 235.6793 
L 249.619695 235.643886 
L 248.619695 235.586246 
L 247.619695 235.51586 
L 246.619695 235.463896 
L 245.619695 235.404806 
L 244.619695 235.316485 
L 243.619695 235.270341 
L 242.619695 235.22793 
L 241.619695 235.197437 
L 240.619695 235.171392 
L 239.619695 235.150192 
L 238.619695 235.095891 
L 237.619695 235.067954 
L 236.619695 235.03823 
L 235.619695 235.012835 
L 234.619695 235.001635 
L 233.619695 234.991511 
L 232.619695 234.991715 
L 231.619695 235.001225 
L 230.619695 235.012878 
L 229.619695 235.043908 
L 228.619695 235.055076 
L 227.619695 235.085193 
L 226.619695 235.14497 
L 225.619695 235.182162 
L 224.619695 235.221258 
L 223.619695 235.263697 
L 222.619695 235.296462 
L 221.619695 235.363889 
L 220.619695 235.403015 
L 219.619695 235.445689 
L 218.619695 235.51627 
L 217.619695 235.552661 
L 216.619695 235.611064 
L 215.619695 235.722017 
L 214.619695 235.792675 
L 213.619695 235.905615 
L 212.619695 235.951388 
L 211.619695 236.012671 
L 210.619695 236.06117 
L 209.619695 236.141993 
L 208.619695 236.260512 
L 207.619695 236.330722 
L 206.619695 236.413985 
L 205.619695 236.447127 
L 204.619695 236.498364 
L 203.619695 236.566762 
L 202.619695 236.632978 
L 201.619695 236.709895 
L 200.299442 236.73721 
" clip-path="url(#pc7d99c1850)" style="fill: none; stroke: #ff7f0e; stroke-opacity: 0.5; stroke-width: 0.2; stroke-linecap: square"/>
   <path d="M 256.619695 299.762817 
L 255.619695 299.731381 
L 254.619695 299.694441 
L 253.619695 299.596694 
L 252.619695 299.564173 
L 251.619695 299.490548 
L 250.619695 299.451982 
L 249.619695 299.416569 
L 248.619695 299.358929 
L 247.619695 299.288543 
L 246.619695 299.236579 
L 245.619695 299.177489 
L 244.619695 299.089168 
L 243.619695 299.043024 
L 242.619695 299.000613 
L 241.619695 298.97012 
L 240.619695 298.944075 
L 239.619695 298.922875 
L 238.619695 298.868574 
L 237.619695 298.840636 
L 236.619695 298.810912 
L 235.619695 298.785518 
L 234.619695 298.774317 
L 233.619695 298.764193 
L 232.619695 298.764398 
L 231.619695 298.773907 
L 230.619695 298.785561 
L 229.619695 298.81659 
L 228.619695 298.827758 
L 227.619695 298.857876 
L 226.619695 298.917653 
L 225.619695 298.954844 
L 224.619695 298.99394 
L 223.619695 299.03638 
L 222.619695 299.069145 
L 221.619695 299.136572 
L 220.619695 299.175697 
L 219.619695 299.218372 
L 218.619695 299.288953 
L 217.619695 299.325343 
L 216.619695 299.383747 
L 215.619695 299.494699 
L 214.619695 299.565358 
L 213.619695 299.678297 
L 212.619695 299.72407 
L 211.619695 299.785353 
L 210.619695 299.833853 
L 209.619695 299.914675 
L 208.619695 300.033194 
L 207.619695 300.103405 
L 206.619695 300.186668 
L 205.619695 300.219809 
L 204.619695 300.271047 
L 203.619695 300.339445 
L 202.619695 300.40566 
L 201.619695 300.482577 
L 200.299442 300.509893 
" clip-path="url(#pc7d99c1850)" style="fill: none; stroke: #ff7f0e; stroke-opacity: 0.5; stroke-width: 0.2; stroke-linecap: square"/>
   <path d="M 256.619695 224.265799 
L 255.619695 224.234362 
L 254.619695 224.197422 
L 253.619695 224.099675 
L 252.619695 224.067154 
L 251.619695 223.993529 
L 250.619695 223.954964 
L 249.619695 223.91955 
L 248.619695 223.861911 
L 247.619695 223.791524 
L 246.619695 223.73956 
L 245.619695 223.68047 
L 244.619695 223.592149 
L 243.619695 223.546005 
L 242.619695 223.503594 
L 241.619695 223.473101 
L 240.619695 223.447057 
L 239.619695 223.425856 
L 238.619695 223.371555 
L 237.619695 223.343618 
L 236.619695 223.313894 
L 235.619695 223.288499 
L 234.619695 223.277299 
L 233.619695 223.267175 
L 232.619695 223.267379 
L 231.619695 223.276889 
L 230.619695 223.288542 
L 229.619695 223.319572 
L 228.619695 223.33074 
L 227.619695 223.360857 
L 226.619695 223.420634 
L 225.619695 223.457826 
L 224.619695 223.496922 
L 223.619695 223.539361 
L 222.619695 223.572126 
L 221.619695 223.639553 
L 220.619695 223.678679 
L 219.619695 223.721353 
L 218.619695 223.791934 
L 217.619695 223.828325 
L 216.619695 223.886728 
L 215.619695 223.997681 
L 214.619695 224.068339 
L 213.619695 224.181279 
L 212.619695 224.227052 
L 211.619695 224.288335 
L 210.619695 224.336834 
L 209.619695 224.417657 
L 208.619695 224.536176 
L 207.619695 224.606386 
L 206.619695 224.689649 
L 205.619695 224.722791 
L 204.619695 224.774028 
L 203.619695 224.842426 
L 202.619695 224.908642 
L 201.619695 224.985559 
L 200.299442 225.012874 
" clip-path="url(#pc7d99c1850)" style="fill: none; stroke: #ff7f0e; stroke-opacity: 0.5; stroke-width: 0.2; stroke-linecap: square"/>
   <path d="M 256.619695 250.183247 
L 255.619695 250.15181 
L 254.619695 250.11487 
L 253.619695 250.017124 
L 252.619695 249.984602 
L 251.619695 249.910977 
L 250.619695 249.872412 
L 249.619695 249.836998 
L 248.619695 249.779359 
L 247.619695 249.708972 
L 246.619695 249.657008 
L 245.619695 249.597918 
L 244.619695 249.509597 
L 243.619695 249.463453 
L 242.619695 249.421042 
L 241.619695 249.390549 
L 240.619695 249.364505 
L 239.619695 249.343304 
L 238.619695 249.289003 
L 237.619695 249.261066 
L 236.619695 249.231342 
L 235.619695 249.205947 
L 234.619695 249.194747 
L 233.619695 249.184623 
L 232.619695 249.184827 
L 231.619695 249.194337 
L 230.619695 249.20599 
L 229.619695 249.23702 
L 228.619695 249.248188 
L 227.619695 249.278305 
L 226.619695 249.338082 
L 225.619695 249.375274 
L 224.619695 249.41437 
L 223.619695 249.456809 
L 222.619695 249.489574 
L 221.619695 249.557001 
L 220.619695 249.596127 
L 219.619695 249.638801 
L 218.619695 249.709382 
L 217.619695 249.745773 
L 216.619695 249.804176 
L 215.619695 249.915129 
L 214.619695 249.985787 
L 213.619695 250.098727 
L 212.619695 250.1445 
L 211.619695 250.205783 
L 210.619695 250.254282 
L 209.619695 250.335105 
L 208.619695 250.453624 
L 207.619695 250.523834 
L 206.619695 250.607097 
L 205.619695 250.640239 
L 204.619695 250.691476 
L 203.619695 250.759874 
L 202.619695 250.82609 
L 201.619695 250.903007 
L 200.299442 250.930322 
" clip-path="url(#pc7d99c1850)" style="fill: none; stroke: #ff7f0e; stroke-opacity: 0.5; stroke-width: 0.2; stroke-linecap: square"/>
   <path d="M 256.619695 87.079353 
L 255.619695 87.047917 
L 254.619695 87.010977 
L 253.619695 86.91323 
L 252.619695 86.880709 
L 251.619695 86.807084 
L 250.619695 86.768518 
L 249.619695 86.733105 
L 248.619695 86.675465 
L 247.619695 86.605079 
L 246.619695 86.553115 
L 245.619695 86.494025 
L 244.619695 86.405704 
L 243.619695 86.35956 
L 242.619695 86.317149 
L 241.619695 86.286656 
L 240.619695 86.260611 
L 239.619695 86.239411 
L 238.619695 86.18511 
L 237.619695 86.157172 
L 236.619695 86.127448 
L 235.619695 86.102054 
L 234.619695 86.090853 
L 233.619695 86.080729 
L 232.619695 86.080934 
L 231.619695 86.090443 
L 230.619695 86.102097 
L 229.619695 86.133126 
L 228.619695 86.144294 
L 227.619695 86.174412 
L 226.619695 86.234189 
L 225.619695 86.27138 
L 224.619695 86.310476 
L 223.619695 86.352916 
L 222.619695 86.385681 
L 221.619695 86.453108 
L 220.619695 86.492233 
L 219.619695 86.534908 
L 218.619695 86.605489 
L 217.619695 86.641879 
L 216.619695 86.700283 
L 215.619695 86.811235 
L 214.619695 86.881894 
L 213.619695 86.994833 
L 212.619695 87.040606 
L 211.619695 87.101889 
L 210.619695 87.150389 
L 209.619695 87.231211 
L 208.619695 87.34973 
L 207.619695 87.419941 
L 206.619695 87.503204 
L 205.619695 87.536345 
L 204.619695 87.587583 
L 203.619695 87.655981 
L 202.619695 87.722196 
L 201.619695 87.799113 
L 200.299442 87.826429 
" clip-path="url(#pc7d99c1850)" style="fill: none; stroke: #ff7f0e; stroke-opacity: 0.5; stroke-width: 0.2; stroke-linecap: square"/>
   <path d="M 256.619695 169.102978 
L 255.619695 169.071541 
L 254.619695 169.034601 
L 253.619695 168.936855 
L 252.619695 168.904333 
L 251.619695 168.830708 
L 250.619695 168.792143 
L 249.619695 168.75673 
L 248.619695 168.69909 
L 247.619695 168.628703 
L 246.619695 168.576739 
L 245.619695 168.517649 
L 244.619695 168.429328 
L 243.619695 168.383184 
L 242.619695 168.340773 
L 241.619695 168.310281 
L 240.619695 168.284236 
L 239.619695 168.263035 
L 238.619695 168.208734 
L 237.619695 168.180797 
L 236.619695 168.151073 
L 235.619695 168.125678 
L 234.619695 168.114478 
L 233.619695 168.104354 
L 232.619695 168.104558 
L 231.619695 168.114068 
L 230.619695 168.125721 
L 229.619695 168.156751 
L 228.619695 168.167919 
L 227.619695 168.198036 
L 226.619695 168.257813 
L 225.619695 168.295005 
L 224.619695 168.334101 
L 223.619695 168.37654 
L 222.619695 168.409305 
L 221.619695 168.476732 
L 220.619695 168.515858 
L 219.619695 168.558532 
L 218.619695 168.629113 
L 217.619695 168.665504 
L 216.619695 168.723907 
L 215.619695 168.83486 
L 214.619695 168.905518 
L 213.619695 169.018458 
L 212.619695 169.064231 
L 211.619695 169.125514 
L 210.619695 169.174013 
L 209.619695 169.254836 
L 208.619695 169.373355 
L 207.619695 169.443565 
L 206.619695 169.526828 
L 205.619695 169.55997 
L 204.619695 169.611207 
L 203.619695 169.679605 
L 202.619695 169.745821 
L 201.619695 169.822738 
L 200.299442 169.850053 
" clip-path="url(#pc7d99c1850)" style="fill: none; stroke: #ff7f0e; stroke-opacity: 0.5; stroke-width: 0.2; stroke-linecap: square"/>
   <path d="M 256.619695 45.980876 
L 255.619695 45.949439 
L 254.619695 45.912499 
L 253.619695 45.814752 
L 252.619695 45.782231 
L 251.619695 45.708606 
L 250.619695 45.67004 
L 249.619695 45.634627 
L 248.619695 45.576987 
L 247.619695 45.506601 
L 246.619695 45.454637 
L 245.619695 45.395547 
L 244.619695 45.307226 
L 243.619695 45.261082 
L 242.619695 45.218671 
L 241.619695 45.188178 
L 240.619695 45.162133 
L 239.619695 45.140933 
L 238.619695 45.086632 
L 237.619695 45.058695 
L 236.619695 45.028971 
L 235.619695 45.003576 
L 234.619695 44.992375 
L 233.619695 44.982251 
L 232.619695 44.982456 
L 231.619695 44.991966 
L 230.619695 45.003619 
L 229.619695 45.034648 
L 228.619695 45.045816 
L 227.619695 45.075934 
L 226.619695 45.135711 
L 225.619695 45.172902 
L 224.619695 45.211998 
L 223.619695 45.254438 
L 222.619695 45.287203 
L 221.619695 45.35463 
L 220.619695 45.393756 
L 219.619695 45.43643 
L 218.619695 45.507011 
L 217.619695 45.543402 
L 216.619695 45.601805 
L 215.619695 45.712757 
L 214.619695 45.783416 
L 213.619695 45.896356 
L 212.619695 45.942128 
L 211.619695 46.003412 
L 210.619695 46.051911 
L 209.619695 46.132734 
L 208.619695 46.251253 
L 207.619695 46.321463 
L 206.619695 46.404726 
L 205.619695 46.437867 
L 204.619695 46.489105 
L 203.619695 46.557503 
L 202.619695 46.623719 
L 201.619695 46.700636 
L 200.299442 46.727951 
" clip-path="url(#pc7d99c1850)" style="fill: none; stroke: #ff7f0e; stroke-opacity: 0.5; stroke-width: 0.2; stroke-linecap: square"/>
   <path d="M 256.619695 306.217555 
L 255.619695 306.186119 
L 254.619695 306.149178 
L 253.619695 306.051432 
L 252.619695 306.01891 
L 251.619695 305.945285 
L 250.619695 305.90672 
L 249.619695 305.871307 
L 248.619695 305.813667 
L 247.619695 305.743281 
L 246.619695 305.691316 
L 245.619695 305.632227 
L 244.619695 305.543906 
L 243.619695 305.497761 
L 242.619695 305.45535 
L 241.619695 305.424858 
L 240.619695 305.398813 
L 239.619695 305.377613 
L 238.619695 305.323312 
L 237.619695 305.295374 
L 236.619695 305.26565 
L 235.619695 305.240255 
L 234.619695 305.229055 
L 233.619695 305.218931 
L 232.619695 305.219135 
L 231.619695 305.228645 
L 230.619695 305.240299 
L 229.619695 305.271328 
L 228.619695 305.282496 
L 227.619695 305.312613 
L 226.619695 305.37239 
L 225.619695 305.409582 
L 224.619695 305.448678 
L 223.619695 305.491118 
L 222.619695 305.523883 
L 221.619695 305.591309 
L 220.619695 305.630435 
L 219.619695 305.67311 
L 218.619695 305.74369 
L 217.619695 305.780081 
L 216.619695 305.838484 
L 215.619695 305.949437 
L 214.619695 306.020095 
L 213.619695 306.133035 
L 212.619695 306.178808 
L 211.619695 306.240091 
L 210.619695 306.28859 
L 209.619695 306.369413 
L 208.619695 306.487932 
L 207.619695 306.558143 
L 206.619695 306.641405 
L 205.619695 306.674547 
L 204.619695 306.725784 
L 203.619695 306.794183 
L 202.619695 306.860398 
L 201.619695 306.937315 
L 200.299442 306.964631 
" clip-path="url(#pc7d99c1850)" style="fill: none; stroke: #ff7f0e; stroke-opacity: 0.5; stroke-width: 0.2; stroke-linecap: square"/>
   <path d="M 256.619695 171.013565 
L 255.619695 170.982128 
L 254.619695 170.945188 
L 253.619695 170.847442 
L 252.619695 170.81492 
L 251.619695 170.741295 
L 250.619695 170.70273 
L 249.619695 170.667316 
L 248.619695 170.609677 
L 247.619695 170.53929 
L 246.619695 170.487326 
L 245.619695 170.428236 
L 244.619695 170.339915 
L 243.619695 170.293771 
L 242.619695 170.25136 
L 241.619695 170.220868 
L 240.619695 170.194823 
L 239.619695 170.173622 
L 238.619695 170.119321 
L 237.619695 170.091384 
L 236.619695 170.06166 
L 235.619695 170.036265 
L 234.619695 170.025065 
L 233.619695 170.014941 
L 232.619695 170.015145 
L 231.619695 170.024655 
L 230.619695 170.036308 
L 229.619695 170.067338 
L 228.619695 170.078506 
L 227.619695 170.108623 
L 226.619695 170.1684 
L 225.619695 170.205592 
L 224.619695 170.244688 
L 223.619695 170.287127 
L 222.619695 170.319892 
L 221.619695 170.387319 
L 220.619695 170.426445 
L 219.619695 170.469119 
L 218.619695 170.5397 
L 217.619695 170.576091 
L 216.619695 170.634494 
L 215.619695 170.745447 
L 214.619695 170.816105 
L 213.619695 170.929045 
L 212.619695 170.974818 
L 211.619695 171.036101 
L 210.619695 171.0846 
L 209.619695 171.165423 
L 208.619695 171.283942 
L 207.619695 171.354152 
L 206.619695 171.437415 
L 205.619695 171.470557 
L 204.619695 171.521794 
L 203.619695 171.590192 
L 202.619695 171.656408 
L 201.619695 171.733325 
L 200.299442 171.76064 
" clip-path="url(#pc7d99c1850)" style="fill: none; stroke: #ff7f0e; stroke-opacity: 0.5; stroke-width: 0.2; stroke-linecap: square"/>
   <path d="M 256.619695 49.817497 
L 255.619695 49.78606 
L 254.619695 49.74912 
L 253.619695 49.651373 
L 252.619695 49.618852 
L 251.619695 49.545227 
L 250.619695 49.506661 
L 249.619695 49.471248 
L 248.619695 49.413608 
L 247.619695 49.343222 
L 246.619695 49.291258 
L 245.619695 49.232168 
L 244.619695 49.143847 
L 243.619695 49.097703 
L 242.619695 49.055292 
L 241.619695 49.024799 
L 240.619695 48.998754 
L 239.619695 48.977554 
L 238.619695 48.923253 
L 237.619695 48.895316 
L 236.619695 48.865592 
L 235.619695 48.840197 
L 234.619695 48.828996 
L 233.619695 48.818872 
L 232.619695 48.819077 
L 231.619695 48.828587 
L 230.619695 48.84024 
L 229.619695 48.871269 
L 228.619695 48.882437 
L 227.619695 48.912555 
L 226.619695 48.972332 
L 225.619695 49.009523 
L 224.619695 49.048619 
L 223.619695 49.091059 
L 222.619695 49.123824 
L 221.619695 49.191251 
L 220.619695 49.230377 
L 219.619695 49.273051 
L 218.619695 49.343632 
L 217.619695 49.380023 
L 216.619695 49.438426 
L 215.619695 49.549378 
L 214.619695 49.620037 
L 213.619695 49.732977 
L 212.619695 49.778749 
L 211.619695 49.840033 
L 210.619695 49.888532 
L 209.619695 49.969355 
L 208.619695 50.087874 
L 207.619695 50.158084 
L 206.619695 50.241347 
L 205.619695 50.274488 
L 204.619695 50.325726 
L 203.619695 50.394124 
L 202.619695 50.46034 
L 201.619695 50.537257 
L 200.299442 50.564572 
" clip-path="url(#pc7d99c1850)" style="fill: none; stroke: #ff7f0e; stroke-opacity: 0.5; stroke-width: 0.2; stroke-linecap: square"/>
   <path d="M 390.34593 252.941902 
L 391.34593 252.973338 
L 392.34593 253.010278 
L 393.34593 253.108025 
L 394.34593 253.140547 
L 395.34593 253.214171 
L 396.34593 253.252737 
L 397.34593 253.28815 
L 398.34593 253.34579 
L 399.34593 253.416176 
L 400.34593 253.46814 
L 401.34593 253.52723 
L 402.34593 253.615551 
L 403.34593 253.661695 
L 404.34593 253.704106 
L 405.34593 253.734599 
L 406.34593 253.760644 
L 407.34593 253.781844 
L 408.34593 253.836145 
L 409.34593 253.864083 
L 410.34593 253.893807 
L 411.34593 253.919201 
L 412.34593 253.930402 
L 413.34593 253.940526 
L 414.34593 253.940321 
L 415.34593 253.930812 
L 416.34593 253.919158 
L 417.34593 253.888129 
L 418.34593 253.876961 
L 419.34593 253.846843 
L 420.34593 253.787066 
L 421.34593 253.749875 
L 422.34593 253.710779 
L 423.34593 253.668339 
L 424.34593 253.635574 
L 425.34593 253.568148 
L 426.34593 253.529022 
L 427.34593 253.486347 
L 428.34593 253.415766 
L 429.34593 253.379376 
L 430.34593 253.320972 
L 431.34593 253.21002 
L 432.34593 253.139362 
L 433.34593 253.026422 
L 434.34593 252.980649 
L 435.34593 252.919366 
L 436.34593 252.870866 
L 437.34593 252.790044 
L 438.34593 252.671525 
L 439.34593 252.601314 
L 440.34593 252.518052 
L 441.34593 252.48491 
L 442.34593 252.433672 
L 443.34593 252.365274 
L 444.34593 252.299059 
L 445.34593 252.222142 
L 446.666183 252.194826 
" clip-path="url(#pc7d99c1850)" style="fill: none; stroke: #ff7f0e; stroke-opacity: 0.5; stroke-width: 0.2; stroke-linecap: square"/>
   <path d="M 390.34593 282.952682 
L 391.34593 282.984119 
L 392.34593 283.021059 
L 393.34593 283.118806 
L 394.34593 283.151327 
L 395.34593 283.224952 
L 396.34593 283.263518 
L 397.34593 283.298931 
L 398.34593 283.356571 
L 399.34593 283.426957 
L 400.34593 283.478921 
L 401.34593 283.538011 
L 402.34593 283.626332 
L 403.34593 283.672476 
L 404.34593 283.714887 
L 405.34593 283.74538 
L 406.34593 283.771425 
L 407.34593 283.792625 
L 408.34593 283.846926 
L 409.34593 283.874863 
L 410.34593 283.904587 
L 411.34593 283.929982 
L 412.34593 283.941183 
L 413.34593 283.951307 
L 414.34593 283.951102 
L 415.34593 283.941592 
L 416.34593 283.929939 
L 417.34593 283.89891 
L 418.34593 283.887742 
L 419.34593 283.857624 
L 420.34593 283.797847 
L 421.34593 283.760656 
L 422.34593 283.72156 
L 423.34593 283.67912 
L 424.34593 283.646355 
L 425.34593 283.578928 
L 426.34593 283.539802 
L 427.34593 283.497128 
L 428.34593 283.426547 
L 429.34593 283.390156 
L 430.34593 283.331753 
L 431.34593 283.220801 
L 432.34593 283.150142 
L 433.34593 283.037203 
L 434.34593 282.99143 
L 435.34593 282.930146 
L 436.34593 282.881647 
L 437.34593 282.800824 
L 438.34593 282.682305 
L 439.34593 282.612095 
L 440.34593 282.528832 
L 441.34593 282.495691 
L 442.34593 282.444453 
L 443.34593 282.376055 
L 444.34593 282.309839 
L 445.34593 282.232922 
L 446.666183 282.205607 
" clip-path="url(#pc7d99c1850)" style="fill: none; stroke: #ff7f0e; stroke-opacity: 0.5; stroke-width: 0.2; stroke-linecap: square"/>
   <path d="M 390.34593 94.481029 
L 391.34593 94.512465 
L 392.34593 94.549405 
L 393.34593 94.647152 
L 394.34593 94.679674 
L 395.34593 94.753298 
L 396.34593 94.791864 
L 397.34593 94.827277 
L 398.34593 94.884917 
L 399.34593 94.955303 
L 400.34593 95.007267 
L 401.34593 95.066357 
L 402.34593 95.154678 
L 403.34593 95.200822 
L 404.34593 95.243233 
L 405.34593 95.273726 
L 406.34593 95.299771 
L 407.34593 95.320971 
L 408.34593 95.375272 
L 409.34593 95.40321 
L 410.34593 95.432934 
L 411.34593 95.458328 
L 412.34593 95.469529 
L 413.34593 95.479653 
L 414.34593 95.479448 
L 415.34593 95.469939 
L 416.34593 95.458285 
L 417.34593 95.427256 
L 418.34593 95.416088 
L 419.34593 95.38597 
L 420.34593 95.326193 
L 421.34593 95.289002 
L 422.34593 95.249906 
L 423.34593 95.207466 
L 424.34593 95.174701 
L 425.34593 95.107275 
L 426.34593 95.068149 
L 427.34593 95.025474 
L 428.34593 94.954893 
L 429.34593 94.918503 
L 430.34593 94.860099 
L 431.34593 94.749147 
L 432.34593 94.678489 
L 433.34593 94.565549 
L 434.34593 94.519776 
L 435.34593 94.458493 
L 436.34593 94.409993 
L 437.34593 94.329171 
L 438.34593 94.210652 
L 439.34593 94.140441 
L 440.34593 94.057179 
L 441.34593 94.024037 
L 442.34593 93.972799 
L 443.34593 93.904401 
L 444.34593 93.838186 
L 445.34593 93.761269 
L 446.666183 93.733953 
" clip-path="url(#pc7d99c1850)" style="fill: none; stroke: #ff7f0e; stroke-opacity: 0.5; stroke-width: 0.2; stroke-linecap: square"/>
   <path d="M 390.34593 123.370207 
L 391.34593 123.401643 
L 392.34593 123.438584 
L 393.34593 123.53633 
L 394.34593 123.568852 
L 395.34593 123.642477 
L 396.34593 123.681042 
L 397.34593 123.716455 
L 398.34593 123.774095 
L 399.34593 123.844482 
L 400.34593 123.896446 
L 401.34593 123.955536 
L 402.34593 124.043856 
L 403.34593 124.090001 
L 404.34593 124.132412 
L 405.34593 124.162904 
L 406.34593 124.188949 
L 407.34593 124.210149 
L 408.34593 124.264451 
L 409.34593 124.292388 
L 410.34593 124.322112 
L 411.34593 124.347507 
L 412.34593 124.358707 
L 413.34593 124.368831 
L 414.34593 124.368627 
L 415.34593 124.359117 
L 416.34593 124.347463 
L 417.34593 124.316434 
L 418.34593 124.305266 
L 419.34593 124.275149 
L 420.34593 124.215372 
L 421.34593 124.17818 
L 422.34593 124.139084 
L 423.34593 124.096645 
L 424.34593 124.063879 
L 425.34593 123.996453 
L 426.34593 123.957327 
L 427.34593 123.914653 
L 428.34593 123.844072 
L 429.34593 123.807681 
L 430.34593 123.749278 
L 431.34593 123.638325 
L 432.34593 123.567667 
L 433.34593 123.454727 
L 434.34593 123.408954 
L 435.34593 123.347671 
L 436.34593 123.299172 
L 437.34593 123.218349 
L 438.34593 123.09983 
L 439.34593 123.029619 
L 440.34593 122.946357 
L 441.34593 122.913215 
L 442.34593 122.861978 
L 443.34593 122.79358 
L 444.34593 122.727364 
L 445.34593 122.650447 
L 446.666183 122.623132 
" clip-path="url(#pc7d99c1850)" style="fill: none; stroke: #ff7f0e; stroke-opacity: 0.5; stroke-width: 0.2; stroke-linecap: square"/>
   <path d="M 390.34593 279.211966 
L 391.34593 279.243403 
L 392.34593 279.280343 
L 393.34593 279.37809 
L 394.34593 279.410611 
L 395.34593 279.484236 
L 396.34593 279.522802 
L 397.34593 279.558215 
L 398.34593 279.615855 
L 399.34593 279.686241 
L 400.34593 279.738205 
L 401.34593 279.797295 
L 402.34593 279.885616 
L 403.34593 279.93176 
L 404.34593 279.974171 
L 405.34593 280.004664 
L 406.34593 280.030709 
L 407.34593 280.051909 
L 408.34593 280.10621 
L 409.34593 280.134147 
L 410.34593 280.163871 
L 411.34593 280.189266 
L 412.34593 280.200467 
L 413.34593 280.210591 
L 414.34593 280.210386 
L 415.34593 280.200876 
L 416.34593 280.189223 
L 417.34593 280.158194 
L 418.34593 280.147026 
L 419.34593 280.116908 
L 420.34593 280.057131 
L 421.34593 280.01994 
L 422.34593 279.980844 
L 423.34593 279.938404 
L 424.34593 279.905639 
L 425.34593 279.838212 
L 426.34593 279.799086 
L 427.34593 279.756412 
L 428.34593 279.685831 
L 429.34593 279.64944 
L 430.34593 279.591037 
L 431.34593 279.480085 
L 432.34593 279.409426 
L 433.34593 279.296486 
L 434.34593 279.250714 
L 435.34593 279.18943 
L 436.34593 279.140931 
L 437.34593 279.060108 
L 438.34593 278.941589 
L 439.34593 278.871379 
L 440.34593 278.788116 
L 441.34593 278.754975 
L 442.34593 278.703737 
L 443.34593 278.635339 
L 444.34593 278.569123 
L 445.34593 278.492206 
L 446.666183 278.464891 
" clip-path="url(#pc7d99c1850)" style="fill: none; stroke: #ff7f0e; stroke-opacity: 0.5; stroke-width: 0.2; stroke-linecap: square"/>
   <path d="M 390.34593 311.750678 
L 391.34593 311.782115 
L 392.34593 311.819055 
L 393.34593 311.916802 
L 394.34593 311.949323 
L 395.34593 312.022948 
L 396.34593 312.061514 
L 397.34593 312.096927 
L 398.34593 312.154567 
L 399.34593 312.224953 
L 400.34593 312.276917 
L 401.34593 312.336007 
L 402.34593 312.424328 
L 403.34593 312.470472 
L 404.34593 312.512883 
L 405.34593 312.543376 
L 406.34593 312.569421 
L 407.34593 312.590621 
L 408.34593 312.644922 
L 409.34593 312.67286 
L 410.34593 312.702583 
L 411.34593 312.727978 
L 412.34593 312.739179 
L 413.34593 312.749303 
L 414.34593 312.749098 
L 415.34593 312.739588 
L 416.34593 312.727935 
L 417.34593 312.696906 
L 418.34593 312.685738 
L 419.34593 312.65562 
L 420.34593 312.595843 
L 421.34593 312.558652 
L 422.34593 312.519556 
L 423.34593 312.477116 
L 424.34593 312.444351 
L 425.34593 312.376924 
L 426.34593 312.337798 
L 427.34593 312.295124 
L 428.34593 312.224543 
L 429.34593 312.188152 
L 430.34593 312.129749 
L 431.34593 312.018797 
L 432.34593 311.948138 
L 433.34593 311.835199 
L 434.34593 311.789426 
L 435.34593 311.728142 
L 436.34593 311.679643 
L 437.34593 311.59882 
L 438.34593 311.480301 
L 439.34593 311.410091 
L 440.34593 311.326828 
L 441.34593 311.293687 
L 442.34593 311.242449 
L 443.34593 311.174051 
L 444.34593 311.107836 
L 445.34593 311.030918 
L 446.666183 311.003603 
" clip-path="url(#pc7d99c1850)" style="fill: none; stroke: #ff7f0e; stroke-opacity: 0.5; stroke-width: 0.2; stroke-linecap: square"/>
   <path d="M 390.34593 140.450046 
L 391.34593 140.481482 
L 392.34593 140.518422 
L 393.34593 140.616169 
L 394.34593 140.648691 
L 395.34593 140.722315 
L 396.34593 140.760881 
L 397.34593 140.796294 
L 398.34593 140.853934 
L 399.34593 140.92432 
L 400.34593 140.976284 
L 401.34593 141.035374 
L 402.34593 141.123695 
L 403.34593 141.169839 
L 404.34593 141.21225 
L 405.34593 141.242743 
L 406.34593 141.268788 
L 407.34593 141.289988 
L 408.34593 141.344289 
L 409.34593 141.372227 
L 410.34593 141.401951 
L 411.34593 141.427345 
L 412.34593 141.438546 
L 413.34593 141.44867 
L 414.34593 141.448465 
L 415.34593 141.438956 
L 416.34593 141.427302 
L 417.34593 141.396273 
L 418.34593 141.385105 
L 419.34593 141.354987 
L 420.34593 141.29521 
L 421.34593 141.258019 
L 422.34593 141.218923 
L 423.34593 141.176483 
L 424.34593 141.143718 
L 425.34593 141.076292 
L 426.34593 141.037166 
L 427.34593 140.994491 
L 428.34593 140.923911 
L 429.34593 140.88752 
L 430.34593 140.829116 
L 431.34593 140.718164 
L 432.34593 140.647506 
L 433.34593 140.534566 
L 434.34593 140.488793 
L 435.34593 140.42751 
L 436.34593 140.37901 
L 437.34593 140.298188 
L 438.34593 140.179669 
L 439.34593 140.109458 
L 440.34593 140.026196 
L 441.34593 139.993054 
L 442.34593 139.941817 
L 443.34593 139.873418 
L 444.34593 139.807203 
L 445.34593 139.730286 
L 446.666183 139.70297 
" clip-path="url(#pc7d99c1850)" style="fill: none; stroke: #ff7f0e; stroke-opacity: 0.5; stroke-width: 0.2; stroke-linecap: square"/>
   <path d="M 390.34593 247.534158 
L 391.34593 247.565594 
L 392.34593 247.602535 
L 393.34593 247.700281 
L 394.34593 247.732803 
L 395.34593 247.806428 
L 396.34593 247.844993 
L 397.34593 247.880406 
L 398.34593 247.938046 
L 399.34593 248.008432 
L 400.34593 248.060397 
L 401.34593 248.119486 
L 402.34593 248.207807 
L 403.34593 248.253952 
L 404.34593 248.296363 
L 405.34593 248.326855 
L 406.34593 248.3529 
L 407.34593 248.3741 
L 408.34593 248.428401 
L 409.34593 248.456339 
L 410.34593 248.486063 
L 411.34593 248.511458 
L 412.34593 248.522658 
L 413.34593 248.532782 
L 414.34593 248.532578 
L 415.34593 248.523068 
L 416.34593 248.511414 
L 417.34593 248.480385 
L 418.34593 248.469217 
L 419.34593 248.4391 
L 420.34593 248.379323 
L 421.34593 248.342131 
L 422.34593 248.303035 
L 423.34593 248.260595 
L 424.34593 248.22783 
L 425.34593 248.160404 
L 426.34593 248.121278 
L 427.34593 248.078603 
L 428.34593 248.008023 
L 429.34593 247.971632 
L 430.34593 247.913229 
L 431.34593 247.802276 
L 432.34593 247.731618 
L 433.34593 247.618678 
L 434.34593 247.572905 
L 435.34593 247.511622 
L 436.34593 247.463123 
L 437.34593 247.3823 
L 438.34593 247.263781 
L 439.34593 247.19357 
L 440.34593 247.110308 
L 441.34593 247.077166 
L 442.34593 247.025929 
L 443.34593 246.95753 
L 444.34593 246.891315 
L 445.34593 246.814398 
L 446.666183 246.787082 
" clip-path="url(#pc7d99c1850)" style="fill: none; stroke: #ff7f0e; stroke-opacity: 0.5; stroke-width: 0.2; stroke-linecap: square"/>
   <path d="M 390.34593 50.134501 
L 391.34593 50.165937 
L 392.34593 50.202878 
L 393.34593 50.300624 
L 394.34593 50.333146 
L 395.34593 50.40677 
L 396.34593 50.445336 
L 397.34593 50.480749 
L 398.34593 50.538389 
L 399.34593 50.608775 
L 400.34593 50.660739 
L 401.34593 50.719829 
L 402.34593 50.80815 
L 403.34593 50.854294 
L 404.34593 50.896705 
L 405.34593 50.927198 
L 406.34593 50.953243 
L 407.34593 50.974443 
L 408.34593 51.028744 
L 409.34593 51.056682 
L 410.34593 51.086406 
L 411.34593 51.111801 
L 412.34593 51.123001 
L 413.34593 51.133125 
L 414.34593 51.132921 
L 415.34593 51.123411 
L 416.34593 51.111757 
L 417.34593 51.080728 
L 418.34593 51.06956 
L 419.34593 51.039442 
L 420.34593 50.979665 
L 421.34593 50.942474 
L 422.34593 50.903378 
L 423.34593 50.860938 
L 424.34593 50.828173 
L 425.34593 50.760747 
L 426.34593 50.721621 
L 427.34593 50.678946 
L 428.34593 50.608366 
L 429.34593 50.571975 
L 430.34593 50.513572 
L 431.34593 50.402619 
L 432.34593 50.331961 
L 433.34593 50.219021 
L 434.34593 50.173248 
L 435.34593 50.111965 
L 436.34593 50.063465 
L 437.34593 49.982643 
L 438.34593 49.864124 
L 439.34593 49.793913 
L 440.34593 49.710651 
L 441.34593 49.677509 
L 442.34593 49.626272 
L 443.34593 49.557873 
L 444.34593 49.491658 
L 445.34593 49.414741 
L 446.666183 49.387425 
" clip-path="url(#pc7d99c1850)" style="fill: none; stroke: #ff7f0e; stroke-opacity: 0.5; stroke-width: 0.2; stroke-linecap: square"/>
   <path d="M 390.34593 206.099522 
L 391.34593 206.130958 
L 392.34593 206.167899 
L 393.34593 206.265645 
L 394.34593 206.298167 
L 395.34593 206.371791 
L 396.34593 206.410357 
L 397.34593 206.44577 
L 398.34593 206.50341 
L 399.34593 206.573796 
L 400.34593 206.625761 
L 401.34593 206.68485 
L 402.34593 206.773171 
L 403.34593 206.819316 
L 404.34593 206.861726 
L 405.34593 206.892219 
L 406.34593 206.918264 
L 407.34593 206.939464 
L 408.34593 206.993765 
L 409.34593 207.021703 
L 410.34593 207.051427 
L 411.34593 207.076822 
L 412.34593 207.088022 
L 413.34593 207.098146 
L 414.34593 207.097942 
L 415.34593 207.088432 
L 416.34593 207.076778 
L 417.34593 207.045749 
L 418.34593 207.034581 
L 419.34593 207.004464 
L 420.34593 206.944687 
L 421.34593 206.907495 
L 422.34593 206.868399 
L 423.34593 206.825959 
L 424.34593 206.793194 
L 425.34593 206.725768 
L 426.34593 206.686642 
L 427.34593 206.643967 
L 428.34593 206.573387 
L 429.34593 206.536996 
L 430.34593 206.478593 
L 431.34593 206.36764 
L 432.34593 206.296982 
L 433.34593 206.184042 
L 434.34593 206.138269 
L 435.34593 206.076986 
L 436.34593 206.028486 
L 437.34593 205.947664 
L 438.34593 205.829145 
L 439.34593 205.758934 
L 440.34593 205.675672 
L 441.34593 205.64253 
L 442.34593 205.591293 
L 443.34593 205.522894 
L 444.34593 205.456679 
L 445.34593 205.379762 
L 446.666183 205.352446 
" clip-path="url(#pc7d99c1850)" style="fill: none; stroke: #ff7f0e; stroke-opacity: 0.5; stroke-width: 0.2; stroke-linecap: square"/>
   <path d="M 446.666183 312.634417 
L 445.666183 312.60298 
L 444.666183 312.56604 
L 443.666183 312.468293 
L 442.666183 312.435772 
L 441.666183 312.362147 
L 440.666183 312.323581 
L 439.666183 312.288168 
L 438.666183 312.230528 
L 437.666183 312.160142 
L 436.666183 312.108178 
L 435.666183 312.049088 
L 434.666183 311.960767 
L 433.666183 311.914623 
L 432.666183 311.872212 
L 431.666183 311.841719 
L 430.666183 311.815674 
L 429.666183 311.794474 
L 428.666183 311.740173 
L 427.666183 311.712236 
L 426.666183 311.682512 
L 425.666183 311.657117 
L 424.666183 311.645916 
L 423.666183 311.635792 
L 422.666183 311.635997 
L 421.666183 311.645507 
L 420.666183 311.65716 
L 419.666183 311.688189 
L 418.666183 311.699357 
L 417.666183 311.729475 
L 416.666183 311.789252 
L 415.666183 311.826443 
L 414.666183 311.865539 
L 413.666183 311.907979 
L 412.666183 311.940744 
L 411.666183 312.008171 
L 410.666183 312.047297 
L 409.666183 312.089971 
L 408.666183 312.160552 
L 407.666183 312.196943 
L 406.666183 312.255346 
L 405.666183 312.366298 
L 404.666183 312.436957 
L 403.666183 312.549897 
L 402.666183 312.595669 
L 401.666183 312.656953 
L 400.666183 312.705452 
L 399.666183 312.786275 
L 398.666183 312.904794 
L 397.666183 312.975004 
L 396.666183 313.058267 
L 395.666183 313.091408 
L 394.666183 313.142646 
L 393.666183 313.211044 
L 392.666183 313.27726 
L 391.666183 313.354177 
L 390.34593 313.381492 
" clip-path="url(#pc7d99c1850)" style="fill: none; stroke: #2ca02c; stroke-opacity: 0.5; stroke-width: 0.2; stroke-linecap: square"/>
   <path d="M 446.666183 26.027522 
L 445.666183 25.996085 
L 444.666183 25.959145 
L 443.666183 25.861398 
L 442.666183 25.828877 
L 441.666183 25.755252 
L 440.666183 25.716687 
L 439.666183 25.681273 
L 438.666183 25.623634 
L 437.666183 25.553247 
L 436.666183 25.501283 
L 435.666183 25.442193 
L 434.666183 25.353872 
L 433.666183 25.307728 
L 432.666183 25.265317 
L 431.666183 25.234824 
L 430.666183 25.20878 
L 429.666183 25.187579 
L 428.666183 25.133278 
L 427.666183 25.105341 
L 426.666183 25.075617 
L 425.666183 25.050222 
L 424.666183 25.039022 
L 423.666183 25.028898 
L 422.666183 25.029102 
L 421.666183 25.038612 
L 420.666183 25.050265 
L 419.666183 25.081295 
L 418.666183 25.092463 
L 417.666183 25.12258 
L 416.666183 25.182357 
L 415.666183 25.219549 
L 414.666183 25.258645 
L 413.666183 25.301084 
L 412.666183 25.333849 
L 411.666183 25.401276 
L 410.666183 25.440402 
L 409.666183 25.483076 
L 408.666183 25.553657 
L 407.666183 25.590048 
L 406.666183 25.648451 
L 405.666183 25.759404 
L 404.666183 25.830062 
L 403.666183 25.943002 
L 402.666183 25.988775 
L 401.666183 26.050058 
L 400.666183 26.098557 
L 399.666183 26.17938 
L 398.666183 26.297899 
L 397.666183 26.368109 
L 396.666183 26.451372 
L 395.666183 26.484514 
L 394.666183 26.535751 
L 393.666183 26.604149 
L 392.666183 26.670365 
L 391.666183 26.747282 
L 390.34593 26.774597 
" clip-path="url(#pc7d99c1850)" style="fill: none; stroke: #2ca02c; stroke-opacity: 0.5; stroke-width: 0.2; stroke-linecap: square"/>
   <path d="M 446.666183 90.181916 
L 445.666183 90.15048 
L 444.666183 90.113539 
L 443.666183 90.015793 
L 442.666183 89.983271 
L 441.666183 89.909646 
L 440.666183 89.871081 
L 439.666183 89.835668 
L 438.666183 89.778028 
L 437.666183 89.707642 
L 436.666183 89.655677 
L 435.666183 89.596588 
L 434.666183 89.508267 
L 433.666183 89.462122 
L 432.666183 89.419711 
L 431.666183 89.389219 
L 430.666183 89.363174 
L 429.666183 89.341974 
L 428.666183 89.287673 
L 427.666183 89.259735 
L 426.666183 89.230011 
L 425.666183 89.204616 
L 424.666183 89.193416 
L 423.666183 89.183292 
L 422.666183 89.183496 
L 421.666183 89.193006 
L 420.666183 89.20466 
L 419.666183 89.235689 
L 418.666183 89.246857 
L 417.666183 89.276974 
L 416.666183 89.336751 
L 415.666183 89.373943 
L 414.666183 89.413039 
L 413.666183 89.455479 
L 412.666183 89.488244 
L 411.666183 89.55567 
L 410.666183 89.594796 
L 409.666183 89.637471 
L 408.666183 89.708051 
L 407.666183 89.744442 
L 406.666183 89.802845 
L 405.666183 89.913798 
L 404.666183 89.984456 
L 403.666183 90.097396 
L 402.666183 90.143169 
L 401.666183 90.204452 
L 400.666183 90.252951 
L 399.666183 90.333774 
L 398.666183 90.452293 
L 397.666183 90.522504 
L 396.666183 90.605766 
L 395.666183 90.638908 
L 394.666183 90.690145 
L 393.666183 90.758544 
L 392.666183 90.824759 
L 391.666183 90.901676 
L 390.34593 90.928992 
" clip-path="url(#pc7d99c1850)" style="fill: none; stroke: #2ca02c; stroke-opacity: 0.5; stroke-width: 0.2; stroke-linecap: square"/>
   <path d="M 446.666183 275.185454 
L 445.666183 275.154018 
L 444.666183 275.117078 
L 443.666183 275.019331 
L 442.666183 274.98681 
L 441.666183 274.913185 
L 440.666183 274.874619 
L 439.666183 274.839206 
L 438.666183 274.781566 
L 437.666183 274.71118 
L 436.666183 274.659216 
L 435.666183 274.600126 
L 434.666183 274.511805 
L 433.666183 274.465661 
L 432.666183 274.42325 
L 431.666183 274.392757 
L 430.666183 274.366712 
L 429.666183 274.345512 
L 428.666183 274.291211 
L 427.666183 274.263273 
L 426.666183 274.233549 
L 425.666183 274.208155 
L 424.666183 274.196954 
L 423.666183 274.18683 
L 422.666183 274.187035 
L 421.666183 274.196545 
L 420.666183 274.208198 
L 419.666183 274.239227 
L 418.666183 274.250395 
L 417.666183 274.280513 
L 416.666183 274.34029 
L 415.666183 274.377481 
L 414.666183 274.416577 
L 413.666183 274.459017 
L 412.666183 274.491782 
L 411.666183 274.559209 
L 410.666183 274.598335 
L 409.666183 274.641009 
L 408.666183 274.71159 
L 407.666183 274.747981 
L 406.666183 274.806384 
L 405.666183 274.917336 
L 404.666183 274.987995 
L 403.666183 275.100934 
L 402.666183 275.146707 
L 401.666183 275.207991 
L 400.666183 275.25649 
L 399.666183 275.337313 
L 398.666183 275.455831 
L 397.666183 275.526042 
L 396.666183 275.609305 
L 395.666183 275.642446 
L 394.666183 275.693684 
L 393.666183 275.762082 
L 392.666183 275.828297 
L 391.666183 275.905214 
L 390.34593 275.93253 
" clip-path="url(#pc7d99c1850)" style="fill: none; stroke: #2ca02c; stroke-opacity: 0.5; stroke-width: 0.2; stroke-linecap: square"/>
   <path d="M 446.666183 106.660866 
L 445.666183 106.62943 
L 444.666183 106.592489 
L 443.666183 106.494743 
L 442.666183 106.462221 
L 441.666183 106.388596 
L 440.666183 106.350031 
L 439.666183 106.314618 
L 438.666183 106.256978 
L 437.666183 106.186592 
L 436.666183 106.134627 
L 435.666183 106.075538 
L 434.666183 105.987217 
L 433.666183 105.941072 
L 432.666183 105.898661 
L 431.666183 105.868169 
L 430.666183 105.842124 
L 429.666183 105.820924 
L 428.666183 105.766623 
L 427.666183 105.738685 
L 426.666183 105.708961 
L 425.666183 105.683566 
L 424.666183 105.672366 
L 423.666183 105.662242 
L 422.666183 105.662446 
L 421.666183 105.671956 
L 420.666183 105.68361 
L 419.666183 105.714639 
L 418.666183 105.725807 
L 417.666183 105.755924 
L 416.666183 105.815701 
L 415.666183 105.852893 
L 414.666183 105.891989 
L 413.666183 105.934429 
L 412.666183 105.967194 
L 411.666183 106.03462 
L 410.666183 106.073746 
L 409.666183 106.116421 
L 408.666183 106.187001 
L 407.666183 106.223392 
L 406.666183 106.281795 
L 405.666183 106.392748 
L 404.666183 106.463406 
L 403.666183 106.576346 
L 402.666183 106.622119 
L 401.666183 106.683402 
L 400.666183 106.731901 
L 399.666183 106.812724 
L 398.666183 106.931243 
L 397.666183 107.001454 
L 396.666183 107.084716 
L 395.666183 107.117858 
L 394.666183 107.169095 
L 393.666183 107.237494 
L 392.666183 107.303709 
L 391.666183 107.380626 
L 390.34593 107.407942 
" clip-path="url(#pc7d99c1850)" style="fill: none; stroke: #2ca02c; stroke-opacity: 0.5; stroke-width: 0.2; stroke-linecap: square"/>
   <path d="M 446.666183 207.764635 
L 445.666183 207.733198 
L 444.666183 207.696258 
L 443.666183 207.598511 
L 442.666183 207.56599 
L 441.666183 207.492365 
L 440.666183 207.453799 
L 439.666183 207.418386 
L 438.666183 207.360746 
L 437.666183 207.29036 
L 436.666183 207.238396 
L 435.666183 207.179306 
L 434.666183 207.090985 
L 433.666183 207.044841 
L 432.666183 207.00243 
L 431.666183 206.971937 
L 430.666183 206.945892 
L 429.666183 206.924692 
L 428.666183 206.870391 
L 427.666183 206.842454 
L 426.666183 206.81273 
L 425.666183 206.787335 
L 424.666183 206.776134 
L 423.666183 206.76601 
L 422.666183 206.766215 
L 421.666183 206.775725 
L 420.666183 206.787378 
L 419.666183 206.818407 
L 418.666183 206.829575 
L 417.666183 206.859693 
L 416.666183 206.91947 
L 415.666183 206.956661 
L 414.666183 206.995757 
L 413.666183 207.038197 
L 412.666183 207.070962 
L 411.666183 207.138389 
L 410.666183 207.177515 
L 409.666183 207.220189 
L 408.666183 207.29077 
L 407.666183 207.327161 
L 406.666183 207.385564 
L 405.666183 207.496516 
L 404.666183 207.567175 
L 403.666183 207.680115 
L 402.666183 207.725887 
L 401.666183 207.787171 
L 400.666183 207.83567 
L 399.666183 207.916493 
L 398.666183 208.035012 
L 397.666183 208.105222 
L 396.666183 208.188485 
L 395.666183 208.221626 
L 394.666183 208.272864 
L 393.666183 208.341262 
L 392.666183 208.407478 
L 391.666183 208.484395 
L 390.34593 208.51171 
" clip-path="url(#pc7d99c1850)" style="fill: none; stroke: #2ca02c; stroke-opacity: 0.5; stroke-width: 0.2; stroke-linecap: square"/>
   <path d="M 446.666183 130.056258 
L 445.666183 130.024821 
L 444.666183 129.987881 
L 443.666183 129.890134 
L 442.666183 129.857613 
L 441.666183 129.783988 
L 440.666183 129.745422 
L 439.666183 129.710009 
L 438.666183 129.652369 
L 437.666183 129.581983 
L 436.666183 129.530019 
L 435.666183 129.470929 
L 434.666183 129.382608 
L 433.666183 129.336464 
L 432.666183 129.294053 
L 431.666183 129.26356 
L 430.666183 129.237515 
L 429.666183 129.216315 
L 428.666183 129.162014 
L 427.666183 129.134076 
L 426.666183 129.104353 
L 425.666183 129.078958 
L 424.666183 129.067757 
L 423.666183 129.057633 
L 422.666183 129.057838 
L 421.666183 129.067348 
L 420.666183 129.079001 
L 419.666183 129.11003 
L 418.666183 129.121198 
L 417.666183 129.151316 
L 416.666183 129.211093 
L 415.666183 129.248284 
L 414.666183 129.28738 
L 413.666183 129.32982 
L 412.666183 129.362585 
L 411.666183 129.430012 
L 410.666183 129.469138 
L 409.666183 129.511812 
L 408.666183 129.582393 
L 407.666183 129.618784 
L 406.666183 129.677187 
L 405.666183 129.788139 
L 404.666183 129.858798 
L 403.666183 129.971737 
L 402.666183 130.01751 
L 401.666183 130.078794 
L 400.666183 130.127293 
L 399.666183 130.208116 
L 398.666183 130.326635 
L 397.666183 130.396845 
L 396.666183 130.480108 
L 395.666183 130.513249 
L 394.666183 130.564487 
L 393.666183 130.632885 
L 392.666183 130.6991 
L 391.666183 130.776018 
L 390.34593 130.803333 
" clip-path="url(#pc7d99c1850)" style="fill: none; stroke: #2ca02c; stroke-opacity: 0.5; stroke-width: 0.2; stroke-linecap: square"/>
   <path d="M 446.666183 153.234166 
L 445.666183 153.20273 
L 444.666183 153.165789 
L 443.666183 153.068043 
L 442.666183 153.035521 
L 441.666183 152.961897 
L 440.666183 152.923331 
L 439.666183 152.887918 
L 438.666183 152.830278 
L 437.666183 152.759892 
L 436.666183 152.707927 
L 435.666183 152.648838 
L 434.666183 152.560517 
L 433.666183 152.514372 
L 432.666183 152.471961 
L 431.666183 152.441469 
L 430.666183 152.415424 
L 429.666183 152.394224 
L 428.666183 152.339923 
L 427.666183 152.311985 
L 426.666183 152.282261 
L 425.666183 152.256866 
L 424.666183 152.245666 
L 423.666183 152.235542 
L 422.666183 152.235746 
L 421.666183 152.245256 
L 420.666183 152.25691 
L 419.666183 152.287939 
L 418.666183 152.299107 
L 417.666183 152.329224 
L 416.666183 152.389001 
L 415.666183 152.426193 
L 414.666183 152.465289 
L 413.666183 152.507729 
L 412.666183 152.540494 
L 411.666183 152.60792 
L 410.666183 152.647046 
L 409.666183 152.689721 
L 408.666183 152.760301 
L 407.666183 152.796692 
L 406.666183 152.855095 
L 405.666183 152.966048 
L 404.666183 153.036706 
L 403.666183 153.149646 
L 402.666183 153.195419 
L 401.666183 153.256702 
L 400.666183 153.305201 
L 399.666183 153.386024 
L 398.666183 153.504543 
L 397.666183 153.574754 
L 396.666183 153.658016 
L 395.666183 153.691158 
L 394.666183 153.742395 
L 393.666183 153.810794 
L 392.666183 153.877009 
L 391.666183 153.953926 
L 390.34593 153.981242 
" clip-path="url(#pc7d99c1850)" style="fill: none; stroke: #2ca02c; stroke-opacity: 0.5; stroke-width: 0.2; stroke-linecap: square"/>
   <path d="M 446.666183 42.539709 
L 445.666183 42.508273 
L 444.666183 42.471332 
L 443.666183 42.373586 
L 442.666183 42.341064 
L 441.666183 42.267439 
L 440.666183 42.228874 
L 439.666183 42.193461 
L 438.666183 42.135821 
L 437.666183 42.065434 
L 436.666183 42.01347 
L 435.666183 41.95438 
L 434.666183 41.86606 
L 433.666183 41.819915 
L 432.666183 41.777504 
L 431.666183 41.747012 
L 430.666183 41.720967 
L 429.666183 41.699767 
L 428.666183 41.645465 
L 427.666183 41.617528 
L 426.666183 41.587804 
L 425.666183 41.562409 
L 424.666183 41.551209 
L 423.666183 41.541085 
L 422.666183 41.541289 
L 421.666183 41.550799 
L 420.666183 41.562453 
L 419.666183 41.593482 
L 418.666183 41.60465 
L 417.666183 41.634767 
L 416.666183 41.694544 
L 415.666183 41.731736 
L 414.666183 41.770832 
L 413.666183 41.813271 
L 412.666183 41.846037 
L 411.666183 41.913463 
L 410.666183 41.952589 
L 409.666183 41.995263 
L 408.666183 42.065844 
L 407.666183 42.102235 
L 406.666183 42.160638 
L 405.666183 42.271591 
L 404.666183 42.342249 
L 403.666183 42.455189 
L 402.666183 42.500962 
L 401.666183 42.562245 
L 400.666183 42.610744 
L 399.666183 42.691567 
L 398.666183 42.810086 
L 397.666183 42.880297 
L 396.666183 42.963559 
L 395.666183 42.996701 
L 394.666183 43.047938 
L 393.666183 43.116336 
L 392.666183 43.182552 
L 391.666183 43.259469 
L 390.34593 43.286784 
" clip-path="url(#pc7d99c1850)" style="fill: none; stroke: #2ca02c; stroke-opacity: 0.5; stroke-width: 0.2; stroke-linecap: square"/>
   <path d="M 446.666183 30.203186 
L 445.666183 30.171749 
L 444.666183 30.134809 
L 443.666183 30.037062 
L 442.666183 30.004541 
L 441.666183 29.930916 
L 440.666183 29.89235 
L 439.666183 29.856937 
L 438.666183 29.799297 
L 437.666183 29.728911 
L 436.666183 29.676947 
L 435.666183 29.617857 
L 434.666183 29.529536 
L 433.666183 29.483392 
L 432.666183 29.440981 
L 431.666183 29.410488 
L 430.666183 29.384443 
L 429.666183 29.363243 
L 428.666183 29.308942 
L 427.666183 29.281005 
L 426.666183 29.251281 
L 425.666183 29.225886 
L 424.666183 29.214685 
L 423.666183 29.204561 
L 422.666183 29.204766 
L 421.666183 29.214276 
L 420.666183 29.225929 
L 419.666183 29.256958 
L 418.666183 29.268126 
L 417.666183 29.298244 
L 416.666183 29.358021 
L 415.666183 29.395212 
L 414.666183 29.434308 
L 413.666183 29.476748 
L 412.666183 29.509513 
L 411.666183 29.57694 
L 410.666183 29.616066 
L 409.666183 29.65874 
L 408.666183 29.729321 
L 407.666183 29.765712 
L 406.666183 29.824115 
L 405.666183 29.935067 
L 404.666183 30.005726 
L 403.666183 30.118665 
L 402.666183 30.164438 
L 401.666183 30.225722 
L 400.666183 30.274221 
L 399.666183 30.355044 
L 398.666183 30.473563 
L 397.666183 30.543773 
L 396.666183 30.627036 
L 395.666183 30.660177 
L 394.666183 30.711415 
L 393.666183 30.779813 
L 392.666183 30.846029 
L 391.666183 30.922946 
L 390.34593 30.950261 
" clip-path="url(#pc7d99c1850)" style="fill: none; stroke: #2ca02c; stroke-opacity: 0.5; stroke-width: 0.2; stroke-linecap: square"/>
   <g id="patch_3">
    <path d="M 72.103551 22.318125 
L 72.103551 318.021875 
M 194.769098 22.318125 
L 194.769098 318.021875 
" clip-path="url(#pc7d99c1850)" style="fill: none; stroke: #ffffff; stroke-width: 3; stroke-linejoin: miter"/>
    <path d="M 72.103551 22.318125 
L 72.103551 318.021875 
M 194.769098 22.318125 
L 194.769098 318.021875 
" clip-path="url(#pc7d99c1850)" style="fill: none; stroke: #1f77b4; stroke-linejoin: miter"/>
    <g id="PolyCollection_1">
     <path d="M 194.769098 22.318125 
L 72.103551 22.318125 
L 72.103551 318.021875 
L 194.769098 318.021875 
L 194.769098 318.021875 
L 194.769098 22.318125 
z
" clip-path="url(#pc7d99c1850)" style="fill: #1f77b4; fill-opacity: 0.5"/>
    </g>
    <g id="patch_4">
     <path d="M 262.150039 22.318125 
L 262.150039 318.021875 
M 384.815586 22.318125 
L 384.815586 318.021875 
" clip-path="url(#pc7d99c1850)" style="fill: none; stroke: #ffffff; stroke-width: 3; stroke-linejoin: miter"/>
     <path d="M 262.150039 22.318125 
L 262.150039 318.021875 
M 384.815586 22.318125 
L 384.815586 318.021875 
" clip-path="url(#pc7d99c1850)" style="fill: none; stroke: #ff7f0e; stroke-linejoin: miter"/>
     <g id="PolyCollection_2">
      <path d="M 384.815586 22.318125 
L 262.150039 22.318125 
L 262.150039 318.021875 
L 384.815586 318.021875 
L 384.815586 318.021875 
L 384.815586 22.318125 
z
" clip-path="url(#pc7d99c1850)" style="fill: #ff7f0e; fill-opacity: 0.5"/>
     </g>
     <g id="patch_5">
      <path d="M 452.196527 22.318125 
L 452.196527 318.021875 
M 574.862074 22.318125 
L 574.862074 318.021875 
" clip-path="url(#pc7d99c1850)" style="fill: none; stroke: #ffffff; stroke-width: 3; stroke-linejoin: miter"/>
      <path d="M 452.196527 22.318125 
L 452.196527 318.021875 
M 574.862074 22.318125 
L 574.862074 318.021875 
" clip-path="url(#pc7d99c1850)" style="fill: none; stroke: #2ca02c; stroke-linejoin: miter"/>
      <g id="PolyCollection_3">
       <path d="M 574.862074 22.318125 
L 452.196527 22.318125 
L 452.196527 318.021875 
L 574.862074 318.021875 
L 574.862074 318.021875 
L 574.862074 22.318125 
z
" clip-path="url(#pc7d99c1850)" style="fill: #2ca02c; fill-opacity: 0.5"/>
      </g>
      <g id="matplotlib.axis_1">
       <g id="xtick_1">
        <g id="line2d_1"/>
        <g id="text_1">
         <!-- deme1 -->
         <g transform="translate(116.057418 329.120312) scale(0.1 -0.1)">
          <defs>
           <path id="DejaVuSans-64" d="M 2906 2969 
L 2906 4863 
L 3481 4863 
L 3481 0 
L 2906 0 
L 2906 525 
Q 2725 213 2448 61 
Q 2172 -91 1784 -91 
Q 1150 -91 751 415 
Q 353 922 353 1747 
Q 353 2572 751 3078 
Q 1150 3584 1784 3584 
Q 2172 3584 2448 3432 
Q 2725 3281 2906 2969 
z
M 947 1747 
Q 947 1113 1208 752 
Q 1469 391 1925 391 
Q 2381 391 2643 752 
Q 2906 1113 2906 1747 
Q 2906 2381 2643 2742 
Q 2381 3103 1925 3103 
Q 1469 3103 1208 2742 
Q 947 2381 947 1747 
z
" transform="scale(0.015625)"/>
           <path id="DejaVuSans-65" d="M 3597 1894 
L 3597 1613 
L 953 1613 
Q 991 1019 1311 708 
Q 1631 397 2203 397 
Q 2534 397 2845 478 
Q 3156 559 3463 722 
L 3463 178 
Q 3153 47 2828 -22 
Q 2503 -91 2169 -91 
Q 1331 -91 842 396 
Q 353 884 353 1716 
Q 353 2575 817 3079 
Q 1281 3584 2069 3584 
Q 2775 3584 3186 3129 
Q 3597 2675 3597 1894 
z
M 3022 2063 
Q 3016 2534 2758 2815 
Q 2500 3097 2075 3097 
Q 1594 3097 1305 2825 
Q 1016 2553 972 2059 
L 3022 2063 
z
" transform="scale(0.015625)"/>
           <path id="DejaVuSans-6d" d="M 3328 2828 
Q 3544 3216 3844 3400 
Q 4144 3584 4550 3584 
Q 5097 3584 5394 3201 
Q 5691 2819 5691 2113 
L 5691 0 
L 5113 0 
L 5113 2094 
Q 5113 2597 4934 2840 
Q 4756 3084 4391 3084 
Q 3944 3084 3684 2787 
Q 3425 2491 3425 1978 
L 3425 0 
L 2847 0 
L 2847 2094 
Q 2847 2600 2669 2842 
Q 2491 3084 2119 3084 
Q 1678 3084 1418 2786 
Q 1159 2488 1159 1978 
L 1159 0 
L 581 0 
L 581 3500 
L 1159 3500 
L 1159 2956 
Q 1356 3278 1631 3431 
Q 1906 3584 2284 3584 
Q 2666 3584 2933 3390 
Q 3200 3197 3328 2828 
z
" transform="scale(0.015625)"/>
           <path id="DejaVuSans-31" d="M 794 531 
L 1825 531 
L 1825 4091 
L 703 3866 
L 703 4441 
L 1819 4666 
L 2450 4666 
L 2450 531 
L 3481 531 
L 3481 0 
L 794 0 
L 794 531 
z
" transform="scale(0.015625)"/>
          </defs>
          <use xlink:href="#DejaVuSans-64"/>
          <use xlink:href="#DejaVuSans-65" x="63.476562"/>
          <use xlink:href="#DejaVuSans-6d" x="125"/>
          <use xlink:href="#DejaVuSans-65" x="222.412109"/>
          <use xlink:href="#DejaVuSans-31" x="283.935547"/>
         </g>
        </g>
       </g>
       <g id="xtick_2">
        <g id="line2d_2"/>
        <g id="text_2">
         <!-- deme2 -->
         <g transform="translate(306.103906 329.120312) scale(0.1 -0.1)">
          <defs>
           <path id="DejaVuSans-32" d="M 1228 531 
L 3431 531 
L 3431 0 
L 469 0 
L 469 531 
Q 828 903 1448 1529 
Q 2069 2156 2228 2338 
Q 2531 2678 2651 2914 
Q 2772 3150 2772 3378 
Q 2772 3750 2511 3984 
Q 2250 4219 1831 4219 
Q 1534 4219 1204 4116 
Q 875 4013 500 3803 
L 500 4441 
Q 881 4594 1212 4672 
Q 1544 4750 1819 4750 
Q 2544 4750 2975 4387 
Q 3406 4025 3406 3419 
Q 3406 3131 3298 2873 
Q 3191 2616 2906 2266 
Q 2828 2175 2409 1742 
Q 1991 1309 1228 531 
z
" transform="scale(0.015625)"/>
          </defs>
          <use xlink:href="#DejaVuSans-64"/>
          <use xlink:href="#DejaVuSans-65" x="63.476562"/>
          <use xlink:href="#DejaVuSans-6d" x="125"/>
          <use xlink:href="#DejaVuSans-65" x="222.412109"/>
          <use xlink:href="#DejaVuSans-32" x="283.935547"/>
         </g>
        </g>
       </g>
       <g id="xtick_3">
        <g id="line2d_3"/>
        <g id="text_3">
         <!-- deme3 -->
         <g transform="translate(496.150394 329.120312) scale(0.1 -0.1)">
          <defs>
           <path id="DejaVuSans-33" d="M 2597 2516 
Q 3050 2419 3304 2112 
Q 3559 1806 3559 1356 
Q 3559 666 3084 287 
Q 2609 -91 1734 -91 
Q 1441 -91 1130 -33 
Q 819 25 488 141 
L 488 750 
Q 750 597 1062 519 
Q 1375 441 1716 441 
Q 2309 441 2620 675 
Q 2931 909 2931 1356 
Q 2931 1769 2642 2001 
Q 2353 2234 1838 2234 
L 1294 2234 
L 1294 2753 
L 1863 2753 
Q 2328 2753 2575 2939 
Q 2822 3125 2822 3475 
Q 2822 3834 2567 4026 
Q 2313 4219 1838 4219 
Q 1578 4219 1281 4162 
Q 984 4106 628 3988 
L 628 4550 
Q 988 4650 1302 4700 
Q 1616 4750 1894 4750 
Q 2613 4750 3031 4423 
Q 3450 4097 3450 3541 
Q 3450 3153 3228 2886 
Q 3006 2619 2597 2516 
z
" transform="scale(0.015625)"/>
          </defs>
          <use xlink:href="#DejaVuSans-64"/>
          <use xlink:href="#DejaVuSans-65" x="63.476562"/>
          <use xlink:href="#DejaVuSans-6d" x="125"/>
          <use xlink:href="#DejaVuSans-65" x="222.412109"/>
          <use xlink:href="#DejaVuSans-33" x="283.935547"/>
         </g>
        </g>
       </g>
      </g>
      <g id="matplotlib.axis_2">
       <g id="ytick_1">
        <g id="line2d_4">
         <defs>
          <path id="maf046a1ae5" d="M 0 0 
L -3.5 0 
" style="stroke: #000000; stroke-width: 0.8"/>
         </defs>
         <g>
          <use xlink:href="#maf046a1ae5" x="46.965625" y="318.021875" style="stroke: #000000; stroke-width: 0.8"/>
         </g>
        </g>
        <g id="text_4">
         <!-- 0 -->
         <g transform="translate(33.603125 321.821094) scale(0.1 -0.1)">
          <defs>
           <path id="DejaVuSans-30" d="M 2034 4250 
Q 1547 4250 1301 3770 
Q 1056 3291 1056 2328 
Q 1056 1369 1301 889 
Q 1547 409 2034 409 
Q 2525 409 2770 889 
Q 3016 1369 3016 2328 
Q 3016 3291 2770 3770 
Q 2525 4250 2034 4250 
z
M 2034 4750 
Q 2819 4750 3233 4129 
Q 3647 3509 3647 2328 
Q 3647 1150 3233 529 
Q 2819 -91 2034 -91 
Q 1250 -91 836 529 
Q 422 1150 422 2328 
Q 422 3509 836 4129 
Q 1250 4750 2034 4750 
z
" transform="scale(0.015625)"/>
          </defs>
          <use xlink:href="#DejaVuSans-30"/>
         </g>
        </g>
       </g>
       <g id="ytick_2">
        <g id="line2d_5">
         <g>
          <use xlink:href="#maf046a1ae5" x="46.965625" y="265.684928" style="stroke: #000000; stroke-width: 0.8"/>
         </g>
        </g>
        <g id="text_5">
         <!-- 20 -->
         <g transform="translate(27.240625 269.484147) scale(0.1 -0.1)">
          <use xlink:href="#DejaVuSans-32"/>
          <use xlink:href="#DejaVuSans-30" x="63.623047"/>
         </g>
        </g>
       </g>
       <g id="ytick_3">
        <g id="line2d_6">
         <g>
          <use xlink:href="#maf046a1ae5" x="46.965625" y="213.347981" style="stroke: #000000; stroke-width: 0.8"/>
         </g>
        </g>
        <g id="text_6">
         <!-- 40 -->
         <g transform="translate(27.240625 217.1472) scale(0.1 -0.1)">
          <defs>
           <path id="DejaVuSans-34" d="M 2419 4116 
L 825 1625 
L 2419 1625 
L 2419 4116 
z
M 2253 4666 
L 3047 4666 
L 3047 1625 
L 3713 1625 
L 3713 1100 
L 3047 1100 
L 3047 0 
L 2419 0 
L 2419 1100 
L 313 1100 
L 313 1709 
L 2253 4666 
z
" transform="scale(0.015625)"/>
          </defs>
          <use xlink:href="#DejaVuSans-34"/>
          <use xlink:href="#DejaVuSans-30" x="63.623047"/>
         </g>
        </g>
       </g>
       <g id="ytick_4">
        <g id="line2d_7">
         <g>
          <use xlink:href="#maf046a1ae5" x="46.965625" y="161.011034" style="stroke: #000000; stroke-width: 0.8"/>
         </g>
        </g>
        <g id="text_7">
         <!-- 60 -->
         <g transform="translate(27.240625 164.810253) scale(0.1 -0.1)">
          <defs>
           <path id="DejaVuSans-36" d="M 2113 2584 
Q 1688 2584 1439 2293 
Q 1191 2003 1191 1497 
Q 1191 994 1439 701 
Q 1688 409 2113 409 
Q 2538 409 2786 701 
Q 3034 994 3034 1497 
Q 3034 2003 2786 2293 
Q 2538 2584 2113 2584 
z
M 3366 4563 
L 3366 3988 
Q 3128 4100 2886 4159 
Q 2644 4219 2406 4219 
Q 1781 4219 1451 3797 
Q 1122 3375 1075 2522 
Q 1259 2794 1537 2939 
Q 1816 3084 2150 3084 
Q 2853 3084 3261 2657 
Q 3669 2231 3669 1497 
Q 3669 778 3244 343 
Q 2819 -91 2113 -91 
Q 1303 -91 875 529 
Q 447 1150 447 2328 
Q 447 3434 972 4092 
Q 1497 4750 2381 4750 
Q 2619 4750 2861 4703 
Q 3103 4656 3366 4563 
z
" transform="scale(0.015625)"/>
          </defs>
          <use xlink:href="#DejaVuSans-36"/>
          <use xlink:href="#DejaVuSans-30" x="63.623047"/>
         </g>
        </g>
       </g>
       <g id="ytick_5">
        <g id="line2d_8">
         <g>
          <use xlink:href="#maf046a1ae5" x="46.965625" y="108.674087" style="stroke: #000000; stroke-width: 0.8"/>
         </g>
        </g>
        <g id="text_8">
         <!-- 80 -->
         <g transform="translate(27.240625 112.473306) scale(0.1 -0.1)">
          <defs>
           <path id="DejaVuSans-38" d="M 2034 2216 
Q 1584 2216 1326 1975 
Q 1069 1734 1069 1313 
Q 1069 891 1326 650 
Q 1584 409 2034 409 
Q 2484 409 2743 651 
Q 3003 894 3003 1313 
Q 3003 1734 2745 1975 
Q 2488 2216 2034 2216 
z
M 1403 2484 
Q 997 2584 770 2862 
Q 544 3141 544 3541 
Q 544 4100 942 4425 
Q 1341 4750 2034 4750 
Q 2731 4750 3128 4425 
Q 3525 4100 3525 3541 
Q 3525 3141 3298 2862 
Q 3072 2584 2669 2484 
Q 3125 2378 3379 2068 
Q 3634 1759 3634 1313 
Q 3634 634 3220 271 
Q 2806 -91 2034 -91 
Q 1263 -91 848 271 
Q 434 634 434 1313 
Q 434 1759 690 2068 
Q 947 2378 1403 2484 
z
M 1172 3481 
Q 1172 3119 1398 2916 
Q 1625 2713 2034 2713 
Q 2441 2713 2670 2916 
Q 2900 3119 2900 3481 
Q 2900 3844 2670 4047 
Q 2441 4250 2034 4250 
Q 1625 4250 1398 4047 
Q 1172 3844 1172 3481 
z
" transform="scale(0.015625)"/>
          </defs>
          <use xlink:href="#DejaVuSans-38"/>
          <use xlink:href="#DejaVuSans-30" x="63.623047"/>
         </g>
        </g>
       </g>
       <g id="ytick_6">
        <g id="line2d_9">
         <g>
          <use xlink:href="#maf046a1ae5" x="46.965625" y="56.33714" style="stroke: #000000; stroke-width: 0.8"/>
         </g>
        </g>
        <g id="text_9">
         <!-- 100 -->
         <g transform="translate(20.878125 60.136359) scale(0.1 -0.1)">
          <use xlink:href="#DejaVuSans-31"/>
          <use xlink:href="#DejaVuSans-30" x="63.623047"/>
          <use xlink:href="#DejaVuSans-30" x="127.246094"/>
         </g>
        </g>
       </g>
       <g id="text_10">
        <!-- time ago (years) -->
        <g transform="translate(14.798437 211.603594) rotate(-90) scale(0.1 -0.1)">
         <defs>
          <path id="DejaVuSans-74" d="M 1172 4494 
L 1172 3500 
L 2356 3500 
L 2356 3053 
L 1172 3053 
L 1172 1153 
Q 1172 725 1289 603 
Q 1406 481 1766 481 
L 2356 481 
L 2356 0 
L 1766 0 
Q 1100 0 847 248 
Q 594 497 594 1153 
L 594 3053 
L 172 3053 
L 172 3500 
L 594 3500 
L 594 4494 
L 1172 4494 
z
" transform="scale(0.015625)"/>
          <path id="DejaVuSans-69" d="M 603 3500 
L 1178 3500 
L 1178 0 
L 603 0 
L 603 3500 
z
M 603 4863 
L 1178 4863 
L 1178 4134 
L 603 4134 
L 603 4863 
z
" transform="scale(0.015625)"/>
          <path id="DejaVuSans-20" transform="scale(0.015625)"/>
          <path id="DejaVuSans-61" d="M 2194 1759 
Q 1497 1759 1228 1600 
Q 959 1441 959 1056 
Q 959 750 1161 570 
Q 1363 391 1709 391 
Q 2188 391 2477 730 
Q 2766 1069 2766 1631 
L 2766 1759 
L 2194 1759 
z
M 3341 1997 
L 3341 0 
L 2766 0 
L 2766 531 
Q 2569 213 2275 61 
Q 1981 -91 1556 -91 
Q 1019 -91 701 211 
Q 384 513 384 1019 
Q 384 1609 779 1909 
Q 1175 2209 1959 2209 
L 2766 2209 
L 2766 2266 
Q 2766 2663 2505 2880 
Q 2244 3097 1772 3097 
Q 1472 3097 1187 3025 
Q 903 2953 641 2809 
L 641 3341 
Q 956 3463 1253 3523 
Q 1550 3584 1831 3584 
Q 2591 3584 2966 3190 
Q 3341 2797 3341 1997 
z
" transform="scale(0.015625)"/>
          <path id="DejaVuSans-67" d="M 2906 1791 
Q 2906 2416 2648 2759 
Q 2391 3103 1925 3103 
Q 1463 3103 1205 2759 
Q 947 2416 947 1791 
Q 947 1169 1205 825 
Q 1463 481 1925 481 
Q 2391 481 2648 825 
Q 2906 1169 2906 1791 
z
M 3481 434 
Q 3481 -459 3084 -895 
Q 2688 -1331 1869 -1331 
Q 1566 -1331 1297 -1286 
Q 1028 -1241 775 -1147 
L 775 -588 
Q 1028 -725 1275 -790 
Q 1522 -856 1778 -856 
Q 2344 -856 2625 -561 
Q 2906 -266 2906 331 
L 2906 616 
Q 2728 306 2450 153 
Q 2172 0 1784 0 
Q 1141 0 747 490 
Q 353 981 353 1791 
Q 353 2603 747 3093 
Q 1141 3584 1784 3584 
Q 2172 3584 2450 3431 
Q 2728 3278 2906 2969 
L 2906 3500 
L 3481 3500 
L 3481 434 
z
" transform="scale(0.015625)"/>
          <path id="DejaVuSans-6f" d="M 1959 3097 
Q 1497 3097 1228 2736 
Q 959 2375 959 1747 
Q 959 1119 1226 758 
Q 1494 397 1959 397 
Q 2419 397 2687 759 
Q 2956 1122 2956 1747 
Q 2956 2369 2687 2733 
Q 2419 3097 1959 3097 
z
M 1959 3584 
Q 2709 3584 3137 3096 
Q 3566 2609 3566 1747 
Q 3566 888 3137 398 
Q 2709 -91 1959 -91 
Q 1206 -91 779 398 
Q 353 888 353 1747 
Q 353 2609 779 3096 
Q 1206 3584 1959 3584 
z
" transform="scale(0.015625)"/>
          <path id="DejaVuSans-28" d="M 1984 4856 
Q 1566 4138 1362 3434 
Q 1159 2731 1159 2009 
Q 1159 1288 1364 580 
Q 1569 -128 1984 -844 
L 1484 -844 
Q 1016 -109 783 600 
Q 550 1309 550 2009 
Q 550 2706 781 3412 
Q 1013 4119 1484 4856 
L 1984 4856 
z
" transform="scale(0.015625)"/>
          <path id="DejaVuSans-79" d="M 2059 -325 
Q 1816 -950 1584 -1140 
Q 1353 -1331 966 -1331 
L 506 -1331 
L 506 -850 
L 844 -850 
Q 1081 -850 1212 -737 
Q 1344 -625 1503 -206 
L 1606 56 
L 191 3500 
L 800 3500 
L 1894 763 
L 2988 3500 
L 3597 3500 
L 2059 -325 
z
" transform="scale(0.015625)"/>
          <path id="DejaVuSans-72" d="M 2631 2963 
Q 2534 3019 2420 3045 
Q 2306 3072 2169 3072 
Q 1681 3072 1420 2755 
Q 1159 2438 1159 1844 
L 1159 0 
L 581 0 
L 581 3500 
L 1159 3500 
L 1159 2956 
Q 1341 3275 1631 3429 
Q 1922 3584 2338 3584 
Q 2397 3584 2469 3576 
Q 2541 3569 2628 3553 
L 2631 2963 
z
" transform="scale(0.015625)"/>
          <path id="DejaVuSans-73" d="M 2834 3397 
L 2834 2853 
Q 2591 2978 2328 3040 
Q 2066 3103 1784 3103 
Q 1356 3103 1142 2972 
Q 928 2841 928 2578 
Q 928 2378 1081 2264 
Q 1234 2150 1697 2047 
L 1894 2003 
Q 2506 1872 2764 1633 
Q 3022 1394 3022 966 
Q 3022 478 2636 193 
Q 2250 -91 1575 -91 
Q 1294 -91 989 -36 
Q 684 19 347 128 
L 347 722 
Q 666 556 975 473 
Q 1284 391 1588 391 
Q 1994 391 2212 530 
Q 2431 669 2431 922 
Q 2431 1156 2273 1281 
Q 2116 1406 1581 1522 
L 1381 1569 
Q 847 1681 609 1914 
Q 372 2147 372 2553 
Q 372 3047 722 3315 
Q 1072 3584 1716 3584 
Q 2034 3584 2315 3537 
Q 2597 3491 2834 3397 
z
" transform="scale(0.015625)"/>
          <path id="DejaVuSans-29" d="M 513 4856 
L 1013 4856 
Q 1481 4119 1714 3412 
Q 1947 2706 1947 2009 
Q 1947 1309 1714 600 
Q 1481 -109 1013 -844 
L 513 -844 
Q 928 -128 1133 580 
Q 1338 1288 1338 2009 
Q 1338 2731 1133 3434 
Q 928 4138 513 4856 
z
" transform="scale(0.015625)"/>
         </defs>
         <use xlink:href="#DejaVuSans-74"/>
         <use xlink:href="#DejaVuSans-69" x="39.208984"/>
         <use xlink:href="#DejaVuSans-6d" x="66.992188"/>
         <use xlink:href="#DejaVuSans-65" x="164.404297"/>
         <use xlink:href="#DejaVuSans-20" x="225.927734"/>
         <use xlink:href="#DejaVuSans-61" x="257.714844"/>
         <use xlink:href="#DejaVuSans-67" x="318.994141"/>
         <use xlink:href="#DejaVuSans-6f" x="382.470703"/>
         <use xlink:href="#DejaVuSans-20" x="443.652344"/>
         <use xlink:href="#DejaVuSans-28" x="475.439453"/>
         <use xlink:href="#DejaVuSans-79" x="514.453125"/>
         <use xlink:href="#DejaVuSans-65" x="573.632812"/>
         <use xlink:href="#DejaVuSans-61" x="635.15625"/>
         <use xlink:href="#DejaVuSans-72" x="696.435547"/>
         <use xlink:href="#DejaVuSans-73" x="737.548828"/>
         <use xlink:href="#DejaVuSans-29" x="789.648438"/>
        </g>
       </g>
      </g>
      <path d="M 257.619695 24.066888 
L 255.619695 23.066888 
L 255.619695 25.066888 
z
" clip-path="url(#pc7d99c1850)" style="fill: #1f77b4; fill-opacity: 0.5; stroke: #1f77b4; stroke-opacity: 0.5; stroke-linejoin: miter"/>
      <path d="M 257.619695 55.364209 
L 255.619695 54.364209 
L 255.619695 56.364209 
z
" clip-path="url(#pc7d99c1850)" style="fill: #1f77b4; fill-opacity: 0.5; stroke: #1f77b4; stroke-opacity: 0.5; stroke-linejoin: miter"/>
      <path d="M 257.619695 29.258895 
L 255.619695 28.258895 
L 255.619695 30.258895 
z
" clip-path="url(#pc7d99c1850)" style="fill: #1f77b4; fill-opacity: 0.5; stroke: #1f77b4; stroke-opacity: 0.5; stroke-linejoin: miter"/>
      <path d="M 257.619695 120.176424 
L 255.619695 119.176424 
L 255.619695 121.176424 
z
" clip-path="url(#pc7d99c1850)" style="fill: #1f77b4; fill-opacity: 0.5; stroke: #1f77b4; stroke-opacity: 0.5; stroke-linejoin: miter"/>
      <path d="M 257.619695 85.690929 
L 255.619695 84.690929 
L 255.619695 86.690929 
z
" clip-path="url(#pc7d99c1850)" style="fill: #1f77b4; fill-opacity: 0.5; stroke: #1f77b4; stroke-opacity: 0.5; stroke-linejoin: miter"/>
      <path d="M 257.619695 150.429283 
L 255.619695 149.429283 
L 255.619695 151.429283 
z
" clip-path="url(#pc7d99c1850)" style="fill: #1f77b4; fill-opacity: 0.5; stroke: #1f77b4; stroke-opacity: 0.5; stroke-linejoin: miter"/>
      <path d="M 257.619695 109.497652 
L 255.619695 108.497652 
L 255.619695 110.497652 
z
" clip-path="url(#pc7d99c1850)" style="fill: #1f77b4; fill-opacity: 0.5; stroke: #1f77b4; stroke-opacity: 0.5; stroke-linejoin: miter"/>
      <path d="M 257.619695 258.914264 
L 255.619695 257.914264 
L 255.619695 259.914264 
z
" clip-path="url(#pc7d99c1850)" style="fill: #1f77b4; fill-opacity: 0.5; stroke: #1f77b4; stroke-opacity: 0.5; stroke-linejoin: miter"/>
      <path d="M 257.619695 124.397774 
L 255.619695 123.397774 
L 255.619695 125.397774 
z
" clip-path="url(#pc7d99c1850)" style="fill: #1f77b4; fill-opacity: 0.5; stroke: #1f77b4; stroke-opacity: 0.5; stroke-linejoin: miter"/>
      <path d="M 257.619695 217.973208 
L 255.619695 216.973208 
L 255.619695 218.973208 
z
" clip-path="url(#pc7d99c1850)" style="fill: #1f77b4; fill-opacity: 0.5; stroke: #1f77b4; stroke-opacity: 0.5; stroke-linejoin: miter"/>
      <path d="M 199.299442 235.990135 
L 201.299442 236.990135 
L 201.299442 234.990135 
z
" clip-path="url(#pc7d99c1850)" style="fill: #ff7f0e; fill-opacity: 0.5; stroke: #ff7f0e; stroke-opacity: 0.5; stroke-linejoin: miter"/>
      <path d="M 199.299442 299.762817 
L 201.299442 300.762817 
L 201.299442 298.762817 
z
" clip-path="url(#pc7d99c1850)" style="fill: #ff7f0e; fill-opacity: 0.5; stroke: #ff7f0e; stroke-opacity: 0.5; stroke-linejoin: miter"/>
      <path d="M 199.299442 224.265799 
L 201.299442 225.265799 
L 201.299442 223.265799 
z
" clip-path="url(#pc7d99c1850)" style="fill: #ff7f0e; fill-opacity: 0.5; stroke: #ff7f0e; stroke-opacity: 0.5; stroke-linejoin: miter"/>
      <path d="M 199.299442 250.183247 
L 201.299442 251.183247 
L 201.299442 249.183247 
z
" clip-path="url(#pc7d99c1850)" style="fill: #ff7f0e; fill-opacity: 0.5; stroke: #ff7f0e; stroke-opacity: 0.5; stroke-linejoin: miter"/>
      <path d="M 199.299442 87.079353 
L 201.299442 88.079353 
L 201.299442 86.079353 
z
" clip-path="url(#pc7d99c1850)" style="fill: #ff7f0e; fill-opacity: 0.5; stroke: #ff7f0e; stroke-opacity: 0.5; stroke-linejoin: miter"/>
      <path d="M 199.299442 169.102978 
L 201.299442 170.102978 
L 201.299442 168.102978 
z
" clip-path="url(#pc7d99c1850)" style="fill: #ff7f0e; fill-opacity: 0.5; stroke: #ff7f0e; stroke-opacity: 0.5; stroke-linejoin: miter"/>
      <path d="M 199.299442 45.980876 
L 201.299442 46.980876 
L 201.299442 44.980876 
z
" clip-path="url(#pc7d99c1850)" style="fill: #ff7f0e; fill-opacity: 0.5; stroke: #ff7f0e; stroke-opacity: 0.5; stroke-linejoin: miter"/>
      <path d="M 199.299442 306.217555 
L 201.299442 307.217555 
L 201.299442 305.217555 
z
" clip-path="url(#pc7d99c1850)" style="fill: #ff7f0e; fill-opacity: 0.5; stroke: #ff7f0e; stroke-opacity: 0.5; stroke-linejoin: miter"/>
      <path d="M 199.299442 171.013565 
L 201.299442 172.013565 
L 201.299442 170.013565 
z
" clip-path="url(#pc7d99c1850)" style="fill: #ff7f0e; fill-opacity: 0.5; stroke: #ff7f0e; stroke-opacity: 0.5; stroke-linejoin: miter"/>
      <path d="M 199.299442 49.817497 
L 201.299442 50.817497 
L 201.299442 48.817497 
z
" clip-path="url(#pc7d99c1850)" style="fill: #ff7f0e; fill-opacity: 0.5; stroke: #ff7f0e; stroke-opacity: 0.5; stroke-linejoin: miter"/>
      <path d="M 447.666183 252.941902 
L 445.666183 251.941902 
L 445.666183 253.941902 
z
" clip-path="url(#pc7d99c1850)" style="fill: #ff7f0e; fill-opacity: 0.5; stroke: #ff7f0e; stroke-opacity: 0.5; stroke-linejoin: miter"/>
      <path d="M 447.666183 282.952682 
L 445.666183 281.952682 
L 445.666183 283.952682 
z
" clip-path="url(#pc7d99c1850)" style="fill: #ff7f0e; fill-opacity: 0.5; stroke: #ff7f0e; stroke-opacity: 0.5; stroke-linejoin: miter"/>
      <path d="M 447.666183 94.481029 
L 445.666183 93.481029 
L 445.666183 95.481029 
z
" clip-path="url(#pc7d99c1850)" style="fill: #ff7f0e; fill-opacity: 0.5; stroke: #ff7f0e; stroke-opacity: 0.5; stroke-linejoin: miter"/>
      <path d="M 447.666183 123.370207 
L 445.666183 122.370207 
L 445.666183 124.370207 
z
" clip-path="url(#pc7d99c1850)" style="fill: #ff7f0e; fill-opacity: 0.5; stroke: #ff7f0e; stroke-opacity: 0.5; stroke-linejoin: miter"/>
      <path d="M 447.666183 279.211966 
L 445.666183 278.211966 
L 445.666183 280.211966 
z
" clip-path="url(#pc7d99c1850)" style="fill: #ff7f0e; fill-opacity: 0.5; stroke: #ff7f0e; stroke-opacity: 0.5; stroke-linejoin: miter"/>
      <path d="M 447.666183 311.750678 
L 445.666183 310.750678 
L 445.666183 312.750678 
z
" clip-path="url(#pc7d99c1850)" style="fill: #ff7f0e; fill-opacity: 0.5; stroke: #ff7f0e; stroke-opacity: 0.5; stroke-linejoin: miter"/>
      <path d="M 447.666183 140.450046 
L 445.666183 139.450046 
L 445.666183 141.450046 
z
" clip-path="url(#pc7d99c1850)" style="fill: #ff7f0e; fill-opacity: 0.5; stroke: #ff7f0e; stroke-opacity: 0.5; stroke-linejoin: miter"/>
      <path d="M 447.666183 247.534158 
L 445.666183 246.534158 
L 445.666183 248.534158 
z
" clip-path="url(#pc7d99c1850)" style="fill: #ff7f0e; fill-opacity: 0.5; stroke: #ff7f0e; stroke-opacity: 0.5; stroke-linejoin: miter"/>
      <path d="M 447.666183 50.134501 
L 445.666183 49.134501 
L 445.666183 51.134501 
z
" clip-path="url(#pc7d99c1850)" style="fill: #ff7f0e; fill-opacity: 0.5; stroke: #ff7f0e; stroke-opacity: 0.5; stroke-linejoin: miter"/>
      <path d="M 447.666183 206.099522 
L 445.666183 205.099522 
L 445.666183 207.099522 
z
" clip-path="url(#pc7d99c1850)" style="fill: #ff7f0e; fill-opacity: 0.5; stroke: #ff7f0e; stroke-opacity: 0.5; stroke-linejoin: miter"/>
      <path d="M 389.34593 312.634417 
L 391.34593 313.634417 
L 391.34593 311.634417 
z
" clip-path="url(#pc7d99c1850)" style="fill: #2ca02c; fill-opacity: 0.5; stroke: #2ca02c; stroke-opacity: 0.5; stroke-linejoin: miter"/>
      <path d="M 389.34593 26.027522 
L 391.34593 27.027522 
L 391.34593 25.027522 
z
" clip-path="url(#pc7d99c1850)" style="fill: #2ca02c; fill-opacity: 0.5; stroke: #2ca02c; stroke-opacity: 0.5; stroke-linejoin: miter"/>
      <path d="M 389.34593 90.181916 
L 391.34593 91.181916 
L 391.34593 89.181916 
z
" clip-path="url(#pc7d99c1850)" style="fill: #2ca02c; fill-opacity: 0.5; stroke: #2ca02c; stroke-opacity: 0.5; stroke-linejoin: miter"/>
      <path d="M 389.34593 275.185454 
L 391.34593 276.185454 
L 391.34593 274.185454 
z
" clip-path="url(#pc7d99c1850)" style="fill: #2ca02c; fill-opacity: 0.5; stroke: #2ca02c; stroke-opacity: 0.5; stroke-linejoin: miter"/>
      <path d="M 389.34593 106.660866 
L 391.34593 107.660866 
L 391.34593 105.660866 
z
" clip-path="url(#pc7d99c1850)" style="fill: #2ca02c; fill-opacity: 0.5; stroke: #2ca02c; stroke-opacity: 0.5; stroke-linejoin: miter"/>
      <path d="M 389.34593 207.764635 
L 391.34593 208.764635 
L 391.34593 206.764635 
z
" clip-path="url(#pc7d99c1850)" style="fill: #2ca02c; fill-opacity: 0.5; stroke: #2ca02c; stroke-opacity: 0.5; stroke-linejoin: miter"/>
      <path d="M 389.34593 130.056258 
L 391.34593 131.056258 
L 391.34593 129.056258 
z
" clip-path="url(#pc7d99c1850)" style="fill: #2ca02c; fill-opacity: 0.5; stroke: #2ca02c; stroke-opacity: 0.5; stroke-linejoin: miter"/>
      <path d="M 389.34593 153.234166 
L 391.34593 154.234166 
L 391.34593 152.234166 
z
" clip-path="url(#pc7d99c1850)" style="fill: #2ca02c; fill-opacity: 0.5; stroke: #2ca02c; stroke-opacity: 0.5; stroke-linejoin: miter"/>
      <path d="M 389.34593 42.539709 
L 391.34593 43.539709 
L 391.34593 41.539709 
z
" clip-path="url(#pc7d99c1850)" style="fill: #2ca02c; fill-opacity: 0.5; stroke: #2ca02c; stroke-opacity: 0.5; stroke-linejoin: miter"/>
      <path d="M 389.34593 30.203186 
L 391.34593 31.203186 
L 391.34593 29.203186 
z
" clip-path="url(#pc7d99c1850)" style="fill: #2ca02c; fill-opacity: 0.5; stroke: #2ca02c; stroke-opacity: 0.5; stroke-linejoin: miter"/>
      <g id="patch_6">
       <path d="M 46.965625 318.021875 
L 46.965625 22.318125 
" style="fill: none; stroke: #000000; stroke-width: 0.8; stroke-linejoin: miter; stroke-linecap: square"/>
      </g>
      <g id="text_11">
       <!-- stepping_stone_model.yaml -->
       <g transform="translate(239.443437 16.318125) scale(0.12 -0.12)">
        <defs>
         <path id="DejaVuSans-70" d="M 1159 525 
L 1159 -1331 
L 581 -1331 
L 581 3500 
L 1159 3500 
L 1159 2969 
Q 1341 3281 1617 3432 
Q 1894 3584 2278 3584 
Q 2916 3584 3314 3078 
Q 3713 2572 3713 1747 
Q 3713 922 3314 415 
Q 2916 -91 2278 -91 
Q 1894 -91 1617 61 
Q 1341 213 1159 525 
z
M 3116 1747 
Q 3116 2381 2855 2742 
Q 2594 3103 2138 3103 
Q 1681 3103 1420 2742 
Q 1159 2381 1159 1747 
Q 1159 1113 1420 752 
Q 1681 391 2138 391 
Q 2594 391 2855 752 
Q 3116 1113 3116 1747 
z
" transform="scale(0.015625)"/>
         <path id="DejaVuSans-6e" d="M 3513 2113 
L 3513 0 
L 2938 0 
L 2938 2094 
Q 2938 2591 2744 2837 
Q 2550 3084 2163 3084 
Q 1697 3084 1428 2787 
Q 1159 2491 1159 1978 
L 1159 0 
L 581 0 
L 581 3500 
L 1159 3500 
L 1159 2956 
Q 1366 3272 1645 3428 
Q 1925 3584 2291 3584 
Q 2894 3584 3203 3211 
Q 3513 2838 3513 2113 
z
" transform="scale(0.015625)"/>
         <path id="DejaVuSans-5f" d="M 3263 -1063 
L 3263 -1509 
L -63 -1509 
L -63 -1063 
L 3263 -1063 
z
" transform="scale(0.015625)"/>
         <path id="DejaVuSans-6c" d="M 603 4863 
L 1178 4863 
L 1178 0 
L 603 0 
L 603 4863 
z
" transform="scale(0.015625)"/>
         <path id="DejaVuSans-2e" d="M 684 794 
L 1344 794 
L 1344 0 
L 684 0 
L 684 794 
z
" transform="scale(0.015625)"/>
        </defs>
        <use xlink:href="#DejaVuSans-73"/>
        <use xlink:href="#DejaVuSans-74" x="52.099609"/>
        <use xlink:href="#DejaVuSans-65" x="91.308594"/>
        <use xlink:href="#DejaVuSans-70" x="152.832031"/>
        <use xlink:href="#DejaVuSans-70" x="216.308594"/>
        <use xlink:href="#DejaVuSans-69" x="279.785156"/>
        <use xlink:href="#DejaVuSans-6e" x="307.568359"/>
        <use xlink:href="#DejaVuSans-67" x="370.947266"/>
        <use xlink:href="#DejaVuSans-5f" x="434.423828"/>
        <use xlink:href="#DejaVuSans-73" x="484.423828"/>
        <use xlink:href="#DejaVuSans-74" x="536.523438"/>
        <use xlink:href="#DejaVuSans-6f" x="575.732422"/>
        <use xlink:href="#DejaVuSans-6e" x="636.914062"/>
        <use xlink:href="#DejaVuSans-65" x="700.292969"/>
        <use xlink:href="#DejaVuSans-5f" x="761.816406"/>
        <use xlink:href="#DejaVuSans-6d" x="811.816406"/>
        <use xlink:href="#DejaVuSans-6f" x="909.228516"/>
        <use xlink:href="#DejaVuSans-64" x="970.410156"/>
        <use xlink:href="#DejaVuSans-65" x="1033.886719"/>
        <use xlink:href="#DejaVuSans-6c" x="1095.410156"/>
        <use xlink:href="#DejaVuSans-2e" x="1123.193359"/>
        <use xlink:href="#DejaVuSans-79" x="1154.980469"/>
        <use xlink:href="#DejaVuSans-61" x="1214.160156"/>
        <use xlink:href="#DejaVuSans-6d" x="1275.439453"/>
        <use xlink:href="#DejaVuSans-6c" x="1372.851562"/>
       </g>
      </g>
     </g>
    </g>
    <defs>
     <clipPath id="pc7d99c1850">
      <rect x="46.965625" y="22.318125" width="553.034375" height="295.70375"/>
     </clipPath>
    </defs>
   </g>
  </g>
 </g>
</svg>