<?xml version="1.0" encoding="utf-8" standalone="no"?>
<!DOCTYPE svg PUBLIC "-//W3C//DTD SVG 1.1//EN"
  "http://www.w3.org/Graphics/SVG/1.1/DTD/svg11.dtd">
<svg xmlns:xlink="http://www.w3.org/1999/xlink" width="607.2pt" height="338.4pt" viewBox="0 0 607.2 338.4" xmlns="http://www.w3.org/2000/svg" version="1.1">
 <metadata>
  <rdf:RDF xmlns:dc="http://purl.org/dc/elements/1.1/" xmlns:cc="http://creativecommons.org/ns#" xmlns:rdf="http://www.w3.org/1999/02/22-rdf-syntax-ns#">
   <cc:Work>
    <dc:type rdf:resource="http://purl.org/dc/dcmitype/StillImage"/>
    <dc:date>2023-10-09T09:03:44.431167</dc:date>
    <dc:format>image/svg+xml</dc:format>
    <dc:creator>
     <cc:Agent>
      <dc:title>Matplotlib v3.7.2, https://matplotlib.org/</dc:title>
     </cc:Agent>
    </dc:creator>
   </cc:Work>
  </rdf:RDF>
 </metadata>
 <defs>
  <style type="text/css">*{stroke-linejoin: round; stroke-linecap: butt}</style>
 </defs>
 <g id="figure_1">
  <g id="patch_1">
   <path d="M 0 338.4 
L 607.2 338.4 
L 607.2 0 
L 0 0 
z
" style="fill: #ffffff"/>
  </g>
  <g id="axes_1">
   <g id="patch_2">
    <path d="M 43.78125 318.021875 
L 600 318.021875 
L 600 22.318125 
L 43.78125 22.318125 
z
" style="fill: #ffffff"/>
   </g>
   <path d="M 197.982246 152.671688 
L 198.982246 152.703125 
L 199.982246 152.740065 
L 200.982246 152.837812 
L 201.982246 152.870333 
L 202.982246 152.943958 
L 203.982246 152.982524 
L 204.982246 153.017937 
L 205.982246 153.075577 
L 206.982246 153.145963 
L 207.982246 153.197927 
L 208.982246 153.257017 
L 209.982246 153.345338 
L 210.982246 153.391482 
L 211.982246 153.433893 
L 212.982246 153.464386 
L 213.982246 153.490431 
L 214.982246 153.511631 
L 215.982246 153.565932 
L 216.982246 153.593869 
L 217.982246 153.623593 
L 218.982246 153.648988 
L 219.982246 153.660189 
L 220.982246 153.670313 
L 221.982246 153.670108 
L 222.982246 153.660598 
L 223.982246 153.648945 
L 224.982246 153.617916 
L 225.982246 153.606748 
L 226.982246 153.57663 
L 227.982246 153.516853 
L 228.982246 153.479662 
L 229.982246 153.440566 
L 230.982246 153.398126 
L 231.982246 153.365361 
L 232.982246 153.297934 
L 233.982246 153.258808 
L 234.982246 153.216134 
L 235.982246 153.145553 
L 236.982246 153.109162 
L 237.982246 153.050759 
L 238.982246 152.939807 
L 239.982246 152.869148 
L 240.982246 152.756209 
L 241.982246 152.710436 
L 242.982246 152.649152 
L 243.982246 152.600653 
L 244.982246 152.51983 
L 245.982246 152.401311 
L 246.982246 152.331101 
L 247.982246 152.247838 
L 248.982246 152.214697 
L 249.982246 152.163459 
L 250.982246 152.095061 
L 251.982246 152.028845 
L 252.982246 151.951928 
L 254.650369 151.924613 
" clip-path="url(#pae3ff4ddfe)" style="fill: none; stroke: #1f77b4; stroke-opacity: 0.5; stroke-width: 0.2; stroke-linecap: square"/>
   <path d="M 197.982246 187.6006 
L 198.982246 187.632036 
L 199.982246 187.668976 
L 200.982246 187.766723 
L 201.982246 187.799245 
L 202.982246 187.872869 
L 203.982246 187.911435 
L 204.982246 187.946848 
L 205.982246 188.004488 
L 206.982246 188.074874 
L 207.982246 188.126838 
L 208.982246 188.185928 
L 209.982246 188.274249 
L 210.982246 188.320393 
L 211.982246 188.362804 
L 212.982246 188.393297 
L 213.982246 188.419342 
L 214.982246 188.440542 
L 215.982246 188.494843 
L 216.982246 188.522781 
L 217.982246 188.552505 
L 218.982246 188.577899 
L 219.982246 188.5891 
L 220.982246 188.599224 
L 221.982246 188.599019 
L 222.982246 188.58951 
L 223.982246 188.577856 
L 224.982246 188.546827 
L 225.982246 188.535659 
L 226.982246 188.505541 
L 227.982246 188.445764 
L 228.982246 188.408573 
L 229.982246 188.369477 
L 230.982246 188.327037 
L 231.982246 188.294272 
L 232.982246 188.226846 
L 233.982246 188.18772 
L 234.982246 188.145045 
L 235.982246 188.074464 
L 236.982246 188.038074 
L 237.982246 187.97967 
L 238.982246 187.868718 
L 239.982246 187.79806 
L 240.982246 187.68512 
L 241.982246 187.639347 
L 242.982246 187.578064 
L 243.982246 187.529564 
L 244.982246 187.448742 
L 245.982246 187.330223 
L 246.982246 187.260012 
L 247.982246 187.17675 
L 248.982246 187.143608 
L 249.982246 187.09237 
L 250.982246 187.023972 
L 251.982246 186.957757 
L 252.982246 186.88084 
L 254.650369 186.853524 
" clip-path="url(#pae3ff4ddfe)" style="fill: none; stroke: #1f77b4; stroke-opacity: 0.5; stroke-width: 0.2; stroke-linecap: square"/>
   <path d="M 197.982246 177.911429 
L 198.982246 177.942865 
L 199.982246 177.979805 
L 200.982246 178.077552 
L 201.982246 178.110073 
L 202.982246 178.183698 
L 203.982246 178.222264 
L 204.982246 178.257677 
L 205.982246 178.315317 
L 206.982246 178.385703 
L 207.982246 178.437667 
L 208.982246 178.496757 
L 209.982246 178.585078 
L 210.982246 178.631222 
L 211.982246 178.673633 
L 212.982246 178.704126 
L 213.982246 178.730171 
L 214.982246 178.751371 
L 215.982246 178.805672 
L 216.982246 178.83361 
L 217.982246 178.863334 
L 218.982246 178.888728 
L 219.982246 178.899929 
L 220.982246 178.910053 
L 221.982246 178.909848 
L 222.982246 178.900339 
L 223.982246 178.888685 
L 224.982246 178.857656 
L 225.982246 178.846488 
L 226.982246 178.81637 
L 227.982246 178.756593 
L 228.982246 178.719402 
L 229.982246 178.680306 
L 230.982246 178.637866 
L 231.982246 178.605101 
L 232.982246 178.537674 
L 233.982246 178.498549 
L 234.982246 178.455874 
L 235.982246 178.385293 
L 236.982246 178.348903 
L 237.982246 178.290499 
L 238.982246 178.179547 
L 239.982246 178.108888 
L 240.982246 177.995949 
L 241.982246 177.950176 
L 242.982246 177.888893 
L 243.982246 177.840393 
L 244.982246 177.759571 
L 245.982246 177.641052 
L 246.982246 177.570841 
L 247.982246 177.487578 
L 248.982246 177.454437 
L 249.982246 177.403199 
L 250.982246 177.334801 
L 251.982246 177.268586 
L 252.982246 177.191669 
L 254.650369 177.164353 
" clip-path="url(#pae3ff4ddfe)" style="fill: none; stroke: #1f77b4; stroke-opacity: 0.5; stroke-width: 0.2; stroke-linecap: square"/>
   <path d="M 197.982246 163.197124 
L 198.982246 163.22856 
L 199.982246 163.265501 
L 200.982246 163.363247 
L 201.982246 163.395769 
L 202.982246 163.469394 
L 203.982246 163.507959 
L 204.982246 163.543372 
L 205.982246 163.601012 
L 206.982246 163.671398 
L 207.982246 163.723363 
L 208.982246 163.782452 
L 209.982246 163.870773 
L 210.982246 163.916918 
L 211.982246 163.959329 
L 212.982246 163.989821 
L 213.982246 164.015866 
L 214.982246 164.037066 
L 215.982246 164.091367 
L 216.982246 164.119305 
L 217.982246 164.149029 
L 218.982246 164.174424 
L 219.982246 164.185624 
L 220.982246 164.195748 
L 221.982246 164.195544 
L 222.982246 164.186034 
L 223.982246 164.17438 
L 224.982246 164.143351 
L 225.982246 164.132183 
L 226.982246 164.102066 
L 227.982246 164.042289 
L 228.982246 164.005097 
L 229.982246 163.966001 
L 230.982246 163.923561 
L 231.982246 163.890796 
L 232.982246 163.82337 
L 233.982246 163.784244 
L 234.982246 163.741569 
L 235.982246 163.670989 
L 236.982246 163.634598 
L 237.982246 163.576195 
L 238.982246 163.465242 
L 239.982246 163.394584 
L 240.982246 163.281644 
L 241.982246 163.235871 
L 242.982246 163.174588 
L 243.982246 163.126089 
L 244.982246 163.045266 
L 245.982246 162.926747 
L 246.982246 162.856536 
L 247.982246 162.773274 
L 248.982246 162.740132 
L 249.982246 162.688895 
L 250.982246 162.620496 
L 251.982246 162.554281 
L 252.982246 162.477364 
L 254.650369 162.450049 
" clip-path="url(#pae3ff4ddfe)" style="fill: none; stroke: #1f77b4; stroke-opacity: 0.5; stroke-width: 0.2; stroke-linecap: square"/>
   <path d="M 197.982246 140.034289 
L 198.982246 140.065726 
L 199.982246 140.102666 
L 200.982246 140.200413 
L 201.982246 140.232934 
L 202.982246 140.306559 
L 203.982246 140.345124 
L 204.982246 140.380538 
L 205.982246 140.438178 
L 206.982246 140.508564 
L 207.982246 140.560528 
L 208.982246 140.619618 
L 209.982246 140.707939 
L 210.982246 140.754083 
L 211.982246 140.796494 
L 212.982246 140.826987 
L 213.982246 140.853031 
L 214.982246 140.874232 
L 215.982246 140.928533 
L 216.982246 140.95647 
L 217.982246 140.986194 
L 218.982246 141.011589 
L 219.982246 141.022789 
L 220.982246 141.032913 
L 221.982246 141.032709 
L 222.982246 141.023199 
L 223.982246 141.011546 
L 224.982246 140.980516 
L 225.982246 140.969348 
L 226.982246 140.939231 
L 227.982246 140.879454 
L 228.982246 140.842262 
L 229.982246 140.803166 
L 230.982246 140.760727 
L 231.982246 140.727962 
L 232.982246 140.660535 
L 233.982246 140.621409 
L 234.982246 140.578735 
L 235.982246 140.508154 
L 236.982246 140.471763 
L 237.982246 140.41336 
L 238.982246 140.302407 
L 239.982246 140.231749 
L 240.982246 140.118809 
L 241.982246 140.073036 
L 242.982246 140.011753 
L 243.982246 139.963254 
L 244.982246 139.882431 
L 245.982246 139.763912 
L 246.982246 139.693702 
L 247.982246 139.610439 
L 248.982246 139.577297 
L 249.982246 139.52606 
L 250.982246 139.457662 
L 251.982246 139.391446 
L 252.982246 139.314529 
L 254.650369 139.287214 
" clip-path="url(#pae3ff4ddfe)" style="fill: none; stroke: #1f77b4; stroke-opacity: 0.5; stroke-width: 0.2; stroke-linecap: square"/>
   <path d="M 197.982246 157.254245 
L 198.982246 157.285681 
L 199.982246 157.322621 
L 200.982246 157.420368 
L 201.982246 157.45289 
L 202.982246 157.526514 
L 203.982246 157.56508 
L 204.982246 157.600493 
L 205.982246 157.658133 
L 206.982246 157.728519 
L 207.982246 157.780483 
L 208.982246 157.839573 
L 209.982246 157.927894 
L 210.982246 157.974038 
L 211.982246 158.016449 
L 212.982246 158.046942 
L 213.982246 158.072987 
L 214.982246 158.094187 
L 215.982246 158.148488 
L 216.982246 158.176426 
L 217.982246 158.20615 
L 218.982246 158.231544 
L 219.982246 158.242745 
L 220.982246 158.252869 
L 221.982246 158.252664 
L 222.982246 158.243155 
L 223.982246 158.231501 
L 224.982246 158.200472 
L 225.982246 158.189304 
L 226.982246 158.159186 
L 227.982246 158.099409 
L 228.982246 158.062218 
L 229.982246 158.023122 
L 230.982246 157.980682 
L 231.982246 157.947917 
L 232.982246 157.88049 
L 233.982246 157.841365 
L 234.982246 157.79869 
L 235.982246 157.728109 
L 236.982246 157.691719 
L 237.982246 157.633315 
L 238.982246 157.522363 
L 239.982246 157.451704 
L 240.982246 157.338765 
L 241.982246 157.292992 
L 242.982246 157.231709 
L 243.982246 157.183209 
L 244.982246 157.102387 
L 245.982246 156.983868 
L 246.982246 156.913657 
L 247.982246 156.830395 
L 248.982246 156.797253 
L 249.982246 156.746015 
L 250.982246 156.677617 
L 251.982246 156.611402 
L 252.982246 156.534485 
L 254.650369 156.507169 
" clip-path="url(#pae3ff4ddfe)" style="fill: none; stroke: #1f77b4; stroke-opacity: 0.5; stroke-width: 0.2; stroke-linecap: square"/>
   <path d="M 197.982246 147.597738 
L 198.982246 147.629174 
L 199.982246 147.666115 
L 200.982246 147.763861 
L 201.982246 147.796383 
L 202.982246 147.870007 
L 203.982246 147.908573 
L 204.982246 147.943986 
L 205.982246 148.001626 
L 206.982246 148.072012 
L 207.982246 148.123976 
L 208.982246 148.183066 
L 209.982246 148.271387 
L 210.982246 148.317531 
L 211.982246 148.359942 
L 212.982246 148.390435 
L 213.982246 148.41648 
L 214.982246 148.43768 
L 215.982246 148.491981 
L 216.982246 148.519919 
L 217.982246 148.549643 
L 218.982246 148.575038 
L 219.982246 148.586238 
L 220.982246 148.596362 
L 221.982246 148.596158 
L 222.982246 148.586648 
L 223.982246 148.574994 
L 224.982246 148.543965 
L 225.982246 148.532797 
L 226.982246 148.502679 
L 227.982246 148.442903 
L 228.982246 148.405711 
L 229.982246 148.366615 
L 230.982246 148.324175 
L 231.982246 148.29141 
L 232.982246 148.223984 
L 233.982246 148.184858 
L 234.982246 148.142183 
L 235.982246 148.071603 
L 236.982246 148.035212 
L 237.982246 147.976809 
L 238.982246 147.865856 
L 239.982246 147.795198 
L 240.982246 147.682258 
L 241.982246 147.636485 
L 242.982246 147.575202 
L 243.982246 147.526702 
L 244.982246 147.44588 
L 245.982246 147.327361 
L 246.982246 147.25715 
L 247.982246 147.173888 
L 248.982246 147.140746 
L 249.982246 147.089509 
L 250.982246 147.02111 
L 251.982246 146.954895 
L 252.982246 146.877978 
L 254.650369 146.850662 
" clip-path="url(#pae3ff4ddfe)" style="fill: none; stroke: #1f77b4; stroke-opacity: 0.5; stroke-width: 0.2; stroke-linecap: square"/>
   <path d="M 197.982246 107.057688 
L 198.982246 107.089125 
L 199.982246 107.126065 
L 200.982246 107.223812 
L 201.982246 107.256333 
L 202.982246 107.329958 
L 203.982246 107.368523 
L 204.982246 107.403937 
L 205.982246 107.461577 
L 206.982246 107.531963 
L 207.982246 107.583927 
L 208.982246 107.643017 
L 209.982246 107.731338 
L 210.982246 107.777482 
L 211.982246 107.819893 
L 212.982246 107.850386 
L 213.982246 107.87643 
L 214.982246 107.897631 
L 215.982246 107.951932 
L 216.982246 107.979869 
L 217.982246 108.009593 
L 218.982246 108.034988 
L 219.982246 108.046188 
L 220.982246 108.056312 
L 221.982246 108.056108 
L 222.982246 108.046598 
L 223.982246 108.034945 
L 224.982246 108.003915 
L 225.982246 107.992747 
L 226.982246 107.96263 
L 227.982246 107.902853 
L 228.982246 107.865661 
L 229.982246 107.826565 
L 230.982246 107.784126 
L 231.982246 107.751361 
L 232.982246 107.683934 
L 233.982246 107.644808 
L 234.982246 107.602134 
L 235.982246 107.531553 
L 236.982246 107.495162 
L 237.982246 107.436759 
L 238.982246 107.325806 
L 239.982246 107.255148 
L 240.982246 107.142208 
L 241.982246 107.096435 
L 242.982246 107.035152 
L 243.982246 106.986653 
L 244.982246 106.90583 
L 245.982246 106.787311 
L 246.982246 106.717101 
L 247.982246 106.633838 
L 248.982246 106.600696 
L 249.982246 106.549459 
L 250.982246 106.481061 
L 251.982246 106.414845 
L 252.982246 106.337928 
L 254.650369 106.310613 
" clip-path="url(#pae3ff4ddfe)" style="fill: none; stroke: #1f77b4; stroke-opacity: 0.5; stroke-width: 0.2; stroke-linecap: square"/>
   <path d="M 197.982246 177.758074 
L 198.982246 177.789511 
L 199.982246 177.826451 
L 200.982246 177.924198 
L 201.982246 177.956719 
L 202.982246 178.030344 
L 203.982246 178.068909 
L 204.982246 178.104323 
L 205.982246 178.161963 
L 206.982246 178.232349 
L 207.982246 178.284313 
L 208.982246 178.343403 
L 209.982246 178.431724 
L 210.982246 178.477868 
L 211.982246 178.520279 
L 212.982246 178.550772 
L 213.982246 178.576817 
L 214.982246 178.598017 
L 215.982246 178.652318 
L 216.982246 178.680255 
L 217.982246 178.709979 
L 218.982246 178.735374 
L 219.982246 178.746574 
L 220.982246 178.756698 
L 221.982246 178.756494 
L 222.982246 178.746984 
L 223.982246 178.735331 
L 224.982246 178.704301 
L 225.982246 178.693133 
L 226.982246 178.663016 
L 227.982246 178.603239 
L 228.982246 178.566047 
L 229.982246 178.526951 
L 230.982246 178.484512 
L 231.982246 178.451747 
L 232.982246 178.38432 
L 233.982246 178.345194 
L 234.982246 178.30252 
L 235.982246 178.231939 
L 236.982246 178.195548 
L 237.982246 178.137145 
L 238.982246 178.026192 
L 239.982246 177.955534 
L 240.982246 177.842594 
L 241.982246 177.796821 
L 242.982246 177.735538 
L 243.982246 177.687039 
L 244.982246 177.606216 
L 245.982246 177.487697 
L 246.982246 177.417487 
L 247.982246 177.334224 
L 248.982246 177.301082 
L 249.982246 177.249845 
L 250.982246 177.181447 
L 251.982246 177.115231 
L 252.982246 177.038314 
L 254.650369 177.010999 
" clip-path="url(#pae3ff4ddfe)" style="fill: none; stroke: #1f77b4; stroke-opacity: 0.5; stroke-width: 0.2; stroke-linecap: square"/>
   <path d="M 197.982246 148.127768 
L 198.982246 148.159204 
L 199.982246 148.196145 
L 200.982246 148.293891 
L 201.982246 148.326413 
L 202.982246 148.400037 
L 203.982246 148.438603 
L 204.982246 148.474016 
L 205.982246 148.531656 
L 206.982246 148.602042 
L 207.982246 148.654006 
L 208.982246 148.713096 
L 209.982246 148.801417 
L 210.982246 148.847561 
L 211.982246 148.889972 
L 212.982246 148.920465 
L 213.982246 148.94651 
L 214.982246 148.96771 
L 215.982246 149.022011 
L 216.982246 149.049949 
L 217.982246 149.079673 
L 218.982246 149.105068 
L 219.982246 149.116268 
L 220.982246 149.126392 
L 221.982246 149.126188 
L 222.982246 149.116678 
L 223.982246 149.105024 
L 224.982246 149.073995 
L 225.982246 149.062827 
L 226.982246 149.032709 
L 227.982246 148.972932 
L 228.982246 148.935741 
L 229.982246 148.896645 
L 230.982246 148.854205 
L 231.982246 148.82144 
L 232.982246 148.754014 
L 233.982246 148.714888 
L 234.982246 148.672213 
L 235.982246 148.601633 
L 236.982246 148.565242 
L 237.982246 148.506839 
L 238.982246 148.395886 
L 239.982246 148.325228 
L 240.982246 148.212288 
L 241.982246 148.166515 
L 242.982246 148.105232 
L 243.982246 148.056732 
L 244.982246 147.97591 
L 245.982246 147.857391 
L 246.982246 147.78718 
L 247.982246 147.703918 
L 248.982246 147.670776 
L 249.982246 147.619539 
L 250.982246 147.55114 
L 251.982246 147.484925 
L 252.982246 147.408008 
L 254.650369 147.380692 
" clip-path="url(#pae3ff4ddfe)" style="fill: none; stroke: #1f77b4; stroke-opacity: 0.5; stroke-width: 0.2; stroke-linecap: square"/>
   <path d="M 389.130882 111.866911 
L 390.130882 111.898348 
L 391.130882 111.935288 
L 392.130882 112.033035 
L 393.130882 112.065556 
L 394.130882 112.139181 
L 395.130882 112.177747 
L 396.130882 112.21316 
L 397.130882 112.2708 
L 398.130882 112.341186 
L 399.130882 112.39315 
L 400.130882 112.45224 
L 401.130882 112.540561 
L 402.130882 112.586705 
L 403.130882 112.629116 
L 404.130882 112.659609 
L 405.130882 112.685654 
L 406.130882 112.706854 
L 407.130882 112.761155 
L 408.130882 112.789092 
L 409.130882 112.818816 
L 410.130882 112.844211 
L 411.130882 112.855412 
L 412.130882 112.865536 
L 413.130882 112.865331 
L 414.130882 112.855821 
L 415.130882 112.844168 
L 416.130882 112.813138 
L 417.130882 112.801971 
L 418.130882 112.771853 
L 419.130882 112.712076 
L 420.130882 112.674885 
L 421.130882 112.635788 
L 422.130882 112.593349 
L 423.130882 112.560584 
L 424.130882 112.493157 
L 425.130882 112.454031 
L 426.130882 112.411357 
L 427.130882 112.340776 
L 428.130882 112.304385 
L 429.130882 112.245982 
L 430.130882 112.13503 
L 431.130882 112.064371 
L 432.130882 111.951431 
L 433.130882 111.905659 
L 434.130882 111.844375 
L 435.130882 111.795876 
L 436.130882 111.715053 
L 437.130882 111.596534 
L 438.130882 111.526324 
L 439.130882 111.443061 
L 440.130882 111.40992 
L 441.130882 111.358682 
L 442.130882 111.290284 
L 443.130882 111.224068 
L 444.130882 111.147151 
L 445.799004 111.119836 
" clip-path="url(#pae3ff4ddfe)" style="fill: none; stroke: #ff7f0e; stroke-opacity: 0.5; stroke-width: 0.2; stroke-linecap: square"/>
   <path d="M 389.130882 104.267853 
L 390.130882 104.299289 
L 391.130882 104.33623 
L 392.130882 104.433976 
L 393.130882 104.466498 
L 394.130882 104.540122 
L 395.130882 104.578688 
L 396.130882 104.614101 
L 397.130882 104.671741 
L 398.130882 104.742127 
L 399.130882 104.794092 
L 400.130882 104.853181 
L 401.130882 104.941502 
L 402.130882 104.987647 
L 403.130882 105.030057 
L 404.130882 105.06055 
L 405.130882 105.086595 
L 406.130882 105.107795 
L 407.130882 105.162096 
L 408.130882 105.190034 
L 409.130882 105.219758 
L 410.130882 105.245153 
L 411.130882 105.256353 
L 412.130882 105.266477 
L 413.130882 105.266273 
L 414.130882 105.256763 
L 415.130882 105.245109 
L 416.130882 105.21408 
L 417.130882 105.202912 
L 418.130882 105.172794 
L 419.130882 105.113018 
L 420.130882 105.075826 
L 421.130882 105.03673 
L 422.130882 104.99429 
L 423.130882 104.961525 
L 424.130882 104.894099 
L 425.130882 104.854973 
L 426.130882 104.812298 
L 427.130882 104.741718 
L 428.130882 104.705327 
L 429.130882 104.646924 
L 430.130882 104.535971 
L 431.130882 104.465313 
L 432.130882 104.352373 
L 433.130882 104.3066 
L 434.130882 104.245317 
L 435.130882 104.196817 
L 436.130882 104.115995 
L 437.130882 103.997476 
L 438.130882 103.927265 
L 439.130882 103.844003 
L 440.130882 103.810861 
L 441.130882 103.759624 
L 442.130882 103.691225 
L 443.130882 103.62501 
L 444.130882 103.548093 
L 445.799004 103.520777 
" clip-path="url(#pae3ff4ddfe)" style="fill: none; stroke: #ff7f0e; stroke-opacity: 0.5; stroke-width: 0.2; stroke-linecap: square"/>
   <path d="M 389.130882 110.109785 
L 390.130882 110.141221 
L 391.130882 110.178161 
L 392.130882 110.275908 
L 393.130882 110.30843 
L 394.130882 110.382054 
L 395.130882 110.42062 
L 396.130882 110.456033 
L 397.130882 110.513673 
L 398.130882 110.584059 
L 399.130882 110.636023 
L 400.130882 110.695113 
L 401.130882 110.783434 
L 402.130882 110.829578 
L 403.130882 110.871989 
L 404.130882 110.902482 
L 405.130882 110.928527 
L 406.130882 110.949727 
L 407.130882 111.004028 
L 408.130882 111.031966 
L 409.130882 111.06169 
L 410.130882 111.087084 
L 411.130882 111.098285 
L 412.130882 111.108409 
L 413.130882 111.108204 
L 414.130882 111.098695 
L 415.130882 111.087041 
L 416.130882 111.056012 
L 417.130882 111.044844 
L 418.130882 111.014726 
L 419.130882 110.954949 
L 420.130882 110.917758 
L 421.130882 110.878662 
L 422.130882 110.836222 
L 423.130882 110.803457 
L 424.130882 110.736031 
L 425.130882 110.696905 
L 426.130882 110.65423 
L 427.130882 110.583649 
L 428.130882 110.547259 
L 429.130882 110.488855 
L 430.130882 110.377903 
L 431.130882 110.307245 
L 432.130882 110.194305 
L 433.130882 110.148532 
L 434.130882 110.087249 
L 435.130882 110.038749 
L 436.130882 109.957927 
L 437.130882 109.839408 
L 438.130882 109.769197 
L 439.130882 109.685935 
L 440.130882 109.652793 
L 441.130882 109.601555 
L 442.130882 109.533157 
L 443.130882 109.466942 
L 444.130882 109.390025 
L 445.799004 109.362709 
" clip-path="url(#pae3ff4ddfe)" style="fill: none; stroke: #ff7f0e; stroke-opacity: 0.5; stroke-width: 0.2; stroke-linecap: square"/>
   <path d="M 389.130882 130.831152 
L 390.130882 130.862588 
L 391.130882 130.899529 
L 392.130882 130.997275 
L 393.130882 131.029797 
L 394.130882 131.103422 
L 395.130882 131.141987 
L 396.130882 131.1774 
L 397.130882 131.23504 
L 398.130882 131.305426 
L 399.130882 131.357391 
L 400.130882 131.41648 
L 401.130882 131.504801 
L 402.130882 131.550946 
L 403.130882 131.593357 
L 404.130882 131.623849 
L 405.130882 131.649894 
L 406.130882 131.671094 
L 407.130882 131.725395 
L 408.130882 131.753333 
L 409.130882 131.783057 
L 410.130882 131.808452 
L 411.130882 131.819652 
L 412.130882 131.829776 
L 413.130882 131.829572 
L 414.130882 131.820062 
L 415.130882 131.808408 
L 416.130882 131.777379 
L 417.130882 131.766211 
L 418.130882 131.736094 
L 419.130882 131.676317 
L 420.130882 131.639125 
L 421.130882 131.600029 
L 422.130882 131.557589 
L 423.130882 131.524824 
L 424.130882 131.457398 
L 425.130882 131.418272 
L 426.130882 131.375597 
L 427.130882 131.305017 
L 428.130882 131.268626 
L 429.130882 131.210223 
L 430.130882 131.09927 
L 431.130882 131.028612 
L 432.130882 130.915672 
L 433.130882 130.869899 
L 434.130882 130.808616 
L 435.130882 130.760117 
L 436.130882 130.679294 
L 437.130882 130.560775 
L 438.130882 130.490564 
L 439.130882 130.407302 
L 440.130882 130.37416 
L 441.130882 130.322923 
L 442.130882 130.254524 
L 443.130882 130.188309 
L 444.130882 130.111392 
L 445.799004 130.084077 
" clip-path="url(#pae3ff4ddfe)" style="fill: none; stroke: #ff7f0e; stroke-opacity: 0.5; stroke-width: 0.2; stroke-linecap: square"/>
   <path d="M 389.130882 183.836081 
L 390.130882 183.867518 
L 391.130882 183.904458 
L 392.130882 184.002205 
L 393.130882 184.034726 
L 394.130882 184.108351 
L 395.130882 184.146917 
L 396.130882 184.18233 
L 397.130882 184.23997 
L 398.130882 184.310356 
L 399.130882 184.36232 
L 400.130882 184.42141 
L 401.130882 184.509731 
L 402.130882 184.555875 
L 403.130882 184.598286 
L 404.130882 184.628779 
L 405.130882 184.654824 
L 406.130882 184.676024 
L 407.130882 184.730325 
L 408.130882 184.758262 
L 409.130882 184.787986 
L 410.130882 184.813381 
L 411.130882 184.824582 
L 412.130882 184.834706 
L 413.130882 184.834501 
L 414.130882 184.824991 
L 415.130882 184.813338 
L 416.130882 184.782309 
L 417.130882 184.771141 
L 418.130882 184.741023 
L 419.130882 184.681246 
L 420.130882 184.644055 
L 421.130882 184.604959 
L 422.130882 184.562519 
L 423.130882 184.529754 
L 424.130882 184.462327 
L 425.130882 184.423201 
L 426.130882 184.380527 
L 427.130882 184.309946 
L 428.130882 184.273555 
L 429.130882 184.215152 
L 430.130882 184.1042 
L 431.130882 184.033541 
L 432.130882 183.920601 
L 433.130882 183.874829 
L 434.130882 183.813545 
L 435.130882 183.765046 
L 436.130882 183.684223 
L 437.130882 183.565704 
L 438.130882 183.495494 
L 439.130882 183.412231 
L 440.130882 183.37909 
L 441.130882 183.327852 
L 442.130882 183.259454 
L 443.130882 183.193238 
L 444.130882 183.116321 
L 445.799004 183.089006 
" clip-path="url(#pae3ff4ddfe)" style="fill: none; stroke: #ff7f0e; stroke-opacity: 0.5; stroke-width: 0.2; stroke-linecap: square"/>
   <path d="M 389.130882 92.67898 
L 390.130882 92.710416 
L 391.130882 92.747356 
L 392.130882 92.845103 
L 393.130882 92.877624 
L 394.130882 92.951249 
L 395.130882 92.989815 
L 396.130882 93.025228 
L 397.130882 93.082868 
L 398.130882 93.153254 
L 399.130882 93.205218 
L 400.130882 93.264308 
L 401.130882 93.352629 
L 402.130882 93.398773 
L 403.130882 93.441184 
L 404.130882 93.471677 
L 405.130882 93.497722 
L 406.130882 93.518922 
L 407.130882 93.573223 
L 408.130882 93.601161 
L 409.130882 93.630884 
L 410.130882 93.656279 
L 411.130882 93.66748 
L 412.130882 93.677604 
L 413.130882 93.677399 
L 414.130882 93.667889 
L 415.130882 93.656236 
L 416.130882 93.625207 
L 417.130882 93.614039 
L 418.130882 93.583921 
L 419.130882 93.524144 
L 420.130882 93.486953 
L 421.130882 93.447857 
L 422.130882 93.405417 
L 423.130882 93.372652 
L 424.130882 93.305225 
L 425.130882 93.266099 
L 426.130882 93.223425 
L 427.130882 93.152844 
L 428.130882 93.116453 
L 429.130882 93.05805 
L 430.130882 92.947098 
L 431.130882 92.876439 
L 432.130882 92.7635 
L 433.130882 92.717727 
L 434.130882 92.656443 
L 435.130882 92.607944 
L 436.130882 92.527121 
L 437.130882 92.408603 
L 438.130882 92.338392 
L 439.130882 92.255129 
L 440.130882 92.221988 
L 441.130882 92.17075 
L 442.130882 92.102352 
L 443.130882 92.036137 
L 444.130882 91.959219 
L 445.799004 91.931904 
" clip-path="url(#pae3ff4ddfe)" style="fill: none; stroke: #ff7f0e; stroke-opacity: 0.5; stroke-width: 0.2; stroke-linecap: square"/>
   <path d="M 389.130882 85.015263 
L 390.130882 85.0467 
L 391.130882 85.08364 
L 392.130882 85.181387 
L 393.130882 85.213908 
L 394.130882 85.287533 
L 395.130882 85.326098 
L 396.130882 85.361512 
L 397.130882 85.419152 
L 398.130882 85.489538 
L 399.130882 85.541502 
L 400.130882 85.600592 
L 401.130882 85.688913 
L 402.130882 85.735057 
L 403.130882 85.777468 
L 404.130882 85.807961 
L 405.130882 85.834006 
L 406.130882 85.855206 
L 407.130882 85.909507 
L 408.130882 85.937444 
L 409.130882 85.967168 
L 410.130882 85.992563 
L 411.130882 86.003763 
L 412.130882 86.013887 
L 413.130882 86.013683 
L 414.130882 86.004173 
L 415.130882 85.99252 
L 416.130882 85.96149 
L 417.130882 85.950322 
L 418.130882 85.920205 
L 419.130882 85.860428 
L 420.130882 85.823236 
L 421.130882 85.78414 
L 422.130882 85.741701 
L 423.130882 85.708936 
L 424.130882 85.641509 
L 425.130882 85.602383 
L 426.130882 85.559709 
L 427.130882 85.489128 
L 428.130882 85.452737 
L 429.130882 85.394334 
L 430.130882 85.283381 
L 431.130882 85.212723 
L 432.130882 85.099783 
L 433.130882 85.05401 
L 434.130882 84.992727 
L 435.130882 84.944228 
L 436.130882 84.863405 
L 437.130882 84.744886 
L 438.130882 84.674676 
L 439.130882 84.591413 
L 440.130882 84.558271 
L 441.130882 84.507034 
L 442.130882 84.438636 
L 443.130882 84.37242 
L 444.130882 84.295503 
L 445.799004 84.268188 
" clip-path="url(#pae3ff4ddfe)" style="fill: none; stroke: #ff7f0e; stroke-opacity: 0.5; stroke-width: 0.2; stroke-linecap: square"/>
   <path d="M 389.130882 170.584792 
L 390.130882 170.616229 
L 391.130882 170.653169 
L 392.130882 170.750915 
L 393.130882 170.783437 
L 394.130882 170.857062 
L 395.130882 170.895627 
L 396.130882 170.93104 
L 397.130882 170.98868 
L 398.130882 171.059067 
L 399.130882 171.111031 
L 400.130882 171.170121 
L 401.130882 171.258442 
L 402.130882 171.304586 
L 403.130882 171.346997 
L 404.130882 171.377489 
L 405.130882 171.403534 
L 406.130882 171.424735 
L 407.130882 171.479036 
L 408.130882 171.506973 
L 409.130882 171.536697 
L 410.130882 171.562092 
L 411.130882 171.573292 
L 412.130882 171.583416 
L 413.130882 171.583212 
L 414.130882 171.573702 
L 415.130882 171.562049 
L 416.130882 171.531019 
L 417.130882 171.519851 
L 418.130882 171.489734 
L 419.130882 171.429957 
L 420.130882 171.392765 
L 421.130882 171.353669 
L 422.130882 171.31123 
L 423.130882 171.278465 
L 424.130882 171.211038 
L 425.130882 171.171912 
L 426.130882 171.129238 
L 427.130882 171.058657 
L 428.130882 171.022266 
L 429.130882 170.963863 
L 430.130882 170.85291 
L 431.130882 170.782252 
L 432.130882 170.669312 
L 433.130882 170.623539 
L 434.130882 170.562256 
L 435.130882 170.513757 
L 436.130882 170.432934 
L 437.130882 170.314415 
L 438.130882 170.244205 
L 439.130882 170.160942 
L 440.130882 170.1278 
L 441.130882 170.076563 
L 442.130882 170.008165 
L 443.130882 169.941949 
L 444.130882 169.865032 
L 445.799004 169.837717 
" clip-path="url(#pae3ff4ddfe)" style="fill: none; stroke: #ff7f0e; stroke-opacity: 0.5; stroke-width: 0.2; stroke-linecap: square"/>
   <path d="M 389.130882 89.491766 
L 390.130882 89.523202 
L 391.130882 89.560142 
L 392.130882 89.657889 
L 393.130882 89.690411 
L 394.130882 89.764035 
L 395.130882 89.802601 
L 396.130882 89.838014 
L 397.130882 89.895654 
L 398.130882 89.96604 
L 399.130882 90.018004 
L 400.130882 90.077094 
L 401.130882 90.165415 
L 402.130882 90.211559 
L 403.130882 90.25397 
L 404.130882 90.284463 
L 405.130882 90.310508 
L 406.130882 90.331708 
L 407.130882 90.386009 
L 408.130882 90.413947 
L 409.130882 90.443671 
L 410.130882 90.469065 
L 411.130882 90.480266 
L 412.130882 90.49039 
L 413.130882 90.490185 
L 414.130882 90.480676 
L 415.130882 90.469022 
L 416.130882 90.437993 
L 417.130882 90.426825 
L 418.130882 90.396707 
L 419.130882 90.33693 
L 420.130882 90.299739 
L 421.130882 90.260643 
L 422.130882 90.218203 
L 423.130882 90.185438 
L 424.130882 90.118012 
L 425.130882 90.078886 
L 426.130882 90.036211 
L 427.130882 89.965631 
L 428.130882 89.92924 
L 429.130882 89.870836 
L 430.130882 89.759884 
L 431.130882 89.689226 
L 432.130882 89.576286 
L 433.130882 89.530513 
L 434.130882 89.46923 
L 435.130882 89.42073 
L 436.130882 89.339908 
L 437.130882 89.221389 
L 438.130882 89.151178 
L 439.130882 89.067916 
L 440.130882 89.034774 
L 441.130882 88.983536 
L 442.130882 88.915138 
L 443.130882 88.848923 
L 444.130882 88.772006 
L 445.799004 88.74469 
" clip-path="url(#pae3ff4ddfe)" style="fill: none; stroke: #ff7f0e; stroke-opacity: 0.5; stroke-width: 0.2; stroke-linecap: square"/>
   <path d="M 389.130882 152.290775 
L 390.130882 152.322212 
L 391.130882 152.359152 
L 392.130882 152.456899 
L 393.130882 152.48942 
L 394.130882 152.563045 
L 395.130882 152.60161 
L 396.130882 152.637024 
L 397.130882 152.694664 
L 398.130882 152.76505 
L 399.130882 152.817014 
L 400.130882 152.876104 
L 401.130882 152.964425 
L 402.130882 153.010569 
L 403.130882 153.05298 
L 404.130882 153.083473 
L 405.130882 153.109518 
L 406.130882 153.130718 
L 407.130882 153.185019 
L 408.130882 153.212956 
L 409.130882 153.24268 
L 410.130882 153.268075 
L 411.130882 153.279276 
L 412.130882 153.289399 
L 413.130882 153.289195 
L 414.130882 153.279685 
L 415.130882 153.268032 
L 416.130882 153.237002 
L 417.130882 153.225835 
L 418.130882 153.195717 
L 419.130882 153.13594 
L 420.130882 153.098749 
L 421.130882 153.059652 
L 422.130882 153.017213 
L 423.130882 152.984448 
L 424.130882 152.917021 
L 425.130882 152.877895 
L 426.130882 152.835221 
L 427.130882 152.76464 
L 428.130882 152.728249 
L 429.130882 152.669846 
L 430.130882 152.558894 
L 431.130882 152.488235 
L 432.130882 152.375295 
L 433.130882 152.329523 
L 434.130882 152.268239 
L 435.130882 152.21974 
L 436.130882 152.138917 
L 437.130882 152.020398 
L 438.130882 151.950188 
L 439.130882 151.866925 
L 440.130882 151.833783 
L 441.130882 151.782546 
L 442.130882 151.714148 
L 443.130882 151.647932 
L 444.130882 151.571015 
L 445.799004 151.5437 
" clip-path="url(#pae3ff4ddfe)" style="fill: none; stroke: #ff7f0e; stroke-opacity: 0.5; stroke-width: 0.2; stroke-linecap: square"/>
   <g id="patch_3">
    <path d="M 69.06392 22.318125 
L 69.06392 318.021875 
M 192.420059 22.318125 
L 192.420059 318.021875 
" clip-path="url(#pae3ff4ddfe)" style="fill: none; stroke: #ffffff; stroke-width: 3; stroke-linejoin: miter"/>
    <path d="M 69.06392 22.318125 
L 69.06392 318.021875 
M 192.420059 22.318125 
L 192.420059 318.021875 
" clip-path="url(#pae3ff4ddfe)" style="fill: none; stroke: #1f77b4; stroke-linejoin: miter"/>
    <g id="PolyCollection_1">
     <path d="M 192.420059 22.318125 
L 69.06392 22.318125 
L 69.06392 318.021875 
L 192.420059 318.021875 
L 192.420059 318.021875 
L 192.420059 22.318125 
z
" clip-path="url(#pae3ff4ddfe)" style="fill: #1f77b4; fill-opacity: 0.5"/>
    </g>
    <g id="patch_4">
     <path d="M 260.212556 22.318125 
L 260.212556 318.021875 
M 383.568694 22.318125 
L 383.568694 318.021875 
" clip-path="url(#pae3ff4ddfe)" style="fill: none; stroke: #ffffff; stroke-width: 3; stroke-linejoin: miter"/>
     <path d="M 260.212556 22.318125 
L 260.212556 318.021875 
M 383.568694 22.318125 
L 383.568694 318.021875 
" clip-path="url(#pae3ff4ddfe)" style="fill: none; stroke: #ff7f0e; stroke-linejoin: miter"/>
     <g id="PolyCollection_2">
      <path d="M 383.568694 22.318125 
L 260.212556 22.318125 
L 260.212556 318.021875 
L 383.568694 318.021875 
L 383.568694 318.021875 
L 383.568694 22.318125 
z
" clip-path="url(#pae3ff4ddfe)" style="fill: #ff7f0e; fill-opacity: 0.5"/>
     </g>
     <g id="patch_5">
      <path d="M 451.361191 22.318125 
L 451.361191 318.021875 
M 574.71733 22.318125 
L 574.71733 318.021875 
" clip-path="url(#pae3ff4ddfe)" style="fill: none; stroke: #ffffff; stroke-width: 3; stroke-linejoin: miter"/>
      <path d="M 451.361191 22.318125 
L 451.361191 318.021875 
M 574.71733 22.318125 
L 574.71733 318.021875 
" clip-path="url(#pae3ff4ddfe)" style="fill: none; stroke: #2ca02c; stroke-linejoin: miter"/>
      <g id="PolyCollection_3">
       <path d="M 574.71733 22.318125 
L 451.361191 22.318125 
L 451.361191 318.021875 
L 574.71733 318.021875 
L 574.71733 318.021875 
L 574.71733 22.318125 
z
" clip-path="url(#pae3ff4ddfe)" style="fill: #2ca02c; fill-opacity: 0.5"/>
      </g>
      <g id="matplotlib.axis_1">
       <g id="xtick_1">
        <g id="line2d_1"/>
        <g id="text_1">
         <!-- deme0 -->
         <g transform="translate(113.363083 329.120312) scale(0.1 -0.1)">
          <defs>
           <path id="DejaVuSans-64" d="M 2906 2969 
L 2906 4863 
L 3481 4863 
L 3481 0 
L 2906 0 
L 2906 525 
Q 2725 213 2448 61 
Q 2172 -91 1784 -91 
Q 1150 -91 751 415 
Q 353 922 353 1747 
Q 353 2572 751 3078 
Q 1150 3584 1784 3584 
Q 2172 3584 2448 3432 
Q 2725 3281 2906 2969 
z
M 947 1747 
Q 947 1113 1208 752 
Q 1469 391 1925 391 
Q 2381 391 2643 752 
Q 2906 1113 2906 1747 
Q 2906 2381 2643 2742 
Q 2381 3103 1925 3103 
Q 1469 3103 1208 2742 
Q 947 2381 947 1747 
z
" transform="scale(0.015625)"/>
           <path id="DejaVuSans-65" d="M 3597 1894 
L 3597 1613 
L 953 1613 
Q 991 1019 1311 708 
Q 1631 397 2203 397 
Q 2534 397 2845 478 
Q 3156 559 3463 722 
L 3463 178 
Q 3153 47 2828 -22 
Q 2503 -91 2169 -91 
Q 1331 -91 842 396 
Q 353 884 353 1716 
Q 353 2575 817 3079 
Q 1281 3584 2069 3584 
Q 2775 3584 3186 3129 
Q 3597 2675 3597 1894 
z
M 3022 2063 
Q 3016 2534 2758 2815 
Q 2500 3097 2075 3097 
Q 1594 3097 1305 2825 
Q 1016 2553 972 2059 
L 3022 2063 
z
" transform="scale(0.015625)"/>
           <path id="DejaVuSans-6d" d="M 3328 2828 
Q 3544 3216 3844 3400 
Q 4144 3584 4550 3584 
Q 5097 3584 5394 3201 
Q 5691 2819 5691 2113 
L 5691 0 
L 5113 0 
L 5113 2094 
Q 5113 2597 4934 2840 
Q 4756 3084 4391 3084 
Q 3944 3084 3684 2787 
Q 3425 2491 3425 1978 
L 3425 0 
L 2847 0 
L 2847 2094 
Q 2847 2600 2669 2842 
Q 2491 3084 2119 3084 
Q 1678 3084 1418 2786 
Q 1159 2488 1159 1978 
L 1159 0 
L 581 0 
L 581 3500 
L 1159 3500 
L 1159 2956 
Q 1356 3278 1631 3431 
Q 1906 3584 2284 3584 
Q 2666 3584 2933 3390 
Q 3200 3197 3328 2828 
z
" transform="scale(0.015625)"/>
           <path id="DejaVuSans-30" d="M 2034 4250 
Q 1547 4250 1301 3770 
Q 1056 3291 1056 2328 
Q 1056 1369 1301 889 
Q 1547 409 2034 409 
Q 2525 409 2770 889 
Q 3016 1369 3016 2328 
Q 3016 3291 2770 3770 
Q 2525 4250 2034 4250 
z
M 2034 4750 
Q 2819 4750 3233 4129 
Q 3647 3509 3647 2328 
Q 3647 1150 3233 529 
Q 2819 -91 2034 -91 
Q 1250 -91 836 529 
Q 422 1150 422 2328 
Q 422 3509 836 4129 
Q 1250 4750 2034 4750 
z
" transform="scale(0.015625)"/>
          </defs>
          <use xlink:href="#DejaVuSans-64"/>
          <use xlink:href="#DejaVuSans-65" x="63.476562"/>
          <use xlink:href="#DejaVuSans-6d" x="125"/>
          <use xlink:href="#DejaVuSans-65" x="222.412109"/>
          <use xlink:href="#DejaVuSans-30" x="283.935547"/>
         </g>
        </g>
       </g>
       <g id="xtick_2">
        <g id="line2d_2"/>
        <g id="text_2">
         <!-- deme1 -->
         <g transform="translate(304.511719 329.120312) scale(0.1 -0.1)">
          <defs>
           <path id="DejaVuSans-31" d="M 794 531 
L 1825 531 
L 1825 4091 
L 703 3866 
L 703 4441 
L 1819 4666 
L 2450 4666 
L 2450 531 
L 3481 531 
L 3481 0 
L 794 0 
L 794 531 
z
" transform="scale(0.015625)"/>
          </defs>
          <use xlink:href="#DejaVuSans-64"/>
          <use xlink:href="#DejaVuSans-65" x="63.476562"/>
          <use xlink:href="#DejaVuSans-6d" x="125"/>
          <use xlink:href="#DejaVuSans-65" x="222.412109"/>
          <use xlink:href="#DejaVuSans-31" x="283.935547"/>
         </g>
        </g>
       </g>
       <g id="xtick_3">
        <g id="line2d_3"/>
        <g id="text_3">
         <!-- deme2 -->
         <g transform="translate(495.660354 329.120312) scale(0.1 -0.1)">
          <defs>
           <path id="DejaVuSans-32" d="M 1228 531 
L 3431 531 
L 3431 0 
L 469 0 
L 469 531 
Q 828 903 1448 1529 
Q 2069 2156 2228 2338 
Q 2531 2678 2651 2914 
Q 2772 3150 2772 3378 
Q 2772 3750 2511 3984 
Q 2250 4219 1831 4219 
Q 1534 4219 1204 4116 
Q 875 4013 500 3803 
L 500 4441 
Q 881 4594 1212 4672 
Q 1544 4750 1819 4750 
Q 2544 4750 2975 4387 
Q 3406 4025 3406 3419 
Q 3406 3131 3298 2873 
Q 3191 2616 2906 2266 
Q 2828 2175 2409 1742 
Q 1991 1309 1228 531 
z
" transform="scale(0.015625)"/>
          </defs>
          <use xlink:href="#DejaVuSans-64"/>
          <use xlink:href="#DejaVuSans-65" x="63.476562"/>
          <use xlink:href="#DejaVuSans-6d" x="125"/>
          <use xlink:href="#DejaVuSans-65" x="222.412109"/>
          <use xlink:href="#DejaVuSans-32" x="283.935547"/>
         </g>
        </g>
       </g>
      </g>
      <g id="matplotlib.axis_2">
       <g id="ytick_1">
        <g id="line2d_4">
         <defs>
          <path id="md57e2c751e" d="M 0 0 
L -3.5 0 
" style="stroke: #000000; stroke-width: 0.8"/>
         </defs>
         <g>
          <use xlink:href="#md57e2c751e" x="43.78125" y="318.021875" style="stroke: #000000; stroke-width: 0.8"/>
         </g>
        </g>
        <g id="text_4">
         <!-- 0.0 -->
         <g transform="translate(20.878125 321.821094) scale(0.1 -0.1)">
          <defs>
           <path id="DejaVuSans-2e" d="M 684 794 
L 1344 794 
L 1344 0 
L 684 0 
L 684 794 
z
" transform="scale(0.015625)"/>
          </defs>
          <use xlink:href="#DejaVuSans-30"/>
          <use xlink:href="#DejaVuSans-2e" x="63.623047"/>
          <use xlink:href="#DejaVuSans-30" x="95.410156"/>
         </g>
        </g>
       </g>
       <g id="ytick_2">
        <g id="line2d_5">
         <g>
          <use xlink:href="#md57e2c751e" x="43.78125" y="258.881125" style="stroke: #000000; stroke-width: 0.8"/>
         </g>
        </g>
        <g id="text_5">
         <!-- 0.5 -->
         <g transform="translate(20.878125 262.680344) scale(0.1 -0.1)">
          <defs>
           <path id="DejaVuSans-35" d="M 691 4666 
L 3169 4666 
L 3169 4134 
L 1269 4134 
L 1269 2991 
Q 1406 3038 1543 3061 
Q 1681 3084 1819 3084 
Q 2600 3084 3056 2656 
Q 3513 2228 3513 1497 
Q 3513 744 3044 326 
Q 2575 -91 1722 -91 
Q 1428 -91 1123 -41 
Q 819 9 494 109 
L 494 744 
Q 775 591 1075 516 
Q 1375 441 1709 441 
Q 2250 441 2565 725 
Q 2881 1009 2881 1497 
Q 2881 1984 2565 2268 
Q 2250 2553 1709 2553 
Q 1456 2553 1204 2497 
Q 953 2441 691 2322 
L 691 4666 
z
" transform="scale(0.015625)"/>
          </defs>
          <use xlink:href="#DejaVuSans-30"/>
          <use xlink:href="#DejaVuSans-2e" x="63.623047"/>
          <use xlink:href="#DejaVuSans-35" x="95.410156"/>
         </g>
        </g>
       </g>
       <g id="ytick_3">
        <g id="line2d_6">
         <g>
          <use xlink:href="#md57e2c751e" x="43.78125" y="199.740375" style="stroke: #000000; stroke-width: 0.8"/>
         </g>
        </g>
        <g id="text_6">
         <!-- 1.0 -->
         <g transform="translate(20.878125 203.539594) scale(0.1 -0.1)">
          <use xlink:href="#DejaVuSans-31"/>
          <use xlink:href="#DejaVuSans-2e" x="63.623047"/>
          <use xlink:href="#DejaVuSans-30" x="95.410156"/>
         </g>
        </g>
       </g>
       <g id="ytick_4">
        <g id="line2d_7">
         <g>
          <use xlink:href="#md57e2c751e" x="43.78125" y="140.599625" style="stroke: #000000; stroke-width: 0.8"/>
         </g>
        </g>
        <g id="text_7">
         <!-- 1.5 -->
         <g transform="translate(20.878125 144.398844) scale(0.1 -0.1)">
          <use xlink:href="#DejaVuSans-31"/>
          <use xlink:href="#DejaVuSans-2e" x="63.623047"/>
          <use xlink:href="#DejaVuSans-35" x="95.410156"/>
         </g>
        </g>
       </g>
       <g id="ytick_5">
        <g id="line2d_8">
         <g>
          <use xlink:href="#md57e2c751e" x="43.78125" y="81.458875" style="stroke: #000000; stroke-width: 0.8"/>
         </g>
        </g>
        <g id="text_8">
         <!-- 2.0 -->
         <g transform="translate(20.878125 85.258094) scale(0.1 -0.1)">
          <use xlink:href="#DejaVuSans-32"/>
          <use xlink:href="#DejaVuSans-2e" x="63.623047"/>
          <use xlink:href="#DejaVuSans-30" x="95.410156"/>
         </g>
        </g>
       </g>
       <g id="ytick_6">
        <g id="line2d_9">
         <g>
          <use xlink:href="#md57e2c751e" x="43.78125" y="22.318125" style="stroke: #000000; stroke-width: 0.8"/>
         </g>
        </g>
        <g id="text_9">
         <!-- 2.5 -->
         <g transform="translate(20.878125 26.117344) scale(0.1 -0.1)">
          <use xlink:href="#DejaVuSans-32"/>
          <use xlink:href="#DejaVuSans-2e" x="63.623047"/>
          <use xlink:href="#DejaVuSans-35" x="95.410156"/>
         </g>
        </g>
       </g>
       <g id="text_10">
        <!-- time ago (generations) -->
        <g transform="translate(14.798438 227.641094) rotate(-90) scale(0.1 -0.1)">
         <defs>
          <path id="DejaVuSans-74" d="M 1172 4494 
L 1172 3500 
L 2356 3500 
L 2356 3053 
L 1172 3053 
L 1172 1153 
Q 1172 725 1289 603 
Q 1406 481 1766 481 
L 2356 481 
L 2356 0 
L 1766 0 
Q 1100 0 847 248 
Q 594 497 594 1153 
L 594 3053 
L 172 3053 
L 172 3500 
L 594 3500 
L 594 4494 
L 1172 4494 
z
" transform="scale(0.015625)"/>
          <path id="DejaVuSans-69" d="M 603 3500 
L 1178 3500 
L 1178 0 
L 603 0 
L 603 3500 
z
M 603 4863 
L 1178 4863 
L 1178 4134 
L 603 4134 
L 603 4863 
z
" transform="scale(0.015625)"/>
          <path id="DejaVuSans-20" transform="scale(0.015625)"/>
          <path id="DejaVuSans-61" d="M 2194 1759 
Q 1497 1759 1228 1600 
Q 959 1441 959 1056 
Q 959 750 1161 570 
Q 1363 391 1709 391 
Q 2188 391 2477 730 
Q 2766 1069 2766 1631 
L 2766 1759 
L 2194 1759 
z
M 3341 1997 
L 3341 0 
L 2766 0 
L 2766 531 
Q 2569 213 2275 61 
Q 1981 -91 1556 -91 
Q 1019 -91 701 211 
Q 384 513 384 1019 
Q 384 1609 779 1909 
Q 1175 2209 1959 2209 
L 2766 2209 
L 2766 2266 
Q 2766 2663 2505 2880 
Q 2244 3097 1772 3097 
Q 1472 3097 1187 3025 
Q 903 2953 641 2809 
L 641 3341 
Q 956 3463 1253 3523 
Q 1550 3584 1831 3584 
Q 2591 3584 2966 3190 
Q 3341 2797 3341 1997 
z
" transform="scale(0.015625)"/>
          <path id="DejaVuSans-67" d="M 2906 1791 
Q 2906 2416 2648 2759 
Q 2391 3103 1925 3103 
Q 1463 3103 1205 2759 
Q 947 2416 947 1791 
Q 947 1169 1205 825 
Q 1463 481 1925 481 
Q 2391 481 2648 825 
Q 2906 1169 2906 1791 
z
M 3481 434 
Q 3481 -459 3084 -895 
Q 2688 -1331 1869 -1331 
Q 1566 -1331 1297 -1286 
Q 1028 -1241 775 -1147 
L 775 -588 
Q 1028 -725 1275 -790 
Q 1522 -856 1778 -856 
Q 2344 -856 2625 -561 
Q 2906 -266 2906 331 
L 2906 616 
Q 2728 306 2450 153 
Q 2172 0 1784 0 
Q 1141 0 747 490 
Q 353 981 353 1791 
Q 353 2603 747 3093 
Q 1141 3584 1784 3584 
Q 2172 3584 2450 3431 
Q 2728 3278 2906 2969 
L 2906 3500 
L 3481 3500 
L 3481 434 
z
" transform="scale(0.015625)"/>
          <path id="DejaVuSans-6f" d="M 1959 3097 
Q 1497 3097 1228 2736 
Q 959 2375 959 1747 
Q 959 1119 1226 758 
Q 1494 397 1959 397 
Q 2419 397 2687 759 
Q 2956 1122 2956 1747 
Q 2956 2369 2687 2733 
Q 2419 3097 1959 3097 
z
M 1959 3584 
Q 2709 3584 3137 3096 
Q 3566 2609 3566 1747 
Q 3566 888 3137 398 
Q 2709 -91 1959 -91 
Q 1206 -91 779 398 
Q 353 888 353 1747 
Q 353 2609 779 3096 
Q 1206 3584 1959 3584 
z
" transform="scale(0.015625)"/>
          <path id="DejaVuSans-28" d="M 1984 4856 
Q 1566 4138 1362 3434 
Q 1159 2731 1159 2009 
Q 1159 1288 1364 580 
Q 1569 -128 1984 -844 
L 1484 -844 
Q 1016 -109 783 600 
Q 550 1309 550 2009 
Q 550 2706 781 3412 
Q 1013 4119 1484 4856 
L 1984 4856 
z
" transform="scale(0.015625)"/>
          <path id="DejaVuSans-6e" d="M 3513 2113 
L 3513 0 
L 2938 0 
L 2938 2094 
Q 2938 2591 2744 2837 
Q 2550 3084 2163 3084 
Q 1697 3084 1428 2787 
Q 1159 2491 1159 1978 
L 1159 0 
L 581 0 
L 581 3500 
L 1159 3500 
L 1159 2956 
Q 1366 3272 1645 3428 
Q 1925 3584 2291 3584 
Q 2894 3584 3203 3211 
Q 3513 2838 3513 2113 
z
" transform="scale(0.015625)"/>
          <path id="DejaVuSans-72" d="M 2631 2963 
Q 2534 3019 2420 3045 
Q 2306 3072 2169 3072 
Q 1681 3072 1420 2755 
Q 1159 2438 1159 1844 
L 1159 0 
L 581 0 
L 581 3500 
L 1159 3500 
L 1159 2956 
Q 1341 3275 1631 3429 
Q 1922 3584 2338 3584 
Q 2397 3584 2469 3576 
Q 2541 3569 2628 3553 
L 2631 2963 
z
" transform="scale(0.015625)"/>
          <path id="DejaVuSans-73" d="M 2834 3397 
L 2834 2853 
Q 2591 2978 2328 3040 
Q 2066 3103 1784 3103 
Q 1356 3103 1142 2972 
Q 928 2841 928 2578 
Q 928 2378 1081 2264 
Q 1234 2150 1697 2047 
L 1894 2003 
Q 2506 1872 2764 1633 
Q 3022 1394 3022 966 
Q 3022 478 2636 193 
Q 2250 -91 1575 -91 
Q 1294 -91 989 -36 
Q 684 19 347 128 
L 347 722 
Q 666 556 975 473 
Q 1284 391 1588 391 
Q 1994 391 2212 530 
Q 2431 669 2431 922 
Q 2431 1156 2273 1281 
Q 2116 1406 1581 1522 
L 1381 1569 
Q 847 1681 609 1914 
Q 372 2147 372 2553 
Q 372 3047 722 3315 
Q 1072 3584 1716 3584 
Q 2034 3584 2315 3537 
Q 2597 3491 2834 3397 
z
" transform="scale(0.015625)"/>
          <path id="DejaVuSans-29" d="M 513 4856 
L 1013 4856 
Q 1481 4119 1714 3412 
Q 1947 2706 1947 2009 
Q 1947 1309 1714 600 
Q 1481 -109 1013 -844 
L 513 -844 
Q 928 -128 1133 580 
Q 1338 1288 1338 2009 
Q 1338 2731 1133 3434 
Q 928 4138 513 4856 
z
" transform="scale(0.015625)"/>
         </defs>
         <use xlink:href="#DejaVuSans-74"/>
         <use xlink:href="#DejaVuSans-69" x="39.208984"/>
         <use xlink:href="#DejaVuSans-6d" x="66.992188"/>
         <use xlink:href="#DejaVuSans-65" x="164.404297"/>
         <use xlink:href="#DejaVuSans-20" x="225.927734"/>
         <use xlink:href="#DejaVuSans-61" x="257.714844"/>
         <use xlink:href="#DejaVuSans-67" x="318.994141"/>
         <use xlink:href="#DejaVuSans-6f" x="382.470703"/>
         <use xlink:href="#DejaVuSans-20" x="443.652344"/>
         <use xlink:href="#DejaVuSans-28" x="475.439453"/>
         <use xlink:href="#DejaVuSans-67" x="514.453125"/>
         <use xlink:href="#DejaVuSans-65" x="577.929688"/>
         <use xlink:href="#DejaVuSans-6e" x="639.453125"/>
         <use xlink:href="#DejaVuSans-65" x="702.832031"/>
         <use xlink:href="#DejaVuSans-72" x="764.355469"/>
         <use xlink:href="#DejaVuSans-61" x="805.46875"/>
         <use xlink:href="#DejaVuSans-74" x="866.748047"/>
         <use xlink:href="#DejaVuSans-69" x="905.957031"/>
         <use xlink:href="#DejaVuSans-6f" x="933.740234"/>
         <use xlink:href="#DejaVuSans-6e" x="994.921875"/>
         <use xlink:href="#DejaVuSans-73" x="1058.300781"/>
         <use xlink:href="#DejaVuSans-29" x="1110.400391"/>
        </g>
       </g>
      </g>
      <path d="M 255.650369 152.671688 
L 253.650369 151.671688 
L 253.650369 153.671688 
z
" clip-path="url(#pae3ff4ddfe)" style="fill: #1f77b4; fill-opacity: 0.5; stroke: #1f77b4; stroke-opacity: 0.5; stroke-linejoin: miter"/>
      <path d="M 255.650369 187.6006 
L 253.650369 186.6006 
L 253.650369 188.6006 
z
" clip-path="url(#pae3ff4ddfe)" style="fill: #1f77b4; fill-opacity: 0.5; stroke: #1f77b4; stroke-opacity: 0.5; stroke-linejoin: miter"/>
      <path d="M 255.650369 177.911429 
L 253.650369 176.911429 
L 253.650369 178.911429 
z
" clip-path="url(#pae3ff4ddfe)" style="fill: #1f77b4; fill-opacity: 0.5; stroke: #1f77b4; stroke-opacity: 0.5; stroke-linejoin: miter"/>
      <path d="M 255.650369 163.197124 
L 253.650369 162.197124 
L 253.650369 164.197124 
z
" clip-path="url(#pae3ff4ddfe)" style="fill: #1f77b4; fill-opacity: 0.5; stroke: #1f77b4; stroke-opacity: 0.5; stroke-linejoin: miter"/>
      <path d="M 255.650369 140.034289 
L 253.650369 139.034289 
L 253.650369 141.034289 
z
" clip-path="url(#pae3ff4ddfe)" style="fill: #1f77b4; fill-opacity: 0.5; stroke: #1f77b4; stroke-opacity: 0.5; stroke-linejoin: miter"/>
      <path d="M 255.650369 157.254245 
L 253.650369 156.254245 
L 253.650369 158.254245 
z
" clip-path="url(#pae3ff4ddfe)" style="fill: #1f77b4; fill-opacity: 0.5; stroke: #1f77b4; stroke-opacity: 0.5; stroke-linejoin: miter"/>
      <path d="M 255.650369 147.597738 
L 253.650369 146.597738 
L 253.650369 148.597738 
z
" clip-path="url(#pae3ff4ddfe)" style="fill: #1f77b4; fill-opacity: 0.5; stroke: #1f77b4; stroke-opacity: 0.5; stroke-linejoin: miter"/>
      <path d="M 255.650369 107.057688 
L 253.650369 106.057688 
L 253.650369 108.057688 
z
" clip-path="url(#pae3ff4ddfe)" style="fill: #1f77b4; fill-opacity: 0.5; stroke: #1f77b4; stroke-opacity: 0.5; stroke-linejoin: miter"/>
      <path d="M 255.650369 177.758074 
L 253.650369 176.758074 
L 253.650369 178.758074 
z
" clip-path="url(#pae3ff4ddfe)" style="fill: #1f77b4; fill-opacity: 0.5; stroke: #1f77b4; stroke-opacity: 0.5; stroke-linejoin: miter"/>
      <path d="M 255.650369 148.127768 
L 253.650369 147.127768 
L 253.650369 149.127768 
z
" clip-path="url(#pae3ff4ddfe)" style="fill: #1f77b4; fill-opacity: 0.5; stroke: #1f77b4; stroke-opacity: 0.5; stroke-linejoin: miter"/>
      <path d="M 446.799004 111.866911 
L 444.799004 110.866911 
L 444.799004 112.866911 
z
" clip-path="url(#pae3ff4ddfe)" style="fill: #ff7f0e; fill-opacity: 0.5; stroke: #ff7f0e; stroke-opacity: 0.5; stroke-linejoin: miter"/>
      <path d="M 446.799004 104.267853 
L 444.799004 103.267853 
L 444.799004 105.267853 
z
" clip-path="url(#pae3ff4ddfe)" style="fill: #ff7f0e; fill-opacity: 0.5; stroke: #ff7f0e; stroke-opacity: 0.5; stroke-linejoin: miter"/>
      <path d="M 446.799004 110.109785 
L 444.799004 109.109785 
L 444.799004 111.109785 
z
" clip-path="url(#pae3ff4ddfe)" style="fill: #ff7f0e; fill-opacity: 0.5; stroke: #ff7f0e; stroke-opacity: 0.5; stroke-linejoin: miter"/>
      <path d="M 446.799004 130.831152 
L 444.799004 129.831152 
L 444.799004 131.831152 
z
" clip-path="url(#pae3ff4ddfe)" style="fill: #ff7f0e; fill-opacity: 0.5; stroke: #ff7f0e; stroke-opacity: 0.5; stroke-linejoin: miter"/>
      <path d="M 446.799004 183.836081 
L 444.799004 182.836081 
L 444.799004 184.836081 
z
" clip-path="url(#pae3ff4ddfe)" style="fill: #ff7f0e; fill-opacity: 0.5; stroke: #ff7f0e; stroke-opacity: 0.5; stroke-linejoin: miter"/>
      <path d="M 446.799004 92.67898 
L 444.799004 91.67898 
L 444.799004 93.67898 
z
" clip-path="url(#pae3ff4ddfe)" style="fill: #ff7f0e; fill-opacity: 0.5; stroke: #ff7f0e; stroke-opacity: 0.5; stroke-linejoin: miter"/>
      <path d="M 446.799004 85.015263 
L 444.799004 84.015263 
L 444.799004 86.015263 
z
" clip-path="url(#pae3ff4ddfe)" style="fill: #ff7f0e; fill-opacity: 0.5; stroke: #ff7f0e; stroke-opacity: 0.5; stroke-linejoin: miter"/>
      <path d="M 446.799004 170.584792 
L 444.799004 169.584792 
L 444.799004 171.584792 
z
" clip-path="url(#pae3ff4ddfe)" style="fill: #ff7f0e; fill-opacity: 0.5; stroke: #ff7f0e; stroke-opacity: 0.5; stroke-linejoin: miter"/>
      <path d="M 446.799004 89.491766 
L 444.799004 88.491766 
L 444.799004 90.491766 
z
" clip-path="url(#pae3ff4ddfe)" style="fill: #ff7f0e; fill-opacity: 0.5; stroke: #ff7f0e; stroke-opacity: 0.5; stroke-linejoin: miter"/>
      <path d="M 446.799004 152.290775 
L 444.799004 151.290775 
L 444.799004 153.290775 
z
" clip-path="url(#pae3ff4ddfe)" style="fill: #ff7f0e; fill-opacity: 0.5; stroke: #ff7f0e; stroke-opacity: 0.5; stroke-linejoin: miter"/>
      <g id="patch_6">
       <path d="M 43.78125 318.021875 
L 43.78125 22.318125 
" style="fill: none; stroke: #000000; stroke-width: 0.8; stroke-linejoin: miter; stroke-linecap: square"/>
      </g>
      <g id="text_11">
       <!-- defaults_migration_properties.yaml -->
       <g transform="translate(215.434687 16.318125) scale(0.12 -0.12)">
        <defs>
         <path id="DejaVuSans-66" d="M 2375 4863 
L 2375 4384 
L 1825 4384 
Q 1516 4384 1395 4259 
Q 1275 4134 1275 3809 
L 1275 3500 
L 2222 3500 
L 2222 3053 
L 1275 3053 
L 1275 0 
L 697 0 
L 697 3053 
L 147 3053 
L 147 3500 
L 697 3500 
L 697 3744 
Q 697 4328 969 4595 
Q 1241 4863 1831 4863 
L 2375 4863 
z
" transform="scale(0.015625)"/>
         <path id="DejaVuSans-75" d="M 544 1381 
L 544 3500 
L 1119 3500 
L 1119 1403 
Q 1119 906 1312 657 
Q 1506 409 1894 409 
Q 2359 409 2629 706 
Q 2900 1003 2900 1516 
L 2900 3500 
L 3475 3500 
L 3475 0 
L 2900 0 
L 2900 538 
Q 2691 219 2414 64 
Q 2138 -91 1772 -91 
Q 1169 -91 856 284 
Q 544 659 544 1381 
z
M 1991 3584 
L 1991 3584 
z
" transform="scale(0.015625)"/>
         <path id="DejaVuSans-6c" d="M 603 4863 
L 1178 4863 
L 1178 0 
L 603 0 
L 603 4863 
z
" transform="scale(0.015625)"/>
         <path id="DejaVuSans-5f" d="M 3263 -1063 
L 3263 -1509 
L -63 -1509 
L -63 -1063 
L 3263 -1063 
z
" transform="scale(0.015625)"/>
         <path id="DejaVuSans-70" d="M 1159 525 
L 1159 -1331 
L 581 -1331 
L 581 3500 
L 1159 3500 
L 1159 2969 
Q 1341 3281 1617 3432 
Q 1894 3584 2278 3584 
Q 2916 3584 3314 3078 
Q 3713 2572 3713 1747 
Q 3713 922 3314 415 
Q 2916 -91 2278 -91 
Q 1894 -91 1617 61 
Q 1341 213 1159 525 
z
M 3116 1747 
Q 3116 2381 2855 2742 
Q 2594 3103 2138 3103 
Q 1681 3103 1420 2742 
Q 1159 2381 1159 1747 
Q 1159 1113 1420 752 
Q 1681 391 2138 391 
Q 2594 391 2855 752 
Q 3116 1113 3116 1747 
z
" transform="scale(0.015625)"/>
         <path id="DejaVuSans-79" d="M 2059 -325 
Q 1816 -950 1584 -1140 
Q 1353 -1331 966 -1331 
L 506 -1331 
L 506 -850 
L 844 -850 
Q 1081 -850 1212 -737 
Q 1344 -625 1503 -206 
L 1606 56 
L 191 3500 
L 800 3500 
L 1894 763 
L 2988 3500 
L 3597 3500 
L 2059 -325 
z
" transform="scale(0.015625)"/>
        </defs>
        <use xlink:href="#DejaVuSans-64"/>
        <use xlink:href="#DejaVuSans-65" x="63.476562"/>
        <use xlink:href="#DejaVuSans-66" x="125"/>
        <use xlink:href="#DejaVuSans-61" x="160.205078"/>
        <use xlink:href="#DejaVuSans-75" x="221.484375"/>
        <use xlink:href="#DejaVuSans-6c" x="284.863281"/>
        <use xlink:href="#DejaVuSans-74" x="312.646484"/>
        <use xlink:href="#DejaVuSans-73" x="351.855469"/>
        <use xlink:href="#DejaVuSans-5f" x="403.955078"/>
        <use xlink:href="#DejaVuSans-6d" x="453.955078"/>
        <use xlink:href="#DejaVuSans-69" x="551.367188"/>
        <use xlink:href="#DejaVuSans-67" x="579.150391"/>
        <use xlink:href="#DejaVuSans-72" x="642.626953"/>
        <use xlink:href="#DejaVuSans-61" x="683.740234"/>
        <use xlink:href="#DejaVuSans-74" x="745.019531"/>
        <use xlink:href="#DejaVuSans-69" x="784.228516"/>
        <use xlink:href="#DejaVuSans-6f" x="812.011719"/>
        <use xlink:href="#DejaVuSans-6e" x="873.193359"/>
        <use xlink:href="#DejaVuSans-5f" x="936.572266"/>
        <use xlink:href="#DejaVuSans-70" x="986.572266"/>
        <use xlink:href="#DejaVuSans-72" x="1050.048828"/>
        <use xlink:href="#DejaVuSans-6f" x="1088.912109"/>
        <use xlink:href="#DejaVuSans-70" x="1150.09375"/>
        <use xlink:href="#DejaVuSans-65" x="1213.570312"/>
        <use xlink:href="#DejaVuSans-72" x="1275.09375"/>
        <use xlink:href="#DejaVuSans-74" x="1316.207031"/>
        <use xlink:href="#DejaVuSans-69" x="1355.416016"/>
        <use xlink:href="#DejaVuSans-65" x="1383.199219"/>
        <use xlink:href="#DejaVuSans-73" x="1444.722656"/>
        <use xlink:href="#DejaVuSans-2e" x="1496.822266"/>
        <use xlink:href="#DejaVuSans-79" x="1528.609375"/>
        <use xlink:href="#DejaVuSans-61" x="1587.789062"/>
        <use xlink:href="#DejaVuSans-6d" x="1649.068359"/>
        <use xlink:href="#DejaVuSans-6c" x="1746.480469"/>
       </g>
      </g>
     </g>
    </g>
    <defs>
     <clipPath id="pae3ff4ddfe">
      <rect x="43.78125" y="22.318125" width="556.21875" height="295.70375"/>
     </clipPath>
    </defs>
   </g>
  </g>
 </g>
</svg>