<?xml version="1.0" encoding="utf-8" standalone="no"?>
<!DOCTYPE svg PUBLIC "-//W3C//DTD SVG 1.1//EN"
  "http://www.w3.org/Graphics/SVG/1.1/DTD/svg11.dtd">
<svg xmlns:xlink="http://www.w3.org/1999/xlink" width="607.2pt" height="338.4pt" viewBox="0 0 607.2 338.4" xmlns="http://www.w3.org/2000/svg" version="1.1">
 <metadata>
  <rdf:RDF xmlns:dc="http://purl.org/dc/elements/1.1/" xmlns:cc="http://creativecommons.org/ns#" xmlns:rdf="http://www.w3.org/1999/02/22-rdf-syntax-ns#">
   <cc:Work>
    <dc:type rdf:resource="http://purl.org/dc/dcmitype/StillImage"/>
    <dc:date>2023-11-27T08:28:32.688608</dc:date>
    <dc:format>image/svg+xml</dc:format>
    <dc:creator>
     <cc:Agent>
      <dc:title>Matplotlib v3.7.2, https://matplotlib.org/</dc:title>
     </cc:Agent>
    </dc:creator>
   </cc:Work>
  </rdf:RDF>
 </metadata>
 <defs>
  <style type="text/css">*{stroke-linejoin: round; stroke-linecap: butt}</style>
 </defs>
 <g id="figure_1">
  <g id="patch_1">
   <path d="M 0 338.4 
L 607.2 338.4 
L 607.2 0 
L 0 0 
z
" style="fill: #ffffff"/>
  </g>
  <g id="axes_1">
   <g id="patch_2">
    <path d="M 43.78125 318.021875 
L 600 318.021875 
L 600 22.318125 
L 43.78125 22.318125 
z
" style="fill: #ffffff"/>
   </g>
   <path d="M 290.098299 175.362643 
L 291.098299 175.394079 
L 292.098299 175.43102 
L 293.098299 175.528766 
L 294.098299 175.561288 
L 295.098299 175.634913 
L 296.098299 175.673478 
L 297.098299 175.708891 
L 298.098299 175.766531 
L 299.098299 175.836917 
L 300.098299 175.888882 
L 301.098299 175.947971 
L 302.098299 176.036292 
L 303.098299 176.082437 
L 304.098299 176.124848 
L 305.098299 176.15534 
L 306.098299 176.181385 
L 307.098299 176.202585 
L 308.098299 176.256886 
L 309.098299 176.284824 
L 310.098299 176.314548 
L 311.098299 176.339943 
L 312.098299 176.351143 
L 313.098299 176.361267 
L 314.098299 176.361063 
L 315.098299 176.351553 
L 316.098299 176.339899 
L 317.098299 176.30887 
L 318.098299 176.297702 
L 319.098299 176.267585 
L 320.098299 176.207808 
L 321.098299 176.170616 
L 322.098299 176.13152 
L 323.098299 176.08908 
L 324.098299 176.056315 
L 325.098299 175.988889 
L 326.098299 175.949763 
L 327.098299 175.907088 
L 328.098299 175.836508 
L 329.098299 175.800117 
L 330.098299 175.741714 
L 331.098299 175.630761 
L 332.098299 175.560103 
L 333.098299 175.447163 
L 334.098299 175.40139 
L 335.098299 175.340107 
L 336.098299 175.291608 
L 337.098299 175.210785 
L 338.098299 175.092266 
L 339.098299 175.022055 
L 340.098299 174.938793 
L 341.098299 174.905651 
L 342.098299 174.854414 
L 343.098299 174.786015 
L 344.098299 174.7198 
L 345.098299 174.642883 
L 346.098299 174.615567 
L 347.098299 174.58909 
L 348.098299 174.566439 
L 349.098299 174.546908 
L 350.098299 174.520514 
L 351.098299 174.470743 
L 352.098299 174.43567 
L 353.682951 174.399804 
" clip-path="url(#p69e58d1dd3)" style="fill: none; stroke: #1f77b4; stroke-opacity: 0.5; stroke-width: 0.2; stroke-linecap: square"/>
   <path d="M 290.098299 91.905027 
L 291.098299 91.936463 
L 292.098299 91.973403 
L 293.098299 92.07115 
L 294.098299 92.103672 
L 295.098299 92.177296 
L 296.098299 92.215862 
L 297.098299 92.251275 
L 298.098299 92.308915 
L 299.098299 92.379301 
L 300.098299 92.431265 
L 301.098299 92.490355 
L 302.098299 92.578676 
L 303.098299 92.62482 
L 304.098299 92.667231 
L 305.098299 92.697724 
L 306.098299 92.723769 
L 307.098299 92.744969 
L 308.098299 92.79927 
L 309.098299 92.827208 
L 310.098299 92.856932 
L 311.098299 92.882326 
L 312.098299 92.893527 
L 313.098299 92.903651 
L 314.098299 92.903446 
L 315.098299 92.893937 
L 316.098299 92.882283 
L 317.098299 92.851254 
L 318.098299 92.840086 
L 319.098299 92.809968 
L 320.098299 92.750191 
L 321.098299 92.713 
L 322.098299 92.673904 
L 323.098299 92.631464 
L 324.098299 92.598699 
L 325.098299 92.531273 
L 326.098299 92.492147 
L 327.098299 92.449472 
L 328.098299 92.378891 
L 329.098299 92.342501 
L 330.098299 92.284097 
L 331.098299 92.173145 
L 332.098299 92.102487 
L 333.098299 91.989547 
L 334.098299 91.943774 
L 335.098299 91.882491 
L 336.098299 91.833991 
L 337.098299 91.753169 
L 338.098299 91.63465 
L 339.098299 91.564439 
L 340.098299 91.481177 
L 341.098299 91.448035 
L 342.098299 91.396797 
L 343.098299 91.328399 
L 344.098299 91.262184 
L 345.098299 91.185267 
L 346.098299 91.157951 
L 347.098299 91.131474 
L 348.098299 91.108823 
L 349.098299 91.089292 
L 350.098299 91.062898 
L 351.098299 91.013127 
L 352.098299 90.978054 
L 353.682951 90.942188 
" clip-path="url(#p69e58d1dd3)" style="fill: none; stroke: #1f77b4; stroke-opacity: 0.5; stroke-width: 0.2; stroke-linecap: square"/>
   <path d="M 290.098299 95.629549 
L 291.098299 95.660985 
L 292.098299 95.697926 
L 293.098299 95.795672 
L 294.098299 95.828194 
L 295.098299 95.901818 
L 296.098299 95.940384 
L 297.098299 95.975797 
L 298.098299 96.033437 
L 299.098299 96.103823 
L 300.098299 96.155787 
L 301.098299 96.214877 
L 302.098299 96.303198 
L 303.098299 96.349343 
L 304.098299 96.391753 
L 305.098299 96.422246 
L 306.098299 96.448291 
L 307.098299 96.469491 
L 308.098299 96.523792 
L 309.098299 96.55173 
L 310.098299 96.581454 
L 311.098299 96.606849 
L 312.098299 96.618049 
L 313.098299 96.628173 
L 314.098299 96.627969 
L 315.098299 96.618459 
L 316.098299 96.606805 
L 317.098299 96.575776 
L 318.098299 96.564608 
L 319.098299 96.53449 
L 320.098299 96.474714 
L 321.098299 96.437522 
L 322.098299 96.398426 
L 323.098299 96.355986 
L 324.098299 96.323221 
L 325.098299 96.255795 
L 326.098299 96.216669 
L 327.098299 96.173994 
L 328.098299 96.103414 
L 329.098299 96.067023 
L 330.098299 96.00862 
L 331.098299 95.897667 
L 332.098299 95.827009 
L 333.098299 95.714069 
L 334.098299 95.668296 
L 335.098299 95.607013 
L 336.098299 95.558513 
L 337.098299 95.477691 
L 338.098299 95.359172 
L 339.098299 95.288961 
L 340.098299 95.205699 
L 341.098299 95.172557 
L 342.098299 95.12132 
L 343.098299 95.052921 
L 344.098299 94.986706 
L 345.098299 94.909789 
L 346.098299 94.882473 
L 347.098299 94.855996 
L 348.098299 94.833345 
L 349.098299 94.813814 
L 350.098299 94.78742 
L 351.098299 94.737649 
L 352.098299 94.702576 
L 353.682951 94.66671 
" clip-path="url(#p69e58d1dd3)" style="fill: none; stroke: #1f77b4; stroke-opacity: 0.5; stroke-width: 0.2; stroke-linecap: square"/>
   <path d="M 290.098299 137.387607 
L 291.098299 137.419044 
L 292.098299 137.455984 
L 293.098299 137.553731 
L 294.098299 137.586252 
L 295.098299 137.659877 
L 296.098299 137.698443 
L 297.098299 137.733856 
L 298.098299 137.791496 
L 299.098299 137.861882 
L 300.098299 137.913846 
L 301.098299 137.972936 
L 302.098299 138.061257 
L 303.098299 138.107401 
L 304.098299 138.149812 
L 305.098299 138.180305 
L 306.098299 138.20635 
L 307.098299 138.22755 
L 308.098299 138.281851 
L 309.098299 138.309788 
L 310.098299 138.339512 
L 311.098299 138.364907 
L 312.098299 138.376108 
L 313.098299 138.386232 
L 314.098299 138.386027 
L 315.098299 138.376517 
L 316.098299 138.364864 
L 317.098299 138.333835 
L 318.098299 138.322667 
L 319.098299 138.292549 
L 320.098299 138.232772 
L 321.098299 138.195581 
L 322.098299 138.156485 
L 323.098299 138.114045 
L 324.098299 138.08128 
L 325.098299 138.013853 
L 326.098299 137.974727 
L 327.098299 137.932053 
L 328.098299 137.861472 
L 329.098299 137.825081 
L 330.098299 137.766678 
L 331.098299 137.655726 
L 332.098299 137.585067 
L 333.098299 137.472128 
L 334.098299 137.426355 
L 335.098299 137.365071 
L 336.098299 137.316572 
L 337.098299 137.235749 
L 338.098299 137.11723 
L 339.098299 137.04702 
L 340.098299 136.963757 
L 341.098299 136.930616 
L 342.098299 136.879378 
L 343.098299 136.81098 
L 344.098299 136.744764 
L 345.098299 136.667847 
L 346.098299 136.640532 
L 347.098299 136.614054 
L 348.098299 136.591404 
L 349.098299 136.571872 
L 350.098299 136.545479 
L 351.098299 136.495708 
L 352.098299 136.460635 
L 353.682951 136.424769 
" clip-path="url(#p69e58d1dd3)" style="fill: none; stroke: #1f77b4; stroke-opacity: 0.5; stroke-width: 0.2; stroke-linecap: square"/>
   <path d="M 290.098299 176.181787 
L 291.098299 176.213223 
L 292.098299 176.250164 
L 293.098299 176.34791 
L 294.098299 176.380432 
L 295.098299 176.454057 
L 296.098299 176.492622 
L 297.098299 176.528035 
L 298.098299 176.585675 
L 299.098299 176.656061 
L 300.098299 176.708026 
L 301.098299 176.767115 
L 302.098299 176.855436 
L 303.098299 176.901581 
L 304.098299 176.943992 
L 305.098299 176.974484 
L 306.098299 177.000529 
L 307.098299 177.021729 
L 308.098299 177.07603 
L 309.098299 177.103968 
L 310.098299 177.133692 
L 311.098299 177.159087 
L 312.098299 177.170287 
L 313.098299 177.180411 
L 314.098299 177.180207 
L 315.098299 177.170697 
L 316.098299 177.159043 
L 317.098299 177.128014 
L 318.098299 177.116846 
L 319.098299 177.086729 
L 320.098299 177.026952 
L 321.098299 176.98976 
L 322.098299 176.950664 
L 323.098299 176.908224 
L 324.098299 176.875459 
L 325.098299 176.808033 
L 326.098299 176.768907 
L 327.098299 176.726232 
L 328.098299 176.655652 
L 329.098299 176.619261 
L 330.098299 176.560858 
L 331.098299 176.449905 
L 332.098299 176.379247 
L 333.098299 176.266307 
L 334.098299 176.220534 
L 335.098299 176.159251 
L 336.098299 176.110752 
L 337.098299 176.029929 
L 338.098299 175.91141 
L 339.098299 175.841199 
L 340.098299 175.757937 
L 341.098299 175.724795 
L 342.098299 175.673558 
L 343.098299 175.605159 
L 344.098299 175.538944 
L 345.098299 175.462027 
L 346.098299 175.434711 
L 347.098299 175.408234 
L 348.098299 175.385583 
L 349.098299 175.366052 
L 350.098299 175.339658 
L 351.098299 175.289887 
L 352.098299 175.254814 
L 353.682951 175.218948 
" clip-path="url(#p69e58d1dd3)" style="fill: none; stroke: #1f77b4; stroke-opacity: 0.5; stroke-width: 0.2; stroke-linecap: square"/>
   <path d="M 290.098299 100.969216 
L 291.098299 101.000652 
L 292.098299 101.037592 
L 293.098299 101.135339 
L 294.098299 101.167861 
L 295.098299 101.241485 
L 296.098299 101.280051 
L 297.098299 101.315464 
L 298.098299 101.373104 
L 299.098299 101.44349 
L 300.098299 101.495454 
L 301.098299 101.554544 
L 302.098299 101.642865 
L 303.098299 101.689009 
L 304.098299 101.73142 
L 305.098299 101.761913 
L 306.098299 101.787958 
L 307.098299 101.809158 
L 308.098299 101.863459 
L 309.098299 101.891397 
L 310.098299 101.921121 
L 311.098299 101.946515 
L 312.098299 101.957716 
L 313.098299 101.96784 
L 314.098299 101.967635 
L 315.098299 101.958126 
L 316.098299 101.946472 
L 317.098299 101.915443 
L 318.098299 101.904275 
L 319.098299 101.874157 
L 320.098299 101.81438 
L 321.098299 101.777189 
L 322.098299 101.738093 
L 323.098299 101.695653 
L 324.098299 101.662888 
L 325.098299 101.595462 
L 326.098299 101.556336 
L 327.098299 101.513661 
L 328.098299 101.44308 
L 329.098299 101.40669 
L 330.098299 101.348286 
L 331.098299 101.237334 
L 332.098299 101.166676 
L 333.098299 101.053736 
L 334.098299 101.007963 
L 335.098299 100.94668 
L 336.098299 100.89818 
L 337.098299 100.817358 
L 338.098299 100.698839 
L 339.098299 100.628628 
L 340.098299 100.545366 
L 341.098299 100.512224 
L 342.098299 100.460986 
L 343.098299 100.392588 
L 344.098299 100.326373 
L 345.098299 100.249456 
L 346.098299 100.22214 
L 347.098299 100.195663 
L 348.098299 100.173012 
L 349.098299 100.153481 
L 350.098299 100.127087 
L 351.098299 100.077316 
L 352.098299 100.042243 
L 353.682951 100.006377 
" clip-path="url(#p69e58d1dd3)" style="fill: none; stroke: #1f77b4; stroke-opacity: 0.5; stroke-width: 0.2; stroke-linecap: square"/>
   <path d="M 290.098299 110.986073 
L 291.098299 111.017509 
L 292.098299 111.054449 
L 293.098299 111.152196 
L 294.098299 111.184717 
L 295.098299 111.258342 
L 296.098299 111.296908 
L 297.098299 111.332321 
L 298.098299 111.389961 
L 299.098299 111.460347 
L 300.098299 111.512311 
L 301.098299 111.571401 
L 302.098299 111.659722 
L 303.098299 111.705866 
L 304.098299 111.748277 
L 305.098299 111.77877 
L 306.098299 111.804815 
L 307.098299 111.826015 
L 308.098299 111.880316 
L 309.098299 111.908254 
L 310.098299 111.937978 
L 311.098299 111.963372 
L 312.098299 111.974573 
L 313.098299 111.984697 
L 314.098299 111.984492 
L 315.098299 111.974982 
L 316.098299 111.963329 
L 317.098299 111.9323 
L 318.098299 111.921132 
L 319.098299 111.891014 
L 320.098299 111.831237 
L 321.098299 111.794046 
L 322.098299 111.75495 
L 323.098299 111.71251 
L 324.098299 111.679745 
L 325.098299 111.612318 
L 326.098299 111.573192 
L 327.098299 111.530518 
L 328.098299 111.459937 
L 329.098299 111.423546 
L 330.098299 111.365143 
L 331.098299 111.254191 
L 332.098299 111.183532 
L 333.098299 111.070593 
L 334.098299 111.02482 
L 335.098299 110.963536 
L 336.098299 110.915037 
L 337.098299 110.834214 
L 338.098299 110.715696 
L 339.098299 110.645485 
L 340.098299 110.562222 
L 341.098299 110.529081 
L 342.098299 110.477843 
L 343.098299 110.409445 
L 344.098299 110.34323 
L 345.098299 110.266312 
L 346.098299 110.238997 
L 347.098299 110.212519 
L 348.098299 110.189869 
L 349.098299 110.170338 
L 350.098299 110.143944 
L 351.098299 110.094173 
L 352.098299 110.0591 
L 353.682951 110.023234 
" clip-path="url(#p69e58d1dd3)" style="fill: none; stroke: #1f77b4; stroke-opacity: 0.5; stroke-width: 0.2; stroke-linecap: square"/>
   <path d="M 290.098299 179.159659 
L 291.098299 179.191096 
L 292.098299 179.228036 
L 293.098299 179.325783 
L 294.098299 179.358304 
L 295.098299 179.431929 
L 296.098299 179.470494 
L 297.098299 179.505908 
L 298.098299 179.563547 
L 299.098299 179.633934 
L 300.098299 179.685898 
L 301.098299 179.744988 
L 302.098299 179.833309 
L 303.098299 179.879453 
L 304.098299 179.921864 
L 305.098299 179.952357 
L 306.098299 179.978401 
L 307.098299 179.999602 
L 308.098299 180.053903 
L 309.098299 180.08184 
L 310.098299 180.111564 
L 311.098299 180.136959 
L 312.098299 180.148159 
L 313.098299 180.158283 
L 314.098299 180.158079 
L 315.098299 180.148569 
L 316.098299 180.136916 
L 317.098299 180.105886 
L 318.098299 180.094718 
L 319.098299 180.064601 
L 320.098299 180.004824 
L 321.098299 179.967632 
L 322.098299 179.928536 
L 323.098299 179.886097 
L 324.098299 179.853332 
L 325.098299 179.785905 
L 326.098299 179.746779 
L 327.098299 179.704105 
L 328.098299 179.633524 
L 329.098299 179.597133 
L 330.098299 179.53873 
L 331.098299 179.427777 
L 332.098299 179.357119 
L 333.098299 179.244179 
L 334.098299 179.198406 
L 335.098299 179.137123 
L 336.098299 179.088624 
L 337.098299 179.007801 
L 338.098299 178.889282 
L 339.098299 178.819072 
L 340.098299 178.735809 
L 341.098299 178.702667 
L 342.098299 178.65143 
L 343.098299 178.583032 
L 344.098299 178.516816 
L 345.098299 178.439899 
L 346.098299 178.412584 
L 347.098299 178.386106 
L 348.098299 178.363456 
L 349.098299 178.343924 
L 350.098299 178.31753 
L 351.098299 178.267759 
L 352.098299 178.232686 
L 353.682951 178.196821 
" clip-path="url(#p69e58d1dd3)" style="fill: none; stroke: #1f77b4; stroke-opacity: 0.5; stroke-width: 0.2; stroke-linecap: square"/>
   <path d="M 290.098299 137.615506 
L 291.098299 137.646942 
L 292.098299 137.683882 
L 293.098299 137.781629 
L 294.098299 137.814151 
L 295.098299 137.887775 
L 296.098299 137.926341 
L 297.098299 137.961754 
L 298.098299 138.019394 
L 299.098299 138.08978 
L 300.098299 138.141744 
L 301.098299 138.200834 
L 302.098299 138.289155 
L 303.098299 138.335299 
L 304.098299 138.37771 
L 305.098299 138.408203 
L 306.098299 138.434248 
L 307.098299 138.455448 
L 308.098299 138.509749 
L 309.098299 138.537687 
L 310.098299 138.567411 
L 311.098299 138.592805 
L 312.098299 138.604006 
L 313.098299 138.61413 
L 314.098299 138.613925 
L 315.098299 138.604416 
L 316.098299 138.592762 
L 317.098299 138.561733 
L 318.098299 138.550565 
L 319.098299 138.520447 
L 320.098299 138.46067 
L 321.098299 138.423479 
L 322.098299 138.384383 
L 323.098299 138.341943 
L 324.098299 138.309178 
L 325.098299 138.241752 
L 326.098299 138.202626 
L 327.098299 138.159951 
L 328.098299 138.08937 
L 329.098299 138.05298 
L 330.098299 137.994576 
L 331.098299 137.883624 
L 332.098299 137.812966 
L 333.098299 137.700026 
L 334.098299 137.654253 
L 335.098299 137.59297 
L 336.098299 137.54447 
L 337.098299 137.463648 
L 338.098299 137.345129 
L 339.098299 137.274918 
L 340.098299 137.191656 
L 341.098299 137.158514 
L 342.098299 137.107276 
L 343.098299 137.038878 
L 344.098299 136.972663 
L 345.098299 136.895746 
L 346.098299 136.86843 
L 347.098299 136.841953 
L 348.098299 136.819302 
L 349.098299 136.799771 
L 350.098299 136.773377 
L 351.098299 136.723606 
L 352.098299 136.688533 
L 353.682951 136.652667 
" clip-path="url(#p69e58d1dd3)" style="fill: none; stroke: #1f77b4; stroke-opacity: 0.5; stroke-width: 0.2; stroke-linecap: square"/>
   <path d="M 290.098299 141.680213 
L 291.098299 141.711649 
L 292.098299 141.74859 
L 293.098299 141.846336 
L 294.098299 141.878858 
L 295.098299 141.952483 
L 296.098299 141.991048 
L 297.098299 142.026461 
L 298.098299 142.084101 
L 299.098299 142.154488 
L 300.098299 142.206452 
L 301.098299 142.265542 
L 302.098299 142.353862 
L 303.098299 142.400007 
L 304.098299 142.442418 
L 305.098299 142.47291 
L 306.098299 142.498955 
L 307.098299 142.520155 
L 308.098299 142.574457 
L 309.098299 142.602394 
L 310.098299 142.632118 
L 311.098299 142.657513 
L 312.098299 142.668713 
L 313.098299 142.678837 
L 314.098299 142.678633 
L 315.098299 142.669123 
L 316.098299 142.657469 
L 317.098299 142.62644 
L 318.098299 142.615272 
L 319.098299 142.585155 
L 320.098299 142.525378 
L 321.098299 142.488186 
L 322.098299 142.44909 
L 323.098299 142.406651 
L 324.098299 142.373885 
L 325.098299 142.306459 
L 326.098299 142.267333 
L 327.098299 142.224659 
L 328.098299 142.154078 
L 329.098299 142.117687 
L 330.098299 142.059284 
L 331.098299 141.948331 
L 332.098299 141.877673 
L 333.098299 141.764733 
L 334.098299 141.71896 
L 335.098299 141.657677 
L 336.098299 141.609178 
L 337.098299 141.528355 
L 338.098299 141.409836 
L 339.098299 141.339625 
L 340.098299 141.256363 
L 341.098299 141.223221 
L 342.098299 141.171984 
L 343.098299 141.103586 
L 344.098299 141.03737 
L 345.098299 140.960453 
L 346.098299 140.933138 
L 347.098299 140.90666 
L 348.098299 140.884009 
L 349.098299 140.864478 
L 350.098299 140.838084 
L 351.098299 140.788313 
L 352.098299 140.75324 
L 353.682951 140.717375 
" clip-path="url(#p69e58d1dd3)" style="fill: none; stroke: #1f77b4; stroke-opacity: 0.5; stroke-width: 0.2; stroke-linecap: square"/>
   <path d="M 290.098299 255.403614 
L 291.098299 255.435051 
L 292.098299 255.471991 
L 293.098299 255.569738 
L 294.098299 255.602259 
L 295.098299 255.675884 
L 296.098299 255.71445 
L 297.098299 255.749863 
L 298.098299 255.807503 
L 299.098299 255.877889 
L 300.098299 255.929853 
L 301.098299 255.988943 
L 302.098299 256.077264 
L 303.098299 256.123408 
L 304.098299 256.165819 
L 305.098299 256.196312 
L 306.098299 256.222357 
L 307.098299 256.243557 
L 308.098299 256.297858 
L 309.098299 256.325795 
L 310.098299 256.355519 
L 311.098299 256.380914 
L 312.098299 256.392115 
L 313.098299 256.402239 
L 314.098299 256.402034 
L 315.098299 256.392524 
L 316.098299 256.380871 
L 317.098299 256.349841 
L 318.098299 256.338674 
L 319.098299 256.308556 
L 320.098299 256.248779 
L 321.098299 256.211588 
L 322.098299 256.172491 
L 323.098299 256.130052 
L 324.098299 256.097287 
L 325.098299 256.02986 
L 326.098299 255.990734 
L 327.098299 255.94806 
L 328.098299 255.877479 
L 329.098299 255.841088 
L 330.098299 255.782685 
L 331.098299 255.671733 
L 332.098299 255.601074 
L 333.098299 255.488134 
L 334.098299 255.442362 
L 335.098299 255.381078 
L 336.098299 255.332579 
L 337.098299 255.251756 
L 338.098299 255.133237 
L 339.098299 255.063027 
L 340.098299 254.979764 
L 341.098299 254.946623 
L 342.098299 254.895385 
L 343.098299 254.826987 
L 344.098299 254.760771 
L 345.098299 254.683854 
L 346.098299 254.656539 
L 347.098299 254.630061 
L 348.098299 254.607411 
L 349.098299 254.587879 
L 350.098299 254.561485 
L 351.098299 254.511715 
L 352.098299 254.476641 
L 353.682951 254.440776 
" clip-path="url(#p69e58d1dd3)" style="fill: none; stroke: #1f77b4; stroke-opacity: 0.5; stroke-width: 0.2; stroke-linecap: square"/>
   <path d="M 290.098299 268.592293 
L 291.098299 268.623729 
L 292.098299 268.660669 
L 293.098299 268.758416 
L 294.098299 268.790938 
L 295.098299 268.864562 
L 296.098299 268.903128 
L 297.098299 268.938541 
L 298.098299 268.996181 
L 299.098299 269.066567 
L 300.098299 269.118531 
L 301.098299 269.177621 
L 302.098299 269.265942 
L 303.098299 269.312086 
L 304.098299 269.354497 
L 305.098299 269.38499 
L 306.098299 269.411035 
L 307.098299 269.432235 
L 308.098299 269.486536 
L 309.098299 269.514474 
L 310.098299 269.544198 
L 311.098299 269.569592 
L 312.098299 269.580793 
L 313.098299 269.590917 
L 314.098299 269.590712 
L 315.098299 269.581203 
L 316.098299 269.569549 
L 317.098299 269.53852 
L 318.098299 269.527352 
L 319.098299 269.497234 
L 320.098299 269.437457 
L 321.098299 269.400266 
L 322.098299 269.36117 
L 323.098299 269.31873 
L 324.098299 269.285965 
L 325.098299 269.218539 
L 326.098299 269.179413 
L 327.098299 269.136738 
L 328.098299 269.066158 
L 329.098299 269.029767 
L 330.098299 268.971363 
L 331.098299 268.860411 
L 332.098299 268.789753 
L 333.098299 268.676813 
L 334.098299 268.63104 
L 335.098299 268.569757 
L 336.098299 268.521257 
L 337.098299 268.440435 
L 338.098299 268.321916 
L 339.098299 268.251705 
L 340.098299 268.168443 
L 341.098299 268.135301 
L 342.098299 268.084064 
L 343.098299 268.015665 
L 344.098299 267.94945 
L 345.098299 267.872533 
L 346.098299 267.845217 
L 347.098299 267.81874 
L 348.098299 267.796089 
L 349.098299 267.776558 
L 350.098299 267.750164 
L 351.098299 267.700393 
L 352.098299 267.66532 
L 353.682951 267.629454 
" clip-path="url(#p69e58d1dd3)" style="fill: none; stroke: #1f77b4; stroke-opacity: 0.5; stroke-width: 0.2; stroke-linecap: square"/>
   <path d="M 290.098299 224.996426 
L 291.098299 225.027862 
L 292.098299 225.064803 
L 293.098299 225.162549 
L 294.098299 225.195071 
L 295.098299 225.268695 
L 296.098299 225.307261 
L 297.098299 225.342674 
L 298.098299 225.400314 
L 299.098299 225.4707 
L 300.098299 225.522665 
L 301.098299 225.581754 
L 302.098299 225.670075 
L 303.098299 225.71622 
L 304.098299 225.758631 
L 305.098299 225.789123 
L 306.098299 225.815168 
L 307.098299 225.836368 
L 308.098299 225.890669 
L 309.098299 225.918607 
L 310.098299 225.948331 
L 311.098299 225.973726 
L 312.098299 225.984926 
L 313.098299 225.99505 
L 314.098299 225.994846 
L 315.098299 225.985336 
L 316.098299 225.973682 
L 317.098299 225.942653 
L 318.098299 225.931485 
L 319.098299 225.901368 
L 320.098299 225.841591 
L 321.098299 225.804399 
L 322.098299 225.765303 
L 323.098299 225.722863 
L 324.098299 225.690098 
L 325.098299 225.622672 
L 326.098299 225.583546 
L 327.098299 225.540871 
L 328.098299 225.470291 
L 329.098299 225.4339 
L 330.098299 225.375497 
L 331.098299 225.264544 
L 332.098299 225.193886 
L 333.098299 225.080946 
L 334.098299 225.035173 
L 335.098299 224.97389 
L 336.098299 224.925391 
L 337.098299 224.844568 
L 338.098299 224.726049 
L 339.098299 224.655838 
L 340.098299 224.572576 
L 341.098299 224.539434 
L 342.098299 224.488197 
L 343.098299 224.419798 
L 344.098299 224.353583 
L 345.098299 224.276666 
L 346.098299 224.24935 
L 347.098299 224.222873 
L 348.098299 224.200222 
L 349.098299 224.180691 
L 350.098299 224.154297 
L 351.098299 224.104526 
L 352.098299 224.069453 
L 353.682951 224.033587 
" clip-path="url(#p69e58d1dd3)" style="fill: none; stroke: #1f77b4; stroke-opacity: 0.5; stroke-width: 0.2; stroke-linecap: square"/>
   <path d="M 290.098299 222.901082 
L 291.098299 222.932518 
L 292.098299 222.969459 
L 293.098299 223.067205 
L 294.098299 223.099727 
L 295.098299 223.173351 
L 296.098299 223.211917 
L 297.098299 223.24733 
L 298.098299 223.30497 
L 299.098299 223.375356 
L 300.098299 223.427321 
L 301.098299 223.48641 
L 302.098299 223.574731 
L 303.098299 223.620876 
L 304.098299 223.663287 
L 305.098299 223.693779 
L 306.098299 223.719824 
L 307.098299 223.741024 
L 308.098299 223.795325 
L 309.098299 223.823263 
L 310.098299 223.852987 
L 311.098299 223.878382 
L 312.098299 223.889582 
L 313.098299 223.899706 
L 314.098299 223.899502 
L 315.098299 223.889992 
L 316.098299 223.878338 
L 317.098299 223.847309 
L 318.098299 223.836141 
L 319.098299 223.806024 
L 320.098299 223.746247 
L 321.098299 223.709055 
L 322.098299 223.669959 
L 323.098299 223.627519 
L 324.098299 223.594754 
L 325.098299 223.527328 
L 326.098299 223.488202 
L 327.098299 223.445527 
L 328.098299 223.374947 
L 329.098299 223.338556 
L 330.098299 223.280153 
L 331.098299 223.1692 
L 332.098299 223.098542 
L 333.098299 222.985602 
L 334.098299 222.939829 
L 335.098299 222.878546 
L 336.098299 222.830047 
L 337.098299 222.749224 
L 338.098299 222.630705 
L 339.098299 222.560494 
L 340.098299 222.477232 
L 341.098299 222.44409 
L 342.098299 222.392853 
L 343.098299 222.324454 
L 344.098299 222.258239 
L 345.098299 222.181322 
L 346.098299 222.154006 
L 347.098299 222.127529 
L 348.098299 222.104878 
L 349.098299 222.085347 
L 350.098299 222.058953 
L 351.098299 222.009182 
L 352.098299 221.974109 
L 353.682951 221.938243 
" clip-path="url(#p69e58d1dd3)" style="fill: none; stroke: #1f77b4; stroke-opacity: 0.5; stroke-width: 0.2; stroke-linecap: square"/>
   <path d="M 290.098299 310.760157 
L 291.098299 310.791593 
L 292.098299 310.828533 
L 293.098299 310.92628 
L 294.098299 310.958802 
L 295.098299 311.032426 
L 296.098299 311.070992 
L 297.098299 311.106405 
L 298.098299 311.164045 
L 299.098299 311.234431 
L 300.098299 311.286395 
L 301.098299 311.345485 
L 302.098299 311.433806 
L 303.098299 311.47995 
L 304.098299 311.522361 
L 305.098299 311.552854 
L 306.098299 311.578899 
L 307.098299 311.600099 
L 308.098299 311.6544 
L 309.098299 311.682338 
L 310.098299 311.712062 
L 311.098299 311.737456 
L 312.098299 311.748657 
L 313.098299 311.758781 
L 314.098299 311.758577 
L 315.098299 311.749067 
L 316.098299 311.737413 
L 317.098299 311.706384 
L 318.098299 311.695216 
L 319.098299 311.665098 
L 320.098299 311.605321 
L 321.098299 311.56813 
L 322.098299 311.529034 
L 323.098299 311.486594 
L 324.098299 311.453829 
L 325.098299 311.386403 
L 326.098299 311.347277 
L 327.098299 311.304602 
L 328.098299 311.234022 
L 329.098299 311.197631 
L 330.098299 311.139227 
L 331.098299 311.028275 
L 332.098299 310.957617 
L 333.098299 310.844677 
L 334.098299 310.798904 
L 335.098299 310.737621 
L 336.098299 310.689121 
L 337.098299 310.608299 
L 338.098299 310.48978 
L 339.098299 310.419569 
L 340.098299 310.336307 
L 341.098299 310.303165 
L 342.098299 310.251928 
L 343.098299 310.183529 
L 344.098299 310.117314 
L 345.098299 310.040397 
L 346.098299 310.013081 
L 347.098299 309.986604 
L 348.098299 309.963953 
L 349.098299 309.944422 
L 350.098299 309.918028 
L 351.098299 309.868257 
L 352.098299 309.833184 
L 353.682951 309.797318 
" clip-path="url(#p69e58d1dd3)" style="fill: none; stroke: #1f77b4; stroke-opacity: 0.5; stroke-width: 0.2; stroke-linecap: square"/>
   <path d="M 290.098299 203.644833 
L 291.098299 203.676269 
L 292.098299 203.713209 
L 293.098299 203.810956 
L 294.098299 203.843477 
L 295.098299 203.917102 
L 296.098299 203.955668 
L 297.098299 203.991081 
L 298.098299 204.048721 
L 299.098299 204.119107 
L 300.098299 204.171071 
L 301.098299 204.230161 
L 302.098299 204.318482 
L 303.098299 204.364626 
L 304.098299 204.407037 
L 305.098299 204.43753 
L 306.098299 204.463575 
L 307.098299 204.484775 
L 308.098299 204.539076 
L 309.098299 204.567014 
L 310.098299 204.596738 
L 311.098299 204.622132 
L 312.098299 204.633333 
L 313.098299 204.643457 
L 314.098299 204.643252 
L 315.098299 204.633742 
L 316.098299 204.622089 
L 317.098299 204.59106 
L 318.098299 204.579892 
L 319.098299 204.549774 
L 320.098299 204.489997 
L 321.098299 204.452806 
L 322.098299 204.41371 
L 323.098299 204.37127 
L 324.098299 204.338505 
L 325.098299 204.271078 
L 326.098299 204.231952 
L 327.098299 204.189278 
L 328.098299 204.118697 
L 329.098299 204.082306 
L 330.098299 204.023903 
L 331.098299 203.912951 
L 332.098299 203.842292 
L 333.098299 203.729353 
L 334.098299 203.68358 
L 335.098299 203.622296 
L 336.098299 203.573797 
L 337.098299 203.492974 
L 338.098299 203.374456 
L 339.098299 203.304245 
L 340.098299 203.220982 
L 341.098299 203.187841 
L 342.098299 203.136603 
L 343.098299 203.068205 
L 344.098299 203.00199 
L 345.098299 202.925072 
L 346.098299 202.897757 
L 347.098299 202.87128 
L 348.098299 202.848629 
L 349.098299 202.829098 
L 350.098299 202.802704 
L 351.098299 202.752933 
L 352.098299 202.71786 
L 353.682951 202.681994 
" clip-path="url(#p69e58d1dd3)" style="fill: none; stroke: #1f77b4; stroke-opacity: 0.5; stroke-width: 0.2; stroke-linecap: square"/>
   <path d="M 290.098299 217.825026 
L 291.098299 217.856462 
L 292.098299 217.893403 
L 293.098299 217.991149 
L 294.098299 218.023671 
L 295.098299 218.097296 
L 296.098299 218.135861 
L 297.098299 218.171274 
L 298.098299 218.228914 
L 299.098299 218.2993 
L 300.098299 218.351265 
L 301.098299 218.410354 
L 302.098299 218.498675 
L 303.098299 218.54482 
L 304.098299 218.587231 
L 305.098299 218.617723 
L 306.098299 218.643768 
L 307.098299 218.664968 
L 308.098299 218.719269 
L 309.098299 218.747207 
L 310.098299 218.776931 
L 311.098299 218.802326 
L 312.098299 218.813526 
L 313.098299 218.82365 
L 314.098299 218.823446 
L 315.098299 218.813936 
L 316.098299 218.802282 
L 317.098299 218.771253 
L 318.098299 218.760085 
L 319.098299 218.729968 
L 320.098299 218.670191 
L 321.098299 218.632999 
L 322.098299 218.593903 
L 323.098299 218.551463 
L 324.098299 218.518698 
L 325.098299 218.451272 
L 326.098299 218.412146 
L 327.098299 218.369471 
L 328.098299 218.298891 
L 329.098299 218.2625 
L 330.098299 218.204097 
L 331.098299 218.093144 
L 332.098299 218.022486 
L 333.098299 217.909546 
L 334.098299 217.863773 
L 335.098299 217.80249 
L 336.098299 217.753991 
L 337.098299 217.673168 
L 338.098299 217.554649 
L 339.098299 217.484438 
L 340.098299 217.401176 
L 341.098299 217.368034 
L 342.098299 217.316797 
L 343.098299 217.248398 
L 344.098299 217.182183 
L 345.098299 217.105266 
L 346.098299 217.07795 
L 347.098299 217.051473 
L 348.098299 217.028822 
L 349.098299 217.009291 
L 350.098299 216.982897 
L 351.098299 216.933126 
L 352.098299 216.898053 
L 353.682951 216.862187 
" clip-path="url(#p69e58d1dd3)" style="fill: none; stroke: #1f77b4; stroke-opacity: 0.5; stroke-width: 0.2; stroke-linecap: square"/>
   <path d="M 290.098299 315.667485 
L 291.098299 315.698921 
L 292.098299 315.735862 
L 293.098299 315.833608 
L 294.098299 315.86613 
L 295.098299 315.939755 
L 296.098299 315.97832 
L 297.098299 316.013733 
L 298.098299 316.071373 
L 299.098299 316.14176 
L 300.098299 316.193724 
L 301.098299 316.252814 
L 302.098299 316.341134 
L 303.098299 316.387279 
L 304.098299 316.42969 
L 305.098299 316.460182 
L 306.098299 316.486227 
L 307.098299 316.507427 
L 308.098299 316.561729 
L 309.098299 316.589666 
L 310.098299 316.61939 
L 311.098299 316.644785 
L 312.098299 316.655985 
L 313.098299 316.666109 
L 314.098299 316.665905 
L 315.098299 316.656395 
L 316.098299 316.644741 
L 317.098299 316.613712 
L 318.098299 316.602544 
L 319.098299 316.572427 
L 320.098299 316.51265 
L 321.098299 316.475458 
L 322.098299 316.436362 
L 323.098299 316.393923 
L 324.098299 316.361157 
L 325.098299 316.293731 
L 326.098299 316.254605 
L 327.098299 316.211931 
L 328.098299 316.14135 
L 329.098299 316.104959 
L 330.098299 316.046556 
L 331.098299 315.935603 
L 332.098299 315.864945 
L 333.098299 315.752005 
L 334.098299 315.706232 
L 335.098299 315.644949 
L 336.098299 315.59645 
L 337.098299 315.515627 
L 338.098299 315.397108 
L 339.098299 315.326897 
L 340.098299 315.243635 
L 341.098299 315.210493 
L 342.098299 315.159256 
L 343.098299 315.090858 
L 344.098299 315.024642 
L 345.098299 314.947725 
L 346.098299 314.92041 
L 347.098299 314.893932 
L 348.098299 314.871281 
L 349.098299 314.85175 
L 350.098299 314.825356 
L 351.098299 314.775585 
L 352.098299 314.740512 
L 353.682951 314.704647 
" clip-path="url(#p69e58d1dd3)" style="fill: none; stroke: #1f77b4; stroke-opacity: 0.5; stroke-width: 0.2; stroke-linecap: square"/>
   <path d="M 290.098299 205.020525 
L 291.098299 205.051961 
L 292.098299 205.088902 
L 293.098299 205.186648 
L 294.098299 205.21917 
L 295.098299 205.292794 
L 296.098299 205.33136 
L 297.098299 205.366773 
L 298.098299 205.424413 
L 299.098299 205.494799 
L 300.098299 205.546763 
L 301.098299 205.605853 
L 302.098299 205.694174 
L 303.098299 205.740318 
L 304.098299 205.782729 
L 305.098299 205.813222 
L 306.098299 205.839267 
L 307.098299 205.860467 
L 308.098299 205.914768 
L 309.098299 205.942706 
L 310.098299 205.97243 
L 311.098299 205.997825 
L 312.098299 206.009025 
L 313.098299 206.019149 
L 314.098299 206.018945 
L 315.098299 206.009435 
L 316.098299 205.997781 
L 317.098299 205.966752 
L 318.098299 205.955584 
L 319.098299 205.925466 
L 320.098299 205.86569 
L 321.098299 205.828498 
L 322.098299 205.789402 
L 323.098299 205.746962 
L 324.098299 205.714197 
L 325.098299 205.646771 
L 326.098299 205.607645 
L 327.098299 205.56497 
L 328.098299 205.49439 
L 329.098299 205.457999 
L 330.098299 205.399596 
L 331.098299 205.288643 
L 332.098299 205.217985 
L 333.098299 205.105045 
L 334.098299 205.059272 
L 335.098299 204.997989 
L 336.098299 204.949489 
L 337.098299 204.868667 
L 338.098299 204.750148 
L 339.098299 204.679937 
L 340.098299 204.596675 
L 341.098299 204.563533 
L 342.098299 204.512296 
L 343.098299 204.443897 
L 344.098299 204.377682 
L 345.098299 204.300765 
L 346.098299 204.273449 
L 347.098299 204.246972 
L 348.098299 204.224321 
L 349.098299 204.20479 
L 350.098299 204.178396 
L 351.098299 204.128625 
L 352.098299 204.093552 
L 353.682951 204.057686 
" clip-path="url(#p69e58d1dd3)" style="fill: none; stroke: #1f77b4; stroke-opacity: 0.5; stroke-width: 0.2; stroke-linecap: square"/>
   <path d="M 290.098299 250.523887 
L 291.098299 250.555323 
L 292.098299 250.592264 
L 293.098299 250.69001 
L 294.098299 250.722532 
L 295.098299 250.796156 
L 296.098299 250.834722 
L 297.098299 250.870135 
L 298.098299 250.927775 
L 299.098299 250.998161 
L 300.098299 251.050125 
L 301.098299 251.109215 
L 302.098299 251.197536 
L 303.098299 251.24368 
L 304.098299 251.286091 
L 305.098299 251.316584 
L 306.098299 251.342629 
L 307.098299 251.363829 
L 308.098299 251.41813 
L 309.098299 251.446068 
L 310.098299 251.475792 
L 311.098299 251.501187 
L 312.098299 251.512387 
L 313.098299 251.522511 
L 314.098299 251.522307 
L 315.098299 251.512797 
L 316.098299 251.501143 
L 317.098299 251.470114 
L 318.098299 251.458946 
L 319.098299 251.428828 
L 320.098299 251.369051 
L 321.098299 251.33186 
L 322.098299 251.292764 
L 323.098299 251.250324 
L 324.098299 251.217559 
L 325.098299 251.150133 
L 326.098299 251.111007 
L 327.098299 251.068332 
L 328.098299 250.997752 
L 329.098299 250.961361 
L 330.098299 250.902958 
L 331.098299 250.792005 
L 332.098299 250.721347 
L 333.098299 250.608407 
L 334.098299 250.562634 
L 335.098299 250.501351 
L 336.098299 250.452851 
L 337.098299 250.372029 
L 338.098299 250.25351 
L 339.098299 250.183299 
L 340.098299 250.100037 
L 341.098299 250.066895 
L 342.098299 250.015658 
L 343.098299 249.947259 
L 344.098299 249.881044 
L 345.098299 249.804127 
L 346.098299 249.776811 
L 347.098299 249.750334 
L 348.098299 249.727683 
L 349.098299 249.708152 
L 350.098299 249.681758 
L 351.098299 249.631987 
L 352.098299 249.596914 
L 353.682951 249.561048 
" clip-path="url(#p69e58d1dd3)" style="fill: none; stroke: #1f77b4; stroke-opacity: 0.5; stroke-width: 0.2; stroke-linecap: square"/>
   <g id="patch_3">
    <path d="M 69.06392 22.318125 
L 69.06392 318.021875 
M 284.536112 22.318125 
L 284.536112 318.021875 
" clip-path="url(#p69e58d1dd3)" style="fill: none; stroke: #ffffff; stroke-width: 3; stroke-linejoin: miter"/>
    <path d="M 69.06392 22.318125 
L 69.06392 318.021875 
M 284.536112 22.318125 
L 284.536112 318.021875 
" clip-path="url(#p69e58d1dd3)" style="fill: none; stroke: #1f77b4; stroke-linejoin: miter"/>
    <g id="PolyCollection_1">
     <path d="M 284.536112 22.318125 
L 69.06392 22.318125 
L 69.06392 318.021875 
L 284.536112 318.021875 
L 284.536112 318.021875 
L 284.536112 22.318125 
z
" clip-path="url(#p69e58d1dd3)" style="fill: #1f77b4; fill-opacity: 0.5"/>
    </g>
    <g id="patch_4">
     <path d="M 359.245138 22.318125 
L 359.245138 318.021875 
M 574.71733 22.318125 
L 574.71733 318.021875 
" clip-path="url(#p69e58d1dd3)" style="fill: none; stroke: #ffffff; stroke-width: 3; stroke-linejoin: miter"/>
     <path d="M 359.245138 22.318125 
L 359.245138 318.021875 
M 574.71733 22.318125 
L 574.71733 318.021875 
" clip-path="url(#p69e58d1dd3)" style="fill: none; stroke: #ff7f0e; stroke-linejoin: miter"/>
     <g id="PolyCollection_2">
      <path d="M 574.71733 22.318125 
L 359.245138 22.318125 
L 359.245138 318.021875 
L 574.71733 318.021875 
L 574.71733 318.021875 
L 574.71733 22.318125 
z
" clip-path="url(#p69e58d1dd3)" style="fill: #ff7f0e; fill-opacity: 0.5"/>
     </g>
     <g id="matplotlib.axis_1">
      <g id="xtick_1">
       <g id="line2d_1"/>
       <g id="text_1">
        <!-- deme0 -->
        <g transform="translate(159.42111 329.120312) scale(0.1 -0.1)">
         <defs>
          <path id="DejaVuSans-64" d="M 2906 2969 
L 2906 4863 
L 3481 4863 
L 3481 0 
L 2906 0 
L 2906 525 
Q 2725 213 2448 61 
Q 2172 -91 1784 -91 
Q 1150 -91 751 415 
Q 353 922 353 1747 
Q 353 2572 751 3078 
Q 1150 3584 1784 3584 
Q 2172 3584 2448 3432 
Q 2725 3281 2906 2969 
z
M 947 1747 
Q 947 1113 1208 752 
Q 1469 391 1925 391 
Q 2381 391 2643 752 
Q 2906 1113 2906 1747 
Q 2906 2381 2643 2742 
Q 2381 3103 1925 3103 
Q 1469 3103 1208 2742 
Q 947 2381 947 1747 
z
" transform="scale(0.015625)"/>
          <path id="DejaVuSans-65" d="M 3597 1894 
L 3597 1613 
L 953 1613 
Q 991 1019 1311 708 
Q 1631 397 2203 397 
Q 2534 397 2845 478 
Q 3156 559 3463 722 
L 3463 178 
Q 3153 47 2828 -22 
Q 2503 -91 2169 -91 
Q 1331 -91 842 396 
Q 353 884 353 1716 
Q 353 2575 817 3079 
Q 1281 3584 2069 3584 
Q 2775 3584 3186 3129 
Q 3597 2675 3597 1894 
z
M 3022 2063 
Q 3016 2534 2758 2815 
Q 2500 3097 2075 3097 
Q 1594 3097 1305 2825 
Q 1016 2553 972 2059 
L 3022 2063 
z
" transform="scale(0.015625)"/>
          <path id="DejaVuSans-6d" d="M 3328 2828 
Q 3544 3216 3844 3400 
Q 4144 3584 4550 3584 
Q 5097 3584 5394 3201 
Q 5691 2819 5691 2113 
L 5691 0 
L 5113 0 
L 5113 2094 
Q 5113 2597 4934 2840 
Q 4756 3084 4391 3084 
Q 3944 3084 3684 2787 
Q 3425 2491 3425 1978 
L 3425 0 
L 2847 0 
L 2847 2094 
Q 2847 2600 2669 2842 
Q 2491 3084 2119 3084 
Q 1678 3084 1418 2786 
Q 1159 2488 1159 1978 
L 1159 0 
L 581 0 
L 581 3500 
L 1159 3500 
L 1159 2956 
Q 1356 3278 1631 3431 
Q 1906 3584 2284 3584 
Q 2666 3584 2933 3390 
Q 3200 3197 3328 2828 
z
" transform="scale(0.015625)"/>
          <path id="DejaVuSans-30" d="M 2034 4250 
Q 1547 4250 1301 3770 
Q 1056 3291 1056 2328 
Q 1056 1369 1301 889 
Q 1547 409 2034 409 
Q 2525 409 2770 889 
Q 3016 1369 3016 2328 
Q 3016 3291 2770 3770 
Q 2525 4250 2034 4250 
z
M 2034 4750 
Q 2819 4750 3233 4129 
Q 3647 3509 3647 2328 
Q 3647 1150 3233 529 
Q 2819 -91 2034 -91 
Q 1250 -91 836 529 
Q 422 1150 422 2328 
Q 422 3509 836 4129 
Q 1250 4750 2034 4750 
z
" transform="scale(0.015625)"/>
         </defs>
         <use xlink:href="#DejaVuSans-64"/>
         <use xlink:href="#DejaVuSans-65" x="63.476562"/>
         <use xlink:href="#DejaVuSans-6d" x="125"/>
         <use xlink:href="#DejaVuSans-65" x="222.412109"/>
         <use xlink:href="#DejaVuSans-30" x="283.935547"/>
        </g>
       </g>
      </g>
      <g id="xtick_2">
       <g id="line2d_2"/>
       <g id="text_2">
        <!-- deme1 -->
        <g transform="translate(449.602328 329.120312) scale(0.1 -0.1)">
         <defs>
          <path id="DejaVuSans-31" d="M 794 531 
L 1825 531 
L 1825 4091 
L 703 3866 
L 703 4441 
L 1819 4666 
L 2450 4666 
L 2450 531 
L 3481 531 
L 3481 0 
L 794 0 
L 794 531 
z
" transform="scale(0.015625)"/>
         </defs>
         <use xlink:href="#DejaVuSans-64"/>
         <use xlink:href="#DejaVuSans-65" x="63.476562"/>
         <use xlink:href="#DejaVuSans-6d" x="125"/>
         <use xlink:href="#DejaVuSans-65" x="222.412109"/>
         <use xlink:href="#DejaVuSans-31" x="283.935547"/>
        </g>
       </g>
      </g>
     </g>
     <g id="matplotlib.axis_2">
      <g id="ytick_1">
       <g id="line2d_3">
        <defs>
         <path id="m9e0bbdd28d" d="M 0 0 
L -3.5 0 
" style="stroke: #000000; stroke-width: 0.8"/>
        </defs>
        <g>
         <use xlink:href="#m9e0bbdd28d" x="43.78125" y="318.021875" style="stroke: #000000; stroke-width: 0.8"/>
        </g>
       </g>
       <g id="text_3">
        <!-- 0.0 -->
        <g transform="translate(20.878125 321.821094) scale(0.1 -0.1)">
         <defs>
          <path id="DejaVuSans-2e" d="M 684 794 
L 1344 794 
L 1344 0 
L 684 0 
L 684 794 
z
" transform="scale(0.015625)"/>
         </defs>
         <use xlink:href="#DejaVuSans-30"/>
         <use xlink:href="#DejaVuSans-2e" x="63.623047"/>
         <use xlink:href="#DejaVuSans-30" x="95.410156"/>
        </g>
       </g>
      </g>
      <g id="ytick_2">
       <g id="line2d_4">
        <g>
         <use xlink:href="#m9e0bbdd28d" x="43.78125" y="258.881125" style="stroke: #000000; stroke-width: 0.8"/>
        </g>
       </g>
       <g id="text_4">
        <!-- 0.5 -->
        <g transform="translate(20.878125 262.680344) scale(0.1 -0.1)">
         <defs>
          <path id="DejaVuSans-35" d="M 691 4666 
L 3169 4666 
L 3169 4134 
L 1269 4134 
L 1269 2991 
Q 1406 3038 1543 3061 
Q 1681 3084 1819 3084 
Q 2600 3084 3056 2656 
Q 3513 2228 3513 1497 
Q 3513 744 3044 326 
Q 2575 -91 1722 -91 
Q 1428 -91 1123 -41 
Q 819 9 494 109 
L 494 744 
Q 775 591 1075 516 
Q 1375 441 1709 441 
Q 2250 441 2565 725 
Q 2881 1009 2881 1497 
Q 2881 1984 2565 2268 
Q 2250 2553 1709 2553 
Q 1456 2553 1204 2497 
Q 953 2441 691 2322 
L 691 4666 
z
" transform="scale(0.015625)"/>
         </defs>
         <use xlink:href="#DejaVuSans-30"/>
         <use xlink:href="#DejaVuSans-2e" x="63.623047"/>
         <use xlink:href="#DejaVuSans-35" x="95.410156"/>
        </g>
       </g>
      </g>
      <g id="ytick_3">
       <g id="line2d_5">
        <g>
         <use xlink:href="#m9e0bbdd28d" x="43.78125" y="199.740375" style="stroke: #000000; stroke-width: 0.8"/>
        </g>
       </g>
       <g id="text_5">
        <!-- 1.0 -->
        <g transform="translate(20.878125 203.539594) scale(0.1 -0.1)">
         <use xlink:href="#DejaVuSans-31"/>
         <use xlink:href="#DejaVuSans-2e" x="63.623047"/>
         <use xlink:href="#DejaVuSans-30" x="95.410156"/>
        </g>
       </g>
      </g>
      <g id="ytick_4">
       <g id="line2d_6">
        <g>
         <use xlink:href="#m9e0bbdd28d" x="43.78125" y="140.599625" style="stroke: #000000; stroke-width: 0.8"/>
        </g>
       </g>
       <g id="text_6">
        <!-- 1.5 -->
        <g transform="translate(20.878125 144.398844) scale(0.1 -0.1)">
         <use xlink:href="#DejaVuSans-31"/>
         <use xlink:href="#DejaVuSans-2e" x="63.623047"/>
         <use xlink:href="#DejaVuSans-35" x="95.410156"/>
        </g>
       </g>
      </g>
      <g id="ytick_5">
       <g id="line2d_7">
        <g>
         <use xlink:href="#m9e0bbdd28d" x="43.78125" y="81.458875" style="stroke: #000000; stroke-width: 0.8"/>
        </g>
       </g>
       <g id="text_7">
        <!-- 2.0 -->
        <g transform="translate(20.878125 85.258094) scale(0.1 -0.1)">
         <defs>
          <path id="DejaVuSans-32" d="M 1228 531 
L 3431 531 
L 3431 0 
L 469 0 
L 469 531 
Q 828 903 1448 1529 
Q 2069 2156 2228 2338 
Q 2531 2678 2651 2914 
Q 2772 3150 2772 3378 
Q 2772 3750 2511 3984 
Q 2250 4219 1831 4219 
Q 1534 4219 1204 4116 
Q 875 4013 500 3803 
L 500 4441 
Q 881 4594 1212 4672 
Q 1544 4750 1819 4750 
Q 2544 4750 2975 4387 
Q 3406 4025 3406 3419 
Q 3406 3131 3298 2873 
Q 3191 2616 2906 2266 
Q 2828 2175 2409 1742 
Q 1991 1309 1228 531 
z
" transform="scale(0.015625)"/>
         </defs>
         <use xlink:href="#DejaVuSans-32"/>
         <use xlink:href="#DejaVuSans-2e" x="63.623047"/>
         <use xlink:href="#DejaVuSans-30" x="95.410156"/>
        </g>
       </g>
      </g>
      <g id="ytick_6">
       <g id="line2d_8">
        <g>
         <use xlink:href="#m9e0bbdd28d" x="43.78125" y="22.318125" style="stroke: #000000; stroke-width: 0.8"/>
        </g>
       </g>
       <g id="text_8">
        <!-- 2.5 -->
        <g transform="translate(20.878125 26.117344) scale(0.1 -0.1)">
         <use xlink:href="#DejaVuSans-32"/>
         <use xlink:href="#DejaVuSans-2e" x="63.623047"/>
         <use xlink:href="#DejaVuSans-35" x="95.410156"/>
        </g>
       </g>
      </g>
      <g id="text_9">
       <!-- time ago (generations) -->
       <g transform="translate(14.798438 227.641094) rotate(-90) scale(0.1 -0.1)">
        <defs>
         <path id="DejaVuSans-74" d="M 1172 4494 
L 1172 3500 
L 2356 3500 
L 2356 3053 
L 1172 3053 
L 1172 1153 
Q 1172 725 1289 603 
Q 1406 481 1766 481 
L 2356 481 
L 2356 0 
L 1766 0 
Q 1100 0 847 248 
Q 594 497 594 1153 
L 594 3053 
L 172 3053 
L 172 3500 
L 594 3500 
L 594 4494 
L 1172 4494 
z
" transform="scale(0.015625)"/>
         <path id="DejaVuSans-69" d="M 603 3500 
L 1178 3500 
L 1178 0 
L 603 0 
L 603 3500 
z
M 603 4863 
L 1178 4863 
L 1178 4134 
L 603 4134 
L 603 4863 
z
" transform="scale(0.015625)"/>
         <path id="DejaVuSans-20" transform="scale(0.015625)"/>
         <path id="DejaVuSans-61" d="M 2194 1759 
Q 1497 1759 1228 1600 
Q 959 1441 959 1056 
Q 959 750 1161 570 
Q 1363 391 1709 391 
Q 2188 391 2477 730 
Q 2766 1069 2766 1631 
L 2766 1759 
L 2194 1759 
z
M 3341 1997 
L 3341 0 
L 2766 0 
L 2766 531 
Q 2569 213 2275 61 
Q 1981 -91 1556 -91 
Q 1019 -91 701 211 
Q 384 513 384 1019 
Q 384 1609 779 1909 
Q 1175 2209 1959 2209 
L 2766 2209 
L 2766 2266 
Q 2766 2663 2505 2880 
Q 2244 3097 1772 3097 
Q 1472 3097 1187 3025 
Q 903 2953 641 2809 
L 641 3341 
Q 956 3463 1253 3523 
Q 1550 3584 1831 3584 
Q 2591 3584 2966 3190 
Q 3341 2797 3341 1997 
z
" transform="scale(0.015625)"/>
         <path id="DejaVuSans-67" d="M 2906 1791 
Q 2906 2416 2648 2759 
Q 2391 3103 1925 3103 
Q 1463 3103 1205 2759 
Q 947 2416 947 1791 
Q 947 1169 1205 825 
Q 1463 481 1925 481 
Q 2391 481 2648 825 
Q 2906 1169 2906 1791 
z
M 3481 434 
Q 3481 -459 3084 -895 
Q 2688 -1331 1869 -1331 
Q 1566 -1331 1297 -1286 
Q 1028 -1241 775 -1147 
L 775 -588 
Q 1028 -725 1275 -790 
Q 1522 -856 1778 -856 
Q 2344 -856 2625 -561 
Q 2906 -266 2906 331 
L 2906 616 
Q 2728 306 2450 153 
Q 2172 0 1784 0 
Q 1141 0 747 490 
Q 353 981 353 1791 
Q 353 2603 747 3093 
Q 1141 3584 1784 3584 
Q 2172 3584 2450 3431 
Q 2728 3278 2906 2969 
L 2906 3500 
L 3481 3500 
L 3481 434 
z
" transform="scale(0.015625)"/>
         <path id="DejaVuSans-6f" d="M 1959 3097 
Q 1497 3097 1228 2736 
Q 959 2375 959 1747 
Q 959 1119 1226 758 
Q 1494 397 1959 397 
Q 2419 397 2687 759 
Q 2956 1122 2956 1747 
Q 2956 2369 2687 2733 
Q 2419 3097 1959 3097 
z
M 1959 3584 
Q 2709 3584 3137 3096 
Q 3566 2609 3566 1747 
Q 3566 888 3137 398 
Q 2709 -91 1959 -91 
Q 1206 -91 779 398 
Q 353 888 353 1747 
Q 353 2609 779 3096 
Q 1206 3584 1959 3584 
z
" transform="scale(0.015625)"/>
         <path id="DejaVuSans-28" d="M 1984 4856 
Q 1566 4138 1362 3434 
Q 1159 2731 1159 2009 
Q 1159 1288 1364 580 
Q 1569 -128 1984 -844 
L 1484 -844 
Q 1016 -109 783 600 
Q 550 1309 550 2009 
Q 550 2706 781 3412 
Q 1013 4119 1484 4856 
L 1984 4856 
z
" transform="scale(0.015625)"/>
         <path id="DejaVuSans-6e" d="M 3513 2113 
L 3513 0 
L 2938 0 
L 2938 2094 
Q 2938 2591 2744 2837 
Q 2550 3084 2163 3084 
Q 1697 3084 1428 2787 
Q 1159 2491 1159 1978 
L 1159 0 
L 581 0 
L 581 3500 
L 1159 3500 
L 1159 2956 
Q 1366 3272 1645 3428 
Q 1925 3584 2291 3584 
Q 2894 3584 3203 3211 
Q 3513 2838 3513 2113 
z
" transform="scale(0.015625)"/>
         <path id="DejaVuSans-72" d="M 2631 2963 
Q 2534 3019 2420 3045 
Q 2306 3072 2169 3072 
Q 1681 3072 1420 2755 
Q 1159 2438 1159 1844 
L 1159 0 
L 581 0 
L 581 3500 
L 1159 3500 
L 1159 2956 
Q 1341 3275 1631 3429 
Q 1922 3584 2338 3584 
Q 2397 3584 2469 3576 
Q 2541 3569 2628 3553 
L 2631 2963 
z
" transform="scale(0.015625)"/>
         <path id="DejaVuSans-73" d="M 2834 3397 
L 2834 2853 
Q 2591 2978 2328 3040 
Q 2066 3103 1784 3103 
Q 1356 3103 1142 2972 
Q 928 2841 928 2578 
Q 928 2378 1081 2264 
Q 1234 2150 1697 2047 
L 1894 2003 
Q 2506 1872 2764 1633 
Q 3022 1394 3022 966 
Q 3022 478 2636 193 
Q 2250 -91 1575 -91 
Q 1294 -91 989 -36 
Q 684 19 347 128 
L 347 722 
Q 666 556 975 473 
Q 1284 391 1588 391 
Q 1994 391 2212 530 
Q 2431 669 2431 922 
Q 2431 1156 2273 1281 
Q 2116 1406 1581 1522 
L 1381 1569 
Q 847 1681 609 1914 
Q 372 2147 372 2553 
Q 372 3047 722 3315 
Q 1072 3584 1716 3584 
Q 2034 3584 2315 3537 
Q 2597 3491 2834 3397 
z
" transform="scale(0.015625)"/>
         <path id="DejaVuSans-29" d="M 513 4856 
L 1013 4856 
Q 1481 4119 1714 3412 
Q 1947 2706 1947 2009 
Q 1947 1309 1714 600 
Q 1481 -109 1013 -844 
L 513 -844 
Q 928 -128 1133 580 
Q 1338 1288 1338 2009 
Q 1338 2731 1133 3434 
Q 928 4138 513 4856 
z
" transform="scale(0.015625)"/>
        </defs>
        <use xlink:href="#DejaVuSans-74"/>
        <use xlink:href="#DejaVuSans-69" x="39.208984"/>
        <use xlink:href="#DejaVuSans-6d" x="66.992188"/>
        <use xlink:href="#DejaVuSans-65" x="164.404297"/>
        <use xlink:href="#DejaVuSans-20" x="225.927734"/>
        <use xlink:href="#DejaVuSans-61" x="257.714844"/>
        <use xlink:href="#DejaVuSans-67" x="318.994141"/>
        <use xlink:href="#DejaVuSans-6f" x="382.470703"/>
        <use xlink:href="#DejaVuSans-20" x="443.652344"/>
        <use xlink:href="#DejaVuSans-28" x="475.439453"/>
        <use xlink:href="#DejaVuSans-67" x="514.453125"/>
        <use xlink:href="#DejaVuSans-65" x="577.929688"/>
        <use xlink:href="#DejaVuSans-6e" x="639.453125"/>
        <use xlink:href="#DejaVuSans-65" x="702.832031"/>
        <use xlink:href="#DejaVuSans-72" x="764.355469"/>
        <use xlink:href="#DejaVuSans-61" x="805.46875"/>
        <use xlink:href="#DejaVuSans-74" x="866.748047"/>
        <use xlink:href="#DejaVuSans-69" x="905.957031"/>
        <use xlink:href="#DejaVuSans-6f" x="933.740234"/>
        <use xlink:href="#DejaVuSans-6e" x="994.921875"/>
        <use xlink:href="#DejaVuSans-73" x="1058.300781"/>
        <use xlink:href="#DejaVuSans-29" x="1110.400391"/>
       </g>
      </g>
     </g>
     <path d="M 354.682951 175.362643 
L 352.682951 174.362643 
L 352.682951 176.362643 
z
" clip-path="url(#p69e58d1dd3)" style="fill: #1f77b4; fill-opacity: 0.5; stroke: #1f77b4; stroke-opacity: 0.5; stroke-linejoin: miter"/>
     <path d="M 354.682951 91.905027 
L 352.682951 90.905027 
L 352.682951 92.905027 
z
" clip-path="url(#p69e58d1dd3)" style="fill: #1f77b4; fill-opacity: 0.5; stroke: #1f77b4; stroke-opacity: 0.5; stroke-linejoin: miter"/>
     <path d="M 354.682951 95.629549 
L 352.682951 94.629549 
L 352.682951 96.629549 
z
" clip-path="url(#p69e58d1dd3)" style="fill: #1f77b4; fill-opacity: 0.5; stroke: #1f77b4; stroke-opacity: 0.5; stroke-linejoin: miter"/>
     <path d="M 354.682951 137.387607 
L 352.682951 136.387607 
L 352.682951 138.387607 
z
" clip-path="url(#p69e58d1dd3)" style="fill: #1f77b4; fill-opacity: 0.5; stroke: #1f77b4; stroke-opacity: 0.5; stroke-linejoin: miter"/>
     <path d="M 354.682951 176.181787 
L 352.682951 175.181787 
L 352.682951 177.181787 
z
" clip-path="url(#p69e58d1dd3)" style="fill: #1f77b4; fill-opacity: 0.5; stroke: #1f77b4; stroke-opacity: 0.5; stroke-linejoin: miter"/>
     <path d="M 354.682951 100.969216 
L 352.682951 99.969216 
L 352.682951 101.969216 
z
" clip-path="url(#p69e58d1dd3)" style="fill: #1f77b4; fill-opacity: 0.5; stroke: #1f77b4; stroke-opacity: 0.5; stroke-linejoin: miter"/>
     <path d="M 354.682951 110.986073 
L 352.682951 109.986073 
L 352.682951 111.986073 
z
" clip-path="url(#p69e58d1dd3)" style="fill: #1f77b4; fill-opacity: 0.5; stroke: #1f77b4; stroke-opacity: 0.5; stroke-linejoin: miter"/>
     <path d="M 354.682951 179.159659 
L 352.682951 178.159659 
L 352.682951 180.159659 
z
" clip-path="url(#p69e58d1dd3)" style="fill: #1f77b4; fill-opacity: 0.5; stroke: #1f77b4; stroke-opacity: 0.5; stroke-linejoin: miter"/>
     <path d="M 354.682951 137.615506 
L 352.682951 136.615506 
L 352.682951 138.615506 
z
" clip-path="url(#p69e58d1dd3)" style="fill: #1f77b4; fill-opacity: 0.5; stroke: #1f77b4; stroke-opacity: 0.5; stroke-linejoin: miter"/>
     <path d="M 354.682951 141.680213 
L 352.682951 140.680213 
L 352.682951 142.680213 
z
" clip-path="url(#p69e58d1dd3)" style="fill: #1f77b4; fill-opacity: 0.5; stroke: #1f77b4; stroke-opacity: 0.5; stroke-linejoin: miter"/>
     <path d="M 354.682951 255.403614 
L 352.682951 254.403614 
L 352.682951 256.403614 
z
" clip-path="url(#p69e58d1dd3)" style="fill: #1f77b4; fill-opacity: 0.5; stroke: #1f77b4; stroke-opacity: 0.5; stroke-linejoin: miter"/>
     <path d="M 354.682951 268.592293 
L 352.682951 267.592293 
L 352.682951 269.592293 
z
" clip-path="url(#p69e58d1dd3)" style="fill: #1f77b4; fill-opacity: 0.5; stroke: #1f77b4; stroke-opacity: 0.5; stroke-linejoin: miter"/>
     <path d="M 354.682951 224.996426 
L 352.682951 223.996426 
L 352.682951 225.996426 
z
" clip-path="url(#p69e58d1dd3)" style="fill: #1f77b4; fill-opacity: 0.5; stroke: #1f77b4; stroke-opacity: 0.5; stroke-linejoin: miter"/>
     <path d="M 354.682951 222.901082 
L 352.682951 221.901082 
L 352.682951 223.901082 
z
" clip-path="url(#p69e58d1dd3)" style="fill: #1f77b4; fill-opacity: 0.5; stroke: #1f77b4; stroke-opacity: 0.5; stroke-linejoin: miter"/>
     <path d="M 354.682951 310.760157 
L 352.682951 309.760157 
L 352.682951 311.760157 
z
" clip-path="url(#p69e58d1dd3)" style="fill: #1f77b4; fill-opacity: 0.5; stroke: #1f77b4; stroke-opacity: 0.5; stroke-linejoin: miter"/>
     <path d="M 354.682951 203.644833 
L 352.682951 202.644833 
L 352.682951 204.644833 
z
" clip-path="url(#p69e58d1dd3)" style="fill: #1f77b4; fill-opacity: 0.5; stroke: #1f77b4; stroke-opacity: 0.5; stroke-linejoin: miter"/>
     <path d="M 354.682951 217.825026 
L 352.682951 216.825026 
L 352.682951 218.825026 
z
" clip-path="url(#p69e58d1dd3)" style="fill: #1f77b4; fill-opacity: 0.5; stroke: #1f77b4; stroke-opacity: 0.5; stroke-linejoin: miter"/>
     <path d="M 354.682951 315.667485 
L 352.682951 314.667485 
L 352.682951 316.667485 
z
" clip-path="url(#p69e58d1dd3)" style="fill: #1f77b4; fill-opacity: 0.5; stroke: #1f77b4; stroke-opacity: 0.5; stroke-linejoin: miter"/>
     <path d="M 354.682951 205.020525 
L 352.682951 204.020525 
L 352.682951 206.020525 
z
" clip-path="url(#p69e58d1dd3)" style="fill: #1f77b4; fill-opacity: 0.5; stroke: #1f77b4; stroke-opacity: 0.5; stroke-linejoin: miter"/>
     <path d="M 354.682951 250.523887 
L 352.682951 249.523887 
L 352.682951 251.523887 
z
" clip-path="url(#p69e58d1dd3)" style="fill: #1f77b4; fill-opacity: 0.5; stroke: #1f77b4; stroke-opacity: 0.5; stroke-linejoin: miter"/>
     <g id="patch_5">
      <path d="M 43.78125 318.021875 
L 43.78125 22.318125 
" style="fill: none; stroke: #000000; stroke-width: 0.8; stroke-linejoin: miter; stroke-linecap: square"/>
     </g>
     <g id="text_10">
      <!-- defaults_asymmetric_migration_changing_rate.yaml -->
      <g transform="translate(164.675625 16.318125) scale(0.12 -0.12)">
       <defs>
        <path id="DejaVuSans-66" d="M 2375 4863 
L 2375 4384 
L 1825 4384 
Q 1516 4384 1395 4259 
Q 1275 4134 1275 3809 
L 1275 3500 
L 2222 3500 
L 2222 3053 
L 1275 3053 
L 1275 0 
L 697 0 
L 697 3053 
L 147 3053 
L 147 3500 
L 697 3500 
L 697 3744 
Q 697 4328 969 4595 
Q 1241 4863 1831 4863 
L 2375 4863 
z
" transform="scale(0.015625)"/>
        <path id="DejaVuSans-75" d="M 544 1381 
L 544 3500 
L 1119 3500 
L 1119 1403 
Q 1119 906 1312 657 
Q 1506 409 1894 409 
Q 2359 409 2629 706 
Q 2900 1003 2900 1516 
L 2900 3500 
L 3475 3500 
L 3475 0 
L 2900 0 
L 2900 538 
Q 2691 219 2414 64 
Q 2138 -91 1772 -91 
Q 1169 -91 856 284 
Q 544 659 544 1381 
z
M 1991 3584 
L 1991 3584 
z
" transform="scale(0.015625)"/>
        <path id="DejaVuSans-6c" d="M 603 4863 
L 1178 4863 
L 1178 0 
L 603 0 
L 603 4863 
z
" transform="scale(0.015625)"/>
        <path id="DejaVuSans-5f" d="M 3263 -1063 
L 3263 -1509 
L -63 -1509 
L -63 -1063 
L 3263 -1063 
z
" transform="scale(0.015625)"/>
        <path id="DejaVuSans-79" d="M 2059 -325 
Q 1816 -950 1584 -1140 
Q 1353 -1331 966 -1331 
L 506 -1331 
L 506 -850 
L 844 -850 
Q 1081 -850 1212 -737 
Q 1344 -625 1503 -206 
L 1606 56 
L 191 3500 
L 800 3500 
L 1894 763 
L 2988 3500 
L 3597 3500 
L 2059 -325 
z
" transform="scale(0.015625)"/>
        <path id="DejaVuSans-63" d="M 3122 3366 
L 3122 2828 
Q 2878 2963 2633 3030 
Q 2388 3097 2138 3097 
Q 1578 3097 1268 2742 
Q 959 2388 959 1747 
Q 959 1106 1268 751 
Q 1578 397 2138 397 
Q 2388 397 2633 464 
Q 2878 531 3122 666 
L 3122 134 
Q 2881 22 2623 -34 
Q 2366 -91 2075 -91 
Q 1284 -91 818 406 
Q 353 903 353 1747 
Q 353 2603 823 3093 
Q 1294 3584 2113 3584 
Q 2378 3584 2631 3529 
Q 2884 3475 3122 3366 
z
" transform="scale(0.015625)"/>
        <path id="DejaVuSans-68" d="M 3513 2113 
L 3513 0 
L 2938 0 
L 2938 2094 
Q 2938 2591 2744 2837 
Q 2550 3084 2163 3084 
Q 1697 3084 1428 2787 
Q 1159 2491 1159 1978 
L 1159 0 
L 581 0 
L 581 4863 
L 1159 4863 
L 1159 2956 
Q 1366 3272 1645 3428 
Q 1925 3584 2291 3584 
Q 2894 3584 3203 3211 
Q 3513 2838 3513 2113 
z
" transform="scale(0.015625)"/>
       </defs>
       <use xlink:href="#DejaVuSans-64"/>
       <use xlink:href="#DejaVuSans-65" x="63.476562"/>
       <use xlink:href="#DejaVuSans-66" x="125"/>
       <use xlink:href="#DejaVuSans-61" x="160.205078"/>
       <use xlink:href="#DejaVuSans-75" x="221.484375"/>
       <use xlink:href="#DejaVuSans-6c" x="284.863281"/>
       <use xlink:href="#DejaVuSans-74" x="312.646484"/>
       <use xlink:href="#DejaVuSans-73" x="351.855469"/>
       <use xlink:href="#DejaVuSans-5f" x="403.955078"/>
       <use xlink:href="#DejaVuSans-61" x="453.955078"/>
       <use xlink:href="#DejaVuSans-73" x="515.234375"/>
       <use xlink:href="#DejaVuSans-79" x="567.333984"/>
       <use xlink:href="#DejaVuSans-6d" x="626.513672"/>
       <use xlink:href="#DejaVuSans-6d" x="723.925781"/>
       <use xlink:href="#DejaVuSans-65" x="821.337891"/>
       <use xlink:href="#DejaVuSans-74" x="882.861328"/>
       <use xlink:href="#DejaVuSans-72" x="922.070312"/>
       <use xlink:href="#DejaVuSans-69" x="963.183594"/>
       <use xlink:href="#DejaVuSans-63" x="990.966797"/>
       <use xlink:href="#DejaVuSans-5f" x="1045.947266"/>
       <use xlink:href="#DejaVuSans-6d" x="1095.947266"/>
       <use xlink:href="#DejaVuSans-69" x="1193.359375"/>
       <use xlink:href="#DejaVuSans-67" x="1221.142578"/>
       <use xlink:href="#DejaVuSans-72" x="1284.619141"/>
       <use xlink:href="#DejaVuSans-61" x="1325.732422"/>
       <use xlink:href="#DejaVuSans-74" x="1387.011719"/>
       <use xlink:href="#DejaVuSans-69" x="1426.220703"/>
       <use xlink:href="#DejaVuSans-6f" x="1454.003906"/>
       <use xlink:href="#DejaVuSans-6e" x="1515.185547"/>
       <use xlink:href="#DejaVuSans-5f" x="1578.564453"/>
       <use xlink:href="#DejaVuSans-63" x="1628.564453"/>
       <use xlink:href="#DejaVuSans-68" x="1683.544922"/>
       <use xlink:href="#DejaVuSans-61" x="1746.923828"/>
       <use xlink:href="#DejaVuSans-6e" x="1808.203125"/>
       <use xlink:href="#DejaVuSans-67" x="1871.582031"/>
       <use xlink:href="#DejaVuSans-69" x="1935.058594"/>
       <use xlink:href="#DejaVuSans-6e" x="1962.841797"/>
       <use xlink:href="#DejaVuSans-67" x="2026.220703"/>
       <use xlink:href="#DejaVuSans-5f" x="2089.697266"/>
       <use xlink:href="#DejaVuSans-72" x="2139.697266"/>
       <use xlink:href="#DejaVuSans-61" x="2180.810547"/>
       <use xlink:href="#DejaVuSans-74" x="2242.089844"/>
       <use xlink:href="#DejaVuSans-65" x="2281.298828"/>
       <use xlink:href="#DejaVuSans-2e" x="2342.822266"/>
       <use xlink:href="#DejaVuSans-79" x="2374.609375"/>
       <use xlink:href="#DejaVuSans-61" x="2433.789062"/>
       <use xlink:href="#DejaVuSans-6d" x="2495.068359"/>
       <use xlink:href="#DejaVuSans-6c" x="2592.480469"/>
      </g>
     </g>
    </g>
   </g>
   <defs>
    <clipPath id="p69e58d1dd3">
     <rect x="43.78125" y="22.318125" width="556.21875" height="295.70375"/>
    </clipPath>
   </defs>
  </g>
 </g>
</svg>