<?xml version="1.0" encoding="utf-8" standalone="no"?>
<!DOCTYPE svg PUBLIC "-//W3C//DTD SVG 1.1//EN"
  "http://www.w3.org/Graphics/SVG/1.1/DTD/svg11.dtd">
<svg xmlns:xlink="http://www.w3.org/1999/xlink" width="607.2pt" height="338.4pt" viewBox="0 0 607.2 338.4" xmlns="http://www.w3.org/2000/svg" version="1.1">
 <metadata>
  <rdf:RDF xmlns:dc="http://purl.org/dc/elements/1.1/" xmlns:cc="http://creativecommons.org/ns#" xmlns:rdf="http://www.w3.org/1999/02/22-rdf-syntax-ns#">
   <cc:Work>
    <dc:type rdf:resource="http://purl.org/dc/dcmitype/StillImage"/>
    <dc:date>2023-06-19T09:09:27.302166</dc:date>
    <dc:format>image/svg+xml</dc:format>
    <dc:creator>
     <cc:Agent>
      <dc:title>Matplotlib v3.7.1, https://matplotlib.org/</dc:title>
     </cc:Agent>
    </dc:creator>
   </cc:Work>
  </rdf:RDF>
 </metadata>
 <defs>
  <style type="text/css">*{stroke-linejoin: round; stroke-linecap: butt}</style>
 </defs>
 <g id="figure_1">
  <g id="patch_1">
   <path d="M 0 338.4 
L 607.2 338.4 
L 607.2 0 
L 0 0 
z
" style="fill: #ffffff"/>
  </g>
  <g id="axes_1">
   <g id="patch_2">
    <path d="M 43.78125 318.021875 
L 600 318.021875 
L 600 22.318125 
L 43.78125 22.318125 
z
" style="fill: #ffffff"/>
   </g>
   <path d="M 353.703533 160.049889 
L 352.703533 160.018452 
L 351.703533 159.981512 
L 350.703533 159.883765 
L 349.703533 159.851244 
L 348.703533 159.777619 
L 347.703533 159.739053 
L 346.703533 159.70364 
L 345.703533 159.646 
L 344.703533 159.575614 
L 343.703533 159.52365 
L 342.703533 159.46456 
L 341.703533 159.376239 
L 340.703533 159.330095 
L 339.703533 159.287684 
L 338.703533 159.257191 
L 337.703533 159.231146 
L 336.703533 159.209946 
L 335.703533 159.155645 
L 334.703533 159.127708 
L 333.703533 159.097984 
L 332.703533 159.072589 
L 331.703533 159.061388 
L 330.703533 159.051264 
L 329.703533 159.051469 
L 328.703533 159.060979 
L 327.703533 159.072632 
L 326.703533 159.103662 
L 325.703533 159.114829 
L 324.703533 159.144947 
L 323.703533 159.204724 
L 322.703533 159.241915 
L 321.703533 159.281012 
L 320.703533 159.323451 
L 319.703533 159.356216 
L 318.703533 159.423643 
L 317.703533 159.462769 
L 316.703533 159.505443 
L 315.703533 159.576024 
L 314.703533 159.612415 
L 313.703533 159.670818 
L 312.703533 159.78177 
L 311.703533 159.852429 
L 310.703533 159.965369 
L 309.703533 160.011141 
L 308.703533 160.072425 
L 307.703533 160.120924 
L 306.703533 160.201747 
L 305.703533 160.320266 
L 304.703533 160.390476 
L 303.703533 160.473739 
L 302.703533 160.50688 
L 301.703533 160.558118 
L 300.703533 160.626516 
L 299.703533 160.692732 
L 298.703533 160.769649 
L 297.703533 160.796964 
L 296.703533 160.823442 
L 295.703533 160.846092 
L 294.703533 160.865624 
L 293.703533 160.892018 
L 292.703533 160.941788 
L 291.703533 160.976862 
L 290.077717 161.012727 
" clip-path="url(#p118d0508f3)" style="fill: none; stroke: #ff7f0e; stroke-opacity: 0.5; stroke-width: 0.2; stroke-linecap: square"/>
   <path d="M 353.703533 147.566867 
L 352.703533 147.53543 
L 351.703533 147.49849 
L 350.703533 147.400744 
L 349.703533 147.368222 
L 348.703533 147.294597 
L 347.703533 147.256032 
L 346.703533 147.220619 
L 345.703533 147.162979 
L 344.703533 147.092592 
L 343.703533 147.040628 
L 342.703533 146.981538 
L 341.703533 146.893217 
L 340.703533 146.847073 
L 339.703533 146.804662 
L 338.703533 146.77417 
L 337.703533 146.748125 
L 336.703533 146.726924 
L 335.703533 146.672623 
L 334.703533 146.644686 
L 333.703533 146.614962 
L 332.703533 146.589567 
L 331.703533 146.578367 
L 330.703533 146.568243 
L 329.703533 146.568447 
L 328.703533 146.577957 
L 327.703533 146.58961 
L 326.703533 146.62064 
L 325.703533 146.631808 
L 324.703533 146.661925 
L 323.703533 146.721702 
L 322.703533 146.758894 
L 321.703533 146.79799 
L 320.703533 146.840429 
L 319.703533 146.873194 
L 318.703533 146.940621 
L 317.703533 146.979747 
L 316.703533 147.022421 
L 315.703533 147.093002 
L 314.703533 147.129393 
L 313.703533 147.187796 
L 312.703533 147.298749 
L 311.703533 147.369407 
L 310.703533 147.482347 
L 309.703533 147.52812 
L 308.703533 147.589403 
L 307.703533 147.637902 
L 306.703533 147.718725 
L 305.703533 147.837244 
L 304.703533 147.907454 
L 303.703533 147.990717 
L 302.703533 148.023859 
L 301.703533 148.075096 
L 300.703533 148.143494 
L 299.703533 148.20971 
L 298.703533 148.286627 
L 297.703533 148.313942 
L 296.703533 148.34042 
L 295.703533 148.363071 
L 294.703533 148.382602 
L 293.703533 148.408996 
L 292.703533 148.458767 
L 291.703533 148.49384 
L 290.077717 148.529705 
" clip-path="url(#p118d0508f3)" style="fill: none; stroke: #ff7f0e; stroke-opacity: 0.5; stroke-width: 0.2; stroke-linecap: square"/>
   <path d="M 353.703533 108.83477 
L 352.703533 108.803334 
L 351.703533 108.766393 
L 350.703533 108.668647 
L 349.703533 108.636125 
L 348.703533 108.5625 
L 347.703533 108.523935 
L 346.703533 108.488522 
L 345.703533 108.430882 
L 344.703533 108.360496 
L 343.703533 108.308531 
L 342.703533 108.249442 
L 341.703533 108.161121 
L 340.703533 108.114976 
L 339.703533 108.072565 
L 338.703533 108.042073 
L 337.703533 108.016028 
L 336.703533 107.994828 
L 335.703533 107.940527 
L 334.703533 107.912589 
L 333.703533 107.882865 
L 332.703533 107.85747 
L 331.703533 107.84627 
L 330.703533 107.836146 
L 329.703533 107.83635 
L 328.703533 107.84586 
L 327.703533 107.857514 
L 326.703533 107.888543 
L 325.703533 107.899711 
L 324.703533 107.929828 
L 323.703533 107.989605 
L 322.703533 108.026797 
L 321.703533 108.065893 
L 320.703533 108.108333 
L 319.703533 108.141098 
L 318.703533 108.208524 
L 317.703533 108.24765 
L 316.703533 108.290325 
L 315.703533 108.360905 
L 314.703533 108.397296 
L 313.703533 108.455699 
L 312.703533 108.566652 
L 311.703533 108.63731 
L 310.703533 108.75025 
L 309.703533 108.796023 
L 308.703533 108.857306 
L 307.703533 108.905805 
L 306.703533 108.986628 
L 305.703533 109.105147 
L 304.703533 109.175358 
L 303.703533 109.25862 
L 302.703533 109.291762 
L 301.703533 109.342999 
L 300.703533 109.411398 
L 299.703533 109.477613 
L 298.703533 109.55453 
L 297.703533 109.581846 
L 296.703533 109.608323 
L 295.703533 109.630974 
L 294.703533 109.650505 
L 293.703533 109.676899 
L 292.703533 109.72667 
L 291.703533 109.761743 
L 290.077717 109.797609 
" clip-path="url(#p118d0508f3)" style="fill: none; stroke: #ff7f0e; stroke-opacity: 0.5; stroke-width: 0.2; stroke-linecap: square"/>
   <path d="M 353.703533 83.203736 
L 352.703533 83.1723 
L 351.703533 83.135359 
L 350.703533 83.037613 
L 349.703533 83.005091 
L 348.703533 82.931466 
L 347.703533 82.892901 
L 346.703533 82.857488 
L 345.703533 82.799848 
L 344.703533 82.729461 
L 343.703533 82.677497 
L 342.703533 82.618407 
L 341.703533 82.530087 
L 340.703533 82.483942 
L 339.703533 82.441531 
L 338.703533 82.411039 
L 337.703533 82.384994 
L 336.703533 82.363794 
L 335.703533 82.309492 
L 334.703533 82.281555 
L 333.703533 82.251831 
L 332.703533 82.226436 
L 331.703533 82.215236 
L 330.703533 82.205112 
L 329.703533 82.205316 
L 328.703533 82.214826 
L 327.703533 82.22648 
L 326.703533 82.257509 
L 325.703533 82.268677 
L 324.703533 82.298794 
L 323.703533 82.358571 
L 322.703533 82.395763 
L 321.703533 82.434859 
L 320.703533 82.477298 
L 319.703533 82.510064 
L 318.703533 82.57749 
L 317.703533 82.616616 
L 316.703533 82.65929 
L 315.703533 82.729871 
L 314.703533 82.766262 
L 313.703533 82.824665 
L 312.703533 82.935618 
L 311.703533 83.006276 
L 310.703533 83.119216 
L 309.703533 83.164989 
L 308.703533 83.226272 
L 307.703533 83.274771 
L 306.703533 83.355594 
L 305.703533 83.474113 
L 304.703533 83.544324 
L 303.703533 83.627586 
L 302.703533 83.660728 
L 301.703533 83.711965 
L 300.703533 83.780363 
L 299.703533 83.846579 
L 298.703533 83.923496 
L 297.703533 83.950811 
L 296.703533 83.977289 
L 295.703533 83.99994 
L 294.703533 84.019471 
L 293.703533 84.045865 
L 292.703533 84.095636 
L 291.703533 84.130709 
L 290.077717 84.166574 
" clip-path="url(#p118d0508f3)" style="fill: none; stroke: #ff7f0e; stroke-opacity: 0.5; stroke-width: 0.2; stroke-linecap: square"/>
   <path d="M 353.703533 97.552519 
L 352.703533 97.521083 
L 351.703533 97.484143 
L 350.703533 97.386396 
L 349.703533 97.353874 
L 348.703533 97.28025 
L 347.703533 97.241684 
L 346.703533 97.206271 
L 345.703533 97.148631 
L 344.703533 97.078245 
L 343.703533 97.026281 
L 342.703533 96.967191 
L 341.703533 96.87887 
L 340.703533 96.832726 
L 339.703533 96.790315 
L 338.703533 96.759822 
L 337.703533 96.733777 
L 336.703533 96.712577 
L 335.703533 96.658276 
L 334.703533 96.630338 
L 333.703533 96.600614 
L 332.703533 96.57522 
L 331.703533 96.564019 
L 330.703533 96.553895 
L 329.703533 96.5541 
L 328.703533 96.563609 
L 327.703533 96.575263 
L 326.703533 96.606292 
L 325.703533 96.61746 
L 324.703533 96.647578 
L 323.703533 96.707355 
L 322.703533 96.744546 
L 321.703533 96.783642 
L 320.703533 96.826082 
L 319.703533 96.858847 
L 318.703533 96.926273 
L 317.703533 96.965399 
L 316.703533 97.008074 
L 315.703533 97.078655 
L 314.703533 97.115045 
L 313.703533 97.173449 
L 312.703533 97.284401 
L 311.703533 97.355059 
L 310.703533 97.467999 
L 309.703533 97.513772 
L 308.703533 97.575055 
L 307.703533 97.623555 
L 306.703533 97.704377 
L 305.703533 97.822896 
L 304.703533 97.893107 
L 303.703533 97.976369 
L 302.703533 98.009511 
L 301.703533 98.060749 
L 300.703533 98.129147 
L 299.703533 98.195362 
L 298.703533 98.272279 
L 297.703533 98.299595 
L 296.703533 98.326072 
L 295.703533 98.348723 
L 294.703533 98.368254 
L 293.703533 98.394648 
L 292.703533 98.444419 
L 291.703533 98.479492 
L 290.077717 98.515358 
" clip-path="url(#p118d0508f3)" style="fill: none; stroke: #ff7f0e; stroke-opacity: 0.5; stroke-width: 0.2; stroke-linecap: square"/>
   <path d="M 353.703533 88.280123 
L 352.703533 88.248687 
L 351.703533 88.211747 
L 350.703533 88.114 
L 349.703533 88.081479 
L 348.703533 88.007854 
L 347.703533 87.969288 
L 346.703533 87.933875 
L 345.703533 87.876235 
L 344.703533 87.805849 
L 343.703533 87.753885 
L 342.703533 87.694795 
L 341.703533 87.606474 
L 340.703533 87.56033 
L 339.703533 87.517919 
L 338.703533 87.487426 
L 337.703533 87.461381 
L 336.703533 87.440181 
L 335.703533 87.38588 
L 334.703533 87.357942 
L 333.703533 87.328218 
L 332.703533 87.302824 
L 331.703533 87.291623 
L 330.703533 87.281499 
L 329.703533 87.281704 
L 328.703533 87.291213 
L 327.703533 87.302867 
L 326.703533 87.333896 
L 325.703533 87.345064 
L 324.703533 87.375182 
L 323.703533 87.434959 
L 322.703533 87.47215 
L 321.703533 87.511246 
L 320.703533 87.553686 
L 319.703533 87.586451 
L 318.703533 87.653878 
L 317.703533 87.693003 
L 316.703533 87.735678 
L 315.703533 87.806259 
L 314.703533 87.842649 
L 313.703533 87.901053 
L 312.703533 88.012005 
L 311.703533 88.082664 
L 310.703533 88.195603 
L 309.703533 88.241376 
L 308.703533 88.302659 
L 307.703533 88.351159 
L 306.703533 88.431981 
L 305.703533 88.5505 
L 304.703533 88.620711 
L 303.703533 88.703974 
L 302.703533 88.737115 
L 301.703533 88.788353 
L 300.703533 88.856751 
L 299.703533 88.922966 
L 298.703533 88.999883 
L 297.703533 89.027199 
L 296.703533 89.053676 
L 295.703533 89.076327 
L 294.703533 89.095858 
L 293.703533 89.122252 
L 292.703533 89.172023 
L 291.703533 89.207096 
L 290.077717 89.242962 
" clip-path="url(#p118d0508f3)" style="fill: none; stroke: #ff7f0e; stroke-opacity: 0.5; stroke-width: 0.2; stroke-linecap: square"/>
   <path d="M 353.703533 129.588041 
L 352.703533 129.556605 
L 351.703533 129.519665 
L 350.703533 129.421918 
L 349.703533 129.389397 
L 348.703533 129.315772 
L 347.703533 129.277206 
L 346.703533 129.241793 
L 345.703533 129.184153 
L 344.703533 129.113767 
L 343.703533 129.061803 
L 342.703533 129.002713 
L 341.703533 128.914392 
L 340.703533 128.868248 
L 339.703533 128.825837 
L 338.703533 128.795344 
L 337.703533 128.769299 
L 336.703533 128.748099 
L 335.703533 128.693798 
L 334.703533 128.66586 
L 333.703533 128.636136 
L 332.703533 128.610742 
L 331.703533 128.599541 
L 330.703533 128.589417 
L 329.703533 128.589622 
L 328.703533 128.599131 
L 327.703533 128.610785 
L 326.703533 128.641814 
L 325.703533 128.652982 
L 324.703533 128.6831 
L 323.703533 128.742877 
L 322.703533 128.780068 
L 321.703533 128.819164 
L 320.703533 128.861604 
L 319.703533 128.894369 
L 318.703533 128.961796 
L 317.703533 129.000921 
L 316.703533 129.043596 
L 315.703533 129.114177 
L 314.703533 129.150567 
L 313.703533 129.208971 
L 312.703533 129.319923 
L 311.703533 129.390582 
L 310.703533 129.503521 
L 309.703533 129.549294 
L 308.703533 129.610577 
L 307.703533 129.659077 
L 306.703533 129.739899 
L 305.703533 129.858418 
L 304.703533 129.928629 
L 303.703533 130.011892 
L 302.703533 130.045033 
L 301.703533 130.096271 
L 300.703533 130.164669 
L 299.703533 130.230884 
L 298.703533 130.307801 
L 297.703533 130.335117 
L 296.703533 130.361594 
L 295.703533 130.384245 
L 294.703533 130.403776 
L 293.703533 130.43017 
L 292.703533 130.479941 
L 291.703533 130.515014 
L 290.077717 130.55088 
" clip-path="url(#p118d0508f3)" style="fill: none; stroke: #ff7f0e; stroke-opacity: 0.5; stroke-width: 0.2; stroke-linecap: square"/>
   <path d="M 353.703533 199.123281 
L 352.703533 199.091845 
L 351.703533 199.054904 
L 350.703533 198.957158 
L 349.703533 198.924636 
L 348.703533 198.851012 
L 347.703533 198.812446 
L 346.703533 198.777033 
L 345.703533 198.719393 
L 344.703533 198.649007 
L 343.703533 198.597042 
L 342.703533 198.537953 
L 341.703533 198.449632 
L 340.703533 198.403487 
L 339.703533 198.361077 
L 338.703533 198.330584 
L 337.703533 198.304539 
L 336.703533 198.283339 
L 335.703533 198.229038 
L 334.703533 198.2011 
L 333.703533 198.171376 
L 332.703533 198.145981 
L 331.703533 198.134781 
L 330.703533 198.124657 
L 329.703533 198.124861 
L 328.703533 198.134371 
L 327.703533 198.146025 
L 326.703533 198.177054 
L 325.703533 198.188222 
L 324.703533 198.21834 
L 323.703533 198.278116 
L 322.703533 198.315308 
L 321.703533 198.354404 
L 320.703533 198.396844 
L 319.703533 198.429609 
L 318.703533 198.497035 
L 317.703533 198.536161 
L 316.703533 198.578836 
L 315.703533 198.649416 
L 314.703533 198.685807 
L 313.703533 198.74421 
L 312.703533 198.855163 
L 311.703533 198.925821 
L 310.703533 199.038761 
L 309.703533 199.084534 
L 308.703533 199.145817 
L 307.703533 199.194317 
L 306.703533 199.275139 
L 305.703533 199.393658 
L 304.703533 199.463869 
L 303.703533 199.547131 
L 302.703533 199.580273 
L 301.703533 199.63151 
L 300.703533 199.699909 
L 299.703533 199.766124 
L 298.703533 199.843041 
L 297.703533 199.870357 
L 296.703533 199.896834 
L 295.703533 199.919485 
L 294.703533 199.939016 
L 293.703533 199.96541 
L 292.703533 200.015181 
L 291.703533 200.050254 
L 290.077717 200.08612 
" clip-path="url(#p118d0508f3)" style="fill: none; stroke: #ff7f0e; stroke-opacity: 0.5; stroke-width: 0.2; stroke-linecap: square"/>
   <path d="M 353.703533 111.56322 
L 352.703533 111.531783 
L 351.703533 111.494843 
L 350.703533 111.397096 
L 349.703533 111.364575 
L 348.703533 111.29095 
L 347.703533 111.252384 
L 346.703533 111.216971 
L 345.703533 111.159331 
L 344.703533 111.088945 
L 343.703533 111.036981 
L 342.703533 110.977891 
L 341.703533 110.88957 
L 340.703533 110.843426 
L 339.703533 110.801015 
L 338.703533 110.770522 
L 337.703533 110.744477 
L 336.703533 110.723277 
L 335.703533 110.668976 
L 334.703533 110.641039 
L 333.703533 110.611315 
L 332.703533 110.58592 
L 331.703533 110.574719 
L 330.703533 110.564596 
L 329.703533 110.5648 
L 328.703533 110.57431 
L 327.703533 110.585963 
L 326.703533 110.616993 
L 325.703533 110.62816 
L 324.703533 110.658278 
L 323.703533 110.718055 
L 322.703533 110.755246 
L 321.703533 110.794343 
L 320.703533 110.836782 
L 319.703533 110.869547 
L 318.703533 110.936974 
L 317.703533 110.9761 
L 316.703533 111.018774 
L 315.703533 111.089355 
L 314.703533 111.125746 
L 313.703533 111.184149 
L 312.703533 111.295101 
L 311.703533 111.36576 
L 310.703533 111.4787 
L 309.703533 111.524472 
L 308.703533 111.585756 
L 307.703533 111.634255 
L 306.703533 111.715078 
L 305.703533 111.833597 
L 304.703533 111.903807 
L 303.703533 111.98707 
L 302.703533 112.020212 
L 301.703533 112.071449 
L 300.703533 112.139847 
L 299.703533 112.206063 
L 298.703533 112.28298 
L 297.703533 112.310295 
L 296.703533 112.336773 
L 295.703533 112.359423 
L 294.703533 112.378955 
L 293.703533 112.405349 
L 292.703533 112.455119 
L 291.703533 112.490193 
L 290.077717 112.526058 
" clip-path="url(#p118d0508f3)" style="fill: none; stroke: #ff7f0e; stroke-opacity: 0.5; stroke-width: 0.2; stroke-linecap: square"/>
   <path d="M 353.703533 155.845767 
L 352.703533 155.814331 
L 351.703533 155.77739 
L 350.703533 155.679644 
L 349.703533 155.647122 
L 348.703533 155.573498 
L 347.703533 155.534932 
L 346.703533 155.499519 
L 345.703533 155.441879 
L 344.703533 155.371493 
L 343.703533 155.319529 
L 342.703533 155.260439 
L 341.703533 155.172118 
L 340.703533 155.125973 
L 339.703533 155.083563 
L 338.703533 155.05307 
L 337.703533 155.027025 
L 336.703533 155.005825 
L 335.703533 154.951524 
L 334.703533 154.923586 
L 333.703533 154.893862 
L 332.703533 154.868467 
L 331.703533 154.857267 
L 330.703533 154.847143 
L 329.703533 154.847347 
L 328.703533 154.856857 
L 327.703533 154.868511 
L 326.703533 154.89954 
L 325.703533 154.910708 
L 324.703533 154.940826 
L 323.703533 155.000602 
L 322.703533 155.037794 
L 321.703533 155.07689 
L 320.703533 155.11933 
L 319.703533 155.152095 
L 318.703533 155.219521 
L 317.703533 155.258647 
L 316.703533 155.301322 
L 315.703533 155.371902 
L 314.703533 155.408293 
L 313.703533 155.466696 
L 312.703533 155.577649 
L 311.703533 155.648307 
L 310.703533 155.761247 
L 309.703533 155.80702 
L 308.703533 155.868303 
L 307.703533 155.916803 
L 306.703533 155.997625 
L 305.703533 156.116144 
L 304.703533 156.186355 
L 303.703533 156.269617 
L 302.703533 156.302759 
L 301.703533 156.353996 
L 300.703533 156.422395 
L 299.703533 156.48861 
L 298.703533 156.565527 
L 297.703533 156.592843 
L 296.703533 156.61932 
L 295.703533 156.641971 
L 294.703533 156.661502 
L 293.703533 156.687896 
L 292.703533 156.737667 
L 291.703533 156.77274 
L 290.077717 156.808606 
" clip-path="url(#p118d0508f3)" style="fill: none; stroke: #ff7f0e; stroke-opacity: 0.5; stroke-width: 0.2; stroke-linecap: square"/>
   <path d="M 290.077717 182.981277 
L 291.077717 183.012713 
L 292.077717 183.049653 
L 293.077717 183.1474 
L 294.077717 183.179921 
L 295.077717 183.253546 
L 296.077717 183.292112 
L 297.077717 183.327525 
L 298.077717 183.385165 
L 299.077717 183.455551 
L 300.077717 183.507515 
L 301.077717 183.566605 
L 302.077717 183.654926 
L 303.077717 183.70107 
L 304.077717 183.743481 
L 305.077717 183.773974 
L 306.077717 183.800019 
L 307.077717 183.821219 
L 308.077717 183.87552 
L 309.077717 183.903458 
L 310.077717 183.933182 
L 311.077717 183.958576 
L 312.077717 183.969777 
L 313.077717 183.979901 
L 314.077717 183.979696 
L 315.077717 183.970187 
L 316.077717 183.958533 
L 317.077717 183.927504 
L 318.077717 183.916336 
L 319.077717 183.886218 
L 320.077717 183.826441 
L 321.077717 183.78925 
L 322.077717 183.750154 
L 323.077717 183.707714 
L 324.077717 183.674949 
L 325.077717 183.607522 
L 326.077717 183.568397 
L 327.077717 183.525722 
L 328.077717 183.455141 
L 329.077717 183.418751 
L 330.077717 183.360347 
L 331.077717 183.249395 
L 332.077717 183.178736 
L 333.077717 183.065797 
L 334.077717 183.020024 
L 335.077717 182.958741 
L 336.077717 182.910241 
L 337.077717 182.829419 
L 338.077717 182.7109 
L 339.077717 182.640689 
L 340.077717 182.557426 
L 341.077717 182.524285 
L 342.077717 182.473047 
L 343.077717 182.404649 
L 344.077717 182.338434 
L 345.077717 182.261517 
L 346.077717 182.234201 
L 347.077717 182.207724 
L 348.077717 182.185073 
L 349.077717 182.165542 
L 350.077717 182.139148 
L 351.077717 182.089377 
L 352.077717 182.054304 
L 353.703533 182.018438 
" clip-path="url(#p118d0508f3)" style="fill: none; stroke: #1f77b4; stroke-opacity: 0.5; stroke-width: 0.2; stroke-linecap: square"/>
   <path d="M 290.077717 169.775864 
L 291.077717 169.807301 
L 292.077717 169.844241 
L 293.077717 169.941988 
L 294.077717 169.974509 
L 295.077717 170.048134 
L 296.077717 170.086699 
L 297.077717 170.122113 
L 298.077717 170.179752 
L 299.077717 170.250139 
L 300.077717 170.302103 
L 301.077717 170.361193 
L 302.077717 170.449514 
L 303.077717 170.495658 
L 304.077717 170.538069 
L 305.077717 170.568562 
L 306.077717 170.594606 
L 307.077717 170.615807 
L 308.077717 170.670108 
L 309.077717 170.698045 
L 310.077717 170.727769 
L 311.077717 170.753164 
L 312.077717 170.764364 
L 313.077717 170.774488 
L 314.077717 170.774284 
L 315.077717 170.764774 
L 316.077717 170.753121 
L 317.077717 170.722091 
L 318.077717 170.710923 
L 319.077717 170.680806 
L 320.077717 170.621029 
L 321.077717 170.583837 
L 322.077717 170.544741 
L 323.077717 170.502302 
L 324.077717 170.469537 
L 325.077717 170.40211 
L 326.077717 170.362984 
L 327.077717 170.32031 
L 328.077717 170.249729 
L 329.077717 170.213338 
L 330.077717 170.154935 
L 331.077717 170.043982 
L 332.077717 169.973324 
L 333.077717 169.860384 
L 334.077717 169.814611 
L 335.077717 169.753328 
L 336.077717 169.704829 
L 337.077717 169.624006 
L 338.077717 169.505487 
L 339.077717 169.435277 
L 340.077717 169.352014 
L 341.077717 169.318872 
L 342.077717 169.267635 
L 343.077717 169.199237 
L 344.077717 169.133021 
L 345.077717 169.056104 
L 346.077717 169.028789 
L 347.077717 169.002311 
L 348.077717 168.979661 
L 349.077717 168.960129 
L 350.077717 168.933735 
L 351.077717 168.883964 
L 352.077717 168.848891 
L 353.703533 168.813026 
" clip-path="url(#p118d0508f3)" style="fill: none; stroke: #1f77b4; stroke-opacity: 0.5; stroke-width: 0.2; stroke-linecap: square"/>
   <path d="M 290.077717 169.521529 
L 291.077717 169.552966 
L 292.077717 169.589906 
L 293.077717 169.687653 
L 294.077717 169.720174 
L 295.077717 169.793799 
L 296.077717 169.832364 
L 297.077717 169.867778 
L 298.077717 169.925418 
L 299.077717 169.995804 
L 300.077717 170.047768 
L 301.077717 170.106858 
L 302.077717 170.195179 
L 303.077717 170.241323 
L 304.077717 170.283734 
L 305.077717 170.314227 
L 306.077717 170.340272 
L 307.077717 170.361472 
L 308.077717 170.415773 
L 309.077717 170.44371 
L 310.077717 170.473434 
L 311.077717 170.498829 
L 312.077717 170.510029 
L 313.077717 170.520153 
L 314.077717 170.519949 
L 315.077717 170.510439 
L 316.077717 170.498786 
L 317.077717 170.467756 
L 318.077717 170.456588 
L 319.077717 170.426471 
L 320.077717 170.366694 
L 321.077717 170.329502 
L 322.077717 170.290406 
L 323.077717 170.247967 
L 324.077717 170.215202 
L 325.077717 170.147775 
L 326.077717 170.108649 
L 327.077717 170.065975 
L 328.077717 169.995394 
L 329.077717 169.959003 
L 330.077717 169.9006 
L 331.077717 169.789647 
L 332.077717 169.718989 
L 333.077717 169.606049 
L 334.077717 169.560276 
L 335.077717 169.498993 
L 336.077717 169.450494 
L 337.077717 169.369671 
L 338.077717 169.251152 
L 339.077717 169.180942 
L 340.077717 169.097679 
L 341.077717 169.064537 
L 342.077717 169.0133 
L 343.077717 168.944902 
L 344.077717 168.878686 
L 345.077717 168.801769 
L 346.077717 168.774454 
L 347.077717 168.747976 
L 348.077717 168.725326 
L 349.077717 168.705794 
L 350.077717 168.6794 
L 351.077717 168.62963 
L 352.077717 168.594556 
L 353.703533 168.558691 
" clip-path="url(#p118d0508f3)" style="fill: none; stroke: #1f77b4; stroke-opacity: 0.5; stroke-width: 0.2; stroke-linecap: square"/>
   <path d="M 290.077717 159.814079 
L 291.077717 159.845515 
L 292.077717 159.882455 
L 293.077717 159.980202 
L 294.077717 160.012723 
L 295.077717 160.086348 
L 296.077717 160.124914 
L 297.077717 160.160327 
L 298.077717 160.217967 
L 299.077717 160.288353 
L 300.077717 160.340317 
L 301.077717 160.399407 
L 302.077717 160.487728 
L 303.077717 160.533872 
L 304.077717 160.576283 
L 305.077717 160.606776 
L 306.077717 160.632821 
L 307.077717 160.654021 
L 308.077717 160.708322 
L 309.077717 160.73626 
L 310.077717 160.765984 
L 311.077717 160.791378 
L 312.077717 160.802579 
L 313.077717 160.812703 
L 314.077717 160.812498 
L 315.077717 160.802989 
L 316.077717 160.791335 
L 317.077717 160.760306 
L 318.077717 160.749138 
L 319.077717 160.71902 
L 320.077717 160.659243 
L 321.077717 160.622052 
L 322.077717 160.582956 
L 323.077717 160.540516 
L 324.077717 160.507751 
L 325.077717 160.440324 
L 326.077717 160.401199 
L 327.077717 160.358524 
L 328.077717 160.287943 
L 329.077717 160.251553 
L 330.077717 160.193149 
L 331.077717 160.082197 
L 332.077717 160.011538 
L 333.077717 159.898599 
L 334.077717 159.852826 
L 335.077717 159.791543 
L 336.077717 159.743043 
L 337.077717 159.662221 
L 338.077717 159.543702 
L 339.077717 159.473491 
L 340.077717 159.390228 
L 341.077717 159.357087 
L 342.077717 159.305849 
L 343.077717 159.237451 
L 344.077717 159.171236 
L 345.077717 159.094319 
L 346.077717 159.067003 
L 347.077717 159.040526 
L 348.077717 159.017875 
L 349.077717 158.998344 
L 350.077717 158.97195 
L 351.077717 158.922179 
L 352.077717 158.887106 
L 353.703533 158.85124 
" clip-path="url(#p118d0508f3)" style="fill: none; stroke: #1f77b4; stroke-opacity: 0.5; stroke-width: 0.2; stroke-linecap: square"/>
   <path d="M 290.077717 81.541625 
L 291.077717 81.573061 
L 292.077717 81.610001 
L 293.077717 81.707748 
L 294.077717 81.74027 
L 295.077717 81.813894 
L 296.077717 81.85246 
L 297.077717 81.887873 
L 298.077717 81.945513 
L 299.077717 82.015899 
L 300.077717 82.067863 
L 301.077717 82.126953 
L 302.077717 82.215274 
L 303.077717 82.261418 
L 304.077717 82.303829 
L 305.077717 82.334322 
L 306.077717 82.360367 
L 307.077717 82.381567 
L 308.077717 82.435868 
L 309.077717 82.463806 
L 310.077717 82.49353 
L 311.077717 82.518924 
L 312.077717 82.530125 
L 313.077717 82.540249 
L 314.077717 82.540045 
L 315.077717 82.530535 
L 316.077717 82.518881 
L 317.077717 82.487852 
L 318.077717 82.476684 
L 319.077717 82.446566 
L 320.077717 82.386789 
L 321.077717 82.349598 
L 322.077717 82.310502 
L 323.077717 82.268062 
L 324.077717 82.235297 
L 325.077717 82.167871 
L 326.077717 82.128745 
L 327.077717 82.08607 
L 328.077717 82.01549 
L 329.077717 81.979099 
L 330.077717 81.920696 
L 331.077717 81.809743 
L 332.077717 81.739085 
L 333.077717 81.626145 
L 334.077717 81.580372 
L 335.077717 81.519089 
L 336.077717 81.470589 
L 337.077717 81.389767 
L 338.077717 81.271248 
L 339.077717 81.201037 
L 340.077717 81.117775 
L 341.077717 81.084633 
L 342.077717 81.033396 
L 343.077717 80.964997 
L 344.077717 80.898782 
L 345.077717 80.821865 
L 346.077717 80.794549 
L 347.077717 80.768072 
L 348.077717 80.745421 
L 349.077717 80.72589 
L 350.077717 80.699496 
L 351.077717 80.649725 
L 352.077717 80.614652 
L 353.703533 80.578786 
" clip-path="url(#p118d0508f3)" style="fill: none; stroke: #1f77b4; stroke-opacity: 0.5; stroke-width: 0.2; stroke-linecap: square"/>
   <path d="M 290.077717 118.575579 
L 291.077717 118.607016 
L 292.077717 118.643956 
L 293.077717 118.741702 
L 294.077717 118.774224 
L 295.077717 118.847849 
L 296.077717 118.886414 
L 297.077717 118.921828 
L 298.077717 118.979467 
L 299.077717 119.049854 
L 300.077717 119.101818 
L 301.077717 119.160908 
L 302.077717 119.249229 
L 303.077717 119.295373 
L 304.077717 119.337784 
L 305.077717 119.368276 
L 306.077717 119.394321 
L 307.077717 119.415522 
L 308.077717 119.469823 
L 309.077717 119.49776 
L 310.077717 119.527484 
L 311.077717 119.552879 
L 312.077717 119.564079 
L 313.077717 119.574203 
L 314.077717 119.573999 
L 315.077717 119.564489 
L 316.077717 119.552836 
L 317.077717 119.521806 
L 318.077717 119.510638 
L 319.077717 119.480521 
L 320.077717 119.420744 
L 321.077717 119.383552 
L 322.077717 119.344456 
L 323.077717 119.302017 
L 324.077717 119.269252 
L 325.077717 119.201825 
L 326.077717 119.162699 
L 327.077717 119.120025 
L 328.077717 119.049444 
L 329.077717 119.013053 
L 330.077717 118.95465 
L 331.077717 118.843697 
L 332.077717 118.773039 
L 333.077717 118.660099 
L 334.077717 118.614326 
L 335.077717 118.553043 
L 336.077717 118.504544 
L 337.077717 118.423721 
L 338.077717 118.305202 
L 339.077717 118.234992 
L 340.077717 118.151729 
L 341.077717 118.118587 
L 342.077717 118.06735 
L 343.077717 117.998952 
L 344.077717 117.932736 
L 345.077717 117.855819 
L 346.077717 117.828504 
L 347.077717 117.802026 
L 348.077717 117.779375 
L 349.077717 117.759844 
L 350.077717 117.73345 
L 351.077717 117.683679 
L 352.077717 117.648606 
L 353.703533 117.612741 
" clip-path="url(#p118d0508f3)" style="fill: none; stroke: #1f77b4; stroke-opacity: 0.5; stroke-width: 0.2; stroke-linecap: square"/>
   <path d="M 290.077717 86.424074 
L 291.077717 86.45551 
L 292.077717 86.492451 
L 293.077717 86.590197 
L 294.077717 86.622719 
L 295.077717 86.696343 
L 296.077717 86.734909 
L 297.077717 86.770322 
L 298.077717 86.827962 
L 299.077717 86.898348 
L 300.077717 86.950312 
L 301.077717 87.009402 
L 302.077717 87.097723 
L 303.077717 87.143867 
L 304.077717 87.186278 
L 305.077717 87.216771 
L 306.077717 87.242816 
L 307.077717 87.264016 
L 308.077717 87.318317 
L 309.077717 87.346255 
L 310.077717 87.375979 
L 311.077717 87.401374 
L 312.077717 87.412574 
L 313.077717 87.422698 
L 314.077717 87.422494 
L 315.077717 87.412984 
L 316.077717 87.40133 
L 317.077717 87.370301 
L 318.077717 87.359133 
L 319.077717 87.329015 
L 320.077717 87.269238 
L 321.077717 87.232047 
L 322.077717 87.192951 
L 323.077717 87.150511 
L 324.077717 87.117746 
L 325.077717 87.05032 
L 326.077717 87.011194 
L 327.077717 86.968519 
L 328.077717 86.897939 
L 329.077717 86.861548 
L 330.077717 86.803145 
L 331.077717 86.692192 
L 332.077717 86.621534 
L 333.077717 86.508594 
L 334.077717 86.462821 
L 335.077717 86.401538 
L 336.077717 86.353038 
L 337.077717 86.272216 
L 338.077717 86.153697 
L 339.077717 86.083486 
L 340.077717 86.000224 
L 341.077717 85.967082 
L 342.077717 85.915845 
L 343.077717 85.847446 
L 344.077717 85.781231 
L 345.077717 85.704314 
L 346.077717 85.676998 
L 347.077717 85.650521 
L 348.077717 85.62787 
L 349.077717 85.608339 
L 350.077717 85.581945 
L 351.077717 85.532174 
L 352.077717 85.497101 
L 353.703533 85.461235 
" clip-path="url(#p118d0508f3)" style="fill: none; stroke: #1f77b4; stroke-opacity: 0.5; stroke-width: 0.2; stroke-linecap: square"/>
   <path d="M 290.077717 164.528928 
L 291.077717 164.560365 
L 292.077717 164.597305 
L 293.077717 164.695052 
L 294.077717 164.727573 
L 295.077717 164.801198 
L 296.077717 164.839764 
L 297.077717 164.875177 
L 298.077717 164.932817 
L 299.077717 165.003203 
L 300.077717 165.055167 
L 301.077717 165.114257 
L 302.077717 165.202578 
L 303.077717 165.248722 
L 304.077717 165.291133 
L 305.077717 165.321626 
L 306.077717 165.347671 
L 307.077717 165.368871 
L 308.077717 165.423172 
L 309.077717 165.451109 
L 310.077717 165.480833 
L 311.077717 165.506228 
L 312.077717 165.517429 
L 313.077717 165.527553 
L 314.077717 165.527348 
L 315.077717 165.517838 
L 316.077717 165.506185 
L 317.077717 165.475156 
L 318.077717 165.463988 
L 319.077717 165.43387 
L 320.077717 165.374093 
L 321.077717 165.336902 
L 322.077717 165.297805 
L 323.077717 165.255366 
L 324.077717 165.222601 
L 325.077717 165.155174 
L 326.077717 165.116048 
L 327.077717 165.073374 
L 328.077717 165.002793 
L 329.077717 164.966402 
L 330.077717 164.907999 
L 331.077717 164.797047 
L 332.077717 164.726388 
L 333.077717 164.613448 
L 334.077717 164.567676 
L 335.077717 164.506392 
L 336.077717 164.457893 
L 337.077717 164.37707 
L 338.077717 164.258551 
L 339.077717 164.188341 
L 340.077717 164.105078 
L 341.077717 164.071937 
L 342.077717 164.020699 
L 343.077717 163.952301 
L 344.077717 163.886085 
L 345.077717 163.809168 
L 346.077717 163.781853 
L 347.077717 163.755375 
L 348.077717 163.732725 
L 349.077717 163.713193 
L 350.077717 163.686799 
L 351.077717 163.637029 
L 352.077717 163.601955 
L 353.703533 163.56609 
" clip-path="url(#p118d0508f3)" style="fill: none; stroke: #1f77b4; stroke-opacity: 0.5; stroke-width: 0.2; stroke-linecap: square"/>
   <path d="M 290.077717 154.514801 
L 291.077717 154.546238 
L 292.077717 154.583178 
L 293.077717 154.680924 
L 294.077717 154.713446 
L 295.077717 154.787071 
L 296.077717 154.825636 
L 297.077717 154.86105 
L 298.077717 154.918689 
L 299.077717 154.989076 
L 300.077717 155.04104 
L 301.077717 155.10013 
L 302.077717 155.188451 
L 303.077717 155.234595 
L 304.077717 155.277006 
L 305.077717 155.307499 
L 306.077717 155.333543 
L 307.077717 155.354744 
L 308.077717 155.409045 
L 309.077717 155.436982 
L 310.077717 155.466706 
L 311.077717 155.492101 
L 312.077717 155.503301 
L 313.077717 155.513425 
L 314.077717 155.513221 
L 315.077717 155.503711 
L 316.077717 155.492058 
L 317.077717 155.461028 
L 318.077717 155.44986 
L 319.077717 155.419743 
L 320.077717 155.359966 
L 321.077717 155.322774 
L 322.077717 155.283678 
L 323.077717 155.241239 
L 324.077717 155.208474 
L 325.077717 155.141047 
L 326.077717 155.101921 
L 327.077717 155.059247 
L 328.077717 154.988666 
L 329.077717 154.952275 
L 330.077717 154.893872 
L 331.077717 154.782919 
L 332.077717 154.712261 
L 333.077717 154.599321 
L 334.077717 154.553548 
L 335.077717 154.492265 
L 336.077717 154.443766 
L 337.077717 154.362943 
L 338.077717 154.244424 
L 339.077717 154.174214 
L 340.077717 154.090951 
L 341.077717 154.057809 
L 342.077717 154.006572 
L 343.077717 153.938174 
L 344.077717 153.871958 
L 345.077717 153.795041 
L 346.077717 153.767726 
L 347.077717 153.741248 
L 348.077717 153.718597 
L 349.077717 153.699066 
L 350.077717 153.672672 
L 351.077717 153.622901 
L 352.077717 153.587828 
L 353.703533 153.551963 
" clip-path="url(#p118d0508f3)" style="fill: none; stroke: #1f77b4; stroke-opacity: 0.5; stroke-width: 0.2; stroke-linecap: square"/>
   <path d="M 290.077717 157.942933 
L 291.077717 157.97437 
L 292.077717 158.01131 
L 293.077717 158.109057 
L 294.077717 158.141578 
L 295.077717 158.215203 
L 296.077717 158.253769 
L 297.077717 158.289182 
L 298.077717 158.346822 
L 299.077717 158.417208 
L 300.077717 158.469172 
L 301.077717 158.528262 
L 302.077717 158.616583 
L 303.077717 158.662727 
L 304.077717 158.705138 
L 305.077717 158.735631 
L 306.077717 158.761676 
L 307.077717 158.782876 
L 308.077717 158.837177 
L 309.077717 158.865114 
L 310.077717 158.894838 
L 311.077717 158.920233 
L 312.077717 158.931434 
L 313.077717 158.941558 
L 314.077717 158.941353 
L 315.077717 158.931843 
L 316.077717 158.92019 
L 317.077717 158.88916 
L 318.077717 158.877993 
L 319.077717 158.847875 
L 320.077717 158.788098 
L 321.077717 158.750907 
L 322.077717 158.71181 
L 323.077717 158.669371 
L 324.077717 158.636606 
L 325.077717 158.569179 
L 326.077717 158.530053 
L 327.077717 158.487379 
L 328.077717 158.416798 
L 329.077717 158.380407 
L 330.077717 158.322004 
L 331.077717 158.211052 
L 332.077717 158.140393 
L 333.077717 158.027453 
L 334.077717 157.981681 
L 335.077717 157.920397 
L 336.077717 157.871898 
L 337.077717 157.791075 
L 338.077717 157.672556 
L 339.077717 157.602346 
L 340.077717 157.519083 
L 341.077717 157.485942 
L 342.077717 157.434704 
L 343.077717 157.366306 
L 344.077717 157.30009 
L 345.077717 157.223173 
L 346.077717 157.195858 
L 347.077717 157.16938 
L 348.077717 157.14673 
L 349.077717 157.127198 
L 350.077717 157.100804 
L 351.077717 157.051034 
L 352.077717 157.01596 
L 353.703533 156.980095 
" clip-path="url(#p118d0508f3)" style="fill: none; stroke: #1f77b4; stroke-opacity: 0.5; stroke-width: 0.2; stroke-linecap: square"/>
   <path d="M 353.703533 291.237129 
L 352.703533 291.205692 
L 351.703533 291.168752 
L 350.703533 291.071006 
L 349.703533 291.038484 
L 348.703533 290.964859 
L 347.703533 290.926294 
L 346.703533 290.890881 
L 345.703533 290.833241 
L 344.703533 290.762854 
L 343.703533 290.71089 
L 342.703533 290.6518 
L 341.703533 290.563479 
L 340.703533 290.517335 
L 339.703533 290.474924 
L 338.703533 290.444432 
L 337.703533 290.418387 
L 336.703533 290.397186 
L 335.703533 290.342885 
L 334.703533 290.314948 
L 333.703533 290.285224 
L 332.703533 290.259829 
L 331.703533 290.248629 
L 330.703533 290.238505 
L 329.703533 290.238709 
L 328.703533 290.248219 
L 327.703533 290.259872 
L 326.703533 290.290902 
L 325.703533 290.30207 
L 324.703533 290.332187 
L 323.703533 290.391964 
L 322.703533 290.429156 
L 321.703533 290.468252 
L 320.703533 290.510691 
L 319.703533 290.543457 
L 318.703533 290.610883 
L 317.703533 290.650009 
L 316.703533 290.692683 
L 315.703533 290.763264 
L 314.703533 290.799655 
L 313.703533 290.858058 
L 312.703533 290.969011 
L 311.703533 291.039669 
L 310.703533 291.152609 
L 309.703533 291.198382 
L 308.703533 291.259665 
L 307.703533 291.308164 
L 306.703533 291.388987 
L 305.703533 291.507506 
L 304.703533 291.577716 
L 303.703533 291.660979 
L 302.703533 291.694121 
L 301.703533 291.745358 
L 300.703533 291.813756 
L 299.703533 291.879972 
L 298.703533 291.956889 
L 297.703533 291.984204 
L 296.703533 292.010682 
L 295.703533 292.033333 
L 294.703533 292.052864 
L 293.703533 292.079258 
L 292.703533 292.129029 
L 291.703533 292.164102 
L 290.077717 292.199967 
" clip-path="url(#p118d0508f3)" style="fill: none; stroke: #ff7f0e; stroke-opacity: 0.5; stroke-width: 0.2; stroke-linecap: square"/>
   <path d="M 353.703533 262.452192 
L 352.703533 262.420756 
L 351.703533 262.383815 
L 350.703533 262.286069 
L 349.703533 262.253547 
L 348.703533 262.179922 
L 347.703533 262.141357 
L 346.703533 262.105944 
L 345.703533 262.048304 
L 344.703533 261.977917 
L 343.703533 261.925953 
L 342.703533 261.866863 
L 341.703533 261.778542 
L 340.703533 261.732398 
L 339.703533 261.689987 
L 338.703533 261.659495 
L 337.703533 261.63345 
L 336.703533 261.61225 
L 335.703533 261.557948 
L 334.703533 261.530011 
L 333.703533 261.500287 
L 332.703533 261.474892 
L 331.703533 261.463692 
L 330.703533 261.453568 
L 329.703533 261.453772 
L 328.703533 261.463282 
L 327.703533 261.474936 
L 326.703533 261.505965 
L 325.703533 261.517133 
L 324.703533 261.54725 
L 323.703533 261.607027 
L 322.703533 261.644219 
L 321.703533 261.683315 
L 320.703533 261.725754 
L 319.703533 261.75852 
L 318.703533 261.825946 
L 317.703533 261.865072 
L 316.703533 261.907746 
L 315.703533 261.978327 
L 314.703533 262.014718 
L 313.703533 262.073121 
L 312.703533 262.184074 
L 311.703533 262.254732 
L 310.703533 262.367672 
L 309.703533 262.413445 
L 308.703533 262.474728 
L 307.703533 262.523227 
L 306.703533 262.60405 
L 305.703533 262.722569 
L 304.703533 262.79278 
L 303.703533 262.876042 
L 302.703533 262.909184 
L 301.703533 262.960421 
L 300.703533 263.028819 
L 299.703533 263.095035 
L 298.703533 263.171952 
L 297.703533 263.199267 
L 296.703533 263.225745 
L 295.703533 263.248396 
L 294.703533 263.267927 
L 293.703533 263.294321 
L 292.703533 263.344092 
L 291.703533 263.379165 
L 290.077717 263.41503 
" clip-path="url(#p118d0508f3)" style="fill: none; stroke: #ff7f0e; stroke-opacity: 0.5; stroke-width: 0.2; stroke-linecap: square"/>
   <path d="M 353.703533 208.006734 
L 352.703533 207.975298 
L 351.703533 207.938358 
L 350.703533 207.840611 
L 349.703533 207.80809 
L 348.703533 207.734465 
L 347.703533 207.695899 
L 346.703533 207.660486 
L 345.703533 207.602846 
L 344.703533 207.53246 
L 343.703533 207.480496 
L 342.703533 207.421406 
L 341.703533 207.333085 
L 340.703533 207.286941 
L 339.703533 207.24453 
L 338.703533 207.214037 
L 337.703533 207.187992 
L 336.703533 207.166792 
L 335.703533 207.112491 
L 334.703533 207.084553 
L 333.703533 207.054829 
L 332.703533 207.029435 
L 331.703533 207.018234 
L 330.703533 207.00811 
L 329.703533 207.008315 
L 328.703533 207.017825 
L 327.703533 207.029478 
L 326.703533 207.060507 
L 325.703533 207.071675 
L 324.703533 207.101793 
L 323.703533 207.16157 
L 322.703533 207.198761 
L 321.703533 207.237857 
L 320.703533 207.280297 
L 319.703533 207.313062 
L 318.703533 207.380489 
L 317.703533 207.419614 
L 316.703533 207.462289 
L 315.703533 207.53287 
L 314.703533 207.56926 
L 313.703533 207.627664 
L 312.703533 207.738616 
L 311.703533 207.809275 
L 310.703533 207.922214 
L 309.703533 207.967987 
L 308.703533 208.029271 
L 307.703533 208.07777 
L 306.703533 208.158593 
L 305.703533 208.277111 
L 304.703533 208.347322 
L 303.703533 208.430585 
L 302.703533 208.463726 
L 301.703533 208.514964 
L 300.703533 208.583362 
L 299.703533 208.649577 
L 298.703533 208.726494 
L 297.703533 208.75381 
L 296.703533 208.780287 
L 295.703533 208.802938 
L 294.703533 208.822469 
L 293.703533 208.848863 
L 292.703533 208.898634 
L 291.703533 208.933707 
L 290.077717 208.969573 
" clip-path="url(#p118d0508f3)" style="fill: none; stroke: #ff7f0e; stroke-opacity: 0.5; stroke-width: 0.2; stroke-linecap: square"/>
   <path d="M 353.703533 296.395267 
L 352.703533 296.36383 
L 351.703533 296.32689 
L 350.703533 296.229143 
L 349.703533 296.196622 
L 348.703533 296.122997 
L 347.703533 296.084432 
L 346.703533 296.049018 
L 345.703533 295.991378 
L 344.703533 295.920992 
L 343.703533 295.869028 
L 342.703533 295.809938 
L 341.703533 295.721617 
L 340.703533 295.675473 
L 339.703533 295.633062 
L 338.703533 295.602569 
L 337.703533 295.576524 
L 336.703533 295.555324 
L 335.703533 295.501023 
L 334.703533 295.473086 
L 333.703533 295.443362 
L 332.703533 295.417967 
L 331.703533 295.406767 
L 330.703533 295.396643 
L 329.703533 295.396847 
L 328.703533 295.406357 
L 327.703533 295.41801 
L 326.703533 295.44904 
L 325.703533 295.460208 
L 324.703533 295.490325 
L 323.703533 295.550102 
L 322.703533 295.587294 
L 321.703533 295.62639 
L 320.703533 295.668829 
L 319.703533 295.701594 
L 318.703533 295.769021 
L 317.703533 295.808147 
L 316.703533 295.850821 
L 315.703533 295.921402 
L 314.703533 295.957793 
L 313.703533 296.016196 
L 312.703533 296.127149 
L 311.703533 296.197807 
L 310.703533 296.310747 
L 309.703533 296.35652 
L 308.703533 296.417803 
L 307.703533 296.466302 
L 306.703533 296.547125 
L 305.703533 296.665644 
L 304.703533 296.735854 
L 303.703533 296.819117 
L 302.703533 296.852259 
L 301.703533 296.903496 
L 300.703533 296.971894 
L 299.703533 297.03811 
L 298.703533 297.115027 
L 297.703533 297.142342 
L 296.703533 297.16882 
L 295.703533 297.19147 
L 294.703533 297.211002 
L 293.703533 297.237396 
L 292.703533 297.287167 
L 291.703533 297.32224 
L 290.077717 297.358105 
" clip-path="url(#p118d0508f3)" style="fill: none; stroke: #ff7f0e; stroke-opacity: 0.5; stroke-width: 0.2; stroke-linecap: square"/>
   <path d="M 353.703533 285.219136 
L 352.703533 285.1877 
L 351.703533 285.15076 
L 350.703533 285.053013 
L 349.703533 285.020491 
L 348.703533 284.946867 
L 347.703533 284.908301 
L 346.703533 284.872888 
L 345.703533 284.815248 
L 344.703533 284.744862 
L 343.703533 284.692898 
L 342.703533 284.633808 
L 341.703533 284.545487 
L 340.703533 284.499343 
L 339.703533 284.456932 
L 338.703533 284.426439 
L 337.703533 284.400394 
L 336.703533 284.379194 
L 335.703533 284.324893 
L 334.703533 284.296955 
L 333.703533 284.267231 
L 332.703533 284.241837 
L 331.703533 284.230636 
L 330.703533 284.220512 
L 329.703533 284.220716 
L 328.703533 284.230226 
L 327.703533 284.24188 
L 326.703533 284.272909 
L 325.703533 284.284077 
L 324.703533 284.314195 
L 323.703533 284.373972 
L 322.703533 284.411163 
L 321.703533 284.450259 
L 320.703533 284.492699 
L 319.703533 284.525464 
L 318.703533 284.59289 
L 317.703533 284.632016 
L 316.703533 284.674691 
L 315.703533 284.745271 
L 314.703533 284.781662 
L 313.703533 284.840066 
L 312.703533 284.951018 
L 311.703533 285.021676 
L 310.703533 285.134616 
L 309.703533 285.180389 
L 308.703533 285.241672 
L 307.703533 285.290172 
L 306.703533 285.370994 
L 305.703533 285.489513 
L 304.703533 285.559724 
L 303.703533 285.642986 
L 302.703533 285.676128 
L 301.703533 285.727365 
L 300.703533 285.795764 
L 299.703533 285.861979 
L 298.703533 285.938896 
L 297.703533 285.966212 
L 296.703533 285.992689 
L 295.703533 286.01534 
L 294.703533 286.034871 
L 293.703533 286.061265 
L 292.703533 286.111036 
L 291.703533 286.146109 
L 290.077717 286.181975 
" clip-path="url(#p118d0508f3)" style="fill: none; stroke: #ff7f0e; stroke-opacity: 0.5; stroke-width: 0.2; stroke-linecap: square"/>
   <path d="M 353.703533 232.952415 
L 352.703533 232.920979 
L 351.703533 232.884038 
L 350.703533 232.786292 
L 349.703533 232.75377 
L 348.703533 232.680146 
L 347.703533 232.64158 
L 346.703533 232.606167 
L 345.703533 232.548527 
L 344.703533 232.478141 
L 343.703533 232.426176 
L 342.703533 232.367087 
L 341.703533 232.278766 
L 340.703533 232.232621 
L 339.703533 232.19021 
L 338.703533 232.159718 
L 337.703533 232.133673 
L 336.703533 232.112473 
L 335.703533 232.058172 
L 334.703533 232.030234 
L 333.703533 232.00051 
L 332.703533 231.975115 
L 331.703533 231.963915 
L 330.703533 231.953791 
L 329.703533 231.953995 
L 328.703533 231.963505 
L 327.703533 231.975159 
L 326.703533 232.006188 
L 325.703533 232.017356 
L 324.703533 232.047473 
L 323.703533 232.10725 
L 322.703533 232.144442 
L 321.703533 232.183538 
L 320.703533 232.225978 
L 319.703533 232.258743 
L 318.703533 232.326169 
L 317.703533 232.365295 
L 316.703533 232.40797 
L 315.703533 232.47855 
L 314.703533 232.514941 
L 313.703533 232.573344 
L 312.703533 232.684297 
L 311.703533 232.754955 
L 310.703533 232.867895 
L 309.703533 232.913668 
L 308.703533 232.974951 
L 307.703533 233.023451 
L 306.703533 233.104273 
L 305.703533 233.222792 
L 304.703533 233.293003 
L 303.703533 233.376265 
L 302.703533 233.409407 
L 301.703533 233.460644 
L 300.703533 233.529043 
L 299.703533 233.595258 
L 298.703533 233.672175 
L 297.703533 233.699491 
L 296.703533 233.725968 
L 295.703533 233.748619 
L 294.703533 233.76815 
L 293.703533 233.794544 
L 292.703533 233.844315 
L 291.703533 233.879388 
L 290.077717 233.915254 
" clip-path="url(#p118d0508f3)" style="fill: none; stroke: #ff7f0e; stroke-opacity: 0.5; stroke-width: 0.2; stroke-linecap: square"/>
   <path d="M 353.703533 260.729532 
L 352.703533 260.698096 
L 351.703533 260.661156 
L 350.703533 260.563409 
L 349.703533 260.530887 
L 348.703533 260.457263 
L 347.703533 260.418697 
L 346.703533 260.383284 
L 345.703533 260.325644 
L 344.703533 260.255258 
L 343.703533 260.203294 
L 342.703533 260.144204 
L 341.703533 260.055883 
L 340.703533 260.009739 
L 339.703533 259.967328 
L 338.703533 259.936835 
L 337.703533 259.91079 
L 336.703533 259.88959 
L 335.703533 259.835289 
L 334.703533 259.807351 
L 333.703533 259.777627 
L 332.703533 259.752233 
L 331.703533 259.741032 
L 330.703533 259.730908 
L 329.703533 259.731113 
L 328.703533 259.740622 
L 327.703533 259.752276 
L 326.703533 259.783305 
L 325.703533 259.794473 
L 324.703533 259.824591 
L 323.703533 259.884368 
L 322.703533 259.921559 
L 321.703533 259.960655 
L 320.703533 260.003095 
L 319.703533 260.03586 
L 318.703533 260.103286 
L 317.703533 260.142412 
L 316.703533 260.185087 
L 315.703533 260.255668 
L 314.703533 260.292058 
L 313.703533 260.350462 
L 312.703533 260.461414 
L 311.703533 260.532072 
L 310.703533 260.645012 
L 309.703533 260.690785 
L 308.703533 260.752068 
L 307.703533 260.800568 
L 306.703533 260.88139 
L 305.703533 260.999909 
L 304.703533 261.07012 
L 303.703533 261.153382 
L 302.703533 261.186524 
L 301.703533 261.237762 
L 300.703533 261.30616 
L 299.703533 261.372375 
L 298.703533 261.449292 
L 297.703533 261.476608 
L 296.703533 261.503085 
L 295.703533 261.525736 
L 294.703533 261.545267 
L 293.703533 261.571661 
L 292.703533 261.621432 
L 291.703533 261.656505 
L 290.077717 261.692371 
" clip-path="url(#p118d0508f3)" style="fill: none; stroke: #ff7f0e; stroke-opacity: 0.5; stroke-width: 0.2; stroke-linecap: square"/>
   <path d="M 353.703533 281.160371 
L 352.703533 281.128935 
L 351.703533 281.091994 
L 350.703533 280.994248 
L 349.703533 280.961726 
L 348.703533 280.888102 
L 347.703533 280.849536 
L 346.703533 280.814123 
L 345.703533 280.756483 
L 344.703533 280.686097 
L 343.703533 280.634132 
L 342.703533 280.575043 
L 341.703533 280.486722 
L 340.703533 280.440577 
L 339.703533 280.398167 
L 338.703533 280.367674 
L 337.703533 280.341629 
L 336.703533 280.320429 
L 335.703533 280.266128 
L 334.703533 280.23819 
L 333.703533 280.208466 
L 332.703533 280.183071 
L 331.703533 280.171871 
L 330.703533 280.161747 
L 329.703533 280.161951 
L 328.703533 280.171461 
L 327.703533 280.183115 
L 326.703533 280.214144 
L 325.703533 280.225312 
L 324.703533 280.25543 
L 323.703533 280.315206 
L 322.703533 280.352398 
L 321.703533 280.391494 
L 320.703533 280.433934 
L 319.703533 280.466699 
L 318.703533 280.534125 
L 317.703533 280.573251 
L 316.703533 280.615926 
L 315.703533 280.686506 
L 314.703533 280.722897 
L 313.703533 280.7813 
L 312.703533 280.892253 
L 311.703533 280.962911 
L 310.703533 281.075851 
L 309.703533 281.121624 
L 308.703533 281.182907 
L 307.703533 281.231407 
L 306.703533 281.312229 
L 305.703533 281.430748 
L 304.703533 281.500959 
L 303.703533 281.584221 
L 302.703533 281.617363 
L 301.703533 281.6686 
L 300.703533 281.736999 
L 299.703533 281.803214 
L 298.703533 281.880131 
L 297.703533 281.907447 
L 296.703533 281.933924 
L 295.703533 281.956575 
L 294.703533 281.976106 
L 293.703533 282.0025 
L 292.703533 282.052271 
L 291.703533 282.087344 
L 290.077717 282.12321 
" clip-path="url(#p118d0508f3)" style="fill: none; stroke: #ff7f0e; stroke-opacity: 0.5; stroke-width: 0.2; stroke-linecap: square"/>
   <path d="M 353.703533 311.317896 
L 352.703533 311.286459 
L 351.703533 311.249519 
L 350.703533 311.151773 
L 349.703533 311.119251 
L 348.703533 311.045626 
L 347.703533 311.007061 
L 346.703533 310.971648 
L 345.703533 310.914008 
L 344.703533 310.843621 
L 343.703533 310.791657 
L 342.703533 310.732567 
L 341.703533 310.644246 
L 340.703533 310.598102 
L 339.703533 310.555691 
L 338.703533 310.525199 
L 337.703533 310.499154 
L 336.703533 310.477953 
L 335.703533 310.423652 
L 334.703533 310.395715 
L 333.703533 310.365991 
L 332.703533 310.340596 
L 331.703533 310.329396 
L 330.703533 310.319272 
L 329.703533 310.319476 
L 328.703533 310.328986 
L 327.703533 310.340639 
L 326.703533 310.371669 
L 325.703533 310.382837 
L 324.703533 310.412954 
L 323.703533 310.472731 
L 322.703533 310.509923 
L 321.703533 310.549019 
L 320.703533 310.591458 
L 319.703533 310.624223 
L 318.703533 310.69165 
L 317.703533 310.730776 
L 316.703533 310.77345 
L 315.703533 310.844031 
L 314.703533 310.880422 
L 313.703533 310.938825 
L 312.703533 311.049778 
L 311.703533 311.120436 
L 310.703533 311.233376 
L 309.703533 311.279149 
L 308.703533 311.340432 
L 307.703533 311.388931 
L 306.703533 311.469754 
L 305.703533 311.588273 
L 304.703533 311.658483 
L 303.703533 311.741746 
L 302.703533 311.774888 
L 301.703533 311.826125 
L 300.703533 311.894523 
L 299.703533 311.960739 
L 298.703533 312.037656 
L 297.703533 312.064971 
L 296.703533 312.091449 
L 295.703533 312.1141 
L 294.703533 312.133631 
L 293.703533 312.160025 
L 292.703533 312.209796 
L 291.703533 312.244869 
L 290.077717 312.280734 
" clip-path="url(#p118d0508f3)" style="fill: none; stroke: #ff7f0e; stroke-opacity: 0.5; stroke-width: 0.2; stroke-linecap: square"/>
   <path d="M 353.703533 251.91935 
L 352.703533 251.887914 
L 351.703533 251.850974 
L 350.703533 251.753227 
L 349.703533 251.720705 
L 348.703533 251.647081 
L 347.703533 251.608515 
L 346.703533 251.573102 
L 345.703533 251.515462 
L 344.703533 251.445076 
L 343.703533 251.393112 
L 342.703533 251.334022 
L 341.703533 251.245701 
L 340.703533 251.199557 
L 339.703533 251.157146 
L 338.703533 251.126653 
L 337.703533 251.100608 
L 336.703533 251.079408 
L 335.703533 251.025107 
L 334.703533 250.997169 
L 333.703533 250.967445 
L 332.703533 250.942051 
L 331.703533 250.93085 
L 330.703533 250.920726 
L 329.703533 250.920931 
L 328.703533 250.93044 
L 327.703533 250.942094 
L 326.703533 250.973123 
L 325.703533 250.984291 
L 324.703533 251.014409 
L 323.703533 251.074186 
L 322.703533 251.111377 
L 321.703533 251.150473 
L 320.703533 251.192913 
L 319.703533 251.225678 
L 318.703533 251.293104 
L 317.703533 251.33223 
L 316.703533 251.374905 
L 315.703533 251.445485 
L 314.703533 251.481876 
L 313.703533 251.54028 
L 312.703533 251.651232 
L 311.703533 251.72189 
L 310.703533 251.83483 
L 309.703533 251.880603 
L 308.703533 251.941886 
L 307.703533 251.990386 
L 306.703533 252.071208 
L 305.703533 252.189727 
L 304.703533 252.259938 
L 303.703533 252.3432 
L 302.703533 252.376342 
L 301.703533 252.427579 
L 300.703533 252.495978 
L 299.703533 252.562193 
L 298.703533 252.63911 
L 297.703533 252.666426 
L 296.703533 252.692903 
L 295.703533 252.715554 
L 294.703533 252.735085 
L 293.703533 252.761479 
L 292.703533 252.81125 
L 291.703533 252.846323 
L 290.077717 252.882189 
" clip-path="url(#p118d0508f3)" style="fill: none; stroke: #ff7f0e; stroke-opacity: 0.5; stroke-width: 0.2; stroke-linecap: square"/>
   <path d="M 290.077717 235.76123 
L 291.077717 235.792667 
L 292.077717 235.829607 
L 293.077717 235.927353 
L 294.077717 235.959875 
L 295.077717 236.0335 
L 296.077717 236.072065 
L 297.077717 236.107479 
L 298.077717 236.165118 
L 299.077717 236.235505 
L 300.077717 236.287469 
L 301.077717 236.346559 
L 302.077717 236.43488 
L 303.077717 236.481024 
L 304.077717 236.523435 
L 305.077717 236.553927 
L 306.077717 236.579972 
L 307.077717 236.601173 
L 308.077717 236.655474 
L 309.077717 236.683411 
L 310.077717 236.713135 
L 311.077717 236.73853 
L 312.077717 236.74973 
L 313.077717 236.759854 
L 314.077717 236.75965 
L 315.077717 236.75014 
L 316.077717 236.738487 
L 317.077717 236.707457 
L 318.077717 236.696289 
L 319.077717 236.666172 
L 320.077717 236.606395 
L 321.077717 236.569203 
L 322.077717 236.530107 
L 323.077717 236.487668 
L 324.077717 236.454903 
L 325.077717 236.387476 
L 326.077717 236.34835 
L 327.077717 236.305676 
L 328.077717 236.235095 
L 329.077717 236.198704 
L 330.077717 236.140301 
L 331.077717 236.029348 
L 332.077717 235.95869 
L 333.077717 235.84575 
L 334.077717 235.799977 
L 335.077717 235.738694 
L 336.077717 235.690195 
L 337.077717 235.609372 
L 338.077717 235.490853 
L 339.077717 235.420643 
L 340.077717 235.33738 
L 341.077717 235.304238 
L 342.077717 235.253001 
L 343.077717 235.184603 
L 344.077717 235.118387 
L 345.077717 235.04147 
L 346.077717 235.014155 
L 347.077717 234.987677 
L 348.077717 234.965026 
L 349.077717 234.945495 
L 350.077717 234.919101 
L 351.077717 234.86933 
L 352.077717 234.834257 
L 353.703533 234.798392 
" clip-path="url(#p118d0508f3)" style="fill: none; stroke: #1f77b4; stroke-opacity: 0.5; stroke-width: 0.2; stroke-linecap: square"/>
   <path d="M 290.077717 217.321994 
L 291.077717 217.353431 
L 292.077717 217.390371 
L 293.077717 217.488117 
L 294.077717 217.520639 
L 295.077717 217.594264 
L 296.077717 217.632829 
L 297.077717 217.668243 
L 298.077717 217.725882 
L 299.077717 217.796269 
L 300.077717 217.848233 
L 301.077717 217.907323 
L 302.077717 217.995644 
L 303.077717 218.041788 
L 304.077717 218.084199 
L 305.077717 218.114692 
L 306.077717 218.140736 
L 307.077717 218.161937 
L 308.077717 218.216238 
L 309.077717 218.244175 
L 310.077717 218.273899 
L 311.077717 218.299294 
L 312.077717 218.310494 
L 313.077717 218.320618 
L 314.077717 218.320414 
L 315.077717 218.310904 
L 316.077717 218.299251 
L 317.077717 218.268221 
L 318.077717 218.257053 
L 319.077717 218.226936 
L 320.077717 218.167159 
L 321.077717 218.129967 
L 322.077717 218.090871 
L 323.077717 218.048432 
L 324.077717 218.015667 
L 325.077717 217.94824 
L 326.077717 217.909114 
L 327.077717 217.86644 
L 328.077717 217.795859 
L 329.077717 217.759468 
L 330.077717 217.701065 
L 331.077717 217.590112 
L 332.077717 217.519454 
L 333.077717 217.406514 
L 334.077717 217.360741 
L 335.077717 217.299458 
L 336.077717 217.250959 
L 337.077717 217.170136 
L 338.077717 217.051617 
L 339.077717 216.981407 
L 340.077717 216.898144 
L 341.077717 216.865002 
L 342.077717 216.813765 
L 343.077717 216.745367 
L 344.077717 216.679151 
L 345.077717 216.602234 
L 346.077717 216.574919 
L 347.077717 216.548441 
L 348.077717 216.525791 
L 349.077717 216.506259 
L 350.077717 216.479865 
L 351.077717 216.430094 
L 352.077717 216.395021 
L 353.703533 216.359156 
" clip-path="url(#p118d0508f3)" style="fill: none; stroke: #1f77b4; stroke-opacity: 0.5; stroke-width: 0.2; stroke-linecap: square"/>
   <path d="M 290.077717 228.208848 
L 291.077717 228.240284 
L 292.077717 228.277225 
L 293.077717 228.374971 
L 294.077717 228.407493 
L 295.077717 228.481117 
L 296.077717 228.519683 
L 297.077717 228.555096 
L 298.077717 228.612736 
L 299.077717 228.683122 
L 300.077717 228.735087 
L 301.077717 228.794176 
L 302.077717 228.882497 
L 303.077717 228.928642 
L 304.077717 228.971052 
L 305.077717 229.001545 
L 306.077717 229.02759 
L 307.077717 229.04879 
L 308.077717 229.103091 
L 309.077717 229.131029 
L 310.077717 229.160753 
L 311.077717 229.186148 
L 312.077717 229.197348 
L 313.077717 229.207472 
L 314.077717 229.207268 
L 315.077717 229.197758 
L 316.077717 229.186104 
L 317.077717 229.155075 
L 318.077717 229.143907 
L 319.077717 229.113789 
L 320.077717 229.054013 
L 321.077717 229.016821 
L 322.077717 228.977725 
L 323.077717 228.935285 
L 324.077717 228.90252 
L 325.077717 228.835094 
L 326.077717 228.795968 
L 327.077717 228.753293 
L 328.077717 228.682713 
L 329.077717 228.646322 
L 330.077717 228.587919 
L 331.077717 228.476966 
L 332.077717 228.406308 
L 333.077717 228.293368 
L 334.077717 228.247595 
L 335.077717 228.186312 
L 336.077717 228.137812 
L 337.077717 228.05699 
L 338.077717 227.938471 
L 339.077717 227.86826 
L 340.077717 227.784998 
L 341.077717 227.751856 
L 342.077717 227.700619 
L 343.077717 227.63222 
L 344.077717 227.566005 
L 345.077717 227.489088 
L 346.077717 227.461772 
L 347.077717 227.435295 
L 348.077717 227.412644 
L 349.077717 227.393113 
L 350.077717 227.366719 
L 351.077717 227.316948 
L 352.077717 227.281875 
L 353.703533 227.246009 
" clip-path="url(#p118d0508f3)" style="fill: none; stroke: #1f77b4; stroke-opacity: 0.5; stroke-width: 0.2; stroke-linecap: square"/>
   <path d="M 290.077717 252.800143 
L 291.077717 252.831579 
L 292.077717 252.868519 
L 293.077717 252.966266 
L 294.077717 252.998787 
L 295.077717 253.072412 
L 296.077717 253.110978 
L 297.077717 253.146391 
L 298.077717 253.204031 
L 299.077717 253.274417 
L 300.077717 253.326381 
L 301.077717 253.385471 
L 302.077717 253.473792 
L 303.077717 253.519936 
L 304.077717 253.562347 
L 305.077717 253.59284 
L 306.077717 253.618885 
L 307.077717 253.640085 
L 308.077717 253.694386 
L 309.077717 253.722324 
L 310.077717 253.752048 
L 311.077717 253.777442 
L 312.077717 253.788643 
L 313.077717 253.798767 
L 314.077717 253.798562 
L 315.077717 253.789053 
L 316.077717 253.777399 
L 317.077717 253.74637 
L 318.077717 253.735202 
L 319.077717 253.705084 
L 320.077717 253.645307 
L 321.077717 253.608116 
L 322.077717 253.56902 
L 323.077717 253.52658 
L 324.077717 253.493815 
L 325.077717 253.426388 
L 326.077717 253.387263 
L 327.077717 253.344588 
L 328.077717 253.274007 
L 329.077717 253.237617 
L 330.077717 253.179213 
L 331.077717 253.068261 
L 332.077717 252.997602 
L 333.077717 252.884663 
L 334.077717 252.83889 
L 335.077717 252.777607 
L 336.077717 252.729107 
L 337.077717 252.648285 
L 338.077717 252.529766 
L 339.077717 252.459555 
L 340.077717 252.376292 
L 341.077717 252.343151 
L 342.077717 252.291913 
L 343.077717 252.223515 
L 344.077717 252.1573 
L 345.077717 252.080383 
L 346.077717 252.053067 
L 347.077717 252.02659 
L 348.077717 252.003939 
L 349.077717 251.984408 
L 350.077717 251.958014 
L 351.077717 251.908243 
L 352.077717 251.87317 
L 353.703533 251.837304 
" clip-path="url(#p118d0508f3)" style="fill: none; stroke: #1f77b4; stroke-opacity: 0.5; stroke-width: 0.2; stroke-linecap: square"/>
   <path d="M 290.077717 317.507436 
L 291.077717 317.538873 
L 292.077717 317.575813 
L 293.077717 317.67356 
L 294.077717 317.706081 
L 295.077717 317.779706 
L 296.077717 317.818272 
L 297.077717 317.853685 
L 298.077717 317.911325 
L 299.077717 317.981711 
L 300.077717 318.033675 
L 301.077717 318.092765 
L 302.077717 318.181086 
L 303.077717 318.22723 
L 304.077717 318.269641 
L 305.077717 318.300134 
L 306.077717 318.326179 
L 307.077717 318.347379 
L 308.077717 318.40168 
L 309.077717 318.429617 
L 310.077717 318.459341 
L 311.077717 318.484736 
L 312.077717 318.495937 
L 313.077717 318.506061 
L 314.077717 318.505856 
L 315.077717 318.496346 
L 316.077717 318.484693 
L 317.077717 318.453663 
L 318.077717 318.442496 
L 319.077717 318.412378 
L 320.077717 318.352601 
L 321.077717 318.31541 
L 322.077717 318.276313 
L 323.077717 318.233874 
L 324.077717 318.201109 
L 325.077717 318.133682 
L 326.077717 318.094556 
L 327.077717 318.051882 
L 328.077717 317.981301 
L 329.077717 317.94491 
L 330.077717 317.886507 
L 331.077717 317.775555 
L 332.077717 317.704896 
L 333.077717 317.591956 
L 334.077717 317.546184 
L 335.077717 317.4849 
L 336.077717 317.436401 
L 337.077717 317.355578 
L 338.077717 317.237059 
L 339.077717 317.166849 
L 340.077717 317.083586 
L 341.077717 317.050445 
L 342.077717 316.999207 
L 343.077717 316.930809 
L 344.077717 316.864593 
L 345.077717 316.787676 
L 346.077717 316.760361 
L 347.077717 316.733883 
L 348.077717 316.711233 
L 349.077717 316.691701 
L 350.077717 316.665307 
L 351.077717 316.615537 
L 352.077717 316.580463 
L 353.703533 316.544598 
" clip-path="url(#p118d0508f3)" style="fill: none; stroke: #1f77b4; stroke-opacity: 0.5; stroke-width: 0.2; stroke-linecap: square"/>
   <path d="M 290.077717 247.82106 
L 291.077717 247.852496 
L 292.077717 247.889436 
L 293.077717 247.987183 
L 294.077717 248.019704 
L 295.077717 248.093329 
L 296.077717 248.131895 
L 297.077717 248.167308 
L 298.077717 248.224948 
L 299.077717 248.295334 
L 300.077717 248.347298 
L 301.077717 248.406388 
L 302.077717 248.494709 
L 303.077717 248.540853 
L 304.077717 248.583264 
L 305.077717 248.613757 
L 306.077717 248.639802 
L 307.077717 248.661002 
L 308.077717 248.715303 
L 309.077717 248.743241 
L 310.077717 248.772965 
L 311.077717 248.798359 
L 312.077717 248.80956 
L 313.077717 248.819684 
L 314.077717 248.819479 
L 315.077717 248.80997 
L 316.077717 248.798316 
L 317.077717 248.767287 
L 318.077717 248.756119 
L 319.077717 248.726001 
L 320.077717 248.666224 
L 321.077717 248.629033 
L 322.077717 248.589937 
L 323.077717 248.547497 
L 324.077717 248.514732 
L 325.077717 248.447305 
L 326.077717 248.40818 
L 327.077717 248.365505 
L 328.077717 248.294924 
L 329.077717 248.258534 
L 330.077717 248.20013 
L 331.077717 248.089178 
L 332.077717 248.018519 
L 333.077717 247.90558 
L 334.077717 247.859807 
L 335.077717 247.798524 
L 336.077717 247.750024 
L 337.077717 247.669202 
L 338.077717 247.550683 
L 339.077717 247.480472 
L 340.077717 247.397209 
L 341.077717 247.364068 
L 342.077717 247.31283 
L 343.077717 247.244432 
L 344.077717 247.178217 
L 345.077717 247.1013 
L 346.077717 247.073984 
L 347.077717 247.047507 
L 348.077717 247.024856 
L 349.077717 247.005325 
L 350.077717 246.978931 
L 351.077717 246.92916 
L 352.077717 246.894087 
L 353.703533 246.858221 
" clip-path="url(#p118d0508f3)" style="fill: none; stroke: #1f77b4; stroke-opacity: 0.5; stroke-width: 0.2; stroke-linecap: square"/>
   <path d="M 290.077717 296.300463 
L 291.077717 296.331899 
L 292.077717 296.36884 
L 293.077717 296.466586 
L 294.077717 296.499108 
L 295.077717 296.572732 
L 296.077717 296.611298 
L 297.077717 296.646711 
L 298.077717 296.704351 
L 299.077717 296.774737 
L 300.077717 296.826701 
L 301.077717 296.885791 
L 302.077717 296.974112 
L 303.077717 297.020256 
L 304.077717 297.062667 
L 305.077717 297.09316 
L 306.077717 297.119205 
L 307.077717 297.140405 
L 308.077717 297.194706 
L 309.077717 297.222644 
L 310.077717 297.252368 
L 311.077717 297.277763 
L 312.077717 297.288963 
L 313.077717 297.299087 
L 314.077717 297.298883 
L 315.077717 297.289373 
L 316.077717 297.277719 
L 317.077717 297.24669 
L 318.077717 297.235522 
L 319.077717 297.205404 
L 320.077717 297.145628 
L 321.077717 297.108436 
L 322.077717 297.06934 
L 323.077717 297.0269 
L 324.077717 296.994135 
L 325.077717 296.926709 
L 326.077717 296.887583 
L 327.077717 296.844908 
L 328.077717 296.774328 
L 329.077717 296.737937 
L 330.077717 296.679534 
L 331.077717 296.568581 
L 332.077717 296.497923 
L 333.077717 296.384983 
L 334.077717 296.33921 
L 335.077717 296.277927 
L 336.077717 296.229427 
L 337.077717 296.148605 
L 338.077717 296.030086 
L 339.077717 295.959875 
L 340.077717 295.876613 
L 341.077717 295.843471 
L 342.077717 295.792234 
L 343.077717 295.723835 
L 344.077717 295.65762 
L 345.077717 295.580703 
L 346.077717 295.553387 
L 347.077717 295.52691 
L 348.077717 295.504259 
L 349.077717 295.484728 
L 350.077717 295.458334 
L 351.077717 295.408563 
L 352.077717 295.37349 
L 353.703533 295.337624 
" clip-path="url(#p118d0508f3)" style="fill: none; stroke: #1f77b4; stroke-opacity: 0.5; stroke-width: 0.2; stroke-linecap: square"/>
   <path d="M 290.077717 215.609708 
L 291.077717 215.641145 
L 292.077717 215.678085 
L 293.077717 215.775832 
L 294.077717 215.808353 
L 295.077717 215.881978 
L 296.077717 215.920544 
L 297.077717 215.955957 
L 298.077717 216.013597 
L 299.077717 216.083983 
L 300.077717 216.135947 
L 301.077717 216.195037 
L 302.077717 216.283358 
L 303.077717 216.329502 
L 304.077717 216.371913 
L 305.077717 216.402406 
L 306.077717 216.428451 
L 307.077717 216.449651 
L 308.077717 216.503952 
L 309.077717 216.531889 
L 310.077717 216.561613 
L 311.077717 216.587008 
L 312.077717 216.598209 
L 313.077717 216.608332 
L 314.077717 216.608128 
L 315.077717 216.598618 
L 316.077717 216.586965 
L 317.077717 216.555935 
L 318.077717 216.544768 
L 319.077717 216.51465 
L 320.077717 216.454873 
L 321.077717 216.417682 
L 322.077717 216.378585 
L 323.077717 216.336146 
L 324.077717 216.303381 
L 325.077717 216.235954 
L 326.077717 216.196828 
L 327.077717 216.154154 
L 328.077717 216.083573 
L 329.077717 216.047182 
L 330.077717 215.988779 
L 331.077717 215.877827 
L 332.077717 215.807168 
L 333.077717 215.694228 
L 334.077717 215.648456 
L 335.077717 215.587172 
L 336.077717 215.538673 
L 337.077717 215.45785 
L 338.077717 215.339331 
L 339.077717 215.269121 
L 340.077717 215.185858 
L 341.077717 215.152716 
L 342.077717 215.101479 
L 343.077717 215.033081 
L 344.077717 214.966865 
L 345.077717 214.889948 
L 346.077717 214.862633 
L 347.077717 214.836155 
L 348.077717 214.813505 
L 349.077717 214.793973 
L 350.077717 214.767579 
L 351.077717 214.717809 
L 352.077717 214.682735 
L 353.703533 214.64687 
" clip-path="url(#p118d0508f3)" style="fill: none; stroke: #1f77b4; stroke-opacity: 0.5; stroke-width: 0.2; stroke-linecap: square"/>
   <path d="M 290.077717 297.22428 
L 291.077717 297.255716 
L 292.077717 297.292657 
L 293.077717 297.390403 
L 294.077717 297.422925 
L 295.077717 297.49655 
L 296.077717 297.535115 
L 297.077717 297.570528 
L 298.077717 297.628168 
L 299.077717 297.698555 
L 300.077717 297.750519 
L 301.077717 297.809608 
L 302.077717 297.897929 
L 303.077717 297.944074 
L 304.077717 297.986485 
L 305.077717 298.016977 
L 306.077717 298.043022 
L 307.077717 298.064222 
L 308.077717 298.118524 
L 309.077717 298.146461 
L 310.077717 298.176185 
L 311.077717 298.20158 
L 312.077717 298.21278 
L 313.077717 298.222904 
L 314.077717 298.2227 
L 315.077717 298.21319 
L 316.077717 298.201536 
L 317.077717 298.170507 
L 318.077717 298.159339 
L 319.077717 298.129222 
L 320.077717 298.069445 
L 321.077717 298.032253 
L 322.077717 297.993157 
L 323.077717 297.950717 
L 324.077717 297.917952 
L 325.077717 297.850526 
L 326.077717 297.8114 
L 327.077717 297.768725 
L 328.077717 297.698145 
L 329.077717 297.661754 
L 330.077717 297.603351 
L 331.077717 297.492398 
L 332.077717 297.42174 
L 333.077717 297.3088 
L 334.077717 297.263027 
L 335.077717 297.201744 
L 336.077717 297.153245 
L 337.077717 297.072422 
L 338.077717 296.953903 
L 339.077717 296.883692 
L 340.077717 296.80043 
L 341.077717 296.767288 
L 342.077717 296.716051 
L 343.077717 296.647653 
L 344.077717 296.581437 
L 345.077717 296.50452 
L 346.077717 296.477205 
L 347.077717 296.450727 
L 348.077717 296.428076 
L 349.077717 296.408545 
L 350.077717 296.382151 
L 351.077717 296.33238 
L 352.077717 296.297307 
L 353.703533 296.261441 
" clip-path="url(#p118d0508f3)" style="fill: none; stroke: #1f77b4; stroke-opacity: 0.5; stroke-width: 0.2; stroke-linecap: square"/>
   <path d="M 290.077717 281.485847 
L 291.077717 281.517283 
L 292.077717 281.554224 
L 293.077717 281.65197 
L 294.077717 281.684492 
L 295.077717 281.758116 
L 296.077717 281.796682 
L 297.077717 281.832095 
L 298.077717 281.889735 
L 299.077717 281.960121 
L 300.077717 282.012085 
L 301.077717 282.071175 
L 302.077717 282.159496 
L 303.077717 282.20564 
L 304.077717 282.248051 
L 305.077717 282.278544 
L 306.077717 282.304589 
L 307.077717 282.325789 
L 308.077717 282.38009 
L 309.077717 282.408028 
L 310.077717 282.437752 
L 311.077717 282.463147 
L 312.077717 282.474347 
L 313.077717 282.484471 
L 314.077717 282.484267 
L 315.077717 282.474757 
L 316.077717 282.463103 
L 317.077717 282.432074 
L 318.077717 282.420906 
L 319.077717 282.390788 
L 320.077717 282.331011 
L 321.077717 282.29382 
L 322.077717 282.254724 
L 323.077717 282.212284 
L 324.077717 282.179519 
L 325.077717 282.112093 
L 326.077717 282.072967 
L 327.077717 282.030292 
L 328.077717 281.959712 
L 329.077717 281.923321 
L 330.077717 281.864918 
L 331.077717 281.753965 
L 332.077717 281.683307 
L 333.077717 281.570367 
L 334.077717 281.524594 
L 335.077717 281.463311 
L 336.077717 281.414811 
L 337.077717 281.333989 
L 338.077717 281.21547 
L 339.077717 281.145259 
L 340.077717 281.061997 
L 341.077717 281.028855 
L 342.077717 280.977618 
L 343.077717 280.909219 
L 344.077717 280.843004 
L 345.077717 280.766087 
L 346.077717 280.738771 
L 347.077717 280.712294 
L 348.077717 280.689643 
L 349.077717 280.670112 
L 350.077717 280.643718 
L 351.077717 280.593947 
L 352.077717 280.558874 
L 353.703533 280.523008 
" clip-path="url(#p118d0508f3)" style="fill: none; stroke: #1f77b4; stroke-opacity: 0.5; stroke-width: 0.2; stroke-linecap: square"/>
   <g id="patch_3">
    <path d="M 69.06392 22.318125 
L 69.06392 318.021875 
M 284.51553 22.318125 
L 284.51553 318.021875 
" clip-path="url(#p118d0508f3)" style="fill: none; stroke: #ffffff; stroke-width: 3; stroke-linejoin: miter"/>
    <path d="M 69.06392 22.318125 
L 69.06392 318.021875 
M 284.51553 22.318125 
L 284.51553 318.021875 
" clip-path="url(#p118d0508f3)" style="fill: none; stroke: #1f77b4; stroke-linejoin: miter"/>
    <g id="PolyCollection_1">
     <path d="M 284.51553 22.318125 
L 69.06392 22.318125 
L 69.06392 318.021875 
L 284.51553 318.021875 
L 284.51553 318.021875 
L 284.51553 22.318125 
z
" clip-path="url(#p118d0508f3)" style="fill: #1f77b4; fill-opacity: 0.5"/>
    </g>
    <g id="patch_4">
     <path d="M 359.26572 22.318125 
L 359.26572 318.021875 
M 574.71733 22.318125 
L 574.71733 318.021875 
" clip-path="url(#p118d0508f3)" style="fill: none; stroke: #ffffff; stroke-width: 3; stroke-linejoin: miter"/>
     <path d="M 359.26572 22.318125 
L 359.26572 318.021875 
M 574.71733 22.318125 
L 574.71733 318.021875 
" clip-path="url(#p118d0508f3)" style="fill: none; stroke: #ff7f0e; stroke-linejoin: miter"/>
     <g id="PolyCollection_2">
      <path d="M 574.71733 22.318125 
L 359.26572 22.318125 
L 359.26572 318.021875 
L 574.71733 318.021875 
L 574.71733 318.021875 
L 574.71733 22.318125 
z
" clip-path="url(#p118d0508f3)" style="fill: #ff7f0e; fill-opacity: 0.5"/>
     </g>
     <g id="matplotlib.axis_1">
      <g id="xtick_1">
       <g id="line2d_1"/>
       <g id="text_1">
        <!-- deme0 -->
        <g transform="translate(159.410819 329.120312) scale(0.1 -0.1)">
         <defs>
          <path id="DejaVuSans-64" d="M 2906 2969 
L 2906 4863 
L 3481 4863 
L 3481 0 
L 2906 0 
L 2906 525 
Q 2725 213 2448 61 
Q 2172 -91 1784 -91 
Q 1150 -91 751 415 
Q 353 922 353 1747 
Q 353 2572 751 3078 
Q 1150 3584 1784 3584 
Q 2172 3584 2448 3432 
Q 2725 3281 2906 2969 
z
M 947 1747 
Q 947 1113 1208 752 
Q 1469 391 1925 391 
Q 2381 391 2643 752 
Q 2906 1113 2906 1747 
Q 2906 2381 2643 2742 
Q 2381 3103 1925 3103 
Q 1469 3103 1208 2742 
Q 947 2381 947 1747 
z
" transform="scale(0.015625)"/>
          <path id="DejaVuSans-65" d="M 3597 1894 
L 3597 1613 
L 953 1613 
Q 991 1019 1311 708 
Q 1631 397 2203 397 
Q 2534 397 2845 478 
Q 3156 559 3463 722 
L 3463 178 
Q 3153 47 2828 -22 
Q 2503 -91 2169 -91 
Q 1331 -91 842 396 
Q 353 884 353 1716 
Q 353 2575 817 3079 
Q 1281 3584 2069 3584 
Q 2775 3584 3186 3129 
Q 3597 2675 3597 1894 
z
M 3022 2063 
Q 3016 2534 2758 2815 
Q 2500 3097 2075 3097 
Q 1594 3097 1305 2825 
Q 1016 2553 972 2059 
L 3022 2063 
z
" transform="scale(0.015625)"/>
          <path id="DejaVuSans-6d" d="M 3328 2828 
Q 3544 3216 3844 3400 
Q 4144 3584 4550 3584 
Q 5097 3584 5394 3201 
Q 5691 2819 5691 2113 
L 5691 0 
L 5113 0 
L 5113 2094 
Q 5113 2597 4934 2840 
Q 4756 3084 4391 3084 
Q 3944 3084 3684 2787 
Q 3425 2491 3425 1978 
L 3425 0 
L 2847 0 
L 2847 2094 
Q 2847 2600 2669 2842 
Q 2491 3084 2119 3084 
Q 1678 3084 1418 2786 
Q 1159 2488 1159 1978 
L 1159 0 
L 581 0 
L 581 3500 
L 1159 3500 
L 1159 2956 
Q 1356 3278 1631 3431 
Q 1906 3584 2284 3584 
Q 2666 3584 2933 3390 
Q 3200 3197 3328 2828 
z
" transform="scale(0.015625)"/>
          <path id="DejaVuSans-30" d="M 2034 4250 
Q 1547 4250 1301 3770 
Q 1056 3291 1056 2328 
Q 1056 1369 1301 889 
Q 1547 409 2034 409 
Q 2525 409 2770 889 
Q 3016 1369 3016 2328 
Q 3016 3291 2770 3770 
Q 2525 4250 2034 4250 
z
M 2034 4750 
Q 2819 4750 3233 4129 
Q 3647 3509 3647 2328 
Q 3647 1150 3233 529 
Q 2819 -91 2034 -91 
Q 1250 -91 836 529 
Q 422 1150 422 2328 
Q 422 3509 836 4129 
Q 1250 4750 2034 4750 
z
" transform="scale(0.015625)"/>
         </defs>
         <use xlink:href="#DejaVuSans-64"/>
         <use xlink:href="#DejaVuSans-65" x="63.476562"/>
         <use xlink:href="#DejaVuSans-6d" x="125"/>
         <use xlink:href="#DejaVuSans-65" x="222.412109"/>
         <use xlink:href="#DejaVuSans-30" x="283.935547"/>
        </g>
       </g>
      </g>
      <g id="xtick_2">
       <g id="line2d_2"/>
       <g id="text_2">
        <!-- deme1 -->
        <g transform="translate(449.612619 329.120312) scale(0.1 -0.1)">
         <defs>
          <path id="DejaVuSans-31" d="M 794 531 
L 1825 531 
L 1825 4091 
L 703 3866 
L 703 4441 
L 1819 4666 
L 2450 4666 
L 2450 531 
L 3481 531 
L 3481 0 
L 794 0 
L 794 531 
z
" transform="scale(0.015625)"/>
         </defs>
         <use xlink:href="#DejaVuSans-64"/>
         <use xlink:href="#DejaVuSans-65" x="63.476562"/>
         <use xlink:href="#DejaVuSans-6d" x="125"/>
         <use xlink:href="#DejaVuSans-65" x="222.412109"/>
         <use xlink:href="#DejaVuSans-31" x="283.935547"/>
        </g>
       </g>
      </g>
     </g>
     <g id="matplotlib.axis_2">
      <g id="ytick_1">
       <g id="line2d_3">
        <defs>
         <path id="mfc959bda26" d="M 0 0 
L -3.5 0 
" style="stroke: #000000; stroke-width: 0.8"/>
        </defs>
        <g>
         <use xlink:href="#mfc959bda26" x="43.78125" y="318.021875" style="stroke: #000000; stroke-width: 0.8"/>
        </g>
       </g>
       <g id="text_3">
        <!-- 0.0 -->
        <g transform="translate(20.878125 321.821094) scale(0.1 -0.1)">
         <defs>
          <path id="DejaVuSans-2e" d="M 684 794 
L 1344 794 
L 1344 0 
L 684 0 
L 684 794 
z
" transform="scale(0.015625)"/>
         </defs>
         <use xlink:href="#DejaVuSans-30"/>
         <use xlink:href="#DejaVuSans-2e" x="63.623047"/>
         <use xlink:href="#DejaVuSans-30" x="95.410156"/>
        </g>
       </g>
      </g>
      <g id="ytick_2">
       <g id="line2d_4">
        <g>
         <use xlink:href="#mfc959bda26" x="43.78125" y="258.881125" style="stroke: #000000; stroke-width: 0.8"/>
        </g>
       </g>
       <g id="text_4">
        <!-- 0.5 -->
        <g transform="translate(20.878125 262.680344) scale(0.1 -0.1)">
         <defs>
          <path id="DejaVuSans-35" d="M 691 4666 
L 3169 4666 
L 3169 4134 
L 1269 4134 
L 1269 2991 
Q 1406 3038 1543 3061 
Q 1681 3084 1819 3084 
Q 2600 3084 3056 2656 
Q 3513 2228 3513 1497 
Q 3513 744 3044 326 
Q 2575 -91 1722 -91 
Q 1428 -91 1123 -41 
Q 819 9 494 109 
L 494 744 
Q 775 591 1075 516 
Q 1375 441 1709 441 
Q 2250 441 2565 725 
Q 2881 1009 2881 1497 
Q 2881 1984 2565 2268 
Q 2250 2553 1709 2553 
Q 1456 2553 1204 2497 
Q 953 2441 691 2322 
L 691 4666 
z
" transform="scale(0.015625)"/>
         </defs>
         <use xlink:href="#DejaVuSans-30"/>
         <use xlink:href="#DejaVuSans-2e" x="63.623047"/>
         <use xlink:href="#DejaVuSans-35" x="95.410156"/>
        </g>
       </g>
      </g>
      <g id="ytick_3">
       <g id="line2d_5">
        <g>
         <use xlink:href="#mfc959bda26" x="43.78125" y="199.740375" style="stroke: #000000; stroke-width: 0.8"/>
        </g>
       </g>
       <g id="text_5">
        <!-- 1.0 -->
        <g transform="translate(20.878125 203.539594) scale(0.1 -0.1)">
         <use xlink:href="#DejaVuSans-31"/>
         <use xlink:href="#DejaVuSans-2e" x="63.623047"/>
         <use xlink:href="#DejaVuSans-30" x="95.410156"/>
        </g>
       </g>
      </g>
      <g id="ytick_4">
       <g id="line2d_6">
        <g>
         <use xlink:href="#mfc959bda26" x="43.78125" y="140.599625" style="stroke: #000000; stroke-width: 0.8"/>
        </g>
       </g>
       <g id="text_6">
        <!-- 1.5 -->
        <g transform="translate(20.878125 144.398844) scale(0.1 -0.1)">
         <use xlink:href="#DejaVuSans-31"/>
         <use xlink:href="#DejaVuSans-2e" x="63.623047"/>
         <use xlink:href="#DejaVuSans-35" x="95.410156"/>
        </g>
       </g>
      </g>
      <g id="ytick_5">
       <g id="line2d_7">
        <g>
         <use xlink:href="#mfc959bda26" x="43.78125" y="81.458875" style="stroke: #000000; stroke-width: 0.8"/>
        </g>
       </g>
       <g id="text_7">
        <!-- 2.0 -->
        <g transform="translate(20.878125 85.258094) scale(0.1 -0.1)">
         <defs>
          <path id="DejaVuSans-32" d="M 1228 531 
L 3431 531 
L 3431 0 
L 469 0 
L 469 531 
Q 828 903 1448 1529 
Q 2069 2156 2228 2338 
Q 2531 2678 2651 2914 
Q 2772 3150 2772 3378 
Q 2772 3750 2511 3984 
Q 2250 4219 1831 4219 
Q 1534 4219 1204 4116 
Q 875 4013 500 3803 
L 500 4441 
Q 881 4594 1212 4672 
Q 1544 4750 1819 4750 
Q 2544 4750 2975 4387 
Q 3406 4025 3406 3419 
Q 3406 3131 3298 2873 
Q 3191 2616 2906 2266 
Q 2828 2175 2409 1742 
Q 1991 1309 1228 531 
z
" transform="scale(0.015625)"/>
         </defs>
         <use xlink:href="#DejaVuSans-32"/>
         <use xlink:href="#DejaVuSans-2e" x="63.623047"/>
         <use xlink:href="#DejaVuSans-30" x="95.410156"/>
        </g>
       </g>
      </g>
      <g id="ytick_6">
       <g id="line2d_8">
        <g>
         <use xlink:href="#mfc959bda26" x="43.78125" y="22.318125" style="stroke: #000000; stroke-width: 0.8"/>
        </g>
       </g>
       <g id="text_8">
        <!-- 2.5 -->
        <g transform="translate(20.878125 26.117344) scale(0.1 -0.1)">
         <use xlink:href="#DejaVuSans-32"/>
         <use xlink:href="#DejaVuSans-2e" x="63.623047"/>
         <use xlink:href="#DejaVuSans-35" x="95.410156"/>
        </g>
       </g>
      </g>
      <g id="text_9">
       <!-- time ago (generations) -->
       <g transform="translate(14.798438 227.641094) rotate(-90) scale(0.1 -0.1)">
        <defs>
         <path id="DejaVuSans-74" d="M 1172 4494 
L 1172 3500 
L 2356 3500 
L 2356 3053 
L 1172 3053 
L 1172 1153 
Q 1172 725 1289 603 
Q 1406 481 1766 481 
L 2356 481 
L 2356 0 
L 1766 0 
Q 1100 0 847 248 
Q 594 497 594 1153 
L 594 3053 
L 172 3053 
L 172 3500 
L 594 3500 
L 594 4494 
L 1172 4494 
z
" transform="scale(0.015625)"/>
         <path id="DejaVuSans-69" d="M 603 3500 
L 1178 3500 
L 1178 0 
L 603 0 
L 603 3500 
z
M 603 4863 
L 1178 4863 
L 1178 4134 
L 603 4134 
L 603 4863 
z
" transform="scale(0.015625)"/>
         <path id="DejaVuSans-20" transform="scale(0.015625)"/>
         <path id="DejaVuSans-61" d="M 2194 1759 
Q 1497 1759 1228 1600 
Q 959 1441 959 1056 
Q 959 750 1161 570 
Q 1363 391 1709 391 
Q 2188 391 2477 730 
Q 2766 1069 2766 1631 
L 2766 1759 
L 2194 1759 
z
M 3341 1997 
L 3341 0 
L 2766 0 
L 2766 531 
Q 2569 213 2275 61 
Q 1981 -91 1556 -91 
Q 1019 -91 701 211 
Q 384 513 384 1019 
Q 384 1609 779 1909 
Q 1175 2209 1959 2209 
L 2766 2209 
L 2766 2266 
Q 2766 2663 2505 2880 
Q 2244 3097 1772 3097 
Q 1472 3097 1187 3025 
Q 903 2953 641 2809 
L 641 3341 
Q 956 3463 1253 3523 
Q 1550 3584 1831 3584 
Q 2591 3584 2966 3190 
Q 3341 2797 3341 1997 
z
" transform="scale(0.015625)"/>
         <path id="DejaVuSans-67" d="M 2906 1791 
Q 2906 2416 2648 2759 
Q 2391 3103 1925 3103 
Q 1463 3103 1205 2759 
Q 947 2416 947 1791 
Q 947 1169 1205 825 
Q 1463 481 1925 481 
Q 2391 481 2648 825 
Q 2906 1169 2906 1791 
z
M 3481 434 
Q 3481 -459 3084 -895 
Q 2688 -1331 1869 -1331 
Q 1566 -1331 1297 -1286 
Q 1028 -1241 775 -1147 
L 775 -588 
Q 1028 -725 1275 -790 
Q 1522 -856 1778 -856 
Q 2344 -856 2625 -561 
Q 2906 -266 2906 331 
L 2906 616 
Q 2728 306 2450 153 
Q 2172 0 1784 0 
Q 1141 0 747 490 
Q 353 981 353 1791 
Q 353 2603 747 3093 
Q 1141 3584 1784 3584 
Q 2172 3584 2450 3431 
Q 2728 3278 2906 2969 
L 2906 3500 
L 3481 3500 
L 3481 434 
z
" transform="scale(0.015625)"/>
         <path id="DejaVuSans-6f" d="M 1959 3097 
Q 1497 3097 1228 2736 
Q 959 2375 959 1747 
Q 959 1119 1226 758 
Q 1494 397 1959 397 
Q 2419 397 2687 759 
Q 2956 1122 2956 1747 
Q 2956 2369 2687 2733 
Q 2419 3097 1959 3097 
z
M 1959 3584 
Q 2709 3584 3137 3096 
Q 3566 2609 3566 1747 
Q 3566 888 3137 398 
Q 2709 -91 1959 -91 
Q 1206 -91 779 398 
Q 353 888 353 1747 
Q 353 2609 779 3096 
Q 1206 3584 1959 3584 
z
" transform="scale(0.015625)"/>
         <path id="DejaVuSans-28" d="M 1984 4856 
Q 1566 4138 1362 3434 
Q 1159 2731 1159 2009 
Q 1159 1288 1364 580 
Q 1569 -128 1984 -844 
L 1484 -844 
Q 1016 -109 783 600 
Q 550 1309 550 2009 
Q 550 2706 781 3412 
Q 1013 4119 1484 4856 
L 1984 4856 
z
" transform="scale(0.015625)"/>
         <path id="DejaVuSans-6e" d="M 3513 2113 
L 3513 0 
L 2938 0 
L 2938 2094 
Q 2938 2591 2744 2837 
Q 2550 3084 2163 3084 
Q 1697 3084 1428 2787 
Q 1159 2491 1159 1978 
L 1159 0 
L 581 0 
L 581 3500 
L 1159 3500 
L 1159 2956 
Q 1366 3272 1645 3428 
Q 1925 3584 2291 3584 
Q 2894 3584 3203 3211 
Q 3513 2838 3513 2113 
z
" transform="scale(0.015625)"/>
         <path id="DejaVuSans-72" d="M 2631 2963 
Q 2534 3019 2420 3045 
Q 2306 3072 2169 3072 
Q 1681 3072 1420 2755 
Q 1159 2438 1159 1844 
L 1159 0 
L 581 0 
L 581 3500 
L 1159 3500 
L 1159 2956 
Q 1341 3275 1631 3429 
Q 1922 3584 2338 3584 
Q 2397 3584 2469 3576 
Q 2541 3569 2628 3553 
L 2631 2963 
z
" transform="scale(0.015625)"/>
         <path id="DejaVuSans-73" d="M 2834 3397 
L 2834 2853 
Q 2591 2978 2328 3040 
Q 2066 3103 1784 3103 
Q 1356 3103 1142 2972 
Q 928 2841 928 2578 
Q 928 2378 1081 2264 
Q 1234 2150 1697 2047 
L 1894 2003 
Q 2506 1872 2764 1633 
Q 3022 1394 3022 966 
Q 3022 478 2636 193 
Q 2250 -91 1575 -91 
Q 1294 -91 989 -36 
Q 684 19 347 128 
L 347 722 
Q 666 556 975 473 
Q 1284 391 1588 391 
Q 1994 391 2212 530 
Q 2431 669 2431 922 
Q 2431 1156 2273 1281 
Q 2116 1406 1581 1522 
L 1381 1569 
Q 847 1681 609 1914 
Q 372 2147 372 2553 
Q 372 3047 722 3315 
Q 1072 3584 1716 3584 
Q 2034 3584 2315 3537 
Q 2597 3491 2834 3397 
z
" transform="scale(0.015625)"/>
         <path id="DejaVuSans-29" d="M 513 4856 
L 1013 4856 
Q 1481 4119 1714 3412 
Q 1947 2706 1947 2009 
Q 1947 1309 1714 600 
Q 1481 -109 1013 -844 
L 513 -844 
Q 928 -128 1133 580 
Q 1338 1288 1338 2009 
Q 1338 2731 1133 3434 
Q 928 4138 513 4856 
z
" transform="scale(0.015625)"/>
        </defs>
        <use xlink:href="#DejaVuSans-74"/>
        <use xlink:href="#DejaVuSans-69" x="39.208984"/>
        <use xlink:href="#DejaVuSans-6d" x="66.992188"/>
        <use xlink:href="#DejaVuSans-65" x="164.404297"/>
        <use xlink:href="#DejaVuSans-20" x="225.927734"/>
        <use xlink:href="#DejaVuSans-61" x="257.714844"/>
        <use xlink:href="#DejaVuSans-67" x="318.994141"/>
        <use xlink:href="#DejaVuSans-6f" x="382.470703"/>
        <use xlink:href="#DejaVuSans-20" x="443.652344"/>
        <use xlink:href="#DejaVuSans-28" x="475.439453"/>
        <use xlink:href="#DejaVuSans-67" x="514.453125"/>
        <use xlink:href="#DejaVuSans-65" x="577.929688"/>
        <use xlink:href="#DejaVuSans-6e" x="639.453125"/>
        <use xlink:href="#DejaVuSans-65" x="702.832031"/>
        <use xlink:href="#DejaVuSans-72" x="764.355469"/>
        <use xlink:href="#DejaVuSans-61" x="805.46875"/>
        <use xlink:href="#DejaVuSans-74" x="866.748047"/>
        <use xlink:href="#DejaVuSans-69" x="905.957031"/>
        <use xlink:href="#DejaVuSans-6f" x="933.740234"/>
        <use xlink:href="#DejaVuSans-6e" x="994.921875"/>
        <use xlink:href="#DejaVuSans-73" x="1058.300781"/>
        <use xlink:href="#DejaVuSans-29" x="1110.400391"/>
       </g>
      </g>
     </g>
     <path d="M 289.077717 160.049889 
L 291.077717 161.049889 
L 291.077717 159.049889 
z
" clip-path="url(#p118d0508f3)" style="fill: #ff7f0e; fill-opacity: 0.5; stroke: #ff7f0e; stroke-opacity: 0.5; stroke-linejoin: miter"/>
     <path d="M 289.077717 147.566867 
L 291.077717 148.566867 
L 291.077717 146.566867 
z
" clip-path="url(#p118d0508f3)" style="fill: #ff7f0e; fill-opacity: 0.5; stroke: #ff7f0e; stroke-opacity: 0.5; stroke-linejoin: miter"/>
     <path d="M 289.077717 108.83477 
L 291.077717 109.83477 
L 291.077717 107.83477 
z
" clip-path="url(#p118d0508f3)" style="fill: #ff7f0e; fill-opacity: 0.5; stroke: #ff7f0e; stroke-opacity: 0.5; stroke-linejoin: miter"/>
     <path d="M 289.077717 83.203736 
L 291.077717 84.203736 
L 291.077717 82.203736 
z
" clip-path="url(#p118d0508f3)" style="fill: #ff7f0e; fill-opacity: 0.5; stroke: #ff7f0e; stroke-opacity: 0.5; stroke-linejoin: miter"/>
     <path d="M 289.077717 97.552519 
L 291.077717 98.552519 
L 291.077717 96.552519 
z
" clip-path="url(#p118d0508f3)" style="fill: #ff7f0e; fill-opacity: 0.5; stroke: #ff7f0e; stroke-opacity: 0.5; stroke-linejoin: miter"/>
     <path d="M 289.077717 88.280123 
L 291.077717 89.280123 
L 291.077717 87.280123 
z
" clip-path="url(#p118d0508f3)" style="fill: #ff7f0e; fill-opacity: 0.5; stroke: #ff7f0e; stroke-opacity: 0.5; stroke-linejoin: miter"/>
     <path d="M 289.077717 129.588041 
L 291.077717 130.588041 
L 291.077717 128.588041 
z
" clip-path="url(#p118d0508f3)" style="fill: #ff7f0e; fill-opacity: 0.5; stroke: #ff7f0e; stroke-opacity: 0.5; stroke-linejoin: miter"/>
     <path d="M 289.077717 199.123281 
L 291.077717 200.123281 
L 291.077717 198.123281 
z
" clip-path="url(#p118d0508f3)" style="fill: #ff7f0e; fill-opacity: 0.5; stroke: #ff7f0e; stroke-opacity: 0.5; stroke-linejoin: miter"/>
     <path d="M 289.077717 111.56322 
L 291.077717 112.56322 
L 291.077717 110.56322 
z
" clip-path="url(#p118d0508f3)" style="fill: #ff7f0e; fill-opacity: 0.5; stroke: #ff7f0e; stroke-opacity: 0.5; stroke-linejoin: miter"/>
     <path d="M 289.077717 155.845767 
L 291.077717 156.845767 
L 291.077717 154.845767 
z
" clip-path="url(#p118d0508f3)" style="fill: #ff7f0e; fill-opacity: 0.5; stroke: #ff7f0e; stroke-opacity: 0.5; stroke-linejoin: miter"/>
     <path d="M 354.703533 182.981277 
L 352.703533 181.981277 
L 352.703533 183.981277 
z
" clip-path="url(#p118d0508f3)" style="fill: #1f77b4; fill-opacity: 0.5; stroke: #1f77b4; stroke-opacity: 0.5; stroke-linejoin: miter"/>
     <path d="M 354.703533 169.775864 
L 352.703533 168.775864 
L 352.703533 170.775864 
z
" clip-path="url(#p118d0508f3)" style="fill: #1f77b4; fill-opacity: 0.5; stroke: #1f77b4; stroke-opacity: 0.5; stroke-linejoin: miter"/>
     <path d="M 354.703533 169.521529 
L 352.703533 168.521529 
L 352.703533 170.521529 
z
" clip-path="url(#p118d0508f3)" style="fill: #1f77b4; fill-opacity: 0.5; stroke: #1f77b4; stroke-opacity: 0.5; stroke-linejoin: miter"/>
     <path d="M 354.703533 159.814079 
L 352.703533 158.814079 
L 352.703533 160.814079 
z
" clip-path="url(#p118d0508f3)" style="fill: #1f77b4; fill-opacity: 0.5; stroke: #1f77b4; stroke-opacity: 0.5; stroke-linejoin: miter"/>
     <path d="M 354.703533 81.541625 
L 352.703533 80.541625 
L 352.703533 82.541625 
z
" clip-path="url(#p118d0508f3)" style="fill: #1f77b4; fill-opacity: 0.5; stroke: #1f77b4; stroke-opacity: 0.5; stroke-linejoin: miter"/>
     <path d="M 354.703533 118.575579 
L 352.703533 117.575579 
L 352.703533 119.575579 
z
" clip-path="url(#p118d0508f3)" style="fill: #1f77b4; fill-opacity: 0.5; stroke: #1f77b4; stroke-opacity: 0.5; stroke-linejoin: miter"/>
     <path d="M 354.703533 86.424074 
L 352.703533 85.424074 
L 352.703533 87.424074 
z
" clip-path="url(#p118d0508f3)" style="fill: #1f77b4; fill-opacity: 0.5; stroke: #1f77b4; stroke-opacity: 0.5; stroke-linejoin: miter"/>
     <path d="M 354.703533 164.528928 
L 352.703533 163.528928 
L 352.703533 165.528928 
z
" clip-path="url(#p118d0508f3)" style="fill: #1f77b4; fill-opacity: 0.5; stroke: #1f77b4; stroke-opacity: 0.5; stroke-linejoin: miter"/>
     <path d="M 354.703533 154.514801 
L 352.703533 153.514801 
L 352.703533 155.514801 
z
" clip-path="url(#p118d0508f3)" style="fill: #1f77b4; fill-opacity: 0.5; stroke: #1f77b4; stroke-opacity: 0.5; stroke-linejoin: miter"/>
     <path d="M 354.703533 157.942933 
L 352.703533 156.942933 
L 352.703533 158.942933 
z
" clip-path="url(#p118d0508f3)" style="fill: #1f77b4; fill-opacity: 0.5; stroke: #1f77b4; stroke-opacity: 0.5; stroke-linejoin: miter"/>
     <path d="M 289.077717 291.237129 
L 291.077717 292.237129 
L 291.077717 290.237129 
z
" clip-path="url(#p118d0508f3)" style="fill: #ff7f0e; fill-opacity: 0.5; stroke: #ff7f0e; stroke-opacity: 0.5; stroke-linejoin: miter"/>
     <path d="M 289.077717 262.452192 
L 291.077717 263.452192 
L 291.077717 261.452192 
z
" clip-path="url(#p118d0508f3)" style="fill: #ff7f0e; fill-opacity: 0.5; stroke: #ff7f0e; stroke-opacity: 0.5; stroke-linejoin: miter"/>
     <path d="M 289.077717 208.006734 
L 291.077717 209.006734 
L 291.077717 207.006734 
z
" clip-path="url(#p118d0508f3)" style="fill: #ff7f0e; fill-opacity: 0.5; stroke: #ff7f0e; stroke-opacity: 0.5; stroke-linejoin: miter"/>
     <path d="M 289.077717 296.395267 
L 291.077717 297.395267 
L 291.077717 295.395267 
z
" clip-path="url(#p118d0508f3)" style="fill: #ff7f0e; fill-opacity: 0.5; stroke: #ff7f0e; stroke-opacity: 0.5; stroke-linejoin: miter"/>
     <path d="M 289.077717 285.219136 
L 291.077717 286.219136 
L 291.077717 284.219136 
z
" clip-path="url(#p118d0508f3)" style="fill: #ff7f0e; fill-opacity: 0.5; stroke: #ff7f0e; stroke-opacity: 0.5; stroke-linejoin: miter"/>
     <path d="M 289.077717 232.952415 
L 291.077717 233.952415 
L 291.077717 231.952415 
z
" clip-path="url(#p118d0508f3)" style="fill: #ff7f0e; fill-opacity: 0.5; stroke: #ff7f0e; stroke-opacity: 0.5; stroke-linejoin: miter"/>
     <path d="M 289.077717 260.729532 
L 291.077717 261.729532 
L 291.077717 259.729532 
z
" clip-path="url(#p118d0508f3)" style="fill: #ff7f0e; fill-opacity: 0.5; stroke: #ff7f0e; stroke-opacity: 0.5; stroke-linejoin: miter"/>
     <path d="M 289.077717 281.160371 
L 291.077717 282.160371 
L 291.077717 280.160371 
z
" clip-path="url(#p118d0508f3)" style="fill: #ff7f0e; fill-opacity: 0.5; stroke: #ff7f0e; stroke-opacity: 0.5; stroke-linejoin: miter"/>
     <path d="M 289.077717 311.317896 
L 291.077717 312.317896 
L 291.077717 310.317896 
z
" clip-path="url(#p118d0508f3)" style="fill: #ff7f0e; fill-opacity: 0.5; stroke: #ff7f0e; stroke-opacity: 0.5; stroke-linejoin: miter"/>
     <path d="M 289.077717 251.91935 
L 291.077717 252.91935 
L 291.077717 250.91935 
z
" clip-path="url(#p118d0508f3)" style="fill: #ff7f0e; fill-opacity: 0.5; stroke: #ff7f0e; stroke-opacity: 0.5; stroke-linejoin: miter"/>
     <path d="M 354.703533 235.76123 
L 352.703533 234.76123 
L 352.703533 236.76123 
z
" clip-path="url(#p118d0508f3)" style="fill: #1f77b4; fill-opacity: 0.5; stroke: #1f77b4; stroke-opacity: 0.5; stroke-linejoin: miter"/>
     <path d="M 354.703533 217.321994 
L 352.703533 216.321994 
L 352.703533 218.321994 
z
" clip-path="url(#p118d0508f3)" style="fill: #1f77b4; fill-opacity: 0.5; stroke: #1f77b4; stroke-opacity: 0.5; stroke-linejoin: miter"/>
     <path d="M 354.703533 228.208848 
L 352.703533 227.208848 
L 352.703533 229.208848 
z
" clip-path="url(#p118d0508f3)" style="fill: #1f77b4; fill-opacity: 0.5; stroke: #1f77b4; stroke-opacity: 0.5; stroke-linejoin: miter"/>
     <path d="M 354.703533 252.800143 
L 352.703533 251.800143 
L 352.703533 253.800143 
z
" clip-path="url(#p118d0508f3)" style="fill: #1f77b4; fill-opacity: 0.5; stroke: #1f77b4; stroke-opacity: 0.5; stroke-linejoin: miter"/>
     <path d="M 354.703533 317.507436 
L 352.703533 316.507436 
L 352.703533 318.507436 
z
" clip-path="url(#p118d0508f3)" style="fill: #1f77b4; fill-opacity: 0.5; stroke: #1f77b4; stroke-opacity: 0.5; stroke-linejoin: miter"/>
     <path d="M 354.703533 247.82106 
L 352.703533 246.82106 
L 352.703533 248.82106 
z
" clip-path="url(#p118d0508f3)" style="fill: #1f77b4; fill-opacity: 0.5; stroke: #1f77b4; stroke-opacity: 0.5; stroke-linejoin: miter"/>
     <path d="M 354.703533 296.300463 
L 352.703533 295.300463 
L 352.703533 297.300463 
z
" clip-path="url(#p118d0508f3)" style="fill: #1f77b4; fill-opacity: 0.5; stroke: #1f77b4; stroke-opacity: 0.5; stroke-linejoin: miter"/>
     <path d="M 354.703533 215.609708 
L 352.703533 214.609708 
L 352.703533 216.609708 
z
" clip-path="url(#p118d0508f3)" style="fill: #1f77b4; fill-opacity: 0.5; stroke: #1f77b4; stroke-opacity: 0.5; stroke-linejoin: miter"/>
     <path d="M 354.703533 297.22428 
L 352.703533 296.22428 
L 352.703533 298.22428 
z
" clip-path="url(#p118d0508f3)" style="fill: #1f77b4; fill-opacity: 0.5; stroke: #1f77b4; stroke-opacity: 0.5; stroke-linejoin: miter"/>
     <path d="M 354.703533 281.485847 
L 352.703533 280.485847 
L 352.703533 282.485847 
z
" clip-path="url(#p118d0508f3)" style="fill: #1f77b4; fill-opacity: 0.5; stroke: #1f77b4; stroke-opacity: 0.5; stroke-linejoin: miter"/>
     <g id="patch_5">
      <path d="M 43.78125 318.021875 
L 43.78125 22.318125 
" style="fill: none; stroke: #000000; stroke-width: 0.8; stroke-linejoin: miter; stroke-linecap: square"/>
     </g>
     <g id="text_10">
      <!-- defaults_symmetric_migration_changing_rate.yaml -->
      <g transform="translate(168.3525 16.318125) scale(0.12 -0.12)">
       <defs>
        <path id="DejaVuSans-66" d="M 2375 4863 
L 2375 4384 
L 1825 4384 
Q 1516 4384 1395 4259 
Q 1275 4134 1275 3809 
L 1275 3500 
L 2222 3500 
L 2222 3053 
L 1275 3053 
L 1275 0 
L 697 0 
L 697 3053 
L 147 3053 
L 147 3500 
L 697 3500 
L 697 3744 
Q 697 4328 969 4595 
Q 1241 4863 1831 4863 
L 2375 4863 
z
" transform="scale(0.015625)"/>
        <path id="DejaVuSans-75" d="M 544 1381 
L 544 3500 
L 1119 3500 
L 1119 1403 
Q 1119 906 1312 657 
Q 1506 409 1894 409 
Q 2359 409 2629 706 
Q 2900 1003 2900 1516 
L 2900 3500 
L 3475 3500 
L 3475 0 
L 2900 0 
L 2900 538 
Q 2691 219 2414 64 
Q 2138 -91 1772 -91 
Q 1169 -91 856 284 
Q 544 659 544 1381 
z
M 1991 3584 
L 1991 3584 
z
" transform="scale(0.015625)"/>
        <path id="DejaVuSans-6c" d="M 603 4863 
L 1178 4863 
L 1178 0 
L 603 0 
L 603 4863 
z
" transform="scale(0.015625)"/>
        <path id="DejaVuSans-5f" d="M 3263 -1063 
L 3263 -1509 
L -63 -1509 
L -63 -1063 
L 3263 -1063 
z
" transform="scale(0.015625)"/>
        <path id="DejaVuSans-79" d="M 2059 -325 
Q 1816 -950 1584 -1140 
Q 1353 -1331 966 -1331 
L 506 -1331 
L 506 -850 
L 844 -850 
Q 1081 -850 1212 -737 
Q 1344 -625 1503 -206 
L 1606 56 
L 191 3500 
L 800 3500 
L 1894 763 
L 2988 3500 
L 3597 3500 
L 2059 -325 
z
" transform="scale(0.015625)"/>
        <path id="DejaVuSans-63" d="M 3122 3366 
L 3122 2828 
Q 2878 2963 2633 3030 
Q 2388 3097 2138 3097 
Q 1578 3097 1268 2742 
Q 959 2388 959 1747 
Q 959 1106 1268 751 
Q 1578 397 2138 397 
Q 2388 397 2633 464 
Q 2878 531 3122 666 
L 3122 134 
Q 2881 22 2623 -34 
Q 2366 -91 2075 -91 
Q 1284 -91 818 406 
Q 353 903 353 1747 
Q 353 2603 823 3093 
Q 1294 3584 2113 3584 
Q 2378 3584 2631 3529 
Q 2884 3475 3122 3366 
z
" transform="scale(0.015625)"/>
        <path id="DejaVuSans-68" d="M 3513 2113 
L 3513 0 
L 2938 0 
L 2938 2094 
Q 2938 2591 2744 2837 
Q 2550 3084 2163 3084 
Q 1697 3084 1428 2787 
Q 1159 2491 1159 1978 
L 1159 0 
L 581 0 
L 581 4863 
L 1159 4863 
L 1159 2956 
Q 1366 3272 1645 3428 
Q 1925 3584 2291 3584 
Q 2894 3584 3203 3211 
Q 3513 2838 3513 2113 
z
" transform="scale(0.015625)"/>
       </defs>
       <use xlink:href="#DejaVuSans-64"/>
       <use xlink:href="#DejaVuSans-65" x="63.476562"/>
       <use xlink:href="#DejaVuSans-66" x="125"/>
       <use xlink:href="#DejaVuSans-61" x="160.205078"/>
       <use xlink:href="#DejaVuSans-75" x="221.484375"/>
       <use xlink:href="#DejaVuSans-6c" x="284.863281"/>
       <use xlink:href="#DejaVuSans-74" x="312.646484"/>
       <use xlink:href="#DejaVuSans-73" x="351.855469"/>
       <use xlink:href="#DejaVuSans-5f" x="403.955078"/>
       <use xlink:href="#DejaVuSans-73" x="453.955078"/>
       <use xlink:href="#DejaVuSans-79" x="506.054688"/>
       <use xlink:href="#DejaVuSans-6d" x="565.234375"/>
       <use xlink:href="#DejaVuSans-6d" x="662.646484"/>
       <use xlink:href="#DejaVuSans-65" x="760.058594"/>
       <use xlink:href="#DejaVuSans-74" x="821.582031"/>
       <use xlink:href="#DejaVuSans-72" x="860.791016"/>
       <use xlink:href="#DejaVuSans-69" x="901.904297"/>
       <use xlink:href="#DejaVuSans-63" x="929.6875"/>
       <use xlink:href="#DejaVuSans-5f" x="984.667969"/>
       <use xlink:href="#DejaVuSans-6d" x="1034.667969"/>
       <use xlink:href="#DejaVuSans-69" x="1132.080078"/>
       <use xlink:href="#DejaVuSans-67" x="1159.863281"/>
       <use xlink:href="#DejaVuSans-72" x="1223.339844"/>
       <use xlink:href="#DejaVuSans-61" x="1264.453125"/>
       <use xlink:href="#DejaVuSans-74" x="1325.732422"/>
       <use xlink:href="#DejaVuSans-69" x="1364.941406"/>
       <use xlink:href="#DejaVuSans-6f" x="1392.724609"/>
       <use xlink:href="#DejaVuSans-6e" x="1453.90625"/>
       <use xlink:href="#DejaVuSans-5f" x="1517.285156"/>
       <use xlink:href="#DejaVuSans-63" x="1567.285156"/>
       <use xlink:href="#DejaVuSans-68" x="1622.265625"/>
       <use xlink:href="#DejaVuSans-61" x="1685.644531"/>
       <use xlink:href="#DejaVuSans-6e" x="1746.923828"/>
       <use xlink:href="#DejaVuSans-67" x="1810.302734"/>
       <use xlink:href="#DejaVuSans-69" x="1873.779297"/>
       <use xlink:href="#DejaVuSans-6e" x="1901.5625"/>
       <use xlink:href="#DejaVuSans-67" x="1964.941406"/>
       <use xlink:href="#DejaVuSans-5f" x="2028.417969"/>
       <use xlink:href="#DejaVuSans-72" x="2078.417969"/>
       <use xlink:href="#DejaVuSans-61" x="2119.53125"/>
       <use xlink:href="#DejaVuSans-74" x="2180.810547"/>
       <use xlink:href="#DejaVuSans-65" x="2220.019531"/>
       <use xlink:href="#DejaVuSans-2e" x="2281.542969"/>
       <use xlink:href="#DejaVuSans-79" x="2313.330078"/>
       <use xlink:href="#DejaVuSans-61" x="2372.509766"/>
       <use xlink:href="#DejaVuSans-6d" x="2433.789062"/>
       <use xlink:href="#DejaVuSans-6c" x="2531.201172"/>
      </g>
     </g>
    </g>
   </g>
   <defs>
    <clipPath id="p118d0508f3">
     <rect x="43.78125" y="22.318125" width="556.21875" height="295.70375"/>
    </clipPath>
   </defs>
  </g>
 </g>
</svg>