<?xml version="1.0" encoding="utf-8" standalone="no"?>
<!DOCTYPE svg PUBLIC "-//W3C//DTD SVG 1.1//EN"
  "http://www.w3.org/Graphics/SVG/1.1/DTD/svg11.dtd">
<svg xmlns:xlink="http://www.w3.org/1999/xlink" width="607.2pt" height="338.4pt" viewBox="0 0 607.2 338.4" xmlns="http://www.w3.org/2000/svg" version="1.1">
 <metadata>
  <rdf:RDF xmlns:dc="http://purl.org/dc/elements/1.1/" xmlns:cc="http://creativecommons.org/ns#" xmlns:rdf="http://www.w3.org/1999/02/22-rdf-syntax-ns#">
   <cc:Work>
    <dc:type rdf:resource="http://purl.org/dc/dcmitype/StillImage"/>
    <dc:date>2026-01-12T09:56:28.709804</dc:date>
    <dc:format>image/svg+xml</dc:format>
    <dc:creator>
     <cc:Agent>
      <dc:title>Matplotlib v3.10.8, https://matplotlib.org/</dc:title>
     </cc:Agent>
    </dc:creator>
   </cc:Work>
  </rdf:RDF>
 </metadata>
 <defs>
  <style type="text/css">*{stroke-linejoin: round; stroke-linecap: butt}</style>
 </defs>
 <g id="figure_1">
  <g id="patch_1">
   <path d="M 0 338.4 
L 607.2 338.4 
L 607.2 0 
L 0 0 
z
" style="fill: #ffffff"/>
  </g>
  <g id="axes_1">
   <g id="patch_2">
    <path d="M 46.965625 318.021875 
L 600 318.021875 
L 600 22.318125 
L 46.965625 22.318125 
z
" style="fill: #ffffff"/>
   </g>
   <g id="line2d_1">
    <path d="M 200.299442 103.013836 
L 201.299442 103.045272 
L 202.299442 103.082213 
L 203.299442 103.179959 
L 204.299442 103.212481 
L 205.299442 103.286105 
L 206.299442 103.324671 
L 207.299442 103.360084 
L 208.299442 103.417724 
L 209.299442 103.48811 
L 210.299442 103.540074 
L 211.299442 103.599164 
L 212.299442 103.687485 
L 213.299442 103.733629 
L 214.299442 103.77604 
L 215.299442 103.806533 
L 216.299442 103.832578 
L 217.299442 103.853778 
L 218.299442 103.908079 
L 219.299442 103.936017 
L 220.299442 103.965741 
L 221.299442 103.991136 
L 222.299442 104.002336 
L 223.299442 104.01246 
L 224.299442 104.012256 
L 225.299442 104.002746 
L 226.299442 103.991092 
L 227.299442 103.960063 
L 228.299442 103.948895 
L 229.299442 103.918777 
L 230.299442 103.859 
L 231.299442 103.821809 
L 232.299442 103.782713 
L 233.299442 103.740273 
L 234.299442 103.707508 
L 235.299442 103.640082 
L 236.299442 103.600956 
L 237.299442 103.558281 
L 238.299442 103.487701 
L 239.299442 103.45131 
L 240.299442 103.392907 
L 241.299442 103.281954 
L 242.299442 103.211296 
L 243.299442 103.098356 
L 244.299442 103.052583 
L 245.299442 102.9913 
L 246.299442 102.9428 
L 247.299442 102.861978 
L 248.299442 102.743459 
L 249.299442 102.673248 
L 250.299442 102.589986 
L 251.299442 102.556844 
L 252.299442 102.505607 
L 253.299442 102.437208 
L 254.299442 102.370993 
L 255.299442 102.294076 
L 256.619695 102.26676 
" clip-path="url(#p809c149dc3)" style="fill: none; stroke: #1f77b4; stroke-opacity: 0.5; stroke-width: 0.2; stroke-linecap: square"/>
   </g>
   <g id="line2d_2">
    <path d="M 200.299442 216.101043 
L 201.299442 216.13248 
L 202.299442 216.16942 
L 203.299442 216.267167 
L 204.299442 216.299688 
L 205.299442 216.373313 
L 206.299442 216.411879 
L 207.299442 216.447292 
L 208.299442 216.504932 
L 209.299442 216.575318 
L 210.299442 216.627282 
L 211.299442 216.686372 
L 212.299442 216.774693 
L 213.299442 216.820837 
L 214.299442 216.863248 
L 215.299442 216.893741 
L 216.299442 216.919786 
L 217.299442 216.940986 
L 218.299442 216.995287 
L 219.299442 217.023224 
L 220.299442 217.052948 
L 221.299442 217.078343 
L 222.299442 217.089544 
L 223.299442 217.099668 
L 224.299442 217.099463 
L 225.299442 217.089953 
L 226.299442 217.0783 
L 227.299442 217.047271 
L 228.299442 217.036103 
L 229.299442 217.005985 
L 230.299442 216.946208 
L 231.299442 216.909017 
L 232.299442 216.869921 
L 233.299442 216.827481 
L 234.299442 216.794716 
L 235.299442 216.727289 
L 236.299442 216.688163 
L 237.299442 216.645489 
L 238.299442 216.574908 
L 239.299442 216.538517 
L 240.299442 216.480114 
L 241.299442 216.369162 
L 242.299442 216.298503 
L 243.299442 216.185563 
L 244.299442 216.139791 
L 245.299442 216.078507 
L 246.299442 216.030008 
L 247.299442 215.949185 
L 248.299442 215.830666 
L 249.299442 215.760456 
L 250.299442 215.677193 
L 251.299442 215.644052 
L 252.299442 215.592814 
L 253.299442 215.524416 
L 254.299442 215.4582 
L 255.299442 215.381283 
L 256.619695 215.353968 
" clip-path="url(#p809c149dc3)" style="fill: none; stroke: #1f77b4; stroke-opacity: 0.5; stroke-width: 0.2; stroke-linecap: square"/>
   </g>
   <g id="line2d_3">
    <path d="M 200.299442 172.577246 
L 201.299442 172.608682 
L 202.299442 172.645622 
L 203.299442 172.743369 
L 204.299442 172.775891 
L 205.299442 172.849515 
L 206.299442 172.888081 
L 207.299442 172.923494 
L 208.299442 172.981134 
L 209.299442 173.05152 
L 210.299442 173.103484 
L 211.299442 173.162574 
L 212.299442 173.250895 
L 213.299442 173.297039 
L 214.299442 173.33945 
L 215.299442 173.369943 
L 216.299442 173.395988 
L 217.299442 173.417188 
L 218.299442 173.471489 
L 219.299442 173.499427 
L 220.299442 173.529151 
L 221.299442 173.554545 
L 222.299442 173.565746 
L 223.299442 173.57587 
L 224.299442 173.575665 
L 225.299442 173.566156 
L 226.299442 173.554502 
L 227.299442 173.523473 
L 228.299442 173.512305 
L 229.299442 173.482187 
L 230.299442 173.42241 
L 231.299442 173.385219 
L 232.299442 173.346123 
L 233.299442 173.303683 
L 234.299442 173.270918 
L 235.299442 173.203492 
L 236.299442 173.164366 
L 237.299442 173.121691 
L 238.299442 173.05111 
L 239.299442 173.01472 
L 240.299442 172.956316 
L 241.299442 172.845364 
L 242.299442 172.774706 
L 243.299442 172.661766 
L 244.299442 172.615993 
L 245.299442 172.55471 
L 246.299442 172.50621 
L 247.299442 172.425388 
L 248.299442 172.306869 
L 249.299442 172.236658 
L 250.299442 172.153396 
L 251.299442 172.120254 
L 252.299442 172.069016 
L 253.299442 172.000618 
L 254.299442 171.934403 
L 255.299442 171.857486 
L 256.619695 171.83017 
" clip-path="url(#p809c149dc3)" style="fill: none; stroke: #1f77b4; stroke-opacity: 0.5; stroke-width: 0.2; stroke-linecap: square"/>
   </g>
   <g id="line2d_4">
    <path d="M 200.299442 203.882947 
L 201.299442 203.914383 
L 202.299442 203.951324 
L 203.299442 204.04907 
L 204.299442 204.081592 
L 205.299442 204.155216 
L 206.299442 204.193782 
L 207.299442 204.229195 
L 208.299442 204.286835 
L 209.299442 204.357221 
L 210.299442 204.409185 
L 211.299442 204.468275 
L 212.299442 204.556596 
L 213.299442 204.602741 
L 214.299442 204.645151 
L 215.299442 204.675644 
L 216.299442 204.701689 
L 217.299442 204.722889 
L 218.299442 204.77719 
L 219.299442 204.805128 
L 220.299442 204.834852 
L 221.299442 204.860247 
L 222.299442 204.871447 
L 223.299442 204.881571 
L 224.299442 204.881367 
L 225.299442 204.871857 
L 226.299442 204.860203 
L 227.299442 204.829174 
L 228.299442 204.818006 
L 229.299442 204.787888 
L 230.299442 204.728112 
L 231.299442 204.69092 
L 232.299442 204.651824 
L 233.299442 204.609384 
L 234.299442 204.576619 
L 235.299442 204.509193 
L 236.299442 204.470067 
L 237.299442 204.427392 
L 238.299442 204.356812 
L 239.299442 204.320421 
L 240.299442 204.262018 
L 241.299442 204.151065 
L 242.299442 204.080407 
L 243.299442 203.967467 
L 244.299442 203.921694 
L 245.299442 203.860411 
L 246.299442 203.811911 
L 247.299442 203.731089 
L 248.299442 203.61257 
L 249.299442 203.542359 
L 250.299442 203.459097 
L 251.299442 203.425955 
L 252.299442 203.374718 
L 253.299442 203.306319 
L 254.299442 203.240104 
L 255.299442 203.163187 
L 256.619695 203.135871 
" clip-path="url(#p809c149dc3)" style="fill: none; stroke: #1f77b4; stroke-opacity: 0.5; stroke-width: 0.2; stroke-linecap: square"/>
   </g>
   <g id="line2d_5">
    <path d="M 200.299442 292.323482 
L 201.299442 292.354919 
L 202.299442 292.391859 
L 203.299442 292.489606 
L 204.299442 292.522127 
L 205.299442 292.595752 
L 206.299442 292.634318 
L 207.299442 292.669731 
L 208.299442 292.727371 
L 209.299442 292.797757 
L 210.299442 292.849721 
L 211.299442 292.908811 
L 212.299442 292.997132 
L 213.299442 293.043276 
L 214.299442 293.085687 
L 215.299442 293.11618 
L 216.299442 293.142225 
L 217.299442 293.163425 
L 218.299442 293.217726 
L 219.299442 293.245663 
L 220.299442 293.275387 
L 221.299442 293.300782 
L 222.299442 293.311983 
L 223.299442 293.322107 
L 224.299442 293.321902 
L 225.299442 293.312392 
L 226.299442 293.300739 
L 227.299442 293.269709 
L 228.299442 293.258542 
L 229.299442 293.228424 
L 230.299442 293.168647 
L 231.299442 293.131456 
L 232.299442 293.092359 
L 233.299442 293.04992 
L 234.299442 293.017155 
L 235.299442 292.949728 
L 236.299442 292.910602 
L 237.299442 292.867928 
L 238.299442 292.797347 
L 239.299442 292.760956 
L 240.299442 292.702553 
L 241.299442 292.591601 
L 242.299442 292.520942 
L 243.299442 292.408002 
L 244.299442 292.36223 
L 245.299442 292.300946 
L 246.299442 292.252447 
L 247.299442 292.171624 
L 248.299442 292.053105 
L 249.299442 291.982895 
L 250.299442 291.899632 
L 251.299442 291.866491 
L 252.299442 291.815253 
L 253.299442 291.746855 
L 254.299442 291.680639 
L 255.299442 291.603722 
L 256.619695 291.576407 
" clip-path="url(#p809c149dc3)" style="fill: none; stroke: #1f77b4; stroke-opacity: 0.5; stroke-width: 0.2; stroke-linecap: square"/>
   </g>
   <g id="line2d_6">
    <path d="M 200.299442 55.734407 
L 201.299442 55.765843 
L 202.299442 55.802784 
L 203.299442 55.90053 
L 204.299442 55.933052 
L 205.299442 56.006677 
L 206.299442 56.045242 
L 207.299442 56.080655 
L 208.299442 56.138295 
L 209.299442 56.208681 
L 210.299442 56.260646 
L 211.299442 56.319735 
L 212.299442 56.408056 
L 213.299442 56.454201 
L 214.299442 56.496612 
L 215.299442 56.527104 
L 216.299442 56.553149 
L 217.299442 56.574349 
L 218.299442 56.62865 
L 219.299442 56.656588 
L 220.299442 56.686312 
L 221.299442 56.711707 
L 222.299442 56.722907 
L 223.299442 56.733031 
L 224.299442 56.732827 
L 225.299442 56.723317 
L 226.299442 56.711663 
L 227.299442 56.680634 
L 228.299442 56.669466 
L 229.299442 56.639349 
L 230.299442 56.579572 
L 231.299442 56.54238 
L 232.299442 56.503284 
L 233.299442 56.460844 
L 234.299442 56.428079 
L 235.299442 56.360653 
L 236.299442 56.321527 
L 237.299442 56.278852 
L 238.299442 56.208272 
L 239.299442 56.171881 
L 240.299442 56.113478 
L 241.299442 56.002525 
L 242.299442 55.931867 
L 243.299442 55.818927 
L 244.299442 55.773154 
L 245.299442 55.711871 
L 246.299442 55.663372 
L 247.299442 55.582549 
L 248.299442 55.46403 
L 249.299442 55.393819 
L 250.299442 55.310557 
L 251.299442 55.277415 
L 252.299442 55.226178 
L 253.299442 55.157779 
L 254.299442 55.091564 
L 255.299442 55.014647 
L 256.619695 54.987331 
" clip-path="url(#p809c149dc3)" style="fill: none; stroke: #1f77b4; stroke-opacity: 0.5; stroke-width: 0.2; stroke-linecap: square"/>
   </g>
   <g id="line2d_7">
    <path d="M 200.299442 99.947277 
L 201.299442 99.978713 
L 202.299442 100.015653 
L 203.299442 100.1134 
L 204.299442 100.145922 
L 205.299442 100.219546 
L 206.299442 100.258112 
L 207.299442 100.293525 
L 208.299442 100.351165 
L 209.299442 100.421551 
L 210.299442 100.473515 
L 211.299442 100.532605 
L 212.299442 100.620926 
L 213.299442 100.66707 
L 214.299442 100.709481 
L 215.299442 100.739974 
L 216.299442 100.766019 
L 217.299442 100.787219 
L 218.299442 100.84152 
L 219.299442 100.869458 
L 220.299442 100.899182 
L 221.299442 100.924576 
L 222.299442 100.935777 
L 223.299442 100.945901 
L 224.299442 100.945696 
L 225.299442 100.936187 
L 226.299442 100.924533 
L 227.299442 100.893504 
L 228.299442 100.882336 
L 229.299442 100.852218 
L 230.299442 100.792441 
L 231.299442 100.75525 
L 232.299442 100.716154 
L 233.299442 100.673714 
L 234.299442 100.640949 
L 235.299442 100.573523 
L 236.299442 100.534397 
L 237.299442 100.491722 
L 238.299442 100.421141 
L 239.299442 100.384751 
L 240.299442 100.326347 
L 241.299442 100.215395 
L 242.299442 100.144737 
L 243.299442 100.031797 
L 244.299442 99.986024 
L 245.299442 99.924741 
L 246.299442 99.876241 
L 247.299442 99.795419 
L 248.299442 99.6769 
L 249.299442 99.606689 
L 250.299442 99.523427 
L 251.299442 99.490285 
L 252.299442 99.439047 
L 253.299442 99.370649 
L 254.299442 99.304434 
L 255.299442 99.227517 
L 256.619695 99.200201 
" clip-path="url(#p809c149dc3)" style="fill: none; stroke: #1f77b4; stroke-opacity: 0.5; stroke-width: 0.2; stroke-linecap: square"/>
   </g>
   <g id="line2d_8">
    <path d="M 200.299442 219.91589 
L 201.299442 219.947326 
L 202.299442 219.984266 
L 203.299442 220.082013 
L 204.299442 220.114535 
L 205.299442 220.188159 
L 206.299442 220.226725 
L 207.299442 220.262138 
L 208.299442 220.319778 
L 209.299442 220.390164 
L 210.299442 220.442128 
L 211.299442 220.501218 
L 212.299442 220.589539 
L 213.299442 220.635683 
L 214.299442 220.678094 
L 215.299442 220.708587 
L 216.299442 220.734632 
L 217.299442 220.755832 
L 218.299442 220.810133 
L 219.299442 220.838071 
L 220.299442 220.867795 
L 221.299442 220.893189 
L 222.299442 220.90439 
L 223.299442 220.914514 
L 224.299442 220.914309 
L 225.299442 220.9048 
L 226.299442 220.893146 
L 227.299442 220.862117 
L 228.299442 220.850949 
L 229.299442 220.820831 
L 230.299442 220.761054 
L 231.299442 220.723863 
L 232.299442 220.684767 
L 233.299442 220.642327 
L 234.299442 220.609562 
L 235.299442 220.542136 
L 236.299442 220.50301 
L 237.299442 220.460335 
L 238.299442 220.389755 
L 239.299442 220.353364 
L 240.299442 220.29496 
L 241.299442 220.184008 
L 242.299442 220.11335 
L 243.299442 220.00041 
L 244.299442 219.954637 
L 245.299442 219.893354 
L 246.299442 219.844854 
L 247.299442 219.764032 
L 248.299442 219.645513 
L 249.299442 219.575302 
L 250.299442 219.49204 
L 251.299442 219.458898 
L 252.299442 219.407661 
L 253.299442 219.339262 
L 254.299442 219.273047 
L 255.299442 219.19613 
L 256.619695 219.168814 
" clip-path="url(#p809c149dc3)" style="fill: none; stroke: #1f77b4; stroke-opacity: 0.5; stroke-width: 0.2; stroke-linecap: square"/>
   </g>
   <g id="line2d_9">
    <path d="M 200.299442 115.038206 
L 201.299442 115.069643 
L 202.299442 115.106583 
L 203.299442 115.204329 
L 204.299442 115.236851 
L 205.299442 115.310476 
L 206.299442 115.349041 
L 207.299442 115.384454 
L 208.299442 115.442094 
L 209.299442 115.512481 
L 210.299442 115.564445 
L 211.299442 115.623535 
L 212.299442 115.711856 
L 213.299442 115.758 
L 214.299442 115.800411 
L 215.299442 115.830903 
L 216.299442 115.856948 
L 217.299442 115.878149 
L 218.299442 115.93245 
L 219.299442 115.960387 
L 220.299442 115.990111 
L 221.299442 116.015506 
L 222.299442 116.026706 
L 223.299442 116.03683 
L 224.299442 116.036626 
L 225.299442 116.027116 
L 226.299442 116.015463 
L 227.299442 115.984433 
L 228.299442 115.973265 
L 229.299442 115.943148 
L 230.299442 115.883371 
L 231.299442 115.846179 
L 232.299442 115.807083 
L 233.299442 115.764644 
L 234.299442 115.731879 
L 235.299442 115.664452 
L 236.299442 115.625326 
L 237.299442 115.582652 
L 238.299442 115.512071 
L 239.299442 115.47568 
L 240.299442 115.417277 
L 241.299442 115.306324 
L 242.299442 115.235666 
L 243.299442 115.122726 
L 244.299442 115.076953 
L 245.299442 115.01567 
L 246.299442 114.967171 
L 247.299442 114.886348 
L 248.299442 114.767829 
L 249.299442 114.697619 
L 250.299442 114.614356 
L 251.299442 114.581214 
L 252.299442 114.529977 
L 253.299442 114.461579 
L 254.299442 114.395363 
L 255.299442 114.318446 
L 256.619695 114.291131 
" clip-path="url(#p809c149dc3)" style="fill: none; stroke: #1f77b4; stroke-opacity: 0.5; stroke-width: 0.2; stroke-linecap: square"/>
   </g>
   <g id="line2d_10">
    <path d="M 200.299442 207.929232 
L 201.299442 207.960669 
L 202.299442 207.997609 
L 203.299442 208.095355 
L 204.299442 208.127877 
L 205.299442 208.201502 
L 206.299442 208.240067 
L 207.299442 208.27548 
L 208.299442 208.33312 
L 209.299442 208.403507 
L 210.299442 208.455471 
L 211.299442 208.514561 
L 212.299442 208.602882 
L 213.299442 208.649026 
L 214.299442 208.691437 
L 215.299442 208.721929 
L 216.299442 208.747974 
L 217.299442 208.769174 
L 218.299442 208.823476 
L 219.299442 208.851413 
L 220.299442 208.881137 
L 221.299442 208.906532 
L 222.299442 208.917732 
L 223.299442 208.927856 
L 224.299442 208.927652 
L 225.299442 208.918142 
L 226.299442 208.906489 
L 227.299442 208.875459 
L 228.299442 208.864291 
L 229.299442 208.834174 
L 230.299442 208.774397 
L 231.299442 208.737205 
L 232.299442 208.698109 
L 233.299442 208.65567 
L 234.299442 208.622904 
L 235.299442 208.555478 
L 236.299442 208.516352 
L 237.299442 208.473678 
L 238.299442 208.403097 
L 239.299442 208.366706 
L 240.299442 208.308303 
L 241.299442 208.19735 
L 242.299442 208.126692 
L 243.299442 208.013752 
L 244.299442 207.967979 
L 245.299442 207.906696 
L 246.299442 207.858197 
L 247.299442 207.777374 
L 248.299442 207.658855 
L 249.299442 207.588645 
L 250.299442 207.505382 
L 251.299442 207.47224 
L 252.299442 207.421003 
L 253.299442 207.352605 
L 254.299442 207.286389 
L 255.299442 207.209472 
L 256.619695 207.182157 
" clip-path="url(#p809c149dc3)" style="fill: none; stroke: #1f77b4; stroke-opacity: 0.5; stroke-width: 0.2; stroke-linecap: square"/>
   </g>
   <g id="line2d_11">
    <path d="M 256.619695 173.292616 
L 255.619695 173.26118 
L 254.619695 173.22424 
L 253.619695 173.126493 
L 252.619695 173.093971 
L 251.619695 173.020347 
L 250.619695 172.981781 
L 249.619695 172.946368 
L 248.619695 172.888728 
L 247.619695 172.818342 
L 246.619695 172.766378 
L 245.619695 172.707288 
L 244.619695 172.618967 
L 243.619695 172.572823 
L 242.619695 172.530412 
L 241.619695 172.499919 
L 240.619695 172.473874 
L 239.619695 172.452674 
L 238.619695 172.398373 
L 237.619695 172.370435 
L 236.619695 172.340711 
L 235.619695 172.315317 
L 234.619695 172.304116 
L 233.619695 172.293992 
L 232.619695 172.294197 
L 231.619695 172.303706 
L 230.619695 172.31536 
L 229.619695 172.346389 
L 228.619695 172.357557 
L 227.619695 172.387675 
L 226.619695 172.447452 
L 225.619695 172.484643 
L 224.619695 172.523739 
L 223.619695 172.566179 
L 222.619695 172.598944 
L 221.619695 172.66637 
L 220.619695 172.705496 
L 219.619695 172.748171 
L 218.619695 172.818752 
L 217.619695 172.855142 
L 216.619695 172.913546 
L 215.619695 173.024498 
L 214.619695 173.095156 
L 213.619695 173.208096 
L 212.619695 173.253869 
L 211.619695 173.315152 
L 210.619695 173.363652 
L 209.619695 173.444474 
L 208.619695 173.562993 
L 207.619695 173.633204 
L 206.619695 173.716466 
L 205.619695 173.749608 
L 204.619695 173.800846 
L 203.619695 173.869244 
L 202.619695 173.935459 
L 201.619695 174.012376 
L 200.299442 174.039692 
" clip-path="url(#p809c149dc3)" style="fill: none; stroke: #ff7f0e; stroke-opacity: 0.5; stroke-width: 0.2; stroke-linecap: square"/>
   </g>
   <g id="line2d_12">
    <path d="M 256.619695 148.035024 
L 255.619695 148.003588 
L 254.619695 147.966648 
L 253.619695 147.868901 
L 252.619695 147.83638 
L 251.619695 147.762755 
L 250.619695 147.724189 
L 249.619695 147.688776 
L 248.619695 147.631136 
L 247.619695 147.56075 
L 246.619695 147.508786 
L 245.619695 147.449696 
L 244.619695 147.361375 
L 243.619695 147.315231 
L 242.619695 147.27282 
L 241.619695 147.242327 
L 240.619695 147.216282 
L 239.619695 147.195082 
L 238.619695 147.140781 
L 237.619695 147.112843 
L 236.619695 147.08312 
L 235.619695 147.057725 
L 234.619695 147.046524 
L 233.619695 147.0364 
L 232.619695 147.036605 
L 231.619695 147.046115 
L 230.619695 147.057768 
L 229.619695 147.088797 
L 228.619695 147.099965 
L 227.619695 147.130083 
L 226.619695 147.18986 
L 225.619695 147.227051 
L 224.619695 147.266147 
L 223.619695 147.308587 
L 222.619695 147.341352 
L 221.619695 147.408779 
L 220.619695 147.447905 
L 219.619695 147.490579 
L 218.619695 147.56116 
L 217.619695 147.597551 
L 216.619695 147.655954 
L 215.619695 147.766906 
L 214.619695 147.837565 
L 213.619695 147.950504 
L 212.619695 147.996277 
L 211.619695 148.057561 
L 210.619695 148.10606 
L 209.619695 148.186883 
L 208.619695 148.305402 
L 207.619695 148.375612 
L 206.619695 148.458875 
L 205.619695 148.492016 
L 204.619695 148.543254 
L 203.619695 148.611652 
L 202.619695 148.677867 
L 201.619695 148.754785 
L 200.299442 148.7821 
" clip-path="url(#p809c149dc3)" style="fill: none; stroke: #ff7f0e; stroke-opacity: 0.5; stroke-width: 0.2; stroke-linecap: square"/>
   </g>
   <g id="line2d_13">
    <path d="M 256.619695 166.179583 
L 255.619695 166.148147 
L 254.619695 166.111207 
L 253.619695 166.01346 
L 252.619695 165.980939 
L 251.619695 165.907314 
L 250.619695 165.868748 
L 249.619695 165.833335 
L 248.619695 165.775695 
L 247.619695 165.705309 
L 246.619695 165.653345 
L 245.619695 165.594255 
L 244.619695 165.505934 
L 243.619695 165.45979 
L 242.619695 165.417379 
L 241.619695 165.386886 
L 240.619695 165.360841 
L 239.619695 165.339641 
L 238.619695 165.28534 
L 237.619695 165.257402 
L 236.619695 165.227678 
L 235.619695 165.202284 
L 234.619695 165.191083 
L 233.619695 165.180959 
L 232.619695 165.181164 
L 231.619695 165.190674 
L 230.619695 165.202327 
L 229.619695 165.233356 
L 228.619695 165.244524 
L 227.619695 165.274642 
L 226.619695 165.334419 
L 225.619695 165.37161 
L 224.619695 165.410706 
L 223.619695 165.453146 
L 222.619695 165.485911 
L 221.619695 165.553338 
L 220.619695 165.592464 
L 219.619695 165.635138 
L 218.619695 165.705719 
L 217.619695 165.74211 
L 216.619695 165.800513 
L 215.619695 165.911465 
L 214.619695 165.982124 
L 213.619695 166.095063 
L 212.619695 166.140836 
L 211.619695 166.20212 
L 210.619695 166.250619 
L 209.619695 166.331442 
L 208.619695 166.44996 
L 207.619695 166.520171 
L 206.619695 166.603434 
L 205.619695 166.636575 
L 204.619695 166.687813 
L 203.619695 166.756211 
L 202.619695 166.822426 
L 201.619695 166.899344 
L 200.299442 166.926659 
" clip-path="url(#p809c149dc3)" style="fill: none; stroke: #ff7f0e; stroke-opacity: 0.5; stroke-width: 0.2; stroke-linecap: square"/>
   </g>
   <g id="line2d_14">
    <path d="M 256.619695 66.65847 
L 255.619695 66.627034 
L 254.619695 66.590094 
L 253.619695 66.492347 
L 252.619695 66.459825 
L 251.619695 66.386201 
L 250.619695 66.347635 
L 249.619695 66.312222 
L 248.619695 66.254582 
L 247.619695 66.184196 
L 246.619695 66.132232 
L 245.619695 66.073142 
L 244.619695 65.984821 
L 243.619695 65.938677 
L 242.619695 65.896266 
L 241.619695 65.865773 
L 240.619695 65.839728 
L 239.619695 65.818528 
L 238.619695 65.764227 
L 237.619695 65.736289 
L 236.619695 65.706565 
L 235.619695 65.681171 
L 234.619695 65.66997 
L 233.619695 65.659846 
L 232.619695 65.660051 
L 231.619695 65.66956 
L 230.619695 65.681214 
L 229.619695 65.712243 
L 228.619695 65.723411 
L 227.619695 65.753529 
L 226.619695 65.813306 
L 225.619695 65.850497 
L 224.619695 65.889593 
L 223.619695 65.932033 
L 222.619695 65.964798 
L 221.619695 66.032225 
L 220.619695 66.07135 
L 219.619695 66.114025 
L 218.619695 66.184606 
L 217.619695 66.220996 
L 216.619695 66.2794 
L 215.619695 66.390352 
L 214.619695 66.461011 
L 213.619695 66.57395 
L 212.619695 66.619723 
L 211.619695 66.681006 
L 210.619695 66.729506 
L 209.619695 66.810328 
L 208.619695 66.928847 
L 207.619695 66.999058 
L 206.619695 67.08232 
L 205.619695 67.115462 
L 204.619695 67.1667 
L 203.619695 67.235098 
L 202.619695 67.301313 
L 201.619695 67.37823 
L 200.299442 67.405546 
" clip-path="url(#p809c149dc3)" style="fill: none; stroke: #ff7f0e; stroke-opacity: 0.5; stroke-width: 0.2; stroke-linecap: square"/>
   </g>
   <g id="line2d_15">
    <path d="M 256.619695 221.280882 
L 255.619695 221.249446 
L 254.619695 221.212506 
L 253.619695 221.114759 
L 252.619695 221.082237 
L 251.619695 221.008613 
L 250.619695 220.970047 
L 249.619695 220.934634 
L 248.619695 220.876994 
L 247.619695 220.806608 
L 246.619695 220.754644 
L 245.619695 220.695554 
L 244.619695 220.607233 
L 243.619695 220.561089 
L 242.619695 220.518678 
L 241.619695 220.488185 
L 240.619695 220.46214 
L 239.619695 220.44094 
L 238.619695 220.386639 
L 237.619695 220.358701 
L 236.619695 220.328977 
L 235.619695 220.303583 
L 234.619695 220.292382 
L 233.619695 220.282258 
L 232.619695 220.282463 
L 231.619695 220.291972 
L 230.619695 220.303626 
L 229.619695 220.334655 
L 228.619695 220.345823 
L 227.619695 220.375941 
L 226.619695 220.435718 
L 225.619695 220.472909 
L 224.619695 220.512005 
L 223.619695 220.554445 
L 222.619695 220.58721 
L 221.619695 220.654636 
L 220.619695 220.693762 
L 219.619695 220.736437 
L 218.619695 220.807017 
L 217.619695 220.843408 
L 216.619695 220.901812 
L 215.619695 221.012764 
L 214.619695 221.083422 
L 213.619695 221.196362 
L 212.619695 221.242135 
L 211.619695 221.303418 
L 210.619695 221.351918 
L 209.619695 221.43274 
L 208.619695 221.551259 
L 207.619695 221.62147 
L 206.619695 221.704732 
L 205.619695 221.737874 
L 204.619695 221.789111 
L 203.619695 221.85751 
L 202.619695 221.923725 
L 201.619695 222.000642 
L 200.299442 222.027958 
" clip-path="url(#p809c149dc3)" style="fill: none; stroke: #ff7f0e; stroke-opacity: 0.5; stroke-width: 0.2; stroke-linecap: square"/>
   </g>
   <g id="line2d_16">
    <path d="M 256.619695 54.445893 
L 255.619695 54.414456 
L 254.619695 54.377516 
L 253.619695 54.27977 
L 252.619695 54.247248 
L 251.619695 54.173623 
L 250.619695 54.135058 
L 249.619695 54.099644 
L 248.619695 54.042005 
L 247.619695 53.971618 
L 246.619695 53.919654 
L 245.619695 53.860564 
L 244.619695 53.772243 
L 243.619695 53.726099 
L 242.619695 53.683688 
L 241.619695 53.653195 
L 240.619695 53.627151 
L 239.619695 53.60595 
L 238.619695 53.551649 
L 237.619695 53.523712 
L 236.619695 53.493988 
L 235.619695 53.468593 
L 234.619695 53.457393 
L 233.619695 53.447269 
L 232.619695 53.447473 
L 231.619695 53.456983 
L 230.619695 53.468636 
L 229.619695 53.499666 
L 228.619695 53.510834 
L 227.619695 53.540951 
L 226.619695 53.600728 
L 225.619695 53.63792 
L 224.619695 53.677016 
L 223.619695 53.719455 
L 222.619695 53.75222 
L 221.619695 53.819647 
L 220.619695 53.858773 
L 219.619695 53.901447 
L 218.619695 53.972028 
L 217.619695 54.008419 
L 216.619695 54.066822 
L 215.619695 54.177775 
L 214.619695 54.248433 
L 213.619695 54.361373 
L 212.619695 54.407146 
L 211.619695 54.468429 
L 210.619695 54.516928 
L 209.619695 54.597751 
L 208.619695 54.71627 
L 207.619695 54.78648 
L 206.619695 54.869743 
L 205.619695 54.902885 
L 204.619695 54.954122 
L 203.619695 55.02252 
L 202.619695 55.088736 
L 201.619695 55.165653 
L 200.299442 55.192968 
" clip-path="url(#p809c149dc3)" style="fill: none; stroke: #ff7f0e; stroke-opacity: 0.5; stroke-width: 0.2; stroke-linecap: square"/>
   </g>
   <g id="line2d_17">
    <path d="M 256.619695 291.916813 
L 255.619695 291.885376 
L 254.619695 291.848436 
L 253.619695 291.75069 
L 252.619695 291.718168 
L 251.619695 291.644543 
L 250.619695 291.605978 
L 249.619695 291.570565 
L 248.619695 291.512925 
L 247.619695 291.442538 
L 246.619695 291.390574 
L 245.619695 291.331484 
L 244.619695 291.243163 
L 243.619695 291.197019 
L 242.619695 291.154608 
L 241.619695 291.124116 
L 240.619695 291.098071 
L 239.619695 291.07687 
L 238.619695 291.022569 
L 237.619695 290.994632 
L 236.619695 290.964908 
L 235.619695 290.939513 
L 234.619695 290.928313 
L 233.619695 290.918189 
L 232.619695 290.918393 
L 231.619695 290.927903 
L 230.619695 290.939556 
L 229.619695 290.970586 
L 228.619695 290.981754 
L 227.619695 291.011871 
L 226.619695 291.071648 
L 225.619695 291.10884 
L 224.619695 291.147936 
L 223.619695 291.190375 
L 222.619695 291.22314 
L 221.619695 291.290567 
L 220.619695 291.329693 
L 219.619695 291.372367 
L 218.619695 291.442948 
L 217.619695 291.479339 
L 216.619695 291.537742 
L 215.619695 291.648695 
L 214.619695 291.719353 
L 213.619695 291.832293 
L 212.619695 291.878066 
L 211.619695 291.939349 
L 210.619695 291.987848 
L 209.619695 292.068671 
L 208.619695 292.18719 
L 207.619695 292.2574 
L 206.619695 292.340663 
L 205.619695 292.373805 
L 204.619695 292.425042 
L 203.619695 292.49344 
L 202.619695 292.559656 
L 201.619695 292.636573 
L 200.299442 292.663888 
" clip-path="url(#p809c149dc3)" style="fill: none; stroke: #ff7f0e; stroke-opacity: 0.5; stroke-width: 0.2; stroke-linecap: square"/>
   </g>
   <g id="line2d_18">
    <path d="M 256.619695 311.070424 
L 255.619695 311.038988 
L 254.619695 311.002048 
L 253.619695 310.904301 
L 252.619695 310.87178 
L 251.619695 310.798155 
L 250.619695 310.759589 
L 249.619695 310.724176 
L 248.619695 310.666536 
L 247.619695 310.59615 
L 246.619695 310.544186 
L 245.619695 310.485096 
L 244.619695 310.396775 
L 243.619695 310.350631 
L 242.619695 310.30822 
L 241.619695 310.277727 
L 240.619695 310.251682 
L 239.619695 310.230482 
L 238.619695 310.176181 
L 237.619695 310.148243 
L 236.619695 310.118519 
L 235.619695 310.093125 
L 234.619695 310.081924 
L 233.619695 310.0718 
L 232.619695 310.072005 
L 231.619695 310.081515 
L 230.619695 310.093168 
L 229.619695 310.124197 
L 228.619695 310.135365 
L 227.619695 310.165483 
L 226.619695 310.22526 
L 225.619695 310.262451 
L 224.619695 310.301547 
L 223.619695 310.343987 
L 222.619695 310.376752 
L 221.619695 310.444179 
L 220.619695 310.483304 
L 219.619695 310.525979 
L 218.619695 310.59656 
L 217.619695 310.632951 
L 216.619695 310.691354 
L 215.619695 310.802306 
L 214.619695 310.872965 
L 213.619695 310.985904 
L 212.619695 311.031677 
L 211.619695 311.092961 
L 210.619695 311.14146 
L 209.619695 311.222283 
L 208.619695 311.340801 
L 207.619695 311.411012 
L 206.619695 311.494275 
L 205.619695 311.527416 
L 204.619695 311.578654 
L 203.619695 311.647052 
L 202.619695 311.713267 
L 201.619695 311.790184 
L 200.299442 311.8175 
" clip-path="url(#p809c149dc3)" style="fill: none; stroke: #ff7f0e; stroke-opacity: 0.5; stroke-width: 0.2; stroke-linecap: square"/>
   </g>
   <g id="line2d_19">
    <path d="M 256.619695 270.412303 
L 255.619695 270.380866 
L 254.619695 270.343926 
L 253.619695 270.24618 
L 252.619695 270.213658 
L 251.619695 270.140033 
L 250.619695 270.101468 
L 249.619695 270.066055 
L 248.619695 270.008415 
L 247.619695 269.938028 
L 246.619695 269.886064 
L 245.619695 269.826974 
L 244.619695 269.738653 
L 243.619695 269.692509 
L 242.619695 269.650098 
L 241.619695 269.619606 
L 240.619695 269.593561 
L 239.619695 269.572361 
L 238.619695 269.518059 
L 237.619695 269.490122 
L 236.619695 269.460398 
L 235.619695 269.435003 
L 234.619695 269.423803 
L 233.619695 269.413679 
L 232.619695 269.413883 
L 231.619695 269.423393 
L 230.619695 269.435047 
L 229.619695 269.466076 
L 228.619695 269.477244 
L 227.619695 269.507361 
L 226.619695 269.567138 
L 225.619695 269.60433 
L 224.619695 269.643426 
L 223.619695 269.685865 
L 222.619695 269.718631 
L 221.619695 269.786057 
L 220.619695 269.825183 
L 219.619695 269.867857 
L 218.619695 269.938438 
L 217.619695 269.974829 
L 216.619695 270.033232 
L 215.619695 270.144185 
L 214.619695 270.214843 
L 213.619695 270.327783 
L 212.619695 270.373556 
L 211.619695 270.434839 
L 210.619695 270.483338 
L 209.619695 270.564161 
L 208.619695 270.68268 
L 207.619695 270.752891 
L 206.619695 270.836153 
L 205.619695 270.869295 
L 204.619695 270.920532 
L 203.619695 270.98893 
L 202.619695 271.055146 
L 201.619695 271.132063 
L 200.299442 271.159378 
" clip-path="url(#p809c149dc3)" style="fill: none; stroke: #ff7f0e; stroke-opacity: 0.5; stroke-width: 0.2; stroke-linecap: square"/>
   </g>
   <g id="line2d_20">
    <path d="M 256.619695 292.886974 
L 255.619695 292.855537 
L 254.619695 292.818597 
L 253.619695 292.72085 
L 252.619695 292.688329 
L 251.619695 292.614704 
L 250.619695 292.576139 
L 249.619695 292.540725 
L 248.619695 292.483085 
L 247.619695 292.412699 
L 246.619695 292.360735 
L 245.619695 292.301645 
L 244.619695 292.213324 
L 243.619695 292.16718 
L 242.619695 292.124769 
L 241.619695 292.094276 
L 240.619695 292.068231 
L 239.619695 292.047031 
L 238.619695 291.99273 
L 237.619695 291.964793 
L 236.619695 291.935069 
L 235.619695 291.909674 
L 234.619695 291.898474 
L 233.619695 291.88835 
L 232.619695 291.888554 
L 231.619695 291.898064 
L 230.619695 291.909717 
L 229.619695 291.940747 
L 228.619695 291.951915 
L 227.619695 291.982032 
L 226.619695 292.041809 
L 225.619695 292.079001 
L 224.619695 292.118097 
L 223.619695 292.160536 
L 222.619695 292.193301 
L 221.619695 292.260728 
L 220.619695 292.299854 
L 219.619695 292.342528 
L 218.619695 292.413109 
L 217.619695 292.4495 
L 216.619695 292.507903 
L 215.619695 292.618856 
L 214.619695 292.689514 
L 213.619695 292.802454 
L 212.619695 292.848227 
L 211.619695 292.90951 
L 210.619695 292.958009 
L 209.619695 293.038832 
L 208.619695 293.157351 
L 207.619695 293.227561 
L 206.619695 293.310824 
L 205.619695 293.343966 
L 204.619695 293.395203 
L 203.619695 293.463601 
L 202.619695 293.529817 
L 201.619695 293.606734 
L 200.299442 293.634049 
" clip-path="url(#p809c149dc3)" style="fill: none; stroke: #ff7f0e; stroke-opacity: 0.5; stroke-width: 0.2; stroke-linecap: square"/>
   </g>
   <g id="line2d_21">
    <path d="M 390.34593 81.156175 
L 391.34593 81.187611 
L 392.34593 81.224552 
L 393.34593 81.322298 
L 394.34593 81.35482 
L 395.34593 81.428444 
L 396.34593 81.46701 
L 397.34593 81.502423 
L 398.34593 81.560063 
L 399.34593 81.630449 
L 400.34593 81.682413 
L 401.34593 81.741503 
L 402.34593 81.829824 
L 403.34593 81.875968 
L 404.34593 81.918379 
L 405.34593 81.948872 
L 406.34593 81.974917 
L 407.34593 81.996117 
L 408.34593 82.050418 
L 409.34593 82.078356 
L 410.34593 82.10808 
L 411.34593 82.133475 
L 412.34593 82.144675 
L 413.34593 82.154799 
L 414.34593 82.154595 
L 415.34593 82.145085 
L 416.34593 82.133431 
L 417.34593 82.102402 
L 418.34593 82.091234 
L 419.34593 82.061116 
L 420.34593 82.00134 
L 421.34593 81.964148 
L 422.34593 81.925052 
L 423.34593 81.882612 
L 424.34593 81.849847 
L 425.34593 81.782421 
L 426.34593 81.743295 
L 427.34593 81.70062 
L 428.34593 81.63004 
L 429.34593 81.593649 
L 430.34593 81.535246 
L 431.34593 81.424293 
L 432.34593 81.353635 
L 433.34593 81.240695 
L 434.34593 81.194922 
L 435.34593 81.133639 
L 436.34593 81.085139 
L 437.34593 81.004317 
L 438.34593 80.885798 
L 439.34593 80.815587 
L 440.34593 80.732325 
L 441.34593 80.699183 
L 442.34593 80.647946 
L 443.34593 80.579547 
L 444.34593 80.513332 
L 445.34593 80.436415 
L 446.666183 80.409099 
" clip-path="url(#p809c149dc3)" style="fill: none; stroke: #ff7f0e; stroke-opacity: 0.5; stroke-width: 0.2; stroke-linecap: square"/>
   </g>
   <g id="line2d_22">
    <path d="M 390.34593 274.370123 
L 391.34593 274.401559 
L 392.34593 274.4385 
L 393.34593 274.536246 
L 394.34593 274.568768 
L 395.34593 274.642392 
L 396.34593 274.680958 
L 397.34593 274.716371 
L 398.34593 274.774011 
L 399.34593 274.844397 
L 400.34593 274.896361 
L 401.34593 274.955451 
L 402.34593 275.043772 
L 403.34593 275.089916 
L 404.34593 275.132327 
L 405.34593 275.16282 
L 406.34593 275.188865 
L 407.34593 275.210065 
L 408.34593 275.264366 
L 409.34593 275.292304 
L 410.34593 275.322028 
L 411.34593 275.347423 
L 412.34593 275.358623 
L 413.34593 275.368747 
L 414.34593 275.368543 
L 415.34593 275.359033 
L 416.34593 275.347379 
L 417.34593 275.31635 
L 418.34593 275.305182 
L 419.34593 275.275064 
L 420.34593 275.215287 
L 421.34593 275.178096 
L 422.34593 275.139 
L 423.34593 275.09656 
L 424.34593 275.063795 
L 425.34593 274.996369 
L 426.34593 274.957243 
L 427.34593 274.914568 
L 428.34593 274.843988 
L 429.34593 274.807597 
L 430.34593 274.749194 
L 431.34593 274.638241 
L 432.34593 274.567583 
L 433.34593 274.454643 
L 434.34593 274.40887 
L 435.34593 274.347587 
L 436.34593 274.299087 
L 437.34593 274.218265 
L 438.34593 274.099746 
L 439.34593 274.029535 
L 440.34593 273.946273 
L 441.34593 273.913131 
L 442.34593 273.861894 
L 443.34593 273.793495 
L 444.34593 273.72728 
L 445.34593 273.650363 
L 446.666183 273.623047 
" clip-path="url(#p809c149dc3)" style="fill: none; stroke: #ff7f0e; stroke-opacity: 0.5; stroke-width: 0.2; stroke-linecap: square"/>
   </g>
   <g id="line2d_23">
    <path d="M 390.34593 220.439445 
L 391.34593 220.470882 
L 392.34593 220.507822 
L 393.34593 220.605569 
L 394.34593 220.63809 
L 395.34593 220.711715 
L 396.34593 220.750281 
L 397.34593 220.785694 
L 398.34593 220.843334 
L 399.34593 220.91372 
L 400.34593 220.965684 
L 401.34593 221.024774 
L 402.34593 221.113095 
L 403.34593 221.159239 
L 404.34593 221.20165 
L 405.34593 221.232143 
L 406.34593 221.258188 
L 407.34593 221.279388 
L 408.34593 221.333689 
L 409.34593 221.361626 
L 410.34593 221.39135 
L 411.34593 221.416745 
L 412.34593 221.427946 
L 413.34593 221.43807 
L 414.34593 221.437865 
L 415.34593 221.428355 
L 416.34593 221.416702 
L 417.34593 221.385673 
L 418.34593 221.374505 
L 419.34593 221.344387 
L 420.34593 221.28461 
L 421.34593 221.247419 
L 422.34593 221.208323 
L 423.34593 221.165883 
L 424.34593 221.133118 
L 425.34593 221.065691 
L 426.34593 221.026565 
L 427.34593 220.983891 
L 428.34593 220.91331 
L 429.34593 220.876919 
L 430.34593 220.818516 
L 431.34593 220.707564 
L 432.34593 220.636905 
L 433.34593 220.523966 
L 434.34593 220.478193 
L 435.34593 220.416909 
L 436.34593 220.36841 
L 437.34593 220.287587 
L 438.34593 220.169068 
L 439.34593 220.098858 
L 440.34593 220.015595 
L 441.34593 219.982454 
L 442.34593 219.931216 
L 443.34593 219.862818 
L 444.34593 219.796602 
L 445.34593 219.719685 
L 446.666183 219.69237 
" clip-path="url(#p809c149dc3)" style="fill: none; stroke: #ff7f0e; stroke-opacity: 0.5; stroke-width: 0.2; stroke-linecap: square"/>
   </g>
   <g id="line2d_24">
    <path d="M 390.34593 146.18338 
L 391.34593 146.214817 
L 392.34593 146.251757 
L 393.34593 146.349504 
L 394.34593 146.382025 
L 395.34593 146.45565 
L 396.34593 146.494216 
L 397.34593 146.529629 
L 398.34593 146.587269 
L 399.34593 146.657655 
L 400.34593 146.709619 
L 401.34593 146.768709 
L 402.34593 146.85703 
L 403.34593 146.903174 
L 404.34593 146.945585 
L 405.34593 146.976078 
L 406.34593 147.002123 
L 407.34593 147.023323 
L 408.34593 147.077624 
L 409.34593 147.105561 
L 410.34593 147.135285 
L 411.34593 147.16068 
L 412.34593 147.171881 
L 413.34593 147.182004 
L 414.34593 147.1818 
L 415.34593 147.17229 
L 416.34593 147.160637 
L 417.34593 147.129607 
L 418.34593 147.11844 
L 419.34593 147.088322 
L 420.34593 147.028545 
L 421.34593 146.991354 
L 422.34593 146.952257 
L 423.34593 146.909818 
L 424.34593 146.877053 
L 425.34593 146.809626 
L 426.34593 146.7705 
L 427.34593 146.727826 
L 428.34593 146.657245 
L 429.34593 146.620854 
L 430.34593 146.562451 
L 431.34593 146.451499 
L 432.34593 146.38084 
L 433.34593 146.2679 
L 434.34593 146.222128 
L 435.34593 146.160844 
L 436.34593 146.112345 
L 437.34593 146.031522 
L 438.34593 145.913003 
L 439.34593 145.842793 
L 440.34593 145.75953 
L 441.34593 145.726388 
L 442.34593 145.675151 
L 443.34593 145.606753 
L 444.34593 145.540537 
L 445.34593 145.46362 
L 446.666183 145.436305 
" clip-path="url(#p809c149dc3)" style="fill: none; stroke: #ff7f0e; stroke-opacity: 0.5; stroke-width: 0.2; stroke-linecap: square"/>
   </g>
   <g id="line2d_25">
    <path d="M 390.34593 253.080061 
L 391.34593 253.111497 
L 392.34593 253.148438 
L 393.34593 253.246184 
L 394.34593 253.278706 
L 395.34593 253.352331 
L 396.34593 253.390896 
L 397.34593 253.426309 
L 398.34593 253.483949 
L 399.34593 253.554335 
L 400.34593 253.6063 
L 401.34593 253.665389 
L 402.34593 253.75371 
L 403.34593 253.799855 
L 404.34593 253.842266 
L 405.34593 253.872758 
L 406.34593 253.898803 
L 407.34593 253.920003 
L 408.34593 253.974304 
L 409.34593 254.002242 
L 410.34593 254.031966 
L 411.34593 254.057361 
L 412.34593 254.068561 
L 413.34593 254.078685 
L 414.34593 254.078481 
L 415.34593 254.068971 
L 416.34593 254.057317 
L 417.34593 254.026288 
L 418.34593 254.01512 
L 419.34593 253.985003 
L 420.34593 253.925226 
L 421.34593 253.888034 
L 422.34593 253.848938 
L 423.34593 253.806498 
L 424.34593 253.773733 
L 425.34593 253.706307 
L 426.34593 253.667181 
L 427.34593 253.624506 
L 428.34593 253.553926 
L 429.34593 253.517535 
L 430.34593 253.459132 
L 431.34593 253.348179 
L 432.34593 253.277521 
L 433.34593 253.164581 
L 434.34593 253.118808 
L 435.34593 253.057525 
L 436.34593 253.009026 
L 437.34593 252.928203 
L 438.34593 252.809684 
L 439.34593 252.739473 
L 440.34593 252.656211 
L 441.34593 252.623069 
L 442.34593 252.571832 
L 443.34593 252.503433 
L 444.34593 252.437218 
L 445.34593 252.360301 
L 446.666183 252.332985 
" clip-path="url(#p809c149dc3)" style="fill: none; stroke: #ff7f0e; stroke-opacity: 0.5; stroke-width: 0.2; stroke-linecap: square"/>
   </g>
   <g id="line2d_26">
    <path d="M 390.34593 88.012564 
L 391.34593 88.044001 
L 392.34593 88.080941 
L 393.34593 88.178688 
L 394.34593 88.211209 
L 395.34593 88.284834 
L 396.34593 88.323399 
L 397.34593 88.358813 
L 398.34593 88.416453 
L 399.34593 88.486839 
L 400.34593 88.538803 
L 401.34593 88.597893 
L 402.34593 88.686214 
L 403.34593 88.732358 
L 404.34593 88.774769 
L 405.34593 88.805262 
L 406.34593 88.831307 
L 407.34593 88.852507 
L 408.34593 88.906808 
L 409.34593 88.934745 
L 410.34593 88.964469 
L 411.34593 88.989864 
L 412.34593 89.001064 
L 413.34593 89.011188 
L 414.34593 89.010984 
L 415.34593 89.001474 
L 416.34593 88.989821 
L 417.34593 88.958791 
L 418.34593 88.947623 
L 419.34593 88.917506 
L 420.34593 88.857729 
L 421.34593 88.820537 
L 422.34593 88.781441 
L 423.34593 88.739002 
L 424.34593 88.706237 
L 425.34593 88.63881 
L 426.34593 88.599684 
L 427.34593 88.55701 
L 428.34593 88.486429 
L 429.34593 88.450038 
L 430.34593 88.391635 
L 431.34593 88.280682 
L 432.34593 88.210024 
L 433.34593 88.097084 
L 434.34593 88.051311 
L 435.34593 87.990028 
L 436.34593 87.941529 
L 437.34593 87.860706 
L 438.34593 87.742187 
L 439.34593 87.671977 
L 440.34593 87.588714 
L 441.34593 87.555572 
L 442.34593 87.504335 
L 443.34593 87.435937 
L 444.34593 87.369721 
L 445.34593 87.292804 
L 446.666183 87.265489 
" clip-path="url(#p809c149dc3)" style="fill: none; stroke: #ff7f0e; stroke-opacity: 0.5; stroke-width: 0.2; stroke-linecap: square"/>
   </g>
   <g id="line2d_27">
    <path d="M 390.34593 232.113733 
L 391.34593 232.145169 
L 392.34593 232.18211 
L 393.34593 232.279856 
L 394.34593 232.312378 
L 395.34593 232.386002 
L 396.34593 232.424568 
L 397.34593 232.459981 
L 398.34593 232.517621 
L 399.34593 232.588007 
L 400.34593 232.639971 
L 401.34593 232.699061 
L 402.34593 232.787382 
L 403.34593 232.833526 
L 404.34593 232.875937 
L 405.34593 232.90643 
L 406.34593 232.932475 
L 407.34593 232.953675 
L 408.34593 233.007976 
L 409.34593 233.035914 
L 410.34593 233.065638 
L 411.34593 233.091033 
L 412.34593 233.102233 
L 413.34593 233.112357 
L 414.34593 233.112153 
L 415.34593 233.102643 
L 416.34593 233.090989 
L 417.34593 233.05996 
L 418.34593 233.048792 
L 419.34593 233.018674 
L 420.34593 232.958898 
L 421.34593 232.921706 
L 422.34593 232.88261 
L 423.34593 232.84017 
L 424.34593 232.807405 
L 425.34593 232.739979 
L 426.34593 232.700853 
L 427.34593 232.658178 
L 428.34593 232.587598 
L 429.34593 232.551207 
L 430.34593 232.492804 
L 431.34593 232.381851 
L 432.34593 232.311193 
L 433.34593 232.198253 
L 434.34593 232.15248 
L 435.34593 232.091197 
L 436.34593 232.042697 
L 437.34593 231.961875 
L 438.34593 231.843356 
L 439.34593 231.773145 
L 440.34593 231.689883 
L 441.34593 231.656741 
L 442.34593 231.605504 
L 443.34593 231.537105 
L 444.34593 231.47089 
L 445.34593 231.393973 
L 446.666183 231.366657 
" clip-path="url(#p809c149dc3)" style="fill: none; stroke: #ff7f0e; stroke-opacity: 0.5; stroke-width: 0.2; stroke-linecap: square"/>
   </g>
   <g id="line2d_28">
    <path d="M 390.34593 176.851657 
L 391.34593 176.883093 
L 392.34593 176.920034 
L 393.34593 177.01778 
L 394.34593 177.050302 
L 395.34593 177.123926 
L 396.34593 177.162492 
L 397.34593 177.197905 
L 398.34593 177.255545 
L 399.34593 177.325931 
L 400.34593 177.377895 
L 401.34593 177.436985 
L 402.34593 177.525306 
L 403.34593 177.57145 
L 404.34593 177.613861 
L 405.34593 177.644354 
L 406.34593 177.670399 
L 407.34593 177.691599 
L 408.34593 177.7459 
L 409.34593 177.773838 
L 410.34593 177.803562 
L 411.34593 177.828957 
L 412.34593 177.840157 
L 413.34593 177.850281 
L 414.34593 177.850077 
L 415.34593 177.840567 
L 416.34593 177.828913 
L 417.34593 177.797884 
L 418.34593 177.786716 
L 419.34593 177.756598 
L 420.34593 177.696821 
L 421.34593 177.65963 
L 422.34593 177.620534 
L 423.34593 177.578094 
L 424.34593 177.545329 
L 425.34593 177.477903 
L 426.34593 177.438777 
L 427.34593 177.396102 
L 428.34593 177.325522 
L 429.34593 177.289131 
L 430.34593 177.230728 
L 431.34593 177.119775 
L 432.34593 177.049117 
L 433.34593 176.936177 
L 434.34593 176.890404 
L 435.34593 176.829121 
L 436.34593 176.780621 
L 437.34593 176.699799 
L 438.34593 176.58128 
L 439.34593 176.511069 
L 440.34593 176.427807 
L 441.34593 176.394665 
L 442.34593 176.343428 
L 443.34593 176.275029 
L 444.34593 176.208814 
L 445.34593 176.131897 
L 446.666183 176.104581 
" clip-path="url(#p809c149dc3)" style="fill: none; stroke: #ff7f0e; stroke-opacity: 0.5; stroke-width: 0.2; stroke-linecap: square"/>
   </g>
   <g id="line2d_29">
    <path d="M 390.34593 269.315686 
L 391.34593 269.347123 
L 392.34593 269.384063 
L 393.34593 269.48181 
L 394.34593 269.514331 
L 395.34593 269.587956 
L 396.34593 269.626522 
L 397.34593 269.661935 
L 398.34593 269.719575 
L 399.34593 269.789961 
L 400.34593 269.841925 
L 401.34593 269.901015 
L 402.34593 269.989336 
L 403.34593 270.03548 
L 404.34593 270.077891 
L 405.34593 270.108384 
L 406.34593 270.134429 
L 407.34593 270.155629 
L 408.34593 270.20993 
L 409.34593 270.237867 
L 410.34593 270.267591 
L 411.34593 270.292986 
L 412.34593 270.304187 
L 413.34593 270.314311 
L 414.34593 270.314106 
L 415.34593 270.304596 
L 416.34593 270.292943 
L 417.34593 270.261913 
L 418.34593 270.250746 
L 419.34593 270.220628 
L 420.34593 270.160851 
L 421.34593 270.12366 
L 422.34593 270.084563 
L 423.34593 270.042124 
L 424.34593 270.009359 
L 425.34593 269.941932 
L 426.34593 269.902806 
L 427.34593 269.860132 
L 428.34593 269.789551 
L 429.34593 269.75316 
L 430.34593 269.694757 
L 431.34593 269.583805 
L 432.34593 269.513146 
L 433.34593 269.400206 
L 434.34593 269.354434 
L 435.34593 269.29315 
L 436.34593 269.244651 
L 437.34593 269.163828 
L 438.34593 269.045309 
L 439.34593 268.975099 
L 440.34593 268.891836 
L 441.34593 268.858695 
L 442.34593 268.807457 
L 443.34593 268.739059 
L 444.34593 268.672843 
L 445.34593 268.595926 
L 446.666183 268.568611 
" clip-path="url(#p809c149dc3)" style="fill: none; stroke: #ff7f0e; stroke-opacity: 0.5; stroke-width: 0.2; stroke-linecap: square"/>
   </g>
   <g id="line2d_30">
    <path d="M 390.34593 183.26285 
L 391.34593 183.294287 
L 392.34593 183.331227 
L 393.34593 183.428974 
L 394.34593 183.461495 
L 395.34593 183.53512 
L 396.34593 183.573685 
L 397.34593 183.609099 
L 398.34593 183.666739 
L 399.34593 183.737125 
L 400.34593 183.789089 
L 401.34593 183.848179 
L 402.34593 183.9365 
L 403.34593 183.982644 
L 404.34593 184.025055 
L 405.34593 184.055548 
L 406.34593 184.081593 
L 407.34593 184.102793 
L 408.34593 184.157094 
L 409.34593 184.185031 
L 410.34593 184.214755 
L 411.34593 184.24015 
L 412.34593 184.25135 
L 413.34593 184.261474 
L 414.34593 184.26127 
L 415.34593 184.25176 
L 416.34593 184.240107 
L 417.34593 184.209077 
L 418.34593 184.197909 
L 419.34593 184.167792 
L 420.34593 184.108015 
L 421.34593 184.070823 
L 422.34593 184.031727 
L 423.34593 183.989288 
L 424.34593 183.956523 
L 425.34593 183.889096 
L 426.34593 183.84997 
L 427.34593 183.807296 
L 428.34593 183.736715 
L 429.34593 183.700324 
L 430.34593 183.641921 
L 431.34593 183.530968 
L 432.34593 183.46031 
L 433.34593 183.34737 
L 434.34593 183.301597 
L 435.34593 183.240314 
L 436.34593 183.191815 
L 437.34593 183.110992 
L 438.34593 182.992473 
L 439.34593 182.922263 
L 440.34593 182.839 
L 441.34593 182.805858 
L 442.34593 182.754621 
L 443.34593 182.686223 
L 444.34593 182.620007 
L 445.34593 182.54309 
L 446.666183 182.515775 
" clip-path="url(#p809c149dc3)" style="fill: none; stroke: #ff7f0e; stroke-opacity: 0.5; stroke-width: 0.2; stroke-linecap: square"/>
   </g>
   <g id="line2d_31">
    <path d="M 446.666183 269.82223 
L 445.666183 269.790794 
L 444.666183 269.753853 
L 443.666183 269.656107 
L 442.666183 269.623585 
L 441.666183 269.549961 
L 440.666183 269.511395 
L 439.666183 269.475982 
L 438.666183 269.418342 
L 437.666183 269.347956 
L 436.666183 269.295992 
L 435.666183 269.236902 
L 434.666183 269.148581 
L 433.666183 269.102437 
L 432.666183 269.060026 
L 431.666183 269.029533 
L 430.666183 269.003488 
L 429.666183 268.982288 
L 428.666183 268.927987 
L 427.666183 268.900049 
L 426.666183 268.870325 
L 425.666183 268.84493 
L 424.666183 268.83373 
L 423.666183 268.823606 
L 422.666183 268.82381 
L 421.666183 268.83332 
L 420.666183 268.844974 
L 419.666183 268.876003 
L 418.666183 268.887171 
L 417.666183 268.917289 
L 416.666183 268.977065 
L 415.666183 269.014257 
L 414.666183 269.053353 
L 413.666183 269.095793 
L 412.666183 269.128558 
L 411.666183 269.195984 
L 410.666183 269.23511 
L 409.666183 269.277785 
L 408.666183 269.348365 
L 407.666183 269.384756 
L 406.666183 269.443159 
L 405.666183 269.554112 
L 404.666183 269.62477 
L 403.666183 269.73771 
L 402.666183 269.783483 
L 401.666183 269.844766 
L 400.666183 269.893266 
L 399.666183 269.974088 
L 398.666183 270.092607 
L 397.666183 270.162818 
L 396.666183 270.24608 
L 395.666183 270.279222 
L 394.666183 270.330459 
L 393.666183 270.398858 
L 392.666183 270.465073 
L 391.666183 270.54199 
L 390.34593 270.569306 
" clip-path="url(#p809c149dc3)" style="fill: none; stroke: #2ca02c; stroke-opacity: 0.5; stroke-width: 0.2; stroke-linecap: square"/>
   </g>
   <g id="line2d_32">
    <path d="M 446.666183 58.586645 
L 445.666183 58.555209 
L 444.666183 58.518269 
L 443.666183 58.420522 
L 442.666183 58.388001 
L 441.666183 58.314376 
L 440.666183 58.27581 
L 439.666183 58.240397 
L 438.666183 58.182757 
L 437.666183 58.112371 
L 436.666183 58.060407 
L 435.666183 58.001317 
L 434.666183 57.912996 
L 433.666183 57.866852 
L 432.666183 57.824441 
L 431.666183 57.793948 
L 430.666183 57.767903 
L 429.666183 57.746703 
L 428.666183 57.692402 
L 427.666183 57.664464 
L 426.666183 57.63474 
L 425.666183 57.609346 
L 424.666183 57.598145 
L 423.666183 57.588021 
L 422.666183 57.588226 
L 421.666183 57.597736 
L 420.666183 57.609389 
L 419.666183 57.640418 
L 418.666183 57.651586 
L 417.666183 57.681704 
L 416.666183 57.741481 
L 415.666183 57.778672 
L 414.666183 57.817768 
L 413.666183 57.860208 
L 412.666183 57.892973 
L 411.666183 57.9604 
L 410.666183 57.999526 
L 409.666183 58.0422 
L 408.666183 58.112781 
L 407.666183 58.149172 
L 406.666183 58.207575 
L 405.666183 58.318527 
L 404.666183 58.389186 
L 403.666183 58.502125 
L 402.666183 58.547898 
L 401.666183 58.609182 
L 400.666183 58.657681 
L 399.666183 58.738504 
L 398.666183 58.857022 
L 397.666183 58.927233 
L 396.666183 59.010496 
L 395.666183 59.043637 
L 394.666183 59.094875 
L 393.666183 59.163273 
L 392.666183 59.229488 
L 391.666183 59.306406 
L 390.34593 59.333721 
" clip-path="url(#p809c149dc3)" style="fill: none; stroke: #2ca02c; stroke-opacity: 0.5; stroke-width: 0.2; stroke-linecap: square"/>
   </g>
   <g id="line2d_33">
    <path d="M 446.666183 197.508344 
L 445.666183 197.476908 
L 444.666183 197.439968 
L 443.666183 197.342221 
L 442.666183 197.3097 
L 441.666183 197.236075 
L 440.666183 197.197509 
L 439.666183 197.162096 
L 438.666183 197.104456 
L 437.666183 197.03407 
L 436.666183 196.982106 
L 435.666183 196.923016 
L 434.666183 196.834695 
L 433.666183 196.788551 
L 432.666183 196.74614 
L 431.666183 196.715647 
L 430.666183 196.689602 
L 429.666183 196.668402 
L 428.666183 196.614101 
L 427.666183 196.586163 
L 426.666183 196.556439 
L 425.666183 196.531045 
L 424.666183 196.519844 
L 423.666183 196.50972 
L 422.666183 196.509925 
L 421.666183 196.519435 
L 420.666183 196.531088 
L 419.666183 196.562117 
L 418.666183 196.573285 
L 417.666183 196.603403 
L 416.666183 196.66318 
L 415.666183 196.700371 
L 414.666183 196.739467 
L 413.666183 196.781907 
L 412.666183 196.814672 
L 411.666183 196.882099 
L 410.666183 196.921225 
L 409.666183 196.963899 
L 408.666183 197.03448 
L 407.666183 197.070871 
L 406.666183 197.129274 
L 405.666183 197.240226 
L 404.666183 197.310885 
L 403.666183 197.423824 
L 402.666183 197.469597 
L 401.666183 197.530881 
L 400.666183 197.57938 
L 399.666183 197.660203 
L 398.666183 197.778721 
L 397.666183 197.848932 
L 396.666183 197.932195 
L 395.666183 197.965336 
L 394.666183 198.016574 
L 393.666183 198.084972 
L 392.666183 198.151187 
L 391.666183 198.228105 
L 390.34593 198.25542 
" clip-path="url(#p809c149dc3)" style="fill: none; stroke: #2ca02c; stroke-opacity: 0.5; stroke-width: 0.2; stroke-linecap: square"/>
   </g>
   <g id="line2d_34">
    <path d="M 446.666183 263.124341 
L 445.666183 263.092905 
L 444.666183 263.055965 
L 443.666183 262.958218 
L 442.666183 262.925697 
L 441.666183 262.852072 
L 440.666183 262.813506 
L 439.666183 262.778093 
L 438.666183 262.720453 
L 437.666183 262.650067 
L 436.666183 262.598103 
L 435.666183 262.539013 
L 434.666183 262.450692 
L 433.666183 262.404548 
L 432.666183 262.362137 
L 431.666183 262.331644 
L 430.666183 262.305599 
L 429.666183 262.284399 
L 428.666183 262.230098 
L 427.666183 262.20216 
L 426.666183 262.172436 
L 425.666183 262.147042 
L 424.666183 262.135841 
L 423.666183 262.125717 
L 422.666183 262.125922 
L 421.666183 262.135432 
L 420.666183 262.147085 
L 419.666183 262.178114 
L 418.666183 262.189282 
L 417.666183 262.2194 
L 416.666183 262.279177 
L 415.666183 262.316368 
L 414.666183 262.355464 
L 413.666183 262.397904 
L 412.666183 262.430669 
L 411.666183 262.498096 
L 410.666183 262.537221 
L 409.666183 262.579896 
L 408.666183 262.650477 
L 407.666183 262.686867 
L 406.666183 262.745271 
L 405.666183 262.856223 
L 404.666183 262.926882 
L 403.666183 263.039821 
L 402.666183 263.085594 
L 401.666183 263.146878 
L 400.666183 263.195377 
L 399.666183 263.2762 
L 398.666183 263.394718 
L 397.666183 263.464929 
L 396.666183 263.548192 
L 395.666183 263.581333 
L 394.666183 263.632571 
L 393.666183 263.700969 
L 392.666183 263.767184 
L 391.666183 263.844101 
L 390.34593 263.871417 
" clip-path="url(#p809c149dc3)" style="fill: none; stroke: #2ca02c; stroke-opacity: 0.5; stroke-width: 0.2; stroke-linecap: square"/>
   </g>
   <g id="line2d_35">
    <path d="M 446.666183 218.91294 
L 445.666183 218.881503 
L 444.666183 218.844563 
L 443.666183 218.746816 
L 442.666183 218.714295 
L 441.666183 218.64067 
L 440.666183 218.602104 
L 439.666183 218.566691 
L 438.666183 218.509051 
L 437.666183 218.438665 
L 436.666183 218.386701 
L 435.666183 218.327611 
L 434.666183 218.23929 
L 433.666183 218.193146 
L 432.666183 218.150735 
L 431.666183 218.120242 
L 430.666183 218.094197 
L 429.666183 218.072997 
L 428.666183 218.018696 
L 427.666183 217.990759 
L 426.666183 217.961035 
L 425.666183 217.93564 
L 424.666183 217.924439 
L 423.666183 217.914315 
L 422.666183 217.91452 
L 421.666183 217.92403 
L 420.666183 217.935683 
L 419.666183 217.966713 
L 418.666183 217.97788 
L 417.666183 218.007998 
L 416.666183 218.067775 
L 415.666183 218.104966 
L 414.666183 218.144063 
L 413.666183 218.186502 
L 412.666183 218.219267 
L 411.666183 218.286694 
L 410.666183 218.32582 
L 409.666183 218.368494 
L 408.666183 218.439075 
L 407.666183 218.475466 
L 406.666183 218.533869 
L 405.666183 218.644821 
L 404.666183 218.71548 
L 403.666183 218.82842 
L 402.666183 218.874192 
L 401.666183 218.935476 
L 400.666183 218.983975 
L 399.666183 219.064798 
L 398.666183 219.183317 
L 397.666183 219.253527 
L 396.666183 219.33679 
L 395.666183 219.369931 
L 394.666183 219.421169 
L 393.666183 219.489567 
L 392.666183 219.555783 
L 391.666183 219.6327 
L 390.34593 219.660015 
" clip-path="url(#p809c149dc3)" style="fill: none; stroke: #2ca02c; stroke-opacity: 0.5; stroke-width: 0.2; stroke-linecap: square"/>
   </g>
   <g id="line2d_36">
    <path d="M 446.666183 61.889226 
L 445.666183 61.85779 
L 444.666183 61.82085 
L 443.666183 61.723103 
L 442.666183 61.690582 
L 441.666183 61.616957 
L 440.666183 61.578391 
L 439.666183 61.542978 
L 438.666183 61.485338 
L 437.666183 61.414952 
L 436.666183 61.362988 
L 435.666183 61.303898 
L 434.666183 61.215577 
L 433.666183 61.169433 
L 432.666183 61.127022 
L 431.666183 61.096529 
L 430.666183 61.070484 
L 429.666183 61.049284 
L 428.666183 60.994983 
L 427.666183 60.967045 
L 426.666183 60.937321 
L 425.666183 60.911927 
L 424.666183 60.900726 
L 423.666183 60.890602 
L 422.666183 60.890807 
L 421.666183 60.900317 
L 420.666183 60.91197 
L 419.666183 60.942999 
L 418.666183 60.954167 
L 417.666183 60.984285 
L 416.666183 61.044062 
L 415.666183 61.081253 
L 414.666183 61.120349 
L 413.666183 61.162789 
L 412.666183 61.195554 
L 411.666183 61.262981 
L 410.666183 61.302107 
L 409.666183 61.344781 
L 408.666183 61.415362 
L 407.666183 61.451753 
L 406.666183 61.510156 
L 405.666183 61.621108 
L 404.666183 61.691767 
L 403.666183 61.804706 
L 402.666183 61.850479 
L 401.666183 61.911763 
L 400.666183 61.960262 
L 399.666183 62.041085 
L 398.666183 62.159603 
L 397.666183 62.229814 
L 396.666183 62.313077 
L 395.666183 62.346218 
L 394.666183 62.397456 
L 393.666183 62.465854 
L 392.666183 62.532069 
L 391.666183 62.608987 
L 390.34593 62.636302 
" clip-path="url(#p809c149dc3)" style="fill: none; stroke: #2ca02c; stroke-opacity: 0.5; stroke-width: 0.2; stroke-linecap: square"/>
   </g>
   <g id="line2d_37">
    <path d="M 446.666183 190.259228 
L 445.666183 190.227792 
L 444.666183 190.190852 
L 443.666183 190.093105 
L 442.666183 190.060583 
L 441.666183 189.986959 
L 440.666183 189.948393 
L 439.666183 189.91298 
L 438.666183 189.85534 
L 437.666183 189.784954 
L 436.666183 189.73299 
L 435.666183 189.6739 
L 434.666183 189.585579 
L 433.666183 189.539435 
L 432.666183 189.497024 
L 431.666183 189.466531 
L 430.666183 189.440486 
L 429.666183 189.419286 
L 428.666183 189.364985 
L 427.666183 189.337047 
L 426.666183 189.307323 
L 425.666183 189.281929 
L 424.666183 189.270728 
L 423.666183 189.260604 
L 422.666183 189.260809 
L 421.666183 189.270318 
L 420.666183 189.281972 
L 419.666183 189.313001 
L 418.666183 189.324169 
L 417.666183 189.354287 
L 416.666183 189.414064 
L 415.666183 189.451255 
L 414.666183 189.490351 
L 413.666183 189.532791 
L 412.666183 189.565556 
L 411.666183 189.632983 
L 410.666183 189.672108 
L 409.666183 189.714783 
L 408.666183 189.785364 
L 407.666183 189.821754 
L 406.666183 189.880158 
L 405.666183 189.99111 
L 404.666183 190.061768 
L 403.666183 190.174708 
L 402.666183 190.220481 
L 401.666183 190.281764 
L 400.666183 190.330264 
L 399.666183 190.411086 
L 398.666183 190.529605 
L 397.666183 190.599816 
L 396.666183 190.683078 
L 395.666183 190.71622 
L 394.666183 190.767458 
L 393.666183 190.835856 
L 392.666183 190.902071 
L 391.666183 190.978988 
L 390.34593 191.006304 
" clip-path="url(#p809c149dc3)" style="fill: none; stroke: #2ca02c; stroke-opacity: 0.5; stroke-width: 0.2; stroke-linecap: square"/>
   </g>
   <g id="line2d_38">
    <path d="M 446.666183 129.854582 
L 445.666183 129.823146 
L 444.666183 129.786205 
L 443.666183 129.688459 
L 442.666183 129.655937 
L 441.666183 129.582313 
L 440.666183 129.543747 
L 439.666183 129.508334 
L 438.666183 129.450694 
L 437.666183 129.380308 
L 436.666183 129.328343 
L 435.666183 129.269254 
L 434.666183 129.180933 
L 433.666183 129.134788 
L 432.666183 129.092377 
L 431.666183 129.061885 
L 430.666183 129.03584 
L 429.666183 129.01464 
L 428.666183 128.960339 
L 427.666183 128.932401 
L 426.666183 128.902677 
L 425.666183 128.877282 
L 424.666183 128.866082 
L 423.666183 128.855958 
L 422.666183 128.856162 
L 421.666183 128.865672 
L 420.666183 128.877326 
L 419.666183 128.908355 
L 418.666183 128.919523 
L 417.666183 128.94964 
L 416.666183 129.009417 
L 415.666183 129.046609 
L 414.666183 129.085705 
L 413.666183 129.128145 
L 412.666183 129.16091 
L 411.666183 129.228336 
L 410.666183 129.267462 
L 409.666183 129.310137 
L 408.666183 129.380717 
L 407.666183 129.417108 
L 406.666183 129.475511 
L 405.666183 129.586464 
L 404.666183 129.657122 
L 403.666183 129.770062 
L 402.666183 129.815835 
L 401.666183 129.877118 
L 400.666183 129.925618 
L 399.666183 130.00644 
L 398.666183 130.124959 
L 397.666183 130.19517 
L 396.666183 130.278432 
L 395.666183 130.311574 
L 394.666183 130.362811 
L 393.666183 130.43121 
L 392.666183 130.497425 
L 391.666183 130.574342 
L 390.34593 130.601658 
" clip-path="url(#p809c149dc3)" style="fill: none; stroke: #2ca02c; stroke-opacity: 0.5; stroke-width: 0.2; stroke-linecap: square"/>
   </g>
   <g id="line2d_39">
    <path d="M 446.666183 157.357173 
L 445.666183 157.325737 
L 444.666183 157.288796 
L 443.666183 157.19105 
L 442.666183 157.158528 
L 441.666183 157.084904 
L 440.666183 157.046338 
L 439.666183 157.010925 
L 438.666183 156.953285 
L 437.666183 156.882899 
L 436.666183 156.830934 
L 435.666183 156.771845 
L 434.666183 156.683524 
L 433.666183 156.637379 
L 432.666183 156.594968 
L 431.666183 156.564476 
L 430.666183 156.538431 
L 429.666183 156.517231 
L 428.666183 156.46293 
L 427.666183 156.434992 
L 426.666183 156.405268 
L 425.666183 156.379873 
L 424.666183 156.368673 
L 423.666183 156.358549 
L 422.666183 156.358753 
L 421.666183 156.368263 
L 420.666183 156.379917 
L 419.666183 156.410946 
L 418.666183 156.422114 
L 417.666183 156.452231 
L 416.666183 156.512008 
L 415.666183 156.5492 
L 414.666183 156.588296 
L 413.666183 156.630736 
L 412.666183 156.663501 
L 411.666183 156.730927 
L 410.666183 156.770053 
L 409.666183 156.812728 
L 408.666183 156.883308 
L 407.666183 156.919699 
L 406.666183 156.978102 
L 405.666183 157.089055 
L 404.666183 157.159713 
L 403.666183 157.272653 
L 402.666183 157.318426 
L 401.666183 157.379709 
L 400.666183 157.428208 
L 399.666183 157.509031 
L 398.666183 157.62755 
L 397.666183 157.697761 
L 396.666183 157.781023 
L 395.666183 157.814165 
L 394.666183 157.865402 
L 393.666183 157.933801 
L 392.666183 158.000016 
L 391.666183 158.076933 
L 390.34593 158.104249 
" clip-path="url(#p809c149dc3)" style="fill: none; stroke: #2ca02c; stroke-opacity: 0.5; stroke-width: 0.2; stroke-linecap: square"/>
   </g>
   <g id="line2d_40">
    <path d="M 446.666183 291.736069 
L 445.666183 291.704633 
L 444.666183 291.667692 
L 443.666183 291.569946 
L 442.666183 291.537424 
L 441.666183 291.4638 
L 440.666183 291.425234 
L 439.666183 291.389821 
L 438.666183 291.332181 
L 437.666183 291.261795 
L 436.666183 291.209831 
L 435.666183 291.150741 
L 434.666183 291.06242 
L 433.666183 291.016275 
L 432.666183 290.973865 
L 431.666183 290.943372 
L 430.666183 290.917327 
L 429.666183 290.896127 
L 428.666183 290.841826 
L 427.666183 290.813888 
L 426.666183 290.784164 
L 425.666183 290.758769 
L 424.666183 290.747569 
L 423.666183 290.737445 
L 422.666183 290.737649 
L 421.666183 290.747159 
L 420.666183 290.758813 
L 419.666183 290.789842 
L 418.666183 290.80101 
L 417.666183 290.831128 
L 416.666183 290.890904 
L 415.666183 290.928096 
L 414.666183 290.967192 
L 413.666183 291.009632 
L 412.666183 291.042397 
L 411.666183 291.109823 
L 410.666183 291.148949 
L 409.666183 291.191624 
L 408.666183 291.262204 
L 407.666183 291.298595 
L 406.666183 291.356998 
L 405.666183 291.467951 
L 404.666183 291.538609 
L 403.666183 291.651549 
L 402.666183 291.697322 
L 401.666183 291.758605 
L 400.666183 291.807105 
L 399.666183 291.887927 
L 398.666183 292.006446 
L 397.666183 292.076657 
L 396.666183 292.159919 
L 395.666183 292.193061 
L 394.666183 292.244298 
L 393.666183 292.312697 
L 392.666183 292.378912 
L 391.666183 292.455829 
L 390.34593 292.483145 
" clip-path="url(#p809c149dc3)" style="fill: none; stroke: #2ca02c; stroke-opacity: 0.5; stroke-width: 0.2; stroke-linecap: square"/>
   </g>
   <g id="patch_3">
    <path d="M 72.103551 22.318125 
L 72.103551 318.021875 
M 194.769098 22.318125 
L 194.769098 318.021875 
" clip-path="url(#p809c149dc3)" style="fill: none; stroke: #ffffff; stroke-width: 3; stroke-linejoin: miter"/>
    <path d="M 72.103551 22.318125 
L 72.103551 318.021875 
M 194.769098 22.318125 
L 194.769098 318.021875 
" clip-path="url(#p809c149dc3)" style="fill: none; stroke: #1f77b4; stroke-linejoin: miter"/>
   </g>
   <g id="FillBetweenPolyCollection_1">
    <path d="M 194.769098 22.318125 
L 72.103551 22.318125 
L 72.103551 318.021875 
L 194.769098 318.021875 
L 194.769098 318.021875 
L 194.769098 22.318125 
z
" clip-path="url(#p809c149dc3)" style="fill: #1f77b4; fill-opacity: 0.5"/>
   </g>
   <g id="patch_4">
    <path d="M 262.150039 22.318125 
L 262.150039 318.021875 
M 384.815586 22.318125 
L 384.815586 318.021875 
" clip-path="url(#p809c149dc3)" style="fill: none; stroke: #ffffff; stroke-width: 3; stroke-linejoin: miter"/>
    <path d="M 262.150039 22.318125 
L 262.150039 318.021875 
M 384.815586 22.318125 
L 384.815586 318.021875 
" clip-path="url(#p809c149dc3)" style="fill: none; stroke: #ff7f0e; stroke-linejoin: miter"/>
   </g>
   <g id="FillBetweenPolyCollection_2">
    <path d="M 384.815586 22.318125 
L 262.150039 22.318125 
L 262.150039 318.021875 
L 384.815586 318.021875 
L 384.815586 318.021875 
L 384.815586 22.318125 
z
" clip-path="url(#p809c149dc3)" style="fill: #ff7f0e; fill-opacity: 0.5"/>
   </g>
   <g id="patch_5">
    <path d="M 452.196527 22.318125 
L 452.196527 318.021875 
M 574.862074 22.318125 
L 574.862074 318.021875 
" clip-path="url(#p809c149dc3)" style="fill: none; stroke: #ffffff; stroke-width: 3; stroke-linejoin: miter"/>
    <path d="M 452.196527 22.318125 
L 452.196527 318.021875 
M 574.862074 22.318125 
L 574.862074 318.021875 
" clip-path="url(#p809c149dc3)" style="fill: none; stroke: #2ca02c; stroke-linejoin: miter"/>
   </g>
   <g id="FillBetweenPolyCollection_3">
    <path d="M 574.862074 22.318125 
L 452.196527 22.318125 
L 452.196527 318.021875 
L 574.862074 318.021875 
L 574.862074 318.021875 
L 574.862074 22.318125 
z
" clip-path="url(#p809c149dc3)" style="fill: #2ca02c; fill-opacity: 0.5"/>
   </g>
   <g id="matplotlib.axis_1">
    <g id="xtick_1">
     <g id="line2d_41"/>
     <g id="text_1">
      <!-- deme1 -->
      <g transform="translate(116.057418 329.120312) scale(0.1 -0.1)">
       <defs>
        <path id="DejaVuSans-64" d="M 2906 2969 
L 2906 4863 
L 3481 4863 
L 3481 0 
L 2906 0 
L 2906 525 
Q 2725 213 2448 61 
Q 2172 -91 1784 -91 
Q 1150 -91 751 415 
Q 353 922 353 1747 
Q 353 2572 751 3078 
Q 1150 3584 1784 3584 
Q 2172 3584 2448 3432 
Q 2725 3281 2906 2969 
z
M 947 1747 
Q 947 1113 1208 752 
Q 1469 391 1925 391 
Q 2381 391 2643 752 
Q 2906 1113 2906 1747 
Q 2906 2381 2643 2742 
Q 2381 3103 1925 3103 
Q 1469 3103 1208 2742 
Q 947 2381 947 1747 
z
" transform="scale(0.015625)"/>
        <path id="DejaVuSans-65" d="M 3597 1894 
L 3597 1613 
L 953 1613 
Q 991 1019 1311 708 
Q 1631 397 2203 397 
Q 2534 397 2845 478 
Q 3156 559 3463 722 
L 3463 178 
Q 3153 47 2828 -22 
Q 2503 -91 2169 -91 
Q 1331 -91 842 396 
Q 353 884 353 1716 
Q 353 2575 817 3079 
Q 1281 3584 2069 3584 
Q 2775 3584 3186 3129 
Q 3597 2675 3597 1894 
z
M 3022 2063 
Q 3016 2534 2758 2815 
Q 2500 3097 2075 3097 
Q 1594 3097 1305 2825 
Q 1016 2553 972 2059 
L 3022 2063 
z
" transform="scale(0.015625)"/>
        <path id="DejaVuSans-6d" d="M 3328 2828 
Q 3544 3216 3844 3400 
Q 4144 3584 4550 3584 
Q 5097 3584 5394 3201 
Q 5691 2819 5691 2113 
L 5691 0 
L 5113 0 
L 5113 2094 
Q 5113 2597 4934 2840 
Q 4756 3084 4391 3084 
Q 3944 3084 3684 2787 
Q 3425 2491 3425 1978 
L 3425 0 
L 2847 0 
L 2847 2094 
Q 2847 2600 2669 2842 
Q 2491 3084 2119 3084 
Q 1678 3084 1418 2786 
Q 1159 2488 1159 1978 
L 1159 0 
L 581 0 
L 581 3500 
L 1159 3500 
L 1159 2956 
Q 1356 3278 1631 3431 
Q 1906 3584 2284 3584 
Q 2666 3584 2933 3390 
Q 3200 3197 3328 2828 
z
" transform="scale(0.015625)"/>
        <path id="DejaVuSans-31" d="M 794 531 
L 1825 531 
L 1825 4091 
L 703 3866 
L 703 4441 
L 1819 4666 
L 2450 4666 
L 2450 531 
L 3481 531 
L 3481 0 
L 794 0 
L 794 531 
z
" transform="scale(0.015625)"/>
       </defs>
       <use xlink:href="#DejaVuSans-64"/>
       <use xlink:href="#DejaVuSans-65" transform="translate(63.476562 0)"/>
       <use xlink:href="#DejaVuSans-6d" transform="translate(125 0)"/>
       <use xlink:href="#DejaVuSans-65" transform="translate(222.412109 0)"/>
       <use xlink:href="#DejaVuSans-31" transform="translate(283.935547 0)"/>
      </g>
     </g>
    </g>
    <g id="xtick_2">
     <g id="line2d_42"/>
     <g id="text_2">
      <!-- deme2 -->
      <g transform="translate(306.103906 329.120312) scale(0.1 -0.1)">
       <defs>
        <path id="DejaVuSans-32" d="M 1228 531 
L 3431 531 
L 3431 0 
L 469 0 
L 469 531 
Q 828 903 1448 1529 
Q 2069 2156 2228 2338 
Q 2531 2678 2651 2914 
Q 2772 3150 2772 3378 
Q 2772 3750 2511 3984 
Q 2250 4219 1831 4219 
Q 1534 4219 1204 4116 
Q 875 4013 500 3803 
L 500 4441 
Q 881 4594 1212 4672 
Q 1544 4750 1819 4750 
Q 2544 4750 2975 4387 
Q 3406 4025 3406 3419 
Q 3406 3131 3298 2873 
Q 3191 2616 2906 2266 
Q 2828 2175 2409 1742 
Q 1991 1309 1228 531 
z
" transform="scale(0.015625)"/>
       </defs>
       <use xlink:href="#DejaVuSans-64"/>
       <use xlink:href="#DejaVuSans-65" transform="translate(63.476562 0)"/>
       <use xlink:href="#DejaVuSans-6d" transform="translate(125 0)"/>
       <use xlink:href="#DejaVuSans-65" transform="translate(222.412109 0)"/>
       <use xlink:href="#DejaVuSans-32" transform="translate(283.935547 0)"/>
      </g>
     </g>
    </g>
    <g id="xtick_3">
     <g id="line2d_43"/>
     <g id="text_3">
      <!-- deme3 -->
      <g transform="translate(496.150394 329.120312) scale(0.1 -0.1)">
       <defs>
        <path id="DejaVuSans-33" d="M 2597 2516 
Q 3050 2419 3304 2112 
Q 3559 1806 3559 1356 
Q 3559 666 3084 287 
Q 2609 -91 1734 -91 
Q 1441 -91 1130 -33 
Q 819 25 488 141 
L 488 750 
Q 750 597 1062 519 
Q 1375 441 1716 441 
Q 2309 441 2620 675 
Q 2931 909 2931 1356 
Q 2931 1769 2642 2001 
Q 2353 2234 1838 2234 
L 1294 2234 
L 1294 2753 
L 1863 2753 
Q 2328 2753 2575 2939 
Q 2822 3125 2822 3475 
Q 2822 3834 2567 4026 
Q 2313 4219 1838 4219 
Q 1578 4219 1281 4162 
Q 984 4106 628 3988 
L 628 4550 
Q 988 4650 1302 4700 
Q 1616 4750 1894 4750 
Q 2613 4750 3031 4423 
Q 3450 4097 3450 3541 
Q 3450 3153 3228 2886 
Q 3006 2619 2597 2516 
z
" transform="scale(0.015625)"/>
       </defs>
       <use xlink:href="#DejaVuSans-64"/>
       <use xlink:href="#DejaVuSans-65" transform="translate(63.476562 0)"/>
       <use xlink:href="#DejaVuSans-6d" transform="translate(125 0)"/>
       <use xlink:href="#DejaVuSans-65" transform="translate(222.412109 0)"/>
       <use xlink:href="#DejaVuSans-33" transform="translate(283.935547 0)"/>
      </g>
     </g>
    </g>
   </g>
   <g id="matplotlib.axis_2">
    <g id="ytick_1">
     <g id="line2d_44">
      <defs>
       <path id="me3ae8aa0fa" d="M 0 0 
L -3.5 0 
" style="stroke: #000000; stroke-width: 0.8"/>
      </defs>
      <g>
       <use xlink:href="#me3ae8aa0fa" x="46.965625" y="318.021875" style="stroke: #000000; stroke-width: 0.8"/>
      </g>
     </g>
     <g id="text_4">
      <!-- 0 -->
      <g transform="translate(33.603125 321.821094) scale(0.1 -0.1)">
       <defs>
        <path id="DejaVuSans-30" d="M 2034 4250 
Q 1547 4250 1301 3770 
Q 1056 3291 1056 2328 
Q 1056 1369 1301 889 
Q 1547 409 2034 409 
Q 2525 409 2770 889 
Q 3016 1369 3016 2328 
Q 3016 3291 2770 3770 
Q 2525 4250 2034 4250 
z
M 2034 4750 
Q 2819 4750 3233 4129 
Q 3647 3509 3647 2328 
Q 3647 1150 3233 529 
Q 2819 -91 2034 -91 
Q 1250 -91 836 529 
Q 422 1150 422 2328 
Q 422 3509 836 4129 
Q 1250 4750 2034 4750 
z
" transform="scale(0.015625)"/>
       </defs>
       <use xlink:href="#DejaVuSans-30"/>
      </g>
     </g>
    </g>
    <g id="ytick_2">
     <g id="line2d_45">
      <g>
       <use xlink:href="#me3ae8aa0fa" x="46.965625" y="265.684928" style="stroke: #000000; stroke-width: 0.8"/>
      </g>
     </g>
     <g id="text_5">
      <!-- 20 -->
      <g transform="translate(27.240625 269.484147) scale(0.1 -0.1)">
       <use xlink:href="#DejaVuSans-32"/>
       <use xlink:href="#DejaVuSans-30" transform="translate(63.623047 0)"/>
      </g>
     </g>
    </g>
    <g id="ytick_3">
     <g id="line2d_46">
      <g>
       <use xlink:href="#me3ae8aa0fa" x="46.965625" y="213.347981" style="stroke: #000000; stroke-width: 0.8"/>
      </g>
     </g>
     <g id="text_6">
      <!-- 40 -->
      <g transform="translate(27.240625 217.1472) scale(0.1 -0.1)">
       <defs>
        <path id="DejaVuSans-34" d="M 2419 4116 
L 825 1625 
L 2419 1625 
L 2419 4116 
z
M 2253 4666 
L 3047 4666 
L 3047 1625 
L 3713 1625 
L 3713 1100 
L 3047 1100 
L 3047 0 
L 2419 0 
L 2419 1100 
L 313 1100 
L 313 1709 
L 2253 4666 
z
" transform="scale(0.015625)"/>
       </defs>
       <use xlink:href="#DejaVuSans-34"/>
       <use xlink:href="#DejaVuSans-30" transform="translate(63.623047 0)"/>
      </g>
     </g>
    </g>
    <g id="ytick_4">
     <g id="line2d_47">
      <g>
       <use xlink:href="#me3ae8aa0fa" x="46.965625" y="161.011034" style="stroke: #000000; stroke-width: 0.8"/>
      </g>
     </g>
     <g id="text_7">
      <!-- 60 -->
      <g transform="translate(27.240625 164.810253) scale(0.1 -0.1)">
       <defs>
        <path id="DejaVuSans-36" d="M 2113 2584 
Q 1688 2584 1439 2293 
Q 1191 2003 1191 1497 
Q 1191 994 1439 701 
Q 1688 409 2113 409 
Q 2538 409 2786 701 
Q 3034 994 3034 1497 
Q 3034 2003 2786 2293 
Q 2538 2584 2113 2584 
z
M 3366 4563 
L 3366 3988 
Q 3128 4100 2886 4159 
Q 2644 4219 2406 4219 
Q 1781 4219 1451 3797 
Q 1122 3375 1075 2522 
Q 1259 2794 1537 2939 
Q 1816 3084 2150 3084 
Q 2853 3084 3261 2657 
Q 3669 2231 3669 1497 
Q 3669 778 3244 343 
Q 2819 -91 2113 -91 
Q 1303 -91 875 529 
Q 447 1150 447 2328 
Q 447 3434 972 4092 
Q 1497 4750 2381 4750 
Q 2619 4750 2861 4703 
Q 3103 4656 3366 4563 
z
" transform="scale(0.015625)"/>
       </defs>
       <use xlink:href="#DejaVuSans-36"/>
       <use xlink:href="#DejaVuSans-30" transform="translate(63.623047 0)"/>
      </g>
     </g>
    </g>
    <g id="ytick_5">
     <g id="line2d_48">
      <g>
       <use xlink:href="#me3ae8aa0fa" x="46.965625" y="108.674087" style="stroke: #000000; stroke-width: 0.8"/>
      </g>
     </g>
     <g id="text_8">
      <!-- 80 -->
      <g transform="translate(27.240625 112.473306) scale(0.1 -0.1)">
       <defs>
        <path id="DejaVuSans-38" d="M 2034 2216 
Q 1584 2216 1326 1975 
Q 1069 1734 1069 1313 
Q 1069 891 1326 650 
Q 1584 409 2034 409 
Q 2484 409 2743 651 
Q 3003 894 3003 1313 
Q 3003 1734 2745 1975 
Q 2488 2216 2034 2216 
z
M 1403 2484 
Q 997 2584 770 2862 
Q 544 3141 544 3541 
Q 544 4100 942 4425 
Q 1341 4750 2034 4750 
Q 2731 4750 3128 4425 
Q 3525 4100 3525 3541 
Q 3525 3141 3298 2862 
Q 3072 2584 2669 2484 
Q 3125 2378 3379 2068 
Q 3634 1759 3634 1313 
Q 3634 634 3220 271 
Q 2806 -91 2034 -91 
Q 1263 -91 848 271 
Q 434 634 434 1313 
Q 434 1759 690 2068 
Q 947 2378 1403 2484 
z
M 1172 3481 
Q 1172 3119 1398 2916 
Q 1625 2713 2034 2713 
Q 2441 2713 2670 2916 
Q 2900 3119 2900 3481 
Q 2900 3844 2670 4047 
Q 2441 4250 2034 4250 
Q 1625 4250 1398 4047 
Q 1172 3844 1172 3481 
z
" transform="scale(0.015625)"/>
       </defs>
       <use xlink:href="#DejaVuSans-38"/>
       <use xlink:href="#DejaVuSans-30" transform="translate(63.623047 0)"/>
      </g>
     </g>
    </g>
    <g id="ytick_6">
     <g id="line2d_49">
      <g>
       <use xlink:href="#me3ae8aa0fa" x="46.965625" y="56.33714" style="stroke: #000000; stroke-width: 0.8"/>
      </g>
     </g>
     <g id="text_9">
      <!-- 100 -->
      <g transform="translate(20.878125 60.136359) scale(0.1 -0.1)">
       <use xlink:href="#DejaVuSans-31"/>
       <use xlink:href="#DejaVuSans-30" transform="translate(63.623047 0)"/>
       <use xlink:href="#DejaVuSans-30" transform="translate(127.246094 0)"/>
      </g>
     </g>
    </g>
    <g id="text_10">
     <!-- time ago (years) -->
     <g transform="translate(14.798437 211.603594) rotate(-90) scale(0.1 -0.1)">
      <defs>
       <path id="DejaVuSans-74" d="M 1172 4494 
L 1172 3500 
L 2356 3500 
L 2356 3053 
L 1172 3053 
L 1172 1153 
Q 1172 725 1289 603 
Q 1406 481 1766 481 
L 2356 481 
L 2356 0 
L 1766 0 
Q 1100 0 847 248 
Q 594 497 594 1153 
L 594 3053 
L 172 3053 
L 172 3500 
L 594 3500 
L 594 4494 
L 1172 4494 
z
" transform="scale(0.015625)"/>
       <path id="DejaVuSans-69" d="M 603 3500 
L 1178 3500 
L 1178 0 
L 603 0 
L 603 3500 
z
M 603 4863 
L 1178 4863 
L 1178 4134 
L 603 4134 
L 603 4863 
z
" transform="scale(0.015625)"/>
       <path id="DejaVuSans-20" transform="scale(0.015625)"/>
       <path id="DejaVuSans-61" d="M 2194 1759 
Q 1497 1759 1228 1600 
Q 959 1441 959 1056 
Q 959 750 1161 570 
Q 1363 391 1709 391 
Q 2188 391 2477 730 
Q 2766 1069 2766 1631 
L 2766 1759 
L 2194 1759 
z
M 3341 1997 
L 3341 0 
L 2766 0 
L 2766 531 
Q 2569 213 2275 61 
Q 1981 -91 1556 -91 
Q 1019 -91 701 211 
Q 384 513 384 1019 
Q 384 1609 779 1909 
Q 1175 2209 1959 2209 
L 2766 2209 
L 2766 2266 
Q 2766 2663 2505 2880 
Q 2244 3097 1772 3097 
Q 1472 3097 1187 3025 
Q 903 2953 641 2809 
L 641 3341 
Q 956 3463 1253 3523 
Q 1550 3584 1831 3584 
Q 2591 3584 2966 3190 
Q 3341 2797 3341 1997 
z
" transform="scale(0.015625)"/>
       <path id="DejaVuSans-67" d="M 2906 1791 
Q 2906 2416 2648 2759 
Q 2391 3103 1925 3103 
Q 1463 3103 1205 2759 
Q 947 2416 947 1791 
Q 947 1169 1205 825 
Q 1463 481 1925 481 
Q 2391 481 2648 825 
Q 2906 1169 2906 1791 
z
M 3481 434 
Q 3481 -459 3084 -895 
Q 2688 -1331 1869 -1331 
Q 1566 -1331 1297 -1286 
Q 1028 -1241 775 -1147 
L 775 -588 
Q 1028 -725 1275 -790 
Q 1522 -856 1778 -856 
Q 2344 -856 2625 -561 
Q 2906 -266 2906 331 
L 2906 616 
Q 2728 306 2450 153 
Q 2172 0 1784 0 
Q 1141 0 747 490 
Q 353 981 353 1791 
Q 353 2603 747 3093 
Q 1141 3584 1784 3584 
Q 2172 3584 2450 3431 
Q 2728 3278 2906 2969 
L 2906 3500 
L 3481 3500 
L 3481 434 
z
" transform="scale(0.015625)"/>
       <path id="DejaVuSans-6f" d="M 1959 3097 
Q 1497 3097 1228 2736 
Q 959 2375 959 1747 
Q 959 1119 1226 758 
Q 1494 397 1959 397 
Q 2419 397 2687 759 
Q 2956 1122 2956 1747 
Q 2956 2369 2687 2733 
Q 2419 3097 1959 3097 
z
M 1959 3584 
Q 2709 3584 3137 3096 
Q 3566 2609 3566 1747 
Q 3566 888 3137 398 
Q 2709 -91 1959 -91 
Q 1206 -91 779 398 
Q 353 888 353 1747 
Q 353 2609 779 3096 
Q 1206 3584 1959 3584 
z
" transform="scale(0.015625)"/>
       <path id="DejaVuSans-28" d="M 1984 4856 
Q 1566 4138 1362 3434 
Q 1159 2731 1159 2009 
Q 1159 1288 1364 580 
Q 1569 -128 1984 -844 
L 1484 -844 
Q 1016 -109 783 600 
Q 550 1309 550 2009 
Q 550 2706 781 3412 
Q 1013 4119 1484 4856 
L 1984 4856 
z
" transform="scale(0.015625)"/>
       <path id="DejaVuSans-79" d="M 2059 -325 
Q 1816 -950 1584 -1140 
Q 1353 -1331 966 -1331 
L 506 -1331 
L 506 -850 
L 844 -850 
Q 1081 -850 1212 -737 
Q 1344 -625 1503 -206 
L 1606 56 
L 191 3500 
L 800 3500 
L 1894 763 
L 2988 3500 
L 3597 3500 
L 2059 -325 
z
" transform="scale(0.015625)"/>
       <path id="DejaVuSans-72" d="M 2631 2963 
Q 2534 3019 2420 3045 
Q 2306 3072 2169 3072 
Q 1681 3072 1420 2755 
Q 1159 2438 1159 1844 
L 1159 0 
L 581 0 
L 581 3500 
L 1159 3500 
L 1159 2956 
Q 1341 3275 1631 3429 
Q 1922 3584 2338 3584 
Q 2397 3584 2469 3576 
Q 2541 3569 2628 3553 
L 2631 2963 
z
" transform="scale(0.015625)"/>
       <path id="DejaVuSans-73" d="M 2834 3397 
L 2834 2853 
Q 2591 2978 2328 3040 
Q 2066 3103 1784 3103 
Q 1356 3103 1142 2972 
Q 928 2841 928 2578 
Q 928 2378 1081 2264 
Q 1234 2150 1697 2047 
L 1894 2003 
Q 2506 1872 2764 1633 
Q 3022 1394 3022 966 
Q 3022 478 2636 193 
Q 2250 -91 1575 -91 
Q 1294 -91 989 -36 
Q 684 19 347 128 
L 347 722 
Q 666 556 975 473 
Q 1284 391 1588 391 
Q 1994 391 2212 530 
Q 2431 669 2431 922 
Q 2431 1156 2273 1281 
Q 2116 1406 1581 1522 
L 1381 1569 
Q 847 1681 609 1914 
Q 372 2147 372 2553 
Q 372 3047 722 3315 
Q 1072 3584 1716 3584 
Q 2034 3584 2315 3537 
Q 2597 3491 2834 3397 
z
" transform="scale(0.015625)"/>
       <path id="DejaVuSans-29" d="M 513 4856 
L 1013 4856 
Q 1481 4119 1714 3412 
Q 1947 2706 1947 2009 
Q 1947 1309 1714 600 
Q 1481 -109 1013 -844 
L 513 -844 
Q 928 -128 1133 580 
Q 1338 1288 1338 2009 
Q 1338 2731 1133 3434 
Q 928 4138 513 4856 
z
" transform="scale(0.015625)"/>
      </defs>
      <use xlink:href="#DejaVuSans-74"/>
      <use xlink:href="#DejaVuSans-69" transform="translate(39.208984 0)"/>
      <use xlink:href="#DejaVuSans-6d" transform="translate(66.992188 0)"/>
      <use xlink:href="#DejaVuSans-65" transform="translate(164.404297 0)"/>
      <use xlink:href="#DejaVuSans-20" transform="translate(225.927734 0)"/>
      <use xlink:href="#DejaVuSans-61" transform="translate(257.714844 0)"/>
      <use xlink:href="#DejaVuSans-67" transform="translate(318.994141 0)"/>
      <use xlink:href="#DejaVuSans-6f" transform="translate(382.470703 0)"/>
      <use xlink:href="#DejaVuSans-20" transform="translate(443.652344 0)"/>
      <use xlink:href="#DejaVuSans-28" transform="translate(475.439453 0)"/>
      <use xlink:href="#DejaVuSans-79" transform="translate(514.453125 0)"/>
      <use xlink:href="#DejaVuSans-65" transform="translate(573.632812 0)"/>
      <use xlink:href="#DejaVuSans-61" transform="translate(635.15625 0)"/>
      <use xlink:href="#DejaVuSans-72" transform="translate(696.435547 0)"/>
      <use xlink:href="#DejaVuSans-73" transform="translate(737.548828 0)"/>
      <use xlink:href="#DejaVuSans-29" transform="translate(789.648438 0)"/>
     </g>
    </g>
   </g>
   <g id="line2d_50">
    <path d="M 257.619695 103.013836 
L 255.619695 102.013836 
L 255.619695 104.013836 
z
" clip-path="url(#p809c149dc3)" style="fill: #1f77b4; fill-opacity: 0.5; stroke: #1f77b4; stroke-opacity: 0.5; stroke-linejoin: miter"/>
   </g>
   <g id="line2d_51">
    <path d="M 257.619695 216.101043 
L 255.619695 215.101043 
L 255.619695 217.101043 
z
" clip-path="url(#p809c149dc3)" style="fill: #1f77b4; fill-opacity: 0.5; stroke: #1f77b4; stroke-opacity: 0.5; stroke-linejoin: miter"/>
   </g>
   <g id="line2d_52">
    <path d="M 257.619695 172.577246 
L 255.619695 171.577246 
L 255.619695 173.577246 
z
" clip-path="url(#p809c149dc3)" style="fill: #1f77b4; fill-opacity: 0.5; stroke: #1f77b4; stroke-opacity: 0.5; stroke-linejoin: miter"/>
   </g>
   <g id="line2d_53">
    <path d="M 257.619695 203.882947 
L 255.619695 202.882947 
L 255.619695 204.882947 
z
" clip-path="url(#p809c149dc3)" style="fill: #1f77b4; fill-opacity: 0.5; stroke: #1f77b4; stroke-opacity: 0.5; stroke-linejoin: miter"/>
   </g>
   <g id="line2d_54">
    <path d="M 257.619695 292.323482 
L 255.619695 291.323482 
L 255.619695 293.323482 
z
" clip-path="url(#p809c149dc3)" style="fill: #1f77b4; fill-opacity: 0.5; stroke: #1f77b4; stroke-opacity: 0.5; stroke-linejoin: miter"/>
   </g>
   <g id="line2d_55">
    <path d="M 257.619695 55.734407 
L 255.619695 54.734407 
L 255.619695 56.734407 
z
" clip-path="url(#p809c149dc3)" style="fill: #1f77b4; fill-opacity: 0.5; stroke: #1f77b4; stroke-opacity: 0.5; stroke-linejoin: miter"/>
   </g>
   <g id="line2d_56">
    <path d="M 257.619695 99.947277 
L 255.619695 98.947277 
L 255.619695 100.947277 
z
" clip-path="url(#p809c149dc3)" style="fill: #1f77b4; fill-opacity: 0.5; stroke: #1f77b4; stroke-opacity: 0.5; stroke-linejoin: miter"/>
   </g>
   <g id="line2d_57">
    <path d="M 257.619695 219.91589 
L 255.619695 218.91589 
L 255.619695 220.91589 
z
" clip-path="url(#p809c149dc3)" style="fill: #1f77b4; fill-opacity: 0.5; stroke: #1f77b4; stroke-opacity: 0.5; stroke-linejoin: miter"/>
   </g>
   <g id="line2d_58">
    <path d="M 257.619695 115.038206 
L 255.619695 114.038206 
L 255.619695 116.038206 
z
" clip-path="url(#p809c149dc3)" style="fill: #1f77b4; fill-opacity: 0.5; stroke: #1f77b4; stroke-opacity: 0.5; stroke-linejoin: miter"/>
   </g>
   <g id="line2d_59">
    <path d="M 257.619695 207.929232 
L 255.619695 206.929232 
L 255.619695 208.929232 
z
" clip-path="url(#p809c149dc3)" style="fill: #1f77b4; fill-opacity: 0.5; stroke: #1f77b4; stroke-opacity: 0.5; stroke-linejoin: miter"/>
   </g>
   <g id="line2d_60">
    <path d="M 199.299442 173.292616 
L 201.299442 174.292616 
L 201.299442 172.292616 
z
" clip-path="url(#p809c149dc3)" style="fill: #ff7f0e; fill-opacity: 0.5; stroke: #ff7f0e; stroke-opacity: 0.5; stroke-linejoin: miter"/>
   </g>
   <g id="line2d_61">
    <path d="M 199.299442 148.035024 
L 201.299442 149.035024 
L 201.299442 147.035024 
z
" clip-path="url(#p809c149dc3)" style="fill: #ff7f0e; fill-opacity: 0.5; stroke: #ff7f0e; stroke-opacity: 0.5; stroke-linejoin: miter"/>
   </g>
   <g id="line2d_62">
    <path d="M 199.299442 166.179583 
L 201.299442 167.179583 
L 201.299442 165.179583 
z
" clip-path="url(#p809c149dc3)" style="fill: #ff7f0e; fill-opacity: 0.5; stroke: #ff7f0e; stroke-opacity: 0.5; stroke-linejoin: miter"/>
   </g>
   <g id="line2d_63">
    <path d="M 199.299442 66.65847 
L 201.299442 67.65847 
L 201.299442 65.65847 
z
" clip-path="url(#p809c149dc3)" style="fill: #ff7f0e; fill-opacity: 0.5; stroke: #ff7f0e; stroke-opacity: 0.5; stroke-linejoin: miter"/>
   </g>
   <g id="line2d_64">
    <path d="M 199.299442 221.280882 
L 201.299442 222.280882 
L 201.299442 220.280882 
z
" clip-path="url(#p809c149dc3)" style="fill: #ff7f0e; fill-opacity: 0.5; stroke: #ff7f0e; stroke-opacity: 0.5; stroke-linejoin: miter"/>
   </g>
   <g id="line2d_65">
    <path d="M 199.299442 54.445893 
L 201.299442 55.445893 
L 201.299442 53.445893 
z
" clip-path="url(#p809c149dc3)" style="fill: #ff7f0e; fill-opacity: 0.5; stroke: #ff7f0e; stroke-opacity: 0.5; stroke-linejoin: miter"/>
   </g>
   <g id="line2d_66">
    <path d="M 199.299442 291.916813 
L 201.299442 292.916813 
L 201.299442 290.916813 
z
" clip-path="url(#p809c149dc3)" style="fill: #ff7f0e; fill-opacity: 0.5; stroke: #ff7f0e; stroke-opacity: 0.5; stroke-linejoin: miter"/>
   </g>
   <g id="line2d_67">
    <path d="M 199.299442 311.070424 
L 201.299442 312.070424 
L 201.299442 310.070424 
z
" clip-path="url(#p809c149dc3)" style="fill: #ff7f0e; fill-opacity: 0.5; stroke: #ff7f0e; stroke-opacity: 0.5; stroke-linejoin: miter"/>
   </g>
   <g id="line2d_68">
    <path d="M 199.299442 270.412303 
L 201.299442 271.412303 
L 201.299442 269.412303 
z
" clip-path="url(#p809c149dc3)" style="fill: #ff7f0e; fill-opacity: 0.5; stroke: #ff7f0e; stroke-opacity: 0.5; stroke-linejoin: miter"/>
   </g>
   <g id="line2d_69">
    <path d="M 199.299442 292.886974 
L 201.299442 293.886974 
L 201.299442 291.886974 
z
" clip-path="url(#p809c149dc3)" style="fill: #ff7f0e; fill-opacity: 0.5; stroke: #ff7f0e; stroke-opacity: 0.5; stroke-linejoin: miter"/>
   </g>
   <g id="line2d_70">
    <path d="M 447.666183 81.156175 
L 445.666183 80.156175 
L 445.666183 82.156175 
z
" clip-path="url(#p809c149dc3)" style="fill: #ff7f0e; fill-opacity: 0.5; stroke: #ff7f0e; stroke-opacity: 0.5; stroke-linejoin: miter"/>
   </g>
   <g id="line2d_71">
    <path d="M 447.666183 274.370123 
L 445.666183 273.370123 
L 445.666183 275.370123 
z
" clip-path="url(#p809c149dc3)" style="fill: #ff7f0e; fill-opacity: 0.5; stroke: #ff7f0e; stroke-opacity: 0.5; stroke-linejoin: miter"/>
   </g>
   <g id="line2d_72">
    <path d="M 447.666183 220.439445 
L 445.666183 219.439445 
L 445.666183 221.439445 
z
" clip-path="url(#p809c149dc3)" style="fill: #ff7f0e; fill-opacity: 0.5; stroke: #ff7f0e; stroke-opacity: 0.5; stroke-linejoin: miter"/>
   </g>
   <g id="line2d_73">
    <path d="M 447.666183 146.18338 
L 445.666183 145.18338 
L 445.666183 147.18338 
z
" clip-path="url(#p809c149dc3)" style="fill: #ff7f0e; fill-opacity: 0.5; stroke: #ff7f0e; stroke-opacity: 0.5; stroke-linejoin: miter"/>
   </g>
   <g id="line2d_74">
    <path d="M 447.666183 253.080061 
L 445.666183 252.080061 
L 445.666183 254.080061 
z
" clip-path="url(#p809c149dc3)" style="fill: #ff7f0e; fill-opacity: 0.5; stroke: #ff7f0e; stroke-opacity: 0.5; stroke-linejoin: miter"/>
   </g>
   <g id="line2d_75">
    <path d="M 447.666183 88.012564 
L 445.666183 87.012564 
L 445.666183 89.012564 
z
" clip-path="url(#p809c149dc3)" style="fill: #ff7f0e; fill-opacity: 0.5; stroke: #ff7f0e; stroke-opacity: 0.5; stroke-linejoin: miter"/>
   </g>
   <g id="line2d_76">
    <path d="M 447.666183 232.113733 
L 445.666183 231.113733 
L 445.666183 233.113733 
z
" clip-path="url(#p809c149dc3)" style="fill: #ff7f0e; fill-opacity: 0.5; stroke: #ff7f0e; stroke-opacity: 0.5; stroke-linejoin: miter"/>
   </g>
   <g id="line2d_77">
    <path d="M 447.666183 176.851657 
L 445.666183 175.851657 
L 445.666183 177.851657 
z
" clip-path="url(#p809c149dc3)" style="fill: #ff7f0e; fill-opacity: 0.5; stroke: #ff7f0e; stroke-opacity: 0.5; stroke-linejoin: miter"/>
   </g>
   <g id="line2d_78">
    <path d="M 447.666183 269.315686 
L 445.666183 268.315686 
L 445.666183 270.315686 
z
" clip-path="url(#p809c149dc3)" style="fill: #ff7f0e; fill-opacity: 0.5; stroke: #ff7f0e; stroke-opacity: 0.5; stroke-linejoin: miter"/>
   </g>
   <g id="line2d_79">
    <path d="M 447.666183 183.26285 
L 445.666183 182.26285 
L 445.666183 184.26285 
z
" clip-path="url(#p809c149dc3)" style="fill: #ff7f0e; fill-opacity: 0.5; stroke: #ff7f0e; stroke-opacity: 0.5; stroke-linejoin: miter"/>
   </g>
   <g id="line2d_80">
    <path d="M 389.34593 269.82223 
L 391.34593 270.82223 
L 391.34593 268.82223 
z
" clip-path="url(#p809c149dc3)" style="fill: #2ca02c; fill-opacity: 0.5; stroke: #2ca02c; stroke-opacity: 0.5; stroke-linejoin: miter"/>
   </g>
   <g id="line2d_81">
    <path d="M 389.34593 58.586645 
L 391.34593 59.586645 
L 391.34593 57.586645 
z
" clip-path="url(#p809c149dc3)" style="fill: #2ca02c; fill-opacity: 0.5; stroke: #2ca02c; stroke-opacity: 0.5; stroke-linejoin: miter"/>
   </g>
   <g id="line2d_82">
    <path d="M 389.34593 197.508344 
L 391.34593 198.508344 
L 391.34593 196.508344 
z
" clip-path="url(#p809c149dc3)" style="fill: #2ca02c; fill-opacity: 0.5; stroke: #2ca02c; stroke-opacity: 0.5; stroke-linejoin: miter"/>
   </g>
   <g id="line2d_83">
    <path d="M 389.34593 263.124341 
L 391.34593 264.124341 
L 391.34593 262.124341 
z
" clip-path="url(#p809c149dc3)" style="fill: #2ca02c; fill-opacity: 0.5; stroke: #2ca02c; stroke-opacity: 0.5; stroke-linejoin: miter"/>
   </g>
   <g id="line2d_84">
    <path d="M 389.34593 218.91294 
L 391.34593 219.91294 
L 391.34593 217.91294 
z
" clip-path="url(#p809c149dc3)" style="fill: #2ca02c; fill-opacity: 0.5; stroke: #2ca02c; stroke-opacity: 0.5; stroke-linejoin: miter"/>
   </g>
   <g id="line2d_85">
    <path d="M 389.34593 61.889226 
L 391.34593 62.889226 
L 391.34593 60.889226 
z
" clip-path="url(#p809c149dc3)" style="fill: #2ca02c; fill-opacity: 0.5; stroke: #2ca02c; stroke-opacity: 0.5; stroke-linejoin: miter"/>
   </g>
   <g id="line2d_86">
    <path d="M 389.34593 190.259228 
L 391.34593 191.259228 
L 391.34593 189.259228 
z
" clip-path="url(#p809c149dc3)" style="fill: #2ca02c; fill-opacity: 0.5; stroke: #2ca02c; stroke-opacity: 0.5; stroke-linejoin: miter"/>
   </g>
   <g id="line2d_87">
    <path d="M 389.34593 129.854582 
L 391.34593 130.854582 
L 391.34593 128.854582 
z
" clip-path="url(#p809c149dc3)" style="fill: #2ca02c; fill-opacity: 0.5; stroke: #2ca02c; stroke-opacity: 0.5; stroke-linejoin: miter"/>
   </g>
   <g id="line2d_88">
    <path d="M 389.34593 157.357173 
L 391.34593 158.357173 
L 391.34593 156.357173 
z
" clip-path="url(#p809c149dc3)" style="fill: #2ca02c; fill-opacity: 0.5; stroke: #2ca02c; stroke-opacity: 0.5; stroke-linejoin: miter"/>
   </g>
   <g id="line2d_89">
    <path d="M 389.34593 291.736069 
L 391.34593 292.736069 
L 391.34593 290.736069 
z
" clip-path="url(#p809c149dc3)" style="fill: #2ca02c; fill-opacity: 0.5; stroke: #2ca02c; stroke-opacity: 0.5; stroke-linejoin: miter"/>
   </g>
   <g id="patch_6">
    <path d="M 46.965625 318.021875 
L 46.965625 22.318125 
" style="fill: none; stroke: #000000; stroke-width: 0.8; stroke-linejoin: miter; stroke-linecap: square"/>
   </g>
   <g id="text_11">
    <!-- stepping_stone_model.yaml -->
    <g transform="translate(239.443437 16.318125) scale(0.12 -0.12)">
     <defs>
      <path id="DejaVuSans-70" d="M 1159 525 
L 1159 -1331 
L 581 -1331 
L 581 3500 
L 1159 3500 
L 1159 2969 
Q 1341 3281 1617 3432 
Q 1894 3584 2278 3584 
Q 2916 3584 3314 3078 
Q 3713 2572 3713 1747 
Q 3713 922 3314 415 
Q 2916 -91 2278 -91 
Q 1894 -91 1617 61 
Q 1341 213 1159 525 
z
M 3116 1747 
Q 3116 2381 2855 2742 
Q 2594 3103 2138 3103 
Q 1681 3103 1420 2742 
Q 1159 2381 1159 1747 
Q 1159 1113 1420 752 
Q 1681 391 2138 391 
Q 2594 391 2855 752 
Q 3116 1113 3116 1747 
z
" transform="scale(0.015625)"/>
      <path id="DejaVuSans-6e" d="M 3513 2113 
L 3513 0 
L 2938 0 
L 2938 2094 
Q 2938 2591 2744 2837 
Q 2550 3084 2163 3084 
Q 1697 3084 1428 2787 
Q 1159 2491 1159 1978 
L 1159 0 
L 581 0 
L 581 3500 
L 1159 3500 
L 1159 2956 
Q 1366 3272 1645 3428 
Q 1925 3584 2291 3584 
Q 2894 3584 3203 3211 
Q 3513 2838 3513 2113 
z
" transform="scale(0.015625)"/>
      <path id="DejaVuSans-5f" d="M 3263 -1063 
L 3263 -1509 
L -63 -1509 
L -63 -1063 
L 3263 -1063 
z
" transform="scale(0.015625)"/>
      <path id="DejaVuSans-6c" d="M 603 4863 
L 1178 4863 
L 1178 0 
L 603 0 
L 603 4863 
z
" transform="scale(0.015625)"/>
      <path id="DejaVuSans-2e" d="M 684 794 
L 1344 794 
L 1344 0 
L 684 0 
L 684 794 
z
" transform="scale(0.015625)"/>
     </defs>
     <use xlink:href="#DejaVuSans-73"/>
     <use xlink:href="#DejaVuSans-74" transform="translate(52.099609 0)"/>
     <use xlink:href="#DejaVuSans-65" transform="translate(91.308594 0)"/>
     <use xlink:href="#DejaVuSans-70" transform="translate(152.832031 0)"/>
     <use xlink:href="#DejaVuSans-70" transform="translate(216.308594 0)"/>
     <use xlink:href="#DejaVuSans-69" transform="translate(279.785156 0)"/>
     <use xlink:href="#DejaVuSans-6e" transform="translate(307.568359 0)"/>
     <use xlink:href="#DejaVuSans-67" transform="translate(370.947266 0)"/>
     <use xlink:href="#DejaVuSans-5f" transform="translate(434.423828 0)"/>
     <use xlink:href="#DejaVuSans-73" transform="translate(484.423828 0)"/>
     <use xlink:href="#DejaVuSans-74" transform="translate(536.523438 0)"/>
     <use xlink:href="#DejaVuSans-6f" transform="translate(575.732422 0)"/>
     <use xlink:href="#DejaVuSans-6e" transform="translate(636.914062 0)"/>
     <use xlink:href="#DejaVuSans-65" transform="translate(700.292969 0)"/>
     <use xlink:href="#DejaVuSans-5f" transform="translate(761.816406 0)"/>
     <use xlink:href="#DejaVuSans-6d" transform="translate(811.816406 0)"/>
     <use xlink:href="#DejaVuSans-6f" transform="translate(909.228516 0)"/>
     <use xlink:href="#DejaVuSans-64" transform="translate(970.410156 0)"/>
     <use xlink:href="#DejaVuSans-65" transform="translate(1033.886719 0)"/>
     <use xlink:href="#DejaVuSans-6c" transform="translate(1095.410156 0)"/>
     <use xlink:href="#DejaVuSans-2e" transform="translate(1123.193359 0)"/>
     <use xlink:href="#DejaVuSans-79" transform="translate(1154.980469 0)"/>
     <use xlink:href="#DejaVuSans-61" transform="translate(1214.160156 0)"/>
     <use xlink:href="#DejaVuSans-6d" transform="translate(1275.439453 0)"/>
     <use xlink:href="#DejaVuSans-6c" transform="translate(1372.851562 0)"/>
    </g>
   </g>
  </g>
 </g>
 <defs>
  <clipPath id="p809c149dc3">
   <rect x="46.965625" y="22.318125" width="553.034375" height="295.70375"/>
  </clipPath>
 </defs>
</svg>