<?xml version="1.0" encoding="utf-8" standalone="no"?>
<!DOCTYPE svg PUBLIC "-//W3C//DTD SVG 1.1//EN"
  "http://www.w3.org/Graphics/SVG/1.1/DTD/svg11.dtd">
<svg xmlns:xlink="http://www.w3.org/1999/xlink" width="607.2pt" height="338.4pt" viewBox="0 0 607.2 338.4" xmlns="http://www.w3.org/2000/svg" version="1.1">
 <metadata>
  <rdf:RDF xmlns:dc="http://purl.org/dc/elements/1.1/" xmlns:cc="http://creativecommons.org/ns#" xmlns:rdf="http://www.w3.org/1999/02/22-rdf-syntax-ns#">
   <cc:Work>
    <dc:type rdf:resource="http://purl.org/dc/dcmitype/StillImage"/>
    <dc:date>2026-02-23T09:03:53.319887</dc:date>
    <dc:format>image/svg+xml</dc:format>
    <dc:creator>
     <cc:Agent>
      <dc:title>Matplotlib v3.10.8, https://matplotlib.org/</dc:title>
     </cc:Agent>
    </dc:creator>
   </cc:Work>
  </rdf:RDF>
 </metadata>
 <defs>
  <style type="text/css">*{stroke-linejoin: round; stroke-linecap: butt}</style>
 </defs>
 <g id="figure_1">
  <g id="patch_1">
   <path d="M 0 338.4 
L 607.2 338.4 
L 607.2 0 
L 0 0 
z
" style="fill: #ffffff"/>
  </g>
  <g id="axes_1">
   <g id="patch_2">
    <path d="M 43.78125 318.021875 
L 600 318.021875 
L 600 22.318125 
L 43.78125 22.318125 
z
" style="fill: #ffffff"/>
   </g>
   <g id="line2d_1">
    <path d="M 290.098299 109.385987 
L 291.098299 109.417424 
L 292.098299 109.454364 
L 293.098299 109.552111 
L 294.098299 109.584632 
L 295.098299 109.658257 
L 296.098299 109.696823 
L 297.098299 109.732236 
L 298.098299 109.789876 
L 299.098299 109.860262 
L 300.098299 109.912226 
L 301.098299 109.971316 
L 302.098299 110.059637 
L 303.098299 110.105781 
L 304.098299 110.148192 
L 305.098299 110.178685 
L 306.098299 110.20473 
L 307.098299 110.22593 
L 308.098299 110.280231 
L 309.098299 110.308168 
L 310.098299 110.337892 
L 311.098299 110.363287 
L 312.098299 110.374488 
L 313.098299 110.384611 
L 314.098299 110.384407 
L 315.098299 110.374897 
L 316.098299 110.363244 
L 317.098299 110.332214 
L 318.098299 110.321047 
L 319.098299 110.290929 
L 320.098299 110.231152 
L 321.098299 110.193961 
L 322.098299 110.154864 
L 323.098299 110.112425 
L 324.098299 110.07966 
L 325.098299 110.012233 
L 326.098299 109.973107 
L 327.098299 109.930433 
L 328.098299 109.859852 
L 329.098299 109.823461 
L 330.098299 109.765058 
L 331.098299 109.654106 
L 332.098299 109.583447 
L 333.098299 109.470507 
L 334.098299 109.424735 
L 335.098299 109.363451 
L 336.098299 109.314952 
L 337.098299 109.234129 
L 338.098299 109.11561 
L 339.098299 109.0454 
L 340.098299 108.962137 
L 341.098299 108.928995 
L 342.098299 108.877758 
L 343.098299 108.80936 
L 344.098299 108.743144 
L 345.098299 108.666227 
L 346.098299 108.638912 
L 347.098299 108.612434 
L 348.098299 108.589784 
L 349.098299 108.570252 
L 350.098299 108.543858 
L 351.098299 108.494088 
L 352.098299 108.459014 
L 353.682951 108.423149 
" clip-path="url(#p0fcf3fa913)" style="fill: none; stroke: #1f77b4; stroke-opacity: 0.5; stroke-width: 0.2; stroke-linecap: square"/>
   </g>
   <g id="line2d_2">
    <path d="M 290.098299 105.553342 
L 291.098299 105.584778 
L 292.098299 105.621719 
L 293.098299 105.719465 
L 294.098299 105.751987 
L 295.098299 105.825611 
L 296.098299 105.864177 
L 297.098299 105.89959 
L 298.098299 105.95723 
L 299.098299 106.027616 
L 300.098299 106.07958 
L 301.098299 106.13867 
L 302.098299 106.226991 
L 303.098299 106.273135 
L 304.098299 106.315546 
L 305.098299 106.346039 
L 306.098299 106.372084 
L 307.098299 106.393284 
L 308.098299 106.447585 
L 309.098299 106.475523 
L 310.098299 106.505247 
L 311.098299 106.530642 
L 312.098299 106.541842 
L 313.098299 106.551966 
L 314.098299 106.551762 
L 315.098299 106.542252 
L 316.098299 106.530598 
L 317.098299 106.499569 
L 318.098299 106.488401 
L 319.098299 106.458283 
L 320.098299 106.398506 
L 321.098299 106.361315 
L 322.098299 106.322219 
L 323.098299 106.279779 
L 324.098299 106.247014 
L 325.098299 106.179588 
L 326.098299 106.140462 
L 327.098299 106.097787 
L 328.098299 106.027207 
L 329.098299 105.990816 
L 330.098299 105.932413 
L 331.098299 105.82146 
L 332.098299 105.750802 
L 333.098299 105.637862 
L 334.098299 105.592089 
L 335.098299 105.530806 
L 336.098299 105.482306 
L 337.098299 105.401484 
L 338.098299 105.282965 
L 339.098299 105.212754 
L 340.098299 105.129492 
L 341.098299 105.09635 
L 342.098299 105.045113 
L 343.098299 104.976714 
L 344.098299 104.910499 
L 345.098299 104.833582 
L 346.098299 104.806266 
L 347.098299 104.779789 
L 348.098299 104.757138 
L 349.098299 104.737607 
L 350.098299 104.711213 
L 351.098299 104.661442 
L 352.098299 104.626369 
L 353.682951 104.590503 
" clip-path="url(#p0fcf3fa913)" style="fill: none; stroke: #1f77b4; stroke-opacity: 0.5; stroke-width: 0.2; stroke-linecap: square"/>
   </g>
   <g id="line2d_3">
    <path d="M 290.098299 134.332083 
L 291.098299 134.363519 
L 292.098299 134.400459 
L 293.098299 134.498206 
L 294.098299 134.530727 
L 295.098299 134.604352 
L 296.098299 134.642918 
L 297.098299 134.678331 
L 298.098299 134.735971 
L 299.098299 134.806357 
L 300.098299 134.858321 
L 301.098299 134.917411 
L 302.098299 135.005732 
L 303.098299 135.051876 
L 304.098299 135.094287 
L 305.098299 135.12478 
L 306.098299 135.150825 
L 307.098299 135.172025 
L 308.098299 135.226326 
L 309.098299 135.254264 
L 310.098299 135.283988 
L 311.098299 135.309382 
L 312.098299 135.320583 
L 313.098299 135.330707 
L 314.098299 135.330502 
L 315.098299 135.320992 
L 316.098299 135.309339 
L 317.098299 135.27831 
L 318.098299 135.267142 
L 319.098299 135.237024 
L 320.098299 135.177247 
L 321.098299 135.140056 
L 322.098299 135.10096 
L 323.098299 135.05852 
L 324.098299 135.025755 
L 325.098299 134.958328 
L 326.098299 134.919202 
L 327.098299 134.876528 
L 328.098299 134.805947 
L 329.098299 134.769556 
L 330.098299 134.711153 
L 331.098299 134.600201 
L 332.098299 134.529542 
L 333.098299 134.416603 
L 334.098299 134.37083 
L 335.098299 134.309546 
L 336.098299 134.261047 
L 337.098299 134.180224 
L 338.098299 134.061706 
L 339.098299 133.991495 
L 340.098299 133.908232 
L 341.098299 133.875091 
L 342.098299 133.823853 
L 343.098299 133.755455 
L 344.098299 133.68924 
L 345.098299 133.612322 
L 346.098299 133.585007 
L 347.098299 133.55853 
L 348.098299 133.535879 
L 349.098299 133.516348 
L 350.098299 133.489954 
L 351.098299 133.440183 
L 352.098299 133.40511 
L 353.682951 133.369244 
" clip-path="url(#p0fcf3fa913)" style="fill: none; stroke: #1f77b4; stroke-opacity: 0.5; stroke-width: 0.2; stroke-linecap: square"/>
   </g>
   <g id="line2d_4">
    <path d="M 290.098299 185.29423 
L 291.098299 185.325667 
L 292.098299 185.362607 
L 293.098299 185.460354 
L 294.098299 185.492875 
L 295.098299 185.5665 
L 296.098299 185.605066 
L 297.098299 185.640479 
L 298.098299 185.698119 
L 299.098299 185.768505 
L 300.098299 185.820469 
L 301.098299 185.879559 
L 302.098299 185.96788 
L 303.098299 186.014024 
L 304.098299 186.056435 
L 305.098299 186.086928 
L 306.098299 186.112973 
L 307.098299 186.134173 
L 308.098299 186.188474 
L 309.098299 186.216411 
L 310.098299 186.246135 
L 311.098299 186.27153 
L 312.098299 186.282731 
L 313.098299 186.292855 
L 314.098299 186.29265 
L 315.098299 186.28314 
L 316.098299 186.271487 
L 317.098299 186.240458 
L 318.098299 186.22929 
L 319.098299 186.199172 
L 320.098299 186.139395 
L 321.098299 186.102204 
L 322.098299 186.063107 
L 323.098299 186.020668 
L 324.098299 185.987903 
L 325.098299 185.920476 
L 326.098299 185.88135 
L 327.098299 185.838676 
L 328.098299 185.768095 
L 329.098299 185.731704 
L 330.098299 185.673301 
L 331.098299 185.562349 
L 332.098299 185.49169 
L 333.098299 185.37875 
L 334.098299 185.332978 
L 335.098299 185.271694 
L 336.098299 185.223195 
L 337.098299 185.142372 
L 338.098299 185.023853 
L 339.098299 184.953643 
L 340.098299 184.87038 
L 341.098299 184.837239 
L 342.098299 184.786001 
L 343.098299 184.717603 
L 344.098299 184.651387 
L 345.098299 184.57447 
L 346.098299 184.547155 
L 347.098299 184.520677 
L 348.098299 184.498027 
L 349.098299 184.478495 
L 350.098299 184.452101 
L 351.098299 184.402331 
L 352.098299 184.367257 
L 353.682951 184.331392 
" clip-path="url(#p0fcf3fa913)" style="fill: none; stroke: #1f77b4; stroke-opacity: 0.5; stroke-width: 0.2; stroke-linecap: square"/>
   </g>
   <g id="line2d_5">
    <path d="M 290.098299 168.592423 
L 291.098299 168.623859 
L 292.098299 168.6608 
L 293.098299 168.758546 
L 294.098299 168.791068 
L 295.098299 168.864692 
L 296.098299 168.903258 
L 297.098299 168.938671 
L 298.098299 168.996311 
L 299.098299 169.066697 
L 300.098299 169.118662 
L 301.098299 169.177751 
L 302.098299 169.266072 
L 303.098299 169.312217 
L 304.098299 169.354628 
L 305.098299 169.38512 
L 306.098299 169.411165 
L 307.098299 169.432365 
L 308.098299 169.486666 
L 309.098299 169.514604 
L 310.098299 169.544328 
L 311.098299 169.569723 
L 312.098299 169.580923 
L 313.098299 169.591047 
L 314.098299 169.590843 
L 315.098299 169.581333 
L 316.098299 169.569679 
L 317.098299 169.53865 
L 318.098299 169.527482 
L 319.098299 169.497365 
L 320.098299 169.437588 
L 321.098299 169.400396 
L 322.098299 169.3613 
L 323.098299 169.31886 
L 324.098299 169.286095 
L 325.098299 169.218669 
L 326.098299 169.179543 
L 327.098299 169.136868 
L 328.098299 169.066288 
L 329.098299 169.029897 
L 330.098299 168.971494 
L 331.098299 168.860541 
L 332.098299 168.789883 
L 333.098299 168.676943 
L 334.098299 168.63117 
L 335.098299 168.569887 
L 336.098299 168.521387 
L 337.098299 168.440565 
L 338.098299 168.322046 
L 339.098299 168.251835 
L 340.098299 168.168573 
L 341.098299 168.135431 
L 342.098299 168.084194 
L 343.098299 168.015795 
L 344.098299 167.94958 
L 345.098299 167.872663 
L 346.098299 167.845347 
L 347.098299 167.81887 
L 348.098299 167.796219 
L 349.098299 167.776688 
L 350.098299 167.750294 
L 351.098299 167.700523 
L 352.098299 167.66545 
L 353.682951 167.629584 
" clip-path="url(#p0fcf3fa913)" style="fill: none; stroke: #1f77b4; stroke-opacity: 0.5; stroke-width: 0.2; stroke-linecap: square"/>
   </g>
   <g id="line2d_6">
    <path d="M 290.098299 159.873321 
L 291.098299 159.904757 
L 292.098299 159.941698 
L 293.098299 160.039444 
L 294.098299 160.071966 
L 295.098299 160.14559 
L 296.098299 160.184156 
L 297.098299 160.219569 
L 298.098299 160.277209 
L 299.098299 160.347595 
L 300.098299 160.39956 
L 301.098299 160.458649 
L 302.098299 160.54697 
L 303.098299 160.593115 
L 304.098299 160.635525 
L 305.098299 160.666018 
L 306.098299 160.692063 
L 307.098299 160.713263 
L 308.098299 160.767564 
L 309.098299 160.795502 
L 310.098299 160.825226 
L 311.098299 160.850621 
L 312.098299 160.861821 
L 313.098299 160.871945 
L 314.098299 160.871741 
L 315.098299 160.862231 
L 316.098299 160.850577 
L 317.098299 160.819548 
L 318.098299 160.80838 
L 319.098299 160.778262 
L 320.098299 160.718486 
L 321.098299 160.681294 
L 322.098299 160.642198 
L 323.098299 160.599758 
L 324.098299 160.566993 
L 325.098299 160.499567 
L 326.098299 160.460441 
L 327.098299 160.417766 
L 328.098299 160.347186 
L 329.098299 160.310795 
L 330.098299 160.252392 
L 331.098299 160.141439 
L 332.098299 160.070781 
L 333.098299 159.957841 
L 334.098299 159.912068 
L 335.098299 159.850785 
L 336.098299 159.802285 
L 337.098299 159.721463 
L 338.098299 159.602944 
L 339.098299 159.532733 
L 340.098299 159.449471 
L 341.098299 159.416329 
L 342.098299 159.365092 
L 343.098299 159.296693 
L 344.098299 159.230478 
L 345.098299 159.153561 
L 346.098299 159.126245 
L 347.098299 159.099768 
L 348.098299 159.077117 
L 349.098299 159.057586 
L 350.098299 159.031192 
L 351.098299 158.981421 
L 352.098299 158.946348 
L 353.682951 158.910482 
" clip-path="url(#p0fcf3fa913)" style="fill: none; stroke: #1f77b4; stroke-opacity: 0.5; stroke-width: 0.2; stroke-linecap: square"/>
   </g>
   <g id="line2d_7">
    <path d="M 290.098299 137.442136 
L 291.098299 137.473572 
L 292.098299 137.510512 
L 293.098299 137.608259 
L 294.098299 137.64078 
L 295.098299 137.714405 
L 296.098299 137.752971 
L 297.098299 137.788384 
L 298.098299 137.846024 
L 299.098299 137.91641 
L 300.098299 137.968374 
L 301.098299 138.027464 
L 302.098299 138.115785 
L 303.098299 138.161929 
L 304.098299 138.20434 
L 305.098299 138.234833 
L 306.098299 138.260878 
L 307.098299 138.282078 
L 308.098299 138.336379 
L 309.098299 138.364317 
L 310.098299 138.394041 
L 311.098299 138.419435 
L 312.098299 138.430636 
L 313.098299 138.44076 
L 314.098299 138.440555 
L 315.098299 138.431045 
L 316.098299 138.419392 
L 317.098299 138.388363 
L 318.098299 138.377195 
L 319.098299 138.347077 
L 320.098299 138.2873 
L 321.098299 138.250109 
L 322.098299 138.211013 
L 323.098299 138.168573 
L 324.098299 138.135808 
L 325.098299 138.068381 
L 326.098299 138.029255 
L 327.098299 137.986581 
L 328.098299 137.916 
L 329.098299 137.879609 
L 330.098299 137.821206 
L 331.098299 137.710254 
L 332.098299 137.639595 
L 333.098299 137.526656 
L 334.098299 137.480883 
L 335.098299 137.419599 
L 336.098299 137.3711 
L 337.098299 137.290277 
L 338.098299 137.171759 
L 339.098299 137.101548 
L 340.098299 137.018285 
L 341.098299 136.985144 
L 342.098299 136.933906 
L 343.098299 136.865508 
L 344.098299 136.799293 
L 345.098299 136.722375 
L 346.098299 136.69506 
L 347.098299 136.668583 
L 348.098299 136.645932 
L 349.098299 136.626401 
L 350.098299 136.600007 
L 351.098299 136.550236 
L 352.098299 136.515163 
L 353.682951 136.479297 
" clip-path="url(#p0fcf3fa913)" style="fill: none; stroke: #1f77b4; stroke-opacity: 0.5; stroke-width: 0.2; stroke-linecap: square"/>
   </g>
   <g id="line2d_8">
    <path d="M 290.098299 104.431091 
L 291.098299 104.462527 
L 292.098299 104.499467 
L 293.098299 104.597214 
L 294.098299 104.629736 
L 295.098299 104.70336 
L 296.098299 104.741926 
L 297.098299 104.777339 
L 298.098299 104.834979 
L 299.098299 104.905365 
L 300.098299 104.957329 
L 301.098299 105.016419 
L 302.098299 105.10474 
L 303.098299 105.150884 
L 304.098299 105.193295 
L 305.098299 105.223788 
L 306.098299 105.249833 
L 307.098299 105.271033 
L 308.098299 105.325334 
L 309.098299 105.353272 
L 310.098299 105.382996 
L 311.098299 105.40839 
L 312.098299 105.419591 
L 313.098299 105.429715 
L 314.098299 105.42951 
L 315.098299 105.420001 
L 316.098299 105.408347 
L 317.098299 105.377318 
L 318.098299 105.36615 
L 319.098299 105.336032 
L 320.098299 105.276255 
L 321.098299 105.239064 
L 322.098299 105.199968 
L 323.098299 105.157528 
L 324.098299 105.124763 
L 325.098299 105.057336 
L 326.098299 105.018211 
L 327.098299 104.975536 
L 328.098299 104.904955 
L 329.098299 104.868565 
L 330.098299 104.810161 
L 331.098299 104.699209 
L 332.098299 104.62855 
L 333.098299 104.515611 
L 334.098299 104.469838 
L 335.098299 104.408555 
L 336.098299 104.360055 
L 337.098299 104.279233 
L 338.098299 104.160714 
L 339.098299 104.090503 
L 340.098299 104.007241 
L 341.098299 103.974099 
L 342.098299 103.922861 
L 343.098299 103.854463 
L 344.098299 103.788248 
L 345.098299 103.711331 
L 346.098299 103.684015 
L 347.098299 103.657538 
L 348.098299 103.634887 
L 349.098299 103.615356 
L 350.098299 103.588962 
L 351.098299 103.539191 
L 352.098299 103.504118 
L 353.682951 103.468252 
" clip-path="url(#p0fcf3fa913)" style="fill: none; stroke: #1f77b4; stroke-opacity: 0.5; stroke-width: 0.2; stroke-linecap: square"/>
   </g>
   <g id="line2d_9">
    <path d="M 290.098299 197.24352 
L 291.098299 197.274957 
L 292.098299 197.311897 
L 293.098299 197.409644 
L 294.098299 197.442165 
L 295.098299 197.51579 
L 296.098299 197.554356 
L 297.098299 197.589769 
L 298.098299 197.647409 
L 299.098299 197.717795 
L 300.098299 197.769759 
L 301.098299 197.828849 
L 302.098299 197.91717 
L 303.098299 197.963314 
L 304.098299 198.005725 
L 305.098299 198.036218 
L 306.098299 198.062263 
L 307.098299 198.083463 
L 308.098299 198.137764 
L 309.098299 198.165701 
L 310.098299 198.195425 
L 311.098299 198.22082 
L 312.098299 198.232021 
L 313.098299 198.242145 
L 314.098299 198.24194 
L 315.098299 198.23243 
L 316.098299 198.220777 
L 317.098299 198.189748 
L 318.098299 198.17858 
L 319.098299 198.148462 
L 320.098299 198.088685 
L 321.098299 198.051494 
L 322.098299 198.012398 
L 323.098299 197.969958 
L 324.098299 197.937193 
L 325.098299 197.869766 
L 326.098299 197.83064 
L 327.098299 197.787966 
L 328.098299 197.717385 
L 329.098299 197.680994 
L 330.098299 197.622591 
L 331.098299 197.511639 
L 332.098299 197.44098 
L 333.098299 197.32804 
L 334.098299 197.282268 
L 335.098299 197.220984 
L 336.098299 197.172485 
L 337.098299 197.091662 
L 338.098299 196.973143 
L 339.098299 196.902933 
L 340.098299 196.81967 
L 341.098299 196.786529 
L 342.098299 196.735291 
L 343.098299 196.666893 
L 344.098299 196.600677 
L 345.098299 196.52376 
L 346.098299 196.496445 
L 347.098299 196.469967 
L 348.098299 196.447317 
L 349.098299 196.427785 
L 350.098299 196.401392 
L 351.098299 196.351621 
L 352.098299 196.316548 
L 353.682951 196.280682 
" clip-path="url(#p0fcf3fa913)" style="fill: none; stroke: #1f77b4; stroke-opacity: 0.5; stroke-width: 0.2; stroke-linecap: square"/>
   </g>
   <g id="line2d_10">
    <path d="M 290.098299 148.791886 
L 291.098299 148.823323 
L 292.098299 148.860263 
L 293.098299 148.95801 
L 294.098299 148.990531 
L 295.098299 149.064156 
L 296.098299 149.102721 
L 297.098299 149.138135 
L 298.098299 149.195775 
L 299.098299 149.266161 
L 300.098299 149.318125 
L 301.098299 149.377215 
L 302.098299 149.465536 
L 303.098299 149.51168 
L 304.098299 149.554091 
L 305.098299 149.584584 
L 306.098299 149.610629 
L 307.098299 149.631829 
L 308.098299 149.68613 
L 309.098299 149.714067 
L 310.098299 149.743791 
L 311.098299 149.769186 
L 312.098299 149.780386 
L 313.098299 149.79051 
L 314.098299 149.790306 
L 315.098299 149.780796 
L 316.098299 149.769143 
L 317.098299 149.738113 
L 318.098299 149.726945 
L 319.098299 149.696828 
L 320.098299 149.637051 
L 321.098299 149.599859 
L 322.098299 149.560763 
L 323.098299 149.518324 
L 324.098299 149.485559 
L 325.098299 149.418132 
L 326.098299 149.379006 
L 327.098299 149.336332 
L 328.098299 149.265751 
L 329.098299 149.22936 
L 330.098299 149.170957 
L 331.098299 149.060004 
L 332.098299 148.989346 
L 333.098299 148.876406 
L 334.098299 148.830633 
L 335.098299 148.76935 
L 336.098299 148.720851 
L 337.098299 148.640028 
L 338.098299 148.521509 
L 339.098299 148.451299 
L 340.098299 148.368036 
L 341.098299 148.334894 
L 342.098299 148.283657 
L 343.098299 148.215259 
L 344.098299 148.149043 
L 345.098299 148.072126 
L 346.098299 148.044811 
L 347.098299 148.018333 
L 348.098299 147.995683 
L 349.098299 147.976151 
L 350.098299 147.949757 
L 351.098299 147.899987 
L 352.098299 147.864913 
L 353.682951 147.829048 
" clip-path="url(#p0fcf3fa913)" style="fill: none; stroke: #1f77b4; stroke-opacity: 0.5; stroke-width: 0.2; stroke-linecap: square"/>
   </g>
   <g id="line2d_11">
    <path d="M 290.098299 305.372474 
L 291.098299 305.403911 
L 292.098299 305.440851 
L 293.098299 305.538598 
L 294.098299 305.571119 
L 295.098299 305.644744 
L 296.098299 305.68331 
L 297.098299 305.718723 
L 298.098299 305.776363 
L 299.098299 305.846749 
L 300.098299 305.898713 
L 301.098299 305.957803 
L 302.098299 306.046124 
L 303.098299 306.092268 
L 304.098299 306.134679 
L 305.098299 306.165172 
L 306.098299 306.191217 
L 307.098299 306.212417 
L 308.098299 306.266718 
L 309.098299 306.294655 
L 310.098299 306.324379 
L 311.098299 306.349774 
L 312.098299 306.360975 
L 313.098299 306.371099 
L 314.098299 306.370894 
L 315.098299 306.361384 
L 316.098299 306.349731 
L 317.098299 306.318702 
L 318.098299 306.307534 
L 319.098299 306.277416 
L 320.098299 306.217639 
L 321.098299 306.180448 
L 322.098299 306.141351 
L 323.098299 306.098912 
L 324.098299 306.066147 
L 325.098299 305.99872 
L 326.098299 305.959594 
L 327.098299 305.91692 
L 328.098299 305.846339 
L 329.098299 305.809948 
L 330.098299 305.751545 
L 331.098299 305.640593 
L 332.098299 305.569934 
L 333.098299 305.456994 
L 334.098299 305.411222 
L 335.098299 305.349938 
L 336.098299 305.301439 
L 337.098299 305.220616 
L 338.098299 305.102097 
L 339.098299 305.031887 
L 340.098299 304.948624 
L 341.098299 304.915483 
L 342.098299 304.864245 
L 343.098299 304.795847 
L 344.098299 304.729631 
L 345.098299 304.652714 
L 346.098299 304.625399 
L 347.098299 304.598921 
L 348.098299 304.576271 
L 349.098299 304.556739 
L 350.098299 304.530345 
L 351.098299 304.480575 
L 352.098299 304.445501 
L 353.682951 304.409636 
" clip-path="url(#p0fcf3fa913)" style="fill: none; stroke: #1f77b4; stroke-opacity: 0.5; stroke-width: 0.2; stroke-linecap: square"/>
   </g>
   <g id="line2d_12">
    <path d="M 290.098299 273.198602 
L 291.098299 273.230038 
L 292.098299 273.266979 
L 293.098299 273.364725 
L 294.098299 273.397247 
L 295.098299 273.470872 
L 296.098299 273.509437 
L 297.098299 273.54485 
L 298.098299 273.60249 
L 299.098299 273.672876 
L 300.098299 273.724841 
L 301.098299 273.78393 
L 302.098299 273.872251 
L 303.098299 273.918396 
L 304.098299 273.960807 
L 305.098299 273.991299 
L 306.098299 274.017344 
L 307.098299 274.038544 
L 308.098299 274.092845 
L 309.098299 274.120783 
L 310.098299 274.150507 
L 311.098299 274.175902 
L 312.098299 274.187102 
L 313.098299 274.197226 
L 314.098299 274.197022 
L 315.098299 274.187512 
L 316.098299 274.175858 
L 317.098299 274.144829 
L 318.098299 274.133661 
L 319.098299 274.103544 
L 320.098299 274.043767 
L 321.098299 274.006575 
L 322.098299 273.967479 
L 323.098299 273.925039 
L 324.098299 273.892274 
L 325.098299 273.824848 
L 326.098299 273.785722 
L 327.098299 273.743047 
L 328.098299 273.672467 
L 329.098299 273.636076 
L 330.098299 273.577673 
L 331.098299 273.46672 
L 332.098299 273.396062 
L 333.098299 273.283122 
L 334.098299 273.237349 
L 335.098299 273.176066 
L 336.098299 273.127567 
L 337.098299 273.046744 
L 338.098299 272.928225 
L 339.098299 272.858014 
L 340.098299 272.774752 
L 341.098299 272.74161 
L 342.098299 272.690373 
L 343.098299 272.621974 
L 344.098299 272.555759 
L 345.098299 272.478842 
L 346.098299 272.451526 
L 347.098299 272.425049 
L 348.098299 272.402398 
L 349.098299 272.382867 
L 350.098299 272.356473 
L 351.098299 272.306702 
L 352.098299 272.271629 
L 353.682951 272.235763 
" clip-path="url(#p0fcf3fa913)" style="fill: none; stroke: #1f77b4; stroke-opacity: 0.5; stroke-width: 0.2; stroke-linecap: square"/>
   </g>
   <g id="line2d_13">
    <path d="M 290.098299 200.424812 
L 291.098299 200.456248 
L 292.098299 200.493189 
L 293.098299 200.590935 
L 294.098299 200.623457 
L 295.098299 200.697081 
L 296.098299 200.735647 
L 297.098299 200.77106 
L 298.098299 200.8287 
L 299.098299 200.899086 
L 300.098299 200.951051 
L 301.098299 201.01014 
L 302.098299 201.098461 
L 303.098299 201.144606 
L 304.098299 201.187017 
L 305.098299 201.217509 
L 306.098299 201.243554 
L 307.098299 201.264754 
L 308.098299 201.319055 
L 309.098299 201.346993 
L 310.098299 201.376717 
L 311.098299 201.402112 
L 312.098299 201.413312 
L 313.098299 201.423436 
L 314.098299 201.423232 
L 315.098299 201.413722 
L 316.098299 201.402068 
L 317.098299 201.371039 
L 318.098299 201.359871 
L 319.098299 201.329754 
L 320.098299 201.269977 
L 321.098299 201.232785 
L 322.098299 201.193689 
L 323.098299 201.151249 
L 324.098299 201.118484 
L 325.098299 201.051058 
L 326.098299 201.011932 
L 327.098299 200.969257 
L 328.098299 200.898677 
L 329.098299 200.862286 
L 330.098299 200.803883 
L 331.098299 200.69293 
L 332.098299 200.622272 
L 333.098299 200.509332 
L 334.098299 200.463559 
L 335.098299 200.402276 
L 336.098299 200.353776 
L 337.098299 200.272954 
L 338.098299 200.154435 
L 339.098299 200.084224 
L 340.098299 200.000962 
L 341.098299 199.96782 
L 342.098299 199.916583 
L 343.098299 199.848184 
L 344.098299 199.781969 
L 345.098299 199.705052 
L 346.098299 199.677736 
L 347.098299 199.651259 
L 348.098299 199.628608 
L 349.098299 199.609077 
L 350.098299 199.582683 
L 351.098299 199.532912 
L 352.098299 199.497839 
L 353.682951 199.461973 
" clip-path="url(#p0fcf3fa913)" style="fill: none; stroke: #1f77b4; stroke-opacity: 0.5; stroke-width: 0.2; stroke-linecap: square"/>
   </g>
   <g id="line2d_14">
    <path d="M 290.098299 201.42038 
L 291.098299 201.451816 
L 292.098299 201.488757 
L 293.098299 201.586503 
L 294.098299 201.619025 
L 295.098299 201.692649 
L 296.098299 201.731215 
L 297.098299 201.766628 
L 298.098299 201.824268 
L 299.098299 201.894654 
L 300.098299 201.946618 
L 301.098299 202.005708 
L 302.098299 202.094029 
L 303.098299 202.140174 
L 304.098299 202.182584 
L 305.098299 202.213077 
L 306.098299 202.239122 
L 307.098299 202.260322 
L 308.098299 202.314623 
L 309.098299 202.342561 
L 310.098299 202.372285 
L 311.098299 202.39768 
L 312.098299 202.40888 
L 313.098299 202.419004 
L 314.098299 202.4188 
L 315.098299 202.40929 
L 316.098299 202.397636 
L 317.098299 202.366607 
L 318.098299 202.355439 
L 319.098299 202.325321 
L 320.098299 202.265545 
L 321.098299 202.228353 
L 322.098299 202.189257 
L 323.098299 202.146817 
L 324.098299 202.114052 
L 325.098299 202.046626 
L 326.098299 202.0075 
L 327.098299 201.964825 
L 328.098299 201.894245 
L 329.098299 201.857854 
L 330.098299 201.799451 
L 331.098299 201.688498 
L 332.098299 201.61784 
L 333.098299 201.5049 
L 334.098299 201.459127 
L 335.098299 201.397844 
L 336.098299 201.349344 
L 337.098299 201.268522 
L 338.098299 201.150003 
L 339.098299 201.079792 
L 340.098299 200.99653 
L 341.098299 200.963388 
L 342.098299 200.912151 
L 343.098299 200.843752 
L 344.098299 200.777537 
L 345.098299 200.70062 
L 346.098299 200.673304 
L 347.098299 200.646827 
L 348.098299 200.624176 
L 349.098299 200.604645 
L 350.098299 200.578251 
L 351.098299 200.52848 
L 352.098299 200.493407 
L 353.682951 200.457541 
" clip-path="url(#p0fcf3fa913)" style="fill: none; stroke: #1f77b4; stroke-opacity: 0.5; stroke-width: 0.2; stroke-linecap: square"/>
   </g>
   <g id="line2d_15">
    <path d="M 290.098299 291.895066 
L 291.098299 291.926503 
L 292.098299 291.963443 
L 293.098299 292.06119 
L 294.098299 292.093711 
L 295.098299 292.167336 
L 296.098299 292.205901 
L 297.098299 292.241315 
L 298.098299 292.298955 
L 299.098299 292.369341 
L 300.098299 292.421305 
L 301.098299 292.480395 
L 302.098299 292.568716 
L 303.098299 292.61486 
L 304.098299 292.657271 
L 305.098299 292.687764 
L 306.098299 292.713809 
L 307.098299 292.735009 
L 308.098299 292.78931 
L 309.098299 292.817247 
L 310.098299 292.846971 
L 311.098299 292.872366 
L 312.098299 292.883566 
L 313.098299 292.89369 
L 314.098299 292.893486 
L 315.098299 292.883976 
L 316.098299 292.872323 
L 317.098299 292.841293 
L 318.098299 292.830125 
L 319.098299 292.800008 
L 320.098299 292.740231 
L 321.098299 292.703039 
L 322.098299 292.663943 
L 323.098299 292.621504 
L 324.098299 292.588739 
L 325.098299 292.521312 
L 326.098299 292.482186 
L 327.098299 292.439512 
L 328.098299 292.368931 
L 329.098299 292.33254 
L 330.098299 292.274137 
L 331.098299 292.163184 
L 332.098299 292.092526 
L 333.098299 291.979586 
L 334.098299 291.933813 
L 335.098299 291.87253 
L 336.098299 291.824031 
L 337.098299 291.743208 
L 338.098299 291.624689 
L 339.098299 291.554479 
L 340.098299 291.471216 
L 341.098299 291.438074 
L 342.098299 291.386837 
L 343.098299 291.318439 
L 344.098299 291.252223 
L 345.098299 291.175306 
L 346.098299 291.147991 
L 347.098299 291.121513 
L 348.098299 291.098863 
L 349.098299 291.079331 
L 350.098299 291.052937 
L 351.098299 291.003167 
L 352.098299 290.968093 
L 353.682951 290.932228 
" clip-path="url(#p0fcf3fa913)" style="fill: none; stroke: #1f77b4; stroke-opacity: 0.5; stroke-width: 0.2; stroke-linecap: square"/>
   </g>
   <g id="line2d_16">
    <path d="M 290.098299 252.078465 
L 291.098299 252.109901 
L 292.098299 252.146842 
L 293.098299 252.244588 
L 294.098299 252.27711 
L 295.098299 252.350734 
L 296.098299 252.3893 
L 297.098299 252.424713 
L 298.098299 252.482353 
L 299.098299 252.552739 
L 300.098299 252.604704 
L 301.098299 252.663793 
L 302.098299 252.752114 
L 303.098299 252.798259 
L 304.098299 252.840669 
L 305.098299 252.871162 
L 306.098299 252.897207 
L 307.098299 252.918407 
L 308.098299 252.972708 
L 309.098299 253.000646 
L 310.098299 253.03037 
L 311.098299 253.055765 
L 312.098299 253.066965 
L 313.098299 253.077089 
L 314.098299 253.076885 
L 315.098299 253.067375 
L 316.098299 253.055721 
L 317.098299 253.024692 
L 318.098299 253.013524 
L 319.098299 252.983407 
L 320.098299 252.92363 
L 321.098299 252.886438 
L 322.098299 252.847342 
L 323.098299 252.804902 
L 324.098299 252.772137 
L 325.098299 252.704711 
L 326.098299 252.665585 
L 327.098299 252.62291 
L 328.098299 252.55233 
L 329.098299 252.515939 
L 330.098299 252.457536 
L 331.098299 252.346583 
L 332.098299 252.275925 
L 333.098299 252.162985 
L 334.098299 252.117212 
L 335.098299 252.055929 
L 336.098299 252.007429 
L 337.098299 251.926607 
L 338.098299 251.808088 
L 339.098299 251.737877 
L 340.098299 251.654615 
L 341.098299 251.621473 
L 342.098299 251.570236 
L 343.098299 251.501837 
L 344.098299 251.435622 
L 345.098299 251.358705 
L 346.098299 251.331389 
L 347.098299 251.304912 
L 348.098299 251.282261 
L 349.098299 251.26273 
L 350.098299 251.236336 
L 351.098299 251.186565 
L 352.098299 251.151492 
L 353.682951 251.115626 
" clip-path="url(#p0fcf3fa913)" style="fill: none; stroke: #1f77b4; stroke-opacity: 0.5; stroke-width: 0.2; stroke-linecap: square"/>
   </g>
   <g id="line2d_17">
    <path d="M 290.098299 225.008173 
L 291.098299 225.03961 
L 292.098299 225.07655 
L 293.098299 225.174296 
L 294.098299 225.206818 
L 295.098299 225.280443 
L 296.098299 225.319008 
L 297.098299 225.354422 
L 298.098299 225.412061 
L 299.098299 225.482448 
L 300.098299 225.534412 
L 301.098299 225.593502 
L 302.098299 225.681823 
L 303.098299 225.727967 
L 304.098299 225.770378 
L 305.098299 225.80087 
L 306.098299 225.826915 
L 307.098299 225.848116 
L 308.098299 225.902417 
L 309.098299 225.930354 
L 310.098299 225.960078 
L 311.098299 225.985473 
L 312.098299 225.996673 
L 313.098299 226.006797 
L 314.098299 226.006593 
L 315.098299 225.997083 
L 316.098299 225.98543 
L 317.098299 225.9544 
L 318.098299 225.943232 
L 319.098299 225.913115 
L 320.098299 225.853338 
L 321.098299 225.816146 
L 322.098299 225.77705 
L 323.098299 225.734611 
L 324.098299 225.701846 
L 325.098299 225.634419 
L 326.098299 225.595293 
L 327.098299 225.552619 
L 328.098299 225.482038 
L 329.098299 225.445647 
L 330.098299 225.387244 
L 331.098299 225.276291 
L 332.098299 225.205633 
L 333.098299 225.092693 
L 334.098299 225.04692 
L 335.098299 224.985637 
L 336.098299 224.937138 
L 337.098299 224.856315 
L 338.098299 224.737796 
L 339.098299 224.667586 
L 340.098299 224.584323 
L 341.098299 224.551181 
L 342.098299 224.499944 
L 343.098299 224.431546 
L 344.098299 224.36533 
L 345.098299 224.288413 
L 346.098299 224.261098 
L 347.098299 224.23462 
L 348.098299 224.211969 
L 349.098299 224.192438 
L 350.098299 224.166044 
L 351.098299 224.116273 
L 352.098299 224.0812 
L 353.682951 224.045335 
" clip-path="url(#p0fcf3fa913)" style="fill: none; stroke: #1f77b4; stroke-opacity: 0.5; stroke-width: 0.2; stroke-linecap: square"/>
   </g>
   <g id="line2d_18">
    <path d="M 290.098299 266.529836 
L 291.098299 266.561273 
L 292.098299 266.598213 
L 293.098299 266.69596 
L 294.098299 266.728481 
L 295.098299 266.802106 
L 296.098299 266.840671 
L 297.098299 266.876085 
L 298.098299 266.933724 
L 299.098299 267.004111 
L 300.098299 267.056075 
L 301.098299 267.115165 
L 302.098299 267.203486 
L 303.098299 267.24963 
L 304.098299 267.292041 
L 305.098299 267.322534 
L 306.098299 267.348578 
L 307.098299 267.369779 
L 308.098299 267.42408 
L 309.098299 267.452017 
L 310.098299 267.481741 
L 311.098299 267.507136 
L 312.098299 267.518336 
L 313.098299 267.52846 
L 314.098299 267.528256 
L 315.098299 267.518746 
L 316.098299 267.507093 
L 317.098299 267.476063 
L 318.098299 267.464895 
L 319.098299 267.434778 
L 320.098299 267.375001 
L 321.098299 267.337809 
L 322.098299 267.298713 
L 323.098299 267.256274 
L 324.098299 267.223509 
L 325.098299 267.156082 
L 326.098299 267.116956 
L 327.098299 267.074282 
L 328.098299 267.003701 
L 329.098299 266.96731 
L 330.098299 266.908907 
L 331.098299 266.797954 
L 332.098299 266.727296 
L 333.098299 266.614356 
L 334.098299 266.568583 
L 335.098299 266.5073 
L 336.098299 266.458801 
L 337.098299 266.377978 
L 338.098299 266.259459 
L 339.098299 266.189249 
L 340.098299 266.105986 
L 341.098299 266.072844 
L 342.098299 266.021607 
L 343.098299 265.953209 
L 344.098299 265.886993 
L 345.098299 265.810076 
L 346.098299 265.782761 
L 347.098299 265.756283 
L 348.098299 265.733633 
L 349.098299 265.714101 
L 350.098299 265.687707 
L 351.098299 265.637936 
L 352.098299 265.602863 
L 353.682951 265.566998 
" clip-path="url(#p0fcf3fa913)" style="fill: none; stroke: #1f77b4; stroke-opacity: 0.5; stroke-width: 0.2; stroke-linecap: square"/>
   </g>
   <g id="line2d_19">
    <path d="M 290.098299 259.937239 
L 291.098299 259.968676 
L 292.098299 260.005616 
L 293.098299 260.103363 
L 294.098299 260.135884 
L 295.098299 260.209509 
L 296.098299 260.248074 
L 297.098299 260.283488 
L 298.098299 260.341128 
L 299.098299 260.411514 
L 300.098299 260.463478 
L 301.098299 260.522568 
L 302.098299 260.610889 
L 303.098299 260.657033 
L 304.098299 260.699444 
L 305.098299 260.729937 
L 306.098299 260.755982 
L 307.098299 260.777182 
L 308.098299 260.831483 
L 309.098299 260.85942 
L 310.098299 260.889144 
L 311.098299 260.914539 
L 312.098299 260.925739 
L 313.098299 260.935863 
L 314.098299 260.935659 
L 315.098299 260.926149 
L 316.098299 260.914496 
L 317.098299 260.883466 
L 318.098299 260.872298 
L 319.098299 260.842181 
L 320.098299 260.782404 
L 321.098299 260.745212 
L 322.098299 260.706116 
L 323.098299 260.663677 
L 324.098299 260.630912 
L 325.098299 260.563485 
L 326.098299 260.524359 
L 327.098299 260.481685 
L 328.098299 260.411104 
L 329.098299 260.374713 
L 330.098299 260.31631 
L 331.098299 260.205357 
L 332.098299 260.134699 
L 333.098299 260.021759 
L 334.098299 259.975986 
L 335.098299 259.914703 
L 336.098299 259.866204 
L 337.098299 259.785381 
L 338.098299 259.666862 
L 339.098299 259.596652 
L 340.098299 259.513389 
L 341.098299 259.480247 
L 342.098299 259.42901 
L 343.098299 259.360612 
L 344.098299 259.294396 
L 345.098299 259.217479 
L 346.098299 259.190164 
L 347.098299 259.163686 
L 348.098299 259.141036 
L 349.098299 259.121504 
L 350.098299 259.09511 
L 351.098299 259.045339 
L 352.098299 259.010266 
L 353.682951 258.974401 
" clip-path="url(#p0fcf3fa913)" style="fill: none; stroke: #1f77b4; stroke-opacity: 0.5; stroke-width: 0.2; stroke-linecap: square"/>
   </g>
   <g id="line2d_20">
    <path d="M 290.098299 295.404898 
L 291.098299 295.436335 
L 292.098299 295.473275 
L 293.098299 295.571022 
L 294.098299 295.603543 
L 295.098299 295.677168 
L 296.098299 295.715734 
L 297.098299 295.751147 
L 298.098299 295.808787 
L 299.098299 295.879173 
L 300.098299 295.931137 
L 301.098299 295.990227 
L 302.098299 296.078548 
L 303.098299 296.124692 
L 304.098299 296.167103 
L 305.098299 296.197596 
L 306.098299 296.223641 
L 307.098299 296.244841 
L 308.098299 296.299142 
L 309.098299 296.327079 
L 310.098299 296.356803 
L 311.098299 296.382198 
L 312.098299 296.393399 
L 313.098299 296.403522 
L 314.098299 296.403318 
L 315.098299 296.393808 
L 316.098299 296.382155 
L 317.098299 296.351125 
L 318.098299 296.339958 
L 319.098299 296.30984 
L 320.098299 296.250063 
L 321.098299 296.212872 
L 322.098299 296.173775 
L 323.098299 296.131336 
L 324.098299 296.098571 
L 325.098299 296.031144 
L 326.098299 295.992018 
L 327.098299 295.949344 
L 328.098299 295.878763 
L 329.098299 295.842372 
L 330.098299 295.783969 
L 331.098299 295.673017 
L 332.098299 295.602358 
L 333.098299 295.489418 
L 334.098299 295.443646 
L 335.098299 295.382362 
L 336.098299 295.333863 
L 337.098299 295.25304 
L 338.098299 295.134521 
L 339.098299 295.064311 
L 340.098299 294.981048 
L 341.098299 294.947906 
L 342.098299 294.896669 
L 343.098299 294.828271 
L 344.098299 294.762055 
L 345.098299 294.685138 
L 346.098299 294.657823 
L 347.098299 294.631345 
L 348.098299 294.608695 
L 349.098299 294.589163 
L 350.098299 294.562769 
L 351.098299 294.512999 
L 352.098299 294.477925 
L 353.682951 294.44206 
" clip-path="url(#p0fcf3fa913)" style="fill: none; stroke: #1f77b4; stroke-opacity: 0.5; stroke-width: 0.2; stroke-linecap: square"/>
   </g>
   <g id="patch_3">
    <path d="M 69.06392 22.318125 
L 69.06392 318.021875 
M 284.536112 22.318125 
L 284.536112 318.021875 
" clip-path="url(#p0fcf3fa913)" style="fill: none; stroke: #ffffff; stroke-width: 3; stroke-linejoin: miter"/>
    <path d="M 69.06392 22.318125 
L 69.06392 318.021875 
M 284.536112 22.318125 
L 284.536112 318.021875 
" clip-path="url(#p0fcf3fa913)" style="fill: none; stroke: #1f77b4; stroke-linejoin: miter"/>
   </g>
   <g id="FillBetweenPolyCollection_1">
    <path d="M 284.536112 22.318125 
L 69.06392 22.318125 
L 69.06392 318.021875 
L 284.536112 318.021875 
L 284.536112 318.021875 
L 284.536112 22.318125 
z
" clip-path="url(#p0fcf3fa913)" style="fill: #1f77b4; fill-opacity: 0.5"/>
   </g>
   <g id="patch_4">
    <path d="M 359.245138 22.318125 
L 359.245138 318.021875 
M 574.71733 22.318125 
L 574.71733 318.021875 
" clip-path="url(#p0fcf3fa913)" style="fill: none; stroke: #ffffff; stroke-width: 3; stroke-linejoin: miter"/>
    <path d="M 359.245138 22.318125 
L 359.245138 318.021875 
M 574.71733 22.318125 
L 574.71733 318.021875 
" clip-path="url(#p0fcf3fa913)" style="fill: none; stroke: #ff7f0e; stroke-linejoin: miter"/>
   </g>
   <g id="FillBetweenPolyCollection_2">
    <path d="M 574.71733 22.318125 
L 359.245138 22.318125 
L 359.245138 318.021875 
L 574.71733 318.021875 
L 574.71733 318.021875 
L 574.71733 22.318125 
z
" clip-path="url(#p0fcf3fa913)" style="fill: #ff7f0e; fill-opacity: 0.5"/>
   </g>
   <g id="matplotlib.axis_1">
    <g id="xtick_1">
     <g id="line2d_21"/>
     <g id="text_1">
      <!-- deme0 -->
      <g transform="translate(159.42111 329.120312) scale(0.1 -0.1)">
       <defs>
        <path id="DejaVuSans-64" d="M 2906 2969 
L 2906 4863 
L 3481 4863 
L 3481 0 
L 2906 0 
L 2906 525 
Q 2725 213 2448 61 
Q 2172 -91 1784 -91 
Q 1150 -91 751 415 
Q 353 922 353 1747 
Q 353 2572 751 3078 
Q 1150 3584 1784 3584 
Q 2172 3584 2448 3432 
Q 2725 3281 2906 2969 
z
M 947 1747 
Q 947 1113 1208 752 
Q 1469 391 1925 391 
Q 2381 391 2643 752 
Q 2906 1113 2906 1747 
Q 2906 2381 2643 2742 
Q 2381 3103 1925 3103 
Q 1469 3103 1208 2742 
Q 947 2381 947 1747 
z
" transform="scale(0.015625)"/>
        <path id="DejaVuSans-65" d="M 3597 1894 
L 3597 1613 
L 953 1613 
Q 991 1019 1311 708 
Q 1631 397 2203 397 
Q 2534 397 2845 478 
Q 3156 559 3463 722 
L 3463 178 
Q 3153 47 2828 -22 
Q 2503 -91 2169 -91 
Q 1331 -91 842 396 
Q 353 884 353 1716 
Q 353 2575 817 3079 
Q 1281 3584 2069 3584 
Q 2775 3584 3186 3129 
Q 3597 2675 3597 1894 
z
M 3022 2063 
Q 3016 2534 2758 2815 
Q 2500 3097 2075 3097 
Q 1594 3097 1305 2825 
Q 1016 2553 972 2059 
L 3022 2063 
z
" transform="scale(0.015625)"/>
        <path id="DejaVuSans-6d" d="M 3328 2828 
Q 3544 3216 3844 3400 
Q 4144 3584 4550 3584 
Q 5097 3584 5394 3201 
Q 5691 2819 5691 2113 
L 5691 0 
L 5113 0 
L 5113 2094 
Q 5113 2597 4934 2840 
Q 4756 3084 4391 3084 
Q 3944 3084 3684 2787 
Q 3425 2491 3425 1978 
L 3425 0 
L 2847 0 
L 2847 2094 
Q 2847 2600 2669 2842 
Q 2491 3084 2119 3084 
Q 1678 3084 1418 2786 
Q 1159 2488 1159 1978 
L 1159 0 
L 581 0 
L 581 3500 
L 1159 3500 
L 1159 2956 
Q 1356 3278 1631 3431 
Q 1906 3584 2284 3584 
Q 2666 3584 2933 3390 
Q 3200 3197 3328 2828 
z
" transform="scale(0.015625)"/>
        <path id="DejaVuSans-30" d="M 2034 4250 
Q 1547 4250 1301 3770 
Q 1056 3291 1056 2328 
Q 1056 1369 1301 889 
Q 1547 409 2034 409 
Q 2525 409 2770 889 
Q 3016 1369 3016 2328 
Q 3016 3291 2770 3770 
Q 2525 4250 2034 4250 
z
M 2034 4750 
Q 2819 4750 3233 4129 
Q 3647 3509 3647 2328 
Q 3647 1150 3233 529 
Q 2819 -91 2034 -91 
Q 1250 -91 836 529 
Q 422 1150 422 2328 
Q 422 3509 836 4129 
Q 1250 4750 2034 4750 
z
" transform="scale(0.015625)"/>
       </defs>
       <use xlink:href="#DejaVuSans-64"/>
       <use xlink:href="#DejaVuSans-65" transform="translate(63.476562 0)"/>
       <use xlink:href="#DejaVuSans-6d" transform="translate(125 0)"/>
       <use xlink:href="#DejaVuSans-65" transform="translate(222.412109 0)"/>
       <use xlink:href="#DejaVuSans-30" transform="translate(283.935547 0)"/>
      </g>
     </g>
    </g>
    <g id="xtick_2">
     <g id="line2d_22"/>
     <g id="text_2">
      <!-- deme1 -->
      <g transform="translate(449.602328 329.120312) scale(0.1 -0.1)">
       <defs>
        <path id="DejaVuSans-31" d="M 794 531 
L 1825 531 
L 1825 4091 
L 703 3866 
L 703 4441 
L 1819 4666 
L 2450 4666 
L 2450 531 
L 3481 531 
L 3481 0 
L 794 0 
L 794 531 
z
" transform="scale(0.015625)"/>
       </defs>
       <use xlink:href="#DejaVuSans-64"/>
       <use xlink:href="#DejaVuSans-65" transform="translate(63.476562 0)"/>
       <use xlink:href="#DejaVuSans-6d" transform="translate(125 0)"/>
       <use xlink:href="#DejaVuSans-65" transform="translate(222.412109 0)"/>
       <use xlink:href="#DejaVuSans-31" transform="translate(283.935547 0)"/>
      </g>
     </g>
    </g>
   </g>
   <g id="matplotlib.axis_2">
    <g id="ytick_1">
     <g id="line2d_23">
      <defs>
       <path id="ma3ba70da62" d="M 0 0 
L -3.5 0 
" style="stroke: #000000; stroke-width: 0.8"/>
      </defs>
      <g>
       <use xlink:href="#ma3ba70da62" x="43.78125" y="318.021875" style="stroke: #000000; stroke-width: 0.8"/>
      </g>
     </g>
     <g id="text_3">
      <!-- 0.0 -->
      <g transform="translate(20.878125 321.821094) scale(0.1 -0.1)">
       <defs>
        <path id="DejaVuSans-2e" d="M 684 794 
L 1344 794 
L 1344 0 
L 684 0 
L 684 794 
z
" transform="scale(0.015625)"/>
       </defs>
       <use xlink:href="#DejaVuSans-30"/>
       <use xlink:href="#DejaVuSans-2e" transform="translate(63.623047 0)"/>
       <use xlink:href="#DejaVuSans-30" transform="translate(95.410156 0)"/>
      </g>
     </g>
    </g>
    <g id="ytick_2">
     <g id="line2d_24">
      <g>
       <use xlink:href="#ma3ba70da62" x="43.78125" y="258.881125" style="stroke: #000000; stroke-width: 0.8"/>
      </g>
     </g>
     <g id="text_4">
      <!-- 0.5 -->
      <g transform="translate(20.878125 262.680344) scale(0.1 -0.1)">
       <defs>
        <path id="DejaVuSans-35" d="M 691 4666 
L 3169 4666 
L 3169 4134 
L 1269 4134 
L 1269 2991 
Q 1406 3038 1543 3061 
Q 1681 3084 1819 3084 
Q 2600 3084 3056 2656 
Q 3513 2228 3513 1497 
Q 3513 744 3044 326 
Q 2575 -91 1722 -91 
Q 1428 -91 1123 -41 
Q 819 9 494 109 
L 494 744 
Q 775 591 1075 516 
Q 1375 441 1709 441 
Q 2250 441 2565 725 
Q 2881 1009 2881 1497 
Q 2881 1984 2565 2268 
Q 2250 2553 1709 2553 
Q 1456 2553 1204 2497 
Q 953 2441 691 2322 
L 691 4666 
z
" transform="scale(0.015625)"/>
       </defs>
       <use xlink:href="#DejaVuSans-30"/>
       <use xlink:href="#DejaVuSans-2e" transform="translate(63.623047 0)"/>
       <use xlink:href="#DejaVuSans-35" transform="translate(95.410156 0)"/>
      </g>
     </g>
    </g>
    <g id="ytick_3">
     <g id="line2d_25">
      <g>
       <use xlink:href="#ma3ba70da62" x="43.78125" y="199.740375" style="stroke: #000000; stroke-width: 0.8"/>
      </g>
     </g>
     <g id="text_5">
      <!-- 1.0 -->
      <g transform="translate(20.878125 203.539594) scale(0.1 -0.1)">
       <use xlink:href="#DejaVuSans-31"/>
       <use xlink:href="#DejaVuSans-2e" transform="translate(63.623047 0)"/>
       <use xlink:href="#DejaVuSans-30" transform="translate(95.410156 0)"/>
      </g>
     </g>
    </g>
    <g id="ytick_4">
     <g id="line2d_26">
      <g>
       <use xlink:href="#ma3ba70da62" x="43.78125" y="140.599625" style="stroke: #000000; stroke-width: 0.8"/>
      </g>
     </g>
     <g id="text_6">
      <!-- 1.5 -->
      <g transform="translate(20.878125 144.398844) scale(0.1 -0.1)">
       <use xlink:href="#DejaVuSans-31"/>
       <use xlink:href="#DejaVuSans-2e" transform="translate(63.623047 0)"/>
       <use xlink:href="#DejaVuSans-35" transform="translate(95.410156 0)"/>
      </g>
     </g>
    </g>
    <g id="ytick_5">
     <g id="line2d_27">
      <g>
       <use xlink:href="#ma3ba70da62" x="43.78125" y="81.458875" style="stroke: #000000; stroke-width: 0.8"/>
      </g>
     </g>
     <g id="text_7">
      <!-- 2.0 -->
      <g transform="translate(20.878125 85.258094) scale(0.1 -0.1)">
       <defs>
        <path id="DejaVuSans-32" d="M 1228 531 
L 3431 531 
L 3431 0 
L 469 0 
L 469 531 
Q 828 903 1448 1529 
Q 2069 2156 2228 2338 
Q 2531 2678 2651 2914 
Q 2772 3150 2772 3378 
Q 2772 3750 2511 3984 
Q 2250 4219 1831 4219 
Q 1534 4219 1204 4116 
Q 875 4013 500 3803 
L 500 4441 
Q 881 4594 1212 4672 
Q 1544 4750 1819 4750 
Q 2544 4750 2975 4387 
Q 3406 4025 3406 3419 
Q 3406 3131 3298 2873 
Q 3191 2616 2906 2266 
Q 2828 2175 2409 1742 
Q 1991 1309 1228 531 
z
" transform="scale(0.015625)"/>
       </defs>
       <use xlink:href="#DejaVuSans-32"/>
       <use xlink:href="#DejaVuSans-2e" transform="translate(63.623047 0)"/>
       <use xlink:href="#DejaVuSans-30" transform="translate(95.410156 0)"/>
      </g>
     </g>
    </g>
    <g id="ytick_6">
     <g id="line2d_28">
      <g>
       <use xlink:href="#ma3ba70da62" x="43.78125" y="22.318125" style="stroke: #000000; stroke-width: 0.8"/>
      </g>
     </g>
     <g id="text_8">
      <!-- 2.5 -->
      <g transform="translate(20.878125 26.117344) scale(0.1 -0.1)">
       <use xlink:href="#DejaVuSans-32"/>
       <use xlink:href="#DejaVuSans-2e" transform="translate(63.623047 0)"/>
       <use xlink:href="#DejaVuSans-35" transform="translate(95.410156 0)"/>
      </g>
     </g>
    </g>
    <g id="text_9">
     <!-- time ago (generations) -->
     <g transform="translate(14.798438 227.641094) rotate(-90) scale(0.1 -0.1)">
      <defs>
       <path id="DejaVuSans-74" d="M 1172 4494 
L 1172 3500 
L 2356 3500 
L 2356 3053 
L 1172 3053 
L 1172 1153 
Q 1172 725 1289 603 
Q 1406 481 1766 481 
L 2356 481 
L 2356 0 
L 1766 0 
Q 1100 0 847 248 
Q 594 497 594 1153 
L 594 3053 
L 172 3053 
L 172 3500 
L 594 3500 
L 594 4494 
L 1172 4494 
z
" transform="scale(0.015625)"/>
       <path id="DejaVuSans-69" d="M 603 3500 
L 1178 3500 
L 1178 0 
L 603 0 
L 603 3500 
z
M 603 4863 
L 1178 4863 
L 1178 4134 
L 603 4134 
L 603 4863 
z
" transform="scale(0.015625)"/>
       <path id="DejaVuSans-20" transform="scale(0.015625)"/>
       <path id="DejaVuSans-61" d="M 2194 1759 
Q 1497 1759 1228 1600 
Q 959 1441 959 1056 
Q 959 750 1161 570 
Q 1363 391 1709 391 
Q 2188 391 2477 730 
Q 2766 1069 2766 1631 
L 2766 1759 
L 2194 1759 
z
M 3341 1997 
L 3341 0 
L 2766 0 
L 2766 531 
Q 2569 213 2275 61 
Q 1981 -91 1556 -91 
Q 1019 -91 701 211 
Q 384 513 384 1019 
Q 384 1609 779 1909 
Q 1175 2209 1959 2209 
L 2766 2209 
L 2766 2266 
Q 2766 2663 2505 2880 
Q 2244 3097 1772 3097 
Q 1472 3097 1187 3025 
Q 903 2953 641 2809 
L 641 3341 
Q 956 3463 1253 3523 
Q 1550 3584 1831 3584 
Q 2591 3584 2966 3190 
Q 3341 2797 3341 1997 
z
" transform="scale(0.015625)"/>
       <path id="DejaVuSans-67" d="M 2906 1791 
Q 2906 2416 2648 2759 
Q 2391 3103 1925 3103 
Q 1463 3103 1205 2759 
Q 947 2416 947 1791 
Q 947 1169 1205 825 
Q 1463 481 1925 481 
Q 2391 481 2648 825 
Q 2906 1169 2906 1791 
z
M 3481 434 
Q 3481 -459 3084 -895 
Q 2688 -1331 1869 -1331 
Q 1566 -1331 1297 -1286 
Q 1028 -1241 775 -1147 
L 775 -588 
Q 1028 -725 1275 -790 
Q 1522 -856 1778 -856 
Q 2344 -856 2625 -561 
Q 2906 -266 2906 331 
L 2906 616 
Q 2728 306 2450 153 
Q 2172 0 1784 0 
Q 1141 0 747 490 
Q 353 981 353 1791 
Q 353 2603 747 3093 
Q 1141 3584 1784 3584 
Q 2172 3584 2450 3431 
Q 2728 3278 2906 2969 
L 2906 3500 
L 3481 3500 
L 3481 434 
z
" transform="scale(0.015625)"/>
       <path id="DejaVuSans-6f" d="M 1959 3097 
Q 1497 3097 1228 2736 
Q 959 2375 959 1747 
Q 959 1119 1226 758 
Q 1494 397 1959 397 
Q 2419 397 2687 759 
Q 2956 1122 2956 1747 
Q 2956 2369 2687 2733 
Q 2419 3097 1959 3097 
z
M 1959 3584 
Q 2709 3584 3137 3096 
Q 3566 2609 3566 1747 
Q 3566 888 3137 398 
Q 2709 -91 1959 -91 
Q 1206 -91 779 398 
Q 353 888 353 1747 
Q 353 2609 779 3096 
Q 1206 3584 1959 3584 
z
" transform="scale(0.015625)"/>
       <path id="DejaVuSans-28" d="M 1984 4856 
Q 1566 4138 1362 3434 
Q 1159 2731 1159 2009 
Q 1159 1288 1364 580 
Q 1569 -128 1984 -844 
L 1484 -844 
Q 1016 -109 783 600 
Q 550 1309 550 2009 
Q 550 2706 781 3412 
Q 1013 4119 1484 4856 
L 1984 4856 
z
" transform="scale(0.015625)"/>
       <path id="DejaVuSans-6e" d="M 3513 2113 
L 3513 0 
L 2938 0 
L 2938 2094 
Q 2938 2591 2744 2837 
Q 2550 3084 2163 3084 
Q 1697 3084 1428 2787 
Q 1159 2491 1159 1978 
L 1159 0 
L 581 0 
L 581 3500 
L 1159 3500 
L 1159 2956 
Q 1366 3272 1645 3428 
Q 1925 3584 2291 3584 
Q 2894 3584 3203 3211 
Q 3513 2838 3513 2113 
z
" transform="scale(0.015625)"/>
       <path id="DejaVuSans-72" d="M 2631 2963 
Q 2534 3019 2420 3045 
Q 2306 3072 2169 3072 
Q 1681 3072 1420 2755 
Q 1159 2438 1159 1844 
L 1159 0 
L 581 0 
L 581 3500 
L 1159 3500 
L 1159 2956 
Q 1341 3275 1631 3429 
Q 1922 3584 2338 3584 
Q 2397 3584 2469 3576 
Q 2541 3569 2628 3553 
L 2631 2963 
z
" transform="scale(0.015625)"/>
       <path id="DejaVuSans-73" d="M 2834 3397 
L 2834 2853 
Q 2591 2978 2328 3040 
Q 2066 3103 1784 3103 
Q 1356 3103 1142 2972 
Q 928 2841 928 2578 
Q 928 2378 1081 2264 
Q 1234 2150 1697 2047 
L 1894 2003 
Q 2506 1872 2764 1633 
Q 3022 1394 3022 966 
Q 3022 478 2636 193 
Q 2250 -91 1575 -91 
Q 1294 -91 989 -36 
Q 684 19 347 128 
L 347 722 
Q 666 556 975 473 
Q 1284 391 1588 391 
Q 1994 391 2212 530 
Q 2431 669 2431 922 
Q 2431 1156 2273 1281 
Q 2116 1406 1581 1522 
L 1381 1569 
Q 847 1681 609 1914 
Q 372 2147 372 2553 
Q 372 3047 722 3315 
Q 1072 3584 1716 3584 
Q 2034 3584 2315 3537 
Q 2597 3491 2834 3397 
z
" transform="scale(0.015625)"/>
       <path id="DejaVuSans-29" d="M 513 4856 
L 1013 4856 
Q 1481 4119 1714 3412 
Q 1947 2706 1947 2009 
Q 1947 1309 1714 600 
Q 1481 -109 1013 -844 
L 513 -844 
Q 928 -128 1133 580 
Q 1338 1288 1338 2009 
Q 1338 2731 1133 3434 
Q 928 4138 513 4856 
z
" transform="scale(0.015625)"/>
      </defs>
      <use xlink:href="#DejaVuSans-74"/>
      <use xlink:href="#DejaVuSans-69" transform="translate(39.208984 0)"/>
      <use xlink:href="#DejaVuSans-6d" transform="translate(66.992188 0)"/>
      <use xlink:href="#DejaVuSans-65" transform="translate(164.404297 0)"/>
      <use xlink:href="#DejaVuSans-20" transform="translate(225.927734 0)"/>
      <use xlink:href="#DejaVuSans-61" transform="translate(257.714844 0)"/>
      <use xlink:href="#DejaVuSans-67" transform="translate(318.994141 0)"/>
      <use xlink:href="#DejaVuSans-6f" transform="translate(382.470703 0)"/>
      <use xlink:href="#DejaVuSans-20" transform="translate(443.652344 0)"/>
      <use xlink:href="#DejaVuSans-28" transform="translate(475.439453 0)"/>
      <use xlink:href="#DejaVuSans-67" transform="translate(514.453125 0)"/>
      <use xlink:href="#DejaVuSans-65" transform="translate(577.929688 0)"/>
      <use xlink:href="#DejaVuSans-6e" transform="translate(639.453125 0)"/>
      <use xlink:href="#DejaVuSans-65" transform="translate(702.832031 0)"/>
      <use xlink:href="#DejaVuSans-72" transform="translate(764.355469 0)"/>
      <use xlink:href="#DejaVuSans-61" transform="translate(805.46875 0)"/>
      <use xlink:href="#DejaVuSans-74" transform="translate(866.748047 0)"/>
      <use xlink:href="#DejaVuSans-69" transform="translate(905.957031 0)"/>
      <use xlink:href="#DejaVuSans-6f" transform="translate(933.740234 0)"/>
      <use xlink:href="#DejaVuSans-6e" transform="translate(994.921875 0)"/>
      <use xlink:href="#DejaVuSans-73" transform="translate(1058.300781 0)"/>
      <use xlink:href="#DejaVuSans-29" transform="translate(1110.400391 0)"/>
     </g>
    </g>
   </g>
   <g id="line2d_29">
    <path d="M 354.682951 109.385987 
L 352.682951 108.385987 
L 352.682951 110.385987 
z
" clip-path="url(#p0fcf3fa913)" style="fill: #1f77b4; fill-opacity: 0.5; stroke: #1f77b4; stroke-opacity: 0.5; stroke-linejoin: miter"/>
   </g>
   <g id="line2d_30">
    <path d="M 354.682951 105.553342 
L 352.682951 104.553342 
L 352.682951 106.553342 
z
" clip-path="url(#p0fcf3fa913)" style="fill: #1f77b4; fill-opacity: 0.5; stroke: #1f77b4; stroke-opacity: 0.5; stroke-linejoin: miter"/>
   </g>
   <g id="line2d_31">
    <path d="M 354.682951 134.332083 
L 352.682951 133.332083 
L 352.682951 135.332083 
z
" clip-path="url(#p0fcf3fa913)" style="fill: #1f77b4; fill-opacity: 0.5; stroke: #1f77b4; stroke-opacity: 0.5; stroke-linejoin: miter"/>
   </g>
   <g id="line2d_32">
    <path d="M 354.682951 185.29423 
L 352.682951 184.29423 
L 352.682951 186.29423 
z
" clip-path="url(#p0fcf3fa913)" style="fill: #1f77b4; fill-opacity: 0.5; stroke: #1f77b4; stroke-opacity: 0.5; stroke-linejoin: miter"/>
   </g>
   <g id="line2d_33">
    <path d="M 354.682951 168.592423 
L 352.682951 167.592423 
L 352.682951 169.592423 
z
" clip-path="url(#p0fcf3fa913)" style="fill: #1f77b4; fill-opacity: 0.5; stroke: #1f77b4; stroke-opacity: 0.5; stroke-linejoin: miter"/>
   </g>
   <g id="line2d_34">
    <path d="M 354.682951 159.873321 
L 352.682951 158.873321 
L 352.682951 160.873321 
z
" clip-path="url(#p0fcf3fa913)" style="fill: #1f77b4; fill-opacity: 0.5; stroke: #1f77b4; stroke-opacity: 0.5; stroke-linejoin: miter"/>
   </g>
   <g id="line2d_35">
    <path d="M 354.682951 137.442136 
L 352.682951 136.442136 
L 352.682951 138.442136 
z
" clip-path="url(#p0fcf3fa913)" style="fill: #1f77b4; fill-opacity: 0.5; stroke: #1f77b4; stroke-opacity: 0.5; stroke-linejoin: miter"/>
   </g>
   <g id="line2d_36">
    <path d="M 354.682951 104.431091 
L 352.682951 103.431091 
L 352.682951 105.431091 
z
" clip-path="url(#p0fcf3fa913)" style="fill: #1f77b4; fill-opacity: 0.5; stroke: #1f77b4; stroke-opacity: 0.5; stroke-linejoin: miter"/>
   </g>
   <g id="line2d_37">
    <path d="M 354.682951 197.24352 
L 352.682951 196.24352 
L 352.682951 198.24352 
z
" clip-path="url(#p0fcf3fa913)" style="fill: #1f77b4; fill-opacity: 0.5; stroke: #1f77b4; stroke-opacity: 0.5; stroke-linejoin: miter"/>
   </g>
   <g id="line2d_38">
    <path d="M 354.682951 148.791886 
L 352.682951 147.791886 
L 352.682951 149.791886 
z
" clip-path="url(#p0fcf3fa913)" style="fill: #1f77b4; fill-opacity: 0.5; stroke: #1f77b4; stroke-opacity: 0.5; stroke-linejoin: miter"/>
   </g>
   <g id="line2d_39">
    <path d="M 354.682951 305.372474 
L 352.682951 304.372474 
L 352.682951 306.372474 
z
" clip-path="url(#p0fcf3fa913)" style="fill: #1f77b4; fill-opacity: 0.5; stroke: #1f77b4; stroke-opacity: 0.5; stroke-linejoin: miter"/>
   </g>
   <g id="line2d_40">
    <path d="M 354.682951 273.198602 
L 352.682951 272.198602 
L 352.682951 274.198602 
z
" clip-path="url(#p0fcf3fa913)" style="fill: #1f77b4; fill-opacity: 0.5; stroke: #1f77b4; stroke-opacity: 0.5; stroke-linejoin: miter"/>
   </g>
   <g id="line2d_41">
    <path d="M 354.682951 200.424812 
L 352.682951 199.424812 
L 352.682951 201.424812 
z
" clip-path="url(#p0fcf3fa913)" style="fill: #1f77b4; fill-opacity: 0.5; stroke: #1f77b4; stroke-opacity: 0.5; stroke-linejoin: miter"/>
   </g>
   <g id="line2d_42">
    <path d="M 354.682951 201.42038 
L 352.682951 200.42038 
L 352.682951 202.42038 
z
" clip-path="url(#p0fcf3fa913)" style="fill: #1f77b4; fill-opacity: 0.5; stroke: #1f77b4; stroke-opacity: 0.5; stroke-linejoin: miter"/>
   </g>
   <g id="line2d_43">
    <path d="M 354.682951 291.895066 
L 352.682951 290.895066 
L 352.682951 292.895066 
z
" clip-path="url(#p0fcf3fa913)" style="fill: #1f77b4; fill-opacity: 0.5; stroke: #1f77b4; stroke-opacity: 0.5; stroke-linejoin: miter"/>
   </g>
   <g id="line2d_44">
    <path d="M 354.682951 252.078465 
L 352.682951 251.078465 
L 352.682951 253.078465 
z
" clip-path="url(#p0fcf3fa913)" style="fill: #1f77b4; fill-opacity: 0.5; stroke: #1f77b4; stroke-opacity: 0.5; stroke-linejoin: miter"/>
   </g>
   <g id="line2d_45">
    <path d="M 354.682951 225.008173 
L 352.682951 224.008173 
L 352.682951 226.008173 
z
" clip-path="url(#p0fcf3fa913)" style="fill: #1f77b4; fill-opacity: 0.5; stroke: #1f77b4; stroke-opacity: 0.5; stroke-linejoin: miter"/>
   </g>
   <g id="line2d_46">
    <path d="M 354.682951 266.529836 
L 352.682951 265.529836 
L 352.682951 267.529836 
z
" clip-path="url(#p0fcf3fa913)" style="fill: #1f77b4; fill-opacity: 0.5; stroke: #1f77b4; stroke-opacity: 0.5; stroke-linejoin: miter"/>
   </g>
   <g id="line2d_47">
    <path d="M 354.682951 259.937239 
L 352.682951 258.937239 
L 352.682951 260.937239 
z
" clip-path="url(#p0fcf3fa913)" style="fill: #1f77b4; fill-opacity: 0.5; stroke: #1f77b4; stroke-opacity: 0.5; stroke-linejoin: miter"/>
   </g>
   <g id="line2d_48">
    <path d="M 354.682951 295.404898 
L 352.682951 294.404898 
L 352.682951 296.404898 
z
" clip-path="url(#p0fcf3fa913)" style="fill: #1f77b4; fill-opacity: 0.5; stroke: #1f77b4; stroke-opacity: 0.5; stroke-linejoin: miter"/>
   </g>
   <g id="patch_5">
    <path d="M 43.78125 318.021875 
L 43.78125 22.318125 
" style="fill: none; stroke: #000000; stroke-width: 0.8; stroke-linejoin: miter; stroke-linecap: square"/>
   </g>
   <g id="text_10">
    <!-- defaults_asymmetric_migration_changing_rate.yaml -->
    <g transform="translate(164.675625 16.318125) scale(0.12 -0.12)">
     <defs>
      <path id="DejaVuSans-66" d="M 2375 4863 
L 2375 4384 
L 1825 4384 
Q 1516 4384 1395 4259 
Q 1275 4134 1275 3809 
L 1275 3500 
L 2222 3500 
L 2222 3053 
L 1275 3053 
L 1275 0 
L 697 0 
L 697 3053 
L 147 3053 
L 147 3500 
L 697 3500 
L 697 3744 
Q 697 4328 969 4595 
Q 1241 4863 1831 4863 
L 2375 4863 
z
" transform="scale(0.015625)"/>
      <path id="DejaVuSans-75" d="M 544 1381 
L 544 3500 
L 1119 3500 
L 1119 1403 
Q 1119 906 1312 657 
Q 1506 409 1894 409 
Q 2359 409 2629 706 
Q 2900 1003 2900 1516 
L 2900 3500 
L 3475 3500 
L 3475 0 
L 2900 0 
L 2900 538 
Q 2691 219 2414 64 
Q 2138 -91 1772 -91 
Q 1169 -91 856 284 
Q 544 659 544 1381 
z
M 1991 3584 
L 1991 3584 
z
" transform="scale(0.015625)"/>
      <path id="DejaVuSans-6c" d="M 603 4863 
L 1178 4863 
L 1178 0 
L 603 0 
L 603 4863 
z
" transform="scale(0.015625)"/>
      <path id="DejaVuSans-5f" d="M 3263 -1063 
L 3263 -1509 
L -63 -1509 
L -63 -1063 
L 3263 -1063 
z
" transform="scale(0.015625)"/>
      <path id="DejaVuSans-79" d="M 2059 -325 
Q 1816 -950 1584 -1140 
Q 1353 -1331 966 -1331 
L 506 -1331 
L 506 -850 
L 844 -850 
Q 1081 -850 1212 -737 
Q 1344 -625 1503 -206 
L 1606 56 
L 191 3500 
L 800 3500 
L 1894 763 
L 2988 3500 
L 3597 3500 
L 2059 -325 
z
" transform="scale(0.015625)"/>
      <path id="DejaVuSans-63" d="M 3122 3366 
L 3122 2828 
Q 2878 2963 2633 3030 
Q 2388 3097 2138 3097 
Q 1578 3097 1268 2742 
Q 959 2388 959 1747 
Q 959 1106 1268 751 
Q 1578 397 2138 397 
Q 2388 397 2633 464 
Q 2878 531 3122 666 
L 3122 134 
Q 2881 22 2623 -34 
Q 2366 -91 2075 -91 
Q 1284 -91 818 406 
Q 353 903 353 1747 
Q 353 2603 823 3093 
Q 1294 3584 2113 3584 
Q 2378 3584 2631 3529 
Q 2884 3475 3122 3366 
z
" transform="scale(0.015625)"/>
      <path id="DejaVuSans-68" d="M 3513 2113 
L 3513 0 
L 2938 0 
L 2938 2094 
Q 2938 2591 2744 2837 
Q 2550 3084 2163 3084 
Q 1697 3084 1428 2787 
Q 1159 2491 1159 1978 
L 1159 0 
L 581 0 
L 581 4863 
L 1159 4863 
L 1159 2956 
Q 1366 3272 1645 3428 
Q 1925 3584 2291 3584 
Q 2894 3584 3203 3211 
Q 3513 2838 3513 2113 
z
" transform="scale(0.015625)"/>
     </defs>
     <use xlink:href="#DejaVuSans-64"/>
     <use xlink:href="#DejaVuSans-65" transform="translate(63.476562 0)"/>
     <use xlink:href="#DejaVuSans-66" transform="translate(125 0)"/>
     <use xlink:href="#DejaVuSans-61" transform="translate(160.205078 0)"/>
     <use xlink:href="#DejaVuSans-75" transform="translate(221.484375 0)"/>
     <use xlink:href="#DejaVuSans-6c" transform="translate(284.863281 0)"/>
     <use xlink:href="#DejaVuSans-74" transform="translate(312.646484 0)"/>
     <use xlink:href="#DejaVuSans-73" transform="translate(351.855469 0)"/>
     <use xlink:href="#DejaVuSans-5f" transform="translate(403.955078 0)"/>
     <use xlink:href="#DejaVuSans-61" transform="translate(453.955078 0)"/>
     <use xlink:href="#DejaVuSans-73" transform="translate(515.234375 0)"/>
     <use xlink:href="#DejaVuSans-79" transform="translate(567.333984 0)"/>
     <use xlink:href="#DejaVuSans-6d" transform="translate(626.513672 0)"/>
     <use xlink:href="#DejaVuSans-6d" transform="translate(723.925781 0)"/>
     <use xlink:href="#DejaVuSans-65" transform="translate(821.337891 0)"/>
     <use xlink:href="#DejaVuSans-74" transform="translate(882.861328 0)"/>
     <use xlink:href="#DejaVuSans-72" transform="translate(922.070312 0)"/>
     <use xlink:href="#DejaVuSans-69" transform="translate(963.183594 0)"/>
     <use xlink:href="#DejaVuSans-63" transform="translate(990.966797 0)"/>
     <use xlink:href="#DejaVuSans-5f" transform="translate(1045.947266 0)"/>
     <use xlink:href="#DejaVuSans-6d" transform="translate(1095.947266 0)"/>
     <use xlink:href="#DejaVuSans-69" transform="translate(1193.359375 0)"/>
     <use xlink:href="#DejaVuSans-67" transform="translate(1221.142578 0)"/>
     <use xlink:href="#DejaVuSans-72" transform="translate(1284.619141 0)"/>
     <use xlink:href="#DejaVuSans-61" transform="translate(1325.732422 0)"/>
     <use xlink:href="#DejaVuSans-74" transform="translate(1387.011719 0)"/>
     <use xlink:href="#DejaVuSans-69" transform="translate(1426.220703 0)"/>
     <use xlink:href="#DejaVuSans-6f" transform="translate(1454.003906 0)"/>
     <use xlink:href="#DejaVuSans-6e" transform="translate(1515.185547 0)"/>
     <use xlink:href="#DejaVuSans-5f" transform="translate(1578.564453 0)"/>
     <use xlink:href="#DejaVuSans-63" transform="translate(1628.564453 0)"/>
     <use xlink:href="#DejaVuSans-68" transform="translate(1683.544922 0)"/>
     <use xlink:href="#DejaVuSans-61" transform="translate(1746.923828 0)"/>
     <use xlink:href="#DejaVuSans-6e" transform="translate(1808.203125 0)"/>
     <use xlink:href="#DejaVuSans-67" transform="translate(1871.582031 0)"/>
     <use xlink:href="#DejaVuSans-69" transform="translate(1935.058594 0)"/>
     <use xlink:href="#DejaVuSans-6e" transform="translate(1962.841797 0)"/>
     <use xlink:href="#DejaVuSans-67" transform="translate(2026.220703 0)"/>
     <use xlink:href="#DejaVuSans-5f" transform="translate(2089.697266 0)"/>
     <use xlink:href="#DejaVuSans-72" transform="translate(2139.697266 0)"/>
     <use xlink:href="#DejaVuSans-61" transform="translate(2180.810547 0)"/>
     <use xlink:href="#DejaVuSans-74" transform="translate(2242.089844 0)"/>
     <use xlink:href="#DejaVuSans-65" transform="translate(2281.298828 0)"/>
     <use xlink:href="#DejaVuSans-2e" transform="translate(2342.822266 0)"/>
     <use xlink:href="#DejaVuSans-79" transform="translate(2374.609375 0)"/>
     <use xlink:href="#DejaVuSans-61" transform="translate(2433.789062 0)"/>
     <use xlink:href="#DejaVuSans-6d" transform="translate(2495.068359 0)"/>
     <use xlink:href="#DejaVuSans-6c" transform="translate(2592.480469 0)"/>
    </g>
   </g>
  </g>
 </g>
 <defs>
  <clipPath id="p0fcf3fa913">
   <rect x="43.78125" y="22.318125" width="556.21875" height="295.70375"/>
  </clipPath>
 </defs>
</svg>