<?xml version="1.0" encoding="utf-8" standalone="no"?>
<!DOCTYPE svg PUBLIC "-//W3C//DTD SVG 1.1//EN"
  "http://www.w3.org/Graphics/SVG/1.1/DTD/svg11.dtd">
<svg xmlns:xlink="http://www.w3.org/1999/xlink" width="607.2pt" height="338.4pt" viewBox="0 0 607.2 338.4" xmlns="http://www.w3.org/2000/svg" version="1.1">
 <metadata>
  <rdf:RDF xmlns:dc="http://purl.org/dc/elements/1.1/" xmlns:cc="http://creativecommons.org/ns#" xmlns:rdf="http://www.w3.org/1999/02/22-rdf-syntax-ns#">
   <cc:Work>
    <dc:type rdf:resource="http://purl.org/dc/dcmitype/StillImage"/>
    <dc:date>2024-01-29T08:41:13.789565</dc:date>
    <dc:format>image/svg+xml</dc:format>
    <dc:creator>
     <cc:Agent>
      <dc:title>Matplotlib v3.7.2, https://matplotlib.org/</dc:title>
     </cc:Agent>
    </dc:creator>
   </cc:Work>
  </rdf:RDF>
 </metadata>
 <defs>
  <style type="text/css">*{stroke-linejoin: round; stroke-linecap: butt}</style>
 </defs>
 <g id="figure_1">
  <g id="patch_1">
   <path d="M 0 338.4 
L 607.2 338.4 
L 607.2 0 
L 0 0 
z
" style="fill: #ffffff"/>
  </g>
  <g id="axes_1">
   <g id="patch_2">
    <path d="M 46.965625 318.021875 
L 600 318.021875 
L 600 7.2 
L 46.965625 7.2 
z
" style="fill: #ffffff"/>
   </g>
   <path d="M 200.299443 35.869878 
L 201.299443 35.901314 
L 202.299443 35.938254 
L 203.299443 36.036001 
L 204.299443 36.068522 
L 205.299443 36.142147 
L 206.299443 36.180713 
L 207.299443 36.216126 
L 208.299443 36.273766 
L 209.299443 36.344152 
L 210.299443 36.396116 
L 211.299443 36.455206 
L 212.299443 36.543527 
L 213.299443 36.589671 
L 214.299443 36.632082 
L 215.299443 36.662575 
L 216.299443 36.68862 
L 217.299443 36.70982 
L 218.299443 36.764121 
L 219.299443 36.792059 
L 220.299443 36.821783 
L 221.299443 36.847177 
L 222.299443 36.858378 
L 223.299443 36.868502 
L 224.299443 36.868297 
L 225.299443 36.858787 
L 226.299443 36.847134 
L 227.299443 36.816105 
L 228.299443 36.804937 
L 229.299443 36.774819 
L 230.299443 36.715042 
L 231.299443 36.677851 
L 232.299443 36.638755 
L 233.299443 36.596315 
L 234.299443 36.56355 
L 235.299443 36.496123 
L 236.299443 36.456997 
L 237.299443 36.414323 
L 238.299443 36.343742 
L 239.299443 36.307351 
L 240.299443 36.248948 
L 241.299443 36.137996 
L 242.299443 36.067337 
L 243.299443 35.954398 
L 244.299443 35.908625 
L 245.299443 35.847341 
L 246.299443 35.798842 
L 247.299443 35.718019 
L 248.299443 35.599501 
L 249.299443 35.52929 
L 250.299443 35.446027 
L 251.299443 35.412886 
L 252.299443 35.361648 
L 253.299443 35.29325 
L 254.299443 35.227035 
L 255.299443 35.150118 
L 256.619695 35.122802 
" clip-path="url(#pf37e43b3f4)" style="fill: none; stroke: #1f77b4; stroke-opacity: 0.5; stroke-width: 0.2; stroke-linecap: square"/>
   <path d="M 200.299443 104.23944 
L 201.299443 104.270877 
L 202.299443 104.307817 
L 203.299443 104.405564 
L 204.299443 104.438085 
L 205.299443 104.51171 
L 206.299443 104.550276 
L 207.299443 104.585689 
L 208.299443 104.643329 
L 209.299443 104.713715 
L 210.299443 104.765679 
L 211.299443 104.824769 
L 212.299443 104.91309 
L 213.299443 104.959234 
L 214.299443 105.001645 
L 215.299443 105.032138 
L 216.299443 105.058183 
L 217.299443 105.079383 
L 218.299443 105.133684 
L 219.299443 105.161621 
L 220.299443 105.191345 
L 221.299443 105.21674 
L 222.299443 105.227941 
L 223.299443 105.238065 
L 224.299443 105.23786 
L 225.299443 105.22835 
L 226.299443 105.216697 
L 227.299443 105.185668 
L 228.299443 105.1745 
L 229.299443 105.144382 
L 230.299443 105.084605 
L 231.299443 105.047414 
L 232.299443 105.008318 
L 233.299443 104.965878 
L 234.299443 104.933113 
L 235.299443 104.865686 
L 236.299443 104.82656 
L 237.299443 104.783886 
L 238.299443 104.713305 
L 239.299443 104.676914 
L 240.299443 104.618511 
L 241.299443 104.507559 
L 242.299443 104.4369 
L 243.299443 104.323961 
L 244.299443 104.278188 
L 245.299443 104.216904 
L 246.299443 104.168405 
L 247.299443 104.087582 
L 248.299443 103.969063 
L 249.299443 103.898853 
L 250.299443 103.81559 
L 251.299443 103.782449 
L 252.299443 103.731211 
L 253.299443 103.662813 
L 254.299443 103.596597 
L 255.299443 103.51968 
L 256.619695 103.492365 
" clip-path="url(#pf37e43b3f4)" style="fill: none; stroke: #1f77b4; stroke-opacity: 0.5; stroke-width: 0.2; stroke-linecap: square"/>
   <path d="M 200.299443 115.797073 
L 201.299443 115.828509 
L 202.299443 115.86545 
L 203.299443 115.963196 
L 204.299443 115.995718 
L 205.299443 116.069342 
L 206.299443 116.107908 
L 207.299443 116.143321 
L 208.299443 116.200961 
L 209.299443 116.271347 
L 210.299443 116.323311 
L 211.299443 116.382401 
L 212.299443 116.470722 
L 213.299443 116.516866 
L 214.299443 116.559277 
L 215.299443 116.58977 
L 216.299443 116.615815 
L 217.299443 116.637015 
L 218.299443 116.691316 
L 219.299443 116.719254 
L 220.299443 116.748978 
L 221.299443 116.774373 
L 222.299443 116.785573 
L 223.299443 116.795697 
L 224.299443 116.795493 
L 225.299443 116.785983 
L 226.299443 116.774329 
L 227.299443 116.7433 
L 228.299443 116.732132 
L 229.299443 116.702014 
L 230.299443 116.642237 
L 231.299443 116.605046 
L 232.299443 116.56595 
L 233.299443 116.52351 
L 234.299443 116.490745 
L 235.299443 116.423319 
L 236.299443 116.384193 
L 237.299443 116.341518 
L 238.299443 116.270938 
L 239.299443 116.234547 
L 240.299443 116.176144 
L 241.299443 116.065191 
L 242.299443 115.994533 
L 243.299443 115.881593 
L 244.299443 115.83582 
L 245.299443 115.774537 
L 246.299443 115.726037 
L 247.299443 115.645215 
L 248.299443 115.526696 
L 249.299443 115.456485 
L 250.299443 115.373223 
L 251.299443 115.340081 
L 252.299443 115.288844 
L 253.299443 115.220445 
L 254.299443 115.15423 
L 255.299443 115.077313 
L 256.619695 115.049997 
" clip-path="url(#pf37e43b3f4)" style="fill: none; stroke: #1f77b4; stroke-opacity: 0.5; stroke-width: 0.2; stroke-linecap: square"/>
   <path d="M 200.299443 71.374544 
L 201.299443 71.405981 
L 202.299443 71.442921 
L 203.299443 71.540668 
L 204.299443 71.573189 
L 205.299443 71.646814 
L 206.299443 71.685379 
L 207.299443 71.720793 
L 208.299443 71.778432 
L 209.299443 71.848819 
L 210.299443 71.900783 
L 211.299443 71.959873 
L 212.299443 72.048194 
L 213.299443 72.094338 
L 214.299443 72.136749 
L 215.299443 72.167242 
L 216.299443 72.193286 
L 217.299443 72.214487 
L 218.299443 72.268788 
L 219.299443 72.296725 
L 220.299443 72.326449 
L 221.299443 72.351844 
L 222.299443 72.363044 
L 223.299443 72.373168 
L 224.299443 72.372964 
L 225.299443 72.363454 
L 226.299443 72.351801 
L 227.299443 72.320771 
L 228.299443 72.309603 
L 229.299443 72.279486 
L 230.299443 72.219709 
L 231.299443 72.182517 
L 232.299443 72.143421 
L 233.299443 72.100982 
L 234.299443 72.068217 
L 235.299443 72.00079 
L 236.299443 71.961664 
L 237.299443 71.91899 
L 238.299443 71.848409 
L 239.299443 71.812018 
L 240.299443 71.753615 
L 241.299443 71.642662 
L 242.299443 71.572004 
L 243.299443 71.459064 
L 244.299443 71.413291 
L 245.299443 71.352008 
L 246.299443 71.303509 
L 247.299443 71.222686 
L 248.299443 71.104167 
L 249.299443 71.033957 
L 250.299443 70.950694 
L 251.299443 70.917552 
L 252.299443 70.866315 
L 253.299443 70.797917 
L 254.299443 70.731701 
L 255.299443 70.654784 
L 256.619695 70.627469 
" clip-path="url(#pf37e43b3f4)" style="fill: none; stroke: #1f77b4; stroke-opacity: 0.5; stroke-width: 0.2; stroke-linecap: square"/>
   <path d="M 200.299443 18.242606 
L 201.299443 18.274043 
L 202.299443 18.310983 
L 203.299443 18.40873 
L 204.299443 18.441251 
L 205.299443 18.514876 
L 206.299443 18.553441 
L 207.299443 18.588855 
L 208.299443 18.646494 
L 209.299443 18.716881 
L 210.299443 18.768845 
L 211.299443 18.827935 
L 212.299443 18.916256 
L 213.299443 18.9624 
L 214.299443 19.004811 
L 215.299443 19.035304 
L 216.299443 19.061348 
L 217.299443 19.082549 
L 218.299443 19.13685 
L 219.299443 19.164787 
L 220.299443 19.194511 
L 221.299443 19.219906 
L 222.299443 19.231106 
L 223.299443 19.24123 
L 224.299443 19.241026 
L 225.299443 19.231516 
L 226.299443 19.219863 
L 227.299443 19.188833 
L 228.299443 19.177665 
L 229.299443 19.147548 
L 230.299443 19.087771 
L 231.299443 19.050579 
L 232.299443 19.011483 
L 233.299443 18.969044 
L 234.299443 18.936279 
L 235.299443 18.868852 
L 236.299443 18.829726 
L 237.299443 18.787052 
L 238.299443 18.716471 
L 239.299443 18.68008 
L 240.299443 18.621677 
L 241.299443 18.510724 
L 242.299443 18.440066 
L 243.299443 18.327126 
L 244.299443 18.281353 
L 245.299443 18.22007 
L 246.299443 18.171571 
L 247.299443 18.090748 
L 248.299443 17.972229 
L 249.299443 17.902019 
L 250.299443 17.818756 
L 251.299443 17.785614 
L 252.299443 17.734377 
L 253.299443 17.665979 
L 254.299443 17.599763 
L 255.299443 17.522846 
L 256.619695 17.495531 
" clip-path="url(#pf37e43b3f4)" style="fill: none; stroke: #1f77b4; stroke-opacity: 0.5; stroke-width: 0.2; stroke-linecap: square"/>
   <path d="M 200.299443 286.782892 
L 201.299443 286.814329 
L 202.299443 286.851269 
L 203.299443 286.949016 
L 204.299443 286.981537 
L 205.299443 287.055162 
L 206.299443 287.093728 
L 207.299443 287.129141 
L 208.299443 287.186781 
L 209.299443 287.257167 
L 210.299443 287.309131 
L 211.299443 287.368221 
L 212.299443 287.456542 
L 213.299443 287.502686 
L 214.299443 287.545097 
L 215.299443 287.57559 
L 216.299443 287.601635 
L 217.299443 287.622835 
L 218.299443 287.677136 
L 219.299443 287.705073 
L 220.299443 287.734797 
L 221.299443 287.760192 
L 222.299443 287.771393 
L 223.299443 287.781516 
L 224.299443 287.781312 
L 225.299443 287.771802 
L 226.299443 287.760149 
L 227.299443 287.729119 
L 228.299443 287.717952 
L 229.299443 287.687834 
L 230.299443 287.628057 
L 231.299443 287.590866 
L 232.299443 287.551769 
L 233.299443 287.50933 
L 234.299443 287.476565 
L 235.299443 287.409138 
L 236.299443 287.370012 
L 237.299443 287.327338 
L 238.299443 287.256757 
L 239.299443 287.220366 
L 240.299443 287.161963 
L 241.299443 287.051011 
L 242.299443 286.980352 
L 243.299443 286.867412 
L 244.299443 286.82164 
L 245.299443 286.760356 
L 246.299443 286.711857 
L 247.299443 286.631034 
L 248.299443 286.512515 
L 249.299443 286.442305 
L 250.299443 286.359042 
L 251.299443 286.3259 
L 252.299443 286.274663 
L 253.299443 286.206265 
L 254.299443 286.140049 
L 255.299443 286.063132 
L 256.619695 286.035817 
" clip-path="url(#pf37e43b3f4)" style="fill: none; stroke: #1f77b4; stroke-opacity: 0.5; stroke-width: 0.2; stroke-linecap: square"/>
   <path d="M 200.299443 78.515841 
L 201.299443 78.547277 
L 202.299443 78.584218 
L 203.299443 78.681964 
L 204.299443 78.714486 
L 205.299443 78.78811 
L 206.299443 78.826676 
L 207.299443 78.862089 
L 208.299443 78.919729 
L 209.299443 78.990115 
L 210.299443 79.042079 
L 211.299443 79.101169 
L 212.299443 79.18949 
L 213.299443 79.235634 
L 214.299443 79.278045 
L 215.299443 79.308538 
L 216.299443 79.334583 
L 217.299443 79.355783 
L 218.299443 79.410084 
L 219.299443 79.438022 
L 220.299443 79.467746 
L 221.299443 79.493141 
L 222.299443 79.504341 
L 223.299443 79.514465 
L 224.299443 79.514261 
L 225.299443 79.504751 
L 226.299443 79.493097 
L 227.299443 79.462068 
L 228.299443 79.4509 
L 229.299443 79.420782 
L 230.299443 79.361005 
L 231.299443 79.323814 
L 232.299443 79.284718 
L 233.299443 79.242278 
L 234.299443 79.209513 
L 235.299443 79.142087 
L 236.299443 79.102961 
L 237.299443 79.060286 
L 238.299443 78.989706 
L 239.299443 78.953315 
L 240.299443 78.894912 
L 241.299443 78.783959 
L 242.299443 78.713301 
L 243.299443 78.600361 
L 244.299443 78.554588 
L 245.299443 78.493305 
L 246.299443 78.444805 
L 247.299443 78.363983 
L 248.299443 78.245464 
L 249.299443 78.175253 
L 250.299443 78.091991 
L 251.299443 78.058849 
L 252.299443 78.007612 
L 253.299443 77.939213 
L 254.299443 77.872998 
L 255.299443 77.796081 
L 256.619695 77.768765 
" clip-path="url(#pf37e43b3f4)" style="fill: none; stroke: #1f77b4; stroke-opacity: 0.5; stroke-width: 0.2; stroke-linecap: square"/>
   <path d="M 200.299443 268.236858 
L 201.299443 268.268295 
L 202.299443 268.305235 
L 203.299443 268.402982 
L 204.299443 268.435503 
L 205.299443 268.509128 
L 206.299443 268.547693 
L 207.299443 268.583107 
L 208.299443 268.640747 
L 209.299443 268.711133 
L 210.299443 268.763097 
L 211.299443 268.822187 
L 212.299443 268.910508 
L 213.299443 268.956652 
L 214.299443 268.999063 
L 215.299443 269.029556 
L 216.299443 269.055601 
L 217.299443 269.076801 
L 218.299443 269.131102 
L 219.299443 269.159039 
L 220.299443 269.188763 
L 221.299443 269.214158 
L 222.299443 269.225358 
L 223.299443 269.235482 
L 224.299443 269.235278 
L 225.299443 269.225768 
L 226.299443 269.214115 
L 227.299443 269.183085 
L 228.299443 269.171917 
L 229.299443 269.1418 
L 230.299443 269.082023 
L 231.299443 269.044831 
L 232.299443 269.005735 
L 233.299443 268.963296 
L 234.299443 268.930531 
L 235.299443 268.863104 
L 236.299443 268.823978 
L 237.299443 268.781304 
L 238.299443 268.710723 
L 239.299443 268.674332 
L 240.299443 268.615929 
L 241.299443 268.504976 
L 242.299443 268.434318 
L 243.299443 268.321378 
L 244.299443 268.275605 
L 245.299443 268.214322 
L 246.299443 268.165823 
L 247.299443 268.085 
L 248.299443 267.966481 
L 249.299443 267.896271 
L 250.299443 267.813008 
L 251.299443 267.779866 
L 252.299443 267.728629 
L 253.299443 267.660231 
L 254.299443 267.594015 
L 255.299443 267.517098 
L 256.619695 267.489783 
" clip-path="url(#pf37e43b3f4)" style="fill: none; stroke: #1f77b4; stroke-opacity: 0.5; stroke-width: 0.2; stroke-linecap: square"/>
   <path d="M 200.299443 130.038848 
L 201.299443 130.070285 
L 202.299443 130.107225 
L 203.299443 130.204971 
L 204.299443 130.237493 
L 205.299443 130.311118 
L 206.299443 130.349683 
L 207.299443 130.385097 
L 208.299443 130.442736 
L 209.299443 130.513123 
L 210.299443 130.565087 
L 211.299443 130.624177 
L 212.299443 130.712498 
L 213.299443 130.758642 
L 214.299443 130.801053 
L 215.299443 130.831545 
L 216.299443 130.85759 
L 217.299443 130.878791 
L 218.299443 130.933092 
L 219.299443 130.961029 
L 220.299443 130.990753 
L 221.299443 131.016148 
L 222.299443 131.027348 
L 223.299443 131.037472 
L 224.299443 131.037268 
L 225.299443 131.027758 
L 226.299443 131.016105 
L 227.299443 130.985075 
L 228.299443 130.973907 
L 229.299443 130.94379 
L 230.299443 130.884013 
L 231.299443 130.846821 
L 232.299443 130.807725 
L 233.299443 130.765286 
L 234.299443 130.732521 
L 235.299443 130.665094 
L 236.299443 130.625968 
L 237.299443 130.583294 
L 238.299443 130.512713 
L 239.299443 130.476322 
L 240.299443 130.417919 
L 241.299443 130.306966 
L 242.299443 130.236308 
L 243.299443 130.123368 
L 244.299443 130.077595 
L 245.299443 130.016312 
L 246.299443 129.967813 
L 247.299443 129.88699 
L 248.299443 129.768471 
L 249.299443 129.698261 
L 250.299443 129.614998 
L 251.299443 129.581856 
L 252.299443 129.530619 
L 253.299443 129.462221 
L 254.299443 129.396005 
L 255.299443 129.319088 
L 256.619695 129.291773 
" clip-path="url(#pf37e43b3f4)" style="fill: none; stroke: #1f77b4; stroke-opacity: 0.5; stroke-width: 0.2; stroke-linecap: square"/>
   <path d="M 200.299443 202.971158 
L 201.299443 203.002594 
L 202.299443 203.039535 
L 203.299443 203.137281 
L 204.299443 203.169803 
L 205.299443 203.243428 
L 206.299443 203.281993 
L 207.299443 203.317406 
L 208.299443 203.375046 
L 209.299443 203.445433 
L 210.299443 203.497397 
L 211.299443 203.556487 
L 212.299443 203.644807 
L 213.299443 203.690952 
L 214.299443 203.733363 
L 215.299443 203.763855 
L 216.299443 203.7899 
L 217.299443 203.8111 
L 218.299443 203.865402 
L 219.299443 203.893339 
L 220.299443 203.923063 
L 221.299443 203.948458 
L 222.299443 203.959658 
L 223.299443 203.969782 
L 224.299443 203.969578 
L 225.299443 203.960068 
L 226.299443 203.948414 
L 227.299443 203.917385 
L 228.299443 203.906217 
L 229.299443 203.8761 
L 230.299443 203.816323 
L 231.299443 203.779131 
L 232.299443 203.740035 
L 233.299443 203.697596 
L 234.299443 203.66483 
L 235.299443 203.597404 
L 236.299443 203.558278 
L 237.299443 203.515604 
L 238.299443 203.445023 
L 239.299443 203.408632 
L 240.299443 203.350229 
L 241.299443 203.239276 
L 242.299443 203.168618 
L 243.299443 203.055678 
L 244.299443 203.009905 
L 245.299443 202.948622 
L 246.299443 202.900123 
L 247.299443 202.8193 
L 248.299443 202.700781 
L 249.299443 202.63057 
L 250.299443 202.547308 
L 251.299443 202.514166 
L 252.299443 202.462929 
L 253.299443 202.394531 
L 254.299443 202.328315 
L 255.299443 202.251398 
L 256.619695 202.224083 
" clip-path="url(#pf37e43b3f4)" style="fill: none; stroke: #1f77b4; stroke-opacity: 0.5; stroke-width: 0.2; stroke-linecap: square"/>
   <path d="M 256.619695 21.60186 
L 255.619695 21.570423 
L 254.619695 21.533483 
L 253.619695 21.435736 
L 252.619695 21.403215 
L 251.619695 21.32959 
L 250.619695 21.291024 
L 249.619695 21.255611 
L 248.619695 21.197971 
L 247.619695 21.127585 
L 246.619695 21.075621 
L 245.619695 21.016531 
L 244.619695 20.92821 
L 243.619695 20.882066 
L 242.619695 20.839655 
L 241.619695 20.809162 
L 240.619695 20.783117 
L 239.619695 20.761917 
L 238.619695 20.707616 
L 237.619695 20.679679 
L 236.619695 20.649955 
L 235.619695 20.62456 
L 234.619695 20.613359 
L 233.619695 20.603235 
L 232.619695 20.60344 
L 231.619695 20.61295 
L 230.619695 20.624603 
L 229.619695 20.655632 
L 228.619695 20.6668 
L 227.619695 20.696918 
L 226.619695 20.756695 
L 225.619695 20.793886 
L 224.619695 20.832982 
L 223.619695 20.875422 
L 222.619695 20.908187 
L 221.619695 20.975614 
L 220.619695 21.01474 
L 219.619695 21.057414 
L 218.619695 21.127995 
L 217.619695 21.164386 
L 216.619695 21.222789 
L 215.619695 21.333741 
L 214.619695 21.4044 
L 213.619695 21.51734 
L 212.619695 21.563112 
L 211.619695 21.624396 
L 210.619695 21.672895 
L 209.619695 21.753718 
L 208.619695 21.872237 
L 207.619695 21.942447 
L 206.619695 22.02571 
L 205.619695 22.058851 
L 204.619695 22.110089 
L 203.619695 22.178487 
L 202.619695 22.244703 
L 201.619695 22.32162 
L 200.299443 22.348935 
" clip-path="url(#pf37e43b3f4)" style="fill: none; stroke: #ff7f0e; stroke-opacity: 0.5; stroke-width: 0.2; stroke-linecap: square"/>
   <path d="M 256.619695 156.813619 
L 255.619695 156.782182 
L 254.619695 156.745242 
L 253.619695 156.647495 
L 252.619695 156.614974 
L 251.619695 156.541349 
L 250.619695 156.502784 
L 249.619695 156.46737 
L 248.619695 156.40973 
L 247.619695 156.339344 
L 246.619695 156.28738 
L 245.619695 156.22829 
L 244.619695 156.139969 
L 243.619695 156.093825 
L 242.619695 156.051414 
L 241.619695 156.020921 
L 240.619695 155.994876 
L 239.619695 155.973676 
L 238.619695 155.919375 
L 237.619695 155.891438 
L 236.619695 155.861714 
L 235.619695 155.836319 
L 234.619695 155.825119 
L 233.619695 155.814995 
L 232.619695 155.815199 
L 231.619695 155.824709 
L 230.619695 155.836362 
L 229.619695 155.867392 
L 228.619695 155.87856 
L 227.619695 155.908677 
L 226.619695 155.968454 
L 225.619695 156.005646 
L 224.619695 156.044742 
L 223.619695 156.087181 
L 222.619695 156.119946 
L 221.619695 156.187373 
L 220.619695 156.226499 
L 219.619695 156.269173 
L 218.619695 156.339754 
L 217.619695 156.376145 
L 216.619695 156.434548 
L 215.619695 156.545501 
L 214.619695 156.616159 
L 213.619695 156.729099 
L 212.619695 156.774872 
L 211.619695 156.836155 
L 210.619695 156.884654 
L 209.619695 156.965477 
L 208.619695 157.083996 
L 207.619695 157.154206 
L 206.619695 157.237469 
L 205.619695 157.270611 
L 204.619695 157.321848 
L 203.619695 157.390246 
L 202.619695 157.456462 
L 201.619695 157.533379 
L 200.299443 157.560694 
" clip-path="url(#pf37e43b3f4)" style="fill: none; stroke: #ff7f0e; stroke-opacity: 0.5; stroke-width: 0.2; stroke-linecap: square"/>
   <path d="M 256.619695 317.120862 
L 255.619695 317.089426 
L 254.619695 317.052485 
L 253.619695 316.954739 
L 252.619695 316.922217 
L 251.619695 316.848593 
L 250.619695 316.810027 
L 249.619695 316.774614 
L 248.619695 316.716974 
L 247.619695 316.646588 
L 246.619695 316.594623 
L 245.619695 316.535534 
L 244.619695 316.447213 
L 243.619695 316.401068 
L 242.619695 316.358657 
L 241.619695 316.328165 
L 240.619695 316.30212 
L 239.619695 316.28092 
L 238.619695 316.226619 
L 237.619695 316.198681 
L 236.619695 316.168957 
L 235.619695 316.143562 
L 234.619695 316.132362 
L 233.619695 316.122238 
L 232.619695 316.122442 
L 231.619695 316.131952 
L 230.619695 316.143606 
L 229.619695 316.174635 
L 228.619695 316.185803 
L 227.619695 316.21592 
L 226.619695 316.275697 
L 225.619695 316.312889 
L 224.619695 316.351985 
L 223.619695 316.394425 
L 222.619695 316.42719 
L 221.619695 316.494616 
L 220.619695 316.533742 
L 219.619695 316.576417 
L 218.619695 316.646997 
L 217.619695 316.683388 
L 216.619695 316.741791 
L 215.619695 316.852744 
L 214.619695 316.923402 
L 213.619695 317.036342 
L 212.619695 317.082115 
L 211.619695 317.143398 
L 210.619695 317.191897 
L 209.619695 317.27272 
L 208.619695 317.391239 
L 207.619695 317.46145 
L 206.619695 317.544712 
L 205.619695 317.577854 
L 204.619695 317.629091 
L 203.619695 317.69749 
L 202.619695 317.763705 
L 201.619695 317.840622 
L 200.299443 317.867938 
" clip-path="url(#pf37e43b3f4)" style="fill: none; stroke: #ff7f0e; stroke-opacity: 0.5; stroke-width: 0.2; stroke-linecap: square"/>
   <path d="M 256.619695 165.60237 
L 255.619695 165.570933 
L 254.619695 165.533993 
L 253.619695 165.436246 
L 252.619695 165.403725 
L 251.619695 165.3301 
L 250.619695 165.291535 
L 249.619695 165.256121 
L 248.619695 165.198481 
L 247.619695 165.128095 
L 246.619695 165.076131 
L 245.619695 165.017041 
L 244.619695 164.92872 
L 243.619695 164.882576 
L 242.619695 164.840165 
L 241.619695 164.809672 
L 240.619695 164.783627 
L 239.619695 164.762427 
L 238.619695 164.708126 
L 237.619695 164.680189 
L 236.619695 164.650465 
L 235.619695 164.62507 
L 234.619695 164.61387 
L 233.619695 164.603746 
L 232.619695 164.60395 
L 231.619695 164.61346 
L 230.619695 164.625113 
L 229.619695 164.656143 
L 228.619695 164.667311 
L 227.619695 164.697428 
L 226.619695 164.757205 
L 225.619695 164.794397 
L 224.619695 164.833493 
L 223.619695 164.875932 
L 222.619695 164.908697 
L 221.619695 164.976124 
L 220.619695 165.01525 
L 219.619695 165.057924 
L 218.619695 165.128505 
L 217.619695 165.164896 
L 216.619695 165.223299 
L 215.619695 165.334252 
L 214.619695 165.40491 
L 213.619695 165.51785 
L 212.619695 165.563623 
L 211.619695 165.624906 
L 210.619695 165.673405 
L 209.619695 165.754228 
L 208.619695 165.872747 
L 207.619695 165.942957 
L 206.619695 166.02622 
L 205.619695 166.059362 
L 204.619695 166.110599 
L 203.619695 166.178997 
L 202.619695 166.245213 
L 201.619695 166.32213 
L 200.299443 166.349445 
" clip-path="url(#pf37e43b3f4)" style="fill: none; stroke: #ff7f0e; stroke-opacity: 0.5; stroke-width: 0.2; stroke-linecap: square"/>
   <path d="M 256.619695 66.865905 
L 255.619695 66.834469 
L 254.619695 66.797529 
L 253.619695 66.699782 
L 252.619695 66.667261 
L 251.619695 66.593636 
L 250.619695 66.55507 
L 249.619695 66.519657 
L 248.619695 66.462017 
L 247.619695 66.391631 
L 246.619695 66.339667 
L 245.619695 66.280577 
L 244.619695 66.192256 
L 243.619695 66.146112 
L 242.619695 66.103701 
L 241.619695 66.073208 
L 240.619695 66.047163 
L 239.619695 66.025963 
L 238.619695 65.971662 
L 237.619695 65.943724 
L 236.619695 65.914 
L 235.619695 65.888606 
L 234.619695 65.877405 
L 233.619695 65.867281 
L 232.619695 65.867486 
L 231.619695 65.876995 
L 230.619695 65.888649 
L 229.619695 65.919678 
L 228.619695 65.930846 
L 227.619695 65.960964 
L 226.619695 66.020741 
L 225.619695 66.057932 
L 224.619695 66.097028 
L 223.619695 66.139468 
L 222.619695 66.172233 
L 221.619695 66.23966 
L 220.619695 66.278785 
L 219.619695 66.32146 
L 218.619695 66.392041 
L 217.619695 66.428431 
L 216.619695 66.486835 
L 215.619695 66.597787 
L 214.619695 66.668446 
L 213.619695 66.781385 
L 212.619695 66.827158 
L 211.619695 66.888441 
L 210.619695 66.936941 
L 209.619695 67.017763 
L 208.619695 67.136282 
L 207.619695 67.206493 
L 206.619695 67.289756 
L 205.619695 67.322897 
L 204.619695 67.374135 
L 203.619695 67.442533 
L 202.619695 67.508748 
L 201.619695 67.585665 
L 200.299443 67.612981 
" clip-path="url(#pf37e43b3f4)" style="fill: none; stroke: #ff7f0e; stroke-opacity: 0.5; stroke-width: 0.2; stroke-linecap: square"/>
   <path d="M 256.619695 302.121411 
L 255.619695 302.089974 
L 254.619695 302.053034 
L 253.619695 301.955287 
L 252.619695 301.922766 
L 251.619695 301.849141 
L 250.619695 301.810575 
L 249.619695 301.775162 
L 248.619695 301.717522 
L 247.619695 301.647136 
L 246.619695 301.595172 
L 245.619695 301.536082 
L 244.619695 301.447761 
L 243.619695 301.401617 
L 242.619695 301.359206 
L 241.619695 301.328713 
L 240.619695 301.302668 
L 239.619695 301.281468 
L 238.619695 301.227167 
L 237.619695 301.19923 
L 236.619695 301.169506 
L 235.619695 301.144111 
L 234.619695 301.13291 
L 233.619695 301.122786 
L 232.619695 301.122991 
L 231.619695 301.132501 
L 230.619695 301.144154 
L 229.619695 301.175183 
L 228.619695 301.186351 
L 227.619695 301.216469 
L 226.619695 301.276246 
L 225.619695 301.313437 
L 224.619695 301.352533 
L 223.619695 301.394973 
L 222.619695 301.427738 
L 221.619695 301.495165 
L 220.619695 301.534291 
L 219.619695 301.576965 
L 218.619695 301.647546 
L 217.619695 301.683937 
L 216.619695 301.74234 
L 215.619695 301.853292 
L 214.619695 301.923951 
L 213.619695 302.03689 
L 212.619695 302.082663 
L 211.619695 302.143947 
L 210.619695 302.192446 
L 209.619695 302.273269 
L 208.619695 302.391788 
L 207.619695 302.461998 
L 206.619695 302.545261 
L 205.619695 302.578402 
L 204.619695 302.62964 
L 203.619695 302.698038 
L 202.619695 302.764254 
L 201.619695 302.841171 
L 200.299443 302.868486 
" clip-path="url(#pf37e43b3f4)" style="fill: none; stroke: #ff7f0e; stroke-opacity: 0.5; stroke-width: 0.2; stroke-linecap: square"/>
   <path d="M 256.619695 38.028493 
L 255.619695 37.997057 
L 254.619695 37.960117 
L 253.619695 37.86237 
L 252.619695 37.829849 
L 251.619695 37.756224 
L 250.619695 37.717658 
L 249.619695 37.682245 
L 248.619695 37.624605 
L 247.619695 37.554219 
L 246.619695 37.502255 
L 245.619695 37.443165 
L 244.619695 37.354844 
L 243.619695 37.3087 
L 242.619695 37.266289 
L 241.619695 37.235796 
L 240.619695 37.209751 
L 239.619695 37.188551 
L 238.619695 37.13425 
L 237.619695 37.106312 
L 236.619695 37.076588 
L 235.619695 37.051194 
L 234.619695 37.039993 
L 233.619695 37.029869 
L 232.619695 37.030074 
L 231.619695 37.039584 
L 230.619695 37.051237 
L 229.619695 37.082266 
L 228.619695 37.093434 
L 227.619695 37.123552 
L 226.619695 37.183329 
L 225.619695 37.22052 
L 224.619695 37.259616 
L 223.619695 37.302056 
L 222.619695 37.334821 
L 221.619695 37.402248 
L 220.619695 37.441374 
L 219.619695 37.484048 
L 218.619695 37.554629 
L 217.619695 37.59102 
L 216.619695 37.649423 
L 215.619695 37.760375 
L 214.619695 37.831034 
L 213.619695 37.943973 
L 212.619695 37.989746 
L 211.619695 38.05103 
L 210.619695 38.099529 
L 209.619695 38.180352 
L 208.619695 38.29887 
L 207.619695 38.369081 
L 206.619695 38.452344 
L 205.619695 38.485485 
L 204.619695 38.536723 
L 203.619695 38.605121 
L 202.619695 38.671336 
L 201.619695 38.748254 
L 200.299443 38.775569 
" clip-path="url(#pf37e43b3f4)" style="fill: none; stroke: #ff7f0e; stroke-opacity: 0.5; stroke-width: 0.2; stroke-linecap: square"/>
   <path d="M 256.619695 218.280703 
L 255.619695 218.249267 
L 254.619695 218.212326 
L 253.619695 218.11458 
L 252.619695 218.082058 
L 251.619695 218.008433 
L 250.619695 217.969868 
L 249.619695 217.934455 
L 248.619695 217.876815 
L 247.619695 217.806428 
L 246.619695 217.754464 
L 245.619695 217.695375 
L 244.619695 217.607054 
L 243.619695 217.560909 
L 242.619695 217.518498 
L 241.619695 217.488006 
L 240.619695 217.461961 
L 239.619695 217.440761 
L 238.619695 217.386459 
L 237.619695 217.358522 
L 236.619695 217.328798 
L 235.619695 217.303403 
L 234.619695 217.292203 
L 233.619695 217.282079 
L 232.619695 217.282283 
L 231.619695 217.291793 
L 230.619695 217.303447 
L 229.619695 217.334476 
L 228.619695 217.345644 
L 227.619695 217.375761 
L 226.619695 217.435538 
L 225.619695 217.47273 
L 224.619695 217.511826 
L 223.619695 217.554266 
L 222.619695 217.587031 
L 221.619695 217.654457 
L 220.619695 217.693583 
L 219.619695 217.736258 
L 218.619695 217.806838 
L 217.619695 217.843229 
L 216.619695 217.901632 
L 215.619695 218.012585 
L 214.619695 218.083243 
L 213.619695 218.196183 
L 212.619695 218.241956 
L 211.619695 218.303239 
L 210.619695 218.351738 
L 209.619695 218.432561 
L 208.619695 218.55108 
L 207.619695 218.621291 
L 206.619695 218.704553 
L 205.619695 218.737695 
L 204.619695 218.788932 
L 203.619695 218.85733 
L 202.619695 218.923546 
L 201.619695 219.000463 
L 200.299443 219.027778 
" clip-path="url(#pf37e43b3f4)" style="fill: none; stroke: #ff7f0e; stroke-opacity: 0.5; stroke-width: 0.2; stroke-linecap: square"/>
   <path d="M 256.619695 99.840962 
L 255.619695 99.809525 
L 254.619695 99.772585 
L 253.619695 99.674838 
L 252.619695 99.642317 
L 251.619695 99.568692 
L 250.619695 99.530126 
L 249.619695 99.494713 
L 248.619695 99.437073 
L 247.619695 99.366687 
L 246.619695 99.314723 
L 245.619695 99.255633 
L 244.619695 99.167312 
L 243.619695 99.121168 
L 242.619695 99.078757 
L 241.619695 99.048264 
L 240.619695 99.022219 
L 239.619695 99.001019 
L 238.619695 98.946718 
L 237.619695 98.918781 
L 236.619695 98.889057 
L 235.619695 98.863662 
L 234.619695 98.852461 
L 233.619695 98.842337 
L 232.619695 98.842542 
L 231.619695 98.852052 
L 230.619695 98.863705 
L 229.619695 98.894734 
L 228.619695 98.905902 
L 227.619695 98.93602 
L 226.619695 98.995797 
L 225.619695 99.032988 
L 224.619695 99.072084 
L 223.619695 99.114524 
L 222.619695 99.147289 
L 221.619695 99.214716 
L 220.619695 99.253842 
L 219.619695 99.296516 
L 218.619695 99.367097 
L 217.619695 99.403488 
L 216.619695 99.461891 
L 215.619695 99.572843 
L 214.619695 99.643502 
L 213.619695 99.756442 
L 212.619695 99.802214 
L 211.619695 99.863498 
L 210.619695 99.911997 
L 209.619695 99.99282 
L 208.619695 100.111339 
L 207.619695 100.181549 
L 206.619695 100.264812 
L 205.619695 100.297953 
L 204.619695 100.349191 
L 203.619695 100.417589 
L 202.619695 100.483805 
L 201.619695 100.560722 
L 200.299443 100.588037 
" clip-path="url(#pf37e43b3f4)" style="fill: none; stroke: #ff7f0e; stroke-opacity: 0.5; stroke-width: 0.2; stroke-linecap: square"/>
   <path d="M 256.619695 106.064909 
L 255.619695 106.033473 
L 254.619695 105.996532 
L 253.619695 105.898786 
L 252.619695 105.866264 
L 251.619695 105.792639 
L 250.619695 105.754074 
L 249.619695 105.718661 
L 248.619695 105.661021 
L 247.619695 105.590635 
L 246.619695 105.53867 
L 245.619695 105.479581 
L 244.619695 105.39126 
L 243.619695 105.345115 
L 242.619695 105.302704 
L 241.619695 105.272212 
L 240.619695 105.246167 
L 239.619695 105.224967 
L 238.619695 105.170666 
L 237.619695 105.142728 
L 236.619695 105.113004 
L 235.619695 105.087609 
L 234.619695 105.076409 
L 233.619695 105.066285 
L 232.619695 105.066489 
L 231.619695 105.075999 
L 230.619695 105.087653 
L 229.619695 105.118682 
L 228.619695 105.12985 
L 227.619695 105.159967 
L 226.619695 105.219744 
L 225.619695 105.256936 
L 224.619695 105.296032 
L 223.619695 105.338472 
L 222.619695 105.371237 
L 221.619695 105.438663 
L 220.619695 105.477789 
L 219.619695 105.520464 
L 218.619695 105.591044 
L 217.619695 105.627435 
L 216.619695 105.685838 
L 215.619695 105.796791 
L 214.619695 105.867449 
L 213.619695 105.980389 
L 212.619695 106.026162 
L 211.619695 106.087445 
L 210.619695 106.135944 
L 209.619695 106.216767 
L 208.619695 106.335286 
L 207.619695 106.405497 
L 206.619695 106.488759 
L 205.619695 106.521901 
L 204.619695 106.573138 
L 203.619695 106.641537 
L 202.619695 106.707752 
L 201.619695 106.784669 
L 200.299443 106.811985 
" clip-path="url(#pf37e43b3f4)" style="fill: none; stroke: #ff7f0e; stroke-opacity: 0.5; stroke-width: 0.2; stroke-linecap: square"/>
   <path d="M 390.34593 274.228309 
L 391.34593 274.259746 
L 392.34593 274.296686 
L 393.34593 274.394433 
L 394.34593 274.426954 
L 395.34593 274.500579 
L 396.34593 274.539145 
L 397.34593 274.574558 
L 398.34593 274.632198 
L 399.34593 274.702584 
L 400.34593 274.754548 
L 401.34593 274.813638 
L 402.34593 274.901959 
L 403.34593 274.948103 
L 404.34593 274.990514 
L 405.34593 275.021007 
L 406.34593 275.047052 
L 407.34593 275.068252 
L 408.34593 275.122553 
L 409.34593 275.15049 
L 410.34593 275.180214 
L 411.34593 275.205609 
L 412.34593 275.21681 
L 413.34593 275.226934 
L 414.34593 275.226729 
L 415.34593 275.217219 
L 416.34593 275.205566 
L 417.34593 275.174537 
L 418.34593 275.163369 
L 419.34593 275.133251 
L 420.34593 275.073474 
L 421.34593 275.036283 
L 422.34593 274.997187 
L 423.34593 274.954747 
L 424.34593 274.921982 
L 425.34593 274.854555 
L 426.34593 274.815429 
L 427.34593 274.772755 
L 428.34593 274.702174 
L 429.34593 274.665783 
L 430.34593 274.60738 
L 431.34593 274.496428 
L 432.34593 274.425769 
L 433.34593 274.312829 
L 434.34593 274.267057 
L 435.34593 274.205773 
L 436.34593 274.157274 
L 437.34593 274.076451 
L 438.34593 273.957932 
L 439.34593 273.887722 
L 440.34593 273.804459 
L 441.34593 273.771318 
L 442.34593 273.72008 
L 443.34593 273.651682 
L 444.34593 273.585466 
L 445.34593 273.508549 
L 446.666182 273.481234 
" clip-path="url(#pf37e43b3f4)" style="fill: none; stroke: #ff7f0e; stroke-opacity: 0.5; stroke-width: 0.2; stroke-linecap: square"/>
   <path d="M 390.34593 57.498628 
L 391.34593 57.530064 
L 392.34593 57.567005 
L 393.34593 57.664751 
L 394.34593 57.697273 
L 395.34593 57.770897 
L 396.34593 57.809463 
L 397.34593 57.844876 
L 398.34593 57.902516 
L 399.34593 57.972902 
L 400.34593 58.024867 
L 401.34593 58.083956 
L 402.34593 58.172277 
L 403.34593 58.218422 
L 404.34593 58.260833 
L 405.34593 58.291325 
L 406.34593 58.31737 
L 407.34593 58.33857 
L 408.34593 58.392871 
L 409.34593 58.420809 
L 410.34593 58.450533 
L 411.34593 58.475928 
L 412.34593 58.487128 
L 413.34593 58.497252 
L 414.34593 58.497048 
L 415.34593 58.487538 
L 416.34593 58.475884 
L 417.34593 58.444855 
L 418.34593 58.433687 
L 419.34593 58.40357 
L 420.34593 58.343793 
L 421.34593 58.306601 
L 422.34593 58.267505 
L 423.34593 58.225065 
L 424.34593 58.1923 
L 425.34593 58.124874 
L 426.34593 58.085748 
L 427.34593 58.043073 
L 428.34593 57.972493 
L 429.34593 57.936102 
L 430.34593 57.877699 
L 431.34593 57.766746 
L 432.34593 57.696088 
L 433.34593 57.583148 
L 434.34593 57.537375 
L 435.34593 57.476092 
L 436.34593 57.427592 
L 437.34593 57.34677 
L 438.34593 57.228251 
L 439.34593 57.15804 
L 440.34593 57.074778 
L 441.34593 57.041636 
L 442.34593 56.990399 
L 443.34593 56.922 
L 444.34593 56.855785 
L 445.34593 56.778868 
L 446.666182 56.751552 
" clip-path="url(#pf37e43b3f4)" style="fill: none; stroke: #ff7f0e; stroke-opacity: 0.5; stroke-width: 0.2; stroke-linecap: square"/>
   <path d="M 390.34593 34.48789 
L 391.34593 34.519327 
L 392.34593 34.556267 
L 393.34593 34.654014 
L 394.34593 34.686535 
L 395.34593 34.76016 
L 396.34593 34.798726 
L 397.34593 34.834139 
L 398.34593 34.891779 
L 399.34593 34.962165 
L 400.34593 35.014129 
L 401.34593 35.073219 
L 402.34593 35.16154 
L 403.34593 35.207684 
L 404.34593 35.250095 
L 405.34593 35.280588 
L 406.34593 35.306633 
L 407.34593 35.327833 
L 408.34593 35.382134 
L 409.34593 35.410072 
L 410.34593 35.439795 
L 411.34593 35.46519 
L 412.34593 35.476391 
L 413.34593 35.486515 
L 414.34593 35.48631 
L 415.34593 35.4768 
L 416.34593 35.465147 
L 417.34593 35.434118 
L 418.34593 35.42295 
L 419.34593 35.392832 
L 420.34593 35.333055 
L 421.34593 35.295864 
L 422.34593 35.256768 
L 423.34593 35.214328 
L 424.34593 35.181563 
L 425.34593 35.114136 
L 426.34593 35.07501 
L 427.34593 35.032336 
L 428.34593 34.961755 
L 429.34593 34.925364 
L 430.34593 34.866961 
L 431.34593 34.756009 
L 432.34593 34.68535 
L 433.34593 34.572411 
L 434.34593 34.526638 
L 435.34593 34.465354 
L 436.34593 34.416855 
L 437.34593 34.336032 
L 438.34593 34.217513 
L 439.34593 34.147303 
L 440.34593 34.06404 
L 441.34593 34.030899 
L 442.34593 33.979661 
L 443.34593 33.911263 
L 444.34593 33.845048 
L 445.34593 33.76813 
L 446.666182 33.740815 
" clip-path="url(#pf37e43b3f4)" style="fill: none; stroke: #ff7f0e; stroke-opacity: 0.5; stroke-width: 0.2; stroke-linecap: square"/>
   <path d="M 390.34593 45.21266 
L 391.34593 45.244097 
L 392.34593 45.281037 
L 393.34593 45.378784 
L 394.34593 45.411305 
L 395.34593 45.48493 
L 396.34593 45.523495 
L 397.34593 45.558909 
L 398.34593 45.616548 
L 399.34593 45.686935 
L 400.34593 45.738899 
L 401.34593 45.797989 
L 402.34593 45.88631 
L 403.34593 45.932454 
L 404.34593 45.974865 
L 405.34593 46.005358 
L 406.34593 46.031402 
L 407.34593 46.052603 
L 408.34593 46.106904 
L 409.34593 46.134841 
L 410.34593 46.164565 
L 411.34593 46.18996 
L 412.34593 46.20116 
L 413.34593 46.211284 
L 414.34593 46.21108 
L 415.34593 46.20157 
L 416.34593 46.189917 
L 417.34593 46.158887 
L 418.34593 46.147719 
L 419.34593 46.117602 
L 420.34593 46.057825 
L 421.34593 46.020633 
L 422.34593 45.981537 
L 423.34593 45.939098 
L 424.34593 45.906333 
L 425.34593 45.838906 
L 426.34593 45.79978 
L 427.34593 45.757106 
L 428.34593 45.686525 
L 429.34593 45.650134 
L 430.34593 45.591731 
L 431.34593 45.480778 
L 432.34593 45.41012 
L 433.34593 45.29718 
L 434.34593 45.251407 
L 435.34593 45.190124 
L 436.34593 45.141625 
L 437.34593 45.060802 
L 438.34593 44.942283 
L 439.34593 44.872073 
L 440.34593 44.78881 
L 441.34593 44.755668 
L 442.34593 44.704431 
L 443.34593 44.636033 
L 444.34593 44.569817 
L 445.34593 44.4929 
L 446.666182 44.465585 
" clip-path="url(#pf37e43b3f4)" style="fill: none; stroke: #ff7f0e; stroke-opacity: 0.5; stroke-width: 0.2; stroke-linecap: square"/>
   <path d="M 390.34593 44.350874 
L 391.34593 44.382311 
L 392.34593 44.419251 
L 393.34593 44.516998 
L 394.34593 44.549519 
L 395.34593 44.623144 
L 396.34593 44.66171 
L 397.34593 44.697123 
L 398.34593 44.754763 
L 399.34593 44.825149 
L 400.34593 44.877113 
L 401.34593 44.936203 
L 402.34593 45.024524 
L 403.34593 45.070668 
L 404.34593 45.113079 
L 405.34593 45.143572 
L 406.34593 45.169617 
L 407.34593 45.190817 
L 408.34593 45.245118 
L 409.34593 45.273055 
L 410.34593 45.302779 
L 411.34593 45.328174 
L 412.34593 45.339375 
L 413.34593 45.349499 
L 414.34593 45.349294 
L 415.34593 45.339784 
L 416.34593 45.328131 
L 417.34593 45.297101 
L 418.34593 45.285934 
L 419.34593 45.255816 
L 420.34593 45.196039 
L 421.34593 45.158848 
L 422.34593 45.119751 
L 423.34593 45.077312 
L 424.34593 45.044547 
L 425.34593 44.97712 
L 426.34593 44.937994 
L 427.34593 44.89532 
L 428.34593 44.824739 
L 429.34593 44.788348 
L 430.34593 44.729945 
L 431.34593 44.618993 
L 432.34593 44.548334 
L 433.34593 44.435394 
L 434.34593 44.389622 
L 435.34593 44.328338 
L 436.34593 44.279839 
L 437.34593 44.199016 
L 438.34593 44.080497 
L 439.34593 44.010287 
L 440.34593 43.927024 
L 441.34593 43.893883 
L 442.34593 43.842645 
L 443.34593 43.774247 
L 444.34593 43.708031 
L 445.34593 43.631114 
L 446.666182 43.603799 
" clip-path="url(#pf37e43b3f4)" style="fill: none; stroke: #ff7f0e; stroke-opacity: 0.5; stroke-width: 0.2; stroke-linecap: square"/>
   <path d="M 390.34593 173.429214 
L 391.34593 173.460651 
L 392.34593 173.497591 
L 393.34593 173.595338 
L 394.34593 173.627859 
L 395.34593 173.701484 
L 396.34593 173.74005 
L 397.34593 173.775463 
L 398.34593 173.833103 
L 399.34593 173.903489 
L 400.34593 173.955453 
L 401.34593 174.014543 
L 402.34593 174.102864 
L 403.34593 174.149008 
L 404.34593 174.191419 
L 405.34593 174.221912 
L 406.34593 174.247957 
L 407.34593 174.269157 
L 408.34593 174.323458 
L 409.34593 174.351395 
L 410.34593 174.381119 
L 411.34593 174.406514 
L 412.34593 174.417715 
L 413.34593 174.427839 
L 414.34593 174.427634 
L 415.34593 174.418124 
L 416.34593 174.406471 
L 417.34593 174.375441 
L 418.34593 174.364274 
L 419.34593 174.334156 
L 420.34593 174.274379 
L 421.34593 174.237188 
L 422.34593 174.198091 
L 423.34593 174.155652 
L 424.34593 174.122887 
L 425.34593 174.05546 
L 426.34593 174.016334 
L 427.34593 173.97366 
L 428.34593 173.903079 
L 429.34593 173.866688 
L 430.34593 173.808285 
L 431.34593 173.697333 
L 432.34593 173.626674 
L 433.34593 173.513734 
L 434.34593 173.467962 
L 435.34593 173.406678 
L 436.34593 173.358179 
L 437.34593 173.277356 
L 438.34593 173.158837 
L 439.34593 173.088627 
L 440.34593 173.005364 
L 441.34593 172.972223 
L 442.34593 172.920985 
L 443.34593 172.852587 
L 444.34593 172.786371 
L 445.34593 172.709454 
L 446.666182 172.682139 
" clip-path="url(#pf37e43b3f4)" style="fill: none; stroke: #ff7f0e; stroke-opacity: 0.5; stroke-width: 0.2; stroke-linecap: square"/>
   <path d="M 390.34593 263.116623 
L 391.34593 263.14806 
L 392.34593 263.185 
L 393.34593 263.282747 
L 394.34593 263.315268 
L 395.34593 263.388893 
L 396.34593 263.427459 
L 397.34593 263.462872 
L 398.34593 263.520512 
L 399.34593 263.590898 
L 400.34593 263.642862 
L 401.34593 263.701952 
L 402.34593 263.790273 
L 403.34593 263.836417 
L 404.34593 263.878828 
L 405.34593 263.909321 
L 406.34593 263.935366 
L 407.34593 263.956566 
L 408.34593 264.010867 
L 409.34593 264.038804 
L 410.34593 264.068528 
L 411.34593 264.093923 
L 412.34593 264.105124 
L 413.34593 264.115248 
L 414.34593 264.115043 
L 415.34593 264.105533 
L 416.34593 264.09388 
L 417.34593 264.062851 
L 418.34593 264.051683 
L 419.34593 264.021565 
L 420.34593 263.961788 
L 421.34593 263.924597 
L 422.34593 263.885501 
L 423.34593 263.843061 
L 424.34593 263.810296 
L 425.34593 263.742869 
L 426.34593 263.703743 
L 427.34593 263.661069 
L 428.34593 263.590488 
L 429.34593 263.554097 
L 430.34593 263.495694 
L 431.34593 263.384742 
L 432.34593 263.314083 
L 433.34593 263.201144 
L 434.34593 263.155371 
L 435.34593 263.094087 
L 436.34593 263.045588 
L 437.34593 262.964765 
L 438.34593 262.846246 
L 439.34593 262.776036 
L 440.34593 262.692773 
L 441.34593 262.659632 
L 442.34593 262.608394 
L 443.34593 262.539996 
L 444.34593 262.47378 
L 445.34593 262.396863 
L 446.666182 262.369548 
" clip-path="url(#pf37e43b3f4)" style="fill: none; stroke: #ff7f0e; stroke-opacity: 0.5; stroke-width: 0.2; stroke-linecap: square"/>
   <path d="M 390.34593 287.138596 
L 391.34593 287.170033 
L 392.34593 287.206973 
L 393.34593 287.304719 
L 394.34593 287.337241 
L 395.34593 287.410866 
L 396.34593 287.449431 
L 397.34593 287.484845 
L 398.34593 287.542484 
L 399.34593 287.612871 
L 400.34593 287.664835 
L 401.34593 287.723925 
L 402.34593 287.812246 
L 403.34593 287.85839 
L 404.34593 287.900801 
L 405.34593 287.931294 
L 406.34593 287.957338 
L 407.34593 287.978539 
L 408.34593 288.03284 
L 409.34593 288.060777 
L 410.34593 288.090501 
L 411.34593 288.115896 
L 412.34593 288.127096 
L 413.34593 288.13722 
L 414.34593 288.137016 
L 415.34593 288.127506 
L 416.34593 288.115853 
L 417.34593 288.084823 
L 418.34593 288.073655 
L 419.34593 288.043538 
L 420.34593 287.983761 
L 421.34593 287.946569 
L 422.34593 287.907473 
L 423.34593 287.865034 
L 424.34593 287.832269 
L 425.34593 287.764842 
L 426.34593 287.725716 
L 427.34593 287.683042 
L 428.34593 287.612461 
L 429.34593 287.57607 
L 430.34593 287.517667 
L 431.34593 287.406714 
L 432.34593 287.336056 
L 433.34593 287.223116 
L 434.34593 287.177343 
L 435.34593 287.11606 
L 436.34593 287.067561 
L 437.34593 286.986738 
L 438.34593 286.868219 
L 439.34593 286.798009 
L 440.34593 286.714746 
L 441.34593 286.681604 
L 442.34593 286.630367 
L 443.34593 286.561969 
L 444.34593 286.495753 
L 445.34593 286.418836 
L 446.666182 286.391521 
" clip-path="url(#pf37e43b3f4)" style="fill: none; stroke: #ff7f0e; stroke-opacity: 0.5; stroke-width: 0.2; stroke-linecap: square"/>
   <path d="M 390.34593 125.147855 
L 391.34593 125.179291 
L 392.34593 125.216231 
L 393.34593 125.313978 
L 394.34593 125.346499 
L 395.34593 125.420124 
L 396.34593 125.45869 
L 397.34593 125.494103 
L 398.34593 125.551743 
L 399.34593 125.622129 
L 400.34593 125.674093 
L 401.34593 125.733183 
L 402.34593 125.821504 
L 403.34593 125.867648 
L 404.34593 125.910059 
L 405.34593 125.940552 
L 406.34593 125.966597 
L 407.34593 125.987797 
L 408.34593 126.042098 
L 409.34593 126.070036 
L 410.34593 126.09976 
L 411.34593 126.125154 
L 412.34593 126.136355 
L 413.34593 126.146479 
L 414.34593 126.146274 
L 415.34593 126.136765 
L 416.34593 126.125111 
L 417.34593 126.094082 
L 418.34593 126.082914 
L 419.34593 126.052796 
L 420.34593 125.993019 
L 421.34593 125.955828 
L 422.34593 125.916732 
L 423.34593 125.874292 
L 424.34593 125.841527 
L 425.34593 125.7741 
L 426.34593 125.734975 
L 427.34593 125.6923 
L 428.34593 125.621719 
L 429.34593 125.585329 
L 430.34593 125.526925 
L 431.34593 125.415973 
L 432.34593 125.345314 
L 433.34593 125.232375 
L 434.34593 125.186602 
L 435.34593 125.125319 
L 436.34593 125.076819 
L 437.34593 124.995997 
L 438.34593 124.877478 
L 439.34593 124.807267 
L 440.34593 124.724004 
L 441.34593 124.690863 
L 442.34593 124.639625 
L 443.34593 124.571227 
L 444.34593 124.505012 
L 445.34593 124.428095 
L 446.666182 124.400779 
" clip-path="url(#pf37e43b3f4)" style="fill: none; stroke: #ff7f0e; stroke-opacity: 0.5; stroke-width: 0.2; stroke-linecap: square"/>
   <path d="M 390.34593 115.961681 
L 391.34593 115.993117 
L 392.34593 116.030058 
L 393.34593 116.127804 
L 394.34593 116.160326 
L 395.34593 116.233951 
L 396.34593 116.272516 
L 397.34593 116.307929 
L 398.34593 116.365569 
L 399.34593 116.435955 
L 400.34593 116.48792 
L 401.34593 116.547009 
L 402.34593 116.63533 
L 403.34593 116.681475 
L 404.34593 116.723886 
L 405.34593 116.754378 
L 406.34593 116.780423 
L 407.34593 116.801623 
L 408.34593 116.855924 
L 409.34593 116.883862 
L 410.34593 116.913586 
L 411.34593 116.938981 
L 412.34593 116.950181 
L 413.34593 116.960305 
L 414.34593 116.960101 
L 415.34593 116.950591 
L 416.34593 116.938937 
L 417.34593 116.907908 
L 418.34593 116.89674 
L 419.34593 116.866623 
L 420.34593 116.806846 
L 421.34593 116.769654 
L 422.34593 116.730558 
L 423.34593 116.688118 
L 424.34593 116.655353 
L 425.34593 116.587927 
L 426.34593 116.548801 
L 427.34593 116.506126 
L 428.34593 116.435546 
L 429.34593 116.399155 
L 430.34593 116.340752 
L 431.34593 116.229799 
L 432.34593 116.159141 
L 433.34593 116.046201 
L 434.34593 116.000428 
L 435.34593 115.939145 
L 436.34593 115.890646 
L 437.34593 115.809823 
L 438.34593 115.691304 
L 439.34593 115.621093 
L 440.34593 115.537831 
L 441.34593 115.504689 
L 442.34593 115.453452 
L 443.34593 115.385053 
L 444.34593 115.318838 
L 445.34593 115.241921 
L 446.666182 115.214605 
" clip-path="url(#pf37e43b3f4)" style="fill: none; stroke: #ff7f0e; stroke-opacity: 0.5; stroke-width: 0.2; stroke-linecap: square"/>
   <path d="M 446.666182 107.882553 
L 445.666182 107.851116 
L 444.666182 107.814176 
L 443.666182 107.716429 
L 442.666182 107.683908 
L 441.666182 107.610283 
L 440.666182 107.571717 
L 439.666182 107.536304 
L 438.666182 107.478664 
L 437.666182 107.408278 
L 436.666182 107.356314 
L 435.666182 107.297224 
L 434.666182 107.208903 
L 433.666182 107.162759 
L 432.666182 107.120348 
L 431.666182 107.089855 
L 430.666182 107.06381 
L 429.666182 107.04261 
L 428.666182 106.988309 
L 427.666182 106.960371 
L 426.666182 106.930648 
L 425.666182 106.905253 
L 424.666182 106.894052 
L 423.666182 106.883928 
L 422.666182 106.884133 
L 421.666182 106.893643 
L 420.666182 106.905296 
L 419.666182 106.936325 
L 418.666182 106.947493 
L 417.666182 106.977611 
L 416.666182 107.037388 
L 415.666182 107.074579 
L 414.666182 107.113675 
L 413.666182 107.156115 
L 412.666182 107.18888 
L 411.666182 107.256307 
L 410.666182 107.295433 
L 409.666182 107.338107 
L 408.666182 107.408688 
L 407.666182 107.445079 
L 406.666182 107.503482 
L 405.666182 107.614434 
L 404.666182 107.685093 
L 403.666182 107.798032 
L 402.666182 107.843805 
L 401.666182 107.905089 
L 400.666182 107.953588 
L 399.666182 108.034411 
L 398.666182 108.15293 
L 397.666182 108.22314 
L 396.666182 108.306403 
L 395.666182 108.339544 
L 394.666182 108.390782 
L 393.666182 108.45918 
L 392.666182 108.525395 
L 391.666182 108.602313 
L 390.34593 108.629628 
" clip-path="url(#pf37e43b3f4)" style="fill: none; stroke: #2ca02c; stroke-opacity: 0.5; stroke-width: 0.2; stroke-linecap: square"/>
   <path d="M 446.666182 213.480532 
L 445.666182 213.449095 
L 444.666182 213.412155 
L 443.666182 213.314408 
L 442.666182 213.281887 
L 441.666182 213.208262 
L 440.666182 213.169697 
L 439.666182 213.134283 
L 438.666182 213.076644 
L 437.666182 213.006257 
L 436.666182 212.954293 
L 435.666182 212.895203 
L 434.666182 212.806882 
L 433.666182 212.760738 
L 432.666182 212.718327 
L 431.666182 212.687834 
L 430.666182 212.66179 
L 429.666182 212.640589 
L 428.666182 212.586288 
L 427.666182 212.558351 
L 426.666182 212.528627 
L 425.666182 212.503232 
L 424.666182 212.492032 
L 423.666182 212.481908 
L 422.666182 212.482112 
L 421.666182 212.491622 
L 420.666182 212.503275 
L 419.666182 212.534305 
L 418.666182 212.545473 
L 417.666182 212.57559 
L 416.666182 212.635367 
L 415.666182 212.672559 
L 414.666182 212.711655 
L 413.666182 212.754094 
L 412.666182 212.786859 
L 411.666182 212.854286 
L 410.666182 212.893412 
L 409.666182 212.936086 
L 408.666182 213.006667 
L 407.666182 213.043058 
L 406.666182 213.101461 
L 405.666182 213.212414 
L 404.666182 213.283072 
L 403.666182 213.396012 
L 402.666182 213.441785 
L 401.666182 213.503068 
L 400.666182 213.551567 
L 399.666182 213.63239 
L 398.666182 213.750909 
L 397.666182 213.821119 
L 396.666182 213.904382 
L 395.666182 213.937524 
L 394.666182 213.988761 
L 393.666182 214.057159 
L 392.666182 214.123375 
L 391.666182 214.200292 
L 390.34593 214.227607 
" clip-path="url(#pf37e43b3f4)" style="fill: none; stroke: #2ca02c; stroke-opacity: 0.5; stroke-width: 0.2; stroke-linecap: square"/>
   <path d="M 446.666182 309.986224 
L 445.666182 309.954788 
L 444.666182 309.917847 
L 443.666182 309.820101 
L 442.666182 309.787579 
L 441.666182 309.713955 
L 440.666182 309.675389 
L 439.666182 309.639976 
L 438.666182 309.582336 
L 437.666182 309.51195 
L 436.666182 309.459986 
L 435.666182 309.400896 
L 434.666182 309.312575 
L 433.666182 309.266431 
L 432.666182 309.22402 
L 431.666182 309.193527 
L 430.666182 309.167482 
L 429.666182 309.146282 
L 428.666182 309.091981 
L 427.666182 309.064043 
L 426.666182 309.034319 
L 425.666182 309.008924 
L 424.666182 308.997724 
L 423.666182 308.9876 
L 422.666182 308.987804 
L 421.666182 308.997314 
L 420.666182 309.008968 
L 419.666182 309.039997 
L 418.666182 309.051165 
L 417.666182 309.081283 
L 416.666182 309.14106 
L 415.666182 309.178251 
L 414.666182 309.217347 
L 413.666182 309.259787 
L 412.666182 309.292552 
L 411.666182 309.359978 
L 410.666182 309.399104 
L 409.666182 309.441779 
L 408.666182 309.512359 
L 407.666182 309.54875 
L 406.666182 309.607153 
L 405.666182 309.718106 
L 404.666182 309.788764 
L 403.666182 309.901704 
L 402.666182 309.947477 
L 401.666182 310.00876 
L 400.666182 310.05726 
L 399.666182 310.138082 
L 398.666182 310.256601 
L 397.666182 310.326812 
L 396.666182 310.410074 
L 395.666182 310.443216 
L 394.666182 310.494453 
L 393.666182 310.562852 
L 392.666182 310.629067 
L 391.666182 310.705984 
L 390.34593 310.7333 
" clip-path="url(#pf37e43b3f4)" style="fill: none; stroke: #2ca02c; stroke-opacity: 0.5; stroke-width: 0.2; stroke-linecap: square"/>
   <path d="M 446.666182 133.6374 
L 445.666182 133.605963 
L 444.666182 133.569023 
L 443.666182 133.471276 
L 442.666182 133.438755 
L 441.666182 133.36513 
L 440.666182 133.326565 
L 439.666182 133.291151 
L 438.666182 133.233511 
L 437.666182 133.163125 
L 436.666182 133.111161 
L 435.666182 133.052071 
L 434.666182 132.96375 
L 433.666182 132.917606 
L 432.666182 132.875195 
L 431.666182 132.844702 
L 430.666182 132.818657 
L 429.666182 132.797457 
L 428.666182 132.743156 
L 427.666182 132.715219 
L 426.666182 132.685495 
L 425.666182 132.6601 
L 424.666182 132.648899 
L 423.666182 132.638776 
L 422.666182 132.63898 
L 421.666182 132.64849 
L 420.666182 132.660143 
L 419.666182 132.691173 
L 418.666182 132.702341 
L 417.666182 132.732458 
L 416.666182 132.792235 
L 415.666182 132.829427 
L 414.666182 132.868523 
L 413.666182 132.910962 
L 412.666182 132.943727 
L 411.666182 133.011154 
L 410.666182 133.05028 
L 409.666182 133.092954 
L 408.666182 133.163535 
L 407.666182 133.199926 
L 406.666182 133.258329 
L 405.666182 133.369281 
L 404.666182 133.43994 
L 403.666182 133.55288 
L 402.666182 133.598653 
L 401.666182 133.659936 
L 400.666182 133.708435 
L 399.666182 133.789258 
L 398.666182 133.907777 
L 397.666182 133.977987 
L 396.666182 134.06125 
L 395.666182 134.094392 
L 394.666182 134.145629 
L 393.666182 134.214027 
L 392.666182 134.280243 
L 391.666182 134.35716 
L 390.34593 134.384475 
" clip-path="url(#pf37e43b3f4)" style="fill: none; stroke: #2ca02c; stroke-opacity: 0.5; stroke-width: 0.2; stroke-linecap: square"/>
   <path d="M 446.666182 12.20236 
L 445.666182 12.170924 
L 444.666182 12.133984 
L 443.666182 12.036237 
L 442.666182 12.003715 
L 441.666182 11.930091 
L 440.666182 11.891525 
L 439.666182 11.856112 
L 438.666182 11.798472 
L 437.666182 11.728086 
L 436.666182 11.676122 
L 435.666182 11.617032 
L 434.666182 11.528711 
L 433.666182 11.482567 
L 432.666182 11.440156 
L 431.666182 11.409663 
L 430.666182 11.383618 
L 429.666182 11.362418 
L 428.666182 11.308117 
L 427.666182 11.280179 
L 426.666182 11.250455 
L 425.666182 11.225061 
L 424.666182 11.21386 
L 423.666182 11.203736 
L 422.666182 11.203941 
L 421.666182 11.21345 
L 420.666182 11.225104 
L 419.666182 11.256133 
L 418.666182 11.267301 
L 417.666182 11.297419 
L 416.666182 11.357196 
L 415.666182 11.394387 
L 414.666182 11.433483 
L 413.666182 11.475923 
L 412.666182 11.508688 
L 411.666182 11.576114 
L 410.666182 11.61524 
L 409.666182 11.657915 
L 408.666182 11.728495 
L 407.666182 11.764886 
L 406.666182 11.82329 
L 405.666182 11.934242 
L 404.666182 12.0049 
L 403.666182 12.11784 
L 402.666182 12.163613 
L 401.666182 12.224896 
L 400.666182 12.273396 
L 399.666182 12.354218 
L 398.666182 12.472737 
L 397.666182 12.542948 
L 396.666182 12.62621 
L 395.666182 12.659352 
L 394.666182 12.710589 
L 393.666182 12.778988 
L 392.666182 12.845203 
L 391.666182 12.92212 
L 390.34593 12.949436 
" clip-path="url(#pf37e43b3f4)" style="fill: none; stroke: #2ca02c; stroke-opacity: 0.5; stroke-width: 0.2; stroke-linecap: square"/>
   <path d="M 446.666182 162.109743 
L 445.666182 162.078306 
L 444.666182 162.041366 
L 443.666182 161.94362 
L 442.666182 161.911098 
L 441.666182 161.837473 
L 440.666182 161.798908 
L 439.666182 161.763495 
L 438.666182 161.705855 
L 437.666182 161.635468 
L 436.666182 161.583504 
L 435.666182 161.524414 
L 434.666182 161.436093 
L 433.666182 161.389949 
L 432.666182 161.347538 
L 431.666182 161.317046 
L 430.666182 161.291001 
L 429.666182 161.269801 
L 428.666182 161.215499 
L 427.666182 161.187562 
L 426.666182 161.157838 
L 425.666182 161.132443 
L 424.666182 161.121243 
L 423.666182 161.111119 
L 422.666182 161.111323 
L 421.666182 161.120833 
L 420.666182 161.132486 
L 419.666182 161.163516 
L 418.666182 161.174684 
L 417.666182 161.204801 
L 416.666182 161.264578 
L 415.666182 161.30177 
L 414.666182 161.340866 
L 413.666182 161.383305 
L 412.666182 161.416071 
L 411.666182 161.483497 
L 410.666182 161.522623 
L 409.666182 161.565297 
L 408.666182 161.635878 
L 407.666182 161.672269 
L 406.666182 161.730672 
L 405.666182 161.841625 
L 404.666182 161.912283 
L 403.666182 162.025223 
L 402.666182 162.070996 
L 401.666182 162.132279 
L 400.666182 162.180778 
L 399.666182 162.261601 
L 398.666182 162.38012 
L 397.666182 162.45033 
L 396.666182 162.533593 
L 395.666182 162.566735 
L 394.666182 162.617972 
L 393.666182 162.68637 
L 392.666182 162.752586 
L 391.666182 162.829503 
L 390.34593 162.856818 
" clip-path="url(#pf37e43b3f4)" style="fill: none; stroke: #2ca02c; stroke-opacity: 0.5; stroke-width: 0.2; stroke-linecap: square"/>
   <path d="M 446.666182 40.038073 
L 445.666182 40.006637 
L 444.666182 39.969697 
L 443.666182 39.87195 
L 442.666182 39.839429 
L 441.666182 39.765804 
L 440.666182 39.727238 
L 439.666182 39.691825 
L 438.666182 39.634185 
L 437.666182 39.563799 
L 436.666182 39.511835 
L 435.666182 39.452745 
L 434.666182 39.364424 
L 433.666182 39.31828 
L 432.666182 39.275869 
L 431.666182 39.245376 
L 430.666182 39.219331 
L 429.666182 39.198131 
L 428.666182 39.14383 
L 427.666182 39.115892 
L 426.666182 39.086168 
L 425.666182 39.060774 
L 424.666182 39.049573 
L 423.666182 39.039449 
L 422.666182 39.039654 
L 421.666182 39.049163 
L 420.666182 39.060817 
L 419.666182 39.091846 
L 418.666182 39.103014 
L 417.666182 39.133132 
L 416.666182 39.192909 
L 415.666182 39.2301 
L 414.666182 39.269196 
L 413.666182 39.311636 
L 412.666182 39.344401 
L 411.666182 39.411828 
L 410.666182 39.450953 
L 409.666182 39.493628 
L 408.666182 39.564209 
L 407.666182 39.600599 
L 406.666182 39.659003 
L 405.666182 39.769955 
L 404.666182 39.840614 
L 403.666182 39.953553 
L 402.666182 39.999326 
L 401.666182 40.060609 
L 400.666182 40.109109 
L 399.666182 40.189931 
L 398.666182 40.30845 
L 397.666182 40.378661 
L 396.666182 40.461924 
L 395.666182 40.495065 
L 394.666182 40.546303 
L 393.666182 40.614701 
L 392.666182 40.680916 
L 391.666182 40.757833 
L 390.34593 40.785149 
" clip-path="url(#pf37e43b3f4)" style="fill: none; stroke: #2ca02c; stroke-opacity: 0.5; stroke-width: 0.2; stroke-linecap: square"/>
   <path d="M 446.666182 254.777368 
L 445.666182 254.745931 
L 444.666182 254.708991 
L 443.666182 254.611244 
L 442.666182 254.578723 
L 441.666182 254.505098 
L 440.666182 254.466533 
L 439.666182 254.431119 
L 438.666182 254.373479 
L 437.666182 254.303093 
L 436.666182 254.251129 
L 435.666182 254.192039 
L 434.666182 254.103718 
L 433.666182 254.057574 
L 432.666182 254.015163 
L 431.666182 253.98467 
L 430.666182 253.958625 
L 429.666182 253.937425 
L 428.666182 253.883124 
L 427.666182 253.855187 
L 426.666182 253.825463 
L 425.666182 253.800068 
L 424.666182 253.788868 
L 423.666182 253.778744 
L 422.666182 253.778948 
L 421.666182 253.788458 
L 420.666182 253.800111 
L 419.666182 253.831141 
L 418.666182 253.842309 
L 417.666182 253.872426 
L 416.666182 253.932203 
L 415.666182 253.969395 
L 414.666182 254.008491 
L 413.666182 254.05093 
L 412.666182 254.083695 
L 411.666182 254.151122 
L 410.666182 254.190248 
L 409.666182 254.232922 
L 408.666182 254.303503 
L 407.666182 254.339894 
L 406.666182 254.398297 
L 405.666182 254.50925 
L 404.666182 254.579908 
L 403.666182 254.692848 
L 402.666182 254.738621 
L 401.666182 254.799904 
L 400.666182 254.848403 
L 399.666182 254.929226 
L 398.666182 255.047745 
L 397.666182 255.117955 
L 396.666182 255.201218 
L 395.666182 255.23436 
L 394.666182 255.285597 
L 393.666182 255.353995 
L 392.666182 255.420211 
L 391.666182 255.497128 
L 390.34593 255.524443 
" clip-path="url(#pf37e43b3f4)" style="fill: none; stroke: #2ca02c; stroke-opacity: 0.5; stroke-width: 0.2; stroke-linecap: square"/>
   <path d="M 446.666182 124.827322 
L 445.666182 124.795885 
L 444.666182 124.758945 
L 443.666182 124.661198 
L 442.666182 124.628677 
L 441.666182 124.555052 
L 440.666182 124.516486 
L 439.666182 124.481073 
L 438.666182 124.423433 
L 437.666182 124.353047 
L 436.666182 124.301083 
L 435.666182 124.241993 
L 434.666182 124.153672 
L 433.666182 124.107528 
L 432.666182 124.065117 
L 431.666182 124.034624 
L 430.666182 124.008579 
L 429.666182 123.987379 
L 428.666182 123.933078 
L 427.666182 123.90514 
L 426.666182 123.875417 
L 425.666182 123.850022 
L 424.666182 123.838821 
L 423.666182 123.828697 
L 422.666182 123.828902 
L 421.666182 123.838412 
L 420.666182 123.850065 
L 419.666182 123.881094 
L 418.666182 123.892262 
L 417.666182 123.92238 
L 416.666182 123.982157 
L 415.666182 124.019348 
L 414.666182 124.058444 
L 413.666182 124.100884 
L 412.666182 124.133649 
L 411.666182 124.201076 
L 410.666182 124.240202 
L 409.666182 124.282876 
L 408.666182 124.353457 
L 407.666182 124.389848 
L 406.666182 124.448251 
L 405.666182 124.559203 
L 404.666182 124.629862 
L 403.666182 124.742801 
L 402.666182 124.788574 
L 401.666182 124.849858 
L 400.666182 124.898357 
L 399.666182 124.97918 
L 398.666182 125.097699 
L 397.666182 125.167909 
L 396.666182 125.251172 
L 395.666182 125.284313 
L 394.666182 125.335551 
L 393.666182 125.403949 
L 392.666182 125.470164 
L 391.666182 125.547082 
L 390.34593 125.574397 
" clip-path="url(#pf37e43b3f4)" style="fill: none; stroke: #2ca02c; stroke-opacity: 0.5; stroke-width: 0.2; stroke-linecap: square"/>
   <path d="M 446.666182 79.63306 
L 445.666182 79.601624 
L 444.666182 79.564684 
L 443.666182 79.466937 
L 442.666182 79.434415 
L 441.666182 79.360791 
L 440.666182 79.322225 
L 439.666182 79.286812 
L 438.666182 79.229172 
L 437.666182 79.158786 
L 436.666182 79.106822 
L 435.666182 79.047732 
L 434.666182 78.959411 
L 433.666182 78.913267 
L 432.666182 78.870856 
L 431.666182 78.840363 
L 430.666182 78.814318 
L 429.666182 78.793118 
L 428.666182 78.738817 
L 427.666182 78.710879 
L 426.666182 78.681155 
L 425.666182 78.655761 
L 424.666182 78.64456 
L 423.666182 78.634436 
L 422.666182 78.634641 
L 421.666182 78.64415 
L 420.666182 78.655804 
L 419.666182 78.686833 
L 418.666182 78.698001 
L 417.666182 78.728119 
L 416.666182 78.787896 
L 415.666182 78.825087 
L 414.666182 78.864183 
L 413.666182 78.906623 
L 412.666182 78.939388 
L 411.666182 79.006814 
L 410.666182 79.04594 
L 409.666182 79.088615 
L 408.666182 79.159196 
L 407.666182 79.195586 
L 406.666182 79.25399 
L 405.666182 79.364942 
L 404.666182 79.4356 
L 403.666182 79.54854 
L 402.666182 79.594313 
L 401.666182 79.655596 
L 400.666182 79.704096 
L 399.666182 79.784918 
L 398.666182 79.903437 
L 397.666182 79.973648 
L 396.666182 80.05691 
L 395.666182 80.090052 
L 394.666182 80.14129 
L 393.666182 80.209688 
L 392.666182 80.275903 
L 391.666182 80.35282 
L 390.34593 80.380136 
" clip-path="url(#pf37e43b3f4)" style="fill: none; stroke: #2ca02c; stroke-opacity: 0.5; stroke-width: 0.2; stroke-linecap: square"/>
   <g id="patch_3">
    <path d="M 72.103551 7.2 
L 72.103551 318.021875 
M 194.769099 7.2 
L 194.769099 318.021875 
" clip-path="url(#pf37e43b3f4)" style="fill: none; stroke: #ffffff; stroke-width: 3; stroke-linejoin: miter"/>
    <path d="M 72.103551 7.2 
L 72.103551 318.021875 
M 194.769099 7.2 
L 194.769099 318.021875 
" clip-path="url(#pf37e43b3f4)" style="fill: none; stroke: #1f77b4; stroke-linejoin: miter"/>
    <g id="PolyCollection_1">
     <path d="M 194.769099 7.2 
L 72.103551 7.2 
L 72.103551 318.021875 
L 194.769099 318.021875 
L 194.769099 318.021875 
L 194.769099 7.2 
z
" clip-path="url(#pf37e43b3f4)" style="fill: #1f77b4; fill-opacity: 0.5"/>
    </g>
    <g id="patch_4">
     <path d="M 262.150038 7.2 
L 262.150038 318.021875 
M 384.815587 7.2 
L 384.815587 318.021875 
" clip-path="url(#pf37e43b3f4)" style="fill: none; stroke: #ffffff; stroke-width: 3; stroke-linejoin: miter"/>
     <path d="M 262.150038 7.2 
L 262.150038 318.021875 
M 384.815587 7.2 
L 384.815587 318.021875 
" clip-path="url(#pf37e43b3f4)" style="fill: none; stroke: #ff7f0e; stroke-linejoin: miter"/>
     <g id="PolyCollection_2">
      <path d="M 384.815587 7.2 
L 262.150038 7.2 
L 262.150038 318.021875 
L 384.815587 318.021875 
L 384.815587 318.021875 
L 384.815587 7.2 
z
" clip-path="url(#pf37e43b3f4)" style="fill: #ff7f0e; fill-opacity: 0.5"/>
     </g>
     <g id="patch_5">
      <path d="M 452.196526 7.2 
L 452.196526 318.021875 
M 574.862074 7.2 
L 574.862074 318.021875 
" clip-path="url(#pf37e43b3f4)" style="fill: none; stroke: #ffffff; stroke-width: 3; stroke-linejoin: miter"/>
      <path d="M 452.196526 7.2 
L 452.196526 318.021875 
M 574.862074 7.2 
L 574.862074 318.021875 
" clip-path="url(#pf37e43b3f4)" style="fill: none; stroke: #2ca02c; stroke-linejoin: miter"/>
      <g id="PolyCollection_3">
       <path d="M 574.862074 7.2 
L 452.196526 7.2 
L 452.196526 318.021875 
L 574.862074 318.021875 
L 574.862074 318.021875 
L 574.862074 7.2 
z
" clip-path="url(#pf37e43b3f4)" style="fill: #2ca02c; fill-opacity: 0.5"/>
      </g>
      <g id="matplotlib.axis_1">
       <g id="xtick_1">
        <g id="line2d_1"/>
        <g id="text_1">
         <!-- d0 -->
         <g transform="translate(127.080856 329.120312) scale(0.1 -0.1)">
          <defs>
           <path id="DejaVuSans-64" d="M 2906 2969 
L 2906 4863 
L 3481 4863 
L 3481 0 
L 2906 0 
L 2906 525 
Q 2725 213 2448 61 
Q 2172 -91 1784 -91 
Q 1150 -91 751 415 
Q 353 922 353 1747 
Q 353 2572 751 3078 
Q 1150 3584 1784 3584 
Q 2172 3584 2448 3432 
Q 2725 3281 2906 2969 
z
M 947 1747 
Q 947 1113 1208 752 
Q 1469 391 1925 391 
Q 2381 391 2643 752 
Q 2906 1113 2906 1747 
Q 2906 2381 2643 2742 
Q 2381 3103 1925 3103 
Q 1469 3103 1208 2742 
Q 947 2381 947 1747 
z
" transform="scale(0.015625)"/>
           <path id="DejaVuSans-30" d="M 2034 4250 
Q 1547 4250 1301 3770 
Q 1056 3291 1056 2328 
Q 1056 1369 1301 889 
Q 1547 409 2034 409 
Q 2525 409 2770 889 
Q 3016 1369 3016 2328 
Q 3016 3291 2770 3770 
Q 2525 4250 2034 4250 
z
M 2034 4750 
Q 2819 4750 3233 4129 
Q 3647 3509 3647 2328 
Q 3647 1150 3233 529 
Q 2819 -91 2034 -91 
Q 1250 -91 836 529 
Q 422 1150 422 2328 
Q 422 3509 836 4129 
Q 1250 4750 2034 4750 
z
" transform="scale(0.015625)"/>
          </defs>
          <use xlink:href="#DejaVuSans-64"/>
          <use xlink:href="#DejaVuSans-30" x="63.476562"/>
         </g>
        </g>
       </g>
       <g id="xtick_2">
        <g id="line2d_2"/>
        <g id="text_2">
         <!-- d1 -->
         <g transform="translate(317.127344 329.120312) scale(0.1 -0.1)">
          <defs>
           <path id="DejaVuSans-31" d="M 794 531 
L 1825 531 
L 1825 4091 
L 703 3866 
L 703 4441 
L 1819 4666 
L 2450 4666 
L 2450 531 
L 3481 531 
L 3481 0 
L 794 0 
L 794 531 
z
" transform="scale(0.015625)"/>
          </defs>
          <use xlink:href="#DejaVuSans-64"/>
          <use xlink:href="#DejaVuSans-31" x="63.476562"/>
         </g>
        </g>
       </g>
       <g id="xtick_3">
        <g id="line2d_3"/>
        <g id="text_3">
         <!-- d2 -->
         <g transform="translate(507.173831 329.120312) scale(0.1 -0.1)">
          <defs>
           <path id="DejaVuSans-32" d="M 1228 531 
L 3431 531 
L 3431 0 
L 469 0 
L 469 531 
Q 828 903 1448 1529 
Q 2069 2156 2228 2338 
Q 2531 2678 2651 2914 
Q 2772 3150 2772 3378 
Q 2772 3750 2511 3984 
Q 2250 4219 1831 4219 
Q 1534 4219 1204 4116 
Q 875 4013 500 3803 
L 500 4441 
Q 881 4594 1212 4672 
Q 1544 4750 1819 4750 
Q 2544 4750 2975 4387 
Q 3406 4025 3406 3419 
Q 3406 3131 3298 2873 
Q 3191 2616 2906 2266 
Q 2828 2175 2409 1742 
Q 1991 1309 1228 531 
z
" transform="scale(0.015625)"/>
          </defs>
          <use xlink:href="#DejaVuSans-64"/>
          <use xlink:href="#DejaVuSans-32" x="63.476562"/>
         </g>
        </g>
       </g>
      </g>
      <g id="matplotlib.axis_2">
       <g id="ytick_1">
        <g id="line2d_4">
         <defs>
          <path id="mdb7b44d619" d="M 0 0 
L -3.5 0 
" style="stroke: #000000; stroke-width: 0.8"/>
         </defs>
         <g>
          <use xlink:href="#mdb7b44d619" x="46.965625" y="318.021875" style="stroke: #000000; stroke-width: 0.8"/>
         </g>
        </g>
        <g id="text_4">
         <!-- 0 -->
         <g transform="translate(33.603125 321.821094) scale(0.1 -0.1)">
          <use xlink:href="#DejaVuSans-30"/>
         </g>
        </g>
       </g>
       <g id="ytick_2">
        <g id="line2d_5">
         <g>
          <use xlink:href="#mdb7b44d619" x="46.965625" y="263.009154" style="stroke: #000000; stroke-width: 0.8"/>
         </g>
        </g>
        <g id="text_5">
         <!-- 20 -->
         <g transform="translate(27.240625 266.808373) scale(0.1 -0.1)">
          <use xlink:href="#DejaVuSans-32"/>
          <use xlink:href="#DejaVuSans-30" x="63.623047"/>
         </g>
        </g>
       </g>
       <g id="ytick_3">
        <g id="line2d_6">
         <g>
          <use xlink:href="#mdb7b44d619" x="46.965625" y="207.996433" style="stroke: #000000; stroke-width: 0.8"/>
         </g>
        </g>
        <g id="text_6">
         <!-- 40 -->
         <g transform="translate(27.240625 211.795651) scale(0.1 -0.1)">
          <defs>
           <path id="DejaVuSans-34" d="M 2419 4116 
L 825 1625 
L 2419 1625 
L 2419 4116 
z
M 2253 4666 
L 3047 4666 
L 3047 1625 
L 3713 1625 
L 3713 1100 
L 3047 1100 
L 3047 0 
L 2419 0 
L 2419 1100 
L 313 1100 
L 313 1709 
L 2253 4666 
z
" transform="scale(0.015625)"/>
          </defs>
          <use xlink:href="#DejaVuSans-34"/>
          <use xlink:href="#DejaVuSans-30" x="63.623047"/>
         </g>
        </g>
       </g>
       <g id="ytick_4">
        <g id="line2d_7">
         <g>
          <use xlink:href="#mdb7b44d619" x="46.965625" y="152.983711" style="stroke: #000000; stroke-width: 0.8"/>
         </g>
        </g>
        <g id="text_7">
         <!-- 60 -->
         <g transform="translate(27.240625 156.78293) scale(0.1 -0.1)">
          <defs>
           <path id="DejaVuSans-36" d="M 2113 2584 
Q 1688 2584 1439 2293 
Q 1191 2003 1191 1497 
Q 1191 994 1439 701 
Q 1688 409 2113 409 
Q 2538 409 2786 701 
Q 3034 994 3034 1497 
Q 3034 2003 2786 2293 
Q 2538 2584 2113 2584 
z
M 3366 4563 
L 3366 3988 
Q 3128 4100 2886 4159 
Q 2644 4219 2406 4219 
Q 1781 4219 1451 3797 
Q 1122 3375 1075 2522 
Q 1259 2794 1537 2939 
Q 1816 3084 2150 3084 
Q 2853 3084 3261 2657 
Q 3669 2231 3669 1497 
Q 3669 778 3244 343 
Q 2819 -91 2113 -91 
Q 1303 -91 875 529 
Q 447 1150 447 2328 
Q 447 3434 972 4092 
Q 1497 4750 2381 4750 
Q 2619 4750 2861 4703 
Q 3103 4656 3366 4563 
z
" transform="scale(0.015625)"/>
          </defs>
          <use xlink:href="#DejaVuSans-36"/>
          <use xlink:href="#DejaVuSans-30" x="63.623047"/>
         </g>
        </g>
       </g>
       <g id="ytick_5">
        <g id="line2d_8">
         <g>
          <use xlink:href="#mdb7b44d619" x="46.965625" y="97.97099" style="stroke: #000000; stroke-width: 0.8"/>
         </g>
        </g>
        <g id="text_8">
         <!-- 80 -->
         <g transform="translate(27.240625 101.770209) scale(0.1 -0.1)">
          <defs>
           <path id="DejaVuSans-38" d="M 2034 2216 
Q 1584 2216 1326 1975 
Q 1069 1734 1069 1313 
Q 1069 891 1326 650 
Q 1584 409 2034 409 
Q 2484 409 2743 651 
Q 3003 894 3003 1313 
Q 3003 1734 2745 1975 
Q 2488 2216 2034 2216 
z
M 1403 2484 
Q 997 2584 770 2862 
Q 544 3141 544 3541 
Q 544 4100 942 4425 
Q 1341 4750 2034 4750 
Q 2731 4750 3128 4425 
Q 3525 4100 3525 3541 
Q 3525 3141 3298 2862 
Q 3072 2584 2669 2484 
Q 3125 2378 3379 2068 
Q 3634 1759 3634 1313 
Q 3634 634 3220 271 
Q 2806 -91 2034 -91 
Q 1263 -91 848 271 
Q 434 634 434 1313 
Q 434 1759 690 2068 
Q 947 2378 1403 2484 
z
M 1172 3481 
Q 1172 3119 1398 2916 
Q 1625 2713 2034 2713 
Q 2441 2713 2670 2916 
Q 2900 3119 2900 3481 
Q 2900 3844 2670 4047 
Q 2441 4250 2034 4250 
Q 1625 4250 1398 4047 
Q 1172 3844 1172 3481 
z
" transform="scale(0.015625)"/>
          </defs>
          <use xlink:href="#DejaVuSans-38"/>
          <use xlink:href="#DejaVuSans-30" x="63.623047"/>
         </g>
        </g>
       </g>
       <g id="ytick_6">
        <g id="line2d_9">
         <g>
          <use xlink:href="#mdb7b44d619" x="46.965625" y="42.958269" style="stroke: #000000; stroke-width: 0.8"/>
         </g>
        </g>
        <g id="text_9">
         <!-- 100 -->
         <g transform="translate(20.878125 46.757488) scale(0.1 -0.1)">
          <use xlink:href="#DejaVuSans-31"/>
          <use xlink:href="#DejaVuSans-30" x="63.623047"/>
          <use xlink:href="#DejaVuSans-30" x="127.246094"/>
         </g>
        </g>
       </g>
       <g id="text_10">
        <!-- time ago (generations) -->
        <g transform="translate(14.798438 220.082031) rotate(-90) scale(0.1 -0.1)">
         <defs>
          <path id="DejaVuSans-74" d="M 1172 4494 
L 1172 3500 
L 2356 3500 
L 2356 3053 
L 1172 3053 
L 1172 1153 
Q 1172 725 1289 603 
Q 1406 481 1766 481 
L 2356 481 
L 2356 0 
L 1766 0 
Q 1100 0 847 248 
Q 594 497 594 1153 
L 594 3053 
L 172 3053 
L 172 3500 
L 594 3500 
L 594 4494 
L 1172 4494 
z
" transform="scale(0.015625)"/>
          <path id="DejaVuSans-69" d="M 603 3500 
L 1178 3500 
L 1178 0 
L 603 0 
L 603 3500 
z
M 603 4863 
L 1178 4863 
L 1178 4134 
L 603 4134 
L 603 4863 
z
" transform="scale(0.015625)"/>
          <path id="DejaVuSans-6d" d="M 3328 2828 
Q 3544 3216 3844 3400 
Q 4144 3584 4550 3584 
Q 5097 3584 5394 3201 
Q 5691 2819 5691 2113 
L 5691 0 
L 5113 0 
L 5113 2094 
Q 5113 2597 4934 2840 
Q 4756 3084 4391 3084 
Q 3944 3084 3684 2787 
Q 3425 2491 3425 1978 
L 3425 0 
L 2847 0 
L 2847 2094 
Q 2847 2600 2669 2842 
Q 2491 3084 2119 3084 
Q 1678 3084 1418 2786 
Q 1159 2488 1159 1978 
L 1159 0 
L 581 0 
L 581 3500 
L 1159 3500 
L 1159 2956 
Q 1356 3278 1631 3431 
Q 1906 3584 2284 3584 
Q 2666 3584 2933 3390 
Q 3200 3197 3328 2828 
z
" transform="scale(0.015625)"/>
          <path id="DejaVuSans-65" d="M 3597 1894 
L 3597 1613 
L 953 1613 
Q 991 1019 1311 708 
Q 1631 397 2203 397 
Q 2534 397 2845 478 
Q 3156 559 3463 722 
L 3463 178 
Q 3153 47 2828 -22 
Q 2503 -91 2169 -91 
Q 1331 -91 842 396 
Q 353 884 353 1716 
Q 353 2575 817 3079 
Q 1281 3584 2069 3584 
Q 2775 3584 3186 3129 
Q 3597 2675 3597 1894 
z
M 3022 2063 
Q 3016 2534 2758 2815 
Q 2500 3097 2075 3097 
Q 1594 3097 1305 2825 
Q 1016 2553 972 2059 
L 3022 2063 
z
" transform="scale(0.015625)"/>
          <path id="DejaVuSans-20" transform="scale(0.015625)"/>
          <path id="DejaVuSans-61" d="M 2194 1759 
Q 1497 1759 1228 1600 
Q 959 1441 959 1056 
Q 959 750 1161 570 
Q 1363 391 1709 391 
Q 2188 391 2477 730 
Q 2766 1069 2766 1631 
L 2766 1759 
L 2194 1759 
z
M 3341 1997 
L 3341 0 
L 2766 0 
L 2766 531 
Q 2569 213 2275 61 
Q 1981 -91 1556 -91 
Q 1019 -91 701 211 
Q 384 513 384 1019 
Q 384 1609 779 1909 
Q 1175 2209 1959 2209 
L 2766 2209 
L 2766 2266 
Q 2766 2663 2505 2880 
Q 2244 3097 1772 3097 
Q 1472 3097 1187 3025 
Q 903 2953 641 2809 
L 641 3341 
Q 956 3463 1253 3523 
Q 1550 3584 1831 3584 
Q 2591 3584 2966 3190 
Q 3341 2797 3341 1997 
z
" transform="scale(0.015625)"/>
          <path id="DejaVuSans-67" d="M 2906 1791 
Q 2906 2416 2648 2759 
Q 2391 3103 1925 3103 
Q 1463 3103 1205 2759 
Q 947 2416 947 1791 
Q 947 1169 1205 825 
Q 1463 481 1925 481 
Q 2391 481 2648 825 
Q 2906 1169 2906 1791 
z
M 3481 434 
Q 3481 -459 3084 -895 
Q 2688 -1331 1869 -1331 
Q 1566 -1331 1297 -1286 
Q 1028 -1241 775 -1147 
L 775 -588 
Q 1028 -725 1275 -790 
Q 1522 -856 1778 -856 
Q 2344 -856 2625 -561 
Q 2906 -266 2906 331 
L 2906 616 
Q 2728 306 2450 153 
Q 2172 0 1784 0 
Q 1141 0 747 490 
Q 353 981 353 1791 
Q 353 2603 747 3093 
Q 1141 3584 1784 3584 
Q 2172 3584 2450 3431 
Q 2728 3278 2906 2969 
L 2906 3500 
L 3481 3500 
L 3481 434 
z
" transform="scale(0.015625)"/>
          <path id="DejaVuSans-6f" d="M 1959 3097 
Q 1497 3097 1228 2736 
Q 959 2375 959 1747 
Q 959 1119 1226 758 
Q 1494 397 1959 397 
Q 2419 397 2687 759 
Q 2956 1122 2956 1747 
Q 2956 2369 2687 2733 
Q 2419 3097 1959 3097 
z
M 1959 3584 
Q 2709 3584 3137 3096 
Q 3566 2609 3566 1747 
Q 3566 888 3137 398 
Q 2709 -91 1959 -91 
Q 1206 -91 779 398 
Q 353 888 353 1747 
Q 353 2609 779 3096 
Q 1206 3584 1959 3584 
z
" transform="scale(0.015625)"/>
          <path id="DejaVuSans-28" d="M 1984 4856 
Q 1566 4138 1362 3434 
Q 1159 2731 1159 2009 
Q 1159 1288 1364 580 
Q 1569 -128 1984 -844 
L 1484 -844 
Q 1016 -109 783 600 
Q 550 1309 550 2009 
Q 550 2706 781 3412 
Q 1013 4119 1484 4856 
L 1984 4856 
z
" transform="scale(0.015625)"/>
          <path id="DejaVuSans-6e" d="M 3513 2113 
L 3513 0 
L 2938 0 
L 2938 2094 
Q 2938 2591 2744 2837 
Q 2550 3084 2163 3084 
Q 1697 3084 1428 2787 
Q 1159 2491 1159 1978 
L 1159 0 
L 581 0 
L 581 3500 
L 1159 3500 
L 1159 2956 
Q 1366 3272 1645 3428 
Q 1925 3584 2291 3584 
Q 2894 3584 3203 3211 
Q 3513 2838 3513 2113 
z
" transform="scale(0.015625)"/>
          <path id="DejaVuSans-72" d="M 2631 2963 
Q 2534 3019 2420 3045 
Q 2306 3072 2169 3072 
Q 1681 3072 1420 2755 
Q 1159 2438 1159 1844 
L 1159 0 
L 581 0 
L 581 3500 
L 1159 3500 
L 1159 2956 
Q 1341 3275 1631 3429 
Q 1922 3584 2338 3584 
Q 2397 3584 2469 3576 
Q 2541 3569 2628 3553 
L 2631 2963 
z
" transform="scale(0.015625)"/>
          <path id="DejaVuSans-73" d="M 2834 3397 
L 2834 2853 
Q 2591 2978 2328 3040 
Q 2066 3103 1784 3103 
Q 1356 3103 1142 2972 
Q 928 2841 928 2578 
Q 928 2378 1081 2264 
Q 1234 2150 1697 2047 
L 1894 2003 
Q 2506 1872 2764 1633 
Q 3022 1394 3022 966 
Q 3022 478 2636 193 
Q 2250 -91 1575 -91 
Q 1294 -91 989 -36 
Q 684 19 347 128 
L 347 722 
Q 666 556 975 473 
Q 1284 391 1588 391 
Q 1994 391 2212 530 
Q 2431 669 2431 922 
Q 2431 1156 2273 1281 
Q 2116 1406 1581 1522 
L 1381 1569 
Q 847 1681 609 1914 
Q 372 2147 372 2553 
Q 372 3047 722 3315 
Q 1072 3584 1716 3584 
Q 2034 3584 2315 3537 
Q 2597 3491 2834 3397 
z
" transform="scale(0.015625)"/>
          <path id="DejaVuSans-29" d="M 513 4856 
L 1013 4856 
Q 1481 4119 1714 3412 
Q 1947 2706 1947 2009 
Q 1947 1309 1714 600 
Q 1481 -109 1013 -844 
L 513 -844 
Q 928 -128 1133 580 
Q 1338 1288 1338 2009 
Q 1338 2731 1133 3434 
Q 928 4138 513 4856 
z
" transform="scale(0.015625)"/>
         </defs>
         <use xlink:href="#DejaVuSans-74"/>
         <use xlink:href="#DejaVuSans-69" x="39.208984"/>
         <use xlink:href="#DejaVuSans-6d" x="66.992188"/>
         <use xlink:href="#DejaVuSans-65" x="164.404297"/>
         <use xlink:href="#DejaVuSans-20" x="225.927734"/>
         <use xlink:href="#DejaVuSans-61" x="257.714844"/>
         <use xlink:href="#DejaVuSans-67" x="318.994141"/>
         <use xlink:href="#DejaVuSans-6f" x="382.470703"/>
         <use xlink:href="#DejaVuSans-20" x="443.652344"/>
         <use xlink:href="#DejaVuSans-28" x="475.439453"/>
         <use xlink:href="#DejaVuSans-67" x="514.453125"/>
         <use xlink:href="#DejaVuSans-65" x="577.929688"/>
         <use xlink:href="#DejaVuSans-6e" x="639.453125"/>
         <use xlink:href="#DejaVuSans-65" x="702.832031"/>
         <use xlink:href="#DejaVuSans-72" x="764.355469"/>
         <use xlink:href="#DejaVuSans-61" x="805.46875"/>
         <use xlink:href="#DejaVuSans-74" x="866.748047"/>
         <use xlink:href="#DejaVuSans-69" x="905.957031"/>
         <use xlink:href="#DejaVuSans-6f" x="933.740234"/>
         <use xlink:href="#DejaVuSans-6e" x="994.921875"/>
         <use xlink:href="#DejaVuSans-73" x="1058.300781"/>
         <use xlink:href="#DejaVuSans-29" x="1110.400391"/>
        </g>
       </g>
      </g>
      <path d="M 257.619695 35.869878 
L 255.619695 34.869878 
L 255.619695 36.869878 
z
" clip-path="url(#pf37e43b3f4)" style="fill: #1f77b4; fill-opacity: 0.5; stroke: #1f77b4; stroke-opacity: 0.5; stroke-linejoin: miter"/>
      <path d="M 257.619695 104.23944 
L 255.619695 103.23944 
L 255.619695 105.23944 
z
" clip-path="url(#pf37e43b3f4)" style="fill: #1f77b4; fill-opacity: 0.5; stroke: #1f77b4; stroke-opacity: 0.5; stroke-linejoin: miter"/>
      <path d="M 257.619695 115.797073 
L 255.619695 114.797073 
L 255.619695 116.797073 
z
" clip-path="url(#pf37e43b3f4)" style="fill: #1f77b4; fill-opacity: 0.5; stroke: #1f77b4; stroke-opacity: 0.5; stroke-linejoin: miter"/>
      <path d="M 257.619695 71.374544 
L 255.619695 70.374544 
L 255.619695 72.374544 
z
" clip-path="url(#pf37e43b3f4)" style="fill: #1f77b4; fill-opacity: 0.5; stroke: #1f77b4; stroke-opacity: 0.5; stroke-linejoin: miter"/>
      <path d="M 257.619695 18.242606 
L 255.619695 17.242606 
L 255.619695 19.242606 
z
" clip-path="url(#pf37e43b3f4)" style="fill: #1f77b4; fill-opacity: 0.5; stroke: #1f77b4; stroke-opacity: 0.5; stroke-linejoin: miter"/>
      <path d="M 257.619695 286.782892 
L 255.619695 285.782892 
L 255.619695 287.782892 
z
" clip-path="url(#pf37e43b3f4)" style="fill: #1f77b4; fill-opacity: 0.5; stroke: #1f77b4; stroke-opacity: 0.5; stroke-linejoin: miter"/>
      <path d="M 257.619695 78.515841 
L 255.619695 77.515841 
L 255.619695 79.515841 
z
" clip-path="url(#pf37e43b3f4)" style="fill: #1f77b4; fill-opacity: 0.5; stroke: #1f77b4; stroke-opacity: 0.5; stroke-linejoin: miter"/>
      <path d="M 257.619695 268.236858 
L 255.619695 267.236858 
L 255.619695 269.236858 
z
" clip-path="url(#pf37e43b3f4)" style="fill: #1f77b4; fill-opacity: 0.5; stroke: #1f77b4; stroke-opacity: 0.5; stroke-linejoin: miter"/>
      <path d="M 257.619695 130.038848 
L 255.619695 129.038848 
L 255.619695 131.038848 
z
" clip-path="url(#pf37e43b3f4)" style="fill: #1f77b4; fill-opacity: 0.5; stroke: #1f77b4; stroke-opacity: 0.5; stroke-linejoin: miter"/>
      <path d="M 257.619695 202.971158 
L 255.619695 201.971158 
L 255.619695 203.971158 
z
" clip-path="url(#pf37e43b3f4)" style="fill: #1f77b4; fill-opacity: 0.5; stroke: #1f77b4; stroke-opacity: 0.5; stroke-linejoin: miter"/>
      <path d="M 199.299443 21.60186 
L 201.299443 22.60186 
L 201.299443 20.60186 
z
" clip-path="url(#pf37e43b3f4)" style="fill: #ff7f0e; fill-opacity: 0.5; stroke: #ff7f0e; stroke-opacity: 0.5; stroke-linejoin: miter"/>
      <path d="M 199.299443 156.813619 
L 201.299443 157.813619 
L 201.299443 155.813619 
z
" clip-path="url(#pf37e43b3f4)" style="fill: #ff7f0e; fill-opacity: 0.5; stroke: #ff7f0e; stroke-opacity: 0.5; stroke-linejoin: miter"/>
      <path d="M 199.299443 317.120862 
L 201.299443 318.120862 
L 201.299443 316.120862 
z
" clip-path="url(#pf37e43b3f4)" style="fill: #ff7f0e; fill-opacity: 0.5; stroke: #ff7f0e; stroke-opacity: 0.5; stroke-linejoin: miter"/>
      <path d="M 199.299443 165.60237 
L 201.299443 166.60237 
L 201.299443 164.60237 
z
" clip-path="url(#pf37e43b3f4)" style="fill: #ff7f0e; fill-opacity: 0.5; stroke: #ff7f0e; stroke-opacity: 0.5; stroke-linejoin: miter"/>
      <path d="M 199.299443 66.865905 
L 201.299443 67.865905 
L 201.299443 65.865905 
z
" clip-path="url(#pf37e43b3f4)" style="fill: #ff7f0e; fill-opacity: 0.5; stroke: #ff7f0e; stroke-opacity: 0.5; stroke-linejoin: miter"/>
      <path d="M 199.299443 302.121411 
L 201.299443 303.121411 
L 201.299443 301.121411 
z
" clip-path="url(#pf37e43b3f4)" style="fill: #ff7f0e; fill-opacity: 0.5; stroke: #ff7f0e; stroke-opacity: 0.5; stroke-linejoin: miter"/>
      <path d="M 199.299443 38.028493 
L 201.299443 39.028493 
L 201.299443 37.028493 
z
" clip-path="url(#pf37e43b3f4)" style="fill: #ff7f0e; fill-opacity: 0.5; stroke: #ff7f0e; stroke-opacity: 0.5; stroke-linejoin: miter"/>
      <path d="M 199.299443 218.280703 
L 201.299443 219.280703 
L 201.299443 217.280703 
z
" clip-path="url(#pf37e43b3f4)" style="fill: #ff7f0e; fill-opacity: 0.5; stroke: #ff7f0e; stroke-opacity: 0.5; stroke-linejoin: miter"/>
      <path d="M 199.299443 99.840962 
L 201.299443 100.840962 
L 201.299443 98.840962 
z
" clip-path="url(#pf37e43b3f4)" style="fill: #ff7f0e; fill-opacity: 0.5; stroke: #ff7f0e; stroke-opacity: 0.5; stroke-linejoin: miter"/>
      <path d="M 199.299443 106.064909 
L 201.299443 107.064909 
L 201.299443 105.064909 
z
" clip-path="url(#pf37e43b3f4)" style="fill: #ff7f0e; fill-opacity: 0.5; stroke: #ff7f0e; stroke-opacity: 0.5; stroke-linejoin: miter"/>
      <path d="M 447.666182 274.228309 
L 445.666182 273.228309 
L 445.666182 275.228309 
z
" clip-path="url(#pf37e43b3f4)" style="fill: #ff7f0e; fill-opacity: 0.5; stroke: #ff7f0e; stroke-opacity: 0.5; stroke-linejoin: miter"/>
      <path d="M 447.666182 57.498628 
L 445.666182 56.498628 
L 445.666182 58.498628 
z
" clip-path="url(#pf37e43b3f4)" style="fill: #ff7f0e; fill-opacity: 0.5; stroke: #ff7f0e; stroke-opacity: 0.5; stroke-linejoin: miter"/>
      <path d="M 447.666182 34.48789 
L 445.666182 33.48789 
L 445.666182 35.48789 
z
" clip-path="url(#pf37e43b3f4)" style="fill: #ff7f0e; fill-opacity: 0.5; stroke: #ff7f0e; stroke-opacity: 0.5; stroke-linejoin: miter"/>
      <path d="M 447.666182 45.21266 
L 445.666182 44.21266 
L 445.666182 46.21266 
z
" clip-path="url(#pf37e43b3f4)" style="fill: #ff7f0e; fill-opacity: 0.5; stroke: #ff7f0e; stroke-opacity: 0.5; stroke-linejoin: miter"/>
      <path d="M 447.666182 44.350874 
L 445.666182 43.350874 
L 445.666182 45.350874 
z
" clip-path="url(#pf37e43b3f4)" style="fill: #ff7f0e; fill-opacity: 0.5; stroke: #ff7f0e; stroke-opacity: 0.5; stroke-linejoin: miter"/>
      <path d="M 447.666182 173.429214 
L 445.666182 172.429214 
L 445.666182 174.429214 
z
" clip-path="url(#pf37e43b3f4)" style="fill: #ff7f0e; fill-opacity: 0.5; stroke: #ff7f0e; stroke-opacity: 0.5; stroke-linejoin: miter"/>
      <path d="M 447.666182 263.116623 
L 445.666182 262.116623 
L 445.666182 264.116623 
z
" clip-path="url(#pf37e43b3f4)" style="fill: #ff7f0e; fill-opacity: 0.5; stroke: #ff7f0e; stroke-opacity: 0.5; stroke-linejoin: miter"/>
      <path d="M 447.666182 287.138596 
L 445.666182 286.138596 
L 445.666182 288.138596 
z
" clip-path="url(#pf37e43b3f4)" style="fill: #ff7f0e; fill-opacity: 0.5; stroke: #ff7f0e; stroke-opacity: 0.5; stroke-linejoin: miter"/>
      <path d="M 447.666182 125.147855 
L 445.666182 124.147855 
L 445.666182 126.147855 
z
" clip-path="url(#pf37e43b3f4)" style="fill: #ff7f0e; fill-opacity: 0.5; stroke: #ff7f0e; stroke-opacity: 0.5; stroke-linejoin: miter"/>
      <path d="M 447.666182 115.961681 
L 445.666182 114.961681 
L 445.666182 116.961681 
z
" clip-path="url(#pf37e43b3f4)" style="fill: #ff7f0e; fill-opacity: 0.5; stroke: #ff7f0e; stroke-opacity: 0.5; stroke-linejoin: miter"/>
      <path d="M 389.34593 107.882553 
L 391.34593 108.882553 
L 391.34593 106.882553 
z
" clip-path="url(#pf37e43b3f4)" style="fill: #2ca02c; fill-opacity: 0.5; stroke: #2ca02c; stroke-opacity: 0.5; stroke-linejoin: miter"/>
      <path d="M 389.34593 213.480532 
L 391.34593 214.480532 
L 391.34593 212.480532 
z
" clip-path="url(#pf37e43b3f4)" style="fill: #2ca02c; fill-opacity: 0.5; stroke: #2ca02c; stroke-opacity: 0.5; stroke-linejoin: miter"/>
      <path d="M 389.34593 309.986224 
L 391.34593 310.986224 
L 391.34593 308.986224 
z
" clip-path="url(#pf37e43b3f4)" style="fill: #2ca02c; fill-opacity: 0.5; stroke: #2ca02c; stroke-opacity: 0.5; stroke-linejoin: miter"/>
      <path d="M 389.34593 133.6374 
L 391.34593 134.6374 
L 391.34593 132.6374 
z
" clip-path="url(#pf37e43b3f4)" style="fill: #2ca02c; fill-opacity: 0.5; stroke: #2ca02c; stroke-opacity: 0.5; stroke-linejoin: miter"/>
      <path d="M 389.34593 12.20236 
L 391.34593 13.20236 
L 391.34593 11.20236 
z
" clip-path="url(#pf37e43b3f4)" style="fill: #2ca02c; fill-opacity: 0.5; stroke: #2ca02c; stroke-opacity: 0.5; stroke-linejoin: miter"/>
      <path d="M 389.34593 162.109743 
L 391.34593 163.109743 
L 391.34593 161.109743 
z
" clip-path="url(#pf37e43b3f4)" style="fill: #2ca02c; fill-opacity: 0.5; stroke: #2ca02c; stroke-opacity: 0.5; stroke-linejoin: miter"/>
      <path d="M 389.34593 40.038073 
L 391.34593 41.038073 
L 391.34593 39.038073 
z
" clip-path="url(#pf37e43b3f4)" style="fill: #2ca02c; fill-opacity: 0.5; stroke: #2ca02c; stroke-opacity: 0.5; stroke-linejoin: miter"/>
      <path d="M 389.34593 254.777368 
L 391.34593 255.777368 
L 391.34593 253.777368 
z
" clip-path="url(#pf37e43b3f4)" style="fill: #2ca02c; fill-opacity: 0.5; stroke: #2ca02c; stroke-opacity: 0.5; stroke-linejoin: miter"/>
      <path d="M 389.34593 124.827322 
L 391.34593 125.827322 
L 391.34593 123.827322 
z
" clip-path="url(#pf37e43b3f4)" style="fill: #2ca02c; fill-opacity: 0.5; stroke: #2ca02c; stroke-opacity: 0.5; stroke-linejoin: miter"/>
      <path d="M 389.34593 79.63306 
L 391.34593 80.63306 
L 391.34593 78.63306 
z
" clip-path="url(#pf37e43b3f4)" style="fill: #2ca02c; fill-opacity: 0.5; stroke: #2ca02c; stroke-opacity: 0.5; stroke-linejoin: miter"/>
      <g id="patch_6">
       <path d="M 46.965625 318.021875 
L 46.965625 7.2 
" style="fill: none; stroke: #000000; stroke-width: 0.8; stroke-linejoin: miter; stroke-linecap: square"/>
      </g>
     </g>
    </g>
    <defs>
     <clipPath id="pf37e43b3f4">
      <rect x="46.965625" y="7.2" width="553.034375" height="310.821875"/>
     </clipPath>
    </defs>
   </g>
  </g>
 </g>
</svg>