<?xml version="1.0" encoding="utf-8" standalone="no"?>
<!DOCTYPE svg PUBLIC "-//W3C//DTD SVG 1.1//EN"
  "http://www.w3.org/Graphics/SVG/1.1/DTD/svg11.dtd">
<svg xmlns:xlink="http://www.w3.org/1999/xlink" width="607.2pt" height="338.4pt" viewBox="0 0 607.2 338.4" xmlns="http://www.w3.org/2000/svg" version="1.1">
 <metadata>
  <rdf:RDF xmlns:dc="http://purl.org/dc/elements/1.1/" xmlns:cc="http://creativecommons.org/ns#" xmlns:rdf="http://www.w3.org/1999/02/22-rdf-syntax-ns#">
   <cc:Work>
    <dc:type rdf:resource="http://purl.org/dc/dcmitype/StillImage"/>
    <dc:date>2023-05-15T09:11:01.240627</dc:date>
    <dc:format>image/svg+xml</dc:format>
    <dc:creator>
     <cc:Agent>
      <dc:title>Matplotlib v3.7.1, https://matplotlib.org/</dc:title>
     </cc:Agent>
    </dc:creator>
   </cc:Work>
  </rdf:RDF>
 </metadata>
 <defs>
  <style type="text/css">*{stroke-linejoin: round; stroke-linecap: butt}</style>
 </defs>
 <g id="figure_1">
  <g id="patch_1">
   <path d="M 0 338.4 
L 607.2 338.4 
L 607.2 0 
L 0 0 
z
" style="fill: #ffffff"/>
  </g>
  <g id="axes_1">
   <g id="patch_2">
    <path d="M 43.78125 318.021875 
L 600 318.021875 
L 600 22.318125 
L 43.78125 22.318125 
z
" style="fill: #ffffff"/>
   </g>
   <path d="M 197.982246 168.749727 
L 198.982246 168.781164 
L 199.982246 168.818104 
L 200.982246 168.915851 
L 201.982246 168.948372 
L 202.982246 169.021997 
L 203.982246 169.060563 
L 204.982246 169.095976 
L 205.982246 169.153616 
L 206.982246 169.224002 
L 207.982246 169.275966 
L 208.982246 169.335056 
L 209.982246 169.423377 
L 210.982246 169.469521 
L 211.982246 169.511932 
L 212.982246 169.542425 
L 213.982246 169.56847 
L 214.982246 169.58967 
L 215.982246 169.643971 
L 216.982246 169.671908 
L 217.982246 169.701632 
L 218.982246 169.727027 
L 219.982246 169.738228 
L 220.982246 169.748352 
L 221.982246 169.748147 
L 222.982246 169.738637 
L 223.982246 169.726984 
L 224.982246 169.695954 
L 225.982246 169.684787 
L 226.982246 169.654669 
L 227.982246 169.594892 
L 228.982246 169.557701 
L 229.982246 169.518604 
L 230.982246 169.476165 
L 231.982246 169.4434 
L 232.982246 169.375973 
L 233.982246 169.336847 
L 234.982246 169.294173 
L 235.982246 169.223592 
L 236.982246 169.187201 
L 237.982246 169.128798 
L 238.982246 169.017846 
L 239.982246 168.947187 
L 240.982246 168.834247 
L 241.982246 168.788475 
L 242.982246 168.727191 
L 243.982246 168.678692 
L 244.982246 168.597869 
L 245.982246 168.47935 
L 246.982246 168.40914 
L 247.982246 168.325877 
L 248.982246 168.292736 
L 249.982246 168.241498 
L 250.982246 168.1731 
L 251.982246 168.106884 
L 252.982246 168.029967 
L 254.650369 168.002652 
" clip-path="url(#p53e152feec)" style="fill: none; stroke: #1f77b4; stroke-opacity: 0.5; stroke-width: 0.2; stroke-linecap: square"/>
   <path d="M 197.982246 165.304958 
L 198.982246 165.336394 
L 199.982246 165.373334 
L 200.982246 165.471081 
L 201.982246 165.503603 
L 202.982246 165.577227 
L 203.982246 165.615793 
L 204.982246 165.651206 
L 205.982246 165.708846 
L 206.982246 165.779232 
L 207.982246 165.831196 
L 208.982246 165.890286 
L 209.982246 165.978607 
L 210.982246 166.024751 
L 211.982246 166.067162 
L 212.982246 166.097655 
L 213.982246 166.1237 
L 214.982246 166.1449 
L 215.982246 166.199201 
L 216.982246 166.227139 
L 217.982246 166.256863 
L 218.982246 166.282257 
L 219.982246 166.293458 
L 220.982246 166.303582 
L 221.982246 166.303377 
L 222.982246 166.293868 
L 223.982246 166.282214 
L 224.982246 166.251185 
L 225.982246 166.240017 
L 226.982246 166.209899 
L 227.982246 166.150122 
L 228.982246 166.112931 
L 229.982246 166.073835 
L 230.982246 166.031395 
L 231.982246 165.99863 
L 232.982246 165.931203 
L 233.982246 165.892078 
L 234.982246 165.849403 
L 235.982246 165.778822 
L 236.982246 165.742432 
L 237.982246 165.684028 
L 238.982246 165.573076 
L 239.982246 165.502417 
L 240.982246 165.389478 
L 241.982246 165.343705 
L 242.982246 165.282422 
L 243.982246 165.233922 
L 244.982246 165.1531 
L 245.982246 165.034581 
L 246.982246 164.96437 
L 247.982246 164.881108 
L 248.982246 164.847966 
L 249.982246 164.796728 
L 250.982246 164.72833 
L 251.982246 164.662115 
L 252.982246 164.585198 
L 254.650369 164.557882 
" clip-path="url(#p53e152feec)" style="fill: none; stroke: #1f77b4; stroke-opacity: 0.5; stroke-width: 0.2; stroke-linecap: square"/>
   <path d="M 197.982246 187.057461 
L 198.982246 187.088897 
L 199.982246 187.125838 
L 200.982246 187.223584 
L 201.982246 187.256106 
L 202.982246 187.329731 
L 203.982246 187.368296 
L 204.982246 187.403709 
L 205.982246 187.461349 
L 206.982246 187.531735 
L 207.982246 187.5837 
L 208.982246 187.642789 
L 209.982246 187.73111 
L 210.982246 187.777255 
L 211.982246 187.819666 
L 212.982246 187.850158 
L 213.982246 187.876203 
L 214.982246 187.897403 
L 215.982246 187.951704 
L 216.982246 187.979642 
L 217.982246 188.009366 
L 218.982246 188.034761 
L 219.982246 188.045961 
L 220.982246 188.056085 
L 221.982246 188.055881 
L 222.982246 188.046371 
L 223.982246 188.034717 
L 224.982246 188.003688 
L 225.982246 187.99252 
L 226.982246 187.962403 
L 227.982246 187.902626 
L 228.982246 187.865434 
L 229.982246 187.826338 
L 230.982246 187.783898 
L 231.982246 187.751133 
L 232.982246 187.683707 
L 233.982246 187.644581 
L 234.982246 187.601906 
L 235.982246 187.531326 
L 236.982246 187.494935 
L 237.982246 187.436532 
L 238.982246 187.325579 
L 239.982246 187.254921 
L 240.982246 187.141981 
L 241.982246 187.096208 
L 242.982246 187.034925 
L 243.982246 186.986426 
L 244.982246 186.905603 
L 245.982246 186.787084 
L 246.982246 186.716873 
L 247.982246 186.633611 
L 248.982246 186.600469 
L 249.982246 186.549232 
L 250.982246 186.480833 
L 251.982246 186.414618 
L 252.982246 186.337701 
L 254.650369 186.310385 
" clip-path="url(#p53e152feec)" style="fill: none; stroke: #1f77b4; stroke-opacity: 0.5; stroke-width: 0.2; stroke-linecap: square"/>
   <path d="M 197.982246 110.951701 
L 198.982246 110.983137 
L 199.982246 111.020078 
L 200.982246 111.117824 
L 201.982246 111.150346 
L 202.982246 111.22397 
L 203.982246 111.262536 
L 204.982246 111.297949 
L 205.982246 111.355589 
L 206.982246 111.425975 
L 207.982246 111.47794 
L 208.982246 111.537029 
L 209.982246 111.62535 
L 210.982246 111.671495 
L 211.982246 111.713906 
L 212.982246 111.744398 
L 213.982246 111.770443 
L 214.982246 111.791643 
L 215.982246 111.845944 
L 216.982246 111.873882 
L 217.982246 111.903606 
L 218.982246 111.929001 
L 219.982246 111.940201 
L 220.982246 111.950325 
L 221.982246 111.950121 
L 222.982246 111.940611 
L 223.982246 111.928957 
L 224.982246 111.897928 
L 225.982246 111.88676 
L 226.982246 111.856643 
L 227.982246 111.796866 
L 228.982246 111.759674 
L 229.982246 111.720578 
L 230.982246 111.678138 
L 231.982246 111.645373 
L 232.982246 111.577947 
L 233.982246 111.538821 
L 234.982246 111.496146 
L 235.982246 111.425566 
L 236.982246 111.389175 
L 237.982246 111.330772 
L 238.982246 111.219819 
L 239.982246 111.149161 
L 240.982246 111.036221 
L 241.982246 110.990448 
L 242.982246 110.929165 
L 243.982246 110.880665 
L 244.982246 110.799843 
L 245.982246 110.681324 
L 246.982246 110.611113 
L 247.982246 110.527851 
L 248.982246 110.494709 
L 249.982246 110.443472 
L 250.982246 110.375073 
L 251.982246 110.308858 
L 252.982246 110.231941 
L 254.650369 110.204625 
" clip-path="url(#p53e152feec)" style="fill: none; stroke: #1f77b4; stroke-opacity: 0.5; stroke-width: 0.2; stroke-linecap: square"/>
   <path d="M 197.982246 171.745517 
L 198.982246 171.776953 
L 199.982246 171.813894 
L 200.982246 171.91164 
L 201.982246 171.944162 
L 202.982246 172.017786 
L 203.982246 172.056352 
L 204.982246 172.091765 
L 205.982246 172.149405 
L 206.982246 172.219791 
L 207.982246 172.271755 
L 208.982246 172.330845 
L 209.982246 172.419166 
L 210.982246 172.46531 
L 211.982246 172.507721 
L 212.982246 172.538214 
L 213.982246 172.564259 
L 214.982246 172.585459 
L 215.982246 172.63976 
L 216.982246 172.667698 
L 217.982246 172.697422 
L 218.982246 172.722817 
L 219.982246 172.734017 
L 220.982246 172.744141 
L 221.982246 172.743937 
L 222.982246 172.734427 
L 223.982246 172.722773 
L 224.982246 172.691744 
L 225.982246 172.680576 
L 226.982246 172.650458 
L 227.982246 172.590682 
L 228.982246 172.55349 
L 229.982246 172.514394 
L 230.982246 172.471954 
L 231.982246 172.439189 
L 232.982246 172.371763 
L 233.982246 172.332637 
L 234.982246 172.289962 
L 235.982246 172.219382 
L 236.982246 172.182991 
L 237.982246 172.124588 
L 238.982246 172.013635 
L 239.982246 171.942977 
L 240.982246 171.830037 
L 241.982246 171.784264 
L 242.982246 171.722981 
L 243.982246 171.674481 
L 244.982246 171.593659 
L 245.982246 171.47514 
L 246.982246 171.404929 
L 247.982246 171.321667 
L 248.982246 171.288525 
L 249.982246 171.237288 
L 250.982246 171.168889 
L 251.982246 171.102674 
L 252.982246 171.025757 
L 254.650369 170.998441 
" clip-path="url(#p53e152feec)" style="fill: none; stroke: #1f77b4; stroke-opacity: 0.5; stroke-width: 0.2; stroke-linecap: square"/>
   <path d="M 197.982246 197.319178 
L 198.982246 197.350614 
L 199.982246 197.387555 
L 200.982246 197.485301 
L 201.982246 197.517823 
L 202.982246 197.591447 
L 203.982246 197.630013 
L 204.982246 197.665426 
L 205.982246 197.723066 
L 206.982246 197.793452 
L 207.982246 197.845416 
L 208.982246 197.904506 
L 209.982246 197.992827 
L 210.982246 198.038971 
L 211.982246 198.081382 
L 212.982246 198.111875 
L 213.982246 198.13792 
L 214.982246 198.15912 
L 215.982246 198.213421 
L 216.982246 198.241359 
L 217.982246 198.271083 
L 218.982246 198.296478 
L 219.982246 198.307678 
L 220.982246 198.317802 
L 221.982246 198.317598 
L 222.982246 198.308088 
L 223.982246 198.296434 
L 224.982246 198.265405 
L 225.982246 198.254237 
L 226.982246 198.224119 
L 227.982246 198.164343 
L 228.982246 198.127151 
L 229.982246 198.088055 
L 230.982246 198.045615 
L 231.982246 198.01285 
L 232.982246 197.945424 
L 233.982246 197.906298 
L 234.982246 197.863623 
L 235.982246 197.793043 
L 236.982246 197.756652 
L 237.982246 197.698249 
L 238.982246 197.587296 
L 239.982246 197.516638 
L 240.982246 197.403698 
L 241.982246 197.357925 
L 242.982246 197.296642 
L 243.982246 197.248142 
L 244.982246 197.16732 
L 245.982246 197.048801 
L 246.982246 196.97859 
L 247.982246 196.895328 
L 248.982246 196.862186 
L 249.982246 196.810949 
L 250.982246 196.74255 
L 251.982246 196.676335 
L 252.982246 196.599418 
L 254.650369 196.572102 
" clip-path="url(#p53e152feec)" style="fill: none; stroke: #1f77b4; stroke-opacity: 0.5; stroke-width: 0.2; stroke-linecap: square"/>
   <path d="M 197.982246 89.092555 
L 198.982246 89.123991 
L 199.982246 89.160932 
L 200.982246 89.258678 
L 201.982246 89.2912 
L 202.982246 89.364825 
L 203.982246 89.40339 
L 204.982246 89.438803 
L 205.982246 89.496443 
L 206.982246 89.566829 
L 207.982246 89.618794 
L 208.982246 89.677883 
L 209.982246 89.766204 
L 210.982246 89.812349 
L 211.982246 89.85476 
L 212.982246 89.885252 
L 213.982246 89.911297 
L 214.982246 89.932497 
L 215.982246 89.986798 
L 216.982246 90.014736 
L 217.982246 90.04446 
L 218.982246 90.069855 
L 219.982246 90.081055 
L 220.982246 90.091179 
L 221.982246 90.090975 
L 222.982246 90.081465 
L 223.982246 90.069811 
L 224.982246 90.038782 
L 225.982246 90.027614 
L 226.982246 89.997497 
L 227.982246 89.93772 
L 228.982246 89.900528 
L 229.982246 89.861432 
L 230.982246 89.818992 
L 231.982246 89.786227 
L 232.982246 89.718801 
L 233.982246 89.679675 
L 234.982246 89.637 
L 235.982246 89.56642 
L 236.982246 89.530029 
L 237.982246 89.471626 
L 238.982246 89.360673 
L 239.982246 89.290015 
L 240.982246 89.177075 
L 241.982246 89.131302 
L 242.982246 89.070019 
L 243.982246 89.02152 
L 244.982246 88.940697 
L 245.982246 88.822178 
L 246.982246 88.751967 
L 247.982246 88.668705 
L 248.982246 88.635563 
L 249.982246 88.584326 
L 250.982246 88.515927 
L 251.982246 88.449712 
L 252.982246 88.372795 
L 254.650369 88.345479 
" clip-path="url(#p53e152feec)" style="fill: none; stroke: #1f77b4; stroke-opacity: 0.5; stroke-width: 0.2; stroke-linecap: square"/>
   <path d="M 197.982246 95.833124 
L 198.982246 95.86456 
L 199.982246 95.9015 
L 200.982246 95.999247 
L 201.982246 96.031769 
L 202.982246 96.105393 
L 203.982246 96.143959 
L 204.982246 96.179372 
L 205.982246 96.237012 
L 206.982246 96.307398 
L 207.982246 96.359362 
L 208.982246 96.418452 
L 209.982246 96.506773 
L 210.982246 96.552917 
L 211.982246 96.595328 
L 212.982246 96.625821 
L 213.982246 96.651866 
L 214.982246 96.673066 
L 215.982246 96.727367 
L 216.982246 96.755305 
L 217.982246 96.785029 
L 218.982246 96.810423 
L 219.982246 96.821624 
L 220.982246 96.831748 
L 221.982246 96.831543 
L 222.982246 96.822034 
L 223.982246 96.81038 
L 224.982246 96.779351 
L 225.982246 96.768183 
L 226.982246 96.738065 
L 227.982246 96.678288 
L 228.982246 96.641097 
L 229.982246 96.602001 
L 230.982246 96.559561 
L 231.982246 96.526796 
L 232.982246 96.45937 
L 233.982246 96.420244 
L 234.982246 96.377569 
L 235.982246 96.306988 
L 236.982246 96.270598 
L 237.982246 96.212194 
L 238.982246 96.101242 
L 239.982246 96.030584 
L 240.982246 95.917644 
L 241.982246 95.871871 
L 242.982246 95.810588 
L 243.982246 95.762088 
L 244.982246 95.681266 
L 245.982246 95.562747 
L 246.982246 95.492536 
L 247.982246 95.409274 
L 248.982246 95.376132 
L 249.982246 95.324894 
L 250.982246 95.256496 
L 251.982246 95.190281 
L 252.982246 95.113364 
L 254.650369 95.086048 
" clip-path="url(#p53e152feec)" style="fill: none; stroke: #1f77b4; stroke-opacity: 0.5; stroke-width: 0.2; stroke-linecap: square"/>
   <path d="M 197.982246 134.427936 
L 198.982246 134.459372 
L 199.982246 134.496313 
L 200.982246 134.594059 
L 201.982246 134.626581 
L 202.982246 134.700206 
L 203.982246 134.738771 
L 204.982246 134.774184 
L 205.982246 134.831824 
L 206.982246 134.90221 
L 207.982246 134.954175 
L 208.982246 135.013264 
L 209.982246 135.101585 
L 210.982246 135.14773 
L 211.982246 135.190141 
L 212.982246 135.220633 
L 213.982246 135.246678 
L 214.982246 135.267878 
L 215.982246 135.322179 
L 216.982246 135.350117 
L 217.982246 135.379841 
L 218.982246 135.405236 
L 219.982246 135.416436 
L 220.982246 135.42656 
L 221.982246 135.426356 
L 222.982246 135.416846 
L 223.982246 135.405192 
L 224.982246 135.374163 
L 225.982246 135.362995 
L 226.982246 135.332878 
L 227.982246 135.273101 
L 228.982246 135.235909 
L 229.982246 135.196813 
L 230.982246 135.154373 
L 231.982246 135.121608 
L 232.982246 135.054182 
L 233.982246 135.015056 
L 234.982246 134.972381 
L 235.982246 134.901801 
L 236.982246 134.86541 
L 237.982246 134.807007 
L 238.982246 134.696054 
L 239.982246 134.625396 
L 240.982246 134.512456 
L 241.982246 134.466683 
L 242.982246 134.4054 
L 243.982246 134.356901 
L 244.982246 134.276078 
L 245.982246 134.157559 
L 246.982246 134.087348 
L 247.982246 134.004086 
L 248.982246 133.970944 
L 249.982246 133.919707 
L 250.982246 133.851308 
L 251.982246 133.785093 
L 252.982246 133.708176 
L 254.650369 133.68086 
" clip-path="url(#p53e152feec)" style="fill: none; stroke: #1f77b4; stroke-opacity: 0.5; stroke-width: 0.2; stroke-linecap: square"/>
   <path d="M 197.982246 149.582625 
L 198.982246 149.614061 
L 199.982246 149.651002 
L 200.982246 149.748748 
L 201.982246 149.78127 
L 202.982246 149.854894 
L 203.982246 149.89346 
L 204.982246 149.928873 
L 205.982246 149.986513 
L 206.982246 150.056899 
L 207.982246 150.108863 
L 208.982246 150.167953 
L 209.982246 150.256274 
L 210.982246 150.302418 
L 211.982246 150.344829 
L 212.982246 150.375322 
L 213.982246 150.401367 
L 214.982246 150.422567 
L 215.982246 150.476868 
L 216.982246 150.504806 
L 217.982246 150.53453 
L 218.982246 150.559925 
L 219.982246 150.571125 
L 220.982246 150.581249 
L 221.982246 150.581045 
L 222.982246 150.571535 
L 223.982246 150.559881 
L 224.982246 150.528852 
L 225.982246 150.517684 
L 226.982246 150.487566 
L 227.982246 150.427789 
L 228.982246 150.390598 
L 229.982246 150.351502 
L 230.982246 150.309062 
L 231.982246 150.276297 
L 232.982246 150.208871 
L 233.982246 150.169745 
L 234.982246 150.12707 
L 235.982246 150.05649 
L 236.982246 150.020099 
L 237.982246 149.961696 
L 238.982246 149.850743 
L 239.982246 149.780085 
L 240.982246 149.667145 
L 241.982246 149.621372 
L 242.982246 149.560089 
L 243.982246 149.511589 
L 244.982246 149.430767 
L 245.982246 149.312248 
L 246.982246 149.242037 
L 247.982246 149.158775 
L 248.982246 149.125633 
L 249.982246 149.074396 
L 250.982246 149.005997 
L 251.982246 148.939782 
L 252.982246 148.862865 
L 254.650369 148.835549 
" clip-path="url(#p53e152feec)" style="fill: none; stroke: #1f77b4; stroke-opacity: 0.5; stroke-width: 0.2; stroke-linecap: square"/>
   <path d="M 389.130882 92.631339 
L 390.130882 92.662775 
L 391.130882 92.699715 
L 392.130882 92.797462 
L 393.130882 92.829984 
L 394.130882 92.903608 
L 395.130882 92.942174 
L 396.130882 92.977587 
L 397.130882 93.035227 
L 398.130882 93.105613 
L 399.130882 93.157577 
L 400.130882 93.216667 
L 401.130882 93.304988 
L 402.130882 93.351132 
L 403.130882 93.393543 
L 404.130882 93.424036 
L 405.130882 93.450081 
L 406.130882 93.471281 
L 407.130882 93.525582 
L 408.130882 93.55352 
L 409.130882 93.583244 
L 410.130882 93.608638 
L 411.130882 93.619839 
L 412.130882 93.629963 
L 413.130882 93.629758 
L 414.130882 93.620249 
L 415.130882 93.608595 
L 416.130882 93.577566 
L 417.130882 93.566398 
L 418.130882 93.53628 
L 419.130882 93.476503 
L 420.130882 93.439312 
L 421.130882 93.400216 
L 422.130882 93.357776 
L 423.130882 93.325011 
L 424.130882 93.257585 
L 425.130882 93.218459 
L 426.130882 93.175784 
L 427.130882 93.105204 
L 428.130882 93.068813 
L 429.130882 93.010409 
L 430.130882 92.899457 
L 431.130882 92.828799 
L 432.130882 92.715859 
L 433.130882 92.670086 
L 434.130882 92.608803 
L 435.130882 92.560303 
L 436.130882 92.479481 
L 437.130882 92.360962 
L 438.130882 92.290751 
L 439.130882 92.207489 
L 440.130882 92.174347 
L 441.130882 92.12311 
L 442.130882 92.054711 
L 443.130882 91.988496 
L 444.130882 91.911579 
L 445.799004 91.884263 
" clip-path="url(#p53e152feec)" style="fill: none; stroke: #ff7f0e; stroke-opacity: 0.5; stroke-width: 0.2; stroke-linecap: square"/>
   <path d="M 389.130882 136.827248 
L 390.130882 136.858685 
L 391.130882 136.895625 
L 392.130882 136.993372 
L 393.130882 137.025893 
L 394.130882 137.099518 
L 395.130882 137.138083 
L 396.130882 137.173497 
L 397.130882 137.231137 
L 398.130882 137.301523 
L 399.130882 137.353487 
L 400.130882 137.412577 
L 401.130882 137.500898 
L 402.130882 137.547042 
L 403.130882 137.589453 
L 404.130882 137.619946 
L 405.130882 137.645991 
L 406.130882 137.667191 
L 407.130882 137.721492 
L 408.130882 137.749429 
L 409.130882 137.779153 
L 410.130882 137.804548 
L 411.130882 137.815748 
L 412.130882 137.825872 
L 413.130882 137.825668 
L 414.130882 137.816158 
L 415.130882 137.804505 
L 416.130882 137.773475 
L 417.130882 137.762307 
L 418.130882 137.73219 
L 419.130882 137.672413 
L 420.130882 137.635221 
L 421.130882 137.596125 
L 422.130882 137.553686 
L 423.130882 137.520921 
L 424.130882 137.453494 
L 425.130882 137.414368 
L 426.130882 137.371694 
L 427.130882 137.301113 
L 428.130882 137.264722 
L 429.130882 137.206319 
L 430.130882 137.095366 
L 431.130882 137.024708 
L 432.130882 136.911768 
L 433.130882 136.865995 
L 434.130882 136.804712 
L 435.130882 136.756213 
L 436.130882 136.67539 
L 437.130882 136.556871 
L 438.130882 136.486661 
L 439.130882 136.403398 
L 440.130882 136.370256 
L 441.130882 136.319019 
L 442.130882 136.250621 
L 443.130882 136.184405 
L 444.130882 136.107488 
L 445.799004 136.080173 
" clip-path="url(#p53e152feec)" style="fill: none; stroke: #ff7f0e; stroke-opacity: 0.5; stroke-width: 0.2; stroke-linecap: square"/>
   <path d="M 389.130882 157.557992 
L 390.130882 157.589428 
L 391.130882 157.626368 
L 392.130882 157.724115 
L 393.130882 157.756637 
L 394.130882 157.830261 
L 395.130882 157.868827 
L 396.130882 157.90424 
L 397.130882 157.96188 
L 398.130882 158.032266 
L 399.130882 158.08423 
L 400.130882 158.14332 
L 401.130882 158.231641 
L 402.130882 158.277785 
L 403.130882 158.320196 
L 404.130882 158.350689 
L 405.130882 158.376734 
L 406.130882 158.397934 
L 407.130882 158.452235 
L 408.130882 158.480173 
L 409.130882 158.509897 
L 410.130882 158.535291 
L 411.130882 158.546492 
L 412.130882 158.556616 
L 413.130882 158.556411 
L 414.130882 158.546902 
L 415.130882 158.535248 
L 416.130882 158.504219 
L 417.130882 158.493051 
L 418.130882 158.462933 
L 419.130882 158.403156 
L 420.130882 158.365965 
L 421.130882 158.326869 
L 422.130882 158.284429 
L 423.130882 158.251664 
L 424.130882 158.184238 
L 425.130882 158.145112 
L 426.130882 158.102437 
L 427.130882 158.031856 
L 428.130882 157.995466 
L 429.130882 157.937062 
L 430.130882 157.82611 
L 431.130882 157.755452 
L 432.130882 157.642512 
L 433.130882 157.596739 
L 434.130882 157.535456 
L 435.130882 157.486956 
L 436.130882 157.406134 
L 437.130882 157.287615 
L 438.130882 157.217404 
L 439.130882 157.134142 
L 440.130882 157.101 
L 441.130882 157.049762 
L 442.130882 156.981364 
L 443.130882 156.915149 
L 444.130882 156.838232 
L 445.799004 156.810916 
" clip-path="url(#p53e152feec)" style="fill: none; stroke: #ff7f0e; stroke-opacity: 0.5; stroke-width: 0.2; stroke-linecap: square"/>
   <path d="M 389.130882 180.99918 
L 390.130882 181.030617 
L 391.130882 181.067557 
L 392.130882 181.165304 
L 393.130882 181.197825 
L 394.130882 181.27145 
L 395.130882 181.310016 
L 396.130882 181.345429 
L 397.130882 181.403069 
L 398.130882 181.473455 
L 399.130882 181.525419 
L 400.130882 181.584509 
L 401.130882 181.67283 
L 402.130882 181.718974 
L 403.130882 181.761385 
L 404.130882 181.791878 
L 405.130882 181.817923 
L 406.130882 181.839123 
L 407.130882 181.893424 
L 408.130882 181.921361 
L 409.130882 181.951085 
L 410.130882 181.97648 
L 411.130882 181.987681 
L 412.130882 181.997805 
L 413.130882 181.9976 
L 414.130882 181.98809 
L 415.130882 181.976437 
L 416.130882 181.945408 
L 417.130882 181.93424 
L 418.130882 181.904122 
L 419.130882 181.844345 
L 420.130882 181.807154 
L 421.130882 181.768057 
L 422.130882 181.725618 
L 423.130882 181.692853 
L 424.130882 181.625426 
L 425.130882 181.5863 
L 426.130882 181.543626 
L 427.130882 181.473045 
L 428.130882 181.436654 
L 429.130882 181.378251 
L 430.130882 181.267299 
L 431.130882 181.19664 
L 432.130882 181.0837 
L 433.130882 181.037928 
L 434.130882 180.976644 
L 435.130882 180.928145 
L 436.130882 180.847322 
L 437.130882 180.728803 
L 438.130882 180.658593 
L 439.130882 180.57533 
L 440.130882 180.542189 
L 441.130882 180.490951 
L 442.130882 180.422553 
L 443.130882 180.356337 
L 444.130882 180.27942 
L 445.799004 180.252105 
" clip-path="url(#p53e152feec)" style="fill: none; stroke: #ff7f0e; stroke-opacity: 0.5; stroke-width: 0.2; stroke-linecap: square"/>
   <path d="M 389.130882 113.573925 
L 390.130882 113.605361 
L 391.130882 113.642302 
L 392.130882 113.740048 
L 393.130882 113.77257 
L 394.130882 113.846195 
L 395.130882 113.88476 
L 396.130882 113.920173 
L 397.130882 113.977813 
L 398.130882 114.0482 
L 399.130882 114.100164 
L 400.130882 114.159254 
L 401.130882 114.247574 
L 402.130882 114.293719 
L 403.130882 114.33613 
L 404.130882 114.366622 
L 405.130882 114.392667 
L 406.130882 114.413867 
L 407.130882 114.468169 
L 408.130882 114.496106 
L 409.130882 114.52583 
L 410.130882 114.551225 
L 411.130882 114.562425 
L 412.130882 114.572549 
L 413.130882 114.572345 
L 414.130882 114.562835 
L 415.130882 114.551181 
L 416.130882 114.520152 
L 417.130882 114.508984 
L 418.130882 114.478867 
L 419.130882 114.41909 
L 420.130882 114.381898 
L 421.130882 114.342802 
L 422.130882 114.300363 
L 423.130882 114.267597 
L 424.130882 114.200171 
L 425.130882 114.161045 
L 426.130882 114.118371 
L 427.130882 114.04779 
L 428.130882 114.011399 
L 429.130882 113.952996 
L 430.130882 113.842043 
L 431.130882 113.771385 
L 432.130882 113.658445 
L 433.130882 113.612672 
L 434.130882 113.551389 
L 435.130882 113.50289 
L 436.130882 113.422067 
L 437.130882 113.303548 
L 438.130882 113.233337 
L 439.130882 113.150075 
L 440.130882 113.116933 
L 441.130882 113.065696 
L 442.130882 112.997298 
L 443.130882 112.931082 
L 444.130882 112.854165 
L 445.799004 112.82685 
" clip-path="url(#p53e152feec)" style="fill: none; stroke: #ff7f0e; stroke-opacity: 0.5; stroke-width: 0.2; stroke-linecap: square"/>
   <path d="M 389.130882 176.441994 
L 390.130882 176.473431 
L 391.130882 176.510371 
L 392.130882 176.608118 
L 393.130882 176.640639 
L 394.130882 176.714264 
L 395.130882 176.752829 
L 396.130882 176.788243 
L 397.130882 176.845882 
L 398.130882 176.916269 
L 399.130882 176.968233 
L 400.130882 177.027323 
L 401.130882 177.115644 
L 402.130882 177.161788 
L 403.130882 177.204199 
L 404.130882 177.234692 
L 405.130882 177.260736 
L 406.130882 177.281937 
L 407.130882 177.336238 
L 408.130882 177.364175 
L 409.130882 177.393899 
L 410.130882 177.419294 
L 411.130882 177.430494 
L 412.130882 177.440618 
L 413.130882 177.440414 
L 414.130882 177.430904 
L 415.130882 177.419251 
L 416.130882 177.388221 
L 417.130882 177.377053 
L 418.130882 177.346936 
L 419.130882 177.287159 
L 420.130882 177.249967 
L 421.130882 177.210871 
L 422.130882 177.168432 
L 423.130882 177.135667 
L 424.130882 177.06824 
L 425.130882 177.029114 
L 426.130882 176.98644 
L 427.130882 176.915859 
L 428.130882 176.879468 
L 429.130882 176.821065 
L 430.130882 176.710112 
L 431.130882 176.639454 
L 432.130882 176.526514 
L 433.130882 176.480741 
L 434.130882 176.419458 
L 435.130882 176.370959 
L 436.130882 176.290136 
L 437.130882 176.171617 
L 438.130882 176.101407 
L 439.130882 176.018144 
L 440.130882 175.985002 
L 441.130882 175.933765 
L 442.130882 175.865367 
L 443.130882 175.799151 
L 444.130882 175.722234 
L 445.799004 175.694919 
" clip-path="url(#p53e152feec)" style="fill: none; stroke: #ff7f0e; stroke-opacity: 0.5; stroke-width: 0.2; stroke-linecap: square"/>
   <path d="M 389.130882 135.224776 
L 390.130882 135.256213 
L 391.130882 135.293153 
L 392.130882 135.390899 
L 393.130882 135.423421 
L 394.130882 135.497046 
L 395.130882 135.535611 
L 396.130882 135.571025 
L 397.130882 135.628664 
L 398.130882 135.699051 
L 399.130882 135.751015 
L 400.130882 135.810105 
L 401.130882 135.898426 
L 402.130882 135.94457 
L 403.130882 135.986981 
L 404.130882 136.017473 
L 405.130882 136.043518 
L 406.130882 136.064719 
L 407.130882 136.11902 
L 408.130882 136.146957 
L 409.130882 136.176681 
L 410.130882 136.202076 
L 411.130882 136.213276 
L 412.130882 136.2234 
L 413.130882 136.223196 
L 414.130882 136.213686 
L 415.130882 136.202033 
L 416.130882 136.171003 
L 417.130882 136.159835 
L 418.130882 136.129718 
L 419.130882 136.069941 
L 420.130882 136.032749 
L 421.130882 135.993653 
L 422.130882 135.951214 
L 423.130882 135.918449 
L 424.130882 135.851022 
L 425.130882 135.811896 
L 426.130882 135.769222 
L 427.130882 135.698641 
L 428.130882 135.66225 
L 429.130882 135.603847 
L 430.130882 135.492894 
L 431.130882 135.422236 
L 432.130882 135.309296 
L 433.130882 135.263523 
L 434.130882 135.20224 
L 435.130882 135.153741 
L 436.130882 135.072918 
L 437.130882 134.954399 
L 438.130882 134.884189 
L 439.130882 134.800926 
L 440.130882 134.767784 
L 441.130882 134.716547 
L 442.130882 134.648149 
L 443.130882 134.581933 
L 444.130882 134.505016 
L 445.799004 134.477701 
" clip-path="url(#p53e152feec)" style="fill: none; stroke: #ff7f0e; stroke-opacity: 0.5; stroke-width: 0.2; stroke-linecap: square"/>
   <path d="M 389.130882 156.298634 
L 390.130882 156.33007 
L 391.130882 156.36701 
L 392.130882 156.464757 
L 393.130882 156.497279 
L 394.130882 156.570903 
L 395.130882 156.609469 
L 396.130882 156.644882 
L 397.130882 156.702522 
L 398.130882 156.772908 
L 399.130882 156.824872 
L 400.130882 156.883962 
L 401.130882 156.972283 
L 402.130882 157.018427 
L 403.130882 157.060838 
L 404.130882 157.091331 
L 405.130882 157.117376 
L 406.130882 157.138576 
L 407.130882 157.192877 
L 408.130882 157.220815 
L 409.130882 157.250539 
L 410.130882 157.275933 
L 411.130882 157.287134 
L 412.130882 157.297258 
L 413.130882 157.297053 
L 414.130882 157.287544 
L 415.130882 157.27589 
L 416.130882 157.244861 
L 417.130882 157.233693 
L 418.130882 157.203575 
L 419.130882 157.143798 
L 420.130882 157.106607 
L 421.130882 157.067511 
L 422.130882 157.025071 
L 423.130882 156.992306 
L 424.130882 156.92488 
L 425.130882 156.885754 
L 426.130882 156.843079 
L 427.130882 156.772499 
L 428.130882 156.736108 
L 429.130882 156.677704 
L 430.130882 156.566752 
L 431.130882 156.496094 
L 432.130882 156.383154 
L 433.130882 156.337381 
L 434.130882 156.276098 
L 435.130882 156.227598 
L 436.130882 156.146776 
L 437.130882 156.028257 
L 438.130882 155.958046 
L 439.130882 155.874784 
L 440.130882 155.841642 
L 441.130882 155.790405 
L 442.130882 155.722006 
L 443.130882 155.655791 
L 444.130882 155.578874 
L 445.799004 155.551558 
" clip-path="url(#p53e152feec)" style="fill: none; stroke: #ff7f0e; stroke-opacity: 0.5; stroke-width: 0.2; stroke-linecap: square"/>
   <path d="M 389.130882 104.001644 
L 390.130882 104.033081 
L 391.130882 104.070021 
L 392.130882 104.167768 
L 393.130882 104.200289 
L 394.130882 104.273914 
L 395.130882 104.31248 
L 396.130882 104.347893 
L 397.130882 104.405533 
L 398.130882 104.475919 
L 399.130882 104.527883 
L 400.130882 104.586973 
L 401.130882 104.675294 
L 402.130882 104.721438 
L 403.130882 104.763849 
L 404.130882 104.794342 
L 405.130882 104.820387 
L 406.130882 104.841587 
L 407.130882 104.895888 
L 408.130882 104.923825 
L 409.130882 104.953549 
L 410.130882 104.978944 
L 411.130882 104.990145 
L 412.130882 105.000269 
L 413.130882 105.000064 
L 414.130882 104.990554 
L 415.130882 104.978901 
L 416.130882 104.947871 
L 417.130882 104.936704 
L 418.130882 104.906586 
L 419.130882 104.846809 
L 420.130882 104.809618 
L 421.130882 104.770521 
L 422.130882 104.728082 
L 423.130882 104.695317 
L 424.130882 104.62789 
L 425.130882 104.588764 
L 426.130882 104.54609 
L 427.130882 104.475509 
L 428.130882 104.439118 
L 429.130882 104.380715 
L 430.130882 104.269763 
L 431.130882 104.199104 
L 432.130882 104.086164 
L 433.130882 104.040392 
L 434.130882 103.979108 
L 435.130882 103.930609 
L 436.130882 103.849786 
L 437.130882 103.731267 
L 438.130882 103.661057 
L 439.130882 103.577794 
L 440.130882 103.544653 
L 441.130882 103.493415 
L 442.130882 103.425017 
L 443.130882 103.358801 
L 444.130882 103.281884 
L 445.799004 103.254569 
" clip-path="url(#p53e152feec)" style="fill: none; stroke: #ff7f0e; stroke-opacity: 0.5; stroke-width: 0.2; stroke-linecap: square"/>
   <path d="M 389.130882 162.123852 
L 390.130882 162.155288 
L 391.130882 162.192229 
L 392.130882 162.289975 
L 393.130882 162.322497 
L 394.130882 162.396121 
L 395.130882 162.434687 
L 396.130882 162.4701 
L 397.130882 162.52774 
L 398.130882 162.598126 
L 399.130882 162.650091 
L 400.130882 162.70918 
L 401.130882 162.797501 
L 402.130882 162.843646 
L 403.130882 162.886057 
L 404.130882 162.916549 
L 405.130882 162.942594 
L 406.130882 162.963794 
L 407.130882 163.018095 
L 408.130882 163.046033 
L 409.130882 163.075757 
L 410.130882 163.101152 
L 411.130882 163.112352 
L 412.130882 163.122476 
L 413.130882 163.122272 
L 414.130882 163.112762 
L 415.130882 163.101108 
L 416.130882 163.070079 
L 417.130882 163.058911 
L 418.130882 163.028794 
L 419.130882 162.969017 
L 420.130882 162.931825 
L 421.130882 162.892729 
L 422.130882 162.850289 
L 423.130882 162.817524 
L 424.130882 162.750098 
L 425.130882 162.710972 
L 426.130882 162.668297 
L 427.130882 162.597717 
L 428.130882 162.561326 
L 429.130882 162.502923 
L 430.130882 162.39197 
L 431.130882 162.321312 
L 432.130882 162.208372 
L 433.130882 162.162599 
L 434.130882 162.101316 
L 435.130882 162.052817 
L 436.130882 161.971994 
L 437.130882 161.853475 
L 438.130882 161.783264 
L 439.130882 161.700002 
L 440.130882 161.66686 
L 441.130882 161.615623 
L 442.130882 161.547224 
L 443.130882 161.481009 
L 444.130882 161.404092 
L 445.799004 161.376776 
" clip-path="url(#p53e152feec)" style="fill: none; stroke: #ff7f0e; stroke-opacity: 0.5; stroke-width: 0.2; stroke-linecap: square"/>
   <g id="patch_3">
    <path d="M 69.06392 22.318125 
L 69.06392 318.021875 
M 192.420059 22.318125 
L 192.420059 318.021875 
" clip-path="url(#p53e152feec)" style="fill: none; stroke: #ffffff; stroke-width: 3; stroke-linejoin: miter"/>
    <path d="M 69.06392 22.318125 
L 69.06392 318.021875 
M 192.420059 22.318125 
L 192.420059 318.021875 
" clip-path="url(#p53e152feec)" style="fill: none; stroke: #1f77b4; stroke-linejoin: miter"/>
    <g id="PolyCollection_1">
     <path d="M 192.420059 22.318125 
L 69.06392 22.318125 
L 69.06392 318.021875 
L 192.420059 318.021875 
L 192.420059 318.021875 
L 192.420059 22.318125 
z
" clip-path="url(#p53e152feec)" style="fill: #1f77b4; fill-opacity: 0.5"/>
    </g>
    <g id="patch_4">
     <path d="M 260.212556 22.318125 
L 260.212556 318.021875 
M 383.568694 22.318125 
L 383.568694 318.021875 
" clip-path="url(#p53e152feec)" style="fill: none; stroke: #ffffff; stroke-width: 3; stroke-linejoin: miter"/>
     <path d="M 260.212556 22.318125 
L 260.212556 318.021875 
M 383.568694 22.318125 
L 383.568694 318.021875 
" clip-path="url(#p53e152feec)" style="fill: none; stroke: #ff7f0e; stroke-linejoin: miter"/>
     <g id="PolyCollection_2">
      <path d="M 383.568694 22.318125 
L 260.212556 22.318125 
L 260.212556 318.021875 
L 383.568694 318.021875 
L 383.568694 318.021875 
L 383.568694 22.318125 
z
" clip-path="url(#p53e152feec)" style="fill: #ff7f0e; fill-opacity: 0.5"/>
     </g>
     <g id="patch_5">
      <path d="M 451.361191 22.318125 
L 451.361191 318.021875 
M 574.71733 22.318125 
L 574.71733 318.021875 
" clip-path="url(#p53e152feec)" style="fill: none; stroke: #ffffff; stroke-width: 3; stroke-linejoin: miter"/>
      <path d="M 451.361191 22.318125 
L 451.361191 318.021875 
M 574.71733 22.318125 
L 574.71733 318.021875 
" clip-path="url(#p53e152feec)" style="fill: none; stroke: #2ca02c; stroke-linejoin: miter"/>
      <g id="PolyCollection_3">
       <path d="M 574.71733 22.318125 
L 451.361191 22.318125 
L 451.361191 318.021875 
L 574.71733 318.021875 
L 574.71733 318.021875 
L 574.71733 22.318125 
z
" clip-path="url(#p53e152feec)" style="fill: #2ca02c; fill-opacity: 0.5"/>
      </g>
      <g id="matplotlib.axis_1">
       <g id="xtick_1">
        <g id="line2d_1"/>
        <g id="text_1">
         <!-- deme0 -->
         <g transform="translate(113.363083 329.120312) scale(0.1 -0.1)">
          <defs>
           <path id="DejaVuSans-64" d="M 2906 2969 
L 2906 4863 
L 3481 4863 
L 3481 0 
L 2906 0 
L 2906 525 
Q 2725 213 2448 61 
Q 2172 -91 1784 -91 
Q 1150 -91 751 415 
Q 353 922 353 1747 
Q 353 2572 751 3078 
Q 1150 3584 1784 3584 
Q 2172 3584 2448 3432 
Q 2725 3281 2906 2969 
z
M 947 1747 
Q 947 1113 1208 752 
Q 1469 391 1925 391 
Q 2381 391 2643 752 
Q 2906 1113 2906 1747 
Q 2906 2381 2643 2742 
Q 2381 3103 1925 3103 
Q 1469 3103 1208 2742 
Q 947 2381 947 1747 
z
" transform="scale(0.015625)"/>
           <path id="DejaVuSans-65" d="M 3597 1894 
L 3597 1613 
L 953 1613 
Q 991 1019 1311 708 
Q 1631 397 2203 397 
Q 2534 397 2845 478 
Q 3156 559 3463 722 
L 3463 178 
Q 3153 47 2828 -22 
Q 2503 -91 2169 -91 
Q 1331 -91 842 396 
Q 353 884 353 1716 
Q 353 2575 817 3079 
Q 1281 3584 2069 3584 
Q 2775 3584 3186 3129 
Q 3597 2675 3597 1894 
z
M 3022 2063 
Q 3016 2534 2758 2815 
Q 2500 3097 2075 3097 
Q 1594 3097 1305 2825 
Q 1016 2553 972 2059 
L 3022 2063 
z
" transform="scale(0.015625)"/>
           <path id="DejaVuSans-6d" d="M 3328 2828 
Q 3544 3216 3844 3400 
Q 4144 3584 4550 3584 
Q 5097 3584 5394 3201 
Q 5691 2819 5691 2113 
L 5691 0 
L 5113 0 
L 5113 2094 
Q 5113 2597 4934 2840 
Q 4756 3084 4391 3084 
Q 3944 3084 3684 2787 
Q 3425 2491 3425 1978 
L 3425 0 
L 2847 0 
L 2847 2094 
Q 2847 2600 2669 2842 
Q 2491 3084 2119 3084 
Q 1678 3084 1418 2786 
Q 1159 2488 1159 1978 
L 1159 0 
L 581 0 
L 581 3500 
L 1159 3500 
L 1159 2956 
Q 1356 3278 1631 3431 
Q 1906 3584 2284 3584 
Q 2666 3584 2933 3390 
Q 3200 3197 3328 2828 
z
" transform="scale(0.015625)"/>
           <path id="DejaVuSans-30" d="M 2034 4250 
Q 1547 4250 1301 3770 
Q 1056 3291 1056 2328 
Q 1056 1369 1301 889 
Q 1547 409 2034 409 
Q 2525 409 2770 889 
Q 3016 1369 3016 2328 
Q 3016 3291 2770 3770 
Q 2525 4250 2034 4250 
z
M 2034 4750 
Q 2819 4750 3233 4129 
Q 3647 3509 3647 2328 
Q 3647 1150 3233 529 
Q 2819 -91 2034 -91 
Q 1250 -91 836 529 
Q 422 1150 422 2328 
Q 422 3509 836 4129 
Q 1250 4750 2034 4750 
z
" transform="scale(0.015625)"/>
          </defs>
          <use xlink:href="#DejaVuSans-64"/>
          <use xlink:href="#DejaVuSans-65" x="63.476562"/>
          <use xlink:href="#DejaVuSans-6d" x="125"/>
          <use xlink:href="#DejaVuSans-65" x="222.412109"/>
          <use xlink:href="#DejaVuSans-30" x="283.935547"/>
         </g>
        </g>
       </g>
       <g id="xtick_2">
        <g id="line2d_2"/>
        <g id="text_2">
         <!-- deme1 -->
         <g transform="translate(304.511719 329.120312) scale(0.1 -0.1)">
          <defs>
           <path id="DejaVuSans-31" d="M 794 531 
L 1825 531 
L 1825 4091 
L 703 3866 
L 703 4441 
L 1819 4666 
L 2450 4666 
L 2450 531 
L 3481 531 
L 3481 0 
L 794 0 
L 794 531 
z
" transform="scale(0.015625)"/>
          </defs>
          <use xlink:href="#DejaVuSans-64"/>
          <use xlink:href="#DejaVuSans-65" x="63.476562"/>
          <use xlink:href="#DejaVuSans-6d" x="125"/>
          <use xlink:href="#DejaVuSans-65" x="222.412109"/>
          <use xlink:href="#DejaVuSans-31" x="283.935547"/>
         </g>
        </g>
       </g>
       <g id="xtick_3">
        <g id="line2d_3"/>
        <g id="text_3">
         <!-- deme2 -->
         <g transform="translate(495.660354 329.120312) scale(0.1 -0.1)">
          <defs>
           <path id="DejaVuSans-32" d="M 1228 531 
L 3431 531 
L 3431 0 
L 469 0 
L 469 531 
Q 828 903 1448 1529 
Q 2069 2156 2228 2338 
Q 2531 2678 2651 2914 
Q 2772 3150 2772 3378 
Q 2772 3750 2511 3984 
Q 2250 4219 1831 4219 
Q 1534 4219 1204 4116 
Q 875 4013 500 3803 
L 500 4441 
Q 881 4594 1212 4672 
Q 1544 4750 1819 4750 
Q 2544 4750 2975 4387 
Q 3406 4025 3406 3419 
Q 3406 3131 3298 2873 
Q 3191 2616 2906 2266 
Q 2828 2175 2409 1742 
Q 1991 1309 1228 531 
z
" transform="scale(0.015625)"/>
          </defs>
          <use xlink:href="#DejaVuSans-64"/>
          <use xlink:href="#DejaVuSans-65" x="63.476562"/>
          <use xlink:href="#DejaVuSans-6d" x="125"/>
          <use xlink:href="#DejaVuSans-65" x="222.412109"/>
          <use xlink:href="#DejaVuSans-32" x="283.935547"/>
         </g>
        </g>
       </g>
      </g>
      <g id="matplotlib.axis_2">
       <g id="ytick_1">
        <g id="line2d_4">
         <defs>
          <path id="m253c0bf2e3" d="M 0 0 
L -3.5 0 
" style="stroke: #000000; stroke-width: 0.8"/>
         </defs>
         <g>
          <use xlink:href="#m253c0bf2e3" x="43.78125" y="318.021875" style="stroke: #000000; stroke-width: 0.8"/>
         </g>
        </g>
        <g id="text_4">
         <!-- 0.0 -->
         <g transform="translate(20.878125 321.821094) scale(0.1 -0.1)">
          <defs>
           <path id="DejaVuSans-2e" d="M 684 794 
L 1344 794 
L 1344 0 
L 684 0 
L 684 794 
z
" transform="scale(0.015625)"/>
          </defs>
          <use xlink:href="#DejaVuSans-30"/>
          <use xlink:href="#DejaVuSans-2e" x="63.623047"/>
          <use xlink:href="#DejaVuSans-30" x="95.410156"/>
         </g>
        </g>
       </g>
       <g id="ytick_2">
        <g id="line2d_5">
         <g>
          <use xlink:href="#m253c0bf2e3" x="43.78125" y="258.881125" style="stroke: #000000; stroke-width: 0.8"/>
         </g>
        </g>
        <g id="text_5">
         <!-- 0.5 -->
         <g transform="translate(20.878125 262.680344) scale(0.1 -0.1)">
          <defs>
           <path id="DejaVuSans-35" d="M 691 4666 
L 3169 4666 
L 3169 4134 
L 1269 4134 
L 1269 2991 
Q 1406 3038 1543 3061 
Q 1681 3084 1819 3084 
Q 2600 3084 3056 2656 
Q 3513 2228 3513 1497 
Q 3513 744 3044 326 
Q 2575 -91 1722 -91 
Q 1428 -91 1123 -41 
Q 819 9 494 109 
L 494 744 
Q 775 591 1075 516 
Q 1375 441 1709 441 
Q 2250 441 2565 725 
Q 2881 1009 2881 1497 
Q 2881 1984 2565 2268 
Q 2250 2553 1709 2553 
Q 1456 2553 1204 2497 
Q 953 2441 691 2322 
L 691 4666 
z
" transform="scale(0.015625)"/>
          </defs>
          <use xlink:href="#DejaVuSans-30"/>
          <use xlink:href="#DejaVuSans-2e" x="63.623047"/>
          <use xlink:href="#DejaVuSans-35" x="95.410156"/>
         </g>
        </g>
       </g>
       <g id="ytick_3">
        <g id="line2d_6">
         <g>
          <use xlink:href="#m253c0bf2e3" x="43.78125" y="199.740375" style="stroke: #000000; stroke-width: 0.8"/>
         </g>
        </g>
        <g id="text_6">
         <!-- 1.0 -->
         <g transform="translate(20.878125 203.539594) scale(0.1 -0.1)">
          <use xlink:href="#DejaVuSans-31"/>
          <use xlink:href="#DejaVuSans-2e" x="63.623047"/>
          <use xlink:href="#DejaVuSans-30" x="95.410156"/>
         </g>
        </g>
       </g>
       <g id="ytick_4">
        <g id="line2d_7">
         <g>
          <use xlink:href="#m253c0bf2e3" x="43.78125" y="140.599625" style="stroke: #000000; stroke-width: 0.8"/>
         </g>
        </g>
        <g id="text_7">
         <!-- 1.5 -->
         <g transform="translate(20.878125 144.398844) scale(0.1 -0.1)">
          <use xlink:href="#DejaVuSans-31"/>
          <use xlink:href="#DejaVuSans-2e" x="63.623047"/>
          <use xlink:href="#DejaVuSans-35" x="95.410156"/>
         </g>
        </g>
       </g>
       <g id="ytick_5">
        <g id="line2d_8">
         <g>
          <use xlink:href="#m253c0bf2e3" x="43.78125" y="81.458875" style="stroke: #000000; stroke-width: 0.8"/>
         </g>
        </g>
        <g id="text_8">
         <!-- 2.0 -->
         <g transform="translate(20.878125 85.258094) scale(0.1 -0.1)">
          <use xlink:href="#DejaVuSans-32"/>
          <use xlink:href="#DejaVuSans-2e" x="63.623047"/>
          <use xlink:href="#DejaVuSans-30" x="95.410156"/>
         </g>
        </g>
       </g>
       <g id="ytick_6">
        <g id="line2d_9">
         <g>
          <use xlink:href="#m253c0bf2e3" x="43.78125" y="22.318125" style="stroke: #000000; stroke-width: 0.8"/>
         </g>
        </g>
        <g id="text_9">
         <!-- 2.5 -->
         <g transform="translate(20.878125 26.117344) scale(0.1 -0.1)">
          <use xlink:href="#DejaVuSans-32"/>
          <use xlink:href="#DejaVuSans-2e" x="63.623047"/>
          <use xlink:href="#DejaVuSans-35" x="95.410156"/>
         </g>
        </g>
       </g>
       <g id="text_10">
        <!-- time ago (generations) -->
        <g transform="translate(14.798438 227.641094) rotate(-90) scale(0.1 -0.1)">
         <defs>
          <path id="DejaVuSans-74" d="M 1172 4494 
L 1172 3500 
L 2356 3500 
L 2356 3053 
L 1172 3053 
L 1172 1153 
Q 1172 725 1289 603 
Q 1406 481 1766 481 
L 2356 481 
L 2356 0 
L 1766 0 
Q 1100 0 847 248 
Q 594 497 594 1153 
L 594 3053 
L 172 3053 
L 172 3500 
L 594 3500 
L 594 4494 
L 1172 4494 
z
" transform="scale(0.015625)"/>
          <path id="DejaVuSans-69" d="M 603 3500 
L 1178 3500 
L 1178 0 
L 603 0 
L 603 3500 
z
M 603 4863 
L 1178 4863 
L 1178 4134 
L 603 4134 
L 603 4863 
z
" transform="scale(0.015625)"/>
          <path id="DejaVuSans-20" transform="scale(0.015625)"/>
          <path id="DejaVuSans-61" d="M 2194 1759 
Q 1497 1759 1228 1600 
Q 959 1441 959 1056 
Q 959 750 1161 570 
Q 1363 391 1709 391 
Q 2188 391 2477 730 
Q 2766 1069 2766 1631 
L 2766 1759 
L 2194 1759 
z
M 3341 1997 
L 3341 0 
L 2766 0 
L 2766 531 
Q 2569 213 2275 61 
Q 1981 -91 1556 -91 
Q 1019 -91 701 211 
Q 384 513 384 1019 
Q 384 1609 779 1909 
Q 1175 2209 1959 2209 
L 2766 2209 
L 2766 2266 
Q 2766 2663 2505 2880 
Q 2244 3097 1772 3097 
Q 1472 3097 1187 3025 
Q 903 2953 641 2809 
L 641 3341 
Q 956 3463 1253 3523 
Q 1550 3584 1831 3584 
Q 2591 3584 2966 3190 
Q 3341 2797 3341 1997 
z
" transform="scale(0.015625)"/>
          <path id="DejaVuSans-67" d="M 2906 1791 
Q 2906 2416 2648 2759 
Q 2391 3103 1925 3103 
Q 1463 3103 1205 2759 
Q 947 2416 947 1791 
Q 947 1169 1205 825 
Q 1463 481 1925 481 
Q 2391 481 2648 825 
Q 2906 1169 2906 1791 
z
M 3481 434 
Q 3481 -459 3084 -895 
Q 2688 -1331 1869 -1331 
Q 1566 -1331 1297 -1286 
Q 1028 -1241 775 -1147 
L 775 -588 
Q 1028 -725 1275 -790 
Q 1522 -856 1778 -856 
Q 2344 -856 2625 -561 
Q 2906 -266 2906 331 
L 2906 616 
Q 2728 306 2450 153 
Q 2172 0 1784 0 
Q 1141 0 747 490 
Q 353 981 353 1791 
Q 353 2603 747 3093 
Q 1141 3584 1784 3584 
Q 2172 3584 2450 3431 
Q 2728 3278 2906 2969 
L 2906 3500 
L 3481 3500 
L 3481 434 
z
" transform="scale(0.015625)"/>
          <path id="DejaVuSans-6f" d="M 1959 3097 
Q 1497 3097 1228 2736 
Q 959 2375 959 1747 
Q 959 1119 1226 758 
Q 1494 397 1959 397 
Q 2419 397 2687 759 
Q 2956 1122 2956 1747 
Q 2956 2369 2687 2733 
Q 2419 3097 1959 3097 
z
M 1959 3584 
Q 2709 3584 3137 3096 
Q 3566 2609 3566 1747 
Q 3566 888 3137 398 
Q 2709 -91 1959 -91 
Q 1206 -91 779 398 
Q 353 888 353 1747 
Q 353 2609 779 3096 
Q 1206 3584 1959 3584 
z
" transform="scale(0.015625)"/>
          <path id="DejaVuSans-28" d="M 1984 4856 
Q 1566 4138 1362 3434 
Q 1159 2731 1159 2009 
Q 1159 1288 1364 580 
Q 1569 -128 1984 -844 
L 1484 -844 
Q 1016 -109 783 600 
Q 550 1309 550 2009 
Q 550 2706 781 3412 
Q 1013 4119 1484 4856 
L 1984 4856 
z
" transform="scale(0.015625)"/>
          <path id="DejaVuSans-6e" d="M 3513 2113 
L 3513 0 
L 2938 0 
L 2938 2094 
Q 2938 2591 2744 2837 
Q 2550 3084 2163 3084 
Q 1697 3084 1428 2787 
Q 1159 2491 1159 1978 
L 1159 0 
L 581 0 
L 581 3500 
L 1159 3500 
L 1159 2956 
Q 1366 3272 1645 3428 
Q 1925 3584 2291 3584 
Q 2894 3584 3203 3211 
Q 3513 2838 3513 2113 
z
" transform="scale(0.015625)"/>
          <path id="DejaVuSans-72" d="M 2631 2963 
Q 2534 3019 2420 3045 
Q 2306 3072 2169 3072 
Q 1681 3072 1420 2755 
Q 1159 2438 1159 1844 
L 1159 0 
L 581 0 
L 581 3500 
L 1159 3500 
L 1159 2956 
Q 1341 3275 1631 3429 
Q 1922 3584 2338 3584 
Q 2397 3584 2469 3576 
Q 2541 3569 2628 3553 
L 2631 2963 
z
" transform="scale(0.015625)"/>
          <path id="DejaVuSans-73" d="M 2834 3397 
L 2834 2853 
Q 2591 2978 2328 3040 
Q 2066 3103 1784 3103 
Q 1356 3103 1142 2972 
Q 928 2841 928 2578 
Q 928 2378 1081 2264 
Q 1234 2150 1697 2047 
L 1894 2003 
Q 2506 1872 2764 1633 
Q 3022 1394 3022 966 
Q 3022 478 2636 193 
Q 2250 -91 1575 -91 
Q 1294 -91 989 -36 
Q 684 19 347 128 
L 347 722 
Q 666 556 975 473 
Q 1284 391 1588 391 
Q 1994 391 2212 530 
Q 2431 669 2431 922 
Q 2431 1156 2273 1281 
Q 2116 1406 1581 1522 
L 1381 1569 
Q 847 1681 609 1914 
Q 372 2147 372 2553 
Q 372 3047 722 3315 
Q 1072 3584 1716 3584 
Q 2034 3584 2315 3537 
Q 2597 3491 2834 3397 
z
" transform="scale(0.015625)"/>
          <path id="DejaVuSans-29" d="M 513 4856 
L 1013 4856 
Q 1481 4119 1714 3412 
Q 1947 2706 1947 2009 
Q 1947 1309 1714 600 
Q 1481 -109 1013 -844 
L 513 -844 
Q 928 -128 1133 580 
Q 1338 1288 1338 2009 
Q 1338 2731 1133 3434 
Q 928 4138 513 4856 
z
" transform="scale(0.015625)"/>
         </defs>
         <use xlink:href="#DejaVuSans-74"/>
         <use xlink:href="#DejaVuSans-69" x="39.208984"/>
         <use xlink:href="#DejaVuSans-6d" x="66.992188"/>
         <use xlink:href="#DejaVuSans-65" x="164.404297"/>
         <use xlink:href="#DejaVuSans-20" x="225.927734"/>
         <use xlink:href="#DejaVuSans-61" x="257.714844"/>
         <use xlink:href="#DejaVuSans-67" x="318.994141"/>
         <use xlink:href="#DejaVuSans-6f" x="382.470703"/>
         <use xlink:href="#DejaVuSans-20" x="443.652344"/>
         <use xlink:href="#DejaVuSans-28" x="475.439453"/>
         <use xlink:href="#DejaVuSans-67" x="514.453125"/>
         <use xlink:href="#DejaVuSans-65" x="577.929688"/>
         <use xlink:href="#DejaVuSans-6e" x="639.453125"/>
         <use xlink:href="#DejaVuSans-65" x="702.832031"/>
         <use xlink:href="#DejaVuSans-72" x="764.355469"/>
         <use xlink:href="#DejaVuSans-61" x="805.46875"/>
         <use xlink:href="#DejaVuSans-74" x="866.748047"/>
         <use xlink:href="#DejaVuSans-69" x="905.957031"/>
         <use xlink:href="#DejaVuSans-6f" x="933.740234"/>
         <use xlink:href="#DejaVuSans-6e" x="994.921875"/>
         <use xlink:href="#DejaVuSans-73" x="1058.300781"/>
         <use xlink:href="#DejaVuSans-29" x="1110.400391"/>
        </g>
       </g>
      </g>
      <path d="M 255.650369 168.749727 
L 253.650369 167.749727 
L 253.650369 169.749727 
z
" clip-path="url(#p53e152feec)" style="fill: #1f77b4; fill-opacity: 0.5; stroke: #1f77b4; stroke-opacity: 0.5; stroke-linejoin: miter"/>
      <path d="M 255.650369 165.304958 
L 253.650369 164.304958 
L 253.650369 166.304958 
z
" clip-path="url(#p53e152feec)" style="fill: #1f77b4; fill-opacity: 0.5; stroke: #1f77b4; stroke-opacity: 0.5; stroke-linejoin: miter"/>
      <path d="M 255.650369 187.057461 
L 253.650369 186.057461 
L 253.650369 188.057461 
z
" clip-path="url(#p53e152feec)" style="fill: #1f77b4; fill-opacity: 0.5; stroke: #1f77b4; stroke-opacity: 0.5; stroke-linejoin: miter"/>
      <path d="M 255.650369 110.951701 
L 253.650369 109.951701 
L 253.650369 111.951701 
z
" clip-path="url(#p53e152feec)" style="fill: #1f77b4; fill-opacity: 0.5; stroke: #1f77b4; stroke-opacity: 0.5; stroke-linejoin: miter"/>
      <path d="M 255.650369 171.745517 
L 253.650369 170.745517 
L 253.650369 172.745517 
z
" clip-path="url(#p53e152feec)" style="fill: #1f77b4; fill-opacity: 0.5; stroke: #1f77b4; stroke-opacity: 0.5; stroke-linejoin: miter"/>
      <path d="M 255.650369 197.319178 
L 253.650369 196.319178 
L 253.650369 198.319178 
z
" clip-path="url(#p53e152feec)" style="fill: #1f77b4; fill-opacity: 0.5; stroke: #1f77b4; stroke-opacity: 0.5; stroke-linejoin: miter"/>
      <path d="M 255.650369 89.092555 
L 253.650369 88.092555 
L 253.650369 90.092555 
z
" clip-path="url(#p53e152feec)" style="fill: #1f77b4; fill-opacity: 0.5; stroke: #1f77b4; stroke-opacity: 0.5; stroke-linejoin: miter"/>
      <path d="M 255.650369 95.833124 
L 253.650369 94.833124 
L 253.650369 96.833124 
z
" clip-path="url(#p53e152feec)" style="fill: #1f77b4; fill-opacity: 0.5; stroke: #1f77b4; stroke-opacity: 0.5; stroke-linejoin: miter"/>
      <path d="M 255.650369 134.427936 
L 253.650369 133.427936 
L 253.650369 135.427936 
z
" clip-path="url(#p53e152feec)" style="fill: #1f77b4; fill-opacity: 0.5; stroke: #1f77b4; stroke-opacity: 0.5; stroke-linejoin: miter"/>
      <path d="M 255.650369 149.582625 
L 253.650369 148.582625 
L 253.650369 150.582625 
z
" clip-path="url(#p53e152feec)" style="fill: #1f77b4; fill-opacity: 0.5; stroke: #1f77b4; stroke-opacity: 0.5; stroke-linejoin: miter"/>
      <path d="M 446.799004 92.631339 
L 444.799004 91.631339 
L 444.799004 93.631339 
z
" clip-path="url(#p53e152feec)" style="fill: #ff7f0e; fill-opacity: 0.5; stroke: #ff7f0e; stroke-opacity: 0.5; stroke-linejoin: miter"/>
      <path d="M 446.799004 136.827248 
L 444.799004 135.827248 
L 444.799004 137.827248 
z
" clip-path="url(#p53e152feec)" style="fill: #ff7f0e; fill-opacity: 0.5; stroke: #ff7f0e; stroke-opacity: 0.5; stroke-linejoin: miter"/>
      <path d="M 446.799004 157.557992 
L 444.799004 156.557992 
L 444.799004 158.557992 
z
" clip-path="url(#p53e152feec)" style="fill: #ff7f0e; fill-opacity: 0.5; stroke: #ff7f0e; stroke-opacity: 0.5; stroke-linejoin: miter"/>
      <path d="M 446.799004 180.99918 
L 444.799004 179.99918 
L 444.799004 181.99918 
z
" clip-path="url(#p53e152feec)" style="fill: #ff7f0e; fill-opacity: 0.5; stroke: #ff7f0e; stroke-opacity: 0.5; stroke-linejoin: miter"/>
      <path d="M 446.799004 113.573925 
L 444.799004 112.573925 
L 444.799004 114.573925 
z
" clip-path="url(#p53e152feec)" style="fill: #ff7f0e; fill-opacity: 0.5; stroke: #ff7f0e; stroke-opacity: 0.5; stroke-linejoin: miter"/>
      <path d="M 446.799004 176.441994 
L 444.799004 175.441994 
L 444.799004 177.441994 
z
" clip-path="url(#p53e152feec)" style="fill: #ff7f0e; fill-opacity: 0.5; stroke: #ff7f0e; stroke-opacity: 0.5; stroke-linejoin: miter"/>
      <path d="M 446.799004 135.224776 
L 444.799004 134.224776 
L 444.799004 136.224776 
z
" clip-path="url(#p53e152feec)" style="fill: #ff7f0e; fill-opacity: 0.5; stroke: #ff7f0e; stroke-opacity: 0.5; stroke-linejoin: miter"/>
      <path d="M 446.799004 156.298634 
L 444.799004 155.298634 
L 444.799004 157.298634 
z
" clip-path="url(#p53e152feec)" style="fill: #ff7f0e; fill-opacity: 0.5; stroke: #ff7f0e; stroke-opacity: 0.5; stroke-linejoin: miter"/>
      <path d="M 446.799004 104.001644 
L 444.799004 103.001644 
L 444.799004 105.001644 
z
" clip-path="url(#p53e152feec)" style="fill: #ff7f0e; fill-opacity: 0.5; stroke: #ff7f0e; stroke-opacity: 0.5; stroke-linejoin: miter"/>
      <path d="M 446.799004 162.123852 
L 444.799004 161.123852 
L 444.799004 163.123852 
z
" clip-path="url(#p53e152feec)" style="fill: #ff7f0e; fill-opacity: 0.5; stroke: #ff7f0e; stroke-opacity: 0.5; stroke-linejoin: miter"/>
      <g id="patch_6">
       <path d="M 43.78125 318.021875 
L 43.78125 22.318125 
" style="fill: none; stroke: #000000; stroke-width: 0.8; stroke-linejoin: miter; stroke-linecap: square"/>
      </g>
      <g id="text_11">
       <!-- defaults_migration_properties.yaml -->
       <g transform="translate(215.434687 16.318125) scale(0.12 -0.12)">
        <defs>
         <path id="DejaVuSans-66" d="M 2375 4863 
L 2375 4384 
L 1825 4384 
Q 1516 4384 1395 4259 
Q 1275 4134 1275 3809 
L 1275 3500 
L 2222 3500 
L 2222 3053 
L 1275 3053 
L 1275 0 
L 697 0 
L 697 3053 
L 147 3053 
L 147 3500 
L 697 3500 
L 697 3744 
Q 697 4328 969 4595 
Q 1241 4863 1831 4863 
L 2375 4863 
z
" transform="scale(0.015625)"/>
         <path id="DejaVuSans-75" d="M 544 1381 
L 544 3500 
L 1119 3500 
L 1119 1403 
Q 1119 906 1312 657 
Q 1506 409 1894 409 
Q 2359 409 2629 706 
Q 2900 1003 2900 1516 
L 2900 3500 
L 3475 3500 
L 3475 0 
L 2900 0 
L 2900 538 
Q 2691 219 2414 64 
Q 2138 -91 1772 -91 
Q 1169 -91 856 284 
Q 544 659 544 1381 
z
M 1991 3584 
L 1991 3584 
z
" transform="scale(0.015625)"/>
         <path id="DejaVuSans-6c" d="M 603 4863 
L 1178 4863 
L 1178 0 
L 603 0 
L 603 4863 
z
" transform="scale(0.015625)"/>
         <path id="DejaVuSans-5f" d="M 3263 -1063 
L 3263 -1509 
L -63 -1509 
L -63 -1063 
L 3263 -1063 
z
" transform="scale(0.015625)"/>
         <path id="DejaVuSans-70" d="M 1159 525 
L 1159 -1331 
L 581 -1331 
L 581 3500 
L 1159 3500 
L 1159 2969 
Q 1341 3281 1617 3432 
Q 1894 3584 2278 3584 
Q 2916 3584 3314 3078 
Q 3713 2572 3713 1747 
Q 3713 922 3314 415 
Q 2916 -91 2278 -91 
Q 1894 -91 1617 61 
Q 1341 213 1159 525 
z
M 3116 1747 
Q 3116 2381 2855 2742 
Q 2594 3103 2138 3103 
Q 1681 3103 1420 2742 
Q 1159 2381 1159 1747 
Q 1159 1113 1420 752 
Q 1681 391 2138 391 
Q 2594 391 2855 752 
Q 3116 1113 3116 1747 
z
" transform="scale(0.015625)"/>
         <path id="DejaVuSans-79" d="M 2059 -325 
Q 1816 -950 1584 -1140 
Q 1353 -1331 966 -1331 
L 506 -1331 
L 506 -850 
L 844 -850 
Q 1081 -850 1212 -737 
Q 1344 -625 1503 -206 
L 1606 56 
L 191 3500 
L 800 3500 
L 1894 763 
L 2988 3500 
L 3597 3500 
L 2059 -325 
z
" transform="scale(0.015625)"/>
        </defs>
        <use xlink:href="#DejaVuSans-64"/>
        <use xlink:href="#DejaVuSans-65" x="63.476562"/>
        <use xlink:href="#DejaVuSans-66" x="125"/>
        <use xlink:href="#DejaVuSans-61" x="160.205078"/>
        <use xlink:href="#DejaVuSans-75" x="221.484375"/>
        <use xlink:href="#DejaVuSans-6c" x="284.863281"/>
        <use xlink:href="#DejaVuSans-74" x="312.646484"/>
        <use xlink:href="#DejaVuSans-73" x="351.855469"/>
        <use xlink:href="#DejaVuSans-5f" x="403.955078"/>
        <use xlink:href="#DejaVuSans-6d" x="453.955078"/>
        <use xlink:href="#DejaVuSans-69" x="551.367188"/>
        <use xlink:href="#DejaVuSans-67" x="579.150391"/>
        <use xlink:href="#DejaVuSans-72" x="642.626953"/>
        <use xlink:href="#DejaVuSans-61" x="683.740234"/>
        <use xlink:href="#DejaVuSans-74" x="745.019531"/>
        <use xlink:href="#DejaVuSans-69" x="784.228516"/>
        <use xlink:href="#DejaVuSans-6f" x="812.011719"/>
        <use xlink:href="#DejaVuSans-6e" x="873.193359"/>
        <use xlink:href="#DejaVuSans-5f" x="936.572266"/>
        <use xlink:href="#DejaVuSans-70" x="986.572266"/>
        <use xlink:href="#DejaVuSans-72" x="1050.048828"/>
        <use xlink:href="#DejaVuSans-6f" x="1088.912109"/>
        <use xlink:href="#DejaVuSans-70" x="1150.09375"/>
        <use xlink:href="#DejaVuSans-65" x="1213.570312"/>
        <use xlink:href="#DejaVuSans-72" x="1275.09375"/>
        <use xlink:href="#DejaVuSans-74" x="1316.207031"/>
        <use xlink:href="#DejaVuSans-69" x="1355.416016"/>
        <use xlink:href="#DejaVuSans-65" x="1383.199219"/>
        <use xlink:href="#DejaVuSans-73" x="1444.722656"/>
        <use xlink:href="#DejaVuSans-2e" x="1496.822266"/>
        <use xlink:href="#DejaVuSans-79" x="1528.609375"/>
        <use xlink:href="#DejaVuSans-61" x="1587.789062"/>
        <use xlink:href="#DejaVuSans-6d" x="1649.068359"/>
        <use xlink:href="#DejaVuSans-6c" x="1746.480469"/>
       </g>
      </g>
     </g>
    </g>
    <defs>
     <clipPath id="p53e152feec">
      <rect x="43.78125" y="22.318125" width="556.21875" height="295.70375"/>
     </clipPath>
    </defs>
   </g>
  </g>
 </g>
</svg>