<?xml version="1.0" encoding="utf-8" standalone="no"?>
<!DOCTYPE svg PUBLIC "-//W3C//DTD SVG 1.1//EN"
  "http://www.w3.org/Graphics/SVG/1.1/DTD/svg11.dtd">
<svg xmlns:xlink="http://www.w3.org/1999/xlink" width="607.2pt" height="338.4pt" viewBox="0 0 607.2 338.4" xmlns="http://www.w3.org/2000/svg" version="1.1">
 <metadata>
  <rdf:RDF xmlns:dc="http://purl.org/dc/elements/1.1/" xmlns:cc="http://creativecommons.org/ns#" xmlns:rdf="http://www.w3.org/1999/02/22-rdf-syntax-ns#">
   <cc:Work>
    <dc:type rdf:resource="http://purl.org/dc/dcmitype/StillImage"/>
    <dc:date>2023-05-08T09:03:19.859888</dc:date>
    <dc:format>image/svg+xml</dc:format>
    <dc:creator>
     <cc:Agent>
      <dc:title>Matplotlib v3.7.1, https://matplotlib.org/</dc:title>
     </cc:Agent>
    </dc:creator>
   </cc:Work>
  </rdf:RDF>
 </metadata>
 <defs>
  <style type="text/css">*{stroke-linejoin: round; stroke-linecap: butt}</style>
 </defs>
 <g id="figure_1">
  <g id="patch_1">
   <path d="M 0 338.4 
L 607.2 338.4 
L 607.2 0 
L 0 0 
z
" style="fill: #ffffff"/>
  </g>
  <g id="axes_1">
   <g id="patch_2">
    <path d="M 46.965625 318.021875 
L 600 318.021875 
L 600 22.318125 
L 46.965625 22.318125 
z
" style="fill: #ffffff"/>
   </g>
   <path d="M 200.299442 128.594646 
L 201.299442 128.626082 
L 202.299442 128.663023 
L 203.299442 128.760769 
L 204.299442 128.793291 
L 205.299442 128.866915 
L 206.299442 128.905481 
L 207.299442 128.940894 
L 208.299442 128.998534 
L 209.299442 129.06892 
L 210.299442 129.120884 
L 211.299442 129.179974 
L 212.299442 129.268295 
L 213.299442 129.314439 
L 214.299442 129.35685 
L 215.299442 129.387343 
L 216.299442 129.413388 
L 217.299442 129.434588 
L 218.299442 129.488889 
L 219.299442 129.516827 
L 220.299442 129.546551 
L 221.299442 129.571946 
L 222.299442 129.583146 
L 223.299442 129.59327 
L 224.299442 129.593066 
L 225.299442 129.583556 
L 226.299442 129.571902 
L 227.299442 129.540873 
L 228.299442 129.529705 
L 229.299442 129.499587 
L 230.299442 129.43981 
L 231.299442 129.402619 
L 232.299442 129.363523 
L 233.299442 129.321083 
L 234.299442 129.288318 
L 235.299442 129.220892 
L 236.299442 129.181766 
L 237.299442 129.139091 
L 238.299442 129.068511 
L 239.299442 129.03212 
L 240.299442 128.973717 
L 241.299442 128.862764 
L 242.299442 128.792106 
L 243.299442 128.679166 
L 244.299442 128.633393 
L 245.299442 128.57211 
L 246.299442 128.52361 
L 247.299442 128.442788 
L 248.299442 128.324269 
L 249.299442 128.254058 
L 250.299442 128.170796 
L 251.299442 128.137654 
L 252.299442 128.086417 
L 253.299442 128.018018 
L 254.299442 127.951803 
L 255.299442 127.874886 
L 256.619695 127.84757 
" clip-path="url(#pbace4b84df)" style="fill: none; stroke: #1f77b4; stroke-opacity: 0.5; stroke-width: 0.2; stroke-linecap: square"/>
   <path d="M 200.299442 304.381879 
L 201.299442 304.413315 
L 202.299442 304.450255 
L 203.299442 304.548002 
L 204.299442 304.580524 
L 205.299442 304.654148 
L 206.299442 304.692714 
L 207.299442 304.728127 
L 208.299442 304.785767 
L 209.299442 304.856153 
L 210.299442 304.908117 
L 211.299442 304.967207 
L 212.299442 305.055528 
L 213.299442 305.101672 
L 214.299442 305.144083 
L 215.299442 305.174576 
L 216.299442 305.200621 
L 217.299442 305.221821 
L 218.299442 305.276122 
L 219.299442 305.30406 
L 220.299442 305.333784 
L 221.299442 305.359178 
L 222.299442 305.370379 
L 223.299442 305.380503 
L 224.299442 305.380298 
L 225.299442 305.370789 
L 226.299442 305.359135 
L 227.299442 305.328106 
L 228.299442 305.316938 
L 229.299442 305.28682 
L 230.299442 305.227043 
L 231.299442 305.189852 
L 232.299442 305.150756 
L 233.299442 305.108316 
L 234.299442 305.075551 
L 235.299442 305.008125 
L 236.299442 304.968999 
L 237.299442 304.926324 
L 238.299442 304.855744 
L 239.299442 304.819353 
L 240.299442 304.760949 
L 241.299442 304.649997 
L 242.299442 304.579339 
L 243.299442 304.466399 
L 244.299442 304.420626 
L 245.299442 304.359343 
L 246.299442 304.310843 
L 247.299442 304.230021 
L 248.299442 304.111502 
L 249.299442 304.041291 
L 250.299442 303.958029 
L 251.299442 303.924887 
L 252.299442 303.87365 
L 253.299442 303.805251 
L 254.299442 303.739036 
L 255.299442 303.662119 
L 256.619695 303.634803 
" clip-path="url(#pbace4b84df)" style="fill: none; stroke: #1f77b4; stroke-opacity: 0.5; stroke-width: 0.2; stroke-linecap: square"/>
   <path d="M 200.299442 102.804746 
L 201.299442 102.836183 
L 202.299442 102.873123 
L 203.299442 102.970869 
L 204.299442 103.003391 
L 205.299442 103.077016 
L 206.299442 103.115581 
L 207.299442 103.150995 
L 208.299442 103.208634 
L 209.299442 103.279021 
L 210.299442 103.330985 
L 211.299442 103.390075 
L 212.299442 103.478396 
L 213.299442 103.52454 
L 214.299442 103.566951 
L 215.299442 103.597444 
L 216.299442 103.623488 
L 217.299442 103.644689 
L 218.299442 103.69899 
L 219.299442 103.726927 
L 220.299442 103.756651 
L 221.299442 103.782046 
L 222.299442 103.793246 
L 223.299442 103.80337 
L 224.299442 103.803166 
L 225.299442 103.793656 
L 226.299442 103.782003 
L 227.299442 103.750973 
L 228.299442 103.739805 
L 229.299442 103.709688 
L 230.299442 103.649911 
L 231.299442 103.612719 
L 232.299442 103.573623 
L 233.299442 103.531184 
L 234.299442 103.498419 
L 235.299442 103.430992 
L 236.299442 103.391866 
L 237.299442 103.349192 
L 238.299442 103.278611 
L 239.299442 103.24222 
L 240.299442 103.183817 
L 241.299442 103.072864 
L 242.299442 103.002206 
L 243.299442 102.889266 
L 244.299442 102.843493 
L 245.299442 102.78221 
L 246.299442 102.733711 
L 247.299442 102.652888 
L 248.299442 102.534369 
L 249.299442 102.464159 
L 250.299442 102.380896 
L 251.299442 102.347754 
L 252.299442 102.296517 
L 253.299442 102.228119 
L 254.299442 102.161903 
L 255.299442 102.084986 
L 256.619695 102.057671 
" clip-path="url(#pbace4b84df)" style="fill: none; stroke: #1f77b4; stroke-opacity: 0.5; stroke-width: 0.2; stroke-linecap: square"/>
   <path d="M 200.299442 316.499855 
L 201.299442 316.531292 
L 202.299442 316.568232 
L 203.299442 316.665979 
L 204.299442 316.6985 
L 205.299442 316.772125 
L 206.299442 316.810691 
L 207.299442 316.846104 
L 208.299442 316.903744 
L 209.299442 316.97413 
L 210.299442 317.026094 
L 211.299442 317.085184 
L 212.299442 317.173505 
L 213.299442 317.219649 
L 214.299442 317.26206 
L 215.299442 317.292553 
L 216.299442 317.318598 
L 217.299442 317.339798 
L 218.299442 317.394099 
L 219.299442 317.422036 
L 220.299442 317.45176 
L 221.299442 317.477155 
L 222.299442 317.488356 
L 223.299442 317.49848 
L 224.299442 317.498275 
L 225.299442 317.488765 
L 226.299442 317.477112 
L 227.299442 317.446082 
L 228.299442 317.434915 
L 229.299442 317.404797 
L 230.299442 317.34502 
L 231.299442 317.307829 
L 232.299442 317.268732 
L 233.299442 317.226293 
L 234.299442 317.193528 
L 235.299442 317.126101 
L 236.299442 317.086975 
L 237.299442 317.044301 
L 238.299442 316.97372 
L 239.299442 316.937329 
L 240.299442 316.878926 
L 241.299442 316.767974 
L 242.299442 316.697315 
L 243.299442 316.584375 
L 244.299442 316.538603 
L 245.299442 316.477319 
L 246.299442 316.42882 
L 247.299442 316.347997 
L 248.299442 316.229478 
L 249.299442 316.159268 
L 250.299442 316.076005 
L 251.299442 316.042864 
L 252.299442 315.991626 
L 253.299442 315.923228 
L 254.299442 315.857012 
L 255.299442 315.780095 
L 256.619695 315.75278 
" clip-path="url(#pbace4b84df)" style="fill: none; stroke: #1f77b4; stroke-opacity: 0.5; stroke-width: 0.2; stroke-linecap: square"/>
   <path d="M 200.299442 154.421302 
L 201.299442 154.452738 
L 202.299442 154.489678 
L 203.299442 154.587425 
L 204.299442 154.619947 
L 205.299442 154.693571 
L 206.299442 154.732137 
L 207.299442 154.76755 
L 208.299442 154.82519 
L 209.299442 154.895576 
L 210.299442 154.94754 
L 211.299442 155.00663 
L 212.299442 155.094951 
L 213.299442 155.141095 
L 214.299442 155.183506 
L 215.299442 155.213999 
L 216.299442 155.240044 
L 217.299442 155.261244 
L 218.299442 155.315545 
L 219.299442 155.343483 
L 220.299442 155.373207 
L 221.299442 155.398601 
L 222.299442 155.409802 
L 223.299442 155.419926 
L 224.299442 155.419721 
L 225.299442 155.410212 
L 226.299442 155.398558 
L 227.299442 155.367529 
L 228.299442 155.356361 
L 229.299442 155.326243 
L 230.299442 155.266466 
L 231.299442 155.229275 
L 232.299442 155.190179 
L 233.299442 155.147739 
L 234.299442 155.114974 
L 235.299442 155.047548 
L 236.299442 155.008422 
L 237.299442 154.965747 
L 238.299442 154.895166 
L 239.299442 154.858776 
L 240.299442 154.800372 
L 241.299442 154.68942 
L 242.299442 154.618762 
L 243.299442 154.505822 
L 244.299442 154.460049 
L 245.299442 154.398766 
L 246.299442 154.350266 
L 247.299442 154.269444 
L 248.299442 154.150925 
L 249.299442 154.080714 
L 250.299442 153.997452 
L 251.299442 153.96431 
L 252.299442 153.913072 
L 253.299442 153.844674 
L 254.299442 153.778459 
L 255.299442 153.701542 
L 256.619695 153.674226 
" clip-path="url(#pbace4b84df)" style="fill: none; stroke: #1f77b4; stroke-opacity: 0.5; stroke-width: 0.2; stroke-linecap: square"/>
   <path d="M 200.299442 156.180503 
L 201.299442 156.21194 
L 202.299442 156.24888 
L 203.299442 156.346626 
L 204.299442 156.379148 
L 205.299442 156.452773 
L 206.299442 156.491338 
L 207.299442 156.526751 
L 208.299442 156.584391 
L 209.299442 156.654778 
L 210.299442 156.706742 
L 211.299442 156.765832 
L 212.299442 156.854153 
L 213.299442 156.900297 
L 214.299442 156.942708 
L 215.299442 156.9732 
L 216.299442 156.999245 
L 217.299442 157.020445 
L 218.299442 157.074747 
L 219.299442 157.102684 
L 220.299442 157.132408 
L 221.299442 157.157803 
L 222.299442 157.169003 
L 223.299442 157.179127 
L 224.299442 157.178923 
L 225.299442 157.169413 
L 226.299442 157.157759 
L 227.299442 157.12673 
L 228.299442 157.115562 
L 229.299442 157.085445 
L 230.299442 157.025668 
L 231.299442 156.988476 
L 232.299442 156.94938 
L 233.299442 156.906941 
L 234.299442 156.874175 
L 235.299442 156.806749 
L 236.299442 156.767623 
L 237.299442 156.724949 
L 238.299442 156.654368 
L 239.299442 156.617977 
L 240.299442 156.559574 
L 241.299442 156.448621 
L 242.299442 156.377963 
L 243.299442 156.265023 
L 244.299442 156.21925 
L 245.299442 156.157967 
L 246.299442 156.109468 
L 247.299442 156.028645 
L 248.299442 155.910126 
L 249.299442 155.839915 
L 250.299442 155.756653 
L 251.299442 155.723511 
L 252.299442 155.672274 
L 253.299442 155.603876 
L 254.299442 155.53766 
L 255.299442 155.460743 
L 256.619695 155.433428 
" clip-path="url(#pbace4b84df)" style="fill: none; stroke: #1f77b4; stroke-opacity: 0.5; stroke-width: 0.2; stroke-linecap: square"/>
   <path d="M 200.299442 43.256 
L 201.299442 43.287436 
L 202.299442 43.324376 
L 203.299442 43.422123 
L 204.299442 43.454645 
L 205.299442 43.528269 
L 206.299442 43.566835 
L 207.299442 43.602248 
L 208.299442 43.659888 
L 209.299442 43.730274 
L 210.299442 43.782238 
L 211.299442 43.841328 
L 212.299442 43.929649 
L 213.299442 43.975793 
L 214.299442 44.018204 
L 215.299442 44.048697 
L 216.299442 44.074742 
L 217.299442 44.095942 
L 218.299442 44.150243 
L 219.299442 44.178181 
L 220.299442 44.207905 
L 221.299442 44.233299 
L 222.299442 44.2445 
L 223.299442 44.254624 
L 224.299442 44.254419 
L 225.299442 44.24491 
L 226.299442 44.233256 
L 227.299442 44.202227 
L 228.299442 44.191059 
L 229.299442 44.160941 
L 230.299442 44.101164 
L 231.299442 44.063973 
L 232.299442 44.024877 
L 233.299442 43.982437 
L 234.299442 43.949672 
L 235.299442 43.882246 
L 236.299442 43.84312 
L 237.299442 43.800445 
L 238.299442 43.729864 
L 239.299442 43.693474 
L 240.299442 43.63507 
L 241.299442 43.524118 
L 242.299442 43.45346 
L 243.299442 43.34052 
L 244.299442 43.294747 
L 245.299442 43.233464 
L 246.299442 43.184964 
L 247.299442 43.104142 
L 248.299442 42.985623 
L 249.299442 42.915412 
L 250.299442 42.83215 
L 251.299442 42.799008 
L 252.299442 42.74777 
L 253.299442 42.679372 
L 254.299442 42.613157 
L 255.299442 42.53624 
L 256.619695 42.508924 
" clip-path="url(#pbace4b84df)" style="fill: none; stroke: #1f77b4; stroke-opacity: 0.5; stroke-width: 0.2; stroke-linecap: square"/>
   <path d="M 200.299442 173.266017 
L 201.299442 173.297454 
L 202.299442 173.334394 
L 203.299442 173.432141 
L 204.299442 173.464662 
L 205.299442 173.538287 
L 206.299442 173.576852 
L 207.299442 173.612266 
L 208.299442 173.669906 
L 209.299442 173.740292 
L 210.299442 173.792256 
L 211.299442 173.851346 
L 212.299442 173.939667 
L 213.299442 173.985811 
L 214.299442 174.028222 
L 215.299442 174.058715 
L 216.299442 174.08476 
L 217.299442 174.10596 
L 218.299442 174.160261 
L 219.299442 174.188198 
L 220.299442 174.217922 
L 221.299442 174.243317 
L 222.299442 174.254517 
L 223.299442 174.264641 
L 224.299442 174.264437 
L 225.299442 174.254927 
L 226.299442 174.243274 
L 227.299442 174.212244 
L 228.299442 174.201076 
L 229.299442 174.170959 
L 230.299442 174.111182 
L 231.299442 174.07399 
L 232.299442 174.034894 
L 233.299442 173.992455 
L 234.299442 173.95969 
L 235.299442 173.892263 
L 236.299442 173.853137 
L 237.299442 173.810463 
L 238.299442 173.739882 
L 239.299442 173.703491 
L 240.299442 173.645088 
L 241.299442 173.534135 
L 242.299442 173.463477 
L 243.299442 173.350537 
L 244.299442 173.304764 
L 245.299442 173.243481 
L 246.299442 173.194982 
L 247.299442 173.114159 
L 248.299442 172.99564 
L 249.299442 172.92543 
L 250.299442 172.842167 
L 251.299442 172.809025 
L 252.299442 172.757788 
L 253.299442 172.68939 
L 254.299442 172.623174 
L 255.299442 172.546257 
L 256.619695 172.518942 
" clip-path="url(#pbace4b84df)" style="fill: none; stroke: #1f77b4; stroke-opacity: 0.5; stroke-width: 0.2; stroke-linecap: square"/>
   <path d="M 200.299442 116.033181 
L 201.299442 116.064618 
L 202.299442 116.101558 
L 203.299442 116.199305 
L 204.299442 116.231826 
L 205.299442 116.305451 
L 206.299442 116.344016 
L 207.299442 116.37943 
L 208.299442 116.43707 
L 209.299442 116.507456 
L 210.299442 116.55942 
L 211.299442 116.61851 
L 212.299442 116.706831 
L 213.299442 116.752975 
L 214.299442 116.795386 
L 215.299442 116.825879 
L 216.299442 116.851924 
L 217.299442 116.873124 
L 218.299442 116.927425 
L 219.299442 116.955362 
L 220.299442 116.985086 
L 221.299442 117.010481 
L 222.299442 117.021681 
L 223.299442 117.031805 
L 224.299442 117.031601 
L 225.299442 117.022091 
L 226.299442 117.010438 
L 227.299442 116.979408 
L 228.299442 116.96824 
L 229.299442 116.938123 
L 230.299442 116.878346 
L 231.299442 116.841154 
L 232.299442 116.802058 
L 233.299442 116.759619 
L 234.299442 116.726854 
L 235.299442 116.659427 
L 236.299442 116.620301 
L 237.299442 116.577627 
L 238.299442 116.507046 
L 239.299442 116.470655 
L 240.299442 116.412252 
L 241.299442 116.301299 
L 242.299442 116.230641 
L 243.299442 116.117701 
L 244.299442 116.071928 
L 245.299442 116.010645 
L 246.299442 115.962146 
L 247.299442 115.881323 
L 248.299442 115.762804 
L 249.299442 115.692594 
L 250.299442 115.609331 
L 251.299442 115.576189 
L 252.299442 115.524952 
L 253.299442 115.456554 
L 254.299442 115.390338 
L 255.299442 115.313421 
L 256.619695 115.286106 
" clip-path="url(#pbace4b84df)" style="fill: none; stroke: #1f77b4; stroke-opacity: 0.5; stroke-width: 0.2; stroke-linecap: square"/>
   <path d="M 200.299442 164.845822 
L 201.299442 164.877258 
L 202.299442 164.914198 
L 203.299442 165.011945 
L 204.299442 165.044467 
L 205.299442 165.118091 
L 206.299442 165.156657 
L 207.299442 165.19207 
L 208.299442 165.24971 
L 209.299442 165.320096 
L 210.299442 165.37206 
L 211.299442 165.43115 
L 212.299442 165.519471 
L 213.299442 165.565615 
L 214.299442 165.608026 
L 215.299442 165.638519 
L 216.299442 165.664564 
L 217.299442 165.685764 
L 218.299442 165.740065 
L 219.299442 165.768003 
L 220.299442 165.797727 
L 221.299442 165.823121 
L 222.299442 165.834322 
L 223.299442 165.844446 
L 224.299442 165.844241 
L 225.299442 165.834732 
L 226.299442 165.823078 
L 227.299442 165.792049 
L 228.299442 165.780881 
L 229.299442 165.750763 
L 230.299442 165.690986 
L 231.299442 165.653795 
L 232.299442 165.614699 
L 233.299442 165.572259 
L 234.299442 165.539494 
L 235.299442 165.472068 
L 236.299442 165.432942 
L 237.299442 165.390267 
L 238.299442 165.319687 
L 239.299442 165.283296 
L 240.299442 165.224892 
L 241.299442 165.11394 
L 242.299442 165.043282 
L 243.299442 164.930342 
L 244.299442 164.884569 
L 245.299442 164.823286 
L 246.299442 164.774786 
L 247.299442 164.693964 
L 248.299442 164.575445 
L 249.299442 164.505234 
L 250.299442 164.421972 
L 251.299442 164.38883 
L 252.299442 164.337592 
L 253.299442 164.269194 
L 254.299442 164.202979 
L 255.299442 164.126062 
L 256.619695 164.098746 
" clip-path="url(#pbace4b84df)" style="fill: none; stroke: #1f77b4; stroke-opacity: 0.5; stroke-width: 0.2; stroke-linecap: square"/>
   <path d="M 256.619695 116.732064 
L 255.619695 116.700627 
L 254.619695 116.663687 
L 253.619695 116.56594 
L 252.619695 116.533419 
L 251.619695 116.459794 
L 250.619695 116.421228 
L 249.619695 116.385815 
L 248.619695 116.328175 
L 247.619695 116.257789 
L 246.619695 116.205825 
L 245.619695 116.146735 
L 244.619695 116.058414 
L 243.619695 116.01227 
L 242.619695 115.969859 
L 241.619695 115.939366 
L 240.619695 115.913321 
L 239.619695 115.892121 
L 238.619695 115.83782 
L 237.619695 115.809883 
L 236.619695 115.780159 
L 235.619695 115.754764 
L 234.619695 115.743563 
L 233.619695 115.733439 
L 232.619695 115.733644 
L 231.619695 115.743154 
L 230.619695 115.754807 
L 229.619695 115.785836 
L 228.619695 115.797004 
L 227.619695 115.827122 
L 226.619695 115.886899 
L 225.619695 115.92409 
L 224.619695 115.963186 
L 223.619695 116.005626 
L 222.619695 116.038391 
L 221.619695 116.105818 
L 220.619695 116.144944 
L 219.619695 116.187618 
L 218.619695 116.258199 
L 217.619695 116.29459 
L 216.619695 116.352993 
L 215.619695 116.463945 
L 214.619695 116.534604 
L 213.619695 116.647544 
L 212.619695 116.693316 
L 211.619695 116.7546 
L 210.619695 116.803099 
L 209.619695 116.883922 
L 208.619695 117.002441 
L 207.619695 117.072651 
L 206.619695 117.155914 
L 205.619695 117.189055 
L 204.619695 117.240293 
L 203.619695 117.308691 
L 202.619695 117.374907 
L 201.619695 117.451824 
L 200.299442 117.479139 
" clip-path="url(#pbace4b84df)" style="fill: none; stroke: #ff7f0e; stroke-opacity: 0.5; stroke-width: 0.2; stroke-linecap: square"/>
   <path d="M 256.619695 28.808939 
L 255.619695 28.777503 
L 254.619695 28.740563 
L 253.619695 28.642816 
L 252.619695 28.610295 
L 251.619695 28.53667 
L 250.619695 28.498104 
L 249.619695 28.462691 
L 248.619695 28.405051 
L 247.619695 28.334665 
L 246.619695 28.282701 
L 245.619695 28.223611 
L 244.619695 28.13529 
L 243.619695 28.089146 
L 242.619695 28.046735 
L 241.619695 28.016242 
L 240.619695 27.990197 
L 239.619695 27.968997 
L 238.619695 27.914696 
L 237.619695 27.886758 
L 236.619695 27.857034 
L 235.619695 27.83164 
L 234.619695 27.820439 
L 233.619695 27.810315 
L 232.619695 27.81052 
L 231.619695 27.820029 
L 230.619695 27.831683 
L 229.619695 27.862712 
L 228.619695 27.87388 
L 227.619695 27.903998 
L 226.619695 27.963775 
L 225.619695 28.000966 
L 224.619695 28.040062 
L 223.619695 28.082502 
L 222.619695 28.115267 
L 221.619695 28.182694 
L 220.619695 28.221819 
L 219.619695 28.264494 
L 218.619695 28.335075 
L 217.619695 28.371465 
L 216.619695 28.429869 
L 215.619695 28.540821 
L 214.619695 28.61148 
L 213.619695 28.724419 
L 212.619695 28.770192 
L 211.619695 28.831475 
L 210.619695 28.879975 
L 209.619695 28.960797 
L 208.619695 29.079316 
L 207.619695 29.149527 
L 206.619695 29.23279 
L 205.619695 29.265931 
L 204.619695 29.317169 
L 203.619695 29.385567 
L 202.619695 29.451782 
L 201.619695 29.528699 
L 200.299442 29.556015 
" clip-path="url(#pbace4b84df)" style="fill: none; stroke: #ff7f0e; stroke-opacity: 0.5; stroke-width: 0.2; stroke-linecap: square"/>
   <path d="M 256.619695 283.025795 
L 255.619695 282.994358 
L 254.619695 282.957418 
L 253.619695 282.859671 
L 252.619695 282.82715 
L 251.619695 282.753525 
L 250.619695 282.71496 
L 249.619695 282.679546 
L 248.619695 282.621906 
L 247.619695 282.55152 
L 246.619695 282.499556 
L 245.619695 282.440466 
L 244.619695 282.352145 
L 243.619695 282.306001 
L 242.619695 282.26359 
L 241.619695 282.233097 
L 240.619695 282.207052 
L 239.619695 282.185852 
L 238.619695 282.131551 
L 237.619695 282.103614 
L 236.619695 282.07389 
L 235.619695 282.048495 
L 234.619695 282.037295 
L 233.619695 282.027171 
L 232.619695 282.027375 
L 231.619695 282.036885 
L 230.619695 282.048538 
L 229.619695 282.079568 
L 228.619695 282.090736 
L 227.619695 282.120853 
L 226.619695 282.18063 
L 225.619695 282.217822 
L 224.619695 282.256918 
L 223.619695 282.299357 
L 222.619695 282.332122 
L 221.619695 282.399549 
L 220.619695 282.438675 
L 219.619695 282.481349 
L 218.619695 282.55193 
L 217.619695 282.588321 
L 216.619695 282.646724 
L 215.619695 282.757677 
L 214.619695 282.828335 
L 213.619695 282.941275 
L 212.619695 282.987048 
L 211.619695 283.048331 
L 210.619695 283.09683 
L 209.619695 283.177653 
L 208.619695 283.296172 
L 207.619695 283.366382 
L 206.619695 283.449645 
L 205.619695 283.482787 
L 204.619695 283.534024 
L 203.619695 283.602422 
L 202.619695 283.668638 
L 201.619695 283.745555 
L 200.299442 283.77287 
" clip-path="url(#pbace4b84df)" style="fill: none; stroke: #ff7f0e; stroke-opacity: 0.5; stroke-width: 0.2; stroke-linecap: square"/>
   <path d="M 256.619695 275.90583 
L 255.619695 275.874393 
L 254.619695 275.837453 
L 253.619695 275.739706 
L 252.619695 275.707185 
L 251.619695 275.63356 
L 250.619695 275.594994 
L 249.619695 275.559581 
L 248.619695 275.501941 
L 247.619695 275.431555 
L 246.619695 275.379591 
L 245.619695 275.320501 
L 244.619695 275.23218 
L 243.619695 275.186036 
L 242.619695 275.143625 
L 241.619695 275.113132 
L 240.619695 275.087087 
L 239.619695 275.065887 
L 238.619695 275.011586 
L 237.619695 274.983649 
L 236.619695 274.953925 
L 235.619695 274.92853 
L 234.619695 274.917329 
L 233.619695 274.907205 
L 232.619695 274.90741 
L 231.619695 274.91692 
L 230.619695 274.928573 
L 229.619695 274.959603 
L 228.619695 274.97077 
L 227.619695 275.000888 
L 226.619695 275.060665 
L 225.619695 275.097856 
L 224.619695 275.136953 
L 223.619695 275.179392 
L 222.619695 275.212157 
L 221.619695 275.279584 
L 220.619695 275.31871 
L 219.619695 275.361384 
L 218.619695 275.431965 
L 217.619695 275.468356 
L 216.619695 275.526759 
L 215.619695 275.637711 
L 214.619695 275.70837 
L 213.619695 275.82131 
L 212.619695 275.867082 
L 211.619695 275.928366 
L 210.619695 275.976865 
L 209.619695 276.057688 
L 208.619695 276.176207 
L 207.619695 276.246417 
L 206.619695 276.32968 
L 205.619695 276.362821 
L 204.619695 276.414059 
L 203.619695 276.482457 
L 202.619695 276.548673 
L 201.619695 276.62559 
L 200.299442 276.652905 
" clip-path="url(#pbace4b84df)" style="fill: none; stroke: #ff7f0e; stroke-opacity: 0.5; stroke-width: 0.2; stroke-linecap: square"/>
   <path d="M 256.619695 300.827637 
L 255.619695 300.7962 
L 254.619695 300.75926 
L 253.619695 300.661513 
L 252.619695 300.628992 
L 251.619695 300.555367 
L 250.619695 300.516801 
L 249.619695 300.481388 
L 248.619695 300.423748 
L 247.619695 300.353362 
L 246.619695 300.301398 
L 245.619695 300.242308 
L 244.619695 300.153987 
L 243.619695 300.107843 
L 242.619695 300.065432 
L 241.619695 300.034939 
L 240.619695 300.008894 
L 239.619695 299.987694 
L 238.619695 299.933393 
L 237.619695 299.905456 
L 236.619695 299.875732 
L 235.619695 299.850337 
L 234.619695 299.839136 
L 233.619695 299.829012 
L 232.619695 299.829217 
L 231.619695 299.838727 
L 230.619695 299.85038 
L 229.619695 299.881409 
L 228.619695 299.892577 
L 227.619695 299.922695 
L 226.619695 299.982472 
L 225.619695 300.019663 
L 224.619695 300.058759 
L 223.619695 300.101199 
L 222.619695 300.133964 
L 221.619695 300.201391 
L 220.619695 300.240517 
L 219.619695 300.283191 
L 218.619695 300.353772 
L 217.619695 300.390163 
L 216.619695 300.448566 
L 215.619695 300.559518 
L 214.619695 300.630177 
L 213.619695 300.743117 
L 212.619695 300.788889 
L 211.619695 300.850173 
L 210.619695 300.898672 
L 209.619695 300.979495 
L 208.619695 301.098014 
L 207.619695 301.168224 
L 206.619695 301.251487 
L 205.619695 301.284628 
L 204.619695 301.335866 
L 203.619695 301.404264 
L 202.619695 301.47048 
L 201.619695 301.547397 
L 200.299442 301.574712 
" clip-path="url(#pbace4b84df)" style="fill: none; stroke: #ff7f0e; stroke-opacity: 0.5; stroke-width: 0.2; stroke-linecap: square"/>
   <path d="M 256.619695 274.773939 
L 255.619695 274.742503 
L 254.619695 274.705562 
L 253.619695 274.607816 
L 252.619695 274.575294 
L 251.619695 274.501669 
L 250.619695 274.463104 
L 249.619695 274.427691 
L 248.619695 274.370051 
L 247.619695 274.299664 
L 246.619695 274.2477 
L 245.619695 274.18861 
L 244.619695 274.10029 
L 243.619695 274.054145 
L 242.619695 274.011734 
L 241.619695 273.981242 
L 240.619695 273.955197 
L 239.619695 273.933997 
L 238.619695 273.879695 
L 237.619695 273.851758 
L 236.619695 273.822034 
L 235.619695 273.796639 
L 234.619695 273.785439 
L 233.619695 273.775315 
L 232.619695 273.775519 
L 231.619695 273.785029 
L 230.619695 273.796683 
L 229.619695 273.827712 
L 228.619695 273.83888 
L 227.619695 273.868997 
L 226.619695 273.928774 
L 225.619695 273.965966 
L 224.619695 274.005062 
L 223.619695 274.047501 
L 222.619695 274.080267 
L 221.619695 274.147693 
L 220.619695 274.186819 
L 219.619695 274.229493 
L 218.619695 274.300074 
L 217.619695 274.336465 
L 216.619695 274.394868 
L 215.619695 274.505821 
L 214.619695 274.576479 
L 213.619695 274.689419 
L 212.619695 274.735192 
L 211.619695 274.796475 
L 210.619695 274.844974 
L 209.619695 274.925797 
L 208.619695 275.044316 
L 207.619695 275.114527 
L 206.619695 275.197789 
L 205.619695 275.230931 
L 204.619695 275.282168 
L 203.619695 275.350566 
L 202.619695 275.416782 
L 201.619695 275.493699 
L 200.299442 275.521014 
" clip-path="url(#pbace4b84df)" style="fill: none; stroke: #ff7f0e; stroke-opacity: 0.5; stroke-width: 0.2; stroke-linecap: square"/>
   <path d="M 256.619695 147.178872 
L 255.619695 147.147436 
L 254.619695 147.110496 
L 253.619695 147.012749 
L 252.619695 146.980227 
L 251.619695 146.906603 
L 250.619695 146.868037 
L 249.619695 146.832624 
L 248.619695 146.774984 
L 247.619695 146.704598 
L 246.619695 146.652634 
L 245.619695 146.593544 
L 244.619695 146.505223 
L 243.619695 146.459079 
L 242.619695 146.416668 
L 241.619695 146.386175 
L 240.619695 146.36013 
L 239.619695 146.33893 
L 238.619695 146.284629 
L 237.619695 146.256691 
L 236.619695 146.226967 
L 235.619695 146.201573 
L 234.619695 146.190372 
L 233.619695 146.180248 
L 232.619695 146.180453 
L 231.619695 146.189962 
L 230.619695 146.201616 
L 229.619695 146.232645 
L 228.619695 146.243813 
L 227.619695 146.273931 
L 226.619695 146.333708 
L 225.619695 146.370899 
L 224.619695 146.409995 
L 223.619695 146.452435 
L 222.619695 146.4852 
L 221.619695 146.552626 
L 220.619695 146.591752 
L 219.619695 146.634427 
L 218.619695 146.705007 
L 217.619695 146.741398 
L 216.619695 146.799802 
L 215.619695 146.910754 
L 214.619695 146.981412 
L 213.619695 147.094352 
L 212.619695 147.140125 
L 211.619695 147.201408 
L 210.619695 147.249908 
L 209.619695 147.33073 
L 208.619695 147.449249 
L 207.619695 147.51946 
L 206.619695 147.602722 
L 205.619695 147.635864 
L 204.619695 147.687102 
L 203.619695 147.7555 
L 202.619695 147.821715 
L 201.619695 147.898632 
L 200.299442 147.925948 
" clip-path="url(#pbace4b84df)" style="fill: none; stroke: #ff7f0e; stroke-opacity: 0.5; stroke-width: 0.2; stroke-linecap: square"/>
   <path d="M 256.619695 279.182432 
L 255.619695 279.150995 
L 254.619695 279.114055 
L 253.619695 279.016309 
L 252.619695 278.983787 
L 251.619695 278.910162 
L 250.619695 278.871597 
L 249.619695 278.836184 
L 248.619695 278.778544 
L 247.619695 278.708157 
L 246.619695 278.656193 
L 245.619695 278.597103 
L 244.619695 278.508782 
L 243.619695 278.462638 
L 242.619695 278.420227 
L 241.619695 278.389735 
L 240.619695 278.36369 
L 239.619695 278.34249 
L 238.619695 278.288188 
L 237.619695 278.260251 
L 236.619695 278.230527 
L 235.619695 278.205132 
L 234.619695 278.193932 
L 233.619695 278.183808 
L 232.619695 278.184012 
L 231.619695 278.193522 
L 230.619695 278.205176 
L 229.619695 278.236205 
L 228.619695 278.247373 
L 227.619695 278.27749 
L 226.619695 278.337267 
L 225.619695 278.374459 
L 224.619695 278.413555 
L 223.619695 278.455994 
L 222.619695 278.48876 
L 221.619695 278.556186 
L 220.619695 278.595312 
L 219.619695 278.637986 
L 218.619695 278.708567 
L 217.619695 278.744958 
L 216.619695 278.803361 
L 215.619695 278.914314 
L 214.619695 278.984972 
L 213.619695 279.097912 
L 212.619695 279.143685 
L 211.619695 279.204968 
L 210.619695 279.253467 
L 209.619695 279.33429 
L 208.619695 279.452809 
L 207.619695 279.52302 
L 206.619695 279.606282 
L 205.619695 279.639424 
L 204.619695 279.690661 
L 203.619695 279.759059 
L 202.619695 279.825275 
L 201.619695 279.902192 
L 200.299442 279.929507 
" clip-path="url(#pbace4b84df)" style="fill: none; stroke: #ff7f0e; stroke-opacity: 0.5; stroke-width: 0.2; stroke-linecap: square"/>
   <path d="M 256.619695 127.904472 
L 255.619695 127.873036 
L 254.619695 127.836095 
L 253.619695 127.738349 
L 252.619695 127.705827 
L 251.619695 127.632202 
L 250.619695 127.593637 
L 249.619695 127.558224 
L 248.619695 127.500584 
L 247.619695 127.430198 
L 246.619695 127.378233 
L 245.619695 127.319144 
L 244.619695 127.230823 
L 243.619695 127.184678 
L 242.619695 127.142267 
L 241.619695 127.111775 
L 240.619695 127.08573 
L 239.619695 127.06453 
L 238.619695 127.010229 
L 237.619695 126.982291 
L 236.619695 126.952567 
L 235.619695 126.927172 
L 234.619695 126.915972 
L 233.619695 126.905848 
L 232.619695 126.906052 
L 231.619695 126.915562 
L 230.619695 126.927216 
L 229.619695 126.958245 
L 228.619695 126.969413 
L 227.619695 126.99953 
L 226.619695 127.059307 
L 225.619695 127.096499 
L 224.619695 127.135595 
L 223.619695 127.178035 
L 222.619695 127.2108 
L 221.619695 127.278226 
L 220.619695 127.317352 
L 219.619695 127.360027 
L 218.619695 127.430607 
L 217.619695 127.466998 
L 216.619695 127.525401 
L 215.619695 127.636354 
L 214.619695 127.707012 
L 213.619695 127.819952 
L 212.619695 127.865725 
L 211.619695 127.927008 
L 210.619695 127.975507 
L 209.619695 128.05633 
L 208.619695 128.174849 
L 207.619695 128.24506 
L 206.619695 128.328322 
L 205.619695 128.361464 
L 204.619695 128.412701 
L 203.619695 128.4811 
L 202.619695 128.547315 
L 201.619695 128.624232 
L 200.299442 128.651548 
" clip-path="url(#pbace4b84df)" style="fill: none; stroke: #ff7f0e; stroke-opacity: 0.5; stroke-width: 0.2; stroke-linecap: square"/>
   <path d="M 256.619695 144.063929 
L 255.619695 144.032492 
L 254.619695 143.995552 
L 253.619695 143.897806 
L 252.619695 143.865284 
L 251.619695 143.791659 
L 250.619695 143.753094 
L 249.619695 143.717681 
L 248.619695 143.660041 
L 247.619695 143.589654 
L 246.619695 143.53769 
L 245.619695 143.4786 
L 244.619695 143.390279 
L 243.619695 143.344135 
L 242.619695 143.301724 
L 241.619695 143.271232 
L 240.619695 143.245187 
L 239.619695 143.223987 
L 238.619695 143.169685 
L 237.619695 143.141748 
L 236.619695 143.112024 
L 235.619695 143.086629 
L 234.619695 143.075429 
L 233.619695 143.065305 
L 232.619695 143.065509 
L 231.619695 143.075019 
L 230.619695 143.086672 
L 229.619695 143.117702 
L 228.619695 143.12887 
L 227.619695 143.158987 
L 226.619695 143.218764 
L 225.619695 143.255956 
L 224.619695 143.295052 
L 223.619695 143.337491 
L 222.619695 143.370257 
L 221.619695 143.437683 
L 220.619695 143.476809 
L 219.619695 143.519483 
L 218.619695 143.590064 
L 217.619695 143.626455 
L 216.619695 143.684858 
L 215.619695 143.795811 
L 214.619695 143.866469 
L 213.619695 143.979409 
L 212.619695 144.025182 
L 211.619695 144.086465 
L 210.619695 144.134964 
L 209.619695 144.215787 
L 208.619695 144.334306 
L 207.619695 144.404516 
L 206.619695 144.487779 
L 205.619695 144.520921 
L 204.619695 144.572158 
L 203.619695 144.640556 
L 202.619695 144.706772 
L 201.619695 144.783689 
L 200.299442 144.811004 
" clip-path="url(#pbace4b84df)" style="fill: none; stroke: #ff7f0e; stroke-opacity: 0.5; stroke-width: 0.2; stroke-linecap: square"/>
   <path d="M 390.34593 225.419238 
L 391.34593 225.450675 
L 392.34593 225.487615 
L 393.34593 225.585362 
L 394.34593 225.617883 
L 395.34593 225.691508 
L 396.34593 225.730074 
L 397.34593 225.765487 
L 398.34593 225.823127 
L 399.34593 225.893513 
L 400.34593 225.945477 
L 401.34593 226.004567 
L 402.34593 226.092888 
L 403.34593 226.139032 
L 404.34593 226.181443 
L 405.34593 226.211936 
L 406.34593 226.237981 
L 407.34593 226.259181 
L 408.34593 226.313482 
L 409.34593 226.341419 
L 410.34593 226.371143 
L 411.34593 226.396538 
L 412.34593 226.407739 
L 413.34593 226.417863 
L 414.34593 226.417658 
L 415.34593 226.408148 
L 416.34593 226.396495 
L 417.34593 226.365466 
L 418.34593 226.354298 
L 419.34593 226.32418 
L 420.34593 226.264403 
L 421.34593 226.227212 
L 422.34593 226.188116 
L 423.34593 226.145676 
L 424.34593 226.112911 
L 425.34593 226.045484 
L 426.34593 226.006358 
L 427.34593 225.963684 
L 428.34593 225.893103 
L 429.34593 225.856712 
L 430.34593 225.798309 
L 431.34593 225.687357 
L 432.34593 225.616698 
L 433.34593 225.503759 
L 434.34593 225.457986 
L 435.34593 225.396702 
L 436.34593 225.348203 
L 437.34593 225.26738 
L 438.34593 225.148861 
L 439.34593 225.078651 
L 440.34593 224.995388 
L 441.34593 224.962247 
L 442.34593 224.911009 
L 443.34593 224.842611 
L 444.34593 224.776395 
L 445.34593 224.699478 
L 446.666183 224.672163 
" clip-path="url(#pbace4b84df)" style="fill: none; stroke: #ff7f0e; stroke-opacity: 0.5; stroke-width: 0.2; stroke-linecap: square"/>
   <path d="M 390.34593 192.681432 
L 391.34593 192.712869 
L 392.34593 192.749809 
L 393.34593 192.847555 
L 394.34593 192.880077 
L 395.34593 192.953702 
L 396.34593 192.992267 
L 397.34593 193.02768 
L 398.34593 193.08532 
L 399.34593 193.155707 
L 400.34593 193.207671 
L 401.34593 193.266761 
L 402.34593 193.355082 
L 403.34593 193.401226 
L 404.34593 193.443637 
L 405.34593 193.474129 
L 406.34593 193.500174 
L 407.34593 193.521374 
L 408.34593 193.575676 
L 409.34593 193.603613 
L 410.34593 193.633337 
L 411.34593 193.658732 
L 412.34593 193.669932 
L 413.34593 193.680056 
L 414.34593 193.679852 
L 415.34593 193.670342 
L 416.34593 193.658689 
L 417.34593 193.627659 
L 418.34593 193.616491 
L 419.34593 193.586374 
L 420.34593 193.526597 
L 421.34593 193.489405 
L 422.34593 193.450309 
L 423.34593 193.40787 
L 424.34593 193.375104 
L 425.34593 193.307678 
L 426.34593 193.268552 
L 427.34593 193.225878 
L 428.34593 193.155297 
L 429.34593 193.118906 
L 430.34593 193.060503 
L 431.34593 192.94955 
L 432.34593 192.878892 
L 433.34593 192.765952 
L 434.34593 192.720179 
L 435.34593 192.658896 
L 436.34593 192.610397 
L 437.34593 192.529574 
L 438.34593 192.411055 
L 439.34593 192.340845 
L 440.34593 192.257582 
L 441.34593 192.22444 
L 442.34593 192.173203 
L 443.34593 192.104805 
L 444.34593 192.038589 
L 445.34593 191.961672 
L 446.666183 191.934357 
" clip-path="url(#pbace4b84df)" style="fill: none; stroke: #ff7f0e; stroke-opacity: 0.5; stroke-width: 0.2; stroke-linecap: square"/>
   <path d="M 390.34593 235.168563 
L 391.34593 235.199999 
L 392.34593 235.236939 
L 393.34593 235.334686 
L 394.34593 235.367208 
L 395.34593 235.440832 
L 396.34593 235.479398 
L 397.34593 235.514811 
L 398.34593 235.572451 
L 399.34593 235.642837 
L 400.34593 235.694801 
L 401.34593 235.753891 
L 402.34593 235.842212 
L 403.34593 235.888356 
L 404.34593 235.930767 
L 405.34593 235.96126 
L 406.34593 235.987305 
L 407.34593 236.008505 
L 408.34593 236.062806 
L 409.34593 236.090744 
L 410.34593 236.120468 
L 411.34593 236.145862 
L 412.34593 236.157063 
L 413.34593 236.167187 
L 414.34593 236.166982 
L 415.34593 236.157473 
L 416.34593 236.145819 
L 417.34593 236.11479 
L 418.34593 236.103622 
L 419.34593 236.073504 
L 420.34593 236.013727 
L 421.34593 235.976536 
L 422.34593 235.93744 
L 423.34593 235.895 
L 424.34593 235.862235 
L 425.34593 235.794809 
L 426.34593 235.755683 
L 427.34593 235.713008 
L 428.34593 235.642427 
L 429.34593 235.606037 
L 430.34593 235.547633 
L 431.34593 235.436681 
L 432.34593 235.366023 
L 433.34593 235.253083 
L 434.34593 235.20731 
L 435.34593 235.146027 
L 436.34593 235.097527 
L 437.34593 235.016705 
L 438.34593 234.898186 
L 439.34593 234.827975 
L 440.34593 234.744713 
L 441.34593 234.711571 
L 442.34593 234.660333 
L 443.34593 234.591935 
L 444.34593 234.52572 
L 445.34593 234.448803 
L 446.666183 234.421487 
" clip-path="url(#pbace4b84df)" style="fill: none; stroke: #ff7f0e; stroke-opacity: 0.5; stroke-width: 0.2; stroke-linecap: square"/>
   <path d="M 390.34593 176.590986 
L 391.34593 176.622423 
L 392.34593 176.659363 
L 393.34593 176.75711 
L 394.34593 176.789631 
L 395.34593 176.863256 
L 396.34593 176.901821 
L 397.34593 176.937235 
L 398.34593 176.994874 
L 399.34593 177.065261 
L 400.34593 177.117225 
L 401.34593 177.176315 
L 402.34593 177.264636 
L 403.34593 177.31078 
L 404.34593 177.353191 
L 405.34593 177.383684 
L 406.34593 177.409728 
L 407.34593 177.430929 
L 408.34593 177.48523 
L 409.34593 177.513167 
L 410.34593 177.542891 
L 411.34593 177.568286 
L 412.34593 177.579486 
L 413.34593 177.58961 
L 414.34593 177.589406 
L 415.34593 177.579896 
L 416.34593 177.568243 
L 417.34593 177.537213 
L 418.34593 177.526045 
L 419.34593 177.495928 
L 420.34593 177.436151 
L 421.34593 177.398959 
L 422.34593 177.359863 
L 423.34593 177.317424 
L 424.34593 177.284659 
L 425.34593 177.217232 
L 426.34593 177.178106 
L 427.34593 177.135432 
L 428.34593 177.064851 
L 429.34593 177.02846 
L 430.34593 176.970057 
L 431.34593 176.859104 
L 432.34593 176.788446 
L 433.34593 176.675506 
L 434.34593 176.629733 
L 435.34593 176.56845 
L 436.34593 176.519951 
L 437.34593 176.439128 
L 438.34593 176.320609 
L 439.34593 176.250399 
L 440.34593 176.167136 
L 441.34593 176.133994 
L 442.34593 176.082757 
L 443.34593 176.014359 
L 444.34593 175.948143 
L 445.34593 175.871226 
L 446.666183 175.843911 
" clip-path="url(#pbace4b84df)" style="fill: none; stroke: #ff7f0e; stroke-opacity: 0.5; stroke-width: 0.2; stroke-linecap: square"/>
   <path d="M 390.34593 135.583101 
L 391.34593 135.614538 
L 392.34593 135.651478 
L 393.34593 135.749225 
L 394.34593 135.781746 
L 395.34593 135.855371 
L 396.34593 135.893936 
L 397.34593 135.92935 
L 398.34593 135.98699 
L 399.34593 136.057376 
L 400.34593 136.10934 
L 401.34593 136.16843 
L 402.34593 136.256751 
L 403.34593 136.302895 
L 404.34593 136.345306 
L 405.34593 136.375799 
L 406.34593 136.401844 
L 407.34593 136.423044 
L 408.34593 136.477345 
L 409.34593 136.505282 
L 410.34593 136.535006 
L 411.34593 136.560401 
L 412.34593 136.571601 
L 413.34593 136.581725 
L 414.34593 136.581521 
L 415.34593 136.572011 
L 416.34593 136.560358 
L 417.34593 136.529328 
L 418.34593 136.51816 
L 419.34593 136.488043 
L 420.34593 136.428266 
L 421.34593 136.391074 
L 422.34593 136.351978 
L 423.34593 136.309539 
L 424.34593 136.276774 
L 425.34593 136.209347 
L 426.34593 136.170221 
L 427.34593 136.127547 
L 428.34593 136.056966 
L 429.34593 136.020575 
L 430.34593 135.962172 
L 431.34593 135.851219 
L 432.34593 135.780561 
L 433.34593 135.667621 
L 434.34593 135.621848 
L 435.34593 135.560565 
L 436.34593 135.512066 
L 437.34593 135.431243 
L 438.34593 135.312724 
L 439.34593 135.242514 
L 440.34593 135.159251 
L 441.34593 135.126109 
L 442.34593 135.074872 
L 443.34593 135.006474 
L 444.34593 134.940258 
L 445.34593 134.863341 
L 446.666183 134.836026 
" clip-path="url(#pbace4b84df)" style="fill: none; stroke: #ff7f0e; stroke-opacity: 0.5; stroke-width: 0.2; stroke-linecap: square"/>
   <path d="M 390.34593 211.378758 
L 391.34593 211.410194 
L 392.34593 211.447135 
L 393.34593 211.544881 
L 394.34593 211.577403 
L 395.34593 211.651027 
L 396.34593 211.689593 
L 397.34593 211.725006 
L 398.34593 211.782646 
L 399.34593 211.853032 
L 400.34593 211.904996 
L 401.34593 211.964086 
L 402.34593 212.052407 
L 403.34593 212.098551 
L 404.34593 212.140962 
L 405.34593 212.171455 
L 406.34593 212.1975 
L 407.34593 212.2187 
L 408.34593 212.273001 
L 409.34593 212.300939 
L 410.34593 212.330663 
L 411.34593 212.356058 
L 412.34593 212.367258 
L 413.34593 212.377382 
L 414.34593 212.377178 
L 415.34593 212.367668 
L 416.34593 212.356014 
L 417.34593 212.324985 
L 418.34593 212.313817 
L 419.34593 212.283699 
L 420.34593 212.223922 
L 421.34593 212.186731 
L 422.34593 212.147635 
L 423.34593 212.105195 
L 424.34593 212.07243 
L 425.34593 212.005004 
L 426.34593 211.965878 
L 427.34593 211.923203 
L 428.34593 211.852623 
L 429.34593 211.816232 
L 430.34593 211.757829 
L 431.34593 211.646876 
L 432.34593 211.576218 
L 433.34593 211.463278 
L 434.34593 211.417505 
L 435.34593 211.356222 
L 436.34593 211.307722 
L 437.34593 211.2269 
L 438.34593 211.108381 
L 439.34593 211.03817 
L 440.34593 210.954908 
L 441.34593 210.921766 
L 442.34593 210.870529 
L 443.34593 210.80213 
L 444.34593 210.735915 
L 445.34593 210.658998 
L 446.666183 210.631682 
" clip-path="url(#pbace4b84df)" style="fill: none; stroke: #ff7f0e; stroke-opacity: 0.5; stroke-width: 0.2; stroke-linecap: square"/>
   <path d="M 390.34593 86.114196 
L 391.34593 86.145633 
L 392.34593 86.182573 
L 393.34593 86.28032 
L 394.34593 86.312841 
L 395.34593 86.386466 
L 396.34593 86.425032 
L 397.34593 86.460445 
L 398.34593 86.518085 
L 399.34593 86.588471 
L 400.34593 86.640435 
L 401.34593 86.699525 
L 402.34593 86.787846 
L 403.34593 86.83399 
L 404.34593 86.876401 
L 405.34593 86.906894 
L 406.34593 86.932939 
L 407.34593 86.954139 
L 408.34593 87.00844 
L 409.34593 87.036377 
L 410.34593 87.066101 
L 411.34593 87.091496 
L 412.34593 87.102697 
L 413.34593 87.112821 
L 414.34593 87.112616 
L 415.34593 87.103106 
L 416.34593 87.091453 
L 417.34593 87.060424 
L 418.34593 87.049256 
L 419.34593 87.019138 
L 420.34593 86.959361 
L 421.34593 86.92217 
L 422.34593 86.883074 
L 423.34593 86.840634 
L 424.34593 86.807869 
L 425.34593 86.740442 
L 426.34593 86.701316 
L 427.34593 86.658642 
L 428.34593 86.588061 
L 429.34593 86.55167 
L 430.34593 86.493267 
L 431.34593 86.382315 
L 432.34593 86.311656 
L 433.34593 86.198716 
L 434.34593 86.152944 
L 435.34593 86.09166 
L 436.34593 86.043161 
L 437.34593 85.962338 
L 438.34593 85.843819 
L 439.34593 85.773609 
L 440.34593 85.690346 
L 441.34593 85.657205 
L 442.34593 85.605967 
L 443.34593 85.537569 
L 444.34593 85.471353 
L 445.34593 85.394436 
L 446.666183 85.367121 
" clip-path="url(#pbace4b84df)" style="fill: none; stroke: #ff7f0e; stroke-opacity: 0.5; stroke-width: 0.2; stroke-linecap: square"/>
   <path d="M 390.34593 295.655848 
L 391.34593 295.687284 
L 392.34593 295.724224 
L 393.34593 295.821971 
L 394.34593 295.854492 
L 395.34593 295.928117 
L 396.34593 295.966683 
L 397.34593 296.002096 
L 398.34593 296.059736 
L 399.34593 296.130122 
L 400.34593 296.182086 
L 401.34593 296.241176 
L 402.34593 296.329497 
L 403.34593 296.375641 
L 404.34593 296.418052 
L 405.34593 296.448545 
L 406.34593 296.47459 
L 407.34593 296.49579 
L 408.34593 296.550091 
L 409.34593 296.578029 
L 410.34593 296.607753 
L 411.34593 296.633147 
L 412.34593 296.644348 
L 413.34593 296.654472 
L 414.34593 296.654267 
L 415.34593 296.644757 
L 416.34593 296.633104 
L 417.34593 296.602075 
L 418.34593 296.590907 
L 419.34593 296.560789 
L 420.34593 296.501012 
L 421.34593 296.463821 
L 422.34593 296.424725 
L 423.34593 296.382285 
L 424.34593 296.34952 
L 425.34593 296.282093 
L 426.34593 296.242968 
L 427.34593 296.200293 
L 428.34593 296.129712 
L 429.34593 296.093322 
L 430.34593 296.034918 
L 431.34593 295.923966 
L 432.34593 295.853307 
L 433.34593 295.740368 
L 434.34593 295.694595 
L 435.34593 295.633311 
L 436.34593 295.584812 
L 437.34593 295.503989 
L 438.34593 295.385471 
L 439.34593 295.31526 
L 440.34593 295.231997 
L 441.34593 295.198856 
L 442.34593 295.147618 
L 443.34593 295.07922 
L 444.34593 295.013005 
L 445.34593 294.936088 
L 446.666183 294.908772 
" clip-path="url(#pbace4b84df)" style="fill: none; stroke: #ff7f0e; stroke-opacity: 0.5; stroke-width: 0.2; stroke-linecap: square"/>
   <path d="M 390.34593 267.538895 
L 391.34593 267.570332 
L 392.34593 267.607272 
L 393.34593 267.705018 
L 394.34593 267.73754 
L 395.34593 267.811165 
L 396.34593 267.84973 
L 397.34593 267.885144 
L 398.34593 267.942783 
L 399.34593 268.01317 
L 400.34593 268.065134 
L 401.34593 268.124224 
L 402.34593 268.212545 
L 403.34593 268.258689 
L 404.34593 268.3011 
L 405.34593 268.331592 
L 406.34593 268.357637 
L 407.34593 268.378838 
L 408.34593 268.433139 
L 409.34593 268.461076 
L 410.34593 268.4908 
L 411.34593 268.516195 
L 412.34593 268.527395 
L 413.34593 268.537519 
L 414.34593 268.537315 
L 415.34593 268.527805 
L 416.34593 268.516152 
L 417.34593 268.485122 
L 418.34593 268.473954 
L 419.34593 268.443837 
L 420.34593 268.38406 
L 421.34593 268.346868 
L 422.34593 268.307772 
L 423.34593 268.265333 
L 424.34593 268.232568 
L 425.34593 268.165141 
L 426.34593 268.126015 
L 427.34593 268.083341 
L 428.34593 268.01276 
L 429.34593 267.976369 
L 430.34593 267.917966 
L 431.34593 267.807013 
L 432.34593 267.736355 
L 433.34593 267.623415 
L 434.34593 267.577642 
L 435.34593 267.516359 
L 436.34593 267.46786 
L 437.34593 267.387037 
L 438.34593 267.268518 
L 439.34593 267.198308 
L 440.34593 267.115045 
L 441.34593 267.081903 
L 442.34593 267.030666 
L 443.34593 266.962268 
L 444.34593 266.896052 
L 445.34593 266.819135 
L 446.666183 266.79182 
" clip-path="url(#pbace4b84df)" style="fill: none; stroke: #ff7f0e; stroke-opacity: 0.5; stroke-width: 0.2; stroke-linecap: square"/>
   <path d="M 390.34593 131.076135 
L 391.34593 131.107571 
L 392.34593 131.144512 
L 393.34593 131.242258 
L 394.34593 131.27478 
L 395.34593 131.348405 
L 396.34593 131.38697 
L 397.34593 131.422383 
L 398.34593 131.480023 
L 399.34593 131.550409 
L 400.34593 131.602374 
L 401.34593 131.661463 
L 402.34593 131.749784 
L 403.34593 131.795929 
L 404.34593 131.83834 
L 405.34593 131.868832 
L 406.34593 131.894877 
L 407.34593 131.916077 
L 408.34593 131.970378 
L 409.34593 131.998316 
L 410.34593 132.02804 
L 411.34593 132.053435 
L 412.34593 132.064635 
L 413.34593 132.074759 
L 414.34593 132.074555 
L 415.34593 132.065045 
L 416.34593 132.053391 
L 417.34593 132.022362 
L 418.34593 132.011194 
L 419.34593 131.981077 
L 420.34593 131.9213 
L 421.34593 131.884108 
L 422.34593 131.845012 
L 423.34593 131.802572 
L 424.34593 131.769807 
L 425.34593 131.702381 
L 426.34593 131.663255 
L 427.34593 131.62058 
L 428.34593 131.55 
L 429.34593 131.513609 
L 430.34593 131.455206 
L 431.34593 131.344253 
L 432.34593 131.273595 
L 433.34593 131.160655 
L 434.34593 131.114882 
L 435.34593 131.053599 
L 436.34593 131.0051 
L 437.34593 130.924277 
L 438.34593 130.805758 
L 439.34593 130.735547 
L 440.34593 130.652285 
L 441.34593 130.619143 
L 442.34593 130.567906 
L 443.34593 130.499507 
L 444.34593 130.433292 
L 445.34593 130.356375 
L 446.666183 130.329059 
" clip-path="url(#pbace4b84df)" style="fill: none; stroke: #ff7f0e; stroke-opacity: 0.5; stroke-width: 0.2; stroke-linecap: square"/>
   <path d="M 446.666183 59.678003 
L 445.666183 59.646567 
L 444.666183 59.609627 
L 443.666183 59.51188 
L 442.666183 59.479358 
L 441.666183 59.405734 
L 440.666183 59.367168 
L 439.666183 59.331755 
L 438.666183 59.274115 
L 437.666183 59.203729 
L 436.666183 59.151765 
L 435.666183 59.092675 
L 434.666183 59.004354 
L 433.666183 58.95821 
L 432.666183 58.915799 
L 431.666183 58.885306 
L 430.666183 58.859261 
L 429.666183 58.838061 
L 428.666183 58.78376 
L 427.666183 58.755822 
L 426.666183 58.726098 
L 425.666183 58.700704 
L 424.666183 58.689503 
L 423.666183 58.679379 
L 422.666183 58.679584 
L 421.666183 58.689093 
L 420.666183 58.700747 
L 419.666183 58.731776 
L 418.666183 58.742944 
L 417.666183 58.773062 
L 416.666183 58.832839 
L 415.666183 58.87003 
L 414.666183 58.909126 
L 413.666183 58.951566 
L 412.666183 58.984331 
L 411.666183 59.051757 
L 410.666183 59.090883 
L 409.666183 59.133558 
L 408.666183 59.204139 
L 407.666183 59.240529 
L 406.666183 59.298933 
L 405.666183 59.409885 
L 404.666183 59.480543 
L 403.666183 59.593483 
L 402.666183 59.639256 
L 401.666183 59.700539 
L 400.666183 59.749039 
L 399.666183 59.829861 
L 398.666183 59.94838 
L 397.666183 60.018591 
L 396.666183 60.101853 
L 395.666183 60.134995 
L 394.666183 60.186233 
L 393.666183 60.254631 
L 392.666183 60.320846 
L 391.666183 60.397763 
L 390.34593 60.425079 
" clip-path="url(#pbace4b84df)" style="fill: none; stroke: #2ca02c; stroke-opacity: 0.5; stroke-width: 0.2; stroke-linecap: square"/>
   <path d="M 446.666183 235.807212 
L 445.666183 235.775776 
L 444.666183 235.738835 
L 443.666183 235.641089 
L 442.666183 235.608567 
L 441.666183 235.534942 
L 440.666183 235.496377 
L 439.666183 235.460964 
L 438.666183 235.403324 
L 437.666183 235.332938 
L 436.666183 235.280973 
L 435.666183 235.221884 
L 434.666183 235.133563 
L 433.666183 235.087418 
L 432.666183 235.045007 
L 431.666183 235.014515 
L 430.666183 234.98847 
L 429.666183 234.96727 
L 428.666183 234.912969 
L 427.666183 234.885031 
L 426.666183 234.855307 
L 425.666183 234.829912 
L 424.666183 234.818712 
L 423.666183 234.808588 
L 422.666183 234.808792 
L 421.666183 234.818302 
L 420.666183 234.829956 
L 419.666183 234.860985 
L 418.666183 234.872153 
L 417.666183 234.90227 
L 416.666183 234.962047 
L 415.666183 234.999239 
L 414.666183 235.038335 
L 413.666183 235.080775 
L 412.666183 235.11354 
L 411.666183 235.180966 
L 410.666183 235.220092 
L 409.666183 235.262767 
L 408.666183 235.333347 
L 407.666183 235.369738 
L 406.666183 235.428141 
L 405.666183 235.539094 
L 404.666183 235.609752 
L 403.666183 235.722692 
L 402.666183 235.768465 
L 401.666183 235.829748 
L 400.666183 235.878247 
L 399.666183 235.95907 
L 398.666183 236.077589 
L 397.666183 236.1478 
L 396.666183 236.231062 
L 395.666183 236.264204 
L 394.666183 236.315441 
L 393.666183 236.38384 
L 392.666183 236.450055 
L 391.666183 236.526972 
L 390.34593 236.554288 
" clip-path="url(#pbace4b84df)" style="fill: none; stroke: #2ca02c; stroke-opacity: 0.5; stroke-width: 0.2; stroke-linecap: square"/>
   <path d="M 446.666183 45.805703 
L 445.666183 45.774266 
L 444.666183 45.737326 
L 443.666183 45.63958 
L 442.666183 45.607058 
L 441.666183 45.533433 
L 440.666183 45.494868 
L 439.666183 45.459455 
L 438.666183 45.401815 
L 437.666183 45.331428 
L 436.666183 45.279464 
L 435.666183 45.220374 
L 434.666183 45.132053 
L 433.666183 45.085909 
L 432.666183 45.043498 
L 431.666183 45.013006 
L 430.666183 44.986961 
L 429.666183 44.965761 
L 428.666183 44.911459 
L 427.666183 44.883522 
L 426.666183 44.853798 
L 425.666183 44.828403 
L 424.666183 44.817203 
L 423.666183 44.807079 
L 422.666183 44.807283 
L 421.666183 44.816793 
L 420.666183 44.828447 
L 419.666183 44.859476 
L 418.666183 44.870644 
L 417.666183 44.900761 
L 416.666183 44.960538 
L 415.666183 44.99773 
L 414.666183 45.036826 
L 413.666183 45.079265 
L 412.666183 45.112031 
L 411.666183 45.179457 
L 410.666183 45.218583 
L 409.666183 45.261257 
L 408.666183 45.331838 
L 407.666183 45.368229 
L 406.666183 45.426632 
L 405.666183 45.537585 
L 404.666183 45.608243 
L 403.666183 45.721183 
L 402.666183 45.766956 
L 401.666183 45.828239 
L 400.666183 45.876738 
L 399.666183 45.957561 
L 398.666183 46.07608 
L 397.666183 46.146291 
L 396.666183 46.229553 
L 395.666183 46.262695 
L 394.666183 46.313932 
L 393.666183 46.38233 
L 392.666183 46.448546 
L 391.666183 46.525463 
L 390.34593 46.552778 
" clip-path="url(#pbace4b84df)" style="fill: none; stroke: #2ca02c; stroke-opacity: 0.5; stroke-width: 0.2; stroke-linecap: square"/>
   <path d="M 446.666183 153.356803 
L 445.666183 153.325367 
L 444.666183 153.288426 
L 443.666183 153.19068 
L 442.666183 153.158158 
L 441.666183 153.084533 
L 440.666183 153.045968 
L 439.666183 153.010555 
L 438.666183 152.952915 
L 437.666183 152.882529 
L 436.666183 152.830564 
L 435.666183 152.771475 
L 434.666183 152.683154 
L 433.666183 152.637009 
L 432.666183 152.594598 
L 431.666183 152.564106 
L 430.666183 152.538061 
L 429.666183 152.516861 
L 428.666183 152.46256 
L 427.666183 152.434622 
L 426.666183 152.404898 
L 425.666183 152.379503 
L 424.666183 152.368303 
L 423.666183 152.358179 
L 422.666183 152.358383 
L 421.666183 152.367893 
L 420.666183 152.379547 
L 419.666183 152.410576 
L 418.666183 152.421744 
L 417.666183 152.451861 
L 416.666183 152.511638 
L 415.666183 152.54883 
L 414.666183 152.587926 
L 413.666183 152.630366 
L 412.666183 152.663131 
L 411.666183 152.730557 
L 410.666183 152.769683 
L 409.666183 152.812358 
L 408.666183 152.882938 
L 407.666183 152.919329 
L 406.666183 152.977732 
L 405.666183 153.088685 
L 404.666183 153.159343 
L 403.666183 153.272283 
L 402.666183 153.318056 
L 401.666183 153.379339 
L 400.666183 153.427838 
L 399.666183 153.508661 
L 398.666183 153.62718 
L 397.666183 153.697391 
L 396.666183 153.780653 
L 395.666183 153.813795 
L 394.666183 153.865032 
L 393.666183 153.933431 
L 392.666183 153.999646 
L 391.666183 154.076563 
L 390.34593 154.103879 
" clip-path="url(#pbace4b84df)" style="fill: none; stroke: #2ca02c; stroke-opacity: 0.5; stroke-width: 0.2; stroke-linecap: square"/>
   <path d="M 446.666183 242.181659 
L 445.666183 242.150222 
L 444.666183 242.113282 
L 443.666183 242.015535 
L 442.666183 241.983014 
L 441.666183 241.909389 
L 440.666183 241.870824 
L 439.666183 241.83541 
L 438.666183 241.77777 
L 437.666183 241.707384 
L 436.666183 241.65542 
L 435.666183 241.59633 
L 434.666183 241.508009 
L 433.666183 241.461865 
L 432.666183 241.419454 
L 431.666183 241.388961 
L 430.666183 241.362916 
L 429.666183 241.341716 
L 428.666183 241.287415 
L 427.666183 241.259478 
L 426.666183 241.229754 
L 425.666183 241.204359 
L 424.666183 241.193159 
L 423.666183 241.183035 
L 422.666183 241.183239 
L 421.666183 241.192749 
L 420.666183 241.204402 
L 419.666183 241.235432 
L 418.666183 241.2466 
L 417.666183 241.276717 
L 416.666183 241.336494 
L 415.666183 241.373686 
L 414.666183 241.412782 
L 413.666183 241.455221 
L 412.666183 241.487986 
L 411.666183 241.555413 
L 410.666183 241.594539 
L 409.666183 241.637213 
L 408.666183 241.707794 
L 407.666183 241.744185 
L 406.666183 241.802588 
L 405.666183 241.913541 
L 404.666183 241.984199 
L 403.666183 242.097139 
L 402.666183 242.142912 
L 401.666183 242.204195 
L 400.666183 242.252694 
L 399.666183 242.333517 
L 398.666183 242.452036 
L 397.666183 242.522246 
L 396.666183 242.605509 
L 395.666183 242.638651 
L 394.666183 242.689888 
L 393.666183 242.758286 
L 392.666183 242.824502 
L 391.666183 242.901419 
L 390.34593 242.928734 
" clip-path="url(#pbace4b84df)" style="fill: none; stroke: #2ca02c; stroke-opacity: 0.5; stroke-width: 0.2; stroke-linecap: square"/>
   <path d="M 446.666183 73.216027 
L 445.666183 73.184591 
L 444.666183 73.14765 
L 443.666183 73.049904 
L 442.666183 73.017382 
L 441.666183 72.943757 
L 440.666183 72.905192 
L 439.666183 72.869779 
L 438.666183 72.812139 
L 437.666183 72.741753 
L 436.666183 72.689788 
L 435.666183 72.630699 
L 434.666183 72.542378 
L 433.666183 72.496233 
L 432.666183 72.453822 
L 431.666183 72.42333 
L 430.666183 72.397285 
L 429.666183 72.376085 
L 428.666183 72.321784 
L 427.666183 72.293846 
L 426.666183 72.264122 
L 425.666183 72.238727 
L 424.666183 72.227527 
L 423.666183 72.217403 
L 422.666183 72.217607 
L 421.666183 72.227117 
L 420.666183 72.238771 
L 419.666183 72.2698 
L 418.666183 72.280968 
L 417.666183 72.311085 
L 416.666183 72.370862 
L 415.666183 72.408054 
L 414.666183 72.44715 
L 413.666183 72.48959 
L 412.666183 72.522355 
L 411.666183 72.589781 
L 410.666183 72.628907 
L 409.666183 72.671582 
L 408.666183 72.742162 
L 407.666183 72.778553 
L 406.666183 72.836956 
L 405.666183 72.947909 
L 404.666183 73.018567 
L 403.666183 73.131507 
L 402.666183 73.17728 
L 401.666183 73.238563 
L 400.666183 73.287062 
L 399.666183 73.367885 
L 398.666183 73.486404 
L 397.666183 73.556615 
L 396.666183 73.639877 
L 395.666183 73.673019 
L 394.666183 73.724256 
L 393.666183 73.792655 
L 392.666183 73.85887 
L 391.666183 73.935787 
L 390.34593 73.963103 
" clip-path="url(#pbace4b84df)" style="fill: none; stroke: #2ca02c; stroke-opacity: 0.5; stroke-width: 0.2; stroke-linecap: square"/>
   <path d="M 446.666183 197.593912 
L 445.666183 197.562475 
L 444.666183 197.525535 
L 443.666183 197.427788 
L 442.666183 197.395267 
L 441.666183 197.321642 
L 440.666183 197.283077 
L 439.666183 197.247663 
L 438.666183 197.190024 
L 437.666183 197.119637 
L 436.666183 197.067673 
L 435.666183 197.008583 
L 434.666183 196.920262 
L 433.666183 196.874118 
L 432.666183 196.831707 
L 431.666183 196.801214 
L 430.666183 196.77517 
L 429.666183 196.753969 
L 428.666183 196.699668 
L 427.666183 196.671731 
L 426.666183 196.642007 
L 425.666183 196.616612 
L 424.666183 196.605412 
L 423.666183 196.595288 
L 422.666183 196.595492 
L 421.666183 196.605002 
L 420.666183 196.616655 
L 419.666183 196.647685 
L 418.666183 196.658853 
L 417.666183 196.68897 
L 416.666183 196.748747 
L 415.666183 196.785939 
L 414.666183 196.825035 
L 413.666183 196.867474 
L 412.666183 196.900239 
L 411.666183 196.967666 
L 410.666183 197.006792 
L 409.666183 197.049466 
L 408.666183 197.120047 
L 407.666183 197.156438 
L 406.666183 197.214841 
L 405.666183 197.325794 
L 404.666183 197.396452 
L 403.666183 197.509392 
L 402.666183 197.555165 
L 401.666183 197.616448 
L 400.666183 197.664947 
L 399.666183 197.74577 
L 398.666183 197.864289 
L 397.666183 197.934499 
L 396.666183 198.017762 
L 395.666183 198.050904 
L 394.666183 198.102141 
L 393.666183 198.170539 
L 392.666183 198.236755 
L 391.666183 198.313672 
L 390.34593 198.340987 
" clip-path="url(#pbace4b84df)" style="fill: none; stroke: #2ca02c; stroke-opacity: 0.5; stroke-width: 0.2; stroke-linecap: square"/>
   <path d="M 446.666183 114.580618 
L 445.666183 114.549182 
L 444.666183 114.512242 
L 443.666183 114.414495 
L 442.666183 114.381973 
L 441.666183 114.308349 
L 440.666183 114.269783 
L 439.666183 114.23437 
L 438.666183 114.17673 
L 437.666183 114.106344 
L 436.666183 114.05438 
L 435.666183 113.99529 
L 434.666183 113.906969 
L 433.666183 113.860825 
L 432.666183 113.818414 
L 431.666183 113.787921 
L 430.666183 113.761876 
L 429.666183 113.740676 
L 428.666183 113.686375 
L 427.666183 113.658437 
L 426.666183 113.628713 
L 425.666183 113.603319 
L 424.666183 113.592118 
L 423.666183 113.581994 
L 422.666183 113.582199 
L 421.666183 113.591708 
L 420.666183 113.603362 
L 419.666183 113.634391 
L 418.666183 113.645559 
L 417.666183 113.675677 
L 416.666183 113.735454 
L 415.666183 113.772645 
L 414.666183 113.811741 
L 413.666183 113.854181 
L 412.666183 113.886946 
L 411.666183 113.954372 
L 410.666183 113.993498 
L 409.666183 114.036173 
L 408.666183 114.106753 
L 407.666183 114.143144 
L 406.666183 114.201548 
L 405.666183 114.3125 
L 404.666183 114.383158 
L 403.666183 114.496098 
L 402.666183 114.541871 
L 401.666183 114.603154 
L 400.666183 114.651654 
L 399.666183 114.732476 
L 398.666183 114.850995 
L 397.666183 114.921206 
L 396.666183 115.004468 
L 395.666183 115.03761 
L 394.666183 115.088847 
L 393.666183 115.157246 
L 392.666183 115.223461 
L 391.666183 115.300378 
L 390.34593 115.327694 
" clip-path="url(#pbace4b84df)" style="fill: none; stroke: #2ca02c; stroke-opacity: 0.5; stroke-width: 0.2; stroke-linecap: square"/>
   <path d="M 446.666183 75.770722 
L 445.666183 75.739286 
L 444.666183 75.702346 
L 443.666183 75.604599 
L 442.666183 75.572077 
L 441.666183 75.498453 
L 440.666183 75.459887 
L 439.666183 75.424474 
L 438.666183 75.366834 
L 437.666183 75.296448 
L 436.666183 75.244484 
L 435.666183 75.185394 
L 434.666183 75.097073 
L 433.666183 75.050929 
L 432.666183 75.008518 
L 431.666183 74.978025 
L 430.666183 74.95198 
L 429.666183 74.93078 
L 428.666183 74.876479 
L 427.666183 74.848541 
L 426.666183 74.818817 
L 425.666183 74.793423 
L 424.666183 74.782222 
L 423.666183 74.772098 
L 422.666183 74.772302 
L 421.666183 74.781812 
L 420.666183 74.793466 
L 419.666183 74.824495 
L 418.666183 74.835663 
L 417.666183 74.865781 
L 416.666183 74.925558 
L 415.666183 74.962749 
L 414.666183 75.001845 
L 413.666183 75.044285 
L 412.666183 75.07705 
L 411.666183 75.144476 
L 410.666183 75.183602 
L 409.666183 75.226277 
L 408.666183 75.296857 
L 407.666183 75.333248 
L 406.666183 75.391652 
L 405.666183 75.502604 
L 404.666183 75.573262 
L 403.666183 75.686202 
L 402.666183 75.731975 
L 401.666183 75.793258 
L 400.666183 75.841758 
L 399.666183 75.92258 
L 398.666183 76.041099 
L 397.666183 76.11131 
L 396.666183 76.194572 
L 395.666183 76.227714 
L 394.666183 76.278951 
L 393.666183 76.34735 
L 392.666183 76.413565 
L 391.666183 76.490482 
L 390.34593 76.517798 
" clip-path="url(#pbace4b84df)" style="fill: none; stroke: #2ca02c; stroke-opacity: 0.5; stroke-width: 0.2; stroke-linecap: square"/>
   <path d="M 446.666183 282.862149 
L 445.666183 282.830713 
L 444.666183 282.793772 
L 443.666183 282.696026 
L 442.666183 282.663504 
L 441.666183 282.58988 
L 440.666183 282.551314 
L 439.666183 282.515901 
L 438.666183 282.458261 
L 437.666183 282.387875 
L 436.666183 282.335911 
L 435.666183 282.276821 
L 434.666183 282.1885 
L 433.666183 282.142355 
L 432.666183 282.099945 
L 431.666183 282.069452 
L 430.666183 282.043407 
L 429.666183 282.022207 
L 428.666183 281.967906 
L 427.666183 281.939968 
L 426.666183 281.910244 
L 425.666183 281.884849 
L 424.666183 281.873649 
L 423.666183 281.863525 
L 422.666183 281.863729 
L 421.666183 281.873239 
L 420.666183 281.884893 
L 419.666183 281.915922 
L 418.666183 281.92709 
L 417.666183 281.957208 
L 416.666183 282.016984 
L 415.666183 282.054176 
L 414.666183 282.093272 
L 413.666183 282.135712 
L 412.666183 282.168477 
L 411.666183 282.235903 
L 410.666183 282.275029 
L 409.666183 282.317704 
L 408.666183 282.388284 
L 407.666183 282.424675 
L 406.666183 282.483078 
L 405.666183 282.594031 
L 404.666183 282.664689 
L 403.666183 282.777629 
L 402.666183 282.823402 
L 401.666183 282.884685 
L 400.666183 282.933185 
L 399.666183 283.014007 
L 398.666183 283.132526 
L 397.666183 283.202737 
L 396.666183 283.285999 
L 395.666183 283.319141 
L 394.666183 283.370378 
L 393.666183 283.438777 
L 392.666183 283.504992 
L 391.666183 283.581909 
L 390.34593 283.609225 
" clip-path="url(#pbace4b84df)" style="fill: none; stroke: #2ca02c; stroke-opacity: 0.5; stroke-width: 0.2; stroke-linecap: square"/>
   <g id="patch_3">
    <path d="M 72.103551 22.318125 
L 72.103551 318.021875 
M 194.769098 22.318125 
L 194.769098 318.021875 
" clip-path="url(#pbace4b84df)" style="fill: none; stroke: #ffffff; stroke-width: 3; stroke-linejoin: miter"/>
    <path d="M 72.103551 22.318125 
L 72.103551 318.021875 
M 194.769098 22.318125 
L 194.769098 318.021875 
" clip-path="url(#pbace4b84df)" style="fill: none; stroke: #1f77b4; stroke-linejoin: miter"/>
    <g id="PolyCollection_1">
     <path d="M 194.769098 22.318125 
L 72.103551 22.318125 
L 72.103551 318.021875 
L 194.769098 318.021875 
L 194.769098 318.021875 
L 194.769098 22.318125 
z
" clip-path="url(#pbace4b84df)" style="fill: #1f77b4; fill-opacity: 0.5"/>
    </g>
    <g id="patch_4">
     <path d="M 262.150039 22.318125 
L 262.150039 318.021875 
M 384.815586 22.318125 
L 384.815586 318.021875 
" clip-path="url(#pbace4b84df)" style="fill: none; stroke: #ffffff; stroke-width: 3; stroke-linejoin: miter"/>
     <path d="M 262.150039 22.318125 
L 262.150039 318.021875 
M 384.815586 22.318125 
L 384.815586 318.021875 
" clip-path="url(#pbace4b84df)" style="fill: none; stroke: #ff7f0e; stroke-linejoin: miter"/>
     <g id="PolyCollection_2">
      <path d="M 384.815586 22.318125 
L 262.150039 22.318125 
L 262.150039 318.021875 
L 384.815586 318.021875 
L 384.815586 318.021875 
L 384.815586 22.318125 
z
" clip-path="url(#pbace4b84df)" style="fill: #ff7f0e; fill-opacity: 0.5"/>
     </g>
     <g id="patch_5">
      <path d="M 452.196527 22.318125 
L 452.196527 318.021875 
M 574.862074 22.318125 
L 574.862074 318.021875 
" clip-path="url(#pbace4b84df)" style="fill: none; stroke: #ffffff; stroke-width: 3; stroke-linejoin: miter"/>
      <path d="M 452.196527 22.318125 
L 452.196527 318.021875 
M 574.862074 22.318125 
L 574.862074 318.021875 
" clip-path="url(#pbace4b84df)" style="fill: none; stroke: #2ca02c; stroke-linejoin: miter"/>
      <g id="PolyCollection_3">
       <path d="M 574.862074 22.318125 
L 452.196527 22.318125 
L 452.196527 318.021875 
L 574.862074 318.021875 
L 574.862074 318.021875 
L 574.862074 22.318125 
z
" clip-path="url(#pbace4b84df)" style="fill: #2ca02c; fill-opacity: 0.5"/>
      </g>
      <g id="matplotlib.axis_1">
       <g id="xtick_1">
        <g id="line2d_1"/>
        <g id="text_1">
         <!-- deme1 -->
         <g transform="translate(116.057418 329.120312) scale(0.1 -0.1)">
          <defs>
           <path id="DejaVuSans-64" d="M 2906 2969 
L 2906 4863 
L 3481 4863 
L 3481 0 
L 2906 0 
L 2906 525 
Q 2725 213 2448 61 
Q 2172 -91 1784 -91 
Q 1150 -91 751 415 
Q 353 922 353 1747 
Q 353 2572 751 3078 
Q 1150 3584 1784 3584 
Q 2172 3584 2448 3432 
Q 2725 3281 2906 2969 
z
M 947 1747 
Q 947 1113 1208 752 
Q 1469 391 1925 391 
Q 2381 391 2643 752 
Q 2906 1113 2906 1747 
Q 2906 2381 2643 2742 
Q 2381 3103 1925 3103 
Q 1469 3103 1208 2742 
Q 947 2381 947 1747 
z
" transform="scale(0.015625)"/>
           <path id="DejaVuSans-65" d="M 3597 1894 
L 3597 1613 
L 953 1613 
Q 991 1019 1311 708 
Q 1631 397 2203 397 
Q 2534 397 2845 478 
Q 3156 559 3463 722 
L 3463 178 
Q 3153 47 2828 -22 
Q 2503 -91 2169 -91 
Q 1331 -91 842 396 
Q 353 884 353 1716 
Q 353 2575 817 3079 
Q 1281 3584 2069 3584 
Q 2775 3584 3186 3129 
Q 3597 2675 3597 1894 
z
M 3022 2063 
Q 3016 2534 2758 2815 
Q 2500 3097 2075 3097 
Q 1594 3097 1305 2825 
Q 1016 2553 972 2059 
L 3022 2063 
z
" transform="scale(0.015625)"/>
           <path id="DejaVuSans-6d" d="M 3328 2828 
Q 3544 3216 3844 3400 
Q 4144 3584 4550 3584 
Q 5097 3584 5394 3201 
Q 5691 2819 5691 2113 
L 5691 0 
L 5113 0 
L 5113 2094 
Q 5113 2597 4934 2840 
Q 4756 3084 4391 3084 
Q 3944 3084 3684 2787 
Q 3425 2491 3425 1978 
L 3425 0 
L 2847 0 
L 2847 2094 
Q 2847 2600 2669 2842 
Q 2491 3084 2119 3084 
Q 1678 3084 1418 2786 
Q 1159 2488 1159 1978 
L 1159 0 
L 581 0 
L 581 3500 
L 1159 3500 
L 1159 2956 
Q 1356 3278 1631 3431 
Q 1906 3584 2284 3584 
Q 2666 3584 2933 3390 
Q 3200 3197 3328 2828 
z
" transform="scale(0.015625)"/>
           <path id="DejaVuSans-31" d="M 794 531 
L 1825 531 
L 1825 4091 
L 703 3866 
L 703 4441 
L 1819 4666 
L 2450 4666 
L 2450 531 
L 3481 531 
L 3481 0 
L 794 0 
L 794 531 
z
" transform="scale(0.015625)"/>
          </defs>
          <use xlink:href="#DejaVuSans-64"/>
          <use xlink:href="#DejaVuSans-65" x="63.476562"/>
          <use xlink:href="#DejaVuSans-6d" x="125"/>
          <use xlink:href="#DejaVuSans-65" x="222.412109"/>
          <use xlink:href="#DejaVuSans-31" x="283.935547"/>
         </g>
        </g>
       </g>
       <g id="xtick_2">
        <g id="line2d_2"/>
        <g id="text_2">
         <!-- deme2 -->
         <g transform="translate(306.103906 329.120312) scale(0.1 -0.1)">
          <defs>
           <path id="DejaVuSans-32" d="M 1228 531 
L 3431 531 
L 3431 0 
L 469 0 
L 469 531 
Q 828 903 1448 1529 
Q 2069 2156 2228 2338 
Q 2531 2678 2651 2914 
Q 2772 3150 2772 3378 
Q 2772 3750 2511 3984 
Q 2250 4219 1831 4219 
Q 1534 4219 1204 4116 
Q 875 4013 500 3803 
L 500 4441 
Q 881 4594 1212 4672 
Q 1544 4750 1819 4750 
Q 2544 4750 2975 4387 
Q 3406 4025 3406 3419 
Q 3406 3131 3298 2873 
Q 3191 2616 2906 2266 
Q 2828 2175 2409 1742 
Q 1991 1309 1228 531 
z
" transform="scale(0.015625)"/>
          </defs>
          <use xlink:href="#DejaVuSans-64"/>
          <use xlink:href="#DejaVuSans-65" x="63.476562"/>
          <use xlink:href="#DejaVuSans-6d" x="125"/>
          <use xlink:href="#DejaVuSans-65" x="222.412109"/>
          <use xlink:href="#DejaVuSans-32" x="283.935547"/>
         </g>
        </g>
       </g>
       <g id="xtick_3">
        <g id="line2d_3"/>
        <g id="text_3">
         <!-- deme3 -->
         <g transform="translate(496.150394 329.120312) scale(0.1 -0.1)">
          <defs>
           <path id="DejaVuSans-33" d="M 2597 2516 
Q 3050 2419 3304 2112 
Q 3559 1806 3559 1356 
Q 3559 666 3084 287 
Q 2609 -91 1734 -91 
Q 1441 -91 1130 -33 
Q 819 25 488 141 
L 488 750 
Q 750 597 1062 519 
Q 1375 441 1716 441 
Q 2309 441 2620 675 
Q 2931 909 2931 1356 
Q 2931 1769 2642 2001 
Q 2353 2234 1838 2234 
L 1294 2234 
L 1294 2753 
L 1863 2753 
Q 2328 2753 2575 2939 
Q 2822 3125 2822 3475 
Q 2822 3834 2567 4026 
Q 2313 4219 1838 4219 
Q 1578 4219 1281 4162 
Q 984 4106 628 3988 
L 628 4550 
Q 988 4650 1302 4700 
Q 1616 4750 1894 4750 
Q 2613 4750 3031 4423 
Q 3450 4097 3450 3541 
Q 3450 3153 3228 2886 
Q 3006 2619 2597 2516 
z
" transform="scale(0.015625)"/>
          </defs>
          <use xlink:href="#DejaVuSans-64"/>
          <use xlink:href="#DejaVuSans-65" x="63.476562"/>
          <use xlink:href="#DejaVuSans-6d" x="125"/>
          <use xlink:href="#DejaVuSans-65" x="222.412109"/>
          <use xlink:href="#DejaVuSans-33" x="283.935547"/>
         </g>
        </g>
       </g>
      </g>
      <g id="matplotlib.axis_2">
       <g id="ytick_1">
        <g id="line2d_4">
         <defs>
          <path id="m3e4ca44f9a" d="M 0 0 
L -3.5 0 
" style="stroke: #000000; stroke-width: 0.8"/>
         </defs>
         <g>
          <use xlink:href="#m3e4ca44f9a" x="46.965625" y="318.021875" style="stroke: #000000; stroke-width: 0.8"/>
         </g>
        </g>
        <g id="text_4">
         <!-- 0 -->
         <g transform="translate(33.603125 321.821094) scale(0.1 -0.1)">
          <defs>
           <path id="DejaVuSans-30" d="M 2034 4250 
Q 1547 4250 1301 3770 
Q 1056 3291 1056 2328 
Q 1056 1369 1301 889 
Q 1547 409 2034 409 
Q 2525 409 2770 889 
Q 3016 1369 3016 2328 
Q 3016 3291 2770 3770 
Q 2525 4250 2034 4250 
z
M 2034 4750 
Q 2819 4750 3233 4129 
Q 3647 3509 3647 2328 
Q 3647 1150 3233 529 
Q 2819 -91 2034 -91 
Q 1250 -91 836 529 
Q 422 1150 422 2328 
Q 422 3509 836 4129 
Q 1250 4750 2034 4750 
z
" transform="scale(0.015625)"/>
          </defs>
          <use xlink:href="#DejaVuSans-30"/>
         </g>
        </g>
       </g>
       <g id="ytick_2">
        <g id="line2d_5">
         <g>
          <use xlink:href="#m3e4ca44f9a" x="46.965625" y="265.684928" style="stroke: #000000; stroke-width: 0.8"/>
         </g>
        </g>
        <g id="text_5">
         <!-- 20 -->
         <g transform="translate(27.240625 269.484147) scale(0.1 -0.1)">
          <use xlink:href="#DejaVuSans-32"/>
          <use xlink:href="#DejaVuSans-30" x="63.623047"/>
         </g>
        </g>
       </g>
       <g id="ytick_3">
        <g id="line2d_6">
         <g>
          <use xlink:href="#m3e4ca44f9a" x="46.965625" y="213.347981" style="stroke: #000000; stroke-width: 0.8"/>
         </g>
        </g>
        <g id="text_6">
         <!-- 40 -->
         <g transform="translate(27.240625 217.1472) scale(0.1 -0.1)">
          <defs>
           <path id="DejaVuSans-34" d="M 2419 4116 
L 825 1625 
L 2419 1625 
L 2419 4116 
z
M 2253 4666 
L 3047 4666 
L 3047 1625 
L 3713 1625 
L 3713 1100 
L 3047 1100 
L 3047 0 
L 2419 0 
L 2419 1100 
L 313 1100 
L 313 1709 
L 2253 4666 
z
" transform="scale(0.015625)"/>
          </defs>
          <use xlink:href="#DejaVuSans-34"/>
          <use xlink:href="#DejaVuSans-30" x="63.623047"/>
         </g>
        </g>
       </g>
       <g id="ytick_4">
        <g id="line2d_7">
         <g>
          <use xlink:href="#m3e4ca44f9a" x="46.965625" y="161.011034" style="stroke: #000000; stroke-width: 0.8"/>
         </g>
        </g>
        <g id="text_7">
         <!-- 60 -->
         <g transform="translate(27.240625 164.810253) scale(0.1 -0.1)">
          <defs>
           <path id="DejaVuSans-36" d="M 2113 2584 
Q 1688 2584 1439 2293 
Q 1191 2003 1191 1497 
Q 1191 994 1439 701 
Q 1688 409 2113 409 
Q 2538 409 2786 701 
Q 3034 994 3034 1497 
Q 3034 2003 2786 2293 
Q 2538 2584 2113 2584 
z
M 3366 4563 
L 3366 3988 
Q 3128 4100 2886 4159 
Q 2644 4219 2406 4219 
Q 1781 4219 1451 3797 
Q 1122 3375 1075 2522 
Q 1259 2794 1537 2939 
Q 1816 3084 2150 3084 
Q 2853 3084 3261 2657 
Q 3669 2231 3669 1497 
Q 3669 778 3244 343 
Q 2819 -91 2113 -91 
Q 1303 -91 875 529 
Q 447 1150 447 2328 
Q 447 3434 972 4092 
Q 1497 4750 2381 4750 
Q 2619 4750 2861 4703 
Q 3103 4656 3366 4563 
z
" transform="scale(0.015625)"/>
          </defs>
          <use xlink:href="#DejaVuSans-36"/>
          <use xlink:href="#DejaVuSans-30" x="63.623047"/>
         </g>
        </g>
       </g>
       <g id="ytick_5">
        <g id="line2d_8">
         <g>
          <use xlink:href="#m3e4ca44f9a" x="46.965625" y="108.674087" style="stroke: #000000; stroke-width: 0.8"/>
         </g>
        </g>
        <g id="text_8">
         <!-- 80 -->
         <g transform="translate(27.240625 112.473306) scale(0.1 -0.1)">
          <defs>
           <path id="DejaVuSans-38" d="M 2034 2216 
Q 1584 2216 1326 1975 
Q 1069 1734 1069 1313 
Q 1069 891 1326 650 
Q 1584 409 2034 409 
Q 2484 409 2743 651 
Q 3003 894 3003 1313 
Q 3003 1734 2745 1975 
Q 2488 2216 2034 2216 
z
M 1403 2484 
Q 997 2584 770 2862 
Q 544 3141 544 3541 
Q 544 4100 942 4425 
Q 1341 4750 2034 4750 
Q 2731 4750 3128 4425 
Q 3525 4100 3525 3541 
Q 3525 3141 3298 2862 
Q 3072 2584 2669 2484 
Q 3125 2378 3379 2068 
Q 3634 1759 3634 1313 
Q 3634 634 3220 271 
Q 2806 -91 2034 -91 
Q 1263 -91 848 271 
Q 434 634 434 1313 
Q 434 1759 690 2068 
Q 947 2378 1403 2484 
z
M 1172 3481 
Q 1172 3119 1398 2916 
Q 1625 2713 2034 2713 
Q 2441 2713 2670 2916 
Q 2900 3119 2900 3481 
Q 2900 3844 2670 4047 
Q 2441 4250 2034 4250 
Q 1625 4250 1398 4047 
Q 1172 3844 1172 3481 
z
" transform="scale(0.015625)"/>
          </defs>
          <use xlink:href="#DejaVuSans-38"/>
          <use xlink:href="#DejaVuSans-30" x="63.623047"/>
         </g>
        </g>
       </g>
       <g id="ytick_6">
        <g id="line2d_9">
         <g>
          <use xlink:href="#m3e4ca44f9a" x="46.965625" y="56.33714" style="stroke: #000000; stroke-width: 0.8"/>
         </g>
        </g>
        <g id="text_9">
         <!-- 100 -->
         <g transform="translate(20.878125 60.136359) scale(0.1 -0.1)">
          <use xlink:href="#DejaVuSans-31"/>
          <use xlink:href="#DejaVuSans-30" x="63.623047"/>
          <use xlink:href="#DejaVuSans-30" x="127.246094"/>
         </g>
        </g>
       </g>
       <g id="text_10">
        <!-- time ago (years) -->
        <g transform="translate(14.798437 211.603594) rotate(-90) scale(0.1 -0.1)">
         <defs>
          <path id="DejaVuSans-74" d="M 1172 4494 
L 1172 3500 
L 2356 3500 
L 2356 3053 
L 1172 3053 
L 1172 1153 
Q 1172 725 1289 603 
Q 1406 481 1766 481 
L 2356 481 
L 2356 0 
L 1766 0 
Q 1100 0 847 248 
Q 594 497 594 1153 
L 594 3053 
L 172 3053 
L 172 3500 
L 594 3500 
L 594 4494 
L 1172 4494 
z
" transform="scale(0.015625)"/>
          <path id="DejaVuSans-69" d="M 603 3500 
L 1178 3500 
L 1178 0 
L 603 0 
L 603 3500 
z
M 603 4863 
L 1178 4863 
L 1178 4134 
L 603 4134 
L 603 4863 
z
" transform="scale(0.015625)"/>
          <path id="DejaVuSans-20" transform="scale(0.015625)"/>
          <path id="DejaVuSans-61" d="M 2194 1759 
Q 1497 1759 1228 1600 
Q 959 1441 959 1056 
Q 959 750 1161 570 
Q 1363 391 1709 391 
Q 2188 391 2477 730 
Q 2766 1069 2766 1631 
L 2766 1759 
L 2194 1759 
z
M 3341 1997 
L 3341 0 
L 2766 0 
L 2766 531 
Q 2569 213 2275 61 
Q 1981 -91 1556 -91 
Q 1019 -91 701 211 
Q 384 513 384 1019 
Q 384 1609 779 1909 
Q 1175 2209 1959 2209 
L 2766 2209 
L 2766 2266 
Q 2766 2663 2505 2880 
Q 2244 3097 1772 3097 
Q 1472 3097 1187 3025 
Q 903 2953 641 2809 
L 641 3341 
Q 956 3463 1253 3523 
Q 1550 3584 1831 3584 
Q 2591 3584 2966 3190 
Q 3341 2797 3341 1997 
z
" transform="scale(0.015625)"/>
          <path id="DejaVuSans-67" d="M 2906 1791 
Q 2906 2416 2648 2759 
Q 2391 3103 1925 3103 
Q 1463 3103 1205 2759 
Q 947 2416 947 1791 
Q 947 1169 1205 825 
Q 1463 481 1925 481 
Q 2391 481 2648 825 
Q 2906 1169 2906 1791 
z
M 3481 434 
Q 3481 -459 3084 -895 
Q 2688 -1331 1869 -1331 
Q 1566 -1331 1297 -1286 
Q 1028 -1241 775 -1147 
L 775 -588 
Q 1028 -725 1275 -790 
Q 1522 -856 1778 -856 
Q 2344 -856 2625 -561 
Q 2906 -266 2906 331 
L 2906 616 
Q 2728 306 2450 153 
Q 2172 0 1784 0 
Q 1141 0 747 490 
Q 353 981 353 1791 
Q 353 2603 747 3093 
Q 1141 3584 1784 3584 
Q 2172 3584 2450 3431 
Q 2728 3278 2906 2969 
L 2906 3500 
L 3481 3500 
L 3481 434 
z
" transform="scale(0.015625)"/>
          <path id="DejaVuSans-6f" d="M 1959 3097 
Q 1497 3097 1228 2736 
Q 959 2375 959 1747 
Q 959 1119 1226 758 
Q 1494 397 1959 397 
Q 2419 397 2687 759 
Q 2956 1122 2956 1747 
Q 2956 2369 2687 2733 
Q 2419 3097 1959 3097 
z
M 1959 3584 
Q 2709 3584 3137 3096 
Q 3566 2609 3566 1747 
Q 3566 888 3137 398 
Q 2709 -91 1959 -91 
Q 1206 -91 779 398 
Q 353 888 353 1747 
Q 353 2609 779 3096 
Q 1206 3584 1959 3584 
z
" transform="scale(0.015625)"/>
          <path id="DejaVuSans-28" d="M 1984 4856 
Q 1566 4138 1362 3434 
Q 1159 2731 1159 2009 
Q 1159 1288 1364 580 
Q 1569 -128 1984 -844 
L 1484 -844 
Q 1016 -109 783 600 
Q 550 1309 550 2009 
Q 550 2706 781 3412 
Q 1013 4119 1484 4856 
L 1984 4856 
z
" transform="scale(0.015625)"/>
          <path id="DejaVuSans-79" d="M 2059 -325 
Q 1816 -950 1584 -1140 
Q 1353 -1331 966 -1331 
L 506 -1331 
L 506 -850 
L 844 -850 
Q 1081 -850 1212 -737 
Q 1344 -625 1503 -206 
L 1606 56 
L 191 3500 
L 800 3500 
L 1894 763 
L 2988 3500 
L 3597 3500 
L 2059 -325 
z
" transform="scale(0.015625)"/>
          <path id="DejaVuSans-72" d="M 2631 2963 
Q 2534 3019 2420 3045 
Q 2306 3072 2169 3072 
Q 1681 3072 1420 2755 
Q 1159 2438 1159 1844 
L 1159 0 
L 581 0 
L 581 3500 
L 1159 3500 
L 1159 2956 
Q 1341 3275 1631 3429 
Q 1922 3584 2338 3584 
Q 2397 3584 2469 3576 
Q 2541 3569 2628 3553 
L 2631 2963 
z
" transform="scale(0.015625)"/>
          <path id="DejaVuSans-73" d="M 2834 3397 
L 2834 2853 
Q 2591 2978 2328 3040 
Q 2066 3103 1784 3103 
Q 1356 3103 1142 2972 
Q 928 2841 928 2578 
Q 928 2378 1081 2264 
Q 1234 2150 1697 2047 
L 1894 2003 
Q 2506 1872 2764 1633 
Q 3022 1394 3022 966 
Q 3022 478 2636 193 
Q 2250 -91 1575 -91 
Q 1294 -91 989 -36 
Q 684 19 347 128 
L 347 722 
Q 666 556 975 473 
Q 1284 391 1588 391 
Q 1994 391 2212 530 
Q 2431 669 2431 922 
Q 2431 1156 2273 1281 
Q 2116 1406 1581 1522 
L 1381 1569 
Q 847 1681 609 1914 
Q 372 2147 372 2553 
Q 372 3047 722 3315 
Q 1072 3584 1716 3584 
Q 2034 3584 2315 3537 
Q 2597 3491 2834 3397 
z
" transform="scale(0.015625)"/>
          <path id="DejaVuSans-29" d="M 513 4856 
L 1013 4856 
Q 1481 4119 1714 3412 
Q 1947 2706 1947 2009 
Q 1947 1309 1714 600 
Q 1481 -109 1013 -844 
L 513 -844 
Q 928 -128 1133 580 
Q 1338 1288 1338 2009 
Q 1338 2731 1133 3434 
Q 928 4138 513 4856 
z
" transform="scale(0.015625)"/>
         </defs>
         <use xlink:href="#DejaVuSans-74"/>
         <use xlink:href="#DejaVuSans-69" x="39.208984"/>
         <use xlink:href="#DejaVuSans-6d" x="66.992188"/>
         <use xlink:href="#DejaVuSans-65" x="164.404297"/>
         <use xlink:href="#DejaVuSans-20" x="225.927734"/>
         <use xlink:href="#DejaVuSans-61" x="257.714844"/>
         <use xlink:href="#DejaVuSans-67" x="318.994141"/>
         <use xlink:href="#DejaVuSans-6f" x="382.470703"/>
         <use xlink:href="#DejaVuSans-20" x="443.652344"/>
         <use xlink:href="#DejaVuSans-28" x="475.439453"/>
         <use xlink:href="#DejaVuSans-79" x="514.453125"/>
         <use xlink:href="#DejaVuSans-65" x="573.632812"/>
         <use xlink:href="#DejaVuSans-61" x="635.15625"/>
         <use xlink:href="#DejaVuSans-72" x="696.435547"/>
         <use xlink:href="#DejaVuSans-73" x="737.548828"/>
         <use xlink:href="#DejaVuSans-29" x="789.648438"/>
        </g>
       </g>
      </g>
      <path d="M 257.619695 128.594646 
L 255.619695 127.594646 
L 255.619695 129.594646 
z
" clip-path="url(#pbace4b84df)" style="fill: #1f77b4; fill-opacity: 0.5; stroke: #1f77b4; stroke-opacity: 0.5; stroke-linejoin: miter"/>
      <path d="M 257.619695 304.381879 
L 255.619695 303.381879 
L 255.619695 305.381879 
z
" clip-path="url(#pbace4b84df)" style="fill: #1f77b4; fill-opacity: 0.5; stroke: #1f77b4; stroke-opacity: 0.5; stroke-linejoin: miter"/>
      <path d="M 257.619695 102.804746 
L 255.619695 101.804746 
L 255.619695 103.804746 
z
" clip-path="url(#pbace4b84df)" style="fill: #1f77b4; fill-opacity: 0.5; stroke: #1f77b4; stroke-opacity: 0.5; stroke-linejoin: miter"/>
      <path d="M 257.619695 316.499855 
L 255.619695 315.499855 
L 255.619695 317.499855 
z
" clip-path="url(#pbace4b84df)" style="fill: #1f77b4; fill-opacity: 0.5; stroke: #1f77b4; stroke-opacity: 0.5; stroke-linejoin: miter"/>
      <path d="M 257.619695 154.421302 
L 255.619695 153.421302 
L 255.619695 155.421302 
z
" clip-path="url(#pbace4b84df)" style="fill: #1f77b4; fill-opacity: 0.5; stroke: #1f77b4; stroke-opacity: 0.5; stroke-linejoin: miter"/>
      <path d="M 257.619695 156.180503 
L 255.619695 155.180503 
L 255.619695 157.180503 
z
" clip-path="url(#pbace4b84df)" style="fill: #1f77b4; fill-opacity: 0.5; stroke: #1f77b4; stroke-opacity: 0.5; stroke-linejoin: miter"/>
      <path d="M 257.619695 43.256 
L 255.619695 42.256 
L 255.619695 44.256 
z
" clip-path="url(#pbace4b84df)" style="fill: #1f77b4; fill-opacity: 0.5; stroke: #1f77b4; stroke-opacity: 0.5; stroke-linejoin: miter"/>
      <path d="M 257.619695 173.266017 
L 255.619695 172.266017 
L 255.619695 174.266017 
z
" clip-path="url(#pbace4b84df)" style="fill: #1f77b4; fill-opacity: 0.5; stroke: #1f77b4; stroke-opacity: 0.5; stroke-linejoin: miter"/>
      <path d="M 257.619695 116.033181 
L 255.619695 115.033181 
L 255.619695 117.033181 
z
" clip-path="url(#pbace4b84df)" style="fill: #1f77b4; fill-opacity: 0.5; stroke: #1f77b4; stroke-opacity: 0.5; stroke-linejoin: miter"/>
      <path d="M 257.619695 164.845822 
L 255.619695 163.845822 
L 255.619695 165.845822 
z
" clip-path="url(#pbace4b84df)" style="fill: #1f77b4; fill-opacity: 0.5; stroke: #1f77b4; stroke-opacity: 0.5; stroke-linejoin: miter"/>
      <path d="M 199.299442 116.732064 
L 201.299442 117.732064 
L 201.299442 115.732064 
z
" clip-path="url(#pbace4b84df)" style="fill: #ff7f0e; fill-opacity: 0.5; stroke: #ff7f0e; stroke-opacity: 0.5; stroke-linejoin: miter"/>
      <path d="M 199.299442 28.808939 
L 201.299442 29.808939 
L 201.299442 27.808939 
z
" clip-path="url(#pbace4b84df)" style="fill: #ff7f0e; fill-opacity: 0.5; stroke: #ff7f0e; stroke-opacity: 0.5; stroke-linejoin: miter"/>
      <path d="M 199.299442 283.025795 
L 201.299442 284.025795 
L 201.299442 282.025795 
z
" clip-path="url(#pbace4b84df)" style="fill: #ff7f0e; fill-opacity: 0.5; stroke: #ff7f0e; stroke-opacity: 0.5; stroke-linejoin: miter"/>
      <path d="M 199.299442 275.90583 
L 201.299442 276.90583 
L 201.299442 274.90583 
z
" clip-path="url(#pbace4b84df)" style="fill: #ff7f0e; fill-opacity: 0.5; stroke: #ff7f0e; stroke-opacity: 0.5; stroke-linejoin: miter"/>
      <path d="M 199.299442 300.827637 
L 201.299442 301.827637 
L 201.299442 299.827637 
z
" clip-path="url(#pbace4b84df)" style="fill: #ff7f0e; fill-opacity: 0.5; stroke: #ff7f0e; stroke-opacity: 0.5; stroke-linejoin: miter"/>
      <path d="M 199.299442 274.773939 
L 201.299442 275.773939 
L 201.299442 273.773939 
z
" clip-path="url(#pbace4b84df)" style="fill: #ff7f0e; fill-opacity: 0.5; stroke: #ff7f0e; stroke-opacity: 0.5; stroke-linejoin: miter"/>
      <path d="M 199.299442 147.178872 
L 201.299442 148.178872 
L 201.299442 146.178872 
z
" clip-path="url(#pbace4b84df)" style="fill: #ff7f0e; fill-opacity: 0.5; stroke: #ff7f0e; stroke-opacity: 0.5; stroke-linejoin: miter"/>
      <path d="M 199.299442 279.182432 
L 201.299442 280.182432 
L 201.299442 278.182432 
z
" clip-path="url(#pbace4b84df)" style="fill: #ff7f0e; fill-opacity: 0.5; stroke: #ff7f0e; stroke-opacity: 0.5; stroke-linejoin: miter"/>
      <path d="M 199.299442 127.904472 
L 201.299442 128.904472 
L 201.299442 126.904472 
z
" clip-path="url(#pbace4b84df)" style="fill: #ff7f0e; fill-opacity: 0.5; stroke: #ff7f0e; stroke-opacity: 0.5; stroke-linejoin: miter"/>
      <path d="M 199.299442 144.063929 
L 201.299442 145.063929 
L 201.299442 143.063929 
z
" clip-path="url(#pbace4b84df)" style="fill: #ff7f0e; fill-opacity: 0.5; stroke: #ff7f0e; stroke-opacity: 0.5; stroke-linejoin: miter"/>
      <path d="M 447.666183 225.419238 
L 445.666183 224.419238 
L 445.666183 226.419238 
z
" clip-path="url(#pbace4b84df)" style="fill: #ff7f0e; fill-opacity: 0.5; stroke: #ff7f0e; stroke-opacity: 0.5; stroke-linejoin: miter"/>
      <path d="M 447.666183 192.681432 
L 445.666183 191.681432 
L 445.666183 193.681432 
z
" clip-path="url(#pbace4b84df)" style="fill: #ff7f0e; fill-opacity: 0.5; stroke: #ff7f0e; stroke-opacity: 0.5; stroke-linejoin: miter"/>
      <path d="M 447.666183 235.168563 
L 445.666183 234.168563 
L 445.666183 236.168563 
z
" clip-path="url(#pbace4b84df)" style="fill: #ff7f0e; fill-opacity: 0.5; stroke: #ff7f0e; stroke-opacity: 0.5; stroke-linejoin: miter"/>
      <path d="M 447.666183 176.590986 
L 445.666183 175.590986 
L 445.666183 177.590986 
z
" clip-path="url(#pbace4b84df)" style="fill: #ff7f0e; fill-opacity: 0.5; stroke: #ff7f0e; stroke-opacity: 0.5; stroke-linejoin: miter"/>
      <path d="M 447.666183 135.583101 
L 445.666183 134.583101 
L 445.666183 136.583101 
z
" clip-path="url(#pbace4b84df)" style="fill: #ff7f0e; fill-opacity: 0.5; stroke: #ff7f0e; stroke-opacity: 0.5; stroke-linejoin: miter"/>
      <path d="M 447.666183 211.378758 
L 445.666183 210.378758 
L 445.666183 212.378758 
z
" clip-path="url(#pbace4b84df)" style="fill: #ff7f0e; fill-opacity: 0.5; stroke: #ff7f0e; stroke-opacity: 0.5; stroke-linejoin: miter"/>
      <path d="M 447.666183 86.114196 
L 445.666183 85.114196 
L 445.666183 87.114196 
z
" clip-path="url(#pbace4b84df)" style="fill: #ff7f0e; fill-opacity: 0.5; stroke: #ff7f0e; stroke-opacity: 0.5; stroke-linejoin: miter"/>
      <path d="M 447.666183 295.655848 
L 445.666183 294.655848 
L 445.666183 296.655848 
z
" clip-path="url(#pbace4b84df)" style="fill: #ff7f0e; fill-opacity: 0.5; stroke: #ff7f0e; stroke-opacity: 0.5; stroke-linejoin: miter"/>
      <path d="M 447.666183 267.538895 
L 445.666183 266.538895 
L 445.666183 268.538895 
z
" clip-path="url(#pbace4b84df)" style="fill: #ff7f0e; fill-opacity: 0.5; stroke: #ff7f0e; stroke-opacity: 0.5; stroke-linejoin: miter"/>
      <path d="M 447.666183 131.076135 
L 445.666183 130.076135 
L 445.666183 132.076135 
z
" clip-path="url(#pbace4b84df)" style="fill: #ff7f0e; fill-opacity: 0.5; stroke: #ff7f0e; stroke-opacity: 0.5; stroke-linejoin: miter"/>
      <path d="M 389.34593 59.678003 
L 391.34593 60.678003 
L 391.34593 58.678003 
z
" clip-path="url(#pbace4b84df)" style="fill: #2ca02c; fill-opacity: 0.5; stroke: #2ca02c; stroke-opacity: 0.5; stroke-linejoin: miter"/>
      <path d="M 389.34593 235.807212 
L 391.34593 236.807212 
L 391.34593 234.807212 
z
" clip-path="url(#pbace4b84df)" style="fill: #2ca02c; fill-opacity: 0.5; stroke: #2ca02c; stroke-opacity: 0.5; stroke-linejoin: miter"/>
      <path d="M 389.34593 45.805703 
L 391.34593 46.805703 
L 391.34593 44.805703 
z
" clip-path="url(#pbace4b84df)" style="fill: #2ca02c; fill-opacity: 0.5; stroke: #2ca02c; stroke-opacity: 0.5; stroke-linejoin: miter"/>
      <path d="M 389.34593 153.356803 
L 391.34593 154.356803 
L 391.34593 152.356803 
z
" clip-path="url(#pbace4b84df)" style="fill: #2ca02c; fill-opacity: 0.5; stroke: #2ca02c; stroke-opacity: 0.5; stroke-linejoin: miter"/>
      <path d="M 389.34593 242.181659 
L 391.34593 243.181659 
L 391.34593 241.181659 
z
" clip-path="url(#pbace4b84df)" style="fill: #2ca02c; fill-opacity: 0.5; stroke: #2ca02c; stroke-opacity: 0.5; stroke-linejoin: miter"/>
      <path d="M 389.34593 73.216027 
L 391.34593 74.216027 
L 391.34593 72.216027 
z
" clip-path="url(#pbace4b84df)" style="fill: #2ca02c; fill-opacity: 0.5; stroke: #2ca02c; stroke-opacity: 0.5; stroke-linejoin: miter"/>
      <path d="M 389.34593 197.593912 
L 391.34593 198.593912 
L 391.34593 196.593912 
z
" clip-path="url(#pbace4b84df)" style="fill: #2ca02c; fill-opacity: 0.5; stroke: #2ca02c; stroke-opacity: 0.5; stroke-linejoin: miter"/>
      <path d="M 389.34593 114.580618 
L 391.34593 115.580618 
L 391.34593 113.580618 
z
" clip-path="url(#pbace4b84df)" style="fill: #2ca02c; fill-opacity: 0.5; stroke: #2ca02c; stroke-opacity: 0.5; stroke-linejoin: miter"/>
      <path d="M 389.34593 75.770722 
L 391.34593 76.770722 
L 391.34593 74.770722 
z
" clip-path="url(#pbace4b84df)" style="fill: #2ca02c; fill-opacity: 0.5; stroke: #2ca02c; stroke-opacity: 0.5; stroke-linejoin: miter"/>
      <path d="M 389.34593 282.862149 
L 391.34593 283.862149 
L 391.34593 281.862149 
z
" clip-path="url(#pbace4b84df)" style="fill: #2ca02c; fill-opacity: 0.5; stroke: #2ca02c; stroke-opacity: 0.5; stroke-linejoin: miter"/>
      <g id="patch_6">
       <path d="M 46.965625 318.021875 
L 46.965625 22.318125 
" style="fill: none; stroke: #000000; stroke-width: 0.8; stroke-linejoin: miter; stroke-linecap: square"/>
      </g>
      <g id="text_11">
       <!-- stepping_stone_model.yaml -->
       <g transform="translate(239.443437 16.318125) scale(0.12 -0.12)">
        <defs>
         <path id="DejaVuSans-70" d="M 1159 525 
L 1159 -1331 
L 581 -1331 
L 581 3500 
L 1159 3500 
L 1159 2969 
Q 1341 3281 1617 3432 
Q 1894 3584 2278 3584 
Q 2916 3584 3314 3078 
Q 3713 2572 3713 1747 
Q 3713 922 3314 415 
Q 2916 -91 2278 -91 
Q 1894 -91 1617 61 
Q 1341 213 1159 525 
z
M 3116 1747 
Q 3116 2381 2855 2742 
Q 2594 3103 2138 3103 
Q 1681 3103 1420 2742 
Q 1159 2381 1159 1747 
Q 1159 1113 1420 752 
Q 1681 391 2138 391 
Q 2594 391 2855 752 
Q 3116 1113 3116 1747 
z
" transform="scale(0.015625)"/>
         <path id="DejaVuSans-6e" d="M 3513 2113 
L 3513 0 
L 2938 0 
L 2938 2094 
Q 2938 2591 2744 2837 
Q 2550 3084 2163 3084 
Q 1697 3084 1428 2787 
Q 1159 2491 1159 1978 
L 1159 0 
L 581 0 
L 581 3500 
L 1159 3500 
L 1159 2956 
Q 1366 3272 1645 3428 
Q 1925 3584 2291 3584 
Q 2894 3584 3203 3211 
Q 3513 2838 3513 2113 
z
" transform="scale(0.015625)"/>
         <path id="DejaVuSans-5f" d="M 3263 -1063 
L 3263 -1509 
L -63 -1509 
L -63 -1063 
L 3263 -1063 
z
" transform="scale(0.015625)"/>
         <path id="DejaVuSans-6c" d="M 603 4863 
L 1178 4863 
L 1178 0 
L 603 0 
L 603 4863 
z
" transform="scale(0.015625)"/>
         <path id="DejaVuSans-2e" d="M 684 794 
L 1344 794 
L 1344 0 
L 684 0 
L 684 794 
z
" transform="scale(0.015625)"/>
        </defs>
        <use xlink:href="#DejaVuSans-73"/>
        <use xlink:href="#DejaVuSans-74" x="52.099609"/>
        <use xlink:href="#DejaVuSans-65" x="91.308594"/>
        <use xlink:href="#DejaVuSans-70" x="152.832031"/>
        <use xlink:href="#DejaVuSans-70" x="216.308594"/>
        <use xlink:href="#DejaVuSans-69" x="279.785156"/>
        <use xlink:href="#DejaVuSans-6e" x="307.568359"/>
        <use xlink:href="#DejaVuSans-67" x="370.947266"/>
        <use xlink:href="#DejaVuSans-5f" x="434.423828"/>
        <use xlink:href="#DejaVuSans-73" x="484.423828"/>
        <use xlink:href="#DejaVuSans-74" x="536.523438"/>
        <use xlink:href="#DejaVuSans-6f" x="575.732422"/>
        <use xlink:href="#DejaVuSans-6e" x="636.914062"/>
        <use xlink:href="#DejaVuSans-65" x="700.292969"/>
        <use xlink:href="#DejaVuSans-5f" x="761.816406"/>
        <use xlink:href="#DejaVuSans-6d" x="811.816406"/>
        <use xlink:href="#DejaVuSans-6f" x="909.228516"/>
        <use xlink:href="#DejaVuSans-64" x="970.410156"/>
        <use xlink:href="#DejaVuSans-65" x="1033.886719"/>
        <use xlink:href="#DejaVuSans-6c" x="1095.410156"/>
        <use xlink:href="#DejaVuSans-2e" x="1123.193359"/>
        <use xlink:href="#DejaVuSans-79" x="1154.980469"/>
        <use xlink:href="#DejaVuSans-61" x="1214.160156"/>
        <use xlink:href="#DejaVuSans-6d" x="1275.439453"/>
        <use xlink:href="#DejaVuSans-6c" x="1372.851562"/>
       </g>
      </g>
     </g>
    </g>
    <defs>
     <clipPath id="pbace4b84df">
      <rect x="46.965625" y="22.318125" width="553.034375" height="295.70375"/>
     </clipPath>
    </defs>
   </g>
  </g>
 </g>
</svg>