<?xml version="1.0" encoding="utf-8" standalone="no"?>
<!DOCTYPE svg PUBLIC "-//W3C//DTD SVG 1.1//EN"
  "http://www.w3.org/Graphics/SVG/1.1/DTD/svg11.dtd">
<svg xmlns:xlink="http://www.w3.org/1999/xlink" width="607.2pt" height="338.4pt" viewBox="0 0 607.2 338.4" xmlns="http://www.w3.org/2000/svg" version="1.1">
 <metadata>
  <rdf:RDF xmlns:dc="http://purl.org/dc/elements/1.1/" xmlns:cc="http://creativecommons.org/ns#" xmlns:rdf="http://www.w3.org/1999/02/22-rdf-syntax-ns#">
   <cc:Work>
    <dc:type rdf:resource="http://purl.org/dc/dcmitype/StillImage"/>
    <dc:date>2025-10-04T09:07:45.197082</dc:date>
    <dc:format>image/svg+xml</dc:format>
    <dc:creator>
     <cc:Agent>
      <dc:title>Matplotlib v3.10.6, https://matplotlib.org/</dc:title>
     </cc:Agent>
    </dc:creator>
   </cc:Work>
  </rdf:RDF>
 </metadata>
 <defs>
  <style type="text/css">*{stroke-linejoin: round; stroke-linecap: butt}</style>
 </defs>
 <g id="figure_1">
  <g id="patch_1">
   <path d="M 0 338.4 
L 607.2 338.4 
L 607.2 0 
L 0 0 
z
" style="fill: #ffffff"/>
  </g>
  <g id="axes_1">
   <g id="patch_2">
    <path d="M 43.78125 318.021875 
L 600 318.021875 
L 600 22.318125 
L 43.78125 22.318125 
z
" style="fill: #ffffff"/>
   </g>
   <g id="line2d_1">
    <path d="M 197.982246 171.780144 
L 198.982246 171.81158 
L 199.982246 171.84852 
L 200.982246 171.946267 
L 201.982246 171.978789 
L 202.982246 172.052413 
L 203.982246 172.090979 
L 204.982246 172.126392 
L 205.982246 172.184032 
L 206.982246 172.254418 
L 207.982246 172.306382 
L 208.982246 172.365472 
L 209.982246 172.453793 
L 210.982246 172.499937 
L 211.982246 172.542348 
L 212.982246 172.572841 
L 213.982246 172.598886 
L 214.982246 172.620086 
L 215.982246 172.674387 
L 216.982246 172.702325 
L 217.982246 172.732049 
L 218.982246 172.757443 
L 219.982246 172.768644 
L 220.982246 172.778768 
L 221.982246 172.778563 
L 222.982246 172.769054 
L 223.982246 172.7574 
L 224.982246 172.726371 
L 225.982246 172.715203 
L 226.982246 172.685085 
L 227.982246 172.625308 
L 228.982246 172.588117 
L 229.982246 172.549021 
L 230.982246 172.506581 
L 231.982246 172.473816 
L 232.982246 172.40639 
L 233.982246 172.367264 
L 234.982246 172.324589 
L 235.982246 172.254009 
L 236.982246 172.217618 
L 237.982246 172.159214 
L 238.982246 172.048262 
L 239.982246 171.977604 
L 240.982246 171.864664 
L 241.982246 171.818891 
L 242.982246 171.757608 
L 243.982246 171.709108 
L 244.982246 171.628286 
L 245.982246 171.509767 
L 246.982246 171.439556 
L 247.982246 171.356294 
L 248.982246 171.323152 
L 249.982246 171.271915 
L 250.982246 171.203516 
L 251.982246 171.137301 
L 252.982246 171.060384 
L 254.650368 171.033068 
" clip-path="url(#p5932db157c)" style="fill: none; stroke: #1f77b4; stroke-opacity: 0.5; stroke-width: 0.2; stroke-linecap: square"/>
   </g>
   <g id="line2d_2">
    <path d="M 197.982246 81.63636 
L 198.982246 81.667796 
L 199.982246 81.704737 
L 200.982246 81.802483 
L 201.982246 81.835005 
L 202.982246 81.908629 
L 203.982246 81.947195 
L 204.982246 81.982608 
L 205.982246 82.040248 
L 206.982246 82.110634 
L 207.982246 82.162599 
L 208.982246 82.221688 
L 209.982246 82.310009 
L 210.982246 82.356154 
L 211.982246 82.398564 
L 212.982246 82.429057 
L 213.982246 82.455102 
L 214.982246 82.476302 
L 215.982246 82.530603 
L 216.982246 82.558541 
L 217.982246 82.588265 
L 218.982246 82.61366 
L 219.982246 82.62486 
L 220.982246 82.634984 
L 221.982246 82.63478 
L 222.982246 82.62527 
L 223.982246 82.613616 
L 224.982246 82.582587 
L 225.982246 82.571419 
L 226.982246 82.541302 
L 227.982246 82.481525 
L 228.982246 82.444333 
L 229.982246 82.405237 
L 230.982246 82.362797 
L 231.982246 82.330032 
L 232.982246 82.262606 
L 233.982246 82.22348 
L 234.982246 82.180805 
L 235.982246 82.110225 
L 236.982246 82.073834 
L 237.982246 82.015431 
L 238.982246 81.904478 
L 239.982246 81.83382 
L 240.982246 81.72088 
L 241.982246 81.675107 
L 242.982246 81.613824 
L 243.982246 81.565324 
L 244.982246 81.484502 
L 245.982246 81.365983 
L 246.982246 81.295772 
L 247.982246 81.21251 
L 248.982246 81.179368 
L 249.982246 81.128131 
L 250.982246 81.059732 
L 251.982246 80.993517 
L 252.982246 80.9166 
L 254.650368 80.889284 
" clip-path="url(#p5932db157c)" style="fill: none; stroke: #1f77b4; stroke-opacity: 0.5; stroke-width: 0.2; stroke-linecap: square"/>
   </g>
   <g id="line2d_3">
    <path d="M 197.982246 182.131283 
L 198.982246 182.162719 
L 199.982246 182.199659 
L 200.982246 182.297406 
L 201.982246 182.329927 
L 202.982246 182.403552 
L 203.982246 182.442118 
L 204.982246 182.477531 
L 205.982246 182.535171 
L 206.982246 182.605557 
L 207.982246 182.657521 
L 208.982246 182.716611 
L 209.982246 182.804932 
L 210.982246 182.851076 
L 211.982246 182.893487 
L 212.982246 182.92398 
L 213.982246 182.950025 
L 214.982246 182.971225 
L 215.982246 183.025526 
L 216.982246 183.053464 
L 217.982246 183.083188 
L 218.982246 183.108582 
L 219.982246 183.119783 
L 220.982246 183.129907 
L 221.982246 183.129702 
L 222.982246 183.120192 
L 223.982246 183.108539 
L 224.982246 183.07751 
L 225.982246 183.066342 
L 226.982246 183.036224 
L 227.982246 182.976447 
L 228.982246 182.939256 
L 229.982246 182.90016 
L 230.982246 182.85772 
L 231.982246 182.824955 
L 232.982246 182.757528 
L 233.982246 182.718402 
L 234.982246 182.675728 
L 235.982246 182.605147 
L 236.982246 182.568756 
L 237.982246 182.510353 
L 238.982246 182.399401 
L 239.982246 182.328742 
L 240.982246 182.215803 
L 241.982246 182.17003 
L 242.982246 182.108746 
L 243.982246 182.060247 
L 244.982246 181.979424 
L 245.982246 181.860906 
L 246.982246 181.790695 
L 247.982246 181.707432 
L 248.982246 181.674291 
L 249.982246 181.623053 
L 250.982246 181.554655 
L 251.982246 181.48844 
L 252.982246 181.411522 
L 254.650368 181.384207 
" clip-path="url(#p5932db157c)" style="fill: none; stroke: #1f77b4; stroke-opacity: 0.5; stroke-width: 0.2; stroke-linecap: square"/>
   </g>
   <g id="line2d_4">
    <path d="M 197.982246 174.403143 
L 198.982246 174.434579 
L 199.982246 174.471519 
L 200.982246 174.569266 
L 201.982246 174.601787 
L 202.982246 174.675412 
L 203.982246 174.713978 
L 204.982246 174.749391 
L 205.982246 174.807031 
L 206.982246 174.877417 
L 207.982246 174.929381 
L 208.982246 174.988471 
L 209.982246 175.076792 
L 210.982246 175.122936 
L 211.982246 175.165347 
L 212.982246 175.19584 
L 213.982246 175.221885 
L 214.982246 175.243085 
L 215.982246 175.297386 
L 216.982246 175.325324 
L 217.982246 175.355048 
L 218.982246 175.380442 
L 219.982246 175.391643 
L 220.982246 175.401767 
L 221.982246 175.401562 
L 222.982246 175.392053 
L 223.982246 175.380399 
L 224.982246 175.34937 
L 225.982246 175.338202 
L 226.982246 175.308084 
L 227.982246 175.248307 
L 228.982246 175.211116 
L 229.982246 175.17202 
L 230.982246 175.12958 
L 231.982246 175.096815 
L 232.982246 175.029388 
L 233.982246 174.990263 
L 234.982246 174.947588 
L 235.982246 174.877007 
L 236.982246 174.840617 
L 237.982246 174.782213 
L 238.982246 174.671261 
L 239.982246 174.600602 
L 240.982246 174.487663 
L 241.982246 174.44189 
L 242.982246 174.380607 
L 243.982246 174.332107 
L 244.982246 174.251285 
L 245.982246 174.132766 
L 246.982246 174.062555 
L 247.982246 173.979292 
L 248.982246 173.946151 
L 249.982246 173.894913 
L 250.982246 173.826515 
L 251.982246 173.7603 
L 252.982246 173.683383 
L 254.650368 173.656067 
" clip-path="url(#p5932db157c)" style="fill: none; stroke: #1f77b4; stroke-opacity: 0.5; stroke-width: 0.2; stroke-linecap: square"/>
   </g>
   <g id="line2d_5">
    <path d="M 197.982246 86.027171 
L 198.982246 86.058608 
L 199.982246 86.095548 
L 200.982246 86.193295 
L 201.982246 86.225816 
L 202.982246 86.299441 
L 203.982246 86.338006 
L 204.982246 86.37342 
L 205.982246 86.43106 
L 206.982246 86.501446 
L 207.982246 86.55341 
L 208.982246 86.6125 
L 209.982246 86.700821 
L 210.982246 86.746965 
L 211.982246 86.789376 
L 212.982246 86.819869 
L 213.982246 86.845914 
L 214.982246 86.867114 
L 215.982246 86.921415 
L 216.982246 86.949352 
L 217.982246 86.979076 
L 218.982246 87.004471 
L 219.982246 87.015671 
L 220.982246 87.025795 
L 221.982246 87.025591 
L 222.982246 87.016081 
L 223.982246 87.004428 
L 224.982246 86.973398 
L 225.982246 86.96223 
L 226.982246 86.932113 
L 227.982246 86.872336 
L 228.982246 86.835144 
L 229.982246 86.796048 
L 230.982246 86.753609 
L 231.982246 86.720844 
L 232.982246 86.653417 
L 233.982246 86.614291 
L 234.982246 86.571617 
L 235.982246 86.501036 
L 236.982246 86.464645 
L 237.982246 86.406242 
L 238.982246 86.295289 
L 239.982246 86.224631 
L 240.982246 86.111691 
L 241.982246 86.065918 
L 242.982246 86.004635 
L 243.982246 85.956136 
L 244.982246 85.875313 
L 245.982246 85.756794 
L 246.982246 85.686584 
L 247.982246 85.603321 
L 248.982246 85.570179 
L 249.982246 85.518942 
L 250.982246 85.450544 
L 251.982246 85.384328 
L 252.982246 85.307411 
L 254.650368 85.280096 
" clip-path="url(#p5932db157c)" style="fill: none; stroke: #1f77b4; stroke-opacity: 0.5; stroke-width: 0.2; stroke-linecap: square"/>
   </g>
   <g id="line2d_6">
    <path d="M 197.982246 125.145916 
L 198.982246 125.177352 
L 199.982246 125.214292 
L 200.982246 125.312039 
L 201.982246 125.34456 
L 202.982246 125.418185 
L 203.982246 125.456751 
L 204.982246 125.492164 
L 205.982246 125.549804 
L 206.982246 125.62019 
L 207.982246 125.672154 
L 208.982246 125.731244 
L 209.982246 125.819565 
L 210.982246 125.865709 
L 211.982246 125.90812 
L 212.982246 125.938613 
L 213.982246 125.964658 
L 214.982246 125.985858 
L 215.982246 126.040159 
L 216.982246 126.068097 
L 217.982246 126.097821 
L 218.982246 126.123215 
L 219.982246 126.134416 
L 220.982246 126.14454 
L 221.982246 126.144335 
L 222.982246 126.134825 
L 223.982246 126.123172 
L 224.982246 126.092143 
L 225.982246 126.080975 
L 226.982246 126.050857 
L 227.982246 125.99108 
L 228.982246 125.953889 
L 229.982246 125.914793 
L 230.982246 125.872353 
L 231.982246 125.839588 
L 232.982246 125.772161 
L 233.982246 125.733036 
L 234.982246 125.690361 
L 235.982246 125.61978 
L 236.982246 125.583389 
L 237.982246 125.524986 
L 238.982246 125.414034 
L 239.982246 125.343375 
L 240.982246 125.230436 
L 241.982246 125.184663 
L 242.982246 125.123379 
L 243.982246 125.07488 
L 244.982246 124.994057 
L 245.982246 124.875539 
L 246.982246 124.805328 
L 247.982246 124.722065 
L 248.982246 124.688924 
L 249.982246 124.637686 
L 250.982246 124.569288 
L 251.982246 124.503073 
L 252.982246 124.426156 
L 254.650368 124.39884 
" clip-path="url(#p5932db157c)" style="fill: none; stroke: #1f77b4; stroke-opacity: 0.5; stroke-width: 0.2; stroke-linecap: square"/>
   </g>
   <g id="line2d_7">
    <path d="M 197.982246 96.708895 
L 198.982246 96.740331 
L 199.982246 96.777272 
L 200.982246 96.875018 
L 201.982246 96.90754 
L 202.982246 96.981165 
L 203.982246 97.01973 
L 204.982246 97.055143 
L 205.982246 97.112783 
L 206.982246 97.183169 
L 207.982246 97.235134 
L 208.982246 97.294223 
L 209.982246 97.382544 
L 210.982246 97.428689 
L 211.982246 97.4711 
L 212.982246 97.501592 
L 213.982246 97.527637 
L 214.982246 97.548837 
L 215.982246 97.603138 
L 216.982246 97.631076 
L 217.982246 97.6608 
L 218.982246 97.686195 
L 219.982246 97.697395 
L 220.982246 97.707519 
L 221.982246 97.707315 
L 222.982246 97.697805 
L 223.982246 97.686151 
L 224.982246 97.655122 
L 225.982246 97.643954 
L 226.982246 97.613837 
L 227.982246 97.55406 
L 228.982246 97.516868 
L 229.982246 97.477772 
L 230.982246 97.435332 
L 231.982246 97.402567 
L 232.982246 97.335141 
L 233.982246 97.296015 
L 234.982246 97.25334 
L 235.982246 97.18276 
L 236.982246 97.146369 
L 237.982246 97.087966 
L 238.982246 96.977013 
L 239.982246 96.906355 
L 240.982246 96.793415 
L 241.982246 96.747642 
L 242.982246 96.686359 
L 243.982246 96.63786 
L 244.982246 96.557037 
L 245.982246 96.438518 
L 246.982246 96.368307 
L 247.982246 96.285045 
L 248.982246 96.251903 
L 249.982246 96.200666 
L 250.982246 96.132267 
L 251.982246 96.066052 
L 252.982246 95.989135 
L 254.650368 95.961819 
" clip-path="url(#p5932db157c)" style="fill: none; stroke: #1f77b4; stroke-opacity: 0.5; stroke-width: 0.2; stroke-linecap: square"/>
   </g>
   <g id="line2d_8">
    <path d="M 197.982246 142.530237 
L 198.982246 142.561673 
L 199.982246 142.598614 
L 200.982246 142.69636 
L 201.982246 142.728882 
L 202.982246 142.802506 
L 203.982246 142.841072 
L 204.982246 142.876485 
L 205.982246 142.934125 
L 206.982246 143.004511 
L 207.982246 143.056475 
L 208.982246 143.115565 
L 209.982246 143.203886 
L 210.982246 143.250031 
L 211.982246 143.292441 
L 212.982246 143.322934 
L 213.982246 143.348979 
L 214.982246 143.370179 
L 215.982246 143.42448 
L 216.982246 143.452418 
L 217.982246 143.482142 
L 218.982246 143.507537 
L 219.982246 143.518737 
L 220.982246 143.528861 
L 221.982246 143.528657 
L 222.982246 143.519147 
L 223.982246 143.507493 
L 224.982246 143.476464 
L 225.982246 143.465296 
L 226.982246 143.435178 
L 227.982246 143.375402 
L 228.982246 143.33821 
L 229.982246 143.299114 
L 230.982246 143.256674 
L 231.982246 143.223909 
L 232.982246 143.156483 
L 233.982246 143.117357 
L 234.982246 143.074682 
L 235.982246 143.004102 
L 236.982246 142.967711 
L 237.982246 142.909308 
L 238.982246 142.798355 
L 239.982246 142.727697 
L 240.982246 142.614757 
L 241.982246 142.568984 
L 242.982246 142.507701 
L 243.982246 142.459201 
L 244.982246 142.378379 
L 245.982246 142.25986 
L 246.982246 142.189649 
L 247.982246 142.106387 
L 248.982246 142.073245 
L 249.982246 142.022008 
L 250.982246 141.953609 
L 251.982246 141.887394 
L 252.982246 141.810477 
L 254.650368 141.783161 
" clip-path="url(#p5932db157c)" style="fill: none; stroke: #1f77b4; stroke-opacity: 0.5; stroke-width: 0.2; stroke-linecap: square"/>
   </g>
   <g id="line2d_9">
    <path d="M 197.982246 172.299613 
L 198.982246 172.331049 
L 199.982246 172.36799 
L 200.982246 172.465736 
L 201.982246 172.498258 
L 202.982246 172.571883 
L 203.982246 172.610448 
L 204.982246 172.645861 
L 205.982246 172.703501 
L 206.982246 172.773887 
L 207.982246 172.825852 
L 208.982246 172.884941 
L 209.982246 172.973262 
L 210.982246 173.019407 
L 211.982246 173.061818 
L 212.982246 173.09231 
L 213.982246 173.118355 
L 214.982246 173.139555 
L 215.982246 173.193856 
L 216.982246 173.221794 
L 217.982246 173.251518 
L 218.982246 173.276913 
L 219.982246 173.288113 
L 220.982246 173.298237 
L 221.982246 173.298033 
L 222.982246 173.288523 
L 223.982246 173.276869 
L 224.982246 173.24584 
L 225.982246 173.234672 
L 226.982246 173.204555 
L 227.982246 173.144778 
L 228.982246 173.107586 
L 229.982246 173.06849 
L 230.982246 173.02605 
L 231.982246 172.993285 
L 232.982246 172.925859 
L 233.982246 172.886733 
L 234.982246 172.844058 
L 235.982246 172.773478 
L 236.982246 172.737087 
L 237.982246 172.678684 
L 238.982246 172.567731 
L 239.982246 172.497073 
L 240.982246 172.384133 
L 241.982246 172.33836 
L 242.982246 172.277077 
L 243.982246 172.228578 
L 244.982246 172.147755 
L 245.982246 172.029236 
L 246.982246 171.959025 
L 247.982246 171.875763 
L 248.982246 171.842621 
L 249.982246 171.791384 
L 250.982246 171.722985 
L 251.982246 171.65677 
L 252.982246 171.579853 
L 254.650368 171.552537 
" clip-path="url(#p5932db157c)" style="fill: none; stroke: #1f77b4; stroke-opacity: 0.5; stroke-width: 0.2; stroke-linecap: square"/>
   </g>
   <g id="line2d_10">
    <path d="M 197.982246 125.238603 
L 198.982246 125.27004 
L 199.982246 125.30698 
L 200.982246 125.404727 
L 201.982246 125.437248 
L 202.982246 125.510873 
L 203.982246 125.549439 
L 204.982246 125.584852 
L 205.982246 125.642492 
L 206.982246 125.712878 
L 207.982246 125.764842 
L 208.982246 125.823932 
L 209.982246 125.912253 
L 210.982246 125.958397 
L 211.982246 126.000808 
L 212.982246 126.031301 
L 213.982246 126.057346 
L 214.982246 126.078546 
L 215.982246 126.132847 
L 216.982246 126.160784 
L 217.982246 126.190508 
L 218.982246 126.215903 
L 219.982246 126.227104 
L 220.982246 126.237228 
L 221.982246 126.237023 
L 222.982246 126.227513 
L 223.982246 126.21586 
L 224.982246 126.184831 
L 225.982246 126.173663 
L 226.982246 126.143545 
L 227.982246 126.083768 
L 228.982246 126.046577 
L 229.982246 126.007481 
L 230.982246 125.965041 
L 231.982246 125.932276 
L 232.982246 125.864849 
L 233.982246 125.825723 
L 234.982246 125.783049 
L 235.982246 125.712468 
L 236.982246 125.676077 
L 237.982246 125.617674 
L 238.982246 125.506722 
L 239.982246 125.436063 
L 240.982246 125.323123 
L 241.982246 125.277351 
L 242.982246 125.216067 
L 243.982246 125.167568 
L 244.982246 125.086745 
L 245.982246 124.968226 
L 246.982246 124.898016 
L 247.982246 124.814753 
L 248.982246 124.781612 
L 249.982246 124.730374 
L 250.982246 124.661976 
L 251.982246 124.59576 
L 252.982246 124.518843 
L 254.650368 124.491528 
" clip-path="url(#p5932db157c)" style="fill: none; stroke: #1f77b4; stroke-opacity: 0.5; stroke-width: 0.2; stroke-linecap: square"/>
   </g>
   <g id="line2d_11">
    <path d="M 389.130882 83.617016 
L 390.130882 83.648452 
L 391.130882 83.685392 
L 392.130882 83.783139 
L 393.130882 83.815661 
L 394.130882 83.889285 
L 395.130882 83.927851 
L 396.130882 83.963264 
L 397.130882 84.020904 
L 398.130882 84.09129 
L 399.130882 84.143254 
L 400.130882 84.202344 
L 401.130882 84.290665 
L 402.130882 84.336809 
L 403.130882 84.37922 
L 404.130882 84.409713 
L 405.130882 84.435758 
L 406.130882 84.456958 
L 407.130882 84.511259 
L 408.130882 84.539197 
L 409.130882 84.568921 
L 410.130882 84.594315 
L 411.130882 84.605516 
L 412.130882 84.61564 
L 413.130882 84.615435 
L 414.130882 84.605926 
L 415.130882 84.594272 
L 416.130882 84.563243 
L 417.130882 84.552075 
L 418.130882 84.521957 
L 419.130882 84.46218 
L 420.130882 84.424989 
L 421.130882 84.385893 
L 422.130882 84.343453 
L 423.130882 84.310688 
L 424.130882 84.243262 
L 425.130882 84.204136 
L 426.130882 84.161461 
L 427.130882 84.09088 
L 428.130882 84.05449 
L 429.130882 83.996086 
L 430.130882 83.885134 
L 431.130882 83.814476 
L 432.130882 83.701536 
L 433.130882 83.655763 
L 434.130882 83.59448 
L 435.130882 83.54598 
L 436.130882 83.465158 
L 437.130882 83.346639 
L 438.130882 83.276428 
L 439.130882 83.193166 
L 440.130882 83.160024 
L 441.130882 83.108786 
L 442.130882 83.040388 
L 443.130882 82.974173 
L 444.130882 82.897256 
L 445.799004 82.86994 
" clip-path="url(#p5932db157c)" style="fill: none; stroke: #ff7f0e; stroke-opacity: 0.5; stroke-width: 0.2; stroke-linecap: square"/>
   </g>
   <g id="line2d_12">
    <path d="M 389.130882 168.255779 
L 390.130882 168.287216 
L 391.130882 168.324156 
L 392.130882 168.421903 
L 393.130882 168.454424 
L 394.130882 168.528049 
L 395.130882 168.566615 
L 396.130882 168.602028 
L 397.130882 168.659668 
L 398.130882 168.730054 
L 399.130882 168.782018 
L 400.130882 168.841108 
L 401.130882 168.929429 
L 402.130882 168.975573 
L 403.130882 169.017984 
L 404.130882 169.048477 
L 405.130882 169.074522 
L 406.130882 169.095722 
L 407.130882 169.150023 
L 408.130882 169.17796 
L 409.130882 169.207684 
L 410.130882 169.233079 
L 411.130882 169.24428 
L 412.130882 169.254404 
L 413.130882 169.254199 
L 414.130882 169.244689 
L 415.130882 169.233036 
L 416.130882 169.202007 
L 417.130882 169.190839 
L 418.130882 169.160721 
L 419.130882 169.100944 
L 420.130882 169.063753 
L 421.130882 169.024657 
L 422.130882 168.982217 
L 423.130882 168.949452 
L 424.130882 168.882025 
L 425.130882 168.842899 
L 426.130882 168.800225 
L 427.130882 168.729644 
L 428.130882 168.693253 
L 429.130882 168.63485 
L 430.130882 168.523898 
L 431.130882 168.453239 
L 432.130882 168.340299 
L 433.130882 168.294527 
L 434.130882 168.233243 
L 435.130882 168.184744 
L 436.130882 168.103921 
L 437.130882 167.985402 
L 438.130882 167.915192 
L 439.130882 167.831929 
L 440.130882 167.798788 
L 441.130882 167.74755 
L 442.130882 167.679152 
L 443.130882 167.612936 
L 444.130882 167.536019 
L 445.799004 167.508704 
" clip-path="url(#p5932db157c)" style="fill: none; stroke: #ff7f0e; stroke-opacity: 0.5; stroke-width: 0.2; stroke-linecap: square"/>
   </g>
   <g id="line2d_13">
    <path d="M 389.130882 97.655048 
L 390.130882 97.686485 
L 391.130882 97.723425 
L 392.130882 97.821171 
L 393.130882 97.853693 
L 394.130882 97.927318 
L 395.130882 97.965883 
L 396.130882 98.001297 
L 397.130882 98.058936 
L 398.130882 98.129323 
L 399.130882 98.181287 
L 400.130882 98.240377 
L 401.130882 98.328698 
L 402.130882 98.374842 
L 403.130882 98.417253 
L 404.130882 98.447746 
L 405.130882 98.47379 
L 406.130882 98.494991 
L 407.130882 98.549292 
L 408.130882 98.577229 
L 409.130882 98.606953 
L 410.130882 98.632348 
L 411.130882 98.643548 
L 412.130882 98.653672 
L 413.130882 98.653468 
L 414.130882 98.643958 
L 415.130882 98.632305 
L 416.130882 98.601275 
L 417.130882 98.590107 
L 418.130882 98.55999 
L 419.130882 98.500213 
L 420.130882 98.463021 
L 421.130882 98.423925 
L 422.130882 98.381486 
L 423.130882 98.348721 
L 424.130882 98.281294 
L 425.130882 98.242168 
L 426.130882 98.199494 
L 427.130882 98.128913 
L 428.130882 98.092522 
L 429.130882 98.034119 
L 430.130882 97.923166 
L 431.130882 97.852508 
L 432.130882 97.739568 
L 433.130882 97.693795 
L 434.130882 97.632512 
L 435.130882 97.584013 
L 436.130882 97.50319 
L 437.130882 97.384671 
L 438.130882 97.314461 
L 439.130882 97.231198 
L 440.130882 97.198056 
L 441.130882 97.146819 
L 442.130882 97.078421 
L 443.130882 97.012205 
L 444.130882 96.935288 
L 445.799004 96.907973 
" clip-path="url(#p5932db157c)" style="fill: none; stroke: #ff7f0e; stroke-opacity: 0.5; stroke-width: 0.2; stroke-linecap: square"/>
   </g>
   <g id="line2d_14">
    <path d="M 389.130882 107.420144 
L 390.130882 107.45158 
L 391.130882 107.48852 
L 392.130882 107.586267 
L 393.130882 107.618789 
L 394.130882 107.692413 
L 395.130882 107.730979 
L 396.130882 107.766392 
L 397.130882 107.824032 
L 398.130882 107.894418 
L 399.130882 107.946382 
L 400.130882 108.005472 
L 401.130882 108.093793 
L 402.130882 108.139937 
L 403.130882 108.182348 
L 404.130882 108.212841 
L 405.130882 108.238886 
L 406.130882 108.260086 
L 407.130882 108.314387 
L 408.130882 108.342325 
L 409.130882 108.372049 
L 410.130882 108.397443 
L 411.130882 108.408644 
L 412.130882 108.418768 
L 413.130882 108.418563 
L 414.130882 108.409054 
L 415.130882 108.3974 
L 416.130882 108.366371 
L 417.130882 108.355203 
L 418.130882 108.325085 
L 419.130882 108.265308 
L 420.130882 108.228117 
L 421.130882 108.189021 
L 422.130882 108.146581 
L 423.130882 108.113816 
L 424.130882 108.04639 
L 425.130882 108.007264 
L 426.130882 107.964589 
L 427.130882 107.894009 
L 428.130882 107.857618 
L 429.130882 107.799214 
L 430.130882 107.688262 
L 431.130882 107.617604 
L 432.130882 107.504664 
L 433.130882 107.458891 
L 434.130882 107.397608 
L 435.130882 107.349108 
L 436.130882 107.268286 
L 437.130882 107.149767 
L 438.130882 107.079556 
L 439.130882 106.996294 
L 440.130882 106.963152 
L 441.130882 106.911915 
L 442.130882 106.843516 
L 443.130882 106.777301 
L 444.130882 106.700384 
L 445.799004 106.673068 
" clip-path="url(#p5932db157c)" style="fill: none; stroke: #ff7f0e; stroke-opacity: 0.5; stroke-width: 0.2; stroke-linecap: square"/>
   </g>
   <g id="line2d_15">
    <path d="M 389.130882 160.362588 
L 390.130882 160.394024 
L 391.130882 160.430964 
L 392.130882 160.528711 
L 393.130882 160.561232 
L 394.130882 160.634857 
L 395.130882 160.673423 
L 396.130882 160.708836 
L 397.130882 160.766476 
L 398.130882 160.836862 
L 399.130882 160.888826 
L 400.130882 160.947916 
L 401.130882 161.036237 
L 402.130882 161.082381 
L 403.130882 161.124792 
L 404.130882 161.155285 
L 405.130882 161.18133 
L 406.130882 161.20253 
L 407.130882 161.256831 
L 408.130882 161.284769 
L 409.130882 161.314493 
L 410.130882 161.339887 
L 411.130882 161.351088 
L 412.130882 161.361212 
L 413.130882 161.361007 
L 414.130882 161.351498 
L 415.130882 161.339844 
L 416.130882 161.308815 
L 417.130882 161.297647 
L 418.130882 161.267529 
L 419.130882 161.207752 
L 420.130882 161.170561 
L 421.130882 161.131465 
L 422.130882 161.089025 
L 423.130882 161.05626 
L 424.130882 160.988833 
L 425.130882 160.949708 
L 426.130882 160.907033 
L 427.130882 160.836452 
L 428.130882 160.800062 
L 429.130882 160.741658 
L 430.130882 160.630706 
L 431.130882 160.560047 
L 432.130882 160.447108 
L 433.130882 160.401335 
L 434.130882 160.340052 
L 435.130882 160.291552 
L 436.130882 160.21073 
L 437.130882 160.092211 
L 438.130882 160.022 
L 439.130882 159.938737 
L 440.130882 159.905596 
L 441.130882 159.854358 
L 442.130882 159.78596 
L 443.130882 159.719745 
L 444.130882 159.642828 
L 445.799004 159.615512 
" clip-path="url(#p5932db157c)" style="fill: none; stroke: #ff7f0e; stroke-opacity: 0.5; stroke-width: 0.2; stroke-linecap: square"/>
   </g>
   <g id="line2d_16">
    <path d="M 389.130882 183.244072 
L 390.130882 183.275509 
L 391.130882 183.312449 
L 392.130882 183.410196 
L 393.130882 183.442717 
L 394.130882 183.516342 
L 395.130882 183.554907 
L 396.130882 183.590321 
L 397.130882 183.647961 
L 398.130882 183.718347 
L 399.130882 183.770311 
L 400.130882 183.829401 
L 401.130882 183.917722 
L 402.130882 183.963866 
L 403.130882 184.006277 
L 404.130882 184.03677 
L 405.130882 184.062815 
L 406.130882 184.084015 
L 407.130882 184.138316 
L 408.130882 184.166253 
L 409.130882 184.195977 
L 410.130882 184.221372 
L 411.130882 184.232573 
L 412.130882 184.242696 
L 413.130882 184.242492 
L 414.130882 184.232982 
L 415.130882 184.221329 
L 416.130882 184.190299 
L 417.130882 184.179132 
L 418.130882 184.149014 
L 419.130882 184.089237 
L 420.130882 184.052045 
L 421.130882 184.012949 
L 422.130882 183.97051 
L 423.130882 183.937745 
L 424.130882 183.870318 
L 425.130882 183.831192 
L 426.130882 183.788518 
L 427.130882 183.717937 
L 428.130882 183.681546 
L 429.130882 183.623143 
L 430.130882 183.512191 
L 431.130882 183.441532 
L 432.130882 183.328592 
L 433.130882 183.282819 
L 434.130882 183.221536 
L 435.130882 183.173037 
L 436.130882 183.092214 
L 437.130882 182.973695 
L 438.130882 182.903485 
L 439.130882 182.820222 
L 440.130882 182.78708 
L 441.130882 182.735843 
L 442.130882 182.667445 
L 443.130882 182.601229 
L 444.130882 182.524312 
L 445.799004 182.496997 
" clip-path="url(#p5932db157c)" style="fill: none; stroke: #ff7f0e; stroke-opacity: 0.5; stroke-width: 0.2; stroke-linecap: square"/>
   </g>
   <g id="line2d_17">
    <path d="M 389.130882 130.139213 
L 390.130882 130.17065 
L 391.130882 130.20759 
L 392.130882 130.305337 
L 393.130882 130.337858 
L 394.130882 130.411483 
L 395.130882 130.450049 
L 396.130882 130.485462 
L 397.130882 130.543102 
L 398.130882 130.613488 
L 399.130882 130.665452 
L 400.130882 130.724542 
L 401.130882 130.812863 
L 402.130882 130.859007 
L 403.130882 130.901418 
L 404.130882 130.931911 
L 405.130882 130.957956 
L 406.130882 130.979156 
L 407.130882 131.033457 
L 408.130882 131.061394 
L 409.130882 131.091118 
L 410.130882 131.116513 
L 411.130882 131.127714 
L 412.130882 131.137838 
L 413.130882 131.137633 
L 414.130882 131.128123 
L 415.130882 131.11647 
L 416.130882 131.085441 
L 417.130882 131.074273 
L 418.130882 131.044155 
L 419.130882 130.984378 
L 420.130882 130.947187 
L 421.130882 130.908091 
L 422.130882 130.865651 
L 423.130882 130.832886 
L 424.130882 130.765459 
L 425.130882 130.726333 
L 426.130882 130.683659 
L 427.130882 130.613078 
L 428.130882 130.576687 
L 429.130882 130.518284 
L 430.130882 130.407332 
L 431.130882 130.336673 
L 432.130882 130.223733 
L 433.130882 130.177961 
L 434.130882 130.116677 
L 435.130882 130.068178 
L 436.130882 129.987355 
L 437.130882 129.868836 
L 438.130882 129.798626 
L 439.130882 129.715363 
L 440.130882 129.682222 
L 441.130882 129.630984 
L 442.130882 129.562586 
L 443.130882 129.49637 
L 444.130882 129.419453 
L 445.799004 129.392138 
" clip-path="url(#p5932db157c)" style="fill: none; stroke: #ff7f0e; stroke-opacity: 0.5; stroke-width: 0.2; stroke-linecap: square"/>
   </g>
   <g id="line2d_18">
    <path d="M 389.130882 146.793724 
L 390.130882 146.825161 
L 391.130882 146.862101 
L 392.130882 146.959848 
L 393.130882 146.992369 
L 394.130882 147.065994 
L 395.130882 147.104559 
L 396.130882 147.139973 
L 397.130882 147.197613 
L 398.130882 147.267999 
L 399.130882 147.319963 
L 400.130882 147.379053 
L 401.130882 147.467374 
L 402.130882 147.513518 
L 403.130882 147.555929 
L 404.130882 147.586422 
L 405.130882 147.612467 
L 406.130882 147.633667 
L 407.130882 147.687968 
L 408.130882 147.715905 
L 409.130882 147.745629 
L 410.130882 147.771024 
L 411.130882 147.782224 
L 412.130882 147.792348 
L 413.130882 147.792144 
L 414.130882 147.782634 
L 415.130882 147.770981 
L 416.130882 147.739951 
L 417.130882 147.728783 
L 418.130882 147.698666 
L 419.130882 147.638889 
L 420.130882 147.601697 
L 421.130882 147.562601 
L 422.130882 147.520162 
L 423.130882 147.487397 
L 424.130882 147.41997 
L 425.130882 147.380844 
L 426.130882 147.33817 
L 427.130882 147.267589 
L 428.130882 147.231198 
L 429.130882 147.172795 
L 430.130882 147.061842 
L 431.130882 146.991184 
L 432.130882 146.878244 
L 433.130882 146.832471 
L 434.130882 146.771188 
L 435.130882 146.722689 
L 436.130882 146.641866 
L 437.130882 146.523347 
L 438.130882 146.453137 
L 439.130882 146.369874 
L 440.130882 146.336732 
L 441.130882 146.285495 
L 442.130882 146.217097 
L 443.130882 146.150881 
L 444.130882 146.073964 
L 445.799004 146.046649 
" clip-path="url(#p5932db157c)" style="fill: none; stroke: #ff7f0e; stroke-opacity: 0.5; stroke-width: 0.2; stroke-linecap: square"/>
   </g>
   <g id="line2d_19">
    <path d="M 389.130882 120.839972 
L 390.130882 120.871409 
L 391.130882 120.908349 
L 392.130882 121.006096 
L 393.130882 121.038617 
L 394.130882 121.112242 
L 395.130882 121.150807 
L 396.130882 121.186221 
L 397.130882 121.243861 
L 398.130882 121.314247 
L 399.130882 121.366211 
L 400.130882 121.425301 
L 401.130882 121.513622 
L 402.130882 121.559766 
L 403.130882 121.602177 
L 404.130882 121.63267 
L 405.130882 121.658715 
L 406.130882 121.679915 
L 407.130882 121.734216 
L 408.130882 121.762153 
L 409.130882 121.791877 
L 410.130882 121.817272 
L 411.130882 121.828472 
L 412.130882 121.838596 
L 413.130882 121.838392 
L 414.130882 121.828882 
L 415.130882 121.817229 
L 416.130882 121.786199 
L 417.130882 121.775031 
L 418.130882 121.744914 
L 419.130882 121.685137 
L 420.130882 121.647945 
L 421.130882 121.608849 
L 422.130882 121.56641 
L 423.130882 121.533645 
L 424.130882 121.466218 
L 425.130882 121.427092 
L 426.130882 121.384418 
L 427.130882 121.313837 
L 428.130882 121.277446 
L 429.130882 121.219043 
L 430.130882 121.10809 
L 431.130882 121.037432 
L 432.130882 120.924492 
L 433.130882 120.878719 
L 434.130882 120.817436 
L 435.130882 120.768937 
L 436.130882 120.688114 
L 437.130882 120.569595 
L 438.130882 120.499385 
L 439.130882 120.416122 
L 440.130882 120.38298 
L 441.130882 120.331743 
L 442.130882 120.263345 
L 443.130882 120.197129 
L 444.130882 120.120212 
L 445.799004 120.092897 
" clip-path="url(#p5932db157c)" style="fill: none; stroke: #ff7f0e; stroke-opacity: 0.5; stroke-width: 0.2; stroke-linecap: square"/>
   </g>
   <g id="line2d_20">
    <path d="M 389.130882 107.250328 
L 390.130882 107.281765 
L 391.130882 107.318705 
L 392.130882 107.416452 
L 393.130882 107.448973 
L 394.130882 107.522598 
L 395.130882 107.561164 
L 396.130882 107.596577 
L 397.130882 107.654217 
L 398.130882 107.724603 
L 399.130882 107.776567 
L 400.130882 107.835657 
L 401.130882 107.923978 
L 402.130882 107.970122 
L 403.130882 108.012533 
L 404.130882 108.043026 
L 405.130882 108.069071 
L 406.130882 108.090271 
L 407.130882 108.144572 
L 408.130882 108.172509 
L 409.130882 108.202233 
L 410.130882 108.227628 
L 411.130882 108.238829 
L 412.130882 108.248952 
L 413.130882 108.248748 
L 414.130882 108.239238 
L 415.130882 108.227585 
L 416.130882 108.196555 
L 417.130882 108.185388 
L 418.130882 108.15527 
L 419.130882 108.095493 
L 420.130882 108.058302 
L 421.130882 108.019205 
L 422.130882 107.976766 
L 423.130882 107.944001 
L 424.130882 107.876574 
L 425.130882 107.837448 
L 426.130882 107.794774 
L 427.130882 107.724193 
L 428.130882 107.687802 
L 429.130882 107.629399 
L 430.130882 107.518447 
L 431.130882 107.447788 
L 432.130882 107.334848 
L 433.130882 107.289076 
L 434.130882 107.227792 
L 435.130882 107.179293 
L 436.130882 107.09847 
L 437.130882 106.979951 
L 438.130882 106.909741 
L 439.130882 106.826478 
L 440.130882 106.793336 
L 441.130882 106.742099 
L 442.130882 106.673701 
L 443.130882 106.607485 
L 444.130882 106.530568 
L 445.799004 106.503253 
" clip-path="url(#p5932db157c)" style="fill: none; stroke: #ff7f0e; stroke-opacity: 0.5; stroke-width: 0.2; stroke-linecap: square"/>
   </g>
   <g id="patch_3">
    <path d="M 69.06392 22.318125 
L 69.06392 318.021875 
M 192.420059 22.318125 
L 192.420059 318.021875 
" clip-path="url(#p5932db157c)" style="fill: none; stroke: #ffffff; stroke-width: 3; stroke-linejoin: miter"/>
    <path d="M 69.06392 22.318125 
L 69.06392 318.021875 
M 192.420059 22.318125 
L 192.420059 318.021875 
" clip-path="url(#p5932db157c)" style="fill: none; stroke: #1f77b4; stroke-linejoin: miter"/>
   </g>
   <g id="FillBetweenPolyCollection_1">
    <path d="M 192.420059 22.318125 
L 69.06392 22.318125 
L 69.06392 318.021875 
L 192.420059 318.021875 
L 192.420059 318.021875 
L 192.420059 22.318125 
z
" clip-path="url(#p5932db157c)" style="fill: #1f77b4; fill-opacity: 0.5"/>
   </g>
   <g id="patch_4">
    <path d="M 260.212556 22.318125 
L 260.212556 318.021875 
M 383.568694 22.318125 
L 383.568694 318.021875 
" clip-path="url(#p5932db157c)" style="fill: none; stroke: #ffffff; stroke-width: 3; stroke-linejoin: miter"/>
    <path d="M 260.212556 22.318125 
L 260.212556 318.021875 
M 383.568694 22.318125 
L 383.568694 318.021875 
" clip-path="url(#p5932db157c)" style="fill: none; stroke: #ff7f0e; stroke-linejoin: miter"/>
   </g>
   <g id="FillBetweenPolyCollection_2">
    <path d="M 383.568694 22.318125 
L 260.212556 22.318125 
L 260.212556 318.021875 
L 383.568694 318.021875 
L 383.568694 318.021875 
L 383.568694 22.318125 
z
" clip-path="url(#p5932db157c)" style="fill: #ff7f0e; fill-opacity: 0.5"/>
   </g>
   <g id="patch_5">
    <path d="M 451.361191 22.318125 
L 451.361191 318.021875 
M 574.71733 22.318125 
L 574.71733 318.021875 
" clip-path="url(#p5932db157c)" style="fill: none; stroke: #ffffff; stroke-width: 3; stroke-linejoin: miter"/>
    <path d="M 451.361191 22.318125 
L 451.361191 318.021875 
M 574.71733 22.318125 
L 574.71733 318.021875 
" clip-path="url(#p5932db157c)" style="fill: none; stroke: #2ca02c; stroke-linejoin: miter"/>
   </g>
   <g id="FillBetweenPolyCollection_3">
    <path d="M 574.71733 22.318125 
L 451.361191 22.318125 
L 451.361191 318.021875 
L 574.71733 318.021875 
L 574.71733 318.021875 
L 574.71733 22.318125 
z
" clip-path="url(#p5932db157c)" style="fill: #2ca02c; fill-opacity: 0.5"/>
   </g>
   <g id="matplotlib.axis_1">
    <g id="xtick_1">
     <g id="line2d_21"/>
     <g id="text_1">
      <!-- deme0 -->
      <g transform="translate(113.363083 329.120312) scale(0.1 -0.1)">
       <defs>
        <path id="DejaVuSans-64" d="M 2906 2969 
L 2906 4863 
L 3481 4863 
L 3481 0 
L 2906 0 
L 2906 525 
Q 2725 213 2448 61 
Q 2172 -91 1784 -91 
Q 1150 -91 751 415 
Q 353 922 353 1747 
Q 353 2572 751 3078 
Q 1150 3584 1784 3584 
Q 2172 3584 2448 3432 
Q 2725 3281 2906 2969 
z
M 947 1747 
Q 947 1113 1208 752 
Q 1469 391 1925 391 
Q 2381 391 2643 752 
Q 2906 1113 2906 1747 
Q 2906 2381 2643 2742 
Q 2381 3103 1925 3103 
Q 1469 3103 1208 2742 
Q 947 2381 947 1747 
z
" transform="scale(0.015625)"/>
        <path id="DejaVuSans-65" d="M 3597 1894 
L 3597 1613 
L 953 1613 
Q 991 1019 1311 708 
Q 1631 397 2203 397 
Q 2534 397 2845 478 
Q 3156 559 3463 722 
L 3463 178 
Q 3153 47 2828 -22 
Q 2503 -91 2169 -91 
Q 1331 -91 842 396 
Q 353 884 353 1716 
Q 353 2575 817 3079 
Q 1281 3584 2069 3584 
Q 2775 3584 3186 3129 
Q 3597 2675 3597 1894 
z
M 3022 2063 
Q 3016 2534 2758 2815 
Q 2500 3097 2075 3097 
Q 1594 3097 1305 2825 
Q 1016 2553 972 2059 
L 3022 2063 
z
" transform="scale(0.015625)"/>
        <path id="DejaVuSans-6d" d="M 3328 2828 
Q 3544 3216 3844 3400 
Q 4144 3584 4550 3584 
Q 5097 3584 5394 3201 
Q 5691 2819 5691 2113 
L 5691 0 
L 5113 0 
L 5113 2094 
Q 5113 2597 4934 2840 
Q 4756 3084 4391 3084 
Q 3944 3084 3684 2787 
Q 3425 2491 3425 1978 
L 3425 0 
L 2847 0 
L 2847 2094 
Q 2847 2600 2669 2842 
Q 2491 3084 2119 3084 
Q 1678 3084 1418 2786 
Q 1159 2488 1159 1978 
L 1159 0 
L 581 0 
L 581 3500 
L 1159 3500 
L 1159 2956 
Q 1356 3278 1631 3431 
Q 1906 3584 2284 3584 
Q 2666 3584 2933 3390 
Q 3200 3197 3328 2828 
z
" transform="scale(0.015625)"/>
        <path id="DejaVuSans-30" d="M 2034 4250 
Q 1547 4250 1301 3770 
Q 1056 3291 1056 2328 
Q 1056 1369 1301 889 
Q 1547 409 2034 409 
Q 2525 409 2770 889 
Q 3016 1369 3016 2328 
Q 3016 3291 2770 3770 
Q 2525 4250 2034 4250 
z
M 2034 4750 
Q 2819 4750 3233 4129 
Q 3647 3509 3647 2328 
Q 3647 1150 3233 529 
Q 2819 -91 2034 -91 
Q 1250 -91 836 529 
Q 422 1150 422 2328 
Q 422 3509 836 4129 
Q 1250 4750 2034 4750 
z
" transform="scale(0.015625)"/>
       </defs>
       <use xlink:href="#DejaVuSans-64"/>
       <use xlink:href="#DejaVuSans-65" transform="translate(63.476562 0)"/>
       <use xlink:href="#DejaVuSans-6d" transform="translate(125 0)"/>
       <use xlink:href="#DejaVuSans-65" transform="translate(222.412109 0)"/>
       <use xlink:href="#DejaVuSans-30" transform="translate(283.935547 0)"/>
      </g>
     </g>
    </g>
    <g id="xtick_2">
     <g id="line2d_22"/>
     <g id="text_2">
      <!-- deme1 -->
      <g transform="translate(304.511719 329.120312) scale(0.1 -0.1)">
       <defs>
        <path id="DejaVuSans-31" d="M 794 531 
L 1825 531 
L 1825 4091 
L 703 3866 
L 703 4441 
L 1819 4666 
L 2450 4666 
L 2450 531 
L 3481 531 
L 3481 0 
L 794 0 
L 794 531 
z
" transform="scale(0.015625)"/>
       </defs>
       <use xlink:href="#DejaVuSans-64"/>
       <use xlink:href="#DejaVuSans-65" transform="translate(63.476562 0)"/>
       <use xlink:href="#DejaVuSans-6d" transform="translate(125 0)"/>
       <use xlink:href="#DejaVuSans-65" transform="translate(222.412109 0)"/>
       <use xlink:href="#DejaVuSans-31" transform="translate(283.935547 0)"/>
      </g>
     </g>
    </g>
    <g id="xtick_3">
     <g id="line2d_23"/>
     <g id="text_3">
      <!-- deme2 -->
      <g transform="translate(495.660354 329.120312) scale(0.1 -0.1)">
       <defs>
        <path id="DejaVuSans-32" d="M 1228 531 
L 3431 531 
L 3431 0 
L 469 0 
L 469 531 
Q 828 903 1448 1529 
Q 2069 2156 2228 2338 
Q 2531 2678 2651 2914 
Q 2772 3150 2772 3378 
Q 2772 3750 2511 3984 
Q 2250 4219 1831 4219 
Q 1534 4219 1204 4116 
Q 875 4013 500 3803 
L 500 4441 
Q 881 4594 1212 4672 
Q 1544 4750 1819 4750 
Q 2544 4750 2975 4387 
Q 3406 4025 3406 3419 
Q 3406 3131 3298 2873 
Q 3191 2616 2906 2266 
Q 2828 2175 2409 1742 
Q 1991 1309 1228 531 
z
" transform="scale(0.015625)"/>
       </defs>
       <use xlink:href="#DejaVuSans-64"/>
       <use xlink:href="#DejaVuSans-65" transform="translate(63.476562 0)"/>
       <use xlink:href="#DejaVuSans-6d" transform="translate(125 0)"/>
       <use xlink:href="#DejaVuSans-65" transform="translate(222.412109 0)"/>
       <use xlink:href="#DejaVuSans-32" transform="translate(283.935547 0)"/>
      </g>
     </g>
    </g>
   </g>
   <g id="matplotlib.axis_2">
    <g id="ytick_1">
     <g id="line2d_24">
      <defs>
       <path id="ma96c8d0315" d="M 0 0 
L -3.5 0 
" style="stroke: #000000; stroke-width: 0.8"/>
      </defs>
      <g>
       <use xlink:href="#ma96c8d0315" x="43.78125" y="318.021875" style="stroke: #000000; stroke-width: 0.8"/>
      </g>
     </g>
     <g id="text_4">
      <!-- 0.0 -->
      <g transform="translate(20.878125 321.821094) scale(0.1 -0.1)">
       <defs>
        <path id="DejaVuSans-2e" d="M 684 794 
L 1344 794 
L 1344 0 
L 684 0 
L 684 794 
z
" transform="scale(0.015625)"/>
       </defs>
       <use xlink:href="#DejaVuSans-30"/>
       <use xlink:href="#DejaVuSans-2e" transform="translate(63.623047 0)"/>
       <use xlink:href="#DejaVuSans-30" transform="translate(95.410156 0)"/>
      </g>
     </g>
    </g>
    <g id="ytick_2">
     <g id="line2d_25">
      <g>
       <use xlink:href="#ma96c8d0315" x="43.78125" y="258.881125" style="stroke: #000000; stroke-width: 0.8"/>
      </g>
     </g>
     <g id="text_5">
      <!-- 0.5 -->
      <g transform="translate(20.878125 262.680344) scale(0.1 -0.1)">
       <defs>
        <path id="DejaVuSans-35" d="M 691 4666 
L 3169 4666 
L 3169 4134 
L 1269 4134 
L 1269 2991 
Q 1406 3038 1543 3061 
Q 1681 3084 1819 3084 
Q 2600 3084 3056 2656 
Q 3513 2228 3513 1497 
Q 3513 744 3044 326 
Q 2575 -91 1722 -91 
Q 1428 -91 1123 -41 
Q 819 9 494 109 
L 494 744 
Q 775 591 1075 516 
Q 1375 441 1709 441 
Q 2250 441 2565 725 
Q 2881 1009 2881 1497 
Q 2881 1984 2565 2268 
Q 2250 2553 1709 2553 
Q 1456 2553 1204 2497 
Q 953 2441 691 2322 
L 691 4666 
z
" transform="scale(0.015625)"/>
       </defs>
       <use xlink:href="#DejaVuSans-30"/>
       <use xlink:href="#DejaVuSans-2e" transform="translate(63.623047 0)"/>
       <use xlink:href="#DejaVuSans-35" transform="translate(95.410156 0)"/>
      </g>
     </g>
    </g>
    <g id="ytick_3">
     <g id="line2d_26">
      <g>
       <use xlink:href="#ma96c8d0315" x="43.78125" y="199.740375" style="stroke: #000000; stroke-width: 0.8"/>
      </g>
     </g>
     <g id="text_6">
      <!-- 1.0 -->
      <g transform="translate(20.878125 203.539594) scale(0.1 -0.1)">
       <use xlink:href="#DejaVuSans-31"/>
       <use xlink:href="#DejaVuSans-2e" transform="translate(63.623047 0)"/>
       <use xlink:href="#DejaVuSans-30" transform="translate(95.410156 0)"/>
      </g>
     </g>
    </g>
    <g id="ytick_4">
     <g id="line2d_27">
      <g>
       <use xlink:href="#ma96c8d0315" x="43.78125" y="140.599625" style="stroke: #000000; stroke-width: 0.8"/>
      </g>
     </g>
     <g id="text_7">
      <!-- 1.5 -->
      <g transform="translate(20.878125 144.398844) scale(0.1 -0.1)">
       <use xlink:href="#DejaVuSans-31"/>
       <use xlink:href="#DejaVuSans-2e" transform="translate(63.623047 0)"/>
       <use xlink:href="#DejaVuSans-35" transform="translate(95.410156 0)"/>
      </g>
     </g>
    </g>
    <g id="ytick_5">
     <g id="line2d_28">
      <g>
       <use xlink:href="#ma96c8d0315" x="43.78125" y="81.458875" style="stroke: #000000; stroke-width: 0.8"/>
      </g>
     </g>
     <g id="text_8">
      <!-- 2.0 -->
      <g transform="translate(20.878125 85.258094) scale(0.1 -0.1)">
       <use xlink:href="#DejaVuSans-32"/>
       <use xlink:href="#DejaVuSans-2e" transform="translate(63.623047 0)"/>
       <use xlink:href="#DejaVuSans-30" transform="translate(95.410156 0)"/>
      </g>
     </g>
    </g>
    <g id="ytick_6">
     <g id="line2d_29">
      <g>
       <use xlink:href="#ma96c8d0315" x="43.78125" y="22.318125" style="stroke: #000000; stroke-width: 0.8"/>
      </g>
     </g>
     <g id="text_9">
      <!-- 2.5 -->
      <g transform="translate(20.878125 26.117344) scale(0.1 -0.1)">
       <use xlink:href="#DejaVuSans-32"/>
       <use xlink:href="#DejaVuSans-2e" transform="translate(63.623047 0)"/>
       <use xlink:href="#DejaVuSans-35" transform="translate(95.410156 0)"/>
      </g>
     </g>
    </g>
    <g id="text_10">
     <!-- time ago (generations) -->
     <g transform="translate(14.798438 227.641094) rotate(-90) scale(0.1 -0.1)">
      <defs>
       <path id="DejaVuSans-74" d="M 1172 4494 
L 1172 3500 
L 2356 3500 
L 2356 3053 
L 1172 3053 
L 1172 1153 
Q 1172 725 1289 603 
Q 1406 481 1766 481 
L 2356 481 
L 2356 0 
L 1766 0 
Q 1100 0 847 248 
Q 594 497 594 1153 
L 594 3053 
L 172 3053 
L 172 3500 
L 594 3500 
L 594 4494 
L 1172 4494 
z
" transform="scale(0.015625)"/>
       <path id="DejaVuSans-69" d="M 603 3500 
L 1178 3500 
L 1178 0 
L 603 0 
L 603 3500 
z
M 603 4863 
L 1178 4863 
L 1178 4134 
L 603 4134 
L 603 4863 
z
" transform="scale(0.015625)"/>
       <path id="DejaVuSans-20" transform="scale(0.015625)"/>
       <path id="DejaVuSans-61" d="M 2194 1759 
Q 1497 1759 1228 1600 
Q 959 1441 959 1056 
Q 959 750 1161 570 
Q 1363 391 1709 391 
Q 2188 391 2477 730 
Q 2766 1069 2766 1631 
L 2766 1759 
L 2194 1759 
z
M 3341 1997 
L 3341 0 
L 2766 0 
L 2766 531 
Q 2569 213 2275 61 
Q 1981 -91 1556 -91 
Q 1019 -91 701 211 
Q 384 513 384 1019 
Q 384 1609 779 1909 
Q 1175 2209 1959 2209 
L 2766 2209 
L 2766 2266 
Q 2766 2663 2505 2880 
Q 2244 3097 1772 3097 
Q 1472 3097 1187 3025 
Q 903 2953 641 2809 
L 641 3341 
Q 956 3463 1253 3523 
Q 1550 3584 1831 3584 
Q 2591 3584 2966 3190 
Q 3341 2797 3341 1997 
z
" transform="scale(0.015625)"/>
       <path id="DejaVuSans-67" d="M 2906 1791 
Q 2906 2416 2648 2759 
Q 2391 3103 1925 3103 
Q 1463 3103 1205 2759 
Q 947 2416 947 1791 
Q 947 1169 1205 825 
Q 1463 481 1925 481 
Q 2391 481 2648 825 
Q 2906 1169 2906 1791 
z
M 3481 434 
Q 3481 -459 3084 -895 
Q 2688 -1331 1869 -1331 
Q 1566 -1331 1297 -1286 
Q 1028 -1241 775 -1147 
L 775 -588 
Q 1028 -725 1275 -790 
Q 1522 -856 1778 -856 
Q 2344 -856 2625 -561 
Q 2906 -266 2906 331 
L 2906 616 
Q 2728 306 2450 153 
Q 2172 0 1784 0 
Q 1141 0 747 490 
Q 353 981 353 1791 
Q 353 2603 747 3093 
Q 1141 3584 1784 3584 
Q 2172 3584 2450 3431 
Q 2728 3278 2906 2969 
L 2906 3500 
L 3481 3500 
L 3481 434 
z
" transform="scale(0.015625)"/>
       <path id="DejaVuSans-6f" d="M 1959 3097 
Q 1497 3097 1228 2736 
Q 959 2375 959 1747 
Q 959 1119 1226 758 
Q 1494 397 1959 397 
Q 2419 397 2687 759 
Q 2956 1122 2956 1747 
Q 2956 2369 2687 2733 
Q 2419 3097 1959 3097 
z
M 1959 3584 
Q 2709 3584 3137 3096 
Q 3566 2609 3566 1747 
Q 3566 888 3137 398 
Q 2709 -91 1959 -91 
Q 1206 -91 779 398 
Q 353 888 353 1747 
Q 353 2609 779 3096 
Q 1206 3584 1959 3584 
z
" transform="scale(0.015625)"/>
       <path id="DejaVuSans-28" d="M 1984 4856 
Q 1566 4138 1362 3434 
Q 1159 2731 1159 2009 
Q 1159 1288 1364 580 
Q 1569 -128 1984 -844 
L 1484 -844 
Q 1016 -109 783 600 
Q 550 1309 550 2009 
Q 550 2706 781 3412 
Q 1013 4119 1484 4856 
L 1984 4856 
z
" transform="scale(0.015625)"/>
       <path id="DejaVuSans-6e" d="M 3513 2113 
L 3513 0 
L 2938 0 
L 2938 2094 
Q 2938 2591 2744 2837 
Q 2550 3084 2163 3084 
Q 1697 3084 1428 2787 
Q 1159 2491 1159 1978 
L 1159 0 
L 581 0 
L 581 3500 
L 1159 3500 
L 1159 2956 
Q 1366 3272 1645 3428 
Q 1925 3584 2291 3584 
Q 2894 3584 3203 3211 
Q 3513 2838 3513 2113 
z
" transform="scale(0.015625)"/>
       <path id="DejaVuSans-72" d="M 2631 2963 
Q 2534 3019 2420 3045 
Q 2306 3072 2169 3072 
Q 1681 3072 1420 2755 
Q 1159 2438 1159 1844 
L 1159 0 
L 581 0 
L 581 3500 
L 1159 3500 
L 1159 2956 
Q 1341 3275 1631 3429 
Q 1922 3584 2338 3584 
Q 2397 3584 2469 3576 
Q 2541 3569 2628 3553 
L 2631 2963 
z
" transform="scale(0.015625)"/>
       <path id="DejaVuSans-73" d="M 2834 3397 
L 2834 2853 
Q 2591 2978 2328 3040 
Q 2066 3103 1784 3103 
Q 1356 3103 1142 2972 
Q 928 2841 928 2578 
Q 928 2378 1081 2264 
Q 1234 2150 1697 2047 
L 1894 2003 
Q 2506 1872 2764 1633 
Q 3022 1394 3022 966 
Q 3022 478 2636 193 
Q 2250 -91 1575 -91 
Q 1294 -91 989 -36 
Q 684 19 347 128 
L 347 722 
Q 666 556 975 473 
Q 1284 391 1588 391 
Q 1994 391 2212 530 
Q 2431 669 2431 922 
Q 2431 1156 2273 1281 
Q 2116 1406 1581 1522 
L 1381 1569 
Q 847 1681 609 1914 
Q 372 2147 372 2553 
Q 372 3047 722 3315 
Q 1072 3584 1716 3584 
Q 2034 3584 2315 3537 
Q 2597 3491 2834 3397 
z
" transform="scale(0.015625)"/>
       <path id="DejaVuSans-29" d="M 513 4856 
L 1013 4856 
Q 1481 4119 1714 3412 
Q 1947 2706 1947 2009 
Q 1947 1309 1714 600 
Q 1481 -109 1013 -844 
L 513 -844 
Q 928 -128 1133 580 
Q 1338 1288 1338 2009 
Q 1338 2731 1133 3434 
Q 928 4138 513 4856 
z
" transform="scale(0.015625)"/>
      </defs>
      <use xlink:href="#DejaVuSans-74"/>
      <use xlink:href="#DejaVuSans-69" transform="translate(39.208984 0)"/>
      <use xlink:href="#DejaVuSans-6d" transform="translate(66.992188 0)"/>
      <use xlink:href="#DejaVuSans-65" transform="translate(164.404297 0)"/>
      <use xlink:href="#DejaVuSans-20" transform="translate(225.927734 0)"/>
      <use xlink:href="#DejaVuSans-61" transform="translate(257.714844 0)"/>
      <use xlink:href="#DejaVuSans-67" transform="translate(318.994141 0)"/>
      <use xlink:href="#DejaVuSans-6f" transform="translate(382.470703 0)"/>
      <use xlink:href="#DejaVuSans-20" transform="translate(443.652344 0)"/>
      <use xlink:href="#DejaVuSans-28" transform="translate(475.439453 0)"/>
      <use xlink:href="#DejaVuSans-67" transform="translate(514.453125 0)"/>
      <use xlink:href="#DejaVuSans-65" transform="translate(577.929688 0)"/>
      <use xlink:href="#DejaVuSans-6e" transform="translate(639.453125 0)"/>
      <use xlink:href="#DejaVuSans-65" transform="translate(702.832031 0)"/>
      <use xlink:href="#DejaVuSans-72" transform="translate(764.355469 0)"/>
      <use xlink:href="#DejaVuSans-61" transform="translate(805.46875 0)"/>
      <use xlink:href="#DejaVuSans-74" transform="translate(866.748047 0)"/>
      <use xlink:href="#DejaVuSans-69" transform="translate(905.957031 0)"/>
      <use xlink:href="#DejaVuSans-6f" transform="translate(933.740234 0)"/>
      <use xlink:href="#DejaVuSans-6e" transform="translate(994.921875 0)"/>
      <use xlink:href="#DejaVuSans-73" transform="translate(1058.300781 0)"/>
      <use xlink:href="#DejaVuSans-29" transform="translate(1110.400391 0)"/>
     </g>
    </g>
   </g>
   <g id="line2d_30">
    <path d="M 255.650368 171.780144 
L 253.650368 170.780144 
L 253.650368 172.780144 
z
" clip-path="url(#p5932db157c)" style="fill: #1f77b4; fill-opacity: 0.5; stroke: #1f77b4; stroke-opacity: 0.5; stroke-linejoin: miter"/>
   </g>
   <g id="line2d_31">
    <path d="M 255.650368 81.63636 
L 253.650368 80.63636 
L 253.650368 82.63636 
z
" clip-path="url(#p5932db157c)" style="fill: #1f77b4; fill-opacity: 0.5; stroke: #1f77b4; stroke-opacity: 0.5; stroke-linejoin: miter"/>
   </g>
   <g id="line2d_32">
    <path d="M 255.650368 182.131283 
L 253.650368 181.131283 
L 253.650368 183.131283 
z
" clip-path="url(#p5932db157c)" style="fill: #1f77b4; fill-opacity: 0.5; stroke: #1f77b4; stroke-opacity: 0.5; stroke-linejoin: miter"/>
   </g>
   <g id="line2d_33">
    <path d="M 255.650368 174.403143 
L 253.650368 173.403143 
L 253.650368 175.403143 
z
" clip-path="url(#p5932db157c)" style="fill: #1f77b4; fill-opacity: 0.5; stroke: #1f77b4; stroke-opacity: 0.5; stroke-linejoin: miter"/>
   </g>
   <g id="line2d_34">
    <path d="M 255.650368 86.027171 
L 253.650368 85.027171 
L 253.650368 87.027171 
z
" clip-path="url(#p5932db157c)" style="fill: #1f77b4; fill-opacity: 0.5; stroke: #1f77b4; stroke-opacity: 0.5; stroke-linejoin: miter"/>
   </g>
   <g id="line2d_35">
    <path d="M 255.650368 125.145916 
L 253.650368 124.145916 
L 253.650368 126.145916 
z
" clip-path="url(#p5932db157c)" style="fill: #1f77b4; fill-opacity: 0.5; stroke: #1f77b4; stroke-opacity: 0.5; stroke-linejoin: miter"/>
   </g>
   <g id="line2d_36">
    <path d="M 255.650368 96.708895 
L 253.650368 95.708895 
L 253.650368 97.708895 
z
" clip-path="url(#p5932db157c)" style="fill: #1f77b4; fill-opacity: 0.5; stroke: #1f77b4; stroke-opacity: 0.5; stroke-linejoin: miter"/>
   </g>
   <g id="line2d_37">
    <path d="M 255.650368 142.530237 
L 253.650368 141.530237 
L 253.650368 143.530237 
z
" clip-path="url(#p5932db157c)" style="fill: #1f77b4; fill-opacity: 0.5; stroke: #1f77b4; stroke-opacity: 0.5; stroke-linejoin: miter"/>
   </g>
   <g id="line2d_38">
    <path d="M 255.650368 172.299613 
L 253.650368 171.299613 
L 253.650368 173.299613 
z
" clip-path="url(#p5932db157c)" style="fill: #1f77b4; fill-opacity: 0.5; stroke: #1f77b4; stroke-opacity: 0.5; stroke-linejoin: miter"/>
   </g>
   <g id="line2d_39">
    <path d="M 255.650368 125.238603 
L 253.650368 124.238603 
L 253.650368 126.238603 
z
" clip-path="url(#p5932db157c)" style="fill: #1f77b4; fill-opacity: 0.5; stroke: #1f77b4; stroke-opacity: 0.5; stroke-linejoin: miter"/>
   </g>
   <g id="line2d_40">
    <path d="M 446.799004 83.617016 
L 444.799004 82.617016 
L 444.799004 84.617016 
z
" clip-path="url(#p5932db157c)" style="fill: #ff7f0e; fill-opacity: 0.5; stroke: #ff7f0e; stroke-opacity: 0.5; stroke-linejoin: miter"/>
   </g>
   <g id="line2d_41">
    <path d="M 446.799004 168.255779 
L 444.799004 167.255779 
L 444.799004 169.255779 
z
" clip-path="url(#p5932db157c)" style="fill: #ff7f0e; fill-opacity: 0.5; stroke: #ff7f0e; stroke-opacity: 0.5; stroke-linejoin: miter"/>
   </g>
   <g id="line2d_42">
    <path d="M 446.799004 97.655048 
L 444.799004 96.655048 
L 444.799004 98.655048 
z
" clip-path="url(#p5932db157c)" style="fill: #ff7f0e; fill-opacity: 0.5; stroke: #ff7f0e; stroke-opacity: 0.5; stroke-linejoin: miter"/>
   </g>
   <g id="line2d_43">
    <path d="M 446.799004 107.420144 
L 444.799004 106.420144 
L 444.799004 108.420144 
z
" clip-path="url(#p5932db157c)" style="fill: #ff7f0e; fill-opacity: 0.5; stroke: #ff7f0e; stroke-opacity: 0.5; stroke-linejoin: miter"/>
   </g>
   <g id="line2d_44">
    <path d="M 446.799004 160.362588 
L 444.799004 159.362588 
L 444.799004 161.362588 
z
" clip-path="url(#p5932db157c)" style="fill: #ff7f0e; fill-opacity: 0.5; stroke: #ff7f0e; stroke-opacity: 0.5; stroke-linejoin: miter"/>
   </g>
   <g id="line2d_45">
    <path d="M 446.799004 183.244072 
L 444.799004 182.244072 
L 444.799004 184.244072 
z
" clip-path="url(#p5932db157c)" style="fill: #ff7f0e; fill-opacity: 0.5; stroke: #ff7f0e; stroke-opacity: 0.5; stroke-linejoin: miter"/>
   </g>
   <g id="line2d_46">
    <path d="M 446.799004 130.139213 
L 444.799004 129.139213 
L 444.799004 131.139213 
z
" clip-path="url(#p5932db157c)" style="fill: #ff7f0e; fill-opacity: 0.5; stroke: #ff7f0e; stroke-opacity: 0.5; stroke-linejoin: miter"/>
   </g>
   <g id="line2d_47">
    <path d="M 446.799004 146.793724 
L 444.799004 145.793724 
L 444.799004 147.793724 
z
" clip-path="url(#p5932db157c)" style="fill: #ff7f0e; fill-opacity: 0.5; stroke: #ff7f0e; stroke-opacity: 0.5; stroke-linejoin: miter"/>
   </g>
   <g id="line2d_48">
    <path d="M 446.799004 120.839972 
L 444.799004 119.839972 
L 444.799004 121.839972 
z
" clip-path="url(#p5932db157c)" style="fill: #ff7f0e; fill-opacity: 0.5; stroke: #ff7f0e; stroke-opacity: 0.5; stroke-linejoin: miter"/>
   </g>
   <g id="line2d_49">
    <path d="M 446.799004 107.250328 
L 444.799004 106.250328 
L 444.799004 108.250328 
z
" clip-path="url(#p5932db157c)" style="fill: #ff7f0e; fill-opacity: 0.5; stroke: #ff7f0e; stroke-opacity: 0.5; stroke-linejoin: miter"/>
   </g>
   <g id="patch_6">
    <path d="M 43.78125 318.021875 
L 43.78125 22.318125 
" style="fill: none; stroke: #000000; stroke-width: 0.8; stroke-linejoin: miter; stroke-linecap: square"/>
   </g>
   <g id="text_11">
    <!-- defaults_migration_properties.yaml -->
    <g transform="translate(215.434687 16.318125) scale(0.12 -0.12)">
     <defs>
      <path id="DejaVuSans-66" d="M 2375 4863 
L 2375 4384 
L 1825 4384 
Q 1516 4384 1395 4259 
Q 1275 4134 1275 3809 
L 1275 3500 
L 2222 3500 
L 2222 3053 
L 1275 3053 
L 1275 0 
L 697 0 
L 697 3053 
L 147 3053 
L 147 3500 
L 697 3500 
L 697 3744 
Q 697 4328 969 4595 
Q 1241 4863 1831 4863 
L 2375 4863 
z
" transform="scale(0.015625)"/>
      <path id="DejaVuSans-75" d="M 544 1381 
L 544 3500 
L 1119 3500 
L 1119 1403 
Q 1119 906 1312 657 
Q 1506 409 1894 409 
Q 2359 409 2629 706 
Q 2900 1003 2900 1516 
L 2900 3500 
L 3475 3500 
L 3475 0 
L 2900 0 
L 2900 538 
Q 2691 219 2414 64 
Q 2138 -91 1772 -91 
Q 1169 -91 856 284 
Q 544 659 544 1381 
z
M 1991 3584 
L 1991 3584 
z
" transform="scale(0.015625)"/>
      <path id="DejaVuSans-6c" d="M 603 4863 
L 1178 4863 
L 1178 0 
L 603 0 
L 603 4863 
z
" transform="scale(0.015625)"/>
      <path id="DejaVuSans-5f" d="M 3263 -1063 
L 3263 -1509 
L -63 -1509 
L -63 -1063 
L 3263 -1063 
z
" transform="scale(0.015625)"/>
      <path id="DejaVuSans-70" d="M 1159 525 
L 1159 -1331 
L 581 -1331 
L 581 3500 
L 1159 3500 
L 1159 2969 
Q 1341 3281 1617 3432 
Q 1894 3584 2278 3584 
Q 2916 3584 3314 3078 
Q 3713 2572 3713 1747 
Q 3713 922 3314 415 
Q 2916 -91 2278 -91 
Q 1894 -91 1617 61 
Q 1341 213 1159 525 
z
M 3116 1747 
Q 3116 2381 2855 2742 
Q 2594 3103 2138 3103 
Q 1681 3103 1420 2742 
Q 1159 2381 1159 1747 
Q 1159 1113 1420 752 
Q 1681 391 2138 391 
Q 2594 391 2855 752 
Q 3116 1113 3116 1747 
z
" transform="scale(0.015625)"/>
      <path id="DejaVuSans-79" d="M 2059 -325 
Q 1816 -950 1584 -1140 
Q 1353 -1331 966 -1331 
L 506 -1331 
L 506 -850 
L 844 -850 
Q 1081 -850 1212 -737 
Q 1344 -625 1503 -206 
L 1606 56 
L 191 3500 
L 800 3500 
L 1894 763 
L 2988 3500 
L 3597 3500 
L 2059 -325 
z
" transform="scale(0.015625)"/>
     </defs>
     <use xlink:href="#DejaVuSans-64"/>
     <use xlink:href="#DejaVuSans-65" transform="translate(63.476562 0)"/>
     <use xlink:href="#DejaVuSans-66" transform="translate(125 0)"/>
     <use xlink:href="#DejaVuSans-61" transform="translate(160.205078 0)"/>
     <use xlink:href="#DejaVuSans-75" transform="translate(221.484375 0)"/>
     <use xlink:href="#DejaVuSans-6c" transform="translate(284.863281 0)"/>
     <use xlink:href="#DejaVuSans-74" transform="translate(312.646484 0)"/>
     <use xlink:href="#DejaVuSans-73" transform="translate(351.855469 0)"/>
     <use xlink:href="#DejaVuSans-5f" transform="translate(403.955078 0)"/>
     <use xlink:href="#DejaVuSans-6d" transform="translate(453.955078 0)"/>
     <use xlink:href="#DejaVuSans-69" transform="translate(551.367188 0)"/>
     <use xlink:href="#DejaVuSans-67" transform="translate(579.150391 0)"/>
     <use xlink:href="#DejaVuSans-72" transform="translate(642.626953 0)"/>
     <use xlink:href="#DejaVuSans-61" transform="translate(683.740234 0)"/>
     <use xlink:href="#DejaVuSans-74" transform="translate(745.019531 0)"/>
     <use xlink:href="#DejaVuSans-69" transform="translate(784.228516 0)"/>
     <use xlink:href="#DejaVuSans-6f" transform="translate(812.011719 0)"/>
     <use xlink:href="#DejaVuSans-6e" transform="translate(873.193359 0)"/>
     <use xlink:href="#DejaVuSans-5f" transform="translate(936.572266 0)"/>
     <use xlink:href="#DejaVuSans-70" transform="translate(986.572266 0)"/>
     <use xlink:href="#DejaVuSans-72" transform="translate(1050.048828 0)"/>
     <use xlink:href="#DejaVuSans-6f" transform="translate(1088.912109 0)"/>
     <use xlink:href="#DejaVuSans-70" transform="translate(1150.09375 0)"/>
     <use xlink:href="#DejaVuSans-65" transform="translate(1213.570312 0)"/>
     <use xlink:href="#DejaVuSans-72" transform="translate(1275.09375 0)"/>
     <use xlink:href="#DejaVuSans-74" transform="translate(1316.207031 0)"/>
     <use xlink:href="#DejaVuSans-69" transform="translate(1355.416016 0)"/>
     <use xlink:href="#DejaVuSans-65" transform="translate(1383.199219 0)"/>
     <use xlink:href="#DejaVuSans-73" transform="translate(1444.722656 0)"/>
     <use xlink:href="#DejaVuSans-2e" transform="translate(1496.822266 0)"/>
     <use xlink:href="#DejaVuSans-79" transform="translate(1528.609375 0)"/>
     <use xlink:href="#DejaVuSans-61" transform="translate(1587.789062 0)"/>
     <use xlink:href="#DejaVuSans-6d" transform="translate(1649.068359 0)"/>
     <use xlink:href="#DejaVuSans-6c" transform="translate(1746.480469 0)"/>
    </g>
   </g>
  </g>
 </g>
 <defs>
  <clipPath id="p5932db157c">
   <rect x="43.78125" y="22.318125" width="556.21875" height="295.70375"/>
  </clipPath>
 </defs>
</svg>