<?xml version="1.0" encoding="utf-8" standalone="no"?>
<!DOCTYPE svg PUBLIC "-//W3C//DTD SVG 1.1//EN"
  "http://www.w3.org/Graphics/SVG/1.1/DTD/svg11.dtd">
<svg xmlns:xlink="http://www.w3.org/1999/xlink" width="607.2pt" height="338.4pt" viewBox="0 0 607.2 338.4" xmlns="http://www.w3.org/2000/svg" version="1.1">
 <metadata>
  <rdf:RDF xmlns:dc="http://purl.org/dc/elements/1.1/" xmlns:cc="http://creativecommons.org/ns#" xmlns:rdf="http://www.w3.org/1999/02/22-rdf-syntax-ns#">
   <cc:Work>
    <dc:type rdf:resource="http://purl.org/dc/dcmitype/StillImage"/>
    <dc:date>2024-04-15T08:29:35.529164</dc:date>
    <dc:format>image/svg+xml</dc:format>
    <dc:creator>
     <cc:Agent>
      <dc:title>Matplotlib v3.7.2, https://matplotlib.org/</dc:title>
     </cc:Agent>
    </dc:creator>
   </cc:Work>
  </rdf:RDF>
 </metadata>
 <defs>
  <style type="text/css">*{stroke-linejoin: round; stroke-linecap: butt}</style>
 </defs>
 <g id="figure_1">
  <g id="patch_1">
   <path d="M 0 338.4 
L 607.2 338.4 
L 607.2 0 
L 0 0 
z
" style="fill: #ffffff"/>
  </g>
  <g id="axes_1">
   <g id="patch_2">
    <path d="M 43.78125 318.021875 
L 600 318.021875 
L 600 22.318125 
L 43.78125 22.318125 
z
" style="fill: #ffffff"/>
   </g>
   <path d="M 353.703533 158.795025 
L 352.703533 158.763589 
L 351.703533 158.726648 
L 350.703533 158.628902 
L 349.703533 158.59638 
L 348.703533 158.522756 
L 347.703533 158.48419 
L 346.703533 158.448777 
L 345.703533 158.391137 
L 344.703533 158.320751 
L 343.703533 158.268787 
L 342.703533 158.209697 
L 341.703533 158.121376 
L 340.703533 158.075231 
L 339.703533 158.032821 
L 338.703533 158.002328 
L 337.703533 157.976283 
L 336.703533 157.955083 
L 335.703533 157.900782 
L 334.703533 157.872844 
L 333.703533 157.84312 
L 332.703533 157.817725 
L 331.703533 157.806525 
L 330.703533 157.796401 
L 329.703533 157.796605 
L 328.703533 157.806115 
L 327.703533 157.817769 
L 326.703533 157.848798 
L 325.703533 157.859966 
L 324.703533 157.890084 
L 323.703533 157.94986 
L 322.703533 157.987052 
L 321.703533 158.026148 
L 320.703533 158.068588 
L 319.703533 158.101353 
L 318.703533 158.168779 
L 317.703533 158.207905 
L 316.703533 158.25058 
L 315.703533 158.32116 
L 314.703533 158.357551 
L 313.703533 158.415954 
L 312.703533 158.526907 
L 311.703533 158.597565 
L 310.703533 158.710505 
L 309.703533 158.756278 
L 308.703533 158.817561 
L 307.703533 158.866061 
L 306.703533 158.946883 
L 305.703533 159.065402 
L 304.703533 159.135613 
L 303.703533 159.218875 
L 302.703533 159.252017 
L 301.703533 159.303254 
L 300.703533 159.371653 
L 299.703533 159.437868 
L 298.703533 159.514785 
L 297.703533 159.542101 
L 296.703533 159.568578 
L 295.703533 159.591229 
L 294.703533 159.61076 
L 293.703533 159.637154 
L 292.703533 159.686925 
L 291.703533 159.721998 
L 290.077717 159.757864 
" clip-path="url(#p462a90ead0)" style="fill: none; stroke: #ff7f0e; stroke-opacity: 0.5; stroke-width: 0.2; stroke-linecap: square"/>
   <path d="M 353.703533 127.702505 
L 352.703533 127.671068 
L 351.703533 127.634128 
L 350.703533 127.536382 
L 349.703533 127.50386 
L 348.703533 127.430235 
L 347.703533 127.39167 
L 346.703533 127.356256 
L 345.703533 127.298617 
L 344.703533 127.22823 
L 343.703533 127.176266 
L 342.703533 127.117176 
L 341.703533 127.028855 
L 340.703533 126.982711 
L 339.703533 126.9403 
L 338.703533 126.909808 
L 337.703533 126.883763 
L 336.703533 126.862562 
L 335.703533 126.808261 
L 334.703533 126.780324 
L 333.703533 126.7506 
L 332.703533 126.725205 
L 331.703533 126.714005 
L 330.703533 126.703881 
L 329.703533 126.704085 
L 328.703533 126.713595 
L 327.703533 126.725248 
L 326.703533 126.756278 
L 325.703533 126.767446 
L 324.703533 126.797563 
L 323.703533 126.85734 
L 322.703533 126.894532 
L 321.703533 126.933628 
L 320.703533 126.976067 
L 319.703533 127.008832 
L 318.703533 127.076259 
L 317.703533 127.115385 
L 316.703533 127.158059 
L 315.703533 127.22864 
L 314.703533 127.265031 
L 313.703533 127.323434 
L 312.703533 127.434387 
L 311.703533 127.505045 
L 310.703533 127.617985 
L 309.703533 127.663758 
L 308.703533 127.725041 
L 307.703533 127.77354 
L 306.703533 127.854363 
L 305.703533 127.972882 
L 304.703533 128.043092 
L 303.703533 128.126355 
L 302.703533 128.159497 
L 301.703533 128.210734 
L 300.703533 128.279132 
L 299.703533 128.345348 
L 298.703533 128.422265 
L 297.703533 128.44958 
L 296.703533 128.476058 
L 295.703533 128.498709 
L 294.703533 128.51824 
L 293.703533 128.544634 
L 292.703533 128.594405 
L 291.703533 128.629478 
L 290.077717 128.665343 
" clip-path="url(#p462a90ead0)" style="fill: none; stroke: #ff7f0e; stroke-opacity: 0.5; stroke-width: 0.2; stroke-linecap: square"/>
   <path d="M 353.703533 167.96843 
L 352.703533 167.936993 
L 351.703533 167.900053 
L 350.703533 167.802307 
L 349.703533 167.769785 
L 348.703533 167.69616 
L 347.703533 167.657595 
L 346.703533 167.622182 
L 345.703533 167.564542 
L 344.703533 167.494155 
L 343.703533 167.442191 
L 342.703533 167.383101 
L 341.703533 167.29478 
L 340.703533 167.248636 
L 339.703533 167.206225 
L 338.703533 167.175733 
L 337.703533 167.149688 
L 336.703533 167.128488 
L 335.703533 167.074186 
L 334.703533 167.046249 
L 333.703533 167.016525 
L 332.703533 166.99113 
L 331.703533 166.97993 
L 330.703533 166.969806 
L 329.703533 166.97001 
L 328.703533 166.97952 
L 327.703533 166.991174 
L 326.703533 167.022203 
L 325.703533 167.033371 
L 324.703533 167.063488 
L 323.703533 167.123265 
L 322.703533 167.160457 
L 321.703533 167.199553 
L 320.703533 167.241992 
L 319.703533 167.274758 
L 318.703533 167.342184 
L 317.703533 167.38131 
L 316.703533 167.423984 
L 315.703533 167.494565 
L 314.703533 167.530956 
L 313.703533 167.589359 
L 312.703533 167.700312 
L 311.703533 167.77097 
L 310.703533 167.88391 
L 309.703533 167.929683 
L 308.703533 167.990966 
L 307.703533 168.039465 
L 306.703533 168.120288 
L 305.703533 168.238807 
L 304.703533 168.309018 
L 303.703533 168.39228 
L 302.703533 168.425422 
L 301.703533 168.476659 
L 300.703533 168.545057 
L 299.703533 168.611273 
L 298.703533 168.68819 
L 297.703533 168.715505 
L 296.703533 168.741983 
L 295.703533 168.764634 
L 294.703533 168.784165 
L 293.703533 168.810559 
L 292.703533 168.86033 
L 291.703533 168.895403 
L 290.077717 168.931268 
" clip-path="url(#p462a90ead0)" style="fill: none; stroke: #ff7f0e; stroke-opacity: 0.5; stroke-width: 0.2; stroke-linecap: square"/>
   <path d="M 353.703533 180.083875 
L 352.703533 180.052439 
L 351.703533 180.015498 
L 350.703533 179.917752 
L 349.703533 179.88523 
L 348.703533 179.811605 
L 347.703533 179.77304 
L 346.703533 179.737627 
L 345.703533 179.679987 
L 344.703533 179.609601 
L 343.703533 179.557636 
L 342.703533 179.498547 
L 341.703533 179.410226 
L 340.703533 179.364081 
L 339.703533 179.32167 
L 338.703533 179.291178 
L 337.703533 179.265133 
L 336.703533 179.243933 
L 335.703533 179.189632 
L 334.703533 179.161694 
L 333.703533 179.13197 
L 332.703533 179.106575 
L 331.703533 179.095375 
L 330.703533 179.085251 
L 329.703533 179.085455 
L 328.703533 179.094965 
L 327.703533 179.106619 
L 326.703533 179.137648 
L 325.703533 179.148816 
L 324.703533 179.178933 
L 323.703533 179.23871 
L 322.703533 179.275902 
L 321.703533 179.314998 
L 320.703533 179.357438 
L 319.703533 179.390203 
L 318.703533 179.457629 
L 317.703533 179.496755 
L 316.703533 179.53943 
L 315.703533 179.61001 
L 314.703533 179.646401 
L 313.703533 179.704804 
L 312.703533 179.815757 
L 311.703533 179.886415 
L 310.703533 179.999355 
L 309.703533 180.045128 
L 308.703533 180.106411 
L 307.703533 180.15491 
L 306.703533 180.235733 
L 305.703533 180.354252 
L 304.703533 180.424463 
L 303.703533 180.507725 
L 302.703533 180.540867 
L 301.703533 180.592104 
L 300.703533 180.660503 
L 299.703533 180.726718 
L 298.703533 180.803635 
L 297.703533 180.830951 
L 296.703533 180.857428 
L 295.703533 180.880079 
L 294.703533 180.89961 
L 293.703533 180.926004 
L 292.703533 180.975775 
L 291.703533 181.010848 
L 290.077717 181.046714 
" clip-path="url(#p462a90ead0)" style="fill: none; stroke: #ff7f0e; stroke-opacity: 0.5; stroke-width: 0.2; stroke-linecap: square"/>
   <path d="M 353.703533 123.713234 
L 352.703533 123.681797 
L 351.703533 123.644857 
L 350.703533 123.547111 
L 349.703533 123.514589 
L 348.703533 123.440964 
L 347.703533 123.402399 
L 346.703533 123.366986 
L 345.703533 123.309346 
L 344.703533 123.238959 
L 343.703533 123.186995 
L 342.703533 123.127905 
L 341.703533 123.039584 
L 340.703533 122.99344 
L 339.703533 122.951029 
L 338.703533 122.920537 
L 337.703533 122.894492 
L 336.703533 122.873291 
L 335.703533 122.81899 
L 334.703533 122.791053 
L 333.703533 122.761329 
L 332.703533 122.735934 
L 331.703533 122.724734 
L 330.703533 122.71461 
L 329.703533 122.714814 
L 328.703533 122.724324 
L 327.703533 122.735977 
L 326.703533 122.767007 
L 325.703533 122.778175 
L 324.703533 122.808292 
L 323.703533 122.868069 
L 322.703533 122.905261 
L 321.703533 122.944357 
L 320.703533 122.986796 
L 319.703533 123.019562 
L 318.703533 123.086988 
L 317.703533 123.126114 
L 316.703533 123.168788 
L 315.703533 123.239369 
L 314.703533 123.27576 
L 313.703533 123.334163 
L 312.703533 123.445116 
L 311.703533 123.515774 
L 310.703533 123.628714 
L 309.703533 123.674487 
L 308.703533 123.73577 
L 307.703533 123.784269 
L 306.703533 123.865092 
L 305.703533 123.983611 
L 304.703533 124.053821 
L 303.703533 124.137084 
L 302.703533 124.170226 
L 301.703533 124.221463 
L 300.703533 124.289861 
L 299.703533 124.356077 
L 298.703533 124.432994 
L 297.703533 124.460309 
L 296.703533 124.486787 
L 295.703533 124.509438 
L 294.703533 124.528969 
L 293.703533 124.555363 
L 292.703533 124.605134 
L 291.703533 124.640207 
L 290.077717 124.676072 
" clip-path="url(#p462a90ead0)" style="fill: none; stroke: #ff7f0e; stroke-opacity: 0.5; stroke-width: 0.2; stroke-linecap: square"/>
   <path d="M 353.703533 197.10054 
L 352.703533 197.069104 
L 351.703533 197.032163 
L 350.703533 196.934417 
L 349.703533 196.901895 
L 348.703533 196.82827 
L 347.703533 196.789705 
L 346.703533 196.754292 
L 345.703533 196.696652 
L 344.703533 196.626266 
L 343.703533 196.574301 
L 342.703533 196.515212 
L 341.703533 196.426891 
L 340.703533 196.380746 
L 339.703533 196.338335 
L 338.703533 196.307843 
L 337.703533 196.281798 
L 336.703533 196.260598 
L 335.703533 196.206297 
L 334.703533 196.178359 
L 333.703533 196.148635 
L 332.703533 196.12324 
L 331.703533 196.11204 
L 330.703533 196.101916 
L 329.703533 196.10212 
L 328.703533 196.11163 
L 327.703533 196.123284 
L 326.703533 196.154313 
L 325.703533 196.165481 
L 324.703533 196.195598 
L 323.703533 196.255375 
L 322.703533 196.292567 
L 321.703533 196.331663 
L 320.703533 196.374103 
L 319.703533 196.406868 
L 318.703533 196.474294 
L 317.703533 196.51342 
L 316.703533 196.556095 
L 315.703533 196.626675 
L 314.703533 196.663066 
L 313.703533 196.721469 
L 312.703533 196.832422 
L 311.703533 196.90308 
L 310.703533 197.01602 
L 309.703533 197.061793 
L 308.703533 197.123076 
L 307.703533 197.171575 
L 306.703533 197.252398 
L 305.703533 197.370917 
L 304.703533 197.441128 
L 303.703533 197.52439 
L 302.703533 197.557532 
L 301.703533 197.608769 
L 300.703533 197.677168 
L 299.703533 197.743383 
L 298.703533 197.8203 
L 297.703533 197.847616 
L 296.703533 197.874093 
L 295.703533 197.896744 
L 294.703533 197.916275 
L 293.703533 197.942669 
L 292.703533 197.99244 
L 291.703533 198.027513 
L 290.077717 198.063379 
" clip-path="url(#p462a90ead0)" style="fill: none; stroke: #ff7f0e; stroke-opacity: 0.5; stroke-width: 0.2; stroke-linecap: square"/>
   <path d="M 353.703533 86.766245 
L 352.703533 86.734808 
L 351.703533 86.697868 
L 350.703533 86.600122 
L 349.703533 86.5676 
L 348.703533 86.493975 
L 347.703533 86.45541 
L 346.703533 86.419997 
L 345.703533 86.362357 
L 344.703533 86.29197 
L 343.703533 86.240006 
L 342.703533 86.180916 
L 341.703533 86.092595 
L 340.703533 86.046451 
L 339.703533 86.00404 
L 338.703533 85.973548 
L 337.703533 85.947503 
L 336.703533 85.926303 
L 335.703533 85.872001 
L 334.703533 85.844064 
L 333.703533 85.81434 
L 332.703533 85.788945 
L 331.703533 85.777745 
L 330.703533 85.767621 
L 329.703533 85.767825 
L 328.703533 85.777335 
L 327.703533 85.788988 
L 326.703533 85.820018 
L 325.703533 85.831186 
L 324.703533 85.861303 
L 323.703533 85.92108 
L 322.703533 85.958272 
L 321.703533 85.997368 
L 320.703533 86.039807 
L 319.703533 86.072573 
L 318.703533 86.139999 
L 317.703533 86.179125 
L 316.703533 86.221799 
L 315.703533 86.29238 
L 314.703533 86.328771 
L 313.703533 86.387174 
L 312.703533 86.498127 
L 311.703533 86.568785 
L 310.703533 86.681725 
L 309.703533 86.727498 
L 308.703533 86.788781 
L 307.703533 86.83728 
L 306.703533 86.918103 
L 305.703533 87.036622 
L 304.703533 87.106832 
L 303.703533 87.190095 
L 302.703533 87.223237 
L 301.703533 87.274474 
L 300.703533 87.342872 
L 299.703533 87.409088 
L 298.703533 87.486005 
L 297.703533 87.51332 
L 296.703533 87.539798 
L 295.703533 87.562449 
L 294.703533 87.58198 
L 293.703533 87.608374 
L 292.703533 87.658145 
L 291.703533 87.693218 
L 290.077717 87.729083 
" clip-path="url(#p462a90ead0)" style="fill: none; stroke: #ff7f0e; stroke-opacity: 0.5; stroke-width: 0.2; stroke-linecap: square"/>
   <path d="M 353.703533 167.869217 
L 352.703533 167.837781 
L 351.703533 167.800841 
L 350.703533 167.703094 
L 349.703533 167.670573 
L 348.703533 167.596948 
L 347.703533 167.558382 
L 346.703533 167.522969 
L 345.703533 167.465329 
L 344.703533 167.394943 
L 343.703533 167.342979 
L 342.703533 167.283889 
L 341.703533 167.195568 
L 340.703533 167.149424 
L 339.703533 167.107013 
L 338.703533 167.07652 
L 337.703533 167.050475 
L 336.703533 167.029275 
L 335.703533 166.974974 
L 334.703533 166.947036 
L 333.703533 166.917312 
L 332.703533 166.891918 
L 331.703533 166.880717 
L 330.703533 166.870593 
L 329.703533 166.870798 
L 328.703533 166.880308 
L 327.703533 166.891961 
L 326.703533 166.92299 
L 325.703533 166.934158 
L 324.703533 166.964276 
L 323.703533 167.024053 
L 322.703533 167.061244 
L 321.703533 167.10034 
L 320.703533 167.14278 
L 319.703533 167.175545 
L 318.703533 167.242972 
L 317.703533 167.282098 
L 316.703533 167.324772 
L 315.703533 167.395353 
L 314.703533 167.431744 
L 313.703533 167.490147 
L 312.703533 167.601099 
L 311.703533 167.671758 
L 310.703533 167.784697 
L 309.703533 167.83047 
L 308.703533 167.891754 
L 307.703533 167.940253 
L 306.703533 168.021076 
L 305.703533 168.139594 
L 304.703533 168.209805 
L 303.703533 168.293068 
L 302.703533 168.326209 
L 301.703533 168.377447 
L 300.703533 168.445845 
L 299.703533 168.51206 
L 298.703533 168.588978 
L 297.703533 168.616293 
L 296.703533 168.642771 
L 295.703533 168.665421 
L 294.703533 168.684952 
L 293.703533 168.711346 
L 292.703533 168.761117 
L 291.703533 168.79619 
L 290.077717 168.832056 
" clip-path="url(#p462a90ead0)" style="fill: none; stroke: #ff7f0e; stroke-opacity: 0.5; stroke-width: 0.2; stroke-linecap: square"/>
   <path d="M 353.703533 158.52366 
L 352.703533 158.492223 
L 351.703533 158.455283 
L 350.703533 158.357537 
L 349.703533 158.325015 
L 348.703533 158.25139 
L 347.703533 158.212825 
L 346.703533 158.177411 
L 345.703533 158.119772 
L 344.703533 158.049385 
L 343.703533 157.997421 
L 342.703533 157.938331 
L 341.703533 157.85001 
L 340.703533 157.803866 
L 339.703533 157.761455 
L 338.703533 157.730963 
L 337.703533 157.704918 
L 336.703533 157.683717 
L 335.703533 157.629416 
L 334.703533 157.601479 
L 333.703533 157.571755 
L 332.703533 157.54636 
L 331.703533 157.53516 
L 330.703533 157.525036 
L 329.703533 157.52524 
L 328.703533 157.53475 
L 327.703533 157.546403 
L 326.703533 157.577433 
L 325.703533 157.588601 
L 324.703533 157.618718 
L 323.703533 157.678495 
L 322.703533 157.715687 
L 321.703533 157.754783 
L 320.703533 157.797222 
L 319.703533 157.829987 
L 318.703533 157.897414 
L 317.703533 157.93654 
L 316.703533 157.979214 
L 315.703533 158.049795 
L 314.703533 158.086186 
L 313.703533 158.144589 
L 312.703533 158.255542 
L 311.703533 158.3262 
L 310.703533 158.43914 
L 309.703533 158.484913 
L 308.703533 158.546196 
L 307.703533 158.594695 
L 306.703533 158.675518 
L 305.703533 158.794037 
L 304.703533 158.864247 
L 303.703533 158.94751 
L 302.703533 158.980652 
L 301.703533 159.031889 
L 300.703533 159.100287 
L 299.703533 159.166503 
L 298.703533 159.24342 
L 297.703533 159.270735 
L 296.703533 159.297213 
L 295.703533 159.319864 
L 294.703533 159.339395 
L 293.703533 159.365789 
L 292.703533 159.41556 
L 291.703533 159.450633 
L 290.077717 159.486498 
" clip-path="url(#p462a90ead0)" style="fill: none; stroke: #ff7f0e; stroke-opacity: 0.5; stroke-width: 0.2; stroke-linecap: square"/>
   <path d="M 353.703533 95.825441 
L 352.703533 95.794004 
L 351.703533 95.757064 
L 350.703533 95.659317 
L 349.703533 95.626796 
L 348.703533 95.553171 
L 347.703533 95.514605 
L 346.703533 95.479192 
L 345.703533 95.421552 
L 344.703533 95.351166 
L 343.703533 95.299202 
L 342.703533 95.240112 
L 341.703533 95.151791 
L 340.703533 95.105647 
L 339.703533 95.063236 
L 338.703533 95.032743 
L 337.703533 95.006698 
L 336.703533 94.985498 
L 335.703533 94.931197 
L 334.703533 94.90326 
L 333.703533 94.873536 
L 332.703533 94.848141 
L 331.703533 94.83694 
L 330.703533 94.826816 
L 329.703533 94.827021 
L 328.703533 94.836531 
L 327.703533 94.848184 
L 326.703533 94.879213 
L 325.703533 94.890381 
L 324.703533 94.920499 
L 323.703533 94.980276 
L 322.703533 95.017467 
L 321.703533 95.056563 
L 320.703533 95.099003 
L 319.703533 95.131768 
L 318.703533 95.199195 
L 317.703533 95.238321 
L 316.703533 95.280995 
L 315.703533 95.351576 
L 314.703533 95.387967 
L 313.703533 95.44637 
L 312.703533 95.557322 
L 311.703533 95.627981 
L 310.703533 95.740921 
L 309.703533 95.786693 
L 308.703533 95.847977 
L 307.703533 95.896476 
L 306.703533 95.977299 
L 305.703533 96.095818 
L 304.703533 96.166028 
L 303.703533 96.249291 
L 302.703533 96.282432 
L 301.703533 96.33367 
L 300.703533 96.402068 
L 299.703533 96.468284 
L 298.703533 96.545201 
L 297.703533 96.572516 
L 296.703533 96.598994 
L 295.703533 96.621644 
L 294.703533 96.641176 
L 293.703533 96.667569 
L 292.703533 96.71734 
L 291.703533 96.752413 
L 290.077717 96.788279 
" clip-path="url(#p462a90ead0)" style="fill: none; stroke: #ff7f0e; stroke-opacity: 0.5; stroke-width: 0.2; stroke-linecap: square"/>
   <path d="M 290.077717 152.822873 
L 291.077717 152.854309 
L 292.077717 152.89125 
L 293.077717 152.988996 
L 294.077717 153.021518 
L 295.077717 153.095143 
L 296.077717 153.133708 
L 297.077717 153.169121 
L 298.077717 153.226761 
L 299.077717 153.297148 
L 300.077717 153.349112 
L 301.077717 153.408202 
L 302.077717 153.496522 
L 303.077717 153.542667 
L 304.077717 153.585078 
L 305.077717 153.61557 
L 306.077717 153.641615 
L 307.077717 153.662815 
L 308.077717 153.717117 
L 309.077717 153.745054 
L 310.077717 153.774778 
L 311.077717 153.800173 
L 312.077717 153.811373 
L 313.077717 153.821497 
L 314.077717 153.821293 
L 315.077717 153.811783 
L 316.077717 153.800129 
L 317.077717 153.7691 
L 318.077717 153.757932 
L 319.077717 153.727815 
L 320.077717 153.668038 
L 321.077717 153.630846 
L 322.077717 153.59175 
L 323.077717 153.549311 
L 324.077717 153.516545 
L 325.077717 153.449119 
L 326.077717 153.409993 
L 327.077717 153.367319 
L 328.077717 153.296738 
L 329.077717 153.260347 
L 330.077717 153.201944 
L 331.077717 153.090991 
L 332.077717 153.020333 
L 333.077717 152.907393 
L 334.077717 152.86162 
L 335.077717 152.800337 
L 336.077717 152.751838 
L 337.077717 152.671015 
L 338.077717 152.552496 
L 339.077717 152.482285 
L 340.077717 152.399023 
L 341.077717 152.365881 
L 342.077717 152.314644 
L 343.077717 152.246246 
L 344.077717 152.18003 
L 345.077717 152.103113 
L 346.077717 152.075798 
L 347.077717 152.04932 
L 348.077717 152.026669 
L 349.077717 152.007138 
L 350.077717 151.980744 
L 351.077717 151.930973 
L 352.077717 151.8959 
L 353.703533 151.860035 
" clip-path="url(#p462a90ead0)" style="fill: none; stroke: #1f77b4; stroke-opacity: 0.5; stroke-width: 0.2; stroke-linecap: square"/>
   <path d="M 290.077717 154.315846 
L 291.077717 154.347283 
L 292.077717 154.384223 
L 293.077717 154.48197 
L 294.077717 154.514491 
L 295.077717 154.588116 
L 296.077717 154.626681 
L 297.077717 154.662095 
L 298.077717 154.719735 
L 299.077717 154.790121 
L 300.077717 154.842085 
L 301.077717 154.901175 
L 302.077717 154.989496 
L 303.077717 155.03564 
L 304.077717 155.078051 
L 305.077717 155.108544 
L 306.077717 155.134589 
L 307.077717 155.155789 
L 308.077717 155.21009 
L 309.077717 155.238027 
L 310.077717 155.267751 
L 311.077717 155.293146 
L 312.077717 155.304347 
L 313.077717 155.31447 
L 314.077717 155.314266 
L 315.077717 155.304756 
L 316.077717 155.293103 
L 317.077717 155.262073 
L 318.077717 155.250906 
L 319.077717 155.220788 
L 320.077717 155.161011 
L 321.077717 155.12382 
L 322.077717 155.084723 
L 323.077717 155.042284 
L 324.077717 155.009519 
L 325.077717 154.942092 
L 326.077717 154.902966 
L 327.077717 154.860292 
L 328.077717 154.789711 
L 329.077717 154.75332 
L 330.077717 154.694917 
L 331.077717 154.583965 
L 332.077717 154.513306 
L 333.077717 154.400366 
L 334.077717 154.354594 
L 335.077717 154.29331 
L 336.077717 154.244811 
L 337.077717 154.163988 
L 338.077717 154.045469 
L 339.077717 153.975259 
L 340.077717 153.891996 
L 341.077717 153.858854 
L 342.077717 153.807617 
L 343.077717 153.739219 
L 344.077717 153.673003 
L 345.077717 153.596086 
L 346.077717 153.568771 
L 347.077717 153.542293 
L 348.077717 153.519643 
L 349.077717 153.500111 
L 350.077717 153.473717 
L 351.077717 153.423947 
L 352.077717 153.388873 
L 353.703533 153.353008 
" clip-path="url(#p462a90ead0)" style="fill: none; stroke: #1f77b4; stroke-opacity: 0.5; stroke-width: 0.2; stroke-linecap: square"/>
   <path d="M 290.077717 194.171439 
L 291.077717 194.202876 
L 292.077717 194.239816 
L 293.077717 194.337563 
L 294.077717 194.370084 
L 295.077717 194.443709 
L 296.077717 194.482274 
L 297.077717 194.517688 
L 298.077717 194.575328 
L 299.077717 194.645714 
L 300.077717 194.697678 
L 301.077717 194.756768 
L 302.077717 194.845089 
L 303.077717 194.891233 
L 304.077717 194.933644 
L 305.077717 194.964137 
L 306.077717 194.990182 
L 307.077717 195.011382 
L 308.077717 195.065683 
L 309.077717 195.09362 
L 310.077717 195.123344 
L 311.077717 195.148739 
L 312.077717 195.159939 
L 313.077717 195.170063 
L 314.077717 195.169859 
L 315.077717 195.160349 
L 316.077717 195.148696 
L 317.077717 195.117666 
L 318.077717 195.106498 
L 319.077717 195.076381 
L 320.077717 195.016604 
L 321.077717 194.979412 
L 322.077717 194.940316 
L 323.077717 194.897877 
L 324.077717 194.865112 
L 325.077717 194.797685 
L 326.077717 194.758559 
L 327.077717 194.715885 
L 328.077717 194.645304 
L 329.077717 194.608913 
L 330.077717 194.55051 
L 331.077717 194.439557 
L 332.077717 194.368899 
L 333.077717 194.255959 
L 334.077717 194.210186 
L 335.077717 194.148903 
L 336.077717 194.100404 
L 337.077717 194.019581 
L 338.077717 193.901062 
L 339.077717 193.830852 
L 340.077717 193.747589 
L 341.077717 193.714447 
L 342.077717 193.66321 
L 343.077717 193.594812 
L 344.077717 193.528596 
L 345.077717 193.451679 
L 346.077717 193.424364 
L 347.077717 193.397886 
L 348.077717 193.375236 
L 349.077717 193.355704 
L 350.077717 193.32931 
L 351.077717 193.27954 
L 352.077717 193.244466 
L 353.703533 193.208601 
" clip-path="url(#p462a90ead0)" style="fill: none; stroke: #1f77b4; stroke-opacity: 0.5; stroke-width: 0.2; stroke-linecap: square"/>
   <path d="M 290.077717 193.945133 
L 291.077717 193.97657 
L 292.077717 194.01351 
L 293.077717 194.111256 
L 294.077717 194.143778 
L 295.077717 194.217403 
L 296.077717 194.255968 
L 297.077717 194.291382 
L 298.077717 194.349021 
L 299.077717 194.419408 
L 300.077717 194.471372 
L 301.077717 194.530462 
L 302.077717 194.618783 
L 303.077717 194.664927 
L 304.077717 194.707338 
L 305.077717 194.73783 
L 306.077717 194.763875 
L 307.077717 194.785076 
L 308.077717 194.839377 
L 309.077717 194.867314 
L 310.077717 194.897038 
L 311.077717 194.922433 
L 312.077717 194.933633 
L 313.077717 194.943757 
L 314.077717 194.943553 
L 315.077717 194.934043 
L 316.077717 194.92239 
L 317.077717 194.89136 
L 318.077717 194.880192 
L 319.077717 194.850075 
L 320.077717 194.790298 
L 321.077717 194.753106 
L 322.077717 194.71401 
L 323.077717 194.671571 
L 324.077717 194.638806 
L 325.077717 194.571379 
L 326.077717 194.532253 
L 327.077717 194.489579 
L 328.077717 194.418998 
L 329.077717 194.382607 
L 330.077717 194.324204 
L 331.077717 194.213251 
L 332.077717 194.142593 
L 333.077717 194.029653 
L 334.077717 193.98388 
L 335.077717 193.922597 
L 336.077717 193.874098 
L 337.077717 193.793275 
L 338.077717 193.674756 
L 339.077717 193.604546 
L 340.077717 193.521283 
L 341.077717 193.488141 
L 342.077717 193.436904 
L 343.077717 193.368506 
L 344.077717 193.30229 
L 345.077717 193.225373 
L 346.077717 193.198058 
L 347.077717 193.17158 
L 348.077717 193.148929 
L 349.077717 193.129398 
L 350.077717 193.103004 
L 351.077717 193.053233 
L 352.077717 193.01816 
L 353.703533 192.982295 
" clip-path="url(#p462a90ead0)" style="fill: none; stroke: #1f77b4; stroke-opacity: 0.5; stroke-width: 0.2; stroke-linecap: square"/>
   <path d="M 290.077717 85.707772 
L 291.077717 85.739209 
L 292.077717 85.776149 
L 293.077717 85.873896 
L 294.077717 85.906417 
L 295.077717 85.980042 
L 296.077717 86.018608 
L 297.077717 86.054021 
L 298.077717 86.111661 
L 299.077717 86.182047 
L 300.077717 86.234011 
L 301.077717 86.293101 
L 302.077717 86.381422 
L 303.077717 86.427566 
L 304.077717 86.469977 
L 305.077717 86.50047 
L 306.077717 86.526515 
L 307.077717 86.547715 
L 308.077717 86.602016 
L 309.077717 86.629953 
L 310.077717 86.659677 
L 311.077717 86.685072 
L 312.077717 86.696273 
L 313.077717 86.706397 
L 314.077717 86.706192 
L 315.077717 86.696682 
L 316.077717 86.685029 
L 317.077717 86.653999 
L 318.077717 86.642832 
L 319.077717 86.612714 
L 320.077717 86.552937 
L 321.077717 86.515746 
L 322.077717 86.476649 
L 323.077717 86.43421 
L 324.077717 86.401445 
L 325.077717 86.334018 
L 326.077717 86.294892 
L 327.077717 86.252218 
L 328.077717 86.181637 
L 329.077717 86.145246 
L 330.077717 86.086843 
L 331.077717 85.975891 
L 332.077717 85.905232 
L 333.077717 85.792292 
L 334.077717 85.74652 
L 335.077717 85.685236 
L 336.077717 85.636737 
L 337.077717 85.555914 
L 338.077717 85.437395 
L 339.077717 85.367185 
L 340.077717 85.283922 
L 341.077717 85.250781 
L 342.077717 85.199543 
L 343.077717 85.131145 
L 344.077717 85.064929 
L 345.077717 84.988012 
L 346.077717 84.960697 
L 347.077717 84.934219 
L 348.077717 84.911569 
L 349.077717 84.892037 
L 350.077717 84.865643 
L 351.077717 84.815873 
L 352.077717 84.780799 
L 353.703533 84.744934 
" clip-path="url(#p462a90ead0)" style="fill: none; stroke: #1f77b4; stroke-opacity: 0.5; stroke-width: 0.2; stroke-linecap: square"/>
   <path d="M 290.077717 138.40637 
L 291.077717 138.437806 
L 292.077717 138.474747 
L 293.077717 138.572493 
L 294.077717 138.605015 
L 295.077717 138.67864 
L 296.077717 138.717205 
L 297.077717 138.752618 
L 298.077717 138.810258 
L 299.077717 138.880644 
L 300.077717 138.932609 
L 301.077717 138.991698 
L 302.077717 139.080019 
L 303.077717 139.126164 
L 304.077717 139.168575 
L 305.077717 139.199067 
L 306.077717 139.225112 
L 307.077717 139.246312 
L 308.077717 139.300613 
L 309.077717 139.328551 
L 310.077717 139.358275 
L 311.077717 139.38367 
L 312.077717 139.39487 
L 313.077717 139.404994 
L 314.077717 139.40479 
L 315.077717 139.39528 
L 316.077717 139.383626 
L 317.077717 139.352597 
L 318.077717 139.341429 
L 319.077717 139.311312 
L 320.077717 139.251535 
L 321.077717 139.214343 
L 322.077717 139.175247 
L 323.077717 139.132807 
L 324.077717 139.100042 
L 325.077717 139.032616 
L 326.077717 138.99349 
L 327.077717 138.950815 
L 328.077717 138.880235 
L 329.077717 138.843844 
L 330.077717 138.785441 
L 331.077717 138.674488 
L 332.077717 138.60383 
L 333.077717 138.49089 
L 334.077717 138.445117 
L 335.077717 138.383834 
L 336.077717 138.335335 
L 337.077717 138.254512 
L 338.077717 138.135993 
L 339.077717 138.065782 
L 340.077717 137.98252 
L 341.077717 137.949378 
L 342.077717 137.898141 
L 343.077717 137.829742 
L 344.077717 137.763527 
L 345.077717 137.68661 
L 346.077717 137.659294 
L 347.077717 137.632817 
L 348.077717 137.610166 
L 349.077717 137.590635 
L 350.077717 137.564241 
L 351.077717 137.51447 
L 352.077717 137.479397 
L 353.703533 137.443531 
" clip-path="url(#p462a90ead0)" style="fill: none; stroke: #1f77b4; stroke-opacity: 0.5; stroke-width: 0.2; stroke-linecap: square"/>
   <path d="M 290.077717 103.576862 
L 291.077717 103.608298 
L 292.077717 103.645239 
L 293.077717 103.742985 
L 294.077717 103.775507 
L 295.077717 103.849131 
L 296.077717 103.887697 
L 297.077717 103.92311 
L 298.077717 103.98075 
L 299.077717 104.051136 
L 300.077717 104.1031 
L 301.077717 104.16219 
L 302.077717 104.250511 
L 303.077717 104.296656 
L 304.077717 104.339066 
L 305.077717 104.369559 
L 306.077717 104.395604 
L 307.077717 104.416804 
L 308.077717 104.471105 
L 309.077717 104.499043 
L 310.077717 104.528767 
L 311.077717 104.554162 
L 312.077717 104.565362 
L 313.077717 104.575486 
L 314.077717 104.575282 
L 315.077717 104.565772 
L 316.077717 104.554118 
L 317.077717 104.523089 
L 318.077717 104.511921 
L 319.077717 104.481803 
L 320.077717 104.422027 
L 321.077717 104.384835 
L 322.077717 104.345739 
L 323.077717 104.303299 
L 324.077717 104.270534 
L 325.077717 104.203108 
L 326.077717 104.163982 
L 327.077717 104.121307 
L 328.077717 104.050727 
L 329.077717 104.014336 
L 330.077717 103.955933 
L 331.077717 103.84498 
L 332.077717 103.774322 
L 333.077717 103.661382 
L 334.077717 103.615609 
L 335.077717 103.554326 
L 336.077717 103.505826 
L 337.077717 103.425004 
L 338.077717 103.306485 
L 339.077717 103.236274 
L 340.077717 103.153012 
L 341.077717 103.11987 
L 342.077717 103.068633 
L 343.077717 103.000234 
L 344.077717 102.934019 
L 345.077717 102.857102 
L 346.077717 102.829786 
L 347.077717 102.803309 
L 348.077717 102.780658 
L 349.077717 102.761127 
L 350.077717 102.734733 
L 351.077717 102.684962 
L 352.077717 102.649889 
L 353.703533 102.614023 
" clip-path="url(#p462a90ead0)" style="fill: none; stroke: #1f77b4; stroke-opacity: 0.5; stroke-width: 0.2; stroke-linecap: square"/>
   <path d="M 290.077717 188.921455 
L 291.077717 188.952891 
L 292.077717 188.989831 
L 293.077717 189.087578 
L 294.077717 189.1201 
L 295.077717 189.193724 
L 296.077717 189.23229 
L 297.077717 189.267703 
L 298.077717 189.325343 
L 299.077717 189.395729 
L 300.077717 189.447693 
L 301.077717 189.506783 
L 302.077717 189.595104 
L 303.077717 189.641248 
L 304.077717 189.683659 
L 305.077717 189.714152 
L 306.077717 189.740197 
L 307.077717 189.761397 
L 308.077717 189.815698 
L 309.077717 189.843636 
L 310.077717 189.87336 
L 311.077717 189.898754 
L 312.077717 189.909955 
L 313.077717 189.920079 
L 314.077717 189.919875 
L 315.077717 189.910365 
L 316.077717 189.898711 
L 317.077717 189.867682 
L 318.077717 189.856514 
L 319.077717 189.826396 
L 320.077717 189.766619 
L 321.077717 189.729428 
L 322.077717 189.690332 
L 323.077717 189.647892 
L 324.077717 189.615127 
L 325.077717 189.547701 
L 326.077717 189.508575 
L 327.077717 189.4659 
L 328.077717 189.39532 
L 329.077717 189.358929 
L 330.077717 189.300525 
L 331.077717 189.189573 
L 332.077717 189.118915 
L 333.077717 189.005975 
L 334.077717 188.960202 
L 335.077717 188.898919 
L 336.077717 188.850419 
L 337.077717 188.769597 
L 338.077717 188.651078 
L 339.077717 188.580867 
L 340.077717 188.497605 
L 341.077717 188.464463 
L 342.077717 188.413226 
L 343.077717 188.344827 
L 344.077717 188.278612 
L 345.077717 188.201695 
L 346.077717 188.174379 
L 347.077717 188.147902 
L 348.077717 188.125251 
L 349.077717 188.10572 
L 350.077717 188.079326 
L 351.077717 188.029555 
L 352.077717 187.994482 
L 353.703533 187.958616 
" clip-path="url(#p462a90ead0)" style="fill: none; stroke: #1f77b4; stroke-opacity: 0.5; stroke-width: 0.2; stroke-linecap: square"/>
   <path d="M 290.077717 137.162064 
L 291.077717 137.193501 
L 292.077717 137.230441 
L 293.077717 137.328188 
L 294.077717 137.360709 
L 295.077717 137.434334 
L 296.077717 137.4729 
L 297.077717 137.508313 
L 298.077717 137.565953 
L 299.077717 137.636339 
L 300.077717 137.688303 
L 301.077717 137.747393 
L 302.077717 137.835714 
L 303.077717 137.881858 
L 304.077717 137.924269 
L 305.077717 137.954762 
L 306.077717 137.980807 
L 307.077717 138.002007 
L 308.077717 138.056308 
L 309.077717 138.084245 
L 310.077717 138.113969 
L 311.077717 138.139364 
L 312.077717 138.150565 
L 313.077717 138.160689 
L 314.077717 138.160484 
L 315.077717 138.150974 
L 316.077717 138.139321 
L 317.077717 138.108292 
L 318.077717 138.097124 
L 319.077717 138.067006 
L 320.077717 138.007229 
L 321.077717 137.970038 
L 322.077717 137.930942 
L 323.077717 137.888502 
L 324.077717 137.855737 
L 325.077717 137.78831 
L 326.077717 137.749184 
L 327.077717 137.70651 
L 328.077717 137.635929 
L 329.077717 137.599538 
L 330.077717 137.541135 
L 331.077717 137.430183 
L 332.077717 137.359524 
L 333.077717 137.246585 
L 334.077717 137.200812 
L 335.077717 137.139528 
L 336.077717 137.091029 
L 337.077717 137.010206 
L 338.077717 136.891687 
L 339.077717 136.821477 
L 340.077717 136.738214 
L 341.077717 136.705073 
L 342.077717 136.653835 
L 343.077717 136.585437 
L 344.077717 136.519221 
L 345.077717 136.442304 
L 346.077717 136.414989 
L 347.077717 136.388511 
L 348.077717 136.365861 
L 349.077717 136.346329 
L 350.077717 136.319936 
L 351.077717 136.270165 
L 352.077717 136.235092 
L 353.703533 136.199226 
" clip-path="url(#p462a90ead0)" style="fill: none; stroke: #1f77b4; stroke-opacity: 0.5; stroke-width: 0.2; stroke-linecap: square"/>
   <path d="M 290.077717 91.083544 
L 291.077717 91.114981 
L 292.077717 91.151921 
L 293.077717 91.249668 
L 294.077717 91.282189 
L 295.077717 91.355814 
L 296.077717 91.39438 
L 297.077717 91.429793 
L 298.077717 91.487433 
L 299.077717 91.557819 
L 300.077717 91.609783 
L 301.077717 91.668873 
L 302.077717 91.757194 
L 303.077717 91.803338 
L 304.077717 91.845749 
L 305.077717 91.876242 
L 306.077717 91.902287 
L 307.077717 91.923487 
L 308.077717 91.977788 
L 309.077717 92.005725 
L 310.077717 92.035449 
L 311.077717 92.060844 
L 312.077717 92.072045 
L 313.077717 92.082169 
L 314.077717 92.081964 
L 315.077717 92.072454 
L 316.077717 92.060801 
L 317.077717 92.029771 
L 318.077717 92.018604 
L 319.077717 91.988486 
L 320.077717 91.928709 
L 321.077717 91.891518 
L 322.077717 91.852421 
L 323.077717 91.809982 
L 324.077717 91.777217 
L 325.077717 91.70979 
L 326.077717 91.670664 
L 327.077717 91.62799 
L 328.077717 91.557409 
L 329.077717 91.521018 
L 330.077717 91.462615 
L 331.077717 91.351663 
L 332.077717 91.281004 
L 333.077717 91.168064 
L 334.077717 91.122292 
L 335.077717 91.061008 
L 336.077717 91.012509 
L 337.077717 90.931686 
L 338.077717 90.813167 
L 339.077717 90.742957 
L 340.077717 90.659694 
L 341.077717 90.626552 
L 342.077717 90.575315 
L 343.077717 90.506917 
L 344.077717 90.440701 
L 345.077717 90.363784 
L 346.077717 90.336469 
L 347.077717 90.309991 
L 348.077717 90.287341 
L 349.077717 90.267809 
L 350.077717 90.241415 
L 351.077717 90.191645 
L 352.077717 90.156571 
L 353.703533 90.120706 
" clip-path="url(#p462a90ead0)" style="fill: none; stroke: #1f77b4; stroke-opacity: 0.5; stroke-width: 0.2; stroke-linecap: square"/>
   <path d="M 353.703533 306.343295 
L 352.703533 306.311858 
L 351.703533 306.274918 
L 350.703533 306.177172 
L 349.703533 306.14465 
L 348.703533 306.071025 
L 347.703533 306.03246 
L 346.703533 305.997047 
L 345.703533 305.939407 
L 344.703533 305.86902 
L 343.703533 305.817056 
L 342.703533 305.757966 
L 341.703533 305.669645 
L 340.703533 305.623501 
L 339.703533 305.58109 
L 338.703533 305.550598 
L 337.703533 305.524553 
L 336.703533 305.503353 
L 335.703533 305.449051 
L 334.703533 305.421114 
L 333.703533 305.39139 
L 332.703533 305.365995 
L 331.703533 305.354795 
L 330.703533 305.344671 
L 329.703533 305.344875 
L 328.703533 305.354385 
L 327.703533 305.366039 
L 326.703533 305.397068 
L 325.703533 305.408236 
L 324.703533 305.438353 
L 323.703533 305.49813 
L 322.703533 305.535322 
L 321.703533 305.574418 
L 320.703533 305.616857 
L 319.703533 305.649623 
L 318.703533 305.717049 
L 317.703533 305.756175 
L 316.703533 305.798849 
L 315.703533 305.86943 
L 314.703533 305.905821 
L 313.703533 305.964224 
L 312.703533 306.075177 
L 311.703533 306.145835 
L 310.703533 306.258775 
L 309.703533 306.304548 
L 308.703533 306.365831 
L 307.703533 306.41433 
L 306.703533 306.495153 
L 305.703533 306.613672 
L 304.703533 306.683883 
L 303.703533 306.767145 
L 302.703533 306.800287 
L 301.703533 306.851524 
L 300.703533 306.919922 
L 299.703533 306.986138 
L 298.703533 307.063055 
L 297.703533 307.09037 
L 296.703533 307.116848 
L 295.703533 307.139499 
L 294.703533 307.15903 
L 293.703533 307.185424 
L 292.703533 307.235195 
L 291.703533 307.270268 
L 290.077717 307.306133 
" clip-path="url(#p462a90ead0)" style="fill: none; stroke: #ff7f0e; stroke-opacity: 0.5; stroke-width: 0.2; stroke-linecap: square"/>
   <path d="M 353.703533 282.982656 
L 352.703533 282.95122 
L 351.703533 282.914279 
L 350.703533 282.816533 
L 349.703533 282.784011 
L 348.703533 282.710387 
L 347.703533 282.671821 
L 346.703533 282.636408 
L 345.703533 282.578768 
L 344.703533 282.508382 
L 343.703533 282.456418 
L 342.703533 282.397328 
L 341.703533 282.309007 
L 340.703533 282.262862 
L 339.703533 282.220452 
L 338.703533 282.189959 
L 337.703533 282.163914 
L 336.703533 282.142714 
L 335.703533 282.088413 
L 334.703533 282.060475 
L 333.703533 282.030751 
L 332.703533 282.005356 
L 331.703533 281.994156 
L 330.703533 281.984032 
L 329.703533 281.984236 
L 328.703533 281.993746 
L 327.703533 282.0054 
L 326.703533 282.036429 
L 325.703533 282.047597 
L 324.703533 282.077715 
L 323.703533 282.137491 
L 322.703533 282.174683 
L 321.703533 282.213779 
L 320.703533 282.256219 
L 319.703533 282.288984 
L 318.703533 282.35641 
L 317.703533 282.395536 
L 316.703533 282.438211 
L 315.703533 282.508791 
L 314.703533 282.545182 
L 313.703533 282.603585 
L 312.703533 282.714538 
L 311.703533 282.785196 
L 310.703533 282.898136 
L 309.703533 282.943909 
L 308.703533 283.005192 
L 307.703533 283.053692 
L 306.703533 283.134514 
L 305.703533 283.253033 
L 304.703533 283.323244 
L 303.703533 283.406506 
L 302.703533 283.439648 
L 301.703533 283.490885 
L 300.703533 283.559284 
L 299.703533 283.625499 
L 298.703533 283.702416 
L 297.703533 283.729732 
L 296.703533 283.756209 
L 295.703533 283.77886 
L 294.703533 283.798391 
L 293.703533 283.824785 
L 292.703533 283.874556 
L 291.703533 283.909629 
L 290.077717 283.945495 
" clip-path="url(#p462a90ead0)" style="fill: none; stroke: #ff7f0e; stroke-opacity: 0.5; stroke-width: 0.2; stroke-linecap: square"/>
   <path d="M 353.703533 234.50866 
L 352.703533 234.477224 
L 351.703533 234.440284 
L 350.703533 234.342537 
L 349.703533 234.310016 
L 348.703533 234.236391 
L 347.703533 234.197825 
L 346.703533 234.162412 
L 345.703533 234.104772 
L 344.703533 234.034386 
L 343.703533 233.982422 
L 342.703533 233.923332 
L 341.703533 233.835011 
L 340.703533 233.788867 
L 339.703533 233.746456 
L 338.703533 233.715963 
L 337.703533 233.689918 
L 336.703533 233.668718 
L 335.703533 233.614417 
L 334.703533 233.586479 
L 333.703533 233.556755 
L 332.703533 233.531361 
L 331.703533 233.52016 
L 330.703533 233.510036 
L 329.703533 233.510241 
L 328.703533 233.519751 
L 327.703533 233.531404 
L 326.703533 233.562433 
L 325.703533 233.573601 
L 324.703533 233.603719 
L 323.703533 233.663496 
L 322.703533 233.700687 
L 321.703533 233.739783 
L 320.703533 233.782223 
L 319.703533 233.814988 
L 318.703533 233.882415 
L 317.703533 233.92154 
L 316.703533 233.964215 
L 315.703533 234.034796 
L 314.703533 234.071186 
L 313.703533 234.12959 
L 312.703533 234.240542 
L 311.703533 234.311201 
L 310.703533 234.42414 
L 309.703533 234.469913 
L 308.703533 234.531197 
L 307.703533 234.579696 
L 306.703533 234.660519 
L 305.703533 234.779037 
L 304.703533 234.849248 
L 303.703533 234.932511 
L 302.703533 234.965652 
L 301.703533 235.01689 
L 300.703533 235.085288 
L 299.703533 235.151503 
L 298.703533 235.22842 
L 297.703533 235.255736 
L 296.703533 235.282213 
L 295.703533 235.304864 
L 294.703533 235.324395 
L 293.703533 235.350789 
L 292.703533 235.40056 
L 291.703533 235.435633 
L 290.077717 235.471499 
" clip-path="url(#p462a90ead0)" style="fill: none; stroke: #ff7f0e; stroke-opacity: 0.5; stroke-width: 0.2; stroke-linecap: square"/>
   <path d="M 353.703533 307.22153 
L 352.703533 307.190094 
L 351.703533 307.153154 
L 350.703533 307.055407 
L 349.703533 307.022886 
L 348.703533 306.949261 
L 347.703533 306.910695 
L 346.703533 306.875282 
L 345.703533 306.817642 
L 344.703533 306.747256 
L 343.703533 306.695292 
L 342.703533 306.636202 
L 341.703533 306.547881 
L 340.703533 306.501737 
L 339.703533 306.459326 
L 338.703533 306.428833 
L 337.703533 306.402788 
L 336.703533 306.381588 
L 335.703533 306.327287 
L 334.703533 306.299349 
L 333.703533 306.269625 
L 332.703533 306.244231 
L 331.703533 306.23303 
L 330.703533 306.222906 
L 329.703533 306.223111 
L 328.703533 306.232621 
L 327.703533 306.244274 
L 326.703533 306.275303 
L 325.703533 306.286471 
L 324.703533 306.316589 
L 323.703533 306.376366 
L 322.703533 306.413557 
L 321.703533 306.452653 
L 320.703533 306.495093 
L 319.703533 306.527858 
L 318.703533 306.595285 
L 317.703533 306.63441 
L 316.703533 306.677085 
L 315.703533 306.747666 
L 314.703533 306.784056 
L 313.703533 306.84246 
L 312.703533 306.953412 
L 311.703533 307.024071 
L 310.703533 307.13701 
L 309.703533 307.182783 
L 308.703533 307.244067 
L 307.703533 307.292566 
L 306.703533 307.373389 
L 305.703533 307.491907 
L 304.703533 307.562118 
L 303.703533 307.645381 
L 302.703533 307.678522 
L 301.703533 307.72976 
L 300.703533 307.798158 
L 299.703533 307.864373 
L 298.703533 307.94129 
L 297.703533 307.968606 
L 296.703533 307.995083 
L 295.703533 308.017734 
L 294.703533 308.037265 
L 293.703533 308.063659 
L 292.703533 308.11343 
L 291.703533 308.148503 
L 290.077717 308.184369 
" clip-path="url(#p462a90ead0)" style="fill: none; stroke: #ff7f0e; stroke-opacity: 0.5; stroke-width: 0.2; stroke-linecap: square"/>
   <path d="M 353.703533 208.281633 
L 352.703533 208.250197 
L 351.703533 208.213256 
L 350.703533 208.11551 
L 349.703533 208.082988 
L 348.703533 208.009364 
L 347.703533 207.970798 
L 346.703533 207.935385 
L 345.703533 207.877745 
L 344.703533 207.807359 
L 343.703533 207.755394 
L 342.703533 207.696305 
L 341.703533 207.607984 
L 340.703533 207.561839 
L 339.703533 207.519428 
L 338.703533 207.488936 
L 337.703533 207.462891 
L 336.703533 207.441691 
L 335.703533 207.38739 
L 334.703533 207.359452 
L 333.703533 207.329728 
L 332.703533 207.304333 
L 331.703533 207.293133 
L 330.703533 207.283009 
L 329.703533 207.283213 
L 328.703533 207.292723 
L 327.703533 207.304377 
L 326.703533 207.335406 
L 325.703533 207.346574 
L 324.703533 207.376691 
L 323.703533 207.436468 
L 322.703533 207.47366 
L 321.703533 207.512756 
L 320.703533 207.555196 
L 319.703533 207.587961 
L 318.703533 207.655387 
L 317.703533 207.694513 
L 316.703533 207.737188 
L 315.703533 207.807768 
L 314.703533 207.844159 
L 313.703533 207.902562 
L 312.703533 208.013515 
L 311.703533 208.084173 
L 310.703533 208.197113 
L 309.703533 208.242886 
L 308.703533 208.304169 
L 307.703533 208.352669 
L 306.703533 208.433491 
L 305.703533 208.55201 
L 304.703533 208.622221 
L 303.703533 208.705483 
L 302.703533 208.738625 
L 301.703533 208.789862 
L 300.703533 208.858261 
L 299.703533 208.924476 
L 298.703533 209.001393 
L 297.703533 209.028709 
L 296.703533 209.055186 
L 295.703533 209.077837 
L 294.703533 209.097368 
L 293.703533 209.123762 
L 292.703533 209.173533 
L 291.703533 209.208606 
L 290.077717 209.244472 
" clip-path="url(#p462a90ead0)" style="fill: none; stroke: #ff7f0e; stroke-opacity: 0.5; stroke-width: 0.2; stroke-linecap: square"/>
   <path d="M 353.703533 226.085551 
L 352.703533 226.054114 
L 351.703533 226.017174 
L 350.703533 225.919427 
L 349.703533 225.886906 
L 348.703533 225.813281 
L 347.703533 225.774715 
L 346.703533 225.739302 
L 345.703533 225.681662 
L 344.703533 225.611276 
L 343.703533 225.559312 
L 342.703533 225.500222 
L 341.703533 225.411901 
L 340.703533 225.365757 
L 339.703533 225.323346 
L 338.703533 225.292853 
L 337.703533 225.266808 
L 336.703533 225.245608 
L 335.703533 225.191307 
L 334.703533 225.16337 
L 333.703533 225.133646 
L 332.703533 225.108251 
L 331.703533 225.09705 
L 330.703533 225.086927 
L 329.703533 225.087131 
L 328.703533 225.096641 
L 327.703533 225.108294 
L 326.703533 225.139324 
L 325.703533 225.150491 
L 324.703533 225.180609 
L 323.703533 225.240386 
L 322.703533 225.277577 
L 321.703533 225.316674 
L 320.703533 225.359113 
L 319.703533 225.391878 
L 318.703533 225.459305 
L 317.703533 225.498431 
L 316.703533 225.541105 
L 315.703533 225.611686 
L 314.703533 225.648077 
L 313.703533 225.70648 
L 312.703533 225.817432 
L 311.703533 225.888091 
L 310.703533 226.001031 
L 309.703533 226.046803 
L 308.703533 226.108087 
L 307.703533 226.156586 
L 306.703533 226.237409 
L 305.703533 226.355928 
L 304.703533 226.426138 
L 303.703533 226.509401 
L 302.703533 226.542543 
L 301.703533 226.59378 
L 300.703533 226.662178 
L 299.703533 226.728394 
L 298.703533 226.805311 
L 297.703533 226.832626 
L 296.703533 226.859104 
L 295.703533 226.881754 
L 294.703533 226.901286 
L 293.703533 226.92768 
L 292.703533 226.97745 
L 291.703533 227.012524 
L 290.077717 227.048389 
" clip-path="url(#p462a90ead0)" style="fill: none; stroke: #ff7f0e; stroke-opacity: 0.5; stroke-width: 0.2; stroke-linecap: square"/>
   <path d="M 353.703533 246.699089 
L 352.703533 246.667653 
L 351.703533 246.630713 
L 350.703533 246.532966 
L 349.703533 246.500445 
L 348.703533 246.42682 
L 347.703533 246.388254 
L 346.703533 246.352841 
L 345.703533 246.295201 
L 344.703533 246.224815 
L 343.703533 246.172851 
L 342.703533 246.113761 
L 341.703533 246.02544 
L 340.703533 245.979296 
L 339.703533 245.936885 
L 338.703533 245.906392 
L 337.703533 245.880347 
L 336.703533 245.859147 
L 335.703533 245.804846 
L 334.703533 245.776908 
L 333.703533 245.747185 
L 332.703533 245.72179 
L 331.703533 245.710589 
L 330.703533 245.700465 
L 329.703533 245.70067 
L 328.703533 245.71018 
L 327.703533 245.721833 
L 326.703533 245.752862 
L 325.703533 245.76403 
L 324.703533 245.794148 
L 323.703533 245.853925 
L 322.703533 245.891116 
L 321.703533 245.930212 
L 320.703533 245.972652 
L 319.703533 246.005417 
L 318.703533 246.072844 
L 317.703533 246.11197 
L 316.703533 246.154644 
L 315.703533 246.225225 
L 314.703533 246.261616 
L 313.703533 246.320019 
L 312.703533 246.430971 
L 311.703533 246.50163 
L 310.703533 246.614569 
L 309.703533 246.660342 
L 308.703533 246.721626 
L 307.703533 246.770125 
L 306.703533 246.850948 
L 305.703533 246.969466 
L 304.703533 247.039677 
L 303.703533 247.12294 
L 302.703533 247.156081 
L 301.703533 247.207319 
L 300.703533 247.275717 
L 299.703533 247.341932 
L 298.703533 247.41885 
L 297.703533 247.446165 
L 296.703533 247.472643 
L 295.703533 247.495293 
L 294.703533 247.514824 
L 293.703533 247.541218 
L 292.703533 247.590989 
L 291.703533 247.626062 
L 290.077717 247.661928 
" clip-path="url(#p462a90ead0)" style="fill: none; stroke: #ff7f0e; stroke-opacity: 0.5; stroke-width: 0.2; stroke-linecap: square"/>
   <path d="M 353.703533 278.246644 
L 352.703533 278.215208 
L 351.703533 278.178268 
L 350.703533 278.080521 
L 349.703533 278.048 
L 348.703533 277.974375 
L 347.703533 277.935809 
L 346.703533 277.900396 
L 345.703533 277.842756 
L 344.703533 277.77237 
L 343.703533 277.720406 
L 342.703533 277.661316 
L 341.703533 277.572995 
L 340.703533 277.526851 
L 339.703533 277.48444 
L 338.703533 277.453947 
L 337.703533 277.427902 
L 336.703533 277.406702 
L 335.703533 277.352401 
L 334.703533 277.324463 
L 333.703533 277.294739 
L 332.703533 277.269345 
L 331.703533 277.258144 
L 330.703533 277.24802 
L 329.703533 277.248225 
L 328.703533 277.257734 
L 327.703533 277.269388 
L 326.703533 277.300417 
L 325.703533 277.311585 
L 324.703533 277.341703 
L 323.703533 277.40148 
L 322.703533 277.438671 
L 321.703533 277.477767 
L 320.703533 277.520207 
L 319.703533 277.552972 
L 318.703533 277.620399 
L 317.703533 277.659524 
L 316.703533 277.702199 
L 315.703533 277.77278 
L 314.703533 277.80917 
L 313.703533 277.867574 
L 312.703533 277.978526 
L 311.703533 278.049185 
L 310.703533 278.162124 
L 309.703533 278.207897 
L 308.703533 278.26918 
L 307.703533 278.31768 
L 306.703533 278.398502 
L 305.703533 278.517021 
L 304.703533 278.587232 
L 303.703533 278.670495 
L 302.703533 278.703636 
L 301.703533 278.754874 
L 300.703533 278.823272 
L 299.703533 278.889487 
L 298.703533 278.966404 
L 297.703533 278.99372 
L 296.703533 279.020197 
L 295.703533 279.042848 
L 294.703533 279.062379 
L 293.703533 279.088773 
L 292.703533 279.138544 
L 291.703533 279.173617 
L 290.077717 279.209483 
" clip-path="url(#p462a90ead0)" style="fill: none; stroke: #ff7f0e; stroke-opacity: 0.5; stroke-width: 0.2; stroke-linecap: square"/>
   <path d="M 353.703533 309.865566 
L 352.703533 309.83413 
L 351.703533 309.797189 
L 350.703533 309.699443 
L 349.703533 309.666921 
L 348.703533 309.593296 
L 347.703533 309.554731 
L 346.703533 309.519318 
L 345.703533 309.461678 
L 344.703533 309.391291 
L 343.703533 309.339327 
L 342.703533 309.280238 
L 341.703533 309.191917 
L 340.703533 309.145772 
L 339.703533 309.103361 
L 338.703533 309.072869 
L 337.703533 309.046824 
L 336.703533 309.025624 
L 335.703533 308.971323 
L 334.703533 308.943385 
L 333.703533 308.913661 
L 332.703533 308.888266 
L 331.703533 308.877066 
L 330.703533 308.866942 
L 329.703533 308.867146 
L 328.703533 308.876656 
L 327.703533 308.88831 
L 326.703533 308.919339 
L 325.703533 308.930507 
L 324.703533 308.960624 
L 323.703533 309.020401 
L 322.703533 309.057593 
L 321.703533 309.096689 
L 320.703533 309.139129 
L 319.703533 309.171894 
L 318.703533 309.23932 
L 317.703533 309.278446 
L 316.703533 309.321121 
L 315.703533 309.391701 
L 314.703533 309.428092 
L 313.703533 309.486495 
L 312.703533 309.597448 
L 311.703533 309.668106 
L 310.703533 309.781046 
L 309.703533 309.826819 
L 308.703533 309.888102 
L 307.703533 309.936601 
L 306.703533 310.017424 
L 305.703533 310.135943 
L 304.703533 310.206154 
L 303.703533 310.289416 
L 302.703533 310.322558 
L 301.703533 310.373795 
L 300.703533 310.442193 
L 299.703533 310.508409 
L 298.703533 310.585326 
L 297.703533 310.612641 
L 296.703533 310.639119 
L 295.703533 310.66177 
L 294.703533 310.681301 
L 293.703533 310.707695 
L 292.703533 310.757466 
L 291.703533 310.792539 
L 290.077717 310.828405 
" clip-path="url(#p462a90ead0)" style="fill: none; stroke: #ff7f0e; stroke-opacity: 0.5; stroke-width: 0.2; stroke-linecap: square"/>
   <path d="M 353.703533 224.115819 
L 352.703533 224.084383 
L 351.703533 224.047442 
L 350.703533 223.949696 
L 349.703533 223.917174 
L 348.703533 223.843549 
L 347.703533 223.804984 
L 346.703533 223.769571 
L 345.703533 223.711931 
L 344.703533 223.641544 
L 343.703533 223.58958 
L 342.703533 223.530491 
L 341.703533 223.44217 
L 340.703533 223.396025 
L 339.703533 223.353614 
L 338.703533 223.323122 
L 337.703533 223.297077 
L 336.703533 223.275877 
L 335.703533 223.221575 
L 334.703533 223.193638 
L 333.703533 223.163914 
L 332.703533 223.138519 
L 331.703533 223.127319 
L 330.703533 223.117195 
L 329.703533 223.117399 
L 328.703533 223.126909 
L 327.703533 223.138563 
L 326.703533 223.169592 
L 325.703533 223.18076 
L 324.703533 223.210877 
L 323.703533 223.270654 
L 322.703533 223.307846 
L 321.703533 223.346942 
L 320.703533 223.389382 
L 319.703533 223.422147 
L 318.703533 223.489573 
L 317.703533 223.528699 
L 316.703533 223.571374 
L 315.703533 223.641954 
L 314.703533 223.678345 
L 313.703533 223.736748 
L 312.703533 223.847701 
L 311.703533 223.918359 
L 310.703533 224.031299 
L 309.703533 224.077072 
L 308.703533 224.138355 
L 307.703533 224.186854 
L 306.703533 224.267677 
L 305.703533 224.386196 
L 304.703533 224.456407 
L 303.703533 224.539669 
L 302.703533 224.572811 
L 301.703533 224.624048 
L 300.703533 224.692446 
L 299.703533 224.758662 
L 298.703533 224.835579 
L 297.703533 224.862894 
L 296.703533 224.889372 
L 295.703533 224.912023 
L 294.703533 224.931554 
L 293.703533 224.957948 
L 292.703533 225.007719 
L 291.703533 225.042792 
L 290.077717 225.078658 
" clip-path="url(#p462a90ead0)" style="fill: none; stroke: #ff7f0e; stroke-opacity: 0.5; stroke-width: 0.2; stroke-linecap: square"/>
   <path d="M 290.077717 233.268161 
L 291.077717 233.299597 
L 292.077717 233.336537 
L 293.077717 233.434284 
L 294.077717 233.466806 
L 295.077717 233.54043 
L 296.077717 233.578996 
L 297.077717 233.614409 
L 298.077717 233.672049 
L 299.077717 233.742435 
L 300.077717 233.794399 
L 301.077717 233.853489 
L 302.077717 233.94181 
L 303.077717 233.987954 
L 304.077717 234.030365 
L 305.077717 234.060858 
L 306.077717 234.086903 
L 307.077717 234.108103 
L 308.077717 234.162404 
L 309.077717 234.190342 
L 310.077717 234.220066 
L 311.077717 234.24546 
L 312.077717 234.256661 
L 313.077717 234.266785 
L 314.077717 234.26658 
L 315.077717 234.257071 
L 316.077717 234.245417 
L 317.077717 234.214388 
L 318.077717 234.20322 
L 319.077717 234.173102 
L 320.077717 234.113325 
L 321.077717 234.076134 
L 322.077717 234.037038 
L 323.077717 233.994598 
L 324.077717 233.961833 
L 325.077717 233.894406 
L 326.077717 233.855281 
L 327.077717 233.812606 
L 328.077717 233.742025 
L 329.077717 233.705635 
L 330.077717 233.647231 
L 331.077717 233.536279 
L 332.077717 233.46562 
L 333.077717 233.352681 
L 334.077717 233.306908 
L 335.077717 233.245625 
L 336.077717 233.197125 
L 337.077717 233.116303 
L 338.077717 232.997784 
L 339.077717 232.927573 
L 340.077717 232.844311 
L 341.077717 232.811169 
L 342.077717 232.759931 
L 343.077717 232.691533 
L 344.077717 232.625318 
L 345.077717 232.548401 
L 346.077717 232.521085 
L 347.077717 232.494608 
L 348.077717 232.471957 
L 349.077717 232.452426 
L 350.077717 232.426032 
L 351.077717 232.376261 
L 352.077717 232.341188 
L 353.703533 232.305322 
" clip-path="url(#p462a90ead0)" style="fill: none; stroke: #1f77b4; stroke-opacity: 0.5; stroke-width: 0.2; stroke-linecap: square"/>
   <path d="M 290.077717 264.002523 
L 291.077717 264.03396 
L 292.077717 264.0709 
L 293.077717 264.168647 
L 294.077717 264.201168 
L 295.077717 264.274793 
L 296.077717 264.313358 
L 297.077717 264.348772 
L 298.077717 264.406411 
L 299.077717 264.476798 
L 300.077717 264.528762 
L 301.077717 264.587852 
L 302.077717 264.676173 
L 303.077717 264.722317 
L 304.077717 264.764728 
L 305.077717 264.795221 
L 306.077717 264.821265 
L 307.077717 264.842466 
L 308.077717 264.896767 
L 309.077717 264.924704 
L 310.077717 264.954428 
L 311.077717 264.979823 
L 312.077717 264.991023 
L 313.077717 265.001147 
L 314.077717 265.000943 
L 315.077717 264.991433 
L 316.077717 264.97978 
L 317.077717 264.94875 
L 318.077717 264.937582 
L 319.077717 264.907465 
L 320.077717 264.847688 
L 321.077717 264.810496 
L 322.077717 264.7714 
L 323.077717 264.728961 
L 324.077717 264.696196 
L 325.077717 264.628769 
L 326.077717 264.589643 
L 327.077717 264.546969 
L 328.077717 264.476388 
L 329.077717 264.439997 
L 330.077717 264.381594 
L 331.077717 264.270641 
L 332.077717 264.199983 
L 333.077717 264.087043 
L 334.077717 264.04127 
L 335.077717 263.979987 
L 336.077717 263.931488 
L 337.077717 263.850665 
L 338.077717 263.732146 
L 339.077717 263.661936 
L 340.077717 263.578673 
L 341.077717 263.545531 
L 342.077717 263.494294 
L 343.077717 263.425896 
L 344.077717 263.35968 
L 345.077717 263.282763 
L 346.077717 263.255448 
L 347.077717 263.22897 
L 348.077717 263.20632 
L 349.077717 263.186788 
L 350.077717 263.160394 
L 351.077717 263.110623 
L 352.077717 263.07555 
L 353.703533 263.039685 
" clip-path="url(#p462a90ead0)" style="fill: none; stroke: #1f77b4; stroke-opacity: 0.5; stroke-width: 0.2; stroke-linecap: square"/>
   <path d="M 290.077717 278.418055 
L 291.077717 278.449492 
L 292.077717 278.486432 
L 293.077717 278.584179 
L 294.077717 278.6167 
L 295.077717 278.690325 
L 296.077717 278.728891 
L 297.077717 278.764304 
L 298.077717 278.821944 
L 299.077717 278.89233 
L 300.077717 278.944294 
L 301.077717 279.003384 
L 302.077717 279.091705 
L 303.077717 279.137849 
L 304.077717 279.18026 
L 305.077717 279.210753 
L 306.077717 279.236798 
L 307.077717 279.257998 
L 308.077717 279.312299 
L 309.077717 279.340236 
L 310.077717 279.36996 
L 311.077717 279.395355 
L 312.077717 279.406556 
L 313.077717 279.41668 
L 314.077717 279.416475 
L 315.077717 279.406965 
L 316.077717 279.395312 
L 317.077717 279.364282 
L 318.077717 279.353115 
L 319.077717 279.322997 
L 320.077717 279.26322 
L 321.077717 279.226029 
L 322.077717 279.186932 
L 323.077717 279.144493 
L 324.077717 279.111728 
L 325.077717 279.044301 
L 326.077717 279.005175 
L 327.077717 278.962501 
L 328.077717 278.89192 
L 329.077717 278.855529 
L 330.077717 278.797126 
L 331.077717 278.686174 
L 332.077717 278.615515 
L 333.077717 278.502575 
L 334.077717 278.456803 
L 335.077717 278.395519 
L 336.077717 278.34702 
L 337.077717 278.266197 
L 338.077717 278.147678 
L 339.077717 278.077468 
L 340.077717 277.994205 
L 341.077717 277.961064 
L 342.077717 277.909826 
L 343.077717 277.841428 
L 344.077717 277.775212 
L 345.077717 277.698295 
L 346.077717 277.67098 
L 347.077717 277.644502 
L 348.077717 277.621852 
L 349.077717 277.60232 
L 350.077717 277.575926 
L 351.077717 277.526156 
L 352.077717 277.491082 
L 353.703533 277.455217 
" clip-path="url(#p462a90ead0)" style="fill: none; stroke: #1f77b4; stroke-opacity: 0.5; stroke-width: 0.2; stroke-linecap: square"/>
   <path d="M 290.077717 278.99589 
L 291.077717 279.027326 
L 292.077717 279.064267 
L 293.077717 279.162013 
L 294.077717 279.194535 
L 295.077717 279.268159 
L 296.077717 279.306725 
L 297.077717 279.342138 
L 298.077717 279.399778 
L 299.077717 279.470164 
L 300.077717 279.522128 
L 301.077717 279.581218 
L 302.077717 279.669539 
L 303.077717 279.715683 
L 304.077717 279.758094 
L 305.077717 279.788587 
L 306.077717 279.814632 
L 307.077717 279.835832 
L 308.077717 279.890133 
L 309.077717 279.918071 
L 310.077717 279.947795 
L 311.077717 279.97319 
L 312.077717 279.98439 
L 313.077717 279.994514 
L 314.077717 279.99431 
L 315.077717 279.9848 
L 316.077717 279.973146 
L 317.077717 279.942117 
L 318.077717 279.930949 
L 319.077717 279.900831 
L 320.077717 279.841054 
L 321.077717 279.803863 
L 322.077717 279.764767 
L 323.077717 279.722327 
L 324.077717 279.689562 
L 325.077717 279.622136 
L 326.077717 279.58301 
L 327.077717 279.540335 
L 328.077717 279.469755 
L 329.077717 279.433364 
L 330.077717 279.374961 
L 331.077717 279.264008 
L 332.077717 279.19335 
L 333.077717 279.08041 
L 334.077717 279.034637 
L 335.077717 278.973354 
L 336.077717 278.924854 
L 337.077717 278.844032 
L 338.077717 278.725513 
L 339.077717 278.655302 
L 340.077717 278.57204 
L 341.077717 278.538898 
L 342.077717 278.487661 
L 343.077717 278.419262 
L 344.077717 278.353047 
L 345.077717 278.27613 
L 346.077717 278.248814 
L 347.077717 278.222337 
L 348.077717 278.199686 
L 349.077717 278.180155 
L 350.077717 278.153761 
L 351.077717 278.10399 
L 352.077717 278.068917 
L 353.703533 278.033051 
" clip-path="url(#p462a90ead0)" style="fill: none; stroke: #1f77b4; stroke-opacity: 0.5; stroke-width: 0.2; stroke-linecap: square"/>
   <path d="M 290.077717 317.887932 
L 291.077717 317.919368 
L 292.077717 317.956309 
L 293.077717 318.054055 
L 294.077717 318.086577 
L 295.077717 318.160202 
L 296.077717 318.198767 
L 297.077717 318.23418 
L 298.077717 318.29182 
L 299.077717 318.362206 
L 300.077717 318.414171 
L 301.077717 318.47326 
L 302.077717 318.561581 
L 303.077717 318.607726 
L 304.077717 318.650137 
L 305.077717 318.680629 
L 306.077717 318.706674 
L 307.077717 318.727874 
L 308.077717 318.782175 
L 309.077717 318.810113 
L 310.077717 318.839837 
L 311.077717 318.865232 
L 312.077717 318.876432 
L 313.077717 318.886556 
L 314.077717 318.886352 
L 315.077717 318.876842 
L 316.077717 318.865188 
L 317.077717 318.834159 
L 318.077717 318.822991 
L 319.077717 318.792874 
L 320.077717 318.733097 
L 321.077717 318.695905 
L 322.077717 318.656809 
L 323.077717 318.614369 
L 324.077717 318.581604 
L 325.077717 318.514178 
L 326.077717 318.475052 
L 327.077717 318.432377 
L 328.077717 318.361797 
L 329.077717 318.325406 
L 330.077717 318.267003 
L 331.077717 318.15605 
L 332.077717 318.085392 
L 333.077717 317.972452 
L 334.077717 317.926679 
L 335.077717 317.865396 
L 336.077717 317.816897 
L 337.077717 317.736074 
L 338.077717 317.617555 
L 339.077717 317.547344 
L 340.077717 317.464082 
L 341.077717 317.43094 
L 342.077717 317.379703 
L 343.077717 317.311304 
L 344.077717 317.245089 
L 345.077717 317.168172 
L 346.077717 317.140856 
L 347.077717 317.114379 
L 348.077717 317.091728 
L 349.077717 317.072197 
L 350.077717 317.045803 
L 351.077717 316.996032 
L 352.077717 316.960959 
L 353.703533 316.925093 
" clip-path="url(#p462a90ead0)" style="fill: none; stroke: #1f77b4; stroke-opacity: 0.5; stroke-width: 0.2; stroke-linecap: square"/>
   <path d="M 290.077717 285.312133 
L 291.077717 285.34357 
L 292.077717 285.38051 
L 293.077717 285.478257 
L 294.077717 285.510778 
L 295.077717 285.584403 
L 296.077717 285.622968 
L 297.077717 285.658382 
L 298.077717 285.716021 
L 299.077717 285.786408 
L 300.077717 285.838372 
L 301.077717 285.897462 
L 302.077717 285.985783 
L 303.077717 286.031927 
L 304.077717 286.074338 
L 305.077717 286.104831 
L 306.077717 286.130875 
L 307.077717 286.152076 
L 308.077717 286.206377 
L 309.077717 286.234314 
L 310.077717 286.264038 
L 311.077717 286.289433 
L 312.077717 286.300633 
L 313.077717 286.310757 
L 314.077717 286.310553 
L 315.077717 286.301043 
L 316.077717 286.28939 
L 317.077717 286.25836 
L 318.077717 286.247192 
L 319.077717 286.217075 
L 320.077717 286.157298 
L 321.077717 286.120106 
L 322.077717 286.08101 
L 323.077717 286.038571 
L 324.077717 286.005806 
L 325.077717 285.938379 
L 326.077717 285.899253 
L 327.077717 285.856579 
L 328.077717 285.785998 
L 329.077717 285.749607 
L 330.077717 285.691204 
L 331.077717 285.580251 
L 332.077717 285.509593 
L 333.077717 285.396653 
L 334.077717 285.35088 
L 335.077717 285.289597 
L 336.077717 285.241098 
L 337.077717 285.160275 
L 338.077717 285.041756 
L 339.077717 284.971546 
L 340.077717 284.888283 
L 341.077717 284.855141 
L 342.077717 284.803904 
L 343.077717 284.735506 
L 344.077717 284.66929 
L 345.077717 284.592373 
L 346.077717 284.565058 
L 347.077717 284.53858 
L 348.077717 284.51593 
L 349.077717 284.496398 
L 350.077717 284.470004 
L 351.077717 284.420233 
L 352.077717 284.38516 
L 353.703533 284.349295 
" clip-path="url(#p462a90ead0)" style="fill: none; stroke: #1f77b4; stroke-opacity: 0.5; stroke-width: 0.2; stroke-linecap: square"/>
   <path d="M 290.077717 223.890134 
L 291.077717 223.921571 
L 292.077717 223.958511 
L 293.077717 224.056257 
L 294.077717 224.088779 
L 295.077717 224.162404 
L 296.077717 224.200969 
L 297.077717 224.236382 
L 298.077717 224.294022 
L 299.077717 224.364409 
L 300.077717 224.416373 
L 301.077717 224.475463 
L 302.077717 224.563784 
L 303.077717 224.609928 
L 304.077717 224.652339 
L 305.077717 224.682831 
L 306.077717 224.708876 
L 307.077717 224.730076 
L 308.077717 224.784378 
L 309.077717 224.812315 
L 310.077717 224.842039 
L 311.077717 224.867434 
L 312.077717 224.878634 
L 313.077717 224.888758 
L 314.077717 224.888554 
L 315.077717 224.879044 
L 316.077717 224.86739 
L 317.077717 224.836361 
L 318.077717 224.825193 
L 319.077717 224.795076 
L 320.077717 224.735299 
L 321.077717 224.698107 
L 322.077717 224.659011 
L 323.077717 224.616572 
L 324.077717 224.583806 
L 325.077717 224.51638 
L 326.077717 224.477254 
L 327.077717 224.43458 
L 328.077717 224.363999 
L 329.077717 224.327608 
L 330.077717 224.269205 
L 331.077717 224.158252 
L 332.077717 224.087594 
L 333.077717 223.974654 
L 334.077717 223.928881 
L 335.077717 223.867598 
L 336.077717 223.819099 
L 337.077717 223.738276 
L 338.077717 223.619757 
L 339.077717 223.549546 
L 340.077717 223.466284 
L 341.077717 223.433142 
L 342.077717 223.381905 
L 343.077717 223.313507 
L 344.077717 223.247291 
L 345.077717 223.170374 
L 346.077717 223.143059 
L 347.077717 223.116581 
L 348.077717 223.09393 
L 349.077717 223.074399 
L 350.077717 223.048005 
L 351.077717 222.998234 
L 352.077717 222.963161 
L 353.703533 222.927296 
" clip-path="url(#p462a90ead0)" style="fill: none; stroke: #1f77b4; stroke-opacity: 0.5; stroke-width: 0.2; stroke-linecap: square"/>
   <path d="M 290.077717 243.75503 
L 291.077717 243.786466 
L 292.077717 243.823407 
L 293.077717 243.921153 
L 294.077717 243.953675 
L 295.077717 244.027299 
L 296.077717 244.065865 
L 297.077717 244.101278 
L 298.077717 244.158918 
L 299.077717 244.229304 
L 300.077717 244.281268 
L 301.077717 244.340358 
L 302.077717 244.428679 
L 303.077717 244.474823 
L 304.077717 244.517234 
L 305.077717 244.547727 
L 306.077717 244.573772 
L 307.077717 244.594972 
L 308.077717 244.649273 
L 309.077717 244.677211 
L 310.077717 244.706935 
L 311.077717 244.73233 
L 312.077717 244.74353 
L 313.077717 244.753654 
L 314.077717 244.75345 
L 315.077717 244.74394 
L 316.077717 244.732286 
L 317.077717 244.701257 
L 318.077717 244.690089 
L 319.077717 244.659971 
L 320.077717 244.600195 
L 321.077717 244.563003 
L 322.077717 244.523907 
L 323.077717 244.481467 
L 324.077717 244.448702 
L 325.077717 244.381276 
L 326.077717 244.34215 
L 327.077717 244.299475 
L 328.077717 244.228895 
L 329.077717 244.192504 
L 330.077717 244.134101 
L 331.077717 244.023148 
L 332.077717 243.95249 
L 333.077717 243.83955 
L 334.077717 243.793777 
L 335.077717 243.732494 
L 336.077717 243.683994 
L 337.077717 243.603172 
L 338.077717 243.484653 
L 339.077717 243.414442 
L 340.077717 243.33118 
L 341.077717 243.298038 
L 342.077717 243.246801 
L 343.077717 243.178402 
L 344.077717 243.112187 
L 345.077717 243.03527 
L 346.077717 243.007954 
L 347.077717 242.981477 
L 348.077717 242.958826 
L 349.077717 242.939295 
L 350.077717 242.912901 
L 351.077717 242.86313 
L 352.077717 242.828057 
L 353.703533 242.792191 
" clip-path="url(#p462a90ead0)" style="fill: none; stroke: #1f77b4; stroke-opacity: 0.5; stroke-width: 0.2; stroke-linecap: square"/>
   <path d="M 290.077717 310.920565 
L 291.077717 310.952001 
L 292.077717 310.988941 
L 293.077717 311.086688 
L 294.077717 311.11921 
L 295.077717 311.192834 
L 296.077717 311.2314 
L 297.077717 311.266813 
L 298.077717 311.324453 
L 299.077717 311.394839 
L 300.077717 311.446803 
L 301.077717 311.505893 
L 302.077717 311.594214 
L 303.077717 311.640358 
L 304.077717 311.682769 
L 305.077717 311.713262 
L 306.077717 311.739307 
L 307.077717 311.760507 
L 308.077717 311.814808 
L 309.077717 311.842746 
L 310.077717 311.87247 
L 311.077717 311.897864 
L 312.077717 311.909065 
L 313.077717 311.919189 
L 314.077717 311.918985 
L 315.077717 311.909475 
L 316.077717 311.897821 
L 317.077717 311.866792 
L 318.077717 311.855624 
L 319.077717 311.825506 
L 320.077717 311.765729 
L 321.077717 311.728538 
L 322.077717 311.689442 
L 323.077717 311.647002 
L 324.077717 311.614237 
L 325.077717 311.546811 
L 326.077717 311.507685 
L 327.077717 311.46501 
L 328.077717 311.39443 
L 329.077717 311.358039 
L 330.077717 311.299635 
L 331.077717 311.188683 
L 332.077717 311.118025 
L 333.077717 311.005085 
L 334.077717 310.959312 
L 335.077717 310.898029 
L 336.077717 310.849529 
L 337.077717 310.768707 
L 338.077717 310.650188 
L 339.077717 310.579977 
L 340.077717 310.496715 
L 341.077717 310.463573 
L 342.077717 310.412336 
L 343.077717 310.343937 
L 344.077717 310.277722 
L 345.077717 310.200805 
L 346.077717 310.173489 
L 347.077717 310.147012 
L 348.077717 310.124361 
L 349.077717 310.10483 
L 350.077717 310.078436 
L 351.077717 310.028665 
L 352.077717 309.993592 
L 353.703533 309.957726 
" clip-path="url(#p462a90ead0)" style="fill: none; stroke: #1f77b4; stroke-opacity: 0.5; stroke-width: 0.2; stroke-linecap: square"/>
   <path d="M 290.077717 304.269971 
L 291.077717 304.301407 
L 292.077717 304.338347 
L 293.077717 304.436094 
L 294.077717 304.468616 
L 295.077717 304.54224 
L 296.077717 304.580806 
L 297.077717 304.616219 
L 298.077717 304.673859 
L 299.077717 304.744245 
L 300.077717 304.796209 
L 301.077717 304.855299 
L 302.077717 304.94362 
L 303.077717 304.989764 
L 304.077717 305.032175 
L 305.077717 305.062668 
L 306.077717 305.088713 
L 307.077717 305.109913 
L 308.077717 305.164214 
L 309.077717 305.192152 
L 310.077717 305.221876 
L 311.077717 305.24727 
L 312.077717 305.258471 
L 313.077717 305.268595 
L 314.077717 305.26839 
L 315.077717 305.258881 
L 316.077717 305.247227 
L 317.077717 305.216198 
L 318.077717 305.20503 
L 319.077717 305.174912 
L 320.077717 305.115135 
L 321.077717 305.077944 
L 322.077717 305.038848 
L 323.077717 304.996408 
L 324.077717 304.963643 
L 325.077717 304.896217 
L 326.077717 304.857091 
L 327.077717 304.814416 
L 328.077717 304.743835 
L 329.077717 304.707445 
L 330.077717 304.649041 
L 331.077717 304.538089 
L 332.077717 304.467431 
L 333.077717 304.354491 
L 334.077717 304.308718 
L 335.077717 304.247435 
L 336.077717 304.198935 
L 337.077717 304.118113 
L 338.077717 303.999594 
L 339.077717 303.929383 
L 340.077717 303.846121 
L 341.077717 303.812979 
L 342.077717 303.761741 
L 343.077717 303.693343 
L 344.077717 303.627128 
L 345.077717 303.550211 
L 346.077717 303.522895 
L 347.077717 303.496418 
L 348.077717 303.473767 
L 349.077717 303.454236 
L 350.077717 303.427842 
L 351.077717 303.378071 
L 352.077717 303.342998 
L 353.703533 303.307132 
" clip-path="url(#p462a90ead0)" style="fill: none; stroke: #1f77b4; stroke-opacity: 0.5; stroke-width: 0.2; stroke-linecap: square"/>
   <g id="patch_3">
    <path d="M 69.06392 22.318125 
L 69.06392 318.021875 
M 284.51553 22.318125 
L 284.51553 318.021875 
" clip-path="url(#p462a90ead0)" style="fill: none; stroke: #ffffff; stroke-width: 3; stroke-linejoin: miter"/>
    <path d="M 69.06392 22.318125 
L 69.06392 318.021875 
M 284.51553 22.318125 
L 284.51553 318.021875 
" clip-path="url(#p462a90ead0)" style="fill: none; stroke: #1f77b4; stroke-linejoin: miter"/>
    <g id="PolyCollection_1">
     <path d="M 284.51553 22.318125 
L 69.06392 22.318125 
L 69.06392 318.021875 
L 284.51553 318.021875 
L 284.51553 318.021875 
L 284.51553 22.318125 
z
" clip-path="url(#p462a90ead0)" style="fill: #1f77b4; fill-opacity: 0.5"/>
    </g>
    <g id="patch_4">
     <path d="M 359.26572 22.318125 
L 359.26572 318.021875 
M 574.71733 22.318125 
L 574.71733 318.021875 
" clip-path="url(#p462a90ead0)" style="fill: none; stroke: #ffffff; stroke-width: 3; stroke-linejoin: miter"/>
     <path d="M 359.26572 22.318125 
L 359.26572 318.021875 
M 574.71733 22.318125 
L 574.71733 318.021875 
" clip-path="url(#p462a90ead0)" style="fill: none; stroke: #ff7f0e; stroke-linejoin: miter"/>
     <g id="PolyCollection_2">
      <path d="M 574.71733 22.318125 
L 359.26572 22.318125 
L 359.26572 318.021875 
L 574.71733 318.021875 
L 574.71733 318.021875 
L 574.71733 22.318125 
z
" clip-path="url(#p462a90ead0)" style="fill: #ff7f0e; fill-opacity: 0.5"/>
     </g>
     <g id="matplotlib.axis_1">
      <g id="xtick_1">
       <g id="line2d_1"/>
       <g id="text_1">
        <!-- deme0 -->
        <g transform="translate(159.410819 329.120312) scale(0.1 -0.1)">
         <defs>
          <path id="DejaVuSans-64" d="M 2906 2969 
L 2906 4863 
L 3481 4863 
L 3481 0 
L 2906 0 
L 2906 525 
Q 2725 213 2448 61 
Q 2172 -91 1784 -91 
Q 1150 -91 751 415 
Q 353 922 353 1747 
Q 353 2572 751 3078 
Q 1150 3584 1784 3584 
Q 2172 3584 2448 3432 
Q 2725 3281 2906 2969 
z
M 947 1747 
Q 947 1113 1208 752 
Q 1469 391 1925 391 
Q 2381 391 2643 752 
Q 2906 1113 2906 1747 
Q 2906 2381 2643 2742 
Q 2381 3103 1925 3103 
Q 1469 3103 1208 2742 
Q 947 2381 947 1747 
z
" transform="scale(0.015625)"/>
          <path id="DejaVuSans-65" d="M 3597 1894 
L 3597 1613 
L 953 1613 
Q 991 1019 1311 708 
Q 1631 397 2203 397 
Q 2534 397 2845 478 
Q 3156 559 3463 722 
L 3463 178 
Q 3153 47 2828 -22 
Q 2503 -91 2169 -91 
Q 1331 -91 842 396 
Q 353 884 353 1716 
Q 353 2575 817 3079 
Q 1281 3584 2069 3584 
Q 2775 3584 3186 3129 
Q 3597 2675 3597 1894 
z
M 3022 2063 
Q 3016 2534 2758 2815 
Q 2500 3097 2075 3097 
Q 1594 3097 1305 2825 
Q 1016 2553 972 2059 
L 3022 2063 
z
" transform="scale(0.015625)"/>
          <path id="DejaVuSans-6d" d="M 3328 2828 
Q 3544 3216 3844 3400 
Q 4144 3584 4550 3584 
Q 5097 3584 5394 3201 
Q 5691 2819 5691 2113 
L 5691 0 
L 5113 0 
L 5113 2094 
Q 5113 2597 4934 2840 
Q 4756 3084 4391 3084 
Q 3944 3084 3684 2787 
Q 3425 2491 3425 1978 
L 3425 0 
L 2847 0 
L 2847 2094 
Q 2847 2600 2669 2842 
Q 2491 3084 2119 3084 
Q 1678 3084 1418 2786 
Q 1159 2488 1159 1978 
L 1159 0 
L 581 0 
L 581 3500 
L 1159 3500 
L 1159 2956 
Q 1356 3278 1631 3431 
Q 1906 3584 2284 3584 
Q 2666 3584 2933 3390 
Q 3200 3197 3328 2828 
z
" transform="scale(0.015625)"/>
          <path id="DejaVuSans-30" d="M 2034 4250 
Q 1547 4250 1301 3770 
Q 1056 3291 1056 2328 
Q 1056 1369 1301 889 
Q 1547 409 2034 409 
Q 2525 409 2770 889 
Q 3016 1369 3016 2328 
Q 3016 3291 2770 3770 
Q 2525 4250 2034 4250 
z
M 2034 4750 
Q 2819 4750 3233 4129 
Q 3647 3509 3647 2328 
Q 3647 1150 3233 529 
Q 2819 -91 2034 -91 
Q 1250 -91 836 529 
Q 422 1150 422 2328 
Q 422 3509 836 4129 
Q 1250 4750 2034 4750 
z
" transform="scale(0.015625)"/>
         </defs>
         <use xlink:href="#DejaVuSans-64"/>
         <use xlink:href="#DejaVuSans-65" x="63.476562"/>
         <use xlink:href="#DejaVuSans-6d" x="125"/>
         <use xlink:href="#DejaVuSans-65" x="222.412109"/>
         <use xlink:href="#DejaVuSans-30" x="283.935547"/>
        </g>
       </g>
      </g>
      <g id="xtick_2">
       <g id="line2d_2"/>
       <g id="text_2">
        <!-- deme1 -->
        <g transform="translate(449.612619 329.120312) scale(0.1 -0.1)">
         <defs>
          <path id="DejaVuSans-31" d="M 794 531 
L 1825 531 
L 1825 4091 
L 703 3866 
L 703 4441 
L 1819 4666 
L 2450 4666 
L 2450 531 
L 3481 531 
L 3481 0 
L 794 0 
L 794 531 
z
" transform="scale(0.015625)"/>
         </defs>
         <use xlink:href="#DejaVuSans-64"/>
         <use xlink:href="#DejaVuSans-65" x="63.476562"/>
         <use xlink:href="#DejaVuSans-6d" x="125"/>
         <use xlink:href="#DejaVuSans-65" x="222.412109"/>
         <use xlink:href="#DejaVuSans-31" x="283.935547"/>
        </g>
       </g>
      </g>
     </g>
     <g id="matplotlib.axis_2">
      <g id="ytick_1">
       <g id="line2d_3">
        <defs>
         <path id="m3e037252f6" d="M 0 0 
L -3.5 0 
" style="stroke: #000000; stroke-width: 0.8"/>
        </defs>
        <g>
         <use xlink:href="#m3e037252f6" x="43.78125" y="318.021875" style="stroke: #000000; stroke-width: 0.8"/>
        </g>
       </g>
       <g id="text_3">
        <!-- 0.0 -->
        <g transform="translate(20.878125 321.821094) scale(0.1 -0.1)">
         <defs>
          <path id="DejaVuSans-2e" d="M 684 794 
L 1344 794 
L 1344 0 
L 684 0 
L 684 794 
z
" transform="scale(0.015625)"/>
         </defs>
         <use xlink:href="#DejaVuSans-30"/>
         <use xlink:href="#DejaVuSans-2e" x="63.623047"/>
         <use xlink:href="#DejaVuSans-30" x="95.410156"/>
        </g>
       </g>
      </g>
      <g id="ytick_2">
       <g id="line2d_4">
        <g>
         <use xlink:href="#m3e037252f6" x="43.78125" y="258.881125" style="stroke: #000000; stroke-width: 0.8"/>
        </g>
       </g>
       <g id="text_4">
        <!-- 0.5 -->
        <g transform="translate(20.878125 262.680344) scale(0.1 -0.1)">
         <defs>
          <path id="DejaVuSans-35" d="M 691 4666 
L 3169 4666 
L 3169 4134 
L 1269 4134 
L 1269 2991 
Q 1406 3038 1543 3061 
Q 1681 3084 1819 3084 
Q 2600 3084 3056 2656 
Q 3513 2228 3513 1497 
Q 3513 744 3044 326 
Q 2575 -91 1722 -91 
Q 1428 -91 1123 -41 
Q 819 9 494 109 
L 494 744 
Q 775 591 1075 516 
Q 1375 441 1709 441 
Q 2250 441 2565 725 
Q 2881 1009 2881 1497 
Q 2881 1984 2565 2268 
Q 2250 2553 1709 2553 
Q 1456 2553 1204 2497 
Q 953 2441 691 2322 
L 691 4666 
z
" transform="scale(0.015625)"/>
         </defs>
         <use xlink:href="#DejaVuSans-30"/>
         <use xlink:href="#DejaVuSans-2e" x="63.623047"/>
         <use xlink:href="#DejaVuSans-35" x="95.410156"/>
        </g>
       </g>
      </g>
      <g id="ytick_3">
       <g id="line2d_5">
        <g>
         <use xlink:href="#m3e037252f6" x="43.78125" y="199.740375" style="stroke: #000000; stroke-width: 0.8"/>
        </g>
       </g>
       <g id="text_5">
        <!-- 1.0 -->
        <g transform="translate(20.878125 203.539594) scale(0.1 -0.1)">
         <use xlink:href="#DejaVuSans-31"/>
         <use xlink:href="#DejaVuSans-2e" x="63.623047"/>
         <use xlink:href="#DejaVuSans-30" x="95.410156"/>
        </g>
       </g>
      </g>
      <g id="ytick_4">
       <g id="line2d_6">
        <g>
         <use xlink:href="#m3e037252f6" x="43.78125" y="140.599625" style="stroke: #000000; stroke-width: 0.8"/>
        </g>
       </g>
       <g id="text_6">
        <!-- 1.5 -->
        <g transform="translate(20.878125 144.398844) scale(0.1 -0.1)">
         <use xlink:href="#DejaVuSans-31"/>
         <use xlink:href="#DejaVuSans-2e" x="63.623047"/>
         <use xlink:href="#DejaVuSans-35" x="95.410156"/>
        </g>
       </g>
      </g>
      <g id="ytick_5">
       <g id="line2d_7">
        <g>
         <use xlink:href="#m3e037252f6" x="43.78125" y="81.458875" style="stroke: #000000; stroke-width: 0.8"/>
        </g>
       </g>
       <g id="text_7">
        <!-- 2.0 -->
        <g transform="translate(20.878125 85.258094) scale(0.1 -0.1)">
         <defs>
          <path id="DejaVuSans-32" d="M 1228 531 
L 3431 531 
L 3431 0 
L 469 0 
L 469 531 
Q 828 903 1448 1529 
Q 2069 2156 2228 2338 
Q 2531 2678 2651 2914 
Q 2772 3150 2772 3378 
Q 2772 3750 2511 3984 
Q 2250 4219 1831 4219 
Q 1534 4219 1204 4116 
Q 875 4013 500 3803 
L 500 4441 
Q 881 4594 1212 4672 
Q 1544 4750 1819 4750 
Q 2544 4750 2975 4387 
Q 3406 4025 3406 3419 
Q 3406 3131 3298 2873 
Q 3191 2616 2906 2266 
Q 2828 2175 2409 1742 
Q 1991 1309 1228 531 
z
" transform="scale(0.015625)"/>
         </defs>
         <use xlink:href="#DejaVuSans-32"/>
         <use xlink:href="#DejaVuSans-2e" x="63.623047"/>
         <use xlink:href="#DejaVuSans-30" x="95.410156"/>
        </g>
       </g>
      </g>
      <g id="ytick_6">
       <g id="line2d_8">
        <g>
         <use xlink:href="#m3e037252f6" x="43.78125" y="22.318125" style="stroke: #000000; stroke-width: 0.8"/>
        </g>
       </g>
       <g id="text_8">
        <!-- 2.5 -->
        <g transform="translate(20.878125 26.117344) scale(0.1 -0.1)">
         <use xlink:href="#DejaVuSans-32"/>
         <use xlink:href="#DejaVuSans-2e" x="63.623047"/>
         <use xlink:href="#DejaVuSans-35" x="95.410156"/>
        </g>
       </g>
      </g>
      <g id="text_9">
       <!-- time ago (generations) -->
       <g transform="translate(14.798438 227.641094) rotate(-90) scale(0.1 -0.1)">
        <defs>
         <path id="DejaVuSans-74" d="M 1172 4494 
L 1172 3500 
L 2356 3500 
L 2356 3053 
L 1172 3053 
L 1172 1153 
Q 1172 725 1289 603 
Q 1406 481 1766 481 
L 2356 481 
L 2356 0 
L 1766 0 
Q 1100 0 847 248 
Q 594 497 594 1153 
L 594 3053 
L 172 3053 
L 172 3500 
L 594 3500 
L 594 4494 
L 1172 4494 
z
" transform="scale(0.015625)"/>
         <path id="DejaVuSans-69" d="M 603 3500 
L 1178 3500 
L 1178 0 
L 603 0 
L 603 3500 
z
M 603 4863 
L 1178 4863 
L 1178 4134 
L 603 4134 
L 603 4863 
z
" transform="scale(0.015625)"/>
         <path id="DejaVuSans-20" transform="scale(0.015625)"/>
         <path id="DejaVuSans-61" d="M 2194 1759 
Q 1497 1759 1228 1600 
Q 959 1441 959 1056 
Q 959 750 1161 570 
Q 1363 391 1709 391 
Q 2188 391 2477 730 
Q 2766 1069 2766 1631 
L 2766 1759 
L 2194 1759 
z
M 3341 1997 
L 3341 0 
L 2766 0 
L 2766 531 
Q 2569 213 2275 61 
Q 1981 -91 1556 -91 
Q 1019 -91 701 211 
Q 384 513 384 1019 
Q 384 1609 779 1909 
Q 1175 2209 1959 2209 
L 2766 2209 
L 2766 2266 
Q 2766 2663 2505 2880 
Q 2244 3097 1772 3097 
Q 1472 3097 1187 3025 
Q 903 2953 641 2809 
L 641 3341 
Q 956 3463 1253 3523 
Q 1550 3584 1831 3584 
Q 2591 3584 2966 3190 
Q 3341 2797 3341 1997 
z
" transform="scale(0.015625)"/>
         <path id="DejaVuSans-67" d="M 2906 1791 
Q 2906 2416 2648 2759 
Q 2391 3103 1925 3103 
Q 1463 3103 1205 2759 
Q 947 2416 947 1791 
Q 947 1169 1205 825 
Q 1463 481 1925 481 
Q 2391 481 2648 825 
Q 2906 1169 2906 1791 
z
M 3481 434 
Q 3481 -459 3084 -895 
Q 2688 -1331 1869 -1331 
Q 1566 -1331 1297 -1286 
Q 1028 -1241 775 -1147 
L 775 -588 
Q 1028 -725 1275 -790 
Q 1522 -856 1778 -856 
Q 2344 -856 2625 -561 
Q 2906 -266 2906 331 
L 2906 616 
Q 2728 306 2450 153 
Q 2172 0 1784 0 
Q 1141 0 747 490 
Q 353 981 353 1791 
Q 353 2603 747 3093 
Q 1141 3584 1784 3584 
Q 2172 3584 2450 3431 
Q 2728 3278 2906 2969 
L 2906 3500 
L 3481 3500 
L 3481 434 
z
" transform="scale(0.015625)"/>
         <path id="DejaVuSans-6f" d="M 1959 3097 
Q 1497 3097 1228 2736 
Q 959 2375 959 1747 
Q 959 1119 1226 758 
Q 1494 397 1959 397 
Q 2419 397 2687 759 
Q 2956 1122 2956 1747 
Q 2956 2369 2687 2733 
Q 2419 3097 1959 3097 
z
M 1959 3584 
Q 2709 3584 3137 3096 
Q 3566 2609 3566 1747 
Q 3566 888 3137 398 
Q 2709 -91 1959 -91 
Q 1206 -91 779 398 
Q 353 888 353 1747 
Q 353 2609 779 3096 
Q 1206 3584 1959 3584 
z
" transform="scale(0.015625)"/>
         <path id="DejaVuSans-28" d="M 1984 4856 
Q 1566 4138 1362 3434 
Q 1159 2731 1159 2009 
Q 1159 1288 1364 580 
Q 1569 -128 1984 -844 
L 1484 -844 
Q 1016 -109 783 600 
Q 550 1309 550 2009 
Q 550 2706 781 3412 
Q 1013 4119 1484 4856 
L 1984 4856 
z
" transform="scale(0.015625)"/>
         <path id="DejaVuSans-6e" d="M 3513 2113 
L 3513 0 
L 2938 0 
L 2938 2094 
Q 2938 2591 2744 2837 
Q 2550 3084 2163 3084 
Q 1697 3084 1428 2787 
Q 1159 2491 1159 1978 
L 1159 0 
L 581 0 
L 581 3500 
L 1159 3500 
L 1159 2956 
Q 1366 3272 1645 3428 
Q 1925 3584 2291 3584 
Q 2894 3584 3203 3211 
Q 3513 2838 3513 2113 
z
" transform="scale(0.015625)"/>
         <path id="DejaVuSans-72" d="M 2631 2963 
Q 2534 3019 2420 3045 
Q 2306 3072 2169 3072 
Q 1681 3072 1420 2755 
Q 1159 2438 1159 1844 
L 1159 0 
L 581 0 
L 581 3500 
L 1159 3500 
L 1159 2956 
Q 1341 3275 1631 3429 
Q 1922 3584 2338 3584 
Q 2397 3584 2469 3576 
Q 2541 3569 2628 3553 
L 2631 2963 
z
" transform="scale(0.015625)"/>
         <path id="DejaVuSans-73" d="M 2834 3397 
L 2834 2853 
Q 2591 2978 2328 3040 
Q 2066 3103 1784 3103 
Q 1356 3103 1142 2972 
Q 928 2841 928 2578 
Q 928 2378 1081 2264 
Q 1234 2150 1697 2047 
L 1894 2003 
Q 2506 1872 2764 1633 
Q 3022 1394 3022 966 
Q 3022 478 2636 193 
Q 2250 -91 1575 -91 
Q 1294 -91 989 -36 
Q 684 19 347 128 
L 347 722 
Q 666 556 975 473 
Q 1284 391 1588 391 
Q 1994 391 2212 530 
Q 2431 669 2431 922 
Q 2431 1156 2273 1281 
Q 2116 1406 1581 1522 
L 1381 1569 
Q 847 1681 609 1914 
Q 372 2147 372 2553 
Q 372 3047 722 3315 
Q 1072 3584 1716 3584 
Q 2034 3584 2315 3537 
Q 2597 3491 2834 3397 
z
" transform="scale(0.015625)"/>
         <path id="DejaVuSans-29" d="M 513 4856 
L 1013 4856 
Q 1481 4119 1714 3412 
Q 1947 2706 1947 2009 
Q 1947 1309 1714 600 
Q 1481 -109 1013 -844 
L 513 -844 
Q 928 -128 1133 580 
Q 1338 1288 1338 2009 
Q 1338 2731 1133 3434 
Q 928 4138 513 4856 
z
" transform="scale(0.015625)"/>
        </defs>
        <use xlink:href="#DejaVuSans-74"/>
        <use xlink:href="#DejaVuSans-69" x="39.208984"/>
        <use xlink:href="#DejaVuSans-6d" x="66.992188"/>
        <use xlink:href="#DejaVuSans-65" x="164.404297"/>
        <use xlink:href="#DejaVuSans-20" x="225.927734"/>
        <use xlink:href="#DejaVuSans-61" x="257.714844"/>
        <use xlink:href="#DejaVuSans-67" x="318.994141"/>
        <use xlink:href="#DejaVuSans-6f" x="382.470703"/>
        <use xlink:href="#DejaVuSans-20" x="443.652344"/>
        <use xlink:href="#DejaVuSans-28" x="475.439453"/>
        <use xlink:href="#DejaVuSans-67" x="514.453125"/>
        <use xlink:href="#DejaVuSans-65" x="577.929688"/>
        <use xlink:href="#DejaVuSans-6e" x="639.453125"/>
        <use xlink:href="#DejaVuSans-65" x="702.832031"/>
        <use xlink:href="#DejaVuSans-72" x="764.355469"/>
        <use xlink:href="#DejaVuSans-61" x="805.46875"/>
        <use xlink:href="#DejaVuSans-74" x="866.748047"/>
        <use xlink:href="#DejaVuSans-69" x="905.957031"/>
        <use xlink:href="#DejaVuSans-6f" x="933.740234"/>
        <use xlink:href="#DejaVuSans-6e" x="994.921875"/>
        <use xlink:href="#DejaVuSans-73" x="1058.300781"/>
        <use xlink:href="#DejaVuSans-29" x="1110.400391"/>
       </g>
      </g>
     </g>
     <path d="M 289.077717 158.795025 
L 291.077717 159.795025 
L 291.077717 157.795025 
z
" clip-path="url(#p462a90ead0)" style="fill: #ff7f0e; fill-opacity: 0.5; stroke: #ff7f0e; stroke-opacity: 0.5; stroke-linejoin: miter"/>
     <path d="M 289.077717 127.702505 
L 291.077717 128.702505 
L 291.077717 126.702505 
z
" clip-path="url(#p462a90ead0)" style="fill: #ff7f0e; fill-opacity: 0.5; stroke: #ff7f0e; stroke-opacity: 0.5; stroke-linejoin: miter"/>
     <path d="M 289.077717 167.96843 
L 291.077717 168.96843 
L 291.077717 166.96843 
z
" clip-path="url(#p462a90ead0)" style="fill: #ff7f0e; fill-opacity: 0.5; stroke: #ff7f0e; stroke-opacity: 0.5; stroke-linejoin: miter"/>
     <path d="M 289.077717 180.083875 
L 291.077717 181.083875 
L 291.077717 179.083875 
z
" clip-path="url(#p462a90ead0)" style="fill: #ff7f0e; fill-opacity: 0.5; stroke: #ff7f0e; stroke-opacity: 0.5; stroke-linejoin: miter"/>
     <path d="M 289.077717 123.713234 
L 291.077717 124.713234 
L 291.077717 122.713234 
z
" clip-path="url(#p462a90ead0)" style="fill: #ff7f0e; fill-opacity: 0.5; stroke: #ff7f0e; stroke-opacity: 0.5; stroke-linejoin: miter"/>
     <path d="M 289.077717 197.10054 
L 291.077717 198.10054 
L 291.077717 196.10054 
z
" clip-path="url(#p462a90ead0)" style="fill: #ff7f0e; fill-opacity: 0.5; stroke: #ff7f0e; stroke-opacity: 0.5; stroke-linejoin: miter"/>
     <path d="M 289.077717 86.766245 
L 291.077717 87.766245 
L 291.077717 85.766245 
z
" clip-path="url(#p462a90ead0)" style="fill: #ff7f0e; fill-opacity: 0.5; stroke: #ff7f0e; stroke-opacity: 0.5; stroke-linejoin: miter"/>
     <path d="M 289.077717 167.869217 
L 291.077717 168.869217 
L 291.077717 166.869217 
z
" clip-path="url(#p462a90ead0)" style="fill: #ff7f0e; fill-opacity: 0.5; stroke: #ff7f0e; stroke-opacity: 0.5; stroke-linejoin: miter"/>
     <path d="M 289.077717 158.52366 
L 291.077717 159.52366 
L 291.077717 157.52366 
z
" clip-path="url(#p462a90ead0)" style="fill: #ff7f0e; fill-opacity: 0.5; stroke: #ff7f0e; stroke-opacity: 0.5; stroke-linejoin: miter"/>
     <path d="M 289.077717 95.825441 
L 291.077717 96.825441 
L 291.077717 94.825441 
z
" clip-path="url(#p462a90ead0)" style="fill: #ff7f0e; fill-opacity: 0.5; stroke: #ff7f0e; stroke-opacity: 0.5; stroke-linejoin: miter"/>
     <path d="M 354.703533 152.822873 
L 352.703533 151.822873 
L 352.703533 153.822873 
z
" clip-path="url(#p462a90ead0)" style="fill: #1f77b4; fill-opacity: 0.5; stroke: #1f77b4; stroke-opacity: 0.5; stroke-linejoin: miter"/>
     <path d="M 354.703533 154.315846 
L 352.703533 153.315846 
L 352.703533 155.315846 
z
" clip-path="url(#p462a90ead0)" style="fill: #1f77b4; fill-opacity: 0.5; stroke: #1f77b4; stroke-opacity: 0.5; stroke-linejoin: miter"/>
     <path d="M 354.703533 194.171439 
L 352.703533 193.171439 
L 352.703533 195.171439 
z
" clip-path="url(#p462a90ead0)" style="fill: #1f77b4; fill-opacity: 0.5; stroke: #1f77b4; stroke-opacity: 0.5; stroke-linejoin: miter"/>
     <path d="M 354.703533 193.945133 
L 352.703533 192.945133 
L 352.703533 194.945133 
z
" clip-path="url(#p462a90ead0)" style="fill: #1f77b4; fill-opacity: 0.5; stroke: #1f77b4; stroke-opacity: 0.5; stroke-linejoin: miter"/>
     <path d="M 354.703533 85.707772 
L 352.703533 84.707772 
L 352.703533 86.707772 
z
" clip-path="url(#p462a90ead0)" style="fill: #1f77b4; fill-opacity: 0.5; stroke: #1f77b4; stroke-opacity: 0.5; stroke-linejoin: miter"/>
     <path d="M 354.703533 138.40637 
L 352.703533 137.40637 
L 352.703533 139.40637 
z
" clip-path="url(#p462a90ead0)" style="fill: #1f77b4; fill-opacity: 0.5; stroke: #1f77b4; stroke-opacity: 0.5; stroke-linejoin: miter"/>
     <path d="M 354.703533 103.576862 
L 352.703533 102.576862 
L 352.703533 104.576862 
z
" clip-path="url(#p462a90ead0)" style="fill: #1f77b4; fill-opacity: 0.5; stroke: #1f77b4; stroke-opacity: 0.5; stroke-linejoin: miter"/>
     <path d="M 354.703533 188.921455 
L 352.703533 187.921455 
L 352.703533 189.921455 
z
" clip-path="url(#p462a90ead0)" style="fill: #1f77b4; fill-opacity: 0.5; stroke: #1f77b4; stroke-opacity: 0.5; stroke-linejoin: miter"/>
     <path d="M 354.703533 137.162064 
L 352.703533 136.162064 
L 352.703533 138.162064 
z
" clip-path="url(#p462a90ead0)" style="fill: #1f77b4; fill-opacity: 0.5; stroke: #1f77b4; stroke-opacity: 0.5; stroke-linejoin: miter"/>
     <path d="M 354.703533 91.083544 
L 352.703533 90.083544 
L 352.703533 92.083544 
z
" clip-path="url(#p462a90ead0)" style="fill: #1f77b4; fill-opacity: 0.5; stroke: #1f77b4; stroke-opacity: 0.5; stroke-linejoin: miter"/>
     <path d="M 289.077717 306.343295 
L 291.077717 307.343295 
L 291.077717 305.343295 
z
" clip-path="url(#p462a90ead0)" style="fill: #ff7f0e; fill-opacity: 0.5; stroke: #ff7f0e; stroke-opacity: 0.5; stroke-linejoin: miter"/>
     <path d="M 289.077717 282.982656 
L 291.077717 283.982656 
L 291.077717 281.982656 
z
" clip-path="url(#p462a90ead0)" style="fill: #ff7f0e; fill-opacity: 0.5; stroke: #ff7f0e; stroke-opacity: 0.5; stroke-linejoin: miter"/>
     <path d="M 289.077717 234.50866 
L 291.077717 235.50866 
L 291.077717 233.50866 
z
" clip-path="url(#p462a90ead0)" style="fill: #ff7f0e; fill-opacity: 0.5; stroke: #ff7f0e; stroke-opacity: 0.5; stroke-linejoin: miter"/>
     <path d="M 289.077717 307.22153 
L 291.077717 308.22153 
L 291.077717 306.22153 
z
" clip-path="url(#p462a90ead0)" style="fill: #ff7f0e; fill-opacity: 0.5; stroke: #ff7f0e; stroke-opacity: 0.5; stroke-linejoin: miter"/>
     <path d="M 289.077717 208.281633 
L 291.077717 209.281633 
L 291.077717 207.281633 
z
" clip-path="url(#p462a90ead0)" style="fill: #ff7f0e; fill-opacity: 0.5; stroke: #ff7f0e; stroke-opacity: 0.5; stroke-linejoin: miter"/>
     <path d="M 289.077717 226.085551 
L 291.077717 227.085551 
L 291.077717 225.085551 
z
" clip-path="url(#p462a90ead0)" style="fill: #ff7f0e; fill-opacity: 0.5; stroke: #ff7f0e; stroke-opacity: 0.5; stroke-linejoin: miter"/>
     <path d="M 289.077717 246.699089 
L 291.077717 247.699089 
L 291.077717 245.699089 
z
" clip-path="url(#p462a90ead0)" style="fill: #ff7f0e; fill-opacity: 0.5; stroke: #ff7f0e; stroke-opacity: 0.5; stroke-linejoin: miter"/>
     <path d="M 289.077717 278.246644 
L 291.077717 279.246644 
L 291.077717 277.246644 
z
" clip-path="url(#p462a90ead0)" style="fill: #ff7f0e; fill-opacity: 0.5; stroke: #ff7f0e; stroke-opacity: 0.5; stroke-linejoin: miter"/>
     <path d="M 289.077717 309.865566 
L 291.077717 310.865566 
L 291.077717 308.865566 
z
" clip-path="url(#p462a90ead0)" style="fill: #ff7f0e; fill-opacity: 0.5; stroke: #ff7f0e; stroke-opacity: 0.5; stroke-linejoin: miter"/>
     <path d="M 289.077717 224.115819 
L 291.077717 225.115819 
L 291.077717 223.115819 
z
" clip-path="url(#p462a90ead0)" style="fill: #ff7f0e; fill-opacity: 0.5; stroke: #ff7f0e; stroke-opacity: 0.5; stroke-linejoin: miter"/>
     <path d="M 354.703533 233.268161 
L 352.703533 232.268161 
L 352.703533 234.268161 
z
" clip-path="url(#p462a90ead0)" style="fill: #1f77b4; fill-opacity: 0.5; stroke: #1f77b4; stroke-opacity: 0.5; stroke-linejoin: miter"/>
     <path d="M 354.703533 264.002523 
L 352.703533 263.002523 
L 352.703533 265.002523 
z
" clip-path="url(#p462a90ead0)" style="fill: #1f77b4; fill-opacity: 0.5; stroke: #1f77b4; stroke-opacity: 0.5; stroke-linejoin: miter"/>
     <path d="M 354.703533 278.418055 
L 352.703533 277.418055 
L 352.703533 279.418055 
z
" clip-path="url(#p462a90ead0)" style="fill: #1f77b4; fill-opacity: 0.5; stroke: #1f77b4; stroke-opacity: 0.5; stroke-linejoin: miter"/>
     <path d="M 354.703533 278.99589 
L 352.703533 277.99589 
L 352.703533 279.99589 
z
" clip-path="url(#p462a90ead0)" style="fill: #1f77b4; fill-opacity: 0.5; stroke: #1f77b4; stroke-opacity: 0.5; stroke-linejoin: miter"/>
     <path d="M 354.703533 317.887932 
L 352.703533 316.887932 
L 352.703533 318.887932 
z
" clip-path="url(#p462a90ead0)" style="fill: #1f77b4; fill-opacity: 0.5; stroke: #1f77b4; stroke-opacity: 0.5; stroke-linejoin: miter"/>
     <path d="M 354.703533 285.312133 
L 352.703533 284.312133 
L 352.703533 286.312133 
z
" clip-path="url(#p462a90ead0)" style="fill: #1f77b4; fill-opacity: 0.5; stroke: #1f77b4; stroke-opacity: 0.5; stroke-linejoin: miter"/>
     <path d="M 354.703533 223.890134 
L 352.703533 222.890134 
L 352.703533 224.890134 
z
" clip-path="url(#p462a90ead0)" style="fill: #1f77b4; fill-opacity: 0.5; stroke: #1f77b4; stroke-opacity: 0.5; stroke-linejoin: miter"/>
     <path d="M 354.703533 243.75503 
L 352.703533 242.75503 
L 352.703533 244.75503 
z
" clip-path="url(#p462a90ead0)" style="fill: #1f77b4; fill-opacity: 0.5; stroke: #1f77b4; stroke-opacity: 0.5; stroke-linejoin: miter"/>
     <path d="M 354.703533 310.920565 
L 352.703533 309.920565 
L 352.703533 311.920565 
z
" clip-path="url(#p462a90ead0)" style="fill: #1f77b4; fill-opacity: 0.5; stroke: #1f77b4; stroke-opacity: 0.5; stroke-linejoin: miter"/>
     <path d="M 354.703533 304.269971 
L 352.703533 303.269971 
L 352.703533 305.269971 
z
" clip-path="url(#p462a90ead0)" style="fill: #1f77b4; fill-opacity: 0.5; stroke: #1f77b4; stroke-opacity: 0.5; stroke-linejoin: miter"/>
     <g id="patch_5">
      <path d="M 43.78125 318.021875 
L 43.78125 22.318125 
" style="fill: none; stroke: #000000; stroke-width: 0.8; stroke-linejoin: miter; stroke-linecap: square"/>
     </g>
     <g id="text_10">
      <!-- defaults_symmetric_migration_changing_rate.yaml -->
      <g transform="translate(168.3525 16.318125) scale(0.12 -0.12)">
       <defs>
        <path id="DejaVuSans-66" d="M 2375 4863 
L 2375 4384 
L 1825 4384 
Q 1516 4384 1395 4259 
Q 1275 4134 1275 3809 
L 1275 3500 
L 2222 3500 
L 2222 3053 
L 1275 3053 
L 1275 0 
L 697 0 
L 697 3053 
L 147 3053 
L 147 3500 
L 697 3500 
L 697 3744 
Q 697 4328 969 4595 
Q 1241 4863 1831 4863 
L 2375 4863 
z
" transform="scale(0.015625)"/>
        <path id="DejaVuSans-75" d="M 544 1381 
L 544 3500 
L 1119 3500 
L 1119 1403 
Q 1119 906 1312 657 
Q 1506 409 1894 409 
Q 2359 409 2629 706 
Q 2900 1003 2900 1516 
L 2900 3500 
L 3475 3500 
L 3475 0 
L 2900 0 
L 2900 538 
Q 2691 219 2414 64 
Q 2138 -91 1772 -91 
Q 1169 -91 856 284 
Q 544 659 544 1381 
z
M 1991 3584 
L 1991 3584 
z
" transform="scale(0.015625)"/>
        <path id="DejaVuSans-6c" d="M 603 4863 
L 1178 4863 
L 1178 0 
L 603 0 
L 603 4863 
z
" transform="scale(0.015625)"/>
        <path id="DejaVuSans-5f" d="M 3263 -1063 
L 3263 -1509 
L -63 -1509 
L -63 -1063 
L 3263 -1063 
z
" transform="scale(0.015625)"/>
        <path id="DejaVuSans-79" d="M 2059 -325 
Q 1816 -950 1584 -1140 
Q 1353 -1331 966 -1331 
L 506 -1331 
L 506 -850 
L 844 -850 
Q 1081 -850 1212 -737 
Q 1344 -625 1503 -206 
L 1606 56 
L 191 3500 
L 800 3500 
L 1894 763 
L 2988 3500 
L 3597 3500 
L 2059 -325 
z
" transform="scale(0.015625)"/>
        <path id="DejaVuSans-63" d="M 3122 3366 
L 3122 2828 
Q 2878 2963 2633 3030 
Q 2388 3097 2138 3097 
Q 1578 3097 1268 2742 
Q 959 2388 959 1747 
Q 959 1106 1268 751 
Q 1578 397 2138 397 
Q 2388 397 2633 464 
Q 2878 531 3122 666 
L 3122 134 
Q 2881 22 2623 -34 
Q 2366 -91 2075 -91 
Q 1284 -91 818 406 
Q 353 903 353 1747 
Q 353 2603 823 3093 
Q 1294 3584 2113 3584 
Q 2378 3584 2631 3529 
Q 2884 3475 3122 3366 
z
" transform="scale(0.015625)"/>
        <path id="DejaVuSans-68" d="M 3513 2113 
L 3513 0 
L 2938 0 
L 2938 2094 
Q 2938 2591 2744 2837 
Q 2550 3084 2163 3084 
Q 1697 3084 1428 2787 
Q 1159 2491 1159 1978 
L 1159 0 
L 581 0 
L 581 4863 
L 1159 4863 
L 1159 2956 
Q 1366 3272 1645 3428 
Q 1925 3584 2291 3584 
Q 2894 3584 3203 3211 
Q 3513 2838 3513 2113 
z
" transform="scale(0.015625)"/>
       </defs>
       <use xlink:href="#DejaVuSans-64"/>
       <use xlink:href="#DejaVuSans-65" x="63.476562"/>
       <use xlink:href="#DejaVuSans-66" x="125"/>
       <use xlink:href="#DejaVuSans-61" x="160.205078"/>
       <use xlink:href="#DejaVuSans-75" x="221.484375"/>
       <use xlink:href="#DejaVuSans-6c" x="284.863281"/>
       <use xlink:href="#DejaVuSans-74" x="312.646484"/>
       <use xlink:href="#DejaVuSans-73" x="351.855469"/>
       <use xlink:href="#DejaVuSans-5f" x="403.955078"/>
       <use xlink:href="#DejaVuSans-73" x="453.955078"/>
       <use xlink:href="#DejaVuSans-79" x="506.054688"/>
       <use xlink:href="#DejaVuSans-6d" x="565.234375"/>
       <use xlink:href="#DejaVuSans-6d" x="662.646484"/>
       <use xlink:href="#DejaVuSans-65" x="760.058594"/>
       <use xlink:href="#DejaVuSans-74" x="821.582031"/>
       <use xlink:href="#DejaVuSans-72" x="860.791016"/>
       <use xlink:href="#DejaVuSans-69" x="901.904297"/>
       <use xlink:href="#DejaVuSans-63" x="929.6875"/>
       <use xlink:href="#DejaVuSans-5f" x="984.667969"/>
       <use xlink:href="#DejaVuSans-6d" x="1034.667969"/>
       <use xlink:href="#DejaVuSans-69" x="1132.080078"/>
       <use xlink:href="#DejaVuSans-67" x="1159.863281"/>
       <use xlink:href="#DejaVuSans-72" x="1223.339844"/>
       <use xlink:href="#DejaVuSans-61" x="1264.453125"/>
       <use xlink:href="#DejaVuSans-74" x="1325.732422"/>
       <use xlink:href="#DejaVuSans-69" x="1364.941406"/>
       <use xlink:href="#DejaVuSans-6f" x="1392.724609"/>
       <use xlink:href="#DejaVuSans-6e" x="1453.90625"/>
       <use xlink:href="#DejaVuSans-5f" x="1517.285156"/>
       <use xlink:href="#DejaVuSans-63" x="1567.285156"/>
       <use xlink:href="#DejaVuSans-68" x="1622.265625"/>
       <use xlink:href="#DejaVuSans-61" x="1685.644531"/>
       <use xlink:href="#DejaVuSans-6e" x="1746.923828"/>
       <use xlink:href="#DejaVuSans-67" x="1810.302734"/>
       <use xlink:href="#DejaVuSans-69" x="1873.779297"/>
       <use xlink:href="#DejaVuSans-6e" x="1901.5625"/>
       <use xlink:href="#DejaVuSans-67" x="1964.941406"/>
       <use xlink:href="#DejaVuSans-5f" x="2028.417969"/>
       <use xlink:href="#DejaVuSans-72" x="2078.417969"/>
       <use xlink:href="#DejaVuSans-61" x="2119.53125"/>
       <use xlink:href="#DejaVuSans-74" x="2180.810547"/>
       <use xlink:href="#DejaVuSans-65" x="2220.019531"/>
       <use xlink:href="#DejaVuSans-2e" x="2281.542969"/>
       <use xlink:href="#DejaVuSans-79" x="2313.330078"/>
       <use xlink:href="#DejaVuSans-61" x="2372.509766"/>
       <use xlink:href="#DejaVuSans-6d" x="2433.789062"/>
       <use xlink:href="#DejaVuSans-6c" x="2531.201172"/>
      </g>
     </g>
    </g>
   </g>
   <defs>
    <clipPath id="p462a90ead0">
     <rect x="43.78125" y="22.318125" width="556.21875" height="295.70375"/>
    </clipPath>
   </defs>
  </g>
 </g>
</svg>