<?xml version="1.0" encoding="utf-8" standalone="no"?>
<!DOCTYPE svg PUBLIC "-//W3C//DTD SVG 1.1//EN"
  "http://www.w3.org/Graphics/SVG/1.1/DTD/svg11.dtd">
<svg xmlns:xlink="http://www.w3.org/1999/xlink" width="607.2pt" height="338.4pt" viewBox="0 0 607.2 338.4" xmlns="http://www.w3.org/2000/svg" version="1.1">
 <metadata>
  <rdf:RDF xmlns:dc="http://purl.org/dc/elements/1.1/" xmlns:cc="http://creativecommons.org/ns#" xmlns:rdf="http://www.w3.org/1999/02/22-rdf-syntax-ns#">
   <cc:Work>
    <dc:type rdf:resource="http://purl.org/dc/dcmitype/StillImage"/>
    <dc:date>2023-06-26T09:03:14.645659</dc:date>
    <dc:format>image/svg+xml</dc:format>
    <dc:creator>
     <cc:Agent>
      <dc:title>Matplotlib v3.7.1, https://matplotlib.org/</dc:title>
     </cc:Agent>
    </dc:creator>
   </cc:Work>
  </rdf:RDF>
 </metadata>
 <defs>
  <style type="text/css">*{stroke-linejoin: round; stroke-linecap: butt}</style>
 </defs>
 <g id="figure_1">
  <g id="patch_1">
   <path d="M 0 338.4 
L 607.2 338.4 
L 607.2 0 
L 0 0 
z
" style="fill: #ffffff"/>
  </g>
  <g id="axes_1">
   <g id="patch_2">
    <path d="M 43.78125 318.021875 
L 600 318.021875 
L 600 22.318125 
L 43.78125 22.318125 
z
" style="fill: #ffffff"/>
   </g>
   <path d="M 290.098299 155.481649 
L 291.098299 155.513086 
L 292.098299 155.550026 
L 293.098299 155.647773 
L 294.098299 155.680294 
L 295.098299 155.753919 
L 296.098299 155.792484 
L 297.098299 155.827898 
L 298.098299 155.885538 
L 299.098299 155.955924 
L 300.098299 156.007888 
L 301.098299 156.066978 
L 302.098299 156.155299 
L 303.098299 156.201443 
L 304.098299 156.243854 
L 305.098299 156.274347 
L 306.098299 156.300391 
L 307.098299 156.321592 
L 308.098299 156.375893 
L 309.098299 156.40383 
L 310.098299 156.433554 
L 311.098299 156.458949 
L 312.098299 156.470149 
L 313.098299 156.480273 
L 314.098299 156.480069 
L 315.098299 156.470559 
L 316.098299 156.458906 
L 317.098299 156.427876 
L 318.098299 156.416708 
L 319.098299 156.386591 
L 320.098299 156.326814 
L 321.098299 156.289622 
L 322.098299 156.250526 
L 323.098299 156.208087 
L 324.098299 156.175322 
L 325.098299 156.107895 
L 326.098299 156.068769 
L 327.098299 156.026095 
L 328.098299 155.955514 
L 329.098299 155.919123 
L 330.098299 155.86072 
L 331.098299 155.749767 
L 332.098299 155.679109 
L 333.098299 155.566169 
L 334.098299 155.520396 
L 335.098299 155.459113 
L 336.098299 155.410614 
L 337.098299 155.329791 
L 338.098299 155.211272 
L 339.098299 155.141062 
L 340.098299 155.057799 
L 341.098299 155.024657 
L 342.098299 154.97342 
L 343.098299 154.905022 
L 344.098299 154.838806 
L 345.098299 154.761889 
L 346.098299 154.734574 
L 347.098299 154.708096 
L 348.098299 154.685446 
L 349.098299 154.665914 
L 350.098299 154.63952 
L 351.098299 154.589749 
L 352.098299 154.554676 
L 353.682951 154.518811 
" clip-path="url(#p724d2431f9)" style="fill: none; stroke: #1f77b4; stroke-opacity: 0.5; stroke-width: 0.2; stroke-linecap: square"/>
   <path d="M 290.098299 182.204053 
L 291.098299 182.235489 
L 292.098299 182.272429 
L 293.098299 182.370176 
L 294.098299 182.402698 
L 295.098299 182.476322 
L 296.098299 182.514888 
L 297.098299 182.550301 
L 298.098299 182.607941 
L 299.098299 182.678327 
L 300.098299 182.730291 
L 301.098299 182.789381 
L 302.098299 182.877702 
L 303.098299 182.923846 
L 304.098299 182.966257 
L 305.098299 182.99675 
L 306.098299 183.022795 
L 307.098299 183.043995 
L 308.098299 183.098296 
L 309.098299 183.126234 
L 310.098299 183.155958 
L 311.098299 183.181352 
L 312.098299 183.192553 
L 313.098299 183.202677 
L 314.098299 183.202472 
L 315.098299 183.192963 
L 316.098299 183.181309 
L 317.098299 183.15028 
L 318.098299 183.139112 
L 319.098299 183.108994 
L 320.098299 183.049217 
L 321.098299 183.012026 
L 322.098299 182.97293 
L 323.098299 182.93049 
L 324.098299 182.897725 
L 325.098299 182.830298 
L 326.098299 182.791173 
L 327.098299 182.748498 
L 328.098299 182.677917 
L 329.098299 182.641527 
L 330.098299 182.583123 
L 331.098299 182.472171 
L 332.098299 182.401512 
L 333.098299 182.288573 
L 334.098299 182.2428 
L 335.098299 182.181517 
L 336.098299 182.133017 
L 337.098299 182.052195 
L 338.098299 181.933676 
L 339.098299 181.863465 
L 340.098299 181.780203 
L 341.098299 181.747061 
L 342.098299 181.695823 
L 343.098299 181.627425 
L 344.098299 181.56121 
L 345.098299 181.484293 
L 346.098299 181.456977 
L 347.098299 181.4305 
L 348.098299 181.407849 
L 349.098299 181.388318 
L 350.098299 181.361924 
L 351.098299 181.312153 
L 352.098299 181.27708 
L 353.682951 181.241214 
" clip-path="url(#p724d2431f9)" style="fill: none; stroke: #1f77b4; stroke-opacity: 0.5; stroke-width: 0.2; stroke-linecap: square"/>
   <path d="M 290.098299 123.965773 
L 291.098299 123.997209 
L 292.098299 124.03415 
L 293.098299 124.131896 
L 294.098299 124.164418 
L 295.098299 124.238042 
L 296.098299 124.276608 
L 297.098299 124.312021 
L 298.098299 124.369661 
L 299.098299 124.440047 
L 300.098299 124.492011 
L 301.098299 124.551101 
L 302.098299 124.639422 
L 303.098299 124.685566 
L 304.098299 124.727977 
L 305.098299 124.75847 
L 306.098299 124.784515 
L 307.098299 124.805715 
L 308.098299 124.860016 
L 309.098299 124.887954 
L 310.098299 124.917678 
L 311.098299 124.943073 
L 312.098299 124.954273 
L 313.098299 124.964397 
L 314.098299 124.964193 
L 315.098299 124.954683 
L 316.098299 124.943029 
L 317.098299 124.912 
L 318.098299 124.900832 
L 319.098299 124.870714 
L 320.098299 124.810937 
L 321.098299 124.773746 
L 322.098299 124.73465 
L 323.098299 124.69221 
L 324.098299 124.659445 
L 325.098299 124.592019 
L 326.098299 124.552893 
L 327.098299 124.510218 
L 328.098299 124.439638 
L 329.098299 124.403247 
L 330.098299 124.344844 
L 331.098299 124.233891 
L 332.098299 124.163233 
L 333.098299 124.050293 
L 334.098299 124.00452 
L 335.098299 123.943237 
L 336.098299 123.894737 
L 337.098299 123.813915 
L 338.098299 123.695396 
L 339.098299 123.625185 
L 340.098299 123.541923 
L 341.098299 123.508781 
L 342.098299 123.457544 
L 343.098299 123.389145 
L 344.098299 123.32293 
L 345.098299 123.246013 
L 346.098299 123.218697 
L 347.098299 123.19222 
L 348.098299 123.169569 
L 349.098299 123.150038 
L 350.098299 123.123644 
L 351.098299 123.073873 
L 352.098299 123.0388 
L 353.682951 123.002934 
" clip-path="url(#p724d2431f9)" style="fill: none; stroke: #1f77b4; stroke-opacity: 0.5; stroke-width: 0.2; stroke-linecap: square"/>
   <path d="M 290.098299 168.648127 
L 291.098299 168.679563 
L 292.098299 168.716504 
L 293.098299 168.81425 
L 294.098299 168.846772 
L 295.098299 168.920396 
L 296.098299 168.958962 
L 297.098299 168.994375 
L 298.098299 169.052015 
L 299.098299 169.122401 
L 300.098299 169.174365 
L 301.098299 169.233455 
L 302.098299 169.321776 
L 303.098299 169.36792 
L 304.098299 169.410331 
L 305.098299 169.440824 
L 306.098299 169.466869 
L 307.098299 169.488069 
L 308.098299 169.54237 
L 309.098299 169.570308 
L 310.098299 169.600032 
L 311.098299 169.625427 
L 312.098299 169.636627 
L 313.098299 169.646751 
L 314.098299 169.646547 
L 315.098299 169.637037 
L 316.098299 169.625383 
L 317.098299 169.594354 
L 318.098299 169.583186 
L 319.098299 169.553068 
L 320.098299 169.493292 
L 321.098299 169.4561 
L 322.098299 169.417004 
L 323.098299 169.374564 
L 324.098299 169.341799 
L 325.098299 169.274373 
L 326.098299 169.235247 
L 327.098299 169.192572 
L 328.098299 169.121992 
L 329.098299 169.085601 
L 330.098299 169.027198 
L 331.098299 168.916245 
L 332.098299 168.845587 
L 333.098299 168.732647 
L 334.098299 168.686874 
L 335.098299 168.625591 
L 336.098299 168.577091 
L 337.098299 168.496269 
L 338.098299 168.37775 
L 339.098299 168.307539 
L 340.098299 168.224277 
L 341.098299 168.191135 
L 342.098299 168.139898 
L 343.098299 168.071499 
L 344.098299 168.005284 
L 345.098299 167.928367 
L 346.098299 167.901051 
L 347.098299 167.874574 
L 348.098299 167.851923 
L 349.098299 167.832392 
L 350.098299 167.805998 
L 351.098299 167.756227 
L 352.098299 167.721154 
L 353.682951 167.685288 
" clip-path="url(#p724d2431f9)" style="fill: none; stroke: #1f77b4; stroke-opacity: 0.5; stroke-width: 0.2; stroke-linecap: square"/>
   <path d="M 290.098299 173.337803 
L 291.098299 173.369239 
L 292.098299 173.40618 
L 293.098299 173.503926 
L 294.098299 173.536448 
L 295.098299 173.610073 
L 296.098299 173.648638 
L 297.098299 173.684051 
L 298.098299 173.741691 
L 299.098299 173.812077 
L 300.098299 173.864042 
L 301.098299 173.923131 
L 302.098299 174.011452 
L 303.098299 174.057597 
L 304.098299 174.100008 
L 305.098299 174.1305 
L 306.098299 174.156545 
L 307.098299 174.177745 
L 308.098299 174.232046 
L 309.098299 174.259984 
L 310.098299 174.289708 
L 311.098299 174.315103 
L 312.098299 174.326303 
L 313.098299 174.336427 
L 314.098299 174.336223 
L 315.098299 174.326713 
L 316.098299 174.315059 
L 317.098299 174.28403 
L 318.098299 174.272862 
L 319.098299 174.242745 
L 320.098299 174.182968 
L 321.098299 174.145776 
L 322.098299 174.10668 
L 323.098299 174.06424 
L 324.098299 174.031475 
L 325.098299 173.964049 
L 326.098299 173.924923 
L 327.098299 173.882248 
L 328.098299 173.811668 
L 329.098299 173.775277 
L 330.098299 173.716874 
L 331.098299 173.605921 
L 332.098299 173.535263 
L 333.098299 173.422323 
L 334.098299 173.37655 
L 335.098299 173.315267 
L 336.098299 173.266768 
L 337.098299 173.185945 
L 338.098299 173.067426 
L 339.098299 172.997215 
L 340.098299 172.913953 
L 341.098299 172.880811 
L 342.098299 172.829574 
L 343.098299 172.761175 
L 344.098299 172.69496 
L 345.098299 172.618043 
L 346.098299 172.590727 
L 347.098299 172.56425 
L 348.098299 172.541599 
L 349.098299 172.522068 
L 350.098299 172.495674 
L 351.098299 172.445903 
L 352.098299 172.41083 
L 353.682951 172.374964 
" clip-path="url(#p724d2431f9)" style="fill: none; stroke: #1f77b4; stroke-opacity: 0.5; stroke-width: 0.2; stroke-linecap: square"/>
   <path d="M 290.098299 94.786082 
L 291.098299 94.817519 
L 292.098299 94.854459 
L 293.098299 94.952206 
L 294.098299 94.984727 
L 295.098299 95.058352 
L 296.098299 95.096917 
L 297.098299 95.132331 
L 298.098299 95.189971 
L 299.098299 95.260357 
L 300.098299 95.312321 
L 301.098299 95.371411 
L 302.098299 95.459732 
L 303.098299 95.505876 
L 304.098299 95.548287 
L 305.098299 95.57878 
L 306.098299 95.604825 
L 307.098299 95.626025 
L 308.098299 95.680326 
L 309.098299 95.708263 
L 310.098299 95.737987 
L 311.098299 95.763382 
L 312.098299 95.774582 
L 313.098299 95.784706 
L 314.098299 95.784502 
L 315.098299 95.774992 
L 316.098299 95.763339 
L 317.098299 95.732309 
L 318.098299 95.721141 
L 319.098299 95.691024 
L 320.098299 95.631247 
L 321.098299 95.594055 
L 322.098299 95.554959 
L 323.098299 95.51252 
L 324.098299 95.479755 
L 325.098299 95.412328 
L 326.098299 95.373202 
L 327.098299 95.330528 
L 328.098299 95.259947 
L 329.098299 95.223556 
L 330.098299 95.165153 
L 331.098299 95.0542 
L 332.098299 94.983542 
L 333.098299 94.870602 
L 334.098299 94.824829 
L 335.098299 94.763546 
L 336.098299 94.715047 
L 337.098299 94.634224 
L 338.098299 94.515705 
L 339.098299 94.445495 
L 340.098299 94.362232 
L 341.098299 94.32909 
L 342.098299 94.277853 
L 343.098299 94.209455 
L 344.098299 94.143239 
L 345.098299 94.066322 
L 346.098299 94.039007 
L 347.098299 94.012529 
L 348.098299 93.989879 
L 349.098299 93.970347 
L 350.098299 93.943953 
L 351.098299 93.894183 
L 352.098299 93.859109 
L 353.682951 93.823244 
" clip-path="url(#p724d2431f9)" style="fill: none; stroke: #1f77b4; stroke-opacity: 0.5; stroke-width: 0.2; stroke-linecap: square"/>
   <path d="M 290.098299 93.946467 
L 291.098299 93.977903 
L 292.098299 94.014844 
L 293.098299 94.11259 
L 294.098299 94.145112 
L 295.098299 94.218737 
L 296.098299 94.257302 
L 297.098299 94.292715 
L 298.098299 94.350355 
L 299.098299 94.420742 
L 300.098299 94.472706 
L 301.098299 94.531795 
L 302.098299 94.620116 
L 303.098299 94.666261 
L 304.098299 94.708672 
L 305.098299 94.739164 
L 306.098299 94.765209 
L 307.098299 94.786409 
L 308.098299 94.84071 
L 309.098299 94.868648 
L 310.098299 94.898372 
L 311.098299 94.923767 
L 312.098299 94.934967 
L 313.098299 94.945091 
L 314.098299 94.944887 
L 315.098299 94.935377 
L 316.098299 94.923723 
L 317.098299 94.892694 
L 318.098299 94.881526 
L 319.098299 94.851409 
L 320.098299 94.791632 
L 321.098299 94.75444 
L 322.098299 94.715344 
L 323.098299 94.672904 
L 324.098299 94.640139 
L 325.098299 94.572713 
L 326.098299 94.533587 
L 327.098299 94.490912 
L 328.098299 94.420332 
L 329.098299 94.383941 
L 330.098299 94.325538 
L 331.098299 94.214585 
L 332.098299 94.143927 
L 333.098299 94.030987 
L 334.098299 93.985214 
L 335.098299 93.923931 
L 336.098299 93.875432 
L 337.098299 93.794609 
L 338.098299 93.67609 
L 339.098299 93.605879 
L 340.098299 93.522617 
L 341.098299 93.489475 
L 342.098299 93.438238 
L 343.098299 93.36984 
L 344.098299 93.303624 
L 345.098299 93.226707 
L 346.098299 93.199392 
L 347.098299 93.172914 
L 348.098299 93.150263 
L 349.098299 93.130732 
L 350.098299 93.104338 
L 351.098299 93.054567 
L 352.098299 93.019494 
L 353.682951 92.983628 
" clip-path="url(#p724d2431f9)" style="fill: none; stroke: #1f77b4; stroke-opacity: 0.5; stroke-width: 0.2; stroke-linecap: square"/>
   <path d="M 290.098299 112.540602 
L 291.098299 112.572039 
L 292.098299 112.608979 
L 293.098299 112.706726 
L 294.098299 112.739247 
L 295.098299 112.812872 
L 296.098299 112.851438 
L 297.098299 112.886851 
L 298.098299 112.944491 
L 299.098299 113.014877 
L 300.098299 113.066841 
L 301.098299 113.125931 
L 302.098299 113.214252 
L 303.098299 113.260396 
L 304.098299 113.302807 
L 305.098299 113.3333 
L 306.098299 113.359345 
L 307.098299 113.380545 
L 308.098299 113.434846 
L 309.098299 113.462784 
L 310.098299 113.492507 
L 311.098299 113.517902 
L 312.098299 113.529103 
L 313.098299 113.539227 
L 314.098299 113.539022 
L 315.098299 113.529512 
L 316.098299 113.517859 
L 317.098299 113.48683 
L 318.098299 113.475662 
L 319.098299 113.445544 
L 320.098299 113.385767 
L 321.098299 113.348576 
L 322.098299 113.30948 
L 323.098299 113.26704 
L 324.098299 113.234275 
L 325.098299 113.166848 
L 326.098299 113.127722 
L 327.098299 113.085048 
L 328.098299 113.014467 
L 329.098299 112.978076 
L 330.098299 112.919673 
L 331.098299 112.808721 
L 332.098299 112.738062 
L 333.098299 112.625123 
L 334.098299 112.57935 
L 335.098299 112.518066 
L 336.098299 112.469567 
L 337.098299 112.388744 
L 338.098299 112.270225 
L 339.098299 112.200015 
L 340.098299 112.116752 
L 341.098299 112.083611 
L 342.098299 112.032373 
L 343.098299 111.963975 
L 344.098299 111.89776 
L 345.098299 111.820842 
L 346.098299 111.793527 
L 347.098299 111.767049 
L 348.098299 111.744399 
L 349.098299 111.724868 
L 350.098299 111.698474 
L 351.098299 111.648703 
L 352.098299 111.61363 
L 353.682951 111.577764 
" clip-path="url(#p724d2431f9)" style="fill: none; stroke: #1f77b4; stroke-opacity: 0.5; stroke-width: 0.2; stroke-linecap: square"/>
   <path d="M 290.098299 169.547281 
L 291.098299 169.578718 
L 292.098299 169.615658 
L 293.098299 169.713405 
L 294.098299 169.745926 
L 295.098299 169.819551 
L 296.098299 169.858117 
L 297.098299 169.89353 
L 298.098299 169.95117 
L 299.098299 170.021556 
L 300.098299 170.07352 
L 301.098299 170.13261 
L 302.098299 170.220931 
L 303.098299 170.267075 
L 304.098299 170.309486 
L 305.098299 170.339979 
L 306.098299 170.366024 
L 307.098299 170.387224 
L 308.098299 170.441525 
L 309.098299 170.469463 
L 310.098299 170.499186 
L 311.098299 170.524581 
L 312.098299 170.535782 
L 313.098299 170.545906 
L 314.098299 170.545701 
L 315.098299 170.536191 
L 316.098299 170.524538 
L 317.098299 170.493509 
L 318.098299 170.482341 
L 319.098299 170.452223 
L 320.098299 170.392446 
L 321.098299 170.355255 
L 322.098299 170.316159 
L 323.098299 170.273719 
L 324.098299 170.240954 
L 325.098299 170.173527 
L 326.098299 170.134401 
L 327.098299 170.091727 
L 328.098299 170.021146 
L 329.098299 169.984755 
L 330.098299 169.926352 
L 331.098299 169.8154 
L 332.098299 169.744741 
L 333.098299 169.631802 
L 334.098299 169.586029 
L 335.098299 169.524745 
L 336.098299 169.476246 
L 337.098299 169.395423 
L 338.098299 169.276904 
L 339.098299 169.206694 
L 340.098299 169.123431 
L 341.098299 169.09029 
L 342.098299 169.039052 
L 343.098299 168.970654 
L 344.098299 168.904439 
L 345.098299 168.827521 
L 346.098299 168.800206 
L 347.098299 168.773728 
L 348.098299 168.751078 
L 349.098299 168.731547 
L 350.098299 168.705153 
L 351.098299 168.655382 
L 352.098299 168.620309 
L 353.682951 168.584443 
" clip-path="url(#p724d2431f9)" style="fill: none; stroke: #1f77b4; stroke-opacity: 0.5; stroke-width: 0.2; stroke-linecap: square"/>
   <path d="M 290.098299 182.990734 
L 291.098299 183.02217 
L 292.098299 183.05911 
L 293.098299 183.156857 
L 294.098299 183.189378 
L 295.098299 183.263003 
L 296.098299 183.301569 
L 297.098299 183.336982 
L 298.098299 183.394622 
L 299.098299 183.465008 
L 300.098299 183.516972 
L 301.098299 183.576062 
L 302.098299 183.664383 
L 303.098299 183.710527 
L 304.098299 183.752938 
L 305.098299 183.783431 
L 306.098299 183.809476 
L 307.098299 183.830676 
L 308.098299 183.884977 
L 309.098299 183.912915 
L 310.098299 183.942639 
L 311.098299 183.968033 
L 312.098299 183.979234 
L 313.098299 183.989358 
L 314.098299 183.989153 
L 315.098299 183.979643 
L 316.098299 183.96799 
L 317.098299 183.936961 
L 318.098299 183.925793 
L 319.098299 183.895675 
L 320.098299 183.835898 
L 321.098299 183.798707 
L 322.098299 183.759611 
L 323.098299 183.717171 
L 324.098299 183.684406 
L 325.098299 183.616979 
L 326.098299 183.577854 
L 327.098299 183.535179 
L 328.098299 183.464598 
L 329.098299 183.428208 
L 330.098299 183.369804 
L 331.098299 183.258852 
L 332.098299 183.188193 
L 333.098299 183.075254 
L 334.098299 183.029481 
L 335.098299 182.968197 
L 336.098299 182.919698 
L 337.098299 182.838875 
L 338.098299 182.720357 
L 339.098299 182.650146 
L 340.098299 182.566883 
L 341.098299 182.533742 
L 342.098299 182.482504 
L 343.098299 182.414106 
L 344.098299 182.347891 
L 345.098299 182.270974 
L 346.098299 182.243658 
L 347.098299 182.217181 
L 348.098299 182.19453 
L 349.098299 182.174999 
L 350.098299 182.148605 
L 351.098299 182.098834 
L 352.098299 182.063761 
L 353.682951 182.027895 
" clip-path="url(#p724d2431f9)" style="fill: none; stroke: #1f77b4; stroke-opacity: 0.5; stroke-width: 0.2; stroke-linecap: square"/>
   <path d="M 290.098299 313.388792 
L 291.098299 313.420229 
L 292.098299 313.457169 
L 293.098299 313.554915 
L 294.098299 313.587437 
L 295.098299 313.661062 
L 296.098299 313.699627 
L 297.098299 313.735041 
L 298.098299 313.79268 
L 299.098299 313.863067 
L 300.098299 313.915031 
L 301.098299 313.974121 
L 302.098299 314.062442 
L 303.098299 314.108586 
L 304.098299 314.150997 
L 305.098299 314.18149 
L 306.098299 314.207534 
L 307.098299 314.228735 
L 308.098299 314.283036 
L 309.098299 314.310973 
L 310.098299 314.340697 
L 311.098299 314.366092 
L 312.098299 314.377292 
L 313.098299 314.387416 
L 314.098299 314.387212 
L 315.098299 314.377702 
L 316.098299 314.366049 
L 317.098299 314.335019 
L 318.098299 314.323851 
L 319.098299 314.293734 
L 320.098299 314.233957 
L 321.098299 314.196765 
L 322.098299 314.157669 
L 323.098299 314.11523 
L 324.098299 314.082465 
L 325.098299 314.015038 
L 326.098299 313.975912 
L 327.098299 313.933238 
L 328.098299 313.862657 
L 329.098299 313.826266 
L 330.098299 313.767863 
L 331.098299 313.65691 
L 332.098299 313.586252 
L 333.098299 313.473312 
L 334.098299 313.427539 
L 335.098299 313.366256 
L 336.098299 313.317757 
L 337.098299 313.236934 
L 338.098299 313.118415 
L 339.098299 313.048205 
L 340.098299 312.964942 
L 341.098299 312.9318 
L 342.098299 312.880563 
L 343.098299 312.812165 
L 344.098299 312.745949 
L 345.098299 312.669032 
L 346.098299 312.641717 
L 347.098299 312.615239 
L 348.098299 312.592588 
L 349.098299 312.573057 
L 350.098299 312.546663 
L 351.098299 312.496892 
L 352.098299 312.461819 
L 353.682951 312.425954 
" clip-path="url(#p724d2431f9)" style="fill: none; stroke: #1f77b4; stroke-opacity: 0.5; stroke-width: 0.2; stroke-linecap: square"/>
   <path d="M 290.098299 248.920584 
L 291.098299 248.952021 
L 292.098299 248.988961 
L 293.098299 249.086708 
L 294.098299 249.119229 
L 295.098299 249.192854 
L 296.098299 249.23142 
L 297.098299 249.266833 
L 298.098299 249.324473 
L 299.098299 249.394859 
L 300.098299 249.446823 
L 301.098299 249.505913 
L 302.098299 249.594234 
L 303.098299 249.640378 
L 304.098299 249.682789 
L 305.098299 249.713282 
L 306.098299 249.739327 
L 307.098299 249.760527 
L 308.098299 249.814828 
L 309.098299 249.842766 
L 310.098299 249.872489 
L 311.098299 249.897884 
L 312.098299 249.909085 
L 313.098299 249.919209 
L 314.098299 249.919004 
L 315.098299 249.909494 
L 316.098299 249.897841 
L 317.098299 249.866812 
L 318.098299 249.855644 
L 319.098299 249.825526 
L 320.098299 249.765749 
L 321.098299 249.728558 
L 322.098299 249.689462 
L 323.098299 249.647022 
L 324.098299 249.614257 
L 325.098299 249.54683 
L 326.098299 249.507704 
L 327.098299 249.46503 
L 328.098299 249.394449 
L 329.098299 249.358058 
L 330.098299 249.299655 
L 331.098299 249.188703 
L 332.098299 249.118044 
L 333.098299 249.005105 
L 334.098299 248.959332 
L 335.098299 248.898048 
L 336.098299 248.849549 
L 337.098299 248.768726 
L 338.098299 248.650207 
L 339.098299 248.579997 
L 340.098299 248.496734 
L 341.098299 248.463593 
L 342.098299 248.412355 
L 343.098299 248.343957 
L 344.098299 248.277742 
L 345.098299 248.200824 
L 346.098299 248.173509 
L 347.098299 248.147031 
L 348.098299 248.124381 
L 349.098299 248.10485 
L 350.098299 248.078456 
L 351.098299 248.028685 
L 352.098299 247.993612 
L 353.682951 247.957746 
" clip-path="url(#p724d2431f9)" style="fill: none; stroke: #1f77b4; stroke-opacity: 0.5; stroke-width: 0.2; stroke-linecap: square"/>
   <path d="M 290.098299 266.342695 
L 291.098299 266.374132 
L 292.098299 266.411072 
L 293.098299 266.508818 
L 294.098299 266.54134 
L 295.098299 266.614965 
L 296.098299 266.65353 
L 297.098299 266.688943 
L 298.098299 266.746583 
L 299.098299 266.81697 
L 300.098299 266.868934 
L 301.098299 266.928024 
L 302.098299 267.016345 
L 303.098299 267.062489 
L 304.098299 267.1049 
L 305.098299 267.135392 
L 306.098299 267.161437 
L 307.098299 267.182637 
L 308.098299 267.236939 
L 309.098299 267.264876 
L 310.098299 267.2946 
L 311.098299 267.319995 
L 312.098299 267.331195 
L 313.098299 267.341319 
L 314.098299 267.341115 
L 315.098299 267.331605 
L 316.098299 267.319952 
L 317.098299 267.288922 
L 318.098299 267.277754 
L 319.098299 267.247637 
L 320.098299 267.18786 
L 321.098299 267.150668 
L 322.098299 267.111572 
L 323.098299 267.069133 
L 324.098299 267.036367 
L 325.098299 266.968941 
L 326.098299 266.929815 
L 327.098299 266.887141 
L 328.098299 266.81656 
L 329.098299 266.780169 
L 330.098299 266.721766 
L 331.098299 266.610813 
L 332.098299 266.540155 
L 333.098299 266.427215 
L 334.098299 266.381442 
L 335.098299 266.320159 
L 336.098299 266.27166 
L 337.098299 266.190837 
L 338.098299 266.072318 
L 339.098299 266.002108 
L 340.098299 265.918845 
L 341.098299 265.885703 
L 342.098299 265.834466 
L 343.098299 265.766068 
L 344.098299 265.699852 
L 345.098299 265.622935 
L 346.098299 265.59562 
L 347.098299 265.569142 
L 348.098299 265.546491 
L 349.098299 265.52696 
L 350.098299 265.500566 
L 351.098299 265.450795 
L 352.098299 265.415722 
L 353.682951 265.379857 
" clip-path="url(#p724d2431f9)" style="fill: none; stroke: #1f77b4; stroke-opacity: 0.5; stroke-width: 0.2; stroke-linecap: square"/>
   <path d="M 290.098299 263.201244 
L 291.098299 263.23268 
L 292.098299 263.26962 
L 293.098299 263.367367 
L 294.098299 263.399889 
L 295.098299 263.473513 
L 296.098299 263.512079 
L 297.098299 263.547492 
L 298.098299 263.605132 
L 299.098299 263.675518 
L 300.098299 263.727482 
L 301.098299 263.786572 
L 302.098299 263.874893 
L 303.098299 263.921037 
L 304.098299 263.963448 
L 305.098299 263.993941 
L 306.098299 264.019986 
L 307.098299 264.041186 
L 308.098299 264.095487 
L 309.098299 264.123425 
L 310.098299 264.153149 
L 311.098299 264.178543 
L 312.098299 264.189744 
L 313.098299 264.199868 
L 314.098299 264.199663 
L 315.098299 264.190154 
L 316.098299 264.1785 
L 317.098299 264.147471 
L 318.098299 264.136303 
L 319.098299 264.106185 
L 320.098299 264.046408 
L 321.098299 264.009217 
L 322.098299 263.970121 
L 323.098299 263.927681 
L 324.098299 263.894916 
L 325.098299 263.827489 
L 326.098299 263.788364 
L 327.098299 263.745689 
L 328.098299 263.675108 
L 329.098299 263.638718 
L 330.098299 263.580314 
L 331.098299 263.469362 
L 332.098299 263.398704 
L 333.098299 263.285764 
L 334.098299 263.239991 
L 335.098299 263.178708 
L 336.098299 263.130208 
L 337.098299 263.049386 
L 338.098299 262.930867 
L 339.098299 262.860656 
L 340.098299 262.777394 
L 341.098299 262.744252 
L 342.098299 262.693014 
L 343.098299 262.624616 
L 344.098299 262.558401 
L 345.098299 262.481484 
L 346.098299 262.454168 
L 347.098299 262.427691 
L 348.098299 262.40504 
L 349.098299 262.385509 
L 350.098299 262.359115 
L 351.098299 262.309344 
L 352.098299 262.274271 
L 353.682951 262.238405 
" clip-path="url(#p724d2431f9)" style="fill: none; stroke: #1f77b4; stroke-opacity: 0.5; stroke-width: 0.2; stroke-linecap: square"/>
   <path d="M 290.098299 250.502104 
L 291.098299 250.533541 
L 292.098299 250.570481 
L 293.098299 250.668228 
L 294.098299 250.700749 
L 295.098299 250.774374 
L 296.098299 250.81294 
L 297.098299 250.848353 
L 298.098299 250.905993 
L 299.098299 250.976379 
L 300.098299 251.028343 
L 301.098299 251.087433 
L 302.098299 251.175754 
L 303.098299 251.221898 
L 304.098299 251.264309 
L 305.098299 251.294802 
L 306.098299 251.320847 
L 307.098299 251.342047 
L 308.098299 251.396348 
L 309.098299 251.424285 
L 310.098299 251.454009 
L 311.098299 251.479404 
L 312.098299 251.490605 
L 313.098299 251.500729 
L 314.098299 251.500524 
L 315.098299 251.491014 
L 316.098299 251.479361 
L 317.098299 251.448332 
L 318.098299 251.437164 
L 319.098299 251.407046 
L 320.098299 251.347269 
L 321.098299 251.310078 
L 322.098299 251.270982 
L 323.098299 251.228542 
L 324.098299 251.195777 
L 325.098299 251.12835 
L 326.098299 251.089224 
L 327.098299 251.04655 
L 328.098299 250.975969 
L 329.098299 250.939578 
L 330.098299 250.881175 
L 331.098299 250.770223 
L 332.098299 250.699564 
L 333.098299 250.586624 
L 334.098299 250.540852 
L 335.098299 250.479568 
L 336.098299 250.431069 
L 337.098299 250.350246 
L 338.098299 250.231727 
L 339.098299 250.161517 
L 340.098299 250.078254 
L 341.098299 250.045113 
L 342.098299 249.993875 
L 343.098299 249.925477 
L 344.098299 249.859261 
L 345.098299 249.782344 
L 346.098299 249.755029 
L 347.098299 249.728551 
L 348.098299 249.705901 
L 349.098299 249.686369 
L 350.098299 249.659976 
L 351.098299 249.610205 
L 352.098299 249.575132 
L 353.682951 249.539266 
" clip-path="url(#p724d2431f9)" style="fill: none; stroke: #1f77b4; stroke-opacity: 0.5; stroke-width: 0.2; stroke-linecap: square"/>
   <path d="M 290.098299 205.105631 
L 291.098299 205.137067 
L 292.098299 205.174007 
L 293.098299 205.271754 
L 294.098299 205.304276 
L 295.098299 205.3779 
L 296.098299 205.416466 
L 297.098299 205.451879 
L 298.098299 205.509519 
L 299.098299 205.579905 
L 300.098299 205.631869 
L 301.098299 205.690959 
L 302.098299 205.77928 
L 303.098299 205.825424 
L 304.098299 205.867835 
L 305.098299 205.898328 
L 306.098299 205.924373 
L 307.098299 205.945573 
L 308.098299 205.999874 
L 309.098299 206.027812 
L 310.098299 206.057536 
L 311.098299 206.08293 
L 312.098299 206.094131 
L 313.098299 206.104255 
L 314.098299 206.104051 
L 315.098299 206.094541 
L 316.098299 206.082887 
L 317.098299 206.051858 
L 318.098299 206.04069 
L 319.098299 206.010572 
L 320.098299 205.950795 
L 321.098299 205.913604 
L 322.098299 205.874508 
L 323.098299 205.832068 
L 324.098299 205.799303 
L 325.098299 205.731877 
L 326.098299 205.692751 
L 327.098299 205.650076 
L 328.098299 205.579496 
L 329.098299 205.543105 
L 330.098299 205.484701 
L 331.098299 205.373749 
L 332.098299 205.303091 
L 333.098299 205.190151 
L 334.098299 205.144378 
L 335.098299 205.083095 
L 336.098299 205.034595 
L 337.098299 204.953773 
L 338.098299 204.835254 
L 339.098299 204.765043 
L 340.098299 204.681781 
L 341.098299 204.648639 
L 342.098299 204.597402 
L 343.098299 204.529003 
L 344.098299 204.462788 
L 345.098299 204.385871 
L 346.098299 204.358555 
L 347.098299 204.332078 
L 348.098299 204.309427 
L 349.098299 204.289896 
L 350.098299 204.263502 
L 351.098299 204.213731 
L 352.098299 204.178658 
L 353.682951 204.142792 
" clip-path="url(#p724d2431f9)" style="fill: none; stroke: #1f77b4; stroke-opacity: 0.5; stroke-width: 0.2; stroke-linecap: square"/>
   <path d="M 290.098299 209.150107 
L 291.098299 209.181543 
L 292.098299 209.218484 
L 293.098299 209.31623 
L 294.098299 209.348752 
L 295.098299 209.422377 
L 296.098299 209.460942 
L 297.098299 209.496355 
L 298.098299 209.553995 
L 299.098299 209.624381 
L 300.098299 209.676346 
L 301.098299 209.735435 
L 302.098299 209.823756 
L 303.098299 209.869901 
L 304.098299 209.912312 
L 305.098299 209.942804 
L 306.098299 209.968849 
L 307.098299 209.990049 
L 308.098299 210.04435 
L 309.098299 210.072288 
L 310.098299 210.102012 
L 311.098299 210.127407 
L 312.098299 210.138607 
L 313.098299 210.148731 
L 314.098299 210.148527 
L 315.098299 210.139017 
L 316.098299 210.127363 
L 317.098299 210.096334 
L 318.098299 210.085166 
L 319.098299 210.055049 
L 320.098299 209.995272 
L 321.098299 209.95808 
L 322.098299 209.918984 
L 323.098299 209.876544 
L 324.098299 209.843779 
L 325.098299 209.776353 
L 326.098299 209.737227 
L 327.098299 209.694552 
L 328.098299 209.623972 
L 329.098299 209.587581 
L 330.098299 209.529178 
L 331.098299 209.418225 
L 332.098299 209.347567 
L 333.098299 209.234627 
L 334.098299 209.188854 
L 335.098299 209.127571 
L 336.098299 209.079072 
L 337.098299 208.998249 
L 338.098299 208.87973 
L 339.098299 208.809519 
L 340.098299 208.726257 
L 341.098299 208.693115 
L 342.098299 208.641878 
L 343.098299 208.573479 
L 344.098299 208.507264 
L 345.098299 208.430347 
L 346.098299 208.403031 
L 347.098299 208.376554 
L 348.098299 208.353903 
L 349.098299 208.334372 
L 350.098299 208.307978 
L 351.098299 208.258207 
L 352.098299 208.223134 
L 353.682951 208.187268 
" clip-path="url(#p724d2431f9)" style="fill: none; stroke: #1f77b4; stroke-opacity: 0.5; stroke-width: 0.2; stroke-linecap: square"/>
   <path d="M 290.098299 303.624436 
L 291.098299 303.655872 
L 292.098299 303.692812 
L 293.098299 303.790559 
L 294.098299 303.82308 
L 295.098299 303.896705 
L 296.098299 303.935271 
L 297.098299 303.970684 
L 298.098299 304.028324 
L 299.098299 304.09871 
L 300.098299 304.150674 
L 301.098299 304.209764 
L 302.098299 304.298085 
L 303.098299 304.344229 
L 304.098299 304.38664 
L 305.098299 304.417133 
L 306.098299 304.443178 
L 307.098299 304.464378 
L 308.098299 304.518679 
L 309.098299 304.546617 
L 310.098299 304.576341 
L 311.098299 304.601735 
L 312.098299 304.612936 
L 313.098299 304.62306 
L 314.098299 304.622855 
L 315.098299 304.613345 
L 316.098299 304.601692 
L 317.098299 304.570663 
L 318.098299 304.559495 
L 319.098299 304.529377 
L 320.098299 304.4696 
L 321.098299 304.432409 
L 322.098299 304.393313 
L 323.098299 304.350873 
L 324.098299 304.318108 
L 325.098299 304.250681 
L 326.098299 304.211556 
L 327.098299 304.168881 
L 328.098299 304.0983 
L 329.098299 304.06191 
L 330.098299 304.003506 
L 331.098299 303.892554 
L 332.098299 303.821895 
L 333.098299 303.708956 
L 334.098299 303.663183 
L 335.098299 303.601899 
L 336.098299 303.5534 
L 337.098299 303.472577 
L 338.098299 303.354059 
L 339.098299 303.283848 
L 340.098299 303.200585 
L 341.098299 303.167444 
L 342.098299 303.116206 
L 343.098299 303.047808 
L 344.098299 302.981593 
L 345.098299 302.904676 
L 346.098299 302.87736 
L 347.098299 302.850883 
L 348.098299 302.828232 
L 349.098299 302.808701 
L 350.098299 302.782307 
L 351.098299 302.732536 
L 352.098299 302.697463 
L 353.682951 302.661597 
" clip-path="url(#p724d2431f9)" style="fill: none; stroke: #1f77b4; stroke-opacity: 0.5; stroke-width: 0.2; stroke-linecap: square"/>
   <path d="M 290.098299 260.503244 
L 291.098299 260.534681 
L 292.098299 260.571621 
L 293.098299 260.669368 
L 294.098299 260.701889 
L 295.098299 260.775514 
L 296.098299 260.81408 
L 297.098299 260.849493 
L 298.098299 260.907133 
L 299.098299 260.977519 
L 300.098299 261.029483 
L 301.098299 261.088573 
L 302.098299 261.176894 
L 303.098299 261.223038 
L 304.098299 261.265449 
L 305.098299 261.295942 
L 306.098299 261.321987 
L 307.098299 261.343187 
L 308.098299 261.397488 
L 309.098299 261.425426 
L 310.098299 261.455149 
L 311.098299 261.480544 
L 312.098299 261.491745 
L 313.098299 261.501869 
L 314.098299 261.501664 
L 315.098299 261.492154 
L 316.098299 261.480501 
L 317.098299 261.449472 
L 318.098299 261.438304 
L 319.098299 261.408186 
L 320.098299 261.348409 
L 321.098299 261.311218 
L 322.098299 261.272122 
L 323.098299 261.229682 
L 324.098299 261.196917 
L 325.098299 261.12949 
L 326.098299 261.090364 
L 327.098299 261.04769 
L 328.098299 260.977109 
L 329.098299 260.940718 
L 330.098299 260.882315 
L 331.098299 260.771363 
L 332.098299 260.700704 
L 333.098299 260.587765 
L 334.098299 260.541992 
L 335.098299 260.480708 
L 336.098299 260.432209 
L 337.098299 260.351386 
L 338.098299 260.232867 
L 339.098299 260.162657 
L 340.098299 260.079394 
L 341.098299 260.046253 
L 342.098299 259.995015 
L 343.098299 259.926617 
L 344.098299 259.860402 
L 345.098299 259.783484 
L 346.098299 259.756169 
L 347.098299 259.729691 
L 348.098299 259.707041 
L 349.098299 259.68751 
L 350.098299 259.661116 
L 351.098299 259.611345 
L 352.098299 259.576272 
L 353.682951 259.540406 
" clip-path="url(#p724d2431f9)" style="fill: none; stroke: #1f77b4; stroke-opacity: 0.5; stroke-width: 0.2; stroke-linecap: square"/>
   <path d="M 290.098299 231.527756 
L 291.098299 231.559193 
L 292.098299 231.596133 
L 293.098299 231.69388 
L 294.098299 231.726401 
L 295.098299 231.800026 
L 296.098299 231.838592 
L 297.098299 231.874005 
L 298.098299 231.931645 
L 299.098299 232.002031 
L 300.098299 232.053995 
L 301.098299 232.113085 
L 302.098299 232.201406 
L 303.098299 232.24755 
L 304.098299 232.289961 
L 305.098299 232.320454 
L 306.098299 232.346499 
L 307.098299 232.367699 
L 308.098299 232.422 
L 309.098299 232.449937 
L 310.098299 232.479661 
L 311.098299 232.505056 
L 312.098299 232.516257 
L 313.098299 232.526381 
L 314.098299 232.526176 
L 315.098299 232.516666 
L 316.098299 232.505013 
L 317.098299 232.473984 
L 318.098299 232.462816 
L 319.098299 232.432698 
L 320.098299 232.372921 
L 321.098299 232.33573 
L 322.098299 232.296634 
L 323.098299 232.254194 
L 324.098299 232.221429 
L 325.098299 232.154002 
L 326.098299 232.114876 
L 327.098299 232.072202 
L 328.098299 232.001621 
L 329.098299 231.96523 
L 330.098299 231.906827 
L 331.098299 231.795875 
L 332.098299 231.725216 
L 333.098299 231.612276 
L 334.098299 231.566504 
L 335.098299 231.50522 
L 336.098299 231.456721 
L 337.098299 231.375898 
L 338.098299 231.257379 
L 339.098299 231.187169 
L 340.098299 231.103906 
L 341.098299 231.070765 
L 342.098299 231.019527 
L 343.098299 230.951129 
L 344.098299 230.884913 
L 345.098299 230.807996 
L 346.098299 230.780681 
L 347.098299 230.754203 
L 348.098299 230.731553 
L 349.098299 230.712021 
L 350.098299 230.685628 
L 351.098299 230.635857 
L 352.098299 230.600784 
L 353.682951 230.564918 
" clip-path="url(#p724d2431f9)" style="fill: none; stroke: #1f77b4; stroke-opacity: 0.5; stroke-width: 0.2; stroke-linecap: square"/>
   <g id="patch_3">
    <path d="M 69.06392 22.318125 
L 69.06392 318.021875 
M 284.536112 22.318125 
L 284.536112 318.021875 
" clip-path="url(#p724d2431f9)" style="fill: none; stroke: #ffffff; stroke-width: 3; stroke-linejoin: miter"/>
    <path d="M 69.06392 22.318125 
L 69.06392 318.021875 
M 284.536112 22.318125 
L 284.536112 318.021875 
" clip-path="url(#p724d2431f9)" style="fill: none; stroke: #1f77b4; stroke-linejoin: miter"/>
    <g id="PolyCollection_1">
     <path d="M 284.536112 22.318125 
L 69.06392 22.318125 
L 69.06392 318.021875 
L 284.536112 318.021875 
L 284.536112 318.021875 
L 284.536112 22.318125 
z
" clip-path="url(#p724d2431f9)" style="fill: #1f77b4; fill-opacity: 0.5"/>
    </g>
    <g id="patch_4">
     <path d="M 359.245138 22.318125 
L 359.245138 318.021875 
M 574.71733 22.318125 
L 574.71733 318.021875 
" clip-path="url(#p724d2431f9)" style="fill: none; stroke: #ffffff; stroke-width: 3; stroke-linejoin: miter"/>
     <path d="M 359.245138 22.318125 
L 359.245138 318.021875 
M 574.71733 22.318125 
L 574.71733 318.021875 
" clip-path="url(#p724d2431f9)" style="fill: none; stroke: #ff7f0e; stroke-linejoin: miter"/>
     <g id="PolyCollection_2">
      <path d="M 574.71733 22.318125 
L 359.245138 22.318125 
L 359.245138 318.021875 
L 574.71733 318.021875 
L 574.71733 318.021875 
L 574.71733 22.318125 
z
" clip-path="url(#p724d2431f9)" style="fill: #ff7f0e; fill-opacity: 0.5"/>
     </g>
     <g id="matplotlib.axis_1">
      <g id="xtick_1">
       <g id="line2d_1"/>
       <g id="text_1">
        <!-- deme0 -->
        <g transform="translate(159.42111 329.120312) scale(0.1 -0.1)">
         <defs>
          <path id="DejaVuSans-64" d="M 2906 2969 
L 2906 4863 
L 3481 4863 
L 3481 0 
L 2906 0 
L 2906 525 
Q 2725 213 2448 61 
Q 2172 -91 1784 -91 
Q 1150 -91 751 415 
Q 353 922 353 1747 
Q 353 2572 751 3078 
Q 1150 3584 1784 3584 
Q 2172 3584 2448 3432 
Q 2725 3281 2906 2969 
z
M 947 1747 
Q 947 1113 1208 752 
Q 1469 391 1925 391 
Q 2381 391 2643 752 
Q 2906 1113 2906 1747 
Q 2906 2381 2643 2742 
Q 2381 3103 1925 3103 
Q 1469 3103 1208 2742 
Q 947 2381 947 1747 
z
" transform="scale(0.015625)"/>
          <path id="DejaVuSans-65" d="M 3597 1894 
L 3597 1613 
L 953 1613 
Q 991 1019 1311 708 
Q 1631 397 2203 397 
Q 2534 397 2845 478 
Q 3156 559 3463 722 
L 3463 178 
Q 3153 47 2828 -22 
Q 2503 -91 2169 -91 
Q 1331 -91 842 396 
Q 353 884 353 1716 
Q 353 2575 817 3079 
Q 1281 3584 2069 3584 
Q 2775 3584 3186 3129 
Q 3597 2675 3597 1894 
z
M 3022 2063 
Q 3016 2534 2758 2815 
Q 2500 3097 2075 3097 
Q 1594 3097 1305 2825 
Q 1016 2553 972 2059 
L 3022 2063 
z
" transform="scale(0.015625)"/>
          <path id="DejaVuSans-6d" d="M 3328 2828 
Q 3544 3216 3844 3400 
Q 4144 3584 4550 3584 
Q 5097 3584 5394 3201 
Q 5691 2819 5691 2113 
L 5691 0 
L 5113 0 
L 5113 2094 
Q 5113 2597 4934 2840 
Q 4756 3084 4391 3084 
Q 3944 3084 3684 2787 
Q 3425 2491 3425 1978 
L 3425 0 
L 2847 0 
L 2847 2094 
Q 2847 2600 2669 2842 
Q 2491 3084 2119 3084 
Q 1678 3084 1418 2786 
Q 1159 2488 1159 1978 
L 1159 0 
L 581 0 
L 581 3500 
L 1159 3500 
L 1159 2956 
Q 1356 3278 1631 3431 
Q 1906 3584 2284 3584 
Q 2666 3584 2933 3390 
Q 3200 3197 3328 2828 
z
" transform="scale(0.015625)"/>
          <path id="DejaVuSans-30" d="M 2034 4250 
Q 1547 4250 1301 3770 
Q 1056 3291 1056 2328 
Q 1056 1369 1301 889 
Q 1547 409 2034 409 
Q 2525 409 2770 889 
Q 3016 1369 3016 2328 
Q 3016 3291 2770 3770 
Q 2525 4250 2034 4250 
z
M 2034 4750 
Q 2819 4750 3233 4129 
Q 3647 3509 3647 2328 
Q 3647 1150 3233 529 
Q 2819 -91 2034 -91 
Q 1250 -91 836 529 
Q 422 1150 422 2328 
Q 422 3509 836 4129 
Q 1250 4750 2034 4750 
z
" transform="scale(0.015625)"/>
         </defs>
         <use xlink:href="#DejaVuSans-64"/>
         <use xlink:href="#DejaVuSans-65" x="63.476562"/>
         <use xlink:href="#DejaVuSans-6d" x="125"/>
         <use xlink:href="#DejaVuSans-65" x="222.412109"/>
         <use xlink:href="#DejaVuSans-30" x="283.935547"/>
        </g>
       </g>
      </g>
      <g id="xtick_2">
       <g id="line2d_2"/>
       <g id="text_2">
        <!-- deme1 -->
        <g transform="translate(449.602328 329.120312) scale(0.1 -0.1)">
         <defs>
          <path id="DejaVuSans-31" d="M 794 531 
L 1825 531 
L 1825 4091 
L 703 3866 
L 703 4441 
L 1819 4666 
L 2450 4666 
L 2450 531 
L 3481 531 
L 3481 0 
L 794 0 
L 794 531 
z
" transform="scale(0.015625)"/>
         </defs>
         <use xlink:href="#DejaVuSans-64"/>
         <use xlink:href="#DejaVuSans-65" x="63.476562"/>
         <use xlink:href="#DejaVuSans-6d" x="125"/>
         <use xlink:href="#DejaVuSans-65" x="222.412109"/>
         <use xlink:href="#DejaVuSans-31" x="283.935547"/>
        </g>
       </g>
      </g>
     </g>
     <g id="matplotlib.axis_2">
      <g id="ytick_1">
       <g id="line2d_3">
        <defs>
         <path id="m135f7a0c6b" d="M 0 0 
L -3.5 0 
" style="stroke: #000000; stroke-width: 0.8"/>
        </defs>
        <g>
         <use xlink:href="#m135f7a0c6b" x="43.78125" y="318.021875" style="stroke: #000000; stroke-width: 0.8"/>
        </g>
       </g>
       <g id="text_3">
        <!-- 0.0 -->
        <g transform="translate(20.878125 321.821094) scale(0.1 -0.1)">
         <defs>
          <path id="DejaVuSans-2e" d="M 684 794 
L 1344 794 
L 1344 0 
L 684 0 
L 684 794 
z
" transform="scale(0.015625)"/>
         </defs>
         <use xlink:href="#DejaVuSans-30"/>
         <use xlink:href="#DejaVuSans-2e" x="63.623047"/>
         <use xlink:href="#DejaVuSans-30" x="95.410156"/>
        </g>
       </g>
      </g>
      <g id="ytick_2">
       <g id="line2d_4">
        <g>
         <use xlink:href="#m135f7a0c6b" x="43.78125" y="258.881125" style="stroke: #000000; stroke-width: 0.8"/>
        </g>
       </g>
       <g id="text_4">
        <!-- 0.5 -->
        <g transform="translate(20.878125 262.680344) scale(0.1 -0.1)">
         <defs>
          <path id="DejaVuSans-35" d="M 691 4666 
L 3169 4666 
L 3169 4134 
L 1269 4134 
L 1269 2991 
Q 1406 3038 1543 3061 
Q 1681 3084 1819 3084 
Q 2600 3084 3056 2656 
Q 3513 2228 3513 1497 
Q 3513 744 3044 326 
Q 2575 -91 1722 -91 
Q 1428 -91 1123 -41 
Q 819 9 494 109 
L 494 744 
Q 775 591 1075 516 
Q 1375 441 1709 441 
Q 2250 441 2565 725 
Q 2881 1009 2881 1497 
Q 2881 1984 2565 2268 
Q 2250 2553 1709 2553 
Q 1456 2553 1204 2497 
Q 953 2441 691 2322 
L 691 4666 
z
" transform="scale(0.015625)"/>
         </defs>
         <use xlink:href="#DejaVuSans-30"/>
         <use xlink:href="#DejaVuSans-2e" x="63.623047"/>
         <use xlink:href="#DejaVuSans-35" x="95.410156"/>
        </g>
       </g>
      </g>
      <g id="ytick_3">
       <g id="line2d_5">
        <g>
         <use xlink:href="#m135f7a0c6b" x="43.78125" y="199.740375" style="stroke: #000000; stroke-width: 0.8"/>
        </g>
       </g>
       <g id="text_5">
        <!-- 1.0 -->
        <g transform="translate(20.878125 203.539594) scale(0.1 -0.1)">
         <use xlink:href="#DejaVuSans-31"/>
         <use xlink:href="#DejaVuSans-2e" x="63.623047"/>
         <use xlink:href="#DejaVuSans-30" x="95.410156"/>
        </g>
       </g>
      </g>
      <g id="ytick_4">
       <g id="line2d_6">
        <g>
         <use xlink:href="#m135f7a0c6b" x="43.78125" y="140.599625" style="stroke: #000000; stroke-width: 0.8"/>
        </g>
       </g>
       <g id="text_6">
        <!-- 1.5 -->
        <g transform="translate(20.878125 144.398844) scale(0.1 -0.1)">
         <use xlink:href="#DejaVuSans-31"/>
         <use xlink:href="#DejaVuSans-2e" x="63.623047"/>
         <use xlink:href="#DejaVuSans-35" x="95.410156"/>
        </g>
       </g>
      </g>
      <g id="ytick_5">
       <g id="line2d_7">
        <g>
         <use xlink:href="#m135f7a0c6b" x="43.78125" y="81.458875" style="stroke: #000000; stroke-width: 0.8"/>
        </g>
       </g>
       <g id="text_7">
        <!-- 2.0 -->
        <g transform="translate(20.878125 85.258094) scale(0.1 -0.1)">
         <defs>
          <path id="DejaVuSans-32" d="M 1228 531 
L 3431 531 
L 3431 0 
L 469 0 
L 469 531 
Q 828 903 1448 1529 
Q 2069 2156 2228 2338 
Q 2531 2678 2651 2914 
Q 2772 3150 2772 3378 
Q 2772 3750 2511 3984 
Q 2250 4219 1831 4219 
Q 1534 4219 1204 4116 
Q 875 4013 500 3803 
L 500 4441 
Q 881 4594 1212 4672 
Q 1544 4750 1819 4750 
Q 2544 4750 2975 4387 
Q 3406 4025 3406 3419 
Q 3406 3131 3298 2873 
Q 3191 2616 2906 2266 
Q 2828 2175 2409 1742 
Q 1991 1309 1228 531 
z
" transform="scale(0.015625)"/>
         </defs>
         <use xlink:href="#DejaVuSans-32"/>
         <use xlink:href="#DejaVuSans-2e" x="63.623047"/>
         <use xlink:href="#DejaVuSans-30" x="95.410156"/>
        </g>
       </g>
      </g>
      <g id="ytick_6">
       <g id="line2d_8">
        <g>
         <use xlink:href="#m135f7a0c6b" x="43.78125" y="22.318125" style="stroke: #000000; stroke-width: 0.8"/>
        </g>
       </g>
       <g id="text_8">
        <!-- 2.5 -->
        <g transform="translate(20.878125 26.117344) scale(0.1 -0.1)">
         <use xlink:href="#DejaVuSans-32"/>
         <use xlink:href="#DejaVuSans-2e" x="63.623047"/>
         <use xlink:href="#DejaVuSans-35" x="95.410156"/>
        </g>
       </g>
      </g>
      <g id="text_9">
       <!-- time ago (generations) -->
       <g transform="translate(14.798438 227.641094) rotate(-90) scale(0.1 -0.1)">
        <defs>
         <path id="DejaVuSans-74" d="M 1172 4494 
L 1172 3500 
L 2356 3500 
L 2356 3053 
L 1172 3053 
L 1172 1153 
Q 1172 725 1289 603 
Q 1406 481 1766 481 
L 2356 481 
L 2356 0 
L 1766 0 
Q 1100 0 847 248 
Q 594 497 594 1153 
L 594 3053 
L 172 3053 
L 172 3500 
L 594 3500 
L 594 4494 
L 1172 4494 
z
" transform="scale(0.015625)"/>
         <path id="DejaVuSans-69" d="M 603 3500 
L 1178 3500 
L 1178 0 
L 603 0 
L 603 3500 
z
M 603 4863 
L 1178 4863 
L 1178 4134 
L 603 4134 
L 603 4863 
z
" transform="scale(0.015625)"/>
         <path id="DejaVuSans-20" transform="scale(0.015625)"/>
         <path id="DejaVuSans-61" d="M 2194 1759 
Q 1497 1759 1228 1600 
Q 959 1441 959 1056 
Q 959 750 1161 570 
Q 1363 391 1709 391 
Q 2188 391 2477 730 
Q 2766 1069 2766 1631 
L 2766 1759 
L 2194 1759 
z
M 3341 1997 
L 3341 0 
L 2766 0 
L 2766 531 
Q 2569 213 2275 61 
Q 1981 -91 1556 -91 
Q 1019 -91 701 211 
Q 384 513 384 1019 
Q 384 1609 779 1909 
Q 1175 2209 1959 2209 
L 2766 2209 
L 2766 2266 
Q 2766 2663 2505 2880 
Q 2244 3097 1772 3097 
Q 1472 3097 1187 3025 
Q 903 2953 641 2809 
L 641 3341 
Q 956 3463 1253 3523 
Q 1550 3584 1831 3584 
Q 2591 3584 2966 3190 
Q 3341 2797 3341 1997 
z
" transform="scale(0.015625)"/>
         <path id="DejaVuSans-67" d="M 2906 1791 
Q 2906 2416 2648 2759 
Q 2391 3103 1925 3103 
Q 1463 3103 1205 2759 
Q 947 2416 947 1791 
Q 947 1169 1205 825 
Q 1463 481 1925 481 
Q 2391 481 2648 825 
Q 2906 1169 2906 1791 
z
M 3481 434 
Q 3481 -459 3084 -895 
Q 2688 -1331 1869 -1331 
Q 1566 -1331 1297 -1286 
Q 1028 -1241 775 -1147 
L 775 -588 
Q 1028 -725 1275 -790 
Q 1522 -856 1778 -856 
Q 2344 -856 2625 -561 
Q 2906 -266 2906 331 
L 2906 616 
Q 2728 306 2450 153 
Q 2172 0 1784 0 
Q 1141 0 747 490 
Q 353 981 353 1791 
Q 353 2603 747 3093 
Q 1141 3584 1784 3584 
Q 2172 3584 2450 3431 
Q 2728 3278 2906 2969 
L 2906 3500 
L 3481 3500 
L 3481 434 
z
" transform="scale(0.015625)"/>
         <path id="DejaVuSans-6f" d="M 1959 3097 
Q 1497 3097 1228 2736 
Q 959 2375 959 1747 
Q 959 1119 1226 758 
Q 1494 397 1959 397 
Q 2419 397 2687 759 
Q 2956 1122 2956 1747 
Q 2956 2369 2687 2733 
Q 2419 3097 1959 3097 
z
M 1959 3584 
Q 2709 3584 3137 3096 
Q 3566 2609 3566 1747 
Q 3566 888 3137 398 
Q 2709 -91 1959 -91 
Q 1206 -91 779 398 
Q 353 888 353 1747 
Q 353 2609 779 3096 
Q 1206 3584 1959 3584 
z
" transform="scale(0.015625)"/>
         <path id="DejaVuSans-28" d="M 1984 4856 
Q 1566 4138 1362 3434 
Q 1159 2731 1159 2009 
Q 1159 1288 1364 580 
Q 1569 -128 1984 -844 
L 1484 -844 
Q 1016 -109 783 600 
Q 550 1309 550 2009 
Q 550 2706 781 3412 
Q 1013 4119 1484 4856 
L 1984 4856 
z
" transform="scale(0.015625)"/>
         <path id="DejaVuSans-6e" d="M 3513 2113 
L 3513 0 
L 2938 0 
L 2938 2094 
Q 2938 2591 2744 2837 
Q 2550 3084 2163 3084 
Q 1697 3084 1428 2787 
Q 1159 2491 1159 1978 
L 1159 0 
L 581 0 
L 581 3500 
L 1159 3500 
L 1159 2956 
Q 1366 3272 1645 3428 
Q 1925 3584 2291 3584 
Q 2894 3584 3203 3211 
Q 3513 2838 3513 2113 
z
" transform="scale(0.015625)"/>
         <path id="DejaVuSans-72" d="M 2631 2963 
Q 2534 3019 2420 3045 
Q 2306 3072 2169 3072 
Q 1681 3072 1420 2755 
Q 1159 2438 1159 1844 
L 1159 0 
L 581 0 
L 581 3500 
L 1159 3500 
L 1159 2956 
Q 1341 3275 1631 3429 
Q 1922 3584 2338 3584 
Q 2397 3584 2469 3576 
Q 2541 3569 2628 3553 
L 2631 2963 
z
" transform="scale(0.015625)"/>
         <path id="DejaVuSans-73" d="M 2834 3397 
L 2834 2853 
Q 2591 2978 2328 3040 
Q 2066 3103 1784 3103 
Q 1356 3103 1142 2972 
Q 928 2841 928 2578 
Q 928 2378 1081 2264 
Q 1234 2150 1697 2047 
L 1894 2003 
Q 2506 1872 2764 1633 
Q 3022 1394 3022 966 
Q 3022 478 2636 193 
Q 2250 -91 1575 -91 
Q 1294 -91 989 -36 
Q 684 19 347 128 
L 347 722 
Q 666 556 975 473 
Q 1284 391 1588 391 
Q 1994 391 2212 530 
Q 2431 669 2431 922 
Q 2431 1156 2273 1281 
Q 2116 1406 1581 1522 
L 1381 1569 
Q 847 1681 609 1914 
Q 372 2147 372 2553 
Q 372 3047 722 3315 
Q 1072 3584 1716 3584 
Q 2034 3584 2315 3537 
Q 2597 3491 2834 3397 
z
" transform="scale(0.015625)"/>
         <path id="DejaVuSans-29" d="M 513 4856 
L 1013 4856 
Q 1481 4119 1714 3412 
Q 1947 2706 1947 2009 
Q 1947 1309 1714 600 
Q 1481 -109 1013 -844 
L 513 -844 
Q 928 -128 1133 580 
Q 1338 1288 1338 2009 
Q 1338 2731 1133 3434 
Q 928 4138 513 4856 
z
" transform="scale(0.015625)"/>
        </defs>
        <use xlink:href="#DejaVuSans-74"/>
        <use xlink:href="#DejaVuSans-69" x="39.208984"/>
        <use xlink:href="#DejaVuSans-6d" x="66.992188"/>
        <use xlink:href="#DejaVuSans-65" x="164.404297"/>
        <use xlink:href="#DejaVuSans-20" x="225.927734"/>
        <use xlink:href="#DejaVuSans-61" x="257.714844"/>
        <use xlink:href="#DejaVuSans-67" x="318.994141"/>
        <use xlink:href="#DejaVuSans-6f" x="382.470703"/>
        <use xlink:href="#DejaVuSans-20" x="443.652344"/>
        <use xlink:href="#DejaVuSans-28" x="475.439453"/>
        <use xlink:href="#DejaVuSans-67" x="514.453125"/>
        <use xlink:href="#DejaVuSans-65" x="577.929688"/>
        <use xlink:href="#DejaVuSans-6e" x="639.453125"/>
        <use xlink:href="#DejaVuSans-65" x="702.832031"/>
        <use xlink:href="#DejaVuSans-72" x="764.355469"/>
        <use xlink:href="#DejaVuSans-61" x="805.46875"/>
        <use xlink:href="#DejaVuSans-74" x="866.748047"/>
        <use xlink:href="#DejaVuSans-69" x="905.957031"/>
        <use xlink:href="#DejaVuSans-6f" x="933.740234"/>
        <use xlink:href="#DejaVuSans-6e" x="994.921875"/>
        <use xlink:href="#DejaVuSans-73" x="1058.300781"/>
        <use xlink:href="#DejaVuSans-29" x="1110.400391"/>
       </g>
      </g>
     </g>
     <path d="M 354.682951 155.481649 
L 352.682951 154.481649 
L 352.682951 156.481649 
z
" clip-path="url(#p724d2431f9)" style="fill: #1f77b4; fill-opacity: 0.5; stroke: #1f77b4; stroke-opacity: 0.5; stroke-linejoin: miter"/>
     <path d="M 354.682951 182.204053 
L 352.682951 181.204053 
L 352.682951 183.204053 
z
" clip-path="url(#p724d2431f9)" style="fill: #1f77b4; fill-opacity: 0.5; stroke: #1f77b4; stroke-opacity: 0.5; stroke-linejoin: miter"/>
     <path d="M 354.682951 123.965773 
L 352.682951 122.965773 
L 352.682951 124.965773 
z
" clip-path="url(#p724d2431f9)" style="fill: #1f77b4; fill-opacity: 0.5; stroke: #1f77b4; stroke-opacity: 0.5; stroke-linejoin: miter"/>
     <path d="M 354.682951 168.648127 
L 352.682951 167.648127 
L 352.682951 169.648127 
z
" clip-path="url(#p724d2431f9)" style="fill: #1f77b4; fill-opacity: 0.5; stroke: #1f77b4; stroke-opacity: 0.5; stroke-linejoin: miter"/>
     <path d="M 354.682951 173.337803 
L 352.682951 172.337803 
L 352.682951 174.337803 
z
" clip-path="url(#p724d2431f9)" style="fill: #1f77b4; fill-opacity: 0.5; stroke: #1f77b4; stroke-opacity: 0.5; stroke-linejoin: miter"/>
     <path d="M 354.682951 94.786082 
L 352.682951 93.786082 
L 352.682951 95.786082 
z
" clip-path="url(#p724d2431f9)" style="fill: #1f77b4; fill-opacity: 0.5; stroke: #1f77b4; stroke-opacity: 0.5; stroke-linejoin: miter"/>
     <path d="M 354.682951 93.946467 
L 352.682951 92.946467 
L 352.682951 94.946467 
z
" clip-path="url(#p724d2431f9)" style="fill: #1f77b4; fill-opacity: 0.5; stroke: #1f77b4; stroke-opacity: 0.5; stroke-linejoin: miter"/>
     <path d="M 354.682951 112.540602 
L 352.682951 111.540602 
L 352.682951 113.540602 
z
" clip-path="url(#p724d2431f9)" style="fill: #1f77b4; fill-opacity: 0.5; stroke: #1f77b4; stroke-opacity: 0.5; stroke-linejoin: miter"/>
     <path d="M 354.682951 169.547281 
L 352.682951 168.547281 
L 352.682951 170.547281 
z
" clip-path="url(#p724d2431f9)" style="fill: #1f77b4; fill-opacity: 0.5; stroke: #1f77b4; stroke-opacity: 0.5; stroke-linejoin: miter"/>
     <path d="M 354.682951 182.990734 
L 352.682951 181.990734 
L 352.682951 183.990734 
z
" clip-path="url(#p724d2431f9)" style="fill: #1f77b4; fill-opacity: 0.5; stroke: #1f77b4; stroke-opacity: 0.5; stroke-linejoin: miter"/>
     <path d="M 354.682951 313.388792 
L 352.682951 312.388792 
L 352.682951 314.388792 
z
" clip-path="url(#p724d2431f9)" style="fill: #1f77b4; fill-opacity: 0.5; stroke: #1f77b4; stroke-opacity: 0.5; stroke-linejoin: miter"/>
     <path d="M 354.682951 248.920584 
L 352.682951 247.920584 
L 352.682951 249.920584 
z
" clip-path="url(#p724d2431f9)" style="fill: #1f77b4; fill-opacity: 0.5; stroke: #1f77b4; stroke-opacity: 0.5; stroke-linejoin: miter"/>
     <path d="M 354.682951 266.342695 
L 352.682951 265.342695 
L 352.682951 267.342695 
z
" clip-path="url(#p724d2431f9)" style="fill: #1f77b4; fill-opacity: 0.5; stroke: #1f77b4; stroke-opacity: 0.5; stroke-linejoin: miter"/>
     <path d="M 354.682951 263.201244 
L 352.682951 262.201244 
L 352.682951 264.201244 
z
" clip-path="url(#p724d2431f9)" style="fill: #1f77b4; fill-opacity: 0.5; stroke: #1f77b4; stroke-opacity: 0.5; stroke-linejoin: miter"/>
     <path d="M 354.682951 250.502104 
L 352.682951 249.502104 
L 352.682951 251.502104 
z
" clip-path="url(#p724d2431f9)" style="fill: #1f77b4; fill-opacity: 0.5; stroke: #1f77b4; stroke-opacity: 0.5; stroke-linejoin: miter"/>
     <path d="M 354.682951 205.105631 
L 352.682951 204.105631 
L 352.682951 206.105631 
z
" clip-path="url(#p724d2431f9)" style="fill: #1f77b4; fill-opacity: 0.5; stroke: #1f77b4; stroke-opacity: 0.5; stroke-linejoin: miter"/>
     <path d="M 354.682951 209.150107 
L 352.682951 208.150107 
L 352.682951 210.150107 
z
" clip-path="url(#p724d2431f9)" style="fill: #1f77b4; fill-opacity: 0.5; stroke: #1f77b4; stroke-opacity: 0.5; stroke-linejoin: miter"/>
     <path d="M 354.682951 303.624436 
L 352.682951 302.624436 
L 352.682951 304.624436 
z
" clip-path="url(#p724d2431f9)" style="fill: #1f77b4; fill-opacity: 0.5; stroke: #1f77b4; stroke-opacity: 0.5; stroke-linejoin: miter"/>
     <path d="M 354.682951 260.503244 
L 352.682951 259.503244 
L 352.682951 261.503244 
z
" clip-path="url(#p724d2431f9)" style="fill: #1f77b4; fill-opacity: 0.5; stroke: #1f77b4; stroke-opacity: 0.5; stroke-linejoin: miter"/>
     <path d="M 354.682951 231.527756 
L 352.682951 230.527756 
L 352.682951 232.527756 
z
" clip-path="url(#p724d2431f9)" style="fill: #1f77b4; fill-opacity: 0.5; stroke: #1f77b4; stroke-opacity: 0.5; stroke-linejoin: miter"/>
     <g id="patch_5">
      <path d="M 43.78125 318.021875 
L 43.78125 22.318125 
" style="fill: none; stroke: #000000; stroke-width: 0.8; stroke-linejoin: miter; stroke-linecap: square"/>
     </g>
     <g id="text_10">
      <!-- defaults_asymmetric_migration_changing_rate.yaml -->
      <g transform="translate(164.675625 16.318125) scale(0.12 -0.12)">
       <defs>
        <path id="DejaVuSans-66" d="M 2375 4863 
L 2375 4384 
L 1825 4384 
Q 1516 4384 1395 4259 
Q 1275 4134 1275 3809 
L 1275 3500 
L 2222 3500 
L 2222 3053 
L 1275 3053 
L 1275 0 
L 697 0 
L 697 3053 
L 147 3053 
L 147 3500 
L 697 3500 
L 697 3744 
Q 697 4328 969 4595 
Q 1241 4863 1831 4863 
L 2375 4863 
z
" transform="scale(0.015625)"/>
        <path id="DejaVuSans-75" d="M 544 1381 
L 544 3500 
L 1119 3500 
L 1119 1403 
Q 1119 906 1312 657 
Q 1506 409 1894 409 
Q 2359 409 2629 706 
Q 2900 1003 2900 1516 
L 2900 3500 
L 3475 3500 
L 3475 0 
L 2900 0 
L 2900 538 
Q 2691 219 2414 64 
Q 2138 -91 1772 -91 
Q 1169 -91 856 284 
Q 544 659 544 1381 
z
M 1991 3584 
L 1991 3584 
z
" transform="scale(0.015625)"/>
        <path id="DejaVuSans-6c" d="M 603 4863 
L 1178 4863 
L 1178 0 
L 603 0 
L 603 4863 
z
" transform="scale(0.015625)"/>
        <path id="DejaVuSans-5f" d="M 3263 -1063 
L 3263 -1509 
L -63 -1509 
L -63 -1063 
L 3263 -1063 
z
" transform="scale(0.015625)"/>
        <path id="DejaVuSans-79" d="M 2059 -325 
Q 1816 -950 1584 -1140 
Q 1353 -1331 966 -1331 
L 506 -1331 
L 506 -850 
L 844 -850 
Q 1081 -850 1212 -737 
Q 1344 -625 1503 -206 
L 1606 56 
L 191 3500 
L 800 3500 
L 1894 763 
L 2988 3500 
L 3597 3500 
L 2059 -325 
z
" transform="scale(0.015625)"/>
        <path id="DejaVuSans-63" d="M 3122 3366 
L 3122 2828 
Q 2878 2963 2633 3030 
Q 2388 3097 2138 3097 
Q 1578 3097 1268 2742 
Q 959 2388 959 1747 
Q 959 1106 1268 751 
Q 1578 397 2138 397 
Q 2388 397 2633 464 
Q 2878 531 3122 666 
L 3122 134 
Q 2881 22 2623 -34 
Q 2366 -91 2075 -91 
Q 1284 -91 818 406 
Q 353 903 353 1747 
Q 353 2603 823 3093 
Q 1294 3584 2113 3584 
Q 2378 3584 2631 3529 
Q 2884 3475 3122 3366 
z
" transform="scale(0.015625)"/>
        <path id="DejaVuSans-68" d="M 3513 2113 
L 3513 0 
L 2938 0 
L 2938 2094 
Q 2938 2591 2744 2837 
Q 2550 3084 2163 3084 
Q 1697 3084 1428 2787 
Q 1159 2491 1159 1978 
L 1159 0 
L 581 0 
L 581 4863 
L 1159 4863 
L 1159 2956 
Q 1366 3272 1645 3428 
Q 1925 3584 2291 3584 
Q 2894 3584 3203 3211 
Q 3513 2838 3513 2113 
z
" transform="scale(0.015625)"/>
       </defs>
       <use xlink:href="#DejaVuSans-64"/>
       <use xlink:href="#DejaVuSans-65" x="63.476562"/>
       <use xlink:href="#DejaVuSans-66" x="125"/>
       <use xlink:href="#DejaVuSans-61" x="160.205078"/>
       <use xlink:href="#DejaVuSans-75" x="221.484375"/>
       <use xlink:href="#DejaVuSans-6c" x="284.863281"/>
       <use xlink:href="#DejaVuSans-74" x="312.646484"/>
       <use xlink:href="#DejaVuSans-73" x="351.855469"/>
       <use xlink:href="#DejaVuSans-5f" x="403.955078"/>
       <use xlink:href="#DejaVuSans-61" x="453.955078"/>
       <use xlink:href="#DejaVuSans-73" x="515.234375"/>
       <use xlink:href="#DejaVuSans-79" x="567.333984"/>
       <use xlink:href="#DejaVuSans-6d" x="626.513672"/>
       <use xlink:href="#DejaVuSans-6d" x="723.925781"/>
       <use xlink:href="#DejaVuSans-65" x="821.337891"/>
       <use xlink:href="#DejaVuSans-74" x="882.861328"/>
       <use xlink:href="#DejaVuSans-72" x="922.070312"/>
       <use xlink:href="#DejaVuSans-69" x="963.183594"/>
       <use xlink:href="#DejaVuSans-63" x="990.966797"/>
       <use xlink:href="#DejaVuSans-5f" x="1045.947266"/>
       <use xlink:href="#DejaVuSans-6d" x="1095.947266"/>
       <use xlink:href="#DejaVuSans-69" x="1193.359375"/>
       <use xlink:href="#DejaVuSans-67" x="1221.142578"/>
       <use xlink:href="#DejaVuSans-72" x="1284.619141"/>
       <use xlink:href="#DejaVuSans-61" x="1325.732422"/>
       <use xlink:href="#DejaVuSans-74" x="1387.011719"/>
       <use xlink:href="#DejaVuSans-69" x="1426.220703"/>
       <use xlink:href="#DejaVuSans-6f" x="1454.003906"/>
       <use xlink:href="#DejaVuSans-6e" x="1515.185547"/>
       <use xlink:href="#DejaVuSans-5f" x="1578.564453"/>
       <use xlink:href="#DejaVuSans-63" x="1628.564453"/>
       <use xlink:href="#DejaVuSans-68" x="1683.544922"/>
       <use xlink:href="#DejaVuSans-61" x="1746.923828"/>
       <use xlink:href="#DejaVuSans-6e" x="1808.203125"/>
       <use xlink:href="#DejaVuSans-67" x="1871.582031"/>
       <use xlink:href="#DejaVuSans-69" x="1935.058594"/>
       <use xlink:href="#DejaVuSans-6e" x="1962.841797"/>
       <use xlink:href="#DejaVuSans-67" x="2026.220703"/>
       <use xlink:href="#DejaVuSans-5f" x="2089.697266"/>
       <use xlink:href="#DejaVuSans-72" x="2139.697266"/>
       <use xlink:href="#DejaVuSans-61" x="2180.810547"/>
       <use xlink:href="#DejaVuSans-74" x="2242.089844"/>
       <use xlink:href="#DejaVuSans-65" x="2281.298828"/>
       <use xlink:href="#DejaVuSans-2e" x="2342.822266"/>
       <use xlink:href="#DejaVuSans-79" x="2374.609375"/>
       <use xlink:href="#DejaVuSans-61" x="2433.789062"/>
       <use xlink:href="#DejaVuSans-6d" x="2495.068359"/>
       <use xlink:href="#DejaVuSans-6c" x="2592.480469"/>
      </g>
     </g>
    </g>
   </g>
   <defs>
    <clipPath id="p724d2431f9">
     <rect x="43.78125" y="22.318125" width="556.21875" height="295.70375"/>
    </clipPath>
   </defs>
  </g>
 </g>
</svg>