<?xml version="1.0" encoding="utf-8" standalone="no"?>
<!DOCTYPE svg PUBLIC "-//W3C//DTD SVG 1.1//EN"
  "http://www.w3.org/Graphics/SVG/1.1/DTD/svg11.dtd">
<svg xmlns:xlink="http://www.w3.org/1999/xlink" width="607.2pt" height="338.4pt" viewBox="0 0 607.2 338.4" xmlns="http://www.w3.org/2000/svg" version="1.1">
 <metadata>
  <rdf:RDF xmlns:dc="http://purl.org/dc/elements/1.1/" xmlns:cc="http://creativecommons.org/ns#" xmlns:rdf="http://www.w3.org/1999/02/22-rdf-syntax-ns#">
   <cc:Work>
    <dc:type rdf:resource="http://purl.org/dc/dcmitype/StillImage"/>
    <dc:date>2024-01-22T08:46:14.112228</dc:date>
    <dc:format>image/svg+xml</dc:format>
    <dc:creator>
     <cc:Agent>
      <dc:title>Matplotlib v3.7.2, https://matplotlib.org/</dc:title>
     </cc:Agent>
    </dc:creator>
   </cc:Work>
  </rdf:RDF>
 </metadata>
 <defs>
  <style type="text/css">*{stroke-linejoin: round; stroke-linecap: butt}</style>
 </defs>
 <g id="figure_1">
  <g id="patch_1">
   <path d="M 0 338.4 
L 607.2 338.4 
L 607.2 0 
L 0 0 
z
" style="fill: #ffffff"/>
  </g>
  <g id="axes_1">
   <g id="patch_2">
    <path d="M 43.78125 318.021875 
L 600 318.021875 
L 600 22.318125 
L 43.78125 22.318125 
z
" style="fill: #ffffff"/>
   </g>
   <path d="M 353.703533 156.252891 
L 352.703533 156.221455 
L 351.703533 156.184515 
L 350.703533 156.086768 
L 349.703533 156.054246 
L 348.703533 155.980622 
L 347.703533 155.942056 
L 346.703533 155.906643 
L 345.703533 155.849003 
L 344.703533 155.778617 
L 343.703533 155.726653 
L 342.703533 155.667563 
L 341.703533 155.579242 
L 340.703533 155.533098 
L 339.703533 155.490687 
L 338.703533 155.460194 
L 337.703533 155.434149 
L 336.703533 155.412949 
L 335.703533 155.358648 
L 334.703533 155.33071 
L 333.703533 155.300986 
L 332.703533 155.275592 
L 331.703533 155.264391 
L 330.703533 155.254267 
L 329.703533 155.254472 
L 328.703533 155.263981 
L 327.703533 155.275635 
L 326.703533 155.306664 
L 325.703533 155.317832 
L 324.703533 155.34795 
L 323.703533 155.407727 
L 322.703533 155.444918 
L 321.703533 155.484014 
L 320.703533 155.526454 
L 319.703533 155.559219 
L 318.703533 155.626645 
L 317.703533 155.665771 
L 316.703533 155.708446 
L 315.703533 155.779027 
L 314.703533 155.815417 
L 313.703533 155.873821 
L 312.703533 155.984773 
L 311.703533 156.055431 
L 310.703533 156.168371 
L 309.703533 156.214144 
L 308.703533 156.275427 
L 307.703533 156.323927 
L 306.703533 156.404749 
L 305.703533 156.523268 
L 304.703533 156.593479 
L 303.703533 156.676741 
L 302.703533 156.709883 
L 301.703533 156.761121 
L 300.703533 156.829519 
L 299.703533 156.895734 
L 298.703533 156.972651 
L 297.703533 156.999967 
L 296.703533 157.026444 
L 295.703533 157.049095 
L 294.703533 157.068626 
L 293.703533 157.09502 
L 292.703533 157.144791 
L 291.703533 157.179864 
L 290.077717 157.21573 
" clip-path="url(#pffd373ad1b)" style="fill: none; stroke: #ff7f0e; stroke-opacity: 0.5; stroke-width: 0.2; stroke-linecap: square"/>
   <path d="M 353.703533 123.659679 
L 352.703533 123.628243 
L 351.703533 123.591302 
L 350.703533 123.493556 
L 349.703533 123.461034 
L 348.703533 123.38741 
L 347.703533 123.348844 
L 346.703533 123.313431 
L 345.703533 123.255791 
L 344.703533 123.185405 
L 343.703533 123.133441 
L 342.703533 123.074351 
L 341.703533 122.98603 
L 340.703533 122.939886 
L 339.703533 122.897475 
L 338.703533 122.866982 
L 337.703533 122.840937 
L 336.703533 122.819737 
L 335.703533 122.765436 
L 334.703533 122.737498 
L 333.703533 122.707774 
L 332.703533 122.682379 
L 331.703533 122.671179 
L 330.703533 122.661055 
L 329.703533 122.661259 
L 328.703533 122.670769 
L 327.703533 122.682423 
L 326.703533 122.713452 
L 325.703533 122.72462 
L 324.703533 122.754738 
L 323.703533 122.814515 
L 322.703533 122.851706 
L 321.703533 122.890802 
L 320.703533 122.933242 
L 319.703533 122.966007 
L 318.703533 123.033433 
L 317.703533 123.072559 
L 316.703533 123.115234 
L 315.703533 123.185814 
L 314.703533 123.222205 
L 313.703533 123.280608 
L 312.703533 123.391561 
L 311.703533 123.462219 
L 310.703533 123.575159 
L 309.703533 123.620932 
L 308.703533 123.682215 
L 307.703533 123.730715 
L 306.703533 123.811537 
L 305.703533 123.930056 
L 304.703533 124.000267 
L 303.703533 124.083529 
L 302.703533 124.116671 
L 301.703533 124.167908 
L 300.703533 124.236307 
L 299.703533 124.302522 
L 298.703533 124.379439 
L 297.703533 124.406755 
L 296.703533 124.433232 
L 295.703533 124.455883 
L 294.703533 124.475414 
L 293.703533 124.501808 
L 292.703533 124.551579 
L 291.703533 124.586652 
L 290.077717 124.622518 
" clip-path="url(#pffd373ad1b)" style="fill: none; stroke: #ff7f0e; stroke-opacity: 0.5; stroke-width: 0.2; stroke-linecap: square"/>
   <path d="M 353.703533 87.410245 
L 352.703533 87.378809 
L 351.703533 87.341868 
L 350.703533 87.244122 
L 349.703533 87.2116 
L 348.703533 87.137976 
L 347.703533 87.09941 
L 346.703533 87.063997 
L 345.703533 87.006357 
L 344.703533 86.935971 
L 343.703533 86.884007 
L 342.703533 86.824917 
L 341.703533 86.736596 
L 340.703533 86.690451 
L 339.703533 86.648041 
L 338.703533 86.617548 
L 337.703533 86.591503 
L 336.703533 86.570303 
L 335.703533 86.516002 
L 334.703533 86.488064 
L 333.703533 86.45834 
L 332.703533 86.432945 
L 331.703533 86.421745 
L 330.703533 86.411621 
L 329.703533 86.411825 
L 328.703533 86.421335 
L 327.703533 86.432989 
L 326.703533 86.464018 
L 325.703533 86.475186 
L 324.703533 86.505304 
L 323.703533 86.56508 
L 322.703533 86.602272 
L 321.703533 86.641368 
L 320.703533 86.683808 
L 319.703533 86.716573 
L 318.703533 86.783999 
L 317.703533 86.823125 
L 316.703533 86.8658 
L 315.703533 86.93638 
L 314.703533 86.972771 
L 313.703533 87.031174 
L 312.703533 87.142127 
L 311.703533 87.212785 
L 310.703533 87.325725 
L 309.703533 87.371498 
L 308.703533 87.432781 
L 307.703533 87.481281 
L 306.703533 87.562103 
L 305.703533 87.680622 
L 304.703533 87.750833 
L 303.703533 87.834095 
L 302.703533 87.867237 
L 301.703533 87.918474 
L 300.703533 87.986873 
L 299.703533 88.053088 
L 298.703533 88.130005 
L 297.703533 88.157321 
L 296.703533 88.183798 
L 295.703533 88.206449 
L 294.703533 88.22598 
L 293.703533 88.252374 
L 292.703533 88.302145 
L 291.703533 88.337218 
L 290.077717 88.373084 
" clip-path="url(#pffd373ad1b)" style="fill: none; stroke: #ff7f0e; stroke-opacity: 0.5; stroke-width: 0.2; stroke-linecap: square"/>
   <path d="M 353.703533 113.563556 
L 352.703533 113.53212 
L 351.703533 113.495179 
L 350.703533 113.397433 
L 349.703533 113.364911 
L 348.703533 113.291286 
L 347.703533 113.252721 
L 346.703533 113.217308 
L 345.703533 113.159668 
L 344.703533 113.089282 
L 343.703533 113.037317 
L 342.703533 112.978228 
L 341.703533 112.889907 
L 340.703533 112.843762 
L 339.703533 112.801351 
L 338.703533 112.770859 
L 337.703533 112.744814 
L 336.703533 112.723614 
L 335.703533 112.669313 
L 334.703533 112.641375 
L 333.703533 112.611651 
L 332.703533 112.586256 
L 331.703533 112.575056 
L 330.703533 112.564932 
L 329.703533 112.565136 
L 328.703533 112.574646 
L 327.703533 112.5863 
L 326.703533 112.617329 
L 325.703533 112.628497 
L 324.703533 112.658614 
L 323.703533 112.718391 
L 322.703533 112.755583 
L 321.703533 112.794679 
L 320.703533 112.837119 
L 319.703533 112.869884 
L 318.703533 112.93731 
L 317.703533 112.976436 
L 316.703533 113.019111 
L 315.703533 113.089691 
L 314.703533 113.126082 
L 313.703533 113.184485 
L 312.703533 113.295438 
L 311.703533 113.366096 
L 310.703533 113.479036 
L 309.703533 113.524809 
L 308.703533 113.586092 
L 307.703533 113.634591 
L 306.703533 113.715414 
L 305.703533 113.833933 
L 304.703533 113.904144 
L 303.703533 113.987406 
L 302.703533 114.020548 
L 301.703533 114.071785 
L 300.703533 114.140184 
L 299.703533 114.206399 
L 298.703533 114.283316 
L 297.703533 114.310632 
L 296.703533 114.337109 
L 295.703533 114.35976 
L 294.703533 114.379291 
L 293.703533 114.405685 
L 292.703533 114.455456 
L 291.703533 114.490529 
L 290.077717 114.526395 
" clip-path="url(#pffd373ad1b)" style="fill: none; stroke: #ff7f0e; stroke-opacity: 0.5; stroke-width: 0.2; stroke-linecap: square"/>
   <path d="M 353.703533 89.346694 
L 352.703533 89.315258 
L 351.703533 89.278317 
L 350.703533 89.180571 
L 349.703533 89.148049 
L 348.703533 89.074425 
L 347.703533 89.035859 
L 346.703533 89.000446 
L 345.703533 88.942806 
L 344.703533 88.87242 
L 343.703533 88.820456 
L 342.703533 88.761366 
L 341.703533 88.673045 
L 340.703533 88.6269 
L 339.703533 88.58449 
L 338.703533 88.553997 
L 337.703533 88.527952 
L 336.703533 88.506752 
L 335.703533 88.452451 
L 334.703533 88.424513 
L 333.703533 88.394789 
L 332.703533 88.369394 
L 331.703533 88.358194 
L 330.703533 88.34807 
L 329.703533 88.348274 
L 328.703533 88.357784 
L 327.703533 88.369438 
L 326.703533 88.400467 
L 325.703533 88.411635 
L 324.703533 88.441753 
L 323.703533 88.501529 
L 322.703533 88.538721 
L 321.703533 88.577817 
L 320.703533 88.620257 
L 319.703533 88.653022 
L 318.703533 88.720448 
L 317.703533 88.759574 
L 316.703533 88.802249 
L 315.703533 88.872829 
L 314.703533 88.90922 
L 313.703533 88.967623 
L 312.703533 89.078576 
L 311.703533 89.149234 
L 310.703533 89.262174 
L 309.703533 89.307947 
L 308.703533 89.36923 
L 307.703533 89.41773 
L 306.703533 89.498552 
L 305.703533 89.617071 
L 304.703533 89.687282 
L 303.703533 89.770544 
L 302.703533 89.803686 
L 301.703533 89.854923 
L 300.703533 89.923322 
L 299.703533 89.989537 
L 298.703533 90.066454 
L 297.703533 90.09377 
L 296.703533 90.120247 
L 295.703533 90.142898 
L 294.703533 90.162429 
L 293.703533 90.188823 
L 292.703533 90.238594 
L 291.703533 90.273667 
L 290.077717 90.309533 
" clip-path="url(#pffd373ad1b)" style="fill: none; stroke: #ff7f0e; stroke-opacity: 0.5; stroke-width: 0.2; stroke-linecap: square"/>
   <path d="M 353.703533 167.686226 
L 352.703533 167.65479 
L 351.703533 167.617849 
L 350.703533 167.520103 
L 349.703533 167.487581 
L 348.703533 167.413957 
L 347.703533 167.375391 
L 346.703533 167.339978 
L 345.703533 167.282338 
L 344.703533 167.211952 
L 343.703533 167.159988 
L 342.703533 167.100898 
L 341.703533 167.012577 
L 340.703533 166.966433 
L 339.703533 166.924022 
L 338.703533 166.893529 
L 337.703533 166.867484 
L 336.703533 166.846284 
L 335.703533 166.791983 
L 334.703533 166.764045 
L 333.703533 166.734321 
L 332.703533 166.708926 
L 331.703533 166.697726 
L 330.703533 166.687602 
L 329.703533 166.687806 
L 328.703533 166.697316 
L 327.703533 166.70897 
L 326.703533 166.739999 
L 325.703533 166.751167 
L 324.703533 166.781285 
L 323.703533 166.841062 
L 322.703533 166.878253 
L 321.703533 166.917349 
L 320.703533 166.959789 
L 319.703533 166.992554 
L 318.703533 167.05998 
L 317.703533 167.099106 
L 316.703533 167.141781 
L 315.703533 167.212361 
L 314.703533 167.248752 
L 313.703533 167.307155 
L 312.703533 167.418108 
L 311.703533 167.488766 
L 310.703533 167.601706 
L 309.703533 167.647479 
L 308.703533 167.708762 
L 307.703533 167.757262 
L 306.703533 167.838084 
L 305.703533 167.956603 
L 304.703533 168.026814 
L 303.703533 168.110076 
L 302.703533 168.143218 
L 301.703533 168.194455 
L 300.703533 168.262854 
L 299.703533 168.329069 
L 298.703533 168.405986 
L 297.703533 168.433302 
L 296.703533 168.459779 
L 295.703533 168.48243 
L 294.703533 168.501961 
L 293.703533 168.528355 
L 292.703533 168.578126 
L 291.703533 168.613199 
L 290.077717 168.649065 
" clip-path="url(#pffd373ad1b)" style="fill: none; stroke: #ff7f0e; stroke-opacity: 0.5; stroke-width: 0.2; stroke-linecap: square"/>
   <path d="M 353.703533 127.988556 
L 352.703533 127.95712 
L 351.703533 127.92018 
L 350.703533 127.822433 
L 349.703533 127.789911 
L 348.703533 127.716287 
L 347.703533 127.677721 
L 346.703533 127.642308 
L 345.703533 127.584668 
L 344.703533 127.514282 
L 343.703533 127.462318 
L 342.703533 127.403228 
L 341.703533 127.314907 
L 340.703533 127.268763 
L 339.703533 127.226352 
L 338.703533 127.195859 
L 337.703533 127.169814 
L 336.703533 127.148614 
L 335.703533 127.094313 
L 334.703533 127.066375 
L 333.703533 127.036651 
L 332.703533 127.011257 
L 331.703533 127.000056 
L 330.703533 126.989932 
L 329.703533 126.990137 
L 328.703533 126.999646 
L 327.703533 127.0113 
L 326.703533 127.042329 
L 325.703533 127.053497 
L 324.703533 127.083615 
L 323.703533 127.143392 
L 322.703533 127.180583 
L 321.703533 127.219679 
L 320.703533 127.262119 
L 319.703533 127.294884 
L 318.703533 127.36231 
L 317.703533 127.401436 
L 316.703533 127.444111 
L 315.703533 127.514692 
L 314.703533 127.551082 
L 313.703533 127.609486 
L 312.703533 127.720438 
L 311.703533 127.791096 
L 310.703533 127.904036 
L 309.703533 127.949809 
L 308.703533 128.011092 
L 307.703533 128.059592 
L 306.703533 128.140414 
L 305.703533 128.258933 
L 304.703533 128.329144 
L 303.703533 128.412406 
L 302.703533 128.445548 
L 301.703533 128.496786 
L 300.703533 128.565184 
L 299.703533 128.631399 
L 298.703533 128.708316 
L 297.703533 128.735632 
L 296.703533 128.762109 
L 295.703533 128.78476 
L 294.703533 128.804291 
L 293.703533 128.830685 
L 292.703533 128.880456 
L 291.703533 128.915529 
L 290.077717 128.951395 
" clip-path="url(#pffd373ad1b)" style="fill: none; stroke: #ff7f0e; stroke-opacity: 0.5; stroke-width: 0.2; stroke-linecap: square"/>
   <path d="M 353.703533 111.357945 
L 352.703533 111.326509 
L 351.703533 111.289568 
L 350.703533 111.191822 
L 349.703533 111.1593 
L 348.703533 111.085676 
L 347.703533 111.04711 
L 346.703533 111.011697 
L 345.703533 110.954057 
L 344.703533 110.883671 
L 343.703533 110.831707 
L 342.703533 110.772617 
L 341.703533 110.684296 
L 340.703533 110.638151 
L 339.703533 110.595741 
L 338.703533 110.565248 
L 337.703533 110.539203 
L 336.703533 110.518003 
L 335.703533 110.463702 
L 334.703533 110.435764 
L 333.703533 110.40604 
L 332.703533 110.380645 
L 331.703533 110.369445 
L 330.703533 110.359321 
L 329.703533 110.359525 
L 328.703533 110.369035 
L 327.703533 110.380689 
L 326.703533 110.411718 
L 325.703533 110.422886 
L 324.703533 110.453004 
L 323.703533 110.51278 
L 322.703533 110.549972 
L 321.703533 110.589068 
L 320.703533 110.631508 
L 319.703533 110.664273 
L 318.703533 110.731699 
L 317.703533 110.770825 
L 316.703533 110.8135 
L 315.703533 110.88408 
L 314.703533 110.920471 
L 313.703533 110.978874 
L 312.703533 111.089827 
L 311.703533 111.160485 
L 310.703533 111.273425 
L 309.703533 111.319198 
L 308.703533 111.380481 
L 307.703533 111.428981 
L 306.703533 111.509803 
L 305.703533 111.628322 
L 304.703533 111.698533 
L 303.703533 111.781795 
L 302.703533 111.814937 
L 301.703533 111.866174 
L 300.703533 111.934573 
L 299.703533 112.000788 
L 298.703533 112.077705 
L 297.703533 112.105021 
L 296.703533 112.131498 
L 295.703533 112.154149 
L 294.703533 112.17368 
L 293.703533 112.200074 
L 292.703533 112.249845 
L 291.703533 112.284918 
L 290.077717 112.320784 
" clip-path="url(#pffd373ad1b)" style="fill: none; stroke: #ff7f0e; stroke-opacity: 0.5; stroke-width: 0.2; stroke-linecap: square"/>
   <path d="M 353.703533 166.28819 
L 352.703533 166.256754 
L 351.703533 166.219813 
L 350.703533 166.122067 
L 349.703533 166.089545 
L 348.703533 166.01592 
L 347.703533 165.977355 
L 346.703533 165.941942 
L 345.703533 165.884302 
L 344.703533 165.813916 
L 343.703533 165.761951 
L 342.703533 165.702862 
L 341.703533 165.614541 
L 340.703533 165.568396 
L 339.703533 165.525985 
L 338.703533 165.495493 
L 337.703533 165.469448 
L 336.703533 165.448248 
L 335.703533 165.393947 
L 334.703533 165.366009 
L 333.703533 165.336285 
L 332.703533 165.31089 
L 331.703533 165.29969 
L 330.703533 165.289566 
L 329.703533 165.28977 
L 328.703533 165.29928 
L 327.703533 165.310934 
L 326.703533 165.341963 
L 325.703533 165.353131 
L 324.703533 165.383248 
L 323.703533 165.443025 
L 322.703533 165.480217 
L 321.703533 165.519313 
L 320.703533 165.561753 
L 319.703533 165.594518 
L 318.703533 165.661944 
L 317.703533 165.70107 
L 316.703533 165.743745 
L 315.703533 165.814325 
L 314.703533 165.850716 
L 313.703533 165.909119 
L 312.703533 166.020072 
L 311.703533 166.09073 
L 310.703533 166.20367 
L 309.703533 166.249443 
L 308.703533 166.310726 
L 307.703533 166.359225 
L 306.703533 166.440048 
L 305.703533 166.558567 
L 304.703533 166.628778 
L 303.703533 166.71204 
L 302.703533 166.745182 
L 301.703533 166.796419 
L 300.703533 166.864818 
L 299.703533 166.931033 
L 298.703533 167.00795 
L 297.703533 167.035266 
L 296.703533 167.061743 
L 295.703533 167.084394 
L 294.703533 167.103925 
L 293.703533 167.130319 
L 292.703533 167.18009 
L 291.703533 167.215163 
L 290.077717 167.251029 
" clip-path="url(#pffd373ad1b)" style="fill: none; stroke: #ff7f0e; stroke-opacity: 0.5; stroke-width: 0.2; stroke-linecap: square"/>
   <path d="M 353.703533 193.68341 
L 352.703533 193.651973 
L 351.703533 193.615033 
L 350.703533 193.517286 
L 349.703533 193.484765 
L 348.703533 193.41114 
L 347.703533 193.372575 
L 346.703533 193.337161 
L 345.703533 193.279521 
L 344.703533 193.209135 
L 343.703533 193.157171 
L 342.703533 193.098081 
L 341.703533 193.00976 
L 340.703533 192.963616 
L 339.703533 192.921205 
L 338.703533 192.890712 
L 337.703533 192.864667 
L 336.703533 192.843467 
L 335.703533 192.789166 
L 334.703533 192.761229 
L 333.703533 192.731505 
L 332.703533 192.70611 
L 331.703533 192.69491 
L 330.703533 192.684786 
L 329.703533 192.68499 
L 328.703533 192.6945 
L 327.703533 192.706153 
L 326.703533 192.737183 
L 325.703533 192.748351 
L 324.703533 192.778468 
L 323.703533 192.838245 
L 322.703533 192.875437 
L 321.703533 192.914533 
L 320.703533 192.956972 
L 319.703533 192.989737 
L 318.703533 193.057164 
L 317.703533 193.09629 
L 316.703533 193.138964 
L 315.703533 193.209545 
L 314.703533 193.245936 
L 313.703533 193.304339 
L 312.703533 193.415292 
L 311.703533 193.48595 
L 310.703533 193.59889 
L 309.703533 193.644663 
L 308.703533 193.705946 
L 307.703533 193.754445 
L 306.703533 193.835268 
L 305.703533 193.953787 
L 304.703533 194.023997 
L 303.703533 194.10726 
L 302.703533 194.140402 
L 301.703533 194.191639 
L 300.703533 194.260037 
L 299.703533 194.326253 
L 298.703533 194.40317 
L 297.703533 194.430485 
L 296.703533 194.456963 
L 295.703533 194.479613 
L 294.703533 194.499145 
L 293.703533 194.525539 
L 292.703533 194.575309 
L 291.703533 194.610383 
L 290.077717 194.646248 
" clip-path="url(#pffd373ad1b)" style="fill: none; stroke: #ff7f0e; stroke-opacity: 0.5; stroke-width: 0.2; stroke-linecap: square"/>
   <path d="M 290.077717 185.300852 
L 291.077717 185.332289 
L 292.077717 185.369229 
L 293.077717 185.466976 
L 294.077717 185.499497 
L 295.077717 185.573122 
L 296.077717 185.611688 
L 297.077717 185.647101 
L 298.077717 185.704741 
L 299.077717 185.775127 
L 300.077717 185.827091 
L 301.077717 185.886181 
L 302.077717 185.974502 
L 303.077717 186.020646 
L 304.077717 186.063057 
L 305.077717 186.09355 
L 306.077717 186.119595 
L 307.077717 186.140795 
L 308.077717 186.195096 
L 309.077717 186.223033 
L 310.077717 186.252757 
L 311.077717 186.278152 
L 312.077717 186.289353 
L 313.077717 186.299477 
L 314.077717 186.299272 
L 315.077717 186.289762 
L 316.077717 186.278109 
L 317.077717 186.247079 
L 318.077717 186.235912 
L 319.077717 186.205794 
L 320.077717 186.146017 
L 321.077717 186.108826 
L 322.077717 186.069729 
L 323.077717 186.02729 
L 324.077717 185.994525 
L 325.077717 185.927098 
L 326.077717 185.887972 
L 327.077717 185.845298 
L 328.077717 185.774717 
L 329.077717 185.738326 
L 330.077717 185.679923 
L 331.077717 185.568971 
L 332.077717 185.498312 
L 333.077717 185.385372 
L 334.077717 185.3396 
L 335.077717 185.278316 
L 336.077717 185.229817 
L 337.077717 185.148994 
L 338.077717 185.030475 
L 339.077717 184.960265 
L 340.077717 184.877002 
L 341.077717 184.84386 
L 342.077717 184.792623 
L 343.077717 184.724225 
L 344.077717 184.658009 
L 345.077717 184.581092 
L 346.077717 184.553777 
L 347.077717 184.527299 
L 348.077717 184.504649 
L 349.077717 184.485117 
L 350.077717 184.458723 
L 351.077717 184.408953 
L 352.077717 184.373879 
L 353.703533 184.338014 
" clip-path="url(#pffd373ad1b)" style="fill: none; stroke: #1f77b4; stroke-opacity: 0.5; stroke-width: 0.2; stroke-linecap: square"/>
   <path d="M 290.077717 150.831719 
L 291.077717 150.863156 
L 292.077717 150.900096 
L 293.077717 150.997843 
L 294.077717 151.030364 
L 295.077717 151.103989 
L 296.077717 151.142554 
L 297.077717 151.177968 
L 298.077717 151.235608 
L 299.077717 151.305994 
L 300.077717 151.357958 
L 301.077717 151.417048 
L 302.077717 151.505369 
L 303.077717 151.551513 
L 304.077717 151.593924 
L 305.077717 151.624417 
L 306.077717 151.650462 
L 307.077717 151.671662 
L 308.077717 151.725963 
L 309.077717 151.7539 
L 310.077717 151.783624 
L 311.077717 151.809019 
L 312.077717 151.82022 
L 313.077717 151.830343 
L 314.077717 151.830139 
L 315.077717 151.820629 
L 316.077717 151.808976 
L 317.077717 151.777946 
L 318.077717 151.766779 
L 319.077717 151.736661 
L 320.077717 151.676884 
L 321.077717 151.639693 
L 322.077717 151.600596 
L 323.077717 151.558157 
L 324.077717 151.525392 
L 325.077717 151.457965 
L 326.077717 151.418839 
L 327.077717 151.376165 
L 328.077717 151.305584 
L 329.077717 151.269193 
L 330.077717 151.21079 
L 331.077717 151.099838 
L 332.077717 151.029179 
L 333.077717 150.916239 
L 334.077717 150.870467 
L 335.077717 150.809183 
L 336.077717 150.760684 
L 337.077717 150.679861 
L 338.077717 150.561342 
L 339.077717 150.491132 
L 340.077717 150.407869 
L 341.077717 150.374727 
L 342.077717 150.32349 
L 343.077717 150.255092 
L 344.077717 150.188876 
L 345.077717 150.111959 
L 346.077717 150.084644 
L 347.077717 150.058166 
L 348.077717 150.035516 
L 349.077717 150.015984 
L 350.077717 149.98959 
L 351.077717 149.93982 
L 352.077717 149.904746 
L 353.703533 149.868881 
" clip-path="url(#pffd373ad1b)" style="fill: none; stroke: #1f77b4; stroke-opacity: 0.5; stroke-width: 0.2; stroke-linecap: square"/>
   <path d="M 290.077717 196.544822 
L 291.077717 196.576259 
L 292.077717 196.613199 
L 293.077717 196.710946 
L 294.077717 196.743467 
L 295.077717 196.817092 
L 296.077717 196.855658 
L 297.077717 196.891071 
L 298.077717 196.948711 
L 299.077717 197.019097 
L 300.077717 197.071061 
L 301.077717 197.130151 
L 302.077717 197.218472 
L 303.077717 197.264616 
L 304.077717 197.307027 
L 305.077717 197.33752 
L 306.077717 197.363565 
L 307.077717 197.384765 
L 308.077717 197.439066 
L 309.077717 197.467003 
L 310.077717 197.496727 
L 311.077717 197.522122 
L 312.077717 197.533323 
L 313.077717 197.543447 
L 314.077717 197.543242 
L 315.077717 197.533732 
L 316.077717 197.522079 
L 317.077717 197.491049 
L 318.077717 197.479882 
L 319.077717 197.449764 
L 320.077717 197.389987 
L 321.077717 197.352796 
L 322.077717 197.313699 
L 323.077717 197.27126 
L 324.077717 197.238495 
L 325.077717 197.171068 
L 326.077717 197.131942 
L 327.077717 197.089268 
L 328.077717 197.018687 
L 329.077717 196.982296 
L 330.077717 196.923893 
L 331.077717 196.812941 
L 332.077717 196.742282 
L 333.077717 196.629342 
L 334.077717 196.58357 
L 335.077717 196.522286 
L 336.077717 196.473787 
L 337.077717 196.392964 
L 338.077717 196.274445 
L 339.077717 196.204235 
L 340.077717 196.120972 
L 341.077717 196.087831 
L 342.077717 196.036593 
L 343.077717 195.968195 
L 344.077717 195.901979 
L 345.077717 195.825062 
L 346.077717 195.797747 
L 347.077717 195.771269 
L 348.077717 195.748619 
L 349.077717 195.729087 
L 350.077717 195.702693 
L 351.077717 195.652923 
L 352.077717 195.617849 
L 353.703533 195.581984 
" clip-path="url(#pffd373ad1b)" style="fill: none; stroke: #1f77b4; stroke-opacity: 0.5; stroke-width: 0.2; stroke-linecap: square"/>
   <path d="M 290.077717 83.862504 
L 291.077717 83.89394 
L 292.077717 83.93088 
L 293.077717 84.028627 
L 294.077717 84.061149 
L 295.077717 84.134773 
L 296.077717 84.173339 
L 297.077717 84.208752 
L 298.077717 84.266392 
L 299.077717 84.336778 
L 300.077717 84.388742 
L 301.077717 84.447832 
L 302.077717 84.536153 
L 303.077717 84.582297 
L 304.077717 84.624708 
L 305.077717 84.655201 
L 306.077717 84.681246 
L 307.077717 84.702446 
L 308.077717 84.756747 
L 309.077717 84.784685 
L 310.077717 84.814409 
L 311.077717 84.839803 
L 312.077717 84.851004 
L 313.077717 84.861128 
L 314.077717 84.860923 
L 315.077717 84.851414 
L 316.077717 84.83976 
L 317.077717 84.808731 
L 318.077717 84.797563 
L 319.077717 84.767445 
L 320.077717 84.707668 
L 321.077717 84.670477 
L 322.077717 84.631381 
L 323.077717 84.588941 
L 324.077717 84.556176 
L 325.077717 84.48875 
L 326.077717 84.449624 
L 327.077717 84.406949 
L 328.077717 84.336369 
L 329.077717 84.299978 
L 330.077717 84.241574 
L 331.077717 84.130622 
L 332.077717 84.059964 
L 333.077717 83.947024 
L 334.077717 83.901251 
L 335.077717 83.839968 
L 336.077717 83.791468 
L 337.077717 83.710646 
L 338.077717 83.592127 
L 339.077717 83.521916 
L 340.077717 83.438654 
L 341.077717 83.405512 
L 342.077717 83.354275 
L 343.077717 83.285876 
L 344.077717 83.219661 
L 345.077717 83.142744 
L 346.077717 83.115428 
L 347.077717 83.088951 
L 348.077717 83.0663 
L 349.077717 83.046769 
L 350.077717 83.020375 
L 351.077717 82.970604 
L 352.077717 82.935531 
L 353.703533 82.899665 
" clip-path="url(#pffd373ad1b)" style="fill: none; stroke: #1f77b4; stroke-opacity: 0.5; stroke-width: 0.2; stroke-linecap: square"/>
   <path d="M 290.077717 159.941828 
L 291.077717 159.973265 
L 292.077717 160.010205 
L 293.077717 160.107952 
L 294.077717 160.140473 
L 295.077717 160.214098 
L 296.077717 160.252664 
L 297.077717 160.288077 
L 298.077717 160.345717 
L 299.077717 160.416103 
L 300.077717 160.468067 
L 301.077717 160.527157 
L 302.077717 160.615478 
L 303.077717 160.661622 
L 304.077717 160.704033 
L 305.077717 160.734526 
L 306.077717 160.760571 
L 307.077717 160.781771 
L 308.077717 160.836072 
L 309.077717 160.864009 
L 310.077717 160.893733 
L 311.077717 160.919128 
L 312.077717 160.930329 
L 313.077717 160.940453 
L 314.077717 160.940248 
L 315.077717 160.930738 
L 316.077717 160.919085 
L 317.077717 160.888056 
L 318.077717 160.876888 
L 319.077717 160.84677 
L 320.077717 160.786993 
L 321.077717 160.749802 
L 322.077717 160.710706 
L 323.077717 160.668266 
L 324.077717 160.635501 
L 325.077717 160.568074 
L 326.077717 160.528948 
L 327.077717 160.486274 
L 328.077717 160.415693 
L 329.077717 160.379302 
L 330.077717 160.320899 
L 331.077717 160.209947 
L 332.077717 160.139288 
L 333.077717 160.026348 
L 334.077717 159.980576 
L 335.077717 159.919292 
L 336.077717 159.870793 
L 337.077717 159.78997 
L 338.077717 159.671451 
L 339.077717 159.601241 
L 340.077717 159.517978 
L 341.077717 159.484837 
L 342.077717 159.433599 
L 343.077717 159.365201 
L 344.077717 159.298985 
L 345.077717 159.222068 
L 346.077717 159.194753 
L 347.077717 159.168275 
L 348.077717 159.145625 
L 349.077717 159.126093 
L 350.077717 159.0997 
L 351.077717 159.049929 
L 352.077717 159.014856 
L 353.703533 158.97899 
" clip-path="url(#pffd373ad1b)" style="fill: none; stroke: #1f77b4; stroke-opacity: 0.5; stroke-width: 0.2; stroke-linecap: square"/>
   <path d="M 290.077717 88.311465 
L 291.077717 88.342902 
L 292.077717 88.379842 
L 293.077717 88.477589 
L 294.077717 88.51011 
L 295.077717 88.583735 
L 296.077717 88.622301 
L 297.077717 88.657714 
L 298.077717 88.715354 
L 299.077717 88.78574 
L 300.077717 88.837704 
L 301.077717 88.896794 
L 302.077717 88.985115 
L 303.077717 89.031259 
L 304.077717 89.07367 
L 305.077717 89.104163 
L 306.077717 89.130208 
L 307.077717 89.151408 
L 308.077717 89.205709 
L 309.077717 89.233646 
L 310.077717 89.26337 
L 311.077717 89.288765 
L 312.077717 89.299966 
L 313.077717 89.31009 
L 314.077717 89.309885 
L 315.077717 89.300375 
L 316.077717 89.288722 
L 317.077717 89.257692 
L 318.077717 89.246525 
L 319.077717 89.216407 
L 320.077717 89.15663 
L 321.077717 89.119439 
L 322.077717 89.080342 
L 323.077717 89.037903 
L 324.077717 89.005138 
L 325.077717 88.937711 
L 326.077717 88.898585 
L 327.077717 88.855911 
L 328.077717 88.78533 
L 329.077717 88.748939 
L 330.077717 88.690536 
L 331.077717 88.579584 
L 332.077717 88.508925 
L 333.077717 88.395985 
L 334.077717 88.350213 
L 335.077717 88.288929 
L 336.077717 88.24043 
L 337.077717 88.159607 
L 338.077717 88.041088 
L 339.077717 87.970878 
L 340.077717 87.887615 
L 341.077717 87.854473 
L 342.077717 87.803236 
L 343.077717 87.734838 
L 344.077717 87.668622 
L 345.077717 87.591705 
L 346.077717 87.56439 
L 347.077717 87.537912 
L 348.077717 87.515262 
L 349.077717 87.49573 
L 350.077717 87.469336 
L 351.077717 87.419566 
L 352.077717 87.384492 
L 353.703533 87.348627 
" clip-path="url(#pffd373ad1b)" style="fill: none; stroke: #1f77b4; stroke-opacity: 0.5; stroke-width: 0.2; stroke-linecap: square"/>
   <path d="M 290.077717 174.355347 
L 291.077717 174.386783 
L 292.077717 174.423724 
L 293.077717 174.52147 
L 294.077717 174.553992 
L 295.077717 174.627616 
L 296.077717 174.666182 
L 297.077717 174.701595 
L 298.077717 174.759235 
L 299.077717 174.829621 
L 300.077717 174.881586 
L 301.077717 174.940675 
L 302.077717 175.028996 
L 303.077717 175.075141 
L 304.077717 175.117552 
L 305.077717 175.148044 
L 306.077717 175.174089 
L 307.077717 175.195289 
L 308.077717 175.24959 
L 309.077717 175.277528 
L 310.077717 175.307252 
L 311.077717 175.332647 
L 312.077717 175.343847 
L 313.077717 175.353971 
L 314.077717 175.353767 
L 315.077717 175.344257 
L 316.077717 175.332603 
L 317.077717 175.301574 
L 318.077717 175.290406 
L 319.077717 175.260289 
L 320.077717 175.200512 
L 321.077717 175.16332 
L 322.077717 175.124224 
L 323.077717 175.081784 
L 324.077717 175.049019 
L 325.077717 174.981593 
L 326.077717 174.942467 
L 327.077717 174.899792 
L 328.077717 174.829212 
L 329.077717 174.792821 
L 330.077717 174.734418 
L 331.077717 174.623465 
L 332.077717 174.552807 
L 333.077717 174.439867 
L 334.077717 174.394094 
L 335.077717 174.332811 
L 336.077717 174.284311 
L 337.077717 174.203489 
L 338.077717 174.08497 
L 339.077717 174.014759 
L 340.077717 173.931497 
L 341.077717 173.898355 
L 342.077717 173.847118 
L 343.077717 173.778719 
L 344.077717 173.712504 
L 345.077717 173.635587 
L 346.077717 173.608271 
L 347.077717 173.581794 
L 348.077717 173.559143 
L 349.077717 173.539612 
L 350.077717 173.513218 
L 351.077717 173.463447 
L 352.077717 173.428374 
L 353.703533 173.392508 
" clip-path="url(#pffd373ad1b)" style="fill: none; stroke: #1f77b4; stroke-opacity: 0.5; stroke-width: 0.2; stroke-linecap: square"/>
   <path d="M 290.077717 131.248408 
L 291.077717 131.279845 
L 292.077717 131.316785 
L 293.077717 131.414531 
L 294.077717 131.447053 
L 295.077717 131.520678 
L 296.077717 131.559243 
L 297.077717 131.594657 
L 298.077717 131.652296 
L 299.077717 131.722683 
L 300.077717 131.774647 
L 301.077717 131.833737 
L 302.077717 131.922058 
L 303.077717 131.968202 
L 304.077717 132.010613 
L 305.077717 132.041106 
L 306.077717 132.06715 
L 307.077717 132.088351 
L 308.077717 132.142652 
L 309.077717 132.170589 
L 310.077717 132.200313 
L 311.077717 132.225708 
L 312.077717 132.236908 
L 313.077717 132.247032 
L 314.077717 132.246828 
L 315.077717 132.237318 
L 316.077717 132.225665 
L 317.077717 132.194635 
L 318.077717 132.183467 
L 319.077717 132.15335 
L 320.077717 132.093573 
L 321.077717 132.056381 
L 322.077717 132.017285 
L 323.077717 131.974846 
L 324.077717 131.942081 
L 325.077717 131.874654 
L 326.077717 131.835528 
L 327.077717 131.792854 
L 328.077717 131.722273 
L 329.077717 131.685882 
L 330.077717 131.627479 
L 331.077717 131.516526 
L 332.077717 131.445868 
L 333.077717 131.332928 
L 334.077717 131.287155 
L 335.077717 131.225872 
L 336.077717 131.177373 
L 337.077717 131.09655 
L 338.077717 130.978031 
L 339.077717 130.907821 
L 340.077717 130.824558 
L 341.077717 130.791416 
L 342.077717 130.740179 
L 343.077717 130.671781 
L 344.077717 130.605565 
L 345.077717 130.528648 
L 346.077717 130.501333 
L 347.077717 130.474855 
L 348.077717 130.452204 
L 349.077717 130.432673 
L 350.077717 130.406279 
L 351.077717 130.356508 
L 352.077717 130.321435 
L 353.703533 130.28557 
" clip-path="url(#pffd373ad1b)" style="fill: none; stroke: #1f77b4; stroke-opacity: 0.5; stroke-width: 0.2; stroke-linecap: square"/>
   <path d="M 290.077717 179.908114 
L 291.077717 179.939551 
L 292.077717 179.976491 
L 293.077717 180.074238 
L 294.077717 180.106759 
L 295.077717 180.180384 
L 296.077717 180.218949 
L 297.077717 180.254363 
L 298.077717 180.312003 
L 299.077717 180.382389 
L 300.077717 180.434353 
L 301.077717 180.493443 
L 302.077717 180.581764 
L 303.077717 180.627908 
L 304.077717 180.670319 
L 305.077717 180.700812 
L 306.077717 180.726857 
L 307.077717 180.748057 
L 308.077717 180.802358 
L 309.077717 180.830295 
L 310.077717 180.860019 
L 311.077717 180.885414 
L 312.077717 180.896615 
L 313.077717 180.906738 
L 314.077717 180.906534 
L 315.077717 180.897024 
L 316.077717 180.885371 
L 317.077717 180.854341 
L 318.077717 180.843174 
L 319.077717 180.813056 
L 320.077717 180.753279 
L 321.077717 180.716088 
L 322.077717 180.676991 
L 323.077717 180.634552 
L 324.077717 180.601787 
L 325.077717 180.53436 
L 326.077717 180.495234 
L 327.077717 180.45256 
L 328.077717 180.381979 
L 329.077717 180.345588 
L 330.077717 180.287185 
L 331.077717 180.176233 
L 332.077717 180.105574 
L 333.077717 179.992634 
L 334.077717 179.946862 
L 335.077717 179.885578 
L 336.077717 179.837079 
L 337.077717 179.756256 
L 338.077717 179.637737 
L 339.077717 179.567527 
L 340.077717 179.484264 
L 341.077717 179.451122 
L 342.077717 179.399885 
L 343.077717 179.331487 
L 344.077717 179.265271 
L 345.077717 179.188354 
L 346.077717 179.161039 
L 347.077717 179.134561 
L 348.077717 179.111911 
L 349.077717 179.092379 
L 350.077717 179.065985 
L 351.077717 179.016215 
L 352.077717 178.981141 
L 353.703533 178.945276 
" clip-path="url(#pffd373ad1b)" style="fill: none; stroke: #1f77b4; stroke-opacity: 0.5; stroke-width: 0.2; stroke-linecap: square"/>
   <path d="M 290.077717 109.784569 
L 291.077717 109.816006 
L 292.077717 109.852946 
L 293.077717 109.950693 
L 294.077717 109.983214 
L 295.077717 110.056839 
L 296.077717 110.095404 
L 297.077717 110.130818 
L 298.077717 110.188458 
L 299.077717 110.258844 
L 300.077717 110.310808 
L 301.077717 110.369898 
L 302.077717 110.458219 
L 303.077717 110.504363 
L 304.077717 110.546774 
L 305.077717 110.577267 
L 306.077717 110.603312 
L 307.077717 110.624512 
L 308.077717 110.678813 
L 309.077717 110.70675 
L 310.077717 110.736474 
L 311.077717 110.761869 
L 312.077717 110.773069 
L 313.077717 110.783193 
L 314.077717 110.782989 
L 315.077717 110.773479 
L 316.077717 110.761826 
L 317.077717 110.730796 
L 318.077717 110.719628 
L 319.077717 110.689511 
L 320.077717 110.629734 
L 321.077717 110.592542 
L 322.077717 110.553446 
L 323.077717 110.511007 
L 324.077717 110.478242 
L 325.077717 110.410815 
L 326.077717 110.371689 
L 327.077717 110.329015 
L 328.077717 110.258434 
L 329.077717 110.222043 
L 330.077717 110.16364 
L 331.077717 110.052687 
L 332.077717 109.982029 
L 333.077717 109.869089 
L 334.077717 109.823316 
L 335.077717 109.762033 
L 336.077717 109.713534 
L 337.077717 109.632711 
L 338.077717 109.514192 
L 339.077717 109.443982 
L 340.077717 109.360719 
L 341.077717 109.327577 
L 342.077717 109.27634 
L 343.077717 109.207942 
L 344.077717 109.141726 
L 345.077717 109.064809 
L 346.077717 109.037494 
L 347.077717 109.011016 
L 348.077717 108.988366 
L 349.077717 108.968834 
L 350.077717 108.94244 
L 351.077717 108.89267 
L 352.077717 108.857596 
L 353.703533 108.821731 
" clip-path="url(#pffd373ad1b)" style="fill: none; stroke: #1f77b4; stroke-opacity: 0.5; stroke-width: 0.2; stroke-linecap: square"/>
   <path d="M 353.703533 294.780824 
L 352.703533 294.749388 
L 351.703533 294.712448 
L 350.703533 294.614701 
L 349.703533 294.582179 
L 348.703533 294.508555 
L 347.703533 294.469989 
L 346.703533 294.434576 
L 345.703533 294.376936 
L 344.703533 294.30655 
L 343.703533 294.254586 
L 342.703533 294.195496 
L 341.703533 294.107175 
L 340.703533 294.061031 
L 339.703533 294.01862 
L 338.703533 293.988127 
L 337.703533 293.962082 
L 336.703533 293.940882 
L 335.703533 293.886581 
L 334.703533 293.858643 
L 333.703533 293.828919 
L 332.703533 293.803525 
L 331.703533 293.792324 
L 330.703533 293.7822 
L 329.703533 293.782404 
L 328.703533 293.791914 
L 327.703533 293.803568 
L 326.703533 293.834597 
L 325.703533 293.845765 
L 324.703533 293.875883 
L 323.703533 293.93566 
L 322.703533 293.972851 
L 321.703533 294.011947 
L 320.703533 294.054387 
L 319.703533 294.087152 
L 318.703533 294.154578 
L 317.703533 294.193704 
L 316.703533 294.236379 
L 315.703533 294.306959 
L 314.703533 294.34335 
L 313.703533 294.401753 
L 312.703533 294.512706 
L 311.703533 294.583364 
L 310.703533 294.696304 
L 309.703533 294.742077 
L 308.703533 294.80336 
L 307.703533 294.85186 
L 306.703533 294.932682 
L 305.703533 295.051201 
L 304.703533 295.121412 
L 303.703533 295.204674 
L 302.703533 295.237816 
L 301.703533 295.289053 
L 300.703533 295.357452 
L 299.703533 295.423667 
L 298.703533 295.500584 
L 297.703533 295.5279 
L 296.703533 295.554377 
L 295.703533 295.577028 
L 294.703533 295.596559 
L 293.703533 295.622953 
L 292.703533 295.672724 
L 291.703533 295.707797 
L 290.077717 295.743663 
" clip-path="url(#pffd373ad1b)" style="fill: none; stroke: #ff7f0e; stroke-opacity: 0.5; stroke-width: 0.2; stroke-linecap: square"/>
   <path d="M 353.703533 282.742005 
L 352.703533 282.710569 
L 351.703533 282.673628 
L 350.703533 282.575882 
L 349.703533 282.54336 
L 348.703533 282.469736 
L 347.703533 282.43117 
L 346.703533 282.395757 
L 345.703533 282.338117 
L 344.703533 282.267731 
L 343.703533 282.215767 
L 342.703533 282.156677 
L 341.703533 282.068356 
L 340.703533 282.022212 
L 339.703533 281.979801 
L 338.703533 281.949308 
L 337.703533 281.923263 
L 336.703533 281.902063 
L 335.703533 281.847762 
L 334.703533 281.819824 
L 333.703533 281.7901 
L 332.703533 281.764705 
L 331.703533 281.753505 
L 330.703533 281.743381 
L 329.703533 281.743585 
L 328.703533 281.753095 
L 327.703533 281.764749 
L 326.703533 281.795778 
L 325.703533 281.806946 
L 324.703533 281.837064 
L 323.703533 281.896841 
L 322.703533 281.934032 
L 321.703533 281.973128 
L 320.703533 282.015568 
L 319.703533 282.048333 
L 318.703533 282.115759 
L 317.703533 282.154885 
L 316.703533 282.19756 
L 315.703533 282.26814 
L 314.703533 282.304531 
L 313.703533 282.362934 
L 312.703533 282.473887 
L 311.703533 282.544545 
L 310.703533 282.657485 
L 309.703533 282.703258 
L 308.703533 282.764541 
L 307.703533 282.813041 
L 306.703533 282.893863 
L 305.703533 283.012382 
L 304.703533 283.082593 
L 303.703533 283.165855 
L 302.703533 283.198997 
L 301.703533 283.250234 
L 300.703533 283.318633 
L 299.703533 283.384848 
L 298.703533 283.461765 
L 297.703533 283.489081 
L 296.703533 283.515558 
L 295.703533 283.538209 
L 294.703533 283.55774 
L 293.703533 283.584134 
L 292.703533 283.633905 
L 291.703533 283.668978 
L 290.077717 283.704844 
" clip-path="url(#pffd373ad1b)" style="fill: none; stroke: #ff7f0e; stroke-opacity: 0.5; stroke-width: 0.2; stroke-linecap: square"/>
   <path d="M 353.703533 295.042827 
L 352.703533 295.01139 
L 351.703533 294.97445 
L 350.703533 294.876703 
L 349.703533 294.844182 
L 348.703533 294.770557 
L 347.703533 294.731991 
L 346.703533 294.696578 
L 345.703533 294.638938 
L 344.703533 294.568552 
L 343.703533 294.516588 
L 342.703533 294.457498 
L 341.703533 294.369177 
L 340.703533 294.323033 
L 339.703533 294.280622 
L 338.703533 294.250129 
L 337.703533 294.224084 
L 336.703533 294.202884 
L 335.703533 294.148583 
L 334.703533 294.120646 
L 333.703533 294.090922 
L 332.703533 294.065527 
L 331.703533 294.054326 
L 330.703533 294.044202 
L 329.703533 294.044407 
L 328.703533 294.053917 
L 327.703533 294.06557 
L 326.703533 294.0966 
L 325.703533 294.107767 
L 324.703533 294.137885 
L 323.703533 294.197662 
L 322.703533 294.234853 
L 321.703533 294.27395 
L 320.703533 294.316389 
L 319.703533 294.349154 
L 318.703533 294.416581 
L 317.703533 294.455707 
L 316.703533 294.498381 
L 315.703533 294.568962 
L 314.703533 294.605353 
L 313.703533 294.663756 
L 312.703533 294.774708 
L 311.703533 294.845367 
L 310.703533 294.958307 
L 309.703533 295.004079 
L 308.703533 295.065363 
L 307.703533 295.113862 
L 306.703533 295.194685 
L 305.703533 295.313204 
L 304.703533 295.383414 
L 303.703533 295.466677 
L 302.703533 295.499819 
L 301.703533 295.551056 
L 300.703533 295.619454 
L 299.703533 295.68567 
L 298.703533 295.762587 
L 297.703533 295.789902 
L 296.703533 295.81638 
L 295.703533 295.83903 
L 294.703533 295.858562 
L 293.703533 295.884956 
L 292.703533 295.934726 
L 291.703533 295.9698 
L 290.077717 296.005665 
" clip-path="url(#pffd373ad1b)" style="fill: none; stroke: #ff7f0e; stroke-opacity: 0.5; stroke-width: 0.2; stroke-linecap: square"/>
   <path d="M 353.703533 280.343754 
L 352.703533 280.312318 
L 351.703533 280.275378 
L 350.703533 280.177631 
L 349.703533 280.14511 
L 348.703533 280.071485 
L 347.703533 280.032919 
L 346.703533 279.997506 
L 345.703533 279.939866 
L 344.703533 279.86948 
L 343.703533 279.817516 
L 342.703533 279.758426 
L 341.703533 279.670105 
L 340.703533 279.623961 
L 339.703533 279.58155 
L 338.703533 279.551057 
L 337.703533 279.525012 
L 336.703533 279.503812 
L 335.703533 279.449511 
L 334.703533 279.421573 
L 333.703533 279.391849 
L 332.703533 279.366455 
L 331.703533 279.355254 
L 330.703533 279.34513 
L 329.703533 279.345335 
L 328.703533 279.354845 
L 327.703533 279.366498 
L 326.703533 279.397527 
L 325.703533 279.408695 
L 324.703533 279.438813 
L 323.703533 279.49859 
L 322.703533 279.535781 
L 321.703533 279.574877 
L 320.703533 279.617317 
L 319.703533 279.650082 
L 318.703533 279.717509 
L 317.703533 279.756635 
L 316.703533 279.799309 
L 315.703533 279.86989 
L 314.703533 279.906281 
L 313.703533 279.964684 
L 312.703533 280.075636 
L 311.703533 280.146295 
L 310.703533 280.259234 
L 309.703533 280.305007 
L 308.703533 280.366291 
L 307.703533 280.41479 
L 306.703533 280.495613 
L 305.703533 280.614131 
L 304.703533 280.684342 
L 303.703533 280.767605 
L 302.703533 280.800746 
L 301.703533 280.851984 
L 300.703533 280.920382 
L 299.703533 280.986597 
L 298.703533 281.063515 
L 297.703533 281.09083 
L 296.703533 281.117308 
L 295.703533 281.139958 
L 294.703533 281.159489 
L 293.703533 281.185883 
L 292.703533 281.235654 
L 291.703533 281.270727 
L 290.077717 281.306593 
" clip-path="url(#pffd373ad1b)" style="fill: none; stroke: #ff7f0e; stroke-opacity: 0.5; stroke-width: 0.2; stroke-linecap: square"/>
   <path d="M 353.703533 216.672276 
L 352.703533 216.64084 
L 351.703533 216.6039 
L 350.703533 216.506153 
L 349.703533 216.473631 
L 348.703533 216.400007 
L 347.703533 216.361441 
L 346.703533 216.326028 
L 345.703533 216.268388 
L 344.703533 216.198002 
L 343.703533 216.146038 
L 342.703533 216.086948 
L 341.703533 215.998627 
L 340.703533 215.952483 
L 339.703533 215.910072 
L 338.703533 215.879579 
L 337.703533 215.853534 
L 336.703533 215.832334 
L 335.703533 215.778033 
L 334.703533 215.750095 
L 333.703533 215.720371 
L 332.703533 215.694977 
L 331.703533 215.683776 
L 330.703533 215.673652 
L 329.703533 215.673857 
L 328.703533 215.683366 
L 327.703533 215.69502 
L 326.703533 215.726049 
L 325.703533 215.737217 
L 324.703533 215.767335 
L 323.703533 215.827112 
L 322.703533 215.864303 
L 321.703533 215.903399 
L 320.703533 215.945839 
L 319.703533 215.978604 
L 318.703533 216.04603 
L 317.703533 216.085156 
L 316.703533 216.127831 
L 315.703533 216.198412 
L 314.703533 216.234802 
L 313.703533 216.293206 
L 312.703533 216.404158 
L 311.703533 216.474816 
L 310.703533 216.587756 
L 309.703533 216.633529 
L 308.703533 216.694812 
L 307.703533 216.743312 
L 306.703533 216.824134 
L 305.703533 216.942653 
L 304.703533 217.012864 
L 303.703533 217.096126 
L 302.703533 217.129268 
L 301.703533 217.180506 
L 300.703533 217.248904 
L 299.703533 217.315119 
L 298.703533 217.392036 
L 297.703533 217.419352 
L 296.703533 217.445829 
L 295.703533 217.46848 
L 294.703533 217.488011 
L 293.703533 217.514405 
L 292.703533 217.564176 
L 291.703533 217.599249 
L 290.077717 217.635115 
" clip-path="url(#pffd373ad1b)" style="fill: none; stroke: #ff7f0e; stroke-opacity: 0.5; stroke-width: 0.2; stroke-linecap: square"/>
   <path d="M 353.703533 315.841794 
L 352.703533 315.810358 
L 351.703533 315.773418 
L 350.703533 315.675671 
L 349.703533 315.643149 
L 348.703533 315.569525 
L 347.703533 315.530959 
L 346.703533 315.495546 
L 345.703533 315.437906 
L 344.703533 315.36752 
L 343.703533 315.315556 
L 342.703533 315.256466 
L 341.703533 315.168145 
L 340.703533 315.122001 
L 339.703533 315.07959 
L 338.703533 315.049097 
L 337.703533 315.023052 
L 336.703533 315.001852 
L 335.703533 314.947551 
L 334.703533 314.919613 
L 333.703533 314.889889 
L 332.703533 314.864495 
L 331.703533 314.853294 
L 330.703533 314.84317 
L 329.703533 314.843374 
L 328.703533 314.852884 
L 327.703533 314.864538 
L 326.703533 314.895567 
L 325.703533 314.906735 
L 324.703533 314.936853 
L 323.703533 314.99663 
L 322.703533 315.033821 
L 321.703533 315.072917 
L 320.703533 315.115357 
L 319.703533 315.148122 
L 318.703533 315.215548 
L 317.703533 315.254674 
L 316.703533 315.297349 
L 315.703533 315.367929 
L 314.703533 315.40432 
L 313.703533 315.462723 
L 312.703533 315.573676 
L 311.703533 315.644334 
L 310.703533 315.757274 
L 309.703533 315.803047 
L 308.703533 315.86433 
L 307.703533 315.91283 
L 306.703533 315.993652 
L 305.703533 316.112171 
L 304.703533 316.182382 
L 303.703533 316.265644 
L 302.703533 316.298786 
L 301.703533 316.350023 
L 300.703533 316.418422 
L 299.703533 316.484637 
L 298.703533 316.561554 
L 297.703533 316.58887 
L 296.703533 316.615347 
L 295.703533 316.637998 
L 294.703533 316.657529 
L 293.703533 316.683923 
L 292.703533 316.733694 
L 291.703533 316.768767 
L 290.077717 316.804633 
" clip-path="url(#pffd373ad1b)" style="fill: none; stroke: #ff7f0e; stroke-opacity: 0.5; stroke-width: 0.2; stroke-linecap: square"/>
   <path d="M 353.703533 297.411196 
L 352.703533 297.379759 
L 351.703533 297.342819 
L 350.703533 297.245073 
L 349.703533 297.212551 
L 348.703533 297.138926 
L 347.703533 297.100361 
L 346.703533 297.064947 
L 345.703533 297.007308 
L 344.703533 296.936921 
L 343.703533 296.884957 
L 342.703533 296.825867 
L 341.703533 296.737546 
L 340.703533 296.691402 
L 339.703533 296.648991 
L 338.703533 296.618499 
L 337.703533 296.592454 
L 336.703533 296.571253 
L 335.703533 296.516952 
L 334.703533 296.489015 
L 333.703533 296.459291 
L 332.703533 296.433896 
L 331.703533 296.422696 
L 330.703533 296.412572 
L 329.703533 296.412776 
L 328.703533 296.422286 
L 327.703533 296.433939 
L 326.703533 296.464969 
L 325.703533 296.476137 
L 324.703533 296.506254 
L 323.703533 296.566031 
L 322.703533 296.603223 
L 321.703533 296.642319 
L 320.703533 296.684758 
L 319.703533 296.717523 
L 318.703533 296.78495 
L 317.703533 296.824076 
L 316.703533 296.86675 
L 315.703533 296.937331 
L 314.703533 296.973722 
L 313.703533 297.032125 
L 312.703533 297.143078 
L 311.703533 297.213736 
L 310.703533 297.326676 
L 309.703533 297.372449 
L 308.703533 297.433732 
L 307.703533 297.482231 
L 306.703533 297.563054 
L 305.703533 297.681573 
L 304.703533 297.751783 
L 303.703533 297.835046 
L 302.703533 297.868188 
L 301.703533 297.919425 
L 300.703533 297.987823 
L 299.703533 298.054039 
L 298.703533 298.130956 
L 297.703533 298.158271 
L 296.703533 298.184749 
L 295.703533 298.2074 
L 294.703533 298.226931 
L 293.703533 298.253325 
L 292.703533 298.303096 
L 291.703533 298.338169 
L 290.077717 298.374034 
" clip-path="url(#pffd373ad1b)" style="fill: none; stroke: #ff7f0e; stroke-opacity: 0.5; stroke-width: 0.2; stroke-linecap: square"/>
   <path d="M 353.703533 307.31194 
L 352.703533 307.280504 
L 351.703533 307.243564 
L 350.703533 307.145817 
L 349.703533 307.113296 
L 348.703533 307.039671 
L 347.703533 307.001105 
L 346.703533 306.965692 
L 345.703533 306.908052 
L 344.703533 306.837666 
L 343.703533 306.785702 
L 342.703533 306.726612 
L 341.703533 306.638291 
L 340.703533 306.592147 
L 339.703533 306.549736 
L 338.703533 306.519243 
L 337.703533 306.493198 
L 336.703533 306.471998 
L 335.703533 306.417697 
L 334.703533 306.389759 
L 333.703533 306.360035 
L 332.703533 306.334641 
L 331.703533 306.32344 
L 330.703533 306.313316 
L 329.703533 306.313521 
L 328.703533 306.323031 
L 327.703533 306.334684 
L 326.703533 306.365713 
L 325.703533 306.376881 
L 324.703533 306.406999 
L 323.703533 306.466776 
L 322.703533 306.503967 
L 321.703533 306.543063 
L 320.703533 306.585503 
L 319.703533 306.618268 
L 318.703533 306.685695 
L 317.703533 306.72482 
L 316.703533 306.767495 
L 315.703533 306.838076 
L 314.703533 306.874466 
L 313.703533 306.93287 
L 312.703533 307.043822 
L 311.703533 307.114481 
L 310.703533 307.22742 
L 309.703533 307.273193 
L 308.703533 307.334477 
L 307.703533 307.382976 
L 306.703533 307.463799 
L 305.703533 307.582317 
L 304.703533 307.652528 
L 303.703533 307.735791 
L 302.703533 307.768932 
L 301.703533 307.82017 
L 300.703533 307.888568 
L 299.703533 307.954783 
L 298.703533 308.0317 
L 297.703533 308.059016 
L 296.703533 308.085493 
L 295.703533 308.108144 
L 294.703533 308.127675 
L 293.703533 308.154069 
L 292.703533 308.20384 
L 291.703533 308.238913 
L 290.077717 308.274779 
" clip-path="url(#pffd373ad1b)" style="fill: none; stroke: #ff7f0e; stroke-opacity: 0.5; stroke-width: 0.2; stroke-linecap: square"/>
   <path d="M 353.703533 292.30211 
L 352.703533 292.270673 
L 351.703533 292.233733 
L 350.703533 292.135986 
L 349.703533 292.103465 
L 348.703533 292.02984 
L 347.703533 291.991274 
L 346.703533 291.955861 
L 345.703533 291.898221 
L 344.703533 291.827835 
L 343.703533 291.775871 
L 342.703533 291.716781 
L 341.703533 291.62846 
L 340.703533 291.582316 
L 339.703533 291.539905 
L 338.703533 291.509412 
L 337.703533 291.483367 
L 336.703533 291.462167 
L 335.703533 291.407866 
L 334.703533 291.379929 
L 333.703533 291.350205 
L 332.703533 291.32481 
L 331.703533 291.313609 
L 330.703533 291.303485 
L 329.703533 291.30369 
L 328.703533 291.3132 
L 327.703533 291.324853 
L 326.703533 291.355883 
L 325.703533 291.36705 
L 324.703533 291.397168 
L 323.703533 291.456945 
L 322.703533 291.494136 
L 321.703533 291.533233 
L 320.703533 291.575672 
L 319.703533 291.608437 
L 318.703533 291.675864 
L 317.703533 291.71499 
L 316.703533 291.757664 
L 315.703533 291.828245 
L 314.703533 291.864636 
L 313.703533 291.923039 
L 312.703533 292.033991 
L 311.703533 292.10465 
L 310.703533 292.21759 
L 309.703533 292.263362 
L 308.703533 292.324646 
L 307.703533 292.373145 
L 306.703533 292.453968 
L 305.703533 292.572487 
L 304.703533 292.642697 
L 303.703533 292.72596 
L 302.703533 292.759102 
L 301.703533 292.810339 
L 300.703533 292.878737 
L 299.703533 292.944953 
L 298.703533 293.02187 
L 297.703533 293.049185 
L 296.703533 293.075663 
L 295.703533 293.098313 
L 294.703533 293.117845 
L 293.703533 293.144239 
L 292.703533 293.194009 
L 291.703533 293.229083 
L 290.077717 293.264948 
" clip-path="url(#pffd373ad1b)" style="fill: none; stroke: #ff7f0e; stroke-opacity: 0.5; stroke-width: 0.2; stroke-linecap: square"/>
   <path d="M 353.703533 308.45364 
L 352.703533 308.422204 
L 351.703533 308.385264 
L 350.703533 308.287517 
L 349.703533 308.254995 
L 348.703533 308.181371 
L 347.703533 308.142805 
L 346.703533 308.107392 
L 345.703533 308.049752 
L 344.703533 307.979366 
L 343.703533 307.927402 
L 342.703533 307.868312 
L 341.703533 307.779991 
L 340.703533 307.733847 
L 339.703533 307.691436 
L 338.703533 307.660943 
L 337.703533 307.634898 
L 336.703533 307.613698 
L 335.703533 307.559397 
L 334.703533 307.531459 
L 333.703533 307.501735 
L 332.703533 307.476341 
L 331.703533 307.46514 
L 330.703533 307.455016 
L 329.703533 307.455221 
L 328.703533 307.46473 
L 327.703533 307.476384 
L 326.703533 307.507413 
L 325.703533 307.518581 
L 324.703533 307.548699 
L 323.703533 307.608476 
L 322.703533 307.645667 
L 321.703533 307.684763 
L 320.703533 307.727203 
L 319.703533 307.759968 
L 318.703533 307.827394 
L 317.703533 307.86652 
L 316.703533 307.909195 
L 315.703533 307.979776 
L 314.703533 308.016166 
L 313.703533 308.07457 
L 312.703533 308.185522 
L 311.703533 308.25618 
L 310.703533 308.36912 
L 309.703533 308.414893 
L 308.703533 308.476176 
L 307.703533 308.524676 
L 306.703533 308.605498 
L 305.703533 308.724017 
L 304.703533 308.794228 
L 303.703533 308.87749 
L 302.703533 308.910632 
L 301.703533 308.96187 
L 300.703533 309.030268 
L 299.703533 309.096483 
L 298.703533 309.1734 
L 297.703533 309.200716 
L 296.703533 309.227193 
L 295.703533 309.249844 
L 294.703533 309.269375 
L 293.703533 309.295769 
L 292.703533 309.34554 
L 291.703533 309.380613 
L 290.077717 309.416479 
" clip-path="url(#pffd373ad1b)" style="fill: none; stroke: #ff7f0e; stroke-opacity: 0.5; stroke-width: 0.2; stroke-linecap: square"/>
   <path d="M 290.077717 277.327584 
L 291.077717 277.35902 
L 292.077717 277.395961 
L 293.077717 277.493707 
L 294.077717 277.526229 
L 295.077717 277.599853 
L 296.077717 277.638419 
L 297.077717 277.673832 
L 298.077717 277.731472 
L 299.077717 277.801858 
L 300.077717 277.853823 
L 301.077717 277.912912 
L 302.077717 278.001233 
L 303.077717 278.047378 
L 304.077717 278.089788 
L 305.077717 278.120281 
L 306.077717 278.146326 
L 307.077717 278.167526 
L 308.077717 278.221827 
L 309.077717 278.249765 
L 310.077717 278.279489 
L 311.077717 278.304884 
L 312.077717 278.316084 
L 313.077717 278.326208 
L 314.077717 278.326004 
L 315.077717 278.316494 
L 316.077717 278.30484 
L 317.077717 278.273811 
L 318.077717 278.262643 
L 319.077717 278.232525 
L 320.077717 278.172749 
L 321.077717 278.135557 
L 322.077717 278.096461 
L 323.077717 278.054021 
L 324.077717 278.021256 
L 325.077717 277.95383 
L 326.077717 277.914704 
L 327.077717 277.872029 
L 328.077717 277.801449 
L 329.077717 277.765058 
L 330.077717 277.706655 
L 331.077717 277.595702 
L 332.077717 277.525044 
L 333.077717 277.412104 
L 334.077717 277.366331 
L 335.077717 277.305048 
L 336.077717 277.256548 
L 337.077717 277.175726 
L 338.077717 277.057207 
L 339.077717 276.986996 
L 340.077717 276.903734 
L 341.077717 276.870592 
L 342.077717 276.819355 
L 343.077717 276.750956 
L 344.077717 276.684741 
L 345.077717 276.607824 
L 346.077717 276.580508 
L 347.077717 276.554031 
L 348.077717 276.53138 
L 349.077717 276.511849 
L 350.077717 276.485455 
L 351.077717 276.435684 
L 352.077717 276.400611 
L 353.703533 276.364745 
" clip-path="url(#pffd373ad1b)" style="fill: none; stroke: #1f77b4; stroke-opacity: 0.5; stroke-width: 0.2; stroke-linecap: square"/>
   <path d="M 290.077717 265.998603 
L 291.077717 266.030039 
L 292.077717 266.06698 
L 293.077717 266.164726 
L 294.077717 266.197248 
L 295.077717 266.270873 
L 296.077717 266.309438 
L 297.077717 266.344851 
L 298.077717 266.402491 
L 299.077717 266.472877 
L 300.077717 266.524842 
L 301.077717 266.583931 
L 302.077717 266.672252 
L 303.077717 266.718397 
L 304.077717 266.760808 
L 305.077717 266.7913 
L 306.077717 266.817345 
L 307.077717 266.838545 
L 308.077717 266.892846 
L 309.077717 266.920784 
L 310.077717 266.950508 
L 311.077717 266.975903 
L 312.077717 266.987103 
L 313.077717 266.997227 
L 314.077717 266.997023 
L 315.077717 266.987513 
L 316.077717 266.975859 
L 317.077717 266.94483 
L 318.077717 266.933662 
L 319.077717 266.903545 
L 320.077717 266.843768 
L 321.077717 266.806576 
L 322.077717 266.76748 
L 323.077717 266.72504 
L 324.077717 266.692275 
L 325.077717 266.624849 
L 326.077717 266.585723 
L 327.077717 266.543048 
L 328.077717 266.472468 
L 329.077717 266.436077 
L 330.077717 266.377674 
L 331.077717 266.266721 
L 332.077717 266.196063 
L 333.077717 266.083123 
L 334.077717 266.03735 
L 335.077717 265.976067 
L 336.077717 265.927568 
L 337.077717 265.846745 
L 338.077717 265.728226 
L 339.077717 265.658015 
L 340.077717 265.574753 
L 341.077717 265.541611 
L 342.077717 265.490374 
L 343.077717 265.421975 
L 344.077717 265.35576 
L 345.077717 265.278843 
L 346.077717 265.251527 
L 347.077717 265.22505 
L 348.077717 265.202399 
L 349.077717 265.182868 
L 350.077717 265.156474 
L 351.077717 265.106703 
L 352.077717 265.07163 
L 353.703533 265.035764 
" clip-path="url(#pffd373ad1b)" style="fill: none; stroke: #1f77b4; stroke-opacity: 0.5; stroke-width: 0.2; stroke-linecap: square"/>
   <path d="M 290.077717 249.48484 
L 291.077717 249.516277 
L 292.077717 249.553217 
L 293.077717 249.650964 
L 294.077717 249.683485 
L 295.077717 249.75711 
L 296.077717 249.795676 
L 297.077717 249.831089 
L 298.077717 249.888729 
L 299.077717 249.959115 
L 300.077717 250.011079 
L 301.077717 250.070169 
L 302.077717 250.15849 
L 303.077717 250.204634 
L 304.077717 250.247045 
L 305.077717 250.277538 
L 306.077717 250.303583 
L 307.077717 250.324783 
L 308.077717 250.379084 
L 309.077717 250.407021 
L 310.077717 250.436745 
L 311.077717 250.46214 
L 312.077717 250.473341 
L 313.077717 250.483465 
L 314.077717 250.48326 
L 315.077717 250.47375 
L 316.077717 250.462097 
L 317.077717 250.431067 
L 318.077717 250.4199 
L 319.077717 250.389782 
L 320.077717 250.330005 
L 321.077717 250.292814 
L 322.077717 250.253717 
L 323.077717 250.211278 
L 324.077717 250.178513 
L 325.077717 250.111086 
L 326.077717 250.07196 
L 327.077717 250.029286 
L 328.077717 249.958705 
L 329.077717 249.922314 
L 330.077717 249.863911 
L 331.077717 249.752959 
L 332.077717 249.6823 
L 333.077717 249.56936 
L 334.077717 249.523588 
L 335.077717 249.462304 
L 336.077717 249.413805 
L 337.077717 249.332982 
L 338.077717 249.214463 
L 339.077717 249.144253 
L 340.077717 249.06099 
L 341.077717 249.027849 
L 342.077717 248.976611 
L 343.077717 248.908213 
L 344.077717 248.841997 
L 345.077717 248.76508 
L 346.077717 248.737765 
L 347.077717 248.711287 
L 348.077717 248.688637 
L 349.077717 248.669105 
L 350.077717 248.642711 
L 351.077717 248.592941 
L 352.077717 248.557867 
L 353.703533 248.522002 
" clip-path="url(#pffd373ad1b)" style="fill: none; stroke: #1f77b4; stroke-opacity: 0.5; stroke-width: 0.2; stroke-linecap: square"/>
   <path d="M 290.077717 237.965956 
L 291.077717 237.997393 
L 292.077717 238.034333 
L 293.077717 238.13208 
L 294.077717 238.164601 
L 295.077717 238.238226 
L 296.077717 238.276792 
L 297.077717 238.312205 
L 298.077717 238.369845 
L 299.077717 238.440231 
L 300.077717 238.492195 
L 301.077717 238.551285 
L 302.077717 238.639606 
L 303.077717 238.68575 
L 304.077717 238.728161 
L 305.077717 238.758654 
L 306.077717 238.784699 
L 307.077717 238.805899 
L 308.077717 238.8602 
L 309.077717 238.888137 
L 310.077717 238.917861 
L 311.077717 238.943256 
L 312.077717 238.954457 
L 313.077717 238.964581 
L 314.077717 238.964376 
L 315.077717 238.954866 
L 316.077717 238.943213 
L 317.077717 238.912184 
L 318.077717 238.901016 
L 319.077717 238.870898 
L 320.077717 238.811121 
L 321.077717 238.77393 
L 322.077717 238.734834 
L 323.077717 238.692394 
L 324.077717 238.659629 
L 325.077717 238.592202 
L 326.077717 238.553076 
L 327.077717 238.510402 
L 328.077717 238.439821 
L 329.077717 238.40343 
L 330.077717 238.345027 
L 331.077717 238.234075 
L 332.077717 238.163416 
L 333.077717 238.050477 
L 334.077717 238.004704 
L 335.077717 237.94342 
L 336.077717 237.894921 
L 337.077717 237.814098 
L 338.077717 237.695579 
L 339.077717 237.625369 
L 340.077717 237.542106 
L 341.077717 237.508965 
L 342.077717 237.457727 
L 343.077717 237.389329 
L 344.077717 237.323113 
L 345.077717 237.246196 
L 346.077717 237.218881 
L 347.077717 237.192403 
L 348.077717 237.169753 
L 349.077717 237.150222 
L 350.077717 237.123828 
L 351.077717 237.074057 
L 352.077717 237.038984 
L 353.703533 237.003118 
" clip-path="url(#pffd373ad1b)" style="fill: none; stroke: #1f77b4; stroke-opacity: 0.5; stroke-width: 0.2; stroke-linecap: square"/>
   <path d="M 290.077717 304.301329 
L 291.077717 304.332765 
L 292.077717 304.369706 
L 293.077717 304.467452 
L 294.077717 304.499974 
L 295.077717 304.573598 
L 296.077717 304.612164 
L 297.077717 304.647577 
L 298.077717 304.705217 
L 299.077717 304.775603 
L 300.077717 304.827568 
L 301.077717 304.886657 
L 302.077717 304.974978 
L 303.077717 305.021123 
L 304.077717 305.063533 
L 305.077717 305.094026 
L 306.077717 305.120071 
L 307.077717 305.141271 
L 308.077717 305.195572 
L 309.077717 305.22351 
L 310.077717 305.253234 
L 311.077717 305.278629 
L 312.077717 305.289829 
L 313.077717 305.299953 
L 314.077717 305.299749 
L 315.077717 305.290239 
L 316.077717 305.278585 
L 317.077717 305.247556 
L 318.077717 305.236388 
L 319.077717 305.20627 
L 320.077717 305.146494 
L 321.077717 305.109302 
L 322.077717 305.070206 
L 323.077717 305.027766 
L 324.077717 304.995001 
L 325.077717 304.927575 
L 326.077717 304.888449 
L 327.077717 304.845774 
L 328.077717 304.775194 
L 329.077717 304.738803 
L 330.077717 304.6804 
L 331.077717 304.569447 
L 332.077717 304.498789 
L 333.077717 304.385849 
L 334.077717 304.340076 
L 335.077717 304.278793 
L 336.077717 304.230293 
L 337.077717 304.149471 
L 338.077717 304.030952 
L 339.077717 303.960741 
L 340.077717 303.877479 
L 341.077717 303.844337 
L 342.077717 303.7931 
L 343.077717 303.724701 
L 344.077717 303.658486 
L 345.077717 303.581569 
L 346.077717 303.554253 
L 347.077717 303.527776 
L 348.077717 303.505125 
L 349.077717 303.485594 
L 350.077717 303.4592 
L 351.077717 303.409429 
L 352.077717 303.374356 
L 353.703533 303.33849 
" clip-path="url(#pffd373ad1b)" style="fill: none; stroke: #1f77b4; stroke-opacity: 0.5; stroke-width: 0.2; stroke-linecap: square"/>
   <path d="M 290.077717 260.138455 
L 291.077717 260.169891 
L 292.077717 260.206832 
L 293.077717 260.304578 
L 294.077717 260.3371 
L 295.077717 260.410724 
L 296.077717 260.44929 
L 297.077717 260.484703 
L 298.077717 260.542343 
L 299.077717 260.612729 
L 300.077717 260.664693 
L 301.077717 260.723783 
L 302.077717 260.812104 
L 303.077717 260.858248 
L 304.077717 260.900659 
L 305.077717 260.931152 
L 306.077717 260.957197 
L 307.077717 260.978397 
L 308.077717 261.032698 
L 309.077717 261.060636 
L 310.077717 261.09036 
L 311.077717 261.115755 
L 312.077717 261.126955 
L 313.077717 261.137079 
L 314.077717 261.136875 
L 315.077717 261.127365 
L 316.077717 261.115711 
L 317.077717 261.084682 
L 318.077717 261.073514 
L 319.077717 261.043396 
L 320.077717 260.983619 
L 321.077717 260.946428 
L 322.077717 260.907332 
L 323.077717 260.864892 
L 324.077717 260.832127 
L 325.077717 260.764701 
L 326.077717 260.725575 
L 327.077717 260.6829 
L 328.077717 260.61232 
L 329.077717 260.575929 
L 330.077717 260.517526 
L 331.077717 260.406573 
L 332.077717 260.335915 
L 333.077717 260.222975 
L 334.077717 260.177202 
L 335.077717 260.115919 
L 336.077717 260.067419 
L 337.077717 259.986597 
L 338.077717 259.868078 
L 339.077717 259.797867 
L 340.077717 259.714605 
L 341.077717 259.681463 
L 342.077717 259.630226 
L 343.077717 259.561827 
L 344.077717 259.495612 
L 345.077717 259.418695 
L 346.077717 259.391379 
L 347.077717 259.364902 
L 348.077717 259.342251 
L 349.077717 259.32272 
L 350.077717 259.296326 
L 351.077717 259.246555 
L 352.077717 259.211482 
L 353.703533 259.175616 
" clip-path="url(#pffd373ad1b)" style="fill: none; stroke: #1f77b4; stroke-opacity: 0.5; stroke-width: 0.2; stroke-linecap: square"/>
   <path d="M 290.077717 270.963038 
L 291.077717 270.994474 
L 292.077717 271.031414 
L 293.077717 271.129161 
L 294.077717 271.161683 
L 295.077717 271.235307 
L 296.077717 271.273873 
L 297.077717 271.309286 
L 298.077717 271.366926 
L 299.077717 271.437312 
L 300.077717 271.489276 
L 301.077717 271.548366 
L 302.077717 271.636687 
L 303.077717 271.682831 
L 304.077717 271.725242 
L 305.077717 271.755735 
L 306.077717 271.78178 
L 307.077717 271.80298 
L 308.077717 271.857281 
L 309.077717 271.885219 
L 310.077717 271.914943 
L 311.077717 271.940337 
L 312.077717 271.951538 
L 313.077717 271.961662 
L 314.077717 271.961457 
L 315.077717 271.951948 
L 316.077717 271.940294 
L 317.077717 271.909265 
L 318.077717 271.898097 
L 319.077717 271.867979 
L 320.077717 271.808202 
L 321.077717 271.771011 
L 322.077717 271.731915 
L 323.077717 271.689475 
L 324.077717 271.65671 
L 325.077717 271.589284 
L 326.077717 271.550158 
L 327.077717 271.507483 
L 328.077717 271.436903 
L 329.077717 271.400512 
L 330.077717 271.342108 
L 331.077717 271.231156 
L 332.077717 271.160498 
L 333.077717 271.047558 
L 334.077717 271.001785 
L 335.077717 270.940502 
L 336.077717 270.892002 
L 337.077717 270.81118 
L 338.077717 270.692661 
L 339.077717 270.62245 
L 340.077717 270.539188 
L 341.077717 270.506046 
L 342.077717 270.454809 
L 343.077717 270.38641 
L 344.077717 270.320195 
L 345.077717 270.243278 
L 346.077717 270.215962 
L 347.077717 270.189485 
L 348.077717 270.166834 
L 349.077717 270.147303 
L 350.077717 270.120909 
L 351.077717 270.071138 
L 352.077717 270.036065 
L 353.703533 270.000199 
" clip-path="url(#pffd373ad1b)" style="fill: none; stroke: #1f77b4; stroke-opacity: 0.5; stroke-width: 0.2; stroke-linecap: square"/>
   <path d="M 290.077717 240.502602 
L 291.077717 240.534039 
L 292.077717 240.570979 
L 293.077717 240.668726 
L 294.077717 240.701247 
L 295.077717 240.774872 
L 296.077717 240.813438 
L 297.077717 240.848851 
L 298.077717 240.906491 
L 299.077717 240.976877 
L 300.077717 241.028841 
L 301.077717 241.087931 
L 302.077717 241.176252 
L 303.077717 241.222396 
L 304.077717 241.264807 
L 305.077717 241.2953 
L 306.077717 241.321345 
L 307.077717 241.342545 
L 308.077717 241.396846 
L 309.077717 241.424783 
L 310.077717 241.454507 
L 311.077717 241.479902 
L 312.077717 241.491103 
L 313.077717 241.501227 
L 314.077717 241.501022 
L 315.077717 241.491512 
L 316.077717 241.479859 
L 317.077717 241.44883 
L 318.077717 241.437662 
L 319.077717 241.407544 
L 320.077717 241.347767 
L 321.077717 241.310576 
L 322.077717 241.27148 
L 323.077717 241.22904 
L 324.077717 241.196275 
L 325.077717 241.128848 
L 326.077717 241.089722 
L 327.077717 241.047048 
L 328.077717 240.976467 
L 329.077717 240.940076 
L 330.077717 240.881673 
L 331.077717 240.770721 
L 332.077717 240.700062 
L 333.077717 240.587123 
L 334.077717 240.54135 
L 335.077717 240.480066 
L 336.077717 240.431567 
L 337.077717 240.350744 
L 338.077717 240.232225 
L 339.077717 240.162015 
L 340.077717 240.078752 
L 341.077717 240.045611 
L 342.077717 239.994373 
L 343.077717 239.925975 
L 344.077717 239.859759 
L 345.077717 239.782842 
L 346.077717 239.755527 
L 347.077717 239.729049 
L 348.077717 239.706399 
L 349.077717 239.686868 
L 350.077717 239.660474 
L 351.077717 239.610703 
L 352.077717 239.57563 
L 353.703533 239.539764 
" clip-path="url(#pffd373ad1b)" style="fill: none; stroke: #1f77b4; stroke-opacity: 0.5; stroke-width: 0.2; stroke-linecap: square"/>
   <path d="M 290.077717 220.803309 
L 291.077717 220.834746 
L 292.077717 220.871686 
L 293.077717 220.969432 
L 294.077717 221.001954 
L 295.077717 221.075579 
L 296.077717 221.114144 
L 297.077717 221.149558 
L 298.077717 221.207197 
L 299.077717 221.277584 
L 300.077717 221.329548 
L 301.077717 221.388638 
L 302.077717 221.476959 
L 303.077717 221.523103 
L 304.077717 221.565514 
L 305.077717 221.596006 
L 306.077717 221.622051 
L 307.077717 221.643252 
L 308.077717 221.697553 
L 309.077717 221.72549 
L 310.077717 221.755214 
L 311.077717 221.780609 
L 312.077717 221.791809 
L 313.077717 221.801933 
L 314.077717 221.801729 
L 315.077717 221.792219 
L 316.077717 221.780566 
L 317.077717 221.749536 
L 318.077717 221.738368 
L 319.077717 221.708251 
L 320.077717 221.648474 
L 321.077717 221.611282 
L 322.077717 221.572186 
L 323.077717 221.529747 
L 324.077717 221.496982 
L 325.077717 221.429555 
L 326.077717 221.390429 
L 327.077717 221.347755 
L 328.077717 221.277174 
L 329.077717 221.240783 
L 330.077717 221.18238 
L 331.077717 221.071427 
L 332.077717 221.000769 
L 333.077717 220.887829 
L 334.077717 220.842056 
L 335.077717 220.780773 
L 336.077717 220.732274 
L 337.077717 220.651451 
L 338.077717 220.532932 
L 339.077717 220.462722 
L 340.077717 220.379459 
L 341.077717 220.346317 
L 342.077717 220.29508 
L 343.077717 220.226682 
L 344.077717 220.160466 
L 345.077717 220.083549 
L 346.077717 220.056234 
L 347.077717 220.029756 
L 348.077717 220.007105 
L 349.077717 219.987574 
L 350.077717 219.96118 
L 351.077717 219.911409 
L 352.077717 219.876336 
L 353.703533 219.840471 
" clip-path="url(#pffd373ad1b)" style="fill: none; stroke: #1f77b4; stroke-opacity: 0.5; stroke-width: 0.2; stroke-linecap: square"/>
   <path d="M 290.077717 237.163492 
L 291.077717 237.194928 
L 292.077717 237.231869 
L 293.077717 237.329615 
L 294.077717 237.362137 
L 295.077717 237.435761 
L 296.077717 237.474327 
L 297.077717 237.50974 
L 298.077717 237.56738 
L 299.077717 237.637766 
L 300.077717 237.689731 
L 301.077717 237.74882 
L 302.077717 237.837141 
L 303.077717 237.883286 
L 304.077717 237.925696 
L 305.077717 237.956189 
L 306.077717 237.982234 
L 307.077717 238.003434 
L 308.077717 238.057735 
L 309.077717 238.085673 
L 310.077717 238.115397 
L 311.077717 238.140792 
L 312.077717 238.151992 
L 313.077717 238.162116 
L 314.077717 238.161912 
L 315.077717 238.152402 
L 316.077717 238.140748 
L 317.077717 238.109719 
L 318.077717 238.098551 
L 319.077717 238.068434 
L 320.077717 238.008657 
L 321.077717 237.971465 
L 322.077717 237.932369 
L 323.077717 237.889929 
L 324.077717 237.857164 
L 325.077717 237.789738 
L 326.077717 237.750612 
L 327.077717 237.707937 
L 328.077717 237.637357 
L 329.077717 237.600966 
L 330.077717 237.542563 
L 331.077717 237.43161 
L 332.077717 237.360952 
L 333.077717 237.248012 
L 334.077717 237.202239 
L 335.077717 237.140956 
L 336.077717 237.092456 
L 337.077717 237.011634 
L 338.077717 236.893115 
L 339.077717 236.822904 
L 340.077717 236.739642 
L 341.077717 236.7065 
L 342.077717 236.655263 
L 343.077717 236.586864 
L 344.077717 236.520649 
L 345.077717 236.443732 
L 346.077717 236.416416 
L 347.077717 236.389939 
L 348.077717 236.367288 
L 349.077717 236.347757 
L 350.077717 236.321363 
L 351.077717 236.271592 
L 352.077717 236.236519 
L 353.703533 236.200653 
" clip-path="url(#pffd373ad1b)" style="fill: none; stroke: #1f77b4; stroke-opacity: 0.5; stroke-width: 0.2; stroke-linecap: square"/>
   <g id="patch_3">
    <path d="M 69.06392 22.318125 
L 69.06392 318.021875 
M 284.51553 22.318125 
L 284.51553 318.021875 
" clip-path="url(#pffd373ad1b)" style="fill: none; stroke: #ffffff; stroke-width: 3; stroke-linejoin: miter"/>
    <path d="M 69.06392 22.318125 
L 69.06392 318.021875 
M 284.51553 22.318125 
L 284.51553 318.021875 
" clip-path="url(#pffd373ad1b)" style="fill: none; stroke: #1f77b4; stroke-linejoin: miter"/>
    <g id="PolyCollection_1">
     <path d="M 284.51553 22.318125 
L 69.06392 22.318125 
L 69.06392 318.021875 
L 284.51553 318.021875 
L 284.51553 318.021875 
L 284.51553 22.318125 
z
" clip-path="url(#pffd373ad1b)" style="fill: #1f77b4; fill-opacity: 0.5"/>
    </g>
    <g id="patch_4">
     <path d="M 359.26572 22.318125 
L 359.26572 318.021875 
M 574.71733 22.318125 
L 574.71733 318.021875 
" clip-path="url(#pffd373ad1b)" style="fill: none; stroke: #ffffff; stroke-width: 3; stroke-linejoin: miter"/>
     <path d="M 359.26572 22.318125 
L 359.26572 318.021875 
M 574.71733 22.318125 
L 574.71733 318.021875 
" clip-path="url(#pffd373ad1b)" style="fill: none; stroke: #ff7f0e; stroke-linejoin: miter"/>
     <g id="PolyCollection_2">
      <path d="M 574.71733 22.318125 
L 359.26572 22.318125 
L 359.26572 318.021875 
L 574.71733 318.021875 
L 574.71733 318.021875 
L 574.71733 22.318125 
z
" clip-path="url(#pffd373ad1b)" style="fill: #ff7f0e; fill-opacity: 0.5"/>
     </g>
     <g id="matplotlib.axis_1">
      <g id="xtick_1">
       <g id="line2d_1"/>
       <g id="text_1">
        <!-- deme0 -->
        <g transform="translate(159.410819 329.120312) scale(0.1 -0.1)">
         <defs>
          <path id="DejaVuSans-64" d="M 2906 2969 
L 2906 4863 
L 3481 4863 
L 3481 0 
L 2906 0 
L 2906 525 
Q 2725 213 2448 61 
Q 2172 -91 1784 -91 
Q 1150 -91 751 415 
Q 353 922 353 1747 
Q 353 2572 751 3078 
Q 1150 3584 1784 3584 
Q 2172 3584 2448 3432 
Q 2725 3281 2906 2969 
z
M 947 1747 
Q 947 1113 1208 752 
Q 1469 391 1925 391 
Q 2381 391 2643 752 
Q 2906 1113 2906 1747 
Q 2906 2381 2643 2742 
Q 2381 3103 1925 3103 
Q 1469 3103 1208 2742 
Q 947 2381 947 1747 
z
" transform="scale(0.015625)"/>
          <path id="DejaVuSans-65" d="M 3597 1894 
L 3597 1613 
L 953 1613 
Q 991 1019 1311 708 
Q 1631 397 2203 397 
Q 2534 397 2845 478 
Q 3156 559 3463 722 
L 3463 178 
Q 3153 47 2828 -22 
Q 2503 -91 2169 -91 
Q 1331 -91 842 396 
Q 353 884 353 1716 
Q 353 2575 817 3079 
Q 1281 3584 2069 3584 
Q 2775 3584 3186 3129 
Q 3597 2675 3597 1894 
z
M 3022 2063 
Q 3016 2534 2758 2815 
Q 2500 3097 2075 3097 
Q 1594 3097 1305 2825 
Q 1016 2553 972 2059 
L 3022 2063 
z
" transform="scale(0.015625)"/>
          <path id="DejaVuSans-6d" d="M 3328 2828 
Q 3544 3216 3844 3400 
Q 4144 3584 4550 3584 
Q 5097 3584 5394 3201 
Q 5691 2819 5691 2113 
L 5691 0 
L 5113 0 
L 5113 2094 
Q 5113 2597 4934 2840 
Q 4756 3084 4391 3084 
Q 3944 3084 3684 2787 
Q 3425 2491 3425 1978 
L 3425 0 
L 2847 0 
L 2847 2094 
Q 2847 2600 2669 2842 
Q 2491 3084 2119 3084 
Q 1678 3084 1418 2786 
Q 1159 2488 1159 1978 
L 1159 0 
L 581 0 
L 581 3500 
L 1159 3500 
L 1159 2956 
Q 1356 3278 1631 3431 
Q 1906 3584 2284 3584 
Q 2666 3584 2933 3390 
Q 3200 3197 3328 2828 
z
" transform="scale(0.015625)"/>
          <path id="DejaVuSans-30" d="M 2034 4250 
Q 1547 4250 1301 3770 
Q 1056 3291 1056 2328 
Q 1056 1369 1301 889 
Q 1547 409 2034 409 
Q 2525 409 2770 889 
Q 3016 1369 3016 2328 
Q 3016 3291 2770 3770 
Q 2525 4250 2034 4250 
z
M 2034 4750 
Q 2819 4750 3233 4129 
Q 3647 3509 3647 2328 
Q 3647 1150 3233 529 
Q 2819 -91 2034 -91 
Q 1250 -91 836 529 
Q 422 1150 422 2328 
Q 422 3509 836 4129 
Q 1250 4750 2034 4750 
z
" transform="scale(0.015625)"/>
         </defs>
         <use xlink:href="#DejaVuSans-64"/>
         <use xlink:href="#DejaVuSans-65" x="63.476562"/>
         <use xlink:href="#DejaVuSans-6d" x="125"/>
         <use xlink:href="#DejaVuSans-65" x="222.412109"/>
         <use xlink:href="#DejaVuSans-30" x="283.935547"/>
        </g>
       </g>
      </g>
      <g id="xtick_2">
       <g id="line2d_2"/>
       <g id="text_2">
        <!-- deme1 -->
        <g transform="translate(449.612619 329.120312) scale(0.1 -0.1)">
         <defs>
          <path id="DejaVuSans-31" d="M 794 531 
L 1825 531 
L 1825 4091 
L 703 3866 
L 703 4441 
L 1819 4666 
L 2450 4666 
L 2450 531 
L 3481 531 
L 3481 0 
L 794 0 
L 794 531 
z
" transform="scale(0.015625)"/>
         </defs>
         <use xlink:href="#DejaVuSans-64"/>
         <use xlink:href="#DejaVuSans-65" x="63.476562"/>
         <use xlink:href="#DejaVuSans-6d" x="125"/>
         <use xlink:href="#DejaVuSans-65" x="222.412109"/>
         <use xlink:href="#DejaVuSans-31" x="283.935547"/>
        </g>
       </g>
      </g>
     </g>
     <g id="matplotlib.axis_2">
      <g id="ytick_1">
       <g id="line2d_3">
        <defs>
         <path id="m50cc96321b" d="M 0 0 
L -3.5 0 
" style="stroke: #000000; stroke-width: 0.8"/>
        </defs>
        <g>
         <use xlink:href="#m50cc96321b" x="43.78125" y="318.021875" style="stroke: #000000; stroke-width: 0.8"/>
        </g>
       </g>
       <g id="text_3">
        <!-- 0.0 -->
        <g transform="translate(20.878125 321.821094) scale(0.1 -0.1)">
         <defs>
          <path id="DejaVuSans-2e" d="M 684 794 
L 1344 794 
L 1344 0 
L 684 0 
L 684 794 
z
" transform="scale(0.015625)"/>
         </defs>
         <use xlink:href="#DejaVuSans-30"/>
         <use xlink:href="#DejaVuSans-2e" x="63.623047"/>
         <use xlink:href="#DejaVuSans-30" x="95.410156"/>
        </g>
       </g>
      </g>
      <g id="ytick_2">
       <g id="line2d_4">
        <g>
         <use xlink:href="#m50cc96321b" x="43.78125" y="258.881125" style="stroke: #000000; stroke-width: 0.8"/>
        </g>
       </g>
       <g id="text_4">
        <!-- 0.5 -->
        <g transform="translate(20.878125 262.680344) scale(0.1 -0.1)">
         <defs>
          <path id="DejaVuSans-35" d="M 691 4666 
L 3169 4666 
L 3169 4134 
L 1269 4134 
L 1269 2991 
Q 1406 3038 1543 3061 
Q 1681 3084 1819 3084 
Q 2600 3084 3056 2656 
Q 3513 2228 3513 1497 
Q 3513 744 3044 326 
Q 2575 -91 1722 -91 
Q 1428 -91 1123 -41 
Q 819 9 494 109 
L 494 744 
Q 775 591 1075 516 
Q 1375 441 1709 441 
Q 2250 441 2565 725 
Q 2881 1009 2881 1497 
Q 2881 1984 2565 2268 
Q 2250 2553 1709 2553 
Q 1456 2553 1204 2497 
Q 953 2441 691 2322 
L 691 4666 
z
" transform="scale(0.015625)"/>
         </defs>
         <use xlink:href="#DejaVuSans-30"/>
         <use xlink:href="#DejaVuSans-2e" x="63.623047"/>
         <use xlink:href="#DejaVuSans-35" x="95.410156"/>
        </g>
       </g>
      </g>
      <g id="ytick_3">
       <g id="line2d_5">
        <g>
         <use xlink:href="#m50cc96321b" x="43.78125" y="199.740375" style="stroke: #000000; stroke-width: 0.8"/>
        </g>
       </g>
       <g id="text_5">
        <!-- 1.0 -->
        <g transform="translate(20.878125 203.539594) scale(0.1 -0.1)">
         <use xlink:href="#DejaVuSans-31"/>
         <use xlink:href="#DejaVuSans-2e" x="63.623047"/>
         <use xlink:href="#DejaVuSans-30" x="95.410156"/>
        </g>
       </g>
      </g>
      <g id="ytick_4">
       <g id="line2d_6">
        <g>
         <use xlink:href="#m50cc96321b" x="43.78125" y="140.599625" style="stroke: #000000; stroke-width: 0.8"/>
        </g>
       </g>
       <g id="text_6">
        <!-- 1.5 -->
        <g transform="translate(20.878125 144.398844) scale(0.1 -0.1)">
         <use xlink:href="#DejaVuSans-31"/>
         <use xlink:href="#DejaVuSans-2e" x="63.623047"/>
         <use xlink:href="#DejaVuSans-35" x="95.410156"/>
        </g>
       </g>
      </g>
      <g id="ytick_5">
       <g id="line2d_7">
        <g>
         <use xlink:href="#m50cc96321b" x="43.78125" y="81.458875" style="stroke: #000000; stroke-width: 0.8"/>
        </g>
       </g>
       <g id="text_7">
        <!-- 2.0 -->
        <g transform="translate(20.878125 85.258094) scale(0.1 -0.1)">
         <defs>
          <path id="DejaVuSans-32" d="M 1228 531 
L 3431 531 
L 3431 0 
L 469 0 
L 469 531 
Q 828 903 1448 1529 
Q 2069 2156 2228 2338 
Q 2531 2678 2651 2914 
Q 2772 3150 2772 3378 
Q 2772 3750 2511 3984 
Q 2250 4219 1831 4219 
Q 1534 4219 1204 4116 
Q 875 4013 500 3803 
L 500 4441 
Q 881 4594 1212 4672 
Q 1544 4750 1819 4750 
Q 2544 4750 2975 4387 
Q 3406 4025 3406 3419 
Q 3406 3131 3298 2873 
Q 3191 2616 2906 2266 
Q 2828 2175 2409 1742 
Q 1991 1309 1228 531 
z
" transform="scale(0.015625)"/>
         </defs>
         <use xlink:href="#DejaVuSans-32"/>
         <use xlink:href="#DejaVuSans-2e" x="63.623047"/>
         <use xlink:href="#DejaVuSans-30" x="95.410156"/>
        </g>
       </g>
      </g>
      <g id="ytick_6">
       <g id="line2d_8">
        <g>
         <use xlink:href="#m50cc96321b" x="43.78125" y="22.318125" style="stroke: #000000; stroke-width: 0.8"/>
        </g>
       </g>
       <g id="text_8">
        <!-- 2.5 -->
        <g transform="translate(20.878125 26.117344) scale(0.1 -0.1)">
         <use xlink:href="#DejaVuSans-32"/>
         <use xlink:href="#DejaVuSans-2e" x="63.623047"/>
         <use xlink:href="#DejaVuSans-35" x="95.410156"/>
        </g>
       </g>
      </g>
      <g id="text_9">
       <!-- time ago (generations) -->
       <g transform="translate(14.798438 227.641094) rotate(-90) scale(0.1 -0.1)">
        <defs>
         <path id="DejaVuSans-74" d="M 1172 4494 
L 1172 3500 
L 2356 3500 
L 2356 3053 
L 1172 3053 
L 1172 1153 
Q 1172 725 1289 603 
Q 1406 481 1766 481 
L 2356 481 
L 2356 0 
L 1766 0 
Q 1100 0 847 248 
Q 594 497 594 1153 
L 594 3053 
L 172 3053 
L 172 3500 
L 594 3500 
L 594 4494 
L 1172 4494 
z
" transform="scale(0.015625)"/>
         <path id="DejaVuSans-69" d="M 603 3500 
L 1178 3500 
L 1178 0 
L 603 0 
L 603 3500 
z
M 603 4863 
L 1178 4863 
L 1178 4134 
L 603 4134 
L 603 4863 
z
" transform="scale(0.015625)"/>
         <path id="DejaVuSans-20" transform="scale(0.015625)"/>
         <path id="DejaVuSans-61" d="M 2194 1759 
Q 1497 1759 1228 1600 
Q 959 1441 959 1056 
Q 959 750 1161 570 
Q 1363 391 1709 391 
Q 2188 391 2477 730 
Q 2766 1069 2766 1631 
L 2766 1759 
L 2194 1759 
z
M 3341 1997 
L 3341 0 
L 2766 0 
L 2766 531 
Q 2569 213 2275 61 
Q 1981 -91 1556 -91 
Q 1019 -91 701 211 
Q 384 513 384 1019 
Q 384 1609 779 1909 
Q 1175 2209 1959 2209 
L 2766 2209 
L 2766 2266 
Q 2766 2663 2505 2880 
Q 2244 3097 1772 3097 
Q 1472 3097 1187 3025 
Q 903 2953 641 2809 
L 641 3341 
Q 956 3463 1253 3523 
Q 1550 3584 1831 3584 
Q 2591 3584 2966 3190 
Q 3341 2797 3341 1997 
z
" transform="scale(0.015625)"/>
         <path id="DejaVuSans-67" d="M 2906 1791 
Q 2906 2416 2648 2759 
Q 2391 3103 1925 3103 
Q 1463 3103 1205 2759 
Q 947 2416 947 1791 
Q 947 1169 1205 825 
Q 1463 481 1925 481 
Q 2391 481 2648 825 
Q 2906 1169 2906 1791 
z
M 3481 434 
Q 3481 -459 3084 -895 
Q 2688 -1331 1869 -1331 
Q 1566 -1331 1297 -1286 
Q 1028 -1241 775 -1147 
L 775 -588 
Q 1028 -725 1275 -790 
Q 1522 -856 1778 -856 
Q 2344 -856 2625 -561 
Q 2906 -266 2906 331 
L 2906 616 
Q 2728 306 2450 153 
Q 2172 0 1784 0 
Q 1141 0 747 490 
Q 353 981 353 1791 
Q 353 2603 747 3093 
Q 1141 3584 1784 3584 
Q 2172 3584 2450 3431 
Q 2728 3278 2906 2969 
L 2906 3500 
L 3481 3500 
L 3481 434 
z
" transform="scale(0.015625)"/>
         <path id="DejaVuSans-6f" d="M 1959 3097 
Q 1497 3097 1228 2736 
Q 959 2375 959 1747 
Q 959 1119 1226 758 
Q 1494 397 1959 397 
Q 2419 397 2687 759 
Q 2956 1122 2956 1747 
Q 2956 2369 2687 2733 
Q 2419 3097 1959 3097 
z
M 1959 3584 
Q 2709 3584 3137 3096 
Q 3566 2609 3566 1747 
Q 3566 888 3137 398 
Q 2709 -91 1959 -91 
Q 1206 -91 779 398 
Q 353 888 353 1747 
Q 353 2609 779 3096 
Q 1206 3584 1959 3584 
z
" transform="scale(0.015625)"/>
         <path id="DejaVuSans-28" d="M 1984 4856 
Q 1566 4138 1362 3434 
Q 1159 2731 1159 2009 
Q 1159 1288 1364 580 
Q 1569 -128 1984 -844 
L 1484 -844 
Q 1016 -109 783 600 
Q 550 1309 550 2009 
Q 550 2706 781 3412 
Q 1013 4119 1484 4856 
L 1984 4856 
z
" transform="scale(0.015625)"/>
         <path id="DejaVuSans-6e" d="M 3513 2113 
L 3513 0 
L 2938 0 
L 2938 2094 
Q 2938 2591 2744 2837 
Q 2550 3084 2163 3084 
Q 1697 3084 1428 2787 
Q 1159 2491 1159 1978 
L 1159 0 
L 581 0 
L 581 3500 
L 1159 3500 
L 1159 2956 
Q 1366 3272 1645 3428 
Q 1925 3584 2291 3584 
Q 2894 3584 3203 3211 
Q 3513 2838 3513 2113 
z
" transform="scale(0.015625)"/>
         <path id="DejaVuSans-72" d="M 2631 2963 
Q 2534 3019 2420 3045 
Q 2306 3072 2169 3072 
Q 1681 3072 1420 2755 
Q 1159 2438 1159 1844 
L 1159 0 
L 581 0 
L 581 3500 
L 1159 3500 
L 1159 2956 
Q 1341 3275 1631 3429 
Q 1922 3584 2338 3584 
Q 2397 3584 2469 3576 
Q 2541 3569 2628 3553 
L 2631 2963 
z
" transform="scale(0.015625)"/>
         <path id="DejaVuSans-73" d="M 2834 3397 
L 2834 2853 
Q 2591 2978 2328 3040 
Q 2066 3103 1784 3103 
Q 1356 3103 1142 2972 
Q 928 2841 928 2578 
Q 928 2378 1081 2264 
Q 1234 2150 1697 2047 
L 1894 2003 
Q 2506 1872 2764 1633 
Q 3022 1394 3022 966 
Q 3022 478 2636 193 
Q 2250 -91 1575 -91 
Q 1294 -91 989 -36 
Q 684 19 347 128 
L 347 722 
Q 666 556 975 473 
Q 1284 391 1588 391 
Q 1994 391 2212 530 
Q 2431 669 2431 922 
Q 2431 1156 2273 1281 
Q 2116 1406 1581 1522 
L 1381 1569 
Q 847 1681 609 1914 
Q 372 2147 372 2553 
Q 372 3047 722 3315 
Q 1072 3584 1716 3584 
Q 2034 3584 2315 3537 
Q 2597 3491 2834 3397 
z
" transform="scale(0.015625)"/>
         <path id="DejaVuSans-29" d="M 513 4856 
L 1013 4856 
Q 1481 4119 1714 3412 
Q 1947 2706 1947 2009 
Q 1947 1309 1714 600 
Q 1481 -109 1013 -844 
L 513 -844 
Q 928 -128 1133 580 
Q 1338 1288 1338 2009 
Q 1338 2731 1133 3434 
Q 928 4138 513 4856 
z
" transform="scale(0.015625)"/>
        </defs>
        <use xlink:href="#DejaVuSans-74"/>
        <use xlink:href="#DejaVuSans-69" x="39.208984"/>
        <use xlink:href="#DejaVuSans-6d" x="66.992188"/>
        <use xlink:href="#DejaVuSans-65" x="164.404297"/>
        <use xlink:href="#DejaVuSans-20" x="225.927734"/>
        <use xlink:href="#DejaVuSans-61" x="257.714844"/>
        <use xlink:href="#DejaVuSans-67" x="318.994141"/>
        <use xlink:href="#DejaVuSans-6f" x="382.470703"/>
        <use xlink:href="#DejaVuSans-20" x="443.652344"/>
        <use xlink:href="#DejaVuSans-28" x="475.439453"/>
        <use xlink:href="#DejaVuSans-67" x="514.453125"/>
        <use xlink:href="#DejaVuSans-65" x="577.929688"/>
        <use xlink:href="#DejaVuSans-6e" x="639.453125"/>
        <use xlink:href="#DejaVuSans-65" x="702.832031"/>
        <use xlink:href="#DejaVuSans-72" x="764.355469"/>
        <use xlink:href="#DejaVuSans-61" x="805.46875"/>
        <use xlink:href="#DejaVuSans-74" x="866.748047"/>
        <use xlink:href="#DejaVuSans-69" x="905.957031"/>
        <use xlink:href="#DejaVuSans-6f" x="933.740234"/>
        <use xlink:href="#DejaVuSans-6e" x="994.921875"/>
        <use xlink:href="#DejaVuSans-73" x="1058.300781"/>
        <use xlink:href="#DejaVuSans-29" x="1110.400391"/>
       </g>
      </g>
     </g>
     <path d="M 289.077717 156.252891 
L 291.077717 157.252891 
L 291.077717 155.252891 
z
" clip-path="url(#pffd373ad1b)" style="fill: #ff7f0e; fill-opacity: 0.5; stroke: #ff7f0e; stroke-opacity: 0.5; stroke-linejoin: miter"/>
     <path d="M 289.077717 123.659679 
L 291.077717 124.659679 
L 291.077717 122.659679 
z
" clip-path="url(#pffd373ad1b)" style="fill: #ff7f0e; fill-opacity: 0.5; stroke: #ff7f0e; stroke-opacity: 0.5; stroke-linejoin: miter"/>
     <path d="M 289.077717 87.410245 
L 291.077717 88.410245 
L 291.077717 86.410245 
z
" clip-path="url(#pffd373ad1b)" style="fill: #ff7f0e; fill-opacity: 0.5; stroke: #ff7f0e; stroke-opacity: 0.5; stroke-linejoin: miter"/>
     <path d="M 289.077717 113.563556 
L 291.077717 114.563556 
L 291.077717 112.563556 
z
" clip-path="url(#pffd373ad1b)" style="fill: #ff7f0e; fill-opacity: 0.5; stroke: #ff7f0e; stroke-opacity: 0.5; stroke-linejoin: miter"/>
     <path d="M 289.077717 89.346694 
L 291.077717 90.346694 
L 291.077717 88.346694 
z
" clip-path="url(#pffd373ad1b)" style="fill: #ff7f0e; fill-opacity: 0.5; stroke: #ff7f0e; stroke-opacity: 0.5; stroke-linejoin: miter"/>
     <path d="M 289.077717 167.686226 
L 291.077717 168.686226 
L 291.077717 166.686226 
z
" clip-path="url(#pffd373ad1b)" style="fill: #ff7f0e; fill-opacity: 0.5; stroke: #ff7f0e; stroke-opacity: 0.5; stroke-linejoin: miter"/>
     <path d="M 289.077717 127.988556 
L 291.077717 128.988556 
L 291.077717 126.988556 
z
" clip-path="url(#pffd373ad1b)" style="fill: #ff7f0e; fill-opacity: 0.5; stroke: #ff7f0e; stroke-opacity: 0.5; stroke-linejoin: miter"/>
     <path d="M 289.077717 111.357945 
L 291.077717 112.357945 
L 291.077717 110.357945 
z
" clip-path="url(#pffd373ad1b)" style="fill: #ff7f0e; fill-opacity: 0.5; stroke: #ff7f0e; stroke-opacity: 0.5; stroke-linejoin: miter"/>
     <path d="M 289.077717 166.28819 
L 291.077717 167.28819 
L 291.077717 165.28819 
z
" clip-path="url(#pffd373ad1b)" style="fill: #ff7f0e; fill-opacity: 0.5; stroke: #ff7f0e; stroke-opacity: 0.5; stroke-linejoin: miter"/>
     <path d="M 289.077717 193.68341 
L 291.077717 194.68341 
L 291.077717 192.68341 
z
" clip-path="url(#pffd373ad1b)" style="fill: #ff7f0e; fill-opacity: 0.5; stroke: #ff7f0e; stroke-opacity: 0.5; stroke-linejoin: miter"/>
     <path d="M 354.703533 185.300852 
L 352.703533 184.300852 
L 352.703533 186.300852 
z
" clip-path="url(#pffd373ad1b)" style="fill: #1f77b4; fill-opacity: 0.5; stroke: #1f77b4; stroke-opacity: 0.5; stroke-linejoin: miter"/>
     <path d="M 354.703533 150.831719 
L 352.703533 149.831719 
L 352.703533 151.831719 
z
" clip-path="url(#pffd373ad1b)" style="fill: #1f77b4; fill-opacity: 0.5; stroke: #1f77b4; stroke-opacity: 0.5; stroke-linejoin: miter"/>
     <path d="M 354.703533 196.544822 
L 352.703533 195.544822 
L 352.703533 197.544822 
z
" clip-path="url(#pffd373ad1b)" style="fill: #1f77b4; fill-opacity: 0.5; stroke: #1f77b4; stroke-opacity: 0.5; stroke-linejoin: miter"/>
     <path d="M 354.703533 83.862504 
L 352.703533 82.862504 
L 352.703533 84.862504 
z
" clip-path="url(#pffd373ad1b)" style="fill: #1f77b4; fill-opacity: 0.5; stroke: #1f77b4; stroke-opacity: 0.5; stroke-linejoin: miter"/>
     <path d="M 354.703533 159.941828 
L 352.703533 158.941828 
L 352.703533 160.941828 
z
" clip-path="url(#pffd373ad1b)" style="fill: #1f77b4; fill-opacity: 0.5; stroke: #1f77b4; stroke-opacity: 0.5; stroke-linejoin: miter"/>
     <path d="M 354.703533 88.311465 
L 352.703533 87.311465 
L 352.703533 89.311465 
z
" clip-path="url(#pffd373ad1b)" style="fill: #1f77b4; fill-opacity: 0.5; stroke: #1f77b4; stroke-opacity: 0.5; stroke-linejoin: miter"/>
     <path d="M 354.703533 174.355347 
L 352.703533 173.355347 
L 352.703533 175.355347 
z
" clip-path="url(#pffd373ad1b)" style="fill: #1f77b4; fill-opacity: 0.5; stroke: #1f77b4; stroke-opacity: 0.5; stroke-linejoin: miter"/>
     <path d="M 354.703533 131.248408 
L 352.703533 130.248408 
L 352.703533 132.248408 
z
" clip-path="url(#pffd373ad1b)" style="fill: #1f77b4; fill-opacity: 0.5; stroke: #1f77b4; stroke-opacity: 0.5; stroke-linejoin: miter"/>
     <path d="M 354.703533 179.908114 
L 352.703533 178.908114 
L 352.703533 180.908114 
z
" clip-path="url(#pffd373ad1b)" style="fill: #1f77b4; fill-opacity: 0.5; stroke: #1f77b4; stroke-opacity: 0.5; stroke-linejoin: miter"/>
     <path d="M 354.703533 109.784569 
L 352.703533 108.784569 
L 352.703533 110.784569 
z
" clip-path="url(#pffd373ad1b)" style="fill: #1f77b4; fill-opacity: 0.5; stroke: #1f77b4; stroke-opacity: 0.5; stroke-linejoin: miter"/>
     <path d="M 289.077717 294.780824 
L 291.077717 295.780824 
L 291.077717 293.780824 
z
" clip-path="url(#pffd373ad1b)" style="fill: #ff7f0e; fill-opacity: 0.5; stroke: #ff7f0e; stroke-opacity: 0.5; stroke-linejoin: miter"/>
     <path d="M 289.077717 282.742005 
L 291.077717 283.742005 
L 291.077717 281.742005 
z
" clip-path="url(#pffd373ad1b)" style="fill: #ff7f0e; fill-opacity: 0.5; stroke: #ff7f0e; stroke-opacity: 0.5; stroke-linejoin: miter"/>
     <path d="M 289.077717 295.042827 
L 291.077717 296.042827 
L 291.077717 294.042827 
z
" clip-path="url(#pffd373ad1b)" style="fill: #ff7f0e; fill-opacity: 0.5; stroke: #ff7f0e; stroke-opacity: 0.5; stroke-linejoin: miter"/>
     <path d="M 289.077717 280.343754 
L 291.077717 281.343754 
L 291.077717 279.343754 
z
" clip-path="url(#pffd373ad1b)" style="fill: #ff7f0e; fill-opacity: 0.5; stroke: #ff7f0e; stroke-opacity: 0.5; stroke-linejoin: miter"/>
     <path d="M 289.077717 216.672276 
L 291.077717 217.672276 
L 291.077717 215.672276 
z
" clip-path="url(#pffd373ad1b)" style="fill: #ff7f0e; fill-opacity: 0.5; stroke: #ff7f0e; stroke-opacity: 0.5; stroke-linejoin: miter"/>
     <path d="M 289.077717 315.841794 
L 291.077717 316.841794 
L 291.077717 314.841794 
z
" clip-path="url(#pffd373ad1b)" style="fill: #ff7f0e; fill-opacity: 0.5; stroke: #ff7f0e; stroke-opacity: 0.5; stroke-linejoin: miter"/>
     <path d="M 289.077717 297.411196 
L 291.077717 298.411196 
L 291.077717 296.411196 
z
" clip-path="url(#pffd373ad1b)" style="fill: #ff7f0e; fill-opacity: 0.5; stroke: #ff7f0e; stroke-opacity: 0.5; stroke-linejoin: miter"/>
     <path d="M 289.077717 307.31194 
L 291.077717 308.31194 
L 291.077717 306.31194 
z
" clip-path="url(#pffd373ad1b)" style="fill: #ff7f0e; fill-opacity: 0.5; stroke: #ff7f0e; stroke-opacity: 0.5; stroke-linejoin: miter"/>
     <path d="M 289.077717 292.30211 
L 291.077717 293.30211 
L 291.077717 291.30211 
z
" clip-path="url(#pffd373ad1b)" style="fill: #ff7f0e; fill-opacity: 0.5; stroke: #ff7f0e; stroke-opacity: 0.5; stroke-linejoin: miter"/>
     <path d="M 289.077717 308.45364 
L 291.077717 309.45364 
L 291.077717 307.45364 
z
" clip-path="url(#pffd373ad1b)" style="fill: #ff7f0e; fill-opacity: 0.5; stroke: #ff7f0e; stroke-opacity: 0.5; stroke-linejoin: miter"/>
     <path d="M 354.703533 277.327584 
L 352.703533 276.327584 
L 352.703533 278.327584 
z
" clip-path="url(#pffd373ad1b)" style="fill: #1f77b4; fill-opacity: 0.5; stroke: #1f77b4; stroke-opacity: 0.5; stroke-linejoin: miter"/>
     <path d="M 354.703533 265.998603 
L 352.703533 264.998603 
L 352.703533 266.998603 
z
" clip-path="url(#pffd373ad1b)" style="fill: #1f77b4; fill-opacity: 0.5; stroke: #1f77b4; stroke-opacity: 0.5; stroke-linejoin: miter"/>
     <path d="M 354.703533 249.48484 
L 352.703533 248.48484 
L 352.703533 250.48484 
z
" clip-path="url(#pffd373ad1b)" style="fill: #1f77b4; fill-opacity: 0.5; stroke: #1f77b4; stroke-opacity: 0.5; stroke-linejoin: miter"/>
     <path d="M 354.703533 237.965956 
L 352.703533 236.965956 
L 352.703533 238.965956 
z
" clip-path="url(#pffd373ad1b)" style="fill: #1f77b4; fill-opacity: 0.5; stroke: #1f77b4; stroke-opacity: 0.5; stroke-linejoin: miter"/>
     <path d="M 354.703533 304.301329 
L 352.703533 303.301329 
L 352.703533 305.301329 
z
" clip-path="url(#pffd373ad1b)" style="fill: #1f77b4; fill-opacity: 0.5; stroke: #1f77b4; stroke-opacity: 0.5; stroke-linejoin: miter"/>
     <path d="M 354.703533 260.138455 
L 352.703533 259.138455 
L 352.703533 261.138455 
z
" clip-path="url(#pffd373ad1b)" style="fill: #1f77b4; fill-opacity: 0.5; stroke: #1f77b4; stroke-opacity: 0.5; stroke-linejoin: miter"/>
     <path d="M 354.703533 270.963038 
L 352.703533 269.963038 
L 352.703533 271.963038 
z
" clip-path="url(#pffd373ad1b)" style="fill: #1f77b4; fill-opacity: 0.5; stroke: #1f77b4; stroke-opacity: 0.5; stroke-linejoin: miter"/>
     <path d="M 354.703533 240.502602 
L 352.703533 239.502602 
L 352.703533 241.502602 
z
" clip-path="url(#pffd373ad1b)" style="fill: #1f77b4; fill-opacity: 0.5; stroke: #1f77b4; stroke-opacity: 0.5; stroke-linejoin: miter"/>
     <path d="M 354.703533 220.803309 
L 352.703533 219.803309 
L 352.703533 221.803309 
z
" clip-path="url(#pffd373ad1b)" style="fill: #1f77b4; fill-opacity: 0.5; stroke: #1f77b4; stroke-opacity: 0.5; stroke-linejoin: miter"/>
     <path d="M 354.703533 237.163492 
L 352.703533 236.163492 
L 352.703533 238.163492 
z
" clip-path="url(#pffd373ad1b)" style="fill: #1f77b4; fill-opacity: 0.5; stroke: #1f77b4; stroke-opacity: 0.5; stroke-linejoin: miter"/>
     <g id="patch_5">
      <path d="M 43.78125 318.021875 
L 43.78125 22.318125 
" style="fill: none; stroke: #000000; stroke-width: 0.8; stroke-linejoin: miter; stroke-linecap: square"/>
     </g>
     <g id="text_10">
      <!-- defaults_symmetric_migration_changing_rate.yaml -->
      <g transform="translate(168.3525 16.318125) scale(0.12 -0.12)">
       <defs>
        <path id="DejaVuSans-66" d="M 2375 4863 
L 2375 4384 
L 1825 4384 
Q 1516 4384 1395 4259 
Q 1275 4134 1275 3809 
L 1275 3500 
L 2222 3500 
L 2222 3053 
L 1275 3053 
L 1275 0 
L 697 0 
L 697 3053 
L 147 3053 
L 147 3500 
L 697 3500 
L 697 3744 
Q 697 4328 969 4595 
Q 1241 4863 1831 4863 
L 2375 4863 
z
" transform="scale(0.015625)"/>
        <path id="DejaVuSans-75" d="M 544 1381 
L 544 3500 
L 1119 3500 
L 1119 1403 
Q 1119 906 1312 657 
Q 1506 409 1894 409 
Q 2359 409 2629 706 
Q 2900 1003 2900 1516 
L 2900 3500 
L 3475 3500 
L 3475 0 
L 2900 0 
L 2900 538 
Q 2691 219 2414 64 
Q 2138 -91 1772 -91 
Q 1169 -91 856 284 
Q 544 659 544 1381 
z
M 1991 3584 
L 1991 3584 
z
" transform="scale(0.015625)"/>
        <path id="DejaVuSans-6c" d="M 603 4863 
L 1178 4863 
L 1178 0 
L 603 0 
L 603 4863 
z
" transform="scale(0.015625)"/>
        <path id="DejaVuSans-5f" d="M 3263 -1063 
L 3263 -1509 
L -63 -1509 
L -63 -1063 
L 3263 -1063 
z
" transform="scale(0.015625)"/>
        <path id="DejaVuSans-79" d="M 2059 -325 
Q 1816 -950 1584 -1140 
Q 1353 -1331 966 -1331 
L 506 -1331 
L 506 -850 
L 844 -850 
Q 1081 -850 1212 -737 
Q 1344 -625 1503 -206 
L 1606 56 
L 191 3500 
L 800 3500 
L 1894 763 
L 2988 3500 
L 3597 3500 
L 2059 -325 
z
" transform="scale(0.015625)"/>
        <path id="DejaVuSans-63" d="M 3122 3366 
L 3122 2828 
Q 2878 2963 2633 3030 
Q 2388 3097 2138 3097 
Q 1578 3097 1268 2742 
Q 959 2388 959 1747 
Q 959 1106 1268 751 
Q 1578 397 2138 397 
Q 2388 397 2633 464 
Q 2878 531 3122 666 
L 3122 134 
Q 2881 22 2623 -34 
Q 2366 -91 2075 -91 
Q 1284 -91 818 406 
Q 353 903 353 1747 
Q 353 2603 823 3093 
Q 1294 3584 2113 3584 
Q 2378 3584 2631 3529 
Q 2884 3475 3122 3366 
z
" transform="scale(0.015625)"/>
        <path id="DejaVuSans-68" d="M 3513 2113 
L 3513 0 
L 2938 0 
L 2938 2094 
Q 2938 2591 2744 2837 
Q 2550 3084 2163 3084 
Q 1697 3084 1428 2787 
Q 1159 2491 1159 1978 
L 1159 0 
L 581 0 
L 581 4863 
L 1159 4863 
L 1159 2956 
Q 1366 3272 1645 3428 
Q 1925 3584 2291 3584 
Q 2894 3584 3203 3211 
Q 3513 2838 3513 2113 
z
" transform="scale(0.015625)"/>
       </defs>
       <use xlink:href="#DejaVuSans-64"/>
       <use xlink:href="#DejaVuSans-65" x="63.476562"/>
       <use xlink:href="#DejaVuSans-66" x="125"/>
       <use xlink:href="#DejaVuSans-61" x="160.205078"/>
       <use xlink:href="#DejaVuSans-75" x="221.484375"/>
       <use xlink:href="#DejaVuSans-6c" x="284.863281"/>
       <use xlink:href="#DejaVuSans-74" x="312.646484"/>
       <use xlink:href="#DejaVuSans-73" x="351.855469"/>
       <use xlink:href="#DejaVuSans-5f" x="403.955078"/>
       <use xlink:href="#DejaVuSans-73" x="453.955078"/>
       <use xlink:href="#DejaVuSans-79" x="506.054688"/>
       <use xlink:href="#DejaVuSans-6d" x="565.234375"/>
       <use xlink:href="#DejaVuSans-6d" x="662.646484"/>
       <use xlink:href="#DejaVuSans-65" x="760.058594"/>
       <use xlink:href="#DejaVuSans-74" x="821.582031"/>
       <use xlink:href="#DejaVuSans-72" x="860.791016"/>
       <use xlink:href="#DejaVuSans-69" x="901.904297"/>
       <use xlink:href="#DejaVuSans-63" x="929.6875"/>
       <use xlink:href="#DejaVuSans-5f" x="984.667969"/>
       <use xlink:href="#DejaVuSans-6d" x="1034.667969"/>
       <use xlink:href="#DejaVuSans-69" x="1132.080078"/>
       <use xlink:href="#DejaVuSans-67" x="1159.863281"/>
       <use xlink:href="#DejaVuSans-72" x="1223.339844"/>
       <use xlink:href="#DejaVuSans-61" x="1264.453125"/>
       <use xlink:href="#DejaVuSans-74" x="1325.732422"/>
       <use xlink:href="#DejaVuSans-69" x="1364.941406"/>
       <use xlink:href="#DejaVuSans-6f" x="1392.724609"/>
       <use xlink:href="#DejaVuSans-6e" x="1453.90625"/>
       <use xlink:href="#DejaVuSans-5f" x="1517.285156"/>
       <use xlink:href="#DejaVuSans-63" x="1567.285156"/>
       <use xlink:href="#DejaVuSans-68" x="1622.265625"/>
       <use xlink:href="#DejaVuSans-61" x="1685.644531"/>
       <use xlink:href="#DejaVuSans-6e" x="1746.923828"/>
       <use xlink:href="#DejaVuSans-67" x="1810.302734"/>
       <use xlink:href="#DejaVuSans-69" x="1873.779297"/>
       <use xlink:href="#DejaVuSans-6e" x="1901.5625"/>
       <use xlink:href="#DejaVuSans-67" x="1964.941406"/>
       <use xlink:href="#DejaVuSans-5f" x="2028.417969"/>
       <use xlink:href="#DejaVuSans-72" x="2078.417969"/>
       <use xlink:href="#DejaVuSans-61" x="2119.53125"/>
       <use xlink:href="#DejaVuSans-74" x="2180.810547"/>
       <use xlink:href="#DejaVuSans-65" x="2220.019531"/>
       <use xlink:href="#DejaVuSans-2e" x="2281.542969"/>
       <use xlink:href="#DejaVuSans-79" x="2313.330078"/>
       <use xlink:href="#DejaVuSans-61" x="2372.509766"/>
       <use xlink:href="#DejaVuSans-6d" x="2433.789062"/>
       <use xlink:href="#DejaVuSans-6c" x="2531.201172"/>
      </g>
     </g>
    </g>
   </g>
   <defs>
    <clipPath id="pffd373ad1b">
     <rect x="43.78125" y="22.318125" width="556.21875" height="295.70375"/>
    </clipPath>
   </defs>
  </g>
 </g>
</svg>