<?xml version="1.0" encoding="utf-8" standalone="no"?>
<!DOCTYPE svg PUBLIC "-//W3C//DTD SVG 1.1//EN"
  "http://www.w3.org/Graphics/SVG/1.1/DTD/svg11.dtd">
<svg xmlns:xlink="http://www.w3.org/1999/xlink" width="607.2pt" height="338.4pt" viewBox="0 0 607.2 338.4" xmlns="http://www.w3.org/2000/svg" version="1.1">
 <metadata>
  <rdf:RDF xmlns:dc="http://purl.org/dc/elements/1.1/" xmlns:cc="http://creativecommons.org/ns#" xmlns:rdf="http://www.w3.org/1999/02/22-rdf-syntax-ns#">
   <cc:Work>
    <dc:type rdf:resource="http://purl.org/dc/dcmitype/StillImage"/>
    <dc:date>2025-10-02T12:07:04.104021</dc:date>
    <dc:format>image/svg+xml</dc:format>
    <dc:creator>
     <cc:Agent>
      <dc:title>Matplotlib v3.7.1, https://matplotlib.org/</dc:title>
     </cc:Agent>
    </dc:creator>
   </cc:Work>
  </rdf:RDF>
 </metadata>
 <defs>
  <style type="text/css">*{stroke-linejoin: round; stroke-linecap: butt}</style>
 </defs>
 <g id="figure_1">
  <g id="patch_1">
   <path d="M 0 338.4 
L 607.2 338.4 
L 607.2 0 
L 0 0 
z
" style="fill: #ffffff"/>
  </g>
  <g id="axes_1">
   <g id="patch_2">
    <path d="M 53.328125 318.021875 
L 600 318.021875 
L 600 7.2 
L 53.328125 7.2 
z
" style="fill: #ffffff"/>
   </g>
   <g id="patch_3">
    <path d="M 108.816374 7.2 
L 108.816374 69.364375 
M 169.352957 7.2 
L 169.352957 69.364375 
" clip-path="url(#p8ea5844b57)" style="fill: none; stroke: #ffffff; stroke-width: 3; stroke-linejoin: miter"/>
    <path d="M 108.816374 7.2 
L 108.816374 69.364375 
M 169.352957 7.2 
L 169.352957 69.364375 
" clip-path="url(#p8ea5844b57)" style="fill: none; stroke: #1f77b4; stroke-linejoin: miter"/>
    <g id="PolyCollection_1">
     <path d="M 169.352957 7.2 
L 108.816374 7.2 
L 108.816374 69.364375 
L 169.352957 69.364375 
L 169.352957 69.364375 
L 169.352957 7.2 
z
" clip-path="url(#p8ea5844b57)" style="fill: #1f77b4; fill-opacity: 0.5"/>
    </g>
    <g id="patch_4">
     <path d="M 296.395772 7.2 
L 296.395772 69.364375 
M 356.932354 7.2 
L 356.932354 69.364375 
" clip-path="url(#p8ea5844b57)" style="fill: none; stroke: #ffffff; stroke-width: 3; stroke-linejoin: miter"/>
     <path d="M 296.395772 7.2 
L 296.395772 69.364375 
M 356.932354 7.2 
L 356.932354 69.364375 
" clip-path="url(#p8ea5844b57)" style="fill: none; stroke: #ff7f0e; stroke-linejoin: miter"/>
     <g id="PolyCollection_2">
      <path d="M 356.932354 7.2 
L 296.395772 7.2 
L 296.395772 69.364375 
L 356.932354 69.364375 
L 356.932354 69.364375 
L 356.932354 7.2 
z
" clip-path="url(#p8ea5844b57)" style="fill: #ff7f0e; fill-opacity: 0.5"/>
     </g>
     <g id="patch_5">
      <path d="M 483.975169 7.2 
L 483.975169 69.364375 
M 544.511751 7.2 
L 544.511751 69.364375 
" clip-path="url(#p8ea5844b57)" style="fill: none; stroke: #ffffff; stroke-width: 3; stroke-linejoin: miter"/>
      <path d="M 483.975169 7.2 
L 483.975169 69.364375 
M 544.511751 7.2 
L 544.511751 69.364375 
" clip-path="url(#p8ea5844b57)" style="fill: none; stroke: #2ca02c; stroke-linejoin: miter"/>
      <g id="PolyCollection_3">
       <path d="M 544.511751 7.2 
L 483.975169 7.2 
L 483.975169 69.364375 
L 544.511751 69.364375 
L 544.511751 69.364375 
L 544.511751 7.2 
z
" clip-path="url(#p8ea5844b57)" style="fill: #2ca02c; fill-opacity: 0.5"/>
      </g>
      <g id="patch_6">
       <path d="M 78.176847 69.364375 
L 78.176847 318.021875 
M 199.250011 69.364375 
L 199.250011 318.021875 
" clip-path="url(#p8ea5844b57)" style="fill: none; stroke: #ffffff; stroke-width: 3; stroke-linejoin: miter"/>
       <path d="M 78.176847 69.364375 
L 78.176847 318.021875 
M 199.250011 69.364375 
L 199.250011 318.021875 
" clip-path="url(#p8ea5844b57)" style="fill: none; stroke: #d62728; stroke-linejoin: miter"/>
       <g id="PolyCollection_4">
        <path d="M 199.250011 69.364375 
L 78.176847 69.364375 
L 78.176847 318.021875 
L 199.250011 318.021875 
L 199.250011 318.021875 
L 199.250011 69.364375 
z
" clip-path="url(#p8ea5844b57)" style="fill: #d62728; fill-opacity: 0.5"/>
       </g>
       <g id="patch_7">
        <path d="M 266.127481 69.364375 
L 266.127481 318.021875 
M 387.200646 69.364375 
L 387.200646 318.021875 
" clip-path="url(#p8ea5844b57)" style="fill: none; stroke: #ffffff; stroke-width: 3; stroke-linejoin: miter"/>
        <path d="M 266.127481 69.364375 
L 266.127481 318.021875 
M 387.200646 69.364375 
L 387.200646 318.021875 
" clip-path="url(#p8ea5844b57)" style="fill: none; stroke: #9467bd; stroke-linejoin: miter"/>
        <g id="PolyCollection_5">
         <path d="M 387.200646 69.364375 
L 266.127481 69.364375 
L 266.127481 318.021875 
L 387.200646 318.021875 
L 387.200646 318.021875 
L 387.200646 69.364375 
z
" clip-path="url(#p8ea5844b57)" style="fill: #9467bd; fill-opacity: 0.5"/>
        </g>
        <g id="patch_8">
         <path d="M 454.078114 69.364375 
L 454.078114 318.021875 
M 575.151278 69.364375 
L 575.151278 318.021875 
" clip-path="url(#p8ea5844b57)" style="fill: none; stroke: #ffffff; stroke-width: 3; stroke-linejoin: miter"/>
         <path d="M 454.078114 69.364375 
L 454.078114 318.021875 
M 575.151278 69.364375 
L 575.151278 318.021875 
" clip-path="url(#p8ea5844b57)" style="fill: none; stroke: #8c564b; stroke-linejoin: miter"/>
         <g id="PolyCollection_6">
          <path d="M 575.151278 69.364375 
L 454.078114 69.364375 
L 454.078114 318.021875 
L 575.151278 318.021875 
L 575.151278 318.021875 
L 575.151278 69.364375 
z
" clip-path="url(#p8ea5844b57)" style="fill: #8c564b; fill-opacity: 0.5"/>
         </g>
         <g id="matplotlib.axis_1">
          <g id="xtick_1">
           <g id="line2d_1"/>
           <g id="text_1">
            <!-- X -->
            <g transform="translate(135.288429 329.120312) scale(0.1 -0.1)">
             <defs>
              <path id="DejaVuSans-58" d="M 403 4666 
L 1081 4666 
L 2241 2931 
L 3406 4666 
L 4084 4666 
L 2584 2425 
L 4184 0 
L 3506 0 
L 2194 1984 
L 872 0 
L 191 0 
L 1856 2491 
L 403 4666 
z
" transform="scale(0.015625)"/>
             </defs>
             <use xlink:href="#DejaVuSans-58"/>
            </g>
           </g>
          </g>
          <g id="xtick_2">
           <g id="line2d_2"/>
           <g id="text_2">
            <!-- Y -->
            <g transform="translate(323.610157 329.120312) scale(0.1 -0.1)">
             <defs>
              <path id="DejaVuSans-59" d="M -13 4666 
L 666 4666 
L 1959 2747 
L 3244 4666 
L 3922 4666 
L 2272 2222 
L 2272 0 
L 1638 0 
L 1638 2222 
L -13 4666 
z
" transform="scale(0.015625)"/>
             </defs>
             <use xlink:href="#DejaVuSans-59"/>
            </g>
           </g>
          </g>
          <g id="xtick_3">
           <g id="line2d_3"/>
           <g id="text_3">
            <!-- Z -->
            <g transform="translate(511.189696 329.120312) scale(0.1 -0.1)">
             <defs>
              <path id="DejaVuSans-5a" d="M 359 4666 
L 4025 4666 
L 4025 4184 
L 1075 531 
L 4097 531 
L 4097 0 
L 288 0 
L 288 481 
L 3238 4134 
L 359 4134 
L 359 4666 
z
" transform="scale(0.015625)"/>
             </defs>
             <use xlink:href="#DejaVuSans-5a"/>
            </g>
           </g>
          </g>
         </g>
         <g id="matplotlib.axis_2">
          <g id="ytick_1">
           <g id="line2d_4">
            <defs>
             <path id="m1b25a00d57" d="M 0 0 
L -3.5 0 
" style="stroke: #000000; stroke-width: 0.8"/>
            </defs>
            <g>
             <use xlink:href="#m1b25a00d57" x="53.328125" y="318.021875" style="stroke: #000000; stroke-width: 0.8"/>
            </g>
           </g>
           <g id="text_4">
            <!-- 0 -->
            <g transform="translate(39.965625 321.821094) scale(0.1 -0.1)">
             <defs>
              <path id="DejaVuSans-30" d="M 2034 4250 
Q 1547 4250 1301 3770 
Q 1056 3291 1056 2328 
Q 1056 1369 1301 889 
Q 1547 409 2034 409 
Q 2525 409 2770 889 
Q 3016 1369 3016 2328 
Q 3016 3291 2770 3770 
Q 2525 4250 2034 4250 
z
M 2034 4750 
Q 2819 4750 3233 4129 
Q 3647 3509 3647 2328 
Q 3647 1150 3233 529 
Q 2819 -91 2034 -91 
Q 1250 -91 836 529 
Q 422 1150 422 2328 
Q 422 3509 836 4129 
Q 1250 4750 2034 4750 
z
" transform="scale(0.015625)"/>
             </defs>
             <use xlink:href="#DejaVuSans-30"/>
            </g>
           </g>
          </g>
          <g id="ytick_2">
           <g id="line2d_5">
            <g>
             <use xlink:href="#m1b25a00d57" x="53.328125" y="268.290375" style="stroke: #000000; stroke-width: 0.8"/>
            </g>
           </g>
           <g id="text_5">
            <!-- 200 -->
            <g transform="translate(27.240625 272.089594) scale(0.1 -0.1)">
             <defs>
              <path id="DejaVuSans-32" d="M 1228 531 
L 3431 531 
L 3431 0 
L 469 0 
L 469 531 
Q 828 903 1448 1529 
Q 2069 2156 2228 2338 
Q 2531 2678 2651 2914 
Q 2772 3150 2772 3378 
Q 2772 3750 2511 3984 
Q 2250 4219 1831 4219 
Q 1534 4219 1204 4116 
Q 875 4013 500 3803 
L 500 4441 
Q 881 4594 1212 4672 
Q 1544 4750 1819 4750 
Q 2544 4750 2975 4387 
Q 3406 4025 3406 3419 
Q 3406 3131 3298 2873 
Q 3191 2616 2906 2266 
Q 2828 2175 2409 1742 
Q 1991 1309 1228 531 
z
" transform="scale(0.015625)"/>
             </defs>
             <use xlink:href="#DejaVuSans-32"/>
             <use xlink:href="#DejaVuSans-30" x="63.623047"/>
             <use xlink:href="#DejaVuSans-30" x="127.246094"/>
            </g>
           </g>
          </g>
          <g id="ytick_3">
           <g id="line2d_6">
            <g>
             <use xlink:href="#m1b25a00d57" x="53.328125" y="218.558875" style="stroke: #000000; stroke-width: 0.8"/>
            </g>
           </g>
           <g id="text_6">
            <!-- 400 -->
            <g transform="translate(27.240625 222.358094) scale(0.1 -0.1)">
             <defs>
              <path id="DejaVuSans-34" d="M 2419 4116 
L 825 1625 
L 2419 1625 
L 2419 4116 
z
M 2253 4666 
L 3047 4666 
L 3047 1625 
L 3713 1625 
L 3713 1100 
L 3047 1100 
L 3047 0 
L 2419 0 
L 2419 1100 
L 313 1100 
L 313 1709 
L 2253 4666 
z
" transform="scale(0.015625)"/>
             </defs>
             <use xlink:href="#DejaVuSans-34"/>
             <use xlink:href="#DejaVuSans-30" x="63.623047"/>
             <use xlink:href="#DejaVuSans-30" x="127.246094"/>
            </g>
           </g>
          </g>
          <g id="ytick_4">
           <g id="line2d_7">
            <g>
             <use xlink:href="#m1b25a00d57" x="53.328125" y="168.827375" style="stroke: #000000; stroke-width: 0.8"/>
            </g>
           </g>
           <g id="text_7">
            <!-- 600 -->
            <g transform="translate(27.240625 172.626594) scale(0.1 -0.1)">
             <defs>
              <path id="DejaVuSans-36" d="M 2113 2584 
Q 1688 2584 1439 2293 
Q 1191 2003 1191 1497 
Q 1191 994 1439 701 
Q 1688 409 2113 409 
Q 2538 409 2786 701 
Q 3034 994 3034 1497 
Q 3034 2003 2786 2293 
Q 2538 2584 2113 2584 
z
M 3366 4563 
L 3366 3988 
Q 3128 4100 2886 4159 
Q 2644 4219 2406 4219 
Q 1781 4219 1451 3797 
Q 1122 3375 1075 2522 
Q 1259 2794 1537 2939 
Q 1816 3084 2150 3084 
Q 2853 3084 3261 2657 
Q 3669 2231 3669 1497 
Q 3669 778 3244 343 
Q 2819 -91 2113 -91 
Q 1303 -91 875 529 
Q 447 1150 447 2328 
Q 447 3434 972 4092 
Q 1497 4750 2381 4750 
Q 2619 4750 2861 4703 
Q 3103 4656 3366 4563 
z
" transform="scale(0.015625)"/>
             </defs>
             <use xlink:href="#DejaVuSans-36"/>
             <use xlink:href="#DejaVuSans-30" x="63.623047"/>
             <use xlink:href="#DejaVuSans-30" x="127.246094"/>
            </g>
           </g>
          </g>
          <g id="ytick_5">
           <g id="line2d_8">
            <g>
             <use xlink:href="#m1b25a00d57" x="53.328125" y="119.095875" style="stroke: #000000; stroke-width: 0.8"/>
            </g>
           </g>
           <g id="text_8">
            <!-- 800 -->
            <g transform="translate(27.240625 122.895094) scale(0.1 -0.1)">
             <defs>
              <path id="DejaVuSans-38" d="M 2034 2216 
Q 1584 2216 1326 1975 
Q 1069 1734 1069 1313 
Q 1069 891 1326 650 
Q 1584 409 2034 409 
Q 2484 409 2743 651 
Q 3003 894 3003 1313 
Q 3003 1734 2745 1975 
Q 2488 2216 2034 2216 
z
M 1403 2484 
Q 997 2584 770 2862 
Q 544 3141 544 3541 
Q 544 4100 942 4425 
Q 1341 4750 2034 4750 
Q 2731 4750 3128 4425 
Q 3525 4100 3525 3541 
Q 3525 3141 3298 2862 
Q 3072 2584 2669 2484 
Q 3125 2378 3379 2068 
Q 3634 1759 3634 1313 
Q 3634 634 3220 271 
Q 2806 -91 2034 -91 
Q 1263 -91 848 271 
Q 434 634 434 1313 
Q 434 1759 690 2068 
Q 947 2378 1403 2484 
z
M 1172 3481 
Q 1172 3119 1398 2916 
Q 1625 2713 2034 2713 
Q 2441 2713 2670 2916 
Q 2900 3119 2900 3481 
Q 2900 3844 2670 4047 
Q 2441 4250 2034 4250 
Q 1625 4250 1398 4047 
Q 1172 3844 1172 3481 
z
" transform="scale(0.015625)"/>
             </defs>
             <use xlink:href="#DejaVuSans-38"/>
             <use xlink:href="#DejaVuSans-30" x="63.623047"/>
             <use xlink:href="#DejaVuSans-30" x="127.246094"/>
            </g>
           </g>
          </g>
          <g id="ytick_6">
           <g id="line2d_9">
            <g>
             <use xlink:href="#m1b25a00d57" x="53.328125" y="69.364375" style="stroke: #000000; stroke-width: 0.8"/>
            </g>
           </g>
           <g id="text_9">
            <!-- 1000 -->
            <g transform="translate(20.878125 73.163594) scale(0.1 -0.1)">
             <defs>
              <path id="DejaVuSans-31" d="M 794 531 
L 1825 531 
L 1825 4091 
L 703 3866 
L 703 4441 
L 1819 4666 
L 2450 4666 
L 2450 531 
L 3481 531 
L 3481 0 
L 794 0 
L 794 531 
z
" transform="scale(0.015625)"/>
             </defs>
             <use xlink:href="#DejaVuSans-31"/>
             <use xlink:href="#DejaVuSans-30" x="63.623047"/>
             <use xlink:href="#DejaVuSans-30" x="127.246094"/>
             <use xlink:href="#DejaVuSans-30" x="190.869141"/>
            </g>
           </g>
          </g>
          <g id="ytick_7">
           <g id="line2d_10">
            <g>
             <use xlink:href="#m1b25a00d57" x="53.328125" y="19.632875" style="stroke: #000000; stroke-width: 0.8"/>
            </g>
           </g>
           <g id="text_10">
            <!-- 1200 -->
            <g transform="translate(20.878125 23.432094) scale(0.1 -0.1)">
             <use xlink:href="#DejaVuSans-31"/>
             <use xlink:href="#DejaVuSans-32" x="63.623047"/>
             <use xlink:href="#DejaVuSans-30" x="127.246094"/>
             <use xlink:href="#DejaVuSans-30" x="190.869141"/>
            </g>
           </g>
          </g>
          <g id="text_11">
           <!-- time ago (generations) -->
           <g transform="translate(14.798438 220.082031) rotate(-90) scale(0.1 -0.1)">
            <defs>
             <path id="DejaVuSans-74" d="M 1172 4494 
L 1172 3500 
L 2356 3500 
L 2356 3053 
L 1172 3053 
L 1172 1153 
Q 1172 725 1289 603 
Q 1406 481 1766 481 
L 2356 481 
L 2356 0 
L 1766 0 
Q 1100 0 847 248 
Q 594 497 594 1153 
L 594 3053 
L 172 3053 
L 172 3500 
L 594 3500 
L 594 4494 
L 1172 4494 
z
" transform="scale(0.015625)"/>
             <path id="DejaVuSans-69" d="M 603 3500 
L 1178 3500 
L 1178 0 
L 603 0 
L 603 3500 
z
M 603 4863 
L 1178 4863 
L 1178 4134 
L 603 4134 
L 603 4863 
z
" transform="scale(0.015625)"/>
             <path id="DejaVuSans-6d" d="M 3328 2828 
Q 3544 3216 3844 3400 
Q 4144 3584 4550 3584 
Q 5097 3584 5394 3201 
Q 5691 2819 5691 2113 
L 5691 0 
L 5113 0 
L 5113 2094 
Q 5113 2597 4934 2840 
Q 4756 3084 4391 3084 
Q 3944 3084 3684 2787 
Q 3425 2491 3425 1978 
L 3425 0 
L 2847 0 
L 2847 2094 
Q 2847 2600 2669 2842 
Q 2491 3084 2119 3084 
Q 1678 3084 1418 2786 
Q 1159 2488 1159 1978 
L 1159 0 
L 581 0 
L 581 3500 
L 1159 3500 
L 1159 2956 
Q 1356 3278 1631 3431 
Q 1906 3584 2284 3584 
Q 2666 3584 2933 3390 
Q 3200 3197 3328 2828 
z
" transform="scale(0.015625)"/>
             <path id="DejaVuSans-65" d="M 3597 1894 
L 3597 1613 
L 953 1613 
Q 991 1019 1311 708 
Q 1631 397 2203 397 
Q 2534 397 2845 478 
Q 3156 559 3463 722 
L 3463 178 
Q 3153 47 2828 -22 
Q 2503 -91 2169 -91 
Q 1331 -91 842 396 
Q 353 884 353 1716 
Q 353 2575 817 3079 
Q 1281 3584 2069 3584 
Q 2775 3584 3186 3129 
Q 3597 2675 3597 1894 
z
M 3022 2063 
Q 3016 2534 2758 2815 
Q 2500 3097 2075 3097 
Q 1594 3097 1305 2825 
Q 1016 2553 972 2059 
L 3022 2063 
z
" transform="scale(0.015625)"/>
             <path id="DejaVuSans-20" transform="scale(0.015625)"/>
             <path id="DejaVuSans-61" d="M 2194 1759 
Q 1497 1759 1228 1600 
Q 959 1441 959 1056 
Q 959 750 1161 570 
Q 1363 391 1709 391 
Q 2188 391 2477 730 
Q 2766 1069 2766 1631 
L 2766 1759 
L 2194 1759 
z
M 3341 1997 
L 3341 0 
L 2766 0 
L 2766 531 
Q 2569 213 2275 61 
Q 1981 -91 1556 -91 
Q 1019 -91 701 211 
Q 384 513 384 1019 
Q 384 1609 779 1909 
Q 1175 2209 1959 2209 
L 2766 2209 
L 2766 2266 
Q 2766 2663 2505 2880 
Q 2244 3097 1772 3097 
Q 1472 3097 1187 3025 
Q 903 2953 641 2809 
L 641 3341 
Q 956 3463 1253 3523 
Q 1550 3584 1831 3584 
Q 2591 3584 2966 3190 
Q 3341 2797 3341 1997 
z
" transform="scale(0.015625)"/>
             <path id="DejaVuSans-67" d="M 2906 1791 
Q 2906 2416 2648 2759 
Q 2391 3103 1925 3103 
Q 1463 3103 1205 2759 
Q 947 2416 947 1791 
Q 947 1169 1205 825 
Q 1463 481 1925 481 
Q 2391 481 2648 825 
Q 2906 1169 2906 1791 
z
M 3481 434 
Q 3481 -459 3084 -895 
Q 2688 -1331 1869 -1331 
Q 1566 -1331 1297 -1286 
Q 1028 -1241 775 -1147 
L 775 -588 
Q 1028 -725 1275 -790 
Q 1522 -856 1778 -856 
Q 2344 -856 2625 -561 
Q 2906 -266 2906 331 
L 2906 616 
Q 2728 306 2450 153 
Q 2172 0 1784 0 
Q 1141 0 747 490 
Q 353 981 353 1791 
Q 353 2603 747 3093 
Q 1141 3584 1784 3584 
Q 2172 3584 2450 3431 
Q 2728 3278 2906 2969 
L 2906 3500 
L 3481 3500 
L 3481 434 
z
" transform="scale(0.015625)"/>
             <path id="DejaVuSans-6f" d="M 1959 3097 
Q 1497 3097 1228 2736 
Q 959 2375 959 1747 
Q 959 1119 1226 758 
Q 1494 397 1959 397 
Q 2419 397 2687 759 
Q 2956 1122 2956 1747 
Q 2956 2369 2687 2733 
Q 2419 3097 1959 3097 
z
M 1959 3584 
Q 2709 3584 3137 3096 
Q 3566 2609 3566 1747 
Q 3566 888 3137 398 
Q 2709 -91 1959 -91 
Q 1206 -91 779 398 
Q 353 888 353 1747 
Q 353 2609 779 3096 
Q 1206 3584 1959 3584 
z
" transform="scale(0.015625)"/>
             <path id="DejaVuSans-28" d="M 1984 4856 
Q 1566 4138 1362 3434 
Q 1159 2731 1159 2009 
Q 1159 1288 1364 580 
Q 1569 -128 1984 -844 
L 1484 -844 
Q 1016 -109 783 600 
Q 550 1309 550 2009 
Q 550 2706 781 3412 
Q 1013 4119 1484 4856 
L 1984 4856 
z
" transform="scale(0.015625)"/>
             <path id="DejaVuSans-6e" d="M 3513 2113 
L 3513 0 
L 2938 0 
L 2938 2094 
Q 2938 2591 2744 2837 
Q 2550 3084 2163 3084 
Q 1697 3084 1428 2787 
Q 1159 2491 1159 1978 
L 1159 0 
L 581 0 
L 581 3500 
L 1159 3500 
L 1159 2956 
Q 1366 3272 1645 3428 
Q 1925 3584 2291 3584 
Q 2894 3584 3203 3211 
Q 3513 2838 3513 2113 
z
" transform="scale(0.015625)"/>
             <path id="DejaVuSans-72" d="M 2631 2963 
Q 2534 3019 2420 3045 
Q 2306 3072 2169 3072 
Q 1681 3072 1420 2755 
Q 1159 2438 1159 1844 
L 1159 0 
L 581 0 
L 581 3500 
L 1159 3500 
L 1159 2956 
Q 1341 3275 1631 3429 
Q 1922 3584 2338 3584 
Q 2397 3584 2469 3576 
Q 2541 3569 2628 3553 
L 2631 2963 
z
" transform="scale(0.015625)"/>
             <path id="DejaVuSans-73" d="M 2834 3397 
L 2834 2853 
Q 2591 2978 2328 3040 
Q 2066 3103 1784 3103 
Q 1356 3103 1142 2972 
Q 928 2841 928 2578 
Q 928 2378 1081 2264 
Q 1234 2150 1697 2047 
L 1894 2003 
Q 2506 1872 2764 1633 
Q 3022 1394 3022 966 
Q 3022 478 2636 193 
Q 2250 -91 1575 -91 
Q 1294 -91 989 -36 
Q 684 19 347 128 
L 347 722 
Q 666 556 975 473 
Q 1284 391 1588 391 
Q 1994 391 2212 530 
Q 2431 669 2431 922 
Q 2431 1156 2273 1281 
Q 2116 1406 1581 1522 
L 1381 1569 
Q 847 1681 609 1914 
Q 372 2147 372 2553 
Q 372 3047 722 3315 
Q 1072 3584 1716 3584 
Q 2034 3584 2315 3537 
Q 2597 3491 2834 3397 
z
" transform="scale(0.015625)"/>
             <path id="DejaVuSans-29" d="M 513 4856 
L 1013 4856 
Q 1481 4119 1714 3412 
Q 1947 2706 1947 2009 
Q 1947 1309 1714 600 
Q 1481 -109 1013 -844 
L 513 -844 
Q 928 -128 1133 580 
Q 1338 1288 1338 2009 
Q 1338 2731 1133 3434 
Q 928 4138 513 4856 
z
" transform="scale(0.015625)"/>
            </defs>
            <use xlink:href="#DejaVuSans-74"/>
            <use xlink:href="#DejaVuSans-69" x="39.208984"/>
            <use xlink:href="#DejaVuSans-6d" x="66.992188"/>
            <use xlink:href="#DejaVuSans-65" x="164.404297"/>
            <use xlink:href="#DejaVuSans-20" x="225.927734"/>
            <use xlink:href="#DejaVuSans-61" x="257.714844"/>
            <use xlink:href="#DejaVuSans-67" x="318.994141"/>
            <use xlink:href="#DejaVuSans-6f" x="382.470703"/>
            <use xlink:href="#DejaVuSans-20" x="443.652344"/>
            <use xlink:href="#DejaVuSans-28" x="475.439453"/>
            <use xlink:href="#DejaVuSans-67" x="514.453125"/>
            <use xlink:href="#DejaVuSans-65" x="577.929688"/>
            <use xlink:href="#DejaVuSans-6e" x="639.453125"/>
            <use xlink:href="#DejaVuSans-65" x="702.832031"/>
            <use xlink:href="#DejaVuSans-72" x="764.355469"/>
            <use xlink:href="#DejaVuSans-61" x="805.46875"/>
            <use xlink:href="#DejaVuSans-74" x="866.748047"/>
            <use xlink:href="#DejaVuSans-69" x="905.957031"/>
            <use xlink:href="#DejaVuSans-6f" x="933.740234"/>
            <use xlink:href="#DejaVuSans-6e" x="994.921875"/>
            <use xlink:href="#DejaVuSans-73" x="1058.300781"/>
            <use xlink:href="#DejaVuSans-29" x="1110.400391"/>
           </g>
          </g>
         </g>
         <g id="patch_9">
          <path d="M 294.394631 69.364375 
L 293.394631 69.332939 
L 292.394631 69.295998 
L 291.394631 69.198252 
L 290.394631 69.16573 
L 289.394631 69.092105 
L 288.394631 69.05354 
L 287.394631 69.018127 
L 286.394631 68.960487 
L 285.394631 68.890101 
L 284.394631 68.838136 
L 283.394631 68.779047 
L 282.394631 68.690726 
L 281.394631 68.644581 
L 280.394631 68.60217 
L 279.394631 68.571678 
L 278.394631 68.545633 
L 277.394631 68.524433 
L 276.394631 68.470132 
L 275.394631 68.442194 
L 274.394631 68.41247 
L 273.394631 68.387075 
L 272.394631 68.375875 
L 271.394631 68.365751 
L 270.394631 68.365955 
L 269.394631 68.375465 
L 268.394631 68.387119 
L 267.394631 68.418148 
L 266.394631 68.429316 
L 265.394631 68.459433 
L 264.394631 68.51921 
L 263.394631 68.556402 
L 262.394631 68.595498 
L 261.394631 68.637938 
L 260.394631 68.670703 
L 259.394631 68.738129 
L 258.394631 68.777255 
L 257.394631 68.81993 
L 256.394631 68.89051 
L 255.394631 68.926901 
L 254.394631 68.985304 
L 253.394631 69.096257 
L 252.394631 69.166915 
L 251.394631 69.279855 
L 250.394631 69.325628 
L 249.394631 69.386911 
L 248.394631 69.43541 
L 247.394631 69.516233 
L 246.394631 69.634752 
L 245.394631 69.704963 
L 244.394631 69.788225 
L 243.394631 69.821367 
L 242.394631 69.872604 
L 241.394631 69.941003 
L 240.394631 70.007218 
L 239.394631 70.084135 
L 238.394631 70.111451 
L 237.394631 70.137928 
L 236.394631 70.160579 
L 235.394631 70.18011 
L 234.394631 70.206504 
L 233.394631 70.256275 
L 232.394631 70.291348 
L 231.394631 70.327214 
L 230.394631 70.342581 
L 229.394631 70.35835 
L 228.394631 70.361763 
L 227.394631 70.36418 
L 226.394631 70.363694 
L 225.394631 70.361765 
L 224.394631 70.348508 
L 223.394631 70.340117 
L 222.394631 70.318581 
L 221.394631 70.295548 
L 220.394631 70.278315 
L 219.394631 70.259852 
L 218.394631 70.2394 
L 217.394631 70.2228 
L 216.394631 70.160021 
L 215.394631 70.084756 
L 214.394631 70.052117 
L 213.394631 69.984553 
L 212.394631 69.930506 
L 211.394631 69.896802 
L 210.394631 69.806676 
L 209.394631 69.778141 
L 208.394631 69.746655 
L 207.394631 69.715644 
L 206.394631 69.660836 
L 205.394631 69.596249 
L 204.394631 69.558053 
L 203.394631 69.462119 
L 202.368614 69.412861 
" clip-path="url(#p8ea5844b57)" style="fill: none; stroke: #ffffff; stroke-width: 3; stroke-linecap: round"/>
          <path d="M 294.394631 69.364375 
L 293.394631 69.332939 
L 292.394631 69.295998 
L 291.394631 69.198252 
L 290.394631 69.16573 
L 289.394631 69.092105 
L 288.394631 69.05354 
L 287.394631 69.018127 
L 286.394631 68.960487 
L 285.394631 68.890101 
L 284.394631 68.838136 
L 283.394631 68.779047 
L 282.394631 68.690726 
L 281.394631 68.644581 
L 280.394631 68.60217 
L 279.394631 68.571678 
L 278.394631 68.545633 
L 277.394631 68.524433 
L 276.394631 68.470132 
L 275.394631 68.442194 
L 274.394631 68.41247 
L 273.394631 68.387075 
L 272.394631 68.375875 
L 271.394631 68.365751 
L 270.394631 68.365955 
L 269.394631 68.375465 
L 268.394631 68.387119 
L 267.394631 68.418148 
L 266.394631 68.429316 
L 265.394631 68.459433 
L 264.394631 68.51921 
L 263.394631 68.556402 
L 262.394631 68.595498 
L 261.394631 68.637938 
L 260.394631 68.670703 
L 259.394631 68.738129 
L 258.394631 68.777255 
L 257.394631 68.81993 
L 256.394631 68.89051 
L 255.394631 68.926901 
L 254.394631 68.985304 
L 253.394631 69.096257 
L 252.394631 69.166915 
L 251.394631 69.279855 
L 250.394631 69.325628 
L 249.394631 69.386911 
L 248.394631 69.43541 
L 247.394631 69.516233 
L 246.394631 69.634752 
L 245.394631 69.704963 
L 244.394631 69.788225 
L 243.394631 69.821367 
L 242.394631 69.872604 
L 241.394631 69.941003 
L 240.394631 70.007218 
L 239.394631 70.084135 
L 238.394631 70.111451 
L 237.394631 70.137928 
L 236.394631 70.160579 
L 235.394631 70.18011 
L 234.394631 70.206504 
L 233.394631 70.256275 
L 232.394631 70.291348 
L 231.394631 70.327214 
L 230.394631 70.342581 
L 229.394631 70.35835 
L 228.394631 70.361763 
L 227.394631 70.36418 
L 226.394631 70.363694 
L 225.394631 70.361765 
L 224.394631 70.348508 
L 223.394631 70.340117 
L 222.394631 70.318581 
L 221.394631 70.295548 
L 220.394631 70.278315 
L 219.394631 70.259852 
L 218.394631 70.2394 
L 217.394631 70.2228 
L 216.394631 70.160021 
L 215.394631 70.084756 
L 214.394631 70.052117 
L 213.394631 69.984553 
L 212.394631 69.930506 
L 211.394631 69.896802 
L 210.394631 69.806676 
L 209.394631 69.778141 
L 208.394631 69.746655 
L 207.394631 69.715644 
L 206.394631 69.660836 
L 205.394631 69.596249 
L 204.394631 69.558053 
L 203.394631 69.462119 
L 202.368614 69.412861 
" clip-path="url(#p8ea5844b57)" style="fill: none; stroke: #ff7f0e; stroke-linecap: round"/>
          <path d="M 206.368614 71.364375 
L 205.488245 70.889044 
L 204.610338 70.40879 
L 203.759625 69.874149 
L 202.457451 69.186702 
L 203.384804 69.160687 
L 204.296478 68.747967 
L 205.206742 68.332428 
L 206.549238 67.725624 
L 205.894339 68.364375 
L 205.842375 69.364375 
L 205.783285 71.364375 
z
" clip-path="url(#p8ea5844b57)" style="fill: #ffffff; stroke: #ffffff; stroke-width: 3; stroke-linecap: round"/>
          <path d="M 206.368614 71.364375 
L 205.488245 70.889044 
L 204.610338 70.40879 
L 203.759625 69.874149 
L 202.457451 69.186702 
L 203.384804 69.160687 
L 204.296478 68.747967 
L 205.206742 68.332428 
L 206.549238 67.725624 
L 205.894339 68.364375 
L 205.842375 69.364375 
L 205.783285 71.364375 
z
" clip-path="url(#p8ea5844b57)" style="fill: #ffffff; stroke: #ff7f0e; stroke-linecap: round"/>
          <g id="patch_10">
           <path d="M 482.060151 68.793056 
L 481.107756 68.486573 
L 480.156881 68.1748 
L 479.222806 67.804587 
L 478.270711 67.497061 
L 477.329971 67.150031 
L 476.379546 66.836696 
L 475.428249 66.52639 
L 474.483094 66.194723 
L 473.541459 65.850806 
L 472.594736 65.524594 
L 471.553161 65.163702 
L 470.592979 64.822787 
L 469.636714 64.526667 
L 468.679511 64.234161 
L 467.71931 63.95319 
L 466.757991 63.676523 
L 465.795454 63.404546 
L 464.84124 63.100531 
L 463.880397 62.822033 
L 462.920004 62.541806 
L 461.958521 62.265769 
L 460.99347 62.00347 
L 460.028147 61.742213 
L 459.060228 61.490952 
L 458.089968 61.248698 
L 457.11917 61.008519 
L 456.143499 60.787093 
L 455.172823 60.546444 
L 454.197381 60.324135 
L 453.214482 60.130533 
L 452.237261 59.915071 
L 451.259562 59.701453 
L 450.243005 59.481193 
L 449.235215 59.289662 
L 448.244501 59.137901 
L 447.259944 58.958518 
L 446.274614 58.782599 
L 445.283214 58.633917 
L 444.299252 58.451864 
L 443.310501 58.291296 
L 442.310316 58.182019 
L 441.318899 58.033413 
L 440.318282 57.926076 
L 439.332279 57.75318 
L 438.342901 57.595423 
L 437.356304 57.425189 
L 436.362675 57.286504 
L 435.360845 57.184612 
L 434.369524 57.035569 
L 433.375364 56.899265 
L 432.392109 56.714041 
L 431.404917 56.546479 
L 430.413991 56.395667 
L 428.597729 56.058641 
L 427.622843 55.955971 
L 426.634708 55.799973 
L 425.646726 55.643152 
L 424.659444 55.482568 
L 423.672732 55.318917 
L 422.684766 55.162014 
L 421.692524 55.028093 
L 420.702971 54.879722 
L 419.713272 54.732131 
L 418.727322 54.564387 
L 417.741298 54.397037 
L 416.757534 54.21754 
L 415.773952 54.037064 
L 414.7909 53.853734 
L 413.808113 53.668985 
L 412.827396 53.473099 
L 411.84579 53.281997 
L 410.866588 53.077971 
L 409.887659 52.872474 
L 408.90767 52.672679 
L 407.259484 52.347357 
L 406.305163 52.185035 
L 405.318534 52.021209 
L 404.338713 51.811709 
L 403.360731 51.589859 
L 402.376467 51.410168 
L 401.39735 51.195936 
L 400.416241 50.995071 
L 399.432134 50.814328 
L 398.456343 50.577779 
L 397.471474 50.402148 
L 396.487039 50.223598 
L 395.502534 50.045519 
L 394.521538 49.843902 
L 393.541983 49.632613 
L 392.558537 49.447427 
L 391.583603 49.205134 
L 390.601788 49.009006 
L 389.619208 48.818011 
L 388.636047 48.630918 
L 387.662945 48.376327 
L 386.144603 48.107952 
L 385.151048 47.933967 
L 384.165058 47.753082 
L 383.182915 47.537871 
L 382.193254 47.389757 
L 381.204582 47.232808 
L 380.218429 47.053382 
L 379.230076 46.893583 
L 378.244937 46.705111 
L 377.254557 46.563403 
L 376.268518 46.382964 
L 375.277407 46.247783 
L 374.286814 46.107983 
L 373.297687 45.955092 
L 372.306309 45.822294 
L 371.314082 45.697076 
L 370.323277 45.559162 
L 369.330534 45.438553 
L 368.338139 45.314827 
L 367.34559 45.192484 
L 366.35244 45.075498 
L 364.930959 44.911422 
L 363.896826 44.838705 
L 362.898635 44.777124 
L 361.900876 44.709787 
L 360.901826 44.65967 
L 359.902866 44.60834 
L 358.902962 44.569586 
L 357.903823 44.520643 
L 356.904957 44.468069 
L 355.902615 44.461803 
L 354.899842 44.461297 
L 353.895613 44.48018 
L 352.894596 44.456256 
L 351.893364 44.435206 
L 350.89353 44.395525 
L 349.888395 44.426483 
L 348.887288 44.403768 
L 347.88733 44.365739 
L 346.887812 44.32185 
L 345.886039 44.308001 
L 344.883798 44.300399 
L 343.534813 44.248211 
L 342.530866 44.275256 
L 341.530137 44.27544 
L 340.529264 44.27943 
L 339.52839 44.283441 
L 338.526851 44.304939 
L 337.523275 44.380042 
L 336.522012 44.394279 
L 335.521236 44.395692 
L 334.520169 44.404784 
L 333.518734 44.423547 
L 332.518215 44.41821 
L 331.517562 44.416386 
L 330.517065 44.410478 
L 329.516485 44.406757 
L 328.514989 44.427117 
L 327.513994 44.434294 
L 326.513591 44.425921 
L 325.512399 44.438294 
L 324.512163 44.425498 
L 323.512085 44.408558 
L 322.215457 44.394275 
L 321.248629 44.418277 
L 320.248616 44.43141 
L 319.248599 44.449417 
L 318.248585 44.464145 
L 317.248573 44.475762 
L 316.248568 44.480664 
L 315.248562 44.486612 
L 314.248558 44.490852 
L 313.24856 44.488135 
L 312.248563 44.484475 
L 311.248574 44.472388 
L 310.248601 44.443218 
L 309.248642 44.398496 
L 308.248662 44.376873 
L 307.248701 44.334965 
L 306.248738 44.293956 
L 305.248757 44.273912 
L 304.248778 44.25047 
L 303.248841 44.182884 
L 302.248888 44.132241 
L 300.976449 44.057345 
L 299.997415 44.061815 
L 298.995299 44.021383 
L 297.994568 44.01925 
L 296.992543 43.981323 
L 295.989436 43.913473 
L 294.987565 43.879828 
L 293.984415 43.810804 
L 292.98308 43.791965 
L 291.979271 43.704711 
L 290.977374 43.670338 
L 289.973841 43.590715 
L 288.972681 43.576708 
L 287.972047 43.577267 
L 286.969397 43.522061 
L 285.968117 43.504729 
L 284.965593 43.453018 
L 283.963746 43.420019 
L 282.962709 43.409426 
L 281.960759 43.373569 
L 280.9596 43.359601 
L 279.68178 43.388411 
L 278.650698 43.436314 
L 277.651953 43.490034 
L 276.653214 43.543843 
L 275.653093 43.578793 
L 274.654567 43.635499 
L 273.656631 43.700248 
L 272.65899 43.769036 
L 271.661186 43.835594 
L 270.664047 43.911229 
L 269.667121 43.989769 
L 268.670997 44.079249 
L 267.676006 44.184194 
L 266.681458 44.295168 
L 265.686677 44.402974 
L 264.693962 44.538973 
L 263.698203 44.633438 
L 262.704578 44.757016 
L 261.709078 44.855002 
L 260.715819 44.983582 
L 259.720777 45.087823 
L 258.41519 45.233791 
L 257.403761 45.3778 
L 256.418633 45.567508 
L 255.432244 45.745797 
L 254.450989 45.970576 
L 253.46532 46.15538 
L 252.484046 46.379987 
L 251.498816 46.568772 
L 250.516765 46.786338 
L 249.527131 46.935248 
L 248.544468 47.147275 
L 247.561468 47.356251 
L 246.572507 47.511254 
L 245.582319 47.65515 
L 244.594067 47.816572 
L 243.604464 47.96576 
L 242.614407 48.11084 
L 241.627877 48.287858 
L 240.638212 48.436483 
L 239.649798 48.596441 
L 238.661255 48.755229 
L 237.2986 48.957112 
L 236.345145 49.143141 
L 235.359084 49.310976 
L 234.372079 49.472417 
L 233.389001 49.66046 
L 232.401896 49.82122 
L 231.415938 49.989755 
L 230.429628 50.155905 
L 229.441198 50.307691 
L 228.452283 50.456198 
L 227.46256 50.599225 
L 226.471589 50.733805 
L 225.479841 50.863117 
L 224.48594 50.977847 
L 223.494606 51.109966 
L 222.497636 51.203911 
L 221.50119 51.301399 
L 220.503923 51.393336 
L 219.508169 51.495515 
L 218.50867 51.572325 
L 217.512034 51.668534 
L 216.050698 51.829786 
L 215.074292 51.940024 
L 214.08052 52.065363 
L 213.08806 52.197803 
L 212.090693 52.303697 
L 211.096775 52.428247 
L 210.102412 52.550389 
L 209.112309 52.695578 
L 208.117136 52.813342 
L 207.114685 52.891733 
L 206.120383 53.014206 
L 205.119534 53.10126 
L 204.130376 53.25156 
L 203.137761 53.383163 
L 202.133191 53.450087 
L 201.143407 53.597001 
L 200.149908 53.723822 
L 199.161046 53.875723 
L 198.161639 53.970579 
L 197.170161 54.108331 
L 196.172117 54.210561 
L 194.597375 54.440487 
L 193.579969 54.60131 
L 192.59878 54.795719 
L 191.619061 54.996746 
L 190.636575 55.185316 
L 189.653781 55.372499 
L 188.674841 55.577035 
L 187.693234 55.769559 
L 186.7144 55.974574 
L 185.737371 56.187714 
L 184.76212 56.408856 
L 183.788582 56.637713 
L 182.815493 56.868595 
L 181.842764 57.101097 
L 180.874252 57.352585 
L 179.902361 57.588857 
L 178.938417 57.860912 
L 177.976772 58.143319 
L 177.006492 58.38685 
L 176.037682 58.636996 
L 175.072023 58.901331 
L 173.384505 59.325581 
L 172.410302 59.638896 
L 171.466334 59.9825 
L 170.509193 60.27532 
L 169.553737 60.574633 
L 168.600462 60.882354 
L 167.644438 61.179477 
L 166.691813 61.489708 
L 165.737923 61.795059 
L 164.788573 62.117915 
L 163.850036 62.48246 
L 162.896055 62.78746 
L 161.955255 63.143281 
L 161.013934 63.497093 
L 160.07297 63.852281 
L 159.113663 64.136745 
L 158.171628 64.487805 
L 157.222668 64.812165 
L 156.264598 65.101398 
L 155.306514 65.390582 
L 154.344188 65.663406 
L 152.503741 66.19842 
L 151.569805 66.494167 
L 150.617046 66.799395 
L 149.669958 67.12436 
L 148.714 67.418454 
L 147.758886 67.715487 
L 146.801269 68.00381 
L 145.845405 68.298233 
L 144.889099 68.591115 
L 143.929933 68.874049 
L 142.968541 69.149232 
L 141.973898 69.427749 
" clip-path="url(#p8ea5844b57)" style="fill: none; stroke: #ffffff; stroke-width: 3; stroke-linecap: round"/>
           <path d="M 482.060151 68.793056 
L 481.107756 68.486573 
L 480.156881 68.1748 
L 479.222806 67.804587 
L 478.270711 67.497061 
L 477.329971 67.150031 
L 476.379546 66.836696 
L 475.428249 66.52639 
L 474.483094 66.194723 
L 473.541459 65.850806 
L 472.594736 65.524594 
L 471.553161 65.163702 
L 470.592979 64.822787 
L 469.636714 64.526667 
L 468.679511 64.234161 
L 467.71931 63.95319 
L 466.757991 63.676523 
L 465.795454 63.404546 
L 464.84124 63.100531 
L 463.880397 62.822033 
L 462.920004 62.541806 
L 461.958521 62.265769 
L 460.99347 62.00347 
L 460.028147 61.742213 
L 459.060228 61.490952 
L 458.089968 61.248698 
L 457.11917 61.008519 
L 456.143499 60.787093 
L 455.172823 60.546444 
L 454.197381 60.324135 
L 453.214482 60.130533 
L 452.237261 59.915071 
L 451.259562 59.701453 
L 450.243005 59.481193 
L 449.235215 59.289662 
L 448.244501 59.137901 
L 447.259944 58.958518 
L 446.274614 58.782599 
L 445.283214 58.633917 
L 444.299252 58.451864 
L 443.310501 58.291296 
L 442.310316 58.182019 
L 441.318899 58.033413 
L 440.318282 57.926076 
L 439.332279 57.75318 
L 438.342901 57.595423 
L 437.356304 57.425189 
L 436.362675 57.286504 
L 435.360845 57.184612 
L 434.369524 57.035569 
L 433.375364 56.899265 
L 432.392109 56.714041 
L 431.404917 56.546479 
L 430.413991 56.395667 
L 428.597729 56.058641 
L 427.622843 55.955971 
L 426.634708 55.799973 
L 425.646726 55.643152 
L 424.659444 55.482568 
L 423.672732 55.318917 
L 422.684766 55.162014 
L 421.692524 55.028093 
L 420.702971 54.879722 
L 419.713272 54.732131 
L 418.727322 54.564387 
L 417.741298 54.397037 
L 416.757534 54.21754 
L 415.773952 54.037064 
L 414.7909 53.853734 
L 413.808113 53.668985 
L 412.827396 53.473099 
L 411.84579 53.281997 
L 410.866588 53.077971 
L 409.887659 52.872474 
L 408.90767 52.672679 
L 407.259484 52.347357 
L 406.305163 52.185035 
L 405.318534 52.021209 
L 404.338713 51.811709 
L 403.360731 51.589859 
L 402.376467 51.410168 
L 401.39735 51.195936 
L 400.416241 50.995071 
L 399.432134 50.814328 
L 398.456343 50.577779 
L 397.471474 50.402148 
L 396.487039 50.223598 
L 395.502534 50.045519 
L 394.521538 49.843902 
L 393.541983 49.632613 
L 392.558537 49.447427 
L 391.583603 49.205134 
L 390.601788 49.009006 
L 389.619208 48.818011 
L 388.636047 48.630918 
L 387.662945 48.376327 
L 386.144603 48.107952 
L 385.151048 47.933967 
L 384.165058 47.753082 
L 383.182915 47.537871 
L 382.193254 47.389757 
L 381.204582 47.232808 
L 380.218429 47.053382 
L 379.230076 46.893583 
L 378.244937 46.705111 
L 377.254557 46.563403 
L 376.268518 46.382964 
L 375.277407 46.247783 
L 374.286814 46.107983 
L 373.297687 45.955092 
L 372.306309 45.822294 
L 371.314082 45.697076 
L 370.323277 45.559162 
L 369.330534 45.438553 
L 368.338139 45.314827 
L 367.34559 45.192484 
L 366.35244 45.075498 
L 364.930959 44.911422 
L 363.896826 44.838705 
L 362.898635 44.777124 
L 361.900876 44.709787 
L 360.901826 44.65967 
L 359.902866 44.60834 
L 358.902962 44.569586 
L 357.903823 44.520643 
L 356.904957 44.468069 
L 355.902615 44.461803 
L 354.899842 44.461297 
L 353.895613 44.48018 
L 352.894596 44.456256 
L 351.893364 44.435206 
L 350.89353 44.395525 
L 349.888395 44.426483 
L 348.887288 44.403768 
L 347.88733 44.365739 
L 346.887812 44.32185 
L 345.886039 44.308001 
L 344.883798 44.300399 
L 343.534813 44.248211 
L 342.530866 44.275256 
L 341.530137 44.27544 
L 340.529264 44.27943 
L 339.52839 44.283441 
L 338.526851 44.304939 
L 337.523275 44.380042 
L 336.522012 44.394279 
L 335.521236 44.395692 
L 334.520169 44.404784 
L 333.518734 44.423547 
L 332.518215 44.41821 
L 331.517562 44.416386 
L 330.517065 44.410478 
L 329.516485 44.406757 
L 328.514989 44.427117 
L 327.513994 44.434294 
L 326.513591 44.425921 
L 325.512399 44.438294 
L 324.512163 44.425498 
L 323.512085 44.408558 
L 322.215457 44.394275 
L 321.248629 44.418277 
L 320.248616 44.43141 
L 319.248599 44.449417 
L 318.248585 44.464145 
L 317.248573 44.475762 
L 316.248568 44.480664 
L 315.248562 44.486612 
L 314.248558 44.490852 
L 313.24856 44.488135 
L 312.248563 44.484475 
L 311.248574 44.472388 
L 310.248601 44.443218 
L 309.248642 44.398496 
L 308.248662 44.376873 
L 307.248701 44.334965 
L 306.248738 44.293956 
L 305.248757 44.273912 
L 304.248778 44.25047 
L 303.248841 44.182884 
L 302.248888 44.132241 
L 300.976449 44.057345 
L 299.997415 44.061815 
L 298.995299 44.021383 
L 297.994568 44.01925 
L 296.992543 43.981323 
L 295.989436 43.913473 
L 294.987565 43.879828 
L 293.984415 43.810804 
L 292.98308 43.791965 
L 291.979271 43.704711 
L 290.977374 43.670338 
L 289.973841 43.590715 
L 288.972681 43.576708 
L 287.972047 43.577267 
L 286.969397 43.522061 
L 285.968117 43.504729 
L 284.965593 43.453018 
L 283.963746 43.420019 
L 282.962709 43.409426 
L 281.960759 43.373569 
L 280.9596 43.359601 
L 279.68178 43.388411 
L 278.650698 43.436314 
L 277.651953 43.490034 
L 276.653214 43.543843 
L 275.653093 43.578793 
L 274.654567 43.635499 
L 273.656631 43.700248 
L 272.65899 43.769036 
L 271.661186 43.835594 
L 270.664047 43.911229 
L 269.667121 43.989769 
L 268.670997 44.079249 
L 267.676006 44.184194 
L 266.681458 44.295168 
L 265.686677 44.402974 
L 264.693962 44.538973 
L 263.698203 44.633438 
L 262.704578 44.757016 
L 261.709078 44.855002 
L 260.715819 44.983582 
L 259.720777 45.087823 
L 258.41519 45.233791 
L 257.403761 45.3778 
L 256.418633 45.567508 
L 255.432244 45.745797 
L 254.450989 45.970576 
L 253.46532 46.15538 
L 252.484046 46.379987 
L 251.498816 46.568772 
L 250.516765 46.786338 
L 249.527131 46.935248 
L 248.544468 47.147275 
L 247.561468 47.356251 
L 246.572507 47.511254 
L 245.582319 47.65515 
L 244.594067 47.816572 
L 243.604464 47.96576 
L 242.614407 48.11084 
L 241.627877 48.287858 
L 240.638212 48.436483 
L 239.649798 48.596441 
L 238.661255 48.755229 
L 237.2986 48.957112 
L 236.345145 49.143141 
L 235.359084 49.310976 
L 234.372079 49.472417 
L 233.389001 49.66046 
L 232.401896 49.82122 
L 231.415938 49.989755 
L 230.429628 50.155905 
L 229.441198 50.307691 
L 228.452283 50.456198 
L 227.46256 50.599225 
L 226.471589 50.733805 
L 225.479841 50.863117 
L 224.48594 50.977847 
L 223.494606 51.109966 
L 222.497636 51.203911 
L 221.50119 51.301399 
L 220.503923 51.393336 
L 219.508169 51.495515 
L 218.50867 51.572325 
L 217.512034 51.668534 
L 216.050698 51.829786 
L 215.074292 51.940024 
L 214.08052 52.065363 
L 213.08806 52.197803 
L 212.090693 52.303697 
L 211.096775 52.428247 
L 210.102412 52.550389 
L 209.112309 52.695578 
L 208.117136 52.813342 
L 207.114685 52.891733 
L 206.120383 53.014206 
L 205.119534 53.10126 
L 204.130376 53.25156 
L 203.137761 53.383163 
L 202.133191 53.450087 
L 201.143407 53.597001 
L 200.149908 53.723822 
L 199.161046 53.875723 
L 198.161639 53.970579 
L 197.170161 54.108331 
L 196.172117 54.210561 
L 194.597375 54.440487 
L 193.579969 54.60131 
L 192.59878 54.795719 
L 191.619061 54.996746 
L 190.636575 55.185316 
L 189.653781 55.372499 
L 188.674841 55.577035 
L 187.693234 55.769559 
L 186.7144 55.974574 
L 185.737371 56.187714 
L 184.76212 56.408856 
L 183.788582 56.637713 
L 182.815493 56.868595 
L 181.842764 57.101097 
L 180.874252 57.352585 
L 179.902361 57.588857 
L 178.938417 57.860912 
L 177.976772 58.143319 
L 177.006492 58.38685 
L 176.037682 58.636996 
L 175.072023 58.901331 
L 173.384505 59.325581 
L 172.410302 59.638896 
L 171.466334 59.9825 
L 170.509193 60.27532 
L 169.553737 60.574633 
L 168.600462 60.882354 
L 167.644438 61.179477 
L 166.691813 61.489708 
L 165.737923 61.795059 
L 164.788573 62.117915 
L 163.850036 62.48246 
L 162.896055 62.78746 
L 161.955255 63.143281 
L 161.013934 63.497093 
L 160.07297 63.852281 
L 159.113663 64.136745 
L 158.171628 64.487805 
L 157.222668 64.812165 
L 156.264598 65.101398 
L 155.306514 65.390582 
L 154.344188 65.663406 
L 152.503741 66.19842 
L 151.569805 66.494167 
L 150.617046 66.799395 
L 149.669958 67.12436 
L 148.714 67.418454 
L 147.758886 67.715487 
L 146.801269 68.00381 
L 145.845405 68.298233 
L 144.889099 68.591115 
L 143.929933 68.874049 
L 142.968541 69.149232 
L 141.973898 69.427749 
" clip-path="url(#p8ea5844b57)" style="fill: none; stroke: #2ca02c; stroke-linecap: round"/>
           <path d="M 146.103801 69.254829 
L 145.124599 69.049523 
L 144.146356 68.838797 
L 143.178714 68.568197 
L 141.734796 68.279505 
L 142.616451 67.990807 
L 143.373087 67.335835 
L 144.12757 66.678561 
L 145.242033 65.714985 
L 144.795855 66.513622 
L 145.030457 67.487102 
L 145.258227 68.462608 
L 145.457974 69.446428 
z
" clip-path="url(#p8ea5844b57)" style="fill: #ffffff; stroke: #ffffff; stroke-width: 3; stroke-linecap: round"/>
           <path d="M 146.103801 69.254829 
L 145.124599 69.049523 
L 144.146356 68.838797 
L 143.178714 68.568197 
L 141.734796 68.279505 
L 142.616451 67.990807 
L 143.373087 67.335835 
L 144.12757 66.678561 
L 145.242033 65.714985 
L 144.795855 66.513622 
L 145.030457 67.487102 
L 145.258227 68.462608 
L 145.457974 69.446428 
z
" clip-path="url(#p8ea5844b57)" style="fill: #ffffff; stroke: #2ca02c; stroke-linecap: round"/>
           <g id="patch_11">
            <path d="M 171.269664 68.800751 
L 172.243177 68.56997 
L 173.218128 68.344501 
L 174.208956 68.177728 
L 175.182753 67.947994 
L 176.167282 67.757936 
L 177.155294 67.530618 
L 178.124875 67.356324 
L 179.114272 67.200068 
L 180.106379 67.056267 
L 181.094569 66.894465 
L 182.084275 66.739626 
L 183.080194 66.61335 
L 184.067147 66.445861 
L 185.053307 66.274725 
L 186.036933 66.091942 
L 187.019614 65.904814 
L 188.836425 65.531261 
L 189.776987 65.450281 
L 190.770467 65.332898 
L 191.764205 65.217283 
L 192.757316 65.097384 
L 193.748369 64.963442 
L 194.739265 64.828433 
L 195.728663 64.683206 
L 196.716712 64.528772 
L 197.70445 64.372217 
L 198.689378 64.19649 
L 200.34365 63.942729 
L 201.273075 63.844977 
L 202.265779 63.710395 
L 203.260176 63.598335 
L 204.254431 63.484376 
L 205.248434 63.367083 
L 206.243164 63.259437 
L 207.235294 63.117227 
L 208.229546 63.003238 
L 209.223532 62.885711 
L 210.215426 62.740356 
L 211.757441 62.587926 
L 212.725917 62.527375 
L 213.725537 62.413046 
L 214.725292 62.33901 
L 215.724905 62.222694 
L 216.724745 62.173544 
L 217.724532 62.108884 
L 218.724363 62.057007 
L 219.724084 61.972808 
L 220.723678 61.850912 
L 221.723435 61.777325 
L 223.206237 61.689054 
L 224.236697 61.725678 
L 225.237854 61.74325 
L 226.240191 61.743701 
L 227.242377 61.746331 
L 228.245298 61.738284 
L 229.244813 61.779722 
L 230.24427 61.821995 
L 231.243464 61.868086 
L 232.242443 61.91729 
L 233.241895 61.959647 
L 234.718385 62.011416 
L 235.777134 62.123488 
L 236.772296 62.228085 
L 237.764585 62.352978 
L 238.75693 62.477473 
L 239.747545 62.614203 
L 240.73802 62.751917 
L 241.728088 62.892507 
L 242.717953 63.034526 
L 243.706232 63.187761 
L 244.695193 63.336177 
L 246.206694 63.571813 
L 247.246113 63.815969 
L 248.220239 64.042629 
L 249.194108 64.270491 
L 250.167559 64.500298 
L 251.141818 64.726339 
L 252.106389 64.99753 
L 253.06834 65.28093 
L 254.039234 65.522653 
L 255.002801 65.798522 
L 255.969203 66.061176 
L 257.567017 66.438517 
L 258.535981 66.792428 
L 259.494057 67.080358 
L 260.451365 67.371137 
L 261.408797 67.661457 
L 263.211064 68.20426 
" clip-path="url(#p8ea5844b57)" style="fill: none; stroke: #ffffff; stroke-width: 3; stroke-linecap: round"/>
            <path d="M 171.269664 68.800751 
L 172.243177 68.56997 
L 173.218128 68.344501 
L 174.208956 68.177728 
L 175.182753 67.947994 
L 176.167282 67.757936 
L 177.155294 67.530618 
L 178.124875 67.356324 
L 179.114272 67.200068 
L 180.106379 67.056267 
L 181.094569 66.894465 
L 182.084275 66.739626 
L 183.080194 66.61335 
L 184.067147 66.445861 
L 185.053307 66.274725 
L 186.036933 66.091942 
L 187.019614 65.904814 
L 188.836425 65.531261 
L 189.776987 65.450281 
L 190.770467 65.332898 
L 191.764205 65.217283 
L 192.757316 65.097384 
L 193.748369 64.963442 
L 194.739265 64.828433 
L 195.728663 64.683206 
L 196.716712 64.528772 
L 197.70445 64.372217 
L 198.689378 64.19649 
L 200.34365 63.942729 
L 201.273075 63.844977 
L 202.265779 63.710395 
L 203.260176 63.598335 
L 204.254431 63.484376 
L 205.248434 63.367083 
L 206.243164 63.259437 
L 207.235294 63.117227 
L 208.229546 63.003238 
L 209.223532 62.885711 
L 210.215426 62.740356 
L 211.757441 62.587926 
L 212.725917 62.527375 
L 213.725537 62.413046 
L 214.725292 62.33901 
L 215.724905 62.222694 
L 216.724745 62.173544 
L 217.724532 62.108884 
L 218.724363 62.057007 
L 219.724084 61.972808 
L 220.723678 61.850912 
L 221.723435 61.777325 
L 223.206237 61.689054 
L 224.236697 61.725678 
L 225.237854 61.74325 
L 226.240191 61.743701 
L 227.242377 61.746331 
L 228.245298 61.738284 
L 229.244813 61.779722 
L 230.24427 61.821995 
L 231.243464 61.868086 
L 232.242443 61.91729 
L 233.241895 61.959647 
L 234.718385 62.011416 
L 235.777134 62.123488 
L 236.772296 62.228085 
L 237.764585 62.352978 
L 238.75693 62.477473 
L 239.747545 62.614203 
L 240.73802 62.751917 
L 241.728088 62.892507 
L 242.717953 63.034526 
L 243.706232 63.187761 
L 244.695193 63.336177 
L 246.206694 63.571813 
L 247.246113 63.815969 
L 248.220239 64.042629 
L 249.194108 64.270491 
L 250.167559 64.500298 
L 251.141818 64.726339 
L 252.106389 64.99753 
L 253.06834 65.28093 
L 254.039234 65.522653 
L 255.002801 65.798522 
L 255.969203 66.061176 
L 257.567017 66.438517 
L 258.535981 66.792428 
L 259.494057 67.080358 
L 260.451365 67.371137 
L 261.408797 67.661457 
L 263.211064 68.20426 
" clip-path="url(#p8ea5844b57)" style="fill: none; stroke: #1f77b4; stroke-linecap: round"/>
            <path d="M 259.843889 65.461302 
L 260.558258 66.161777 
L 261.268899 66.866301 
L 261.938353 67.615557 
L 262.99932 68.636631 
L 262.10101 68.4049 
L 261.11071 68.549101 
L 260.120984 68.696401 
L 258.662971 68.907832 
L 259.469106 68.475348 
L 259.795879 67.528818 
L 260.40634 65.623344 
z
" clip-path="url(#p8ea5844b57)" style="fill: #ffffff; stroke: #ffffff; stroke-width: 3; stroke-linecap: round"/>
            <path d="M 259.843889 65.461302 
L 260.558258 66.161777 
L 261.268899 66.866301 
L 261.938353 67.615557 
L 262.99932 68.636631 
L 262.10101 68.4049 
L 261.11071 68.549101 
L 260.120984 68.696401 
L 258.662971 68.907832 
L 259.469106 68.475348 
L 259.795879 67.528818 
L 260.40634 65.623344 
z
" clip-path="url(#p8ea5844b57)" style="fill: #ffffff; stroke: #1f77b4; stroke-linecap: round"/>
            <g id="patch_12">
             <path d="M 481.975769 69.364375 
L 480.975769 69.332939 
L 479.975769 69.295998 
L 478.975769 69.198252 
L 477.975769 69.16573 
L 476.975769 69.092105 
L 475.975769 69.05354 
L 474.975769 69.018127 
L 473.975769 68.960487 
L 472.975769 68.890101 
L 471.975769 68.838136 
L 470.975769 68.779047 
L 469.975769 68.690726 
L 468.975769 68.644581 
L 467.975769 68.60217 
L 466.975769 68.571678 
L 465.975769 68.545633 
L 464.975769 68.524433 
L 463.975769 68.470132 
L 462.975769 68.442194 
L 461.975769 68.41247 
L 460.975769 68.387075 
L 459.975769 68.375875 
L 458.975769 68.365751 
L 457.975769 68.365955 
L 456.975769 68.375465 
L 455.975769 68.387119 
L 454.975769 68.418148 
L 453.975769 68.429316 
L 452.975769 68.459433 
L 451.975769 68.51921 
L 450.975769 68.556402 
L 449.975769 68.595498 
L 448.975769 68.637938 
L 447.975769 68.670703 
L 446.975769 68.738129 
L 445.975769 68.777255 
L 444.975769 68.81993 
L 443.975769 68.89051 
L 442.975769 68.926901 
L 441.975769 68.985304 
L 440.975769 69.096257 
L 439.975769 69.166915 
L 438.975769 69.279855 
L 437.975769 69.325628 
L 436.975769 69.386911 
L 435.975769 69.43541 
L 434.975769 69.516233 
L 433.975769 69.634752 
L 432.975769 69.704963 
L 431.975769 69.788225 
L 430.975769 69.821367 
L 429.975769 69.872604 
L 428.975769 69.941003 
L 427.975769 70.007218 
L 426.975769 70.084135 
L 425.975769 70.111451 
L 424.975769 70.137928 
L 423.975769 70.160579 
L 422.975769 70.18011 
L 421.975769 70.206504 
L 420.975769 70.256275 
L 419.975769 70.291348 
L 418.975769 70.327214 
L 417.975769 70.342581 
L 416.975769 70.35835 
L 415.975769 70.361763 
L 414.975769 70.36418 
L 413.975769 70.363694 
L 412.975769 70.361765 
L 411.975769 70.348508 
L 410.975769 70.340117 
L 409.975769 70.318581 
L 408.975769 70.295548 
L 407.975769 70.278315 
L 406.975769 70.259852 
L 405.975769 70.2394 
L 404.975769 70.2228 
L 403.975769 70.160021 
L 402.975769 70.084756 
L 401.975769 70.052117 
L 400.975769 69.984553 
L 399.975769 69.930506 
L 398.975769 69.896802 
L 397.975769 69.806676 
L 396.975769 69.778141 
L 395.975769 69.746655 
L 394.975769 69.715644 
L 393.975769 69.660836 
L 392.975769 69.596249 
L 391.975769 69.558053 
L 390.317264 69.462119 
" clip-path="url(#p8ea5844b57)" style="fill: none; stroke: #ffffff; stroke-width: 3; stroke-linecap: round"/>
             <path d="M 481.975769 69.364375 
L 480.975769 69.332939 
L 479.975769 69.295998 
L 478.975769 69.198252 
L 477.975769 69.16573 
L 476.975769 69.092105 
L 475.975769 69.05354 
L 474.975769 69.018127 
L 473.975769 68.960487 
L 472.975769 68.890101 
L 471.975769 68.838136 
L 470.975769 68.779047 
L 469.975769 68.690726 
L 468.975769 68.644581 
L 467.975769 68.60217 
L 466.975769 68.571678 
L 465.975769 68.545633 
L 464.975769 68.524433 
L 463.975769 68.470132 
L 462.975769 68.442194 
L 461.975769 68.41247 
L 460.975769 68.387075 
L 459.975769 68.375875 
L 458.975769 68.365751 
L 457.975769 68.365955 
L 456.975769 68.375465 
L 455.975769 68.387119 
L 454.975769 68.418148 
L 453.975769 68.429316 
L 452.975769 68.459433 
L 451.975769 68.51921 
L 450.975769 68.556402 
L 449.975769 68.595498 
L 448.975769 68.637938 
L 447.975769 68.670703 
L 446.975769 68.738129 
L 445.975769 68.777255 
L 444.975769 68.81993 
L 443.975769 68.89051 
L 442.975769 68.926901 
L 441.975769 68.985304 
L 440.975769 69.096257 
L 439.975769 69.166915 
L 438.975769 69.279855 
L 437.975769 69.325628 
L 436.975769 69.386911 
L 435.975769 69.43541 
L 434.975769 69.516233 
L 433.975769 69.634752 
L 432.975769 69.704963 
L 431.975769 69.788225 
L 430.975769 69.821367 
L 429.975769 69.872604 
L 428.975769 69.941003 
L 427.975769 70.007218 
L 426.975769 70.084135 
L 425.975769 70.111451 
L 424.975769 70.137928 
L 423.975769 70.160579 
L 422.975769 70.18011 
L 421.975769 70.206504 
L 420.975769 70.256275 
L 419.975769 70.291348 
L 418.975769 70.327214 
L 417.975769 70.342581 
L 416.975769 70.35835 
L 415.975769 70.361763 
L 414.975769 70.36418 
L 413.975769 70.363694 
L 412.975769 70.361765 
L 411.975769 70.348508 
L 410.975769 70.340117 
L 409.975769 70.318581 
L 408.975769 70.295548 
L 407.975769 70.278315 
L 406.975769 70.259852 
L 405.975769 70.2394 
L 404.975769 70.2228 
L 403.975769 70.160021 
L 402.975769 70.084756 
L 401.975769 70.052117 
L 400.975769 69.984553 
L 399.975769 69.930506 
L 398.975769 69.896802 
L 397.975769 69.806676 
L 396.975769 69.778141 
L 395.975769 69.746655 
L 394.975769 69.715644 
L 393.975769 69.660836 
L 392.975769 69.596249 
L 391.975769 69.558053 
L 390.317264 69.462119 
" clip-path="url(#p8ea5844b57)" style="fill: none; stroke: #2ca02c; stroke-linecap: round"/>
             <path d="M 394.317264 71.364375 
L 393.436896 70.889044 
L 392.558989 70.40879 
L 391.708275 69.874149 
L 390.406101 69.186702 
L 391.333454 69.160687 
L 392.245128 68.747967 
L 393.155393 68.332428 
L 394.497888 67.725624 
L 393.84299 68.364375 
L 393.791025 69.364375 
L 393.731936 71.364375 
z
" clip-path="url(#p8ea5844b57)" style="fill: #ffffff; stroke: #ffffff; stroke-width: 3; stroke-linecap: round"/>
             <path d="M 394.317264 71.364375 
L 393.436896 70.889044 
L 392.558989 70.40879 
L 391.708275 69.874149 
L 390.406101 69.186702 
L 391.333454 69.160687 
L 392.245128 68.747967 
L 393.155393 68.332428 
L 394.497888 67.725624 
L 393.84299 68.364375 
L 393.791025 69.364375 
L 393.731936 71.364375 
z
" clip-path="url(#p8ea5844b57)" style="fill: #ffffff; stroke: #2ca02c; stroke-linecap: round"/>
             <g id="patch_13">
              <path d="M 171.07123 70.389118 
L 171.92272 70.914431 
L 172.771468 71.444517 
L 173.589931 72.027331 
L 174.44088 72.553585 
L 175.271358 73.115482 
L 176.119296 73.646978 
L 176.968805 74.175739 
L 177.807243 74.723775 
L 178.639334 75.282864 
L 179.59852 75.893706 
L 180.478454 76.417627 
L 181.325289 76.956765 
L 182.191558 77.45847 
L 183.059547 77.956861 
L 183.933027 78.444675 
L 184.808557 78.928541 
L 185.686318 79.408108 
L 186.548829 79.917052 
L 187.423486 80.402598 
L 188.297321 80.889729 
L 189.17315 81.373019 
L 190.055519 81.84371 
L 190.938384 82.313446 
L 191.826008 82.774015 
L 192.717919 83.226325 
L 193.610818 83.676733 
L 194.512644 84.109944 
L 195.40532 84.560783 
L 197.016795 85.363426 
L 198.00331 85.739205 
L 198.931912 86.112141 
L 199.86129 86.483337 
L 200.792027 86.851479 
L 201.718828 87.228458 
L 202.659733 87.573776 
L 203.589122 87.944945 
L 204.519956 88.312872 
L 205.462144 88.655308 
L 206.390421 89.028976 
L 207.327654 89.382535 
L 208.28627 89.688093 
L 209.22849 90.030458 
L 210.187915 90.3342 
L 211.120009 90.699298 
L 212.058414 91.050227 
L 212.991618 91.412833 
L 213.937974 91.745914 
L 215.109385 92.137979 
L 216.055372 92.414131 
L 217.021722 92.684503 
L 217.970608 93.001856 
L 218.9258 93.302247 
L 219.88697 93.586552 
L 220.84738 93.872903 
L 221.811519 94.149223 
L 222.758376 94.472037 
L 223.70494 94.795636 
L 224.650171 95.122823 
L 225.594316 95.452933 
L 226.540851 95.77661 
L 227.495532 96.078376 
L 228.445091 96.393918 
L 229.394927 96.708717 
L 230.337621 97.04273 
L 231.280454 97.376367 
L 232.904978 97.976577 
L 233.801295 98.238776 
L 234.759534 98.524743 
L 235.717362 98.812093 
L 236.671956 99.110299 
L 237.627939 99.403841 
L 238.580168 99.709982 
L 239.531971 100.017557 
L 240.485429 100.319574 
L 241.438537 100.622769 
L 242.391076 100.927871 
L 243.344715 101.229281 
L 244.28517 101.574947 
L 245.22206 101.932581 
L 246.17112 102.249362 
L 247.110209 102.599614 
L 248.053157 102.936913 
L 249.001913 103.254715 
L 250.23434 103.715895 
L 251.174328 103.954638 
L 252.143257 104.203971 
L 253.112291 104.45284 
L 254.076122 104.724932 
L 255.037815 105.006566 
L 256.005278 105.262446 
L 256.960118 105.574669 
L 257.925162 105.841344 
L 258.891341 106.102956 
L 259.858382 106.360718 
L 260.810505 106.685073 
L 261.777217 106.944303 
L 262.739445 107.22355 
L 263.699963 107.510429 
L 264.65293 107.831015 
L 265.620657 108.085717 
L 267.540704 108.562874 
L 268.554914 108.785662 
L 269.536601 108.982297 
L 270.514007 109.207465 
L 271.498397 109.386096 
L 272.477002 109.60327 
L 273.462366 109.775407 
L 274.447041 109.95214 
L 275.429761 110.1419 
L 276.415481 110.311666 
L 277.402334 110.473888 
L 278.387291 110.648744 
L 279.374832 110.80638 
L 280.361908 110.967118 
L 281.34919 111.126479 
L 282.337272 111.280511 
L 283.325488 111.433651 
L 285.039107 111.685241 
L 286.109381 111.756013 
L 287.107069 111.82439 
L 288.106067 111.87555 
L 289.104973 111.927923 
L 290.104836 111.96772 
L 291.103923 112.017706 
L 292.102734 112.071322 
L 293.105069 112.078633 
L 294.107841 112.080187 
L 295.112089 112.062351 
L 296.11308 112.08732 
L 297.11429 112.109415 
L 298.114082 112.150139 
L 299.119249 112.12023 
L 300.120331 112.14399 
L 301.120249 112.183063 
L 302.696774 112.271904 
L 303.714395 112.213461 
L 304.71453 112.148071 
L 305.714627 112.101195 
L 306.714757 112.038033 
L 307.714833 112.001876 
L 308.714916 111.96191 
L 309.714999 111.921923 
L 310.715118 111.864437 
L 311.715345 111.753307 
L 312.715449 111.703086 
L 313.715527 111.665699 
L 314.715621 111.620627 
L 315.715734 111.565878 
L 316.715798 111.535245 
L 317.71587 111.501097 
L 318.715933 111.471037 
L 320.236572 111.439844 
L 321.183104 111.311341 
L 322.177266 111.194363 
L 323.172547 111.092907 
L 324.166335 110.970742 
L 325.161934 110.8737 
L 326.157831 110.780794 
L 327.152728 110.674007 
L 328.148392 110.57787 
L 329.144792 110.49193 
L 330.140841 110.401128 
L 331.137126 110.313598 
L 332.133635 110.229169 
L 333.130626 110.151439 
L 334.127542 110.072665 
L 335.124582 109.995595 
L 336.122121 109.925463 
L 337.676761 109.816113 
L 338.595371 109.690306 
L 339.588926 109.573499 
L 340.584733 109.47208 
L 341.577197 109.347806 
L 342.572597 109.243602 
L 343.567866 109.13851 
L 344.560101 109.012673 
L 345.552828 108.890199 
L 346.551945 108.811404 
L 347.548609 108.715844 
L 348.548747 108.644029 
L 349.542748 108.530268 
L 350.543308 108.461338 
L 351.53832 108.354487 
L 352.538517 108.283078 
L 353.543048 108.241295 
L 355.227161 108.065507 
L 356.213352 107.955289 
L 357.201734 107.793649 
L 358.20486 107.698863 
L 359.196589 107.552402 
L 360.198071 107.450159 
L 361.185412 107.283798 
L 362.169613 107.103202 
L 363.165833 106.9771 
L 364.15389 106.813988 
L 365.149356 106.684469 
L 366.14079 106.536666 
L 367.127395 106.366969 
L 368.119445 106.221958 
L 369.106777 106.055559 
L 370.087056 105.857177 
L 371.069406 105.668182 
L 372.947044 105.273983 
L 373.972834 104.993976 
L 374.942825 104.747844 
L 375.906646 104.480788 
L 376.868186 104.205996 
L 377.828581 103.92732 
L 378.789608 103.650789 
L 379.748061 103.365528 
L 380.705691 103.077474 
L 381.660218 102.778897 
L 382.61036 102.465448 
L 383.558792 102.146199 
L 384.508122 101.829997 
L 385.449457 101.486682 
L 386.402571 101.183311 
L 387.347428 100.851941 
L 388.299543 100.545184 
L 389.242983 100.209003 
L 390.418684 99.829781 
L 391.379051 99.423215 
L 392.30589 99.046353 
L 393.216131 98.624539 
L 394.130351 98.2135 
L 395.02837 97.758585 
L 395.94032 97.341399 
L 396.838399 96.886646 
L 397.748961 96.465702 
L 398.649494 96.017594 
L 399.573952 95.634284 
L 400.476415 95.191404 
L 401.379941 94.751405 
L 402.302276 94.362344 
L 403.228482 93.983766 
L 404.14858 93.588647 
L 405.072941 93.205075 
L 405.998734 92.825379 
L 407.510667 92.195007 
L 408.372225 91.768611 
L 409.265821 91.31691 
L 410.159894 90.866284 
L 411.053253 90.414046 
L 411.949381 89.96805 
L 412.85452 89.542366 
L 413.762281 89.122589 
L 414.659136 88.678232 
L 415.567176 88.259085 
L 416.472028 87.832753 
L 417.377858 87.408625 
L 418.289577 86.997769 
L 419.20264 86.589943 
L 420.117949 86.18718 
L 421.036722 85.792223 
L 421.957654 85.402132 
L 422.884564 85.025515 
L 423.804345 84.632831 
L 424.847906 84.227444 
L 425.710924 83.83373 
L 426.623965 83.422209 
L 427.532242 83.001495 
L 428.452317 82.60355 
L 429.36337 82.188195 
L 430.276045 81.775969 
L 431.195866 81.377533 
L 432.110143 80.968397 
L 433.021096 80.552849 
L 433.94447 80.16127 
L 434.859116 79.752847 
L 435.774888 79.346597 
L 436.679877 78.919538 
L 437.597697 78.517242 
L 438.533939 78.150496 
L 439.449557 77.743947 
L 440.381746 77.36938 
L 441.284343 76.937706 
L 442.794043 76.212851 
L 443.729734 75.810619 
L 444.61462 75.343465 
L 445.50968 74.894031 
L 446.392041 74.422479 
L 447.303285 74.001236 
L 448.192811 73.542162 
L 449.100322 73.114416 
L 449.997505 72.668682 
L 450.896153 72.225498 
L 451.833595 71.713759 
" clip-path="url(#p8ea5844b57)" style="fill: none; stroke: #ffffff; stroke-width: 3; stroke-linecap: round"/>
              <path d="M 171.07123 70.389118 
L 171.92272 70.914431 
L 172.771468 71.444517 
L 173.589931 72.027331 
L 174.44088 72.553585 
L 175.271358 73.115482 
L 176.119296 73.646978 
L 176.968805 74.175739 
L 177.807243 74.723775 
L 178.639334 75.282864 
L 179.59852 75.893706 
L 180.478454 76.417627 
L 181.325289 76.956765 
L 182.191558 77.45847 
L 183.059547 77.956861 
L 183.933027 78.444675 
L 184.808557 78.928541 
L 185.686318 79.408108 
L 186.548829 79.917052 
L 187.423486 80.402598 
L 188.297321 80.889729 
L 189.17315 81.373019 
L 190.055519 81.84371 
L 190.938384 82.313446 
L 191.826008 82.774015 
L 192.717919 83.226325 
L 193.610818 83.676733 
L 194.512644 84.109944 
L 195.40532 84.560783 
L 197.016795 85.363426 
L 198.00331 85.739205 
L 198.931912 86.112141 
L 199.86129 86.483337 
L 200.792027 86.851479 
L 201.718828 87.228458 
L 202.659733 87.573776 
L 203.589122 87.944945 
L 204.519956 88.312872 
L 205.462144 88.655308 
L 206.390421 89.028976 
L 207.327654 89.382535 
L 208.28627 89.688093 
L 209.22849 90.030458 
L 210.187915 90.3342 
L 211.120009 90.699298 
L 212.058414 91.050227 
L 212.991618 91.412833 
L 213.937974 91.745914 
L 215.109385 92.137979 
L 216.055372 92.414131 
L 217.021722 92.684503 
L 217.970608 93.001856 
L 218.9258 93.302247 
L 219.88697 93.586552 
L 220.84738 93.872903 
L 221.811519 94.149223 
L 222.758376 94.472037 
L 223.70494 94.795636 
L 224.650171 95.122823 
L 225.594316 95.452933 
L 226.540851 95.77661 
L 227.495532 96.078376 
L 228.445091 96.393918 
L 229.394927 96.708717 
L 230.337621 97.04273 
L 231.280454 97.376367 
L 232.904978 97.976577 
L 233.801295 98.238776 
L 234.759534 98.524743 
L 235.717362 98.812093 
L 236.671956 99.110299 
L 237.627939 99.403841 
L 238.580168 99.709982 
L 239.531971 100.017557 
L 240.485429 100.319574 
L 241.438537 100.622769 
L 242.391076 100.927871 
L 243.344715 101.229281 
L 244.28517 101.574947 
L 245.22206 101.932581 
L 246.17112 102.249362 
L 247.110209 102.599614 
L 248.053157 102.936913 
L 249.001913 103.254715 
L 250.23434 103.715895 
L 251.174328 103.954638 
L 252.143257 104.203971 
L 253.112291 104.45284 
L 254.076122 104.724932 
L 255.037815 105.006566 
L 256.005278 105.262446 
L 256.960118 105.574669 
L 257.925162 105.841344 
L 258.891341 106.102956 
L 259.858382 106.360718 
L 260.810505 106.685073 
L 261.777217 106.944303 
L 262.739445 107.22355 
L 263.699963 107.510429 
L 264.65293 107.831015 
L 265.620657 108.085717 
L 267.540704 108.562874 
L 268.554914 108.785662 
L 269.536601 108.982297 
L 270.514007 109.207465 
L 271.498397 109.386096 
L 272.477002 109.60327 
L 273.462366 109.775407 
L 274.447041 109.95214 
L 275.429761 110.1419 
L 276.415481 110.311666 
L 277.402334 110.473888 
L 278.387291 110.648744 
L 279.374832 110.80638 
L 280.361908 110.967118 
L 281.34919 111.126479 
L 282.337272 111.280511 
L 283.325488 111.433651 
L 285.039107 111.685241 
L 286.109381 111.756013 
L 287.107069 111.82439 
L 288.106067 111.87555 
L 289.104973 111.927923 
L 290.104836 111.96772 
L 291.103923 112.017706 
L 292.102734 112.071322 
L 293.105069 112.078633 
L 294.107841 112.080187 
L 295.112089 112.062351 
L 296.11308 112.08732 
L 297.11429 112.109415 
L 298.114082 112.150139 
L 299.119249 112.12023 
L 300.120331 112.14399 
L 301.120249 112.183063 
L 302.696774 112.271904 
L 303.714395 112.213461 
L 304.71453 112.148071 
L 305.714627 112.101195 
L 306.714757 112.038033 
L 307.714833 112.001876 
L 308.714916 111.96191 
L 309.714999 111.921923 
L 310.715118 111.864437 
L 311.715345 111.753307 
L 312.715449 111.703086 
L 313.715527 111.665699 
L 314.715621 111.620627 
L 315.715734 111.565878 
L 316.715798 111.535245 
L 317.71587 111.501097 
L 318.715933 111.471037 
L 320.236572 111.439844 
L 321.183104 111.311341 
L 322.177266 111.194363 
L 323.172547 111.092907 
L 324.166335 110.970742 
L 325.161934 110.8737 
L 326.157831 110.780794 
L 327.152728 110.674007 
L 328.148392 110.57787 
L 329.144792 110.49193 
L 330.140841 110.401128 
L 331.137126 110.313598 
L 332.133635 110.229169 
L 333.130626 110.151439 
L 334.127542 110.072665 
L 335.124582 109.995595 
L 336.122121 109.925463 
L 337.676761 109.816113 
L 338.595371 109.690306 
L 339.588926 109.573499 
L 340.584733 109.47208 
L 341.577197 109.347806 
L 342.572597 109.243602 
L 343.567866 109.13851 
L 344.560101 109.012673 
L 345.552828 108.890199 
L 346.551945 108.811404 
L 347.548609 108.715844 
L 348.548747 108.644029 
L 349.542748 108.530268 
L 350.543308 108.461338 
L 351.53832 108.354487 
L 352.538517 108.283078 
L 353.543048 108.241295 
L 355.227161 108.065507 
L 356.213352 107.955289 
L 357.201734 107.793649 
L 358.20486 107.698863 
L 359.196589 107.552402 
L 360.198071 107.450159 
L 361.185412 107.283798 
L 362.169613 107.103202 
L 363.165833 106.9771 
L 364.15389 106.813988 
L 365.149356 106.684469 
L 366.14079 106.536666 
L 367.127395 106.366969 
L 368.119445 106.221958 
L 369.106777 106.055559 
L 370.087056 105.857177 
L 371.069406 105.668182 
L 372.947044 105.273983 
L 373.972834 104.993976 
L 374.942825 104.747844 
L 375.906646 104.480788 
L 376.868186 104.205996 
L 377.828581 103.92732 
L 378.789608 103.650789 
L 379.748061 103.365528 
L 380.705691 103.077474 
L 381.660218 102.778897 
L 382.61036 102.465448 
L 383.558792 102.146199 
L 384.508122 101.829997 
L 385.449457 101.486682 
L 386.402571 101.183311 
L 387.347428 100.851941 
L 388.299543 100.545184 
L 389.242983 100.209003 
L 390.418684 99.829781 
L 391.379051 99.423215 
L 392.30589 99.046353 
L 393.216131 98.624539 
L 394.130351 98.2135 
L 395.02837 97.758585 
L 395.94032 97.341399 
L 396.838399 96.886646 
L 397.748961 96.465702 
L 398.649494 96.017594 
L 399.573952 95.634284 
L 400.476415 95.191404 
L 401.379941 94.751405 
L 402.302276 94.362344 
L 403.228482 93.983766 
L 404.14858 93.588647 
L 405.072941 93.205075 
L 405.998734 92.825379 
L 407.510667 92.195007 
L 408.372225 91.768611 
L 409.265821 91.31691 
L 410.159894 90.866284 
L 411.053253 90.414046 
L 411.949381 89.96805 
L 412.85452 89.542366 
L 413.762281 89.122589 
L 414.659136 88.678232 
L 415.567176 88.259085 
L 416.472028 87.832753 
L 417.377858 87.408625 
L 418.289577 86.997769 
L 419.20264 86.589943 
L 420.117949 86.18718 
L 421.036722 85.792223 
L 421.957654 85.402132 
L 422.884564 85.025515 
L 423.804345 84.632831 
L 424.847906 84.227444 
L 425.710924 83.83373 
L 426.623965 83.422209 
L 427.532242 83.001495 
L 428.452317 82.60355 
L 429.36337 82.188195 
L 430.276045 81.775969 
L 431.195866 81.377533 
L 432.110143 80.968397 
L 433.021096 80.552849 
L 433.94447 80.16127 
L 434.859116 79.752847 
L 435.774888 79.346597 
L 436.679877 78.919538 
L 437.597697 78.517242 
L 438.533939 78.150496 
L 439.449557 77.743947 
L 440.381746 77.36938 
L 441.284343 76.937706 
L 442.794043 76.212851 
L 443.729734 75.810619 
L 444.61462 75.343465 
L 445.50968 74.894031 
L 446.392041 74.422479 
L 447.303285 74.001236 
L 448.192811 73.542162 
L 449.100322 73.114416 
L 449.997505 72.668682 
L 450.896153 72.225498 
L 451.833595 71.713759 
" clip-path="url(#p8ea5844b57)" style="fill: none; stroke: #1f77b4; stroke-linecap: round"/>
              <path d="M 446.939081 71.277387 
L 447.938774 71.237369 
L 448.93886 71.20284 
L 449.943286 71.228963 
L 451.413989 71.156328 
L 450.629521 71.651576 
L 450.055725 72.471482 
L 449.48458 73.293095 
L 448.639147 74.499639 
L 448.876801 73.616228 
L 448.41159 72.729504 
L 447.952508 71.839147 
L 447.518572 70.933885 
z
" clip-path="url(#p8ea5844b57)" style="fill: #ffffff; stroke: #ffffff; stroke-width: 3; stroke-linecap: round"/>
              <path d="M 446.939081 71.277387 
L 447.938774 71.237369 
L 448.93886 71.20284 
L 449.943286 71.228963 
L 451.413989 71.156328 
L 450.629521 71.651576 
L 450.055725 72.471482 
L 449.48458 73.293095 
L 448.639147 74.499639 
L 448.876801 73.616228 
L 448.41159 72.729504 
L 447.952508 71.839147 
L 447.518572 70.933885 
z
" clip-path="url(#p8ea5844b57)" style="fill: #ffffff; stroke: #1f77b4; stroke-linecap: round"/>
              <g id="patch_14">
               <path d="M 358.849969 68.796087 
L 359.822585 68.561552 
L 360.796659 68.332325 
L 361.786837 68.161732 
L 362.75974 67.928244 
L 363.74353 67.734391 
L 364.718034 67.506731 
L 365.691703 67.276032 
L 366.671259 67.066765 
L 368.586954 66.6136 
L 369.551176 66.45491 
L 370.540453 66.297361 
L 371.536023 66.168357 
L 372.522514 65.998165 
L 373.508201 65.824328 
L 374.491323 65.638852 
L 375.473487 65.449032 
L 376.454608 65.254481 
L 377.442855 65.092255 
L 378.425427 64.904284 
L 379.408383 64.718057 
L 380.390407 64.527602 
L 381.369376 64.323286 
L 382.348114 64.117918 
L 383.324628 63.902465 
L 384.299139 63.677924 
L 385.273188 63.451289 
L 386.243067 63.205733 
L 387.860217 62.837843 
L 388.780571 62.673614 
L 389.761067 62.468185 
L 390.744867 62.285098 
L 391.728388 62.100128 
L 392.711421 61.911849 
L 393.695868 61.733142 
L 394.675245 61.520146 
L 395.658762 61.335145 
L 396.64176 61.146635 
L 397.620675 60.930519 
L 398.604593 60.748224 
L 399.585289 60.544154 
L 400.558299 60.2881 
L 401.537203 60.071907 
L 402.509921 59.813887 
L 403.492466 59.622312 
L 404.472741 59.415393 
L 405.454887 59.22112 
L 406.800792 58.940377 
L 407.799953 58.746098 
L 408.791887 58.601198 
L 409.782844 58.443283 
L 410.777554 58.335348 
L 411.770909 58.209369 
L 412.762979 58.066276 
L 413.755213 57.925361 
L 414.746645 57.773773 
L 415.741792 57.671649 
L 416.737001 57.570359 
L 417.732497 57.472886 
L 418.728226 57.378523 
L 419.723442 57.277318 
L 420.716907 57.1528 
L 421.711472 57.04294 
L 422.705979 56.932288 
L 423.70202 56.842078 
L 424.698031 56.751467 
L 425.878853 56.659369 
L 426.95149 56.6521 
L 427.951489 56.650534 
L 428.951491 56.650412 
L 429.951516 56.661616 
L 430.951531 56.667955 
L 431.951573 56.687439 
L 432.951618 56.708419 
L 433.951651 56.723601 
L 434.951687 56.740011 
L 435.951727 56.758412 
L 436.951759 56.772959 
L 437.951886 56.833686 
L 438.952038 56.906898 
L 439.952103 56.937486 
L 440.952239 57.002997 
L 441.952348 57.054992 
L 442.952415 57.086644 
L 443.952598 57.174717 
L 445.049698 57.201001 
L 446.075187 57.304523 
L 447.070455 57.406524 
L 448.064031 57.532263 
L 449.056912 57.667757 
L 450.051669 57.776925 
L 451.042322 57.943686 
L 452.036293 58.063889 
L 453.030632 58.178917 
L 454.025252 58.290009 
L 455.015022 58.469171 
L 456.009535 58.581764 
L 457.00259 58.714817 
L 457.995089 58.855672 
L 458.985133 59.030982 
L 459.979976 59.138946 
L 460.974187 59.255776 
L 461.96679 59.395167 
L 462.960797 59.514859 
L 464.06427 59.671276 
L 464.998998 59.83936 
L 465.978712 60.051472 
L 466.964954 60.218512 
L 467.950529 60.390153 
L 468.934216 60.57483 
L 469.920801 60.739498 
L 470.90848 60.896617 
L 471.894327 61.066379 
L 472.88267 61.218908 
L 473.870563 61.374541 
L 474.858656 61.528796 
L 475.847521 61.677718 
L 476.836516 61.825747 
L 477.826988 61.963572 
L 478.818569 62.093736 
L 479.809324 62.229611 
L 480.802553 62.348397 
L 481.795608 62.468387 
L 483.016546 62.608632 
L 483.936542 62.785517 
L 484.918234 62.977295 
L 485.909844 63.123706 
L 486.902688 63.264476 
L 487.899686 63.38625 
L 488.887514 63.54996 
L 489.875958 63.710856 
L 490.860412 63.890003 
L 491.859995 63.999948 
L 492.848082 64.162475 
L 493.832889 64.340004 
L 494.816442 64.523274 
L 495.806428 64.677114 
L 496.797753 64.824835 
L 497.785123 64.990642 
L 498.775971 65.140539 
L 499.761052 65.316817 
L 500.746946 65.489375 
L 502.167688 65.756982 
L 503.154336 65.965592 
L 504.148667 66.120868 
L 505.126893 66.334886 
L 506.101726 66.561279 
L 507.078591 66.780262 
L 508.058015 66.989912 
L 509.031062 67.22282 
L 510.005039 67.452338 
L 511.783868 67.906757 
" clip-path="url(#p8ea5844b57)" style="fill: none; stroke: #ffffff; stroke-width: 3; stroke-linecap: round"/>
               <path d="M 358.849969 68.796087 
L 359.822585 68.561552 
L 360.796659 68.332325 
L 361.786837 68.161732 
L 362.75974 67.928244 
L 363.74353 67.734391 
L 364.718034 67.506731 
L 365.691703 67.276032 
L 366.671259 67.066765 
L 368.586954 66.6136 
L 369.551176 66.45491 
L 370.540453 66.297361 
L 371.536023 66.168357 
L 372.522514 65.998165 
L 373.508201 65.824328 
L 374.491323 65.638852 
L 375.473487 65.449032 
L 376.454608 65.254481 
L 377.442855 65.092255 
L 378.425427 64.904284 
L 379.408383 64.718057 
L 380.390407 64.527602 
L 381.369376 64.323286 
L 382.348114 64.117918 
L 383.324628 63.902465 
L 384.299139 63.677924 
L 385.273188 63.451289 
L 386.243067 63.205733 
L 387.860217 62.837843 
L 388.780571 62.673614 
L 389.761067 62.468185 
L 390.744867 62.285098 
L 391.728388 62.100128 
L 392.711421 61.911849 
L 393.695868 61.733142 
L 394.675245 61.520146 
L 395.658762 61.335145 
L 396.64176 61.146635 
L 397.620675 60.930519 
L 398.604593 60.748224 
L 399.585289 60.544154 
L 400.558299 60.2881 
L 401.537203 60.071907 
L 402.509921 59.813887 
L 403.492466 59.622312 
L 404.472741 59.415393 
L 405.454887 59.22112 
L 406.800792 58.940377 
L 407.799953 58.746098 
L 408.791887 58.601198 
L 409.782844 58.443283 
L 410.777554 58.335348 
L 411.770909 58.209369 
L 412.762979 58.066276 
L 413.755213 57.925361 
L 414.746645 57.773773 
L 415.741792 57.671649 
L 416.737001 57.570359 
L 417.732497 57.472886 
L 418.728226 57.378523 
L 419.723442 57.277318 
L 420.716907 57.1528 
L 421.711472 57.04294 
L 422.705979 56.932288 
L 423.70202 56.842078 
L 424.698031 56.751467 
L 425.878853 56.659369 
L 426.95149 56.6521 
L 427.951489 56.650534 
L 428.951491 56.650412 
L 429.951516 56.661616 
L 430.951531 56.667955 
L 431.951573 56.687439 
L 432.951618 56.708419 
L 433.951651 56.723601 
L 434.951687 56.740011 
L 435.951727 56.758412 
L 436.951759 56.772959 
L 437.951886 56.833686 
L 438.952038 56.906898 
L 439.952103 56.937486 
L 440.952239 57.002997 
L 441.952348 57.054992 
L 442.952415 57.086644 
L 443.952598 57.174717 
L 445.049698 57.201001 
L 446.075187 57.304523 
L 447.070455 57.406524 
L 448.064031 57.532263 
L 449.056912 57.667757 
L 450.051669 57.776925 
L 451.042322 57.943686 
L 452.036293 58.063889 
L 453.030632 58.178917 
L 454.025252 58.290009 
L 455.015022 58.469171 
L 456.009535 58.581764 
L 457.00259 58.714817 
L 457.995089 58.855672 
L 458.985133 59.030982 
L 459.979976 59.138946 
L 460.974187 59.255776 
L 461.96679 59.395167 
L 462.960797 59.514859 
L 464.06427 59.671276 
L 464.998998 59.83936 
L 465.978712 60.051472 
L 466.964954 60.218512 
L 467.950529 60.390153 
L 468.934216 60.57483 
L 469.920801 60.739498 
L 470.90848 60.896617 
L 471.894327 61.066379 
L 472.88267 61.218908 
L 473.870563 61.374541 
L 474.858656 61.528796 
L 475.847521 61.677718 
L 476.836516 61.825747 
L 477.826988 61.963572 
L 478.818569 62.093736 
L 479.809324 62.229611 
L 480.802553 62.348397 
L 481.795608 62.468387 
L 483.016546 62.608632 
L 483.936542 62.785517 
L 484.918234 62.977295 
L 485.909844 63.123706 
L 486.902688 63.264476 
L 487.899686 63.38625 
L 488.887514 63.54996 
L 489.875958 63.710856 
L 490.860412 63.890003 
L 491.859995 63.999948 
L 492.848082 64.162475 
L 493.832889 64.340004 
L 494.816442 64.523274 
L 495.806428 64.677114 
L 496.797753 64.824835 
L 497.785123 64.990642 
L 498.775971 65.140539 
L 499.761052 65.316817 
L 500.746946 65.489375 
L 502.167688 65.756982 
L 503.154336 65.965592 
L 504.148667 66.120868 
L 505.126893 66.334886 
L 506.101726 66.561279 
L 507.078591 66.780262 
L 508.058015 66.989912 
L 509.031062 67.22282 
L 510.005039 67.452338 
L 511.783868 67.906757 
" clip-path="url(#p8ea5844b57)" style="fill: none; stroke: #ff7f0e; stroke-linecap: round"/>
               <path d="M 508.348925 65.439416 
L 509.06031 66.142922 
L 509.767949 66.850461 
L 510.434212 67.602557 
L 511.490828 68.628132 
L 510.593511 68.392584 
L 509.602607 68.532573 
L 508.612264 68.675664 
L 507.153365 68.880895 
L 507.961331 68.451842 
L 508.292126 67.50671 
L 508.629759 66.563579 
L 508.995447 65.62866 
z
" clip-path="url(#p8ea5844b57)" style="fill: #ffffff; stroke: #ffffff; stroke-width: 3; stroke-linecap: round"/>
               <path d="M 508.348925 65.439416 
L 509.06031 66.142922 
L 509.767949 66.850461 
L 510.434212 67.602557 
L 511.490828 68.628132 
L 510.593511 68.392584 
L 509.602607 68.532573 
L 508.612264 68.675664 
L 507.153365 68.880895 
L 507.961331 68.451842 
L 508.292126 67.50671 
L 508.629759 66.563579 
L 508.995447 65.62866 
z
" clip-path="url(#p8ea5844b57)" style="fill: #ffffff; stroke: #ff7f0e; stroke-linecap: round"/>
               <g id="patch_15">
                <path d="M 53.328125 318.021875 
L 53.328125 7.2 
" style="fill: none; stroke: #000000; stroke-width: 0.8; stroke-linejoin: miter; stroke-linecap: square"/>
               </g>
               <g id="text_12">
                <g id="patch_16">
                 <path d="M 135.664353 45.12125 
L 142.504978 45.12125 
Q 144.504978 45.12125 144.504978 43.12125 
L 144.504978 33.443125 
Q 144.504978 31.443125 142.504978 31.443125 
L 135.664353 31.443125 
Q 133.664353 31.443125 133.664353 33.443125 
L 133.664353 43.12125 
Q 133.664353 45.12125 135.664353 45.12125 
z
" style="fill: #ffffff; opacity: 0.6"/>
                </g>
                <!-- A -->
                <g transform="translate(135.664353 41.041562) scale(0.1 -0.1)">
                 <defs>
                  <path id="DejaVuSans-41" d="M 2188 4044 
L 1331 1722 
L 3047 1722 
L 2188 4044 
z
M 1831 4666 
L 2547 4666 
L 4325 0 
L 3669 0 
L 3244 1197 
L 1141 1197 
L 716 0 
L 50 0 
L 1831 4666 
z
" transform="scale(0.015625)"/>
                 </defs>
                 <use xlink:href="#DejaVuSans-41"/>
                </g>
               </g>
               <g id="text_13">
                <g id="patch_17">
                 <path d="M 323.233594 45.12125 
L 330.094532 45.12125 
Q 332.094532 45.12125 332.094532 43.12125 
L 332.094532 33.443125 
Q 332.094532 31.443125 330.094532 31.443125 
L 323.233594 31.443125 
Q 321.233594 31.443125 321.233594 33.443125 
L 321.233594 43.12125 
Q 321.233594 45.12125 323.233594 45.12125 
z
" style="fill: #ffffff; opacity: 0.6"/>
                </g>
                <!-- B -->
                <g transform="translate(323.233594 41.041562) scale(0.1 -0.1)">
                 <defs>
                  <path id="DejaVuSans-42" d="M 1259 2228 
L 1259 519 
L 2272 519 
Q 2781 519 3026 730 
Q 3272 941 3272 1375 
Q 3272 1813 3026 2020 
Q 2781 2228 2272 2228 
L 1259 2228 
z
M 1259 4147 
L 1259 2741 
L 2194 2741 
Q 2656 2741 2882 2914 
Q 3109 3088 3109 3444 
Q 3109 3797 2882 3972 
Q 2656 4147 2194 4147 
L 1259 4147 
z
M 628 4666 
L 2241 4666 
Q 2963 4666 3353 4366 
Q 3744 4066 3744 3513 
Q 3744 3084 3544 2831 
Q 3344 2578 2956 2516 
Q 3422 2416 3680 2098 
Q 3938 1781 3938 1306 
Q 3938 681 3513 340 
Q 3088 0 2303 0 
L 628 0 
L 628 4666 
z
" transform="scale(0.015625)"/>
                 </defs>
                 <use xlink:href="#DejaVuSans-42"/>
                </g>
               </g>
               <g id="text_14">
                <g id="patch_18">
                 <path d="M 510.752054 45.12125 
L 517.734866 45.12125 
Q 519.734866 45.12125 519.734866 43.12125 
L 519.734866 33.443125 
Q 519.734866 31.443125 517.734866 31.443125 
L 510.752054 31.443125 
Q 508.752054 31.443125 508.752054 33.443125 
L 508.752054 43.12125 
Q 508.752054 45.12125 510.752054 45.12125 
z
" style="fill: #ffffff; opacity: 0.6"/>
                </g>
                <!-- C -->
                <g transform="translate(510.752054 41.041562) scale(0.1 -0.1)">
                 <defs>
                  <path id="DejaVuSans-43" d="M 4122 4306 
L 4122 3641 
Q 3803 3938 3442 4084 
Q 3081 4231 2675 4231 
Q 1875 4231 1450 3742 
Q 1025 3253 1025 2328 
Q 1025 1406 1450 917 
Q 1875 428 2675 428 
Q 3081 428 3442 575 
Q 3803 722 4122 1019 
L 4122 359 
Q 3791 134 3420 21 
Q 3050 -91 2638 -91 
Q 1578 -91 968 557 
Q 359 1206 359 2328 
Q 359 3453 968 4101 
Q 1578 4750 2638 4750 
Q 3056 4750 3426 4639 
Q 3797 4528 4122 4306 
z
" transform="scale(0.015625)"/>
                 </defs>
                 <use xlink:href="#DejaVuSans-43"/>
                </g>
               </g>
              </g>
             </g>
             <defs>
              <clipPath id="p8ea5844b57">
               <rect x="53.328125" y="7.2" width="546.671875" height="310.821875"/>
              </clipPath>
             </defs>
            </g>
           </g>
          </g>
         </g>
        </g>
       </g>
      </g>
     </g>
    </g>
   </g>
  </g>
 </g>
</svg>