<?xml version="1.0" encoding="utf-8" standalone="no"?>
<!DOCTYPE svg PUBLIC "-//W3C//DTD SVG 1.1//EN"
  "http://www.w3.org/Graphics/SVG/1.1/DTD/svg11.dtd">
<svg xmlns:xlink="http://www.w3.org/1999/xlink" width="607.2pt" height="338.4pt" viewBox="0 0 607.2 338.4" xmlns="http://www.w3.org/2000/svg" version="1.1">
 <metadata>
  <rdf:RDF xmlns:dc="http://purl.org/dc/elements/1.1/" xmlns:cc="http://creativecommons.org/ns#" xmlns:rdf="http://www.w3.org/1999/02/22-rdf-syntax-ns#">
   <cc:Work>
    <dc:type rdf:resource="http://purl.org/dc/dcmitype/StillImage"/>
    <dc:date>2023-05-15T09:10:57.447915</dc:date>
    <dc:format>image/svg+xml</dc:format>
    <dc:creator>
     <cc:Agent>
      <dc:title>Matplotlib v3.7.1, https://matplotlib.org/</dc:title>
     </cc:Agent>
    </dc:creator>
   </cc:Work>
  </rdf:RDF>
 </metadata>
 <defs>
  <style type="text/css">*{stroke-linejoin: round; stroke-linecap: butt}</style>
 </defs>
 <g id="figure_1">
  <g id="patch_1">
   <path d="M 0 338.4 
L 607.2 338.4 
L 607.2 0 
L 0 0 
z
" style="fill: #ffffff"/>
  </g>
  <g id="axes_1">
   <g id="patch_2">
    <path d="M 45.478125 318.021875 
L 600 318.021875 
L 600 22.318125 
L 45.478125 22.318125 
z
" style="fill: #ffffff"/>
   </g>
   <g id="patch_3">
    <path d="M 311.999552 22.318125 
L 311.999552 81.458875 
M 333.478573 22.318125 
L 333.478573 81.458875 
" clip-path="url(#p2ccb9475f7)" style="fill: none; stroke: #ffffff; stroke-width: 3; stroke-linejoin: miter"/>
    <path d="M 311.999552 22.318125 
L 311.999552 81.458875 
M 333.478573 22.318125 
L 333.478573 81.458875 
" clip-path="url(#p2ccb9475f7)" style="fill: none; stroke: #1f77b4; stroke-linejoin: miter"/>
    <g id="PolyCollection_1">
     <path d="M 333.478573 22.318125 
L 311.999552 22.318125 
L 311.999552 81.458875 
L 333.478573 81.458875 
L 333.478573 81.458875 
L 333.478573 22.318125 
z
" clip-path="url(#p2ccb9475f7)" style="fill: #1f77b4; fill-opacity: 0.5"/>
    </g>
    <g id="patch_4">
     <path d="M 70.683665 81.458875 
L 70.683665 105.196395 
L 177.00482 105.196395 
L 177.00482 160.313208 
L 70.683665 160.313208 
L 70.683665 339.4 
M 285.473876 81.458875 
L 285.473876 105.196395 
L 179.152722 105.196395 
L 179.152722 160.313208 
L 285.473876 160.313208 
L 285.473876 339.4 
" clip-path="url(#p2ccb9475f7)" style="fill: none; stroke: #ffffff; stroke-width: 3; stroke-linejoin: miter"/>
     <path d="M 70.683665 81.458875 
L 70.683665 105.196395 
L 177.00482 105.196395 
L 177.00482 160.313208 
L 70.683665 160.313208 
L 70.683665 339.4 
M 285.473876 81.458875 
L 285.473876 105.196395 
L 179.152722 105.196395 
L 179.152722 160.313208 
L 285.473876 160.313208 
L 285.473876 339.4 
" clip-path="url(#p2ccb9475f7)" style="fill: none; stroke: #ff7f0e; stroke-linejoin: miter"/>
     <g id="PolyCollection_2">
      <path d="M 285.473876 81.458875 
L 70.683665 81.458875 
L 70.683665 105.196395 
L 177.00482 105.196395 
L 177.00482 160.313208 
L 70.683665 160.313208 
L 70.683665 79172.355208 
L 285.473876 79172.355208 
L 285.473876 79172.355208 
L 285.473876 160.313208 
L 179.152722 160.313208 
L 179.152722 105.196395 
L 285.473876 105.196395 
L 285.473876 81.458875 
z
" clip-path="url(#p2ccb9475f7)" style="fill: #ff7f0e; fill-opacity: 0.5"/>
     </g>
     <g id="patch_5">
      <path d="M 360.004249 81.458875 
L 360.004249 105.196395 
L 466.325403 105.196395 
L 466.325403 339.4 
M 574.79446 81.458875 
L 574.79446 105.196395 
L 468.473305 105.196395 
L 468.473305 339.4 
" clip-path="url(#p2ccb9475f7)" style="fill: none; stroke: #ffffff; stroke-width: 3; stroke-linejoin: miter"/>
      <path d="M 360.004249 81.458875 
L 360.004249 105.196395 
L 466.325403 105.196395 
L 466.325403 339.4 
M 574.79446 81.458875 
L 574.79446 105.196395 
L 468.473305 105.196395 
L 468.473305 339.4 
" clip-path="url(#p2ccb9475f7)" style="fill: none; stroke: #2ca02c; stroke-linejoin: miter"/>
      <g id="PolyCollection_3">
       <path d="M 574.79446 81.458875 
L 360.004249 81.458875 
L 360.004249 105.196395 
L 466.325403 105.196395 
L 466.325403 79172.355208 
L 468.473305 79172.355208 
L 468.473305 79172.355208 
L 468.473305 105.196395 
L 574.79446 105.196395 
L 574.79446 81.458875 
z
" clip-path="url(#p2ccb9475f7)" style="fill: #2ca02c; fill-opacity: 0.5"/>
      </g>
      <g id="matplotlib.axis_1">
       <g id="xtick_1">
        <g id="line2d_1"/>
        <g id="text_1">
         <!-- pop1 -->
         <g transform="translate(165.489708 329.120312) scale(0.1 -0.1)">
          <defs>
           <path id="DejaVuSans-70" d="M 1159 525 
L 1159 -1331 
L 581 -1331 
L 581 3500 
L 1159 3500 
L 1159 2969 
Q 1341 3281 1617 3432 
Q 1894 3584 2278 3584 
Q 2916 3584 3314 3078 
Q 3713 2572 3713 1747 
Q 3713 922 3314 415 
Q 2916 -91 2278 -91 
Q 1894 -91 1617 61 
Q 1341 213 1159 525 
z
M 3116 1747 
Q 3116 2381 2855 2742 
Q 2594 3103 2138 3103 
Q 1681 3103 1420 2742 
Q 1159 2381 1159 1747 
Q 1159 1113 1420 752 
Q 1681 391 2138 391 
Q 2594 391 2855 752 
Q 3116 1113 3116 1747 
z
" transform="scale(0.015625)"/>
           <path id="DejaVuSans-6f" d="M 1959 3097 
Q 1497 3097 1228 2736 
Q 959 2375 959 1747 
Q 959 1119 1226 758 
Q 1494 397 1959 397 
Q 2419 397 2687 759 
Q 2956 1122 2956 1747 
Q 2956 2369 2687 2733 
Q 2419 3097 1959 3097 
z
M 1959 3584 
Q 2709 3584 3137 3096 
Q 3566 2609 3566 1747 
Q 3566 888 3137 398 
Q 2709 -91 1959 -91 
Q 1206 -91 779 398 
Q 353 888 353 1747 
Q 353 2609 779 3096 
Q 1206 3584 1959 3584 
z
" transform="scale(0.015625)"/>
           <path id="DejaVuSans-31" d="M 794 531 
L 1825 531 
L 1825 4091 
L 703 3866 
L 703 4441 
L 1819 4666 
L 2450 4666 
L 2450 531 
L 3481 531 
L 3481 0 
L 794 0 
L 794 531 
z
" transform="scale(0.015625)"/>
          </defs>
          <use xlink:href="#DejaVuSans-70"/>
          <use xlink:href="#DejaVuSans-6f" x="63.476562"/>
          <use xlink:href="#DejaVuSans-70" x="124.658203"/>
          <use xlink:href="#DejaVuSans-31" x="188.134766"/>
         </g>
        </g>
       </g>
       <g id="xtick_2">
        <g id="line2d_2"/>
        <g id="text_2">
         <!-- pop2 -->
         <g transform="translate(454.810292 329.120312) scale(0.1 -0.1)">
          <defs>
           <path id="DejaVuSans-32" d="M 1228 531 
L 3431 531 
L 3431 0 
L 469 0 
L 469 531 
Q 828 903 1448 1529 
Q 2069 2156 2228 2338 
Q 2531 2678 2651 2914 
Q 2772 3150 2772 3378 
Q 2772 3750 2511 3984 
Q 2250 4219 1831 4219 
Q 1534 4219 1204 4116 
Q 875 4013 500 3803 
L 500 4441 
Q 881 4594 1212 4672 
Q 1544 4750 1819 4750 
Q 2544 4750 2975 4387 
Q 3406 4025 3406 3419 
Q 3406 3131 3298 2873 
Q 3191 2616 2906 2266 
Q 2828 2175 2409 1742 
Q 1991 1309 1228 531 
z
" transform="scale(0.015625)"/>
          </defs>
          <use xlink:href="#DejaVuSans-70"/>
          <use xlink:href="#DejaVuSans-6f" x="63.476562"/>
          <use xlink:href="#DejaVuSans-70" x="124.658203"/>
          <use xlink:href="#DejaVuSans-32" x="188.134766"/>
         </g>
        </g>
       </g>
      </g>
      <g id="matplotlib.axis_2">
       <g id="ytick_1">
        <g id="line2d_3">
         <defs>
          <path id="m5e8bed805b" d="M 0 0 
L -3.5 0 
" style="stroke: #000000; stroke-width: 0.8"/>
         </defs>
         <g>
          <use xlink:href="#m5e8bed805b" x="45.478125" y="318.021875" style="stroke: #000000; stroke-width: 0.8"/>
         </g>
        </g>
        <g id="text_3">
         <!-- $\mathdefault{10^{0}}$ -->
         <g transform="translate(20.878125 321.821094) scale(0.1 -0.1)">
          <defs>
           <path id="DejaVuSans-30" d="M 2034 4250 
Q 1547 4250 1301 3770 
Q 1056 3291 1056 2328 
Q 1056 1369 1301 889 
Q 1547 409 2034 409 
Q 2525 409 2770 889 
Q 3016 1369 3016 2328 
Q 3016 3291 2770 3770 
Q 2525 4250 2034 4250 
z
M 2034 4750 
Q 2819 4750 3233 4129 
Q 3647 3509 3647 2328 
Q 3647 1150 3233 529 
Q 2819 -91 2034 -91 
Q 1250 -91 836 529 
Q 422 1150 422 2328 
Q 422 3509 836 4129 
Q 1250 4750 2034 4750 
z
" transform="scale(0.015625)"/>
          </defs>
          <use xlink:href="#DejaVuSans-31" transform="translate(0 0.765625)"/>
          <use xlink:href="#DejaVuSans-30" transform="translate(63.623047 0.765625)"/>
          <use xlink:href="#DejaVuSans-30" transform="translate(128.203125 39.046875) scale(0.7)"/>
         </g>
        </g>
       </g>
       <g id="ytick_2">
        <g id="line2d_4">
         <g>
          <use xlink:href="#m5e8bed805b" x="45.478125" y="239.167542" style="stroke: #000000; stroke-width: 0.8"/>
         </g>
        </g>
        <g id="text_4">
         <!-- $\mathdefault{10^{1}}$ -->
         <g transform="translate(20.878125 242.96676) scale(0.1 -0.1)">
          <use xlink:href="#DejaVuSans-31" transform="translate(0 0.684375)"/>
          <use xlink:href="#DejaVuSans-30" transform="translate(63.623047 0.684375)"/>
          <use xlink:href="#DejaVuSans-31" transform="translate(128.203125 38.965625) scale(0.7)"/>
         </g>
        </g>
       </g>
       <g id="ytick_3">
        <g id="line2d_5">
         <g>
          <use xlink:href="#m5e8bed805b" x="45.478125" y="160.313208" style="stroke: #000000; stroke-width: 0.8"/>
         </g>
        </g>
        <g id="text_5">
         <!-- $\mathdefault{10^{2}}$ -->
         <g transform="translate(20.878125 164.112427) scale(0.1 -0.1)">
          <use xlink:href="#DejaVuSans-31" transform="translate(0 0.765625)"/>
          <use xlink:href="#DejaVuSans-30" transform="translate(63.623047 0.765625)"/>
          <use xlink:href="#DejaVuSans-32" transform="translate(128.203125 39.046875) scale(0.7)"/>
         </g>
        </g>
       </g>
       <g id="ytick_4">
        <g id="line2d_6">
         <g>
          <use xlink:href="#m5e8bed805b" x="45.478125" y="81.458875" style="stroke: #000000; stroke-width: 0.8"/>
         </g>
        </g>
        <g id="text_6">
         <!-- $\mathdefault{10^{3}}$ -->
         <g transform="translate(20.878125 85.258094) scale(0.1 -0.1)">
          <defs>
           <path id="DejaVuSans-33" d="M 2597 2516 
Q 3050 2419 3304 2112 
Q 3559 1806 3559 1356 
Q 3559 666 3084 287 
Q 2609 -91 1734 -91 
Q 1441 -91 1130 -33 
Q 819 25 488 141 
L 488 750 
Q 750 597 1062 519 
Q 1375 441 1716 441 
Q 2309 441 2620 675 
Q 2931 909 2931 1356 
Q 2931 1769 2642 2001 
Q 2353 2234 1838 2234 
L 1294 2234 
L 1294 2753 
L 1863 2753 
Q 2328 2753 2575 2939 
Q 2822 3125 2822 3475 
Q 2822 3834 2567 4026 
Q 2313 4219 1838 4219 
Q 1578 4219 1281 4162 
Q 984 4106 628 3988 
L 628 4550 
Q 988 4650 1302 4700 
Q 1616 4750 1894 4750 
Q 2613 4750 3031 4423 
Q 3450 4097 3450 3541 
Q 3450 3153 3228 2886 
Q 3006 2619 2597 2516 
z
" transform="scale(0.015625)"/>
          </defs>
          <use xlink:href="#DejaVuSans-31" transform="translate(0 0.765625)"/>
          <use xlink:href="#DejaVuSans-30" transform="translate(63.623047 0.765625)"/>
          <use xlink:href="#DejaVuSans-33" transform="translate(128.203125 39.046875) scale(0.7)"/>
         </g>
        </g>
       </g>
       <g id="ytick_5">
        <g id="line2d_7">
         <defs>
          <path id="mf6dd701cbb" d="M 0 0 
L -2 0 
" style="stroke: #000000; stroke-width: 0.6"/>
         </defs>
         <g>
          <use xlink:href="#mf6dd701cbb" x="45.478125" y="294.284355" style="stroke: #000000; stroke-width: 0.6"/>
         </g>
        </g>
       </g>
       <g id="ytick_6">
        <g id="line2d_8">
         <g>
          <use xlink:href="#mf6dd701cbb" x="45.478125" y="280.398797" style="stroke: #000000; stroke-width: 0.6"/>
         </g>
        </g>
       </g>
       <g id="ytick_7">
        <g id="line2d_9">
         <g>
          <use xlink:href="#mf6dd701cbb" x="45.478125" y="270.546836" style="stroke: #000000; stroke-width: 0.6"/>
         </g>
        </g>
       </g>
       <g id="ytick_8">
        <g id="line2d_10">
         <g>
          <use xlink:href="#mf6dd701cbb" x="45.478125" y="262.905061" style="stroke: #000000; stroke-width: 0.6"/>
         </g>
        </g>
       </g>
       <g id="ytick_9">
        <g id="line2d_11">
         <g>
          <use xlink:href="#mf6dd701cbb" x="45.478125" y="256.661277" style="stroke: #000000; stroke-width: 0.6"/>
         </g>
        </g>
       </g>
       <g id="ytick_10">
        <g id="line2d_12">
         <g>
          <use xlink:href="#mf6dd701cbb" x="45.478125" y="251.382232" style="stroke: #000000; stroke-width: 0.6"/>
         </g>
        </g>
       </g>
       <g id="ytick_11">
        <g id="line2d_13">
         <g>
          <use xlink:href="#mf6dd701cbb" x="45.478125" y="246.809316" style="stroke: #000000; stroke-width: 0.6"/>
         </g>
        </g>
       </g>
       <g id="ytick_12">
        <g id="line2d_14">
         <g>
          <use xlink:href="#mf6dd701cbb" x="45.478125" y="242.775718" style="stroke: #000000; stroke-width: 0.6"/>
         </g>
        </g>
       </g>
       <g id="ytick_13">
        <g id="line2d_15">
         <g>
          <use xlink:href="#mf6dd701cbb" x="45.478125" y="215.430022" style="stroke: #000000; stroke-width: 0.6"/>
         </g>
        </g>
       </g>
       <g id="ytick_14">
        <g id="line2d_16">
         <g>
          <use xlink:href="#mf6dd701cbb" x="45.478125" y="201.544463" style="stroke: #000000; stroke-width: 0.6"/>
         </g>
        </g>
       </g>
       <g id="ytick_15">
        <g id="line2d_17">
         <g>
          <use xlink:href="#mf6dd701cbb" x="45.478125" y="191.692502" style="stroke: #000000; stroke-width: 0.6"/>
         </g>
        </g>
       </g>
       <g id="ytick_16">
        <g id="line2d_18">
         <g>
          <use xlink:href="#mf6dd701cbb" x="45.478125" y="184.050728" style="stroke: #000000; stroke-width: 0.6"/>
         </g>
        </g>
       </g>
       <g id="ytick_17">
        <g id="line2d_19">
         <g>
          <use xlink:href="#mf6dd701cbb" x="45.478125" y="177.806944" style="stroke: #000000; stroke-width: 0.6"/>
         </g>
        </g>
       </g>
       <g id="ytick_18">
        <g id="line2d_20">
         <g>
          <use xlink:href="#mf6dd701cbb" x="45.478125" y="172.527899" style="stroke: #000000; stroke-width: 0.6"/>
         </g>
        </g>
       </g>
       <g id="ytick_19">
        <g id="line2d_21">
         <g>
          <use xlink:href="#mf6dd701cbb" x="45.478125" y="167.954983" style="stroke: #000000; stroke-width: 0.6"/>
         </g>
        </g>
       </g>
       <g id="ytick_20">
        <g id="line2d_22">
         <g>
          <use xlink:href="#mf6dd701cbb" x="45.478125" y="163.921385" style="stroke: #000000; stroke-width: 0.6"/>
         </g>
        </g>
       </g>
       <g id="ytick_21">
        <g id="line2d_23">
         <g>
          <use xlink:href="#mf6dd701cbb" x="45.478125" y="136.575689" style="stroke: #000000; stroke-width: 0.6"/>
         </g>
        </g>
       </g>
       <g id="ytick_22">
        <g id="line2d_24">
         <g>
          <use xlink:href="#mf6dd701cbb" x="45.478125" y="122.69013" style="stroke: #000000; stroke-width: 0.6"/>
         </g>
        </g>
       </g>
       <g id="ytick_23">
        <g id="line2d_25">
         <g>
          <use xlink:href="#mf6dd701cbb" x="45.478125" y="112.838169" style="stroke: #000000; stroke-width: 0.6"/>
         </g>
        </g>
       </g>
       <g id="ytick_24">
        <g id="line2d_26">
         <g>
          <use xlink:href="#mf6dd701cbb" x="45.478125" y="105.196395" style="stroke: #000000; stroke-width: 0.6"/>
         </g>
        </g>
       </g>
       <g id="ytick_25">
        <g id="line2d_27">
         <g>
          <use xlink:href="#mf6dd701cbb" x="45.478125" y="98.95261" style="stroke: #000000; stroke-width: 0.6"/>
         </g>
        </g>
       </g>
       <g id="ytick_26">
        <g id="line2d_28">
         <g>
          <use xlink:href="#mf6dd701cbb" x="45.478125" y="93.673566" style="stroke: #000000; stroke-width: 0.6"/>
         </g>
        </g>
       </g>
       <g id="ytick_27">
        <g id="line2d_29">
         <g>
          <use xlink:href="#mf6dd701cbb" x="45.478125" y="89.100649" style="stroke: #000000; stroke-width: 0.6"/>
         </g>
        </g>
       </g>
       <g id="ytick_28">
        <g id="line2d_30">
         <g>
          <use xlink:href="#mf6dd701cbb" x="45.478125" y="85.067051" style="stroke: #000000; stroke-width: 0.6"/>
         </g>
        </g>
       </g>
       <g id="ytick_29">
        <g id="line2d_31">
         <g>
          <use xlink:href="#mf6dd701cbb" x="45.478125" y="57.721355" style="stroke: #000000; stroke-width: 0.6"/>
         </g>
        </g>
       </g>
       <g id="ytick_30">
        <g id="line2d_32">
         <g>
          <use xlink:href="#mf6dd701cbb" x="45.478125" y="43.835797" style="stroke: #000000; stroke-width: 0.6"/>
         </g>
        </g>
       </g>
       <g id="ytick_31">
        <g id="line2d_33">
         <g>
          <use xlink:href="#mf6dd701cbb" x="45.478125" y="33.983836" style="stroke: #000000; stroke-width: 0.6"/>
         </g>
        </g>
       </g>
       <g id="ytick_32">
        <g id="line2d_34">
         <g>
          <use xlink:href="#mf6dd701cbb" x="45.478125" y="26.342061" style="stroke: #000000; stroke-width: 0.6"/>
         </g>
        </g>
       </g>
       <g id="text_7">
        <!-- time ago (generations) -->
        <g transform="translate(14.798438 227.641094) rotate(-90) scale(0.1 -0.1)">
         <defs>
          <path id="DejaVuSans-74" d="M 1172 4494 
L 1172 3500 
L 2356 3500 
L 2356 3053 
L 1172 3053 
L 1172 1153 
Q 1172 725 1289 603 
Q 1406 481 1766 481 
L 2356 481 
L 2356 0 
L 1766 0 
Q 1100 0 847 248 
Q 594 497 594 1153 
L 594 3053 
L 172 3053 
L 172 3500 
L 594 3500 
L 594 4494 
L 1172 4494 
z
" transform="scale(0.015625)"/>
          <path id="DejaVuSans-69" d="M 603 3500 
L 1178 3500 
L 1178 0 
L 603 0 
L 603 3500 
z
M 603 4863 
L 1178 4863 
L 1178 4134 
L 603 4134 
L 603 4863 
z
" transform="scale(0.015625)"/>
          <path id="DejaVuSans-6d" d="M 3328 2828 
Q 3544 3216 3844 3400 
Q 4144 3584 4550 3584 
Q 5097 3584 5394 3201 
Q 5691 2819 5691 2113 
L 5691 0 
L 5113 0 
L 5113 2094 
Q 5113 2597 4934 2840 
Q 4756 3084 4391 3084 
Q 3944 3084 3684 2787 
Q 3425 2491 3425 1978 
L 3425 0 
L 2847 0 
L 2847 2094 
Q 2847 2600 2669 2842 
Q 2491 3084 2119 3084 
Q 1678 3084 1418 2786 
Q 1159 2488 1159 1978 
L 1159 0 
L 581 0 
L 581 3500 
L 1159 3500 
L 1159 2956 
Q 1356 3278 1631 3431 
Q 1906 3584 2284 3584 
Q 2666 3584 2933 3390 
Q 3200 3197 3328 2828 
z
" transform="scale(0.015625)"/>
          <path id="DejaVuSans-65" d="M 3597 1894 
L 3597 1613 
L 953 1613 
Q 991 1019 1311 708 
Q 1631 397 2203 397 
Q 2534 397 2845 478 
Q 3156 559 3463 722 
L 3463 178 
Q 3153 47 2828 -22 
Q 2503 -91 2169 -91 
Q 1331 -91 842 396 
Q 353 884 353 1716 
Q 353 2575 817 3079 
Q 1281 3584 2069 3584 
Q 2775 3584 3186 3129 
Q 3597 2675 3597 1894 
z
M 3022 2063 
Q 3016 2534 2758 2815 
Q 2500 3097 2075 3097 
Q 1594 3097 1305 2825 
Q 1016 2553 972 2059 
L 3022 2063 
z
" transform="scale(0.015625)"/>
          <path id="DejaVuSans-20" transform="scale(0.015625)"/>
          <path id="DejaVuSans-61" d="M 2194 1759 
Q 1497 1759 1228 1600 
Q 959 1441 959 1056 
Q 959 750 1161 570 
Q 1363 391 1709 391 
Q 2188 391 2477 730 
Q 2766 1069 2766 1631 
L 2766 1759 
L 2194 1759 
z
M 3341 1997 
L 3341 0 
L 2766 0 
L 2766 531 
Q 2569 213 2275 61 
Q 1981 -91 1556 -91 
Q 1019 -91 701 211 
Q 384 513 384 1019 
Q 384 1609 779 1909 
Q 1175 2209 1959 2209 
L 2766 2209 
L 2766 2266 
Q 2766 2663 2505 2880 
Q 2244 3097 1772 3097 
Q 1472 3097 1187 3025 
Q 903 2953 641 2809 
L 641 3341 
Q 956 3463 1253 3523 
Q 1550 3584 1831 3584 
Q 2591 3584 2966 3190 
Q 3341 2797 3341 1997 
z
" transform="scale(0.015625)"/>
          <path id="DejaVuSans-67" d="M 2906 1791 
Q 2906 2416 2648 2759 
Q 2391 3103 1925 3103 
Q 1463 3103 1205 2759 
Q 947 2416 947 1791 
Q 947 1169 1205 825 
Q 1463 481 1925 481 
Q 2391 481 2648 825 
Q 2906 1169 2906 1791 
z
M 3481 434 
Q 3481 -459 3084 -895 
Q 2688 -1331 1869 -1331 
Q 1566 -1331 1297 -1286 
Q 1028 -1241 775 -1147 
L 775 -588 
Q 1028 -725 1275 -790 
Q 1522 -856 1778 -856 
Q 2344 -856 2625 -561 
Q 2906 -266 2906 331 
L 2906 616 
Q 2728 306 2450 153 
Q 2172 0 1784 0 
Q 1141 0 747 490 
Q 353 981 353 1791 
Q 353 2603 747 3093 
Q 1141 3584 1784 3584 
Q 2172 3584 2450 3431 
Q 2728 3278 2906 2969 
L 2906 3500 
L 3481 3500 
L 3481 434 
z
" transform="scale(0.015625)"/>
          <path id="DejaVuSans-28" d="M 1984 4856 
Q 1566 4138 1362 3434 
Q 1159 2731 1159 2009 
Q 1159 1288 1364 580 
Q 1569 -128 1984 -844 
L 1484 -844 
Q 1016 -109 783 600 
Q 550 1309 550 2009 
Q 550 2706 781 3412 
Q 1013 4119 1484 4856 
L 1984 4856 
z
" transform="scale(0.015625)"/>
          <path id="DejaVuSans-6e" d="M 3513 2113 
L 3513 0 
L 2938 0 
L 2938 2094 
Q 2938 2591 2744 2837 
Q 2550 3084 2163 3084 
Q 1697 3084 1428 2787 
Q 1159 2491 1159 1978 
L 1159 0 
L 581 0 
L 581 3500 
L 1159 3500 
L 1159 2956 
Q 1366 3272 1645 3428 
Q 1925 3584 2291 3584 
Q 2894 3584 3203 3211 
Q 3513 2838 3513 2113 
z
" transform="scale(0.015625)"/>
          <path id="DejaVuSans-72" d="M 2631 2963 
Q 2534 3019 2420 3045 
Q 2306 3072 2169 3072 
Q 1681 3072 1420 2755 
Q 1159 2438 1159 1844 
L 1159 0 
L 581 0 
L 581 3500 
L 1159 3500 
L 1159 2956 
Q 1341 3275 1631 3429 
Q 1922 3584 2338 3584 
Q 2397 3584 2469 3576 
Q 2541 3569 2628 3553 
L 2631 2963 
z
" transform="scale(0.015625)"/>
          <path id="DejaVuSans-73" d="M 2834 3397 
L 2834 2853 
Q 2591 2978 2328 3040 
Q 2066 3103 1784 3103 
Q 1356 3103 1142 2972 
Q 928 2841 928 2578 
Q 928 2378 1081 2264 
Q 1234 2150 1697 2047 
L 1894 2003 
Q 2506 1872 2764 1633 
Q 3022 1394 3022 966 
Q 3022 478 2636 193 
Q 2250 -91 1575 -91 
Q 1294 -91 989 -36 
Q 684 19 347 128 
L 347 722 
Q 666 556 975 473 
Q 1284 391 1588 391 
Q 1994 391 2212 530 
Q 2431 669 2431 922 
Q 2431 1156 2273 1281 
Q 2116 1406 1581 1522 
L 1381 1569 
Q 847 1681 609 1914 
Q 372 2147 372 2553 
Q 372 3047 722 3315 
Q 1072 3584 1716 3584 
Q 2034 3584 2315 3537 
Q 2597 3491 2834 3397 
z
" transform="scale(0.015625)"/>
          <path id="DejaVuSans-29" d="M 513 4856 
L 1013 4856 
Q 1481 4119 1714 3412 
Q 1947 2706 1947 2009 
Q 1947 1309 1714 600 
Q 1481 -109 1013 -844 
L 513 -844 
Q 928 -128 1133 580 
Q 1338 1288 1338 2009 
Q 1338 2731 1133 3434 
Q 928 4138 513 4856 
z
" transform="scale(0.015625)"/>
         </defs>
         <use xlink:href="#DejaVuSans-74"/>
         <use xlink:href="#DejaVuSans-69" x="39.208984"/>
         <use xlink:href="#DejaVuSans-6d" x="66.992188"/>
         <use xlink:href="#DejaVuSans-65" x="164.404297"/>
         <use xlink:href="#DejaVuSans-20" x="225.927734"/>
         <use xlink:href="#DejaVuSans-61" x="257.714844"/>
         <use xlink:href="#DejaVuSans-67" x="318.994141"/>
         <use xlink:href="#DejaVuSans-6f" x="382.470703"/>
         <use xlink:href="#DejaVuSans-20" x="443.652344"/>
         <use xlink:href="#DejaVuSans-28" x="475.439453"/>
         <use xlink:href="#DejaVuSans-67" x="514.453125"/>
         <use xlink:href="#DejaVuSans-65" x="577.929688"/>
         <use xlink:href="#DejaVuSans-6e" x="639.453125"/>
         <use xlink:href="#DejaVuSans-65" x="702.832031"/>
         <use xlink:href="#DejaVuSans-72" x="764.355469"/>
         <use xlink:href="#DejaVuSans-61" x="805.46875"/>
         <use xlink:href="#DejaVuSans-74" x="866.748047"/>
         <use xlink:href="#DejaVuSans-69" x="905.957031"/>
         <use xlink:href="#DejaVuSans-6f" x="933.740234"/>
         <use xlink:href="#DejaVuSans-6e" x="994.921875"/>
         <use xlink:href="#DejaVuSans-73" x="1058.300781"/>
         <use xlink:href="#DejaVuSans-29" x="1110.400391"/>
        </g>
       </g>
      </g>
      <g id="patch_6">
       <path d="M 310.001707 81.458875 
L 309.001707 81.427439 
L 308.001707 81.390498 
L 307.001707 81.292752 
L 306.001707 81.26023 
L 305.001707 81.186605 
L 304.001707 81.14804 
L 303.001707 81.112627 
L 302.001707 81.054987 
L 301.001707 80.984601 
L 300.001707 80.932636 
L 299.001707 80.873547 
L 298.001707 80.785226 
L 297.001707 80.739081 
L 296.001707 80.69667 
L 295.001707 80.666178 
L 294.001707 80.640133 
L 293.001707 80.618933 
L 292.001707 80.564632 
L 291.001707 80.536694 
L 290.001707 80.50697 
L 288.588988 80.481575 
" clip-path="url(#p2ccb9475f7)" style="fill: none; stroke: #ffffff; stroke-width: 3; stroke-linecap: round"/>
       <path d="M 310.001707 81.458875 
L 309.001707 81.427439 
L 308.001707 81.390498 
L 307.001707 81.292752 
L 306.001707 81.26023 
L 305.001707 81.186605 
L 304.001707 81.14804 
L 303.001707 81.112627 
L 302.001707 81.054987 
L 301.001707 80.984601 
L 300.001707 80.932636 
L 299.001707 80.873547 
L 298.001707 80.785226 
L 297.001707 80.739081 
L 296.001707 80.69667 
L 295.001707 80.666178 
L 294.001707 80.640133 
L 293.001707 80.618933 
L 292.001707 80.564632 
L 291.001707 80.536694 
L 290.001707 80.50697 
L 288.588988 80.481575 
" clip-path="url(#p2ccb9475f7)" style="fill: none; stroke: #1f77b4; stroke-linecap: round"/>
       <path d="M 292.588988 83.458875 
L 291.70862 82.983544 
L 290.830713 82.50329 
L 289.979999 81.968649 
L 288.677825 81.281202 
L 289.605178 81.255187 
L 290.516853 80.842467 
L 291.427117 80.426928 
L 292.769613 79.820124 
L 292.114714 80.458875 
L 292.06275 81.458875 
L 292.00366 83.458875 
z
" clip-path="url(#p2ccb9475f7)" style="fill: #ffffff; stroke: #ffffff; stroke-width: 3; stroke-linecap: round"/>
       <path d="M 292.588988 83.458875 
L 291.70862 82.983544 
L 290.830713 82.50329 
L 289.979999 81.968649 
L 288.677825 81.281202 
L 289.605178 81.255187 
L 290.516853 80.842467 
L 291.427117 80.426928 
L 292.769613 79.820124 
L 292.114714 80.458875 
L 292.06275 81.458875 
L 292.00366 83.458875 
z
" clip-path="url(#p2ccb9475f7)" style="fill: #ffffff; stroke: #1f77b4; stroke-linecap: round"/>
       <g id="patch_7">
        <path d="M 335.476418 81.458875 
L 336.476418 81.490311 
L 337.476418 81.527252 
L 338.476418 81.624998 
L 339.476418 81.65752 
L 340.476418 81.731145 
L 341.476418 81.76971 
L 342.476418 81.805123 
L 343.476418 81.862763 
L 344.476418 81.933149 
L 345.476418 81.985114 
L 346.476418 82.044203 
L 347.476418 82.132524 
L 348.476418 82.178669 
L 349.476418 82.22108 
L 350.476418 82.251572 
L 351.476418 82.277617 
L 352.476418 82.298817 
L 353.476418 82.353118 
L 354.476418 82.381056 
L 355.476418 82.41078 
L 356.889137 82.436175 
" clip-path="url(#p2ccb9475f7)" style="fill: none; stroke: #ffffff; stroke-width: 3; stroke-linecap: round"/>
        <path d="M 335.476418 81.458875 
L 336.476418 81.490311 
L 337.476418 81.527252 
L 338.476418 81.624998 
L 339.476418 81.65752 
L 340.476418 81.731145 
L 341.476418 81.76971 
L 342.476418 81.805123 
L 343.476418 81.862763 
L 344.476418 81.933149 
L 345.476418 81.985114 
L 346.476418 82.044203 
L 347.476418 82.132524 
L 348.476418 82.178669 
L 349.476418 82.22108 
L 350.476418 82.251572 
L 351.476418 82.277617 
L 352.476418 82.298817 
L 353.476418 82.353118 
L 354.476418 82.381056 
L 355.476418 82.41078 
L 356.889137 82.436175 
" clip-path="url(#p2ccb9475f7)" style="fill: none; stroke: #1f77b4; stroke-linecap: round"/>
        <path d="M 352.889137 79.458875 
L 353.769505 79.934206 
L 354.647412 80.41446 
L 355.498126 80.949101 
L 356.8003 81.636548 
L 355.872947 81.662563 
L 354.961272 82.075283 
L 354.051008 82.490822 
L 352.708512 83.097626 
L 353.363411 82.458875 
L 353.415375 81.458875 
L 353.474465 79.458875 
z
" clip-path="url(#p2ccb9475f7)" style="fill: #ffffff; stroke: #ffffff; stroke-width: 3; stroke-linecap: round"/>
        <path d="M 352.889137 79.458875 
L 353.769505 79.934206 
L 354.647412 80.41446 
L 355.498126 80.949101 
L 356.8003 81.636548 
L 355.872947 81.662563 
L 354.961272 82.075283 
L 354.051008 82.490822 
L 352.708512 83.097626 
L 353.363411 82.458875 
L 353.415375 81.458875 
L 353.474465 79.458875 
z
" clip-path="url(#p2ccb9475f7)" style="fill: #ffffff; stroke: #1f77b4; stroke-linecap: round"/>
        <g id="patch_8">
         <path d="M 45.478125 318.021875 
L 45.478125 22.318125 
" style="fill: none; stroke: #000000; stroke-width: 0.8; stroke-linejoin: miter; stroke-linecap: square"/>
        </g>
        <g id="text_8">
         <g id="patch_9">
          <path d="M 312.717187 58.727563 
L 332.760937 58.727563 
Q 334.760937 58.727563 334.760937 56.727563 
L 334.760937 47.049438 
Q 334.760937 45.049438 332.760937 45.049438 
L 312.717187 45.049438 
Q 310.717187 45.049438 310.717187 47.049438 
L 310.717187 56.727563 
Q 310.717187 58.727563 312.717187 58.727563 
z
" style="fill: #ffffff; opacity: 0.6"/>
         </g>
         <!-- root -->
         <g transform="translate(312.717187 54.647875) scale(0.1 -0.1)">
          <use xlink:href="#DejaVuSans-72"/>
          <use xlink:href="#DejaVuSans-6f" x="38.863281"/>
          <use xlink:href="#DejaVuSans-6f" x="100.044922"/>
          <use xlink:href="#DejaVuSans-74" x="161.226562"/>
         </g>
        </g>
        <g id="text_9">
         <!-- cloning_example.yaml -->
         <g transform="translate(255.5475 16.318125) scale(0.12 -0.12)">
          <defs>
           <path id="DejaVuSans-63" d="M 3122 3366 
L 3122 2828 
Q 2878 2963 2633 3030 
Q 2388 3097 2138 3097 
Q 1578 3097 1268 2742 
Q 959 2388 959 1747 
Q 959 1106 1268 751 
Q 1578 397 2138 397 
Q 2388 397 2633 464 
Q 2878 531 3122 666 
L 3122 134 
Q 2881 22 2623 -34 
Q 2366 -91 2075 -91 
Q 1284 -91 818 406 
Q 353 903 353 1747 
Q 353 2603 823 3093 
Q 1294 3584 2113 3584 
Q 2378 3584 2631 3529 
Q 2884 3475 3122 3366 
z
" transform="scale(0.015625)"/>
           <path id="DejaVuSans-6c" d="M 603 4863 
L 1178 4863 
L 1178 0 
L 603 0 
L 603 4863 
z
" transform="scale(0.015625)"/>
           <path id="DejaVuSans-5f" d="M 3263 -1063 
L 3263 -1509 
L -63 -1509 
L -63 -1063 
L 3263 -1063 
z
" transform="scale(0.015625)"/>
           <path id="DejaVuSans-78" d="M 3513 3500 
L 2247 1797 
L 3578 0 
L 2900 0 
L 1881 1375 
L 863 0 
L 184 0 
L 1544 1831 
L 300 3500 
L 978 3500 
L 1906 2253 
L 2834 3500 
L 3513 3500 
z
" transform="scale(0.015625)"/>
           <path id="DejaVuSans-2e" d="M 684 794 
L 1344 794 
L 1344 0 
L 684 0 
L 684 794 
z
" transform="scale(0.015625)"/>
           <path id="DejaVuSans-79" d="M 2059 -325 
Q 1816 -950 1584 -1140 
Q 1353 -1331 966 -1331 
L 506 -1331 
L 506 -850 
L 844 -850 
Q 1081 -850 1212 -737 
Q 1344 -625 1503 -206 
L 1606 56 
L 191 3500 
L 800 3500 
L 1894 763 
L 2988 3500 
L 3597 3500 
L 2059 -325 
z
" transform="scale(0.015625)"/>
          </defs>
          <use xlink:href="#DejaVuSans-63"/>
          <use xlink:href="#DejaVuSans-6c" x="54.980469"/>
          <use xlink:href="#DejaVuSans-6f" x="82.763672"/>
          <use xlink:href="#DejaVuSans-6e" x="143.945312"/>
          <use xlink:href="#DejaVuSans-69" x="207.324219"/>
          <use xlink:href="#DejaVuSans-6e" x="235.107422"/>
          <use xlink:href="#DejaVuSans-67" x="298.486328"/>
          <use xlink:href="#DejaVuSans-5f" x="361.962891"/>
          <use xlink:href="#DejaVuSans-65" x="411.962891"/>
          <use xlink:href="#DejaVuSans-78" x="471.736328"/>
          <use xlink:href="#DejaVuSans-61" x="530.916016"/>
          <use xlink:href="#DejaVuSans-6d" x="592.195312"/>
          <use xlink:href="#DejaVuSans-70" x="689.607422"/>
          <use xlink:href="#DejaVuSans-6c" x="753.083984"/>
          <use xlink:href="#DejaVuSans-65" x="780.867188"/>
          <use xlink:href="#DejaVuSans-2e" x="842.390625"/>
          <use xlink:href="#DejaVuSans-79" x="874.177734"/>
          <use xlink:href="#DejaVuSans-61" x="933.357422"/>
          <use xlink:href="#DejaVuSans-6d" x="994.636719"/>
          <use xlink:href="#DejaVuSans-6c" x="1092.048828"/>
         </g>
        </g>
       </g>
      </g>
      <defs>
       <clipPath id="p2ccb9475f7">
        <rect x="45.478125" y="22.318125" width="554.521875" height="295.70375"/>
       </clipPath>
      </defs>
     </g>
    </g>
   </g>
  </g>
 </g>
</svg>