<?xml version="1.0" encoding="utf-8" standalone="no"?>
<!DOCTYPE svg PUBLIC "-//W3C//DTD SVG 1.1//EN"
  "http://www.w3.org/Graphics/SVG/1.1/DTD/svg11.dtd">
<svg xmlns:xlink="http://www.w3.org/1999/xlink" width="607.2pt" height="338.4pt" viewBox="0 0 607.2 338.4" xmlns="http://www.w3.org/2000/svg" version="1.1">
 <metadata>
  <rdf:RDF xmlns:dc="http://purl.org/dc/elements/1.1/" xmlns:cc="http://creativecommons.org/ns#" xmlns:rdf="http://www.w3.org/1999/02/22-rdf-syntax-ns#">
   <cc:Work>
    <dc:type rdf:resource="http://purl.org/dc/dcmitype/StillImage"/>
    <dc:date>2023-09-11T08:24:58.426400</dc:date>
    <dc:format>image/svg+xml</dc:format>
    <dc:creator>
     <cc:Agent>
      <dc:title>Matplotlib v3.7.2, https://matplotlib.org/</dc:title>
     </cc:Agent>
    </dc:creator>
   </cc:Work>
  </rdf:RDF>
 </metadata>
 <defs>
  <style type="text/css">*{stroke-linejoin: round; stroke-linecap: butt}</style>
 </defs>
 <g id="figure_1">
  <g id="patch_1">
   <path d="M 0 338.4 
L 607.2 338.4 
L 607.2 0 
L 0 0 
z
" style="fill: #ffffff"/>
  </g>
  <g id="axes_1">
   <g id="patch_2">
    <path d="M 46.965625 318.021875 
L 600 318.021875 
L 600 7.2 
L 46.965625 7.2 
z
" style="fill: #ffffff"/>
   </g>
   <path d="M 200.299443 251.628466 
L 201.299443 251.659902 
L 202.299443 251.696843 
L 203.299443 251.794589 
L 204.299443 251.827111 
L 205.299443 251.900736 
L 206.299443 251.939301 
L 207.299443 251.974714 
L 208.299443 252.032354 
L 209.299443 252.10274 
L 210.299443 252.154705 
L 211.299443 252.213794 
L 212.299443 252.302115 
L 213.299443 252.34826 
L 214.299443 252.390671 
L 215.299443 252.421163 
L 216.299443 252.447208 
L 217.299443 252.468408 
L 218.299443 252.522709 
L 219.299443 252.550647 
L 220.299443 252.580371 
L 221.299443 252.605766 
L 222.299443 252.616966 
L 223.299443 252.62709 
L 224.299443 252.626886 
L 225.299443 252.617376 
L 226.299443 252.605722 
L 227.299443 252.574693 
L 228.299443 252.563525 
L 229.299443 252.533408 
L 230.299443 252.473631 
L 231.299443 252.436439 
L 232.299443 252.397343 
L 233.299443 252.354903 
L 234.299443 252.322138 
L 235.299443 252.254712 
L 236.299443 252.215586 
L 237.299443 252.172911 
L 238.299443 252.102331 
L 239.299443 252.06594 
L 240.299443 252.007537 
L 241.299443 251.896584 
L 242.299443 251.825926 
L 243.299443 251.712986 
L 244.299443 251.667213 
L 245.299443 251.60593 
L 246.299443 251.557431 
L 247.299443 251.476608 
L 248.299443 251.358089 
L 249.299443 251.287878 
L 250.299443 251.204616 
L 251.299443 251.171474 
L 252.299443 251.120237 
L 253.299443 251.051838 
L 254.299443 250.985623 
L 255.299443 250.908706 
L 256.619695 250.88139 
" clip-path="url(#p2e48097c7d)" style="fill: none; stroke: #1f77b4; stroke-opacity: 0.5; stroke-width: 0.2; stroke-linecap: square"/>
   <path d="M 200.299443 169.911044 
L 201.299443 169.942481 
L 202.299443 169.979421 
L 203.299443 170.077168 
L 204.299443 170.109689 
L 205.299443 170.183314 
L 206.299443 170.22188 
L 207.299443 170.257293 
L 208.299443 170.314933 
L 209.299443 170.385319 
L 210.299443 170.437283 
L 211.299443 170.496373 
L 212.299443 170.584694 
L 213.299443 170.630838 
L 214.299443 170.673249 
L 215.299443 170.703742 
L 216.299443 170.729787 
L 217.299443 170.750987 
L 218.299443 170.805288 
L 219.299443 170.833225 
L 220.299443 170.862949 
L 221.299443 170.888344 
L 222.299443 170.899545 
L 223.299443 170.909669 
L 224.299443 170.909464 
L 225.299443 170.899954 
L 226.299443 170.888301 
L 227.299443 170.857272 
L 228.299443 170.846104 
L 229.299443 170.815986 
L 230.299443 170.756209 
L 231.299443 170.719018 
L 232.299443 170.679922 
L 233.299443 170.637482 
L 234.299443 170.604717 
L 235.299443 170.53729 
L 236.299443 170.498164 
L 237.299443 170.45549 
L 238.299443 170.384909 
L 239.299443 170.348518 
L 240.299443 170.290115 
L 241.299443 170.179163 
L 242.299443 170.108504 
L 243.299443 169.995564 
L 244.299443 169.949792 
L 245.299443 169.888508 
L 246.299443 169.840009 
L 247.299443 169.759186 
L 248.299443 169.640667 
L 249.299443 169.570457 
L 250.299443 169.487194 
L 251.299443 169.454053 
L 252.299443 169.402815 
L 253.299443 169.334417 
L 254.299443 169.268201 
L 255.299443 169.191284 
L 256.619695 169.163969 
" clip-path="url(#p2e48097c7d)" style="fill: none; stroke: #1f77b4; stroke-opacity: 0.5; stroke-width: 0.2; stroke-linecap: square"/>
   <path d="M 200.299443 83.881688 
L 201.299443 83.913124 
L 202.299443 83.950064 
L 203.299443 84.047811 
L 204.299443 84.080332 
L 205.299443 84.153957 
L 206.299443 84.192523 
L 207.299443 84.227936 
L 208.299443 84.285576 
L 209.299443 84.355962 
L 210.299443 84.407926 
L 211.299443 84.467016 
L 212.299443 84.555337 
L 213.299443 84.601481 
L 214.299443 84.643892 
L 215.299443 84.674385 
L 216.299443 84.70043 
L 217.299443 84.72163 
L 218.299443 84.775931 
L 219.299443 84.803869 
L 220.299443 84.833593 
L 221.299443 84.858987 
L 222.299443 84.870188 
L 223.299443 84.880312 
L 224.299443 84.880107 
L 225.299443 84.870598 
L 226.299443 84.858944 
L 227.299443 84.827915 
L 228.299443 84.816747 
L 229.299443 84.786629 
L 230.299443 84.726852 
L 231.299443 84.689661 
L 232.299443 84.650565 
L 233.299443 84.608125 
L 234.299443 84.57536 
L 235.299443 84.507933 
L 236.299443 84.468808 
L 237.299443 84.426133 
L 238.299443 84.355552 
L 239.299443 84.319162 
L 240.299443 84.260758 
L 241.299443 84.149806 
L 242.299443 84.079147 
L 243.299443 83.966208 
L 244.299443 83.920435 
L 245.299443 83.859152 
L 246.299443 83.810652 
L 247.299443 83.72983 
L 248.299443 83.611311 
L 249.299443 83.5411 
L 250.299443 83.457837 
L 251.299443 83.424696 
L 252.299443 83.373458 
L 253.299443 83.30506 
L 254.299443 83.238845 
L 255.299443 83.161928 
L 256.619695 83.134612 
" clip-path="url(#p2e48097c7d)" style="fill: none; stroke: #1f77b4; stroke-opacity: 0.5; stroke-width: 0.2; stroke-linecap: square"/>
   <path d="M 200.299443 59.009365 
L 201.299443 59.040802 
L 202.299443 59.077742 
L 203.299443 59.175489 
L 204.299443 59.20801 
L 205.299443 59.281635 
L 206.299443 59.3202 
L 207.299443 59.355614 
L 208.299443 59.413254 
L 209.299443 59.48364 
L 210.299443 59.535604 
L 211.299443 59.594694 
L 212.299443 59.683015 
L 213.299443 59.729159 
L 214.299443 59.77157 
L 215.299443 59.802063 
L 216.299443 59.828108 
L 217.299443 59.849308 
L 218.299443 59.903609 
L 219.299443 59.931546 
L 220.299443 59.96127 
L 221.299443 59.986665 
L 222.299443 59.997866 
L 223.299443 60.007989 
L 224.299443 60.007785 
L 225.299443 59.998275 
L 226.299443 59.986622 
L 227.299443 59.955592 
L 228.299443 59.944425 
L 229.299443 59.914307 
L 230.299443 59.85453 
L 231.299443 59.817339 
L 232.299443 59.778242 
L 233.299443 59.735803 
L 234.299443 59.703038 
L 235.299443 59.635611 
L 236.299443 59.596485 
L 237.299443 59.553811 
L 238.299443 59.48323 
L 239.299443 59.446839 
L 240.299443 59.388436 
L 241.299443 59.277484 
L 242.299443 59.206825 
L 243.299443 59.093885 
L 244.299443 59.048113 
L 245.299443 58.986829 
L 246.299443 58.93833 
L 247.299443 58.857507 
L 248.299443 58.738988 
L 249.299443 58.668778 
L 250.299443 58.585515 
L 251.299443 58.552373 
L 252.299443 58.501136 
L 253.299443 58.432738 
L 254.299443 58.366522 
L 255.299443 58.289605 
L 256.619695 58.26229 
" clip-path="url(#p2e48097c7d)" style="fill: none; stroke: #1f77b4; stroke-opacity: 0.5; stroke-width: 0.2; stroke-linecap: square"/>
   <path d="M 200.299443 92.911004 
L 201.299443 92.94244 
L 202.299443 92.979381 
L 203.299443 93.077127 
L 204.299443 93.109649 
L 205.299443 93.183273 
L 206.299443 93.221839 
L 207.299443 93.257252 
L 208.299443 93.314892 
L 209.299443 93.385278 
L 210.299443 93.437242 
L 211.299443 93.496332 
L 212.299443 93.584653 
L 213.299443 93.630797 
L 214.299443 93.673208 
L 215.299443 93.703701 
L 216.299443 93.729746 
L 217.299443 93.750946 
L 218.299443 93.805247 
L 219.299443 93.833185 
L 220.299443 93.862909 
L 221.299443 93.888304 
L 222.299443 93.899504 
L 223.299443 93.909628 
L 224.299443 93.909424 
L 225.299443 93.899914 
L 226.299443 93.88826 
L 227.299443 93.857231 
L 228.299443 93.846063 
L 229.299443 93.815945 
L 230.299443 93.756168 
L 231.299443 93.718977 
L 232.299443 93.679881 
L 233.299443 93.637441 
L 234.299443 93.604676 
L 235.299443 93.53725 
L 236.299443 93.498124 
L 237.299443 93.455449 
L 238.299443 93.384869 
L 239.299443 93.348478 
L 240.299443 93.290075 
L 241.299443 93.179122 
L 242.299443 93.108464 
L 243.299443 92.995524 
L 244.299443 92.949751 
L 245.299443 92.888468 
L 246.299443 92.839968 
L 247.299443 92.759146 
L 248.299443 92.640627 
L 249.299443 92.570416 
L 250.299443 92.487154 
L 251.299443 92.454012 
L 252.299443 92.402775 
L 253.299443 92.334376 
L 254.299443 92.268161 
L 255.299443 92.191244 
L 256.619695 92.163928 
" clip-path="url(#p2e48097c7d)" style="fill: none; stroke: #1f77b4; stroke-opacity: 0.5; stroke-width: 0.2; stroke-linecap: square"/>
   <path d="M 200.299443 102.644347 
L 201.299443 102.675783 
L 202.299443 102.712724 
L 203.299443 102.81047 
L 204.299443 102.842992 
L 205.299443 102.916616 
L 206.299443 102.955182 
L 207.299443 102.990595 
L 208.299443 103.048235 
L 209.299443 103.118621 
L 210.299443 103.170585 
L 211.299443 103.229675 
L 212.299443 103.317996 
L 213.299443 103.36414 
L 214.299443 103.406551 
L 215.299443 103.437044 
L 216.299443 103.463089 
L 217.299443 103.484289 
L 218.299443 103.53859 
L 219.299443 103.566528 
L 220.299443 103.596252 
L 221.299443 103.621647 
L 222.299443 103.632847 
L 223.299443 103.642971 
L 224.299443 103.642767 
L 225.299443 103.633257 
L 226.299443 103.621603 
L 227.299443 103.590574 
L 228.299443 103.579406 
L 229.299443 103.549288 
L 230.299443 103.489511 
L 231.299443 103.45232 
L 232.299443 103.413224 
L 233.299443 103.370784 
L 234.299443 103.338019 
L 235.299443 103.270593 
L 236.299443 103.231467 
L 237.299443 103.188792 
L 238.299443 103.118212 
L 239.299443 103.081821 
L 240.299443 103.023418 
L 241.299443 102.912465 
L 242.299443 102.841807 
L 243.299443 102.728867 
L 244.299443 102.683094 
L 245.299443 102.621811 
L 246.299443 102.573311 
L 247.299443 102.492489 
L 248.299443 102.37397 
L 249.299443 102.303759 
L 250.299443 102.220497 
L 251.299443 102.187355 
L 252.299443 102.136118 
L 253.299443 102.067719 
L 254.299443 102.001504 
L 255.299443 101.924587 
L 256.619695 101.897271 
" clip-path="url(#p2e48097c7d)" style="fill: none; stroke: #1f77b4; stroke-opacity: 0.5; stroke-width: 0.2; stroke-linecap: square"/>
   <path d="M 200.299443 241.958867 
L 201.299443 241.990303 
L 202.299443 242.027244 
L 203.299443 242.12499 
L 204.299443 242.157512 
L 205.299443 242.231137 
L 206.299443 242.269702 
L 207.299443 242.305115 
L 208.299443 242.362755 
L 209.299443 242.433142 
L 210.299443 242.485106 
L 211.299443 242.544196 
L 212.299443 242.632516 
L 213.299443 242.678661 
L 214.299443 242.721072 
L 215.299443 242.751564 
L 216.299443 242.777609 
L 217.299443 242.798809 
L 218.299443 242.853111 
L 219.299443 242.881048 
L 220.299443 242.910772 
L 221.299443 242.936167 
L 222.299443 242.947367 
L 223.299443 242.957491 
L 224.299443 242.957287 
L 225.299443 242.947777 
L 226.299443 242.936123 
L 227.299443 242.905094 
L 228.299443 242.893926 
L 229.299443 242.863809 
L 230.299443 242.804032 
L 231.299443 242.76684 
L 232.299443 242.727744 
L 233.299443 242.685305 
L 234.299443 242.652539 
L 235.299443 242.585113 
L 236.299443 242.545987 
L 237.299443 242.503313 
L 238.299443 242.432732 
L 239.299443 242.396341 
L 240.299443 242.337938 
L 241.299443 242.226985 
L 242.299443 242.156327 
L 243.299443 242.043387 
L 244.299443 241.997614 
L 245.299443 241.936331 
L 246.299443 241.887832 
L 247.299443 241.807009 
L 248.299443 241.68849 
L 249.299443 241.618279 
L 250.299443 241.535017 
L 251.299443 241.501875 
L 252.299443 241.450638 
L 253.299443 241.38224 
L 254.299443 241.316024 
L 255.299443 241.239107 
L 256.619695 241.211792 
" clip-path="url(#p2e48097c7d)" style="fill: none; stroke: #1f77b4; stroke-opacity: 0.5; stroke-width: 0.2; stroke-linecap: square"/>
   <path d="M 200.299443 90.740995 
L 201.299443 90.772432 
L 202.299443 90.809372 
L 203.299443 90.907119 
L 204.299443 90.93964 
L 205.299443 91.013265 
L 206.299443 91.051831 
L 207.299443 91.087244 
L 208.299443 91.144884 
L 209.299443 91.21527 
L 210.299443 91.267234 
L 211.299443 91.326324 
L 212.299443 91.414645 
L 213.299443 91.460789 
L 214.299443 91.5032 
L 215.299443 91.533693 
L 216.299443 91.559738 
L 217.299443 91.580938 
L 218.299443 91.635239 
L 219.299443 91.663176 
L 220.299443 91.6929 
L 221.299443 91.718295 
L 222.299443 91.729496 
L 223.299443 91.73962 
L 224.299443 91.739415 
L 225.299443 91.729905 
L 226.299443 91.718252 
L 227.299443 91.687223 
L 228.299443 91.676055 
L 229.299443 91.645937 
L 230.299443 91.58616 
L 231.299443 91.548969 
L 232.299443 91.509873 
L 233.299443 91.467433 
L 234.299443 91.434668 
L 235.299443 91.367241 
L 236.299443 91.328115 
L 237.299443 91.285441 
L 238.299443 91.21486 
L 239.299443 91.178469 
L 240.299443 91.120066 
L 241.299443 91.009114 
L 242.299443 90.938455 
L 243.299443 90.825515 
L 244.299443 90.779743 
L 245.299443 90.718459 
L 246.299443 90.66996 
L 247.299443 90.589137 
L 248.299443 90.470618 
L 249.299443 90.400408 
L 250.299443 90.317145 
L 251.299443 90.284004 
L 252.299443 90.232766 
L 253.299443 90.164368 
L 254.299443 90.098152 
L 255.299443 90.021235 
L 256.619695 89.99392 
" clip-path="url(#p2e48097c7d)" style="fill: none; stroke: #1f77b4; stroke-opacity: 0.5; stroke-width: 0.2; stroke-linecap: square"/>
   <path d="M 200.299443 75.195743 
L 201.299443 75.22718 
L 202.299443 75.26412 
L 203.299443 75.361867 
L 204.299443 75.394388 
L 205.299443 75.468013 
L 206.299443 75.506578 
L 207.299443 75.541992 
L 208.299443 75.599632 
L 209.299443 75.670018 
L 210.299443 75.721982 
L 211.299443 75.781072 
L 212.299443 75.869393 
L 213.299443 75.915537 
L 214.299443 75.957948 
L 215.299443 75.988441 
L 216.299443 76.014486 
L 217.299443 76.035686 
L 218.299443 76.089987 
L 219.299443 76.117924 
L 220.299443 76.147648 
L 221.299443 76.173043 
L 222.299443 76.184244 
L 223.299443 76.194367 
L 224.299443 76.194163 
L 225.299443 76.184653 
L 226.299443 76.173 
L 227.299443 76.14197 
L 228.299443 76.130802 
L 229.299443 76.100685 
L 230.299443 76.040908 
L 231.299443 76.003716 
L 232.299443 75.96462 
L 233.299443 75.922181 
L 234.299443 75.889416 
L 235.299443 75.821989 
L 236.299443 75.782863 
L 237.299443 75.740189 
L 238.299443 75.669608 
L 239.299443 75.633217 
L 240.299443 75.574814 
L 241.299443 75.463862 
L 242.299443 75.393203 
L 243.299443 75.280263 
L 244.299443 75.23449 
L 245.299443 75.173207 
L 246.299443 75.124708 
L 247.299443 75.043885 
L 248.299443 74.925366 
L 249.299443 74.855156 
L 250.299443 74.771893 
L 251.299443 74.738751 
L 252.299443 74.687514 
L 253.299443 74.619116 
L 254.299443 74.5529 
L 255.299443 74.475983 
L 256.619695 74.448668 
" clip-path="url(#p2e48097c7d)" style="fill: none; stroke: #1f77b4; stroke-opacity: 0.5; stroke-width: 0.2; stroke-linecap: square"/>
   <path d="M 200.299443 221.888567 
L 201.299443 221.920003 
L 202.299443 221.956943 
L 203.299443 222.05469 
L 204.299443 222.087212 
L 205.299443 222.160836 
L 206.299443 222.199402 
L 207.299443 222.234815 
L 208.299443 222.292455 
L 209.299443 222.362841 
L 210.299443 222.414805 
L 211.299443 222.473895 
L 212.299443 222.562216 
L 213.299443 222.60836 
L 214.299443 222.650771 
L 215.299443 222.681264 
L 216.299443 222.707309 
L 217.299443 222.728509 
L 218.299443 222.78281 
L 219.299443 222.810748 
L 220.299443 222.840472 
L 221.299443 222.865866 
L 222.299443 222.877067 
L 223.299443 222.887191 
L 224.299443 222.886986 
L 225.299443 222.877477 
L 226.299443 222.865823 
L 227.299443 222.834794 
L 228.299443 222.823626 
L 229.299443 222.793508 
L 230.299443 222.733731 
L 231.299443 222.69654 
L 232.299443 222.657444 
L 233.299443 222.615004 
L 234.299443 222.582239 
L 235.299443 222.514812 
L 236.299443 222.475687 
L 237.299443 222.433012 
L 238.299443 222.362431 
L 239.299443 222.326041 
L 240.299443 222.267637 
L 241.299443 222.156685 
L 242.299443 222.086026 
L 243.299443 221.973087 
L 244.299443 221.927314 
L 245.299443 221.866031 
L 246.299443 221.817531 
L 247.299443 221.736709 
L 248.299443 221.61819 
L 249.299443 221.547979 
L 250.299443 221.464717 
L 251.299443 221.431575 
L 252.299443 221.380337 
L 253.299443 221.311939 
L 254.299443 221.245724 
L 255.299443 221.168807 
L 256.619695 221.141491 
" clip-path="url(#p2e48097c7d)" style="fill: none; stroke: #1f77b4; stroke-opacity: 0.5; stroke-width: 0.2; stroke-linecap: square"/>
   <path d="M 256.619695 285.64688 
L 255.619695 285.615444 
L 254.619695 285.578504 
L 253.619695 285.480757 
L 252.619695 285.448235 
L 251.619695 285.374611 
L 250.619695 285.336045 
L 249.619695 285.300632 
L 248.619695 285.242992 
L 247.619695 285.172606 
L 246.619695 285.120642 
L 245.619695 285.061552 
L 244.619695 284.973231 
L 243.619695 284.927087 
L 242.619695 284.884676 
L 241.619695 284.854183 
L 240.619695 284.828138 
L 239.619695 284.806938 
L 238.619695 284.752637 
L 237.619695 284.724699 
L 236.619695 284.694975 
L 235.619695 284.669581 
L 234.619695 284.65838 
L 233.619695 284.648256 
L 232.619695 284.648461 
L 231.619695 284.65797 
L 230.619695 284.669624 
L 229.619695 284.700653 
L 228.619695 284.711821 
L 227.619695 284.741939 
L 226.619695 284.801716 
L 225.619695 284.838907 
L 224.619695 284.878003 
L 223.619695 284.920443 
L 222.619695 284.953208 
L 221.619695 285.020634 
L 220.619695 285.05976 
L 219.619695 285.102435 
L 218.619695 285.173016 
L 217.619695 285.209406 
L 216.619695 285.26781 
L 215.619695 285.378762 
L 214.619695 285.44942 
L 213.619695 285.56236 
L 212.619695 285.608133 
L 211.619695 285.669416 
L 210.619695 285.717916 
L 209.619695 285.798738 
L 208.619695 285.917257 
L 207.619695 285.987468 
L 206.619695 286.07073 
L 205.619695 286.103872 
L 204.619695 286.15511 
L 203.619695 286.223508 
L 202.619695 286.289723 
L 201.619695 286.36664 
L 200.299443 286.393956 
" clip-path="url(#p2e48097c7d)" style="fill: none; stroke: #ff7f0e; stroke-opacity: 0.5; stroke-width: 0.2; stroke-linecap: square"/>
   <path d="M 256.619695 177.507644 
L 255.619695 177.476208 
L 254.619695 177.439267 
L 253.619695 177.341521 
L 252.619695 177.308999 
L 251.619695 177.235374 
L 250.619695 177.196809 
L 249.619695 177.161396 
L 248.619695 177.103756 
L 247.619695 177.03337 
L 246.619695 176.981405 
L 245.619695 176.922316 
L 244.619695 176.833995 
L 243.619695 176.78785 
L 242.619695 176.745439 
L 241.619695 176.714947 
L 240.619695 176.688902 
L 239.619695 176.667702 
L 238.619695 176.613401 
L 237.619695 176.585463 
L 236.619695 176.555739 
L 235.619695 176.530344 
L 234.619695 176.519144 
L 233.619695 176.50902 
L 232.619695 176.509224 
L 231.619695 176.518734 
L 230.619695 176.530388 
L 229.619695 176.561417 
L 228.619695 176.572585 
L 227.619695 176.602702 
L 226.619695 176.662479 
L 225.619695 176.699671 
L 224.619695 176.738767 
L 223.619695 176.781207 
L 222.619695 176.813972 
L 221.619695 176.881398 
L 220.619695 176.920524 
L 219.619695 176.963199 
L 218.619695 177.033779 
L 217.619695 177.07017 
L 216.619695 177.128573 
L 215.619695 177.239526 
L 214.619695 177.310184 
L 213.619695 177.423124 
L 212.619695 177.468897 
L 211.619695 177.53018 
L 210.619695 177.578679 
L 209.619695 177.659502 
L 208.619695 177.778021 
L 207.619695 177.848232 
L 206.619695 177.931494 
L 205.619695 177.964636 
L 204.619695 178.015873 
L 203.619695 178.084272 
L 202.619695 178.150487 
L 201.619695 178.227404 
L 200.299443 178.25472 
" clip-path="url(#p2e48097c7d)" style="fill: none; stroke: #ff7f0e; stroke-opacity: 0.5; stroke-width: 0.2; stroke-linecap: square"/>
   <path d="M 256.619695 254.850715 
L 255.619695 254.819278 
L 254.619695 254.782338 
L 253.619695 254.684591 
L 252.619695 254.65207 
L 251.619695 254.578445 
L 250.619695 254.539879 
L 249.619695 254.504466 
L 248.619695 254.446826 
L 247.619695 254.37644 
L 246.619695 254.324476 
L 245.619695 254.265386 
L 244.619695 254.177065 
L 243.619695 254.130921 
L 242.619695 254.08851 
L 241.619695 254.058017 
L 240.619695 254.031972 
L 239.619695 254.010772 
L 238.619695 253.956471 
L 237.619695 253.928534 
L 236.619695 253.89881 
L 235.619695 253.873415 
L 234.619695 253.862214 
L 233.619695 253.852091 
L 232.619695 253.852295 
L 231.619695 253.861805 
L 230.619695 253.873458 
L 229.619695 253.904488 
L 228.619695 253.915655 
L 227.619695 253.945773 
L 226.619695 254.00555 
L 225.619695 254.042741 
L 224.619695 254.081838 
L 223.619695 254.124277 
L 222.619695 254.157042 
L 221.619695 254.224469 
L 220.619695 254.263595 
L 219.619695 254.306269 
L 218.619695 254.37685 
L 217.619695 254.413241 
L 216.619695 254.471644 
L 215.619695 254.582596 
L 214.619695 254.653255 
L 213.619695 254.766195 
L 212.619695 254.811967 
L 211.619695 254.873251 
L 210.619695 254.92175 
L 209.619695 255.002573 
L 208.619695 255.121092 
L 207.619695 255.191302 
L 206.619695 255.274565 
L 205.619695 255.307707 
L 204.619695 255.358944 
L 203.619695 255.427342 
L 202.619695 255.493558 
L 201.619695 255.570475 
L 200.299443 255.59779 
" clip-path="url(#p2e48097c7d)" style="fill: none; stroke: #ff7f0e; stroke-opacity: 0.5; stroke-width: 0.2; stroke-linecap: square"/>
   <path d="M 256.619695 131.582546 
L 255.619695 131.55111 
L 254.619695 131.51417 
L 253.619695 131.416423 
L 252.619695 131.383901 
L 251.619695 131.310277 
L 250.619695 131.271711 
L 249.619695 131.236298 
L 248.619695 131.178658 
L 247.619695 131.108272 
L 246.619695 131.056308 
L 245.619695 130.997218 
L 244.619695 130.908897 
L 243.619695 130.862753 
L 242.619695 130.820342 
L 241.619695 130.789849 
L 240.619695 130.763804 
L 239.619695 130.742604 
L 238.619695 130.688303 
L 237.619695 130.660365 
L 236.619695 130.630641 
L 235.619695 130.605247 
L 234.619695 130.594046 
L 233.619695 130.583922 
L 232.619695 130.584127 
L 231.619695 130.593636 
L 230.619695 130.60529 
L 229.619695 130.636319 
L 228.619695 130.647487 
L 227.619695 130.677605 
L 226.619695 130.737382 
L 225.619695 130.774573 
L 224.619695 130.813669 
L 223.619695 130.856109 
L 222.619695 130.888874 
L 221.619695 130.9563 
L 220.619695 130.995426 
L 219.619695 131.038101 
L 218.619695 131.108681 
L 217.619695 131.145072 
L 216.619695 131.203476 
L 215.619695 131.314428 
L 214.619695 131.385086 
L 213.619695 131.498026 
L 212.619695 131.543799 
L 211.619695 131.605082 
L 210.619695 131.653582 
L 209.619695 131.734404 
L 208.619695 131.852923 
L 207.619695 131.923134 
L 206.619695 132.006396 
L 205.619695 132.039538 
L 204.619695 132.090775 
L 203.619695 132.159174 
L 202.619695 132.225389 
L 201.619695 132.302306 
L 200.299443 132.329622 
" clip-path="url(#p2e48097c7d)" style="fill: none; stroke: #ff7f0e; stroke-opacity: 0.5; stroke-width: 0.2; stroke-linecap: square"/>
   <path d="M 256.619695 312.982435 
L 255.619695 312.950999 
L 254.619695 312.914059 
L 253.619695 312.816312 
L 252.619695 312.78379 
L 251.619695 312.710166 
L 250.619695 312.6716 
L 249.619695 312.636187 
L 248.619695 312.578547 
L 247.619695 312.508161 
L 246.619695 312.456197 
L 245.619695 312.397107 
L 244.619695 312.308786 
L 243.619695 312.262642 
L 242.619695 312.220231 
L 241.619695 312.189738 
L 240.619695 312.163693 
L 239.619695 312.142493 
L 238.619695 312.088192 
L 237.619695 312.060254 
L 236.619695 312.03053 
L 235.619695 312.005136 
L 234.619695 311.993935 
L 233.619695 311.983811 
L 232.619695 311.984016 
L 231.619695 311.993525 
L 230.619695 312.005179 
L 229.619695 312.036208 
L 228.619695 312.047376 
L 227.619695 312.077494 
L 226.619695 312.137271 
L 225.619695 312.174462 
L 224.619695 312.213558 
L 223.619695 312.255998 
L 222.619695 312.288763 
L 221.619695 312.356189 
L 220.619695 312.395315 
L 219.619695 312.43799 
L 218.619695 312.508571 
L 217.619695 312.544961 
L 216.619695 312.603365 
L 215.619695 312.714317 
L 214.619695 312.784975 
L 213.619695 312.897915 
L 212.619695 312.943688 
L 211.619695 313.004971 
L 210.619695 313.053471 
L 209.619695 313.134293 
L 208.619695 313.252812 
L 207.619695 313.323023 
L 206.619695 313.406285 
L 205.619695 313.439427 
L 204.619695 313.490665 
L 203.619695 313.559063 
L 202.619695 313.625278 
L 201.619695 313.702195 
L 200.299443 313.729511 
" clip-path="url(#p2e48097c7d)" style="fill: none; stroke: #ff7f0e; stroke-opacity: 0.5; stroke-width: 0.2; stroke-linecap: square"/>
   <path d="M 256.619695 145.921655 
L 255.619695 145.890219 
L 254.619695 145.853278 
L 253.619695 145.755532 
L 252.619695 145.72301 
L 251.619695 145.649385 
L 250.619695 145.61082 
L 249.619695 145.575407 
L 248.619695 145.517767 
L 247.619695 145.447381 
L 246.619695 145.395416 
L 245.619695 145.336327 
L 244.619695 145.248006 
L 243.619695 145.201861 
L 242.619695 145.15945 
L 241.619695 145.128958 
L 240.619695 145.102913 
L 239.619695 145.081713 
L 238.619695 145.027412 
L 237.619695 144.999474 
L 236.619695 144.96975 
L 235.619695 144.944355 
L 234.619695 144.933155 
L 233.619695 144.923031 
L 232.619695 144.923235 
L 231.619695 144.932745 
L 230.619695 144.944399 
L 229.619695 144.975428 
L 228.619695 144.986596 
L 227.619695 145.016713 
L 226.619695 145.07649 
L 225.619695 145.113682 
L 224.619695 145.152778 
L 223.619695 145.195218 
L 222.619695 145.227983 
L 221.619695 145.295409 
L 220.619695 145.334535 
L 219.619695 145.37721 
L 218.619695 145.44779 
L 217.619695 145.484181 
L 216.619695 145.542584 
L 215.619695 145.653537 
L 214.619695 145.724195 
L 213.619695 145.837135 
L 212.619695 145.882908 
L 211.619695 145.944191 
L 210.619695 145.99269 
L 209.619695 146.073513 
L 208.619695 146.192032 
L 207.619695 146.262243 
L 206.619695 146.345505 
L 205.619695 146.378647 
L 204.619695 146.429884 
L 203.619695 146.498283 
L 202.619695 146.564498 
L 201.619695 146.641415 
L 200.299443 146.668731 
" clip-path="url(#p2e48097c7d)" style="fill: none; stroke: #ff7f0e; stroke-opacity: 0.5; stroke-width: 0.2; stroke-linecap: square"/>
   <path d="M 256.619695 168.37106 
L 255.619695 168.339623 
L 254.619695 168.302683 
L 253.619695 168.204936 
L 252.619695 168.172415 
L 251.619695 168.09879 
L 250.619695 168.060224 
L 249.619695 168.024811 
L 248.619695 167.967171 
L 247.619695 167.896785 
L 246.619695 167.844821 
L 245.619695 167.785731 
L 244.619695 167.69741 
L 243.619695 167.651266 
L 242.619695 167.608855 
L 241.619695 167.578362 
L 240.619695 167.552317 
L 239.619695 167.531117 
L 238.619695 167.476816 
L 237.619695 167.448879 
L 236.619695 167.419155 
L 235.619695 167.39376 
L 234.619695 167.382559 
L 233.619695 167.372435 
L 232.619695 167.37264 
L 231.619695 167.38215 
L 230.619695 167.393803 
L 229.619695 167.424832 
L 228.619695 167.436 
L 227.619695 167.466118 
L 226.619695 167.525895 
L 225.619695 167.563086 
L 224.619695 167.602182 
L 223.619695 167.644622 
L 222.619695 167.677387 
L 221.619695 167.744814 
L 220.619695 167.78394 
L 219.619695 167.826614 
L 218.619695 167.897195 
L 217.619695 167.933586 
L 216.619695 167.991989 
L 215.619695 168.102941 
L 214.619695 168.1736 
L 213.619695 168.28654 
L 212.619695 168.332312 
L 211.619695 168.393596 
L 210.619695 168.442095 
L 209.619695 168.522918 
L 208.619695 168.641437 
L 207.619695 168.711647 
L 206.619695 168.79491 
L 205.619695 168.828051 
L 204.619695 168.879289 
L 203.619695 168.947687 
L 202.619695 169.013903 
L 201.619695 169.09082 
L 200.299443 169.118135 
" clip-path="url(#p2e48097c7d)" style="fill: none; stroke: #ff7f0e; stroke-opacity: 0.5; stroke-width: 0.2; stroke-linecap: square"/>
   <path d="M 256.619695 246.351704 
L 255.619695 246.320268 
L 254.619695 246.283328 
L 253.619695 246.185581 
L 252.619695 246.153059 
L 251.619695 246.079435 
L 250.619695 246.040869 
L 249.619695 246.005456 
L 248.619695 245.947816 
L 247.619695 245.87743 
L 246.619695 245.825466 
L 245.619695 245.766376 
L 244.619695 245.678055 
L 243.619695 245.631911 
L 242.619695 245.5895 
L 241.619695 245.559007 
L 240.619695 245.532962 
L 239.619695 245.511762 
L 238.619695 245.457461 
L 237.619695 245.429523 
L 236.619695 245.399799 
L 235.619695 245.374405 
L 234.619695 245.363204 
L 233.619695 245.35308 
L 232.619695 245.353285 
L 231.619695 245.362794 
L 230.619695 245.374448 
L 229.619695 245.405477 
L 228.619695 245.416645 
L 227.619695 245.446763 
L 226.619695 245.50654 
L 225.619695 245.543731 
L 224.619695 245.582827 
L 223.619695 245.625267 
L 222.619695 245.658032 
L 221.619695 245.725458 
L 220.619695 245.764584 
L 219.619695 245.807259 
L 218.619695 245.877839 
L 217.619695 245.91423 
L 216.619695 245.972634 
L 215.619695 246.083586 
L 214.619695 246.154244 
L 213.619695 246.267184 
L 212.619695 246.312957 
L 211.619695 246.37424 
L 210.619695 246.42274 
L 209.619695 246.503562 
L 208.619695 246.622081 
L 207.619695 246.692292 
L 206.619695 246.775554 
L 205.619695 246.808696 
L 204.619695 246.859933 
L 203.619695 246.928332 
L 202.619695 246.994547 
L 201.619695 247.071464 
L 200.299443 247.09878 
" clip-path="url(#p2e48097c7d)" style="fill: none; stroke: #ff7f0e; stroke-opacity: 0.5; stroke-width: 0.2; stroke-linecap: square"/>
   <path d="M 256.619695 217.608422 
L 255.619695 217.576986 
L 254.619695 217.540046 
L 253.619695 217.442299 
L 252.619695 217.409778 
L 251.619695 217.336153 
L 250.619695 217.297587 
L 249.619695 217.262174 
L 248.619695 217.204534 
L 247.619695 217.134148 
L 246.619695 217.082184 
L 245.619695 217.023094 
L 244.619695 216.934773 
L 243.619695 216.888629 
L 242.619695 216.846218 
L 241.619695 216.815725 
L 240.619695 216.78968 
L 239.619695 216.76848 
L 238.619695 216.714179 
L 237.619695 216.686241 
L 236.619695 216.656517 
L 235.619695 216.631123 
L 234.619695 216.619922 
L 233.619695 216.609798 
L 232.619695 216.610003 
L 231.619695 216.619513 
L 230.619695 216.631166 
L 229.619695 216.662195 
L 228.619695 216.673363 
L 227.619695 216.703481 
L 226.619695 216.763258 
L 225.619695 216.800449 
L 224.619695 216.839545 
L 223.619695 216.881985 
L 222.619695 216.91475 
L 221.619695 216.982177 
L 220.619695 217.021303 
L 219.619695 217.063977 
L 218.619695 217.134558 
L 217.619695 217.170949 
L 216.619695 217.229352 
L 215.619695 217.340304 
L 214.619695 217.410963 
L 213.619695 217.523902 
L 212.619695 217.569675 
L 211.619695 217.630959 
L 210.619695 217.679458 
L 209.619695 217.760281 
L 208.619695 217.878799 
L 207.619695 217.94901 
L 206.619695 218.032273 
L 205.619695 218.065414 
L 204.619695 218.116652 
L 203.619695 218.18505 
L 202.619695 218.251265 
L 201.619695 218.328182 
L 200.299443 218.355498 
" clip-path="url(#p2e48097c7d)" style="fill: none; stroke: #ff7f0e; stroke-opacity: 0.5; stroke-width: 0.2; stroke-linecap: square"/>
   <path d="M 256.619695 196.857264 
L 255.619695 196.825827 
L 254.619695 196.788887 
L 253.619695 196.69114 
L 252.619695 196.658619 
L 251.619695 196.584994 
L 250.619695 196.546428 
L 249.619695 196.511015 
L 248.619695 196.453375 
L 247.619695 196.382989 
L 246.619695 196.331025 
L 245.619695 196.271935 
L 244.619695 196.183614 
L 243.619695 196.13747 
L 242.619695 196.095059 
L 241.619695 196.064566 
L 240.619695 196.038521 
L 239.619695 196.017321 
L 238.619695 195.96302 
L 237.619695 195.935083 
L 236.619695 195.905359 
L 235.619695 195.879964 
L 234.619695 195.868763 
L 233.619695 195.858639 
L 232.619695 195.858844 
L 231.619695 195.868354 
L 230.619695 195.880007 
L 229.619695 195.911036 
L 228.619695 195.922204 
L 227.619695 195.952322 
L 226.619695 196.012099 
L 225.619695 196.04929 
L 224.619695 196.088386 
L 223.619695 196.130826 
L 222.619695 196.163591 
L 221.619695 196.231018 
L 220.619695 196.270144 
L 219.619695 196.312818 
L 218.619695 196.383399 
L 217.619695 196.41979 
L 216.619695 196.478193 
L 215.619695 196.589145 
L 214.619695 196.659804 
L 213.619695 196.772743 
L 212.619695 196.818516 
L 211.619695 196.8798 
L 210.619695 196.928299 
L 209.619695 197.009122 
L 208.619695 197.127641 
L 207.619695 197.197851 
L 206.619695 197.281114 
L 205.619695 197.314255 
L 204.619695 197.365493 
L 203.619695 197.433891 
L 202.619695 197.500107 
L 201.619695 197.577024 
L 200.299443 197.604339 
" clip-path="url(#p2e48097c7d)" style="fill: none; stroke: #ff7f0e; stroke-opacity: 0.5; stroke-width: 0.2; stroke-linecap: square"/>
   <path d="M 390.34593 150.780177 
L 391.34593 150.811613 
L 392.34593 150.848554 
L 393.34593 150.9463 
L 394.34593 150.978822 
L 395.34593 151.052446 
L 396.34593 151.091012 
L 397.34593 151.126425 
L 398.34593 151.184065 
L 399.34593 151.254451 
L 400.34593 151.306415 
L 401.34593 151.365505 
L 402.34593 151.453826 
L 403.34593 151.49997 
L 404.34593 151.542381 
L 405.34593 151.572874 
L 406.34593 151.598919 
L 407.34593 151.620119 
L 408.34593 151.67442 
L 409.34593 151.702358 
L 410.34593 151.732082 
L 411.34593 151.757477 
L 412.34593 151.768677 
L 413.34593 151.778801 
L 414.34593 151.778597 
L 415.34593 151.769087 
L 416.34593 151.757433 
L 417.34593 151.726404 
L 418.34593 151.715236 
L 419.34593 151.685118 
L 420.34593 151.625341 
L 421.34593 151.58815 
L 422.34593 151.549054 
L 423.34593 151.506614 
L 424.34593 151.473849 
L 425.34593 151.406423 
L 426.34593 151.367297 
L 427.34593 151.324622 
L 428.34593 151.254042 
L 429.34593 151.217651 
L 430.34593 151.159248 
L 431.34593 151.048295 
L 432.34593 150.977637 
L 433.34593 150.864697 
L 434.34593 150.818924 
L 435.34593 150.757641 
L 436.34593 150.709141 
L 437.34593 150.628319 
L 438.34593 150.5098 
L 439.34593 150.439589 
L 440.34593 150.356327 
L 441.34593 150.323185 
L 442.34593 150.271948 
L 443.34593 150.203549 
L 444.34593 150.137334 
L 445.34593 150.060417 
L 446.666182 150.033101 
" clip-path="url(#p2e48097c7d)" style="fill: none; stroke: #ff7f0e; stroke-opacity: 0.5; stroke-width: 0.2; stroke-linecap: square"/>
   <path d="M 390.34593 247.827061 
L 391.34593 247.858497 
L 392.34593 247.895437 
L 393.34593 247.993184 
L 394.34593 248.025705 
L 395.34593 248.09933 
L 396.34593 248.137896 
L 397.34593 248.173309 
L 398.34593 248.230949 
L 399.34593 248.301335 
L 400.34593 248.353299 
L 401.34593 248.412389 
L 402.34593 248.50071 
L 403.34593 248.546854 
L 404.34593 248.589265 
L 405.34593 248.619758 
L 406.34593 248.645803 
L 407.34593 248.667003 
L 408.34593 248.721304 
L 409.34593 248.749242 
L 410.34593 248.778966 
L 411.34593 248.80436 
L 412.34593 248.815561 
L 413.34593 248.825685 
L 414.34593 248.82548 
L 415.34593 248.81597 
L 416.34593 248.804317 
L 417.34593 248.773288 
L 418.34593 248.76212 
L 419.34593 248.732002 
L 420.34593 248.672225 
L 421.34593 248.635034 
L 422.34593 248.595938 
L 423.34593 248.553498 
L 424.34593 248.520733 
L 425.34593 248.453306 
L 426.34593 248.41418 
L 427.34593 248.371506 
L 428.34593 248.300925 
L 429.34593 248.264534 
L 430.34593 248.206131 
L 431.34593 248.095179 
L 432.34593 248.02452 
L 433.34593 247.911581 
L 434.34593 247.865808 
L 435.34593 247.804524 
L 436.34593 247.756025 
L 437.34593 247.675202 
L 438.34593 247.556684 
L 439.34593 247.486473 
L 440.34593 247.40321 
L 441.34593 247.370069 
L 442.34593 247.318831 
L 443.34593 247.250433 
L 444.34593 247.184218 
L 445.34593 247.1073 
L 446.666182 247.079985 
" clip-path="url(#p2e48097c7d)" style="fill: none; stroke: #ff7f0e; stroke-opacity: 0.5; stroke-width: 0.2; stroke-linecap: square"/>
   <path d="M 390.34593 229.742743 
L 391.34593 229.774179 
L 392.34593 229.811119 
L 393.34593 229.908866 
L 394.34593 229.941387 
L 395.34593 230.015012 
L 396.34593 230.053578 
L 397.34593 230.088991 
L 398.34593 230.146631 
L 399.34593 230.217017 
L 400.34593 230.268981 
L 401.34593 230.328071 
L 402.34593 230.416392 
L 403.34593 230.462536 
L 404.34593 230.504947 
L 405.34593 230.53544 
L 406.34593 230.561485 
L 407.34593 230.582685 
L 408.34593 230.636986 
L 409.34593 230.664924 
L 410.34593 230.694648 
L 411.34593 230.720042 
L 412.34593 230.731243 
L 413.34593 230.741367 
L 414.34593 230.741162 
L 415.34593 230.731652 
L 416.34593 230.719999 
L 417.34593 230.68897 
L 418.34593 230.677802 
L 419.34593 230.647684 
L 420.34593 230.587907 
L 421.34593 230.550716 
L 422.34593 230.51162 
L 423.34593 230.46918 
L 424.34593 230.436415 
L 425.34593 230.368988 
L 426.34593 230.329862 
L 427.34593 230.287188 
L 428.34593 230.216607 
L 429.34593 230.180216 
L 430.34593 230.121813 
L 431.34593 230.010861 
L 432.34593 229.940202 
L 433.34593 229.827263 
L 434.34593 229.78149 
L 435.34593 229.720206 
L 436.34593 229.671707 
L 437.34593 229.590884 
L 438.34593 229.472366 
L 439.34593 229.402155 
L 440.34593 229.318892 
L 441.34593 229.285751 
L 442.34593 229.234513 
L 443.34593 229.166115 
L 444.34593 229.0999 
L 445.34593 229.022982 
L 446.666182 228.995667 
" clip-path="url(#p2e48097c7d)" style="fill: none; stroke: #ff7f0e; stroke-opacity: 0.5; stroke-width: 0.2; stroke-linecap: square"/>
   <path d="M 390.34593 272.673533 
L 391.34593 272.70497 
L 392.34593 272.74191 
L 393.34593 272.839657 
L 394.34593 272.872178 
L 395.34593 272.945803 
L 396.34593 272.984369 
L 397.34593 273.019782 
L 398.34593 273.077422 
L 399.34593 273.147808 
L 400.34593 273.199772 
L 401.34593 273.258862 
L 402.34593 273.347183 
L 403.34593 273.393327 
L 404.34593 273.435738 
L 405.34593 273.466231 
L 406.34593 273.492276 
L 407.34593 273.513476 
L 408.34593 273.567777 
L 409.34593 273.595714 
L 410.34593 273.625438 
L 411.34593 273.650833 
L 412.34593 273.662034 
L 413.34593 273.672158 
L 414.34593 273.671953 
L 415.34593 273.662443 
L 416.34593 273.65079 
L 417.34593 273.619761 
L 418.34593 273.608593 
L 419.34593 273.578475 
L 420.34593 273.518698 
L 421.34593 273.481507 
L 422.34593 273.442411 
L 423.34593 273.399971 
L 424.34593 273.367206 
L 425.34593 273.299779 
L 426.34593 273.260653 
L 427.34593 273.217979 
L 428.34593 273.147398 
L 429.34593 273.111007 
L 430.34593 273.052604 
L 431.34593 272.941652 
L 432.34593 272.870993 
L 433.34593 272.758053 
L 434.34593 272.712281 
L 435.34593 272.650997 
L 436.34593 272.602498 
L 437.34593 272.521675 
L 438.34593 272.403156 
L 439.34593 272.332946 
L 440.34593 272.249683 
L 441.34593 272.216542 
L 442.34593 272.165304 
L 443.34593 272.096906 
L 444.34593 272.03069 
L 445.34593 271.953773 
L 446.666182 271.926458 
" clip-path="url(#p2e48097c7d)" style="fill: none; stroke: #ff7f0e; stroke-opacity: 0.5; stroke-width: 0.2; stroke-linecap: square"/>
   <path d="M 390.34593 8.096452 
L 391.34593 8.127889 
L 392.34593 8.164829 
L 393.34593 8.262576 
L 394.34593 8.295097 
L 395.34593 8.368722 
L 396.34593 8.407287 
L 397.34593 8.442701 
L 398.34593 8.500341 
L 399.34593 8.570727 
L 400.34593 8.622691 
L 401.34593 8.681781 
L 402.34593 8.770102 
L 403.34593 8.816246 
L 404.34593 8.858657 
L 405.34593 8.88915 
L 406.34593 8.915195 
L 407.34593 8.936395 
L 408.34593 8.990696 
L 409.34593 9.018633 
L 410.34593 9.048357 
L 411.34593 9.073752 
L 412.34593 9.084952 
L 413.34593 9.095076 
L 414.34593 9.094872 
L 415.34593 9.085362 
L 416.34593 9.073709 
L 417.34593 9.042679 
L 418.34593 9.031511 
L 419.34593 9.001394 
L 420.34593 8.941617 
L 421.34593 8.904425 
L 422.34593 8.865329 
L 423.34593 8.82289 
L 424.34593 8.790125 
L 425.34593 8.722698 
L 426.34593 8.683572 
L 427.34593 8.640898 
L 428.34593 8.570317 
L 429.34593 8.533926 
L 430.34593 8.475523 
L 431.34593 8.36457 
L 432.34593 8.293912 
L 433.34593 8.180972 
L 434.34593 8.135199 
L 435.34593 8.073916 
L 436.34593 8.025417 
L 437.34593 7.944594 
L 438.34593 7.826075 
L 439.34593 7.755865 
L 440.34593 7.672602 
L 441.34593 7.63946 
L 442.34593 7.588223 
L 443.34593 7.519825 
L 444.34593 7.453609 
L 445.34593 7.376692 
L 446.666182 7.349377 
" clip-path="url(#p2e48097c7d)" style="fill: none; stroke: #ff7f0e; stroke-opacity: 0.5; stroke-width: 0.2; stroke-linecap: square"/>
   <path d="M 390.34593 315.747804 
L 391.34593 315.779241 
L 392.34593 315.816181 
L 393.34593 315.913928 
L 394.34593 315.946449 
L 395.34593 316.020074 
L 396.34593 316.058639 
L 397.34593 316.094053 
L 398.34593 316.151693 
L 399.34593 316.222079 
L 400.34593 316.274043 
L 401.34593 316.333133 
L 402.34593 316.421454 
L 403.34593 316.467598 
L 404.34593 316.510009 
L 405.34593 316.540502 
L 406.34593 316.566547 
L 407.34593 316.587747 
L 408.34593 316.642048 
L 409.34593 316.669985 
L 410.34593 316.699709 
L 411.34593 316.725104 
L 412.34593 316.736304 
L 413.34593 316.746428 
L 414.34593 316.746224 
L 415.34593 316.736714 
L 416.34593 316.725061 
L 417.34593 316.694031 
L 418.34593 316.682863 
L 419.34593 316.652746 
L 420.34593 316.592969 
L 421.34593 316.555777 
L 422.34593 316.516681 
L 423.34593 316.474242 
L 424.34593 316.441477 
L 425.34593 316.37405 
L 426.34593 316.334924 
L 427.34593 316.29225 
L 428.34593 316.221669 
L 429.34593 316.185278 
L 430.34593 316.126875 
L 431.34593 316.015922 
L 432.34593 315.945264 
L 433.34593 315.832324 
L 434.34593 315.786551 
L 435.34593 315.725268 
L 436.34593 315.676769 
L 437.34593 315.595946 
L 438.34593 315.477427 
L 439.34593 315.407217 
L 440.34593 315.323954 
L 441.34593 315.290812 
L 442.34593 315.239575 
L 443.34593 315.171177 
L 444.34593 315.104961 
L 445.34593 315.028044 
L 446.666182 315.000729 
" clip-path="url(#p2e48097c7d)" style="fill: none; stroke: #ff7f0e; stroke-opacity: 0.5; stroke-width: 0.2; stroke-linecap: square"/>
   <path d="M 390.34593 126.600257 
L 391.34593 126.631694 
L 392.34593 126.668634 
L 393.34593 126.766381 
L 394.34593 126.798902 
L 395.34593 126.872527 
L 396.34593 126.911092 
L 397.34593 126.946506 
L 398.34593 127.004145 
L 399.34593 127.074532 
L 400.34593 127.126496 
L 401.34593 127.185586 
L 402.34593 127.273907 
L 403.34593 127.320051 
L 404.34593 127.362462 
L 405.34593 127.392955 
L 406.34593 127.418999 
L 407.34593 127.4402 
L 408.34593 127.494501 
L 409.34593 127.522438 
L 410.34593 127.552162 
L 411.34593 127.577557 
L 412.34593 127.588757 
L 413.34593 127.598881 
L 414.34593 127.598677 
L 415.34593 127.589167 
L 416.34593 127.577514 
L 417.34593 127.546484 
L 418.34593 127.535316 
L 419.34593 127.505199 
L 420.34593 127.445422 
L 421.34593 127.40823 
L 422.34593 127.369134 
L 423.34593 127.326695 
L 424.34593 127.29393 
L 425.34593 127.226503 
L 426.34593 127.187377 
L 427.34593 127.144703 
L 428.34593 127.074122 
L 429.34593 127.037731 
L 430.34593 126.979328 
L 431.34593 126.868375 
L 432.34593 126.797717 
L 433.34593 126.684777 
L 434.34593 126.639004 
L 435.34593 126.577721 
L 436.34593 126.529222 
L 437.34593 126.448399 
L 438.34593 126.32988 
L 439.34593 126.25967 
L 440.34593 126.176407 
L 441.34593 126.143265 
L 442.34593 126.092028 
L 443.34593 126.02363 
L 444.34593 125.957414 
L 445.34593 125.880497 
L 446.666182 125.853182 
" clip-path="url(#p2e48097c7d)" style="fill: none; stroke: #ff7f0e; stroke-opacity: 0.5; stroke-width: 0.2; stroke-linecap: square"/>
   <path d="M 390.34593 194.338173 
L 391.34593 194.369609 
L 392.34593 194.406549 
L 393.34593 194.504296 
L 394.34593 194.536818 
L 395.34593 194.610442 
L 396.34593 194.649008 
L 397.34593 194.684421 
L 398.34593 194.742061 
L 399.34593 194.812447 
L 400.34593 194.864411 
L 401.34593 194.923501 
L 402.34593 195.011822 
L 403.34593 195.057966 
L 404.34593 195.100377 
L 405.34593 195.13087 
L 406.34593 195.156915 
L 407.34593 195.178115 
L 408.34593 195.232416 
L 409.34593 195.260354 
L 410.34593 195.290078 
L 411.34593 195.315472 
L 412.34593 195.326673 
L 413.34593 195.336797 
L 414.34593 195.336592 
L 415.34593 195.327083 
L 416.34593 195.315429 
L 417.34593 195.2844 
L 418.34593 195.273232 
L 419.34593 195.243114 
L 420.34593 195.183337 
L 421.34593 195.146146 
L 422.34593 195.10705 
L 423.34593 195.06461 
L 424.34593 195.031845 
L 425.34593 194.964418 
L 426.34593 194.925293 
L 427.34593 194.882618 
L 428.34593 194.812037 
L 429.34593 194.775647 
L 430.34593 194.717243 
L 431.34593 194.606291 
L 432.34593 194.535632 
L 433.34593 194.422693 
L 434.34593 194.37692 
L 435.34593 194.315637 
L 436.34593 194.267137 
L 437.34593 194.186315 
L 438.34593 194.067796 
L 439.34593 193.997585 
L 440.34593 193.914323 
L 441.34593 193.881181 
L 442.34593 193.829943 
L 443.34593 193.761545 
L 444.34593 193.69533 
L 445.34593 193.618413 
L 446.666182 193.591097 
" clip-path="url(#p2e48097c7d)" style="fill: none; stroke: #ff7f0e; stroke-opacity: 0.5; stroke-width: 0.2; stroke-linecap: square"/>
   <path d="M 390.34593 195.845413 
L 391.34593 195.876849 
L 392.34593 195.913789 
L 393.34593 196.011536 
L 394.34593 196.044057 
L 395.34593 196.117682 
L 396.34593 196.156248 
L 397.34593 196.191661 
L 398.34593 196.249301 
L 399.34593 196.319687 
L 400.34593 196.371651 
L 401.34593 196.430741 
L 402.34593 196.519062 
L 403.34593 196.565206 
L 404.34593 196.607617 
L 405.34593 196.63811 
L 406.34593 196.664155 
L 407.34593 196.685355 
L 408.34593 196.739656 
L 409.34593 196.767594 
L 410.34593 196.797318 
L 411.34593 196.822712 
L 412.34593 196.833913 
L 413.34593 196.844037 
L 414.34593 196.843832 
L 415.34593 196.834322 
L 416.34593 196.822669 
L 417.34593 196.79164 
L 418.34593 196.780472 
L 419.34593 196.750354 
L 420.34593 196.690577 
L 421.34593 196.653386 
L 422.34593 196.61429 
L 423.34593 196.57185 
L 424.34593 196.539085 
L 425.34593 196.471658 
L 426.34593 196.432533 
L 427.34593 196.389858 
L 428.34593 196.319277 
L 429.34593 196.282887 
L 430.34593 196.224483 
L 431.34593 196.113531 
L 432.34593 196.042872 
L 433.34593 195.929933 
L 434.34593 195.88416 
L 435.34593 195.822876 
L 436.34593 195.774377 
L 437.34593 195.693554 
L 438.34593 195.575036 
L 439.34593 195.504825 
L 440.34593 195.421562 
L 441.34593 195.388421 
L 442.34593 195.337183 
L 443.34593 195.268785 
L 444.34593 195.20257 
L 445.34593 195.125653 
L 446.666182 195.098337 
" clip-path="url(#p2e48097c7d)" style="fill: none; stroke: #ff7f0e; stroke-opacity: 0.5; stroke-width: 0.2; stroke-linecap: square"/>
   <path d="M 390.34593 246.892768 
L 391.34593 246.924204 
L 392.34593 246.961144 
L 393.34593 247.058891 
L 394.34593 247.091412 
L 395.34593 247.165037 
L 396.34593 247.203603 
L 397.34593 247.239016 
L 398.34593 247.296656 
L 399.34593 247.367042 
L 400.34593 247.419006 
L 401.34593 247.478096 
L 402.34593 247.566417 
L 403.34593 247.612561 
L 404.34593 247.654972 
L 405.34593 247.685465 
L 406.34593 247.71151 
L 407.34593 247.73271 
L 408.34593 247.787011 
L 409.34593 247.814949 
L 410.34593 247.844673 
L 411.34593 247.870067 
L 412.34593 247.881268 
L 413.34593 247.891392 
L 414.34593 247.891187 
L 415.34593 247.881677 
L 416.34593 247.870024 
L 417.34593 247.838995 
L 418.34593 247.827827 
L 419.34593 247.797709 
L 420.34593 247.737932 
L 421.34593 247.700741 
L 422.34593 247.661645 
L 423.34593 247.619205 
L 424.34593 247.58644 
L 425.34593 247.519013 
L 426.34593 247.479887 
L 427.34593 247.437213 
L 428.34593 247.366632 
L 429.34593 247.330241 
L 430.34593 247.271838 
L 431.34593 247.160886 
L 432.34593 247.090227 
L 433.34593 246.977288 
L 434.34593 246.931515 
L 435.34593 246.870231 
L 436.34593 246.821732 
L 437.34593 246.740909 
L 438.34593 246.622391 
L 439.34593 246.55218 
L 440.34593 246.468917 
L 441.34593 246.435776 
L 442.34593 246.384538 
L 443.34593 246.31614 
L 444.34593 246.249925 
L 445.34593 246.173007 
L 446.666182 246.145692 
" clip-path="url(#p2e48097c7d)" style="fill: none; stroke: #ff7f0e; stroke-opacity: 0.5; stroke-width: 0.2; stroke-linecap: square"/>
   <path d="M 446.666182 261.482466 
L 445.666182 261.45103 
L 444.666182 261.414089 
L 443.666182 261.316343 
L 442.666182 261.283821 
L 441.666182 261.210197 
L 440.666182 261.171631 
L 439.666182 261.136218 
L 438.666182 261.078578 
L 437.666182 261.008192 
L 436.666182 260.956228 
L 435.666182 260.897138 
L 434.666182 260.808817 
L 433.666182 260.762672 
L 432.666182 260.720262 
L 431.666182 260.689769 
L 430.666182 260.663724 
L 429.666182 260.642524 
L 428.666182 260.588223 
L 427.666182 260.560285 
L 426.666182 260.530561 
L 425.666182 260.505166 
L 424.666182 260.493966 
L 423.666182 260.483842 
L 422.666182 260.484046 
L 421.666182 260.493556 
L 420.666182 260.50521 
L 419.666182 260.536239 
L 418.666182 260.547407 
L 417.666182 260.577525 
L 416.666182 260.637301 
L 415.666182 260.674493 
L 414.666182 260.713589 
L 413.666182 260.756029 
L 412.666182 260.788794 
L 411.666182 260.85622 
L 410.666182 260.895346 
L 409.666182 260.938021 
L 408.666182 261.008601 
L 407.666182 261.044992 
L 406.666182 261.103395 
L 405.666182 261.214348 
L 404.666182 261.285006 
L 403.666182 261.397946 
L 402.666182 261.443719 
L 401.666182 261.505002 
L 400.666182 261.553502 
L 399.666182 261.634324 
L 398.666182 261.752843 
L 397.666182 261.823054 
L 396.666182 261.906316 
L 395.666182 261.939458 
L 394.666182 261.990695 
L 393.666182 262.059094 
L 392.666182 262.125309 
L 391.666182 262.202226 
L 390.34593 262.229542 
" clip-path="url(#p2e48097c7d)" style="fill: none; stroke: #2ca02c; stroke-opacity: 0.5; stroke-width: 0.2; stroke-linecap: square"/>
   <path d="M 446.666182 88.340775 
L 445.666182 88.309338 
L 444.666182 88.272398 
L 443.666182 88.174651 
L 442.666182 88.14213 
L 441.666182 88.068505 
L 440.666182 88.02994 
L 439.666182 87.994526 
L 438.666182 87.936886 
L 437.666182 87.8665 
L 436.666182 87.814536 
L 435.666182 87.755446 
L 434.666182 87.667125 
L 433.666182 87.620981 
L 432.666182 87.57857 
L 431.666182 87.548077 
L 430.666182 87.522032 
L 429.666182 87.500832 
L 428.666182 87.446531 
L 427.666182 87.418594 
L 426.666182 87.38887 
L 425.666182 87.363475 
L 424.666182 87.352275 
L 423.666182 87.342151 
L 422.666182 87.342355 
L 421.666182 87.351865 
L 420.666182 87.363518 
L 419.666182 87.394548 
L 418.666182 87.405716 
L 417.666182 87.435833 
L 416.666182 87.49561 
L 415.666182 87.532802 
L 414.666182 87.571898 
L 413.666182 87.614337 
L 412.666182 87.647102 
L 411.666182 87.714529 
L 410.666182 87.753655 
L 409.666182 87.796329 
L 408.666182 87.86691 
L 407.666182 87.903301 
L 406.666182 87.961704 
L 405.666182 88.072657 
L 404.666182 88.143315 
L 403.666182 88.256255 
L 402.666182 88.302028 
L 401.666182 88.363311 
L 400.666182 88.41181 
L 399.666182 88.492633 
L 398.666182 88.611152 
L 397.666182 88.681362 
L 396.666182 88.764625 
L 395.666182 88.797767 
L 394.666182 88.849004 
L 393.666182 88.917402 
L 392.666182 88.983618 
L 391.666182 89.060535 
L 390.34593 89.08785 
" clip-path="url(#p2e48097c7d)" style="fill: none; stroke: #2ca02c; stroke-opacity: 0.5; stroke-width: 0.2; stroke-linecap: square"/>
   <path d="M 446.666182 41.944403 
L 445.666182 41.912967 
L 444.666182 41.876026 
L 443.666182 41.77828 
L 442.666182 41.745758 
L 441.666182 41.672134 
L 440.666182 41.633568 
L 439.666182 41.598155 
L 438.666182 41.540515 
L 437.666182 41.470129 
L 436.666182 41.418165 
L 435.666182 41.359075 
L 434.666182 41.270754 
L 433.666182 41.224609 
L 432.666182 41.182199 
L 431.666182 41.151706 
L 430.666182 41.125661 
L 429.666182 41.104461 
L 428.666182 41.05016 
L 427.666182 41.022222 
L 426.666182 40.992498 
L 425.666182 40.967103 
L 424.666182 40.955903 
L 423.666182 40.945779 
L 422.666182 40.945983 
L 421.666182 40.955493 
L 420.666182 40.967147 
L 419.666182 40.998176 
L 418.666182 41.009344 
L 417.666182 41.039462 
L 416.666182 41.099238 
L 415.666182 41.13643 
L 414.666182 41.175526 
L 413.666182 41.217966 
L 412.666182 41.250731 
L 411.666182 41.318157 
L 410.666182 41.357283 
L 409.666182 41.399958 
L 408.666182 41.470538 
L 407.666182 41.506929 
L 406.666182 41.565332 
L 405.666182 41.676285 
L 404.666182 41.746943 
L 403.666182 41.859883 
L 402.666182 41.905656 
L 401.666182 41.966939 
L 400.666182 42.015439 
L 399.666182 42.096261 
L 398.666182 42.21478 
L 397.666182 42.284991 
L 396.666182 42.368253 
L 395.666182 42.401395 
L 394.666182 42.452632 
L 393.666182 42.521031 
L 392.666182 42.587246 
L 391.666182 42.664163 
L 390.34593 42.691479 
" clip-path="url(#p2e48097c7d)" style="fill: none; stroke: #2ca02c; stroke-opacity: 0.5; stroke-width: 0.2; stroke-linecap: square"/>
   <path d="M 446.666182 169.225469 
L 445.666182 169.194032 
L 444.666182 169.157092 
L 443.666182 169.059345 
L 442.666182 169.026824 
L 441.666182 168.953199 
L 440.666182 168.914633 
L 439.666182 168.87922 
L 438.666182 168.82158 
L 437.666182 168.751194 
L 436.666182 168.69923 
L 435.666182 168.64014 
L 434.666182 168.551819 
L 433.666182 168.505675 
L 432.666182 168.463264 
L 431.666182 168.432771 
L 430.666182 168.406726 
L 429.666182 168.385526 
L 428.666182 168.331225 
L 427.666182 168.303288 
L 426.666182 168.273564 
L 425.666182 168.248169 
L 424.666182 168.236968 
L 423.666182 168.226844 
L 422.666182 168.227049 
L 421.666182 168.236559 
L 420.666182 168.248212 
L 419.666182 168.279241 
L 418.666182 168.290409 
L 417.666182 168.320527 
L 416.666182 168.380304 
L 415.666182 168.417495 
L 414.666182 168.456591 
L 413.666182 168.499031 
L 412.666182 168.531796 
L 411.666182 168.599223 
L 410.666182 168.638349 
L 409.666182 168.681023 
L 408.666182 168.751604 
L 407.666182 168.787995 
L 406.666182 168.846398 
L 405.666182 168.95735 
L 404.666182 169.028009 
L 403.666182 169.140948 
L 402.666182 169.186721 
L 401.666182 169.248005 
L 400.666182 169.296504 
L 399.666182 169.377327 
L 398.666182 169.495846 
L 397.666182 169.566056 
L 396.666182 169.649319 
L 395.666182 169.68246 
L 394.666182 169.733698 
L 393.666182 169.802096 
L 392.666182 169.868312 
L 391.666182 169.945229 
L 390.34593 169.972544 
" clip-path="url(#p2e48097c7d)" style="fill: none; stroke: #2ca02c; stroke-opacity: 0.5; stroke-width: 0.2; stroke-linecap: square"/>
   <path d="M 446.666182 134.734643 
L 445.666182 134.703206 
L 444.666182 134.666266 
L 443.666182 134.568519 
L 442.666182 134.535998 
L 441.666182 134.462373 
L 440.666182 134.423807 
L 439.666182 134.388394 
L 438.666182 134.330754 
L 437.666182 134.260368 
L 436.666182 134.208404 
L 435.666182 134.149314 
L 434.666182 134.060993 
L 433.666182 134.014849 
L 432.666182 133.972438 
L 431.666182 133.941945 
L 430.666182 133.9159 
L 429.666182 133.8947 
L 428.666182 133.840399 
L 427.666182 133.812462 
L 426.666182 133.782738 
L 425.666182 133.757343 
L 424.666182 133.746142 
L 423.666182 133.736018 
L 422.666182 133.736223 
L 421.666182 133.745733 
L 420.666182 133.757386 
L 419.666182 133.788416 
L 418.666182 133.799583 
L 417.666182 133.829701 
L 416.666182 133.889478 
L 415.666182 133.926669 
L 414.666182 133.965766 
L 413.666182 134.008205 
L 412.666182 134.04097 
L 411.666182 134.108397 
L 410.666182 134.147523 
L 409.666182 134.190197 
L 408.666182 134.260778 
L 407.666182 134.297169 
L 406.666182 134.355572 
L 405.666182 134.466524 
L 404.666182 134.537183 
L 403.666182 134.650123 
L 402.666182 134.695895 
L 401.666182 134.757179 
L 400.666182 134.805678 
L 399.666182 134.886501 
L 398.666182 135.00502 
L 397.666182 135.07523 
L 396.666182 135.158493 
L 395.666182 135.191635 
L 394.666182 135.242872 
L 393.666182 135.31127 
L 392.666182 135.377486 
L 391.666182 135.454403 
L 390.34593 135.481718 
" clip-path="url(#p2e48097c7d)" style="fill: none; stroke: #2ca02c; stroke-opacity: 0.5; stroke-width: 0.2; stroke-linecap: square"/>
   <path d="M 446.666182 187.683467 
L 445.666182 187.65203 
L 444.666182 187.61509 
L 443.666182 187.517343 
L 442.666182 187.484822 
L 441.666182 187.411197 
L 440.666182 187.372631 
L 439.666182 187.337218 
L 438.666182 187.279578 
L 437.666182 187.209192 
L 436.666182 187.157228 
L 435.666182 187.098138 
L 434.666182 187.009817 
L 433.666182 186.963673 
L 432.666182 186.921262 
L 431.666182 186.890769 
L 430.666182 186.864724 
L 429.666182 186.843524 
L 428.666182 186.789223 
L 427.666182 186.761286 
L 426.666182 186.731562 
L 425.666182 186.706167 
L 424.666182 186.694966 
L 423.666182 186.684842 
L 422.666182 186.685047 
L 421.666182 186.694557 
L 420.666182 186.70621 
L 419.666182 186.737239 
L 418.666182 186.748407 
L 417.666182 186.778525 
L 416.666182 186.838302 
L 415.666182 186.875493 
L 414.666182 186.914589 
L 413.666182 186.957029 
L 412.666182 186.989794 
L 411.666182 187.057221 
L 410.666182 187.096347 
L 409.666182 187.139021 
L 408.666182 187.209602 
L 407.666182 187.245993 
L 406.666182 187.304396 
L 405.666182 187.415348 
L 404.666182 187.486007 
L 403.666182 187.598947 
L 402.666182 187.644719 
L 401.666182 187.706003 
L 400.666182 187.754502 
L 399.666182 187.835325 
L 398.666182 187.953844 
L 397.666182 188.024054 
L 396.666182 188.107317 
L 395.666182 188.140458 
L 394.666182 188.191696 
L 393.666182 188.260094 
L 392.666182 188.32631 
L 391.666182 188.403227 
L 390.34593 188.430542 
" clip-path="url(#p2e48097c7d)" style="fill: none; stroke: #2ca02c; stroke-opacity: 0.5; stroke-width: 0.2; stroke-linecap: square"/>
   <path d="M 446.666182 212.263604 
L 445.666182 212.232167 
L 444.666182 212.195227 
L 443.666182 212.09748 
L 442.666182 212.064959 
L 441.666182 211.991334 
L 440.666182 211.952768 
L 439.666182 211.917355 
L 438.666182 211.859715 
L 437.666182 211.789329 
L 436.666182 211.737365 
L 435.666182 211.678275 
L 434.666182 211.589954 
L 433.666182 211.54381 
L 432.666182 211.501399 
L 431.666182 211.470906 
L 430.666182 211.444861 
L 429.666182 211.423661 
L 428.666182 211.36936 
L 427.666182 211.341422 
L 426.666182 211.311699 
L 425.666182 211.286304 
L 424.666182 211.275103 
L 423.666182 211.264979 
L 422.666182 211.265184 
L 421.666182 211.274694 
L 420.666182 211.286347 
L 419.666182 211.317376 
L 418.666182 211.328544 
L 417.666182 211.358662 
L 416.666182 211.418439 
L 415.666182 211.45563 
L 414.666182 211.494726 
L 413.666182 211.537166 
L 412.666182 211.569931 
L 411.666182 211.637358 
L 410.666182 211.676484 
L 409.666182 211.719158 
L 408.666182 211.789739 
L 407.666182 211.82613 
L 406.666182 211.884533 
L 405.666182 211.995485 
L 404.666182 212.066144 
L 403.666182 212.179083 
L 402.666182 212.224856 
L 401.666182 212.28614 
L 400.666182 212.334639 
L 399.666182 212.415462 
L 398.666182 212.533981 
L 397.666182 212.604191 
L 396.666182 212.687454 
L 395.666182 212.720595 
L 394.666182 212.771833 
L 393.666182 212.840231 
L 392.666182 212.906446 
L 391.666182 212.983364 
L 390.34593 213.010679 
" clip-path="url(#p2e48097c7d)" style="fill: none; stroke: #2ca02c; stroke-opacity: 0.5; stroke-width: 0.2; stroke-linecap: square"/>
   <path d="M 446.666182 246.688879 
L 445.666182 246.657443 
L 444.666182 246.620502 
L 443.666182 246.522756 
L 442.666182 246.490234 
L 441.666182 246.416609 
L 440.666182 246.378044 
L 439.666182 246.342631 
L 438.666182 246.284991 
L 437.666182 246.214605 
L 436.666182 246.16264 
L 435.666182 246.103551 
L 434.666182 246.01523 
L 433.666182 245.969085 
L 432.666182 245.926674 
L 431.666182 245.896182 
L 430.666182 245.870137 
L 429.666182 245.848937 
L 428.666182 245.794636 
L 427.666182 245.766698 
L 426.666182 245.736974 
L 425.666182 245.711579 
L 424.666182 245.700379 
L 423.666182 245.690255 
L 422.666182 245.690459 
L 421.666182 245.699969 
L 420.666182 245.711623 
L 419.666182 245.742652 
L 418.666182 245.75382 
L 417.666182 245.783937 
L 416.666182 245.843714 
L 415.666182 245.880906 
L 414.666182 245.920002 
L 413.666182 245.962442 
L 412.666182 245.995207 
L 411.666182 246.062633 
L 410.666182 246.101759 
L 409.666182 246.144434 
L 408.666182 246.215014 
L 407.666182 246.251405 
L 406.666182 246.309808 
L 405.666182 246.420761 
L 404.666182 246.491419 
L 403.666182 246.604359 
L 402.666182 246.650132 
L 401.666182 246.711415 
L 400.666182 246.759914 
L 399.666182 246.840737 
L 398.666182 246.959256 
L 397.666182 247.029467 
L 396.666182 247.112729 
L 395.666182 247.145871 
L 394.666182 247.197108 
L 393.666182 247.265507 
L 392.666182 247.331722 
L 391.666182 247.408639 
L 390.34593 247.435955 
" clip-path="url(#p2e48097c7d)" style="fill: none; stroke: #2ca02c; stroke-opacity: 0.5; stroke-width: 0.2; stroke-linecap: square"/>
   <path d="M 446.666182 274.994374 
L 445.666182 274.962937 
L 444.666182 274.925997 
L 443.666182 274.82825 
L 442.666182 274.795729 
L 441.666182 274.722104 
L 440.666182 274.683539 
L 439.666182 274.648125 
L 438.666182 274.590485 
L 437.666182 274.520099 
L 436.666182 274.468135 
L 435.666182 274.409045 
L 434.666182 274.320724 
L 433.666182 274.27458 
L 432.666182 274.232169 
L 431.666182 274.201676 
L 430.666182 274.175631 
L 429.666182 274.154431 
L 428.666182 274.10013 
L 427.666182 274.072193 
L 426.666182 274.042469 
L 425.666182 274.017074 
L 424.666182 274.005874 
L 423.666182 273.99575 
L 422.666182 273.995954 
L 421.666182 274.005464 
L 420.666182 274.017117 
L 419.666182 274.048147 
L 418.666182 274.059315 
L 417.666182 274.089432 
L 416.666182 274.149209 
L 415.666182 274.186401 
L 414.666182 274.225497 
L 413.666182 274.267936 
L 412.666182 274.300701 
L 411.666182 274.368128 
L 410.666182 274.407254 
L 409.666182 274.449928 
L 408.666182 274.520509 
L 407.666182 274.5569 
L 406.666182 274.615303 
L 405.666182 274.726256 
L 404.666182 274.796914 
L 403.666182 274.909854 
L 402.666182 274.955627 
L 401.666182 275.01691 
L 400.666182 275.065409 
L 399.666182 275.146232 
L 398.666182 275.264751 
L 397.666182 275.334961 
L 396.666182 275.418224 
L 395.666182 275.451366 
L 394.666182 275.502603 
L 393.666182 275.571001 
L 392.666182 275.637217 
L 391.666182 275.714134 
L 390.34593 275.741449 
" clip-path="url(#p2e48097c7d)" style="fill: none; stroke: #2ca02c; stroke-opacity: 0.5; stroke-width: 0.2; stroke-linecap: square"/>
   <path d="M 446.666182 7.42667 
L 445.666182 7.395234 
L 444.666182 7.358294 
L 443.666182 7.260547 
L 442.666182 7.228025 
L 441.666182 7.154401 
L 440.666182 7.115835 
L 439.666182 7.080422 
L 438.666182 7.022782 
L 437.666182 6.952396 
L 436.666182 6.900432 
L 435.666182 6.841342 
L 434.666182 6.753021 
L 433.666182 6.706877 
L 432.666182 6.664466 
L 431.666182 6.633973 
L 430.666182 6.607928 
L 429.666182 6.586728 
L 428.666182 6.532427 
L 427.666182 6.504489 
L 426.666182 6.474765 
L 425.666182 6.449371 
L 424.666182 6.43817 
L 423.666182 6.428046 
L 422.666182 6.428251 
L 421.666182 6.43776 
L 420.666182 6.449414 
L 419.666182 6.480443 
L 418.666182 6.491611 
L 417.666182 6.521729 
L 416.666182 6.581506 
L 415.666182 6.618697 
L 414.666182 6.657793 
L 413.666182 6.700233 
L 412.666182 6.732998 
L 411.666182 6.800424 
L 410.666182 6.83955 
L 409.666182 6.882225 
L 408.666182 6.952806 
L 407.666182 6.989196 
L 406.666182 7.0476 
L 405.666182 7.158552 
L 404.666182 7.22921 
L 403.666182 7.34215 
L 402.666182 7.387923 
L 401.666182 7.449206 
L 400.666182 7.497706 
L 399.666182 7.578528 
L 398.666182 7.697047 
L 397.666182 7.767258 
L 396.666182 7.85052 
L 395.666182 7.883662 
L 394.666182 7.9349 
L 393.666182 8.003298 
L 392.666182 8.069513 
L 391.666182 8.14643 
L 390.34593 8.173746 
" clip-path="url(#p2e48097c7d)" style="fill: none; stroke: #2ca02c; stroke-opacity: 0.5; stroke-width: 0.2; stroke-linecap: square"/>
   <g id="patch_3">
    <path d="M 72.103551 7.2 
L 72.103551 318.021875 
M 194.769099 7.2 
L 194.769099 318.021875 
" clip-path="url(#p2e48097c7d)" style="fill: none; stroke: #ffffff; stroke-width: 3; stroke-linejoin: miter"/>
    <path d="M 72.103551 7.2 
L 72.103551 318.021875 
M 194.769099 7.2 
L 194.769099 318.021875 
" clip-path="url(#p2e48097c7d)" style="fill: none; stroke: #1f77b4; stroke-linejoin: miter"/>
    <g id="PolyCollection_1">
     <path d="M 194.769099 7.2 
L 72.103551 7.2 
L 72.103551 318.021875 
L 194.769099 318.021875 
L 194.769099 318.021875 
L 194.769099 7.2 
z
" clip-path="url(#p2e48097c7d)" style="fill: #1f77b4; fill-opacity: 0.5"/>
    </g>
    <g id="patch_4">
     <path d="M 262.150038 7.2 
L 262.150038 318.021875 
M 384.815587 7.2 
L 384.815587 318.021875 
" clip-path="url(#p2e48097c7d)" style="fill: none; stroke: #ffffff; stroke-width: 3; stroke-linejoin: miter"/>
     <path d="M 262.150038 7.2 
L 262.150038 318.021875 
M 384.815587 7.2 
L 384.815587 318.021875 
" clip-path="url(#p2e48097c7d)" style="fill: none; stroke: #ff7f0e; stroke-linejoin: miter"/>
     <g id="PolyCollection_2">
      <path d="M 384.815587 7.2 
L 262.150038 7.2 
L 262.150038 318.021875 
L 384.815587 318.021875 
L 384.815587 318.021875 
L 384.815587 7.2 
z
" clip-path="url(#p2e48097c7d)" style="fill: #ff7f0e; fill-opacity: 0.5"/>
     </g>
     <g id="patch_5">
      <path d="M 452.196526 7.2 
L 452.196526 318.021875 
M 574.862074 7.2 
L 574.862074 318.021875 
" clip-path="url(#p2e48097c7d)" style="fill: none; stroke: #ffffff; stroke-width: 3; stroke-linejoin: miter"/>
      <path d="M 452.196526 7.2 
L 452.196526 318.021875 
M 574.862074 7.2 
L 574.862074 318.021875 
" clip-path="url(#p2e48097c7d)" style="fill: none; stroke: #2ca02c; stroke-linejoin: miter"/>
      <g id="PolyCollection_3">
       <path d="M 574.862074 7.2 
L 452.196526 7.2 
L 452.196526 318.021875 
L 574.862074 318.021875 
L 574.862074 318.021875 
L 574.862074 7.2 
z
" clip-path="url(#p2e48097c7d)" style="fill: #2ca02c; fill-opacity: 0.5"/>
      </g>
      <g id="matplotlib.axis_1">
       <g id="xtick_1">
        <g id="line2d_1"/>
        <g id="text_1">
         <!-- d0 -->
         <g transform="translate(127.080856 329.120312) scale(0.1 -0.1)">
          <defs>
           <path id="DejaVuSans-64" d="M 2906 2969 
L 2906 4863 
L 3481 4863 
L 3481 0 
L 2906 0 
L 2906 525 
Q 2725 213 2448 61 
Q 2172 -91 1784 -91 
Q 1150 -91 751 415 
Q 353 922 353 1747 
Q 353 2572 751 3078 
Q 1150 3584 1784 3584 
Q 2172 3584 2448 3432 
Q 2725 3281 2906 2969 
z
M 947 1747 
Q 947 1113 1208 752 
Q 1469 391 1925 391 
Q 2381 391 2643 752 
Q 2906 1113 2906 1747 
Q 2906 2381 2643 2742 
Q 2381 3103 1925 3103 
Q 1469 3103 1208 2742 
Q 947 2381 947 1747 
z
" transform="scale(0.015625)"/>
           <path id="DejaVuSans-30" d="M 2034 4250 
Q 1547 4250 1301 3770 
Q 1056 3291 1056 2328 
Q 1056 1369 1301 889 
Q 1547 409 2034 409 
Q 2525 409 2770 889 
Q 3016 1369 3016 2328 
Q 3016 3291 2770 3770 
Q 2525 4250 2034 4250 
z
M 2034 4750 
Q 2819 4750 3233 4129 
Q 3647 3509 3647 2328 
Q 3647 1150 3233 529 
Q 2819 -91 2034 -91 
Q 1250 -91 836 529 
Q 422 1150 422 2328 
Q 422 3509 836 4129 
Q 1250 4750 2034 4750 
z
" transform="scale(0.015625)"/>
          </defs>
          <use xlink:href="#DejaVuSans-64"/>
          <use xlink:href="#DejaVuSans-30" x="63.476562"/>
         </g>
        </g>
       </g>
       <g id="xtick_2">
        <g id="line2d_2"/>
        <g id="text_2">
         <!-- d1 -->
         <g transform="translate(317.127344 329.120312) scale(0.1 -0.1)">
          <defs>
           <path id="DejaVuSans-31" d="M 794 531 
L 1825 531 
L 1825 4091 
L 703 3866 
L 703 4441 
L 1819 4666 
L 2450 4666 
L 2450 531 
L 3481 531 
L 3481 0 
L 794 0 
L 794 531 
z
" transform="scale(0.015625)"/>
          </defs>
          <use xlink:href="#DejaVuSans-64"/>
          <use xlink:href="#DejaVuSans-31" x="63.476562"/>
         </g>
        </g>
       </g>
       <g id="xtick_3">
        <g id="line2d_3"/>
        <g id="text_3">
         <!-- d2 -->
         <g transform="translate(507.173831 329.120312) scale(0.1 -0.1)">
          <defs>
           <path id="DejaVuSans-32" d="M 1228 531 
L 3431 531 
L 3431 0 
L 469 0 
L 469 531 
Q 828 903 1448 1529 
Q 2069 2156 2228 2338 
Q 2531 2678 2651 2914 
Q 2772 3150 2772 3378 
Q 2772 3750 2511 3984 
Q 2250 4219 1831 4219 
Q 1534 4219 1204 4116 
Q 875 4013 500 3803 
L 500 4441 
Q 881 4594 1212 4672 
Q 1544 4750 1819 4750 
Q 2544 4750 2975 4387 
Q 3406 4025 3406 3419 
Q 3406 3131 3298 2873 
Q 3191 2616 2906 2266 
Q 2828 2175 2409 1742 
Q 1991 1309 1228 531 
z
" transform="scale(0.015625)"/>
          </defs>
          <use xlink:href="#DejaVuSans-64"/>
          <use xlink:href="#DejaVuSans-32" x="63.476562"/>
         </g>
        </g>
       </g>
      </g>
      <g id="matplotlib.axis_2">
       <g id="ytick_1">
        <g id="line2d_4">
         <defs>
          <path id="me0bceee723" d="M 0 0 
L -3.5 0 
" style="stroke: #000000; stroke-width: 0.8"/>
         </defs>
         <g>
          <use xlink:href="#me0bceee723" x="46.965625" y="318.021875" style="stroke: #000000; stroke-width: 0.8"/>
         </g>
        </g>
        <g id="text_4">
         <!-- 0 -->
         <g transform="translate(33.603125 321.821094) scale(0.1 -0.1)">
          <use xlink:href="#DejaVuSans-30"/>
         </g>
        </g>
       </g>
       <g id="ytick_2">
        <g id="line2d_5">
         <g>
          <use xlink:href="#me0bceee723" x="46.965625" y="263.009154" style="stroke: #000000; stroke-width: 0.8"/>
         </g>
        </g>
        <g id="text_5">
         <!-- 20 -->
         <g transform="translate(27.240625 266.808373) scale(0.1 -0.1)">
          <use xlink:href="#DejaVuSans-32"/>
          <use xlink:href="#DejaVuSans-30" x="63.623047"/>
         </g>
        </g>
       </g>
       <g id="ytick_3">
        <g id="line2d_6">
         <g>
          <use xlink:href="#me0bceee723" x="46.965625" y="207.996433" style="stroke: #000000; stroke-width: 0.8"/>
         </g>
        </g>
        <g id="text_6">
         <!-- 40 -->
         <g transform="translate(27.240625 211.795651) scale(0.1 -0.1)">
          <defs>
           <path id="DejaVuSans-34" d="M 2419 4116 
L 825 1625 
L 2419 1625 
L 2419 4116 
z
M 2253 4666 
L 3047 4666 
L 3047 1625 
L 3713 1625 
L 3713 1100 
L 3047 1100 
L 3047 0 
L 2419 0 
L 2419 1100 
L 313 1100 
L 313 1709 
L 2253 4666 
z
" transform="scale(0.015625)"/>
          </defs>
          <use xlink:href="#DejaVuSans-34"/>
          <use xlink:href="#DejaVuSans-30" x="63.623047"/>
         </g>
        </g>
       </g>
       <g id="ytick_4">
        <g id="line2d_7">
         <g>
          <use xlink:href="#me0bceee723" x="46.965625" y="152.983711" style="stroke: #000000; stroke-width: 0.8"/>
         </g>
        </g>
        <g id="text_7">
         <!-- 60 -->
         <g transform="translate(27.240625 156.78293) scale(0.1 -0.1)">
          <defs>
           <path id="DejaVuSans-36" d="M 2113 2584 
Q 1688 2584 1439 2293 
Q 1191 2003 1191 1497 
Q 1191 994 1439 701 
Q 1688 409 2113 409 
Q 2538 409 2786 701 
Q 3034 994 3034 1497 
Q 3034 2003 2786 2293 
Q 2538 2584 2113 2584 
z
M 3366 4563 
L 3366 3988 
Q 3128 4100 2886 4159 
Q 2644 4219 2406 4219 
Q 1781 4219 1451 3797 
Q 1122 3375 1075 2522 
Q 1259 2794 1537 2939 
Q 1816 3084 2150 3084 
Q 2853 3084 3261 2657 
Q 3669 2231 3669 1497 
Q 3669 778 3244 343 
Q 2819 -91 2113 -91 
Q 1303 -91 875 529 
Q 447 1150 447 2328 
Q 447 3434 972 4092 
Q 1497 4750 2381 4750 
Q 2619 4750 2861 4703 
Q 3103 4656 3366 4563 
z
" transform="scale(0.015625)"/>
          </defs>
          <use xlink:href="#DejaVuSans-36"/>
          <use xlink:href="#DejaVuSans-30" x="63.623047"/>
         </g>
        </g>
       </g>
       <g id="ytick_5">
        <g id="line2d_8">
         <g>
          <use xlink:href="#me0bceee723" x="46.965625" y="97.97099" style="stroke: #000000; stroke-width: 0.8"/>
         </g>
        </g>
        <g id="text_8">
         <!-- 80 -->
         <g transform="translate(27.240625 101.770209) scale(0.1 -0.1)">
          <defs>
           <path id="DejaVuSans-38" d="M 2034 2216 
Q 1584 2216 1326 1975 
Q 1069 1734 1069 1313 
Q 1069 891 1326 650 
Q 1584 409 2034 409 
Q 2484 409 2743 651 
Q 3003 894 3003 1313 
Q 3003 1734 2745 1975 
Q 2488 2216 2034 2216 
z
M 1403 2484 
Q 997 2584 770 2862 
Q 544 3141 544 3541 
Q 544 4100 942 4425 
Q 1341 4750 2034 4750 
Q 2731 4750 3128 4425 
Q 3525 4100 3525 3541 
Q 3525 3141 3298 2862 
Q 3072 2584 2669 2484 
Q 3125 2378 3379 2068 
Q 3634 1759 3634 1313 
Q 3634 634 3220 271 
Q 2806 -91 2034 -91 
Q 1263 -91 848 271 
Q 434 634 434 1313 
Q 434 1759 690 2068 
Q 947 2378 1403 2484 
z
M 1172 3481 
Q 1172 3119 1398 2916 
Q 1625 2713 2034 2713 
Q 2441 2713 2670 2916 
Q 2900 3119 2900 3481 
Q 2900 3844 2670 4047 
Q 2441 4250 2034 4250 
Q 1625 4250 1398 4047 
Q 1172 3844 1172 3481 
z
" transform="scale(0.015625)"/>
          </defs>
          <use xlink:href="#DejaVuSans-38"/>
          <use xlink:href="#DejaVuSans-30" x="63.623047"/>
         </g>
        </g>
       </g>
       <g id="ytick_6">
        <g id="line2d_9">
         <g>
          <use xlink:href="#me0bceee723" x="46.965625" y="42.958269" style="stroke: #000000; stroke-width: 0.8"/>
         </g>
        </g>
        <g id="text_9">
         <!-- 100 -->
         <g transform="translate(20.878125 46.757488) scale(0.1 -0.1)">
          <use xlink:href="#DejaVuSans-31"/>
          <use xlink:href="#DejaVuSans-30" x="63.623047"/>
          <use xlink:href="#DejaVuSans-30" x="127.246094"/>
         </g>
        </g>
       </g>
       <g id="text_10">
        <!-- time ago (generations) -->
        <g transform="translate(14.798438 220.082031) rotate(-90) scale(0.1 -0.1)">
         <defs>
          <path id="DejaVuSans-74" d="M 1172 4494 
L 1172 3500 
L 2356 3500 
L 2356 3053 
L 1172 3053 
L 1172 1153 
Q 1172 725 1289 603 
Q 1406 481 1766 481 
L 2356 481 
L 2356 0 
L 1766 0 
Q 1100 0 847 248 
Q 594 497 594 1153 
L 594 3053 
L 172 3053 
L 172 3500 
L 594 3500 
L 594 4494 
L 1172 4494 
z
" transform="scale(0.015625)"/>
          <path id="DejaVuSans-69" d="M 603 3500 
L 1178 3500 
L 1178 0 
L 603 0 
L 603 3500 
z
M 603 4863 
L 1178 4863 
L 1178 4134 
L 603 4134 
L 603 4863 
z
" transform="scale(0.015625)"/>
          <path id="DejaVuSans-6d" d="M 3328 2828 
Q 3544 3216 3844 3400 
Q 4144 3584 4550 3584 
Q 5097 3584 5394 3201 
Q 5691 2819 5691 2113 
L 5691 0 
L 5113 0 
L 5113 2094 
Q 5113 2597 4934 2840 
Q 4756 3084 4391 3084 
Q 3944 3084 3684 2787 
Q 3425 2491 3425 1978 
L 3425 0 
L 2847 0 
L 2847 2094 
Q 2847 2600 2669 2842 
Q 2491 3084 2119 3084 
Q 1678 3084 1418 2786 
Q 1159 2488 1159 1978 
L 1159 0 
L 581 0 
L 581 3500 
L 1159 3500 
L 1159 2956 
Q 1356 3278 1631 3431 
Q 1906 3584 2284 3584 
Q 2666 3584 2933 3390 
Q 3200 3197 3328 2828 
z
" transform="scale(0.015625)"/>
          <path id="DejaVuSans-65" d="M 3597 1894 
L 3597 1613 
L 953 1613 
Q 991 1019 1311 708 
Q 1631 397 2203 397 
Q 2534 397 2845 478 
Q 3156 559 3463 722 
L 3463 178 
Q 3153 47 2828 -22 
Q 2503 -91 2169 -91 
Q 1331 -91 842 396 
Q 353 884 353 1716 
Q 353 2575 817 3079 
Q 1281 3584 2069 3584 
Q 2775 3584 3186 3129 
Q 3597 2675 3597 1894 
z
M 3022 2063 
Q 3016 2534 2758 2815 
Q 2500 3097 2075 3097 
Q 1594 3097 1305 2825 
Q 1016 2553 972 2059 
L 3022 2063 
z
" transform="scale(0.015625)"/>
          <path id="DejaVuSans-20" transform="scale(0.015625)"/>
          <path id="DejaVuSans-61" d="M 2194 1759 
Q 1497 1759 1228 1600 
Q 959 1441 959 1056 
Q 959 750 1161 570 
Q 1363 391 1709 391 
Q 2188 391 2477 730 
Q 2766 1069 2766 1631 
L 2766 1759 
L 2194 1759 
z
M 3341 1997 
L 3341 0 
L 2766 0 
L 2766 531 
Q 2569 213 2275 61 
Q 1981 -91 1556 -91 
Q 1019 -91 701 211 
Q 384 513 384 1019 
Q 384 1609 779 1909 
Q 1175 2209 1959 2209 
L 2766 2209 
L 2766 2266 
Q 2766 2663 2505 2880 
Q 2244 3097 1772 3097 
Q 1472 3097 1187 3025 
Q 903 2953 641 2809 
L 641 3341 
Q 956 3463 1253 3523 
Q 1550 3584 1831 3584 
Q 2591 3584 2966 3190 
Q 3341 2797 3341 1997 
z
" transform="scale(0.015625)"/>
          <path id="DejaVuSans-67" d="M 2906 1791 
Q 2906 2416 2648 2759 
Q 2391 3103 1925 3103 
Q 1463 3103 1205 2759 
Q 947 2416 947 1791 
Q 947 1169 1205 825 
Q 1463 481 1925 481 
Q 2391 481 2648 825 
Q 2906 1169 2906 1791 
z
M 3481 434 
Q 3481 -459 3084 -895 
Q 2688 -1331 1869 -1331 
Q 1566 -1331 1297 -1286 
Q 1028 -1241 775 -1147 
L 775 -588 
Q 1028 -725 1275 -790 
Q 1522 -856 1778 -856 
Q 2344 -856 2625 -561 
Q 2906 -266 2906 331 
L 2906 616 
Q 2728 306 2450 153 
Q 2172 0 1784 0 
Q 1141 0 747 490 
Q 353 981 353 1791 
Q 353 2603 747 3093 
Q 1141 3584 1784 3584 
Q 2172 3584 2450 3431 
Q 2728 3278 2906 2969 
L 2906 3500 
L 3481 3500 
L 3481 434 
z
" transform="scale(0.015625)"/>
          <path id="DejaVuSans-6f" d="M 1959 3097 
Q 1497 3097 1228 2736 
Q 959 2375 959 1747 
Q 959 1119 1226 758 
Q 1494 397 1959 397 
Q 2419 397 2687 759 
Q 2956 1122 2956 1747 
Q 2956 2369 2687 2733 
Q 2419 3097 1959 3097 
z
M 1959 3584 
Q 2709 3584 3137 3096 
Q 3566 2609 3566 1747 
Q 3566 888 3137 398 
Q 2709 -91 1959 -91 
Q 1206 -91 779 398 
Q 353 888 353 1747 
Q 353 2609 779 3096 
Q 1206 3584 1959 3584 
z
" transform="scale(0.015625)"/>
          <path id="DejaVuSans-28" d="M 1984 4856 
Q 1566 4138 1362 3434 
Q 1159 2731 1159 2009 
Q 1159 1288 1364 580 
Q 1569 -128 1984 -844 
L 1484 -844 
Q 1016 -109 783 600 
Q 550 1309 550 2009 
Q 550 2706 781 3412 
Q 1013 4119 1484 4856 
L 1984 4856 
z
" transform="scale(0.015625)"/>
          <path id="DejaVuSans-6e" d="M 3513 2113 
L 3513 0 
L 2938 0 
L 2938 2094 
Q 2938 2591 2744 2837 
Q 2550 3084 2163 3084 
Q 1697 3084 1428 2787 
Q 1159 2491 1159 1978 
L 1159 0 
L 581 0 
L 581 3500 
L 1159 3500 
L 1159 2956 
Q 1366 3272 1645 3428 
Q 1925 3584 2291 3584 
Q 2894 3584 3203 3211 
Q 3513 2838 3513 2113 
z
" transform="scale(0.015625)"/>
          <path id="DejaVuSans-72" d="M 2631 2963 
Q 2534 3019 2420 3045 
Q 2306 3072 2169 3072 
Q 1681 3072 1420 2755 
Q 1159 2438 1159 1844 
L 1159 0 
L 581 0 
L 581 3500 
L 1159 3500 
L 1159 2956 
Q 1341 3275 1631 3429 
Q 1922 3584 2338 3584 
Q 2397 3584 2469 3576 
Q 2541 3569 2628 3553 
L 2631 2963 
z
" transform="scale(0.015625)"/>
          <path id="DejaVuSans-73" d="M 2834 3397 
L 2834 2853 
Q 2591 2978 2328 3040 
Q 2066 3103 1784 3103 
Q 1356 3103 1142 2972 
Q 928 2841 928 2578 
Q 928 2378 1081 2264 
Q 1234 2150 1697 2047 
L 1894 2003 
Q 2506 1872 2764 1633 
Q 3022 1394 3022 966 
Q 3022 478 2636 193 
Q 2250 -91 1575 -91 
Q 1294 -91 989 -36 
Q 684 19 347 128 
L 347 722 
Q 666 556 975 473 
Q 1284 391 1588 391 
Q 1994 391 2212 530 
Q 2431 669 2431 922 
Q 2431 1156 2273 1281 
Q 2116 1406 1581 1522 
L 1381 1569 
Q 847 1681 609 1914 
Q 372 2147 372 2553 
Q 372 3047 722 3315 
Q 1072 3584 1716 3584 
Q 2034 3584 2315 3537 
Q 2597 3491 2834 3397 
z
" transform="scale(0.015625)"/>
          <path id="DejaVuSans-29" d="M 513 4856 
L 1013 4856 
Q 1481 4119 1714 3412 
Q 1947 2706 1947 2009 
Q 1947 1309 1714 600 
Q 1481 -109 1013 -844 
L 513 -844 
Q 928 -128 1133 580 
Q 1338 1288 1338 2009 
Q 1338 2731 1133 3434 
Q 928 4138 513 4856 
z
" transform="scale(0.015625)"/>
         </defs>
         <use xlink:href="#DejaVuSans-74"/>
         <use xlink:href="#DejaVuSans-69" x="39.208984"/>
         <use xlink:href="#DejaVuSans-6d" x="66.992188"/>
         <use xlink:href="#DejaVuSans-65" x="164.404297"/>
         <use xlink:href="#DejaVuSans-20" x="225.927734"/>
         <use xlink:href="#DejaVuSans-61" x="257.714844"/>
         <use xlink:href="#DejaVuSans-67" x="318.994141"/>
         <use xlink:href="#DejaVuSans-6f" x="382.470703"/>
         <use xlink:href="#DejaVuSans-20" x="443.652344"/>
         <use xlink:href="#DejaVuSans-28" x="475.439453"/>
         <use xlink:href="#DejaVuSans-67" x="514.453125"/>
         <use xlink:href="#DejaVuSans-65" x="577.929688"/>
         <use xlink:href="#DejaVuSans-6e" x="639.453125"/>
         <use xlink:href="#DejaVuSans-65" x="702.832031"/>
         <use xlink:href="#DejaVuSans-72" x="764.355469"/>
         <use xlink:href="#DejaVuSans-61" x="805.46875"/>
         <use xlink:href="#DejaVuSans-74" x="866.748047"/>
         <use xlink:href="#DejaVuSans-69" x="905.957031"/>
         <use xlink:href="#DejaVuSans-6f" x="933.740234"/>
         <use xlink:href="#DejaVuSans-6e" x="994.921875"/>
         <use xlink:href="#DejaVuSans-73" x="1058.300781"/>
         <use xlink:href="#DejaVuSans-29" x="1110.400391"/>
        </g>
       </g>
      </g>
      <path d="M 257.619695 251.628466 
L 255.619695 250.628466 
L 255.619695 252.628466 
z
" clip-path="url(#p2e48097c7d)" style="fill: #1f77b4; fill-opacity: 0.5; stroke: #1f77b4; stroke-opacity: 0.5; stroke-linejoin: miter"/>
      <path d="M 257.619695 169.911044 
L 255.619695 168.911044 
L 255.619695 170.911044 
z
" clip-path="url(#p2e48097c7d)" style="fill: #1f77b4; fill-opacity: 0.5; stroke: #1f77b4; stroke-opacity: 0.5; stroke-linejoin: miter"/>
      <path d="M 257.619695 83.881688 
L 255.619695 82.881688 
L 255.619695 84.881688 
z
" clip-path="url(#p2e48097c7d)" style="fill: #1f77b4; fill-opacity: 0.5; stroke: #1f77b4; stroke-opacity: 0.5; stroke-linejoin: miter"/>
      <path d="M 257.619695 59.009365 
L 255.619695 58.009365 
L 255.619695 60.009365 
z
" clip-path="url(#p2e48097c7d)" style="fill: #1f77b4; fill-opacity: 0.5; stroke: #1f77b4; stroke-opacity: 0.5; stroke-linejoin: miter"/>
      <path d="M 257.619695 92.911004 
L 255.619695 91.911004 
L 255.619695 93.911004 
z
" clip-path="url(#p2e48097c7d)" style="fill: #1f77b4; fill-opacity: 0.5; stroke: #1f77b4; stroke-opacity: 0.5; stroke-linejoin: miter"/>
      <path d="M 257.619695 102.644347 
L 255.619695 101.644347 
L 255.619695 103.644347 
z
" clip-path="url(#p2e48097c7d)" style="fill: #1f77b4; fill-opacity: 0.5; stroke: #1f77b4; stroke-opacity: 0.5; stroke-linejoin: miter"/>
      <path d="M 257.619695 241.958867 
L 255.619695 240.958867 
L 255.619695 242.958867 
z
" clip-path="url(#p2e48097c7d)" style="fill: #1f77b4; fill-opacity: 0.5; stroke: #1f77b4; stroke-opacity: 0.5; stroke-linejoin: miter"/>
      <path d="M 257.619695 90.740995 
L 255.619695 89.740995 
L 255.619695 91.740995 
z
" clip-path="url(#p2e48097c7d)" style="fill: #1f77b4; fill-opacity: 0.5; stroke: #1f77b4; stroke-opacity: 0.5; stroke-linejoin: miter"/>
      <path d="M 257.619695 75.195743 
L 255.619695 74.195743 
L 255.619695 76.195743 
z
" clip-path="url(#p2e48097c7d)" style="fill: #1f77b4; fill-opacity: 0.5; stroke: #1f77b4; stroke-opacity: 0.5; stroke-linejoin: miter"/>
      <path d="M 257.619695 221.888567 
L 255.619695 220.888567 
L 255.619695 222.888567 
z
" clip-path="url(#p2e48097c7d)" style="fill: #1f77b4; fill-opacity: 0.5; stroke: #1f77b4; stroke-opacity: 0.5; stroke-linejoin: miter"/>
      <path d="M 199.299443 285.64688 
L 201.299443 286.64688 
L 201.299443 284.64688 
z
" clip-path="url(#p2e48097c7d)" style="fill: #ff7f0e; fill-opacity: 0.5; stroke: #ff7f0e; stroke-opacity: 0.5; stroke-linejoin: miter"/>
      <path d="M 199.299443 177.507644 
L 201.299443 178.507644 
L 201.299443 176.507644 
z
" clip-path="url(#p2e48097c7d)" style="fill: #ff7f0e; fill-opacity: 0.5; stroke: #ff7f0e; stroke-opacity: 0.5; stroke-linejoin: miter"/>
      <path d="M 199.299443 254.850715 
L 201.299443 255.850715 
L 201.299443 253.850715 
z
" clip-path="url(#p2e48097c7d)" style="fill: #ff7f0e; fill-opacity: 0.5; stroke: #ff7f0e; stroke-opacity: 0.5; stroke-linejoin: miter"/>
      <path d="M 199.299443 131.582546 
L 201.299443 132.582546 
L 201.299443 130.582546 
z
" clip-path="url(#p2e48097c7d)" style="fill: #ff7f0e; fill-opacity: 0.5; stroke: #ff7f0e; stroke-opacity: 0.5; stroke-linejoin: miter"/>
      <path d="M 199.299443 312.982435 
L 201.299443 313.982435 
L 201.299443 311.982435 
z
" clip-path="url(#p2e48097c7d)" style="fill: #ff7f0e; fill-opacity: 0.5; stroke: #ff7f0e; stroke-opacity: 0.5; stroke-linejoin: miter"/>
      <path d="M 199.299443 145.921655 
L 201.299443 146.921655 
L 201.299443 144.921655 
z
" clip-path="url(#p2e48097c7d)" style="fill: #ff7f0e; fill-opacity: 0.5; stroke: #ff7f0e; stroke-opacity: 0.5; stroke-linejoin: miter"/>
      <path d="M 199.299443 168.37106 
L 201.299443 169.37106 
L 201.299443 167.37106 
z
" clip-path="url(#p2e48097c7d)" style="fill: #ff7f0e; fill-opacity: 0.5; stroke: #ff7f0e; stroke-opacity: 0.5; stroke-linejoin: miter"/>
      <path d="M 199.299443 246.351704 
L 201.299443 247.351704 
L 201.299443 245.351704 
z
" clip-path="url(#p2e48097c7d)" style="fill: #ff7f0e; fill-opacity: 0.5; stroke: #ff7f0e; stroke-opacity: 0.5; stroke-linejoin: miter"/>
      <path d="M 199.299443 217.608422 
L 201.299443 218.608422 
L 201.299443 216.608422 
z
" clip-path="url(#p2e48097c7d)" style="fill: #ff7f0e; fill-opacity: 0.5; stroke: #ff7f0e; stroke-opacity: 0.5; stroke-linejoin: miter"/>
      <path d="M 199.299443 196.857264 
L 201.299443 197.857264 
L 201.299443 195.857264 
z
" clip-path="url(#p2e48097c7d)" style="fill: #ff7f0e; fill-opacity: 0.5; stroke: #ff7f0e; stroke-opacity: 0.5; stroke-linejoin: miter"/>
      <path d="M 447.666182 150.780177 
L 445.666182 149.780177 
L 445.666182 151.780177 
z
" clip-path="url(#p2e48097c7d)" style="fill: #ff7f0e; fill-opacity: 0.5; stroke: #ff7f0e; stroke-opacity: 0.5; stroke-linejoin: miter"/>
      <path d="M 447.666182 247.827061 
L 445.666182 246.827061 
L 445.666182 248.827061 
z
" clip-path="url(#p2e48097c7d)" style="fill: #ff7f0e; fill-opacity: 0.5; stroke: #ff7f0e; stroke-opacity: 0.5; stroke-linejoin: miter"/>
      <path d="M 447.666182 229.742743 
L 445.666182 228.742743 
L 445.666182 230.742743 
z
" clip-path="url(#p2e48097c7d)" style="fill: #ff7f0e; fill-opacity: 0.5; stroke: #ff7f0e; stroke-opacity: 0.5; stroke-linejoin: miter"/>
      <path d="M 447.666182 272.673533 
L 445.666182 271.673533 
L 445.666182 273.673533 
z
" clip-path="url(#p2e48097c7d)" style="fill: #ff7f0e; fill-opacity: 0.5; stroke: #ff7f0e; stroke-opacity: 0.5; stroke-linejoin: miter"/>
      <path d="M 447.666182 8.096452 
L 445.666182 7.096452 
L 445.666182 9.096452 
z
" clip-path="url(#p2e48097c7d)" style="fill: #ff7f0e; fill-opacity: 0.5; stroke: #ff7f0e; stroke-opacity: 0.5; stroke-linejoin: miter"/>
      <path d="M 447.666182 315.747804 
L 445.666182 314.747804 
L 445.666182 316.747804 
z
" clip-path="url(#p2e48097c7d)" style="fill: #ff7f0e; fill-opacity: 0.5; stroke: #ff7f0e; stroke-opacity: 0.5; stroke-linejoin: miter"/>
      <path d="M 447.666182 126.600257 
L 445.666182 125.600257 
L 445.666182 127.600257 
z
" clip-path="url(#p2e48097c7d)" style="fill: #ff7f0e; fill-opacity: 0.5; stroke: #ff7f0e; stroke-opacity: 0.5; stroke-linejoin: miter"/>
      <path d="M 447.666182 194.338173 
L 445.666182 193.338173 
L 445.666182 195.338173 
z
" clip-path="url(#p2e48097c7d)" style="fill: #ff7f0e; fill-opacity: 0.5; stroke: #ff7f0e; stroke-opacity: 0.5; stroke-linejoin: miter"/>
      <path d="M 447.666182 195.845413 
L 445.666182 194.845413 
L 445.666182 196.845413 
z
" clip-path="url(#p2e48097c7d)" style="fill: #ff7f0e; fill-opacity: 0.5; stroke: #ff7f0e; stroke-opacity: 0.5; stroke-linejoin: miter"/>
      <path d="M 447.666182 246.892768 
L 445.666182 245.892768 
L 445.666182 247.892768 
z
" clip-path="url(#p2e48097c7d)" style="fill: #ff7f0e; fill-opacity: 0.5; stroke: #ff7f0e; stroke-opacity: 0.5; stroke-linejoin: miter"/>
      <path d="M 389.34593 261.482466 
L 391.34593 262.482466 
L 391.34593 260.482466 
z
" clip-path="url(#p2e48097c7d)" style="fill: #2ca02c; fill-opacity: 0.5; stroke: #2ca02c; stroke-opacity: 0.5; stroke-linejoin: miter"/>
      <path d="M 389.34593 88.340775 
L 391.34593 89.340775 
L 391.34593 87.340775 
z
" clip-path="url(#p2e48097c7d)" style="fill: #2ca02c; fill-opacity: 0.5; stroke: #2ca02c; stroke-opacity: 0.5; stroke-linejoin: miter"/>
      <path d="M 389.34593 41.944403 
L 391.34593 42.944403 
L 391.34593 40.944403 
z
" clip-path="url(#p2e48097c7d)" style="fill: #2ca02c; fill-opacity: 0.5; stroke: #2ca02c; stroke-opacity: 0.5; stroke-linejoin: miter"/>
      <path d="M 389.34593 169.225469 
L 391.34593 170.225469 
L 391.34593 168.225469 
z
" clip-path="url(#p2e48097c7d)" style="fill: #2ca02c; fill-opacity: 0.5; stroke: #2ca02c; stroke-opacity: 0.5; stroke-linejoin: miter"/>
      <path d="M 389.34593 134.734643 
L 391.34593 135.734643 
L 391.34593 133.734643 
z
" clip-path="url(#p2e48097c7d)" style="fill: #2ca02c; fill-opacity: 0.5; stroke: #2ca02c; stroke-opacity: 0.5; stroke-linejoin: miter"/>
      <path d="M 389.34593 187.683467 
L 391.34593 188.683467 
L 391.34593 186.683467 
z
" clip-path="url(#p2e48097c7d)" style="fill: #2ca02c; fill-opacity: 0.5; stroke: #2ca02c; stroke-opacity: 0.5; stroke-linejoin: miter"/>
      <path d="M 389.34593 212.263604 
L 391.34593 213.263604 
L 391.34593 211.263604 
z
" clip-path="url(#p2e48097c7d)" style="fill: #2ca02c; fill-opacity: 0.5; stroke: #2ca02c; stroke-opacity: 0.5; stroke-linejoin: miter"/>
      <path d="M 389.34593 246.688879 
L 391.34593 247.688879 
L 391.34593 245.688879 
z
" clip-path="url(#p2e48097c7d)" style="fill: #2ca02c; fill-opacity: 0.5; stroke: #2ca02c; stroke-opacity: 0.5; stroke-linejoin: miter"/>
      <path d="M 389.34593 274.994374 
L 391.34593 275.994374 
L 391.34593 273.994374 
z
" clip-path="url(#p2e48097c7d)" style="fill: #2ca02c; fill-opacity: 0.5; stroke: #2ca02c; stroke-opacity: 0.5; stroke-linejoin: miter"/>
      <path d="M 389.34593 7.42667 
L 391.34593 8.42667 
L 391.34593 6.42667 
z
" clip-path="url(#p2e48097c7d)" style="fill: #2ca02c; fill-opacity: 0.5; stroke: #2ca02c; stroke-opacity: 0.5; stroke-linejoin: miter"/>
      <g id="patch_6">
       <path d="M 46.965625 318.021875 
L 46.965625 7.2 
" style="fill: none; stroke: #000000; stroke-width: 0.8; stroke-linejoin: miter; stroke-linecap: square"/>
      </g>
     </g>
    </g>
    <defs>
     <clipPath id="p2e48097c7d">
      <rect x="46.965625" y="7.2" width="553.034375" height="310.821875"/>
     </clipPath>
    </defs>
   </g>
  </g>
 </g>
</svg>