<?xml version="1.0" encoding="utf-8" standalone="no"?>
<!DOCTYPE svg PUBLIC "-//W3C//DTD SVG 1.1//EN"
  "http://www.w3.org/Graphics/SVG/1.1/DTD/svg11.dtd">
<svg xmlns:xlink="http://www.w3.org/1999/xlink" width="607.2pt" height="338.4pt" viewBox="0 0 607.2 338.4" xmlns="http://www.w3.org/2000/svg" version="1.1">
 <metadata>
  <rdf:RDF xmlns:dc="http://purl.org/dc/elements/1.1/" xmlns:cc="http://creativecommons.org/ns#" xmlns:rdf="http://www.w3.org/1999/02/22-rdf-syntax-ns#">
   <cc:Work>
    <dc:type rdf:resource="http://purl.org/dc/dcmitype/StillImage"/>
    <dc:date>2023-10-30T09:11:11.290548</dc:date>
    <dc:format>image/svg+xml</dc:format>
    <dc:creator>
     <cc:Agent>
      <dc:title>Matplotlib v3.7.2, https://matplotlib.org/</dc:title>
     </cc:Agent>
    </dc:creator>
   </cc:Work>
  </rdf:RDF>
 </metadata>
 <defs>
  <style type="text/css">*{stroke-linejoin: round; stroke-linecap: butt}</style>
 </defs>
 <g id="figure_1">
  <g id="patch_1">
   <path d="M 0 338.4 
L 607.2 338.4 
L 607.2 0 
L 0 0 
z
" style="fill: #ffffff"/>
  </g>
  <g id="axes_1">
   <g id="patch_2">
    <path d="M 46.965625 318.021875 
L 600 318.021875 
L 600 7.2 
L 46.965625 7.2 
z
" style="fill: #ffffff"/>
   </g>
   <path d="M 200.299443 32.487248 
L 201.299443 32.518684 
L 202.299443 32.555624 
L 203.299443 32.653371 
L 204.299443 32.685893 
L 205.299443 32.759517 
L 206.299443 32.798083 
L 207.299443 32.833496 
L 208.299443 32.891136 
L 209.299443 32.961522 
L 210.299443 33.013486 
L 211.299443 33.072576 
L 212.299443 33.160897 
L 213.299443 33.207041 
L 214.299443 33.249452 
L 215.299443 33.279945 
L 216.299443 33.30599 
L 217.299443 33.32719 
L 218.299443 33.381491 
L 219.299443 33.409429 
L 220.299443 33.439153 
L 221.299443 33.464547 
L 222.299443 33.475748 
L 223.299443 33.485872 
L 224.299443 33.485667 
L 225.299443 33.476158 
L 226.299443 33.464504 
L 227.299443 33.433475 
L 228.299443 33.422307 
L 229.299443 33.392189 
L 230.299443 33.332412 
L 231.299443 33.295221 
L 232.299443 33.256125 
L 233.299443 33.213685 
L 234.299443 33.18092 
L 235.299443 33.113494 
L 236.299443 33.074368 
L 237.299443 33.031693 
L 238.299443 32.961112 
L 239.299443 32.924722 
L 240.299443 32.866318 
L 241.299443 32.755366 
L 242.299443 32.684708 
L 243.299443 32.571768 
L 244.299443 32.525995 
L 245.299443 32.464712 
L 246.299443 32.416212 
L 247.299443 32.33539 
L 248.299443 32.216871 
L 249.299443 32.14666 
L 250.299443 32.063398 
L 251.299443 32.030256 
L 252.299443 31.979018 
L 253.299443 31.91062 
L 254.299443 31.844405 
L 255.299443 31.767488 
L 256.619695 31.740172 
" clip-path="url(#p7a4109aeaa)" style="fill: none; stroke: #1f77b4; stroke-opacity: 0.5; stroke-width: 0.2; stroke-linecap: square"/>
   <path d="M 200.299443 166.544585 
L 201.299443 166.576022 
L 202.299443 166.612962 
L 203.299443 166.710709 
L 204.299443 166.74323 
L 205.299443 166.816855 
L 206.299443 166.855421 
L 207.299443 166.890834 
L 208.299443 166.948474 
L 209.299443 167.01886 
L 210.299443 167.070824 
L 211.299443 167.129914 
L 212.299443 167.218235 
L 213.299443 167.264379 
L 214.299443 167.30679 
L 215.299443 167.337283 
L 216.299443 167.363328 
L 217.299443 167.384528 
L 218.299443 167.438829 
L 219.299443 167.466767 
L 220.299443 167.49649 
L 221.299443 167.521885 
L 222.299443 167.533086 
L 223.299443 167.54321 
L 224.299443 167.543005 
L 225.299443 167.533495 
L 226.299443 167.521842 
L 227.299443 167.490813 
L 228.299443 167.479645 
L 229.299443 167.449527 
L 230.299443 167.38975 
L 231.299443 167.352559 
L 232.299443 167.313463 
L 233.299443 167.271023 
L 234.299443 167.238258 
L 235.299443 167.170831 
L 236.299443 167.131705 
L 237.299443 167.089031 
L 238.299443 167.01845 
L 239.299443 166.982059 
L 240.299443 166.923656 
L 241.299443 166.812704 
L 242.299443 166.742045 
L 243.299443 166.629106 
L 244.299443 166.583333 
L 245.299443 166.522049 
L 246.299443 166.47355 
L 247.299443 166.392727 
L 248.299443 166.274208 
L 249.299443 166.203998 
L 250.299443 166.120735 
L 251.299443 166.087594 
L 252.299443 166.036356 
L 253.299443 165.967958 
L 254.299443 165.901743 
L 255.299443 165.824825 
L 256.619695 165.79751 
" clip-path="url(#p7a4109aeaa)" style="fill: none; stroke: #1f77b4; stroke-opacity: 0.5; stroke-width: 0.2; stroke-linecap: square"/>
   <path d="M 200.299443 242.786651 
L 201.299443 242.818087 
L 202.299443 242.855027 
L 203.299443 242.952774 
L 204.299443 242.985296 
L 205.299443 243.05892 
L 206.299443 243.097486 
L 207.299443 243.132899 
L 208.299443 243.190539 
L 209.299443 243.260925 
L 210.299443 243.312889 
L 211.299443 243.371979 
L 212.299443 243.4603 
L 213.299443 243.506444 
L 214.299443 243.548855 
L 215.299443 243.579348 
L 216.299443 243.605393 
L 217.299443 243.626593 
L 218.299443 243.680894 
L 219.299443 243.708832 
L 220.299443 243.738556 
L 221.299443 243.76395 
L 222.299443 243.775151 
L 223.299443 243.785275 
L 224.299443 243.78507 
L 225.299443 243.775561 
L 226.299443 243.763907 
L 227.299443 243.732878 
L 228.299443 243.72171 
L 229.299443 243.691592 
L 230.299443 243.631815 
L 231.299443 243.594624 
L 232.299443 243.555528 
L 233.299443 243.513088 
L 234.299443 243.480323 
L 235.299443 243.412897 
L 236.299443 243.373771 
L 237.299443 243.331096 
L 238.299443 243.260515 
L 239.299443 243.224125 
L 240.299443 243.165721 
L 241.299443 243.054769 
L 242.299443 242.984111 
L 243.299443 242.871171 
L 244.299443 242.825398 
L 245.299443 242.764115 
L 246.299443 242.715615 
L 247.299443 242.634793 
L 248.299443 242.516274 
L 249.299443 242.446063 
L 250.299443 242.362801 
L 251.299443 242.329659 
L 252.299443 242.278421 
L 253.299443 242.210023 
L 254.299443 242.143808 
L 255.299443 242.066891 
L 256.619695 242.039575 
" clip-path="url(#p7a4109aeaa)" style="fill: none; stroke: #1f77b4; stroke-opacity: 0.5; stroke-width: 0.2; stroke-linecap: square"/>
   <path d="M 200.299443 54.603248 
L 201.299443 54.634685 
L 202.299443 54.671625 
L 203.299443 54.769372 
L 204.299443 54.801893 
L 205.299443 54.875518 
L 206.299443 54.914084 
L 207.299443 54.949497 
L 208.299443 55.007137 
L 209.299443 55.077523 
L 210.299443 55.129487 
L 211.299443 55.188577 
L 212.299443 55.276898 
L 213.299443 55.323042 
L 214.299443 55.365453 
L 215.299443 55.395946 
L 216.299443 55.421991 
L 217.299443 55.443191 
L 218.299443 55.497492 
L 219.299443 55.525429 
L 220.299443 55.555153 
L 221.299443 55.580548 
L 222.299443 55.591749 
L 223.299443 55.601872 
L 224.299443 55.601668 
L 225.299443 55.592158 
L 226.299443 55.580505 
L 227.299443 55.549475 
L 228.299443 55.538308 
L 229.299443 55.50819 
L 230.299443 55.448413 
L 231.299443 55.411222 
L 232.299443 55.372125 
L 233.299443 55.329686 
L 234.299443 55.296921 
L 235.299443 55.229494 
L 236.299443 55.190368 
L 237.299443 55.147694 
L 238.299443 55.077113 
L 239.299443 55.040722 
L 240.299443 54.982319 
L 241.299443 54.871367 
L 242.299443 54.800708 
L 243.299443 54.687768 
L 244.299443 54.641996 
L 245.299443 54.580712 
L 246.299443 54.532213 
L 247.299443 54.45139 
L 248.299443 54.332871 
L 249.299443 54.262661 
L 250.299443 54.179398 
L 251.299443 54.146256 
L 252.299443 54.095019 
L 253.299443 54.026621 
L 254.299443 53.960405 
L 255.299443 53.883488 
L 256.619695 53.856173 
" clip-path="url(#p7a4109aeaa)" style="fill: none; stroke: #1f77b4; stroke-opacity: 0.5; stroke-width: 0.2; stroke-linecap: square"/>
   <path d="M 200.299443 211.280377 
L 201.299443 211.311814 
L 202.299443 211.348754 
L 203.299443 211.446501 
L 204.299443 211.479022 
L 205.299443 211.552647 
L 206.299443 211.591212 
L 207.299443 211.626626 
L 208.299443 211.684266 
L 209.299443 211.754652 
L 210.299443 211.806616 
L 211.299443 211.865706 
L 212.299443 211.954027 
L 213.299443 212.000171 
L 214.299443 212.042582 
L 215.299443 212.073075 
L 216.299443 212.09912 
L 217.299443 212.12032 
L 218.299443 212.174621 
L 219.299443 212.202558 
L 220.299443 212.232282 
L 221.299443 212.257677 
L 222.299443 212.268877 
L 223.299443 212.279001 
L 224.299443 212.278797 
L 225.299443 212.269287 
L 226.299443 212.257634 
L 227.299443 212.226604 
L 228.299443 212.215436 
L 229.299443 212.185319 
L 230.299443 212.125542 
L 231.299443 212.08835 
L 232.299443 212.049254 
L 233.299443 212.006815 
L 234.299443 211.97405 
L 235.299443 211.906623 
L 236.299443 211.867497 
L 237.299443 211.824823 
L 238.299443 211.754242 
L 239.299443 211.717851 
L 240.299443 211.659448 
L 241.299443 211.548495 
L 242.299443 211.477837 
L 243.299443 211.364897 
L 244.299443 211.319124 
L 245.299443 211.257841 
L 246.299443 211.209342 
L 247.299443 211.128519 
L 248.299443 211.01 
L 249.299443 210.93979 
L 250.299443 210.856527 
L 251.299443 210.823385 
L 252.299443 210.772148 
L 253.299443 210.70375 
L 254.299443 210.637534 
L 255.299443 210.560617 
L 256.619695 210.533302 
" clip-path="url(#p7a4109aeaa)" style="fill: none; stroke: #1f77b4; stroke-opacity: 0.5; stroke-width: 0.2; stroke-linecap: square"/>
   <path d="M 200.299443 75.518301 
L 201.299443 75.549738 
L 202.299443 75.586678 
L 203.299443 75.684425 
L 204.299443 75.716946 
L 205.299443 75.790571 
L 206.299443 75.829137 
L 207.299443 75.86455 
L 208.299443 75.92219 
L 209.299443 75.992576 
L 210.299443 76.04454 
L 211.299443 76.10363 
L 212.299443 76.191951 
L 213.299443 76.238095 
L 214.299443 76.280506 
L 215.299443 76.310999 
L 216.299443 76.337044 
L 217.299443 76.358244 
L 218.299443 76.412545 
L 219.299443 76.440482 
L 220.299443 76.470206 
L 221.299443 76.495601 
L 222.299443 76.506802 
L 223.299443 76.516926 
L 224.299443 76.516721 
L 225.299443 76.507211 
L 226.299443 76.495558 
L 227.299443 76.464528 
L 228.299443 76.453361 
L 229.299443 76.423243 
L 230.299443 76.363466 
L 231.299443 76.326275 
L 232.299443 76.287178 
L 233.299443 76.244739 
L 234.299443 76.211974 
L 235.299443 76.144547 
L 236.299443 76.105421 
L 237.299443 76.062747 
L 238.299443 75.992166 
L 239.299443 75.955775 
L 240.299443 75.897372 
L 241.299443 75.78642 
L 242.299443 75.715761 
L 243.299443 75.602821 
L 244.299443 75.557049 
L 245.299443 75.495765 
L 246.299443 75.447266 
L 247.299443 75.366443 
L 248.299443 75.247924 
L 249.299443 75.177714 
L 250.299443 75.094451 
L 251.299443 75.06131 
L 252.299443 75.010072 
L 253.299443 74.941674 
L 254.299443 74.875458 
L 255.299443 74.798541 
L 256.619695 74.771226 
" clip-path="url(#p7a4109aeaa)" style="fill: none; stroke: #1f77b4; stroke-opacity: 0.5; stroke-width: 0.2; stroke-linecap: square"/>
   <path d="M 200.299443 174.982654 
L 201.299443 175.01409 
L 202.299443 175.051031 
L 203.299443 175.148777 
L 204.299443 175.181299 
L 205.299443 175.254924 
L 206.299443 175.293489 
L 207.299443 175.328902 
L 208.299443 175.386542 
L 209.299443 175.456929 
L 210.299443 175.508893 
L 211.299443 175.567983 
L 212.299443 175.656303 
L 213.299443 175.702448 
L 214.299443 175.744859 
L 215.299443 175.775351 
L 216.299443 175.801396 
L 217.299443 175.822596 
L 218.299443 175.876898 
L 219.299443 175.904835 
L 220.299443 175.934559 
L 221.299443 175.959954 
L 222.299443 175.971154 
L 223.299443 175.981278 
L 224.299443 175.981074 
L 225.299443 175.971564 
L 226.299443 175.95991 
L 227.299443 175.928881 
L 228.299443 175.917713 
L 229.299443 175.887596 
L 230.299443 175.827819 
L 231.299443 175.790627 
L 232.299443 175.751531 
L 233.299443 175.709091 
L 234.299443 175.676326 
L 235.299443 175.6089 
L 236.299443 175.569774 
L 237.299443 175.5271 
L 238.299443 175.456519 
L 239.299443 175.420128 
L 240.299443 175.361725 
L 241.299443 175.250772 
L 242.299443 175.180114 
L 243.299443 175.067174 
L 244.299443 175.021401 
L 245.299443 174.960118 
L 246.299443 174.911619 
L 247.299443 174.830796 
L 248.299443 174.712277 
L 249.299443 174.642066 
L 250.299443 174.558804 
L 251.299443 174.525662 
L 252.299443 174.474425 
L 253.299443 174.406027 
L 254.299443 174.339811 
L 255.299443 174.262894 
L 256.619695 174.235579 
" clip-path="url(#p7a4109aeaa)" style="fill: none; stroke: #1f77b4; stroke-opacity: 0.5; stroke-width: 0.2; stroke-linecap: square"/>
   <path d="M 200.299443 42.319455 
L 201.299443 42.350891 
L 202.299443 42.387832 
L 203.299443 42.485578 
L 204.299443 42.5181 
L 205.299443 42.591724 
L 206.299443 42.63029 
L 207.299443 42.665703 
L 208.299443 42.723343 
L 209.299443 42.793729 
L 210.299443 42.845694 
L 211.299443 42.904783 
L 212.299443 42.993104 
L 213.299443 43.039249 
L 214.299443 43.081659 
L 215.299443 43.112152 
L 216.299443 43.138197 
L 217.299443 43.159397 
L 218.299443 43.213698 
L 219.299443 43.241636 
L 220.299443 43.27136 
L 221.299443 43.296755 
L 222.299443 43.307955 
L 223.299443 43.318079 
L 224.299443 43.317875 
L 225.299443 43.308365 
L 226.299443 43.296711 
L 227.299443 43.265682 
L 228.299443 43.254514 
L 229.299443 43.224396 
L 230.299443 43.16462 
L 231.299443 43.127428 
L 232.299443 43.088332 
L 233.299443 43.045892 
L 234.299443 43.013127 
L 235.299443 42.945701 
L 236.299443 42.906575 
L 237.299443 42.8639 
L 238.299443 42.79332 
L 239.299443 42.756929 
L 240.299443 42.698526 
L 241.299443 42.587573 
L 242.299443 42.516915 
L 243.299443 42.403975 
L 244.299443 42.358202 
L 245.299443 42.296919 
L 246.299443 42.248419 
L 247.299443 42.167597 
L 248.299443 42.049078 
L 249.299443 41.978867 
L 250.299443 41.895605 
L 251.299443 41.862463 
L 252.299443 41.811226 
L 253.299443 41.742827 
L 254.299443 41.676612 
L 255.299443 41.599695 
L 256.619695 41.572379 
" clip-path="url(#p7a4109aeaa)" style="fill: none; stroke: #1f77b4; stroke-opacity: 0.5; stroke-width: 0.2; stroke-linecap: square"/>
   <path d="M 200.299443 312.23227 
L 201.299443 312.263707 
L 202.299443 312.300647 
L 203.299443 312.398393 
L 204.299443 312.430915 
L 205.299443 312.50454 
L 206.299443 312.543105 
L 207.299443 312.578519 
L 208.299443 312.636158 
L 209.299443 312.706545 
L 210.299443 312.758509 
L 211.299443 312.817599 
L 212.299443 312.90592 
L 213.299443 312.952064 
L 214.299443 312.994475 
L 215.299443 313.024967 
L 216.299443 313.051012 
L 217.299443 313.072213 
L 218.299443 313.126514 
L 219.299443 313.154451 
L 220.299443 313.184175 
L 221.299443 313.20957 
L 222.299443 313.22077 
L 223.299443 313.230894 
L 224.299443 313.23069 
L 225.299443 313.22118 
L 226.299443 313.209527 
L 227.299443 313.178497 
L 228.299443 313.167329 
L 229.299443 313.137212 
L 230.299443 313.077435 
L 231.299443 313.040243 
L 232.299443 313.001147 
L 233.299443 312.958708 
L 234.299443 312.925943 
L 235.299443 312.858516 
L 236.299443 312.81939 
L 237.299443 312.776716 
L 238.299443 312.706135 
L 239.299443 312.669744 
L 240.299443 312.611341 
L 241.299443 312.500388 
L 242.299443 312.42973 
L 243.299443 312.31679 
L 244.299443 312.271017 
L 245.299443 312.209734 
L 246.299443 312.161235 
L 247.299443 312.080412 
L 248.299443 311.961893 
L 249.299443 311.891683 
L 250.299443 311.80842 
L 251.299443 311.775278 
L 252.299443 311.724041 
L 253.299443 311.655643 
L 254.299443 311.589427 
L 255.299443 311.51251 
L 256.619695 311.485195 
" clip-path="url(#p7a4109aeaa)" style="fill: none; stroke: #1f77b4; stroke-opacity: 0.5; stroke-width: 0.2; stroke-linecap: square"/>
   <path d="M 200.299443 158.330839 
L 201.299443 158.362276 
L 202.299443 158.399216 
L 203.299443 158.496963 
L 204.299443 158.529484 
L 205.299443 158.603109 
L 206.299443 158.641674 
L 207.299443 158.677088 
L 208.299443 158.734728 
L 209.299443 158.805114 
L 210.299443 158.857078 
L 211.299443 158.916168 
L 212.299443 159.004489 
L 213.299443 159.050633 
L 214.299443 159.093044 
L 215.299443 159.123537 
L 216.299443 159.149582 
L 217.299443 159.170782 
L 218.299443 159.225083 
L 219.299443 159.25302 
L 220.299443 159.282744 
L 221.299443 159.308139 
L 222.299443 159.319339 
L 223.299443 159.329463 
L 224.299443 159.329259 
L 225.299443 159.319749 
L 226.299443 159.308096 
L 227.299443 159.277066 
L 228.299443 159.265898 
L 229.299443 159.235781 
L 230.299443 159.176004 
L 231.299443 159.138812 
L 232.299443 159.099716 
L 233.299443 159.057277 
L 234.299443 159.024512 
L 235.299443 158.957085 
L 236.299443 158.917959 
L 237.299443 158.875285 
L 238.299443 158.804704 
L 239.299443 158.768313 
L 240.299443 158.70991 
L 241.299443 158.598957 
L 242.299443 158.528299 
L 243.299443 158.415359 
L 244.299443 158.369586 
L 245.299443 158.308303 
L 246.299443 158.259804 
L 247.299443 158.178981 
L 248.299443 158.060462 
L 249.299443 157.990252 
L 250.299443 157.906989 
L 251.299443 157.873847 
L 252.299443 157.82261 
L 253.299443 157.754212 
L 254.299443 157.687996 
L 255.299443 157.611079 
L 256.619695 157.583764 
" clip-path="url(#p7a4109aeaa)" style="fill: none; stroke: #1f77b4; stroke-opacity: 0.5; stroke-width: 0.2; stroke-linecap: square"/>
   <path d="M 256.619695 277.667328 
L 255.619695 277.635892 
L 254.619695 277.598951 
L 253.619695 277.501205 
L 252.619695 277.468683 
L 251.619695 277.395059 
L 250.619695 277.356493 
L 249.619695 277.32108 
L 248.619695 277.26344 
L 247.619695 277.193054 
L 246.619695 277.14109 
L 245.619695 277.082 
L 244.619695 276.993679 
L 243.619695 276.947535 
L 242.619695 276.905124 
L 241.619695 276.874631 
L 240.619695 276.848586 
L 239.619695 276.827386 
L 238.619695 276.773085 
L 237.619695 276.745147 
L 236.619695 276.715423 
L 235.619695 276.690028 
L 234.619695 276.678828 
L 233.619695 276.668704 
L 232.619695 276.668908 
L 231.619695 276.678418 
L 230.619695 276.690072 
L 229.619695 276.721101 
L 228.619695 276.732269 
L 227.619695 276.762387 
L 226.619695 276.822163 
L 225.619695 276.859355 
L 224.619695 276.898451 
L 223.619695 276.940891 
L 222.619695 276.973656 
L 221.619695 277.041082 
L 220.619695 277.080208 
L 219.619695 277.122883 
L 218.619695 277.193463 
L 217.619695 277.229854 
L 216.619695 277.288257 
L 215.619695 277.39921 
L 214.619695 277.469868 
L 213.619695 277.582808 
L 212.619695 277.628581 
L 211.619695 277.689864 
L 210.619695 277.738364 
L 209.619695 277.819186 
L 208.619695 277.937705 
L 207.619695 278.007916 
L 206.619695 278.091178 
L 205.619695 278.12432 
L 204.619695 278.175557 
L 203.619695 278.243956 
L 202.619695 278.310171 
L 201.619695 278.387088 
L 200.299443 278.414404 
" clip-path="url(#p7a4109aeaa)" style="fill: none; stroke: #ff7f0e; stroke-opacity: 0.5; stroke-width: 0.2; stroke-linecap: square"/>
   <path d="M 256.619695 113.418997 
L 255.619695 113.387561 
L 254.619695 113.35062 
L 253.619695 113.252874 
L 252.619695 113.220352 
L 251.619695 113.146727 
L 250.619695 113.108162 
L 249.619695 113.072749 
L 248.619695 113.015109 
L 247.619695 112.944723 
L 246.619695 112.892758 
L 245.619695 112.833669 
L 244.619695 112.745348 
L 243.619695 112.699203 
L 242.619695 112.656792 
L 241.619695 112.6263 
L 240.619695 112.600255 
L 239.619695 112.579055 
L 238.619695 112.524754 
L 237.619695 112.496816 
L 236.619695 112.467092 
L 235.619695 112.441697 
L 234.619695 112.430497 
L 233.619695 112.420373 
L 232.619695 112.420577 
L 231.619695 112.430087 
L 230.619695 112.441741 
L 229.619695 112.47277 
L 228.619695 112.483938 
L 227.619695 112.514055 
L 226.619695 112.573832 
L 225.619695 112.611024 
L 224.619695 112.65012 
L 223.619695 112.69256 
L 222.619695 112.725325 
L 221.619695 112.792751 
L 220.619695 112.831877 
L 219.619695 112.874552 
L 218.619695 112.945132 
L 217.619695 112.981523 
L 216.619695 113.039926 
L 215.619695 113.150879 
L 214.619695 113.221537 
L 213.619695 113.334477 
L 212.619695 113.38025 
L 211.619695 113.441533 
L 210.619695 113.490032 
L 209.619695 113.570855 
L 208.619695 113.689374 
L 207.619695 113.759585 
L 206.619695 113.842847 
L 205.619695 113.875989 
L 204.619695 113.927226 
L 203.619695 113.995625 
L 202.619695 114.06184 
L 201.619695 114.138757 
L 200.299443 114.166072 
" clip-path="url(#p7a4109aeaa)" style="fill: none; stroke: #ff7f0e; stroke-opacity: 0.5; stroke-width: 0.2; stroke-linecap: square"/>
   <path d="M 256.619695 83.588268 
L 255.619695 83.556831 
L 254.619695 83.519891 
L 253.619695 83.422144 
L 252.619695 83.389623 
L 251.619695 83.315998 
L 250.619695 83.277433 
L 249.619695 83.242019 
L 248.619695 83.184379 
L 247.619695 83.113993 
L 246.619695 83.062029 
L 245.619695 83.002939 
L 244.619695 82.914618 
L 243.619695 82.868474 
L 242.619695 82.826063 
L 241.619695 82.79557 
L 240.619695 82.769525 
L 239.619695 82.748325 
L 238.619695 82.694024 
L 237.619695 82.666087 
L 236.619695 82.636363 
L 235.619695 82.610968 
L 234.619695 82.599768 
L 233.619695 82.589644 
L 232.619695 82.589848 
L 231.619695 82.599358 
L 230.619695 82.611011 
L 229.619695 82.642041 
L 228.619695 82.653209 
L 227.619695 82.683326 
L 226.619695 82.743103 
L 225.619695 82.780295 
L 224.619695 82.819391 
L 223.619695 82.86183 
L 222.619695 82.894595 
L 221.619695 82.962022 
L 220.619695 83.001148 
L 219.619695 83.043822 
L 218.619695 83.114403 
L 217.619695 83.150794 
L 216.619695 83.209197 
L 215.619695 83.32015 
L 214.619695 83.390808 
L 213.619695 83.503748 
L 212.619695 83.549521 
L 211.619695 83.610804 
L 210.619695 83.659303 
L 209.619695 83.740126 
L 208.619695 83.858645 
L 207.619695 83.928855 
L 206.619695 84.012118 
L 205.619695 84.04526 
L 204.619695 84.096497 
L 203.619695 84.164895 
L 202.619695 84.231111 
L 201.619695 84.308028 
L 200.299443 84.335343 
" clip-path="url(#p7a4109aeaa)" style="fill: none; stroke: #ff7f0e; stroke-opacity: 0.5; stroke-width: 0.2; stroke-linecap: square"/>
   <path d="M 256.619695 29.686897 
L 255.619695 29.65546 
L 254.619695 29.61852 
L 253.619695 29.520773 
L 252.619695 29.488252 
L 251.619695 29.414627 
L 250.619695 29.376061 
L 249.619695 29.340648 
L 248.619695 29.283008 
L 247.619695 29.212622 
L 246.619695 29.160658 
L 245.619695 29.101568 
L 244.619695 29.013247 
L 243.619695 28.967103 
L 242.619695 28.924692 
L 241.619695 28.894199 
L 240.619695 28.868154 
L 239.619695 28.846954 
L 238.619695 28.792653 
L 237.619695 28.764716 
L 236.619695 28.734992 
L 235.619695 28.709597 
L 234.619695 28.698396 
L 233.619695 28.688272 
L 232.619695 28.688477 
L 231.619695 28.697987 
L 230.619695 28.70964 
L 229.619695 28.74067 
L 228.619695 28.751837 
L 227.619695 28.781955 
L 226.619695 28.841732 
L 225.619695 28.878923 
L 224.619695 28.91802 
L 223.619695 28.960459 
L 222.619695 28.993224 
L 221.619695 29.060651 
L 220.619695 29.099777 
L 219.619695 29.142451 
L 218.619695 29.213032 
L 217.619695 29.249423 
L 216.619695 29.307826 
L 215.619695 29.418778 
L 214.619695 29.489437 
L 213.619695 29.602377 
L 212.619695 29.648149 
L 211.619695 29.709433 
L 210.619695 29.757932 
L 209.619695 29.838755 
L 208.619695 29.957274 
L 207.619695 30.027484 
L 206.619695 30.110747 
L 205.619695 30.143888 
L 204.619695 30.195126 
L 203.619695 30.263524 
L 202.619695 30.32974 
L 201.619695 30.406657 
L 200.299443 30.433972 
" clip-path="url(#p7a4109aeaa)" style="fill: none; stroke: #ff7f0e; stroke-opacity: 0.5; stroke-width: 0.2; stroke-linecap: square"/>
   <path d="M 256.619695 46.87664 
L 255.619695 46.845204 
L 254.619695 46.808263 
L 253.619695 46.710517 
L 252.619695 46.677995 
L 251.619695 46.60437 
L 250.619695 46.565805 
L 249.619695 46.530392 
L 248.619695 46.472752 
L 247.619695 46.402366 
L 246.619695 46.350401 
L 245.619695 46.291312 
L 244.619695 46.202991 
L 243.619695 46.156846 
L 242.619695 46.114435 
L 241.619695 46.083943 
L 240.619695 46.057898 
L 239.619695 46.036698 
L 238.619695 45.982397 
L 237.619695 45.954459 
L 236.619695 45.924735 
L 235.619695 45.89934 
L 234.619695 45.88814 
L 233.619695 45.878016 
L 232.619695 45.87822 
L 231.619695 45.88773 
L 230.619695 45.899384 
L 229.619695 45.930413 
L 228.619695 45.941581 
L 227.619695 45.971698 
L 226.619695 46.031475 
L 225.619695 46.068667 
L 224.619695 46.107763 
L 223.619695 46.150203 
L 222.619695 46.182968 
L 221.619695 46.250394 
L 220.619695 46.28952 
L 219.619695 46.332195 
L 218.619695 46.402775 
L 217.619695 46.439166 
L 216.619695 46.497569 
L 215.619695 46.608522 
L 214.619695 46.67918 
L 213.619695 46.79212 
L 212.619695 46.837893 
L 211.619695 46.899176 
L 210.619695 46.947675 
L 209.619695 47.028498 
L 208.619695 47.147017 
L 207.619695 47.217228 
L 206.619695 47.30049 
L 205.619695 47.333632 
L 204.619695 47.384869 
L 203.619695 47.453268 
L 202.619695 47.519483 
L 201.619695 47.5964 
L 200.299443 47.623716 
" clip-path="url(#p7a4109aeaa)" style="fill: none; stroke: #ff7f0e; stroke-opacity: 0.5; stroke-width: 0.2; stroke-linecap: square"/>
   <path d="M 256.619695 305.684407 
L 255.619695 305.65297 
L 254.619695 305.61603 
L 253.619695 305.518283 
L 252.619695 305.485762 
L 251.619695 305.412137 
L 250.619695 305.373571 
L 249.619695 305.338158 
L 248.619695 305.280518 
L 247.619695 305.210132 
L 246.619695 305.158168 
L 245.619695 305.099078 
L 244.619695 305.010757 
L 243.619695 304.964613 
L 242.619695 304.922202 
L 241.619695 304.891709 
L 240.619695 304.865664 
L 239.619695 304.844464 
L 238.619695 304.790163 
L 237.619695 304.762226 
L 236.619695 304.732502 
L 235.619695 304.707107 
L 234.619695 304.695906 
L 233.619695 304.685782 
L 232.619695 304.685987 
L 231.619695 304.695497 
L 230.619695 304.70715 
L 229.619695 304.738179 
L 228.619695 304.749347 
L 227.619695 304.779465 
L 226.619695 304.839242 
L 225.619695 304.876433 
L 224.619695 304.915529 
L 223.619695 304.957969 
L 222.619695 304.990734 
L 221.619695 305.058161 
L 220.619695 305.097287 
L 219.619695 305.139961 
L 218.619695 305.210542 
L 217.619695 305.246933 
L 216.619695 305.305336 
L 215.619695 305.416288 
L 214.619695 305.486947 
L 213.619695 305.599887 
L 212.619695 305.645659 
L 211.619695 305.706943 
L 210.619695 305.755442 
L 209.619695 305.836265 
L 208.619695 305.954784 
L 207.619695 306.024994 
L 206.619695 306.108257 
L 205.619695 306.141398 
L 204.619695 306.192636 
L 203.619695 306.261034 
L 202.619695 306.32725 
L 201.619695 306.404167 
L 200.299443 306.431482 
" clip-path="url(#p7a4109aeaa)" style="fill: none; stroke: #ff7f0e; stroke-opacity: 0.5; stroke-width: 0.2; stroke-linecap: square"/>
   <path d="M 256.619695 236.154296 
L 255.619695 236.122859 
L 254.619695 236.085919 
L 253.619695 235.988172 
L 252.619695 235.955651 
L 251.619695 235.882026 
L 250.619695 235.843461 
L 249.619695 235.808047 
L 248.619695 235.750408 
L 247.619695 235.680021 
L 246.619695 235.628057 
L 245.619695 235.568967 
L 244.619695 235.480646 
L 243.619695 235.434502 
L 242.619695 235.392091 
L 241.619695 235.361598 
L 240.619695 235.335554 
L 239.619695 235.314353 
L 238.619695 235.260052 
L 237.619695 235.232115 
L 236.619695 235.202391 
L 235.619695 235.176996 
L 234.619695 235.165796 
L 233.619695 235.155672 
L 232.619695 235.155876 
L 231.619695 235.165386 
L 230.619695 235.177039 
L 229.619695 235.208069 
L 228.619695 235.219237 
L 227.619695 235.249354 
L 226.619695 235.309131 
L 225.619695 235.346323 
L 224.619695 235.385419 
L 223.619695 235.427858 
L 222.619695 235.460623 
L 221.619695 235.52805 
L 220.619695 235.567176 
L 219.619695 235.60985 
L 218.619695 235.680431 
L 217.619695 235.716822 
L 216.619695 235.775225 
L 215.619695 235.886178 
L 214.619695 235.956836 
L 213.619695 236.069776 
L 212.619695 236.115549 
L 211.619695 236.176832 
L 210.619695 236.225331 
L 209.619695 236.306154 
L 208.619695 236.424673 
L 207.619695 236.494883 
L 206.619695 236.578146 
L 205.619695 236.611288 
L 204.619695 236.662525 
L 203.619695 236.730923 
L 202.619695 236.797139 
L 201.619695 236.874056 
L 200.299443 236.901371 
" clip-path="url(#p7a4109aeaa)" style="fill: none; stroke: #ff7f0e; stroke-opacity: 0.5; stroke-width: 0.2; stroke-linecap: square"/>
   <path d="M 256.619695 148.963877 
L 255.619695 148.93244 
L 254.619695 148.8955 
L 253.619695 148.797753 
L 252.619695 148.765232 
L 251.619695 148.691607 
L 250.619695 148.653041 
L 249.619695 148.617628 
L 248.619695 148.559988 
L 247.619695 148.489602 
L 246.619695 148.437638 
L 245.619695 148.378548 
L 244.619695 148.290227 
L 243.619695 148.244083 
L 242.619695 148.201672 
L 241.619695 148.171179 
L 240.619695 148.145134 
L 239.619695 148.123934 
L 238.619695 148.069633 
L 237.619695 148.041696 
L 236.619695 148.011972 
L 235.619695 147.986577 
L 234.619695 147.975376 
L 233.619695 147.965252 
L 232.619695 147.965457 
L 231.619695 147.974967 
L 230.619695 147.98662 
L 229.619695 148.017649 
L 228.619695 148.028817 
L 227.619695 148.058935 
L 226.619695 148.118712 
L 225.619695 148.155903 
L 224.619695 148.194999 
L 223.619695 148.237439 
L 222.619695 148.270204 
L 221.619695 148.337631 
L 220.619695 148.376757 
L 219.619695 148.419431 
L 218.619695 148.490012 
L 217.619695 148.526403 
L 216.619695 148.584806 
L 215.619695 148.695758 
L 214.619695 148.766417 
L 213.619695 148.879357 
L 212.619695 148.925129 
L 211.619695 148.986413 
L 210.619695 149.034912 
L 209.619695 149.115735 
L 208.619695 149.234254 
L 207.619695 149.304464 
L 206.619695 149.387727 
L 205.619695 149.420868 
L 204.619695 149.472106 
L 203.619695 149.540504 
L 202.619695 149.60672 
L 201.619695 149.683637 
L 200.299443 149.710952 
" clip-path="url(#p7a4109aeaa)" style="fill: none; stroke: #ff7f0e; stroke-opacity: 0.5; stroke-width: 0.2; stroke-linecap: square"/>
   <path d="M 256.619695 115.067089 
L 255.619695 115.035653 
L 254.619695 114.998712 
L 253.619695 114.900966 
L 252.619695 114.868444 
L 251.619695 114.79482 
L 250.619695 114.756254 
L 249.619695 114.720841 
L 248.619695 114.663201 
L 247.619695 114.592815 
L 246.619695 114.540851 
L 245.619695 114.481761 
L 244.619695 114.39344 
L 243.619695 114.347295 
L 242.619695 114.304885 
L 241.619695 114.274392 
L 240.619695 114.248347 
L 239.619695 114.227147 
L 238.619695 114.172846 
L 237.619695 114.144908 
L 236.619695 114.115184 
L 235.619695 114.089789 
L 234.619695 114.078589 
L 233.619695 114.068465 
L 232.619695 114.068669 
L 231.619695 114.078179 
L 230.619695 114.089833 
L 229.619695 114.120862 
L 228.619695 114.13203 
L 227.619695 114.162148 
L 226.619695 114.221924 
L 225.619695 114.259116 
L 224.619695 114.298212 
L 223.619695 114.340652 
L 222.619695 114.373417 
L 221.619695 114.440843 
L 220.619695 114.479969 
L 219.619695 114.522644 
L 218.619695 114.593224 
L 217.619695 114.629615 
L 216.619695 114.688018 
L 215.619695 114.798971 
L 214.619695 114.869629 
L 213.619695 114.982569 
L 212.619695 115.028342 
L 211.619695 115.089625 
L 210.619695 115.138125 
L 209.619695 115.218947 
L 208.619695 115.337466 
L 207.619695 115.407677 
L 206.619695 115.490939 
L 205.619695 115.524081 
L 204.619695 115.575318 
L 203.619695 115.643717 
L 202.619695 115.709932 
L 201.619695 115.786849 
L 200.299443 115.814165 
" clip-path="url(#p7a4109aeaa)" style="fill: none; stroke: #ff7f0e; stroke-opacity: 0.5; stroke-width: 0.2; stroke-linecap: square"/>
   <path d="M 256.619695 280.105621 
L 255.619695 280.074184 
L 254.619695 280.037244 
L 253.619695 279.939498 
L 252.619695 279.906976 
L 251.619695 279.833351 
L 250.619695 279.794786 
L 249.619695 279.759372 
L 248.619695 279.701733 
L 247.619695 279.631346 
L 246.619695 279.579382 
L 245.619695 279.520292 
L 244.619695 279.431971 
L 243.619695 279.385827 
L 242.619695 279.343416 
L 241.619695 279.312924 
L 240.619695 279.286879 
L 239.619695 279.265678 
L 238.619695 279.211377 
L 237.619695 279.18344 
L 236.619695 279.153716 
L 235.619695 279.128321 
L 234.619695 279.117121 
L 233.619695 279.106997 
L 232.619695 279.107201 
L 231.619695 279.116711 
L 230.619695 279.128364 
L 229.619695 279.159394 
L 228.619695 279.170562 
L 227.619695 279.200679 
L 226.619695 279.260456 
L 225.619695 279.297648 
L 224.619695 279.336744 
L 223.619695 279.379183 
L 222.619695 279.411948 
L 221.619695 279.479375 
L 220.619695 279.518501 
L 219.619695 279.561175 
L 218.619695 279.631756 
L 217.619695 279.668147 
L 216.619695 279.72655 
L 215.619695 279.837503 
L 214.619695 279.908161 
L 213.619695 280.021101 
L 212.619695 280.066874 
L 211.619695 280.128157 
L 210.619695 280.176656 
L 209.619695 280.257479 
L 208.619695 280.375998 
L 207.619695 280.446208 
L 206.619695 280.529471 
L 205.619695 280.562613 
L 204.619695 280.61385 
L 203.619695 280.682248 
L 202.619695 280.748464 
L 201.619695 280.825381 
L 200.299443 280.852696 
" clip-path="url(#p7a4109aeaa)" style="fill: none; stroke: #ff7f0e; stroke-opacity: 0.5; stroke-width: 0.2; stroke-linecap: square"/>
   <path d="M 390.34593 62.433868 
L 391.34593 62.465304 
L 392.34593 62.502245 
L 393.34593 62.599991 
L 394.34593 62.632513 
L 395.34593 62.706137 
L 396.34593 62.744703 
L 397.34593 62.780116 
L 398.34593 62.837756 
L 399.34593 62.908142 
L 400.34593 62.960107 
L 401.34593 63.019196 
L 402.34593 63.107517 
L 403.34593 63.153662 
L 404.34593 63.196072 
L 405.34593 63.226565 
L 406.34593 63.25261 
L 407.34593 63.27381 
L 408.34593 63.328111 
L 409.34593 63.356049 
L 410.34593 63.385773 
L 411.34593 63.411168 
L 412.34593 63.422368 
L 413.34593 63.432492 
L 414.34593 63.432288 
L 415.34593 63.422778 
L 416.34593 63.411124 
L 417.34593 63.380095 
L 418.34593 63.368927 
L 419.34593 63.338809 
L 420.34593 63.279033 
L 421.34593 63.241841 
L 422.34593 63.202745 
L 423.34593 63.160305 
L 424.34593 63.12754 
L 425.34593 63.060114 
L 426.34593 63.020988 
L 427.34593 62.978313 
L 428.34593 62.907733 
L 429.34593 62.871342 
L 430.34593 62.812939 
L 431.34593 62.701986 
L 432.34593 62.631328 
L 433.34593 62.518388 
L 434.34593 62.472615 
L 435.34593 62.411332 
L 436.34593 62.362832 
L 437.34593 62.28201 
L 438.34593 62.163491 
L 439.34593 62.09328 
L 440.34593 62.010018 
L 441.34593 61.976876 
L 442.34593 61.925639 
L 443.34593 61.85724 
L 444.34593 61.791025 
L 445.34593 61.714108 
L 446.666182 61.686792 
" clip-path="url(#p7a4109aeaa)" style="fill: none; stroke: #ff7f0e; stroke-opacity: 0.5; stroke-width: 0.2; stroke-linecap: square"/>
   <path d="M 390.34593 135.14705 
L 391.34593 135.178487 
L 392.34593 135.215427 
L 393.34593 135.313174 
L 394.34593 135.345695 
L 395.34593 135.41932 
L 396.34593 135.457885 
L 397.34593 135.493299 
L 398.34593 135.550939 
L 399.34593 135.621325 
L 400.34593 135.673289 
L 401.34593 135.732379 
L 402.34593 135.8207 
L 403.34593 135.866844 
L 404.34593 135.909255 
L 405.34593 135.939748 
L 406.34593 135.965793 
L 407.34593 135.986993 
L 408.34593 136.041294 
L 409.34593 136.069231 
L 410.34593 136.098955 
L 411.34593 136.12435 
L 412.34593 136.13555 
L 413.34593 136.145674 
L 414.34593 136.14547 
L 415.34593 136.13596 
L 416.34593 136.124307 
L 417.34593 136.093277 
L 418.34593 136.082109 
L 419.34593 136.051992 
L 420.34593 135.992215 
L 421.34593 135.955023 
L 422.34593 135.915927 
L 423.34593 135.873488 
L 424.34593 135.840723 
L 425.34593 135.773296 
L 426.34593 135.73417 
L 427.34593 135.691496 
L 428.34593 135.620915 
L 429.34593 135.584524 
L 430.34593 135.526121 
L 431.34593 135.415168 
L 432.34593 135.34451 
L 433.34593 135.23157 
L 434.34593 135.185797 
L 435.34593 135.124514 
L 436.34593 135.076015 
L 437.34593 134.995192 
L 438.34593 134.876673 
L 439.34593 134.806463 
L 440.34593 134.7232 
L 441.34593 134.690058 
L 442.34593 134.638821 
L 443.34593 134.570423 
L 444.34593 134.504207 
L 445.34593 134.42729 
L 446.666182 134.399975 
" clip-path="url(#p7a4109aeaa)" style="fill: none; stroke: #ff7f0e; stroke-opacity: 0.5; stroke-width: 0.2; stroke-linecap: square"/>
   <path d="M 390.34593 305.543012 
L 391.34593 305.574449 
L 392.34593 305.611389 
L 393.34593 305.709136 
L 394.34593 305.741657 
L 395.34593 305.815282 
L 396.34593 305.853848 
L 397.34593 305.889261 
L 398.34593 305.946901 
L 399.34593 306.017287 
L 400.34593 306.069251 
L 401.34593 306.128341 
L 402.34593 306.216662 
L 403.34593 306.262806 
L 404.34593 306.305217 
L 405.34593 306.33571 
L 406.34593 306.361755 
L 407.34593 306.382955 
L 408.34593 306.437256 
L 409.34593 306.465193 
L 410.34593 306.494917 
L 411.34593 306.520312 
L 412.34593 306.531513 
L 413.34593 306.541637 
L 414.34593 306.541432 
L 415.34593 306.531922 
L 416.34593 306.520269 
L 417.34593 306.489239 
L 418.34593 306.478072 
L 419.34593 306.447954 
L 420.34593 306.388177 
L 421.34593 306.350986 
L 422.34593 306.311889 
L 423.34593 306.26945 
L 424.34593 306.236685 
L 425.34593 306.169258 
L 426.34593 306.130132 
L 427.34593 306.087458 
L 428.34593 306.016877 
L 429.34593 305.980486 
L 430.34593 305.922083 
L 431.34593 305.811131 
L 432.34593 305.740472 
L 433.34593 305.627532 
L 434.34593 305.58176 
L 435.34593 305.520476 
L 436.34593 305.471977 
L 437.34593 305.391154 
L 438.34593 305.272635 
L 439.34593 305.202425 
L 440.34593 305.119162 
L 441.34593 305.086021 
L 442.34593 305.034783 
L 443.34593 304.966385 
L 444.34593 304.900169 
L 445.34593 304.823252 
L 446.666182 304.795937 
" clip-path="url(#p7a4109aeaa)" style="fill: none; stroke: #ff7f0e; stroke-opacity: 0.5; stroke-width: 0.2; stroke-linecap: square"/>
   <path d="M 390.34593 295.049095 
L 391.34593 295.080531 
L 392.34593 295.117472 
L 393.34593 295.215218 
L 394.34593 295.24774 
L 395.34593 295.321365 
L 396.34593 295.35993 
L 397.34593 295.395343 
L 398.34593 295.452983 
L 399.34593 295.523369 
L 400.34593 295.575334 
L 401.34593 295.634423 
L 402.34593 295.722744 
L 403.34593 295.768889 
L 404.34593 295.8113 
L 405.34593 295.841792 
L 406.34593 295.867837 
L 407.34593 295.889037 
L 408.34593 295.943338 
L 409.34593 295.971276 
L 410.34593 296.001 
L 411.34593 296.026395 
L 412.34593 296.037595 
L 413.34593 296.047719 
L 414.34593 296.047515 
L 415.34593 296.038005 
L 416.34593 296.026351 
L 417.34593 295.995322 
L 418.34593 295.984154 
L 419.34593 295.954037 
L 420.34593 295.89426 
L 421.34593 295.857068 
L 422.34593 295.817972 
L 423.34593 295.775532 
L 424.34593 295.742767 
L 425.34593 295.675341 
L 426.34593 295.636215 
L 427.34593 295.59354 
L 428.34593 295.52296 
L 429.34593 295.486569 
L 430.34593 295.428166 
L 431.34593 295.317213 
L 432.34593 295.246555 
L 433.34593 295.133615 
L 434.34593 295.087842 
L 435.34593 295.026559 
L 436.34593 294.97806 
L 437.34593 294.897237 
L 438.34593 294.778718 
L 439.34593 294.708507 
L 440.34593 294.625245 
L 441.34593 294.592103 
L 442.34593 294.540866 
L 443.34593 294.472467 
L 444.34593 294.406252 
L 445.34593 294.329335 
L 446.666182 294.302019 
" clip-path="url(#p7a4109aeaa)" style="fill: none; stroke: #ff7f0e; stroke-opacity: 0.5; stroke-width: 0.2; stroke-linecap: square"/>
   <path d="M 390.34593 137.97554 
L 391.34593 138.006976 
L 392.34593 138.043916 
L 393.34593 138.141663 
L 394.34593 138.174184 
L 395.34593 138.247809 
L 396.34593 138.286375 
L 397.34593 138.321788 
L 398.34593 138.379428 
L 399.34593 138.449814 
L 400.34593 138.501778 
L 401.34593 138.560868 
L 402.34593 138.649189 
L 403.34593 138.695333 
L 404.34593 138.737744 
L 405.34593 138.768237 
L 406.34593 138.794282 
L 407.34593 138.815482 
L 408.34593 138.869783 
L 409.34593 138.897721 
L 410.34593 138.927445 
L 411.34593 138.952839 
L 412.34593 138.96404 
L 413.34593 138.974164 
L 414.34593 138.973959 
L 415.34593 138.964449 
L 416.34593 138.952796 
L 417.34593 138.921767 
L 418.34593 138.910599 
L 419.34593 138.880481 
L 420.34593 138.820704 
L 421.34593 138.783513 
L 422.34593 138.744417 
L 423.34593 138.701977 
L 424.34593 138.669212 
L 425.34593 138.601785 
L 426.34593 138.56266 
L 427.34593 138.519985 
L 428.34593 138.449404 
L 429.34593 138.413014 
L 430.34593 138.35461 
L 431.34593 138.243658 
L 432.34593 138.172999 
L 433.34593 138.06006 
L 434.34593 138.014287 
L 435.34593 137.953003 
L 436.34593 137.904504 
L 437.34593 137.823681 
L 438.34593 137.705163 
L 439.34593 137.634952 
L 440.34593 137.551689 
L 441.34593 137.518548 
L 442.34593 137.46731 
L 443.34593 137.398912 
L 444.34593 137.332697 
L 445.34593 137.25578 
L 446.666182 137.228464 
" clip-path="url(#p7a4109aeaa)" style="fill: none; stroke: #ff7f0e; stroke-opacity: 0.5; stroke-width: 0.2; stroke-linecap: square"/>
   <path d="M 390.34593 225.857356 
L 391.34593 225.888793 
L 392.34593 225.925733 
L 393.34593 226.02348 
L 394.34593 226.056001 
L 395.34593 226.129626 
L 396.34593 226.168192 
L 397.34593 226.203605 
L 398.34593 226.261245 
L 399.34593 226.331631 
L 400.34593 226.383595 
L 401.34593 226.442685 
L 402.34593 226.531006 
L 403.34593 226.57715 
L 404.34593 226.619561 
L 405.34593 226.650054 
L 406.34593 226.676099 
L 407.34593 226.697299 
L 408.34593 226.7516 
L 409.34593 226.779537 
L 410.34593 226.809261 
L 411.34593 226.834656 
L 412.34593 226.845857 
L 413.34593 226.855981 
L 414.34593 226.855776 
L 415.34593 226.846266 
L 416.34593 226.834613 
L 417.34593 226.803583 
L 418.34593 226.792416 
L 419.34593 226.762298 
L 420.34593 226.702521 
L 421.34593 226.66533 
L 422.34593 226.626233 
L 423.34593 226.583794 
L 424.34593 226.551029 
L 425.34593 226.483602 
L 426.34593 226.444476 
L 427.34593 226.401802 
L 428.34593 226.331221 
L 429.34593 226.29483 
L 430.34593 226.236427 
L 431.34593 226.125475 
L 432.34593 226.054816 
L 433.34593 225.941876 
L 434.34593 225.896104 
L 435.34593 225.83482 
L 436.34593 225.786321 
L 437.34593 225.705498 
L 438.34593 225.586979 
L 439.34593 225.516769 
L 440.34593 225.433506 
L 441.34593 225.400365 
L 442.34593 225.349127 
L 443.34593 225.280729 
L 444.34593 225.214513 
L 445.34593 225.137596 
L 446.666182 225.110281 
" clip-path="url(#p7a4109aeaa)" style="fill: none; stroke: #ff7f0e; stroke-opacity: 0.5; stroke-width: 0.2; stroke-linecap: square"/>
   <path d="M 390.34593 33.250156 
L 391.34593 33.281592 
L 392.34593 33.318532 
L 393.34593 33.416279 
L 394.34593 33.4488 
L 395.34593 33.522425 
L 396.34593 33.560991 
L 397.34593 33.596404 
L 398.34593 33.654044 
L 399.34593 33.72443 
L 400.34593 33.776394 
L 401.34593 33.835484 
L 402.34593 33.923805 
L 403.34593 33.969949 
L 404.34593 34.01236 
L 405.34593 34.042853 
L 406.34593 34.068898 
L 407.34593 34.090098 
L 408.34593 34.144399 
L 409.34593 34.172337 
L 410.34593 34.202061 
L 411.34593 34.227455 
L 412.34593 34.238656 
L 413.34593 34.24878 
L 414.34593 34.248575 
L 415.34593 34.239065 
L 416.34593 34.227412 
L 417.34593 34.196383 
L 418.34593 34.185215 
L 419.34593 34.155097 
L 420.34593 34.09532 
L 421.34593 34.058129 
L 422.34593 34.019033 
L 423.34593 33.976593 
L 424.34593 33.943828 
L 425.34593 33.876401 
L 426.34593 33.837276 
L 427.34593 33.794601 
L 428.34593 33.72402 
L 429.34593 33.68763 
L 430.34593 33.629226 
L 431.34593 33.518274 
L 432.34593 33.447615 
L 433.34593 33.334676 
L 434.34593 33.288903 
L 435.34593 33.227619 
L 436.34593 33.17912 
L 437.34593 33.098297 
L 438.34593 32.979779 
L 439.34593 32.909568 
L 440.34593 32.826305 
L 441.34593 32.793164 
L 442.34593 32.741926 
L 443.34593 32.673528 
L 444.34593 32.607313 
L 445.34593 32.530396 
L 446.666182 32.50308 
" clip-path="url(#p7a4109aeaa)" style="fill: none; stroke: #ff7f0e; stroke-opacity: 0.5; stroke-width: 0.2; stroke-linecap: square"/>
   <path d="M 390.34593 299.535364 
L 391.34593 299.566801 
L 392.34593 299.603741 
L 393.34593 299.701488 
L 394.34593 299.734009 
L 395.34593 299.807634 
L 396.34593 299.8462 
L 397.34593 299.881613 
L 398.34593 299.939253 
L 399.34593 300.009639 
L 400.34593 300.061603 
L 401.34593 300.120693 
L 402.34593 300.209014 
L 403.34593 300.255158 
L 404.34593 300.297569 
L 405.34593 300.328062 
L 406.34593 300.354107 
L 407.34593 300.375307 
L 408.34593 300.429608 
L 409.34593 300.457545 
L 410.34593 300.487269 
L 411.34593 300.512664 
L 412.34593 300.523865 
L 413.34593 300.533988 
L 414.34593 300.533784 
L 415.34593 300.524274 
L 416.34593 300.512621 
L 417.34593 300.481591 
L 418.34593 300.470424 
L 419.34593 300.440306 
L 420.34593 300.380529 
L 421.34593 300.343338 
L 422.34593 300.304241 
L 423.34593 300.261802 
L 424.34593 300.229037 
L 425.34593 300.16161 
L 426.34593 300.122484 
L 427.34593 300.07981 
L 428.34593 300.009229 
L 429.34593 299.972838 
L 430.34593 299.914435 
L 431.34593 299.803483 
L 432.34593 299.732824 
L 433.34593 299.619884 
L 434.34593 299.574112 
L 435.34593 299.512828 
L 436.34593 299.464329 
L 437.34593 299.383506 
L 438.34593 299.264987 
L 439.34593 299.194777 
L 440.34593 299.111514 
L 441.34593 299.078372 
L 442.34593 299.027135 
L 443.34593 298.958737 
L 444.34593 298.892521 
L 445.34593 298.815604 
L 446.666182 298.788289 
" clip-path="url(#p7a4109aeaa)" style="fill: none; stroke: #ff7f0e; stroke-opacity: 0.5; stroke-width: 0.2; stroke-linecap: square"/>
   <path d="M 390.34593 136.788505 
L 391.34593 136.819942 
L 392.34593 136.856882 
L 393.34593 136.954629 
L 394.34593 136.98715 
L 395.34593 137.060775 
L 396.34593 137.099341 
L 397.34593 137.134754 
L 398.34593 137.192394 
L 399.34593 137.26278 
L 400.34593 137.314744 
L 401.34593 137.373834 
L 402.34593 137.462155 
L 403.34593 137.508299 
L 404.34593 137.55071 
L 405.34593 137.581203 
L 406.34593 137.607248 
L 407.34593 137.628448 
L 408.34593 137.682749 
L 409.34593 137.710686 
L 410.34593 137.74041 
L 411.34593 137.765805 
L 412.34593 137.777006 
L 413.34593 137.78713 
L 414.34593 137.786925 
L 415.34593 137.777415 
L 416.34593 137.765762 
L 417.34593 137.734733 
L 418.34593 137.723565 
L 419.34593 137.693447 
L 420.34593 137.63367 
L 421.34593 137.596479 
L 422.34593 137.557383 
L 423.34593 137.514943 
L 424.34593 137.482178 
L 425.34593 137.414751 
L 426.34593 137.375625 
L 427.34593 137.332951 
L 428.34593 137.26237 
L 429.34593 137.225979 
L 430.34593 137.167576 
L 431.34593 137.056624 
L 432.34593 136.985965 
L 433.34593 136.873025 
L 434.34593 136.827253 
L 435.34593 136.765969 
L 436.34593 136.71747 
L 437.34593 136.636647 
L 438.34593 136.518128 
L 439.34593 136.447918 
L 440.34593 136.364655 
L 441.34593 136.331514 
L 442.34593 136.280276 
L 443.34593 136.211878 
L 444.34593 136.145662 
L 445.34593 136.068745 
L 446.666182 136.04143 
" clip-path="url(#p7a4109aeaa)" style="fill: none; stroke: #ff7f0e; stroke-opacity: 0.5; stroke-width: 0.2; stroke-linecap: square"/>
   <path d="M 390.34593 299.312881 
L 391.34593 299.344317 
L 392.34593 299.381257 
L 393.34593 299.479004 
L 394.34593 299.511526 
L 395.34593 299.58515 
L 396.34593 299.623716 
L 397.34593 299.659129 
L 398.34593 299.716769 
L 399.34593 299.787155 
L 400.34593 299.839119 
L 401.34593 299.898209 
L 402.34593 299.98653 
L 403.34593 300.032674 
L 404.34593 300.075085 
L 405.34593 300.105578 
L 406.34593 300.131623 
L 407.34593 300.152823 
L 408.34593 300.207124 
L 409.34593 300.235062 
L 410.34593 300.264786 
L 411.34593 300.29018 
L 412.34593 300.301381 
L 413.34593 300.311505 
L 414.34593 300.3113 
L 415.34593 300.301791 
L 416.34593 300.290137 
L 417.34593 300.259108 
L 418.34593 300.24794 
L 419.34593 300.217822 
L 420.34593 300.158045 
L 421.34593 300.120854 
L 422.34593 300.081758 
L 423.34593 300.039318 
L 424.34593 300.006553 
L 425.34593 299.939126 
L 426.34593 299.900001 
L 427.34593 299.857326 
L 428.34593 299.786745 
L 429.34593 299.750355 
L 430.34593 299.691951 
L 431.34593 299.580999 
L 432.34593 299.51034 
L 433.34593 299.397401 
L 434.34593 299.351628 
L 435.34593 299.290345 
L 436.34593 299.241845 
L 437.34593 299.161023 
L 438.34593 299.042504 
L 439.34593 298.972293 
L 440.34593 298.889031 
L 441.34593 298.855889 
L 442.34593 298.804651 
L 443.34593 298.736253 
L 444.34593 298.670038 
L 445.34593 298.593121 
L 446.666182 298.565805 
" clip-path="url(#p7a4109aeaa)" style="fill: none; stroke: #ff7f0e; stroke-opacity: 0.5; stroke-width: 0.2; stroke-linecap: square"/>
   <path d="M 446.666182 13.407121 
L 445.666182 13.375685 
L 444.666182 13.338744 
L 443.666182 13.240998 
L 442.666182 13.208476 
L 441.666182 13.134852 
L 440.666182 13.096286 
L 439.666182 13.060873 
L 438.666182 13.003233 
L 437.666182 12.932847 
L 436.666182 12.880883 
L 435.666182 12.821793 
L 434.666182 12.733472 
L 433.666182 12.687328 
L 432.666182 12.644917 
L 431.666182 12.614424 
L 430.666182 12.588379 
L 429.666182 12.567179 
L 428.666182 12.512878 
L 427.666182 12.48494 
L 426.666182 12.455216 
L 425.666182 12.429821 
L 424.666182 12.418621 
L 423.666182 12.408497 
L 422.666182 12.408701 
L 421.666182 12.418211 
L 420.666182 12.429865 
L 419.666182 12.460894 
L 418.666182 12.472062 
L 417.666182 12.50218 
L 416.666182 12.561957 
L 415.666182 12.599148 
L 414.666182 12.638244 
L 413.666182 12.680684 
L 412.666182 12.713449 
L 411.666182 12.780875 
L 410.666182 12.820001 
L 409.666182 12.862676 
L 408.666182 12.933256 
L 407.666182 12.969647 
L 406.666182 13.02805 
L 405.666182 13.139003 
L 404.666182 13.209661 
L 403.666182 13.322601 
L 402.666182 13.368374 
L 401.666182 13.429657 
L 400.666182 13.478157 
L 399.666182 13.558979 
L 398.666182 13.677498 
L 397.666182 13.747709 
L 396.666182 13.830971 
L 395.666182 13.864113 
L 394.666182 13.91535 
L 393.666182 13.983749 
L 392.666182 14.049964 
L 391.666182 14.126881 
L 390.34593 14.154197 
" clip-path="url(#p7a4109aeaa)" style="fill: none; stroke: #2ca02c; stroke-opacity: 0.5; stroke-width: 0.2; stroke-linecap: square"/>
   <path d="M 446.666182 185.591776 
L 445.666182 185.560339 
L 444.666182 185.523399 
L 443.666182 185.425652 
L 442.666182 185.393131 
L 441.666182 185.319506 
L 440.666182 185.28094 
L 439.666182 185.245527 
L 438.666182 185.187887 
L 437.666182 185.117501 
L 436.666182 185.065537 
L 435.666182 185.006447 
L 434.666182 184.918126 
L 433.666182 184.871982 
L 432.666182 184.829571 
L 431.666182 184.799078 
L 430.666182 184.773033 
L 429.666182 184.751833 
L 428.666182 184.697532 
L 427.666182 184.669594 
L 426.666182 184.639871 
L 425.666182 184.614476 
L 424.666182 184.603275 
L 423.666182 184.593151 
L 422.666182 184.593356 
L 421.666182 184.602866 
L 420.666182 184.614519 
L 419.666182 184.645548 
L 418.666182 184.656716 
L 417.666182 184.686834 
L 416.666182 184.746611 
L 415.666182 184.783802 
L 414.666182 184.822898 
L 413.666182 184.865338 
L 412.666182 184.898103 
L 411.666182 184.96553 
L 410.666182 185.004656 
L 409.666182 185.04733 
L 408.666182 185.117911 
L 407.666182 185.154302 
L 406.666182 185.212705 
L 405.666182 185.323657 
L 404.666182 185.394316 
L 403.666182 185.507255 
L 402.666182 185.553028 
L 401.666182 185.614312 
L 400.666182 185.662811 
L 399.666182 185.743634 
L 398.666182 185.862153 
L 397.666182 185.932363 
L 396.666182 186.015626 
L 395.666182 186.048767 
L 394.666182 186.100005 
L 393.666182 186.168403 
L 392.666182 186.234619 
L 391.666182 186.311536 
L 390.34593 186.338851 
" clip-path="url(#p7a4109aeaa)" style="fill: none; stroke: #2ca02c; stroke-opacity: 0.5; stroke-width: 0.2; stroke-linecap: square"/>
   <path d="M 446.666182 313.581042 
L 445.666182 313.549605 
L 444.666182 313.512665 
L 443.666182 313.414918 
L 442.666182 313.382397 
L 441.666182 313.308772 
L 440.666182 313.270206 
L 439.666182 313.234793 
L 438.666182 313.177153 
L 437.666182 313.106767 
L 436.666182 313.054803 
L 435.666182 312.995713 
L 434.666182 312.907392 
L 433.666182 312.861248 
L 432.666182 312.818837 
L 431.666182 312.788344 
L 430.666182 312.762299 
L 429.666182 312.741099 
L 428.666182 312.686798 
L 427.666182 312.658861 
L 426.666182 312.629137 
L 425.666182 312.603742 
L 424.666182 312.592541 
L 423.666182 312.582417 
L 422.666182 312.582622 
L 421.666182 312.592132 
L 420.666182 312.603785 
L 419.666182 312.634815 
L 418.666182 312.645982 
L 417.666182 312.6761 
L 416.666182 312.735877 
L 415.666182 312.773068 
L 414.666182 312.812165 
L 413.666182 312.854604 
L 412.666182 312.887369 
L 411.666182 312.954796 
L 410.666182 312.993922 
L 409.666182 313.036596 
L 408.666182 313.107177 
L 407.666182 313.143568 
L 406.666182 313.201971 
L 405.666182 313.312923 
L 404.666182 313.383582 
L 403.666182 313.496522 
L 402.666182 313.542294 
L 401.666182 313.603578 
L 400.666182 313.652077 
L 399.666182 313.7329 
L 398.666182 313.851419 
L 397.666182 313.921629 
L 396.666182 314.004892 
L 395.666182 314.038034 
L 394.666182 314.089271 
L 393.666182 314.157669 
L 392.666182 314.223885 
L 391.666182 314.300802 
L 390.34593 314.328117 
" clip-path="url(#p7a4109aeaa)" style="fill: none; stroke: #2ca02c; stroke-opacity: 0.5; stroke-width: 0.2; stroke-linecap: square"/>
   <path d="M 446.666182 284.821595 
L 445.666182 284.790158 
L 444.666182 284.753218 
L 443.666182 284.655471 
L 442.666182 284.62295 
L 441.666182 284.549325 
L 440.666182 284.51076 
L 439.666182 284.475346 
L 438.666182 284.417706 
L 437.666182 284.34732 
L 436.666182 284.295356 
L 435.666182 284.236266 
L 434.666182 284.147945 
L 433.666182 284.101801 
L 432.666182 284.05939 
L 431.666182 284.028897 
L 430.666182 284.002852 
L 429.666182 283.981652 
L 428.666182 283.927351 
L 427.666182 283.899414 
L 426.666182 283.86969 
L 425.666182 283.844295 
L 424.666182 283.833095 
L 423.666182 283.822971 
L 422.666182 283.823175 
L 421.666182 283.832685 
L 420.666182 283.844338 
L 419.666182 283.875368 
L 418.666182 283.886536 
L 417.666182 283.916653 
L 416.666182 283.97643 
L 415.666182 284.013622 
L 414.666182 284.052718 
L 413.666182 284.095157 
L 412.666182 284.127922 
L 411.666182 284.195349 
L 410.666182 284.234475 
L 409.666182 284.277149 
L 408.666182 284.34773 
L 407.666182 284.384121 
L 406.666182 284.442524 
L 405.666182 284.553477 
L 404.666182 284.624135 
L 403.666182 284.737075 
L 402.666182 284.782848 
L 401.666182 284.844131 
L 400.666182 284.89263 
L 399.666182 284.973453 
L 398.666182 285.091972 
L 397.666182 285.162182 
L 396.666182 285.245445 
L 395.666182 285.278587 
L 394.666182 285.329824 
L 393.666182 285.398222 
L 392.666182 285.464438 
L 391.666182 285.541355 
L 390.34593 285.56867 
" clip-path="url(#p7a4109aeaa)" style="fill: none; stroke: #2ca02c; stroke-opacity: 0.5; stroke-width: 0.2; stroke-linecap: square"/>
   <path d="M 446.666182 58.705973 
L 445.666182 58.674536 
L 444.666182 58.637596 
L 443.666182 58.53985 
L 442.666182 58.507328 
L 441.666182 58.433703 
L 440.666182 58.395138 
L 439.666182 58.359725 
L 438.666182 58.302085 
L 437.666182 58.231698 
L 436.666182 58.179734 
L 435.666182 58.120644 
L 434.666182 58.032323 
L 433.666182 57.986179 
L 432.666182 57.943768 
L 431.666182 57.913276 
L 430.666182 57.887231 
L 429.666182 57.866031 
L 428.666182 57.811729 
L 427.666182 57.783792 
L 426.666182 57.754068 
L 425.666182 57.728673 
L 424.666182 57.717473 
L 423.666182 57.707349 
L 422.666182 57.707553 
L 421.666182 57.717063 
L 420.666182 57.728717 
L 419.666182 57.759746 
L 418.666182 57.770914 
L 417.666182 57.801031 
L 416.666182 57.860808 
L 415.666182 57.898 
L 414.666182 57.937096 
L 413.666182 57.979535 
L 412.666182 58.012301 
L 411.666182 58.079727 
L 410.666182 58.118853 
L 409.666182 58.161527 
L 408.666182 58.232108 
L 407.666182 58.268499 
L 406.666182 58.326902 
L 405.666182 58.437855 
L 404.666182 58.508513 
L 403.666182 58.621453 
L 402.666182 58.667226 
L 401.666182 58.728509 
L 400.666182 58.777008 
L 399.666182 58.857831 
L 398.666182 58.97635 
L 397.666182 59.046561 
L 396.666182 59.129823 
L 395.666182 59.162965 
L 394.666182 59.214202 
L 393.666182 59.2826 
L 392.666182 59.348816 
L 391.666182 59.425733 
L 390.34593 59.453048 
" clip-path="url(#p7a4109aeaa)" style="fill: none; stroke: #2ca02c; stroke-opacity: 0.5; stroke-width: 0.2; stroke-linecap: square"/>
   <path d="M 446.666182 170.974949 
L 445.666182 170.943512 
L 444.666182 170.906572 
L 443.666182 170.808825 
L 442.666182 170.776304 
L 441.666182 170.702679 
L 440.666182 170.664113 
L 439.666182 170.6287 
L 438.666182 170.57106 
L 437.666182 170.500674 
L 436.666182 170.44871 
L 435.666182 170.38962 
L 434.666182 170.301299 
L 433.666182 170.255155 
L 432.666182 170.212744 
L 431.666182 170.182251 
L 430.666182 170.156206 
L 429.666182 170.135006 
L 428.666182 170.080705 
L 427.666182 170.052768 
L 426.666182 170.023044 
L 425.666182 169.997649 
L 424.666182 169.986448 
L 423.666182 169.976324 
L 422.666182 169.976529 
L 421.666182 169.986039 
L 420.666182 169.997692 
L 419.666182 170.028721 
L 418.666182 170.039889 
L 417.666182 170.070007 
L 416.666182 170.129784 
L 415.666182 170.166975 
L 414.666182 170.206071 
L 413.666182 170.248511 
L 412.666182 170.281276 
L 411.666182 170.348703 
L 410.666182 170.387829 
L 409.666182 170.430503 
L 408.666182 170.501084 
L 407.666182 170.537475 
L 406.666182 170.595878 
L 405.666182 170.70683 
L 404.666182 170.777489 
L 403.666182 170.890429 
L 402.666182 170.936201 
L 401.666182 170.997485 
L 400.666182 171.045984 
L 399.666182 171.126807 
L 398.666182 171.245326 
L 397.666182 171.315536 
L 396.666182 171.398799 
L 395.666182 171.43194 
L 394.666182 171.483178 
L 393.666182 171.551576 
L 392.666182 171.617792 
L 391.666182 171.694709 
L 390.34593 171.722024 
" clip-path="url(#p7a4109aeaa)" style="fill: none; stroke: #2ca02c; stroke-opacity: 0.5; stroke-width: 0.2; stroke-linecap: square"/>
   <path d="M 446.666182 313.235697 
L 445.666182 313.20426 
L 444.666182 313.16732 
L 443.666182 313.069573 
L 442.666182 313.037052 
L 441.666182 312.963427 
L 440.666182 312.924861 
L 439.666182 312.889448 
L 438.666182 312.831808 
L 437.666182 312.761422 
L 436.666182 312.709458 
L 435.666182 312.650368 
L 434.666182 312.562047 
L 433.666182 312.515903 
L 432.666182 312.473492 
L 431.666182 312.442999 
L 430.666182 312.416954 
L 429.666182 312.395754 
L 428.666182 312.341453 
L 427.666182 312.313516 
L 426.666182 312.283792 
L 425.666182 312.258397 
L 424.666182 312.247196 
L 423.666182 312.237073 
L 422.666182 312.237277 
L 421.666182 312.246787 
L 420.666182 312.25844 
L 419.666182 312.28947 
L 418.666182 312.300637 
L 417.666182 312.330755 
L 416.666182 312.390532 
L 415.666182 312.427723 
L 414.666182 312.46682 
L 413.666182 312.509259 
L 412.666182 312.542024 
L 411.666182 312.609451 
L 410.666182 312.648577 
L 409.666182 312.691251 
L 408.666182 312.761832 
L 407.666182 312.798223 
L 406.666182 312.856626 
L 405.666182 312.967578 
L 404.666182 313.038237 
L 403.666182 313.151177 
L 402.666182 313.196949 
L 401.666182 313.258233 
L 400.666182 313.306732 
L 399.666182 313.387555 
L 398.666182 313.506074 
L 397.666182 313.576284 
L 396.666182 313.659547 
L 395.666182 313.692689 
L 394.666182 313.743926 
L 393.666182 313.812324 
L 392.666182 313.87854 
L 391.666182 313.955457 
L 390.34593 313.982772 
" clip-path="url(#p7a4109aeaa)" style="fill: none; stroke: #2ca02c; stroke-opacity: 0.5; stroke-width: 0.2; stroke-linecap: square"/>
   <path d="M 446.666182 78.802361 
L 445.666182 78.770925 
L 444.666182 78.733985 
L 443.666182 78.636238 
L 442.666182 78.603716 
L 441.666182 78.530092 
L 440.666182 78.491526 
L 439.666182 78.456113 
L 438.666182 78.398473 
L 437.666182 78.328087 
L 436.666182 78.276123 
L 435.666182 78.217033 
L 434.666182 78.128712 
L 433.666182 78.082568 
L 432.666182 78.040157 
L 431.666182 78.009664 
L 430.666182 77.983619 
L 429.666182 77.962419 
L 428.666182 77.908118 
L 427.666182 77.88018 
L 426.666182 77.850456 
L 425.666182 77.825062 
L 424.666182 77.813861 
L 423.666182 77.803737 
L 422.666182 77.803942 
L 421.666182 77.813451 
L 420.666182 77.825105 
L 419.666182 77.856134 
L 418.666182 77.867302 
L 417.666182 77.89742 
L 416.666182 77.957197 
L 415.666182 77.994388 
L 414.666182 78.033484 
L 413.666182 78.075924 
L 412.666182 78.108689 
L 411.666182 78.176115 
L 410.666182 78.215241 
L 409.666182 78.257916 
L 408.666182 78.328497 
L 407.666182 78.364887 
L 406.666182 78.423291 
L 405.666182 78.534243 
L 404.666182 78.604901 
L 403.666182 78.717841 
L 402.666182 78.763614 
L 401.666182 78.824897 
L 400.666182 78.873397 
L 399.666182 78.954219 
L 398.666182 79.072738 
L 397.666182 79.142949 
L 396.666182 79.226211 
L 395.666182 79.259353 
L 394.666182 79.310591 
L 393.666182 79.378989 
L 392.666182 79.445204 
L 391.666182 79.522121 
L 390.34593 79.549437 
" clip-path="url(#p7a4109aeaa)" style="fill: none; stroke: #2ca02c; stroke-opacity: 0.5; stroke-width: 0.2; stroke-linecap: square"/>
   <path d="M 446.666182 42.803405 
L 445.666182 42.771969 
L 444.666182 42.735028 
L 443.666182 42.637282 
L 442.666182 42.60476 
L 441.666182 42.531136 
L 440.666182 42.49257 
L 439.666182 42.457157 
L 438.666182 42.399517 
L 437.666182 42.329131 
L 436.666182 42.277166 
L 435.666182 42.218077 
L 434.666182 42.129756 
L 433.666182 42.083611 
L 432.666182 42.0412 
L 431.666182 42.010708 
L 430.666182 41.984663 
L 429.666182 41.963463 
L 428.666182 41.909162 
L 427.666182 41.881224 
L 426.666182 41.8515 
L 425.666182 41.826105 
L 424.666182 41.814905 
L 423.666182 41.804781 
L 422.666182 41.804985 
L 421.666182 41.814495 
L 420.666182 41.826149 
L 419.666182 41.857178 
L 418.666182 41.868346 
L 417.666182 41.898463 
L 416.666182 41.95824 
L 415.666182 41.995432 
L 414.666182 42.034528 
L 413.666182 42.076968 
L 412.666182 42.109733 
L 411.666182 42.177159 
L 410.666182 42.216285 
L 409.666182 42.25896 
L 408.666182 42.32954 
L 407.666182 42.365931 
L 406.666182 42.424334 
L 405.666182 42.535287 
L 404.666182 42.605945 
L 403.666182 42.718885 
L 402.666182 42.764658 
L 401.666182 42.825941 
L 400.666182 42.874441 
L 399.666182 42.955263 
L 398.666182 43.073782 
L 397.666182 43.143993 
L 396.666182 43.227255 
L 395.666182 43.260397 
L 394.666182 43.311634 
L 393.666182 43.380033 
L 392.666182 43.446248 
L 391.666182 43.523165 
L 390.34593 43.550481 
" clip-path="url(#p7a4109aeaa)" style="fill: none; stroke: #2ca02c; stroke-opacity: 0.5; stroke-width: 0.2; stroke-linecap: square"/>
   <path d="M 446.666182 54.941986 
L 445.666182 54.91055 
L 444.666182 54.873609 
L 443.666182 54.775863 
L 442.666182 54.743341 
L 441.666182 54.669716 
L 440.666182 54.631151 
L 439.666182 54.595738 
L 438.666182 54.538098 
L 437.666182 54.467711 
L 436.666182 54.415747 
L 435.666182 54.356657 
L 434.666182 54.268337 
L 433.666182 54.222192 
L 432.666182 54.179781 
L 431.666182 54.149289 
L 430.666182 54.123244 
L 429.666182 54.102044 
L 428.666182 54.047742 
L 427.666182 54.019805 
L 426.666182 53.990081 
L 425.666182 53.964686 
L 424.666182 53.953486 
L 423.666182 53.943362 
L 422.666182 53.943566 
L 421.666182 53.953076 
L 420.666182 53.96473 
L 419.666182 53.995759 
L 418.666182 54.006927 
L 417.666182 54.037044 
L 416.666182 54.096821 
L 415.666182 54.134013 
L 414.666182 54.173109 
L 413.666182 54.215548 
L 412.666182 54.248314 
L 411.666182 54.31574 
L 410.666182 54.354866 
L 409.666182 54.39754 
L 408.666182 54.468121 
L 407.666182 54.504512 
L 406.666182 54.562915 
L 405.666182 54.673868 
L 404.666182 54.744526 
L 403.666182 54.857466 
L 402.666182 54.903239 
L 401.666182 54.964522 
L 400.666182 55.013021 
L 399.666182 55.093844 
L 398.666182 55.212363 
L 397.666182 55.282574 
L 396.666182 55.365836 
L 395.666182 55.398978 
L 394.666182 55.450215 
L 393.666182 55.518613 
L 392.666182 55.584829 
L 391.666182 55.661746 
L 390.34593 55.689061 
" clip-path="url(#p7a4109aeaa)" style="fill: none; stroke: #2ca02c; stroke-opacity: 0.5; stroke-width: 0.2; stroke-linecap: square"/>
   <g id="patch_3">
    <path d="M 72.103551 7.2 
L 72.103551 318.021875 
M 194.769099 7.2 
L 194.769099 318.021875 
" clip-path="url(#p7a4109aeaa)" style="fill: none; stroke: #ffffff; stroke-width: 3; stroke-linejoin: miter"/>
    <path d="M 72.103551 7.2 
L 72.103551 318.021875 
M 194.769099 7.2 
L 194.769099 318.021875 
" clip-path="url(#p7a4109aeaa)" style="fill: none; stroke: #1f77b4; stroke-linejoin: miter"/>
    <g id="PolyCollection_1">
     <path d="M 194.769099 7.2 
L 72.103551 7.2 
L 72.103551 318.021875 
L 194.769099 318.021875 
L 194.769099 318.021875 
L 194.769099 7.2 
z
" clip-path="url(#p7a4109aeaa)" style="fill: #1f77b4; fill-opacity: 0.5"/>
    </g>
    <g id="patch_4">
     <path d="M 262.150038 7.2 
L 262.150038 318.021875 
M 384.815587 7.2 
L 384.815587 318.021875 
" clip-path="url(#p7a4109aeaa)" style="fill: none; stroke: #ffffff; stroke-width: 3; stroke-linejoin: miter"/>
     <path d="M 262.150038 7.2 
L 262.150038 318.021875 
M 384.815587 7.2 
L 384.815587 318.021875 
" clip-path="url(#p7a4109aeaa)" style="fill: none; stroke: #ff7f0e; stroke-linejoin: miter"/>
     <g id="PolyCollection_2">
      <path d="M 384.815587 7.2 
L 262.150038 7.2 
L 262.150038 318.021875 
L 384.815587 318.021875 
L 384.815587 318.021875 
L 384.815587 7.2 
z
" clip-path="url(#p7a4109aeaa)" style="fill: #ff7f0e; fill-opacity: 0.5"/>
     </g>
     <g id="patch_5">
      <path d="M 452.196526 7.2 
L 452.196526 318.021875 
M 574.862074 7.2 
L 574.862074 318.021875 
" clip-path="url(#p7a4109aeaa)" style="fill: none; stroke: #ffffff; stroke-width: 3; stroke-linejoin: miter"/>
      <path d="M 452.196526 7.2 
L 452.196526 318.021875 
M 574.862074 7.2 
L 574.862074 318.021875 
" clip-path="url(#p7a4109aeaa)" style="fill: none; stroke: #2ca02c; stroke-linejoin: miter"/>
      <g id="PolyCollection_3">
       <path d="M 574.862074 7.2 
L 452.196526 7.2 
L 452.196526 318.021875 
L 574.862074 318.021875 
L 574.862074 318.021875 
L 574.862074 7.2 
z
" clip-path="url(#p7a4109aeaa)" style="fill: #2ca02c; fill-opacity: 0.5"/>
      </g>
      <g id="matplotlib.axis_1">
       <g id="xtick_1">
        <g id="line2d_1"/>
        <g id="text_1">
         <!-- d0 -->
         <g transform="translate(127.080856 329.120312) scale(0.1 -0.1)">
          <defs>
           <path id="DejaVuSans-64" d="M 2906 2969 
L 2906 4863 
L 3481 4863 
L 3481 0 
L 2906 0 
L 2906 525 
Q 2725 213 2448 61 
Q 2172 -91 1784 -91 
Q 1150 -91 751 415 
Q 353 922 353 1747 
Q 353 2572 751 3078 
Q 1150 3584 1784 3584 
Q 2172 3584 2448 3432 
Q 2725 3281 2906 2969 
z
M 947 1747 
Q 947 1113 1208 752 
Q 1469 391 1925 391 
Q 2381 391 2643 752 
Q 2906 1113 2906 1747 
Q 2906 2381 2643 2742 
Q 2381 3103 1925 3103 
Q 1469 3103 1208 2742 
Q 947 2381 947 1747 
z
" transform="scale(0.015625)"/>
           <path id="DejaVuSans-30" d="M 2034 4250 
Q 1547 4250 1301 3770 
Q 1056 3291 1056 2328 
Q 1056 1369 1301 889 
Q 1547 409 2034 409 
Q 2525 409 2770 889 
Q 3016 1369 3016 2328 
Q 3016 3291 2770 3770 
Q 2525 4250 2034 4250 
z
M 2034 4750 
Q 2819 4750 3233 4129 
Q 3647 3509 3647 2328 
Q 3647 1150 3233 529 
Q 2819 -91 2034 -91 
Q 1250 -91 836 529 
Q 422 1150 422 2328 
Q 422 3509 836 4129 
Q 1250 4750 2034 4750 
z
" transform="scale(0.015625)"/>
          </defs>
          <use xlink:href="#DejaVuSans-64"/>
          <use xlink:href="#DejaVuSans-30" x="63.476562"/>
         </g>
        </g>
       </g>
       <g id="xtick_2">
        <g id="line2d_2"/>
        <g id="text_2">
         <!-- d1 -->
         <g transform="translate(317.127344 329.120312) scale(0.1 -0.1)">
          <defs>
           <path id="DejaVuSans-31" d="M 794 531 
L 1825 531 
L 1825 4091 
L 703 3866 
L 703 4441 
L 1819 4666 
L 2450 4666 
L 2450 531 
L 3481 531 
L 3481 0 
L 794 0 
L 794 531 
z
" transform="scale(0.015625)"/>
          </defs>
          <use xlink:href="#DejaVuSans-64"/>
          <use xlink:href="#DejaVuSans-31" x="63.476562"/>
         </g>
        </g>
       </g>
       <g id="xtick_3">
        <g id="line2d_3"/>
        <g id="text_3">
         <!-- d2 -->
         <g transform="translate(507.173831 329.120312) scale(0.1 -0.1)">
          <defs>
           <path id="DejaVuSans-32" d="M 1228 531 
L 3431 531 
L 3431 0 
L 469 0 
L 469 531 
Q 828 903 1448 1529 
Q 2069 2156 2228 2338 
Q 2531 2678 2651 2914 
Q 2772 3150 2772 3378 
Q 2772 3750 2511 3984 
Q 2250 4219 1831 4219 
Q 1534 4219 1204 4116 
Q 875 4013 500 3803 
L 500 4441 
Q 881 4594 1212 4672 
Q 1544 4750 1819 4750 
Q 2544 4750 2975 4387 
Q 3406 4025 3406 3419 
Q 3406 3131 3298 2873 
Q 3191 2616 2906 2266 
Q 2828 2175 2409 1742 
Q 1991 1309 1228 531 
z
" transform="scale(0.015625)"/>
          </defs>
          <use xlink:href="#DejaVuSans-64"/>
          <use xlink:href="#DejaVuSans-32" x="63.476562"/>
         </g>
        </g>
       </g>
      </g>
      <g id="matplotlib.axis_2">
       <g id="ytick_1">
        <g id="line2d_4">
         <defs>
          <path id="m19f9e7da18" d="M 0 0 
L -3.5 0 
" style="stroke: #000000; stroke-width: 0.8"/>
         </defs>
         <g>
          <use xlink:href="#m19f9e7da18" x="46.965625" y="318.021875" style="stroke: #000000; stroke-width: 0.8"/>
         </g>
        </g>
        <g id="text_4">
         <!-- 0 -->
         <g transform="translate(33.603125 321.821094) scale(0.1 -0.1)">
          <use xlink:href="#DejaVuSans-30"/>
         </g>
        </g>
       </g>
       <g id="ytick_2">
        <g id="line2d_5">
         <g>
          <use xlink:href="#m19f9e7da18" x="46.965625" y="263.009154" style="stroke: #000000; stroke-width: 0.8"/>
         </g>
        </g>
        <g id="text_5">
         <!-- 20 -->
         <g transform="translate(27.240625 266.808373) scale(0.1 -0.1)">
          <use xlink:href="#DejaVuSans-32"/>
          <use xlink:href="#DejaVuSans-30" x="63.623047"/>
         </g>
        </g>
       </g>
       <g id="ytick_3">
        <g id="line2d_6">
         <g>
          <use xlink:href="#m19f9e7da18" x="46.965625" y="207.996433" style="stroke: #000000; stroke-width: 0.8"/>
         </g>
        </g>
        <g id="text_6">
         <!-- 40 -->
         <g transform="translate(27.240625 211.795651) scale(0.1 -0.1)">
          <defs>
           <path id="DejaVuSans-34" d="M 2419 4116 
L 825 1625 
L 2419 1625 
L 2419 4116 
z
M 2253 4666 
L 3047 4666 
L 3047 1625 
L 3713 1625 
L 3713 1100 
L 3047 1100 
L 3047 0 
L 2419 0 
L 2419 1100 
L 313 1100 
L 313 1709 
L 2253 4666 
z
" transform="scale(0.015625)"/>
          </defs>
          <use xlink:href="#DejaVuSans-34"/>
          <use xlink:href="#DejaVuSans-30" x="63.623047"/>
         </g>
        </g>
       </g>
       <g id="ytick_4">
        <g id="line2d_7">
         <g>
          <use xlink:href="#m19f9e7da18" x="46.965625" y="152.983711" style="stroke: #000000; stroke-width: 0.8"/>
         </g>
        </g>
        <g id="text_7">
         <!-- 60 -->
         <g transform="translate(27.240625 156.78293) scale(0.1 -0.1)">
          <defs>
           <path id="DejaVuSans-36" d="M 2113 2584 
Q 1688 2584 1439 2293 
Q 1191 2003 1191 1497 
Q 1191 994 1439 701 
Q 1688 409 2113 409 
Q 2538 409 2786 701 
Q 3034 994 3034 1497 
Q 3034 2003 2786 2293 
Q 2538 2584 2113 2584 
z
M 3366 4563 
L 3366 3988 
Q 3128 4100 2886 4159 
Q 2644 4219 2406 4219 
Q 1781 4219 1451 3797 
Q 1122 3375 1075 2522 
Q 1259 2794 1537 2939 
Q 1816 3084 2150 3084 
Q 2853 3084 3261 2657 
Q 3669 2231 3669 1497 
Q 3669 778 3244 343 
Q 2819 -91 2113 -91 
Q 1303 -91 875 529 
Q 447 1150 447 2328 
Q 447 3434 972 4092 
Q 1497 4750 2381 4750 
Q 2619 4750 2861 4703 
Q 3103 4656 3366 4563 
z
" transform="scale(0.015625)"/>
          </defs>
          <use xlink:href="#DejaVuSans-36"/>
          <use xlink:href="#DejaVuSans-30" x="63.623047"/>
         </g>
        </g>
       </g>
       <g id="ytick_5">
        <g id="line2d_8">
         <g>
          <use xlink:href="#m19f9e7da18" x="46.965625" y="97.97099" style="stroke: #000000; stroke-width: 0.8"/>
         </g>
        </g>
        <g id="text_8">
         <!-- 80 -->
         <g transform="translate(27.240625 101.770209) scale(0.1 -0.1)">
          <defs>
           <path id="DejaVuSans-38" d="M 2034 2216 
Q 1584 2216 1326 1975 
Q 1069 1734 1069 1313 
Q 1069 891 1326 650 
Q 1584 409 2034 409 
Q 2484 409 2743 651 
Q 3003 894 3003 1313 
Q 3003 1734 2745 1975 
Q 2488 2216 2034 2216 
z
M 1403 2484 
Q 997 2584 770 2862 
Q 544 3141 544 3541 
Q 544 4100 942 4425 
Q 1341 4750 2034 4750 
Q 2731 4750 3128 4425 
Q 3525 4100 3525 3541 
Q 3525 3141 3298 2862 
Q 3072 2584 2669 2484 
Q 3125 2378 3379 2068 
Q 3634 1759 3634 1313 
Q 3634 634 3220 271 
Q 2806 -91 2034 -91 
Q 1263 -91 848 271 
Q 434 634 434 1313 
Q 434 1759 690 2068 
Q 947 2378 1403 2484 
z
M 1172 3481 
Q 1172 3119 1398 2916 
Q 1625 2713 2034 2713 
Q 2441 2713 2670 2916 
Q 2900 3119 2900 3481 
Q 2900 3844 2670 4047 
Q 2441 4250 2034 4250 
Q 1625 4250 1398 4047 
Q 1172 3844 1172 3481 
z
" transform="scale(0.015625)"/>
          </defs>
          <use xlink:href="#DejaVuSans-38"/>
          <use xlink:href="#DejaVuSans-30" x="63.623047"/>
         </g>
        </g>
       </g>
       <g id="ytick_6">
        <g id="line2d_9">
         <g>
          <use xlink:href="#m19f9e7da18" x="46.965625" y="42.958269" style="stroke: #000000; stroke-width: 0.8"/>
         </g>
        </g>
        <g id="text_9">
         <!-- 100 -->
         <g transform="translate(20.878125 46.757488) scale(0.1 -0.1)">
          <use xlink:href="#DejaVuSans-31"/>
          <use xlink:href="#DejaVuSans-30" x="63.623047"/>
          <use xlink:href="#DejaVuSans-30" x="127.246094"/>
         </g>
        </g>
       </g>
       <g id="text_10">
        <!-- time ago (generations) -->
        <g transform="translate(14.798438 220.082031) rotate(-90) scale(0.1 -0.1)">
         <defs>
          <path id="DejaVuSans-74" d="M 1172 4494 
L 1172 3500 
L 2356 3500 
L 2356 3053 
L 1172 3053 
L 1172 1153 
Q 1172 725 1289 603 
Q 1406 481 1766 481 
L 2356 481 
L 2356 0 
L 1766 0 
Q 1100 0 847 248 
Q 594 497 594 1153 
L 594 3053 
L 172 3053 
L 172 3500 
L 594 3500 
L 594 4494 
L 1172 4494 
z
" transform="scale(0.015625)"/>
          <path id="DejaVuSans-69" d="M 603 3500 
L 1178 3500 
L 1178 0 
L 603 0 
L 603 3500 
z
M 603 4863 
L 1178 4863 
L 1178 4134 
L 603 4134 
L 603 4863 
z
" transform="scale(0.015625)"/>
          <path id="DejaVuSans-6d" d="M 3328 2828 
Q 3544 3216 3844 3400 
Q 4144 3584 4550 3584 
Q 5097 3584 5394 3201 
Q 5691 2819 5691 2113 
L 5691 0 
L 5113 0 
L 5113 2094 
Q 5113 2597 4934 2840 
Q 4756 3084 4391 3084 
Q 3944 3084 3684 2787 
Q 3425 2491 3425 1978 
L 3425 0 
L 2847 0 
L 2847 2094 
Q 2847 2600 2669 2842 
Q 2491 3084 2119 3084 
Q 1678 3084 1418 2786 
Q 1159 2488 1159 1978 
L 1159 0 
L 581 0 
L 581 3500 
L 1159 3500 
L 1159 2956 
Q 1356 3278 1631 3431 
Q 1906 3584 2284 3584 
Q 2666 3584 2933 3390 
Q 3200 3197 3328 2828 
z
" transform="scale(0.015625)"/>
          <path id="DejaVuSans-65" d="M 3597 1894 
L 3597 1613 
L 953 1613 
Q 991 1019 1311 708 
Q 1631 397 2203 397 
Q 2534 397 2845 478 
Q 3156 559 3463 722 
L 3463 178 
Q 3153 47 2828 -22 
Q 2503 -91 2169 -91 
Q 1331 -91 842 396 
Q 353 884 353 1716 
Q 353 2575 817 3079 
Q 1281 3584 2069 3584 
Q 2775 3584 3186 3129 
Q 3597 2675 3597 1894 
z
M 3022 2063 
Q 3016 2534 2758 2815 
Q 2500 3097 2075 3097 
Q 1594 3097 1305 2825 
Q 1016 2553 972 2059 
L 3022 2063 
z
" transform="scale(0.015625)"/>
          <path id="DejaVuSans-20" transform="scale(0.015625)"/>
          <path id="DejaVuSans-61" d="M 2194 1759 
Q 1497 1759 1228 1600 
Q 959 1441 959 1056 
Q 959 750 1161 570 
Q 1363 391 1709 391 
Q 2188 391 2477 730 
Q 2766 1069 2766 1631 
L 2766 1759 
L 2194 1759 
z
M 3341 1997 
L 3341 0 
L 2766 0 
L 2766 531 
Q 2569 213 2275 61 
Q 1981 -91 1556 -91 
Q 1019 -91 701 211 
Q 384 513 384 1019 
Q 384 1609 779 1909 
Q 1175 2209 1959 2209 
L 2766 2209 
L 2766 2266 
Q 2766 2663 2505 2880 
Q 2244 3097 1772 3097 
Q 1472 3097 1187 3025 
Q 903 2953 641 2809 
L 641 3341 
Q 956 3463 1253 3523 
Q 1550 3584 1831 3584 
Q 2591 3584 2966 3190 
Q 3341 2797 3341 1997 
z
" transform="scale(0.015625)"/>
          <path id="DejaVuSans-67" d="M 2906 1791 
Q 2906 2416 2648 2759 
Q 2391 3103 1925 3103 
Q 1463 3103 1205 2759 
Q 947 2416 947 1791 
Q 947 1169 1205 825 
Q 1463 481 1925 481 
Q 2391 481 2648 825 
Q 2906 1169 2906 1791 
z
M 3481 434 
Q 3481 -459 3084 -895 
Q 2688 -1331 1869 -1331 
Q 1566 -1331 1297 -1286 
Q 1028 -1241 775 -1147 
L 775 -588 
Q 1028 -725 1275 -790 
Q 1522 -856 1778 -856 
Q 2344 -856 2625 -561 
Q 2906 -266 2906 331 
L 2906 616 
Q 2728 306 2450 153 
Q 2172 0 1784 0 
Q 1141 0 747 490 
Q 353 981 353 1791 
Q 353 2603 747 3093 
Q 1141 3584 1784 3584 
Q 2172 3584 2450 3431 
Q 2728 3278 2906 2969 
L 2906 3500 
L 3481 3500 
L 3481 434 
z
" transform="scale(0.015625)"/>
          <path id="DejaVuSans-6f" d="M 1959 3097 
Q 1497 3097 1228 2736 
Q 959 2375 959 1747 
Q 959 1119 1226 758 
Q 1494 397 1959 397 
Q 2419 397 2687 759 
Q 2956 1122 2956 1747 
Q 2956 2369 2687 2733 
Q 2419 3097 1959 3097 
z
M 1959 3584 
Q 2709 3584 3137 3096 
Q 3566 2609 3566 1747 
Q 3566 888 3137 398 
Q 2709 -91 1959 -91 
Q 1206 -91 779 398 
Q 353 888 353 1747 
Q 353 2609 779 3096 
Q 1206 3584 1959 3584 
z
" transform="scale(0.015625)"/>
          <path id="DejaVuSans-28" d="M 1984 4856 
Q 1566 4138 1362 3434 
Q 1159 2731 1159 2009 
Q 1159 1288 1364 580 
Q 1569 -128 1984 -844 
L 1484 -844 
Q 1016 -109 783 600 
Q 550 1309 550 2009 
Q 550 2706 781 3412 
Q 1013 4119 1484 4856 
L 1984 4856 
z
" transform="scale(0.015625)"/>
          <path id="DejaVuSans-6e" d="M 3513 2113 
L 3513 0 
L 2938 0 
L 2938 2094 
Q 2938 2591 2744 2837 
Q 2550 3084 2163 3084 
Q 1697 3084 1428 2787 
Q 1159 2491 1159 1978 
L 1159 0 
L 581 0 
L 581 3500 
L 1159 3500 
L 1159 2956 
Q 1366 3272 1645 3428 
Q 1925 3584 2291 3584 
Q 2894 3584 3203 3211 
Q 3513 2838 3513 2113 
z
" transform="scale(0.015625)"/>
          <path id="DejaVuSans-72" d="M 2631 2963 
Q 2534 3019 2420 3045 
Q 2306 3072 2169 3072 
Q 1681 3072 1420 2755 
Q 1159 2438 1159 1844 
L 1159 0 
L 581 0 
L 581 3500 
L 1159 3500 
L 1159 2956 
Q 1341 3275 1631 3429 
Q 1922 3584 2338 3584 
Q 2397 3584 2469 3576 
Q 2541 3569 2628 3553 
L 2631 2963 
z
" transform="scale(0.015625)"/>
          <path id="DejaVuSans-73" d="M 2834 3397 
L 2834 2853 
Q 2591 2978 2328 3040 
Q 2066 3103 1784 3103 
Q 1356 3103 1142 2972 
Q 928 2841 928 2578 
Q 928 2378 1081 2264 
Q 1234 2150 1697 2047 
L 1894 2003 
Q 2506 1872 2764 1633 
Q 3022 1394 3022 966 
Q 3022 478 2636 193 
Q 2250 -91 1575 -91 
Q 1294 -91 989 -36 
Q 684 19 347 128 
L 347 722 
Q 666 556 975 473 
Q 1284 391 1588 391 
Q 1994 391 2212 530 
Q 2431 669 2431 922 
Q 2431 1156 2273 1281 
Q 2116 1406 1581 1522 
L 1381 1569 
Q 847 1681 609 1914 
Q 372 2147 372 2553 
Q 372 3047 722 3315 
Q 1072 3584 1716 3584 
Q 2034 3584 2315 3537 
Q 2597 3491 2834 3397 
z
" transform="scale(0.015625)"/>
          <path id="DejaVuSans-29" d="M 513 4856 
L 1013 4856 
Q 1481 4119 1714 3412 
Q 1947 2706 1947 2009 
Q 1947 1309 1714 600 
Q 1481 -109 1013 -844 
L 513 -844 
Q 928 -128 1133 580 
Q 1338 1288 1338 2009 
Q 1338 2731 1133 3434 
Q 928 4138 513 4856 
z
" transform="scale(0.015625)"/>
         </defs>
         <use xlink:href="#DejaVuSans-74"/>
         <use xlink:href="#DejaVuSans-69" x="39.208984"/>
         <use xlink:href="#DejaVuSans-6d" x="66.992188"/>
         <use xlink:href="#DejaVuSans-65" x="164.404297"/>
         <use xlink:href="#DejaVuSans-20" x="225.927734"/>
         <use xlink:href="#DejaVuSans-61" x="257.714844"/>
         <use xlink:href="#DejaVuSans-67" x="318.994141"/>
         <use xlink:href="#DejaVuSans-6f" x="382.470703"/>
         <use xlink:href="#DejaVuSans-20" x="443.652344"/>
         <use xlink:href="#DejaVuSans-28" x="475.439453"/>
         <use xlink:href="#DejaVuSans-67" x="514.453125"/>
         <use xlink:href="#DejaVuSans-65" x="577.929688"/>
         <use xlink:href="#DejaVuSans-6e" x="639.453125"/>
         <use xlink:href="#DejaVuSans-65" x="702.832031"/>
         <use xlink:href="#DejaVuSans-72" x="764.355469"/>
         <use xlink:href="#DejaVuSans-61" x="805.46875"/>
         <use xlink:href="#DejaVuSans-74" x="866.748047"/>
         <use xlink:href="#DejaVuSans-69" x="905.957031"/>
         <use xlink:href="#DejaVuSans-6f" x="933.740234"/>
         <use xlink:href="#DejaVuSans-6e" x="994.921875"/>
         <use xlink:href="#DejaVuSans-73" x="1058.300781"/>
         <use xlink:href="#DejaVuSans-29" x="1110.400391"/>
        </g>
       </g>
      </g>
      <path d="M 257.619695 32.487248 
L 255.619695 31.487248 
L 255.619695 33.487248 
z
" clip-path="url(#p7a4109aeaa)" style="fill: #1f77b4; fill-opacity: 0.5; stroke: #1f77b4; stroke-opacity: 0.5; stroke-linejoin: miter"/>
      <path d="M 257.619695 166.544585 
L 255.619695 165.544585 
L 255.619695 167.544585 
z
" clip-path="url(#p7a4109aeaa)" style="fill: #1f77b4; fill-opacity: 0.5; stroke: #1f77b4; stroke-opacity: 0.5; stroke-linejoin: miter"/>
      <path d="M 257.619695 242.786651 
L 255.619695 241.786651 
L 255.619695 243.786651 
z
" clip-path="url(#p7a4109aeaa)" style="fill: #1f77b4; fill-opacity: 0.5; stroke: #1f77b4; stroke-opacity: 0.5; stroke-linejoin: miter"/>
      <path d="M 257.619695 54.603248 
L 255.619695 53.603248 
L 255.619695 55.603248 
z
" clip-path="url(#p7a4109aeaa)" style="fill: #1f77b4; fill-opacity: 0.5; stroke: #1f77b4; stroke-opacity: 0.5; stroke-linejoin: miter"/>
      <path d="M 257.619695 211.280377 
L 255.619695 210.280377 
L 255.619695 212.280377 
z
" clip-path="url(#p7a4109aeaa)" style="fill: #1f77b4; fill-opacity: 0.5; stroke: #1f77b4; stroke-opacity: 0.5; stroke-linejoin: miter"/>
      <path d="M 257.619695 75.518301 
L 255.619695 74.518301 
L 255.619695 76.518301 
z
" clip-path="url(#p7a4109aeaa)" style="fill: #1f77b4; fill-opacity: 0.5; stroke: #1f77b4; stroke-opacity: 0.5; stroke-linejoin: miter"/>
      <path d="M 257.619695 174.982654 
L 255.619695 173.982654 
L 255.619695 175.982654 
z
" clip-path="url(#p7a4109aeaa)" style="fill: #1f77b4; fill-opacity: 0.5; stroke: #1f77b4; stroke-opacity: 0.5; stroke-linejoin: miter"/>
      <path d="M 257.619695 42.319455 
L 255.619695 41.319455 
L 255.619695 43.319455 
z
" clip-path="url(#p7a4109aeaa)" style="fill: #1f77b4; fill-opacity: 0.5; stroke: #1f77b4; stroke-opacity: 0.5; stroke-linejoin: miter"/>
      <path d="M 257.619695 312.23227 
L 255.619695 311.23227 
L 255.619695 313.23227 
z
" clip-path="url(#p7a4109aeaa)" style="fill: #1f77b4; fill-opacity: 0.5; stroke: #1f77b4; stroke-opacity: 0.5; stroke-linejoin: miter"/>
      <path d="M 257.619695 158.330839 
L 255.619695 157.330839 
L 255.619695 159.330839 
z
" clip-path="url(#p7a4109aeaa)" style="fill: #1f77b4; fill-opacity: 0.5; stroke: #1f77b4; stroke-opacity: 0.5; stroke-linejoin: miter"/>
      <path d="M 199.299443 277.667328 
L 201.299443 278.667328 
L 201.299443 276.667328 
z
" clip-path="url(#p7a4109aeaa)" style="fill: #ff7f0e; fill-opacity: 0.5; stroke: #ff7f0e; stroke-opacity: 0.5; stroke-linejoin: miter"/>
      <path d="M 199.299443 113.418997 
L 201.299443 114.418997 
L 201.299443 112.418997 
z
" clip-path="url(#p7a4109aeaa)" style="fill: #ff7f0e; fill-opacity: 0.5; stroke: #ff7f0e; stroke-opacity: 0.5; stroke-linejoin: miter"/>
      <path d="M 199.299443 83.588268 
L 201.299443 84.588268 
L 201.299443 82.588268 
z
" clip-path="url(#p7a4109aeaa)" style="fill: #ff7f0e; fill-opacity: 0.5; stroke: #ff7f0e; stroke-opacity: 0.5; stroke-linejoin: miter"/>
      <path d="M 199.299443 29.686897 
L 201.299443 30.686897 
L 201.299443 28.686897 
z
" clip-path="url(#p7a4109aeaa)" style="fill: #ff7f0e; fill-opacity: 0.5; stroke: #ff7f0e; stroke-opacity: 0.5; stroke-linejoin: miter"/>
      <path d="M 199.299443 46.87664 
L 201.299443 47.87664 
L 201.299443 45.87664 
z
" clip-path="url(#p7a4109aeaa)" style="fill: #ff7f0e; fill-opacity: 0.5; stroke: #ff7f0e; stroke-opacity: 0.5; stroke-linejoin: miter"/>
      <path d="M 199.299443 305.684407 
L 201.299443 306.684407 
L 201.299443 304.684407 
z
" clip-path="url(#p7a4109aeaa)" style="fill: #ff7f0e; fill-opacity: 0.5; stroke: #ff7f0e; stroke-opacity: 0.5; stroke-linejoin: miter"/>
      <path d="M 199.299443 236.154296 
L 201.299443 237.154296 
L 201.299443 235.154296 
z
" clip-path="url(#p7a4109aeaa)" style="fill: #ff7f0e; fill-opacity: 0.5; stroke: #ff7f0e; stroke-opacity: 0.5; stroke-linejoin: miter"/>
      <path d="M 199.299443 148.963877 
L 201.299443 149.963877 
L 201.299443 147.963877 
z
" clip-path="url(#p7a4109aeaa)" style="fill: #ff7f0e; fill-opacity: 0.5; stroke: #ff7f0e; stroke-opacity: 0.5; stroke-linejoin: miter"/>
      <path d="M 199.299443 115.067089 
L 201.299443 116.067089 
L 201.299443 114.067089 
z
" clip-path="url(#p7a4109aeaa)" style="fill: #ff7f0e; fill-opacity: 0.5; stroke: #ff7f0e; stroke-opacity: 0.5; stroke-linejoin: miter"/>
      <path d="M 199.299443 280.105621 
L 201.299443 281.105621 
L 201.299443 279.105621 
z
" clip-path="url(#p7a4109aeaa)" style="fill: #ff7f0e; fill-opacity: 0.5; stroke: #ff7f0e; stroke-opacity: 0.5; stroke-linejoin: miter"/>
      <path d="M 447.666182 62.433868 
L 445.666182 61.433868 
L 445.666182 63.433868 
z
" clip-path="url(#p7a4109aeaa)" style="fill: #ff7f0e; fill-opacity: 0.5; stroke: #ff7f0e; stroke-opacity: 0.5; stroke-linejoin: miter"/>
      <path d="M 447.666182 135.14705 
L 445.666182 134.14705 
L 445.666182 136.14705 
z
" clip-path="url(#p7a4109aeaa)" style="fill: #ff7f0e; fill-opacity: 0.5; stroke: #ff7f0e; stroke-opacity: 0.5; stroke-linejoin: miter"/>
      <path d="M 447.666182 305.543012 
L 445.666182 304.543012 
L 445.666182 306.543012 
z
" clip-path="url(#p7a4109aeaa)" style="fill: #ff7f0e; fill-opacity: 0.5; stroke: #ff7f0e; stroke-opacity: 0.5; stroke-linejoin: miter"/>
      <path d="M 447.666182 295.049095 
L 445.666182 294.049095 
L 445.666182 296.049095 
z
" clip-path="url(#p7a4109aeaa)" style="fill: #ff7f0e; fill-opacity: 0.5; stroke: #ff7f0e; stroke-opacity: 0.5; stroke-linejoin: miter"/>
      <path d="M 447.666182 137.97554 
L 445.666182 136.97554 
L 445.666182 138.97554 
z
" clip-path="url(#p7a4109aeaa)" style="fill: #ff7f0e; fill-opacity: 0.5; stroke: #ff7f0e; stroke-opacity: 0.5; stroke-linejoin: miter"/>
      <path d="M 447.666182 225.857356 
L 445.666182 224.857356 
L 445.666182 226.857356 
z
" clip-path="url(#p7a4109aeaa)" style="fill: #ff7f0e; fill-opacity: 0.5; stroke: #ff7f0e; stroke-opacity: 0.5; stroke-linejoin: miter"/>
      <path d="M 447.666182 33.250156 
L 445.666182 32.250156 
L 445.666182 34.250156 
z
" clip-path="url(#p7a4109aeaa)" style="fill: #ff7f0e; fill-opacity: 0.5; stroke: #ff7f0e; stroke-opacity: 0.5; stroke-linejoin: miter"/>
      <path d="M 447.666182 299.535364 
L 445.666182 298.535364 
L 445.666182 300.535364 
z
" clip-path="url(#p7a4109aeaa)" style="fill: #ff7f0e; fill-opacity: 0.5; stroke: #ff7f0e; stroke-opacity: 0.5; stroke-linejoin: miter"/>
      <path d="M 447.666182 136.788505 
L 445.666182 135.788505 
L 445.666182 137.788505 
z
" clip-path="url(#p7a4109aeaa)" style="fill: #ff7f0e; fill-opacity: 0.5; stroke: #ff7f0e; stroke-opacity: 0.5; stroke-linejoin: miter"/>
      <path d="M 447.666182 299.312881 
L 445.666182 298.312881 
L 445.666182 300.312881 
z
" clip-path="url(#p7a4109aeaa)" style="fill: #ff7f0e; fill-opacity: 0.5; stroke: #ff7f0e; stroke-opacity: 0.5; stroke-linejoin: miter"/>
      <path d="M 389.34593 13.407121 
L 391.34593 14.407121 
L 391.34593 12.407121 
z
" clip-path="url(#p7a4109aeaa)" style="fill: #2ca02c; fill-opacity: 0.5; stroke: #2ca02c; stroke-opacity: 0.5; stroke-linejoin: miter"/>
      <path d="M 389.34593 185.591776 
L 391.34593 186.591776 
L 391.34593 184.591776 
z
" clip-path="url(#p7a4109aeaa)" style="fill: #2ca02c; fill-opacity: 0.5; stroke: #2ca02c; stroke-opacity: 0.5; stroke-linejoin: miter"/>
      <path d="M 389.34593 313.581042 
L 391.34593 314.581042 
L 391.34593 312.581042 
z
" clip-path="url(#p7a4109aeaa)" style="fill: #2ca02c; fill-opacity: 0.5; stroke: #2ca02c; stroke-opacity: 0.5; stroke-linejoin: miter"/>
      <path d="M 389.34593 284.821595 
L 391.34593 285.821595 
L 391.34593 283.821595 
z
" clip-path="url(#p7a4109aeaa)" style="fill: #2ca02c; fill-opacity: 0.5; stroke: #2ca02c; stroke-opacity: 0.5; stroke-linejoin: miter"/>
      <path d="M 389.34593 58.705973 
L 391.34593 59.705973 
L 391.34593 57.705973 
z
" clip-path="url(#p7a4109aeaa)" style="fill: #2ca02c; fill-opacity: 0.5; stroke: #2ca02c; stroke-opacity: 0.5; stroke-linejoin: miter"/>
      <path d="M 389.34593 170.974949 
L 391.34593 171.974949 
L 391.34593 169.974949 
z
" clip-path="url(#p7a4109aeaa)" style="fill: #2ca02c; fill-opacity: 0.5; stroke: #2ca02c; stroke-opacity: 0.5; stroke-linejoin: miter"/>
      <path d="M 389.34593 313.235697 
L 391.34593 314.235697 
L 391.34593 312.235697 
z
" clip-path="url(#p7a4109aeaa)" style="fill: #2ca02c; fill-opacity: 0.5; stroke: #2ca02c; stroke-opacity: 0.5; stroke-linejoin: miter"/>
      <path d="M 389.34593 78.802361 
L 391.34593 79.802361 
L 391.34593 77.802361 
z
" clip-path="url(#p7a4109aeaa)" style="fill: #2ca02c; fill-opacity: 0.5; stroke: #2ca02c; stroke-opacity: 0.5; stroke-linejoin: miter"/>
      <path d="M 389.34593 42.803405 
L 391.34593 43.803405 
L 391.34593 41.803405 
z
" clip-path="url(#p7a4109aeaa)" style="fill: #2ca02c; fill-opacity: 0.5; stroke: #2ca02c; stroke-opacity: 0.5; stroke-linejoin: miter"/>
      <path d="M 389.34593 54.941986 
L 391.34593 55.941986 
L 391.34593 53.941986 
z
" clip-path="url(#p7a4109aeaa)" style="fill: #2ca02c; fill-opacity: 0.5; stroke: #2ca02c; stroke-opacity: 0.5; stroke-linejoin: miter"/>
      <g id="patch_6">
       <path d="M 46.965625 318.021875 
L 46.965625 7.2 
" style="fill: none; stroke: #000000; stroke-width: 0.8; stroke-linejoin: miter; stroke-linecap: square"/>
      </g>
     </g>
    </g>
    <defs>
     <clipPath id="p7a4109aeaa">
      <rect x="46.965625" y="7.2" width="553.034375" height="310.821875"/>
     </clipPath>
    </defs>
   </g>
  </g>
 </g>
</svg>