<?xml version="1.0" encoding="utf-8" standalone="no"?>
<!DOCTYPE svg PUBLIC "-//W3C//DTD SVG 1.1//EN"
  "http://www.w3.org/Graphics/SVG/1.1/DTD/svg11.dtd">
<svg xmlns:xlink="http://www.w3.org/1999/xlink" width="607.2pt" height="338.4pt" viewBox="0 0 607.2 338.4" xmlns="http://www.w3.org/2000/svg" version="1.1">
 <metadata>
  <rdf:RDF xmlns:dc="http://purl.org/dc/elements/1.1/" xmlns:cc="http://creativecommons.org/ns#" xmlns:rdf="http://www.w3.org/1999/02/22-rdf-syntax-ns#">
   <cc:Work>
    <dc:type rdf:resource="http://purl.org/dc/dcmitype/StillImage"/>
    <dc:date>2026-02-23T09:05:54.024411</dc:date>
    <dc:format>image/svg+xml</dc:format>
    <dc:creator>
     <cc:Agent>
      <dc:title>Matplotlib v3.10.8, https://matplotlib.org/</dc:title>
     </cc:Agent>
    </dc:creator>
   </cc:Work>
  </rdf:RDF>
 </metadata>
 <defs>
  <style type="text/css">*{stroke-linejoin: round; stroke-linecap: butt}</style>
 </defs>
 <g id="figure_1">
  <g id="patch_1">
   <path d="M 0 338.4 
L 607.2 338.4 
L 607.2 0 
L 0 0 
z
" style="fill: #ffffff"/>
  </g>
  <g id="axes_1">
   <g id="patch_2">
    <path d="M 46.965625 318.021875 
L 600 318.021875 
L 600 22.318125 
L 46.965625 22.318125 
z
" style="fill: #ffffff"/>
   </g>
   <g id="line2d_1">
    <path d="M 200.299442 74.165724 
L 201.299442 74.19716 
L 202.299442 74.234101 
L 203.299442 74.331847 
L 204.299442 74.364369 
L 205.299442 74.437994 
L 206.299442 74.476559 
L 207.299442 74.511972 
L 208.299442 74.569612 
L 209.299442 74.639999 
L 210.299442 74.691963 
L 211.299442 74.751053 
L 212.299442 74.839373 
L 213.299442 74.885518 
L 214.299442 74.927929 
L 215.299442 74.958421 
L 216.299442 74.984466 
L 217.299442 75.005666 
L 218.299442 75.059968 
L 219.299442 75.087905 
L 220.299442 75.117629 
L 221.299442 75.143024 
L 222.299442 75.154224 
L 223.299442 75.164348 
L 224.299442 75.164144 
L 225.299442 75.154634 
L 226.299442 75.14298 
L 227.299442 75.111951 
L 228.299442 75.100783 
L 229.299442 75.070666 
L 230.299442 75.010889 
L 231.299442 74.973697 
L 232.299442 74.934601 
L 233.299442 74.892162 
L 234.299442 74.859396 
L 235.299442 74.79197 
L 236.299442 74.752844 
L 237.299442 74.71017 
L 238.299442 74.639589 
L 239.299442 74.603198 
L 240.299442 74.544795 
L 241.299442 74.433842 
L 242.299442 74.363184 
L 243.299442 74.250244 
L 244.299442 74.204471 
L 245.299442 74.143188 
L 246.299442 74.094689 
L 247.299442 74.013866 
L 248.299442 73.895347 
L 249.299442 73.825136 
L 250.299442 73.741874 
L 251.299442 73.708732 
L 252.299442 73.657495 
L 253.299442 73.589097 
L 254.299442 73.522881 
L 255.299442 73.445964 
L 256.619695 73.418649 
" clip-path="url(#p7e3324fb2e)" style="fill: none; stroke: #1f77b4; stroke-opacity: 0.5; stroke-width: 0.2; stroke-linecap: square"/>
   </g>
   <g id="line2d_2">
    <path d="M 200.299442 145.753936 
L 201.299442 145.785372 
L 202.299442 145.822313 
L 203.299442 145.920059 
L 204.299442 145.952581 
L 205.299442 146.026206 
L 206.299442 146.064771 
L 207.299442 146.100184 
L 208.299442 146.157824 
L 209.299442 146.22821 
L 210.299442 146.280175 
L 211.299442 146.339264 
L 212.299442 146.427585 
L 213.299442 146.47373 
L 214.299442 146.516141 
L 215.299442 146.546633 
L 216.299442 146.572678 
L 217.299442 146.593878 
L 218.299442 146.648179 
L 219.299442 146.676117 
L 220.299442 146.705841 
L 221.299442 146.731236 
L 222.299442 146.742436 
L 223.299442 146.75256 
L 224.299442 146.752356 
L 225.299442 146.742846 
L 226.299442 146.731192 
L 227.299442 146.700163 
L 228.299442 146.688995 
L 229.299442 146.658878 
L 230.299442 146.599101 
L 231.299442 146.561909 
L 232.299442 146.522813 
L 233.299442 146.480373 
L 234.299442 146.447608 
L 235.299442 146.380182 
L 236.299442 146.341056 
L 237.299442 146.298381 
L 238.299442 146.227801 
L 239.299442 146.19141 
L 240.299442 146.133007 
L 241.299442 146.022054 
L 242.299442 145.951396 
L 243.299442 145.838456 
L 244.299442 145.792683 
L 245.299442 145.7314 
L 246.299442 145.682901 
L 247.299442 145.602078 
L 248.299442 145.483559 
L 249.299442 145.413348 
L 250.299442 145.330086 
L 251.299442 145.296944 
L 252.299442 145.245707 
L 253.299442 145.177308 
L 254.299442 145.111093 
L 255.299442 145.034176 
L 256.619695 145.00686 
" clip-path="url(#p7e3324fb2e)" style="fill: none; stroke: #1f77b4; stroke-opacity: 0.5; stroke-width: 0.2; stroke-linecap: square"/>
   </g>
   <g id="line2d_3">
    <path d="M 200.299442 296.423266 
L 201.299442 296.454702 
L 202.299442 296.491643 
L 203.299442 296.589389 
L 204.299442 296.621911 
L 205.299442 296.695536 
L 206.299442 296.734101 
L 207.299442 296.769514 
L 208.299442 296.827154 
L 209.299442 296.89754 
L 210.299442 296.949505 
L 211.299442 297.008594 
L 212.299442 297.096915 
L 213.299442 297.14306 
L 214.299442 297.185471 
L 215.299442 297.215963 
L 216.299442 297.242008 
L 217.299442 297.263208 
L 218.299442 297.317509 
L 219.299442 297.345447 
L 220.299442 297.375171 
L 221.299442 297.400566 
L 222.299442 297.411766 
L 223.299442 297.42189 
L 224.299442 297.421686 
L 225.299442 297.412176 
L 226.299442 297.400522 
L 227.299442 297.369493 
L 228.299442 297.358325 
L 229.299442 297.328208 
L 230.299442 297.268431 
L 231.299442 297.231239 
L 232.299442 297.192143 
L 233.299442 297.149703 
L 234.299442 297.116938 
L 235.299442 297.049512 
L 236.299442 297.010386 
L 237.299442 296.967711 
L 238.299442 296.897131 
L 239.299442 296.86074 
L 240.299442 296.802337 
L 241.299442 296.691384 
L 242.299442 296.620726 
L 243.299442 296.507786 
L 244.299442 296.462013 
L 245.299442 296.40073 
L 246.299442 296.352231 
L 247.299442 296.271408 
L 248.299442 296.152889 
L 249.299442 296.082678 
L 250.299442 295.999416 
L 251.299442 295.966274 
L 252.299442 295.915037 
L 253.299442 295.846638 
L 254.299442 295.780423 
L 255.299442 295.703506 
L 256.619695 295.67619 
" clip-path="url(#p7e3324fb2e)" style="fill: none; stroke: #1f77b4; stroke-opacity: 0.5; stroke-width: 0.2; stroke-linecap: square"/>
   </g>
   <g id="line2d_4">
    <path d="M 200.299442 29.982827 
L 201.299442 30.014263 
L 202.299442 30.051204 
L 203.299442 30.14895 
L 204.299442 30.181472 
L 205.299442 30.255096 
L 206.299442 30.293662 
L 207.299442 30.329075 
L 208.299442 30.386715 
L 209.299442 30.457101 
L 210.299442 30.509065 
L 211.299442 30.568155 
L 212.299442 30.656476 
L 213.299442 30.70262 
L 214.299442 30.745031 
L 215.299442 30.775524 
L 216.299442 30.801569 
L 217.299442 30.822769 
L 218.299442 30.87707 
L 219.299442 30.905008 
L 220.299442 30.934732 
L 221.299442 30.960127 
L 222.299442 30.971327 
L 223.299442 30.981451 
L 224.299442 30.981247 
L 225.299442 30.971737 
L 226.299442 30.960083 
L 227.299442 30.929054 
L 228.299442 30.917886 
L 229.299442 30.887768 
L 230.299442 30.827991 
L 231.299442 30.7908 
L 232.299442 30.751704 
L 233.299442 30.709264 
L 234.299442 30.676499 
L 235.299442 30.609073 
L 236.299442 30.569947 
L 237.299442 30.527272 
L 238.299442 30.456692 
L 239.299442 30.420301 
L 240.299442 30.361898 
L 241.299442 30.250945 
L 242.299442 30.180287 
L 243.299442 30.067347 
L 244.299442 30.021574 
L 245.299442 29.960291 
L 246.299442 29.911791 
L 247.299442 29.830969 
L 248.299442 29.71245 
L 249.299442 29.642239 
L 250.299442 29.558977 
L 251.299442 29.525835 
L 252.299442 29.474598 
L 253.299442 29.406199 
L 254.299442 29.339984 
L 255.299442 29.263067 
L 256.619695 29.235751 
" clip-path="url(#p7e3324fb2e)" style="fill: none; stroke: #1f77b4; stroke-opacity: 0.5; stroke-width: 0.2; stroke-linecap: square"/>
   </g>
   <g id="line2d_5">
    <path d="M 200.299442 23.093705 
L 201.299442 23.125141 
L 202.299442 23.162082 
L 203.299442 23.259828 
L 204.299442 23.29235 
L 205.299442 23.365974 
L 206.299442 23.40454 
L 207.299442 23.439953 
L 208.299442 23.497593 
L 209.299442 23.567979 
L 210.299442 23.619943 
L 211.299442 23.679033 
L 212.299442 23.767354 
L 213.299442 23.813498 
L 214.299442 23.855909 
L 215.299442 23.886402 
L 216.299442 23.912447 
L 217.299442 23.933647 
L 218.299442 23.987948 
L 219.299442 24.015886 
L 220.299442 24.04561 
L 221.299442 24.071005 
L 222.299442 24.082205 
L 223.299442 24.092329 
L 224.299442 24.092125 
L 225.299442 24.082615 
L 226.299442 24.070961 
L 227.299442 24.039932 
L 228.299442 24.028764 
L 229.299442 23.998646 
L 230.299442 23.938869 
L 231.299442 23.901678 
L 232.299442 23.862582 
L 233.299442 23.820142 
L 234.299442 23.787377 
L 235.299442 23.719951 
L 236.299442 23.680825 
L 237.299442 23.63815 
L 238.299442 23.56757 
L 239.299442 23.531179 
L 240.299442 23.472776 
L 241.299442 23.361823 
L 242.299442 23.291165 
L 243.299442 23.178225 
L 244.299442 23.132452 
L 245.299442 23.071169 
L 246.299442 23.022669 
L 247.299442 22.941847 
L 248.299442 22.823328 
L 249.299442 22.753117 
L 250.299442 22.669855 
L 251.299442 22.636713 
L 252.299442 22.585476 
L 253.299442 22.517077 
L 254.299442 22.450862 
L 255.299442 22.373945 
L 256.619695 22.346629 
" clip-path="url(#p7e3324fb2e)" style="fill: none; stroke: #1f77b4; stroke-opacity: 0.5; stroke-width: 0.2; stroke-linecap: square"/>
   </g>
   <g id="line2d_6">
    <path d="M 200.299442 218.911822 
L 201.299442 218.943258 
L 202.299442 218.980199 
L 203.299442 219.077945 
L 204.299442 219.110467 
L 205.299442 219.184091 
L 206.299442 219.222657 
L 207.299442 219.25807 
L 208.299442 219.31571 
L 209.299442 219.386096 
L 210.299442 219.43806 
L 211.299442 219.49715 
L 212.299442 219.585471 
L 213.299442 219.631615 
L 214.299442 219.674026 
L 215.299442 219.704519 
L 216.299442 219.730564 
L 217.299442 219.751764 
L 218.299442 219.806065 
L 219.299442 219.834003 
L 220.299442 219.863727 
L 221.299442 219.889122 
L 222.299442 219.900322 
L 223.299442 219.910446 
L 224.299442 219.910242 
L 225.299442 219.900732 
L 226.299442 219.889078 
L 227.299442 219.858049 
L 228.299442 219.846881 
L 229.299442 219.816763 
L 230.299442 219.756987 
L 231.299442 219.719795 
L 232.299442 219.680699 
L 233.299442 219.638259 
L 234.299442 219.605494 
L 235.299442 219.538068 
L 236.299442 219.498942 
L 237.299442 219.456267 
L 238.299442 219.385687 
L 239.299442 219.349296 
L 240.299442 219.290893 
L 241.299442 219.17994 
L 242.299442 219.109282 
L 243.299442 218.996342 
L 244.299442 218.950569 
L 245.299442 218.889286 
L 246.299442 218.840786 
L 247.299442 218.759964 
L 248.299442 218.641445 
L 249.299442 218.571234 
L 250.299442 218.487972 
L 251.299442 218.45483 
L 252.299442 218.403593 
L 253.299442 218.335194 
L 254.299442 218.268979 
L 255.299442 218.192062 
L 256.619695 218.164746 
" clip-path="url(#p7e3324fb2e)" style="fill: none; stroke: #1f77b4; stroke-opacity: 0.5; stroke-width: 0.2; stroke-linecap: square"/>
   </g>
   <g id="line2d_7">
    <path d="M 200.299442 179.886518 
L 201.299442 179.917955 
L 202.299442 179.954895 
L 203.299442 180.052641 
L 204.299442 180.085163 
L 205.299442 180.158788 
L 206.299442 180.197353 
L 207.299442 180.232767 
L 208.299442 180.290406 
L 209.299442 180.360793 
L 210.299442 180.412757 
L 211.299442 180.471847 
L 212.299442 180.560168 
L 213.299442 180.606312 
L 214.299442 180.648723 
L 215.299442 180.679216 
L 216.299442 180.70526 
L 217.299442 180.726461 
L 218.299442 180.780762 
L 219.299442 180.808699 
L 220.299442 180.838423 
L 221.299442 180.863818 
L 222.299442 180.875018 
L 223.299442 180.885142 
L 224.299442 180.884938 
L 225.299442 180.875428 
L 226.299442 180.863775 
L 227.299442 180.832745 
L 228.299442 180.821577 
L 229.299442 180.79146 
L 230.299442 180.731683 
L 231.299442 180.694491 
L 232.299442 180.655395 
L 233.299442 180.612956 
L 234.299442 180.580191 
L 235.299442 180.512764 
L 236.299442 180.473638 
L 237.299442 180.430964 
L 238.299442 180.360383 
L 239.299442 180.323992 
L 240.299442 180.265589 
L 241.299442 180.154636 
L 242.299442 180.083978 
L 243.299442 179.971038 
L 244.299442 179.925265 
L 245.299442 179.863982 
L 246.299442 179.815483 
L 247.299442 179.73466 
L 248.299442 179.616141 
L 249.299442 179.545931 
L 250.299442 179.462668 
L 251.299442 179.429526 
L 252.299442 179.378289 
L 253.299442 179.309891 
L 254.299442 179.243675 
L 255.299442 179.166758 
L 256.619695 179.139443 
" clip-path="url(#p7e3324fb2e)" style="fill: none; stroke: #1f77b4; stroke-opacity: 0.5; stroke-width: 0.2; stroke-linecap: square"/>
   </g>
   <g id="line2d_8">
    <path d="M 200.299442 240.365839 
L 201.299442 240.397275 
L 202.299442 240.434216 
L 203.299442 240.531962 
L 204.299442 240.564484 
L 205.299442 240.638108 
L 206.299442 240.676674 
L 207.299442 240.712087 
L 208.299442 240.769727 
L 209.299442 240.840113 
L 210.299442 240.892077 
L 211.299442 240.951167 
L 212.299442 241.039488 
L 213.299442 241.085632 
L 214.299442 241.128043 
L 215.299442 241.158536 
L 216.299442 241.184581 
L 217.299442 241.205781 
L 218.299442 241.260082 
L 219.299442 241.28802 
L 220.299442 241.317744 
L 221.299442 241.343139 
L 222.299442 241.354339 
L 223.299442 241.364463 
L 224.299442 241.364259 
L 225.299442 241.354749 
L 226.299442 241.343095 
L 227.299442 241.312066 
L 228.299442 241.300898 
L 229.299442 241.27078 
L 230.299442 241.211003 
L 231.299442 241.173812 
L 232.299442 241.134716 
L 233.299442 241.092276 
L 234.299442 241.059511 
L 235.299442 240.992085 
L 236.299442 240.952959 
L 237.299442 240.910284 
L 238.299442 240.839704 
L 239.299442 240.803313 
L 240.299442 240.74491 
L 241.299442 240.633957 
L 242.299442 240.563299 
L 243.299442 240.450359 
L 244.299442 240.404586 
L 245.299442 240.343303 
L 246.299442 240.294803 
L 247.299442 240.213981 
L 248.299442 240.095462 
L 249.299442 240.025251 
L 250.299442 239.941989 
L 251.299442 239.908847 
L 252.299442 239.85761 
L 253.299442 239.789211 
L 254.299442 239.722996 
L 255.299442 239.646079 
L 256.619695 239.618763 
" clip-path="url(#p7e3324fb2e)" style="fill: none; stroke: #1f77b4; stroke-opacity: 0.5; stroke-width: 0.2; stroke-linecap: square"/>
   </g>
   <g id="line2d_9">
    <path d="M 200.299442 164.936652 
L 201.299442 164.968089 
L 202.299442 165.005029 
L 203.299442 165.102776 
L 204.299442 165.135297 
L 205.299442 165.208922 
L 206.299442 165.247488 
L 207.299442 165.282901 
L 208.299442 165.340541 
L 209.299442 165.410927 
L 210.299442 165.462891 
L 211.299442 165.521981 
L 212.299442 165.610302 
L 213.299442 165.656446 
L 214.299442 165.698857 
L 215.299442 165.72935 
L 216.299442 165.755395 
L 217.299442 165.776595 
L 218.299442 165.830896 
L 219.299442 165.858833 
L 220.299442 165.888557 
L 221.299442 165.913952 
L 222.299442 165.925153 
L 223.299442 165.935277 
L 224.299442 165.935072 
L 225.299442 165.925562 
L 226.299442 165.913909 
L 227.299442 165.88288 
L 228.299442 165.871712 
L 229.299442 165.841594 
L 230.299442 165.781817 
L 231.299442 165.744626 
L 232.299442 165.70553 
L 233.299442 165.66309 
L 234.299442 165.630325 
L 235.299442 165.562898 
L 236.299442 165.523772 
L 237.299442 165.481098 
L 238.299442 165.410517 
L 239.299442 165.374126 
L 240.299442 165.315723 
L 241.299442 165.204771 
L 242.299442 165.134112 
L 243.299442 165.021172 
L 244.299442 164.9754 
L 245.299442 164.914116 
L 246.299442 164.865617 
L 247.299442 164.784794 
L 248.299442 164.666275 
L 249.299442 164.596065 
L 250.299442 164.512802 
L 251.299442 164.479661 
L 252.299442 164.428423 
L 253.299442 164.360025 
L 254.299442 164.293809 
L 255.299442 164.216892 
L 256.619695 164.189577 
" clip-path="url(#p7e3324fb2e)" style="fill: none; stroke: #1f77b4; stroke-opacity: 0.5; stroke-width: 0.2; stroke-linecap: square"/>
   </g>
   <g id="line2d_10">
    <path d="M 200.299442 141.5793 
L 201.299442 141.610737 
L 202.299442 141.647677 
L 203.299442 141.745424 
L 204.299442 141.777945 
L 205.299442 141.85157 
L 206.299442 141.890136 
L 207.299442 141.925549 
L 208.299442 141.983189 
L 209.299442 142.053575 
L 210.299442 142.105539 
L 211.299442 142.164629 
L 212.299442 142.25295 
L 213.299442 142.299094 
L 214.299442 142.341505 
L 215.299442 142.371998 
L 216.299442 142.398043 
L 217.299442 142.419243 
L 218.299442 142.473544 
L 219.299442 142.501481 
L 220.299442 142.531205 
L 221.299442 142.5566 
L 222.299442 142.567801 
L 223.299442 142.577925 
L 224.299442 142.57772 
L 225.299442 142.56821 
L 226.299442 142.556557 
L 227.299442 142.525527 
L 228.299442 142.51436 
L 229.299442 142.484242 
L 230.299442 142.424465 
L 231.299442 142.387274 
L 232.299442 142.348177 
L 233.299442 142.305738 
L 234.299442 142.272973 
L 235.299442 142.205546 
L 236.299442 142.16642 
L 237.299442 142.123746 
L 238.299442 142.053165 
L 239.299442 142.016774 
L 240.299442 141.958371 
L 241.299442 141.847419 
L 242.299442 141.77676 
L 243.299442 141.66382 
L 244.299442 141.618048 
L 245.299442 141.556764 
L 246.299442 141.508265 
L 247.299442 141.427442 
L 248.299442 141.308923 
L 249.299442 141.238713 
L 250.299442 141.15545 
L 251.299442 141.122309 
L 252.299442 141.071071 
L 253.299442 141.002673 
L 254.299442 140.936457 
L 255.299442 140.85954 
L 256.619695 140.832225 
" clip-path="url(#p7e3324fb2e)" style="fill: none; stroke: #1f77b4; stroke-opacity: 0.5; stroke-width: 0.2; stroke-linecap: square"/>
   </g>
   <g id="line2d_11">
    <path d="M 256.619695 169.248882 
L 255.619695 169.217446 
L 254.619695 169.180505 
L 253.619695 169.082759 
L 252.619695 169.050237 
L 251.619695 168.976613 
L 250.619695 168.938047 
L 249.619695 168.902634 
L 248.619695 168.844994 
L 247.619695 168.774608 
L 246.619695 168.722643 
L 245.619695 168.663554 
L 244.619695 168.575233 
L 243.619695 168.529088 
L 242.619695 168.486678 
L 241.619695 168.456185 
L 240.619695 168.43014 
L 239.619695 168.40894 
L 238.619695 168.354639 
L 237.619695 168.326701 
L 236.619695 168.296977 
L 235.619695 168.271582 
L 234.619695 168.260382 
L 233.619695 168.250258 
L 232.619695 168.250462 
L 231.619695 168.259972 
L 230.619695 168.271626 
L 229.619695 168.302655 
L 228.619695 168.313823 
L 227.619695 168.343941 
L 226.619695 168.403717 
L 225.619695 168.440909 
L 224.619695 168.480005 
L 223.619695 168.522445 
L 222.619695 168.55521 
L 221.619695 168.622636 
L 220.619695 168.661762 
L 219.619695 168.704437 
L 218.619695 168.775017 
L 217.619695 168.811408 
L 216.619695 168.869811 
L 215.619695 168.980764 
L 214.619695 169.051422 
L 213.619695 169.164362 
L 212.619695 169.210135 
L 211.619695 169.271418 
L 210.619695 169.319918 
L 209.619695 169.40074 
L 208.619695 169.519259 
L 207.619695 169.58947 
L 206.619695 169.672732 
L 205.619695 169.705874 
L 204.619695 169.757111 
L 203.619695 169.82551 
L 202.619695 169.891725 
L 201.619695 169.968642 
L 200.299442 169.995958 
" clip-path="url(#p7e3324fb2e)" style="fill: none; stroke: #ff7f0e; stroke-opacity: 0.5; stroke-width: 0.2; stroke-linecap: square"/>
   </g>
   <g id="line2d_12">
    <path d="M 256.619695 72.222324 
L 255.619695 72.190888 
L 254.619695 72.153947 
L 253.619695 72.056201 
L 252.619695 72.023679 
L 251.619695 71.950054 
L 250.619695 71.911489 
L 249.619695 71.876076 
L 248.619695 71.818436 
L 247.619695 71.74805 
L 246.619695 71.696085 
L 245.619695 71.636996 
L 244.619695 71.548675 
L 243.619695 71.50253 
L 242.619695 71.460119 
L 241.619695 71.429627 
L 240.619695 71.403582 
L 239.619695 71.382382 
L 238.619695 71.328081 
L 237.619695 71.300143 
L 236.619695 71.270419 
L 235.619695 71.245024 
L 234.619695 71.233824 
L 233.619695 71.2237 
L 232.619695 71.223904 
L 231.619695 71.233414 
L 230.619695 71.245068 
L 229.619695 71.276097 
L 228.619695 71.287265 
L 227.619695 71.317382 
L 226.619695 71.377159 
L 225.619695 71.414351 
L 224.619695 71.453447 
L 223.619695 71.495887 
L 222.619695 71.528652 
L 221.619695 71.596078 
L 220.619695 71.635204 
L 219.619695 71.677879 
L 218.619695 71.748459 
L 217.619695 71.78485 
L 216.619695 71.843253 
L 215.619695 71.954206 
L 214.619695 72.024864 
L 213.619695 72.137804 
L 212.619695 72.183577 
L 211.619695 72.24486 
L 210.619695 72.293359 
L 209.619695 72.374182 
L 208.619695 72.492701 
L 207.619695 72.562912 
L 206.619695 72.646174 
L 205.619695 72.679316 
L 204.619695 72.730553 
L 203.619695 72.798952 
L 202.619695 72.865167 
L 201.619695 72.942084 
L 200.299442 72.969399 
" clip-path="url(#p7e3324fb2e)" style="fill: none; stroke: #ff7f0e; stroke-opacity: 0.5; stroke-width: 0.2; stroke-linecap: square"/>
   </g>
   <g id="line2d_13">
    <path d="M 256.619695 191.180825 
L 255.619695 191.149389 
L 254.619695 191.112449 
L 253.619695 191.014702 
L 252.619695 190.982181 
L 251.619695 190.908556 
L 250.619695 190.86999 
L 249.619695 190.834577 
L 248.619695 190.776937 
L 247.619695 190.706551 
L 246.619695 190.654587 
L 245.619695 190.595497 
L 244.619695 190.507176 
L 243.619695 190.461032 
L 242.619695 190.418621 
L 241.619695 190.388128 
L 240.619695 190.362083 
L 239.619695 190.340883 
L 238.619695 190.286582 
L 237.619695 190.258644 
L 236.619695 190.228921 
L 235.619695 190.203526 
L 234.619695 190.192325 
L 233.619695 190.182201 
L 232.619695 190.182406 
L 231.619695 190.191916 
L 230.619695 190.203569 
L 229.619695 190.234598 
L 228.619695 190.245766 
L 227.619695 190.275884 
L 226.619695 190.335661 
L 225.619695 190.372852 
L 224.619695 190.411948 
L 223.619695 190.454388 
L 222.619695 190.487153 
L 221.619695 190.55458 
L 220.619695 190.593706 
L 219.619695 190.63638 
L 218.619695 190.706961 
L 217.619695 190.743352 
L 216.619695 190.801755 
L 215.619695 190.912707 
L 214.619695 190.983366 
L 213.619695 191.096305 
L 212.619695 191.142078 
L 211.619695 191.203362 
L 210.619695 191.251861 
L 209.619695 191.332684 
L 208.619695 191.451202 
L 207.619695 191.521413 
L 206.619695 191.604676 
L 205.619695 191.637817 
L 204.619695 191.689055 
L 203.619695 191.757453 
L 202.619695 191.823668 
L 201.619695 191.900586 
L 200.299442 191.927901 
" clip-path="url(#p7e3324fb2e)" style="fill: none; stroke: #ff7f0e; stroke-opacity: 0.5; stroke-width: 0.2; stroke-linecap: square"/>
   </g>
   <g id="line2d_14">
    <path d="M 256.619695 120.389615 
L 255.619695 120.358179 
L 254.619695 120.321238 
L 253.619695 120.223492 
L 252.619695 120.19097 
L 251.619695 120.117345 
L 250.619695 120.07878 
L 249.619695 120.043367 
L 248.619695 119.985727 
L 247.619695 119.915341 
L 246.619695 119.863376 
L 245.619695 119.804287 
L 244.619695 119.715966 
L 243.619695 119.669821 
L 242.619695 119.62741 
L 241.619695 119.596918 
L 240.619695 119.570873 
L 239.619695 119.549673 
L 238.619695 119.495372 
L 237.619695 119.467434 
L 236.619695 119.43771 
L 235.619695 119.412315 
L 234.619695 119.401115 
L 233.619695 119.390991 
L 232.619695 119.391195 
L 231.619695 119.400705 
L 230.619695 119.412359 
L 229.619695 119.443388 
L 228.619695 119.454556 
L 227.619695 119.484673 
L 226.619695 119.54445 
L 225.619695 119.581642 
L 224.619695 119.620738 
L 223.619695 119.663178 
L 222.619695 119.695943 
L 221.619695 119.763369 
L 220.619695 119.802495 
L 219.619695 119.84517 
L 218.619695 119.91575 
L 217.619695 119.952141 
L 216.619695 120.010544 
L 215.619695 120.121497 
L 214.619695 120.192155 
L 213.619695 120.305095 
L 212.619695 120.350868 
L 211.619695 120.412151 
L 210.619695 120.46065 
L 209.619695 120.541473 
L 208.619695 120.659992 
L 207.619695 120.730203 
L 206.619695 120.813465 
L 205.619695 120.846607 
L 204.619695 120.897844 
L 203.619695 120.966243 
L 202.619695 121.032458 
L 201.619695 121.109375 
L 200.299442 121.136691 
" clip-path="url(#p7e3324fb2e)" style="fill: none; stroke: #ff7f0e; stroke-opacity: 0.5; stroke-width: 0.2; stroke-linecap: square"/>
   </g>
   <g id="line2d_15">
    <path d="M 256.619695 23.920475 
L 255.619695 23.889039 
L 254.619695 23.852098 
L 253.619695 23.754352 
L 252.619695 23.72183 
L 251.619695 23.648206 
L 250.619695 23.60964 
L 249.619695 23.574227 
L 248.619695 23.516587 
L 247.619695 23.446201 
L 246.619695 23.394237 
L 245.619695 23.335147 
L 244.619695 23.246826 
L 243.619695 23.200681 
L 242.619695 23.158271 
L 241.619695 23.127778 
L 240.619695 23.101733 
L 239.619695 23.080533 
L 238.619695 23.026232 
L 237.619695 22.998294 
L 236.619695 22.96857 
L 235.619695 22.943175 
L 234.619695 22.931975 
L 233.619695 22.921851 
L 232.619695 22.922055 
L 231.619695 22.931565 
L 230.619695 22.943219 
L 229.619695 22.974248 
L 228.619695 22.985416 
L 227.619695 23.015534 
L 226.619695 23.07531 
L 225.619695 23.112502 
L 224.619695 23.151598 
L 223.619695 23.194038 
L 222.619695 23.226803 
L 221.619695 23.294229 
L 220.619695 23.333355 
L 219.619695 23.37603 
L 218.619695 23.44661 
L 217.619695 23.483001 
L 216.619695 23.541404 
L 215.619695 23.652357 
L 214.619695 23.723015 
L 213.619695 23.835955 
L 212.619695 23.881728 
L 211.619695 23.943011 
L 210.619695 23.991511 
L 209.619695 24.072333 
L 208.619695 24.190852 
L 207.619695 24.261063 
L 206.619695 24.344325 
L 205.619695 24.377467 
L 204.619695 24.428704 
L 203.619695 24.497103 
L 202.619695 24.563318 
L 201.619695 24.640235 
L 200.299442 24.667551 
" clip-path="url(#p7e3324fb2e)" style="fill: none; stroke: #ff7f0e; stroke-opacity: 0.5; stroke-width: 0.2; stroke-linecap: square"/>
   </g>
   <g id="line2d_16">
    <path d="M 256.619695 270.384288 
L 255.619695 270.352852 
L 254.619695 270.315912 
L 253.619695 270.218165 
L 252.619695 270.185643 
L 251.619695 270.112019 
L 250.619695 270.073453 
L 249.619695 270.03804 
L 248.619695 269.9804 
L 247.619695 269.910014 
L 246.619695 269.85805 
L 245.619695 269.79896 
L 244.619695 269.710639 
L 243.619695 269.664495 
L 242.619695 269.622084 
L 241.619695 269.591591 
L 240.619695 269.565546 
L 239.619695 269.544346 
L 238.619695 269.490045 
L 237.619695 269.462107 
L 236.619695 269.432383 
L 235.619695 269.406989 
L 234.619695 269.395788 
L 233.619695 269.385664 
L 232.619695 269.385869 
L 231.619695 269.395378 
L 230.619695 269.407032 
L 229.619695 269.438061 
L 228.619695 269.449229 
L 227.619695 269.479347 
L 226.619695 269.539124 
L 225.619695 269.576315 
L 224.619695 269.615411 
L 223.619695 269.657851 
L 222.619695 269.690616 
L 221.619695 269.758042 
L 220.619695 269.797168 
L 219.619695 269.839843 
L 218.619695 269.910424 
L 217.619695 269.946814 
L 216.619695 270.005218 
L 215.619695 270.11617 
L 214.619695 270.186828 
L 213.619695 270.299768 
L 212.619695 270.345541 
L 211.619695 270.406824 
L 210.619695 270.455324 
L 209.619695 270.536146 
L 208.619695 270.654665 
L 207.619695 270.724876 
L 206.619695 270.808138 
L 205.619695 270.84128 
L 204.619695 270.892518 
L 203.619695 270.960916 
L 202.619695 271.027131 
L 201.619695 271.104048 
L 200.299442 271.131364 
" clip-path="url(#p7e3324fb2e)" style="fill: none; stroke: #ff7f0e; stroke-opacity: 0.5; stroke-width: 0.2; stroke-linecap: square"/>
   </g>
   <g id="line2d_17">
    <path d="M 256.619695 307.958042 
L 255.619695 307.926605 
L 254.619695 307.889665 
L 253.619695 307.791918 
L 252.619695 307.759397 
L 251.619695 307.685772 
L 250.619695 307.647207 
L 249.619695 307.611793 
L 248.619695 307.554154 
L 247.619695 307.483767 
L 246.619695 307.431803 
L 245.619695 307.372713 
L 244.619695 307.284392 
L 243.619695 307.238248 
L 242.619695 307.195837 
L 241.619695 307.165344 
L 240.619695 307.1393 
L 239.619695 307.118099 
L 238.619695 307.063798 
L 237.619695 307.035861 
L 236.619695 307.006137 
L 235.619695 306.980742 
L 234.619695 306.969542 
L 233.619695 306.959418 
L 232.619695 306.959622 
L 231.619695 306.969132 
L 230.619695 306.980785 
L 229.619695 307.011815 
L 228.619695 307.022983 
L 227.619695 307.0531 
L 226.619695 307.112877 
L 225.619695 307.150069 
L 224.619695 307.189165 
L 223.619695 307.231604 
L 222.619695 307.264369 
L 221.619695 307.331796 
L 220.619695 307.370922 
L 219.619695 307.413596 
L 218.619695 307.484177 
L 217.619695 307.520568 
L 216.619695 307.578971 
L 215.619695 307.689924 
L 214.619695 307.760582 
L 213.619695 307.873522 
L 212.619695 307.919295 
L 211.619695 307.980578 
L 210.619695 308.029077 
L 209.619695 308.1099 
L 208.619695 308.228419 
L 207.619695 308.298629 
L 206.619695 308.381892 
L 205.619695 308.415034 
L 204.619695 308.466271 
L 203.619695 308.534669 
L 202.619695 308.600885 
L 201.619695 308.677802 
L 200.299442 308.705117 
" clip-path="url(#p7e3324fb2e)" style="fill: none; stroke: #ff7f0e; stroke-opacity: 0.5; stroke-width: 0.2; stroke-linecap: square"/>
   </g>
   <g id="line2d_18">
    <path d="M 256.619695 171.851038 
L 255.619695 171.819601 
L 254.619695 171.782661 
L 253.619695 171.684915 
L 252.619695 171.652393 
L 251.619695 171.578768 
L 250.619695 171.540203 
L 249.619695 171.504789 
L 248.619695 171.44715 
L 247.619695 171.376763 
L 246.619695 171.324799 
L 245.619695 171.265709 
L 244.619695 171.177388 
L 243.619695 171.131244 
L 242.619695 171.088833 
L 241.619695 171.05834 
L 240.619695 171.032296 
L 239.619695 171.011095 
L 238.619695 170.956794 
L 237.619695 170.928857 
L 236.619695 170.899133 
L 235.619695 170.873738 
L 234.619695 170.862538 
L 233.619695 170.852414 
L 232.619695 170.852618 
L 231.619695 170.862128 
L 230.619695 170.873781 
L 229.619695 170.904811 
L 228.619695 170.915979 
L 227.619695 170.946096 
L 226.619695 171.005873 
L 225.619695 171.043065 
L 224.619695 171.082161 
L 223.619695 171.1246 
L 222.619695 171.157365 
L 221.619695 171.224792 
L 220.619695 171.263918 
L 219.619695 171.306592 
L 218.619695 171.377173 
L 217.619695 171.413564 
L 216.619695 171.471967 
L 215.619695 171.58292 
L 214.619695 171.653578 
L 213.619695 171.766518 
L 212.619695 171.812291 
L 211.619695 171.873574 
L 210.619695 171.922073 
L 209.619695 172.002896 
L 208.619695 172.121415 
L 207.619695 172.191625 
L 206.619695 172.274888 
L 205.619695 172.30803 
L 204.619695 172.359267 
L 203.619695 172.427665 
L 202.619695 172.493881 
L 201.619695 172.570798 
L 200.299442 172.598113 
" clip-path="url(#p7e3324fb2e)" style="fill: none; stroke: #ff7f0e; stroke-opacity: 0.5; stroke-width: 0.2; stroke-linecap: square"/>
   </g>
   <g id="line2d_19">
    <path d="M 256.619695 138.45988 
L 255.619695 138.428444 
L 254.619695 138.391504 
L 253.619695 138.293757 
L 252.619695 138.261235 
L 251.619695 138.187611 
L 250.619695 138.149045 
L 249.619695 138.113632 
L 248.619695 138.055992 
L 247.619695 137.985606 
L 246.619695 137.933642 
L 245.619695 137.874552 
L 244.619695 137.786231 
L 243.619695 137.740087 
L 242.619695 137.697676 
L 241.619695 137.667183 
L 240.619695 137.641138 
L 239.619695 137.619938 
L 238.619695 137.565637 
L 237.619695 137.537699 
L 236.619695 137.507975 
L 235.619695 137.482581 
L 234.619695 137.47138 
L 233.619695 137.461256 
L 232.619695 137.46146 
L 231.619695 137.47097 
L 230.619695 137.482624 
L 229.619695 137.513653 
L 228.619695 137.524821 
L 227.619695 137.554939 
L 226.619695 137.614716 
L 225.619695 137.651907 
L 224.619695 137.691003 
L 223.619695 137.733443 
L 222.619695 137.766208 
L 221.619695 137.833634 
L 220.619695 137.87276 
L 219.619695 137.915435 
L 218.619695 137.986015 
L 217.619695 138.022406 
L 216.619695 138.080809 
L 215.619695 138.191762 
L 214.619695 138.26242 
L 213.619695 138.37536 
L 212.619695 138.421133 
L 211.619695 138.482416 
L 210.619695 138.530916 
L 209.619695 138.611738 
L 208.619695 138.730257 
L 207.619695 138.800468 
L 206.619695 138.88373 
L 205.619695 138.916872 
L 204.619695 138.968109 
L 203.619695 139.036508 
L 202.619695 139.102723 
L 201.619695 139.17964 
L 200.299442 139.206956 
" clip-path="url(#p7e3324fb2e)" style="fill: none; stroke: #ff7f0e; stroke-opacity: 0.5; stroke-width: 0.2; stroke-linecap: square"/>
   </g>
   <g id="line2d_20">
    <path d="M 256.619695 68.044044 
L 255.619695 68.012607 
L 254.619695 67.975667 
L 253.619695 67.877921 
L 252.619695 67.845399 
L 251.619695 67.771774 
L 250.619695 67.733209 
L 249.619695 67.697796 
L 248.619695 67.640156 
L 247.619695 67.569769 
L 246.619695 67.517805 
L 245.619695 67.458715 
L 244.619695 67.370394 
L 243.619695 67.32425 
L 242.619695 67.281839 
L 241.619695 67.251347 
L 240.619695 67.225302 
L 239.619695 67.204101 
L 238.619695 67.1498 
L 237.619695 67.121863 
L 236.619695 67.092139 
L 235.619695 67.066744 
L 234.619695 67.055544 
L 233.619695 67.04542 
L 232.619695 67.045624 
L 231.619695 67.055134 
L 230.619695 67.066787 
L 229.619695 67.097817 
L 228.619695 67.108985 
L 227.619695 67.139102 
L 226.619695 67.198879 
L 225.619695 67.236071 
L 224.619695 67.275167 
L 223.619695 67.317606 
L 222.619695 67.350371 
L 221.619695 67.417798 
L 220.619695 67.456924 
L 219.619695 67.499598 
L 218.619695 67.570179 
L 217.619695 67.60657 
L 216.619695 67.664973 
L 215.619695 67.775926 
L 214.619695 67.846584 
L 213.619695 67.959524 
L 212.619695 68.005297 
L 211.619695 68.06658 
L 210.619695 68.115079 
L 209.619695 68.195902 
L 208.619695 68.314421 
L 207.619695 68.384631 
L 206.619695 68.467894 
L 205.619695 68.501036 
L 204.619695 68.552273 
L 203.619695 68.620671 
L 202.619695 68.686887 
L 201.619695 68.763804 
L 200.299442 68.791119 
" clip-path="url(#p7e3324fb2e)" style="fill: none; stroke: #ff7f0e; stroke-opacity: 0.5; stroke-width: 0.2; stroke-linecap: square"/>
   </g>
   <g id="line2d_21">
    <path d="M 390.34593 101.956042 
L 391.34593 101.987478 
L 392.34593 102.024419 
L 393.34593 102.122165 
L 394.34593 102.154687 
L 395.34593 102.228312 
L 396.34593 102.266877 
L 397.34593 102.30229 
L 398.34593 102.35993 
L 399.34593 102.430317 
L 400.34593 102.482281 
L 401.34593 102.541371 
L 402.34593 102.629691 
L 403.34593 102.675836 
L 404.34593 102.718247 
L 405.34593 102.748739 
L 406.34593 102.774784 
L 407.34593 102.795984 
L 408.34593 102.850286 
L 409.34593 102.878223 
L 410.34593 102.907947 
L 411.34593 102.933342 
L 412.34593 102.944542 
L 413.34593 102.954666 
L 414.34593 102.954462 
L 415.34593 102.944952 
L 416.34593 102.933298 
L 417.34593 102.902269 
L 418.34593 102.891101 
L 419.34593 102.860984 
L 420.34593 102.801207 
L 421.34593 102.764015 
L 422.34593 102.724919 
L 423.34593 102.68248 
L 424.34593 102.649714 
L 425.34593 102.582288 
L 426.34593 102.543162 
L 427.34593 102.500488 
L 428.34593 102.429907 
L 429.34593 102.393516 
L 430.34593 102.335113 
L 431.34593 102.22416 
L 432.34593 102.153502 
L 433.34593 102.040562 
L 434.34593 101.994789 
L 435.34593 101.933506 
L 436.34593 101.885007 
L 437.34593 101.804184 
L 438.34593 101.685665 
L 439.34593 101.615454 
L 440.34593 101.532192 
L 441.34593 101.49905 
L 442.34593 101.447813 
L 443.34593 101.379415 
L 444.34593 101.313199 
L 445.34593 101.236282 
L 446.666183 101.208967 
" clip-path="url(#p7e3324fb2e)" style="fill: none; stroke: #ff7f0e; stroke-opacity: 0.5; stroke-width: 0.2; stroke-linecap: square"/>
   </g>
   <g id="line2d_22">
    <path d="M 390.34593 193.30114 
L 391.34593 193.332576 
L 392.34593 193.369516 
L 393.34593 193.467263 
L 394.34593 193.499784 
L 395.34593 193.573409 
L 396.34593 193.611975 
L 397.34593 193.647388 
L 398.34593 193.705028 
L 399.34593 193.775414 
L 400.34593 193.827378 
L 401.34593 193.886468 
L 402.34593 193.974789 
L 403.34593 194.020933 
L 404.34593 194.063344 
L 405.34593 194.093837 
L 406.34593 194.119882 
L 407.34593 194.141082 
L 408.34593 194.195383 
L 409.34593 194.223321 
L 410.34593 194.253045 
L 411.34593 194.278439 
L 412.34593 194.28964 
L 413.34593 194.299764 
L 414.34593 194.299559 
L 415.34593 194.290049 
L 416.34593 194.278396 
L 417.34593 194.247367 
L 418.34593 194.236199 
L 419.34593 194.206081 
L 420.34593 194.146304 
L 421.34593 194.109113 
L 422.34593 194.070017 
L 423.34593 194.027577 
L 424.34593 193.994812 
L 425.34593 193.927385 
L 426.34593 193.888259 
L 427.34593 193.845585 
L 428.34593 193.775004 
L 429.34593 193.738613 
L 430.34593 193.68021 
L 431.34593 193.569258 
L 432.34593 193.498599 
L 433.34593 193.38566 
L 434.34593 193.339887 
L 435.34593 193.278603 
L 436.34593 193.230104 
L 437.34593 193.149281 
L 438.34593 193.030763 
L 439.34593 192.960552 
L 440.34593 192.877289 
L 441.34593 192.844148 
L 442.34593 192.79291 
L 443.34593 192.724512 
L 444.34593 192.658297 
L 445.34593 192.581379 
L 446.666183 192.554064 
" clip-path="url(#p7e3324fb2e)" style="fill: none; stroke: #ff7f0e; stroke-opacity: 0.5; stroke-width: 0.2; stroke-linecap: square"/>
   </g>
   <g id="line2d_23">
    <path d="M 390.34593 47.762502 
L 391.34593 47.793939 
L 392.34593 47.830879 
L 393.34593 47.928626 
L 394.34593 47.961147 
L 395.34593 48.034772 
L 396.34593 48.073338 
L 397.34593 48.108751 
L 398.34593 48.166391 
L 399.34593 48.236777 
L 400.34593 48.288741 
L 401.34593 48.347831 
L 402.34593 48.436152 
L 403.34593 48.482296 
L 404.34593 48.524707 
L 405.34593 48.5552 
L 406.34593 48.581245 
L 407.34593 48.602445 
L 408.34593 48.656746 
L 409.34593 48.684683 
L 410.34593 48.714407 
L 411.34593 48.739802 
L 412.34593 48.751003 
L 413.34593 48.761127 
L 414.34593 48.760922 
L 415.34593 48.751412 
L 416.34593 48.739759 
L 417.34593 48.70873 
L 418.34593 48.697562 
L 419.34593 48.667444 
L 420.34593 48.607667 
L 421.34593 48.570476 
L 422.34593 48.53138 
L 423.34593 48.48894 
L 424.34593 48.456175 
L 425.34593 48.388748 
L 426.34593 48.349622 
L 427.34593 48.306948 
L 428.34593 48.236367 
L 429.34593 48.199976 
L 430.34593 48.141573 
L 431.34593 48.030621 
L 432.34593 47.959962 
L 433.34593 47.847022 
L 434.34593 47.80125 
L 435.34593 47.739966 
L 436.34593 47.691467 
L 437.34593 47.610644 
L 438.34593 47.492125 
L 439.34593 47.421915 
L 440.34593 47.338652 
L 441.34593 47.305511 
L 442.34593 47.254273 
L 443.34593 47.185875 
L 444.34593 47.119659 
L 445.34593 47.042742 
L 446.666183 47.015427 
" clip-path="url(#p7e3324fb2e)" style="fill: none; stroke: #ff7f0e; stroke-opacity: 0.5; stroke-width: 0.2; stroke-linecap: square"/>
   </g>
   <g id="line2d_24">
    <path d="M 390.34593 104.021837 
L 391.34593 104.053273 
L 392.34593 104.090213 
L 393.34593 104.18796 
L 394.34593 104.220482 
L 395.34593 104.294106 
L 396.34593 104.332672 
L 397.34593 104.368085 
L 398.34593 104.425725 
L 399.34593 104.496111 
L 400.34593 104.548075 
L 401.34593 104.607165 
L 402.34593 104.695486 
L 403.34593 104.74163 
L 404.34593 104.784041 
L 405.34593 104.814534 
L 406.34593 104.840579 
L 407.34593 104.861779 
L 408.34593 104.91608 
L 409.34593 104.944018 
L 410.34593 104.973742 
L 411.34593 104.999136 
L 412.34593 105.010337 
L 413.34593 105.020461 
L 414.34593 105.020256 
L 415.34593 105.010747 
L 416.34593 104.999093 
L 417.34593 104.968064 
L 418.34593 104.956896 
L 419.34593 104.926778 
L 420.34593 104.867001 
L 421.34593 104.82981 
L 422.34593 104.790714 
L 423.34593 104.748274 
L 424.34593 104.715509 
L 425.34593 104.648083 
L 426.34593 104.608957 
L 427.34593 104.566282 
L 428.34593 104.495702 
L 429.34593 104.459311 
L 430.34593 104.400907 
L 431.34593 104.289955 
L 432.34593 104.219297 
L 433.34593 104.106357 
L 434.34593 104.060584 
L 435.34593 103.999301 
L 436.34593 103.950801 
L 437.34593 103.869979 
L 438.34593 103.75146 
L 439.34593 103.681249 
L 440.34593 103.597987 
L 441.34593 103.564845 
L 442.34593 103.513608 
L 443.34593 103.445209 
L 444.34593 103.378994 
L 445.34593 103.302077 
L 446.666183 103.274761 
" clip-path="url(#p7e3324fb2e)" style="fill: none; stroke: #ff7f0e; stroke-opacity: 0.5; stroke-width: 0.2; stroke-linecap: square"/>
   </g>
   <g id="line2d_25">
    <path d="M 390.34593 141.693554 
L 391.34593 141.724991 
L 392.34593 141.761931 
L 393.34593 141.859677 
L 394.34593 141.892199 
L 395.34593 141.965824 
L 396.34593 142.004389 
L 397.34593 142.039802 
L 398.34593 142.097442 
L 399.34593 142.167829 
L 400.34593 142.219793 
L 401.34593 142.278883 
L 402.34593 142.367204 
L 403.34593 142.413348 
L 404.34593 142.455759 
L 405.34593 142.486251 
L 406.34593 142.512296 
L 407.34593 142.533496 
L 408.34593 142.587798 
L 409.34593 142.615735 
L 410.34593 142.645459 
L 411.34593 142.670854 
L 412.34593 142.682054 
L 413.34593 142.692178 
L 414.34593 142.691974 
L 415.34593 142.682464 
L 416.34593 142.67081 
L 417.34593 142.639781 
L 418.34593 142.628613 
L 419.34593 142.598496 
L 420.34593 142.538719 
L 421.34593 142.501527 
L 422.34593 142.462431 
L 423.34593 142.419992 
L 424.34593 142.387226 
L 425.34593 142.3198 
L 426.34593 142.280674 
L 427.34593 142.238 
L 428.34593 142.167419 
L 429.34593 142.131028 
L 430.34593 142.072625 
L 431.34593 141.961672 
L 432.34593 141.891014 
L 433.34593 141.778074 
L 434.34593 141.732301 
L 435.34593 141.671018 
L 436.34593 141.622519 
L 437.34593 141.541696 
L 438.34593 141.423177 
L 439.34593 141.352966 
L 440.34593 141.269704 
L 441.34593 141.236562 
L 442.34593 141.185325 
L 443.34593 141.116927 
L 444.34593 141.050711 
L 445.34593 140.973794 
L 446.666183 140.946479 
" clip-path="url(#p7e3324fb2e)" style="fill: none; stroke: #ff7f0e; stroke-opacity: 0.5; stroke-width: 0.2; stroke-linecap: square"/>
   </g>
   <g id="line2d_26">
    <path d="M 390.34593 96.857217 
L 391.34593 96.888654 
L 392.34593 96.925594 
L 393.34593 97.023341 
L 394.34593 97.055862 
L 395.34593 97.129487 
L 396.34593 97.168053 
L 397.34593 97.203466 
L 398.34593 97.261106 
L 399.34593 97.331492 
L 400.34593 97.383456 
L 401.34593 97.442546 
L 402.34593 97.530867 
L 403.34593 97.577011 
L 404.34593 97.619422 
L 405.34593 97.649915 
L 406.34593 97.67596 
L 407.34593 97.69716 
L 408.34593 97.751461 
L 409.34593 97.779398 
L 410.34593 97.809122 
L 411.34593 97.834517 
L 412.34593 97.845718 
L 413.34593 97.855842 
L 414.34593 97.855637 
L 415.34593 97.846127 
L 416.34593 97.834474 
L 417.34593 97.803445 
L 418.34593 97.792277 
L 419.34593 97.762159 
L 420.34593 97.702382 
L 421.34593 97.665191 
L 422.34593 97.626095 
L 423.34593 97.583655 
L 424.34593 97.55089 
L 425.34593 97.483463 
L 426.34593 97.444337 
L 427.34593 97.401663 
L 428.34593 97.331082 
L 429.34593 97.294691 
L 430.34593 97.236288 
L 431.34593 97.125336 
L 432.34593 97.054677 
L 433.34593 96.941738 
L 434.34593 96.895965 
L 435.34593 96.834681 
L 436.34593 96.786182 
L 437.34593 96.705359 
L 438.34593 96.58684 
L 439.34593 96.51663 
L 440.34593 96.433367 
L 441.34593 96.400226 
L 442.34593 96.348988 
L 443.34593 96.28059 
L 444.34593 96.214374 
L 445.34593 96.137457 
L 446.666183 96.110142 
" clip-path="url(#p7e3324fb2e)" style="fill: none; stroke: #ff7f0e; stroke-opacity: 0.5; stroke-width: 0.2; stroke-linecap: square"/>
   </g>
   <g id="line2d_27">
    <path d="M 390.34593 53.511793 
L 391.34593 53.54323 
L 392.34593 53.58017 
L 393.34593 53.677916 
L 394.34593 53.710438 
L 395.34593 53.784063 
L 396.34593 53.822628 
L 397.34593 53.858042 
L 398.34593 53.915681 
L 399.34593 53.986068 
L 400.34593 54.038032 
L 401.34593 54.097122 
L 402.34593 54.185443 
L 403.34593 54.231587 
L 404.34593 54.273998 
L 405.34593 54.30449 
L 406.34593 54.330535 
L 407.34593 54.351736 
L 408.34593 54.406037 
L 409.34593 54.433974 
L 410.34593 54.463698 
L 411.34593 54.489093 
L 412.34593 54.500293 
L 413.34593 54.510417 
L 414.34593 54.510213 
L 415.34593 54.500703 
L 416.34593 54.48905 
L 417.34593 54.45802 
L 418.34593 54.446852 
L 419.34593 54.416735 
L 420.34593 54.356958 
L 421.34593 54.319766 
L 422.34593 54.28067 
L 423.34593 54.238231 
L 424.34593 54.205466 
L 425.34593 54.138039 
L 426.34593 54.098913 
L 427.34593 54.056239 
L 428.34593 53.985658 
L 429.34593 53.949267 
L 430.34593 53.890864 
L 431.34593 53.779911 
L 432.34593 53.709253 
L 433.34593 53.596313 
L 434.34593 53.55054 
L 435.34593 53.489257 
L 436.34593 53.440758 
L 437.34593 53.359935 
L 438.34593 53.241416 
L 439.34593 53.171206 
L 440.34593 53.087943 
L 441.34593 53.054801 
L 442.34593 53.003564 
L 443.34593 52.935166 
L 444.34593 52.86895 
L 445.34593 52.792033 
L 446.666183 52.764718 
" clip-path="url(#p7e3324fb2e)" style="fill: none; stroke: #ff7f0e; stroke-opacity: 0.5; stroke-width: 0.2; stroke-linecap: square"/>
   </g>
   <g id="line2d_28">
    <path d="M 390.34593 211.175091 
L 391.34593 211.206527 
L 392.34593 211.243468 
L 393.34593 211.341214 
L 394.34593 211.373736 
L 395.34593 211.447361 
L 396.34593 211.485926 
L 397.34593 211.521339 
L 398.34593 211.578979 
L 399.34593 211.649365 
L 400.34593 211.70133 
L 401.34593 211.760419 
L 402.34593 211.84874 
L 403.34593 211.894885 
L 404.34593 211.937296 
L 405.34593 211.967788 
L 406.34593 211.993833 
L 407.34593 212.015033 
L 408.34593 212.069334 
L 409.34593 212.097272 
L 410.34593 212.126996 
L 411.34593 212.152391 
L 412.34593 212.163591 
L 413.34593 212.173715 
L 414.34593 212.173511 
L 415.34593 212.164001 
L 416.34593 212.152347 
L 417.34593 212.121318 
L 418.34593 212.11015 
L 419.34593 212.080033 
L 420.34593 212.020256 
L 421.34593 211.983064 
L 422.34593 211.943968 
L 423.34593 211.901528 
L 424.34593 211.868763 
L 425.34593 211.801337 
L 426.34593 211.762211 
L 427.34593 211.719536 
L 428.34593 211.648956 
L 429.34593 211.612565 
L 430.34593 211.554162 
L 431.34593 211.443209 
L 432.34593 211.372551 
L 433.34593 211.259611 
L 434.34593 211.213838 
L 435.34593 211.152555 
L 436.34593 211.104056 
L 437.34593 211.023233 
L 438.34593 210.904714 
L 439.34593 210.834503 
L 440.34593 210.751241 
L 441.34593 210.718099 
L 442.34593 210.666862 
L 443.34593 210.598463 
L 444.34593 210.532248 
L 445.34593 210.455331 
L 446.666183 210.428015 
" clip-path="url(#p7e3324fb2e)" style="fill: none; stroke: #ff7f0e; stroke-opacity: 0.5; stroke-width: 0.2; stroke-linecap: square"/>
   </g>
   <g id="line2d_29">
    <path d="M 390.34593 104.099625 
L 391.34593 104.131062 
L 392.34593 104.168002 
L 393.34593 104.265749 
L 394.34593 104.29827 
L 395.34593 104.371895 
L 396.34593 104.41046 
L 397.34593 104.445874 
L 398.34593 104.503514 
L 399.34593 104.5739 
L 400.34593 104.625864 
L 401.34593 104.684954 
L 402.34593 104.773275 
L 403.34593 104.819419 
L 404.34593 104.86183 
L 405.34593 104.892323 
L 406.34593 104.918368 
L 407.34593 104.939568 
L 408.34593 104.993869 
L 409.34593 105.021806 
L 410.34593 105.05153 
L 411.34593 105.076925 
L 412.34593 105.088125 
L 413.34593 105.098249 
L 414.34593 105.098045 
L 415.34593 105.088535 
L 416.34593 105.076882 
L 417.34593 105.045852 
L 418.34593 105.034684 
L 419.34593 105.004567 
L 420.34593 104.94479 
L 421.34593 104.907598 
L 422.34593 104.868502 
L 423.34593 104.826063 
L 424.34593 104.793298 
L 425.34593 104.725871 
L 426.34593 104.686745 
L 427.34593 104.644071 
L 428.34593 104.57349 
L 429.34593 104.537099 
L 430.34593 104.478696 
L 431.34593 104.367744 
L 432.34593 104.297085 
L 433.34593 104.184145 
L 434.34593 104.138372 
L 435.34593 104.077089 
L 436.34593 104.02859 
L 437.34593 103.947767 
L 438.34593 103.829248 
L 439.34593 103.759038 
L 440.34593 103.675775 
L 441.34593 103.642633 
L 442.34593 103.591396 
L 443.34593 103.522998 
L 444.34593 103.456782 
L 445.34593 103.379865 
L 446.666183 103.35255 
" clip-path="url(#p7e3324fb2e)" style="fill: none; stroke: #ff7f0e; stroke-opacity: 0.5; stroke-width: 0.2; stroke-linecap: square"/>
   </g>
   <g id="line2d_30">
    <path d="M 390.34593 251.780047 
L 391.34593 251.811484 
L 392.34593 251.848424 
L 393.34593 251.946171 
L 394.34593 251.978692 
L 395.34593 252.052317 
L 396.34593 252.090883 
L 397.34593 252.126296 
L 398.34593 252.183936 
L 399.34593 252.254322 
L 400.34593 252.306286 
L 401.34593 252.365376 
L 402.34593 252.453697 
L 403.34593 252.499841 
L 404.34593 252.542252 
L 405.34593 252.572745 
L 406.34593 252.59879 
L 407.34593 252.61999 
L 408.34593 252.674291 
L 409.34593 252.702228 
L 410.34593 252.731952 
L 411.34593 252.757347 
L 412.34593 252.768548 
L 413.34593 252.778672 
L 414.34593 252.778467 
L 415.34593 252.768957 
L 416.34593 252.757304 
L 417.34593 252.726275 
L 418.34593 252.715107 
L 419.34593 252.684989 
L 420.34593 252.625212 
L 421.34593 252.588021 
L 422.34593 252.548925 
L 423.34593 252.506485 
L 424.34593 252.47372 
L 425.34593 252.406293 
L 426.34593 252.367167 
L 427.34593 252.324493 
L 428.34593 252.253912 
L 429.34593 252.217521 
L 430.34593 252.159118 
L 431.34593 252.048166 
L 432.34593 251.977507 
L 433.34593 251.864568 
L 434.34593 251.818795 
L 435.34593 251.757511 
L 436.34593 251.709012 
L 437.34593 251.628189 
L 438.34593 251.50967 
L 439.34593 251.43946 
L 440.34593 251.356197 
L 441.34593 251.323056 
L 442.34593 251.271818 
L 443.34593 251.20342 
L 444.34593 251.137204 
L 445.34593 251.060287 
L 446.666183 251.032972 
" clip-path="url(#p7e3324fb2e)" style="fill: none; stroke: #ff7f0e; stroke-opacity: 0.5; stroke-width: 0.2; stroke-linecap: square"/>
   </g>
   <g id="line2d_31">
    <path d="M 446.666183 87.310524 
L 445.666183 87.279087 
L 444.666183 87.242147 
L 443.666183 87.144401 
L 442.666183 87.111879 
L 441.666183 87.038254 
L 440.666183 86.999689 
L 439.666183 86.964276 
L 438.666183 86.906636 
L 437.666183 86.836249 
L 436.666183 86.784285 
L 435.666183 86.725195 
L 434.666183 86.636874 
L 433.666183 86.59073 
L 432.666183 86.548319 
L 431.666183 86.517827 
L 430.666183 86.491782 
L 429.666183 86.470582 
L 428.666183 86.41628 
L 427.666183 86.388343 
L 426.666183 86.358619 
L 425.666183 86.333224 
L 424.666183 86.322024 
L 423.666183 86.3119 
L 422.666183 86.312104 
L 421.666183 86.321614 
L 420.666183 86.333268 
L 419.666183 86.364297 
L 418.666183 86.375465 
L 417.666183 86.405582 
L 416.666183 86.465359 
L 415.666183 86.502551 
L 414.666183 86.541647 
L 413.666183 86.584086 
L 412.666183 86.616852 
L 411.666183 86.684278 
L 410.666183 86.723404 
L 409.666183 86.766078 
L 408.666183 86.836659 
L 407.666183 86.87305 
L 406.666183 86.931453 
L 405.666183 87.042406 
L 404.666183 87.113064 
L 403.666183 87.226004 
L 402.666183 87.271777 
L 401.666183 87.33306 
L 400.666183 87.381559 
L 399.666183 87.462382 
L 398.666183 87.580901 
L 397.666183 87.651112 
L 396.666183 87.734374 
L 395.666183 87.767516 
L 394.666183 87.818753 
L 393.666183 87.887151 
L 392.666183 87.953367 
L 391.666183 88.030284 
L 390.34593 88.057599 
" clip-path="url(#p7e3324fb2e)" style="fill: none; stroke: #2ca02c; stroke-opacity: 0.5; stroke-width: 0.2; stroke-linecap: square"/>
   </g>
   <g id="line2d_32">
    <path d="M 446.666183 282.18416 
L 445.666183 282.152724 
L 444.666183 282.115784 
L 443.666183 282.018037 
L 442.666183 281.985516 
L 441.666183 281.911891 
L 440.666183 281.873325 
L 439.666183 281.837912 
L 438.666183 281.780272 
L 437.666183 281.709886 
L 436.666183 281.657922 
L 435.666183 281.598832 
L 434.666183 281.510511 
L 433.666183 281.464367 
L 432.666183 281.421956 
L 431.666183 281.391463 
L 430.666183 281.365418 
L 429.666183 281.344218 
L 428.666183 281.289917 
L 427.666183 281.261979 
L 426.666183 281.232255 
L 425.666183 281.206861 
L 424.666183 281.19566 
L 423.666183 281.185536 
L 422.666183 281.185741 
L 421.666183 281.195251 
L 420.666183 281.206904 
L 419.666183 281.237933 
L 418.666183 281.249101 
L 417.666183 281.279219 
L 416.666183 281.338996 
L 415.666183 281.376187 
L 414.666183 281.415283 
L 413.666183 281.457723 
L 412.666183 281.490488 
L 411.666183 281.557915 
L 410.666183 281.59704 
L 409.666183 281.639715 
L 408.666183 281.710296 
L 407.666183 281.746686 
L 406.666183 281.80509 
L 405.666183 281.916042 
L 404.666183 281.986701 
L 403.666183 282.09964 
L 402.666183 282.145413 
L 401.666183 282.206697 
L 400.666183 282.255196 
L 399.666183 282.336019 
L 398.666183 282.454537 
L 397.666183 282.524748 
L 396.666183 282.608011 
L 395.666183 282.641152 
L 394.666183 282.69239 
L 393.666183 282.760788 
L 392.666183 282.827003 
L 391.666183 282.90392 
L 390.34593 282.931236 
" clip-path="url(#p7e3324fb2e)" style="fill: none; stroke: #2ca02c; stroke-opacity: 0.5; stroke-width: 0.2; stroke-linecap: square"/>
   </g>
   <g id="line2d_33">
    <path d="M 446.666183 91.560079 
L 445.666183 91.528643 
L 444.666183 91.491702 
L 443.666183 91.393956 
L 442.666183 91.361434 
L 441.666183 91.28781 
L 440.666183 91.249244 
L 439.666183 91.213831 
L 438.666183 91.156191 
L 437.666183 91.085805 
L 436.666183 91.03384 
L 435.666183 90.974751 
L 434.666183 90.88643 
L 433.666183 90.840285 
L 432.666183 90.797875 
L 431.666183 90.767382 
L 430.666183 90.741337 
L 429.666183 90.720137 
L 428.666183 90.665836 
L 427.666183 90.637898 
L 426.666183 90.608174 
L 425.666183 90.582779 
L 424.666183 90.571579 
L 423.666183 90.561455 
L 422.666183 90.561659 
L 421.666183 90.571169 
L 420.666183 90.582823 
L 419.666183 90.613852 
L 418.666183 90.62502 
L 417.666183 90.655138 
L 416.666183 90.714914 
L 415.666183 90.752106 
L 414.666183 90.791202 
L 413.666183 90.833642 
L 412.666183 90.866407 
L 411.666183 90.933833 
L 410.666183 90.972959 
L 409.666183 91.015634 
L 408.666183 91.086214 
L 407.666183 91.122605 
L 406.666183 91.181008 
L 405.666183 91.291961 
L 404.666183 91.362619 
L 403.666183 91.475559 
L 402.666183 91.521332 
L 401.666183 91.582615 
L 400.666183 91.631115 
L 399.666183 91.711937 
L 398.666183 91.830456 
L 397.666183 91.900667 
L 396.666183 91.983929 
L 395.666183 92.017071 
L 394.666183 92.068308 
L 393.666183 92.136707 
L 392.666183 92.202922 
L 391.666183 92.279839 
L 390.34593 92.307155 
" clip-path="url(#p7e3324fb2e)" style="fill: none; stroke: #2ca02c; stroke-opacity: 0.5; stroke-width: 0.2; stroke-linecap: square"/>
   </g>
   <g id="line2d_34">
    <path d="M 446.666183 209.587197 
L 445.666183 209.55576 
L 444.666183 209.51882 
L 443.666183 209.421073 
L 442.666183 209.388552 
L 441.666183 209.314927 
L 440.666183 209.276362 
L 439.666183 209.240948 
L 438.666183 209.183309 
L 437.666183 209.112922 
L 436.666183 209.060958 
L 435.666183 209.001868 
L 434.666183 208.913547 
L 433.666183 208.867403 
L 432.666183 208.824992 
L 431.666183 208.794499 
L 430.666183 208.768455 
L 429.666183 208.747254 
L 428.666183 208.692953 
L 427.666183 208.665016 
L 426.666183 208.635292 
L 425.666183 208.609897 
L 424.666183 208.598697 
L 423.666183 208.588573 
L 422.666183 208.588777 
L 421.666183 208.598287 
L 420.666183 208.60994 
L 419.666183 208.64097 
L 418.666183 208.652138 
L 417.666183 208.682255 
L 416.666183 208.742032 
L 415.666183 208.779224 
L 414.666183 208.81832 
L 413.666183 208.860759 
L 412.666183 208.893524 
L 411.666183 208.960951 
L 410.666183 209.000077 
L 409.666183 209.042751 
L 408.666183 209.113332 
L 407.666183 209.149723 
L 406.666183 209.208126 
L 405.666183 209.319079 
L 404.666183 209.389737 
L 403.666183 209.502677 
L 402.666183 209.54845 
L 401.666183 209.609733 
L 400.666183 209.658232 
L 399.666183 209.739055 
L 398.666183 209.857574 
L 397.666183 209.927784 
L 396.666183 210.011047 
L 395.666183 210.044189 
L 394.666183 210.095426 
L 393.666183 210.163824 
L 392.666183 210.23004 
L 391.666183 210.306957 
L 390.34593 210.334272 
" clip-path="url(#p7e3324fb2e)" style="fill: none; stroke: #2ca02c; stroke-opacity: 0.5; stroke-width: 0.2; stroke-linecap: square"/>
   </g>
   <g id="line2d_35">
    <path d="M 446.666183 143.315133 
L 445.666183 143.283696 
L 444.666183 143.246756 
L 443.666183 143.14901 
L 442.666183 143.116488 
L 441.666183 143.042863 
L 440.666183 143.004298 
L 439.666183 142.968885 
L 438.666183 142.911245 
L 437.666183 142.840858 
L 436.666183 142.788894 
L 435.666183 142.729804 
L 434.666183 142.641483 
L 433.666183 142.595339 
L 432.666183 142.552928 
L 431.666183 142.522436 
L 430.666183 142.496391 
L 429.666183 142.475191 
L 428.666183 142.420889 
L 427.666183 142.392952 
L 426.666183 142.363228 
L 425.666183 142.337833 
L 424.666183 142.326633 
L 423.666183 142.316509 
L 422.666183 142.316713 
L 421.666183 142.326223 
L 420.666183 142.337876 
L 419.666183 142.368906 
L 418.666183 142.380074 
L 417.666183 142.410191 
L 416.666183 142.469968 
L 415.666183 142.50716 
L 414.666183 142.546256 
L 413.666183 142.588695 
L 412.666183 142.621461 
L 411.666183 142.688887 
L 410.666183 142.728013 
L 409.666183 142.770687 
L 408.666183 142.841268 
L 407.666183 142.877659 
L 406.666183 142.936062 
L 405.666183 143.047015 
L 404.666183 143.117673 
L 403.666183 143.230613 
L 402.666183 143.276386 
L 401.666183 143.337669 
L 400.666183 143.386168 
L 399.666183 143.466991 
L 398.666183 143.58551 
L 397.666183 143.65572 
L 396.666183 143.738983 
L 395.666183 143.772125 
L 394.666183 143.823362 
L 393.666183 143.89176 
L 392.666183 143.957976 
L 391.666183 144.034893 
L 390.34593 144.062208 
" clip-path="url(#p7e3324fb2e)" style="fill: none; stroke: #2ca02c; stroke-opacity: 0.5; stroke-width: 0.2; stroke-linecap: square"/>
   </g>
   <g id="line2d_36">
    <path d="M 446.666183 292.921066 
L 445.666183 292.88963 
L 444.666183 292.852689 
L 443.666183 292.754943 
L 442.666183 292.722421 
L 441.666183 292.648796 
L 440.666183 292.610231 
L 439.666183 292.574818 
L 438.666183 292.517178 
L 437.666183 292.446791 
L 436.666183 292.394827 
L 435.666183 292.335737 
L 434.666183 292.247416 
L 433.666183 292.201272 
L 432.666183 292.158861 
L 431.666183 292.128369 
L 430.666183 292.102324 
L 429.666183 292.081124 
L 428.666183 292.026822 
L 427.666183 291.998885 
L 426.666183 291.969161 
L 425.666183 291.943766 
L 424.666183 291.932566 
L 423.666183 291.922442 
L 422.666183 291.922646 
L 421.666183 291.932156 
L 420.666183 291.94381 
L 419.666183 291.974839 
L 418.666183 291.986007 
L 417.666183 292.016124 
L 416.666183 292.075901 
L 415.666183 292.113093 
L 414.666183 292.152189 
L 413.666183 292.194628 
L 412.666183 292.227394 
L 411.666183 292.29482 
L 410.666183 292.333946 
L 409.666183 292.37662 
L 408.666183 292.447201 
L 407.666183 292.483592 
L 406.666183 292.541995 
L 405.666183 292.652948 
L 404.666183 292.723606 
L 403.666183 292.836546 
L 402.666183 292.882319 
L 401.666183 292.943602 
L 400.666183 292.992101 
L 399.666183 293.072924 
L 398.666183 293.191443 
L 397.666183 293.261654 
L 396.666183 293.344916 
L 395.666183 293.378058 
L 394.666183 293.429295 
L 393.666183 293.497693 
L 392.666183 293.563909 
L 391.666183 293.640826 
L 390.34593 293.668141 
" clip-path="url(#p7e3324fb2e)" style="fill: none; stroke: #2ca02c; stroke-opacity: 0.5; stroke-width: 0.2; stroke-linecap: square"/>
   </g>
   <g id="line2d_37">
    <path d="M 446.666183 156.720551 
L 445.666183 156.689115 
L 444.666183 156.652175 
L 443.666183 156.554428 
L 442.666183 156.521906 
L 441.666183 156.448282 
L 440.666183 156.409716 
L 439.666183 156.374303 
L 438.666183 156.316663 
L 437.666183 156.246277 
L 436.666183 156.194313 
L 435.666183 156.135223 
L 434.666183 156.046902 
L 433.666183 156.000758 
L 432.666183 155.958347 
L 431.666183 155.927854 
L 430.666183 155.901809 
L 429.666183 155.880609 
L 428.666183 155.826308 
L 427.666183 155.79837 
L 426.666183 155.768646 
L 425.666183 155.743252 
L 424.666183 155.732051 
L 423.666183 155.721927 
L 422.666183 155.722132 
L 421.666183 155.731641 
L 420.666183 155.743295 
L 419.666183 155.774324 
L 418.666183 155.785492 
L 417.666183 155.81561 
L 416.666183 155.875387 
L 415.666183 155.912578 
L 414.666183 155.951674 
L 413.666183 155.994114 
L 412.666183 156.026879 
L 411.666183 156.094305 
L 410.666183 156.133431 
L 409.666183 156.176106 
L 408.666183 156.246687 
L 407.666183 156.283077 
L 406.666183 156.341481 
L 405.666183 156.452433 
L 404.666183 156.523091 
L 403.666183 156.636031 
L 402.666183 156.681804 
L 401.666183 156.743087 
L 400.666183 156.791587 
L 399.666183 156.872409 
L 398.666183 156.990928 
L 397.666183 157.061139 
L 396.666183 157.144401 
L 395.666183 157.177543 
L 394.666183 157.228781 
L 393.666183 157.297179 
L 392.666183 157.363394 
L 391.666183 157.440311 
L 390.34593 157.467627 
" clip-path="url(#p7e3324fb2e)" style="fill: none; stroke: #2ca02c; stroke-opacity: 0.5; stroke-width: 0.2; stroke-linecap: square"/>
   </g>
   <g id="line2d_38">
    <path d="M 446.666183 252.294907 
L 445.666183 252.263471 
L 444.666183 252.226531 
L 443.666183 252.128784 
L 442.666183 252.096263 
L 441.666183 252.022638 
L 440.666183 251.984072 
L 439.666183 251.948659 
L 438.666183 251.891019 
L 437.666183 251.820633 
L 436.666183 251.768669 
L 435.666183 251.709579 
L 434.666183 251.621258 
L 433.666183 251.575114 
L 432.666183 251.532703 
L 431.666183 251.50221 
L 430.666183 251.476165 
L 429.666183 251.454965 
L 428.666183 251.400664 
L 427.666183 251.372726 
L 426.666183 251.343002 
L 425.666183 251.317608 
L 424.666183 251.306407 
L 423.666183 251.296283 
L 422.666183 251.296488 
L 421.666183 251.305998 
L 420.666183 251.317651 
L 419.666183 251.34868 
L 418.666183 251.359848 
L 417.666183 251.389966 
L 416.666183 251.449743 
L 415.666183 251.486934 
L 414.666183 251.52603 
L 413.666183 251.56847 
L 412.666183 251.601235 
L 411.666183 251.668662 
L 410.666183 251.707788 
L 409.666183 251.750462 
L 408.666183 251.821043 
L 407.666183 251.857434 
L 406.666183 251.915837 
L 405.666183 252.026789 
L 404.666183 252.097448 
L 403.666183 252.210387 
L 402.666183 252.25616 
L 401.666183 252.317444 
L 400.666183 252.365943 
L 399.666183 252.446766 
L 398.666183 252.565284 
L 397.666183 252.635495 
L 396.666183 252.718758 
L 395.666183 252.751899 
L 394.666183 252.803137 
L 393.666183 252.871535 
L 392.666183 252.93775 
L 391.666183 253.014668 
L 390.34593 253.041983 
" clip-path="url(#p7e3324fb2e)" style="fill: none; stroke: #2ca02c; stroke-opacity: 0.5; stroke-width: 0.2; stroke-linecap: square"/>
   </g>
   <g id="line2d_39">
    <path d="M 446.666183 118.194025 
L 445.666183 118.162589 
L 444.666183 118.125649 
L 443.666183 118.027902 
L 442.666183 117.995381 
L 441.666183 117.921756 
L 440.666183 117.88319 
L 439.666183 117.847777 
L 438.666183 117.790137 
L 437.666183 117.719751 
L 436.666183 117.667787 
L 435.666183 117.608697 
L 434.666183 117.520376 
L 433.666183 117.474232 
L 432.666183 117.431821 
L 431.666183 117.401328 
L 430.666183 117.375283 
L 429.666183 117.354083 
L 428.666183 117.299782 
L 427.666183 117.271844 
L 426.666183 117.24212 
L 425.666183 117.216726 
L 424.666183 117.205525 
L 423.666183 117.195401 
L 422.666183 117.195606 
L 421.666183 117.205116 
L 420.666183 117.216769 
L 419.666183 117.247798 
L 418.666183 117.258966 
L 417.666183 117.289084 
L 416.666183 117.348861 
L 415.666183 117.386052 
L 414.666183 117.425148 
L 413.666183 117.467588 
L 412.666183 117.500353 
L 411.666183 117.56778 
L 410.666183 117.606906 
L 409.666183 117.64958 
L 408.666183 117.720161 
L 407.666183 117.756552 
L 406.666183 117.814955 
L 405.666183 117.925907 
L 404.666183 117.996566 
L 403.666183 118.109505 
L 402.666183 118.155278 
L 401.666183 118.216562 
L 400.666183 118.265061 
L 399.666183 118.345884 
L 398.666183 118.464402 
L 397.666183 118.534613 
L 396.666183 118.617876 
L 395.666183 118.651017 
L 394.666183 118.702255 
L 393.666183 118.770653 
L 392.666183 118.836868 
L 391.666183 118.913786 
L 390.34593 118.941101 
" clip-path="url(#p7e3324fb2e)" style="fill: none; stroke: #2ca02c; stroke-opacity: 0.5; stroke-width: 0.2; stroke-linecap: square"/>
   </g>
   <g id="line2d_40">
    <path d="M 446.666183 300.665705 
L 445.666183 300.634269 
L 444.666183 300.597328 
L 443.666183 300.499582 
L 442.666183 300.46706 
L 441.666183 300.393436 
L 440.666183 300.35487 
L 439.666183 300.319457 
L 438.666183 300.261817 
L 437.666183 300.191431 
L 436.666183 300.139466 
L 435.666183 300.080377 
L 434.666183 299.992056 
L 433.666183 299.945911 
L 432.666183 299.9035 
L 431.666183 299.873008 
L 430.666183 299.846963 
L 429.666183 299.825763 
L 428.666183 299.771462 
L 427.666183 299.743524 
L 426.666183 299.7138 
L 425.666183 299.688405 
L 424.666183 299.677205 
L 423.666183 299.667081 
L 422.666183 299.667285 
L 421.666183 299.676795 
L 420.666183 299.688449 
L 419.666183 299.719478 
L 418.666183 299.730646 
L 417.666183 299.760763 
L 416.666183 299.82054 
L 415.666183 299.857732 
L 414.666183 299.896828 
L 413.666183 299.939268 
L 412.666183 299.972033 
L 411.666183 300.039459 
L 410.666183 300.078585 
L 409.666183 300.12126 
L 408.666183 300.19184 
L 407.666183 300.228231 
L 406.666183 300.286634 
L 405.666183 300.397587 
L 404.666183 300.468245 
L 403.666183 300.581185 
L 402.666183 300.626958 
L 401.666183 300.688241 
L 400.666183 300.736741 
L 399.666183 300.817563 
L 398.666183 300.936082 
L 397.666183 301.006293 
L 396.666183 301.089555 
L 395.666183 301.122697 
L 394.666183 301.173934 
L 393.666183 301.242333 
L 392.666183 301.308548 
L 391.666183 301.385465 
L 390.34593 301.412781 
" clip-path="url(#p7e3324fb2e)" style="fill: none; stroke: #2ca02c; stroke-opacity: 0.5; stroke-width: 0.2; stroke-linecap: square"/>
   </g>
   <g id="patch_3">
    <path d="M 72.103551 22.318125 
L 72.103551 318.021875 
M 194.769098 22.318125 
L 194.769098 318.021875 
" clip-path="url(#p7e3324fb2e)" style="fill: none; stroke: #ffffff; stroke-width: 3; stroke-linejoin: miter"/>
    <path d="M 72.103551 22.318125 
L 72.103551 318.021875 
M 194.769098 22.318125 
L 194.769098 318.021875 
" clip-path="url(#p7e3324fb2e)" style="fill: none; stroke: #1f77b4; stroke-linejoin: miter"/>
   </g>
   <g id="FillBetweenPolyCollection_1">
    <path d="M 194.769098 22.318125 
L 72.103551 22.318125 
L 72.103551 318.021875 
L 194.769098 318.021875 
L 194.769098 318.021875 
L 194.769098 22.318125 
z
" clip-path="url(#p7e3324fb2e)" style="fill: #1f77b4; fill-opacity: 0.5"/>
   </g>
   <g id="patch_4">
    <path d="M 262.150039 22.318125 
L 262.150039 318.021875 
M 384.815586 22.318125 
L 384.815586 318.021875 
" clip-path="url(#p7e3324fb2e)" style="fill: none; stroke: #ffffff; stroke-width: 3; stroke-linejoin: miter"/>
    <path d="M 262.150039 22.318125 
L 262.150039 318.021875 
M 384.815586 22.318125 
L 384.815586 318.021875 
" clip-path="url(#p7e3324fb2e)" style="fill: none; stroke: #ff7f0e; stroke-linejoin: miter"/>
   </g>
   <g id="FillBetweenPolyCollection_2">
    <path d="M 384.815586 22.318125 
L 262.150039 22.318125 
L 262.150039 318.021875 
L 384.815586 318.021875 
L 384.815586 318.021875 
L 384.815586 22.318125 
z
" clip-path="url(#p7e3324fb2e)" style="fill: #ff7f0e; fill-opacity: 0.5"/>
   </g>
   <g id="patch_5">
    <path d="M 452.196527 22.318125 
L 452.196527 318.021875 
M 574.862074 22.318125 
L 574.862074 318.021875 
" clip-path="url(#p7e3324fb2e)" style="fill: none; stroke: #ffffff; stroke-width: 3; stroke-linejoin: miter"/>
    <path d="M 452.196527 22.318125 
L 452.196527 318.021875 
M 574.862074 22.318125 
L 574.862074 318.021875 
" clip-path="url(#p7e3324fb2e)" style="fill: none; stroke: #2ca02c; stroke-linejoin: miter"/>
   </g>
   <g id="FillBetweenPolyCollection_3">
    <path d="M 574.862074 22.318125 
L 452.196527 22.318125 
L 452.196527 318.021875 
L 574.862074 318.021875 
L 574.862074 318.021875 
L 574.862074 22.318125 
z
" clip-path="url(#p7e3324fb2e)" style="fill: #2ca02c; fill-opacity: 0.5"/>
   </g>
   <g id="matplotlib.axis_1">
    <g id="xtick_1">
     <g id="line2d_41"/>
     <g id="text_1">
      <!-- deme1 -->
      <g transform="translate(116.057418 329.120312) scale(0.1 -0.1)">
       <defs>
        <path id="DejaVuSans-64" d="M 2906 2969 
L 2906 4863 
L 3481 4863 
L 3481 0 
L 2906 0 
L 2906 525 
Q 2725 213 2448 61 
Q 2172 -91 1784 -91 
Q 1150 -91 751 415 
Q 353 922 353 1747 
Q 353 2572 751 3078 
Q 1150 3584 1784 3584 
Q 2172 3584 2448 3432 
Q 2725 3281 2906 2969 
z
M 947 1747 
Q 947 1113 1208 752 
Q 1469 391 1925 391 
Q 2381 391 2643 752 
Q 2906 1113 2906 1747 
Q 2906 2381 2643 2742 
Q 2381 3103 1925 3103 
Q 1469 3103 1208 2742 
Q 947 2381 947 1747 
z
" transform="scale(0.015625)"/>
        <path id="DejaVuSans-65" d="M 3597 1894 
L 3597 1613 
L 953 1613 
Q 991 1019 1311 708 
Q 1631 397 2203 397 
Q 2534 397 2845 478 
Q 3156 559 3463 722 
L 3463 178 
Q 3153 47 2828 -22 
Q 2503 -91 2169 -91 
Q 1331 -91 842 396 
Q 353 884 353 1716 
Q 353 2575 817 3079 
Q 1281 3584 2069 3584 
Q 2775 3584 3186 3129 
Q 3597 2675 3597 1894 
z
M 3022 2063 
Q 3016 2534 2758 2815 
Q 2500 3097 2075 3097 
Q 1594 3097 1305 2825 
Q 1016 2553 972 2059 
L 3022 2063 
z
" transform="scale(0.015625)"/>
        <path id="DejaVuSans-6d" d="M 3328 2828 
Q 3544 3216 3844 3400 
Q 4144 3584 4550 3584 
Q 5097 3584 5394 3201 
Q 5691 2819 5691 2113 
L 5691 0 
L 5113 0 
L 5113 2094 
Q 5113 2597 4934 2840 
Q 4756 3084 4391 3084 
Q 3944 3084 3684 2787 
Q 3425 2491 3425 1978 
L 3425 0 
L 2847 0 
L 2847 2094 
Q 2847 2600 2669 2842 
Q 2491 3084 2119 3084 
Q 1678 3084 1418 2786 
Q 1159 2488 1159 1978 
L 1159 0 
L 581 0 
L 581 3500 
L 1159 3500 
L 1159 2956 
Q 1356 3278 1631 3431 
Q 1906 3584 2284 3584 
Q 2666 3584 2933 3390 
Q 3200 3197 3328 2828 
z
" transform="scale(0.015625)"/>
        <path id="DejaVuSans-31" d="M 794 531 
L 1825 531 
L 1825 4091 
L 703 3866 
L 703 4441 
L 1819 4666 
L 2450 4666 
L 2450 531 
L 3481 531 
L 3481 0 
L 794 0 
L 794 531 
z
" transform="scale(0.015625)"/>
       </defs>
       <use xlink:href="#DejaVuSans-64"/>
       <use xlink:href="#DejaVuSans-65" transform="translate(63.476562 0)"/>
       <use xlink:href="#DejaVuSans-6d" transform="translate(125 0)"/>
       <use xlink:href="#DejaVuSans-65" transform="translate(222.412109 0)"/>
       <use xlink:href="#DejaVuSans-31" transform="translate(283.935547 0)"/>
      </g>
     </g>
    </g>
    <g id="xtick_2">
     <g id="line2d_42"/>
     <g id="text_2">
      <!-- deme2 -->
      <g transform="translate(306.103906 329.120312) scale(0.1 -0.1)">
       <defs>
        <path id="DejaVuSans-32" d="M 1228 531 
L 3431 531 
L 3431 0 
L 469 0 
L 469 531 
Q 828 903 1448 1529 
Q 2069 2156 2228 2338 
Q 2531 2678 2651 2914 
Q 2772 3150 2772 3378 
Q 2772 3750 2511 3984 
Q 2250 4219 1831 4219 
Q 1534 4219 1204 4116 
Q 875 4013 500 3803 
L 500 4441 
Q 881 4594 1212 4672 
Q 1544 4750 1819 4750 
Q 2544 4750 2975 4387 
Q 3406 4025 3406 3419 
Q 3406 3131 3298 2873 
Q 3191 2616 2906 2266 
Q 2828 2175 2409 1742 
Q 1991 1309 1228 531 
z
" transform="scale(0.015625)"/>
       </defs>
       <use xlink:href="#DejaVuSans-64"/>
       <use xlink:href="#DejaVuSans-65" transform="translate(63.476562 0)"/>
       <use xlink:href="#DejaVuSans-6d" transform="translate(125 0)"/>
       <use xlink:href="#DejaVuSans-65" transform="translate(222.412109 0)"/>
       <use xlink:href="#DejaVuSans-32" transform="translate(283.935547 0)"/>
      </g>
     </g>
    </g>
    <g id="xtick_3">
     <g id="line2d_43"/>
     <g id="text_3">
      <!-- deme3 -->
      <g transform="translate(496.150394 329.120312) scale(0.1 -0.1)">
       <defs>
        <path id="DejaVuSans-33" d="M 2597 2516 
Q 3050 2419 3304 2112 
Q 3559 1806 3559 1356 
Q 3559 666 3084 287 
Q 2609 -91 1734 -91 
Q 1441 -91 1130 -33 
Q 819 25 488 141 
L 488 750 
Q 750 597 1062 519 
Q 1375 441 1716 441 
Q 2309 441 2620 675 
Q 2931 909 2931 1356 
Q 2931 1769 2642 2001 
Q 2353 2234 1838 2234 
L 1294 2234 
L 1294 2753 
L 1863 2753 
Q 2328 2753 2575 2939 
Q 2822 3125 2822 3475 
Q 2822 3834 2567 4026 
Q 2313 4219 1838 4219 
Q 1578 4219 1281 4162 
Q 984 4106 628 3988 
L 628 4550 
Q 988 4650 1302 4700 
Q 1616 4750 1894 4750 
Q 2613 4750 3031 4423 
Q 3450 4097 3450 3541 
Q 3450 3153 3228 2886 
Q 3006 2619 2597 2516 
z
" transform="scale(0.015625)"/>
       </defs>
       <use xlink:href="#DejaVuSans-64"/>
       <use xlink:href="#DejaVuSans-65" transform="translate(63.476562 0)"/>
       <use xlink:href="#DejaVuSans-6d" transform="translate(125 0)"/>
       <use xlink:href="#DejaVuSans-65" transform="translate(222.412109 0)"/>
       <use xlink:href="#DejaVuSans-33" transform="translate(283.935547 0)"/>
      </g>
     </g>
    </g>
   </g>
   <g id="matplotlib.axis_2">
    <g id="ytick_1">
     <g id="line2d_44">
      <defs>
       <path id="mc47c96174a" d="M 0 0 
L -3.5 0 
" style="stroke: #000000; stroke-width: 0.8"/>
      </defs>
      <g>
       <use xlink:href="#mc47c96174a" x="46.965625" y="318.021875" style="stroke: #000000; stroke-width: 0.8"/>
      </g>
     </g>
     <g id="text_4">
      <!-- 0 -->
      <g transform="translate(33.603125 321.821094) scale(0.1 -0.1)">
       <defs>
        <path id="DejaVuSans-30" d="M 2034 4250 
Q 1547 4250 1301 3770 
Q 1056 3291 1056 2328 
Q 1056 1369 1301 889 
Q 1547 409 2034 409 
Q 2525 409 2770 889 
Q 3016 1369 3016 2328 
Q 3016 3291 2770 3770 
Q 2525 4250 2034 4250 
z
M 2034 4750 
Q 2819 4750 3233 4129 
Q 3647 3509 3647 2328 
Q 3647 1150 3233 529 
Q 2819 -91 2034 -91 
Q 1250 -91 836 529 
Q 422 1150 422 2328 
Q 422 3509 836 4129 
Q 1250 4750 2034 4750 
z
" transform="scale(0.015625)"/>
       </defs>
       <use xlink:href="#DejaVuSans-30"/>
      </g>
     </g>
    </g>
    <g id="ytick_2">
     <g id="line2d_45">
      <g>
       <use xlink:href="#mc47c96174a" x="46.965625" y="265.684928" style="stroke: #000000; stroke-width: 0.8"/>
      </g>
     </g>
     <g id="text_5">
      <!-- 20 -->
      <g transform="translate(27.240625 269.484147) scale(0.1 -0.1)">
       <use xlink:href="#DejaVuSans-32"/>
       <use xlink:href="#DejaVuSans-30" transform="translate(63.623047 0)"/>
      </g>
     </g>
    </g>
    <g id="ytick_3">
     <g id="line2d_46">
      <g>
       <use xlink:href="#mc47c96174a" x="46.965625" y="213.347981" style="stroke: #000000; stroke-width: 0.8"/>
      </g>
     </g>
     <g id="text_6">
      <!-- 40 -->
      <g transform="translate(27.240625 217.1472) scale(0.1 -0.1)">
       <defs>
        <path id="DejaVuSans-34" d="M 2419 4116 
L 825 1625 
L 2419 1625 
L 2419 4116 
z
M 2253 4666 
L 3047 4666 
L 3047 1625 
L 3713 1625 
L 3713 1100 
L 3047 1100 
L 3047 0 
L 2419 0 
L 2419 1100 
L 313 1100 
L 313 1709 
L 2253 4666 
z
" transform="scale(0.015625)"/>
       </defs>
       <use xlink:href="#DejaVuSans-34"/>
       <use xlink:href="#DejaVuSans-30" transform="translate(63.623047 0)"/>
      </g>
     </g>
    </g>
    <g id="ytick_4">
     <g id="line2d_47">
      <g>
       <use xlink:href="#mc47c96174a" x="46.965625" y="161.011034" style="stroke: #000000; stroke-width: 0.8"/>
      </g>
     </g>
     <g id="text_7">
      <!-- 60 -->
      <g transform="translate(27.240625 164.810253) scale(0.1 -0.1)">
       <defs>
        <path id="DejaVuSans-36" d="M 2113 2584 
Q 1688 2584 1439 2293 
Q 1191 2003 1191 1497 
Q 1191 994 1439 701 
Q 1688 409 2113 409 
Q 2538 409 2786 701 
Q 3034 994 3034 1497 
Q 3034 2003 2786 2293 
Q 2538 2584 2113 2584 
z
M 3366 4563 
L 3366 3988 
Q 3128 4100 2886 4159 
Q 2644 4219 2406 4219 
Q 1781 4219 1451 3797 
Q 1122 3375 1075 2522 
Q 1259 2794 1537 2939 
Q 1816 3084 2150 3084 
Q 2853 3084 3261 2657 
Q 3669 2231 3669 1497 
Q 3669 778 3244 343 
Q 2819 -91 2113 -91 
Q 1303 -91 875 529 
Q 447 1150 447 2328 
Q 447 3434 972 4092 
Q 1497 4750 2381 4750 
Q 2619 4750 2861 4703 
Q 3103 4656 3366 4563 
z
" transform="scale(0.015625)"/>
       </defs>
       <use xlink:href="#DejaVuSans-36"/>
       <use xlink:href="#DejaVuSans-30" transform="translate(63.623047 0)"/>
      </g>
     </g>
    </g>
    <g id="ytick_5">
     <g id="line2d_48">
      <g>
       <use xlink:href="#mc47c96174a" x="46.965625" y="108.674087" style="stroke: #000000; stroke-width: 0.8"/>
      </g>
     </g>
     <g id="text_8">
      <!-- 80 -->
      <g transform="translate(27.240625 112.473306) scale(0.1 -0.1)">
       <defs>
        <path id="DejaVuSans-38" d="M 2034 2216 
Q 1584 2216 1326 1975 
Q 1069 1734 1069 1313 
Q 1069 891 1326 650 
Q 1584 409 2034 409 
Q 2484 409 2743 651 
Q 3003 894 3003 1313 
Q 3003 1734 2745 1975 
Q 2488 2216 2034 2216 
z
M 1403 2484 
Q 997 2584 770 2862 
Q 544 3141 544 3541 
Q 544 4100 942 4425 
Q 1341 4750 2034 4750 
Q 2731 4750 3128 4425 
Q 3525 4100 3525 3541 
Q 3525 3141 3298 2862 
Q 3072 2584 2669 2484 
Q 3125 2378 3379 2068 
Q 3634 1759 3634 1313 
Q 3634 634 3220 271 
Q 2806 -91 2034 -91 
Q 1263 -91 848 271 
Q 434 634 434 1313 
Q 434 1759 690 2068 
Q 947 2378 1403 2484 
z
M 1172 3481 
Q 1172 3119 1398 2916 
Q 1625 2713 2034 2713 
Q 2441 2713 2670 2916 
Q 2900 3119 2900 3481 
Q 2900 3844 2670 4047 
Q 2441 4250 2034 4250 
Q 1625 4250 1398 4047 
Q 1172 3844 1172 3481 
z
" transform="scale(0.015625)"/>
       </defs>
       <use xlink:href="#DejaVuSans-38"/>
       <use xlink:href="#DejaVuSans-30" transform="translate(63.623047 0)"/>
      </g>
     </g>
    </g>
    <g id="ytick_6">
     <g id="line2d_49">
      <g>
       <use xlink:href="#mc47c96174a" x="46.965625" y="56.33714" style="stroke: #000000; stroke-width: 0.8"/>
      </g>
     </g>
     <g id="text_9">
      <!-- 100 -->
      <g transform="translate(20.878125 60.136359) scale(0.1 -0.1)">
       <use xlink:href="#DejaVuSans-31"/>
       <use xlink:href="#DejaVuSans-30" transform="translate(63.623047 0)"/>
       <use xlink:href="#DejaVuSans-30" transform="translate(127.246094 0)"/>
      </g>
     </g>
    </g>
    <g id="text_10">
     <!-- time ago (years) -->
     <g transform="translate(14.798437 211.603594) rotate(-90) scale(0.1 -0.1)">
      <defs>
       <path id="DejaVuSans-74" d="M 1172 4494 
L 1172 3500 
L 2356 3500 
L 2356 3053 
L 1172 3053 
L 1172 1153 
Q 1172 725 1289 603 
Q 1406 481 1766 481 
L 2356 481 
L 2356 0 
L 1766 0 
Q 1100 0 847 248 
Q 594 497 594 1153 
L 594 3053 
L 172 3053 
L 172 3500 
L 594 3500 
L 594 4494 
L 1172 4494 
z
" transform="scale(0.015625)"/>
       <path id="DejaVuSans-69" d="M 603 3500 
L 1178 3500 
L 1178 0 
L 603 0 
L 603 3500 
z
M 603 4863 
L 1178 4863 
L 1178 4134 
L 603 4134 
L 603 4863 
z
" transform="scale(0.015625)"/>
       <path id="DejaVuSans-20" transform="scale(0.015625)"/>
       <path id="DejaVuSans-61" d="M 2194 1759 
Q 1497 1759 1228 1600 
Q 959 1441 959 1056 
Q 959 750 1161 570 
Q 1363 391 1709 391 
Q 2188 391 2477 730 
Q 2766 1069 2766 1631 
L 2766 1759 
L 2194 1759 
z
M 3341 1997 
L 3341 0 
L 2766 0 
L 2766 531 
Q 2569 213 2275 61 
Q 1981 -91 1556 -91 
Q 1019 -91 701 211 
Q 384 513 384 1019 
Q 384 1609 779 1909 
Q 1175 2209 1959 2209 
L 2766 2209 
L 2766 2266 
Q 2766 2663 2505 2880 
Q 2244 3097 1772 3097 
Q 1472 3097 1187 3025 
Q 903 2953 641 2809 
L 641 3341 
Q 956 3463 1253 3523 
Q 1550 3584 1831 3584 
Q 2591 3584 2966 3190 
Q 3341 2797 3341 1997 
z
" transform="scale(0.015625)"/>
       <path id="DejaVuSans-67" d="M 2906 1791 
Q 2906 2416 2648 2759 
Q 2391 3103 1925 3103 
Q 1463 3103 1205 2759 
Q 947 2416 947 1791 
Q 947 1169 1205 825 
Q 1463 481 1925 481 
Q 2391 481 2648 825 
Q 2906 1169 2906 1791 
z
M 3481 434 
Q 3481 -459 3084 -895 
Q 2688 -1331 1869 -1331 
Q 1566 -1331 1297 -1286 
Q 1028 -1241 775 -1147 
L 775 -588 
Q 1028 -725 1275 -790 
Q 1522 -856 1778 -856 
Q 2344 -856 2625 -561 
Q 2906 -266 2906 331 
L 2906 616 
Q 2728 306 2450 153 
Q 2172 0 1784 0 
Q 1141 0 747 490 
Q 353 981 353 1791 
Q 353 2603 747 3093 
Q 1141 3584 1784 3584 
Q 2172 3584 2450 3431 
Q 2728 3278 2906 2969 
L 2906 3500 
L 3481 3500 
L 3481 434 
z
" transform="scale(0.015625)"/>
       <path id="DejaVuSans-6f" d="M 1959 3097 
Q 1497 3097 1228 2736 
Q 959 2375 959 1747 
Q 959 1119 1226 758 
Q 1494 397 1959 397 
Q 2419 397 2687 759 
Q 2956 1122 2956 1747 
Q 2956 2369 2687 2733 
Q 2419 3097 1959 3097 
z
M 1959 3584 
Q 2709 3584 3137 3096 
Q 3566 2609 3566 1747 
Q 3566 888 3137 398 
Q 2709 -91 1959 -91 
Q 1206 -91 779 398 
Q 353 888 353 1747 
Q 353 2609 779 3096 
Q 1206 3584 1959 3584 
z
" transform="scale(0.015625)"/>
       <path id="DejaVuSans-28" d="M 1984 4856 
Q 1566 4138 1362 3434 
Q 1159 2731 1159 2009 
Q 1159 1288 1364 580 
Q 1569 -128 1984 -844 
L 1484 -844 
Q 1016 -109 783 600 
Q 550 1309 550 2009 
Q 550 2706 781 3412 
Q 1013 4119 1484 4856 
L 1984 4856 
z
" transform="scale(0.015625)"/>
       <path id="DejaVuSans-79" d="M 2059 -325 
Q 1816 -950 1584 -1140 
Q 1353 -1331 966 -1331 
L 506 -1331 
L 506 -850 
L 844 -850 
Q 1081 -850 1212 -737 
Q 1344 -625 1503 -206 
L 1606 56 
L 191 3500 
L 800 3500 
L 1894 763 
L 2988 3500 
L 3597 3500 
L 2059 -325 
z
" transform="scale(0.015625)"/>
       <path id="DejaVuSans-72" d="M 2631 2963 
Q 2534 3019 2420 3045 
Q 2306 3072 2169 3072 
Q 1681 3072 1420 2755 
Q 1159 2438 1159 1844 
L 1159 0 
L 581 0 
L 581 3500 
L 1159 3500 
L 1159 2956 
Q 1341 3275 1631 3429 
Q 1922 3584 2338 3584 
Q 2397 3584 2469 3576 
Q 2541 3569 2628 3553 
L 2631 2963 
z
" transform="scale(0.015625)"/>
       <path id="DejaVuSans-73" d="M 2834 3397 
L 2834 2853 
Q 2591 2978 2328 3040 
Q 2066 3103 1784 3103 
Q 1356 3103 1142 2972 
Q 928 2841 928 2578 
Q 928 2378 1081 2264 
Q 1234 2150 1697 2047 
L 1894 2003 
Q 2506 1872 2764 1633 
Q 3022 1394 3022 966 
Q 3022 478 2636 193 
Q 2250 -91 1575 -91 
Q 1294 -91 989 -36 
Q 684 19 347 128 
L 347 722 
Q 666 556 975 473 
Q 1284 391 1588 391 
Q 1994 391 2212 530 
Q 2431 669 2431 922 
Q 2431 1156 2273 1281 
Q 2116 1406 1581 1522 
L 1381 1569 
Q 847 1681 609 1914 
Q 372 2147 372 2553 
Q 372 3047 722 3315 
Q 1072 3584 1716 3584 
Q 2034 3584 2315 3537 
Q 2597 3491 2834 3397 
z
" transform="scale(0.015625)"/>
       <path id="DejaVuSans-29" d="M 513 4856 
L 1013 4856 
Q 1481 4119 1714 3412 
Q 1947 2706 1947 2009 
Q 1947 1309 1714 600 
Q 1481 -109 1013 -844 
L 513 -844 
Q 928 -128 1133 580 
Q 1338 1288 1338 2009 
Q 1338 2731 1133 3434 
Q 928 4138 513 4856 
z
" transform="scale(0.015625)"/>
      </defs>
      <use xlink:href="#DejaVuSans-74"/>
      <use xlink:href="#DejaVuSans-69" transform="translate(39.208984 0)"/>
      <use xlink:href="#DejaVuSans-6d" transform="translate(66.992188 0)"/>
      <use xlink:href="#DejaVuSans-65" transform="translate(164.404297 0)"/>
      <use xlink:href="#DejaVuSans-20" transform="translate(225.927734 0)"/>
      <use xlink:href="#DejaVuSans-61" transform="translate(257.714844 0)"/>
      <use xlink:href="#DejaVuSans-67" transform="translate(318.994141 0)"/>
      <use xlink:href="#DejaVuSans-6f" transform="translate(382.470703 0)"/>
      <use xlink:href="#DejaVuSans-20" transform="translate(443.652344 0)"/>
      <use xlink:href="#DejaVuSans-28" transform="translate(475.439453 0)"/>
      <use xlink:href="#DejaVuSans-79" transform="translate(514.453125 0)"/>
      <use xlink:href="#DejaVuSans-65" transform="translate(573.632812 0)"/>
      <use xlink:href="#DejaVuSans-61" transform="translate(635.15625 0)"/>
      <use xlink:href="#DejaVuSans-72" transform="translate(696.435547 0)"/>
      <use xlink:href="#DejaVuSans-73" transform="translate(737.548828 0)"/>
      <use xlink:href="#DejaVuSans-29" transform="translate(789.648438 0)"/>
     </g>
    </g>
   </g>
   <g id="line2d_50">
    <path d="M 257.619695 74.165724 
L 255.619695 73.165724 
L 255.619695 75.165724 
z
" clip-path="url(#p7e3324fb2e)" style="fill: #1f77b4; fill-opacity: 0.5; stroke: #1f77b4; stroke-opacity: 0.5; stroke-linejoin: miter"/>
   </g>
   <g id="line2d_51">
    <path d="M 257.619695 145.753936 
L 255.619695 144.753936 
L 255.619695 146.753936 
z
" clip-path="url(#p7e3324fb2e)" style="fill: #1f77b4; fill-opacity: 0.5; stroke: #1f77b4; stroke-opacity: 0.5; stroke-linejoin: miter"/>
   </g>
   <g id="line2d_52">
    <path d="M 257.619695 296.423266 
L 255.619695 295.423266 
L 255.619695 297.423266 
z
" clip-path="url(#p7e3324fb2e)" style="fill: #1f77b4; fill-opacity: 0.5; stroke: #1f77b4; stroke-opacity: 0.5; stroke-linejoin: miter"/>
   </g>
   <g id="line2d_53">
    <path d="M 257.619695 29.982827 
L 255.619695 28.982827 
L 255.619695 30.982827 
z
" clip-path="url(#p7e3324fb2e)" style="fill: #1f77b4; fill-opacity: 0.5; stroke: #1f77b4; stroke-opacity: 0.5; stroke-linejoin: miter"/>
   </g>
   <g id="line2d_54">
    <path d="M 257.619695 23.093705 
L 255.619695 22.093705 
L 255.619695 24.093705 
z
" clip-path="url(#p7e3324fb2e)" style="fill: #1f77b4; fill-opacity: 0.5; stroke: #1f77b4; stroke-opacity: 0.5; stroke-linejoin: miter"/>
   </g>
   <g id="line2d_55">
    <path d="M 257.619695 218.911822 
L 255.619695 217.911822 
L 255.619695 219.911822 
z
" clip-path="url(#p7e3324fb2e)" style="fill: #1f77b4; fill-opacity: 0.5; stroke: #1f77b4; stroke-opacity: 0.5; stroke-linejoin: miter"/>
   </g>
   <g id="line2d_56">
    <path d="M 257.619695 179.886518 
L 255.619695 178.886518 
L 255.619695 180.886518 
z
" clip-path="url(#p7e3324fb2e)" style="fill: #1f77b4; fill-opacity: 0.5; stroke: #1f77b4; stroke-opacity: 0.5; stroke-linejoin: miter"/>
   </g>
   <g id="line2d_57">
    <path d="M 257.619695 240.365839 
L 255.619695 239.365839 
L 255.619695 241.365839 
z
" clip-path="url(#p7e3324fb2e)" style="fill: #1f77b4; fill-opacity: 0.5; stroke: #1f77b4; stroke-opacity: 0.5; stroke-linejoin: miter"/>
   </g>
   <g id="line2d_58">
    <path d="M 257.619695 164.936652 
L 255.619695 163.936652 
L 255.619695 165.936652 
z
" clip-path="url(#p7e3324fb2e)" style="fill: #1f77b4; fill-opacity: 0.5; stroke: #1f77b4; stroke-opacity: 0.5; stroke-linejoin: miter"/>
   </g>
   <g id="line2d_59">
    <path d="M 257.619695 141.5793 
L 255.619695 140.5793 
L 255.619695 142.5793 
z
" clip-path="url(#p7e3324fb2e)" style="fill: #1f77b4; fill-opacity: 0.5; stroke: #1f77b4; stroke-opacity: 0.5; stroke-linejoin: miter"/>
   </g>
   <g id="line2d_60">
    <path d="M 199.299442 169.248882 
L 201.299442 170.248882 
L 201.299442 168.248882 
z
" clip-path="url(#p7e3324fb2e)" style="fill: #ff7f0e; fill-opacity: 0.5; stroke: #ff7f0e; stroke-opacity: 0.5; stroke-linejoin: miter"/>
   </g>
   <g id="line2d_61">
    <path d="M 199.299442 72.222324 
L 201.299442 73.222324 
L 201.299442 71.222324 
z
" clip-path="url(#p7e3324fb2e)" style="fill: #ff7f0e; fill-opacity: 0.5; stroke: #ff7f0e; stroke-opacity: 0.5; stroke-linejoin: miter"/>
   </g>
   <g id="line2d_62">
    <path d="M 199.299442 191.180825 
L 201.299442 192.180825 
L 201.299442 190.180825 
z
" clip-path="url(#p7e3324fb2e)" style="fill: #ff7f0e; fill-opacity: 0.5; stroke: #ff7f0e; stroke-opacity: 0.5; stroke-linejoin: miter"/>
   </g>
   <g id="line2d_63">
    <path d="M 199.299442 120.389615 
L 201.299442 121.389615 
L 201.299442 119.389615 
z
" clip-path="url(#p7e3324fb2e)" style="fill: #ff7f0e; fill-opacity: 0.5; stroke: #ff7f0e; stroke-opacity: 0.5; stroke-linejoin: miter"/>
   </g>
   <g id="line2d_64">
    <path d="M 199.299442 23.920475 
L 201.299442 24.920475 
L 201.299442 22.920475 
z
" clip-path="url(#p7e3324fb2e)" style="fill: #ff7f0e; fill-opacity: 0.5; stroke: #ff7f0e; stroke-opacity: 0.5; stroke-linejoin: miter"/>
   </g>
   <g id="line2d_65">
    <path d="M 199.299442 270.384288 
L 201.299442 271.384288 
L 201.299442 269.384288 
z
" clip-path="url(#p7e3324fb2e)" style="fill: #ff7f0e; fill-opacity: 0.5; stroke: #ff7f0e; stroke-opacity: 0.5; stroke-linejoin: miter"/>
   </g>
   <g id="line2d_66">
    <path d="M 199.299442 307.958042 
L 201.299442 308.958042 
L 201.299442 306.958042 
z
" clip-path="url(#p7e3324fb2e)" style="fill: #ff7f0e; fill-opacity: 0.5; stroke: #ff7f0e; stroke-opacity: 0.5; stroke-linejoin: miter"/>
   </g>
   <g id="line2d_67">
    <path d="M 199.299442 171.851038 
L 201.299442 172.851038 
L 201.299442 170.851038 
z
" clip-path="url(#p7e3324fb2e)" style="fill: #ff7f0e; fill-opacity: 0.5; stroke: #ff7f0e; stroke-opacity: 0.5; stroke-linejoin: miter"/>
   </g>
   <g id="line2d_68">
    <path d="M 199.299442 138.45988 
L 201.299442 139.45988 
L 201.299442 137.45988 
z
" clip-path="url(#p7e3324fb2e)" style="fill: #ff7f0e; fill-opacity: 0.5; stroke: #ff7f0e; stroke-opacity: 0.5; stroke-linejoin: miter"/>
   </g>
   <g id="line2d_69">
    <path d="M 199.299442 68.044044 
L 201.299442 69.044044 
L 201.299442 67.044044 
z
" clip-path="url(#p7e3324fb2e)" style="fill: #ff7f0e; fill-opacity: 0.5; stroke: #ff7f0e; stroke-opacity: 0.5; stroke-linejoin: miter"/>
   </g>
   <g id="line2d_70">
    <path d="M 447.666183 101.956042 
L 445.666183 100.956042 
L 445.666183 102.956042 
z
" clip-path="url(#p7e3324fb2e)" style="fill: #ff7f0e; fill-opacity: 0.5; stroke: #ff7f0e; stroke-opacity: 0.5; stroke-linejoin: miter"/>
   </g>
   <g id="line2d_71">
    <path d="M 447.666183 193.30114 
L 445.666183 192.30114 
L 445.666183 194.30114 
z
" clip-path="url(#p7e3324fb2e)" style="fill: #ff7f0e; fill-opacity: 0.5; stroke: #ff7f0e; stroke-opacity: 0.5; stroke-linejoin: miter"/>
   </g>
   <g id="line2d_72">
    <path d="M 447.666183 47.762502 
L 445.666183 46.762502 
L 445.666183 48.762502 
z
" clip-path="url(#p7e3324fb2e)" style="fill: #ff7f0e; fill-opacity: 0.5; stroke: #ff7f0e; stroke-opacity: 0.5; stroke-linejoin: miter"/>
   </g>
   <g id="line2d_73">
    <path d="M 447.666183 104.021837 
L 445.666183 103.021837 
L 445.666183 105.021837 
z
" clip-path="url(#p7e3324fb2e)" style="fill: #ff7f0e; fill-opacity: 0.5; stroke: #ff7f0e; stroke-opacity: 0.5; stroke-linejoin: miter"/>
   </g>
   <g id="line2d_74">
    <path d="M 447.666183 141.693554 
L 445.666183 140.693554 
L 445.666183 142.693554 
z
" clip-path="url(#p7e3324fb2e)" style="fill: #ff7f0e; fill-opacity: 0.5; stroke: #ff7f0e; stroke-opacity: 0.5; stroke-linejoin: miter"/>
   </g>
   <g id="line2d_75">
    <path d="M 447.666183 96.857217 
L 445.666183 95.857217 
L 445.666183 97.857217 
z
" clip-path="url(#p7e3324fb2e)" style="fill: #ff7f0e; fill-opacity: 0.5; stroke: #ff7f0e; stroke-opacity: 0.5; stroke-linejoin: miter"/>
   </g>
   <g id="line2d_76">
    <path d="M 447.666183 53.511793 
L 445.666183 52.511793 
L 445.666183 54.511793 
z
" clip-path="url(#p7e3324fb2e)" style="fill: #ff7f0e; fill-opacity: 0.5; stroke: #ff7f0e; stroke-opacity: 0.5; stroke-linejoin: miter"/>
   </g>
   <g id="line2d_77">
    <path d="M 447.666183 211.175091 
L 445.666183 210.175091 
L 445.666183 212.175091 
z
" clip-path="url(#p7e3324fb2e)" style="fill: #ff7f0e; fill-opacity: 0.5; stroke: #ff7f0e; stroke-opacity: 0.5; stroke-linejoin: miter"/>
   </g>
   <g id="line2d_78">
    <path d="M 447.666183 104.099625 
L 445.666183 103.099625 
L 445.666183 105.099625 
z
" clip-path="url(#p7e3324fb2e)" style="fill: #ff7f0e; fill-opacity: 0.5; stroke: #ff7f0e; stroke-opacity: 0.5; stroke-linejoin: miter"/>
   </g>
   <g id="line2d_79">
    <path d="M 447.666183 251.780047 
L 445.666183 250.780047 
L 445.666183 252.780047 
z
" clip-path="url(#p7e3324fb2e)" style="fill: #ff7f0e; fill-opacity: 0.5; stroke: #ff7f0e; stroke-opacity: 0.5; stroke-linejoin: miter"/>
   </g>
   <g id="line2d_80">
    <path d="M 389.34593 87.310524 
L 391.34593 88.310524 
L 391.34593 86.310524 
z
" clip-path="url(#p7e3324fb2e)" style="fill: #2ca02c; fill-opacity: 0.5; stroke: #2ca02c; stroke-opacity: 0.5; stroke-linejoin: miter"/>
   </g>
   <g id="line2d_81">
    <path d="M 389.34593 282.18416 
L 391.34593 283.18416 
L 391.34593 281.18416 
z
" clip-path="url(#p7e3324fb2e)" style="fill: #2ca02c; fill-opacity: 0.5; stroke: #2ca02c; stroke-opacity: 0.5; stroke-linejoin: miter"/>
   </g>
   <g id="line2d_82">
    <path d="M 389.34593 91.560079 
L 391.34593 92.560079 
L 391.34593 90.560079 
z
" clip-path="url(#p7e3324fb2e)" style="fill: #2ca02c; fill-opacity: 0.5; stroke: #2ca02c; stroke-opacity: 0.5; stroke-linejoin: miter"/>
   </g>
   <g id="line2d_83">
    <path d="M 389.34593 209.587197 
L 391.34593 210.587197 
L 391.34593 208.587197 
z
" clip-path="url(#p7e3324fb2e)" style="fill: #2ca02c; fill-opacity: 0.5; stroke: #2ca02c; stroke-opacity: 0.5; stroke-linejoin: miter"/>
   </g>
   <g id="line2d_84">
    <path d="M 389.34593 143.315133 
L 391.34593 144.315133 
L 391.34593 142.315133 
z
" clip-path="url(#p7e3324fb2e)" style="fill: #2ca02c; fill-opacity: 0.5; stroke: #2ca02c; stroke-opacity: 0.5; stroke-linejoin: miter"/>
   </g>
   <g id="line2d_85">
    <path d="M 389.34593 292.921066 
L 391.34593 293.921066 
L 391.34593 291.921066 
z
" clip-path="url(#p7e3324fb2e)" style="fill: #2ca02c; fill-opacity: 0.5; stroke: #2ca02c; stroke-opacity: 0.5; stroke-linejoin: miter"/>
   </g>
   <g id="line2d_86">
    <path d="M 389.34593 156.720551 
L 391.34593 157.720551 
L 391.34593 155.720551 
z
" clip-path="url(#p7e3324fb2e)" style="fill: #2ca02c; fill-opacity: 0.5; stroke: #2ca02c; stroke-opacity: 0.5; stroke-linejoin: miter"/>
   </g>
   <g id="line2d_87">
    <path d="M 389.34593 252.294907 
L 391.34593 253.294907 
L 391.34593 251.294907 
z
" clip-path="url(#p7e3324fb2e)" style="fill: #2ca02c; fill-opacity: 0.5; stroke: #2ca02c; stroke-opacity: 0.5; stroke-linejoin: miter"/>
   </g>
   <g id="line2d_88">
    <path d="M 389.34593 118.194025 
L 391.34593 119.194025 
L 391.34593 117.194025 
z
" clip-path="url(#p7e3324fb2e)" style="fill: #2ca02c; fill-opacity: 0.5; stroke: #2ca02c; stroke-opacity: 0.5; stroke-linejoin: miter"/>
   </g>
   <g id="line2d_89">
    <path d="M 389.34593 300.665705 
L 391.34593 301.665705 
L 391.34593 299.665705 
z
" clip-path="url(#p7e3324fb2e)" style="fill: #2ca02c; fill-opacity: 0.5; stroke: #2ca02c; stroke-opacity: 0.5; stroke-linejoin: miter"/>
   </g>
   <g id="patch_6">
    <path d="M 46.965625 318.021875 
L 46.965625 22.318125 
" style="fill: none; stroke: #000000; stroke-width: 0.8; stroke-linejoin: miter; stroke-linecap: square"/>
   </g>
   <g id="text_11">
    <!-- stepping_stone_model.yaml -->
    <g transform="translate(239.443437 16.318125) scale(0.12 -0.12)">
     <defs>
      <path id="DejaVuSans-70" d="M 1159 525 
L 1159 -1331 
L 581 -1331 
L 581 3500 
L 1159 3500 
L 1159 2969 
Q 1341 3281 1617 3432 
Q 1894 3584 2278 3584 
Q 2916 3584 3314 3078 
Q 3713 2572 3713 1747 
Q 3713 922 3314 415 
Q 2916 -91 2278 -91 
Q 1894 -91 1617 61 
Q 1341 213 1159 525 
z
M 3116 1747 
Q 3116 2381 2855 2742 
Q 2594 3103 2138 3103 
Q 1681 3103 1420 2742 
Q 1159 2381 1159 1747 
Q 1159 1113 1420 752 
Q 1681 391 2138 391 
Q 2594 391 2855 752 
Q 3116 1113 3116 1747 
z
" transform="scale(0.015625)"/>
      <path id="DejaVuSans-6e" d="M 3513 2113 
L 3513 0 
L 2938 0 
L 2938 2094 
Q 2938 2591 2744 2837 
Q 2550 3084 2163 3084 
Q 1697 3084 1428 2787 
Q 1159 2491 1159 1978 
L 1159 0 
L 581 0 
L 581 3500 
L 1159 3500 
L 1159 2956 
Q 1366 3272 1645 3428 
Q 1925 3584 2291 3584 
Q 2894 3584 3203 3211 
Q 3513 2838 3513 2113 
z
" transform="scale(0.015625)"/>
      <path id="DejaVuSans-5f" d="M 3263 -1063 
L 3263 -1509 
L -63 -1509 
L -63 -1063 
L 3263 -1063 
z
" transform="scale(0.015625)"/>
      <path id="DejaVuSans-6c" d="M 603 4863 
L 1178 4863 
L 1178 0 
L 603 0 
L 603 4863 
z
" transform="scale(0.015625)"/>
      <path id="DejaVuSans-2e" d="M 684 794 
L 1344 794 
L 1344 0 
L 684 0 
L 684 794 
z
" transform="scale(0.015625)"/>
     </defs>
     <use xlink:href="#DejaVuSans-73"/>
     <use xlink:href="#DejaVuSans-74" transform="translate(52.099609 0)"/>
     <use xlink:href="#DejaVuSans-65" transform="translate(91.308594 0)"/>
     <use xlink:href="#DejaVuSans-70" transform="translate(152.832031 0)"/>
     <use xlink:href="#DejaVuSans-70" transform="translate(216.308594 0)"/>
     <use xlink:href="#DejaVuSans-69" transform="translate(279.785156 0)"/>
     <use xlink:href="#DejaVuSans-6e" transform="translate(307.568359 0)"/>
     <use xlink:href="#DejaVuSans-67" transform="translate(370.947266 0)"/>
     <use xlink:href="#DejaVuSans-5f" transform="translate(434.423828 0)"/>
     <use xlink:href="#DejaVuSans-73" transform="translate(484.423828 0)"/>
     <use xlink:href="#DejaVuSans-74" transform="translate(536.523438 0)"/>
     <use xlink:href="#DejaVuSans-6f" transform="translate(575.732422 0)"/>
     <use xlink:href="#DejaVuSans-6e" transform="translate(636.914062 0)"/>
     <use xlink:href="#DejaVuSans-65" transform="translate(700.292969 0)"/>
     <use xlink:href="#DejaVuSans-5f" transform="translate(761.816406 0)"/>
     <use xlink:href="#DejaVuSans-6d" transform="translate(811.816406 0)"/>
     <use xlink:href="#DejaVuSans-6f" transform="translate(909.228516 0)"/>
     <use xlink:href="#DejaVuSans-64" transform="translate(970.410156 0)"/>
     <use xlink:href="#DejaVuSans-65" transform="translate(1033.886719 0)"/>
     <use xlink:href="#DejaVuSans-6c" transform="translate(1095.410156 0)"/>
     <use xlink:href="#DejaVuSans-2e" transform="translate(1123.193359 0)"/>
     <use xlink:href="#DejaVuSans-79" transform="translate(1154.980469 0)"/>
     <use xlink:href="#DejaVuSans-61" transform="translate(1214.160156 0)"/>
     <use xlink:href="#DejaVuSans-6d" transform="translate(1275.439453 0)"/>
     <use xlink:href="#DejaVuSans-6c" transform="translate(1372.851562 0)"/>
    </g>
   </g>
  </g>
 </g>
 <defs>
  <clipPath id="p7e3324fb2e">
   <rect x="46.965625" y="22.318125" width="553.034375" height="295.70375"/>
  </clipPath>
 </defs>
</svg>