<?xml version="1.0" encoding="utf-8" standalone="no"?>
<!DOCTYPE svg PUBLIC "-//W3C//DTD SVG 1.1//EN"
  "http://www.w3.org/Graphics/SVG/1.1/DTD/svg11.dtd">
<svg xmlns:xlink="http://www.w3.org/1999/xlink" width="607.2pt" height="338.4pt" viewBox="0 0 607.2 338.4" xmlns="http://www.w3.org/2000/svg" version="1.1">
 <metadata>
  <rdf:RDF xmlns:dc="http://purl.org/dc/elements/1.1/" xmlns:cc="http://creativecommons.org/ns#" xmlns:rdf="http://www.w3.org/1999/02/22-rdf-syntax-ns#">
   <cc:Work>
    <dc:type rdf:resource="http://purl.org/dc/dcmitype/StillImage"/>
    <dc:date>2023-11-13T09:13:42.753135</dc:date>
    <dc:format>image/svg+xml</dc:format>
    <dc:creator>
     <cc:Agent>
      <dc:title>Matplotlib v3.7.2, https://matplotlib.org/</dc:title>
     </cc:Agent>
    </dc:creator>
   </cc:Work>
  </rdf:RDF>
 </metadata>
 <defs>
  <style type="text/css">*{stroke-linejoin: round; stroke-linecap: butt}</style>
 </defs>
 <g id="figure_1">
  <g id="patch_1">
   <path d="M 0 338.4 
L 607.2 338.4 
L 607.2 0 
L 0 0 
z
" style="fill: #ffffff"/>
  </g>
  <g id="axes_1">
   <g id="patch_2">
    <path d="M 43.78125 318.021875 
L 600 318.021875 
L 600 22.318125 
L 43.78125 22.318125 
z
" style="fill: #ffffff"/>
   </g>
   <path d="M 290.098299 120.992363 
L 291.098299 121.0238 
L 292.098299 121.06074 
L 293.098299 121.158487 
L 294.098299 121.191008 
L 295.098299 121.264633 
L 296.098299 121.303199 
L 297.098299 121.338612 
L 298.098299 121.396252 
L 299.098299 121.466638 
L 300.098299 121.518602 
L 301.098299 121.577692 
L 302.098299 121.666013 
L 303.098299 121.712157 
L 304.098299 121.754568 
L 305.098299 121.785061 
L 306.098299 121.811106 
L 307.098299 121.832306 
L 308.098299 121.886607 
L 309.098299 121.914545 
L 310.098299 121.944268 
L 311.098299 121.969663 
L 312.098299 121.980864 
L 313.098299 121.990988 
L 314.098299 121.990783 
L 315.098299 121.981273 
L 316.098299 121.96962 
L 317.098299 121.938591 
L 318.098299 121.927423 
L 319.098299 121.897305 
L 320.098299 121.837528 
L 321.098299 121.800337 
L 322.098299 121.761241 
L 323.098299 121.718801 
L 324.098299 121.686036 
L 325.098299 121.618609 
L 326.098299 121.579483 
L 327.098299 121.536809 
L 328.098299 121.466228 
L 329.098299 121.429837 
L 330.098299 121.371434 
L 331.098299 121.260482 
L 332.098299 121.189823 
L 333.098299 121.076884 
L 334.098299 121.031111 
L 335.098299 120.969827 
L 336.098299 120.921328 
L 337.098299 120.840505 
L 338.098299 120.721986 
L 339.098299 120.651776 
L 340.098299 120.568513 
L 341.098299 120.535372 
L 342.098299 120.484134 
L 343.098299 120.415736 
L 344.098299 120.349521 
L 345.098299 120.272603 
L 346.098299 120.245288 
L 347.098299 120.21881 
L 348.098299 120.19616 
L 349.098299 120.176629 
L 350.098299 120.150235 
L 351.098299 120.100464 
L 352.098299 120.065391 
L 353.682951 120.029525 
" clip-path="url(#p654af86d2b)" style="fill: none; stroke: #1f77b4; stroke-opacity: 0.5; stroke-width: 0.2; stroke-linecap: square"/>
   <path d="M 290.098299 153.088552 
L 291.098299 153.119988 
L 292.098299 153.156929 
L 293.098299 153.254675 
L 294.098299 153.287197 
L 295.098299 153.360822 
L 296.098299 153.399387 
L 297.098299 153.4348 
L 298.098299 153.49244 
L 299.098299 153.562826 
L 300.098299 153.614791 
L 301.098299 153.67388 
L 302.098299 153.762201 
L 303.098299 153.808346 
L 304.098299 153.850757 
L 305.098299 153.881249 
L 306.098299 153.907294 
L 307.098299 153.928494 
L 308.098299 153.982795 
L 309.098299 154.010733 
L 310.098299 154.040457 
L 311.098299 154.065852 
L 312.098299 154.077052 
L 313.098299 154.087176 
L 314.098299 154.086972 
L 315.098299 154.077462 
L 316.098299 154.065808 
L 317.098299 154.034779 
L 318.098299 154.023611 
L 319.098299 153.993494 
L 320.098299 153.933717 
L 321.098299 153.896525 
L 322.098299 153.857429 
L 323.098299 153.814989 
L 324.098299 153.782224 
L 325.098299 153.714798 
L 326.098299 153.675672 
L 327.098299 153.632997 
L 328.098299 153.562417 
L 329.098299 153.526026 
L 330.098299 153.467623 
L 331.098299 153.35667 
L 332.098299 153.286012 
L 333.098299 153.173072 
L 334.098299 153.127299 
L 335.098299 153.066016 
L 336.098299 153.017517 
L 337.098299 152.936694 
L 338.098299 152.818175 
L 339.098299 152.747964 
L 340.098299 152.664702 
L 341.098299 152.63156 
L 342.098299 152.580323 
L 343.098299 152.511924 
L 344.098299 152.445709 
L 345.098299 152.368792 
L 346.098299 152.341476 
L 347.098299 152.314999 
L 348.098299 152.292348 
L 349.098299 152.272817 
L 350.098299 152.246423 
L 351.098299 152.196652 
L 352.098299 152.161579 
L 353.682951 152.125713 
" clip-path="url(#p654af86d2b)" style="fill: none; stroke: #1f77b4; stroke-opacity: 0.5; stroke-width: 0.2; stroke-linecap: square"/>
   <path d="M 290.098299 83.428942 
L 291.098299 83.460378 
L 292.098299 83.497318 
L 293.098299 83.595065 
L 294.098299 83.627587 
L 295.098299 83.701211 
L 296.098299 83.739777 
L 297.098299 83.77519 
L 298.098299 83.83283 
L 299.098299 83.903216 
L 300.098299 83.95518 
L 301.098299 84.01427 
L 302.098299 84.102591 
L 303.098299 84.148735 
L 304.098299 84.191146 
L 305.098299 84.221639 
L 306.098299 84.247684 
L 307.098299 84.268884 
L 308.098299 84.323185 
L 309.098299 84.351123 
L 310.098299 84.380847 
L 311.098299 84.406241 
L 312.098299 84.417442 
L 313.098299 84.427566 
L 314.098299 84.427361 
L 315.098299 84.417852 
L 316.098299 84.406198 
L 317.098299 84.375169 
L 318.098299 84.364001 
L 319.098299 84.333883 
L 320.098299 84.274106 
L 321.098299 84.236915 
L 322.098299 84.197819 
L 323.098299 84.155379 
L 324.098299 84.122614 
L 325.098299 84.055188 
L 326.098299 84.016062 
L 327.098299 83.973387 
L 328.098299 83.902806 
L 329.098299 83.866416 
L 330.098299 83.808012 
L 331.098299 83.69706 
L 332.098299 83.626402 
L 333.098299 83.513462 
L 334.098299 83.467689 
L 335.098299 83.406406 
L 336.098299 83.357906 
L 337.098299 83.277084 
L 338.098299 83.158565 
L 339.098299 83.088354 
L 340.098299 83.005092 
L 341.098299 82.97195 
L 342.098299 82.920712 
L 343.098299 82.852314 
L 344.098299 82.786099 
L 345.098299 82.709182 
L 346.098299 82.681866 
L 347.098299 82.655389 
L 348.098299 82.632738 
L 349.098299 82.613207 
L 350.098299 82.586813 
L 351.098299 82.537042 
L 352.098299 82.501969 
L 353.682951 82.466103 
" clip-path="url(#p654af86d2b)" style="fill: none; stroke: #1f77b4; stroke-opacity: 0.5; stroke-width: 0.2; stroke-linecap: square"/>
   <path d="M 290.098299 146.311183 
L 291.098299 146.342619 
L 292.098299 146.379559 
L 293.098299 146.477306 
L 294.098299 146.509827 
L 295.098299 146.583452 
L 296.098299 146.622018 
L 297.098299 146.657431 
L 298.098299 146.715071 
L 299.098299 146.785457 
L 300.098299 146.837421 
L 301.098299 146.896511 
L 302.098299 146.984832 
L 303.098299 147.030976 
L 304.098299 147.073387 
L 305.098299 147.10388 
L 306.098299 147.129925 
L 307.098299 147.151125 
L 308.098299 147.205426 
L 309.098299 147.233364 
L 310.098299 147.263088 
L 311.098299 147.288482 
L 312.098299 147.299683 
L 313.098299 147.309807 
L 314.098299 147.309602 
L 315.098299 147.300092 
L 316.098299 147.288439 
L 317.098299 147.25741 
L 318.098299 147.246242 
L 319.098299 147.216124 
L 320.098299 147.156347 
L 321.098299 147.119156 
L 322.098299 147.08006 
L 323.098299 147.03762 
L 324.098299 147.004855 
L 325.098299 146.937428 
L 326.098299 146.898302 
L 327.098299 146.855628 
L 328.098299 146.785047 
L 329.098299 146.748656 
L 330.098299 146.690253 
L 331.098299 146.579301 
L 332.098299 146.508642 
L 333.098299 146.395703 
L 334.098299 146.34993 
L 335.098299 146.288646 
L 336.098299 146.240147 
L 337.098299 146.159324 
L 338.098299 146.040806 
L 339.098299 145.970595 
L 340.098299 145.887332 
L 341.098299 145.854191 
L 342.098299 145.802953 
L 343.098299 145.734555 
L 344.098299 145.66834 
L 345.098299 145.591423 
L 346.098299 145.564107 
L 347.098299 145.53763 
L 348.098299 145.514979 
L 349.098299 145.495448 
L 350.098299 145.469054 
L 351.098299 145.419283 
L 352.098299 145.38421 
L 353.682951 145.348344 
" clip-path="url(#p654af86d2b)" style="fill: none; stroke: #1f77b4; stroke-opacity: 0.5; stroke-width: 0.2; stroke-linecap: square"/>
   <path d="M 290.098299 91.329408 
L 291.098299 91.360844 
L 292.098299 91.397784 
L 293.098299 91.495531 
L 294.098299 91.528053 
L 295.098299 91.601677 
L 296.098299 91.640243 
L 297.098299 91.675656 
L 298.098299 91.733296 
L 299.098299 91.803682 
L 300.098299 91.855646 
L 301.098299 91.914736 
L 302.098299 92.003057 
L 303.098299 92.049201 
L 304.098299 92.091612 
L 305.098299 92.122105 
L 306.098299 92.14815 
L 307.098299 92.16935 
L 308.098299 92.223651 
L 309.098299 92.251589 
L 310.098299 92.281313 
L 311.098299 92.306707 
L 312.098299 92.317908 
L 313.098299 92.328032 
L 314.098299 92.327827 
L 315.098299 92.318318 
L 316.098299 92.306664 
L 317.098299 92.275635 
L 318.098299 92.264467 
L 319.098299 92.234349 
L 320.098299 92.174572 
L 321.098299 92.137381 
L 322.098299 92.098285 
L 323.098299 92.055845 
L 324.098299 92.02308 
L 325.098299 91.955654 
L 326.098299 91.916528 
L 327.098299 91.873853 
L 328.098299 91.803272 
L 329.098299 91.766882 
L 330.098299 91.708478 
L 331.098299 91.597526 
L 332.098299 91.526868 
L 333.098299 91.413928 
L 334.098299 91.368155 
L 335.098299 91.306872 
L 336.098299 91.258372 
L 337.098299 91.17755 
L 338.098299 91.059031 
L 339.098299 90.98882 
L 340.098299 90.905558 
L 341.098299 90.872416 
L 342.098299 90.821178 
L 343.098299 90.75278 
L 344.098299 90.686565 
L 345.098299 90.609648 
L 346.098299 90.582332 
L 347.098299 90.555855 
L 348.098299 90.533204 
L 349.098299 90.513673 
L 350.098299 90.487279 
L 351.098299 90.437508 
L 352.098299 90.402435 
L 353.682951 90.366569 
" clip-path="url(#p654af86d2b)" style="fill: none; stroke: #1f77b4; stroke-opacity: 0.5; stroke-width: 0.2; stroke-linecap: square"/>
   <path d="M 290.098299 164.912958 
L 291.098299 164.944395 
L 292.098299 164.981335 
L 293.098299 165.079082 
L 294.098299 165.111603 
L 295.098299 165.185228 
L 296.098299 165.223793 
L 297.098299 165.259207 
L 298.098299 165.316847 
L 299.098299 165.387233 
L 300.098299 165.439197 
L 301.098299 165.498287 
L 302.098299 165.586608 
L 303.098299 165.632752 
L 304.098299 165.675163 
L 305.098299 165.705656 
L 306.098299 165.731701 
L 307.098299 165.752901 
L 308.098299 165.807202 
L 309.098299 165.835139 
L 310.098299 165.864863 
L 311.098299 165.890258 
L 312.098299 165.901458 
L 313.098299 165.911582 
L 314.098299 165.911378 
L 315.098299 165.901868 
L 316.098299 165.890215 
L 317.098299 165.859185 
L 318.098299 165.848017 
L 319.098299 165.8179 
L 320.098299 165.758123 
L 321.098299 165.720931 
L 322.098299 165.681835 
L 323.098299 165.639396 
L 324.098299 165.606631 
L 325.098299 165.539204 
L 326.098299 165.500078 
L 327.098299 165.457404 
L 328.098299 165.386823 
L 329.098299 165.350432 
L 330.098299 165.292029 
L 331.098299 165.181076 
L 332.098299 165.110418 
L 333.098299 164.997478 
L 334.098299 164.951705 
L 335.098299 164.890422 
L 336.098299 164.841923 
L 337.098299 164.7611 
L 338.098299 164.642581 
L 339.098299 164.572371 
L 340.098299 164.489108 
L 341.098299 164.455966 
L 342.098299 164.404729 
L 343.098299 164.336331 
L 344.098299 164.270115 
L 345.098299 164.193198 
L 346.098299 164.165883 
L 347.098299 164.139405 
L 348.098299 164.116755 
L 349.098299 164.097223 
L 350.098299 164.070829 
L 351.098299 164.021058 
L 352.098299 163.985985 
L 353.682951 163.95012 
" clip-path="url(#p654af86d2b)" style="fill: none; stroke: #1f77b4; stroke-opacity: 0.5; stroke-width: 0.2; stroke-linecap: square"/>
   <path d="M 290.098299 136.112027 
L 291.098299 136.143464 
L 292.098299 136.180404 
L 293.098299 136.278151 
L 294.098299 136.310672 
L 295.098299 136.384297 
L 296.098299 136.422862 
L 297.098299 136.458276 
L 298.098299 136.515916 
L 299.098299 136.586302 
L 300.098299 136.638266 
L 301.098299 136.697356 
L 302.098299 136.785677 
L 303.098299 136.831821 
L 304.098299 136.874232 
L 305.098299 136.904725 
L 306.098299 136.93077 
L 307.098299 136.95197 
L 308.098299 137.006271 
L 309.098299 137.034208 
L 310.098299 137.063932 
L 311.098299 137.089327 
L 312.098299 137.100528 
L 313.098299 137.110651 
L 314.098299 137.110447 
L 315.098299 137.100937 
L 316.098299 137.089284 
L 317.098299 137.058254 
L 318.098299 137.047086 
L 319.098299 137.016969 
L 320.098299 136.957192 
L 321.098299 136.92 
L 322.098299 136.880904 
L 323.098299 136.838465 
L 324.098299 136.8057 
L 325.098299 136.738273 
L 326.098299 136.699147 
L 327.098299 136.656473 
L 328.098299 136.585892 
L 329.098299 136.549501 
L 330.098299 136.491098 
L 331.098299 136.380146 
L 332.098299 136.309487 
L 333.098299 136.196547 
L 334.098299 136.150774 
L 335.098299 136.089491 
L 336.098299 136.040992 
L 337.098299 135.960169 
L 338.098299 135.84165 
L 339.098299 135.77144 
L 340.098299 135.688177 
L 341.098299 135.655035 
L 342.098299 135.603798 
L 343.098299 135.5354 
L 344.098299 135.469184 
L 345.098299 135.392267 
L 346.098299 135.364952 
L 347.098299 135.338474 
L 348.098299 135.315824 
L 349.098299 135.296292 
L 350.098299 135.269898 
L 351.098299 135.220128 
L 352.098299 135.185054 
L 353.682951 135.149189 
" clip-path="url(#p654af86d2b)" style="fill: none; stroke: #1f77b4; stroke-opacity: 0.5; stroke-width: 0.2; stroke-linecap: square"/>
   <path d="M 290.098299 85.722379 
L 291.098299 85.753816 
L 292.098299 85.790756 
L 293.098299 85.888503 
L 294.098299 85.921024 
L 295.098299 85.994649 
L 296.098299 86.033215 
L 297.098299 86.068628 
L 298.098299 86.126268 
L 299.098299 86.196654 
L 300.098299 86.248618 
L 301.098299 86.307708 
L 302.098299 86.396029 
L 303.098299 86.442173 
L 304.098299 86.484584 
L 305.098299 86.515077 
L 306.098299 86.541122 
L 307.098299 86.562322 
L 308.098299 86.616623 
L 309.098299 86.64456 
L 310.098299 86.674284 
L 311.098299 86.699679 
L 312.098299 86.71088 
L 313.098299 86.721004 
L 314.098299 86.720799 
L 315.098299 86.711289 
L 316.098299 86.699636 
L 317.098299 86.668606 
L 318.098299 86.657439 
L 319.098299 86.627321 
L 320.098299 86.567544 
L 321.098299 86.530353 
L 322.098299 86.491256 
L 323.098299 86.448817 
L 324.098299 86.416052 
L 325.098299 86.348625 
L 326.098299 86.309499 
L 327.098299 86.266825 
L 328.098299 86.196244 
L 329.098299 86.159853 
L 330.098299 86.10145 
L 331.098299 85.990498 
L 332.098299 85.919839 
L 333.098299 85.806899 
L 334.098299 85.761127 
L 335.098299 85.699843 
L 336.098299 85.651344 
L 337.098299 85.570521 
L 338.098299 85.452002 
L 339.098299 85.381792 
L 340.098299 85.298529 
L 341.098299 85.265388 
L 342.098299 85.21415 
L 343.098299 85.145752 
L 344.098299 85.079536 
L 345.098299 85.002619 
L 346.098299 84.975304 
L 347.098299 84.948826 
L 348.098299 84.926176 
L 349.098299 84.906644 
L 350.098299 84.88025 
L 351.098299 84.83048 
L 352.098299 84.795406 
L 353.682951 84.759541 
" clip-path="url(#p654af86d2b)" style="fill: none; stroke: #1f77b4; stroke-opacity: 0.5; stroke-width: 0.2; stroke-linecap: square"/>
   <path d="M 290.098299 188.597607 
L 291.098299 188.629043 
L 292.098299 188.665984 
L 293.098299 188.76373 
L 294.098299 188.796252 
L 295.098299 188.869876 
L 296.098299 188.908442 
L 297.098299 188.943855 
L 298.098299 189.001495 
L 299.098299 189.071881 
L 300.098299 189.123845 
L 301.098299 189.182935 
L 302.098299 189.271256 
L 303.098299 189.3174 
L 304.098299 189.359811 
L 305.098299 189.390304 
L 306.098299 189.416349 
L 307.098299 189.437549 
L 308.098299 189.49185 
L 309.098299 189.519788 
L 310.098299 189.549512 
L 311.098299 189.574907 
L 312.098299 189.586107 
L 313.098299 189.596231 
L 314.098299 189.596027 
L 315.098299 189.586517 
L 316.098299 189.574863 
L 317.098299 189.543834 
L 318.098299 189.532666 
L 319.098299 189.502548 
L 320.098299 189.442771 
L 321.098299 189.40558 
L 322.098299 189.366484 
L 323.098299 189.324044 
L 324.098299 189.291279 
L 325.098299 189.223853 
L 326.098299 189.184727 
L 327.098299 189.142052 
L 328.098299 189.071472 
L 329.098299 189.035081 
L 330.098299 188.976678 
L 331.098299 188.865725 
L 332.098299 188.795067 
L 333.098299 188.682127 
L 334.098299 188.636354 
L 335.098299 188.575071 
L 336.098299 188.526571 
L 337.098299 188.445749 
L 338.098299 188.32723 
L 339.098299 188.257019 
L 340.098299 188.173757 
L 341.098299 188.140615 
L 342.098299 188.089378 
L 343.098299 188.020979 
L 344.098299 187.954764 
L 345.098299 187.877847 
L 346.098299 187.850531 
L 347.098299 187.824054 
L 348.098299 187.801403 
L 349.098299 187.781872 
L 350.098299 187.755478 
L 351.098299 187.705707 
L 352.098299 187.670634 
L 353.682951 187.634768 
" clip-path="url(#p654af86d2b)" style="fill: none; stroke: #1f77b4; stroke-opacity: 0.5; stroke-width: 0.2; stroke-linecap: square"/>
   <path d="M 290.098299 108.11708 
L 291.098299 108.148517 
L 292.098299 108.185457 
L 293.098299 108.283204 
L 294.098299 108.315725 
L 295.098299 108.38935 
L 296.098299 108.427916 
L 297.098299 108.463329 
L 298.098299 108.520969 
L 299.098299 108.591355 
L 300.098299 108.643319 
L 301.098299 108.702409 
L 302.098299 108.79073 
L 303.098299 108.836874 
L 304.098299 108.879285 
L 305.098299 108.909778 
L 306.098299 108.935823 
L 307.098299 108.957023 
L 308.098299 109.011324 
L 309.098299 109.039261 
L 310.098299 109.068985 
L 311.098299 109.09438 
L 312.098299 109.105581 
L 313.098299 109.115705 
L 314.098299 109.1155 
L 315.098299 109.10599 
L 316.098299 109.094337 
L 317.098299 109.063308 
L 318.098299 109.05214 
L 319.098299 109.022022 
L 320.098299 108.962245 
L 321.098299 108.925054 
L 322.098299 108.885958 
L 323.098299 108.843518 
L 324.098299 108.810753 
L 325.098299 108.743326 
L 326.098299 108.7042 
L 327.098299 108.661526 
L 328.098299 108.590945 
L 329.098299 108.554554 
L 330.098299 108.496151 
L 331.098299 108.385199 
L 332.098299 108.31454 
L 333.098299 108.2016 
L 334.098299 108.155828 
L 335.098299 108.094544 
L 336.098299 108.046045 
L 337.098299 107.965222 
L 338.098299 107.846703 
L 339.098299 107.776493 
L 340.098299 107.69323 
L 341.098299 107.660089 
L 342.098299 107.608851 
L 343.098299 107.540453 
L 344.098299 107.474237 
L 345.098299 107.39732 
L 346.098299 107.370005 
L 347.098299 107.343527 
L 348.098299 107.320877 
L 349.098299 107.301345 
L 350.098299 107.274952 
L 351.098299 107.225181 
L 352.098299 107.190108 
L 353.682951 107.154242 
" clip-path="url(#p654af86d2b)" style="fill: none; stroke: #1f77b4; stroke-opacity: 0.5; stroke-width: 0.2; stroke-linecap: square"/>
   <path d="M 290.098299 251.74899 
L 291.098299 251.780426 
L 292.098299 251.817367 
L 293.098299 251.915113 
L 294.098299 251.947635 
L 295.098299 252.02126 
L 296.098299 252.059825 
L 297.098299 252.095238 
L 298.098299 252.152878 
L 299.098299 252.223264 
L 300.098299 252.275229 
L 301.098299 252.334318 
L 302.098299 252.422639 
L 303.098299 252.468784 
L 304.098299 252.511195 
L 305.098299 252.541687 
L 306.098299 252.567732 
L 307.098299 252.588932 
L 308.098299 252.643233 
L 309.098299 252.671171 
L 310.098299 252.700895 
L 311.098299 252.72629 
L 312.098299 252.73749 
L 313.098299 252.747614 
L 314.098299 252.74741 
L 315.098299 252.7379 
L 316.098299 252.726246 
L 317.098299 252.695217 
L 318.098299 252.684049 
L 319.098299 252.653932 
L 320.098299 252.594155 
L 321.098299 252.556963 
L 322.098299 252.517867 
L 323.098299 252.475427 
L 324.098299 252.442662 
L 325.098299 252.375236 
L 326.098299 252.33611 
L 327.098299 252.293435 
L 328.098299 252.222855 
L 329.098299 252.186464 
L 330.098299 252.128061 
L 331.098299 252.017108 
L 332.098299 251.94645 
L 333.098299 251.83351 
L 334.098299 251.787737 
L 335.098299 251.726454 
L 336.098299 251.677955 
L 337.098299 251.597132 
L 338.098299 251.478613 
L 339.098299 251.408402 
L 340.098299 251.32514 
L 341.098299 251.291998 
L 342.098299 251.240761 
L 343.098299 251.172362 
L 344.098299 251.106147 
L 345.098299 251.02923 
L 346.098299 251.001914 
L 347.098299 250.975437 
L 348.098299 250.952786 
L 349.098299 250.933255 
L 350.098299 250.906861 
L 351.098299 250.85709 
L 352.098299 250.822017 
L 353.682951 250.786151 
" clip-path="url(#p654af86d2b)" style="fill: none; stroke: #1f77b4; stroke-opacity: 0.5; stroke-width: 0.2; stroke-linecap: square"/>
   <path d="M 290.098299 295.036592 
L 291.098299 295.068028 
L 292.098299 295.104969 
L 293.098299 295.202715 
L 294.098299 295.235237 
L 295.098299 295.308861 
L 296.098299 295.347427 
L 297.098299 295.38284 
L 298.098299 295.44048 
L 299.098299 295.510866 
L 300.098299 295.562831 
L 301.098299 295.62192 
L 302.098299 295.710241 
L 303.098299 295.756386 
L 304.098299 295.798797 
L 305.098299 295.829289 
L 306.098299 295.855334 
L 307.098299 295.876534 
L 308.098299 295.930835 
L 309.098299 295.958773 
L 310.098299 295.988497 
L 311.098299 296.013892 
L 312.098299 296.025092 
L 313.098299 296.035216 
L 314.098299 296.035012 
L 315.098299 296.025502 
L 316.098299 296.013848 
L 317.098299 295.982819 
L 318.098299 295.971651 
L 319.098299 295.941534 
L 320.098299 295.881757 
L 321.098299 295.844565 
L 322.098299 295.805469 
L 323.098299 295.763029 
L 324.098299 295.730264 
L 325.098299 295.662838 
L 326.098299 295.623712 
L 327.098299 295.581037 
L 328.098299 295.510457 
L 329.098299 295.474066 
L 330.098299 295.415663 
L 331.098299 295.30471 
L 332.098299 295.234052 
L 333.098299 295.121112 
L 334.098299 295.075339 
L 335.098299 295.014056 
L 336.098299 294.965556 
L 337.098299 294.884734 
L 338.098299 294.766215 
L 339.098299 294.696004 
L 340.098299 294.612742 
L 341.098299 294.5796 
L 342.098299 294.528363 
L 343.098299 294.459964 
L 344.098299 294.393749 
L 345.098299 294.316832 
L 346.098299 294.289516 
L 347.098299 294.263039 
L 348.098299 294.240388 
L 349.098299 294.220857 
L 350.098299 294.194463 
L 351.098299 294.144692 
L 352.098299 294.109619 
L 353.682951 294.073753 
" clip-path="url(#p654af86d2b)" style="fill: none; stroke: #1f77b4; stroke-opacity: 0.5; stroke-width: 0.2; stroke-linecap: square"/>
   <path d="M 290.098299 223.033467 
L 291.098299 223.064903 
L 292.098299 223.101844 
L 293.098299 223.19959 
L 294.098299 223.232112 
L 295.098299 223.305736 
L 296.098299 223.344302 
L 297.098299 223.379715 
L 298.098299 223.437355 
L 299.098299 223.507741 
L 300.098299 223.559705 
L 301.098299 223.618795 
L 302.098299 223.707116 
L 303.098299 223.75326 
L 304.098299 223.795671 
L 305.098299 223.826164 
L 306.098299 223.852209 
L 307.098299 223.873409 
L 308.098299 223.92771 
L 309.098299 223.955648 
L 310.098299 223.985372 
L 311.098299 224.010767 
L 312.098299 224.021967 
L 313.098299 224.032091 
L 314.098299 224.031887 
L 315.098299 224.022377 
L 316.098299 224.010723 
L 317.098299 223.979694 
L 318.098299 223.968526 
L 319.098299 223.938408 
L 320.098299 223.878631 
L 321.098299 223.84144 
L 322.098299 223.802344 
L 323.098299 223.759904 
L 324.098299 223.727139 
L 325.098299 223.659713 
L 326.098299 223.620587 
L 327.098299 223.577912 
L 328.098299 223.507332 
L 329.098299 223.470941 
L 330.098299 223.412538 
L 331.098299 223.301585 
L 332.098299 223.230927 
L 333.098299 223.117987 
L 334.098299 223.072214 
L 335.098299 223.010931 
L 336.098299 222.962431 
L 337.098299 222.881609 
L 338.098299 222.76309 
L 339.098299 222.692879 
L 340.098299 222.609617 
L 341.098299 222.576475 
L 342.098299 222.525238 
L 343.098299 222.456839 
L 344.098299 222.390624 
L 345.098299 222.313707 
L 346.098299 222.286391 
L 347.098299 222.259914 
L 348.098299 222.237263 
L 349.098299 222.217732 
L 350.098299 222.191338 
L 351.098299 222.141567 
L 352.098299 222.106494 
L 353.682951 222.070628 
" clip-path="url(#p654af86d2b)" style="fill: none; stroke: #1f77b4; stroke-opacity: 0.5; stroke-width: 0.2; stroke-linecap: square"/>
   <path d="M 290.098299 222.524564 
L 291.098299 222.556 
L 292.098299 222.592941 
L 293.098299 222.690687 
L 294.098299 222.723209 
L 295.098299 222.796833 
L 296.098299 222.835399 
L 297.098299 222.870812 
L 298.098299 222.928452 
L 299.098299 222.998838 
L 300.098299 223.050802 
L 301.098299 223.109892 
L 302.098299 223.198213 
L 303.098299 223.244357 
L 304.098299 223.286768 
L 305.098299 223.317261 
L 306.098299 223.343306 
L 307.098299 223.364506 
L 308.098299 223.418807 
L 309.098299 223.446745 
L 310.098299 223.476469 
L 311.098299 223.501864 
L 312.098299 223.513064 
L 313.098299 223.523188 
L 314.098299 223.522984 
L 315.098299 223.513474 
L 316.098299 223.50182 
L 317.098299 223.470791 
L 318.098299 223.459623 
L 319.098299 223.429505 
L 320.098299 223.369728 
L 321.098299 223.332537 
L 322.098299 223.293441 
L 323.098299 223.251001 
L 324.098299 223.218236 
L 325.098299 223.15081 
L 326.098299 223.111684 
L 327.098299 223.069009 
L 328.098299 222.998429 
L 329.098299 222.962038 
L 330.098299 222.903635 
L 331.098299 222.792682 
L 332.098299 222.722024 
L 333.098299 222.609084 
L 334.098299 222.563311 
L 335.098299 222.502028 
L 336.098299 222.453528 
L 337.098299 222.372706 
L 338.098299 222.254187 
L 339.098299 222.183976 
L 340.098299 222.100714 
L 341.098299 222.067572 
L 342.098299 222.016335 
L 343.098299 221.947936 
L 344.098299 221.881721 
L 345.098299 221.804804 
L 346.098299 221.777488 
L 347.098299 221.751011 
L 348.098299 221.72836 
L 349.098299 221.708829 
L 350.098299 221.682435 
L 351.098299 221.632664 
L 352.098299 221.597591 
L 353.682951 221.561725 
" clip-path="url(#p654af86d2b)" style="fill: none; stroke: #1f77b4; stroke-opacity: 0.5; stroke-width: 0.2; stroke-linecap: square"/>
   <path d="M 290.098299 209.061233 
L 291.098299 209.092669 
L 292.098299 209.129609 
L 293.098299 209.227356 
L 294.098299 209.259878 
L 295.098299 209.333502 
L 296.098299 209.372068 
L 297.098299 209.407481 
L 298.098299 209.465121 
L 299.098299 209.535507 
L 300.098299 209.587471 
L 301.098299 209.646561 
L 302.098299 209.734882 
L 303.098299 209.781026 
L 304.098299 209.823437 
L 305.098299 209.85393 
L 306.098299 209.879975 
L 307.098299 209.901175 
L 308.098299 209.955476 
L 309.098299 209.983414 
L 310.098299 210.013138 
L 311.098299 210.038532 
L 312.098299 210.049733 
L 313.098299 210.059857 
L 314.098299 210.059652 
L 315.098299 210.050143 
L 316.098299 210.038489 
L 317.098299 210.00746 
L 318.098299 209.996292 
L 319.098299 209.966174 
L 320.098299 209.906397 
L 321.098299 209.869206 
L 322.098299 209.83011 
L 323.098299 209.78767 
L 324.098299 209.754905 
L 325.098299 209.687478 
L 326.098299 209.648353 
L 327.098299 209.605678 
L 328.098299 209.535097 
L 329.098299 209.498707 
L 330.098299 209.440303 
L 331.098299 209.329351 
L 332.098299 209.258693 
L 333.098299 209.145753 
L 334.098299 209.09998 
L 335.098299 209.038697 
L 336.098299 208.990197 
L 337.098299 208.909375 
L 338.098299 208.790856 
L 339.098299 208.720645 
L 340.098299 208.637383 
L 341.098299 208.604241 
L 342.098299 208.553003 
L 343.098299 208.484605 
L 344.098299 208.41839 
L 345.098299 208.341473 
L 346.098299 208.314157 
L 347.098299 208.28768 
L 348.098299 208.265029 
L 349.098299 208.245498 
L 350.098299 208.219104 
L 351.098299 208.169333 
L 352.098299 208.13426 
L 353.682951 208.098394 
" clip-path="url(#p654af86d2b)" style="fill: none; stroke: #1f77b4; stroke-opacity: 0.5; stroke-width: 0.2; stroke-linecap: square"/>
   <path d="M 290.098299 239.651222 
L 291.098299 239.682658 
L 292.098299 239.719598 
L 293.098299 239.817345 
L 294.098299 239.849867 
L 295.098299 239.923491 
L 296.098299 239.962057 
L 297.098299 239.99747 
L 298.098299 240.05511 
L 299.098299 240.125496 
L 300.098299 240.17746 
L 301.098299 240.23655 
L 302.098299 240.324871 
L 303.098299 240.371015 
L 304.098299 240.413426 
L 305.098299 240.443919 
L 306.098299 240.469964 
L 307.098299 240.491164 
L 308.098299 240.545465 
L 309.098299 240.573403 
L 310.098299 240.603127 
L 311.098299 240.628521 
L 312.098299 240.639722 
L 313.098299 240.649846 
L 314.098299 240.649642 
L 315.098299 240.640132 
L 316.098299 240.628478 
L 317.098299 240.597449 
L 318.098299 240.586281 
L 319.098299 240.556163 
L 320.098299 240.496386 
L 321.098299 240.459195 
L 322.098299 240.420099 
L 323.098299 240.377659 
L 324.098299 240.344894 
L 325.098299 240.277468 
L 326.098299 240.238342 
L 327.098299 240.195667 
L 328.098299 240.125087 
L 329.098299 240.088696 
L 330.098299 240.030292 
L 331.098299 239.91934 
L 332.098299 239.848682 
L 333.098299 239.735742 
L 334.098299 239.689969 
L 335.098299 239.628686 
L 336.098299 239.580186 
L 337.098299 239.499364 
L 338.098299 239.380845 
L 339.098299 239.310634 
L 340.098299 239.227372 
L 341.098299 239.19423 
L 342.098299 239.142993 
L 343.098299 239.074594 
L 344.098299 239.008379 
L 345.098299 238.931462 
L 346.098299 238.904146 
L 347.098299 238.877669 
L 348.098299 238.855018 
L 349.098299 238.835487 
L 350.098299 238.809093 
L 351.098299 238.759322 
L 352.098299 238.724249 
L 353.682951 238.688383 
" clip-path="url(#p654af86d2b)" style="fill: none; stroke: #1f77b4; stroke-opacity: 0.5; stroke-width: 0.2; stroke-linecap: square"/>
   <path d="M 290.098299 222.472152 
L 291.098299 222.503588 
L 292.098299 222.540528 
L 293.098299 222.638275 
L 294.098299 222.670796 
L 295.098299 222.744421 
L 296.098299 222.782987 
L 297.098299 222.8184 
L 298.098299 222.87604 
L 299.098299 222.946426 
L 300.098299 222.99839 
L 301.098299 223.05748 
L 302.098299 223.145801 
L 303.098299 223.191945 
L 304.098299 223.234356 
L 305.098299 223.264849 
L 306.098299 223.290894 
L 307.098299 223.312094 
L 308.098299 223.366395 
L 309.098299 223.394333 
L 310.098299 223.424057 
L 311.098299 223.449451 
L 312.098299 223.460652 
L 313.098299 223.470776 
L 314.098299 223.470571 
L 315.098299 223.461061 
L 316.098299 223.449408 
L 317.098299 223.418379 
L 318.098299 223.407211 
L 319.098299 223.377093 
L 320.098299 223.317316 
L 321.098299 223.280125 
L 322.098299 223.241029 
L 323.098299 223.198589 
L 324.098299 223.165824 
L 325.098299 223.098397 
L 326.098299 223.059271 
L 327.098299 223.016597 
L 328.098299 222.946016 
L 329.098299 222.909625 
L 330.098299 222.851222 
L 331.098299 222.74027 
L 332.098299 222.669611 
L 333.098299 222.556672 
L 334.098299 222.510899 
L 335.098299 222.449615 
L 336.098299 222.401116 
L 337.098299 222.320293 
L 338.098299 222.201775 
L 339.098299 222.131564 
L 340.098299 222.048301 
L 341.098299 222.01516 
L 342.098299 221.963922 
L 343.098299 221.895524 
L 344.098299 221.829309 
L 345.098299 221.752391 
L 346.098299 221.725076 
L 347.098299 221.698598 
L 348.098299 221.675948 
L 349.098299 221.656417 
L 350.098299 221.630023 
L 351.098299 221.580252 
L 352.098299 221.545179 
L 353.682951 221.509313 
" clip-path="url(#p654af86d2b)" style="fill: none; stroke: #1f77b4; stroke-opacity: 0.5; stroke-width: 0.2; stroke-linecap: square"/>
   <path d="M 290.098299 253.995499 
L 291.098299 254.026935 
L 292.098299 254.063876 
L 293.098299 254.161622 
L 294.098299 254.194144 
L 295.098299 254.267768 
L 296.098299 254.306334 
L 297.098299 254.341747 
L 298.098299 254.399387 
L 299.098299 254.469773 
L 300.098299 254.521737 
L 301.098299 254.580827 
L 302.098299 254.669148 
L 303.098299 254.715292 
L 304.098299 254.757703 
L 305.098299 254.788196 
L 306.098299 254.814241 
L 307.098299 254.835441 
L 308.098299 254.889742 
L 309.098299 254.91768 
L 310.098299 254.947404 
L 311.098299 254.972799 
L 312.098299 254.983999 
L 313.098299 254.994123 
L 314.098299 254.993919 
L 315.098299 254.984409 
L 316.098299 254.972755 
L 317.098299 254.941726 
L 318.098299 254.930558 
L 319.098299 254.90044 
L 320.098299 254.840663 
L 321.098299 254.803472 
L 322.098299 254.764376 
L 323.098299 254.721936 
L 324.098299 254.689171 
L 325.098299 254.621745 
L 326.098299 254.582619 
L 327.098299 254.539944 
L 328.098299 254.469364 
L 329.098299 254.432973 
L 330.098299 254.37457 
L 331.098299 254.263617 
L 332.098299 254.192959 
L 333.098299 254.080019 
L 334.098299 254.034246 
L 335.098299 253.972963 
L 336.098299 253.924463 
L 337.098299 253.843641 
L 338.098299 253.725122 
L 339.098299 253.654911 
L 340.098299 253.571649 
L 341.098299 253.538507 
L 342.098299 253.48727 
L 343.098299 253.418871 
L 344.098299 253.352656 
L 345.098299 253.275739 
L 346.098299 253.248423 
L 347.098299 253.221946 
L 348.098299 253.199295 
L 349.098299 253.179764 
L 350.098299 253.15337 
L 351.098299 253.103599 
L 352.098299 253.068526 
L 353.682951 253.03266 
" clip-path="url(#p654af86d2b)" style="fill: none; stroke: #1f77b4; stroke-opacity: 0.5; stroke-width: 0.2; stroke-linecap: square"/>
   <path d="M 290.098299 250.470626 
L 291.098299 250.502062 
L 292.098299 250.539003 
L 293.098299 250.636749 
L 294.098299 250.669271 
L 295.098299 250.742896 
L 296.098299 250.781461 
L 297.098299 250.816874 
L 298.098299 250.874514 
L 299.098299 250.944901 
L 300.098299 250.996865 
L 301.098299 251.055955 
L 302.098299 251.144275 
L 303.098299 251.19042 
L 304.098299 251.232831 
L 305.098299 251.263323 
L 306.098299 251.289368 
L 307.098299 251.310568 
L 308.098299 251.36487 
L 309.098299 251.392807 
L 310.098299 251.422531 
L 311.098299 251.447926 
L 312.098299 251.459126 
L 313.098299 251.46925 
L 314.098299 251.469046 
L 315.098299 251.459536 
L 316.098299 251.447882 
L 317.098299 251.416853 
L 318.098299 251.405685 
L 319.098299 251.375568 
L 320.098299 251.315791 
L 321.098299 251.278599 
L 322.098299 251.239503 
L 323.098299 251.197064 
L 324.098299 251.164298 
L 325.098299 251.096872 
L 326.098299 251.057746 
L 327.098299 251.015072 
L 328.098299 250.944491 
L 329.098299 250.9081 
L 330.098299 250.849697 
L 331.098299 250.738744 
L 332.098299 250.668086 
L 333.098299 250.555146 
L 334.098299 250.509373 
L 335.098299 250.44809 
L 336.098299 250.399591 
L 337.098299 250.318768 
L 338.098299 250.200249 
L 339.098299 250.130038 
L 340.098299 250.046776 
L 341.098299 250.013634 
L 342.098299 249.962397 
L 343.098299 249.893999 
L 344.098299 249.827783 
L 345.098299 249.750866 
L 346.098299 249.723551 
L 347.098299 249.697073 
L 348.098299 249.674422 
L 349.098299 249.654891 
L 350.098299 249.628497 
L 351.098299 249.578726 
L 352.098299 249.543653 
L 353.682951 249.507788 
" clip-path="url(#p654af86d2b)" style="fill: none; stroke: #1f77b4; stroke-opacity: 0.5; stroke-width: 0.2; stroke-linecap: square"/>
   <path d="M 290.098299 315.947113 
L 291.098299 315.978549 
L 292.098299 316.01549 
L 293.098299 316.113236 
L 294.098299 316.145758 
L 295.098299 316.219382 
L 296.098299 316.257948 
L 297.098299 316.293361 
L 298.098299 316.351001 
L 299.098299 316.421387 
L 300.098299 316.473351 
L 301.098299 316.532441 
L 302.098299 316.620762 
L 303.098299 316.666907 
L 304.098299 316.709317 
L 305.098299 316.73981 
L 306.098299 316.765855 
L 307.098299 316.787055 
L 308.098299 316.841356 
L 309.098299 316.869294 
L 310.098299 316.899018 
L 311.098299 316.924413 
L 312.098299 316.935613 
L 313.098299 316.945737 
L 314.098299 316.945533 
L 315.098299 316.936023 
L 316.098299 316.924369 
L 317.098299 316.89334 
L 318.098299 316.882172 
L 319.098299 316.852054 
L 320.098299 316.792278 
L 321.098299 316.755086 
L 322.098299 316.71599 
L 323.098299 316.67355 
L 324.098299 316.640785 
L 325.098299 316.573359 
L 326.098299 316.534233 
L 327.098299 316.491558 
L 328.098299 316.420978 
L 329.098299 316.384587 
L 330.098299 316.326184 
L 331.098299 316.215231 
L 332.098299 316.144573 
L 333.098299 316.031633 
L 334.098299 315.98586 
L 335.098299 315.924577 
L 336.098299 315.876077 
L 337.098299 315.795255 
L 338.098299 315.676736 
L 339.098299 315.606525 
L 340.098299 315.523263 
L 341.098299 315.490121 
L 342.098299 315.438884 
L 343.098299 315.370485 
L 344.098299 315.30427 
L 345.098299 315.227353 
L 346.098299 315.200037 
L 347.098299 315.17356 
L 348.098299 315.150909 
L 349.098299 315.131378 
L 350.098299 315.104984 
L 351.098299 315.055213 
L 352.098299 315.02014 
L 353.682951 314.984274 
" clip-path="url(#p654af86d2b)" style="fill: none; stroke: #1f77b4; stroke-opacity: 0.5; stroke-width: 0.2; stroke-linecap: square"/>
   <g id="patch_3">
    <path d="M 69.06392 22.318125 
L 69.06392 318.021875 
M 284.536112 22.318125 
L 284.536112 318.021875 
" clip-path="url(#p654af86d2b)" style="fill: none; stroke: #ffffff; stroke-width: 3; stroke-linejoin: miter"/>
    <path d="M 69.06392 22.318125 
L 69.06392 318.021875 
M 284.536112 22.318125 
L 284.536112 318.021875 
" clip-path="url(#p654af86d2b)" style="fill: none; stroke: #1f77b4; stroke-linejoin: miter"/>
    <g id="PolyCollection_1">
     <path d="M 284.536112 22.318125 
L 69.06392 22.318125 
L 69.06392 318.021875 
L 284.536112 318.021875 
L 284.536112 318.021875 
L 284.536112 22.318125 
z
" clip-path="url(#p654af86d2b)" style="fill: #1f77b4; fill-opacity: 0.5"/>
    </g>
    <g id="patch_4">
     <path d="M 359.245138 22.318125 
L 359.245138 318.021875 
M 574.71733 22.318125 
L 574.71733 318.021875 
" clip-path="url(#p654af86d2b)" style="fill: none; stroke: #ffffff; stroke-width: 3; stroke-linejoin: miter"/>
     <path d="M 359.245138 22.318125 
L 359.245138 318.021875 
M 574.71733 22.318125 
L 574.71733 318.021875 
" clip-path="url(#p654af86d2b)" style="fill: none; stroke: #ff7f0e; stroke-linejoin: miter"/>
     <g id="PolyCollection_2">
      <path d="M 574.71733 22.318125 
L 359.245138 22.318125 
L 359.245138 318.021875 
L 574.71733 318.021875 
L 574.71733 318.021875 
L 574.71733 22.318125 
z
" clip-path="url(#p654af86d2b)" style="fill: #ff7f0e; fill-opacity: 0.5"/>
     </g>
     <g id="matplotlib.axis_1">
      <g id="xtick_1">
       <g id="line2d_1"/>
       <g id="text_1">
        <!-- deme0 -->
        <g transform="translate(159.42111 329.120312) scale(0.1 -0.1)">
         <defs>
          <path id="DejaVuSans-64" d="M 2906 2969 
L 2906 4863 
L 3481 4863 
L 3481 0 
L 2906 0 
L 2906 525 
Q 2725 213 2448 61 
Q 2172 -91 1784 -91 
Q 1150 -91 751 415 
Q 353 922 353 1747 
Q 353 2572 751 3078 
Q 1150 3584 1784 3584 
Q 2172 3584 2448 3432 
Q 2725 3281 2906 2969 
z
M 947 1747 
Q 947 1113 1208 752 
Q 1469 391 1925 391 
Q 2381 391 2643 752 
Q 2906 1113 2906 1747 
Q 2906 2381 2643 2742 
Q 2381 3103 1925 3103 
Q 1469 3103 1208 2742 
Q 947 2381 947 1747 
z
" transform="scale(0.015625)"/>
          <path id="DejaVuSans-65" d="M 3597 1894 
L 3597 1613 
L 953 1613 
Q 991 1019 1311 708 
Q 1631 397 2203 397 
Q 2534 397 2845 478 
Q 3156 559 3463 722 
L 3463 178 
Q 3153 47 2828 -22 
Q 2503 -91 2169 -91 
Q 1331 -91 842 396 
Q 353 884 353 1716 
Q 353 2575 817 3079 
Q 1281 3584 2069 3584 
Q 2775 3584 3186 3129 
Q 3597 2675 3597 1894 
z
M 3022 2063 
Q 3016 2534 2758 2815 
Q 2500 3097 2075 3097 
Q 1594 3097 1305 2825 
Q 1016 2553 972 2059 
L 3022 2063 
z
" transform="scale(0.015625)"/>
          <path id="DejaVuSans-6d" d="M 3328 2828 
Q 3544 3216 3844 3400 
Q 4144 3584 4550 3584 
Q 5097 3584 5394 3201 
Q 5691 2819 5691 2113 
L 5691 0 
L 5113 0 
L 5113 2094 
Q 5113 2597 4934 2840 
Q 4756 3084 4391 3084 
Q 3944 3084 3684 2787 
Q 3425 2491 3425 1978 
L 3425 0 
L 2847 0 
L 2847 2094 
Q 2847 2600 2669 2842 
Q 2491 3084 2119 3084 
Q 1678 3084 1418 2786 
Q 1159 2488 1159 1978 
L 1159 0 
L 581 0 
L 581 3500 
L 1159 3500 
L 1159 2956 
Q 1356 3278 1631 3431 
Q 1906 3584 2284 3584 
Q 2666 3584 2933 3390 
Q 3200 3197 3328 2828 
z
" transform="scale(0.015625)"/>
          <path id="DejaVuSans-30" d="M 2034 4250 
Q 1547 4250 1301 3770 
Q 1056 3291 1056 2328 
Q 1056 1369 1301 889 
Q 1547 409 2034 409 
Q 2525 409 2770 889 
Q 3016 1369 3016 2328 
Q 3016 3291 2770 3770 
Q 2525 4250 2034 4250 
z
M 2034 4750 
Q 2819 4750 3233 4129 
Q 3647 3509 3647 2328 
Q 3647 1150 3233 529 
Q 2819 -91 2034 -91 
Q 1250 -91 836 529 
Q 422 1150 422 2328 
Q 422 3509 836 4129 
Q 1250 4750 2034 4750 
z
" transform="scale(0.015625)"/>
         </defs>
         <use xlink:href="#DejaVuSans-64"/>
         <use xlink:href="#DejaVuSans-65" x="63.476562"/>
         <use xlink:href="#DejaVuSans-6d" x="125"/>
         <use xlink:href="#DejaVuSans-65" x="222.412109"/>
         <use xlink:href="#DejaVuSans-30" x="283.935547"/>
        </g>
       </g>
      </g>
      <g id="xtick_2">
       <g id="line2d_2"/>
       <g id="text_2">
        <!-- deme1 -->
        <g transform="translate(449.602328 329.120312) scale(0.1 -0.1)">
         <defs>
          <path id="DejaVuSans-31" d="M 794 531 
L 1825 531 
L 1825 4091 
L 703 3866 
L 703 4441 
L 1819 4666 
L 2450 4666 
L 2450 531 
L 3481 531 
L 3481 0 
L 794 0 
L 794 531 
z
" transform="scale(0.015625)"/>
         </defs>
         <use xlink:href="#DejaVuSans-64"/>
         <use xlink:href="#DejaVuSans-65" x="63.476562"/>
         <use xlink:href="#DejaVuSans-6d" x="125"/>
         <use xlink:href="#DejaVuSans-65" x="222.412109"/>
         <use xlink:href="#DejaVuSans-31" x="283.935547"/>
        </g>
       </g>
      </g>
     </g>
     <g id="matplotlib.axis_2">
      <g id="ytick_1">
       <g id="line2d_3">
        <defs>
         <path id="m73487371f1" d="M 0 0 
L -3.5 0 
" style="stroke: #000000; stroke-width: 0.8"/>
        </defs>
        <g>
         <use xlink:href="#m73487371f1" x="43.78125" y="318.021875" style="stroke: #000000; stroke-width: 0.8"/>
        </g>
       </g>
       <g id="text_3">
        <!-- 0.0 -->
        <g transform="translate(20.878125 321.821094) scale(0.1 -0.1)">
         <defs>
          <path id="DejaVuSans-2e" d="M 684 794 
L 1344 794 
L 1344 0 
L 684 0 
L 684 794 
z
" transform="scale(0.015625)"/>
         </defs>
         <use xlink:href="#DejaVuSans-30"/>
         <use xlink:href="#DejaVuSans-2e" x="63.623047"/>
         <use xlink:href="#DejaVuSans-30" x="95.410156"/>
        </g>
       </g>
      </g>
      <g id="ytick_2">
       <g id="line2d_4">
        <g>
         <use xlink:href="#m73487371f1" x="43.78125" y="258.881125" style="stroke: #000000; stroke-width: 0.8"/>
        </g>
       </g>
       <g id="text_4">
        <!-- 0.5 -->
        <g transform="translate(20.878125 262.680344) scale(0.1 -0.1)">
         <defs>
          <path id="DejaVuSans-35" d="M 691 4666 
L 3169 4666 
L 3169 4134 
L 1269 4134 
L 1269 2991 
Q 1406 3038 1543 3061 
Q 1681 3084 1819 3084 
Q 2600 3084 3056 2656 
Q 3513 2228 3513 1497 
Q 3513 744 3044 326 
Q 2575 -91 1722 -91 
Q 1428 -91 1123 -41 
Q 819 9 494 109 
L 494 744 
Q 775 591 1075 516 
Q 1375 441 1709 441 
Q 2250 441 2565 725 
Q 2881 1009 2881 1497 
Q 2881 1984 2565 2268 
Q 2250 2553 1709 2553 
Q 1456 2553 1204 2497 
Q 953 2441 691 2322 
L 691 4666 
z
" transform="scale(0.015625)"/>
         </defs>
         <use xlink:href="#DejaVuSans-30"/>
         <use xlink:href="#DejaVuSans-2e" x="63.623047"/>
         <use xlink:href="#DejaVuSans-35" x="95.410156"/>
        </g>
       </g>
      </g>
      <g id="ytick_3">
       <g id="line2d_5">
        <g>
         <use xlink:href="#m73487371f1" x="43.78125" y="199.740375" style="stroke: #000000; stroke-width: 0.8"/>
        </g>
       </g>
       <g id="text_5">
        <!-- 1.0 -->
        <g transform="translate(20.878125 203.539594) scale(0.1 -0.1)">
         <use xlink:href="#DejaVuSans-31"/>
         <use xlink:href="#DejaVuSans-2e" x="63.623047"/>
         <use xlink:href="#DejaVuSans-30" x="95.410156"/>
        </g>
       </g>
      </g>
      <g id="ytick_4">
       <g id="line2d_6">
        <g>
         <use xlink:href="#m73487371f1" x="43.78125" y="140.599625" style="stroke: #000000; stroke-width: 0.8"/>
        </g>
       </g>
       <g id="text_6">
        <!-- 1.5 -->
        <g transform="translate(20.878125 144.398844) scale(0.1 -0.1)">
         <use xlink:href="#DejaVuSans-31"/>
         <use xlink:href="#DejaVuSans-2e" x="63.623047"/>
         <use xlink:href="#DejaVuSans-35" x="95.410156"/>
        </g>
       </g>
      </g>
      <g id="ytick_5">
       <g id="line2d_7">
        <g>
         <use xlink:href="#m73487371f1" x="43.78125" y="81.458875" style="stroke: #000000; stroke-width: 0.8"/>
        </g>
       </g>
       <g id="text_7">
        <!-- 2.0 -->
        <g transform="translate(20.878125 85.258094) scale(0.1 -0.1)">
         <defs>
          <path id="DejaVuSans-32" d="M 1228 531 
L 3431 531 
L 3431 0 
L 469 0 
L 469 531 
Q 828 903 1448 1529 
Q 2069 2156 2228 2338 
Q 2531 2678 2651 2914 
Q 2772 3150 2772 3378 
Q 2772 3750 2511 3984 
Q 2250 4219 1831 4219 
Q 1534 4219 1204 4116 
Q 875 4013 500 3803 
L 500 4441 
Q 881 4594 1212 4672 
Q 1544 4750 1819 4750 
Q 2544 4750 2975 4387 
Q 3406 4025 3406 3419 
Q 3406 3131 3298 2873 
Q 3191 2616 2906 2266 
Q 2828 2175 2409 1742 
Q 1991 1309 1228 531 
z
" transform="scale(0.015625)"/>
         </defs>
         <use xlink:href="#DejaVuSans-32"/>
         <use xlink:href="#DejaVuSans-2e" x="63.623047"/>
         <use xlink:href="#DejaVuSans-30" x="95.410156"/>
        </g>
       </g>
      </g>
      <g id="ytick_6">
       <g id="line2d_8">
        <g>
         <use xlink:href="#m73487371f1" x="43.78125" y="22.318125" style="stroke: #000000; stroke-width: 0.8"/>
        </g>
       </g>
       <g id="text_8">
        <!-- 2.5 -->
        <g transform="translate(20.878125 26.117344) scale(0.1 -0.1)">
         <use xlink:href="#DejaVuSans-32"/>
         <use xlink:href="#DejaVuSans-2e" x="63.623047"/>
         <use xlink:href="#DejaVuSans-35" x="95.410156"/>
        </g>
       </g>
      </g>
      <g id="text_9">
       <!-- time ago (generations) -->
       <g transform="translate(14.798438 227.641094) rotate(-90) scale(0.1 -0.1)">
        <defs>
         <path id="DejaVuSans-74" d="M 1172 4494 
L 1172 3500 
L 2356 3500 
L 2356 3053 
L 1172 3053 
L 1172 1153 
Q 1172 725 1289 603 
Q 1406 481 1766 481 
L 2356 481 
L 2356 0 
L 1766 0 
Q 1100 0 847 248 
Q 594 497 594 1153 
L 594 3053 
L 172 3053 
L 172 3500 
L 594 3500 
L 594 4494 
L 1172 4494 
z
" transform="scale(0.015625)"/>
         <path id="DejaVuSans-69" d="M 603 3500 
L 1178 3500 
L 1178 0 
L 603 0 
L 603 3500 
z
M 603 4863 
L 1178 4863 
L 1178 4134 
L 603 4134 
L 603 4863 
z
" transform="scale(0.015625)"/>
         <path id="DejaVuSans-20" transform="scale(0.015625)"/>
         <path id="DejaVuSans-61" d="M 2194 1759 
Q 1497 1759 1228 1600 
Q 959 1441 959 1056 
Q 959 750 1161 570 
Q 1363 391 1709 391 
Q 2188 391 2477 730 
Q 2766 1069 2766 1631 
L 2766 1759 
L 2194 1759 
z
M 3341 1997 
L 3341 0 
L 2766 0 
L 2766 531 
Q 2569 213 2275 61 
Q 1981 -91 1556 -91 
Q 1019 -91 701 211 
Q 384 513 384 1019 
Q 384 1609 779 1909 
Q 1175 2209 1959 2209 
L 2766 2209 
L 2766 2266 
Q 2766 2663 2505 2880 
Q 2244 3097 1772 3097 
Q 1472 3097 1187 3025 
Q 903 2953 641 2809 
L 641 3341 
Q 956 3463 1253 3523 
Q 1550 3584 1831 3584 
Q 2591 3584 2966 3190 
Q 3341 2797 3341 1997 
z
" transform="scale(0.015625)"/>
         <path id="DejaVuSans-67" d="M 2906 1791 
Q 2906 2416 2648 2759 
Q 2391 3103 1925 3103 
Q 1463 3103 1205 2759 
Q 947 2416 947 1791 
Q 947 1169 1205 825 
Q 1463 481 1925 481 
Q 2391 481 2648 825 
Q 2906 1169 2906 1791 
z
M 3481 434 
Q 3481 -459 3084 -895 
Q 2688 -1331 1869 -1331 
Q 1566 -1331 1297 -1286 
Q 1028 -1241 775 -1147 
L 775 -588 
Q 1028 -725 1275 -790 
Q 1522 -856 1778 -856 
Q 2344 -856 2625 -561 
Q 2906 -266 2906 331 
L 2906 616 
Q 2728 306 2450 153 
Q 2172 0 1784 0 
Q 1141 0 747 490 
Q 353 981 353 1791 
Q 353 2603 747 3093 
Q 1141 3584 1784 3584 
Q 2172 3584 2450 3431 
Q 2728 3278 2906 2969 
L 2906 3500 
L 3481 3500 
L 3481 434 
z
" transform="scale(0.015625)"/>
         <path id="DejaVuSans-6f" d="M 1959 3097 
Q 1497 3097 1228 2736 
Q 959 2375 959 1747 
Q 959 1119 1226 758 
Q 1494 397 1959 397 
Q 2419 397 2687 759 
Q 2956 1122 2956 1747 
Q 2956 2369 2687 2733 
Q 2419 3097 1959 3097 
z
M 1959 3584 
Q 2709 3584 3137 3096 
Q 3566 2609 3566 1747 
Q 3566 888 3137 398 
Q 2709 -91 1959 -91 
Q 1206 -91 779 398 
Q 353 888 353 1747 
Q 353 2609 779 3096 
Q 1206 3584 1959 3584 
z
" transform="scale(0.015625)"/>
         <path id="DejaVuSans-28" d="M 1984 4856 
Q 1566 4138 1362 3434 
Q 1159 2731 1159 2009 
Q 1159 1288 1364 580 
Q 1569 -128 1984 -844 
L 1484 -844 
Q 1016 -109 783 600 
Q 550 1309 550 2009 
Q 550 2706 781 3412 
Q 1013 4119 1484 4856 
L 1984 4856 
z
" transform="scale(0.015625)"/>
         <path id="DejaVuSans-6e" d="M 3513 2113 
L 3513 0 
L 2938 0 
L 2938 2094 
Q 2938 2591 2744 2837 
Q 2550 3084 2163 3084 
Q 1697 3084 1428 2787 
Q 1159 2491 1159 1978 
L 1159 0 
L 581 0 
L 581 3500 
L 1159 3500 
L 1159 2956 
Q 1366 3272 1645 3428 
Q 1925 3584 2291 3584 
Q 2894 3584 3203 3211 
Q 3513 2838 3513 2113 
z
" transform="scale(0.015625)"/>
         <path id="DejaVuSans-72" d="M 2631 2963 
Q 2534 3019 2420 3045 
Q 2306 3072 2169 3072 
Q 1681 3072 1420 2755 
Q 1159 2438 1159 1844 
L 1159 0 
L 581 0 
L 581 3500 
L 1159 3500 
L 1159 2956 
Q 1341 3275 1631 3429 
Q 1922 3584 2338 3584 
Q 2397 3584 2469 3576 
Q 2541 3569 2628 3553 
L 2631 2963 
z
" transform="scale(0.015625)"/>
         <path id="DejaVuSans-73" d="M 2834 3397 
L 2834 2853 
Q 2591 2978 2328 3040 
Q 2066 3103 1784 3103 
Q 1356 3103 1142 2972 
Q 928 2841 928 2578 
Q 928 2378 1081 2264 
Q 1234 2150 1697 2047 
L 1894 2003 
Q 2506 1872 2764 1633 
Q 3022 1394 3022 966 
Q 3022 478 2636 193 
Q 2250 -91 1575 -91 
Q 1294 -91 989 -36 
Q 684 19 347 128 
L 347 722 
Q 666 556 975 473 
Q 1284 391 1588 391 
Q 1994 391 2212 530 
Q 2431 669 2431 922 
Q 2431 1156 2273 1281 
Q 2116 1406 1581 1522 
L 1381 1569 
Q 847 1681 609 1914 
Q 372 2147 372 2553 
Q 372 3047 722 3315 
Q 1072 3584 1716 3584 
Q 2034 3584 2315 3537 
Q 2597 3491 2834 3397 
z
" transform="scale(0.015625)"/>
         <path id="DejaVuSans-29" d="M 513 4856 
L 1013 4856 
Q 1481 4119 1714 3412 
Q 1947 2706 1947 2009 
Q 1947 1309 1714 600 
Q 1481 -109 1013 -844 
L 513 -844 
Q 928 -128 1133 580 
Q 1338 1288 1338 2009 
Q 1338 2731 1133 3434 
Q 928 4138 513 4856 
z
" transform="scale(0.015625)"/>
        </defs>
        <use xlink:href="#DejaVuSans-74"/>
        <use xlink:href="#DejaVuSans-69" x="39.208984"/>
        <use xlink:href="#DejaVuSans-6d" x="66.992188"/>
        <use xlink:href="#DejaVuSans-65" x="164.404297"/>
        <use xlink:href="#DejaVuSans-20" x="225.927734"/>
        <use xlink:href="#DejaVuSans-61" x="257.714844"/>
        <use xlink:href="#DejaVuSans-67" x="318.994141"/>
        <use xlink:href="#DejaVuSans-6f" x="382.470703"/>
        <use xlink:href="#DejaVuSans-20" x="443.652344"/>
        <use xlink:href="#DejaVuSans-28" x="475.439453"/>
        <use xlink:href="#DejaVuSans-67" x="514.453125"/>
        <use xlink:href="#DejaVuSans-65" x="577.929688"/>
        <use xlink:href="#DejaVuSans-6e" x="639.453125"/>
        <use xlink:href="#DejaVuSans-65" x="702.832031"/>
        <use xlink:href="#DejaVuSans-72" x="764.355469"/>
        <use xlink:href="#DejaVuSans-61" x="805.46875"/>
        <use xlink:href="#DejaVuSans-74" x="866.748047"/>
        <use xlink:href="#DejaVuSans-69" x="905.957031"/>
        <use xlink:href="#DejaVuSans-6f" x="933.740234"/>
        <use xlink:href="#DejaVuSans-6e" x="994.921875"/>
        <use xlink:href="#DejaVuSans-73" x="1058.300781"/>
        <use xlink:href="#DejaVuSans-29" x="1110.400391"/>
       </g>
      </g>
     </g>
     <path d="M 354.682951 120.992363 
L 352.682951 119.992363 
L 352.682951 121.992363 
z
" clip-path="url(#p654af86d2b)" style="fill: #1f77b4; fill-opacity: 0.5; stroke: #1f77b4; stroke-opacity: 0.5; stroke-linejoin: miter"/>
     <path d="M 354.682951 153.088552 
L 352.682951 152.088552 
L 352.682951 154.088552 
z
" clip-path="url(#p654af86d2b)" style="fill: #1f77b4; fill-opacity: 0.5; stroke: #1f77b4; stroke-opacity: 0.5; stroke-linejoin: miter"/>
     <path d="M 354.682951 83.428942 
L 352.682951 82.428942 
L 352.682951 84.428942 
z
" clip-path="url(#p654af86d2b)" style="fill: #1f77b4; fill-opacity: 0.5; stroke: #1f77b4; stroke-opacity: 0.5; stroke-linejoin: miter"/>
     <path d="M 354.682951 146.311183 
L 352.682951 145.311183 
L 352.682951 147.311183 
z
" clip-path="url(#p654af86d2b)" style="fill: #1f77b4; fill-opacity: 0.5; stroke: #1f77b4; stroke-opacity: 0.5; stroke-linejoin: miter"/>
     <path d="M 354.682951 91.329408 
L 352.682951 90.329408 
L 352.682951 92.329408 
z
" clip-path="url(#p654af86d2b)" style="fill: #1f77b4; fill-opacity: 0.5; stroke: #1f77b4; stroke-opacity: 0.5; stroke-linejoin: miter"/>
     <path d="M 354.682951 164.912958 
L 352.682951 163.912958 
L 352.682951 165.912958 
z
" clip-path="url(#p654af86d2b)" style="fill: #1f77b4; fill-opacity: 0.5; stroke: #1f77b4; stroke-opacity: 0.5; stroke-linejoin: miter"/>
     <path d="M 354.682951 136.112027 
L 352.682951 135.112027 
L 352.682951 137.112027 
z
" clip-path="url(#p654af86d2b)" style="fill: #1f77b4; fill-opacity: 0.5; stroke: #1f77b4; stroke-opacity: 0.5; stroke-linejoin: miter"/>
     <path d="M 354.682951 85.722379 
L 352.682951 84.722379 
L 352.682951 86.722379 
z
" clip-path="url(#p654af86d2b)" style="fill: #1f77b4; fill-opacity: 0.5; stroke: #1f77b4; stroke-opacity: 0.5; stroke-linejoin: miter"/>
     <path d="M 354.682951 188.597607 
L 352.682951 187.597607 
L 352.682951 189.597607 
z
" clip-path="url(#p654af86d2b)" style="fill: #1f77b4; fill-opacity: 0.5; stroke: #1f77b4; stroke-opacity: 0.5; stroke-linejoin: miter"/>
     <path d="M 354.682951 108.11708 
L 352.682951 107.11708 
L 352.682951 109.11708 
z
" clip-path="url(#p654af86d2b)" style="fill: #1f77b4; fill-opacity: 0.5; stroke: #1f77b4; stroke-opacity: 0.5; stroke-linejoin: miter"/>
     <path d="M 354.682951 251.74899 
L 352.682951 250.74899 
L 352.682951 252.74899 
z
" clip-path="url(#p654af86d2b)" style="fill: #1f77b4; fill-opacity: 0.5; stroke: #1f77b4; stroke-opacity: 0.5; stroke-linejoin: miter"/>
     <path d="M 354.682951 295.036592 
L 352.682951 294.036592 
L 352.682951 296.036592 
z
" clip-path="url(#p654af86d2b)" style="fill: #1f77b4; fill-opacity: 0.5; stroke: #1f77b4; stroke-opacity: 0.5; stroke-linejoin: miter"/>
     <path d="M 354.682951 223.033467 
L 352.682951 222.033467 
L 352.682951 224.033467 
z
" clip-path="url(#p654af86d2b)" style="fill: #1f77b4; fill-opacity: 0.5; stroke: #1f77b4; stroke-opacity: 0.5; stroke-linejoin: miter"/>
     <path d="M 354.682951 222.524564 
L 352.682951 221.524564 
L 352.682951 223.524564 
z
" clip-path="url(#p654af86d2b)" style="fill: #1f77b4; fill-opacity: 0.5; stroke: #1f77b4; stroke-opacity: 0.5; stroke-linejoin: miter"/>
     <path d="M 354.682951 209.061233 
L 352.682951 208.061233 
L 352.682951 210.061233 
z
" clip-path="url(#p654af86d2b)" style="fill: #1f77b4; fill-opacity: 0.5; stroke: #1f77b4; stroke-opacity: 0.5; stroke-linejoin: miter"/>
     <path d="M 354.682951 239.651222 
L 352.682951 238.651222 
L 352.682951 240.651222 
z
" clip-path="url(#p654af86d2b)" style="fill: #1f77b4; fill-opacity: 0.5; stroke: #1f77b4; stroke-opacity: 0.5; stroke-linejoin: miter"/>
     <path d="M 354.682951 222.472152 
L 352.682951 221.472152 
L 352.682951 223.472152 
z
" clip-path="url(#p654af86d2b)" style="fill: #1f77b4; fill-opacity: 0.5; stroke: #1f77b4; stroke-opacity: 0.5; stroke-linejoin: miter"/>
     <path d="M 354.682951 253.995499 
L 352.682951 252.995499 
L 352.682951 254.995499 
z
" clip-path="url(#p654af86d2b)" style="fill: #1f77b4; fill-opacity: 0.5; stroke: #1f77b4; stroke-opacity: 0.5; stroke-linejoin: miter"/>
     <path d="M 354.682951 250.470626 
L 352.682951 249.470626 
L 352.682951 251.470626 
z
" clip-path="url(#p654af86d2b)" style="fill: #1f77b4; fill-opacity: 0.5; stroke: #1f77b4; stroke-opacity: 0.5; stroke-linejoin: miter"/>
     <path d="M 354.682951 315.947113 
L 352.682951 314.947113 
L 352.682951 316.947113 
z
" clip-path="url(#p654af86d2b)" style="fill: #1f77b4; fill-opacity: 0.5; stroke: #1f77b4; stroke-opacity: 0.5; stroke-linejoin: miter"/>
     <g id="patch_5">
      <path d="M 43.78125 318.021875 
L 43.78125 22.318125 
" style="fill: none; stroke: #000000; stroke-width: 0.8; stroke-linejoin: miter; stroke-linecap: square"/>
     </g>
     <g id="text_10">
      <!-- defaults_asymmetric_migration_changing_rate.yaml -->
      <g transform="translate(164.675625 16.318125) scale(0.12 -0.12)">
       <defs>
        <path id="DejaVuSans-66" d="M 2375 4863 
L 2375 4384 
L 1825 4384 
Q 1516 4384 1395 4259 
Q 1275 4134 1275 3809 
L 1275 3500 
L 2222 3500 
L 2222 3053 
L 1275 3053 
L 1275 0 
L 697 0 
L 697 3053 
L 147 3053 
L 147 3500 
L 697 3500 
L 697 3744 
Q 697 4328 969 4595 
Q 1241 4863 1831 4863 
L 2375 4863 
z
" transform="scale(0.015625)"/>
        <path id="DejaVuSans-75" d="M 544 1381 
L 544 3500 
L 1119 3500 
L 1119 1403 
Q 1119 906 1312 657 
Q 1506 409 1894 409 
Q 2359 409 2629 706 
Q 2900 1003 2900 1516 
L 2900 3500 
L 3475 3500 
L 3475 0 
L 2900 0 
L 2900 538 
Q 2691 219 2414 64 
Q 2138 -91 1772 -91 
Q 1169 -91 856 284 
Q 544 659 544 1381 
z
M 1991 3584 
L 1991 3584 
z
" transform="scale(0.015625)"/>
        <path id="DejaVuSans-6c" d="M 603 4863 
L 1178 4863 
L 1178 0 
L 603 0 
L 603 4863 
z
" transform="scale(0.015625)"/>
        <path id="DejaVuSans-5f" d="M 3263 -1063 
L 3263 -1509 
L -63 -1509 
L -63 -1063 
L 3263 -1063 
z
" transform="scale(0.015625)"/>
        <path id="DejaVuSans-79" d="M 2059 -325 
Q 1816 -950 1584 -1140 
Q 1353 -1331 966 -1331 
L 506 -1331 
L 506 -850 
L 844 -850 
Q 1081 -850 1212 -737 
Q 1344 -625 1503 -206 
L 1606 56 
L 191 3500 
L 800 3500 
L 1894 763 
L 2988 3500 
L 3597 3500 
L 2059 -325 
z
" transform="scale(0.015625)"/>
        <path id="DejaVuSans-63" d="M 3122 3366 
L 3122 2828 
Q 2878 2963 2633 3030 
Q 2388 3097 2138 3097 
Q 1578 3097 1268 2742 
Q 959 2388 959 1747 
Q 959 1106 1268 751 
Q 1578 397 2138 397 
Q 2388 397 2633 464 
Q 2878 531 3122 666 
L 3122 134 
Q 2881 22 2623 -34 
Q 2366 -91 2075 -91 
Q 1284 -91 818 406 
Q 353 903 353 1747 
Q 353 2603 823 3093 
Q 1294 3584 2113 3584 
Q 2378 3584 2631 3529 
Q 2884 3475 3122 3366 
z
" transform="scale(0.015625)"/>
        <path id="DejaVuSans-68" d="M 3513 2113 
L 3513 0 
L 2938 0 
L 2938 2094 
Q 2938 2591 2744 2837 
Q 2550 3084 2163 3084 
Q 1697 3084 1428 2787 
Q 1159 2491 1159 1978 
L 1159 0 
L 581 0 
L 581 4863 
L 1159 4863 
L 1159 2956 
Q 1366 3272 1645 3428 
Q 1925 3584 2291 3584 
Q 2894 3584 3203 3211 
Q 3513 2838 3513 2113 
z
" transform="scale(0.015625)"/>
       </defs>
       <use xlink:href="#DejaVuSans-64"/>
       <use xlink:href="#DejaVuSans-65" x="63.476562"/>
       <use xlink:href="#DejaVuSans-66" x="125"/>
       <use xlink:href="#DejaVuSans-61" x="160.205078"/>
       <use xlink:href="#DejaVuSans-75" x="221.484375"/>
       <use xlink:href="#DejaVuSans-6c" x="284.863281"/>
       <use xlink:href="#DejaVuSans-74" x="312.646484"/>
       <use xlink:href="#DejaVuSans-73" x="351.855469"/>
       <use xlink:href="#DejaVuSans-5f" x="403.955078"/>
       <use xlink:href="#DejaVuSans-61" x="453.955078"/>
       <use xlink:href="#DejaVuSans-73" x="515.234375"/>
       <use xlink:href="#DejaVuSans-79" x="567.333984"/>
       <use xlink:href="#DejaVuSans-6d" x="626.513672"/>
       <use xlink:href="#DejaVuSans-6d" x="723.925781"/>
       <use xlink:href="#DejaVuSans-65" x="821.337891"/>
       <use xlink:href="#DejaVuSans-74" x="882.861328"/>
       <use xlink:href="#DejaVuSans-72" x="922.070312"/>
       <use xlink:href="#DejaVuSans-69" x="963.183594"/>
       <use xlink:href="#DejaVuSans-63" x="990.966797"/>
       <use xlink:href="#DejaVuSans-5f" x="1045.947266"/>
       <use xlink:href="#DejaVuSans-6d" x="1095.947266"/>
       <use xlink:href="#DejaVuSans-69" x="1193.359375"/>
       <use xlink:href="#DejaVuSans-67" x="1221.142578"/>
       <use xlink:href="#DejaVuSans-72" x="1284.619141"/>
       <use xlink:href="#DejaVuSans-61" x="1325.732422"/>
       <use xlink:href="#DejaVuSans-74" x="1387.011719"/>
       <use xlink:href="#DejaVuSans-69" x="1426.220703"/>
       <use xlink:href="#DejaVuSans-6f" x="1454.003906"/>
       <use xlink:href="#DejaVuSans-6e" x="1515.185547"/>
       <use xlink:href="#DejaVuSans-5f" x="1578.564453"/>
       <use xlink:href="#DejaVuSans-63" x="1628.564453"/>
       <use xlink:href="#DejaVuSans-68" x="1683.544922"/>
       <use xlink:href="#DejaVuSans-61" x="1746.923828"/>
       <use xlink:href="#DejaVuSans-6e" x="1808.203125"/>
       <use xlink:href="#DejaVuSans-67" x="1871.582031"/>
       <use xlink:href="#DejaVuSans-69" x="1935.058594"/>
       <use xlink:href="#DejaVuSans-6e" x="1962.841797"/>
       <use xlink:href="#DejaVuSans-67" x="2026.220703"/>
       <use xlink:href="#DejaVuSans-5f" x="2089.697266"/>
       <use xlink:href="#DejaVuSans-72" x="2139.697266"/>
       <use xlink:href="#DejaVuSans-61" x="2180.810547"/>
       <use xlink:href="#DejaVuSans-74" x="2242.089844"/>
       <use xlink:href="#DejaVuSans-65" x="2281.298828"/>
       <use xlink:href="#DejaVuSans-2e" x="2342.822266"/>
       <use xlink:href="#DejaVuSans-79" x="2374.609375"/>
       <use xlink:href="#DejaVuSans-61" x="2433.789062"/>
       <use xlink:href="#DejaVuSans-6d" x="2495.068359"/>
       <use xlink:href="#DejaVuSans-6c" x="2592.480469"/>
      </g>
     </g>
    </g>
   </g>
   <defs>
    <clipPath id="p654af86d2b">
     <rect x="43.78125" y="22.318125" width="556.21875" height="295.70375"/>
    </clipPath>
   </defs>
  </g>
 </g>
</svg>