<?xml version="1.0" encoding="utf-8" standalone="no"?>
<!DOCTYPE svg PUBLIC "-//W3C//DTD SVG 1.1//EN"
  "http://www.w3.org/Graphics/SVG/1.1/DTD/svg11.dtd">
<svg xmlns:xlink="http://www.w3.org/1999/xlink" width="607.2pt" height="338.4pt" viewBox="0 0 607.2 338.4" xmlns="http://www.w3.org/2000/svg" version="1.1">
 <metadata>
  <rdf:RDF xmlns:dc="http://purl.org/dc/elements/1.1/" xmlns:cc="http://creativecommons.org/ns#" xmlns:rdf="http://www.w3.org/1999/02/22-rdf-syntax-ns#">
   <cc:Work>
    <dc:type rdf:resource="http://purl.org/dc/dcmitype/StillImage"/>
    <dc:date>2025-12-22T08:10:21.944279</dc:date>
    <dc:format>image/svg+xml</dc:format>
    <dc:creator>
     <cc:Agent>
      <dc:title>Matplotlib v3.10.8, https://matplotlib.org/</dc:title>
     </cc:Agent>
    </dc:creator>
   </cc:Work>
  </rdf:RDF>
 </metadata>
 <defs>
  <style type="text/css">*{stroke-linejoin: round; stroke-linecap: butt}</style>
 </defs>
 <g id="figure_1">
  <g id="patch_1">
   <path d="M 0 338.4 
L 607.2 338.4 
L 607.2 0 
L 0 0 
z
" style="fill: #ffffff"/>
  </g>
  <g id="axes_1">
   <g id="patch_2">
    <path d="M 46.965625 318.021875 
L 600 318.021875 
L 600 7.2 
L 46.965625 7.2 
z
" style="fill: #ffffff"/>
   </g>
   <g id="line2d_1">
    <path d="M 200.299443 229.231521 
L 201.299443 229.262957 
L 202.299443 229.299897 
L 203.299443 229.397644 
L 204.299443 229.430166 
L 205.299443 229.50379 
L 206.299443 229.542356 
L 207.299443 229.577769 
L 208.299443 229.635409 
L 209.299443 229.705795 
L 210.299443 229.757759 
L 211.299443 229.816849 
L 212.299443 229.90517 
L 213.299443 229.951314 
L 214.299443 229.993725 
L 215.299443 230.024218 
L 216.299443 230.050263 
L 217.299443 230.071463 
L 218.299443 230.125764 
L 219.299443 230.153702 
L 220.299443 230.183426 
L 221.299443 230.20882 
L 222.299443 230.220021 
L 223.299443 230.230145 
L 224.299443 230.22994 
L 225.299443 230.220431 
L 226.299443 230.208777 
L 227.299443 230.177748 
L 228.299443 230.16658 
L 229.299443 230.136462 
L 230.299443 230.076685 
L 231.299443 230.039494 
L 232.299443 230.000398 
L 233.299443 229.957958 
L 234.299443 229.925193 
L 235.299443 229.857767 
L 236.299443 229.818641 
L 237.299443 229.775966 
L 238.299443 229.705385 
L 239.299443 229.668995 
L 240.299443 229.610591 
L 241.299443 229.499639 
L 242.299443 229.428981 
L 243.299443 229.316041 
L 244.299443 229.270268 
L 245.299443 229.208985 
L 246.299443 229.160485 
L 247.299443 229.079663 
L 248.299443 228.961144 
L 249.299443 228.890933 
L 250.299443 228.807671 
L 251.299443 228.774529 
L 252.299443 228.723291 
L 253.299443 228.654893 
L 254.299443 228.588678 
L 255.299443 228.511761 
L 256.619695 228.484445 
" clip-path="url(#pa83a4d27e9)" style="fill: none; stroke: #1f77b4; stroke-opacity: 0.5; stroke-width: 0.2; stroke-linecap: square"/>
   </g>
   <g id="line2d_2">
    <path d="M 200.299443 194.469646 
L 201.299443 194.501083 
L 202.299443 194.538023 
L 203.299443 194.63577 
L 204.299443 194.668291 
L 205.299443 194.741916 
L 206.299443 194.780482 
L 207.299443 194.815895 
L 208.299443 194.873535 
L 209.299443 194.943921 
L 210.299443 194.995885 
L 211.299443 195.054975 
L 212.299443 195.143296 
L 213.299443 195.18944 
L 214.299443 195.231851 
L 215.299443 195.262344 
L 216.299443 195.288389 
L 217.299443 195.309589 
L 218.299443 195.36389 
L 219.299443 195.391828 
L 220.299443 195.421551 
L 221.299443 195.446946 
L 222.299443 195.458147 
L 223.299443 195.468271 
L 224.299443 195.468066 
L 225.299443 195.458556 
L 226.299443 195.446903 
L 227.299443 195.415874 
L 228.299443 195.404706 
L 229.299443 195.374588 
L 230.299443 195.314811 
L 231.299443 195.27762 
L 232.299443 195.238524 
L 233.299443 195.196084 
L 234.299443 195.163319 
L 235.299443 195.095892 
L 236.299443 195.056766 
L 237.299443 195.014092 
L 238.299443 194.943511 
L 239.299443 194.90712 
L 240.299443 194.848717 
L 241.299443 194.737765 
L 242.299443 194.667106 
L 243.299443 194.554167 
L 244.299443 194.508394 
L 245.299443 194.44711 
L 246.299443 194.398611 
L 247.299443 194.317788 
L 248.299443 194.199269 
L 249.299443 194.129059 
L 250.299443 194.045796 
L 251.299443 194.012655 
L 252.299443 193.961417 
L 253.299443 193.893019 
L 254.299443 193.826804 
L 255.299443 193.749886 
L 256.619695 193.722571 
" clip-path="url(#pa83a4d27e9)" style="fill: none; stroke: #1f77b4; stroke-opacity: 0.5; stroke-width: 0.2; stroke-linecap: square"/>
   </g>
   <g id="line2d_3">
    <path d="M 200.299443 292.843576 
L 201.299443 292.875013 
L 202.299443 292.911953 
L 203.299443 293.0097 
L 204.299443 293.042221 
L 205.299443 293.115846 
L 206.299443 293.154411 
L 207.299443 293.189825 
L 208.299443 293.247465 
L 209.299443 293.317851 
L 210.299443 293.369815 
L 211.299443 293.428905 
L 212.299443 293.517226 
L 213.299443 293.56337 
L 214.299443 293.605781 
L 215.299443 293.636274 
L 216.299443 293.662319 
L 217.299443 293.683519 
L 218.299443 293.73782 
L 219.299443 293.765757 
L 220.299443 293.795481 
L 221.299443 293.820876 
L 222.299443 293.832077 
L 223.299443 293.8422 
L 224.299443 293.841996 
L 225.299443 293.832486 
L 226.299443 293.820833 
L 227.299443 293.789803 
L 228.299443 293.778636 
L 229.299443 293.748518 
L 230.299443 293.688741 
L 231.299443 293.65155 
L 232.299443 293.612453 
L 233.299443 293.570014 
L 234.299443 293.537249 
L 235.299443 293.469822 
L 236.299443 293.430696 
L 237.299443 293.388022 
L 238.299443 293.317441 
L 239.299443 293.28105 
L 240.299443 293.222647 
L 241.299443 293.111695 
L 242.299443 293.041036 
L 243.299443 292.928096 
L 244.299443 292.882324 
L 245.299443 292.82104 
L 246.299443 292.772541 
L 247.299443 292.691718 
L 248.299443 292.573199 
L 249.299443 292.502989 
L 250.299443 292.419726 
L 251.299443 292.386584 
L 252.299443 292.335347 
L 253.299443 292.266949 
L 254.299443 292.200733 
L 255.299443 292.123816 
L 256.619695 292.096501 
" clip-path="url(#pa83a4d27e9)" style="fill: none; stroke: #1f77b4; stroke-opacity: 0.5; stroke-width: 0.2; stroke-linecap: square"/>
   </g>
   <g id="line2d_4">
    <path d="M 200.299443 303.934534 
L 201.299443 303.96597 
L 202.299443 304.00291 
L 203.299443 304.100657 
L 204.299443 304.133178 
L 205.299443 304.206803 
L 206.299443 304.245369 
L 207.299443 304.280782 
L 208.299443 304.338422 
L 209.299443 304.408808 
L 210.299443 304.460772 
L 211.299443 304.519862 
L 212.299443 304.608183 
L 213.299443 304.654327 
L 214.299443 304.696738 
L 215.299443 304.727231 
L 216.299443 304.753276 
L 217.299443 304.774476 
L 218.299443 304.828777 
L 219.299443 304.856715 
L 220.299443 304.886439 
L 221.299443 304.911833 
L 222.299443 304.923034 
L 223.299443 304.933158 
L 224.299443 304.932953 
L 225.299443 304.923444 
L 226.299443 304.91179 
L 227.299443 304.880761 
L 228.299443 304.869593 
L 229.299443 304.839475 
L 230.299443 304.779698 
L 231.299443 304.742507 
L 232.299443 304.703411 
L 233.299443 304.660971 
L 234.299443 304.628206 
L 235.299443 304.560779 
L 236.299443 304.521654 
L 237.299443 304.478979 
L 238.299443 304.408398 
L 239.299443 304.372008 
L 240.299443 304.313604 
L 241.299443 304.202652 
L 242.299443 304.131993 
L 243.299443 304.019054 
L 244.299443 303.973281 
L 245.299443 303.911998 
L 246.299443 303.863498 
L 247.299443 303.782676 
L 248.299443 303.664157 
L 249.299443 303.593946 
L 250.299443 303.510683 
L 251.299443 303.477542 
L 252.299443 303.426304 
L 253.299443 303.357906 
L 254.299443 303.291691 
L 255.299443 303.214774 
L 256.619695 303.187458 
" clip-path="url(#pa83a4d27e9)" style="fill: none; stroke: #1f77b4; stroke-opacity: 0.5; stroke-width: 0.2; stroke-linecap: square"/>
   </g>
   <g id="line2d_5">
    <path d="M 200.299443 288.063734 
L 201.299443 288.09517 
L 202.299443 288.13211 
L 203.299443 288.229857 
L 204.299443 288.262379 
L 205.299443 288.336003 
L 206.299443 288.374569 
L 207.299443 288.409982 
L 208.299443 288.467622 
L 209.299443 288.538008 
L 210.299443 288.589972 
L 211.299443 288.649062 
L 212.299443 288.737383 
L 213.299443 288.783527 
L 214.299443 288.825938 
L 215.299443 288.856431 
L 216.299443 288.882476 
L 217.299443 288.903676 
L 218.299443 288.957977 
L 219.299443 288.985915 
L 220.299443 289.015639 
L 221.299443 289.041033 
L 222.299443 289.052234 
L 223.299443 289.062358 
L 224.299443 289.062154 
L 225.299443 289.052644 
L 226.299443 289.04099 
L 227.299443 289.009961 
L 228.299443 288.998793 
L 229.299443 288.968675 
L 230.299443 288.908898 
L 231.299443 288.871707 
L 232.299443 288.832611 
L 233.299443 288.790171 
L 234.299443 288.757406 
L 235.299443 288.68998 
L 236.299443 288.650854 
L 237.299443 288.608179 
L 238.299443 288.537599 
L 239.299443 288.501208 
L 240.299443 288.442804 
L 241.299443 288.331852 
L 242.299443 288.261194 
L 243.299443 288.148254 
L 244.299443 288.102481 
L 245.299443 288.041198 
L 246.299443 287.992698 
L 247.299443 287.911876 
L 248.299443 287.793357 
L 249.299443 287.723146 
L 250.299443 287.639884 
L 251.299443 287.606742 
L 252.299443 287.555505 
L 253.299443 287.487106 
L 254.299443 287.420891 
L 255.299443 287.343974 
L 256.619695 287.316658 
" clip-path="url(#pa83a4d27e9)" style="fill: none; stroke: #1f77b4; stroke-opacity: 0.5; stroke-width: 0.2; stroke-linecap: square"/>
   </g>
   <g id="line2d_6">
    <path d="M 200.299443 109.766184 
L 201.299443 109.797621 
L 202.299443 109.834561 
L 203.299443 109.932308 
L 204.299443 109.964829 
L 205.299443 110.038454 
L 206.299443 110.077019 
L 207.299443 110.112433 
L 208.299443 110.170073 
L 209.299443 110.240459 
L 210.299443 110.292423 
L 211.299443 110.351513 
L 212.299443 110.439834 
L 213.299443 110.485978 
L 214.299443 110.528389 
L 215.299443 110.558882 
L 216.299443 110.584927 
L 217.299443 110.606127 
L 218.299443 110.660428 
L 219.299443 110.688365 
L 220.299443 110.718089 
L 221.299443 110.743484 
L 222.299443 110.754684 
L 223.299443 110.764808 
L 224.299443 110.764604 
L 225.299443 110.755094 
L 226.299443 110.743441 
L 227.299443 110.712411 
L 228.299443 110.701243 
L 229.299443 110.671126 
L 230.299443 110.611349 
L 231.299443 110.574157 
L 232.299443 110.535061 
L 233.299443 110.492622 
L 234.299443 110.459857 
L 235.299443 110.39243 
L 236.299443 110.353304 
L 237.299443 110.31063 
L 238.299443 110.240049 
L 239.299443 110.203658 
L 240.299443 110.145255 
L 241.299443 110.034302 
L 242.299443 109.963644 
L 243.299443 109.850704 
L 244.299443 109.804931 
L 245.299443 109.743648 
L 246.299443 109.695149 
L 247.299443 109.614326 
L 248.299443 109.495807 
L 249.299443 109.425597 
L 250.299443 109.342334 
L 251.299443 109.309192 
L 252.299443 109.257955 
L 253.299443 109.189557 
L 254.299443 109.123341 
L 255.299443 109.046424 
L 256.619695 109.019109 
" clip-path="url(#pa83a4d27e9)" style="fill: none; stroke: #1f77b4; stroke-opacity: 0.5; stroke-width: 0.2; stroke-linecap: square"/>
   </g>
   <g id="line2d_7">
    <path d="M 200.299443 16.93523 
L 201.299443 16.966666 
L 202.299443 17.003606 
L 203.299443 17.101353 
L 204.299443 17.133875 
L 205.299443 17.207499 
L 206.299443 17.246065 
L 207.299443 17.281478 
L 208.299443 17.339118 
L 209.299443 17.409504 
L 210.299443 17.461468 
L 211.299443 17.520558 
L 212.299443 17.608879 
L 213.299443 17.655023 
L 214.299443 17.697434 
L 215.299443 17.727927 
L 216.299443 17.753972 
L 217.299443 17.775172 
L 218.299443 17.829473 
L 219.299443 17.857411 
L 220.299443 17.887135 
L 221.299443 17.912529 
L 222.299443 17.92373 
L 223.299443 17.933854 
L 224.299443 17.933649 
L 225.299443 17.92414 
L 226.299443 17.912486 
L 227.299443 17.881457 
L 228.299443 17.870289 
L 229.299443 17.840171 
L 230.299443 17.780394 
L 231.299443 17.743203 
L 232.299443 17.704107 
L 233.299443 17.661667 
L 234.299443 17.628902 
L 235.299443 17.561476 
L 236.299443 17.52235 
L 237.299443 17.479675 
L 238.299443 17.409095 
L 239.299443 17.372704 
L 240.299443 17.3143 
L 241.299443 17.203348 
L 242.299443 17.13269 
L 243.299443 17.01975 
L 244.299443 16.973977 
L 245.299443 16.912694 
L 246.299443 16.864194 
L 247.299443 16.783372 
L 248.299443 16.664853 
L 249.299443 16.594642 
L 250.299443 16.51138 
L 251.299443 16.478238 
L 252.299443 16.427001 
L 253.299443 16.358602 
L 254.299443 16.292387 
L 255.299443 16.21547 
L 256.619695 16.188154 
" clip-path="url(#pa83a4d27e9)" style="fill: none; stroke: #1f77b4; stroke-opacity: 0.5; stroke-width: 0.2; stroke-linecap: square"/>
   </g>
   <g id="line2d_8">
    <path d="M 200.299443 284.917573 
L 201.299443 284.94901 
L 202.299443 284.98595 
L 203.299443 285.083696 
L 204.299443 285.116218 
L 205.299443 285.189843 
L 206.299443 285.228408 
L 207.299443 285.263821 
L 208.299443 285.321461 
L 209.299443 285.391848 
L 210.299443 285.443812 
L 211.299443 285.502902 
L 212.299443 285.591223 
L 213.299443 285.637367 
L 214.299443 285.679778 
L 215.299443 285.71027 
L 216.299443 285.736315 
L 217.299443 285.757516 
L 218.299443 285.811817 
L 219.299443 285.839754 
L 220.299443 285.869478 
L 221.299443 285.894873 
L 222.299443 285.906073 
L 223.299443 285.916197 
L 224.299443 285.915993 
L 225.299443 285.906483 
L 226.299443 285.89483 
L 227.299443 285.8638 
L 228.299443 285.852632 
L 229.299443 285.822515 
L 230.299443 285.762738 
L 231.299443 285.725546 
L 232.299443 285.68645 
L 233.299443 285.644011 
L 234.299443 285.611246 
L 235.299443 285.543819 
L 236.299443 285.504693 
L 237.299443 285.462019 
L 238.299443 285.391438 
L 239.299443 285.355047 
L 240.299443 285.296644 
L 241.299443 285.185691 
L 242.299443 285.115033 
L 243.299443 285.002093 
L 244.299443 284.95632 
L 245.299443 284.895037 
L 246.299443 284.846538 
L 247.299443 284.765715 
L 248.299443 284.647196 
L 249.299443 284.576986 
L 250.299443 284.493723 
L 251.299443 284.460581 
L 252.299443 284.409344 
L 253.299443 284.340946 
L 254.299443 284.27473 
L 255.299443 284.197813 
L 256.619695 284.170498 
" clip-path="url(#pa83a4d27e9)" style="fill: none; stroke: #1f77b4; stroke-opacity: 0.5; stroke-width: 0.2; stroke-linecap: square"/>
   </g>
   <g id="line2d_9">
    <path d="M 200.299443 28.615788 
L 201.299443 28.647224 
L 202.299443 28.684165 
L 203.299443 28.781911 
L 204.299443 28.814433 
L 205.299443 28.888057 
L 206.299443 28.926623 
L 207.299443 28.962036 
L 208.299443 29.019676 
L 209.299443 29.090062 
L 210.299443 29.142026 
L 211.299443 29.201116 
L 212.299443 29.289437 
L 213.299443 29.335581 
L 214.299443 29.377992 
L 215.299443 29.408485 
L 216.299443 29.43453 
L 217.299443 29.45573 
L 218.299443 29.510031 
L 219.299443 29.537969 
L 220.299443 29.567693 
L 221.299443 29.593088 
L 222.299443 29.604288 
L 223.299443 29.614412 
L 224.299443 29.614208 
L 225.299443 29.604698 
L 226.299443 29.593044 
L 227.299443 29.562015 
L 228.299443 29.550847 
L 229.299443 29.520729 
L 230.299443 29.460952 
L 231.299443 29.423761 
L 232.299443 29.384665 
L 233.299443 29.342225 
L 234.299443 29.30946 
L 235.299443 29.242034 
L 236.299443 29.202908 
L 237.299443 29.160233 
L 238.299443 29.089653 
L 239.299443 29.053262 
L 240.299443 28.994859 
L 241.299443 28.883906 
L 242.299443 28.813248 
L 243.299443 28.700308 
L 244.299443 28.654535 
L 245.299443 28.593252 
L 246.299443 28.544752 
L 247.299443 28.46393 
L 248.299443 28.345411 
L 249.299443 28.2752 
L 250.299443 28.191938 
L 251.299443 28.158796 
L 252.299443 28.107559 
L 253.299443 28.03916 
L 254.299443 27.972945 
L 255.299443 27.896028 
L 256.619695 27.868712 
" clip-path="url(#pa83a4d27e9)" style="fill: none; stroke: #1f77b4; stroke-opacity: 0.5; stroke-width: 0.2; stroke-linecap: square"/>
   </g>
   <g id="line2d_10">
    <path d="M 200.299443 17.320045 
L 201.299443 17.351482 
L 202.299443 17.388422 
L 203.299443 17.486169 
L 204.299443 17.51869 
L 205.299443 17.592315 
L 206.299443 17.63088 
L 207.299443 17.666294 
L 208.299443 17.723933 
L 209.299443 17.79432 
L 210.299443 17.846284 
L 211.299443 17.905374 
L 212.299443 17.993695 
L 213.299443 18.039839 
L 214.299443 18.08225 
L 215.299443 18.112743 
L 216.299443 18.138787 
L 217.299443 18.159988 
L 218.299443 18.214289 
L 219.299443 18.242226 
L 220.299443 18.27195 
L 221.299443 18.297345 
L 222.299443 18.308545 
L 223.299443 18.318669 
L 224.299443 18.318465 
L 225.299443 18.308955 
L 226.299443 18.297302 
L 227.299443 18.266272 
L 228.299443 18.255104 
L 229.299443 18.224987 
L 230.299443 18.16521 
L 231.299443 18.128018 
L 232.299443 18.088922 
L 233.299443 18.046483 
L 234.299443 18.013718 
L 235.299443 17.946291 
L 236.299443 17.907165 
L 237.299443 17.864491 
L 238.299443 17.79391 
L 239.299443 17.757519 
L 240.299443 17.699116 
L 241.299443 17.588163 
L 242.299443 17.517505 
L 243.299443 17.404565 
L 244.299443 17.358792 
L 245.299443 17.297509 
L 246.299443 17.24901 
L 247.299443 17.168187 
L 248.299443 17.049668 
L 249.299443 16.979458 
L 250.299443 16.896195 
L 251.299443 16.863053 
L 252.299443 16.811816 
L 253.299443 16.743418 
L 254.299443 16.677202 
L 255.299443 16.600285 
L 256.619695 16.57297 
" clip-path="url(#pa83a4d27e9)" style="fill: none; stroke: #1f77b4; stroke-opacity: 0.5; stroke-width: 0.2; stroke-linecap: square"/>
   </g>
   <g id="line2d_11">
    <path d="M 256.619695 272.340829 
L 255.619695 272.309392 
L 254.619695 272.272452 
L 253.619695 272.174705 
L 252.619695 272.142184 
L 251.619695 272.068559 
L 250.619695 272.029994 
L 249.619695 271.99458 
L 248.619695 271.93694 
L 247.619695 271.866554 
L 246.619695 271.81459 
L 245.619695 271.7555 
L 244.619695 271.667179 
L 243.619695 271.621035 
L 242.619695 271.578624 
L 241.619695 271.548131 
L 240.619695 271.522086 
L 239.619695 271.500886 
L 238.619695 271.446585 
L 237.619695 271.418648 
L 236.619695 271.388924 
L 235.619695 271.363529 
L 234.619695 271.352328 
L 233.619695 271.342205 
L 232.619695 271.342409 
L 231.619695 271.351919 
L 230.619695 271.363572 
L 229.619695 271.394602 
L 228.619695 271.405769 
L 227.619695 271.435887 
L 226.619695 271.495664 
L 225.619695 271.532855 
L 224.619695 271.571952 
L 223.619695 271.614391 
L 222.619695 271.647156 
L 221.619695 271.714583 
L 220.619695 271.753709 
L 219.619695 271.796383 
L 218.619695 271.866964 
L 217.619695 271.903355 
L 216.619695 271.961758 
L 215.619695 272.07271 
L 214.619695 272.143369 
L 213.619695 272.256309 
L 212.619695 272.302081 
L 211.619695 272.363365 
L 210.619695 272.411864 
L 209.619695 272.492687 
L 208.619695 272.611206 
L 207.619695 272.681416 
L 206.619695 272.764679 
L 205.619695 272.797821 
L 204.619695 272.849058 
L 203.619695 272.917456 
L 202.619695 272.983672 
L 201.619695 273.060589 
L 200.299443 273.087904 
" clip-path="url(#pa83a4d27e9)" style="fill: none; stroke: #ff7f0e; stroke-opacity: 0.5; stroke-width: 0.2; stroke-linecap: square"/>
   </g>
   <g id="line2d_12">
    <path d="M 256.619695 135.64919 
L 255.619695 135.617753 
L 254.619695 135.580813 
L 253.619695 135.483067 
L 252.619695 135.450545 
L 251.619695 135.37692 
L 250.619695 135.338355 
L 249.619695 135.302942 
L 248.619695 135.245302 
L 247.619695 135.174915 
L 246.619695 135.122951 
L 245.619695 135.063861 
L 244.619695 134.97554 
L 243.619695 134.929396 
L 242.619695 134.886985 
L 241.619695 134.856493 
L 240.619695 134.830448 
L 239.619695 134.809247 
L 238.619695 134.754946 
L 237.619695 134.727009 
L 236.619695 134.697285 
L 235.619695 134.67189 
L 234.619695 134.66069 
L 233.619695 134.650566 
L 232.619695 134.65077 
L 231.619695 134.66028 
L 230.619695 134.671933 
L 229.619695 134.702963 
L 228.619695 134.714131 
L 227.619695 134.744248 
L 226.619695 134.804025 
L 225.619695 134.841217 
L 224.619695 134.880313 
L 223.619695 134.922752 
L 222.619695 134.955517 
L 221.619695 135.022944 
L 220.619695 135.06207 
L 219.619695 135.104744 
L 218.619695 135.175325 
L 217.619695 135.211716 
L 216.619695 135.270119 
L 215.619695 135.381072 
L 214.619695 135.45173 
L 213.619695 135.56467 
L 212.619695 135.610443 
L 211.619695 135.671726 
L 210.619695 135.720225 
L 209.619695 135.801048 
L 208.619695 135.919567 
L 207.619695 135.989777 
L 206.619695 136.07304 
L 205.619695 136.106182 
L 204.619695 136.157419 
L 203.619695 136.225817 
L 202.619695 136.292033 
L 201.619695 136.36895 
L 200.299443 136.396265 
" clip-path="url(#pa83a4d27e9)" style="fill: none; stroke: #ff7f0e; stroke-opacity: 0.5; stroke-width: 0.2; stroke-linecap: square"/>
   </g>
   <g id="line2d_13">
    <path d="M 256.619695 70.548897 
L 255.619695 70.51746 
L 254.619695 70.48052 
L 253.619695 70.382774 
L 252.619695 70.350252 
L 251.619695 70.276627 
L 250.619695 70.238062 
L 249.619695 70.202649 
L 248.619695 70.145009 
L 247.619695 70.074622 
L 246.619695 70.022658 
L 245.619695 69.963568 
L 244.619695 69.875247 
L 243.619695 69.829103 
L 242.619695 69.786692 
L 241.619695 69.7562 
L 240.619695 69.730155 
L 239.619695 69.708955 
L 238.619695 69.654653 
L 237.619695 69.626716 
L 236.619695 69.596992 
L 235.619695 69.571597 
L 234.619695 69.560397 
L 233.619695 69.550273 
L 232.619695 69.550477 
L 231.619695 69.559987 
L 230.619695 69.57164 
L 229.619695 69.60267 
L 228.619695 69.613838 
L 227.619695 69.643955 
L 226.619695 69.703732 
L 225.619695 69.740924 
L 224.619695 69.78002 
L 223.619695 69.822459 
L 222.619695 69.855225 
L 221.619695 69.922651 
L 220.619695 69.961777 
L 219.619695 70.004451 
L 218.619695 70.075032 
L 217.619695 70.111423 
L 216.619695 70.169826 
L 215.619695 70.280779 
L 214.619695 70.351437 
L 213.619695 70.464377 
L 212.619695 70.51015 
L 211.619695 70.571433 
L 210.619695 70.619932 
L 209.619695 70.700755 
L 208.619695 70.819274 
L 207.619695 70.889484 
L 206.619695 70.972747 
L 205.619695 71.005889 
L 204.619695 71.057126 
L 203.619695 71.125524 
L 202.619695 71.19174 
L 201.619695 71.268657 
L 200.299443 71.295972 
" clip-path="url(#pa83a4d27e9)" style="fill: none; stroke: #ff7f0e; stroke-opacity: 0.5; stroke-width: 0.2; stroke-linecap: square"/>
   </g>
   <g id="line2d_14">
    <path d="M 256.619695 90.576931 
L 255.619695 90.545495 
L 254.619695 90.508554 
L 253.619695 90.410808 
L 252.619695 90.378286 
L 251.619695 90.304661 
L 250.619695 90.266096 
L 249.619695 90.230683 
L 248.619695 90.173043 
L 247.619695 90.102656 
L 246.619695 90.050692 
L 245.619695 89.991602 
L 244.619695 89.903281 
L 243.619695 89.857137 
L 242.619695 89.814726 
L 241.619695 89.784234 
L 240.619695 89.758189 
L 239.619695 89.736989 
L 238.619695 89.682687 
L 237.619695 89.65475 
L 236.619695 89.625026 
L 235.619695 89.599631 
L 234.619695 89.588431 
L 233.619695 89.578307 
L 232.619695 89.578511 
L 231.619695 89.588021 
L 230.619695 89.599675 
L 229.619695 89.630704 
L 228.619695 89.641872 
L 227.619695 89.671989 
L 226.619695 89.731766 
L 225.619695 89.768958 
L 224.619695 89.808054 
L 223.619695 89.850493 
L 222.619695 89.883259 
L 221.619695 89.950685 
L 220.619695 89.989811 
L 219.619695 90.032485 
L 218.619695 90.103066 
L 217.619695 90.139457 
L 216.619695 90.19786 
L 215.619695 90.308813 
L 214.619695 90.379471 
L 213.619695 90.492411 
L 212.619695 90.538184 
L 211.619695 90.599467 
L 210.619695 90.647966 
L 209.619695 90.728789 
L 208.619695 90.847308 
L 207.619695 90.917519 
L 206.619695 91.000781 
L 205.619695 91.033923 
L 204.619695 91.08516 
L 203.619695 91.153558 
L 202.619695 91.219774 
L 201.619695 91.296691 
L 200.299443 91.324006 
" clip-path="url(#pa83a4d27e9)" style="fill: none; stroke: #ff7f0e; stroke-opacity: 0.5; stroke-width: 0.2; stroke-linecap: square"/>
   </g>
   <g id="line2d_15">
    <path d="M 256.619695 59.36368 
L 255.619695 59.332244 
L 254.619695 59.295303 
L 253.619695 59.197557 
L 252.619695 59.165035 
L 251.619695 59.09141 
L 250.619695 59.052845 
L 249.619695 59.017432 
L 248.619695 58.959792 
L 247.619695 58.889406 
L 246.619695 58.837441 
L 245.619695 58.778352 
L 244.619695 58.690031 
L 243.619695 58.643886 
L 242.619695 58.601475 
L 241.619695 58.570983 
L 240.619695 58.544938 
L 239.619695 58.523738 
L 238.619695 58.469437 
L 237.619695 58.441499 
L 236.619695 58.411775 
L 235.619695 58.38638 
L 234.619695 58.37518 
L 233.619695 58.365056 
L 232.619695 58.36526 
L 231.619695 58.37477 
L 230.619695 58.386424 
L 229.619695 58.417453 
L 228.619695 58.428621 
L 227.619695 58.458738 
L 226.619695 58.518515 
L 225.619695 58.555707 
L 224.619695 58.594803 
L 223.619695 58.637243 
L 222.619695 58.670008 
L 221.619695 58.737434 
L 220.619695 58.77656 
L 219.619695 58.819235 
L 218.619695 58.889815 
L 217.619695 58.926206 
L 216.619695 58.984609 
L 215.619695 59.095562 
L 214.619695 59.16622 
L 213.619695 59.27916 
L 212.619695 59.324933 
L 211.619695 59.386216 
L 210.619695 59.434715 
L 209.619695 59.515538 
L 208.619695 59.634057 
L 207.619695 59.704268 
L 206.619695 59.78753 
L 205.619695 59.820672 
L 204.619695 59.871909 
L 203.619695 59.940308 
L 202.619695 60.006523 
L 201.619695 60.08344 
L 200.299443 60.110756 
" clip-path="url(#pa83a4d27e9)" style="fill: none; stroke: #ff7f0e; stroke-opacity: 0.5; stroke-width: 0.2; stroke-linecap: square"/>
   </g>
   <g id="line2d_16">
    <path d="M 256.619695 265.760001 
L 255.619695 265.728564 
L 254.619695 265.691624 
L 253.619695 265.593877 
L 252.619695 265.561356 
L 251.619695 265.487731 
L 250.619695 265.449165 
L 249.619695 265.413752 
L 248.619695 265.356112 
L 247.619695 265.285726 
L 246.619695 265.233762 
L 245.619695 265.174672 
L 244.619695 265.086351 
L 243.619695 265.040207 
L 242.619695 264.997796 
L 241.619695 264.967303 
L 240.619695 264.941258 
L 239.619695 264.920058 
L 238.619695 264.865757 
L 237.619695 264.83782 
L 236.619695 264.808096 
L 235.619695 264.782701 
L 234.619695 264.7715 
L 233.619695 264.761376 
L 232.619695 264.761581 
L 231.619695 264.771091 
L 230.619695 264.782744 
L 229.619695 264.813774 
L 228.619695 264.824941 
L 227.619695 264.855059 
L 226.619695 264.914836 
L 225.619695 264.952027 
L 224.619695 264.991124 
L 223.619695 265.033563 
L 222.619695 265.066328 
L 221.619695 265.133755 
L 220.619695 265.172881 
L 219.619695 265.215555 
L 218.619695 265.286136 
L 217.619695 265.322527 
L 216.619695 265.38093 
L 215.619695 265.491882 
L 214.619695 265.562541 
L 213.619695 265.675481 
L 212.619695 265.721253 
L 211.619695 265.782537 
L 210.619695 265.831036 
L 209.619695 265.911859 
L 208.619695 266.030378 
L 207.619695 266.100588 
L 206.619695 266.183851 
L 205.619695 266.216993 
L 204.619695 266.26823 
L 203.619695 266.336628 
L 202.619695 266.402844 
L 201.619695 266.479761 
L 200.299443 266.507076 
" clip-path="url(#pa83a4d27e9)" style="fill: none; stroke: #ff7f0e; stroke-opacity: 0.5; stroke-width: 0.2; stroke-linecap: square"/>
   </g>
   <g id="line2d_17">
    <path d="M 256.619695 219.940682 
L 255.619695 219.909246 
L 254.619695 219.872306 
L 253.619695 219.774559 
L 252.619695 219.742037 
L 251.619695 219.668413 
L 250.619695 219.629847 
L 249.619695 219.594434 
L 248.619695 219.536794 
L 247.619695 219.466408 
L 246.619695 219.414444 
L 245.619695 219.355354 
L 244.619695 219.267033 
L 243.619695 219.220889 
L 242.619695 219.178478 
L 241.619695 219.147985 
L 240.619695 219.12194 
L 239.619695 219.10074 
L 238.619695 219.046439 
L 237.619695 219.018501 
L 236.619695 218.988777 
L 235.619695 218.963383 
L 234.619695 218.952182 
L 233.619695 218.942058 
L 232.619695 218.942263 
L 231.619695 218.951772 
L 230.619695 218.963426 
L 229.619695 218.994455 
L 228.619695 219.005623 
L 227.619695 219.035741 
L 226.619695 219.095518 
L 225.619695 219.132709 
L 224.619695 219.171805 
L 223.619695 219.214245 
L 222.619695 219.24701 
L 221.619695 219.314437 
L 220.619695 219.353562 
L 219.619695 219.396237 
L 218.619695 219.466818 
L 217.619695 219.503208 
L 216.619695 219.561612 
L 215.619695 219.672564 
L 214.619695 219.743223 
L 213.619695 219.856162 
L 212.619695 219.901935 
L 211.619695 219.963218 
L 210.619695 220.011718 
L 209.619695 220.09254 
L 208.619695 220.211059 
L 207.619695 220.28127 
L 206.619695 220.364532 
L 205.619695 220.397674 
L 204.619695 220.448912 
L 203.619695 220.51731 
L 202.619695 220.583525 
L 201.619695 220.660442 
L 200.299443 220.687758 
" clip-path="url(#pa83a4d27e9)" style="fill: none; stroke: #ff7f0e; stroke-opacity: 0.5; stroke-width: 0.2; stroke-linecap: square"/>
   </g>
   <g id="line2d_18">
    <path d="M 256.619695 152.920939 
L 255.619695 152.889502 
L 254.619695 152.852562 
L 253.619695 152.754815 
L 252.619695 152.722294 
L 251.619695 152.648669 
L 250.619695 152.610103 
L 249.619695 152.57469 
L 248.619695 152.51705 
L 247.619695 152.446664 
L 246.619695 152.3947 
L 245.619695 152.33561 
L 244.619695 152.247289 
L 243.619695 152.201145 
L 242.619695 152.158734 
L 241.619695 152.128241 
L 240.619695 152.102196 
L 239.619695 152.080996 
L 238.619695 152.026695 
L 237.619695 151.998757 
L 236.619695 151.969034 
L 235.619695 151.943639 
L 234.619695 151.932438 
L 233.619695 151.922314 
L 232.619695 151.922519 
L 231.619695 151.932029 
L 230.619695 151.943682 
L 229.619695 151.974711 
L 228.619695 151.985879 
L 227.619695 152.015997 
L 226.619695 152.075774 
L 225.619695 152.112965 
L 224.619695 152.152061 
L 223.619695 152.194501 
L 222.619695 152.227266 
L 221.619695 152.294693 
L 220.619695 152.333819 
L 219.619695 152.376493 
L 218.619695 152.447074 
L 217.619695 152.483465 
L 216.619695 152.541868 
L 215.619695 152.65282 
L 214.619695 152.723479 
L 213.619695 152.836418 
L 212.619695 152.882191 
L 211.619695 152.943475 
L 210.619695 152.991974 
L 209.619695 153.072797 
L 208.619695 153.191316 
L 207.619695 153.261526 
L 206.619695 153.344789 
L 205.619695 153.37793 
L 204.619695 153.429168 
L 203.619695 153.497566 
L 202.619695 153.563781 
L 201.619695 153.640699 
L 200.299443 153.668014 
" clip-path="url(#pa83a4d27e9)" style="fill: none; stroke: #ff7f0e; stroke-opacity: 0.5; stroke-width: 0.2; stroke-linecap: square"/>
   </g>
   <g id="line2d_19">
    <path d="M 256.619695 123.270299 
L 255.619695 123.238863 
L 254.619695 123.201922 
L 253.619695 123.104176 
L 252.619695 123.071654 
L 251.619695 122.99803 
L 250.619695 122.959464 
L 249.619695 122.924051 
L 248.619695 122.866411 
L 247.619695 122.796025 
L 246.619695 122.744061 
L 245.619695 122.684971 
L 244.619695 122.59665 
L 243.619695 122.550506 
L 242.619695 122.508095 
L 241.619695 122.477602 
L 240.619695 122.451557 
L 239.619695 122.430357 
L 238.619695 122.376056 
L 237.619695 122.348118 
L 236.619695 122.318394 
L 235.619695 122.292999 
L 234.619695 122.281799 
L 233.619695 122.271675 
L 232.619695 122.271879 
L 231.619695 122.281389 
L 230.619695 122.293043 
L 229.619695 122.324072 
L 228.619695 122.33524 
L 227.619695 122.365358 
L 226.619695 122.425135 
L 225.619695 122.462326 
L 224.619695 122.501422 
L 223.619695 122.543862 
L 222.619695 122.576627 
L 221.619695 122.644053 
L 220.619695 122.683179 
L 219.619695 122.725854 
L 218.619695 122.796434 
L 217.619695 122.832825 
L 216.619695 122.891228 
L 215.619695 123.002181 
L 214.619695 123.072839 
L 213.619695 123.185779 
L 212.619695 123.231552 
L 211.619695 123.292835 
L 210.619695 123.341335 
L 209.619695 123.422157 
L 208.619695 123.540676 
L 207.619695 123.610887 
L 206.619695 123.694149 
L 205.619695 123.727291 
L 204.619695 123.778528 
L 203.619695 123.846927 
L 202.619695 123.913142 
L 201.619695 123.990059 
L 200.299443 124.017375 
" clip-path="url(#pa83a4d27e9)" style="fill: none; stroke: #ff7f0e; stroke-opacity: 0.5; stroke-width: 0.2; stroke-linecap: square"/>
   </g>
   <g id="line2d_20">
    <path d="M 256.619695 72.376165 
L 255.619695 72.344728 
L 254.619695 72.307788 
L 253.619695 72.210041 
L 252.619695 72.17752 
L 251.619695 72.103895 
L 250.619695 72.065329 
L 249.619695 72.029916 
L 248.619695 71.972276 
L 247.619695 71.90189 
L 246.619695 71.849926 
L 245.619695 71.790836 
L 244.619695 71.702515 
L 243.619695 71.656371 
L 242.619695 71.61396 
L 241.619695 71.583467 
L 240.619695 71.557422 
L 239.619695 71.536222 
L 238.619695 71.481921 
L 237.619695 71.453984 
L 236.619695 71.42426 
L 235.619695 71.398865 
L 234.619695 71.387664 
L 233.619695 71.37754 
L 232.619695 71.377745 
L 231.619695 71.387255 
L 230.619695 71.398908 
L 229.619695 71.429938 
L 228.619695 71.441105 
L 227.619695 71.471223 
L 226.619695 71.531 
L 225.619695 71.568191 
L 224.619695 71.607288 
L 223.619695 71.649727 
L 222.619695 71.682492 
L 221.619695 71.749919 
L 220.619695 71.789045 
L 219.619695 71.831719 
L 218.619695 71.9023 
L 217.619695 71.938691 
L 216.619695 71.997094 
L 215.619695 72.108046 
L 214.619695 72.178705 
L 213.619695 72.291645 
L 212.619695 72.337417 
L 211.619695 72.398701 
L 210.619695 72.4472 
L 209.619695 72.528023 
L 208.619695 72.646542 
L 207.619695 72.716752 
L 206.619695 72.800015 
L 205.619695 72.833156 
L 204.619695 72.884394 
L 203.619695 72.952792 
L 202.619695 73.019008 
L 201.619695 73.095925 
L 200.299443 73.12324 
" clip-path="url(#pa83a4d27e9)" style="fill: none; stroke: #ff7f0e; stroke-opacity: 0.5; stroke-width: 0.2; stroke-linecap: square"/>
   </g>
   <g id="line2d_21">
    <path d="M 390.34593 9.55569 
L 391.34593 9.587126 
L 392.34593 9.624066 
L 393.34593 9.721813 
L 394.34593 9.754335 
L 395.34593 9.827959 
L 396.34593 9.866525 
L 397.34593 9.901938 
L 398.34593 9.959578 
L 399.34593 10.029964 
L 400.34593 10.081928 
L 401.34593 10.141018 
L 402.34593 10.229339 
L 403.34593 10.275483 
L 404.34593 10.317894 
L 405.34593 10.348387 
L 406.34593 10.374432 
L 407.34593 10.395632 
L 408.34593 10.449933 
L 409.34593 10.477871 
L 410.34593 10.507595 
L 411.34593 10.532989 
L 412.34593 10.54419 
L 413.34593 10.554314 
L 414.34593 10.554109 
L 415.34593 10.5446 
L 416.34593 10.532946 
L 417.34593 10.501917 
L 418.34593 10.490749 
L 419.34593 10.460631 
L 420.34593 10.400854 
L 421.34593 10.363663 
L 422.34593 10.324567 
L 423.34593 10.282127 
L 424.34593 10.249362 
L 425.34593 10.181935 
L 426.34593 10.14281 
L 427.34593 10.100135 
L 428.34593 10.029554 
L 429.34593 9.993164 
L 430.34593 9.93476 
L 431.34593 9.823808 
L 432.34593 9.753149 
L 433.34593 9.64021 
L 434.34593 9.594437 
L 435.34593 9.533154 
L 436.34593 9.484654 
L 437.34593 9.403832 
L 438.34593 9.285313 
L 439.34593 9.215102 
L 440.34593 9.13184 
L 441.34593 9.098698 
L 442.34593 9.04746 
L 443.34593 8.979062 
L 444.34593 8.912847 
L 445.34593 8.83593 
L 446.666182 8.808614 
" clip-path="url(#pa83a4d27e9)" style="fill: none; stroke: #ff7f0e; stroke-opacity: 0.5; stroke-width: 0.2; stroke-linecap: square"/>
   </g>
   <g id="line2d_22">
    <path d="M 390.34593 309.498828 
L 391.34593 309.530265 
L 392.34593 309.567205 
L 393.34593 309.664952 
L 394.34593 309.697473 
L 395.34593 309.771098 
L 396.34593 309.809664 
L 397.34593 309.845077 
L 398.34593 309.902717 
L 399.34593 309.973103 
L 400.34593 310.025067 
L 401.34593 310.084157 
L 402.34593 310.172478 
L 403.34593 310.218622 
L 404.34593 310.261033 
L 405.34593 310.291526 
L 406.34593 310.317571 
L 407.34593 310.338771 
L 408.34593 310.393072 
L 409.34593 310.42101 
L 410.34593 310.450733 
L 411.34593 310.476128 
L 412.34593 310.487329 
L 413.34593 310.497453 
L 414.34593 310.497248 
L 415.34593 310.487738 
L 416.34593 310.476085 
L 417.34593 310.445056 
L 418.34593 310.433888 
L 419.34593 310.40377 
L 420.34593 310.343993 
L 421.34593 310.306802 
L 422.34593 310.267706 
L 423.34593 310.225266 
L 424.34593 310.192501 
L 425.34593 310.125074 
L 426.34593 310.085948 
L 427.34593 310.043274 
L 428.34593 309.972693 
L 429.34593 309.936302 
L 430.34593 309.877899 
L 431.34593 309.766947 
L 432.34593 309.696288 
L 433.34593 309.583349 
L 434.34593 309.537576 
L 435.34593 309.476292 
L 436.34593 309.427793 
L 437.34593 309.34697 
L 438.34593 309.228451 
L 439.34593 309.158241 
L 440.34593 309.074978 
L 441.34593 309.041837 
L 442.34593 308.990599 
L 443.34593 308.922201 
L 444.34593 308.855986 
L 445.34593 308.779068 
L 446.666182 308.751753 
" clip-path="url(#pa83a4d27e9)" style="fill: none; stroke: #ff7f0e; stroke-opacity: 0.5; stroke-width: 0.2; stroke-linecap: square"/>
   </g>
   <g id="line2d_23">
    <path d="M 390.34593 250.035596 
L 391.34593 250.067033 
L 392.34593 250.103973 
L 393.34593 250.20172 
L 394.34593 250.234241 
L 395.34593 250.307866 
L 396.34593 250.346432 
L 397.34593 250.381845 
L 398.34593 250.439485 
L 399.34593 250.509871 
L 400.34593 250.561835 
L 401.34593 250.620925 
L 402.34593 250.709246 
L 403.34593 250.75539 
L 404.34593 250.797801 
L 405.34593 250.828294 
L 406.34593 250.854339 
L 407.34593 250.875539 
L 408.34593 250.92984 
L 409.34593 250.957777 
L 410.34593 250.987501 
L 411.34593 251.012896 
L 412.34593 251.024097 
L 413.34593 251.034221 
L 414.34593 251.034016 
L 415.34593 251.024506 
L 416.34593 251.012853 
L 417.34593 250.981823 
L 418.34593 250.970656 
L 419.34593 250.940538 
L 420.34593 250.880761 
L 421.34593 250.84357 
L 422.34593 250.804473 
L 423.34593 250.762034 
L 424.34593 250.729269 
L 425.34593 250.661842 
L 426.34593 250.622716 
L 427.34593 250.580042 
L 428.34593 250.509461 
L 429.34593 250.47307 
L 430.34593 250.414667 
L 431.34593 250.303715 
L 432.34593 250.233056 
L 433.34593 250.120116 
L 434.34593 250.074344 
L 435.34593 250.01306 
L 436.34593 249.964561 
L 437.34593 249.883738 
L 438.34593 249.765219 
L 439.34593 249.695009 
L 440.34593 249.611746 
L 441.34593 249.578605 
L 442.34593 249.527367 
L 443.34593 249.458969 
L 444.34593 249.392753 
L 445.34593 249.315836 
L 446.666182 249.288521 
" clip-path="url(#pa83a4d27e9)" style="fill: none; stroke: #ff7f0e; stroke-opacity: 0.5; stroke-width: 0.2; stroke-linecap: square"/>
   </g>
   <g id="line2d_24">
    <path d="M 390.34593 253.68022 
L 391.34593 253.711656 
L 392.34593 253.748596 
L 393.34593 253.846343 
L 394.34593 253.878865 
L 395.34593 253.952489 
L 396.34593 253.991055 
L 397.34593 254.026468 
L 398.34593 254.084108 
L 399.34593 254.154494 
L 400.34593 254.206458 
L 401.34593 254.265548 
L 402.34593 254.353869 
L 403.34593 254.400013 
L 404.34593 254.442424 
L 405.34593 254.472917 
L 406.34593 254.498962 
L 407.34593 254.520162 
L 408.34593 254.574463 
L 409.34593 254.602401 
L 410.34593 254.632125 
L 411.34593 254.657519 
L 412.34593 254.66872 
L 413.34593 254.678844 
L 414.34593 254.678639 
L 415.34593 254.66913 
L 416.34593 254.657476 
L 417.34593 254.626447 
L 418.34593 254.615279 
L 419.34593 254.585161 
L 420.34593 254.525384 
L 421.34593 254.488193 
L 422.34593 254.449097 
L 423.34593 254.406657 
L 424.34593 254.373892 
L 425.34593 254.306466 
L 426.34593 254.26734 
L 427.34593 254.224665 
L 428.34593 254.154085 
L 429.34593 254.117694 
L 430.34593 254.05929 
L 431.34593 253.948338 
L 432.34593 253.87768 
L 433.34593 253.76474 
L 434.34593 253.718967 
L 435.34593 253.657684 
L 436.34593 253.609184 
L 437.34593 253.528362 
L 438.34593 253.409843 
L 439.34593 253.339632 
L 440.34593 253.25637 
L 441.34593 253.223228 
L 442.34593 253.171991 
L 443.34593 253.103592 
L 444.34593 253.037377 
L 445.34593 252.96046 
L 446.666182 252.933144 
" clip-path="url(#pa83a4d27e9)" style="fill: none; stroke: #ff7f0e; stroke-opacity: 0.5; stroke-width: 0.2; stroke-linecap: square"/>
   </g>
   <g id="line2d_25">
    <path d="M 390.34593 40.9349 
L 391.34593 40.966336 
L 392.34593 41.003277 
L 393.34593 41.101023 
L 394.34593 41.133545 
L 395.34593 41.20717 
L 396.34593 41.245735 
L 397.34593 41.281148 
L 398.34593 41.338788 
L 399.34593 41.409174 
L 400.34593 41.461139 
L 401.34593 41.520228 
L 402.34593 41.608549 
L 403.34593 41.654694 
L 404.34593 41.697105 
L 405.34593 41.727597 
L 406.34593 41.753642 
L 407.34593 41.774842 
L 408.34593 41.829143 
L 409.34593 41.857081 
L 410.34593 41.886805 
L 411.34593 41.9122 
L 412.34593 41.9234 
L 413.34593 41.933524 
L 414.34593 41.93332 
L 415.34593 41.92381 
L 416.34593 41.912156 
L 417.34593 41.881127 
L 418.34593 41.869959 
L 419.34593 41.839842 
L 420.34593 41.780065 
L 421.34593 41.742873 
L 422.34593 41.703777 
L 423.34593 41.661337 
L 424.34593 41.628572 
L 425.34593 41.561146 
L 426.34593 41.52202 
L 427.34593 41.479345 
L 428.34593 41.408765 
L 429.34593 41.372374 
L 430.34593 41.313971 
L 431.34593 41.203018 
L 432.34593 41.13236 
L 433.34593 41.01942 
L 434.34593 40.973647 
L 435.34593 40.912364 
L 436.34593 40.863865 
L 437.34593 40.783042 
L 438.34593 40.664523 
L 439.34593 40.594312 
L 440.34593 40.51105 
L 441.34593 40.477908 
L 442.34593 40.426671 
L 443.34593 40.358272 
L 444.34593 40.292057 
L 445.34593 40.21514 
L 446.666182 40.187824 
" clip-path="url(#pa83a4d27e9)" style="fill: none; stroke: #ff7f0e; stroke-opacity: 0.5; stroke-width: 0.2; stroke-linecap: square"/>
   </g>
   <g id="line2d_26">
    <path d="M 390.34593 281.953598 
L 391.34593 281.985034 
L 392.34593 282.021974 
L 393.34593 282.119721 
L 394.34593 282.152243 
L 395.34593 282.225867 
L 396.34593 282.264433 
L 397.34593 282.299846 
L 398.34593 282.357486 
L 399.34593 282.427872 
L 400.34593 282.479836 
L 401.34593 282.538926 
L 402.34593 282.627247 
L 403.34593 282.673391 
L 404.34593 282.715802 
L 405.34593 282.746295 
L 406.34593 282.77234 
L 407.34593 282.79354 
L 408.34593 282.847841 
L 409.34593 282.875779 
L 410.34593 282.905503 
L 411.34593 282.930897 
L 412.34593 282.942098 
L 413.34593 282.952222 
L 414.34593 282.952017 
L 415.34593 282.942508 
L 416.34593 282.930854 
L 417.34593 282.899825 
L 418.34593 282.888657 
L 419.34593 282.858539 
L 420.34593 282.798762 
L 421.34593 282.761571 
L 422.34593 282.722475 
L 423.34593 282.680035 
L 424.34593 282.64727 
L 425.34593 282.579844 
L 426.34593 282.540718 
L 427.34593 282.498043 
L 428.34593 282.427463 
L 429.34593 282.391072 
L 430.34593 282.332668 
L 431.34593 282.221716 
L 432.34593 282.151058 
L 433.34593 282.038118 
L 434.34593 281.992345 
L 435.34593 281.931062 
L 436.34593 281.882562 
L 437.34593 281.80174 
L 438.34593 281.683221 
L 439.34593 281.61301 
L 440.34593 281.529748 
L 441.34593 281.496606 
L 442.34593 281.445369 
L 443.34593 281.37697 
L 444.34593 281.310755 
L 445.34593 281.233838 
L 446.666182 281.206522 
" clip-path="url(#pa83a4d27e9)" style="fill: none; stroke: #ff7f0e; stroke-opacity: 0.5; stroke-width: 0.2; stroke-linecap: square"/>
   </g>
   <g id="line2d_27">
    <path d="M 390.34593 19.825982 
L 391.34593 19.857418 
L 392.34593 19.894359 
L 393.34593 19.992105 
L 394.34593 20.024627 
L 395.34593 20.098251 
L 396.34593 20.136817 
L 397.34593 20.17223 
L 398.34593 20.22987 
L 399.34593 20.300256 
L 400.34593 20.352221 
L 401.34593 20.41131 
L 402.34593 20.499631 
L 403.34593 20.545776 
L 404.34593 20.588187 
L 405.34593 20.618679 
L 406.34593 20.644724 
L 407.34593 20.665924 
L 408.34593 20.720225 
L 409.34593 20.748163 
L 410.34593 20.777887 
L 411.34593 20.803282 
L 412.34593 20.814482 
L 413.34593 20.824606 
L 414.34593 20.824402 
L 415.34593 20.814892 
L 416.34593 20.803238 
L 417.34593 20.772209 
L 418.34593 20.761041 
L 419.34593 20.730924 
L 420.34593 20.671147 
L 421.34593 20.633955 
L 422.34593 20.594859 
L 423.34593 20.552419 
L 424.34593 20.519654 
L 425.34593 20.452228 
L 426.34593 20.413102 
L 427.34593 20.370427 
L 428.34593 20.299847 
L 429.34593 20.263456 
L 430.34593 20.205053 
L 431.34593 20.0941 
L 432.34593 20.023442 
L 433.34593 19.910502 
L 434.34593 19.864729 
L 435.34593 19.803446 
L 436.34593 19.754947 
L 437.34593 19.674124 
L 438.34593 19.555605 
L 439.34593 19.485394 
L 440.34593 19.402132 
L 441.34593 19.36899 
L 442.34593 19.317753 
L 443.34593 19.249354 
L 444.34593 19.183139 
L 445.34593 19.106222 
L 446.666182 19.078906 
" clip-path="url(#pa83a4d27e9)" style="fill: none; stroke: #ff7f0e; stroke-opacity: 0.5; stroke-width: 0.2; stroke-linecap: square"/>
   </g>
   <g id="line2d_28">
    <path d="M 390.34593 258.562898 
L 391.34593 258.594334 
L 392.34593 258.631274 
L 393.34593 258.729021 
L 394.34593 258.761543 
L 395.34593 258.835167 
L 396.34593 258.873733 
L 397.34593 258.909146 
L 398.34593 258.966786 
L 399.34593 259.037172 
L 400.34593 259.089136 
L 401.34593 259.148226 
L 402.34593 259.236547 
L 403.34593 259.282691 
L 404.34593 259.325102 
L 405.34593 259.355595 
L 406.34593 259.38164 
L 407.34593 259.40284 
L 408.34593 259.457141 
L 409.34593 259.485079 
L 410.34593 259.514803 
L 411.34593 259.540197 
L 412.34593 259.551398 
L 413.34593 259.561522 
L 414.34593 259.561317 
L 415.34593 259.551808 
L 416.34593 259.540154 
L 417.34593 259.509125 
L 418.34593 259.497957 
L 419.34593 259.467839 
L 420.34593 259.408062 
L 421.34593 259.370871 
L 422.34593 259.331775 
L 423.34593 259.289335 
L 424.34593 259.25657 
L 425.34593 259.189144 
L 426.34593 259.150018 
L 427.34593 259.107343 
L 428.34593 259.036763 
L 429.34593 259.000372 
L 430.34593 258.941968 
L 431.34593 258.831016 
L 432.34593 258.760358 
L 433.34593 258.647418 
L 434.34593 258.601645 
L 435.34593 258.540362 
L 436.34593 258.491862 
L 437.34593 258.41104 
L 438.34593 258.292521 
L 439.34593 258.22231 
L 440.34593 258.139048 
L 441.34593 258.105906 
L 442.34593 258.054669 
L 443.34593 257.98627 
L 444.34593 257.920055 
L 445.34593 257.843138 
L 446.666182 257.815822 
" clip-path="url(#pa83a4d27e9)" style="fill: none; stroke: #ff7f0e; stroke-opacity: 0.5; stroke-width: 0.2; stroke-linecap: square"/>
   </g>
   <g id="line2d_29">
    <path d="M 390.34593 117.767943 
L 391.34593 117.799379 
L 392.34593 117.83632 
L 393.34593 117.934066 
L 394.34593 117.966588 
L 395.34593 118.040213 
L 396.34593 118.078778 
L 397.34593 118.114191 
L 398.34593 118.171831 
L 399.34593 118.242217 
L 400.34593 118.294182 
L 401.34593 118.353271 
L 402.34593 118.441592 
L 403.34593 118.487737 
L 404.34593 118.530148 
L 405.34593 118.56064 
L 406.34593 118.586685 
L 407.34593 118.607885 
L 408.34593 118.662186 
L 409.34593 118.690124 
L 410.34593 118.719848 
L 411.34593 118.745243 
L 412.34593 118.756443 
L 413.34593 118.766567 
L 414.34593 118.766363 
L 415.34593 118.756853 
L 416.34593 118.745199 
L 417.34593 118.71417 
L 418.34593 118.703002 
L 419.34593 118.672885 
L 420.34593 118.613108 
L 421.34593 118.575916 
L 422.34593 118.53682 
L 423.34593 118.49438 
L 424.34593 118.461615 
L 425.34593 118.394189 
L 426.34593 118.355063 
L 427.34593 118.312388 
L 428.34593 118.241808 
L 429.34593 118.205417 
L 430.34593 118.147014 
L 431.34593 118.036061 
L 432.34593 117.965403 
L 433.34593 117.852463 
L 434.34593 117.80669 
L 435.34593 117.745407 
L 436.34593 117.696908 
L 437.34593 117.616085 
L 438.34593 117.497566 
L 439.34593 117.427355 
L 440.34593 117.344093 
L 441.34593 117.310951 
L 442.34593 117.259714 
L 443.34593 117.191315 
L 444.34593 117.1251 
L 445.34593 117.048183 
L 446.666182 117.020867 
" clip-path="url(#pa83a4d27e9)" style="fill: none; stroke: #ff7f0e; stroke-opacity: 0.5; stroke-width: 0.2; stroke-linecap: square"/>
   </g>
   <g id="line2d_30">
    <path d="M 390.34593 309.642977 
L 391.34593 309.674413 
L 392.34593 309.711353 
L 393.34593 309.8091 
L 394.34593 309.841621 
L 395.34593 309.915246 
L 396.34593 309.953812 
L 397.34593 309.989225 
L 398.34593 310.046865 
L 399.34593 310.117251 
L 400.34593 310.169215 
L 401.34593 310.228305 
L 402.34593 310.316626 
L 403.34593 310.36277 
L 404.34593 310.405181 
L 405.34593 310.435674 
L 406.34593 310.461719 
L 407.34593 310.482919 
L 408.34593 310.53722 
L 409.34593 310.565158 
L 410.34593 310.594882 
L 411.34593 310.620276 
L 412.34593 310.631477 
L 413.34593 310.641601 
L 414.34593 310.641396 
L 415.34593 310.631886 
L 416.34593 310.620233 
L 417.34593 310.589204 
L 418.34593 310.578036 
L 419.34593 310.547918 
L 420.34593 310.488141 
L 421.34593 310.45095 
L 422.34593 310.411854 
L 423.34593 310.369414 
L 424.34593 310.336649 
L 425.34593 310.269222 
L 426.34593 310.230096 
L 427.34593 310.187422 
L 428.34593 310.116841 
L 429.34593 310.08045 
L 430.34593 310.022047 
L 431.34593 309.911095 
L 432.34593 309.840436 
L 433.34593 309.727497 
L 434.34593 309.681724 
L 435.34593 309.62044 
L 436.34593 309.571941 
L 437.34593 309.491118 
L 438.34593 309.3726 
L 439.34593 309.302389 
L 440.34593 309.219126 
L 441.34593 309.185985 
L 442.34593 309.134747 
L 443.34593 309.066349 
L 444.34593 309.000134 
L 445.34593 308.923216 
L 446.666182 308.895901 
" clip-path="url(#pa83a4d27e9)" style="fill: none; stroke: #ff7f0e; stroke-opacity: 0.5; stroke-width: 0.2; stroke-linecap: square"/>
   </g>
   <g id="line2d_31">
    <path d="M 446.666182 173.6694 
L 445.666182 173.637964 
L 444.666182 173.601024 
L 443.666182 173.503277 
L 442.666182 173.470755 
L 441.666182 173.397131 
L 440.666182 173.358565 
L 439.666182 173.323152 
L 438.666182 173.265512 
L 437.666182 173.195126 
L 436.666182 173.143162 
L 435.666182 173.084072 
L 434.666182 172.995751 
L 433.666182 172.949607 
L 432.666182 172.907196 
L 431.666182 172.876703 
L 430.666182 172.850658 
L 429.666182 172.829458 
L 428.666182 172.775157 
L 427.666182 172.747219 
L 426.666182 172.717495 
L 425.666182 172.692101 
L 424.666182 172.6809 
L 423.666182 172.670776 
L 422.666182 172.67098 
L 421.666182 172.68049 
L 420.666182 172.692144 
L 419.666182 172.723173 
L 418.666182 172.734341 
L 417.666182 172.764459 
L 416.666182 172.824236 
L 415.666182 172.861427 
L 414.666182 172.900523 
L 413.666182 172.942963 
L 412.666182 172.975728 
L 411.666182 173.043154 
L 410.666182 173.08228 
L 409.666182 173.124955 
L 408.666182 173.195535 
L 407.666182 173.231926 
L 406.666182 173.29033 
L 405.666182 173.401282 
L 404.666182 173.47194 
L 403.666182 173.58488 
L 402.666182 173.630653 
L 401.666182 173.691936 
L 400.666182 173.740436 
L 399.666182 173.821258 
L 398.666182 173.939777 
L 397.666182 174.009988 
L 396.666182 174.09325 
L 395.666182 174.126392 
L 394.666182 174.177629 
L 393.666182 174.246028 
L 392.666182 174.312243 
L 391.666182 174.38916 
L 390.34593 174.416476 
" clip-path="url(#pa83a4d27e9)" style="fill: none; stroke: #2ca02c; stroke-opacity: 0.5; stroke-width: 0.2; stroke-linecap: square"/>
   </g>
   <g id="line2d_32">
    <path d="M 446.666182 76.828431 
L 445.666182 76.796995 
L 444.666182 76.760054 
L 443.666182 76.662308 
L 442.666182 76.629786 
L 441.666182 76.556162 
L 440.666182 76.517596 
L 439.666182 76.482183 
L 438.666182 76.424543 
L 437.666182 76.354157 
L 436.666182 76.302193 
L 435.666182 76.243103 
L 434.666182 76.154782 
L 433.666182 76.108638 
L 432.666182 76.066227 
L 431.666182 76.035734 
L 430.666182 76.009689 
L 429.666182 75.988489 
L 428.666182 75.934188 
L 427.666182 75.90625 
L 426.666182 75.876526 
L 425.666182 75.851131 
L 424.666182 75.839931 
L 423.666182 75.829807 
L 422.666182 75.830011 
L 421.666182 75.839521 
L 420.666182 75.851175 
L 419.666182 75.882204 
L 418.666182 75.893372 
L 417.666182 75.92349 
L 416.666182 75.983267 
L 415.666182 76.020458 
L 414.666182 76.059554 
L 413.666182 76.101994 
L 412.666182 76.134759 
L 411.666182 76.202185 
L 410.666182 76.241311 
L 409.666182 76.283986 
L 408.666182 76.354566 
L 407.666182 76.390957 
L 406.666182 76.44936 
L 405.666182 76.560313 
L 404.666182 76.630971 
L 403.666182 76.743911 
L 402.666182 76.789684 
L 401.666182 76.850967 
L 400.666182 76.899467 
L 399.666182 76.980289 
L 398.666182 77.098808 
L 397.666182 77.169019 
L 396.666182 77.252281 
L 395.666182 77.285423 
L 394.666182 77.33666 
L 393.666182 77.405059 
L 392.666182 77.471274 
L 391.666182 77.548191 
L 390.34593 77.575507 
" clip-path="url(#pa83a4d27e9)" style="fill: none; stroke: #2ca02c; stroke-opacity: 0.5; stroke-width: 0.2; stroke-linecap: square"/>
   </g>
   <g id="line2d_33">
    <path d="M 446.666182 157.726722 
L 445.666182 157.695286 
L 444.666182 157.658345 
L 443.666182 157.560599 
L 442.666182 157.528077 
L 441.666182 157.454452 
L 440.666182 157.415887 
L 439.666182 157.380474 
L 438.666182 157.322834 
L 437.666182 157.252447 
L 436.666182 157.200483 
L 435.666182 157.141393 
L 434.666182 157.053072 
L 433.666182 157.006928 
L 432.666182 156.964517 
L 431.666182 156.934025 
L 430.666182 156.90798 
L 429.666182 156.88678 
L 428.666182 156.832478 
L 427.666182 156.804541 
L 426.666182 156.774817 
L 425.666182 156.749422 
L 424.666182 156.738222 
L 423.666182 156.728098 
L 422.666182 156.728302 
L 421.666182 156.737812 
L 420.666182 156.749466 
L 419.666182 156.780495 
L 418.666182 156.791663 
L 417.666182 156.82178 
L 416.666182 156.881557 
L 415.666182 156.918749 
L 414.666182 156.957845 
L 413.666182 157.000284 
L 412.666182 157.03305 
L 411.666182 157.100476 
L 410.666182 157.139602 
L 409.666182 157.182276 
L 408.666182 157.252857 
L 407.666182 157.289248 
L 406.666182 157.347651 
L 405.666182 157.458604 
L 404.666182 157.529262 
L 403.666182 157.642202 
L 402.666182 157.687975 
L 401.666182 157.749258 
L 400.666182 157.797757 
L 399.666182 157.87858 
L 398.666182 157.997099 
L 397.666182 158.06731 
L 396.666182 158.150572 
L 395.666182 158.183714 
L 394.666182 158.234951 
L 393.666182 158.303349 
L 392.666182 158.369565 
L 391.666182 158.446482 
L 390.34593 158.473797 
" clip-path="url(#pa83a4d27e9)" style="fill: none; stroke: #2ca02c; stroke-opacity: 0.5; stroke-width: 0.2; stroke-linecap: square"/>
   </g>
   <g id="line2d_34">
    <path d="M 446.666182 194.008879 
L 445.666182 193.977442 
L 444.666182 193.940502 
L 443.666182 193.842755 
L 442.666182 193.810234 
L 441.666182 193.736609 
L 440.666182 193.698043 
L 439.666182 193.66263 
L 438.666182 193.60499 
L 437.666182 193.534604 
L 436.666182 193.48264 
L 435.666182 193.42355 
L 434.666182 193.335229 
L 433.666182 193.289085 
L 432.666182 193.246674 
L 431.666182 193.216181 
L 430.666182 193.190136 
L 429.666182 193.168936 
L 428.666182 193.114635 
L 427.666182 193.086698 
L 426.666182 193.056974 
L 425.666182 193.031579 
L 424.666182 193.020378 
L 423.666182 193.010254 
L 422.666182 193.010459 
L 421.666182 193.019969 
L 420.666182 193.031622 
L 419.666182 193.062652 
L 418.666182 193.073819 
L 417.666182 193.103937 
L 416.666182 193.163714 
L 415.666182 193.200905 
L 414.666182 193.240002 
L 413.666182 193.282441 
L 412.666182 193.315206 
L 411.666182 193.382633 
L 410.666182 193.421759 
L 409.666182 193.464433 
L 408.666182 193.535014 
L 407.666182 193.571405 
L 406.666182 193.629808 
L 405.666182 193.74076 
L 404.666182 193.811419 
L 403.666182 193.924359 
L 402.666182 193.970131 
L 401.666182 194.031415 
L 400.666182 194.079914 
L 399.666182 194.160737 
L 398.666182 194.279256 
L 397.666182 194.349466 
L 396.666182 194.432729 
L 395.666182 194.46587 
L 394.666182 194.517108 
L 393.666182 194.585506 
L 392.666182 194.651722 
L 391.666182 194.728639 
L 390.34593 194.755954 
" clip-path="url(#pa83a4d27e9)" style="fill: none; stroke: #2ca02c; stroke-opacity: 0.5; stroke-width: 0.2; stroke-linecap: square"/>
   </g>
   <g id="line2d_35">
    <path d="M 446.666182 302.088826 
L 445.666182 302.05739 
L 444.666182 302.02045 
L 443.666182 301.922703 
L 442.666182 301.890182 
L 441.666182 301.816557 
L 440.666182 301.777991 
L 439.666182 301.742578 
L 438.666182 301.684938 
L 437.666182 301.614552 
L 436.666182 301.562588 
L 435.666182 301.503498 
L 434.666182 301.415177 
L 433.666182 301.369033 
L 432.666182 301.326622 
L 431.666182 301.296129 
L 430.666182 301.270084 
L 429.666182 301.248884 
L 428.666182 301.194583 
L 427.666182 301.166645 
L 426.666182 301.136921 
L 425.666182 301.111527 
L 424.666182 301.100326 
L 423.666182 301.090202 
L 422.666182 301.090407 
L 421.666182 301.099916 
L 420.666182 301.11157 
L 419.666182 301.142599 
L 418.666182 301.153767 
L 417.666182 301.183885 
L 416.666182 301.243662 
L 415.666182 301.280853 
L 414.666182 301.319949 
L 413.666182 301.362389 
L 412.666182 301.395154 
L 411.666182 301.462581 
L 410.666182 301.501706 
L 409.666182 301.544381 
L 408.666182 301.614962 
L 407.666182 301.651352 
L 406.666182 301.709756 
L 405.666182 301.820708 
L 404.666182 301.891367 
L 403.666182 302.004306 
L 402.666182 302.050079 
L 401.666182 302.111362 
L 400.666182 302.159862 
L 399.666182 302.240684 
L 398.666182 302.359203 
L 397.666182 302.429414 
L 396.666182 302.512676 
L 395.666182 302.545818 
L 394.666182 302.597056 
L 393.666182 302.665454 
L 392.666182 302.731669 
L 391.666182 302.808586 
L 390.34593 302.835902 
" clip-path="url(#pa83a4d27e9)" style="fill: none; stroke: #2ca02c; stroke-opacity: 0.5; stroke-width: 0.2; stroke-linecap: square"/>
   </g>
   <g id="line2d_36">
    <path d="M 446.666182 266.952816 
L 445.666182 266.921379 
L 444.666182 266.884439 
L 443.666182 266.786692 
L 442.666182 266.754171 
L 441.666182 266.680546 
L 440.666182 266.641981 
L 439.666182 266.606567 
L 438.666182 266.548927 
L 437.666182 266.478541 
L 436.666182 266.426577 
L 435.666182 266.367487 
L 434.666182 266.279166 
L 433.666182 266.233022 
L 432.666182 266.190611 
L 431.666182 266.160118 
L 430.666182 266.134073 
L 429.666182 266.112873 
L 428.666182 266.058572 
L 427.666182 266.030635 
L 426.666182 266.000911 
L 425.666182 265.975516 
L 424.666182 265.964315 
L 423.666182 265.954192 
L 422.666182 265.954396 
L 421.666182 265.963906 
L 420.666182 265.975559 
L 419.666182 266.006589 
L 418.666182 266.017756 
L 417.666182 266.047874 
L 416.666182 266.107651 
L 415.666182 266.144842 
L 414.666182 266.183939 
L 413.666182 266.226378 
L 412.666182 266.259143 
L 411.666182 266.32657 
L 410.666182 266.365696 
L 409.666182 266.40837 
L 408.666182 266.478951 
L 407.666182 266.515342 
L 406.666182 266.573745 
L 405.666182 266.684697 
L 404.666182 266.755356 
L 403.666182 266.868296 
L 402.666182 266.914068 
L 401.666182 266.975352 
L 400.666182 267.023851 
L 399.666182 267.104674 
L 398.666182 267.223193 
L 397.666182 267.293403 
L 396.666182 267.376666 
L 395.666182 267.409808 
L 394.666182 267.461045 
L 393.666182 267.529443 
L 392.666182 267.595659 
L 391.666182 267.672576 
L 390.34593 267.699891 
" clip-path="url(#pa83a4d27e9)" style="fill: none; stroke: #2ca02c; stroke-opacity: 0.5; stroke-width: 0.2; stroke-linecap: square"/>
   </g>
   <g id="line2d_37">
    <path d="M 446.666182 58.197065 
L 445.666182 58.165628 
L 444.666182 58.128688 
L 443.666182 58.030941 
L 442.666182 57.99842 
L 441.666182 57.924795 
L 440.666182 57.886229 
L 439.666182 57.850816 
L 438.666182 57.793176 
L 437.666182 57.72279 
L 436.666182 57.670826 
L 435.666182 57.611736 
L 434.666182 57.523415 
L 433.666182 57.477271 
L 432.666182 57.43486 
L 431.666182 57.404367 
L 430.666182 57.378322 
L 429.666182 57.357122 
L 428.666182 57.302821 
L 427.666182 57.274884 
L 426.666182 57.24516 
L 425.666182 57.219765 
L 424.666182 57.208564 
L 423.666182 57.19844 
L 422.666182 57.198645 
L 421.666182 57.208155 
L 420.666182 57.219808 
L 419.666182 57.250838 
L 418.666182 57.262005 
L 417.666182 57.292123 
L 416.666182 57.3519 
L 415.666182 57.389091 
L 414.666182 57.428188 
L 413.666182 57.470627 
L 412.666182 57.503392 
L 411.666182 57.570819 
L 410.666182 57.609945 
L 409.666182 57.652619 
L 408.666182 57.7232 
L 407.666182 57.759591 
L 406.666182 57.817994 
L 405.666182 57.928946 
L 404.666182 57.999605 
L 403.666182 58.112545 
L 402.666182 58.158317 
L 401.666182 58.219601 
L 400.666182 58.2681 
L 399.666182 58.348923 
L 398.666182 58.467442 
L 397.666182 58.537652 
L 396.666182 58.620915 
L 395.666182 58.654056 
L 394.666182 58.705294 
L 393.666182 58.773692 
L 392.666182 58.839908 
L 391.666182 58.916825 
L 390.34593 58.94414 
" clip-path="url(#pa83a4d27e9)" style="fill: none; stroke: #2ca02c; stroke-opacity: 0.5; stroke-width: 0.2; stroke-linecap: square"/>
   </g>
   <g id="line2d_38">
    <path d="M 446.666182 63.522257 
L 445.666182 63.490821 
L 444.666182 63.453881 
L 443.666182 63.356134 
L 442.666182 63.323612 
L 441.666182 63.249988 
L 440.666182 63.211422 
L 439.666182 63.176009 
L 438.666182 63.118369 
L 437.666182 63.047983 
L 436.666182 62.996019 
L 435.666182 62.936929 
L 434.666182 62.848608 
L 433.666182 62.802464 
L 432.666182 62.760053 
L 431.666182 62.72956 
L 430.666182 62.703515 
L 429.666182 62.682315 
L 428.666182 62.628014 
L 427.666182 62.600076 
L 426.666182 62.570352 
L 425.666182 62.544958 
L 424.666182 62.533757 
L 423.666182 62.523633 
L 422.666182 62.523838 
L 421.666182 62.533347 
L 420.666182 62.545001 
L 419.666182 62.57603 
L 418.666182 62.587198 
L 417.666182 62.617316 
L 416.666182 62.677093 
L 415.666182 62.714284 
L 414.666182 62.75338 
L 413.666182 62.79582 
L 412.666182 62.828585 
L 411.666182 62.896011 
L 410.666182 62.935137 
L 409.666182 62.977812 
L 408.666182 63.048393 
L 407.666182 63.084783 
L 406.666182 63.143187 
L 405.666182 63.254139 
L 404.666182 63.324797 
L 403.666182 63.437737 
L 402.666182 63.48351 
L 401.666182 63.544793 
L 400.666182 63.593293 
L 399.666182 63.674115 
L 398.666182 63.792634 
L 397.666182 63.862845 
L 396.666182 63.946107 
L 395.666182 63.979249 
L 394.666182 64.030487 
L 393.666182 64.098885 
L 392.666182 64.1651 
L 391.666182 64.242017 
L 390.34593 64.269333 
" clip-path="url(#pa83a4d27e9)" style="fill: none; stroke: #2ca02c; stroke-opacity: 0.5; stroke-width: 0.2; stroke-linecap: square"/>
   </g>
   <g id="line2d_39">
    <path d="M 446.666182 274.266438 
L 445.666182 274.235002 
L 444.666182 274.198062 
L 443.666182 274.100315 
L 442.666182 274.067793 
L 441.666182 273.994169 
L 440.666182 273.955603 
L 439.666182 273.92019 
L 438.666182 273.86255 
L 437.666182 273.792164 
L 436.666182 273.7402 
L 435.666182 273.68111 
L 434.666182 273.592789 
L 433.666182 273.546645 
L 432.666182 273.504234 
L 431.666182 273.473741 
L 430.666182 273.447696 
L 429.666182 273.426496 
L 428.666182 273.372195 
L 427.666182 273.344257 
L 426.666182 273.314533 
L 425.666182 273.289139 
L 424.666182 273.277938 
L 423.666182 273.267814 
L 422.666182 273.268018 
L 421.666182 273.277528 
L 420.666182 273.289182 
L 419.666182 273.320211 
L 418.666182 273.331379 
L 417.666182 273.361497 
L 416.666182 273.421274 
L 415.666182 273.458465 
L 414.666182 273.497561 
L 413.666182 273.540001 
L 412.666182 273.572766 
L 411.666182 273.640192 
L 410.666182 273.679318 
L 409.666182 273.721993 
L 408.666182 273.792573 
L 407.666182 273.828964 
L 406.666182 273.887368 
L 405.666182 273.99832 
L 404.666182 274.068978 
L 403.666182 274.181918 
L 402.666182 274.227691 
L 401.666182 274.288974 
L 400.666182 274.337474 
L 399.666182 274.418296 
L 398.666182 274.536815 
L 397.666182 274.607026 
L 396.666182 274.690288 
L 395.666182 274.72343 
L 394.666182 274.774667 
L 393.666182 274.843066 
L 392.666182 274.909281 
L 391.666182 274.986198 
L 390.34593 275.013514 
" clip-path="url(#pa83a4d27e9)" style="fill: none; stroke: #2ca02c; stroke-opacity: 0.5; stroke-width: 0.2; stroke-linecap: square"/>
   </g>
   <g id="line2d_40">
    <path d="M 446.666182 246.525366 
L 445.666182 246.493929 
L 444.666182 246.456989 
L 443.666182 246.359242 
L 442.666182 246.326721 
L 441.666182 246.253096 
L 440.666182 246.21453 
L 439.666182 246.179117 
L 438.666182 246.121477 
L 437.666182 246.051091 
L 436.666182 245.999127 
L 435.666182 245.940037 
L 434.666182 245.851716 
L 433.666182 245.805572 
L 432.666182 245.763161 
L 431.666182 245.732668 
L 430.666182 245.706623 
L 429.666182 245.685423 
L 428.666182 245.631122 
L 427.666182 245.603185 
L 426.666182 245.573461 
L 425.666182 245.548066 
L 424.666182 245.536865 
L 423.666182 245.526741 
L 422.666182 245.526946 
L 421.666182 245.536456 
L 420.666182 245.548109 
L 419.666182 245.579139 
L 418.666182 245.590306 
L 417.666182 245.620424 
L 416.666182 245.680201 
L 415.666182 245.717392 
L 414.666182 245.756489 
L 413.666182 245.798928 
L 412.666182 245.831693 
L 411.666182 245.89912 
L 410.666182 245.938246 
L 409.666182 245.98092 
L 408.666182 246.051501 
L 407.666182 246.087892 
L 406.666182 246.146295 
L 405.666182 246.257247 
L 404.666182 246.327906 
L 403.666182 246.440846 
L 402.666182 246.486618 
L 401.666182 246.547902 
L 400.666182 246.596401 
L 399.666182 246.677224 
L 398.666182 246.795743 
L 397.666182 246.865953 
L 396.666182 246.949216 
L 395.666182 246.982357 
L 394.666182 247.033595 
L 393.666182 247.101993 
L 392.666182 247.168209 
L 391.666182 247.245126 
L 390.34593 247.272441 
" clip-path="url(#pa83a4d27e9)" style="fill: none; stroke: #2ca02c; stroke-opacity: 0.5; stroke-width: 0.2; stroke-linecap: square"/>
   </g>
   <g id="patch_3">
    <path d="M 72.103551 7.2 
L 72.103551 318.021875 
M 194.769099 7.2 
L 194.769099 318.021875 
" clip-path="url(#pa83a4d27e9)" style="fill: none; stroke: #ffffff; stroke-width: 3; stroke-linejoin: miter"/>
    <path d="M 72.103551 7.2 
L 72.103551 318.021875 
M 194.769099 7.2 
L 194.769099 318.021875 
" clip-path="url(#pa83a4d27e9)" style="fill: none; stroke: #1f77b4; stroke-linejoin: miter"/>
   </g>
   <g id="FillBetweenPolyCollection_1">
    <path d="M 194.769099 7.2 
L 72.103551 7.2 
L 72.103551 318.021875 
L 194.769099 318.021875 
L 194.769099 318.021875 
L 194.769099 7.2 
z
" clip-path="url(#pa83a4d27e9)" style="fill: #1f77b4; fill-opacity: 0.5"/>
   </g>
   <g id="patch_4">
    <path d="M 262.150038 7.2 
L 262.150038 318.021875 
M 384.815587 7.2 
L 384.815587 318.021875 
" clip-path="url(#pa83a4d27e9)" style="fill: none; stroke: #ffffff; stroke-width: 3; stroke-linejoin: miter"/>
    <path d="M 262.150038 7.2 
L 262.150038 318.021875 
M 384.815587 7.2 
L 384.815587 318.021875 
" clip-path="url(#pa83a4d27e9)" style="fill: none; stroke: #ff7f0e; stroke-linejoin: miter"/>
   </g>
   <g id="FillBetweenPolyCollection_2">
    <path d="M 384.815587 7.2 
L 262.150038 7.2 
L 262.150038 318.021875 
L 384.815587 318.021875 
L 384.815587 318.021875 
L 384.815587 7.2 
z
" clip-path="url(#pa83a4d27e9)" style="fill: #ff7f0e; fill-opacity: 0.5"/>
   </g>
   <g id="patch_5">
    <path d="M 452.196526 7.2 
L 452.196526 318.021875 
M 574.862074 7.2 
L 574.862074 318.021875 
" clip-path="url(#pa83a4d27e9)" style="fill: none; stroke: #ffffff; stroke-width: 3; stroke-linejoin: miter"/>
    <path d="M 452.196526 7.2 
L 452.196526 318.021875 
M 574.862074 7.2 
L 574.862074 318.021875 
" clip-path="url(#pa83a4d27e9)" style="fill: none; stroke: #2ca02c; stroke-linejoin: miter"/>
   </g>
   <g id="FillBetweenPolyCollection_3">
    <path d="M 574.862074 7.2 
L 452.196526 7.2 
L 452.196526 318.021875 
L 574.862074 318.021875 
L 574.862074 318.021875 
L 574.862074 7.2 
z
" clip-path="url(#pa83a4d27e9)" style="fill: #2ca02c; fill-opacity: 0.5"/>
   </g>
   <g id="matplotlib.axis_1">
    <g id="xtick_1">
     <g id="line2d_41"/>
     <g id="text_1">
      <!-- d0 -->
      <g transform="translate(127.080856 329.120312) scale(0.1 -0.1)">
       <defs>
        <path id="DejaVuSans-64" d="M 2906 2969 
L 2906 4863 
L 3481 4863 
L 3481 0 
L 2906 0 
L 2906 525 
Q 2725 213 2448 61 
Q 2172 -91 1784 -91 
Q 1150 -91 751 415 
Q 353 922 353 1747 
Q 353 2572 751 3078 
Q 1150 3584 1784 3584 
Q 2172 3584 2448 3432 
Q 2725 3281 2906 2969 
z
M 947 1747 
Q 947 1113 1208 752 
Q 1469 391 1925 391 
Q 2381 391 2643 752 
Q 2906 1113 2906 1747 
Q 2906 2381 2643 2742 
Q 2381 3103 1925 3103 
Q 1469 3103 1208 2742 
Q 947 2381 947 1747 
z
" transform="scale(0.015625)"/>
        <path id="DejaVuSans-30" d="M 2034 4250 
Q 1547 4250 1301 3770 
Q 1056 3291 1056 2328 
Q 1056 1369 1301 889 
Q 1547 409 2034 409 
Q 2525 409 2770 889 
Q 3016 1369 3016 2328 
Q 3016 3291 2770 3770 
Q 2525 4250 2034 4250 
z
M 2034 4750 
Q 2819 4750 3233 4129 
Q 3647 3509 3647 2328 
Q 3647 1150 3233 529 
Q 2819 -91 2034 -91 
Q 1250 -91 836 529 
Q 422 1150 422 2328 
Q 422 3509 836 4129 
Q 1250 4750 2034 4750 
z
" transform="scale(0.015625)"/>
       </defs>
       <use xlink:href="#DejaVuSans-64"/>
       <use xlink:href="#DejaVuSans-30" transform="translate(63.476562 0)"/>
      </g>
     </g>
    </g>
    <g id="xtick_2">
     <g id="line2d_42"/>
     <g id="text_2">
      <!-- d1 -->
      <g transform="translate(317.127344 329.120312) scale(0.1 -0.1)">
       <defs>
        <path id="DejaVuSans-31" d="M 794 531 
L 1825 531 
L 1825 4091 
L 703 3866 
L 703 4441 
L 1819 4666 
L 2450 4666 
L 2450 531 
L 3481 531 
L 3481 0 
L 794 0 
L 794 531 
z
" transform="scale(0.015625)"/>
       </defs>
       <use xlink:href="#DejaVuSans-64"/>
       <use xlink:href="#DejaVuSans-31" transform="translate(63.476562 0)"/>
      </g>
     </g>
    </g>
    <g id="xtick_3">
     <g id="line2d_43"/>
     <g id="text_3">
      <!-- d2 -->
      <g transform="translate(507.173831 329.120312) scale(0.1 -0.1)">
       <defs>
        <path id="DejaVuSans-32" d="M 1228 531 
L 3431 531 
L 3431 0 
L 469 0 
L 469 531 
Q 828 903 1448 1529 
Q 2069 2156 2228 2338 
Q 2531 2678 2651 2914 
Q 2772 3150 2772 3378 
Q 2772 3750 2511 3984 
Q 2250 4219 1831 4219 
Q 1534 4219 1204 4116 
Q 875 4013 500 3803 
L 500 4441 
Q 881 4594 1212 4672 
Q 1544 4750 1819 4750 
Q 2544 4750 2975 4387 
Q 3406 4025 3406 3419 
Q 3406 3131 3298 2873 
Q 3191 2616 2906 2266 
Q 2828 2175 2409 1742 
Q 1991 1309 1228 531 
z
" transform="scale(0.015625)"/>
       </defs>
       <use xlink:href="#DejaVuSans-64"/>
       <use xlink:href="#DejaVuSans-32" transform="translate(63.476562 0)"/>
      </g>
     </g>
    </g>
   </g>
   <g id="matplotlib.axis_2">
    <g id="ytick_1">
     <g id="line2d_44">
      <defs>
       <path id="m58c7a9d6ba" d="M 0 0 
L -3.5 0 
" style="stroke: #000000; stroke-width: 0.8"/>
      </defs>
      <g>
       <use xlink:href="#m58c7a9d6ba" x="46.965625" y="318.021875" style="stroke: #000000; stroke-width: 0.8"/>
      </g>
     </g>
     <g id="text_4">
      <!-- 0 -->
      <g transform="translate(33.603125 321.821094) scale(0.1 -0.1)">
       <use xlink:href="#DejaVuSans-30"/>
      </g>
     </g>
    </g>
    <g id="ytick_2">
     <g id="line2d_45">
      <g>
       <use xlink:href="#m58c7a9d6ba" x="46.965625" y="263.009154" style="stroke: #000000; stroke-width: 0.8"/>
      </g>
     </g>
     <g id="text_5">
      <!-- 20 -->
      <g transform="translate(27.240625 266.808373) scale(0.1 -0.1)">
       <use xlink:href="#DejaVuSans-32"/>
       <use xlink:href="#DejaVuSans-30" transform="translate(63.623047 0)"/>
      </g>
     </g>
    </g>
    <g id="ytick_3">
     <g id="line2d_46">
      <g>
       <use xlink:href="#m58c7a9d6ba" x="46.965625" y="207.996433" style="stroke: #000000; stroke-width: 0.8"/>
      </g>
     </g>
     <g id="text_6">
      <!-- 40 -->
      <g transform="translate(27.240625 211.795651) scale(0.1 -0.1)">
       <defs>
        <path id="DejaVuSans-34" d="M 2419 4116 
L 825 1625 
L 2419 1625 
L 2419 4116 
z
M 2253 4666 
L 3047 4666 
L 3047 1625 
L 3713 1625 
L 3713 1100 
L 3047 1100 
L 3047 0 
L 2419 0 
L 2419 1100 
L 313 1100 
L 313 1709 
L 2253 4666 
z
" transform="scale(0.015625)"/>
       </defs>
       <use xlink:href="#DejaVuSans-34"/>
       <use xlink:href="#DejaVuSans-30" transform="translate(63.623047 0)"/>
      </g>
     </g>
    </g>
    <g id="ytick_4">
     <g id="line2d_47">
      <g>
       <use xlink:href="#m58c7a9d6ba" x="46.965625" y="152.983711" style="stroke: #000000; stroke-width: 0.8"/>
      </g>
     </g>
     <g id="text_7">
      <!-- 60 -->
      <g transform="translate(27.240625 156.78293) scale(0.1 -0.1)">
       <defs>
        <path id="DejaVuSans-36" d="M 2113 2584 
Q 1688 2584 1439 2293 
Q 1191 2003 1191 1497 
Q 1191 994 1439 701 
Q 1688 409 2113 409 
Q 2538 409 2786 701 
Q 3034 994 3034 1497 
Q 3034 2003 2786 2293 
Q 2538 2584 2113 2584 
z
M 3366 4563 
L 3366 3988 
Q 3128 4100 2886 4159 
Q 2644 4219 2406 4219 
Q 1781 4219 1451 3797 
Q 1122 3375 1075 2522 
Q 1259 2794 1537 2939 
Q 1816 3084 2150 3084 
Q 2853 3084 3261 2657 
Q 3669 2231 3669 1497 
Q 3669 778 3244 343 
Q 2819 -91 2113 -91 
Q 1303 -91 875 529 
Q 447 1150 447 2328 
Q 447 3434 972 4092 
Q 1497 4750 2381 4750 
Q 2619 4750 2861 4703 
Q 3103 4656 3366 4563 
z
" transform="scale(0.015625)"/>
       </defs>
       <use xlink:href="#DejaVuSans-36"/>
       <use xlink:href="#DejaVuSans-30" transform="translate(63.623047 0)"/>
      </g>
     </g>
    </g>
    <g id="ytick_5">
     <g id="line2d_48">
      <g>
       <use xlink:href="#m58c7a9d6ba" x="46.965625" y="97.97099" style="stroke: #000000; stroke-width: 0.8"/>
      </g>
     </g>
     <g id="text_8">
      <!-- 80 -->
      <g transform="translate(27.240625 101.770209) scale(0.1 -0.1)">
       <defs>
        <path id="DejaVuSans-38" d="M 2034 2216 
Q 1584 2216 1326 1975 
Q 1069 1734 1069 1313 
Q 1069 891 1326 650 
Q 1584 409 2034 409 
Q 2484 409 2743 651 
Q 3003 894 3003 1313 
Q 3003 1734 2745 1975 
Q 2488 2216 2034 2216 
z
M 1403 2484 
Q 997 2584 770 2862 
Q 544 3141 544 3541 
Q 544 4100 942 4425 
Q 1341 4750 2034 4750 
Q 2731 4750 3128 4425 
Q 3525 4100 3525 3541 
Q 3525 3141 3298 2862 
Q 3072 2584 2669 2484 
Q 3125 2378 3379 2068 
Q 3634 1759 3634 1313 
Q 3634 634 3220 271 
Q 2806 -91 2034 -91 
Q 1263 -91 848 271 
Q 434 634 434 1313 
Q 434 1759 690 2068 
Q 947 2378 1403 2484 
z
M 1172 3481 
Q 1172 3119 1398 2916 
Q 1625 2713 2034 2713 
Q 2441 2713 2670 2916 
Q 2900 3119 2900 3481 
Q 2900 3844 2670 4047 
Q 2441 4250 2034 4250 
Q 1625 4250 1398 4047 
Q 1172 3844 1172 3481 
z
" transform="scale(0.015625)"/>
       </defs>
       <use xlink:href="#DejaVuSans-38"/>
       <use xlink:href="#DejaVuSans-30" transform="translate(63.623047 0)"/>
      </g>
     </g>
    </g>
    <g id="ytick_6">
     <g id="line2d_49">
      <g>
       <use xlink:href="#m58c7a9d6ba" x="46.965625" y="42.958269" style="stroke: #000000; stroke-width: 0.8"/>
      </g>
     </g>
     <g id="text_9">
      <!-- 100 -->
      <g transform="translate(20.878125 46.757488) scale(0.1 -0.1)">
       <use xlink:href="#DejaVuSans-31"/>
       <use xlink:href="#DejaVuSans-30" transform="translate(63.623047 0)"/>
       <use xlink:href="#DejaVuSans-30" transform="translate(127.246094 0)"/>
      </g>
     </g>
    </g>
    <g id="text_10">
     <!-- time ago (generations) -->
     <g transform="translate(14.798438 220.082031) rotate(-90) scale(0.1 -0.1)">
      <defs>
       <path id="DejaVuSans-74" d="M 1172 4494 
L 1172 3500 
L 2356 3500 
L 2356 3053 
L 1172 3053 
L 1172 1153 
Q 1172 725 1289 603 
Q 1406 481 1766 481 
L 2356 481 
L 2356 0 
L 1766 0 
Q 1100 0 847 248 
Q 594 497 594 1153 
L 594 3053 
L 172 3053 
L 172 3500 
L 594 3500 
L 594 4494 
L 1172 4494 
z
" transform="scale(0.015625)"/>
       <path id="DejaVuSans-69" d="M 603 3500 
L 1178 3500 
L 1178 0 
L 603 0 
L 603 3500 
z
M 603 4863 
L 1178 4863 
L 1178 4134 
L 603 4134 
L 603 4863 
z
" transform="scale(0.015625)"/>
       <path id="DejaVuSans-6d" d="M 3328 2828 
Q 3544 3216 3844 3400 
Q 4144 3584 4550 3584 
Q 5097 3584 5394 3201 
Q 5691 2819 5691 2113 
L 5691 0 
L 5113 0 
L 5113 2094 
Q 5113 2597 4934 2840 
Q 4756 3084 4391 3084 
Q 3944 3084 3684 2787 
Q 3425 2491 3425 1978 
L 3425 0 
L 2847 0 
L 2847 2094 
Q 2847 2600 2669 2842 
Q 2491 3084 2119 3084 
Q 1678 3084 1418 2786 
Q 1159 2488 1159 1978 
L 1159 0 
L 581 0 
L 581 3500 
L 1159 3500 
L 1159 2956 
Q 1356 3278 1631 3431 
Q 1906 3584 2284 3584 
Q 2666 3584 2933 3390 
Q 3200 3197 3328 2828 
z
" transform="scale(0.015625)"/>
       <path id="DejaVuSans-65" d="M 3597 1894 
L 3597 1613 
L 953 1613 
Q 991 1019 1311 708 
Q 1631 397 2203 397 
Q 2534 397 2845 478 
Q 3156 559 3463 722 
L 3463 178 
Q 3153 47 2828 -22 
Q 2503 -91 2169 -91 
Q 1331 -91 842 396 
Q 353 884 353 1716 
Q 353 2575 817 3079 
Q 1281 3584 2069 3584 
Q 2775 3584 3186 3129 
Q 3597 2675 3597 1894 
z
M 3022 2063 
Q 3016 2534 2758 2815 
Q 2500 3097 2075 3097 
Q 1594 3097 1305 2825 
Q 1016 2553 972 2059 
L 3022 2063 
z
" transform="scale(0.015625)"/>
       <path id="DejaVuSans-20" transform="scale(0.015625)"/>
       <path id="DejaVuSans-61" d="M 2194 1759 
Q 1497 1759 1228 1600 
Q 959 1441 959 1056 
Q 959 750 1161 570 
Q 1363 391 1709 391 
Q 2188 391 2477 730 
Q 2766 1069 2766 1631 
L 2766 1759 
L 2194 1759 
z
M 3341 1997 
L 3341 0 
L 2766 0 
L 2766 531 
Q 2569 213 2275 61 
Q 1981 -91 1556 -91 
Q 1019 -91 701 211 
Q 384 513 384 1019 
Q 384 1609 779 1909 
Q 1175 2209 1959 2209 
L 2766 2209 
L 2766 2266 
Q 2766 2663 2505 2880 
Q 2244 3097 1772 3097 
Q 1472 3097 1187 3025 
Q 903 2953 641 2809 
L 641 3341 
Q 956 3463 1253 3523 
Q 1550 3584 1831 3584 
Q 2591 3584 2966 3190 
Q 3341 2797 3341 1997 
z
" transform="scale(0.015625)"/>
       <path id="DejaVuSans-67" d="M 2906 1791 
Q 2906 2416 2648 2759 
Q 2391 3103 1925 3103 
Q 1463 3103 1205 2759 
Q 947 2416 947 1791 
Q 947 1169 1205 825 
Q 1463 481 1925 481 
Q 2391 481 2648 825 
Q 2906 1169 2906 1791 
z
M 3481 434 
Q 3481 -459 3084 -895 
Q 2688 -1331 1869 -1331 
Q 1566 -1331 1297 -1286 
Q 1028 -1241 775 -1147 
L 775 -588 
Q 1028 -725 1275 -790 
Q 1522 -856 1778 -856 
Q 2344 -856 2625 -561 
Q 2906 -266 2906 331 
L 2906 616 
Q 2728 306 2450 153 
Q 2172 0 1784 0 
Q 1141 0 747 490 
Q 353 981 353 1791 
Q 353 2603 747 3093 
Q 1141 3584 1784 3584 
Q 2172 3584 2450 3431 
Q 2728 3278 2906 2969 
L 2906 3500 
L 3481 3500 
L 3481 434 
z
" transform="scale(0.015625)"/>
       <path id="DejaVuSans-6f" d="M 1959 3097 
Q 1497 3097 1228 2736 
Q 959 2375 959 1747 
Q 959 1119 1226 758 
Q 1494 397 1959 397 
Q 2419 397 2687 759 
Q 2956 1122 2956 1747 
Q 2956 2369 2687 2733 
Q 2419 3097 1959 3097 
z
M 1959 3584 
Q 2709 3584 3137 3096 
Q 3566 2609 3566 1747 
Q 3566 888 3137 398 
Q 2709 -91 1959 -91 
Q 1206 -91 779 398 
Q 353 888 353 1747 
Q 353 2609 779 3096 
Q 1206 3584 1959 3584 
z
" transform="scale(0.015625)"/>
       <path id="DejaVuSans-28" d="M 1984 4856 
Q 1566 4138 1362 3434 
Q 1159 2731 1159 2009 
Q 1159 1288 1364 580 
Q 1569 -128 1984 -844 
L 1484 -844 
Q 1016 -109 783 600 
Q 550 1309 550 2009 
Q 550 2706 781 3412 
Q 1013 4119 1484 4856 
L 1984 4856 
z
" transform="scale(0.015625)"/>
       <path id="DejaVuSans-6e" d="M 3513 2113 
L 3513 0 
L 2938 0 
L 2938 2094 
Q 2938 2591 2744 2837 
Q 2550 3084 2163 3084 
Q 1697 3084 1428 2787 
Q 1159 2491 1159 1978 
L 1159 0 
L 581 0 
L 581 3500 
L 1159 3500 
L 1159 2956 
Q 1366 3272 1645 3428 
Q 1925 3584 2291 3584 
Q 2894 3584 3203 3211 
Q 3513 2838 3513 2113 
z
" transform="scale(0.015625)"/>
       <path id="DejaVuSans-72" d="M 2631 2963 
Q 2534 3019 2420 3045 
Q 2306 3072 2169 3072 
Q 1681 3072 1420 2755 
Q 1159 2438 1159 1844 
L 1159 0 
L 581 0 
L 581 3500 
L 1159 3500 
L 1159 2956 
Q 1341 3275 1631 3429 
Q 1922 3584 2338 3584 
Q 2397 3584 2469 3576 
Q 2541 3569 2628 3553 
L 2631 2963 
z
" transform="scale(0.015625)"/>
       <path id="DejaVuSans-73" d="M 2834 3397 
L 2834 2853 
Q 2591 2978 2328 3040 
Q 2066 3103 1784 3103 
Q 1356 3103 1142 2972 
Q 928 2841 928 2578 
Q 928 2378 1081 2264 
Q 1234 2150 1697 2047 
L 1894 2003 
Q 2506 1872 2764 1633 
Q 3022 1394 3022 966 
Q 3022 478 2636 193 
Q 2250 -91 1575 -91 
Q 1294 -91 989 -36 
Q 684 19 347 128 
L 347 722 
Q 666 556 975 473 
Q 1284 391 1588 391 
Q 1994 391 2212 530 
Q 2431 669 2431 922 
Q 2431 1156 2273 1281 
Q 2116 1406 1581 1522 
L 1381 1569 
Q 847 1681 609 1914 
Q 372 2147 372 2553 
Q 372 3047 722 3315 
Q 1072 3584 1716 3584 
Q 2034 3584 2315 3537 
Q 2597 3491 2834 3397 
z
" transform="scale(0.015625)"/>
       <path id="DejaVuSans-29" d="M 513 4856 
L 1013 4856 
Q 1481 4119 1714 3412 
Q 1947 2706 1947 2009 
Q 1947 1309 1714 600 
Q 1481 -109 1013 -844 
L 513 -844 
Q 928 -128 1133 580 
Q 1338 1288 1338 2009 
Q 1338 2731 1133 3434 
Q 928 4138 513 4856 
z
" transform="scale(0.015625)"/>
      </defs>
      <use xlink:href="#DejaVuSans-74"/>
      <use xlink:href="#DejaVuSans-69" transform="translate(39.208984 0)"/>
      <use xlink:href="#DejaVuSans-6d" transform="translate(66.992188 0)"/>
      <use xlink:href="#DejaVuSans-65" transform="translate(164.404297 0)"/>
      <use xlink:href="#DejaVuSans-20" transform="translate(225.927734 0)"/>
      <use xlink:href="#DejaVuSans-61" transform="translate(257.714844 0)"/>
      <use xlink:href="#DejaVuSans-67" transform="translate(318.994141 0)"/>
      <use xlink:href="#DejaVuSans-6f" transform="translate(382.470703 0)"/>
      <use xlink:href="#DejaVuSans-20" transform="translate(443.652344 0)"/>
      <use xlink:href="#DejaVuSans-28" transform="translate(475.439453 0)"/>
      <use xlink:href="#DejaVuSans-67" transform="translate(514.453125 0)"/>
      <use xlink:href="#DejaVuSans-65" transform="translate(577.929688 0)"/>
      <use xlink:href="#DejaVuSans-6e" transform="translate(639.453125 0)"/>
      <use xlink:href="#DejaVuSans-65" transform="translate(702.832031 0)"/>
      <use xlink:href="#DejaVuSans-72" transform="translate(764.355469 0)"/>
      <use xlink:href="#DejaVuSans-61" transform="translate(805.46875 0)"/>
      <use xlink:href="#DejaVuSans-74" transform="translate(866.748047 0)"/>
      <use xlink:href="#DejaVuSans-69" transform="translate(905.957031 0)"/>
      <use xlink:href="#DejaVuSans-6f" transform="translate(933.740234 0)"/>
      <use xlink:href="#DejaVuSans-6e" transform="translate(994.921875 0)"/>
      <use xlink:href="#DejaVuSans-73" transform="translate(1058.300781 0)"/>
      <use xlink:href="#DejaVuSans-29" transform="translate(1110.400391 0)"/>
     </g>
    </g>
   </g>
   <g id="line2d_50">
    <path d="M 257.619695 229.231521 
L 255.619695 228.231521 
L 255.619695 230.231521 
z
" clip-path="url(#pa83a4d27e9)" style="fill: #1f77b4; fill-opacity: 0.5; stroke: #1f77b4; stroke-opacity: 0.5; stroke-linejoin: miter"/>
   </g>
   <g id="line2d_51">
    <path d="M 257.619695 194.469646 
L 255.619695 193.469646 
L 255.619695 195.469646 
z
" clip-path="url(#pa83a4d27e9)" style="fill: #1f77b4; fill-opacity: 0.5; stroke: #1f77b4; stroke-opacity: 0.5; stroke-linejoin: miter"/>
   </g>
   <g id="line2d_52">
    <path d="M 257.619695 292.843576 
L 255.619695 291.843576 
L 255.619695 293.843576 
z
" clip-path="url(#pa83a4d27e9)" style="fill: #1f77b4; fill-opacity: 0.5; stroke: #1f77b4; stroke-opacity: 0.5; stroke-linejoin: miter"/>
   </g>
   <g id="line2d_53">
    <path d="M 257.619695 303.934534 
L 255.619695 302.934534 
L 255.619695 304.934534 
z
" clip-path="url(#pa83a4d27e9)" style="fill: #1f77b4; fill-opacity: 0.5; stroke: #1f77b4; stroke-opacity: 0.5; stroke-linejoin: miter"/>
   </g>
   <g id="line2d_54">
    <path d="M 257.619695 288.063734 
L 255.619695 287.063734 
L 255.619695 289.063734 
z
" clip-path="url(#pa83a4d27e9)" style="fill: #1f77b4; fill-opacity: 0.5; stroke: #1f77b4; stroke-opacity: 0.5; stroke-linejoin: miter"/>
   </g>
   <g id="line2d_55">
    <path d="M 257.619695 109.766184 
L 255.619695 108.766184 
L 255.619695 110.766184 
z
" clip-path="url(#pa83a4d27e9)" style="fill: #1f77b4; fill-opacity: 0.5; stroke: #1f77b4; stroke-opacity: 0.5; stroke-linejoin: miter"/>
   </g>
   <g id="line2d_56">
    <path d="M 257.619695 16.93523 
L 255.619695 15.93523 
L 255.619695 17.93523 
z
" clip-path="url(#pa83a4d27e9)" style="fill: #1f77b4; fill-opacity: 0.5; stroke: #1f77b4; stroke-opacity: 0.5; stroke-linejoin: miter"/>
   </g>
   <g id="line2d_57">
    <path d="M 257.619695 284.917573 
L 255.619695 283.917573 
L 255.619695 285.917573 
z
" clip-path="url(#pa83a4d27e9)" style="fill: #1f77b4; fill-opacity: 0.5; stroke: #1f77b4; stroke-opacity: 0.5; stroke-linejoin: miter"/>
   </g>
   <g id="line2d_58">
    <path d="M 257.619695 28.615788 
L 255.619695 27.615788 
L 255.619695 29.615788 
z
" clip-path="url(#pa83a4d27e9)" style="fill: #1f77b4; fill-opacity: 0.5; stroke: #1f77b4; stroke-opacity: 0.5; stroke-linejoin: miter"/>
   </g>
   <g id="line2d_59">
    <path d="M 257.619695 17.320045 
L 255.619695 16.320045 
L 255.619695 18.320045 
z
" clip-path="url(#pa83a4d27e9)" style="fill: #1f77b4; fill-opacity: 0.5; stroke: #1f77b4; stroke-opacity: 0.5; stroke-linejoin: miter"/>
   </g>
   <g id="line2d_60">
    <path d="M 199.299443 272.340829 
L 201.299443 273.340829 
L 201.299443 271.340829 
z
" clip-path="url(#pa83a4d27e9)" style="fill: #ff7f0e; fill-opacity: 0.5; stroke: #ff7f0e; stroke-opacity: 0.5; stroke-linejoin: miter"/>
   </g>
   <g id="line2d_61">
    <path d="M 199.299443 135.64919 
L 201.299443 136.64919 
L 201.299443 134.64919 
z
" clip-path="url(#pa83a4d27e9)" style="fill: #ff7f0e; fill-opacity: 0.5; stroke: #ff7f0e; stroke-opacity: 0.5; stroke-linejoin: miter"/>
   </g>
   <g id="line2d_62">
    <path d="M 199.299443 70.548897 
L 201.299443 71.548897 
L 201.299443 69.548897 
z
" clip-path="url(#pa83a4d27e9)" style="fill: #ff7f0e; fill-opacity: 0.5; stroke: #ff7f0e; stroke-opacity: 0.5; stroke-linejoin: miter"/>
   </g>
   <g id="line2d_63">
    <path d="M 199.299443 90.576931 
L 201.299443 91.576931 
L 201.299443 89.576931 
z
" clip-path="url(#pa83a4d27e9)" style="fill: #ff7f0e; fill-opacity: 0.5; stroke: #ff7f0e; stroke-opacity: 0.5; stroke-linejoin: miter"/>
   </g>
   <g id="line2d_64">
    <path d="M 199.299443 59.36368 
L 201.299443 60.36368 
L 201.299443 58.36368 
z
" clip-path="url(#pa83a4d27e9)" style="fill: #ff7f0e; fill-opacity: 0.5; stroke: #ff7f0e; stroke-opacity: 0.5; stroke-linejoin: miter"/>
   </g>
   <g id="line2d_65">
    <path d="M 199.299443 265.760001 
L 201.299443 266.760001 
L 201.299443 264.760001 
z
" clip-path="url(#pa83a4d27e9)" style="fill: #ff7f0e; fill-opacity: 0.5; stroke: #ff7f0e; stroke-opacity: 0.5; stroke-linejoin: miter"/>
   </g>
   <g id="line2d_66">
    <path d="M 199.299443 219.940682 
L 201.299443 220.940682 
L 201.299443 218.940682 
z
" clip-path="url(#pa83a4d27e9)" style="fill: #ff7f0e; fill-opacity: 0.5; stroke: #ff7f0e; stroke-opacity: 0.5; stroke-linejoin: miter"/>
   </g>
   <g id="line2d_67">
    <path d="M 199.299443 152.920939 
L 201.299443 153.920939 
L 201.299443 151.920939 
z
" clip-path="url(#pa83a4d27e9)" style="fill: #ff7f0e; fill-opacity: 0.5; stroke: #ff7f0e; stroke-opacity: 0.5; stroke-linejoin: miter"/>
   </g>
   <g id="line2d_68">
    <path d="M 199.299443 123.270299 
L 201.299443 124.270299 
L 201.299443 122.270299 
z
" clip-path="url(#pa83a4d27e9)" style="fill: #ff7f0e; fill-opacity: 0.5; stroke: #ff7f0e; stroke-opacity: 0.5; stroke-linejoin: miter"/>
   </g>
   <g id="line2d_69">
    <path d="M 199.299443 72.376165 
L 201.299443 73.376165 
L 201.299443 71.376165 
z
" clip-path="url(#pa83a4d27e9)" style="fill: #ff7f0e; fill-opacity: 0.5; stroke: #ff7f0e; stroke-opacity: 0.5; stroke-linejoin: miter"/>
   </g>
   <g id="line2d_70">
    <path d="M 447.666182 9.55569 
L 445.666182 8.55569 
L 445.666182 10.55569 
z
" clip-path="url(#pa83a4d27e9)" style="fill: #ff7f0e; fill-opacity: 0.5; stroke: #ff7f0e; stroke-opacity: 0.5; stroke-linejoin: miter"/>
   </g>
   <g id="line2d_71">
    <path d="M 447.666182 309.498828 
L 445.666182 308.498828 
L 445.666182 310.498828 
z
" clip-path="url(#pa83a4d27e9)" style="fill: #ff7f0e; fill-opacity: 0.5; stroke: #ff7f0e; stroke-opacity: 0.5; stroke-linejoin: miter"/>
   </g>
   <g id="line2d_72">
    <path d="M 447.666182 250.035596 
L 445.666182 249.035596 
L 445.666182 251.035596 
z
" clip-path="url(#pa83a4d27e9)" style="fill: #ff7f0e; fill-opacity: 0.5; stroke: #ff7f0e; stroke-opacity: 0.5; stroke-linejoin: miter"/>
   </g>
   <g id="line2d_73">
    <path d="M 447.666182 253.68022 
L 445.666182 252.68022 
L 445.666182 254.68022 
z
" clip-path="url(#pa83a4d27e9)" style="fill: #ff7f0e; fill-opacity: 0.5; stroke: #ff7f0e; stroke-opacity: 0.5; stroke-linejoin: miter"/>
   </g>
   <g id="line2d_74">
    <path d="M 447.666182 40.9349 
L 445.666182 39.9349 
L 445.666182 41.9349 
z
" clip-path="url(#pa83a4d27e9)" style="fill: #ff7f0e; fill-opacity: 0.5; stroke: #ff7f0e; stroke-opacity: 0.5; stroke-linejoin: miter"/>
   </g>
   <g id="line2d_75">
    <path d="M 447.666182 281.953598 
L 445.666182 280.953598 
L 445.666182 282.953598 
z
" clip-path="url(#pa83a4d27e9)" style="fill: #ff7f0e; fill-opacity: 0.5; stroke: #ff7f0e; stroke-opacity: 0.5; stroke-linejoin: miter"/>
   </g>
   <g id="line2d_76">
    <path d="M 447.666182 19.825982 
L 445.666182 18.825982 
L 445.666182 20.825982 
z
" clip-path="url(#pa83a4d27e9)" style="fill: #ff7f0e; fill-opacity: 0.5; stroke: #ff7f0e; stroke-opacity: 0.5; stroke-linejoin: miter"/>
   </g>
   <g id="line2d_77">
    <path d="M 447.666182 258.562898 
L 445.666182 257.562898 
L 445.666182 259.562898 
z
" clip-path="url(#pa83a4d27e9)" style="fill: #ff7f0e; fill-opacity: 0.5; stroke: #ff7f0e; stroke-opacity: 0.5; stroke-linejoin: miter"/>
   </g>
   <g id="line2d_78">
    <path d="M 447.666182 117.767943 
L 445.666182 116.767943 
L 445.666182 118.767943 
z
" clip-path="url(#pa83a4d27e9)" style="fill: #ff7f0e; fill-opacity: 0.5; stroke: #ff7f0e; stroke-opacity: 0.5; stroke-linejoin: miter"/>
   </g>
   <g id="line2d_79">
    <path d="M 447.666182 309.642977 
L 445.666182 308.642977 
L 445.666182 310.642977 
z
" clip-path="url(#pa83a4d27e9)" style="fill: #ff7f0e; fill-opacity: 0.5; stroke: #ff7f0e; stroke-opacity: 0.5; stroke-linejoin: miter"/>
   </g>
   <g id="line2d_80">
    <path d="M 389.34593 173.6694 
L 391.34593 174.6694 
L 391.34593 172.6694 
z
" clip-path="url(#pa83a4d27e9)" style="fill: #2ca02c; fill-opacity: 0.5; stroke: #2ca02c; stroke-opacity: 0.5; stroke-linejoin: miter"/>
   </g>
   <g id="line2d_81">
    <path d="M 389.34593 76.828431 
L 391.34593 77.828431 
L 391.34593 75.828431 
z
" clip-path="url(#pa83a4d27e9)" style="fill: #2ca02c; fill-opacity: 0.5; stroke: #2ca02c; stroke-opacity: 0.5; stroke-linejoin: miter"/>
   </g>
   <g id="line2d_82">
    <path d="M 389.34593 157.726722 
L 391.34593 158.726722 
L 391.34593 156.726722 
z
" clip-path="url(#pa83a4d27e9)" style="fill: #2ca02c; fill-opacity: 0.5; stroke: #2ca02c; stroke-opacity: 0.5; stroke-linejoin: miter"/>
   </g>
   <g id="line2d_83">
    <path d="M 389.34593 194.008879 
L 391.34593 195.008879 
L 391.34593 193.008879 
z
" clip-path="url(#pa83a4d27e9)" style="fill: #2ca02c; fill-opacity: 0.5; stroke: #2ca02c; stroke-opacity: 0.5; stroke-linejoin: miter"/>
   </g>
   <g id="line2d_84">
    <path d="M 389.34593 302.088826 
L 391.34593 303.088826 
L 391.34593 301.088826 
z
" clip-path="url(#pa83a4d27e9)" style="fill: #2ca02c; fill-opacity: 0.5; stroke: #2ca02c; stroke-opacity: 0.5; stroke-linejoin: miter"/>
   </g>
   <g id="line2d_85">
    <path d="M 389.34593 266.952816 
L 391.34593 267.952816 
L 391.34593 265.952816 
z
" clip-path="url(#pa83a4d27e9)" style="fill: #2ca02c; fill-opacity: 0.5; stroke: #2ca02c; stroke-opacity: 0.5; stroke-linejoin: miter"/>
   </g>
   <g id="line2d_86">
    <path d="M 389.34593 58.197065 
L 391.34593 59.197065 
L 391.34593 57.197065 
z
" clip-path="url(#pa83a4d27e9)" style="fill: #2ca02c; fill-opacity: 0.5; stroke: #2ca02c; stroke-opacity: 0.5; stroke-linejoin: miter"/>
   </g>
   <g id="line2d_87">
    <path d="M 389.34593 63.522257 
L 391.34593 64.522257 
L 391.34593 62.522257 
z
" clip-path="url(#pa83a4d27e9)" style="fill: #2ca02c; fill-opacity: 0.5; stroke: #2ca02c; stroke-opacity: 0.5; stroke-linejoin: miter"/>
   </g>
   <g id="line2d_88">
    <path d="M 389.34593 274.266438 
L 391.34593 275.266438 
L 391.34593 273.266438 
z
" clip-path="url(#pa83a4d27e9)" style="fill: #2ca02c; fill-opacity: 0.5; stroke: #2ca02c; stroke-opacity: 0.5; stroke-linejoin: miter"/>
   </g>
   <g id="line2d_89">
    <path d="M 389.34593 246.525366 
L 391.34593 247.525366 
L 391.34593 245.525366 
z
" clip-path="url(#pa83a4d27e9)" style="fill: #2ca02c; fill-opacity: 0.5; stroke: #2ca02c; stroke-opacity: 0.5; stroke-linejoin: miter"/>
   </g>
   <g id="patch_6">
    <path d="M 46.965625 318.021875 
L 46.965625 7.2 
" style="fill: none; stroke: #000000; stroke-width: 0.8; stroke-linejoin: miter; stroke-linecap: square"/>
   </g>
  </g>
 </g>
 <defs>
  <clipPath id="pa83a4d27e9">
   <rect x="46.965625" y="7.2" width="553.034375" height="310.821875"/>
  </clipPath>
 </defs>
</svg>