<?xml version="1.0" encoding="utf-8" standalone="no"?>
<!DOCTYPE svg PUBLIC "-//W3C//DTD SVG 1.1//EN"
  "http://www.w3.org/Graphics/SVG/1.1/DTD/svg11.dtd">
<svg xmlns:xlink="http://www.w3.org/1999/xlink" width="607.2pt" height="338.4pt" viewBox="0 0 607.2 338.4" xmlns="http://www.w3.org/2000/svg" version="1.1">
 <metadata>
  <rdf:RDF xmlns:dc="http://purl.org/dc/elements/1.1/" xmlns:cc="http://creativecommons.org/ns#" xmlns:rdf="http://www.w3.org/1999/02/22-rdf-syntax-ns#">
   <cc:Work>
    <dc:type rdf:resource="http://purl.org/dc/dcmitype/StillImage"/>
    <dc:date>2024-01-29T08:40:41.544123</dc:date>
    <dc:format>image/svg+xml</dc:format>
    <dc:creator>
     <cc:Agent>
      <dc:title>Matplotlib v3.7.2, https://matplotlib.org/</dc:title>
     </cc:Agent>
    </dc:creator>
   </cc:Work>
  </rdf:RDF>
 </metadata>
 <defs>
  <style type="text/css">*{stroke-linejoin: round; stroke-linecap: butt}</style>
 </defs>
 <g id="figure_1">
  <g id="patch_1">
   <path d="M 0 338.4 
L 607.2 338.4 
L 607.2 0 
L 0 0 
z
" style="fill: #ffffff"/>
  </g>
  <g id="axes_1">
   <g id="patch_2">
    <path d="M 53.328125 317.920312 
L 600 317.920312 
L 600 22.318125 
L 53.328125 22.318125 
z
" style="fill: #ffffff"/>
   </g>
   <g id="patch_3">
    <path d="M 344.406554 22.318125 
L 344.406554 81.438562 
L 344.406554 81.438562 
L 237.951603 199.679437 
M 368.06321 22.318125 
L 368.06321 81.438562 
L 368.06321 81.438562 
L 474.518161 199.679437 
L 474.518161 199.679437 
" clip-path="url(#p99dc24e16e)" style="fill: none; stroke: #ffffff; stroke-width: 3; stroke-linejoin: miter"/>
    <path d="M 344.406554 22.318125 
L 344.406554 81.438562 
L 344.406554 81.438562 
L 237.951603 199.679437 
M 368.06321 22.318125 
L 368.06321 81.438562 
L 368.06321 81.438562 
L 474.518161 199.679437 
L 474.518161 199.679437 
" clip-path="url(#p99dc24e16e)" style="fill: none; stroke: #1f77b4; stroke-linejoin: miter"/>
    <g id="PolyCollection_1">
     <path d="M 368.06321 22.318125 
L 344.406554 22.318125 
L 344.406554 81.438562 
L 344.406554 81.438562 
L 343.331252 82.632915 
L 342.255949 83.827267 
L 341.180647 85.021619 
L 340.105344 86.215972 
L 339.030042 87.410324 
L 337.954739 88.604676 
L 336.879437 89.799028 
L 335.804134 90.993381 
L 334.728832 92.187733 
L 333.653529 93.382085 
L 332.578226 94.576437 
L 331.502924 95.77079 
L 330.427621 96.965142 
L 329.352319 98.159494 
L 328.277016 99.353847 
L 327.201714 100.548199 
L 326.126411 101.742551 
L 325.051109 102.936903 
L 323.975806 104.131256 
L 322.900504 105.325608 
L 321.825201 106.51996 
L 320.749899 107.714312 
L 319.674596 108.908665 
L 318.599293 110.103017 
L 317.523991 111.297369 
L 316.448688 112.491722 
L 315.373386 113.686074 
L 314.298083 114.880426 
L 313.222781 116.074778 
L 312.147478 117.269131 
L 311.072176 118.463483 
L 309.996873 119.657835 
L 308.921571 120.852187 
L 307.846268 122.04654 
L 306.770966 123.240892 
L 305.695663 124.435244 
L 304.620361 125.629597 
L 303.545058 126.823949 
L 302.469755 128.018301 
L 301.394453 129.212653 
L 300.31915 130.407006 
L 299.243848 131.601358 
L 298.168545 132.79571 
L 297.093243 133.990062 
L 296.01794 135.184415 
L 294.942638 136.378767 
L 293.867335 137.573119 
L 292.792033 138.767472 
L 291.71673 139.961824 
L 290.641428 141.156176 
L 289.566125 142.350528 
L 288.490822 143.544881 
L 287.41552 144.739233 
L 286.340217 145.933585 
L 285.264915 147.127937 
L 284.189612 148.32229 
L 283.11431 149.516642 
L 282.039007 150.710994 
L 280.963705 151.905347 
L 279.888402 153.099699 
L 278.8131 154.294051 
L 277.737797 155.488403 
L 276.662495 156.682756 
L 275.587192 157.877108 
L 274.511889 159.07146 
L 273.436587 160.265812 
L 272.361284 161.460165 
L 271.285982 162.654517 
L 270.210679 163.848869 
L 269.135377 165.043222 
L 268.060074 166.237574 
L 266.984772 167.431926 
L 265.909469 168.626278 
L 264.834167 169.820631 
L 263.758864 171.014983 
L 262.683562 172.209335 
L 261.608259 173.403687 
L 260.532957 174.59804 
L 259.457654 175.792392 
L 258.382351 176.986744 
L 257.307049 178.181097 
L 256.231746 179.375449 
L 255.156444 180.569801 
L 254.081141 181.764153 
L 253.005839 182.958506 
L 251.930536 184.152858 
L 250.855234 185.34721 
L 249.779931 186.541562 
L 248.704629 187.735915 
L 247.629326 188.930267 
L 246.554024 190.124619 
L 245.478721 191.318972 
L 244.403418 192.513324 
L 243.328116 193.707676 
L 242.252813 194.902028 
L 241.177511 196.096381 
L 240.102208 197.290733 
L 239.026906 198.485085 
L 237.951603 199.679437 
L 474.518161 199.679437 
L 474.518161 199.679437 
L 473.442859 198.485085 
L 472.367556 197.290733 
L 471.292254 196.096381 
L 470.216951 194.902028 
L 469.141649 193.707676 
L 468.066346 192.513324 
L 466.991043 191.318972 
L 465.915741 190.124619 
L 464.840438 188.930267 
L 463.765136 187.735915 
L 462.689833 186.541562 
L 461.614531 185.34721 
L 460.539228 184.152858 
L 459.463926 182.958506 
L 458.388623 181.764153 
L 457.313321 180.569801 
L 456.238018 179.375449 
L 455.162716 178.181097 
L 454.087413 176.986744 
L 453.01211 175.792392 
L 451.936808 174.59804 
L 450.861505 173.403687 
L 449.786203 172.209335 
L 448.7109 171.014983 
L 447.635598 169.820631 
L 446.560295 168.626278 
L 445.484993 167.431926 
L 444.40969 166.237574 
L 443.334388 165.043222 
L 442.259085 163.848869 
L 441.183783 162.654517 
L 440.10848 161.460165 
L 439.033178 160.265812 
L 437.957875 159.07146 
L 436.882572 157.877108 
L 435.80727 156.682756 
L 434.731967 155.488403 
L 433.656665 154.294051 
L 432.581362 153.099699 
L 431.50606 151.905347 
L 430.430757 150.710994 
L 429.355455 149.516642 
L 428.280152 148.32229 
L 427.20485 147.127937 
L 426.129547 145.933585 
L 425.054245 144.739233 
L 423.978942 143.544881 
L 422.903639 142.350528 
L 421.828337 141.156176 
L 420.753034 139.961824 
L 419.677732 138.767472 
L 418.602429 137.573119 
L 417.527127 136.378767 
L 416.451824 135.184415 
L 415.376522 133.990062 
L 414.301219 132.79571 
L 413.225917 131.601358 
L 412.150614 130.407006 
L 411.075312 129.212653 
L 410.000009 128.018301 
L 408.924707 126.823949 
L 407.849404 125.629597 
L 406.774101 124.435244 
L 405.698799 123.240892 
L 404.623496 122.04654 
L 403.548194 120.852187 
L 402.472891 119.657835 
L 401.397589 118.463483 
L 400.322286 117.269131 
L 399.246984 116.074778 
L 398.171681 114.880426 
L 397.096379 113.686074 
L 396.021076 112.491722 
L 394.945774 111.297369 
L 393.870471 110.103017 
L 392.795168 108.908665 
L 391.719866 107.714312 
L 390.644563 106.51996 
L 389.569261 105.325608 
L 388.493958 104.131256 
L 387.418656 102.936903 
L 386.343353 101.742551 
L 385.268051 100.548199 
L 384.192748 99.353847 
L 383.117446 98.159494 
L 382.042143 96.965142 
L 380.966841 95.77079 
L 379.891538 94.576437 
L 378.816236 93.382085 
L 377.740933 92.187733 
L 376.66563 90.993381 
L 375.590328 89.799028 
L 374.515025 88.604676 
L 373.439723 87.410324 
L 372.36442 86.215972 
L 371.289118 85.021619 
L 370.213815 83.827267 
L 369.138513 82.632915 
L 368.06321 81.438562 
L 368.06321 81.438562 
L 368.06321 22.318125 
z
" clip-path="url(#p99dc24e16e)" style="fill: #1f77b4; fill-opacity: 0.5"/>
    </g>
    <g id="patch_4">
     <path d="M 137.318486 199.679437 
L 133.471849 210.428608 
L 129.375023 221.177778 
L 125.510233 230.732597 
L 121.422791 240.287415 
L 117.099871 249.842233 
L 112.527905 259.397051 
L 107.692548 268.951869 
L 102.578625 278.506687 
L 97.862837 286.867153 
L 92.910169 295.227619 
L 87.708722 303.588085 
L 82.246 311.948551 
L 78.176847 317.920312 
M 255.601765 199.679437 
L 259.448402 210.428608 
L 263.545228 221.177778 
L 267.410018 230.732597 
L 271.49746 240.287415 
L 275.820381 249.842233 
L 280.392346 259.397051 
L 285.227703 268.951869 
L 290.341626 278.506687 
L 295.057414 286.867153 
L 300.010082 295.227619 
L 305.211529 303.588085 
L 310.674251 311.948551 
L 314.743405 317.920312 
L 314.743405 317.920312 
" clip-path="url(#p99dc24e16e)" style="fill: none; stroke: #ffffff; stroke-width: 3; stroke-linejoin: miter"/>
     <path d="M 137.318486 199.679437 
L 133.471849 210.428608 
L 129.375023 221.177778 
L 125.510233 230.732597 
L 121.422791 240.287415 
L 117.099871 249.842233 
L 112.527905 259.397051 
L 107.692548 268.951869 
L 102.578625 278.506687 
L 97.862837 286.867153 
L 92.910169 295.227619 
L 87.708722 303.588085 
L 82.246 311.948551 
L 78.176847 317.920312 
M 255.601765 199.679437 
L 259.448402 210.428608 
L 263.545228 221.177778 
L 267.410018 230.732597 
L 271.49746 240.287415 
L 275.820381 249.842233 
L 280.392346 259.397051 
L 285.227703 268.951869 
L 290.341626 278.506687 
L 295.057414 286.867153 
L 300.010082 295.227619 
L 305.211529 303.588085 
L 310.674251 311.948551 
L 314.743405 317.920312 
L 314.743405 317.920312 
" clip-path="url(#p99dc24e16e)" style="fill: none; stroke: #ff7f0e; stroke-linejoin: miter"/>
     <g id="PolyCollection_2">
      <path d="M 255.601765 199.679437 
L 137.318486 199.679437 
L 136.902954 200.87379 
L 136.484502 202.068142 
L 136.06311 203.262494 
L 135.638757 204.456847 
L 135.211423 205.651199 
L 134.781086 206.845551 
L 134.347726 208.039903 
L 133.911321 209.234256 
L 133.471849 210.428608 
L 133.02929 211.62296 
L 132.583622 212.817312 
L 132.134822 214.011665 
L 131.682869 215.206017 
L 131.22774 216.400369 
L 130.769414 217.594722 
L 130.307868 218.789074 
L 129.843078 219.983426 
L 129.375023 221.177778 
L 128.90368 222.372131 
L 128.429024 223.566483 
L 127.951034 224.760835 
L 127.469686 225.955187 
L 126.984955 227.14954 
L 126.496819 228.343892 
L 126.005253 229.538244 
L 125.510233 230.732597 
L 125.011735 231.926949 
L 124.509735 233.121301 
L 124.004208 234.315653 
L 123.495128 235.510006 
L 122.982472 236.704358 
L 122.466214 237.89871 
L 121.946329 239.093062 
L 121.422791 240.287415 
L 120.895575 241.481767 
L 120.364654 242.676119 
L 119.830003 243.870472 
L 119.291596 245.064824 
L 118.749405 246.259176 
L 118.203406 247.453528 
L 117.65357 248.647881 
L 117.099871 249.842233 
L 116.542281 251.036585 
L 115.980774 252.230937 
L 115.415322 253.42529 
L 114.845896 254.619642 
L 114.27247 255.813994 
L 113.695016 257.008347 
L 113.113503 258.202699 
L 112.527905 259.397051 
L 111.938193 260.591403 
L 111.344337 261.785756 
L 110.746309 262.980108 
L 110.144079 264.17446 
L 109.537618 265.368812 
L 108.926896 266.563165 
L 108.311883 267.757517 
L 107.692548 268.951869 
L 107.068862 270.146222 
L 106.440795 271.340574 
L 105.808314 272.534926 
L 105.171389 273.729278 
L 104.52999 274.923631 
L 103.884083 276.117983 
L 103.233639 277.312335 
L 102.578625 278.506687 
L 101.919008 279.70104 
L 101.254757 280.895392 
L 100.585839 282.089744 
L 99.912221 283.284097 
L 99.23387 284.478449 
L 98.550753 285.672801 
L 97.862837 286.867153 
L 97.170087 288.061506 
L 96.47247 289.255858 
L 95.769951 290.45021 
L 95.062496 291.644562 
L 94.350071 292.838915 
L 93.63264 294.033267 
L 92.910169 295.227619 
L 92.182621 296.421972 
L 91.449962 297.616324 
L 90.712155 298.810676 
L 89.969164 300.005028 
L 89.220952 301.199381 
L 88.467484 302.393733 
L 87.708722 303.588085 
L 86.944629 304.782437 
L 86.175167 305.97679 
L 85.400299 307.171142 
L 84.619986 308.365494 
L 83.834191 309.559847 
L 83.042876 310.754199 
L 82.246 311.948551 
L 81.443525 313.142903 
L 80.635412 314.337256 
L 79.821621 315.531608 
L 79.002113 316.72596 
L 78.176847 317.920312 
L 314.743405 317.920312 
L 314.743405 317.920312 
L 313.918138 316.72596 
L 313.09863 315.531608 
L 312.284839 314.337256 
L 311.476726 313.142903 
L 310.674251 311.948551 
L 309.877376 310.754199 
L 309.08606 309.559847 
L 308.300265 308.365494 
L 307.519952 307.171142 
L 306.745084 305.97679 
L 305.975622 304.782437 
L 305.211529 303.588085 
L 304.452767 302.393733 
L 303.699299 301.199381 
L 302.951087 300.005028 
L 302.208096 298.810676 
L 301.470289 297.616324 
L 300.73763 296.421972 
L 300.010082 295.227619 
L 299.287611 294.033267 
L 298.57018 292.838915 
L 297.857755 291.644562 
L 297.1503 290.45021 
L 296.447781 289.255858 
L 295.750164 288.061506 
L 295.057414 286.867153 
L 294.369498 285.672801 
L 293.686381 284.478449 
L 293.00803 283.284097 
L 292.334412 282.089744 
L 291.665494 280.895392 
L 291.001243 279.70104 
L 290.341626 278.506687 
L 289.686612 277.312335 
L 289.036168 276.117983 
L 288.390262 274.923631 
L 287.748862 273.729278 
L 287.111937 272.534926 
L 286.479457 271.340574 
L 285.851389 270.146222 
L 285.227703 268.951869 
L 284.608369 267.757517 
L 283.993355 266.563165 
L 283.382633 265.368812 
L 282.776172 264.17446 
L 282.173942 262.980108 
L 281.575914 261.785756 
L 280.982058 260.591403 
L 280.392346 259.397051 
L 279.806748 258.202699 
L 279.225236 257.008347 
L 278.647781 255.813994 
L 278.074355 254.619642 
L 277.504929 253.42529 
L 276.939477 252.230937 
L 276.37797 251.036585 
L 275.820381 249.842233 
L 275.266681 248.647881 
L 274.716845 247.453528 
L 274.170846 246.259176 
L 273.628655 245.064824 
L 273.090248 243.870472 
L 272.555597 242.676119 
L 272.024676 241.481767 
L 271.49746 240.287415 
L 270.973922 239.093062 
L 270.454037 237.89871 
L 269.937779 236.704358 
L 269.425123 235.510006 
L 268.916044 234.315653 
L 268.410516 233.121301 
L 267.908516 231.926949 
L 267.410018 230.732597 
L 266.914998 229.538244 
L 266.423432 228.343892 
L 265.935296 227.14954 
L 265.450565 225.955187 
L 264.969217 224.760835 
L 264.491227 223.566483 
L 264.016571 222.372131 
L 263.545228 221.177778 
L 263.077173 219.983426 
L 262.612383 218.789074 
L 262.150837 217.594722 
L 261.692511 216.400369 
L 261.237382 215.206017 
L 260.785429 214.011665 
L 260.336629 212.817312 
L 259.890961 211.62296 
L 259.448402 210.428608 
L 259.00893 209.234256 
L 258.572525 208.039903 
L 258.139165 206.845551 
L 257.708828 205.651199 
L 257.281494 204.456847 
L 256.857141 203.262494 
L 256.435749 202.068142 
L 256.017297 200.87379 
L 255.601765 199.679437 
z
" clip-path="url(#p99dc24e16e)" style="fill: #ff7f0e; fill-opacity: 0.5"/>
     </g>
     <g id="patch_5">
      <path d="M 456.867999 199.679437 
L 514.826806 317.920312 
M 575.151278 199.679437 
L 517.192472 317.920312 
L 517.192472 317.920312 
" clip-path="url(#p99dc24e16e)" style="fill: none; stroke: #ffffff; stroke-width: 3; stroke-linejoin: miter"/>
      <path d="M 456.867999 199.679437 
L 514.826806 317.920312 
M 575.151278 199.679437 
L 517.192472 317.920312 
L 517.192472 317.920312 
" clip-path="url(#p99dc24e16e)" style="fill: none; stroke: #2ca02c; stroke-linejoin: miter"/>
      <g id="PolyCollection_3">
       <path d="M 575.151278 199.679437 
L 456.867999 199.679437 
L 457.453442 200.87379 
L 458.038884 202.068142 
L 458.624327 203.262494 
L 459.209769 204.456847 
L 459.795212 205.651199 
L 460.380654 206.845551 
L 460.966097 208.039903 
L 461.551539 209.234256 
L 462.136982 210.428608 
L 462.722424 211.62296 
L 463.307867 212.817312 
L 463.893309 214.011665 
L 464.478752 215.206017 
L 465.064194 216.400369 
L 465.649637 217.594722 
L 466.235079 218.789074 
L 466.820522 219.983426 
L 467.405964 221.177778 
L 467.991407 222.372131 
L 468.576849 223.566483 
L 469.162292 224.760835 
L 469.747734 225.955187 
L 470.333177 227.14954 
L 470.918619 228.343892 
L 471.504062 229.538244 
L 472.089504 230.732597 
L 472.674947 231.926949 
L 473.260389 233.121301 
L 473.845832 234.315653 
L 474.431274 235.510006 
L 475.016717 236.704358 
L 475.602159 237.89871 
L 476.187602 239.093062 
L 476.773044 240.287415 
L 477.358487 241.481767 
L 477.943929 242.676119 
L 478.529372 243.870472 
L 479.114814 245.064824 
L 479.700257 246.259176 
L 480.285699 247.453528 
L 480.871142 248.647881 
L 481.456584 249.842233 
L 482.042027 251.036585 
L 482.627469 252.230937 
L 483.212912 253.42529 
L 483.798354 254.619642 
L 484.383797 255.813994 
L 484.969239 257.008347 
L 485.554682 258.202699 
L 486.140124 259.397051 
L 486.725567 260.591403 
L 487.311009 261.785756 
L 487.896452 262.980108 
L 488.481894 264.17446 
L 489.067336 265.368812 
L 489.652779 266.563165 
L 490.238221 267.757517 
L 490.823664 268.951869 
L 491.409106 270.146222 
L 491.994549 271.340574 
L 492.579991 272.534926 
L 493.165434 273.729278 
L 493.750876 274.923631 
L 494.336319 276.117983 
L 494.921761 277.312335 
L 495.507204 278.506687 
L 496.092646 279.70104 
L 496.678089 280.895392 
L 497.263531 282.089744 
L 497.848974 283.284097 
L 498.434416 284.478449 
L 499.019859 285.672801 
L 499.605301 286.867153 
L 500.190744 288.061506 
L 500.776186 289.255858 
L 501.361629 290.45021 
L 501.947071 291.644562 
L 502.532514 292.838915 
L 503.117956 294.033267 
L 503.703399 295.227619 
L 504.288841 296.421972 
L 504.874284 297.616324 
L 505.459726 298.810676 
L 506.045169 300.005028 
L 506.630611 301.199381 
L 507.216054 302.393733 
L 507.801496 303.588085 
L 508.386939 304.782437 
L 508.972381 305.97679 
L 509.557824 307.171142 
L 510.143266 308.365494 
L 510.728709 309.559847 
L 511.314151 310.754199 
L 511.899594 311.948551 
L 512.485036 313.142903 
L 513.070479 314.337256 
L 513.655921 315.531608 
L 514.241364 316.72596 
L 514.826806 317.920312 
L 517.192472 317.920312 
L 517.192472 317.920312 
L 517.777914 316.72596 
L 518.363357 315.531608 
L 518.948799 314.337256 
L 519.534242 313.142903 
L 520.119684 311.948551 
L 520.705127 310.754199 
L 521.290569 309.559847 
L 521.876012 308.365494 
L 522.461454 307.171142 
L 523.046897 305.97679 
L 523.632339 304.782437 
L 524.217782 303.588085 
L 524.803224 302.393733 
L 525.388667 301.199381 
L 525.974109 300.005028 
L 526.559552 298.810676 
L 527.144994 297.616324 
L 527.730437 296.421972 
L 528.315879 295.227619 
L 528.901322 294.033267 
L 529.486764 292.838915 
L 530.072207 291.644562 
L 530.657649 290.45021 
L 531.243092 289.255858 
L 531.828534 288.061506 
L 532.413976 286.867153 
L 532.999419 285.672801 
L 533.584861 284.478449 
L 534.170304 283.284097 
L 534.755746 282.089744 
L 535.341189 280.895392 
L 535.926631 279.70104 
L 536.512074 278.506687 
L 537.097516 277.312335 
L 537.682959 276.117983 
L 538.268401 274.923631 
L 538.853844 273.729278 
L 539.439286 272.534926 
L 540.024729 271.340574 
L 540.610171 270.146222 
L 541.195614 268.951869 
L 541.781056 267.757517 
L 542.366499 266.563165 
L 542.951941 265.368812 
L 543.537384 264.17446 
L 544.122826 262.980108 
L 544.708269 261.785756 
L 545.293711 260.591403 
L 545.879154 259.397051 
L 546.464596 258.202699 
L 547.050039 257.008347 
L 547.635481 255.813994 
L 548.220924 254.619642 
L 548.806366 253.42529 
L 549.391809 252.230937 
L 549.977251 251.036585 
L 550.562694 249.842233 
L 551.148136 248.647881 
L 551.733579 247.453528 
L 552.319021 246.259176 
L 552.904464 245.064824 
L 553.489906 243.870472 
L 554.075349 242.676119 
L 554.660791 241.481767 
L 555.246234 240.287415 
L 555.831676 239.093062 
L 556.417119 237.89871 
L 557.002561 236.704358 
L 557.588004 235.510006 
L 558.173446 234.315653 
L 558.758889 233.121301 
L 559.344331 231.926949 
L 559.929774 230.732597 
L 560.515216 229.538244 
L 561.100659 228.343892 
L 561.686101 227.14954 
L 562.271544 225.955187 
L 562.856986 224.760835 
L 563.442429 223.566483 
L 564.027871 222.372131 
L 564.613314 221.177778 
L 565.198756 219.983426 
L 565.784199 218.789074 
L 566.369641 217.594722 
L 566.955084 216.400369 
L 567.540526 215.206017 
L 568.125969 214.011665 
L 568.711411 212.817312 
L 569.296853 211.62296 
L 569.882296 210.428608 
L 570.467738 209.234256 
L 571.053181 208.039903 
L 571.638623 206.845551 
L 572.224066 205.651199 
L 572.809508 204.456847 
L 573.394951 203.262494 
L 573.980393 202.068142 
L 574.565836 200.87379 
L 575.151278 199.679437 
z
" clip-path="url(#p99dc24e16e)" style="fill: #2ca02c; fill-opacity: 0.5"/>
      </g>
      <g id="matplotlib.axis_1">
       <g id="xtick_1">
        <g id="line2d_1"/>
        <g id="text_1">
         <!-- pop_1 -->
         <g transform="translate(181.371063 328.740625) scale(0.1 -0.1)">
          <defs>
           <path id="DejaVuSans-70" d="M 1159 525 
L 1159 -1331 
L 581 -1331 
L 581 3500 
L 1159 3500 
L 1159 2969 
Q 1341 3281 1617 3432 
Q 1894 3584 2278 3584 
Q 2916 3584 3314 3078 
Q 3713 2572 3713 1747 
Q 3713 922 3314 415 
Q 2916 -91 2278 -91 
Q 1894 -91 1617 61 
Q 1341 213 1159 525 
z
M 3116 1747 
Q 3116 2381 2855 2742 
Q 2594 3103 2138 3103 
Q 1681 3103 1420 2742 
Q 1159 2381 1159 1747 
Q 1159 1113 1420 752 
Q 1681 391 2138 391 
Q 2594 391 2855 752 
Q 3116 1113 3116 1747 
z
" transform="scale(0.015625)"/>
           <path id="DejaVuSans-6f" d="M 1959 3097 
Q 1497 3097 1228 2736 
Q 959 2375 959 1747 
Q 959 1119 1226 758 
Q 1494 397 1959 397 
Q 2419 397 2687 759 
Q 2956 1122 2956 1747 
Q 2956 2369 2687 2733 
Q 2419 3097 1959 3097 
z
M 1959 3584 
Q 2709 3584 3137 3096 
Q 3566 2609 3566 1747 
Q 3566 888 3137 398 
Q 2709 -91 1959 -91 
Q 1206 -91 779 398 
Q 353 888 353 1747 
Q 353 2609 779 3096 
Q 1206 3584 1959 3584 
z
" transform="scale(0.015625)"/>
           <path id="DejaVuSans-5f" d="M 3263 -1063 
L 3263 -1509 
L -63 -1509 
L -63 -1063 
L 3263 -1063 
z
" transform="scale(0.015625)"/>
           <path id="DejaVuSans-31" d="M 794 531 
L 1825 531 
L 1825 4091 
L 703 3866 
L 703 4441 
L 1819 4666 
L 2450 4666 
L 2450 531 
L 3481 531 
L 3481 0 
L 794 0 
L 794 531 
z
" transform="scale(0.015625)"/>
          </defs>
          <use xlink:href="#DejaVuSans-70"/>
          <use xlink:href="#DejaVuSans-6f" x="63.476562"/>
          <use xlink:href="#DejaVuSans-70" x="124.658203"/>
          <use xlink:href="#DejaVuSans-5f" x="188.134766"/>
          <use xlink:href="#DejaVuSans-31" x="238.134766"/>
         </g>
        </g>
       </g>
       <g id="xtick_2">
        <g id="line2d_2"/>
        <g id="text_2">
         <!-- pop_2 -->
         <g transform="translate(500.920576 328.842187) scale(0.1 -0.1)">
          <defs>
           <path id="DejaVuSans-32" d="M 1228 531 
L 3431 531 
L 3431 0 
L 469 0 
L 469 531 
Q 828 903 1448 1529 
Q 2069 2156 2228 2338 
Q 2531 2678 2651 2914 
Q 2772 3150 2772 3378 
Q 2772 3750 2511 3984 
Q 2250 4219 1831 4219 
Q 1534 4219 1204 4116 
Q 875 4013 500 3803 
L 500 4441 
Q 881 4594 1212 4672 
Q 1544 4750 1819 4750 
Q 2544 4750 2975 4387 
Q 3406 4025 3406 3419 
Q 3406 3131 3298 2873 
Q 3191 2616 2906 2266 
Q 2828 2175 2409 1742 
Q 1991 1309 1228 531 
z
" transform="scale(0.015625)"/>
          </defs>
          <use xlink:href="#DejaVuSans-70"/>
          <use xlink:href="#DejaVuSans-6f" x="63.476562"/>
          <use xlink:href="#DejaVuSans-70" x="124.658203"/>
          <use xlink:href="#DejaVuSans-5f" x="188.134766"/>
          <use xlink:href="#DejaVuSans-32" x="238.134766"/>
         </g>
        </g>
       </g>
      </g>
      <g id="matplotlib.axis_2">
       <g id="ytick_1">
        <g id="line2d_3">
         <defs>
          <path id="m9399c10096" d="M 0 0 
L -3.5 0 
" style="stroke: #000000; stroke-width: 0.8"/>
         </defs>
         <g>
          <use xlink:href="#m9399c10096" x="53.328125" y="317.920312" style="stroke: #000000; stroke-width: 0.8"/>
         </g>
        </g>
        <g id="text_3">
         <!-- 0 -->
         <g transform="translate(39.965625 321.719531) scale(0.1 -0.1)">
          <defs>
           <path id="DejaVuSans-30" d="M 2034 4250 
Q 1547 4250 1301 3770 
Q 1056 3291 1056 2328 
Q 1056 1369 1301 889 
Q 1547 409 2034 409 
Q 2525 409 2770 889 
Q 3016 1369 3016 2328 
Q 3016 3291 2770 3770 
Q 2525 4250 2034 4250 
z
M 2034 4750 
Q 2819 4750 3233 4129 
Q 3647 3509 3647 2328 
Q 3647 1150 3233 529 
Q 2819 -91 2034 -91 
Q 1250 -91 836 529 
Q 422 1150 422 2328 
Q 422 3509 836 4129 
Q 1250 4750 2034 4750 
z
" transform="scale(0.015625)"/>
          </defs>
          <use xlink:href="#DejaVuSans-30"/>
         </g>
        </g>
       </g>
       <g id="ytick_2">
        <g id="line2d_4">
         <g>
          <use xlink:href="#m9399c10096" x="53.328125" y="258.799875" style="stroke: #000000; stroke-width: 0.8"/>
         </g>
        </g>
        <g id="text_4">
         <!-- 500 -->
         <g transform="translate(27.240625 262.599094) scale(0.1 -0.1)">
          <defs>
           <path id="DejaVuSans-35" d="M 691 4666 
L 3169 4666 
L 3169 4134 
L 1269 4134 
L 1269 2991 
Q 1406 3038 1543 3061 
Q 1681 3084 1819 3084 
Q 2600 3084 3056 2656 
Q 3513 2228 3513 1497 
Q 3513 744 3044 326 
Q 2575 -91 1722 -91 
Q 1428 -91 1123 -41 
Q 819 9 494 109 
L 494 744 
Q 775 591 1075 516 
Q 1375 441 1709 441 
Q 2250 441 2565 725 
Q 2881 1009 2881 1497 
Q 2881 1984 2565 2268 
Q 2250 2553 1709 2553 
Q 1456 2553 1204 2497 
Q 953 2441 691 2322 
L 691 4666 
z
" transform="scale(0.015625)"/>
          </defs>
          <use xlink:href="#DejaVuSans-35"/>
          <use xlink:href="#DejaVuSans-30" x="63.623047"/>
          <use xlink:href="#DejaVuSans-30" x="127.246094"/>
         </g>
        </g>
       </g>
       <g id="ytick_3">
        <g id="line2d_5">
         <g>
          <use xlink:href="#m9399c10096" x="53.328125" y="199.679437" style="stroke: #000000; stroke-width: 0.8"/>
         </g>
        </g>
        <g id="text_5">
         <!-- 1000 -->
         <g transform="translate(20.878125 203.478656) scale(0.1 -0.1)">
          <use xlink:href="#DejaVuSans-31"/>
          <use xlink:href="#DejaVuSans-30" x="63.623047"/>
          <use xlink:href="#DejaVuSans-30" x="127.246094"/>
          <use xlink:href="#DejaVuSans-30" x="190.869141"/>
         </g>
        </g>
       </g>
       <g id="ytick_4">
        <g id="line2d_6">
         <g>
          <use xlink:href="#m9399c10096" x="53.328125" y="140.559" style="stroke: #000000; stroke-width: 0.8"/>
         </g>
        </g>
        <g id="text_6">
         <!-- 1500 -->
         <g transform="translate(20.878125 144.358219) scale(0.1 -0.1)">
          <use xlink:href="#DejaVuSans-31"/>
          <use xlink:href="#DejaVuSans-35" x="63.623047"/>
          <use xlink:href="#DejaVuSans-30" x="127.246094"/>
          <use xlink:href="#DejaVuSans-30" x="190.869141"/>
         </g>
        </g>
       </g>
       <g id="ytick_5">
        <g id="line2d_7">
         <g>
          <use xlink:href="#m9399c10096" x="53.328125" y="81.438562" style="stroke: #000000; stroke-width: 0.8"/>
         </g>
        </g>
        <g id="text_7">
         <!-- 2000 -->
         <g transform="translate(20.878125 85.237781) scale(0.1 -0.1)">
          <use xlink:href="#DejaVuSans-32"/>
          <use xlink:href="#DejaVuSans-30" x="63.623047"/>
          <use xlink:href="#DejaVuSans-30" x="127.246094"/>
          <use xlink:href="#DejaVuSans-30" x="190.869141"/>
         </g>
        </g>
       </g>
       <g id="ytick_6">
        <g id="line2d_8">
         <g>
          <use xlink:href="#m9399c10096" x="53.328125" y="22.318125" style="stroke: #000000; stroke-width: 0.8"/>
         </g>
        </g>
        <g id="text_8">
         <!-- 2500 -->
         <g transform="translate(20.878125 26.117344) scale(0.1 -0.1)">
          <use xlink:href="#DejaVuSans-32"/>
          <use xlink:href="#DejaVuSans-35" x="63.623047"/>
          <use xlink:href="#DejaVuSans-30" x="127.246094"/>
          <use xlink:href="#DejaVuSans-30" x="190.869141"/>
         </g>
        </g>
       </g>
       <g id="text_9">
        <!-- time ago (generations) -->
        <g transform="translate(14.798438 227.590312) rotate(-90) scale(0.1 -0.1)">
         <defs>
          <path id="DejaVuSans-74" d="M 1172 4494 
L 1172 3500 
L 2356 3500 
L 2356 3053 
L 1172 3053 
L 1172 1153 
Q 1172 725 1289 603 
Q 1406 481 1766 481 
L 2356 481 
L 2356 0 
L 1766 0 
Q 1100 0 847 248 
Q 594 497 594 1153 
L 594 3053 
L 172 3053 
L 172 3500 
L 594 3500 
L 594 4494 
L 1172 4494 
z
" transform="scale(0.015625)"/>
          <path id="DejaVuSans-69" d="M 603 3500 
L 1178 3500 
L 1178 0 
L 603 0 
L 603 3500 
z
M 603 4863 
L 1178 4863 
L 1178 4134 
L 603 4134 
L 603 4863 
z
" transform="scale(0.015625)"/>
          <path id="DejaVuSans-6d" d="M 3328 2828 
Q 3544 3216 3844 3400 
Q 4144 3584 4550 3584 
Q 5097 3584 5394 3201 
Q 5691 2819 5691 2113 
L 5691 0 
L 5113 0 
L 5113 2094 
Q 5113 2597 4934 2840 
Q 4756 3084 4391 3084 
Q 3944 3084 3684 2787 
Q 3425 2491 3425 1978 
L 3425 0 
L 2847 0 
L 2847 2094 
Q 2847 2600 2669 2842 
Q 2491 3084 2119 3084 
Q 1678 3084 1418 2786 
Q 1159 2488 1159 1978 
L 1159 0 
L 581 0 
L 581 3500 
L 1159 3500 
L 1159 2956 
Q 1356 3278 1631 3431 
Q 1906 3584 2284 3584 
Q 2666 3584 2933 3390 
Q 3200 3197 3328 2828 
z
" transform="scale(0.015625)"/>
          <path id="DejaVuSans-65" d="M 3597 1894 
L 3597 1613 
L 953 1613 
Q 991 1019 1311 708 
Q 1631 397 2203 397 
Q 2534 397 2845 478 
Q 3156 559 3463 722 
L 3463 178 
Q 3153 47 2828 -22 
Q 2503 -91 2169 -91 
Q 1331 -91 842 396 
Q 353 884 353 1716 
Q 353 2575 817 3079 
Q 1281 3584 2069 3584 
Q 2775 3584 3186 3129 
Q 3597 2675 3597 1894 
z
M 3022 2063 
Q 3016 2534 2758 2815 
Q 2500 3097 2075 3097 
Q 1594 3097 1305 2825 
Q 1016 2553 972 2059 
L 3022 2063 
z
" transform="scale(0.015625)"/>
          <path id="DejaVuSans-20" transform="scale(0.015625)"/>
          <path id="DejaVuSans-61" d="M 2194 1759 
Q 1497 1759 1228 1600 
Q 959 1441 959 1056 
Q 959 750 1161 570 
Q 1363 391 1709 391 
Q 2188 391 2477 730 
Q 2766 1069 2766 1631 
L 2766 1759 
L 2194 1759 
z
M 3341 1997 
L 3341 0 
L 2766 0 
L 2766 531 
Q 2569 213 2275 61 
Q 1981 -91 1556 -91 
Q 1019 -91 701 211 
Q 384 513 384 1019 
Q 384 1609 779 1909 
Q 1175 2209 1959 2209 
L 2766 2209 
L 2766 2266 
Q 2766 2663 2505 2880 
Q 2244 3097 1772 3097 
Q 1472 3097 1187 3025 
Q 903 2953 641 2809 
L 641 3341 
Q 956 3463 1253 3523 
Q 1550 3584 1831 3584 
Q 2591 3584 2966 3190 
Q 3341 2797 3341 1997 
z
" transform="scale(0.015625)"/>
          <path id="DejaVuSans-67" d="M 2906 1791 
Q 2906 2416 2648 2759 
Q 2391 3103 1925 3103 
Q 1463 3103 1205 2759 
Q 947 2416 947 1791 
Q 947 1169 1205 825 
Q 1463 481 1925 481 
Q 2391 481 2648 825 
Q 2906 1169 2906 1791 
z
M 3481 434 
Q 3481 -459 3084 -895 
Q 2688 -1331 1869 -1331 
Q 1566 -1331 1297 -1286 
Q 1028 -1241 775 -1147 
L 775 -588 
Q 1028 -725 1275 -790 
Q 1522 -856 1778 -856 
Q 2344 -856 2625 -561 
Q 2906 -266 2906 331 
L 2906 616 
Q 2728 306 2450 153 
Q 2172 0 1784 0 
Q 1141 0 747 490 
Q 353 981 353 1791 
Q 353 2603 747 3093 
Q 1141 3584 1784 3584 
Q 2172 3584 2450 3431 
Q 2728 3278 2906 2969 
L 2906 3500 
L 3481 3500 
L 3481 434 
z
" transform="scale(0.015625)"/>
          <path id="DejaVuSans-28" d="M 1984 4856 
Q 1566 4138 1362 3434 
Q 1159 2731 1159 2009 
Q 1159 1288 1364 580 
Q 1569 -128 1984 -844 
L 1484 -844 
Q 1016 -109 783 600 
Q 550 1309 550 2009 
Q 550 2706 781 3412 
Q 1013 4119 1484 4856 
L 1984 4856 
z
" transform="scale(0.015625)"/>
          <path id="DejaVuSans-6e" d="M 3513 2113 
L 3513 0 
L 2938 0 
L 2938 2094 
Q 2938 2591 2744 2837 
Q 2550 3084 2163 3084 
Q 1697 3084 1428 2787 
Q 1159 2491 1159 1978 
L 1159 0 
L 581 0 
L 581 3500 
L 1159 3500 
L 1159 2956 
Q 1366 3272 1645 3428 
Q 1925 3584 2291 3584 
Q 2894 3584 3203 3211 
Q 3513 2838 3513 2113 
z
" transform="scale(0.015625)"/>
          <path id="DejaVuSans-72" d="M 2631 2963 
Q 2534 3019 2420 3045 
Q 2306 3072 2169 3072 
Q 1681 3072 1420 2755 
Q 1159 2438 1159 1844 
L 1159 0 
L 581 0 
L 581 3500 
L 1159 3500 
L 1159 2956 
Q 1341 3275 1631 3429 
Q 1922 3584 2338 3584 
Q 2397 3584 2469 3576 
Q 2541 3569 2628 3553 
L 2631 2963 
z
" transform="scale(0.015625)"/>
          <path id="DejaVuSans-73" d="M 2834 3397 
L 2834 2853 
Q 2591 2978 2328 3040 
Q 2066 3103 1784 3103 
Q 1356 3103 1142 2972 
Q 928 2841 928 2578 
Q 928 2378 1081 2264 
Q 1234 2150 1697 2047 
L 1894 2003 
Q 2506 1872 2764 1633 
Q 3022 1394 3022 966 
Q 3022 478 2636 193 
Q 2250 -91 1575 -91 
Q 1294 -91 989 -36 
Q 684 19 347 128 
L 347 722 
Q 666 556 975 473 
Q 1284 391 1588 391 
Q 1994 391 2212 530 
Q 2431 669 2431 922 
Q 2431 1156 2273 1281 
Q 2116 1406 1581 1522 
L 1381 1569 
Q 847 1681 609 1914 
Q 372 2147 372 2553 
Q 372 3047 722 3315 
Q 1072 3584 1716 3584 
Q 2034 3584 2315 3537 
Q 2597 3491 2834 3397 
z
" transform="scale(0.015625)"/>
          <path id="DejaVuSans-29" d="M 513 4856 
L 1013 4856 
Q 1481 4119 1714 3412 
Q 1947 2706 1947 2009 
Q 1947 1309 1714 600 
Q 1481 -109 1013 -844 
L 513 -844 
Q 928 -128 1133 580 
Q 1338 1288 1338 2009 
Q 1338 2731 1133 3434 
Q 928 4138 513 4856 
z
" transform="scale(0.015625)"/>
         </defs>
         <use xlink:href="#DejaVuSans-74"/>
         <use xlink:href="#DejaVuSans-69" x="39.208984"/>
         <use xlink:href="#DejaVuSans-6d" x="66.992188"/>
         <use xlink:href="#DejaVuSans-65" x="164.404297"/>
         <use xlink:href="#DejaVuSans-20" x="225.927734"/>
         <use xlink:href="#DejaVuSans-61" x="257.714844"/>
         <use xlink:href="#DejaVuSans-67" x="318.994141"/>
         <use xlink:href="#DejaVuSans-6f" x="382.470703"/>
         <use xlink:href="#DejaVuSans-20" x="443.652344"/>
         <use xlink:href="#DejaVuSans-28" x="475.439453"/>
         <use xlink:href="#DejaVuSans-67" x="514.453125"/>
         <use xlink:href="#DejaVuSans-65" x="577.929688"/>
         <use xlink:href="#DejaVuSans-6e" x="639.453125"/>
         <use xlink:href="#DejaVuSans-65" x="702.832031"/>
         <use xlink:href="#DejaVuSans-72" x="764.355469"/>
         <use xlink:href="#DejaVuSans-61" x="805.46875"/>
         <use xlink:href="#DejaVuSans-74" x="866.748047"/>
         <use xlink:href="#DejaVuSans-69" x="905.957031"/>
         <use xlink:href="#DejaVuSans-6f" x="933.740234"/>
         <use xlink:href="#DejaVuSans-6e" x="994.921875"/>
         <use xlink:href="#DejaVuSans-73" x="1058.300781"/>
         <use xlink:href="#DejaVuSans-29" x="1110.400391"/>
        </g>
       </g>
      </g>
      <g id="patch_6">
       <path d="M 53.328125 317.920312 
L 53.328125 22.318125 
" style="fill: none; stroke: #000000; stroke-width: 0.8; stroke-linejoin: miter; stroke-linecap: square"/>
      </g>
      <g id="text_10">
       <g id="patch_7">
        <path d="M 333.102851 117.837844 
L 379.366913 117.837844 
Q 381.366913 117.837844 381.366913 115.837844 
L 381.366913 106.159719 
Q 381.366913 104.159719 379.366913 104.159719 
L 333.102851 104.159719 
Q 331.102851 104.159719 331.102851 106.159719 
L 331.102851 115.837844 
Q 331.102851 117.837844 333.102851 117.837844 
z
" style="fill: #ffffff; opacity: 0.6"/>
       </g>
       <!-- ancestral -->
       <g transform="translate(333.102851 113.758156) scale(0.1 -0.1)">
        <defs>
         <path id="DejaVuSans-63" d="M 3122 3366 
L 3122 2828 
Q 2878 2963 2633 3030 
Q 2388 3097 2138 3097 
Q 1578 3097 1268 2742 
Q 959 2388 959 1747 
Q 959 1106 1268 751 
Q 1578 397 2138 397 
Q 2388 397 2633 464 
Q 2878 531 3122 666 
L 3122 134 
Q 2881 22 2623 -34 
Q 2366 -91 2075 -91 
Q 1284 -91 818 406 
Q 353 903 353 1747 
Q 353 2603 823 3093 
Q 1294 3584 2113 3584 
Q 2378 3584 2631 3529 
Q 2884 3475 3122 3366 
z
" transform="scale(0.015625)"/>
         <path id="DejaVuSans-6c" d="M 603 4863 
L 1178 4863 
L 1178 0 
L 603 0 
L 603 4863 
z
" transform="scale(0.015625)"/>
        </defs>
        <use xlink:href="#DejaVuSans-61"/>
        <use xlink:href="#DejaVuSans-6e" x="61.279297"/>
        <use xlink:href="#DejaVuSans-63" x="124.658203"/>
        <use xlink:href="#DejaVuSans-65" x="179.638672"/>
        <use xlink:href="#DejaVuSans-73" x="241.162109"/>
        <use xlink:href="#DejaVuSans-74" x="293.261719"/>
        <use xlink:href="#DejaVuSans-72" x="332.470703"/>
        <use xlink:href="#DejaVuSans-61" x="373.583984"/>
        <use xlink:href="#DejaVuSans-6c" x="434.863281"/>
       </g>
      </g>
      <g id="text_11">
       <!-- linear_size_function_example.yaml -->
       <g transform="translate(222.076562 16.318125) scale(0.12 -0.12)">
        <defs>
         <path id="DejaVuSans-7a" d="M 353 3500 
L 3084 3500 
L 3084 2975 
L 922 459 
L 3084 459 
L 3084 0 
L 275 0 
L 275 525 
L 2438 3041 
L 353 3041 
L 353 3500 
z
" transform="scale(0.015625)"/>
         <path id="DejaVuSans-66" d="M 2375 4863 
L 2375 4384 
L 1825 4384 
Q 1516 4384 1395 4259 
Q 1275 4134 1275 3809 
L 1275 3500 
L 2222 3500 
L 2222 3053 
L 1275 3053 
L 1275 0 
L 697 0 
L 697 3053 
L 147 3053 
L 147 3500 
L 697 3500 
L 697 3744 
Q 697 4328 969 4595 
Q 1241 4863 1831 4863 
L 2375 4863 
z
" transform="scale(0.015625)"/>
         <path id="DejaVuSans-75" d="M 544 1381 
L 544 3500 
L 1119 3500 
L 1119 1403 
Q 1119 906 1312 657 
Q 1506 409 1894 409 
Q 2359 409 2629 706 
Q 2900 1003 2900 1516 
L 2900 3500 
L 3475 3500 
L 3475 0 
L 2900 0 
L 2900 538 
Q 2691 219 2414 64 
Q 2138 -91 1772 -91 
Q 1169 -91 856 284 
Q 544 659 544 1381 
z
M 1991 3584 
L 1991 3584 
z
" transform="scale(0.015625)"/>
         <path id="DejaVuSans-78" d="M 3513 3500 
L 2247 1797 
L 3578 0 
L 2900 0 
L 1881 1375 
L 863 0 
L 184 0 
L 1544 1831 
L 300 3500 
L 978 3500 
L 1906 2253 
L 2834 3500 
L 3513 3500 
z
" transform="scale(0.015625)"/>
         <path id="DejaVuSans-2e" d="M 684 794 
L 1344 794 
L 1344 0 
L 684 0 
L 684 794 
z
" transform="scale(0.015625)"/>
         <path id="DejaVuSans-79" d="M 2059 -325 
Q 1816 -950 1584 -1140 
Q 1353 -1331 966 -1331 
L 506 -1331 
L 506 -850 
L 844 -850 
Q 1081 -850 1212 -737 
Q 1344 -625 1503 -206 
L 1606 56 
L 191 3500 
L 800 3500 
L 1894 763 
L 2988 3500 
L 3597 3500 
L 2059 -325 
z
" transform="scale(0.015625)"/>
        </defs>
        <use xlink:href="#DejaVuSans-6c"/>
        <use xlink:href="#DejaVuSans-69" x="27.783203"/>
        <use xlink:href="#DejaVuSans-6e" x="55.566406"/>
        <use xlink:href="#DejaVuSans-65" x="118.945312"/>
        <use xlink:href="#DejaVuSans-61" x="180.46875"/>
        <use xlink:href="#DejaVuSans-72" x="241.748047"/>
        <use xlink:href="#DejaVuSans-5f" x="282.861328"/>
        <use xlink:href="#DejaVuSans-73" x="332.861328"/>
        <use xlink:href="#DejaVuSans-69" x="384.960938"/>
        <use xlink:href="#DejaVuSans-7a" x="412.744141"/>
        <use xlink:href="#DejaVuSans-65" x="465.234375"/>
        <use xlink:href="#DejaVuSans-5f" x="526.757812"/>
        <use xlink:href="#DejaVuSans-66" x="576.757812"/>
        <use xlink:href="#DejaVuSans-75" x="611.962891"/>
        <use xlink:href="#DejaVuSans-6e" x="675.341797"/>
        <use xlink:href="#DejaVuSans-63" x="738.720703"/>
        <use xlink:href="#DejaVuSans-74" x="793.701172"/>
        <use xlink:href="#DejaVuSans-69" x="832.910156"/>
        <use xlink:href="#DejaVuSans-6f" x="860.693359"/>
        <use xlink:href="#DejaVuSans-6e" x="921.875"/>
        <use xlink:href="#DejaVuSans-5f" x="985.253906"/>
        <use xlink:href="#DejaVuSans-65" x="1035.253906"/>
        <use xlink:href="#DejaVuSans-78" x="1095.027344"/>
        <use xlink:href="#DejaVuSans-61" x="1154.207031"/>
        <use xlink:href="#DejaVuSans-6d" x="1215.486328"/>
        <use xlink:href="#DejaVuSans-70" x="1312.898438"/>
        <use xlink:href="#DejaVuSans-6c" x="1376.375"/>
        <use xlink:href="#DejaVuSans-65" x="1404.158203"/>
        <use xlink:href="#DejaVuSans-2e" x="1465.681641"/>
        <use xlink:href="#DejaVuSans-79" x="1497.46875"/>
        <use xlink:href="#DejaVuSans-61" x="1556.648438"/>
        <use xlink:href="#DejaVuSans-6d" x="1617.927734"/>
        <use xlink:href="#DejaVuSans-6c" x="1715.339844"/>
       </g>
      </g>
     </g>
    </g>
    <defs>
     <clipPath id="p99dc24e16e">
      <rect x="53.328125" y="22.318125" width="546.671875" height="295.602187"/>
     </clipPath>
    </defs>
   </g>
  </g>
 </g>
</svg>