<?xml version="1.0" encoding="utf-8" standalone="no"?>
<!DOCTYPE svg PUBLIC "-//W3C//DTD SVG 1.1//EN"
  "http://www.w3.org/Graphics/SVG/1.1/DTD/svg11.dtd">
<svg xmlns:xlink="http://www.w3.org/1999/xlink" width="607.2pt" height="338.4pt" viewBox="0 0 607.2 338.4" xmlns="http://www.w3.org/2000/svg" version="1.1">
 <metadata>
  <rdf:RDF xmlns:dc="http://purl.org/dc/elements/1.1/" xmlns:cc="http://creativecommons.org/ns#" xmlns:rdf="http://www.w3.org/1999/02/22-rdf-syntax-ns#">
   <cc:Work>
    <dc:type rdf:resource="http://purl.org/dc/dcmitype/StillImage"/>
    <dc:date>2023-06-26T09:15:55.924772</dc:date>
    <dc:format>image/svg+xml</dc:format>
    <dc:creator>
     <cc:Agent>
      <dc:title>Matplotlib v3.7.1, https://matplotlib.org/</dc:title>
     </cc:Agent>
    </dc:creator>
   </cc:Work>
  </rdf:RDF>
 </metadata>
 <defs>
  <style type="text/css">*{stroke-linejoin: round; stroke-linecap: butt}</style>
 </defs>
 <g id="figure_1">
  <g id="patch_1">
   <path d="M 0 338.4 
L 607.2 338.4 
L 607.2 0 
L 0 0 
z
" style="fill: #ffffff"/>
  </g>
  <g id="axes_1">
   <g id="patch_2">
    <path d="M 46.965625 318.021875 
L 600 318.021875 
L 600 22.318125 
L 46.965625 22.318125 
z
" style="fill: #ffffff"/>
   </g>
   <path d="M 200.299442 192.261481 
L 201.299442 192.292917 
L 202.299442 192.329858 
L 203.299442 192.427604 
L 204.299442 192.460126 
L 205.299442 192.533751 
L 206.299442 192.572316 
L 207.299442 192.607729 
L 208.299442 192.665369 
L 209.299442 192.735756 
L 210.299442 192.78772 
L 211.299442 192.846809 
L 212.299442 192.93513 
L 213.299442 192.981275 
L 214.299442 193.023686 
L 215.299442 193.054178 
L 216.299442 193.080223 
L 217.299442 193.101423 
L 218.299442 193.155725 
L 219.299442 193.183662 
L 220.299442 193.213386 
L 221.299442 193.238781 
L 222.299442 193.249981 
L 223.299442 193.260105 
L 224.299442 193.259901 
L 225.299442 193.250391 
L 226.299442 193.238737 
L 227.299442 193.207708 
L 228.299442 193.19654 
L 229.299442 193.166423 
L 230.299442 193.106646 
L 231.299442 193.069454 
L 232.299442 193.030358 
L 233.299442 192.987918 
L 234.299442 192.955153 
L 235.299442 192.887727 
L 236.299442 192.848601 
L 237.299442 192.805926 
L 238.299442 192.735346 
L 239.299442 192.698955 
L 240.299442 192.640552 
L 241.299442 192.529599 
L 242.299442 192.458941 
L 243.299442 192.346001 
L 244.299442 192.300228 
L 245.299442 192.238945 
L 246.299442 192.190446 
L 247.299442 192.109623 
L 248.299442 191.991104 
L 249.299442 191.920893 
L 250.299442 191.837631 
L 251.299442 191.804489 
L 252.299442 191.753252 
L 253.299442 191.684854 
L 254.299442 191.618638 
L 255.299442 191.541721 
L 256.619695 191.514406 
" clip-path="url(#p2c4840e19c)" style="fill: none; stroke: #1f77b4; stroke-opacity: 0.5; stroke-width: 0.2; stroke-linecap: square"/>
   <path d="M 200.299442 287.530956 
L 201.299442 287.562393 
L 202.299442 287.599333 
L 203.299442 287.69708 
L 204.299442 287.729601 
L 205.299442 287.803226 
L 206.299442 287.841792 
L 207.299442 287.877205 
L 208.299442 287.934845 
L 209.299442 288.005231 
L 210.299442 288.057195 
L 211.299442 288.116285 
L 212.299442 288.204606 
L 213.299442 288.25075 
L 214.299442 288.293161 
L 215.299442 288.323654 
L 216.299442 288.349699 
L 217.299442 288.370899 
L 218.299442 288.4252 
L 219.299442 288.453137 
L 220.299442 288.482861 
L 221.299442 288.508256 
L 222.299442 288.519457 
L 223.299442 288.529581 
L 224.299442 288.529376 
L 225.299442 288.519866 
L 226.299442 288.508213 
L 227.299442 288.477184 
L 228.299442 288.466016 
L 229.299442 288.435898 
L 230.299442 288.376121 
L 231.299442 288.33893 
L 232.299442 288.299833 
L 233.299442 288.257394 
L 234.299442 288.224629 
L 235.299442 288.157202 
L 236.299442 288.118076 
L 237.299442 288.075402 
L 238.299442 288.004821 
L 239.299442 287.96843 
L 240.299442 287.910027 
L 241.299442 287.799075 
L 242.299442 287.728416 
L 243.299442 287.615476 
L 244.299442 287.569704 
L 245.299442 287.50842 
L 246.299442 287.459921 
L 247.299442 287.379098 
L 248.299442 287.260579 
L 249.299442 287.190369 
L 250.299442 287.107106 
L 251.299442 287.073965 
L 252.299442 287.022727 
L 253.299442 286.954329 
L 254.299442 286.888113 
L 255.299442 286.811196 
L 256.619695 286.783881 
" clip-path="url(#p2c4840e19c)" style="fill: none; stroke: #1f77b4; stroke-opacity: 0.5; stroke-width: 0.2; stroke-linecap: square"/>
   <path d="M 200.299442 90.64512 
L 201.299442 90.676556 
L 202.299442 90.713497 
L 203.299442 90.811243 
L 204.299442 90.843765 
L 205.299442 90.917389 
L 206.299442 90.955955 
L 207.299442 90.991368 
L 208.299442 91.049008 
L 209.299442 91.119394 
L 210.299442 91.171358 
L 211.299442 91.230448 
L 212.299442 91.318769 
L 213.299442 91.364913 
L 214.299442 91.407324 
L 215.299442 91.437817 
L 216.299442 91.463862 
L 217.299442 91.485062 
L 218.299442 91.539363 
L 219.299442 91.567301 
L 220.299442 91.597025 
L 221.299442 91.62242 
L 222.299442 91.63362 
L 223.299442 91.643744 
L 224.299442 91.64354 
L 225.299442 91.63403 
L 226.299442 91.622376 
L 227.299442 91.591347 
L 228.299442 91.580179 
L 229.299442 91.550061 
L 230.299442 91.490285 
L 231.299442 91.453093 
L 232.299442 91.413997 
L 233.299442 91.371557 
L 234.299442 91.338792 
L 235.299442 91.271366 
L 236.299442 91.23224 
L 237.299442 91.189565 
L 238.299442 91.118985 
L 239.299442 91.082594 
L 240.299442 91.024191 
L 241.299442 90.913238 
L 242.299442 90.84258 
L 243.299442 90.72964 
L 244.299442 90.683867 
L 245.299442 90.622584 
L 246.299442 90.574084 
L 247.299442 90.493262 
L 248.299442 90.374743 
L 249.299442 90.304532 
L 250.299442 90.22127 
L 251.299442 90.188128 
L 252.299442 90.136891 
L 253.299442 90.068492 
L 254.299442 90.002277 
L 255.299442 89.92536 
L 256.619695 89.898044 
" clip-path="url(#p2c4840e19c)" style="fill: none; stroke: #1f77b4; stroke-opacity: 0.5; stroke-width: 0.2; stroke-linecap: square"/>
   <path d="M 200.299442 296.373141 
L 201.299442 296.404578 
L 202.299442 296.441518 
L 203.299442 296.539264 
L 204.299442 296.571786 
L 205.299442 296.645411 
L 206.299442 296.683976 
L 207.299442 296.71939 
L 208.299442 296.777029 
L 209.299442 296.847416 
L 210.299442 296.89938 
L 211.299442 296.95847 
L 212.299442 297.046791 
L 213.299442 297.092935 
L 214.299442 297.135346 
L 215.299442 297.165838 
L 216.299442 297.191883 
L 217.299442 297.213084 
L 218.299442 297.267385 
L 219.299442 297.295322 
L 220.299442 297.325046 
L 221.299442 297.350441 
L 222.299442 297.361641 
L 223.299442 297.371765 
L 224.299442 297.371561 
L 225.299442 297.362051 
L 226.299442 297.350398 
L 227.299442 297.319368 
L 228.299442 297.3082 
L 229.299442 297.278083 
L 230.299442 297.218306 
L 231.299442 297.181114 
L 232.299442 297.142018 
L 233.299442 297.099579 
L 234.299442 297.066814 
L 235.299442 296.999387 
L 236.299442 296.960261 
L 237.299442 296.917587 
L 238.299442 296.847006 
L 239.299442 296.810615 
L 240.299442 296.752212 
L 241.299442 296.641259 
L 242.299442 296.570601 
L 243.299442 296.457661 
L 244.299442 296.411888 
L 245.299442 296.350605 
L 246.299442 296.302106 
L 247.299442 296.221283 
L 248.299442 296.102764 
L 249.299442 296.032554 
L 250.299442 295.949291 
L 251.299442 295.916149 
L 252.299442 295.864912 
L 253.299442 295.796514 
L 254.299442 295.730298 
L 255.299442 295.653381 
L 256.619695 295.626066 
" clip-path="url(#p2c4840e19c)" style="fill: none; stroke: #1f77b4; stroke-opacity: 0.5; stroke-width: 0.2; stroke-linecap: square"/>
   <path d="M 200.299442 107.325198 
L 201.299442 107.356635 
L 202.299442 107.393575 
L 203.299442 107.491322 
L 204.299442 107.523843 
L 205.299442 107.597468 
L 206.299442 107.636034 
L 207.299442 107.671447 
L 208.299442 107.729087 
L 209.299442 107.799473 
L 210.299442 107.851437 
L 211.299442 107.910527 
L 212.299442 107.998848 
L 213.299442 108.044992 
L 214.299442 108.087403 
L 215.299442 108.117896 
L 216.299442 108.143941 
L 217.299442 108.165141 
L 218.299442 108.219442 
L 219.299442 108.247379 
L 220.299442 108.277103 
L 221.299442 108.302498 
L 222.299442 108.313699 
L 223.299442 108.323823 
L 224.299442 108.323618 
L 225.299442 108.314108 
L 226.299442 108.302455 
L 227.299442 108.271426 
L 228.299442 108.260258 
L 229.299442 108.23014 
L 230.299442 108.170363 
L 231.299442 108.133172 
L 232.299442 108.094076 
L 233.299442 108.051636 
L 234.299442 108.018871 
L 235.299442 107.951444 
L 236.299442 107.912318 
L 237.299442 107.869644 
L 238.299442 107.799063 
L 239.299442 107.762672 
L 240.299442 107.704269 
L 241.299442 107.593317 
L 242.299442 107.522658 
L 243.299442 107.409718 
L 244.299442 107.363946 
L 245.299442 107.302662 
L 246.299442 107.254163 
L 247.299442 107.17334 
L 248.299442 107.054821 
L 249.299442 106.984611 
L 250.299442 106.901348 
L 251.299442 106.868207 
L 252.299442 106.816969 
L 253.299442 106.748571 
L 254.299442 106.682355 
L 255.299442 106.605438 
L 256.619695 106.578123 
" clip-path="url(#p2c4840e19c)" style="fill: none; stroke: #1f77b4; stroke-opacity: 0.5; stroke-width: 0.2; stroke-linecap: square"/>
   <path d="M 200.299442 109.463107 
L 201.299442 109.494543 
L 202.299442 109.531483 
L 203.299442 109.62923 
L 204.299442 109.661752 
L 205.299442 109.735376 
L 206.299442 109.773942 
L 207.299442 109.809355 
L 208.299442 109.866995 
L 209.299442 109.937381 
L 210.299442 109.989345 
L 211.299442 110.048435 
L 212.299442 110.136756 
L 213.299442 110.1829 
L 214.299442 110.225311 
L 215.299442 110.255804 
L 216.299442 110.281849 
L 217.299442 110.303049 
L 218.299442 110.35735 
L 219.299442 110.385288 
L 220.299442 110.415012 
L 221.299442 110.440406 
L 222.299442 110.451607 
L 223.299442 110.461731 
L 224.299442 110.461526 
L 225.299442 110.452017 
L 226.299442 110.440363 
L 227.299442 110.409334 
L 228.299442 110.398166 
L 229.299442 110.368048 
L 230.299442 110.308271 
L 231.299442 110.27108 
L 232.299442 110.231984 
L 233.299442 110.189544 
L 234.299442 110.156779 
L 235.299442 110.089353 
L 236.299442 110.050227 
L 237.299442 110.007552 
L 238.299442 109.936971 
L 239.299442 109.900581 
L 240.299442 109.842177 
L 241.299442 109.731225 
L 242.299442 109.660567 
L 243.299442 109.547627 
L 244.299442 109.501854 
L 245.299442 109.440571 
L 246.299442 109.392071 
L 247.299442 109.311249 
L 248.299442 109.19273 
L 249.299442 109.122519 
L 250.299442 109.039257 
L 251.299442 109.006115 
L 252.299442 108.954877 
L 253.299442 108.886479 
L 254.299442 108.820264 
L 255.299442 108.743347 
L 256.619695 108.716031 
" clip-path="url(#p2c4840e19c)" style="fill: none; stroke: #1f77b4; stroke-opacity: 0.5; stroke-width: 0.2; stroke-linecap: square"/>
   <path d="M 200.299442 165.177026 
L 201.299442 165.208462 
L 202.299442 165.245403 
L 203.299442 165.343149 
L 204.299442 165.375671 
L 205.299442 165.449295 
L 206.299442 165.487861 
L 207.299442 165.523274 
L 208.299442 165.580914 
L 209.299442 165.6513 
L 210.299442 165.703264 
L 211.299442 165.762354 
L 212.299442 165.850675 
L 213.299442 165.896819 
L 214.299442 165.93923 
L 215.299442 165.969723 
L 216.299442 165.995768 
L 217.299442 166.016968 
L 218.299442 166.071269 
L 219.299442 166.099207 
L 220.299442 166.128931 
L 221.299442 166.154326 
L 222.299442 166.165526 
L 223.299442 166.17565 
L 224.299442 166.175446 
L 225.299442 166.165936 
L 226.299442 166.154282 
L 227.299442 166.123253 
L 228.299442 166.112085 
L 229.299442 166.081967 
L 230.299442 166.02219 
L 231.299442 165.984999 
L 232.299442 165.945903 
L 233.299442 165.903463 
L 234.299442 165.870698 
L 235.299442 165.803272 
L 236.299442 165.764146 
L 237.299442 165.721471 
L 238.299442 165.650891 
L 239.299442 165.6145 
L 240.299442 165.556097 
L 241.299442 165.445144 
L 242.299442 165.374486 
L 243.299442 165.261546 
L 244.299442 165.215773 
L 245.299442 165.15449 
L 246.299442 165.10599 
L 247.299442 165.025168 
L 248.299442 164.906649 
L 249.299442 164.836438 
L 250.299442 164.753176 
L 251.299442 164.720034 
L 252.299442 164.668797 
L 253.299442 164.600398 
L 254.299442 164.534183 
L 255.299442 164.457266 
L 256.619695 164.42995 
" clip-path="url(#p2c4840e19c)" style="fill: none; stroke: #1f77b4; stroke-opacity: 0.5; stroke-width: 0.2; stroke-linecap: square"/>
   <path d="M 200.299442 25.560933 
L 201.299442 25.592369 
L 202.299442 25.62931 
L 203.299442 25.727056 
L 204.299442 25.759578 
L 205.299442 25.833203 
L 206.299442 25.871768 
L 207.299442 25.907181 
L 208.299442 25.964821 
L 209.299442 26.035207 
L 210.299442 26.087172 
L 211.299442 26.146261 
L 212.299442 26.234582 
L 213.299442 26.280727 
L 214.299442 26.323138 
L 215.299442 26.35363 
L 216.299442 26.379675 
L 217.299442 26.400875 
L 218.299442 26.455176 
L 219.299442 26.483114 
L 220.299442 26.512838 
L 221.299442 26.538233 
L 222.299442 26.549433 
L 223.299442 26.559557 
L 224.299442 26.559353 
L 225.299442 26.549843 
L 226.299442 26.538189 
L 227.299442 26.50716 
L 228.299442 26.495992 
L 229.299442 26.465875 
L 230.299442 26.406098 
L 231.299442 26.368906 
L 232.299442 26.32981 
L 233.299442 26.28737 
L 234.299442 26.254605 
L 235.299442 26.187179 
L 236.299442 26.148053 
L 237.299442 26.105378 
L 238.299442 26.034798 
L 239.299442 25.998407 
L 240.299442 25.940004 
L 241.299442 25.829051 
L 242.299442 25.758393 
L 243.299442 25.645453 
L 244.299442 25.59968 
L 245.299442 25.538397 
L 246.299442 25.489898 
L 247.299442 25.409075 
L 248.299442 25.290556 
L 249.299442 25.220345 
L 250.299442 25.137083 
L 251.299442 25.103941 
L 252.299442 25.052704 
L 253.299442 24.984305 
L 254.299442 24.91809 
L 255.299442 24.841173 
L 256.619695 24.813857 
" clip-path="url(#p2c4840e19c)" style="fill: none; stroke: #1f77b4; stroke-opacity: 0.5; stroke-width: 0.2; stroke-linecap: square"/>
   <path d="M 200.299442 185.965045 
L 201.299442 185.996481 
L 202.299442 186.033422 
L 203.299442 186.131168 
L 204.299442 186.16369 
L 205.299442 186.237314 
L 206.299442 186.27588 
L 207.299442 186.311293 
L 208.299442 186.368933 
L 209.299442 186.439319 
L 210.299442 186.491283 
L 211.299442 186.550373 
L 212.299442 186.638694 
L 213.299442 186.684838 
L 214.299442 186.727249 
L 215.299442 186.757742 
L 216.299442 186.783787 
L 217.299442 186.804987 
L 218.299442 186.859288 
L 219.299442 186.887226 
L 220.299442 186.91695 
L 221.299442 186.942345 
L 222.299442 186.953545 
L 223.299442 186.963669 
L 224.299442 186.963465 
L 225.299442 186.953955 
L 226.299442 186.942301 
L 227.299442 186.911272 
L 228.299442 186.900104 
L 229.299442 186.869986 
L 230.299442 186.81021 
L 231.299442 186.773018 
L 232.299442 186.733922 
L 233.299442 186.691482 
L 234.299442 186.658717 
L 235.299442 186.591291 
L 236.299442 186.552165 
L 237.299442 186.50949 
L 238.299442 186.43891 
L 239.299442 186.402519 
L 240.299442 186.344116 
L 241.299442 186.233163 
L 242.299442 186.162505 
L 243.299442 186.049565 
L 244.299442 186.003792 
L 245.299442 185.942509 
L 246.299442 185.894009 
L 247.299442 185.813187 
L 248.299442 185.694668 
L 249.299442 185.624457 
L 250.299442 185.541195 
L 251.299442 185.508053 
L 252.299442 185.456816 
L 253.299442 185.388417 
L 254.299442 185.322202 
L 255.299442 185.245285 
L 256.619695 185.217969 
" clip-path="url(#p2c4840e19c)" style="fill: none; stroke: #1f77b4; stroke-opacity: 0.5; stroke-width: 0.2; stroke-linecap: square"/>
   <path d="M 200.299442 179.191892 
L 201.299442 179.223328 
L 202.299442 179.260269 
L 203.299442 179.358015 
L 204.299442 179.390537 
L 205.299442 179.464161 
L 206.299442 179.502727 
L 207.299442 179.53814 
L 208.299442 179.59578 
L 209.299442 179.666166 
L 210.299442 179.71813 
L 211.299442 179.77722 
L 212.299442 179.865541 
L 213.299442 179.911685 
L 214.299442 179.954096 
L 215.299442 179.984589 
L 216.299442 180.010634 
L 217.299442 180.031834 
L 218.299442 180.086135 
L 219.299442 180.114073 
L 220.299442 180.143797 
L 221.299442 180.169192 
L 222.299442 180.180392 
L 223.299442 180.190516 
L 224.299442 180.190312 
L 225.299442 180.180802 
L 226.299442 180.169148 
L 227.299442 180.138119 
L 228.299442 180.126951 
L 229.299442 180.096833 
L 230.299442 180.037057 
L 231.299442 179.999865 
L 232.299442 179.960769 
L 233.299442 179.918329 
L 234.299442 179.885564 
L 235.299442 179.818138 
L 236.299442 179.779012 
L 237.299442 179.736337 
L 238.299442 179.665757 
L 239.299442 179.629366 
L 240.299442 179.570963 
L 241.299442 179.46001 
L 242.299442 179.389352 
L 243.299442 179.276412 
L 244.299442 179.230639 
L 245.299442 179.169356 
L 246.299442 179.120856 
L 247.299442 179.040034 
L 248.299442 178.921515 
L 249.299442 178.851304 
L 250.299442 178.768042 
L 251.299442 178.7349 
L 252.299442 178.683663 
L 253.299442 178.615264 
L 254.299442 178.549049 
L 255.299442 178.472132 
L 256.619695 178.444816 
" clip-path="url(#p2c4840e19c)" style="fill: none; stroke: #1f77b4; stroke-opacity: 0.5; stroke-width: 0.2; stroke-linecap: square"/>
   <path d="M 256.619695 106.57584 
L 255.619695 106.544403 
L 254.619695 106.507463 
L 253.619695 106.409717 
L 252.619695 106.377195 
L 251.619695 106.30357 
L 250.619695 106.265005 
L 249.619695 106.229591 
L 248.619695 106.171952 
L 247.619695 106.101565 
L 246.619695 106.049601 
L 245.619695 105.990511 
L 244.619695 105.90219 
L 243.619695 105.856046 
L 242.619695 105.813635 
L 241.619695 105.783143 
L 240.619695 105.757098 
L 239.619695 105.735897 
L 238.619695 105.681596 
L 237.619695 105.653659 
L 236.619695 105.623935 
L 235.619695 105.59854 
L 234.619695 105.58734 
L 233.619695 105.577216 
L 232.619695 105.57742 
L 231.619695 105.58693 
L 230.619695 105.598583 
L 229.619695 105.629613 
L 228.619695 105.640781 
L 227.619695 105.670898 
L 226.619695 105.730675 
L 225.619695 105.767867 
L 224.619695 105.806963 
L 223.619695 105.849402 
L 222.619695 105.882167 
L 221.619695 105.949594 
L 220.619695 105.98872 
L 219.619695 106.031394 
L 218.619695 106.101975 
L 217.619695 106.138366 
L 216.619695 106.196769 
L 215.619695 106.307722 
L 214.619695 106.37838 
L 213.619695 106.49132 
L 212.619695 106.537093 
L 211.619695 106.598376 
L 210.619695 106.646875 
L 209.619695 106.727698 
L 208.619695 106.846217 
L 207.619695 106.916427 
L 206.619695 106.99969 
L 205.619695 107.032832 
L 204.619695 107.084069 
L 203.619695 107.152467 
L 202.619695 107.218683 
L 201.619695 107.2956 
L 200.299442 107.322915 
" clip-path="url(#p2c4840e19c)" style="fill: none; stroke: #ff7f0e; stroke-opacity: 0.5; stroke-width: 0.2; stroke-linecap: square"/>
   <path d="M 256.619695 213.479548 
L 255.619695 213.448112 
L 254.619695 213.411171 
L 253.619695 213.313425 
L 252.619695 213.280903 
L 251.619695 213.207279 
L 250.619695 213.168713 
L 249.619695 213.1333 
L 248.619695 213.07566 
L 247.619695 213.005274 
L 246.619695 212.95331 
L 245.619695 212.89422 
L 244.619695 212.805899 
L 243.619695 212.759755 
L 242.619695 212.717344 
L 241.619695 212.686851 
L 240.619695 212.660806 
L 239.619695 212.639606 
L 238.619695 212.585305 
L 237.619695 212.557367 
L 236.619695 212.527643 
L 235.619695 212.502248 
L 234.619695 212.491048 
L 233.619695 212.480924 
L 232.619695 212.481128 
L 231.619695 212.490638 
L 230.619695 212.502292 
L 229.619695 212.533321 
L 228.619695 212.544489 
L 227.619695 212.574607 
L 226.619695 212.634384 
L 225.619695 212.671575 
L 224.619695 212.710671 
L 223.619695 212.753111 
L 222.619695 212.785876 
L 221.619695 212.853302 
L 220.619695 212.892428 
L 219.619695 212.935103 
L 218.619695 213.005683 
L 217.619695 213.042074 
L 216.619695 213.100477 
L 215.619695 213.21143 
L 214.619695 213.282088 
L 213.619695 213.395028 
L 212.619695 213.440801 
L 211.619695 213.502084 
L 210.619695 213.550584 
L 209.619695 213.631406 
L 208.619695 213.749925 
L 207.619695 213.820136 
L 206.619695 213.903398 
L 205.619695 213.93654 
L 204.619695 213.987777 
L 203.619695 214.056176 
L 202.619695 214.122391 
L 201.619695 214.199308 
L 200.299442 214.226624 
" clip-path="url(#p2c4840e19c)" style="fill: none; stroke: #ff7f0e; stroke-opacity: 0.5; stroke-width: 0.2; stroke-linecap: square"/>
   <path d="M 256.619695 214.520393 
L 255.619695 214.488956 
L 254.619695 214.452016 
L 253.619695 214.354269 
L 252.619695 214.321748 
L 251.619695 214.248123 
L 250.619695 214.209557 
L 249.619695 214.174144 
L 248.619695 214.116504 
L 247.619695 214.046118 
L 246.619695 213.994154 
L 245.619695 213.935064 
L 244.619695 213.846743 
L 243.619695 213.800599 
L 242.619695 213.758188 
L 241.619695 213.727695 
L 240.619695 213.70165 
L 239.619695 213.68045 
L 238.619695 213.626149 
L 237.619695 213.598212 
L 236.619695 213.568488 
L 235.619695 213.543093 
L 234.619695 213.531892 
L 233.619695 213.521768 
L 232.619695 213.521973 
L 231.619695 213.531483 
L 230.619695 213.543136 
L 229.619695 213.574166 
L 228.619695 213.585333 
L 227.619695 213.615451 
L 226.619695 213.675228 
L 225.619695 213.712419 
L 224.619695 213.751516 
L 223.619695 213.793955 
L 222.619695 213.82672 
L 221.619695 213.894147 
L 220.619695 213.933273 
L 219.619695 213.975947 
L 218.619695 214.046528 
L 217.619695 214.082919 
L 216.619695 214.141322 
L 215.619695 214.252274 
L 214.619695 214.322933 
L 213.619695 214.435873 
L 212.619695 214.481645 
L 211.619695 214.542929 
L 210.619695 214.591428 
L 209.619695 214.672251 
L 208.619695 214.79077 
L 207.619695 214.86098 
L 206.619695 214.944243 
L 205.619695 214.977384 
L 204.619695 215.028622 
L 203.619695 215.09702 
L 202.619695 215.163236 
L 201.619695 215.240153 
L 200.299442 215.267468 
" clip-path="url(#p2c4840e19c)" style="fill: none; stroke: #ff7f0e; stroke-opacity: 0.5; stroke-width: 0.2; stroke-linecap: square"/>
   <path d="M 256.619695 314.243417 
L 255.619695 314.21198 
L 254.619695 314.17504 
L 253.619695 314.077293 
L 252.619695 314.044772 
L 251.619695 313.971147 
L 250.619695 313.932581 
L 249.619695 313.897168 
L 248.619695 313.839528 
L 247.619695 313.769142 
L 246.619695 313.717178 
L 245.619695 313.658088 
L 244.619695 313.569767 
L 243.619695 313.523623 
L 242.619695 313.481212 
L 241.619695 313.450719 
L 240.619695 313.424674 
L 239.619695 313.403474 
L 238.619695 313.349173 
L 237.619695 313.321236 
L 236.619695 313.291512 
L 235.619695 313.266117 
L 234.619695 313.254916 
L 233.619695 313.244792 
L 232.619695 313.244997 
L 231.619695 313.254507 
L 230.619695 313.26616 
L 229.619695 313.297189 
L 228.619695 313.308357 
L 227.619695 313.338475 
L 226.619695 313.398252 
L 225.619695 313.435443 
L 224.619695 313.474539 
L 223.619695 313.516979 
L 222.619695 313.549744 
L 221.619695 313.617171 
L 220.619695 313.656297 
L 219.619695 313.698971 
L 218.619695 313.769552 
L 217.619695 313.805943 
L 216.619695 313.864346 
L 215.619695 313.975298 
L 214.619695 314.045957 
L 213.619695 314.158897 
L 212.619695 314.204669 
L 211.619695 314.265953 
L 210.619695 314.314452 
L 209.619695 314.395275 
L 208.619695 314.513794 
L 207.619695 314.584004 
L 206.619695 314.667267 
L 205.619695 314.700408 
L 204.619695 314.751646 
L 203.619695 314.820044 
L 202.619695 314.88626 
L 201.619695 314.963177 
L 200.299442 314.990492 
" clip-path="url(#p2c4840e19c)" style="fill: none; stroke: #ff7f0e; stroke-opacity: 0.5; stroke-width: 0.2; stroke-linecap: square"/>
   <path d="M 256.619695 178.184228 
L 255.619695 178.152792 
L 254.619695 178.115851 
L 253.619695 178.018105 
L 252.619695 177.985583 
L 251.619695 177.911958 
L 250.619695 177.873393 
L 249.619695 177.83798 
L 248.619695 177.78034 
L 247.619695 177.709954 
L 246.619695 177.657989 
L 245.619695 177.5989 
L 244.619695 177.510579 
L 243.619695 177.464434 
L 242.619695 177.422023 
L 241.619695 177.391531 
L 240.619695 177.365486 
L 239.619695 177.344286 
L 238.619695 177.289985 
L 237.619695 177.262047 
L 236.619695 177.232323 
L 235.619695 177.206928 
L 234.619695 177.195728 
L 233.619695 177.185604 
L 232.619695 177.185808 
L 231.619695 177.195318 
L 230.619695 177.206972 
L 229.619695 177.238001 
L 228.619695 177.249169 
L 227.619695 177.279286 
L 226.619695 177.339063 
L 225.619695 177.376255 
L 224.619695 177.415351 
L 223.619695 177.457791 
L 222.619695 177.490556 
L 221.619695 177.557982 
L 220.619695 177.597108 
L 219.619695 177.639783 
L 218.619695 177.710363 
L 217.619695 177.746754 
L 216.619695 177.805157 
L 215.619695 177.91611 
L 214.619695 177.986768 
L 213.619695 178.099708 
L 212.619695 178.145481 
L 211.619695 178.206764 
L 210.619695 178.255263 
L 209.619695 178.336086 
L 208.619695 178.454605 
L 207.619695 178.524816 
L 206.619695 178.608078 
L 205.619695 178.64122 
L 204.619695 178.692457 
L 203.619695 178.760856 
L 202.619695 178.827071 
L 201.619695 178.903988 
L 200.299442 178.931304 
" clip-path="url(#p2c4840e19c)" style="fill: none; stroke: #ff7f0e; stroke-opacity: 0.5; stroke-width: 0.2; stroke-linecap: square"/>
   <path d="M 256.619695 40.663845 
L 255.619695 40.632409 
L 254.619695 40.595469 
L 253.619695 40.497722 
L 252.619695 40.4652 
L 251.619695 40.391576 
L 250.619695 40.35301 
L 249.619695 40.317597 
L 248.619695 40.259957 
L 247.619695 40.189571 
L 246.619695 40.137607 
L 245.619695 40.078517 
L 244.619695 39.990196 
L 243.619695 39.944052 
L 242.619695 39.901641 
L 241.619695 39.871148 
L 240.619695 39.845103 
L 239.619695 39.823903 
L 238.619695 39.769602 
L 237.619695 39.741664 
L 236.619695 39.71194 
L 235.619695 39.686546 
L 234.619695 39.675345 
L 233.619695 39.665221 
L 232.619695 39.665426 
L 231.619695 39.674935 
L 230.619695 39.686589 
L 229.619695 39.717618 
L 228.619695 39.728786 
L 227.619695 39.758904 
L 226.619695 39.818681 
L 225.619695 39.855872 
L 224.619695 39.894968 
L 223.619695 39.937408 
L 222.619695 39.970173 
L 221.619695 40.037599 
L 220.619695 40.076725 
L 219.619695 40.1194 
L 218.619695 40.189981 
L 217.619695 40.226371 
L 216.619695 40.284775 
L 215.619695 40.395727 
L 214.619695 40.466385 
L 213.619695 40.579325 
L 212.619695 40.625098 
L 211.619695 40.686381 
L 210.619695 40.734881 
L 209.619695 40.815703 
L 208.619695 40.934222 
L 207.619695 41.004433 
L 206.619695 41.087695 
L 205.619695 41.120837 
L 204.619695 41.172075 
L 203.619695 41.240473 
L 202.619695 41.306688 
L 201.619695 41.383605 
L 200.299442 41.410921 
" clip-path="url(#p2c4840e19c)" style="fill: none; stroke: #ff7f0e; stroke-opacity: 0.5; stroke-width: 0.2; stroke-linecap: square"/>
   <path d="M 256.619695 200.498416 
L 255.619695 200.46698 
L 254.619695 200.43004 
L 253.619695 200.332293 
L 252.619695 200.299772 
L 251.619695 200.226147 
L 250.619695 200.187581 
L 249.619695 200.152168 
L 248.619695 200.094528 
L 247.619695 200.024142 
L 246.619695 199.972178 
L 245.619695 199.913088 
L 244.619695 199.824767 
L 243.619695 199.778623 
L 242.619695 199.736212 
L 241.619695 199.705719 
L 240.619695 199.679674 
L 239.619695 199.658474 
L 238.619695 199.604173 
L 237.619695 199.576235 
L 236.619695 199.546511 
L 235.619695 199.521117 
L 234.619695 199.509916 
L 233.619695 199.499792 
L 232.619695 199.499997 
L 231.619695 199.509507 
L 230.619695 199.52116 
L 229.619695 199.552189 
L 228.619695 199.563357 
L 227.619695 199.593475 
L 226.619695 199.653252 
L 225.619695 199.690443 
L 224.619695 199.729539 
L 223.619695 199.771979 
L 222.619695 199.804744 
L 221.619695 199.872171 
L 220.619695 199.911297 
L 219.619695 199.953971 
L 218.619695 200.024552 
L 217.619695 200.060943 
L 216.619695 200.119346 
L 215.619695 200.230298 
L 214.619695 200.300957 
L 213.619695 200.413896 
L 212.619695 200.459669 
L 211.619695 200.520953 
L 210.619695 200.569452 
L 209.619695 200.650275 
L 208.619695 200.768793 
L 207.619695 200.839004 
L 206.619695 200.922267 
L 205.619695 200.955408 
L 204.619695 201.006646 
L 203.619695 201.075044 
L 202.619695 201.141259 
L 201.619695 201.218177 
L 200.299442 201.245492 
" clip-path="url(#p2c4840e19c)" style="fill: none; stroke: #ff7f0e; stroke-opacity: 0.5; stroke-width: 0.2; stroke-linecap: square"/>
   <path d="M 256.619695 158.741936 
L 255.619695 158.7105 
L 254.619695 158.673559 
L 253.619695 158.575813 
L 252.619695 158.543291 
L 251.619695 158.469667 
L 250.619695 158.431101 
L 249.619695 158.395688 
L 248.619695 158.338048 
L 247.619695 158.267662 
L 246.619695 158.215698 
L 245.619695 158.156608 
L 244.619695 158.068287 
L 243.619695 158.022143 
L 242.619695 157.979732 
L 241.619695 157.949239 
L 240.619695 157.923194 
L 239.619695 157.901994 
L 238.619695 157.847693 
L 237.619695 157.819755 
L 236.619695 157.790031 
L 235.619695 157.764636 
L 234.619695 157.753436 
L 233.619695 157.743312 
L 232.619695 157.743516 
L 231.619695 157.753026 
L 230.619695 157.76468 
L 229.619695 157.795709 
L 228.619695 157.806877 
L 227.619695 157.836995 
L 226.619695 157.896772 
L 225.619695 157.933963 
L 224.619695 157.973059 
L 223.619695 158.015499 
L 222.619695 158.048264 
L 221.619695 158.11569 
L 220.619695 158.154816 
L 219.619695 158.197491 
L 218.619695 158.268071 
L 217.619695 158.304462 
L 216.619695 158.362865 
L 215.619695 158.473818 
L 214.619695 158.544476 
L 213.619695 158.657416 
L 212.619695 158.703189 
L 211.619695 158.764472 
L 210.619695 158.812972 
L 209.619695 158.893794 
L 208.619695 159.012313 
L 207.619695 159.082524 
L 206.619695 159.165786 
L 205.619695 159.198928 
L 204.619695 159.250165 
L 203.619695 159.318564 
L 202.619695 159.384779 
L 201.619695 159.461696 
L 200.299442 159.489012 
" clip-path="url(#p2c4840e19c)" style="fill: none; stroke: #ff7f0e; stroke-opacity: 0.5; stroke-width: 0.2; stroke-linecap: square"/>
   <path d="M 256.619695 64.788385 
L 255.619695 64.756949 
L 254.619695 64.720008 
L 253.619695 64.622262 
L 252.619695 64.58974 
L 251.619695 64.516115 
L 250.619695 64.47755 
L 249.619695 64.442137 
L 248.619695 64.384497 
L 247.619695 64.314111 
L 246.619695 64.262146 
L 245.619695 64.203057 
L 244.619695 64.114736 
L 243.619695 64.068591 
L 242.619695 64.02618 
L 241.619695 63.995688 
L 240.619695 63.969643 
L 239.619695 63.948443 
L 238.619695 63.894142 
L 237.619695 63.866204 
L 236.619695 63.83648 
L 235.619695 63.811085 
L 234.619695 63.799885 
L 233.619695 63.789761 
L 232.619695 63.789965 
L 231.619695 63.799475 
L 230.619695 63.811129 
L 229.619695 63.842158 
L 228.619695 63.853326 
L 227.619695 63.883443 
L 226.619695 63.94322 
L 225.619695 63.980412 
L 224.619695 64.019508 
L 223.619695 64.061948 
L 222.619695 64.094713 
L 221.619695 64.162139 
L 220.619695 64.201265 
L 219.619695 64.24394 
L 218.619695 64.31452 
L 217.619695 64.350911 
L 216.619695 64.409314 
L 215.619695 64.520267 
L 214.619695 64.590925 
L 213.619695 64.703865 
L 212.619695 64.749638 
L 211.619695 64.810921 
L 210.619695 64.85942 
L 209.619695 64.940243 
L 208.619695 65.058762 
L 207.619695 65.128973 
L 206.619695 65.212235 
L 205.619695 65.245377 
L 204.619695 65.296614 
L 203.619695 65.365013 
L 202.619695 65.431228 
L 201.619695 65.508145 
L 200.299442 65.535461 
" clip-path="url(#p2c4840e19c)" style="fill: none; stroke: #ff7f0e; stroke-opacity: 0.5; stroke-width: 0.2; stroke-linecap: square"/>
   <path d="M 256.619695 98.339627 
L 255.619695 98.30819 
L 254.619695 98.27125 
L 253.619695 98.173503 
L 252.619695 98.140982 
L 251.619695 98.067357 
L 250.619695 98.028791 
L 249.619695 97.993378 
L 248.619695 97.935738 
L 247.619695 97.865352 
L 246.619695 97.813388 
L 245.619695 97.754298 
L 244.619695 97.665977 
L 243.619695 97.619833 
L 242.619695 97.577422 
L 241.619695 97.546929 
L 240.619695 97.520884 
L 239.619695 97.499684 
L 238.619695 97.445383 
L 237.619695 97.417446 
L 236.619695 97.387722 
L 235.619695 97.362327 
L 234.619695 97.351126 
L 233.619695 97.341002 
L 232.619695 97.341207 
L 231.619695 97.350717 
L 230.619695 97.36237 
L 229.619695 97.3934 
L 228.619695 97.404567 
L 227.619695 97.434685 
L 226.619695 97.494462 
L 225.619695 97.531653 
L 224.619695 97.57075 
L 223.619695 97.613189 
L 222.619695 97.645954 
L 221.619695 97.713381 
L 220.619695 97.752507 
L 219.619695 97.795181 
L 218.619695 97.865762 
L 217.619695 97.902153 
L 216.619695 97.960556 
L 215.619695 98.071508 
L 214.619695 98.142167 
L 213.619695 98.255107 
L 212.619695 98.300879 
L 211.619695 98.362163 
L 210.619695 98.410662 
L 209.619695 98.491485 
L 208.619695 98.610004 
L 207.619695 98.680214 
L 206.619695 98.763477 
L 205.619695 98.796618 
L 204.619695 98.847856 
L 203.619695 98.916254 
L 202.619695 98.98247 
L 201.619695 99.059387 
L 200.299442 99.086702 
" clip-path="url(#p2c4840e19c)" style="fill: none; stroke: #ff7f0e; stroke-opacity: 0.5; stroke-width: 0.2; stroke-linecap: square"/>
   <path d="M 390.34593 310.715376 
L 391.34593 310.746813 
L 392.34593 310.783753 
L 393.34593 310.8815 
L 394.34593 310.914021 
L 395.34593 310.987646 
L 396.34593 311.026211 
L 397.34593 311.061625 
L 398.34593 311.119265 
L 399.34593 311.189651 
L 400.34593 311.241615 
L 401.34593 311.300705 
L 402.34593 311.389026 
L 403.34593 311.43517 
L 404.34593 311.477581 
L 405.34593 311.508074 
L 406.34593 311.534119 
L 407.34593 311.555319 
L 408.34593 311.60962 
L 409.34593 311.637557 
L 410.34593 311.667281 
L 411.34593 311.692676 
L 412.34593 311.703876 
L 413.34593 311.714 
L 414.34593 311.713796 
L 415.34593 311.704286 
L 416.34593 311.692633 
L 417.34593 311.661603 
L 418.34593 311.650435 
L 419.34593 311.620318 
L 420.34593 311.560541 
L 421.34593 311.523349 
L 422.34593 311.484253 
L 423.34593 311.441814 
L 424.34593 311.409049 
L 425.34593 311.341622 
L 426.34593 311.302496 
L 427.34593 311.259822 
L 428.34593 311.189241 
L 429.34593 311.15285 
L 430.34593 311.094447 
L 431.34593 310.983494 
L 432.34593 310.912836 
L 433.34593 310.799896 
L 434.34593 310.754123 
L 435.34593 310.69284 
L 436.34593 310.644341 
L 437.34593 310.563518 
L 438.34593 310.444999 
L 439.34593 310.374789 
L 440.34593 310.291526 
L 441.34593 310.258384 
L 442.34593 310.207147 
L 443.34593 310.138749 
L 444.34593 310.072533 
L 445.34593 309.995616 
L 446.666183 309.968301 
" clip-path="url(#p2c4840e19c)" style="fill: none; stroke: #ff7f0e; stroke-opacity: 0.5; stroke-width: 0.2; stroke-linecap: square"/>
   <path d="M 390.34593 181.240701 
L 391.34593 181.272137 
L 392.34593 181.309077 
L 393.34593 181.406824 
L 394.34593 181.439345 
L 395.34593 181.51297 
L 396.34593 181.551536 
L 397.34593 181.586949 
L 398.34593 181.644589 
L 399.34593 181.714975 
L 400.34593 181.766939 
L 401.34593 181.826029 
L 402.34593 181.91435 
L 403.34593 181.960494 
L 404.34593 182.002905 
L 405.34593 182.033398 
L 406.34593 182.059443 
L 407.34593 182.080643 
L 408.34593 182.134944 
L 409.34593 182.162882 
L 410.34593 182.192606 
L 411.34593 182.218 
L 412.34593 182.229201 
L 413.34593 182.239325 
L 414.34593 182.23912 
L 415.34593 182.22961 
L 416.34593 182.217957 
L 417.34593 182.186928 
L 418.34593 182.17576 
L 419.34593 182.145642 
L 420.34593 182.085865 
L 421.34593 182.048674 
L 422.34593 182.009578 
L 423.34593 181.967138 
L 424.34593 181.934373 
L 425.34593 181.866946 
L 426.34593 181.827821 
L 427.34593 181.785146 
L 428.34593 181.714565 
L 429.34593 181.678175 
L 430.34593 181.619771 
L 431.34593 181.508819 
L 432.34593 181.43816 
L 433.34593 181.325221 
L 434.34593 181.279448 
L 435.34593 181.218164 
L 436.34593 181.169665 
L 437.34593 181.088842 
L 438.34593 180.970324 
L 439.34593 180.900113 
L 440.34593 180.81685 
L 441.34593 180.783709 
L 442.34593 180.732471 
L 443.34593 180.664073 
L 444.34593 180.597858 
L 445.34593 180.520941 
L 446.666183 180.493625 
" clip-path="url(#p2c4840e19c)" style="fill: none; stroke: #ff7f0e; stroke-opacity: 0.5; stroke-width: 0.2; stroke-linecap: square"/>
   <path d="M 390.34593 270.613645 
L 391.34593 270.645081 
L 392.34593 270.682022 
L 393.34593 270.779768 
L 394.34593 270.81229 
L 395.34593 270.885914 
L 396.34593 270.92448 
L 397.34593 270.959893 
L 398.34593 271.017533 
L 399.34593 271.087919 
L 400.34593 271.139884 
L 401.34593 271.198973 
L 402.34593 271.287294 
L 403.34593 271.333439 
L 404.34593 271.375849 
L 405.34593 271.406342 
L 406.34593 271.432387 
L 407.34593 271.453587 
L 408.34593 271.507888 
L 409.34593 271.535826 
L 410.34593 271.56555 
L 411.34593 271.590945 
L 412.34593 271.602145 
L 413.34593 271.612269 
L 414.34593 271.612065 
L 415.34593 271.602555 
L 416.34593 271.590901 
L 417.34593 271.559872 
L 418.34593 271.548704 
L 419.34593 271.518586 
L 420.34593 271.45881 
L 421.34593 271.421618 
L 422.34593 271.382522 
L 423.34593 271.340082 
L 424.34593 271.307317 
L 425.34593 271.239891 
L 426.34593 271.200765 
L 427.34593 271.15809 
L 428.34593 271.08751 
L 429.34593 271.051119 
L 430.34593 270.992716 
L 431.34593 270.881763 
L 432.34593 270.811105 
L 433.34593 270.698165 
L 434.34593 270.652392 
L 435.34593 270.591109 
L 436.34593 270.542609 
L 437.34593 270.461787 
L 438.34593 270.343268 
L 439.34593 270.273057 
L 440.34593 270.189795 
L 441.34593 270.156653 
L 442.34593 270.105416 
L 443.34593 270.037017 
L 444.34593 269.970802 
L 445.34593 269.893885 
L 446.666183 269.866569 
" clip-path="url(#p2c4840e19c)" style="fill: none; stroke: #ff7f0e; stroke-opacity: 0.5; stroke-width: 0.2; stroke-linecap: square"/>
   <path d="M 390.34593 285.648561 
L 391.34593 285.679997 
L 392.34593 285.716937 
L 393.34593 285.814684 
L 394.34593 285.847206 
L 395.34593 285.92083 
L 396.34593 285.959396 
L 397.34593 285.994809 
L 398.34593 286.052449 
L 399.34593 286.122835 
L 400.34593 286.174799 
L 401.34593 286.233889 
L 402.34593 286.32221 
L 403.34593 286.368354 
L 404.34593 286.410765 
L 405.34593 286.441258 
L 406.34593 286.467303 
L 407.34593 286.488503 
L 408.34593 286.542804 
L 409.34593 286.570742 
L 410.34593 286.600466 
L 411.34593 286.62586 
L 412.34593 286.637061 
L 413.34593 286.647185 
L 414.34593 286.64698 
L 415.34593 286.637471 
L 416.34593 286.625817 
L 417.34593 286.594788 
L 418.34593 286.58362 
L 419.34593 286.553502 
L 420.34593 286.493725 
L 421.34593 286.456534 
L 422.34593 286.417438 
L 423.34593 286.374998 
L 424.34593 286.342233 
L 425.34593 286.274807 
L 426.34593 286.235681 
L 427.34593 286.193006 
L 428.34593 286.122425 
L 429.34593 286.086035 
L 430.34593 286.027631 
L 431.34593 285.916679 
L 432.34593 285.846021 
L 433.34593 285.733081 
L 434.34593 285.687308 
L 435.34593 285.626025 
L 436.34593 285.577525 
L 437.34593 285.496703 
L 438.34593 285.378184 
L 439.34593 285.307973 
L 440.34593 285.224711 
L 441.34593 285.191569 
L 442.34593 285.140331 
L 443.34593 285.071933 
L 444.34593 285.005718 
L 445.34593 284.928801 
L 446.666183 284.901485 
" clip-path="url(#p2c4840e19c)" style="fill: none; stroke: #ff7f0e; stroke-opacity: 0.5; stroke-width: 0.2; stroke-linecap: square"/>
   <path d="M 390.34593 288.148203 
L 391.34593 288.17964 
L 392.34593 288.21658 
L 393.34593 288.314326 
L 394.34593 288.346848 
L 395.34593 288.420473 
L 396.34593 288.459038 
L 397.34593 288.494452 
L 398.34593 288.552091 
L 399.34593 288.622478 
L 400.34593 288.674442 
L 401.34593 288.733532 
L 402.34593 288.821853 
L 403.34593 288.867997 
L 404.34593 288.910408 
L 405.34593 288.940901 
L 406.34593 288.966945 
L 407.34593 288.988146 
L 408.34593 289.042447 
L 409.34593 289.070384 
L 410.34593 289.100108 
L 411.34593 289.125503 
L 412.34593 289.136703 
L 413.34593 289.146827 
L 414.34593 289.146623 
L 415.34593 289.137113 
L 416.34593 289.12546 
L 417.34593 289.09443 
L 418.34593 289.083262 
L 419.34593 289.053145 
L 420.34593 288.993368 
L 421.34593 288.956176 
L 422.34593 288.91708 
L 423.34593 288.874641 
L 424.34593 288.841876 
L 425.34593 288.774449 
L 426.34593 288.735323 
L 427.34593 288.692649 
L 428.34593 288.622068 
L 429.34593 288.585677 
L 430.34593 288.527274 
L 431.34593 288.416321 
L 432.34593 288.345663 
L 433.34593 288.232723 
L 434.34593 288.18695 
L 435.34593 288.125667 
L 436.34593 288.077168 
L 437.34593 287.996345 
L 438.34593 287.877826 
L 439.34593 287.807616 
L 440.34593 287.724353 
L 441.34593 287.691211 
L 442.34593 287.639974 
L 443.34593 287.571576 
L 444.34593 287.50536 
L 445.34593 287.428443 
L 446.666183 287.401128 
" clip-path="url(#p2c4840e19c)" style="fill: none; stroke: #ff7f0e; stroke-opacity: 0.5; stroke-width: 0.2; stroke-linecap: square"/>
   <path d="M 390.34593 87.156395 
L 391.34593 87.187831 
L 392.34593 87.224771 
L 393.34593 87.322518 
L 394.34593 87.35504 
L 395.34593 87.428664 
L 396.34593 87.46723 
L 397.34593 87.502643 
L 398.34593 87.560283 
L 399.34593 87.630669 
L 400.34593 87.682633 
L 401.34593 87.741723 
L 402.34593 87.830044 
L 403.34593 87.876188 
L 404.34593 87.918599 
L 405.34593 87.949092 
L 406.34593 87.975137 
L 407.34593 87.996337 
L 408.34593 88.050638 
L 409.34593 88.078576 
L 410.34593 88.1083 
L 411.34593 88.133694 
L 412.34593 88.144895 
L 413.34593 88.155019 
L 414.34593 88.154814 
L 415.34593 88.145305 
L 416.34593 88.133651 
L 417.34593 88.102622 
L 418.34593 88.091454 
L 419.34593 88.061336 
L 420.34593 88.001559 
L 421.34593 87.964368 
L 422.34593 87.925272 
L 423.34593 87.882832 
L 424.34593 87.850067 
L 425.34593 87.782641 
L 426.34593 87.743515 
L 427.34593 87.70084 
L 428.34593 87.630259 
L 429.34593 87.593869 
L 430.34593 87.535465 
L 431.34593 87.424513 
L 432.34593 87.353855 
L 433.34593 87.240915 
L 434.34593 87.195142 
L 435.34593 87.133859 
L 436.34593 87.085359 
L 437.34593 87.004537 
L 438.34593 86.886018 
L 439.34593 86.815807 
L 440.34593 86.732545 
L 441.34593 86.699403 
L 442.34593 86.648165 
L 443.34593 86.579767 
L 444.34593 86.513552 
L 445.34593 86.436635 
L 446.666183 86.409319 
" clip-path="url(#p2c4840e19c)" style="fill: none; stroke: #ff7f0e; stroke-opacity: 0.5; stroke-width: 0.2; stroke-linecap: square"/>
   <path d="M 390.34593 203.223143 
L 391.34593 203.25458 
L 392.34593 203.29152 
L 393.34593 203.389267 
L 394.34593 203.421788 
L 395.34593 203.495413 
L 396.34593 203.533979 
L 397.34593 203.569392 
L 398.34593 203.627032 
L 399.34593 203.697418 
L 400.34593 203.749382 
L 401.34593 203.808472 
L 402.34593 203.896793 
L 403.34593 203.942937 
L 404.34593 203.985348 
L 405.34593 204.015841 
L 406.34593 204.041886 
L 407.34593 204.063086 
L 408.34593 204.117387 
L 409.34593 204.145324 
L 410.34593 204.175048 
L 411.34593 204.200443 
L 412.34593 204.211644 
L 413.34593 204.221768 
L 414.34593 204.221563 
L 415.34593 204.212053 
L 416.34593 204.2004 
L 417.34593 204.16937 
L 418.34593 204.158203 
L 419.34593 204.128085 
L 420.34593 204.068308 
L 421.34593 204.031117 
L 422.34593 203.99202 
L 423.34593 203.949581 
L 424.34593 203.916816 
L 425.34593 203.849389 
L 426.34593 203.810263 
L 427.34593 203.767589 
L 428.34593 203.697008 
L 429.34593 203.660617 
L 430.34593 203.602214 
L 431.34593 203.491262 
L 432.34593 203.420603 
L 433.34593 203.307663 
L 434.34593 203.261891 
L 435.34593 203.200607 
L 436.34593 203.152108 
L 437.34593 203.071285 
L 438.34593 202.952766 
L 439.34593 202.882556 
L 440.34593 202.799293 
L 441.34593 202.766152 
L 442.34593 202.714914 
L 443.34593 202.646516 
L 444.34593 202.5803 
L 445.34593 202.503383 
L 446.666183 202.476068 
" clip-path="url(#p2c4840e19c)" style="fill: none; stroke: #ff7f0e; stroke-opacity: 0.5; stroke-width: 0.2; stroke-linecap: square"/>
   <path d="M 390.34593 114.656192 
L 391.34593 114.687628 
L 392.34593 114.724569 
L 393.34593 114.822315 
L 394.34593 114.854837 
L 395.34593 114.928462 
L 396.34593 114.967027 
L 397.34593 115.00244 
L 398.34593 115.06008 
L 399.34593 115.130466 
L 400.34593 115.182431 
L 401.34593 115.24152 
L 402.34593 115.329841 
L 403.34593 115.375986 
L 404.34593 115.418397 
L 405.34593 115.448889 
L 406.34593 115.474934 
L 407.34593 115.496134 
L 408.34593 115.550435 
L 409.34593 115.578373 
L 410.34593 115.608097 
L 411.34593 115.633492 
L 412.34593 115.644692 
L 413.34593 115.654816 
L 414.34593 115.654612 
L 415.34593 115.645102 
L 416.34593 115.633448 
L 417.34593 115.602419 
L 418.34593 115.591251 
L 419.34593 115.561134 
L 420.34593 115.501357 
L 421.34593 115.464165 
L 422.34593 115.425069 
L 423.34593 115.382629 
L 424.34593 115.349864 
L 425.34593 115.282438 
L 426.34593 115.243312 
L 427.34593 115.200637 
L 428.34593 115.130057 
L 429.34593 115.093666 
L 430.34593 115.035263 
L 431.34593 114.92431 
L 432.34593 114.853652 
L 433.34593 114.740712 
L 434.34593 114.694939 
L 435.34593 114.633656 
L 436.34593 114.585157 
L 437.34593 114.504334 
L 438.34593 114.385815 
L 439.34593 114.315604 
L 440.34593 114.232342 
L 441.34593 114.1992 
L 442.34593 114.147963 
L 443.34593 114.079564 
L 444.34593 114.013349 
L 445.34593 113.936432 
L 446.666183 113.909116 
" clip-path="url(#p2c4840e19c)" style="fill: none; stroke: #ff7f0e; stroke-opacity: 0.5; stroke-width: 0.2; stroke-linecap: square"/>
   <path d="M 390.34593 92.829995 
L 391.34593 92.861431 
L 392.34593 92.898371 
L 393.34593 92.996118 
L 394.34593 93.028639 
L 395.34593 93.102264 
L 396.34593 93.14083 
L 397.34593 93.176243 
L 398.34593 93.233883 
L 399.34593 93.304269 
L 400.34593 93.356233 
L 401.34593 93.415323 
L 402.34593 93.503644 
L 403.34593 93.549788 
L 404.34593 93.592199 
L 405.34593 93.622692 
L 406.34593 93.648737 
L 407.34593 93.669937 
L 408.34593 93.724238 
L 409.34593 93.752176 
L 410.34593 93.7819 
L 411.34593 93.807294 
L 412.34593 93.818495 
L 413.34593 93.828619 
L 414.34593 93.828414 
L 415.34593 93.818905 
L 416.34593 93.807251 
L 417.34593 93.776222 
L 418.34593 93.765054 
L 419.34593 93.734936 
L 420.34593 93.675159 
L 421.34593 93.637968 
L 422.34593 93.598872 
L 423.34593 93.556432 
L 424.34593 93.523667 
L 425.34593 93.45624 
L 426.34593 93.417115 
L 427.34593 93.37444 
L 428.34593 93.303859 
L 429.34593 93.267469 
L 430.34593 93.209065 
L 431.34593 93.098113 
L 432.34593 93.027454 
L 433.34593 92.914515 
L 434.34593 92.868742 
L 435.34593 92.807459 
L 436.34593 92.758959 
L 437.34593 92.678136 
L 438.34593 92.559618 
L 439.34593 92.489407 
L 440.34593 92.406144 
L 441.34593 92.373003 
L 442.34593 92.321765 
L 443.34593 92.253367 
L 444.34593 92.187152 
L 445.34593 92.110235 
L 446.666183 92.082919 
" clip-path="url(#p2c4840e19c)" style="fill: none; stroke: #ff7f0e; stroke-opacity: 0.5; stroke-width: 0.2; stroke-linecap: square"/>
   <path d="M 390.34593 172.037484 
L 391.34593 172.068921 
L 392.34593 172.105861 
L 393.34593 172.203608 
L 394.34593 172.236129 
L 395.34593 172.309754 
L 396.34593 172.348319 
L 397.34593 172.383733 
L 398.34593 172.441373 
L 399.34593 172.511759 
L 400.34593 172.563723 
L 401.34593 172.622813 
L 402.34593 172.711134 
L 403.34593 172.757278 
L 404.34593 172.799689 
L 405.34593 172.830182 
L 406.34593 172.856227 
L 407.34593 172.877427 
L 408.34593 172.931728 
L 409.34593 172.959665 
L 410.34593 172.989389 
L 411.34593 173.014784 
L 412.34593 173.025984 
L 413.34593 173.036108 
L 414.34593 173.035904 
L 415.34593 173.026394 
L 416.34593 173.014741 
L 417.34593 172.983711 
L 418.34593 172.972543 
L 419.34593 172.942426 
L 420.34593 172.882649 
L 421.34593 172.845457 
L 422.34593 172.806361 
L 423.34593 172.763922 
L 424.34593 172.731157 
L 425.34593 172.66373 
L 426.34593 172.624604 
L 427.34593 172.58193 
L 428.34593 172.511349 
L 429.34593 172.474958 
L 430.34593 172.416555 
L 431.34593 172.305602 
L 432.34593 172.234944 
L 433.34593 172.122004 
L 434.34593 172.076231 
L 435.34593 172.014948 
L 436.34593 171.966449 
L 437.34593 171.885626 
L 438.34593 171.767107 
L 439.34593 171.696897 
L 440.34593 171.613634 
L 441.34593 171.580492 
L 442.34593 171.529255 
L 443.34593 171.460857 
L 444.34593 171.394641 
L 445.34593 171.317724 
L 446.666183 171.290409 
" clip-path="url(#p2c4840e19c)" style="fill: none; stroke: #ff7f0e; stroke-opacity: 0.5; stroke-width: 0.2; stroke-linecap: square"/>
   <path d="M 446.666183 188.400486 
L 445.666183 188.369049 
L 444.666183 188.332109 
L 443.666183 188.234362 
L 442.666183 188.201841 
L 441.666183 188.128216 
L 440.666183 188.08965 
L 439.666183 188.054237 
L 438.666183 187.996597 
L 437.666183 187.926211 
L 436.666183 187.874247 
L 435.666183 187.815157 
L 434.666183 187.726836 
L 433.666183 187.680692 
L 432.666183 187.638281 
L 431.666183 187.607788 
L 430.666183 187.581743 
L 429.666183 187.560543 
L 428.666183 187.506242 
L 427.666183 187.478305 
L 426.666183 187.448581 
L 425.666183 187.423186 
L 424.666183 187.411985 
L 423.666183 187.401861 
L 422.666183 187.402066 
L 421.666183 187.411576 
L 420.666183 187.423229 
L 419.666183 187.454259 
L 418.666183 187.465426 
L 417.666183 187.495544 
L 416.666183 187.555321 
L 415.666183 187.592512 
L 414.666183 187.631609 
L 413.666183 187.674048 
L 412.666183 187.706813 
L 411.666183 187.77424 
L 410.666183 187.813366 
L 409.666183 187.85604 
L 408.666183 187.926621 
L 407.666183 187.963012 
L 406.666183 188.021415 
L 405.666183 188.132367 
L 404.666183 188.203026 
L 403.666183 188.315966 
L 402.666183 188.361738 
L 401.666183 188.423022 
L 400.666183 188.471521 
L 399.666183 188.552344 
L 398.666183 188.670863 
L 397.666183 188.741073 
L 396.666183 188.824336 
L 395.666183 188.857478 
L 394.666183 188.908715 
L 393.666183 188.977113 
L 392.666183 189.043329 
L 391.666183 189.120246 
L 390.34593 189.147561 
" clip-path="url(#p2c4840e19c)" style="fill: none; stroke: #2ca02c; stroke-opacity: 0.5; stroke-width: 0.2; stroke-linecap: square"/>
   <path d="M 446.666183 30.303111 
L 445.666183 30.271674 
L 444.666183 30.234734 
L 443.666183 30.136987 
L 442.666183 30.104466 
L 441.666183 30.030841 
L 440.666183 29.992275 
L 439.666183 29.956862 
L 438.666183 29.899222 
L 437.666183 29.828836 
L 436.666183 29.776872 
L 435.666183 29.717782 
L 434.666183 29.629461 
L 433.666183 29.583317 
L 432.666183 29.540906 
L 431.666183 29.510413 
L 430.666183 29.484368 
L 429.666183 29.463168 
L 428.666183 29.408867 
L 427.666183 29.38093 
L 426.666183 29.351206 
L 425.666183 29.325811 
L 424.666183 29.31461 
L 423.666183 29.304486 
L 422.666183 29.304691 
L 421.666183 29.314201 
L 420.666183 29.325854 
L 419.666183 29.356883 
L 418.666183 29.368051 
L 417.666183 29.398169 
L 416.666183 29.457946 
L 415.666183 29.495137 
L 414.666183 29.534234 
L 413.666183 29.576673 
L 412.666183 29.609438 
L 411.666183 29.676865 
L 410.666183 29.715991 
L 409.666183 29.758665 
L 408.666183 29.829246 
L 407.666183 29.865637 
L 406.666183 29.92404 
L 405.666183 30.034992 
L 404.666183 30.105651 
L 403.666183 30.218591 
L 402.666183 30.264363 
L 401.666183 30.325647 
L 400.666183 30.374146 
L 399.666183 30.454969 
L 398.666183 30.573488 
L 397.666183 30.643698 
L 396.666183 30.726961 
L 395.666183 30.760102 
L 394.666183 30.81134 
L 393.666183 30.879738 
L 392.666183 30.945954 
L 391.666183 31.022871 
L 390.34593 31.050186 
" clip-path="url(#p2c4840e19c)" style="fill: none; stroke: #2ca02c; stroke-opacity: 0.5; stroke-width: 0.2; stroke-linecap: square"/>
   <path d="M 446.666183 142.440929 
L 445.666183 142.409492 
L 444.666183 142.372552 
L 443.666183 142.274805 
L 442.666183 142.242284 
L 441.666183 142.168659 
L 440.666183 142.130093 
L 439.666183 142.09468 
L 438.666183 142.03704 
L 437.666183 141.966654 
L 436.666183 141.91469 
L 435.666183 141.8556 
L 434.666183 141.767279 
L 433.666183 141.721135 
L 432.666183 141.678724 
L 431.666183 141.648231 
L 430.666183 141.622186 
L 429.666183 141.600986 
L 428.666183 141.546685 
L 427.666183 141.518748 
L 426.666183 141.489024 
L 425.666183 141.463629 
L 424.666183 141.452428 
L 423.666183 141.442304 
L 422.666183 141.442509 
L 421.666183 141.452019 
L 420.666183 141.463672 
L 419.666183 141.494702 
L 418.666183 141.505869 
L 417.666183 141.535987 
L 416.666183 141.595764 
L 415.666183 141.632955 
L 414.666183 141.672052 
L 413.666183 141.714491 
L 412.666183 141.747256 
L 411.666183 141.814683 
L 410.666183 141.853809 
L 409.666183 141.896483 
L 408.666183 141.967064 
L 407.666183 142.003455 
L 406.666183 142.061858 
L 405.666183 142.17281 
L 404.666183 142.243469 
L 403.666183 142.356409 
L 402.666183 142.402181 
L 401.666183 142.463465 
L 400.666183 142.511964 
L 399.666183 142.592787 
L 398.666183 142.711306 
L 397.666183 142.781516 
L 396.666183 142.864779 
L 395.666183 142.89792 
L 394.666183 142.949158 
L 393.666183 143.017556 
L 392.666183 143.083772 
L 391.666183 143.160689 
L 390.34593 143.188004 
" clip-path="url(#p2c4840e19c)" style="fill: none; stroke: #2ca02c; stroke-opacity: 0.5; stroke-width: 0.2; stroke-linecap: square"/>
   <path d="M 446.666183 90.57022 
L 445.666183 90.538783 
L 444.666183 90.501843 
L 443.666183 90.404096 
L 442.666183 90.371575 
L 441.666183 90.29795 
L 440.666183 90.259384 
L 439.666183 90.223971 
L 438.666183 90.166331 
L 437.666183 90.095945 
L 436.666183 90.043981 
L 435.666183 89.984891 
L 434.666183 89.89657 
L 433.666183 89.850426 
L 432.666183 89.808015 
L 431.666183 89.777522 
L 430.666183 89.751477 
L 429.666183 89.730277 
L 428.666183 89.675976 
L 427.666183 89.648039 
L 426.666183 89.618315 
L 425.666183 89.59292 
L 424.666183 89.581719 
L 423.666183 89.571596 
L 422.666183 89.5718 
L 421.666183 89.58131 
L 420.666183 89.592963 
L 419.666183 89.623993 
L 418.666183 89.63516 
L 417.666183 89.665278 
L 416.666183 89.725055 
L 415.666183 89.762246 
L 414.666183 89.801343 
L 413.666183 89.843782 
L 412.666183 89.876547 
L 411.666183 89.943974 
L 410.666183 89.9831 
L 409.666183 90.025774 
L 408.666183 90.096355 
L 407.666183 90.132746 
L 406.666183 90.191149 
L 405.666183 90.302101 
L 404.666183 90.37276 
L 403.666183 90.4857 
L 402.666183 90.531472 
L 401.666183 90.592756 
L 400.666183 90.641255 
L 399.666183 90.722078 
L 398.666183 90.840597 
L 397.666183 90.910807 
L 396.666183 90.99407 
L 395.666183 91.027212 
L 394.666183 91.078449 
L 393.666183 91.146847 
L 392.666183 91.213063 
L 391.666183 91.28998 
L 390.34593 91.317295 
" clip-path="url(#p2c4840e19c)" style="fill: none; stroke: #2ca02c; stroke-opacity: 0.5; stroke-width: 0.2; stroke-linecap: square"/>
   <path d="M 446.666183 264.667847 
L 445.666183 264.636411 
L 444.666183 264.59947 
L 443.666183 264.501724 
L 442.666183 264.469202 
L 441.666183 264.395578 
L 440.666183 264.357012 
L 439.666183 264.321599 
L 438.666183 264.263959 
L 437.666183 264.193573 
L 436.666183 264.141608 
L 435.666183 264.082519 
L 434.666183 263.994198 
L 433.666183 263.948053 
L 432.666183 263.905642 
L 431.666183 263.87515 
L 430.666183 263.849105 
L 429.666183 263.827905 
L 428.666183 263.773604 
L 427.666183 263.745666 
L 426.666183 263.715942 
L 425.666183 263.690547 
L 424.666183 263.679347 
L 423.666183 263.669223 
L 422.666183 263.669427 
L 421.666183 263.678937 
L 420.666183 263.690591 
L 419.666183 263.72162 
L 418.666183 263.732788 
L 417.666183 263.762905 
L 416.666183 263.822682 
L 415.666183 263.859874 
L 414.666183 263.89897 
L 413.666183 263.94141 
L 412.666183 263.974175 
L 411.666183 264.041601 
L 410.666183 264.080727 
L 409.666183 264.123402 
L 408.666183 264.193982 
L 407.666183 264.230373 
L 406.666183 264.288776 
L 405.666183 264.399729 
L 404.666183 264.470387 
L 403.666183 264.583327 
L 402.666183 264.6291 
L 401.666183 264.690383 
L 400.666183 264.738882 
L 399.666183 264.819705 
L 398.666183 264.938224 
L 397.666183 265.008435 
L 396.666183 265.091697 
L 395.666183 265.124839 
L 394.666183 265.176076 
L 393.666183 265.244475 
L 392.666183 265.31069 
L 391.666183 265.387607 
L 390.34593 265.414923 
" clip-path="url(#p2c4840e19c)" style="fill: none; stroke: #2ca02c; stroke-opacity: 0.5; stroke-width: 0.2; stroke-linecap: square"/>
   <path d="M 446.666183 165.116878 
L 445.666183 165.085442 
L 444.666183 165.048501 
L 443.666183 164.950755 
L 442.666183 164.918233 
L 441.666183 164.844609 
L 440.666183 164.806043 
L 439.666183 164.77063 
L 438.666183 164.71299 
L 437.666183 164.642604 
L 436.666183 164.59064 
L 435.666183 164.53155 
L 434.666183 164.443229 
L 433.666183 164.397084 
L 432.666183 164.354674 
L 431.666183 164.324181 
L 430.666183 164.298136 
L 429.666183 164.276936 
L 428.666183 164.222635 
L 427.666183 164.194697 
L 426.666183 164.164973 
L 425.666183 164.139578 
L 424.666183 164.128378 
L 423.666183 164.118254 
L 422.666183 164.118458 
L 421.666183 164.127968 
L 420.666183 164.139622 
L 419.666183 164.170651 
L 418.666183 164.181819 
L 417.666183 164.211937 
L 416.666183 164.271713 
L 415.666183 164.308905 
L 414.666183 164.348001 
L 413.666183 164.390441 
L 412.666183 164.423206 
L 411.666183 164.490632 
L 410.666183 164.529758 
L 409.666183 164.572433 
L 408.666183 164.643013 
L 407.666183 164.679404 
L 406.666183 164.737807 
L 405.666183 164.84876 
L 404.666183 164.919418 
L 403.666183 165.032358 
L 402.666183 165.078131 
L 401.666183 165.139414 
L 400.666183 165.187914 
L 399.666183 165.268736 
L 398.666183 165.387255 
L 397.666183 165.457466 
L 396.666183 165.540728 
L 395.666183 165.57387 
L 394.666183 165.625107 
L 393.666183 165.693506 
L 392.666183 165.759721 
L 391.666183 165.836638 
L 390.34593 165.863954 
" clip-path="url(#p2c4840e19c)" style="fill: none; stroke: #2ca02c; stroke-opacity: 0.5; stroke-width: 0.2; stroke-linecap: square"/>
   <path d="M 446.666183 197.158016 
L 445.666183 197.126579 
L 444.666183 197.089639 
L 443.666183 196.991892 
L 442.666183 196.959371 
L 441.666183 196.885746 
L 440.666183 196.84718 
L 439.666183 196.811767 
L 438.666183 196.754127 
L 437.666183 196.683741 
L 436.666183 196.631777 
L 435.666183 196.572687 
L 434.666183 196.484366 
L 433.666183 196.438222 
L 432.666183 196.395811 
L 431.666183 196.365318 
L 430.666183 196.339273 
L 429.666183 196.318073 
L 428.666183 196.263772 
L 427.666183 196.235835 
L 426.666183 196.206111 
L 425.666183 196.180716 
L 424.666183 196.169515 
L 423.666183 196.159392 
L 422.666183 196.159596 
L 421.666183 196.169106 
L 420.666183 196.180759 
L 419.666183 196.211789 
L 418.666183 196.222956 
L 417.666183 196.253074 
L 416.666183 196.312851 
L 415.666183 196.350042 
L 414.666183 196.389139 
L 413.666183 196.431578 
L 412.666183 196.464343 
L 411.666183 196.53177 
L 410.666183 196.570896 
L 409.666183 196.61357 
L 408.666183 196.684151 
L 407.666183 196.720542 
L 406.666183 196.778945 
L 405.666183 196.889897 
L 404.666183 196.960556 
L 403.666183 197.073496 
L 402.666183 197.119268 
L 401.666183 197.180552 
L 400.666183 197.229051 
L 399.666183 197.309874 
L 398.666183 197.428393 
L 397.666183 197.498603 
L 396.666183 197.581866 
L 395.666183 197.615008 
L 394.666183 197.666245 
L 393.666183 197.734643 
L 392.666183 197.800859 
L 391.666183 197.877776 
L 390.34593 197.905091 
" clip-path="url(#p2c4840e19c)" style="fill: none; stroke: #2ca02c; stroke-opacity: 0.5; stroke-width: 0.2; stroke-linecap: square"/>
   <path d="M 446.666183 185.651614 
L 445.666183 185.620178 
L 444.666183 185.583237 
L 443.666183 185.485491 
L 442.666183 185.452969 
L 441.666183 185.379345 
L 440.666183 185.340779 
L 439.666183 185.305366 
L 438.666183 185.247726 
L 437.666183 185.17734 
L 436.666183 185.125376 
L 435.666183 185.066286 
L 434.666183 184.977965 
L 433.666183 184.931821 
L 432.666183 184.88941 
L 431.666183 184.858917 
L 430.666183 184.832872 
L 429.666183 184.811672 
L 428.666183 184.757371 
L 427.666183 184.729433 
L 426.666183 184.699709 
L 425.666183 184.674314 
L 424.666183 184.663114 
L 423.666183 184.65299 
L 422.666183 184.653194 
L 421.666183 184.662704 
L 420.666183 184.674358 
L 419.666183 184.705387 
L 418.666183 184.716555 
L 417.666183 184.746673 
L 416.666183 184.80645 
L 415.666183 184.843641 
L 414.666183 184.882737 
L 413.666183 184.925177 
L 412.666183 184.957942 
L 411.666183 185.025368 
L 410.666183 185.064494 
L 409.666183 185.107169 
L 408.666183 185.177749 
L 407.666183 185.21414 
L 406.666183 185.272543 
L 405.666183 185.383496 
L 404.666183 185.454154 
L 403.666183 185.567094 
L 402.666183 185.612867 
L 401.666183 185.67415 
L 400.666183 185.72265 
L 399.666183 185.803472 
L 398.666183 185.921991 
L 397.666183 185.992202 
L 396.666183 186.075464 
L 395.666183 186.108606 
L 394.666183 186.159843 
L 393.666183 186.228242 
L 392.666183 186.294457 
L 391.666183 186.371374 
L 390.34593 186.39869 
" clip-path="url(#p2c4840e19c)" style="fill: none; stroke: #2ca02c; stroke-opacity: 0.5; stroke-width: 0.2; stroke-linecap: square"/>
   <path d="M 446.666183 99.154742 
L 445.666183 99.123305 
L 444.666183 99.086365 
L 443.666183 98.988618 
L 442.666183 98.956097 
L 441.666183 98.882472 
L 440.666183 98.843906 
L 439.666183 98.808493 
L 438.666183 98.750853 
L 437.666183 98.680467 
L 436.666183 98.628503 
L 435.666183 98.569413 
L 434.666183 98.481092 
L 433.666183 98.434948 
L 432.666183 98.392537 
L 431.666183 98.362044 
L 430.666183 98.335999 
L 429.666183 98.314799 
L 428.666183 98.260498 
L 427.666183 98.232561 
L 426.666183 98.202837 
L 425.666183 98.177442 
L 424.666183 98.166241 
L 423.666183 98.156117 
L 422.666183 98.156322 
L 421.666183 98.165832 
L 420.666183 98.177485 
L 419.666183 98.208515 
L 418.666183 98.219682 
L 417.666183 98.2498 
L 416.666183 98.309577 
L 415.666183 98.346768 
L 414.666183 98.385865 
L 413.666183 98.428304 
L 412.666183 98.461069 
L 411.666183 98.528496 
L 410.666183 98.567622 
L 409.666183 98.610296 
L 408.666183 98.680877 
L 407.666183 98.717268 
L 406.666183 98.775671 
L 405.666183 98.886623 
L 404.666183 98.957282 
L 403.666183 99.070222 
L 402.666183 99.115994 
L 401.666183 99.177278 
L 400.666183 99.225777 
L 399.666183 99.3066 
L 398.666183 99.425119 
L 397.666183 99.495329 
L 396.666183 99.578592 
L 395.666183 99.611734 
L 394.666183 99.662971 
L 393.666183 99.731369 
L 392.666183 99.797585 
L 391.666183 99.874502 
L 390.34593 99.901817 
" clip-path="url(#p2c4840e19c)" style="fill: none; stroke: #2ca02c; stroke-opacity: 0.5; stroke-width: 0.2; stroke-linecap: square"/>
   <path d="M 446.666183 23.993857 
L 445.666183 23.962421 
L 444.666183 23.925481 
L 443.666183 23.827734 
L 442.666183 23.795212 
L 441.666183 23.721588 
L 440.666183 23.683022 
L 439.666183 23.647609 
L 438.666183 23.589969 
L 437.666183 23.519583 
L 436.666183 23.467619 
L 435.666183 23.408529 
L 434.666183 23.320208 
L 433.666183 23.274064 
L 432.666183 23.231653 
L 431.666183 23.20116 
L 430.666183 23.175115 
L 429.666183 23.153915 
L 428.666183 23.099614 
L 427.666183 23.071676 
L 426.666183 23.041952 
L 425.666183 23.016558 
L 424.666183 23.005357 
L 423.666183 22.995233 
L 422.666183 22.995438 
L 421.666183 23.004947 
L 420.666183 23.016601 
L 419.666183 23.04763 
L 418.666183 23.058798 
L 417.666183 23.088916 
L 416.666183 23.148693 
L 415.666183 23.185884 
L 414.666183 23.22498 
L 413.666183 23.26742 
L 412.666183 23.300185 
L 411.666183 23.367611 
L 410.666183 23.406737 
L 409.666183 23.449412 
L 408.666183 23.519993 
L 407.666183 23.556383 
L 406.666183 23.614787 
L 405.666183 23.725739 
L 404.666183 23.796397 
L 403.666183 23.909337 
L 402.666183 23.95511 
L 401.666183 24.016393 
L 400.666183 24.064893 
L 399.666183 24.145715 
L 398.666183 24.264234 
L 397.666183 24.334445 
L 396.666183 24.417707 
L 395.666183 24.450849 
L 394.666183 24.502087 
L 393.666183 24.570485 
L 392.666183 24.6367 
L 391.666183 24.713617 
L 390.34593 24.740933 
" clip-path="url(#p2c4840e19c)" style="fill: none; stroke: #2ca02c; stroke-opacity: 0.5; stroke-width: 0.2; stroke-linecap: square"/>
   <g id="patch_3">
    <path d="M 72.103551 22.318125 
L 72.103551 318.021875 
M 194.769098 22.318125 
L 194.769098 318.021875 
" clip-path="url(#p2c4840e19c)" style="fill: none; stroke: #ffffff; stroke-width: 3; stroke-linejoin: miter"/>
    <path d="M 72.103551 22.318125 
L 72.103551 318.021875 
M 194.769098 22.318125 
L 194.769098 318.021875 
" clip-path="url(#p2c4840e19c)" style="fill: none; stroke: #1f77b4; stroke-linejoin: miter"/>
    <g id="PolyCollection_1">
     <path d="M 194.769098 22.318125 
L 72.103551 22.318125 
L 72.103551 318.021875 
L 194.769098 318.021875 
L 194.769098 318.021875 
L 194.769098 22.318125 
z
" clip-path="url(#p2c4840e19c)" style="fill: #1f77b4; fill-opacity: 0.5"/>
    </g>
    <g id="patch_4">
     <path d="M 262.150039 22.318125 
L 262.150039 318.021875 
M 384.815586 22.318125 
L 384.815586 318.021875 
" clip-path="url(#p2c4840e19c)" style="fill: none; stroke: #ffffff; stroke-width: 3; stroke-linejoin: miter"/>
     <path d="M 262.150039 22.318125 
L 262.150039 318.021875 
M 384.815586 22.318125 
L 384.815586 318.021875 
" clip-path="url(#p2c4840e19c)" style="fill: none; stroke: #ff7f0e; stroke-linejoin: miter"/>
     <g id="PolyCollection_2">
      <path d="M 384.815586 22.318125 
L 262.150039 22.318125 
L 262.150039 318.021875 
L 384.815586 318.021875 
L 384.815586 318.021875 
L 384.815586 22.318125 
z
" clip-path="url(#p2c4840e19c)" style="fill: #ff7f0e; fill-opacity: 0.5"/>
     </g>
     <g id="patch_5">
      <path d="M 452.196527 22.318125 
L 452.196527 318.021875 
M 574.862074 22.318125 
L 574.862074 318.021875 
" clip-path="url(#p2c4840e19c)" style="fill: none; stroke: #ffffff; stroke-width: 3; stroke-linejoin: miter"/>
      <path d="M 452.196527 22.318125 
L 452.196527 318.021875 
M 574.862074 22.318125 
L 574.862074 318.021875 
" clip-path="url(#p2c4840e19c)" style="fill: none; stroke: #2ca02c; stroke-linejoin: miter"/>
      <g id="PolyCollection_3">
       <path d="M 574.862074 22.318125 
L 452.196527 22.318125 
L 452.196527 318.021875 
L 574.862074 318.021875 
L 574.862074 318.021875 
L 574.862074 22.318125 
z
" clip-path="url(#p2c4840e19c)" style="fill: #2ca02c; fill-opacity: 0.5"/>
      </g>
      <g id="matplotlib.axis_1">
       <g id="xtick_1">
        <g id="line2d_1"/>
        <g id="text_1">
         <!-- deme1 -->
         <g transform="translate(116.057418 329.120312) scale(0.1 -0.1)">
          <defs>
           <path id="DejaVuSans-64" d="M 2906 2969 
L 2906 4863 
L 3481 4863 
L 3481 0 
L 2906 0 
L 2906 525 
Q 2725 213 2448 61 
Q 2172 -91 1784 -91 
Q 1150 -91 751 415 
Q 353 922 353 1747 
Q 353 2572 751 3078 
Q 1150 3584 1784 3584 
Q 2172 3584 2448 3432 
Q 2725 3281 2906 2969 
z
M 947 1747 
Q 947 1113 1208 752 
Q 1469 391 1925 391 
Q 2381 391 2643 752 
Q 2906 1113 2906 1747 
Q 2906 2381 2643 2742 
Q 2381 3103 1925 3103 
Q 1469 3103 1208 2742 
Q 947 2381 947 1747 
z
" transform="scale(0.015625)"/>
           <path id="DejaVuSans-65" d="M 3597 1894 
L 3597 1613 
L 953 1613 
Q 991 1019 1311 708 
Q 1631 397 2203 397 
Q 2534 397 2845 478 
Q 3156 559 3463 722 
L 3463 178 
Q 3153 47 2828 -22 
Q 2503 -91 2169 -91 
Q 1331 -91 842 396 
Q 353 884 353 1716 
Q 353 2575 817 3079 
Q 1281 3584 2069 3584 
Q 2775 3584 3186 3129 
Q 3597 2675 3597 1894 
z
M 3022 2063 
Q 3016 2534 2758 2815 
Q 2500 3097 2075 3097 
Q 1594 3097 1305 2825 
Q 1016 2553 972 2059 
L 3022 2063 
z
" transform="scale(0.015625)"/>
           <path id="DejaVuSans-6d" d="M 3328 2828 
Q 3544 3216 3844 3400 
Q 4144 3584 4550 3584 
Q 5097 3584 5394 3201 
Q 5691 2819 5691 2113 
L 5691 0 
L 5113 0 
L 5113 2094 
Q 5113 2597 4934 2840 
Q 4756 3084 4391 3084 
Q 3944 3084 3684 2787 
Q 3425 2491 3425 1978 
L 3425 0 
L 2847 0 
L 2847 2094 
Q 2847 2600 2669 2842 
Q 2491 3084 2119 3084 
Q 1678 3084 1418 2786 
Q 1159 2488 1159 1978 
L 1159 0 
L 581 0 
L 581 3500 
L 1159 3500 
L 1159 2956 
Q 1356 3278 1631 3431 
Q 1906 3584 2284 3584 
Q 2666 3584 2933 3390 
Q 3200 3197 3328 2828 
z
" transform="scale(0.015625)"/>
           <path id="DejaVuSans-31" d="M 794 531 
L 1825 531 
L 1825 4091 
L 703 3866 
L 703 4441 
L 1819 4666 
L 2450 4666 
L 2450 531 
L 3481 531 
L 3481 0 
L 794 0 
L 794 531 
z
" transform="scale(0.015625)"/>
          </defs>
          <use xlink:href="#DejaVuSans-64"/>
          <use xlink:href="#DejaVuSans-65" x="63.476562"/>
          <use xlink:href="#DejaVuSans-6d" x="125"/>
          <use xlink:href="#DejaVuSans-65" x="222.412109"/>
          <use xlink:href="#DejaVuSans-31" x="283.935547"/>
         </g>
        </g>
       </g>
       <g id="xtick_2">
        <g id="line2d_2"/>
        <g id="text_2">
         <!-- deme2 -->
         <g transform="translate(306.103906 329.120312) scale(0.1 -0.1)">
          <defs>
           <path id="DejaVuSans-32" d="M 1228 531 
L 3431 531 
L 3431 0 
L 469 0 
L 469 531 
Q 828 903 1448 1529 
Q 2069 2156 2228 2338 
Q 2531 2678 2651 2914 
Q 2772 3150 2772 3378 
Q 2772 3750 2511 3984 
Q 2250 4219 1831 4219 
Q 1534 4219 1204 4116 
Q 875 4013 500 3803 
L 500 4441 
Q 881 4594 1212 4672 
Q 1544 4750 1819 4750 
Q 2544 4750 2975 4387 
Q 3406 4025 3406 3419 
Q 3406 3131 3298 2873 
Q 3191 2616 2906 2266 
Q 2828 2175 2409 1742 
Q 1991 1309 1228 531 
z
" transform="scale(0.015625)"/>
          </defs>
          <use xlink:href="#DejaVuSans-64"/>
          <use xlink:href="#DejaVuSans-65" x="63.476562"/>
          <use xlink:href="#DejaVuSans-6d" x="125"/>
          <use xlink:href="#DejaVuSans-65" x="222.412109"/>
          <use xlink:href="#DejaVuSans-32" x="283.935547"/>
         </g>
        </g>
       </g>
       <g id="xtick_3">
        <g id="line2d_3"/>
        <g id="text_3">
         <!-- deme3 -->
         <g transform="translate(496.150394 329.120312) scale(0.1 -0.1)">
          <defs>
           <path id="DejaVuSans-33" d="M 2597 2516 
Q 3050 2419 3304 2112 
Q 3559 1806 3559 1356 
Q 3559 666 3084 287 
Q 2609 -91 1734 -91 
Q 1441 -91 1130 -33 
Q 819 25 488 141 
L 488 750 
Q 750 597 1062 519 
Q 1375 441 1716 441 
Q 2309 441 2620 675 
Q 2931 909 2931 1356 
Q 2931 1769 2642 2001 
Q 2353 2234 1838 2234 
L 1294 2234 
L 1294 2753 
L 1863 2753 
Q 2328 2753 2575 2939 
Q 2822 3125 2822 3475 
Q 2822 3834 2567 4026 
Q 2313 4219 1838 4219 
Q 1578 4219 1281 4162 
Q 984 4106 628 3988 
L 628 4550 
Q 988 4650 1302 4700 
Q 1616 4750 1894 4750 
Q 2613 4750 3031 4423 
Q 3450 4097 3450 3541 
Q 3450 3153 3228 2886 
Q 3006 2619 2597 2516 
z
" transform="scale(0.015625)"/>
          </defs>
          <use xlink:href="#DejaVuSans-64"/>
          <use xlink:href="#DejaVuSans-65" x="63.476562"/>
          <use xlink:href="#DejaVuSans-6d" x="125"/>
          <use xlink:href="#DejaVuSans-65" x="222.412109"/>
          <use xlink:href="#DejaVuSans-33" x="283.935547"/>
         </g>
        </g>
       </g>
      </g>
      <g id="matplotlib.axis_2">
       <g id="ytick_1">
        <g id="line2d_4">
         <defs>
          <path id="m816be8186c" d="M 0 0 
L -3.5 0 
" style="stroke: #000000; stroke-width: 0.8"/>
         </defs>
         <g>
          <use xlink:href="#m816be8186c" x="46.965625" y="318.021875" style="stroke: #000000; stroke-width: 0.8"/>
         </g>
        </g>
        <g id="text_4">
         <!-- 0 -->
         <g transform="translate(33.603125 321.821094) scale(0.1 -0.1)">
          <defs>
           <path id="DejaVuSans-30" d="M 2034 4250 
Q 1547 4250 1301 3770 
Q 1056 3291 1056 2328 
Q 1056 1369 1301 889 
Q 1547 409 2034 409 
Q 2525 409 2770 889 
Q 3016 1369 3016 2328 
Q 3016 3291 2770 3770 
Q 2525 4250 2034 4250 
z
M 2034 4750 
Q 2819 4750 3233 4129 
Q 3647 3509 3647 2328 
Q 3647 1150 3233 529 
Q 2819 -91 2034 -91 
Q 1250 -91 836 529 
Q 422 1150 422 2328 
Q 422 3509 836 4129 
Q 1250 4750 2034 4750 
z
" transform="scale(0.015625)"/>
          </defs>
          <use xlink:href="#DejaVuSans-30"/>
         </g>
        </g>
       </g>
       <g id="ytick_2">
        <g id="line2d_5">
         <g>
          <use xlink:href="#m816be8186c" x="46.965625" y="265.684928" style="stroke: #000000; stroke-width: 0.8"/>
         </g>
        </g>
        <g id="text_5">
         <!-- 20 -->
         <g transform="translate(27.240625 269.484147) scale(0.1 -0.1)">
          <use xlink:href="#DejaVuSans-32"/>
          <use xlink:href="#DejaVuSans-30" x="63.623047"/>
         </g>
        </g>
       </g>
       <g id="ytick_3">
        <g id="line2d_6">
         <g>
          <use xlink:href="#m816be8186c" x="46.965625" y="213.347981" style="stroke: #000000; stroke-width: 0.8"/>
         </g>
        </g>
        <g id="text_6">
         <!-- 40 -->
         <g transform="translate(27.240625 217.1472) scale(0.1 -0.1)">
          <defs>
           <path id="DejaVuSans-34" d="M 2419 4116 
L 825 1625 
L 2419 1625 
L 2419 4116 
z
M 2253 4666 
L 3047 4666 
L 3047 1625 
L 3713 1625 
L 3713 1100 
L 3047 1100 
L 3047 0 
L 2419 0 
L 2419 1100 
L 313 1100 
L 313 1709 
L 2253 4666 
z
" transform="scale(0.015625)"/>
          </defs>
          <use xlink:href="#DejaVuSans-34"/>
          <use xlink:href="#DejaVuSans-30" x="63.623047"/>
         </g>
        </g>
       </g>
       <g id="ytick_4">
        <g id="line2d_7">
         <g>
          <use xlink:href="#m816be8186c" x="46.965625" y="161.011034" style="stroke: #000000; stroke-width: 0.8"/>
         </g>
        </g>
        <g id="text_7">
         <!-- 60 -->
         <g transform="translate(27.240625 164.810253) scale(0.1 -0.1)">
          <defs>
           <path id="DejaVuSans-36" d="M 2113 2584 
Q 1688 2584 1439 2293 
Q 1191 2003 1191 1497 
Q 1191 994 1439 701 
Q 1688 409 2113 409 
Q 2538 409 2786 701 
Q 3034 994 3034 1497 
Q 3034 2003 2786 2293 
Q 2538 2584 2113 2584 
z
M 3366 4563 
L 3366 3988 
Q 3128 4100 2886 4159 
Q 2644 4219 2406 4219 
Q 1781 4219 1451 3797 
Q 1122 3375 1075 2522 
Q 1259 2794 1537 2939 
Q 1816 3084 2150 3084 
Q 2853 3084 3261 2657 
Q 3669 2231 3669 1497 
Q 3669 778 3244 343 
Q 2819 -91 2113 -91 
Q 1303 -91 875 529 
Q 447 1150 447 2328 
Q 447 3434 972 4092 
Q 1497 4750 2381 4750 
Q 2619 4750 2861 4703 
Q 3103 4656 3366 4563 
z
" transform="scale(0.015625)"/>
          </defs>
          <use xlink:href="#DejaVuSans-36"/>
          <use xlink:href="#DejaVuSans-30" x="63.623047"/>
         </g>
        </g>
       </g>
       <g id="ytick_5">
        <g id="line2d_8">
         <g>
          <use xlink:href="#m816be8186c" x="46.965625" y="108.674087" style="stroke: #000000; stroke-width: 0.8"/>
         </g>
        </g>
        <g id="text_8">
         <!-- 80 -->
         <g transform="translate(27.240625 112.473306) scale(0.1 -0.1)">
          <defs>
           <path id="DejaVuSans-38" d="M 2034 2216 
Q 1584 2216 1326 1975 
Q 1069 1734 1069 1313 
Q 1069 891 1326 650 
Q 1584 409 2034 409 
Q 2484 409 2743 651 
Q 3003 894 3003 1313 
Q 3003 1734 2745 1975 
Q 2488 2216 2034 2216 
z
M 1403 2484 
Q 997 2584 770 2862 
Q 544 3141 544 3541 
Q 544 4100 942 4425 
Q 1341 4750 2034 4750 
Q 2731 4750 3128 4425 
Q 3525 4100 3525 3541 
Q 3525 3141 3298 2862 
Q 3072 2584 2669 2484 
Q 3125 2378 3379 2068 
Q 3634 1759 3634 1313 
Q 3634 634 3220 271 
Q 2806 -91 2034 -91 
Q 1263 -91 848 271 
Q 434 634 434 1313 
Q 434 1759 690 2068 
Q 947 2378 1403 2484 
z
M 1172 3481 
Q 1172 3119 1398 2916 
Q 1625 2713 2034 2713 
Q 2441 2713 2670 2916 
Q 2900 3119 2900 3481 
Q 2900 3844 2670 4047 
Q 2441 4250 2034 4250 
Q 1625 4250 1398 4047 
Q 1172 3844 1172 3481 
z
" transform="scale(0.015625)"/>
          </defs>
          <use xlink:href="#DejaVuSans-38"/>
          <use xlink:href="#DejaVuSans-30" x="63.623047"/>
         </g>
        </g>
       </g>
       <g id="ytick_6">
        <g id="line2d_9">
         <g>
          <use xlink:href="#m816be8186c" x="46.965625" y="56.33714" style="stroke: #000000; stroke-width: 0.8"/>
         </g>
        </g>
        <g id="text_9">
         <!-- 100 -->
         <g transform="translate(20.878125 60.136359) scale(0.1 -0.1)">
          <use xlink:href="#DejaVuSans-31"/>
          <use xlink:href="#DejaVuSans-30" x="63.623047"/>
          <use xlink:href="#DejaVuSans-30" x="127.246094"/>
         </g>
        </g>
       </g>
       <g id="text_10">
        <!-- time ago (years) -->
        <g transform="translate(14.798437 211.603594) rotate(-90) scale(0.1 -0.1)">
         <defs>
          <path id="DejaVuSans-74" d="M 1172 4494 
L 1172 3500 
L 2356 3500 
L 2356 3053 
L 1172 3053 
L 1172 1153 
Q 1172 725 1289 603 
Q 1406 481 1766 481 
L 2356 481 
L 2356 0 
L 1766 0 
Q 1100 0 847 248 
Q 594 497 594 1153 
L 594 3053 
L 172 3053 
L 172 3500 
L 594 3500 
L 594 4494 
L 1172 4494 
z
" transform="scale(0.015625)"/>
          <path id="DejaVuSans-69" d="M 603 3500 
L 1178 3500 
L 1178 0 
L 603 0 
L 603 3500 
z
M 603 4863 
L 1178 4863 
L 1178 4134 
L 603 4134 
L 603 4863 
z
" transform="scale(0.015625)"/>
          <path id="DejaVuSans-20" transform="scale(0.015625)"/>
          <path id="DejaVuSans-61" d="M 2194 1759 
Q 1497 1759 1228 1600 
Q 959 1441 959 1056 
Q 959 750 1161 570 
Q 1363 391 1709 391 
Q 2188 391 2477 730 
Q 2766 1069 2766 1631 
L 2766 1759 
L 2194 1759 
z
M 3341 1997 
L 3341 0 
L 2766 0 
L 2766 531 
Q 2569 213 2275 61 
Q 1981 -91 1556 -91 
Q 1019 -91 701 211 
Q 384 513 384 1019 
Q 384 1609 779 1909 
Q 1175 2209 1959 2209 
L 2766 2209 
L 2766 2266 
Q 2766 2663 2505 2880 
Q 2244 3097 1772 3097 
Q 1472 3097 1187 3025 
Q 903 2953 641 2809 
L 641 3341 
Q 956 3463 1253 3523 
Q 1550 3584 1831 3584 
Q 2591 3584 2966 3190 
Q 3341 2797 3341 1997 
z
" transform="scale(0.015625)"/>
          <path id="DejaVuSans-67" d="M 2906 1791 
Q 2906 2416 2648 2759 
Q 2391 3103 1925 3103 
Q 1463 3103 1205 2759 
Q 947 2416 947 1791 
Q 947 1169 1205 825 
Q 1463 481 1925 481 
Q 2391 481 2648 825 
Q 2906 1169 2906 1791 
z
M 3481 434 
Q 3481 -459 3084 -895 
Q 2688 -1331 1869 -1331 
Q 1566 -1331 1297 -1286 
Q 1028 -1241 775 -1147 
L 775 -588 
Q 1028 -725 1275 -790 
Q 1522 -856 1778 -856 
Q 2344 -856 2625 -561 
Q 2906 -266 2906 331 
L 2906 616 
Q 2728 306 2450 153 
Q 2172 0 1784 0 
Q 1141 0 747 490 
Q 353 981 353 1791 
Q 353 2603 747 3093 
Q 1141 3584 1784 3584 
Q 2172 3584 2450 3431 
Q 2728 3278 2906 2969 
L 2906 3500 
L 3481 3500 
L 3481 434 
z
" transform="scale(0.015625)"/>
          <path id="DejaVuSans-6f" d="M 1959 3097 
Q 1497 3097 1228 2736 
Q 959 2375 959 1747 
Q 959 1119 1226 758 
Q 1494 397 1959 397 
Q 2419 397 2687 759 
Q 2956 1122 2956 1747 
Q 2956 2369 2687 2733 
Q 2419 3097 1959 3097 
z
M 1959 3584 
Q 2709 3584 3137 3096 
Q 3566 2609 3566 1747 
Q 3566 888 3137 398 
Q 2709 -91 1959 -91 
Q 1206 -91 779 398 
Q 353 888 353 1747 
Q 353 2609 779 3096 
Q 1206 3584 1959 3584 
z
" transform="scale(0.015625)"/>
          <path id="DejaVuSans-28" d="M 1984 4856 
Q 1566 4138 1362 3434 
Q 1159 2731 1159 2009 
Q 1159 1288 1364 580 
Q 1569 -128 1984 -844 
L 1484 -844 
Q 1016 -109 783 600 
Q 550 1309 550 2009 
Q 550 2706 781 3412 
Q 1013 4119 1484 4856 
L 1984 4856 
z
" transform="scale(0.015625)"/>
          <path id="DejaVuSans-79" d="M 2059 -325 
Q 1816 -950 1584 -1140 
Q 1353 -1331 966 -1331 
L 506 -1331 
L 506 -850 
L 844 -850 
Q 1081 -850 1212 -737 
Q 1344 -625 1503 -206 
L 1606 56 
L 191 3500 
L 800 3500 
L 1894 763 
L 2988 3500 
L 3597 3500 
L 2059 -325 
z
" transform="scale(0.015625)"/>
          <path id="DejaVuSans-72" d="M 2631 2963 
Q 2534 3019 2420 3045 
Q 2306 3072 2169 3072 
Q 1681 3072 1420 2755 
Q 1159 2438 1159 1844 
L 1159 0 
L 581 0 
L 581 3500 
L 1159 3500 
L 1159 2956 
Q 1341 3275 1631 3429 
Q 1922 3584 2338 3584 
Q 2397 3584 2469 3576 
Q 2541 3569 2628 3553 
L 2631 2963 
z
" transform="scale(0.015625)"/>
          <path id="DejaVuSans-73" d="M 2834 3397 
L 2834 2853 
Q 2591 2978 2328 3040 
Q 2066 3103 1784 3103 
Q 1356 3103 1142 2972 
Q 928 2841 928 2578 
Q 928 2378 1081 2264 
Q 1234 2150 1697 2047 
L 1894 2003 
Q 2506 1872 2764 1633 
Q 3022 1394 3022 966 
Q 3022 478 2636 193 
Q 2250 -91 1575 -91 
Q 1294 -91 989 -36 
Q 684 19 347 128 
L 347 722 
Q 666 556 975 473 
Q 1284 391 1588 391 
Q 1994 391 2212 530 
Q 2431 669 2431 922 
Q 2431 1156 2273 1281 
Q 2116 1406 1581 1522 
L 1381 1569 
Q 847 1681 609 1914 
Q 372 2147 372 2553 
Q 372 3047 722 3315 
Q 1072 3584 1716 3584 
Q 2034 3584 2315 3537 
Q 2597 3491 2834 3397 
z
" transform="scale(0.015625)"/>
          <path id="DejaVuSans-29" d="M 513 4856 
L 1013 4856 
Q 1481 4119 1714 3412 
Q 1947 2706 1947 2009 
Q 1947 1309 1714 600 
Q 1481 -109 1013 -844 
L 513 -844 
Q 928 -128 1133 580 
Q 1338 1288 1338 2009 
Q 1338 2731 1133 3434 
Q 928 4138 513 4856 
z
" transform="scale(0.015625)"/>
         </defs>
         <use xlink:href="#DejaVuSans-74"/>
         <use xlink:href="#DejaVuSans-69" x="39.208984"/>
         <use xlink:href="#DejaVuSans-6d" x="66.992188"/>
         <use xlink:href="#DejaVuSans-65" x="164.404297"/>
         <use xlink:href="#DejaVuSans-20" x="225.927734"/>
         <use xlink:href="#DejaVuSans-61" x="257.714844"/>
         <use xlink:href="#DejaVuSans-67" x="318.994141"/>
         <use xlink:href="#DejaVuSans-6f" x="382.470703"/>
         <use xlink:href="#DejaVuSans-20" x="443.652344"/>
         <use xlink:href="#DejaVuSans-28" x="475.439453"/>
         <use xlink:href="#DejaVuSans-79" x="514.453125"/>
         <use xlink:href="#DejaVuSans-65" x="573.632812"/>
         <use xlink:href="#DejaVuSans-61" x="635.15625"/>
         <use xlink:href="#DejaVuSans-72" x="696.435547"/>
         <use xlink:href="#DejaVuSans-73" x="737.548828"/>
         <use xlink:href="#DejaVuSans-29" x="789.648438"/>
        </g>
       </g>
      </g>
      <path d="M 257.619695 192.261481 
L 255.619695 191.261481 
L 255.619695 193.261481 
z
" clip-path="url(#p2c4840e19c)" style="fill: #1f77b4; fill-opacity: 0.5; stroke: #1f77b4; stroke-opacity: 0.5; stroke-linejoin: miter"/>
      <path d="M 257.619695 287.530956 
L 255.619695 286.530956 
L 255.619695 288.530956 
z
" clip-path="url(#p2c4840e19c)" style="fill: #1f77b4; fill-opacity: 0.5; stroke: #1f77b4; stroke-opacity: 0.5; stroke-linejoin: miter"/>
      <path d="M 257.619695 90.64512 
L 255.619695 89.64512 
L 255.619695 91.64512 
z
" clip-path="url(#p2c4840e19c)" style="fill: #1f77b4; fill-opacity: 0.5; stroke: #1f77b4; stroke-opacity: 0.5; stroke-linejoin: miter"/>
      <path d="M 257.619695 296.373141 
L 255.619695 295.373141 
L 255.619695 297.373141 
z
" clip-path="url(#p2c4840e19c)" style="fill: #1f77b4; fill-opacity: 0.5; stroke: #1f77b4; stroke-opacity: 0.5; stroke-linejoin: miter"/>
      <path d="M 257.619695 107.325198 
L 255.619695 106.325198 
L 255.619695 108.325198 
z
" clip-path="url(#p2c4840e19c)" style="fill: #1f77b4; fill-opacity: 0.5; stroke: #1f77b4; stroke-opacity: 0.5; stroke-linejoin: miter"/>
      <path d="M 257.619695 109.463107 
L 255.619695 108.463107 
L 255.619695 110.463107 
z
" clip-path="url(#p2c4840e19c)" style="fill: #1f77b4; fill-opacity: 0.5; stroke: #1f77b4; stroke-opacity: 0.5; stroke-linejoin: miter"/>
      <path d="M 257.619695 165.177026 
L 255.619695 164.177026 
L 255.619695 166.177026 
z
" clip-path="url(#p2c4840e19c)" style="fill: #1f77b4; fill-opacity: 0.5; stroke: #1f77b4; stroke-opacity: 0.5; stroke-linejoin: miter"/>
      <path d="M 257.619695 25.560933 
L 255.619695 24.560933 
L 255.619695 26.560933 
z
" clip-path="url(#p2c4840e19c)" style="fill: #1f77b4; fill-opacity: 0.5; stroke: #1f77b4; stroke-opacity: 0.5; stroke-linejoin: miter"/>
      <path d="M 257.619695 185.965045 
L 255.619695 184.965045 
L 255.619695 186.965045 
z
" clip-path="url(#p2c4840e19c)" style="fill: #1f77b4; fill-opacity: 0.5; stroke: #1f77b4; stroke-opacity: 0.5; stroke-linejoin: miter"/>
      <path d="M 257.619695 179.191892 
L 255.619695 178.191892 
L 255.619695 180.191892 
z
" clip-path="url(#p2c4840e19c)" style="fill: #1f77b4; fill-opacity: 0.5; stroke: #1f77b4; stroke-opacity: 0.5; stroke-linejoin: miter"/>
      <path d="M 199.299442 106.57584 
L 201.299442 107.57584 
L 201.299442 105.57584 
z
" clip-path="url(#p2c4840e19c)" style="fill: #ff7f0e; fill-opacity: 0.5; stroke: #ff7f0e; stroke-opacity: 0.5; stroke-linejoin: miter"/>
      <path d="M 199.299442 213.479548 
L 201.299442 214.479548 
L 201.299442 212.479548 
z
" clip-path="url(#p2c4840e19c)" style="fill: #ff7f0e; fill-opacity: 0.5; stroke: #ff7f0e; stroke-opacity: 0.5; stroke-linejoin: miter"/>
      <path d="M 199.299442 214.520393 
L 201.299442 215.520393 
L 201.299442 213.520393 
z
" clip-path="url(#p2c4840e19c)" style="fill: #ff7f0e; fill-opacity: 0.5; stroke: #ff7f0e; stroke-opacity: 0.5; stroke-linejoin: miter"/>
      <path d="M 199.299442 314.243417 
L 201.299442 315.243417 
L 201.299442 313.243417 
z
" clip-path="url(#p2c4840e19c)" style="fill: #ff7f0e; fill-opacity: 0.5; stroke: #ff7f0e; stroke-opacity: 0.5; stroke-linejoin: miter"/>
      <path d="M 199.299442 178.184228 
L 201.299442 179.184228 
L 201.299442 177.184228 
z
" clip-path="url(#p2c4840e19c)" style="fill: #ff7f0e; fill-opacity: 0.5; stroke: #ff7f0e; stroke-opacity: 0.5; stroke-linejoin: miter"/>
      <path d="M 199.299442 40.663845 
L 201.299442 41.663845 
L 201.299442 39.663845 
z
" clip-path="url(#p2c4840e19c)" style="fill: #ff7f0e; fill-opacity: 0.5; stroke: #ff7f0e; stroke-opacity: 0.5; stroke-linejoin: miter"/>
      <path d="M 199.299442 200.498416 
L 201.299442 201.498416 
L 201.299442 199.498416 
z
" clip-path="url(#p2c4840e19c)" style="fill: #ff7f0e; fill-opacity: 0.5; stroke: #ff7f0e; stroke-opacity: 0.5; stroke-linejoin: miter"/>
      <path d="M 199.299442 158.741936 
L 201.299442 159.741936 
L 201.299442 157.741936 
z
" clip-path="url(#p2c4840e19c)" style="fill: #ff7f0e; fill-opacity: 0.5; stroke: #ff7f0e; stroke-opacity: 0.5; stroke-linejoin: miter"/>
      <path d="M 199.299442 64.788385 
L 201.299442 65.788385 
L 201.299442 63.788385 
z
" clip-path="url(#p2c4840e19c)" style="fill: #ff7f0e; fill-opacity: 0.5; stroke: #ff7f0e; stroke-opacity: 0.5; stroke-linejoin: miter"/>
      <path d="M 199.299442 98.339627 
L 201.299442 99.339627 
L 201.299442 97.339627 
z
" clip-path="url(#p2c4840e19c)" style="fill: #ff7f0e; fill-opacity: 0.5; stroke: #ff7f0e; stroke-opacity: 0.5; stroke-linejoin: miter"/>
      <path d="M 447.666183 310.715376 
L 445.666183 309.715376 
L 445.666183 311.715376 
z
" clip-path="url(#p2c4840e19c)" style="fill: #ff7f0e; fill-opacity: 0.5; stroke: #ff7f0e; stroke-opacity: 0.5; stroke-linejoin: miter"/>
      <path d="M 447.666183 181.240701 
L 445.666183 180.240701 
L 445.666183 182.240701 
z
" clip-path="url(#p2c4840e19c)" style="fill: #ff7f0e; fill-opacity: 0.5; stroke: #ff7f0e; stroke-opacity: 0.5; stroke-linejoin: miter"/>
      <path d="M 447.666183 270.613645 
L 445.666183 269.613645 
L 445.666183 271.613645 
z
" clip-path="url(#p2c4840e19c)" style="fill: #ff7f0e; fill-opacity: 0.5; stroke: #ff7f0e; stroke-opacity: 0.5; stroke-linejoin: miter"/>
      <path d="M 447.666183 285.648561 
L 445.666183 284.648561 
L 445.666183 286.648561 
z
" clip-path="url(#p2c4840e19c)" style="fill: #ff7f0e; fill-opacity: 0.5; stroke: #ff7f0e; stroke-opacity: 0.5; stroke-linejoin: miter"/>
      <path d="M 447.666183 288.148203 
L 445.666183 287.148203 
L 445.666183 289.148203 
z
" clip-path="url(#p2c4840e19c)" style="fill: #ff7f0e; fill-opacity: 0.5; stroke: #ff7f0e; stroke-opacity: 0.5; stroke-linejoin: miter"/>
      <path d="M 447.666183 87.156395 
L 445.666183 86.156395 
L 445.666183 88.156395 
z
" clip-path="url(#p2c4840e19c)" style="fill: #ff7f0e; fill-opacity: 0.5; stroke: #ff7f0e; stroke-opacity: 0.5; stroke-linejoin: miter"/>
      <path d="M 447.666183 203.223143 
L 445.666183 202.223143 
L 445.666183 204.223143 
z
" clip-path="url(#p2c4840e19c)" style="fill: #ff7f0e; fill-opacity: 0.5; stroke: #ff7f0e; stroke-opacity: 0.5; stroke-linejoin: miter"/>
      <path d="M 447.666183 114.656192 
L 445.666183 113.656192 
L 445.666183 115.656192 
z
" clip-path="url(#p2c4840e19c)" style="fill: #ff7f0e; fill-opacity: 0.5; stroke: #ff7f0e; stroke-opacity: 0.5; stroke-linejoin: miter"/>
      <path d="M 447.666183 92.829995 
L 445.666183 91.829995 
L 445.666183 93.829995 
z
" clip-path="url(#p2c4840e19c)" style="fill: #ff7f0e; fill-opacity: 0.5; stroke: #ff7f0e; stroke-opacity: 0.5; stroke-linejoin: miter"/>
      <path d="M 447.666183 172.037484 
L 445.666183 171.037484 
L 445.666183 173.037484 
z
" clip-path="url(#p2c4840e19c)" style="fill: #ff7f0e; fill-opacity: 0.5; stroke: #ff7f0e; stroke-opacity: 0.5; stroke-linejoin: miter"/>
      <path d="M 389.34593 188.400486 
L 391.34593 189.400486 
L 391.34593 187.400486 
z
" clip-path="url(#p2c4840e19c)" style="fill: #2ca02c; fill-opacity: 0.5; stroke: #2ca02c; stroke-opacity: 0.5; stroke-linejoin: miter"/>
      <path d="M 389.34593 30.303111 
L 391.34593 31.303111 
L 391.34593 29.303111 
z
" clip-path="url(#p2c4840e19c)" style="fill: #2ca02c; fill-opacity: 0.5; stroke: #2ca02c; stroke-opacity: 0.5; stroke-linejoin: miter"/>
      <path d="M 389.34593 142.440929 
L 391.34593 143.440929 
L 391.34593 141.440929 
z
" clip-path="url(#p2c4840e19c)" style="fill: #2ca02c; fill-opacity: 0.5; stroke: #2ca02c; stroke-opacity: 0.5; stroke-linejoin: miter"/>
      <path d="M 389.34593 90.57022 
L 391.34593 91.57022 
L 391.34593 89.57022 
z
" clip-path="url(#p2c4840e19c)" style="fill: #2ca02c; fill-opacity: 0.5; stroke: #2ca02c; stroke-opacity: 0.5; stroke-linejoin: miter"/>
      <path d="M 389.34593 264.667847 
L 391.34593 265.667847 
L 391.34593 263.667847 
z
" clip-path="url(#p2c4840e19c)" style="fill: #2ca02c; fill-opacity: 0.5; stroke: #2ca02c; stroke-opacity: 0.5; stroke-linejoin: miter"/>
      <path d="M 389.34593 165.116878 
L 391.34593 166.116878 
L 391.34593 164.116878 
z
" clip-path="url(#p2c4840e19c)" style="fill: #2ca02c; fill-opacity: 0.5; stroke: #2ca02c; stroke-opacity: 0.5; stroke-linejoin: miter"/>
      <path d="M 389.34593 197.158016 
L 391.34593 198.158016 
L 391.34593 196.158016 
z
" clip-path="url(#p2c4840e19c)" style="fill: #2ca02c; fill-opacity: 0.5; stroke: #2ca02c; stroke-opacity: 0.5; stroke-linejoin: miter"/>
      <path d="M 389.34593 185.651614 
L 391.34593 186.651614 
L 391.34593 184.651614 
z
" clip-path="url(#p2c4840e19c)" style="fill: #2ca02c; fill-opacity: 0.5; stroke: #2ca02c; stroke-opacity: 0.5; stroke-linejoin: miter"/>
      <path d="M 389.34593 99.154742 
L 391.34593 100.154742 
L 391.34593 98.154742 
z
" clip-path="url(#p2c4840e19c)" style="fill: #2ca02c; fill-opacity: 0.5; stroke: #2ca02c; stroke-opacity: 0.5; stroke-linejoin: miter"/>
      <path d="M 389.34593 23.993857 
L 391.34593 24.993857 
L 391.34593 22.993857 
z
" clip-path="url(#p2c4840e19c)" style="fill: #2ca02c; fill-opacity: 0.5; stroke: #2ca02c; stroke-opacity: 0.5; stroke-linejoin: miter"/>
      <g id="patch_6">
       <path d="M 46.965625 318.021875 
L 46.965625 22.318125 
" style="fill: none; stroke: #000000; stroke-width: 0.8; stroke-linejoin: miter; stroke-linecap: square"/>
      </g>
      <g id="text_11">
       <!-- stepping_stone_model.yaml -->
       <g transform="translate(239.443437 16.318125) scale(0.12 -0.12)">
        <defs>
         <path id="DejaVuSans-70" d="M 1159 525 
L 1159 -1331 
L 581 -1331 
L 581 3500 
L 1159 3500 
L 1159 2969 
Q 1341 3281 1617 3432 
Q 1894 3584 2278 3584 
Q 2916 3584 3314 3078 
Q 3713 2572 3713 1747 
Q 3713 922 3314 415 
Q 2916 -91 2278 -91 
Q 1894 -91 1617 61 
Q 1341 213 1159 525 
z
M 3116 1747 
Q 3116 2381 2855 2742 
Q 2594 3103 2138 3103 
Q 1681 3103 1420 2742 
Q 1159 2381 1159 1747 
Q 1159 1113 1420 752 
Q 1681 391 2138 391 
Q 2594 391 2855 752 
Q 3116 1113 3116 1747 
z
" transform="scale(0.015625)"/>
         <path id="DejaVuSans-6e" d="M 3513 2113 
L 3513 0 
L 2938 0 
L 2938 2094 
Q 2938 2591 2744 2837 
Q 2550 3084 2163 3084 
Q 1697 3084 1428 2787 
Q 1159 2491 1159 1978 
L 1159 0 
L 581 0 
L 581 3500 
L 1159 3500 
L 1159 2956 
Q 1366 3272 1645 3428 
Q 1925 3584 2291 3584 
Q 2894 3584 3203 3211 
Q 3513 2838 3513 2113 
z
" transform="scale(0.015625)"/>
         <path id="DejaVuSans-5f" d="M 3263 -1063 
L 3263 -1509 
L -63 -1509 
L -63 -1063 
L 3263 -1063 
z
" transform="scale(0.015625)"/>
         <path id="DejaVuSans-6c" d="M 603 4863 
L 1178 4863 
L 1178 0 
L 603 0 
L 603 4863 
z
" transform="scale(0.015625)"/>
         <path id="DejaVuSans-2e" d="M 684 794 
L 1344 794 
L 1344 0 
L 684 0 
L 684 794 
z
" transform="scale(0.015625)"/>
        </defs>
        <use xlink:href="#DejaVuSans-73"/>
        <use xlink:href="#DejaVuSans-74" x="52.099609"/>
        <use xlink:href="#DejaVuSans-65" x="91.308594"/>
        <use xlink:href="#DejaVuSans-70" x="152.832031"/>
        <use xlink:href="#DejaVuSans-70" x="216.308594"/>
        <use xlink:href="#DejaVuSans-69" x="279.785156"/>
        <use xlink:href="#DejaVuSans-6e" x="307.568359"/>
        <use xlink:href="#DejaVuSans-67" x="370.947266"/>
        <use xlink:href="#DejaVuSans-5f" x="434.423828"/>
        <use xlink:href="#DejaVuSans-73" x="484.423828"/>
        <use xlink:href="#DejaVuSans-74" x="536.523438"/>
        <use xlink:href="#DejaVuSans-6f" x="575.732422"/>
        <use xlink:href="#DejaVuSans-6e" x="636.914062"/>
        <use xlink:href="#DejaVuSans-65" x="700.292969"/>
        <use xlink:href="#DejaVuSans-5f" x="761.816406"/>
        <use xlink:href="#DejaVuSans-6d" x="811.816406"/>
        <use xlink:href="#DejaVuSans-6f" x="909.228516"/>
        <use xlink:href="#DejaVuSans-64" x="970.410156"/>
        <use xlink:href="#DejaVuSans-65" x="1033.886719"/>
        <use xlink:href="#DejaVuSans-6c" x="1095.410156"/>
        <use xlink:href="#DejaVuSans-2e" x="1123.193359"/>
        <use xlink:href="#DejaVuSans-79" x="1154.980469"/>
        <use xlink:href="#DejaVuSans-61" x="1214.160156"/>
        <use xlink:href="#DejaVuSans-6d" x="1275.439453"/>
        <use xlink:href="#DejaVuSans-6c" x="1372.851562"/>
       </g>
      </g>
     </g>
    </g>
    <defs>
     <clipPath id="p2c4840e19c">
      <rect x="46.965625" y="22.318125" width="553.034375" height="295.70375"/>
     </clipPath>
    </defs>
   </g>
  </g>
 </g>
</svg>