<?xml version="1.0" encoding="utf-8" standalone="no"?>
<!DOCTYPE svg PUBLIC "-//W3C//DTD SVG 1.1//EN"
  "http://www.w3.org/Graphics/SVG/1.1/DTD/svg11.dtd">
<svg xmlns:xlink="http://www.w3.org/1999/xlink" width="607.2pt" height="338.4pt" viewBox="0 0 607.2 338.4" xmlns="http://www.w3.org/2000/svg" version="1.1">
 <metadata>
  <rdf:RDF xmlns:dc="http://purl.org/dc/elements/1.1/" xmlns:cc="http://creativecommons.org/ns#" xmlns:rdf="http://www.w3.org/1999/02/22-rdf-syntax-ns#">
   <cc:Work>
    <dc:type rdf:resource="http://purl.org/dc/dcmitype/StillImage"/>
    <dc:date>2025-12-15T08:12:21.029977</dc:date>
    <dc:format>image/svg+xml</dc:format>
    <dc:creator>
     <cc:Agent>
      <dc:title>Matplotlib v3.10.7, https://matplotlib.org/</dc:title>
     </cc:Agent>
    </dc:creator>
   </cc:Work>
  </rdf:RDF>
 </metadata>
 <defs>
  <style type="text/css">*{stroke-linejoin: round; stroke-linecap: butt}</style>
 </defs>
 <g id="figure_1">
  <g id="patch_1">
   <path d="M 0 338.4 
L 607.2 338.4 
L 607.2 0 
L 0 0 
z
" style="fill: #ffffff"/>
  </g>
  <g id="axes_1">
   <g id="patch_2">
    <path d="M 43.78125 318.021875 
L 600 318.021875 
L 600 22.318125 
L 43.78125 22.318125 
z
" style="fill: #ffffff"/>
   </g>
   <g id="line2d_1">
    <path d="M 197.982246 184.536402 
L 198.982246 184.567838 
L 199.982246 184.604778 
L 200.982246 184.702525 
L 201.982246 184.735046 
L 202.982246 184.808671 
L 203.982246 184.847237 
L 204.982246 184.88265 
L 205.982246 184.94029 
L 206.982246 185.010676 
L 207.982246 185.06264 
L 208.982246 185.12173 
L 209.982246 185.210051 
L 210.982246 185.256195 
L 211.982246 185.298606 
L 212.982246 185.329099 
L 213.982246 185.355144 
L 214.982246 185.376344 
L 215.982246 185.430645 
L 216.982246 185.458583 
L 217.982246 185.488307 
L 218.982246 185.513701 
L 219.982246 185.524902 
L 220.982246 185.535026 
L 221.982246 185.534821 
L 222.982246 185.525311 
L 223.982246 185.513658 
L 224.982246 185.482629 
L 225.982246 185.471461 
L 226.982246 185.441343 
L 227.982246 185.381566 
L 228.982246 185.344375 
L 229.982246 185.305279 
L 230.982246 185.262839 
L 231.982246 185.230074 
L 232.982246 185.162647 
L 233.982246 185.123521 
L 234.982246 185.080847 
L 235.982246 185.010266 
L 236.982246 184.973875 
L 237.982246 184.915472 
L 238.982246 184.80452 
L 239.982246 184.733861 
L 240.982246 184.620922 
L 241.982246 184.575149 
L 242.982246 184.513865 
L 243.982246 184.465366 
L 244.982246 184.384543 
L 245.982246 184.266025 
L 246.982246 184.195814 
L 247.982246 184.112551 
L 248.982246 184.07941 
L 249.982246 184.028172 
L 250.982246 183.959774 
L 251.982246 183.893559 
L 252.982246 183.816641 
L 254.650368 183.789326 
" clip-path="url(#p0f793ded38)" style="fill: none; stroke: #1f77b4; stroke-opacity: 0.5; stroke-width: 0.2; stroke-linecap: square"/>
   </g>
   <g id="line2d_2">
    <path d="M 197.982246 180.364019 
L 198.982246 180.395455 
L 199.982246 180.432395 
L 200.982246 180.530142 
L 201.982246 180.562664 
L 202.982246 180.636288 
L 203.982246 180.674854 
L 204.982246 180.710267 
L 205.982246 180.767907 
L 206.982246 180.838293 
L 207.982246 180.890257 
L 208.982246 180.949347 
L 209.982246 181.037668 
L 210.982246 181.083812 
L 211.982246 181.126223 
L 212.982246 181.156716 
L 213.982246 181.182761 
L 214.982246 181.203961 
L 215.982246 181.258262 
L 216.982246 181.2862 
L 217.982246 181.315924 
L 218.982246 181.341318 
L 219.982246 181.352519 
L 220.982246 181.362643 
L 221.982246 181.362438 
L 222.982246 181.352929 
L 223.982246 181.341275 
L 224.982246 181.310246 
L 225.982246 181.299078 
L 226.982246 181.26896 
L 227.982246 181.209183 
L 228.982246 181.171992 
L 229.982246 181.132896 
L 230.982246 181.090456 
L 231.982246 181.057691 
L 232.982246 180.990265 
L 233.982246 180.951139 
L 234.982246 180.908464 
L 235.982246 180.837883 
L 236.982246 180.801493 
L 237.982246 180.743089 
L 238.982246 180.632137 
L 239.982246 180.561479 
L 240.982246 180.448539 
L 241.982246 180.402766 
L 242.982246 180.341483 
L 243.982246 180.292983 
L 244.982246 180.212161 
L 245.982246 180.093642 
L 246.982246 180.023431 
L 247.982246 179.940169 
L 248.982246 179.907027 
L 249.982246 179.855789 
L 250.982246 179.787391 
L 251.982246 179.721176 
L 252.982246 179.644259 
L 254.650368 179.616943 
" clip-path="url(#p0f793ded38)" style="fill: none; stroke: #1f77b4; stroke-opacity: 0.5; stroke-width: 0.2; stroke-linecap: square"/>
   </g>
   <g id="line2d_3">
    <path d="M 197.982246 196.057367 
L 198.982246 196.088803 
L 199.982246 196.125744 
L 200.982246 196.22349 
L 201.982246 196.256012 
L 202.982246 196.329636 
L 203.982246 196.368202 
L 204.982246 196.403615 
L 205.982246 196.461255 
L 206.982246 196.531641 
L 207.982246 196.583606 
L 208.982246 196.642695 
L 209.982246 196.731016 
L 210.982246 196.777161 
L 211.982246 196.819571 
L 212.982246 196.850064 
L 213.982246 196.876109 
L 214.982246 196.897309 
L 215.982246 196.95161 
L 216.982246 196.979548 
L 217.982246 197.009272 
L 218.982246 197.034667 
L 219.982246 197.045867 
L 220.982246 197.055991 
L 221.982246 197.055787 
L 222.982246 197.046277 
L 223.982246 197.034623 
L 224.982246 197.003594 
L 225.982246 196.992426 
L 226.982246 196.962308 
L 227.982246 196.902532 
L 228.982246 196.86534 
L 229.982246 196.826244 
L 230.982246 196.783804 
L 231.982246 196.751039 
L 232.982246 196.683613 
L 233.982246 196.644487 
L 234.982246 196.601812 
L 235.982246 196.531232 
L 236.982246 196.494841 
L 237.982246 196.436438 
L 238.982246 196.325485 
L 239.982246 196.254827 
L 240.982246 196.141887 
L 241.982246 196.096114 
L 242.982246 196.034831 
L 243.982246 195.986331 
L 244.982246 195.905509 
L 245.982246 195.78699 
L 246.982246 195.716779 
L 247.982246 195.633517 
L 248.982246 195.600375 
L 249.982246 195.549138 
L 250.982246 195.480739 
L 251.982246 195.414524 
L 252.982246 195.337607 
L 254.650368 195.310291 
" clip-path="url(#p0f793ded38)" style="fill: none; stroke: #1f77b4; stroke-opacity: 0.5; stroke-width: 0.2; stroke-linecap: square"/>
   </g>
   <g id="line2d_4">
    <path d="M 197.982246 176.01074 
L 198.982246 176.042176 
L 199.982246 176.079117 
L 200.982246 176.176863 
L 201.982246 176.209385 
L 202.982246 176.283009 
L 203.982246 176.321575 
L 204.982246 176.356988 
L 205.982246 176.414628 
L 206.982246 176.485014 
L 207.982246 176.536979 
L 208.982246 176.596068 
L 209.982246 176.684389 
L 210.982246 176.730534 
L 211.982246 176.772944 
L 212.982246 176.803437 
L 213.982246 176.829482 
L 214.982246 176.850682 
L 215.982246 176.904983 
L 216.982246 176.932921 
L 217.982246 176.962645 
L 218.982246 176.98804 
L 219.982246 176.99924 
L 220.982246 177.009364 
L 221.982246 177.00916 
L 222.982246 176.99965 
L 223.982246 176.987996 
L 224.982246 176.956967 
L 225.982246 176.945799 
L 226.982246 176.915681 
L 227.982246 176.855905 
L 228.982246 176.818713 
L 229.982246 176.779617 
L 230.982246 176.737177 
L 231.982246 176.704412 
L 232.982246 176.636986 
L 233.982246 176.59786 
L 234.982246 176.555185 
L 235.982246 176.484605 
L 236.982246 176.448214 
L 237.982246 176.389811 
L 238.982246 176.278858 
L 239.982246 176.2082 
L 240.982246 176.09526 
L 241.982246 176.049487 
L 242.982246 175.988204 
L 243.982246 175.939704 
L 244.982246 175.858882 
L 245.982246 175.740363 
L 246.982246 175.670152 
L 247.982246 175.58689 
L 248.982246 175.553748 
L 249.982246 175.502511 
L 250.982246 175.434112 
L 251.982246 175.367897 
L 252.982246 175.29098 
L 254.650368 175.263664 
" clip-path="url(#p0f793ded38)" style="fill: none; stroke: #1f77b4; stroke-opacity: 0.5; stroke-width: 0.2; stroke-linecap: square"/>
   </g>
   <g id="line2d_5">
    <path d="M 197.982246 161.252498 
L 198.982246 161.283934 
L 199.982246 161.320874 
L 200.982246 161.418621 
L 201.982246 161.451142 
L 202.982246 161.524767 
L 203.982246 161.563333 
L 204.982246 161.598746 
L 205.982246 161.656386 
L 206.982246 161.726772 
L 207.982246 161.778736 
L 208.982246 161.837826 
L 209.982246 161.926147 
L 210.982246 161.972291 
L 211.982246 162.014702 
L 212.982246 162.045195 
L 213.982246 162.07124 
L 214.982246 162.09244 
L 215.982246 162.146741 
L 216.982246 162.174679 
L 217.982246 162.204403 
L 218.982246 162.229797 
L 219.982246 162.240998 
L 220.982246 162.251122 
L 221.982246 162.250917 
L 222.982246 162.241407 
L 223.982246 162.229754 
L 224.982246 162.198725 
L 225.982246 162.187557 
L 226.982246 162.157439 
L 227.982246 162.097662 
L 228.982246 162.060471 
L 229.982246 162.021375 
L 230.982246 161.978935 
L 231.982246 161.94617 
L 232.982246 161.878743 
L 233.982246 161.839618 
L 234.982246 161.796943 
L 235.982246 161.726362 
L 236.982246 161.689972 
L 237.982246 161.631568 
L 238.982246 161.520616 
L 239.982246 161.449957 
L 240.982246 161.337018 
L 241.982246 161.291245 
L 242.982246 161.229961 
L 243.982246 161.181462 
L 244.982246 161.100639 
L 245.982246 160.982121 
L 246.982246 160.91191 
L 247.982246 160.828647 
L 248.982246 160.795506 
L 249.982246 160.744268 
L 250.982246 160.67587 
L 251.982246 160.609655 
L 252.982246 160.532738 
L 254.650368 160.505422 
" clip-path="url(#p0f793ded38)" style="fill: none; stroke: #1f77b4; stroke-opacity: 0.5; stroke-width: 0.2; stroke-linecap: square"/>
   </g>
   <g id="line2d_6">
    <path d="M 197.982246 178.644915 
L 198.982246 178.676352 
L 199.982246 178.713292 
L 200.982246 178.811039 
L 201.982246 178.84356 
L 202.982246 178.917185 
L 203.982246 178.955751 
L 204.982246 178.991164 
L 205.982246 179.048804 
L 206.982246 179.11919 
L 207.982246 179.171154 
L 208.982246 179.230244 
L 209.982246 179.318565 
L 210.982246 179.364709 
L 211.982246 179.40712 
L 212.982246 179.437613 
L 213.982246 179.463658 
L 214.982246 179.484858 
L 215.982246 179.539159 
L 216.982246 179.567096 
L 217.982246 179.59682 
L 218.982246 179.622215 
L 219.982246 179.633416 
L 220.982246 179.64354 
L 221.982246 179.643335 
L 222.982246 179.633825 
L 223.982246 179.622172 
L 224.982246 179.591143 
L 225.982246 179.579975 
L 226.982246 179.549857 
L 227.982246 179.49008 
L 228.982246 179.452889 
L 229.982246 179.413793 
L 230.982246 179.371353 
L 231.982246 179.338588 
L 232.982246 179.271161 
L 233.982246 179.232035 
L 234.982246 179.189361 
L 235.982246 179.11878 
L 236.982246 179.082389 
L 237.982246 179.023986 
L 238.982246 178.913034 
L 239.982246 178.842375 
L 240.982246 178.729435 
L 241.982246 178.683663 
L 242.982246 178.622379 
L 243.982246 178.57388 
L 244.982246 178.493057 
L 245.982246 178.374538 
L 246.982246 178.304328 
L 247.982246 178.221065 
L 248.982246 178.187924 
L 249.982246 178.136686 
L 250.982246 178.068288 
L 251.982246 178.002072 
L 252.982246 177.925155 
L 254.650368 177.89784 
" clip-path="url(#p0f793ded38)" style="fill: none; stroke: #1f77b4; stroke-opacity: 0.5; stroke-width: 0.2; stroke-linecap: square"/>
   </g>
   <g id="line2d_7">
    <path d="M 197.982246 164.049205 
L 198.982246 164.080642 
L 199.982246 164.117582 
L 200.982246 164.215329 
L 201.982246 164.24785 
L 202.982246 164.321475 
L 203.982246 164.360041 
L 204.982246 164.395454 
L 205.982246 164.453094 
L 206.982246 164.52348 
L 207.982246 164.575444 
L 208.982246 164.634534 
L 209.982246 164.722855 
L 210.982246 164.768999 
L 211.982246 164.81141 
L 212.982246 164.841903 
L 213.982246 164.867948 
L 214.982246 164.889148 
L 215.982246 164.943449 
L 216.982246 164.971386 
L 217.982246 165.00111 
L 218.982246 165.026505 
L 219.982246 165.037706 
L 220.982246 165.04783 
L 221.982246 165.047625 
L 222.982246 165.038115 
L 223.982246 165.026462 
L 224.982246 164.995433 
L 225.982246 164.984265 
L 226.982246 164.954147 
L 227.982246 164.89437 
L 228.982246 164.857179 
L 229.982246 164.818083 
L 230.982246 164.775643 
L 231.982246 164.742878 
L 232.982246 164.675451 
L 233.982246 164.636325 
L 234.982246 164.593651 
L 235.982246 164.52307 
L 236.982246 164.486679 
L 237.982246 164.428276 
L 238.982246 164.317324 
L 239.982246 164.246665 
L 240.982246 164.133725 
L 241.982246 164.087953 
L 242.982246 164.026669 
L 243.982246 163.97817 
L 244.982246 163.897347 
L 245.982246 163.778828 
L 246.982246 163.708618 
L 247.982246 163.625355 
L 248.982246 163.592214 
L 249.982246 163.540976 
L 250.982246 163.472578 
L 251.982246 163.406362 
L 252.982246 163.329445 
L 254.650368 163.30213 
" clip-path="url(#p0f793ded38)" style="fill: none; stroke: #1f77b4; stroke-opacity: 0.5; stroke-width: 0.2; stroke-linecap: square"/>
   </g>
   <g id="line2d_8">
    <path d="M 197.982246 178.293533 
L 198.982246 178.324969 
L 199.982246 178.36191 
L 200.982246 178.459656 
L 201.982246 178.492178 
L 202.982246 178.565802 
L 203.982246 178.604368 
L 204.982246 178.639781 
L 205.982246 178.697421 
L 206.982246 178.767807 
L 207.982246 178.819772 
L 208.982246 178.878861 
L 209.982246 178.967182 
L 210.982246 179.013327 
L 211.982246 179.055737 
L 212.982246 179.08623 
L 213.982246 179.112275 
L 214.982246 179.133475 
L 215.982246 179.187776 
L 216.982246 179.215714 
L 217.982246 179.245438 
L 218.982246 179.270833 
L 219.982246 179.282033 
L 220.982246 179.292157 
L 221.982246 179.291953 
L 222.982246 179.282443 
L 223.982246 179.270789 
L 224.982246 179.23976 
L 225.982246 179.228592 
L 226.982246 179.198475 
L 227.982246 179.138698 
L 228.982246 179.101506 
L 229.982246 179.06241 
L 230.982246 179.01997 
L 231.982246 178.987205 
L 232.982246 178.919779 
L 233.982246 178.880653 
L 234.982246 178.837978 
L 235.982246 178.767398 
L 236.982246 178.731007 
L 237.982246 178.672604 
L 238.982246 178.561651 
L 239.982246 178.490993 
L 240.982246 178.378053 
L 241.982246 178.33228 
L 242.982246 178.270997 
L 243.982246 178.222497 
L 244.982246 178.141675 
L 245.982246 178.023156 
L 246.982246 177.952945 
L 247.982246 177.869683 
L 248.982246 177.836541 
L 249.982246 177.785304 
L 250.982246 177.716905 
L 251.982246 177.65069 
L 252.982246 177.573773 
L 254.650368 177.546457 
" clip-path="url(#p0f793ded38)" style="fill: none; stroke: #1f77b4; stroke-opacity: 0.5; stroke-width: 0.2; stroke-linecap: square"/>
   </g>
   <g id="line2d_9">
    <path d="M 197.982246 177.500268 
L 198.982246 177.531704 
L 199.982246 177.568645 
L 200.982246 177.666391 
L 201.982246 177.698913 
L 202.982246 177.772537 
L 203.982246 177.811103 
L 204.982246 177.846516 
L 205.982246 177.904156 
L 206.982246 177.974542 
L 207.982246 178.026506 
L 208.982246 178.085596 
L 209.982246 178.173917 
L 210.982246 178.220061 
L 211.982246 178.262472 
L 212.982246 178.292965 
L 213.982246 178.31901 
L 214.982246 178.34021 
L 215.982246 178.394511 
L 216.982246 178.422449 
L 217.982246 178.452173 
L 218.982246 178.477568 
L 219.982246 178.488768 
L 220.982246 178.498892 
L 221.982246 178.498688 
L 222.982246 178.489178 
L 223.982246 178.477524 
L 224.982246 178.446495 
L 225.982246 178.435327 
L 226.982246 178.405209 
L 227.982246 178.345432 
L 228.982246 178.308241 
L 229.982246 178.269145 
L 230.982246 178.226705 
L 231.982246 178.19394 
L 232.982246 178.126514 
L 233.982246 178.087388 
L 234.982246 178.044713 
L 235.982246 177.974133 
L 236.982246 177.937742 
L 237.982246 177.879339 
L 238.982246 177.768386 
L 239.982246 177.697728 
L 240.982246 177.584788 
L 241.982246 177.539015 
L 242.982246 177.477732 
L 243.982246 177.429232 
L 244.982246 177.34841 
L 245.982246 177.229891 
L 246.982246 177.15968 
L 247.982246 177.076418 
L 248.982246 177.043276 
L 249.982246 176.992039 
L 250.982246 176.92364 
L 251.982246 176.857425 
L 252.982246 176.780508 
L 254.650368 176.753192 
" clip-path="url(#p0f793ded38)" style="fill: none; stroke: #1f77b4; stroke-opacity: 0.5; stroke-width: 0.2; stroke-linecap: square"/>
   </g>
   <g id="line2d_10">
    <path d="M 197.982246 187.399317 
L 198.982246 187.430754 
L 199.982246 187.467694 
L 200.982246 187.56544 
L 201.982246 187.597962 
L 202.982246 187.671587 
L 203.982246 187.710152 
L 204.982246 187.745565 
L 205.982246 187.803205 
L 206.982246 187.873592 
L 207.982246 187.925556 
L 208.982246 187.984646 
L 209.982246 188.072967 
L 210.982246 188.119111 
L 211.982246 188.161522 
L 212.982246 188.192014 
L 213.982246 188.218059 
L 214.982246 188.23926 
L 215.982246 188.293561 
L 216.982246 188.321498 
L 217.982246 188.351222 
L 218.982246 188.376617 
L 219.982246 188.387817 
L 220.982246 188.397941 
L 221.982246 188.397737 
L 222.982246 188.388227 
L 223.982246 188.376574 
L 224.982246 188.345544 
L 225.982246 188.334376 
L 226.982246 188.304259 
L 227.982246 188.244482 
L 228.982246 188.20729 
L 229.982246 188.168194 
L 230.982246 188.125755 
L 231.982246 188.09299 
L 232.982246 188.025563 
L 233.982246 187.986437 
L 234.982246 187.943763 
L 235.982246 187.873182 
L 236.982246 187.836791 
L 237.982246 187.778388 
L 238.982246 187.667435 
L 239.982246 187.596777 
L 240.982246 187.483837 
L 241.982246 187.438064 
L 242.982246 187.376781 
L 243.982246 187.328282 
L 244.982246 187.247459 
L 245.982246 187.12894 
L 246.982246 187.05873 
L 247.982246 186.975467 
L 248.982246 186.942325 
L 249.982246 186.891088 
L 250.982246 186.82269 
L 251.982246 186.756474 
L 252.982246 186.679557 
L 254.650368 186.652242 
" clip-path="url(#p0f793ded38)" style="fill: none; stroke: #1f77b4; stroke-opacity: 0.5; stroke-width: 0.2; stroke-linecap: square"/>
   </g>
   <g id="line2d_11">
    <path d="M 389.130882 137.433403 
L 390.130882 137.46484 
L 391.130882 137.50178 
L 392.130882 137.599527 
L 393.130882 137.632048 
L 394.130882 137.705673 
L 395.130882 137.744239 
L 396.130882 137.779652 
L 397.130882 137.837292 
L 398.130882 137.907678 
L 399.130882 137.959642 
L 400.130882 138.018732 
L 401.130882 138.107053 
L 402.130882 138.153197 
L 403.130882 138.195608 
L 404.130882 138.226101 
L 405.130882 138.252146 
L 406.130882 138.273346 
L 407.130882 138.327647 
L 408.130882 138.355584 
L 409.130882 138.385308 
L 410.130882 138.410703 
L 411.130882 138.421904 
L 412.130882 138.432028 
L 413.130882 138.431823 
L 414.130882 138.422313 
L 415.130882 138.41066 
L 416.130882 138.37963 
L 417.130882 138.368463 
L 418.130882 138.338345 
L 419.130882 138.278568 
L 420.130882 138.241377 
L 421.130882 138.20228 
L 422.130882 138.159841 
L 423.130882 138.127076 
L 424.130882 138.059649 
L 425.130882 138.020523 
L 426.130882 137.977849 
L 427.130882 137.907268 
L 428.130882 137.870877 
L 429.130882 137.812474 
L 430.130882 137.701522 
L 431.130882 137.630863 
L 432.130882 137.517923 
L 433.130882 137.472151 
L 434.130882 137.410867 
L 435.130882 137.362368 
L 436.130882 137.281545 
L 437.130882 137.163026 
L 438.130882 137.092816 
L 439.130882 137.009553 
L 440.130882 136.976412 
L 441.130882 136.925174 
L 442.130882 136.856776 
L 443.130882 136.79056 
L 444.130882 136.713643 
L 445.799004 136.686328 
" clip-path="url(#p0f793ded38)" style="fill: none; stroke: #ff7f0e; stroke-opacity: 0.5; stroke-width: 0.2; stroke-linecap: square"/>
   </g>
   <g id="line2d_12">
    <path d="M 389.130882 139.431076 
L 390.130882 139.462512 
L 391.130882 139.499452 
L 392.130882 139.597199 
L 393.130882 139.629721 
L 394.130882 139.703345 
L 395.130882 139.741911 
L 396.130882 139.777324 
L 397.130882 139.834964 
L 398.130882 139.90535 
L 399.130882 139.957314 
L 400.130882 140.016404 
L 401.130882 140.104725 
L 402.130882 140.150869 
L 403.130882 140.19328 
L 404.130882 140.223773 
L 405.130882 140.249818 
L 406.130882 140.271018 
L 407.130882 140.325319 
L 408.130882 140.353257 
L 409.130882 140.382981 
L 410.130882 140.408375 
L 411.130882 140.419576 
L 412.130882 140.4297 
L 413.130882 140.429495 
L 414.130882 140.419986 
L 415.130882 140.408332 
L 416.130882 140.377303 
L 417.130882 140.366135 
L 418.130882 140.336017 
L 419.130882 140.27624 
L 420.130882 140.239049 
L 421.130882 140.199953 
L 422.130882 140.157513 
L 423.130882 140.124748 
L 424.130882 140.057321 
L 425.130882 140.018196 
L 426.130882 139.975521 
L 427.130882 139.90494 
L 428.130882 139.86855 
L 429.130882 139.810146 
L 430.130882 139.699194 
L 431.130882 139.628536 
L 432.130882 139.515596 
L 433.130882 139.469823 
L 434.130882 139.40854 
L 435.130882 139.36004 
L 436.130882 139.279218 
L 437.130882 139.160699 
L 438.130882 139.090488 
L 439.130882 139.007226 
L 440.130882 138.974084 
L 441.130882 138.922846 
L 442.130882 138.854448 
L 443.130882 138.788233 
L 444.130882 138.711316 
L 445.799004 138.684 
" clip-path="url(#p0f793ded38)" style="fill: none; stroke: #ff7f0e; stroke-opacity: 0.5; stroke-width: 0.2; stroke-linecap: square"/>
   </g>
   <g id="line2d_13">
    <path d="M 389.130882 171.180716 
L 390.130882 171.212152 
L 391.130882 171.249093 
L 392.130882 171.346839 
L 393.130882 171.379361 
L 394.130882 171.452986 
L 395.130882 171.491551 
L 396.130882 171.526964 
L 397.130882 171.584604 
L 398.130882 171.654991 
L 399.130882 171.706955 
L 400.130882 171.766045 
L 401.130882 171.854365 
L 402.130882 171.90051 
L 403.130882 171.942921 
L 404.130882 171.973413 
L 405.130882 171.999458 
L 406.130882 172.020658 
L 407.130882 172.07496 
L 408.130882 172.102897 
L 409.130882 172.132621 
L 410.130882 172.158016 
L 411.130882 172.169216 
L 412.130882 172.17934 
L 413.130882 172.179136 
L 414.130882 172.169626 
L 415.130882 172.157972 
L 416.130882 172.126943 
L 417.130882 172.115775 
L 418.130882 172.085658 
L 419.130882 172.025881 
L 420.130882 171.988689 
L 421.130882 171.949593 
L 422.130882 171.907154 
L 423.130882 171.874388 
L 424.130882 171.806962 
L 425.130882 171.767836 
L 426.130882 171.725162 
L 427.130882 171.654581 
L 428.130882 171.61819 
L 429.130882 171.559787 
L 430.130882 171.448834 
L 431.130882 171.378176 
L 432.130882 171.265236 
L 433.130882 171.219463 
L 434.130882 171.15818 
L 435.130882 171.109681 
L 436.130882 171.028858 
L 437.130882 170.910339 
L 438.130882 170.840128 
L 439.130882 170.756866 
L 440.130882 170.723724 
L 441.130882 170.672487 
L 442.130882 170.604089 
L 443.130882 170.537873 
L 444.130882 170.460956 
L 445.799004 170.433641 
" clip-path="url(#p0f793ded38)" style="fill: none; stroke: #ff7f0e; stroke-opacity: 0.5; stroke-width: 0.2; stroke-linecap: square"/>
   </g>
   <g id="line2d_14">
    <path d="M 389.130882 172.692304 
L 390.130882 172.72374 
L 391.130882 172.760681 
L 392.130882 172.858427 
L 393.130882 172.890949 
L 394.130882 172.964573 
L 395.130882 173.003139 
L 396.130882 173.038552 
L 397.130882 173.096192 
L 398.130882 173.166578 
L 399.130882 173.218543 
L 400.130882 173.277632 
L 401.130882 173.365953 
L 402.130882 173.412098 
L 403.130882 173.454508 
L 404.130882 173.485001 
L 405.130882 173.511046 
L 406.130882 173.532246 
L 407.130882 173.586547 
L 408.130882 173.614485 
L 409.130882 173.644209 
L 410.130882 173.669604 
L 411.130882 173.680804 
L 412.130882 173.690928 
L 413.130882 173.690724 
L 414.130882 173.681214 
L 415.130882 173.66956 
L 416.130882 173.638531 
L 417.130882 173.627363 
L 418.130882 173.597245 
L 419.130882 173.537469 
L 420.130882 173.500277 
L 421.130882 173.461181 
L 422.130882 173.418741 
L 423.130882 173.385976 
L 424.130882 173.31855 
L 425.130882 173.279424 
L 426.130882 173.236749 
L 427.130882 173.166169 
L 428.130882 173.129778 
L 429.130882 173.071375 
L 430.130882 172.960422 
L 431.130882 172.889764 
L 432.130882 172.776824 
L 433.130882 172.731051 
L 434.130882 172.669768 
L 435.130882 172.621268 
L 436.130882 172.540446 
L 437.130882 172.421927 
L 438.130882 172.351716 
L 439.130882 172.268454 
L 440.130882 172.235312 
L 441.130882 172.184075 
L 442.130882 172.115676 
L 443.130882 172.049461 
L 444.130882 171.972544 
L 445.799004 171.945228 
" clip-path="url(#p0f793ded38)" style="fill: none; stroke: #ff7f0e; stroke-opacity: 0.5; stroke-width: 0.2; stroke-linecap: square"/>
   </g>
   <g id="line2d_15">
    <path d="M 389.130882 190.347182 
L 390.130882 190.378618 
L 391.130882 190.415559 
L 392.130882 190.513305 
L 393.130882 190.545827 
L 394.130882 190.619452 
L 395.130882 190.658017 
L 396.130882 190.69343 
L 397.130882 190.75107 
L 398.130882 190.821456 
L 399.130882 190.873421 
L 400.130882 190.93251 
L 401.130882 191.020831 
L 402.130882 191.066976 
L 403.130882 191.109387 
L 404.130882 191.139879 
L 405.130882 191.165924 
L 406.130882 191.187124 
L 407.130882 191.241425 
L 408.130882 191.269363 
L 409.130882 191.299087 
L 410.130882 191.324482 
L 411.130882 191.335682 
L 412.130882 191.345806 
L 413.130882 191.345602 
L 414.130882 191.336092 
L 415.130882 191.324438 
L 416.130882 191.293409 
L 417.130882 191.282241 
L 418.130882 191.252124 
L 419.130882 191.192347 
L 420.130882 191.155155 
L 421.130882 191.116059 
L 422.130882 191.073619 
L 423.130882 191.040854 
L 424.130882 190.973428 
L 425.130882 190.934302 
L 426.130882 190.891627 
L 427.130882 190.821047 
L 428.130882 190.784656 
L 429.130882 190.726253 
L 430.130882 190.6153 
L 431.130882 190.544642 
L 432.130882 190.431702 
L 433.130882 190.385929 
L 434.130882 190.324646 
L 435.130882 190.276147 
L 436.130882 190.195324 
L 437.130882 190.076805 
L 438.130882 190.006594 
L 439.130882 189.923332 
L 440.130882 189.89019 
L 441.130882 189.838953 
L 442.130882 189.770554 
L 443.130882 189.704339 
L 444.130882 189.627422 
L 445.799004 189.600106 
" clip-path="url(#p0f793ded38)" style="fill: none; stroke: #ff7f0e; stroke-opacity: 0.5; stroke-width: 0.2; stroke-linecap: square"/>
   </g>
   <g id="line2d_16">
    <path d="M 389.130882 117.397843 
L 390.130882 117.429279 
L 391.130882 117.466219 
L 392.130882 117.563966 
L 393.130882 117.596488 
L 394.130882 117.670112 
L 395.130882 117.708678 
L 396.130882 117.744091 
L 397.130882 117.801731 
L 398.130882 117.872117 
L 399.130882 117.924081 
L 400.130882 117.983171 
L 401.130882 118.071492 
L 402.130882 118.117636 
L 403.130882 118.160047 
L 404.130882 118.19054 
L 405.130882 118.216585 
L 406.130882 118.237785 
L 407.130882 118.292086 
L 408.130882 118.320024 
L 409.130882 118.349748 
L 410.130882 118.375142 
L 411.130882 118.386343 
L 412.130882 118.396467 
L 413.130882 118.396262 
L 414.130882 118.386753 
L 415.130882 118.375099 
L 416.130882 118.34407 
L 417.130882 118.332902 
L 418.130882 118.302784 
L 419.130882 118.243007 
L 420.130882 118.205816 
L 421.130882 118.16672 
L 422.130882 118.12428 
L 423.130882 118.091515 
L 424.130882 118.024088 
L 425.130882 117.984963 
L 426.130882 117.942288 
L 427.130882 117.871707 
L 428.130882 117.835317 
L 429.130882 117.776913 
L 430.130882 117.665961 
L 431.130882 117.595302 
L 432.130882 117.482363 
L 433.130882 117.43659 
L 434.130882 117.375307 
L 435.130882 117.326807 
L 436.130882 117.245985 
L 437.130882 117.127466 
L 438.130882 117.057255 
L 439.130882 116.973993 
L 440.130882 116.940851 
L 441.130882 116.889613 
L 442.130882 116.821215 
L 443.130882 116.755 
L 444.130882 116.678083 
L 445.799004 116.650767 
" clip-path="url(#p0f793ded38)" style="fill: none; stroke: #ff7f0e; stroke-opacity: 0.5; stroke-width: 0.2; stroke-linecap: square"/>
   </g>
   <g id="line2d_17">
    <path d="M 389.130882 139.372116 
L 390.130882 139.403553 
L 391.130882 139.440493 
L 392.130882 139.538239 
L 393.130882 139.570761 
L 394.130882 139.644386 
L 395.130882 139.682951 
L 396.130882 139.718364 
L 397.130882 139.776004 
L 398.130882 139.846391 
L 399.130882 139.898355 
L 400.130882 139.957445 
L 401.130882 140.045766 
L 402.130882 140.09191 
L 403.130882 140.134321 
L 404.130882 140.164813 
L 405.130882 140.190858 
L 406.130882 140.212059 
L 407.130882 140.26636 
L 408.130882 140.294297 
L 409.130882 140.324021 
L 410.130882 140.349416 
L 411.130882 140.360616 
L 412.130882 140.37074 
L 413.130882 140.370536 
L 414.130882 140.361026 
L 415.130882 140.349373 
L 416.130882 140.318343 
L 417.130882 140.307175 
L 418.130882 140.277058 
L 419.130882 140.217281 
L 420.130882 140.180089 
L 421.130882 140.140993 
L 422.130882 140.098554 
L 423.130882 140.065789 
L 424.130882 139.998362 
L 425.130882 139.959236 
L 426.130882 139.916562 
L 427.130882 139.845981 
L 428.130882 139.80959 
L 429.130882 139.751187 
L 430.130882 139.640234 
L 431.130882 139.569576 
L 432.130882 139.456636 
L 433.130882 139.410863 
L 434.130882 139.34958 
L 435.130882 139.301081 
L 436.130882 139.220258 
L 437.130882 139.101739 
L 438.130882 139.031529 
L 439.130882 138.948266 
L 440.130882 138.915124 
L 441.130882 138.863887 
L 442.130882 138.795489 
L 443.130882 138.729273 
L 444.130882 138.652356 
L 445.799004 138.625041 
" clip-path="url(#p0f793ded38)" style="fill: none; stroke: #ff7f0e; stroke-opacity: 0.5; stroke-width: 0.2; stroke-linecap: square"/>
   </g>
   <g id="line2d_18">
    <path d="M 389.130882 89.667858 
L 390.130882 89.699295 
L 391.130882 89.736235 
L 392.130882 89.833982 
L 393.130882 89.866503 
L 394.130882 89.940128 
L 395.130882 89.978694 
L 396.130882 90.014107 
L 397.130882 90.071747 
L 398.130882 90.142133 
L 399.130882 90.194097 
L 400.130882 90.253187 
L 401.130882 90.341508 
L 402.130882 90.387652 
L 403.130882 90.430063 
L 404.130882 90.460556 
L 405.130882 90.486601 
L 406.130882 90.507801 
L 407.130882 90.562102 
L 408.130882 90.590039 
L 409.130882 90.619763 
L 410.130882 90.645158 
L 411.130882 90.656359 
L 412.130882 90.666483 
L 413.130882 90.666278 
L 414.130882 90.656768 
L 415.130882 90.645115 
L 416.130882 90.614086 
L 417.130882 90.602918 
L 418.130882 90.5728 
L 419.130882 90.513023 
L 420.130882 90.475832 
L 421.130882 90.436736 
L 422.130882 90.394296 
L 423.130882 90.361531 
L 424.130882 90.294104 
L 425.130882 90.254978 
L 426.130882 90.212304 
L 427.130882 90.141723 
L 428.130882 90.105332 
L 429.130882 90.046929 
L 430.130882 89.935977 
L 431.130882 89.865318 
L 432.130882 89.752379 
L 433.130882 89.706606 
L 434.130882 89.645322 
L 435.130882 89.596823 
L 436.130882 89.516 
L 437.130882 89.397481 
L 438.130882 89.327271 
L 439.130882 89.244008 
L 440.130882 89.210867 
L 441.130882 89.159629 
L 442.130882 89.091231 
L 443.130882 89.025015 
L 444.130882 88.948098 
L 445.799004 88.920783 
" clip-path="url(#p0f793ded38)" style="fill: none; stroke: #ff7f0e; stroke-opacity: 0.5; stroke-width: 0.2; stroke-linecap: square"/>
   </g>
   <g id="line2d_19">
    <path d="M 389.130882 128.03078 
L 390.130882 128.062216 
L 391.130882 128.099157 
L 392.130882 128.196903 
L 393.130882 128.229425 
L 394.130882 128.303049 
L 395.130882 128.341615 
L 396.130882 128.377028 
L 397.130882 128.434668 
L 398.130882 128.505054 
L 399.130882 128.557019 
L 400.130882 128.616108 
L 401.130882 128.704429 
L 402.130882 128.750574 
L 403.130882 128.792985 
L 404.130882 128.823477 
L 405.130882 128.849522 
L 406.130882 128.870722 
L 407.130882 128.925023 
L 408.130882 128.952961 
L 409.130882 128.982685 
L 410.130882 129.00808 
L 411.130882 129.01928 
L 412.130882 129.029404 
L 413.130882 129.0292 
L 414.130882 129.01969 
L 415.130882 129.008036 
L 416.130882 128.977007 
L 417.130882 128.965839 
L 418.130882 128.935722 
L 419.130882 128.875945 
L 420.130882 128.838753 
L 421.130882 128.799657 
L 422.130882 128.757217 
L 423.130882 128.724452 
L 424.130882 128.657026 
L 425.130882 128.6179 
L 426.130882 128.575225 
L 427.130882 128.504645 
L 428.130882 128.468254 
L 429.130882 128.409851 
L 430.130882 128.298898 
L 431.130882 128.22824 
L 432.130882 128.1153 
L 433.130882 128.069527 
L 434.130882 128.008244 
L 435.130882 127.959744 
L 436.130882 127.878922 
L 437.130882 127.760403 
L 438.130882 127.690192 
L 439.130882 127.60693 
L 440.130882 127.573788 
L 441.130882 127.522551 
L 442.130882 127.454152 
L 443.130882 127.387937 
L 444.130882 127.31102 
L 445.799004 127.283704 
" clip-path="url(#p0f793ded38)" style="fill: none; stroke: #ff7f0e; stroke-opacity: 0.5; stroke-width: 0.2; stroke-linecap: square"/>
   </g>
   <g id="line2d_20">
    <path d="M 389.130882 159.882607 
L 390.130882 159.914044 
L 391.130882 159.950984 
L 392.130882 160.04873 
L 393.130882 160.081252 
L 394.130882 160.154877 
L 395.130882 160.193442 
L 396.130882 160.228856 
L 397.130882 160.286495 
L 398.130882 160.356882 
L 399.130882 160.408846 
L 400.130882 160.467936 
L 401.130882 160.556257 
L 402.130882 160.602401 
L 403.130882 160.644812 
L 404.130882 160.675304 
L 405.130882 160.701349 
L 406.130882 160.72255 
L 407.130882 160.776851 
L 408.130882 160.804788 
L 409.130882 160.834512 
L 410.130882 160.859907 
L 411.130882 160.871107 
L 412.130882 160.881231 
L 413.130882 160.881027 
L 414.130882 160.871517 
L 415.130882 160.859864 
L 416.130882 160.828834 
L 417.130882 160.817666 
L 418.130882 160.787549 
L 419.130882 160.727772 
L 420.130882 160.69058 
L 421.130882 160.651484 
L 422.130882 160.609045 
L 423.130882 160.57628 
L 424.130882 160.508853 
L 425.130882 160.469727 
L 426.130882 160.427053 
L 427.130882 160.356472 
L 428.130882 160.320081 
L 429.130882 160.261678 
L 430.130882 160.150725 
L 431.130882 160.080067 
L 432.130882 159.967127 
L 433.130882 159.921354 
L 434.130882 159.860071 
L 435.130882 159.811572 
L 436.130882 159.730749 
L 437.130882 159.61223 
L 438.130882 159.54202 
L 439.130882 159.458757 
L 440.130882 159.425615 
L 441.130882 159.374378 
L 442.130882 159.30598 
L 443.130882 159.239764 
L 444.130882 159.162847 
L 445.799004 159.135532 
" clip-path="url(#p0f793ded38)" style="fill: none; stroke: #ff7f0e; stroke-opacity: 0.5; stroke-width: 0.2; stroke-linecap: square"/>
   </g>
   <g id="patch_3">
    <path d="M 69.06392 22.318125 
L 69.06392 318.021875 
M 192.420059 22.318125 
L 192.420059 318.021875 
" clip-path="url(#p0f793ded38)" style="fill: none; stroke: #ffffff; stroke-width: 3; stroke-linejoin: miter"/>
    <path d="M 69.06392 22.318125 
L 69.06392 318.021875 
M 192.420059 22.318125 
L 192.420059 318.021875 
" clip-path="url(#p0f793ded38)" style="fill: none; stroke: #1f77b4; stroke-linejoin: miter"/>
   </g>
   <g id="FillBetweenPolyCollection_1">
    <path d="M 192.420059 22.318125 
L 69.06392 22.318125 
L 69.06392 318.021875 
L 192.420059 318.021875 
L 192.420059 318.021875 
L 192.420059 22.318125 
z
" clip-path="url(#p0f793ded38)" style="fill: #1f77b4; fill-opacity: 0.5"/>
   </g>
   <g id="patch_4">
    <path d="M 260.212556 22.318125 
L 260.212556 318.021875 
M 383.568694 22.318125 
L 383.568694 318.021875 
" clip-path="url(#p0f793ded38)" style="fill: none; stroke: #ffffff; stroke-width: 3; stroke-linejoin: miter"/>
    <path d="M 260.212556 22.318125 
L 260.212556 318.021875 
M 383.568694 22.318125 
L 383.568694 318.021875 
" clip-path="url(#p0f793ded38)" style="fill: none; stroke: #ff7f0e; stroke-linejoin: miter"/>
   </g>
   <g id="FillBetweenPolyCollection_2">
    <path d="M 383.568694 22.318125 
L 260.212556 22.318125 
L 260.212556 318.021875 
L 383.568694 318.021875 
L 383.568694 318.021875 
L 383.568694 22.318125 
z
" clip-path="url(#p0f793ded38)" style="fill: #ff7f0e; fill-opacity: 0.5"/>
   </g>
   <g id="patch_5">
    <path d="M 451.361191 22.318125 
L 451.361191 318.021875 
M 574.71733 22.318125 
L 574.71733 318.021875 
" clip-path="url(#p0f793ded38)" style="fill: none; stroke: #ffffff; stroke-width: 3; stroke-linejoin: miter"/>
    <path d="M 451.361191 22.318125 
L 451.361191 318.021875 
M 574.71733 22.318125 
L 574.71733 318.021875 
" clip-path="url(#p0f793ded38)" style="fill: none; stroke: #2ca02c; stroke-linejoin: miter"/>
   </g>
   <g id="FillBetweenPolyCollection_3">
    <path d="M 574.71733 22.318125 
L 451.361191 22.318125 
L 451.361191 318.021875 
L 574.71733 318.021875 
L 574.71733 318.021875 
L 574.71733 22.318125 
z
" clip-path="url(#p0f793ded38)" style="fill: #2ca02c; fill-opacity: 0.5"/>
   </g>
   <g id="matplotlib.axis_1">
    <g id="xtick_1">
     <g id="line2d_21"/>
     <g id="text_1">
      <!-- deme0 -->
      <g transform="translate(113.363083 329.120312) scale(0.1 -0.1)">
       <defs>
        <path id="DejaVuSans-64" d="M 2906 2969 
L 2906 4863 
L 3481 4863 
L 3481 0 
L 2906 0 
L 2906 525 
Q 2725 213 2448 61 
Q 2172 -91 1784 -91 
Q 1150 -91 751 415 
Q 353 922 353 1747 
Q 353 2572 751 3078 
Q 1150 3584 1784 3584 
Q 2172 3584 2448 3432 
Q 2725 3281 2906 2969 
z
M 947 1747 
Q 947 1113 1208 752 
Q 1469 391 1925 391 
Q 2381 391 2643 752 
Q 2906 1113 2906 1747 
Q 2906 2381 2643 2742 
Q 2381 3103 1925 3103 
Q 1469 3103 1208 2742 
Q 947 2381 947 1747 
z
" transform="scale(0.015625)"/>
        <path id="DejaVuSans-65" d="M 3597 1894 
L 3597 1613 
L 953 1613 
Q 991 1019 1311 708 
Q 1631 397 2203 397 
Q 2534 397 2845 478 
Q 3156 559 3463 722 
L 3463 178 
Q 3153 47 2828 -22 
Q 2503 -91 2169 -91 
Q 1331 -91 842 396 
Q 353 884 353 1716 
Q 353 2575 817 3079 
Q 1281 3584 2069 3584 
Q 2775 3584 3186 3129 
Q 3597 2675 3597 1894 
z
M 3022 2063 
Q 3016 2534 2758 2815 
Q 2500 3097 2075 3097 
Q 1594 3097 1305 2825 
Q 1016 2553 972 2059 
L 3022 2063 
z
" transform="scale(0.015625)"/>
        <path id="DejaVuSans-6d" d="M 3328 2828 
Q 3544 3216 3844 3400 
Q 4144 3584 4550 3584 
Q 5097 3584 5394 3201 
Q 5691 2819 5691 2113 
L 5691 0 
L 5113 0 
L 5113 2094 
Q 5113 2597 4934 2840 
Q 4756 3084 4391 3084 
Q 3944 3084 3684 2787 
Q 3425 2491 3425 1978 
L 3425 0 
L 2847 0 
L 2847 2094 
Q 2847 2600 2669 2842 
Q 2491 3084 2119 3084 
Q 1678 3084 1418 2786 
Q 1159 2488 1159 1978 
L 1159 0 
L 581 0 
L 581 3500 
L 1159 3500 
L 1159 2956 
Q 1356 3278 1631 3431 
Q 1906 3584 2284 3584 
Q 2666 3584 2933 3390 
Q 3200 3197 3328 2828 
z
" transform="scale(0.015625)"/>
        <path id="DejaVuSans-30" d="M 2034 4250 
Q 1547 4250 1301 3770 
Q 1056 3291 1056 2328 
Q 1056 1369 1301 889 
Q 1547 409 2034 409 
Q 2525 409 2770 889 
Q 3016 1369 3016 2328 
Q 3016 3291 2770 3770 
Q 2525 4250 2034 4250 
z
M 2034 4750 
Q 2819 4750 3233 4129 
Q 3647 3509 3647 2328 
Q 3647 1150 3233 529 
Q 2819 -91 2034 -91 
Q 1250 -91 836 529 
Q 422 1150 422 2328 
Q 422 3509 836 4129 
Q 1250 4750 2034 4750 
z
" transform="scale(0.015625)"/>
       </defs>
       <use xlink:href="#DejaVuSans-64"/>
       <use xlink:href="#DejaVuSans-65" transform="translate(63.476562 0)"/>
       <use xlink:href="#DejaVuSans-6d" transform="translate(125 0)"/>
       <use xlink:href="#DejaVuSans-65" transform="translate(222.412109 0)"/>
       <use xlink:href="#DejaVuSans-30" transform="translate(283.935547 0)"/>
      </g>
     </g>
    </g>
    <g id="xtick_2">
     <g id="line2d_22"/>
     <g id="text_2">
      <!-- deme1 -->
      <g transform="translate(304.511719 329.120312) scale(0.1 -0.1)">
       <defs>
        <path id="DejaVuSans-31" d="M 794 531 
L 1825 531 
L 1825 4091 
L 703 3866 
L 703 4441 
L 1819 4666 
L 2450 4666 
L 2450 531 
L 3481 531 
L 3481 0 
L 794 0 
L 794 531 
z
" transform="scale(0.015625)"/>
       </defs>
       <use xlink:href="#DejaVuSans-64"/>
       <use xlink:href="#DejaVuSans-65" transform="translate(63.476562 0)"/>
       <use xlink:href="#DejaVuSans-6d" transform="translate(125 0)"/>
       <use xlink:href="#DejaVuSans-65" transform="translate(222.412109 0)"/>
       <use xlink:href="#DejaVuSans-31" transform="translate(283.935547 0)"/>
      </g>
     </g>
    </g>
    <g id="xtick_3">
     <g id="line2d_23"/>
     <g id="text_3">
      <!-- deme2 -->
      <g transform="translate(495.660354 329.120312) scale(0.1 -0.1)">
       <defs>
        <path id="DejaVuSans-32" d="M 1228 531 
L 3431 531 
L 3431 0 
L 469 0 
L 469 531 
Q 828 903 1448 1529 
Q 2069 2156 2228 2338 
Q 2531 2678 2651 2914 
Q 2772 3150 2772 3378 
Q 2772 3750 2511 3984 
Q 2250 4219 1831 4219 
Q 1534 4219 1204 4116 
Q 875 4013 500 3803 
L 500 4441 
Q 881 4594 1212 4672 
Q 1544 4750 1819 4750 
Q 2544 4750 2975 4387 
Q 3406 4025 3406 3419 
Q 3406 3131 3298 2873 
Q 3191 2616 2906 2266 
Q 2828 2175 2409 1742 
Q 1991 1309 1228 531 
z
" transform="scale(0.015625)"/>
       </defs>
       <use xlink:href="#DejaVuSans-64"/>
       <use xlink:href="#DejaVuSans-65" transform="translate(63.476562 0)"/>
       <use xlink:href="#DejaVuSans-6d" transform="translate(125 0)"/>
       <use xlink:href="#DejaVuSans-65" transform="translate(222.412109 0)"/>
       <use xlink:href="#DejaVuSans-32" transform="translate(283.935547 0)"/>
      </g>
     </g>
    </g>
   </g>
   <g id="matplotlib.axis_2">
    <g id="ytick_1">
     <g id="line2d_24">
      <defs>
       <path id="me9323a51a5" d="M 0 0 
L -3.5 0 
" style="stroke: #000000; stroke-width: 0.8"/>
      </defs>
      <g>
       <use xlink:href="#me9323a51a5" x="43.78125" y="318.021875" style="stroke: #000000; stroke-width: 0.8"/>
      </g>
     </g>
     <g id="text_4">
      <!-- 0.0 -->
      <g transform="translate(20.878125 321.821094) scale(0.1 -0.1)">
       <defs>
        <path id="DejaVuSans-2e" d="M 684 794 
L 1344 794 
L 1344 0 
L 684 0 
L 684 794 
z
" transform="scale(0.015625)"/>
       </defs>
       <use xlink:href="#DejaVuSans-30"/>
       <use xlink:href="#DejaVuSans-2e" transform="translate(63.623047 0)"/>
       <use xlink:href="#DejaVuSans-30" transform="translate(95.410156 0)"/>
      </g>
     </g>
    </g>
    <g id="ytick_2">
     <g id="line2d_25">
      <g>
       <use xlink:href="#me9323a51a5" x="43.78125" y="258.881125" style="stroke: #000000; stroke-width: 0.8"/>
      </g>
     </g>
     <g id="text_5">
      <!-- 0.5 -->
      <g transform="translate(20.878125 262.680344) scale(0.1 -0.1)">
       <defs>
        <path id="DejaVuSans-35" d="M 691 4666 
L 3169 4666 
L 3169 4134 
L 1269 4134 
L 1269 2991 
Q 1406 3038 1543 3061 
Q 1681 3084 1819 3084 
Q 2600 3084 3056 2656 
Q 3513 2228 3513 1497 
Q 3513 744 3044 326 
Q 2575 -91 1722 -91 
Q 1428 -91 1123 -41 
Q 819 9 494 109 
L 494 744 
Q 775 591 1075 516 
Q 1375 441 1709 441 
Q 2250 441 2565 725 
Q 2881 1009 2881 1497 
Q 2881 1984 2565 2268 
Q 2250 2553 1709 2553 
Q 1456 2553 1204 2497 
Q 953 2441 691 2322 
L 691 4666 
z
" transform="scale(0.015625)"/>
       </defs>
       <use xlink:href="#DejaVuSans-30"/>
       <use xlink:href="#DejaVuSans-2e" transform="translate(63.623047 0)"/>
       <use xlink:href="#DejaVuSans-35" transform="translate(95.410156 0)"/>
      </g>
     </g>
    </g>
    <g id="ytick_3">
     <g id="line2d_26">
      <g>
       <use xlink:href="#me9323a51a5" x="43.78125" y="199.740375" style="stroke: #000000; stroke-width: 0.8"/>
      </g>
     </g>
     <g id="text_6">
      <!-- 1.0 -->
      <g transform="translate(20.878125 203.539594) scale(0.1 -0.1)">
       <use xlink:href="#DejaVuSans-31"/>
       <use xlink:href="#DejaVuSans-2e" transform="translate(63.623047 0)"/>
       <use xlink:href="#DejaVuSans-30" transform="translate(95.410156 0)"/>
      </g>
     </g>
    </g>
    <g id="ytick_4">
     <g id="line2d_27">
      <g>
       <use xlink:href="#me9323a51a5" x="43.78125" y="140.599625" style="stroke: #000000; stroke-width: 0.8"/>
      </g>
     </g>
     <g id="text_7">
      <!-- 1.5 -->
      <g transform="translate(20.878125 144.398844) scale(0.1 -0.1)">
       <use xlink:href="#DejaVuSans-31"/>
       <use xlink:href="#DejaVuSans-2e" transform="translate(63.623047 0)"/>
       <use xlink:href="#DejaVuSans-35" transform="translate(95.410156 0)"/>
      </g>
     </g>
    </g>
    <g id="ytick_5">
     <g id="line2d_28">
      <g>
       <use xlink:href="#me9323a51a5" x="43.78125" y="81.458875" style="stroke: #000000; stroke-width: 0.8"/>
      </g>
     </g>
     <g id="text_8">
      <!-- 2.0 -->
      <g transform="translate(20.878125 85.258094) scale(0.1 -0.1)">
       <use xlink:href="#DejaVuSans-32"/>
       <use xlink:href="#DejaVuSans-2e" transform="translate(63.623047 0)"/>
       <use xlink:href="#DejaVuSans-30" transform="translate(95.410156 0)"/>
      </g>
     </g>
    </g>
    <g id="ytick_6">
     <g id="line2d_29">
      <g>
       <use xlink:href="#me9323a51a5" x="43.78125" y="22.318125" style="stroke: #000000; stroke-width: 0.8"/>
      </g>
     </g>
     <g id="text_9">
      <!-- 2.5 -->
      <g transform="translate(20.878125 26.117344) scale(0.1 -0.1)">
       <use xlink:href="#DejaVuSans-32"/>
       <use xlink:href="#DejaVuSans-2e" transform="translate(63.623047 0)"/>
       <use xlink:href="#DejaVuSans-35" transform="translate(95.410156 0)"/>
      </g>
     </g>
    </g>
    <g id="text_10">
     <!-- time ago (generations) -->
     <g transform="translate(14.798438 227.641094) rotate(-90) scale(0.1 -0.1)">
      <defs>
       <path id="DejaVuSans-74" d="M 1172 4494 
L 1172 3500 
L 2356 3500 
L 2356 3053 
L 1172 3053 
L 1172 1153 
Q 1172 725 1289 603 
Q 1406 481 1766 481 
L 2356 481 
L 2356 0 
L 1766 0 
Q 1100 0 847 248 
Q 594 497 594 1153 
L 594 3053 
L 172 3053 
L 172 3500 
L 594 3500 
L 594 4494 
L 1172 4494 
z
" transform="scale(0.015625)"/>
       <path id="DejaVuSans-69" d="M 603 3500 
L 1178 3500 
L 1178 0 
L 603 0 
L 603 3500 
z
M 603 4863 
L 1178 4863 
L 1178 4134 
L 603 4134 
L 603 4863 
z
" transform="scale(0.015625)"/>
       <path id="DejaVuSans-20" transform="scale(0.015625)"/>
       <path id="DejaVuSans-61" d="M 2194 1759 
Q 1497 1759 1228 1600 
Q 959 1441 959 1056 
Q 959 750 1161 570 
Q 1363 391 1709 391 
Q 2188 391 2477 730 
Q 2766 1069 2766 1631 
L 2766 1759 
L 2194 1759 
z
M 3341 1997 
L 3341 0 
L 2766 0 
L 2766 531 
Q 2569 213 2275 61 
Q 1981 -91 1556 -91 
Q 1019 -91 701 211 
Q 384 513 384 1019 
Q 384 1609 779 1909 
Q 1175 2209 1959 2209 
L 2766 2209 
L 2766 2266 
Q 2766 2663 2505 2880 
Q 2244 3097 1772 3097 
Q 1472 3097 1187 3025 
Q 903 2953 641 2809 
L 641 3341 
Q 956 3463 1253 3523 
Q 1550 3584 1831 3584 
Q 2591 3584 2966 3190 
Q 3341 2797 3341 1997 
z
" transform="scale(0.015625)"/>
       <path id="DejaVuSans-67" d="M 2906 1791 
Q 2906 2416 2648 2759 
Q 2391 3103 1925 3103 
Q 1463 3103 1205 2759 
Q 947 2416 947 1791 
Q 947 1169 1205 825 
Q 1463 481 1925 481 
Q 2391 481 2648 825 
Q 2906 1169 2906 1791 
z
M 3481 434 
Q 3481 -459 3084 -895 
Q 2688 -1331 1869 -1331 
Q 1566 -1331 1297 -1286 
Q 1028 -1241 775 -1147 
L 775 -588 
Q 1028 -725 1275 -790 
Q 1522 -856 1778 -856 
Q 2344 -856 2625 -561 
Q 2906 -266 2906 331 
L 2906 616 
Q 2728 306 2450 153 
Q 2172 0 1784 0 
Q 1141 0 747 490 
Q 353 981 353 1791 
Q 353 2603 747 3093 
Q 1141 3584 1784 3584 
Q 2172 3584 2450 3431 
Q 2728 3278 2906 2969 
L 2906 3500 
L 3481 3500 
L 3481 434 
z
" transform="scale(0.015625)"/>
       <path id="DejaVuSans-6f" d="M 1959 3097 
Q 1497 3097 1228 2736 
Q 959 2375 959 1747 
Q 959 1119 1226 758 
Q 1494 397 1959 397 
Q 2419 397 2687 759 
Q 2956 1122 2956 1747 
Q 2956 2369 2687 2733 
Q 2419 3097 1959 3097 
z
M 1959 3584 
Q 2709 3584 3137 3096 
Q 3566 2609 3566 1747 
Q 3566 888 3137 398 
Q 2709 -91 1959 -91 
Q 1206 -91 779 398 
Q 353 888 353 1747 
Q 353 2609 779 3096 
Q 1206 3584 1959 3584 
z
" transform="scale(0.015625)"/>
       <path id="DejaVuSans-28" d="M 1984 4856 
Q 1566 4138 1362 3434 
Q 1159 2731 1159 2009 
Q 1159 1288 1364 580 
Q 1569 -128 1984 -844 
L 1484 -844 
Q 1016 -109 783 600 
Q 550 1309 550 2009 
Q 550 2706 781 3412 
Q 1013 4119 1484 4856 
L 1984 4856 
z
" transform="scale(0.015625)"/>
       <path id="DejaVuSans-6e" d="M 3513 2113 
L 3513 0 
L 2938 0 
L 2938 2094 
Q 2938 2591 2744 2837 
Q 2550 3084 2163 3084 
Q 1697 3084 1428 2787 
Q 1159 2491 1159 1978 
L 1159 0 
L 581 0 
L 581 3500 
L 1159 3500 
L 1159 2956 
Q 1366 3272 1645 3428 
Q 1925 3584 2291 3584 
Q 2894 3584 3203 3211 
Q 3513 2838 3513 2113 
z
" transform="scale(0.015625)"/>
       <path id="DejaVuSans-72" d="M 2631 2963 
Q 2534 3019 2420 3045 
Q 2306 3072 2169 3072 
Q 1681 3072 1420 2755 
Q 1159 2438 1159 1844 
L 1159 0 
L 581 0 
L 581 3500 
L 1159 3500 
L 1159 2956 
Q 1341 3275 1631 3429 
Q 1922 3584 2338 3584 
Q 2397 3584 2469 3576 
Q 2541 3569 2628 3553 
L 2631 2963 
z
" transform="scale(0.015625)"/>
       <path id="DejaVuSans-73" d="M 2834 3397 
L 2834 2853 
Q 2591 2978 2328 3040 
Q 2066 3103 1784 3103 
Q 1356 3103 1142 2972 
Q 928 2841 928 2578 
Q 928 2378 1081 2264 
Q 1234 2150 1697 2047 
L 1894 2003 
Q 2506 1872 2764 1633 
Q 3022 1394 3022 966 
Q 3022 478 2636 193 
Q 2250 -91 1575 -91 
Q 1294 -91 989 -36 
Q 684 19 347 128 
L 347 722 
Q 666 556 975 473 
Q 1284 391 1588 391 
Q 1994 391 2212 530 
Q 2431 669 2431 922 
Q 2431 1156 2273 1281 
Q 2116 1406 1581 1522 
L 1381 1569 
Q 847 1681 609 1914 
Q 372 2147 372 2553 
Q 372 3047 722 3315 
Q 1072 3584 1716 3584 
Q 2034 3584 2315 3537 
Q 2597 3491 2834 3397 
z
" transform="scale(0.015625)"/>
       <path id="DejaVuSans-29" d="M 513 4856 
L 1013 4856 
Q 1481 4119 1714 3412 
Q 1947 2706 1947 2009 
Q 1947 1309 1714 600 
Q 1481 -109 1013 -844 
L 513 -844 
Q 928 -128 1133 580 
Q 1338 1288 1338 2009 
Q 1338 2731 1133 3434 
Q 928 4138 513 4856 
z
" transform="scale(0.015625)"/>
      </defs>
      <use xlink:href="#DejaVuSans-74"/>
      <use xlink:href="#DejaVuSans-69" transform="translate(39.208984 0)"/>
      <use xlink:href="#DejaVuSans-6d" transform="translate(66.992188 0)"/>
      <use xlink:href="#DejaVuSans-65" transform="translate(164.404297 0)"/>
      <use xlink:href="#DejaVuSans-20" transform="translate(225.927734 0)"/>
      <use xlink:href="#DejaVuSans-61" transform="translate(257.714844 0)"/>
      <use xlink:href="#DejaVuSans-67" transform="translate(318.994141 0)"/>
      <use xlink:href="#DejaVuSans-6f" transform="translate(382.470703 0)"/>
      <use xlink:href="#DejaVuSans-20" transform="translate(443.652344 0)"/>
      <use xlink:href="#DejaVuSans-28" transform="translate(475.439453 0)"/>
      <use xlink:href="#DejaVuSans-67" transform="translate(514.453125 0)"/>
      <use xlink:href="#DejaVuSans-65" transform="translate(577.929688 0)"/>
      <use xlink:href="#DejaVuSans-6e" transform="translate(639.453125 0)"/>
      <use xlink:href="#DejaVuSans-65" transform="translate(702.832031 0)"/>
      <use xlink:href="#DejaVuSans-72" transform="translate(764.355469 0)"/>
      <use xlink:href="#DejaVuSans-61" transform="translate(805.46875 0)"/>
      <use xlink:href="#DejaVuSans-74" transform="translate(866.748047 0)"/>
      <use xlink:href="#DejaVuSans-69" transform="translate(905.957031 0)"/>
      <use xlink:href="#DejaVuSans-6f" transform="translate(933.740234 0)"/>
      <use xlink:href="#DejaVuSans-6e" transform="translate(994.921875 0)"/>
      <use xlink:href="#DejaVuSans-73" transform="translate(1058.300781 0)"/>
      <use xlink:href="#DejaVuSans-29" transform="translate(1110.400391 0)"/>
     </g>
    </g>
   </g>
   <g id="line2d_30">
    <path d="M 255.650368 184.536402 
L 253.650368 183.536402 
L 253.650368 185.536402 
z
" clip-path="url(#p0f793ded38)" style="fill: #1f77b4; fill-opacity: 0.5; stroke: #1f77b4; stroke-opacity: 0.5; stroke-linejoin: miter"/>
   </g>
   <g id="line2d_31">
    <path d="M 255.650368 180.364019 
L 253.650368 179.364019 
L 253.650368 181.364019 
z
" clip-path="url(#p0f793ded38)" style="fill: #1f77b4; fill-opacity: 0.5; stroke: #1f77b4; stroke-opacity: 0.5; stroke-linejoin: miter"/>
   </g>
   <g id="line2d_32">
    <path d="M 255.650368 196.057367 
L 253.650368 195.057367 
L 253.650368 197.057367 
z
" clip-path="url(#p0f793ded38)" style="fill: #1f77b4; fill-opacity: 0.5; stroke: #1f77b4; stroke-opacity: 0.5; stroke-linejoin: miter"/>
   </g>
   <g id="line2d_33">
    <path d="M 255.650368 176.01074 
L 253.650368 175.01074 
L 253.650368 177.01074 
z
" clip-path="url(#p0f793ded38)" style="fill: #1f77b4; fill-opacity: 0.5; stroke: #1f77b4; stroke-opacity: 0.5; stroke-linejoin: miter"/>
   </g>
   <g id="line2d_34">
    <path d="M 255.650368 161.252498 
L 253.650368 160.252498 
L 253.650368 162.252498 
z
" clip-path="url(#p0f793ded38)" style="fill: #1f77b4; fill-opacity: 0.5; stroke: #1f77b4; stroke-opacity: 0.5; stroke-linejoin: miter"/>
   </g>
   <g id="line2d_35">
    <path d="M 255.650368 178.644915 
L 253.650368 177.644915 
L 253.650368 179.644915 
z
" clip-path="url(#p0f793ded38)" style="fill: #1f77b4; fill-opacity: 0.5; stroke: #1f77b4; stroke-opacity: 0.5; stroke-linejoin: miter"/>
   </g>
   <g id="line2d_36">
    <path d="M 255.650368 164.049205 
L 253.650368 163.049205 
L 253.650368 165.049205 
z
" clip-path="url(#p0f793ded38)" style="fill: #1f77b4; fill-opacity: 0.5; stroke: #1f77b4; stroke-opacity: 0.5; stroke-linejoin: miter"/>
   </g>
   <g id="line2d_37">
    <path d="M 255.650368 178.293533 
L 253.650368 177.293533 
L 253.650368 179.293533 
z
" clip-path="url(#p0f793ded38)" style="fill: #1f77b4; fill-opacity: 0.5; stroke: #1f77b4; stroke-opacity: 0.5; stroke-linejoin: miter"/>
   </g>
   <g id="line2d_38">
    <path d="M 255.650368 177.500268 
L 253.650368 176.500268 
L 253.650368 178.500268 
z
" clip-path="url(#p0f793ded38)" style="fill: #1f77b4; fill-opacity: 0.5; stroke: #1f77b4; stroke-opacity: 0.5; stroke-linejoin: miter"/>
   </g>
   <g id="line2d_39">
    <path d="M 255.650368 187.399317 
L 253.650368 186.399317 
L 253.650368 188.399317 
z
" clip-path="url(#p0f793ded38)" style="fill: #1f77b4; fill-opacity: 0.5; stroke: #1f77b4; stroke-opacity: 0.5; stroke-linejoin: miter"/>
   </g>
   <g id="line2d_40">
    <path d="M 446.799004 137.433403 
L 444.799004 136.433403 
L 444.799004 138.433403 
z
" clip-path="url(#p0f793ded38)" style="fill: #ff7f0e; fill-opacity: 0.5; stroke: #ff7f0e; stroke-opacity: 0.5; stroke-linejoin: miter"/>
   </g>
   <g id="line2d_41">
    <path d="M 446.799004 139.431076 
L 444.799004 138.431076 
L 444.799004 140.431076 
z
" clip-path="url(#p0f793ded38)" style="fill: #ff7f0e; fill-opacity: 0.5; stroke: #ff7f0e; stroke-opacity: 0.5; stroke-linejoin: miter"/>
   </g>
   <g id="line2d_42">
    <path d="M 446.799004 171.180716 
L 444.799004 170.180716 
L 444.799004 172.180716 
z
" clip-path="url(#p0f793ded38)" style="fill: #ff7f0e; fill-opacity: 0.5; stroke: #ff7f0e; stroke-opacity: 0.5; stroke-linejoin: miter"/>
   </g>
   <g id="line2d_43">
    <path d="M 446.799004 172.692304 
L 444.799004 171.692304 
L 444.799004 173.692304 
z
" clip-path="url(#p0f793ded38)" style="fill: #ff7f0e; fill-opacity: 0.5; stroke: #ff7f0e; stroke-opacity: 0.5; stroke-linejoin: miter"/>
   </g>
   <g id="line2d_44">
    <path d="M 446.799004 190.347182 
L 444.799004 189.347182 
L 444.799004 191.347182 
z
" clip-path="url(#p0f793ded38)" style="fill: #ff7f0e; fill-opacity: 0.5; stroke: #ff7f0e; stroke-opacity: 0.5; stroke-linejoin: miter"/>
   </g>
   <g id="line2d_45">
    <path d="M 446.799004 117.397843 
L 444.799004 116.397843 
L 444.799004 118.397843 
z
" clip-path="url(#p0f793ded38)" style="fill: #ff7f0e; fill-opacity: 0.5; stroke: #ff7f0e; stroke-opacity: 0.5; stroke-linejoin: miter"/>
   </g>
   <g id="line2d_46">
    <path d="M 446.799004 139.372116 
L 444.799004 138.372116 
L 444.799004 140.372116 
z
" clip-path="url(#p0f793ded38)" style="fill: #ff7f0e; fill-opacity: 0.5; stroke: #ff7f0e; stroke-opacity: 0.5; stroke-linejoin: miter"/>
   </g>
   <g id="line2d_47">
    <path d="M 446.799004 89.667858 
L 444.799004 88.667858 
L 444.799004 90.667858 
z
" clip-path="url(#p0f793ded38)" style="fill: #ff7f0e; fill-opacity: 0.5; stroke: #ff7f0e; stroke-opacity: 0.5; stroke-linejoin: miter"/>
   </g>
   <g id="line2d_48">
    <path d="M 446.799004 128.03078 
L 444.799004 127.03078 
L 444.799004 129.03078 
z
" clip-path="url(#p0f793ded38)" style="fill: #ff7f0e; fill-opacity: 0.5; stroke: #ff7f0e; stroke-opacity: 0.5; stroke-linejoin: miter"/>
   </g>
   <g id="line2d_49">
    <path d="M 446.799004 159.882607 
L 444.799004 158.882607 
L 444.799004 160.882607 
z
" clip-path="url(#p0f793ded38)" style="fill: #ff7f0e; fill-opacity: 0.5; stroke: #ff7f0e; stroke-opacity: 0.5; stroke-linejoin: miter"/>
   </g>
   <g id="patch_6">
    <path d="M 43.78125 318.021875 
L 43.78125 22.318125 
" style="fill: none; stroke: #000000; stroke-width: 0.8; stroke-linejoin: miter; stroke-linecap: square"/>
   </g>
   <g id="text_11">
    <!-- defaults_migration_properties.yaml -->
    <g transform="translate(215.434687 16.318125) scale(0.12 -0.12)">
     <defs>
      <path id="DejaVuSans-66" d="M 2375 4863 
L 2375 4384 
L 1825 4384 
Q 1516 4384 1395 4259 
Q 1275 4134 1275 3809 
L 1275 3500 
L 2222 3500 
L 2222 3053 
L 1275 3053 
L 1275 0 
L 697 0 
L 697 3053 
L 147 3053 
L 147 3500 
L 697 3500 
L 697 3744 
Q 697 4328 969 4595 
Q 1241 4863 1831 4863 
L 2375 4863 
z
" transform="scale(0.015625)"/>
      <path id="DejaVuSans-75" d="M 544 1381 
L 544 3500 
L 1119 3500 
L 1119 1403 
Q 1119 906 1312 657 
Q 1506 409 1894 409 
Q 2359 409 2629 706 
Q 2900 1003 2900 1516 
L 2900 3500 
L 3475 3500 
L 3475 0 
L 2900 0 
L 2900 538 
Q 2691 219 2414 64 
Q 2138 -91 1772 -91 
Q 1169 -91 856 284 
Q 544 659 544 1381 
z
M 1991 3584 
L 1991 3584 
z
" transform="scale(0.015625)"/>
      <path id="DejaVuSans-6c" d="M 603 4863 
L 1178 4863 
L 1178 0 
L 603 0 
L 603 4863 
z
" transform="scale(0.015625)"/>
      <path id="DejaVuSans-5f" d="M 3263 -1063 
L 3263 -1509 
L -63 -1509 
L -63 -1063 
L 3263 -1063 
z
" transform="scale(0.015625)"/>
      <path id="DejaVuSans-70" d="M 1159 525 
L 1159 -1331 
L 581 -1331 
L 581 3500 
L 1159 3500 
L 1159 2969 
Q 1341 3281 1617 3432 
Q 1894 3584 2278 3584 
Q 2916 3584 3314 3078 
Q 3713 2572 3713 1747 
Q 3713 922 3314 415 
Q 2916 -91 2278 -91 
Q 1894 -91 1617 61 
Q 1341 213 1159 525 
z
M 3116 1747 
Q 3116 2381 2855 2742 
Q 2594 3103 2138 3103 
Q 1681 3103 1420 2742 
Q 1159 2381 1159 1747 
Q 1159 1113 1420 752 
Q 1681 391 2138 391 
Q 2594 391 2855 752 
Q 3116 1113 3116 1747 
z
" transform="scale(0.015625)"/>
      <path id="DejaVuSans-79" d="M 2059 -325 
Q 1816 -950 1584 -1140 
Q 1353 -1331 966 -1331 
L 506 -1331 
L 506 -850 
L 844 -850 
Q 1081 -850 1212 -737 
Q 1344 -625 1503 -206 
L 1606 56 
L 191 3500 
L 800 3500 
L 1894 763 
L 2988 3500 
L 3597 3500 
L 2059 -325 
z
" transform="scale(0.015625)"/>
     </defs>
     <use xlink:href="#DejaVuSans-64"/>
     <use xlink:href="#DejaVuSans-65" transform="translate(63.476562 0)"/>
     <use xlink:href="#DejaVuSans-66" transform="translate(125 0)"/>
     <use xlink:href="#DejaVuSans-61" transform="translate(160.205078 0)"/>
     <use xlink:href="#DejaVuSans-75" transform="translate(221.484375 0)"/>
     <use xlink:href="#DejaVuSans-6c" transform="translate(284.863281 0)"/>
     <use xlink:href="#DejaVuSans-74" transform="translate(312.646484 0)"/>
     <use xlink:href="#DejaVuSans-73" transform="translate(351.855469 0)"/>
     <use xlink:href="#DejaVuSans-5f" transform="translate(403.955078 0)"/>
     <use xlink:href="#DejaVuSans-6d" transform="translate(453.955078 0)"/>
     <use xlink:href="#DejaVuSans-69" transform="translate(551.367188 0)"/>
     <use xlink:href="#DejaVuSans-67" transform="translate(579.150391 0)"/>
     <use xlink:href="#DejaVuSans-72" transform="translate(642.626953 0)"/>
     <use xlink:href="#DejaVuSans-61" transform="translate(683.740234 0)"/>
     <use xlink:href="#DejaVuSans-74" transform="translate(745.019531 0)"/>
     <use xlink:href="#DejaVuSans-69" transform="translate(784.228516 0)"/>
     <use xlink:href="#DejaVuSans-6f" transform="translate(812.011719 0)"/>
     <use xlink:href="#DejaVuSans-6e" transform="translate(873.193359 0)"/>
     <use xlink:href="#DejaVuSans-5f" transform="translate(936.572266 0)"/>
     <use xlink:href="#DejaVuSans-70" transform="translate(986.572266 0)"/>
     <use xlink:href="#DejaVuSans-72" transform="translate(1050.048828 0)"/>
     <use xlink:href="#DejaVuSans-6f" transform="translate(1088.912109 0)"/>
     <use xlink:href="#DejaVuSans-70" transform="translate(1150.09375 0)"/>
     <use xlink:href="#DejaVuSans-65" transform="translate(1213.570312 0)"/>
     <use xlink:href="#DejaVuSans-72" transform="translate(1275.09375 0)"/>
     <use xlink:href="#DejaVuSans-74" transform="translate(1316.207031 0)"/>
     <use xlink:href="#DejaVuSans-69" transform="translate(1355.416016 0)"/>
     <use xlink:href="#DejaVuSans-65" transform="translate(1383.199219 0)"/>
     <use xlink:href="#DejaVuSans-73" transform="translate(1444.722656 0)"/>
     <use xlink:href="#DejaVuSans-2e" transform="translate(1496.822266 0)"/>
     <use xlink:href="#DejaVuSans-79" transform="translate(1528.609375 0)"/>
     <use xlink:href="#DejaVuSans-61" transform="translate(1587.789062 0)"/>
     <use xlink:href="#DejaVuSans-6d" transform="translate(1649.068359 0)"/>
     <use xlink:href="#DejaVuSans-6c" transform="translate(1746.480469 0)"/>
    </g>
   </g>
  </g>
 </g>
 <defs>
  <clipPath id="p0f793ded38">
   <rect x="43.78125" y="22.318125" width="556.21875" height="295.70375"/>
  </clipPath>
 </defs>
</svg>