<?xml version="1.0" encoding="utf-8" standalone="no"?>
<!DOCTYPE svg PUBLIC "-//W3C//DTD SVG 1.1//EN"
  "http://www.w3.org/Graphics/SVG/1.1/DTD/svg11.dtd">
<svg xmlns:xlink="http://www.w3.org/1999/xlink" width="607.2pt" height="338.4pt" viewBox="0 0 607.2 338.4" xmlns="http://www.w3.org/2000/svg" version="1.1">
 <metadata>
  <rdf:RDF xmlns:dc="http://purl.org/dc/elements/1.1/" xmlns:cc="http://creativecommons.org/ns#" xmlns:rdf="http://www.w3.org/1999/02/22-rdf-syntax-ns#">
   <cc:Work>
    <dc:type rdf:resource="http://purl.org/dc/dcmitype/StillImage"/>
    <dc:date>2023-11-20T08:24:02.660434</dc:date>
    <dc:format>image/svg+xml</dc:format>
    <dc:creator>
     <cc:Agent>
      <dc:title>Matplotlib v3.7.2, https://matplotlib.org/</dc:title>
     </cc:Agent>
    </dc:creator>
   </cc:Work>
  </rdf:RDF>
 </metadata>
 <defs>
  <style type="text/css">*{stroke-linejoin: round; stroke-linecap: butt}</style>
 </defs>
 <g id="figure_1">
  <g id="patch_1">
   <path d="M 0 338.4 
L 607.2 338.4 
L 607.2 0 
L 0 0 
z
" style="fill: #ffffff"/>
  </g>
  <g id="axes_1">
   <g id="patch_2">
    <path d="M 43.78125 318.021875 
L 600 318.021875 
L 600 22.318125 
L 43.78125 22.318125 
z
" style="fill: #ffffff"/>
   </g>
   <path d="M 197.982246 106.838503 
L 198.982246 106.869939 
L 199.982246 106.90688 
L 200.982246 107.004626 
L 201.982246 107.037148 
L 202.982246 107.110772 
L 203.982246 107.149338 
L 204.982246 107.184751 
L 205.982246 107.242391 
L 206.982246 107.312777 
L 207.982246 107.364741 
L 208.982246 107.423831 
L 209.982246 107.512152 
L 210.982246 107.558296 
L 211.982246 107.600707 
L 212.982246 107.6312 
L 213.982246 107.657245 
L 214.982246 107.678445 
L 215.982246 107.732746 
L 216.982246 107.760684 
L 217.982246 107.790408 
L 218.982246 107.815803 
L 219.982246 107.827003 
L 220.982246 107.837127 
L 221.982246 107.836923 
L 222.982246 107.827413 
L 223.982246 107.815759 
L 224.982246 107.78473 
L 225.982246 107.773562 
L 226.982246 107.743444 
L 227.982246 107.683667 
L 228.982246 107.646476 
L 229.982246 107.60738 
L 230.982246 107.56494 
L 231.982246 107.532175 
L 232.982246 107.464749 
L 233.982246 107.425623 
L 234.982246 107.382948 
L 235.982246 107.312368 
L 236.982246 107.275977 
L 237.982246 107.217574 
L 238.982246 107.106621 
L 239.982246 107.035963 
L 240.982246 106.923023 
L 241.982246 106.87725 
L 242.982246 106.815967 
L 243.982246 106.767467 
L 244.982246 106.686645 
L 245.982246 106.568126 
L 246.982246 106.497915 
L 247.982246 106.414653 
L 248.982246 106.381511 
L 249.982246 106.330274 
L 250.982246 106.261875 
L 251.982246 106.19566 
L 252.982246 106.118743 
L 254.650369 106.091427 
" clip-path="url(#p3daafec288)" style="fill: none; stroke: #1f77b4; stroke-opacity: 0.5; stroke-width: 0.2; stroke-linecap: square"/>
   <path d="M 197.982246 128.993624 
L 198.982246 129.02506 
L 199.982246 129.062 
L 200.982246 129.159747 
L 201.982246 129.192268 
L 202.982246 129.265893 
L 203.982246 129.304459 
L 204.982246 129.339872 
L 205.982246 129.397512 
L 206.982246 129.467898 
L 207.982246 129.519862 
L 208.982246 129.578952 
L 209.982246 129.667273 
L 210.982246 129.713417 
L 211.982246 129.755828 
L 212.982246 129.786321 
L 213.982246 129.812366 
L 214.982246 129.833566 
L 215.982246 129.887867 
L 216.982246 129.915805 
L 217.982246 129.945529 
L 218.982246 129.970923 
L 219.982246 129.982124 
L 220.982246 129.992248 
L 221.982246 129.992043 
L 222.982246 129.982534 
L 223.982246 129.97088 
L 224.982246 129.939851 
L 225.982246 129.928683 
L 226.982246 129.898565 
L 227.982246 129.838788 
L 228.982246 129.801597 
L 229.982246 129.762501 
L 230.982246 129.720061 
L 231.982246 129.687296 
L 232.982246 129.619869 
L 233.982246 129.580744 
L 234.982246 129.538069 
L 235.982246 129.467488 
L 236.982246 129.431098 
L 237.982246 129.372694 
L 238.982246 129.261742 
L 239.982246 129.191083 
L 240.982246 129.078144 
L 241.982246 129.032371 
L 242.982246 128.971088 
L 243.982246 128.922588 
L 244.982246 128.841766 
L 245.982246 128.723247 
L 246.982246 128.653036 
L 247.982246 128.569773 
L 248.982246 128.536632 
L 249.982246 128.485394 
L 250.982246 128.416996 
L 251.982246 128.350781 
L 252.982246 128.273864 
L 254.650369 128.246548 
" clip-path="url(#p3daafec288)" style="fill: none; stroke: #1f77b4; stroke-opacity: 0.5; stroke-width: 0.2; stroke-linecap: square"/>
   <path d="M 197.982246 178.918229 
L 198.982246 178.949666 
L 199.982246 178.986606 
L 200.982246 179.084352 
L 201.982246 179.116874 
L 202.982246 179.190499 
L 203.982246 179.229064 
L 204.982246 179.264477 
L 205.982246 179.322117 
L 206.982246 179.392504 
L 207.982246 179.444468 
L 208.982246 179.503558 
L 209.982246 179.591879 
L 210.982246 179.638023 
L 211.982246 179.680434 
L 212.982246 179.710926 
L 213.982246 179.736971 
L 214.982246 179.758171 
L 215.982246 179.812473 
L 216.982246 179.84041 
L 217.982246 179.870134 
L 218.982246 179.895529 
L 219.982246 179.906729 
L 220.982246 179.916853 
L 221.982246 179.916649 
L 222.982246 179.907139 
L 223.982246 179.895485 
L 224.982246 179.864456 
L 225.982246 179.853288 
L 226.982246 179.823171 
L 227.982246 179.763394 
L 228.982246 179.726202 
L 229.982246 179.687106 
L 230.982246 179.644667 
L 231.982246 179.611901 
L 232.982246 179.544475 
L 233.982246 179.505349 
L 234.982246 179.462675 
L 235.982246 179.392094 
L 236.982246 179.355703 
L 237.982246 179.2973 
L 238.982246 179.186347 
L 239.982246 179.115689 
L 240.982246 179.002749 
L 241.982246 178.956976 
L 242.982246 178.895693 
L 243.982246 178.847194 
L 244.982246 178.766371 
L 245.982246 178.647852 
L 246.982246 178.577641 
L 247.982246 178.494379 
L 248.982246 178.461237 
L 249.982246 178.41 
L 250.982246 178.341602 
L 251.982246 178.275386 
L 252.982246 178.198469 
L 254.650369 178.171154 
" clip-path="url(#p3daafec288)" style="fill: none; stroke: #1f77b4; stroke-opacity: 0.5; stroke-width: 0.2; stroke-linecap: square"/>
   <path d="M 197.982246 131.423103 
L 198.982246 131.45454 
L 199.982246 131.49148 
L 200.982246 131.589227 
L 201.982246 131.621748 
L 202.982246 131.695373 
L 203.982246 131.733938 
L 204.982246 131.769352 
L 205.982246 131.826992 
L 206.982246 131.897378 
L 207.982246 131.949342 
L 208.982246 132.008432 
L 209.982246 132.096753 
L 210.982246 132.142897 
L 211.982246 132.185308 
L 212.982246 132.215801 
L 213.982246 132.241846 
L 214.982246 132.263046 
L 215.982246 132.317347 
L 216.982246 132.345284 
L 217.982246 132.375008 
L 218.982246 132.400403 
L 219.982246 132.411603 
L 220.982246 132.421727 
L 221.982246 132.421523 
L 222.982246 132.412013 
L 223.982246 132.40036 
L 224.982246 132.36933 
L 225.982246 132.358162 
L 226.982246 132.328045 
L 227.982246 132.268268 
L 228.982246 132.231076 
L 229.982246 132.19198 
L 230.982246 132.149541 
L 231.982246 132.116776 
L 232.982246 132.049349 
L 233.982246 132.010223 
L 234.982246 131.967549 
L 235.982246 131.896968 
L 236.982246 131.860577 
L 237.982246 131.802174 
L 238.982246 131.691221 
L 239.982246 131.620563 
L 240.982246 131.507623 
L 241.982246 131.46185 
L 242.982246 131.400567 
L 243.982246 131.352068 
L 244.982246 131.271245 
L 245.982246 131.152726 
L 246.982246 131.082516 
L 247.982246 130.999253 
L 248.982246 130.966111 
L 249.982246 130.914874 
L 250.982246 130.846476 
L 251.982246 130.78026 
L 252.982246 130.703343 
L 254.650369 130.676028 
" clip-path="url(#p3daafec288)" style="fill: none; stroke: #1f77b4; stroke-opacity: 0.5; stroke-width: 0.2; stroke-linecap: square"/>
   <path d="M 197.982246 159.490609 
L 198.982246 159.522045 
L 199.982246 159.558986 
L 200.982246 159.656732 
L 201.982246 159.689254 
L 202.982246 159.762879 
L 203.982246 159.801444 
L 204.982246 159.836857 
L 205.982246 159.894497 
L 206.982246 159.964884 
L 207.982246 160.016848 
L 208.982246 160.075937 
L 209.982246 160.164258 
L 210.982246 160.210403 
L 211.982246 160.252814 
L 212.982246 160.283306 
L 213.982246 160.309351 
L 214.982246 160.330551 
L 215.982246 160.384852 
L 216.982246 160.41279 
L 217.982246 160.442514 
L 218.982246 160.467909 
L 219.982246 160.479109 
L 220.982246 160.489233 
L 221.982246 160.489029 
L 222.982246 160.479519 
L 223.982246 160.467865 
L 224.982246 160.436836 
L 225.982246 160.425668 
L 226.982246 160.395551 
L 227.982246 160.335774 
L 228.982246 160.298582 
L 229.982246 160.259486 
L 230.982246 160.217046 
L 231.982246 160.184281 
L 232.982246 160.116855 
L 233.982246 160.077729 
L 234.982246 160.035054 
L 235.982246 159.964474 
L 236.982246 159.928083 
L 237.982246 159.86968 
L 238.982246 159.758727 
L 239.982246 159.688069 
L 240.982246 159.575129 
L 241.982246 159.529356 
L 242.982246 159.468073 
L 243.982246 159.419574 
L 244.982246 159.338751 
L 245.982246 159.220232 
L 246.982246 159.150021 
L 247.982246 159.066759 
L 248.982246 159.033617 
L 249.982246 158.98238 
L 250.982246 158.913982 
L 251.982246 158.847766 
L 252.982246 158.770849 
L 254.650369 158.743534 
" clip-path="url(#p3daafec288)" style="fill: none; stroke: #1f77b4; stroke-opacity: 0.5; stroke-width: 0.2; stroke-linecap: square"/>
   <path d="M 197.982246 179.850962 
L 198.982246 179.882398 
L 199.982246 179.919339 
L 200.982246 180.017085 
L 201.982246 180.049607 
L 202.982246 180.123232 
L 203.982246 180.161797 
L 204.982246 180.19721 
L 205.982246 180.25485 
L 206.982246 180.325236 
L 207.982246 180.377201 
L 208.982246 180.43629 
L 209.982246 180.524611 
L 210.982246 180.570756 
L 211.982246 180.613167 
L 212.982246 180.643659 
L 213.982246 180.669704 
L 214.982246 180.690904 
L 215.982246 180.745205 
L 216.982246 180.773143 
L 217.982246 180.802867 
L 218.982246 180.828262 
L 219.982246 180.839462 
L 220.982246 180.849586 
L 221.982246 180.849382 
L 222.982246 180.839872 
L 223.982246 180.828218 
L 224.982246 180.797189 
L 225.982246 180.786021 
L 226.982246 180.755904 
L 227.982246 180.696127 
L 228.982246 180.658935 
L 229.982246 180.619839 
L 230.982246 180.577399 
L 231.982246 180.544634 
L 232.982246 180.477208 
L 233.982246 180.438082 
L 234.982246 180.395407 
L 235.982246 180.324827 
L 236.982246 180.288436 
L 237.982246 180.230033 
L 238.982246 180.11908 
L 239.982246 180.048422 
L 240.982246 179.935482 
L 241.982246 179.889709 
L 242.982246 179.828426 
L 243.982246 179.779927 
L 244.982246 179.699104 
L 245.982246 179.580585 
L 246.982246 179.510374 
L 247.982246 179.427112 
L 248.982246 179.39397 
L 249.982246 179.342733 
L 250.982246 179.274334 
L 251.982246 179.208119 
L 252.982246 179.131202 
L 254.650369 179.103886 
" clip-path="url(#p3daafec288)" style="fill: none; stroke: #1f77b4; stroke-opacity: 0.5; stroke-width: 0.2; stroke-linecap: square"/>
   <path d="M 197.982246 167.509475 
L 198.982246 167.540911 
L 199.982246 167.577851 
L 200.982246 167.675598 
L 201.982246 167.708119 
L 202.982246 167.781744 
L 203.982246 167.82031 
L 204.982246 167.855723 
L 205.982246 167.913363 
L 206.982246 167.983749 
L 207.982246 168.035713 
L 208.982246 168.094803 
L 209.982246 168.183124 
L 210.982246 168.229268 
L 211.982246 168.271679 
L 212.982246 168.302172 
L 213.982246 168.328217 
L 214.982246 168.349417 
L 215.982246 168.403718 
L 216.982246 168.431656 
L 217.982246 168.46138 
L 218.982246 168.486774 
L 219.982246 168.497975 
L 220.982246 168.508099 
L 221.982246 168.507894 
L 222.982246 168.498385 
L 223.982246 168.486731 
L 224.982246 168.455702 
L 225.982246 168.444534 
L 226.982246 168.414416 
L 227.982246 168.354639 
L 228.982246 168.317448 
L 229.982246 168.278352 
L 230.982246 168.235912 
L 231.982246 168.203147 
L 232.982246 168.13572 
L 233.982246 168.096595 
L 234.982246 168.05392 
L 235.982246 167.983339 
L 236.982246 167.946949 
L 237.982246 167.888545 
L 238.982246 167.777593 
L 239.982246 167.706934 
L 240.982246 167.593995 
L 241.982246 167.548222 
L 242.982246 167.486939 
L 243.982246 167.438439 
L 244.982246 167.357617 
L 245.982246 167.239098 
L 246.982246 167.168887 
L 247.982246 167.085624 
L 248.982246 167.052483 
L 249.982246 167.001245 
L 250.982246 166.932847 
L 251.982246 166.866632 
L 252.982246 166.789715 
L 254.650369 166.762399 
" clip-path="url(#p3daafec288)" style="fill: none; stroke: #1f77b4; stroke-opacity: 0.5; stroke-width: 0.2; stroke-linecap: square"/>
   <path d="M 197.982246 166.570331 
L 198.982246 166.601767 
L 199.982246 166.638707 
L 200.982246 166.736454 
L 201.982246 166.768975 
L 202.982246 166.8426 
L 203.982246 166.881166 
L 204.982246 166.916579 
L 205.982246 166.974219 
L 206.982246 167.044605 
L 207.982246 167.096569 
L 208.982246 167.155659 
L 209.982246 167.24398 
L 210.982246 167.290124 
L 211.982246 167.332535 
L 212.982246 167.363028 
L 213.982246 167.389073 
L 214.982246 167.410273 
L 215.982246 167.464574 
L 216.982246 167.492512 
L 217.982246 167.522236 
L 218.982246 167.54763 
L 219.982246 167.558831 
L 220.982246 167.568955 
L 221.982246 167.56875 
L 222.982246 167.55924 
L 223.982246 167.547587 
L 224.982246 167.516558 
L 225.982246 167.50539 
L 226.982246 167.475272 
L 227.982246 167.415495 
L 228.982246 167.378304 
L 229.982246 167.339208 
L 230.982246 167.296768 
L 231.982246 167.264003 
L 232.982246 167.196576 
L 233.982246 167.15745 
L 234.982246 167.114776 
L 235.982246 167.044195 
L 236.982246 167.007804 
L 237.982246 166.949401 
L 238.982246 166.838449 
L 239.982246 166.76779 
L 240.982246 166.654851 
L 241.982246 166.609078 
L 242.982246 166.547794 
L 243.982246 166.499295 
L 244.982246 166.418472 
L 245.982246 166.299954 
L 246.982246 166.229743 
L 247.982246 166.14648 
L 248.982246 166.113339 
L 249.982246 166.062101 
L 250.982246 165.993703 
L 251.982246 165.927488 
L 252.982246 165.85057 
L 254.650369 165.823255 
" clip-path="url(#p3daafec288)" style="fill: none; stroke: #1f77b4; stroke-opacity: 0.5; stroke-width: 0.2; stroke-linecap: square"/>
   <path d="M 197.982246 136.28397 
L 198.982246 136.315406 
L 199.982246 136.352347 
L 200.982246 136.450093 
L 201.982246 136.482615 
L 202.982246 136.55624 
L 203.982246 136.594805 
L 204.982246 136.630218 
L 205.982246 136.687858 
L 206.982246 136.758244 
L 207.982246 136.810209 
L 208.982246 136.869298 
L 209.982246 136.957619 
L 210.982246 137.003764 
L 211.982246 137.046175 
L 212.982246 137.076667 
L 213.982246 137.102712 
L 214.982246 137.123912 
L 215.982246 137.178213 
L 216.982246 137.206151 
L 217.982246 137.235875 
L 218.982246 137.26127 
L 219.982246 137.27247 
L 220.982246 137.282594 
L 221.982246 137.28239 
L 222.982246 137.27288 
L 223.982246 137.261226 
L 224.982246 137.230197 
L 225.982246 137.219029 
L 226.982246 137.188912 
L 227.982246 137.129135 
L 228.982246 137.091943 
L 229.982246 137.052847 
L 230.982246 137.010407 
L 231.982246 136.977642 
L 232.982246 136.910216 
L 233.982246 136.87109 
L 234.982246 136.828415 
L 235.982246 136.757835 
L 236.982246 136.721444 
L 237.982246 136.663041 
L 238.982246 136.552088 
L 239.982246 136.48143 
L 240.982246 136.36849 
L 241.982246 136.322717 
L 242.982246 136.261434 
L 243.982246 136.212935 
L 244.982246 136.132112 
L 245.982246 136.013593 
L 246.982246 135.943382 
L 247.982246 135.86012 
L 248.982246 135.826978 
L 249.982246 135.775741 
L 250.982246 135.707342 
L 251.982246 135.641127 
L 252.982246 135.56421 
L 254.650369 135.536894 
" clip-path="url(#p3daafec288)" style="fill: none; stroke: #1f77b4; stroke-opacity: 0.5; stroke-width: 0.2; stroke-linecap: square"/>
   <path d="M 197.982246 113.922415 
L 198.982246 113.953851 
L 199.982246 113.990792 
L 200.982246 114.088538 
L 201.982246 114.12106 
L 202.982246 114.194685 
L 203.982246 114.23325 
L 204.982246 114.268663 
L 205.982246 114.326303 
L 206.982246 114.396689 
L 207.982246 114.448654 
L 208.982246 114.507743 
L 209.982246 114.596064 
L 210.982246 114.642209 
L 211.982246 114.68462 
L 212.982246 114.715112 
L 213.982246 114.741157 
L 214.982246 114.762357 
L 215.982246 114.816658 
L 216.982246 114.844596 
L 217.982246 114.87432 
L 218.982246 114.899715 
L 219.982246 114.910915 
L 220.982246 114.921039 
L 221.982246 114.920835 
L 222.982246 114.911325 
L 223.982246 114.899671 
L 224.982246 114.868642 
L 225.982246 114.857474 
L 226.982246 114.827357 
L 227.982246 114.76758 
L 228.982246 114.730388 
L 229.982246 114.691292 
L 230.982246 114.648852 
L 231.982246 114.616087 
L 232.982246 114.548661 
L 233.982246 114.509535 
L 234.982246 114.46686 
L 235.982246 114.39628 
L 236.982246 114.359889 
L 237.982246 114.301486 
L 238.982246 114.190533 
L 239.982246 114.119875 
L 240.982246 114.006935 
L 241.982246 113.961162 
L 242.982246 113.899879 
L 243.982246 113.85138 
L 244.982246 113.770557 
L 245.982246 113.652038 
L 246.982246 113.581827 
L 247.982246 113.498565 
L 248.982246 113.465423 
L 249.982246 113.414186 
L 250.982246 113.345787 
L 251.982246 113.279572 
L 252.982246 113.202655 
L 254.650369 113.175339 
" clip-path="url(#p3daafec288)" style="fill: none; stroke: #1f77b4; stroke-opacity: 0.5; stroke-width: 0.2; stroke-linecap: square"/>
   <path d="M 389.130882 118.480405 
L 390.130882 118.511842 
L 391.130882 118.548782 
L 392.130882 118.646528 
L 393.130882 118.67905 
L 394.130882 118.752675 
L 395.130882 118.79124 
L 396.130882 118.826653 
L 397.130882 118.884293 
L 398.130882 118.95468 
L 399.130882 119.006644 
L 400.130882 119.065734 
L 401.130882 119.154055 
L 402.130882 119.200199 
L 403.130882 119.24261 
L 404.130882 119.273102 
L 405.130882 119.299147 
L 406.130882 119.320348 
L 407.130882 119.374649 
L 408.130882 119.402586 
L 409.130882 119.43231 
L 410.130882 119.457705 
L 411.130882 119.468905 
L 412.130882 119.479029 
L 413.130882 119.478825 
L 414.130882 119.469315 
L 415.130882 119.457662 
L 416.130882 119.426632 
L 417.130882 119.415464 
L 418.130882 119.385347 
L 419.130882 119.32557 
L 420.130882 119.288378 
L 421.130882 119.249282 
L 422.130882 119.206843 
L 423.130882 119.174077 
L 424.130882 119.106651 
L 425.130882 119.067525 
L 426.130882 119.024851 
L 427.130882 118.95427 
L 428.130882 118.917879 
L 429.130882 118.859476 
L 430.130882 118.748523 
L 431.130882 118.677865 
L 432.130882 118.564925 
L 433.130882 118.519152 
L 434.130882 118.457869 
L 435.130882 118.40937 
L 436.130882 118.328547 
L 437.130882 118.210028 
L 438.130882 118.139818 
L 439.130882 118.056555 
L 440.130882 118.023413 
L 441.130882 117.972176 
L 442.130882 117.903778 
L 443.130882 117.837562 
L 444.130882 117.760645 
L 445.799004 117.73333 
" clip-path="url(#p3daafec288)" style="fill: none; stroke: #ff7f0e; stroke-opacity: 0.5; stroke-width: 0.2; stroke-linecap: square"/>
   <path d="M 389.130882 113.060174 
L 390.130882 113.091611 
L 391.130882 113.128551 
L 392.130882 113.226298 
L 393.130882 113.258819 
L 394.130882 113.332444 
L 395.130882 113.37101 
L 396.130882 113.406423 
L 397.130882 113.464063 
L 398.130882 113.534449 
L 399.130882 113.586413 
L 400.130882 113.645503 
L 401.130882 113.733824 
L 402.130882 113.779968 
L 403.130882 113.822379 
L 404.130882 113.852872 
L 405.130882 113.878917 
L 406.130882 113.900117 
L 407.130882 113.954418 
L 408.130882 113.982355 
L 409.130882 114.012079 
L 410.130882 114.037474 
L 411.130882 114.048675 
L 412.130882 114.058799 
L 413.130882 114.058594 
L 414.130882 114.049084 
L 415.130882 114.037431 
L 416.130882 114.006402 
L 417.130882 113.995234 
L 418.130882 113.965116 
L 419.130882 113.905339 
L 420.130882 113.868148 
L 421.130882 113.829052 
L 422.130882 113.786612 
L 423.130882 113.753847 
L 424.130882 113.68642 
L 425.130882 113.647294 
L 426.130882 113.60462 
L 427.130882 113.534039 
L 428.130882 113.497648 
L 429.130882 113.439245 
L 430.130882 113.328293 
L 431.130882 113.257634 
L 432.130882 113.144694 
L 433.130882 113.098922 
L 434.130882 113.037638 
L 435.130882 112.989139 
L 436.130882 112.908316 
L 437.130882 112.789797 
L 438.130882 112.719587 
L 439.130882 112.636324 
L 440.130882 112.603183 
L 441.130882 112.551945 
L 442.130882 112.483547 
L 443.130882 112.417331 
L 444.130882 112.340414 
L 445.799004 112.313099 
" clip-path="url(#p3daafec288)" style="fill: none; stroke: #ff7f0e; stroke-opacity: 0.5; stroke-width: 0.2; stroke-linecap: square"/>
   <path d="M 389.130882 133.659128 
L 390.130882 133.690565 
L 391.130882 133.727505 
L 392.130882 133.825252 
L 393.130882 133.857773 
L 394.130882 133.931398 
L 395.130882 133.969964 
L 396.130882 134.005377 
L 397.130882 134.063017 
L 398.130882 134.133403 
L 399.130882 134.185367 
L 400.130882 134.244457 
L 401.130882 134.332778 
L 402.130882 134.378922 
L 403.130882 134.421333 
L 404.130882 134.451826 
L 405.130882 134.477871 
L 406.130882 134.499071 
L 407.130882 134.553372 
L 408.130882 134.581309 
L 409.130882 134.611033 
L 410.130882 134.636428 
L 411.130882 134.647629 
L 412.130882 134.657753 
L 413.130882 134.657548 
L 414.130882 134.648038 
L 415.130882 134.636385 
L 416.130882 134.605355 
L 417.130882 134.594188 
L 418.130882 134.56407 
L 419.130882 134.504293 
L 420.130882 134.467102 
L 421.130882 134.428005 
L 422.130882 134.385566 
L 423.130882 134.352801 
L 424.130882 134.285374 
L 425.130882 134.246248 
L 426.130882 134.203574 
L 427.130882 134.132993 
L 428.130882 134.096602 
L 429.130882 134.038199 
L 430.130882 133.927247 
L 431.130882 133.856588 
L 432.130882 133.743648 
L 433.130882 133.697876 
L 434.130882 133.636592 
L 435.130882 133.588093 
L 436.130882 133.50727 
L 437.130882 133.388751 
L 438.130882 133.318541 
L 439.130882 133.235278 
L 440.130882 133.202137 
L 441.130882 133.150899 
L 442.130882 133.082501 
L 443.130882 133.016285 
L 444.130882 132.939368 
L 445.799004 132.912053 
" clip-path="url(#p3daafec288)" style="fill: none; stroke: #ff7f0e; stroke-opacity: 0.5; stroke-width: 0.2; stroke-linecap: square"/>
   <path d="M 389.130882 193.945427 
L 390.130882 193.976864 
L 391.130882 194.013804 
L 392.130882 194.111551 
L 393.130882 194.144072 
L 394.130882 194.217697 
L 395.130882 194.256262 
L 396.130882 194.291676 
L 397.130882 194.349316 
L 398.130882 194.419702 
L 399.130882 194.471666 
L 400.130882 194.530756 
L 401.130882 194.619077 
L 402.130882 194.665221 
L 403.130882 194.707632 
L 404.130882 194.738125 
L 405.130882 194.76417 
L 406.130882 194.78537 
L 407.130882 194.839671 
L 408.130882 194.867608 
L 409.130882 194.897332 
L 410.130882 194.922727 
L 411.130882 194.933928 
L 412.130882 194.944051 
L 413.130882 194.943847 
L 414.130882 194.934337 
L 415.130882 194.922684 
L 416.130882 194.891654 
L 417.130882 194.880487 
L 418.130882 194.850369 
L 419.130882 194.790592 
L 420.130882 194.753401 
L 421.130882 194.714304 
L 422.130882 194.671865 
L 423.130882 194.6391 
L 424.130882 194.571673 
L 425.130882 194.532547 
L 426.130882 194.489873 
L 427.130882 194.419292 
L 428.130882 194.382901 
L 429.130882 194.324498 
L 430.130882 194.213546 
L 431.130882 194.142887 
L 432.130882 194.029947 
L 433.130882 193.984175 
L 434.130882 193.922891 
L 435.130882 193.874392 
L 436.130882 193.793569 
L 437.130882 193.67505 
L 438.130882 193.60484 
L 439.130882 193.521577 
L 440.130882 193.488435 
L 441.130882 193.437198 
L 442.130882 193.3688 
L 443.130882 193.302584 
L 444.130882 193.225667 
L 445.799004 193.198352 
" clip-path="url(#p3daafec288)" style="fill: none; stroke: #ff7f0e; stroke-opacity: 0.5; stroke-width: 0.2; stroke-linecap: square"/>
   <path d="M 389.130882 127.120759 
L 390.130882 127.152195 
L 391.130882 127.189135 
L 392.130882 127.286882 
L 393.130882 127.319403 
L 394.130882 127.393028 
L 395.130882 127.431594 
L 396.130882 127.467007 
L 397.130882 127.524647 
L 398.130882 127.595033 
L 399.130882 127.646997 
L 400.130882 127.706087 
L 401.130882 127.794408 
L 402.130882 127.840552 
L 403.130882 127.882963 
L 404.130882 127.913456 
L 405.130882 127.939501 
L 406.130882 127.960701 
L 407.130882 128.015002 
L 408.130882 128.04294 
L 409.130882 128.072664 
L 410.130882 128.098058 
L 411.130882 128.109259 
L 412.130882 128.119383 
L 413.130882 128.119178 
L 414.130882 128.109669 
L 415.130882 128.098015 
L 416.130882 128.066986 
L 417.130882 128.055818 
L 418.130882 128.0257 
L 419.130882 127.965923 
L 420.130882 127.928732 
L 421.130882 127.889636 
L 422.130882 127.847196 
L 423.130882 127.814431 
L 424.130882 127.747004 
L 425.130882 127.707879 
L 426.130882 127.665204 
L 427.130882 127.594623 
L 428.130882 127.558233 
L 429.130882 127.499829 
L 430.130882 127.388877 
L 431.130882 127.318218 
L 432.130882 127.205279 
L 433.130882 127.159506 
L 434.130882 127.098223 
L 435.130882 127.049723 
L 436.130882 126.968901 
L 437.130882 126.850382 
L 438.130882 126.780171 
L 439.130882 126.696908 
L 440.130882 126.663767 
L 441.130882 126.612529 
L 442.130882 126.544131 
L 443.130882 126.477916 
L 444.130882 126.400999 
L 445.799004 126.373683 
" clip-path="url(#p3daafec288)" style="fill: none; stroke: #ff7f0e; stroke-opacity: 0.5; stroke-width: 0.2; stroke-linecap: square"/>
   <path d="M 389.130882 86.348375 
L 390.130882 86.379811 
L 391.130882 86.416752 
L 392.130882 86.514498 
L 393.130882 86.54702 
L 394.130882 86.620644 
L 395.130882 86.65921 
L 396.130882 86.694623 
L 397.130882 86.752263 
L 398.130882 86.822649 
L 399.130882 86.874613 
L 400.130882 86.933703 
L 401.130882 87.022024 
L 402.130882 87.068168 
L 403.130882 87.110579 
L 404.130882 87.141072 
L 405.130882 87.167117 
L 406.130882 87.188317 
L 407.130882 87.242618 
L 408.130882 87.270556 
L 409.130882 87.30028 
L 410.130882 87.325675 
L 411.130882 87.336875 
L 412.130882 87.346999 
L 413.130882 87.346795 
L 414.130882 87.337285 
L 415.130882 87.325631 
L 416.130882 87.294602 
L 417.130882 87.283434 
L 418.130882 87.253316 
L 419.130882 87.193539 
L 420.130882 87.156348 
L 421.130882 87.117252 
L 422.130882 87.074812 
L 423.130882 87.042047 
L 424.130882 86.974621 
L 425.130882 86.935495 
L 426.130882 86.89282 
L 427.130882 86.82224 
L 428.130882 86.785849 
L 429.130882 86.727446 
L 430.130882 86.616493 
L 431.130882 86.545835 
L 432.130882 86.432895 
L 433.130882 86.387122 
L 434.130882 86.325839 
L 435.130882 86.277339 
L 436.130882 86.196517 
L 437.130882 86.077998 
L 438.130882 86.007787 
L 439.130882 85.924525 
L 440.130882 85.891383 
L 441.130882 85.840146 
L 442.130882 85.771747 
L 443.130882 85.705532 
L 444.130882 85.628615 
L 445.799004 85.601299 
" clip-path="url(#p3daafec288)" style="fill: none; stroke: #ff7f0e; stroke-opacity: 0.5; stroke-width: 0.2; stroke-linecap: square"/>
   <path d="M 389.130882 90.487339 
L 390.130882 90.518776 
L 391.130882 90.555716 
L 392.130882 90.653463 
L 393.130882 90.685984 
L 394.130882 90.759609 
L 395.130882 90.798175 
L 396.130882 90.833588 
L 397.130882 90.891228 
L 398.130882 90.961614 
L 399.130882 91.013578 
L 400.130882 91.072668 
L 401.130882 91.160989 
L 402.130882 91.207133 
L 403.130882 91.249544 
L 404.130882 91.280037 
L 405.130882 91.306082 
L 406.130882 91.327282 
L 407.130882 91.381583 
L 408.130882 91.40952 
L 409.130882 91.439244 
L 410.130882 91.464639 
L 411.130882 91.47584 
L 412.130882 91.485964 
L 413.130882 91.485759 
L 414.130882 91.476249 
L 415.130882 91.464596 
L 416.130882 91.433566 
L 417.130882 91.422399 
L 418.130882 91.392281 
L 419.130882 91.332504 
L 420.130882 91.295313 
L 421.130882 91.256216 
L 422.130882 91.213777 
L 423.130882 91.181012 
L 424.130882 91.113585 
L 425.130882 91.074459 
L 426.130882 91.031785 
L 427.130882 90.961204 
L 428.130882 90.924813 
L 429.130882 90.86641 
L 430.130882 90.755458 
L 431.130882 90.684799 
L 432.130882 90.571859 
L 433.130882 90.526087 
L 434.130882 90.464803 
L 435.130882 90.416304 
L 436.130882 90.335481 
L 437.130882 90.216962 
L 438.130882 90.146752 
L 439.130882 90.063489 
L 440.130882 90.030347 
L 441.130882 89.97911 
L 442.130882 89.910712 
L 443.130882 89.844496 
L 444.130882 89.767579 
L 445.799004 89.740264 
" clip-path="url(#p3daafec288)" style="fill: none; stroke: #ff7f0e; stroke-opacity: 0.5; stroke-width: 0.2; stroke-linecap: square"/>
   <path d="M 389.130882 182.136419 
L 390.130882 182.167855 
L 391.130882 182.204795 
L 392.130882 182.302542 
L 393.130882 182.335063 
L 394.130882 182.408688 
L 395.130882 182.447254 
L 396.130882 182.482667 
L 397.130882 182.540307 
L 398.130882 182.610693 
L 399.130882 182.662657 
L 400.130882 182.721747 
L 401.130882 182.810068 
L 402.130882 182.856212 
L 403.130882 182.898623 
L 404.130882 182.929116 
L 405.130882 182.955161 
L 406.130882 182.976361 
L 407.130882 183.030662 
L 408.130882 183.0586 
L 409.130882 183.088324 
L 410.130882 183.113718 
L 411.130882 183.124919 
L 412.130882 183.135043 
L 413.130882 183.134838 
L 414.130882 183.125328 
L 415.130882 183.113675 
L 416.130882 183.082646 
L 417.130882 183.071478 
L 418.130882 183.04136 
L 419.130882 182.981583 
L 420.130882 182.944392 
L 421.130882 182.905296 
L 422.130882 182.862856 
L 423.130882 182.830091 
L 424.130882 182.762664 
L 425.130882 182.723538 
L 426.130882 182.680864 
L 427.130882 182.610283 
L 428.130882 182.573892 
L 429.130882 182.515489 
L 430.130882 182.404537 
L 431.130882 182.333878 
L 432.130882 182.220939 
L 433.130882 182.175166 
L 434.130882 182.113882 
L 435.130882 182.065383 
L 436.130882 181.98456 
L 437.130882 181.866042 
L 438.130882 181.795831 
L 439.130882 181.712568 
L 440.130882 181.679427 
L 441.130882 181.628189 
L 442.130882 181.559791 
L 443.130882 181.493576 
L 444.130882 181.416658 
L 445.799004 181.389343 
" clip-path="url(#p3daafec288)" style="fill: none; stroke: #ff7f0e; stroke-opacity: 0.5; stroke-width: 0.2; stroke-linecap: square"/>
   <path d="M 389.130882 133.902298 
L 390.130882 133.933735 
L 391.130882 133.970675 
L 392.130882 134.068422 
L 393.130882 134.100943 
L 394.130882 134.174568 
L 395.130882 134.213133 
L 396.130882 134.248547 
L 397.130882 134.306187 
L 398.130882 134.376573 
L 399.130882 134.428537 
L 400.130882 134.487627 
L 401.130882 134.575948 
L 402.130882 134.622092 
L 403.130882 134.664503 
L 404.130882 134.694996 
L 405.130882 134.721041 
L 406.130882 134.742241 
L 407.130882 134.796542 
L 408.130882 134.824479 
L 409.130882 134.854203 
L 410.130882 134.879598 
L 411.130882 134.890798 
L 412.130882 134.900922 
L 413.130882 134.900718 
L 414.130882 134.891208 
L 415.130882 134.879555 
L 416.130882 134.848525 
L 417.130882 134.837357 
L 418.130882 134.80724 
L 419.130882 134.747463 
L 420.130882 134.710271 
L 421.130882 134.671175 
L 422.130882 134.628736 
L 423.130882 134.595971 
L 424.130882 134.528544 
L 425.130882 134.489418 
L 426.130882 134.446744 
L 427.130882 134.376163 
L 428.130882 134.339772 
L 429.130882 134.281369 
L 430.130882 134.170416 
L 431.130882 134.099758 
L 432.130882 133.986818 
L 433.130882 133.941045 
L 434.130882 133.879762 
L 435.130882 133.831263 
L 436.130882 133.75044 
L 437.130882 133.631921 
L 438.130882 133.561711 
L 439.130882 133.478448 
L 440.130882 133.445306 
L 441.130882 133.394069 
L 442.130882 133.325671 
L 443.130882 133.259455 
L 444.130882 133.182538 
L 445.799004 133.155223 
" clip-path="url(#p3daafec288)" style="fill: none; stroke: #ff7f0e; stroke-opacity: 0.5; stroke-width: 0.2; stroke-linecap: square"/>
   <path d="M 389.130882 113.831887 
L 390.130882 113.863324 
L 391.130882 113.900264 
L 392.130882 113.99801 
L 393.130882 114.030532 
L 394.130882 114.104157 
L 395.130882 114.142722 
L 396.130882 114.178136 
L 397.130882 114.235775 
L 398.130882 114.306162 
L 399.130882 114.358126 
L 400.130882 114.417216 
L 401.130882 114.505537 
L 402.130882 114.551681 
L 403.130882 114.594092 
L 404.130882 114.624584 
L 405.130882 114.650629 
L 406.130882 114.67183 
L 407.130882 114.726131 
L 408.130882 114.754068 
L 409.130882 114.783792 
L 410.130882 114.809187 
L 411.130882 114.820387 
L 412.130882 114.830511 
L 413.130882 114.830307 
L 414.130882 114.820797 
L 415.130882 114.809144 
L 416.130882 114.778114 
L 417.130882 114.766946 
L 418.130882 114.736829 
L 419.130882 114.677052 
L 420.130882 114.63986 
L 421.130882 114.600764 
L 422.130882 114.558325 
L 423.130882 114.52556 
L 424.130882 114.458133 
L 425.130882 114.419007 
L 426.130882 114.376333 
L 427.130882 114.305752 
L 428.130882 114.269361 
L 429.130882 114.210958 
L 430.130882 114.100005 
L 431.130882 114.029347 
L 432.130882 113.916407 
L 433.130882 113.870634 
L 434.130882 113.809351 
L 435.130882 113.760852 
L 436.130882 113.680029 
L 437.130882 113.56151 
L 438.130882 113.4913 
L 439.130882 113.408037 
L 440.130882 113.374895 
L 441.130882 113.323658 
L 442.130882 113.25526 
L 443.130882 113.189044 
L 444.130882 113.112127 
L 445.799004 113.084812 
" clip-path="url(#p3daafec288)" style="fill: none; stroke: #ff7f0e; stroke-opacity: 0.5; stroke-width: 0.2; stroke-linecap: square"/>
   <g id="patch_3">
    <path d="M 69.06392 22.318125 
L 69.06392 318.021875 
M 192.420059 22.318125 
L 192.420059 318.021875 
" clip-path="url(#p3daafec288)" style="fill: none; stroke: #ffffff; stroke-width: 3; stroke-linejoin: miter"/>
    <path d="M 69.06392 22.318125 
L 69.06392 318.021875 
M 192.420059 22.318125 
L 192.420059 318.021875 
" clip-path="url(#p3daafec288)" style="fill: none; stroke: #1f77b4; stroke-linejoin: miter"/>
    <g id="PolyCollection_1">
     <path d="M 192.420059 22.318125 
L 69.06392 22.318125 
L 69.06392 318.021875 
L 192.420059 318.021875 
L 192.420059 318.021875 
L 192.420059 22.318125 
z
" clip-path="url(#p3daafec288)" style="fill: #1f77b4; fill-opacity: 0.5"/>
    </g>
    <g id="patch_4">
     <path d="M 260.212556 22.318125 
L 260.212556 318.021875 
M 383.568694 22.318125 
L 383.568694 318.021875 
" clip-path="url(#p3daafec288)" style="fill: none; stroke: #ffffff; stroke-width: 3; stroke-linejoin: miter"/>
     <path d="M 260.212556 22.318125 
L 260.212556 318.021875 
M 383.568694 22.318125 
L 383.568694 318.021875 
" clip-path="url(#p3daafec288)" style="fill: none; stroke: #ff7f0e; stroke-linejoin: miter"/>
     <g id="PolyCollection_2">
      <path d="M 383.568694 22.318125 
L 260.212556 22.318125 
L 260.212556 318.021875 
L 383.568694 318.021875 
L 383.568694 318.021875 
L 383.568694 22.318125 
z
" clip-path="url(#p3daafec288)" style="fill: #ff7f0e; fill-opacity: 0.5"/>
     </g>
     <g id="patch_5">
      <path d="M 451.361191 22.318125 
L 451.361191 318.021875 
M 574.71733 22.318125 
L 574.71733 318.021875 
" clip-path="url(#p3daafec288)" style="fill: none; stroke: #ffffff; stroke-width: 3; stroke-linejoin: miter"/>
      <path d="M 451.361191 22.318125 
L 451.361191 318.021875 
M 574.71733 22.318125 
L 574.71733 318.021875 
" clip-path="url(#p3daafec288)" style="fill: none; stroke: #2ca02c; stroke-linejoin: miter"/>
      <g id="PolyCollection_3">
       <path d="M 574.71733 22.318125 
L 451.361191 22.318125 
L 451.361191 318.021875 
L 574.71733 318.021875 
L 574.71733 318.021875 
L 574.71733 22.318125 
z
" clip-path="url(#p3daafec288)" style="fill: #2ca02c; fill-opacity: 0.5"/>
      </g>
      <g id="matplotlib.axis_1">
       <g id="xtick_1">
        <g id="line2d_1"/>
        <g id="text_1">
         <!-- deme0 -->
         <g transform="translate(113.363083 329.120312) scale(0.1 -0.1)">
          <defs>
           <path id="DejaVuSans-64" d="M 2906 2969 
L 2906 4863 
L 3481 4863 
L 3481 0 
L 2906 0 
L 2906 525 
Q 2725 213 2448 61 
Q 2172 -91 1784 -91 
Q 1150 -91 751 415 
Q 353 922 353 1747 
Q 353 2572 751 3078 
Q 1150 3584 1784 3584 
Q 2172 3584 2448 3432 
Q 2725 3281 2906 2969 
z
M 947 1747 
Q 947 1113 1208 752 
Q 1469 391 1925 391 
Q 2381 391 2643 752 
Q 2906 1113 2906 1747 
Q 2906 2381 2643 2742 
Q 2381 3103 1925 3103 
Q 1469 3103 1208 2742 
Q 947 2381 947 1747 
z
" transform="scale(0.015625)"/>
           <path id="DejaVuSans-65" d="M 3597 1894 
L 3597 1613 
L 953 1613 
Q 991 1019 1311 708 
Q 1631 397 2203 397 
Q 2534 397 2845 478 
Q 3156 559 3463 722 
L 3463 178 
Q 3153 47 2828 -22 
Q 2503 -91 2169 -91 
Q 1331 -91 842 396 
Q 353 884 353 1716 
Q 353 2575 817 3079 
Q 1281 3584 2069 3584 
Q 2775 3584 3186 3129 
Q 3597 2675 3597 1894 
z
M 3022 2063 
Q 3016 2534 2758 2815 
Q 2500 3097 2075 3097 
Q 1594 3097 1305 2825 
Q 1016 2553 972 2059 
L 3022 2063 
z
" transform="scale(0.015625)"/>
           <path id="DejaVuSans-6d" d="M 3328 2828 
Q 3544 3216 3844 3400 
Q 4144 3584 4550 3584 
Q 5097 3584 5394 3201 
Q 5691 2819 5691 2113 
L 5691 0 
L 5113 0 
L 5113 2094 
Q 5113 2597 4934 2840 
Q 4756 3084 4391 3084 
Q 3944 3084 3684 2787 
Q 3425 2491 3425 1978 
L 3425 0 
L 2847 0 
L 2847 2094 
Q 2847 2600 2669 2842 
Q 2491 3084 2119 3084 
Q 1678 3084 1418 2786 
Q 1159 2488 1159 1978 
L 1159 0 
L 581 0 
L 581 3500 
L 1159 3500 
L 1159 2956 
Q 1356 3278 1631 3431 
Q 1906 3584 2284 3584 
Q 2666 3584 2933 3390 
Q 3200 3197 3328 2828 
z
" transform="scale(0.015625)"/>
           <path id="DejaVuSans-30" d="M 2034 4250 
Q 1547 4250 1301 3770 
Q 1056 3291 1056 2328 
Q 1056 1369 1301 889 
Q 1547 409 2034 409 
Q 2525 409 2770 889 
Q 3016 1369 3016 2328 
Q 3016 3291 2770 3770 
Q 2525 4250 2034 4250 
z
M 2034 4750 
Q 2819 4750 3233 4129 
Q 3647 3509 3647 2328 
Q 3647 1150 3233 529 
Q 2819 -91 2034 -91 
Q 1250 -91 836 529 
Q 422 1150 422 2328 
Q 422 3509 836 4129 
Q 1250 4750 2034 4750 
z
" transform="scale(0.015625)"/>
          </defs>
          <use xlink:href="#DejaVuSans-64"/>
          <use xlink:href="#DejaVuSans-65" x="63.476562"/>
          <use xlink:href="#DejaVuSans-6d" x="125"/>
          <use xlink:href="#DejaVuSans-65" x="222.412109"/>
          <use xlink:href="#DejaVuSans-30" x="283.935547"/>
         </g>
        </g>
       </g>
       <g id="xtick_2">
        <g id="line2d_2"/>
        <g id="text_2">
         <!-- deme1 -->
         <g transform="translate(304.511719 329.120312) scale(0.1 -0.1)">
          <defs>
           <path id="DejaVuSans-31" d="M 794 531 
L 1825 531 
L 1825 4091 
L 703 3866 
L 703 4441 
L 1819 4666 
L 2450 4666 
L 2450 531 
L 3481 531 
L 3481 0 
L 794 0 
L 794 531 
z
" transform="scale(0.015625)"/>
          </defs>
          <use xlink:href="#DejaVuSans-64"/>
          <use xlink:href="#DejaVuSans-65" x="63.476562"/>
          <use xlink:href="#DejaVuSans-6d" x="125"/>
          <use xlink:href="#DejaVuSans-65" x="222.412109"/>
          <use xlink:href="#DejaVuSans-31" x="283.935547"/>
         </g>
        </g>
       </g>
       <g id="xtick_3">
        <g id="line2d_3"/>
        <g id="text_3">
         <!-- deme2 -->
         <g transform="translate(495.660354 329.120312) scale(0.1 -0.1)">
          <defs>
           <path id="DejaVuSans-32" d="M 1228 531 
L 3431 531 
L 3431 0 
L 469 0 
L 469 531 
Q 828 903 1448 1529 
Q 2069 2156 2228 2338 
Q 2531 2678 2651 2914 
Q 2772 3150 2772 3378 
Q 2772 3750 2511 3984 
Q 2250 4219 1831 4219 
Q 1534 4219 1204 4116 
Q 875 4013 500 3803 
L 500 4441 
Q 881 4594 1212 4672 
Q 1544 4750 1819 4750 
Q 2544 4750 2975 4387 
Q 3406 4025 3406 3419 
Q 3406 3131 3298 2873 
Q 3191 2616 2906 2266 
Q 2828 2175 2409 1742 
Q 1991 1309 1228 531 
z
" transform="scale(0.015625)"/>
          </defs>
          <use xlink:href="#DejaVuSans-64"/>
          <use xlink:href="#DejaVuSans-65" x="63.476562"/>
          <use xlink:href="#DejaVuSans-6d" x="125"/>
          <use xlink:href="#DejaVuSans-65" x="222.412109"/>
          <use xlink:href="#DejaVuSans-32" x="283.935547"/>
         </g>
        </g>
       </g>
      </g>
      <g id="matplotlib.axis_2">
       <g id="ytick_1">
        <g id="line2d_4">
         <defs>
          <path id="m49c14c7857" d="M 0 0 
L -3.5 0 
" style="stroke: #000000; stroke-width: 0.8"/>
         </defs>
         <g>
          <use xlink:href="#m49c14c7857" x="43.78125" y="318.021875" style="stroke: #000000; stroke-width: 0.8"/>
         </g>
        </g>
        <g id="text_4">
         <!-- 0.0 -->
         <g transform="translate(20.878125 321.821094) scale(0.1 -0.1)">
          <defs>
           <path id="DejaVuSans-2e" d="M 684 794 
L 1344 794 
L 1344 0 
L 684 0 
L 684 794 
z
" transform="scale(0.015625)"/>
          </defs>
          <use xlink:href="#DejaVuSans-30"/>
          <use xlink:href="#DejaVuSans-2e" x="63.623047"/>
          <use xlink:href="#DejaVuSans-30" x="95.410156"/>
         </g>
        </g>
       </g>
       <g id="ytick_2">
        <g id="line2d_5">
         <g>
          <use xlink:href="#m49c14c7857" x="43.78125" y="258.881125" style="stroke: #000000; stroke-width: 0.8"/>
         </g>
        </g>
        <g id="text_5">
         <!-- 0.5 -->
         <g transform="translate(20.878125 262.680344) scale(0.1 -0.1)">
          <defs>
           <path id="DejaVuSans-35" d="M 691 4666 
L 3169 4666 
L 3169 4134 
L 1269 4134 
L 1269 2991 
Q 1406 3038 1543 3061 
Q 1681 3084 1819 3084 
Q 2600 3084 3056 2656 
Q 3513 2228 3513 1497 
Q 3513 744 3044 326 
Q 2575 -91 1722 -91 
Q 1428 -91 1123 -41 
Q 819 9 494 109 
L 494 744 
Q 775 591 1075 516 
Q 1375 441 1709 441 
Q 2250 441 2565 725 
Q 2881 1009 2881 1497 
Q 2881 1984 2565 2268 
Q 2250 2553 1709 2553 
Q 1456 2553 1204 2497 
Q 953 2441 691 2322 
L 691 4666 
z
" transform="scale(0.015625)"/>
          </defs>
          <use xlink:href="#DejaVuSans-30"/>
          <use xlink:href="#DejaVuSans-2e" x="63.623047"/>
          <use xlink:href="#DejaVuSans-35" x="95.410156"/>
         </g>
        </g>
       </g>
       <g id="ytick_3">
        <g id="line2d_6">
         <g>
          <use xlink:href="#m49c14c7857" x="43.78125" y="199.740375" style="stroke: #000000; stroke-width: 0.8"/>
         </g>
        </g>
        <g id="text_6">
         <!-- 1.0 -->
         <g transform="translate(20.878125 203.539594) scale(0.1 -0.1)">
          <use xlink:href="#DejaVuSans-31"/>
          <use xlink:href="#DejaVuSans-2e" x="63.623047"/>
          <use xlink:href="#DejaVuSans-30" x="95.410156"/>
         </g>
        </g>
       </g>
       <g id="ytick_4">
        <g id="line2d_7">
         <g>
          <use xlink:href="#m49c14c7857" x="43.78125" y="140.599625" style="stroke: #000000; stroke-width: 0.8"/>
         </g>
        </g>
        <g id="text_7">
         <!-- 1.5 -->
         <g transform="translate(20.878125 144.398844) scale(0.1 -0.1)">
          <use xlink:href="#DejaVuSans-31"/>
          <use xlink:href="#DejaVuSans-2e" x="63.623047"/>
          <use xlink:href="#DejaVuSans-35" x="95.410156"/>
         </g>
        </g>
       </g>
       <g id="ytick_5">
        <g id="line2d_8">
         <g>
          <use xlink:href="#m49c14c7857" x="43.78125" y="81.458875" style="stroke: #000000; stroke-width: 0.8"/>
         </g>
        </g>
        <g id="text_8">
         <!-- 2.0 -->
         <g transform="translate(20.878125 85.258094) scale(0.1 -0.1)">
          <use xlink:href="#DejaVuSans-32"/>
          <use xlink:href="#DejaVuSans-2e" x="63.623047"/>
          <use xlink:href="#DejaVuSans-30" x="95.410156"/>
         </g>
        </g>
       </g>
       <g id="ytick_6">
        <g id="line2d_9">
         <g>
          <use xlink:href="#m49c14c7857" x="43.78125" y="22.318125" style="stroke: #000000; stroke-width: 0.8"/>
         </g>
        </g>
        <g id="text_9">
         <!-- 2.5 -->
         <g transform="translate(20.878125 26.117344) scale(0.1 -0.1)">
          <use xlink:href="#DejaVuSans-32"/>
          <use xlink:href="#DejaVuSans-2e" x="63.623047"/>
          <use xlink:href="#DejaVuSans-35" x="95.410156"/>
         </g>
        </g>
       </g>
       <g id="text_10">
        <!-- time ago (generations) -->
        <g transform="translate(14.798438 227.641094) rotate(-90) scale(0.1 -0.1)">
         <defs>
          <path id="DejaVuSans-74" d="M 1172 4494 
L 1172 3500 
L 2356 3500 
L 2356 3053 
L 1172 3053 
L 1172 1153 
Q 1172 725 1289 603 
Q 1406 481 1766 481 
L 2356 481 
L 2356 0 
L 1766 0 
Q 1100 0 847 248 
Q 594 497 594 1153 
L 594 3053 
L 172 3053 
L 172 3500 
L 594 3500 
L 594 4494 
L 1172 4494 
z
" transform="scale(0.015625)"/>
          <path id="DejaVuSans-69" d="M 603 3500 
L 1178 3500 
L 1178 0 
L 603 0 
L 603 3500 
z
M 603 4863 
L 1178 4863 
L 1178 4134 
L 603 4134 
L 603 4863 
z
" transform="scale(0.015625)"/>
          <path id="DejaVuSans-20" transform="scale(0.015625)"/>
          <path id="DejaVuSans-61" d="M 2194 1759 
Q 1497 1759 1228 1600 
Q 959 1441 959 1056 
Q 959 750 1161 570 
Q 1363 391 1709 391 
Q 2188 391 2477 730 
Q 2766 1069 2766 1631 
L 2766 1759 
L 2194 1759 
z
M 3341 1997 
L 3341 0 
L 2766 0 
L 2766 531 
Q 2569 213 2275 61 
Q 1981 -91 1556 -91 
Q 1019 -91 701 211 
Q 384 513 384 1019 
Q 384 1609 779 1909 
Q 1175 2209 1959 2209 
L 2766 2209 
L 2766 2266 
Q 2766 2663 2505 2880 
Q 2244 3097 1772 3097 
Q 1472 3097 1187 3025 
Q 903 2953 641 2809 
L 641 3341 
Q 956 3463 1253 3523 
Q 1550 3584 1831 3584 
Q 2591 3584 2966 3190 
Q 3341 2797 3341 1997 
z
" transform="scale(0.015625)"/>
          <path id="DejaVuSans-67" d="M 2906 1791 
Q 2906 2416 2648 2759 
Q 2391 3103 1925 3103 
Q 1463 3103 1205 2759 
Q 947 2416 947 1791 
Q 947 1169 1205 825 
Q 1463 481 1925 481 
Q 2391 481 2648 825 
Q 2906 1169 2906 1791 
z
M 3481 434 
Q 3481 -459 3084 -895 
Q 2688 -1331 1869 -1331 
Q 1566 -1331 1297 -1286 
Q 1028 -1241 775 -1147 
L 775 -588 
Q 1028 -725 1275 -790 
Q 1522 -856 1778 -856 
Q 2344 -856 2625 -561 
Q 2906 -266 2906 331 
L 2906 616 
Q 2728 306 2450 153 
Q 2172 0 1784 0 
Q 1141 0 747 490 
Q 353 981 353 1791 
Q 353 2603 747 3093 
Q 1141 3584 1784 3584 
Q 2172 3584 2450 3431 
Q 2728 3278 2906 2969 
L 2906 3500 
L 3481 3500 
L 3481 434 
z
" transform="scale(0.015625)"/>
          <path id="DejaVuSans-6f" d="M 1959 3097 
Q 1497 3097 1228 2736 
Q 959 2375 959 1747 
Q 959 1119 1226 758 
Q 1494 397 1959 397 
Q 2419 397 2687 759 
Q 2956 1122 2956 1747 
Q 2956 2369 2687 2733 
Q 2419 3097 1959 3097 
z
M 1959 3584 
Q 2709 3584 3137 3096 
Q 3566 2609 3566 1747 
Q 3566 888 3137 398 
Q 2709 -91 1959 -91 
Q 1206 -91 779 398 
Q 353 888 353 1747 
Q 353 2609 779 3096 
Q 1206 3584 1959 3584 
z
" transform="scale(0.015625)"/>
          <path id="DejaVuSans-28" d="M 1984 4856 
Q 1566 4138 1362 3434 
Q 1159 2731 1159 2009 
Q 1159 1288 1364 580 
Q 1569 -128 1984 -844 
L 1484 -844 
Q 1016 -109 783 600 
Q 550 1309 550 2009 
Q 550 2706 781 3412 
Q 1013 4119 1484 4856 
L 1984 4856 
z
" transform="scale(0.015625)"/>
          <path id="DejaVuSans-6e" d="M 3513 2113 
L 3513 0 
L 2938 0 
L 2938 2094 
Q 2938 2591 2744 2837 
Q 2550 3084 2163 3084 
Q 1697 3084 1428 2787 
Q 1159 2491 1159 1978 
L 1159 0 
L 581 0 
L 581 3500 
L 1159 3500 
L 1159 2956 
Q 1366 3272 1645 3428 
Q 1925 3584 2291 3584 
Q 2894 3584 3203 3211 
Q 3513 2838 3513 2113 
z
" transform="scale(0.015625)"/>
          <path id="DejaVuSans-72" d="M 2631 2963 
Q 2534 3019 2420 3045 
Q 2306 3072 2169 3072 
Q 1681 3072 1420 2755 
Q 1159 2438 1159 1844 
L 1159 0 
L 581 0 
L 581 3500 
L 1159 3500 
L 1159 2956 
Q 1341 3275 1631 3429 
Q 1922 3584 2338 3584 
Q 2397 3584 2469 3576 
Q 2541 3569 2628 3553 
L 2631 2963 
z
" transform="scale(0.015625)"/>
          <path id="DejaVuSans-73" d="M 2834 3397 
L 2834 2853 
Q 2591 2978 2328 3040 
Q 2066 3103 1784 3103 
Q 1356 3103 1142 2972 
Q 928 2841 928 2578 
Q 928 2378 1081 2264 
Q 1234 2150 1697 2047 
L 1894 2003 
Q 2506 1872 2764 1633 
Q 3022 1394 3022 966 
Q 3022 478 2636 193 
Q 2250 -91 1575 -91 
Q 1294 -91 989 -36 
Q 684 19 347 128 
L 347 722 
Q 666 556 975 473 
Q 1284 391 1588 391 
Q 1994 391 2212 530 
Q 2431 669 2431 922 
Q 2431 1156 2273 1281 
Q 2116 1406 1581 1522 
L 1381 1569 
Q 847 1681 609 1914 
Q 372 2147 372 2553 
Q 372 3047 722 3315 
Q 1072 3584 1716 3584 
Q 2034 3584 2315 3537 
Q 2597 3491 2834 3397 
z
" transform="scale(0.015625)"/>
          <path id="DejaVuSans-29" d="M 513 4856 
L 1013 4856 
Q 1481 4119 1714 3412 
Q 1947 2706 1947 2009 
Q 1947 1309 1714 600 
Q 1481 -109 1013 -844 
L 513 -844 
Q 928 -128 1133 580 
Q 1338 1288 1338 2009 
Q 1338 2731 1133 3434 
Q 928 4138 513 4856 
z
" transform="scale(0.015625)"/>
         </defs>
         <use xlink:href="#DejaVuSans-74"/>
         <use xlink:href="#DejaVuSans-69" x="39.208984"/>
         <use xlink:href="#DejaVuSans-6d" x="66.992188"/>
         <use xlink:href="#DejaVuSans-65" x="164.404297"/>
         <use xlink:href="#DejaVuSans-20" x="225.927734"/>
         <use xlink:href="#DejaVuSans-61" x="257.714844"/>
         <use xlink:href="#DejaVuSans-67" x="318.994141"/>
         <use xlink:href="#DejaVuSans-6f" x="382.470703"/>
         <use xlink:href="#DejaVuSans-20" x="443.652344"/>
         <use xlink:href="#DejaVuSans-28" x="475.439453"/>
         <use xlink:href="#DejaVuSans-67" x="514.453125"/>
         <use xlink:href="#DejaVuSans-65" x="577.929688"/>
         <use xlink:href="#DejaVuSans-6e" x="639.453125"/>
         <use xlink:href="#DejaVuSans-65" x="702.832031"/>
         <use xlink:href="#DejaVuSans-72" x="764.355469"/>
         <use xlink:href="#DejaVuSans-61" x="805.46875"/>
         <use xlink:href="#DejaVuSans-74" x="866.748047"/>
         <use xlink:href="#DejaVuSans-69" x="905.957031"/>
         <use xlink:href="#DejaVuSans-6f" x="933.740234"/>
         <use xlink:href="#DejaVuSans-6e" x="994.921875"/>
         <use xlink:href="#DejaVuSans-73" x="1058.300781"/>
         <use xlink:href="#DejaVuSans-29" x="1110.400391"/>
        </g>
       </g>
      </g>
      <path d="M 255.650369 106.838503 
L 253.650369 105.838503 
L 253.650369 107.838503 
z
" clip-path="url(#p3daafec288)" style="fill: #1f77b4; fill-opacity: 0.5; stroke: #1f77b4; stroke-opacity: 0.5; stroke-linejoin: miter"/>
      <path d="M 255.650369 128.993624 
L 253.650369 127.993624 
L 253.650369 129.993624 
z
" clip-path="url(#p3daafec288)" style="fill: #1f77b4; fill-opacity: 0.5; stroke: #1f77b4; stroke-opacity: 0.5; stroke-linejoin: miter"/>
      <path d="M 255.650369 178.918229 
L 253.650369 177.918229 
L 253.650369 179.918229 
z
" clip-path="url(#p3daafec288)" style="fill: #1f77b4; fill-opacity: 0.5; stroke: #1f77b4; stroke-opacity: 0.5; stroke-linejoin: miter"/>
      <path d="M 255.650369 131.423103 
L 253.650369 130.423103 
L 253.650369 132.423103 
z
" clip-path="url(#p3daafec288)" style="fill: #1f77b4; fill-opacity: 0.5; stroke: #1f77b4; stroke-opacity: 0.5; stroke-linejoin: miter"/>
      <path d="M 255.650369 159.490609 
L 253.650369 158.490609 
L 253.650369 160.490609 
z
" clip-path="url(#p3daafec288)" style="fill: #1f77b4; fill-opacity: 0.5; stroke: #1f77b4; stroke-opacity: 0.5; stroke-linejoin: miter"/>
      <path d="M 255.650369 179.850962 
L 253.650369 178.850962 
L 253.650369 180.850962 
z
" clip-path="url(#p3daafec288)" style="fill: #1f77b4; fill-opacity: 0.5; stroke: #1f77b4; stroke-opacity: 0.5; stroke-linejoin: miter"/>
      <path d="M 255.650369 167.509475 
L 253.650369 166.509475 
L 253.650369 168.509475 
z
" clip-path="url(#p3daafec288)" style="fill: #1f77b4; fill-opacity: 0.5; stroke: #1f77b4; stroke-opacity: 0.5; stroke-linejoin: miter"/>
      <path d="M 255.650369 166.570331 
L 253.650369 165.570331 
L 253.650369 167.570331 
z
" clip-path="url(#p3daafec288)" style="fill: #1f77b4; fill-opacity: 0.5; stroke: #1f77b4; stroke-opacity: 0.5; stroke-linejoin: miter"/>
      <path d="M 255.650369 136.28397 
L 253.650369 135.28397 
L 253.650369 137.28397 
z
" clip-path="url(#p3daafec288)" style="fill: #1f77b4; fill-opacity: 0.5; stroke: #1f77b4; stroke-opacity: 0.5; stroke-linejoin: miter"/>
      <path d="M 255.650369 113.922415 
L 253.650369 112.922415 
L 253.650369 114.922415 
z
" clip-path="url(#p3daafec288)" style="fill: #1f77b4; fill-opacity: 0.5; stroke: #1f77b4; stroke-opacity: 0.5; stroke-linejoin: miter"/>
      <path d="M 446.799004 118.480405 
L 444.799004 117.480405 
L 444.799004 119.480405 
z
" clip-path="url(#p3daafec288)" style="fill: #ff7f0e; fill-opacity: 0.5; stroke: #ff7f0e; stroke-opacity: 0.5; stroke-linejoin: miter"/>
      <path d="M 446.799004 113.060174 
L 444.799004 112.060174 
L 444.799004 114.060174 
z
" clip-path="url(#p3daafec288)" style="fill: #ff7f0e; fill-opacity: 0.5; stroke: #ff7f0e; stroke-opacity: 0.5; stroke-linejoin: miter"/>
      <path d="M 446.799004 133.659128 
L 444.799004 132.659128 
L 444.799004 134.659128 
z
" clip-path="url(#p3daafec288)" style="fill: #ff7f0e; fill-opacity: 0.5; stroke: #ff7f0e; stroke-opacity: 0.5; stroke-linejoin: miter"/>
      <path d="M 446.799004 193.945427 
L 444.799004 192.945427 
L 444.799004 194.945427 
z
" clip-path="url(#p3daafec288)" style="fill: #ff7f0e; fill-opacity: 0.5; stroke: #ff7f0e; stroke-opacity: 0.5; stroke-linejoin: miter"/>
      <path d="M 446.799004 127.120759 
L 444.799004 126.120759 
L 444.799004 128.120759 
z
" clip-path="url(#p3daafec288)" style="fill: #ff7f0e; fill-opacity: 0.5; stroke: #ff7f0e; stroke-opacity: 0.5; stroke-linejoin: miter"/>
      <path d="M 446.799004 86.348375 
L 444.799004 85.348375 
L 444.799004 87.348375 
z
" clip-path="url(#p3daafec288)" style="fill: #ff7f0e; fill-opacity: 0.5; stroke: #ff7f0e; stroke-opacity: 0.5; stroke-linejoin: miter"/>
      <path d="M 446.799004 90.487339 
L 444.799004 89.487339 
L 444.799004 91.487339 
z
" clip-path="url(#p3daafec288)" style="fill: #ff7f0e; fill-opacity: 0.5; stroke: #ff7f0e; stroke-opacity: 0.5; stroke-linejoin: miter"/>
      <path d="M 446.799004 182.136419 
L 444.799004 181.136419 
L 444.799004 183.136419 
z
" clip-path="url(#p3daafec288)" style="fill: #ff7f0e; fill-opacity: 0.5; stroke: #ff7f0e; stroke-opacity: 0.5; stroke-linejoin: miter"/>
      <path d="M 446.799004 133.902298 
L 444.799004 132.902298 
L 444.799004 134.902298 
z
" clip-path="url(#p3daafec288)" style="fill: #ff7f0e; fill-opacity: 0.5; stroke: #ff7f0e; stroke-opacity: 0.5; stroke-linejoin: miter"/>
      <path d="M 446.799004 113.831887 
L 444.799004 112.831887 
L 444.799004 114.831887 
z
" clip-path="url(#p3daafec288)" style="fill: #ff7f0e; fill-opacity: 0.5; stroke: #ff7f0e; stroke-opacity: 0.5; stroke-linejoin: miter"/>
      <g id="patch_6">
       <path d="M 43.78125 318.021875 
L 43.78125 22.318125 
" style="fill: none; stroke: #000000; stroke-width: 0.8; stroke-linejoin: miter; stroke-linecap: square"/>
      </g>
      <g id="text_11">
       <!-- defaults_migration_properties.yaml -->
       <g transform="translate(215.434687 16.318125) scale(0.12 -0.12)">
        <defs>
         <path id="DejaVuSans-66" d="M 2375 4863 
L 2375 4384 
L 1825 4384 
Q 1516 4384 1395 4259 
Q 1275 4134 1275 3809 
L 1275 3500 
L 2222 3500 
L 2222 3053 
L 1275 3053 
L 1275 0 
L 697 0 
L 697 3053 
L 147 3053 
L 147 3500 
L 697 3500 
L 697 3744 
Q 697 4328 969 4595 
Q 1241 4863 1831 4863 
L 2375 4863 
z
" transform="scale(0.015625)"/>
         <path id="DejaVuSans-75" d="M 544 1381 
L 544 3500 
L 1119 3500 
L 1119 1403 
Q 1119 906 1312 657 
Q 1506 409 1894 409 
Q 2359 409 2629 706 
Q 2900 1003 2900 1516 
L 2900 3500 
L 3475 3500 
L 3475 0 
L 2900 0 
L 2900 538 
Q 2691 219 2414 64 
Q 2138 -91 1772 -91 
Q 1169 -91 856 284 
Q 544 659 544 1381 
z
M 1991 3584 
L 1991 3584 
z
" transform="scale(0.015625)"/>
         <path id="DejaVuSans-6c" d="M 603 4863 
L 1178 4863 
L 1178 0 
L 603 0 
L 603 4863 
z
" transform="scale(0.015625)"/>
         <path id="DejaVuSans-5f" d="M 3263 -1063 
L 3263 -1509 
L -63 -1509 
L -63 -1063 
L 3263 -1063 
z
" transform="scale(0.015625)"/>
         <path id="DejaVuSans-70" d="M 1159 525 
L 1159 -1331 
L 581 -1331 
L 581 3500 
L 1159 3500 
L 1159 2969 
Q 1341 3281 1617 3432 
Q 1894 3584 2278 3584 
Q 2916 3584 3314 3078 
Q 3713 2572 3713 1747 
Q 3713 922 3314 415 
Q 2916 -91 2278 -91 
Q 1894 -91 1617 61 
Q 1341 213 1159 525 
z
M 3116 1747 
Q 3116 2381 2855 2742 
Q 2594 3103 2138 3103 
Q 1681 3103 1420 2742 
Q 1159 2381 1159 1747 
Q 1159 1113 1420 752 
Q 1681 391 2138 391 
Q 2594 391 2855 752 
Q 3116 1113 3116 1747 
z
" transform="scale(0.015625)"/>
         <path id="DejaVuSans-79" d="M 2059 -325 
Q 1816 -950 1584 -1140 
Q 1353 -1331 966 -1331 
L 506 -1331 
L 506 -850 
L 844 -850 
Q 1081 -850 1212 -737 
Q 1344 -625 1503 -206 
L 1606 56 
L 191 3500 
L 800 3500 
L 1894 763 
L 2988 3500 
L 3597 3500 
L 2059 -325 
z
" transform="scale(0.015625)"/>
        </defs>
        <use xlink:href="#DejaVuSans-64"/>
        <use xlink:href="#DejaVuSans-65" x="63.476562"/>
        <use xlink:href="#DejaVuSans-66" x="125"/>
        <use xlink:href="#DejaVuSans-61" x="160.205078"/>
        <use xlink:href="#DejaVuSans-75" x="221.484375"/>
        <use xlink:href="#DejaVuSans-6c" x="284.863281"/>
        <use xlink:href="#DejaVuSans-74" x="312.646484"/>
        <use xlink:href="#DejaVuSans-73" x="351.855469"/>
        <use xlink:href="#DejaVuSans-5f" x="403.955078"/>
        <use xlink:href="#DejaVuSans-6d" x="453.955078"/>
        <use xlink:href="#DejaVuSans-69" x="551.367188"/>
        <use xlink:href="#DejaVuSans-67" x="579.150391"/>
        <use xlink:href="#DejaVuSans-72" x="642.626953"/>
        <use xlink:href="#DejaVuSans-61" x="683.740234"/>
        <use xlink:href="#DejaVuSans-74" x="745.019531"/>
        <use xlink:href="#DejaVuSans-69" x="784.228516"/>
        <use xlink:href="#DejaVuSans-6f" x="812.011719"/>
        <use xlink:href="#DejaVuSans-6e" x="873.193359"/>
        <use xlink:href="#DejaVuSans-5f" x="936.572266"/>
        <use xlink:href="#DejaVuSans-70" x="986.572266"/>
        <use xlink:href="#DejaVuSans-72" x="1050.048828"/>
        <use xlink:href="#DejaVuSans-6f" x="1088.912109"/>
        <use xlink:href="#DejaVuSans-70" x="1150.09375"/>
        <use xlink:href="#DejaVuSans-65" x="1213.570312"/>
        <use xlink:href="#DejaVuSans-72" x="1275.09375"/>
        <use xlink:href="#DejaVuSans-74" x="1316.207031"/>
        <use xlink:href="#DejaVuSans-69" x="1355.416016"/>
        <use xlink:href="#DejaVuSans-65" x="1383.199219"/>
        <use xlink:href="#DejaVuSans-73" x="1444.722656"/>
        <use xlink:href="#DejaVuSans-2e" x="1496.822266"/>
        <use xlink:href="#DejaVuSans-79" x="1528.609375"/>
        <use xlink:href="#DejaVuSans-61" x="1587.789062"/>
        <use xlink:href="#DejaVuSans-6d" x="1649.068359"/>
        <use xlink:href="#DejaVuSans-6c" x="1746.480469"/>
       </g>
      </g>
     </g>
    </g>
    <defs>
     <clipPath id="p3daafec288">
      <rect x="43.78125" y="22.318125" width="556.21875" height="295.70375"/>
     </clipPath>
    </defs>
   </g>
  </g>
 </g>
</svg>