<?xml version="1.0" encoding="utf-8" standalone="no"?>
<!DOCTYPE svg PUBLIC "-//W3C//DTD SVG 1.1//EN"
  "http://www.w3.org/Graphics/SVG/1.1/DTD/svg11.dtd">
<svg xmlns:xlink="http://www.w3.org/1999/xlink" width="607.2pt" height="338.4pt" viewBox="0 0 607.2 338.4" xmlns="http://www.w3.org/2000/svg" version="1.1">
 <metadata>
  <rdf:RDF xmlns:dc="http://purl.org/dc/elements/1.1/" xmlns:cc="http://creativecommons.org/ns#" xmlns:rdf="http://www.w3.org/1999/02/22-rdf-syntax-ns#">
   <cc:Work>
    <dc:type rdf:resource="http://purl.org/dc/dcmitype/StillImage"/>
    <dc:date>2025-12-01T08:39:23.806990</dc:date>
    <dc:format>image/svg+xml</dc:format>
    <dc:creator>
     <cc:Agent>
      <dc:title>Matplotlib v3.10.7, https://matplotlib.org/</dc:title>
     </cc:Agent>
    </dc:creator>
   </cc:Work>
  </rdf:RDF>
 </metadata>
 <defs>
  <style type="text/css">*{stroke-linejoin: round; stroke-linecap: butt}</style>
 </defs>
 <g id="figure_1">
  <g id="patch_1">
   <path d="M 0 338.4 
L 607.2 338.4 
L 607.2 0 
L 0 0 
z
" style="fill: #ffffff"/>
  </g>
  <g id="axes_1">
   <g id="patch_2">
    <path d="M 45.478125 318.021875 
L 600 318.021875 
L 600 22.318125 
L 45.478125 22.318125 
z
" style="fill: #ffffff"/>
   </g>
   <g id="patch_3">
    <path d="M 247.230824 22.318125 
L 247.230824 86.599698 
L 198.442188 86.599698 
L 198.442188 91.758098 
L 154.136755 91.758098 
L 154.136755 94.345755 
L 120.654078 94.345755 
L 120.654078 96.940469 
L 100.515894 96.940469 
L 100.515894 99.543451 
L 89.830911 99.543451 
L 89.830911 102.156162 
L 79.24696 102.156162 
L 79.24696 104.780351 
L 70.683665 104.780351 
L 70.683665 107.418148 
L 76.382323 107.418148 
L 76.382323 110.071972 
L 100.945539 110.071972 
L 100.945539 112.744794 
L 137.43981 112.744794 
L 137.43981 115.440246 
L 176.337437 115.440246 
L 176.337437 118.162583 
L 208.802642 118.162583 
L 208.802642 120.9172 
L 229.040838 120.9172 
L 229.040838 123.710341 
L 237.188776 123.710341 
L 237.083661 129.446485 
L 233.278092 129.446485 
L 233.278092 132.411746 
L 224.479054 132.411746 
L 224.479054 135.462136 
L 209.720102 135.462136 
L 209.720102 138.618697 
L 209.325155 138.618697 
L 209.325155 141.908884 
L 242.21082 141.908884 
L 242.21082 339.4 
M 398.247301 22.318125 
L 398.247301 86.599698 
L 447.035937 86.599698 
L 447.035937 91.758098 
L 491.34137 91.758098 
L 491.34137 94.345755 
L 524.824047 94.345755 
L 524.824047 96.940469 
L 544.962231 96.940469 
L 544.962231 99.543451 
L 555.647214 99.543451 
L 555.647214 102.156162 
L 566.231165 102.156162 
L 566.231165 104.780351 
L 574.79446 104.780351 
L 574.79446 107.418148 
L 569.095802 107.418148 
L 569.095802 110.071972 
L 544.532586 110.071972 
L 544.532586 112.744794 
L 508.038315 112.744794 
L 508.038315 115.440246 
L 469.140688 115.440246 
L 469.140688 118.162583 
L 436.675483 118.162583 
L 436.675483 120.9172 
L 416.437287 120.9172 
L 416.437287 123.710341 
L 408.289349 123.710341 
L 408.394464 129.446485 
L 412.200033 129.446485 
L 412.200033 132.411746 
L 420.999071 132.411746 
L 420.999071 135.462136 
L 435.758023 135.462136 
L 435.758023 138.618697 
L 436.15297 138.618697 
L 436.15297 141.908884 
L 403.267305 141.908884 
L 403.267305 339.4 
L 403.267305 339.4 
" clip-path="url(#paabe6a3360)" style="fill: none; stroke: #ffffff; stroke-width: 3; stroke-linejoin: miter"/>
    <path d="M 247.230824 22.318125 
L 247.230824 86.599698 
L 198.442188 86.599698 
L 198.442188 91.758098 
L 154.136755 91.758098 
L 154.136755 94.345755 
L 120.654078 94.345755 
L 120.654078 96.940469 
L 100.515894 96.940469 
L 100.515894 99.543451 
L 89.830911 99.543451 
L 89.830911 102.156162 
L 79.24696 102.156162 
L 79.24696 104.780351 
L 70.683665 104.780351 
L 70.683665 107.418148 
L 76.382323 107.418148 
L 76.382323 110.071972 
L 100.945539 110.071972 
L 100.945539 112.744794 
L 137.43981 112.744794 
L 137.43981 115.440246 
L 176.337437 115.440246 
L 176.337437 118.162583 
L 208.802642 118.162583 
L 208.802642 120.9172 
L 229.040838 120.9172 
L 229.040838 123.710341 
L 237.188776 123.710341 
L 237.083661 129.446485 
L 233.278092 129.446485 
L 233.278092 132.411746 
L 224.479054 132.411746 
L 224.479054 135.462136 
L 209.720102 135.462136 
L 209.720102 138.618697 
L 209.325155 138.618697 
L 209.325155 141.908884 
L 242.21082 141.908884 
L 242.21082 339.4 
M 398.247301 22.318125 
L 398.247301 86.599698 
L 447.035937 86.599698 
L 447.035937 91.758098 
L 491.34137 91.758098 
L 491.34137 94.345755 
L 524.824047 94.345755 
L 524.824047 96.940469 
L 544.962231 96.940469 
L 544.962231 99.543451 
L 555.647214 99.543451 
L 555.647214 102.156162 
L 566.231165 102.156162 
L 566.231165 104.780351 
L 574.79446 104.780351 
L 574.79446 107.418148 
L 569.095802 107.418148 
L 569.095802 110.071972 
L 544.532586 110.071972 
L 544.532586 112.744794 
L 508.038315 112.744794 
L 508.038315 115.440246 
L 469.140688 115.440246 
L 469.140688 118.162583 
L 436.675483 118.162583 
L 436.675483 120.9172 
L 416.437287 120.9172 
L 416.437287 123.710341 
L 408.289349 123.710341 
L 408.394464 129.446485 
L 412.200033 129.446485 
L 412.200033 132.411746 
L 420.999071 132.411746 
L 420.999071 135.462136 
L 435.758023 135.462136 
L 435.758023 138.618697 
L 436.15297 138.618697 
L 436.15297 141.908884 
L 403.267305 141.908884 
L 403.267305 339.4 
L 403.267305 339.4 
" clip-path="url(#paabe6a3360)" style="fill: none; stroke: #1f77b4; stroke-linejoin: miter"/>
   </g>
   <g id="FillBetweenPolyCollection_1">
    <path d="M 398.247301 22.318125 
L 247.230824 22.318125 
L 247.230824 81.458875 
L 247.230824 81.458875 
L 247.230824 84.027457 
L 247.230824 84.027457 
L 247.230824 86.599698 
L 198.442188 86.599698 
L 198.442188 89.176375 
L 198.442188 89.176375 
L 198.442188 91.758098 
L 154.136755 91.758098 
L 154.136755 94.345755 
L 120.654078 94.345755 
L 120.654078 96.940469 
L 100.515894 96.940469 
L 100.515894 99.543451 
L 89.830911 99.543451 
L 89.830911 102.156162 
L 79.24696 102.156162 
L 79.24696 104.780351 
L 70.683665 104.780351 
L 70.683665 107.418148 
L 76.382323 107.418148 
L 76.382323 110.071972 
L 100.945539 110.071972 
L 100.945539 112.744794 
L 137.43981 112.744794 
L 137.43981 115.440246 
L 176.337437 115.440246 
L 176.337437 118.162583 
L 208.802642 118.162583 
L 208.802642 120.9172 
L 229.040838 120.9172 
L 229.040838 123.710341 
L 237.188776 123.710341 
L 237.188776 126.550061 
L 237.083661 126.550061 
L 237.083661 129.446485 
L 233.278092 129.446485 
L 233.278092 132.411746 
L 224.479054 132.411746 
L 224.479054 135.462136 
L 209.720102 135.462136 
L 209.720102 138.618697 
L 209.325155 138.618697 
L 209.325155 141.908884 
L 242.21082 141.908884 
L 242.21082 145.370315 
L 242.21082 145.370315 
L 242.21082 149.057379 
L 242.21082 149.057379 
L 242.21082 153.04767 
L 242.21082 153.04767 
L 242.21082 157.463405 
L 242.21082 157.463405 
L 242.21082 162.510597 
L 242.21082 162.510597 
L 242.21082 168.573444 
L 242.21082 168.573444 
L 242.21082 176.515593 
L 242.21082 176.515593 
L 242.21082 189.10282 
L 242.21082 189.10282 
L 242.21082 211.623107 
L 242.21082 211.623107 
L 242.21082 37723.40846 
L 403.267305 37723.40846 
L 403.267305 37723.40846 
L 403.267305 211.623107 
L 403.267305 211.623107 
L 403.267305 189.10282 
L 403.267305 189.10282 
L 403.267305 176.515593 
L 403.267305 176.515593 
L 403.267305 168.573444 
L 403.267305 168.573444 
L 403.267305 162.510597 
L 403.267305 162.510597 
L 403.267305 157.463405 
L 403.267305 157.463405 
L 403.267305 153.04767 
L 403.267305 153.04767 
L 403.267305 149.057379 
L 403.267305 149.057379 
L 403.267305 145.370315 
L 403.267305 145.370315 
L 403.267305 141.908884 
L 436.15297 141.908884 
L 436.15297 138.618697 
L 435.758023 138.618697 
L 435.758023 135.462136 
L 420.999071 135.462136 
L 420.999071 132.411746 
L 412.200033 132.411746 
L 412.200033 129.446485 
L 408.394464 129.446485 
L 408.394464 126.550061 
L 408.289349 126.550061 
L 408.289349 123.710341 
L 416.437287 123.710341 
L 416.437287 120.9172 
L 436.675483 120.9172 
L 436.675483 118.162583 
L 469.140688 118.162583 
L 469.140688 115.440246 
L 508.038315 115.440246 
L 508.038315 112.744794 
L 544.532586 112.744794 
L 544.532586 110.071972 
L 569.095802 110.071972 
L 569.095802 107.418148 
L 574.79446 107.418148 
L 574.79446 104.780351 
L 566.231165 104.780351 
L 566.231165 102.156162 
L 555.647214 102.156162 
L 555.647214 99.543451 
L 544.962231 99.543451 
L 544.962231 96.940469 
L 524.824047 96.940469 
L 524.824047 94.345755 
L 491.34137 94.345755 
L 491.34137 91.758098 
L 447.035937 91.758098 
L 447.035937 89.176375 
L 447.035937 89.176375 
L 447.035937 86.599698 
L 398.247301 86.599698 
L 398.247301 84.027457 
L 398.247301 84.027457 
L 398.247301 81.458875 
L 398.247301 81.458875 
L 398.247301 22.318125 
z
" clip-path="url(#paabe6a3360)" style="fill: #1f77b4; fill-opacity: 0.5"/>
   </g>
   <g id="matplotlib.axis_1">
    <g id="xtick_1">
     <g id="line2d_1"/>
     <g id="text_1">
      <!-- SouthMiddleAtlas -->
      <g transform="translate(279.339844 329.120312) scale(0.1 -0.1)">
       <defs>
        <path id="DejaVuSans-53" d="M 3425 4513 
L 3425 3897 
Q 3066 4069 2747 4153 
Q 2428 4238 2131 4238 
Q 1616 4238 1336 4038 
Q 1056 3838 1056 3469 
Q 1056 3159 1242 3001 
Q 1428 2844 1947 2747 
L 2328 2669 
Q 3034 2534 3370 2195 
Q 3706 1856 3706 1288 
Q 3706 609 3251 259 
Q 2797 -91 1919 -91 
Q 1588 -91 1214 -16 
Q 841 59 441 206 
L 441 856 
Q 825 641 1194 531 
Q 1563 422 1919 422 
Q 2459 422 2753 634 
Q 3047 847 3047 1241 
Q 3047 1584 2836 1778 
Q 2625 1972 2144 2069 
L 1759 2144 
Q 1053 2284 737 2584 
Q 422 2884 422 3419 
Q 422 4038 858 4394 
Q 1294 4750 2059 4750 
Q 2388 4750 2728 4690 
Q 3069 4631 3425 4513 
z
" transform="scale(0.015625)"/>
        <path id="DejaVuSans-6f" d="M 1959 3097 
Q 1497 3097 1228 2736 
Q 959 2375 959 1747 
Q 959 1119 1226 758 
Q 1494 397 1959 397 
Q 2419 397 2687 759 
Q 2956 1122 2956 1747 
Q 2956 2369 2687 2733 
Q 2419 3097 1959 3097 
z
M 1959 3584 
Q 2709 3584 3137 3096 
Q 3566 2609 3566 1747 
Q 3566 888 3137 398 
Q 2709 -91 1959 -91 
Q 1206 -91 779 398 
Q 353 888 353 1747 
Q 353 2609 779 3096 
Q 1206 3584 1959 3584 
z
" transform="scale(0.015625)"/>
        <path id="DejaVuSans-75" d="M 544 1381 
L 544 3500 
L 1119 3500 
L 1119 1403 
Q 1119 906 1312 657 
Q 1506 409 1894 409 
Q 2359 409 2629 706 
Q 2900 1003 2900 1516 
L 2900 3500 
L 3475 3500 
L 3475 0 
L 2900 0 
L 2900 538 
Q 2691 219 2414 64 
Q 2138 -91 1772 -91 
Q 1169 -91 856 284 
Q 544 659 544 1381 
z
M 1991 3584 
L 1991 3584 
z
" transform="scale(0.015625)"/>
        <path id="DejaVuSans-74" d="M 1172 4494 
L 1172 3500 
L 2356 3500 
L 2356 3053 
L 1172 3053 
L 1172 1153 
Q 1172 725 1289 603 
Q 1406 481 1766 481 
L 2356 481 
L 2356 0 
L 1766 0 
Q 1100 0 847 248 
Q 594 497 594 1153 
L 594 3053 
L 172 3053 
L 172 3500 
L 594 3500 
L 594 4494 
L 1172 4494 
z
" transform="scale(0.015625)"/>
        <path id="DejaVuSans-68" d="M 3513 2113 
L 3513 0 
L 2938 0 
L 2938 2094 
Q 2938 2591 2744 2837 
Q 2550 3084 2163 3084 
Q 1697 3084 1428 2787 
Q 1159 2491 1159 1978 
L 1159 0 
L 581 0 
L 581 4863 
L 1159 4863 
L 1159 2956 
Q 1366 3272 1645 3428 
Q 1925 3584 2291 3584 
Q 2894 3584 3203 3211 
Q 3513 2838 3513 2113 
z
" transform="scale(0.015625)"/>
        <path id="DejaVuSans-4d" d="M 628 4666 
L 1569 4666 
L 2759 1491 
L 3956 4666 
L 4897 4666 
L 4897 0 
L 4281 0 
L 4281 4097 
L 3078 897 
L 2444 897 
L 1241 4097 
L 1241 0 
L 628 0 
L 628 4666 
z
" transform="scale(0.015625)"/>
        <path id="DejaVuSans-69" d="M 603 3500 
L 1178 3500 
L 1178 0 
L 603 0 
L 603 3500 
z
M 603 4863 
L 1178 4863 
L 1178 4134 
L 603 4134 
L 603 4863 
z
" transform="scale(0.015625)"/>
        <path id="DejaVuSans-64" d="M 2906 2969 
L 2906 4863 
L 3481 4863 
L 3481 0 
L 2906 0 
L 2906 525 
Q 2725 213 2448 61 
Q 2172 -91 1784 -91 
Q 1150 -91 751 415 
Q 353 922 353 1747 
Q 353 2572 751 3078 
Q 1150 3584 1784 3584 
Q 2172 3584 2448 3432 
Q 2725 3281 2906 2969 
z
M 947 1747 
Q 947 1113 1208 752 
Q 1469 391 1925 391 
Q 2381 391 2643 752 
Q 2906 1113 2906 1747 
Q 2906 2381 2643 2742 
Q 2381 3103 1925 3103 
Q 1469 3103 1208 2742 
Q 947 2381 947 1747 
z
" transform="scale(0.015625)"/>
        <path id="DejaVuSans-6c" d="M 603 4863 
L 1178 4863 
L 1178 0 
L 603 0 
L 603 4863 
z
" transform="scale(0.015625)"/>
        <path id="DejaVuSans-65" d="M 3597 1894 
L 3597 1613 
L 953 1613 
Q 991 1019 1311 708 
Q 1631 397 2203 397 
Q 2534 397 2845 478 
Q 3156 559 3463 722 
L 3463 178 
Q 3153 47 2828 -22 
Q 2503 -91 2169 -91 
Q 1331 -91 842 396 
Q 353 884 353 1716 
Q 353 2575 817 3079 
Q 1281 3584 2069 3584 
Q 2775 3584 3186 3129 
Q 3597 2675 3597 1894 
z
M 3022 2063 
Q 3016 2534 2758 2815 
Q 2500 3097 2075 3097 
Q 1594 3097 1305 2825 
Q 1016 2553 972 2059 
L 3022 2063 
z
" transform="scale(0.015625)"/>
        <path id="DejaVuSans-41" d="M 2188 4044 
L 1331 1722 
L 3047 1722 
L 2188 4044 
z
M 1831 4666 
L 2547 4666 
L 4325 0 
L 3669 0 
L 3244 1197 
L 1141 1197 
L 716 0 
L 50 0 
L 1831 4666 
z
" transform="scale(0.015625)"/>
        <path id="DejaVuSans-61" d="M 2194 1759 
Q 1497 1759 1228 1600 
Q 959 1441 959 1056 
Q 959 750 1161 570 
Q 1363 391 1709 391 
Q 2188 391 2477 730 
Q 2766 1069 2766 1631 
L 2766 1759 
L 2194 1759 
z
M 3341 1997 
L 3341 0 
L 2766 0 
L 2766 531 
Q 2569 213 2275 61 
Q 1981 -91 1556 -91 
Q 1019 -91 701 211 
Q 384 513 384 1019 
Q 384 1609 779 1909 
Q 1175 2209 1959 2209 
L 2766 2209 
L 2766 2266 
Q 2766 2663 2505 2880 
Q 2244 3097 1772 3097 
Q 1472 3097 1187 3025 
Q 903 2953 641 2809 
L 641 3341 
Q 956 3463 1253 3523 
Q 1550 3584 1831 3584 
Q 2591 3584 2966 3190 
Q 3341 2797 3341 1997 
z
" transform="scale(0.015625)"/>
        <path id="DejaVuSans-73" d="M 2834 3397 
L 2834 2853 
Q 2591 2978 2328 3040 
Q 2066 3103 1784 3103 
Q 1356 3103 1142 2972 
Q 928 2841 928 2578 
Q 928 2378 1081 2264 
Q 1234 2150 1697 2047 
L 1894 2003 
Q 2506 1872 2764 1633 
Q 3022 1394 3022 966 
Q 3022 478 2636 193 
Q 2250 -91 1575 -91 
Q 1294 -91 989 -36 
Q 684 19 347 128 
L 347 722 
Q 666 556 975 473 
Q 1284 391 1588 391 
Q 1994 391 2212 530 
Q 2431 669 2431 922 
Q 2431 1156 2273 1281 
Q 2116 1406 1581 1522 
L 1381 1569 
Q 847 1681 609 1914 
Q 372 2147 372 2553 
Q 372 3047 722 3315 
Q 1072 3584 1716 3584 
Q 2034 3584 2315 3537 
Q 2597 3491 2834 3397 
z
" transform="scale(0.015625)"/>
       </defs>
       <use xlink:href="#DejaVuSans-53"/>
       <use xlink:href="#DejaVuSans-6f" transform="translate(63.476562 0)"/>
       <use xlink:href="#DejaVuSans-75" transform="translate(124.658203 0)"/>
       <use xlink:href="#DejaVuSans-74" transform="translate(188.037109 0)"/>
       <use xlink:href="#DejaVuSans-68" transform="translate(227.246094 0)"/>
       <use xlink:href="#DejaVuSans-4d" transform="translate(290.625 0)"/>
       <use xlink:href="#DejaVuSans-69" transform="translate(376.904297 0)"/>
       <use xlink:href="#DejaVuSans-64" transform="translate(404.6875 0)"/>
       <use xlink:href="#DejaVuSans-64" transform="translate(468.164062 0)"/>
       <use xlink:href="#DejaVuSans-6c" transform="translate(531.640625 0)"/>
       <use xlink:href="#DejaVuSans-65" transform="translate(559.423828 0)"/>
       <use xlink:href="#DejaVuSans-41" transform="translate(620.947266 0)"/>
       <use xlink:href="#DejaVuSans-74" transform="translate(687.605469 0)"/>
       <use xlink:href="#DejaVuSans-6c" transform="translate(726.814453 0)"/>
       <use xlink:href="#DejaVuSans-61" transform="translate(754.597656 0)"/>
       <use xlink:href="#DejaVuSans-73" transform="translate(815.876953 0)"/>
      </g>
     </g>
    </g>
   </g>
   <g id="matplotlib.axis_2">
    <g id="ytick_1">
     <g id="line2d_2">
      <defs>
       <path id="m9e80f79706" d="M 0 0 
L -3.5 0 
" style="stroke: #000000; stroke-width: 0.8"/>
      </defs>
      <g>
       <use xlink:href="#m9e80f79706" x="45.478125" y="318.021875" style="stroke: #000000; stroke-width: 0.8"/>
      </g>
     </g>
     <g id="text_2">
      <!-- $\mathdefault{10^{0}}$ -->
      <g transform="translate(20.878125 321.821094) scale(0.1 -0.1)">
       <defs>
        <path id="DejaVuSans-31" d="M 794 531 
L 1825 531 
L 1825 4091 
L 703 3866 
L 703 4441 
L 1819 4666 
L 2450 4666 
L 2450 531 
L 3481 531 
L 3481 0 
L 794 0 
L 794 531 
z
" transform="scale(0.015625)"/>
        <path id="DejaVuSans-30" d="M 2034 4250 
Q 1547 4250 1301 3770 
Q 1056 3291 1056 2328 
Q 1056 1369 1301 889 
Q 1547 409 2034 409 
Q 2525 409 2770 889 
Q 3016 1369 3016 2328 
Q 3016 3291 2770 3770 
Q 2525 4250 2034 4250 
z
M 2034 4750 
Q 2819 4750 3233 4129 
Q 3647 3509 3647 2328 
Q 3647 1150 3233 529 
Q 2819 -91 2034 -91 
Q 1250 -91 836 529 
Q 422 1150 422 2328 
Q 422 3509 836 4129 
Q 1250 4750 2034 4750 
z
" transform="scale(0.015625)"/>
       </defs>
       <use xlink:href="#DejaVuSans-31" transform="translate(0 0.765625)"/>
       <use xlink:href="#DejaVuSans-30" transform="translate(63.623047 0.765625)"/>
       <use xlink:href="#DejaVuSans-30" transform="translate(128.203125 39.046875) scale(0.7)"/>
      </g>
     </g>
    </g>
    <g id="ytick_2">
     <g id="line2d_3">
      <g>
       <use xlink:href="#m9e80f79706" x="45.478125" y="280.616488" style="stroke: #000000; stroke-width: 0.8"/>
      </g>
     </g>
     <g id="text_3">
      <!-- $\mathdefault{10^{1}}$ -->
      <g transform="translate(20.878125 284.415707) scale(0.1 -0.1)">
       <use xlink:href="#DejaVuSans-31" transform="translate(0 0.684375)"/>
       <use xlink:href="#DejaVuSans-30" transform="translate(63.623047 0.684375)"/>
       <use xlink:href="#DejaVuSans-31" transform="translate(128.203125 38.965625) scale(0.7)"/>
      </g>
     </g>
    </g>
    <g id="ytick_3">
     <g id="line2d_4">
      <g>
       <use xlink:href="#m9e80f79706" x="45.478125" y="243.211102" style="stroke: #000000; stroke-width: 0.8"/>
      </g>
     </g>
     <g id="text_4">
      <!-- $\mathdefault{10^{2}}$ -->
      <g transform="translate(20.878125 247.010321) scale(0.1 -0.1)">
       <defs>
        <path id="DejaVuSans-32" d="M 1228 531 
L 3431 531 
L 3431 0 
L 469 0 
L 469 531 
Q 828 903 1448 1529 
Q 2069 2156 2228 2338 
Q 2531 2678 2651 2914 
Q 2772 3150 2772 3378 
Q 2772 3750 2511 3984 
Q 2250 4219 1831 4219 
Q 1534 4219 1204 4116 
Q 875 4013 500 3803 
L 500 4441 
Q 881 4594 1212 4672 
Q 1544 4750 1819 4750 
Q 2544 4750 2975 4387 
Q 3406 4025 3406 3419 
Q 3406 3131 3298 2873 
Q 3191 2616 2906 2266 
Q 2828 2175 2409 1742 
Q 1991 1309 1228 531 
z
" transform="scale(0.015625)"/>
       </defs>
       <use xlink:href="#DejaVuSans-31" transform="translate(0 0.765625)"/>
       <use xlink:href="#DejaVuSans-30" transform="translate(63.623047 0.765625)"/>
       <use xlink:href="#DejaVuSans-32" transform="translate(128.203125 39.046875) scale(0.7)"/>
      </g>
     </g>
    </g>
    <g id="ytick_4">
     <g id="line2d_5">
      <g>
       <use xlink:href="#m9e80f79706" x="45.478125" y="205.805715" style="stroke: #000000; stroke-width: 0.8"/>
      </g>
     </g>
     <g id="text_5">
      <!-- $\mathdefault{10^{3}}$ -->
      <g transform="translate(20.878125 209.604934) scale(0.1 -0.1)">
       <defs>
        <path id="DejaVuSans-33" d="M 2597 2516 
Q 3050 2419 3304 2112 
Q 3559 1806 3559 1356 
Q 3559 666 3084 287 
Q 2609 -91 1734 -91 
Q 1441 -91 1130 -33 
Q 819 25 488 141 
L 488 750 
Q 750 597 1062 519 
Q 1375 441 1716 441 
Q 2309 441 2620 675 
Q 2931 909 2931 1356 
Q 2931 1769 2642 2001 
Q 2353 2234 1838 2234 
L 1294 2234 
L 1294 2753 
L 1863 2753 
Q 2328 2753 2575 2939 
Q 2822 3125 2822 3475 
Q 2822 3834 2567 4026 
Q 2313 4219 1838 4219 
Q 1578 4219 1281 4162 
Q 984 4106 628 3988 
L 628 4550 
Q 988 4650 1302 4700 
Q 1616 4750 1894 4750 
Q 2613 4750 3031 4423 
Q 3450 4097 3450 3541 
Q 3450 3153 3228 2886 
Q 3006 2619 2597 2516 
z
" transform="scale(0.015625)"/>
       </defs>
       <use xlink:href="#DejaVuSans-31" transform="translate(0 0.765625)"/>
       <use xlink:href="#DejaVuSans-30" transform="translate(63.623047 0.765625)"/>
       <use xlink:href="#DejaVuSans-33" transform="translate(128.203125 39.046875) scale(0.7)"/>
      </g>
     </g>
    </g>
    <g id="ytick_5">
     <g id="line2d_6">
      <g>
       <use xlink:href="#m9e80f79706" x="45.478125" y="168.400329" style="stroke: #000000; stroke-width: 0.8"/>
      </g>
     </g>
     <g id="text_6">
      <!-- $\mathdefault{10^{4}}$ -->
      <g transform="translate(20.878125 172.199547) scale(0.1 -0.1)">
       <defs>
        <path id="DejaVuSans-34" d="M 2419 4116 
L 825 1625 
L 2419 1625 
L 2419 4116 
z
M 2253 4666 
L 3047 4666 
L 3047 1625 
L 3713 1625 
L 3713 1100 
L 3047 1100 
L 3047 0 
L 2419 0 
L 2419 1100 
L 313 1100 
L 313 1709 
L 2253 4666 
z
" transform="scale(0.015625)"/>
       </defs>
       <use xlink:href="#DejaVuSans-31" transform="translate(0 0.684375)"/>
       <use xlink:href="#DejaVuSans-30" transform="translate(63.623047 0.684375)"/>
       <use xlink:href="#DejaVuSans-34" transform="translate(128.203125 38.965625) scale(0.7)"/>
      </g>
     </g>
    </g>
    <g id="ytick_6">
     <g id="line2d_7">
      <g>
       <use xlink:href="#m9e80f79706" x="45.478125" y="130.994942" style="stroke: #000000; stroke-width: 0.8"/>
      </g>
     </g>
     <g id="text_7">
      <!-- $\mathdefault{10^{5}}$ -->
      <g transform="translate(20.878125 134.794161) scale(0.1 -0.1)">
       <defs>
        <path id="DejaVuSans-35" d="M 691 4666 
L 3169 4666 
L 3169 4134 
L 1269 4134 
L 1269 2991 
Q 1406 3038 1543 3061 
Q 1681 3084 1819 3084 
Q 2600 3084 3056 2656 
Q 3513 2228 3513 1497 
Q 3513 744 3044 326 
Q 2575 -91 1722 -91 
Q 1428 -91 1123 -41 
Q 819 9 494 109 
L 494 744 
Q 775 591 1075 516 
Q 1375 441 1709 441 
Q 2250 441 2565 725 
Q 2881 1009 2881 1497 
Q 2881 1984 2565 2268 
Q 2250 2553 1709 2553 
Q 1456 2553 1204 2497 
Q 953 2441 691 2322 
L 691 4666 
z
" transform="scale(0.015625)"/>
       </defs>
       <use xlink:href="#DejaVuSans-31" transform="translate(0 0.684375)"/>
       <use xlink:href="#DejaVuSans-30" transform="translate(63.623047 0.684375)"/>
       <use xlink:href="#DejaVuSans-35" transform="translate(128.203125 38.965625) scale(0.7)"/>
      </g>
     </g>
    </g>
    <g id="ytick_7">
     <g id="line2d_8">
      <g>
       <use xlink:href="#m9e80f79706" x="45.478125" y="93.589555" style="stroke: #000000; stroke-width: 0.8"/>
      </g>
     </g>
     <g id="text_8">
      <!-- $\mathdefault{10^{6}}$ -->
      <g transform="translate(20.878125 97.388774) scale(0.1 -0.1)">
       <defs>
        <path id="DejaVuSans-36" d="M 2113 2584 
Q 1688 2584 1439 2293 
Q 1191 2003 1191 1497 
Q 1191 994 1439 701 
Q 1688 409 2113 409 
Q 2538 409 2786 701 
Q 3034 994 3034 1497 
Q 3034 2003 2786 2293 
Q 2538 2584 2113 2584 
z
M 3366 4563 
L 3366 3988 
Q 3128 4100 2886 4159 
Q 2644 4219 2406 4219 
Q 1781 4219 1451 3797 
Q 1122 3375 1075 2522 
Q 1259 2794 1537 2939 
Q 1816 3084 2150 3084 
Q 2853 3084 3261 2657 
Q 3669 2231 3669 1497 
Q 3669 778 3244 343 
Q 2819 -91 2113 -91 
Q 1303 -91 875 529 
Q 447 1150 447 2328 
Q 447 3434 972 4092 
Q 1497 4750 2381 4750 
Q 2619 4750 2861 4703 
Q 3103 4656 3366 4563 
z
" transform="scale(0.015625)"/>
       </defs>
       <use xlink:href="#DejaVuSans-31" transform="translate(0 0.765625)"/>
       <use xlink:href="#DejaVuSans-30" transform="translate(63.623047 0.765625)"/>
       <use xlink:href="#DejaVuSans-36" transform="translate(128.203125 39.046875) scale(0.7)"/>
      </g>
     </g>
    </g>
    <g id="ytick_8">
     <g id="line2d_9">
      <g>
       <use xlink:href="#m9e80f79706" x="45.478125" y="56.184169" style="stroke: #000000; stroke-width: 0.8"/>
      </g>
     </g>
     <g id="text_9">
      <!-- $\mathdefault{10^{7}}$ -->
      <g transform="translate(20.878125 59.983388) scale(0.1 -0.1)">
       <defs>
        <path id="DejaVuSans-37" d="M 525 4666 
L 3525 4666 
L 3525 4397 
L 1831 0 
L 1172 0 
L 2766 4134 
L 525 4134 
L 525 4666 
z
" transform="scale(0.015625)"/>
       </defs>
       <use xlink:href="#DejaVuSans-31" transform="translate(0 0.684375)"/>
       <use xlink:href="#DejaVuSans-30" transform="translate(63.623047 0.684375)"/>
       <use xlink:href="#DejaVuSans-37" transform="translate(128.203125 38.965625) scale(0.7)"/>
      </g>
     </g>
    </g>
    <g id="ytick_9">
     <g id="line2d_10">
      <defs>
       <path id="m5f484cd641" d="M 0 0 
L -2 0 
" style="stroke: #000000; stroke-width: 0.6"/>
      </defs>
      <g>
       <use xlink:href="#m5f484cd641" x="45.478125" y="306.761732" style="stroke: #000000; stroke-width: 0.6"/>
      </g>
     </g>
    </g>
    <g id="ytick_10">
     <g id="line2d_11">
      <g>
       <use xlink:href="#m5f484cd641" x="45.478125" y="300.17497" style="stroke: #000000; stroke-width: 0.6"/>
      </g>
     </g>
    </g>
    <g id="ytick_11">
     <g id="line2d_12">
      <g>
       <use xlink:href="#m5f484cd641" x="45.478125" y="295.501588" style="stroke: #000000; stroke-width: 0.6"/>
      </g>
     </g>
    </g>
    <g id="ytick_12">
     <g id="line2d_13">
      <g>
       <use xlink:href="#m5f484cd641" x="45.478125" y="291.876632" style="stroke: #000000; stroke-width: 0.6"/>
      </g>
     </g>
    </g>
    <g id="ytick_13">
     <g id="line2d_14">
      <g>
       <use xlink:href="#m5f484cd641" x="45.478125" y="288.914827" style="stroke: #000000; stroke-width: 0.6"/>
      </g>
     </g>
    </g>
    <g id="ytick_14">
     <g id="line2d_15">
      <g>
       <use xlink:href="#m5f484cd641" x="45.478125" y="286.410656" style="stroke: #000000; stroke-width: 0.6"/>
      </g>
     </g>
    </g>
    <g id="ytick_15">
     <g id="line2d_16">
      <g>
       <use xlink:href="#m5f484cd641" x="45.478125" y="284.241445" style="stroke: #000000; stroke-width: 0.6"/>
      </g>
     </g>
    </g>
    <g id="ytick_16">
     <g id="line2d_17">
      <g>
       <use xlink:href="#m5f484cd641" x="45.478125" y="282.328065" style="stroke: #000000; stroke-width: 0.6"/>
      </g>
     </g>
    </g>
    <g id="ytick_17">
     <g id="line2d_18">
      <g>
       <use xlink:href="#m5f484cd641" x="45.478125" y="269.356345" style="stroke: #000000; stroke-width: 0.6"/>
      </g>
     </g>
    </g>
    <g id="ytick_18">
     <g id="line2d_19">
      <g>
       <use xlink:href="#m5f484cd641" x="45.478125" y="262.769583" style="stroke: #000000; stroke-width: 0.6"/>
      </g>
     </g>
    </g>
    <g id="ytick_19">
     <g id="line2d_20">
      <g>
       <use xlink:href="#m5f484cd641" x="45.478125" y="258.096202" style="stroke: #000000; stroke-width: 0.6"/>
      </g>
     </g>
    </g>
    <g id="ytick_20">
     <g id="line2d_21">
      <g>
       <use xlink:href="#m5f484cd641" x="45.478125" y="254.471245" style="stroke: #000000; stroke-width: 0.6"/>
      </g>
     </g>
    </g>
    <g id="ytick_21">
     <g id="line2d_22">
      <g>
       <use xlink:href="#m5f484cd641" x="45.478125" y="251.50944" style="stroke: #000000; stroke-width: 0.6"/>
      </g>
     </g>
    </g>
    <g id="ytick_22">
     <g id="line2d_23">
      <g>
       <use xlink:href="#m5f484cd641" x="45.478125" y="249.00527" style="stroke: #000000; stroke-width: 0.6"/>
      </g>
     </g>
    </g>
    <g id="ytick_23">
     <g id="line2d_24">
      <g>
       <use xlink:href="#m5f484cd641" x="45.478125" y="246.836058" style="stroke: #000000; stroke-width: 0.6"/>
      </g>
     </g>
    </g>
    <g id="ytick_24">
     <g id="line2d_25">
      <g>
       <use xlink:href="#m5f484cd641" x="45.478125" y="244.922678" style="stroke: #000000; stroke-width: 0.6"/>
      </g>
     </g>
    </g>
    <g id="ytick_25">
     <g id="line2d_26">
      <g>
       <use xlink:href="#m5f484cd641" x="45.478125" y="231.950958" style="stroke: #000000; stroke-width: 0.6"/>
      </g>
     </g>
    </g>
    <g id="ytick_26">
     <g id="line2d_27">
      <g>
       <use xlink:href="#m5f484cd641" x="45.478125" y="225.364197" style="stroke: #000000; stroke-width: 0.6"/>
      </g>
     </g>
    </g>
    <g id="ytick_27">
     <g id="line2d_28">
      <g>
       <use xlink:href="#m5f484cd641" x="45.478125" y="220.690815" style="stroke: #000000; stroke-width: 0.6"/>
      </g>
     </g>
    </g>
    <g id="ytick_28">
     <g id="line2d_29">
      <g>
       <use xlink:href="#m5f484cd641" x="45.478125" y="217.065859" style="stroke: #000000; stroke-width: 0.6"/>
      </g>
     </g>
    </g>
    <g id="ytick_29">
     <g id="line2d_30">
      <g>
       <use xlink:href="#m5f484cd641" x="45.478125" y="214.104053" style="stroke: #000000; stroke-width: 0.6"/>
      </g>
     </g>
    </g>
    <g id="ytick_30">
     <g id="line2d_31">
      <g>
       <use xlink:href="#m5f484cd641" x="45.478125" y="211.599883" style="stroke: #000000; stroke-width: 0.6"/>
      </g>
     </g>
    </g>
    <g id="ytick_31">
     <g id="line2d_32">
      <g>
       <use xlink:href="#m5f484cd641" x="45.478125" y="209.430672" style="stroke: #000000; stroke-width: 0.6"/>
      </g>
     </g>
    </g>
    <g id="ytick_32">
     <g id="line2d_33">
      <g>
       <use xlink:href="#m5f484cd641" x="45.478125" y="207.517292" style="stroke: #000000; stroke-width: 0.6"/>
      </g>
     </g>
    </g>
    <g id="ytick_33">
     <g id="line2d_34">
      <g>
       <use xlink:href="#m5f484cd641" x="45.478125" y="194.545572" style="stroke: #000000; stroke-width: 0.6"/>
      </g>
     </g>
    </g>
    <g id="ytick_34">
     <g id="line2d_35">
      <g>
       <use xlink:href="#m5f484cd641" x="45.478125" y="187.95881" style="stroke: #000000; stroke-width: 0.6"/>
      </g>
     </g>
    </g>
    <g id="ytick_35">
     <g id="line2d_36">
      <g>
       <use xlink:href="#m5f484cd641" x="45.478125" y="183.285429" style="stroke: #000000; stroke-width: 0.6"/>
      </g>
     </g>
    </g>
    <g id="ytick_36">
     <g id="line2d_37">
      <g>
       <use xlink:href="#m5f484cd641" x="45.478125" y="179.660472" style="stroke: #000000; stroke-width: 0.6"/>
      </g>
     </g>
    </g>
    <g id="ytick_37">
     <g id="line2d_38">
      <g>
       <use xlink:href="#m5f484cd641" x="45.478125" y="176.698667" style="stroke: #000000; stroke-width: 0.6"/>
      </g>
     </g>
    </g>
    <g id="ytick_38">
     <g id="line2d_39">
      <g>
       <use xlink:href="#m5f484cd641" x="45.478125" y="174.194496" style="stroke: #000000; stroke-width: 0.6"/>
      </g>
     </g>
    </g>
    <g id="ytick_39">
     <g id="line2d_40">
      <g>
       <use xlink:href="#m5f484cd641" x="45.478125" y="172.025285" style="stroke: #000000; stroke-width: 0.6"/>
      </g>
     </g>
    </g>
    <g id="ytick_40">
     <g id="line2d_41">
      <g>
       <use xlink:href="#m5f484cd641" x="45.478125" y="170.111905" style="stroke: #000000; stroke-width: 0.6"/>
      </g>
     </g>
    </g>
    <g id="ytick_41">
     <g id="line2d_42">
      <g>
       <use xlink:href="#m5f484cd641" x="45.478125" y="157.140185" style="stroke: #000000; stroke-width: 0.6"/>
      </g>
     </g>
    </g>
    <g id="ytick_42">
     <g id="line2d_43">
      <g>
       <use xlink:href="#m5f484cd641" x="45.478125" y="150.553424" style="stroke: #000000; stroke-width: 0.6"/>
      </g>
     </g>
    </g>
    <g id="ytick_43">
     <g id="line2d_44">
      <g>
       <use xlink:href="#m5f484cd641" x="45.478125" y="145.880042" style="stroke: #000000; stroke-width: 0.6"/>
      </g>
     </g>
    </g>
    <g id="ytick_44">
     <g id="line2d_45">
      <g>
       <use xlink:href="#m5f484cd641" x="45.478125" y="142.255085" style="stroke: #000000; stroke-width: 0.6"/>
      </g>
     </g>
    </g>
    <g id="ytick_45">
     <g id="line2d_46">
      <g>
       <use xlink:href="#m5f484cd641" x="45.478125" y="139.29328" style="stroke: #000000; stroke-width: 0.6"/>
      </g>
     </g>
    </g>
    <g id="ytick_46">
     <g id="line2d_47">
      <g>
       <use xlink:href="#m5f484cd641" x="45.478125" y="136.78911" style="stroke: #000000; stroke-width: 0.6"/>
      </g>
     </g>
    </g>
    <g id="ytick_47">
     <g id="line2d_48">
      <g>
       <use xlink:href="#m5f484cd641" x="45.478125" y="134.619899" style="stroke: #000000; stroke-width: 0.6"/>
      </g>
     </g>
    </g>
    <g id="ytick_48">
     <g id="line2d_49">
      <g>
       <use xlink:href="#m5f484cd641" x="45.478125" y="132.706519" style="stroke: #000000; stroke-width: 0.6"/>
      </g>
     </g>
    </g>
    <g id="ytick_49">
     <g id="line2d_50">
      <g>
       <use xlink:href="#m5f484cd641" x="45.478125" y="119.734799" style="stroke: #000000; stroke-width: 0.6"/>
      </g>
     </g>
    </g>
    <g id="ytick_50">
     <g id="line2d_51">
      <g>
       <use xlink:href="#m5f484cd641" x="45.478125" y="113.148037" style="stroke: #000000; stroke-width: 0.6"/>
      </g>
     </g>
    </g>
    <g id="ytick_51">
     <g id="line2d_52">
      <g>
       <use xlink:href="#m5f484cd641" x="45.478125" y="108.474655" style="stroke: #000000; stroke-width: 0.6"/>
      </g>
     </g>
    </g>
    <g id="ytick_52">
     <g id="line2d_53">
      <g>
       <use xlink:href="#m5f484cd641" x="45.478125" y="104.849699" style="stroke: #000000; stroke-width: 0.6"/>
      </g>
     </g>
    </g>
    <g id="ytick_53">
     <g id="line2d_54">
      <g>
       <use xlink:href="#m5f484cd641" x="45.478125" y="101.887894" style="stroke: #000000; stroke-width: 0.6"/>
      </g>
     </g>
    </g>
    <g id="ytick_54">
     <g id="line2d_55">
      <g>
       <use xlink:href="#m5f484cd641" x="45.478125" y="99.383723" style="stroke: #000000; stroke-width: 0.6"/>
      </g>
     </g>
    </g>
    <g id="ytick_55">
     <g id="line2d_56">
      <g>
       <use xlink:href="#m5f484cd641" x="45.478125" y="97.214512" style="stroke: #000000; stroke-width: 0.6"/>
      </g>
     </g>
    </g>
    <g id="ytick_56">
     <g id="line2d_57">
      <g>
       <use xlink:href="#m5f484cd641" x="45.478125" y="95.301132" style="stroke: #000000; stroke-width: 0.6"/>
      </g>
     </g>
    </g>
    <g id="ytick_57">
     <g id="line2d_58">
      <g>
       <use xlink:href="#m5f484cd641" x="45.478125" y="82.329412" style="stroke: #000000; stroke-width: 0.6"/>
      </g>
     </g>
    </g>
    <g id="ytick_58">
     <g id="line2d_59">
      <g>
       <use xlink:href="#m5f484cd641" x="45.478125" y="75.742651" style="stroke: #000000; stroke-width: 0.6"/>
      </g>
     </g>
    </g>
    <g id="ytick_59">
     <g id="line2d_60">
      <g>
       <use xlink:href="#m5f484cd641" x="45.478125" y="71.069269" style="stroke: #000000; stroke-width: 0.6"/>
      </g>
     </g>
    </g>
    <g id="ytick_60">
     <g id="line2d_61">
      <g>
       <use xlink:href="#m5f484cd641" x="45.478125" y="67.444312" style="stroke: #000000; stroke-width: 0.6"/>
      </g>
     </g>
    </g>
    <g id="ytick_61">
     <g id="line2d_62">
      <g>
       <use xlink:href="#m5f484cd641" x="45.478125" y="64.482507" style="stroke: #000000; stroke-width: 0.6"/>
      </g>
     </g>
    </g>
    <g id="ytick_62">
     <g id="line2d_63">
      <g>
       <use xlink:href="#m5f484cd641" x="45.478125" y="61.978337" style="stroke: #000000; stroke-width: 0.6"/>
      </g>
     </g>
    </g>
    <g id="ytick_63">
     <g id="line2d_64">
      <g>
       <use xlink:href="#m5f484cd641" x="45.478125" y="59.809125" style="stroke: #000000; stroke-width: 0.6"/>
      </g>
     </g>
    </g>
    <g id="ytick_64">
     <g id="line2d_65">
      <g>
       <use xlink:href="#m5f484cd641" x="45.478125" y="57.895746" style="stroke: #000000; stroke-width: 0.6"/>
      </g>
     </g>
    </g>
    <g id="ytick_65">
     <g id="line2d_66">
      <g>
       <use xlink:href="#m5f484cd641" x="45.478125" y="44.924026" style="stroke: #000000; stroke-width: 0.6"/>
      </g>
     </g>
    </g>
    <g id="ytick_66">
     <g id="line2d_67">
      <g>
       <use xlink:href="#m5f484cd641" x="45.478125" y="38.337264" style="stroke: #000000; stroke-width: 0.6"/>
      </g>
     </g>
    </g>
    <g id="ytick_67">
     <g id="line2d_68">
      <g>
       <use xlink:href="#m5f484cd641" x="45.478125" y="33.663882" style="stroke: #000000; stroke-width: 0.6"/>
      </g>
     </g>
    </g>
    <g id="ytick_68">
     <g id="line2d_69">
      <g>
       <use xlink:href="#m5f484cd641" x="45.478125" y="30.038926" style="stroke: #000000; stroke-width: 0.6"/>
      </g>
     </g>
    </g>
    <g id="ytick_69">
     <g id="line2d_70">
      <g>
       <use xlink:href="#m5f484cd641" x="45.478125" y="27.077121" style="stroke: #000000; stroke-width: 0.6"/>
      </g>
     </g>
    </g>
    <g id="ytick_70">
     <g id="line2d_71">
      <g>
       <use xlink:href="#m5f484cd641" x="45.478125" y="24.57295" style="stroke: #000000; stroke-width: 0.6"/>
      </g>
     </g>
    </g>
    <g id="ytick_71">
     <g id="line2d_72">
      <g>
       <use xlink:href="#m5f484cd641" x="45.478125" y="22.403739" style="stroke: #000000; stroke-width: 0.6"/>
      </g>
     </g>
    </g>
    <g id="text_10">
     <!-- time ago (generations) -->
     <g transform="translate(14.798438 227.641094) rotate(-90) scale(0.1 -0.1)">
      <defs>
       <path id="DejaVuSans-6d" d="M 3328 2828 
Q 3544 3216 3844 3400 
Q 4144 3584 4550 3584 
Q 5097 3584 5394 3201 
Q 5691 2819 5691 2113 
L 5691 0 
L 5113 0 
L 5113 2094 
Q 5113 2597 4934 2840 
Q 4756 3084 4391 3084 
Q 3944 3084 3684 2787 
Q 3425 2491 3425 1978 
L 3425 0 
L 2847 0 
L 2847 2094 
Q 2847 2600 2669 2842 
Q 2491 3084 2119 3084 
Q 1678 3084 1418 2786 
Q 1159 2488 1159 1978 
L 1159 0 
L 581 0 
L 581 3500 
L 1159 3500 
L 1159 2956 
Q 1356 3278 1631 3431 
Q 1906 3584 2284 3584 
Q 2666 3584 2933 3390 
Q 3200 3197 3328 2828 
z
" transform="scale(0.015625)"/>
       <path id="DejaVuSans-20" transform="scale(0.015625)"/>
       <path id="DejaVuSans-67" d="M 2906 1791 
Q 2906 2416 2648 2759 
Q 2391 3103 1925 3103 
Q 1463 3103 1205 2759 
Q 947 2416 947 1791 
Q 947 1169 1205 825 
Q 1463 481 1925 481 
Q 2391 481 2648 825 
Q 2906 1169 2906 1791 
z
M 3481 434 
Q 3481 -459 3084 -895 
Q 2688 -1331 1869 -1331 
Q 1566 -1331 1297 -1286 
Q 1028 -1241 775 -1147 
L 775 -588 
Q 1028 -725 1275 -790 
Q 1522 -856 1778 -856 
Q 2344 -856 2625 -561 
Q 2906 -266 2906 331 
L 2906 616 
Q 2728 306 2450 153 
Q 2172 0 1784 0 
Q 1141 0 747 490 
Q 353 981 353 1791 
Q 353 2603 747 3093 
Q 1141 3584 1784 3584 
Q 2172 3584 2450 3431 
Q 2728 3278 2906 2969 
L 2906 3500 
L 3481 3500 
L 3481 434 
z
" transform="scale(0.015625)"/>
       <path id="DejaVuSans-28" d="M 1984 4856 
Q 1566 4138 1362 3434 
Q 1159 2731 1159 2009 
Q 1159 1288 1364 580 
Q 1569 -128 1984 -844 
L 1484 -844 
Q 1016 -109 783 600 
Q 550 1309 550 2009 
Q 550 2706 781 3412 
Q 1013 4119 1484 4856 
L 1984 4856 
z
" transform="scale(0.015625)"/>
       <path id="DejaVuSans-6e" d="M 3513 2113 
L 3513 0 
L 2938 0 
L 2938 2094 
Q 2938 2591 2744 2837 
Q 2550 3084 2163 3084 
Q 1697 3084 1428 2787 
Q 1159 2491 1159 1978 
L 1159 0 
L 581 0 
L 581 3500 
L 1159 3500 
L 1159 2956 
Q 1366 3272 1645 3428 
Q 1925 3584 2291 3584 
Q 2894 3584 3203 3211 
Q 3513 2838 3513 2113 
z
" transform="scale(0.015625)"/>
       <path id="DejaVuSans-72" d="M 2631 2963 
Q 2534 3019 2420 3045 
Q 2306 3072 2169 3072 
Q 1681 3072 1420 2755 
Q 1159 2438 1159 1844 
L 1159 0 
L 581 0 
L 581 3500 
L 1159 3500 
L 1159 2956 
Q 1341 3275 1631 3429 
Q 1922 3584 2338 3584 
Q 2397 3584 2469 3576 
Q 2541 3569 2628 3553 
L 2631 2963 
z
" transform="scale(0.015625)"/>
       <path id="DejaVuSans-29" d="M 513 4856 
L 1013 4856 
Q 1481 4119 1714 3412 
Q 1947 2706 1947 2009 
Q 1947 1309 1714 600 
Q 1481 -109 1013 -844 
L 513 -844 
Q 928 -128 1133 580 
Q 1338 1288 1338 2009 
Q 1338 2731 1133 3434 
Q 928 4138 513 4856 
z
" transform="scale(0.015625)"/>
      </defs>
      <use xlink:href="#DejaVuSans-74"/>
      <use xlink:href="#DejaVuSans-69" transform="translate(39.208984 0)"/>
      <use xlink:href="#DejaVuSans-6d" transform="translate(66.992188 0)"/>
      <use xlink:href="#DejaVuSans-65" transform="translate(164.404297 0)"/>
      <use xlink:href="#DejaVuSans-20" transform="translate(225.927734 0)"/>
      <use xlink:href="#DejaVuSans-61" transform="translate(257.714844 0)"/>
      <use xlink:href="#DejaVuSans-67" transform="translate(318.994141 0)"/>
      <use xlink:href="#DejaVuSans-6f" transform="translate(382.470703 0)"/>
      <use xlink:href="#DejaVuSans-20" transform="translate(443.652344 0)"/>
      <use xlink:href="#DejaVuSans-28" transform="translate(475.439453 0)"/>
      <use xlink:href="#DejaVuSans-67" transform="translate(514.453125 0)"/>
      <use xlink:href="#DejaVuSans-65" transform="translate(577.929688 0)"/>
      <use xlink:href="#DejaVuSans-6e" transform="translate(639.453125 0)"/>
      <use xlink:href="#DejaVuSans-65" transform="translate(702.832031 0)"/>
      <use xlink:href="#DejaVuSans-72" transform="translate(764.355469 0)"/>
      <use xlink:href="#DejaVuSans-61" transform="translate(805.46875 0)"/>
      <use xlink:href="#DejaVuSans-74" transform="translate(866.748047 0)"/>
      <use xlink:href="#DejaVuSans-69" transform="translate(905.957031 0)"/>
      <use xlink:href="#DejaVuSans-6f" transform="translate(933.740234 0)"/>
      <use xlink:href="#DejaVuSans-6e" transform="translate(994.921875 0)"/>
      <use xlink:href="#DejaVuSans-73" transform="translate(1058.300781 0)"/>
      <use xlink:href="#DejaVuSans-29" transform="translate(1110.400391 0)"/>
     </g>
    </g>
   </g>
   <g id="patch_4">
    <path d="M 45.478125 318.021875 
L 45.478125 22.318125 
" style="fill: none; stroke: #000000; stroke-width: 0.8; stroke-linejoin: miter; stroke-linecap: square"/>
   </g>
   <g id="text_11">
    <!-- AraTha__SouthMiddleAtlas_1D17.yaml -->
    <g transform="translate(207.549375 16.318125) scale(0.12 -0.12)">
     <defs>
      <path id="DejaVuSans-54" d="M -19 4666 
L 3928 4666 
L 3928 4134 
L 2272 4134 
L 2272 0 
L 1638 0 
L 1638 4134 
L -19 4134 
L -19 4666 
z
" transform="scale(0.015625)"/>
      <path id="DejaVuSans-5f" d="M 3263 -1063 
L 3263 -1509 
L -63 -1509 
L -63 -1063 
L 3263 -1063 
z
" transform="scale(0.015625)"/>
      <path id="DejaVuSans-44" d="M 1259 4147 
L 1259 519 
L 2022 519 
Q 2988 519 3436 956 
Q 3884 1394 3884 2338 
Q 3884 3275 3436 3711 
Q 2988 4147 2022 4147 
L 1259 4147 
z
M 628 4666 
L 1925 4666 
Q 3281 4666 3915 4102 
Q 4550 3538 4550 2338 
Q 4550 1131 3912 565 
Q 3275 0 1925 0 
L 628 0 
L 628 4666 
z
" transform="scale(0.015625)"/>
      <path id="DejaVuSans-2e" d="M 684 794 
L 1344 794 
L 1344 0 
L 684 0 
L 684 794 
z
" transform="scale(0.015625)"/>
      <path id="DejaVuSans-79" d="M 2059 -325 
Q 1816 -950 1584 -1140 
Q 1353 -1331 966 -1331 
L 506 -1331 
L 506 -850 
L 844 -850 
Q 1081 -850 1212 -737 
Q 1344 -625 1503 -206 
L 1606 56 
L 191 3500 
L 800 3500 
L 1894 763 
L 2988 3500 
L 3597 3500 
L 2059 -325 
z
" transform="scale(0.015625)"/>
     </defs>
     <use xlink:href="#DejaVuSans-41"/>
     <use xlink:href="#DejaVuSans-72" transform="translate(68.408203 0)"/>
     <use xlink:href="#DejaVuSans-61" transform="translate(109.521484 0)"/>
     <use xlink:href="#DejaVuSans-54" transform="translate(170.800781 0)"/>
     <use xlink:href="#DejaVuSans-68" transform="translate(231.884766 0)"/>
     <use xlink:href="#DejaVuSans-61" transform="translate(295.263672 0)"/>
     <use xlink:href="#DejaVuSans-5f" transform="translate(356.542969 0)"/>
     <use xlink:href="#DejaVuSans-5f" transform="translate(406.542969 0)"/>
     <use xlink:href="#DejaVuSans-53" transform="translate(456.542969 0)"/>
     <use xlink:href="#DejaVuSans-6f" transform="translate(520.019531 0)"/>
     <use xlink:href="#DejaVuSans-75" transform="translate(581.201172 0)"/>
     <use xlink:href="#DejaVuSans-74" transform="translate(644.580078 0)"/>
     <use xlink:href="#DejaVuSans-68" transform="translate(683.789062 0)"/>
     <use xlink:href="#DejaVuSans-4d" transform="translate(747.167969 0)"/>
     <use xlink:href="#DejaVuSans-69" transform="translate(833.447266 0)"/>
     <use xlink:href="#DejaVuSans-64" transform="translate(861.230469 0)"/>
     <use xlink:href="#DejaVuSans-64" transform="translate(924.707031 0)"/>
     <use xlink:href="#DejaVuSans-6c" transform="translate(988.183594 0)"/>
     <use xlink:href="#DejaVuSans-65" transform="translate(1015.966797 0)"/>
     <use xlink:href="#DejaVuSans-41" transform="translate(1077.490234 0)"/>
     <use xlink:href="#DejaVuSans-74" transform="translate(1144.148438 0)"/>
     <use xlink:href="#DejaVuSans-6c" transform="translate(1183.357422 0)"/>
     <use xlink:href="#DejaVuSans-61" transform="translate(1211.140625 0)"/>
     <use xlink:href="#DejaVuSans-73" transform="translate(1272.419922 0)"/>
     <use xlink:href="#DejaVuSans-5f" transform="translate(1324.519531 0)"/>
     <use xlink:href="#DejaVuSans-31" transform="translate(1374.519531 0)"/>
     <use xlink:href="#DejaVuSans-44" transform="translate(1438.142578 0)"/>
     <use xlink:href="#DejaVuSans-31" transform="translate(1515.144531 0)"/>
     <use xlink:href="#DejaVuSans-37" transform="translate(1578.767578 0)"/>
     <use xlink:href="#DejaVuSans-2e" transform="translate(1642.390625 0)"/>
     <use xlink:href="#DejaVuSans-79" transform="translate(1674.177734 0)"/>
     <use xlink:href="#DejaVuSans-61" transform="translate(1733.357422 0)"/>
     <use xlink:href="#DejaVuSans-6d" transform="translate(1794.636719 0)"/>
     <use xlink:href="#DejaVuSans-6c" transform="translate(1892.048828 0)"/>
    </g>
   </g>
  </g>
 </g>
 <defs>
  <clipPath id="paabe6a3360">
   <rect x="45.478125" y="22.318125" width="554.521875" height="295.70375"/>
  </clipPath>
 </defs>
</svg>