<?xml version="1.0" encoding="utf-8" standalone="no"?>
<!DOCTYPE svg PUBLIC "-//W3C//DTD SVG 1.1//EN"
  "http://www.w3.org/Graphics/SVG/1.1/DTD/svg11.dtd">
<svg xmlns:xlink="http://www.w3.org/1999/xlink" width="607.2pt" height="338.4pt" viewBox="0 0 607.2 338.4" xmlns="http://www.w3.org/2000/svg" version="1.1">
 <metadata>
  <rdf:RDF xmlns:dc="http://purl.org/dc/elements/1.1/" xmlns:cc="http://creativecommons.org/ns#" xmlns:rdf="http://www.w3.org/1999/02/22-rdf-syntax-ns#">
   <cc:Work>
    <dc:type rdf:resource="http://purl.org/dc/dcmitype/StillImage"/>
    <dc:date>2023-11-13T09:01:17.049681</dc:date>
    <dc:format>image/svg+xml</dc:format>
    <dc:creator>
     <cc:Agent>
      <dc:title>Matplotlib v3.7.2, https://matplotlib.org/</dc:title>
     </cc:Agent>
    </dc:creator>
   </cc:Work>
  </rdf:RDF>
 </metadata>
 <defs>
  <style type="text/css">*{stroke-linejoin: round; stroke-linecap: butt}</style>
 </defs>
 <g id="figure_1">
  <g id="patch_1">
   <path d="M 0 338.4 
L 607.2 338.4 
L 607.2 0 
L 0 0 
z
" style="fill: #ffffff"/>
  </g>
  <g id="axes_1">
   <g id="patch_2">
    <path d="M 46.965625 318.021875 
L 600 318.021875 
L 600 7.2 
L 46.965625 7.2 
z
" style="fill: #ffffff"/>
   </g>
   <path d="M 200.299443 220.298684 
L 201.299443 220.33012 
L 202.299443 220.36706 
L 203.299443 220.464807 
L 204.299443 220.497328 
L 205.299443 220.570953 
L 206.299443 220.609519 
L 207.299443 220.644932 
L 208.299443 220.702572 
L 209.299443 220.772958 
L 210.299443 220.824922 
L 211.299443 220.884012 
L 212.299443 220.972333 
L 213.299443 221.018477 
L 214.299443 221.060888 
L 215.299443 221.091381 
L 216.299443 221.117426 
L 217.299443 221.138626 
L 218.299443 221.192927 
L 219.299443 221.220865 
L 220.299443 221.250589 
L 221.299443 221.275983 
L 222.299443 221.287184 
L 223.299443 221.297308 
L 224.299443 221.297103 
L 225.299443 221.287593 
L 226.299443 221.27594 
L 227.299443 221.244911 
L 228.299443 221.233743 
L 229.299443 221.203625 
L 230.299443 221.143848 
L 231.299443 221.106657 
L 232.299443 221.067561 
L 233.299443 221.025121 
L 234.299443 220.992356 
L 235.299443 220.924929 
L 236.299443 220.885804 
L 237.299443 220.843129 
L 238.299443 220.772548 
L 239.299443 220.736158 
L 240.299443 220.677754 
L 241.299443 220.566802 
L 242.299443 220.496143 
L 243.299443 220.383204 
L 244.299443 220.337431 
L 245.299443 220.276147 
L 246.299443 220.227648 
L 247.299443 220.146825 
L 248.299443 220.028307 
L 249.299443 219.958096 
L 250.299443 219.874833 
L 251.299443 219.841692 
L 252.299443 219.790454 
L 253.299443 219.722056 
L 254.299443 219.655841 
L 255.299443 219.578924 
L 256.619695 219.551608 
" clip-path="url(#pd1cd67ebeb)" style="fill: none; stroke: #1f77b4; stroke-opacity: 0.5; stroke-width: 0.2; stroke-linecap: square"/>
   <path d="M 200.299443 168.324676 
L 201.299443 168.356112 
L 202.299443 168.393053 
L 203.299443 168.490799 
L 204.299443 168.523321 
L 205.299443 168.596945 
L 206.299443 168.635511 
L 207.299443 168.670924 
L 208.299443 168.728564 
L 209.299443 168.79895 
L 210.299443 168.850915 
L 211.299443 168.910004 
L 212.299443 168.998325 
L 213.299443 169.04447 
L 214.299443 169.086881 
L 215.299443 169.117373 
L 216.299443 169.143418 
L 217.299443 169.164618 
L 218.299443 169.218919 
L 219.299443 169.246857 
L 220.299443 169.276581 
L 221.299443 169.301976 
L 222.299443 169.313176 
L 223.299443 169.3233 
L 224.299443 169.323096 
L 225.299443 169.313586 
L 226.299443 169.301932 
L 227.299443 169.270903 
L 228.299443 169.259735 
L 229.299443 169.229618 
L 230.299443 169.169841 
L 231.299443 169.132649 
L 232.299443 169.093553 
L 233.299443 169.051113 
L 234.299443 169.018348 
L 235.299443 168.950922 
L 236.299443 168.911796 
L 237.299443 168.869121 
L 238.299443 168.798541 
L 239.299443 168.76215 
L 240.299443 168.703747 
L 241.299443 168.592794 
L 242.299443 168.522136 
L 243.299443 168.409196 
L 244.299443 168.363423 
L 245.299443 168.30214 
L 246.299443 168.25364 
L 247.299443 168.172818 
L 248.299443 168.054299 
L 249.299443 167.984088 
L 250.299443 167.900826 
L 251.299443 167.867684 
L 252.299443 167.816447 
L 253.299443 167.748048 
L 254.299443 167.681833 
L 255.299443 167.604916 
L 256.619695 167.5776 
" clip-path="url(#pd1cd67ebeb)" style="fill: none; stroke: #1f77b4; stroke-opacity: 0.5; stroke-width: 0.2; stroke-linecap: square"/>
   <path d="M 200.299443 229.435644 
L 201.299443 229.467081 
L 202.299443 229.504021 
L 203.299443 229.601767 
L 204.299443 229.634289 
L 205.299443 229.707914 
L 206.299443 229.746479 
L 207.299443 229.781892 
L 208.299443 229.839532 
L 209.299443 229.909919 
L 210.299443 229.961883 
L 211.299443 230.020973 
L 212.299443 230.109294 
L 213.299443 230.155438 
L 214.299443 230.197849 
L 215.299443 230.228341 
L 216.299443 230.254386 
L 217.299443 230.275587 
L 218.299443 230.329888 
L 219.299443 230.357825 
L 220.299443 230.387549 
L 221.299443 230.412944 
L 222.299443 230.424144 
L 223.299443 230.434268 
L 224.299443 230.434064 
L 225.299443 230.424554 
L 226.299443 230.412901 
L 227.299443 230.381871 
L 228.299443 230.370703 
L 229.299443 230.340586 
L 230.299443 230.280809 
L 231.299443 230.243617 
L 232.299443 230.204521 
L 233.299443 230.162082 
L 234.299443 230.129316 
L 235.299443 230.06189 
L 236.299443 230.022764 
L 237.299443 229.98009 
L 238.299443 229.909509 
L 239.299443 229.873118 
L 240.299443 229.814715 
L 241.299443 229.703762 
L 242.299443 229.633104 
L 243.299443 229.520164 
L 244.299443 229.474391 
L 245.299443 229.413108 
L 246.299443 229.364609 
L 247.299443 229.283786 
L 248.299443 229.165267 
L 249.299443 229.095057 
L 250.299443 229.011794 
L 251.299443 228.978652 
L 252.299443 228.927415 
L 253.299443 228.859017 
L 254.299443 228.792801 
L 255.299443 228.715884 
L 256.619695 228.688569 
" clip-path="url(#pd1cd67ebeb)" style="fill: none; stroke: #1f77b4; stroke-opacity: 0.5; stroke-width: 0.2; stroke-linecap: square"/>
   <path d="M 200.299443 236.328978 
L 201.299443 236.360415 
L 202.299443 236.397355 
L 203.299443 236.495102 
L 204.299443 236.527623 
L 205.299443 236.601248 
L 206.299443 236.639814 
L 207.299443 236.675227 
L 208.299443 236.732867 
L 209.299443 236.803253 
L 210.299443 236.855217 
L 211.299443 236.914307 
L 212.299443 237.002628 
L 213.299443 237.048772 
L 214.299443 237.091183 
L 215.299443 237.121676 
L 216.299443 237.147721 
L 217.299443 237.168921 
L 218.299443 237.223222 
L 219.299443 237.251159 
L 220.299443 237.280883 
L 221.299443 237.306278 
L 222.299443 237.317479 
L 223.299443 237.327603 
L 224.299443 237.327398 
L 225.299443 237.317888 
L 226.299443 237.306235 
L 227.299443 237.275206 
L 228.299443 237.264038 
L 229.299443 237.23392 
L 230.299443 237.174143 
L 231.299443 237.136952 
L 232.299443 237.097855 
L 233.299443 237.055416 
L 234.299443 237.022651 
L 235.299443 236.955224 
L 236.299443 236.916098 
L 237.299443 236.873424 
L 238.299443 236.802843 
L 239.299443 236.766452 
L 240.299443 236.708049 
L 241.299443 236.597097 
L 242.299443 236.526438 
L 243.299443 236.413498 
L 244.299443 236.367726 
L 245.299443 236.306442 
L 246.299443 236.257943 
L 247.299443 236.17712 
L 248.299443 236.058601 
L 249.299443 235.988391 
L 250.299443 235.905128 
L 251.299443 235.871987 
L 252.299443 235.820749 
L 253.299443 235.752351 
L 254.299443 235.686135 
L 255.299443 235.609218 
L 256.619695 235.581903 
" clip-path="url(#pd1cd67ebeb)" style="fill: none; stroke: #1f77b4; stroke-opacity: 0.5; stroke-width: 0.2; stroke-linecap: square"/>
   <path d="M 200.299443 149.834537 
L 201.299443 149.865974 
L 202.299443 149.902914 
L 203.299443 150.000661 
L 204.299443 150.033182 
L 205.299443 150.106807 
L 206.299443 150.145373 
L 207.299443 150.180786 
L 208.299443 150.238426 
L 209.299443 150.308812 
L 210.299443 150.360776 
L 211.299443 150.419866 
L 212.299443 150.508187 
L 213.299443 150.554331 
L 214.299443 150.596742 
L 215.299443 150.627235 
L 216.299443 150.65328 
L 217.299443 150.67448 
L 218.299443 150.728781 
L 219.299443 150.756718 
L 220.299443 150.786442 
L 221.299443 150.811837 
L 222.299443 150.823038 
L 223.299443 150.833162 
L 224.299443 150.832957 
L 225.299443 150.823447 
L 226.299443 150.811794 
L 227.299443 150.780765 
L 228.299443 150.769597 
L 229.299443 150.739479 
L 230.299443 150.679702 
L 231.299443 150.642511 
L 232.299443 150.603415 
L 233.299443 150.560975 
L 234.299443 150.52821 
L 235.299443 150.460783 
L 236.299443 150.421657 
L 237.299443 150.378983 
L 238.299443 150.308402 
L 239.299443 150.272011 
L 240.299443 150.213608 
L 241.299443 150.102656 
L 242.299443 150.031997 
L 243.299443 149.919057 
L 244.299443 149.873285 
L 245.299443 149.812001 
L 246.299443 149.763502 
L 247.299443 149.682679 
L 248.299443 149.56416 
L 249.299443 149.49395 
L 250.299443 149.410687 
L 251.299443 149.377546 
L 252.299443 149.326308 
L 253.299443 149.25791 
L 254.299443 149.191694 
L 255.299443 149.114777 
L 256.619695 149.087462 
" clip-path="url(#pd1cd67ebeb)" style="fill: none; stroke: #1f77b4; stroke-opacity: 0.5; stroke-width: 0.2; stroke-linecap: square"/>
   <path d="M 200.299443 224.667308 
L 201.299443 224.698744 
L 202.299443 224.735684 
L 203.299443 224.833431 
L 204.299443 224.865953 
L 205.299443 224.939577 
L 206.299443 224.978143 
L 207.299443 225.013556 
L 208.299443 225.071196 
L 209.299443 225.141582 
L 210.299443 225.193546 
L 211.299443 225.252636 
L 212.299443 225.340957 
L 213.299443 225.387101 
L 214.299443 225.429512 
L 215.299443 225.460005 
L 216.299443 225.48605 
L 217.299443 225.50725 
L 218.299443 225.561551 
L 219.299443 225.589489 
L 220.299443 225.619213 
L 221.299443 225.644607 
L 222.299443 225.655808 
L 223.299443 225.665932 
L 224.299443 225.665727 
L 225.299443 225.656218 
L 226.299443 225.644564 
L 227.299443 225.613535 
L 228.299443 225.602367 
L 229.299443 225.572249 
L 230.299443 225.512472 
L 231.299443 225.475281 
L 232.299443 225.436185 
L 233.299443 225.393745 
L 234.299443 225.36098 
L 235.299443 225.293554 
L 236.299443 225.254428 
L 237.299443 225.211753 
L 238.299443 225.141172 
L 239.299443 225.104782 
L 240.299443 225.046378 
L 241.299443 224.935426 
L 242.299443 224.864768 
L 243.299443 224.751828 
L 244.299443 224.706055 
L 245.299443 224.644772 
L 246.299443 224.596272 
L 247.299443 224.51545 
L 248.299443 224.396931 
L 249.299443 224.32672 
L 250.299443 224.243458 
L 251.299443 224.210316 
L 252.299443 224.159078 
L 253.299443 224.09068 
L 254.299443 224.024465 
L 255.299443 223.947548 
L 256.619695 223.920232 
" clip-path="url(#pd1cd67ebeb)" style="fill: none; stroke: #1f77b4; stroke-opacity: 0.5; stroke-width: 0.2; stroke-linecap: square"/>
   <path d="M 200.299443 111.544204 
L 201.299443 111.57564 
L 202.299443 111.61258 
L 203.299443 111.710327 
L 204.299443 111.742848 
L 205.299443 111.816473 
L 206.299443 111.855039 
L 207.299443 111.890452 
L 208.299443 111.948092 
L 209.299443 112.018478 
L 210.299443 112.070442 
L 211.299443 112.129532 
L 212.299443 112.217853 
L 213.299443 112.263997 
L 214.299443 112.306408 
L 215.299443 112.336901 
L 216.299443 112.362946 
L 217.299443 112.384146 
L 218.299443 112.438447 
L 219.299443 112.466385 
L 220.299443 112.496109 
L 221.299443 112.521503 
L 222.299443 112.532704 
L 223.299443 112.542828 
L 224.299443 112.542623 
L 225.299443 112.533113 
L 226.299443 112.52146 
L 227.299443 112.490431 
L 228.299443 112.479263 
L 229.299443 112.449145 
L 230.299443 112.389368 
L 231.299443 112.352177 
L 232.299443 112.313081 
L 233.299443 112.270641 
L 234.299443 112.237876 
L 235.299443 112.170449 
L 236.299443 112.131323 
L 237.299443 112.088649 
L 238.299443 112.018068 
L 239.299443 111.981677 
L 240.299443 111.923274 
L 241.299443 111.812322 
L 242.299443 111.741663 
L 243.299443 111.628724 
L 244.299443 111.582951 
L 245.299443 111.521667 
L 246.299443 111.473168 
L 247.299443 111.392345 
L 248.299443 111.273827 
L 249.299443 111.203616 
L 250.299443 111.120353 
L 251.299443 111.087212 
L 252.299443 111.035974 
L 253.299443 110.967576 
L 254.299443 110.901361 
L 255.299443 110.824443 
L 256.619695 110.797128 
" clip-path="url(#pd1cd67ebeb)" style="fill: none; stroke: #1f77b4; stroke-opacity: 0.5; stroke-width: 0.2; stroke-linecap: square"/>
   <path d="M 200.299443 106.548693 
L 201.299443 106.580129 
L 202.299443 106.617069 
L 203.299443 106.714816 
L 204.299443 106.747338 
L 205.299443 106.820962 
L 206.299443 106.859528 
L 207.299443 106.894941 
L 208.299443 106.952581 
L 209.299443 107.022967 
L 210.299443 107.074931 
L 211.299443 107.134021 
L 212.299443 107.222342 
L 213.299443 107.268486 
L 214.299443 107.310897 
L 215.299443 107.34139 
L 216.299443 107.367435 
L 217.299443 107.388635 
L 218.299443 107.442936 
L 219.299443 107.470874 
L 220.299443 107.500598 
L 221.299443 107.525992 
L 222.299443 107.537193 
L 223.299443 107.547317 
L 224.299443 107.547112 
L 225.299443 107.537603 
L 226.299443 107.525949 
L 227.299443 107.49492 
L 228.299443 107.483752 
L 229.299443 107.453634 
L 230.299443 107.393857 
L 231.299443 107.356666 
L 232.299443 107.31757 
L 233.299443 107.27513 
L 234.299443 107.242365 
L 235.299443 107.174939 
L 236.299443 107.135813 
L 237.299443 107.093138 
L 238.299443 107.022557 
L 239.299443 106.986167 
L 240.299443 106.927763 
L 241.299443 106.816811 
L 242.299443 106.746153 
L 243.299443 106.633213 
L 244.299443 106.58744 
L 245.299443 106.526157 
L 246.299443 106.477657 
L 247.299443 106.396835 
L 248.299443 106.278316 
L 249.299443 106.208105 
L 250.299443 106.124843 
L 251.299443 106.091701 
L 252.299443 106.040463 
L 253.299443 105.972065 
L 254.299443 105.90585 
L 255.299443 105.828933 
L 256.619695 105.801617 
" clip-path="url(#pd1cd67ebeb)" style="fill: none; stroke: #1f77b4; stroke-opacity: 0.5; stroke-width: 0.2; stroke-linecap: square"/>
   <path d="M 200.299443 125.263123 
L 201.299443 125.294559 
L 202.299443 125.3315 
L 203.299443 125.429246 
L 204.299443 125.461768 
L 205.299443 125.535393 
L 206.299443 125.573958 
L 207.299443 125.609371 
L 208.299443 125.667011 
L 209.299443 125.737398 
L 210.299443 125.789362 
L 211.299443 125.848452 
L 212.299443 125.936773 
L 213.299443 125.982917 
L 214.299443 126.025328 
L 215.299443 126.05582 
L 216.299443 126.081865 
L 217.299443 126.103065 
L 218.299443 126.157367 
L 219.299443 126.185304 
L 220.299443 126.215028 
L 221.299443 126.240423 
L 222.299443 126.251623 
L 223.299443 126.261747 
L 224.299443 126.261543 
L 225.299443 126.252033 
L 226.299443 126.240379 
L 227.299443 126.20935 
L 228.299443 126.198182 
L 229.299443 126.168065 
L 230.299443 126.108288 
L 231.299443 126.071096 
L 232.299443 126.032 
L 233.299443 125.989561 
L 234.299443 125.956795 
L 235.299443 125.889369 
L 236.299443 125.850243 
L 237.299443 125.807569 
L 238.299443 125.736988 
L 239.299443 125.700597 
L 240.299443 125.642194 
L 241.299443 125.531241 
L 242.299443 125.460583 
L 243.299443 125.347643 
L 244.299443 125.30187 
L 245.299443 125.240587 
L 246.299443 125.192088 
L 247.299443 125.111265 
L 248.299443 124.992746 
L 249.299443 124.922535 
L 250.299443 124.839273 
L 251.299443 124.806131 
L 252.299443 124.754894 
L 253.299443 124.686496 
L 254.299443 124.62028 
L 255.299443 124.543363 
L 256.619695 124.516048 
" clip-path="url(#pd1cd67ebeb)" style="fill: none; stroke: #1f77b4; stroke-opacity: 0.5; stroke-width: 0.2; stroke-linecap: square"/>
   <path d="M 200.299443 19.654019 
L 201.299443 19.685456 
L 202.299443 19.722396 
L 203.299443 19.820142 
L 204.299443 19.852664 
L 205.299443 19.926289 
L 206.299443 19.964854 
L 207.299443 20.000267 
L 208.299443 20.057907 
L 209.299443 20.128294 
L 210.299443 20.180258 
L 211.299443 20.239348 
L 212.299443 20.327669 
L 213.299443 20.373813 
L 214.299443 20.416224 
L 215.299443 20.446716 
L 216.299443 20.472761 
L 217.299443 20.493961 
L 218.299443 20.548263 
L 219.299443 20.5762 
L 220.299443 20.605924 
L 221.299443 20.631319 
L 222.299443 20.642519 
L 223.299443 20.652643 
L 224.299443 20.652439 
L 225.299443 20.642929 
L 226.299443 20.631276 
L 227.299443 20.600246 
L 228.299443 20.589078 
L 229.299443 20.558961 
L 230.299443 20.499184 
L 231.299443 20.461992 
L 232.299443 20.422896 
L 233.299443 20.380457 
L 234.299443 20.347691 
L 235.299443 20.280265 
L 236.299443 20.241139 
L 237.299443 20.198465 
L 238.299443 20.127884 
L 239.299443 20.091493 
L 240.299443 20.03309 
L 241.299443 19.922137 
L 242.299443 19.851479 
L 243.299443 19.738539 
L 244.299443 19.692766 
L 245.299443 19.631483 
L 246.299443 19.582984 
L 247.299443 19.502161 
L 248.299443 19.383642 
L 249.299443 19.313432 
L 250.299443 19.230169 
L 251.299443 19.197027 
L 252.299443 19.14579 
L 253.299443 19.077392 
L 254.299443 19.011176 
L 255.299443 18.934259 
L 256.619695 18.906944 
" clip-path="url(#pd1cd67ebeb)" style="fill: none; stroke: #1f77b4; stroke-opacity: 0.5; stroke-width: 0.2; stroke-linecap: square"/>
   <path d="M 256.619695 142.142444 
L 255.619695 142.111008 
L 254.619695 142.074067 
L 253.619695 141.976321 
L 252.619695 141.943799 
L 251.619695 141.870175 
L 250.619695 141.831609 
L 249.619695 141.796196 
L 248.619695 141.738556 
L 247.619695 141.66817 
L 246.619695 141.616206 
L 245.619695 141.557116 
L 244.619695 141.468795 
L 243.619695 141.422651 
L 242.619695 141.38024 
L 241.619695 141.349747 
L 240.619695 141.323702 
L 239.619695 141.302502 
L 238.619695 141.248201 
L 237.619695 141.220263 
L 236.619695 141.190539 
L 235.619695 141.165144 
L 234.619695 141.153944 
L 233.619695 141.14382 
L 232.619695 141.144024 
L 231.619695 141.153534 
L 230.619695 141.165188 
L 229.619695 141.196217 
L 228.619695 141.207385 
L 227.619695 141.237503 
L 226.619695 141.29728 
L 225.619695 141.334471 
L 224.619695 141.373567 
L 223.619695 141.416007 
L 222.619695 141.448772 
L 221.619695 141.516198 
L 220.619695 141.555324 
L 219.619695 141.597999 
L 218.619695 141.668579 
L 217.619695 141.70497 
L 216.619695 141.763373 
L 215.619695 141.874326 
L 214.619695 141.944984 
L 213.619695 142.057924 
L 212.619695 142.103697 
L 211.619695 142.16498 
L 210.619695 142.21348 
L 209.619695 142.294302 
L 208.619695 142.412821 
L 207.619695 142.483032 
L 206.619695 142.566294 
L 205.619695 142.599436 
L 204.619695 142.650673 
L 203.619695 142.719072 
L 202.619695 142.785287 
L 201.619695 142.862204 
L 200.299443 142.88952 
" clip-path="url(#pd1cd67ebeb)" style="fill: none; stroke: #ff7f0e; stroke-opacity: 0.5; stroke-width: 0.2; stroke-linecap: square"/>
   <path d="M 256.619695 229.271941 
L 255.619695 229.240505 
L 254.619695 229.203564 
L 253.619695 229.105818 
L 252.619695 229.073296 
L 251.619695 228.999671 
L 250.619695 228.961106 
L 249.619695 228.925693 
L 248.619695 228.868053 
L 247.619695 228.797666 
L 246.619695 228.745702 
L 245.619695 228.686612 
L 244.619695 228.598292 
L 243.619695 228.552147 
L 242.619695 228.509736 
L 241.619695 228.479244 
L 240.619695 228.453199 
L 239.619695 228.431999 
L 238.619695 228.377697 
L 237.619695 228.34976 
L 236.619695 228.320036 
L 235.619695 228.294641 
L 234.619695 228.283441 
L 233.619695 228.273317 
L 232.619695 228.273521 
L 231.619695 228.283031 
L 230.619695 228.294685 
L 229.619695 228.325714 
L 228.619695 228.336882 
L 227.619695 228.366999 
L 226.619695 228.426776 
L 225.619695 228.463968 
L 224.619695 228.503064 
L 223.619695 228.545503 
L 222.619695 228.578269 
L 221.619695 228.645695 
L 220.619695 228.684821 
L 219.619695 228.727495 
L 218.619695 228.798076 
L 217.619695 228.834467 
L 216.619695 228.89287 
L 215.619695 229.003823 
L 214.619695 229.074481 
L 213.619695 229.187421 
L 212.619695 229.233194 
L 211.619695 229.294477 
L 210.619695 229.342976 
L 209.619695 229.423799 
L 208.619695 229.542318 
L 207.619695 229.612529 
L 206.619695 229.695791 
L 205.619695 229.728933 
L 204.619695 229.78017 
L 203.619695 229.848568 
L 202.619695 229.914784 
L 201.619695 229.991701 
L 200.299443 230.019016 
" clip-path="url(#pd1cd67ebeb)" style="fill: none; stroke: #ff7f0e; stroke-opacity: 0.5; stroke-width: 0.2; stroke-linecap: square"/>
   <path d="M 256.619695 142.828036 
L 255.619695 142.796599 
L 254.619695 142.759659 
L 253.619695 142.661912 
L 252.619695 142.629391 
L 251.619695 142.555766 
L 250.619695 142.5172 
L 249.619695 142.481787 
L 248.619695 142.424147 
L 247.619695 142.353761 
L 246.619695 142.301797 
L 245.619695 142.242707 
L 244.619695 142.154386 
L 243.619695 142.108242 
L 242.619695 142.065831 
L 241.619695 142.035338 
L 240.619695 142.009293 
L 239.619695 141.988093 
L 238.619695 141.933792 
L 237.619695 141.905855 
L 236.619695 141.876131 
L 235.619695 141.850736 
L 234.619695 141.839535 
L 233.619695 141.829411 
L 232.619695 141.829616 
L 231.619695 141.839126 
L 230.619695 141.850779 
L 229.619695 141.881809 
L 228.619695 141.892976 
L 227.619695 141.923094 
L 226.619695 141.982871 
L 225.619695 142.020062 
L 224.619695 142.059159 
L 223.619695 142.101598 
L 222.619695 142.134363 
L 221.619695 142.20179 
L 220.619695 142.240916 
L 219.619695 142.28359 
L 218.619695 142.354171 
L 217.619695 142.390562 
L 216.619695 142.448965 
L 215.619695 142.559917 
L 214.619695 142.630576 
L 213.619695 142.743516 
L 212.619695 142.789288 
L 211.619695 142.850572 
L 210.619695 142.899071 
L 209.619695 142.979894 
L 208.619695 143.098413 
L 207.619695 143.168623 
L 206.619695 143.251886 
L 205.619695 143.285027 
L 204.619695 143.336265 
L 203.619695 143.404663 
L 202.619695 143.470879 
L 201.619695 143.547796 
L 200.299443 143.575111 
" clip-path="url(#pd1cd67ebeb)" style="fill: none; stroke: #ff7f0e; stroke-opacity: 0.5; stroke-width: 0.2; stroke-linecap: square"/>
   <path d="M 256.619695 7.915581 
L 255.619695 7.884144 
L 254.619695 7.847204 
L 253.619695 7.749457 
L 252.619695 7.716936 
L 251.619695 7.643311 
L 250.619695 7.604745 
L 249.619695 7.569332 
L 248.619695 7.511692 
L 247.619695 7.441306 
L 246.619695 7.389342 
L 245.619695 7.330252 
L 244.619695 7.241931 
L 243.619695 7.195787 
L 242.619695 7.153376 
L 241.619695 7.122883 
L 240.619695 7.096838 
L 239.619695 7.075638 
L 238.619695 7.021337 
L 237.619695 6.9934 
L 236.619695 6.963676 
L 235.619695 6.938281 
L 234.619695 6.92708 
L 233.619695 6.916956 
L 232.619695 6.917161 
L 231.619695 6.926671 
L 230.619695 6.938324 
L 229.619695 6.969354 
L 228.619695 6.980521 
L 227.619695 7.010639 
L 226.619695 7.070416 
L 225.619695 7.107607 
L 224.619695 7.146704 
L 223.619695 7.189143 
L 222.619695 7.221908 
L 221.619695 7.289335 
L 220.619695 7.328461 
L 219.619695 7.371135 
L 218.619695 7.441716 
L 217.619695 7.478107 
L 216.619695 7.53651 
L 215.619695 7.647462 
L 214.619695 7.718121 
L 213.619695 7.831061 
L 212.619695 7.876833 
L 211.619695 7.938117 
L 210.619695 7.986616 
L 209.619695 8.067439 
L 208.619695 8.185958 
L 207.619695 8.256168 
L 206.619695 8.339431 
L 205.619695 8.372572 
L 204.619695 8.42381 
L 203.619695 8.492208 
L 202.619695 8.558424 
L 201.619695 8.635341 
L 200.299443 8.662656 
" clip-path="url(#pd1cd67ebeb)" style="fill: none; stroke: #ff7f0e; stroke-opacity: 0.5; stroke-width: 0.2; stroke-linecap: square"/>
   <path d="M 256.619695 214.312196 
L 255.619695 214.280759 
L 254.619695 214.243819 
L 253.619695 214.146072 
L 252.619695 214.113551 
L 251.619695 214.039926 
L 250.619695 214.001361 
L 249.619695 213.965947 
L 248.619695 213.908307 
L 247.619695 213.837921 
L 246.619695 213.785957 
L 245.619695 213.726867 
L 244.619695 213.638546 
L 243.619695 213.592402 
L 242.619695 213.549991 
L 241.619695 213.519498 
L 240.619695 213.493453 
L 239.619695 213.472253 
L 238.619695 213.417952 
L 237.619695 213.390015 
L 236.619695 213.360291 
L 235.619695 213.334896 
L 234.619695 213.323696 
L 233.619695 213.313572 
L 232.619695 213.313776 
L 231.619695 213.323286 
L 230.619695 213.334939 
L 229.619695 213.365969 
L 228.619695 213.377137 
L 227.619695 213.407254 
L 226.619695 213.467031 
L 225.619695 213.504223 
L 224.619695 213.543319 
L 223.619695 213.585758 
L 222.619695 213.618523 
L 221.619695 213.68595 
L 220.619695 213.725076 
L 219.619695 213.76775 
L 218.619695 213.838331 
L 217.619695 213.874722 
L 216.619695 213.933125 
L 215.619695 214.044078 
L 214.619695 214.114736 
L 213.619695 214.227676 
L 212.619695 214.273449 
L 211.619695 214.334732 
L 210.619695 214.383231 
L 209.619695 214.464054 
L 208.619695 214.582573 
L 207.619695 214.652783 
L 206.619695 214.736046 
L 205.619695 214.769188 
L 204.619695 214.820425 
L 203.619695 214.888823 
L 202.619695 214.955039 
L 201.619695 215.031956 
L 200.299443 215.059271 
" clip-path="url(#pd1cd67ebeb)" style="fill: none; stroke: #ff7f0e; stroke-opacity: 0.5; stroke-width: 0.2; stroke-linecap: square"/>
   <path d="M 256.619695 256.575841 
L 255.619695 256.544405 
L 254.619695 256.507465 
L 253.619695 256.409718 
L 252.619695 256.377196 
L 251.619695 256.303572 
L 250.619695 256.265006 
L 249.619695 256.229593 
L 248.619695 256.171953 
L 247.619695 256.101567 
L 246.619695 256.049603 
L 245.619695 255.990513 
L 244.619695 255.902192 
L 243.619695 255.856048 
L 242.619695 255.813637 
L 241.619695 255.783144 
L 240.619695 255.757099 
L 239.619695 255.735899 
L 238.619695 255.681598 
L 237.619695 255.65366 
L 236.619695 255.623936 
L 235.619695 255.598542 
L 234.619695 255.587341 
L 233.619695 255.577217 
L 232.619695 255.577422 
L 231.619695 255.586931 
L 230.619695 255.598585 
L 229.619695 255.629614 
L 228.619695 255.640782 
L 227.619695 255.6709 
L 226.619695 255.730677 
L 225.619695 255.767868 
L 224.619695 255.806964 
L 223.619695 255.849404 
L 222.619695 255.882169 
L 221.619695 255.949595 
L 220.619695 255.988721 
L 219.619695 256.031396 
L 218.619695 256.101976 
L 217.619695 256.138367 
L 216.619695 256.196771 
L 215.619695 256.307723 
L 214.619695 256.378381 
L 213.619695 256.491321 
L 212.619695 256.537094 
L 211.619695 256.598377 
L 210.619695 256.646877 
L 209.619695 256.727699 
L 208.619695 256.846218 
L 207.619695 256.916429 
L 206.619695 256.999691 
L 205.619695 257.032833 
L 204.619695 257.08407 
L 203.619695 257.152469 
L 202.619695 257.218684 
L 201.619695 257.295601 
L 200.299443 257.322917 
" clip-path="url(#pd1cd67ebeb)" style="fill: none; stroke: #ff7f0e; stroke-opacity: 0.5; stroke-width: 0.2; stroke-linecap: square"/>
   <path d="M 256.619695 97.858043 
L 255.619695 97.826606 
L 254.619695 97.789666 
L 253.619695 97.691919 
L 252.619695 97.659398 
L 251.619695 97.585773 
L 250.619695 97.547207 
L 249.619695 97.511794 
L 248.619695 97.454154 
L 247.619695 97.383768 
L 246.619695 97.331804 
L 245.619695 97.272714 
L 244.619695 97.184393 
L 243.619695 97.138249 
L 242.619695 97.095838 
L 241.619695 97.065345 
L 240.619695 97.0393 
L 239.619695 97.0181 
L 238.619695 96.963799 
L 237.619695 96.935862 
L 236.619695 96.906138 
L 235.619695 96.880743 
L 234.619695 96.869542 
L 233.619695 96.859418 
L 232.619695 96.859623 
L 231.619695 96.869133 
L 230.619695 96.880786 
L 229.619695 96.911816 
L 228.619695 96.922983 
L 227.619695 96.953101 
L 226.619695 97.012878 
L 225.619695 97.050069 
L 224.619695 97.089166 
L 223.619695 97.131605 
L 222.619695 97.16437 
L 221.619695 97.231797 
L 220.619695 97.270923 
L 219.619695 97.313597 
L 218.619695 97.384178 
L 217.619695 97.420569 
L 216.619695 97.478972 
L 215.619695 97.589924 
L 214.619695 97.660583 
L 213.619695 97.773523 
L 212.619695 97.819295 
L 211.619695 97.880579 
L 210.619695 97.929078 
L 209.619695 98.009901 
L 208.619695 98.12842 
L 207.619695 98.19863 
L 206.619695 98.281893 
L 205.619695 98.315034 
L 204.619695 98.366272 
L 203.619695 98.43467 
L 202.619695 98.500886 
L 201.619695 98.577803 
L 200.299443 98.605118 
" clip-path="url(#pd1cd67ebeb)" style="fill: none; stroke: #ff7f0e; stroke-opacity: 0.5; stroke-width: 0.2; stroke-linecap: square"/>
   <path d="M 256.619695 296.247924 
L 255.619695 296.216488 
L 254.619695 296.179548 
L 253.619695 296.081801 
L 252.619695 296.04928 
L 251.619695 295.975655 
L 250.619695 295.937089 
L 249.619695 295.901676 
L 248.619695 295.844036 
L 247.619695 295.77365 
L 246.619695 295.721686 
L 245.619695 295.662596 
L 244.619695 295.574275 
L 243.619695 295.528131 
L 242.619695 295.48572 
L 241.619695 295.455227 
L 240.619695 295.429182 
L 239.619695 295.407982 
L 238.619695 295.353681 
L 237.619695 295.325743 
L 236.619695 295.296019 
L 235.619695 295.270625 
L 234.619695 295.259424 
L 233.619695 295.2493 
L 232.619695 295.249505 
L 231.619695 295.259015 
L 230.619695 295.270668 
L 229.619695 295.301697 
L 228.619695 295.312865 
L 227.619695 295.342983 
L 226.619695 295.40276 
L 225.619695 295.439951 
L 224.619695 295.479047 
L 223.619695 295.521487 
L 222.619695 295.554252 
L 221.619695 295.621679 
L 220.619695 295.660804 
L 219.619695 295.703479 
L 218.619695 295.77406 
L 217.619695 295.810451 
L 216.619695 295.868854 
L 215.619695 295.979806 
L 214.619695 296.050465 
L 213.619695 296.163404 
L 212.619695 296.209177 
L 211.619695 296.270461 
L 210.619695 296.31896 
L 209.619695 296.399783 
L 208.619695 296.518301 
L 207.619695 296.588512 
L 206.619695 296.671775 
L 205.619695 296.704916 
L 204.619695 296.756154 
L 203.619695 296.824552 
L 202.619695 296.890767 
L 201.619695 296.967684 
L 200.299443 296.995 
" clip-path="url(#pd1cd67ebeb)" style="fill: none; stroke: #ff7f0e; stroke-opacity: 0.5; stroke-width: 0.2; stroke-linecap: square"/>
   <path d="M 256.619695 271.935926 
L 255.619695 271.90449 
L 254.619695 271.867549 
L 253.619695 271.769803 
L 252.619695 271.737281 
L 251.619695 271.663657 
L 250.619695 271.625091 
L 249.619695 271.589678 
L 248.619695 271.532038 
L 247.619695 271.461652 
L 246.619695 271.409688 
L 245.619695 271.350598 
L 244.619695 271.262277 
L 243.619695 271.216133 
L 242.619695 271.173722 
L 241.619695 271.143229 
L 240.619695 271.117184 
L 239.619695 271.095984 
L 238.619695 271.041683 
L 237.619695 271.013745 
L 236.619695 270.984021 
L 235.619695 270.958626 
L 234.619695 270.947426 
L 233.619695 270.937302 
L 232.619695 270.937506 
L 231.619695 270.947016 
L 230.619695 270.95867 
L 229.619695 270.989699 
L 228.619695 271.000867 
L 227.619695 271.030985 
L 226.619695 271.090761 
L 225.619695 271.127953 
L 224.619695 271.167049 
L 223.619695 271.209489 
L 222.619695 271.242254 
L 221.619695 271.30968 
L 220.619695 271.348806 
L 219.619695 271.391481 
L 218.619695 271.462061 
L 217.619695 271.498452 
L 216.619695 271.556855 
L 215.619695 271.667808 
L 214.619695 271.738466 
L 213.619695 271.851406 
L 212.619695 271.897179 
L 211.619695 271.958462 
L 210.619695 272.006962 
L 209.619695 272.087784 
L 208.619695 272.206303 
L 207.619695 272.276514 
L 206.619695 272.359776 
L 205.619695 272.392918 
L 204.619695 272.444155 
L 203.619695 272.512554 
L 202.619695 272.578769 
L 201.619695 272.655686 
L 200.299443 272.683002 
" clip-path="url(#pd1cd67ebeb)" style="fill: none; stroke: #ff7f0e; stroke-opacity: 0.5; stroke-width: 0.2; stroke-linecap: square"/>
   <path d="M 256.619695 178.517999 
L 255.619695 178.486563 
L 254.619695 178.449622 
L 253.619695 178.351876 
L 252.619695 178.319354 
L 251.619695 178.24573 
L 250.619695 178.207164 
L 249.619695 178.171751 
L 248.619695 178.114111 
L 247.619695 178.043725 
L 246.619695 177.991761 
L 245.619695 177.932671 
L 244.619695 177.84435 
L 243.619695 177.798206 
L 242.619695 177.755795 
L 241.619695 177.725302 
L 240.619695 177.699257 
L 239.619695 177.678057 
L 238.619695 177.623756 
L 237.619695 177.595818 
L 236.619695 177.566094 
L 235.619695 177.540699 
L 234.619695 177.529499 
L 233.619695 177.519375 
L 232.619695 177.519579 
L 231.619695 177.529089 
L 230.619695 177.540743 
L 229.619695 177.571772 
L 228.619695 177.58294 
L 227.619695 177.613058 
L 226.619695 177.672834 
L 225.619695 177.710026 
L 224.619695 177.749122 
L 223.619695 177.791562 
L 222.619695 177.824327 
L 221.619695 177.891753 
L 220.619695 177.930879 
L 219.619695 177.973554 
L 218.619695 178.044134 
L 217.619695 178.080525 
L 216.619695 178.138928 
L 215.619695 178.249881 
L 214.619695 178.320539 
L 213.619695 178.433479 
L 212.619695 178.479252 
L 211.619695 178.540535 
L 210.619695 178.589035 
L 209.619695 178.669857 
L 208.619695 178.788376 
L 207.619695 178.858587 
L 206.619695 178.941849 
L 205.619695 178.974991 
L 204.619695 179.026228 
L 203.619695 179.094627 
L 202.619695 179.160842 
L 201.619695 179.237759 
L 200.299443 179.265075 
" clip-path="url(#pd1cd67ebeb)" style="fill: none; stroke: #ff7f0e; stroke-opacity: 0.5; stroke-width: 0.2; stroke-linecap: square"/>
   <path d="M 390.34593 43.555067 
L 391.34593 43.586504 
L 392.34593 43.623444 
L 393.34593 43.72119 
L 394.34593 43.753712 
L 395.34593 43.827337 
L 396.34593 43.865902 
L 397.34593 43.901316 
L 398.34593 43.958955 
L 399.34593 44.029342 
L 400.34593 44.081306 
L 401.34593 44.140396 
L 402.34593 44.228717 
L 403.34593 44.274861 
L 404.34593 44.317272 
L 405.34593 44.347765 
L 406.34593 44.373809 
L 407.34593 44.39501 
L 408.34593 44.449311 
L 409.34593 44.477248 
L 410.34593 44.506972 
L 411.34593 44.532367 
L 412.34593 44.543567 
L 413.34593 44.553691 
L 414.34593 44.553487 
L 415.34593 44.543977 
L 416.34593 44.532324 
L 417.34593 44.501294 
L 418.34593 44.490126 
L 419.34593 44.460009 
L 420.34593 44.400232 
L 421.34593 44.36304 
L 422.34593 44.323944 
L 423.34593 44.281505 
L 424.34593 44.24874 
L 425.34593 44.181313 
L 426.34593 44.142187 
L 427.34593 44.099513 
L 428.34593 44.028932 
L 429.34593 43.992541 
L 430.34593 43.934138 
L 431.34593 43.823185 
L 432.34593 43.752527 
L 433.34593 43.639587 
L 434.34593 43.593814 
L 435.34593 43.532531 
L 436.34593 43.484032 
L 437.34593 43.403209 
L 438.34593 43.28469 
L 439.34593 43.21448 
L 440.34593 43.131217 
L 441.34593 43.098075 
L 442.34593 43.046838 
L 443.34593 42.97844 
L 444.34593 42.912224 
L 445.34593 42.835307 
L 446.666182 42.807992 
" clip-path="url(#pd1cd67ebeb)" style="fill: none; stroke: #ff7f0e; stroke-opacity: 0.5; stroke-width: 0.2; stroke-linecap: square"/>
   <path d="M 390.34593 133.773127 
L 391.34593 133.804563 
L 392.34593 133.841504 
L 393.34593 133.93925 
L 394.34593 133.971772 
L 395.34593 134.045397 
L 396.34593 134.083962 
L 397.34593 134.119375 
L 398.34593 134.177015 
L 399.34593 134.247402 
L 400.34593 134.299366 
L 401.34593 134.358456 
L 402.34593 134.446777 
L 403.34593 134.492921 
L 404.34593 134.535332 
L 405.34593 134.565824 
L 406.34593 134.591869 
L 407.34593 134.613069 
L 408.34593 134.667371 
L 409.34593 134.695308 
L 410.34593 134.725032 
L 411.34593 134.750427 
L 412.34593 134.761627 
L 413.34593 134.771751 
L 414.34593 134.771547 
L 415.34593 134.762037 
L 416.34593 134.750383 
L 417.34593 134.719354 
L 418.34593 134.708186 
L 419.34593 134.678069 
L 420.34593 134.618292 
L 421.34593 134.5811 
L 422.34593 134.542004 
L 423.34593 134.499565 
L 424.34593 134.466799 
L 425.34593 134.399373 
L 426.34593 134.360247 
L 427.34593 134.317573 
L 428.34593 134.246992 
L 429.34593 134.210601 
L 430.34593 134.152198 
L 431.34593 134.041245 
L 432.34593 133.970587 
L 433.34593 133.857647 
L 434.34593 133.811874 
L 435.34593 133.750591 
L 436.34593 133.702092 
L 437.34593 133.621269 
L 438.34593 133.50275 
L 439.34593 133.432539 
L 440.34593 133.349277 
L 441.34593 133.316135 
L 442.34593 133.264898 
L 443.34593 133.1965 
L 444.34593 133.130284 
L 445.34593 133.053367 
L 446.666182 133.026052 
" clip-path="url(#pd1cd67ebeb)" style="fill: none; stroke: #ff7f0e; stroke-opacity: 0.5; stroke-width: 0.2; stroke-linecap: square"/>
   <path d="M 390.34593 156.204504 
L 391.34593 156.235941 
L 392.34593 156.272881 
L 393.34593 156.370628 
L 394.34593 156.403149 
L 395.34593 156.476774 
L 396.34593 156.51534 
L 397.34593 156.550753 
L 398.34593 156.608393 
L 399.34593 156.678779 
L 400.34593 156.730743 
L 401.34593 156.789833 
L 402.34593 156.878154 
L 403.34593 156.924298 
L 404.34593 156.966709 
L 405.34593 156.997202 
L 406.34593 157.023247 
L 407.34593 157.044447 
L 408.34593 157.098748 
L 409.34593 157.126685 
L 410.34593 157.156409 
L 411.34593 157.181804 
L 412.34593 157.193005 
L 413.34593 157.203128 
L 414.34593 157.202924 
L 415.34593 157.193414 
L 416.34593 157.181761 
L 417.34593 157.150731 
L 418.34593 157.139564 
L 419.34593 157.109446 
L 420.34593 157.049669 
L 421.34593 157.012478 
L 422.34593 156.973381 
L 423.34593 156.930942 
L 424.34593 156.898177 
L 425.34593 156.83075 
L 426.34593 156.791624 
L 427.34593 156.74895 
L 428.34593 156.678369 
L 429.34593 156.641978 
L 430.34593 156.583575 
L 431.34593 156.472623 
L 432.34593 156.401964 
L 433.34593 156.289024 
L 434.34593 156.243252 
L 435.34593 156.181968 
L 436.34593 156.133469 
L 437.34593 156.052646 
L 438.34593 155.934127 
L 439.34593 155.863917 
L 440.34593 155.780654 
L 441.34593 155.747512 
L 442.34593 155.696275 
L 443.34593 155.627877 
L 444.34593 155.561661 
L 445.34593 155.484744 
L 446.666182 155.457429 
" clip-path="url(#pd1cd67ebeb)" style="fill: none; stroke: #ff7f0e; stroke-opacity: 0.5; stroke-width: 0.2; stroke-linecap: square"/>
   <path d="M 390.34593 188.518878 
L 391.34593 188.550315 
L 392.34593 188.587255 
L 393.34593 188.685002 
L 394.34593 188.717523 
L 395.34593 188.791148 
L 396.34593 188.829714 
L 397.34593 188.865127 
L 398.34593 188.922767 
L 399.34593 188.993153 
L 400.34593 189.045117 
L 401.34593 189.104207 
L 402.34593 189.192528 
L 403.34593 189.238672 
L 404.34593 189.281083 
L 405.34593 189.311576 
L 406.34593 189.337621 
L 407.34593 189.358821 
L 408.34593 189.413122 
L 409.34593 189.441059 
L 410.34593 189.470783 
L 411.34593 189.496178 
L 412.34593 189.507379 
L 413.34593 189.517503 
L 414.34593 189.517298 
L 415.34593 189.507788 
L 416.34593 189.496135 
L 417.34593 189.465106 
L 418.34593 189.453938 
L 419.34593 189.42382 
L 420.34593 189.364043 
L 421.34593 189.326852 
L 422.34593 189.287756 
L 423.34593 189.245316 
L 424.34593 189.212551 
L 425.34593 189.145124 
L 426.34593 189.105998 
L 427.34593 189.063324 
L 428.34593 188.992743 
L 429.34593 188.956352 
L 430.34593 188.897949 
L 431.34593 188.786997 
L 432.34593 188.716338 
L 433.34593 188.603398 
L 434.34593 188.557626 
L 435.34593 188.496342 
L 436.34593 188.447843 
L 437.34593 188.36702 
L 438.34593 188.248501 
L 439.34593 188.178291 
L 440.34593 188.095028 
L 441.34593 188.061887 
L 442.34593 188.010649 
L 443.34593 187.942251 
L 444.34593 187.876035 
L 445.34593 187.799118 
L 446.666182 187.771803 
" clip-path="url(#pd1cd67ebeb)" style="fill: none; stroke: #ff7f0e; stroke-opacity: 0.5; stroke-width: 0.2; stroke-linecap: square"/>
   <path d="M 390.34593 132.961936 
L 391.34593 132.993373 
L 392.34593 133.030313 
L 393.34593 133.128059 
L 394.34593 133.160581 
L 395.34593 133.234206 
L 396.34593 133.272771 
L 397.34593 133.308184 
L 398.34593 133.365824 
L 399.34593 133.436211 
L 400.34593 133.488175 
L 401.34593 133.547265 
L 402.34593 133.635586 
L 403.34593 133.68173 
L 404.34593 133.724141 
L 405.34593 133.754633 
L 406.34593 133.780678 
L 407.34593 133.801879 
L 408.34593 133.85618 
L 409.34593 133.884117 
L 410.34593 133.913841 
L 411.34593 133.939236 
L 412.34593 133.950436 
L 413.34593 133.96056 
L 414.34593 133.960356 
L 415.34593 133.950846 
L 416.34593 133.939193 
L 417.34593 133.908163 
L 418.34593 133.896995 
L 419.34593 133.866878 
L 420.34593 133.807101 
L 421.34593 133.769909 
L 422.34593 133.730813 
L 423.34593 133.688374 
L 424.34593 133.655609 
L 425.34593 133.588182 
L 426.34593 133.549056 
L 427.34593 133.506382 
L 428.34593 133.435801 
L 429.34593 133.39941 
L 430.34593 133.341007 
L 431.34593 133.230054 
L 432.34593 133.159396 
L 433.34593 133.046456 
L 434.34593 133.000683 
L 435.34593 132.9394 
L 436.34593 132.890901 
L 437.34593 132.810078 
L 438.34593 132.691559 
L 439.34593 132.621349 
L 440.34593 132.538086 
L 441.34593 132.504944 
L 442.34593 132.453707 
L 443.34593 132.385309 
L 444.34593 132.319093 
L 445.34593 132.242176 
L 446.666182 132.214861 
" clip-path="url(#pd1cd67ebeb)" style="fill: none; stroke: #ff7f0e; stroke-opacity: 0.5; stroke-width: 0.2; stroke-linecap: square"/>
   <path d="M 390.34593 226.918617 
L 391.34593 226.950054 
L 392.34593 226.986994 
L 393.34593 227.084741 
L 394.34593 227.117262 
L 395.34593 227.190887 
L 396.34593 227.229453 
L 397.34593 227.264866 
L 398.34593 227.322506 
L 399.34593 227.392892 
L 400.34593 227.444856 
L 401.34593 227.503946 
L 402.34593 227.592267 
L 403.34593 227.638411 
L 404.34593 227.680822 
L 405.34593 227.711315 
L 406.34593 227.73736 
L 407.34593 227.75856 
L 408.34593 227.812861 
L 409.34593 227.840798 
L 410.34593 227.870522 
L 411.34593 227.895917 
L 412.34593 227.907118 
L 413.34593 227.917241 
L 414.34593 227.917037 
L 415.34593 227.907527 
L 416.34593 227.895874 
L 417.34593 227.864844 
L 418.34593 227.853677 
L 419.34593 227.823559 
L 420.34593 227.763782 
L 421.34593 227.726591 
L 422.34593 227.687494 
L 423.34593 227.645055 
L 424.34593 227.61229 
L 425.34593 227.544863 
L 426.34593 227.505737 
L 427.34593 227.463063 
L 428.34593 227.392482 
L 429.34593 227.356091 
L 430.34593 227.297688 
L 431.34593 227.186736 
L 432.34593 227.116077 
L 433.34593 227.003137 
L 434.34593 226.957365 
L 435.34593 226.896081 
L 436.34593 226.847582 
L 437.34593 226.766759 
L 438.34593 226.64824 
L 439.34593 226.57803 
L 440.34593 226.494767 
L 441.34593 226.461625 
L 442.34593 226.410388 
L 443.34593 226.34199 
L 444.34593 226.275774 
L 445.34593 226.198857 
L 446.666182 226.171542 
" clip-path="url(#pd1cd67ebeb)" style="fill: none; stroke: #ff7f0e; stroke-opacity: 0.5; stroke-width: 0.2; stroke-linecap: square"/>
   <path d="M 390.34593 305.955935 
L 391.34593 305.987371 
L 392.34593 306.024312 
L 393.34593 306.122058 
L 394.34593 306.15458 
L 395.34593 306.228205 
L 396.34593 306.26677 
L 397.34593 306.302183 
L 398.34593 306.359823 
L 399.34593 306.43021 
L 400.34593 306.482174 
L 401.34593 306.541264 
L 402.34593 306.629585 
L 403.34593 306.675729 
L 404.34593 306.71814 
L 405.34593 306.748632 
L 406.34593 306.774677 
L 407.34593 306.795877 
L 408.34593 306.850179 
L 409.34593 306.878116 
L 410.34593 306.90784 
L 411.34593 306.933235 
L 412.34593 306.944435 
L 413.34593 306.954559 
L 414.34593 306.954355 
L 415.34593 306.944845 
L 416.34593 306.933191 
L 417.34593 306.902162 
L 418.34593 306.890994 
L 419.34593 306.860877 
L 420.34593 306.8011 
L 421.34593 306.763908 
L 422.34593 306.724812 
L 423.34593 306.682373 
L 424.34593 306.649607 
L 425.34593 306.582181 
L 426.34593 306.543055 
L 427.34593 306.500381 
L 428.34593 306.4298 
L 429.34593 306.393409 
L 430.34593 306.335006 
L 431.34593 306.224053 
L 432.34593 306.153395 
L 433.34593 306.040455 
L 434.34593 305.994682 
L 435.34593 305.933399 
L 436.34593 305.8849 
L 437.34593 305.804077 
L 438.34593 305.685558 
L 439.34593 305.615347 
L 440.34593 305.532085 
L 441.34593 305.498943 
L 442.34593 305.447706 
L 443.34593 305.379308 
L 444.34593 305.313092 
L 445.34593 305.236175 
L 446.666182 305.20886 
" clip-path="url(#pd1cd67ebeb)" style="fill: none; stroke: #ff7f0e; stroke-opacity: 0.5; stroke-width: 0.2; stroke-linecap: square"/>
   <path d="M 390.34593 170.807158 
L 391.34593 170.838594 
L 392.34593 170.875535 
L 393.34593 170.973281 
L 394.34593 171.005803 
L 395.34593 171.079428 
L 396.34593 171.117993 
L 397.34593 171.153406 
L 398.34593 171.211046 
L 399.34593 171.281433 
L 400.34593 171.333397 
L 401.34593 171.392487 
L 402.34593 171.480807 
L 403.34593 171.526952 
L 404.34593 171.569363 
L 405.34593 171.599855 
L 406.34593 171.6259 
L 407.34593 171.6471 
L 408.34593 171.701402 
L 409.34593 171.729339 
L 410.34593 171.759063 
L 411.34593 171.784458 
L 412.34593 171.795658 
L 413.34593 171.805782 
L 414.34593 171.805578 
L 415.34593 171.796068 
L 416.34593 171.784414 
L 417.34593 171.753385 
L 418.34593 171.742217 
L 419.34593 171.7121 
L 420.34593 171.652323 
L 421.34593 171.615131 
L 422.34593 171.576035 
L 423.34593 171.533595 
L 424.34593 171.50083 
L 425.34593 171.433404 
L 426.34593 171.394278 
L 427.34593 171.351604 
L 428.34593 171.281023 
L 429.34593 171.244632 
L 430.34593 171.186229 
L 431.34593 171.075276 
L 432.34593 171.004618 
L 433.34593 170.891678 
L 434.34593 170.845905 
L 435.34593 170.784622 
L 436.34593 170.736123 
L 437.34593 170.6553 
L 438.34593 170.536781 
L 439.34593 170.46657 
L 440.34593 170.383308 
L 441.34593 170.350166 
L 442.34593 170.298929 
L 443.34593 170.230531 
L 444.34593 170.164315 
L 445.34593 170.087398 
L 446.666182 170.060083 
" clip-path="url(#pd1cd67ebeb)" style="fill: none; stroke: #ff7f0e; stroke-opacity: 0.5; stroke-width: 0.2; stroke-linecap: square"/>
   <path d="M 390.34593 244.07174 
L 391.34593 244.103176 
L 392.34593 244.140117 
L 393.34593 244.237863 
L 394.34593 244.270385 
L 395.34593 244.344009 
L 396.34593 244.382575 
L 397.34593 244.417988 
L 398.34593 244.475628 
L 399.34593 244.546014 
L 400.34593 244.597978 
L 401.34593 244.657068 
L 402.34593 244.745389 
L 403.34593 244.791533 
L 404.34593 244.833944 
L 405.34593 244.864437 
L 406.34593 244.890482 
L 407.34593 244.911682 
L 408.34593 244.965983 
L 409.34593 244.993921 
L 410.34593 245.023645 
L 411.34593 245.04904 
L 412.34593 245.06024 
L 413.34593 245.070364 
L 414.34593 245.07016 
L 415.34593 245.06065 
L 416.34593 245.048996 
L 417.34593 245.017967 
L 418.34593 245.006799 
L 419.34593 244.976681 
L 420.34593 244.916905 
L 421.34593 244.879713 
L 422.34593 244.840617 
L 423.34593 244.798177 
L 424.34593 244.765412 
L 425.34593 244.697986 
L 426.34593 244.65886 
L 427.34593 244.616185 
L 428.34593 244.545605 
L 429.34593 244.509214 
L 430.34593 244.450811 
L 431.34593 244.339858 
L 432.34593 244.2692 
L 433.34593 244.15626 
L 434.34593 244.110487 
L 435.34593 244.049204 
L 436.34593 244.000704 
L 437.34593 243.919882 
L 438.34593 243.801363 
L 439.34593 243.731152 
L 440.34593 243.64789 
L 441.34593 243.614748 
L 442.34593 243.563511 
L 443.34593 243.495112 
L 444.34593 243.428897 
L 445.34593 243.35198 
L 446.666182 243.324664 
" clip-path="url(#pd1cd67ebeb)" style="fill: none; stroke: #ff7f0e; stroke-opacity: 0.5; stroke-width: 0.2; stroke-linecap: square"/>
   <path d="M 390.34593 228.108769 
L 391.34593 228.140205 
L 392.34593 228.177146 
L 393.34593 228.274892 
L 394.34593 228.307414 
L 395.34593 228.381039 
L 396.34593 228.419604 
L 397.34593 228.455017 
L 398.34593 228.512657 
L 399.34593 228.583043 
L 400.34593 228.635008 
L 401.34593 228.694097 
L 402.34593 228.782418 
L 403.34593 228.828563 
L 404.34593 228.870974 
L 405.34593 228.901466 
L 406.34593 228.927511 
L 407.34593 228.948711 
L 408.34593 229.003012 
L 409.34593 229.03095 
L 410.34593 229.060674 
L 411.34593 229.086069 
L 412.34593 229.097269 
L 413.34593 229.107393 
L 414.34593 229.107189 
L 415.34593 229.097679 
L 416.34593 229.086025 
L 417.34593 229.054996 
L 418.34593 229.043828 
L 419.34593 229.013711 
L 420.34593 228.953934 
L 421.34593 228.916742 
L 422.34593 228.877646 
L 423.34593 228.835206 
L 424.34593 228.802441 
L 425.34593 228.735015 
L 426.34593 228.695889 
L 427.34593 228.653214 
L 428.34593 228.582634 
L 429.34593 228.546243 
L 430.34593 228.48784 
L 431.34593 228.376887 
L 432.34593 228.306229 
L 433.34593 228.193289 
L 434.34593 228.147516 
L 435.34593 228.086233 
L 436.34593 228.037734 
L 437.34593 227.956911 
L 438.34593 227.838392 
L 439.34593 227.768181 
L 440.34593 227.684919 
L 441.34593 227.651777 
L 442.34593 227.60054 
L 443.34593 227.532141 
L 444.34593 227.465926 
L 445.34593 227.389009 
L 446.666182 227.361693 
" clip-path="url(#pd1cd67ebeb)" style="fill: none; stroke: #ff7f0e; stroke-opacity: 0.5; stroke-width: 0.2; stroke-linecap: square"/>
   <path d="M 446.666182 141.599857 
L 445.666182 141.56842 
L 444.666182 141.53148 
L 443.666182 141.433733 
L 442.666182 141.401212 
L 441.666182 141.327587 
L 440.666182 141.289021 
L 439.666182 141.253608 
L 438.666182 141.195968 
L 437.666182 141.125582 
L 436.666182 141.073618 
L 435.666182 141.014528 
L 434.666182 140.926207 
L 433.666182 140.880063 
L 432.666182 140.837652 
L 431.666182 140.807159 
L 430.666182 140.781114 
L 429.666182 140.759914 
L 428.666182 140.705613 
L 427.666182 140.677676 
L 426.666182 140.647952 
L 425.666182 140.622557 
L 424.666182 140.611356 
L 423.666182 140.601233 
L 422.666182 140.601437 
L 421.666182 140.610947 
L 420.666182 140.6226 
L 419.666182 140.65363 
L 418.666182 140.664797 
L 417.666182 140.694915 
L 416.666182 140.754692 
L 415.666182 140.791883 
L 414.666182 140.83098 
L 413.666182 140.873419 
L 412.666182 140.906184 
L 411.666182 140.973611 
L 410.666182 141.012737 
L 409.666182 141.055411 
L 408.666182 141.125992 
L 407.666182 141.162383 
L 406.666182 141.220786 
L 405.666182 141.331738 
L 404.666182 141.402397 
L 403.666182 141.515337 
L 402.666182 141.561109 
L 401.666182 141.622393 
L 400.666182 141.670892 
L 399.666182 141.751715 
L 398.666182 141.870234 
L 397.666182 141.940444 
L 396.666182 142.023707 
L 395.666182 142.056849 
L 394.666182 142.108086 
L 393.666182 142.176484 
L 392.666182 142.2427 
L 391.666182 142.319617 
L 390.34593 142.346932 
" clip-path="url(#pd1cd67ebeb)" style="fill: none; stroke: #2ca02c; stroke-opacity: 0.5; stroke-width: 0.2; stroke-linecap: square"/>
   <path d="M 446.666182 66.922384 
L 445.666182 66.890947 
L 444.666182 66.854007 
L 443.666182 66.75626 
L 442.666182 66.723739 
L 441.666182 66.650114 
L 440.666182 66.611549 
L 439.666182 66.576135 
L 438.666182 66.518495 
L 437.666182 66.448109 
L 436.666182 66.396145 
L 435.666182 66.337055 
L 434.666182 66.248734 
L 433.666182 66.20259 
L 432.666182 66.160179 
L 431.666182 66.129686 
L 430.666182 66.103642 
L 429.666182 66.082441 
L 428.666182 66.02814 
L 427.666182 66.000203 
L 426.666182 65.970479 
L 425.666182 65.945084 
L 424.666182 65.933884 
L 423.666182 65.92376 
L 422.666182 65.923964 
L 421.666182 65.933474 
L 420.666182 65.945127 
L 419.666182 65.976157 
L 418.666182 65.987325 
L 417.666182 66.017442 
L 416.666182 66.077219 
L 415.666182 66.114411 
L 414.666182 66.153507 
L 413.666182 66.195946 
L 412.666182 66.228711 
L 411.666182 66.296138 
L 410.666182 66.335264 
L 409.666182 66.377938 
L 408.666182 66.448519 
L 407.666182 66.48491 
L 406.666182 66.543313 
L 405.666182 66.654266 
L 404.666182 66.724924 
L 403.666182 66.837864 
L 402.666182 66.883637 
L 401.666182 66.94492 
L 400.666182 66.993419 
L 399.666182 67.074242 
L 398.666182 67.192761 
L 397.666182 67.262971 
L 396.666182 67.346234 
L 395.666182 67.379376 
L 394.666182 67.430613 
L 393.666182 67.499011 
L 392.666182 67.565227 
L 391.666182 67.642144 
L 390.34593 67.669459 
" clip-path="url(#pd1cd67ebeb)" style="fill: none; stroke: #2ca02c; stroke-opacity: 0.5; stroke-width: 0.2; stroke-linecap: square"/>
   <path d="M 446.666182 74.402947 
L 445.666182 74.371511 
L 444.666182 74.334571 
L 443.666182 74.236824 
L 442.666182 74.204302 
L 441.666182 74.130678 
L 440.666182 74.092112 
L 439.666182 74.056699 
L 438.666182 73.999059 
L 437.666182 73.928673 
L 436.666182 73.876709 
L 435.666182 73.817619 
L 434.666182 73.729298 
L 433.666182 73.683154 
L 432.666182 73.640743 
L 431.666182 73.61025 
L 430.666182 73.584205 
L 429.666182 73.563005 
L 428.666182 73.508704 
L 427.666182 73.480766 
L 426.666182 73.451042 
L 425.666182 73.425648 
L 424.666182 73.414447 
L 423.666182 73.404323 
L 422.666182 73.404528 
L 421.666182 73.414037 
L 420.666182 73.425691 
L 419.666182 73.45672 
L 418.666182 73.467888 
L 417.666182 73.498006 
L 416.666182 73.557783 
L 415.666182 73.594974 
L 414.666182 73.63407 
L 413.666182 73.67651 
L 412.666182 73.709275 
L 411.666182 73.776701 
L 410.666182 73.815827 
L 409.666182 73.858502 
L 408.666182 73.929083 
L 407.666182 73.965473 
L 406.666182 74.023877 
L 405.666182 74.134829 
L 404.666182 74.205487 
L 403.666182 74.318427 
L 402.666182 74.3642 
L 401.666182 74.425483 
L 400.666182 74.473983 
L 399.666182 74.554805 
L 398.666182 74.673324 
L 397.666182 74.743535 
L 396.666182 74.826797 
L 395.666182 74.859939 
L 394.666182 74.911177 
L 393.666182 74.979575 
L 392.666182 75.04579 
L 391.666182 75.122707 
L 390.34593 75.150023 
" clip-path="url(#pd1cd67ebeb)" style="fill: none; stroke: #2ca02c; stroke-opacity: 0.5; stroke-width: 0.2; stroke-linecap: square"/>
   <path d="M 446.666182 39.007206 
L 445.666182 38.97577 
L 444.666182 38.938829 
L 443.666182 38.841083 
L 442.666182 38.808561 
L 441.666182 38.734937 
L 440.666182 38.696371 
L 439.666182 38.660958 
L 438.666182 38.603318 
L 437.666182 38.532932 
L 436.666182 38.480968 
L 435.666182 38.421878 
L 434.666182 38.333557 
L 433.666182 38.287412 
L 432.666182 38.245002 
L 431.666182 38.214509 
L 430.666182 38.188464 
L 429.666182 38.167264 
L 428.666182 38.112963 
L 427.666182 38.085025 
L 426.666182 38.055301 
L 425.666182 38.029906 
L 424.666182 38.018706 
L 423.666182 38.008582 
L 422.666182 38.008786 
L 421.666182 38.018296 
L 420.666182 38.02995 
L 419.666182 38.060979 
L 418.666182 38.072147 
L 417.666182 38.102265 
L 416.666182 38.162041 
L 415.666182 38.199233 
L 414.666182 38.238329 
L 413.666182 38.280769 
L 412.666182 38.313534 
L 411.666182 38.38096 
L 410.666182 38.420086 
L 409.666182 38.462761 
L 408.666182 38.533341 
L 407.666182 38.569732 
L 406.666182 38.628135 
L 405.666182 38.739088 
L 404.666182 38.809746 
L 403.666182 38.922686 
L 402.666182 38.968459 
L 401.666182 39.029742 
L 400.666182 39.078242 
L 399.666182 39.159064 
L 398.666182 39.277583 
L 397.666182 39.347794 
L 396.666182 39.431056 
L 395.666182 39.464198 
L 394.666182 39.515435 
L 393.666182 39.583834 
L 392.666182 39.650049 
L 391.666182 39.726966 
L 390.34593 39.754282 
" clip-path="url(#pd1cd67ebeb)" style="fill: none; stroke: #2ca02c; stroke-opacity: 0.5; stroke-width: 0.2; stroke-linecap: square"/>
   <path d="M 446.666182 124.792096 
L 445.666182 124.760659 
L 444.666182 124.723719 
L 443.666182 124.625973 
L 442.666182 124.593451 
L 441.666182 124.519826 
L 440.666182 124.481261 
L 439.666182 124.445847 
L 438.666182 124.388208 
L 437.666182 124.317821 
L 436.666182 124.265857 
L 435.666182 124.206767 
L 434.666182 124.118446 
L 433.666182 124.072302 
L 432.666182 124.029891 
L 431.666182 123.999399 
L 430.666182 123.973354 
L 429.666182 123.952153 
L 428.666182 123.897852 
L 427.666182 123.869915 
L 426.666182 123.840191 
L 425.666182 123.814796 
L 424.666182 123.803596 
L 423.666182 123.793472 
L 422.666182 123.793676 
L 421.666182 123.803186 
L 420.666182 123.814839 
L 419.666182 123.845869 
L 418.666182 123.857037 
L 417.666182 123.887154 
L 416.666182 123.946931 
L 415.666182 123.984123 
L 414.666182 124.023219 
L 413.666182 124.065658 
L 412.666182 124.098423 
L 411.666182 124.16585 
L 410.666182 124.204976 
L 409.666182 124.24765 
L 408.666182 124.318231 
L 407.666182 124.354622 
L 406.666182 124.413025 
L 405.666182 124.523978 
L 404.666182 124.594636 
L 403.666182 124.707576 
L 402.666182 124.753349 
L 401.666182 124.814632 
L 400.666182 124.863131 
L 399.666182 124.943954 
L 398.666182 125.062473 
L 397.666182 125.132683 
L 396.666182 125.215946 
L 395.666182 125.249088 
L 394.666182 125.300325 
L 393.666182 125.368723 
L 392.666182 125.434939 
L 391.666182 125.511856 
L 390.34593 125.539171 
" clip-path="url(#pd1cd67ebeb)" style="fill: none; stroke: #2ca02c; stroke-opacity: 0.5; stroke-width: 0.2; stroke-linecap: square"/>
   <path d="M 446.666182 46.32572 
L 445.666182 46.294284 
L 444.666182 46.257343 
L 443.666182 46.159597 
L 442.666182 46.127075 
L 441.666182 46.05345 
L 440.666182 46.014885 
L 439.666182 45.979472 
L 438.666182 45.921832 
L 437.666182 45.851445 
L 436.666182 45.799481 
L 435.666182 45.740392 
L 434.666182 45.652071 
L 433.666182 45.605926 
L 432.666182 45.563515 
L 431.666182 45.533023 
L 430.666182 45.506978 
L 429.666182 45.485778 
L 428.666182 45.431476 
L 427.666182 45.403539 
L 426.666182 45.373815 
L 425.666182 45.34842 
L 424.666182 45.33722 
L 423.666182 45.327096 
L 422.666182 45.3273 
L 421.666182 45.33681 
L 420.666182 45.348464 
L 419.666182 45.379493 
L 418.666182 45.390661 
L 417.666182 45.420778 
L 416.666182 45.480555 
L 415.666182 45.517747 
L 414.666182 45.556843 
L 413.666182 45.599283 
L 412.666182 45.632048 
L 411.666182 45.699474 
L 410.666182 45.7386 
L 409.666182 45.781275 
L 408.666182 45.851855 
L 407.666182 45.888246 
L 406.666182 45.946649 
L 405.666182 46.057602 
L 404.666182 46.12826 
L 403.666182 46.2412 
L 402.666182 46.286973 
L 401.666182 46.348256 
L 400.666182 46.396755 
L 399.666182 46.477578 
L 398.666182 46.596097 
L 397.666182 46.666308 
L 396.666182 46.74957 
L 395.666182 46.782712 
L 394.666182 46.833949 
L 393.666182 46.902347 
L 392.666182 46.968563 
L 391.666182 47.04548 
L 390.34593 47.072795 
" clip-path="url(#pd1cd67ebeb)" style="fill: none; stroke: #2ca02c; stroke-opacity: 0.5; stroke-width: 0.2; stroke-linecap: square"/>
   <path d="M 446.666182 99.072593 
L 445.666182 99.041156 
L 444.666182 99.004216 
L 443.666182 98.906469 
L 442.666182 98.873948 
L 441.666182 98.800323 
L 440.666182 98.761757 
L 439.666182 98.726344 
L 438.666182 98.668704 
L 437.666182 98.598318 
L 436.666182 98.546354 
L 435.666182 98.487264 
L 434.666182 98.398943 
L 433.666182 98.352799 
L 432.666182 98.310388 
L 431.666182 98.279895 
L 430.666182 98.25385 
L 429.666182 98.23265 
L 428.666182 98.178349 
L 427.666182 98.150412 
L 426.666182 98.120688 
L 425.666182 98.095293 
L 424.666182 98.084092 
L 423.666182 98.073968 
L 422.666182 98.074173 
L 421.666182 98.083683 
L 420.666182 98.095336 
L 419.666182 98.126366 
L 418.666182 98.137533 
L 417.666182 98.167651 
L 416.666182 98.227428 
L 415.666182 98.264619 
L 414.666182 98.303716 
L 413.666182 98.346155 
L 412.666182 98.37892 
L 411.666182 98.446347 
L 410.666182 98.485473 
L 409.666182 98.528147 
L 408.666182 98.598728 
L 407.666182 98.635119 
L 406.666182 98.693522 
L 405.666182 98.804474 
L 404.666182 98.875133 
L 403.666182 98.988073 
L 402.666182 99.033845 
L 401.666182 99.095129 
L 400.666182 99.143628 
L 399.666182 99.224451 
L 398.666182 99.34297 
L 397.666182 99.41318 
L 396.666182 99.496443 
L 395.666182 99.529585 
L 394.666182 99.580822 
L 393.666182 99.64922 
L 392.666182 99.715436 
L 391.666182 99.792353 
L 390.34593 99.819668 
" clip-path="url(#pd1cd67ebeb)" style="fill: none; stroke: #2ca02c; stroke-opacity: 0.5; stroke-width: 0.2; stroke-linecap: square"/>
   <path d="M 446.666182 128.528007 
L 445.666182 128.496571 
L 444.666182 128.45963 
L 443.666182 128.361884 
L 442.666182 128.329362 
L 441.666182 128.255738 
L 440.666182 128.217172 
L 439.666182 128.181759 
L 438.666182 128.124119 
L 437.666182 128.053733 
L 436.666182 128.001769 
L 435.666182 127.942679 
L 434.666182 127.854358 
L 433.666182 127.808214 
L 432.666182 127.765803 
L 431.666182 127.73531 
L 430.666182 127.709265 
L 429.666182 127.688065 
L 428.666182 127.633764 
L 427.666182 127.605826 
L 426.666182 127.576102 
L 425.666182 127.550707 
L 424.666182 127.539507 
L 423.666182 127.529383 
L 422.666182 127.529587 
L 421.666182 127.539097 
L 420.666182 127.550751 
L 419.666182 127.58178 
L 418.666182 127.592948 
L 417.666182 127.623066 
L 416.666182 127.682842 
L 415.666182 127.720034 
L 414.666182 127.75913 
L 413.666182 127.80157 
L 412.666182 127.834335 
L 411.666182 127.901761 
L 410.666182 127.940887 
L 409.666182 127.983562 
L 408.666182 128.054142 
L 407.666182 128.090533 
L 406.666182 128.148936 
L 405.666182 128.259889 
L 404.666182 128.330547 
L 403.666182 128.443487 
L 402.666182 128.48926 
L 401.666182 128.550543 
L 400.666182 128.599043 
L 399.666182 128.679865 
L 398.666182 128.798384 
L 397.666182 128.868595 
L 396.666182 128.951857 
L 395.666182 128.984999 
L 394.666182 129.036236 
L 393.666182 129.104635 
L 392.666182 129.17085 
L 391.666182 129.247767 
L 390.34593 129.275083 
" clip-path="url(#pd1cd67ebeb)" style="fill: none; stroke: #2ca02c; stroke-opacity: 0.5; stroke-width: 0.2; stroke-linecap: square"/>
   <path d="M 446.666182 22.861077 
L 445.666182 22.829641 
L 444.666182 22.7927 
L 443.666182 22.694954 
L 442.666182 22.662432 
L 441.666182 22.588808 
L 440.666182 22.550242 
L 439.666182 22.514829 
L 438.666182 22.457189 
L 437.666182 22.386803 
L 436.666182 22.334838 
L 435.666182 22.275749 
L 434.666182 22.187428 
L 433.666182 22.141283 
L 432.666182 22.098873 
L 431.666182 22.06838 
L 430.666182 22.042335 
L 429.666182 22.021135 
L 428.666182 21.966834 
L 427.666182 21.938896 
L 426.666182 21.909172 
L 425.666182 21.883777 
L 424.666182 21.872577 
L 423.666182 21.862453 
L 422.666182 21.862657 
L 421.666182 21.872167 
L 420.666182 21.883821 
L 419.666182 21.91485 
L 418.666182 21.926018 
L 417.666182 21.956136 
L 416.666182 22.015912 
L 415.666182 22.053104 
L 414.666182 22.0922 
L 413.666182 22.13464 
L 412.666182 22.167405 
L 411.666182 22.234831 
L 410.666182 22.273957 
L 409.666182 22.316632 
L 408.666182 22.387212 
L 407.666182 22.423603 
L 406.666182 22.482006 
L 405.666182 22.592959 
L 404.666182 22.663617 
L 403.666182 22.776557 
L 402.666182 22.82233 
L 401.666182 22.883613 
L 400.666182 22.932113 
L 399.666182 23.012935 
L 398.666182 23.131454 
L 397.666182 23.201665 
L 396.666182 23.284927 
L 395.666182 23.318069 
L 394.666182 23.369306 
L 393.666182 23.437705 
L 392.666182 23.50392 
L 391.666182 23.580837 
L 390.34593 23.608153 
" clip-path="url(#pd1cd67ebeb)" style="fill: none; stroke: #2ca02c; stroke-opacity: 0.5; stroke-width: 0.2; stroke-linecap: square"/>
   <path d="M 446.666182 296.533244 
L 445.666182 296.501807 
L 444.666182 296.464867 
L 443.666182 296.36712 
L 442.666182 296.334599 
L 441.666182 296.260974 
L 440.666182 296.222408 
L 439.666182 296.186995 
L 438.666182 296.129355 
L 437.666182 296.058969 
L 436.666182 296.007005 
L 435.666182 295.947915 
L 434.666182 295.859594 
L 433.666182 295.81345 
L 432.666182 295.771039 
L 431.666182 295.740546 
L 430.666182 295.714501 
L 429.666182 295.693301 
L 428.666182 295.639 
L 427.666182 295.611063 
L 426.666182 295.581339 
L 425.666182 295.555944 
L 424.666182 295.544743 
L 423.666182 295.534619 
L 422.666182 295.534824 
L 421.666182 295.544334 
L 420.666182 295.555987 
L 419.666182 295.587016 
L 418.666182 295.598184 
L 417.666182 295.628302 
L 416.666182 295.688079 
L 415.666182 295.72527 
L 414.666182 295.764366 
L 413.666182 295.806806 
L 412.666182 295.839571 
L 411.666182 295.906998 
L 410.666182 295.946124 
L 409.666182 295.988798 
L 408.666182 296.059379 
L 407.666182 296.09577 
L 406.666182 296.154173 
L 405.666182 296.265125 
L 404.666182 296.335784 
L 403.666182 296.448724 
L 402.666182 296.494496 
L 401.666182 296.55578 
L 400.666182 296.604279 
L 399.666182 296.685102 
L 398.666182 296.803621 
L 397.666182 296.873831 
L 396.666182 296.957094 
L 395.666182 296.990235 
L 394.666182 297.041473 
L 393.666182 297.109871 
L 392.666182 297.176087 
L 391.666182 297.253004 
L 390.34593 297.280319 
" clip-path="url(#pd1cd67ebeb)" style="fill: none; stroke: #2ca02c; stroke-opacity: 0.5; stroke-width: 0.2; stroke-linecap: square"/>
   <g id="patch_3">
    <path d="M 72.103551 7.2 
L 72.103551 318.021875 
M 194.769099 7.2 
L 194.769099 318.021875 
" clip-path="url(#pd1cd67ebeb)" style="fill: none; stroke: #ffffff; stroke-width: 3; stroke-linejoin: miter"/>
    <path d="M 72.103551 7.2 
L 72.103551 318.021875 
M 194.769099 7.2 
L 194.769099 318.021875 
" clip-path="url(#pd1cd67ebeb)" style="fill: none; stroke: #1f77b4; stroke-linejoin: miter"/>
    <g id="PolyCollection_1">
     <path d="M 194.769099 7.2 
L 72.103551 7.2 
L 72.103551 318.021875 
L 194.769099 318.021875 
L 194.769099 318.021875 
L 194.769099 7.2 
z
" clip-path="url(#pd1cd67ebeb)" style="fill: #1f77b4; fill-opacity: 0.5"/>
    </g>
    <g id="patch_4">
     <path d="M 262.150038 7.2 
L 262.150038 318.021875 
M 384.815587 7.2 
L 384.815587 318.021875 
" clip-path="url(#pd1cd67ebeb)" style="fill: none; stroke: #ffffff; stroke-width: 3; stroke-linejoin: miter"/>
     <path d="M 262.150038 7.2 
L 262.150038 318.021875 
M 384.815587 7.2 
L 384.815587 318.021875 
" clip-path="url(#pd1cd67ebeb)" style="fill: none; stroke: #ff7f0e; stroke-linejoin: miter"/>
     <g id="PolyCollection_2">
      <path d="M 384.815587 7.2 
L 262.150038 7.2 
L 262.150038 318.021875 
L 384.815587 318.021875 
L 384.815587 318.021875 
L 384.815587 7.2 
z
" clip-path="url(#pd1cd67ebeb)" style="fill: #ff7f0e; fill-opacity: 0.5"/>
     </g>
     <g id="patch_5">
      <path d="M 452.196526 7.2 
L 452.196526 318.021875 
M 574.862074 7.2 
L 574.862074 318.021875 
" clip-path="url(#pd1cd67ebeb)" style="fill: none; stroke: #ffffff; stroke-width: 3; stroke-linejoin: miter"/>
      <path d="M 452.196526 7.2 
L 452.196526 318.021875 
M 574.862074 7.2 
L 574.862074 318.021875 
" clip-path="url(#pd1cd67ebeb)" style="fill: none; stroke: #2ca02c; stroke-linejoin: miter"/>
      <g id="PolyCollection_3">
       <path d="M 574.862074 7.2 
L 452.196526 7.2 
L 452.196526 318.021875 
L 574.862074 318.021875 
L 574.862074 318.021875 
L 574.862074 7.2 
z
" clip-path="url(#pd1cd67ebeb)" style="fill: #2ca02c; fill-opacity: 0.5"/>
      </g>
      <g id="matplotlib.axis_1">
       <g id="xtick_1">
        <g id="line2d_1"/>
        <g id="text_1">
         <!-- d0 -->
         <g transform="translate(127.080856 329.120312) scale(0.1 -0.1)">
          <defs>
           <path id="DejaVuSans-64" d="M 2906 2969 
L 2906 4863 
L 3481 4863 
L 3481 0 
L 2906 0 
L 2906 525 
Q 2725 213 2448 61 
Q 2172 -91 1784 -91 
Q 1150 -91 751 415 
Q 353 922 353 1747 
Q 353 2572 751 3078 
Q 1150 3584 1784 3584 
Q 2172 3584 2448 3432 
Q 2725 3281 2906 2969 
z
M 947 1747 
Q 947 1113 1208 752 
Q 1469 391 1925 391 
Q 2381 391 2643 752 
Q 2906 1113 2906 1747 
Q 2906 2381 2643 2742 
Q 2381 3103 1925 3103 
Q 1469 3103 1208 2742 
Q 947 2381 947 1747 
z
" transform="scale(0.015625)"/>
           <path id="DejaVuSans-30" d="M 2034 4250 
Q 1547 4250 1301 3770 
Q 1056 3291 1056 2328 
Q 1056 1369 1301 889 
Q 1547 409 2034 409 
Q 2525 409 2770 889 
Q 3016 1369 3016 2328 
Q 3016 3291 2770 3770 
Q 2525 4250 2034 4250 
z
M 2034 4750 
Q 2819 4750 3233 4129 
Q 3647 3509 3647 2328 
Q 3647 1150 3233 529 
Q 2819 -91 2034 -91 
Q 1250 -91 836 529 
Q 422 1150 422 2328 
Q 422 3509 836 4129 
Q 1250 4750 2034 4750 
z
" transform="scale(0.015625)"/>
          </defs>
          <use xlink:href="#DejaVuSans-64"/>
          <use xlink:href="#DejaVuSans-30" x="63.476562"/>
         </g>
        </g>
       </g>
       <g id="xtick_2">
        <g id="line2d_2"/>
        <g id="text_2">
         <!-- d1 -->
         <g transform="translate(317.127344 329.120312) scale(0.1 -0.1)">
          <defs>
           <path id="DejaVuSans-31" d="M 794 531 
L 1825 531 
L 1825 4091 
L 703 3866 
L 703 4441 
L 1819 4666 
L 2450 4666 
L 2450 531 
L 3481 531 
L 3481 0 
L 794 0 
L 794 531 
z
" transform="scale(0.015625)"/>
          </defs>
          <use xlink:href="#DejaVuSans-64"/>
          <use xlink:href="#DejaVuSans-31" x="63.476562"/>
         </g>
        </g>
       </g>
       <g id="xtick_3">
        <g id="line2d_3"/>
        <g id="text_3">
         <!-- d2 -->
         <g transform="translate(507.173831 329.120312) scale(0.1 -0.1)">
          <defs>
           <path id="DejaVuSans-32" d="M 1228 531 
L 3431 531 
L 3431 0 
L 469 0 
L 469 531 
Q 828 903 1448 1529 
Q 2069 2156 2228 2338 
Q 2531 2678 2651 2914 
Q 2772 3150 2772 3378 
Q 2772 3750 2511 3984 
Q 2250 4219 1831 4219 
Q 1534 4219 1204 4116 
Q 875 4013 500 3803 
L 500 4441 
Q 881 4594 1212 4672 
Q 1544 4750 1819 4750 
Q 2544 4750 2975 4387 
Q 3406 4025 3406 3419 
Q 3406 3131 3298 2873 
Q 3191 2616 2906 2266 
Q 2828 2175 2409 1742 
Q 1991 1309 1228 531 
z
" transform="scale(0.015625)"/>
          </defs>
          <use xlink:href="#DejaVuSans-64"/>
          <use xlink:href="#DejaVuSans-32" x="63.476562"/>
         </g>
        </g>
       </g>
      </g>
      <g id="matplotlib.axis_2">
       <g id="ytick_1">
        <g id="line2d_4">
         <defs>
          <path id="mf93e491590" d="M 0 0 
L -3.5 0 
" style="stroke: #000000; stroke-width: 0.8"/>
         </defs>
         <g>
          <use xlink:href="#mf93e491590" x="46.965625" y="318.021875" style="stroke: #000000; stroke-width: 0.8"/>
         </g>
        </g>
        <g id="text_4">
         <!-- 0 -->
         <g transform="translate(33.603125 321.821094) scale(0.1 -0.1)">
          <use xlink:href="#DejaVuSans-30"/>
         </g>
        </g>
       </g>
       <g id="ytick_2">
        <g id="line2d_5">
         <g>
          <use xlink:href="#mf93e491590" x="46.965625" y="263.009154" style="stroke: #000000; stroke-width: 0.8"/>
         </g>
        </g>
        <g id="text_5">
         <!-- 20 -->
         <g transform="translate(27.240625 266.808373) scale(0.1 -0.1)">
          <use xlink:href="#DejaVuSans-32"/>
          <use xlink:href="#DejaVuSans-30" x="63.623047"/>
         </g>
        </g>
       </g>
       <g id="ytick_3">
        <g id="line2d_6">
         <g>
          <use xlink:href="#mf93e491590" x="46.965625" y="207.996433" style="stroke: #000000; stroke-width: 0.8"/>
         </g>
        </g>
        <g id="text_6">
         <!-- 40 -->
         <g transform="translate(27.240625 211.795651) scale(0.1 -0.1)">
          <defs>
           <path id="DejaVuSans-34" d="M 2419 4116 
L 825 1625 
L 2419 1625 
L 2419 4116 
z
M 2253 4666 
L 3047 4666 
L 3047 1625 
L 3713 1625 
L 3713 1100 
L 3047 1100 
L 3047 0 
L 2419 0 
L 2419 1100 
L 313 1100 
L 313 1709 
L 2253 4666 
z
" transform="scale(0.015625)"/>
          </defs>
          <use xlink:href="#DejaVuSans-34"/>
          <use xlink:href="#DejaVuSans-30" x="63.623047"/>
         </g>
        </g>
       </g>
       <g id="ytick_4">
        <g id="line2d_7">
         <g>
          <use xlink:href="#mf93e491590" x="46.965625" y="152.983711" style="stroke: #000000; stroke-width: 0.8"/>
         </g>
        </g>
        <g id="text_7">
         <!-- 60 -->
         <g transform="translate(27.240625 156.78293) scale(0.1 -0.1)">
          <defs>
           <path id="DejaVuSans-36" d="M 2113 2584 
Q 1688 2584 1439 2293 
Q 1191 2003 1191 1497 
Q 1191 994 1439 701 
Q 1688 409 2113 409 
Q 2538 409 2786 701 
Q 3034 994 3034 1497 
Q 3034 2003 2786 2293 
Q 2538 2584 2113 2584 
z
M 3366 4563 
L 3366 3988 
Q 3128 4100 2886 4159 
Q 2644 4219 2406 4219 
Q 1781 4219 1451 3797 
Q 1122 3375 1075 2522 
Q 1259 2794 1537 2939 
Q 1816 3084 2150 3084 
Q 2853 3084 3261 2657 
Q 3669 2231 3669 1497 
Q 3669 778 3244 343 
Q 2819 -91 2113 -91 
Q 1303 -91 875 529 
Q 447 1150 447 2328 
Q 447 3434 972 4092 
Q 1497 4750 2381 4750 
Q 2619 4750 2861 4703 
Q 3103 4656 3366 4563 
z
" transform="scale(0.015625)"/>
          </defs>
          <use xlink:href="#DejaVuSans-36"/>
          <use xlink:href="#DejaVuSans-30" x="63.623047"/>
         </g>
        </g>
       </g>
       <g id="ytick_5">
        <g id="line2d_8">
         <g>
          <use xlink:href="#mf93e491590" x="46.965625" y="97.97099" style="stroke: #000000; stroke-width: 0.8"/>
         </g>
        </g>
        <g id="text_8">
         <!-- 80 -->
         <g transform="translate(27.240625 101.770209) scale(0.1 -0.1)">
          <defs>
           <path id="DejaVuSans-38" d="M 2034 2216 
Q 1584 2216 1326 1975 
Q 1069 1734 1069 1313 
Q 1069 891 1326 650 
Q 1584 409 2034 409 
Q 2484 409 2743 651 
Q 3003 894 3003 1313 
Q 3003 1734 2745 1975 
Q 2488 2216 2034 2216 
z
M 1403 2484 
Q 997 2584 770 2862 
Q 544 3141 544 3541 
Q 544 4100 942 4425 
Q 1341 4750 2034 4750 
Q 2731 4750 3128 4425 
Q 3525 4100 3525 3541 
Q 3525 3141 3298 2862 
Q 3072 2584 2669 2484 
Q 3125 2378 3379 2068 
Q 3634 1759 3634 1313 
Q 3634 634 3220 271 
Q 2806 -91 2034 -91 
Q 1263 -91 848 271 
Q 434 634 434 1313 
Q 434 1759 690 2068 
Q 947 2378 1403 2484 
z
M 1172 3481 
Q 1172 3119 1398 2916 
Q 1625 2713 2034 2713 
Q 2441 2713 2670 2916 
Q 2900 3119 2900 3481 
Q 2900 3844 2670 4047 
Q 2441 4250 2034 4250 
Q 1625 4250 1398 4047 
Q 1172 3844 1172 3481 
z
" transform="scale(0.015625)"/>
          </defs>
          <use xlink:href="#DejaVuSans-38"/>
          <use xlink:href="#DejaVuSans-30" x="63.623047"/>
         </g>
        </g>
       </g>
       <g id="ytick_6">
        <g id="line2d_9">
         <g>
          <use xlink:href="#mf93e491590" x="46.965625" y="42.958269" style="stroke: #000000; stroke-width: 0.8"/>
         </g>
        </g>
        <g id="text_9">
         <!-- 100 -->
         <g transform="translate(20.878125 46.757488) scale(0.1 -0.1)">
          <use xlink:href="#DejaVuSans-31"/>
          <use xlink:href="#DejaVuSans-30" x="63.623047"/>
          <use xlink:href="#DejaVuSans-30" x="127.246094"/>
         </g>
        </g>
       </g>
       <g id="text_10">
        <!-- time ago (generations) -->
        <g transform="translate(14.798438 220.082031) rotate(-90) scale(0.1 -0.1)">
         <defs>
          <path id="DejaVuSans-74" d="M 1172 4494 
L 1172 3500 
L 2356 3500 
L 2356 3053 
L 1172 3053 
L 1172 1153 
Q 1172 725 1289 603 
Q 1406 481 1766 481 
L 2356 481 
L 2356 0 
L 1766 0 
Q 1100 0 847 248 
Q 594 497 594 1153 
L 594 3053 
L 172 3053 
L 172 3500 
L 594 3500 
L 594 4494 
L 1172 4494 
z
" transform="scale(0.015625)"/>
          <path id="DejaVuSans-69" d="M 603 3500 
L 1178 3500 
L 1178 0 
L 603 0 
L 603 3500 
z
M 603 4863 
L 1178 4863 
L 1178 4134 
L 603 4134 
L 603 4863 
z
" transform="scale(0.015625)"/>
          <path id="DejaVuSans-6d" d="M 3328 2828 
Q 3544 3216 3844 3400 
Q 4144 3584 4550 3584 
Q 5097 3584 5394 3201 
Q 5691 2819 5691 2113 
L 5691 0 
L 5113 0 
L 5113 2094 
Q 5113 2597 4934 2840 
Q 4756 3084 4391 3084 
Q 3944 3084 3684 2787 
Q 3425 2491 3425 1978 
L 3425 0 
L 2847 0 
L 2847 2094 
Q 2847 2600 2669 2842 
Q 2491 3084 2119 3084 
Q 1678 3084 1418 2786 
Q 1159 2488 1159 1978 
L 1159 0 
L 581 0 
L 581 3500 
L 1159 3500 
L 1159 2956 
Q 1356 3278 1631 3431 
Q 1906 3584 2284 3584 
Q 2666 3584 2933 3390 
Q 3200 3197 3328 2828 
z
" transform="scale(0.015625)"/>
          <path id="DejaVuSans-65" d="M 3597 1894 
L 3597 1613 
L 953 1613 
Q 991 1019 1311 708 
Q 1631 397 2203 397 
Q 2534 397 2845 478 
Q 3156 559 3463 722 
L 3463 178 
Q 3153 47 2828 -22 
Q 2503 -91 2169 -91 
Q 1331 -91 842 396 
Q 353 884 353 1716 
Q 353 2575 817 3079 
Q 1281 3584 2069 3584 
Q 2775 3584 3186 3129 
Q 3597 2675 3597 1894 
z
M 3022 2063 
Q 3016 2534 2758 2815 
Q 2500 3097 2075 3097 
Q 1594 3097 1305 2825 
Q 1016 2553 972 2059 
L 3022 2063 
z
" transform="scale(0.015625)"/>
          <path id="DejaVuSans-20" transform="scale(0.015625)"/>
          <path id="DejaVuSans-61" d="M 2194 1759 
Q 1497 1759 1228 1600 
Q 959 1441 959 1056 
Q 959 750 1161 570 
Q 1363 391 1709 391 
Q 2188 391 2477 730 
Q 2766 1069 2766 1631 
L 2766 1759 
L 2194 1759 
z
M 3341 1997 
L 3341 0 
L 2766 0 
L 2766 531 
Q 2569 213 2275 61 
Q 1981 -91 1556 -91 
Q 1019 -91 701 211 
Q 384 513 384 1019 
Q 384 1609 779 1909 
Q 1175 2209 1959 2209 
L 2766 2209 
L 2766 2266 
Q 2766 2663 2505 2880 
Q 2244 3097 1772 3097 
Q 1472 3097 1187 3025 
Q 903 2953 641 2809 
L 641 3341 
Q 956 3463 1253 3523 
Q 1550 3584 1831 3584 
Q 2591 3584 2966 3190 
Q 3341 2797 3341 1997 
z
" transform="scale(0.015625)"/>
          <path id="DejaVuSans-67" d="M 2906 1791 
Q 2906 2416 2648 2759 
Q 2391 3103 1925 3103 
Q 1463 3103 1205 2759 
Q 947 2416 947 1791 
Q 947 1169 1205 825 
Q 1463 481 1925 481 
Q 2391 481 2648 825 
Q 2906 1169 2906 1791 
z
M 3481 434 
Q 3481 -459 3084 -895 
Q 2688 -1331 1869 -1331 
Q 1566 -1331 1297 -1286 
Q 1028 -1241 775 -1147 
L 775 -588 
Q 1028 -725 1275 -790 
Q 1522 -856 1778 -856 
Q 2344 -856 2625 -561 
Q 2906 -266 2906 331 
L 2906 616 
Q 2728 306 2450 153 
Q 2172 0 1784 0 
Q 1141 0 747 490 
Q 353 981 353 1791 
Q 353 2603 747 3093 
Q 1141 3584 1784 3584 
Q 2172 3584 2450 3431 
Q 2728 3278 2906 2969 
L 2906 3500 
L 3481 3500 
L 3481 434 
z
" transform="scale(0.015625)"/>
          <path id="DejaVuSans-6f" d="M 1959 3097 
Q 1497 3097 1228 2736 
Q 959 2375 959 1747 
Q 959 1119 1226 758 
Q 1494 397 1959 397 
Q 2419 397 2687 759 
Q 2956 1122 2956 1747 
Q 2956 2369 2687 2733 
Q 2419 3097 1959 3097 
z
M 1959 3584 
Q 2709 3584 3137 3096 
Q 3566 2609 3566 1747 
Q 3566 888 3137 398 
Q 2709 -91 1959 -91 
Q 1206 -91 779 398 
Q 353 888 353 1747 
Q 353 2609 779 3096 
Q 1206 3584 1959 3584 
z
" transform="scale(0.015625)"/>
          <path id="DejaVuSans-28" d="M 1984 4856 
Q 1566 4138 1362 3434 
Q 1159 2731 1159 2009 
Q 1159 1288 1364 580 
Q 1569 -128 1984 -844 
L 1484 -844 
Q 1016 -109 783 600 
Q 550 1309 550 2009 
Q 550 2706 781 3412 
Q 1013 4119 1484 4856 
L 1984 4856 
z
" transform="scale(0.015625)"/>
          <path id="DejaVuSans-6e" d="M 3513 2113 
L 3513 0 
L 2938 0 
L 2938 2094 
Q 2938 2591 2744 2837 
Q 2550 3084 2163 3084 
Q 1697 3084 1428 2787 
Q 1159 2491 1159 1978 
L 1159 0 
L 581 0 
L 581 3500 
L 1159 3500 
L 1159 2956 
Q 1366 3272 1645 3428 
Q 1925 3584 2291 3584 
Q 2894 3584 3203 3211 
Q 3513 2838 3513 2113 
z
" transform="scale(0.015625)"/>
          <path id="DejaVuSans-72" d="M 2631 2963 
Q 2534 3019 2420 3045 
Q 2306 3072 2169 3072 
Q 1681 3072 1420 2755 
Q 1159 2438 1159 1844 
L 1159 0 
L 581 0 
L 581 3500 
L 1159 3500 
L 1159 2956 
Q 1341 3275 1631 3429 
Q 1922 3584 2338 3584 
Q 2397 3584 2469 3576 
Q 2541 3569 2628 3553 
L 2631 2963 
z
" transform="scale(0.015625)"/>
          <path id="DejaVuSans-73" d="M 2834 3397 
L 2834 2853 
Q 2591 2978 2328 3040 
Q 2066 3103 1784 3103 
Q 1356 3103 1142 2972 
Q 928 2841 928 2578 
Q 928 2378 1081 2264 
Q 1234 2150 1697 2047 
L 1894 2003 
Q 2506 1872 2764 1633 
Q 3022 1394 3022 966 
Q 3022 478 2636 193 
Q 2250 -91 1575 -91 
Q 1294 -91 989 -36 
Q 684 19 347 128 
L 347 722 
Q 666 556 975 473 
Q 1284 391 1588 391 
Q 1994 391 2212 530 
Q 2431 669 2431 922 
Q 2431 1156 2273 1281 
Q 2116 1406 1581 1522 
L 1381 1569 
Q 847 1681 609 1914 
Q 372 2147 372 2553 
Q 372 3047 722 3315 
Q 1072 3584 1716 3584 
Q 2034 3584 2315 3537 
Q 2597 3491 2834 3397 
z
" transform="scale(0.015625)"/>
          <path id="DejaVuSans-29" d="M 513 4856 
L 1013 4856 
Q 1481 4119 1714 3412 
Q 1947 2706 1947 2009 
Q 1947 1309 1714 600 
Q 1481 -109 1013 -844 
L 513 -844 
Q 928 -128 1133 580 
Q 1338 1288 1338 2009 
Q 1338 2731 1133 3434 
Q 928 4138 513 4856 
z
" transform="scale(0.015625)"/>
         </defs>
         <use xlink:href="#DejaVuSans-74"/>
         <use xlink:href="#DejaVuSans-69" x="39.208984"/>
         <use xlink:href="#DejaVuSans-6d" x="66.992188"/>
         <use xlink:href="#DejaVuSans-65" x="164.404297"/>
         <use xlink:href="#DejaVuSans-20" x="225.927734"/>
         <use xlink:href="#DejaVuSans-61" x="257.714844"/>
         <use xlink:href="#DejaVuSans-67" x="318.994141"/>
         <use xlink:href="#DejaVuSans-6f" x="382.470703"/>
         <use xlink:href="#DejaVuSans-20" x="443.652344"/>
         <use xlink:href="#DejaVuSans-28" x="475.439453"/>
         <use xlink:href="#DejaVuSans-67" x="514.453125"/>
         <use xlink:href="#DejaVuSans-65" x="577.929688"/>
         <use xlink:href="#DejaVuSans-6e" x="639.453125"/>
         <use xlink:href="#DejaVuSans-65" x="702.832031"/>
         <use xlink:href="#DejaVuSans-72" x="764.355469"/>
         <use xlink:href="#DejaVuSans-61" x="805.46875"/>
         <use xlink:href="#DejaVuSans-74" x="866.748047"/>
         <use xlink:href="#DejaVuSans-69" x="905.957031"/>
         <use xlink:href="#DejaVuSans-6f" x="933.740234"/>
         <use xlink:href="#DejaVuSans-6e" x="994.921875"/>
         <use xlink:href="#DejaVuSans-73" x="1058.300781"/>
         <use xlink:href="#DejaVuSans-29" x="1110.400391"/>
        </g>
       </g>
      </g>
      <path d="M 257.619695 220.298684 
L 255.619695 219.298684 
L 255.619695 221.298684 
z
" clip-path="url(#pd1cd67ebeb)" style="fill: #1f77b4; fill-opacity: 0.5; stroke: #1f77b4; stroke-opacity: 0.5; stroke-linejoin: miter"/>
      <path d="M 257.619695 168.324676 
L 255.619695 167.324676 
L 255.619695 169.324676 
z
" clip-path="url(#pd1cd67ebeb)" style="fill: #1f77b4; fill-opacity: 0.5; stroke: #1f77b4; stroke-opacity: 0.5; stroke-linejoin: miter"/>
      <path d="M 257.619695 229.435644 
L 255.619695 228.435644 
L 255.619695 230.435644 
z
" clip-path="url(#pd1cd67ebeb)" style="fill: #1f77b4; fill-opacity: 0.5; stroke: #1f77b4; stroke-opacity: 0.5; stroke-linejoin: miter"/>
      <path d="M 257.619695 236.328978 
L 255.619695 235.328978 
L 255.619695 237.328978 
z
" clip-path="url(#pd1cd67ebeb)" style="fill: #1f77b4; fill-opacity: 0.5; stroke: #1f77b4; stroke-opacity: 0.5; stroke-linejoin: miter"/>
      <path d="M 257.619695 149.834537 
L 255.619695 148.834537 
L 255.619695 150.834537 
z
" clip-path="url(#pd1cd67ebeb)" style="fill: #1f77b4; fill-opacity: 0.5; stroke: #1f77b4; stroke-opacity: 0.5; stroke-linejoin: miter"/>
      <path d="M 257.619695 224.667308 
L 255.619695 223.667308 
L 255.619695 225.667308 
z
" clip-path="url(#pd1cd67ebeb)" style="fill: #1f77b4; fill-opacity: 0.5; stroke: #1f77b4; stroke-opacity: 0.5; stroke-linejoin: miter"/>
      <path d="M 257.619695 111.544204 
L 255.619695 110.544204 
L 255.619695 112.544204 
z
" clip-path="url(#pd1cd67ebeb)" style="fill: #1f77b4; fill-opacity: 0.5; stroke: #1f77b4; stroke-opacity: 0.5; stroke-linejoin: miter"/>
      <path d="M 257.619695 106.548693 
L 255.619695 105.548693 
L 255.619695 107.548693 
z
" clip-path="url(#pd1cd67ebeb)" style="fill: #1f77b4; fill-opacity: 0.5; stroke: #1f77b4; stroke-opacity: 0.5; stroke-linejoin: miter"/>
      <path d="M 257.619695 125.263123 
L 255.619695 124.263123 
L 255.619695 126.263123 
z
" clip-path="url(#pd1cd67ebeb)" style="fill: #1f77b4; fill-opacity: 0.5; stroke: #1f77b4; stroke-opacity: 0.5; stroke-linejoin: miter"/>
      <path d="M 257.619695 19.654019 
L 255.619695 18.654019 
L 255.619695 20.654019 
z
" clip-path="url(#pd1cd67ebeb)" style="fill: #1f77b4; fill-opacity: 0.5; stroke: #1f77b4; stroke-opacity: 0.5; stroke-linejoin: miter"/>
      <path d="M 199.299443 142.142444 
L 201.299443 143.142444 
L 201.299443 141.142444 
z
" clip-path="url(#pd1cd67ebeb)" style="fill: #ff7f0e; fill-opacity: 0.5; stroke: #ff7f0e; stroke-opacity: 0.5; stroke-linejoin: miter"/>
      <path d="M 199.299443 229.271941 
L 201.299443 230.271941 
L 201.299443 228.271941 
z
" clip-path="url(#pd1cd67ebeb)" style="fill: #ff7f0e; fill-opacity: 0.5; stroke: #ff7f0e; stroke-opacity: 0.5; stroke-linejoin: miter"/>
      <path d="M 199.299443 142.828036 
L 201.299443 143.828036 
L 201.299443 141.828036 
z
" clip-path="url(#pd1cd67ebeb)" style="fill: #ff7f0e; fill-opacity: 0.5; stroke: #ff7f0e; stroke-opacity: 0.5; stroke-linejoin: miter"/>
      <path d="M 199.299443 7.915581 
L 201.299443 8.915581 
L 201.299443 6.915581 
z
" clip-path="url(#pd1cd67ebeb)" style="fill: #ff7f0e; fill-opacity: 0.5; stroke: #ff7f0e; stroke-opacity: 0.5; stroke-linejoin: miter"/>
      <path d="M 199.299443 214.312196 
L 201.299443 215.312196 
L 201.299443 213.312196 
z
" clip-path="url(#pd1cd67ebeb)" style="fill: #ff7f0e; fill-opacity: 0.5; stroke: #ff7f0e; stroke-opacity: 0.5; stroke-linejoin: miter"/>
      <path d="M 199.299443 256.575841 
L 201.299443 257.575841 
L 201.299443 255.575841 
z
" clip-path="url(#pd1cd67ebeb)" style="fill: #ff7f0e; fill-opacity: 0.5; stroke: #ff7f0e; stroke-opacity: 0.5; stroke-linejoin: miter"/>
      <path d="M 199.299443 97.858043 
L 201.299443 98.858043 
L 201.299443 96.858043 
z
" clip-path="url(#pd1cd67ebeb)" style="fill: #ff7f0e; fill-opacity: 0.5; stroke: #ff7f0e; stroke-opacity: 0.5; stroke-linejoin: miter"/>
      <path d="M 199.299443 296.247924 
L 201.299443 297.247924 
L 201.299443 295.247924 
z
" clip-path="url(#pd1cd67ebeb)" style="fill: #ff7f0e; fill-opacity: 0.5; stroke: #ff7f0e; stroke-opacity: 0.5; stroke-linejoin: miter"/>
      <path d="M 199.299443 271.935926 
L 201.299443 272.935926 
L 201.299443 270.935926 
z
" clip-path="url(#pd1cd67ebeb)" style="fill: #ff7f0e; fill-opacity: 0.5; stroke: #ff7f0e; stroke-opacity: 0.5; stroke-linejoin: miter"/>
      <path d="M 199.299443 178.517999 
L 201.299443 179.517999 
L 201.299443 177.517999 
z
" clip-path="url(#pd1cd67ebeb)" style="fill: #ff7f0e; fill-opacity: 0.5; stroke: #ff7f0e; stroke-opacity: 0.5; stroke-linejoin: miter"/>
      <path d="M 447.666182 43.555067 
L 445.666182 42.555067 
L 445.666182 44.555067 
z
" clip-path="url(#pd1cd67ebeb)" style="fill: #ff7f0e; fill-opacity: 0.5; stroke: #ff7f0e; stroke-opacity: 0.5; stroke-linejoin: miter"/>
      <path d="M 447.666182 133.773127 
L 445.666182 132.773127 
L 445.666182 134.773127 
z
" clip-path="url(#pd1cd67ebeb)" style="fill: #ff7f0e; fill-opacity: 0.5; stroke: #ff7f0e; stroke-opacity: 0.5; stroke-linejoin: miter"/>
      <path d="M 447.666182 156.204504 
L 445.666182 155.204504 
L 445.666182 157.204504 
z
" clip-path="url(#pd1cd67ebeb)" style="fill: #ff7f0e; fill-opacity: 0.5; stroke: #ff7f0e; stroke-opacity: 0.5; stroke-linejoin: miter"/>
      <path d="M 447.666182 188.518878 
L 445.666182 187.518878 
L 445.666182 189.518878 
z
" clip-path="url(#pd1cd67ebeb)" style="fill: #ff7f0e; fill-opacity: 0.5; stroke: #ff7f0e; stroke-opacity: 0.5; stroke-linejoin: miter"/>
      <path d="M 447.666182 132.961936 
L 445.666182 131.961936 
L 445.666182 133.961936 
z
" clip-path="url(#pd1cd67ebeb)" style="fill: #ff7f0e; fill-opacity: 0.5; stroke: #ff7f0e; stroke-opacity: 0.5; stroke-linejoin: miter"/>
      <path d="M 447.666182 226.918617 
L 445.666182 225.918617 
L 445.666182 227.918617 
z
" clip-path="url(#pd1cd67ebeb)" style="fill: #ff7f0e; fill-opacity: 0.5; stroke: #ff7f0e; stroke-opacity: 0.5; stroke-linejoin: miter"/>
      <path d="M 447.666182 305.955935 
L 445.666182 304.955935 
L 445.666182 306.955935 
z
" clip-path="url(#pd1cd67ebeb)" style="fill: #ff7f0e; fill-opacity: 0.5; stroke: #ff7f0e; stroke-opacity: 0.5; stroke-linejoin: miter"/>
      <path d="M 447.666182 170.807158 
L 445.666182 169.807158 
L 445.666182 171.807158 
z
" clip-path="url(#pd1cd67ebeb)" style="fill: #ff7f0e; fill-opacity: 0.5; stroke: #ff7f0e; stroke-opacity: 0.5; stroke-linejoin: miter"/>
      <path d="M 447.666182 244.07174 
L 445.666182 243.07174 
L 445.666182 245.07174 
z
" clip-path="url(#pd1cd67ebeb)" style="fill: #ff7f0e; fill-opacity: 0.5; stroke: #ff7f0e; stroke-opacity: 0.5; stroke-linejoin: miter"/>
      <path d="M 447.666182 228.108769 
L 445.666182 227.108769 
L 445.666182 229.108769 
z
" clip-path="url(#pd1cd67ebeb)" style="fill: #ff7f0e; fill-opacity: 0.5; stroke: #ff7f0e; stroke-opacity: 0.5; stroke-linejoin: miter"/>
      <path d="M 389.34593 141.599857 
L 391.34593 142.599857 
L 391.34593 140.599857 
z
" clip-path="url(#pd1cd67ebeb)" style="fill: #2ca02c; fill-opacity: 0.5; stroke: #2ca02c; stroke-opacity: 0.5; stroke-linejoin: miter"/>
      <path d="M 389.34593 66.922384 
L 391.34593 67.922384 
L 391.34593 65.922384 
z
" clip-path="url(#pd1cd67ebeb)" style="fill: #2ca02c; fill-opacity: 0.5; stroke: #2ca02c; stroke-opacity: 0.5; stroke-linejoin: miter"/>
      <path d="M 389.34593 74.402947 
L 391.34593 75.402947 
L 391.34593 73.402947 
z
" clip-path="url(#pd1cd67ebeb)" style="fill: #2ca02c; fill-opacity: 0.5; stroke: #2ca02c; stroke-opacity: 0.5; stroke-linejoin: miter"/>
      <path d="M 389.34593 39.007206 
L 391.34593 40.007206 
L 391.34593 38.007206 
z
" clip-path="url(#pd1cd67ebeb)" style="fill: #2ca02c; fill-opacity: 0.5; stroke: #2ca02c; stroke-opacity: 0.5; stroke-linejoin: miter"/>
      <path d="M 389.34593 124.792096 
L 391.34593 125.792096 
L 391.34593 123.792096 
z
" clip-path="url(#pd1cd67ebeb)" style="fill: #2ca02c; fill-opacity: 0.5; stroke: #2ca02c; stroke-opacity: 0.5; stroke-linejoin: miter"/>
      <path d="M 389.34593 46.32572 
L 391.34593 47.32572 
L 391.34593 45.32572 
z
" clip-path="url(#pd1cd67ebeb)" style="fill: #2ca02c; fill-opacity: 0.5; stroke: #2ca02c; stroke-opacity: 0.5; stroke-linejoin: miter"/>
      <path d="M 389.34593 99.072593 
L 391.34593 100.072593 
L 391.34593 98.072593 
z
" clip-path="url(#pd1cd67ebeb)" style="fill: #2ca02c; fill-opacity: 0.5; stroke: #2ca02c; stroke-opacity: 0.5; stroke-linejoin: miter"/>
      <path d="M 389.34593 128.528007 
L 391.34593 129.528007 
L 391.34593 127.528007 
z
" clip-path="url(#pd1cd67ebeb)" style="fill: #2ca02c; fill-opacity: 0.5; stroke: #2ca02c; stroke-opacity: 0.5; stroke-linejoin: miter"/>
      <path d="M 389.34593 22.861077 
L 391.34593 23.861077 
L 391.34593 21.861077 
z
" clip-path="url(#pd1cd67ebeb)" style="fill: #2ca02c; fill-opacity: 0.5; stroke: #2ca02c; stroke-opacity: 0.5; stroke-linejoin: miter"/>
      <path d="M 389.34593 296.533244 
L 391.34593 297.533244 
L 391.34593 295.533244 
z
" clip-path="url(#pd1cd67ebeb)" style="fill: #2ca02c; fill-opacity: 0.5; stroke: #2ca02c; stroke-opacity: 0.5; stroke-linejoin: miter"/>
      <g id="patch_6">
       <path d="M 46.965625 318.021875 
L 46.965625 7.2 
" style="fill: none; stroke: #000000; stroke-width: 0.8; stroke-linejoin: miter; stroke-linecap: square"/>
      </g>
     </g>
    </g>
    <defs>
     <clipPath id="pd1cd67ebeb">
      <rect x="46.965625" y="7.2" width="553.034375" height="310.821875"/>
     </clipPath>
    </defs>
   </g>
  </g>
 </g>
</svg>