<?xml version="1.0" encoding="utf-8" standalone="no"?>
<!DOCTYPE svg PUBLIC "-//W3C//DTD SVG 1.1//EN"
  "http://www.w3.org/Graphics/SVG/1.1/DTD/svg11.dtd">
<svg xmlns:xlink="http://www.w3.org/1999/xlink" width="607.2pt" height="338.4pt" viewBox="0 0 607.2 338.4" xmlns="http://www.w3.org/2000/svg" version="1.1">
 <metadata>
  <rdf:RDF xmlns:dc="http://purl.org/dc/elements/1.1/" xmlns:cc="http://creativecommons.org/ns#" xmlns:rdf="http://www.w3.org/1999/02/22-rdf-syntax-ns#">
   <cc:Work>
    <dc:type rdf:resource="http://purl.org/dc/dcmitype/StillImage"/>
    <dc:date>2023-10-30T09:05:44.927304</dc:date>
    <dc:format>image/svg+xml</dc:format>
    <dc:creator>
     <cc:Agent>
      <dc:title>Matplotlib v3.7.2, https://matplotlib.org/</dc:title>
     </cc:Agent>
    </dc:creator>
   </cc:Work>
  </rdf:RDF>
 </metadata>
 <defs>
  <style type="text/css">*{stroke-linejoin: round; stroke-linecap: butt}</style>
 </defs>
 <g id="figure_1">
  <g id="patch_1">
   <path d="M 0 338.4 
L 607.2 338.4 
L 607.2 0 
L 0 0 
z
" style="fill: #ffffff"/>
  </g>
  <g id="axes_1">
   <g id="patch_2">
    <path d="M 43.78125 318.021875 
L 600 318.021875 
L 600 22.318125 
L 43.78125 22.318125 
z
" style="fill: #ffffff"/>
   </g>
   <path d="M 290.098299 151.885952 
L 291.098299 151.917388 
L 292.098299 151.954329 
L 293.098299 152.052075 
L 294.098299 152.084597 
L 295.098299 152.158221 
L 296.098299 152.196787 
L 297.098299 152.2322 
L 298.098299 152.28984 
L 299.098299 152.360226 
L 300.098299 152.41219 
L 301.098299 152.47128 
L 302.098299 152.559601 
L 303.098299 152.605745 
L 304.098299 152.648156 
L 305.098299 152.678649 
L 306.098299 152.704694 
L 307.098299 152.725894 
L 308.098299 152.780195 
L 309.098299 152.808133 
L 310.098299 152.837857 
L 311.098299 152.863252 
L 312.098299 152.874452 
L 313.098299 152.884576 
L 314.098299 152.884372 
L 315.098299 152.874862 
L 316.098299 152.863208 
L 317.098299 152.832179 
L 318.098299 152.821011 
L 319.098299 152.790893 
L 320.098299 152.731117 
L 321.098299 152.693925 
L 322.098299 152.654829 
L 323.098299 152.612389 
L 324.098299 152.579624 
L 325.098299 152.512198 
L 326.098299 152.473072 
L 327.098299 152.430397 
L 328.098299 152.359817 
L 329.098299 152.323426 
L 330.098299 152.265023 
L 331.098299 152.15407 
L 332.098299 152.083412 
L 333.098299 151.970472 
L 334.098299 151.924699 
L 335.098299 151.863416 
L 336.098299 151.814916 
L 337.098299 151.734094 
L 338.098299 151.615575 
L 339.098299 151.545364 
L 340.098299 151.462102 
L 341.098299 151.42896 
L 342.098299 151.377723 
L 343.098299 151.309324 
L 344.098299 151.243109 
L 345.098299 151.166192 
L 346.098299 151.138876 
L 347.098299 151.112399 
L 348.098299 151.089748 
L 349.098299 151.070217 
L 350.098299 151.043823 
L 351.098299 150.994052 
L 352.098299 150.958979 
L 353.682951 150.923113 
" clip-path="url(#p966dffc414)" style="fill: none; stroke: #1f77b4; stroke-opacity: 0.5; stroke-width: 0.2; stroke-linecap: square"/>
   <path d="M 290.098299 126.202109 
L 291.098299 126.233545 
L 292.098299 126.270486 
L 293.098299 126.368232 
L 294.098299 126.400754 
L 295.098299 126.474378 
L 296.098299 126.512944 
L 297.098299 126.548357 
L 298.098299 126.605997 
L 299.098299 126.676383 
L 300.098299 126.728347 
L 301.098299 126.787437 
L 302.098299 126.875758 
L 303.098299 126.921902 
L 304.098299 126.964313 
L 305.098299 126.994806 
L 306.098299 127.020851 
L 307.098299 127.042051 
L 308.098299 127.096352 
L 309.098299 127.12429 
L 310.098299 127.154014 
L 311.098299 127.179409 
L 312.098299 127.190609 
L 313.098299 127.200733 
L 314.098299 127.200529 
L 315.098299 127.191019 
L 316.098299 127.179365 
L 317.098299 127.148336 
L 318.098299 127.137168 
L 319.098299 127.10705 
L 320.098299 127.047273 
L 321.098299 127.010082 
L 322.098299 126.970986 
L 323.098299 126.928546 
L 324.098299 126.895781 
L 325.098299 126.828355 
L 326.098299 126.789229 
L 327.098299 126.746554 
L 328.098299 126.675974 
L 329.098299 126.639583 
L 330.098299 126.58118 
L 331.098299 126.470227 
L 332.098299 126.399569 
L 333.098299 126.286629 
L 334.098299 126.240856 
L 335.098299 126.179573 
L 336.098299 126.131073 
L 337.098299 126.050251 
L 338.098299 125.931732 
L 339.098299 125.861521 
L 340.098299 125.778259 
L 341.098299 125.745117 
L 342.098299 125.69388 
L 343.098299 125.625481 
L 344.098299 125.559266 
L 345.098299 125.482349 
L 346.098299 125.455033 
L 347.098299 125.428556 
L 348.098299 125.405905 
L 349.098299 125.386374 
L 350.098299 125.35998 
L 351.098299 125.310209 
L 352.098299 125.275136 
L 353.682951 125.23927 
" clip-path="url(#p966dffc414)" style="fill: none; stroke: #1f77b4; stroke-opacity: 0.5; stroke-width: 0.2; stroke-linecap: square"/>
   <path d="M 290.098299 139.803694 
L 291.098299 139.83513 
L 292.098299 139.872071 
L 293.098299 139.969817 
L 294.098299 140.002339 
L 295.098299 140.075964 
L 296.098299 140.114529 
L 297.098299 140.149942 
L 298.098299 140.207582 
L 299.098299 140.277968 
L 300.098299 140.329933 
L 301.098299 140.389022 
L 302.098299 140.477343 
L 303.098299 140.523488 
L 304.098299 140.565899 
L 305.098299 140.596391 
L 306.098299 140.622436 
L 307.098299 140.643636 
L 308.098299 140.697937 
L 309.098299 140.725875 
L 310.098299 140.755599 
L 311.098299 140.780994 
L 312.098299 140.792194 
L 313.098299 140.802318 
L 314.098299 140.802114 
L 315.098299 140.792604 
L 316.098299 140.78095 
L 317.098299 140.749921 
L 318.098299 140.738753 
L 319.098299 140.708636 
L 320.098299 140.648859 
L 321.098299 140.611667 
L 322.098299 140.572571 
L 323.098299 140.530131 
L 324.098299 140.497366 
L 325.098299 140.42994 
L 326.098299 140.390814 
L 327.098299 140.348139 
L 328.098299 140.277559 
L 329.098299 140.241168 
L 330.098299 140.182765 
L 331.098299 140.071812 
L 332.098299 140.001154 
L 333.098299 139.888214 
L 334.098299 139.842441 
L 335.098299 139.781158 
L 336.098299 139.732659 
L 337.098299 139.651836 
L 338.098299 139.533317 
L 339.098299 139.463106 
L 340.098299 139.379844 
L 341.098299 139.346702 
L 342.098299 139.295465 
L 343.098299 139.227066 
L 344.098299 139.160851 
L 345.098299 139.083934 
L 346.098299 139.056618 
L 347.098299 139.030141 
L 348.098299 139.00749 
L 349.098299 138.987959 
L 350.098299 138.961565 
L 351.098299 138.911794 
L 352.098299 138.876721 
L 353.682951 138.840855 
" clip-path="url(#p966dffc414)" style="fill: none; stroke: #1f77b4; stroke-opacity: 0.5; stroke-width: 0.2; stroke-linecap: square"/>
   <path d="M 290.098299 138.250533 
L 291.098299 138.281969 
L 292.098299 138.318909 
L 293.098299 138.416656 
L 294.098299 138.449177 
L 295.098299 138.522802 
L 296.098299 138.561368 
L 297.098299 138.596781 
L 298.098299 138.654421 
L 299.098299 138.724807 
L 300.098299 138.776771 
L 301.098299 138.835861 
L 302.098299 138.924182 
L 303.098299 138.970326 
L 304.098299 139.012737 
L 305.098299 139.04323 
L 306.098299 139.069275 
L 307.098299 139.090475 
L 308.098299 139.144776 
L 309.098299 139.172714 
L 310.098299 139.202438 
L 311.098299 139.227832 
L 312.098299 139.239033 
L 313.098299 139.249157 
L 314.098299 139.248952 
L 315.098299 139.239442 
L 316.098299 139.227789 
L 317.098299 139.19676 
L 318.098299 139.185592 
L 319.098299 139.155474 
L 320.098299 139.095697 
L 321.098299 139.058506 
L 322.098299 139.01941 
L 323.098299 138.97697 
L 324.098299 138.944205 
L 325.098299 138.876778 
L 326.098299 138.837653 
L 327.098299 138.794978 
L 328.098299 138.724397 
L 329.098299 138.688006 
L 330.098299 138.629603 
L 331.098299 138.518651 
L 332.098299 138.447992 
L 333.098299 138.335053 
L 334.098299 138.28928 
L 335.098299 138.227996 
L 336.098299 138.179497 
L 337.098299 138.098674 
L 338.098299 137.980156 
L 339.098299 137.909945 
L 340.098299 137.826682 
L 341.098299 137.793541 
L 342.098299 137.742303 
L 343.098299 137.673905 
L 344.098299 137.60769 
L 345.098299 137.530773 
L 346.098299 137.503457 
L 347.098299 137.47698 
L 348.098299 137.454329 
L 349.098299 137.434798 
L 350.098299 137.408404 
L 351.098299 137.358633 
L 352.098299 137.32356 
L 353.682951 137.287694 
" clip-path="url(#p966dffc414)" style="fill: none; stroke: #1f77b4; stroke-opacity: 0.5; stroke-width: 0.2; stroke-linecap: square"/>
   <path d="M 290.098299 182.9001 
L 291.098299 182.931537 
L 292.098299 182.968477 
L 293.098299 183.066224 
L 294.098299 183.098745 
L 295.098299 183.17237 
L 296.098299 183.210935 
L 297.098299 183.246349 
L 298.098299 183.303989 
L 299.098299 183.374375 
L 300.098299 183.426339 
L 301.098299 183.485429 
L 302.098299 183.57375 
L 303.098299 183.619894 
L 304.098299 183.662305 
L 305.098299 183.692798 
L 306.098299 183.718843 
L 307.098299 183.740043 
L 308.098299 183.794344 
L 309.098299 183.822281 
L 310.098299 183.852005 
L 311.098299 183.8774 
L 312.098299 183.888601 
L 313.098299 183.898724 
L 314.098299 183.89852 
L 315.098299 183.88901 
L 316.098299 183.877357 
L 317.098299 183.846327 
L 318.098299 183.835159 
L 319.098299 183.805042 
L 320.098299 183.745265 
L 321.098299 183.708073 
L 322.098299 183.668977 
L 323.098299 183.626538 
L 324.098299 183.593773 
L 325.098299 183.526346 
L 326.098299 183.48722 
L 327.098299 183.444546 
L 328.098299 183.373965 
L 329.098299 183.337574 
L 330.098299 183.279171 
L 331.098299 183.168219 
L 332.098299 183.09756 
L 333.098299 182.98462 
L 334.098299 182.938847 
L 335.098299 182.877564 
L 336.098299 182.829065 
L 337.098299 182.748242 
L 338.098299 182.629723 
L 339.098299 182.559513 
L 340.098299 182.47625 
L 341.098299 182.443108 
L 342.098299 182.391871 
L 343.098299 182.323473 
L 344.098299 182.257257 
L 345.098299 182.18034 
L 346.098299 182.153025 
L 347.098299 182.126547 
L 348.098299 182.103897 
L 349.098299 182.084365 
L 350.098299 182.057971 
L 351.098299 182.008201 
L 352.098299 181.973127 
L 353.682951 181.937262 
" clip-path="url(#p966dffc414)" style="fill: none; stroke: #1f77b4; stroke-opacity: 0.5; stroke-width: 0.2; stroke-linecap: square"/>
   <path d="M 290.098299 188.706167 
L 291.098299 188.737603 
L 292.098299 188.774544 
L 293.098299 188.87229 
L 294.098299 188.904812 
L 295.098299 188.978437 
L 296.098299 189.017002 
L 297.098299 189.052415 
L 298.098299 189.110055 
L 299.098299 189.180441 
L 300.098299 189.232406 
L 301.098299 189.291495 
L 302.098299 189.379816 
L 303.098299 189.425961 
L 304.098299 189.468372 
L 305.098299 189.498864 
L 306.098299 189.524909 
L 307.098299 189.546109 
L 308.098299 189.60041 
L 309.098299 189.628348 
L 310.098299 189.658072 
L 311.098299 189.683467 
L 312.098299 189.694667 
L 313.098299 189.704791 
L 314.098299 189.704587 
L 315.098299 189.695077 
L 316.098299 189.683423 
L 317.098299 189.652394 
L 318.098299 189.641226 
L 319.098299 189.611109 
L 320.098299 189.551332 
L 321.098299 189.51414 
L 322.098299 189.475044 
L 323.098299 189.432604 
L 324.098299 189.399839 
L 325.098299 189.332413 
L 326.098299 189.293287 
L 327.098299 189.250612 
L 328.098299 189.180032 
L 329.098299 189.143641 
L 330.098299 189.085238 
L 331.098299 188.974285 
L 332.098299 188.903627 
L 333.098299 188.790687 
L 334.098299 188.744914 
L 335.098299 188.683631 
L 336.098299 188.635132 
L 337.098299 188.554309 
L 338.098299 188.43579 
L 339.098299 188.365579 
L 340.098299 188.282317 
L 341.098299 188.249175 
L 342.098299 188.197938 
L 343.098299 188.129539 
L 344.098299 188.063324 
L 345.098299 187.986407 
L 346.098299 187.959091 
L 347.098299 187.932614 
L 348.098299 187.909963 
L 349.098299 187.890432 
L 350.098299 187.864038 
L 351.098299 187.814267 
L 352.098299 187.779194 
L 353.682951 187.743328 
" clip-path="url(#p966dffc414)" style="fill: none; stroke: #1f77b4; stroke-opacity: 0.5; stroke-width: 0.2; stroke-linecap: square"/>
   <path d="M 290.098299 180.229239 
L 291.098299 180.260676 
L 292.098299 180.297616 
L 293.098299 180.395363 
L 294.098299 180.427884 
L 295.098299 180.501509 
L 296.098299 180.540074 
L 297.098299 180.575488 
L 298.098299 180.633128 
L 299.098299 180.703514 
L 300.098299 180.755478 
L 301.098299 180.814568 
L 302.098299 180.902889 
L 303.098299 180.949033 
L 304.098299 180.991444 
L 305.098299 181.021937 
L 306.098299 181.047981 
L 307.098299 181.069182 
L 308.098299 181.123483 
L 309.098299 181.15142 
L 310.098299 181.181144 
L 311.098299 181.206539 
L 312.098299 181.217739 
L 313.098299 181.227863 
L 314.098299 181.227659 
L 315.098299 181.218149 
L 316.098299 181.206496 
L 317.098299 181.175466 
L 318.098299 181.164298 
L 319.098299 181.134181 
L 320.098299 181.074404 
L 321.098299 181.037212 
L 322.098299 180.998116 
L 323.098299 180.955677 
L 324.098299 180.922912 
L 325.098299 180.855485 
L 326.098299 180.816359 
L 327.098299 180.773685 
L 328.098299 180.703104 
L 329.098299 180.666713 
L 330.098299 180.60831 
L 331.098299 180.497357 
L 332.098299 180.426699 
L 333.098299 180.313759 
L 334.098299 180.267986 
L 335.098299 180.206703 
L 336.098299 180.158204 
L 337.098299 180.077381 
L 338.098299 179.958862 
L 339.098299 179.888652 
L 340.098299 179.805389 
L 341.098299 179.772247 
L 342.098299 179.72101 
L 343.098299 179.652612 
L 344.098299 179.586396 
L 345.098299 179.509479 
L 346.098299 179.482164 
L 347.098299 179.455686 
L 348.098299 179.433036 
L 349.098299 179.413504 
L 350.098299 179.38711 
L 351.098299 179.337339 
L 352.098299 179.302266 
L 353.682951 179.266401 
" clip-path="url(#p966dffc414)" style="fill: none; stroke: #1f77b4; stroke-opacity: 0.5; stroke-width: 0.2; stroke-linecap: square"/>
   <path d="M 290.098299 172.859137 
L 291.098299 172.890573 
L 292.098299 172.927514 
L 293.098299 173.02526 
L 294.098299 173.057782 
L 295.098299 173.131406 
L 296.098299 173.169972 
L 297.098299 173.205385 
L 298.098299 173.263025 
L 299.098299 173.333411 
L 300.098299 173.385376 
L 301.098299 173.444465 
L 302.098299 173.532786 
L 303.098299 173.578931 
L 304.098299 173.621342 
L 305.098299 173.651834 
L 306.098299 173.677879 
L 307.098299 173.699079 
L 308.098299 173.75338 
L 309.098299 173.781318 
L 310.098299 173.811042 
L 311.098299 173.836437 
L 312.098299 173.847637 
L 313.098299 173.857761 
L 314.098299 173.857557 
L 315.098299 173.848047 
L 316.098299 173.836393 
L 317.098299 173.805364 
L 318.098299 173.794196 
L 319.098299 173.764079 
L 320.098299 173.704302 
L 321.098299 173.66711 
L 322.098299 173.628014 
L 323.098299 173.585574 
L 324.098299 173.552809 
L 325.098299 173.485383 
L 326.098299 173.446257 
L 327.098299 173.403582 
L 328.098299 173.333002 
L 329.098299 173.296611 
L 330.098299 173.238208 
L 331.098299 173.127255 
L 332.098299 173.056597 
L 333.098299 172.943657 
L 334.098299 172.897884 
L 335.098299 172.836601 
L 336.098299 172.788102 
L 337.098299 172.707279 
L 338.098299 172.58876 
L 339.098299 172.518549 
L 340.098299 172.435287 
L 341.098299 172.402145 
L 342.098299 172.350908 
L 343.098299 172.282509 
L 344.098299 172.216294 
L 345.098299 172.139377 
L 346.098299 172.112061 
L 347.098299 172.085584 
L 348.098299 172.062933 
L 349.098299 172.043402 
L 350.098299 172.017008 
L 351.098299 171.967237 
L 352.098299 171.932164 
L 353.682951 171.896298 
" clip-path="url(#p966dffc414)" style="fill: none; stroke: #1f77b4; stroke-opacity: 0.5; stroke-width: 0.2; stroke-linecap: square"/>
   <path d="M 290.098299 142.560944 
L 291.098299 142.592381 
L 292.098299 142.629321 
L 293.098299 142.727067 
L 294.098299 142.759589 
L 295.098299 142.833214 
L 296.098299 142.871779 
L 297.098299 142.907192 
L 298.098299 142.964832 
L 299.098299 143.035219 
L 300.098299 143.087183 
L 301.098299 143.146273 
L 302.098299 143.234594 
L 303.098299 143.280738 
L 304.098299 143.323149 
L 305.098299 143.353641 
L 306.098299 143.379686 
L 307.098299 143.400887 
L 308.098299 143.455188 
L 309.098299 143.483125 
L 310.098299 143.512849 
L 311.098299 143.538244 
L 312.098299 143.549444 
L 313.098299 143.559568 
L 314.098299 143.559364 
L 315.098299 143.549854 
L 316.098299 143.538201 
L 317.098299 143.507171 
L 318.098299 143.496003 
L 319.098299 143.465886 
L 320.098299 143.406109 
L 321.098299 143.368917 
L 322.098299 143.329821 
L 323.098299 143.287382 
L 324.098299 143.254617 
L 325.098299 143.18719 
L 326.098299 143.148064 
L 327.098299 143.10539 
L 328.098299 143.034809 
L 329.098299 142.998418 
L 330.098299 142.940015 
L 331.098299 142.829062 
L 332.098299 142.758404 
L 333.098299 142.645464 
L 334.098299 142.599691 
L 335.098299 142.538408 
L 336.098299 142.489909 
L 337.098299 142.409086 
L 338.098299 142.290567 
L 339.098299 142.220357 
L 340.098299 142.137094 
L 341.098299 142.103952 
L 342.098299 142.052715 
L 343.098299 141.984317 
L 344.098299 141.918101 
L 345.098299 141.841184 
L 346.098299 141.813869 
L 347.098299 141.787391 
L 348.098299 141.76474 
L 349.098299 141.745209 
L 350.098299 141.718815 
L 351.098299 141.669044 
L 352.098299 141.633971 
L 353.682951 141.598106 
" clip-path="url(#p966dffc414)" style="fill: none; stroke: #1f77b4; stroke-opacity: 0.5; stroke-width: 0.2; stroke-linecap: square"/>
   <path d="M 290.098299 90.109354 
L 291.098299 90.140791 
L 292.098299 90.177731 
L 293.098299 90.275478 
L 294.098299 90.307999 
L 295.098299 90.381624 
L 296.098299 90.42019 
L 297.098299 90.455603 
L 298.098299 90.513243 
L 299.098299 90.583629 
L 300.098299 90.635593 
L 301.098299 90.694683 
L 302.098299 90.783004 
L 303.098299 90.829148 
L 304.098299 90.871559 
L 305.098299 90.902052 
L 306.098299 90.928097 
L 307.098299 90.949297 
L 308.098299 91.003598 
L 309.098299 91.031535 
L 310.098299 91.061259 
L 311.098299 91.086654 
L 312.098299 91.097855 
L 313.098299 91.107979 
L 314.098299 91.107774 
L 315.098299 91.098264 
L 316.098299 91.086611 
L 317.098299 91.055581 
L 318.098299 91.044414 
L 319.098299 91.014296 
L 320.098299 90.954519 
L 321.098299 90.917328 
L 322.098299 90.878231 
L 323.098299 90.835792 
L 324.098299 90.803027 
L 325.098299 90.7356 
L 326.098299 90.696474 
L 327.098299 90.6538 
L 328.098299 90.583219 
L 329.098299 90.546828 
L 330.098299 90.488425 
L 331.098299 90.377473 
L 332.098299 90.306814 
L 333.098299 90.193874 
L 334.098299 90.148102 
L 335.098299 90.086818 
L 336.098299 90.038319 
L 337.098299 89.957496 
L 338.098299 89.838977 
L 339.098299 89.768767 
L 340.098299 89.685504 
L 341.098299 89.652363 
L 342.098299 89.601125 
L 343.098299 89.532727 
L 344.098299 89.466511 
L 345.098299 89.389594 
L 346.098299 89.362279 
L 347.098299 89.335801 
L 348.098299 89.313151 
L 349.098299 89.293619 
L 350.098299 89.267225 
L 351.098299 89.217455 
L 352.098299 89.182381 
L 353.682951 89.146516 
" clip-path="url(#p966dffc414)" style="fill: none; stroke: #1f77b4; stroke-opacity: 0.5; stroke-width: 0.2; stroke-linecap: square"/>
   <path d="M 290.098299 249.881079 
L 291.098299 249.912515 
L 292.098299 249.949455 
L 293.098299 250.047202 
L 294.098299 250.079723 
L 295.098299 250.153348 
L 296.098299 250.191914 
L 297.098299 250.227327 
L 298.098299 250.284967 
L 299.098299 250.355353 
L 300.098299 250.407317 
L 301.098299 250.466407 
L 302.098299 250.554728 
L 303.098299 250.600872 
L 304.098299 250.643283 
L 305.098299 250.673776 
L 306.098299 250.699821 
L 307.098299 250.721021 
L 308.098299 250.775322 
L 309.098299 250.80326 
L 310.098299 250.832984 
L 311.098299 250.858378 
L 312.098299 250.869579 
L 313.098299 250.879703 
L 314.098299 250.879498 
L 315.098299 250.869989 
L 316.098299 250.858335 
L 317.098299 250.827306 
L 318.098299 250.816138 
L 319.098299 250.78602 
L 320.098299 250.726243 
L 321.098299 250.689052 
L 322.098299 250.649956 
L 323.098299 250.607516 
L 324.098299 250.574751 
L 325.098299 250.507324 
L 326.098299 250.468199 
L 327.098299 250.425524 
L 328.098299 250.354943 
L 329.098299 250.318553 
L 330.098299 250.260149 
L 331.098299 250.149197 
L 332.098299 250.078538 
L 333.098299 249.965599 
L 334.098299 249.919826 
L 335.098299 249.858543 
L 336.098299 249.810043 
L 337.098299 249.729221 
L 338.098299 249.610702 
L 339.098299 249.540491 
L 340.098299 249.457228 
L 341.098299 249.424087 
L 342.098299 249.372849 
L 343.098299 249.304451 
L 344.098299 249.238236 
L 345.098299 249.161319 
L 346.098299 249.134003 
L 347.098299 249.107526 
L 348.098299 249.084875 
L 349.098299 249.065344 
L 350.098299 249.03895 
L 351.098299 248.989179 
L 352.098299 248.954106 
L 353.682951 248.91824 
" clip-path="url(#p966dffc414)" style="fill: none; stroke: #1f77b4; stroke-opacity: 0.5; stroke-width: 0.2; stroke-linecap: square"/>
   <path d="M 290.098299 270.334681 
L 291.098299 270.366117 
L 292.098299 270.403057 
L 293.098299 270.500804 
L 294.098299 270.533326 
L 295.098299 270.60695 
L 296.098299 270.645516 
L 297.098299 270.680929 
L 298.098299 270.738569 
L 299.098299 270.808955 
L 300.098299 270.860919 
L 301.098299 270.920009 
L 302.098299 271.00833 
L 303.098299 271.054474 
L 304.098299 271.096885 
L 305.098299 271.127378 
L 306.098299 271.153423 
L 307.098299 271.174623 
L 308.098299 271.228924 
L 309.098299 271.256862 
L 310.098299 271.286586 
L 311.098299 271.311981 
L 312.098299 271.323181 
L 313.098299 271.333305 
L 314.098299 271.333101 
L 315.098299 271.323591 
L 316.098299 271.311937 
L 317.098299 271.280908 
L 318.098299 271.26974 
L 319.098299 271.239622 
L 320.098299 271.179845 
L 321.098299 271.142654 
L 322.098299 271.103558 
L 323.098299 271.061118 
L 324.098299 271.028353 
L 325.098299 270.960927 
L 326.098299 270.921801 
L 327.098299 270.879126 
L 328.098299 270.808546 
L 329.098299 270.772155 
L 330.098299 270.713752 
L 331.098299 270.602799 
L 332.098299 270.532141 
L 333.098299 270.419201 
L 334.098299 270.373428 
L 335.098299 270.312145 
L 336.098299 270.263645 
L 337.098299 270.182823 
L 338.098299 270.064304 
L 339.098299 269.994093 
L 340.098299 269.910831 
L 341.098299 269.877689 
L 342.098299 269.826452 
L 343.098299 269.758053 
L 344.098299 269.691838 
L 345.098299 269.614921 
L 346.098299 269.587605 
L 347.098299 269.561128 
L 348.098299 269.538477 
L 349.098299 269.518946 
L 350.098299 269.492552 
L 351.098299 269.442781 
L 352.098299 269.407708 
L 353.682951 269.371842 
" clip-path="url(#p966dffc414)" style="fill: none; stroke: #1f77b4; stroke-opacity: 0.5; stroke-width: 0.2; stroke-linecap: square"/>
   <path d="M 290.098299 295.554025 
L 291.098299 295.585461 
L 292.098299 295.622402 
L 293.098299 295.720148 
L 294.098299 295.75267 
L 295.098299 295.826295 
L 296.098299 295.86486 
L 297.098299 295.900273 
L 298.098299 295.957913 
L 299.098299 296.028299 
L 300.098299 296.080264 
L 301.098299 296.139353 
L 302.098299 296.227674 
L 303.098299 296.273819 
L 304.098299 296.31623 
L 305.098299 296.346722 
L 306.098299 296.372767 
L 307.098299 296.393967 
L 308.098299 296.448268 
L 309.098299 296.476206 
L 310.098299 296.50593 
L 311.098299 296.531325 
L 312.098299 296.542525 
L 313.098299 296.552649 
L 314.098299 296.552445 
L 315.098299 296.542935 
L 316.098299 296.531281 
L 317.098299 296.500252 
L 318.098299 296.489084 
L 319.098299 296.458967 
L 320.098299 296.39919 
L 321.098299 296.361998 
L 322.098299 296.322902 
L 323.098299 296.280462 
L 324.098299 296.247697 
L 325.098299 296.180271 
L 326.098299 296.141145 
L 327.098299 296.09847 
L 328.098299 296.02789 
L 329.098299 295.991499 
L 330.098299 295.933096 
L 331.098299 295.822143 
L 332.098299 295.751485 
L 333.098299 295.638545 
L 334.098299 295.592772 
L 335.098299 295.531489 
L 336.098299 295.48299 
L 337.098299 295.402167 
L 338.098299 295.283648 
L 339.098299 295.213437 
L 340.098299 295.130175 
L 341.098299 295.097033 
L 342.098299 295.045796 
L 343.098299 294.977397 
L 344.098299 294.911182 
L 345.098299 294.834265 
L 346.098299 294.80695 
L 347.098299 294.780472 
L 348.098299 294.757821 
L 349.098299 294.73829 
L 350.098299 294.711896 
L 351.098299 294.662125 
L 352.098299 294.627052 
L 353.682951 294.591186 
" clip-path="url(#p966dffc414)" style="fill: none; stroke: #1f77b4; stroke-opacity: 0.5; stroke-width: 0.2; stroke-linecap: square"/>
   <path d="M 290.098299 266.306878 
L 291.098299 266.338314 
L 292.098299 266.375255 
L 293.098299 266.473001 
L 294.098299 266.505523 
L 295.098299 266.579147 
L 296.098299 266.617713 
L 297.098299 266.653126 
L 298.098299 266.710766 
L 299.098299 266.781152 
L 300.098299 266.833116 
L 301.098299 266.892206 
L 302.098299 266.980527 
L 303.098299 267.026672 
L 304.098299 267.069082 
L 305.098299 267.099575 
L 306.098299 267.12562 
L 307.098299 267.14682 
L 308.098299 267.201121 
L 309.098299 267.229059 
L 310.098299 267.258783 
L 311.098299 267.284178 
L 312.098299 267.295378 
L 313.098299 267.305502 
L 314.098299 267.305298 
L 315.098299 267.295788 
L 316.098299 267.284134 
L 317.098299 267.253105 
L 318.098299 267.241937 
L 319.098299 267.211819 
L 320.098299 267.152043 
L 321.098299 267.114851 
L 322.098299 267.075755 
L 323.098299 267.033315 
L 324.098299 267.00055 
L 325.098299 266.933124 
L 326.098299 266.893998 
L 327.098299 266.851323 
L 328.098299 266.780743 
L 329.098299 266.744352 
L 330.098299 266.685949 
L 331.098299 266.574996 
L 332.098299 266.504338 
L 333.098299 266.391398 
L 334.098299 266.345625 
L 335.098299 266.284342 
L 336.098299 266.235842 
L 337.098299 266.15502 
L 338.098299 266.036501 
L 339.098299 265.96629 
L 340.098299 265.883028 
L 341.098299 265.849886 
L 342.098299 265.798649 
L 343.098299 265.73025 
L 344.098299 265.664035 
L 345.098299 265.587118 
L 346.098299 265.559802 
L 347.098299 265.533325 
L 348.098299 265.510674 
L 349.098299 265.491143 
L 350.098299 265.464749 
L 351.098299 265.414978 
L 352.098299 265.379905 
L 353.682951 265.344039 
" clip-path="url(#p966dffc414)" style="fill: none; stroke: #1f77b4; stroke-opacity: 0.5; stroke-width: 0.2; stroke-linecap: square"/>
   <path d="M 290.098299 253.4507 
L 291.098299 253.482136 
L 292.098299 253.519077 
L 293.098299 253.616823 
L 294.098299 253.649345 
L 295.098299 253.72297 
L 296.098299 253.761535 
L 297.098299 253.796948 
L 298.098299 253.854588 
L 299.098299 253.924974 
L 300.098299 253.976939 
L 301.098299 254.036028 
L 302.098299 254.124349 
L 303.098299 254.170494 
L 304.098299 254.212905 
L 305.098299 254.243397 
L 306.098299 254.269442 
L 307.098299 254.290642 
L 308.098299 254.344943 
L 309.098299 254.372881 
L 310.098299 254.402605 
L 311.098299 254.428 
L 312.098299 254.4392 
L 313.098299 254.449324 
L 314.098299 254.44912 
L 315.098299 254.43961 
L 316.098299 254.427956 
L 317.098299 254.396927 
L 318.098299 254.385759 
L 319.098299 254.355642 
L 320.098299 254.295865 
L 321.098299 254.258673 
L 322.098299 254.219577 
L 323.098299 254.177137 
L 324.098299 254.144372 
L 325.098299 254.076946 
L 326.098299 254.03782 
L 327.098299 253.995145 
L 328.098299 253.924565 
L 329.098299 253.888174 
L 330.098299 253.829771 
L 331.098299 253.718818 
L 332.098299 253.64816 
L 333.098299 253.53522 
L 334.098299 253.489447 
L 335.098299 253.428164 
L 336.098299 253.379665 
L 337.098299 253.298842 
L 338.098299 253.180323 
L 339.098299 253.110112 
L 340.098299 253.02685 
L 341.098299 252.993708 
L 342.098299 252.942471 
L 343.098299 252.874072 
L 344.098299 252.807857 
L 345.098299 252.73094 
L 346.098299 252.703624 
L 347.098299 252.677147 
L 348.098299 252.654496 
L 349.098299 252.634965 
L 350.098299 252.608571 
L 351.098299 252.5588 
L 352.098299 252.523727 
L 353.682951 252.487861 
" clip-path="url(#p966dffc414)" style="fill: none; stroke: #1f77b4; stroke-opacity: 0.5; stroke-width: 0.2; stroke-linecap: square"/>
   <path d="M 290.098299 256.631824 
L 291.098299 256.663261 
L 292.098299 256.700201 
L 293.098299 256.797948 
L 294.098299 256.830469 
L 295.098299 256.904094 
L 296.098299 256.94266 
L 297.098299 256.978073 
L 298.098299 257.035713 
L 299.098299 257.106099 
L 300.098299 257.158063 
L 301.098299 257.217153 
L 302.098299 257.305474 
L 303.098299 257.351618 
L 304.098299 257.394029 
L 305.098299 257.424522 
L 306.098299 257.450567 
L 307.098299 257.471767 
L 308.098299 257.526068 
L 309.098299 257.554005 
L 310.098299 257.583729 
L 311.098299 257.609124 
L 312.098299 257.620325 
L 313.098299 257.630448 
L 314.098299 257.630244 
L 315.098299 257.620734 
L 316.098299 257.609081 
L 317.098299 257.578051 
L 318.098299 257.566884 
L 319.098299 257.536766 
L 320.098299 257.476989 
L 321.098299 257.439798 
L 322.098299 257.400701 
L 323.098299 257.358262 
L 324.098299 257.325497 
L 325.098299 257.25807 
L 326.098299 257.218944 
L 327.098299 257.17627 
L 328.098299 257.105689 
L 329.098299 257.069298 
L 330.098299 257.010895 
L 331.098299 256.899943 
L 332.098299 256.829284 
L 333.098299 256.716344 
L 334.098299 256.670572 
L 335.098299 256.609288 
L 336.098299 256.560789 
L 337.098299 256.479966 
L 338.098299 256.361447 
L 339.098299 256.291237 
L 340.098299 256.207974 
L 341.098299 256.174832 
L 342.098299 256.123595 
L 343.098299 256.055197 
L 344.098299 255.988981 
L 345.098299 255.912064 
L 346.098299 255.884749 
L 347.098299 255.858271 
L 348.098299 255.835621 
L 349.098299 255.816089 
L 350.098299 255.789695 
L 351.098299 255.739925 
L 352.098299 255.704851 
L 353.682951 255.668986 
" clip-path="url(#p966dffc414)" style="fill: none; stroke: #1f77b4; stroke-opacity: 0.5; stroke-width: 0.2; stroke-linecap: square"/>
   <path d="M 290.098299 263.790421 
L 291.098299 263.821857 
L 292.098299 263.858798 
L 293.098299 263.956544 
L 294.098299 263.989066 
L 295.098299 264.062691 
L 296.098299 264.101256 
L 297.098299 264.136669 
L 298.098299 264.194309 
L 299.098299 264.264696 
L 300.098299 264.31666 
L 301.098299 264.37575 
L 302.098299 264.46407 
L 303.098299 264.510215 
L 304.098299 264.552626 
L 305.098299 264.583118 
L 306.098299 264.609163 
L 307.098299 264.630363 
L 308.098299 264.684665 
L 309.098299 264.712602 
L 310.098299 264.742326 
L 311.098299 264.767721 
L 312.098299 264.778921 
L 313.098299 264.789045 
L 314.098299 264.788841 
L 315.098299 264.779331 
L 316.098299 264.767677 
L 317.098299 264.736648 
L 318.098299 264.72548 
L 319.098299 264.695363 
L 320.098299 264.635586 
L 321.098299 264.598394 
L 322.098299 264.559298 
L 323.098299 264.516858 
L 324.098299 264.484093 
L 325.098299 264.416667 
L 326.098299 264.377541 
L 327.098299 264.334867 
L 328.098299 264.264286 
L 329.098299 264.227895 
L 330.098299 264.169492 
L 331.098299 264.058539 
L 332.098299 263.987881 
L 333.098299 263.874941 
L 334.098299 263.829168 
L 335.098299 263.767885 
L 336.098299 263.719386 
L 337.098299 263.638563 
L 338.098299 263.520044 
L 339.098299 263.449833 
L 340.098299 263.366571 
L 341.098299 263.333429 
L 342.098299 263.282192 
L 343.098299 263.213794 
L 344.098299 263.147578 
L 345.098299 263.070661 
L 346.098299 263.043346 
L 347.098299 263.016868 
L 348.098299 262.994217 
L 349.098299 262.974686 
L 350.098299 262.948292 
L 351.098299 262.898521 
L 352.098299 262.863448 
L 353.682951 262.827582 
" clip-path="url(#p966dffc414)" style="fill: none; stroke: #1f77b4; stroke-opacity: 0.5; stroke-width: 0.2; stroke-linecap: square"/>
   <path d="M 290.098299 224.281705 
L 291.098299 224.313142 
L 292.098299 224.350082 
L 293.098299 224.447829 
L 294.098299 224.48035 
L 295.098299 224.553975 
L 296.098299 224.592541 
L 297.098299 224.627954 
L 298.098299 224.685594 
L 299.098299 224.75598 
L 300.098299 224.807944 
L 301.098299 224.867034 
L 302.098299 224.955355 
L 303.098299 225.001499 
L 304.098299 225.04391 
L 305.098299 225.074403 
L 306.098299 225.100448 
L 307.098299 225.121648 
L 308.098299 225.175949 
L 309.098299 225.203886 
L 310.098299 225.23361 
L 311.098299 225.259005 
L 312.098299 225.270206 
L 313.098299 225.280329 
L 314.098299 225.280125 
L 315.098299 225.270615 
L 316.098299 225.258962 
L 317.098299 225.227932 
L 318.098299 225.216765 
L 319.098299 225.186647 
L 320.098299 225.12687 
L 321.098299 225.089679 
L 322.098299 225.050582 
L 323.098299 225.008143 
L 324.098299 224.975378 
L 325.098299 224.907951 
L 326.098299 224.868825 
L 327.098299 224.826151 
L 328.098299 224.75557 
L 329.098299 224.719179 
L 330.098299 224.660776 
L 331.098299 224.549824 
L 332.098299 224.479165 
L 333.098299 224.366225 
L 334.098299 224.320453 
L 335.098299 224.259169 
L 336.098299 224.21067 
L 337.098299 224.129847 
L 338.098299 224.011328 
L 339.098299 223.941118 
L 340.098299 223.857855 
L 341.098299 223.824713 
L 342.098299 223.773476 
L 343.098299 223.705078 
L 344.098299 223.638862 
L 345.098299 223.561945 
L 346.098299 223.53463 
L 347.098299 223.508152 
L 348.098299 223.485502 
L 349.098299 223.46597 
L 350.098299 223.439576 
L 351.098299 223.389806 
L 352.098299 223.354732 
L 353.682951 223.318867 
" clip-path="url(#p966dffc414)" style="fill: none; stroke: #1f77b4; stroke-opacity: 0.5; stroke-width: 0.2; stroke-linecap: square"/>
   <path d="M 290.098299 204.919371 
L 291.098299 204.950807 
L 292.098299 204.987748 
L 293.098299 205.085494 
L 294.098299 205.118016 
L 295.098299 205.191641 
L 296.098299 205.230206 
L 297.098299 205.265619 
L 298.098299 205.323259 
L 299.098299 205.393645 
L 300.098299 205.44561 
L 301.098299 205.504699 
L 302.098299 205.59302 
L 303.098299 205.639165 
L 304.098299 205.681576 
L 305.098299 205.712068 
L 306.098299 205.738113 
L 307.098299 205.759313 
L 308.098299 205.813614 
L 309.098299 205.841552 
L 310.098299 205.871276 
L 311.098299 205.896671 
L 312.098299 205.907871 
L 313.098299 205.917995 
L 314.098299 205.917791 
L 315.098299 205.908281 
L 316.098299 205.896627 
L 317.098299 205.865598 
L 318.098299 205.85443 
L 319.098299 205.824313 
L 320.098299 205.764536 
L 321.098299 205.727344 
L 322.098299 205.688248 
L 323.098299 205.645808 
L 324.098299 205.613043 
L 325.098299 205.545617 
L 326.098299 205.506491 
L 327.098299 205.463816 
L 328.098299 205.393236 
L 329.098299 205.356845 
L 330.098299 205.298442 
L 331.098299 205.187489 
L 332.098299 205.116831 
L 333.098299 205.003891 
L 334.098299 204.958118 
L 335.098299 204.896835 
L 336.098299 204.848336 
L 337.098299 204.767513 
L 338.098299 204.648994 
L 339.098299 204.578783 
L 340.098299 204.495521 
L 341.098299 204.462379 
L 342.098299 204.411142 
L 343.098299 204.342743 
L 344.098299 204.276528 
L 345.098299 204.199611 
L 346.098299 204.172295 
L 347.098299 204.145818 
L 348.098299 204.123167 
L 349.098299 204.103636 
L 350.098299 204.077242 
L 351.098299 204.027471 
L 352.098299 203.992398 
L 353.682951 203.956532 
" clip-path="url(#p966dffc414)" style="fill: none; stroke: #1f77b4; stroke-opacity: 0.5; stroke-width: 0.2; stroke-linecap: square"/>
   <path d="M 290.098299 280.626643 
L 291.098299 280.658079 
L 292.098299 280.695019 
L 293.098299 280.792766 
L 294.098299 280.825287 
L 295.098299 280.898912 
L 296.098299 280.937478 
L 297.098299 280.972891 
L 298.098299 281.030531 
L 299.098299 281.100917 
L 300.098299 281.152881 
L 301.098299 281.211971 
L 302.098299 281.300292 
L 303.098299 281.346436 
L 304.098299 281.388847 
L 305.098299 281.41934 
L 306.098299 281.445385 
L 307.098299 281.466585 
L 308.098299 281.520886 
L 309.098299 281.548824 
L 310.098299 281.578548 
L 311.098299 281.603942 
L 312.098299 281.615143 
L 313.098299 281.625267 
L 314.098299 281.625062 
L 315.098299 281.615553 
L 316.098299 281.603899 
L 317.098299 281.57287 
L 318.098299 281.561702 
L 319.098299 281.531584 
L 320.098299 281.471807 
L 321.098299 281.434616 
L 322.098299 281.39552 
L 323.098299 281.35308 
L 324.098299 281.320315 
L 325.098299 281.252888 
L 326.098299 281.213763 
L 327.098299 281.171088 
L 328.098299 281.100507 
L 329.098299 281.064117 
L 330.098299 281.005713 
L 331.098299 280.894761 
L 332.098299 280.824102 
L 333.098299 280.711163 
L 334.098299 280.66539 
L 335.098299 280.604107 
L 336.098299 280.555607 
L 337.098299 280.474785 
L 338.098299 280.356266 
L 339.098299 280.286055 
L 340.098299 280.202792 
L 341.098299 280.169651 
L 342.098299 280.118413 
L 343.098299 280.050015 
L 344.098299 279.9838 
L 345.098299 279.906883 
L 346.098299 279.879567 
L 347.098299 279.85309 
L 348.098299 279.830439 
L 349.098299 279.810908 
L 350.098299 279.784514 
L 351.098299 279.734743 
L 352.098299 279.69967 
L 353.682951 279.663804 
" clip-path="url(#p966dffc414)" style="fill: none; stroke: #1f77b4; stroke-opacity: 0.5; stroke-width: 0.2; stroke-linecap: square"/>
   <g id="patch_3">
    <path d="M 69.06392 22.318125 
L 69.06392 318.021875 
M 284.536112 22.318125 
L 284.536112 318.021875 
" clip-path="url(#p966dffc414)" style="fill: none; stroke: #ffffff; stroke-width: 3; stroke-linejoin: miter"/>
    <path d="M 69.06392 22.318125 
L 69.06392 318.021875 
M 284.536112 22.318125 
L 284.536112 318.021875 
" clip-path="url(#p966dffc414)" style="fill: none; stroke: #1f77b4; stroke-linejoin: miter"/>
    <g id="PolyCollection_1">
     <path d="M 284.536112 22.318125 
L 69.06392 22.318125 
L 69.06392 318.021875 
L 284.536112 318.021875 
L 284.536112 318.021875 
L 284.536112 22.318125 
z
" clip-path="url(#p966dffc414)" style="fill: #1f77b4; fill-opacity: 0.5"/>
    </g>
    <g id="patch_4">
     <path d="M 359.245138 22.318125 
L 359.245138 318.021875 
M 574.71733 22.318125 
L 574.71733 318.021875 
" clip-path="url(#p966dffc414)" style="fill: none; stroke: #ffffff; stroke-width: 3; stroke-linejoin: miter"/>
     <path d="M 359.245138 22.318125 
L 359.245138 318.021875 
M 574.71733 22.318125 
L 574.71733 318.021875 
" clip-path="url(#p966dffc414)" style="fill: none; stroke: #ff7f0e; stroke-linejoin: miter"/>
     <g id="PolyCollection_2">
      <path d="M 574.71733 22.318125 
L 359.245138 22.318125 
L 359.245138 318.021875 
L 574.71733 318.021875 
L 574.71733 318.021875 
L 574.71733 22.318125 
z
" clip-path="url(#p966dffc414)" style="fill: #ff7f0e; fill-opacity: 0.5"/>
     </g>
     <g id="matplotlib.axis_1">
      <g id="xtick_1">
       <g id="line2d_1"/>
       <g id="text_1">
        <!-- deme0 -->
        <g transform="translate(159.42111 329.120312) scale(0.1 -0.1)">
         <defs>
          <path id="DejaVuSans-64" d="M 2906 2969 
L 2906 4863 
L 3481 4863 
L 3481 0 
L 2906 0 
L 2906 525 
Q 2725 213 2448 61 
Q 2172 -91 1784 -91 
Q 1150 -91 751 415 
Q 353 922 353 1747 
Q 353 2572 751 3078 
Q 1150 3584 1784 3584 
Q 2172 3584 2448 3432 
Q 2725 3281 2906 2969 
z
M 947 1747 
Q 947 1113 1208 752 
Q 1469 391 1925 391 
Q 2381 391 2643 752 
Q 2906 1113 2906 1747 
Q 2906 2381 2643 2742 
Q 2381 3103 1925 3103 
Q 1469 3103 1208 2742 
Q 947 2381 947 1747 
z
" transform="scale(0.015625)"/>
          <path id="DejaVuSans-65" d="M 3597 1894 
L 3597 1613 
L 953 1613 
Q 991 1019 1311 708 
Q 1631 397 2203 397 
Q 2534 397 2845 478 
Q 3156 559 3463 722 
L 3463 178 
Q 3153 47 2828 -22 
Q 2503 -91 2169 -91 
Q 1331 -91 842 396 
Q 353 884 353 1716 
Q 353 2575 817 3079 
Q 1281 3584 2069 3584 
Q 2775 3584 3186 3129 
Q 3597 2675 3597 1894 
z
M 3022 2063 
Q 3016 2534 2758 2815 
Q 2500 3097 2075 3097 
Q 1594 3097 1305 2825 
Q 1016 2553 972 2059 
L 3022 2063 
z
" transform="scale(0.015625)"/>
          <path id="DejaVuSans-6d" d="M 3328 2828 
Q 3544 3216 3844 3400 
Q 4144 3584 4550 3584 
Q 5097 3584 5394 3201 
Q 5691 2819 5691 2113 
L 5691 0 
L 5113 0 
L 5113 2094 
Q 5113 2597 4934 2840 
Q 4756 3084 4391 3084 
Q 3944 3084 3684 2787 
Q 3425 2491 3425 1978 
L 3425 0 
L 2847 0 
L 2847 2094 
Q 2847 2600 2669 2842 
Q 2491 3084 2119 3084 
Q 1678 3084 1418 2786 
Q 1159 2488 1159 1978 
L 1159 0 
L 581 0 
L 581 3500 
L 1159 3500 
L 1159 2956 
Q 1356 3278 1631 3431 
Q 1906 3584 2284 3584 
Q 2666 3584 2933 3390 
Q 3200 3197 3328 2828 
z
" transform="scale(0.015625)"/>
          <path id="DejaVuSans-30" d="M 2034 4250 
Q 1547 4250 1301 3770 
Q 1056 3291 1056 2328 
Q 1056 1369 1301 889 
Q 1547 409 2034 409 
Q 2525 409 2770 889 
Q 3016 1369 3016 2328 
Q 3016 3291 2770 3770 
Q 2525 4250 2034 4250 
z
M 2034 4750 
Q 2819 4750 3233 4129 
Q 3647 3509 3647 2328 
Q 3647 1150 3233 529 
Q 2819 -91 2034 -91 
Q 1250 -91 836 529 
Q 422 1150 422 2328 
Q 422 3509 836 4129 
Q 1250 4750 2034 4750 
z
" transform="scale(0.015625)"/>
         </defs>
         <use xlink:href="#DejaVuSans-64"/>
         <use xlink:href="#DejaVuSans-65" x="63.476562"/>
         <use xlink:href="#DejaVuSans-6d" x="125"/>
         <use xlink:href="#DejaVuSans-65" x="222.412109"/>
         <use xlink:href="#DejaVuSans-30" x="283.935547"/>
        </g>
       </g>
      </g>
      <g id="xtick_2">
       <g id="line2d_2"/>
       <g id="text_2">
        <!-- deme1 -->
        <g transform="translate(449.602328 329.120312) scale(0.1 -0.1)">
         <defs>
          <path id="DejaVuSans-31" d="M 794 531 
L 1825 531 
L 1825 4091 
L 703 3866 
L 703 4441 
L 1819 4666 
L 2450 4666 
L 2450 531 
L 3481 531 
L 3481 0 
L 794 0 
L 794 531 
z
" transform="scale(0.015625)"/>
         </defs>
         <use xlink:href="#DejaVuSans-64"/>
         <use xlink:href="#DejaVuSans-65" x="63.476562"/>
         <use xlink:href="#DejaVuSans-6d" x="125"/>
         <use xlink:href="#DejaVuSans-65" x="222.412109"/>
         <use xlink:href="#DejaVuSans-31" x="283.935547"/>
        </g>
       </g>
      </g>
     </g>
     <g id="matplotlib.axis_2">
      <g id="ytick_1">
       <g id="line2d_3">
        <defs>
         <path id="mb0d8fff643" d="M 0 0 
L -3.5 0 
" style="stroke: #000000; stroke-width: 0.8"/>
        </defs>
        <g>
         <use xlink:href="#mb0d8fff643" x="43.78125" y="318.021875" style="stroke: #000000; stroke-width: 0.8"/>
        </g>
       </g>
       <g id="text_3">
        <!-- 0.0 -->
        <g transform="translate(20.878125 321.821094) scale(0.1 -0.1)">
         <defs>
          <path id="DejaVuSans-2e" d="M 684 794 
L 1344 794 
L 1344 0 
L 684 0 
L 684 794 
z
" transform="scale(0.015625)"/>
         </defs>
         <use xlink:href="#DejaVuSans-30"/>
         <use xlink:href="#DejaVuSans-2e" x="63.623047"/>
         <use xlink:href="#DejaVuSans-30" x="95.410156"/>
        </g>
       </g>
      </g>
      <g id="ytick_2">
       <g id="line2d_4">
        <g>
         <use xlink:href="#mb0d8fff643" x="43.78125" y="258.881125" style="stroke: #000000; stroke-width: 0.8"/>
        </g>
       </g>
       <g id="text_4">
        <!-- 0.5 -->
        <g transform="translate(20.878125 262.680344) scale(0.1 -0.1)">
         <defs>
          <path id="DejaVuSans-35" d="M 691 4666 
L 3169 4666 
L 3169 4134 
L 1269 4134 
L 1269 2991 
Q 1406 3038 1543 3061 
Q 1681 3084 1819 3084 
Q 2600 3084 3056 2656 
Q 3513 2228 3513 1497 
Q 3513 744 3044 326 
Q 2575 -91 1722 -91 
Q 1428 -91 1123 -41 
Q 819 9 494 109 
L 494 744 
Q 775 591 1075 516 
Q 1375 441 1709 441 
Q 2250 441 2565 725 
Q 2881 1009 2881 1497 
Q 2881 1984 2565 2268 
Q 2250 2553 1709 2553 
Q 1456 2553 1204 2497 
Q 953 2441 691 2322 
L 691 4666 
z
" transform="scale(0.015625)"/>
         </defs>
         <use xlink:href="#DejaVuSans-30"/>
         <use xlink:href="#DejaVuSans-2e" x="63.623047"/>
         <use xlink:href="#DejaVuSans-35" x="95.410156"/>
        </g>
       </g>
      </g>
      <g id="ytick_3">
       <g id="line2d_5">
        <g>
         <use xlink:href="#mb0d8fff643" x="43.78125" y="199.740375" style="stroke: #000000; stroke-width: 0.8"/>
        </g>
       </g>
       <g id="text_5">
        <!-- 1.0 -->
        <g transform="translate(20.878125 203.539594) scale(0.1 -0.1)">
         <use xlink:href="#DejaVuSans-31"/>
         <use xlink:href="#DejaVuSans-2e" x="63.623047"/>
         <use xlink:href="#DejaVuSans-30" x="95.410156"/>
        </g>
       </g>
      </g>
      <g id="ytick_4">
       <g id="line2d_6">
        <g>
         <use xlink:href="#mb0d8fff643" x="43.78125" y="140.599625" style="stroke: #000000; stroke-width: 0.8"/>
        </g>
       </g>
       <g id="text_6">
        <!-- 1.5 -->
        <g transform="translate(20.878125 144.398844) scale(0.1 -0.1)">
         <use xlink:href="#DejaVuSans-31"/>
         <use xlink:href="#DejaVuSans-2e" x="63.623047"/>
         <use xlink:href="#DejaVuSans-35" x="95.410156"/>
        </g>
       </g>
      </g>
      <g id="ytick_5">
       <g id="line2d_7">
        <g>
         <use xlink:href="#mb0d8fff643" x="43.78125" y="81.458875" style="stroke: #000000; stroke-width: 0.8"/>
        </g>
       </g>
       <g id="text_7">
        <!-- 2.0 -->
        <g transform="translate(20.878125 85.258094) scale(0.1 -0.1)">
         <defs>
          <path id="DejaVuSans-32" d="M 1228 531 
L 3431 531 
L 3431 0 
L 469 0 
L 469 531 
Q 828 903 1448 1529 
Q 2069 2156 2228 2338 
Q 2531 2678 2651 2914 
Q 2772 3150 2772 3378 
Q 2772 3750 2511 3984 
Q 2250 4219 1831 4219 
Q 1534 4219 1204 4116 
Q 875 4013 500 3803 
L 500 4441 
Q 881 4594 1212 4672 
Q 1544 4750 1819 4750 
Q 2544 4750 2975 4387 
Q 3406 4025 3406 3419 
Q 3406 3131 3298 2873 
Q 3191 2616 2906 2266 
Q 2828 2175 2409 1742 
Q 1991 1309 1228 531 
z
" transform="scale(0.015625)"/>
         </defs>
         <use xlink:href="#DejaVuSans-32"/>
         <use xlink:href="#DejaVuSans-2e" x="63.623047"/>
         <use xlink:href="#DejaVuSans-30" x="95.410156"/>
        </g>
       </g>
      </g>
      <g id="ytick_6">
       <g id="line2d_8">
        <g>
         <use xlink:href="#mb0d8fff643" x="43.78125" y="22.318125" style="stroke: #000000; stroke-width: 0.8"/>
        </g>
       </g>
       <g id="text_8">
        <!-- 2.5 -->
        <g transform="translate(20.878125 26.117344) scale(0.1 -0.1)">
         <use xlink:href="#DejaVuSans-32"/>
         <use xlink:href="#DejaVuSans-2e" x="63.623047"/>
         <use xlink:href="#DejaVuSans-35" x="95.410156"/>
        </g>
       </g>
      </g>
      <g id="text_9">
       <!-- time ago (generations) -->
       <g transform="translate(14.798438 227.641094) rotate(-90) scale(0.1 -0.1)">
        <defs>
         <path id="DejaVuSans-74" d="M 1172 4494 
L 1172 3500 
L 2356 3500 
L 2356 3053 
L 1172 3053 
L 1172 1153 
Q 1172 725 1289 603 
Q 1406 481 1766 481 
L 2356 481 
L 2356 0 
L 1766 0 
Q 1100 0 847 248 
Q 594 497 594 1153 
L 594 3053 
L 172 3053 
L 172 3500 
L 594 3500 
L 594 4494 
L 1172 4494 
z
" transform="scale(0.015625)"/>
         <path id="DejaVuSans-69" d="M 603 3500 
L 1178 3500 
L 1178 0 
L 603 0 
L 603 3500 
z
M 603 4863 
L 1178 4863 
L 1178 4134 
L 603 4134 
L 603 4863 
z
" transform="scale(0.015625)"/>
         <path id="DejaVuSans-20" transform="scale(0.015625)"/>
         <path id="DejaVuSans-61" d="M 2194 1759 
Q 1497 1759 1228 1600 
Q 959 1441 959 1056 
Q 959 750 1161 570 
Q 1363 391 1709 391 
Q 2188 391 2477 730 
Q 2766 1069 2766 1631 
L 2766 1759 
L 2194 1759 
z
M 3341 1997 
L 3341 0 
L 2766 0 
L 2766 531 
Q 2569 213 2275 61 
Q 1981 -91 1556 -91 
Q 1019 -91 701 211 
Q 384 513 384 1019 
Q 384 1609 779 1909 
Q 1175 2209 1959 2209 
L 2766 2209 
L 2766 2266 
Q 2766 2663 2505 2880 
Q 2244 3097 1772 3097 
Q 1472 3097 1187 3025 
Q 903 2953 641 2809 
L 641 3341 
Q 956 3463 1253 3523 
Q 1550 3584 1831 3584 
Q 2591 3584 2966 3190 
Q 3341 2797 3341 1997 
z
" transform="scale(0.015625)"/>
         <path id="DejaVuSans-67" d="M 2906 1791 
Q 2906 2416 2648 2759 
Q 2391 3103 1925 3103 
Q 1463 3103 1205 2759 
Q 947 2416 947 1791 
Q 947 1169 1205 825 
Q 1463 481 1925 481 
Q 2391 481 2648 825 
Q 2906 1169 2906 1791 
z
M 3481 434 
Q 3481 -459 3084 -895 
Q 2688 -1331 1869 -1331 
Q 1566 -1331 1297 -1286 
Q 1028 -1241 775 -1147 
L 775 -588 
Q 1028 -725 1275 -790 
Q 1522 -856 1778 -856 
Q 2344 -856 2625 -561 
Q 2906 -266 2906 331 
L 2906 616 
Q 2728 306 2450 153 
Q 2172 0 1784 0 
Q 1141 0 747 490 
Q 353 981 353 1791 
Q 353 2603 747 3093 
Q 1141 3584 1784 3584 
Q 2172 3584 2450 3431 
Q 2728 3278 2906 2969 
L 2906 3500 
L 3481 3500 
L 3481 434 
z
" transform="scale(0.015625)"/>
         <path id="DejaVuSans-6f" d="M 1959 3097 
Q 1497 3097 1228 2736 
Q 959 2375 959 1747 
Q 959 1119 1226 758 
Q 1494 397 1959 397 
Q 2419 397 2687 759 
Q 2956 1122 2956 1747 
Q 2956 2369 2687 2733 
Q 2419 3097 1959 3097 
z
M 1959 3584 
Q 2709 3584 3137 3096 
Q 3566 2609 3566 1747 
Q 3566 888 3137 398 
Q 2709 -91 1959 -91 
Q 1206 -91 779 398 
Q 353 888 353 1747 
Q 353 2609 779 3096 
Q 1206 3584 1959 3584 
z
" transform="scale(0.015625)"/>
         <path id="DejaVuSans-28" d="M 1984 4856 
Q 1566 4138 1362 3434 
Q 1159 2731 1159 2009 
Q 1159 1288 1364 580 
Q 1569 -128 1984 -844 
L 1484 -844 
Q 1016 -109 783 600 
Q 550 1309 550 2009 
Q 550 2706 781 3412 
Q 1013 4119 1484 4856 
L 1984 4856 
z
" transform="scale(0.015625)"/>
         <path id="DejaVuSans-6e" d="M 3513 2113 
L 3513 0 
L 2938 0 
L 2938 2094 
Q 2938 2591 2744 2837 
Q 2550 3084 2163 3084 
Q 1697 3084 1428 2787 
Q 1159 2491 1159 1978 
L 1159 0 
L 581 0 
L 581 3500 
L 1159 3500 
L 1159 2956 
Q 1366 3272 1645 3428 
Q 1925 3584 2291 3584 
Q 2894 3584 3203 3211 
Q 3513 2838 3513 2113 
z
" transform="scale(0.015625)"/>
         <path id="DejaVuSans-72" d="M 2631 2963 
Q 2534 3019 2420 3045 
Q 2306 3072 2169 3072 
Q 1681 3072 1420 2755 
Q 1159 2438 1159 1844 
L 1159 0 
L 581 0 
L 581 3500 
L 1159 3500 
L 1159 2956 
Q 1341 3275 1631 3429 
Q 1922 3584 2338 3584 
Q 2397 3584 2469 3576 
Q 2541 3569 2628 3553 
L 2631 2963 
z
" transform="scale(0.015625)"/>
         <path id="DejaVuSans-73" d="M 2834 3397 
L 2834 2853 
Q 2591 2978 2328 3040 
Q 2066 3103 1784 3103 
Q 1356 3103 1142 2972 
Q 928 2841 928 2578 
Q 928 2378 1081 2264 
Q 1234 2150 1697 2047 
L 1894 2003 
Q 2506 1872 2764 1633 
Q 3022 1394 3022 966 
Q 3022 478 2636 193 
Q 2250 -91 1575 -91 
Q 1294 -91 989 -36 
Q 684 19 347 128 
L 347 722 
Q 666 556 975 473 
Q 1284 391 1588 391 
Q 1994 391 2212 530 
Q 2431 669 2431 922 
Q 2431 1156 2273 1281 
Q 2116 1406 1581 1522 
L 1381 1569 
Q 847 1681 609 1914 
Q 372 2147 372 2553 
Q 372 3047 722 3315 
Q 1072 3584 1716 3584 
Q 2034 3584 2315 3537 
Q 2597 3491 2834 3397 
z
" transform="scale(0.015625)"/>
         <path id="DejaVuSans-29" d="M 513 4856 
L 1013 4856 
Q 1481 4119 1714 3412 
Q 1947 2706 1947 2009 
Q 1947 1309 1714 600 
Q 1481 -109 1013 -844 
L 513 -844 
Q 928 -128 1133 580 
Q 1338 1288 1338 2009 
Q 1338 2731 1133 3434 
Q 928 4138 513 4856 
z
" transform="scale(0.015625)"/>
        </defs>
        <use xlink:href="#DejaVuSans-74"/>
        <use xlink:href="#DejaVuSans-69" x="39.208984"/>
        <use xlink:href="#DejaVuSans-6d" x="66.992188"/>
        <use xlink:href="#DejaVuSans-65" x="164.404297"/>
        <use xlink:href="#DejaVuSans-20" x="225.927734"/>
        <use xlink:href="#DejaVuSans-61" x="257.714844"/>
        <use xlink:href="#DejaVuSans-67" x="318.994141"/>
        <use xlink:href="#DejaVuSans-6f" x="382.470703"/>
        <use xlink:href="#DejaVuSans-20" x="443.652344"/>
        <use xlink:href="#DejaVuSans-28" x="475.439453"/>
        <use xlink:href="#DejaVuSans-67" x="514.453125"/>
        <use xlink:href="#DejaVuSans-65" x="577.929688"/>
        <use xlink:href="#DejaVuSans-6e" x="639.453125"/>
        <use xlink:href="#DejaVuSans-65" x="702.832031"/>
        <use xlink:href="#DejaVuSans-72" x="764.355469"/>
        <use xlink:href="#DejaVuSans-61" x="805.46875"/>
        <use xlink:href="#DejaVuSans-74" x="866.748047"/>
        <use xlink:href="#DejaVuSans-69" x="905.957031"/>
        <use xlink:href="#DejaVuSans-6f" x="933.740234"/>
        <use xlink:href="#DejaVuSans-6e" x="994.921875"/>
        <use xlink:href="#DejaVuSans-73" x="1058.300781"/>
        <use xlink:href="#DejaVuSans-29" x="1110.400391"/>
       </g>
      </g>
     </g>
     <path d="M 354.682951 151.885952 
L 352.682951 150.885952 
L 352.682951 152.885952 
z
" clip-path="url(#p966dffc414)" style="fill: #1f77b4; fill-opacity: 0.5; stroke: #1f77b4; stroke-opacity: 0.5; stroke-linejoin: miter"/>
     <path d="M 354.682951 126.202109 
L 352.682951 125.202109 
L 352.682951 127.202109 
z
" clip-path="url(#p966dffc414)" style="fill: #1f77b4; fill-opacity: 0.5; stroke: #1f77b4; stroke-opacity: 0.5; stroke-linejoin: miter"/>
     <path d="M 354.682951 139.803694 
L 352.682951 138.803694 
L 352.682951 140.803694 
z
" clip-path="url(#p966dffc414)" style="fill: #1f77b4; fill-opacity: 0.5; stroke: #1f77b4; stroke-opacity: 0.5; stroke-linejoin: miter"/>
     <path d="M 354.682951 138.250533 
L 352.682951 137.250533 
L 352.682951 139.250533 
z
" clip-path="url(#p966dffc414)" style="fill: #1f77b4; fill-opacity: 0.5; stroke: #1f77b4; stroke-opacity: 0.5; stroke-linejoin: miter"/>
     <path d="M 354.682951 182.9001 
L 352.682951 181.9001 
L 352.682951 183.9001 
z
" clip-path="url(#p966dffc414)" style="fill: #1f77b4; fill-opacity: 0.5; stroke: #1f77b4; stroke-opacity: 0.5; stroke-linejoin: miter"/>
     <path d="M 354.682951 188.706167 
L 352.682951 187.706167 
L 352.682951 189.706167 
z
" clip-path="url(#p966dffc414)" style="fill: #1f77b4; fill-opacity: 0.5; stroke: #1f77b4; stroke-opacity: 0.5; stroke-linejoin: miter"/>
     <path d="M 354.682951 180.229239 
L 352.682951 179.229239 
L 352.682951 181.229239 
z
" clip-path="url(#p966dffc414)" style="fill: #1f77b4; fill-opacity: 0.5; stroke: #1f77b4; stroke-opacity: 0.5; stroke-linejoin: miter"/>
     <path d="M 354.682951 172.859137 
L 352.682951 171.859137 
L 352.682951 173.859137 
z
" clip-path="url(#p966dffc414)" style="fill: #1f77b4; fill-opacity: 0.5; stroke: #1f77b4; stroke-opacity: 0.5; stroke-linejoin: miter"/>
     <path d="M 354.682951 142.560944 
L 352.682951 141.560944 
L 352.682951 143.560944 
z
" clip-path="url(#p966dffc414)" style="fill: #1f77b4; fill-opacity: 0.5; stroke: #1f77b4; stroke-opacity: 0.5; stroke-linejoin: miter"/>
     <path d="M 354.682951 90.109354 
L 352.682951 89.109354 
L 352.682951 91.109354 
z
" clip-path="url(#p966dffc414)" style="fill: #1f77b4; fill-opacity: 0.5; stroke: #1f77b4; stroke-opacity: 0.5; stroke-linejoin: miter"/>
     <path d="M 354.682951 249.881079 
L 352.682951 248.881079 
L 352.682951 250.881079 
z
" clip-path="url(#p966dffc414)" style="fill: #1f77b4; fill-opacity: 0.5; stroke: #1f77b4; stroke-opacity: 0.5; stroke-linejoin: miter"/>
     <path d="M 354.682951 270.334681 
L 352.682951 269.334681 
L 352.682951 271.334681 
z
" clip-path="url(#p966dffc414)" style="fill: #1f77b4; fill-opacity: 0.5; stroke: #1f77b4; stroke-opacity: 0.5; stroke-linejoin: miter"/>
     <path d="M 354.682951 295.554025 
L 352.682951 294.554025 
L 352.682951 296.554025 
z
" clip-path="url(#p966dffc414)" style="fill: #1f77b4; fill-opacity: 0.5; stroke: #1f77b4; stroke-opacity: 0.5; stroke-linejoin: miter"/>
     <path d="M 354.682951 266.306878 
L 352.682951 265.306878 
L 352.682951 267.306878 
z
" clip-path="url(#p966dffc414)" style="fill: #1f77b4; fill-opacity: 0.5; stroke: #1f77b4; stroke-opacity: 0.5; stroke-linejoin: miter"/>
     <path d="M 354.682951 253.4507 
L 352.682951 252.4507 
L 352.682951 254.4507 
z
" clip-path="url(#p966dffc414)" style="fill: #1f77b4; fill-opacity: 0.5; stroke: #1f77b4; stroke-opacity: 0.5; stroke-linejoin: miter"/>
     <path d="M 354.682951 256.631824 
L 352.682951 255.631824 
L 352.682951 257.631824 
z
" clip-path="url(#p966dffc414)" style="fill: #1f77b4; fill-opacity: 0.5; stroke: #1f77b4; stroke-opacity: 0.5; stroke-linejoin: miter"/>
     <path d="M 354.682951 263.790421 
L 352.682951 262.790421 
L 352.682951 264.790421 
z
" clip-path="url(#p966dffc414)" style="fill: #1f77b4; fill-opacity: 0.5; stroke: #1f77b4; stroke-opacity: 0.5; stroke-linejoin: miter"/>
     <path d="M 354.682951 224.281705 
L 352.682951 223.281705 
L 352.682951 225.281705 
z
" clip-path="url(#p966dffc414)" style="fill: #1f77b4; fill-opacity: 0.5; stroke: #1f77b4; stroke-opacity: 0.5; stroke-linejoin: miter"/>
     <path d="M 354.682951 204.919371 
L 352.682951 203.919371 
L 352.682951 205.919371 
z
" clip-path="url(#p966dffc414)" style="fill: #1f77b4; fill-opacity: 0.5; stroke: #1f77b4; stroke-opacity: 0.5; stroke-linejoin: miter"/>
     <path d="M 354.682951 280.626643 
L 352.682951 279.626643 
L 352.682951 281.626643 
z
" clip-path="url(#p966dffc414)" style="fill: #1f77b4; fill-opacity: 0.5; stroke: #1f77b4; stroke-opacity: 0.5; stroke-linejoin: miter"/>
     <g id="patch_5">
      <path d="M 43.78125 318.021875 
L 43.78125 22.318125 
" style="fill: none; stroke: #000000; stroke-width: 0.8; stroke-linejoin: miter; stroke-linecap: square"/>
     </g>
     <g id="text_10">
      <!-- defaults_asymmetric_migration_changing_rate.yaml -->
      <g transform="translate(164.675625 16.318125) scale(0.12 -0.12)">
       <defs>
        <path id="DejaVuSans-66" d="M 2375 4863 
L 2375 4384 
L 1825 4384 
Q 1516 4384 1395 4259 
Q 1275 4134 1275 3809 
L 1275 3500 
L 2222 3500 
L 2222 3053 
L 1275 3053 
L 1275 0 
L 697 0 
L 697 3053 
L 147 3053 
L 147 3500 
L 697 3500 
L 697 3744 
Q 697 4328 969 4595 
Q 1241 4863 1831 4863 
L 2375 4863 
z
" transform="scale(0.015625)"/>
        <path id="DejaVuSans-75" d="M 544 1381 
L 544 3500 
L 1119 3500 
L 1119 1403 
Q 1119 906 1312 657 
Q 1506 409 1894 409 
Q 2359 409 2629 706 
Q 2900 1003 2900 1516 
L 2900 3500 
L 3475 3500 
L 3475 0 
L 2900 0 
L 2900 538 
Q 2691 219 2414 64 
Q 2138 -91 1772 -91 
Q 1169 -91 856 284 
Q 544 659 544 1381 
z
M 1991 3584 
L 1991 3584 
z
" transform="scale(0.015625)"/>
        <path id="DejaVuSans-6c" d="M 603 4863 
L 1178 4863 
L 1178 0 
L 603 0 
L 603 4863 
z
" transform="scale(0.015625)"/>
        <path id="DejaVuSans-5f" d="M 3263 -1063 
L 3263 -1509 
L -63 -1509 
L -63 -1063 
L 3263 -1063 
z
" transform="scale(0.015625)"/>
        <path id="DejaVuSans-79" d="M 2059 -325 
Q 1816 -950 1584 -1140 
Q 1353 -1331 966 -1331 
L 506 -1331 
L 506 -850 
L 844 -850 
Q 1081 -850 1212 -737 
Q 1344 -625 1503 -206 
L 1606 56 
L 191 3500 
L 800 3500 
L 1894 763 
L 2988 3500 
L 3597 3500 
L 2059 -325 
z
" transform="scale(0.015625)"/>
        <path id="DejaVuSans-63" d="M 3122 3366 
L 3122 2828 
Q 2878 2963 2633 3030 
Q 2388 3097 2138 3097 
Q 1578 3097 1268 2742 
Q 959 2388 959 1747 
Q 959 1106 1268 751 
Q 1578 397 2138 397 
Q 2388 397 2633 464 
Q 2878 531 3122 666 
L 3122 134 
Q 2881 22 2623 -34 
Q 2366 -91 2075 -91 
Q 1284 -91 818 406 
Q 353 903 353 1747 
Q 353 2603 823 3093 
Q 1294 3584 2113 3584 
Q 2378 3584 2631 3529 
Q 2884 3475 3122 3366 
z
" transform="scale(0.015625)"/>
        <path id="DejaVuSans-68" d="M 3513 2113 
L 3513 0 
L 2938 0 
L 2938 2094 
Q 2938 2591 2744 2837 
Q 2550 3084 2163 3084 
Q 1697 3084 1428 2787 
Q 1159 2491 1159 1978 
L 1159 0 
L 581 0 
L 581 4863 
L 1159 4863 
L 1159 2956 
Q 1366 3272 1645 3428 
Q 1925 3584 2291 3584 
Q 2894 3584 3203 3211 
Q 3513 2838 3513 2113 
z
" transform="scale(0.015625)"/>
       </defs>
       <use xlink:href="#DejaVuSans-64"/>
       <use xlink:href="#DejaVuSans-65" x="63.476562"/>
       <use xlink:href="#DejaVuSans-66" x="125"/>
       <use xlink:href="#DejaVuSans-61" x="160.205078"/>
       <use xlink:href="#DejaVuSans-75" x="221.484375"/>
       <use xlink:href="#DejaVuSans-6c" x="284.863281"/>
       <use xlink:href="#DejaVuSans-74" x="312.646484"/>
       <use xlink:href="#DejaVuSans-73" x="351.855469"/>
       <use xlink:href="#DejaVuSans-5f" x="403.955078"/>
       <use xlink:href="#DejaVuSans-61" x="453.955078"/>
       <use xlink:href="#DejaVuSans-73" x="515.234375"/>
       <use xlink:href="#DejaVuSans-79" x="567.333984"/>
       <use xlink:href="#DejaVuSans-6d" x="626.513672"/>
       <use xlink:href="#DejaVuSans-6d" x="723.925781"/>
       <use xlink:href="#DejaVuSans-65" x="821.337891"/>
       <use xlink:href="#DejaVuSans-74" x="882.861328"/>
       <use xlink:href="#DejaVuSans-72" x="922.070312"/>
       <use xlink:href="#DejaVuSans-69" x="963.183594"/>
       <use xlink:href="#DejaVuSans-63" x="990.966797"/>
       <use xlink:href="#DejaVuSans-5f" x="1045.947266"/>
       <use xlink:href="#DejaVuSans-6d" x="1095.947266"/>
       <use xlink:href="#DejaVuSans-69" x="1193.359375"/>
       <use xlink:href="#DejaVuSans-67" x="1221.142578"/>
       <use xlink:href="#DejaVuSans-72" x="1284.619141"/>
       <use xlink:href="#DejaVuSans-61" x="1325.732422"/>
       <use xlink:href="#DejaVuSans-74" x="1387.011719"/>
       <use xlink:href="#DejaVuSans-69" x="1426.220703"/>
       <use xlink:href="#DejaVuSans-6f" x="1454.003906"/>
       <use xlink:href="#DejaVuSans-6e" x="1515.185547"/>
       <use xlink:href="#DejaVuSans-5f" x="1578.564453"/>
       <use xlink:href="#DejaVuSans-63" x="1628.564453"/>
       <use xlink:href="#DejaVuSans-68" x="1683.544922"/>
       <use xlink:href="#DejaVuSans-61" x="1746.923828"/>
       <use xlink:href="#DejaVuSans-6e" x="1808.203125"/>
       <use xlink:href="#DejaVuSans-67" x="1871.582031"/>
       <use xlink:href="#DejaVuSans-69" x="1935.058594"/>
       <use xlink:href="#DejaVuSans-6e" x="1962.841797"/>
       <use xlink:href="#DejaVuSans-67" x="2026.220703"/>
       <use xlink:href="#DejaVuSans-5f" x="2089.697266"/>
       <use xlink:href="#DejaVuSans-72" x="2139.697266"/>
       <use xlink:href="#DejaVuSans-61" x="2180.810547"/>
       <use xlink:href="#DejaVuSans-74" x="2242.089844"/>
       <use xlink:href="#DejaVuSans-65" x="2281.298828"/>
       <use xlink:href="#DejaVuSans-2e" x="2342.822266"/>
       <use xlink:href="#DejaVuSans-79" x="2374.609375"/>
       <use xlink:href="#DejaVuSans-61" x="2433.789062"/>
       <use xlink:href="#DejaVuSans-6d" x="2495.068359"/>
       <use xlink:href="#DejaVuSans-6c" x="2592.480469"/>
      </g>
     </g>
    </g>
   </g>
   <defs>
    <clipPath id="p966dffc414">
     <rect x="43.78125" y="22.318125" width="556.21875" height="295.70375"/>
    </clipPath>
   </defs>
  </g>
 </g>
</svg>