<?xml version="1.0" encoding="utf-8" standalone="no"?>
<!DOCTYPE svg PUBLIC "-//W3C//DTD SVG 1.1//EN"
  "http://www.w3.org/Graphics/SVG/1.1/DTD/svg11.dtd">
<svg xmlns:xlink="http://www.w3.org/1999/xlink" width="607.2pt" height="338.4pt" viewBox="0 0 607.2 338.4" xmlns="http://www.w3.org/2000/svg" version="1.1">
 <metadata>
  <rdf:RDF xmlns:dc="http://purl.org/dc/elements/1.1/" xmlns:cc="http://creativecommons.org/ns#" xmlns:rdf="http://www.w3.org/1999/02/22-rdf-syntax-ns#">
   <cc:Work>
    <dc:type rdf:resource="http://purl.org/dc/dcmitype/StillImage"/>
    <dc:date>2023-02-27T09:36:06.806381</dc:date>
    <dc:format>image/svg+xml</dc:format>
    <dc:creator>
     <cc:Agent>
      <dc:title>Matplotlib v3.7.0, https://matplotlib.org/</dc:title>
     </cc:Agent>
    </dc:creator>
   </cc:Work>
  </rdf:RDF>
 </metadata>
 <defs>
  <style type="text/css">*{stroke-linejoin: round; stroke-linecap: butt}</style>
 </defs>
 <g id="figure_1">
  <g id="patch_1">
   <path d="M 0 338.4 
L 607.2 338.4 
L 607.2 0 
L 0 0 
z
" style="fill: #ffffff"/>
  </g>
  <g id="axes_1">
   <g id="patch_2">
    <path d="M 43.78125 318.021875 
L 600 318.021875 
L 600 22.318125 
L 43.78125 22.318125 
z
" style="fill: #ffffff"/>
   </g>
   <g id="patch_3">
    <path d="M 69.06392 22.318125 
L 69.06392 318.021875 
M 152.238239 22.318125 
L 152.238239 318.021875 
" clip-path="url(#p50ef02eb69)" style="fill: none; stroke: #ffffff; stroke-width: 3; stroke-linejoin: miter"/>
    <path d="M 69.06392 22.318125 
L 69.06392 318.021875 
M 152.238239 22.318125 
L 152.238239 318.021875 
" clip-path="url(#p50ef02eb69)" style="fill: none; stroke: #1f77b4; stroke-linejoin: miter"/>
    <g id="PolyCollection_1">
     <path d="M 152.238239 22.318125 
L 69.06392 22.318125 
L 69.06392 318.021875 
L 152.238239 318.021875 
L 152.238239 318.021875 
L 152.238239 22.318125 
z
" clip-path="url(#p50ef02eb69)" style="fill: #1f77b4; fill-opacity: 0.5"/>
    </g>
    <g id="patch_4">
     <path d="M 491.543011 22.318125 
L 491.543011 318.021875 
M 574.71733 22.318125 
L 574.71733 318.021875 
" clip-path="url(#p50ef02eb69)" style="fill: none; stroke: #ffffff; stroke-width: 3; stroke-linejoin: miter"/>
     <path d="M 491.543011 22.318125 
L 491.543011 318.021875 
M 574.71733 22.318125 
L 574.71733 318.021875 
" clip-path="url(#p50ef02eb69)" style="fill: none; stroke: #ff7f0e; stroke-linejoin: miter"/>
     <g id="PolyCollection_2">
      <path d="M 574.71733 22.318125 
L 491.543011 22.318125 
L 491.543011 318.021875 
L 574.71733 318.021875 
L 574.71733 318.021875 
L 574.71733 22.318125 
z
" clip-path="url(#p50ef02eb69)" style="fill: #ff7f0e; fill-opacity: 0.5"/>
     </g>
     <g id="patch_5">
      <path d="M 209.890284 81.458875 
L 209.890284 318.021875 
M 293.064603 81.458875 
L 293.064603 318.021875 
" clip-path="url(#p50ef02eb69)" style="fill: none; stroke: #ffffff; stroke-width: 3; stroke-linejoin: miter"/>
      <path d="M 209.890284 81.458875 
L 209.890284 318.021875 
M 293.064603 81.458875 
L 293.064603 318.021875 
" clip-path="url(#p50ef02eb69)" style="fill: none; stroke: #2ca02c; stroke-linejoin: miter"/>
      <g id="PolyCollection_3">
       <path d="M 293.064603 81.458875 
L 209.890284 81.458875 
L 209.890284 318.021875 
L 293.064603 318.021875 
L 293.064603 318.021875 
L 293.064603 81.458875 
z
" clip-path="url(#p50ef02eb69)" style="fill: #2ca02c; fill-opacity: 0.5"/>
      </g>
      <g id="patch_6">
       <path d="M 350.716647 81.458875 
L 350.716647 318.021875 
M 433.890966 81.458875 
L 433.890966 318.021875 
" clip-path="url(#p50ef02eb69)" style="fill: none; stroke: #ffffff; stroke-width: 3; stroke-linejoin: miter"/>
       <path d="M 350.716647 81.458875 
L 350.716647 318.021875 
M 433.890966 81.458875 
L 433.890966 318.021875 
" clip-path="url(#p50ef02eb69)" style="fill: none; stroke: #d62728; stroke-linejoin: miter"/>
       <g id="PolyCollection_4">
        <path d="M 433.890966 81.458875 
L 350.716647 81.458875 
L 350.716647 318.021875 
L 433.890966 318.021875 
L 433.890966 318.021875 
L 433.890966 81.458875 
z
" clip-path="url(#p50ef02eb69)" style="fill: #d62728; fill-opacity: 0.5"/>
       </g>
       <g id="matplotlib.axis_1">
        <g id="xtick_1">
         <g id="line2d_1"/>
         <g id="text_1">
          <!-- deme0 -->
          <g transform="translate(93.272174 329.120312) scale(0.1 -0.1)">
           <defs>
            <path id="DejaVuSans-64" d="M 2906 2969 
L 2906 4863 
L 3481 4863 
L 3481 0 
L 2906 0 
L 2906 525 
Q 2725 213 2448 61 
Q 2172 -91 1784 -91 
Q 1150 -91 751 415 
Q 353 922 353 1747 
Q 353 2572 751 3078 
Q 1150 3584 1784 3584 
Q 2172 3584 2448 3432 
Q 2725 3281 2906 2969 
z
M 947 1747 
Q 947 1113 1208 752 
Q 1469 391 1925 391 
Q 2381 391 2643 752 
Q 2906 1113 2906 1747 
Q 2906 2381 2643 2742 
Q 2381 3103 1925 3103 
Q 1469 3103 1208 2742 
Q 947 2381 947 1747 
z
" transform="scale(0.015625)"/>
            <path id="DejaVuSans-65" d="M 3597 1894 
L 3597 1613 
L 953 1613 
Q 991 1019 1311 708 
Q 1631 397 2203 397 
Q 2534 397 2845 478 
Q 3156 559 3463 722 
L 3463 178 
Q 3153 47 2828 -22 
Q 2503 -91 2169 -91 
Q 1331 -91 842 396 
Q 353 884 353 1716 
Q 353 2575 817 3079 
Q 1281 3584 2069 3584 
Q 2775 3584 3186 3129 
Q 3597 2675 3597 1894 
z
M 3022 2063 
Q 3016 2534 2758 2815 
Q 2500 3097 2075 3097 
Q 1594 3097 1305 2825 
Q 1016 2553 972 2059 
L 3022 2063 
z
" transform="scale(0.015625)"/>
            <path id="DejaVuSans-6d" d="M 3328 2828 
Q 3544 3216 3844 3400 
Q 4144 3584 4550 3584 
Q 5097 3584 5394 3201 
Q 5691 2819 5691 2113 
L 5691 0 
L 5113 0 
L 5113 2094 
Q 5113 2597 4934 2840 
Q 4756 3084 4391 3084 
Q 3944 3084 3684 2787 
Q 3425 2491 3425 1978 
L 3425 0 
L 2847 0 
L 2847 2094 
Q 2847 2600 2669 2842 
Q 2491 3084 2119 3084 
Q 1678 3084 1418 2786 
Q 1159 2488 1159 1978 
L 1159 0 
L 581 0 
L 581 3500 
L 1159 3500 
L 1159 2956 
Q 1356 3278 1631 3431 
Q 1906 3584 2284 3584 
Q 2666 3584 2933 3390 
Q 3200 3197 3328 2828 
z
" transform="scale(0.015625)"/>
            <path id="DejaVuSans-30" d="M 2034 4250 
Q 1547 4250 1301 3770 
Q 1056 3291 1056 2328 
Q 1056 1369 1301 889 
Q 1547 409 2034 409 
Q 2525 409 2770 889 
Q 3016 1369 3016 2328 
Q 3016 3291 2770 3770 
Q 2525 4250 2034 4250 
z
M 2034 4750 
Q 2819 4750 3233 4129 
Q 3647 3509 3647 2328 
Q 3647 1150 3233 529 
Q 2819 -91 2034 -91 
Q 1250 -91 836 529 
Q 422 1150 422 2328 
Q 422 3509 836 4129 
Q 1250 4750 2034 4750 
z
" transform="scale(0.015625)"/>
           </defs>
           <use xlink:href="#DejaVuSans-64"/>
           <use xlink:href="#DejaVuSans-65" x="63.476562"/>
           <use xlink:href="#DejaVuSans-6d" x="125"/>
           <use xlink:href="#DejaVuSans-65" x="222.412109"/>
           <use xlink:href="#DejaVuSans-30" x="283.935547"/>
          </g>
         </g>
        </g>
        <g id="xtick_2">
         <g id="line2d_2"/>
         <g id="text_2">
          <!-- deme1 -->
          <g transform="translate(515.751264 329.120312) scale(0.1 -0.1)">
           <defs>
            <path id="DejaVuSans-31" d="M 794 531 
L 1825 531 
L 1825 4091 
L 703 3866 
L 703 4441 
L 1819 4666 
L 2450 4666 
L 2450 531 
L 3481 531 
L 3481 0 
L 794 0 
L 794 531 
z
" transform="scale(0.015625)"/>
           </defs>
           <use xlink:href="#DejaVuSans-64"/>
           <use xlink:href="#DejaVuSans-65" x="63.476562"/>
           <use xlink:href="#DejaVuSans-6d" x="125"/>
           <use xlink:href="#DejaVuSans-65" x="222.412109"/>
           <use xlink:href="#DejaVuSans-31" x="283.935547"/>
          </g>
         </g>
        </g>
        <g id="xtick_3">
         <g id="line2d_3"/>
         <g id="text_3">
          <!-- deme2 -->
          <g transform="translate(234.098537 329.120312) scale(0.1 -0.1)">
           <defs>
            <path id="DejaVuSans-32" d="M 1228 531 
L 3431 531 
L 3431 0 
L 469 0 
L 469 531 
Q 828 903 1448 1529 
Q 2069 2156 2228 2338 
Q 2531 2678 2651 2914 
Q 2772 3150 2772 3378 
Q 2772 3750 2511 3984 
Q 2250 4219 1831 4219 
Q 1534 4219 1204 4116 
Q 875 4013 500 3803 
L 500 4441 
Q 881 4594 1212 4672 
Q 1544 4750 1819 4750 
Q 2544 4750 2975 4387 
Q 3406 4025 3406 3419 
Q 3406 3131 3298 2873 
Q 3191 2616 2906 2266 
Q 2828 2175 2409 1742 
Q 1991 1309 1228 531 
z
" transform="scale(0.015625)"/>
           </defs>
           <use xlink:href="#DejaVuSans-64"/>
           <use xlink:href="#DejaVuSans-65" x="63.476562"/>
           <use xlink:href="#DejaVuSans-6d" x="125"/>
           <use xlink:href="#DejaVuSans-65" x="222.412109"/>
           <use xlink:href="#DejaVuSans-32" x="283.935547"/>
          </g>
         </g>
        </g>
        <g id="xtick_4">
         <g id="line2d_4"/>
         <g id="text_4">
          <!-- deme3 -->
          <g transform="translate(374.9249 329.120312) scale(0.1 -0.1)">
           <defs>
            <path id="DejaVuSans-33" d="M 2597 2516 
Q 3050 2419 3304 2112 
Q 3559 1806 3559 1356 
Q 3559 666 3084 287 
Q 2609 -91 1734 -91 
Q 1441 -91 1130 -33 
Q 819 25 488 141 
L 488 750 
Q 750 597 1062 519 
Q 1375 441 1716 441 
Q 2309 441 2620 675 
Q 2931 909 2931 1356 
Q 2931 1769 2642 2001 
Q 2353 2234 1838 2234 
L 1294 2234 
L 1294 2753 
L 1863 2753 
Q 2328 2753 2575 2939 
Q 2822 3125 2822 3475 
Q 2822 3834 2567 4026 
Q 2313 4219 1838 4219 
Q 1578 4219 1281 4162 
Q 984 4106 628 3988 
L 628 4550 
Q 988 4650 1302 4700 
Q 1616 4750 1894 4750 
Q 2613 4750 3031 4423 
Q 3450 4097 3450 3541 
Q 3450 3153 3228 2886 
Q 3006 2619 2597 2516 
z
" transform="scale(0.015625)"/>
           </defs>
           <use xlink:href="#DejaVuSans-64"/>
           <use xlink:href="#DejaVuSans-65" x="63.476562"/>
           <use xlink:href="#DejaVuSans-6d" x="125"/>
           <use xlink:href="#DejaVuSans-65" x="222.412109"/>
           <use xlink:href="#DejaVuSans-33" x="283.935547"/>
          </g>
         </g>
        </g>
       </g>
       <g id="matplotlib.axis_2">
        <g id="ytick_1">
         <g id="line2d_5">
          <defs>
           <path id="m798d09fa92" d="M 0 0 
L -3.5 0 
" style="stroke: #000000; stroke-width: 0.8"/>
          </defs>
          <g>
           <use xlink:href="#m798d09fa92" x="43.78125" y="318.021875" style="stroke: #000000; stroke-width: 0.8"/>
          </g>
         </g>
         <g id="text_5">
          <!-- 0.0 -->
          <g transform="translate(20.878125 321.821094) scale(0.1 -0.1)">
           <defs>
            <path id="DejaVuSans-2e" d="M 684 794 
L 1344 794 
L 1344 0 
L 684 0 
L 684 794 
z
" transform="scale(0.015625)"/>
           </defs>
           <use xlink:href="#DejaVuSans-30"/>
           <use xlink:href="#DejaVuSans-2e" x="63.623047"/>
           <use xlink:href="#DejaVuSans-30" x="95.410156"/>
          </g>
         </g>
        </g>
        <g id="ytick_2">
         <g id="line2d_6">
          <g>
           <use xlink:href="#m798d09fa92" x="43.78125" y="270.709275" style="stroke: #000000; stroke-width: 0.8"/>
          </g>
         </g>
         <g id="text_6">
          <!-- 0.2 -->
          <g transform="translate(20.878125 274.508494) scale(0.1 -0.1)">
           <use xlink:href="#DejaVuSans-30"/>
           <use xlink:href="#DejaVuSans-2e" x="63.623047"/>
           <use xlink:href="#DejaVuSans-32" x="95.410156"/>
          </g>
         </g>
        </g>
        <g id="ytick_3">
         <g id="line2d_7">
          <g>
           <use xlink:href="#m798d09fa92" x="43.78125" y="223.396675" style="stroke: #000000; stroke-width: 0.8"/>
          </g>
         </g>
         <g id="text_7">
          <!-- 0.4 -->
          <g transform="translate(20.878125 227.195894) scale(0.1 -0.1)">
           <defs>
            <path id="DejaVuSans-34" d="M 2419 4116 
L 825 1625 
L 2419 1625 
L 2419 4116 
z
M 2253 4666 
L 3047 4666 
L 3047 1625 
L 3713 1625 
L 3713 1100 
L 3047 1100 
L 3047 0 
L 2419 0 
L 2419 1100 
L 313 1100 
L 313 1709 
L 2253 4666 
z
" transform="scale(0.015625)"/>
           </defs>
           <use xlink:href="#DejaVuSans-30"/>
           <use xlink:href="#DejaVuSans-2e" x="63.623047"/>
           <use xlink:href="#DejaVuSans-34" x="95.410156"/>
          </g>
         </g>
        </g>
        <g id="ytick_4">
         <g id="line2d_8">
          <g>
           <use xlink:href="#m798d09fa92" x="43.78125" y="176.084075" style="stroke: #000000; stroke-width: 0.8"/>
          </g>
         </g>
         <g id="text_8">
          <!-- 0.6 -->
          <g transform="translate(20.878125 179.883294) scale(0.1 -0.1)">
           <defs>
            <path id="DejaVuSans-36" d="M 2113 2584 
Q 1688 2584 1439 2293 
Q 1191 2003 1191 1497 
Q 1191 994 1439 701 
Q 1688 409 2113 409 
Q 2538 409 2786 701 
Q 3034 994 3034 1497 
Q 3034 2003 2786 2293 
Q 2538 2584 2113 2584 
z
M 3366 4563 
L 3366 3988 
Q 3128 4100 2886 4159 
Q 2644 4219 2406 4219 
Q 1781 4219 1451 3797 
Q 1122 3375 1075 2522 
Q 1259 2794 1537 2939 
Q 1816 3084 2150 3084 
Q 2853 3084 3261 2657 
Q 3669 2231 3669 1497 
Q 3669 778 3244 343 
Q 2819 -91 2113 -91 
Q 1303 -91 875 529 
Q 447 1150 447 2328 
Q 447 3434 972 4092 
Q 1497 4750 2381 4750 
Q 2619 4750 2861 4703 
Q 3103 4656 3366 4563 
z
" transform="scale(0.015625)"/>
           </defs>
           <use xlink:href="#DejaVuSans-30"/>
           <use xlink:href="#DejaVuSans-2e" x="63.623047"/>
           <use xlink:href="#DejaVuSans-36" x="95.410156"/>
          </g>
         </g>
        </g>
        <g id="ytick_5">
         <g id="line2d_9">
          <g>
           <use xlink:href="#m798d09fa92" x="43.78125" y="128.771475" style="stroke: #000000; stroke-width: 0.8"/>
          </g>
         </g>
         <g id="text_9">
          <!-- 0.8 -->
          <g transform="translate(20.878125 132.570694) scale(0.1 -0.1)">
           <defs>
            <path id="DejaVuSans-38" d="M 2034 2216 
Q 1584 2216 1326 1975 
Q 1069 1734 1069 1313 
Q 1069 891 1326 650 
Q 1584 409 2034 409 
Q 2484 409 2743 651 
Q 3003 894 3003 1313 
Q 3003 1734 2745 1975 
Q 2488 2216 2034 2216 
z
M 1403 2484 
Q 997 2584 770 2862 
Q 544 3141 544 3541 
Q 544 4100 942 4425 
Q 1341 4750 2034 4750 
Q 2731 4750 3128 4425 
Q 3525 4100 3525 3541 
Q 3525 3141 3298 2862 
Q 3072 2584 2669 2484 
Q 3125 2378 3379 2068 
Q 3634 1759 3634 1313 
Q 3634 634 3220 271 
Q 2806 -91 2034 -91 
Q 1263 -91 848 271 
Q 434 634 434 1313 
Q 434 1759 690 2068 
Q 947 2378 1403 2484 
z
M 1172 3481 
Q 1172 3119 1398 2916 
Q 1625 2713 2034 2713 
Q 2441 2713 2670 2916 
Q 2900 3119 2900 3481 
Q 2900 3844 2670 4047 
Q 2441 4250 2034 4250 
Q 1625 4250 1398 4047 
Q 1172 3844 1172 3481 
z
" transform="scale(0.015625)"/>
           </defs>
           <use xlink:href="#DejaVuSans-30"/>
           <use xlink:href="#DejaVuSans-2e" x="63.623047"/>
           <use xlink:href="#DejaVuSans-38" x="95.410156"/>
          </g>
         </g>
        </g>
        <g id="ytick_6">
         <g id="line2d_10">
          <g>
           <use xlink:href="#m798d09fa92" x="43.78125" y="81.458875" style="stroke: #000000; stroke-width: 0.8"/>
          </g>
         </g>
         <g id="text_10">
          <!-- 1.0 -->
          <g transform="translate(20.878125 85.258094) scale(0.1 -0.1)">
           <use xlink:href="#DejaVuSans-31"/>
           <use xlink:href="#DejaVuSans-2e" x="63.623047"/>
           <use xlink:href="#DejaVuSans-30" x="95.410156"/>
          </g>
         </g>
        </g>
        <g id="ytick_7">
         <g id="line2d_11">
          <g>
           <use xlink:href="#m798d09fa92" x="43.78125" y="34.146275" style="stroke: #000000; stroke-width: 0.8"/>
          </g>
         </g>
         <g id="text_11">
          <!-- 1.2 -->
          <g transform="translate(20.878125 37.945494) scale(0.1 -0.1)">
           <use xlink:href="#DejaVuSans-31"/>
           <use xlink:href="#DejaVuSans-2e" x="63.623047"/>
           <use xlink:href="#DejaVuSans-32" x="95.410156"/>
          </g>
         </g>
        </g>
        <g id="text_12">
         <!-- time ago (generations) -->
         <g transform="translate(14.798438 227.641094) rotate(-90) scale(0.1 -0.1)">
          <defs>
           <path id="DejaVuSans-74" d="M 1172 4494 
L 1172 3500 
L 2356 3500 
L 2356 3053 
L 1172 3053 
L 1172 1153 
Q 1172 725 1289 603 
Q 1406 481 1766 481 
L 2356 481 
L 2356 0 
L 1766 0 
Q 1100 0 847 248 
Q 594 497 594 1153 
L 594 3053 
L 172 3053 
L 172 3500 
L 594 3500 
L 594 4494 
L 1172 4494 
z
" transform="scale(0.015625)"/>
           <path id="DejaVuSans-69" d="M 603 3500 
L 1178 3500 
L 1178 0 
L 603 0 
L 603 3500 
z
M 603 4863 
L 1178 4863 
L 1178 4134 
L 603 4134 
L 603 4863 
z
" transform="scale(0.015625)"/>
           <path id="DejaVuSans-20" transform="scale(0.015625)"/>
           <path id="DejaVuSans-61" d="M 2194 1759 
Q 1497 1759 1228 1600 
Q 959 1441 959 1056 
Q 959 750 1161 570 
Q 1363 391 1709 391 
Q 2188 391 2477 730 
Q 2766 1069 2766 1631 
L 2766 1759 
L 2194 1759 
z
M 3341 1997 
L 3341 0 
L 2766 0 
L 2766 531 
Q 2569 213 2275 61 
Q 1981 -91 1556 -91 
Q 1019 -91 701 211 
Q 384 513 384 1019 
Q 384 1609 779 1909 
Q 1175 2209 1959 2209 
L 2766 2209 
L 2766 2266 
Q 2766 2663 2505 2880 
Q 2244 3097 1772 3097 
Q 1472 3097 1187 3025 
Q 903 2953 641 2809 
L 641 3341 
Q 956 3463 1253 3523 
Q 1550 3584 1831 3584 
Q 2591 3584 2966 3190 
Q 3341 2797 3341 1997 
z
" transform="scale(0.015625)"/>
           <path id="DejaVuSans-67" d="M 2906 1791 
Q 2906 2416 2648 2759 
Q 2391 3103 1925 3103 
Q 1463 3103 1205 2759 
Q 947 2416 947 1791 
Q 947 1169 1205 825 
Q 1463 481 1925 481 
Q 2391 481 2648 825 
Q 2906 1169 2906 1791 
z
M 3481 434 
Q 3481 -459 3084 -895 
Q 2688 -1331 1869 -1331 
Q 1566 -1331 1297 -1286 
Q 1028 -1241 775 -1147 
L 775 -588 
Q 1028 -725 1275 -790 
Q 1522 -856 1778 -856 
Q 2344 -856 2625 -561 
Q 2906 -266 2906 331 
L 2906 616 
Q 2728 306 2450 153 
Q 2172 0 1784 0 
Q 1141 0 747 490 
Q 353 981 353 1791 
Q 353 2603 747 3093 
Q 1141 3584 1784 3584 
Q 2172 3584 2450 3431 
Q 2728 3278 2906 2969 
L 2906 3500 
L 3481 3500 
L 3481 434 
z
" transform="scale(0.015625)"/>
           <path id="DejaVuSans-6f" d="M 1959 3097 
Q 1497 3097 1228 2736 
Q 959 2375 959 1747 
Q 959 1119 1226 758 
Q 1494 397 1959 397 
Q 2419 397 2687 759 
Q 2956 1122 2956 1747 
Q 2956 2369 2687 2733 
Q 2419 3097 1959 3097 
z
M 1959 3584 
Q 2709 3584 3137 3096 
Q 3566 2609 3566 1747 
Q 3566 888 3137 398 
Q 2709 -91 1959 -91 
Q 1206 -91 779 398 
Q 353 888 353 1747 
Q 353 2609 779 3096 
Q 1206 3584 1959 3584 
z
" transform="scale(0.015625)"/>
           <path id="DejaVuSans-28" d="M 1984 4856 
Q 1566 4138 1362 3434 
Q 1159 2731 1159 2009 
Q 1159 1288 1364 580 
Q 1569 -128 1984 -844 
L 1484 -844 
Q 1016 -109 783 600 
Q 550 1309 550 2009 
Q 550 2706 781 3412 
Q 1013 4119 1484 4856 
L 1984 4856 
z
" transform="scale(0.015625)"/>
           <path id="DejaVuSans-6e" d="M 3513 2113 
L 3513 0 
L 2938 0 
L 2938 2094 
Q 2938 2591 2744 2837 
Q 2550 3084 2163 3084 
Q 1697 3084 1428 2787 
Q 1159 2491 1159 1978 
L 1159 0 
L 581 0 
L 581 3500 
L 1159 3500 
L 1159 2956 
Q 1366 3272 1645 3428 
Q 1925 3584 2291 3584 
Q 2894 3584 3203 3211 
Q 3513 2838 3513 2113 
z
" transform="scale(0.015625)"/>
           <path id="DejaVuSans-72" d="M 2631 2963 
Q 2534 3019 2420 3045 
Q 2306 3072 2169 3072 
Q 1681 3072 1420 2755 
Q 1159 2438 1159 1844 
L 1159 0 
L 581 0 
L 581 3500 
L 1159 3500 
L 1159 2956 
Q 1341 3275 1631 3429 
Q 1922 3584 2338 3584 
Q 2397 3584 2469 3576 
Q 2541 3569 2628 3553 
L 2631 2963 
z
" transform="scale(0.015625)"/>
           <path id="DejaVuSans-73" d="M 2834 3397 
L 2834 2853 
Q 2591 2978 2328 3040 
Q 2066 3103 1784 3103 
Q 1356 3103 1142 2972 
Q 928 2841 928 2578 
Q 928 2378 1081 2264 
Q 1234 2150 1697 2047 
L 1894 2003 
Q 2506 1872 2764 1633 
Q 3022 1394 3022 966 
Q 3022 478 2636 193 
Q 2250 -91 1575 -91 
Q 1294 -91 989 -36 
Q 684 19 347 128 
L 347 722 
Q 666 556 975 473 
Q 1284 391 1588 391 
Q 1994 391 2212 530 
Q 2431 669 2431 922 
Q 2431 1156 2273 1281 
Q 2116 1406 1581 1522 
L 1381 1569 
Q 847 1681 609 1914 
Q 372 2147 372 2553 
Q 372 3047 722 3315 
Q 1072 3584 1716 3584 
Q 2034 3584 2315 3537 
Q 2597 3491 2834 3397 
z
" transform="scale(0.015625)"/>
           <path id="DejaVuSans-29" d="M 513 4856 
L 1013 4856 
Q 1481 4119 1714 3412 
Q 1947 2706 1947 2009 
Q 1947 1309 1714 600 
Q 1481 -109 1013 -844 
L 513 -844 
Q 928 -128 1133 580 
Q 1338 1288 1338 2009 
Q 1338 2731 1133 3434 
Q 928 4138 513 4856 
z
" transform="scale(0.015625)"/>
          </defs>
          <use xlink:href="#DejaVuSans-74"/>
          <use xlink:href="#DejaVuSans-69" x="39.208984"/>
          <use xlink:href="#DejaVuSans-6d" x="66.992188"/>
          <use xlink:href="#DejaVuSans-65" x="164.404297"/>
          <use xlink:href="#DejaVuSans-20" x="225.927734"/>
          <use xlink:href="#DejaVuSans-61" x="257.714844"/>
          <use xlink:href="#DejaVuSans-67" x="318.994141"/>
          <use xlink:href="#DejaVuSans-6f" x="382.470703"/>
          <use xlink:href="#DejaVuSans-20" x="443.652344"/>
          <use xlink:href="#DejaVuSans-28" x="475.439453"/>
          <use xlink:href="#DejaVuSans-67" x="514.453125"/>
          <use xlink:href="#DejaVuSans-65" x="577.929688"/>
          <use xlink:href="#DejaVuSans-6e" x="639.453125"/>
          <use xlink:href="#DejaVuSans-65" x="702.832031"/>
          <use xlink:href="#DejaVuSans-72" x="764.355469"/>
          <use xlink:href="#DejaVuSans-61" x="805.46875"/>
          <use xlink:href="#DejaVuSans-74" x="866.748047"/>
          <use xlink:href="#DejaVuSans-69" x="905.957031"/>
          <use xlink:href="#DejaVuSans-6f" x="933.740234"/>
          <use xlink:href="#DejaVuSans-6e" x="994.921875"/>
          <use xlink:href="#DejaVuSans-73" x="1058.300781"/>
          <use xlink:href="#DejaVuSans-29" x="1110.400391"/>
         </g>
        </g>
       </g>
       <g id="patch_7">
        <path d="M 154.240437 81.458875 
L 155.240437 81.490311 
L 156.240437 81.527252 
L 157.240437 81.624998 
L 158.240437 81.65752 
L 159.240437 81.731145 
L 160.240437 81.76971 
L 161.240437 81.805123 
L 162.240437 81.862763 
L 163.240437 81.933149 
L 164.240437 81.985114 
L 165.240437 82.044203 
L 166.240437 82.132524 
L 167.240437 82.178669 
L 168.240437 82.22108 
L 169.240437 82.251572 
L 170.240437 82.277617 
L 171.240437 82.298817 
L 172.240437 82.353118 
L 173.240437 82.381056 
L 174.240437 82.41078 
L 175.240437 82.436175 
L 176.240437 82.447375 
L 177.240437 82.457499 
L 178.240437 82.457295 
L 179.240437 82.447785 
L 180.240437 82.436131 
L 181.240437 82.405102 
L 182.240437 82.393934 
L 183.240437 82.363817 
L 184.240437 82.30404 
L 185.240437 82.266848 
L 186.240437 82.227752 
L 187.240437 82.185312 
L 188.240437 82.152547 
L 189.240437 82.085121 
L 190.240437 82.045995 
L 191.240437 82.00332 
L 192.240437 81.93274 
L 193.240437 81.896349 
L 194.240437 81.837946 
L 195.240437 81.726993 
L 196.240437 81.656335 
L 197.240437 81.543395 
L 198.240437 81.497622 
L 199.240437 81.436339 
L 200.240437 81.38784 
L 201.240437 81.307017 
L 202.240437 81.188498 
L 203.240437 81.118287 
L 204.240437 81.035025 
L 205.240437 81.001883 
L 206.771654 80.950646 
" clip-path="url(#p50ef02eb69)" style="fill: none; stroke: #ffffff; stroke-width: 3; stroke-linecap: round"/>
        <path d="M 154.240437 81.458875 
L 155.240437 81.490311 
L 156.240437 81.527252 
L 157.240437 81.624998 
L 158.240437 81.65752 
L 159.240437 81.731145 
L 160.240437 81.76971 
L 161.240437 81.805123 
L 162.240437 81.862763 
L 163.240437 81.933149 
L 164.240437 81.985114 
L 165.240437 82.044203 
L 166.240437 82.132524 
L 167.240437 82.178669 
L 168.240437 82.22108 
L 169.240437 82.251572 
L 170.240437 82.277617 
L 171.240437 82.298817 
L 172.240437 82.353118 
L 173.240437 82.381056 
L 174.240437 82.41078 
L 175.240437 82.436175 
L 176.240437 82.447375 
L 177.240437 82.457499 
L 178.240437 82.457295 
L 179.240437 82.447785 
L 180.240437 82.436131 
L 181.240437 82.405102 
L 182.240437 82.393934 
L 183.240437 82.363817 
L 184.240437 82.30404 
L 185.240437 82.266848 
L 186.240437 82.227752 
L 187.240437 82.185312 
L 188.240437 82.152547 
L 189.240437 82.085121 
L 190.240437 82.045995 
L 191.240437 82.00332 
L 192.240437 81.93274 
L 193.240437 81.896349 
L 194.240437 81.837946 
L 195.240437 81.726993 
L 196.240437 81.656335 
L 197.240437 81.543395 
L 198.240437 81.497622 
L 199.240437 81.436339 
L 200.240437 81.38784 
L 201.240437 81.307017 
L 202.240437 81.188498 
L 203.240437 81.118287 
L 204.240437 81.035025 
L 205.240437 81.001883 
L 206.771654 80.950646 
" clip-path="url(#p50ef02eb69)" style="fill: none; stroke: #1f77b4; stroke-linecap: round"/>
        <path d="M 202.771654 79.458875 
L 203.652023 79.934206 
L 204.52993 80.41446 
L 205.380643 80.949101 
L 206.682818 81.636548 
L 205.755464 81.662563 
L 204.84379 82.075283 
L 203.933526 82.490822 
L 202.59103 83.097626 
L 203.245929 82.458875 
L 203.297893 81.458875 
L 203.356983 79.458875 
z
" clip-path="url(#p50ef02eb69)" style="fill: #ffffff; stroke: #ffffff; stroke-width: 3; stroke-linecap: round"/>
        <path d="M 202.771654 79.458875 
L 203.652023 79.934206 
L 204.52993 80.41446 
L 205.380643 80.949101 
L 206.682818 81.636548 
L 205.755464 81.662563 
L 204.84379 82.075283 
L 203.933526 82.490822 
L 202.59103 83.097626 
L 203.245929 82.458875 
L 203.297893 81.458875 
L 203.356983 79.458875 
z
" clip-path="url(#p50ef02eb69)" style="fill: #ffffff; stroke: #1f77b4; stroke-linecap: round"/>
        <g id="patch_8">
         <path d="M 489.541146 81.458875 
L 488.541146 81.427439 
L 487.541146 81.390498 
L 486.541146 81.292752 
L 485.541146 81.26023 
L 484.541146 81.186605 
L 483.541146 81.14804 
L 482.541146 81.112627 
L 481.541146 81.054987 
L 480.541146 80.984601 
L 479.541146 80.932636 
L 478.541146 80.873547 
L 477.541146 80.785226 
L 476.541146 80.739081 
L 475.541146 80.69667 
L 474.541146 80.666178 
L 473.541146 80.640133 
L 472.541146 80.618933 
L 471.541146 80.564632 
L 470.541146 80.536694 
L 469.541146 80.50697 
L 468.541146 80.481575 
L 467.541146 80.470375 
L 466.541146 80.460251 
L 465.541146 80.460455 
L 464.541146 80.469965 
L 463.541146 80.481619 
L 462.541146 80.512648 
L 461.541146 80.523816 
L 460.541146 80.553933 
L 459.541146 80.61371 
L 458.541146 80.650902 
L 457.541146 80.689998 
L 456.541146 80.732438 
L 455.541146 80.765203 
L 454.541146 80.832629 
L 453.541146 80.871755 
L 452.541146 80.91443 
L 451.541146 80.98501 
L 450.541146 81.021401 
L 449.541146 81.079804 
L 448.541146 81.190757 
L 447.541146 81.261415 
L 446.541146 81.374355 
L 445.541146 81.420128 
L 444.541146 81.481411 
L 443.541146 81.52991 
L 442.541146 81.610733 
L 441.541146 81.729252 
L 440.541146 81.799463 
L 439.541146 81.882725 
L 438.541146 81.915867 
L 437.541146 81.967104 
L 436.541146 82.035503 
L 435.541146 82.101718 
L 434.541146 82.178635 
L 433.541146 82.205951 
L 432.541146 82.232428 
L 431.541146 82.255079 
L 430.541146 82.27461 
L 429.541146 82.301004 
L 428.541146 82.350775 
L 427.541146 82.385848 
L 426.541146 82.421714 
L 425.541146 82.437081 
L 424.541146 82.45285 
L 423.541146 82.456263 
L 422.541146 82.45868 
L 421.541146 82.458194 
L 420.541146 82.456265 
L 419.541146 82.443008 
L 418.541146 82.434617 
L 417.541146 82.413081 
L 416.541146 82.390048 
L 415.541146 82.372815 
L 414.541146 82.354352 
L 413.541146 82.3339 
L 412.541146 82.3173 
L 411.541146 82.254521 
L 410.541146 82.179256 
L 409.541146 82.146617 
L 408.541146 82.079053 
L 407.541146 82.025006 
L 406.541146 81.991302 
L 405.541146 81.901176 
L 404.541146 81.872641 
L 403.541146 81.841155 
L 402.541146 81.810144 
L 401.541146 81.755336 
L 400.541146 81.690749 
L 399.541146 81.652553 
L 398.541146 81.556619 
L 397.541146 81.507361 
L 396.541146 81.463292 
L 395.541146 81.423168 
L 394.541146 81.314801 
L 393.541146 81.273173 
L 392.541146 81.211031 
L 391.541146 81.141069 
L 390.541146 81.036565 
L 389.541146 80.999577 
L 388.541146 80.9537 
L 387.541146 80.885205 
L 386.541146 80.836459 
L 385.541146 80.758862 
L 384.541146 80.728321 
L 383.541146 80.658807 
L 382.541146 80.634834 
L 381.541146 80.606212 
L 380.541146 80.564419 
L 379.541146 80.542843 
L 378.541146 80.528895 
L 377.541146 80.502173 
L 376.541146 80.492863 
L 375.541146 80.480416 
L 374.541146 80.469361 
L 373.541146 80.463697 
L 372.541146 80.458933 
L 371.541146 80.464481 
L 370.541146 80.477769 
L 369.541146 80.485286 
L 368.541146 80.510071 
L 367.541146 80.53364 
L 366.541146 80.56982 
L 365.541146 80.595782 
L 364.541146 80.618104 
L 363.541146 80.686864 
L 362.541146 80.761399 
L 361.541146 80.855378 
L 360.541146 80.90643 
L 359.541146 80.960364 
L 358.541146 80.995615 
L 357.541146 81.101703 
L 356.541146 81.153967 
L 355.541146 81.190874 
L 354.541146 81.221905 
L 353.541146 81.28306 
L 352.541146 81.35048 
L 351.541146 81.399386 
L 350.541146 81.464578 
L 349.541146 81.502766 
L 348.541146 81.544762 
L 347.541146 81.586779 
L 346.541146 81.646295 
L 345.541146 81.759455 
L 344.541146 81.811706 
L 343.541146 81.851124 
L 342.541146 81.898225 
L 341.541146 81.955005 
L 340.541146 81.987668 
L 339.541146 82.023846 
L 338.541146 82.055936 
L 337.541146 82.090216 
L 336.541146 82.148594 
L 335.541146 82.193779 
L 334.541146 82.223403 
L 333.541146 82.273789 
L 332.541146 82.298986 
L 331.541146 82.320037 
L 330.541146 82.355005 
L 329.541146 82.379295 
L 328.541146 82.393362 
L 327.541146 82.412304 
L 326.541146 82.427965 
L 325.541146 82.440517 
L 324.541146 82.446353 
L 323.541146 82.453235 
L 322.541146 82.458409 
L 321.541146 82.456626 
L 320.541146 82.453901 
L 319.541146 82.442747 
L 318.541146 82.414512 
L 317.541146 82.370724 
L 316.541146 82.350035 
L 315.541146 82.309062 
L 314.541146 82.268987 
L 313.541146 82.249877 
L 312.541146 82.227368 
L 311.541146 82.160717 
L 310.541146 82.111007 
L 309.541146 82.037301 
L 308.541146 82.005987 
L 307.541146 81.929365 
L 306.541146 81.891067 
L 305.541146 81.81695 
L 304.541146 81.712892 
L 303.541146 81.643061 
L 302.541146 81.537827 
L 301.541146 81.482812 
L 300.541146 81.359337 
L 299.541146 81.288778 
L 298.541146 81.172939 
L 297.541146 81.122758 
L 296.182299 81.087154 
" clip-path="url(#p50ef02eb69)" style="fill: none; stroke: #ffffff; stroke-width: 3; stroke-linecap: round"/>
         <path d="M 489.541146 81.458875 
L 488.541146 81.427439 
L 487.541146 81.390498 
L 486.541146 81.292752 
L 485.541146 81.26023 
L 484.541146 81.186605 
L 483.541146 81.14804 
L 482.541146 81.112627 
L 481.541146 81.054987 
L 480.541146 80.984601 
L 479.541146 80.932636 
L 478.541146 80.873547 
L 477.541146 80.785226 
L 476.541146 80.739081 
L 475.541146 80.69667 
L 474.541146 80.666178 
L 473.541146 80.640133 
L 472.541146 80.618933 
L 471.541146 80.564632 
L 470.541146 80.536694 
L 469.541146 80.50697 
L 468.541146 80.481575 
L 467.541146 80.470375 
L 466.541146 80.460251 
L 465.541146 80.460455 
L 464.541146 80.469965 
L 463.541146 80.481619 
L 462.541146 80.512648 
L 461.541146 80.523816 
L 460.541146 80.553933 
L 459.541146 80.61371 
L 458.541146 80.650902 
L 457.541146 80.689998 
L 456.541146 80.732438 
L 455.541146 80.765203 
L 454.541146 80.832629 
L 453.541146 80.871755 
L 452.541146 80.91443 
L 451.541146 80.98501 
L 450.541146 81.021401 
L 449.541146 81.079804 
L 448.541146 81.190757 
L 447.541146 81.261415 
L 446.541146 81.374355 
L 445.541146 81.420128 
L 444.541146 81.481411 
L 443.541146 81.52991 
L 442.541146 81.610733 
L 441.541146 81.729252 
L 440.541146 81.799463 
L 439.541146 81.882725 
L 438.541146 81.915867 
L 437.541146 81.967104 
L 436.541146 82.035503 
L 435.541146 82.101718 
L 434.541146 82.178635 
L 433.541146 82.205951 
L 432.541146 82.232428 
L 431.541146 82.255079 
L 430.541146 82.27461 
L 429.541146 82.301004 
L 428.541146 82.350775 
L 427.541146 82.385848 
L 426.541146 82.421714 
L 425.541146 82.437081 
L 424.541146 82.45285 
L 423.541146 82.456263 
L 422.541146 82.45868 
L 421.541146 82.458194 
L 420.541146 82.456265 
L 419.541146 82.443008 
L 418.541146 82.434617 
L 417.541146 82.413081 
L 416.541146 82.390048 
L 415.541146 82.372815 
L 414.541146 82.354352 
L 413.541146 82.3339 
L 412.541146 82.3173 
L 411.541146 82.254521 
L 410.541146 82.179256 
L 409.541146 82.146617 
L 408.541146 82.079053 
L 407.541146 82.025006 
L 406.541146 81.991302 
L 405.541146 81.901176 
L 404.541146 81.872641 
L 403.541146 81.841155 
L 402.541146 81.810144 
L 401.541146 81.755336 
L 400.541146 81.690749 
L 399.541146 81.652553 
L 398.541146 81.556619 
L 397.541146 81.507361 
L 396.541146 81.463292 
L 395.541146 81.423168 
L 394.541146 81.314801 
L 393.541146 81.273173 
L 392.541146 81.211031 
L 391.541146 81.141069 
L 390.541146 81.036565 
L 389.541146 80.999577 
L 388.541146 80.9537 
L 387.541146 80.885205 
L 386.541146 80.836459 
L 385.541146 80.758862 
L 384.541146 80.728321 
L 383.541146 80.658807 
L 382.541146 80.634834 
L 381.541146 80.606212 
L 380.541146 80.564419 
L 379.541146 80.542843 
L 378.541146 80.528895 
L 377.541146 80.502173 
L 376.541146 80.492863 
L 375.541146 80.480416 
L 374.541146 80.469361 
L 373.541146 80.463697 
L 372.541146 80.458933 
L 371.541146 80.464481 
L 370.541146 80.477769 
L 369.541146 80.485286 
L 368.541146 80.510071 
L 367.541146 80.53364 
L 366.541146 80.56982 
L 365.541146 80.595782 
L 364.541146 80.618104 
L 363.541146 80.686864 
L 362.541146 80.761399 
L 361.541146 80.855378 
L 360.541146 80.90643 
L 359.541146 80.960364 
L 358.541146 80.995615 
L 357.541146 81.101703 
L 356.541146 81.153967 
L 355.541146 81.190874 
L 354.541146 81.221905 
L 353.541146 81.28306 
L 352.541146 81.35048 
L 351.541146 81.399386 
L 350.541146 81.464578 
L 349.541146 81.502766 
L 348.541146 81.544762 
L 347.541146 81.586779 
L 346.541146 81.646295 
L 345.541146 81.759455 
L 344.541146 81.811706 
L 343.541146 81.851124 
L 342.541146 81.898225 
L 341.541146 81.955005 
L 340.541146 81.987668 
L 339.541146 82.023846 
L 338.541146 82.055936 
L 337.541146 82.090216 
L 336.541146 82.148594 
L 335.541146 82.193779 
L 334.541146 82.223403 
L 333.541146 82.273789 
L 332.541146 82.298986 
L 331.541146 82.320037 
L 330.541146 82.355005 
L 329.541146 82.379295 
L 328.541146 82.393362 
L 327.541146 82.412304 
L 326.541146 82.427965 
L 325.541146 82.440517 
L 324.541146 82.446353 
L 323.541146 82.453235 
L 322.541146 82.458409 
L 321.541146 82.456626 
L 320.541146 82.453901 
L 319.541146 82.442747 
L 318.541146 82.414512 
L 317.541146 82.370724 
L 316.541146 82.350035 
L 315.541146 82.309062 
L 314.541146 82.268987 
L 313.541146 82.249877 
L 312.541146 82.227368 
L 311.541146 82.160717 
L 310.541146 82.111007 
L 309.541146 82.037301 
L 308.541146 82.005987 
L 307.541146 81.929365 
L 306.541146 81.891067 
L 305.541146 81.81695 
L 304.541146 81.712892 
L 303.541146 81.643061 
L 302.541146 81.537827 
L 301.541146 81.482812 
L 300.541146 81.359337 
L 299.541146 81.288778 
L 298.541146 81.172939 
L 297.541146 81.122758 
L 296.182299 81.087154 
" clip-path="url(#p50ef02eb69)" style="fill: none; stroke: #ff7f0e; stroke-linecap: round"/>
         <path d="M 300.182299 83.458875 
L 299.30193 82.983544 
L 298.424023 82.50329 
L 297.57331 81.968649 
L 296.271135 81.281202 
L 297.198489 81.255187 
L 298.110163 80.842467 
L 299.020427 80.426928 
L 300.362923 79.820124 
L 299.708024 80.458875 
L 299.65606 81.458875 
L 299.59697 83.458875 
z
" clip-path="url(#p50ef02eb69)" style="fill: #ffffff; stroke: #ffffff; stroke-width: 3; stroke-linecap: round"/>
         <path d="M 300.182299 83.458875 
L 299.30193 82.983544 
L 298.424023 82.50329 
L 297.57331 81.968649 
L 296.271135 81.281202 
L 297.198489 81.255187 
L 298.110163 80.842467 
L 299.020427 80.426928 
L 300.362923 79.820124 
L 299.708024 80.458875 
L 299.65606 81.458875 
L 299.59697 83.458875 
z
" clip-path="url(#p50ef02eb69)" style="fill: #ffffff; stroke: #ff7f0e; stroke-linecap: round"/>
         <g id="patch_9">
          <path d="M 154.155305 82.02844 
L 155.110896 82.324808 
L 156.065023 82.626481 
L 157.002971 82.986769 
L 157.958274 83.284182 
L 158.90264 83.621218 
L 159.856335 83.924458 
L 160.810868 84.224659 
L 161.759487 84.546285 
L 162.704715 84.880199 
L 163.654844 85.196355 
L 164.603078 85.519379 
L 166.137181 86.034435 
L 167.137209 86.30398 
L 168.104407 86.56152 
L 169.074181 86.807423 
L 170.044916 87.048984 
L 171.016699 87.285815 
L 171.981327 87.554964 
L 172.951653 87.798372 
L 173.921593 88.043525 
L 174.892468 88.284451 
L 175.866412 88.511519 
L 176.840588 88.737535 
L 177.816996 88.953467 
L 178.795416 89.160313 
L 179.774299 89.365067 
L 180.75737 89.550902 
L 181.736148 89.75613 
L 182.719021 89.942855 
L 183.708305 90.100623 
L 184.692708 90.280442 
L 185.677522 90.458401 
L 186.663059 90.633096 
L 187.646505 90.817237 
L 188.637442 90.967536 
L 190.486602 91.3368 
L 191.522797 91.448827 
L 192.52233 91.525726 
L 193.516848 91.636445 
L 194.514596 91.72539 
L 195.520053 91.762354 
L 196.519598 91.839177 
L 197.525347 91.874175 
L 198.521241 91.975614 
L 199.519411 92.06171 
L 200.515705 92.160452 
L 201.516742 92.22722 
L 202.523309 92.2567 
L 203.522789 92.333965 
L 204.524183 92.39832 
L 205.518224 92.512253 
L 206.51492 92.608286 
L 207.514134 92.687344 
L 208.513028 92.768561 
L 209.513491 92.839193 
L 210.506678 92.958889 
L 211.499741 93.079414 
L 212.492243 93.203725 
L 213.484287 93.331121 
L 215.000614 93.529342 
L 215.941027 93.547827 
L 216.940846 93.587719 
L 217.940725 93.62682 
L 218.939069 93.686362 
L 219.937443 93.745503 
L 220.934892 93.816966 
L 221.932267 93.889421 
L 222.929424 93.964772 
L 223.926473 94.041562 
L 224.922675 94.129648 
L 225.91924 94.212881 
L 226.914821 94.309223 
L 227.91029 94.407057 
L 228.906194 94.499108 
L 229.902005 94.592385 
L 230.897668 94.687646 
L 231.893618 94.779066 
L 232.886112 94.916534 
L 233.877671 95.066454 
L 234.872421 95.173868 
L 235.864556 95.316108 
L 236.857704 95.444869 
L 237.852374 95.553345 
L 239.140219 95.740412 
L 240.107779 95.769335 
L 241.107726 95.802451 
L 242.107674 95.835091 
L 243.107584 95.891528 
L 244.107477 95.957745 
L 245.107413 95.99757 
L 246.107256 96.095133 
L 247.107174 96.146021 
L 248.107101 96.191719 
L 249.107034 96.233472 
L 250.106857 96.343469 
L 251.106787 96.386726 
L 252.106685 96.450497 
L 253.106569 96.522089 
L 254.106398 96.628222 
L 255.106336 96.666839 
L 256.10626 96.714346 
L 257.106147 96.784469 
L 258.106066 96.834845 
L 259.105939 96.914072 
L 260.105888 96.946241 
L 261.105773 97.017385 
L 262.105733 97.042988 
L 263.302244 97.073559 
L 264.365304 97.041207 
L 265.36427 96.990891 
L 266.362688 96.932967 
L 267.362025 96.887785 
L 268.36011 96.825235 
L 269.35842 96.765814 
L 270.356631 96.705005 
L 271.354454 96.638819 
L 272.352213 96.571735 
L 273.349231 96.494366 
L 274.345693 96.409276 
L 275.342569 96.329943 
L 276.338206 96.233386 
L 277.333929 96.138043 
L 278.328746 96.03012 
L 279.324298 95.932389 
L 280.320111 95.83829 
L 281.312588 95.697872 
L 282.30465 95.551694 
L 283.295316 95.386121 
L 284.289065 95.263366 
L 285.282607 95.137736 
L 286.277491 95.03074 
L 287.4923 94.836885 
L 288.500183 94.638 
L 289.484382 94.45713 
L 290.46943 94.282075 
L 291.450128 94.07721 
L 292.429923 93.866146 
L 293.41239 93.673403 
L 294.392507 93.464544 
L 295.376521 93.282407 
L 296.359986 93.096501 
L 297.343447 92.910574 
L 298.324383 92.707331 
L 299.297575 92.451007 
L 300.279559 92.254953 
L 301.263396 92.071599 
L 302.246124 91.880641 
L 303.227454 91.680107 
L 304.212266 91.503436 
L 305.196571 91.323287 
L 306.181465 91.147183 
L 307.166044 90.968913 
L 308.147144 90.766796 
L 309.130148 90.577735 
L 310.115398 90.404072 
L 311.478502 90.154306 
L 312.392331 89.92538 
L 313.364466 89.690016 
L 314.333612 89.441059 
L 315.305052 89.202532 
L 316.278687 88.973988 
L 317.251275 88.740684 
L 318.224568 88.510583 
L 319.198529 88.28352 
L 320.173932 88.063016 
L 321.149111 87.841489 
L 322.124657 87.621632 
L 323.101697 87.408568 
L 324.078939 87.196425 
L 325.057992 86.992513 
L 326.040714 86.805285 
L 327.026777 86.633246 
L 328.007878 86.438648 
L 328.993336 86.26386 
L 329.978602 86.088195 
L 330.959364 85.892054 
L 331.940856 85.699232 
L 332.93183 85.549523 
L 333.919164 85.383267 
L 335.567859 85.096124 
L 336.510785 84.867891 
L 337.495197 84.676046 
L 338.469426 84.447256 
L 339.453172 84.252996 
L 340.444874 84.087601 
L 341.427481 83.88921 
L 342.419496 83.724948 
L 343.398166 83.512274 
L 344.395028 83.365598 
L 345.377828 83.167909 
L 346.372661 83.013872 
L 347.816835 82.66788 
" clip-path="url(#p50ef02eb69)" style="fill: none; stroke: #ffffff; stroke-width: 3; stroke-linecap: round"/>
          <path d="M 154.155305 82.02844 
L 155.110896 82.324808 
L 156.065023 82.626481 
L 157.002971 82.986769 
L 157.958274 83.284182 
L 158.90264 83.621218 
L 159.856335 83.924458 
L 160.810868 84.224659 
L 161.759487 84.546285 
L 162.704715 84.880199 
L 163.654844 85.196355 
L 164.603078 85.519379 
L 166.137181 86.034435 
L 167.137209 86.30398 
L 168.104407 86.56152 
L 169.074181 86.807423 
L 170.044916 87.048984 
L 171.016699 87.285815 
L 171.981327 87.554964 
L 172.951653 87.798372 
L 173.921593 88.043525 
L 174.892468 88.284451 
L 175.866412 88.511519 
L 176.840588 88.737535 
L 177.816996 88.953467 
L 178.795416 89.160313 
L 179.774299 89.365067 
L 180.75737 89.550902 
L 181.736148 89.75613 
L 182.719021 89.942855 
L 183.708305 90.100623 
L 184.692708 90.280442 
L 185.677522 90.458401 
L 186.663059 90.633096 
L 187.646505 90.817237 
L 188.637442 90.967536 
L 190.486602 91.3368 
L 191.522797 91.448827 
L 192.52233 91.525726 
L 193.516848 91.636445 
L 194.514596 91.72539 
L 195.520053 91.762354 
L 196.519598 91.839177 
L 197.525347 91.874175 
L 198.521241 91.975614 
L 199.519411 92.06171 
L 200.515705 92.160452 
L 201.516742 92.22722 
L 202.523309 92.2567 
L 203.522789 92.333965 
L 204.524183 92.39832 
L 205.518224 92.512253 
L 206.51492 92.608286 
L 207.514134 92.687344 
L 208.513028 92.768561 
L 209.513491 92.839193 
L 210.506678 92.958889 
L 211.499741 93.079414 
L 212.492243 93.203725 
L 213.484287 93.331121 
L 215.000614 93.529342 
L 215.941027 93.547827 
L 216.940846 93.587719 
L 217.940725 93.62682 
L 218.939069 93.686362 
L 219.937443 93.745503 
L 220.934892 93.816966 
L 221.932267 93.889421 
L 222.929424 93.964772 
L 223.926473 94.041562 
L 224.922675 94.129648 
L 225.91924 94.212881 
L 226.914821 94.309223 
L 227.91029 94.407057 
L 228.906194 94.499108 
L 229.902005 94.592385 
L 230.897668 94.687646 
L 231.893618 94.779066 
L 232.886112 94.916534 
L 233.877671 95.066454 
L 234.872421 95.173868 
L 235.864556 95.316108 
L 236.857704 95.444869 
L 237.852374 95.553345 
L 239.140219 95.740412 
L 240.107779 95.769335 
L 241.107726 95.802451 
L 242.107674 95.835091 
L 243.107584 95.891528 
L 244.107477 95.957745 
L 245.107413 95.99757 
L 246.107256 96.095133 
L 247.107174 96.146021 
L 248.107101 96.191719 
L 249.107034 96.233472 
L 250.106857 96.343469 
L 251.106787 96.386726 
L 252.106685 96.450497 
L 253.106569 96.522089 
L 254.106398 96.628222 
L 255.106336 96.666839 
L 256.10626 96.714346 
L 257.106147 96.784469 
L 258.106066 96.834845 
L 259.105939 96.914072 
L 260.105888 96.946241 
L 261.105773 97.017385 
L 262.105733 97.042988 
L 263.302244 97.073559 
L 264.365304 97.041207 
L 265.36427 96.990891 
L 266.362688 96.932967 
L 267.362025 96.887785 
L 268.36011 96.825235 
L 269.35842 96.765814 
L 270.356631 96.705005 
L 271.354454 96.638819 
L 272.352213 96.571735 
L 273.349231 96.494366 
L 274.345693 96.409276 
L 275.342569 96.329943 
L 276.338206 96.233386 
L 277.333929 96.138043 
L 278.328746 96.03012 
L 279.324298 95.932389 
L 280.320111 95.83829 
L 281.312588 95.697872 
L 282.30465 95.551694 
L 283.295316 95.386121 
L 284.289065 95.263366 
L 285.282607 95.137736 
L 286.277491 95.03074 
L 287.4923 94.836885 
L 288.500183 94.638 
L 289.484382 94.45713 
L 290.46943 94.282075 
L 291.450128 94.07721 
L 292.429923 93.866146 
L 293.41239 93.673403 
L 294.392507 93.464544 
L 295.376521 93.282407 
L 296.359986 93.096501 
L 297.343447 92.910574 
L 298.324383 92.707331 
L 299.297575 92.451007 
L 300.279559 92.254953 
L 301.263396 92.071599 
L 302.246124 91.880641 
L 303.227454 91.680107 
L 304.212266 91.503436 
L 305.196571 91.323287 
L 306.181465 91.147183 
L 307.166044 90.968913 
L 308.147144 90.766796 
L 309.130148 90.577735 
L 310.115398 90.404072 
L 311.478502 90.154306 
L 312.392331 89.92538 
L 313.364466 89.690016 
L 314.333612 89.441059 
L 315.305052 89.202532 
L 316.278687 88.973988 
L 317.251275 88.740684 
L 318.224568 88.510583 
L 319.198529 88.28352 
L 320.173932 88.063016 
L 321.149111 87.841489 
L 322.124657 87.621632 
L 323.101697 87.408568 
L 324.078939 87.196425 
L 325.057992 86.992513 
L 326.040714 86.805285 
L 327.026777 86.633246 
L 328.007878 86.438648 
L 328.993336 86.26386 
L 329.978602 86.088195 
L 330.959364 85.892054 
L 331.940856 85.699232 
L 332.93183 85.549523 
L 333.919164 85.383267 
L 335.567859 85.096124 
L 336.510785 84.867891 
L 337.495197 84.676046 
L 338.469426 84.447256 
L 339.453172 84.252996 
L 340.444874 84.087601 
L 341.427481 83.88921 
L 342.419496 83.724948 
L 343.398166 83.512274 
L 344.395028 83.365598 
L 345.377828 83.167909 
L 346.372661 83.013872 
L 347.816835 82.66788 
" clip-path="url(#p50ef02eb69)" style="fill: none; stroke: #1f77b4; stroke-linecap: round"/>
          <path d="M 343.325666 81.554139 
L 344.3044 81.761665 
L 345.282163 81.974609 
L 346.249188 82.247403 
L 347.692447 82.539369 
L 346.810141 82.826067 
L 346.052021 83.479321 
L 345.296049 84.134882 
L 344.179403 85.095928 
L 344.627391 84.298305 
L 344.394998 83.324296 
L 343.887196 81.388933 
z
" clip-path="url(#p50ef02eb69)" style="fill: #ffffff; stroke: #ffffff; stroke-width: 3; stroke-linecap: round"/>
          <path d="M 343.325666 81.554139 
L 344.3044 81.761665 
L 345.282163 81.974609 
L 346.249188 82.247403 
L 347.692447 82.539369 
L 346.810141 82.826067 
L 346.052021 83.479321 
L 345.296049 84.134882 
L 344.179403 85.095928 
L 344.627391 84.298305 
L 344.394998 83.324296 
L 343.887196 81.388933 
z
" clip-path="url(#p50ef02eb69)" style="fill: #ffffff; stroke: #1f77b4; stroke-linecap: round"/>
          <g id="patch_10">
           <path d="M 489.625264 80.902689 
L 488.661814 80.632961 
L 487.699681 80.35789 
L 486.752093 80.023777 
L 485.788903 79.752996 
L 484.835545 79.442305 
L 482.989901 78.947902 
L 481.975239 78.764216 
L 480.993718 78.564369 
L 480.014017 78.351907 
L 479.031685 78.157678 
L 478.050371 77.956396 
L 477.073232 77.726183 
L 476.090069 77.537714 
L 475.106373 77.35294 
L 474.120975 77.179963 
L 473.134943 77.011387 
L 472.148218 76.847607 
L 471.16622 76.651065 
L 469.728734 76.415443 
L 468.602528 76.370546 
L 467.60269 76.339412 
L 466.602771 76.322473 
L 465.602846 76.306611 
L 464.602861 76.301077 
L 463.602823 76.304848 
L 462.602773 76.310762 
L 461.602611 76.336052 
L 460.602563 76.341481 
L 459.602407 76.36586 
L 458.60208 76.419897 
L 457.601883 76.451349 
L 456.417541 76.483649 
L 455.324554 76.667094 
L 454.338035 76.833986 
L 453.356174 77.035225 
L 452.37051 77.208421 
L 451.385323 77.385132 
L 450.403887 77.589497 
L 449.417855 77.759982 
L 448.434782 77.95228 
L 447.458773 78.19665 
L 446.477347 78.401092 
L 445.501605 78.647431 
L 444.516834 78.827213 
L 443.366816 79.045065 
L 442.409021 79.328457 
L 441.456571 79.643689 
L 440.513044 79.995547 
L 439.558082 80.300469 
L 438.60621 80.618073 
L 436.997756 81.044052 
" clip-path="url(#p50ef02eb69)" style="fill: none; stroke: #ffffff; stroke-width: 3; stroke-linecap: round"/>
           <path d="M 489.625264 80.902689 
L 488.661814 80.632961 
L 487.699681 80.35789 
L 486.752093 80.023777 
L 485.788903 79.752996 
L 484.835545 79.442305 
L 482.989901 78.947902 
L 481.975239 78.764216 
L 480.993718 78.564369 
L 480.014017 78.351907 
L 479.031685 78.157678 
L 478.050371 77.956396 
L 477.073232 77.726183 
L 476.090069 77.537714 
L 475.106373 77.35294 
L 474.120975 77.179963 
L 473.134943 77.011387 
L 472.148218 76.847607 
L 471.16622 76.651065 
L 469.728734 76.415443 
L 468.602528 76.370546 
L 467.60269 76.339412 
L 466.602771 76.322473 
L 465.602846 76.306611 
L 464.602861 76.301077 
L 463.602823 76.304848 
L 462.602773 76.310762 
L 461.602611 76.336052 
L 460.602563 76.341481 
L 459.602407 76.36586 
L 458.60208 76.419897 
L 457.601883 76.451349 
L 456.417541 76.483649 
L 455.324554 76.667094 
L 454.338035 76.833986 
L 453.356174 77.035225 
L 452.37051 77.208421 
L 451.385323 77.385132 
L 450.403887 77.589497 
L 449.417855 77.759982 
L 448.434782 77.95228 
L 447.458773 78.19665 
L 446.477347 78.401092 
L 445.501605 78.647431 
L 444.516834 78.827213 
L 443.366816 79.045065 
L 442.409021 79.328457 
L 441.456571 79.643689 
L 440.513044 79.995547 
L 439.558082 80.300469 
L 438.60621 80.618073 
L 436.997756 81.044052 
" clip-path="url(#p50ef02eb69)" style="fill: none; stroke: #ff7f0e; stroke-linecap: round"/>
           <path d="M 441.280697 81.447467 
L 440.304771 81.227111 
L 439.329888 81.001352 
L 438.366527 80.715887 
L 436.927224 80.405002 
L 437.813218 80.12991 
L 438.579848 79.486664 
L 439.344359 78.841082 
L 440.473524 77.894777 
L 440.015105 78.68645 
L 440.234693 79.663426 
L 440.717046 81.605288 
z
" clip-path="url(#p50ef02eb69)" style="fill: #ffffff; stroke: #ffffff; stroke-width: 3; stroke-linecap: round"/>
           <path d="M 441.280697 81.447467 
L 440.304771 81.227111 
L 439.329888 81.001352 
L 438.366527 80.715887 
L 436.927224 80.405002 
L 437.813218 80.12991 
L 438.579848 79.486664 
L 439.344359 78.841082 
L 440.473524 77.894777 
L 440.015105 78.68645 
L 440.234693 79.663426 
L 440.717046 81.605288 
z
" clip-path="url(#p50ef02eb69)" style="fill: #ffffff; stroke: #ff7f0e; stroke-linecap: round"/>
           <g id="patch_11">
            <path d="M 43.78125 318.021875 
L 43.78125 22.318125 
" style="fill: none; stroke: #000000; stroke-width: 0.8; stroke-linejoin: miter; stroke-linecap: square"/>
           </g>
           <g id="text_13">
            <!-- defaults_deme_ancestors.yaml -->
            <g transform="translate(228.758437 16.318125) scale(0.12 -0.12)">
             <defs>
              <path id="DejaVuSans-66" d="M 2375 4863 
L 2375 4384 
L 1825 4384 
Q 1516 4384 1395 4259 
Q 1275 4134 1275 3809 
L 1275 3500 
L 2222 3500 
L 2222 3053 
L 1275 3053 
L 1275 0 
L 697 0 
L 697 3053 
L 147 3053 
L 147 3500 
L 697 3500 
L 697 3744 
Q 697 4328 969 4595 
Q 1241 4863 1831 4863 
L 2375 4863 
z
" transform="scale(0.015625)"/>
              <path id="DejaVuSans-75" d="M 544 1381 
L 544 3500 
L 1119 3500 
L 1119 1403 
Q 1119 906 1312 657 
Q 1506 409 1894 409 
Q 2359 409 2629 706 
Q 2900 1003 2900 1516 
L 2900 3500 
L 3475 3500 
L 3475 0 
L 2900 0 
L 2900 538 
Q 2691 219 2414 64 
Q 2138 -91 1772 -91 
Q 1169 -91 856 284 
Q 544 659 544 1381 
z
M 1991 3584 
L 1991 3584 
z
" transform="scale(0.015625)"/>
              <path id="DejaVuSans-6c" d="M 603 4863 
L 1178 4863 
L 1178 0 
L 603 0 
L 603 4863 
z
" transform="scale(0.015625)"/>
              <path id="DejaVuSans-5f" d="M 3263 -1063 
L 3263 -1509 
L -63 -1509 
L -63 -1063 
L 3263 -1063 
z
" transform="scale(0.015625)"/>
              <path id="DejaVuSans-63" d="M 3122 3366 
L 3122 2828 
Q 2878 2963 2633 3030 
Q 2388 3097 2138 3097 
Q 1578 3097 1268 2742 
Q 959 2388 959 1747 
Q 959 1106 1268 751 
Q 1578 397 2138 397 
Q 2388 397 2633 464 
Q 2878 531 3122 666 
L 3122 134 
Q 2881 22 2623 -34 
Q 2366 -91 2075 -91 
Q 1284 -91 818 406 
Q 353 903 353 1747 
Q 353 2603 823 3093 
Q 1294 3584 2113 3584 
Q 2378 3584 2631 3529 
Q 2884 3475 3122 3366 
z
" transform="scale(0.015625)"/>
              <path id="DejaVuSans-79" d="M 2059 -325 
Q 1816 -950 1584 -1140 
Q 1353 -1331 966 -1331 
L 506 -1331 
L 506 -850 
L 844 -850 
Q 1081 -850 1212 -737 
Q 1344 -625 1503 -206 
L 1606 56 
L 191 3500 
L 800 3500 
L 1894 763 
L 2988 3500 
L 3597 3500 
L 2059 -325 
z
" transform="scale(0.015625)"/>
             </defs>
             <use xlink:href="#DejaVuSans-64"/>
             <use xlink:href="#DejaVuSans-65" x="63.476562"/>
             <use xlink:href="#DejaVuSans-66" x="125"/>
             <use xlink:href="#DejaVuSans-61" x="160.205078"/>
             <use xlink:href="#DejaVuSans-75" x="221.484375"/>
             <use xlink:href="#DejaVuSans-6c" x="284.863281"/>
             <use xlink:href="#DejaVuSans-74" x="312.646484"/>
             <use xlink:href="#DejaVuSans-73" x="351.855469"/>
             <use xlink:href="#DejaVuSans-5f" x="403.955078"/>
             <use xlink:href="#DejaVuSans-64" x="453.955078"/>
             <use xlink:href="#DejaVuSans-65" x="517.431641"/>
             <use xlink:href="#DejaVuSans-6d" x="578.955078"/>
             <use xlink:href="#DejaVuSans-65" x="676.367188"/>
             <use xlink:href="#DejaVuSans-5f" x="737.890625"/>
             <use xlink:href="#DejaVuSans-61" x="787.890625"/>
             <use xlink:href="#DejaVuSans-6e" x="849.169922"/>
             <use xlink:href="#DejaVuSans-63" x="912.548828"/>
             <use xlink:href="#DejaVuSans-65" x="967.529297"/>
             <use xlink:href="#DejaVuSans-73" x="1029.052734"/>
             <use xlink:href="#DejaVuSans-74" x="1081.152344"/>
             <use xlink:href="#DejaVuSans-6f" x="1120.361328"/>
             <use xlink:href="#DejaVuSans-72" x="1181.542969"/>
             <use xlink:href="#DejaVuSans-73" x="1222.65625"/>
             <use xlink:href="#DejaVuSans-2e" x="1274.755859"/>
             <use xlink:href="#DejaVuSans-79" x="1306.542969"/>
             <use xlink:href="#DejaVuSans-61" x="1365.722656"/>
             <use xlink:href="#DejaVuSans-6d" x="1427.001953"/>
             <use xlink:href="#DejaVuSans-6c" x="1524.414062"/>
            </g>
           </g>
          </g>
         </g>
         <defs>
          <clipPath id="p50ef02eb69">
           <rect x="43.78125" y="22.318125" width="556.21875" height="295.70375"/>
          </clipPath>
         </defs>
        </g>
       </g>
      </g>
     </g>
    </g>
   </g>
  </g>
 </g>
</svg>
