<?xml version="1.0" encoding="utf-8" standalone="no"?>
<!DOCTYPE svg PUBLIC "-//W3C//DTD SVG 1.1//EN"
  "http://www.w3.org/Graphics/SVG/1.1/DTD/svg11.dtd">
<svg xmlns:xlink="http://www.w3.org/1999/xlink" width="504.8pt" height="280.8pt" viewBox="0 0 504.8 280.8" xmlns="http://www.w3.org/2000/svg" version="1.1">
 <metadata>
  <rdf:RDF xmlns:dc="http://purl.org/dc/elements/1.1/" xmlns:cc="http://creativecommons.org/ns#" xmlns:rdf="http://www.w3.org/1999/02/22-rdf-syntax-ns#">
   <cc:Work>
    <dc:type rdf:resource="http://purl.org/dc/dcmitype/StillImage"/>
    <dc:date>2022-04-04T08:22:22.075881</dc:date>
    <dc:format>image/svg+xml</dc:format>
    <dc:creator>
     <cc:Agent>
      <dc:title>Matplotlib v3.5.1, https://matplotlib.org/</dc:title>
     </cc:Agent>
    </dc:creator>
   </cc:Work>
  </rdf:RDF>
 </metadata>
 <defs>
  <style type="text/css">*{stroke-linejoin: round; stroke-linecap: butt}</style>
 </defs>
 <g id="figure_1">
  <g id="patch_1">
   <path d="M 0 280.8 
L 504.8 280.8 
L 504.8 0 
L 0 0 
L 0 280.8 
z
" style="fill: none"/>
  </g>
  <g id="axes_1">
   <g id="patch_2">
    <path d="M 43.78125 260.421875 
L 497.6 260.421875 
L 497.6 22.318125 
L 43.78125 22.318125 
z
" style="fill: #ffffff"/>
   </g>
   <path d="M 296.618831 151.888162 
L 295.618831 151.856726 
L 294.618831 151.819785 
L 293.618831 151.722039 
L 292.618831 151.689517 
L 291.618831 151.615893 
L 290.618831 151.577327 
L 289.618831 151.541914 
L 288.618831 151.484274 
L 287.618831 151.413888 
L 286.618831 151.361924 
L 285.618831 151.302834 
L 284.618831 151.214513 
L 283.618831 151.168369 
L 282.618831 151.125958 
L 281.618831 151.095465 
L 280.618831 151.06942 
L 279.618831 151.04822 
L 278.618831 150.993919 
L 277.618831 150.965981 
L 276.618831 150.936257 
L 275.618831 150.910862 
L 274.618831 150.899662 
L 273.618831 150.889538 
L 272.618831 150.889742 
L 271.618831 150.899252 
L 270.618831 150.910906 
L 269.618831 150.941935 
L 268.618831 150.953103 
L 267.618831 150.983221 
L 266.618831 151.042997 
L 265.618831 151.080189 
L 264.618831 151.119285 
L 263.618831 151.161725 
L 262.618831 151.19449 
L 261.618831 151.261916 
L 260.618831 151.301042 
L 259.618831 151.343717 
L 258.618831 151.414297 
L 257.618831 151.450688 
L 256.618831 151.509091 
L 255.618831 151.620044 
L 254.618831 151.690702 
L 253.618831 151.803642 
L 252.618831 151.849415 
L 251.618831 151.910698 
L 250.618831 151.959198 
L 249.618831 152.04002 
L 248.618831 152.158539 
L 247.618831 152.22875 
L 246.618831 152.312012 
L 244.762419 152.345154 
" clip-path="url(#p407127a2b0)" style="fill: none; stroke: #ff7f0e; stroke-opacity: 0.5; stroke-width: 0.2; stroke-linecap: square"/>
   <path d="M 296.618831 148.164955 
L 295.618831 148.133518 
L 294.618831 148.096578 
L 293.618831 147.998832 
L 292.618831 147.96631 
L 291.618831 147.892685 
L 290.618831 147.85412 
L 289.618831 147.818706 
L 288.618831 147.761067 
L 287.618831 147.69068 
L 286.618831 147.638716 
L 285.618831 147.579626 
L 284.618831 147.491305 
L 283.618831 147.445161 
L 282.618831 147.40275 
L 281.618831 147.372258 
L 280.618831 147.346213 
L 279.618831 147.325012 
L 278.618831 147.270711 
L 277.618831 147.242774 
L 276.618831 147.21305 
L 275.618831 147.187655 
L 274.618831 147.176455 
L 273.618831 147.166331 
L 272.618831 147.166535 
L 271.618831 147.176045 
L 270.618831 147.187698 
L 269.618831 147.218728 
L 268.618831 147.229896 
L 267.618831 147.260013 
L 266.618831 147.31979 
L 265.618831 147.356982 
L 264.618831 147.396078 
L 263.618831 147.438517 
L 262.618831 147.471282 
L 261.618831 147.538709 
L 260.618831 147.577835 
L 259.618831 147.620509 
L 258.618831 147.69109 
L 257.618831 147.727481 
L 256.618831 147.785884 
L 255.618831 147.896837 
L 254.618831 147.967495 
L 253.618831 148.080435 
L 252.618831 148.126208 
L 251.618831 148.187491 
L 250.618831 148.23599 
L 249.618831 148.316813 
L 248.618831 148.435332 
L 247.618831 148.505542 
L 246.618831 148.588805 
L 244.762419 148.621947 
" clip-path="url(#p407127a2b0)" style="fill: none; stroke: #ff7f0e; stroke-opacity: 0.5; stroke-width: 0.2; stroke-linecap: square"/>
   <path d="M 296.618831 74.476137 
L 295.618831 74.444701 
L 294.618831 74.40776 
L 293.618831 74.310014 
L 292.618831 74.277492 
L 291.618831 74.203868 
L 290.618831 74.165302 
L 289.618831 74.129889 
L 288.618831 74.072249 
L 287.618831 74.001863 
L 286.618831 73.949899 
L 285.618831 73.890809 
L 284.618831 73.802488 
L 283.618831 73.756344 
L 282.618831 73.713933 
L 281.618831 73.68344 
L 280.618831 73.657395 
L 279.618831 73.636195 
L 278.618831 73.581894 
L 277.618831 73.553956 
L 276.618831 73.524232 
L 275.618831 73.498837 
L 274.618831 73.487637 
L 273.618831 73.477513 
L 272.618831 73.477717 
L 271.618831 73.487227 
L 270.618831 73.498881 
L 269.618831 73.52991 
L 268.618831 73.541078 
L 267.618831 73.571196 
L 266.618831 73.630973 
L 265.618831 73.668164 
L 264.618831 73.70726 
L 263.618831 73.7497 
L 262.618831 73.782465 
L 261.618831 73.849891 
L 260.618831 73.889017 
L 259.618831 73.931692 
L 258.618831 74.002272 
L 257.618831 74.038663 
L 256.618831 74.097066 
L 255.618831 74.208019 
L 254.618831 74.278677 
L 253.618831 74.391617 
L 252.618831 74.43739 
L 251.618831 74.498673 
L 250.618831 74.547173 
L 249.618831 74.627995 
L 248.618831 74.746514 
L 247.618831 74.816725 
L 246.618831 74.899987 
L 244.762419 74.933129 
" clip-path="url(#p407127a2b0)" style="fill: none; stroke: #ff7f0e; stroke-opacity: 0.5; stroke-width: 0.2; stroke-linecap: square"/>
   <path d="M 296.618831 75.287005 
L 295.618831 75.255569 
L 294.618831 75.218628 
L 293.618831 75.120882 
L 292.618831 75.08836 
L 291.618831 75.014736 
L 290.618831 74.97617 
L 289.618831 74.940757 
L 288.618831 74.883117 
L 287.618831 74.812731 
L 286.618831 74.760767 
L 285.618831 74.701677 
L 284.618831 74.613356 
L 283.618831 74.567211 
L 282.618831 74.524801 
L 281.618831 74.494308 
L 280.618831 74.468263 
L 279.618831 74.447063 
L 278.618831 74.392762 
L 277.618831 74.364824 
L 276.618831 74.3351 
L 275.618831 74.309705 
L 274.618831 74.298505 
L 273.618831 74.288381 
L 272.618831 74.288585 
L 271.618831 74.298095 
L 270.618831 74.309749 
L 269.618831 74.340778 
L 268.618831 74.351946 
L 267.618831 74.382064 
L 266.618831 74.44184 
L 265.618831 74.479032 
L 264.618831 74.518128 
L 263.618831 74.560568 
L 262.618831 74.593333 
L 261.618831 74.660759 
L 260.618831 74.699885 
L 259.618831 74.74256 
L 258.618831 74.81314 
L 257.618831 74.849531 
L 256.618831 74.907934 
L 255.618831 75.018887 
L 254.618831 75.089545 
L 253.618831 75.202485 
L 252.618831 75.248258 
L 251.618831 75.309541 
L 250.618831 75.358041 
L 249.618831 75.438863 
L 248.618831 75.557382 
L 247.618831 75.627593 
L 246.618831 75.710855 
L 244.762419 75.743997 
" clip-path="url(#p407127a2b0)" style="fill: none; stroke: #ff7f0e; stroke-opacity: 0.5; stroke-width: 0.2; stroke-linecap: square"/>
   <path d="M 296.618831 80.325386 
L 295.618831 80.293949 
L 294.618831 80.257009 
L 293.618831 80.159262 
L 292.618831 80.126741 
L 291.618831 80.053116 
L 290.618831 80.014551 
L 289.618831 79.979137 
L 288.618831 79.921498 
L 287.618831 79.851111 
L 286.618831 79.799147 
L 285.618831 79.740057 
L 284.618831 79.651736 
L 283.618831 79.605592 
L 282.618831 79.563181 
L 281.618831 79.532688 
L 280.618831 79.506644 
L 279.618831 79.485443 
L 278.618831 79.431142 
L 277.618831 79.403205 
L 276.618831 79.373481 
L 275.618831 79.348086 
L 274.618831 79.336886 
L 273.618831 79.326762 
L 272.618831 79.326966 
L 271.618831 79.336476 
L 270.618831 79.348129 
L 269.618831 79.379159 
L 268.618831 79.390327 
L 267.618831 79.420444 
L 266.618831 79.480221 
L 265.618831 79.517413 
L 264.618831 79.556509 
L 263.618831 79.598948 
L 262.618831 79.631713 
L 261.618831 79.69914 
L 260.618831 79.738266 
L 259.618831 79.78094 
L 258.618831 79.851521 
L 257.618831 79.887912 
L 256.618831 79.946315 
L 255.618831 80.057268 
L 254.618831 80.127926 
L 253.618831 80.240866 
L 252.618831 80.286639 
L 251.618831 80.347922 
L 250.618831 80.396421 
L 249.618831 80.477244 
L 248.618831 80.595763 
L 247.618831 80.665973 
L 246.618831 80.749236 
L 244.762419 80.782378 
" clip-path="url(#p407127a2b0)" style="fill: none; stroke: #ff7f0e; stroke-opacity: 0.5; stroke-width: 0.2; stroke-linecap: square"/>
   <path d="M 296.618831 138.107418 
L 295.618831 138.075981 
L 294.618831 138.039041 
L 293.618831 137.941294 
L 292.618831 137.908773 
L 291.618831 137.835148 
L 290.618831 137.796583 
L 289.618831 137.761169 
L 288.618831 137.70353 
L 287.618831 137.633143 
L 286.618831 137.581179 
L 285.618831 137.522089 
L 284.618831 137.433768 
L 283.618831 137.387624 
L 282.618831 137.345213 
L 281.618831 137.31472 
L 280.618831 137.288676 
L 279.618831 137.267475 
L 278.618831 137.213174 
L 277.618831 137.185237 
L 276.618831 137.155513 
L 275.618831 137.130118 
L 274.618831 137.118918 
L 273.618831 137.108794 
L 272.618831 137.108998 
L 271.618831 137.118508 
L 270.618831 137.130161 
L 269.618831 137.161191 
L 268.618831 137.172359 
L 267.618831 137.202476 
L 266.618831 137.262253 
L 265.618831 137.299445 
L 264.618831 137.338541 
L 263.618831 137.38098 
L 262.618831 137.413745 
L 261.618831 137.481172 
L 260.618831 137.520298 
L 259.618831 137.562972 
L 258.618831 137.633553 
L 257.618831 137.669944 
L 256.618831 137.728347 
L 255.618831 137.8393 
L 254.618831 137.909958 
L 253.618831 138.022898 
L 252.618831 138.068671 
L 251.618831 138.129954 
L 250.618831 138.178453 
L 249.618831 138.259276 
L 248.618831 138.377795 
L 247.618831 138.448005 
L 246.618831 138.531268 
L 244.762419 138.56441 
" clip-path="url(#p407127a2b0)" style="fill: none; stroke: #ff7f0e; stroke-opacity: 0.5; stroke-width: 0.2; stroke-linecap: square"/>
   <path d="M 296.618831 101.514807 
L 295.618831 101.483371 
L 294.618831 101.44643 
L 293.618831 101.348684 
L 292.618831 101.316162 
L 291.618831 101.242537 
L 290.618831 101.203972 
L 289.618831 101.168559 
L 288.618831 101.110919 
L 287.618831 101.040533 
L 286.618831 100.988568 
L 285.618831 100.929479 
L 284.618831 100.841158 
L 283.618831 100.795013 
L 282.618831 100.752602 
L 281.618831 100.72211 
L 280.618831 100.696065 
L 279.618831 100.674865 
L 278.618831 100.620564 
L 277.618831 100.592626 
L 276.618831 100.562902 
L 275.618831 100.537507 
L 274.618831 100.526307 
L 273.618831 100.516183 
L 272.618831 100.516387 
L 271.618831 100.525897 
L 270.618831 100.537551 
L 269.618831 100.56858 
L 268.618831 100.579748 
L 267.618831 100.609865 
L 266.618831 100.669642 
L 265.618831 100.706834 
L 264.618831 100.74593 
L 263.618831 100.78837 
L 262.618831 100.821135 
L 261.618831 100.888561 
L 260.618831 100.927687 
L 259.618831 100.970362 
L 258.618831 101.040942 
L 257.618831 101.077333 
L 256.618831 101.135736 
L 255.618831 101.246689 
L 254.618831 101.317347 
L 253.618831 101.430287 
L 252.618831 101.47606 
L 251.618831 101.537343 
L 250.618831 101.585842 
L 249.618831 101.666665 
L 248.618831 101.785184 
L 247.618831 101.855395 
L 246.618831 101.938657 
L 244.762419 101.971799 
" clip-path="url(#p407127a2b0)" style="fill: none; stroke: #ff7f0e; stroke-opacity: 0.5; stroke-width: 0.2; stroke-linecap: square"/>
   <path d="M 296.618831 78.362492 
L 295.618831 78.331056 
L 294.618831 78.294115 
L 293.618831 78.196369 
L 292.618831 78.163847 
L 291.618831 78.090223 
L 290.618831 78.051657 
L 289.618831 78.016244 
L 288.618831 77.958604 
L 287.618831 77.888218 
L 286.618831 77.836254 
L 285.618831 77.777164 
L 284.618831 77.688843 
L 283.618831 77.642698 
L 282.618831 77.600288 
L 281.618831 77.569795 
L 280.618831 77.54375 
L 279.618831 77.52255 
L 278.618831 77.468249 
L 277.618831 77.440311 
L 276.618831 77.410587 
L 275.618831 77.385192 
L 274.618831 77.373992 
L 273.618831 77.363868 
L 272.618831 77.364072 
L 271.618831 77.373582 
L 270.618831 77.385236 
L 269.618831 77.416265 
L 268.618831 77.427433 
L 267.618831 77.457551 
L 266.618831 77.517327 
L 265.618831 77.554519 
L 264.618831 77.593615 
L 263.618831 77.636055 
L 262.618831 77.66882 
L 261.618831 77.736246 
L 260.618831 77.775372 
L 259.618831 77.818047 
L 258.618831 77.888627 
L 257.618831 77.925018 
L 256.618831 77.983421 
L 255.618831 78.094374 
L 254.618831 78.165032 
L 253.618831 78.277972 
L 252.618831 78.323745 
L 251.618831 78.385028 
L 250.618831 78.433528 
L 249.618831 78.51435 
L 248.618831 78.632869 
L 247.618831 78.70308 
L 246.618831 78.786342 
L 244.762419 78.819484 
" clip-path="url(#p407127a2b0)" style="fill: none; stroke: #ff7f0e; stroke-opacity: 0.5; stroke-width: 0.2; stroke-linecap: square"/>
   <path d="M 296.618831 117.416214 
L 295.618831 117.384778 
L 294.618831 117.347837 
L 293.618831 117.250091 
L 292.618831 117.217569 
L 291.618831 117.143945 
L 290.618831 117.105379 
L 289.618831 117.069966 
L 288.618831 117.012326 
L 287.618831 116.94194 
L 286.618831 116.889976 
L 285.618831 116.830886 
L 284.618831 116.742565 
L 283.618831 116.696421 
L 282.618831 116.65401 
L 281.618831 116.623517 
L 280.618831 116.597472 
L 279.618831 116.576272 
L 278.618831 116.521971 
L 277.618831 116.494033 
L 276.618831 116.464309 
L 275.618831 116.438914 
L 274.618831 116.427714 
L 273.618831 116.41759 
L 272.618831 116.417794 
L 271.618831 116.427304 
L 270.618831 116.438958 
L 269.618831 116.469987 
L 268.618831 116.481155 
L 267.618831 116.511273 
L 266.618831 116.57105 
L 265.618831 116.608241 
L 264.618831 116.647337 
L 263.618831 116.689777 
L 262.618831 116.722542 
L 261.618831 116.789968 
L 260.618831 116.829094 
L 259.618831 116.871769 
L 258.618831 116.942349 
L 257.618831 116.97874 
L 256.618831 117.037143 
L 255.618831 117.148096 
L 254.618831 117.218754 
L 253.618831 117.331694 
L 252.618831 117.377467 
L 251.618831 117.43875 
L 250.618831 117.48725 
L 249.618831 117.568072 
L 248.618831 117.686591 
L 247.618831 117.756802 
L 246.618831 117.840064 
L 244.762419 117.873206 
" clip-path="url(#p407127a2b0)" style="fill: none; stroke: #ff7f0e; stroke-opacity: 0.5; stroke-width: 0.2; stroke-linecap: square"/>
   <path d="M 296.618831 111.391087 
L 295.618831 111.359651 
L 294.618831 111.32271 
L 293.618831 111.224964 
L 292.618831 111.192442 
L 291.618831 111.118817 
L 290.618831 111.080252 
L 289.618831 111.044839 
L 288.618831 110.987199 
L 287.618831 110.916813 
L 286.618831 110.864848 
L 285.618831 110.805759 
L 284.618831 110.717438 
L 283.618831 110.671293 
L 282.618831 110.628882 
L 281.618831 110.59839 
L 280.618831 110.572345 
L 279.618831 110.551145 
L 278.618831 110.496844 
L 277.618831 110.468906 
L 276.618831 110.439182 
L 275.618831 110.413787 
L 274.618831 110.402587 
L 273.618831 110.392463 
L 272.618831 110.392667 
L 271.618831 110.402177 
L 270.618831 110.413831 
L 269.618831 110.44486 
L 268.618831 110.456028 
L 267.618831 110.486145 
L 266.618831 110.545922 
L 265.618831 110.583114 
L 264.618831 110.62221 
L 263.618831 110.66465 
L 262.618831 110.697415 
L 261.618831 110.764841 
L 260.618831 110.803967 
L 259.618831 110.846642 
L 258.618831 110.917222 
L 257.618831 110.953613 
L 256.618831 111.012016 
L 255.618831 111.122969 
L 254.618831 111.193627 
L 253.618831 111.306567 
L 252.618831 111.35234 
L 251.618831 111.413623 
L 250.618831 111.462122 
L 249.618831 111.542945 
L 248.618831 111.661464 
L 247.618831 111.731675 
L 246.618831 111.814937 
L 244.762419 111.848079 
" clip-path="url(#p407127a2b0)" style="fill: none; stroke: #ff7f0e; stroke-opacity: 0.5; stroke-width: 0.2; stroke-linecap: square"/>
   <path d="M 244.762419 98.683121 
L 245.762419 98.714557 
L 246.762419 98.751498 
L 247.762419 98.849244 
L 248.762419 98.881766 
L 249.762419 98.95539 
L 250.762419 98.993956 
L 251.762419 99.029369 
L 252.762419 99.087009 
L 253.762419 99.157395 
L 254.762419 99.209359 
L 255.762419 99.268449 
L 256.762419 99.35677 
L 257.762419 99.402914 
L 258.762419 99.445325 
L 259.762419 99.475818 
L 260.762419 99.501863 
L 261.762419 99.523063 
L 262.762419 99.577364 
L 263.762419 99.605302 
L 264.762419 99.635026 
L 265.762419 99.660421 
L 266.762419 99.671621 
L 267.762419 99.681745 
L 268.762419 99.681541 
L 269.762419 99.672031 
L 270.762419 99.660377 
L 271.762419 99.629348 
L 272.762419 99.61818 
L 273.762419 99.588062 
L 274.762419 99.528286 
L 275.762419 99.491094 
L 276.762419 99.451998 
L 277.762419 99.409558 
L 278.762419 99.376793 
L 279.762419 99.309367 
L 280.762419 99.270241 
L 281.762419 99.227566 
L 282.762419 99.156986 
L 283.762419 99.120595 
L 284.762419 99.062192 
L 285.762419 98.951239 
L 286.762419 98.880581 
L 287.762419 98.767641 
L 288.762419 98.721868 
L 289.762419 98.660585 
L 290.762419 98.612085 
L 291.762419 98.531263 
L 292.762419 98.412744 
L 293.762419 98.342533 
L 294.762419 98.259271 
L 296.618831 98.226129 
" clip-path="url(#p407127a2b0)" style="fill: none; stroke: #1f77b4; stroke-opacity: 0.5; stroke-width: 0.2; stroke-linecap: square"/>
   <path d="M 244.762419 102.519859 
L 245.762419 102.551295 
L 246.762419 102.588236 
L 247.762419 102.685982 
L 248.762419 102.718504 
L 249.762419 102.792129 
L 250.762419 102.830694 
L 251.762419 102.866107 
L 252.762419 102.923747 
L 253.762419 102.994133 
L 254.762419 103.046098 
L 255.762419 103.105187 
L 256.762419 103.193508 
L 257.762419 103.239653 
L 258.762419 103.282064 
L 259.762419 103.312556 
L 260.762419 103.338601 
L 261.762419 103.359801 
L 262.762419 103.414102 
L 263.762419 103.44204 
L 264.762419 103.471764 
L 265.762419 103.497159 
L 266.762419 103.508359 
L 267.762419 103.518483 
L 268.762419 103.518279 
L 269.762419 103.508769 
L 270.762419 103.497115 
L 271.762419 103.466086 
L 272.762419 103.454918 
L 273.762419 103.424801 
L 274.762419 103.365024 
L 275.762419 103.327832 
L 276.762419 103.288736 
L 277.762419 103.246296 
L 278.762419 103.213531 
L 279.762419 103.146105 
L 280.762419 103.106979 
L 281.762419 103.064304 
L 282.762419 102.993724 
L 283.762419 102.957333 
L 284.762419 102.89893 
L 285.762419 102.787977 
L 286.762419 102.717319 
L 287.762419 102.604379 
L 288.762419 102.558606 
L 289.762419 102.497323 
L 290.762419 102.448824 
L 291.762419 102.368001 
L 292.762419 102.249482 
L 293.762419 102.179271 
L 294.762419 102.096009 
L 296.618831 102.062867 
" clip-path="url(#p407127a2b0)" style="fill: none; stroke: #1f77b4; stroke-opacity: 0.5; stroke-width: 0.2; stroke-linecap: square"/>
   <path d="M 244.762419 127.445411 
L 245.762419 127.476847 
L 246.762419 127.513787 
L 247.762419 127.611534 
L 248.762419 127.644055 
L 249.762419 127.71768 
L 250.762419 127.756246 
L 251.762419 127.791659 
L 252.762419 127.849299 
L 253.762419 127.919685 
L 254.762419 127.971649 
L 255.762419 128.030739 
L 256.762419 128.11906 
L 257.762419 128.165204 
L 258.762419 128.207615 
L 259.762419 128.238108 
L 260.762419 128.264153 
L 261.762419 128.285353 
L 262.762419 128.339654 
L 263.762419 128.367592 
L 264.762419 128.397316 
L 265.762419 128.42271 
L 266.762419 128.433911 
L 267.762419 128.444035 
L 268.762419 128.44383 
L 269.762419 128.43432 
L 270.762419 128.422667 
L 271.762419 128.391638 
L 272.762419 128.38047 
L 273.762419 128.350352 
L 274.762419 128.290575 
L 275.762419 128.253384 
L 276.762419 128.214288 
L 277.762419 128.171848 
L 278.762419 128.139083 
L 279.762419 128.071656 
L 280.762419 128.032531 
L 281.762419 127.989856 
L 282.762419 127.919275 
L 283.762419 127.882885 
L 284.762419 127.824481 
L 285.762419 127.713529 
L 286.762419 127.64287 
L 287.762419 127.529931 
L 288.762419 127.484158 
L 289.762419 127.422874 
L 290.762419 127.374375 
L 291.762419 127.293552 
L 292.762419 127.175034 
L 293.762419 127.104823 
L 294.762419 127.02156 
L 296.618831 126.988419 
" clip-path="url(#p407127a2b0)" style="fill: none; stroke: #1f77b4; stroke-opacity: 0.5; stroke-width: 0.2; stroke-linecap: square"/>
   <path d="M 244.762419 95.452946 
L 245.762419 95.484383 
L 246.762419 95.521323 
L 247.762419 95.61907 
L 248.762419 95.651591 
L 249.762419 95.725216 
L 250.762419 95.763782 
L 251.762419 95.799195 
L 252.762419 95.856835 
L 253.762419 95.927221 
L 254.762419 95.979185 
L 255.762419 96.038275 
L 256.762419 96.126596 
L 257.762419 96.17274 
L 258.762419 96.215151 
L 259.762419 96.245644 
L 260.762419 96.271689 
L 261.762419 96.292889 
L 262.762419 96.34719 
L 263.762419 96.375127 
L 264.762419 96.404851 
L 265.762419 96.430246 
L 266.762419 96.441447 
L 267.762419 96.451571 
L 268.762419 96.451366 
L 269.762419 96.441856 
L 270.762419 96.430203 
L 271.762419 96.399174 
L 272.762419 96.388006 
L 273.762419 96.357888 
L 274.762419 96.298111 
L 275.762419 96.26092 
L 276.762419 96.221824 
L 277.762419 96.179384 
L 278.762419 96.146619 
L 279.762419 96.079192 
L 280.762419 96.040066 
L 281.762419 95.997392 
L 282.762419 95.926811 
L 283.762419 95.89042 
L 284.762419 95.832017 
L 285.762419 95.721065 
L 286.762419 95.650406 
L 287.762419 95.537467 
L 288.762419 95.491694 
L 289.762419 95.43041 
L 290.762419 95.381911 
L 291.762419 95.301088 
L 292.762419 95.182569 
L 293.762419 95.112359 
L 294.762419 95.029096 
L 296.618831 94.995955 
" clip-path="url(#p407127a2b0)" style="fill: none; stroke: #1f77b4; stroke-opacity: 0.5; stroke-width: 0.2; stroke-linecap: square"/>
   <path d="M 244.762419 123.334533 
L 245.762419 123.365969 
L 246.762419 123.402909 
L 247.762419 123.500656 
L 248.762419 123.533177 
L 249.762419 123.606802 
L 250.762419 123.645368 
L 251.762419 123.680781 
L 252.762419 123.738421 
L 253.762419 123.808807 
L 254.762419 123.860771 
L 255.762419 123.919861 
L 256.762419 124.008182 
L 257.762419 124.054326 
L 258.762419 124.096737 
L 259.762419 124.12723 
L 260.762419 124.153275 
L 261.762419 124.174475 
L 262.762419 124.228776 
L 263.762419 124.256714 
L 264.762419 124.286438 
L 265.762419 124.311832 
L 266.762419 124.323033 
L 267.762419 124.333157 
L 268.762419 124.332952 
L 269.762419 124.323443 
L 270.762419 124.311789 
L 271.762419 124.28076 
L 272.762419 124.269592 
L 273.762419 124.239474 
L 274.762419 124.179697 
L 275.762419 124.142506 
L 276.762419 124.10341 
L 277.762419 124.06097 
L 278.762419 124.028205 
L 279.762419 123.960778 
L 280.762419 123.921653 
L 281.762419 123.878978 
L 282.762419 123.808397 
L 283.762419 123.772007 
L 284.762419 123.713603 
L 285.762419 123.602651 
L 286.762419 123.531992 
L 287.762419 123.419053 
L 288.762419 123.37328 
L 289.762419 123.311997 
L 290.762419 123.263497 
L 291.762419 123.182675 
L 292.762419 123.064156 
L 293.762419 122.993945 
L 294.762419 122.910682 
L 296.618831 122.877541 
" clip-path="url(#p407127a2b0)" style="fill: none; stroke: #1f77b4; stroke-opacity: 0.5; stroke-width: 0.2; stroke-linecap: square"/>
   <path d="M 244.762419 87.098943 
L 245.762419 87.130379 
L 246.762419 87.167319 
L 247.762419 87.265066 
L 248.762419 87.297588 
L 249.762419 87.371212 
L 250.762419 87.409778 
L 251.762419 87.445191 
L 252.762419 87.502831 
L 253.762419 87.573217 
L 254.762419 87.625181 
L 255.762419 87.684271 
L 256.762419 87.772592 
L 257.762419 87.818736 
L 258.762419 87.861147 
L 259.762419 87.89164 
L 260.762419 87.917685 
L 261.762419 87.938885 
L 262.762419 87.993186 
L 263.762419 88.021124 
L 264.762419 88.050848 
L 265.762419 88.076242 
L 266.762419 88.087443 
L 267.762419 88.097567 
L 268.762419 88.097362 
L 269.762419 88.087853 
L 270.762419 88.076199 
L 271.762419 88.04517 
L 272.762419 88.034002 
L 273.762419 88.003884 
L 274.762419 87.944107 
L 275.762419 87.906916 
L 276.762419 87.86782 
L 277.762419 87.82538 
L 278.762419 87.792615 
L 279.762419 87.725189 
L 280.762419 87.686063 
L 281.762419 87.643388 
L 282.762419 87.572807 
L 283.762419 87.536417 
L 284.762419 87.478013 
L 285.762419 87.367061 
L 286.762419 87.296403 
L 287.762419 87.183463 
L 288.762419 87.13769 
L 289.762419 87.076407 
L 290.762419 87.027907 
L 291.762419 86.947085 
L 292.762419 86.828566 
L 293.762419 86.758355 
L 294.762419 86.675093 
L 296.618831 86.641951 
" clip-path="url(#p407127a2b0)" style="fill: none; stroke: #1f77b4; stroke-opacity: 0.5; stroke-width: 0.2; stroke-linecap: square"/>
   <path d="M 244.762419 149.1219 
L 245.762419 149.153337 
L 246.762419 149.190277 
L 247.762419 149.288024 
L 248.762419 149.320545 
L 249.762419 149.39417 
L 250.762419 149.432736 
L 251.762419 149.468149 
L 252.762419 149.525789 
L 253.762419 149.596175 
L 254.762419 149.648139 
L 255.762419 149.707229 
L 256.762419 149.79555 
L 257.762419 149.841694 
L 258.762419 149.884105 
L 259.762419 149.914598 
L 260.762419 149.940643 
L 261.762419 149.961843 
L 262.762419 150.016144 
L 263.762419 150.044081 
L 264.762419 150.073805 
L 265.762419 150.0992 
L 266.762419 150.110401 
L 267.762419 150.120524 
L 268.762419 150.12032 
L 269.762419 150.11081 
L 270.762419 150.099157 
L 271.762419 150.068127 
L 272.762419 150.05696 
L 273.762419 150.026842 
L 274.762419 149.967065 
L 275.762419 149.929874 
L 276.762419 149.890777 
L 277.762419 149.848338 
L 278.762419 149.815573 
L 279.762419 149.748146 
L 280.762419 149.70902 
L 281.762419 149.666346 
L 282.762419 149.595765 
L 283.762419 149.559374 
L 284.762419 149.500971 
L 285.762419 149.390019 
L 286.762419 149.31936 
L 287.762419 149.20642 
L 288.762419 149.160648 
L 289.762419 149.099364 
L 290.762419 149.050865 
L 291.762419 148.970042 
L 292.762419 148.851523 
L 293.762419 148.781313 
L 294.762419 148.69805 
L 296.618831 148.664908 
" clip-path="url(#p407127a2b0)" style="fill: none; stroke: #1f77b4; stroke-opacity: 0.5; stroke-width: 0.2; stroke-linecap: square"/>
   <path d="M 244.762419 93.902406 
L 245.762419 93.933842 
L 246.762419 93.970783 
L 247.762419 94.068529 
L 248.762419 94.101051 
L 249.762419 94.174676 
L 250.762419 94.213241 
L 251.762419 94.248654 
L 252.762419 94.306294 
L 253.762419 94.37668 
L 254.762419 94.428645 
L 255.762419 94.487734 
L 256.762419 94.576055 
L 257.762419 94.6222 
L 258.762419 94.664611 
L 259.762419 94.695103 
L 260.762419 94.721148 
L 261.762419 94.742348 
L 262.762419 94.796649 
L 263.762419 94.824587 
L 264.762419 94.854311 
L 265.762419 94.879706 
L 266.762419 94.890906 
L 267.762419 94.90103 
L 268.762419 94.900826 
L 269.762419 94.891316 
L 270.762419 94.879662 
L 271.762419 94.848633 
L 272.762419 94.837465 
L 273.762419 94.807348 
L 274.762419 94.747571 
L 275.762419 94.710379 
L 276.762419 94.671283 
L 277.762419 94.628843 
L 278.762419 94.596078 
L 279.762419 94.528652 
L 280.762419 94.489526 
L 281.762419 94.446851 
L 282.762419 94.376271 
L 283.762419 94.33988 
L 284.762419 94.281477 
L 285.762419 94.170524 
L 286.762419 94.099866 
L 287.762419 93.986926 
L 288.762419 93.941153 
L 289.762419 93.87987 
L 290.762419 93.831371 
L 291.762419 93.750548 
L 292.762419 93.632029 
L 293.762419 93.561818 
L 294.762419 93.478556 
L 296.618831 93.445414 
" clip-path="url(#p407127a2b0)" style="fill: none; stroke: #1f77b4; stroke-opacity: 0.5; stroke-width: 0.2; stroke-linecap: square"/>
   <path d="M 244.762419 82.412353 
L 245.762419 82.443789 
L 246.762419 82.48073 
L 247.762419 82.578476 
L 248.762419 82.610998 
L 249.762419 82.684622 
L 250.762419 82.723188 
L 251.762419 82.758601 
L 252.762419 82.816241 
L 253.762419 82.886627 
L 254.762419 82.938591 
L 255.762419 82.997681 
L 256.762419 83.086002 
L 257.762419 83.132146 
L 258.762419 83.174557 
L 259.762419 83.20505 
L 260.762419 83.231095 
L 261.762419 83.252295 
L 262.762419 83.306596 
L 263.762419 83.334534 
L 264.762419 83.364258 
L 265.762419 83.389653 
L 266.762419 83.400853 
L 267.762419 83.410977 
L 268.762419 83.410773 
L 269.762419 83.401263 
L 270.762419 83.389609 
L 271.762419 83.35858 
L 272.762419 83.347412 
L 273.762419 83.317294 
L 274.762419 83.257517 
L 275.762419 83.220326 
L 276.762419 83.18123 
L 277.762419 83.13879 
L 278.762419 83.106025 
L 279.762419 83.038599 
L 280.762419 82.999473 
L 281.762419 82.956798 
L 282.762419 82.886218 
L 283.762419 82.849827 
L 284.762419 82.791424 
L 285.762419 82.680471 
L 286.762419 82.609813 
L 287.762419 82.496873 
L 288.762419 82.4511 
L 289.762419 82.389817 
L 290.762419 82.341317 
L 291.762419 82.260495 
L 292.762419 82.141976 
L 293.762419 82.071765 
L 294.762419 81.988503 
L 296.618831 81.955361 
" clip-path="url(#p407127a2b0)" style="fill: none; stroke: #1f77b4; stroke-opacity: 0.5; stroke-width: 0.2; stroke-linecap: square"/>
   <path d="M 244.762419 112.794151 
L 245.762419 112.825588 
L 246.762419 112.862528 
L 247.762419 112.960274 
L 248.762419 112.992796 
L 249.762419 113.066421 
L 250.762419 113.104986 
L 251.762419 113.140399 
L 252.762419 113.198039 
L 253.762419 113.268426 
L 254.762419 113.32039 
L 255.762419 113.37948 
L 256.762419 113.467801 
L 257.762419 113.513945 
L 258.762419 113.556356 
L 259.762419 113.586848 
L 260.762419 113.612893 
L 261.762419 113.634094 
L 262.762419 113.688395 
L 263.762419 113.716332 
L 264.762419 113.746056 
L 265.762419 113.771451 
L 266.762419 113.782651 
L 267.762419 113.792775 
L 268.762419 113.792571 
L 269.762419 113.783061 
L 270.762419 113.771408 
L 271.762419 113.740378 
L 272.762419 113.72921 
L 273.762419 113.699093 
L 274.762419 113.639316 
L 275.762419 113.602124 
L 276.762419 113.563028 
L 277.762419 113.520589 
L 278.762419 113.487823 
L 279.762419 113.420397 
L 280.762419 113.381271 
L 281.762419 113.338597 
L 282.762419 113.268016 
L 283.762419 113.231625 
L 284.762419 113.173222 
L 285.762419 113.062269 
L 286.762419 112.991611 
L 287.762419 112.878671 
L 288.762419 112.832898 
L 289.762419 112.771615 
L 290.762419 112.723116 
L 291.762419 112.642293 
L 292.762419 112.523774 
L 293.762419 112.453564 
L 294.762419 112.370301 
L 296.618831 112.337159 
" clip-path="url(#p407127a2b0)" style="fill: none; stroke: #1f77b4; stroke-opacity: 0.5; stroke-width: 0.2; stroke-linecap: square"/>
   <path d="M 296.618831 192.050478 
L 295.618831 192.019042 
L 294.618831 191.982101 
L 293.618831 191.884355 
L 292.618831 191.851833 
L 291.618831 191.778208 
L 290.618831 191.739643 
L 289.618831 191.70423 
L 288.618831 191.64659 
L 287.618831 191.576203 
L 286.618831 191.524239 
L 285.618831 191.465149 
L 284.618831 191.376829 
L 283.618831 191.330684 
L 282.618831 191.288273 
L 281.618831 191.257781 
L 280.618831 191.231736 
L 279.618831 191.210536 
L 278.618831 191.156234 
L 277.618831 191.128297 
L 276.618831 191.098573 
L 275.618831 191.073178 
L 274.618831 191.061978 
L 273.618831 191.051854 
L 272.618831 191.052058 
L 271.618831 191.061568 
L 270.618831 191.073222 
L 269.618831 191.104251 
L 268.618831 191.115419 
L 267.618831 191.145536 
L 266.618831 191.205313 
L 265.618831 191.242505 
L 264.618831 191.281601 
L 263.618831 191.32404 
L 262.618831 191.356806 
L 261.618831 191.424232 
L 260.618831 191.463358 
L 259.618831 191.506032 
L 258.618831 191.576613 
L 257.618831 191.613004 
L 256.618831 191.671407 
L 255.618831 191.78236 
L 254.618831 191.853018 
L 253.618831 191.965958 
L 252.618831 192.011731 
L 251.618831 192.073014 
L 250.618831 192.121513 
L 249.618831 192.202336 
L 248.618831 192.320855 
L 247.618831 192.391066 
L 246.618831 192.474328 
L 244.762419 192.50747 
" clip-path="url(#p407127a2b0)" style="fill: none; stroke: #ff7f0e; stroke-opacity: 0.5; stroke-width: 0.2; stroke-linecap: square"/>
   <path d="M 296.618831 225.759189 
L 295.618831 225.727752 
L 294.618831 225.690812 
L 293.618831 225.593065 
L 292.618831 225.560544 
L 291.618831 225.486919 
L 290.618831 225.448354 
L 289.618831 225.41294 
L 288.618831 225.3553 
L 287.618831 225.284914 
L 286.618831 225.23295 
L 285.618831 225.17386 
L 284.618831 225.085539 
L 283.618831 225.039395 
L 282.618831 224.996984 
L 281.618831 224.966491 
L 280.618831 224.940446 
L 279.618831 224.919246 
L 278.618831 224.864945 
L 277.618831 224.837008 
L 276.618831 224.807284 
L 275.618831 224.781889 
L 274.618831 224.770689 
L 273.618831 224.760565 
L 272.618831 224.760769 
L 271.618831 224.770279 
L 270.618831 224.781932 
L 269.618831 224.812962 
L 268.618831 224.82413 
L 267.618831 224.854247 
L 266.618831 224.914024 
L 265.618831 224.951216 
L 264.618831 224.990312 
L 263.618831 225.032751 
L 262.618831 225.065516 
L 261.618831 225.132943 
L 260.618831 225.172069 
L 259.618831 225.214743 
L 258.618831 225.285324 
L 257.618831 225.321715 
L 256.618831 225.380118 
L 255.618831 225.491071 
L 254.618831 225.561729 
L 253.618831 225.674669 
L 252.618831 225.720442 
L 251.618831 225.781725 
L 250.618831 225.830224 
L 249.618831 225.911047 
L 248.618831 226.029566 
L 247.618831 226.099776 
L 246.618831 226.183039 
L 244.762419 226.216181 
" clip-path="url(#p407127a2b0)" style="fill: none; stroke: #ff7f0e; stroke-opacity: 0.5; stroke-width: 0.2; stroke-linecap: square"/>
   <path d="M 296.618831 178.118094 
L 295.618831 178.086658 
L 294.618831 178.049718 
L 293.618831 177.951971 
L 292.618831 177.91945 
L 291.618831 177.845825 
L 290.618831 177.807259 
L 289.618831 177.771846 
L 288.618831 177.714206 
L 287.618831 177.64382 
L 286.618831 177.591856 
L 285.618831 177.532766 
L 284.618831 177.444445 
L 283.618831 177.398301 
L 282.618831 177.35589 
L 281.618831 177.325397 
L 280.618831 177.299352 
L 279.618831 177.278152 
L 278.618831 177.223851 
L 277.618831 177.195913 
L 276.618831 177.166189 
L 275.618831 177.140795 
L 274.618831 177.129594 
L 273.618831 177.11947 
L 272.618831 177.119675 
L 271.618831 177.129185 
L 270.618831 177.140838 
L 269.618831 177.171867 
L 268.618831 177.183035 
L 267.618831 177.213153 
L 266.618831 177.27293 
L 265.618831 177.310121 
L 264.618831 177.349217 
L 263.618831 177.391657 
L 262.618831 177.424422 
L 261.618831 177.491849 
L 260.618831 177.530975 
L 259.618831 177.573649 
L 258.618831 177.64423 
L 257.618831 177.680621 
L 256.618831 177.739024 
L 255.618831 177.849976 
L 254.618831 177.920635 
L 253.618831 178.033574 
L 252.618831 178.079347 
L 251.618831 178.140631 
L 250.618831 178.18913 
L 249.618831 178.269953 
L 248.618831 178.388471 
L 247.618831 178.458682 
L 246.618831 178.541945 
L 244.762419 178.575086 
" clip-path="url(#p407127a2b0)" style="fill: none; stroke: #ff7f0e; stroke-opacity: 0.5; stroke-width: 0.2; stroke-linecap: square"/>
   <path d="M 296.618831 230.541932 
L 295.618831 230.510495 
L 294.618831 230.473555 
L 293.618831 230.375808 
L 292.618831 230.343287 
L 291.618831 230.269662 
L 290.618831 230.231096 
L 289.618831 230.195683 
L 288.618831 230.138043 
L 287.618831 230.067657 
L 286.618831 230.015693 
L 285.618831 229.956603 
L 284.618831 229.868282 
L 283.618831 229.822138 
L 282.618831 229.779727 
L 281.618831 229.749234 
L 280.618831 229.723189 
L 279.618831 229.701989 
L 278.618831 229.647688 
L 277.618831 229.619751 
L 276.618831 229.590027 
L 275.618831 229.564632 
L 274.618831 229.553431 
L 273.618831 229.543307 
L 272.618831 229.543512 
L 271.618831 229.553022 
L 270.618831 229.564675 
L 269.618831 229.595705 
L 268.618831 229.606872 
L 267.618831 229.63699 
L 266.618831 229.696767 
L 265.618831 229.733958 
L 264.618831 229.773055 
L 263.618831 229.815494 
L 262.618831 229.848259 
L 261.618831 229.915686 
L 260.618831 229.954812 
L 259.618831 229.997486 
L 258.618831 230.068067 
L 257.618831 230.104458 
L 256.618831 230.162861 
L 255.618831 230.273813 
L 254.618831 230.344472 
L 253.618831 230.457412 
L 252.618831 230.503184 
L 251.618831 230.564468 
L 250.618831 230.612967 
L 249.618831 230.69379 
L 248.618831 230.812309 
L 247.618831 230.882519 
L 246.618831 230.965782 
L 244.762419 230.998923 
" clip-path="url(#p407127a2b0)" style="fill: none; stroke: #ff7f0e; stroke-opacity: 0.5; stroke-width: 0.2; stroke-linecap: square"/>
   <path d="M 296.618831 190.578734 
L 295.618831 190.547298 
L 294.618831 190.510358 
L 293.618831 190.412611 
L 292.618831 190.380089 
L 291.618831 190.306465 
L 290.618831 190.267899 
L 289.618831 190.232486 
L 288.618831 190.174846 
L 287.618831 190.10446 
L 286.618831 190.052496 
L 285.618831 189.993406 
L 284.618831 189.905085 
L 283.618831 189.858941 
L 282.618831 189.81653 
L 281.618831 189.786037 
L 280.618831 189.759992 
L 279.618831 189.738792 
L 278.618831 189.684491 
L 277.618831 189.656553 
L 276.618831 189.626829 
L 275.618831 189.601435 
L 274.618831 189.590234 
L 273.618831 189.58011 
L 272.618831 189.580315 
L 271.618831 189.589824 
L 270.618831 189.601478 
L 269.618831 189.632507 
L 268.618831 189.643675 
L 267.618831 189.673793 
L 266.618831 189.73357 
L 265.618831 189.770761 
L 264.618831 189.809857 
L 263.618831 189.852297 
L 262.618831 189.885062 
L 261.618831 189.952488 
L 260.618831 189.991614 
L 259.618831 190.034289 
L 258.618831 190.10487 
L 257.618831 190.14126 
L 256.618831 190.199664 
L 255.618831 190.310616 
L 254.618831 190.381274 
L 253.618831 190.494214 
L 252.618831 190.539987 
L 251.618831 190.60127 
L 250.618831 190.64977 
L 249.618831 190.730592 
L 248.618831 190.849111 
L 247.618831 190.919322 
L 246.618831 191.002584 
L 244.762419 191.035726 
" clip-path="url(#p407127a2b0)" style="fill: none; stroke: #ff7f0e; stroke-opacity: 0.5; stroke-width: 0.2; stroke-linecap: square"/>
   <path d="M 296.618831 203.728993 
L 295.618831 203.697557 
L 294.618831 203.660617 
L 293.618831 203.56287 
L 292.618831 203.530348 
L 291.618831 203.456724 
L 290.618831 203.418158 
L 289.618831 203.382745 
L 288.618831 203.325105 
L 287.618831 203.254719 
L 286.618831 203.202755 
L 285.618831 203.143665 
L 284.618831 203.055344 
L 283.618831 203.0092 
L 282.618831 202.966789 
L 281.618831 202.936296 
L 280.618831 202.910251 
L 279.618831 202.889051 
L 278.618831 202.83475 
L 277.618831 202.806812 
L 276.618831 202.777088 
L 275.618831 202.751694 
L 274.618831 202.740493 
L 273.618831 202.730369 
L 272.618831 202.730574 
L 271.618831 202.740083 
L 270.618831 202.751737 
L 269.618831 202.782766 
L 268.618831 202.793934 
L 267.618831 202.824052 
L 266.618831 202.883829 
L 265.618831 202.92102 
L 264.618831 202.960116 
L 263.618831 203.002556 
L 262.618831 203.035321 
L 261.618831 203.102747 
L 260.618831 203.141873 
L 259.618831 203.184548 
L 258.618831 203.255129 
L 257.618831 203.291519 
L 256.618831 203.349923 
L 255.618831 203.460875 
L 254.618831 203.531533 
L 253.618831 203.644473 
L 252.618831 203.690246 
L 251.618831 203.751529 
L 250.618831 203.800029 
L 249.618831 203.880851 
L 248.618831 203.99937 
L 247.618831 204.069581 
L 246.618831 204.152843 
L 244.762419 204.185985 
" clip-path="url(#p407127a2b0)" style="fill: none; stroke: #ff7f0e; stroke-opacity: 0.5; stroke-width: 0.2; stroke-linecap: square"/>
   <path d="M 296.618831 166.032819 
L 295.618831 166.001382 
L 294.618831 165.964442 
L 293.618831 165.866695 
L 292.618831 165.834174 
L 291.618831 165.760549 
L 290.618831 165.721983 
L 289.618831 165.68657 
L 288.618831 165.62893 
L 287.618831 165.558544 
L 286.618831 165.50658 
L 285.618831 165.44749 
L 284.618831 165.359169 
L 283.618831 165.313025 
L 282.618831 165.270614 
L 281.618831 165.240121 
L 280.618831 165.214076 
L 279.618831 165.192876 
L 278.618831 165.138575 
L 277.618831 165.110638 
L 276.618831 165.080914 
L 275.618831 165.055519 
L 274.618831 165.044318 
L 273.618831 165.034194 
L 272.618831 165.034399 
L 271.618831 165.043909 
L 270.618831 165.055562 
L 269.618831 165.086591 
L 268.618831 165.097759 
L 267.618831 165.127877 
L 266.618831 165.187654 
L 265.618831 165.224845 
L 264.618831 165.263941 
L 263.618831 165.306381 
L 262.618831 165.339146 
L 261.618831 165.406573 
L 260.618831 165.445699 
L 259.618831 165.488373 
L 258.618831 165.558954 
L 257.618831 165.595345 
L 256.618831 165.653748 
L 255.618831 165.7647 
L 254.618831 165.835359 
L 253.618831 165.948298 
L 252.618831 165.994071 
L 251.618831 166.055355 
L 250.618831 166.103854 
L 249.618831 166.184677 
L 248.618831 166.303196 
L 247.618831 166.373406 
L 246.618831 166.456669 
L 244.762419 166.48981 
" clip-path="url(#p407127a2b0)" style="fill: none; stroke: #ff7f0e; stroke-opacity: 0.5; stroke-width: 0.2; stroke-linecap: square"/>
   <path d="M 296.618831 258.482908 
L 295.618831 258.451472 
L 294.618831 258.414532 
L 293.618831 258.316785 
L 292.618831 258.284263 
L 291.618831 258.210639 
L 290.618831 258.172073 
L 289.618831 258.13666 
L 288.618831 258.07902 
L 287.618831 258.008634 
L 286.618831 257.95667 
L 285.618831 257.89758 
L 284.618831 257.809259 
L 283.618831 257.763115 
L 282.618831 257.720704 
L 281.618831 257.690211 
L 280.618831 257.664166 
L 279.618831 257.642966 
L 278.618831 257.588665 
L 277.618831 257.560727 
L 276.618831 257.531003 
L 275.618831 257.505609 
L 274.618831 257.494408 
L 273.618831 257.484284 
L 272.618831 257.484489 
L 271.618831 257.493998 
L 270.618831 257.505652 
L 269.618831 257.536681 
L 268.618831 257.547849 
L 267.618831 257.577967 
L 266.618831 257.637744 
L 265.618831 257.674935 
L 264.618831 257.714031 
L 263.618831 257.756471 
L 262.618831 257.789236 
L 261.618831 257.856662 
L 260.618831 257.895788 
L 259.618831 257.938463 
L 258.618831 258.009043 
L 257.618831 258.045434 
L 256.618831 258.103838 
L 255.618831 258.21479 
L 254.618831 258.285448 
L 253.618831 258.398388 
L 252.618831 258.444161 
L 251.618831 258.505444 
L 250.618831 258.553944 
L 249.618831 258.634766 
L 248.618831 258.753285 
L 247.618831 258.823496 
L 246.618831 258.906758 
L 244.762419 258.9399 
" clip-path="url(#p407127a2b0)" style="fill: none; stroke: #ff7f0e; stroke-opacity: 0.5; stroke-width: 0.2; stroke-linecap: square"/>
   <path d="M 296.618831 257.389321 
L 295.618831 257.357884 
L 294.618831 257.320944 
L 293.618831 257.223197 
L 292.618831 257.190676 
L 291.618831 257.117051 
L 290.618831 257.078486 
L 289.618831 257.043072 
L 288.618831 256.985432 
L 287.618831 256.915046 
L 286.618831 256.863082 
L 285.618831 256.803992 
L 284.618831 256.715671 
L 283.618831 256.669527 
L 282.618831 256.627116 
L 281.618831 256.596623 
L 280.618831 256.570578 
L 279.618831 256.549378 
L 278.618831 256.495077 
L 277.618831 256.46714 
L 276.618831 256.437416 
L 275.618831 256.412021 
L 274.618831 256.400821 
L 273.618831 256.390697 
L 272.618831 256.390901 
L 271.618831 256.400411 
L 270.618831 256.412064 
L 269.618831 256.443094 
L 268.618831 256.454262 
L 267.618831 256.484379 
L 266.618831 256.544156 
L 265.618831 256.581348 
L 264.618831 256.620444 
L 263.618831 256.662883 
L 262.618831 256.695648 
L 261.618831 256.763075 
L 260.618831 256.802201 
L 259.618831 256.844875 
L 258.618831 256.915456 
L 257.618831 256.951847 
L 256.618831 257.01025 
L 255.618831 257.121203 
L 254.618831 257.191861 
L 253.618831 257.304801 
L 252.618831 257.350574 
L 251.618831 257.411857 
L 250.618831 257.460356 
L 249.618831 257.541179 
L 248.618831 257.659698 
L 247.618831 257.729908 
L 246.618831 257.813171 
L 244.762419 257.846313 
" clip-path="url(#p407127a2b0)" style="fill: none; stroke: #ff7f0e; stroke-opacity: 0.5; stroke-width: 0.2; stroke-linecap: square"/>
   <path d="M 296.618831 210.887701 
L 295.618831 210.856265 
L 294.618831 210.819325 
L 293.618831 210.721578 
L 292.618831 210.689057 
L 291.618831 210.615432 
L 290.618831 210.576866 
L 289.618831 210.541453 
L 288.618831 210.483813 
L 287.618831 210.413427 
L 286.618831 210.361463 
L 285.618831 210.302373 
L 284.618831 210.214052 
L 283.618831 210.167908 
L 282.618831 210.125497 
L 281.618831 210.095004 
L 280.618831 210.068959 
L 279.618831 210.047759 
L 278.618831 209.993458 
L 277.618831 209.96552 
L 276.618831 209.935796 
L 275.618831 209.910402 
L 274.618831 209.899201 
L 273.618831 209.889077 
L 272.618831 209.889282 
L 271.618831 209.898791 
L 270.618831 209.910445 
L 269.618831 209.941474 
L 268.618831 209.952642 
L 267.618831 209.98276 
L 266.618831 210.042537 
L 265.618831 210.079728 
L 264.618831 210.118824 
L 263.618831 210.161264 
L 262.618831 210.194029 
L 261.618831 210.261456 
L 260.618831 210.300581 
L 259.618831 210.343256 
L 258.618831 210.413837 
L 257.618831 210.450227 
L 256.618831 210.508631 
L 255.618831 210.619583 
L 254.618831 210.690242 
L 253.618831 210.803181 
L 252.618831 210.848954 
L 251.618831 210.910237 
L 250.618831 210.958737 
L 249.618831 211.039559 
L 248.618831 211.158078 
L 247.618831 211.228289 
L 246.618831 211.311552 
L 244.762419 211.344693 
" clip-path="url(#p407127a2b0)" style="fill: none; stroke: #ff7f0e; stroke-opacity: 0.5; stroke-width: 0.2; stroke-linecap: square"/>
   <path d="M 244.762419 248.559689 
L 245.762419 248.591126 
L 246.762419 248.628066 
L 247.762419 248.725813 
L 248.762419 248.758334 
L 249.762419 248.831959 
L 250.762419 248.870524 
L 251.762419 248.905938 
L 252.762419 248.963577 
L 253.762419 249.033964 
L 254.762419 249.085928 
L 255.762419 249.145018 
L 256.762419 249.233339 
L 257.762419 249.279483 
L 258.762419 249.321894 
L 259.762419 249.352387 
L 260.762419 249.378431 
L 261.762419 249.399632 
L 262.762419 249.453933 
L 263.762419 249.48187 
L 264.762419 249.511594 
L 265.762419 249.536989 
L 266.762419 249.548189 
L 267.762419 249.558313 
L 268.762419 249.558109 
L 269.762419 249.548599 
L 270.762419 249.536946 
L 271.762419 249.505916 
L 272.762419 249.494748 
L 273.762419 249.464631 
L 274.762419 249.404854 
L 275.762419 249.367662 
L 276.762419 249.328566 
L 277.762419 249.286127 
L 278.762419 249.253362 
L 279.762419 249.185935 
L 280.762419 249.146809 
L 281.762419 249.104135 
L 282.762419 249.033554 
L 283.762419 248.997163 
L 284.762419 248.93876 
L 285.762419 248.827807 
L 286.762419 248.757149 
L 287.762419 248.644209 
L 288.762419 248.598436 
L 289.762419 248.537153 
L 290.762419 248.488654 
L 291.762419 248.407831 
L 292.762419 248.289312 
L 293.762419 248.219102 
L 294.762419 248.135839 
L 296.618831 248.102697 
" clip-path="url(#p407127a2b0)" style="fill: none; stroke: #1f77b4; stroke-opacity: 0.5; stroke-width: 0.2; stroke-linecap: square"/>
   <path d="M 244.762419 188.209472 
L 245.762419 188.240909 
L 246.762419 188.277849 
L 247.762419 188.375596 
L 248.762419 188.408117 
L 249.762419 188.481742 
L 250.762419 188.520307 
L 251.762419 188.555721 
L 252.762419 188.613361 
L 253.762419 188.683747 
L 254.762419 188.735711 
L 255.762419 188.794801 
L 256.762419 188.883122 
L 257.762419 188.929266 
L 258.762419 188.971677 
L 259.762419 189.00217 
L 260.762419 189.028215 
L 261.762419 189.049415 
L 262.762419 189.103716 
L 263.762419 189.131653 
L 264.762419 189.161377 
L 265.762419 189.186772 
L 266.762419 189.197972 
L 267.762419 189.208096 
L 268.762419 189.207892 
L 269.762419 189.198382 
L 270.762419 189.186729 
L 271.762419 189.155699 
L 272.762419 189.144531 
L 273.762419 189.114414 
L 274.762419 189.054637 
L 275.762419 189.017445 
L 276.762419 188.978349 
L 277.762419 188.93591 
L 278.762419 188.903145 
L 279.762419 188.835718 
L 280.762419 188.796592 
L 281.762419 188.753918 
L 282.762419 188.683337 
L 283.762419 188.646946 
L 284.762419 188.588543 
L 285.762419 188.47759 
L 286.762419 188.406932 
L 287.762419 188.293992 
L 288.762419 188.248219 
L 289.762419 188.186936 
L 290.762419 188.138437 
L 291.762419 188.057614 
L 292.762419 187.939095 
L 293.762419 187.868885 
L 294.762419 187.785622 
L 296.618831 187.75248 
" clip-path="url(#p407127a2b0)" style="fill: none; stroke: #1f77b4; stroke-opacity: 0.5; stroke-width: 0.2; stroke-linecap: square"/>
   <path d="M 244.762419 222.013367 
L 245.762419 222.044803 
L 246.762419 222.081744 
L 247.762419 222.17949 
L 248.762419 222.212012 
L 249.762419 222.285636 
L 250.762419 222.324202 
L 251.762419 222.359615 
L 252.762419 222.417255 
L 253.762419 222.487641 
L 254.762419 222.539605 
L 255.762419 222.598695 
L 256.762419 222.687016 
L 257.762419 222.73316 
L 258.762419 222.775571 
L 259.762419 222.806064 
L 260.762419 222.832109 
L 261.762419 222.853309 
L 262.762419 222.90761 
L 263.762419 222.935548 
L 264.762419 222.965272 
L 265.762419 222.990667 
L 266.762419 223.001867 
L 267.762419 223.011991 
L 268.762419 223.011787 
L 269.762419 223.002277 
L 270.762419 222.990623 
L 271.762419 222.959594 
L 272.762419 222.948426 
L 273.762419 222.918308 
L 274.762419 222.858531 
L 275.762419 222.82134 
L 276.762419 222.782244 
L 277.762419 222.739804 
L 278.762419 222.707039 
L 279.762419 222.639613 
L 280.762419 222.600487 
L 281.762419 222.557812 
L 282.762419 222.487232 
L 283.762419 222.450841 
L 284.762419 222.392438 
L 285.762419 222.281485 
L 286.762419 222.210827 
L 287.762419 222.097887 
L 288.762419 222.052114 
L 289.762419 221.990831 
L 290.762419 221.942331 
L 291.762419 221.861509 
L 292.762419 221.74299 
L 293.762419 221.672779 
L 294.762419 221.589517 
L 296.618831 221.556375 
" clip-path="url(#p407127a2b0)" style="fill: none; stroke: #1f77b4; stroke-opacity: 0.5; stroke-width: 0.2; stroke-linecap: square"/>
   <path d="M 244.762419 197.938713 
L 245.762419 197.970149 
L 246.762419 198.007089 
L 247.762419 198.104836 
L 248.762419 198.137358 
L 249.762419 198.210982 
L 250.762419 198.249548 
L 251.762419 198.284961 
L 252.762419 198.342601 
L 253.762419 198.412987 
L 254.762419 198.464951 
L 255.762419 198.524041 
L 256.762419 198.612362 
L 257.762419 198.658506 
L 258.762419 198.700917 
L 259.762419 198.73141 
L 260.762419 198.757455 
L 261.762419 198.778655 
L 262.762419 198.832956 
L 263.762419 198.860894 
L 264.762419 198.890618 
L 265.762419 198.916012 
L 266.762419 198.927213 
L 267.762419 198.937337 
L 268.762419 198.937133 
L 269.762419 198.927623 
L 270.762419 198.915969 
L 271.762419 198.88494 
L 272.762419 198.873772 
L 273.762419 198.843654 
L 274.762419 198.783877 
L 275.762419 198.746686 
L 276.762419 198.70759 
L 277.762419 198.66515 
L 278.762419 198.632385 
L 279.762419 198.564959 
L 280.762419 198.525833 
L 281.762419 198.483158 
L 282.762419 198.412578 
L 283.762419 198.376187 
L 284.762419 198.317783 
L 285.762419 198.206831 
L 286.762419 198.136173 
L 287.762419 198.023233 
L 288.762419 197.97746 
L 289.762419 197.916177 
L 290.762419 197.867677 
L 291.762419 197.786855 
L 292.762419 197.668336 
L 293.762419 197.598125 
L 294.762419 197.514863 
L 296.618831 197.481721 
" clip-path="url(#p407127a2b0)" style="fill: none; stroke: #1f77b4; stroke-opacity: 0.5; stroke-width: 0.2; stroke-linecap: square"/>
   <path d="M 244.762419 208.744296 
L 245.762419 208.775732 
L 246.762419 208.812673 
L 247.762419 208.910419 
L 248.762419 208.942941 
L 249.762419 209.016565 
L 250.762419 209.055131 
L 251.762419 209.090544 
L 252.762419 209.148184 
L 253.762419 209.21857 
L 254.762419 209.270534 
L 255.762419 209.329624 
L 256.762419 209.417945 
L 257.762419 209.464089 
L 258.762419 209.5065 
L 259.762419 209.536993 
L 260.762419 209.563038 
L 261.762419 209.584238 
L 262.762419 209.638539 
L 263.762419 209.666477 
L 264.762419 209.696201 
L 265.762419 209.721596 
L 266.762419 209.732796 
L 267.762419 209.74292 
L 268.762419 209.742716 
L 269.762419 209.733206 
L 270.762419 209.721552 
L 271.762419 209.690523 
L 272.762419 209.679355 
L 273.762419 209.649237 
L 274.762419 209.589461 
L 275.762419 209.552269 
L 276.762419 209.513173 
L 277.762419 209.470733 
L 278.762419 209.437968 
L 279.762419 209.370542 
L 280.762419 209.331416 
L 281.762419 209.288741 
L 282.762419 209.218161 
L 283.762419 209.18177 
L 284.762419 209.123367 
L 285.762419 209.012414 
L 286.762419 208.941756 
L 287.762419 208.828816 
L 288.762419 208.783043 
L 289.762419 208.72176 
L 290.762419 208.67326 
L 291.762419 208.592438 
L 292.762419 208.473919 
L 293.762419 208.403708 
L 294.762419 208.320446 
L 296.618831 208.287304 
" clip-path="url(#p407127a2b0)" style="fill: none; stroke: #1f77b4; stroke-opacity: 0.5; stroke-width: 0.2; stroke-linecap: square"/>
   <path d="M 244.762419 251.192803 
L 245.762419 251.224239 
L 246.762419 251.26118 
L 247.762419 251.358926 
L 248.762419 251.391448 
L 249.762419 251.465073 
L 250.762419 251.503638 
L 251.762419 251.539051 
L 252.762419 251.596691 
L 253.762419 251.667077 
L 254.762419 251.719042 
L 255.762419 251.778131 
L 256.762419 251.866452 
L 257.762419 251.912597 
L 258.762419 251.955008 
L 259.762419 251.9855 
L 260.762419 252.011545 
L 261.762419 252.032745 
L 262.762419 252.087046 
L 263.762419 252.114984 
L 264.762419 252.144708 
L 265.762419 252.170103 
L 266.762419 252.181303 
L 267.762419 252.191427 
L 268.762419 252.191223 
L 269.762419 252.181713 
L 270.762419 252.170059 
L 271.762419 252.13903 
L 272.762419 252.127862 
L 273.762419 252.097745 
L 274.762419 252.037968 
L 275.762419 252.000776 
L 276.762419 251.96168 
L 277.762419 251.91924 
L 278.762419 251.886475 
L 279.762419 251.819049 
L 280.762419 251.779923 
L 281.762419 251.737248 
L 282.762419 251.666668 
L 283.762419 251.630277 
L 284.762419 251.571874 
L 285.762419 251.460921 
L 286.762419 251.390263 
L 287.762419 251.277323 
L 288.762419 251.23155 
L 289.762419 251.170267 
L 290.762419 251.121768 
L 291.762419 251.040945 
L 292.762419 250.922426 
L 293.762419 250.852215 
L 294.762419 250.768953 
L 296.618831 250.735811 
" clip-path="url(#p407127a2b0)" style="fill: none; stroke: #1f77b4; stroke-opacity: 0.5; stroke-width: 0.2; stroke-linecap: square"/>
   <path d="M 244.762419 235.535844 
L 245.762419 235.567281 
L 246.762419 235.604221 
L 247.762419 235.701968 
L 248.762419 235.734489 
L 249.762419 235.808114 
L 250.762419 235.84668 
L 251.762419 235.882093 
L 252.762419 235.939733 
L 253.762419 236.010119 
L 254.762419 236.062083 
L 255.762419 236.121173 
L 256.762419 236.209494 
L 257.762419 236.255638 
L 258.762419 236.298049 
L 259.762419 236.328542 
L 260.762419 236.354587 
L 261.762419 236.375787 
L 262.762419 236.430088 
L 263.762419 236.458025 
L 264.762419 236.487749 
L 265.762419 236.513144 
L 266.762419 236.524345 
L 267.762419 236.534469 
L 268.762419 236.534264 
L 269.762419 236.524754 
L 270.762419 236.513101 
L 271.762419 236.482071 
L 272.762419 236.470904 
L 273.762419 236.440786 
L 274.762419 236.381009 
L 275.762419 236.343818 
L 276.762419 236.304721 
L 277.762419 236.262282 
L 278.762419 236.229517 
L 279.762419 236.16209 
L 280.762419 236.122964 
L 281.762419 236.08029 
L 282.762419 236.009709 
L 283.762419 235.973318 
L 284.762419 235.914915 
L 285.762419 235.803963 
L 286.762419 235.733304 
L 287.762419 235.620364 
L 288.762419 235.574592 
L 289.762419 235.513308 
L 290.762419 235.464809 
L 291.762419 235.383986 
L 292.762419 235.265467 
L 293.762419 235.195257 
L 294.762419 235.111994 
L 296.618831 235.078853 
" clip-path="url(#p407127a2b0)" style="fill: none; stroke: #1f77b4; stroke-opacity: 0.5; stroke-width: 0.2; stroke-linecap: square"/>
   <path d="M 244.762419 251.856378 
L 245.762419 251.887815 
L 246.762419 251.924755 
L 247.762419 252.022501 
L 248.762419 252.055023 
L 249.762419 252.128648 
L 250.762419 252.167213 
L 251.762419 252.202626 
L 252.762419 252.260266 
L 253.762419 252.330653 
L 254.762419 252.382617 
L 255.762419 252.441707 
L 256.762419 252.530028 
L 257.762419 252.576172 
L 258.762419 252.618583 
L 259.762419 252.649075 
L 260.762419 252.67512 
L 261.762419 252.69632 
L 262.762419 252.750622 
L 263.762419 252.778559 
L 264.762419 252.808283 
L 265.762419 252.833678 
L 266.762419 252.844878 
L 267.762419 252.855002 
L 268.762419 252.854798 
L 269.762419 252.845288 
L 270.762419 252.833634 
L 271.762419 252.802605 
L 272.762419 252.791437 
L 273.762419 252.76132 
L 274.762419 252.701543 
L 275.762419 252.664351 
L 276.762419 252.625255 
L 277.762419 252.582816 
L 278.762419 252.55005 
L 279.762419 252.482624 
L 280.762419 252.443498 
L 281.762419 252.400824 
L 282.762419 252.330243 
L 283.762419 252.293852 
L 284.762419 252.235449 
L 285.762419 252.124496 
L 286.762419 252.053838 
L 287.762419 251.940898 
L 288.762419 251.895125 
L 289.762419 251.833842 
L 290.762419 251.785343 
L 291.762419 251.70452 
L 292.762419 251.586001 
L 293.762419 251.51579 
L 294.762419 251.432528 
L 296.618831 251.399386 
" clip-path="url(#p407127a2b0)" style="fill: none; stroke: #1f77b4; stroke-opacity: 0.5; stroke-width: 0.2; stroke-linecap: square"/>
   <path d="M 244.762419 241.13306 
L 245.762419 241.164496 
L 246.762419 241.201437 
L 247.762419 241.299183 
L 248.762419 241.331705 
L 249.762419 241.40533 
L 250.762419 241.443895 
L 251.762419 241.479308 
L 252.762419 241.536948 
L 253.762419 241.607334 
L 254.762419 241.659299 
L 255.762419 241.718388 
L 256.762419 241.806709 
L 257.762419 241.852854 
L 258.762419 241.895265 
L 259.762419 241.925757 
L 260.762419 241.951802 
L 261.762419 241.973002 
L 262.762419 242.027303 
L 263.762419 242.055241 
L 264.762419 242.084965 
L 265.762419 242.11036 
L 266.762419 242.12156 
L 267.762419 242.131684 
L 268.762419 242.13148 
L 269.762419 242.12197 
L 270.762419 242.110316 
L 271.762419 242.079287 
L 272.762419 242.068119 
L 273.762419 242.038002 
L 274.762419 241.978225 
L 275.762419 241.941033 
L 276.762419 241.901937 
L 277.762419 241.859497 
L 278.762419 241.826732 
L 279.762419 241.759306 
L 280.762419 241.72018 
L 281.762419 241.677505 
L 282.762419 241.606925 
L 283.762419 241.570534 
L 284.762419 241.512131 
L 285.762419 241.401178 
L 286.762419 241.33052 
L 287.762419 241.21758 
L 288.762419 241.171807 
L 289.762419 241.110524 
L 290.762419 241.062025 
L 291.762419 240.981202 
L 292.762419 240.862683 
L 293.762419 240.792472 
L 294.762419 240.70921 
L 296.618831 240.676068 
" clip-path="url(#p407127a2b0)" style="fill: none; stroke: #1f77b4; stroke-opacity: 0.5; stroke-width: 0.2; stroke-linecap: square"/>
   <path d="M 244.762419 179.420114 
L 245.762419 179.45155 
L 246.762419 179.488491 
L 247.762419 179.586237 
L 248.762419 179.618759 
L 249.762419 179.692384 
L 250.762419 179.730949 
L 251.762419 179.766362 
L 252.762419 179.824002 
L 253.762419 179.894388 
L 254.762419 179.946353 
L 255.762419 180.005442 
L 256.762419 180.093763 
L 257.762419 180.139908 
L 258.762419 180.182319 
L 259.762419 180.212811 
L 260.762419 180.238856 
L 261.762419 180.260056 
L 262.762419 180.314357 
L 263.762419 180.342295 
L 264.762419 180.372019 
L 265.762419 180.397414 
L 266.762419 180.408614 
L 267.762419 180.418738 
L 268.762419 180.418534 
L 269.762419 180.409024 
L 270.762419 180.39737 
L 271.762419 180.366341 
L 272.762419 180.355173 
L 273.762419 180.325056 
L 274.762419 180.265279 
L 275.762419 180.228087 
L 276.762419 180.188991 
L 277.762419 180.146551 
L 278.762419 180.113786 
L 279.762419 180.04636 
L 280.762419 180.007234 
L 281.762419 179.964559 
L 282.762419 179.893979 
L 283.762419 179.857588 
L 284.762419 179.799185 
L 285.762419 179.688232 
L 286.762419 179.617574 
L 287.762419 179.504634 
L 288.762419 179.458861 
L 289.762419 179.397578 
L 290.762419 179.349079 
L 291.762419 179.268256 
L 292.762419 179.149737 
L 293.762419 179.079526 
L 294.762419 178.996264 
L 296.618831 178.963122 
" clip-path="url(#p407127a2b0)" style="fill: none; stroke: #1f77b4; stroke-opacity: 0.5; stroke-width: 0.2; stroke-linecap: square"/>
   <g id="patch_3">
    <path d="M 64.409375 22.318125 
L 64.409375 260.421875 
M 240.224232 22.318125 
L 240.224232 260.421875 
" clip-path="url(#p407127a2b0)" style="fill: none; stroke: #ffffff; stroke-width: 3; stroke-linejoin: miter"/>
    <path d="M 64.409375 22.318125 
L 64.409375 260.421875 
M 240.224232 22.318125 
L 240.224232 260.421875 
" clip-path="url(#p407127a2b0)" style="fill: none; stroke: #1f77b4; stroke-linejoin: miter"/>
    <g id="PolyCollection_1">
     <path d="M 240.224232 22.318125 
L 64.409375 22.318125 
L 64.409375 260.421875 
L 240.224232 260.421875 
L 240.224232 260.421875 
L 240.224232 22.318125 
z
" clip-path="url(#p407127a2b0)" style="fill: #1f77b4; fill-opacity: 0.5"/>
    </g>
    <g id="patch_4">
     <path d="M 301.157018 22.318125 
L 301.157018 260.421875 
M 476.971875 22.318125 
L 476.971875 260.421875 
" clip-path="url(#p407127a2b0)" style="fill: none; stroke: #ffffff; stroke-width: 3; stroke-linejoin: miter"/>
     <path d="M 301.157018 22.318125 
L 301.157018 260.421875 
M 476.971875 22.318125 
L 476.971875 260.421875 
" clip-path="url(#p407127a2b0)" style="fill: none; stroke: #ff7f0e; stroke-linejoin: miter"/>
     <g id="PolyCollection_2">
      <path d="M 476.971875 22.318125 
L 301.157018 22.318125 
L 301.157018 260.421875 
L 476.971875 260.421875 
L 476.971875 260.421875 
L 476.971875 22.318125 
z
" clip-path="url(#p407127a2b0)" style="fill: #ff7f0e; fill-opacity: 0.5"/>
     </g>
     <g id="matplotlib.axis_1">
      <g id="xtick_1">
       <g id="line2d_1"/>
       <g id="text_1">
        <!-- deme0 -->
        <g transform="translate(134.937897 271.520312)scale(0.1 -0.1)">
         <defs>
          <path id="DejaVuSans-64" d="M 2906 2969 
L 2906 4863 
L 3481 4863 
L 3481 0 
L 2906 0 
L 2906 525 
Q 2725 213 2448 61 
Q 2172 -91 1784 -91 
Q 1150 -91 751 415 
Q 353 922 353 1747 
Q 353 2572 751 3078 
Q 1150 3584 1784 3584 
Q 2172 3584 2448 3432 
Q 2725 3281 2906 2969 
z
M 947 1747 
Q 947 1113 1208 752 
Q 1469 391 1925 391 
Q 2381 391 2643 752 
Q 2906 1113 2906 1747 
Q 2906 2381 2643 2742 
Q 2381 3103 1925 3103 
Q 1469 3103 1208 2742 
Q 947 2381 947 1747 
z
" transform="scale(0.015625)"/>
          <path id="DejaVuSans-65" d="M 3597 1894 
L 3597 1613 
L 953 1613 
Q 991 1019 1311 708 
Q 1631 397 2203 397 
Q 2534 397 2845 478 
Q 3156 559 3463 722 
L 3463 178 
Q 3153 47 2828 -22 
Q 2503 -91 2169 -91 
Q 1331 -91 842 396 
Q 353 884 353 1716 
Q 353 2575 817 3079 
Q 1281 3584 2069 3584 
Q 2775 3584 3186 3129 
Q 3597 2675 3597 1894 
z
M 3022 2063 
Q 3016 2534 2758 2815 
Q 2500 3097 2075 3097 
Q 1594 3097 1305 2825 
Q 1016 2553 972 2059 
L 3022 2063 
z
" transform="scale(0.015625)"/>
          <path id="DejaVuSans-6d" d="M 3328 2828 
Q 3544 3216 3844 3400 
Q 4144 3584 4550 3584 
Q 5097 3584 5394 3201 
Q 5691 2819 5691 2113 
L 5691 0 
L 5113 0 
L 5113 2094 
Q 5113 2597 4934 2840 
Q 4756 3084 4391 3084 
Q 3944 3084 3684 2787 
Q 3425 2491 3425 1978 
L 3425 0 
L 2847 0 
L 2847 2094 
Q 2847 2600 2669 2842 
Q 2491 3084 2119 3084 
Q 1678 3084 1418 2786 
Q 1159 2488 1159 1978 
L 1159 0 
L 581 0 
L 581 3500 
L 1159 3500 
L 1159 2956 
Q 1356 3278 1631 3431 
Q 1906 3584 2284 3584 
Q 2666 3584 2933 3390 
Q 3200 3197 3328 2828 
z
" transform="scale(0.015625)"/>
          <path id="DejaVuSans-30" d="M 2034 4250 
Q 1547 4250 1301 3770 
Q 1056 3291 1056 2328 
Q 1056 1369 1301 889 
Q 1547 409 2034 409 
Q 2525 409 2770 889 
Q 3016 1369 3016 2328 
Q 3016 3291 2770 3770 
Q 2525 4250 2034 4250 
z
M 2034 4750 
Q 2819 4750 3233 4129 
Q 3647 3509 3647 2328 
Q 3647 1150 3233 529 
Q 2819 -91 2034 -91 
Q 1250 -91 836 529 
Q 422 1150 422 2328 
Q 422 3509 836 4129 
Q 1250 4750 2034 4750 
z
" transform="scale(0.015625)"/>
         </defs>
         <use xlink:href="#DejaVuSans-64"/>
         <use xlink:href="#DejaVuSans-65" x="63.476562"/>
         <use xlink:href="#DejaVuSans-6d" x="125"/>
         <use xlink:href="#DejaVuSans-65" x="222.412109"/>
         <use xlink:href="#DejaVuSans-30" x="283.935547"/>
        </g>
       </g>
      </g>
      <g id="xtick_2">
       <g id="line2d_2"/>
       <g id="text_2">
        <!-- deme1 -->
        <g transform="translate(371.68554 271.520312)scale(0.1 -0.1)">
         <defs>
          <path id="DejaVuSans-31" d="M 794 531 
L 1825 531 
L 1825 4091 
L 703 3866 
L 703 4441 
L 1819 4666 
L 2450 4666 
L 2450 531 
L 3481 531 
L 3481 0 
L 794 0 
L 794 531 
z
" transform="scale(0.015625)"/>
         </defs>
         <use xlink:href="#DejaVuSans-64"/>
         <use xlink:href="#DejaVuSans-65" x="63.476562"/>
         <use xlink:href="#DejaVuSans-6d" x="125"/>
         <use xlink:href="#DejaVuSans-65" x="222.412109"/>
         <use xlink:href="#DejaVuSans-31" x="283.935547"/>
        </g>
       </g>
      </g>
     </g>
     <g id="matplotlib.axis_2">
      <g id="ytick_1">
       <g id="line2d_3">
        <defs>
         <path id="m30d5e5835d" d="M 0 0 
L -3.5 0 
" style="stroke: #000000; stroke-width: 0.8"/>
        </defs>
        <g>
         <use xlink:href="#m30d5e5835d" x="43.78125" y="260.421875" style="stroke: #000000; stroke-width: 0.8"/>
        </g>
       </g>
       <g id="text_3">
        <!-- 0.0 -->
        <g transform="translate(20.878125 264.221094)scale(0.1 -0.1)">
         <defs>
          <path id="DejaVuSans-2e" d="M 684 794 
L 1344 794 
L 1344 0 
L 684 0 
L 684 794 
z
" transform="scale(0.015625)"/>
         </defs>
         <use xlink:href="#DejaVuSans-30"/>
         <use xlink:href="#DejaVuSans-2e" x="63.623047"/>
         <use xlink:href="#DejaVuSans-30" x="95.410156"/>
        </g>
       </g>
      </g>
      <g id="ytick_2">
       <g id="line2d_4">
        <g>
         <use xlink:href="#m30d5e5835d" x="43.78125" y="212.801125" style="stroke: #000000; stroke-width: 0.8"/>
        </g>
       </g>
       <g id="text_4">
        <!-- 0.5 -->
        <g transform="translate(20.878125 216.600344)scale(0.1 -0.1)">
         <defs>
          <path id="DejaVuSans-35" d="M 691 4666 
L 3169 4666 
L 3169 4134 
L 1269 4134 
L 1269 2991 
Q 1406 3038 1543 3061 
Q 1681 3084 1819 3084 
Q 2600 3084 3056 2656 
Q 3513 2228 3513 1497 
Q 3513 744 3044 326 
Q 2575 -91 1722 -91 
Q 1428 -91 1123 -41 
Q 819 9 494 109 
L 494 744 
Q 775 591 1075 516 
Q 1375 441 1709 441 
Q 2250 441 2565 725 
Q 2881 1009 2881 1497 
Q 2881 1984 2565 2268 
Q 2250 2553 1709 2553 
Q 1456 2553 1204 2497 
Q 953 2441 691 2322 
L 691 4666 
z
" transform="scale(0.015625)"/>
         </defs>
         <use xlink:href="#DejaVuSans-30"/>
         <use xlink:href="#DejaVuSans-2e" x="63.623047"/>
         <use xlink:href="#DejaVuSans-35" x="95.410156"/>
        </g>
       </g>
      </g>
      <g id="ytick_3">
       <g id="line2d_5">
        <g>
         <use xlink:href="#m30d5e5835d" x="43.78125" y="165.180375" style="stroke: #000000; stroke-width: 0.8"/>
        </g>
       </g>
       <g id="text_5">
        <!-- 1.0 -->
        <g transform="translate(20.878125 168.979594)scale(0.1 -0.1)">
         <use xlink:href="#DejaVuSans-31"/>
         <use xlink:href="#DejaVuSans-2e" x="63.623047"/>
         <use xlink:href="#DejaVuSans-30" x="95.410156"/>
        </g>
       </g>
      </g>
      <g id="ytick_4">
       <g id="line2d_6">
        <g>
         <use xlink:href="#m30d5e5835d" x="43.78125" y="117.559625" style="stroke: #000000; stroke-width: 0.8"/>
        </g>
       </g>
       <g id="text_6">
        <!-- 1.5 -->
        <g transform="translate(20.878125 121.358844)scale(0.1 -0.1)">
         <use xlink:href="#DejaVuSans-31"/>
         <use xlink:href="#DejaVuSans-2e" x="63.623047"/>
         <use xlink:href="#DejaVuSans-35" x="95.410156"/>
        </g>
       </g>
      </g>
      <g id="ytick_5">
       <g id="line2d_7">
        <g>
         <use xlink:href="#m30d5e5835d" x="43.78125" y="69.938875" style="stroke: #000000; stroke-width: 0.8"/>
        </g>
       </g>
       <g id="text_7">
        <!-- 2.0 -->
        <g transform="translate(20.878125 73.738094)scale(0.1 -0.1)">
         <defs>
          <path id="DejaVuSans-32" d="M 1228 531 
L 3431 531 
L 3431 0 
L 469 0 
L 469 531 
Q 828 903 1448 1529 
Q 2069 2156 2228 2338 
Q 2531 2678 2651 2914 
Q 2772 3150 2772 3378 
Q 2772 3750 2511 3984 
Q 2250 4219 1831 4219 
Q 1534 4219 1204 4116 
Q 875 4013 500 3803 
L 500 4441 
Q 881 4594 1212 4672 
Q 1544 4750 1819 4750 
Q 2544 4750 2975 4387 
Q 3406 4025 3406 3419 
Q 3406 3131 3298 2873 
Q 3191 2616 2906 2266 
Q 2828 2175 2409 1742 
Q 1991 1309 1228 531 
z
" transform="scale(0.015625)"/>
         </defs>
         <use xlink:href="#DejaVuSans-32"/>
         <use xlink:href="#DejaVuSans-2e" x="63.623047"/>
         <use xlink:href="#DejaVuSans-30" x="95.410156"/>
        </g>
       </g>
      </g>
      <g id="ytick_6">
       <g id="line2d_8">
        <g>
         <use xlink:href="#m30d5e5835d" x="43.78125" y="22.318125" style="stroke: #000000; stroke-width: 0.8"/>
        </g>
       </g>
       <g id="text_8">
        <!-- 2.5 -->
        <g transform="translate(20.878125 26.117344)scale(0.1 -0.1)">
         <use xlink:href="#DejaVuSans-32"/>
         <use xlink:href="#DejaVuSans-2e" x="63.623047"/>
         <use xlink:href="#DejaVuSans-35" x="95.410156"/>
        </g>
       </g>
      </g>
      <g id="text_9">
       <!-- time ago (generations) -->
       <g transform="translate(14.798438 198.841094)rotate(-90)scale(0.1 -0.1)">
        <defs>
         <path id="DejaVuSans-74" d="M 1172 4494 
L 1172 3500 
L 2356 3500 
L 2356 3053 
L 1172 3053 
L 1172 1153 
Q 1172 725 1289 603 
Q 1406 481 1766 481 
L 2356 481 
L 2356 0 
L 1766 0 
Q 1100 0 847 248 
Q 594 497 594 1153 
L 594 3053 
L 172 3053 
L 172 3500 
L 594 3500 
L 594 4494 
L 1172 4494 
z
" transform="scale(0.015625)"/>
         <path id="DejaVuSans-69" d="M 603 3500 
L 1178 3500 
L 1178 0 
L 603 0 
L 603 3500 
z
M 603 4863 
L 1178 4863 
L 1178 4134 
L 603 4134 
L 603 4863 
z
" transform="scale(0.015625)"/>
         <path id="DejaVuSans-20" transform="scale(0.015625)"/>
         <path id="DejaVuSans-61" d="M 2194 1759 
Q 1497 1759 1228 1600 
Q 959 1441 959 1056 
Q 959 750 1161 570 
Q 1363 391 1709 391 
Q 2188 391 2477 730 
Q 2766 1069 2766 1631 
L 2766 1759 
L 2194 1759 
z
M 3341 1997 
L 3341 0 
L 2766 0 
L 2766 531 
Q 2569 213 2275 61 
Q 1981 -91 1556 -91 
Q 1019 -91 701 211 
Q 384 513 384 1019 
Q 384 1609 779 1909 
Q 1175 2209 1959 2209 
L 2766 2209 
L 2766 2266 
Q 2766 2663 2505 2880 
Q 2244 3097 1772 3097 
Q 1472 3097 1187 3025 
Q 903 2953 641 2809 
L 641 3341 
Q 956 3463 1253 3523 
Q 1550 3584 1831 3584 
Q 2591 3584 2966 3190 
Q 3341 2797 3341 1997 
z
" transform="scale(0.015625)"/>
         <path id="DejaVuSans-67" d="M 2906 1791 
Q 2906 2416 2648 2759 
Q 2391 3103 1925 3103 
Q 1463 3103 1205 2759 
Q 947 2416 947 1791 
Q 947 1169 1205 825 
Q 1463 481 1925 481 
Q 2391 481 2648 825 
Q 2906 1169 2906 1791 
z
M 3481 434 
Q 3481 -459 3084 -895 
Q 2688 -1331 1869 -1331 
Q 1566 -1331 1297 -1286 
Q 1028 -1241 775 -1147 
L 775 -588 
Q 1028 -725 1275 -790 
Q 1522 -856 1778 -856 
Q 2344 -856 2625 -561 
Q 2906 -266 2906 331 
L 2906 616 
Q 2728 306 2450 153 
Q 2172 0 1784 0 
Q 1141 0 747 490 
Q 353 981 353 1791 
Q 353 2603 747 3093 
Q 1141 3584 1784 3584 
Q 2172 3584 2450 3431 
Q 2728 3278 2906 2969 
L 2906 3500 
L 3481 3500 
L 3481 434 
z
" transform="scale(0.015625)"/>
         <path id="DejaVuSans-6f" d="M 1959 3097 
Q 1497 3097 1228 2736 
Q 959 2375 959 1747 
Q 959 1119 1226 758 
Q 1494 397 1959 397 
Q 2419 397 2687 759 
Q 2956 1122 2956 1747 
Q 2956 2369 2687 2733 
Q 2419 3097 1959 3097 
z
M 1959 3584 
Q 2709 3584 3137 3096 
Q 3566 2609 3566 1747 
Q 3566 888 3137 398 
Q 2709 -91 1959 -91 
Q 1206 -91 779 398 
Q 353 888 353 1747 
Q 353 2609 779 3096 
Q 1206 3584 1959 3584 
z
" transform="scale(0.015625)"/>
         <path id="DejaVuSans-28" d="M 1984 4856 
Q 1566 4138 1362 3434 
Q 1159 2731 1159 2009 
Q 1159 1288 1364 580 
Q 1569 -128 1984 -844 
L 1484 -844 
Q 1016 -109 783 600 
Q 550 1309 550 2009 
Q 550 2706 781 3412 
Q 1013 4119 1484 4856 
L 1984 4856 
z
" transform="scale(0.015625)"/>
         <path id="DejaVuSans-6e" d="M 3513 2113 
L 3513 0 
L 2938 0 
L 2938 2094 
Q 2938 2591 2744 2837 
Q 2550 3084 2163 3084 
Q 1697 3084 1428 2787 
Q 1159 2491 1159 1978 
L 1159 0 
L 581 0 
L 581 3500 
L 1159 3500 
L 1159 2956 
Q 1366 3272 1645 3428 
Q 1925 3584 2291 3584 
Q 2894 3584 3203 3211 
Q 3513 2838 3513 2113 
z
" transform="scale(0.015625)"/>
         <path id="DejaVuSans-72" d="M 2631 2963 
Q 2534 3019 2420 3045 
Q 2306 3072 2169 3072 
Q 1681 3072 1420 2755 
Q 1159 2438 1159 1844 
L 1159 0 
L 581 0 
L 581 3500 
L 1159 3500 
L 1159 2956 
Q 1341 3275 1631 3429 
Q 1922 3584 2338 3584 
Q 2397 3584 2469 3576 
Q 2541 3569 2628 3553 
L 2631 2963 
z
" transform="scale(0.015625)"/>
         <path id="DejaVuSans-73" d="M 2834 3397 
L 2834 2853 
Q 2591 2978 2328 3040 
Q 2066 3103 1784 3103 
Q 1356 3103 1142 2972 
Q 928 2841 928 2578 
Q 928 2378 1081 2264 
Q 1234 2150 1697 2047 
L 1894 2003 
Q 2506 1872 2764 1633 
Q 3022 1394 3022 966 
Q 3022 478 2636 193 
Q 2250 -91 1575 -91 
Q 1294 -91 989 -36 
Q 684 19 347 128 
L 347 722 
Q 666 556 975 473 
Q 1284 391 1588 391 
Q 1994 391 2212 530 
Q 2431 669 2431 922 
Q 2431 1156 2273 1281 
Q 2116 1406 1581 1522 
L 1381 1569 
Q 847 1681 609 1914 
Q 372 2147 372 2553 
Q 372 3047 722 3315 
Q 1072 3584 1716 3584 
Q 2034 3584 2315 3537 
Q 2597 3491 2834 3397 
z
" transform="scale(0.015625)"/>
         <path id="DejaVuSans-29" d="M 513 4856 
L 1013 4856 
Q 1481 4119 1714 3412 
Q 1947 2706 1947 2009 
Q 1947 1309 1714 600 
Q 1481 -109 1013 -844 
L 513 -844 
Q 928 -128 1133 580 
Q 1338 1288 1338 2009 
Q 1338 2731 1133 3434 
Q 928 4138 513 4856 
z
" transform="scale(0.015625)"/>
        </defs>
        <use xlink:href="#DejaVuSans-74"/>
        <use xlink:href="#DejaVuSans-69" x="39.208984"/>
        <use xlink:href="#DejaVuSans-6d" x="66.992188"/>
        <use xlink:href="#DejaVuSans-65" x="164.404297"/>
        <use xlink:href="#DejaVuSans-20" x="225.927734"/>
        <use xlink:href="#DejaVuSans-61" x="257.714844"/>
        <use xlink:href="#DejaVuSans-67" x="318.994141"/>
        <use xlink:href="#DejaVuSans-6f" x="382.470703"/>
        <use xlink:href="#DejaVuSans-20" x="443.652344"/>
        <use xlink:href="#DejaVuSans-28" x="475.439453"/>
        <use xlink:href="#DejaVuSans-67" x="514.453125"/>
        <use xlink:href="#DejaVuSans-65" x="577.929688"/>
        <use xlink:href="#DejaVuSans-6e" x="639.453125"/>
        <use xlink:href="#DejaVuSans-65" x="702.832031"/>
        <use xlink:href="#DejaVuSans-72" x="764.355469"/>
        <use xlink:href="#DejaVuSans-61" x="805.46875"/>
        <use xlink:href="#DejaVuSans-74" x="866.748047"/>
        <use xlink:href="#DejaVuSans-69" x="905.957031"/>
        <use xlink:href="#DejaVuSans-6f" x="933.740234"/>
        <use xlink:href="#DejaVuSans-6e" x="994.921875"/>
        <use xlink:href="#DejaVuSans-73" x="1058.300781"/>
        <use xlink:href="#DejaVuSans-29" x="1110.400391"/>
       </g>
      </g>
     </g>
     <path d="M 243.762419 151.888162 
L 245.762419 152.888162 
L 245.762419 150.888162 
z
" clip-path="url(#p407127a2b0)" style="fill: #ff7f0e; fill-opacity: 0.5; stroke: #ff7f0e; stroke-opacity: 0.5; stroke-linejoin: miter"/>
     <path d="M 243.762419 148.164955 
L 245.762419 149.164955 
L 245.762419 147.164955 
z
" clip-path="url(#p407127a2b0)" style="fill: #ff7f0e; fill-opacity: 0.5; stroke: #ff7f0e; stroke-opacity: 0.5; stroke-linejoin: miter"/>
     <path d="M 243.762419 74.476137 
L 245.762419 75.476137 
L 245.762419 73.476137 
z
" clip-path="url(#p407127a2b0)" style="fill: #ff7f0e; fill-opacity: 0.5; stroke: #ff7f0e; stroke-opacity: 0.5; stroke-linejoin: miter"/>
     <path d="M 243.762419 75.287005 
L 245.762419 76.287005 
L 245.762419 74.287005 
z
" clip-path="url(#p407127a2b0)" style="fill: #ff7f0e; fill-opacity: 0.5; stroke: #ff7f0e; stroke-opacity: 0.5; stroke-linejoin: miter"/>
     <path d="M 243.762419 80.325386 
L 245.762419 81.325386 
L 245.762419 79.325386 
z
" clip-path="url(#p407127a2b0)" style="fill: #ff7f0e; fill-opacity: 0.5; stroke: #ff7f0e; stroke-opacity: 0.5; stroke-linejoin: miter"/>
     <path d="M 243.762419 138.107418 
L 245.762419 139.107418 
L 245.762419 137.107418 
z
" clip-path="url(#p407127a2b0)" style="fill: #ff7f0e; fill-opacity: 0.5; stroke: #ff7f0e; stroke-opacity: 0.5; stroke-linejoin: miter"/>
     <path d="M 243.762419 101.514807 
L 245.762419 102.514807 
L 245.762419 100.514807 
z
" clip-path="url(#p407127a2b0)" style="fill: #ff7f0e; fill-opacity: 0.5; stroke: #ff7f0e; stroke-opacity: 0.5; stroke-linejoin: miter"/>
     <path d="M 243.762419 78.362492 
L 245.762419 79.362492 
L 245.762419 77.362492 
z
" clip-path="url(#p407127a2b0)" style="fill: #ff7f0e; fill-opacity: 0.5; stroke: #ff7f0e; stroke-opacity: 0.5; stroke-linejoin: miter"/>
     <path d="M 243.762419 117.416214 
L 245.762419 118.416214 
L 245.762419 116.416214 
z
" clip-path="url(#p407127a2b0)" style="fill: #ff7f0e; fill-opacity: 0.5; stroke: #ff7f0e; stroke-opacity: 0.5; stroke-linejoin: miter"/>
     <path d="M 243.762419 111.391087 
L 245.762419 112.391087 
L 245.762419 110.391087 
z
" clip-path="url(#p407127a2b0)" style="fill: #ff7f0e; fill-opacity: 0.5; stroke: #ff7f0e; stroke-opacity: 0.5; stroke-linejoin: miter"/>
     <path d="M 297.618831 98.683121 
L 295.618831 97.683121 
L 295.618831 99.683121 
z
" clip-path="url(#p407127a2b0)" style="fill: #1f77b4; fill-opacity: 0.5; stroke: #1f77b4; stroke-opacity: 0.5; stroke-linejoin: miter"/>
     <path d="M 297.618831 102.519859 
L 295.618831 101.519859 
L 295.618831 103.519859 
z
" clip-path="url(#p407127a2b0)" style="fill: #1f77b4; fill-opacity: 0.5; stroke: #1f77b4; stroke-opacity: 0.5; stroke-linejoin: miter"/>
     <path d="M 297.618831 127.445411 
L 295.618831 126.445411 
L 295.618831 128.445411 
z
" clip-path="url(#p407127a2b0)" style="fill: #1f77b4; fill-opacity: 0.5; stroke: #1f77b4; stroke-opacity: 0.5; stroke-linejoin: miter"/>
     <path d="M 297.618831 95.452946 
L 295.618831 94.452946 
L 295.618831 96.452946 
z
" clip-path="url(#p407127a2b0)" style="fill: #1f77b4; fill-opacity: 0.5; stroke: #1f77b4; stroke-opacity: 0.5; stroke-linejoin: miter"/>
     <path d="M 297.618831 123.334533 
L 295.618831 122.334533 
L 295.618831 124.334533 
z
" clip-path="url(#p407127a2b0)" style="fill: #1f77b4; fill-opacity: 0.5; stroke: #1f77b4; stroke-opacity: 0.5; stroke-linejoin: miter"/>
     <path d="M 297.618831 87.098943 
L 295.618831 86.098943 
L 295.618831 88.098943 
z
" clip-path="url(#p407127a2b0)" style="fill: #1f77b4; fill-opacity: 0.5; stroke: #1f77b4; stroke-opacity: 0.5; stroke-linejoin: miter"/>
     <path d="M 297.618831 149.1219 
L 295.618831 148.1219 
L 295.618831 150.1219 
z
" clip-path="url(#p407127a2b0)" style="fill: #1f77b4; fill-opacity: 0.5; stroke: #1f77b4; stroke-opacity: 0.5; stroke-linejoin: miter"/>
     <path d="M 297.618831 93.902406 
L 295.618831 92.902406 
L 295.618831 94.902406 
z
" clip-path="url(#p407127a2b0)" style="fill: #1f77b4; fill-opacity: 0.5; stroke: #1f77b4; stroke-opacity: 0.5; stroke-linejoin: miter"/>
     <path d="M 297.618831 82.412353 
L 295.618831 81.412353 
L 295.618831 83.412353 
z
" clip-path="url(#p407127a2b0)" style="fill: #1f77b4; fill-opacity: 0.5; stroke: #1f77b4; stroke-opacity: 0.5; stroke-linejoin: miter"/>
     <path d="M 297.618831 112.794151 
L 295.618831 111.794151 
L 295.618831 113.794151 
z
" clip-path="url(#p407127a2b0)" style="fill: #1f77b4; fill-opacity: 0.5; stroke: #1f77b4; stroke-opacity: 0.5; stroke-linejoin: miter"/>
     <path d="M 243.762419 192.050478 
L 245.762419 193.050478 
L 245.762419 191.050478 
z
" clip-path="url(#p407127a2b0)" style="fill: #ff7f0e; fill-opacity: 0.5; stroke: #ff7f0e; stroke-opacity: 0.5; stroke-linejoin: miter"/>
     <path d="M 243.762419 225.759189 
L 245.762419 226.759189 
L 245.762419 224.759189 
z
" clip-path="url(#p407127a2b0)" style="fill: #ff7f0e; fill-opacity: 0.5; stroke: #ff7f0e; stroke-opacity: 0.5; stroke-linejoin: miter"/>
     <path d="M 243.762419 178.118094 
L 245.762419 179.118094 
L 245.762419 177.118094 
z
" clip-path="url(#p407127a2b0)" style="fill: #ff7f0e; fill-opacity: 0.5; stroke: #ff7f0e; stroke-opacity: 0.5; stroke-linejoin: miter"/>
     <path d="M 243.762419 230.541932 
L 245.762419 231.541932 
L 245.762419 229.541932 
z
" clip-path="url(#p407127a2b0)" style="fill: #ff7f0e; fill-opacity: 0.5; stroke: #ff7f0e; stroke-opacity: 0.5; stroke-linejoin: miter"/>
     <path d="M 243.762419 190.578734 
L 245.762419 191.578734 
L 245.762419 189.578734 
z
" clip-path="url(#p407127a2b0)" style="fill: #ff7f0e; fill-opacity: 0.5; stroke: #ff7f0e; stroke-opacity: 0.5; stroke-linejoin: miter"/>
     <path d="M 243.762419 203.728993 
L 245.762419 204.728993 
L 245.762419 202.728993 
z
" clip-path="url(#p407127a2b0)" style="fill: #ff7f0e; fill-opacity: 0.5; stroke: #ff7f0e; stroke-opacity: 0.5; stroke-linejoin: miter"/>
     <path d="M 243.762419 166.032819 
L 245.762419 167.032819 
L 245.762419 165.032819 
z
" clip-path="url(#p407127a2b0)" style="fill: #ff7f0e; fill-opacity: 0.5; stroke: #ff7f0e; stroke-opacity: 0.5; stroke-linejoin: miter"/>
     <path d="M 243.762419 258.482908 
L 245.762419 259.482908 
L 245.762419 257.482908 
z
" clip-path="url(#p407127a2b0)" style="fill: #ff7f0e; fill-opacity: 0.5; stroke: #ff7f0e; stroke-opacity: 0.5; stroke-linejoin: miter"/>
     <path d="M 243.762419 257.389321 
L 245.762419 258.389321 
L 245.762419 256.389321 
z
" clip-path="url(#p407127a2b0)" style="fill: #ff7f0e; fill-opacity: 0.5; stroke: #ff7f0e; stroke-opacity: 0.5; stroke-linejoin: miter"/>
     <path d="M 243.762419 210.887701 
L 245.762419 211.887701 
L 245.762419 209.887701 
z
" clip-path="url(#p407127a2b0)" style="fill: #ff7f0e; fill-opacity: 0.5; stroke: #ff7f0e; stroke-opacity: 0.5; stroke-linejoin: miter"/>
     <path d="M 297.618831 248.559689 
L 295.618831 247.559689 
L 295.618831 249.559689 
z
" clip-path="url(#p407127a2b0)" style="fill: #1f77b4; fill-opacity: 0.5; stroke: #1f77b4; stroke-opacity: 0.5; stroke-linejoin: miter"/>
     <path d="M 297.618831 188.209472 
L 295.618831 187.209472 
L 295.618831 189.209472 
z
" clip-path="url(#p407127a2b0)" style="fill: #1f77b4; fill-opacity: 0.5; stroke: #1f77b4; stroke-opacity: 0.5; stroke-linejoin: miter"/>
     <path d="M 297.618831 222.013367 
L 295.618831 221.013367 
L 295.618831 223.013367 
z
" clip-path="url(#p407127a2b0)" style="fill: #1f77b4; fill-opacity: 0.5; stroke: #1f77b4; stroke-opacity: 0.5; stroke-linejoin: miter"/>
     <path d="M 297.618831 197.938713 
L 295.618831 196.938713 
L 295.618831 198.938713 
z
" clip-path="url(#p407127a2b0)" style="fill: #1f77b4; fill-opacity: 0.5; stroke: #1f77b4; stroke-opacity: 0.5; stroke-linejoin: miter"/>
     <path d="M 297.618831 208.744296 
L 295.618831 207.744296 
L 295.618831 209.744296 
z
" clip-path="url(#p407127a2b0)" style="fill: #1f77b4; fill-opacity: 0.5; stroke: #1f77b4; stroke-opacity: 0.5; stroke-linejoin: miter"/>
     <path d="M 297.618831 251.192803 
L 295.618831 250.192803 
L 295.618831 252.192803 
z
" clip-path="url(#p407127a2b0)" style="fill: #1f77b4; fill-opacity: 0.5; stroke: #1f77b4; stroke-opacity: 0.5; stroke-linejoin: miter"/>
     <path d="M 297.618831 235.535844 
L 295.618831 234.535844 
L 295.618831 236.535844 
z
" clip-path="url(#p407127a2b0)" style="fill: #1f77b4; fill-opacity: 0.5; stroke: #1f77b4; stroke-opacity: 0.5; stroke-linejoin: miter"/>
     <path d="M 297.618831 251.856378 
L 295.618831 250.856378 
L 295.618831 252.856378 
z
" clip-path="url(#p407127a2b0)" style="fill: #1f77b4; fill-opacity: 0.5; stroke: #1f77b4; stroke-opacity: 0.5; stroke-linejoin: miter"/>
     <path d="M 297.618831 241.13306 
L 295.618831 240.13306 
L 295.618831 242.13306 
z
" clip-path="url(#p407127a2b0)" style="fill: #1f77b4; fill-opacity: 0.5; stroke: #1f77b4; stroke-opacity: 0.5; stroke-linejoin: miter"/>
     <path d="M 297.618831 179.420114 
L 295.618831 178.420114 
L 295.618831 180.420114 
z
" clip-path="url(#p407127a2b0)" style="fill: #1f77b4; fill-opacity: 0.5; stroke: #1f77b4; stroke-opacity: 0.5; stroke-linejoin: miter"/>
     <g id="patch_5">
      <path d="M 43.78125 260.421875 
L 43.78125 22.318125 
" style="fill: none; stroke: #000000; stroke-width: 0.8; stroke-linejoin: miter; stroke-linecap: square"/>
     </g>
     <g id="text_10">
      <!-- defaults_symmetric_migration_changing_rate.yaml -->
      <g transform="translate(117.1525 16.318125)scale(0.12 -0.12)">
       <defs>
        <path id="DejaVuSans-66" d="M 2375 4863 
L 2375 4384 
L 1825 4384 
Q 1516 4384 1395 4259 
Q 1275 4134 1275 3809 
L 1275 3500 
L 2222 3500 
L 2222 3053 
L 1275 3053 
L 1275 0 
L 697 0 
L 697 3053 
L 147 3053 
L 147 3500 
L 697 3500 
L 697 3744 
Q 697 4328 969 4595 
Q 1241 4863 1831 4863 
L 2375 4863 
z
" transform="scale(0.015625)"/>
        <path id="DejaVuSans-75" d="M 544 1381 
L 544 3500 
L 1119 3500 
L 1119 1403 
Q 1119 906 1312 657 
Q 1506 409 1894 409 
Q 2359 409 2629 706 
Q 2900 1003 2900 1516 
L 2900 3500 
L 3475 3500 
L 3475 0 
L 2900 0 
L 2900 538 
Q 2691 219 2414 64 
Q 2138 -91 1772 -91 
Q 1169 -91 856 284 
Q 544 659 544 1381 
z
M 1991 3584 
L 1991 3584 
z
" transform="scale(0.015625)"/>
        <path id="DejaVuSans-6c" d="M 603 4863 
L 1178 4863 
L 1178 0 
L 603 0 
L 603 4863 
z
" transform="scale(0.015625)"/>
        <path id="DejaVuSans-5f" d="M 3263 -1063 
L 3263 -1509 
L -63 -1509 
L -63 -1063 
L 3263 -1063 
z
" transform="scale(0.015625)"/>
        <path id="DejaVuSans-79" d="M 2059 -325 
Q 1816 -950 1584 -1140 
Q 1353 -1331 966 -1331 
L 506 -1331 
L 506 -850 
L 844 -850 
Q 1081 -850 1212 -737 
Q 1344 -625 1503 -206 
L 1606 56 
L 191 3500 
L 800 3500 
L 1894 763 
L 2988 3500 
L 3597 3500 
L 2059 -325 
z
" transform="scale(0.015625)"/>
        <path id="DejaVuSans-63" d="M 3122 3366 
L 3122 2828 
Q 2878 2963 2633 3030 
Q 2388 3097 2138 3097 
Q 1578 3097 1268 2742 
Q 959 2388 959 1747 
Q 959 1106 1268 751 
Q 1578 397 2138 397 
Q 2388 397 2633 464 
Q 2878 531 3122 666 
L 3122 134 
Q 2881 22 2623 -34 
Q 2366 -91 2075 -91 
Q 1284 -91 818 406 
Q 353 903 353 1747 
Q 353 2603 823 3093 
Q 1294 3584 2113 3584 
Q 2378 3584 2631 3529 
Q 2884 3475 3122 3366 
z
" transform="scale(0.015625)"/>
        <path id="DejaVuSans-68" d="M 3513 2113 
L 3513 0 
L 2938 0 
L 2938 2094 
Q 2938 2591 2744 2837 
Q 2550 3084 2163 3084 
Q 1697 3084 1428 2787 
Q 1159 2491 1159 1978 
L 1159 0 
L 581 0 
L 581 4863 
L 1159 4863 
L 1159 2956 
Q 1366 3272 1645 3428 
Q 1925 3584 2291 3584 
Q 2894 3584 3203 3211 
Q 3513 2838 3513 2113 
z
" transform="scale(0.015625)"/>
       </defs>
       <use xlink:href="#DejaVuSans-64"/>
       <use xlink:href="#DejaVuSans-65" x="63.476562"/>
       <use xlink:href="#DejaVuSans-66" x="125"/>
       <use xlink:href="#DejaVuSans-61" x="160.205078"/>
       <use xlink:href="#DejaVuSans-75" x="221.484375"/>
       <use xlink:href="#DejaVuSans-6c" x="284.863281"/>
       <use xlink:href="#DejaVuSans-74" x="312.646484"/>
       <use xlink:href="#DejaVuSans-73" x="351.855469"/>
       <use xlink:href="#DejaVuSans-5f" x="403.955078"/>
       <use xlink:href="#DejaVuSans-73" x="453.955078"/>
       <use xlink:href="#DejaVuSans-79" x="506.054688"/>
       <use xlink:href="#DejaVuSans-6d" x="565.234375"/>
       <use xlink:href="#DejaVuSans-6d" x="662.646484"/>
       <use xlink:href="#DejaVuSans-65" x="760.058594"/>
       <use xlink:href="#DejaVuSans-74" x="821.582031"/>
       <use xlink:href="#DejaVuSans-72" x="860.791016"/>
       <use xlink:href="#DejaVuSans-69" x="901.904297"/>
       <use xlink:href="#DejaVuSans-63" x="929.6875"/>
       <use xlink:href="#DejaVuSans-5f" x="984.667969"/>
       <use xlink:href="#DejaVuSans-6d" x="1034.667969"/>
       <use xlink:href="#DejaVuSans-69" x="1132.080078"/>
       <use xlink:href="#DejaVuSans-67" x="1159.863281"/>
       <use xlink:href="#DejaVuSans-72" x="1223.339844"/>
       <use xlink:href="#DejaVuSans-61" x="1264.453125"/>
       <use xlink:href="#DejaVuSans-74" x="1325.732422"/>
       <use xlink:href="#DejaVuSans-69" x="1364.941406"/>
       <use xlink:href="#DejaVuSans-6f" x="1392.724609"/>
       <use xlink:href="#DejaVuSans-6e" x="1453.90625"/>
       <use xlink:href="#DejaVuSans-5f" x="1517.285156"/>
       <use xlink:href="#DejaVuSans-63" x="1567.285156"/>
       <use xlink:href="#DejaVuSans-68" x="1622.265625"/>
       <use xlink:href="#DejaVuSans-61" x="1685.644531"/>
       <use xlink:href="#DejaVuSans-6e" x="1746.923828"/>
       <use xlink:href="#DejaVuSans-67" x="1810.302734"/>
       <use xlink:href="#DejaVuSans-69" x="1873.779297"/>
       <use xlink:href="#DejaVuSans-6e" x="1901.5625"/>
       <use xlink:href="#DejaVuSans-67" x="1964.941406"/>
       <use xlink:href="#DejaVuSans-5f" x="2028.417969"/>
       <use xlink:href="#DejaVuSans-72" x="2078.417969"/>
       <use xlink:href="#DejaVuSans-61" x="2119.53125"/>
       <use xlink:href="#DejaVuSans-74" x="2180.810547"/>
       <use xlink:href="#DejaVuSans-65" x="2220.019531"/>
       <use xlink:href="#DejaVuSans-2e" x="2281.542969"/>
       <use xlink:href="#DejaVuSans-79" x="2313.330078"/>
       <use xlink:href="#DejaVuSans-61" x="2372.509766"/>
       <use xlink:href="#DejaVuSans-6d" x="2433.789062"/>
       <use xlink:href="#DejaVuSans-6c" x="2531.201172"/>
      </g>
     </g>
    </g>
   </g>
   <defs>
    <clipPath id="p407127a2b0">
     <rect x="43.78125" y="22.318125" width="453.81875" height="238.10375"/>
    </clipPath>
   </defs>
  </g>
 </g>
</svg>
