<?xml version="1.0" encoding="utf-8" standalone="no"?>
<!DOCTYPE svg PUBLIC "-//W3C//DTD SVG 1.1//EN"
  "http://www.w3.org/Graphics/SVG/1.1/DTD/svg11.dtd">
<svg xmlns:xlink="http://www.w3.org/1999/xlink" width="504.8pt" height="280.8pt" viewBox="0 0 504.8 280.8" xmlns="http://www.w3.org/2000/svg" version="1.1">
 <metadata>
  <rdf:RDF xmlns:dc="http://purl.org/dc/elements/1.1/" xmlns:cc="http://creativecommons.org/ns#" xmlns:rdf="http://www.w3.org/1999/02/22-rdf-syntax-ns#">
   <cc:Work>
    <dc:type rdf:resource="http://purl.org/dc/dcmitype/StillImage"/>
    <dc:date>2022-01-10T08:29:57.934502</dc:date>
    <dc:format>image/svg+xml</dc:format>
    <dc:creator>
     <cc:Agent>
      <dc:title>Matplotlib v3.5.1, https://matplotlib.org/</dc:title>
     </cc:Agent>
    </dc:creator>
   </cc:Work>
  </rdf:RDF>
 </metadata>
 <defs>
  <style type="text/css">*{stroke-linejoin: round; stroke-linecap: butt}</style>
 </defs>
 <g id="figure_1">
  <g id="patch_1">
   <path d="M 0 280.8 
L 504.8 280.8 
L 504.8 0 
L 0 0 
L 0 280.8 
z
" style="fill: none"/>
  </g>
  <g id="axes_1">
   <g id="patch_2">
    <path d="M 43.78125 260.421875 
L 497.6 260.421875 
L 497.6 22.318125 
L 43.78125 22.318125 
z
" style="fill: #ffffff"/>
   </g>
   <path d="M 169.606632 156.671462 
L 170.606632 156.702899 
L 171.606632 156.739839 
L 172.606632 156.837585 
L 173.606632 156.870107 
L 174.606632 156.943732 
L 175.606632 156.982297 
L 176.606632 157.01771 
L 177.606632 157.07535 
L 178.606632 157.145737 
L 179.606632 157.197701 
L 180.606632 157.256791 
L 181.606632 157.345112 
L 182.606632 157.391256 
L 183.606632 157.433667 
L 184.606632 157.464159 
L 185.606632 157.490204 
L 186.606632 157.511404 
L 187.606632 157.565706 
L 188.606632 157.593643 
L 189.606632 157.623367 
L 190.606632 157.648762 
L 191.606632 157.659962 
L 192.606632 157.670086 
L 193.606632 157.669882 
L 194.606632 157.660372 
L 195.606632 157.648719 
L 196.606632 157.617689 
L 197.606632 157.606521 
L 198.606632 157.576404 
L 199.606632 157.516627 
L 200.606632 157.479435 
L 201.606632 157.440339 
L 202.606632 157.3979 
L 203.606632 157.365134 
L 204.606632 157.297708 
L 205.606632 157.258582 
L 206.606632 157.215908 
L 207.606632 157.145327 
L 208.606632 157.108936 
L 209.606632 157.050533 
L 210.606632 156.93958 
L 211.606632 156.868922 
L 212.606632 156.755982 
L 213.606632 156.710209 
L 214.606632 156.648926 
L 215.822903 156.600427 
" clip-path="url(#pad6c5ce792)" style="fill: none; stroke: #1f77b4; stroke-opacity: 0.5; stroke-width: 0.2; stroke-linecap: square"/>
   <path d="M 169.606632 73.791035 
L 170.606632 73.822471 
L 171.606632 73.859411 
L 172.606632 73.957158 
L 173.606632 73.989679 
L 174.606632 74.063304 
L 175.606632 74.10187 
L 176.606632 74.137283 
L 177.606632 74.194923 
L 178.606632 74.265309 
L 179.606632 74.317273 
L 180.606632 74.376363 
L 181.606632 74.464684 
L 182.606632 74.510828 
L 183.606632 74.553239 
L 184.606632 74.583732 
L 185.606632 74.609777 
L 186.606632 74.630977 
L 187.606632 74.685278 
L 188.606632 74.713216 
L 189.606632 74.74294 
L 190.606632 74.768334 
L 191.606632 74.779535 
L 192.606632 74.789659 
L 193.606632 74.789454 
L 194.606632 74.779945 
L 195.606632 74.768291 
L 196.606632 74.737262 
L 197.606632 74.726094 
L 198.606632 74.695976 
L 199.606632 74.636199 
L 200.606632 74.599008 
L 201.606632 74.559912 
L 202.606632 74.517472 
L 203.606632 74.484707 
L 204.606632 74.41728 
L 205.606632 74.378155 
L 206.606632 74.33548 
L 207.606632 74.264899 
L 208.606632 74.228509 
L 209.606632 74.170105 
L 210.606632 74.059153 
L 211.606632 73.988494 
L 212.606632 73.875555 
L 213.606632 73.829782 
L 214.606632 73.768499 
L 215.822903 73.719999 
" clip-path="url(#pad6c5ce792)" style="fill: none; stroke: #1f77b4; stroke-opacity: 0.5; stroke-width: 0.2; stroke-linecap: square"/>
   <path d="M 169.606632 123.33653 
L 170.606632 123.367967 
L 171.606632 123.404907 
L 172.606632 123.502654 
L 173.606632 123.535175 
L 174.606632 123.6088 
L 175.606632 123.647366 
L 176.606632 123.682779 
L 177.606632 123.740419 
L 178.606632 123.810805 
L 179.606632 123.862769 
L 180.606632 123.921859 
L 181.606632 124.01018 
L 182.606632 124.056324 
L 183.606632 124.098735 
L 184.606632 124.129228 
L 185.606632 124.155273 
L 186.606632 124.176473 
L 187.606632 124.230774 
L 188.606632 124.258712 
L 189.606632 124.288435 
L 190.606632 124.31383 
L 191.606632 124.325031 
L 192.606632 124.335155 
L 193.606632 124.33495 
L 194.606632 124.32544 
L 195.606632 124.313787 
L 196.606632 124.282758 
L 197.606632 124.27159 
L 198.606632 124.241472 
L 199.606632 124.181695 
L 200.606632 124.144504 
L 201.606632 124.105408 
L 202.606632 124.062968 
L 203.606632 124.030203 
L 204.606632 123.962776 
L 205.606632 123.92365 
L 206.606632 123.880976 
L 207.606632 123.810395 
L 208.606632 123.774004 
L 209.606632 123.715601 
L 210.606632 123.604649 
L 211.606632 123.53399 
L 212.606632 123.421051 
L 213.606632 123.375278 
L 214.606632 123.313994 
L 215.822903 123.265495 
" clip-path="url(#pad6c5ce792)" style="fill: none; stroke: #1f77b4; stroke-opacity: 0.5; stroke-width: 0.2; stroke-linecap: square"/>
   <path d="M 169.606632 119.685832 
L 170.606632 119.717269 
L 171.606632 119.754209 
L 172.606632 119.851956 
L 173.606632 119.884477 
L 174.606632 119.958102 
L 175.606632 119.996667 
L 176.606632 120.032081 
L 177.606632 120.08972 
L 178.606632 120.160107 
L 179.606632 120.212071 
L 180.606632 120.271161 
L 181.606632 120.359482 
L 182.606632 120.405626 
L 183.606632 120.448037 
L 184.606632 120.47853 
L 185.606632 120.504574 
L 186.606632 120.525775 
L 187.606632 120.580076 
L 188.606632 120.608013 
L 189.606632 120.637737 
L 190.606632 120.663132 
L 191.606632 120.674332 
L 192.606632 120.684456 
L 193.606632 120.684252 
L 194.606632 120.674742 
L 195.606632 120.663089 
L 196.606632 120.632059 
L 197.606632 120.620891 
L 198.606632 120.590774 
L 199.606632 120.530997 
L 200.606632 120.493805 
L 201.606632 120.454709 
L 202.606632 120.41227 
L 203.606632 120.379505 
L 204.606632 120.312078 
L 205.606632 120.272952 
L 206.606632 120.230278 
L 207.606632 120.159697 
L 208.606632 120.123306 
L 209.606632 120.064903 
L 210.606632 119.95395 
L 211.606632 119.883292 
L 212.606632 119.770352 
L 213.606632 119.724579 
L 214.606632 119.663296 
L 215.822903 119.614797 
" clip-path="url(#pad6c5ce792)" style="fill: none; stroke: #1f77b4; stroke-opacity: 0.5; stroke-width: 0.2; stroke-linecap: square"/>
   <path d="M 169.606632 141.526789 
L 170.606632 141.558225 
L 171.606632 141.595166 
L 172.606632 141.692912 
L 173.606632 141.725434 
L 174.606632 141.799058 
L 175.606632 141.837624 
L 176.606632 141.873037 
L 177.606632 141.930677 
L 178.606632 142.001063 
L 179.606632 142.053027 
L 180.606632 142.112117 
L 181.606632 142.200438 
L 182.606632 142.246583 
L 183.606632 142.288993 
L 184.606632 142.319486 
L 185.606632 142.345531 
L 186.606632 142.366731 
L 187.606632 142.421032 
L 188.606632 142.44897 
L 189.606632 142.478694 
L 190.606632 142.504089 
L 191.606632 142.515289 
L 192.606632 142.525413 
L 193.606632 142.525209 
L 194.606632 142.515699 
L 195.606632 142.504045 
L 196.606632 142.473016 
L 197.606632 142.461848 
L 198.606632 142.43173 
L 199.606632 142.371954 
L 200.606632 142.334762 
L 201.606632 142.295666 
L 202.606632 142.253226 
L 203.606632 142.220461 
L 204.606632 142.153035 
L 205.606632 142.113909 
L 206.606632 142.071234 
L 207.606632 142.000654 
L 208.606632 141.964263 
L 209.606632 141.90586 
L 210.606632 141.794907 
L 211.606632 141.724249 
L 212.606632 141.611309 
L 213.606632 141.565536 
L 214.606632 141.504253 
L 215.822903 141.455753 
" clip-path="url(#pad6c5ce792)" style="fill: none; stroke: #1f77b4; stroke-opacity: 0.5; stroke-width: 0.2; stroke-linecap: square"/>
   <path d="M 169.606632 109.811378 
L 170.606632 109.842814 
L 171.606632 109.879755 
L 172.606632 109.977501 
L 173.606632 110.010023 
L 174.606632 110.083647 
L 175.606632 110.122213 
L 176.606632 110.157626 
L 177.606632 110.215266 
L 178.606632 110.285652 
L 179.606632 110.337616 
L 180.606632 110.396706 
L 181.606632 110.485027 
L 182.606632 110.531171 
L 183.606632 110.573582 
L 184.606632 110.604075 
L 185.606632 110.63012 
L 186.606632 110.65132 
L 187.606632 110.705621 
L 188.606632 110.733559 
L 189.606632 110.763283 
L 190.606632 110.788678 
L 191.606632 110.799878 
L 192.606632 110.810002 
L 193.606632 110.809798 
L 194.606632 110.800288 
L 195.606632 110.788634 
L 196.606632 110.757605 
L 197.606632 110.746437 
L 198.606632 110.716319 
L 199.606632 110.656542 
L 200.606632 110.619351 
L 201.606632 110.580255 
L 202.606632 110.537815 
L 203.606632 110.50505 
L 204.606632 110.437624 
L 205.606632 110.398498 
L 206.606632 110.355823 
L 207.606632 110.285243 
L 208.606632 110.248852 
L 209.606632 110.190449 
L 210.606632 110.079496 
L 211.606632 110.008838 
L 212.606632 109.895898 
L 213.606632 109.850125 
L 214.606632 109.788842 
L 215.822903 109.740342 
" clip-path="url(#pad6c5ce792)" style="fill: none; stroke: #1f77b4; stroke-opacity: 0.5; stroke-width: 0.2; stroke-linecap: square"/>
   <path d="M 169.606632 73.059232 
L 170.606632 73.090668 
L 171.606632 73.127609 
L 172.606632 73.225355 
L 173.606632 73.257877 
L 174.606632 73.331502 
L 175.606632 73.370067 
L 176.606632 73.40548 
L 177.606632 73.46312 
L 178.606632 73.533506 
L 179.606632 73.585471 
L 180.606632 73.64456 
L 181.606632 73.732881 
L 182.606632 73.779026 
L 183.606632 73.821437 
L 184.606632 73.851929 
L 185.606632 73.877974 
L 186.606632 73.899174 
L 187.606632 73.953475 
L 188.606632 73.981413 
L 189.606632 74.011137 
L 190.606632 74.036532 
L 191.606632 74.047732 
L 192.606632 74.057856 
L 193.606632 74.057652 
L 194.606632 74.048142 
L 195.606632 74.036488 
L 196.606632 74.005459 
L 197.606632 73.994291 
L 198.606632 73.964174 
L 199.606632 73.904397 
L 200.606632 73.867205 
L 201.606632 73.828109 
L 202.606632 73.785669 
L 203.606632 73.752904 
L 204.606632 73.685478 
L 205.606632 73.646352 
L 206.606632 73.603677 
L 207.606632 73.533097 
L 208.606632 73.496706 
L 209.606632 73.438303 
L 210.606632 73.32735 
L 211.606632 73.256692 
L 212.606632 73.143752 
L 213.606632 73.097979 
L 214.606632 73.036696 
L 215.822903 72.988197 
" clip-path="url(#pad6c5ce792)" style="fill: none; stroke: #1f77b4; stroke-opacity: 0.5; stroke-width: 0.2; stroke-linecap: square"/>
   <path d="M 169.606632 73.542061 
L 170.606632 73.573497 
L 171.606632 73.610438 
L 172.606632 73.708184 
L 173.606632 73.740706 
L 174.606632 73.81433 
L 175.606632 73.852896 
L 176.606632 73.888309 
L 177.606632 73.945949 
L 178.606632 74.016335 
L 179.606632 74.068299 
L 180.606632 74.127389 
L 181.606632 74.21571 
L 182.606632 74.261855 
L 183.606632 74.304265 
L 184.606632 74.334758 
L 185.606632 74.360803 
L 186.606632 74.382003 
L 187.606632 74.436304 
L 188.606632 74.464242 
L 189.606632 74.493966 
L 190.606632 74.519361 
L 191.606632 74.530561 
L 192.606632 74.540685 
L 193.606632 74.540481 
L 194.606632 74.530971 
L 195.606632 74.519317 
L 196.606632 74.488288 
L 197.606632 74.47712 
L 198.606632 74.447002 
L 199.606632 74.387226 
L 200.606632 74.350034 
L 201.606632 74.310938 
L 202.606632 74.268498 
L 203.606632 74.235733 
L 204.606632 74.168307 
L 205.606632 74.129181 
L 206.606632 74.086506 
L 207.606632 74.015926 
L 208.606632 73.979535 
L 209.606632 73.921132 
L 210.606632 73.810179 
L 211.606632 73.739521 
L 212.606632 73.626581 
L 213.606632 73.580808 
L 214.606632 73.519525 
L 215.822903 73.471025 
" clip-path="url(#pad6c5ce792)" style="fill: none; stroke: #1f77b4; stroke-opacity: 0.5; stroke-width: 0.2; stroke-linecap: square"/>
   <path d="M 169.606632 156.416996 
L 170.606632 156.448433 
L 171.606632 156.485373 
L 172.606632 156.58312 
L 173.606632 156.615641 
L 174.606632 156.689266 
L 175.606632 156.727832 
L 176.606632 156.763245 
L 177.606632 156.820885 
L 178.606632 156.891271 
L 179.606632 156.943235 
L 180.606632 157.002325 
L 181.606632 157.090646 
L 182.606632 157.13679 
L 183.606632 157.179201 
L 184.606632 157.209694 
L 185.606632 157.235739 
L 186.606632 157.256939 
L 187.606632 157.31124 
L 188.606632 157.339177 
L 189.606632 157.368901 
L 190.606632 157.394296 
L 191.606632 157.405497 
L 192.606632 157.415621 
L 193.606632 157.415416 
L 194.606632 157.405906 
L 195.606632 157.394253 
L 196.606632 157.363224 
L 197.606632 157.352056 
L 198.606632 157.321938 
L 199.606632 157.262161 
L 200.606632 157.22497 
L 201.606632 157.185874 
L 202.606632 157.143434 
L 203.606632 157.110669 
L 204.606632 157.043242 
L 205.606632 157.004116 
L 206.606632 156.961442 
L 207.606632 156.890861 
L 208.606632 156.85447 
L 209.606632 156.796067 
L 210.606632 156.685115 
L 211.606632 156.614456 
L 212.606632 156.501517 
L 213.606632 156.455744 
L 214.606632 156.39446 
L 215.822903 156.345961 
" clip-path="url(#pad6c5ce792)" style="fill: none; stroke: #1f77b4; stroke-opacity: 0.5; stroke-width: 0.2; stroke-linecap: square"/>
   <path d="M 169.606632 116.453413 
L 170.606632 116.484849 
L 171.606632 116.52179 
L 172.606632 116.619536 
L 173.606632 116.652058 
L 174.606632 116.725683 
L 175.606632 116.764248 
L 176.606632 116.799661 
L 177.606632 116.857301 
L 178.606632 116.927687 
L 179.606632 116.979652 
L 180.606632 117.038741 
L 181.606632 117.127062 
L 182.606632 117.173207 
L 183.606632 117.215618 
L 184.606632 117.24611 
L 185.606632 117.272155 
L 186.606632 117.293355 
L 187.606632 117.347656 
L 188.606632 117.375594 
L 189.606632 117.405318 
L 190.606632 117.430713 
L 191.606632 117.441913 
L 192.606632 117.452037 
L 193.606632 117.451833 
L 194.606632 117.442323 
L 195.606632 117.430669 
L 196.606632 117.39964 
L 197.606632 117.388472 
L 198.606632 117.358355 
L 199.606632 117.298578 
L 200.606632 117.261386 
L 201.606632 117.22229 
L 202.606632 117.17985 
L 203.606632 117.147085 
L 204.606632 117.079659 
L 205.606632 117.040533 
L 206.606632 116.997858 
L 207.606632 116.927278 
L 208.606632 116.890887 
L 209.606632 116.832484 
L 210.606632 116.721531 
L 211.606632 116.650873 
L 212.606632 116.537933 
L 213.606632 116.49216 
L 214.606632 116.430877 
L 215.822903 116.382378 
" clip-path="url(#pad6c5ce792)" style="fill: none; stroke: #1f77b4; stroke-opacity: 0.5; stroke-width: 0.2; stroke-linecap: square"/>
   <path d="M 325.558347 120.238751 
L 326.558347 120.270187 
L 327.558347 120.307128 
L 328.558347 120.404874 
L 329.558347 120.437396 
L 330.558347 120.51102 
L 331.558347 120.549586 
L 332.558347 120.584999 
L 333.558347 120.642639 
L 334.558347 120.713025 
L 335.558347 120.764989 
L 336.558347 120.824079 
L 337.558347 120.9124 
L 338.558347 120.958544 
L 339.558347 121.000955 
L 340.558347 121.031448 
L 341.558347 121.057493 
L 342.558347 121.078693 
L 343.558347 121.132994 
L 344.558347 121.160932 
L 345.558347 121.190656 
L 346.558347 121.216051 
L 347.558347 121.227251 
L 348.558347 121.237375 
L 349.558347 121.237171 
L 350.558347 121.227661 
L 351.558347 121.216007 
L 352.558347 121.184978 
L 353.558347 121.17381 
L 354.558347 121.143692 
L 355.558347 121.083915 
L 356.558347 121.046724 
L 357.558347 121.007628 
L 358.558347 120.965188 
L 359.558347 120.932423 
L 360.558347 120.864997 
L 361.558347 120.825871 
L 362.558347 120.783196 
L 363.558347 120.712616 
L 364.558347 120.676225 
L 365.558347 120.617822 
L 366.558347 120.506869 
L 367.558347 120.436211 
L 368.558347 120.323271 
L 369.558347 120.277498 
L 370.558347 120.216215 
L 371.774618 120.167715 
" clip-path="url(#pad6c5ce792)" style="fill: none; stroke: #ff7f0e; stroke-opacity: 0.5; stroke-width: 0.2; stroke-linecap: square"/>
   <path d="M 325.558347 87.340071 
L 326.558347 87.371507 
L 327.558347 87.408447 
L 328.558347 87.506194 
L 329.558347 87.538715 
L 330.558347 87.61234 
L 331.558347 87.650906 
L 332.558347 87.686319 
L 333.558347 87.743959 
L 334.558347 87.814345 
L 335.558347 87.866309 
L 336.558347 87.925399 
L 337.558347 88.01372 
L 338.558347 88.059864 
L 339.558347 88.102275 
L 340.558347 88.132768 
L 341.558347 88.158813 
L 342.558347 88.180013 
L 343.558347 88.234314 
L 344.558347 88.262252 
L 345.558347 88.291976 
L 346.558347 88.31737 
L 347.558347 88.328571 
L 348.558347 88.338695 
L 349.558347 88.33849 
L 350.558347 88.328981 
L 351.558347 88.317327 
L 352.558347 88.286298 
L 353.558347 88.27513 
L 354.558347 88.245012 
L 355.558347 88.185235 
L 356.558347 88.148044 
L 357.558347 88.108948 
L 358.558347 88.066508 
L 359.558347 88.033743 
L 360.558347 87.966316 
L 361.558347 87.927191 
L 362.558347 87.884516 
L 363.558347 87.813935 
L 364.558347 87.777545 
L 365.558347 87.719141 
L 366.558347 87.608189 
L 367.558347 87.53753 
L 368.558347 87.424591 
L 369.558347 87.378818 
L 370.558347 87.317535 
L 371.774618 87.269035 
" clip-path="url(#pad6c5ce792)" style="fill: none; stroke: #ff7f0e; stroke-opacity: 0.5; stroke-width: 0.2; stroke-linecap: square"/>
   <path d="M 325.558347 113.481154 
L 326.558347 113.51259 
L 327.558347 113.54953 
L 328.558347 113.647277 
L 329.558347 113.679799 
L 330.558347 113.753423 
L 331.558347 113.791989 
L 332.558347 113.827402 
L 333.558347 113.885042 
L 334.558347 113.955428 
L 335.558347 114.007392 
L 336.558347 114.066482 
L 337.558347 114.154803 
L 338.558347 114.200947 
L 339.558347 114.243358 
L 340.558347 114.273851 
L 341.558347 114.299896 
L 342.558347 114.321096 
L 343.558347 114.375397 
L 344.558347 114.403335 
L 345.558347 114.433059 
L 346.558347 114.458453 
L 347.558347 114.469654 
L 348.558347 114.479778 
L 349.558347 114.479573 
L 350.558347 114.470064 
L 351.558347 114.45841 
L 352.558347 114.427381 
L 353.558347 114.416213 
L 354.558347 114.386095 
L 355.558347 114.326318 
L 356.558347 114.289127 
L 357.558347 114.250031 
L 358.558347 114.207591 
L 359.558347 114.174826 
L 360.558347 114.1074 
L 361.558347 114.068274 
L 362.558347 114.025599 
L 363.558347 113.955018 
L 364.558347 113.918628 
L 365.558347 113.860224 
L 366.558347 113.749272 
L 367.558347 113.678614 
L 368.558347 113.565674 
L 369.558347 113.519901 
L 370.558347 113.458618 
L 371.774618 113.410118 
" clip-path="url(#pad6c5ce792)" style="fill: none; stroke: #ff7f0e; stroke-opacity: 0.5; stroke-width: 0.2; stroke-linecap: square"/>
   <path d="M 325.558347 151.70382 
L 326.558347 151.735257 
L 327.558347 151.772197 
L 328.558347 151.869944 
L 329.558347 151.902465 
L 330.558347 151.97609 
L 331.558347 152.014655 
L 332.558347 152.050069 
L 333.558347 152.107709 
L 334.558347 152.178095 
L 335.558347 152.230059 
L 336.558347 152.289149 
L 337.558347 152.37747 
L 338.558347 152.423614 
L 339.558347 152.466025 
L 340.558347 152.496518 
L 341.558347 152.522563 
L 342.558347 152.543763 
L 343.558347 152.598064 
L 344.558347 152.626001 
L 345.558347 152.655725 
L 346.558347 152.68112 
L 347.558347 152.692321 
L 348.558347 152.702444 
L 349.558347 152.70224 
L 350.558347 152.69273 
L 351.558347 152.681077 
L 352.558347 152.650047 
L 353.558347 152.63888 
L 354.558347 152.608762 
L 355.558347 152.548985 
L 356.558347 152.511794 
L 357.558347 152.472697 
L 358.558347 152.430258 
L 359.558347 152.397493 
L 360.558347 152.330066 
L 361.558347 152.29094 
L 362.558347 152.248266 
L 363.558347 152.177685 
L 364.558347 152.141294 
L 365.558347 152.082891 
L 366.558347 151.971939 
L 367.558347 151.90128 
L 368.558347 151.78834 
L 369.558347 151.742567 
L 370.558347 151.681284 
L 371.774618 151.632785 
" clip-path="url(#pad6c5ce792)" style="fill: none; stroke: #ff7f0e; stroke-opacity: 0.5; stroke-width: 0.2; stroke-linecap: square"/>
   <path d="M 325.558347 127.506934 
L 326.558347 127.53837 
L 327.558347 127.575311 
L 328.558347 127.673057 
L 329.558347 127.705579 
L 330.558347 127.779204 
L 331.558347 127.817769 
L 332.558347 127.853182 
L 333.558347 127.910822 
L 334.558347 127.981209 
L 335.558347 128.033173 
L 336.558347 128.092263 
L 337.558347 128.180584 
L 338.558347 128.226728 
L 339.558347 128.269139 
L 340.558347 128.299631 
L 341.558347 128.325676 
L 342.558347 128.346876 
L 343.558347 128.401178 
L 344.558347 128.429115 
L 345.558347 128.458839 
L 346.558347 128.484234 
L 347.558347 128.495434 
L 348.558347 128.505558 
L 349.558347 128.505354 
L 350.558347 128.495844 
L 351.558347 128.48419 
L 352.558347 128.453161 
L 353.558347 128.441993 
L 354.558347 128.411876 
L 355.558347 128.352099 
L 356.558347 128.314907 
L 357.558347 128.275811 
L 358.558347 128.233372 
L 359.558347 128.200606 
L 360.558347 128.13318 
L 361.558347 128.094054 
L 362.558347 128.05138 
L 363.558347 127.980799 
L 364.558347 127.944408 
L 365.558347 127.886005 
L 366.558347 127.775052 
L 367.558347 127.704394 
L 368.558347 127.591454 
L 369.558347 127.545681 
L 370.558347 127.484398 
L 371.774618 127.435899 
" clip-path="url(#pad6c5ce792)" style="fill: none; stroke: #ff7f0e; stroke-opacity: 0.5; stroke-width: 0.2; stroke-linecap: square"/>
   <path d="M 325.558347 103.006687 
L 326.558347 103.038123 
L 327.558347 103.075063 
L 328.558347 103.17281 
L 329.558347 103.205332 
L 330.558347 103.278956 
L 331.558347 103.317522 
L 332.558347 103.352935 
L 333.558347 103.410575 
L 334.558347 103.480961 
L 335.558347 103.532925 
L 336.558347 103.592015 
L 337.558347 103.680336 
L 338.558347 103.72648 
L 339.558347 103.768891 
L 340.558347 103.799384 
L 341.558347 103.825429 
L 342.558347 103.846629 
L 343.558347 103.90093 
L 344.558347 103.928868 
L 345.558347 103.958592 
L 346.558347 103.983986 
L 347.558347 103.995187 
L 348.558347 104.005311 
L 349.558347 104.005106 
L 350.558347 103.995597 
L 351.558347 103.983943 
L 352.558347 103.952914 
L 353.558347 103.941746 
L 354.558347 103.911628 
L 355.558347 103.851851 
L 356.558347 103.81466 
L 357.558347 103.775564 
L 358.558347 103.733124 
L 359.558347 103.700359 
L 360.558347 103.632933 
L 361.558347 103.593807 
L 362.558347 103.551132 
L 363.558347 103.480551 
L 364.558347 103.444161 
L 365.558347 103.385757 
L 366.558347 103.274805 
L 367.558347 103.204147 
L 368.558347 103.091207 
L 369.558347 103.045434 
L 370.558347 102.984151 
L 371.774618 102.935651 
" clip-path="url(#pad6c5ce792)" style="fill: none; stroke: #ff7f0e; stroke-opacity: 0.5; stroke-width: 0.2; stroke-linecap: square"/>
   <path d="M 325.558347 120.157114 
L 326.558347 120.188551 
L 327.558347 120.225491 
L 328.558347 120.323238 
L 329.558347 120.355759 
L 330.558347 120.429384 
L 331.558347 120.467949 
L 332.558347 120.503363 
L 333.558347 120.561003 
L 334.558347 120.631389 
L 335.558347 120.683353 
L 336.558347 120.742443 
L 337.558347 120.830764 
L 338.558347 120.876908 
L 339.558347 120.919319 
L 340.558347 120.949812 
L 341.558347 120.975857 
L 342.558347 120.997057 
L 343.558347 121.051358 
L 344.558347 121.079295 
L 345.558347 121.109019 
L 346.558347 121.134414 
L 347.558347 121.145615 
L 348.558347 121.155738 
L 349.558347 121.155534 
L 350.558347 121.146024 
L 351.558347 121.134371 
L 352.558347 121.103341 
L 353.558347 121.092174 
L 354.558347 121.062056 
L 355.558347 121.002279 
L 356.558347 120.965088 
L 357.558347 120.925991 
L 358.558347 120.883552 
L 359.558347 120.850787 
L 360.558347 120.78336 
L 361.558347 120.744234 
L 362.558347 120.70156 
L 363.558347 120.630979 
L 364.558347 120.594588 
L 365.558347 120.536185 
L 366.558347 120.425233 
L 367.558347 120.354574 
L 368.558347 120.241634 
L 369.558347 120.195862 
L 370.558347 120.134578 
L 371.774618 120.086079 
" clip-path="url(#pad6c5ce792)" style="fill: none; stroke: #ff7f0e; stroke-opacity: 0.5; stroke-width: 0.2; stroke-linecap: square"/>
   <path d="M 325.558347 116.682711 
L 326.558347 116.714148 
L 327.558347 116.751088 
L 328.558347 116.848835 
L 329.558347 116.881356 
L 330.558347 116.954981 
L 331.558347 116.993547 
L 332.558347 117.02896 
L 333.558347 117.0866 
L 334.558347 117.156986 
L 335.558347 117.20895 
L 336.558347 117.26804 
L 337.558347 117.356361 
L 338.558347 117.402505 
L 339.558347 117.444916 
L 340.558347 117.475409 
L 341.558347 117.501454 
L 342.558347 117.522654 
L 343.558347 117.576955 
L 344.558347 117.604892 
L 345.558347 117.634616 
L 346.558347 117.660011 
L 347.558347 117.671212 
L 348.558347 117.681336 
L 349.558347 117.681131 
L 350.558347 117.671621 
L 351.558347 117.659968 
L 352.558347 117.628938 
L 353.558347 117.617771 
L 354.558347 117.587653 
L 355.558347 117.527876 
L 356.558347 117.490685 
L 357.558347 117.451588 
L 358.558347 117.409149 
L 359.558347 117.376384 
L 360.558347 117.308957 
L 361.558347 117.269831 
L 362.558347 117.227157 
L 363.558347 117.156576 
L 364.558347 117.120185 
L 365.558347 117.061782 
L 366.558347 116.95083 
L 367.558347 116.880171 
L 368.558347 116.767231 
L 369.558347 116.721459 
L 370.558347 116.660175 
L 371.774618 116.611676 
" clip-path="url(#pad6c5ce792)" style="fill: none; stroke: #ff7f0e; stroke-opacity: 0.5; stroke-width: 0.2; stroke-linecap: square"/>
   <path d="M 325.558347 85.826942 
L 326.558347 85.858378 
L 327.558347 85.895319 
L 328.558347 85.993065 
L 329.558347 86.025587 
L 330.558347 86.099211 
L 331.558347 86.137777 
L 332.558347 86.17319 
L 333.558347 86.23083 
L 334.558347 86.301216 
L 335.558347 86.35318 
L 336.558347 86.41227 
L 337.558347 86.500591 
L 338.558347 86.546735 
L 339.558347 86.589146 
L 340.558347 86.619639 
L 341.558347 86.645684 
L 342.558347 86.666884 
L 343.558347 86.721185 
L 344.558347 86.749123 
L 345.558347 86.778847 
L 346.558347 86.804242 
L 347.558347 86.815442 
L 348.558347 86.825566 
L 349.558347 86.825362 
L 350.558347 86.815852 
L 351.558347 86.804198 
L 352.558347 86.773169 
L 353.558347 86.762001 
L 354.558347 86.731883 
L 355.558347 86.672107 
L 356.558347 86.634915 
L 357.558347 86.595819 
L 358.558347 86.553379 
L 359.558347 86.520614 
L 360.558347 86.453188 
L 361.558347 86.414062 
L 362.558347 86.371387 
L 363.558347 86.300807 
L 364.558347 86.264416 
L 365.558347 86.206013 
L 366.558347 86.09506 
L 367.558347 86.024402 
L 368.558347 85.911462 
L 369.558347 85.865689 
L 370.558347 85.804406 
L 371.774618 85.755906 
" clip-path="url(#pad6c5ce792)" style="fill: none; stroke: #ff7f0e; stroke-opacity: 0.5; stroke-width: 0.2; stroke-linecap: square"/>
   <path d="M 325.558347 136.079097 
L 326.558347 136.110534 
L 327.558347 136.147474 
L 328.558347 136.245221 
L 329.558347 136.277742 
L 330.558347 136.351367 
L 331.558347 136.389932 
L 332.558347 136.425346 
L 333.558347 136.482985 
L 334.558347 136.553372 
L 335.558347 136.605336 
L 336.558347 136.664426 
L 337.558347 136.752747 
L 338.558347 136.798891 
L 339.558347 136.841302 
L 340.558347 136.871795 
L 341.558347 136.897839 
L 342.558347 136.91904 
L 343.558347 136.973341 
L 344.558347 137.001278 
L 345.558347 137.031002 
L 346.558347 137.056397 
L 347.558347 137.067597 
L 348.558347 137.077721 
L 349.558347 137.077517 
L 350.558347 137.068007 
L 351.558347 137.056354 
L 352.558347 137.025324 
L 353.558347 137.014156 
L 354.558347 136.984039 
L 355.558347 136.924262 
L 356.558347 136.88707 
L 357.558347 136.847974 
L 358.558347 136.805535 
L 359.558347 136.77277 
L 360.558347 136.705343 
L 361.558347 136.666217 
L 362.558347 136.623543 
L 363.558347 136.552962 
L 364.558347 136.516571 
L 365.558347 136.458168 
L 366.558347 136.347215 
L 367.558347 136.276557 
L 368.558347 136.163617 
L 369.558347 136.117844 
L 370.558347 136.056561 
L 371.774618 136.008062 
" clip-path="url(#pad6c5ce792)" style="fill: none; stroke: #ff7f0e; stroke-opacity: 0.5; stroke-width: 0.2; stroke-linecap: square"/>
   <g id="patch_3">
    <path d="M 64.409375 22.318125 
L 64.409375 260.421875 
M 165.068445 22.318125 
L 165.068445 260.421875 
" clip-path="url(#pad6c5ce792)" style="fill: none; stroke: #ffffff; stroke-width: 3; stroke-linejoin: miter"/>
    <path d="M 64.409375 22.318125 
L 64.409375 260.421875 
M 165.068445 22.318125 
L 165.068445 260.421875 
" clip-path="url(#pad6c5ce792)" style="fill: none; stroke: #1f77b4; stroke-linejoin: miter"/>
    <g id="PolyCollection_1">
     <path d="M 165.068445 22.318125 
L 64.409375 22.318125 
L 64.409375 260.421875 
L 165.068445 260.421875 
L 165.068445 260.421875 
L 165.068445 22.318125 
z
" clip-path="url(#pad6c5ce792)" style="fill: #1f77b4; fill-opacity: 0.5"/>
    </g>
    <g id="patch_4">
     <path d="M 220.36109 22.318125 
L 220.36109 260.421875 
M 321.02016 22.318125 
L 321.02016 260.421875 
" clip-path="url(#pad6c5ce792)" style="fill: none; stroke: #ffffff; stroke-width: 3; stroke-linejoin: miter"/>
     <path d="M 220.36109 22.318125 
L 220.36109 260.421875 
M 321.02016 22.318125 
L 321.02016 260.421875 
" clip-path="url(#pad6c5ce792)" style="fill: none; stroke: #ff7f0e; stroke-linejoin: miter"/>
     <g id="PolyCollection_2">
      <path d="M 321.02016 22.318125 
L 220.36109 22.318125 
L 220.36109 260.421875 
L 321.02016 260.421875 
L 321.02016 260.421875 
L 321.02016 22.318125 
z
" clip-path="url(#pad6c5ce792)" style="fill: #ff7f0e; fill-opacity: 0.5"/>
     </g>
     <g id="patch_5">
      <path d="M 376.312805 22.318125 
L 376.312805 260.421875 
M 476.971875 22.318125 
L 476.971875 260.421875 
" clip-path="url(#pad6c5ce792)" style="fill: none; stroke: #ffffff; stroke-width: 3; stroke-linejoin: miter"/>
      <path d="M 376.312805 22.318125 
L 376.312805 260.421875 
M 476.971875 22.318125 
L 476.971875 260.421875 
" clip-path="url(#pad6c5ce792)" style="fill: none; stroke: #2ca02c; stroke-linejoin: miter"/>
      <g id="PolyCollection_3">
       <path d="M 476.971875 22.318125 
L 376.312805 22.318125 
L 376.312805 260.421875 
L 476.971875 260.421875 
L 476.971875 260.421875 
L 476.971875 22.318125 
z
" clip-path="url(#pad6c5ce792)" style="fill: #2ca02c; fill-opacity: 0.5"/>
      </g>
      <g id="matplotlib.axis_1">
       <g id="xtick_1">
        <g id="line2d_1"/>
        <g id="text_1">
         <!-- deme0 -->
         <g transform="translate(97.360004 271.520312)scale(0.1 -0.1)">
          <defs>
           <path id="DejaVuSans-64" d="M 2906 2969 
L 2906 4863 
L 3481 4863 
L 3481 0 
L 2906 0 
L 2906 525 
Q 2725 213 2448 61 
Q 2172 -91 1784 -91 
Q 1150 -91 751 415 
Q 353 922 353 1747 
Q 353 2572 751 3078 
Q 1150 3584 1784 3584 
Q 2172 3584 2448 3432 
Q 2725 3281 2906 2969 
z
M 947 1747 
Q 947 1113 1208 752 
Q 1469 391 1925 391 
Q 2381 391 2643 752 
Q 2906 1113 2906 1747 
Q 2906 2381 2643 2742 
Q 2381 3103 1925 3103 
Q 1469 3103 1208 2742 
Q 947 2381 947 1747 
z
" transform="scale(0.015625)"/>
           <path id="DejaVuSans-65" d="M 3597 1894 
L 3597 1613 
L 953 1613 
Q 991 1019 1311 708 
Q 1631 397 2203 397 
Q 2534 397 2845 478 
Q 3156 559 3463 722 
L 3463 178 
Q 3153 47 2828 -22 
Q 2503 -91 2169 -91 
Q 1331 -91 842 396 
Q 353 884 353 1716 
Q 353 2575 817 3079 
Q 1281 3584 2069 3584 
Q 2775 3584 3186 3129 
Q 3597 2675 3597 1894 
z
M 3022 2063 
Q 3016 2534 2758 2815 
Q 2500 3097 2075 3097 
Q 1594 3097 1305 2825 
Q 1016 2553 972 2059 
L 3022 2063 
z
" transform="scale(0.015625)"/>
           <path id="DejaVuSans-6d" d="M 3328 2828 
Q 3544 3216 3844 3400 
Q 4144 3584 4550 3584 
Q 5097 3584 5394 3201 
Q 5691 2819 5691 2113 
L 5691 0 
L 5113 0 
L 5113 2094 
Q 5113 2597 4934 2840 
Q 4756 3084 4391 3084 
Q 3944 3084 3684 2787 
Q 3425 2491 3425 1978 
L 3425 0 
L 2847 0 
L 2847 2094 
Q 2847 2600 2669 2842 
Q 2491 3084 2119 3084 
Q 1678 3084 1418 2786 
Q 1159 2488 1159 1978 
L 1159 0 
L 581 0 
L 581 3500 
L 1159 3500 
L 1159 2956 
Q 1356 3278 1631 3431 
Q 1906 3584 2284 3584 
Q 2666 3584 2933 3390 
Q 3200 3197 3328 2828 
z
" transform="scale(0.015625)"/>
           <path id="DejaVuSans-30" d="M 2034 4250 
Q 1547 4250 1301 3770 
Q 1056 3291 1056 2328 
Q 1056 1369 1301 889 
Q 1547 409 2034 409 
Q 2525 409 2770 889 
Q 3016 1369 3016 2328 
Q 3016 3291 2770 3770 
Q 2525 4250 2034 4250 
z
M 2034 4750 
Q 2819 4750 3233 4129 
Q 3647 3509 3647 2328 
Q 3647 1150 3233 529 
Q 2819 -91 2034 -91 
Q 1250 -91 836 529 
Q 422 1150 422 2328 
Q 422 3509 836 4129 
Q 1250 4750 2034 4750 
z
" transform="scale(0.015625)"/>
          </defs>
          <use xlink:href="#DejaVuSans-64"/>
          <use xlink:href="#DejaVuSans-65" x="63.476562"/>
          <use xlink:href="#DejaVuSans-6d" x="125"/>
          <use xlink:href="#DejaVuSans-65" x="222.412109"/>
          <use xlink:href="#DejaVuSans-30" x="283.935547"/>
         </g>
        </g>
       </g>
       <g id="xtick_2">
        <g id="line2d_2"/>
        <g id="text_2">
         <!-- deme1 -->
         <g transform="translate(253.311719 271.520312)scale(0.1 -0.1)">
          <defs>
           <path id="DejaVuSans-31" d="M 794 531 
L 1825 531 
L 1825 4091 
L 703 3866 
L 703 4441 
L 1819 4666 
L 2450 4666 
L 2450 531 
L 3481 531 
L 3481 0 
L 794 0 
L 794 531 
z
" transform="scale(0.015625)"/>
          </defs>
          <use xlink:href="#DejaVuSans-64"/>
          <use xlink:href="#DejaVuSans-65" x="63.476562"/>
          <use xlink:href="#DejaVuSans-6d" x="125"/>
          <use xlink:href="#DejaVuSans-65" x="222.412109"/>
          <use xlink:href="#DejaVuSans-31" x="283.935547"/>
         </g>
        </g>
       </g>
       <g id="xtick_3">
        <g id="line2d_3"/>
        <g id="text_3">
         <!-- deme2 -->
         <g transform="translate(409.263434 271.520312)scale(0.1 -0.1)">
          <defs>
           <path id="DejaVuSans-32" d="M 1228 531 
L 3431 531 
L 3431 0 
L 469 0 
L 469 531 
Q 828 903 1448 1529 
Q 2069 2156 2228 2338 
Q 2531 2678 2651 2914 
Q 2772 3150 2772 3378 
Q 2772 3750 2511 3984 
Q 2250 4219 1831 4219 
Q 1534 4219 1204 4116 
Q 875 4013 500 3803 
L 500 4441 
Q 881 4594 1212 4672 
Q 1544 4750 1819 4750 
Q 2544 4750 2975 4387 
Q 3406 4025 3406 3419 
Q 3406 3131 3298 2873 
Q 3191 2616 2906 2266 
Q 2828 2175 2409 1742 
Q 1991 1309 1228 531 
z
" transform="scale(0.015625)"/>
          </defs>
          <use xlink:href="#DejaVuSans-64"/>
          <use xlink:href="#DejaVuSans-65" x="63.476562"/>
          <use xlink:href="#DejaVuSans-6d" x="125"/>
          <use xlink:href="#DejaVuSans-65" x="222.412109"/>
          <use xlink:href="#DejaVuSans-32" x="283.935547"/>
         </g>
        </g>
       </g>
      </g>
      <g id="matplotlib.axis_2">
       <g id="ytick_1">
        <g id="line2d_4">
         <defs>
          <path id="m839be8a2b6" d="M 0 0 
L -3.5 0 
" style="stroke: #000000; stroke-width: 0.8"/>
         </defs>
         <g>
          <use xlink:href="#m839be8a2b6" x="43.78125" y="260.421875" style="stroke: #000000; stroke-width: 0.8"/>
         </g>
        </g>
        <g id="text_4">
         <!-- 0.0 -->
         <g transform="translate(20.878125 264.221094)scale(0.1 -0.1)">
          <defs>
           <path id="DejaVuSans-2e" d="M 684 794 
L 1344 794 
L 1344 0 
L 684 0 
L 684 794 
z
" transform="scale(0.015625)"/>
          </defs>
          <use xlink:href="#DejaVuSans-30"/>
          <use xlink:href="#DejaVuSans-2e" x="63.623047"/>
          <use xlink:href="#DejaVuSans-30" x="95.410156"/>
         </g>
        </g>
       </g>
       <g id="ytick_2">
        <g id="line2d_5">
         <g>
          <use xlink:href="#m839be8a2b6" x="43.78125" y="212.801125" style="stroke: #000000; stroke-width: 0.8"/>
         </g>
        </g>
        <g id="text_5">
         <!-- 0.5 -->
         <g transform="translate(20.878125 216.600344)scale(0.1 -0.1)">
          <defs>
           <path id="DejaVuSans-35" d="M 691 4666 
L 3169 4666 
L 3169 4134 
L 1269 4134 
L 1269 2991 
Q 1406 3038 1543 3061 
Q 1681 3084 1819 3084 
Q 2600 3084 3056 2656 
Q 3513 2228 3513 1497 
Q 3513 744 3044 326 
Q 2575 -91 1722 -91 
Q 1428 -91 1123 -41 
Q 819 9 494 109 
L 494 744 
Q 775 591 1075 516 
Q 1375 441 1709 441 
Q 2250 441 2565 725 
Q 2881 1009 2881 1497 
Q 2881 1984 2565 2268 
Q 2250 2553 1709 2553 
Q 1456 2553 1204 2497 
Q 953 2441 691 2322 
L 691 4666 
z
" transform="scale(0.015625)"/>
          </defs>
          <use xlink:href="#DejaVuSans-30"/>
          <use xlink:href="#DejaVuSans-2e" x="63.623047"/>
          <use xlink:href="#DejaVuSans-35" x="95.410156"/>
         </g>
        </g>
       </g>
       <g id="ytick_3">
        <g id="line2d_6">
         <g>
          <use xlink:href="#m839be8a2b6" x="43.78125" y="165.180375" style="stroke: #000000; stroke-width: 0.8"/>
         </g>
        </g>
        <g id="text_6">
         <!-- 1.0 -->
         <g transform="translate(20.878125 168.979594)scale(0.1 -0.1)">
          <use xlink:href="#DejaVuSans-31"/>
          <use xlink:href="#DejaVuSans-2e" x="63.623047"/>
          <use xlink:href="#DejaVuSans-30" x="95.410156"/>
         </g>
        </g>
       </g>
       <g id="ytick_4">
        <g id="line2d_7">
         <g>
          <use xlink:href="#m839be8a2b6" x="43.78125" y="117.559625" style="stroke: #000000; stroke-width: 0.8"/>
         </g>
        </g>
        <g id="text_7">
         <!-- 1.5 -->
         <g transform="translate(20.878125 121.358844)scale(0.1 -0.1)">
          <use xlink:href="#DejaVuSans-31"/>
          <use xlink:href="#DejaVuSans-2e" x="63.623047"/>
          <use xlink:href="#DejaVuSans-35" x="95.410156"/>
         </g>
        </g>
       </g>
       <g id="ytick_5">
        <g id="line2d_8">
         <g>
          <use xlink:href="#m839be8a2b6" x="43.78125" y="69.938875" style="stroke: #000000; stroke-width: 0.8"/>
         </g>
        </g>
        <g id="text_8">
         <!-- 2.0 -->
         <g transform="translate(20.878125 73.738094)scale(0.1 -0.1)">
          <use xlink:href="#DejaVuSans-32"/>
          <use xlink:href="#DejaVuSans-2e" x="63.623047"/>
          <use xlink:href="#DejaVuSans-30" x="95.410156"/>
         </g>
        </g>
       </g>
       <g id="ytick_6">
        <g id="line2d_9">
         <g>
          <use xlink:href="#m839be8a2b6" x="43.78125" y="22.318125" style="stroke: #000000; stroke-width: 0.8"/>
         </g>
        </g>
        <g id="text_9">
         <!-- 2.5 -->
         <g transform="translate(20.878125 26.117344)scale(0.1 -0.1)">
          <use xlink:href="#DejaVuSans-32"/>
          <use xlink:href="#DejaVuSans-2e" x="63.623047"/>
          <use xlink:href="#DejaVuSans-35" x="95.410156"/>
         </g>
        </g>
       </g>
       <g id="text_10">
        <!-- time ago (generations) -->
        <g transform="translate(14.798438 198.841094)rotate(-90)scale(0.1 -0.1)">
         <defs>
          <path id="DejaVuSans-74" d="M 1172 4494 
L 1172 3500 
L 2356 3500 
L 2356 3053 
L 1172 3053 
L 1172 1153 
Q 1172 725 1289 603 
Q 1406 481 1766 481 
L 2356 481 
L 2356 0 
L 1766 0 
Q 1100 0 847 248 
Q 594 497 594 1153 
L 594 3053 
L 172 3053 
L 172 3500 
L 594 3500 
L 594 4494 
L 1172 4494 
z
" transform="scale(0.015625)"/>
          <path id="DejaVuSans-69" d="M 603 3500 
L 1178 3500 
L 1178 0 
L 603 0 
L 603 3500 
z
M 603 4863 
L 1178 4863 
L 1178 4134 
L 603 4134 
L 603 4863 
z
" transform="scale(0.015625)"/>
          <path id="DejaVuSans-20" transform="scale(0.015625)"/>
          <path id="DejaVuSans-61" d="M 2194 1759 
Q 1497 1759 1228 1600 
Q 959 1441 959 1056 
Q 959 750 1161 570 
Q 1363 391 1709 391 
Q 2188 391 2477 730 
Q 2766 1069 2766 1631 
L 2766 1759 
L 2194 1759 
z
M 3341 1997 
L 3341 0 
L 2766 0 
L 2766 531 
Q 2569 213 2275 61 
Q 1981 -91 1556 -91 
Q 1019 -91 701 211 
Q 384 513 384 1019 
Q 384 1609 779 1909 
Q 1175 2209 1959 2209 
L 2766 2209 
L 2766 2266 
Q 2766 2663 2505 2880 
Q 2244 3097 1772 3097 
Q 1472 3097 1187 3025 
Q 903 2953 641 2809 
L 641 3341 
Q 956 3463 1253 3523 
Q 1550 3584 1831 3584 
Q 2591 3584 2966 3190 
Q 3341 2797 3341 1997 
z
" transform="scale(0.015625)"/>
          <path id="DejaVuSans-67" d="M 2906 1791 
Q 2906 2416 2648 2759 
Q 2391 3103 1925 3103 
Q 1463 3103 1205 2759 
Q 947 2416 947 1791 
Q 947 1169 1205 825 
Q 1463 481 1925 481 
Q 2391 481 2648 825 
Q 2906 1169 2906 1791 
z
M 3481 434 
Q 3481 -459 3084 -895 
Q 2688 -1331 1869 -1331 
Q 1566 -1331 1297 -1286 
Q 1028 -1241 775 -1147 
L 775 -588 
Q 1028 -725 1275 -790 
Q 1522 -856 1778 -856 
Q 2344 -856 2625 -561 
Q 2906 -266 2906 331 
L 2906 616 
Q 2728 306 2450 153 
Q 2172 0 1784 0 
Q 1141 0 747 490 
Q 353 981 353 1791 
Q 353 2603 747 3093 
Q 1141 3584 1784 3584 
Q 2172 3584 2450 3431 
Q 2728 3278 2906 2969 
L 2906 3500 
L 3481 3500 
L 3481 434 
z
" transform="scale(0.015625)"/>
          <path id="DejaVuSans-6f" d="M 1959 3097 
Q 1497 3097 1228 2736 
Q 959 2375 959 1747 
Q 959 1119 1226 758 
Q 1494 397 1959 397 
Q 2419 397 2687 759 
Q 2956 1122 2956 1747 
Q 2956 2369 2687 2733 
Q 2419 3097 1959 3097 
z
M 1959 3584 
Q 2709 3584 3137 3096 
Q 3566 2609 3566 1747 
Q 3566 888 3137 398 
Q 2709 -91 1959 -91 
Q 1206 -91 779 398 
Q 353 888 353 1747 
Q 353 2609 779 3096 
Q 1206 3584 1959 3584 
z
" transform="scale(0.015625)"/>
          <path id="DejaVuSans-28" d="M 1984 4856 
Q 1566 4138 1362 3434 
Q 1159 2731 1159 2009 
Q 1159 1288 1364 580 
Q 1569 -128 1984 -844 
L 1484 -844 
Q 1016 -109 783 600 
Q 550 1309 550 2009 
Q 550 2706 781 3412 
Q 1013 4119 1484 4856 
L 1984 4856 
z
" transform="scale(0.015625)"/>
          <path id="DejaVuSans-6e" d="M 3513 2113 
L 3513 0 
L 2938 0 
L 2938 2094 
Q 2938 2591 2744 2837 
Q 2550 3084 2163 3084 
Q 1697 3084 1428 2787 
Q 1159 2491 1159 1978 
L 1159 0 
L 581 0 
L 581 3500 
L 1159 3500 
L 1159 2956 
Q 1366 3272 1645 3428 
Q 1925 3584 2291 3584 
Q 2894 3584 3203 3211 
Q 3513 2838 3513 2113 
z
" transform="scale(0.015625)"/>
          <path id="DejaVuSans-72" d="M 2631 2963 
Q 2534 3019 2420 3045 
Q 2306 3072 2169 3072 
Q 1681 3072 1420 2755 
Q 1159 2438 1159 1844 
L 1159 0 
L 581 0 
L 581 3500 
L 1159 3500 
L 1159 2956 
Q 1341 3275 1631 3429 
Q 1922 3584 2338 3584 
Q 2397 3584 2469 3576 
Q 2541 3569 2628 3553 
L 2631 2963 
z
" transform="scale(0.015625)"/>
          <path id="DejaVuSans-73" d="M 2834 3397 
L 2834 2853 
Q 2591 2978 2328 3040 
Q 2066 3103 1784 3103 
Q 1356 3103 1142 2972 
Q 928 2841 928 2578 
Q 928 2378 1081 2264 
Q 1234 2150 1697 2047 
L 1894 2003 
Q 2506 1872 2764 1633 
Q 3022 1394 3022 966 
Q 3022 478 2636 193 
Q 2250 -91 1575 -91 
Q 1294 -91 989 -36 
Q 684 19 347 128 
L 347 722 
Q 666 556 975 473 
Q 1284 391 1588 391 
Q 1994 391 2212 530 
Q 2431 669 2431 922 
Q 2431 1156 2273 1281 
Q 2116 1406 1581 1522 
L 1381 1569 
Q 847 1681 609 1914 
Q 372 2147 372 2553 
Q 372 3047 722 3315 
Q 1072 3584 1716 3584 
Q 2034 3584 2315 3537 
Q 2597 3491 2834 3397 
z
" transform="scale(0.015625)"/>
          <path id="DejaVuSans-29" d="M 513 4856 
L 1013 4856 
Q 1481 4119 1714 3412 
Q 1947 2706 1947 2009 
Q 1947 1309 1714 600 
Q 1481 -109 1013 -844 
L 513 -844 
Q 928 -128 1133 580 
Q 1338 1288 1338 2009 
Q 1338 2731 1133 3434 
Q 928 4138 513 4856 
z
" transform="scale(0.015625)"/>
         </defs>
         <use xlink:href="#DejaVuSans-74"/>
         <use xlink:href="#DejaVuSans-69" x="39.208984"/>
         <use xlink:href="#DejaVuSans-6d" x="66.992188"/>
         <use xlink:href="#DejaVuSans-65" x="164.404297"/>
         <use xlink:href="#DejaVuSans-20" x="225.927734"/>
         <use xlink:href="#DejaVuSans-61" x="257.714844"/>
         <use xlink:href="#DejaVuSans-67" x="318.994141"/>
         <use xlink:href="#DejaVuSans-6f" x="382.470703"/>
         <use xlink:href="#DejaVuSans-20" x="443.652344"/>
         <use xlink:href="#DejaVuSans-28" x="475.439453"/>
         <use xlink:href="#DejaVuSans-67" x="514.453125"/>
         <use xlink:href="#DejaVuSans-65" x="577.929688"/>
         <use xlink:href="#DejaVuSans-6e" x="639.453125"/>
         <use xlink:href="#DejaVuSans-65" x="702.832031"/>
         <use xlink:href="#DejaVuSans-72" x="764.355469"/>
         <use xlink:href="#DejaVuSans-61" x="805.46875"/>
         <use xlink:href="#DejaVuSans-74" x="866.748047"/>
         <use xlink:href="#DejaVuSans-69" x="905.957031"/>
         <use xlink:href="#DejaVuSans-6f" x="933.740234"/>
         <use xlink:href="#DejaVuSans-6e" x="994.921875"/>
         <use xlink:href="#DejaVuSans-73" x="1058.300781"/>
         <use xlink:href="#DejaVuSans-29" x="1110.400391"/>
        </g>
       </g>
      </g>
      <path d="M 216.822903 156.671462 
L 214.822903 155.671462 
L 214.822903 157.671462 
z
" clip-path="url(#pad6c5ce792)" style="fill: #1f77b4; fill-opacity: 0.5; stroke: #1f77b4; stroke-opacity: 0.5; stroke-linejoin: miter"/>
      <path d="M 216.822903 73.791035 
L 214.822903 72.791035 
L 214.822903 74.791035 
z
" clip-path="url(#pad6c5ce792)" style="fill: #1f77b4; fill-opacity: 0.5; stroke: #1f77b4; stroke-opacity: 0.5; stroke-linejoin: miter"/>
      <path d="M 216.822903 123.33653 
L 214.822903 122.33653 
L 214.822903 124.33653 
z
" clip-path="url(#pad6c5ce792)" style="fill: #1f77b4; fill-opacity: 0.5; stroke: #1f77b4; stroke-opacity: 0.5; stroke-linejoin: miter"/>
      <path d="M 216.822903 119.685832 
L 214.822903 118.685832 
L 214.822903 120.685832 
z
" clip-path="url(#pad6c5ce792)" style="fill: #1f77b4; fill-opacity: 0.5; stroke: #1f77b4; stroke-opacity: 0.5; stroke-linejoin: miter"/>
      <path d="M 216.822903 141.526789 
L 214.822903 140.526789 
L 214.822903 142.526789 
z
" clip-path="url(#pad6c5ce792)" style="fill: #1f77b4; fill-opacity: 0.5; stroke: #1f77b4; stroke-opacity: 0.5; stroke-linejoin: miter"/>
      <path d="M 216.822903 109.811378 
L 214.822903 108.811378 
L 214.822903 110.811378 
z
" clip-path="url(#pad6c5ce792)" style="fill: #1f77b4; fill-opacity: 0.5; stroke: #1f77b4; stroke-opacity: 0.5; stroke-linejoin: miter"/>
      <path d="M 216.822903 73.059232 
L 214.822903 72.059232 
L 214.822903 74.059232 
z
" clip-path="url(#pad6c5ce792)" style="fill: #1f77b4; fill-opacity: 0.5; stroke: #1f77b4; stroke-opacity: 0.5; stroke-linejoin: miter"/>
      <path d="M 216.822903 73.542061 
L 214.822903 72.542061 
L 214.822903 74.542061 
z
" clip-path="url(#pad6c5ce792)" style="fill: #1f77b4; fill-opacity: 0.5; stroke: #1f77b4; stroke-opacity: 0.5; stroke-linejoin: miter"/>
      <path d="M 216.822903 156.416996 
L 214.822903 155.416996 
L 214.822903 157.416996 
z
" clip-path="url(#pad6c5ce792)" style="fill: #1f77b4; fill-opacity: 0.5; stroke: #1f77b4; stroke-opacity: 0.5; stroke-linejoin: miter"/>
      <path d="M 216.822903 116.453413 
L 214.822903 115.453413 
L 214.822903 117.453413 
z
" clip-path="url(#pad6c5ce792)" style="fill: #1f77b4; fill-opacity: 0.5; stroke: #1f77b4; stroke-opacity: 0.5; stroke-linejoin: miter"/>
      <path d="M 372.774618 120.238751 
L 370.774618 119.238751 
L 370.774618 121.238751 
z
" clip-path="url(#pad6c5ce792)" style="fill: #ff7f0e; fill-opacity: 0.5; stroke: #ff7f0e; stroke-opacity: 0.5; stroke-linejoin: miter"/>
      <path d="M 372.774618 87.340071 
L 370.774618 86.340071 
L 370.774618 88.340071 
z
" clip-path="url(#pad6c5ce792)" style="fill: #ff7f0e; fill-opacity: 0.5; stroke: #ff7f0e; stroke-opacity: 0.5; stroke-linejoin: miter"/>
      <path d="M 372.774618 113.481154 
L 370.774618 112.481154 
L 370.774618 114.481154 
z
" clip-path="url(#pad6c5ce792)" style="fill: #ff7f0e; fill-opacity: 0.5; stroke: #ff7f0e; stroke-opacity: 0.5; stroke-linejoin: miter"/>
      <path d="M 372.774618 151.70382 
L 370.774618 150.70382 
L 370.774618 152.70382 
z
" clip-path="url(#pad6c5ce792)" style="fill: #ff7f0e; fill-opacity: 0.5; stroke: #ff7f0e; stroke-opacity: 0.5; stroke-linejoin: miter"/>
      <path d="M 372.774618 127.506934 
L 370.774618 126.506934 
L 370.774618 128.506934 
z
" clip-path="url(#pad6c5ce792)" style="fill: #ff7f0e; fill-opacity: 0.5; stroke: #ff7f0e; stroke-opacity: 0.5; stroke-linejoin: miter"/>
      <path d="M 372.774618 103.006687 
L 370.774618 102.006687 
L 370.774618 104.006687 
z
" clip-path="url(#pad6c5ce792)" style="fill: #ff7f0e; fill-opacity: 0.5; stroke: #ff7f0e; stroke-opacity: 0.5; stroke-linejoin: miter"/>
      <path d="M 372.774618 120.157114 
L 370.774618 119.157114 
L 370.774618 121.157114 
z
" clip-path="url(#pad6c5ce792)" style="fill: #ff7f0e; fill-opacity: 0.5; stroke: #ff7f0e; stroke-opacity: 0.5; stroke-linejoin: miter"/>
      <path d="M 372.774618 116.682711 
L 370.774618 115.682711 
L 370.774618 117.682711 
z
" clip-path="url(#pad6c5ce792)" style="fill: #ff7f0e; fill-opacity: 0.5; stroke: #ff7f0e; stroke-opacity: 0.5; stroke-linejoin: miter"/>
      <path d="M 372.774618 85.826942 
L 370.774618 84.826942 
L 370.774618 86.826942 
z
" clip-path="url(#pad6c5ce792)" style="fill: #ff7f0e; fill-opacity: 0.5; stroke: #ff7f0e; stroke-opacity: 0.5; stroke-linejoin: miter"/>
      <path d="M 372.774618 136.079097 
L 370.774618 135.079097 
L 370.774618 137.079097 
z
" clip-path="url(#pad6c5ce792)" style="fill: #ff7f0e; fill-opacity: 0.5; stroke: #ff7f0e; stroke-opacity: 0.5; stroke-linejoin: miter"/>
      <g id="patch_6">
       <path d="M 43.78125 260.421875 
L 43.78125 22.318125 
" style="fill: none; stroke: #000000; stroke-width: 0.8; stroke-linejoin: miter; stroke-linecap: square"/>
      </g>
      <g id="text_11">
       <!-- defaults_migration_properties.yaml -->
       <g transform="translate(164.234688 16.318125)scale(0.12 -0.12)">
        <defs>
         <path id="DejaVuSans-66" d="M 2375 4863 
L 2375 4384 
L 1825 4384 
Q 1516 4384 1395 4259 
Q 1275 4134 1275 3809 
L 1275 3500 
L 2222 3500 
L 2222 3053 
L 1275 3053 
L 1275 0 
L 697 0 
L 697 3053 
L 147 3053 
L 147 3500 
L 697 3500 
L 697 3744 
Q 697 4328 969 4595 
Q 1241 4863 1831 4863 
L 2375 4863 
z
" transform="scale(0.015625)"/>
         <path id="DejaVuSans-75" d="M 544 1381 
L 544 3500 
L 1119 3500 
L 1119 1403 
Q 1119 906 1312 657 
Q 1506 409 1894 409 
Q 2359 409 2629 706 
Q 2900 1003 2900 1516 
L 2900 3500 
L 3475 3500 
L 3475 0 
L 2900 0 
L 2900 538 
Q 2691 219 2414 64 
Q 2138 -91 1772 -91 
Q 1169 -91 856 284 
Q 544 659 544 1381 
z
M 1991 3584 
L 1991 3584 
z
" transform="scale(0.015625)"/>
         <path id="DejaVuSans-6c" d="M 603 4863 
L 1178 4863 
L 1178 0 
L 603 0 
L 603 4863 
z
" transform="scale(0.015625)"/>
         <path id="DejaVuSans-5f" d="M 3263 -1063 
L 3263 -1509 
L -63 -1509 
L -63 -1063 
L 3263 -1063 
z
" transform="scale(0.015625)"/>
         <path id="DejaVuSans-70" d="M 1159 525 
L 1159 -1331 
L 581 -1331 
L 581 3500 
L 1159 3500 
L 1159 2969 
Q 1341 3281 1617 3432 
Q 1894 3584 2278 3584 
Q 2916 3584 3314 3078 
Q 3713 2572 3713 1747 
Q 3713 922 3314 415 
Q 2916 -91 2278 -91 
Q 1894 -91 1617 61 
Q 1341 213 1159 525 
z
M 3116 1747 
Q 3116 2381 2855 2742 
Q 2594 3103 2138 3103 
Q 1681 3103 1420 2742 
Q 1159 2381 1159 1747 
Q 1159 1113 1420 752 
Q 1681 391 2138 391 
Q 2594 391 2855 752 
Q 3116 1113 3116 1747 
z
" transform="scale(0.015625)"/>
         <path id="DejaVuSans-79" d="M 2059 -325 
Q 1816 -950 1584 -1140 
Q 1353 -1331 966 -1331 
L 506 -1331 
L 506 -850 
L 844 -850 
Q 1081 -850 1212 -737 
Q 1344 -625 1503 -206 
L 1606 56 
L 191 3500 
L 800 3500 
L 1894 763 
L 2988 3500 
L 3597 3500 
L 2059 -325 
z
" transform="scale(0.015625)"/>
        </defs>
        <use xlink:href="#DejaVuSans-64"/>
        <use xlink:href="#DejaVuSans-65" x="63.476562"/>
        <use xlink:href="#DejaVuSans-66" x="125"/>
        <use xlink:href="#DejaVuSans-61" x="160.205078"/>
        <use xlink:href="#DejaVuSans-75" x="221.484375"/>
        <use xlink:href="#DejaVuSans-6c" x="284.863281"/>
        <use xlink:href="#DejaVuSans-74" x="312.646484"/>
        <use xlink:href="#DejaVuSans-73" x="351.855469"/>
        <use xlink:href="#DejaVuSans-5f" x="403.955078"/>
        <use xlink:href="#DejaVuSans-6d" x="453.955078"/>
        <use xlink:href="#DejaVuSans-69" x="551.367188"/>
        <use xlink:href="#DejaVuSans-67" x="579.150391"/>
        <use xlink:href="#DejaVuSans-72" x="642.626953"/>
        <use xlink:href="#DejaVuSans-61" x="683.740234"/>
        <use xlink:href="#DejaVuSans-74" x="745.019531"/>
        <use xlink:href="#DejaVuSans-69" x="784.228516"/>
        <use xlink:href="#DejaVuSans-6f" x="812.011719"/>
        <use xlink:href="#DejaVuSans-6e" x="873.193359"/>
        <use xlink:href="#DejaVuSans-5f" x="936.572266"/>
        <use xlink:href="#DejaVuSans-70" x="986.572266"/>
        <use xlink:href="#DejaVuSans-72" x="1050.048828"/>
        <use xlink:href="#DejaVuSans-6f" x="1088.912109"/>
        <use xlink:href="#DejaVuSans-70" x="1150.09375"/>
        <use xlink:href="#DejaVuSans-65" x="1213.570312"/>
        <use xlink:href="#DejaVuSans-72" x="1275.09375"/>
        <use xlink:href="#DejaVuSans-74" x="1316.207031"/>
        <use xlink:href="#DejaVuSans-69" x="1355.416016"/>
        <use xlink:href="#DejaVuSans-65" x="1383.199219"/>
        <use xlink:href="#DejaVuSans-73" x="1444.722656"/>
        <use xlink:href="#DejaVuSans-2e" x="1496.822266"/>
        <use xlink:href="#DejaVuSans-79" x="1528.609375"/>
        <use xlink:href="#DejaVuSans-61" x="1587.789062"/>
        <use xlink:href="#DejaVuSans-6d" x="1649.068359"/>
        <use xlink:href="#DejaVuSans-6c" x="1746.480469"/>
       </g>
      </g>
     </g>
    </g>
    <defs>
     <clipPath id="pad6c5ce792">
      <rect x="43.78125" y="22.318125" width="453.81875" height="238.10375"/>
     </clipPath>
    </defs>
   </g>
  </g>
 </g>
</svg>
