<?xml version="1.0" encoding="utf-8" standalone="no"?>
<!DOCTYPE svg PUBLIC "-//W3C//DTD SVG 1.1//EN"
  "http://www.w3.org/Graphics/SVG/1.1/DTD/svg11.dtd">
<svg xmlns:xlink="http://www.w3.org/1999/xlink" width="607.2pt" height="338.4pt" viewBox="0 0 607.2 338.4" xmlns="http://www.w3.org/2000/svg" version="1.1">
 <metadata>
  <rdf:RDF xmlns:dc="http://purl.org/dc/elements/1.1/" xmlns:cc="http://creativecommons.org/ns#" xmlns:rdf="http://www.w3.org/1999/02/22-rdf-syntax-ns#">
   <cc:Work>
    <dc:type rdf:resource="http://purl.org/dc/dcmitype/StillImage"/>
    <dc:date>2022-10-17T08:39:48.886183</dc:date>
    <dc:format>image/svg+xml</dc:format>
    <dc:creator>
     <cc:Agent>
      <dc:title>Matplotlib v3.6.1, https://matplotlib.org/</dc:title>
     </cc:Agent>
    </dc:creator>
   </cc:Work>
  </rdf:RDF>
 </metadata>
 <defs>
  <style type="text/css">*{stroke-linejoin: round; stroke-linecap: butt}</style>
 </defs>
 <g id="figure_1">
  <g id="patch_1">
   <path d="M 0 338.4 
L 607.2 338.4 
L 607.2 0 
L 0 0 
z
" style="fill: #ffffff"/>
  </g>
  <g id="axes_1">
   <g id="patch_2">
    <path d="M 43.78125 318.021875 
L 600 318.021875 
L 600 22.318125 
L 43.78125 22.318125 
z
" style="fill: #ffffff"/>
   </g>
   <path d="M 290.11196 83.7646 
L 291.11196 83.796037 
L 292.11196 83.832977 
L 293.11196 83.930724 
L 294.11196 83.963245 
L 295.11196 84.03687 
L 296.11196 84.075436 
L 297.11196 84.110849 
L 298.11196 84.168489 
L 299.11196 84.238875 
L 300.11196 84.290839 
L 301.11196 84.349929 
L 302.11196 84.43825 
L 303.11196 84.484394 
L 304.11196 84.526805 
L 305.11196 84.557298 
L 306.11196 84.583343 
L 307.11196 84.604543 
L 308.11196 84.658844 
L 309.11196 84.686781 
L 310.11196 84.716505 
L 311.11196 84.7419 
L 312.11196 84.753101 
L 313.11196 84.763225 
L 314.11196 84.76302 
L 315.11196 84.75351 
L 316.11196 84.741857 
L 317.11196 84.710827 
L 318.11196 84.69966 
L 319.11196 84.669542 
L 320.11196 84.609765 
L 321.11196 84.572574 
L 322.11196 84.533477 
L 323.11196 84.491038 
L 324.11196 84.458273 
L 325.11196 84.390846 
L 326.11196 84.35172 
L 327.11196 84.309046 
L 328.11196 84.238465 
L 329.11196 84.202074 
L 330.11196 84.143671 
L 331.11196 84.032719 
L 332.11196 83.96206 
L 333.11196 83.84912 
L 334.11196 83.803348 
L 335.11196 83.742064 
L 336.11196 83.693565 
L 337.11196 83.612742 
L 338.11196 83.494223 
L 339.11196 83.424013 
L 340.11196 83.34075 
L 341.11196 83.307609 
L 342.11196 83.256371 
L 343.11196 83.187973 
L 344.11196 83.121757 
L 345.11196 83.04484 
L 346.11196 83.017525 
L 347.11196 82.991047 
L 348.11196 82.968397 
L 349.11196 82.948865 
L 350.11196 82.922471 
L 351.11196 82.872701 
L 352.11196 82.837627 
L 353.66929 82.801762 
" clip-path="url(#pfbc973cb14)" style="fill: none; stroke: #1f77b4; stroke-opacity: 0.5; stroke-width: 0.2; stroke-linecap: square"/>
   <path d="M 290.11196 84.400127 
L 291.11196 84.431563 
L 292.11196 84.468503 
L 293.11196 84.56625 
L 294.11196 84.598771 
L 295.11196 84.672396 
L 296.11196 84.710962 
L 297.11196 84.746375 
L 298.11196 84.804015 
L 299.11196 84.874401 
L 300.11196 84.926365 
L 301.11196 84.985455 
L 302.11196 85.073776 
L 303.11196 85.11992 
L 304.11196 85.162331 
L 305.11196 85.192824 
L 306.11196 85.218869 
L 307.11196 85.240069 
L 308.11196 85.29437 
L 309.11196 85.322308 
L 310.11196 85.352032 
L 311.11196 85.377426 
L 312.11196 85.388627 
L 313.11196 85.398751 
L 314.11196 85.398546 
L 315.11196 85.389037 
L 316.11196 85.377383 
L 317.11196 85.346354 
L 318.11196 85.335186 
L 319.11196 85.305068 
L 320.11196 85.245291 
L 321.11196 85.2081 
L 322.11196 85.169004 
L 323.11196 85.126564 
L 324.11196 85.093799 
L 325.11196 85.026372 
L 326.11196 84.987247 
L 327.11196 84.944572 
L 328.11196 84.873991 
L 329.11196 84.837601 
L 330.11196 84.779197 
L 331.11196 84.668245 
L 332.11196 84.597586 
L 333.11196 84.484647 
L 334.11196 84.438874 
L 335.11196 84.377591 
L 336.11196 84.329091 
L 337.11196 84.248269 
L 338.11196 84.12975 
L 339.11196 84.059539 
L 340.11196 83.976276 
L 341.11196 83.943135 
L 342.11196 83.891897 
L 343.11196 83.823499 
L 344.11196 83.757284 
L 345.11196 83.680367 
L 346.11196 83.653051 
L 347.11196 83.626574 
L 348.11196 83.603923 
L 349.11196 83.584392 
L 350.11196 83.557998 
L 351.11196 83.508227 
L 352.11196 83.473154 
L 353.66929 83.437288 
" clip-path="url(#pfbc973cb14)" style="fill: none; stroke: #1f77b4; stroke-opacity: 0.5; stroke-width: 0.2; stroke-linecap: square"/>
   <path d="M 290.11196 112.220548 
L 291.11196 112.251984 
L 292.11196 112.288925 
L 293.11196 112.386671 
L 294.11196 112.419193 
L 295.11196 112.492817 
L 296.11196 112.531383 
L 297.11196 112.566796 
L 298.11196 112.624436 
L 299.11196 112.694822 
L 300.11196 112.746787 
L 301.11196 112.805876 
L 302.11196 112.894197 
L 303.11196 112.940342 
L 304.11196 112.982752 
L 305.11196 113.013245 
L 306.11196 113.03929 
L 307.11196 113.06049 
L 308.11196 113.114791 
L 309.11196 113.142729 
L 310.11196 113.172453 
L 311.11196 113.197848 
L 312.11196 113.209048 
L 313.11196 113.219172 
L 314.11196 113.218968 
L 315.11196 113.209458 
L 316.11196 113.197804 
L 317.11196 113.166775 
L 318.11196 113.155607 
L 319.11196 113.125489 
L 320.11196 113.065713 
L 321.11196 113.028521 
L 322.11196 112.989425 
L 323.11196 112.946985 
L 324.11196 112.91422 
L 325.11196 112.846794 
L 326.11196 112.807668 
L 327.11196 112.764993 
L 328.11196 112.694413 
L 329.11196 112.658022 
L 330.11196 112.599619 
L 331.11196 112.488666 
L 332.11196 112.418008 
L 333.11196 112.305068 
L 334.11196 112.259295 
L 335.11196 112.198012 
L 336.11196 112.149512 
L 337.11196 112.06869 
L 338.11196 111.950171 
L 339.11196 111.87996 
L 340.11196 111.796698 
L 341.11196 111.763556 
L 342.11196 111.712319 
L 343.11196 111.64392 
L 344.11196 111.577705 
L 345.11196 111.500788 
L 346.11196 111.473472 
L 347.11196 111.446995 
L 348.11196 111.424344 
L 349.11196 111.404813 
L 350.11196 111.378419 
L 351.11196 111.328648 
L 352.11196 111.293575 
L 353.66929 111.257709 
" clip-path="url(#pfbc973cb14)" style="fill: none; stroke: #1f77b4; stroke-opacity: 0.5; stroke-width: 0.2; stroke-linecap: square"/>
   <path d="M 290.11196 184.67702 
L 291.11196 184.708456 
L 292.11196 184.745397 
L 293.11196 184.843143 
L 294.11196 184.875665 
L 295.11196 184.949289 
L 296.11196 184.987855 
L 297.11196 185.023268 
L 298.11196 185.080908 
L 299.11196 185.151294 
L 300.11196 185.203259 
L 301.11196 185.262348 
L 302.11196 185.350669 
L 303.11196 185.396814 
L 304.11196 185.439225 
L 305.11196 185.469717 
L 306.11196 185.495762 
L 307.11196 185.516962 
L 308.11196 185.571263 
L 309.11196 185.599201 
L 310.11196 185.628925 
L 311.11196 185.65432 
L 312.11196 185.66552 
L 313.11196 185.675644 
L 314.11196 185.67544 
L 315.11196 185.66593 
L 316.11196 185.654276 
L 317.11196 185.623247 
L 318.11196 185.612079 
L 319.11196 185.581962 
L 320.11196 185.522185 
L 321.11196 185.484993 
L 322.11196 185.445897 
L 323.11196 185.403457 
L 324.11196 185.370692 
L 325.11196 185.303266 
L 326.11196 185.26414 
L 327.11196 185.221465 
L 328.11196 185.150885 
L 329.11196 185.114494 
L 330.11196 185.056091 
L 331.11196 184.945138 
L 332.11196 184.87448 
L 333.11196 184.76154 
L 334.11196 184.715767 
L 335.11196 184.654484 
L 336.11196 184.605985 
L 337.11196 184.525162 
L 338.11196 184.406643 
L 339.11196 184.336432 
L 340.11196 184.25317 
L 341.11196 184.220028 
L 342.11196 184.168791 
L 343.11196 184.100392 
L 344.11196 184.034177 
L 345.11196 183.95726 
L 346.11196 183.929944 
L 347.11196 183.903467 
L 348.11196 183.880816 
L 349.11196 183.861285 
L 350.11196 183.834891 
L 351.11196 183.78512 
L 352.11196 183.750047 
L 353.66929 183.714181 
" clip-path="url(#pfbc973cb14)" style="fill: none; stroke: #1f77b4; stroke-opacity: 0.5; stroke-width: 0.2; stroke-linecap: square"/>
   <path d="M 290.11196 185.440691 
L 291.11196 185.472127 
L 292.11196 185.509067 
L 293.11196 185.606814 
L 294.11196 185.639336 
L 295.11196 185.71296 
L 296.11196 185.751526 
L 297.11196 185.786939 
L 298.11196 185.844579 
L 299.11196 185.914965 
L 300.11196 185.966929 
L 301.11196 186.026019 
L 302.11196 186.11434 
L 303.11196 186.160484 
L 304.11196 186.202895 
L 305.11196 186.233388 
L 306.11196 186.259433 
L 307.11196 186.280633 
L 308.11196 186.334934 
L 309.11196 186.362872 
L 310.11196 186.392596 
L 311.11196 186.41799 
L 312.11196 186.429191 
L 313.11196 186.439315 
L 314.11196 186.43911 
L 315.11196 186.429601 
L 316.11196 186.417947 
L 317.11196 186.386918 
L 318.11196 186.37575 
L 319.11196 186.345632 
L 320.11196 186.285855 
L 321.11196 186.248664 
L 322.11196 186.209568 
L 323.11196 186.167128 
L 324.11196 186.134363 
L 325.11196 186.066937 
L 326.11196 186.027811 
L 327.11196 185.985136 
L 328.11196 185.914555 
L 329.11196 185.878165 
L 330.11196 185.819761 
L 331.11196 185.708809 
L 332.11196 185.638151 
L 333.11196 185.525211 
L 334.11196 185.479438 
L 335.11196 185.418155 
L 336.11196 185.369655 
L 337.11196 185.288833 
L 338.11196 185.170314 
L 339.11196 185.100103 
L 340.11196 185.016841 
L 341.11196 184.983699 
L 342.11196 184.932461 
L 343.11196 184.864063 
L 344.11196 184.797848 
L 345.11196 184.720931 
L 346.11196 184.693615 
L 347.11196 184.667138 
L 348.11196 184.644487 
L 349.11196 184.624956 
L 350.11196 184.598562 
L 351.11196 184.548791 
L 352.11196 184.513718 
L 353.66929 184.477852 
" clip-path="url(#pfbc973cb14)" style="fill: none; stroke: #1f77b4; stroke-opacity: 0.5; stroke-width: 0.2; stroke-linecap: square"/>
   <path d="M 290.11196 179.058418 
L 291.11196 179.089854 
L 292.11196 179.126794 
L 293.11196 179.224541 
L 294.11196 179.257063 
L 295.11196 179.330687 
L 296.11196 179.369253 
L 297.11196 179.404666 
L 298.11196 179.462306 
L 299.11196 179.532692 
L 300.11196 179.584656 
L 301.11196 179.643746 
L 302.11196 179.732067 
L 303.11196 179.778211 
L 304.11196 179.820622 
L 305.11196 179.851115 
L 306.11196 179.87716 
L 307.11196 179.89836 
L 308.11196 179.952661 
L 309.11196 179.980599 
L 310.11196 180.010323 
L 311.11196 180.035717 
L 312.11196 180.046918 
L 313.11196 180.057042 
L 314.11196 180.056837 
L 315.11196 180.047328 
L 316.11196 180.035674 
L 317.11196 180.004645 
L 318.11196 179.993477 
L 319.11196 179.963359 
L 320.11196 179.903582 
L 321.11196 179.866391 
L 322.11196 179.827295 
L 323.11196 179.784855 
L 324.11196 179.75209 
L 325.11196 179.684664 
L 326.11196 179.645538 
L 327.11196 179.602863 
L 328.11196 179.532282 
L 329.11196 179.495892 
L 330.11196 179.437488 
L 331.11196 179.326536 
L 332.11196 179.255878 
L 333.11196 179.142938 
L 334.11196 179.097165 
L 335.11196 179.035882 
L 336.11196 178.987382 
L 337.11196 178.90656 
L 338.11196 178.788041 
L 339.11196 178.71783 
L 340.11196 178.634568 
L 341.11196 178.601426 
L 342.11196 178.550188 
L 343.11196 178.48179 
L 344.11196 178.415575 
L 345.11196 178.338658 
L 346.11196 178.311342 
L 347.11196 178.284865 
L 348.11196 178.262214 
L 349.11196 178.242683 
L 350.11196 178.216289 
L 351.11196 178.166518 
L 352.11196 178.131445 
L 353.66929 178.095579 
" clip-path="url(#pfbc973cb14)" style="fill: none; stroke: #1f77b4; stroke-opacity: 0.5; stroke-width: 0.2; stroke-linecap: square"/>
   <path d="M 290.11196 181.152849 
L 291.11196 181.184286 
L 292.11196 181.221226 
L 293.11196 181.318973 
L 294.11196 181.351494 
L 295.11196 181.425119 
L 296.11196 181.463685 
L 297.11196 181.499098 
L 298.11196 181.556738 
L 299.11196 181.627124 
L 300.11196 181.679088 
L 301.11196 181.738178 
L 302.11196 181.826499 
L 303.11196 181.872643 
L 304.11196 181.915054 
L 305.11196 181.945547 
L 306.11196 181.971592 
L 307.11196 181.992792 
L 308.11196 182.047093 
L 309.11196 182.07503 
L 310.11196 182.104754 
L 311.11196 182.130149 
L 312.11196 182.14135 
L 313.11196 182.151473 
L 314.11196 182.151269 
L 315.11196 182.141759 
L 316.11196 182.130106 
L 317.11196 182.099076 
L 318.11196 182.087909 
L 319.11196 182.057791 
L 320.11196 181.998014 
L 321.11196 181.960823 
L 322.11196 181.921726 
L 323.11196 181.879287 
L 324.11196 181.846522 
L 325.11196 181.779095 
L 326.11196 181.739969 
L 327.11196 181.697295 
L 328.11196 181.626714 
L 329.11196 181.590323 
L 330.11196 181.53192 
L 331.11196 181.420968 
L 332.11196 181.350309 
L 333.11196 181.237369 
L 334.11196 181.191597 
L 335.11196 181.130313 
L 336.11196 181.081814 
L 337.11196 181.000991 
L 338.11196 180.882472 
L 339.11196 180.812262 
L 340.11196 180.728999 
L 341.11196 180.695857 
L 342.11196 180.64462 
L 343.11196 180.576222 
L 344.11196 180.510006 
L 345.11196 180.433089 
L 346.11196 180.405774 
L 347.11196 180.379296 
L 348.11196 180.356646 
L 349.11196 180.337114 
L 350.11196 180.31072 
L 351.11196 180.26095 
L 352.11196 180.225876 
L 353.66929 180.190011 
" clip-path="url(#pfbc973cb14)" style="fill: none; stroke: #1f77b4; stroke-opacity: 0.5; stroke-width: 0.2; stroke-linecap: square"/>
   <path d="M 290.11196 148.737282 
L 291.11196 148.768718 
L 292.11196 148.805658 
L 293.11196 148.903405 
L 294.11196 148.935926 
L 295.11196 149.009551 
L 296.11196 149.048117 
L 297.11196 149.08353 
L 298.11196 149.14117 
L 299.11196 149.211556 
L 300.11196 149.26352 
L 301.11196 149.32261 
L 302.11196 149.410931 
L 303.11196 149.457075 
L 304.11196 149.499486 
L 305.11196 149.529979 
L 306.11196 149.556024 
L 307.11196 149.577224 
L 308.11196 149.631525 
L 309.11196 149.659463 
L 310.11196 149.689187 
L 311.11196 149.714581 
L 312.11196 149.725782 
L 313.11196 149.735906 
L 314.11196 149.735701 
L 315.11196 149.726191 
L 316.11196 149.714538 
L 317.11196 149.683509 
L 318.11196 149.672341 
L 319.11196 149.642223 
L 320.11196 149.582446 
L 321.11196 149.545255 
L 322.11196 149.506159 
L 323.11196 149.463719 
L 324.11196 149.430954 
L 325.11196 149.363527 
L 326.11196 149.324401 
L 327.11196 149.281727 
L 328.11196 149.211146 
L 329.11196 149.174755 
L 330.11196 149.116352 
L 331.11196 149.0054 
L 332.11196 148.934741 
L 333.11196 148.821802 
L 334.11196 148.776029 
L 335.11196 148.714745 
L 336.11196 148.666246 
L 337.11196 148.585423 
L 338.11196 148.466905 
L 339.11196 148.396694 
L 340.11196 148.313431 
L 341.11196 148.28029 
L 342.11196 148.229052 
L 343.11196 148.160654 
L 344.11196 148.094439 
L 345.11196 148.017521 
L 346.11196 147.990206 
L 347.11196 147.963728 
L 348.11196 147.941078 
L 349.11196 147.921547 
L 350.11196 147.895153 
L 351.11196 147.845382 
L 352.11196 147.810309 
L 353.66929 147.774443 
" clip-path="url(#pfbc973cb14)" style="fill: none; stroke: #1f77b4; stroke-opacity: 0.5; stroke-width: 0.2; stroke-linecap: square"/>
   <path d="M 290.11196 96.538694 
L 291.11196 96.57013 
L 292.11196 96.607071 
L 293.11196 96.704817 
L 294.11196 96.737339 
L 295.11196 96.810964 
L 296.11196 96.849529 
L 297.11196 96.884942 
L 298.11196 96.942582 
L 299.11196 97.012968 
L 300.11196 97.064933 
L 301.11196 97.124022 
L 302.11196 97.212343 
L 303.11196 97.258488 
L 304.11196 97.300899 
L 305.11196 97.331391 
L 306.11196 97.357436 
L 307.11196 97.378636 
L 308.11196 97.432937 
L 309.11196 97.460875 
L 310.11196 97.490599 
L 311.11196 97.515994 
L 312.11196 97.527194 
L 313.11196 97.537318 
L 314.11196 97.537114 
L 315.11196 97.527604 
L 316.11196 97.51595 
L 317.11196 97.484921 
L 318.11196 97.473753 
L 319.11196 97.443636 
L 320.11196 97.383859 
L 321.11196 97.346667 
L 322.11196 97.307571 
L 323.11196 97.265131 
L 324.11196 97.232366 
L 325.11196 97.16494 
L 326.11196 97.125814 
L 327.11196 97.083139 
L 328.11196 97.012559 
L 329.11196 96.976168 
L 330.11196 96.917765 
L 331.11196 96.806812 
L 332.11196 96.736154 
L 333.11196 96.623214 
L 334.11196 96.577441 
L 335.11196 96.516158 
L 336.11196 96.467659 
L 337.11196 96.386836 
L 338.11196 96.268317 
L 339.11196 96.198106 
L 340.11196 96.114844 
L 341.11196 96.081702 
L 342.11196 96.030465 
L 343.11196 95.962066 
L 344.11196 95.895851 
L 345.11196 95.818934 
L 346.11196 95.791618 
L 347.11196 95.765141 
L 348.11196 95.74249 
L 349.11196 95.722959 
L 350.11196 95.696565 
L 351.11196 95.646794 
L 352.11196 95.611721 
L 353.66929 95.575855 
" clip-path="url(#pfbc973cb14)" style="fill: none; stroke: #1f77b4; stroke-opacity: 0.5; stroke-width: 0.2; stroke-linecap: square"/>
   <path d="M 290.11196 195.095747 
L 291.11196 195.127183 
L 292.11196 195.164124 
L 293.11196 195.26187 
L 294.11196 195.294392 
L 295.11196 195.368016 
L 296.11196 195.406582 
L 297.11196 195.441995 
L 298.11196 195.499635 
L 299.11196 195.570021 
L 300.11196 195.621985 
L 301.11196 195.681075 
L 302.11196 195.769396 
L 303.11196 195.81554 
L 304.11196 195.857951 
L 305.11196 195.888444 
L 306.11196 195.914489 
L 307.11196 195.935689 
L 308.11196 195.98999 
L 309.11196 196.017928 
L 310.11196 196.047652 
L 311.11196 196.073047 
L 312.11196 196.084247 
L 313.11196 196.094371 
L 314.11196 196.094167 
L 315.11196 196.084657 
L 316.11196 196.073003 
L 317.11196 196.041974 
L 318.11196 196.030806 
L 319.11196 196.000688 
L 320.11196 195.940911 
L 321.11196 195.90372 
L 322.11196 195.864624 
L 323.11196 195.822184 
L 324.11196 195.789419 
L 325.11196 195.721993 
L 326.11196 195.682867 
L 327.11196 195.640192 
L 328.11196 195.569612 
L 329.11196 195.533221 
L 330.11196 195.474818 
L 331.11196 195.363865 
L 332.11196 195.293207 
L 333.11196 195.180267 
L 334.11196 195.134494 
L 335.11196 195.073211 
L 336.11196 195.024711 
L 337.11196 194.943889 
L 338.11196 194.82537 
L 339.11196 194.755159 
L 340.11196 194.671897 
L 341.11196 194.638755 
L 342.11196 194.587518 
L 343.11196 194.519119 
L 344.11196 194.452904 
L 345.11196 194.375987 
L 346.11196 194.348671 
L 347.11196 194.322194 
L 348.11196 194.299543 
L 349.11196 194.280012 
L 350.11196 194.253618 
L 351.11196 194.203847 
L 352.11196 194.168774 
L 353.66929 194.132908 
" clip-path="url(#pfbc973cb14)" style="fill: none; stroke: #1f77b4; stroke-opacity: 0.5; stroke-width: 0.2; stroke-linecap: square"/>
   <path d="M 290.11196 217.200288 
L 291.11196 217.231724 
L 292.11196 217.268664 
L 293.11196 217.366411 
L 294.11196 217.398932 
L 295.11196 217.472557 
L 296.11196 217.511123 
L 297.11196 217.546536 
L 298.11196 217.604176 
L 299.11196 217.674562 
L 300.11196 217.726526 
L 301.11196 217.785616 
L 302.11196 217.873937 
L 303.11196 217.920081 
L 304.11196 217.962492 
L 305.11196 217.992985 
L 306.11196 218.01903 
L 307.11196 218.04023 
L 308.11196 218.094531 
L 309.11196 218.122469 
L 310.11196 218.152193 
L 311.11196 218.177587 
L 312.11196 218.188788 
L 313.11196 218.198912 
L 314.11196 218.198707 
L 315.11196 218.189198 
L 316.11196 218.177544 
L 317.11196 218.146515 
L 318.11196 218.135347 
L 319.11196 218.105229 
L 320.11196 218.045452 
L 321.11196 218.008261 
L 322.11196 217.969165 
L 323.11196 217.926725 
L 324.11196 217.89396 
L 325.11196 217.826533 
L 326.11196 217.787408 
L 327.11196 217.744733 
L 328.11196 217.674152 
L 329.11196 217.637762 
L 330.11196 217.579358 
L 331.11196 217.468406 
L 332.11196 217.397747 
L 333.11196 217.284808 
L 334.11196 217.239035 
L 335.11196 217.177752 
L 336.11196 217.129252 
L 337.11196 217.04843 
L 338.11196 216.929911 
L 339.11196 216.8597 
L 340.11196 216.776437 
L 341.11196 216.743296 
L 342.11196 216.692058 
L 343.11196 216.62366 
L 344.11196 216.557445 
L 345.11196 216.480528 
L 346.11196 216.453212 
L 347.11196 216.426735 
L 348.11196 216.404084 
L 349.11196 216.384553 
L 350.11196 216.358159 
L 351.11196 216.308388 
L 352.11196 216.273315 
L 353.66929 216.237449 
" clip-path="url(#pfbc973cb14)" style="fill: none; stroke: #1f77b4; stroke-opacity: 0.5; stroke-width: 0.2; stroke-linecap: square"/>
   <path d="M 290.11196 222.056959 
L 291.11196 222.088395 
L 292.11196 222.125336 
L 293.11196 222.223082 
L 294.11196 222.255604 
L 295.11196 222.329228 
L 296.11196 222.367794 
L 297.11196 222.403207 
L 298.11196 222.460847 
L 299.11196 222.531233 
L 300.11196 222.583197 
L 301.11196 222.642287 
L 302.11196 222.730608 
L 303.11196 222.776753 
L 304.11196 222.819163 
L 305.11196 222.849656 
L 306.11196 222.875701 
L 307.11196 222.896901 
L 308.11196 222.951202 
L 309.11196 222.97914 
L 310.11196 223.008864 
L 311.11196 223.034259 
L 312.11196 223.045459 
L 313.11196 223.055583 
L 314.11196 223.055379 
L 315.11196 223.045869 
L 316.11196 223.034215 
L 317.11196 223.003186 
L 318.11196 222.992018 
L 319.11196 222.9619 
L 320.11196 222.902124 
L 321.11196 222.864932 
L 322.11196 222.825836 
L 323.11196 222.783396 
L 324.11196 222.750631 
L 325.11196 222.683205 
L 326.11196 222.644079 
L 327.11196 222.601404 
L 328.11196 222.530824 
L 329.11196 222.494433 
L 330.11196 222.43603 
L 331.11196 222.325077 
L 332.11196 222.254419 
L 333.11196 222.141479 
L 334.11196 222.095706 
L 335.11196 222.034423 
L 336.11196 221.985923 
L 337.11196 221.905101 
L 338.11196 221.786582 
L 339.11196 221.716371 
L 340.11196 221.633109 
L 341.11196 221.599967 
L 342.11196 221.54873 
L 343.11196 221.480331 
L 344.11196 221.414116 
L 345.11196 221.337199 
L 346.11196 221.309883 
L 347.11196 221.283406 
L 348.11196 221.260755 
L 349.11196 221.241224 
L 350.11196 221.21483 
L 351.11196 221.165059 
L 352.11196 221.129986 
L 353.66929 221.09412 
" clip-path="url(#pfbc973cb14)" style="fill: none; stroke: #1f77b4; stroke-opacity: 0.5; stroke-width: 0.2; stroke-linecap: square"/>
   <path d="M 290.11196 214.934656 
L 291.11196 214.966092 
L 292.11196 215.003033 
L 293.11196 215.100779 
L 294.11196 215.133301 
L 295.11196 215.206925 
L 296.11196 215.245491 
L 297.11196 215.280904 
L 298.11196 215.338544 
L 299.11196 215.40893 
L 300.11196 215.460894 
L 301.11196 215.519984 
L 302.11196 215.608305 
L 303.11196 215.654449 
L 304.11196 215.69686 
L 305.11196 215.727353 
L 306.11196 215.753398 
L 307.11196 215.774598 
L 308.11196 215.828899 
L 309.11196 215.856837 
L 310.11196 215.886561 
L 311.11196 215.911956 
L 312.11196 215.923156 
L 313.11196 215.93328 
L 314.11196 215.933076 
L 315.11196 215.923566 
L 316.11196 215.911912 
L 317.11196 215.880883 
L 318.11196 215.869715 
L 319.11196 215.839597 
L 320.11196 215.77982 
L 321.11196 215.742629 
L 322.11196 215.703533 
L 323.11196 215.661093 
L 324.11196 215.628328 
L 325.11196 215.560902 
L 326.11196 215.521776 
L 327.11196 215.479101 
L 328.11196 215.408521 
L 329.11196 215.37213 
L 330.11196 215.313727 
L 331.11196 215.202774 
L 332.11196 215.132116 
L 333.11196 215.019176 
L 334.11196 214.973403 
L 335.11196 214.91212 
L 336.11196 214.86362 
L 337.11196 214.782798 
L 338.11196 214.664279 
L 339.11196 214.594068 
L 340.11196 214.510806 
L 341.11196 214.477664 
L 342.11196 214.426427 
L 343.11196 214.358028 
L 344.11196 214.291813 
L 345.11196 214.214896 
L 346.11196 214.18758 
L 347.11196 214.161103 
L 348.11196 214.138452 
L 349.11196 214.118921 
L 350.11196 214.092527 
L 351.11196 214.042756 
L 352.11196 214.007683 
L 353.66929 213.971817 
" clip-path="url(#pfbc973cb14)" style="fill: none; stroke: #1f77b4; stroke-opacity: 0.5; stroke-width: 0.2; stroke-linecap: square"/>
   <path d="M 290.11196 274.660051 
L 291.11196 274.691488 
L 292.11196 274.728428 
L 293.11196 274.826175 
L 294.11196 274.858696 
L 295.11196 274.932321 
L 296.11196 274.970887 
L 297.11196 275.0063 
L 298.11196 275.06394 
L 299.11196 275.134326 
L 300.11196 275.18629 
L 301.11196 275.24538 
L 302.11196 275.333701 
L 303.11196 275.379845 
L 304.11196 275.422256 
L 305.11196 275.452749 
L 306.11196 275.478794 
L 307.11196 275.499994 
L 308.11196 275.554295 
L 309.11196 275.582232 
L 310.11196 275.611956 
L 311.11196 275.637351 
L 312.11196 275.648552 
L 313.11196 275.658676 
L 314.11196 275.658471 
L 315.11196 275.648961 
L 316.11196 275.637308 
L 317.11196 275.606279 
L 318.11196 275.595111 
L 319.11196 275.564993 
L 320.11196 275.505216 
L 321.11196 275.468025 
L 322.11196 275.428929 
L 323.11196 275.386489 
L 324.11196 275.353724 
L 325.11196 275.286297 
L 326.11196 275.247171 
L 327.11196 275.204497 
L 328.11196 275.133916 
L 329.11196 275.097525 
L 330.11196 275.039122 
L 331.11196 274.92817 
L 332.11196 274.857511 
L 333.11196 274.744571 
L 334.11196 274.698799 
L 335.11196 274.637515 
L 336.11196 274.589016 
L 337.11196 274.508193 
L 338.11196 274.389674 
L 339.11196 274.319464 
L 340.11196 274.236201 
L 341.11196 274.20306 
L 342.11196 274.151822 
L 343.11196 274.083424 
L 344.11196 274.017208 
L 345.11196 273.940291 
L 346.11196 273.912976 
L 347.11196 273.886498 
L 348.11196 273.863848 
L 349.11196 273.844316 
L 350.11196 273.817923 
L 351.11196 273.768152 
L 352.11196 273.733079 
L 353.66929 273.697213 
" clip-path="url(#pfbc973cb14)" style="fill: none; stroke: #1f77b4; stroke-opacity: 0.5; stroke-width: 0.2; stroke-linecap: square"/>
   <path d="M 290.11196 216.26645 
L 291.11196 216.297886 
L 292.11196 216.334827 
L 293.11196 216.432573 
L 294.11196 216.465095 
L 295.11196 216.538719 
L 296.11196 216.577285 
L 297.11196 216.612698 
L 298.11196 216.670338 
L 299.11196 216.740724 
L 300.11196 216.792689 
L 301.11196 216.851778 
L 302.11196 216.940099 
L 303.11196 216.986244 
L 304.11196 217.028655 
L 305.11196 217.059147 
L 306.11196 217.085192 
L 307.11196 217.106392 
L 308.11196 217.160693 
L 309.11196 217.188631 
L 310.11196 217.218355 
L 311.11196 217.24375 
L 312.11196 217.25495 
L 313.11196 217.265074 
L 314.11196 217.26487 
L 315.11196 217.25536 
L 316.11196 217.243706 
L 317.11196 217.212677 
L 318.11196 217.201509 
L 319.11196 217.171392 
L 320.11196 217.111615 
L 321.11196 217.074423 
L 322.11196 217.035327 
L 323.11196 216.992887 
L 324.11196 216.960122 
L 325.11196 216.892696 
L 326.11196 216.85357 
L 327.11196 216.810895 
L 328.11196 216.740315 
L 329.11196 216.703924 
L 330.11196 216.645521 
L 331.11196 216.534568 
L 332.11196 216.46391 
L 333.11196 216.35097 
L 334.11196 216.305197 
L 335.11196 216.243914 
L 336.11196 216.195414 
L 337.11196 216.114592 
L 338.11196 215.996073 
L 339.11196 215.925862 
L 340.11196 215.8426 
L 341.11196 215.809458 
L 342.11196 215.758221 
L 343.11196 215.689822 
L 344.11196 215.623607 
L 345.11196 215.54669 
L 346.11196 215.519374 
L 347.11196 215.492897 
L 348.11196 215.470246 
L 349.11196 215.450715 
L 350.11196 215.424321 
L 351.11196 215.37455 
L 352.11196 215.339477 
L 353.66929 215.303611 
" clip-path="url(#pfbc973cb14)" style="fill: none; stroke: #1f77b4; stroke-opacity: 0.5; stroke-width: 0.2; stroke-linecap: square"/>
   <path d="M 290.11196 298.018231 
L 291.11196 298.049668 
L 292.11196 298.086608 
L 293.11196 298.184355 
L 294.11196 298.216876 
L 295.11196 298.290501 
L 296.11196 298.329066 
L 297.11196 298.36448 
L 298.11196 298.42212 
L 299.11196 298.492506 
L 300.11196 298.54447 
L 301.11196 298.60356 
L 302.11196 298.691881 
L 303.11196 298.738025 
L 304.11196 298.780436 
L 305.11196 298.810929 
L 306.11196 298.836974 
L 307.11196 298.858174 
L 308.11196 298.912475 
L 309.11196 298.940412 
L 310.11196 298.970136 
L 311.11196 298.995531 
L 312.11196 299.006732 
L 313.11196 299.016855 
L 314.11196 299.016651 
L 315.11196 299.007141 
L 316.11196 298.995488 
L 317.11196 298.964458 
L 318.11196 298.953291 
L 319.11196 298.923173 
L 320.11196 298.863396 
L 321.11196 298.826205 
L 322.11196 298.787108 
L 323.11196 298.744669 
L 324.11196 298.711904 
L 325.11196 298.644477 
L 326.11196 298.605351 
L 327.11196 298.562677 
L 328.11196 298.492096 
L 329.11196 298.455705 
L 330.11196 298.397302 
L 331.11196 298.28635 
L 332.11196 298.215691 
L 333.11196 298.102751 
L 334.11196 298.056979 
L 335.11196 297.995695 
L 336.11196 297.947196 
L 337.11196 297.866373 
L 338.11196 297.747854 
L 339.11196 297.677644 
L 340.11196 297.594381 
L 341.11196 297.561239 
L 342.11196 297.510002 
L 343.11196 297.441604 
L 344.11196 297.375388 
L 345.11196 297.298471 
L 346.11196 297.271156 
L 347.11196 297.244678 
L 348.11196 297.222028 
L 349.11196 297.202496 
L 350.11196 297.176102 
L 351.11196 297.126332 
L 352.11196 297.091258 
L 353.66929 297.055393 
" clip-path="url(#pfbc973cb14)" style="fill: none; stroke: #1f77b4; stroke-opacity: 0.5; stroke-width: 0.2; stroke-linecap: square"/>
   <path d="M 290.11196 261.008383 
L 291.11196 261.03982 
L 292.11196 261.07676 
L 293.11196 261.174507 
L 294.11196 261.207028 
L 295.11196 261.280653 
L 296.11196 261.319218 
L 297.11196 261.354632 
L 298.11196 261.412272 
L 299.11196 261.482658 
L 300.11196 261.534622 
L 301.11196 261.593712 
L 302.11196 261.682033 
L 303.11196 261.728177 
L 304.11196 261.770588 
L 305.11196 261.801081 
L 306.11196 261.827126 
L 307.11196 261.848326 
L 308.11196 261.902627 
L 309.11196 261.930564 
L 310.11196 261.960288 
L 311.11196 261.985683 
L 312.11196 261.996883 
L 313.11196 262.007007 
L 314.11196 262.006803 
L 315.11196 261.997293 
L 316.11196 261.98564 
L 317.11196 261.95461 
L 318.11196 261.943442 
L 319.11196 261.913325 
L 320.11196 261.853548 
L 321.11196 261.816356 
L 322.11196 261.77726 
L 323.11196 261.734821 
L 324.11196 261.702056 
L 325.11196 261.634629 
L 326.11196 261.595503 
L 327.11196 261.552829 
L 328.11196 261.482248 
L 329.11196 261.445857 
L 330.11196 261.387454 
L 331.11196 261.276501 
L 332.11196 261.205843 
L 333.11196 261.092903 
L 334.11196 261.04713 
L 335.11196 260.985847 
L 336.11196 260.937348 
L 337.11196 260.856525 
L 338.11196 260.738006 
L 339.11196 260.667796 
L 340.11196 260.584533 
L 341.11196 260.551391 
L 342.11196 260.500154 
L 343.11196 260.431756 
L 344.11196 260.36554 
L 345.11196 260.288623 
L 346.11196 260.261308 
L 347.11196 260.23483 
L 348.11196 260.21218 
L 349.11196 260.192648 
L 350.11196 260.166254 
L 351.11196 260.116484 
L 352.11196 260.08141 
L 353.66929 260.045545 
" clip-path="url(#pfbc973cb14)" style="fill: none; stroke: #1f77b4; stroke-opacity: 0.5; stroke-width: 0.2; stroke-linecap: square"/>
   <path d="M 290.11196 285.5234 
L 291.11196 285.554837 
L 292.11196 285.591777 
L 293.11196 285.689524 
L 294.11196 285.722045 
L 295.11196 285.79567 
L 296.11196 285.834235 
L 297.11196 285.869649 
L 298.11196 285.927288 
L 299.11196 285.997675 
L 300.11196 286.049639 
L 301.11196 286.108729 
L 302.11196 286.19705 
L 303.11196 286.243194 
L 304.11196 286.285605 
L 305.11196 286.316098 
L 306.11196 286.342142 
L 307.11196 286.363343 
L 308.11196 286.417644 
L 309.11196 286.445581 
L 310.11196 286.475305 
L 311.11196 286.5007 
L 312.11196 286.5119 
L 313.11196 286.522024 
L 314.11196 286.52182 
L 315.11196 286.51231 
L 316.11196 286.500657 
L 317.11196 286.469627 
L 318.11196 286.458459 
L 319.11196 286.428342 
L 320.11196 286.368565 
L 321.11196 286.331373 
L 322.11196 286.292277 
L 323.11196 286.249838 
L 324.11196 286.217073 
L 325.11196 286.149646 
L 326.11196 286.11052 
L 327.11196 286.067846 
L 328.11196 285.997265 
L 329.11196 285.960874 
L 330.11196 285.902471 
L 331.11196 285.791518 
L 332.11196 285.72086 
L 333.11196 285.60792 
L 334.11196 285.562147 
L 335.11196 285.500864 
L 336.11196 285.452365 
L 337.11196 285.371542 
L 338.11196 285.253023 
L 339.11196 285.182813 
L 340.11196 285.09955 
L 341.11196 285.066408 
L 342.11196 285.015171 
L 343.11196 284.946773 
L 344.11196 284.880557 
L 345.11196 284.80364 
L 346.11196 284.776325 
L 347.11196 284.749847 
L 348.11196 284.727197 
L 349.11196 284.707665 
L 350.11196 284.681271 
L 351.11196 284.6315 
L 352.11196 284.596427 
L 353.66929 284.560562 
" clip-path="url(#pfbc973cb14)" style="fill: none; stroke: #1f77b4; stroke-opacity: 0.5; stroke-width: 0.2; stroke-linecap: square"/>
   <path d="M 290.11196 244.934159 
L 291.11196 244.965595 
L 292.11196 245.002536 
L 293.11196 245.100282 
L 294.11196 245.132804 
L 295.11196 245.206429 
L 296.11196 245.244994 
L 297.11196 245.280407 
L 298.11196 245.338047 
L 299.11196 245.408434 
L 300.11196 245.460398 
L 301.11196 245.519488 
L 302.11196 245.607808 
L 303.11196 245.653953 
L 304.11196 245.696364 
L 305.11196 245.726856 
L 306.11196 245.752901 
L 307.11196 245.774101 
L 308.11196 245.828403 
L 309.11196 245.85634 
L 310.11196 245.886064 
L 311.11196 245.911459 
L 312.11196 245.922659 
L 313.11196 245.932783 
L 314.11196 245.932579 
L 315.11196 245.923069 
L 316.11196 245.911415 
L 317.11196 245.880386 
L 318.11196 245.869218 
L 319.11196 245.839101 
L 320.11196 245.779324 
L 321.11196 245.742132 
L 322.11196 245.703036 
L 323.11196 245.660597 
L 324.11196 245.627831 
L 325.11196 245.560405 
L 326.11196 245.521279 
L 327.11196 245.478605 
L 328.11196 245.408024 
L 329.11196 245.371633 
L 330.11196 245.31323 
L 331.11196 245.202277 
L 332.11196 245.131619 
L 333.11196 245.018679 
L 334.11196 244.972906 
L 335.11196 244.911623 
L 336.11196 244.863124 
L 337.11196 244.782301 
L 338.11196 244.663782 
L 339.11196 244.593571 
L 340.11196 244.510309 
L 341.11196 244.477167 
L 342.11196 244.42593 
L 343.11196 244.357532 
L 344.11196 244.291316 
L 345.11196 244.214399 
L 346.11196 244.187084 
L 347.11196 244.160606 
L 348.11196 244.137955 
L 349.11196 244.118424 
L 350.11196 244.09203 
L 351.11196 244.042259 
L 352.11196 244.007186 
L 353.66929 243.971321 
" clip-path="url(#pfbc973cb14)" style="fill: none; stroke: #1f77b4; stroke-opacity: 0.5; stroke-width: 0.2; stroke-linecap: square"/>
   <path d="M 290.11196 247.714814 
L 291.11196 247.74625 
L 292.11196 247.78319 
L 293.11196 247.880937 
L 294.11196 247.913458 
L 295.11196 247.987083 
L 296.11196 248.025649 
L 297.11196 248.061062 
L 298.11196 248.118702 
L 299.11196 248.189088 
L 300.11196 248.241052 
L 301.11196 248.300142 
L 302.11196 248.388463 
L 303.11196 248.434607 
L 304.11196 248.477018 
L 305.11196 248.507511 
L 306.11196 248.533556 
L 307.11196 248.554756 
L 308.11196 248.609057 
L 309.11196 248.636995 
L 310.11196 248.666719 
L 311.11196 248.692113 
L 312.11196 248.703314 
L 313.11196 248.713438 
L 314.11196 248.713233 
L 315.11196 248.703723 
L 316.11196 248.69207 
L 317.11196 248.661041 
L 318.11196 248.649873 
L 319.11196 248.619755 
L 320.11196 248.559978 
L 321.11196 248.522787 
L 322.11196 248.483691 
L 323.11196 248.441251 
L 324.11196 248.408486 
L 325.11196 248.341059 
L 326.11196 248.301934 
L 327.11196 248.259259 
L 328.11196 248.188678 
L 329.11196 248.152288 
L 330.11196 248.093884 
L 331.11196 247.982932 
L 332.11196 247.912273 
L 333.11196 247.799334 
L 334.11196 247.753561 
L 335.11196 247.692277 
L 336.11196 247.643778 
L 337.11196 247.562955 
L 338.11196 247.444437 
L 339.11196 247.374226 
L 340.11196 247.290963 
L 341.11196 247.257822 
L 342.11196 247.206584 
L 343.11196 247.138186 
L 344.11196 247.071971 
L 345.11196 246.995054 
L 346.11196 246.967738 
L 347.11196 246.941261 
L 348.11196 246.91861 
L 349.11196 246.899079 
L 350.11196 246.872685 
L 351.11196 246.822914 
L 352.11196 246.787841 
L 353.66929 246.751975 
" clip-path="url(#pfbc973cb14)" style="fill: none; stroke: #1f77b4; stroke-opacity: 0.5; stroke-width: 0.2; stroke-linecap: square"/>
   <g id="patch_3">
    <path d="M 69.06392 22.318125 
L 69.06392 318.021875 
M 284.549772 22.318125 
L 284.549772 318.021875 
" clip-path="url(#pfbc973cb14)" style="fill: none; stroke: #ffffff; stroke-width: 3; stroke-linejoin: miter"/>
    <path d="M 69.06392 22.318125 
L 69.06392 318.021875 
M 284.549772 22.318125 
L 284.549772 318.021875 
" clip-path="url(#pfbc973cb14)" style="fill: none; stroke: #1f77b4; stroke-linejoin: miter"/>
    <g id="PolyCollection_1">
     <path d="M 284.549772 22.318125 
L 69.06392 22.318125 
L 69.06392 318.021875 
L 284.549772 318.021875 
L 284.549772 318.021875 
L 284.549772 22.318125 
z
" clip-path="url(#pfbc973cb14)" style="fill: #1f77b4; fill-opacity: 0.5"/>
    </g>
    <g id="patch_4">
     <path d="M 359.231478 22.318125 
L 359.231478 318.021875 
M 574.71733 22.318125 
L 574.71733 318.021875 
" clip-path="url(#pfbc973cb14)" style="fill: none; stroke: #ffffff; stroke-width: 3; stroke-linejoin: miter"/>
     <path d="M 359.231478 22.318125 
L 359.231478 318.021875 
M 574.71733 22.318125 
L 574.71733 318.021875 
" clip-path="url(#pfbc973cb14)" style="fill: none; stroke: #ff7f0e; stroke-linejoin: miter"/>
     <g id="PolyCollection_2">
      <path d="M 574.71733 22.318125 
L 359.231478 22.318125 
L 359.231478 318.021875 
L 574.71733 318.021875 
L 574.71733 318.021875 
L 574.71733 22.318125 
z
" clip-path="url(#pfbc973cb14)" style="fill: #ff7f0e; fill-opacity: 0.5"/>
     </g>
     <g id="matplotlib.axis_1">
      <g id="xtick_1">
       <g id="line2d_1"/>
       <g id="text_1">
        <!-- deme0 -->
        <g transform="translate(159.42794 329.120312) scale(0.1 -0.1)">
         <defs>
          <path id="DejaVuSans-64" d="M 2906 2969 
L 2906 4863 
L 3481 4863 
L 3481 0 
L 2906 0 
L 2906 525 
Q 2725 213 2448 61 
Q 2172 -91 1784 -91 
Q 1150 -91 751 415 
Q 353 922 353 1747 
Q 353 2572 751 3078 
Q 1150 3584 1784 3584 
Q 2172 3584 2448 3432 
Q 2725 3281 2906 2969 
z
M 947 1747 
Q 947 1113 1208 752 
Q 1469 391 1925 391 
Q 2381 391 2643 752 
Q 2906 1113 2906 1747 
Q 2906 2381 2643 2742 
Q 2381 3103 1925 3103 
Q 1469 3103 1208 2742 
Q 947 2381 947 1747 
z
" transform="scale(0.015625)"/>
          <path id="DejaVuSans-65" d="M 3597 1894 
L 3597 1613 
L 953 1613 
Q 991 1019 1311 708 
Q 1631 397 2203 397 
Q 2534 397 2845 478 
Q 3156 559 3463 722 
L 3463 178 
Q 3153 47 2828 -22 
Q 2503 -91 2169 -91 
Q 1331 -91 842 396 
Q 353 884 353 1716 
Q 353 2575 817 3079 
Q 1281 3584 2069 3584 
Q 2775 3584 3186 3129 
Q 3597 2675 3597 1894 
z
M 3022 2063 
Q 3016 2534 2758 2815 
Q 2500 3097 2075 3097 
Q 1594 3097 1305 2825 
Q 1016 2553 972 2059 
L 3022 2063 
z
" transform="scale(0.015625)"/>
          <path id="DejaVuSans-6d" d="M 3328 2828 
Q 3544 3216 3844 3400 
Q 4144 3584 4550 3584 
Q 5097 3584 5394 3201 
Q 5691 2819 5691 2113 
L 5691 0 
L 5113 0 
L 5113 2094 
Q 5113 2597 4934 2840 
Q 4756 3084 4391 3084 
Q 3944 3084 3684 2787 
Q 3425 2491 3425 1978 
L 3425 0 
L 2847 0 
L 2847 2094 
Q 2847 2600 2669 2842 
Q 2491 3084 2119 3084 
Q 1678 3084 1418 2786 
Q 1159 2488 1159 1978 
L 1159 0 
L 581 0 
L 581 3500 
L 1159 3500 
L 1159 2956 
Q 1356 3278 1631 3431 
Q 1906 3584 2284 3584 
Q 2666 3584 2933 3390 
Q 3200 3197 3328 2828 
z
" transform="scale(0.015625)"/>
          <path id="DejaVuSans-30" d="M 2034 4250 
Q 1547 4250 1301 3770 
Q 1056 3291 1056 2328 
Q 1056 1369 1301 889 
Q 1547 409 2034 409 
Q 2525 409 2770 889 
Q 3016 1369 3016 2328 
Q 3016 3291 2770 3770 
Q 2525 4250 2034 4250 
z
M 2034 4750 
Q 2819 4750 3233 4129 
Q 3647 3509 3647 2328 
Q 3647 1150 3233 529 
Q 2819 -91 2034 -91 
Q 1250 -91 836 529 
Q 422 1150 422 2328 
Q 422 3509 836 4129 
Q 1250 4750 2034 4750 
z
" transform="scale(0.015625)"/>
         </defs>
         <use xlink:href="#DejaVuSans-64"/>
         <use xlink:href="#DejaVuSans-65" x="63.476562"/>
         <use xlink:href="#DejaVuSans-6d" x="125"/>
         <use xlink:href="#DejaVuSans-65" x="222.412109"/>
         <use xlink:href="#DejaVuSans-30" x="283.935547"/>
        </g>
       </g>
      </g>
      <g id="xtick_2">
       <g id="line2d_2"/>
       <g id="text_2">
        <!-- deme1 -->
        <g transform="translate(449.595497 329.120312) scale(0.1 -0.1)">
         <defs>
          <path id="DejaVuSans-31" d="M 794 531 
L 1825 531 
L 1825 4091 
L 703 3866 
L 703 4441 
L 1819 4666 
L 2450 4666 
L 2450 531 
L 3481 531 
L 3481 0 
L 794 0 
L 794 531 
z
" transform="scale(0.015625)"/>
         </defs>
         <use xlink:href="#DejaVuSans-64"/>
         <use xlink:href="#DejaVuSans-65" x="63.476562"/>
         <use xlink:href="#DejaVuSans-6d" x="125"/>
         <use xlink:href="#DejaVuSans-65" x="222.412109"/>
         <use xlink:href="#DejaVuSans-31" x="283.935547"/>
        </g>
       </g>
      </g>
     </g>
     <g id="matplotlib.axis_2">
      <g id="ytick_1">
       <g id="line2d_3">
        <defs>
         <path id="ma6f6033b05" d="M 0 0 
L -3.5 0 
" style="stroke: #000000; stroke-width: 0.8"/>
        </defs>
        <g>
         <use xlink:href="#ma6f6033b05" x="43.78125" y="318.021875" style="stroke: #000000; stroke-width: 0.8"/>
        </g>
       </g>
       <g id="text_3">
        <!-- 0.0 -->
        <g transform="translate(20.878125 321.821094) scale(0.1 -0.1)">
         <defs>
          <path id="DejaVuSans-2e" d="M 684 794 
L 1344 794 
L 1344 0 
L 684 0 
L 684 794 
z
" transform="scale(0.015625)"/>
         </defs>
         <use xlink:href="#DejaVuSans-30"/>
         <use xlink:href="#DejaVuSans-2e" x="63.623047"/>
         <use xlink:href="#DejaVuSans-30" x="95.410156"/>
        </g>
       </g>
      </g>
      <g id="ytick_2">
       <g id="line2d_4">
        <g>
         <use xlink:href="#ma6f6033b05" x="43.78125" y="258.881125" style="stroke: #000000; stroke-width: 0.8"/>
        </g>
       </g>
       <g id="text_4">
        <!-- 0.5 -->
        <g transform="translate(20.878125 262.680344) scale(0.1 -0.1)">
         <defs>
          <path id="DejaVuSans-35" d="M 691 4666 
L 3169 4666 
L 3169 4134 
L 1269 4134 
L 1269 2991 
Q 1406 3038 1543 3061 
Q 1681 3084 1819 3084 
Q 2600 3084 3056 2656 
Q 3513 2228 3513 1497 
Q 3513 744 3044 326 
Q 2575 -91 1722 -91 
Q 1428 -91 1123 -41 
Q 819 9 494 109 
L 494 744 
Q 775 591 1075 516 
Q 1375 441 1709 441 
Q 2250 441 2565 725 
Q 2881 1009 2881 1497 
Q 2881 1984 2565 2268 
Q 2250 2553 1709 2553 
Q 1456 2553 1204 2497 
Q 953 2441 691 2322 
L 691 4666 
z
" transform="scale(0.015625)"/>
         </defs>
         <use xlink:href="#DejaVuSans-30"/>
         <use xlink:href="#DejaVuSans-2e" x="63.623047"/>
         <use xlink:href="#DejaVuSans-35" x="95.410156"/>
        </g>
       </g>
      </g>
      <g id="ytick_3">
       <g id="line2d_5">
        <g>
         <use xlink:href="#ma6f6033b05" x="43.78125" y="199.740375" style="stroke: #000000; stroke-width: 0.8"/>
        </g>
       </g>
       <g id="text_5">
        <!-- 1.0 -->
        <g transform="translate(20.878125 203.539594) scale(0.1 -0.1)">
         <use xlink:href="#DejaVuSans-31"/>
         <use xlink:href="#DejaVuSans-2e" x="63.623047"/>
         <use xlink:href="#DejaVuSans-30" x="95.410156"/>
        </g>
       </g>
      </g>
      <g id="ytick_4">
       <g id="line2d_6">
        <g>
         <use xlink:href="#ma6f6033b05" x="43.78125" y="140.599625" style="stroke: #000000; stroke-width: 0.8"/>
        </g>
       </g>
       <g id="text_6">
        <!-- 1.5 -->
        <g transform="translate(20.878125 144.398844) scale(0.1 -0.1)">
         <use xlink:href="#DejaVuSans-31"/>
         <use xlink:href="#DejaVuSans-2e" x="63.623047"/>
         <use xlink:href="#DejaVuSans-35" x="95.410156"/>
        </g>
       </g>
      </g>
      <g id="ytick_5">
       <g id="line2d_7">
        <g>
         <use xlink:href="#ma6f6033b05" x="43.78125" y="81.458875" style="stroke: #000000; stroke-width: 0.8"/>
        </g>
       </g>
       <g id="text_7">
        <!-- 2.0 -->
        <g transform="translate(20.878125 85.258094) scale(0.1 -0.1)">
         <defs>
          <path id="DejaVuSans-32" d="M 1228 531 
L 3431 531 
L 3431 0 
L 469 0 
L 469 531 
Q 828 903 1448 1529 
Q 2069 2156 2228 2338 
Q 2531 2678 2651 2914 
Q 2772 3150 2772 3378 
Q 2772 3750 2511 3984 
Q 2250 4219 1831 4219 
Q 1534 4219 1204 4116 
Q 875 4013 500 3803 
L 500 4441 
Q 881 4594 1212 4672 
Q 1544 4750 1819 4750 
Q 2544 4750 2975 4387 
Q 3406 4025 3406 3419 
Q 3406 3131 3298 2873 
Q 3191 2616 2906 2266 
Q 2828 2175 2409 1742 
Q 1991 1309 1228 531 
z
" transform="scale(0.015625)"/>
         </defs>
         <use xlink:href="#DejaVuSans-32"/>
         <use xlink:href="#DejaVuSans-2e" x="63.623047"/>
         <use xlink:href="#DejaVuSans-30" x="95.410156"/>
        </g>
       </g>
      </g>
      <g id="ytick_6">
       <g id="line2d_8">
        <g>
         <use xlink:href="#ma6f6033b05" x="43.78125" y="22.318125" style="stroke: #000000; stroke-width: 0.8"/>
        </g>
       </g>
       <g id="text_8">
        <!-- 2.5 -->
        <g transform="translate(20.878125 26.117344) scale(0.1 -0.1)">
         <use xlink:href="#DejaVuSans-32"/>
         <use xlink:href="#DejaVuSans-2e" x="63.623047"/>
         <use xlink:href="#DejaVuSans-35" x="95.410156"/>
        </g>
       </g>
      </g>
      <g id="text_9">
       <!-- time ago (generations) -->
       <g transform="translate(14.798438 227.641094) rotate(-90) scale(0.1 -0.1)">
        <defs>
         <path id="DejaVuSans-74" d="M 1172 4494 
L 1172 3500 
L 2356 3500 
L 2356 3053 
L 1172 3053 
L 1172 1153 
Q 1172 725 1289 603 
Q 1406 481 1766 481 
L 2356 481 
L 2356 0 
L 1766 0 
Q 1100 0 847 248 
Q 594 497 594 1153 
L 594 3053 
L 172 3053 
L 172 3500 
L 594 3500 
L 594 4494 
L 1172 4494 
z
" transform="scale(0.015625)"/>
         <path id="DejaVuSans-69" d="M 603 3500 
L 1178 3500 
L 1178 0 
L 603 0 
L 603 3500 
z
M 603 4863 
L 1178 4863 
L 1178 4134 
L 603 4134 
L 603 4863 
z
" transform="scale(0.015625)"/>
         <path id="DejaVuSans-20" transform="scale(0.015625)"/>
         <path id="DejaVuSans-61" d="M 2194 1759 
Q 1497 1759 1228 1600 
Q 959 1441 959 1056 
Q 959 750 1161 570 
Q 1363 391 1709 391 
Q 2188 391 2477 730 
Q 2766 1069 2766 1631 
L 2766 1759 
L 2194 1759 
z
M 3341 1997 
L 3341 0 
L 2766 0 
L 2766 531 
Q 2569 213 2275 61 
Q 1981 -91 1556 -91 
Q 1019 -91 701 211 
Q 384 513 384 1019 
Q 384 1609 779 1909 
Q 1175 2209 1959 2209 
L 2766 2209 
L 2766 2266 
Q 2766 2663 2505 2880 
Q 2244 3097 1772 3097 
Q 1472 3097 1187 3025 
Q 903 2953 641 2809 
L 641 3341 
Q 956 3463 1253 3523 
Q 1550 3584 1831 3584 
Q 2591 3584 2966 3190 
Q 3341 2797 3341 1997 
z
" transform="scale(0.015625)"/>
         <path id="DejaVuSans-67" d="M 2906 1791 
Q 2906 2416 2648 2759 
Q 2391 3103 1925 3103 
Q 1463 3103 1205 2759 
Q 947 2416 947 1791 
Q 947 1169 1205 825 
Q 1463 481 1925 481 
Q 2391 481 2648 825 
Q 2906 1169 2906 1791 
z
M 3481 434 
Q 3481 -459 3084 -895 
Q 2688 -1331 1869 -1331 
Q 1566 -1331 1297 -1286 
Q 1028 -1241 775 -1147 
L 775 -588 
Q 1028 -725 1275 -790 
Q 1522 -856 1778 -856 
Q 2344 -856 2625 -561 
Q 2906 -266 2906 331 
L 2906 616 
Q 2728 306 2450 153 
Q 2172 0 1784 0 
Q 1141 0 747 490 
Q 353 981 353 1791 
Q 353 2603 747 3093 
Q 1141 3584 1784 3584 
Q 2172 3584 2450 3431 
Q 2728 3278 2906 2969 
L 2906 3500 
L 3481 3500 
L 3481 434 
z
" transform="scale(0.015625)"/>
         <path id="DejaVuSans-6f" d="M 1959 3097 
Q 1497 3097 1228 2736 
Q 959 2375 959 1747 
Q 959 1119 1226 758 
Q 1494 397 1959 397 
Q 2419 397 2687 759 
Q 2956 1122 2956 1747 
Q 2956 2369 2687 2733 
Q 2419 3097 1959 3097 
z
M 1959 3584 
Q 2709 3584 3137 3096 
Q 3566 2609 3566 1747 
Q 3566 888 3137 398 
Q 2709 -91 1959 -91 
Q 1206 -91 779 398 
Q 353 888 353 1747 
Q 353 2609 779 3096 
Q 1206 3584 1959 3584 
z
" transform="scale(0.015625)"/>
         <path id="DejaVuSans-28" d="M 1984 4856 
Q 1566 4138 1362 3434 
Q 1159 2731 1159 2009 
Q 1159 1288 1364 580 
Q 1569 -128 1984 -844 
L 1484 -844 
Q 1016 -109 783 600 
Q 550 1309 550 2009 
Q 550 2706 781 3412 
Q 1013 4119 1484 4856 
L 1984 4856 
z
" transform="scale(0.015625)"/>
         <path id="DejaVuSans-6e" d="M 3513 2113 
L 3513 0 
L 2938 0 
L 2938 2094 
Q 2938 2591 2744 2837 
Q 2550 3084 2163 3084 
Q 1697 3084 1428 2787 
Q 1159 2491 1159 1978 
L 1159 0 
L 581 0 
L 581 3500 
L 1159 3500 
L 1159 2956 
Q 1366 3272 1645 3428 
Q 1925 3584 2291 3584 
Q 2894 3584 3203 3211 
Q 3513 2838 3513 2113 
z
" transform="scale(0.015625)"/>
         <path id="DejaVuSans-72" d="M 2631 2963 
Q 2534 3019 2420 3045 
Q 2306 3072 2169 3072 
Q 1681 3072 1420 2755 
Q 1159 2438 1159 1844 
L 1159 0 
L 581 0 
L 581 3500 
L 1159 3500 
L 1159 2956 
Q 1341 3275 1631 3429 
Q 1922 3584 2338 3584 
Q 2397 3584 2469 3576 
Q 2541 3569 2628 3553 
L 2631 2963 
z
" transform="scale(0.015625)"/>
         <path id="DejaVuSans-73" d="M 2834 3397 
L 2834 2853 
Q 2591 2978 2328 3040 
Q 2066 3103 1784 3103 
Q 1356 3103 1142 2972 
Q 928 2841 928 2578 
Q 928 2378 1081 2264 
Q 1234 2150 1697 2047 
L 1894 2003 
Q 2506 1872 2764 1633 
Q 3022 1394 3022 966 
Q 3022 478 2636 193 
Q 2250 -91 1575 -91 
Q 1294 -91 989 -36 
Q 684 19 347 128 
L 347 722 
Q 666 556 975 473 
Q 1284 391 1588 391 
Q 1994 391 2212 530 
Q 2431 669 2431 922 
Q 2431 1156 2273 1281 
Q 2116 1406 1581 1522 
L 1381 1569 
Q 847 1681 609 1914 
Q 372 2147 372 2553 
Q 372 3047 722 3315 
Q 1072 3584 1716 3584 
Q 2034 3584 2315 3537 
Q 2597 3491 2834 3397 
z
" transform="scale(0.015625)"/>
         <path id="DejaVuSans-29" d="M 513 4856 
L 1013 4856 
Q 1481 4119 1714 3412 
Q 1947 2706 1947 2009 
Q 1947 1309 1714 600 
Q 1481 -109 1013 -844 
L 513 -844 
Q 928 -128 1133 580 
Q 1338 1288 1338 2009 
Q 1338 2731 1133 3434 
Q 928 4138 513 4856 
z
" transform="scale(0.015625)"/>
        </defs>
        <use xlink:href="#DejaVuSans-74"/>
        <use xlink:href="#DejaVuSans-69" x="39.208984"/>
        <use xlink:href="#DejaVuSans-6d" x="66.992188"/>
        <use xlink:href="#DejaVuSans-65" x="164.404297"/>
        <use xlink:href="#DejaVuSans-20" x="225.927734"/>
        <use xlink:href="#DejaVuSans-61" x="257.714844"/>
        <use xlink:href="#DejaVuSans-67" x="318.994141"/>
        <use xlink:href="#DejaVuSans-6f" x="382.470703"/>
        <use xlink:href="#DejaVuSans-20" x="443.652344"/>
        <use xlink:href="#DejaVuSans-28" x="475.439453"/>
        <use xlink:href="#DejaVuSans-67" x="514.453125"/>
        <use xlink:href="#DejaVuSans-65" x="577.929688"/>
        <use xlink:href="#DejaVuSans-6e" x="639.453125"/>
        <use xlink:href="#DejaVuSans-65" x="702.832031"/>
        <use xlink:href="#DejaVuSans-72" x="764.355469"/>
        <use xlink:href="#DejaVuSans-61" x="805.46875"/>
        <use xlink:href="#DejaVuSans-74" x="866.748047"/>
        <use xlink:href="#DejaVuSans-69" x="905.957031"/>
        <use xlink:href="#DejaVuSans-6f" x="933.740234"/>
        <use xlink:href="#DejaVuSans-6e" x="994.921875"/>
        <use xlink:href="#DejaVuSans-73" x="1058.300781"/>
        <use xlink:href="#DejaVuSans-29" x="1110.400391"/>
       </g>
      </g>
     </g>
     <path d="M 354.66929 83.7646 
L 352.66929 82.7646 
L 352.66929 84.7646 
z
" clip-path="url(#pfbc973cb14)" style="fill: #1f77b4; fill-opacity: 0.5; stroke: #1f77b4; stroke-opacity: 0.5; stroke-linejoin: miter"/>
     <path d="M 354.66929 84.400127 
L 352.66929 83.400127 
L 352.66929 85.400127 
z
" clip-path="url(#pfbc973cb14)" style="fill: #1f77b4; fill-opacity: 0.5; stroke: #1f77b4; stroke-opacity: 0.5; stroke-linejoin: miter"/>
     <path d="M 354.66929 112.220548 
L 352.66929 111.220548 
L 352.66929 113.220548 
z
" clip-path="url(#pfbc973cb14)" style="fill: #1f77b4; fill-opacity: 0.5; stroke: #1f77b4; stroke-opacity: 0.5; stroke-linejoin: miter"/>
     <path d="M 354.66929 184.67702 
L 352.66929 183.67702 
L 352.66929 185.67702 
z
" clip-path="url(#pfbc973cb14)" style="fill: #1f77b4; fill-opacity: 0.5; stroke: #1f77b4; stroke-opacity: 0.5; stroke-linejoin: miter"/>
     <path d="M 354.66929 185.440691 
L 352.66929 184.440691 
L 352.66929 186.440691 
z
" clip-path="url(#pfbc973cb14)" style="fill: #1f77b4; fill-opacity: 0.5; stroke: #1f77b4; stroke-opacity: 0.5; stroke-linejoin: miter"/>
     <path d="M 354.66929 179.058418 
L 352.66929 178.058418 
L 352.66929 180.058418 
z
" clip-path="url(#pfbc973cb14)" style="fill: #1f77b4; fill-opacity: 0.5; stroke: #1f77b4; stroke-opacity: 0.5; stroke-linejoin: miter"/>
     <path d="M 354.66929 181.152849 
L 352.66929 180.152849 
L 352.66929 182.152849 
z
" clip-path="url(#pfbc973cb14)" style="fill: #1f77b4; fill-opacity: 0.5; stroke: #1f77b4; stroke-opacity: 0.5; stroke-linejoin: miter"/>
     <path d="M 354.66929 148.737282 
L 352.66929 147.737282 
L 352.66929 149.737282 
z
" clip-path="url(#pfbc973cb14)" style="fill: #1f77b4; fill-opacity: 0.5; stroke: #1f77b4; stroke-opacity: 0.5; stroke-linejoin: miter"/>
     <path d="M 354.66929 96.538694 
L 352.66929 95.538694 
L 352.66929 97.538694 
z
" clip-path="url(#pfbc973cb14)" style="fill: #1f77b4; fill-opacity: 0.5; stroke: #1f77b4; stroke-opacity: 0.5; stroke-linejoin: miter"/>
     <path d="M 354.66929 195.095747 
L 352.66929 194.095747 
L 352.66929 196.095747 
z
" clip-path="url(#pfbc973cb14)" style="fill: #1f77b4; fill-opacity: 0.5; stroke: #1f77b4; stroke-opacity: 0.5; stroke-linejoin: miter"/>
     <path d="M 354.66929 217.200288 
L 352.66929 216.200288 
L 352.66929 218.200288 
z
" clip-path="url(#pfbc973cb14)" style="fill: #1f77b4; fill-opacity: 0.5; stroke: #1f77b4; stroke-opacity: 0.5; stroke-linejoin: miter"/>
     <path d="M 354.66929 222.056959 
L 352.66929 221.056959 
L 352.66929 223.056959 
z
" clip-path="url(#pfbc973cb14)" style="fill: #1f77b4; fill-opacity: 0.5; stroke: #1f77b4; stroke-opacity: 0.5; stroke-linejoin: miter"/>
     <path d="M 354.66929 214.934656 
L 352.66929 213.934656 
L 352.66929 215.934656 
z
" clip-path="url(#pfbc973cb14)" style="fill: #1f77b4; fill-opacity: 0.5; stroke: #1f77b4; stroke-opacity: 0.5; stroke-linejoin: miter"/>
     <path d="M 354.66929 274.660051 
L 352.66929 273.660051 
L 352.66929 275.660051 
z
" clip-path="url(#pfbc973cb14)" style="fill: #1f77b4; fill-opacity: 0.5; stroke: #1f77b4; stroke-opacity: 0.5; stroke-linejoin: miter"/>
     <path d="M 354.66929 216.26645 
L 352.66929 215.26645 
L 352.66929 217.26645 
z
" clip-path="url(#pfbc973cb14)" style="fill: #1f77b4; fill-opacity: 0.5; stroke: #1f77b4; stroke-opacity: 0.5; stroke-linejoin: miter"/>
     <path d="M 354.66929 298.018231 
L 352.66929 297.018231 
L 352.66929 299.018231 
z
" clip-path="url(#pfbc973cb14)" style="fill: #1f77b4; fill-opacity: 0.5; stroke: #1f77b4; stroke-opacity: 0.5; stroke-linejoin: miter"/>
     <path d="M 354.66929 261.008383 
L 352.66929 260.008383 
L 352.66929 262.008383 
z
" clip-path="url(#pfbc973cb14)" style="fill: #1f77b4; fill-opacity: 0.5; stroke: #1f77b4; stroke-opacity: 0.5; stroke-linejoin: miter"/>
     <path d="M 354.66929 285.5234 
L 352.66929 284.5234 
L 352.66929 286.5234 
z
" clip-path="url(#pfbc973cb14)" style="fill: #1f77b4; fill-opacity: 0.5; stroke: #1f77b4; stroke-opacity: 0.5; stroke-linejoin: miter"/>
     <path d="M 354.66929 244.934159 
L 352.66929 243.934159 
L 352.66929 245.934159 
z
" clip-path="url(#pfbc973cb14)" style="fill: #1f77b4; fill-opacity: 0.5; stroke: #1f77b4; stroke-opacity: 0.5; stroke-linejoin: miter"/>
     <path d="M 354.66929 247.714814 
L 352.66929 246.714814 
L 352.66929 248.714814 
z
" clip-path="url(#pfbc973cb14)" style="fill: #1f77b4; fill-opacity: 0.5; stroke: #1f77b4; stroke-opacity: 0.5; stroke-linejoin: miter"/>
     <g id="patch_5">
      <path d="M 43.78125 318.021875 
L 43.78125 22.318125 
" style="fill: none; stroke: #000000; stroke-width: 0.8; stroke-linejoin: miter; stroke-linecap: square"/>
     </g>
     <g id="text_10">
      <!-- defaults_asymmetric_migration_changing_rate.yaml -->
      <g transform="translate(164.675625 16.318125) scale(0.12 -0.12)">
       <defs>
        <path id="DejaVuSans-66" d="M 2375 4863 
L 2375 4384 
L 1825 4384 
Q 1516 4384 1395 4259 
Q 1275 4134 1275 3809 
L 1275 3500 
L 2222 3500 
L 2222 3053 
L 1275 3053 
L 1275 0 
L 697 0 
L 697 3053 
L 147 3053 
L 147 3500 
L 697 3500 
L 697 3744 
Q 697 4328 969 4595 
Q 1241 4863 1831 4863 
L 2375 4863 
z
" transform="scale(0.015625)"/>
        <path id="DejaVuSans-75" d="M 544 1381 
L 544 3500 
L 1119 3500 
L 1119 1403 
Q 1119 906 1312 657 
Q 1506 409 1894 409 
Q 2359 409 2629 706 
Q 2900 1003 2900 1516 
L 2900 3500 
L 3475 3500 
L 3475 0 
L 2900 0 
L 2900 538 
Q 2691 219 2414 64 
Q 2138 -91 1772 -91 
Q 1169 -91 856 284 
Q 544 659 544 1381 
z
M 1991 3584 
L 1991 3584 
z
" transform="scale(0.015625)"/>
        <path id="DejaVuSans-6c" d="M 603 4863 
L 1178 4863 
L 1178 0 
L 603 0 
L 603 4863 
z
" transform="scale(0.015625)"/>
        <path id="DejaVuSans-5f" d="M 3263 -1063 
L 3263 -1509 
L -63 -1509 
L -63 -1063 
L 3263 -1063 
z
" transform="scale(0.015625)"/>
        <path id="DejaVuSans-79" d="M 2059 -325 
Q 1816 -950 1584 -1140 
Q 1353 -1331 966 -1331 
L 506 -1331 
L 506 -850 
L 844 -850 
Q 1081 -850 1212 -737 
Q 1344 -625 1503 -206 
L 1606 56 
L 191 3500 
L 800 3500 
L 1894 763 
L 2988 3500 
L 3597 3500 
L 2059 -325 
z
" transform="scale(0.015625)"/>
        <path id="DejaVuSans-63" d="M 3122 3366 
L 3122 2828 
Q 2878 2963 2633 3030 
Q 2388 3097 2138 3097 
Q 1578 3097 1268 2742 
Q 959 2388 959 1747 
Q 959 1106 1268 751 
Q 1578 397 2138 397 
Q 2388 397 2633 464 
Q 2878 531 3122 666 
L 3122 134 
Q 2881 22 2623 -34 
Q 2366 -91 2075 -91 
Q 1284 -91 818 406 
Q 353 903 353 1747 
Q 353 2603 823 3093 
Q 1294 3584 2113 3584 
Q 2378 3584 2631 3529 
Q 2884 3475 3122 3366 
z
" transform="scale(0.015625)"/>
        <path id="DejaVuSans-68" d="M 3513 2113 
L 3513 0 
L 2938 0 
L 2938 2094 
Q 2938 2591 2744 2837 
Q 2550 3084 2163 3084 
Q 1697 3084 1428 2787 
Q 1159 2491 1159 1978 
L 1159 0 
L 581 0 
L 581 4863 
L 1159 4863 
L 1159 2956 
Q 1366 3272 1645 3428 
Q 1925 3584 2291 3584 
Q 2894 3584 3203 3211 
Q 3513 2838 3513 2113 
z
" transform="scale(0.015625)"/>
       </defs>
       <use xlink:href="#DejaVuSans-64"/>
       <use xlink:href="#DejaVuSans-65" x="63.476562"/>
       <use xlink:href="#DejaVuSans-66" x="125"/>
       <use xlink:href="#DejaVuSans-61" x="160.205078"/>
       <use xlink:href="#DejaVuSans-75" x="221.484375"/>
       <use xlink:href="#DejaVuSans-6c" x="284.863281"/>
       <use xlink:href="#DejaVuSans-74" x="312.646484"/>
       <use xlink:href="#DejaVuSans-73" x="351.855469"/>
       <use xlink:href="#DejaVuSans-5f" x="403.955078"/>
       <use xlink:href="#DejaVuSans-61" x="453.955078"/>
       <use xlink:href="#DejaVuSans-73" x="515.234375"/>
       <use xlink:href="#DejaVuSans-79" x="567.333984"/>
       <use xlink:href="#DejaVuSans-6d" x="626.513672"/>
       <use xlink:href="#DejaVuSans-6d" x="723.925781"/>
       <use xlink:href="#DejaVuSans-65" x="821.337891"/>
       <use xlink:href="#DejaVuSans-74" x="882.861328"/>
       <use xlink:href="#DejaVuSans-72" x="922.070312"/>
       <use xlink:href="#DejaVuSans-69" x="963.183594"/>
       <use xlink:href="#DejaVuSans-63" x="990.966797"/>
       <use xlink:href="#DejaVuSans-5f" x="1045.947266"/>
       <use xlink:href="#DejaVuSans-6d" x="1095.947266"/>
       <use xlink:href="#DejaVuSans-69" x="1193.359375"/>
       <use xlink:href="#DejaVuSans-67" x="1221.142578"/>
       <use xlink:href="#DejaVuSans-72" x="1284.619141"/>
       <use xlink:href="#DejaVuSans-61" x="1325.732422"/>
       <use xlink:href="#DejaVuSans-74" x="1387.011719"/>
       <use xlink:href="#DejaVuSans-69" x="1426.220703"/>
       <use xlink:href="#DejaVuSans-6f" x="1454.003906"/>
       <use xlink:href="#DejaVuSans-6e" x="1515.185547"/>
       <use xlink:href="#DejaVuSans-5f" x="1578.564453"/>
       <use xlink:href="#DejaVuSans-63" x="1628.564453"/>
       <use xlink:href="#DejaVuSans-68" x="1683.544922"/>
       <use xlink:href="#DejaVuSans-61" x="1746.923828"/>
       <use xlink:href="#DejaVuSans-6e" x="1808.203125"/>
       <use xlink:href="#DejaVuSans-67" x="1871.582031"/>
       <use xlink:href="#DejaVuSans-69" x="1935.058594"/>
       <use xlink:href="#DejaVuSans-6e" x="1962.841797"/>
       <use xlink:href="#DejaVuSans-67" x="2026.220703"/>
       <use xlink:href="#DejaVuSans-5f" x="2089.697266"/>
       <use xlink:href="#DejaVuSans-72" x="2139.697266"/>
       <use xlink:href="#DejaVuSans-61" x="2180.810547"/>
       <use xlink:href="#DejaVuSans-74" x="2242.089844"/>
       <use xlink:href="#DejaVuSans-65" x="2281.298828"/>
       <use xlink:href="#DejaVuSans-2e" x="2342.822266"/>
       <use xlink:href="#DejaVuSans-79" x="2374.609375"/>
       <use xlink:href="#DejaVuSans-61" x="2433.789062"/>
       <use xlink:href="#DejaVuSans-6d" x="2495.068359"/>
       <use xlink:href="#DejaVuSans-6c" x="2592.480469"/>
      </g>
     </g>
    </g>
   </g>
   <defs>
    <clipPath id="pfbc973cb14">
     <rect x="43.78125" y="22.318125" width="556.21875" height="295.70375"/>
    </clipPath>
   </defs>
  </g>
 </g>
</svg>
