<?xml version="1.0" encoding="utf-8" standalone="no"?>
<!DOCTYPE svg PUBLIC "-//W3C//DTD SVG 1.1//EN"
  "http://www.w3.org/Graphics/SVG/1.1/DTD/svg11.dtd">
<svg xmlns:xlink="http://www.w3.org/1999/xlink" width="607.2pt" height="338.4pt" viewBox="0 0 607.2 338.4" xmlns="http://www.w3.org/2000/svg" version="1.1">
 <metadata>
  <rdf:RDF xmlns:dc="http://purl.org/dc/elements/1.1/" xmlns:cc="http://creativecommons.org/ns#" xmlns:rdf="http://www.w3.org/1999/02/22-rdf-syntax-ns#">
   <cc:Work>
    <dc:type rdf:resource="http://purl.org/dc/dcmitype/StillImage"/>
    <dc:date>2022-09-12T08:37:02.419354</dc:date>
    <dc:format>image/svg+xml</dc:format>
    <dc:creator>
     <cc:Agent>
      <dc:title>Matplotlib v3.5.3, https://matplotlib.org/</dc:title>
     </cc:Agent>
    </dc:creator>
   </cc:Work>
  </rdf:RDF>
 </metadata>
 <defs>
  <style type="text/css">*{stroke-linejoin: round; stroke-linecap: butt}</style>
 </defs>
 <g id="figure_1">
  <g id="patch_1">
   <path d="M 0 338.4 
L 607.2 338.4 
L 607.2 0 
L 0 0 
z
" style="fill: #ffffff"/>
  </g>
  <g id="axes_1">
   <g id="patch_2">
    <path d="M 43.78125 318.021875 
L 600 318.021875 
L 600 22.318125 
L 43.78125 22.318125 
z
" style="fill: #ffffff"/>
   </g>
   <path d="M 290.11196 177.53096 
L 291.11196 177.562397 
L 292.11196 177.599337 
L 293.11196 177.697084 
L 294.11196 177.729605 
L 295.11196 177.80323 
L 296.11196 177.841796 
L 297.11196 177.877209 
L 298.11196 177.934849 
L 299.11196 178.005235 
L 300.11196 178.057199 
L 301.11196 178.116289 
L 302.11196 178.20461 
L 303.11196 178.250754 
L 304.11196 178.293165 
L 305.11196 178.323658 
L 306.11196 178.349703 
L 307.11196 178.370903 
L 308.11196 178.425204 
L 309.11196 178.453141 
L 310.11196 178.482865 
L 311.11196 178.50826 
L 312.11196 178.519461 
L 313.11196 178.529585 
L 314.11196 178.52938 
L 315.11196 178.51987 
L 316.11196 178.508217 
L 317.11196 178.477188 
L 318.11196 178.46602 
L 319.11196 178.435902 
L 320.11196 178.376125 
L 321.11196 178.338934 
L 322.11196 178.299838 
L 323.11196 178.257398 
L 324.11196 178.224633 
L 325.11196 178.157206 
L 326.11196 178.11808 
L 327.11196 178.075406 
L 328.11196 178.004825 
L 329.11196 177.968434 
L 330.11196 177.910031 
L 331.11196 177.799079 
L 332.11196 177.72842 
L 333.11196 177.615481 
L 334.11196 177.569708 
L 335.11196 177.508424 
L 336.11196 177.459925 
L 337.11196 177.379102 
L 338.11196 177.260583 
L 339.11196 177.190373 
L 340.11196 177.10711 
L 341.11196 177.073969 
L 342.11196 177.022731 
L 343.11196 176.954333 
L 344.11196 176.888117 
L 345.11196 176.8112 
L 346.11196 176.783885 
L 347.11196 176.757407 
L 348.11196 176.734757 
L 349.11196 176.715226 
L 350.11196 176.688832 
L 351.11196 176.639061 
L 352.11196 176.603988 
L 353.66929 176.568122 
" clip-path="url(#p010ae23c28)" style="fill: none; stroke: #1f77b4; stroke-opacity: 0.5; stroke-width: 0.2; stroke-linecap: square"/>
   <path d="M 290.11196 100.161625 
L 291.11196 100.193062 
L 292.11196 100.230002 
L 293.11196 100.327749 
L 294.11196 100.36027 
L 295.11196 100.433895 
L 296.11196 100.472461 
L 297.11196 100.507874 
L 298.11196 100.565514 
L 299.11196 100.6359 
L 300.11196 100.687864 
L 301.11196 100.746954 
L 302.11196 100.835275 
L 303.11196 100.881419 
L 304.11196 100.92383 
L 305.11196 100.954323 
L 306.11196 100.980368 
L 307.11196 101.001568 
L 308.11196 101.055869 
L 309.11196 101.083807 
L 310.11196 101.11353 
L 311.11196 101.138925 
L 312.11196 101.150126 
L 313.11196 101.16025 
L 314.11196 101.160045 
L 315.11196 101.150535 
L 316.11196 101.138882 
L 317.11196 101.107853 
L 318.11196 101.096685 
L 319.11196 101.066567 
L 320.11196 101.00679 
L 321.11196 100.969599 
L 322.11196 100.930503 
L 323.11196 100.888063 
L 324.11196 100.855298 
L 325.11196 100.787871 
L 326.11196 100.748745 
L 327.11196 100.706071 
L 328.11196 100.63549 
L 329.11196 100.599099 
L 330.11196 100.540696 
L 331.11196 100.429744 
L 332.11196 100.359085 
L 333.11196 100.246146 
L 334.11196 100.200373 
L 335.11196 100.139089 
L 336.11196 100.09059 
L 337.11196 100.009767 
L 338.11196 99.891248 
L 339.11196 99.821038 
L 340.11196 99.737775 
L 341.11196 99.704634 
L 342.11196 99.653396 
L 343.11196 99.584998 
L 344.11196 99.518783 
L 345.11196 99.441865 
L 346.11196 99.41455 
L 347.11196 99.388072 
L 348.11196 99.365422 
L 349.11196 99.345891 
L 350.11196 99.319497 
L 351.11196 99.269726 
L 352.11196 99.234653 
L 353.66929 99.198787 
" clip-path="url(#p010ae23c28)" style="fill: none; stroke: #1f77b4; stroke-opacity: 0.5; stroke-width: 0.2; stroke-linecap: square"/>
   <path d="M 290.11196 155.939208 
L 291.11196 155.970644 
L 292.11196 156.007584 
L 293.11196 156.105331 
L 294.11196 156.137853 
L 295.11196 156.211477 
L 296.11196 156.250043 
L 297.11196 156.285456 
L 298.11196 156.343096 
L 299.11196 156.413482 
L 300.11196 156.465446 
L 301.11196 156.524536 
L 302.11196 156.612857 
L 303.11196 156.659001 
L 304.11196 156.701412 
L 305.11196 156.731905 
L 306.11196 156.75795 
L 307.11196 156.77915 
L 308.11196 156.833451 
L 309.11196 156.861389 
L 310.11196 156.891113 
L 311.11196 156.916507 
L 312.11196 156.927708 
L 313.11196 156.937832 
L 314.11196 156.937627 
L 315.11196 156.928118 
L 316.11196 156.916464 
L 317.11196 156.885435 
L 318.11196 156.874267 
L 319.11196 156.844149 
L 320.11196 156.784372 
L 321.11196 156.747181 
L 322.11196 156.708085 
L 323.11196 156.665645 
L 324.11196 156.63288 
L 325.11196 156.565454 
L 326.11196 156.526328 
L 327.11196 156.483653 
L 328.11196 156.413073 
L 329.11196 156.376682 
L 330.11196 156.318278 
L 331.11196 156.207326 
L 332.11196 156.136668 
L 333.11196 156.023728 
L 334.11196 155.977955 
L 335.11196 155.916672 
L 336.11196 155.868172 
L 337.11196 155.78735 
L 338.11196 155.668831 
L 339.11196 155.59862 
L 340.11196 155.515358 
L 341.11196 155.482216 
L 342.11196 155.430979 
L 343.11196 155.36258 
L 344.11196 155.296365 
L 345.11196 155.219448 
L 346.11196 155.192132 
L 347.11196 155.165655 
L 348.11196 155.143004 
L 349.11196 155.123473 
L 350.11196 155.097079 
L 351.11196 155.047308 
L 352.11196 155.012235 
L 353.66929 154.976369 
" clip-path="url(#p010ae23c28)" style="fill: none; stroke: #1f77b4; stroke-opacity: 0.5; stroke-width: 0.2; stroke-linecap: square"/>
   <path d="M 290.11196 176.455153 
L 291.11196 176.486589 
L 292.11196 176.52353 
L 293.11196 176.621276 
L 294.11196 176.653798 
L 295.11196 176.727423 
L 296.11196 176.765988 
L 297.11196 176.801401 
L 298.11196 176.859041 
L 299.11196 176.929427 
L 300.11196 176.981392 
L 301.11196 177.040481 
L 302.11196 177.128802 
L 303.11196 177.174947 
L 304.11196 177.217358 
L 305.11196 177.24785 
L 306.11196 177.273895 
L 307.11196 177.295095 
L 308.11196 177.349396 
L 309.11196 177.377334 
L 310.11196 177.407058 
L 311.11196 177.432453 
L 312.11196 177.443653 
L 313.11196 177.453777 
L 314.11196 177.453573 
L 315.11196 177.444063 
L 316.11196 177.432409 
L 317.11196 177.40138 
L 318.11196 177.390212 
L 319.11196 177.360095 
L 320.11196 177.300318 
L 321.11196 177.263126 
L 322.11196 177.22403 
L 323.11196 177.18159 
L 324.11196 177.148825 
L 325.11196 177.081399 
L 326.11196 177.042273 
L 327.11196 176.999598 
L 328.11196 176.929018 
L 329.11196 176.892627 
L 330.11196 176.834224 
L 331.11196 176.723271 
L 332.11196 176.652613 
L 333.11196 176.539673 
L 334.11196 176.4939 
L 335.11196 176.432617 
L 336.11196 176.384118 
L 337.11196 176.303295 
L 338.11196 176.184776 
L 339.11196 176.114565 
L 340.11196 176.031303 
L 341.11196 175.998161 
L 342.11196 175.946924 
L 343.11196 175.878525 
L 344.11196 175.81231 
L 345.11196 175.735393 
L 346.11196 175.708077 
L 347.11196 175.6816 
L 348.11196 175.658949 
L 349.11196 175.639418 
L 350.11196 175.613024 
L 351.11196 175.563253 
L 352.11196 175.52818 
L 353.66929 175.492314 
" clip-path="url(#p010ae23c28)" style="fill: none; stroke: #1f77b4; stroke-opacity: 0.5; stroke-width: 0.2; stroke-linecap: square"/>
   <path d="M 290.11196 176.230602 
L 291.11196 176.262038 
L 292.11196 176.298979 
L 293.11196 176.396725 
L 294.11196 176.429247 
L 295.11196 176.502872 
L 296.11196 176.541437 
L 297.11196 176.57685 
L 298.11196 176.63449 
L 299.11196 176.704877 
L 300.11196 176.756841 
L 301.11196 176.815931 
L 302.11196 176.904251 
L 303.11196 176.950396 
L 304.11196 176.992807 
L 305.11196 177.023299 
L 306.11196 177.049344 
L 307.11196 177.070544 
L 308.11196 177.124846 
L 309.11196 177.152783 
L 310.11196 177.182507 
L 311.11196 177.207902 
L 312.11196 177.219102 
L 313.11196 177.229226 
L 314.11196 177.229022 
L 315.11196 177.219512 
L 316.11196 177.207858 
L 317.11196 177.176829 
L 318.11196 177.165661 
L 319.11196 177.135544 
L 320.11196 177.075767 
L 321.11196 177.038575 
L 322.11196 176.999479 
L 323.11196 176.957039 
L 324.11196 176.924274 
L 325.11196 176.856848 
L 326.11196 176.817722 
L 327.11196 176.775048 
L 328.11196 176.704467 
L 329.11196 176.668076 
L 330.11196 176.609673 
L 331.11196 176.49872 
L 332.11196 176.428062 
L 333.11196 176.315122 
L 334.11196 176.269349 
L 335.11196 176.208066 
L 336.11196 176.159567 
L 337.11196 176.078744 
L 338.11196 175.960225 
L 339.11196 175.890014 
L 340.11196 175.806752 
L 341.11196 175.77361 
L 342.11196 175.722373 
L 343.11196 175.653975 
L 344.11196 175.587759 
L 345.11196 175.510842 
L 346.11196 175.483527 
L 347.11196 175.457049 
L 348.11196 175.434398 
L 349.11196 175.414867 
L 350.11196 175.388473 
L 351.11196 175.338702 
L 352.11196 175.303629 
L 353.66929 175.267763 
" clip-path="url(#p010ae23c28)" style="fill: none; stroke: #1f77b4; stroke-opacity: 0.5; stroke-width: 0.2; stroke-linecap: square"/>
   <path d="M 290.11196 176.285631 
L 291.11196 176.317068 
L 292.11196 176.354008 
L 293.11196 176.451755 
L 294.11196 176.484276 
L 295.11196 176.557901 
L 296.11196 176.596467 
L 297.11196 176.63188 
L 298.11196 176.68952 
L 299.11196 176.759906 
L 300.11196 176.81187 
L 301.11196 176.87096 
L 302.11196 176.959281 
L 303.11196 177.005425 
L 304.11196 177.047836 
L 305.11196 177.078329 
L 306.11196 177.104374 
L 307.11196 177.125574 
L 308.11196 177.179875 
L 309.11196 177.207812 
L 310.11196 177.237536 
L 311.11196 177.262931 
L 312.11196 177.274132 
L 313.11196 177.284256 
L 314.11196 177.284051 
L 315.11196 177.274541 
L 316.11196 177.262888 
L 317.11196 177.231858 
L 318.11196 177.220691 
L 319.11196 177.190573 
L 320.11196 177.130796 
L 321.11196 177.093605 
L 322.11196 177.054508 
L 323.11196 177.012069 
L 324.11196 176.979304 
L 325.11196 176.911877 
L 326.11196 176.872751 
L 327.11196 176.830077 
L 328.11196 176.759496 
L 329.11196 176.723105 
L 330.11196 176.664702 
L 331.11196 176.55375 
L 332.11196 176.483091 
L 333.11196 176.370151 
L 334.11196 176.324379 
L 335.11196 176.263095 
L 336.11196 176.214596 
L 337.11196 176.133773 
L 338.11196 176.015254 
L 339.11196 175.945044 
L 340.11196 175.861781 
L 341.11196 175.82864 
L 342.11196 175.777402 
L 343.11196 175.709004 
L 344.11196 175.642788 
L 345.11196 175.565871 
L 346.11196 175.538556 
L 347.11196 175.512078 
L 348.11196 175.489428 
L 349.11196 175.469896 
L 350.11196 175.443502 
L 351.11196 175.393732 
L 352.11196 175.358658 
L 353.66929 175.322793 
" clip-path="url(#p010ae23c28)" style="fill: none; stroke: #1f77b4; stroke-opacity: 0.5; stroke-width: 0.2; stroke-linecap: square"/>
   <path d="M 290.11196 182.594402 
L 291.11196 182.625838 
L 292.11196 182.662779 
L 293.11196 182.760525 
L 294.11196 182.793047 
L 295.11196 182.866671 
L 296.11196 182.905237 
L 297.11196 182.94065 
L 298.11196 182.99829 
L 299.11196 183.068676 
L 300.11196 183.120641 
L 301.11196 183.17973 
L 302.11196 183.268051 
L 303.11196 183.314196 
L 304.11196 183.356606 
L 305.11196 183.387099 
L 306.11196 183.413144 
L 307.11196 183.434344 
L 308.11196 183.488645 
L 309.11196 183.516583 
L 310.11196 183.546307 
L 311.11196 183.571702 
L 312.11196 183.582902 
L 313.11196 183.593026 
L 314.11196 183.592822 
L 315.11196 183.583312 
L 316.11196 183.571658 
L 317.11196 183.540629 
L 318.11196 183.529461 
L 319.11196 183.499343 
L 320.11196 183.439567 
L 321.11196 183.402375 
L 322.11196 183.363279 
L 323.11196 183.320839 
L 324.11196 183.288074 
L 325.11196 183.220648 
L 326.11196 183.181522 
L 327.11196 183.138847 
L 328.11196 183.068267 
L 329.11196 183.031876 
L 330.11196 182.973473 
L 331.11196 182.86252 
L 332.11196 182.791862 
L 333.11196 182.678922 
L 334.11196 182.633149 
L 335.11196 182.571866 
L 336.11196 182.523366 
L 337.11196 182.442544 
L 338.11196 182.324025 
L 339.11196 182.253814 
L 340.11196 182.170552 
L 341.11196 182.13741 
L 342.11196 182.086173 
L 343.11196 182.017774 
L 344.11196 181.951559 
L 345.11196 181.874642 
L 346.11196 181.847326 
L 347.11196 181.820849 
L 348.11196 181.798198 
L 349.11196 181.778667 
L 350.11196 181.752273 
L 351.11196 181.702502 
L 352.11196 181.667429 
L 353.66929 181.631563 
" clip-path="url(#p010ae23c28)" style="fill: none; stroke: #1f77b4; stroke-opacity: 0.5; stroke-width: 0.2; stroke-linecap: square"/>
   <path d="M 290.11196 160.201301 
L 291.11196 160.232737 
L 292.11196 160.269678 
L 293.11196 160.367424 
L 294.11196 160.399946 
L 295.11196 160.47357 
L 296.11196 160.512136 
L 297.11196 160.547549 
L 298.11196 160.605189 
L 299.11196 160.675575 
L 300.11196 160.72754 
L 301.11196 160.786629 
L 302.11196 160.87495 
L 303.11196 160.921095 
L 304.11196 160.963505 
L 305.11196 160.993998 
L 306.11196 161.020043 
L 307.11196 161.041243 
L 308.11196 161.095544 
L 309.11196 161.123482 
L 310.11196 161.153206 
L 311.11196 161.178601 
L 312.11196 161.189801 
L 313.11196 161.199925 
L 314.11196 161.199721 
L 315.11196 161.190211 
L 316.11196 161.178557 
L 317.11196 161.147528 
L 318.11196 161.13636 
L 319.11196 161.106242 
L 320.11196 161.046466 
L 321.11196 161.009274 
L 322.11196 160.970178 
L 323.11196 160.927738 
L 324.11196 160.894973 
L 325.11196 160.827547 
L 326.11196 160.788421 
L 327.11196 160.745746 
L 328.11196 160.675166 
L 329.11196 160.638775 
L 330.11196 160.580372 
L 331.11196 160.469419 
L 332.11196 160.398761 
L 333.11196 160.285821 
L 334.11196 160.240048 
L 335.11196 160.178765 
L 336.11196 160.130265 
L 337.11196 160.049443 
L 338.11196 159.930924 
L 339.11196 159.860713 
L 340.11196 159.777451 
L 341.11196 159.744309 
L 342.11196 159.693072 
L 343.11196 159.624673 
L 344.11196 159.558458 
L 345.11196 159.481541 
L 346.11196 159.454225 
L 347.11196 159.427748 
L 348.11196 159.405097 
L 349.11196 159.385566 
L 350.11196 159.359172 
L 351.11196 159.309401 
L 352.11196 159.274328 
L 353.66929 159.238462 
" clip-path="url(#p010ae23c28)" style="fill: none; stroke: #1f77b4; stroke-opacity: 0.5; stroke-width: 0.2; stroke-linecap: square"/>
   <path d="M 290.11196 127.102514 
L 291.11196 127.133951 
L 292.11196 127.170891 
L 293.11196 127.268637 
L 294.11196 127.301159 
L 295.11196 127.374784 
L 296.11196 127.413349 
L 297.11196 127.448762 
L 298.11196 127.506402 
L 299.11196 127.576789 
L 300.11196 127.628753 
L 301.11196 127.687843 
L 302.11196 127.776164 
L 303.11196 127.822308 
L 304.11196 127.864719 
L 305.11196 127.895211 
L 306.11196 127.921256 
L 307.11196 127.942457 
L 308.11196 127.996758 
L 309.11196 128.024695 
L 310.11196 128.054419 
L 311.11196 128.079814 
L 312.11196 128.091014 
L 313.11196 128.101138 
L 314.11196 128.100934 
L 315.11196 128.091424 
L 316.11196 128.079771 
L 317.11196 128.048741 
L 318.11196 128.037573 
L 319.11196 128.007456 
L 320.11196 127.947679 
L 321.11196 127.910487 
L 322.11196 127.871391 
L 323.11196 127.828952 
L 324.11196 127.796186 
L 325.11196 127.72876 
L 326.11196 127.689634 
L 327.11196 127.64696 
L 328.11196 127.576379 
L 329.11196 127.539988 
L 330.11196 127.481585 
L 331.11196 127.370632 
L 332.11196 127.299974 
L 333.11196 127.187034 
L 334.11196 127.141261 
L 335.11196 127.079978 
L 336.11196 127.031479 
L 337.11196 126.950656 
L 338.11196 126.832137 
L 339.11196 126.761927 
L 340.11196 126.678664 
L 341.11196 126.645522 
L 342.11196 126.594285 
L 343.11196 126.525887 
L 344.11196 126.459671 
L 345.11196 126.382754 
L 346.11196 126.355439 
L 347.11196 126.328961 
L 348.11196 126.30631 
L 349.11196 126.286779 
L 350.11196 126.260385 
L 351.11196 126.210614 
L 352.11196 126.175541 
L 353.66929 126.139676 
" clip-path="url(#p010ae23c28)" style="fill: none; stroke: #1f77b4; stroke-opacity: 0.5; stroke-width: 0.2; stroke-linecap: square"/>
   <path d="M 290.11196 88.001963 
L 291.11196 88.033399 
L 292.11196 88.070339 
L 293.11196 88.168086 
L 294.11196 88.200607 
L 295.11196 88.274232 
L 296.11196 88.312798 
L 297.11196 88.348211 
L 298.11196 88.405851 
L 299.11196 88.476237 
L 300.11196 88.528201 
L 301.11196 88.587291 
L 302.11196 88.675612 
L 303.11196 88.721756 
L 304.11196 88.764167 
L 305.11196 88.79466 
L 306.11196 88.820705 
L 307.11196 88.841905 
L 308.11196 88.896206 
L 309.11196 88.924144 
L 310.11196 88.953868 
L 311.11196 88.979262 
L 312.11196 88.990463 
L 313.11196 89.000587 
L 314.11196 89.000382 
L 315.11196 88.990873 
L 316.11196 88.979219 
L 317.11196 88.94819 
L 318.11196 88.937022 
L 319.11196 88.906904 
L 320.11196 88.847127 
L 321.11196 88.809936 
L 322.11196 88.77084 
L 323.11196 88.7284 
L 324.11196 88.695635 
L 325.11196 88.628208 
L 326.11196 88.589083 
L 327.11196 88.546408 
L 328.11196 88.475827 
L 329.11196 88.439437 
L 330.11196 88.381033 
L 331.11196 88.270081 
L 332.11196 88.199422 
L 333.11196 88.086483 
L 334.11196 88.04071 
L 335.11196 87.979427 
L 336.11196 87.930927 
L 337.11196 87.850105 
L 338.11196 87.731586 
L 339.11196 87.661375 
L 340.11196 87.578112 
L 341.11196 87.544971 
L 342.11196 87.493733 
L 343.11196 87.425335 
L 344.11196 87.35912 
L 345.11196 87.282203 
L 346.11196 87.254887 
L 347.11196 87.22841 
L 348.11196 87.205759 
L 349.11196 87.186228 
L 350.11196 87.159834 
L 351.11196 87.110063 
L 352.11196 87.07499 
L 353.66929 87.039124 
" clip-path="url(#p010ae23c28)" style="fill: none; stroke: #1f77b4; stroke-opacity: 0.5; stroke-width: 0.2; stroke-linecap: square"/>
   <path d="M 290.11196 212.709207 
L 291.11196 212.740643 
L 292.11196 212.777584 
L 293.11196 212.87533 
L 294.11196 212.907852 
L 295.11196 212.981476 
L 296.11196 213.020042 
L 297.11196 213.055455 
L 298.11196 213.113095 
L 299.11196 213.183481 
L 300.11196 213.235445 
L 301.11196 213.294535 
L 302.11196 213.382856 
L 303.11196 213.429 
L 304.11196 213.471411 
L 305.11196 213.501904 
L 306.11196 213.527949 
L 307.11196 213.549149 
L 308.11196 213.60345 
L 309.11196 213.631388 
L 310.11196 213.661112 
L 311.11196 213.686507 
L 312.11196 213.697707 
L 313.11196 213.707831 
L 314.11196 213.707627 
L 315.11196 213.698117 
L 316.11196 213.686463 
L 317.11196 213.655434 
L 318.11196 213.644266 
L 319.11196 213.614148 
L 320.11196 213.554371 
L 321.11196 213.51718 
L 322.11196 213.478084 
L 323.11196 213.435644 
L 324.11196 213.402879 
L 325.11196 213.335453 
L 326.11196 213.296327 
L 327.11196 213.253652 
L 328.11196 213.183072 
L 329.11196 213.146681 
L 330.11196 213.088278 
L 331.11196 212.977325 
L 332.11196 212.906667 
L 333.11196 212.793727 
L 334.11196 212.747954 
L 335.11196 212.686671 
L 336.11196 212.638171 
L 337.11196 212.557349 
L 338.11196 212.43883 
L 339.11196 212.368619 
L 340.11196 212.285357 
L 341.11196 212.252215 
L 342.11196 212.200978 
L 343.11196 212.132579 
L 344.11196 212.066364 
L 345.11196 211.989447 
L 346.11196 211.962131 
L 347.11196 211.935654 
L 348.11196 211.913003 
L 349.11196 211.893472 
L 350.11196 211.867078 
L 351.11196 211.817307 
L 352.11196 211.782234 
L 353.66929 211.746368 
" clip-path="url(#p010ae23c28)" style="fill: none; stroke: #1f77b4; stroke-opacity: 0.5; stroke-width: 0.2; stroke-linecap: square"/>
   <path d="M 290.11196 309.298123 
L 291.11196 309.329559 
L 292.11196 309.3665 
L 293.11196 309.464246 
L 294.11196 309.496768 
L 295.11196 309.570393 
L 296.11196 309.608958 
L 297.11196 309.644371 
L 298.11196 309.702011 
L 299.11196 309.772397 
L 300.11196 309.824362 
L 301.11196 309.883451 
L 302.11196 309.971772 
L 303.11196 310.017917 
L 304.11196 310.060328 
L 305.11196 310.09082 
L 306.11196 310.116865 
L 307.11196 310.138065 
L 308.11196 310.192366 
L 309.11196 310.220304 
L 310.11196 310.250028 
L 311.11196 310.275423 
L 312.11196 310.286623 
L 313.11196 310.296747 
L 314.11196 310.296543 
L 315.11196 310.287033 
L 316.11196 310.275379 
L 317.11196 310.24435 
L 318.11196 310.233182 
L 319.11196 310.203065 
L 320.11196 310.143288 
L 321.11196 310.106096 
L 322.11196 310.067 
L 323.11196 310.02456 
L 324.11196 309.991795 
L 325.11196 309.924369 
L 326.11196 309.885243 
L 327.11196 309.842568 
L 328.11196 309.771988 
L 329.11196 309.735597 
L 330.11196 309.677194 
L 331.11196 309.566241 
L 332.11196 309.495583 
L 333.11196 309.382643 
L 334.11196 309.33687 
L 335.11196 309.275587 
L 336.11196 309.227088 
L 337.11196 309.146265 
L 338.11196 309.027746 
L 339.11196 308.957535 
L 340.11196 308.874273 
L 341.11196 308.841131 
L 342.11196 308.789894 
L 343.11196 308.721495 
L 344.11196 308.65528 
L 345.11196 308.578363 
L 346.11196 308.551047 
L 347.11196 308.52457 
L 348.11196 308.501919 
L 349.11196 308.482388 
L 350.11196 308.455994 
L 351.11196 308.406223 
L 352.11196 308.37115 
L 353.66929 308.335284 
" clip-path="url(#p010ae23c28)" style="fill: none; stroke: #1f77b4; stroke-opacity: 0.5; stroke-width: 0.2; stroke-linecap: square"/>
   <path d="M 290.11196 282.025877 
L 291.11196 282.057314 
L 292.11196 282.094254 
L 293.11196 282.192001 
L 294.11196 282.224522 
L 295.11196 282.298147 
L 296.11196 282.336713 
L 297.11196 282.372126 
L 298.11196 282.429766 
L 299.11196 282.500152 
L 300.11196 282.552116 
L 301.11196 282.611206 
L 302.11196 282.699527 
L 303.11196 282.745671 
L 304.11196 282.788082 
L 305.11196 282.818575 
L 306.11196 282.84462 
L 307.11196 282.86582 
L 308.11196 282.920121 
L 309.11196 282.948058 
L 310.11196 282.977782 
L 311.11196 283.003177 
L 312.11196 283.014378 
L 313.11196 283.024502 
L 314.11196 283.024297 
L 315.11196 283.014787 
L 316.11196 283.003134 
L 317.11196 282.972104 
L 318.11196 282.960937 
L 319.11196 282.930819 
L 320.11196 282.871042 
L 321.11196 282.833851 
L 322.11196 282.794754 
L 323.11196 282.752315 
L 324.11196 282.71955 
L 325.11196 282.652123 
L 326.11196 282.612997 
L 327.11196 282.570323 
L 328.11196 282.499742 
L 329.11196 282.463351 
L 330.11196 282.404948 
L 331.11196 282.293996 
L 332.11196 282.223337 
L 333.11196 282.110397 
L 334.11196 282.064625 
L 335.11196 282.003341 
L 336.11196 281.954842 
L 337.11196 281.874019 
L 338.11196 281.7555 
L 339.11196 281.68529 
L 340.11196 281.602027 
L 341.11196 281.568886 
L 342.11196 281.517648 
L 343.11196 281.44925 
L 344.11196 281.383034 
L 345.11196 281.306117 
L 346.11196 281.278802 
L 347.11196 281.252324 
L 348.11196 281.229674 
L 349.11196 281.210142 
L 350.11196 281.183748 
L 351.11196 281.133978 
L 352.11196 281.098904 
L 353.66929 281.063039 
" clip-path="url(#p010ae23c28)" style="fill: none; stroke: #1f77b4; stroke-opacity: 0.5; stroke-width: 0.2; stroke-linecap: square"/>
   <path d="M 290.11196 227.442682 
L 291.11196 227.474119 
L 292.11196 227.511059 
L 293.11196 227.608806 
L 294.11196 227.641327 
L 295.11196 227.714952 
L 296.11196 227.753518 
L 297.11196 227.788931 
L 298.11196 227.846571 
L 299.11196 227.916957 
L 300.11196 227.968921 
L 301.11196 228.028011 
L 302.11196 228.116332 
L 303.11196 228.162476 
L 304.11196 228.204887 
L 305.11196 228.23538 
L 306.11196 228.261425 
L 307.11196 228.282625 
L 308.11196 228.336926 
L 309.11196 228.364863 
L 310.11196 228.394587 
L 311.11196 228.419982 
L 312.11196 228.431183 
L 313.11196 228.441307 
L 314.11196 228.441102 
L 315.11196 228.431592 
L 316.11196 228.419939 
L 317.11196 228.38891 
L 318.11196 228.377742 
L 319.11196 228.347624 
L 320.11196 228.287847 
L 321.11196 228.250656 
L 322.11196 228.21156 
L 323.11196 228.16912 
L 324.11196 228.136355 
L 325.11196 228.068928 
L 326.11196 228.029802 
L 327.11196 227.987128 
L 328.11196 227.916547 
L 329.11196 227.880156 
L 330.11196 227.821753 
L 331.11196 227.710801 
L 332.11196 227.640142 
L 333.11196 227.527203 
L 334.11196 227.48143 
L 335.11196 227.420146 
L 336.11196 227.371647 
L 337.11196 227.290824 
L 338.11196 227.172305 
L 339.11196 227.102095 
L 340.11196 227.018832 
L 341.11196 226.985691 
L 342.11196 226.934453 
L 343.11196 226.866055 
L 344.11196 226.799839 
L 345.11196 226.722922 
L 346.11196 226.695607 
L 347.11196 226.669129 
L 348.11196 226.646479 
L 349.11196 226.626947 
L 350.11196 226.600554 
L 351.11196 226.550783 
L 352.11196 226.51571 
L 353.66929 226.479844 
" clip-path="url(#p010ae23c28)" style="fill: none; stroke: #1f77b4; stroke-opacity: 0.5; stroke-width: 0.2; stroke-linecap: square"/>
   <path d="M 290.11196 267.994712 
L 291.11196 268.026148 
L 292.11196 268.063089 
L 293.11196 268.160835 
L 294.11196 268.193357 
L 295.11196 268.266982 
L 296.11196 268.305547 
L 297.11196 268.34096 
L 298.11196 268.3986 
L 299.11196 268.468986 
L 300.11196 268.520951 
L 301.11196 268.58004 
L 302.11196 268.668361 
L 303.11196 268.714506 
L 304.11196 268.756917 
L 305.11196 268.787409 
L 306.11196 268.813454 
L 307.11196 268.834654 
L 308.11196 268.888955 
L 309.11196 268.916893 
L 310.11196 268.946617 
L 311.11196 268.972012 
L 312.11196 268.983212 
L 313.11196 268.993336 
L 314.11196 268.993132 
L 315.11196 268.983622 
L 316.11196 268.971968 
L 317.11196 268.940939 
L 318.11196 268.929771 
L 319.11196 268.899654 
L 320.11196 268.839877 
L 321.11196 268.802685 
L 322.11196 268.763589 
L 323.11196 268.721149 
L 324.11196 268.688384 
L 325.11196 268.620958 
L 326.11196 268.581832 
L 327.11196 268.539157 
L 328.11196 268.468577 
L 329.11196 268.432186 
L 330.11196 268.373783 
L 331.11196 268.26283 
L 332.11196 268.192172 
L 333.11196 268.079232 
L 334.11196 268.033459 
L 335.11196 267.972176 
L 336.11196 267.923677 
L 337.11196 267.842854 
L 338.11196 267.724335 
L 339.11196 267.654124 
L 340.11196 267.570862 
L 341.11196 267.53772 
L 342.11196 267.486483 
L 343.11196 267.418084 
L 344.11196 267.351869 
L 345.11196 267.274952 
L 346.11196 267.247636 
L 347.11196 267.221159 
L 348.11196 267.198508 
L 349.11196 267.178977 
L 350.11196 267.152583 
L 351.11196 267.102812 
L 352.11196 267.067739 
L 353.66929 267.031873 
" clip-path="url(#p010ae23c28)" style="fill: none; stroke: #1f77b4; stroke-opacity: 0.5; stroke-width: 0.2; stroke-linecap: square"/>
   <path d="M 290.11196 231.554468 
L 291.11196 231.585904 
L 292.11196 231.622844 
L 293.11196 231.720591 
L 294.11196 231.753112 
L 295.11196 231.826737 
L 296.11196 231.865303 
L 297.11196 231.900716 
L 298.11196 231.958356 
L 299.11196 232.028742 
L 300.11196 232.080706 
L 301.11196 232.139796 
L 302.11196 232.228117 
L 303.11196 232.274261 
L 304.11196 232.316672 
L 305.11196 232.347165 
L 306.11196 232.37321 
L 307.11196 232.39441 
L 308.11196 232.448711 
L 309.11196 232.476649 
L 310.11196 232.506373 
L 311.11196 232.531767 
L 312.11196 232.542968 
L 313.11196 232.553092 
L 314.11196 232.552887 
L 315.11196 232.543378 
L 316.11196 232.531724 
L 317.11196 232.500695 
L 318.11196 232.489527 
L 319.11196 232.459409 
L 320.11196 232.399632 
L 321.11196 232.362441 
L 322.11196 232.323345 
L 323.11196 232.280905 
L 324.11196 232.24814 
L 325.11196 232.180713 
L 326.11196 232.141588 
L 327.11196 232.098913 
L 328.11196 232.028332 
L 329.11196 231.991942 
L 330.11196 231.933538 
L 331.11196 231.822586 
L 332.11196 231.751927 
L 333.11196 231.638988 
L 334.11196 231.593215 
L 335.11196 231.531932 
L 336.11196 231.483432 
L 337.11196 231.40261 
L 338.11196 231.284091 
L 339.11196 231.21388 
L 340.11196 231.130617 
L 341.11196 231.097476 
L 342.11196 231.046238 
L 343.11196 230.97784 
L 344.11196 230.911625 
L 345.11196 230.834708 
L 346.11196 230.807392 
L 347.11196 230.780915 
L 348.11196 230.758264 
L 349.11196 230.738733 
L 350.11196 230.712339 
L 351.11196 230.662568 
L 352.11196 230.627495 
L 353.66929 230.591629 
" clip-path="url(#p010ae23c28)" style="fill: none; stroke: #1f77b4; stroke-opacity: 0.5; stroke-width: 0.2; stroke-linecap: square"/>
   <path d="M 290.11196 281.856845 
L 291.11196 281.888282 
L 292.11196 281.925222 
L 293.11196 282.022968 
L 294.11196 282.05549 
L 295.11196 282.129115 
L 296.11196 282.16768 
L 297.11196 282.203093 
L 298.11196 282.260733 
L 299.11196 282.33112 
L 300.11196 282.383084 
L 301.11196 282.442174 
L 302.11196 282.530495 
L 303.11196 282.576639 
L 304.11196 282.61905 
L 305.11196 282.649542 
L 306.11196 282.675587 
L 307.11196 282.696787 
L 308.11196 282.751089 
L 309.11196 282.779026 
L 310.11196 282.80875 
L 311.11196 282.834145 
L 312.11196 282.845345 
L 313.11196 282.855469 
L 314.11196 282.855265 
L 315.11196 282.845755 
L 316.11196 282.834102 
L 317.11196 282.803072 
L 318.11196 282.791904 
L 319.11196 282.761787 
L 320.11196 282.70201 
L 321.11196 282.664818 
L 322.11196 282.625722 
L 323.11196 282.583283 
L 324.11196 282.550517 
L 325.11196 282.483091 
L 326.11196 282.443965 
L 327.11196 282.401291 
L 328.11196 282.33071 
L 329.11196 282.294319 
L 330.11196 282.235916 
L 331.11196 282.124963 
L 332.11196 282.054305 
L 333.11196 281.941365 
L 334.11196 281.895592 
L 335.11196 281.834309 
L 336.11196 281.78581 
L 337.11196 281.704987 
L 338.11196 281.586468 
L 339.11196 281.516258 
L 340.11196 281.432995 
L 341.11196 281.399853 
L 342.11196 281.348616 
L 343.11196 281.280218 
L 344.11196 281.214002 
L 345.11196 281.137085 
L 346.11196 281.10977 
L 347.11196 281.083292 
L 348.11196 281.060641 
L 349.11196 281.04111 
L 350.11196 281.014716 
L 351.11196 280.964945 
L 352.11196 280.929872 
L 353.66929 280.894007 
" clip-path="url(#p010ae23c28)" style="fill: none; stroke: #1f77b4; stroke-opacity: 0.5; stroke-width: 0.2; stroke-linecap: square"/>
   <path d="M 290.11196 293.15916 
L 291.11196 293.190596 
L 292.11196 293.227537 
L 293.11196 293.325283 
L 294.11196 293.357805 
L 295.11196 293.431429 
L 296.11196 293.469995 
L 297.11196 293.505408 
L 298.11196 293.563048 
L 299.11196 293.633434 
L 300.11196 293.685398 
L 301.11196 293.744488 
L 302.11196 293.832809 
L 303.11196 293.878953 
L 304.11196 293.921364 
L 305.11196 293.951857 
L 306.11196 293.977902 
L 307.11196 293.999102 
L 308.11196 294.053403 
L 309.11196 294.081341 
L 310.11196 294.111065 
L 311.11196 294.13646 
L 312.11196 294.14766 
L 313.11196 294.157784 
L 314.11196 294.15758 
L 315.11196 294.14807 
L 316.11196 294.136416 
L 317.11196 294.105387 
L 318.11196 294.094219 
L 319.11196 294.064101 
L 320.11196 294.004324 
L 321.11196 293.967133 
L 322.11196 293.928037 
L 323.11196 293.885597 
L 324.11196 293.852832 
L 325.11196 293.785406 
L 326.11196 293.74628 
L 327.11196 293.703605 
L 328.11196 293.633025 
L 329.11196 293.596634 
L 330.11196 293.538231 
L 331.11196 293.427278 
L 332.11196 293.35662 
L 333.11196 293.24368 
L 334.11196 293.197907 
L 335.11196 293.136624 
L 336.11196 293.088124 
L 337.11196 293.007302 
L 338.11196 292.888783 
L 339.11196 292.818572 
L 340.11196 292.73531 
L 341.11196 292.702168 
L 342.11196 292.650931 
L 343.11196 292.582532 
L 344.11196 292.516317 
L 345.11196 292.4394 
L 346.11196 292.412084 
L 347.11196 292.385607 
L 348.11196 292.362956 
L 349.11196 292.343425 
L 350.11196 292.317031 
L 351.11196 292.26726 
L 352.11196 292.232187 
L 353.66929 292.196321 
" clip-path="url(#p010ae23c28)" style="fill: none; stroke: #1f77b4; stroke-opacity: 0.5; stroke-width: 0.2; stroke-linecap: square"/>
   <path d="M 290.11196 212.046355 
L 291.11196 212.077792 
L 292.11196 212.114732 
L 293.11196 212.212478 
L 294.11196 212.245 
L 295.11196 212.318625 
L 296.11196 212.35719 
L 297.11196 212.392604 
L 298.11196 212.450243 
L 299.11196 212.52063 
L 300.11196 212.572594 
L 301.11196 212.631684 
L 302.11196 212.720005 
L 303.11196 212.766149 
L 304.11196 212.80856 
L 305.11196 212.839052 
L 306.11196 212.865097 
L 307.11196 212.886298 
L 308.11196 212.940599 
L 309.11196 212.968536 
L 310.11196 212.99826 
L 311.11196 213.023655 
L 312.11196 213.034855 
L 313.11196 213.044979 
L 314.11196 213.044775 
L 315.11196 213.035265 
L 316.11196 213.023612 
L 317.11196 212.992582 
L 318.11196 212.981414 
L 319.11196 212.951297 
L 320.11196 212.89152 
L 321.11196 212.854328 
L 322.11196 212.815232 
L 323.11196 212.772793 
L 324.11196 212.740028 
L 325.11196 212.672601 
L 326.11196 212.633475 
L 327.11196 212.590801 
L 328.11196 212.52022 
L 329.11196 212.483829 
L 330.11196 212.425426 
L 331.11196 212.314473 
L 332.11196 212.243815 
L 333.11196 212.130875 
L 334.11196 212.085102 
L 335.11196 212.023819 
L 336.11196 211.97532 
L 337.11196 211.894497 
L 338.11196 211.775978 
L 339.11196 211.705768 
L 340.11196 211.622505 
L 341.11196 211.589363 
L 342.11196 211.538126 
L 343.11196 211.469728 
L 344.11196 211.403512 
L 345.11196 211.326595 
L 346.11196 211.29928 
L 347.11196 211.272802 
L 348.11196 211.250151 
L 349.11196 211.23062 
L 350.11196 211.204226 
L 351.11196 211.154455 
L 352.11196 211.119382 
L 353.66929 211.083517 
" clip-path="url(#p010ae23c28)" style="fill: none; stroke: #1f77b4; stroke-opacity: 0.5; stroke-width: 0.2; stroke-linecap: square"/>
   <path d="M 290.11196 254.745621 
L 291.11196 254.777058 
L 292.11196 254.813998 
L 293.11196 254.911745 
L 294.11196 254.944266 
L 295.11196 255.017891 
L 296.11196 255.056456 
L 297.11196 255.09187 
L 298.11196 255.14951 
L 299.11196 255.219896 
L 300.11196 255.27186 
L 301.11196 255.33095 
L 302.11196 255.419271 
L 303.11196 255.465415 
L 304.11196 255.507826 
L 305.11196 255.538319 
L 306.11196 255.564364 
L 307.11196 255.585564 
L 308.11196 255.639865 
L 309.11196 255.667802 
L 310.11196 255.697526 
L 311.11196 255.722921 
L 312.11196 255.734121 
L 313.11196 255.744245 
L 314.11196 255.744041 
L 315.11196 255.734531 
L 316.11196 255.722878 
L 317.11196 255.691848 
L 318.11196 255.68068 
L 319.11196 255.650563 
L 320.11196 255.590786 
L 321.11196 255.553594 
L 322.11196 255.514498 
L 323.11196 255.472059 
L 324.11196 255.439294 
L 325.11196 255.371867 
L 326.11196 255.332741 
L 327.11196 255.290067 
L 328.11196 255.219486 
L 329.11196 255.183095 
L 330.11196 255.124692 
L 331.11196 255.013739 
L 332.11196 254.943081 
L 333.11196 254.830141 
L 334.11196 254.784368 
L 335.11196 254.723085 
L 336.11196 254.674586 
L 337.11196 254.593763 
L 338.11196 254.475244 
L 339.11196 254.405034 
L 340.11196 254.321771 
L 341.11196 254.288629 
L 342.11196 254.237392 
L 343.11196 254.168994 
L 344.11196 254.102778 
L 345.11196 254.025861 
L 346.11196 253.998546 
L 347.11196 253.972068 
L 348.11196 253.949418 
L 349.11196 253.929886 
L 350.11196 253.903492 
L 351.11196 253.853721 
L 352.11196 253.818648 
L 353.66929 253.782783 
" clip-path="url(#p010ae23c28)" style="fill: none; stroke: #1f77b4; stroke-opacity: 0.5; stroke-width: 0.2; stroke-linecap: square"/>
   <g id="patch_3">
    <path d="M 69.06392 22.318125 
L 69.06392 318.021875 
M 284.549772 22.318125 
L 284.549772 318.021875 
" clip-path="url(#p010ae23c28)" style="fill: none; stroke: #ffffff; stroke-width: 3; stroke-linejoin: miter"/>
    <path d="M 69.06392 22.318125 
L 69.06392 318.021875 
M 284.549772 22.318125 
L 284.549772 318.021875 
" clip-path="url(#p010ae23c28)" style="fill: none; stroke: #1f77b4; stroke-linejoin: miter"/>
    <g id="PolyCollection_1">
     <path d="M 284.549772 22.318125 
L 69.06392 22.318125 
L 69.06392 318.021875 
L 284.549772 318.021875 
L 284.549772 318.021875 
L 284.549772 22.318125 
z
" clip-path="url(#p010ae23c28)" style="fill: #1f77b4; fill-opacity: 0.5"/>
    </g>
    <g id="patch_4">
     <path d="M 359.231478 22.318125 
L 359.231478 318.021875 
M 574.71733 22.318125 
L 574.71733 318.021875 
" clip-path="url(#p010ae23c28)" style="fill: none; stroke: #ffffff; stroke-width: 3; stroke-linejoin: miter"/>
     <path d="M 359.231478 22.318125 
L 359.231478 318.021875 
M 574.71733 22.318125 
L 574.71733 318.021875 
" clip-path="url(#p010ae23c28)" style="fill: none; stroke: #ff7f0e; stroke-linejoin: miter"/>
     <g id="PolyCollection_2">
      <path d="M 574.71733 22.318125 
L 359.231478 22.318125 
L 359.231478 318.021875 
L 574.71733 318.021875 
L 574.71733 318.021875 
L 574.71733 22.318125 
z
" clip-path="url(#p010ae23c28)" style="fill: #ff7f0e; fill-opacity: 0.5"/>
     </g>
     <g id="matplotlib.axis_1">
      <g id="xtick_1">
       <g id="line2d_1"/>
       <g id="text_1">
        <!-- deme0 -->
        <g transform="translate(159.42794 329.120312)scale(0.1 -0.1)">
         <defs>
          <path id="DejaVuSans-64" d="M 2906 2969 
L 2906 4863 
L 3481 4863 
L 3481 0 
L 2906 0 
L 2906 525 
Q 2725 213 2448 61 
Q 2172 -91 1784 -91 
Q 1150 -91 751 415 
Q 353 922 353 1747 
Q 353 2572 751 3078 
Q 1150 3584 1784 3584 
Q 2172 3584 2448 3432 
Q 2725 3281 2906 2969 
z
M 947 1747 
Q 947 1113 1208 752 
Q 1469 391 1925 391 
Q 2381 391 2643 752 
Q 2906 1113 2906 1747 
Q 2906 2381 2643 2742 
Q 2381 3103 1925 3103 
Q 1469 3103 1208 2742 
Q 947 2381 947 1747 
z
" transform="scale(0.015625)"/>
          <path id="DejaVuSans-65" d="M 3597 1894 
L 3597 1613 
L 953 1613 
Q 991 1019 1311 708 
Q 1631 397 2203 397 
Q 2534 397 2845 478 
Q 3156 559 3463 722 
L 3463 178 
Q 3153 47 2828 -22 
Q 2503 -91 2169 -91 
Q 1331 -91 842 396 
Q 353 884 353 1716 
Q 353 2575 817 3079 
Q 1281 3584 2069 3584 
Q 2775 3584 3186 3129 
Q 3597 2675 3597 1894 
z
M 3022 2063 
Q 3016 2534 2758 2815 
Q 2500 3097 2075 3097 
Q 1594 3097 1305 2825 
Q 1016 2553 972 2059 
L 3022 2063 
z
" transform="scale(0.015625)"/>
          <path id="DejaVuSans-6d" d="M 3328 2828 
Q 3544 3216 3844 3400 
Q 4144 3584 4550 3584 
Q 5097 3584 5394 3201 
Q 5691 2819 5691 2113 
L 5691 0 
L 5113 0 
L 5113 2094 
Q 5113 2597 4934 2840 
Q 4756 3084 4391 3084 
Q 3944 3084 3684 2787 
Q 3425 2491 3425 1978 
L 3425 0 
L 2847 0 
L 2847 2094 
Q 2847 2600 2669 2842 
Q 2491 3084 2119 3084 
Q 1678 3084 1418 2786 
Q 1159 2488 1159 1978 
L 1159 0 
L 581 0 
L 581 3500 
L 1159 3500 
L 1159 2956 
Q 1356 3278 1631 3431 
Q 1906 3584 2284 3584 
Q 2666 3584 2933 3390 
Q 3200 3197 3328 2828 
z
" transform="scale(0.015625)"/>
          <path id="DejaVuSans-30" d="M 2034 4250 
Q 1547 4250 1301 3770 
Q 1056 3291 1056 2328 
Q 1056 1369 1301 889 
Q 1547 409 2034 409 
Q 2525 409 2770 889 
Q 3016 1369 3016 2328 
Q 3016 3291 2770 3770 
Q 2525 4250 2034 4250 
z
M 2034 4750 
Q 2819 4750 3233 4129 
Q 3647 3509 3647 2328 
Q 3647 1150 3233 529 
Q 2819 -91 2034 -91 
Q 1250 -91 836 529 
Q 422 1150 422 2328 
Q 422 3509 836 4129 
Q 1250 4750 2034 4750 
z
" transform="scale(0.015625)"/>
         </defs>
         <use xlink:href="#DejaVuSans-64"/>
         <use xlink:href="#DejaVuSans-65" x="63.476562"/>
         <use xlink:href="#DejaVuSans-6d" x="125"/>
         <use xlink:href="#DejaVuSans-65" x="222.412109"/>
         <use xlink:href="#DejaVuSans-30" x="283.935547"/>
        </g>
       </g>
      </g>
      <g id="xtick_2">
       <g id="line2d_2"/>
       <g id="text_2">
        <!-- deme1 -->
        <g transform="translate(449.595497 329.120312)scale(0.1 -0.1)">
         <defs>
          <path id="DejaVuSans-31" d="M 794 531 
L 1825 531 
L 1825 4091 
L 703 3866 
L 703 4441 
L 1819 4666 
L 2450 4666 
L 2450 531 
L 3481 531 
L 3481 0 
L 794 0 
L 794 531 
z
" transform="scale(0.015625)"/>
         </defs>
         <use xlink:href="#DejaVuSans-64"/>
         <use xlink:href="#DejaVuSans-65" x="63.476562"/>
         <use xlink:href="#DejaVuSans-6d" x="125"/>
         <use xlink:href="#DejaVuSans-65" x="222.412109"/>
         <use xlink:href="#DejaVuSans-31" x="283.935547"/>
        </g>
       </g>
      </g>
     </g>
     <g id="matplotlib.axis_2">
      <g id="ytick_1">
       <g id="line2d_3">
        <defs>
         <path id="m0411ad3b06" d="M 0 0 
L -3.5 0 
" style="stroke: #000000; stroke-width: 0.8"/>
        </defs>
        <g>
         <use xlink:href="#m0411ad3b06" x="43.78125" y="318.021875" style="stroke: #000000; stroke-width: 0.8"/>
        </g>
       </g>
       <g id="text_3">
        <!-- 0.0 -->
        <g transform="translate(20.878125 321.821094)scale(0.1 -0.1)">
         <defs>
          <path id="DejaVuSans-2e" d="M 684 794 
L 1344 794 
L 1344 0 
L 684 0 
L 684 794 
z
" transform="scale(0.015625)"/>
         </defs>
         <use xlink:href="#DejaVuSans-30"/>
         <use xlink:href="#DejaVuSans-2e" x="63.623047"/>
         <use xlink:href="#DejaVuSans-30" x="95.410156"/>
        </g>
       </g>
      </g>
      <g id="ytick_2">
       <g id="line2d_4">
        <g>
         <use xlink:href="#m0411ad3b06" x="43.78125" y="258.881125" style="stroke: #000000; stroke-width: 0.8"/>
        </g>
       </g>
       <g id="text_4">
        <!-- 0.5 -->
        <g transform="translate(20.878125 262.680344)scale(0.1 -0.1)">
         <defs>
          <path id="DejaVuSans-35" d="M 691 4666 
L 3169 4666 
L 3169 4134 
L 1269 4134 
L 1269 2991 
Q 1406 3038 1543 3061 
Q 1681 3084 1819 3084 
Q 2600 3084 3056 2656 
Q 3513 2228 3513 1497 
Q 3513 744 3044 326 
Q 2575 -91 1722 -91 
Q 1428 -91 1123 -41 
Q 819 9 494 109 
L 494 744 
Q 775 591 1075 516 
Q 1375 441 1709 441 
Q 2250 441 2565 725 
Q 2881 1009 2881 1497 
Q 2881 1984 2565 2268 
Q 2250 2553 1709 2553 
Q 1456 2553 1204 2497 
Q 953 2441 691 2322 
L 691 4666 
z
" transform="scale(0.015625)"/>
         </defs>
         <use xlink:href="#DejaVuSans-30"/>
         <use xlink:href="#DejaVuSans-2e" x="63.623047"/>
         <use xlink:href="#DejaVuSans-35" x="95.410156"/>
        </g>
       </g>
      </g>
      <g id="ytick_3">
       <g id="line2d_5">
        <g>
         <use xlink:href="#m0411ad3b06" x="43.78125" y="199.740375" style="stroke: #000000; stroke-width: 0.8"/>
        </g>
       </g>
       <g id="text_5">
        <!-- 1.0 -->
        <g transform="translate(20.878125 203.539594)scale(0.1 -0.1)">
         <use xlink:href="#DejaVuSans-31"/>
         <use xlink:href="#DejaVuSans-2e" x="63.623047"/>
         <use xlink:href="#DejaVuSans-30" x="95.410156"/>
        </g>
       </g>
      </g>
      <g id="ytick_4">
       <g id="line2d_6">
        <g>
         <use xlink:href="#m0411ad3b06" x="43.78125" y="140.599625" style="stroke: #000000; stroke-width: 0.8"/>
        </g>
       </g>
       <g id="text_6">
        <!-- 1.5 -->
        <g transform="translate(20.878125 144.398844)scale(0.1 -0.1)">
         <use xlink:href="#DejaVuSans-31"/>
         <use xlink:href="#DejaVuSans-2e" x="63.623047"/>
         <use xlink:href="#DejaVuSans-35" x="95.410156"/>
        </g>
       </g>
      </g>
      <g id="ytick_5">
       <g id="line2d_7">
        <g>
         <use xlink:href="#m0411ad3b06" x="43.78125" y="81.458875" style="stroke: #000000; stroke-width: 0.8"/>
        </g>
       </g>
       <g id="text_7">
        <!-- 2.0 -->
        <g transform="translate(20.878125 85.258094)scale(0.1 -0.1)">
         <defs>
          <path id="DejaVuSans-32" d="M 1228 531 
L 3431 531 
L 3431 0 
L 469 0 
L 469 531 
Q 828 903 1448 1529 
Q 2069 2156 2228 2338 
Q 2531 2678 2651 2914 
Q 2772 3150 2772 3378 
Q 2772 3750 2511 3984 
Q 2250 4219 1831 4219 
Q 1534 4219 1204 4116 
Q 875 4013 500 3803 
L 500 4441 
Q 881 4594 1212 4672 
Q 1544 4750 1819 4750 
Q 2544 4750 2975 4387 
Q 3406 4025 3406 3419 
Q 3406 3131 3298 2873 
Q 3191 2616 2906 2266 
Q 2828 2175 2409 1742 
Q 1991 1309 1228 531 
z
" transform="scale(0.015625)"/>
         </defs>
         <use xlink:href="#DejaVuSans-32"/>
         <use xlink:href="#DejaVuSans-2e" x="63.623047"/>
         <use xlink:href="#DejaVuSans-30" x="95.410156"/>
        </g>
       </g>
      </g>
      <g id="ytick_6">
       <g id="line2d_8">
        <g>
         <use xlink:href="#m0411ad3b06" x="43.78125" y="22.318125" style="stroke: #000000; stroke-width: 0.8"/>
        </g>
       </g>
       <g id="text_8">
        <!-- 2.5 -->
        <g transform="translate(20.878125 26.117344)scale(0.1 -0.1)">
         <use xlink:href="#DejaVuSans-32"/>
         <use xlink:href="#DejaVuSans-2e" x="63.623047"/>
         <use xlink:href="#DejaVuSans-35" x="95.410156"/>
        </g>
       </g>
      </g>
      <g id="text_9">
       <!-- time ago (generations) -->
       <g transform="translate(14.798438 227.641094)rotate(-90)scale(0.1 -0.1)">
        <defs>
         <path id="DejaVuSans-74" d="M 1172 4494 
L 1172 3500 
L 2356 3500 
L 2356 3053 
L 1172 3053 
L 1172 1153 
Q 1172 725 1289 603 
Q 1406 481 1766 481 
L 2356 481 
L 2356 0 
L 1766 0 
Q 1100 0 847 248 
Q 594 497 594 1153 
L 594 3053 
L 172 3053 
L 172 3500 
L 594 3500 
L 594 4494 
L 1172 4494 
z
" transform="scale(0.015625)"/>
         <path id="DejaVuSans-69" d="M 603 3500 
L 1178 3500 
L 1178 0 
L 603 0 
L 603 3500 
z
M 603 4863 
L 1178 4863 
L 1178 4134 
L 603 4134 
L 603 4863 
z
" transform="scale(0.015625)"/>
         <path id="DejaVuSans-20" transform="scale(0.015625)"/>
         <path id="DejaVuSans-61" d="M 2194 1759 
Q 1497 1759 1228 1600 
Q 959 1441 959 1056 
Q 959 750 1161 570 
Q 1363 391 1709 391 
Q 2188 391 2477 730 
Q 2766 1069 2766 1631 
L 2766 1759 
L 2194 1759 
z
M 3341 1997 
L 3341 0 
L 2766 0 
L 2766 531 
Q 2569 213 2275 61 
Q 1981 -91 1556 -91 
Q 1019 -91 701 211 
Q 384 513 384 1019 
Q 384 1609 779 1909 
Q 1175 2209 1959 2209 
L 2766 2209 
L 2766 2266 
Q 2766 2663 2505 2880 
Q 2244 3097 1772 3097 
Q 1472 3097 1187 3025 
Q 903 2953 641 2809 
L 641 3341 
Q 956 3463 1253 3523 
Q 1550 3584 1831 3584 
Q 2591 3584 2966 3190 
Q 3341 2797 3341 1997 
z
" transform="scale(0.015625)"/>
         <path id="DejaVuSans-67" d="M 2906 1791 
Q 2906 2416 2648 2759 
Q 2391 3103 1925 3103 
Q 1463 3103 1205 2759 
Q 947 2416 947 1791 
Q 947 1169 1205 825 
Q 1463 481 1925 481 
Q 2391 481 2648 825 
Q 2906 1169 2906 1791 
z
M 3481 434 
Q 3481 -459 3084 -895 
Q 2688 -1331 1869 -1331 
Q 1566 -1331 1297 -1286 
Q 1028 -1241 775 -1147 
L 775 -588 
Q 1028 -725 1275 -790 
Q 1522 -856 1778 -856 
Q 2344 -856 2625 -561 
Q 2906 -266 2906 331 
L 2906 616 
Q 2728 306 2450 153 
Q 2172 0 1784 0 
Q 1141 0 747 490 
Q 353 981 353 1791 
Q 353 2603 747 3093 
Q 1141 3584 1784 3584 
Q 2172 3584 2450 3431 
Q 2728 3278 2906 2969 
L 2906 3500 
L 3481 3500 
L 3481 434 
z
" transform="scale(0.015625)"/>
         <path id="DejaVuSans-6f" d="M 1959 3097 
Q 1497 3097 1228 2736 
Q 959 2375 959 1747 
Q 959 1119 1226 758 
Q 1494 397 1959 397 
Q 2419 397 2687 759 
Q 2956 1122 2956 1747 
Q 2956 2369 2687 2733 
Q 2419 3097 1959 3097 
z
M 1959 3584 
Q 2709 3584 3137 3096 
Q 3566 2609 3566 1747 
Q 3566 888 3137 398 
Q 2709 -91 1959 -91 
Q 1206 -91 779 398 
Q 353 888 353 1747 
Q 353 2609 779 3096 
Q 1206 3584 1959 3584 
z
" transform="scale(0.015625)"/>
         <path id="DejaVuSans-28" d="M 1984 4856 
Q 1566 4138 1362 3434 
Q 1159 2731 1159 2009 
Q 1159 1288 1364 580 
Q 1569 -128 1984 -844 
L 1484 -844 
Q 1016 -109 783 600 
Q 550 1309 550 2009 
Q 550 2706 781 3412 
Q 1013 4119 1484 4856 
L 1984 4856 
z
" transform="scale(0.015625)"/>
         <path id="DejaVuSans-6e" d="M 3513 2113 
L 3513 0 
L 2938 0 
L 2938 2094 
Q 2938 2591 2744 2837 
Q 2550 3084 2163 3084 
Q 1697 3084 1428 2787 
Q 1159 2491 1159 1978 
L 1159 0 
L 581 0 
L 581 3500 
L 1159 3500 
L 1159 2956 
Q 1366 3272 1645 3428 
Q 1925 3584 2291 3584 
Q 2894 3584 3203 3211 
Q 3513 2838 3513 2113 
z
" transform="scale(0.015625)"/>
         <path id="DejaVuSans-72" d="M 2631 2963 
Q 2534 3019 2420 3045 
Q 2306 3072 2169 3072 
Q 1681 3072 1420 2755 
Q 1159 2438 1159 1844 
L 1159 0 
L 581 0 
L 581 3500 
L 1159 3500 
L 1159 2956 
Q 1341 3275 1631 3429 
Q 1922 3584 2338 3584 
Q 2397 3584 2469 3576 
Q 2541 3569 2628 3553 
L 2631 2963 
z
" transform="scale(0.015625)"/>
         <path id="DejaVuSans-73" d="M 2834 3397 
L 2834 2853 
Q 2591 2978 2328 3040 
Q 2066 3103 1784 3103 
Q 1356 3103 1142 2972 
Q 928 2841 928 2578 
Q 928 2378 1081 2264 
Q 1234 2150 1697 2047 
L 1894 2003 
Q 2506 1872 2764 1633 
Q 3022 1394 3022 966 
Q 3022 478 2636 193 
Q 2250 -91 1575 -91 
Q 1294 -91 989 -36 
Q 684 19 347 128 
L 347 722 
Q 666 556 975 473 
Q 1284 391 1588 391 
Q 1994 391 2212 530 
Q 2431 669 2431 922 
Q 2431 1156 2273 1281 
Q 2116 1406 1581 1522 
L 1381 1569 
Q 847 1681 609 1914 
Q 372 2147 372 2553 
Q 372 3047 722 3315 
Q 1072 3584 1716 3584 
Q 2034 3584 2315 3537 
Q 2597 3491 2834 3397 
z
" transform="scale(0.015625)"/>
         <path id="DejaVuSans-29" d="M 513 4856 
L 1013 4856 
Q 1481 4119 1714 3412 
Q 1947 2706 1947 2009 
Q 1947 1309 1714 600 
Q 1481 -109 1013 -844 
L 513 -844 
Q 928 -128 1133 580 
Q 1338 1288 1338 2009 
Q 1338 2731 1133 3434 
Q 928 4138 513 4856 
z
" transform="scale(0.015625)"/>
        </defs>
        <use xlink:href="#DejaVuSans-74"/>
        <use xlink:href="#DejaVuSans-69" x="39.208984"/>
        <use xlink:href="#DejaVuSans-6d" x="66.992188"/>
        <use xlink:href="#DejaVuSans-65" x="164.404297"/>
        <use xlink:href="#DejaVuSans-20" x="225.927734"/>
        <use xlink:href="#DejaVuSans-61" x="257.714844"/>
        <use xlink:href="#DejaVuSans-67" x="318.994141"/>
        <use xlink:href="#DejaVuSans-6f" x="382.470703"/>
        <use xlink:href="#DejaVuSans-20" x="443.652344"/>
        <use xlink:href="#DejaVuSans-28" x="475.439453"/>
        <use xlink:href="#DejaVuSans-67" x="514.453125"/>
        <use xlink:href="#DejaVuSans-65" x="577.929688"/>
        <use xlink:href="#DejaVuSans-6e" x="639.453125"/>
        <use xlink:href="#DejaVuSans-65" x="702.832031"/>
        <use xlink:href="#DejaVuSans-72" x="764.355469"/>
        <use xlink:href="#DejaVuSans-61" x="805.46875"/>
        <use xlink:href="#DejaVuSans-74" x="866.748047"/>
        <use xlink:href="#DejaVuSans-69" x="905.957031"/>
        <use xlink:href="#DejaVuSans-6f" x="933.740234"/>
        <use xlink:href="#DejaVuSans-6e" x="994.921875"/>
        <use xlink:href="#DejaVuSans-73" x="1058.300781"/>
        <use xlink:href="#DejaVuSans-29" x="1110.400391"/>
       </g>
      </g>
     </g>
     <path d="M 354.66929 177.53096 
L 352.66929 176.53096 
L 352.66929 178.53096 
z
" clip-path="url(#p010ae23c28)" style="fill: #1f77b4; fill-opacity: 0.5; stroke: #1f77b4; stroke-opacity: 0.5; stroke-linejoin: miter"/>
     <path d="M 354.66929 100.161625 
L 352.66929 99.161625 
L 352.66929 101.161625 
z
" clip-path="url(#p010ae23c28)" style="fill: #1f77b4; fill-opacity: 0.5; stroke: #1f77b4; stroke-opacity: 0.5; stroke-linejoin: miter"/>
     <path d="M 354.66929 155.939208 
L 352.66929 154.939208 
L 352.66929 156.939208 
z
" clip-path="url(#p010ae23c28)" style="fill: #1f77b4; fill-opacity: 0.5; stroke: #1f77b4; stroke-opacity: 0.5; stroke-linejoin: miter"/>
     <path d="M 354.66929 176.455153 
L 352.66929 175.455153 
L 352.66929 177.455153 
z
" clip-path="url(#p010ae23c28)" style="fill: #1f77b4; fill-opacity: 0.5; stroke: #1f77b4; stroke-opacity: 0.5; stroke-linejoin: miter"/>
     <path d="M 354.66929 176.230602 
L 352.66929 175.230602 
L 352.66929 177.230602 
z
" clip-path="url(#p010ae23c28)" style="fill: #1f77b4; fill-opacity: 0.5; stroke: #1f77b4; stroke-opacity: 0.5; stroke-linejoin: miter"/>
     <path d="M 354.66929 176.285631 
L 352.66929 175.285631 
L 352.66929 177.285631 
z
" clip-path="url(#p010ae23c28)" style="fill: #1f77b4; fill-opacity: 0.5; stroke: #1f77b4; stroke-opacity: 0.5; stroke-linejoin: miter"/>
     <path d="M 354.66929 182.594402 
L 352.66929 181.594402 
L 352.66929 183.594402 
z
" clip-path="url(#p010ae23c28)" style="fill: #1f77b4; fill-opacity: 0.5; stroke: #1f77b4; stroke-opacity: 0.5; stroke-linejoin: miter"/>
     <path d="M 354.66929 160.201301 
L 352.66929 159.201301 
L 352.66929 161.201301 
z
" clip-path="url(#p010ae23c28)" style="fill: #1f77b4; fill-opacity: 0.5; stroke: #1f77b4; stroke-opacity: 0.5; stroke-linejoin: miter"/>
     <path d="M 354.66929 127.102514 
L 352.66929 126.102514 
L 352.66929 128.102514 
z
" clip-path="url(#p010ae23c28)" style="fill: #1f77b4; fill-opacity: 0.5; stroke: #1f77b4; stroke-opacity: 0.5; stroke-linejoin: miter"/>
     <path d="M 354.66929 88.001963 
L 352.66929 87.001963 
L 352.66929 89.001963 
z
" clip-path="url(#p010ae23c28)" style="fill: #1f77b4; fill-opacity: 0.5; stroke: #1f77b4; stroke-opacity: 0.5; stroke-linejoin: miter"/>
     <path d="M 354.66929 212.709207 
L 352.66929 211.709207 
L 352.66929 213.709207 
z
" clip-path="url(#p010ae23c28)" style="fill: #1f77b4; fill-opacity: 0.5; stroke: #1f77b4; stroke-opacity: 0.5; stroke-linejoin: miter"/>
     <path d="M 354.66929 309.298123 
L 352.66929 308.298123 
L 352.66929 310.298123 
z
" clip-path="url(#p010ae23c28)" style="fill: #1f77b4; fill-opacity: 0.5; stroke: #1f77b4; stroke-opacity: 0.5; stroke-linejoin: miter"/>
     <path d="M 354.66929 282.025877 
L 352.66929 281.025877 
L 352.66929 283.025877 
z
" clip-path="url(#p010ae23c28)" style="fill: #1f77b4; fill-opacity: 0.5; stroke: #1f77b4; stroke-opacity: 0.5; stroke-linejoin: miter"/>
     <path d="M 354.66929 227.442682 
L 352.66929 226.442682 
L 352.66929 228.442682 
z
" clip-path="url(#p010ae23c28)" style="fill: #1f77b4; fill-opacity: 0.5; stroke: #1f77b4; stroke-opacity: 0.5; stroke-linejoin: miter"/>
     <path d="M 354.66929 267.994712 
L 352.66929 266.994712 
L 352.66929 268.994712 
z
" clip-path="url(#p010ae23c28)" style="fill: #1f77b4; fill-opacity: 0.5; stroke: #1f77b4; stroke-opacity: 0.5; stroke-linejoin: miter"/>
     <path d="M 354.66929 231.554468 
L 352.66929 230.554468 
L 352.66929 232.554468 
z
" clip-path="url(#p010ae23c28)" style="fill: #1f77b4; fill-opacity: 0.5; stroke: #1f77b4; stroke-opacity: 0.5; stroke-linejoin: miter"/>
     <path d="M 354.66929 281.856845 
L 352.66929 280.856845 
L 352.66929 282.856845 
z
" clip-path="url(#p010ae23c28)" style="fill: #1f77b4; fill-opacity: 0.5; stroke: #1f77b4; stroke-opacity: 0.5; stroke-linejoin: miter"/>
     <path d="M 354.66929 293.15916 
L 352.66929 292.15916 
L 352.66929 294.15916 
z
" clip-path="url(#p010ae23c28)" style="fill: #1f77b4; fill-opacity: 0.5; stroke: #1f77b4; stroke-opacity: 0.5; stroke-linejoin: miter"/>
     <path d="M 354.66929 212.046355 
L 352.66929 211.046355 
L 352.66929 213.046355 
z
" clip-path="url(#p010ae23c28)" style="fill: #1f77b4; fill-opacity: 0.5; stroke: #1f77b4; stroke-opacity: 0.5; stroke-linejoin: miter"/>
     <path d="M 354.66929 254.745621 
L 352.66929 253.745621 
L 352.66929 255.745621 
z
" clip-path="url(#p010ae23c28)" style="fill: #1f77b4; fill-opacity: 0.5; stroke: #1f77b4; stroke-opacity: 0.5; stroke-linejoin: miter"/>
     <g id="patch_5">
      <path d="M 43.78125 318.021875 
L 43.78125 22.318125 
" style="fill: none; stroke: #000000; stroke-width: 0.8; stroke-linejoin: miter; stroke-linecap: square"/>
     </g>
     <g id="text_10">
      <!-- defaults_asymmetric_migration_changing_rate.yaml -->
      <g transform="translate(164.675625 16.318125)scale(0.12 -0.12)">
       <defs>
        <path id="DejaVuSans-66" d="M 2375 4863 
L 2375 4384 
L 1825 4384 
Q 1516 4384 1395 4259 
Q 1275 4134 1275 3809 
L 1275 3500 
L 2222 3500 
L 2222 3053 
L 1275 3053 
L 1275 0 
L 697 0 
L 697 3053 
L 147 3053 
L 147 3500 
L 697 3500 
L 697 3744 
Q 697 4328 969 4595 
Q 1241 4863 1831 4863 
L 2375 4863 
z
" transform="scale(0.015625)"/>
        <path id="DejaVuSans-75" d="M 544 1381 
L 544 3500 
L 1119 3500 
L 1119 1403 
Q 1119 906 1312 657 
Q 1506 409 1894 409 
Q 2359 409 2629 706 
Q 2900 1003 2900 1516 
L 2900 3500 
L 3475 3500 
L 3475 0 
L 2900 0 
L 2900 538 
Q 2691 219 2414 64 
Q 2138 -91 1772 -91 
Q 1169 -91 856 284 
Q 544 659 544 1381 
z
M 1991 3584 
L 1991 3584 
z
" transform="scale(0.015625)"/>
        <path id="DejaVuSans-6c" d="M 603 4863 
L 1178 4863 
L 1178 0 
L 603 0 
L 603 4863 
z
" transform="scale(0.015625)"/>
        <path id="DejaVuSans-5f" d="M 3263 -1063 
L 3263 -1509 
L -63 -1509 
L -63 -1063 
L 3263 -1063 
z
" transform="scale(0.015625)"/>
        <path id="DejaVuSans-79" d="M 2059 -325 
Q 1816 -950 1584 -1140 
Q 1353 -1331 966 -1331 
L 506 -1331 
L 506 -850 
L 844 -850 
Q 1081 -850 1212 -737 
Q 1344 -625 1503 -206 
L 1606 56 
L 191 3500 
L 800 3500 
L 1894 763 
L 2988 3500 
L 3597 3500 
L 2059 -325 
z
" transform="scale(0.015625)"/>
        <path id="DejaVuSans-63" d="M 3122 3366 
L 3122 2828 
Q 2878 2963 2633 3030 
Q 2388 3097 2138 3097 
Q 1578 3097 1268 2742 
Q 959 2388 959 1747 
Q 959 1106 1268 751 
Q 1578 397 2138 397 
Q 2388 397 2633 464 
Q 2878 531 3122 666 
L 3122 134 
Q 2881 22 2623 -34 
Q 2366 -91 2075 -91 
Q 1284 -91 818 406 
Q 353 903 353 1747 
Q 353 2603 823 3093 
Q 1294 3584 2113 3584 
Q 2378 3584 2631 3529 
Q 2884 3475 3122 3366 
z
" transform="scale(0.015625)"/>
        <path id="DejaVuSans-68" d="M 3513 2113 
L 3513 0 
L 2938 0 
L 2938 2094 
Q 2938 2591 2744 2837 
Q 2550 3084 2163 3084 
Q 1697 3084 1428 2787 
Q 1159 2491 1159 1978 
L 1159 0 
L 581 0 
L 581 4863 
L 1159 4863 
L 1159 2956 
Q 1366 3272 1645 3428 
Q 1925 3584 2291 3584 
Q 2894 3584 3203 3211 
Q 3513 2838 3513 2113 
z
" transform="scale(0.015625)"/>
       </defs>
       <use xlink:href="#DejaVuSans-64"/>
       <use xlink:href="#DejaVuSans-65" x="63.476562"/>
       <use xlink:href="#DejaVuSans-66" x="125"/>
       <use xlink:href="#DejaVuSans-61" x="160.205078"/>
       <use xlink:href="#DejaVuSans-75" x="221.484375"/>
       <use xlink:href="#DejaVuSans-6c" x="284.863281"/>
       <use xlink:href="#DejaVuSans-74" x="312.646484"/>
       <use xlink:href="#DejaVuSans-73" x="351.855469"/>
       <use xlink:href="#DejaVuSans-5f" x="403.955078"/>
       <use xlink:href="#DejaVuSans-61" x="453.955078"/>
       <use xlink:href="#DejaVuSans-73" x="515.234375"/>
       <use xlink:href="#DejaVuSans-79" x="567.333984"/>
       <use xlink:href="#DejaVuSans-6d" x="626.513672"/>
       <use xlink:href="#DejaVuSans-6d" x="723.925781"/>
       <use xlink:href="#DejaVuSans-65" x="821.337891"/>
       <use xlink:href="#DejaVuSans-74" x="882.861328"/>
       <use xlink:href="#DejaVuSans-72" x="922.070312"/>
       <use xlink:href="#DejaVuSans-69" x="963.183594"/>
       <use xlink:href="#DejaVuSans-63" x="990.966797"/>
       <use xlink:href="#DejaVuSans-5f" x="1045.947266"/>
       <use xlink:href="#DejaVuSans-6d" x="1095.947266"/>
       <use xlink:href="#DejaVuSans-69" x="1193.359375"/>
       <use xlink:href="#DejaVuSans-67" x="1221.142578"/>
       <use xlink:href="#DejaVuSans-72" x="1284.619141"/>
       <use xlink:href="#DejaVuSans-61" x="1325.732422"/>
       <use xlink:href="#DejaVuSans-74" x="1387.011719"/>
       <use xlink:href="#DejaVuSans-69" x="1426.220703"/>
       <use xlink:href="#DejaVuSans-6f" x="1454.003906"/>
       <use xlink:href="#DejaVuSans-6e" x="1515.185547"/>
       <use xlink:href="#DejaVuSans-5f" x="1578.564453"/>
       <use xlink:href="#DejaVuSans-63" x="1628.564453"/>
       <use xlink:href="#DejaVuSans-68" x="1683.544922"/>
       <use xlink:href="#DejaVuSans-61" x="1746.923828"/>
       <use xlink:href="#DejaVuSans-6e" x="1808.203125"/>
       <use xlink:href="#DejaVuSans-67" x="1871.582031"/>
       <use xlink:href="#DejaVuSans-69" x="1935.058594"/>
       <use xlink:href="#DejaVuSans-6e" x="1962.841797"/>
       <use xlink:href="#DejaVuSans-67" x="2026.220703"/>
       <use xlink:href="#DejaVuSans-5f" x="2089.697266"/>
       <use xlink:href="#DejaVuSans-72" x="2139.697266"/>
       <use xlink:href="#DejaVuSans-61" x="2180.810547"/>
       <use xlink:href="#DejaVuSans-74" x="2242.089844"/>
       <use xlink:href="#DejaVuSans-65" x="2281.298828"/>
       <use xlink:href="#DejaVuSans-2e" x="2342.822266"/>
       <use xlink:href="#DejaVuSans-79" x="2374.609375"/>
       <use xlink:href="#DejaVuSans-61" x="2433.789062"/>
       <use xlink:href="#DejaVuSans-6d" x="2495.068359"/>
       <use xlink:href="#DejaVuSans-6c" x="2592.480469"/>
      </g>
     </g>
    </g>
   </g>
   <defs>
    <clipPath id="p010ae23c28">
     <rect x="43.78125" y="22.318125" width="556.21875" height="295.70375"/>
    </clipPath>
   </defs>
  </g>
 </g>
</svg>
