<?xml version="1.0" encoding="utf-8" standalone="no"?>
<!DOCTYPE svg PUBLIC "-//W3C//DTD SVG 1.1//EN"
  "http://www.w3.org/Graphics/SVG/1.1/DTD/svg11.dtd">
<svg xmlns:xlink="http://www.w3.org/1999/xlink" width="504.8pt" height="280.8pt" viewBox="0 0 504.8 280.8" xmlns="http://www.w3.org/2000/svg" version="1.1">
 <metadata>
  <rdf:RDF xmlns:dc="http://purl.org/dc/elements/1.1/" xmlns:cc="http://creativecommons.org/ns#" xmlns:rdf="http://www.w3.org/1999/02/22-rdf-syntax-ns#">
   <cc:Work>
    <dc:type rdf:resource="http://purl.org/dc/dcmitype/StillImage"/>
    <dc:date>2022-01-10T08:20:54.685375</dc:date>
    <dc:format>image/svg+xml</dc:format>
    <dc:creator>
     <cc:Agent>
      <dc:title>Matplotlib v3.5.1, https://matplotlib.org/</dc:title>
     </cc:Agent>
    </dc:creator>
   </cc:Work>
  </rdf:RDF>
 </metadata>
 <defs>
  <style type="text/css">*{stroke-linejoin: round; stroke-linecap: butt}</style>
 </defs>
 <g id="figure_1">
  <g id="patch_1">
   <path d="M 0 280.8 
L 504.8 280.8 
L 504.8 0 
L 0 0 
L 0 280.8 
z
" style="fill: none"/>
  </g>
  <g id="axes_1">
   <g id="patch_2">
    <path d="M 43.78125 260.421875 
L 497.6 260.421875 
L 497.6 22.318125 
L 43.78125 22.318125 
z
" style="fill: #ffffff"/>
   </g>
   <path d="M 296.618831 110.850164 
L 295.618831 110.818728 
L 294.618831 110.781787 
L 293.618831 110.684041 
L 292.618831 110.651519 
L 291.618831 110.577895 
L 290.618831 110.539329 
L 289.618831 110.503916 
L 288.618831 110.446276 
L 287.618831 110.37589 
L 286.618831 110.323926 
L 285.618831 110.264836 
L 284.618831 110.176515 
L 283.618831 110.130371 
L 282.618831 110.08796 
L 281.618831 110.057467 
L 280.618831 110.031422 
L 279.618831 110.010222 
L 278.618831 109.955921 
L 277.618831 109.927983 
L 276.618831 109.898259 
L 275.618831 109.872864 
L 274.618831 109.861664 
L 273.618831 109.85154 
L 272.618831 109.851744 
L 271.618831 109.861254 
L 270.618831 109.872908 
L 269.618831 109.903937 
L 268.618831 109.915105 
L 267.618831 109.945223 
L 266.618831 110.005 
L 265.618831 110.042191 
L 264.618831 110.081287 
L 263.618831 110.123727 
L 262.618831 110.156492 
L 261.618831 110.223918 
L 260.618831 110.263044 
L 259.618831 110.305719 
L 258.618831 110.376299 
L 257.618831 110.41269 
L 256.618831 110.471093 
L 255.618831 110.582046 
L 254.618831 110.652704 
L 253.618831 110.765644 
L 252.618831 110.811417 
L 251.618831 110.8727 
L 250.618831 110.9212 
L 249.618831 111.002022 
L 248.618831 111.120541 
L 247.618831 111.190752 
L 246.618831 111.274014 
L 244.762419 111.307156 
" clip-path="url(#pd183ce2562)" style="fill: none; stroke: #ff7f0e; stroke-opacity: 0.5; stroke-width: 0.2; stroke-linecap: square"/>
   <path d="M 296.618831 142.387269 
L 295.618831 142.355833 
L 294.618831 142.318893 
L 293.618831 142.221146 
L 292.618831 142.188625 
L 291.618831 142.115 
L 290.618831 142.076434 
L 289.618831 142.041021 
L 288.618831 141.983381 
L 287.618831 141.912995 
L 286.618831 141.861031 
L 285.618831 141.801941 
L 284.618831 141.71362 
L 283.618831 141.667476 
L 282.618831 141.625065 
L 281.618831 141.594572 
L 280.618831 141.568527 
L 279.618831 141.547327 
L 278.618831 141.493026 
L 277.618831 141.465088 
L 276.618831 141.435364 
L 275.618831 141.40997 
L 274.618831 141.398769 
L 273.618831 141.388645 
L 272.618831 141.38885 
L 271.618831 141.39836 
L 270.618831 141.410013 
L 269.618831 141.441042 
L 268.618831 141.45221 
L 267.618831 141.482328 
L 266.618831 141.542105 
L 265.618831 141.579296 
L 264.618831 141.618392 
L 263.618831 141.660832 
L 262.618831 141.693597 
L 261.618831 141.761024 
L 260.618831 141.800149 
L 259.618831 141.842824 
L 258.618831 141.913405 
L 257.618831 141.949795 
L 256.618831 142.008199 
L 255.618831 142.119151 
L 254.618831 142.18981 
L 253.618831 142.302749 
L 252.618831 142.348522 
L 251.618831 142.409806 
L 250.618831 142.458305 
L 249.618831 142.539128 
L 248.618831 142.657646 
L 247.618831 142.727857 
L 246.618831 142.81112 
L 244.762419 142.844261 
" clip-path="url(#pd183ce2562)" style="fill: none; stroke: #ff7f0e; stroke-opacity: 0.5; stroke-width: 0.2; stroke-linecap: square"/>
   <path d="M 296.618831 134.092098 
L 295.618831 134.060662 
L 294.618831 134.023721 
L 293.618831 133.925975 
L 292.618831 133.893453 
L 291.618831 133.819828 
L 290.618831 133.781263 
L 289.618831 133.74585 
L 288.618831 133.68821 
L 287.618831 133.617824 
L 286.618831 133.565859 
L 285.618831 133.50677 
L 284.618831 133.418449 
L 283.618831 133.372304 
L 282.618831 133.329893 
L 281.618831 133.299401 
L 280.618831 133.273356 
L 279.618831 133.252156 
L 278.618831 133.197855 
L 277.618831 133.169917 
L 276.618831 133.140193 
L 275.618831 133.114798 
L 274.618831 133.103598 
L 273.618831 133.093474 
L 272.618831 133.093678 
L 271.618831 133.103188 
L 270.618831 133.114842 
L 269.618831 133.145871 
L 268.618831 133.157039 
L 267.618831 133.187156 
L 266.618831 133.246933 
L 265.618831 133.284125 
L 264.618831 133.323221 
L 263.618831 133.365661 
L 262.618831 133.398426 
L 261.618831 133.465852 
L 260.618831 133.504978 
L 259.618831 133.547653 
L 258.618831 133.618233 
L 257.618831 133.654624 
L 256.618831 133.713027 
L 255.618831 133.82398 
L 254.618831 133.894638 
L 253.618831 134.007578 
L 252.618831 134.053351 
L 251.618831 134.114634 
L 250.618831 134.163133 
L 249.618831 134.243956 
L 248.618831 134.362475 
L 247.618831 134.432686 
L 246.618831 134.515948 
L 244.762419 134.54909 
" clip-path="url(#pd183ce2562)" style="fill: none; stroke: #ff7f0e; stroke-opacity: 0.5; stroke-width: 0.2; stroke-linecap: square"/>
   <path d="M 296.618831 123.128201 
L 295.618831 123.096764 
L 294.618831 123.059824 
L 293.618831 122.962078 
L 292.618831 122.929556 
L 291.618831 122.855931 
L 290.618831 122.817366 
L 289.618831 122.781952 
L 288.618831 122.724313 
L 287.618831 122.653926 
L 286.618831 122.601962 
L 285.618831 122.542872 
L 284.618831 122.454551 
L 283.618831 122.408407 
L 282.618831 122.365996 
L 281.618831 122.335503 
L 280.618831 122.309459 
L 279.618831 122.288258 
L 278.618831 122.233957 
L 277.618831 122.20602 
L 276.618831 122.176296 
L 275.618831 122.150901 
L 274.618831 122.139701 
L 273.618831 122.129577 
L 272.618831 122.129781 
L 271.618831 122.139291 
L 270.618831 122.150944 
L 269.618831 122.181974 
L 268.618831 122.193142 
L 267.618831 122.223259 
L 266.618831 122.283036 
L 265.618831 122.320228 
L 264.618831 122.359324 
L 263.618831 122.401763 
L 262.618831 122.434528 
L 261.618831 122.501955 
L 260.618831 122.541081 
L 259.618831 122.583755 
L 258.618831 122.654336 
L 257.618831 122.690727 
L 256.618831 122.74913 
L 255.618831 122.860083 
L 254.618831 122.930741 
L 253.618831 123.043681 
L 252.618831 123.089454 
L 251.618831 123.150737 
L 250.618831 123.199236 
L 249.618831 123.280059 
L 248.618831 123.398578 
L 247.618831 123.468788 
L 246.618831 123.552051 
L 244.762419 123.585193 
" clip-path="url(#pd183ce2562)" style="fill: none; stroke: #ff7f0e; stroke-opacity: 0.5; stroke-width: 0.2; stroke-linecap: square"/>
   <path d="M 296.618831 127.409014 
L 295.618831 127.377577 
L 294.618831 127.340637 
L 293.618831 127.242891 
L 292.618831 127.210369 
L 291.618831 127.136744 
L 290.618831 127.098179 
L 289.618831 127.062766 
L 288.618831 127.005126 
L 287.618831 126.934739 
L 286.618831 126.882775 
L 285.618831 126.823685 
L 284.618831 126.735364 
L 283.618831 126.68922 
L 282.618831 126.646809 
L 281.618831 126.616317 
L 280.618831 126.590272 
L 279.618831 126.569072 
L 278.618831 126.51477 
L 277.618831 126.486833 
L 276.618831 126.457109 
L 275.618831 126.431714 
L 274.618831 126.420514 
L 273.618831 126.41039 
L 272.618831 126.410594 
L 271.618831 126.420104 
L 270.618831 126.431758 
L 269.618831 126.462787 
L 268.618831 126.473955 
L 267.618831 126.504072 
L 266.618831 126.563849 
L 265.618831 126.601041 
L 264.618831 126.640137 
L 263.618831 126.682576 
L 262.618831 126.715342 
L 261.618831 126.782768 
L 260.618831 126.821894 
L 259.618831 126.864568 
L 258.618831 126.935149 
L 257.618831 126.97154 
L 256.618831 127.029943 
L 255.618831 127.140896 
L 254.618831 127.211554 
L 253.618831 127.324494 
L 252.618831 127.370267 
L 251.618831 127.43155 
L 250.618831 127.480049 
L 249.618831 127.560872 
L 248.618831 127.679391 
L 247.618831 127.749602 
L 246.618831 127.832864 
L 244.762419 127.866006 
" clip-path="url(#pd183ce2562)" style="fill: none; stroke: #ff7f0e; stroke-opacity: 0.5; stroke-width: 0.2; stroke-linecap: square"/>
   <path d="M 296.618831 149.130201 
L 295.618831 149.098765 
L 294.618831 149.061825 
L 293.618831 148.964078 
L 292.618831 148.931556 
L 291.618831 148.857932 
L 290.618831 148.819366 
L 289.618831 148.783953 
L 288.618831 148.726313 
L 287.618831 148.655927 
L 286.618831 148.603963 
L 285.618831 148.544873 
L 284.618831 148.456552 
L 283.618831 148.410408 
L 282.618831 148.367997 
L 281.618831 148.337504 
L 280.618831 148.311459 
L 279.618831 148.290259 
L 278.618831 148.235958 
L 277.618831 148.20802 
L 276.618831 148.178296 
L 275.618831 148.152902 
L 274.618831 148.141701 
L 273.618831 148.131577 
L 272.618831 148.131782 
L 271.618831 148.141291 
L 270.618831 148.152945 
L 269.618831 148.183974 
L 268.618831 148.195142 
L 267.618831 148.22526 
L 266.618831 148.285037 
L 265.618831 148.322228 
L 264.618831 148.361324 
L 263.618831 148.403764 
L 262.618831 148.436529 
L 261.618831 148.503956 
L 260.618831 148.543081 
L 259.618831 148.585756 
L 258.618831 148.656337 
L 257.618831 148.692727 
L 256.618831 148.751131 
L 255.618831 148.862083 
L 254.618831 148.932741 
L 253.618831 149.045681 
L 252.618831 149.091454 
L 251.618831 149.152737 
L 250.618831 149.201237 
L 249.618831 149.282059 
L 248.618831 149.400578 
L 247.618831 149.470789 
L 246.618831 149.554051 
L 244.762419 149.587193 
" clip-path="url(#pd183ce2562)" style="fill: none; stroke: #ff7f0e; stroke-opacity: 0.5; stroke-width: 0.2; stroke-linecap: square"/>
   <path d="M 296.618831 91.65711 
L 295.618831 91.625674 
L 294.618831 91.588734 
L 293.618831 91.490987 
L 292.618831 91.458465 
L 291.618831 91.384841 
L 290.618831 91.346275 
L 289.618831 91.310862 
L 288.618831 91.253222 
L 287.618831 91.182836 
L 286.618831 91.130872 
L 285.618831 91.071782 
L 284.618831 90.983461 
L 283.618831 90.937317 
L 282.618831 90.894906 
L 281.618831 90.864413 
L 280.618831 90.838368 
L 279.618831 90.817168 
L 278.618831 90.762867 
L 277.618831 90.734929 
L 276.618831 90.705205 
L 275.618831 90.679811 
L 274.618831 90.66861 
L 273.618831 90.658486 
L 272.618831 90.658691 
L 271.618831 90.6682 
L 270.618831 90.679854 
L 269.618831 90.710883 
L 268.618831 90.722051 
L 267.618831 90.752169 
L 266.618831 90.811946 
L 265.618831 90.849137 
L 264.618831 90.888233 
L 263.618831 90.930673 
L 262.618831 90.963438 
L 261.618831 91.030865 
L 260.618831 91.06999 
L 259.618831 91.112665 
L 258.618831 91.183246 
L 257.618831 91.219636 
L 256.618831 91.27804 
L 255.618831 91.388992 
L 254.618831 91.459651 
L 253.618831 91.57259 
L 252.618831 91.618363 
L 251.618831 91.679646 
L 250.618831 91.728146 
L 249.618831 91.808968 
L 248.618831 91.927487 
L 247.618831 91.997698 
L 246.618831 92.08096 
L 244.762419 92.114102 
" clip-path="url(#pd183ce2562)" style="fill: none; stroke: #ff7f0e; stroke-opacity: 0.5; stroke-width: 0.2; stroke-linecap: square"/>
   <path d="M 296.618831 82.18315 
L 295.618831 82.151714 
L 294.618831 82.114774 
L 293.618831 82.017027 
L 292.618831 81.984506 
L 291.618831 81.910881 
L 290.618831 81.872315 
L 289.618831 81.836902 
L 288.618831 81.779262 
L 287.618831 81.708876 
L 286.618831 81.656912 
L 285.618831 81.597822 
L 284.618831 81.509501 
L 283.618831 81.463357 
L 282.618831 81.420946 
L 281.618831 81.390453 
L 280.618831 81.364408 
L 279.618831 81.343208 
L 278.618831 81.288907 
L 277.618831 81.260969 
L 276.618831 81.231245 
L 275.618831 81.205851 
L 274.618831 81.19465 
L 273.618831 81.184526 
L 272.618831 81.184731 
L 271.618831 81.194241 
L 270.618831 81.205894 
L 269.618831 81.236923 
L 268.618831 81.248091 
L 267.618831 81.278209 
L 266.618831 81.337986 
L 265.618831 81.375177 
L 264.618831 81.414273 
L 263.618831 81.456713 
L 262.618831 81.489478 
L 261.618831 81.556905 
L 260.618831 81.596031 
L 259.618831 81.638705 
L 258.618831 81.709286 
L 257.618831 81.745677 
L 256.618831 81.80408 
L 255.618831 81.915032 
L 254.618831 81.985691 
L 253.618831 82.09863 
L 252.618831 82.144403 
L 251.618831 82.205687 
L 250.618831 82.254186 
L 249.618831 82.335009 
L 248.618831 82.453527 
L 247.618831 82.523738 
L 246.618831 82.607001 
L 244.762419 82.640142 
" clip-path="url(#pd183ce2562)" style="fill: none; stroke: #ff7f0e; stroke-opacity: 0.5; stroke-width: 0.2; stroke-linecap: square"/>
   <path d="M 296.618831 132.00015 
L 295.618831 131.968714 
L 294.618831 131.931774 
L 293.618831 131.834027 
L 292.618831 131.801506 
L 291.618831 131.727881 
L 290.618831 131.689315 
L 289.618831 131.653902 
L 288.618831 131.596262 
L 287.618831 131.525876 
L 286.618831 131.473912 
L 285.618831 131.414822 
L 284.618831 131.326501 
L 283.618831 131.280357 
L 282.618831 131.237946 
L 281.618831 131.207453 
L 280.618831 131.181408 
L 279.618831 131.160208 
L 278.618831 131.105907 
L 277.618831 131.077969 
L 276.618831 131.048245 
L 275.618831 131.022851 
L 274.618831 131.01165 
L 273.618831 131.001526 
L 272.618831 131.001731 
L 271.618831 131.01124 
L 270.618831 131.022894 
L 269.618831 131.053923 
L 268.618831 131.065091 
L 267.618831 131.095209 
L 266.618831 131.154986 
L 265.618831 131.192177 
L 264.618831 131.231273 
L 263.618831 131.273713 
L 262.618831 131.306478 
L 261.618831 131.373905 
L 260.618831 131.41303 
L 259.618831 131.455705 
L 258.618831 131.526286 
L 257.618831 131.562676 
L 256.618831 131.62108 
L 255.618831 131.732032 
L 254.618831 131.802691 
L 253.618831 131.91563 
L 252.618831 131.961403 
L 251.618831 132.022686 
L 250.618831 132.071186 
L 249.618831 132.152009 
L 248.618831 132.270527 
L 247.618831 132.340738 
L 246.618831 132.424001 
L 244.762419 132.457142 
" clip-path="url(#pd183ce2562)" style="fill: none; stroke: #ff7f0e; stroke-opacity: 0.5; stroke-width: 0.2; stroke-linecap: square"/>
   <path d="M 296.618831 127.039995 
L 295.618831 127.008559 
L 294.618831 126.971618 
L 293.618831 126.873872 
L 292.618831 126.84135 
L 291.618831 126.767726 
L 290.618831 126.72916 
L 289.618831 126.693747 
L 288.618831 126.636107 
L 287.618831 126.565721 
L 286.618831 126.513757 
L 285.618831 126.454667 
L 284.618831 126.366346 
L 283.618831 126.320202 
L 282.618831 126.277791 
L 281.618831 126.247298 
L 280.618831 126.221253 
L 279.618831 126.200053 
L 278.618831 126.145752 
L 277.618831 126.117814 
L 276.618831 126.08809 
L 275.618831 126.062695 
L 274.618831 126.051495 
L 273.618831 126.041371 
L 272.618831 126.041575 
L 271.618831 126.051085 
L 270.618831 126.062739 
L 269.618831 126.093768 
L 268.618831 126.104936 
L 267.618831 126.135054 
L 266.618831 126.194831 
L 265.618831 126.232022 
L 264.618831 126.271118 
L 263.618831 126.313558 
L 262.618831 126.346323 
L 261.618831 126.413749 
L 260.618831 126.452875 
L 259.618831 126.49555 
L 258.618831 126.56613 
L 257.618831 126.602521 
L 256.618831 126.660924 
L 255.618831 126.771877 
L 254.618831 126.842535 
L 253.618831 126.955475 
L 252.618831 127.001248 
L 251.618831 127.062531 
L 250.618831 127.111031 
L 249.618831 127.191853 
L 248.618831 127.310372 
L 247.618831 127.380583 
L 246.618831 127.463845 
L 244.762419 127.496987 
" clip-path="url(#pd183ce2562)" style="fill: none; stroke: #ff7f0e; stroke-opacity: 0.5; stroke-width: 0.2; stroke-linecap: square"/>
   <path d="M 244.762419 146.951785 
L 245.762419 146.983222 
L 246.762419 147.020162 
L 247.762419 147.117909 
L 248.762419 147.15043 
L 249.762419 147.224055 
L 250.762419 147.26262 
L 251.762419 147.298034 
L 252.762419 147.355674 
L 253.762419 147.42606 
L 254.762419 147.478024 
L 255.762419 147.537114 
L 256.762419 147.625435 
L 257.762419 147.671579 
L 258.762419 147.71399 
L 259.762419 147.744483 
L 260.762419 147.770528 
L 261.762419 147.791728 
L 262.762419 147.846029 
L 263.762419 147.873966 
L 264.762419 147.90369 
L 265.762419 147.929085 
L 266.762419 147.940285 
L 267.762419 147.950409 
L 268.762419 147.950205 
L 269.762419 147.940695 
L 270.762419 147.929042 
L 271.762419 147.898012 
L 272.762419 147.886844 
L 273.762419 147.856727 
L 274.762419 147.79695 
L 275.762419 147.759758 
L 276.762419 147.720662 
L 277.762419 147.678223 
L 278.762419 147.645458 
L 279.762419 147.578031 
L 280.762419 147.538905 
L 281.762419 147.496231 
L 282.762419 147.42565 
L 283.762419 147.389259 
L 284.762419 147.330856 
L 285.762419 147.219903 
L 286.762419 147.149245 
L 287.762419 147.036305 
L 288.762419 146.990532 
L 289.762419 146.929249 
L 290.762419 146.88075 
L 291.762419 146.799927 
L 292.762419 146.681408 
L 293.762419 146.611198 
L 294.762419 146.527935 
L 296.618831 146.494793 
" clip-path="url(#pd183ce2562)" style="fill: none; stroke: #1f77b4; stroke-opacity: 0.5; stroke-width: 0.2; stroke-linecap: square"/>
   <path d="M 244.762419 102.288217 
L 245.762419 102.319653 
L 246.762419 102.356594 
L 247.762419 102.45434 
L 248.762419 102.486862 
L 249.762419 102.560486 
L 250.762419 102.599052 
L 251.762419 102.634465 
L 252.762419 102.692105 
L 253.762419 102.762491 
L 254.762419 102.814455 
L 255.762419 102.873545 
L 256.762419 102.961866 
L 257.762419 103.008011 
L 258.762419 103.050421 
L 259.762419 103.080914 
L 260.762419 103.106959 
L 261.762419 103.128159 
L 262.762419 103.18246 
L 263.762419 103.210398 
L 264.762419 103.240122 
L 265.762419 103.265517 
L 266.762419 103.276717 
L 267.762419 103.286841 
L 268.762419 103.286637 
L 269.762419 103.277127 
L 270.762419 103.265473 
L 271.762419 103.234444 
L 272.762419 103.223276 
L 273.762419 103.193158 
L 274.762419 103.133382 
L 275.762419 103.09619 
L 276.762419 103.057094 
L 277.762419 103.014654 
L 278.762419 102.981889 
L 279.762419 102.914463 
L 280.762419 102.875337 
L 281.762419 102.832662 
L 282.762419 102.762082 
L 283.762419 102.725691 
L 284.762419 102.667288 
L 285.762419 102.556335 
L 286.762419 102.485677 
L 287.762419 102.372737 
L 288.762419 102.326964 
L 289.762419 102.265681 
L 290.762419 102.217181 
L 291.762419 102.136359 
L 292.762419 102.01784 
L 293.762419 101.947629 
L 294.762419 101.864367 
L 296.618831 101.831225 
" clip-path="url(#pd183ce2562)" style="fill: none; stroke: #1f77b4; stroke-opacity: 0.5; stroke-width: 0.2; stroke-linecap: square"/>
   <path d="M 244.762419 148.91372 
L 245.762419 148.945157 
L 246.762419 148.982097 
L 247.762419 149.079844 
L 248.762419 149.112365 
L 249.762419 149.18599 
L 250.762419 149.224556 
L 251.762419 149.259969 
L 252.762419 149.317609 
L 253.762419 149.387995 
L 254.762419 149.439959 
L 255.762419 149.499049 
L 256.762419 149.58737 
L 257.762419 149.633514 
L 258.762419 149.675925 
L 259.762419 149.706418 
L 260.762419 149.732463 
L 261.762419 149.753663 
L 262.762419 149.807964 
L 263.762419 149.835901 
L 264.762419 149.865625 
L 265.762419 149.89102 
L 266.762419 149.902221 
L 267.762419 149.912345 
L 268.762419 149.91214 
L 269.762419 149.90263 
L 270.762419 149.890977 
L 271.762419 149.859948 
L 272.762419 149.84878 
L 273.762419 149.818662 
L 274.762419 149.758885 
L 275.762419 149.721694 
L 276.762419 149.682598 
L 277.762419 149.640158 
L 278.762419 149.607393 
L 279.762419 149.539966 
L 280.762419 149.50084 
L 281.762419 149.458166 
L 282.762419 149.387585 
L 283.762419 149.351194 
L 284.762419 149.292791 
L 285.762419 149.181839 
L 286.762419 149.11118 
L 287.762419 148.998241 
L 288.762419 148.952468 
L 289.762419 148.891184 
L 290.762419 148.842685 
L 291.762419 148.761862 
L 292.762419 148.643343 
L 293.762419 148.573133 
L 294.762419 148.48987 
L 296.618831 148.456729 
" clip-path="url(#pd183ce2562)" style="fill: none; stroke: #1f77b4; stroke-opacity: 0.5; stroke-width: 0.2; stroke-linecap: square"/>
   <path d="M 244.762419 89.675789 
L 245.762419 89.707226 
L 246.762419 89.744166 
L 247.762419 89.841913 
L 248.762419 89.874434 
L 249.762419 89.948059 
L 250.762419 89.986625 
L 251.762419 90.022038 
L 252.762419 90.079678 
L 253.762419 90.150064 
L 254.762419 90.202028 
L 255.762419 90.261118 
L 256.762419 90.349439 
L 257.762419 90.395583 
L 258.762419 90.437994 
L 259.762419 90.468487 
L 260.762419 90.494532 
L 261.762419 90.515732 
L 262.762419 90.570033 
L 263.762419 90.597971 
L 264.762419 90.627694 
L 265.762419 90.653089 
L 266.762419 90.66429 
L 267.762419 90.674414 
L 268.762419 90.674209 
L 269.762419 90.664699 
L 270.762419 90.653046 
L 271.762419 90.622017 
L 272.762419 90.610849 
L 273.762419 90.580731 
L 274.762419 90.520954 
L 275.762419 90.483763 
L 276.762419 90.444667 
L 277.762419 90.402227 
L 278.762419 90.369462 
L 279.762419 90.302035 
L 280.762419 90.262909 
L 281.762419 90.220235 
L 282.762419 90.149654 
L 283.762419 90.113263 
L 284.762419 90.05486 
L 285.762419 89.943908 
L 286.762419 89.873249 
L 287.762419 89.76031 
L 288.762419 89.714537 
L 289.762419 89.653253 
L 290.762419 89.604754 
L 291.762419 89.523931 
L 292.762419 89.405412 
L 293.762419 89.335202 
L 294.762419 89.251939 
L 296.618831 89.218798 
" clip-path="url(#pd183ce2562)" style="fill: none; stroke: #1f77b4; stroke-opacity: 0.5; stroke-width: 0.2; stroke-linecap: square"/>
   <path d="M 244.762419 88.865871 
L 245.762419 88.897307 
L 246.762419 88.934248 
L 247.762419 89.031994 
L 248.762419 89.064516 
L 249.762419 89.13814 
L 250.762419 89.176706 
L 251.762419 89.212119 
L 252.762419 89.269759 
L 253.762419 89.340145 
L 254.762419 89.392109 
L 255.762419 89.451199 
L 256.762419 89.53952 
L 257.762419 89.585665 
L 258.762419 89.628075 
L 259.762419 89.658568 
L 260.762419 89.684613 
L 261.762419 89.705813 
L 262.762419 89.760114 
L 263.762419 89.788052 
L 264.762419 89.817776 
L 265.762419 89.843171 
L 266.762419 89.854371 
L 267.762419 89.864495 
L 268.762419 89.864291 
L 269.762419 89.854781 
L 270.762419 89.843127 
L 271.762419 89.812098 
L 272.762419 89.80093 
L 273.762419 89.770812 
L 274.762419 89.711036 
L 275.762419 89.673844 
L 276.762419 89.634748 
L 277.762419 89.592308 
L 278.762419 89.559543 
L 279.762419 89.492117 
L 280.762419 89.452991 
L 281.762419 89.410316 
L 282.762419 89.339736 
L 283.762419 89.303345 
L 284.762419 89.244942 
L 285.762419 89.133989 
L 286.762419 89.063331 
L 287.762419 88.950391 
L 288.762419 88.904618 
L 289.762419 88.843335 
L 290.762419 88.794835 
L 291.762419 88.714013 
L 292.762419 88.595494 
L 293.762419 88.525283 
L 294.762419 88.442021 
L 296.618831 88.408879 
" clip-path="url(#pd183ce2562)" style="fill: none; stroke: #1f77b4; stroke-opacity: 0.5; stroke-width: 0.2; stroke-linecap: square"/>
   <path d="M 244.762419 141.983053 
L 245.762419 142.014489 
L 246.762419 142.05143 
L 247.762419 142.149176 
L 248.762419 142.181698 
L 249.762419 142.255323 
L 250.762419 142.293888 
L 251.762419 142.329301 
L 252.762419 142.386941 
L 253.762419 142.457328 
L 254.762419 142.509292 
L 255.762419 142.568382 
L 256.762419 142.656702 
L 257.762419 142.702847 
L 258.762419 142.745258 
L 259.762419 142.77575 
L 260.762419 142.801795 
L 261.762419 142.822995 
L 262.762419 142.877297 
L 263.762419 142.905234 
L 264.762419 142.934958 
L 265.762419 142.960353 
L 266.762419 142.971553 
L 267.762419 142.981677 
L 268.762419 142.981473 
L 269.762419 142.971963 
L 270.762419 142.960309 
L 271.762419 142.92928 
L 272.762419 142.918112 
L 273.762419 142.887995 
L 274.762419 142.828218 
L 275.762419 142.791026 
L 276.762419 142.75193 
L 277.762419 142.709491 
L 278.762419 142.676725 
L 279.762419 142.609299 
L 280.762419 142.570173 
L 281.762419 142.527499 
L 282.762419 142.456918 
L 283.762419 142.420527 
L 284.762419 142.362124 
L 285.762419 142.251171 
L 286.762419 142.180513 
L 287.762419 142.067573 
L 288.762419 142.0218 
L 289.762419 141.960517 
L 290.762419 141.912018 
L 291.762419 141.831195 
L 292.762419 141.712676 
L 293.762419 141.642465 
L 294.762419 141.559203 
L 296.618831 141.526061 
" clip-path="url(#pd183ce2562)" style="fill: none; stroke: #1f77b4; stroke-opacity: 0.5; stroke-width: 0.2; stroke-linecap: square"/>
   <path d="M 244.762419 99.802016 
L 245.762419 99.833453 
L 246.762419 99.870393 
L 247.762419 99.968139 
L 248.762419 100.000661 
L 249.762419 100.074286 
L 250.762419 100.112851 
L 251.762419 100.148264 
L 252.762419 100.205904 
L 253.762419 100.276291 
L 254.762419 100.328255 
L 255.762419 100.387345 
L 256.762419 100.475666 
L 257.762419 100.52181 
L 258.762419 100.564221 
L 259.762419 100.594713 
L 260.762419 100.620758 
L 261.762419 100.641958 
L 262.762419 100.69626 
L 263.762419 100.724197 
L 264.762419 100.753921 
L 265.762419 100.779316 
L 266.762419 100.790516 
L 267.762419 100.80064 
L 268.762419 100.800436 
L 269.762419 100.790926 
L 270.762419 100.779273 
L 271.762419 100.748243 
L 272.762419 100.737075 
L 273.762419 100.706958 
L 274.762419 100.647181 
L 275.762419 100.609989 
L 276.762419 100.570893 
L 277.762419 100.528454 
L 278.762419 100.495688 
L 279.762419 100.428262 
L 280.762419 100.389136 
L 281.762419 100.346462 
L 282.762419 100.275881 
L 283.762419 100.23949 
L 284.762419 100.181087 
L 285.762419 100.070134 
L 286.762419 99.999476 
L 287.762419 99.886536 
L 288.762419 99.840763 
L 289.762419 99.77948 
L 290.762419 99.730981 
L 291.762419 99.650158 
L 292.762419 99.531639 
L 293.762419 99.461429 
L 294.762419 99.378166 
L 296.618831 99.345024 
" clip-path="url(#pd183ce2562)" style="fill: none; stroke: #1f77b4; stroke-opacity: 0.5; stroke-width: 0.2; stroke-linecap: square"/>
   <path d="M 244.762419 161.720999 
L 245.762419 161.752435 
L 246.762419 161.789375 
L 247.762419 161.887122 
L 248.762419 161.919644 
L 249.762419 161.993268 
L 250.762419 162.031834 
L 251.762419 162.067247 
L 252.762419 162.124887 
L 253.762419 162.195273 
L 254.762419 162.247237 
L 255.762419 162.306327 
L 256.762419 162.394648 
L 257.762419 162.440792 
L 258.762419 162.483203 
L 259.762419 162.513696 
L 260.762419 162.539741 
L 261.762419 162.560941 
L 262.762419 162.615242 
L 263.762419 162.64318 
L 264.762419 162.672904 
L 265.762419 162.698298 
L 266.762419 162.709499 
L 267.762419 162.719623 
L 268.762419 162.719418 
L 269.762419 162.709909 
L 270.762419 162.698255 
L 271.762419 162.667226 
L 272.762419 162.656058 
L 273.762419 162.62594 
L 274.762419 162.566163 
L 275.762419 162.528972 
L 276.762419 162.489876 
L 277.762419 162.447436 
L 278.762419 162.414671 
L 279.762419 162.347244 
L 280.762419 162.308119 
L 281.762419 162.265444 
L 282.762419 162.194863 
L 283.762419 162.158473 
L 284.762419 162.100069 
L 285.762419 161.989117 
L 286.762419 161.918458 
L 287.762419 161.805519 
L 288.762419 161.759746 
L 289.762419 161.698463 
L 290.762419 161.649963 
L 291.762419 161.569141 
L 292.762419 161.450622 
L 293.762419 161.380411 
L 294.762419 161.297149 
L 296.618831 161.264007 
" clip-path="url(#pd183ce2562)" style="fill: none; stroke: #1f77b4; stroke-opacity: 0.5; stroke-width: 0.2; stroke-linecap: square"/>
   <path d="M 244.762419 78.856905 
L 245.762419 78.888342 
L 246.762419 78.925282 
L 247.762419 79.023029 
L 248.762419 79.05555 
L 249.762419 79.129175 
L 250.762419 79.167741 
L 251.762419 79.203154 
L 252.762419 79.260794 
L 253.762419 79.33118 
L 254.762419 79.383144 
L 255.762419 79.442234 
L 256.762419 79.530555 
L 257.762419 79.576699 
L 258.762419 79.61911 
L 259.762419 79.649603 
L 260.762419 79.675648 
L 261.762419 79.696848 
L 262.762419 79.751149 
L 263.762419 79.779086 
L 264.762419 79.80881 
L 265.762419 79.834205 
L 266.762419 79.845406 
L 267.762419 79.85553 
L 268.762419 79.855325 
L 269.762419 79.845815 
L 270.762419 79.834162 
L 271.762419 79.803132 
L 272.762419 79.791965 
L 273.762419 79.761847 
L 274.762419 79.70207 
L 275.762419 79.664879 
L 276.762419 79.625782 
L 277.762419 79.583343 
L 278.762419 79.550578 
L 279.762419 79.483151 
L 280.762419 79.444025 
L 281.762419 79.401351 
L 282.762419 79.33077 
L 283.762419 79.294379 
L 284.762419 79.235976 
L 285.762419 79.125024 
L 286.762419 79.054365 
L 287.762419 78.941425 
L 288.762419 78.895653 
L 289.762419 78.834369 
L 290.762419 78.78587 
L 291.762419 78.705047 
L 292.762419 78.586528 
L 293.762419 78.516318 
L 294.762419 78.433055 
L 296.618831 78.399914 
" clip-path="url(#pd183ce2562)" style="fill: none; stroke: #1f77b4; stroke-opacity: 0.5; stroke-width: 0.2; stroke-linecap: square"/>
   <path d="M 244.762419 89.916641 
L 245.762419 89.948077 
L 246.762419 89.985018 
L 247.762419 90.082764 
L 248.762419 90.115286 
L 249.762419 90.188911 
L 250.762419 90.227476 
L 251.762419 90.262889 
L 252.762419 90.320529 
L 253.762419 90.390915 
L 254.762419 90.44288 
L 255.762419 90.501969 
L 256.762419 90.59029 
L 257.762419 90.636435 
L 258.762419 90.678846 
L 259.762419 90.709338 
L 260.762419 90.735383 
L 261.762419 90.756583 
L 262.762419 90.810884 
L 263.762419 90.838822 
L 264.762419 90.868546 
L 265.762419 90.893941 
L 266.762419 90.905141 
L 267.762419 90.915265 
L 268.762419 90.915061 
L 269.762419 90.905551 
L 270.762419 90.893897 
L 271.762419 90.862868 
L 272.762419 90.8517 
L 273.762419 90.821583 
L 274.762419 90.761806 
L 275.762419 90.724614 
L 276.762419 90.685518 
L 277.762419 90.643078 
L 278.762419 90.610313 
L 279.762419 90.542887 
L 280.762419 90.503761 
L 281.762419 90.461086 
L 282.762419 90.390506 
L 283.762419 90.354115 
L 284.762419 90.295712 
L 285.762419 90.184759 
L 286.762419 90.114101 
L 287.762419 90.001161 
L 288.762419 89.955388 
L 289.762419 89.894105 
L 290.762419 89.845606 
L 291.762419 89.764783 
L 292.762419 89.646264 
L 293.762419 89.576053 
L 294.762419 89.492791 
L 296.618831 89.459649 
" clip-path="url(#pd183ce2562)" style="fill: none; stroke: #1f77b4; stroke-opacity: 0.5; stroke-width: 0.2; stroke-linecap: square"/>
   <path d="M 296.618831 219.594299 
L 295.618831 219.562863 
L 294.618831 219.525923 
L 293.618831 219.428176 
L 292.618831 219.395654 
L 291.618831 219.32203 
L 290.618831 219.283464 
L 289.618831 219.248051 
L 288.618831 219.190411 
L 287.618831 219.120025 
L 286.618831 219.068061 
L 285.618831 219.008971 
L 284.618831 218.92065 
L 283.618831 218.874506 
L 282.618831 218.832095 
L 281.618831 218.801602 
L 280.618831 218.775557 
L 279.618831 218.754357 
L 278.618831 218.700056 
L 277.618831 218.672118 
L 276.618831 218.642394 
L 275.618831 218.617 
L 274.618831 218.605799 
L 273.618831 218.595675 
L 272.618831 218.595879 
L 271.618831 218.605389 
L 270.618831 218.617043 
L 269.618831 218.648072 
L 268.618831 218.65924 
L 267.618831 218.689358 
L 266.618831 218.749135 
L 265.618831 218.786326 
L 264.618831 218.825422 
L 263.618831 218.867862 
L 262.618831 218.900627 
L 261.618831 218.968053 
L 260.618831 219.007179 
L 259.618831 219.049854 
L 258.618831 219.120434 
L 257.618831 219.156825 
L 256.618831 219.215229 
L 255.618831 219.326181 
L 254.618831 219.396839 
L 253.618831 219.509779 
L 252.618831 219.555552 
L 251.618831 219.616835 
L 250.618831 219.665335 
L 249.618831 219.746157 
L 248.618831 219.864676 
L 247.618831 219.934887 
L 246.618831 220.018149 
L 244.762419 220.051291 
" clip-path="url(#pd183ce2562)" style="fill: none; stroke: #ff7f0e; stroke-opacity: 0.5; stroke-width: 0.2; stroke-linecap: square"/>
   <path d="M 296.618831 242.364154 
L 295.618831 242.332718 
L 294.618831 242.295777 
L 293.618831 242.198031 
L 292.618831 242.165509 
L 291.618831 242.091885 
L 290.618831 242.053319 
L 289.618831 242.017906 
L 288.618831 241.960266 
L 287.618831 241.88988 
L 286.618831 241.837916 
L 285.618831 241.778826 
L 284.618831 241.690505 
L 283.618831 241.644361 
L 282.618831 241.60195 
L 281.618831 241.571457 
L 280.618831 241.545412 
L 279.618831 241.524212 
L 278.618831 241.469911 
L 277.618831 241.441973 
L 276.618831 241.412249 
L 275.618831 241.386854 
L 274.618831 241.375654 
L 273.618831 241.36553 
L 272.618831 241.365734 
L 271.618831 241.375244 
L 270.618831 241.386898 
L 269.618831 241.417927 
L 268.618831 241.429095 
L 267.618831 241.459213 
L 266.618831 241.51899 
L 265.618831 241.556181 
L 264.618831 241.595277 
L 263.618831 241.637717 
L 262.618831 241.670482 
L 261.618831 241.737908 
L 260.618831 241.777034 
L 259.618831 241.819709 
L 258.618831 241.890289 
L 257.618831 241.92668 
L 256.618831 241.985083 
L 255.618831 242.096036 
L 254.618831 242.166694 
L 253.618831 242.279634 
L 252.618831 242.325407 
L 251.618831 242.38669 
L 250.618831 242.43519 
L 249.618831 242.516012 
L 248.618831 242.634531 
L 247.618831 242.704742 
L 246.618831 242.788004 
L 244.762419 242.821146 
" clip-path="url(#pd183ce2562)" style="fill: none; stroke: #ff7f0e; stroke-opacity: 0.5; stroke-width: 0.2; stroke-linecap: square"/>
   <path d="M 296.618831 191.180643 
L 295.618831 191.149207 
L 294.618831 191.112267 
L 293.618831 191.01452 
L 292.618831 190.981999 
L 291.618831 190.908374 
L 290.618831 190.869808 
L 289.618831 190.834395 
L 288.618831 190.776755 
L 287.618831 190.706369 
L 286.618831 190.654405 
L 285.618831 190.595315 
L 284.618831 190.506994 
L 283.618831 190.46085 
L 282.618831 190.418439 
L 281.618831 190.387946 
L 280.618831 190.361901 
L 279.618831 190.340701 
L 278.618831 190.2864 
L 277.618831 190.258462 
L 276.618831 190.228738 
L 275.618831 190.203344 
L 274.618831 190.192143 
L 273.618831 190.182019 
L 272.618831 190.182224 
L 271.618831 190.191733 
L 270.618831 190.203387 
L 269.618831 190.234416 
L 268.618831 190.245584 
L 267.618831 190.275702 
L 266.618831 190.335479 
L 265.618831 190.37267 
L 264.618831 190.411766 
L 263.618831 190.454206 
L 262.618831 190.486971 
L 261.618831 190.554398 
L 260.618831 190.593523 
L 259.618831 190.636198 
L 258.618831 190.706779 
L 257.618831 190.743169 
L 256.618831 190.801573 
L 255.618831 190.912525 
L 254.618831 190.983184 
L 253.618831 191.096123 
L 252.618831 191.141896 
L 251.618831 191.203179 
L 250.618831 191.251679 
L 249.618831 191.332501 
L 248.618831 191.45102 
L 247.618831 191.521231 
L 246.618831 191.604494 
L 244.762419 191.637635 
" clip-path="url(#pd183ce2562)" style="fill: none; stroke: #ff7f0e; stroke-opacity: 0.5; stroke-width: 0.2; stroke-linecap: square"/>
   <path d="M 296.618831 239.78272 
L 295.618831 239.751284 
L 294.618831 239.714344 
L 293.618831 239.616597 
L 292.618831 239.584075 
L 291.618831 239.510451 
L 290.618831 239.471885 
L 289.618831 239.436472 
L 288.618831 239.378832 
L 287.618831 239.308446 
L 286.618831 239.256482 
L 285.618831 239.197392 
L 284.618831 239.109071 
L 283.618831 239.062927 
L 282.618831 239.020516 
L 281.618831 238.990023 
L 280.618831 238.963978 
L 279.618831 238.942778 
L 278.618831 238.888477 
L 277.618831 238.860539 
L 276.618831 238.830815 
L 275.618831 238.805421 
L 274.618831 238.79422 
L 273.618831 238.784096 
L 272.618831 238.784301 
L 271.618831 238.79381 
L 270.618831 238.805464 
L 269.618831 238.836493 
L 268.618831 238.847661 
L 267.618831 238.877779 
L 266.618831 238.937556 
L 265.618831 238.974747 
L 264.618831 239.013843 
L 263.618831 239.056283 
L 262.618831 239.089048 
L 261.618831 239.156474 
L 260.618831 239.1956 
L 259.618831 239.238275 
L 258.618831 239.308856 
L 257.618831 239.345246 
L 256.618831 239.40365 
L 255.618831 239.514602 
L 254.618831 239.58526 
L 253.618831 239.6982 
L 252.618831 239.743973 
L 251.618831 239.805256 
L 250.618831 239.853756 
L 249.618831 239.934578 
L 248.618831 240.053097 
L 247.618831 240.123308 
L 246.618831 240.20657 
L 244.762419 240.239712 
" clip-path="url(#pd183ce2562)" style="fill: none; stroke: #ff7f0e; stroke-opacity: 0.5; stroke-width: 0.2; stroke-linecap: square"/>
   <path d="M 296.618831 258.762043 
L 295.618831 258.730606 
L 294.618831 258.693666 
L 293.618831 258.59592 
L 292.618831 258.563398 
L 291.618831 258.489773 
L 290.618831 258.451208 
L 289.618831 258.415795 
L 288.618831 258.358155 
L 287.618831 258.287768 
L 286.618831 258.235804 
L 285.618831 258.176714 
L 284.618831 258.088393 
L 283.618831 258.042249 
L 282.618831 257.999838 
L 281.618831 257.969346 
L 280.618831 257.943301 
L 279.618831 257.922101 
L 278.618831 257.867799 
L 277.618831 257.839862 
L 276.618831 257.810138 
L 275.618831 257.784743 
L 274.618831 257.773543 
L 273.618831 257.763419 
L 272.618831 257.763623 
L 271.618831 257.773133 
L 270.618831 257.784786 
L 269.618831 257.815816 
L 268.618831 257.826984 
L 267.618831 257.857101 
L 266.618831 257.916878 
L 265.618831 257.95407 
L 264.618831 257.993166 
L 263.618831 258.035605 
L 262.618831 258.068371 
L 261.618831 258.135797 
L 260.618831 258.174923 
L 259.618831 258.217597 
L 258.618831 258.288178 
L 257.618831 258.324569 
L 256.618831 258.382972 
L 255.618831 258.493925 
L 254.618831 258.564583 
L 253.618831 258.677523 
L 252.618831 258.723296 
L 251.618831 258.784579 
L 250.618831 258.833078 
L 249.618831 258.913901 
L 248.618831 259.03242 
L 247.618831 259.10263 
L 246.618831 259.185893 
L 244.762419 259.219035 
" clip-path="url(#pd183ce2562)" style="fill: none; stroke: #ff7f0e; stroke-opacity: 0.5; stroke-width: 0.2; stroke-linecap: square"/>
   <path d="M 296.618831 236.355113 
L 295.618831 236.323676 
L 294.618831 236.286736 
L 293.618831 236.188989 
L 292.618831 236.156468 
L 291.618831 236.082843 
L 290.618831 236.044277 
L 289.618831 236.008864 
L 288.618831 235.951224 
L 287.618831 235.880838 
L 286.618831 235.828874 
L 285.618831 235.769784 
L 284.618831 235.681463 
L 283.618831 235.635319 
L 282.618831 235.592908 
L 281.618831 235.562415 
L 280.618831 235.53637 
L 279.618831 235.51517 
L 278.618831 235.460869 
L 277.618831 235.432932 
L 276.618831 235.403208 
L 275.618831 235.377813 
L 274.618831 235.366612 
L 273.618831 235.356488 
L 272.618831 235.356693 
L 271.618831 235.366203 
L 270.618831 235.377856 
L 269.618831 235.408886 
L 268.618831 235.420053 
L 267.618831 235.450171 
L 266.618831 235.509948 
L 265.618831 235.547139 
L 264.618831 235.586236 
L 263.618831 235.628675 
L 262.618831 235.66144 
L 261.618831 235.728867 
L 260.618831 235.767993 
L 259.618831 235.810667 
L 258.618831 235.881248 
L 257.618831 235.917639 
L 256.618831 235.976042 
L 255.618831 236.086994 
L 254.618831 236.157653 
L 253.618831 236.270593 
L 252.618831 236.316365 
L 251.618831 236.377649 
L 250.618831 236.426148 
L 249.618831 236.506971 
L 248.618831 236.62549 
L 247.618831 236.6957 
L 246.618831 236.778963 
L 244.762419 236.812105 
" clip-path="url(#pd183ce2562)" style="fill: none; stroke: #ff7f0e; stroke-opacity: 0.5; stroke-width: 0.2; stroke-linecap: square"/>
   <path d="M 296.618831 208.976922 
L 295.618831 208.945485 
L 294.618831 208.908545 
L 293.618831 208.810798 
L 292.618831 208.778277 
L 291.618831 208.704652 
L 290.618831 208.666086 
L 289.618831 208.630673 
L 288.618831 208.573033 
L 287.618831 208.502647 
L 286.618831 208.450683 
L 285.618831 208.391593 
L 284.618831 208.303272 
L 283.618831 208.257128 
L 282.618831 208.214717 
L 281.618831 208.184224 
L 280.618831 208.158179 
L 279.618831 208.136979 
L 278.618831 208.082678 
L 277.618831 208.054741 
L 276.618831 208.025017 
L 275.618831 207.999622 
L 274.618831 207.988421 
L 273.618831 207.978297 
L 272.618831 207.978502 
L 271.618831 207.988012 
L 270.618831 207.999665 
L 269.618831 208.030694 
L 268.618831 208.041862 
L 267.618831 208.07198 
L 266.618831 208.131757 
L 265.618831 208.168948 
L 264.618831 208.208044 
L 263.618831 208.250484 
L 262.618831 208.283249 
L 261.618831 208.350676 
L 260.618831 208.389802 
L 259.618831 208.432476 
L 258.618831 208.503057 
L 257.618831 208.539448 
L 256.618831 208.597851 
L 255.618831 208.708803 
L 254.618831 208.779462 
L 253.618831 208.892401 
L 252.618831 208.938174 
L 251.618831 208.999458 
L 250.618831 209.047957 
L 249.618831 209.12878 
L 248.618831 209.247299 
L 247.618831 209.317509 
L 246.618831 209.400772 
L 244.762419 209.433913 
" clip-path="url(#pd183ce2562)" style="fill: none; stroke: #ff7f0e; stroke-opacity: 0.5; stroke-width: 0.2; stroke-linecap: square"/>
   <path d="M 296.618831 170.52594 
L 295.618831 170.494503 
L 294.618831 170.457563 
L 293.618831 170.359816 
L 292.618831 170.327295 
L 291.618831 170.25367 
L 290.618831 170.215104 
L 289.618831 170.179691 
L 288.618831 170.122051 
L 287.618831 170.051665 
L 286.618831 169.999701 
L 285.618831 169.940611 
L 284.618831 169.85229 
L 283.618831 169.806146 
L 282.618831 169.763735 
L 281.618831 169.733242 
L 280.618831 169.707197 
L 279.618831 169.685997 
L 278.618831 169.631696 
L 277.618831 169.603759 
L 276.618831 169.574035 
L 275.618831 169.54864 
L 274.618831 169.537439 
L 273.618831 169.527315 
L 272.618831 169.52752 
L 271.618831 169.53703 
L 270.618831 169.548683 
L 269.618831 169.579712 
L 268.618831 169.59088 
L 267.618831 169.620998 
L 266.618831 169.680775 
L 265.618831 169.717966 
L 264.618831 169.757062 
L 263.618831 169.799502 
L 262.618831 169.832267 
L 261.618831 169.899694 
L 260.618831 169.93882 
L 259.618831 169.981494 
L 258.618831 170.052075 
L 257.618831 170.088466 
L 256.618831 170.146869 
L 255.618831 170.257821 
L 254.618831 170.32848 
L 253.618831 170.44142 
L 252.618831 170.487192 
L 251.618831 170.548476 
L 250.618831 170.596975 
L 249.618831 170.677798 
L 248.618831 170.796317 
L 247.618831 170.866527 
L 246.618831 170.94979 
L 244.762419 170.982931 
" clip-path="url(#pd183ce2562)" style="fill: none; stroke: #ff7f0e; stroke-opacity: 0.5; stroke-width: 0.2; stroke-linecap: square"/>
   <path d="M 296.618831 207.778232 
L 295.618831 207.746795 
L 294.618831 207.709855 
L 293.618831 207.612108 
L 292.618831 207.579587 
L 291.618831 207.505962 
L 290.618831 207.467396 
L 289.618831 207.431983 
L 288.618831 207.374343 
L 287.618831 207.303957 
L 286.618831 207.251993 
L 285.618831 207.192903 
L 284.618831 207.104582 
L 283.618831 207.058438 
L 282.618831 207.016027 
L 281.618831 206.985534 
L 280.618831 206.959489 
L 279.618831 206.938289 
L 278.618831 206.883988 
L 277.618831 206.856051 
L 276.618831 206.826327 
L 275.618831 206.800932 
L 274.618831 206.789731 
L 273.618831 206.779607 
L 272.618831 206.779812 
L 271.618831 206.789322 
L 270.618831 206.800975 
L 269.618831 206.832004 
L 268.618831 206.843172 
L 267.618831 206.87329 
L 266.618831 206.933067 
L 265.618831 206.970258 
L 264.618831 207.009354 
L 263.618831 207.051794 
L 262.618831 207.084559 
L 261.618831 207.151986 
L 260.618831 207.191112 
L 259.618831 207.233786 
L 258.618831 207.304367 
L 257.618831 207.340758 
L 256.618831 207.399161 
L 255.618831 207.510113 
L 254.618831 207.580772 
L 253.618831 207.693711 
L 252.618831 207.739484 
L 251.618831 207.800768 
L 250.618831 207.849267 
L 249.618831 207.93009 
L 248.618831 208.048609 
L 247.618831 208.118819 
L 246.618831 208.202082 
L 244.762419 208.235223 
" clip-path="url(#pd183ce2562)" style="fill: none; stroke: #ff7f0e; stroke-opacity: 0.5; stroke-width: 0.2; stroke-linecap: square"/>
   <path d="M 296.618831 245.55953 
L 295.618831 245.528094 
L 294.618831 245.491153 
L 293.618831 245.393407 
L 292.618831 245.360885 
L 291.618831 245.28726 
L 290.618831 245.248695 
L 289.618831 245.213282 
L 288.618831 245.155642 
L 287.618831 245.085255 
L 286.618831 245.033291 
L 285.618831 244.974202 
L 284.618831 244.885881 
L 283.618831 244.839736 
L 282.618831 244.797325 
L 281.618831 244.766833 
L 280.618831 244.740788 
L 279.618831 244.719588 
L 278.618831 244.665286 
L 277.618831 244.637349 
L 276.618831 244.607625 
L 275.618831 244.58223 
L 274.618831 244.57103 
L 273.618831 244.560906 
L 272.618831 244.56111 
L 271.618831 244.57062 
L 270.618831 244.582274 
L 269.618831 244.613303 
L 268.618831 244.624471 
L 267.618831 244.654588 
L 266.618831 244.714365 
L 265.618831 244.751557 
L 264.618831 244.790653 
L 263.618831 244.833093 
L 262.618831 244.865858 
L 261.618831 244.933284 
L 260.618831 244.97241 
L 259.618831 245.015085 
L 258.618831 245.085665 
L 257.618831 245.122056 
L 256.618831 245.180459 
L 255.618831 245.291412 
L 254.618831 245.36207 
L 253.618831 245.47501 
L 252.618831 245.520783 
L 251.618831 245.582066 
L 250.618831 245.630565 
L 249.618831 245.711388 
L 248.618831 245.829907 
L 247.618831 245.900118 
L 246.618831 245.98338 
L 244.762419 246.016522 
" clip-path="url(#pd183ce2562)" style="fill: none; stroke: #ff7f0e; stroke-opacity: 0.5; stroke-width: 0.2; stroke-linecap: square"/>
   <path d="M 244.762419 188.73325 
L 245.762419 188.764687 
L 246.762419 188.801627 
L 247.762419 188.899374 
L 248.762419 188.931895 
L 249.762419 189.00552 
L 250.762419 189.044085 
L 251.762419 189.079499 
L 252.762419 189.137139 
L 253.762419 189.207525 
L 254.762419 189.259489 
L 255.762419 189.318579 
L 256.762419 189.4069 
L 257.762419 189.453044 
L 258.762419 189.495455 
L 259.762419 189.525948 
L 260.762419 189.551993 
L 261.762419 189.573193 
L 262.762419 189.627494 
L 263.762419 189.655431 
L 264.762419 189.685155 
L 265.762419 189.71055 
L 266.762419 189.72175 
L 267.762419 189.731874 
L 268.762419 189.73167 
L 269.762419 189.72216 
L 270.762419 189.710507 
L 271.762419 189.679477 
L 272.762419 189.668309 
L 273.762419 189.638192 
L 274.762419 189.578415 
L 275.762419 189.541223 
L 276.762419 189.502127 
L 277.762419 189.459688 
L 278.762419 189.426923 
L 279.762419 189.359496 
L 280.762419 189.32037 
L 281.762419 189.277696 
L 282.762419 189.207115 
L 283.762419 189.170724 
L 284.762419 189.112321 
L 285.762419 189.001368 
L 286.762419 188.93071 
L 287.762419 188.81777 
L 288.762419 188.771997 
L 289.762419 188.710714 
L 290.762419 188.662215 
L 291.762419 188.581392 
L 292.762419 188.462873 
L 293.762419 188.392663 
L 294.762419 188.3094 
L 296.618831 188.276258 
" clip-path="url(#pd183ce2562)" style="fill: none; stroke: #1f77b4; stroke-opacity: 0.5; stroke-width: 0.2; stroke-linecap: square"/>
   <path d="M 244.762419 213.010492 
L 245.762419 213.041928 
L 246.762419 213.078869 
L 247.762419 213.176615 
L 248.762419 213.209137 
L 249.762419 213.282762 
L 250.762419 213.321327 
L 251.762419 213.35674 
L 252.762419 213.41438 
L 253.762419 213.484767 
L 254.762419 213.536731 
L 255.762419 213.59582 
L 256.762419 213.684141 
L 257.762419 213.730286 
L 258.762419 213.772697 
L 259.762419 213.803189 
L 260.762419 213.829234 
L 261.762419 213.850434 
L 262.762419 213.904735 
L 263.762419 213.932673 
L 264.762419 213.962397 
L 265.762419 213.987792 
L 266.762419 213.998992 
L 267.762419 214.009116 
L 268.762419 214.008912 
L 269.762419 213.999402 
L 270.762419 213.987748 
L 271.762419 213.956719 
L 272.762419 213.945551 
L 273.762419 213.915434 
L 274.762419 213.855657 
L 275.762419 213.818465 
L 276.762419 213.779369 
L 277.762419 213.736929 
L 278.762419 213.704164 
L 279.762419 213.636738 
L 280.762419 213.597612 
L 281.762419 213.554937 
L 282.762419 213.484357 
L 283.762419 213.447966 
L 284.762419 213.389563 
L 285.762419 213.27861 
L 286.762419 213.207952 
L 287.762419 213.095012 
L 288.762419 213.049239 
L 289.762419 212.987956 
L 290.762419 212.939457 
L 291.762419 212.858634 
L 292.762419 212.740115 
L 293.762419 212.669904 
L 294.762419 212.586642 
L 296.618831 212.5535 
" clip-path="url(#pd183ce2562)" style="fill: none; stroke: #1f77b4; stroke-opacity: 0.5; stroke-width: 0.2; stroke-linecap: square"/>
   <path d="M 244.762419 219.539955 
L 245.762419 219.571391 
L 246.762419 219.608332 
L 247.762419 219.706078 
L 248.762419 219.7386 
L 249.762419 219.812224 
L 250.762419 219.85079 
L 251.762419 219.886203 
L 252.762419 219.943843 
L 253.762419 220.014229 
L 254.762419 220.066194 
L 255.762419 220.125283 
L 256.762419 220.213604 
L 257.762419 220.259749 
L 258.762419 220.302159 
L 259.762419 220.332652 
L 260.762419 220.358697 
L 261.762419 220.379897 
L 262.762419 220.434198 
L 263.762419 220.462136 
L 264.762419 220.49186 
L 265.762419 220.517255 
L 266.762419 220.528455 
L 267.762419 220.538579 
L 268.762419 220.538375 
L 269.762419 220.528865 
L 270.762419 220.517211 
L 271.762419 220.486182 
L 272.762419 220.475014 
L 273.762419 220.444897 
L 274.762419 220.38512 
L 275.762419 220.347928 
L 276.762419 220.308832 
L 277.762419 220.266392 
L 278.762419 220.233627 
L 279.762419 220.166201 
L 280.762419 220.127075 
L 281.762419 220.0844 
L 282.762419 220.01382 
L 283.762419 219.977429 
L 284.762419 219.919026 
L 285.762419 219.808073 
L 286.762419 219.737415 
L 287.762419 219.624475 
L 288.762419 219.578702 
L 289.762419 219.517419 
L 290.762419 219.468919 
L 291.762419 219.388097 
L 292.762419 219.269578 
L 293.762419 219.199367 
L 294.762419 219.116105 
L 296.618831 219.082963 
" clip-path="url(#pd183ce2562)" style="fill: none; stroke: #1f77b4; stroke-opacity: 0.5; stroke-width: 0.2; stroke-linecap: square"/>
   <path d="M 244.762419 190.116347 
L 245.762419 190.147784 
L 246.762419 190.184724 
L 247.762419 190.282471 
L 248.762419 190.314992 
L 249.762419 190.388617 
L 250.762419 190.427182 
L 251.762419 190.462596 
L 252.762419 190.520236 
L 253.762419 190.590622 
L 254.762419 190.642586 
L 255.762419 190.701676 
L 256.762419 190.789997 
L 257.762419 190.836141 
L 258.762419 190.878552 
L 259.762419 190.909045 
L 260.762419 190.93509 
L 261.762419 190.95629 
L 262.762419 191.010591 
L 263.762419 191.038528 
L 264.762419 191.068252 
L 265.762419 191.093647 
L 266.762419 191.104848 
L 267.762419 191.114971 
L 268.762419 191.114767 
L 269.762419 191.105257 
L 270.762419 191.093604 
L 271.762419 191.062574 
L 272.762419 191.051407 
L 273.762419 191.021289 
L 274.762419 190.961512 
L 275.762419 190.924321 
L 276.762419 190.885224 
L 277.762419 190.842785 
L 278.762419 190.81002 
L 279.762419 190.742593 
L 280.762419 190.703467 
L 281.762419 190.660793 
L 282.762419 190.590212 
L 283.762419 190.553821 
L 284.762419 190.495418 
L 285.762419 190.384466 
L 286.762419 190.313807 
L 287.762419 190.200867 
L 288.762419 190.155095 
L 289.762419 190.093811 
L 290.762419 190.045312 
L 291.762419 189.964489 
L 292.762419 189.84597 
L 293.762419 189.77576 
L 294.762419 189.692497 
L 296.618831 189.659355 
" clip-path="url(#pd183ce2562)" style="fill: none; stroke: #1f77b4; stroke-opacity: 0.5; stroke-width: 0.2; stroke-linecap: square"/>
   <path d="M 244.762419 241.452525 
L 245.762419 241.483961 
L 246.762419 241.520902 
L 247.762419 241.618648 
L 248.762419 241.65117 
L 249.762419 241.724795 
L 250.762419 241.76336 
L 251.762419 241.798773 
L 252.762419 241.856413 
L 253.762419 241.9268 
L 254.762419 241.978764 
L 255.762419 242.037854 
L 256.762419 242.126174 
L 257.762419 242.172319 
L 258.762419 242.21473 
L 259.762419 242.245222 
L 260.762419 242.271267 
L 261.762419 242.292467 
L 262.762419 242.346769 
L 263.762419 242.374706 
L 264.762419 242.40443 
L 265.762419 242.429825 
L 266.762419 242.441025 
L 267.762419 242.451149 
L 268.762419 242.450945 
L 269.762419 242.441435 
L 270.762419 242.429781 
L 271.762419 242.398752 
L 272.762419 242.387584 
L 273.762419 242.357467 
L 274.762419 242.29769 
L 275.762419 242.260498 
L 276.762419 242.221402 
L 277.762419 242.178963 
L 278.762419 242.146197 
L 279.762419 242.078771 
L 280.762419 242.039645 
L 281.762419 241.996971 
L 282.762419 241.92639 
L 283.762419 241.889999 
L 284.762419 241.831596 
L 285.762419 241.720643 
L 286.762419 241.649985 
L 287.762419 241.537045 
L 288.762419 241.491272 
L 289.762419 241.429989 
L 290.762419 241.38149 
L 291.762419 241.300667 
L 292.762419 241.182148 
L 293.762419 241.111937 
L 294.762419 241.028675 
L 296.618831 240.995533 
" clip-path="url(#pd183ce2562)" style="fill: none; stroke: #1f77b4; stroke-opacity: 0.5; stroke-width: 0.2; stroke-linecap: square"/>
   <path d="M 244.762419 207.458091 
L 245.762419 207.489528 
L 246.762419 207.526468 
L 247.762419 207.624215 
L 248.762419 207.656736 
L 249.762419 207.730361 
L 250.762419 207.768926 
L 251.762419 207.80434 
L 252.762419 207.86198 
L 253.762419 207.932366 
L 254.762419 207.98433 
L 255.762419 208.04342 
L 256.762419 208.131741 
L 257.762419 208.177885 
L 258.762419 208.220296 
L 259.762419 208.250789 
L 260.762419 208.276834 
L 261.762419 208.298034 
L 262.762419 208.352335 
L 263.762419 208.380272 
L 264.762419 208.409996 
L 265.762419 208.435391 
L 266.762419 208.446591 
L 267.762419 208.456715 
L 268.762419 208.456511 
L 269.762419 208.447001 
L 270.762419 208.435348 
L 271.762419 208.404318 
L 272.762419 208.39315 
L 273.762419 208.363033 
L 274.762419 208.303256 
L 275.762419 208.266064 
L 276.762419 208.226968 
L 277.762419 208.184529 
L 278.762419 208.151764 
L 279.762419 208.084337 
L 280.762419 208.045211 
L 281.762419 208.002537 
L 282.762419 207.931956 
L 283.762419 207.895565 
L 284.762419 207.837162 
L 285.762419 207.726209 
L 286.762419 207.655551 
L 287.762419 207.542611 
L 288.762419 207.496838 
L 289.762419 207.435555 
L 290.762419 207.387056 
L 291.762419 207.306233 
L 292.762419 207.187714 
L 293.762419 207.117504 
L 294.762419 207.034241 
L 296.618831 207.001099 
" clip-path="url(#pd183ce2562)" style="fill: none; stroke: #1f77b4; stroke-opacity: 0.5; stroke-width: 0.2; stroke-linecap: square"/>
   <path d="M 244.762419 254.840611 
L 245.762419 254.872048 
L 246.762419 254.908988 
L 247.762419 255.006735 
L 248.762419 255.039256 
L 249.762419 255.112881 
L 250.762419 255.151447 
L 251.762419 255.18686 
L 252.762419 255.2445 
L 253.762419 255.314886 
L 254.762419 255.36685 
L 255.762419 255.42594 
L 256.762419 255.514261 
L 257.762419 255.560405 
L 258.762419 255.602816 
L 259.762419 255.633309 
L 260.762419 255.659354 
L 261.762419 255.680554 
L 262.762419 255.734855 
L 263.762419 255.762792 
L 264.762419 255.792516 
L 265.762419 255.817911 
L 266.762419 255.829112 
L 267.762419 255.839236 
L 268.762419 255.839031 
L 269.762419 255.829521 
L 270.762419 255.817868 
L 271.762419 255.786839 
L 272.762419 255.775671 
L 273.762419 255.745553 
L 274.762419 255.685776 
L 275.762419 255.648585 
L 276.762419 255.609489 
L 277.762419 255.567049 
L 278.762419 255.534284 
L 279.762419 255.466857 
L 280.762419 255.427731 
L 281.762419 255.385057 
L 282.762419 255.314476 
L 283.762419 255.278085 
L 284.762419 255.219682 
L 285.762419 255.10873 
L 286.762419 255.038071 
L 287.762419 254.925132 
L 288.762419 254.879359 
L 289.762419 254.818075 
L 290.762419 254.769576 
L 291.762419 254.688753 
L 292.762419 254.570234 
L 293.762419 254.500024 
L 294.762419 254.416761 
L 296.618831 254.38362 
" clip-path="url(#pd183ce2562)" style="fill: none; stroke: #1f77b4; stroke-opacity: 0.5; stroke-width: 0.2; stroke-linecap: square"/>
   <path d="M 244.762419 178.419715 
L 245.762419 178.451152 
L 246.762419 178.488092 
L 247.762419 178.585839 
L 248.762419 178.61836 
L 249.762419 178.691985 
L 250.762419 178.730551 
L 251.762419 178.765964 
L 252.762419 178.823604 
L 253.762419 178.89399 
L 254.762419 178.945954 
L 255.762419 179.005044 
L 256.762419 179.093365 
L 257.762419 179.139509 
L 258.762419 179.18192 
L 259.762419 179.212413 
L 260.762419 179.238458 
L 261.762419 179.259658 
L 262.762419 179.313959 
L 263.762419 179.341897 
L 264.762419 179.37162 
L 265.762419 179.397015 
L 266.762419 179.408216 
L 267.762419 179.41834 
L 268.762419 179.418135 
L 269.762419 179.408625 
L 270.762419 179.396972 
L 271.762419 179.365943 
L 272.762419 179.354775 
L 273.762419 179.324657 
L 274.762419 179.26488 
L 275.762419 179.227689 
L 276.762419 179.188593 
L 277.762419 179.146153 
L 278.762419 179.113388 
L 279.762419 179.045961 
L 280.762419 179.006835 
L 281.762419 178.964161 
L 282.762419 178.89358 
L 283.762419 178.857189 
L 284.762419 178.798786 
L 285.762419 178.687834 
L 286.762419 178.617175 
L 287.762419 178.504236 
L 288.762419 178.458463 
L 289.762419 178.397179 
L 290.762419 178.34868 
L 291.762419 178.267857 
L 292.762419 178.149338 
L 293.762419 178.079128 
L 294.762419 177.995865 
L 296.618831 177.962724 
" clip-path="url(#pd183ce2562)" style="fill: none; stroke: #1f77b4; stroke-opacity: 0.5; stroke-width: 0.2; stroke-linecap: square"/>
   <path d="M 244.762419 180.169448 
L 245.762419 180.200885 
L 246.762419 180.237825 
L 247.762419 180.335572 
L 248.762419 180.368093 
L 249.762419 180.441718 
L 250.762419 180.480284 
L 251.762419 180.515697 
L 252.762419 180.573337 
L 253.762419 180.643723 
L 254.762419 180.695687 
L 255.762419 180.754777 
L 256.762419 180.843098 
L 257.762419 180.889242 
L 258.762419 180.931653 
L 259.762419 180.962146 
L 260.762419 180.988191 
L 261.762419 181.009391 
L 262.762419 181.063692 
L 263.762419 181.091629 
L 264.762419 181.121353 
L 265.762419 181.146748 
L 266.762419 181.157949 
L 267.762419 181.168073 
L 268.762419 181.167868 
L 269.762419 181.158358 
L 270.762419 181.146705 
L 271.762419 181.115676 
L 272.762419 181.104508 
L 273.762419 181.07439 
L 274.762419 181.014613 
L 275.762419 180.977422 
L 276.762419 180.938326 
L 277.762419 180.895886 
L 278.762419 180.863121 
L 279.762419 180.795694 
L 280.762419 180.756568 
L 281.762419 180.713894 
L 282.762419 180.643313 
L 283.762419 180.606922 
L 284.762419 180.548519 
L 285.762419 180.437567 
L 286.762419 180.366908 
L 287.762419 180.253968 
L 288.762419 180.208196 
L 289.762419 180.146912 
L 290.762419 180.098413 
L 291.762419 180.01759 
L 292.762419 179.899071 
L 293.762419 179.828861 
L 294.762419 179.745598 
L 296.618831 179.712457 
" clip-path="url(#pd183ce2562)" style="fill: none; stroke: #1f77b4; stroke-opacity: 0.5; stroke-width: 0.2; stroke-linecap: square"/>
   <path d="M 244.762419 221.311499 
L 245.762419 221.342935 
L 246.762419 221.379875 
L 247.762419 221.477622 
L 248.762419 221.510144 
L 249.762419 221.583768 
L 250.762419 221.622334 
L 251.762419 221.657747 
L 252.762419 221.715387 
L 253.762419 221.785773 
L 254.762419 221.837737 
L 255.762419 221.896827 
L 256.762419 221.985148 
L 257.762419 222.031292 
L 258.762419 222.073703 
L 259.762419 222.104196 
L 260.762419 222.130241 
L 261.762419 222.151441 
L 262.762419 222.205742 
L 263.762419 222.23368 
L 264.762419 222.263404 
L 265.762419 222.288798 
L 266.762419 222.299999 
L 267.762419 222.310123 
L 268.762419 222.309918 
L 269.762419 222.300409 
L 270.762419 222.288755 
L 271.762419 222.257726 
L 272.762419 222.246558 
L 273.762419 222.21644 
L 274.762419 222.156663 
L 275.762419 222.119472 
L 276.762419 222.080376 
L 277.762419 222.037936 
L 278.762419 222.005171 
L 279.762419 221.937745 
L 280.762419 221.898619 
L 281.762419 221.855944 
L 282.762419 221.785363 
L 283.762419 221.748973 
L 284.762419 221.690569 
L 285.762419 221.579617 
L 286.762419 221.508959 
L 287.762419 221.396019 
L 288.762419 221.350246 
L 289.762419 221.288963 
L 290.762419 221.240463 
L 291.762419 221.159641 
L 292.762419 221.041122 
L 293.762419 220.970911 
L 294.762419 220.887649 
L 296.618831 220.854507 
" clip-path="url(#pd183ce2562)" style="fill: none; stroke: #1f77b4; stroke-opacity: 0.5; stroke-width: 0.2; stroke-linecap: square"/>
   <g id="patch_3">
    <path d="M 64.409375 22.318125 
L 64.409375 260.421875 
M 240.224232 22.318125 
L 240.224232 260.421875 
" clip-path="url(#pd183ce2562)" style="fill: none; stroke: #ffffff; stroke-width: 3; stroke-linejoin: miter"/>
    <path d="M 64.409375 22.318125 
L 64.409375 260.421875 
M 240.224232 22.318125 
L 240.224232 260.421875 
" clip-path="url(#pd183ce2562)" style="fill: none; stroke: #1f77b4; stroke-linejoin: miter"/>
    <g id="PolyCollection_1">
     <path d="M 240.224232 22.318125 
L 64.409375 22.318125 
L 64.409375 260.421875 
L 240.224232 260.421875 
L 240.224232 260.421875 
L 240.224232 22.318125 
z
" clip-path="url(#pd183ce2562)" style="fill: #1f77b4; fill-opacity: 0.5"/>
    </g>
    <g id="patch_4">
     <path d="M 301.157018 22.318125 
L 301.157018 260.421875 
M 476.971875 22.318125 
L 476.971875 260.421875 
" clip-path="url(#pd183ce2562)" style="fill: none; stroke: #ffffff; stroke-width: 3; stroke-linejoin: miter"/>
     <path d="M 301.157018 22.318125 
L 301.157018 260.421875 
M 476.971875 22.318125 
L 476.971875 260.421875 
" clip-path="url(#pd183ce2562)" style="fill: none; stroke: #ff7f0e; stroke-linejoin: miter"/>
     <g id="PolyCollection_2">
      <path d="M 476.971875 22.318125 
L 301.157018 22.318125 
L 301.157018 260.421875 
L 476.971875 260.421875 
L 476.971875 260.421875 
L 476.971875 22.318125 
z
" clip-path="url(#pd183ce2562)" style="fill: #ff7f0e; fill-opacity: 0.5"/>
     </g>
     <g id="matplotlib.axis_1">
      <g id="xtick_1">
       <g id="line2d_1"/>
       <g id="text_1">
        <!-- deme0 -->
        <g transform="translate(134.937897 271.520312)scale(0.1 -0.1)">
         <defs>
          <path id="DejaVuSans-64" d="M 2906 2969 
L 2906 4863 
L 3481 4863 
L 3481 0 
L 2906 0 
L 2906 525 
Q 2725 213 2448 61 
Q 2172 -91 1784 -91 
Q 1150 -91 751 415 
Q 353 922 353 1747 
Q 353 2572 751 3078 
Q 1150 3584 1784 3584 
Q 2172 3584 2448 3432 
Q 2725 3281 2906 2969 
z
M 947 1747 
Q 947 1113 1208 752 
Q 1469 391 1925 391 
Q 2381 391 2643 752 
Q 2906 1113 2906 1747 
Q 2906 2381 2643 2742 
Q 2381 3103 1925 3103 
Q 1469 3103 1208 2742 
Q 947 2381 947 1747 
z
" transform="scale(0.015625)"/>
          <path id="DejaVuSans-65" d="M 3597 1894 
L 3597 1613 
L 953 1613 
Q 991 1019 1311 708 
Q 1631 397 2203 397 
Q 2534 397 2845 478 
Q 3156 559 3463 722 
L 3463 178 
Q 3153 47 2828 -22 
Q 2503 -91 2169 -91 
Q 1331 -91 842 396 
Q 353 884 353 1716 
Q 353 2575 817 3079 
Q 1281 3584 2069 3584 
Q 2775 3584 3186 3129 
Q 3597 2675 3597 1894 
z
M 3022 2063 
Q 3016 2534 2758 2815 
Q 2500 3097 2075 3097 
Q 1594 3097 1305 2825 
Q 1016 2553 972 2059 
L 3022 2063 
z
" transform="scale(0.015625)"/>
          <path id="DejaVuSans-6d" d="M 3328 2828 
Q 3544 3216 3844 3400 
Q 4144 3584 4550 3584 
Q 5097 3584 5394 3201 
Q 5691 2819 5691 2113 
L 5691 0 
L 5113 0 
L 5113 2094 
Q 5113 2597 4934 2840 
Q 4756 3084 4391 3084 
Q 3944 3084 3684 2787 
Q 3425 2491 3425 1978 
L 3425 0 
L 2847 0 
L 2847 2094 
Q 2847 2600 2669 2842 
Q 2491 3084 2119 3084 
Q 1678 3084 1418 2786 
Q 1159 2488 1159 1978 
L 1159 0 
L 581 0 
L 581 3500 
L 1159 3500 
L 1159 2956 
Q 1356 3278 1631 3431 
Q 1906 3584 2284 3584 
Q 2666 3584 2933 3390 
Q 3200 3197 3328 2828 
z
" transform="scale(0.015625)"/>
          <path id="DejaVuSans-30" d="M 2034 4250 
Q 1547 4250 1301 3770 
Q 1056 3291 1056 2328 
Q 1056 1369 1301 889 
Q 1547 409 2034 409 
Q 2525 409 2770 889 
Q 3016 1369 3016 2328 
Q 3016 3291 2770 3770 
Q 2525 4250 2034 4250 
z
M 2034 4750 
Q 2819 4750 3233 4129 
Q 3647 3509 3647 2328 
Q 3647 1150 3233 529 
Q 2819 -91 2034 -91 
Q 1250 -91 836 529 
Q 422 1150 422 2328 
Q 422 3509 836 4129 
Q 1250 4750 2034 4750 
z
" transform="scale(0.015625)"/>
         </defs>
         <use xlink:href="#DejaVuSans-64"/>
         <use xlink:href="#DejaVuSans-65" x="63.476562"/>
         <use xlink:href="#DejaVuSans-6d" x="125"/>
         <use xlink:href="#DejaVuSans-65" x="222.412109"/>
         <use xlink:href="#DejaVuSans-30" x="283.935547"/>
        </g>
       </g>
      </g>
      <g id="xtick_2">
       <g id="line2d_2"/>
       <g id="text_2">
        <!-- deme1 -->
        <g transform="translate(371.68554 271.520312)scale(0.1 -0.1)">
         <defs>
          <path id="DejaVuSans-31" d="M 794 531 
L 1825 531 
L 1825 4091 
L 703 3866 
L 703 4441 
L 1819 4666 
L 2450 4666 
L 2450 531 
L 3481 531 
L 3481 0 
L 794 0 
L 794 531 
z
" transform="scale(0.015625)"/>
         </defs>
         <use xlink:href="#DejaVuSans-64"/>
         <use xlink:href="#DejaVuSans-65" x="63.476562"/>
         <use xlink:href="#DejaVuSans-6d" x="125"/>
         <use xlink:href="#DejaVuSans-65" x="222.412109"/>
         <use xlink:href="#DejaVuSans-31" x="283.935547"/>
        </g>
       </g>
      </g>
     </g>
     <g id="matplotlib.axis_2">
      <g id="ytick_1">
       <g id="line2d_3">
        <defs>
         <path id="m3e98cd1708" d="M 0 0 
L -3.5 0 
" style="stroke: #000000; stroke-width: 0.8"/>
        </defs>
        <g>
         <use xlink:href="#m3e98cd1708" x="43.78125" y="260.421875" style="stroke: #000000; stroke-width: 0.8"/>
        </g>
       </g>
       <g id="text_3">
        <!-- 0.0 -->
        <g transform="translate(20.878125 264.221094)scale(0.1 -0.1)">
         <defs>
          <path id="DejaVuSans-2e" d="M 684 794 
L 1344 794 
L 1344 0 
L 684 0 
L 684 794 
z
" transform="scale(0.015625)"/>
         </defs>
         <use xlink:href="#DejaVuSans-30"/>
         <use xlink:href="#DejaVuSans-2e" x="63.623047"/>
         <use xlink:href="#DejaVuSans-30" x="95.410156"/>
        </g>
       </g>
      </g>
      <g id="ytick_2">
       <g id="line2d_4">
        <g>
         <use xlink:href="#m3e98cd1708" x="43.78125" y="212.801125" style="stroke: #000000; stroke-width: 0.8"/>
        </g>
       </g>
       <g id="text_4">
        <!-- 0.5 -->
        <g transform="translate(20.878125 216.600344)scale(0.1 -0.1)">
         <defs>
          <path id="DejaVuSans-35" d="M 691 4666 
L 3169 4666 
L 3169 4134 
L 1269 4134 
L 1269 2991 
Q 1406 3038 1543 3061 
Q 1681 3084 1819 3084 
Q 2600 3084 3056 2656 
Q 3513 2228 3513 1497 
Q 3513 744 3044 326 
Q 2575 -91 1722 -91 
Q 1428 -91 1123 -41 
Q 819 9 494 109 
L 494 744 
Q 775 591 1075 516 
Q 1375 441 1709 441 
Q 2250 441 2565 725 
Q 2881 1009 2881 1497 
Q 2881 1984 2565 2268 
Q 2250 2553 1709 2553 
Q 1456 2553 1204 2497 
Q 953 2441 691 2322 
L 691 4666 
z
" transform="scale(0.015625)"/>
         </defs>
         <use xlink:href="#DejaVuSans-30"/>
         <use xlink:href="#DejaVuSans-2e" x="63.623047"/>
         <use xlink:href="#DejaVuSans-35" x="95.410156"/>
        </g>
       </g>
      </g>
      <g id="ytick_3">
       <g id="line2d_5">
        <g>
         <use xlink:href="#m3e98cd1708" x="43.78125" y="165.180375" style="stroke: #000000; stroke-width: 0.8"/>
        </g>
       </g>
       <g id="text_5">
        <!-- 1.0 -->
        <g transform="translate(20.878125 168.979594)scale(0.1 -0.1)">
         <use xlink:href="#DejaVuSans-31"/>
         <use xlink:href="#DejaVuSans-2e" x="63.623047"/>
         <use xlink:href="#DejaVuSans-30" x="95.410156"/>
        </g>
       </g>
      </g>
      <g id="ytick_4">
       <g id="line2d_6">
        <g>
         <use xlink:href="#m3e98cd1708" x="43.78125" y="117.559625" style="stroke: #000000; stroke-width: 0.8"/>
        </g>
       </g>
       <g id="text_6">
        <!-- 1.5 -->
        <g transform="translate(20.878125 121.358844)scale(0.1 -0.1)">
         <use xlink:href="#DejaVuSans-31"/>
         <use xlink:href="#DejaVuSans-2e" x="63.623047"/>
         <use xlink:href="#DejaVuSans-35" x="95.410156"/>
        </g>
       </g>
      </g>
      <g id="ytick_5">
       <g id="line2d_7">
        <g>
         <use xlink:href="#m3e98cd1708" x="43.78125" y="69.938875" style="stroke: #000000; stroke-width: 0.8"/>
        </g>
       </g>
       <g id="text_7">
        <!-- 2.0 -->
        <g transform="translate(20.878125 73.738094)scale(0.1 -0.1)">
         <defs>
          <path id="DejaVuSans-32" d="M 1228 531 
L 3431 531 
L 3431 0 
L 469 0 
L 469 531 
Q 828 903 1448 1529 
Q 2069 2156 2228 2338 
Q 2531 2678 2651 2914 
Q 2772 3150 2772 3378 
Q 2772 3750 2511 3984 
Q 2250 4219 1831 4219 
Q 1534 4219 1204 4116 
Q 875 4013 500 3803 
L 500 4441 
Q 881 4594 1212 4672 
Q 1544 4750 1819 4750 
Q 2544 4750 2975 4387 
Q 3406 4025 3406 3419 
Q 3406 3131 3298 2873 
Q 3191 2616 2906 2266 
Q 2828 2175 2409 1742 
Q 1991 1309 1228 531 
z
" transform="scale(0.015625)"/>
         </defs>
         <use xlink:href="#DejaVuSans-32"/>
         <use xlink:href="#DejaVuSans-2e" x="63.623047"/>
         <use xlink:href="#DejaVuSans-30" x="95.410156"/>
        </g>
       </g>
      </g>
      <g id="ytick_6">
       <g id="line2d_8">
        <g>
         <use xlink:href="#m3e98cd1708" x="43.78125" y="22.318125" style="stroke: #000000; stroke-width: 0.8"/>
        </g>
       </g>
       <g id="text_8">
        <!-- 2.5 -->
        <g transform="translate(20.878125 26.117344)scale(0.1 -0.1)">
         <use xlink:href="#DejaVuSans-32"/>
         <use xlink:href="#DejaVuSans-2e" x="63.623047"/>
         <use xlink:href="#DejaVuSans-35" x="95.410156"/>
        </g>
       </g>
      </g>
      <g id="text_9">
       <!-- time ago (generations) -->
       <g transform="translate(14.798438 198.841094)rotate(-90)scale(0.1 -0.1)">
        <defs>
         <path id="DejaVuSans-74" d="M 1172 4494 
L 1172 3500 
L 2356 3500 
L 2356 3053 
L 1172 3053 
L 1172 1153 
Q 1172 725 1289 603 
Q 1406 481 1766 481 
L 2356 481 
L 2356 0 
L 1766 0 
Q 1100 0 847 248 
Q 594 497 594 1153 
L 594 3053 
L 172 3053 
L 172 3500 
L 594 3500 
L 594 4494 
L 1172 4494 
z
" transform="scale(0.015625)"/>
         <path id="DejaVuSans-69" d="M 603 3500 
L 1178 3500 
L 1178 0 
L 603 0 
L 603 3500 
z
M 603 4863 
L 1178 4863 
L 1178 4134 
L 603 4134 
L 603 4863 
z
" transform="scale(0.015625)"/>
         <path id="DejaVuSans-20" transform="scale(0.015625)"/>
         <path id="DejaVuSans-61" d="M 2194 1759 
Q 1497 1759 1228 1600 
Q 959 1441 959 1056 
Q 959 750 1161 570 
Q 1363 391 1709 391 
Q 2188 391 2477 730 
Q 2766 1069 2766 1631 
L 2766 1759 
L 2194 1759 
z
M 3341 1997 
L 3341 0 
L 2766 0 
L 2766 531 
Q 2569 213 2275 61 
Q 1981 -91 1556 -91 
Q 1019 -91 701 211 
Q 384 513 384 1019 
Q 384 1609 779 1909 
Q 1175 2209 1959 2209 
L 2766 2209 
L 2766 2266 
Q 2766 2663 2505 2880 
Q 2244 3097 1772 3097 
Q 1472 3097 1187 3025 
Q 903 2953 641 2809 
L 641 3341 
Q 956 3463 1253 3523 
Q 1550 3584 1831 3584 
Q 2591 3584 2966 3190 
Q 3341 2797 3341 1997 
z
" transform="scale(0.015625)"/>
         <path id="DejaVuSans-67" d="M 2906 1791 
Q 2906 2416 2648 2759 
Q 2391 3103 1925 3103 
Q 1463 3103 1205 2759 
Q 947 2416 947 1791 
Q 947 1169 1205 825 
Q 1463 481 1925 481 
Q 2391 481 2648 825 
Q 2906 1169 2906 1791 
z
M 3481 434 
Q 3481 -459 3084 -895 
Q 2688 -1331 1869 -1331 
Q 1566 -1331 1297 -1286 
Q 1028 -1241 775 -1147 
L 775 -588 
Q 1028 -725 1275 -790 
Q 1522 -856 1778 -856 
Q 2344 -856 2625 -561 
Q 2906 -266 2906 331 
L 2906 616 
Q 2728 306 2450 153 
Q 2172 0 1784 0 
Q 1141 0 747 490 
Q 353 981 353 1791 
Q 353 2603 747 3093 
Q 1141 3584 1784 3584 
Q 2172 3584 2450 3431 
Q 2728 3278 2906 2969 
L 2906 3500 
L 3481 3500 
L 3481 434 
z
" transform="scale(0.015625)"/>
         <path id="DejaVuSans-6f" d="M 1959 3097 
Q 1497 3097 1228 2736 
Q 959 2375 959 1747 
Q 959 1119 1226 758 
Q 1494 397 1959 397 
Q 2419 397 2687 759 
Q 2956 1122 2956 1747 
Q 2956 2369 2687 2733 
Q 2419 3097 1959 3097 
z
M 1959 3584 
Q 2709 3584 3137 3096 
Q 3566 2609 3566 1747 
Q 3566 888 3137 398 
Q 2709 -91 1959 -91 
Q 1206 -91 779 398 
Q 353 888 353 1747 
Q 353 2609 779 3096 
Q 1206 3584 1959 3584 
z
" transform="scale(0.015625)"/>
         <path id="DejaVuSans-28" d="M 1984 4856 
Q 1566 4138 1362 3434 
Q 1159 2731 1159 2009 
Q 1159 1288 1364 580 
Q 1569 -128 1984 -844 
L 1484 -844 
Q 1016 -109 783 600 
Q 550 1309 550 2009 
Q 550 2706 781 3412 
Q 1013 4119 1484 4856 
L 1984 4856 
z
" transform="scale(0.015625)"/>
         <path id="DejaVuSans-6e" d="M 3513 2113 
L 3513 0 
L 2938 0 
L 2938 2094 
Q 2938 2591 2744 2837 
Q 2550 3084 2163 3084 
Q 1697 3084 1428 2787 
Q 1159 2491 1159 1978 
L 1159 0 
L 581 0 
L 581 3500 
L 1159 3500 
L 1159 2956 
Q 1366 3272 1645 3428 
Q 1925 3584 2291 3584 
Q 2894 3584 3203 3211 
Q 3513 2838 3513 2113 
z
" transform="scale(0.015625)"/>
         <path id="DejaVuSans-72" d="M 2631 2963 
Q 2534 3019 2420 3045 
Q 2306 3072 2169 3072 
Q 1681 3072 1420 2755 
Q 1159 2438 1159 1844 
L 1159 0 
L 581 0 
L 581 3500 
L 1159 3500 
L 1159 2956 
Q 1341 3275 1631 3429 
Q 1922 3584 2338 3584 
Q 2397 3584 2469 3576 
Q 2541 3569 2628 3553 
L 2631 2963 
z
" transform="scale(0.015625)"/>
         <path id="DejaVuSans-73" d="M 2834 3397 
L 2834 2853 
Q 2591 2978 2328 3040 
Q 2066 3103 1784 3103 
Q 1356 3103 1142 2972 
Q 928 2841 928 2578 
Q 928 2378 1081 2264 
Q 1234 2150 1697 2047 
L 1894 2003 
Q 2506 1872 2764 1633 
Q 3022 1394 3022 966 
Q 3022 478 2636 193 
Q 2250 -91 1575 -91 
Q 1294 -91 989 -36 
Q 684 19 347 128 
L 347 722 
Q 666 556 975 473 
Q 1284 391 1588 391 
Q 1994 391 2212 530 
Q 2431 669 2431 922 
Q 2431 1156 2273 1281 
Q 2116 1406 1581 1522 
L 1381 1569 
Q 847 1681 609 1914 
Q 372 2147 372 2553 
Q 372 3047 722 3315 
Q 1072 3584 1716 3584 
Q 2034 3584 2315 3537 
Q 2597 3491 2834 3397 
z
" transform="scale(0.015625)"/>
         <path id="DejaVuSans-29" d="M 513 4856 
L 1013 4856 
Q 1481 4119 1714 3412 
Q 1947 2706 1947 2009 
Q 1947 1309 1714 600 
Q 1481 -109 1013 -844 
L 513 -844 
Q 928 -128 1133 580 
Q 1338 1288 1338 2009 
Q 1338 2731 1133 3434 
Q 928 4138 513 4856 
z
" transform="scale(0.015625)"/>
        </defs>
        <use xlink:href="#DejaVuSans-74"/>
        <use xlink:href="#DejaVuSans-69" x="39.208984"/>
        <use xlink:href="#DejaVuSans-6d" x="66.992188"/>
        <use xlink:href="#DejaVuSans-65" x="164.404297"/>
        <use xlink:href="#DejaVuSans-20" x="225.927734"/>
        <use xlink:href="#DejaVuSans-61" x="257.714844"/>
        <use xlink:href="#DejaVuSans-67" x="318.994141"/>
        <use xlink:href="#DejaVuSans-6f" x="382.470703"/>
        <use xlink:href="#DejaVuSans-20" x="443.652344"/>
        <use xlink:href="#DejaVuSans-28" x="475.439453"/>
        <use xlink:href="#DejaVuSans-67" x="514.453125"/>
        <use xlink:href="#DejaVuSans-65" x="577.929688"/>
        <use xlink:href="#DejaVuSans-6e" x="639.453125"/>
        <use xlink:href="#DejaVuSans-65" x="702.832031"/>
        <use xlink:href="#DejaVuSans-72" x="764.355469"/>
        <use xlink:href="#DejaVuSans-61" x="805.46875"/>
        <use xlink:href="#DejaVuSans-74" x="866.748047"/>
        <use xlink:href="#DejaVuSans-69" x="905.957031"/>
        <use xlink:href="#DejaVuSans-6f" x="933.740234"/>
        <use xlink:href="#DejaVuSans-6e" x="994.921875"/>
        <use xlink:href="#DejaVuSans-73" x="1058.300781"/>
        <use xlink:href="#DejaVuSans-29" x="1110.400391"/>
       </g>
      </g>
     </g>
     <path d="M 243.762419 110.850164 
L 245.762419 111.850164 
L 245.762419 109.850164 
z
" clip-path="url(#pd183ce2562)" style="fill: #ff7f0e; fill-opacity: 0.5; stroke: #ff7f0e; stroke-opacity: 0.5; stroke-linejoin: miter"/>
     <path d="M 243.762419 142.387269 
L 245.762419 143.387269 
L 245.762419 141.387269 
z
" clip-path="url(#pd183ce2562)" style="fill: #ff7f0e; fill-opacity: 0.5; stroke: #ff7f0e; stroke-opacity: 0.5; stroke-linejoin: miter"/>
     <path d="M 243.762419 134.092098 
L 245.762419 135.092098 
L 245.762419 133.092098 
z
" clip-path="url(#pd183ce2562)" style="fill: #ff7f0e; fill-opacity: 0.5; stroke: #ff7f0e; stroke-opacity: 0.5; stroke-linejoin: miter"/>
     <path d="M 243.762419 123.128201 
L 245.762419 124.128201 
L 245.762419 122.128201 
z
" clip-path="url(#pd183ce2562)" style="fill: #ff7f0e; fill-opacity: 0.5; stroke: #ff7f0e; stroke-opacity: 0.5; stroke-linejoin: miter"/>
     <path d="M 243.762419 127.409014 
L 245.762419 128.409014 
L 245.762419 126.409014 
z
" clip-path="url(#pd183ce2562)" style="fill: #ff7f0e; fill-opacity: 0.5; stroke: #ff7f0e; stroke-opacity: 0.5; stroke-linejoin: miter"/>
     <path d="M 243.762419 149.130201 
L 245.762419 150.130201 
L 245.762419 148.130201 
z
" clip-path="url(#pd183ce2562)" style="fill: #ff7f0e; fill-opacity: 0.5; stroke: #ff7f0e; stroke-opacity: 0.5; stroke-linejoin: miter"/>
     <path d="M 243.762419 91.65711 
L 245.762419 92.65711 
L 245.762419 90.65711 
z
" clip-path="url(#pd183ce2562)" style="fill: #ff7f0e; fill-opacity: 0.5; stroke: #ff7f0e; stroke-opacity: 0.5; stroke-linejoin: miter"/>
     <path d="M 243.762419 82.18315 
L 245.762419 83.18315 
L 245.762419 81.18315 
z
" clip-path="url(#pd183ce2562)" style="fill: #ff7f0e; fill-opacity: 0.5; stroke: #ff7f0e; stroke-opacity: 0.5; stroke-linejoin: miter"/>
     <path d="M 243.762419 132.00015 
L 245.762419 133.00015 
L 245.762419 131.00015 
z
" clip-path="url(#pd183ce2562)" style="fill: #ff7f0e; fill-opacity: 0.5; stroke: #ff7f0e; stroke-opacity: 0.5; stroke-linejoin: miter"/>
     <path d="M 243.762419 127.039995 
L 245.762419 128.039995 
L 245.762419 126.039995 
z
" clip-path="url(#pd183ce2562)" style="fill: #ff7f0e; fill-opacity: 0.5; stroke: #ff7f0e; stroke-opacity: 0.5; stroke-linejoin: miter"/>
     <path d="M 297.618831 146.951785 
L 295.618831 145.951785 
L 295.618831 147.951785 
z
" clip-path="url(#pd183ce2562)" style="fill: #1f77b4; fill-opacity: 0.5; stroke: #1f77b4; stroke-opacity: 0.5; stroke-linejoin: miter"/>
     <path d="M 297.618831 102.288217 
L 295.618831 101.288217 
L 295.618831 103.288217 
z
" clip-path="url(#pd183ce2562)" style="fill: #1f77b4; fill-opacity: 0.5; stroke: #1f77b4; stroke-opacity: 0.5; stroke-linejoin: miter"/>
     <path d="M 297.618831 148.91372 
L 295.618831 147.91372 
L 295.618831 149.91372 
z
" clip-path="url(#pd183ce2562)" style="fill: #1f77b4; fill-opacity: 0.5; stroke: #1f77b4; stroke-opacity: 0.5; stroke-linejoin: miter"/>
     <path d="M 297.618831 89.675789 
L 295.618831 88.675789 
L 295.618831 90.675789 
z
" clip-path="url(#pd183ce2562)" style="fill: #1f77b4; fill-opacity: 0.5; stroke: #1f77b4; stroke-opacity: 0.5; stroke-linejoin: miter"/>
     <path d="M 297.618831 88.865871 
L 295.618831 87.865871 
L 295.618831 89.865871 
z
" clip-path="url(#pd183ce2562)" style="fill: #1f77b4; fill-opacity: 0.5; stroke: #1f77b4; stroke-opacity: 0.5; stroke-linejoin: miter"/>
     <path d="M 297.618831 141.983053 
L 295.618831 140.983053 
L 295.618831 142.983053 
z
" clip-path="url(#pd183ce2562)" style="fill: #1f77b4; fill-opacity: 0.5; stroke: #1f77b4; stroke-opacity: 0.5; stroke-linejoin: miter"/>
     <path d="M 297.618831 99.802016 
L 295.618831 98.802016 
L 295.618831 100.802016 
z
" clip-path="url(#pd183ce2562)" style="fill: #1f77b4; fill-opacity: 0.5; stroke: #1f77b4; stroke-opacity: 0.5; stroke-linejoin: miter"/>
     <path d="M 297.618831 161.720999 
L 295.618831 160.720999 
L 295.618831 162.720999 
z
" clip-path="url(#pd183ce2562)" style="fill: #1f77b4; fill-opacity: 0.5; stroke: #1f77b4; stroke-opacity: 0.5; stroke-linejoin: miter"/>
     <path d="M 297.618831 78.856905 
L 295.618831 77.856905 
L 295.618831 79.856905 
z
" clip-path="url(#pd183ce2562)" style="fill: #1f77b4; fill-opacity: 0.5; stroke: #1f77b4; stroke-opacity: 0.5; stroke-linejoin: miter"/>
     <path d="M 297.618831 89.916641 
L 295.618831 88.916641 
L 295.618831 90.916641 
z
" clip-path="url(#pd183ce2562)" style="fill: #1f77b4; fill-opacity: 0.5; stroke: #1f77b4; stroke-opacity: 0.5; stroke-linejoin: miter"/>
     <path d="M 243.762419 219.594299 
L 245.762419 220.594299 
L 245.762419 218.594299 
z
" clip-path="url(#pd183ce2562)" style="fill: #ff7f0e; fill-opacity: 0.5; stroke: #ff7f0e; stroke-opacity: 0.5; stroke-linejoin: miter"/>
     <path d="M 243.762419 242.364154 
L 245.762419 243.364154 
L 245.762419 241.364154 
z
" clip-path="url(#pd183ce2562)" style="fill: #ff7f0e; fill-opacity: 0.5; stroke: #ff7f0e; stroke-opacity: 0.5; stroke-linejoin: miter"/>
     <path d="M 243.762419 191.180643 
L 245.762419 192.180643 
L 245.762419 190.180643 
z
" clip-path="url(#pd183ce2562)" style="fill: #ff7f0e; fill-opacity: 0.5; stroke: #ff7f0e; stroke-opacity: 0.5; stroke-linejoin: miter"/>
     <path d="M 243.762419 239.78272 
L 245.762419 240.78272 
L 245.762419 238.78272 
z
" clip-path="url(#pd183ce2562)" style="fill: #ff7f0e; fill-opacity: 0.5; stroke: #ff7f0e; stroke-opacity: 0.5; stroke-linejoin: miter"/>
     <path d="M 243.762419 258.762043 
L 245.762419 259.762043 
L 245.762419 257.762043 
z
" clip-path="url(#pd183ce2562)" style="fill: #ff7f0e; fill-opacity: 0.5; stroke: #ff7f0e; stroke-opacity: 0.5; stroke-linejoin: miter"/>
     <path d="M 243.762419 236.355113 
L 245.762419 237.355113 
L 245.762419 235.355113 
z
" clip-path="url(#pd183ce2562)" style="fill: #ff7f0e; fill-opacity: 0.5; stroke: #ff7f0e; stroke-opacity: 0.5; stroke-linejoin: miter"/>
     <path d="M 243.762419 208.976922 
L 245.762419 209.976922 
L 245.762419 207.976922 
z
" clip-path="url(#pd183ce2562)" style="fill: #ff7f0e; fill-opacity: 0.5; stroke: #ff7f0e; stroke-opacity: 0.5; stroke-linejoin: miter"/>
     <path d="M 243.762419 170.52594 
L 245.762419 171.52594 
L 245.762419 169.52594 
z
" clip-path="url(#pd183ce2562)" style="fill: #ff7f0e; fill-opacity: 0.5; stroke: #ff7f0e; stroke-opacity: 0.5; stroke-linejoin: miter"/>
     <path d="M 243.762419 207.778232 
L 245.762419 208.778232 
L 245.762419 206.778232 
z
" clip-path="url(#pd183ce2562)" style="fill: #ff7f0e; fill-opacity: 0.5; stroke: #ff7f0e; stroke-opacity: 0.5; stroke-linejoin: miter"/>
     <path d="M 243.762419 245.55953 
L 245.762419 246.55953 
L 245.762419 244.55953 
z
" clip-path="url(#pd183ce2562)" style="fill: #ff7f0e; fill-opacity: 0.5; stroke: #ff7f0e; stroke-opacity: 0.5; stroke-linejoin: miter"/>
     <path d="M 297.618831 188.73325 
L 295.618831 187.73325 
L 295.618831 189.73325 
z
" clip-path="url(#pd183ce2562)" style="fill: #1f77b4; fill-opacity: 0.5; stroke: #1f77b4; stroke-opacity: 0.5; stroke-linejoin: miter"/>
     <path d="M 297.618831 213.010492 
L 295.618831 212.010492 
L 295.618831 214.010492 
z
" clip-path="url(#pd183ce2562)" style="fill: #1f77b4; fill-opacity: 0.5; stroke: #1f77b4; stroke-opacity: 0.5; stroke-linejoin: miter"/>
     <path d="M 297.618831 219.539955 
L 295.618831 218.539955 
L 295.618831 220.539955 
z
" clip-path="url(#pd183ce2562)" style="fill: #1f77b4; fill-opacity: 0.5; stroke: #1f77b4; stroke-opacity: 0.5; stroke-linejoin: miter"/>
     <path d="M 297.618831 190.116347 
L 295.618831 189.116347 
L 295.618831 191.116347 
z
" clip-path="url(#pd183ce2562)" style="fill: #1f77b4; fill-opacity: 0.5; stroke: #1f77b4; stroke-opacity: 0.5; stroke-linejoin: miter"/>
     <path d="M 297.618831 241.452525 
L 295.618831 240.452525 
L 295.618831 242.452525 
z
" clip-path="url(#pd183ce2562)" style="fill: #1f77b4; fill-opacity: 0.5; stroke: #1f77b4; stroke-opacity: 0.5; stroke-linejoin: miter"/>
     <path d="M 297.618831 207.458091 
L 295.618831 206.458091 
L 295.618831 208.458091 
z
" clip-path="url(#pd183ce2562)" style="fill: #1f77b4; fill-opacity: 0.5; stroke: #1f77b4; stroke-opacity: 0.5; stroke-linejoin: miter"/>
     <path d="M 297.618831 254.840611 
L 295.618831 253.840611 
L 295.618831 255.840611 
z
" clip-path="url(#pd183ce2562)" style="fill: #1f77b4; fill-opacity: 0.5; stroke: #1f77b4; stroke-opacity: 0.5; stroke-linejoin: miter"/>
     <path d="M 297.618831 178.419715 
L 295.618831 177.419715 
L 295.618831 179.419715 
z
" clip-path="url(#pd183ce2562)" style="fill: #1f77b4; fill-opacity: 0.5; stroke: #1f77b4; stroke-opacity: 0.5; stroke-linejoin: miter"/>
     <path d="M 297.618831 180.169448 
L 295.618831 179.169448 
L 295.618831 181.169448 
z
" clip-path="url(#pd183ce2562)" style="fill: #1f77b4; fill-opacity: 0.5; stroke: #1f77b4; stroke-opacity: 0.5; stroke-linejoin: miter"/>
     <path d="M 297.618831 221.311499 
L 295.618831 220.311499 
L 295.618831 222.311499 
z
" clip-path="url(#pd183ce2562)" style="fill: #1f77b4; fill-opacity: 0.5; stroke: #1f77b4; stroke-opacity: 0.5; stroke-linejoin: miter"/>
     <g id="patch_5">
      <path d="M 43.78125 260.421875 
L 43.78125 22.318125 
" style="fill: none; stroke: #000000; stroke-width: 0.8; stroke-linejoin: miter; stroke-linecap: square"/>
     </g>
     <g id="text_10">
      <!-- defaults_symmetric_migration_changing_rate.yaml -->
      <g transform="translate(117.1525 16.318125)scale(0.12 -0.12)">
       <defs>
        <path id="DejaVuSans-66" d="M 2375 4863 
L 2375 4384 
L 1825 4384 
Q 1516 4384 1395 4259 
Q 1275 4134 1275 3809 
L 1275 3500 
L 2222 3500 
L 2222 3053 
L 1275 3053 
L 1275 0 
L 697 0 
L 697 3053 
L 147 3053 
L 147 3500 
L 697 3500 
L 697 3744 
Q 697 4328 969 4595 
Q 1241 4863 1831 4863 
L 2375 4863 
z
" transform="scale(0.015625)"/>
        <path id="DejaVuSans-75" d="M 544 1381 
L 544 3500 
L 1119 3500 
L 1119 1403 
Q 1119 906 1312 657 
Q 1506 409 1894 409 
Q 2359 409 2629 706 
Q 2900 1003 2900 1516 
L 2900 3500 
L 3475 3500 
L 3475 0 
L 2900 0 
L 2900 538 
Q 2691 219 2414 64 
Q 2138 -91 1772 -91 
Q 1169 -91 856 284 
Q 544 659 544 1381 
z
M 1991 3584 
L 1991 3584 
z
" transform="scale(0.015625)"/>
        <path id="DejaVuSans-6c" d="M 603 4863 
L 1178 4863 
L 1178 0 
L 603 0 
L 603 4863 
z
" transform="scale(0.015625)"/>
        <path id="DejaVuSans-5f" d="M 3263 -1063 
L 3263 -1509 
L -63 -1509 
L -63 -1063 
L 3263 -1063 
z
" transform="scale(0.015625)"/>
        <path id="DejaVuSans-79" d="M 2059 -325 
Q 1816 -950 1584 -1140 
Q 1353 -1331 966 -1331 
L 506 -1331 
L 506 -850 
L 844 -850 
Q 1081 -850 1212 -737 
Q 1344 -625 1503 -206 
L 1606 56 
L 191 3500 
L 800 3500 
L 1894 763 
L 2988 3500 
L 3597 3500 
L 2059 -325 
z
" transform="scale(0.015625)"/>
        <path id="DejaVuSans-63" d="M 3122 3366 
L 3122 2828 
Q 2878 2963 2633 3030 
Q 2388 3097 2138 3097 
Q 1578 3097 1268 2742 
Q 959 2388 959 1747 
Q 959 1106 1268 751 
Q 1578 397 2138 397 
Q 2388 397 2633 464 
Q 2878 531 3122 666 
L 3122 134 
Q 2881 22 2623 -34 
Q 2366 -91 2075 -91 
Q 1284 -91 818 406 
Q 353 903 353 1747 
Q 353 2603 823 3093 
Q 1294 3584 2113 3584 
Q 2378 3584 2631 3529 
Q 2884 3475 3122 3366 
z
" transform="scale(0.015625)"/>
        <path id="DejaVuSans-68" d="M 3513 2113 
L 3513 0 
L 2938 0 
L 2938 2094 
Q 2938 2591 2744 2837 
Q 2550 3084 2163 3084 
Q 1697 3084 1428 2787 
Q 1159 2491 1159 1978 
L 1159 0 
L 581 0 
L 581 4863 
L 1159 4863 
L 1159 2956 
Q 1366 3272 1645 3428 
Q 1925 3584 2291 3584 
Q 2894 3584 3203 3211 
Q 3513 2838 3513 2113 
z
" transform="scale(0.015625)"/>
       </defs>
       <use xlink:href="#DejaVuSans-64"/>
       <use xlink:href="#DejaVuSans-65" x="63.476562"/>
       <use xlink:href="#DejaVuSans-66" x="125"/>
       <use xlink:href="#DejaVuSans-61" x="160.205078"/>
       <use xlink:href="#DejaVuSans-75" x="221.484375"/>
       <use xlink:href="#DejaVuSans-6c" x="284.863281"/>
       <use xlink:href="#DejaVuSans-74" x="312.646484"/>
       <use xlink:href="#DejaVuSans-73" x="351.855469"/>
       <use xlink:href="#DejaVuSans-5f" x="403.955078"/>
       <use xlink:href="#DejaVuSans-73" x="453.955078"/>
       <use xlink:href="#DejaVuSans-79" x="506.054688"/>
       <use xlink:href="#DejaVuSans-6d" x="565.234375"/>
       <use xlink:href="#DejaVuSans-6d" x="662.646484"/>
       <use xlink:href="#DejaVuSans-65" x="760.058594"/>
       <use xlink:href="#DejaVuSans-74" x="821.582031"/>
       <use xlink:href="#DejaVuSans-72" x="860.791016"/>
       <use xlink:href="#DejaVuSans-69" x="901.904297"/>
       <use xlink:href="#DejaVuSans-63" x="929.6875"/>
       <use xlink:href="#DejaVuSans-5f" x="984.667969"/>
       <use xlink:href="#DejaVuSans-6d" x="1034.667969"/>
       <use xlink:href="#DejaVuSans-69" x="1132.080078"/>
       <use xlink:href="#DejaVuSans-67" x="1159.863281"/>
       <use xlink:href="#DejaVuSans-72" x="1223.339844"/>
       <use xlink:href="#DejaVuSans-61" x="1264.453125"/>
       <use xlink:href="#DejaVuSans-74" x="1325.732422"/>
       <use xlink:href="#DejaVuSans-69" x="1364.941406"/>
       <use xlink:href="#DejaVuSans-6f" x="1392.724609"/>
       <use xlink:href="#DejaVuSans-6e" x="1453.90625"/>
       <use xlink:href="#DejaVuSans-5f" x="1517.285156"/>
       <use xlink:href="#DejaVuSans-63" x="1567.285156"/>
       <use xlink:href="#DejaVuSans-68" x="1622.265625"/>
       <use xlink:href="#DejaVuSans-61" x="1685.644531"/>
       <use xlink:href="#DejaVuSans-6e" x="1746.923828"/>
       <use xlink:href="#DejaVuSans-67" x="1810.302734"/>
       <use xlink:href="#DejaVuSans-69" x="1873.779297"/>
       <use xlink:href="#DejaVuSans-6e" x="1901.5625"/>
       <use xlink:href="#DejaVuSans-67" x="1964.941406"/>
       <use xlink:href="#DejaVuSans-5f" x="2028.417969"/>
       <use xlink:href="#DejaVuSans-72" x="2078.417969"/>
       <use xlink:href="#DejaVuSans-61" x="2119.53125"/>
       <use xlink:href="#DejaVuSans-74" x="2180.810547"/>
       <use xlink:href="#DejaVuSans-65" x="2220.019531"/>
       <use xlink:href="#DejaVuSans-2e" x="2281.542969"/>
       <use xlink:href="#DejaVuSans-79" x="2313.330078"/>
       <use xlink:href="#DejaVuSans-61" x="2372.509766"/>
       <use xlink:href="#DejaVuSans-6d" x="2433.789062"/>
       <use xlink:href="#DejaVuSans-6c" x="2531.201172"/>
      </g>
     </g>
    </g>
   </g>
   <defs>
    <clipPath id="pd183ce2562">
     <rect x="43.78125" y="22.318125" width="453.81875" height="238.10375"/>
    </clipPath>
   </defs>
  </g>
 </g>
</svg>
