<?xml version="1.0" encoding="utf-8" standalone="no"?>
<!DOCTYPE svg PUBLIC "-//W3C//DTD SVG 1.1//EN"
  "http://www.w3.org/Graphics/SVG/1.1/DTD/svg11.dtd">
<svg xmlns:xlink="http://www.w3.org/1999/xlink" width="504.8pt" height="280.8pt" viewBox="0 0 504.8 280.8" xmlns="http://www.w3.org/2000/svg" version="1.1">
 <metadata>
  <rdf:RDF xmlns:dc="http://purl.org/dc/elements/1.1/" xmlns:cc="http://creativecommons.org/ns#" xmlns:rdf="http://www.w3.org/1999/02/22-rdf-syntax-ns#">
   <cc:Work>
    <dc:type rdf:resource="http://purl.org/dc/dcmitype/StillImage"/>
    <dc:date>2022-05-09T08:20:28.589310</dc:date>
    <dc:format>image/svg+xml</dc:format>
    <dc:creator>
     <cc:Agent>
      <dc:title>Matplotlib v3.5.2, https://matplotlib.org/</dc:title>
     </cc:Agent>
    </dc:creator>
   </cc:Work>
  </rdf:RDF>
 </metadata>
 <defs>
  <style type="text/css">*{stroke-linejoin: round; stroke-linecap: butt}</style>
 </defs>
 <g id="figure_1">
  <g id="patch_1">
   <path d="M 0 280.8 
L 504.8 280.8 
L 504.8 0 
L 0 0 
L 0 280.8 
z
" style="fill: none"/>
  </g>
  <g id="axes_1">
   <g id="patch_2">
    <path d="M 43.78125 260.421875 
L 497.6 260.421875 
L 497.6 22.318125 
L 43.78125 22.318125 
z
" style="fill: #ffffff"/>
   </g>
   <path d="M 169.606632 97.872626 
L 170.606632 97.904062 
L 171.606632 97.941003 
L 172.606632 98.038749 
L 173.606632 98.071271 
L 174.606632 98.144895 
L 175.606632 98.183461 
L 176.606632 98.218874 
L 177.606632 98.276514 
L 178.606632 98.3469 
L 179.606632 98.398865 
L 180.606632 98.457954 
L 181.606632 98.546275 
L 182.606632 98.59242 
L 183.606632 98.634831 
L 184.606632 98.665323 
L 185.606632 98.691368 
L 186.606632 98.712568 
L 187.606632 98.766869 
L 188.606632 98.794807 
L 189.606632 98.824531 
L 190.606632 98.849926 
L 191.606632 98.861126 
L 192.606632 98.87125 
L 193.606632 98.871046 
L 194.606632 98.861536 
L 195.606632 98.849882 
L 196.606632 98.818853 
L 197.606632 98.807685 
L 198.606632 98.777568 
L 199.606632 98.717791 
L 200.606632 98.680599 
L 201.606632 98.641503 
L 202.606632 98.599063 
L 203.606632 98.566298 
L 204.606632 98.498872 
L 205.606632 98.459746 
L 206.606632 98.417071 
L 207.606632 98.346491 
L 208.606632 98.3101 
L 209.606632 98.251697 
L 210.606632 98.140744 
L 211.606632 98.070086 
L 212.606632 97.957146 
L 213.606632 97.911373 
L 214.606632 97.85009 
L 215.822903 97.80159 
" clip-path="url(#pd1e328905f)" style="fill: none; stroke: #1f77b4; stroke-opacity: 0.5; stroke-width: 0.2; stroke-linecap: square"/>
   <path d="M 169.606632 140.831172 
L 170.606632 140.862608 
L 171.606632 140.899549 
L 172.606632 140.997295 
L 173.606632 141.029817 
L 174.606632 141.103441 
L 175.606632 141.142007 
L 176.606632 141.17742 
L 177.606632 141.23506 
L 178.606632 141.305446 
L 179.606632 141.357411 
L 180.606632 141.4165 
L 181.606632 141.504821 
L 182.606632 141.550966 
L 183.606632 141.593377 
L 184.606632 141.623869 
L 185.606632 141.649914 
L 186.606632 141.671114 
L 187.606632 141.725415 
L 188.606632 141.753353 
L 189.606632 141.783077 
L 190.606632 141.808472 
L 191.606632 141.819672 
L 192.606632 141.829796 
L 193.606632 141.829592 
L 194.606632 141.820082 
L 195.606632 141.808428 
L 196.606632 141.777399 
L 197.606632 141.766231 
L 198.606632 141.736114 
L 199.606632 141.676337 
L 200.606632 141.639145 
L 201.606632 141.600049 
L 202.606632 141.557609 
L 203.606632 141.524844 
L 204.606632 141.457418 
L 205.606632 141.418292 
L 206.606632 141.375617 
L 207.606632 141.305037 
L 208.606632 141.268646 
L 209.606632 141.210243 
L 210.606632 141.09929 
L 211.606632 141.028632 
L 212.606632 140.915692 
L 213.606632 140.869919 
L 214.606632 140.808636 
L 215.822903 140.760137 
" clip-path="url(#pd1e328905f)" style="fill: none; stroke: #1f77b4; stroke-opacity: 0.5; stroke-width: 0.2; stroke-linecap: square"/>
   <path d="M 169.606632 81.94036 
L 170.606632 81.971797 
L 171.606632 82.008737 
L 172.606632 82.106484 
L 173.606632 82.139005 
L 174.606632 82.21263 
L 175.606632 82.251195 
L 176.606632 82.286609 
L 177.606632 82.344249 
L 178.606632 82.414635 
L 179.606632 82.466599 
L 180.606632 82.525689 
L 181.606632 82.61401 
L 182.606632 82.660154 
L 183.606632 82.702565 
L 184.606632 82.733058 
L 185.606632 82.759103 
L 186.606632 82.780303 
L 187.606632 82.834604 
L 188.606632 82.862541 
L 189.606632 82.892265 
L 190.606632 82.91766 
L 191.606632 82.92886 
L 192.606632 82.938984 
L 193.606632 82.93878 
L 194.606632 82.92927 
L 195.606632 82.917617 
L 196.606632 82.886587 
L 197.606632 82.875419 
L 198.606632 82.845302 
L 199.606632 82.785525 
L 200.606632 82.748333 
L 201.606632 82.709237 
L 202.606632 82.666798 
L 203.606632 82.634033 
L 204.606632 82.566606 
L 205.606632 82.52748 
L 206.606632 82.484806 
L 207.606632 82.414225 
L 208.606632 82.377834 
L 209.606632 82.319431 
L 210.606632 82.208478 
L 211.606632 82.13782 
L 212.606632 82.02488 
L 213.606632 81.979107 
L 214.606632 81.917824 
L 215.822903 81.869325 
" clip-path="url(#pd1e328905f)" style="fill: none; stroke: #1f77b4; stroke-opacity: 0.5; stroke-width: 0.2; stroke-linecap: square"/>
   <path d="M 169.606632 109.702271 
L 170.606632 109.733708 
L 171.606632 109.770648 
L 172.606632 109.868395 
L 173.606632 109.900916 
L 174.606632 109.974541 
L 175.606632 110.013107 
L 176.606632 110.04852 
L 177.606632 110.10616 
L 178.606632 110.176546 
L 179.606632 110.22851 
L 180.606632 110.2876 
L 181.606632 110.375921 
L 182.606632 110.422065 
L 183.606632 110.464476 
L 184.606632 110.494969 
L 185.606632 110.521014 
L 186.606632 110.542214 
L 187.606632 110.596515 
L 188.606632 110.624452 
L 189.606632 110.654176 
L 190.606632 110.679571 
L 191.606632 110.690772 
L 192.606632 110.700896 
L 193.606632 110.700691 
L 194.606632 110.691181 
L 195.606632 110.679528 
L 196.606632 110.648499 
L 197.606632 110.637331 
L 198.606632 110.607213 
L 199.606632 110.547436 
L 200.606632 110.510245 
L 201.606632 110.471149 
L 202.606632 110.428709 
L 203.606632 110.395944 
L 204.606632 110.328517 
L 205.606632 110.289391 
L 206.606632 110.246717 
L 207.606632 110.176136 
L 208.606632 110.139745 
L 209.606632 110.081342 
L 210.606632 109.97039 
L 211.606632 109.899731 
L 212.606632 109.786791 
L 213.606632 109.741019 
L 214.606632 109.679735 
L 215.822903 109.631236 
" clip-path="url(#pd1e328905f)" style="fill: none; stroke: #1f77b4; stroke-opacity: 0.5; stroke-width: 0.2; stroke-linecap: square"/>
   <path d="M 169.606632 83.707605 
L 170.606632 83.739042 
L 171.606632 83.775982 
L 172.606632 83.873729 
L 173.606632 83.90625 
L 174.606632 83.979875 
L 175.606632 84.01844 
L 176.606632 84.053854 
L 177.606632 84.111494 
L 178.606632 84.18188 
L 179.606632 84.233844 
L 180.606632 84.292934 
L 181.606632 84.381255 
L 182.606632 84.427399 
L 183.606632 84.46981 
L 184.606632 84.500303 
L 185.606632 84.526348 
L 186.606632 84.547548 
L 187.606632 84.601849 
L 188.606632 84.629786 
L 189.606632 84.65951 
L 190.606632 84.684905 
L 191.606632 84.696105 
L 192.606632 84.706229 
L 193.606632 84.706025 
L 194.606632 84.696515 
L 195.606632 84.684862 
L 196.606632 84.653832 
L 197.606632 84.642664 
L 198.606632 84.612547 
L 199.606632 84.55277 
L 200.606632 84.515578 
L 201.606632 84.476482 
L 202.606632 84.434043 
L 203.606632 84.401278 
L 204.606632 84.333851 
L 205.606632 84.294725 
L 206.606632 84.252051 
L 207.606632 84.18147 
L 208.606632 84.145079 
L 209.606632 84.086676 
L 210.606632 83.975723 
L 211.606632 83.905065 
L 212.606632 83.792125 
L 213.606632 83.746352 
L 214.606632 83.685069 
L 215.822903 83.63657 
" clip-path="url(#pd1e328905f)" style="fill: none; stroke: #1f77b4; stroke-opacity: 0.5; stroke-width: 0.2; stroke-linecap: square"/>
   <path d="M 169.606632 132.401297 
L 170.606632 132.432733 
L 171.606632 132.469673 
L 172.606632 132.56742 
L 173.606632 132.599942 
L 174.606632 132.673566 
L 175.606632 132.712132 
L 176.606632 132.747545 
L 177.606632 132.805185 
L 178.606632 132.875571 
L 179.606632 132.927535 
L 180.606632 132.986625 
L 181.606632 133.074946 
L 182.606632 133.12109 
L 183.606632 133.163501 
L 184.606632 133.193994 
L 185.606632 133.220039 
L 186.606632 133.241239 
L 187.606632 133.29554 
L 188.606632 133.323478 
L 189.606632 133.353202 
L 190.606632 133.378596 
L 191.606632 133.389797 
L 192.606632 133.399921 
L 193.606632 133.399716 
L 194.606632 133.390207 
L 195.606632 133.378553 
L 196.606632 133.347524 
L 197.606632 133.336356 
L 198.606632 133.306238 
L 199.606632 133.246461 
L 200.606632 133.20927 
L 201.606632 133.170174 
L 202.606632 133.127734 
L 203.606632 133.094969 
L 204.606632 133.027543 
L 205.606632 132.988417 
L 206.606632 132.945742 
L 207.606632 132.875162 
L 208.606632 132.838771 
L 209.606632 132.780367 
L 210.606632 132.669415 
L 211.606632 132.598757 
L 212.606632 132.485817 
L 213.606632 132.440044 
L 214.606632 132.378761 
L 215.822903 132.330261 
" clip-path="url(#pd1e328905f)" style="fill: none; stroke: #1f77b4; stroke-opacity: 0.5; stroke-width: 0.2; stroke-linecap: square"/>
   <path d="M 169.606632 157.713975 
L 170.606632 157.745412 
L 171.606632 157.782352 
L 172.606632 157.880099 
L 173.606632 157.91262 
L 174.606632 157.986245 
L 175.606632 158.02481 
L 176.606632 158.060224 
L 177.606632 158.117863 
L 178.606632 158.18825 
L 179.606632 158.240214 
L 180.606632 158.299304 
L 181.606632 158.387625 
L 182.606632 158.433769 
L 183.606632 158.47618 
L 184.606632 158.506673 
L 185.606632 158.532717 
L 186.606632 158.553918 
L 187.606632 158.608219 
L 188.606632 158.636156 
L 189.606632 158.66588 
L 190.606632 158.691275 
L 191.606632 158.702475 
L 192.606632 158.712599 
L 193.606632 158.712395 
L 194.606632 158.702885 
L 195.606632 158.691232 
L 196.606632 158.660202 
L 197.606632 158.649034 
L 198.606632 158.618917 
L 199.606632 158.55914 
L 200.606632 158.521948 
L 201.606632 158.482852 
L 202.606632 158.440413 
L 203.606632 158.407648 
L 204.606632 158.340221 
L 205.606632 158.301095 
L 206.606632 158.258421 
L 207.606632 158.18784 
L 208.606632 158.151449 
L 209.606632 158.093046 
L 210.606632 157.982093 
L 211.606632 157.911435 
L 212.606632 157.798495 
L 213.606632 157.752722 
L 214.606632 157.691439 
L 215.822903 157.64294 
" clip-path="url(#pd1e328905f)" style="fill: none; stroke: #1f77b4; stroke-opacity: 0.5; stroke-width: 0.2; stroke-linecap: square"/>
   <path d="M 169.606632 128.9424 
L 170.606632 128.973837 
L 171.606632 129.010777 
L 172.606632 129.108524 
L 173.606632 129.141045 
L 174.606632 129.21467 
L 175.606632 129.253236 
L 176.606632 129.288649 
L 177.606632 129.346289 
L 178.606632 129.416675 
L 179.606632 129.468639 
L 180.606632 129.527729 
L 181.606632 129.61605 
L 182.606632 129.662194 
L 183.606632 129.704605 
L 184.606632 129.735098 
L 185.606632 129.761143 
L 186.606632 129.782343 
L 187.606632 129.836644 
L 188.606632 129.864581 
L 189.606632 129.894305 
L 190.606632 129.9197 
L 191.606632 129.930901 
L 192.606632 129.941025 
L 193.606632 129.94082 
L 194.606632 129.93131 
L 195.606632 129.919657 
L 196.606632 129.888627 
L 197.606632 129.87746 
L 198.606632 129.847342 
L 199.606632 129.787565 
L 200.606632 129.750374 
L 201.606632 129.711277 
L 202.606632 129.668838 
L 203.606632 129.636073 
L 204.606632 129.568646 
L 205.606632 129.52952 
L 206.606632 129.486846 
L 207.606632 129.416265 
L 208.606632 129.379874 
L 209.606632 129.321471 
L 210.606632 129.210519 
L 211.606632 129.13986 
L 212.606632 129.02692 
L 213.606632 128.981148 
L 214.606632 128.919864 
L 215.822903 128.871365 
" clip-path="url(#pd1e328905f)" style="fill: none; stroke: #1f77b4; stroke-opacity: 0.5; stroke-width: 0.2; stroke-linecap: square"/>
   <path d="M 169.606632 129.474632 
L 170.606632 129.506068 
L 171.606632 129.543009 
L 172.606632 129.640755 
L 173.606632 129.673277 
L 174.606632 129.746901 
L 175.606632 129.785467 
L 176.606632 129.82088 
L 177.606632 129.87852 
L 178.606632 129.948906 
L 179.606632 130.000871 
L 180.606632 130.05996 
L 181.606632 130.148281 
L 182.606632 130.194426 
L 183.606632 130.236836 
L 184.606632 130.267329 
L 185.606632 130.293374 
L 186.606632 130.314574 
L 187.606632 130.368875 
L 188.606632 130.396813 
L 189.606632 130.426537 
L 190.606632 130.451932 
L 191.606632 130.463132 
L 192.606632 130.473256 
L 193.606632 130.473052 
L 194.606632 130.463542 
L 195.606632 130.451888 
L 196.606632 130.420859 
L 197.606632 130.409691 
L 198.606632 130.379573 
L 199.606632 130.319797 
L 200.606632 130.282605 
L 201.606632 130.243509 
L 202.606632 130.201069 
L 203.606632 130.168304 
L 204.606632 130.100878 
L 205.606632 130.061752 
L 206.606632 130.019077 
L 207.606632 129.948497 
L 208.606632 129.912106 
L 209.606632 129.853703 
L 210.606632 129.74275 
L 211.606632 129.672092 
L 212.606632 129.559152 
L 213.606632 129.513379 
L 214.606632 129.452096 
L 215.822903 129.403596 
" clip-path="url(#pd1e328905f)" style="fill: none; stroke: #1f77b4; stroke-opacity: 0.5; stroke-width: 0.2; stroke-linecap: square"/>
   <path d="M 169.606632 131.370163 
L 170.606632 131.401599 
L 171.606632 131.438539 
L 172.606632 131.536286 
L 173.606632 131.568808 
L 174.606632 131.642432 
L 175.606632 131.680998 
L 176.606632 131.716411 
L 177.606632 131.774051 
L 178.606632 131.844437 
L 179.606632 131.896401 
L 180.606632 131.955491 
L 181.606632 132.043812 
L 182.606632 132.089956 
L 183.606632 132.132367 
L 184.606632 132.16286 
L 185.606632 132.188905 
L 186.606632 132.210105 
L 187.606632 132.264406 
L 188.606632 132.292344 
L 189.606632 132.322068 
L 190.606632 132.347462 
L 191.606632 132.358663 
L 192.606632 132.368787 
L 193.606632 132.368582 
L 194.606632 132.359073 
L 195.606632 132.347419 
L 196.606632 132.31639 
L 197.606632 132.305222 
L 198.606632 132.275104 
L 199.606632 132.215327 
L 200.606632 132.178136 
L 201.606632 132.13904 
L 202.606632 132.0966 
L 203.606632 132.063835 
L 204.606632 131.996409 
L 205.606632 131.957283 
L 206.606632 131.914608 
L 207.606632 131.844027 
L 208.606632 131.807637 
L 209.606632 131.749233 
L 210.606632 131.638281 
L 211.606632 131.567623 
L 212.606632 131.454683 
L 213.606632 131.40891 
L 214.606632 131.347627 
L 215.822903 131.299127 
" clip-path="url(#pd1e328905f)" style="fill: none; stroke: #1f77b4; stroke-opacity: 0.5; stroke-width: 0.2; stroke-linecap: square"/>
   <path d="M 325.558347 104.661788 
L 326.558347 104.693225 
L 327.558347 104.730165 
L 328.558347 104.827912 
L 329.558347 104.860433 
L 330.558347 104.934058 
L 331.558347 104.972623 
L 332.558347 105.008037 
L 333.558347 105.065677 
L 334.558347 105.136063 
L 335.558347 105.188027 
L 336.558347 105.247117 
L 337.558347 105.335438 
L 338.558347 105.381582 
L 339.558347 105.423993 
L 340.558347 105.454486 
L 341.558347 105.480531 
L 342.558347 105.501731 
L 343.558347 105.556032 
L 344.558347 105.583969 
L 345.558347 105.613693 
L 346.558347 105.639088 
L 347.558347 105.650288 
L 348.558347 105.660412 
L 349.558347 105.660208 
L 350.558347 105.650698 
L 351.558347 105.639045 
L 352.558347 105.608015 
L 353.558347 105.596847 
L 354.558347 105.56673 
L 355.558347 105.506953 
L 356.558347 105.469761 
L 357.558347 105.430665 
L 358.558347 105.388226 
L 359.558347 105.355461 
L 360.558347 105.288034 
L 361.558347 105.248908 
L 362.558347 105.206234 
L 363.558347 105.135653 
L 364.558347 105.099262 
L 365.558347 105.040859 
L 366.558347 104.929906 
L 367.558347 104.859248 
L 368.558347 104.746308 
L 369.558347 104.700535 
L 370.558347 104.639252 
L 371.774618 104.590753 
" clip-path="url(#pd1e328905f)" style="fill: none; stroke: #ff7f0e; stroke-opacity: 0.5; stroke-width: 0.2; stroke-linecap: square"/>
   <path d="M 325.558347 138.668498 
L 326.558347 138.699935 
L 327.558347 138.736875 
L 328.558347 138.834622 
L 329.558347 138.867143 
L 330.558347 138.940768 
L 331.558347 138.979333 
L 332.558347 139.014747 
L 333.558347 139.072386 
L 334.558347 139.142773 
L 335.558347 139.194737 
L 336.558347 139.253827 
L 337.558347 139.342148 
L 338.558347 139.388292 
L 339.558347 139.430703 
L 340.558347 139.461196 
L 341.558347 139.48724 
L 342.558347 139.508441 
L 343.558347 139.562742 
L 344.558347 139.590679 
L 345.558347 139.620403 
L 346.558347 139.645798 
L 347.558347 139.656998 
L 348.558347 139.667122 
L 349.558347 139.666918 
L 350.558347 139.657408 
L 351.558347 139.645755 
L 352.558347 139.614725 
L 353.558347 139.603557 
L 354.558347 139.57344 
L 355.558347 139.513663 
L 356.558347 139.476471 
L 357.558347 139.437375 
L 358.558347 139.394936 
L 359.558347 139.362171 
L 360.558347 139.294744 
L 361.558347 139.255618 
L 362.558347 139.212944 
L 363.558347 139.142363 
L 364.558347 139.105972 
L 365.558347 139.047569 
L 366.558347 138.936616 
L 367.558347 138.865958 
L 368.558347 138.753018 
L 369.558347 138.707245 
L 370.558347 138.645962 
L 371.774618 138.597463 
" clip-path="url(#pd1e328905f)" style="fill: none; stroke: #ff7f0e; stroke-opacity: 0.5; stroke-width: 0.2; stroke-linecap: square"/>
   <path d="M 325.558347 124.822137 
L 326.558347 124.853573 
L 327.558347 124.890514 
L 328.558347 124.98826 
L 329.558347 125.020782 
L 330.558347 125.094406 
L 331.558347 125.132972 
L 332.558347 125.168385 
L 333.558347 125.226025 
L 334.558347 125.296411 
L 335.558347 125.348376 
L 336.558347 125.407465 
L 337.558347 125.495786 
L 338.558347 125.541931 
L 339.558347 125.584341 
L 340.558347 125.614834 
L 341.558347 125.640879 
L 342.558347 125.662079 
L 343.558347 125.71638 
L 344.558347 125.744318 
L 345.558347 125.774042 
L 346.558347 125.799437 
L 347.558347 125.810637 
L 348.558347 125.820761 
L 349.558347 125.820557 
L 350.558347 125.811047 
L 351.558347 125.799393 
L 352.558347 125.768364 
L 353.558347 125.757196 
L 354.558347 125.727079 
L 355.558347 125.667302 
L 356.558347 125.63011 
L 357.558347 125.591014 
L 358.558347 125.548574 
L 359.558347 125.515809 
L 360.558347 125.448383 
L 361.558347 125.409257 
L 362.558347 125.366582 
L 363.558347 125.296002 
L 364.558347 125.259611 
L 365.558347 125.201208 
L 366.558347 125.090255 
L 367.558347 125.019597 
L 368.558347 124.906657 
L 369.558347 124.860884 
L 370.558347 124.799601 
L 371.774618 124.751101 
" clip-path="url(#pd1e328905f)" style="fill: none; stroke: #ff7f0e; stroke-opacity: 0.5; stroke-width: 0.2; stroke-linecap: square"/>
   <path d="M 325.558347 114.785526 
L 326.558347 114.816963 
L 327.558347 114.853903 
L 328.558347 114.95165 
L 329.558347 114.984171 
L 330.558347 115.057796 
L 331.558347 115.096362 
L 332.558347 115.131775 
L 333.558347 115.189415 
L 334.558347 115.259801 
L 335.558347 115.311765 
L 336.558347 115.370855 
L 337.558347 115.459176 
L 338.558347 115.50532 
L 339.558347 115.547731 
L 340.558347 115.578224 
L 341.558347 115.604269 
L 342.558347 115.625469 
L 343.558347 115.67977 
L 344.558347 115.707707 
L 345.558347 115.737431 
L 346.558347 115.762826 
L 347.558347 115.774027 
L 348.558347 115.784151 
L 349.558347 115.783946 
L 350.558347 115.774436 
L 351.558347 115.762783 
L 352.558347 115.731754 
L 353.558347 115.720586 
L 354.558347 115.690468 
L 355.558347 115.630691 
L 356.558347 115.5935 
L 357.558347 115.554404 
L 358.558347 115.511964 
L 359.558347 115.479199 
L 360.558347 115.411772 
L 361.558347 115.372646 
L 362.558347 115.329972 
L 363.558347 115.259391 
L 364.558347 115.223 
L 365.558347 115.164597 
L 366.558347 115.053645 
L 367.558347 114.982986 
L 368.558347 114.870047 
L 369.558347 114.824274 
L 370.558347 114.76299 
L 371.774618 114.714491 
" clip-path="url(#pd1e328905f)" style="fill: none; stroke: #ff7f0e; stroke-opacity: 0.5; stroke-width: 0.2; stroke-linecap: square"/>
   <path d="M 325.558347 87.637247 
L 326.558347 87.668683 
L 327.558347 87.705624 
L 328.558347 87.80337 
L 329.558347 87.835892 
L 330.558347 87.909516 
L 331.558347 87.948082 
L 332.558347 87.983495 
L 333.558347 88.041135 
L 334.558347 88.111521 
L 335.558347 88.163485 
L 336.558347 88.222575 
L 337.558347 88.310896 
L 338.558347 88.35704 
L 339.558347 88.399451 
L 340.558347 88.429944 
L 341.558347 88.455989 
L 342.558347 88.477189 
L 343.558347 88.53149 
L 344.558347 88.559428 
L 345.558347 88.589152 
L 346.558347 88.614547 
L 347.558347 88.625747 
L 348.558347 88.635871 
L 349.558347 88.635667 
L 350.558347 88.626157 
L 351.558347 88.614503 
L 352.558347 88.583474 
L 353.558347 88.572306 
L 354.558347 88.542188 
L 355.558347 88.482411 
L 356.558347 88.44522 
L 357.558347 88.406124 
L 358.558347 88.363684 
L 359.558347 88.330919 
L 360.558347 88.263493 
L 361.558347 88.224367 
L 362.558347 88.181692 
L 363.558347 88.111112 
L 364.558347 88.074721 
L 365.558347 88.016318 
L 366.558347 87.905365 
L 367.558347 87.834707 
L 368.558347 87.721767 
L 369.558347 87.675994 
L 370.558347 87.614711 
L 371.774618 87.566211 
" clip-path="url(#pd1e328905f)" style="fill: none; stroke: #ff7f0e; stroke-opacity: 0.5; stroke-width: 0.2; stroke-linecap: square"/>
   <path d="M 325.558347 137.681082 
L 326.558347 137.712518 
L 327.558347 137.749458 
L 328.558347 137.847205 
L 329.558347 137.879726 
L 330.558347 137.953351 
L 331.558347 137.991917 
L 332.558347 138.02733 
L 333.558347 138.08497 
L 334.558347 138.155356 
L 335.558347 138.20732 
L 336.558347 138.26641 
L 337.558347 138.354731 
L 338.558347 138.400875 
L 339.558347 138.443286 
L 340.558347 138.473779 
L 341.558347 138.499824 
L 342.558347 138.521024 
L 343.558347 138.575325 
L 344.558347 138.603263 
L 345.558347 138.632987 
L 346.558347 138.658381 
L 347.558347 138.669582 
L 348.558347 138.679706 
L 349.558347 138.679501 
L 350.558347 138.669991 
L 351.558347 138.658338 
L 352.558347 138.627309 
L 353.558347 138.616141 
L 354.558347 138.586023 
L 355.558347 138.526246 
L 356.558347 138.489055 
L 357.558347 138.449959 
L 358.558347 138.407519 
L 359.558347 138.374754 
L 360.558347 138.307327 
L 361.558347 138.268201 
L 362.558347 138.225527 
L 363.558347 138.154946 
L 364.558347 138.118555 
L 365.558347 138.060152 
L 366.558347 137.9492 
L 367.558347 137.878541 
L 368.558347 137.765602 
L 369.558347 137.719829 
L 370.558347 137.658545 
L 371.774618 137.610046 
" clip-path="url(#pd1e328905f)" style="fill: none; stroke: #ff7f0e; stroke-opacity: 0.5; stroke-width: 0.2; stroke-linecap: square"/>
   <path d="M 325.558347 145.547536 
L 326.558347 145.578972 
L 327.558347 145.615912 
L 328.558347 145.713659 
L 329.558347 145.74618 
L 330.558347 145.819805 
L 331.558347 145.858371 
L 332.558347 145.893784 
L 333.558347 145.951424 
L 334.558347 146.02181 
L 335.558347 146.073774 
L 336.558347 146.132864 
L 337.558347 146.221185 
L 338.558347 146.267329 
L 339.558347 146.30974 
L 340.558347 146.340233 
L 341.558347 146.366278 
L 342.558347 146.387478 
L 343.558347 146.441779 
L 344.558347 146.469717 
L 345.558347 146.499441 
L 346.558347 146.524835 
L 347.558347 146.536036 
L 348.558347 146.54616 
L 349.558347 146.545955 
L 350.558347 146.536445 
L 351.558347 146.524792 
L 352.558347 146.493763 
L 353.558347 146.482595 
L 354.558347 146.452477 
L 355.558347 146.3927 
L 356.558347 146.355509 
L 357.558347 146.316413 
L 358.558347 146.273973 
L 359.558347 146.241208 
L 360.558347 146.173781 
L 361.558347 146.134655 
L 362.558347 146.091981 
L 363.558347 146.0214 
L 364.558347 145.985009 
L 365.558347 145.926606 
L 366.558347 145.815654 
L 367.558347 145.744995 
L 368.558347 145.632056 
L 369.558347 145.586283 
L 370.558347 145.524999 
L 371.774618 145.4765 
" clip-path="url(#pd1e328905f)" style="fill: none; stroke: #ff7f0e; stroke-opacity: 0.5; stroke-width: 0.2; stroke-linecap: square"/>
   <path d="M 325.558347 115.974919 
L 326.558347 116.006356 
L 327.558347 116.043296 
L 328.558347 116.141043 
L 329.558347 116.173564 
L 330.558347 116.247189 
L 331.558347 116.285755 
L 332.558347 116.321168 
L 333.558347 116.378808 
L 334.558347 116.449194 
L 335.558347 116.501158 
L 336.558347 116.560248 
L 337.558347 116.648569 
L 338.558347 116.694713 
L 339.558347 116.737124 
L 340.558347 116.767617 
L 341.558347 116.793662 
L 342.558347 116.814862 
L 343.558347 116.869163 
L 344.558347 116.8971 
L 345.558347 116.926824 
L 346.558347 116.952219 
L 347.558347 116.96342 
L 348.558347 116.973544 
L 349.558347 116.973339 
L 350.558347 116.963829 
L 351.558347 116.952176 
L 352.558347 116.921146 
L 353.558347 116.909979 
L 354.558347 116.879861 
L 355.558347 116.820084 
L 356.558347 116.782893 
L 357.558347 116.743796 
L 358.558347 116.701357 
L 359.558347 116.668592 
L 360.558347 116.601165 
L 361.558347 116.562039 
L 362.558347 116.519365 
L 363.558347 116.448784 
L 364.558347 116.412393 
L 365.558347 116.35399 
L 366.558347 116.243038 
L 367.558347 116.172379 
L 368.558347 116.059439 
L 369.558347 116.013667 
L 370.558347 115.952383 
L 371.774618 115.903884 
" clip-path="url(#pd1e328905f)" style="fill: none; stroke: #ff7f0e; stroke-opacity: 0.5; stroke-width: 0.2; stroke-linecap: square"/>
   <path d="M 325.558347 100.71038 
L 326.558347 100.741816 
L 327.558347 100.778756 
L 328.558347 100.876503 
L 329.558347 100.909025 
L 330.558347 100.982649 
L 331.558347 101.021215 
L 332.558347 101.056628 
L 333.558347 101.114268 
L 334.558347 101.184654 
L 335.558347 101.236618 
L 336.558347 101.295708 
L 337.558347 101.384029 
L 338.558347 101.430173 
L 339.558347 101.472584 
L 340.558347 101.503077 
L 341.558347 101.529122 
L 342.558347 101.550322 
L 343.558347 101.604623 
L 344.558347 101.632561 
L 345.558347 101.662285 
L 346.558347 101.687679 
L 347.558347 101.69888 
L 348.558347 101.709004 
L 349.558347 101.708799 
L 350.558347 101.69929 
L 351.558347 101.687636 
L 352.558347 101.656607 
L 353.558347 101.645439 
L 354.558347 101.615321 
L 355.558347 101.555544 
L 356.558347 101.518353 
L 357.558347 101.479257 
L 358.558347 101.436817 
L 359.558347 101.404052 
L 360.558347 101.336626 
L 361.558347 101.2975 
L 362.558347 101.254825 
L 363.558347 101.184244 
L 364.558347 101.147854 
L 365.558347 101.08945 
L 366.558347 100.978498 
L 367.558347 100.90784 
L 368.558347 100.7949 
L 369.558347 100.749127 
L 370.558347 100.687844 
L 371.774618 100.639344 
" clip-path="url(#pd1e328905f)" style="fill: none; stroke: #ff7f0e; stroke-opacity: 0.5; stroke-width: 0.2; stroke-linecap: square"/>
   <path d="M 325.558347 134.911074 
L 326.558347 134.94251 
L 327.558347 134.97945 
L 328.558347 135.077197 
L 329.558347 135.109718 
L 330.558347 135.183343 
L 331.558347 135.221909 
L 332.558347 135.257322 
L 333.558347 135.314962 
L 334.558347 135.385348 
L 335.558347 135.437312 
L 336.558347 135.496402 
L 337.558347 135.584723 
L 338.558347 135.630867 
L 339.558347 135.673278 
L 340.558347 135.703771 
L 341.558347 135.729816 
L 342.558347 135.751016 
L 343.558347 135.805317 
L 344.558347 135.833255 
L 345.558347 135.862979 
L 346.558347 135.888373 
L 347.558347 135.899574 
L 348.558347 135.909698 
L 349.558347 135.909493 
L 350.558347 135.899983 
L 351.558347 135.88833 
L 352.558347 135.857301 
L 353.558347 135.846133 
L 354.558347 135.816015 
L 355.558347 135.756238 
L 356.558347 135.719047 
L 357.558347 135.679951 
L 358.558347 135.637511 
L 359.558347 135.604746 
L 360.558347 135.537319 
L 361.558347 135.498194 
L 362.558347 135.455519 
L 363.558347 135.384938 
L 364.558347 135.348548 
L 365.558347 135.290144 
L 366.558347 135.179192 
L 367.558347 135.108533 
L 368.558347 134.995594 
L 369.558347 134.949821 
L 370.558347 134.888537 
L 371.774618 134.840038 
" clip-path="url(#pd1e328905f)" style="fill: none; stroke: #ff7f0e; stroke-opacity: 0.5; stroke-width: 0.2; stroke-linecap: square"/>
   <g id="patch_3">
    <path d="M 64.409375 22.318125 
L 64.409375 260.421875 
M 165.068445 22.318125 
L 165.068445 260.421875 
" clip-path="url(#pd1e328905f)" style="fill: none; stroke: #ffffff; stroke-width: 3; stroke-linejoin: miter"/>
    <path d="M 64.409375 22.318125 
L 64.409375 260.421875 
M 165.068445 22.318125 
L 165.068445 260.421875 
" clip-path="url(#pd1e328905f)" style="fill: none; stroke: #1f77b4; stroke-linejoin: miter"/>
    <g id="PolyCollection_1">
     <path d="M 165.068445 22.318125 
L 64.409375 22.318125 
L 64.409375 260.421875 
L 165.068445 260.421875 
L 165.068445 260.421875 
L 165.068445 22.318125 
z
" clip-path="url(#pd1e328905f)" style="fill: #1f77b4; fill-opacity: 0.5"/>
    </g>
    <g id="patch_4">
     <path d="M 220.36109 22.318125 
L 220.36109 260.421875 
M 321.02016 22.318125 
L 321.02016 260.421875 
" clip-path="url(#pd1e328905f)" style="fill: none; stroke: #ffffff; stroke-width: 3; stroke-linejoin: miter"/>
     <path d="M 220.36109 22.318125 
L 220.36109 260.421875 
M 321.02016 22.318125 
L 321.02016 260.421875 
" clip-path="url(#pd1e328905f)" style="fill: none; stroke: #ff7f0e; stroke-linejoin: miter"/>
     <g id="PolyCollection_2">
      <path d="M 321.02016 22.318125 
L 220.36109 22.318125 
L 220.36109 260.421875 
L 321.02016 260.421875 
L 321.02016 260.421875 
L 321.02016 22.318125 
z
" clip-path="url(#pd1e328905f)" style="fill: #ff7f0e; fill-opacity: 0.5"/>
     </g>
     <g id="patch_5">
      <path d="M 376.312805 22.318125 
L 376.312805 260.421875 
M 476.971875 22.318125 
L 476.971875 260.421875 
" clip-path="url(#pd1e328905f)" style="fill: none; stroke: #ffffff; stroke-width: 3; stroke-linejoin: miter"/>
      <path d="M 376.312805 22.318125 
L 376.312805 260.421875 
M 476.971875 22.318125 
L 476.971875 260.421875 
" clip-path="url(#pd1e328905f)" style="fill: none; stroke: #2ca02c; stroke-linejoin: miter"/>
      <g id="PolyCollection_3">
       <path d="M 476.971875 22.318125 
L 376.312805 22.318125 
L 376.312805 260.421875 
L 476.971875 260.421875 
L 476.971875 260.421875 
L 476.971875 22.318125 
z
" clip-path="url(#pd1e328905f)" style="fill: #2ca02c; fill-opacity: 0.5"/>
      </g>
      <g id="matplotlib.axis_1">
       <g id="xtick_1">
        <g id="line2d_1"/>
        <g id="text_1">
         <!-- deme0 -->
         <g transform="translate(97.360004 271.520312)scale(0.1 -0.1)">
          <defs>
           <path id="DejaVuSans-64" d="M 2906 2969 
L 2906 4863 
L 3481 4863 
L 3481 0 
L 2906 0 
L 2906 525 
Q 2725 213 2448 61 
Q 2172 -91 1784 -91 
Q 1150 -91 751 415 
Q 353 922 353 1747 
Q 353 2572 751 3078 
Q 1150 3584 1784 3584 
Q 2172 3584 2448 3432 
Q 2725 3281 2906 2969 
z
M 947 1747 
Q 947 1113 1208 752 
Q 1469 391 1925 391 
Q 2381 391 2643 752 
Q 2906 1113 2906 1747 
Q 2906 2381 2643 2742 
Q 2381 3103 1925 3103 
Q 1469 3103 1208 2742 
Q 947 2381 947 1747 
z
" transform="scale(0.015625)"/>
           <path id="DejaVuSans-65" d="M 3597 1894 
L 3597 1613 
L 953 1613 
Q 991 1019 1311 708 
Q 1631 397 2203 397 
Q 2534 397 2845 478 
Q 3156 559 3463 722 
L 3463 178 
Q 3153 47 2828 -22 
Q 2503 -91 2169 -91 
Q 1331 -91 842 396 
Q 353 884 353 1716 
Q 353 2575 817 3079 
Q 1281 3584 2069 3584 
Q 2775 3584 3186 3129 
Q 3597 2675 3597 1894 
z
M 3022 2063 
Q 3016 2534 2758 2815 
Q 2500 3097 2075 3097 
Q 1594 3097 1305 2825 
Q 1016 2553 972 2059 
L 3022 2063 
z
" transform="scale(0.015625)"/>
           <path id="DejaVuSans-6d" d="M 3328 2828 
Q 3544 3216 3844 3400 
Q 4144 3584 4550 3584 
Q 5097 3584 5394 3201 
Q 5691 2819 5691 2113 
L 5691 0 
L 5113 0 
L 5113 2094 
Q 5113 2597 4934 2840 
Q 4756 3084 4391 3084 
Q 3944 3084 3684 2787 
Q 3425 2491 3425 1978 
L 3425 0 
L 2847 0 
L 2847 2094 
Q 2847 2600 2669 2842 
Q 2491 3084 2119 3084 
Q 1678 3084 1418 2786 
Q 1159 2488 1159 1978 
L 1159 0 
L 581 0 
L 581 3500 
L 1159 3500 
L 1159 2956 
Q 1356 3278 1631 3431 
Q 1906 3584 2284 3584 
Q 2666 3584 2933 3390 
Q 3200 3197 3328 2828 
z
" transform="scale(0.015625)"/>
           <path id="DejaVuSans-30" d="M 2034 4250 
Q 1547 4250 1301 3770 
Q 1056 3291 1056 2328 
Q 1056 1369 1301 889 
Q 1547 409 2034 409 
Q 2525 409 2770 889 
Q 3016 1369 3016 2328 
Q 3016 3291 2770 3770 
Q 2525 4250 2034 4250 
z
M 2034 4750 
Q 2819 4750 3233 4129 
Q 3647 3509 3647 2328 
Q 3647 1150 3233 529 
Q 2819 -91 2034 -91 
Q 1250 -91 836 529 
Q 422 1150 422 2328 
Q 422 3509 836 4129 
Q 1250 4750 2034 4750 
z
" transform="scale(0.015625)"/>
          </defs>
          <use xlink:href="#DejaVuSans-64"/>
          <use xlink:href="#DejaVuSans-65" x="63.476562"/>
          <use xlink:href="#DejaVuSans-6d" x="125"/>
          <use xlink:href="#DejaVuSans-65" x="222.412109"/>
          <use xlink:href="#DejaVuSans-30" x="283.935547"/>
         </g>
        </g>
       </g>
       <g id="xtick_2">
        <g id="line2d_2"/>
        <g id="text_2">
         <!-- deme1 -->
         <g transform="translate(253.311719 271.520312)scale(0.1 -0.1)">
          <defs>
           <path id="DejaVuSans-31" d="M 794 531 
L 1825 531 
L 1825 4091 
L 703 3866 
L 703 4441 
L 1819 4666 
L 2450 4666 
L 2450 531 
L 3481 531 
L 3481 0 
L 794 0 
L 794 531 
z
" transform="scale(0.015625)"/>
          </defs>
          <use xlink:href="#DejaVuSans-64"/>
          <use xlink:href="#DejaVuSans-65" x="63.476562"/>
          <use xlink:href="#DejaVuSans-6d" x="125"/>
          <use xlink:href="#DejaVuSans-65" x="222.412109"/>
          <use xlink:href="#DejaVuSans-31" x="283.935547"/>
         </g>
        </g>
       </g>
       <g id="xtick_3">
        <g id="line2d_3"/>
        <g id="text_3">
         <!-- deme2 -->
         <g transform="translate(409.263434 271.520312)scale(0.1 -0.1)">
          <defs>
           <path id="DejaVuSans-32" d="M 1228 531 
L 3431 531 
L 3431 0 
L 469 0 
L 469 531 
Q 828 903 1448 1529 
Q 2069 2156 2228 2338 
Q 2531 2678 2651 2914 
Q 2772 3150 2772 3378 
Q 2772 3750 2511 3984 
Q 2250 4219 1831 4219 
Q 1534 4219 1204 4116 
Q 875 4013 500 3803 
L 500 4441 
Q 881 4594 1212 4672 
Q 1544 4750 1819 4750 
Q 2544 4750 2975 4387 
Q 3406 4025 3406 3419 
Q 3406 3131 3298 2873 
Q 3191 2616 2906 2266 
Q 2828 2175 2409 1742 
Q 1991 1309 1228 531 
z
" transform="scale(0.015625)"/>
          </defs>
          <use xlink:href="#DejaVuSans-64"/>
          <use xlink:href="#DejaVuSans-65" x="63.476562"/>
          <use xlink:href="#DejaVuSans-6d" x="125"/>
          <use xlink:href="#DejaVuSans-65" x="222.412109"/>
          <use xlink:href="#DejaVuSans-32" x="283.935547"/>
         </g>
        </g>
       </g>
      </g>
      <g id="matplotlib.axis_2">
       <g id="ytick_1">
        <g id="line2d_4">
         <defs>
          <path id="me046f1579a" d="M 0 0 
L -3.5 0 
" style="stroke: #000000; stroke-width: 0.8"/>
         </defs>
         <g>
          <use xlink:href="#me046f1579a" x="43.78125" y="260.421875" style="stroke: #000000; stroke-width: 0.8"/>
         </g>
        </g>
        <g id="text_4">
         <!-- 0.0 -->
         <g transform="translate(20.878125 264.221094)scale(0.1 -0.1)">
          <defs>
           <path id="DejaVuSans-2e" d="M 684 794 
L 1344 794 
L 1344 0 
L 684 0 
L 684 794 
z
" transform="scale(0.015625)"/>
          </defs>
          <use xlink:href="#DejaVuSans-30"/>
          <use xlink:href="#DejaVuSans-2e" x="63.623047"/>
          <use xlink:href="#DejaVuSans-30" x="95.410156"/>
         </g>
        </g>
       </g>
       <g id="ytick_2">
        <g id="line2d_5">
         <g>
          <use xlink:href="#me046f1579a" x="43.78125" y="212.801125" style="stroke: #000000; stroke-width: 0.8"/>
         </g>
        </g>
        <g id="text_5">
         <!-- 0.5 -->
         <g transform="translate(20.878125 216.600344)scale(0.1 -0.1)">
          <defs>
           <path id="DejaVuSans-35" d="M 691 4666 
L 3169 4666 
L 3169 4134 
L 1269 4134 
L 1269 2991 
Q 1406 3038 1543 3061 
Q 1681 3084 1819 3084 
Q 2600 3084 3056 2656 
Q 3513 2228 3513 1497 
Q 3513 744 3044 326 
Q 2575 -91 1722 -91 
Q 1428 -91 1123 -41 
Q 819 9 494 109 
L 494 744 
Q 775 591 1075 516 
Q 1375 441 1709 441 
Q 2250 441 2565 725 
Q 2881 1009 2881 1497 
Q 2881 1984 2565 2268 
Q 2250 2553 1709 2553 
Q 1456 2553 1204 2497 
Q 953 2441 691 2322 
L 691 4666 
z
" transform="scale(0.015625)"/>
          </defs>
          <use xlink:href="#DejaVuSans-30"/>
          <use xlink:href="#DejaVuSans-2e" x="63.623047"/>
          <use xlink:href="#DejaVuSans-35" x="95.410156"/>
         </g>
        </g>
       </g>
       <g id="ytick_3">
        <g id="line2d_6">
         <g>
          <use xlink:href="#me046f1579a" x="43.78125" y="165.180375" style="stroke: #000000; stroke-width: 0.8"/>
         </g>
        </g>
        <g id="text_6">
         <!-- 1.0 -->
         <g transform="translate(20.878125 168.979594)scale(0.1 -0.1)">
          <use xlink:href="#DejaVuSans-31"/>
          <use xlink:href="#DejaVuSans-2e" x="63.623047"/>
          <use xlink:href="#DejaVuSans-30" x="95.410156"/>
         </g>
        </g>
       </g>
       <g id="ytick_4">
        <g id="line2d_7">
         <g>
          <use xlink:href="#me046f1579a" x="43.78125" y="117.559625" style="stroke: #000000; stroke-width: 0.8"/>
         </g>
        </g>
        <g id="text_7">
         <!-- 1.5 -->
         <g transform="translate(20.878125 121.358844)scale(0.1 -0.1)">
          <use xlink:href="#DejaVuSans-31"/>
          <use xlink:href="#DejaVuSans-2e" x="63.623047"/>
          <use xlink:href="#DejaVuSans-35" x="95.410156"/>
         </g>
        </g>
       </g>
       <g id="ytick_5">
        <g id="line2d_8">
         <g>
          <use xlink:href="#me046f1579a" x="43.78125" y="69.938875" style="stroke: #000000; stroke-width: 0.8"/>
         </g>
        </g>
        <g id="text_8">
         <!-- 2.0 -->
         <g transform="translate(20.878125 73.738094)scale(0.1 -0.1)">
          <use xlink:href="#DejaVuSans-32"/>
          <use xlink:href="#DejaVuSans-2e" x="63.623047"/>
          <use xlink:href="#DejaVuSans-30" x="95.410156"/>
         </g>
        </g>
       </g>
       <g id="ytick_6">
        <g id="line2d_9">
         <g>
          <use xlink:href="#me046f1579a" x="43.78125" y="22.318125" style="stroke: #000000; stroke-width: 0.8"/>
         </g>
        </g>
        <g id="text_9">
         <!-- 2.5 -->
         <g transform="translate(20.878125 26.117344)scale(0.1 -0.1)">
          <use xlink:href="#DejaVuSans-32"/>
          <use xlink:href="#DejaVuSans-2e" x="63.623047"/>
          <use xlink:href="#DejaVuSans-35" x="95.410156"/>
         </g>
        </g>
       </g>
       <g id="text_10">
        <!-- time ago (generations) -->
        <g transform="translate(14.798438 198.841094)rotate(-90)scale(0.1 -0.1)">
         <defs>
          <path id="DejaVuSans-74" d="M 1172 4494 
L 1172 3500 
L 2356 3500 
L 2356 3053 
L 1172 3053 
L 1172 1153 
Q 1172 725 1289 603 
Q 1406 481 1766 481 
L 2356 481 
L 2356 0 
L 1766 0 
Q 1100 0 847 248 
Q 594 497 594 1153 
L 594 3053 
L 172 3053 
L 172 3500 
L 594 3500 
L 594 4494 
L 1172 4494 
z
" transform="scale(0.015625)"/>
          <path id="DejaVuSans-69" d="M 603 3500 
L 1178 3500 
L 1178 0 
L 603 0 
L 603 3500 
z
M 603 4863 
L 1178 4863 
L 1178 4134 
L 603 4134 
L 603 4863 
z
" transform="scale(0.015625)"/>
          <path id="DejaVuSans-20" transform="scale(0.015625)"/>
          <path id="DejaVuSans-61" d="M 2194 1759 
Q 1497 1759 1228 1600 
Q 959 1441 959 1056 
Q 959 750 1161 570 
Q 1363 391 1709 391 
Q 2188 391 2477 730 
Q 2766 1069 2766 1631 
L 2766 1759 
L 2194 1759 
z
M 3341 1997 
L 3341 0 
L 2766 0 
L 2766 531 
Q 2569 213 2275 61 
Q 1981 -91 1556 -91 
Q 1019 -91 701 211 
Q 384 513 384 1019 
Q 384 1609 779 1909 
Q 1175 2209 1959 2209 
L 2766 2209 
L 2766 2266 
Q 2766 2663 2505 2880 
Q 2244 3097 1772 3097 
Q 1472 3097 1187 3025 
Q 903 2953 641 2809 
L 641 3341 
Q 956 3463 1253 3523 
Q 1550 3584 1831 3584 
Q 2591 3584 2966 3190 
Q 3341 2797 3341 1997 
z
" transform="scale(0.015625)"/>
          <path id="DejaVuSans-67" d="M 2906 1791 
Q 2906 2416 2648 2759 
Q 2391 3103 1925 3103 
Q 1463 3103 1205 2759 
Q 947 2416 947 1791 
Q 947 1169 1205 825 
Q 1463 481 1925 481 
Q 2391 481 2648 825 
Q 2906 1169 2906 1791 
z
M 3481 434 
Q 3481 -459 3084 -895 
Q 2688 -1331 1869 -1331 
Q 1566 -1331 1297 -1286 
Q 1028 -1241 775 -1147 
L 775 -588 
Q 1028 -725 1275 -790 
Q 1522 -856 1778 -856 
Q 2344 -856 2625 -561 
Q 2906 -266 2906 331 
L 2906 616 
Q 2728 306 2450 153 
Q 2172 0 1784 0 
Q 1141 0 747 490 
Q 353 981 353 1791 
Q 353 2603 747 3093 
Q 1141 3584 1784 3584 
Q 2172 3584 2450 3431 
Q 2728 3278 2906 2969 
L 2906 3500 
L 3481 3500 
L 3481 434 
z
" transform="scale(0.015625)"/>
          <path id="DejaVuSans-6f" d="M 1959 3097 
Q 1497 3097 1228 2736 
Q 959 2375 959 1747 
Q 959 1119 1226 758 
Q 1494 397 1959 397 
Q 2419 397 2687 759 
Q 2956 1122 2956 1747 
Q 2956 2369 2687 2733 
Q 2419 3097 1959 3097 
z
M 1959 3584 
Q 2709 3584 3137 3096 
Q 3566 2609 3566 1747 
Q 3566 888 3137 398 
Q 2709 -91 1959 -91 
Q 1206 -91 779 398 
Q 353 888 353 1747 
Q 353 2609 779 3096 
Q 1206 3584 1959 3584 
z
" transform="scale(0.015625)"/>
          <path id="DejaVuSans-28" d="M 1984 4856 
Q 1566 4138 1362 3434 
Q 1159 2731 1159 2009 
Q 1159 1288 1364 580 
Q 1569 -128 1984 -844 
L 1484 -844 
Q 1016 -109 783 600 
Q 550 1309 550 2009 
Q 550 2706 781 3412 
Q 1013 4119 1484 4856 
L 1984 4856 
z
" transform="scale(0.015625)"/>
          <path id="DejaVuSans-6e" d="M 3513 2113 
L 3513 0 
L 2938 0 
L 2938 2094 
Q 2938 2591 2744 2837 
Q 2550 3084 2163 3084 
Q 1697 3084 1428 2787 
Q 1159 2491 1159 1978 
L 1159 0 
L 581 0 
L 581 3500 
L 1159 3500 
L 1159 2956 
Q 1366 3272 1645 3428 
Q 1925 3584 2291 3584 
Q 2894 3584 3203 3211 
Q 3513 2838 3513 2113 
z
" transform="scale(0.015625)"/>
          <path id="DejaVuSans-72" d="M 2631 2963 
Q 2534 3019 2420 3045 
Q 2306 3072 2169 3072 
Q 1681 3072 1420 2755 
Q 1159 2438 1159 1844 
L 1159 0 
L 581 0 
L 581 3500 
L 1159 3500 
L 1159 2956 
Q 1341 3275 1631 3429 
Q 1922 3584 2338 3584 
Q 2397 3584 2469 3576 
Q 2541 3569 2628 3553 
L 2631 2963 
z
" transform="scale(0.015625)"/>
          <path id="DejaVuSans-73" d="M 2834 3397 
L 2834 2853 
Q 2591 2978 2328 3040 
Q 2066 3103 1784 3103 
Q 1356 3103 1142 2972 
Q 928 2841 928 2578 
Q 928 2378 1081 2264 
Q 1234 2150 1697 2047 
L 1894 2003 
Q 2506 1872 2764 1633 
Q 3022 1394 3022 966 
Q 3022 478 2636 193 
Q 2250 -91 1575 -91 
Q 1294 -91 989 -36 
Q 684 19 347 128 
L 347 722 
Q 666 556 975 473 
Q 1284 391 1588 391 
Q 1994 391 2212 530 
Q 2431 669 2431 922 
Q 2431 1156 2273 1281 
Q 2116 1406 1581 1522 
L 1381 1569 
Q 847 1681 609 1914 
Q 372 2147 372 2553 
Q 372 3047 722 3315 
Q 1072 3584 1716 3584 
Q 2034 3584 2315 3537 
Q 2597 3491 2834 3397 
z
" transform="scale(0.015625)"/>
          <path id="DejaVuSans-29" d="M 513 4856 
L 1013 4856 
Q 1481 4119 1714 3412 
Q 1947 2706 1947 2009 
Q 1947 1309 1714 600 
Q 1481 -109 1013 -844 
L 513 -844 
Q 928 -128 1133 580 
Q 1338 1288 1338 2009 
Q 1338 2731 1133 3434 
Q 928 4138 513 4856 
z
" transform="scale(0.015625)"/>
         </defs>
         <use xlink:href="#DejaVuSans-74"/>
         <use xlink:href="#DejaVuSans-69" x="39.208984"/>
         <use xlink:href="#DejaVuSans-6d" x="66.992188"/>
         <use xlink:href="#DejaVuSans-65" x="164.404297"/>
         <use xlink:href="#DejaVuSans-20" x="225.927734"/>
         <use xlink:href="#DejaVuSans-61" x="257.714844"/>
         <use xlink:href="#DejaVuSans-67" x="318.994141"/>
         <use xlink:href="#DejaVuSans-6f" x="382.470703"/>
         <use xlink:href="#DejaVuSans-20" x="443.652344"/>
         <use xlink:href="#DejaVuSans-28" x="475.439453"/>
         <use xlink:href="#DejaVuSans-67" x="514.453125"/>
         <use xlink:href="#DejaVuSans-65" x="577.929688"/>
         <use xlink:href="#DejaVuSans-6e" x="639.453125"/>
         <use xlink:href="#DejaVuSans-65" x="702.832031"/>
         <use xlink:href="#DejaVuSans-72" x="764.355469"/>
         <use xlink:href="#DejaVuSans-61" x="805.46875"/>
         <use xlink:href="#DejaVuSans-74" x="866.748047"/>
         <use xlink:href="#DejaVuSans-69" x="905.957031"/>
         <use xlink:href="#DejaVuSans-6f" x="933.740234"/>
         <use xlink:href="#DejaVuSans-6e" x="994.921875"/>
         <use xlink:href="#DejaVuSans-73" x="1058.300781"/>
         <use xlink:href="#DejaVuSans-29" x="1110.400391"/>
        </g>
       </g>
      </g>
      <path d="M 216.822903 97.872626 
L 214.822903 96.872626 
L 214.822903 98.872626 
z
" clip-path="url(#pd1e328905f)" style="fill: #1f77b4; fill-opacity: 0.5; stroke: #1f77b4; stroke-opacity: 0.5; stroke-linejoin: miter"/>
      <path d="M 216.822903 140.831172 
L 214.822903 139.831172 
L 214.822903 141.831172 
z
" clip-path="url(#pd1e328905f)" style="fill: #1f77b4; fill-opacity: 0.5; stroke: #1f77b4; stroke-opacity: 0.5; stroke-linejoin: miter"/>
      <path d="M 216.822903 81.94036 
L 214.822903 80.94036 
L 214.822903 82.94036 
z
" clip-path="url(#pd1e328905f)" style="fill: #1f77b4; fill-opacity: 0.5; stroke: #1f77b4; stroke-opacity: 0.5; stroke-linejoin: miter"/>
      <path d="M 216.822903 109.702271 
L 214.822903 108.702271 
L 214.822903 110.702271 
z
" clip-path="url(#pd1e328905f)" style="fill: #1f77b4; fill-opacity: 0.5; stroke: #1f77b4; stroke-opacity: 0.5; stroke-linejoin: miter"/>
      <path d="M 216.822903 83.707605 
L 214.822903 82.707605 
L 214.822903 84.707605 
z
" clip-path="url(#pd1e328905f)" style="fill: #1f77b4; fill-opacity: 0.5; stroke: #1f77b4; stroke-opacity: 0.5; stroke-linejoin: miter"/>
      <path d="M 216.822903 132.401297 
L 214.822903 131.401297 
L 214.822903 133.401297 
z
" clip-path="url(#pd1e328905f)" style="fill: #1f77b4; fill-opacity: 0.5; stroke: #1f77b4; stroke-opacity: 0.5; stroke-linejoin: miter"/>
      <path d="M 216.822903 157.713975 
L 214.822903 156.713975 
L 214.822903 158.713975 
z
" clip-path="url(#pd1e328905f)" style="fill: #1f77b4; fill-opacity: 0.5; stroke: #1f77b4; stroke-opacity: 0.5; stroke-linejoin: miter"/>
      <path d="M 216.822903 128.9424 
L 214.822903 127.9424 
L 214.822903 129.9424 
z
" clip-path="url(#pd1e328905f)" style="fill: #1f77b4; fill-opacity: 0.5; stroke: #1f77b4; stroke-opacity: 0.5; stroke-linejoin: miter"/>
      <path d="M 216.822903 129.474632 
L 214.822903 128.474632 
L 214.822903 130.474632 
z
" clip-path="url(#pd1e328905f)" style="fill: #1f77b4; fill-opacity: 0.5; stroke: #1f77b4; stroke-opacity: 0.5; stroke-linejoin: miter"/>
      <path d="M 216.822903 131.370163 
L 214.822903 130.370163 
L 214.822903 132.370163 
z
" clip-path="url(#pd1e328905f)" style="fill: #1f77b4; fill-opacity: 0.5; stroke: #1f77b4; stroke-opacity: 0.5; stroke-linejoin: miter"/>
      <path d="M 372.774618 104.661788 
L 370.774618 103.661788 
L 370.774618 105.661788 
z
" clip-path="url(#pd1e328905f)" style="fill: #ff7f0e; fill-opacity: 0.5; stroke: #ff7f0e; stroke-opacity: 0.5; stroke-linejoin: miter"/>
      <path d="M 372.774618 138.668498 
L 370.774618 137.668498 
L 370.774618 139.668498 
z
" clip-path="url(#pd1e328905f)" style="fill: #ff7f0e; fill-opacity: 0.5; stroke: #ff7f0e; stroke-opacity: 0.5; stroke-linejoin: miter"/>
      <path d="M 372.774618 124.822137 
L 370.774618 123.822137 
L 370.774618 125.822137 
z
" clip-path="url(#pd1e328905f)" style="fill: #ff7f0e; fill-opacity: 0.5; stroke: #ff7f0e; stroke-opacity: 0.5; stroke-linejoin: miter"/>
      <path d="M 372.774618 114.785526 
L 370.774618 113.785526 
L 370.774618 115.785526 
z
" clip-path="url(#pd1e328905f)" style="fill: #ff7f0e; fill-opacity: 0.5; stroke: #ff7f0e; stroke-opacity: 0.5; stroke-linejoin: miter"/>
      <path d="M 372.774618 87.637247 
L 370.774618 86.637247 
L 370.774618 88.637247 
z
" clip-path="url(#pd1e328905f)" style="fill: #ff7f0e; fill-opacity: 0.5; stroke: #ff7f0e; stroke-opacity: 0.5; stroke-linejoin: miter"/>
      <path d="M 372.774618 137.681082 
L 370.774618 136.681082 
L 370.774618 138.681082 
z
" clip-path="url(#pd1e328905f)" style="fill: #ff7f0e; fill-opacity: 0.5; stroke: #ff7f0e; stroke-opacity: 0.5; stroke-linejoin: miter"/>
      <path d="M 372.774618 145.547536 
L 370.774618 144.547536 
L 370.774618 146.547536 
z
" clip-path="url(#pd1e328905f)" style="fill: #ff7f0e; fill-opacity: 0.5; stroke: #ff7f0e; stroke-opacity: 0.5; stroke-linejoin: miter"/>
      <path d="M 372.774618 115.974919 
L 370.774618 114.974919 
L 370.774618 116.974919 
z
" clip-path="url(#pd1e328905f)" style="fill: #ff7f0e; fill-opacity: 0.5; stroke: #ff7f0e; stroke-opacity: 0.5; stroke-linejoin: miter"/>
      <path d="M 372.774618 100.71038 
L 370.774618 99.71038 
L 370.774618 101.71038 
z
" clip-path="url(#pd1e328905f)" style="fill: #ff7f0e; fill-opacity: 0.5; stroke: #ff7f0e; stroke-opacity: 0.5; stroke-linejoin: miter"/>
      <path d="M 372.774618 134.911074 
L 370.774618 133.911074 
L 370.774618 135.911074 
z
" clip-path="url(#pd1e328905f)" style="fill: #ff7f0e; fill-opacity: 0.5; stroke: #ff7f0e; stroke-opacity: 0.5; stroke-linejoin: miter"/>
      <g id="patch_6">
       <path d="M 43.78125 260.421875 
L 43.78125 22.318125 
" style="fill: none; stroke: #000000; stroke-width: 0.8; stroke-linejoin: miter; stroke-linecap: square"/>
      </g>
      <g id="text_11">
       <!-- defaults_migration_properties.yaml -->
       <g transform="translate(164.234688 16.318125)scale(0.12 -0.12)">
        <defs>
         <path id="DejaVuSans-66" d="M 2375 4863 
L 2375 4384 
L 1825 4384 
Q 1516 4384 1395 4259 
Q 1275 4134 1275 3809 
L 1275 3500 
L 2222 3500 
L 2222 3053 
L 1275 3053 
L 1275 0 
L 697 0 
L 697 3053 
L 147 3053 
L 147 3500 
L 697 3500 
L 697 3744 
Q 697 4328 969 4595 
Q 1241 4863 1831 4863 
L 2375 4863 
z
" transform="scale(0.015625)"/>
         <path id="DejaVuSans-75" d="M 544 1381 
L 544 3500 
L 1119 3500 
L 1119 1403 
Q 1119 906 1312 657 
Q 1506 409 1894 409 
Q 2359 409 2629 706 
Q 2900 1003 2900 1516 
L 2900 3500 
L 3475 3500 
L 3475 0 
L 2900 0 
L 2900 538 
Q 2691 219 2414 64 
Q 2138 -91 1772 -91 
Q 1169 -91 856 284 
Q 544 659 544 1381 
z
M 1991 3584 
L 1991 3584 
z
" transform="scale(0.015625)"/>
         <path id="DejaVuSans-6c" d="M 603 4863 
L 1178 4863 
L 1178 0 
L 603 0 
L 603 4863 
z
" transform="scale(0.015625)"/>
         <path id="DejaVuSans-5f" d="M 3263 -1063 
L 3263 -1509 
L -63 -1509 
L -63 -1063 
L 3263 -1063 
z
" transform="scale(0.015625)"/>
         <path id="DejaVuSans-70" d="M 1159 525 
L 1159 -1331 
L 581 -1331 
L 581 3500 
L 1159 3500 
L 1159 2969 
Q 1341 3281 1617 3432 
Q 1894 3584 2278 3584 
Q 2916 3584 3314 3078 
Q 3713 2572 3713 1747 
Q 3713 922 3314 415 
Q 2916 -91 2278 -91 
Q 1894 -91 1617 61 
Q 1341 213 1159 525 
z
M 3116 1747 
Q 3116 2381 2855 2742 
Q 2594 3103 2138 3103 
Q 1681 3103 1420 2742 
Q 1159 2381 1159 1747 
Q 1159 1113 1420 752 
Q 1681 391 2138 391 
Q 2594 391 2855 752 
Q 3116 1113 3116 1747 
z
" transform="scale(0.015625)"/>
         <path id="DejaVuSans-79" d="M 2059 -325 
Q 1816 -950 1584 -1140 
Q 1353 -1331 966 -1331 
L 506 -1331 
L 506 -850 
L 844 -850 
Q 1081 -850 1212 -737 
Q 1344 -625 1503 -206 
L 1606 56 
L 191 3500 
L 800 3500 
L 1894 763 
L 2988 3500 
L 3597 3500 
L 2059 -325 
z
" transform="scale(0.015625)"/>
        </defs>
        <use xlink:href="#DejaVuSans-64"/>
        <use xlink:href="#DejaVuSans-65" x="63.476562"/>
        <use xlink:href="#DejaVuSans-66" x="125"/>
        <use xlink:href="#DejaVuSans-61" x="160.205078"/>
        <use xlink:href="#DejaVuSans-75" x="221.484375"/>
        <use xlink:href="#DejaVuSans-6c" x="284.863281"/>
        <use xlink:href="#DejaVuSans-74" x="312.646484"/>
        <use xlink:href="#DejaVuSans-73" x="351.855469"/>
        <use xlink:href="#DejaVuSans-5f" x="403.955078"/>
        <use xlink:href="#DejaVuSans-6d" x="453.955078"/>
        <use xlink:href="#DejaVuSans-69" x="551.367188"/>
        <use xlink:href="#DejaVuSans-67" x="579.150391"/>
        <use xlink:href="#DejaVuSans-72" x="642.626953"/>
        <use xlink:href="#DejaVuSans-61" x="683.740234"/>
        <use xlink:href="#DejaVuSans-74" x="745.019531"/>
        <use xlink:href="#DejaVuSans-69" x="784.228516"/>
        <use xlink:href="#DejaVuSans-6f" x="812.011719"/>
        <use xlink:href="#DejaVuSans-6e" x="873.193359"/>
        <use xlink:href="#DejaVuSans-5f" x="936.572266"/>
        <use xlink:href="#DejaVuSans-70" x="986.572266"/>
        <use xlink:href="#DejaVuSans-72" x="1050.048828"/>
        <use xlink:href="#DejaVuSans-6f" x="1088.912109"/>
        <use xlink:href="#DejaVuSans-70" x="1150.09375"/>
        <use xlink:href="#DejaVuSans-65" x="1213.570312"/>
        <use xlink:href="#DejaVuSans-72" x="1275.09375"/>
        <use xlink:href="#DejaVuSans-74" x="1316.207031"/>
        <use xlink:href="#DejaVuSans-69" x="1355.416016"/>
        <use xlink:href="#DejaVuSans-65" x="1383.199219"/>
        <use xlink:href="#DejaVuSans-73" x="1444.722656"/>
        <use xlink:href="#DejaVuSans-2e" x="1496.822266"/>
        <use xlink:href="#DejaVuSans-79" x="1528.609375"/>
        <use xlink:href="#DejaVuSans-61" x="1587.789062"/>
        <use xlink:href="#DejaVuSans-6d" x="1649.068359"/>
        <use xlink:href="#DejaVuSans-6c" x="1746.480469"/>
       </g>
      </g>
     </g>
    </g>
    <defs>
     <clipPath id="pd1e328905f">
      <rect x="43.78125" y="22.318125" width="453.81875" height="238.10375"/>
     </clipPath>
    </defs>
   </g>
  </g>
 </g>
</svg>
