<?xml version="1.0" encoding="utf-8" standalone="no"?>
<!DOCTYPE svg PUBLIC "-//W3C//DTD SVG 1.1//EN"
  "http://www.w3.org/Graphics/SVG/1.1/DTD/svg11.dtd">
<svg xmlns:xlink="http://www.w3.org/1999/xlink" width="504.8pt" height="280.8pt" viewBox="0 0 504.8 280.8" xmlns="http://www.w3.org/2000/svg" version="1.1">
 <metadata>
  <rdf:RDF xmlns:dc="http://purl.org/dc/elements/1.1/" xmlns:cc="http://creativecommons.org/ns#" xmlns:rdf="http://www.w3.org/1999/02/22-rdf-syntax-ns#">
   <cc:Work>
    <dc:type rdf:resource="http://purl.org/dc/dcmitype/StillImage"/>
    <dc:date>2022-04-26T08:43:32.381495</dc:date>
    <dc:format>image/svg+xml</dc:format>
    <dc:creator>
     <cc:Agent>
      <dc:title>Matplotlib v3.5.1, https://matplotlib.org/</dc:title>
     </cc:Agent>
    </dc:creator>
   </cc:Work>
  </rdf:RDF>
 </metadata>
 <defs>
  <style type="text/css">*{stroke-linejoin: round; stroke-linecap: butt}</style>
 </defs>
 <g id="figure_1">
  <g id="patch_1">
   <path d="M 0 280.8 
L 504.8 280.8 
L 504.8 0 
L 0 0 
L 0 280.8 
z
" style="fill: none"/>
  </g>
  <g id="axes_1">
   <g id="patch_2">
    <path d="M 46.965625 260.421875 
L 497.6 260.421875 
L 497.6 22.318125 
L 46.965625 22.318125 
z
" style="fill: #ffffff"/>
   </g>
   <path d="M 171.90811 163.075923 
L 172.90811 163.107359 
L 173.90811 163.1443 
L 174.90811 163.242046 
L 175.90811 163.274568 
L 176.90811 163.348192 
L 177.90811 163.386758 
L 178.90811 163.422171 
L 179.90811 163.479811 
L 180.90811 163.550197 
L 181.90811 163.602161 
L 182.90811 163.661251 
L 183.90811 163.749572 
L 184.90811 163.795717 
L 185.90811 163.838127 
L 186.90811 163.86862 
L 187.90811 163.894665 
L 188.90811 163.915865 
L 189.90811 163.970166 
L 190.90811 163.998104 
L 191.90811 164.027828 
L 192.90811 164.053223 
L 193.90811 164.064423 
L 194.90811 164.074547 
L 195.90811 164.074343 
L 196.90811 164.064833 
L 197.90811 164.053179 
L 198.90811 164.02215 
L 199.90811 164.010982 
L 200.90811 163.980864 
L 201.90811 163.921088 
L 202.90811 163.883896 
L 203.90811 163.8448 
L 204.90811 163.80236 
L 205.90811 163.769595 
L 206.90811 163.702169 
L 207.90811 163.663043 
L 208.90811 163.620368 
L 209.90811 163.549788 
L 210.90811 163.513397 
L 211.90811 163.454994 
L 212.90811 163.344041 
L 213.90811 163.273383 
L 214.90811 163.160443 
L 215.90811 163.11467 
L 217.800088 163.053387 
" clip-path="url(#p9c24fcf216)" style="fill: none; stroke: #1f77b4; stroke-opacity: 0.5; stroke-width: 0.2; stroke-linecap: square"/>
   <path d="M 171.90811 255.049323 
L 172.90811 255.080759 
L 173.90811 255.1177 
L 174.90811 255.215446 
L 175.90811 255.247968 
L 176.90811 255.321593 
L 177.90811 255.360158 
L 178.90811 255.395571 
L 179.90811 255.453211 
L 180.90811 255.523597 
L 181.90811 255.575562 
L 182.90811 255.634651 
L 183.90811 255.722972 
L 184.90811 255.769117 
L 185.90811 255.811528 
L 186.90811 255.84202 
L 187.90811 255.868065 
L 188.90811 255.889265 
L 189.90811 255.943566 
L 190.90811 255.971504 
L 191.90811 256.001228 
L 192.90811 256.026623 
L 193.90811 256.037823 
L 194.90811 256.047947 
L 195.90811 256.047743 
L 196.90811 256.038233 
L 197.90811 256.026579 
L 198.90811 255.99555 
L 199.90811 255.984382 
L 200.90811 255.954265 
L 201.90811 255.894488 
L 202.90811 255.857296 
L 203.90811 255.8182 
L 204.90811 255.77576 
L 205.90811 255.742995 
L 206.90811 255.675569 
L 207.90811 255.636443 
L 208.90811 255.593768 
L 209.90811 255.523188 
L 210.90811 255.486797 
L 211.90811 255.428394 
L 212.90811 255.317441 
L 213.90811 255.246783 
L 214.90811 255.133843 
L 215.90811 255.08807 
L 217.800088 255.026787 
" clip-path="url(#p9c24fcf216)" style="fill: none; stroke: #1f77b4; stroke-opacity: 0.5; stroke-width: 0.2; stroke-linecap: square"/>
   <path d="M 171.90811 248.861346 
L 172.90811 248.892783 
L 173.90811 248.929723 
L 174.90811 249.02747 
L 175.90811 249.059991 
L 176.90811 249.133616 
L 177.90811 249.172182 
L 178.90811 249.207595 
L 179.90811 249.265235 
L 180.90811 249.335621 
L 181.90811 249.387585 
L 182.90811 249.446675 
L 183.90811 249.534996 
L 184.90811 249.58114 
L 185.90811 249.623551 
L 186.90811 249.654044 
L 187.90811 249.680089 
L 188.90811 249.701289 
L 189.90811 249.75559 
L 190.90811 249.783527 
L 191.90811 249.813251 
L 192.90811 249.838646 
L 193.90811 249.849847 
L 194.90811 249.859971 
L 195.90811 249.859766 
L 196.90811 249.850256 
L 197.90811 249.838603 
L 198.90811 249.807574 
L 199.90811 249.796406 
L 200.90811 249.766288 
L 201.90811 249.706511 
L 202.90811 249.66932 
L 203.90811 249.630224 
L 204.90811 249.587784 
L 205.90811 249.555019 
L 206.90811 249.487592 
L 207.90811 249.448466 
L 208.90811 249.405792 
L 209.90811 249.335211 
L 210.90811 249.29882 
L 211.90811 249.240417 
L 212.90811 249.129465 
L 213.90811 249.058806 
L 214.90811 248.945866 
L 215.90811 248.900094 
L 217.800088 248.83881 
" clip-path="url(#p9c24fcf216)" style="fill: none; stroke: #1f77b4; stroke-opacity: 0.5; stroke-width: 0.2; stroke-linecap: square"/>
   <path d="M 171.90811 59.374 
L 172.90811 59.405436 
L 173.90811 59.442377 
L 174.90811 59.540123 
L 175.90811 59.572645 
L 176.90811 59.64627 
L 177.90811 59.684835 
L 178.90811 59.720248 
L 179.90811 59.777888 
L 180.90811 59.848274 
L 181.90811 59.900239 
L 182.90811 59.959328 
L 183.90811 60.047649 
L 184.90811 60.093794 
L 185.90811 60.136205 
L 186.90811 60.166697 
L 187.90811 60.192742 
L 188.90811 60.213942 
L 189.90811 60.268243 
L 190.90811 60.296181 
L 191.90811 60.325905 
L 192.90811 60.3513 
L 193.90811 60.3625 
L 194.90811 60.372624 
L 195.90811 60.37242 
L 196.90811 60.36291 
L 197.90811 60.351256 
L 198.90811 60.320227 
L 199.90811 60.309059 
L 200.90811 60.278942 
L 201.90811 60.219165 
L 202.90811 60.181973 
L 203.90811 60.142877 
L 204.90811 60.100437 
L 205.90811 60.067672 
L 206.90811 60.000246 
L 207.90811 59.96112 
L 208.90811 59.918445 
L 209.90811 59.847865 
L 210.90811 59.811474 
L 211.90811 59.753071 
L 212.90811 59.642118 
L 213.90811 59.57146 
L 214.90811 59.45852 
L 215.90811 59.412747 
L 217.800088 59.351464 
" clip-path="url(#p9c24fcf216)" style="fill: none; stroke: #1f77b4; stroke-opacity: 0.5; stroke-width: 0.2; stroke-linecap: square"/>
   <path d="M 171.90811 220.745425 
L 172.90811 220.776861 
L 173.90811 220.813802 
L 174.90811 220.911548 
L 175.90811 220.94407 
L 176.90811 221.017694 
L 177.90811 221.05626 
L 178.90811 221.091673 
L 179.90811 221.149313 
L 180.90811 221.219699 
L 181.90811 221.271663 
L 182.90811 221.330753 
L 183.90811 221.419074 
L 184.90811 221.465218 
L 185.90811 221.507629 
L 186.90811 221.538122 
L 187.90811 221.564167 
L 188.90811 221.585367 
L 189.90811 221.639668 
L 190.90811 221.667606 
L 191.90811 221.69733 
L 192.90811 221.722725 
L 193.90811 221.733925 
L 194.90811 221.744049 
L 195.90811 221.743845 
L 196.90811 221.734335 
L 197.90811 221.722681 
L 198.90811 221.691652 
L 199.90811 221.680484 
L 200.90811 221.650366 
L 201.90811 221.590589 
L 202.90811 221.553398 
L 203.90811 221.514302 
L 204.90811 221.471862 
L 205.90811 221.439097 
L 206.90811 221.371671 
L 207.90811 221.332545 
L 208.90811 221.28987 
L 209.90811 221.21929 
L 210.90811 221.182899 
L 211.90811 221.124496 
L 212.90811 221.013543 
L 213.90811 220.942885 
L 214.90811 220.829945 
L 215.90811 220.784172 
L 217.800088 220.722889 
" clip-path="url(#p9c24fcf216)" style="fill: none; stroke: #1f77b4; stroke-opacity: 0.5; stroke-width: 0.2; stroke-linecap: square"/>
   <path d="M 171.90811 200.017222 
L 172.90811 200.048658 
L 173.90811 200.085599 
L 174.90811 200.183345 
L 175.90811 200.215867 
L 176.90811 200.289491 
L 177.90811 200.328057 
L 178.90811 200.36347 
L 179.90811 200.42111 
L 180.90811 200.491496 
L 181.90811 200.54346 
L 182.90811 200.60255 
L 183.90811 200.690871 
L 184.90811 200.737015 
L 185.90811 200.779426 
L 186.90811 200.809919 
L 187.90811 200.835964 
L 188.90811 200.857164 
L 189.90811 200.911465 
L 190.90811 200.939403 
L 191.90811 200.969127 
L 192.90811 200.994522 
L 193.90811 201.005722 
L 194.90811 201.015846 
L 195.90811 201.015642 
L 196.90811 201.006132 
L 197.90811 200.994478 
L 198.90811 200.963449 
L 199.90811 200.952281 
L 200.90811 200.922163 
L 201.90811 200.862386 
L 202.90811 200.825195 
L 203.90811 200.786099 
L 204.90811 200.743659 
L 205.90811 200.710894 
L 206.90811 200.643468 
L 207.90811 200.604342 
L 208.90811 200.561667 
L 209.90811 200.491087 
L 210.90811 200.454696 
L 211.90811 200.396293 
L 212.90811 200.28534 
L 213.90811 200.214682 
L 214.90811 200.101742 
L 215.90811 200.055969 
L 217.800088 199.994686 
" clip-path="url(#p9c24fcf216)" style="fill: none; stroke: #1f77b4; stroke-opacity: 0.5; stroke-width: 0.2; stroke-linecap: square"/>
   <path d="M 171.90811 167.44185 
L 172.90811 167.473286 
L 173.90811 167.510226 
L 174.90811 167.607973 
L 175.90811 167.640494 
L 176.90811 167.714119 
L 177.90811 167.752685 
L 178.90811 167.788098 
L 179.90811 167.845738 
L 180.90811 167.916124 
L 181.90811 167.968088 
L 182.90811 168.027178 
L 183.90811 168.115499 
L 184.90811 168.161643 
L 185.90811 168.204054 
L 186.90811 168.234547 
L 187.90811 168.260592 
L 188.90811 168.281792 
L 189.90811 168.336093 
L 190.90811 168.364031 
L 191.90811 168.393755 
L 192.90811 168.419149 
L 193.90811 168.43035 
L 194.90811 168.440474 
L 195.90811 168.440269 
L 196.90811 168.43076 
L 197.90811 168.419106 
L 198.90811 168.388077 
L 199.90811 168.376909 
L 200.90811 168.346791 
L 201.90811 168.287014 
L 202.90811 168.249823 
L 203.90811 168.210727 
L 204.90811 168.168287 
L 205.90811 168.135522 
L 206.90811 168.068095 
L 207.90811 168.02897 
L 208.90811 167.986295 
L 209.90811 167.915714 
L 210.90811 167.879324 
L 211.90811 167.82092 
L 212.90811 167.709968 
L 213.90811 167.639309 
L 214.90811 167.52637 
L 215.90811 167.480597 
L 217.800088 167.419314 
" clip-path="url(#p9c24fcf216)" style="fill: none; stroke: #1f77b4; stroke-opacity: 0.5; stroke-width: 0.2; stroke-linecap: square"/>
   <path d="M 171.90811 52.680208 
L 172.90811 52.711645 
L 173.90811 52.748585 
L 174.90811 52.846332 
L 175.90811 52.878853 
L 176.90811 52.952478 
L 177.90811 52.991043 
L 178.90811 53.026457 
L 179.90811 53.084097 
L 180.90811 53.154483 
L 181.90811 53.206447 
L 182.90811 53.265537 
L 183.90811 53.353858 
L 184.90811 53.400002 
L 185.90811 53.442413 
L 186.90811 53.472906 
L 187.90811 53.498951 
L 188.90811 53.520151 
L 189.90811 53.574452 
L 190.90811 53.602389 
L 191.90811 53.632113 
L 192.90811 53.657508 
L 193.90811 53.668708 
L 194.90811 53.678832 
L 195.90811 53.678628 
L 196.90811 53.669118 
L 197.90811 53.657465 
L 198.90811 53.626435 
L 199.90811 53.615267 
L 200.90811 53.58515 
L 201.90811 53.525373 
L 202.90811 53.488181 
L 203.90811 53.449085 
L 204.90811 53.406646 
L 205.90811 53.373881 
L 206.90811 53.306454 
L 207.90811 53.267328 
L 208.90811 53.224654 
L 209.90811 53.154073 
L 210.90811 53.117682 
L 211.90811 53.059279 
L 212.90811 52.948326 
L 213.90811 52.877668 
L 214.90811 52.764728 
L 215.90811 52.718955 
L 217.800088 52.657672 
" clip-path="url(#p9c24fcf216)" style="fill: none; stroke: #1f77b4; stroke-opacity: 0.5; stroke-width: 0.2; stroke-linecap: square"/>
   <path d="M 171.90811 141.410179 
L 172.90811 141.441616 
L 173.90811 141.478556 
L 174.90811 141.576303 
L 175.90811 141.608824 
L 176.90811 141.682449 
L 177.90811 141.721015 
L 178.90811 141.756428 
L 179.90811 141.814068 
L 180.90811 141.884454 
L 181.90811 141.936418 
L 182.90811 141.995508 
L 183.90811 142.083829 
L 184.90811 142.129973 
L 185.90811 142.172384 
L 186.90811 142.202877 
L 187.90811 142.228922 
L 188.90811 142.250122 
L 189.90811 142.304423 
L 190.90811 142.33236 
L 191.90811 142.362084 
L 192.90811 142.387479 
L 193.90811 142.39868 
L 194.90811 142.408804 
L 195.90811 142.408599 
L 196.90811 142.399089 
L 197.90811 142.387436 
L 198.90811 142.356407 
L 199.90811 142.345239 
L 200.90811 142.315121 
L 201.90811 142.255344 
L 202.90811 142.218153 
L 203.90811 142.179057 
L 204.90811 142.136617 
L 205.90811 142.103852 
L 206.90811 142.036425 
L 207.90811 141.997299 
L 208.90811 141.954625 
L 209.90811 141.884044 
L 210.90811 141.847653 
L 211.90811 141.78925 
L 212.90811 141.678298 
L 213.90811 141.607639 
L 214.90811 141.4947 
L 215.90811 141.448927 
L 217.800088 141.387643 
" clip-path="url(#p9c24fcf216)" style="fill: none; stroke: #1f77b4; stroke-opacity: 0.5; stroke-width: 0.2; stroke-linecap: square"/>
   <path d="M 171.90811 133.059959 
L 172.90811 133.091395 
L 173.90811 133.128336 
L 174.90811 133.226082 
L 175.90811 133.258604 
L 176.90811 133.332229 
L 177.90811 133.370794 
L 178.90811 133.406207 
L 179.90811 133.463847 
L 180.90811 133.534233 
L 181.90811 133.586198 
L 182.90811 133.645287 
L 183.90811 133.733608 
L 184.90811 133.779753 
L 185.90811 133.822164 
L 186.90811 133.852656 
L 187.90811 133.878701 
L 188.90811 133.899901 
L 189.90811 133.954202 
L 190.90811 133.98214 
L 191.90811 134.011864 
L 192.90811 134.037259 
L 193.90811 134.048459 
L 194.90811 134.058583 
L 195.90811 134.058379 
L 196.90811 134.048869 
L 197.90811 134.037215 
L 198.90811 134.006186 
L 199.90811 133.995018 
L 200.90811 133.964901 
L 201.90811 133.905124 
L 202.90811 133.867932 
L 203.90811 133.828836 
L 204.90811 133.786396 
L 205.90811 133.753631 
L 206.90811 133.686205 
L 207.90811 133.647079 
L 208.90811 133.604404 
L 209.90811 133.533824 
L 210.90811 133.497433 
L 211.90811 133.43903 
L 212.90811 133.328077 
L 213.90811 133.257419 
L 214.90811 133.144479 
L 215.90811 133.098706 
L 217.800088 133.037423 
" clip-path="url(#p9c24fcf216)" style="fill: none; stroke: #1f77b4; stroke-opacity: 0.5; stroke-width: 0.2; stroke-linecap: square"/>
   <path d="M 217.800088 81.619362 
L 216.800088 81.587926 
L 215.800088 81.550986 
L 214.800088 81.453239 
L 213.800088 81.420717 
L 212.800088 81.347093 
L 211.800088 81.308527 
L 210.800088 81.273114 
L 209.800088 81.215474 
L 208.800088 81.145088 
L 207.800088 81.093124 
L 206.800088 81.034034 
L 205.800088 80.945713 
L 204.800088 80.899569 
L 203.800088 80.857158 
L 202.800088 80.826665 
L 201.800088 80.80062 
L 200.800088 80.77942 
L 199.800088 80.725119 
L 198.800088 80.697181 
L 197.800088 80.667457 
L 196.800088 80.642063 
L 195.800088 80.630862 
L 194.800088 80.620738 
L 193.800088 80.620942 
L 192.800088 80.630452 
L 191.800088 80.642106 
L 190.800088 80.673135 
L 189.800088 80.684303 
L 188.800088 80.714421 
L 187.800088 80.774198 
L 186.800088 80.811389 
L 185.800088 80.850485 
L 184.800088 80.892925 
L 183.800088 80.92569 
L 182.800088 80.993116 
L 181.800088 81.032242 
L 180.800088 81.074917 
L 179.800088 81.145497 
L 178.800088 81.181888 
L 177.800088 81.240292 
L 176.800088 81.351244 
L 175.800088 81.421902 
L 174.800088 81.534842 
L 173.800088 81.580615 
L 171.90811 81.641898 
" clip-path="url(#p9c24fcf216)" style="fill: none; stroke: #ff7f0e; stroke-opacity: 0.5; stroke-width: 0.2; stroke-linecap: square"/>
   <path d="M 217.800088 94.984416 
L 216.800088 94.952979 
L 215.800088 94.916039 
L 214.800088 94.818292 
L 213.800088 94.785771 
L 212.800088 94.712146 
L 211.800088 94.67358 
L 210.800088 94.638167 
L 209.800088 94.580527 
L 208.800088 94.510141 
L 207.800088 94.458177 
L 206.800088 94.399087 
L 205.800088 94.310766 
L 204.800088 94.264622 
L 203.800088 94.222211 
L 202.800088 94.191718 
L 201.800088 94.165673 
L 200.800088 94.144473 
L 199.800088 94.090172 
L 198.800088 94.062235 
L 197.800088 94.032511 
L 196.800088 94.007116 
L 195.800088 93.995915 
L 194.800088 93.985791 
L 193.800088 93.985996 
L 192.800088 93.995506 
L 191.800088 94.007159 
L 190.800088 94.038189 
L 189.800088 94.049356 
L 188.800088 94.079474 
L 187.800088 94.139251 
L 186.800088 94.176442 
L 185.800088 94.215539 
L 184.800088 94.257978 
L 183.800088 94.290743 
L 182.800088 94.35817 
L 181.800088 94.397296 
L 180.800088 94.43997 
L 179.800088 94.510551 
L 178.800088 94.546942 
L 177.800088 94.605345 
L 176.800088 94.716297 
L 175.800088 94.786956 
L 174.800088 94.899896 
L 173.800088 94.945668 
L 171.90811 95.006952 
" clip-path="url(#p9c24fcf216)" style="fill: none; stroke: #ff7f0e; stroke-opacity: 0.5; stroke-width: 0.2; stroke-linecap: square"/>
   <path d="M 217.800088 247.79729 
L 216.800088 247.765853 
L 215.800088 247.728913 
L 214.800088 247.631166 
L 213.800088 247.598645 
L 212.800088 247.52502 
L 211.800088 247.486454 
L 210.800088 247.451041 
L 209.800088 247.393401 
L 208.800088 247.323015 
L 207.800088 247.271051 
L 206.800088 247.211961 
L 205.800088 247.12364 
L 204.800088 247.077496 
L 203.800088 247.035085 
L 202.800088 247.004592 
L 201.800088 246.978547 
L 200.800088 246.957347 
L 199.800088 246.903046 
L 198.800088 246.875109 
L 197.800088 246.845385 
L 196.800088 246.81999 
L 195.800088 246.808789 
L 194.800088 246.798665 
L 193.800088 246.79887 
L 192.800088 246.80838 
L 191.800088 246.820033 
L 190.800088 246.851062 
L 189.800088 246.86223 
L 188.800088 246.892348 
L 187.800088 246.952125 
L 186.800088 246.989316 
L 185.800088 247.028412 
L 184.800088 247.070852 
L 183.800088 247.103617 
L 182.800088 247.171044 
L 181.800088 247.21017 
L 180.800088 247.252844 
L 179.800088 247.323425 
L 178.800088 247.359816 
L 177.800088 247.418219 
L 176.800088 247.529171 
L 175.800088 247.59983 
L 174.800088 247.712769 
L 173.800088 247.758542 
L 171.90811 247.819826 
" clip-path="url(#p9c24fcf216)" style="fill: none; stroke: #ff7f0e; stroke-opacity: 0.5; stroke-width: 0.2; stroke-linecap: square"/>
   <path d="M 217.800088 231.016027 
L 216.800088 230.984591 
L 215.800088 230.94765 
L 214.800088 230.849904 
L 213.800088 230.817382 
L 212.800088 230.743758 
L 211.800088 230.705192 
L 210.800088 230.669779 
L 209.800088 230.612139 
L 208.800088 230.541753 
L 207.800088 230.489789 
L 206.800088 230.430699 
L 205.800088 230.342378 
L 204.800088 230.296234 
L 203.800088 230.253823 
L 202.800088 230.22333 
L 201.800088 230.197285 
L 200.800088 230.176085 
L 199.800088 230.121784 
L 198.800088 230.093846 
L 197.800088 230.064122 
L 196.800088 230.038727 
L 195.800088 230.027527 
L 194.800088 230.017403 
L 193.800088 230.017607 
L 192.800088 230.027117 
L 191.800088 230.038771 
L 190.800088 230.0698 
L 189.800088 230.080968 
L 188.800088 230.111086 
L 187.800088 230.170863 
L 186.800088 230.208054 
L 185.800088 230.24715 
L 184.800088 230.28959 
L 183.800088 230.322355 
L 182.800088 230.389781 
L 181.800088 230.428907 
L 180.800088 230.471582 
L 179.800088 230.542162 
L 178.800088 230.578553 
L 177.800088 230.636956 
L 176.800088 230.747909 
L 175.800088 230.818567 
L 174.800088 230.931507 
L 173.800088 230.97728 
L 171.90811 231.038563 
" clip-path="url(#p9c24fcf216)" style="fill: none; stroke: #ff7f0e; stroke-opacity: 0.5; stroke-width: 0.2; stroke-linecap: square"/>
   <path d="M 217.800088 112.706409 
L 216.800088 112.674973 
L 215.800088 112.638032 
L 214.800088 112.540286 
L 213.800088 112.507764 
L 212.800088 112.43414 
L 211.800088 112.395574 
L 210.800088 112.360161 
L 209.800088 112.302521 
L 208.800088 112.232135 
L 207.800088 112.18017 
L 206.800088 112.121081 
L 205.800088 112.03276 
L 204.800088 111.986615 
L 203.800088 111.944204 
L 202.800088 111.913712 
L 201.800088 111.887667 
L 200.800088 111.866467 
L 199.800088 111.812166 
L 198.800088 111.784228 
L 197.800088 111.754504 
L 196.800088 111.729109 
L 195.800088 111.717909 
L 194.800088 111.707785 
L 193.800088 111.707989 
L 192.800088 111.717499 
L 191.800088 111.729153 
L 190.800088 111.760182 
L 189.800088 111.77135 
L 188.800088 111.801467 
L 187.800088 111.861244 
L 186.800088 111.898436 
L 185.800088 111.937532 
L 184.800088 111.979972 
L 183.800088 112.012737 
L 182.800088 112.080163 
L 181.800088 112.119289 
L 180.800088 112.161964 
L 179.800088 112.232544 
L 178.800088 112.268935 
L 177.800088 112.327338 
L 176.800088 112.438291 
L 175.800088 112.508949 
L 174.800088 112.621889 
L 173.800088 112.667662 
L 171.90811 112.728945 
" clip-path="url(#p9c24fcf216)" style="fill: none; stroke: #ff7f0e; stroke-opacity: 0.5; stroke-width: 0.2; stroke-linecap: square"/>
   <path d="M 217.800088 58.685421 
L 216.800088 58.653984 
L 215.800088 58.617044 
L 214.800088 58.519298 
L 213.800088 58.486776 
L 212.800088 58.413151 
L 211.800088 58.374586 
L 210.800088 58.339172 
L 209.800088 58.281533 
L 208.800088 58.211146 
L 207.800088 58.159182 
L 206.800088 58.100092 
L 205.800088 58.011771 
L 204.800088 57.965627 
L 203.800088 57.923216 
L 202.800088 57.892724 
L 201.800088 57.866679 
L 200.800088 57.845478 
L 199.800088 57.791177 
L 198.800088 57.76324 
L 197.800088 57.733516 
L 196.800088 57.708121 
L 195.800088 57.696921 
L 194.800088 57.686797 
L 193.800088 57.687001 
L 192.800088 57.696511 
L 191.800088 57.708164 
L 190.800088 57.739194 
L 189.800088 57.750362 
L 188.800088 57.780479 
L 187.800088 57.840256 
L 186.800088 57.877448 
L 185.800088 57.916544 
L 184.800088 57.958983 
L 183.800088 57.991748 
L 182.800088 58.059175 
L 181.800088 58.098301 
L 180.800088 58.140975 
L 179.800088 58.211556 
L 178.800088 58.247947 
L 177.800088 58.30635 
L 176.800088 58.417303 
L 175.800088 58.487961 
L 174.800088 58.600901 
L 173.800088 58.646674 
L 171.90811 58.707957 
" clip-path="url(#p9c24fcf216)" style="fill: none; stroke: #ff7f0e; stroke-opacity: 0.5; stroke-width: 0.2; stroke-linecap: square"/>
   <path d="M 217.800088 236.278769 
L 216.800088 236.247332 
L 215.800088 236.210392 
L 214.800088 236.112645 
L 213.800088 236.080124 
L 212.800088 236.006499 
L 211.800088 235.967933 
L 210.800088 235.93252 
L 209.800088 235.87488 
L 208.800088 235.804494 
L 207.800088 235.75253 
L 206.800088 235.69344 
L 205.800088 235.605119 
L 204.800088 235.558975 
L 203.800088 235.516564 
L 202.800088 235.486071 
L 201.800088 235.460026 
L 200.800088 235.438826 
L 199.800088 235.384525 
L 198.800088 235.356588 
L 197.800088 235.326864 
L 196.800088 235.301469 
L 195.800088 235.290268 
L 194.800088 235.280144 
L 193.800088 235.280349 
L 192.800088 235.289859 
L 191.800088 235.301512 
L 190.800088 235.332541 
L 189.800088 235.343709 
L 188.800088 235.373827 
L 187.800088 235.433604 
L 186.800088 235.470795 
L 185.800088 235.509891 
L 184.800088 235.552331 
L 183.800088 235.585096 
L 182.800088 235.652523 
L 181.800088 235.691649 
L 180.800088 235.734323 
L 179.800088 235.804904 
L 178.800088 235.841295 
L 177.800088 235.899698 
L 176.800088 236.01065 
L 175.800088 236.081309 
L 174.800088 236.194249 
L 173.800088 236.240021 
L 171.90811 236.301305 
" clip-path="url(#p9c24fcf216)" style="fill: none; stroke: #ff7f0e; stroke-opacity: 0.5; stroke-width: 0.2; stroke-linecap: square"/>
   <path d="M 217.800088 242.649059 
L 216.800088 242.617622 
L 215.800088 242.580682 
L 214.800088 242.482935 
L 213.800088 242.450414 
L 212.800088 242.376789 
L 211.800088 242.338223 
L 210.800088 242.30281 
L 209.800088 242.24517 
L 208.800088 242.174784 
L 207.800088 242.12282 
L 206.800088 242.06373 
L 205.800088 241.975409 
L 204.800088 241.929265 
L 203.800088 241.886854 
L 202.800088 241.856361 
L 201.800088 241.830316 
L 200.800088 241.809116 
L 199.800088 241.754815 
L 198.800088 241.726878 
L 197.800088 241.697154 
L 196.800088 241.671759 
L 195.800088 241.660558 
L 194.800088 241.650434 
L 193.800088 241.650639 
L 192.800088 241.660149 
L 191.800088 241.671802 
L 190.800088 241.702831 
L 189.800088 241.713999 
L 188.800088 241.744117 
L 187.800088 241.803894 
L 186.800088 241.841085 
L 185.800088 241.880181 
L 184.800088 241.922621 
L 183.800088 241.955386 
L 182.800088 242.022813 
L 181.800088 242.061939 
L 180.800088 242.104613 
L 179.800088 242.175194 
L 178.800088 242.211585 
L 177.800088 242.269988 
L 176.800088 242.38094 
L 175.800088 242.451599 
L 174.800088 242.564539 
L 173.800088 242.610311 
L 171.90811 242.671595 
" clip-path="url(#p9c24fcf216)" style="fill: none; stroke: #ff7f0e; stroke-opacity: 0.5; stroke-width: 0.2; stroke-linecap: square"/>
   <path d="M 217.800088 167.845039 
L 216.800088 167.813602 
L 215.800088 167.776662 
L 214.800088 167.678915 
L 213.800088 167.646394 
L 212.800088 167.572769 
L 211.800088 167.534204 
L 210.800088 167.49879 
L 209.800088 167.441151 
L 208.800088 167.370764 
L 207.800088 167.3188 
L 206.800088 167.25971 
L 205.800088 167.171389 
L 204.800088 167.125245 
L 203.800088 167.082834 
L 202.800088 167.052341 
L 201.800088 167.026297 
L 200.800088 167.005096 
L 199.800088 166.950795 
L 198.800088 166.922858 
L 197.800088 166.893134 
L 196.800088 166.867739 
L 195.800088 166.856539 
L 194.800088 166.846415 
L 193.800088 166.846619 
L 192.800088 166.856129 
L 191.800088 166.867782 
L 190.800088 166.898812 
L 189.800088 166.90998 
L 188.800088 166.940097 
L 187.800088 166.999874 
L 186.800088 167.037066 
L 185.800088 167.076162 
L 184.800088 167.118601 
L 183.800088 167.151366 
L 182.800088 167.218793 
L 181.800088 167.257919 
L 180.800088 167.300593 
L 179.800088 167.371174 
L 178.800088 167.407565 
L 177.800088 167.465968 
L 176.800088 167.576921 
L 175.800088 167.647579 
L 174.800088 167.760519 
L 173.800088 167.806292 
L 171.90811 167.867575 
" clip-path="url(#p9c24fcf216)" style="fill: none; stroke: #ff7f0e; stroke-opacity: 0.5; stroke-width: 0.2; stroke-linecap: square"/>
   <path d="M 217.800088 33.802368 
L 216.800088 33.770931 
L 215.800088 33.733991 
L 214.800088 33.636244 
L 213.800088 33.603723 
L 212.800088 33.530098 
L 211.800088 33.491532 
L 210.800088 33.456119 
L 209.800088 33.398479 
L 208.800088 33.328093 
L 207.800088 33.276129 
L 206.800088 33.217039 
L 205.800088 33.128718 
L 204.800088 33.082574 
L 203.800088 33.040163 
L 202.800088 33.00967 
L 201.800088 32.983625 
L 200.800088 32.962425 
L 199.800088 32.908124 
L 198.800088 32.880187 
L 197.800088 32.850463 
L 196.800088 32.825068 
L 195.800088 32.813867 
L 194.800088 32.803743 
L 193.800088 32.803948 
L 192.800088 32.813458 
L 191.800088 32.825111 
L 190.800088 32.85614 
L 189.800088 32.867308 
L 188.800088 32.897426 
L 187.800088 32.957203 
L 186.800088 32.994394 
L 185.800088 33.03349 
L 184.800088 33.07593 
L 183.800088 33.108695 
L 182.800088 33.176122 
L 181.800088 33.215248 
L 180.800088 33.257922 
L 179.800088 33.328503 
L 178.800088 33.364894 
L 177.800088 33.423297 
L 176.800088 33.534249 
L 175.800088 33.604908 
L 174.800088 33.717848 
L 173.800088 33.76362 
L 171.90811 33.824904 
" clip-path="url(#p9c24fcf216)" style="fill: none; stroke: #ff7f0e; stroke-opacity: 0.5; stroke-width: 0.2; stroke-linecap: square"/>
   <path d="M 326.765537 72.521713 
L 327.765537 72.553149 
L 328.765537 72.590089 
L 329.765537 72.687836 
L 330.765537 72.720358 
L 331.765537 72.793982 
L 332.765537 72.832548 
L 333.765537 72.867961 
L 334.765537 72.925601 
L 335.765537 72.995987 
L 336.765537 73.047951 
L 337.765537 73.107041 
L 338.765537 73.195362 
L 339.765537 73.241506 
L 340.765537 73.283917 
L 341.765537 73.31441 
L 342.765537 73.340455 
L 343.765537 73.361655 
L 344.765537 73.415956 
L 345.765537 73.443894 
L 346.765537 73.473618 
L 347.765537 73.499012 
L 348.765537 73.510213 
L 349.765537 73.520337 
L 350.765537 73.520132 
L 351.765537 73.510623 
L 352.765537 73.498969 
L 353.765537 73.46794 
L 354.765537 73.456772 
L 355.765537 73.426654 
L 356.765537 73.366877 
L 357.765537 73.329686 
L 358.765537 73.29059 
L 359.765537 73.24815 
L 360.765537 73.215385 
L 361.765537 73.147959 
L 362.765537 73.108833 
L 363.765537 73.066158 
L 364.765537 72.995578 
L 365.765537 72.959187 
L 366.765537 72.900783 
L 367.765537 72.789831 
L 368.765537 72.719173 
L 369.765537 72.606233 
L 370.765537 72.56046 
L 372.657515 72.499177 
" clip-path="url(#p9c24fcf216)" style="fill: none; stroke: #ff7f0e; stroke-opacity: 0.5; stroke-width: 0.2; stroke-linecap: square"/>
   <path d="M 326.765537 56.737636 
L 327.765537 56.769073 
L 328.765537 56.806013 
L 329.765537 56.90376 
L 330.765537 56.936281 
L 331.765537 57.009906 
L 332.765537 57.048472 
L 333.765537 57.083885 
L 334.765537 57.141525 
L 335.765537 57.211911 
L 336.765537 57.263875 
L 337.765537 57.322965 
L 338.765537 57.411286 
L 339.765537 57.45743 
L 340.765537 57.499841 
L 341.765537 57.530334 
L 342.765537 57.556379 
L 343.765537 57.577579 
L 344.765537 57.63188 
L 345.765537 57.659817 
L 346.765537 57.689541 
L 347.765537 57.714936 
L 348.765537 57.726137 
L 349.765537 57.736261 
L 350.765537 57.736056 
L 351.765537 57.726546 
L 352.765537 57.714893 
L 353.765537 57.683864 
L 354.765537 57.672696 
L 355.765537 57.642578 
L 356.765537 57.582801 
L 357.765537 57.54561 
L 358.765537 57.506514 
L 359.765537 57.464074 
L 360.765537 57.431309 
L 361.765537 57.363882 
L 362.765537 57.324756 
L 363.765537 57.282082 
L 364.765537 57.211501 
L 365.765537 57.17511 
L 366.765537 57.116707 
L 367.765537 57.005755 
L 368.765537 56.935096 
L 369.765537 56.822157 
L 370.765537 56.776384 
L 372.657515 56.7151 
" clip-path="url(#p9c24fcf216)" style="fill: none; stroke: #ff7f0e; stroke-opacity: 0.5; stroke-width: 0.2; stroke-linecap: square"/>
   <path d="M 326.765537 68.150656 
L 327.765537 68.182093 
L 328.765537 68.219033 
L 329.765537 68.316779 
L 330.765537 68.349301 
L 331.765537 68.422926 
L 332.765537 68.461491 
L 333.765537 68.496905 
L 334.765537 68.554544 
L 335.765537 68.624931 
L 336.765537 68.676895 
L 337.765537 68.735985 
L 338.765537 68.824306 
L 339.765537 68.87045 
L 340.765537 68.912861 
L 341.765537 68.943353 
L 342.765537 68.969398 
L 343.765537 68.990599 
L 344.765537 69.0449 
L 345.765537 69.072837 
L 346.765537 69.102561 
L 347.765537 69.127956 
L 348.765537 69.139156 
L 349.765537 69.14928 
L 350.765537 69.149076 
L 351.765537 69.139566 
L 352.765537 69.127913 
L 353.765537 69.096883 
L 354.765537 69.085715 
L 355.765537 69.055598 
L 356.765537 68.995821 
L 357.765537 68.958629 
L 358.765537 68.919533 
L 359.765537 68.877094 
L 360.765537 68.844329 
L 361.765537 68.776902 
L 362.765537 68.737776 
L 363.765537 68.695102 
L 364.765537 68.624521 
L 365.765537 68.58813 
L 366.765537 68.529727 
L 367.765537 68.418774 
L 368.765537 68.348116 
L 369.765537 68.235176 
L 370.765537 68.189403 
L 372.657515 68.12812 
" clip-path="url(#p9c24fcf216)" style="fill: none; stroke: #ff7f0e; stroke-opacity: 0.5; stroke-width: 0.2; stroke-linecap: square"/>
   <path d="M 326.765537 58.135929 
L 327.765537 58.167366 
L 328.765537 58.204306 
L 329.765537 58.302053 
L 330.765537 58.334574 
L 331.765537 58.408199 
L 332.765537 58.446765 
L 333.765537 58.482178 
L 334.765537 58.539818 
L 335.765537 58.610204 
L 336.765537 58.662168 
L 337.765537 58.721258 
L 338.765537 58.809579 
L 339.765537 58.855723 
L 340.765537 58.898134 
L 341.765537 58.928627 
L 342.765537 58.954672 
L 343.765537 58.975872 
L 344.765537 59.030173 
L 345.765537 59.05811 
L 346.765537 59.087834 
L 347.765537 59.113229 
L 348.765537 59.12443 
L 349.765537 59.134553 
L 350.765537 59.134349 
L 351.765537 59.124839 
L 352.765537 59.113186 
L 353.765537 59.082156 
L 354.765537 59.070989 
L 355.765537 59.040871 
L 356.765537 58.981094 
L 357.765537 58.943903 
L 358.765537 58.904806 
L 359.765537 58.862367 
L 360.765537 58.829602 
L 361.765537 58.762175 
L 362.765537 58.723049 
L 363.765537 58.680375 
L 364.765537 58.609794 
L 365.765537 58.573403 
L 366.765537 58.515 
L 367.765537 58.404048 
L 368.765537 58.333389 
L 369.765537 58.220449 
L 370.765537 58.174677 
L 372.657515 58.113393 
" clip-path="url(#p9c24fcf216)" style="fill: none; stroke: #ff7f0e; stroke-opacity: 0.5; stroke-width: 0.2; stroke-linecap: square"/>
   <path d="M 326.765537 136.182518 
L 327.765537 136.213955 
L 328.765537 136.250895 
L 329.765537 136.348642 
L 330.765537 136.381163 
L 331.765537 136.454788 
L 332.765537 136.493354 
L 333.765537 136.528767 
L 334.765537 136.586407 
L 335.765537 136.656793 
L 336.765537 136.708757 
L 337.765537 136.767847 
L 338.765537 136.856168 
L 339.765537 136.902312 
L 340.765537 136.944723 
L 341.765537 136.975216 
L 342.765537 137.001261 
L 343.765537 137.022461 
L 344.765537 137.076762 
L 345.765537 137.104699 
L 346.765537 137.134423 
L 347.765537 137.159818 
L 348.765537 137.171019 
L 349.765537 137.181143 
L 350.765537 137.180938 
L 351.765537 137.171428 
L 352.765537 137.159775 
L 353.765537 137.128746 
L 354.765537 137.117578 
L 355.765537 137.08746 
L 356.765537 137.027683 
L 357.765537 136.990492 
L 358.765537 136.951396 
L 359.765537 136.908956 
L 360.765537 136.876191 
L 361.765537 136.808764 
L 362.765537 136.769638 
L 363.765537 136.726964 
L 364.765537 136.656383 
L 365.765537 136.619992 
L 366.765537 136.561589 
L 367.765537 136.450637 
L 368.765537 136.379978 
L 369.765537 136.267038 
L 370.765537 136.221266 
L 372.657515 136.159982 
" clip-path="url(#p9c24fcf216)" style="fill: none; stroke: #ff7f0e; stroke-opacity: 0.5; stroke-width: 0.2; stroke-linecap: square"/>
   <path d="M 326.765537 106.671267 
L 327.765537 106.702703 
L 328.765537 106.739643 
L 329.765537 106.83739 
L 330.765537 106.869912 
L 331.765537 106.943536 
L 332.765537 106.982102 
L 333.765537 107.017515 
L 334.765537 107.075155 
L 335.765537 107.145541 
L 336.765537 107.197505 
L 337.765537 107.256595 
L 338.765537 107.344916 
L 339.765537 107.39106 
L 340.765537 107.433471 
L 341.765537 107.463964 
L 342.765537 107.490009 
L 343.765537 107.511209 
L 344.765537 107.56551 
L 345.765537 107.593448 
L 346.765537 107.623172 
L 347.765537 107.648566 
L 348.765537 107.659767 
L 349.765537 107.669891 
L 350.765537 107.669686 
L 351.765537 107.660177 
L 352.765537 107.648523 
L 353.765537 107.617494 
L 354.765537 107.606326 
L 355.765537 107.576208 
L 356.765537 107.516431 
L 357.765537 107.47924 
L 358.765537 107.440144 
L 359.765537 107.397704 
L 360.765537 107.364939 
L 361.765537 107.297513 
L 362.765537 107.258387 
L 363.765537 107.215712 
L 364.765537 107.145132 
L 365.765537 107.108741 
L 366.765537 107.050337 
L 367.765537 106.939385 
L 368.765537 106.868727 
L 369.765537 106.755787 
L 370.765537 106.710014 
L 372.657515 106.648731 
" clip-path="url(#p9c24fcf216)" style="fill: none; stroke: #ff7f0e; stroke-opacity: 0.5; stroke-width: 0.2; stroke-linecap: square"/>
   <path d="M 326.765537 253.746445 
L 327.765537 253.777881 
L 328.765537 253.814822 
L 329.765537 253.912568 
L 330.765537 253.94509 
L 331.765537 254.018714 
L 332.765537 254.05728 
L 333.765537 254.092693 
L 334.765537 254.150333 
L 335.765537 254.220719 
L 336.765537 254.272683 
L 337.765537 254.331773 
L 338.765537 254.420094 
L 339.765537 254.466239 
L 340.765537 254.508649 
L 341.765537 254.539142 
L 342.765537 254.565187 
L 343.765537 254.586387 
L 344.765537 254.640688 
L 345.765537 254.668626 
L 346.765537 254.69835 
L 347.765537 254.723745 
L 348.765537 254.734945 
L 349.765537 254.745069 
L 350.765537 254.744865 
L 351.765537 254.735355 
L 352.765537 254.723701 
L 353.765537 254.692672 
L 354.765537 254.681504 
L 355.765537 254.651386 
L 356.765537 254.59161 
L 357.765537 254.554418 
L 358.765537 254.515322 
L 359.765537 254.472882 
L 360.765537 254.440117 
L 361.765537 254.372691 
L 362.765537 254.333565 
L 363.765537 254.29089 
L 364.765537 254.22031 
L 365.765537 254.183919 
L 366.765537 254.125516 
L 367.765537 254.014563 
L 368.765537 253.943905 
L 369.765537 253.830965 
L 370.765537 253.785192 
L 372.657515 253.723909 
" clip-path="url(#p9c24fcf216)" style="fill: none; stroke: #ff7f0e; stroke-opacity: 0.5; stroke-width: 0.2; stroke-linecap: square"/>
   <path d="M 326.765537 203.252768 
L 327.765537 203.284204 
L 328.765537 203.321144 
L 329.765537 203.418891 
L 330.765537 203.451413 
L 331.765537 203.525037 
L 332.765537 203.563603 
L 333.765537 203.599016 
L 334.765537 203.656656 
L 335.765537 203.727042 
L 336.765537 203.779006 
L 337.765537 203.838096 
L 338.765537 203.926417 
L 339.765537 203.972561 
L 340.765537 204.014972 
L 341.765537 204.045465 
L 342.765537 204.07151 
L 343.765537 204.09271 
L 344.765537 204.147011 
L 345.765537 204.174949 
L 346.765537 204.204673 
L 347.765537 204.230067 
L 348.765537 204.241268 
L 349.765537 204.251392 
L 350.765537 204.251187 
L 351.765537 204.241678 
L 352.765537 204.230024 
L 353.765537 204.198995 
L 354.765537 204.187827 
L 355.765537 204.157709 
L 356.765537 204.097932 
L 357.765537 204.060741 
L 358.765537 204.021645 
L 359.765537 203.979205 
L 360.765537 203.94644 
L 361.765537 203.879014 
L 362.765537 203.839888 
L 363.765537 203.797213 
L 364.765537 203.726632 
L 365.765537 203.690242 
L 366.765537 203.631838 
L 367.765537 203.520886 
L 368.765537 203.450228 
L 369.765537 203.337288 
L 370.765537 203.291515 
L 372.657515 203.230232 
" clip-path="url(#p9c24fcf216)" style="fill: none; stroke: #ff7f0e; stroke-opacity: 0.5; stroke-width: 0.2; stroke-linecap: square"/>
   <path d="M 326.765537 104.025581 
L 327.765537 104.057018 
L 328.765537 104.093958 
L 329.765537 104.191705 
L 330.765537 104.224226 
L 331.765537 104.297851 
L 332.765537 104.336417 
L 333.765537 104.37183 
L 334.765537 104.42947 
L 335.765537 104.499856 
L 336.765537 104.55182 
L 337.765537 104.61091 
L 338.765537 104.699231 
L 339.765537 104.745375 
L 340.765537 104.787786 
L 341.765537 104.818279 
L 342.765537 104.844324 
L 343.765537 104.865524 
L 344.765537 104.919825 
L 345.765537 104.947762 
L 346.765537 104.977486 
L 347.765537 105.002881 
L 348.765537 105.014082 
L 349.765537 105.024206 
L 350.765537 105.024001 
L 351.765537 105.014491 
L 352.765537 105.002838 
L 353.765537 104.971808 
L 354.765537 104.960641 
L 355.765537 104.930523 
L 356.765537 104.870746 
L 357.765537 104.833555 
L 358.765537 104.794458 
L 359.765537 104.752019 
L 360.765537 104.719254 
L 361.765537 104.651827 
L 362.765537 104.612701 
L 363.765537 104.570027 
L 364.765537 104.499446 
L 365.765537 104.463055 
L 366.765537 104.404652 
L 367.765537 104.2937 
L 368.765537 104.223041 
L 369.765537 104.110101 
L 370.765537 104.064329 
L 372.657515 104.003045 
" clip-path="url(#p9c24fcf216)" style="fill: none; stroke: #ff7f0e; stroke-opacity: 0.5; stroke-width: 0.2; stroke-linecap: square"/>
   <path d="M 326.765537 89.749315 
L 327.765537 89.780751 
L 328.765537 89.817692 
L 329.765537 89.915438 
L 330.765537 89.94796 
L 331.765537 90.021584 
L 332.765537 90.06015 
L 333.765537 90.095563 
L 334.765537 90.153203 
L 335.765537 90.223589 
L 336.765537 90.275553 
L 337.765537 90.334643 
L 338.765537 90.422964 
L 339.765537 90.469108 
L 340.765537 90.511519 
L 341.765537 90.542012 
L 342.765537 90.568057 
L 343.765537 90.589257 
L 344.765537 90.643558 
L 345.765537 90.671496 
L 346.765537 90.70122 
L 347.765537 90.726615 
L 348.765537 90.737815 
L 349.765537 90.747939 
L 350.765537 90.747735 
L 351.765537 90.738225 
L 352.765537 90.726571 
L 353.765537 90.695542 
L 354.765537 90.684374 
L 355.765537 90.654256 
L 356.765537 90.59448 
L 357.765537 90.557288 
L 358.765537 90.518192 
L 359.765537 90.475752 
L 360.765537 90.442987 
L 361.765537 90.375561 
L 362.765537 90.336435 
L 363.765537 90.29376 
L 364.765537 90.22318 
L 365.765537 90.186789 
L 366.765537 90.128386 
L 367.765537 90.017433 
L 368.765537 89.946775 
L 369.765537 89.833835 
L 370.765537 89.788062 
L 372.657515 89.726779 
" clip-path="url(#p9c24fcf216)" style="fill: none; stroke: #ff7f0e; stroke-opacity: 0.5; stroke-width: 0.2; stroke-linecap: square"/>
   <path d="M 372.657515 249.993606 
L 371.657515 249.962169 
L 370.657515 249.925229 
L 369.657515 249.827482 
L 368.657515 249.794961 
L 367.657515 249.721336 
L 366.657515 249.68277 
L 365.657515 249.647357 
L 364.657515 249.589717 
L 363.657515 249.519331 
L 362.657515 249.467367 
L 361.657515 249.408277 
L 360.657515 249.319956 
L 359.657515 249.273812 
L 358.657515 249.231401 
L 357.657515 249.200908 
L 356.657515 249.174863 
L 355.657515 249.153663 
L 354.657515 249.099362 
L 353.657515 249.071425 
L 352.657515 249.041701 
L 351.657515 249.016306 
L 350.657515 249.005105 
L 349.657515 248.994981 
L 348.657515 248.995186 
L 347.657515 249.004696 
L 346.657515 249.016349 
L 345.657515 249.047378 
L 344.657515 249.058546 
L 343.657515 249.088664 
L 342.657515 249.148441 
L 341.657515 249.185632 
L 340.657515 249.224728 
L 339.657515 249.267168 
L 338.657515 249.299933 
L 337.657515 249.36736 
L 336.657515 249.406486 
L 335.657515 249.44916 
L 334.657515 249.519741 
L 333.657515 249.556132 
L 332.657515 249.614535 
L 331.657515 249.725487 
L 330.657515 249.796146 
L 329.657515 249.909085 
L 328.657515 249.954858 
L 326.765537 250.016142 
" clip-path="url(#p9c24fcf216)" style="fill: none; stroke: #2ca02c; stroke-opacity: 0.5; stroke-width: 0.2; stroke-linecap: square"/>
   <path d="M 372.657515 143.512704 
L 371.657515 143.481267 
L 370.657515 143.444327 
L 369.657515 143.34658 
L 368.657515 143.314059 
L 367.657515 143.240434 
L 366.657515 143.201868 
L 365.657515 143.166455 
L 364.657515 143.108815 
L 363.657515 143.038429 
L 362.657515 142.986465 
L 361.657515 142.927375 
L 360.657515 142.839054 
L 359.657515 142.79291 
L 358.657515 142.750499 
L 357.657515 142.720006 
L 356.657515 142.693961 
L 355.657515 142.672761 
L 354.657515 142.61846 
L 353.657515 142.590523 
L 352.657515 142.560799 
L 351.657515 142.535404 
L 350.657515 142.524203 
L 349.657515 142.514079 
L 348.657515 142.514284 
L 347.657515 142.523794 
L 346.657515 142.535447 
L 345.657515 142.566476 
L 344.657515 142.577644 
L 343.657515 142.607762 
L 342.657515 142.667539 
L 341.657515 142.70473 
L 340.657515 142.743826 
L 339.657515 142.786266 
L 338.657515 142.819031 
L 337.657515 142.886458 
L 336.657515 142.925584 
L 335.657515 142.968258 
L 334.657515 143.038839 
L 333.657515 143.07523 
L 332.657515 143.133633 
L 331.657515 143.244585 
L 330.657515 143.315244 
L 329.657515 143.428184 
L 328.657515 143.473956 
L 326.765537 143.53524 
" clip-path="url(#p9c24fcf216)" style="fill: none; stroke: #2ca02c; stroke-opacity: 0.5; stroke-width: 0.2; stroke-linecap: square"/>
   <path d="M 372.657515 246.786544 
L 371.657515 246.755107 
L 370.657515 246.718167 
L 369.657515 246.62042 
L 368.657515 246.587899 
L 367.657515 246.514274 
L 366.657515 246.475708 
L 365.657515 246.440295 
L 364.657515 246.382655 
L 363.657515 246.312269 
L 362.657515 246.260305 
L 361.657515 246.201215 
L 360.657515 246.112894 
L 359.657515 246.06675 
L 358.657515 246.024339 
L 357.657515 245.993846 
L 356.657515 245.967801 
L 355.657515 245.946601 
L 354.657515 245.8923 
L 353.657515 245.864363 
L 352.657515 245.834639 
L 351.657515 245.809244 
L 350.657515 245.798043 
L 349.657515 245.78792 
L 348.657515 245.788124 
L 347.657515 245.797634 
L 346.657515 245.809287 
L 345.657515 245.840317 
L 344.657515 245.851484 
L 343.657515 245.881602 
L 342.657515 245.941379 
L 341.657515 245.97857 
L 340.657515 246.017667 
L 339.657515 246.060106 
L 338.657515 246.092871 
L 337.657515 246.160298 
L 336.657515 246.199424 
L 335.657515 246.242098 
L 334.657515 246.312679 
L 333.657515 246.34907 
L 332.657515 246.407473 
L 331.657515 246.518425 
L 330.657515 246.589084 
L 329.657515 246.702024 
L 328.657515 246.747796 
L 326.765537 246.80908 
" clip-path="url(#p9c24fcf216)" style="fill: none; stroke: #2ca02c; stroke-opacity: 0.5; stroke-width: 0.2; stroke-linecap: square"/>
   <path d="M 372.657515 52.02643 
L 371.657515 51.994994 
L 370.657515 51.958053 
L 369.657515 51.860307 
L 368.657515 51.827785 
L 367.657515 51.754161 
L 366.657515 51.715595 
L 365.657515 51.680182 
L 364.657515 51.622542 
L 363.657515 51.552156 
L 362.657515 51.500192 
L 361.657515 51.441102 
L 360.657515 51.352781 
L 359.657515 51.306637 
L 358.657515 51.264226 
L 357.657515 51.233733 
L 356.657515 51.207688 
L 355.657515 51.186488 
L 354.657515 51.132187 
L 353.657515 51.104249 
L 352.657515 51.074525 
L 351.657515 51.04913 
L 350.657515 51.03793 
L 349.657515 51.027806 
L 348.657515 51.02801 
L 347.657515 51.03752 
L 346.657515 51.049174 
L 345.657515 51.080203 
L 344.657515 51.091371 
L 343.657515 51.121489 
L 342.657515 51.181266 
L 341.657515 51.218457 
L 340.657515 51.257553 
L 339.657515 51.299993 
L 338.657515 51.332758 
L 337.657515 51.400184 
L 336.657515 51.43931 
L 335.657515 51.481985 
L 334.657515 51.552565 
L 333.657515 51.588956 
L 332.657515 51.647359 
L 331.657515 51.758312 
L 330.657515 51.82897 
L 329.657515 51.94191 
L 328.657515 51.987683 
L 326.765537 52.048966 
" clip-path="url(#p9c24fcf216)" style="fill: none; stroke: #2ca02c; stroke-opacity: 0.5; stroke-width: 0.2; stroke-linecap: square"/>
   <path d="M 372.657515 211.465162 
L 371.657515 211.433726 
L 370.657515 211.396785 
L 369.657515 211.299039 
L 368.657515 211.266517 
L 367.657515 211.192892 
L 366.657515 211.154327 
L 365.657515 211.118914 
L 364.657515 211.061274 
L 363.657515 210.990887 
L 362.657515 210.938923 
L 361.657515 210.879833 
L 360.657515 210.791512 
L 359.657515 210.745368 
L 358.657515 210.702957 
L 357.657515 210.672465 
L 356.657515 210.64642 
L 355.657515 210.62522 
L 354.657515 210.570918 
L 353.657515 210.542981 
L 352.657515 210.513257 
L 351.657515 210.487862 
L 350.657515 210.476662 
L 349.657515 210.466538 
L 348.657515 210.466742 
L 347.657515 210.476252 
L 346.657515 210.487906 
L 345.657515 210.518935 
L 344.657515 210.530103 
L 343.657515 210.56022 
L 342.657515 210.619997 
L 341.657515 210.657189 
L 340.657515 210.696285 
L 339.657515 210.738724 
L 338.657515 210.77149 
L 337.657515 210.838916 
L 336.657515 210.878042 
L 335.657515 210.920716 
L 334.657515 210.991297 
L 333.657515 211.027688 
L 332.657515 211.086091 
L 331.657515 211.197044 
L 330.657515 211.267702 
L 329.657515 211.380642 
L 328.657515 211.426415 
L 326.765537 211.487698 
" clip-path="url(#p9c24fcf216)" style="fill: none; stroke: #2ca02c; stroke-opacity: 0.5; stroke-width: 0.2; stroke-linecap: square"/>
   <path d="M 372.657515 151.568772 
L 371.657515 151.537336 
L 370.657515 151.500395 
L 369.657515 151.402649 
L 368.657515 151.370127 
L 367.657515 151.296503 
L 366.657515 151.257937 
L 365.657515 151.222524 
L 364.657515 151.164884 
L 363.657515 151.094498 
L 362.657515 151.042533 
L 361.657515 150.983444 
L 360.657515 150.895123 
L 359.657515 150.848978 
L 358.657515 150.806568 
L 357.657515 150.776075 
L 356.657515 150.75003 
L 355.657515 150.72883 
L 354.657515 150.674529 
L 353.657515 150.646591 
L 352.657515 150.616867 
L 351.657515 150.591472 
L 350.657515 150.580272 
L 349.657515 150.570148 
L 348.657515 150.570352 
L 347.657515 150.579862 
L 346.657515 150.591516 
L 345.657515 150.622545 
L 344.657515 150.633713 
L 343.657515 150.66383 
L 342.657515 150.723607 
L 341.657515 150.760799 
L 340.657515 150.799895 
L 339.657515 150.842335 
L 338.657515 150.8751 
L 337.657515 150.942526 
L 336.657515 150.981652 
L 335.657515 151.024327 
L 334.657515 151.094907 
L 333.657515 151.131298 
L 332.657515 151.189701 
L 331.657515 151.300654 
L 330.657515 151.371312 
L 329.657515 151.484252 
L 328.657515 151.530025 
L 326.765537 151.591308 
" clip-path="url(#p9c24fcf216)" style="fill: none; stroke: #2ca02c; stroke-opacity: 0.5; stroke-width: 0.2; stroke-linecap: square"/>
   <path d="M 372.657515 103.337275 
L 371.657515 103.305839 
L 370.657515 103.268898 
L 369.657515 103.171152 
L 368.657515 103.13863 
L 367.657515 103.065005 
L 366.657515 103.02644 
L 365.657515 102.991027 
L 364.657515 102.933387 
L 363.657515 102.863001 
L 362.657515 102.811036 
L 361.657515 102.751947 
L 360.657515 102.663626 
L 359.657515 102.617481 
L 358.657515 102.57507 
L 357.657515 102.544578 
L 356.657515 102.518533 
L 355.657515 102.497333 
L 354.657515 102.443032 
L 353.657515 102.415094 
L 352.657515 102.38537 
L 351.657515 102.359975 
L 350.657515 102.348775 
L 349.657515 102.338651 
L 348.657515 102.338855 
L 347.657515 102.348365 
L 346.657515 102.360019 
L 345.657515 102.391048 
L 344.657515 102.402216 
L 343.657515 102.432333 
L 342.657515 102.49211 
L 341.657515 102.529302 
L 340.657515 102.568398 
L 339.657515 102.610838 
L 338.657515 102.643603 
L 337.657515 102.711029 
L 336.657515 102.750155 
L 335.657515 102.79283 
L 334.657515 102.86341 
L 333.657515 102.899801 
L 332.657515 102.958204 
L 331.657515 103.069157 
L 330.657515 103.139815 
L 329.657515 103.252755 
L 328.657515 103.298528 
L 326.765537 103.359811 
" clip-path="url(#p9c24fcf216)" style="fill: none; stroke: #2ca02c; stroke-opacity: 0.5; stroke-width: 0.2; stroke-linecap: square"/>
   <path d="M 372.657515 70.899575 
L 371.657515 70.868139 
L 370.657515 70.831198 
L 369.657515 70.733452 
L 368.657515 70.70093 
L 367.657515 70.627306 
L 366.657515 70.58874 
L 365.657515 70.553327 
L 364.657515 70.495687 
L 363.657515 70.425301 
L 362.657515 70.373337 
L 361.657515 70.314247 
L 360.657515 70.225926 
L 359.657515 70.179782 
L 358.657515 70.137371 
L 357.657515 70.106878 
L 356.657515 70.080833 
L 355.657515 70.059633 
L 354.657515 70.005332 
L 353.657515 69.977394 
L 352.657515 69.94767 
L 351.657515 69.922275 
L 350.657515 69.911075 
L 349.657515 69.900951 
L 348.657515 69.901155 
L 347.657515 69.910665 
L 346.657515 69.922319 
L 345.657515 69.953348 
L 344.657515 69.964516 
L 343.657515 69.994634 
L 342.657515 70.05441 
L 341.657515 70.091602 
L 340.657515 70.130698 
L 339.657515 70.173138 
L 338.657515 70.205903 
L 337.657515 70.273329 
L 336.657515 70.312455 
L 335.657515 70.35513 
L 334.657515 70.42571 
L 333.657515 70.462101 
L 332.657515 70.520504 
L 331.657515 70.631457 
L 330.657515 70.702115 
L 329.657515 70.815055 
L 328.657515 70.860828 
L 326.765537 70.922111 
" clip-path="url(#p9c24fcf216)" style="fill: none; stroke: #2ca02c; stroke-opacity: 0.5; stroke-width: 0.2; stroke-linecap: square"/>
   <path d="M 372.657515 130.170712 
L 371.657515 130.139276 
L 370.657515 130.102335 
L 369.657515 130.004589 
L 368.657515 129.972067 
L 367.657515 129.898443 
L 366.657515 129.859877 
L 365.657515 129.824464 
L 364.657515 129.766824 
L 363.657515 129.696438 
L 362.657515 129.644473 
L 361.657515 129.585384 
L 360.657515 129.497063 
L 359.657515 129.450918 
L 358.657515 129.408507 
L 357.657515 129.378015 
L 356.657515 129.35197 
L 355.657515 129.33077 
L 354.657515 129.276469 
L 353.657515 129.248531 
L 352.657515 129.218807 
L 351.657515 129.193412 
L 350.657515 129.182212 
L 349.657515 129.172088 
L 348.657515 129.172292 
L 347.657515 129.181802 
L 346.657515 129.193456 
L 345.657515 129.224485 
L 344.657515 129.235653 
L 343.657515 129.26577 
L 342.657515 129.325547 
L 341.657515 129.362739 
L 340.657515 129.401835 
L 339.657515 129.444275 
L 338.657515 129.47704 
L 337.657515 129.544466 
L 336.657515 129.583592 
L 335.657515 129.626267 
L 334.657515 129.696847 
L 333.657515 129.733238 
L 332.657515 129.791641 
L 331.657515 129.902594 
L 330.657515 129.973252 
L 329.657515 130.086192 
L 328.657515 130.131965 
L 326.765537 130.193248 
" clip-path="url(#p9c24fcf216)" style="fill: none; stroke: #2ca02c; stroke-opacity: 0.5; stroke-width: 0.2; stroke-linecap: square"/>
   <path d="M 372.657515 46.957831 
L 371.657515 46.926395 
L 370.657515 46.889455 
L 369.657515 46.791708 
L 368.657515 46.759186 
L 367.657515 46.685562 
L 366.657515 46.646996 
L 365.657515 46.611583 
L 364.657515 46.553943 
L 363.657515 46.483557 
L 362.657515 46.431593 
L 361.657515 46.372503 
L 360.657515 46.284182 
L 359.657515 46.238038 
L 358.657515 46.195627 
L 357.657515 46.165134 
L 356.657515 46.139089 
L 355.657515 46.117889 
L 354.657515 46.063588 
L 353.657515 46.03565 
L 352.657515 46.005926 
L 351.657515 45.980532 
L 350.657515 45.969331 
L 349.657515 45.959207 
L 348.657515 45.959411 
L 347.657515 45.968921 
L 346.657515 45.980575 
L 345.657515 46.011604 
L 344.657515 46.022772 
L 343.657515 46.05289 
L 342.657515 46.112667 
L 341.657515 46.149858 
L 340.657515 46.188954 
L 339.657515 46.231394 
L 338.657515 46.264159 
L 337.657515 46.331585 
L 336.657515 46.370711 
L 335.657515 46.413386 
L 334.657515 46.483966 
L 333.657515 46.520357 
L 332.657515 46.57876 
L 331.657515 46.689713 
L 330.657515 46.760371 
L 329.657515 46.873311 
L 328.657515 46.919084 
L 326.765537 46.980367 
" clip-path="url(#p9c24fcf216)" style="fill: none; stroke: #2ca02c; stroke-opacity: 0.5; stroke-width: 0.2; stroke-linecap: square"/>
   <g id="patch_3">
    <path d="M 67.449006 22.318125 
L 67.449006 260.421875 
M 167.401766 22.318125 
L 167.401766 260.421875 
" clip-path="url(#p9c24fcf216)" style="fill: none; stroke: #ffffff; stroke-width: 3; stroke-linejoin: miter"/>
    <path d="M 67.449006 22.318125 
L 67.449006 260.421875 
M 167.401766 22.318125 
L 167.401766 260.421875 
" clip-path="url(#p9c24fcf216)" style="fill: none; stroke: #1f77b4; stroke-linejoin: miter"/>
    <g id="PolyCollection_1">
     <path d="M 167.401766 22.318125 
L 67.449006 22.318125 
L 67.449006 260.421875 
L 167.401766 260.421875 
L 167.401766 260.421875 
L 167.401766 22.318125 
z
" clip-path="url(#p9c24fcf216)" style="fill: #1f77b4; fill-opacity: 0.5"/>
    </g>
    <g id="patch_4">
     <path d="M 222.306432 22.318125 
L 222.306432 260.421875 
M 322.259193 22.318125 
L 322.259193 260.421875 
" clip-path="url(#p9c24fcf216)" style="fill: none; stroke: #ffffff; stroke-width: 3; stroke-linejoin: miter"/>
     <path d="M 222.306432 22.318125 
L 222.306432 260.421875 
M 322.259193 22.318125 
L 322.259193 260.421875 
" clip-path="url(#p9c24fcf216)" style="fill: none; stroke: #ff7f0e; stroke-linejoin: miter"/>
     <g id="PolyCollection_2">
      <path d="M 322.259193 22.318125 
L 222.306432 22.318125 
L 222.306432 260.421875 
L 322.259193 260.421875 
L 322.259193 260.421875 
L 322.259193 22.318125 
z
" clip-path="url(#p9c24fcf216)" style="fill: #ff7f0e; fill-opacity: 0.5"/>
     </g>
     <g id="patch_5">
      <path d="M 377.163859 22.318125 
L 377.163859 260.421875 
M 477.116619 22.318125 
L 477.116619 260.421875 
" clip-path="url(#p9c24fcf216)" style="fill: none; stroke: #ffffff; stroke-width: 3; stroke-linejoin: miter"/>
      <path d="M 377.163859 22.318125 
L 377.163859 260.421875 
M 477.116619 22.318125 
L 477.116619 260.421875 
" clip-path="url(#p9c24fcf216)" style="fill: none; stroke: #2ca02c; stroke-linejoin: miter"/>
      <g id="PolyCollection_3">
       <path d="M 477.116619 22.318125 
L 377.163859 22.318125 
L 377.163859 260.421875 
L 477.116619 260.421875 
L 477.116619 260.421875 
L 477.116619 22.318125 
z
" clip-path="url(#p9c24fcf216)" style="fill: #2ca02c; fill-opacity: 0.5"/>
      </g>
      <g id="matplotlib.axis_1">
       <g id="xtick_1">
        <g id="line2d_1"/>
        <g id="text_1">
         <!-- deme1 -->
         <g transform="translate(100.04648 271.520312)scale(0.1 -0.1)">
          <defs>
           <path id="DejaVuSans-64" d="M 2906 2969 
L 2906 4863 
L 3481 4863 
L 3481 0 
L 2906 0 
L 2906 525 
Q 2725 213 2448 61 
Q 2172 -91 1784 -91 
Q 1150 -91 751 415 
Q 353 922 353 1747 
Q 353 2572 751 3078 
Q 1150 3584 1784 3584 
Q 2172 3584 2448 3432 
Q 2725 3281 2906 2969 
z
M 947 1747 
Q 947 1113 1208 752 
Q 1469 391 1925 391 
Q 2381 391 2643 752 
Q 2906 1113 2906 1747 
Q 2906 2381 2643 2742 
Q 2381 3103 1925 3103 
Q 1469 3103 1208 2742 
Q 947 2381 947 1747 
z
" transform="scale(0.015625)"/>
           <path id="DejaVuSans-65" d="M 3597 1894 
L 3597 1613 
L 953 1613 
Q 991 1019 1311 708 
Q 1631 397 2203 397 
Q 2534 397 2845 478 
Q 3156 559 3463 722 
L 3463 178 
Q 3153 47 2828 -22 
Q 2503 -91 2169 -91 
Q 1331 -91 842 396 
Q 353 884 353 1716 
Q 353 2575 817 3079 
Q 1281 3584 2069 3584 
Q 2775 3584 3186 3129 
Q 3597 2675 3597 1894 
z
M 3022 2063 
Q 3016 2534 2758 2815 
Q 2500 3097 2075 3097 
Q 1594 3097 1305 2825 
Q 1016 2553 972 2059 
L 3022 2063 
z
" transform="scale(0.015625)"/>
           <path id="DejaVuSans-6d" d="M 3328 2828 
Q 3544 3216 3844 3400 
Q 4144 3584 4550 3584 
Q 5097 3584 5394 3201 
Q 5691 2819 5691 2113 
L 5691 0 
L 5113 0 
L 5113 2094 
Q 5113 2597 4934 2840 
Q 4756 3084 4391 3084 
Q 3944 3084 3684 2787 
Q 3425 2491 3425 1978 
L 3425 0 
L 2847 0 
L 2847 2094 
Q 2847 2600 2669 2842 
Q 2491 3084 2119 3084 
Q 1678 3084 1418 2786 
Q 1159 2488 1159 1978 
L 1159 0 
L 581 0 
L 581 3500 
L 1159 3500 
L 1159 2956 
Q 1356 3278 1631 3431 
Q 1906 3584 2284 3584 
Q 2666 3584 2933 3390 
Q 3200 3197 3328 2828 
z
" transform="scale(0.015625)"/>
           <path id="DejaVuSans-31" d="M 794 531 
L 1825 531 
L 1825 4091 
L 703 3866 
L 703 4441 
L 1819 4666 
L 2450 4666 
L 2450 531 
L 3481 531 
L 3481 0 
L 794 0 
L 794 531 
z
" transform="scale(0.015625)"/>
          </defs>
          <use xlink:href="#DejaVuSans-64"/>
          <use xlink:href="#DejaVuSans-65" x="63.476562"/>
          <use xlink:href="#DejaVuSans-6d" x="125"/>
          <use xlink:href="#DejaVuSans-65" x="222.412109"/>
          <use xlink:href="#DejaVuSans-31" x="283.935547"/>
         </g>
        </g>
       </g>
       <g id="xtick_2">
        <g id="line2d_2"/>
        <g id="text_2">
         <!-- deme2 -->
         <g transform="translate(254.903906 271.520312)scale(0.1 -0.1)">
          <defs>
           <path id="DejaVuSans-32" d="M 1228 531 
L 3431 531 
L 3431 0 
L 469 0 
L 469 531 
Q 828 903 1448 1529 
Q 2069 2156 2228 2338 
Q 2531 2678 2651 2914 
Q 2772 3150 2772 3378 
Q 2772 3750 2511 3984 
Q 2250 4219 1831 4219 
Q 1534 4219 1204 4116 
Q 875 4013 500 3803 
L 500 4441 
Q 881 4594 1212 4672 
Q 1544 4750 1819 4750 
Q 2544 4750 2975 4387 
Q 3406 4025 3406 3419 
Q 3406 3131 3298 2873 
Q 3191 2616 2906 2266 
Q 2828 2175 2409 1742 
Q 1991 1309 1228 531 
z
" transform="scale(0.015625)"/>
          </defs>
          <use xlink:href="#DejaVuSans-64"/>
          <use xlink:href="#DejaVuSans-65" x="63.476562"/>
          <use xlink:href="#DejaVuSans-6d" x="125"/>
          <use xlink:href="#DejaVuSans-65" x="222.412109"/>
          <use xlink:href="#DejaVuSans-32" x="283.935547"/>
         </g>
        </g>
       </g>
       <g id="xtick_3">
        <g id="line2d_3"/>
        <g id="text_3">
         <!-- deme3 -->
         <g transform="translate(409.761333 271.520312)scale(0.1 -0.1)">
          <defs>
           <path id="DejaVuSans-33" d="M 2597 2516 
Q 3050 2419 3304 2112 
Q 3559 1806 3559 1356 
Q 3559 666 3084 287 
Q 2609 -91 1734 -91 
Q 1441 -91 1130 -33 
Q 819 25 488 141 
L 488 750 
Q 750 597 1062 519 
Q 1375 441 1716 441 
Q 2309 441 2620 675 
Q 2931 909 2931 1356 
Q 2931 1769 2642 2001 
Q 2353 2234 1838 2234 
L 1294 2234 
L 1294 2753 
L 1863 2753 
Q 2328 2753 2575 2939 
Q 2822 3125 2822 3475 
Q 2822 3834 2567 4026 
Q 2313 4219 1838 4219 
Q 1578 4219 1281 4162 
Q 984 4106 628 3988 
L 628 4550 
Q 988 4650 1302 4700 
Q 1616 4750 1894 4750 
Q 2613 4750 3031 4423 
Q 3450 4097 3450 3541 
Q 3450 3153 3228 2886 
Q 3006 2619 2597 2516 
z
" transform="scale(0.015625)"/>
          </defs>
          <use xlink:href="#DejaVuSans-64"/>
          <use xlink:href="#DejaVuSans-65" x="63.476562"/>
          <use xlink:href="#DejaVuSans-6d" x="125"/>
          <use xlink:href="#DejaVuSans-65" x="222.412109"/>
          <use xlink:href="#DejaVuSans-33" x="283.935547"/>
         </g>
        </g>
       </g>
      </g>
      <g id="matplotlib.axis_2">
       <g id="ytick_1">
        <g id="line2d_4">
         <defs>
          <path id="m2448ceb978" d="M 0 0 
L -3.5 0 
" style="stroke: #000000; stroke-width: 0.8"/>
         </defs>
         <g>
          <use xlink:href="#m2448ceb978" x="46.965625" y="260.421875" style="stroke: #000000; stroke-width: 0.8"/>
         </g>
        </g>
        <g id="text_4">
         <!-- 0 -->
         <g transform="translate(33.603125 264.221094)scale(0.1 -0.1)">
          <defs>
           <path id="DejaVuSans-30" d="M 2034 4250 
Q 1547 4250 1301 3770 
Q 1056 3291 1056 2328 
Q 1056 1369 1301 889 
Q 1547 409 2034 409 
Q 2525 409 2770 889 
Q 3016 1369 3016 2328 
Q 3016 3291 2770 3770 
Q 2525 4250 2034 4250 
z
M 2034 4750 
Q 2819 4750 3233 4129 
Q 3647 3509 3647 2328 
Q 3647 1150 3233 529 
Q 2819 -91 2034 -91 
Q 1250 -91 836 529 
Q 422 1150 422 2328 
Q 422 3509 836 4129 
Q 1250 4750 2034 4750 
z
" transform="scale(0.015625)"/>
          </defs>
          <use xlink:href="#DejaVuSans-30"/>
         </g>
        </g>
       </g>
       <g id="ytick_2">
        <g id="line2d_5">
         <g>
          <use xlink:href="#m2448ceb978" x="46.965625" y="218.279618" style="stroke: #000000; stroke-width: 0.8"/>
         </g>
        </g>
        <g id="text_5">
         <!-- 20 -->
         <g transform="translate(27.240625 222.078837)scale(0.1 -0.1)">
          <use xlink:href="#DejaVuSans-32"/>
          <use xlink:href="#DejaVuSans-30" x="63.623047"/>
         </g>
        </g>
       </g>
       <g id="ytick_3">
        <g id="line2d_6">
         <g>
          <use xlink:href="#m2448ceb978" x="46.965625" y="176.137362" style="stroke: #000000; stroke-width: 0.8"/>
         </g>
        </g>
        <g id="text_6">
         <!-- 40 -->
         <g transform="translate(27.240625 179.93658)scale(0.1 -0.1)">
          <defs>
           <path id="DejaVuSans-34" d="M 2419 4116 
L 825 1625 
L 2419 1625 
L 2419 4116 
z
M 2253 4666 
L 3047 4666 
L 3047 1625 
L 3713 1625 
L 3713 1100 
L 3047 1100 
L 3047 0 
L 2419 0 
L 2419 1100 
L 313 1100 
L 313 1709 
L 2253 4666 
z
" transform="scale(0.015625)"/>
          </defs>
          <use xlink:href="#DejaVuSans-34"/>
          <use xlink:href="#DejaVuSans-30" x="63.623047"/>
         </g>
        </g>
       </g>
       <g id="ytick_4">
        <g id="line2d_7">
         <g>
          <use xlink:href="#m2448ceb978" x="46.965625" y="133.995105" style="stroke: #000000; stroke-width: 0.8"/>
         </g>
        </g>
        <g id="text_7">
         <!-- 60 -->
         <g transform="translate(27.240625 137.794324)scale(0.1 -0.1)">
          <defs>
           <path id="DejaVuSans-36" d="M 2113 2584 
Q 1688 2584 1439 2293 
Q 1191 2003 1191 1497 
Q 1191 994 1439 701 
Q 1688 409 2113 409 
Q 2538 409 2786 701 
Q 3034 994 3034 1497 
Q 3034 2003 2786 2293 
Q 2538 2584 2113 2584 
z
M 3366 4563 
L 3366 3988 
Q 3128 4100 2886 4159 
Q 2644 4219 2406 4219 
Q 1781 4219 1451 3797 
Q 1122 3375 1075 2522 
Q 1259 2794 1537 2939 
Q 1816 3084 2150 3084 
Q 2853 3084 3261 2657 
Q 3669 2231 3669 1497 
Q 3669 778 3244 343 
Q 2819 -91 2113 -91 
Q 1303 -91 875 529 
Q 447 1150 447 2328 
Q 447 3434 972 4092 
Q 1497 4750 2381 4750 
Q 2619 4750 2861 4703 
Q 3103 4656 3366 4563 
z
" transform="scale(0.015625)"/>
          </defs>
          <use xlink:href="#DejaVuSans-36"/>
          <use xlink:href="#DejaVuSans-30" x="63.623047"/>
         </g>
        </g>
       </g>
       <g id="ytick_5">
        <g id="line2d_8">
         <g>
          <use xlink:href="#m2448ceb978" x="46.965625" y="91.852848" style="stroke: #000000; stroke-width: 0.8"/>
         </g>
        </g>
        <g id="text_8">
         <!-- 80 -->
         <g transform="translate(27.240625 95.652067)scale(0.1 -0.1)">
          <defs>
           <path id="DejaVuSans-38" d="M 2034 2216 
Q 1584 2216 1326 1975 
Q 1069 1734 1069 1313 
Q 1069 891 1326 650 
Q 1584 409 2034 409 
Q 2484 409 2743 651 
Q 3003 894 3003 1313 
Q 3003 1734 2745 1975 
Q 2488 2216 2034 2216 
z
M 1403 2484 
Q 997 2584 770 2862 
Q 544 3141 544 3541 
Q 544 4100 942 4425 
Q 1341 4750 2034 4750 
Q 2731 4750 3128 4425 
Q 3525 4100 3525 3541 
Q 3525 3141 3298 2862 
Q 3072 2584 2669 2484 
Q 3125 2378 3379 2068 
Q 3634 1759 3634 1313 
Q 3634 634 3220 271 
Q 2806 -91 2034 -91 
Q 1263 -91 848 271 
Q 434 634 434 1313 
Q 434 1759 690 2068 
Q 947 2378 1403 2484 
z
M 1172 3481 
Q 1172 3119 1398 2916 
Q 1625 2713 2034 2713 
Q 2441 2713 2670 2916 
Q 2900 3119 2900 3481 
Q 2900 3844 2670 4047 
Q 2441 4250 2034 4250 
Q 1625 4250 1398 4047 
Q 1172 3844 1172 3481 
z
" transform="scale(0.015625)"/>
          </defs>
          <use xlink:href="#DejaVuSans-38"/>
          <use xlink:href="#DejaVuSans-30" x="63.623047"/>
         </g>
        </g>
       </g>
       <g id="ytick_6">
        <g id="line2d_9">
         <g>
          <use xlink:href="#m2448ceb978" x="46.965625" y="49.710592" style="stroke: #000000; stroke-width: 0.8"/>
         </g>
        </g>
        <g id="text_9">
         <!-- 100 -->
         <g transform="translate(20.878125 53.509811)scale(0.1 -0.1)">
          <use xlink:href="#DejaVuSans-31"/>
          <use xlink:href="#DejaVuSans-30" x="63.623047"/>
          <use xlink:href="#DejaVuSans-30" x="127.246094"/>
         </g>
        </g>
       </g>
       <g id="text_10">
        <!-- time ago (years) -->
        <g transform="translate(14.798437 182.803594)rotate(-90)scale(0.1 -0.1)">
         <defs>
          <path id="DejaVuSans-74" d="M 1172 4494 
L 1172 3500 
L 2356 3500 
L 2356 3053 
L 1172 3053 
L 1172 1153 
Q 1172 725 1289 603 
Q 1406 481 1766 481 
L 2356 481 
L 2356 0 
L 1766 0 
Q 1100 0 847 248 
Q 594 497 594 1153 
L 594 3053 
L 172 3053 
L 172 3500 
L 594 3500 
L 594 4494 
L 1172 4494 
z
" transform="scale(0.015625)"/>
          <path id="DejaVuSans-69" d="M 603 3500 
L 1178 3500 
L 1178 0 
L 603 0 
L 603 3500 
z
M 603 4863 
L 1178 4863 
L 1178 4134 
L 603 4134 
L 603 4863 
z
" transform="scale(0.015625)"/>
          <path id="DejaVuSans-20" transform="scale(0.015625)"/>
          <path id="DejaVuSans-61" d="M 2194 1759 
Q 1497 1759 1228 1600 
Q 959 1441 959 1056 
Q 959 750 1161 570 
Q 1363 391 1709 391 
Q 2188 391 2477 730 
Q 2766 1069 2766 1631 
L 2766 1759 
L 2194 1759 
z
M 3341 1997 
L 3341 0 
L 2766 0 
L 2766 531 
Q 2569 213 2275 61 
Q 1981 -91 1556 -91 
Q 1019 -91 701 211 
Q 384 513 384 1019 
Q 384 1609 779 1909 
Q 1175 2209 1959 2209 
L 2766 2209 
L 2766 2266 
Q 2766 2663 2505 2880 
Q 2244 3097 1772 3097 
Q 1472 3097 1187 3025 
Q 903 2953 641 2809 
L 641 3341 
Q 956 3463 1253 3523 
Q 1550 3584 1831 3584 
Q 2591 3584 2966 3190 
Q 3341 2797 3341 1997 
z
" transform="scale(0.015625)"/>
          <path id="DejaVuSans-67" d="M 2906 1791 
Q 2906 2416 2648 2759 
Q 2391 3103 1925 3103 
Q 1463 3103 1205 2759 
Q 947 2416 947 1791 
Q 947 1169 1205 825 
Q 1463 481 1925 481 
Q 2391 481 2648 825 
Q 2906 1169 2906 1791 
z
M 3481 434 
Q 3481 -459 3084 -895 
Q 2688 -1331 1869 -1331 
Q 1566 -1331 1297 -1286 
Q 1028 -1241 775 -1147 
L 775 -588 
Q 1028 -725 1275 -790 
Q 1522 -856 1778 -856 
Q 2344 -856 2625 -561 
Q 2906 -266 2906 331 
L 2906 616 
Q 2728 306 2450 153 
Q 2172 0 1784 0 
Q 1141 0 747 490 
Q 353 981 353 1791 
Q 353 2603 747 3093 
Q 1141 3584 1784 3584 
Q 2172 3584 2450 3431 
Q 2728 3278 2906 2969 
L 2906 3500 
L 3481 3500 
L 3481 434 
z
" transform="scale(0.015625)"/>
          <path id="DejaVuSans-6f" d="M 1959 3097 
Q 1497 3097 1228 2736 
Q 959 2375 959 1747 
Q 959 1119 1226 758 
Q 1494 397 1959 397 
Q 2419 397 2687 759 
Q 2956 1122 2956 1747 
Q 2956 2369 2687 2733 
Q 2419 3097 1959 3097 
z
M 1959 3584 
Q 2709 3584 3137 3096 
Q 3566 2609 3566 1747 
Q 3566 888 3137 398 
Q 2709 -91 1959 -91 
Q 1206 -91 779 398 
Q 353 888 353 1747 
Q 353 2609 779 3096 
Q 1206 3584 1959 3584 
z
" transform="scale(0.015625)"/>
          <path id="DejaVuSans-28" d="M 1984 4856 
Q 1566 4138 1362 3434 
Q 1159 2731 1159 2009 
Q 1159 1288 1364 580 
Q 1569 -128 1984 -844 
L 1484 -844 
Q 1016 -109 783 600 
Q 550 1309 550 2009 
Q 550 2706 781 3412 
Q 1013 4119 1484 4856 
L 1984 4856 
z
" transform="scale(0.015625)"/>
          <path id="DejaVuSans-79" d="M 2059 -325 
Q 1816 -950 1584 -1140 
Q 1353 -1331 966 -1331 
L 506 -1331 
L 506 -850 
L 844 -850 
Q 1081 -850 1212 -737 
Q 1344 -625 1503 -206 
L 1606 56 
L 191 3500 
L 800 3500 
L 1894 763 
L 2988 3500 
L 3597 3500 
L 2059 -325 
z
" transform="scale(0.015625)"/>
          <path id="DejaVuSans-72" d="M 2631 2963 
Q 2534 3019 2420 3045 
Q 2306 3072 2169 3072 
Q 1681 3072 1420 2755 
Q 1159 2438 1159 1844 
L 1159 0 
L 581 0 
L 581 3500 
L 1159 3500 
L 1159 2956 
Q 1341 3275 1631 3429 
Q 1922 3584 2338 3584 
Q 2397 3584 2469 3576 
Q 2541 3569 2628 3553 
L 2631 2963 
z
" transform="scale(0.015625)"/>
          <path id="DejaVuSans-73" d="M 2834 3397 
L 2834 2853 
Q 2591 2978 2328 3040 
Q 2066 3103 1784 3103 
Q 1356 3103 1142 2972 
Q 928 2841 928 2578 
Q 928 2378 1081 2264 
Q 1234 2150 1697 2047 
L 1894 2003 
Q 2506 1872 2764 1633 
Q 3022 1394 3022 966 
Q 3022 478 2636 193 
Q 2250 -91 1575 -91 
Q 1294 -91 989 -36 
Q 684 19 347 128 
L 347 722 
Q 666 556 975 473 
Q 1284 391 1588 391 
Q 1994 391 2212 530 
Q 2431 669 2431 922 
Q 2431 1156 2273 1281 
Q 2116 1406 1581 1522 
L 1381 1569 
Q 847 1681 609 1914 
Q 372 2147 372 2553 
Q 372 3047 722 3315 
Q 1072 3584 1716 3584 
Q 2034 3584 2315 3537 
Q 2597 3491 2834 3397 
z
" transform="scale(0.015625)"/>
          <path id="DejaVuSans-29" d="M 513 4856 
L 1013 4856 
Q 1481 4119 1714 3412 
Q 1947 2706 1947 2009 
Q 1947 1309 1714 600 
Q 1481 -109 1013 -844 
L 513 -844 
Q 928 -128 1133 580 
Q 1338 1288 1338 2009 
Q 1338 2731 1133 3434 
Q 928 4138 513 4856 
z
" transform="scale(0.015625)"/>
         </defs>
         <use xlink:href="#DejaVuSans-74"/>
         <use xlink:href="#DejaVuSans-69" x="39.208984"/>
         <use xlink:href="#DejaVuSans-6d" x="66.992188"/>
         <use xlink:href="#DejaVuSans-65" x="164.404297"/>
         <use xlink:href="#DejaVuSans-20" x="225.927734"/>
         <use xlink:href="#DejaVuSans-61" x="257.714844"/>
         <use xlink:href="#DejaVuSans-67" x="318.994141"/>
         <use xlink:href="#DejaVuSans-6f" x="382.470703"/>
         <use xlink:href="#DejaVuSans-20" x="443.652344"/>
         <use xlink:href="#DejaVuSans-28" x="475.439453"/>
         <use xlink:href="#DejaVuSans-79" x="514.453125"/>
         <use xlink:href="#DejaVuSans-65" x="573.632812"/>
         <use xlink:href="#DejaVuSans-61" x="635.15625"/>
         <use xlink:href="#DejaVuSans-72" x="696.435547"/>
         <use xlink:href="#DejaVuSans-73" x="737.548828"/>
         <use xlink:href="#DejaVuSans-29" x="789.648438"/>
        </g>
       </g>
      </g>
      <path d="M 218.800088 163.075923 
L 216.800088 162.075923 
L 216.800088 164.075923 
z
" clip-path="url(#p9c24fcf216)" style="fill: #1f77b4; fill-opacity: 0.5; stroke: #1f77b4; stroke-opacity: 0.5; stroke-linejoin: miter"/>
      <path d="M 218.800088 255.049323 
L 216.800088 254.049323 
L 216.800088 256.049323 
z
" clip-path="url(#p9c24fcf216)" style="fill: #1f77b4; fill-opacity: 0.5; stroke: #1f77b4; stroke-opacity: 0.5; stroke-linejoin: miter"/>
      <path d="M 218.800088 248.861346 
L 216.800088 247.861346 
L 216.800088 249.861346 
z
" clip-path="url(#p9c24fcf216)" style="fill: #1f77b4; fill-opacity: 0.5; stroke: #1f77b4; stroke-opacity: 0.5; stroke-linejoin: miter"/>
      <path d="M 218.800088 59.374 
L 216.800088 58.374 
L 216.800088 60.374 
z
" clip-path="url(#p9c24fcf216)" style="fill: #1f77b4; fill-opacity: 0.5; stroke: #1f77b4; stroke-opacity: 0.5; stroke-linejoin: miter"/>
      <path d="M 218.800088 220.745425 
L 216.800088 219.745425 
L 216.800088 221.745425 
z
" clip-path="url(#p9c24fcf216)" style="fill: #1f77b4; fill-opacity: 0.5; stroke: #1f77b4; stroke-opacity: 0.5; stroke-linejoin: miter"/>
      <path d="M 218.800088 200.017222 
L 216.800088 199.017222 
L 216.800088 201.017222 
z
" clip-path="url(#p9c24fcf216)" style="fill: #1f77b4; fill-opacity: 0.5; stroke: #1f77b4; stroke-opacity: 0.5; stroke-linejoin: miter"/>
      <path d="M 218.800088 167.44185 
L 216.800088 166.44185 
L 216.800088 168.44185 
z
" clip-path="url(#p9c24fcf216)" style="fill: #1f77b4; fill-opacity: 0.5; stroke: #1f77b4; stroke-opacity: 0.5; stroke-linejoin: miter"/>
      <path d="M 218.800088 52.680208 
L 216.800088 51.680208 
L 216.800088 53.680208 
z
" clip-path="url(#p9c24fcf216)" style="fill: #1f77b4; fill-opacity: 0.5; stroke: #1f77b4; stroke-opacity: 0.5; stroke-linejoin: miter"/>
      <path d="M 218.800088 141.410179 
L 216.800088 140.410179 
L 216.800088 142.410179 
z
" clip-path="url(#p9c24fcf216)" style="fill: #1f77b4; fill-opacity: 0.5; stroke: #1f77b4; stroke-opacity: 0.5; stroke-linejoin: miter"/>
      <path d="M 218.800088 133.059959 
L 216.800088 132.059959 
L 216.800088 134.059959 
z
" clip-path="url(#p9c24fcf216)" style="fill: #1f77b4; fill-opacity: 0.5; stroke: #1f77b4; stroke-opacity: 0.5; stroke-linejoin: miter"/>
      <path d="M 170.90811 81.619362 
L 172.90811 82.619362 
L 172.90811 80.619362 
z
" clip-path="url(#p9c24fcf216)" style="fill: #ff7f0e; fill-opacity: 0.5; stroke: #ff7f0e; stroke-opacity: 0.5; stroke-linejoin: miter"/>
      <path d="M 170.90811 94.984416 
L 172.90811 95.984416 
L 172.90811 93.984416 
z
" clip-path="url(#p9c24fcf216)" style="fill: #ff7f0e; fill-opacity: 0.5; stroke: #ff7f0e; stroke-opacity: 0.5; stroke-linejoin: miter"/>
      <path d="M 170.90811 247.79729 
L 172.90811 248.79729 
L 172.90811 246.79729 
z
" clip-path="url(#p9c24fcf216)" style="fill: #ff7f0e; fill-opacity: 0.5; stroke: #ff7f0e; stroke-opacity: 0.5; stroke-linejoin: miter"/>
      <path d="M 170.90811 231.016027 
L 172.90811 232.016027 
L 172.90811 230.016027 
z
" clip-path="url(#p9c24fcf216)" style="fill: #ff7f0e; fill-opacity: 0.5; stroke: #ff7f0e; stroke-opacity: 0.5; stroke-linejoin: miter"/>
      <path d="M 170.90811 112.706409 
L 172.90811 113.706409 
L 172.90811 111.706409 
z
" clip-path="url(#p9c24fcf216)" style="fill: #ff7f0e; fill-opacity: 0.5; stroke: #ff7f0e; stroke-opacity: 0.5; stroke-linejoin: miter"/>
      <path d="M 170.90811 58.685421 
L 172.90811 59.685421 
L 172.90811 57.685421 
z
" clip-path="url(#p9c24fcf216)" style="fill: #ff7f0e; fill-opacity: 0.5; stroke: #ff7f0e; stroke-opacity: 0.5; stroke-linejoin: miter"/>
      <path d="M 170.90811 236.278769 
L 172.90811 237.278769 
L 172.90811 235.278769 
z
" clip-path="url(#p9c24fcf216)" style="fill: #ff7f0e; fill-opacity: 0.5; stroke: #ff7f0e; stroke-opacity: 0.5; stroke-linejoin: miter"/>
      <path d="M 170.90811 242.649059 
L 172.90811 243.649059 
L 172.90811 241.649059 
z
" clip-path="url(#p9c24fcf216)" style="fill: #ff7f0e; fill-opacity: 0.5; stroke: #ff7f0e; stroke-opacity: 0.5; stroke-linejoin: miter"/>
      <path d="M 170.90811 167.845039 
L 172.90811 168.845039 
L 172.90811 166.845039 
z
" clip-path="url(#p9c24fcf216)" style="fill: #ff7f0e; fill-opacity: 0.5; stroke: #ff7f0e; stroke-opacity: 0.5; stroke-linejoin: miter"/>
      <path d="M 170.90811 33.802368 
L 172.90811 34.802368 
L 172.90811 32.802368 
z
" clip-path="url(#p9c24fcf216)" style="fill: #ff7f0e; fill-opacity: 0.5; stroke: #ff7f0e; stroke-opacity: 0.5; stroke-linejoin: miter"/>
      <path d="M 373.657515 72.521713 
L 371.657515 71.521713 
L 371.657515 73.521713 
z
" clip-path="url(#p9c24fcf216)" style="fill: #ff7f0e; fill-opacity: 0.5; stroke: #ff7f0e; stroke-opacity: 0.5; stroke-linejoin: miter"/>
      <path d="M 373.657515 56.737636 
L 371.657515 55.737636 
L 371.657515 57.737636 
z
" clip-path="url(#p9c24fcf216)" style="fill: #ff7f0e; fill-opacity: 0.5; stroke: #ff7f0e; stroke-opacity: 0.5; stroke-linejoin: miter"/>
      <path d="M 373.657515 68.150656 
L 371.657515 67.150656 
L 371.657515 69.150656 
z
" clip-path="url(#p9c24fcf216)" style="fill: #ff7f0e; fill-opacity: 0.5; stroke: #ff7f0e; stroke-opacity: 0.5; stroke-linejoin: miter"/>
      <path d="M 373.657515 58.135929 
L 371.657515 57.135929 
L 371.657515 59.135929 
z
" clip-path="url(#p9c24fcf216)" style="fill: #ff7f0e; fill-opacity: 0.5; stroke: #ff7f0e; stroke-opacity: 0.5; stroke-linejoin: miter"/>
      <path d="M 373.657515 136.182518 
L 371.657515 135.182518 
L 371.657515 137.182518 
z
" clip-path="url(#p9c24fcf216)" style="fill: #ff7f0e; fill-opacity: 0.5; stroke: #ff7f0e; stroke-opacity: 0.5; stroke-linejoin: miter"/>
      <path d="M 373.657515 106.671267 
L 371.657515 105.671267 
L 371.657515 107.671267 
z
" clip-path="url(#p9c24fcf216)" style="fill: #ff7f0e; fill-opacity: 0.5; stroke: #ff7f0e; stroke-opacity: 0.5; stroke-linejoin: miter"/>
      <path d="M 373.657515 253.746445 
L 371.657515 252.746445 
L 371.657515 254.746445 
z
" clip-path="url(#p9c24fcf216)" style="fill: #ff7f0e; fill-opacity: 0.5; stroke: #ff7f0e; stroke-opacity: 0.5; stroke-linejoin: miter"/>
      <path d="M 373.657515 203.252768 
L 371.657515 202.252768 
L 371.657515 204.252768 
z
" clip-path="url(#p9c24fcf216)" style="fill: #ff7f0e; fill-opacity: 0.5; stroke: #ff7f0e; stroke-opacity: 0.5; stroke-linejoin: miter"/>
      <path d="M 373.657515 104.025581 
L 371.657515 103.025581 
L 371.657515 105.025581 
z
" clip-path="url(#p9c24fcf216)" style="fill: #ff7f0e; fill-opacity: 0.5; stroke: #ff7f0e; stroke-opacity: 0.5; stroke-linejoin: miter"/>
      <path d="M 373.657515 89.749315 
L 371.657515 88.749315 
L 371.657515 90.749315 
z
" clip-path="url(#p9c24fcf216)" style="fill: #ff7f0e; fill-opacity: 0.5; stroke: #ff7f0e; stroke-opacity: 0.5; stroke-linejoin: miter"/>
      <path d="M 325.765537 249.993606 
L 327.765537 250.993606 
L 327.765537 248.993606 
z
" clip-path="url(#p9c24fcf216)" style="fill: #2ca02c; fill-opacity: 0.5; stroke: #2ca02c; stroke-opacity: 0.5; stroke-linejoin: miter"/>
      <path d="M 325.765537 143.512704 
L 327.765537 144.512704 
L 327.765537 142.512704 
z
" clip-path="url(#p9c24fcf216)" style="fill: #2ca02c; fill-opacity: 0.5; stroke: #2ca02c; stroke-opacity: 0.5; stroke-linejoin: miter"/>
      <path d="M 325.765537 246.786544 
L 327.765537 247.786544 
L 327.765537 245.786544 
z
" clip-path="url(#p9c24fcf216)" style="fill: #2ca02c; fill-opacity: 0.5; stroke: #2ca02c; stroke-opacity: 0.5; stroke-linejoin: miter"/>
      <path d="M 325.765537 52.02643 
L 327.765537 53.02643 
L 327.765537 51.02643 
z
" clip-path="url(#p9c24fcf216)" style="fill: #2ca02c; fill-opacity: 0.5; stroke: #2ca02c; stroke-opacity: 0.5; stroke-linejoin: miter"/>
      <path d="M 325.765537 211.465162 
L 327.765537 212.465162 
L 327.765537 210.465162 
z
" clip-path="url(#p9c24fcf216)" style="fill: #2ca02c; fill-opacity: 0.5; stroke: #2ca02c; stroke-opacity: 0.5; stroke-linejoin: miter"/>
      <path d="M 325.765537 151.568772 
L 327.765537 152.568772 
L 327.765537 150.568772 
z
" clip-path="url(#p9c24fcf216)" style="fill: #2ca02c; fill-opacity: 0.5; stroke: #2ca02c; stroke-opacity: 0.5; stroke-linejoin: miter"/>
      <path d="M 325.765537 103.337275 
L 327.765537 104.337275 
L 327.765537 102.337275 
z
" clip-path="url(#p9c24fcf216)" style="fill: #2ca02c; fill-opacity: 0.5; stroke: #2ca02c; stroke-opacity: 0.5; stroke-linejoin: miter"/>
      <path d="M 325.765537 70.899575 
L 327.765537 71.899575 
L 327.765537 69.899575 
z
" clip-path="url(#p9c24fcf216)" style="fill: #2ca02c; fill-opacity: 0.5; stroke: #2ca02c; stroke-opacity: 0.5; stroke-linejoin: miter"/>
      <path d="M 325.765537 130.170712 
L 327.765537 131.170712 
L 327.765537 129.170712 
z
" clip-path="url(#p9c24fcf216)" style="fill: #2ca02c; fill-opacity: 0.5; stroke: #2ca02c; stroke-opacity: 0.5; stroke-linejoin: miter"/>
      <path d="M 325.765537 46.957831 
L 327.765537 47.957831 
L 327.765537 45.957831 
z
" clip-path="url(#p9c24fcf216)" style="fill: #2ca02c; fill-opacity: 0.5; stroke: #2ca02c; stroke-opacity: 0.5; stroke-linejoin: miter"/>
      <g id="patch_6">
       <path d="M 46.965625 260.421875 
L 46.965625 22.318125 
" style="fill: none; stroke: #000000; stroke-width: 0.8; stroke-linejoin: miter; stroke-linecap: square"/>
      </g>
      <g id="text_11">
       <!-- stepping_stone_model.yaml -->
       <g transform="translate(188.243437 16.318125)scale(0.12 -0.12)">
        <defs>
         <path id="DejaVuSans-70" d="M 1159 525 
L 1159 -1331 
L 581 -1331 
L 581 3500 
L 1159 3500 
L 1159 2969 
Q 1341 3281 1617 3432 
Q 1894 3584 2278 3584 
Q 2916 3584 3314 3078 
Q 3713 2572 3713 1747 
Q 3713 922 3314 415 
Q 2916 -91 2278 -91 
Q 1894 -91 1617 61 
Q 1341 213 1159 525 
z
M 3116 1747 
Q 3116 2381 2855 2742 
Q 2594 3103 2138 3103 
Q 1681 3103 1420 2742 
Q 1159 2381 1159 1747 
Q 1159 1113 1420 752 
Q 1681 391 2138 391 
Q 2594 391 2855 752 
Q 3116 1113 3116 1747 
z
" transform="scale(0.015625)"/>
         <path id="DejaVuSans-6e" d="M 3513 2113 
L 3513 0 
L 2938 0 
L 2938 2094 
Q 2938 2591 2744 2837 
Q 2550 3084 2163 3084 
Q 1697 3084 1428 2787 
Q 1159 2491 1159 1978 
L 1159 0 
L 581 0 
L 581 3500 
L 1159 3500 
L 1159 2956 
Q 1366 3272 1645 3428 
Q 1925 3584 2291 3584 
Q 2894 3584 3203 3211 
Q 3513 2838 3513 2113 
z
" transform="scale(0.015625)"/>
         <path id="DejaVuSans-5f" d="M 3263 -1063 
L 3263 -1509 
L -63 -1509 
L -63 -1063 
L 3263 -1063 
z
" transform="scale(0.015625)"/>
         <path id="DejaVuSans-6c" d="M 603 4863 
L 1178 4863 
L 1178 0 
L 603 0 
L 603 4863 
z
" transform="scale(0.015625)"/>
         <path id="DejaVuSans-2e" d="M 684 794 
L 1344 794 
L 1344 0 
L 684 0 
L 684 794 
z
" transform="scale(0.015625)"/>
        </defs>
        <use xlink:href="#DejaVuSans-73"/>
        <use xlink:href="#DejaVuSans-74" x="52.099609"/>
        <use xlink:href="#DejaVuSans-65" x="91.308594"/>
        <use xlink:href="#DejaVuSans-70" x="152.832031"/>
        <use xlink:href="#DejaVuSans-70" x="216.308594"/>
        <use xlink:href="#DejaVuSans-69" x="279.785156"/>
        <use xlink:href="#DejaVuSans-6e" x="307.568359"/>
        <use xlink:href="#DejaVuSans-67" x="370.947266"/>
        <use xlink:href="#DejaVuSans-5f" x="434.423828"/>
        <use xlink:href="#DejaVuSans-73" x="484.423828"/>
        <use xlink:href="#DejaVuSans-74" x="536.523438"/>
        <use xlink:href="#DejaVuSans-6f" x="575.732422"/>
        <use xlink:href="#DejaVuSans-6e" x="636.914062"/>
        <use xlink:href="#DejaVuSans-65" x="700.292969"/>
        <use xlink:href="#DejaVuSans-5f" x="761.816406"/>
        <use xlink:href="#DejaVuSans-6d" x="811.816406"/>
        <use xlink:href="#DejaVuSans-6f" x="909.228516"/>
        <use xlink:href="#DejaVuSans-64" x="970.410156"/>
        <use xlink:href="#DejaVuSans-65" x="1033.886719"/>
        <use xlink:href="#DejaVuSans-6c" x="1095.410156"/>
        <use xlink:href="#DejaVuSans-2e" x="1123.193359"/>
        <use xlink:href="#DejaVuSans-79" x="1154.980469"/>
        <use xlink:href="#DejaVuSans-61" x="1214.160156"/>
        <use xlink:href="#DejaVuSans-6d" x="1275.439453"/>
        <use xlink:href="#DejaVuSans-6c" x="1372.851562"/>
       </g>
      </g>
     </g>
    </g>
    <defs>
     <clipPath id="p9c24fcf216">
      <rect x="46.965625" y="22.318125" width="450.634375" height="238.10375"/>
     </clipPath>
    </defs>
   </g>
  </g>
 </g>
</svg>
