<?xml version="1.0" encoding="utf-8" standalone="no"?>
<!DOCTYPE svg PUBLIC "-//W3C//DTD SVG 1.1//EN"
  "http://www.w3.org/Graphics/SVG/1.1/DTD/svg11.dtd">
<svg xmlns:xlink="http://www.w3.org/1999/xlink" width="504.8pt" height="280.8pt" viewBox="0 0 504.8 280.8" xmlns="http://www.w3.org/2000/svg" version="1.1">
 <metadata>
  <rdf:RDF xmlns:dc="http://purl.org/dc/elements/1.1/" xmlns:cc="http://creativecommons.org/ns#" xmlns:rdf="http://www.w3.org/1999/02/22-rdf-syntax-ns#">
   <cc:Work>
    <dc:type rdf:resource="http://purl.org/dc/dcmitype/StillImage"/>
    <dc:date>2022-03-07T08:24:51.168434</dc:date>
    <dc:format>image/svg+xml</dc:format>
    <dc:creator>
     <cc:Agent>
      <dc:title>Matplotlib v3.5.1, https://matplotlib.org/</dc:title>
     </cc:Agent>
    </dc:creator>
   </cc:Work>
  </rdf:RDF>
 </metadata>
 <defs>
  <style type="text/css">*{stroke-linejoin: round; stroke-linecap: butt}</style>
 </defs>
 <g id="figure_1">
  <g id="patch_1">
   <path d="M 0 280.8 
L 504.8 280.8 
L 504.8 0 
L 0 0 
L 0 280.8 
z
" style="fill: none"/>
  </g>
  <g id="axes_1">
   <g id="patch_2">
    <path d="M 46.965625 260.421875 
L 497.6 260.421875 
L 497.6 22.318125 
L 46.965625 22.318125 
z
" style="fill: #ffffff"/>
   </g>
   <path d="M 171.90811 251.723341 
L 172.90811 251.754777 
L 173.90811 251.791718 
L 174.90811 251.889464 
L 175.90811 251.921986 
L 176.90811 251.99561 
L 177.90811 252.034176 
L 178.90811 252.069589 
L 179.90811 252.127229 
L 180.90811 252.197615 
L 181.90811 252.24958 
L 182.90811 252.308669 
L 183.90811 252.39699 
L 184.90811 252.443135 
L 185.90811 252.485546 
L 186.90811 252.516038 
L 187.90811 252.542083 
L 188.90811 252.563283 
L 189.90811 252.617584 
L 190.90811 252.645522 
L 191.90811 252.675246 
L 192.90811 252.700641 
L 193.90811 252.711841 
L 194.90811 252.721965 
L 195.90811 252.721761 
L 196.90811 252.712251 
L 197.90811 252.700597 
L 198.90811 252.669568 
L 199.90811 252.6584 
L 200.90811 252.628283 
L 201.90811 252.568506 
L 202.90811 252.531314 
L 203.90811 252.492218 
L 204.90811 252.449778 
L 205.90811 252.417013 
L 206.90811 252.349587 
L 207.90811 252.310461 
L 208.90811 252.267786 
L 209.90811 252.197206 
L 210.90811 252.160815 
L 211.90811 252.102412 
L 212.90811 251.991459 
L 213.90811 251.920801 
L 214.90811 251.807861 
L 215.90811 251.762088 
L 217.800088 251.700805 
" clip-path="url(#p329a0f8e06)" style="fill: none; stroke: #1f77b4; stroke-opacity: 0.5; stroke-width: 0.2; stroke-linecap: square"/>
   <path d="M 171.90811 55.004266 
L 172.90811 55.035702 
L 173.90811 55.072643 
L 174.90811 55.170389 
L 175.90811 55.202911 
L 176.90811 55.276536 
L 177.90811 55.315101 
L 178.90811 55.350514 
L 179.90811 55.408154 
L 180.90811 55.47854 
L 181.90811 55.530505 
L 182.90811 55.589594 
L 183.90811 55.677915 
L 184.90811 55.72406 
L 185.90811 55.766471 
L 186.90811 55.796963 
L 187.90811 55.823008 
L 188.90811 55.844208 
L 189.90811 55.898509 
L 190.90811 55.926447 
L 191.90811 55.956171 
L 192.90811 55.981566 
L 193.90811 55.992766 
L 194.90811 56.00289 
L 195.90811 56.002686 
L 196.90811 55.993176 
L 197.90811 55.981522 
L 198.90811 55.950493 
L 199.90811 55.939325 
L 200.90811 55.909208 
L 201.90811 55.849431 
L 202.90811 55.812239 
L 203.90811 55.773143 
L 204.90811 55.730703 
L 205.90811 55.697938 
L 206.90811 55.630512 
L 207.90811 55.591386 
L 208.90811 55.548711 
L 209.90811 55.478131 
L 210.90811 55.44174 
L 211.90811 55.383337 
L 212.90811 55.272384 
L 213.90811 55.201726 
L 214.90811 55.088786 
L 215.90811 55.043013 
L 217.800088 54.98173 
" clip-path="url(#p329a0f8e06)" style="fill: none; stroke: #1f77b4; stroke-opacity: 0.5; stroke-width: 0.2; stroke-linecap: square"/>
   <path d="M 171.90811 169.26833 
L 172.90811 169.299766 
L 173.90811 169.336707 
L 174.90811 169.434453 
L 175.90811 169.466975 
L 176.90811 169.540599 
L 177.90811 169.579165 
L 178.90811 169.614578 
L 179.90811 169.672218 
L 180.90811 169.742604 
L 181.90811 169.794568 
L 182.90811 169.853658 
L 183.90811 169.941979 
L 184.90811 169.988123 
L 185.90811 170.030534 
L 186.90811 170.061027 
L 187.90811 170.087072 
L 188.90811 170.108272 
L 189.90811 170.162573 
L 190.90811 170.190511 
L 191.90811 170.220235 
L 192.90811 170.24563 
L 193.90811 170.25683 
L 194.90811 170.266954 
L 195.90811 170.26675 
L 196.90811 170.25724 
L 197.90811 170.245586 
L 198.90811 170.214557 
L 199.90811 170.203389 
L 200.90811 170.173271 
L 201.90811 170.113494 
L 202.90811 170.076303 
L 203.90811 170.037207 
L 204.90811 169.994767 
L 205.90811 169.962002 
L 206.90811 169.894576 
L 207.90811 169.85545 
L 208.90811 169.812775 
L 209.90811 169.742195 
L 210.90811 169.705804 
L 211.90811 169.647401 
L 212.90811 169.536448 
L 213.90811 169.46579 
L 214.90811 169.35285 
L 215.90811 169.307077 
L 217.800088 169.245794 
" clip-path="url(#p329a0f8e06)" style="fill: none; stroke: #1f77b4; stroke-opacity: 0.5; stroke-width: 0.2; stroke-linecap: square"/>
   <path d="M 171.90811 82.324817 
L 172.90811 82.356253 
L 173.90811 82.393193 
L 174.90811 82.49094 
L 175.90811 82.523462 
L 176.90811 82.597086 
L 177.90811 82.635652 
L 178.90811 82.671065 
L 179.90811 82.728705 
L 180.90811 82.799091 
L 181.90811 82.851055 
L 182.90811 82.910145 
L 183.90811 82.998466 
L 184.90811 83.04461 
L 185.90811 83.087021 
L 186.90811 83.117514 
L 187.90811 83.143559 
L 188.90811 83.164759 
L 189.90811 83.21906 
L 190.90811 83.246998 
L 191.90811 83.276722 
L 192.90811 83.302116 
L 193.90811 83.313317 
L 194.90811 83.323441 
L 195.90811 83.323237 
L 196.90811 83.313727 
L 197.90811 83.302073 
L 198.90811 83.271044 
L 199.90811 83.259876 
L 200.90811 83.229758 
L 201.90811 83.169981 
L 202.90811 83.13279 
L 203.90811 83.093694 
L 204.90811 83.051254 
L 205.90811 83.018489 
L 206.90811 82.951063 
L 207.90811 82.911937 
L 208.90811 82.869262 
L 209.90811 82.798682 
L 210.90811 82.762291 
L 211.90811 82.703888 
L 212.90811 82.592935 
L 213.90811 82.522277 
L 214.90811 82.409337 
L 215.90811 82.363564 
L 217.800088 82.302281 
" clip-path="url(#p329a0f8e06)" style="fill: none; stroke: #1f77b4; stroke-opacity: 0.5; stroke-width: 0.2; stroke-linecap: square"/>
   <path d="M 171.90811 46.178248 
L 172.90811 46.209685 
L 173.90811 46.246625 
L 174.90811 46.344372 
L 175.90811 46.376893 
L 176.90811 46.450518 
L 177.90811 46.489084 
L 178.90811 46.524497 
L 179.90811 46.582137 
L 180.90811 46.652523 
L 181.90811 46.704487 
L 182.90811 46.763577 
L 183.90811 46.851898 
L 184.90811 46.898042 
L 185.90811 46.940453 
L 186.90811 46.970946 
L 187.90811 46.996991 
L 188.90811 47.018191 
L 189.90811 47.072492 
L 190.90811 47.100429 
L 191.90811 47.130153 
L 192.90811 47.155548 
L 193.90811 47.166749 
L 194.90811 47.176873 
L 195.90811 47.176668 
L 196.90811 47.167158 
L 197.90811 47.155505 
L 198.90811 47.124476 
L 199.90811 47.113308 
L 200.90811 47.08319 
L 201.90811 47.023413 
L 202.90811 46.986222 
L 203.90811 46.947126 
L 204.90811 46.904686 
L 205.90811 46.871921 
L 206.90811 46.804494 
L 207.90811 46.765368 
L 208.90811 46.722694 
L 209.90811 46.652113 
L 210.90811 46.615722 
L 211.90811 46.557319 
L 212.90811 46.446367 
L 213.90811 46.375708 
L 214.90811 46.262769 
L 215.90811 46.216996 
L 217.800088 46.155712 
" clip-path="url(#p329a0f8e06)" style="fill: none; stroke: #1f77b4; stroke-opacity: 0.5; stroke-width: 0.2; stroke-linecap: square"/>
   <path d="M 171.90811 245.288386 
L 172.90811 245.319822 
L 173.90811 245.356762 
L 174.90811 245.454509 
L 175.90811 245.487031 
L 176.90811 245.560655 
L 177.90811 245.599221 
L 178.90811 245.634634 
L 179.90811 245.692274 
L 180.90811 245.76266 
L 181.90811 245.814624 
L 182.90811 245.873714 
L 183.90811 245.962035 
L 184.90811 246.008179 
L 185.90811 246.05059 
L 186.90811 246.081083 
L 187.90811 246.107128 
L 188.90811 246.128328 
L 189.90811 246.182629 
L 190.90811 246.210567 
L 191.90811 246.240291 
L 192.90811 246.265685 
L 193.90811 246.276886 
L 194.90811 246.28701 
L 195.90811 246.286806 
L 196.90811 246.277296 
L 197.90811 246.265642 
L 198.90811 246.234613 
L 199.90811 246.223445 
L 200.90811 246.193327 
L 201.90811 246.13355 
L 202.90811 246.096359 
L 203.90811 246.057263 
L 204.90811 246.014823 
L 205.90811 245.982058 
L 206.90811 245.914632 
L 207.90811 245.875506 
L 208.90811 245.832831 
L 209.90811 245.762251 
L 210.90811 245.72586 
L 211.90811 245.667456 
L 212.90811 245.556504 
L 213.90811 245.485846 
L 214.90811 245.372906 
L 215.90811 245.327133 
L 217.800088 245.26585 
" clip-path="url(#p329a0f8e06)" style="fill: none; stroke: #1f77b4; stroke-opacity: 0.5; stroke-width: 0.2; stroke-linecap: square"/>
   <path d="M 171.90811 153.127535 
L 172.90811 153.158971 
L 173.90811 153.195912 
L 174.90811 153.293658 
L 175.90811 153.32618 
L 176.90811 153.399804 
L 177.90811 153.43837 
L 178.90811 153.473783 
L 179.90811 153.531423 
L 180.90811 153.601809 
L 181.90811 153.653773 
L 182.90811 153.712863 
L 183.90811 153.801184 
L 184.90811 153.847328 
L 185.90811 153.889739 
L 186.90811 153.920232 
L 187.90811 153.946277 
L 188.90811 153.967477 
L 189.90811 154.021778 
L 190.90811 154.049716 
L 191.90811 154.07944 
L 192.90811 154.104835 
L 193.90811 154.116035 
L 194.90811 154.126159 
L 195.90811 154.125955 
L 196.90811 154.116445 
L 197.90811 154.104791 
L 198.90811 154.073762 
L 199.90811 154.062594 
L 200.90811 154.032476 
L 201.90811 153.972699 
L 202.90811 153.935508 
L 203.90811 153.896412 
L 204.90811 153.853972 
L 205.90811 153.821207 
L 206.90811 153.753781 
L 207.90811 153.714655 
L 208.90811 153.67198 
L 209.90811 153.6014 
L 210.90811 153.565009 
L 211.90811 153.506606 
L 212.90811 153.395653 
L 213.90811 153.324995 
L 214.90811 153.212055 
L 215.90811 153.166282 
L 217.800088 153.104999 
" clip-path="url(#p329a0f8e06)" style="fill: none; stroke: #1f77b4; stroke-opacity: 0.5; stroke-width: 0.2; stroke-linecap: square"/>
   <path d="M 171.90811 139.54811 
L 172.90811 139.579546 
L 173.90811 139.616487 
L 174.90811 139.714233 
L 175.90811 139.746755 
L 176.90811 139.820379 
L 177.90811 139.858945 
L 178.90811 139.894358 
L 179.90811 139.951998 
L 180.90811 140.022384 
L 181.90811 140.074348 
L 182.90811 140.133438 
L 183.90811 140.221759 
L 184.90811 140.267903 
L 185.90811 140.310314 
L 186.90811 140.340807 
L 187.90811 140.366852 
L 188.90811 140.388052 
L 189.90811 140.442353 
L 190.90811 140.470291 
L 191.90811 140.500015 
L 192.90811 140.52541 
L 193.90811 140.53661 
L 194.90811 140.546734 
L 195.90811 140.54653 
L 196.90811 140.53702 
L 197.90811 140.525366 
L 198.90811 140.494337 
L 199.90811 140.483169 
L 200.90811 140.453051 
L 201.90811 140.393275 
L 202.90811 140.356083 
L 203.90811 140.316987 
L 204.90811 140.274547 
L 205.90811 140.241782 
L 206.90811 140.174356 
L 207.90811 140.13523 
L 208.90811 140.092555 
L 209.90811 140.021975 
L 210.90811 139.985584 
L 211.90811 139.927181 
L 212.90811 139.816228 
L 213.90811 139.74557 
L 214.90811 139.63263 
L 215.90811 139.586857 
L 217.800088 139.525574 
" clip-path="url(#p329a0f8e06)" style="fill: none; stroke: #1f77b4; stroke-opacity: 0.5; stroke-width: 0.2; stroke-linecap: square"/>
   <path d="M 171.90811 164.351061 
L 172.90811 164.382497 
L 173.90811 164.419438 
L 174.90811 164.517184 
L 175.90811 164.549706 
L 176.90811 164.623331 
L 177.90811 164.661896 
L 178.90811 164.697309 
L 179.90811 164.754949 
L 180.90811 164.825336 
L 181.90811 164.8773 
L 182.90811 164.93639 
L 183.90811 165.02471 
L 184.90811 165.070855 
L 185.90811 165.113266 
L 186.90811 165.143758 
L 187.90811 165.169803 
L 188.90811 165.191003 
L 189.90811 165.245305 
L 190.90811 165.273242 
L 191.90811 165.302966 
L 192.90811 165.328361 
L 193.90811 165.339561 
L 194.90811 165.349685 
L 195.90811 165.349481 
L 196.90811 165.339971 
L 197.90811 165.328317 
L 198.90811 165.297288 
L 199.90811 165.28612 
L 200.90811 165.256003 
L 201.90811 165.196226 
L 202.90811 165.159034 
L 203.90811 165.119938 
L 204.90811 165.077499 
L 205.90811 165.044733 
L 206.90811 164.977307 
L 207.90811 164.938181 
L 208.90811 164.895507 
L 209.90811 164.824926 
L 210.90811 164.788535 
L 211.90811 164.730132 
L 212.90811 164.619179 
L 213.90811 164.548521 
L 214.90811 164.435581 
L 215.90811 164.389808 
L 217.800088 164.328525 
" clip-path="url(#p329a0f8e06)" style="fill: none; stroke: #1f77b4; stroke-opacity: 0.5; stroke-width: 0.2; stroke-linecap: square"/>
   <path d="M 171.90811 233.864265 
L 172.90811 233.895701 
L 173.90811 233.932642 
L 174.90811 234.030388 
L 175.90811 234.06291 
L 176.90811 234.136534 
L 177.90811 234.1751 
L 178.90811 234.210513 
L 179.90811 234.268153 
L 180.90811 234.338539 
L 181.90811 234.390503 
L 182.90811 234.449593 
L 183.90811 234.537914 
L 184.90811 234.584058 
L 185.90811 234.626469 
L 186.90811 234.656962 
L 187.90811 234.683007 
L 188.90811 234.704207 
L 189.90811 234.758508 
L 190.90811 234.786446 
L 191.90811 234.81617 
L 192.90811 234.841565 
L 193.90811 234.852765 
L 194.90811 234.862889 
L 195.90811 234.862685 
L 196.90811 234.853175 
L 197.90811 234.841521 
L 198.90811 234.810492 
L 199.90811 234.799324 
L 200.90811 234.769206 
L 201.90811 234.709429 
L 202.90811 234.672238 
L 203.90811 234.633142 
L 204.90811 234.590702 
L 205.90811 234.557937 
L 206.90811 234.490511 
L 207.90811 234.451385 
L 208.90811 234.40871 
L 209.90811 234.33813 
L 210.90811 234.301739 
L 211.90811 234.243336 
L 212.90811 234.132383 
L 213.90811 234.061725 
L 214.90811 233.948785 
L 215.90811 233.903012 
L 217.800088 233.841729 
" clip-path="url(#p329a0f8e06)" style="fill: none; stroke: #1f77b4; stroke-opacity: 0.5; stroke-width: 0.2; stroke-linecap: square"/>
   <path d="M 217.800088 159.638919 
L 216.800088 159.607482 
L 215.800088 159.570542 
L 214.800088 159.472795 
L 213.800088 159.440274 
L 212.800088 159.366649 
L 211.800088 159.328084 
L 210.800088 159.29267 
L 209.800088 159.23503 
L 208.800088 159.164644 
L 207.800088 159.11268 
L 206.800088 159.05359 
L 205.800088 158.965269 
L 204.800088 158.919125 
L 203.800088 158.876714 
L 202.800088 158.846221 
L 201.800088 158.820176 
L 200.800088 158.798976 
L 199.800088 158.744675 
L 198.800088 158.716738 
L 197.800088 158.687014 
L 196.800088 158.661619 
L 195.800088 158.650419 
L 194.800088 158.640295 
L 193.800088 158.640499 
L 192.800088 158.650009 
L 191.800088 158.661662 
L 190.800088 158.692692 
L 189.800088 158.70386 
L 188.800088 158.733977 
L 187.800088 158.793754 
L 186.800088 158.830946 
L 185.800088 158.870042 
L 184.800088 158.912481 
L 183.800088 158.945246 
L 182.800088 159.012673 
L 181.800088 159.051799 
L 180.800088 159.094473 
L 179.800088 159.165054 
L 178.800088 159.201445 
L 177.800088 159.259848 
L 176.800088 159.370801 
L 175.800088 159.441459 
L 174.800088 159.554399 
L 173.800088 159.600172 
L 171.90811 159.661455 
" clip-path="url(#p329a0f8e06)" style="fill: none; stroke: #ff7f0e; stroke-opacity: 0.5; stroke-width: 0.2; stroke-linecap: square"/>
   <path d="M 217.800088 178.996981 
L 216.800088 178.965544 
L 215.800088 178.928604 
L 214.800088 178.830857 
L 213.800088 178.798336 
L 212.800088 178.724711 
L 211.800088 178.686145 
L 210.800088 178.650732 
L 209.800088 178.593092 
L 208.800088 178.522706 
L 207.800088 178.470742 
L 206.800088 178.411652 
L 205.800088 178.323331 
L 204.800088 178.277187 
L 203.800088 178.234776 
L 202.800088 178.204283 
L 201.800088 178.178238 
L 200.800088 178.157038 
L 199.800088 178.102737 
L 198.800088 178.074799 
L 197.800088 178.045076 
L 196.800088 178.019681 
L 195.800088 178.00848 
L 194.800088 177.998356 
L 193.800088 177.998561 
L 192.800088 178.008071 
L 191.800088 178.019724 
L 190.800088 178.050753 
L 189.800088 178.061921 
L 188.800088 178.092039 
L 187.800088 178.151816 
L 186.800088 178.189007 
L 185.800088 178.228103 
L 184.800088 178.270543 
L 183.800088 178.303308 
L 182.800088 178.370735 
L 181.800088 178.409861 
L 180.800088 178.452535 
L 179.800088 178.523116 
L 178.800088 178.559507 
L 177.800088 178.61791 
L 176.800088 178.728862 
L 175.800088 178.799521 
L 174.800088 178.91246 
L 173.800088 178.958233 
L 171.90811 179.019517 
" clip-path="url(#p329a0f8e06)" style="fill: none; stroke: #ff7f0e; stroke-opacity: 0.5; stroke-width: 0.2; stroke-linecap: square"/>
   <path d="M 217.800088 123.355852 
L 216.800088 123.324415 
L 215.800088 123.287475 
L 214.800088 123.189728 
L 213.800088 123.157207 
L 212.800088 123.083582 
L 211.800088 123.045016 
L 210.800088 123.009603 
L 209.800088 122.951963 
L 208.800088 122.881577 
L 207.800088 122.829613 
L 206.800088 122.770523 
L 205.800088 122.682202 
L 204.800088 122.636058 
L 203.800088 122.593647 
L 202.800088 122.563154 
L 201.800088 122.537109 
L 200.800088 122.515909 
L 199.800088 122.461608 
L 198.800088 122.433671 
L 197.800088 122.403947 
L 196.800088 122.378552 
L 195.800088 122.367351 
L 194.800088 122.357227 
L 193.800088 122.357432 
L 192.800088 122.366942 
L 191.800088 122.378595 
L 190.800088 122.409625 
L 189.800088 122.420792 
L 188.800088 122.45091 
L 187.800088 122.510687 
L 186.800088 122.547878 
L 185.800088 122.586975 
L 184.800088 122.629414 
L 183.800088 122.662179 
L 182.800088 122.729606 
L 181.800088 122.768732 
L 180.800088 122.811406 
L 179.800088 122.881987 
L 178.800088 122.918378 
L 177.800088 122.976781 
L 176.800088 123.087733 
L 175.800088 123.158392 
L 174.800088 123.271332 
L 173.800088 123.317104 
L 171.90811 123.378388 
" clip-path="url(#p329a0f8e06)" style="fill: none; stroke: #ff7f0e; stroke-opacity: 0.5; stroke-width: 0.2; stroke-linecap: square"/>
   <path d="M 217.800088 179.365731 
L 216.800088 179.334295 
L 215.800088 179.297354 
L 214.800088 179.199608 
L 213.800088 179.167086 
L 212.800088 179.093461 
L 211.800088 179.054896 
L 210.800088 179.019483 
L 209.800088 178.961843 
L 208.800088 178.891457 
L 207.800088 178.839492 
L 206.800088 178.780403 
L 205.800088 178.692082 
L 204.800088 178.645937 
L 203.800088 178.603526 
L 202.800088 178.573034 
L 201.800088 178.546989 
L 200.800088 178.525789 
L 199.800088 178.471488 
L 198.800088 178.44355 
L 197.800088 178.413826 
L 196.800088 178.388431 
L 195.800088 178.377231 
L 194.800088 178.367107 
L 193.800088 178.367311 
L 192.800088 178.376821 
L 191.800088 178.388475 
L 190.800088 178.419504 
L 189.800088 178.430672 
L 188.800088 178.460789 
L 187.800088 178.520566 
L 186.800088 178.557758 
L 185.800088 178.596854 
L 184.800088 178.639294 
L 183.800088 178.672059 
L 182.800088 178.739485 
L 181.800088 178.778611 
L 180.800088 178.821286 
L 179.800088 178.891866 
L 178.800088 178.928257 
L 177.800088 178.98666 
L 176.800088 179.097613 
L 175.800088 179.168271 
L 174.800088 179.281211 
L 173.800088 179.326984 
L 171.90811 179.388267 
" clip-path="url(#p329a0f8e06)" style="fill: none; stroke: #ff7f0e; stroke-opacity: 0.5; stroke-width: 0.2; stroke-linecap: square"/>
   <path d="M 217.800088 80.471534 
L 216.800088 80.440098 
L 215.800088 80.403157 
L 214.800088 80.305411 
L 213.800088 80.272889 
L 212.800088 80.199265 
L 211.800088 80.160699 
L 210.800088 80.125286 
L 209.800088 80.067646 
L 208.800088 79.99726 
L 207.800088 79.945295 
L 206.800088 79.886206 
L 205.800088 79.797885 
L 204.800088 79.75174 
L 203.800088 79.70933 
L 202.800088 79.678837 
L 201.800088 79.652792 
L 200.800088 79.631592 
L 199.800088 79.577291 
L 198.800088 79.549353 
L 197.800088 79.519629 
L 196.800088 79.494234 
L 195.800088 79.483034 
L 194.800088 79.47291 
L 193.800088 79.473114 
L 192.800088 79.482624 
L 191.800088 79.494278 
L 190.800088 79.525307 
L 189.800088 79.536475 
L 188.800088 79.566592 
L 187.800088 79.626369 
L 186.800088 79.663561 
L 185.800088 79.702657 
L 184.800088 79.745097 
L 183.800088 79.777862 
L 182.800088 79.845288 
L 181.800088 79.884414 
L 180.800088 79.927089 
L 179.800088 79.997669 
L 178.800088 80.03406 
L 177.800088 80.092463 
L 176.800088 80.203416 
L 175.800088 80.274074 
L 174.800088 80.387014 
L 173.800088 80.432787 
L 171.90811 80.49407 
" clip-path="url(#p329a0f8e06)" style="fill: none; stroke: #ff7f0e; stroke-opacity: 0.5; stroke-width: 0.2; stroke-linecap: square"/>
   <path d="M 217.800088 53.338256 
L 216.800088 53.306819 
L 215.800088 53.269879 
L 214.800088 53.172132 
L 213.800088 53.139611 
L 212.800088 53.065986 
L 211.800088 53.02742 
L 210.800088 52.992007 
L 209.800088 52.934367 
L 208.800088 52.863981 
L 207.800088 52.812017 
L 206.800088 52.752927 
L 205.800088 52.664606 
L 204.800088 52.618462 
L 203.800088 52.576051 
L 202.800088 52.545558 
L 201.800088 52.519513 
L 200.800088 52.498313 
L 199.800088 52.444012 
L 198.800088 52.416075 
L 197.800088 52.386351 
L 196.800088 52.360956 
L 195.800088 52.349755 
L 194.800088 52.339631 
L 193.800088 52.339836 
L 192.800088 52.349346 
L 191.800088 52.360999 
L 190.800088 52.392028 
L 189.800088 52.403196 
L 188.800088 52.433314 
L 187.800088 52.493091 
L 186.800088 52.530282 
L 185.800088 52.569378 
L 184.800088 52.611818 
L 183.800088 52.644583 
L 182.800088 52.71201 
L 181.800088 52.751136 
L 180.800088 52.79381 
L 179.800088 52.864391 
L 178.800088 52.900782 
L 177.800088 52.959185 
L 176.800088 53.070137 
L 175.800088 53.140796 
L 174.800088 53.253735 
L 173.800088 53.299508 
L 171.90811 53.360792 
" clip-path="url(#p329a0f8e06)" style="fill: none; stroke: #ff7f0e; stroke-opacity: 0.5; stroke-width: 0.2; stroke-linecap: square"/>
   <path d="M 217.800088 168.54924 
L 216.800088 168.517804 
L 215.800088 168.480863 
L 214.800088 168.383117 
L 213.800088 168.350595 
L 212.800088 168.276971 
L 211.800088 168.238405 
L 210.800088 168.202992 
L 209.800088 168.145352 
L 208.800088 168.074966 
L 207.800088 168.023002 
L 206.800088 167.963912 
L 205.800088 167.875591 
L 204.800088 167.829447 
L 203.800088 167.787036 
L 202.800088 167.756543 
L 201.800088 167.730498 
L 200.800088 167.709298 
L 199.800088 167.654997 
L 198.800088 167.627059 
L 197.800088 167.597335 
L 196.800088 167.57194 
L 195.800088 167.56074 
L 194.800088 167.550616 
L 193.800088 167.55082 
L 192.800088 167.56033 
L 191.800088 167.571984 
L 190.800088 167.603013 
L 189.800088 167.614181 
L 188.800088 167.644299 
L 187.800088 167.704076 
L 186.800088 167.741267 
L 185.800088 167.780363 
L 184.800088 167.822803 
L 183.800088 167.855568 
L 182.800088 167.922994 
L 181.800088 167.96212 
L 180.800088 168.004795 
L 179.800088 168.075375 
L 178.800088 168.111766 
L 177.800088 168.170169 
L 176.800088 168.281122 
L 175.800088 168.35178 
L 174.800088 168.46472 
L 173.800088 168.510493 
L 171.90811 168.571776 
" clip-path="url(#p329a0f8e06)" style="fill: none; stroke: #ff7f0e; stroke-opacity: 0.5; stroke-width: 0.2; stroke-linecap: square"/>
   <path d="M 217.800088 170.342938 
L 216.800088 170.311502 
L 215.800088 170.274562 
L 214.800088 170.176815 
L 213.800088 170.144293 
L 212.800088 170.070669 
L 211.800088 170.032103 
L 210.800088 169.99669 
L 209.800088 169.93905 
L 208.800088 169.868664 
L 207.800088 169.8167 
L 206.800088 169.75761 
L 205.800088 169.669289 
L 204.800088 169.623145 
L 203.800088 169.580734 
L 202.800088 169.550241 
L 201.800088 169.524196 
L 200.800088 169.502996 
L 199.800088 169.448695 
L 198.800088 169.420757 
L 197.800088 169.391033 
L 196.800088 169.365639 
L 195.800088 169.354438 
L 194.800088 169.344314 
L 193.800088 169.344518 
L 192.800088 169.354028 
L 191.800088 169.365682 
L 190.800088 169.396711 
L 189.800088 169.407879 
L 188.800088 169.437997 
L 187.800088 169.497774 
L 186.800088 169.534965 
L 185.800088 169.574061 
L 184.800088 169.616501 
L 183.800088 169.649266 
L 182.800088 169.716692 
L 181.800088 169.755818 
L 180.800088 169.798493 
L 179.800088 169.869073 
L 178.800088 169.905464 
L 177.800088 169.963868 
L 176.800088 170.07482 
L 175.800088 170.145478 
L 174.800088 170.258418 
L 173.800088 170.304191 
L 171.90811 170.365474 
" clip-path="url(#p329a0f8e06)" style="fill: none; stroke: #ff7f0e; stroke-opacity: 0.5; stroke-width: 0.2; stroke-linecap: square"/>
   <path d="M 217.800088 204.138583 
L 216.800088 204.107147 
L 215.800088 204.070207 
L 214.800088 203.97246 
L 213.800088 203.939938 
L 212.800088 203.866314 
L 211.800088 203.827748 
L 210.800088 203.792335 
L 209.800088 203.734695 
L 208.800088 203.664309 
L 207.800088 203.612345 
L 206.800088 203.553255 
L 205.800088 203.464934 
L 204.800088 203.41879 
L 203.800088 203.376379 
L 202.800088 203.345886 
L 201.800088 203.319841 
L 200.800088 203.298641 
L 199.800088 203.24434 
L 198.800088 203.216402 
L 197.800088 203.186678 
L 196.800088 203.161284 
L 195.800088 203.150083 
L 194.800088 203.139959 
L 193.800088 203.140164 
L 192.800088 203.149673 
L 191.800088 203.161327 
L 190.800088 203.192356 
L 189.800088 203.203524 
L 188.800088 203.233642 
L 187.800088 203.293419 
L 186.800088 203.33061 
L 185.800088 203.369706 
L 184.800088 203.412146 
L 183.800088 203.444911 
L 182.800088 203.512338 
L 181.800088 203.551463 
L 180.800088 203.594138 
L 179.800088 203.664719 
L 178.800088 203.701109 
L 177.800088 203.759513 
L 176.800088 203.870465 
L 175.800088 203.941124 
L 174.800088 204.054063 
L 173.800088 204.099836 
L 171.90811 204.161119 
" clip-path="url(#p329a0f8e06)" style="fill: none; stroke: #ff7f0e; stroke-opacity: 0.5; stroke-width: 0.2; stroke-linecap: square"/>
   <path d="M 217.800088 73.905354 
L 216.800088 73.873917 
L 215.800088 73.836977 
L 214.800088 73.73923 
L 213.800088 73.706709 
L 212.800088 73.633084 
L 211.800088 73.594519 
L 210.800088 73.559105 
L 209.800088 73.501465 
L 208.800088 73.431079 
L 207.800088 73.379115 
L 206.800088 73.320025 
L 205.800088 73.231704 
L 204.800088 73.18556 
L 203.800088 73.143149 
L 202.800088 73.112656 
L 201.800088 73.086611 
L 200.800088 73.065411 
L 199.800088 73.01111 
L 198.800088 72.983173 
L 197.800088 72.953449 
L 196.800088 72.928054 
L 195.800088 72.916854 
L 194.800088 72.90673 
L 193.800088 72.906934 
L 192.800088 72.916444 
L 191.800088 72.928097 
L 190.800088 72.959127 
L 189.800088 72.970295 
L 188.800088 73.000412 
L 187.800088 73.060189 
L 186.800088 73.097381 
L 185.800088 73.136477 
L 184.800088 73.178916 
L 183.800088 73.211681 
L 182.800088 73.279108 
L 181.800088 73.318234 
L 180.800088 73.360908 
L 179.800088 73.431489 
L 178.800088 73.46788 
L 177.800088 73.526283 
L 176.800088 73.637236 
L 175.800088 73.707894 
L 174.800088 73.820834 
L 173.800088 73.866607 
L 171.90811 73.92789 
" clip-path="url(#p329a0f8e06)" style="fill: none; stroke: #ff7f0e; stroke-opacity: 0.5; stroke-width: 0.2; stroke-linecap: square"/>
   <path d="M 326.765537 202.305162 
L 327.765537 202.336598 
L 328.765537 202.373539 
L 329.765537 202.471285 
L 330.765537 202.503807 
L 331.765537 202.577432 
L 332.765537 202.615997 
L 333.765537 202.65141 
L 334.765537 202.70905 
L 335.765537 202.779436 
L 336.765537 202.831401 
L 337.765537 202.89049 
L 338.765537 202.978811 
L 339.765537 203.024956 
L 340.765537 203.067367 
L 341.765537 203.097859 
L 342.765537 203.123904 
L 343.765537 203.145104 
L 344.765537 203.199405 
L 345.765537 203.227343 
L 346.765537 203.257067 
L 347.765537 203.282462 
L 348.765537 203.293662 
L 349.765537 203.303786 
L 350.765537 203.303582 
L 351.765537 203.294072 
L 352.765537 203.282418 
L 353.765537 203.251389 
L 354.765537 203.240221 
L 355.765537 203.210104 
L 356.765537 203.150327 
L 357.765537 203.113135 
L 358.765537 203.074039 
L 359.765537 203.031599 
L 360.765537 202.998834 
L 361.765537 202.931408 
L 362.765537 202.892282 
L 363.765537 202.849607 
L 364.765537 202.779027 
L 365.765537 202.742636 
L 366.765537 202.684233 
L 367.765537 202.57328 
L 368.765537 202.502622 
L 369.765537 202.389682 
L 370.765537 202.343909 
L 372.657515 202.282626 
" clip-path="url(#p329a0f8e06)" style="fill: none; stroke: #ff7f0e; stroke-opacity: 0.5; stroke-width: 0.2; stroke-linecap: square"/>
   <path d="M 326.765537 163.549692 
L 327.765537 163.581129 
L 328.765537 163.618069 
L 329.765537 163.715816 
L 330.765537 163.748337 
L 331.765537 163.821962 
L 332.765537 163.860528 
L 333.765537 163.895941 
L 334.765537 163.953581 
L 335.765537 164.023967 
L 336.765537 164.075931 
L 337.765537 164.135021 
L 338.765537 164.223342 
L 339.765537 164.269486 
L 340.765537 164.311897 
L 341.765537 164.34239 
L 342.765537 164.368435 
L 343.765537 164.389635 
L 344.765537 164.443936 
L 345.765537 164.471873 
L 346.765537 164.501597 
L 347.765537 164.526992 
L 348.765537 164.538193 
L 349.765537 164.548317 
L 350.765537 164.548112 
L 351.765537 164.538602 
L 352.765537 164.526949 
L 353.765537 164.495919 
L 354.765537 164.484752 
L 355.765537 164.454634 
L 356.765537 164.394857 
L 357.765537 164.357666 
L 358.765537 164.318569 
L 359.765537 164.27613 
L 360.765537 164.243365 
L 361.765537 164.175938 
L 362.765537 164.136812 
L 363.765537 164.094138 
L 364.765537 164.023557 
L 365.765537 163.987166 
L 366.765537 163.928763 
L 367.765537 163.817811 
L 368.765537 163.747152 
L 369.765537 163.634212 
L 370.765537 163.58844 
L 372.657515 163.527156 
" clip-path="url(#p329a0f8e06)" style="fill: none; stroke: #ff7f0e; stroke-opacity: 0.5; stroke-width: 0.2; stroke-linecap: square"/>
   <path d="M 326.765537 207.245942 
L 327.765537 207.277378 
L 328.765537 207.314319 
L 329.765537 207.412065 
L 330.765537 207.444587 
L 331.765537 207.518212 
L 332.765537 207.556777 
L 333.765537 207.59219 
L 334.765537 207.64983 
L 335.765537 207.720217 
L 336.765537 207.772181 
L 337.765537 207.831271 
L 338.765537 207.919591 
L 339.765537 207.965736 
L 340.765537 208.008147 
L 341.765537 208.038639 
L 342.765537 208.064684 
L 343.765537 208.085884 
L 344.765537 208.140186 
L 345.765537 208.168123 
L 346.765537 208.197847 
L 347.765537 208.223242 
L 348.765537 208.234442 
L 349.765537 208.244566 
L 350.765537 208.244362 
L 351.765537 208.234852 
L 352.765537 208.223198 
L 353.765537 208.192169 
L 354.765537 208.181001 
L 355.765537 208.150884 
L 356.765537 208.091107 
L 357.765537 208.053915 
L 358.765537 208.014819 
L 359.765537 207.97238 
L 360.765537 207.939614 
L 361.765537 207.872188 
L 362.765537 207.833062 
L 363.765537 207.790388 
L 364.765537 207.719807 
L 365.765537 207.683416 
L 366.765537 207.625013 
L 367.765537 207.51406 
L 368.765537 207.443402 
L 369.765537 207.330462 
L 370.765537 207.284689 
L 372.657515 207.223406 
" clip-path="url(#p329a0f8e06)" style="fill: none; stroke: #ff7f0e; stroke-opacity: 0.5; stroke-width: 0.2; stroke-linecap: square"/>
   <path d="M 326.765537 168.557819 
L 327.765537 168.589256 
L 328.765537 168.626196 
L 329.765537 168.723943 
L 330.765537 168.756464 
L 331.765537 168.830089 
L 332.765537 168.868655 
L 333.765537 168.904068 
L 334.765537 168.961708 
L 335.765537 169.032094 
L 336.765537 169.084058 
L 337.765537 169.143148 
L 338.765537 169.231469 
L 339.765537 169.277613 
L 340.765537 169.320024 
L 341.765537 169.350517 
L 342.765537 169.376562 
L 343.765537 169.397762 
L 344.765537 169.452063 
L 345.765537 169.480001 
L 346.765537 169.509724 
L 347.765537 169.535119 
L 348.765537 169.54632 
L 349.765537 169.556444 
L 350.765537 169.556239 
L 351.765537 169.546729 
L 352.765537 169.535076 
L 353.765537 169.504047 
L 354.765537 169.492879 
L 355.765537 169.462761 
L 356.765537 169.402984 
L 357.765537 169.365793 
L 358.765537 169.326697 
L 359.765537 169.284257 
L 360.765537 169.251492 
L 361.765537 169.184065 
L 362.765537 169.144939 
L 363.765537 169.102265 
L 364.765537 169.031684 
L 365.765537 168.995293 
L 366.765537 168.93689 
L 367.765537 168.825938 
L 368.765537 168.755279 
L 369.765537 168.64234 
L 370.765537 168.596567 
L 372.657515 168.535283 
" clip-path="url(#p329a0f8e06)" style="fill: none; stroke: #ff7f0e; stroke-opacity: 0.5; stroke-width: 0.2; stroke-linecap: square"/>
   <path d="M 326.765537 162.367048 
L 327.765537 162.398484 
L 328.765537 162.435424 
L 329.765537 162.533171 
L 330.765537 162.565693 
L 331.765537 162.639317 
L 332.765537 162.677883 
L 333.765537 162.713296 
L 334.765537 162.770936 
L 335.765537 162.841322 
L 336.765537 162.893286 
L 337.765537 162.952376 
L 338.765537 163.040697 
L 339.765537 163.086841 
L 340.765537 163.129252 
L 341.765537 163.159745 
L 342.765537 163.18579 
L 343.765537 163.20699 
L 344.765537 163.261291 
L 345.765537 163.289229 
L 346.765537 163.318953 
L 347.765537 163.344347 
L 348.765537 163.355548 
L 349.765537 163.365672 
L 350.765537 163.365467 
L 351.765537 163.355958 
L 352.765537 163.344304 
L 353.765537 163.313275 
L 354.765537 163.302107 
L 355.765537 163.271989 
L 356.765537 163.212212 
L 357.765537 163.175021 
L 358.765537 163.135925 
L 359.765537 163.093485 
L 360.765537 163.06072 
L 361.765537 162.993294 
L 362.765537 162.954168 
L 363.765537 162.911493 
L 364.765537 162.840912 
L 365.765537 162.804522 
L 366.765537 162.746118 
L 367.765537 162.635166 
L 368.765537 162.564508 
L 369.765537 162.451568 
L 370.765537 162.405795 
L 372.657515 162.344512 
" clip-path="url(#p329a0f8e06)" style="fill: none; stroke: #ff7f0e; stroke-opacity: 0.5; stroke-width: 0.2; stroke-linecap: square"/>
   <path d="M 326.765537 180.041542 
L 327.765537 180.072979 
L 328.765537 180.109919 
L 329.765537 180.207666 
L 330.765537 180.240187 
L 331.765537 180.313812 
L 332.765537 180.352377 
L 333.765537 180.387791 
L 334.765537 180.445431 
L 335.765537 180.515817 
L 336.765537 180.567781 
L 337.765537 180.626871 
L 338.765537 180.715192 
L 339.765537 180.761336 
L 340.765537 180.803747 
L 341.765537 180.83424 
L 342.765537 180.860285 
L 343.765537 180.881485 
L 344.765537 180.935786 
L 345.765537 180.963723 
L 346.765537 180.993447 
L 347.765537 181.018842 
L 348.765537 181.030042 
L 349.765537 181.040166 
L 350.765537 181.039962 
L 351.765537 181.030452 
L 352.765537 181.018799 
L 353.765537 180.987769 
L 354.765537 180.976601 
L 355.765537 180.946484 
L 356.765537 180.886707 
L 357.765537 180.849515 
L 358.765537 180.810419 
L 359.765537 180.76798 
L 360.765537 180.735215 
L 361.765537 180.667788 
L 362.765537 180.628662 
L 363.765537 180.585988 
L 364.765537 180.515407 
L 365.765537 180.479016 
L 366.765537 180.420613 
L 367.765537 180.30966 
L 368.765537 180.239002 
L 369.765537 180.126062 
L 370.765537 180.080289 
L 372.657515 180.019006 
" clip-path="url(#p329a0f8e06)" style="fill: none; stroke: #ff7f0e; stroke-opacity: 0.5; stroke-width: 0.2; stroke-linecap: square"/>
   <path d="M 326.765537 127.144804 
L 327.765537 127.17624 
L 328.765537 127.21318 
L 329.765537 127.310927 
L 330.765537 127.343448 
L 331.765537 127.417073 
L 332.765537 127.455639 
L 333.765537 127.491052 
L 334.765537 127.548692 
L 335.765537 127.619078 
L 336.765537 127.671042 
L 337.765537 127.730132 
L 338.765537 127.818453 
L 339.765537 127.864597 
L 340.765537 127.907008 
L 341.765537 127.937501 
L 342.765537 127.963546 
L 343.765537 127.984746 
L 344.765537 128.039047 
L 345.765537 128.066985 
L 346.765537 128.096709 
L 347.765537 128.122103 
L 348.765537 128.133304 
L 349.765537 128.143428 
L 350.765537 128.143223 
L 351.765537 128.133713 
L 352.765537 128.12206 
L 353.765537 128.091031 
L 354.765537 128.079863 
L 355.765537 128.049745 
L 356.765537 127.989968 
L 357.765537 127.952777 
L 358.765537 127.913681 
L 359.765537 127.871241 
L 360.765537 127.838476 
L 361.765537 127.771049 
L 362.765537 127.731924 
L 363.765537 127.689249 
L 364.765537 127.618668 
L 365.765537 127.582278 
L 366.765537 127.523874 
L 367.765537 127.412922 
L 368.765537 127.342263 
L 369.765537 127.229324 
L 370.765537 127.183551 
L 372.657515 127.122268 
" clip-path="url(#p329a0f8e06)" style="fill: none; stroke: #ff7f0e; stroke-opacity: 0.5; stroke-width: 0.2; stroke-linecap: square"/>
   <path d="M 326.765537 217.159998 
L 327.765537 217.191434 
L 328.765537 217.228375 
L 329.765537 217.326121 
L 330.765537 217.358643 
L 331.765537 217.432268 
L 332.765537 217.470833 
L 333.765537 217.506246 
L 334.765537 217.563886 
L 335.765537 217.634273 
L 336.765537 217.686237 
L 337.765537 217.745327 
L 338.765537 217.833647 
L 339.765537 217.879792 
L 340.765537 217.922203 
L 341.765537 217.952695 
L 342.765537 217.97874 
L 343.765537 217.99994 
L 344.765537 218.054242 
L 345.765537 218.082179 
L 346.765537 218.111903 
L 347.765537 218.137298 
L 348.765537 218.148498 
L 349.765537 218.158622 
L 350.765537 218.158418 
L 351.765537 218.148908 
L 352.765537 218.137254 
L 353.765537 218.106225 
L 354.765537 218.095057 
L 355.765537 218.06494 
L 356.765537 218.005163 
L 357.765537 217.967971 
L 358.765537 217.928875 
L 359.765537 217.886435 
L 360.765537 217.85367 
L 361.765537 217.786244 
L 362.765537 217.747118 
L 363.765537 217.704444 
L 364.765537 217.633863 
L 365.765537 217.597472 
L 366.765537 217.539069 
L 367.765537 217.428116 
L 368.765537 217.357458 
L 369.765537 217.244518 
L 370.765537 217.198745 
L 372.657515 217.137462 
" clip-path="url(#p329a0f8e06)" style="fill: none; stroke: #ff7f0e; stroke-opacity: 0.5; stroke-width: 0.2; stroke-linecap: square"/>
   <path d="M 326.765537 128.920902 
L 327.765537 128.952339 
L 328.765537 128.989279 
L 329.765537 129.087025 
L 330.765537 129.119547 
L 331.765537 129.193172 
L 332.765537 129.231737 
L 333.765537 129.26715 
L 334.765537 129.32479 
L 335.765537 129.395177 
L 336.765537 129.447141 
L 337.765537 129.506231 
L 338.765537 129.594552 
L 339.765537 129.640696 
L 340.765537 129.683107 
L 341.765537 129.713599 
L 342.765537 129.739644 
L 343.765537 129.760844 
L 344.765537 129.815146 
L 345.765537 129.843083 
L 346.765537 129.872807 
L 347.765537 129.898202 
L 348.765537 129.909402 
L 349.765537 129.919526 
L 350.765537 129.919322 
L 351.765537 129.909812 
L 352.765537 129.898159 
L 353.765537 129.867129 
L 354.765537 129.855961 
L 355.765537 129.825844 
L 356.765537 129.766067 
L 357.765537 129.728875 
L 358.765537 129.689779 
L 359.765537 129.64734 
L 360.765537 129.614574 
L 361.765537 129.547148 
L 362.765537 129.508022 
L 363.765537 129.465348 
L 364.765537 129.394767 
L 365.765537 129.358376 
L 366.765537 129.299973 
L 367.765537 129.18902 
L 368.765537 129.118362 
L 369.765537 129.005422 
L 370.765537 128.959649 
L 372.657515 128.898366 
" clip-path="url(#p329a0f8e06)" style="fill: none; stroke: #ff7f0e; stroke-opacity: 0.5; stroke-width: 0.2; stroke-linecap: square"/>
   <path d="M 326.765537 105.689615 
L 327.765537 105.721051 
L 328.765537 105.757992 
L 329.765537 105.855738 
L 330.765537 105.88826 
L 331.765537 105.961884 
L 332.765537 106.00045 
L 333.765537 106.035863 
L 334.765537 106.093503 
L 335.765537 106.163889 
L 336.765537 106.215853 
L 337.765537 106.274943 
L 338.765537 106.363264 
L 339.765537 106.409409 
L 340.765537 106.451819 
L 341.765537 106.482312 
L 342.765537 106.508357 
L 343.765537 106.529557 
L 344.765537 106.583858 
L 345.765537 106.611796 
L 346.765537 106.64152 
L 347.765537 106.666915 
L 348.765537 106.678115 
L 349.765537 106.688239 
L 350.765537 106.688035 
L 351.765537 106.678525 
L 352.765537 106.666871 
L 353.765537 106.635842 
L 354.765537 106.624674 
L 355.765537 106.594556 
L 356.765537 106.53478 
L 357.765537 106.497588 
L 358.765537 106.458492 
L 359.765537 106.416052 
L 360.765537 106.383287 
L 361.765537 106.315861 
L 362.765537 106.276735 
L 363.765537 106.23406 
L 364.765537 106.16348 
L 365.765537 106.127089 
L 366.765537 106.068686 
L 367.765537 105.957733 
L 368.765537 105.887075 
L 369.765537 105.774135 
L 370.765537 105.728362 
L 372.657515 105.667079 
" clip-path="url(#p329a0f8e06)" style="fill: none; stroke: #ff7f0e; stroke-opacity: 0.5; stroke-width: 0.2; stroke-linecap: square"/>
   <path d="M 372.657515 199.976511 
L 371.657515 199.945074 
L 370.657515 199.908134 
L 369.657515 199.810387 
L 368.657515 199.777866 
L 367.657515 199.704241 
L 366.657515 199.665676 
L 365.657515 199.630262 
L 364.657515 199.572622 
L 363.657515 199.502236 
L 362.657515 199.450272 
L 361.657515 199.391182 
L 360.657515 199.302861 
L 359.657515 199.256717 
L 358.657515 199.214306 
L 357.657515 199.183813 
L 356.657515 199.157768 
L 355.657515 199.136568 
L 354.657515 199.082267 
L 353.657515 199.05433 
L 352.657515 199.024606 
L 351.657515 198.999211 
L 350.657515 198.988011 
L 349.657515 198.977887 
L 348.657515 198.978091 
L 347.657515 198.987601 
L 346.657515 198.999254 
L 345.657515 199.030284 
L 344.657515 199.041452 
L 343.657515 199.071569 
L 342.657515 199.131346 
L 341.657515 199.168538 
L 340.657515 199.207634 
L 339.657515 199.250073 
L 338.657515 199.282838 
L 337.657515 199.350265 
L 336.657515 199.389391 
L 335.657515 199.432065 
L 334.657515 199.502646 
L 333.657515 199.539037 
L 332.657515 199.59744 
L 331.657515 199.708393 
L 330.657515 199.779051 
L 329.657515 199.891991 
L 328.657515 199.937764 
L 326.765537 199.999047 
" clip-path="url(#p329a0f8e06)" style="fill: none; stroke: #2ca02c; stroke-opacity: 0.5; stroke-width: 0.2; stroke-linecap: square"/>
   <path d="M 372.657515 174.207344 
L 371.657515 174.175908 
L 370.657515 174.138967 
L 369.657515 174.041221 
L 368.657515 174.008699 
L 367.657515 173.935074 
L 366.657515 173.896509 
L 365.657515 173.861096 
L 364.657515 173.803456 
L 363.657515 173.733069 
L 362.657515 173.681105 
L 361.657515 173.622015 
L 360.657515 173.533695 
L 359.657515 173.48755 
L 358.657515 173.445139 
L 357.657515 173.414647 
L 356.657515 173.388602 
L 355.657515 173.367402 
L 354.657515 173.3131 
L 353.657515 173.285163 
L 352.657515 173.255439 
L 351.657515 173.230044 
L 350.657515 173.218844 
L 349.657515 173.20872 
L 348.657515 173.208924 
L 347.657515 173.218434 
L 346.657515 173.230088 
L 345.657515 173.261117 
L 344.657515 173.272285 
L 343.657515 173.302402 
L 342.657515 173.362179 
L 341.657515 173.399371 
L 340.657515 173.438467 
L 339.657515 173.480907 
L 338.657515 173.513672 
L 337.657515 173.581098 
L 336.657515 173.620224 
L 335.657515 173.662898 
L 334.657515 173.733479 
L 333.657515 173.76987 
L 332.657515 173.828273 
L 331.657515 173.939226 
L 330.657515 174.009884 
L 329.657515 174.122824 
L 328.657515 174.168597 
L 326.765537 174.22988 
" clip-path="url(#p329a0f8e06)" style="fill: none; stroke: #2ca02c; stroke-opacity: 0.5; stroke-width: 0.2; stroke-linecap: square"/>
   <path d="M 372.657515 156.245631 
L 371.657515 156.214195 
L 370.657515 156.177255 
L 369.657515 156.079508 
L 368.657515 156.046986 
L 367.657515 155.973362 
L 366.657515 155.934796 
L 365.657515 155.899383 
L 364.657515 155.841743 
L 363.657515 155.771357 
L 362.657515 155.719393 
L 361.657515 155.660303 
L 360.657515 155.571982 
L 359.657515 155.525838 
L 358.657515 155.483427 
L 357.657515 155.452934 
L 356.657515 155.426889 
L 355.657515 155.405689 
L 354.657515 155.351388 
L 353.657515 155.32345 
L 352.657515 155.293726 
L 351.657515 155.268332 
L 350.657515 155.257131 
L 349.657515 155.247007 
L 348.657515 155.247212 
L 347.657515 155.256721 
L 346.657515 155.268375 
L 345.657515 155.299404 
L 344.657515 155.310572 
L 343.657515 155.34069 
L 342.657515 155.400467 
L 341.657515 155.437658 
L 340.657515 155.476754 
L 339.657515 155.519194 
L 338.657515 155.551959 
L 337.657515 155.619385 
L 336.657515 155.658511 
L 335.657515 155.701186 
L 334.657515 155.771767 
L 333.657515 155.808157 
L 332.657515 155.866561 
L 331.657515 155.977513 
L 330.657515 156.048171 
L 329.657515 156.161111 
L 328.657515 156.206884 
L 326.765537 156.268167 
" clip-path="url(#p329a0f8e06)" style="fill: none; stroke: #2ca02c; stroke-opacity: 0.5; stroke-width: 0.2; stroke-linecap: square"/>
   <path d="M 372.657515 55.434195 
L 371.657515 55.402759 
L 370.657515 55.365819 
L 369.657515 55.268072 
L 368.657515 55.23555 
L 367.657515 55.161926 
L 366.657515 55.12336 
L 365.657515 55.087947 
L 364.657515 55.030307 
L 363.657515 54.959921 
L 362.657515 54.907957 
L 361.657515 54.848867 
L 360.657515 54.760546 
L 359.657515 54.714402 
L 358.657515 54.671991 
L 357.657515 54.641498 
L 356.657515 54.615453 
L 355.657515 54.594253 
L 354.657515 54.539952 
L 353.657515 54.512014 
L 352.657515 54.48229 
L 351.657515 54.456896 
L 350.657515 54.445695 
L 349.657515 54.435571 
L 348.657515 54.435776 
L 347.657515 54.445285 
L 346.657515 54.456939 
L 345.657515 54.487968 
L 344.657515 54.499136 
L 343.657515 54.529254 
L 342.657515 54.589031 
L 341.657515 54.626222 
L 340.657515 54.665318 
L 339.657515 54.707758 
L 338.657515 54.740523 
L 337.657515 54.807949 
L 336.657515 54.847075 
L 335.657515 54.88975 
L 334.657515 54.960331 
L 333.657515 54.996721 
L 332.657515 55.055125 
L 331.657515 55.166077 
L 330.657515 55.236735 
L 329.657515 55.349675 
L 328.657515 55.395448 
L 326.765537 55.456731 
" clip-path="url(#p329a0f8e06)" style="fill: none; stroke: #2ca02c; stroke-opacity: 0.5; stroke-width: 0.2; stroke-linecap: square"/>
   <path d="M 372.657515 219.705841 
L 371.657515 219.674405 
L 370.657515 219.637464 
L 369.657515 219.539718 
L 368.657515 219.507196 
L 367.657515 219.433572 
L 366.657515 219.395006 
L 365.657515 219.359593 
L 364.657515 219.301953 
L 363.657515 219.231567 
L 362.657515 219.179602 
L 361.657515 219.120513 
L 360.657515 219.032192 
L 359.657515 218.986047 
L 358.657515 218.943636 
L 357.657515 218.913144 
L 356.657515 218.887099 
L 355.657515 218.865899 
L 354.657515 218.811598 
L 353.657515 218.78366 
L 352.657515 218.753936 
L 351.657515 218.728541 
L 350.657515 218.717341 
L 349.657515 218.707217 
L 348.657515 218.707421 
L 347.657515 218.716931 
L 346.657515 218.728585 
L 345.657515 218.759614 
L 344.657515 218.770782 
L 343.657515 218.800899 
L 342.657515 218.860676 
L 341.657515 218.897868 
L 340.657515 218.936964 
L 339.657515 218.979404 
L 338.657515 219.012169 
L 337.657515 219.079595 
L 336.657515 219.118721 
L 335.657515 219.161396 
L 334.657515 219.231976 
L 333.657515 219.268367 
L 332.657515 219.32677 
L 331.657515 219.437723 
L 330.657515 219.508381 
L 329.657515 219.621321 
L 328.657515 219.667094 
L 326.765537 219.728377 
" clip-path="url(#p329a0f8e06)" style="fill: none; stroke: #2ca02c; stroke-opacity: 0.5; stroke-width: 0.2; stroke-linecap: square"/>
   <path d="M 372.657515 48.906853 
L 371.657515 48.875417 
L 370.657515 48.838476 
L 369.657515 48.74073 
L 368.657515 48.708208 
L 367.657515 48.634584 
L 366.657515 48.596018 
L 365.657515 48.560605 
L 364.657515 48.502965 
L 363.657515 48.432579 
L 362.657515 48.380614 
L 361.657515 48.321525 
L 360.657515 48.233204 
L 359.657515 48.187059 
L 358.657515 48.144648 
L 357.657515 48.114156 
L 356.657515 48.088111 
L 355.657515 48.066911 
L 354.657515 48.01261 
L 353.657515 47.984672 
L 352.657515 47.954948 
L 351.657515 47.929553 
L 350.657515 47.918353 
L 349.657515 47.908229 
L 348.657515 47.908433 
L 347.657515 47.917943 
L 346.657515 47.929597 
L 345.657515 47.960626 
L 344.657515 47.971794 
L 343.657515 48.001911 
L 342.657515 48.061688 
L 341.657515 48.09888 
L 340.657515 48.137976 
L 339.657515 48.180416 
L 338.657515 48.213181 
L 337.657515 48.280607 
L 336.657515 48.319733 
L 335.657515 48.362408 
L 334.657515 48.432988 
L 333.657515 48.469379 
L 332.657515 48.527782 
L 331.657515 48.638735 
L 330.657515 48.709393 
L 329.657515 48.822333 
L 328.657515 48.868106 
L 326.765537 48.929389 
" clip-path="url(#p329a0f8e06)" style="fill: none; stroke: #2ca02c; stroke-opacity: 0.5; stroke-width: 0.2; stroke-linecap: square"/>
   <path d="M 372.657515 256.47046 
L 371.657515 256.439024 
L 370.657515 256.402084 
L 369.657515 256.304337 
L 368.657515 256.271815 
L 367.657515 256.198191 
L 366.657515 256.159625 
L 365.657515 256.124212 
L 364.657515 256.066572 
L 363.657515 255.996186 
L 362.657515 255.944222 
L 361.657515 255.885132 
L 360.657515 255.796811 
L 359.657515 255.750667 
L 358.657515 255.708256 
L 357.657515 255.677763 
L 356.657515 255.651718 
L 355.657515 255.630518 
L 354.657515 255.576217 
L 353.657515 255.548279 
L 352.657515 255.518555 
L 351.657515 255.493161 
L 350.657515 255.48196 
L 349.657515 255.471836 
L 348.657515 255.472041 
L 347.657515 255.48155 
L 346.657515 255.493204 
L 345.657515 255.524233 
L 344.657515 255.535401 
L 343.657515 255.565519 
L 342.657515 255.625296 
L 341.657515 255.662487 
L 340.657515 255.701583 
L 339.657515 255.744023 
L 338.657515 255.776788 
L 337.657515 255.844214 
L 336.657515 255.88334 
L 335.657515 255.926015 
L 334.657515 255.996596 
L 333.657515 256.032986 
L 332.657515 256.09139 
L 331.657515 256.202342 
L 330.657515 256.273 
L 329.657515 256.38594 
L 328.657515 256.431713 
L 326.765537 256.492996 
" clip-path="url(#p329a0f8e06)" style="fill: none; stroke: #2ca02c; stroke-opacity: 0.5; stroke-width: 0.2; stroke-linecap: square"/>
   <path d="M 372.657515 180.893128 
L 371.657515 180.861692 
L 370.657515 180.824752 
L 369.657515 180.727005 
L 368.657515 180.694483 
L 367.657515 180.620859 
L 366.657515 180.582293 
L 365.657515 180.54688 
L 364.657515 180.48924 
L 363.657515 180.418854 
L 362.657515 180.36689 
L 361.657515 180.3078 
L 360.657515 180.219479 
L 359.657515 180.173335 
L 358.657515 180.130924 
L 357.657515 180.100431 
L 356.657515 180.074386 
L 355.657515 180.053186 
L 354.657515 179.998885 
L 353.657515 179.970947 
L 352.657515 179.941223 
L 351.657515 179.915829 
L 350.657515 179.904628 
L 349.657515 179.894504 
L 348.657515 179.894708 
L 347.657515 179.904218 
L 346.657515 179.915872 
L 345.657515 179.946901 
L 344.657515 179.958069 
L 343.657515 179.988187 
L 342.657515 180.047964 
L 341.657515 180.085155 
L 340.657515 180.124251 
L 339.657515 180.166691 
L 338.657515 180.199456 
L 337.657515 180.266882 
L 336.657515 180.306008 
L 335.657515 180.348683 
L 334.657515 180.419263 
L 333.657515 180.455654 
L 332.657515 180.514058 
L 331.657515 180.62501 
L 330.657515 180.695668 
L 329.657515 180.808608 
L 328.657515 180.854381 
L 326.765537 180.915664 
" clip-path="url(#p329a0f8e06)" style="fill: none; stroke: #2ca02c; stroke-opacity: 0.5; stroke-width: 0.2; stroke-linecap: square"/>
   <path d="M 372.657515 74.037204 
L 371.657515 74.005768 
L 370.657515 73.968828 
L 369.657515 73.871081 
L 368.657515 73.838559 
L 367.657515 73.764935 
L 366.657515 73.726369 
L 365.657515 73.690956 
L 364.657515 73.633316 
L 363.657515 73.56293 
L 362.657515 73.510966 
L 361.657515 73.451876 
L 360.657515 73.363555 
L 359.657515 73.317411 
L 358.657515 73.275 
L 357.657515 73.244507 
L 356.657515 73.218462 
L 355.657515 73.197262 
L 354.657515 73.142961 
L 353.657515 73.115023 
L 352.657515 73.085299 
L 351.657515 73.059905 
L 350.657515 73.048704 
L 349.657515 73.03858 
L 348.657515 73.038785 
L 347.657515 73.048294 
L 346.657515 73.059948 
L 345.657515 73.090977 
L 344.657515 73.102145 
L 343.657515 73.132263 
L 342.657515 73.19204 
L 341.657515 73.229231 
L 340.657515 73.268327 
L 339.657515 73.310767 
L 338.657515 73.343532 
L 337.657515 73.410958 
L 336.657515 73.450084 
L 335.657515 73.492759 
L 334.657515 73.56334 
L 333.657515 73.59973 
L 332.657515 73.658134 
L 331.657515 73.769086 
L 330.657515 73.839744 
L 329.657515 73.952684 
L 328.657515 73.998457 
L 326.765537 74.05974 
" clip-path="url(#p329a0f8e06)" style="fill: none; stroke: #2ca02c; stroke-opacity: 0.5; stroke-width: 0.2; stroke-linecap: square"/>
   <path d="M 372.657515 240.731967 
L 371.657515 240.70053 
L 370.657515 240.66359 
L 369.657515 240.565843 
L 368.657515 240.533322 
L 367.657515 240.459697 
L 366.657515 240.421131 
L 365.657515 240.385718 
L 364.657515 240.328078 
L 363.657515 240.257692 
L 362.657515 240.205728 
L 361.657515 240.146638 
L 360.657515 240.058317 
L 359.657515 240.012173 
L 358.657515 239.969762 
L 357.657515 239.939269 
L 356.657515 239.913224 
L 355.657515 239.892024 
L 354.657515 239.837723 
L 353.657515 239.809786 
L 352.657515 239.780062 
L 351.657515 239.754667 
L 350.657515 239.743466 
L 349.657515 239.733342 
L 348.657515 239.733547 
L 347.657515 239.743057 
L 346.657515 239.75471 
L 345.657515 239.78574 
L 344.657515 239.796907 
L 343.657515 239.827025 
L 342.657515 239.886802 
L 341.657515 239.923993 
L 340.657515 239.96309 
L 339.657515 240.005529 
L 338.657515 240.038294 
L 337.657515 240.105721 
L 336.657515 240.144847 
L 335.657515 240.187521 
L 334.657515 240.258102 
L 333.657515 240.294493 
L 332.657515 240.352896 
L 331.657515 240.463848 
L 330.657515 240.534507 
L 329.657515 240.647447 
L 328.657515 240.693219 
L 326.765537 240.754503 
" clip-path="url(#p329a0f8e06)" style="fill: none; stroke: #2ca02c; stroke-opacity: 0.5; stroke-width: 0.2; stroke-linecap: square"/>
   <g id="patch_3">
    <path d="M 67.449006 22.318125 
L 67.449006 260.421875 
M 167.401766 22.318125 
L 167.401766 260.421875 
" clip-path="url(#p329a0f8e06)" style="fill: none; stroke: #ffffff; stroke-width: 3; stroke-linejoin: miter"/>
    <path d="M 67.449006 22.318125 
L 67.449006 260.421875 
M 167.401766 22.318125 
L 167.401766 260.421875 
" clip-path="url(#p329a0f8e06)" style="fill: none; stroke: #1f77b4; stroke-linejoin: miter"/>
    <g id="PolyCollection_1">
     <path d="M 167.401766 22.318125 
L 67.449006 22.318125 
L 67.449006 260.421875 
L 167.401766 260.421875 
L 167.401766 260.421875 
L 167.401766 22.318125 
z
" clip-path="url(#p329a0f8e06)" style="fill: #1f77b4; fill-opacity: 0.5"/>
    </g>
    <g id="patch_4">
     <path d="M 222.306432 22.318125 
L 222.306432 260.421875 
M 322.259193 22.318125 
L 322.259193 260.421875 
" clip-path="url(#p329a0f8e06)" style="fill: none; stroke: #ffffff; stroke-width: 3; stroke-linejoin: miter"/>
     <path d="M 222.306432 22.318125 
L 222.306432 260.421875 
M 322.259193 22.318125 
L 322.259193 260.421875 
" clip-path="url(#p329a0f8e06)" style="fill: none; stroke: #ff7f0e; stroke-linejoin: miter"/>
     <g id="PolyCollection_2">
      <path d="M 322.259193 22.318125 
L 222.306432 22.318125 
L 222.306432 260.421875 
L 322.259193 260.421875 
L 322.259193 260.421875 
L 322.259193 22.318125 
z
" clip-path="url(#p329a0f8e06)" style="fill: #ff7f0e; fill-opacity: 0.5"/>
     </g>
     <g id="patch_5">
      <path d="M 377.163859 22.318125 
L 377.163859 260.421875 
M 477.116619 22.318125 
L 477.116619 260.421875 
" clip-path="url(#p329a0f8e06)" style="fill: none; stroke: #ffffff; stroke-width: 3; stroke-linejoin: miter"/>
      <path d="M 377.163859 22.318125 
L 377.163859 260.421875 
M 477.116619 22.318125 
L 477.116619 260.421875 
" clip-path="url(#p329a0f8e06)" style="fill: none; stroke: #2ca02c; stroke-linejoin: miter"/>
      <g id="PolyCollection_3">
       <path d="M 477.116619 22.318125 
L 377.163859 22.318125 
L 377.163859 260.421875 
L 477.116619 260.421875 
L 477.116619 260.421875 
L 477.116619 22.318125 
z
" clip-path="url(#p329a0f8e06)" style="fill: #2ca02c; fill-opacity: 0.5"/>
      </g>
      <g id="matplotlib.axis_1">
       <g id="xtick_1">
        <g id="line2d_1"/>
        <g id="text_1">
         <!-- deme1 -->
         <g transform="translate(100.04648 271.520312)scale(0.1 -0.1)">
          <defs>
           <path id="DejaVuSans-64" d="M 2906 2969 
L 2906 4863 
L 3481 4863 
L 3481 0 
L 2906 0 
L 2906 525 
Q 2725 213 2448 61 
Q 2172 -91 1784 -91 
Q 1150 -91 751 415 
Q 353 922 353 1747 
Q 353 2572 751 3078 
Q 1150 3584 1784 3584 
Q 2172 3584 2448 3432 
Q 2725 3281 2906 2969 
z
M 947 1747 
Q 947 1113 1208 752 
Q 1469 391 1925 391 
Q 2381 391 2643 752 
Q 2906 1113 2906 1747 
Q 2906 2381 2643 2742 
Q 2381 3103 1925 3103 
Q 1469 3103 1208 2742 
Q 947 2381 947 1747 
z
" transform="scale(0.015625)"/>
           <path id="DejaVuSans-65" d="M 3597 1894 
L 3597 1613 
L 953 1613 
Q 991 1019 1311 708 
Q 1631 397 2203 397 
Q 2534 397 2845 478 
Q 3156 559 3463 722 
L 3463 178 
Q 3153 47 2828 -22 
Q 2503 -91 2169 -91 
Q 1331 -91 842 396 
Q 353 884 353 1716 
Q 353 2575 817 3079 
Q 1281 3584 2069 3584 
Q 2775 3584 3186 3129 
Q 3597 2675 3597 1894 
z
M 3022 2063 
Q 3016 2534 2758 2815 
Q 2500 3097 2075 3097 
Q 1594 3097 1305 2825 
Q 1016 2553 972 2059 
L 3022 2063 
z
" transform="scale(0.015625)"/>
           <path id="DejaVuSans-6d" d="M 3328 2828 
Q 3544 3216 3844 3400 
Q 4144 3584 4550 3584 
Q 5097 3584 5394 3201 
Q 5691 2819 5691 2113 
L 5691 0 
L 5113 0 
L 5113 2094 
Q 5113 2597 4934 2840 
Q 4756 3084 4391 3084 
Q 3944 3084 3684 2787 
Q 3425 2491 3425 1978 
L 3425 0 
L 2847 0 
L 2847 2094 
Q 2847 2600 2669 2842 
Q 2491 3084 2119 3084 
Q 1678 3084 1418 2786 
Q 1159 2488 1159 1978 
L 1159 0 
L 581 0 
L 581 3500 
L 1159 3500 
L 1159 2956 
Q 1356 3278 1631 3431 
Q 1906 3584 2284 3584 
Q 2666 3584 2933 3390 
Q 3200 3197 3328 2828 
z
" transform="scale(0.015625)"/>
           <path id="DejaVuSans-31" d="M 794 531 
L 1825 531 
L 1825 4091 
L 703 3866 
L 703 4441 
L 1819 4666 
L 2450 4666 
L 2450 531 
L 3481 531 
L 3481 0 
L 794 0 
L 794 531 
z
" transform="scale(0.015625)"/>
          </defs>
          <use xlink:href="#DejaVuSans-64"/>
          <use xlink:href="#DejaVuSans-65" x="63.476562"/>
          <use xlink:href="#DejaVuSans-6d" x="125"/>
          <use xlink:href="#DejaVuSans-65" x="222.412109"/>
          <use xlink:href="#DejaVuSans-31" x="283.935547"/>
         </g>
        </g>
       </g>
       <g id="xtick_2">
        <g id="line2d_2"/>
        <g id="text_2">
         <!-- deme2 -->
         <g transform="translate(254.903906 271.520312)scale(0.1 -0.1)">
          <defs>
           <path id="DejaVuSans-32" d="M 1228 531 
L 3431 531 
L 3431 0 
L 469 0 
L 469 531 
Q 828 903 1448 1529 
Q 2069 2156 2228 2338 
Q 2531 2678 2651 2914 
Q 2772 3150 2772 3378 
Q 2772 3750 2511 3984 
Q 2250 4219 1831 4219 
Q 1534 4219 1204 4116 
Q 875 4013 500 3803 
L 500 4441 
Q 881 4594 1212 4672 
Q 1544 4750 1819 4750 
Q 2544 4750 2975 4387 
Q 3406 4025 3406 3419 
Q 3406 3131 3298 2873 
Q 3191 2616 2906 2266 
Q 2828 2175 2409 1742 
Q 1991 1309 1228 531 
z
" transform="scale(0.015625)"/>
          </defs>
          <use xlink:href="#DejaVuSans-64"/>
          <use xlink:href="#DejaVuSans-65" x="63.476562"/>
          <use xlink:href="#DejaVuSans-6d" x="125"/>
          <use xlink:href="#DejaVuSans-65" x="222.412109"/>
          <use xlink:href="#DejaVuSans-32" x="283.935547"/>
         </g>
        </g>
       </g>
       <g id="xtick_3">
        <g id="line2d_3"/>
        <g id="text_3">
         <!-- deme3 -->
         <g transform="translate(409.761333 271.520312)scale(0.1 -0.1)">
          <defs>
           <path id="DejaVuSans-33" d="M 2597 2516 
Q 3050 2419 3304 2112 
Q 3559 1806 3559 1356 
Q 3559 666 3084 287 
Q 2609 -91 1734 -91 
Q 1441 -91 1130 -33 
Q 819 25 488 141 
L 488 750 
Q 750 597 1062 519 
Q 1375 441 1716 441 
Q 2309 441 2620 675 
Q 2931 909 2931 1356 
Q 2931 1769 2642 2001 
Q 2353 2234 1838 2234 
L 1294 2234 
L 1294 2753 
L 1863 2753 
Q 2328 2753 2575 2939 
Q 2822 3125 2822 3475 
Q 2822 3834 2567 4026 
Q 2313 4219 1838 4219 
Q 1578 4219 1281 4162 
Q 984 4106 628 3988 
L 628 4550 
Q 988 4650 1302 4700 
Q 1616 4750 1894 4750 
Q 2613 4750 3031 4423 
Q 3450 4097 3450 3541 
Q 3450 3153 3228 2886 
Q 3006 2619 2597 2516 
z
" transform="scale(0.015625)"/>
          </defs>
          <use xlink:href="#DejaVuSans-64"/>
          <use xlink:href="#DejaVuSans-65" x="63.476562"/>
          <use xlink:href="#DejaVuSans-6d" x="125"/>
          <use xlink:href="#DejaVuSans-65" x="222.412109"/>
          <use xlink:href="#DejaVuSans-33" x="283.935547"/>
         </g>
        </g>
       </g>
      </g>
      <g id="matplotlib.axis_2">
       <g id="ytick_1">
        <g id="line2d_4">
         <defs>
          <path id="m4d03adda0f" d="M 0 0 
L -3.5 0 
" style="stroke: #000000; stroke-width: 0.8"/>
         </defs>
         <g>
          <use xlink:href="#m4d03adda0f" x="46.965625" y="260.421875" style="stroke: #000000; stroke-width: 0.8"/>
         </g>
        </g>
        <g id="text_4">
         <!-- 0 -->
         <g transform="translate(33.603125 264.221094)scale(0.1 -0.1)">
          <defs>
           <path id="DejaVuSans-30" d="M 2034 4250 
Q 1547 4250 1301 3770 
Q 1056 3291 1056 2328 
Q 1056 1369 1301 889 
Q 1547 409 2034 409 
Q 2525 409 2770 889 
Q 3016 1369 3016 2328 
Q 3016 3291 2770 3770 
Q 2525 4250 2034 4250 
z
M 2034 4750 
Q 2819 4750 3233 4129 
Q 3647 3509 3647 2328 
Q 3647 1150 3233 529 
Q 2819 -91 2034 -91 
Q 1250 -91 836 529 
Q 422 1150 422 2328 
Q 422 3509 836 4129 
Q 1250 4750 2034 4750 
z
" transform="scale(0.015625)"/>
          </defs>
          <use xlink:href="#DejaVuSans-30"/>
         </g>
        </g>
       </g>
       <g id="ytick_2">
        <g id="line2d_5">
         <g>
          <use xlink:href="#m4d03adda0f" x="46.965625" y="218.279618" style="stroke: #000000; stroke-width: 0.8"/>
         </g>
        </g>
        <g id="text_5">
         <!-- 20 -->
         <g transform="translate(27.240625 222.078837)scale(0.1 -0.1)">
          <use xlink:href="#DejaVuSans-32"/>
          <use xlink:href="#DejaVuSans-30" x="63.623047"/>
         </g>
        </g>
       </g>
       <g id="ytick_3">
        <g id="line2d_6">
         <g>
          <use xlink:href="#m4d03adda0f" x="46.965625" y="176.137362" style="stroke: #000000; stroke-width: 0.8"/>
         </g>
        </g>
        <g id="text_6">
         <!-- 40 -->
         <g transform="translate(27.240625 179.93658)scale(0.1 -0.1)">
          <defs>
           <path id="DejaVuSans-34" d="M 2419 4116 
L 825 1625 
L 2419 1625 
L 2419 4116 
z
M 2253 4666 
L 3047 4666 
L 3047 1625 
L 3713 1625 
L 3713 1100 
L 3047 1100 
L 3047 0 
L 2419 0 
L 2419 1100 
L 313 1100 
L 313 1709 
L 2253 4666 
z
" transform="scale(0.015625)"/>
          </defs>
          <use xlink:href="#DejaVuSans-34"/>
          <use xlink:href="#DejaVuSans-30" x="63.623047"/>
         </g>
        </g>
       </g>
       <g id="ytick_4">
        <g id="line2d_7">
         <g>
          <use xlink:href="#m4d03adda0f" x="46.965625" y="133.995105" style="stroke: #000000; stroke-width: 0.8"/>
         </g>
        </g>
        <g id="text_7">
         <!-- 60 -->
         <g transform="translate(27.240625 137.794324)scale(0.1 -0.1)">
          <defs>
           <path id="DejaVuSans-36" d="M 2113 2584 
Q 1688 2584 1439 2293 
Q 1191 2003 1191 1497 
Q 1191 994 1439 701 
Q 1688 409 2113 409 
Q 2538 409 2786 701 
Q 3034 994 3034 1497 
Q 3034 2003 2786 2293 
Q 2538 2584 2113 2584 
z
M 3366 4563 
L 3366 3988 
Q 3128 4100 2886 4159 
Q 2644 4219 2406 4219 
Q 1781 4219 1451 3797 
Q 1122 3375 1075 2522 
Q 1259 2794 1537 2939 
Q 1816 3084 2150 3084 
Q 2853 3084 3261 2657 
Q 3669 2231 3669 1497 
Q 3669 778 3244 343 
Q 2819 -91 2113 -91 
Q 1303 -91 875 529 
Q 447 1150 447 2328 
Q 447 3434 972 4092 
Q 1497 4750 2381 4750 
Q 2619 4750 2861 4703 
Q 3103 4656 3366 4563 
z
" transform="scale(0.015625)"/>
          </defs>
          <use xlink:href="#DejaVuSans-36"/>
          <use xlink:href="#DejaVuSans-30" x="63.623047"/>
         </g>
        </g>
       </g>
       <g id="ytick_5">
        <g id="line2d_8">
         <g>
          <use xlink:href="#m4d03adda0f" x="46.965625" y="91.852848" style="stroke: #000000; stroke-width: 0.8"/>
         </g>
        </g>
        <g id="text_8">
         <!-- 80 -->
         <g transform="translate(27.240625 95.652067)scale(0.1 -0.1)">
          <defs>
           <path id="DejaVuSans-38" d="M 2034 2216 
Q 1584 2216 1326 1975 
Q 1069 1734 1069 1313 
Q 1069 891 1326 650 
Q 1584 409 2034 409 
Q 2484 409 2743 651 
Q 3003 894 3003 1313 
Q 3003 1734 2745 1975 
Q 2488 2216 2034 2216 
z
M 1403 2484 
Q 997 2584 770 2862 
Q 544 3141 544 3541 
Q 544 4100 942 4425 
Q 1341 4750 2034 4750 
Q 2731 4750 3128 4425 
Q 3525 4100 3525 3541 
Q 3525 3141 3298 2862 
Q 3072 2584 2669 2484 
Q 3125 2378 3379 2068 
Q 3634 1759 3634 1313 
Q 3634 634 3220 271 
Q 2806 -91 2034 -91 
Q 1263 -91 848 271 
Q 434 634 434 1313 
Q 434 1759 690 2068 
Q 947 2378 1403 2484 
z
M 1172 3481 
Q 1172 3119 1398 2916 
Q 1625 2713 2034 2713 
Q 2441 2713 2670 2916 
Q 2900 3119 2900 3481 
Q 2900 3844 2670 4047 
Q 2441 4250 2034 4250 
Q 1625 4250 1398 4047 
Q 1172 3844 1172 3481 
z
" transform="scale(0.015625)"/>
          </defs>
          <use xlink:href="#DejaVuSans-38"/>
          <use xlink:href="#DejaVuSans-30" x="63.623047"/>
         </g>
        </g>
       </g>
       <g id="ytick_6">
        <g id="line2d_9">
         <g>
          <use xlink:href="#m4d03adda0f" x="46.965625" y="49.710592" style="stroke: #000000; stroke-width: 0.8"/>
         </g>
        </g>
        <g id="text_9">
         <!-- 100 -->
         <g transform="translate(20.878125 53.509811)scale(0.1 -0.1)">
          <use xlink:href="#DejaVuSans-31"/>
          <use xlink:href="#DejaVuSans-30" x="63.623047"/>
          <use xlink:href="#DejaVuSans-30" x="127.246094"/>
         </g>
        </g>
       </g>
       <g id="text_10">
        <!-- time ago (years) -->
        <g transform="translate(14.798437 182.803594)rotate(-90)scale(0.1 -0.1)">
         <defs>
          <path id="DejaVuSans-74" d="M 1172 4494 
L 1172 3500 
L 2356 3500 
L 2356 3053 
L 1172 3053 
L 1172 1153 
Q 1172 725 1289 603 
Q 1406 481 1766 481 
L 2356 481 
L 2356 0 
L 1766 0 
Q 1100 0 847 248 
Q 594 497 594 1153 
L 594 3053 
L 172 3053 
L 172 3500 
L 594 3500 
L 594 4494 
L 1172 4494 
z
" transform="scale(0.015625)"/>
          <path id="DejaVuSans-69" d="M 603 3500 
L 1178 3500 
L 1178 0 
L 603 0 
L 603 3500 
z
M 603 4863 
L 1178 4863 
L 1178 4134 
L 603 4134 
L 603 4863 
z
" transform="scale(0.015625)"/>
          <path id="DejaVuSans-20" transform="scale(0.015625)"/>
          <path id="DejaVuSans-61" d="M 2194 1759 
Q 1497 1759 1228 1600 
Q 959 1441 959 1056 
Q 959 750 1161 570 
Q 1363 391 1709 391 
Q 2188 391 2477 730 
Q 2766 1069 2766 1631 
L 2766 1759 
L 2194 1759 
z
M 3341 1997 
L 3341 0 
L 2766 0 
L 2766 531 
Q 2569 213 2275 61 
Q 1981 -91 1556 -91 
Q 1019 -91 701 211 
Q 384 513 384 1019 
Q 384 1609 779 1909 
Q 1175 2209 1959 2209 
L 2766 2209 
L 2766 2266 
Q 2766 2663 2505 2880 
Q 2244 3097 1772 3097 
Q 1472 3097 1187 3025 
Q 903 2953 641 2809 
L 641 3341 
Q 956 3463 1253 3523 
Q 1550 3584 1831 3584 
Q 2591 3584 2966 3190 
Q 3341 2797 3341 1997 
z
" transform="scale(0.015625)"/>
          <path id="DejaVuSans-67" d="M 2906 1791 
Q 2906 2416 2648 2759 
Q 2391 3103 1925 3103 
Q 1463 3103 1205 2759 
Q 947 2416 947 1791 
Q 947 1169 1205 825 
Q 1463 481 1925 481 
Q 2391 481 2648 825 
Q 2906 1169 2906 1791 
z
M 3481 434 
Q 3481 -459 3084 -895 
Q 2688 -1331 1869 -1331 
Q 1566 -1331 1297 -1286 
Q 1028 -1241 775 -1147 
L 775 -588 
Q 1028 -725 1275 -790 
Q 1522 -856 1778 -856 
Q 2344 -856 2625 -561 
Q 2906 -266 2906 331 
L 2906 616 
Q 2728 306 2450 153 
Q 2172 0 1784 0 
Q 1141 0 747 490 
Q 353 981 353 1791 
Q 353 2603 747 3093 
Q 1141 3584 1784 3584 
Q 2172 3584 2450 3431 
Q 2728 3278 2906 2969 
L 2906 3500 
L 3481 3500 
L 3481 434 
z
" transform="scale(0.015625)"/>
          <path id="DejaVuSans-6f" d="M 1959 3097 
Q 1497 3097 1228 2736 
Q 959 2375 959 1747 
Q 959 1119 1226 758 
Q 1494 397 1959 397 
Q 2419 397 2687 759 
Q 2956 1122 2956 1747 
Q 2956 2369 2687 2733 
Q 2419 3097 1959 3097 
z
M 1959 3584 
Q 2709 3584 3137 3096 
Q 3566 2609 3566 1747 
Q 3566 888 3137 398 
Q 2709 -91 1959 -91 
Q 1206 -91 779 398 
Q 353 888 353 1747 
Q 353 2609 779 3096 
Q 1206 3584 1959 3584 
z
" transform="scale(0.015625)"/>
          <path id="DejaVuSans-28" d="M 1984 4856 
Q 1566 4138 1362 3434 
Q 1159 2731 1159 2009 
Q 1159 1288 1364 580 
Q 1569 -128 1984 -844 
L 1484 -844 
Q 1016 -109 783 600 
Q 550 1309 550 2009 
Q 550 2706 781 3412 
Q 1013 4119 1484 4856 
L 1984 4856 
z
" transform="scale(0.015625)"/>
          <path id="DejaVuSans-79" d="M 2059 -325 
Q 1816 -950 1584 -1140 
Q 1353 -1331 966 -1331 
L 506 -1331 
L 506 -850 
L 844 -850 
Q 1081 -850 1212 -737 
Q 1344 -625 1503 -206 
L 1606 56 
L 191 3500 
L 800 3500 
L 1894 763 
L 2988 3500 
L 3597 3500 
L 2059 -325 
z
" transform="scale(0.015625)"/>
          <path id="DejaVuSans-72" d="M 2631 2963 
Q 2534 3019 2420 3045 
Q 2306 3072 2169 3072 
Q 1681 3072 1420 2755 
Q 1159 2438 1159 1844 
L 1159 0 
L 581 0 
L 581 3500 
L 1159 3500 
L 1159 2956 
Q 1341 3275 1631 3429 
Q 1922 3584 2338 3584 
Q 2397 3584 2469 3576 
Q 2541 3569 2628 3553 
L 2631 2963 
z
" transform="scale(0.015625)"/>
          <path id="DejaVuSans-73" d="M 2834 3397 
L 2834 2853 
Q 2591 2978 2328 3040 
Q 2066 3103 1784 3103 
Q 1356 3103 1142 2972 
Q 928 2841 928 2578 
Q 928 2378 1081 2264 
Q 1234 2150 1697 2047 
L 1894 2003 
Q 2506 1872 2764 1633 
Q 3022 1394 3022 966 
Q 3022 478 2636 193 
Q 2250 -91 1575 -91 
Q 1294 -91 989 -36 
Q 684 19 347 128 
L 347 722 
Q 666 556 975 473 
Q 1284 391 1588 391 
Q 1994 391 2212 530 
Q 2431 669 2431 922 
Q 2431 1156 2273 1281 
Q 2116 1406 1581 1522 
L 1381 1569 
Q 847 1681 609 1914 
Q 372 2147 372 2553 
Q 372 3047 722 3315 
Q 1072 3584 1716 3584 
Q 2034 3584 2315 3537 
Q 2597 3491 2834 3397 
z
" transform="scale(0.015625)"/>
          <path id="DejaVuSans-29" d="M 513 4856 
L 1013 4856 
Q 1481 4119 1714 3412 
Q 1947 2706 1947 2009 
Q 1947 1309 1714 600 
Q 1481 -109 1013 -844 
L 513 -844 
Q 928 -128 1133 580 
Q 1338 1288 1338 2009 
Q 1338 2731 1133 3434 
Q 928 4138 513 4856 
z
" transform="scale(0.015625)"/>
         </defs>
         <use xlink:href="#DejaVuSans-74"/>
         <use xlink:href="#DejaVuSans-69" x="39.208984"/>
         <use xlink:href="#DejaVuSans-6d" x="66.992188"/>
         <use xlink:href="#DejaVuSans-65" x="164.404297"/>
         <use xlink:href="#DejaVuSans-20" x="225.927734"/>
         <use xlink:href="#DejaVuSans-61" x="257.714844"/>
         <use xlink:href="#DejaVuSans-67" x="318.994141"/>
         <use xlink:href="#DejaVuSans-6f" x="382.470703"/>
         <use xlink:href="#DejaVuSans-20" x="443.652344"/>
         <use xlink:href="#DejaVuSans-28" x="475.439453"/>
         <use xlink:href="#DejaVuSans-79" x="514.453125"/>
         <use xlink:href="#DejaVuSans-65" x="573.632812"/>
         <use xlink:href="#DejaVuSans-61" x="635.15625"/>
         <use xlink:href="#DejaVuSans-72" x="696.435547"/>
         <use xlink:href="#DejaVuSans-73" x="737.548828"/>
         <use xlink:href="#DejaVuSans-29" x="789.648438"/>
        </g>
       </g>
      </g>
      <path d="M 218.800088 251.723341 
L 216.800088 250.723341 
L 216.800088 252.723341 
z
" clip-path="url(#p329a0f8e06)" style="fill: #1f77b4; fill-opacity: 0.5; stroke: #1f77b4; stroke-opacity: 0.5; stroke-linejoin: miter"/>
      <path d="M 218.800088 55.004266 
L 216.800088 54.004266 
L 216.800088 56.004266 
z
" clip-path="url(#p329a0f8e06)" style="fill: #1f77b4; fill-opacity: 0.5; stroke: #1f77b4; stroke-opacity: 0.5; stroke-linejoin: miter"/>
      <path d="M 218.800088 169.26833 
L 216.800088 168.26833 
L 216.800088 170.26833 
z
" clip-path="url(#p329a0f8e06)" style="fill: #1f77b4; fill-opacity: 0.5; stroke: #1f77b4; stroke-opacity: 0.5; stroke-linejoin: miter"/>
      <path d="M 218.800088 82.324817 
L 216.800088 81.324817 
L 216.800088 83.324817 
z
" clip-path="url(#p329a0f8e06)" style="fill: #1f77b4; fill-opacity: 0.5; stroke: #1f77b4; stroke-opacity: 0.5; stroke-linejoin: miter"/>
      <path d="M 218.800088 46.178248 
L 216.800088 45.178248 
L 216.800088 47.178248 
z
" clip-path="url(#p329a0f8e06)" style="fill: #1f77b4; fill-opacity: 0.5; stroke: #1f77b4; stroke-opacity: 0.5; stroke-linejoin: miter"/>
      <path d="M 218.800088 245.288386 
L 216.800088 244.288386 
L 216.800088 246.288386 
z
" clip-path="url(#p329a0f8e06)" style="fill: #1f77b4; fill-opacity: 0.5; stroke: #1f77b4; stroke-opacity: 0.5; stroke-linejoin: miter"/>
      <path d="M 218.800088 153.127535 
L 216.800088 152.127535 
L 216.800088 154.127535 
z
" clip-path="url(#p329a0f8e06)" style="fill: #1f77b4; fill-opacity: 0.5; stroke: #1f77b4; stroke-opacity: 0.5; stroke-linejoin: miter"/>
      <path d="M 218.800088 139.54811 
L 216.800088 138.54811 
L 216.800088 140.54811 
z
" clip-path="url(#p329a0f8e06)" style="fill: #1f77b4; fill-opacity: 0.5; stroke: #1f77b4; stroke-opacity: 0.5; stroke-linejoin: miter"/>
      <path d="M 218.800088 164.351061 
L 216.800088 163.351061 
L 216.800088 165.351061 
z
" clip-path="url(#p329a0f8e06)" style="fill: #1f77b4; fill-opacity: 0.5; stroke: #1f77b4; stroke-opacity: 0.5; stroke-linejoin: miter"/>
      <path d="M 218.800088 233.864265 
L 216.800088 232.864265 
L 216.800088 234.864265 
z
" clip-path="url(#p329a0f8e06)" style="fill: #1f77b4; fill-opacity: 0.5; stroke: #1f77b4; stroke-opacity: 0.5; stroke-linejoin: miter"/>
      <path d="M 170.90811 159.638919 
L 172.90811 160.638919 
L 172.90811 158.638919 
z
" clip-path="url(#p329a0f8e06)" style="fill: #ff7f0e; fill-opacity: 0.5; stroke: #ff7f0e; stroke-opacity: 0.5; stroke-linejoin: miter"/>
      <path d="M 170.90811 178.996981 
L 172.90811 179.996981 
L 172.90811 177.996981 
z
" clip-path="url(#p329a0f8e06)" style="fill: #ff7f0e; fill-opacity: 0.5; stroke: #ff7f0e; stroke-opacity: 0.5; stroke-linejoin: miter"/>
      <path d="M 170.90811 123.355852 
L 172.90811 124.355852 
L 172.90811 122.355852 
z
" clip-path="url(#p329a0f8e06)" style="fill: #ff7f0e; fill-opacity: 0.5; stroke: #ff7f0e; stroke-opacity: 0.5; stroke-linejoin: miter"/>
      <path d="M 170.90811 179.365731 
L 172.90811 180.365731 
L 172.90811 178.365731 
z
" clip-path="url(#p329a0f8e06)" style="fill: #ff7f0e; fill-opacity: 0.5; stroke: #ff7f0e; stroke-opacity: 0.5; stroke-linejoin: miter"/>
      <path d="M 170.90811 80.471534 
L 172.90811 81.471534 
L 172.90811 79.471534 
z
" clip-path="url(#p329a0f8e06)" style="fill: #ff7f0e; fill-opacity: 0.5; stroke: #ff7f0e; stroke-opacity: 0.5; stroke-linejoin: miter"/>
      <path d="M 170.90811 53.338256 
L 172.90811 54.338256 
L 172.90811 52.338256 
z
" clip-path="url(#p329a0f8e06)" style="fill: #ff7f0e; fill-opacity: 0.5; stroke: #ff7f0e; stroke-opacity: 0.5; stroke-linejoin: miter"/>
      <path d="M 170.90811 168.54924 
L 172.90811 169.54924 
L 172.90811 167.54924 
z
" clip-path="url(#p329a0f8e06)" style="fill: #ff7f0e; fill-opacity: 0.5; stroke: #ff7f0e; stroke-opacity: 0.5; stroke-linejoin: miter"/>
      <path d="M 170.90811 170.342938 
L 172.90811 171.342938 
L 172.90811 169.342938 
z
" clip-path="url(#p329a0f8e06)" style="fill: #ff7f0e; fill-opacity: 0.5; stroke: #ff7f0e; stroke-opacity: 0.5; stroke-linejoin: miter"/>
      <path d="M 170.90811 204.138583 
L 172.90811 205.138583 
L 172.90811 203.138583 
z
" clip-path="url(#p329a0f8e06)" style="fill: #ff7f0e; fill-opacity: 0.5; stroke: #ff7f0e; stroke-opacity: 0.5; stroke-linejoin: miter"/>
      <path d="M 170.90811 73.905354 
L 172.90811 74.905354 
L 172.90811 72.905354 
z
" clip-path="url(#p329a0f8e06)" style="fill: #ff7f0e; fill-opacity: 0.5; stroke: #ff7f0e; stroke-opacity: 0.5; stroke-linejoin: miter"/>
      <path d="M 373.657515 202.305162 
L 371.657515 201.305162 
L 371.657515 203.305162 
z
" clip-path="url(#p329a0f8e06)" style="fill: #ff7f0e; fill-opacity: 0.5; stroke: #ff7f0e; stroke-opacity: 0.5; stroke-linejoin: miter"/>
      <path d="M 373.657515 163.549692 
L 371.657515 162.549692 
L 371.657515 164.549692 
z
" clip-path="url(#p329a0f8e06)" style="fill: #ff7f0e; fill-opacity: 0.5; stroke: #ff7f0e; stroke-opacity: 0.5; stroke-linejoin: miter"/>
      <path d="M 373.657515 207.245942 
L 371.657515 206.245942 
L 371.657515 208.245942 
z
" clip-path="url(#p329a0f8e06)" style="fill: #ff7f0e; fill-opacity: 0.5; stroke: #ff7f0e; stroke-opacity: 0.5; stroke-linejoin: miter"/>
      <path d="M 373.657515 168.557819 
L 371.657515 167.557819 
L 371.657515 169.557819 
z
" clip-path="url(#p329a0f8e06)" style="fill: #ff7f0e; fill-opacity: 0.5; stroke: #ff7f0e; stroke-opacity: 0.5; stroke-linejoin: miter"/>
      <path d="M 373.657515 162.367048 
L 371.657515 161.367048 
L 371.657515 163.367048 
z
" clip-path="url(#p329a0f8e06)" style="fill: #ff7f0e; fill-opacity: 0.5; stroke: #ff7f0e; stroke-opacity: 0.5; stroke-linejoin: miter"/>
      <path d="M 373.657515 180.041542 
L 371.657515 179.041542 
L 371.657515 181.041542 
z
" clip-path="url(#p329a0f8e06)" style="fill: #ff7f0e; fill-opacity: 0.5; stroke: #ff7f0e; stroke-opacity: 0.5; stroke-linejoin: miter"/>
      <path d="M 373.657515 127.144804 
L 371.657515 126.144804 
L 371.657515 128.144804 
z
" clip-path="url(#p329a0f8e06)" style="fill: #ff7f0e; fill-opacity: 0.5; stroke: #ff7f0e; stroke-opacity: 0.5; stroke-linejoin: miter"/>
      <path d="M 373.657515 217.159998 
L 371.657515 216.159998 
L 371.657515 218.159998 
z
" clip-path="url(#p329a0f8e06)" style="fill: #ff7f0e; fill-opacity: 0.5; stroke: #ff7f0e; stroke-opacity: 0.5; stroke-linejoin: miter"/>
      <path d="M 373.657515 128.920902 
L 371.657515 127.920902 
L 371.657515 129.920902 
z
" clip-path="url(#p329a0f8e06)" style="fill: #ff7f0e; fill-opacity: 0.5; stroke: #ff7f0e; stroke-opacity: 0.5; stroke-linejoin: miter"/>
      <path d="M 373.657515 105.689615 
L 371.657515 104.689615 
L 371.657515 106.689615 
z
" clip-path="url(#p329a0f8e06)" style="fill: #ff7f0e; fill-opacity: 0.5; stroke: #ff7f0e; stroke-opacity: 0.5; stroke-linejoin: miter"/>
      <path d="M 325.765537 199.976511 
L 327.765537 200.976511 
L 327.765537 198.976511 
z
" clip-path="url(#p329a0f8e06)" style="fill: #2ca02c; fill-opacity: 0.5; stroke: #2ca02c; stroke-opacity: 0.5; stroke-linejoin: miter"/>
      <path d="M 325.765537 174.207344 
L 327.765537 175.207344 
L 327.765537 173.207344 
z
" clip-path="url(#p329a0f8e06)" style="fill: #2ca02c; fill-opacity: 0.5; stroke: #2ca02c; stroke-opacity: 0.5; stroke-linejoin: miter"/>
      <path d="M 325.765537 156.245631 
L 327.765537 157.245631 
L 327.765537 155.245631 
z
" clip-path="url(#p329a0f8e06)" style="fill: #2ca02c; fill-opacity: 0.5; stroke: #2ca02c; stroke-opacity: 0.5; stroke-linejoin: miter"/>
      <path d="M 325.765537 55.434195 
L 327.765537 56.434195 
L 327.765537 54.434195 
z
" clip-path="url(#p329a0f8e06)" style="fill: #2ca02c; fill-opacity: 0.5; stroke: #2ca02c; stroke-opacity: 0.5; stroke-linejoin: miter"/>
      <path d="M 325.765537 219.705841 
L 327.765537 220.705841 
L 327.765537 218.705841 
z
" clip-path="url(#p329a0f8e06)" style="fill: #2ca02c; fill-opacity: 0.5; stroke: #2ca02c; stroke-opacity: 0.5; stroke-linejoin: miter"/>
      <path d="M 325.765537 48.906853 
L 327.765537 49.906853 
L 327.765537 47.906853 
z
" clip-path="url(#p329a0f8e06)" style="fill: #2ca02c; fill-opacity: 0.5; stroke: #2ca02c; stroke-opacity: 0.5; stroke-linejoin: miter"/>
      <path d="M 325.765537 256.47046 
L 327.765537 257.47046 
L 327.765537 255.47046 
z
" clip-path="url(#p329a0f8e06)" style="fill: #2ca02c; fill-opacity: 0.5; stroke: #2ca02c; stroke-opacity: 0.5; stroke-linejoin: miter"/>
      <path d="M 325.765537 180.893128 
L 327.765537 181.893128 
L 327.765537 179.893128 
z
" clip-path="url(#p329a0f8e06)" style="fill: #2ca02c; fill-opacity: 0.5; stroke: #2ca02c; stroke-opacity: 0.5; stroke-linejoin: miter"/>
      <path d="M 325.765537 74.037204 
L 327.765537 75.037204 
L 327.765537 73.037204 
z
" clip-path="url(#p329a0f8e06)" style="fill: #2ca02c; fill-opacity: 0.5; stroke: #2ca02c; stroke-opacity: 0.5; stroke-linejoin: miter"/>
      <path d="M 325.765537 240.731967 
L 327.765537 241.731967 
L 327.765537 239.731967 
z
" clip-path="url(#p329a0f8e06)" style="fill: #2ca02c; fill-opacity: 0.5; stroke: #2ca02c; stroke-opacity: 0.5; stroke-linejoin: miter"/>
      <g id="patch_6">
       <path d="M 46.965625 260.421875 
L 46.965625 22.318125 
" style="fill: none; stroke: #000000; stroke-width: 0.8; stroke-linejoin: miter; stroke-linecap: square"/>
      </g>
      <g id="text_11">
       <!-- stepping_stone_model.yaml -->
       <g transform="translate(188.243437 16.318125)scale(0.12 -0.12)">
        <defs>
         <path id="DejaVuSans-70" d="M 1159 525 
L 1159 -1331 
L 581 -1331 
L 581 3500 
L 1159 3500 
L 1159 2969 
Q 1341 3281 1617 3432 
Q 1894 3584 2278 3584 
Q 2916 3584 3314 3078 
Q 3713 2572 3713 1747 
Q 3713 922 3314 415 
Q 2916 -91 2278 -91 
Q 1894 -91 1617 61 
Q 1341 213 1159 525 
z
M 3116 1747 
Q 3116 2381 2855 2742 
Q 2594 3103 2138 3103 
Q 1681 3103 1420 2742 
Q 1159 2381 1159 1747 
Q 1159 1113 1420 752 
Q 1681 391 2138 391 
Q 2594 391 2855 752 
Q 3116 1113 3116 1747 
z
" transform="scale(0.015625)"/>
         <path id="DejaVuSans-6e" d="M 3513 2113 
L 3513 0 
L 2938 0 
L 2938 2094 
Q 2938 2591 2744 2837 
Q 2550 3084 2163 3084 
Q 1697 3084 1428 2787 
Q 1159 2491 1159 1978 
L 1159 0 
L 581 0 
L 581 3500 
L 1159 3500 
L 1159 2956 
Q 1366 3272 1645 3428 
Q 1925 3584 2291 3584 
Q 2894 3584 3203 3211 
Q 3513 2838 3513 2113 
z
" transform="scale(0.015625)"/>
         <path id="DejaVuSans-5f" d="M 3263 -1063 
L 3263 -1509 
L -63 -1509 
L -63 -1063 
L 3263 -1063 
z
" transform="scale(0.015625)"/>
         <path id="DejaVuSans-6c" d="M 603 4863 
L 1178 4863 
L 1178 0 
L 603 0 
L 603 4863 
z
" transform="scale(0.015625)"/>
         <path id="DejaVuSans-2e" d="M 684 794 
L 1344 794 
L 1344 0 
L 684 0 
L 684 794 
z
" transform="scale(0.015625)"/>
        </defs>
        <use xlink:href="#DejaVuSans-73"/>
        <use xlink:href="#DejaVuSans-74" x="52.099609"/>
        <use xlink:href="#DejaVuSans-65" x="91.308594"/>
        <use xlink:href="#DejaVuSans-70" x="152.832031"/>
        <use xlink:href="#DejaVuSans-70" x="216.308594"/>
        <use xlink:href="#DejaVuSans-69" x="279.785156"/>
        <use xlink:href="#DejaVuSans-6e" x="307.568359"/>
        <use xlink:href="#DejaVuSans-67" x="370.947266"/>
        <use xlink:href="#DejaVuSans-5f" x="434.423828"/>
        <use xlink:href="#DejaVuSans-73" x="484.423828"/>
        <use xlink:href="#DejaVuSans-74" x="536.523438"/>
        <use xlink:href="#DejaVuSans-6f" x="575.732422"/>
        <use xlink:href="#DejaVuSans-6e" x="636.914062"/>
        <use xlink:href="#DejaVuSans-65" x="700.292969"/>
        <use xlink:href="#DejaVuSans-5f" x="761.816406"/>
        <use xlink:href="#DejaVuSans-6d" x="811.816406"/>
        <use xlink:href="#DejaVuSans-6f" x="909.228516"/>
        <use xlink:href="#DejaVuSans-64" x="970.410156"/>
        <use xlink:href="#DejaVuSans-65" x="1033.886719"/>
        <use xlink:href="#DejaVuSans-6c" x="1095.410156"/>
        <use xlink:href="#DejaVuSans-2e" x="1123.193359"/>
        <use xlink:href="#DejaVuSans-79" x="1154.980469"/>
        <use xlink:href="#DejaVuSans-61" x="1214.160156"/>
        <use xlink:href="#DejaVuSans-6d" x="1275.439453"/>
        <use xlink:href="#DejaVuSans-6c" x="1372.851562"/>
       </g>
      </g>
     </g>
    </g>
    <defs>
     <clipPath id="p329a0f8e06">
      <rect x="46.965625" y="22.318125" width="450.634375" height="238.10375"/>
     </clipPath>
    </defs>
   </g>
  </g>
 </g>
</svg>
