<?xml version="1.0" encoding="utf-8" standalone="no"?>
<!DOCTYPE svg PUBLIC "-//W3C//DTD SVG 1.1//EN"
  "http://www.w3.org/Graphics/SVG/1.1/DTD/svg11.dtd">
<svg xmlns:xlink="http://www.w3.org/1999/xlink" width="607.2pt" height="338.4pt" viewBox="0 0 607.2 338.4" xmlns="http://www.w3.org/2000/svg" version="1.1">
 <metadata>
  <rdf:RDF xmlns:dc="http://purl.org/dc/elements/1.1/" xmlns:cc="http://creativecommons.org/ns#" xmlns:rdf="http://www.w3.org/1999/02/22-rdf-syntax-ns#">
   <cc:Work>
    <dc:type rdf:resource="http://purl.org/dc/dcmitype/StillImage"/>
    <dc:date>2022-11-09T12:45:29.607979</dc:date>
    <dc:format>image/svg+xml</dc:format>
    <dc:creator>
     <cc:Agent>
      <dc:title>Matplotlib v3.6.2, https://matplotlib.org/</dc:title>
     </cc:Agent>
    </dc:creator>
   </cc:Work>
  </rdf:RDF>
 </metadata>
 <defs>
  <style type="text/css">*{stroke-linejoin: round; stroke-linecap: butt}</style>
 </defs>
 <g id="figure_1">
  <g id="patch_1">
   <path d="M 0 338.4 
L 607.2 338.4 
L 607.2 0 
L 0 0 
z
" style="fill: #ffffff"/>
  </g>
  <g id="axes_1">
   <g id="patch_2">
    <path d="M 43.78125 318.021875 
L 600 318.021875 
L 600 22.318125 
L 43.78125 22.318125 
z
" style="fill: #ffffff"/>
   </g>
   <path d="M 353.66929 182.967539 
L 352.66929 182.936103 
L 351.66929 182.899162 
L 350.66929 182.801416 
L 349.66929 182.768894 
L 348.66929 182.695269 
L 347.66929 182.656704 
L 346.66929 182.621291 
L 345.66929 182.563651 
L 344.66929 182.493265 
L 343.66929 182.4413 
L 342.66929 182.382211 
L 341.66929 182.29389 
L 340.66929 182.247745 
L 339.66929 182.205334 
L 338.66929 182.174842 
L 337.66929 182.148797 
L 336.66929 182.127597 
L 335.66929 182.073296 
L 334.66929 182.045358 
L 333.66929 182.015634 
L 332.66929 181.990239 
L 331.66929 181.979039 
L 330.66929 181.968915 
L 329.66929 181.969119 
L 328.66929 181.978629 
L 327.66929 181.990283 
L 326.66929 182.021312 
L 325.66929 182.03248 
L 324.66929 182.062597 
L 323.66929 182.122374 
L 322.66929 182.159566 
L 321.66929 182.198662 
L 320.66929 182.241102 
L 319.66929 182.273867 
L 318.66929 182.341293 
L 317.66929 182.380419 
L 316.66929 182.423094 
L 315.66929 182.493674 
L 314.66929 182.530065 
L 313.66929 182.588468 
L 312.66929 182.699421 
L 311.66929 182.770079 
L 310.66929 182.883019 
L 309.66929 182.928792 
L 308.66929 182.990075 
L 307.66929 183.038574 
L 306.66929 183.119397 
L 305.66929 183.237916 
L 304.66929 183.308127 
L 303.66929 183.391389 
L 302.66929 183.424531 
L 301.66929 183.475768 
L 300.66929 183.544167 
L 299.66929 183.610382 
L 298.66929 183.687299 
L 297.66929 183.714615 
L 296.66929 183.741092 
L 295.66929 183.763743 
L 294.66929 183.783274 
L 293.66929 183.809668 
L 292.66929 183.859439 
L 291.66929 183.894512 
L 290.11196 183.930378 
" clip-path="url(#pf5dc46ec77)" style="fill: none; stroke: #ff7f0e; stroke-opacity: 0.5; stroke-width: 0.2; stroke-linecap: square"/>
   <path d="M 353.66929 190.426749 
L 352.66929 190.395313 
L 351.66929 190.358372 
L 350.66929 190.260626 
L 349.66929 190.228104 
L 348.66929 190.15448 
L 347.66929 190.115914 
L 346.66929 190.080501 
L 345.66929 190.022861 
L 344.66929 189.952475 
L 343.66929 189.90051 
L 342.66929 189.841421 
L 341.66929 189.7531 
L 340.66929 189.706955 
L 339.66929 189.664545 
L 338.66929 189.634052 
L 337.66929 189.608007 
L 336.66929 189.586807 
L 335.66929 189.532506 
L 334.66929 189.504568 
L 333.66929 189.474844 
L 332.66929 189.449449 
L 331.66929 189.438249 
L 330.66929 189.428125 
L 329.66929 189.428329 
L 328.66929 189.437839 
L 327.66929 189.449493 
L 326.66929 189.480522 
L 325.66929 189.49169 
L 324.66929 189.521808 
L 323.66929 189.581584 
L 322.66929 189.618776 
L 321.66929 189.657872 
L 320.66929 189.700312 
L 319.66929 189.733077 
L 318.66929 189.800503 
L 317.66929 189.839629 
L 316.66929 189.882304 
L 315.66929 189.952884 
L 314.66929 189.989275 
L 313.66929 190.047678 
L 312.66929 190.158631 
L 311.66929 190.229289 
L 310.66929 190.342229 
L 309.66929 190.388002 
L 308.66929 190.449285 
L 307.66929 190.497785 
L 306.66929 190.578607 
L 305.66929 190.697126 
L 304.66929 190.767337 
L 303.66929 190.850599 
L 302.66929 190.883741 
L 301.66929 190.934978 
L 300.66929 191.003377 
L 299.66929 191.069592 
L 298.66929 191.146509 
L 297.66929 191.173825 
L 296.66929 191.200302 
L 295.66929 191.222953 
L 294.66929 191.242484 
L 293.66929 191.268878 
L 292.66929 191.318649 
L 291.66929 191.353722 
L 290.11196 191.389588 
" clip-path="url(#pf5dc46ec77)" style="fill: none; stroke: #ff7f0e; stroke-opacity: 0.5; stroke-width: 0.2; stroke-linecap: square"/>
   <path d="M 353.66929 189.688124 
L 352.66929 189.656688 
L 351.66929 189.619748 
L 350.66929 189.522001 
L 349.66929 189.489479 
L 348.66929 189.415855 
L 347.66929 189.377289 
L 346.66929 189.341876 
L 345.66929 189.284236 
L 344.66929 189.21385 
L 343.66929 189.161886 
L 342.66929 189.102796 
L 341.66929 189.014475 
L 340.66929 188.968331 
L 339.66929 188.92592 
L 338.66929 188.895427 
L 337.66929 188.869382 
L 336.66929 188.848182 
L 335.66929 188.793881 
L 334.66929 188.765943 
L 333.66929 188.736219 
L 332.66929 188.710825 
L 331.66929 188.699624 
L 330.66929 188.6895 
L 329.66929 188.689705 
L 328.66929 188.699214 
L 327.66929 188.710868 
L 326.66929 188.741897 
L 325.66929 188.753065 
L 324.66929 188.783183 
L 323.66929 188.84296 
L 322.66929 188.880151 
L 321.66929 188.919247 
L 320.66929 188.961687 
L 319.66929 188.994452 
L 318.66929 189.061879 
L 317.66929 189.101004 
L 316.66929 189.143679 
L 315.66929 189.21426 
L 314.66929 189.25065 
L 313.66929 189.309054 
L 312.66929 189.420006 
L 311.66929 189.490665 
L 310.66929 189.603604 
L 309.66929 189.649377 
L 308.66929 189.71066 
L 307.66929 189.75916 
L 306.66929 189.839982 
L 305.66929 189.958501 
L 304.66929 190.028712 
L 303.66929 190.111974 
L 302.66929 190.145116 
L 301.66929 190.196354 
L 300.66929 190.264752 
L 299.66929 190.330967 
L 298.66929 190.407884 
L 297.66929 190.4352 
L 296.66929 190.461677 
L 295.66929 190.484328 
L 294.66929 190.503859 
L 293.66929 190.530253 
L 292.66929 190.580024 
L 291.66929 190.615097 
L 290.11196 190.650963 
" clip-path="url(#pf5dc46ec77)" style="fill: none; stroke: #ff7f0e; stroke-opacity: 0.5; stroke-width: 0.2; stroke-linecap: square"/>
   <path d="M 353.66929 145.528387 
L 352.66929 145.496951 
L 351.66929 145.46001 
L 350.66929 145.362264 
L 349.66929 145.329742 
L 348.66929 145.256118 
L 347.66929 145.217552 
L 346.66929 145.182139 
L 345.66929 145.124499 
L 344.66929 145.054113 
L 343.66929 145.002148 
L 342.66929 144.943059 
L 341.66929 144.854738 
L 340.66929 144.808593 
L 339.66929 144.766182 
L 338.66929 144.73569 
L 337.66929 144.709645 
L 336.66929 144.688445 
L 335.66929 144.634144 
L 334.66929 144.606206 
L 333.66929 144.576482 
L 332.66929 144.551087 
L 331.66929 144.539887 
L 330.66929 144.529763 
L 329.66929 144.529967 
L 328.66929 144.539477 
L 327.66929 144.551131 
L 326.66929 144.58216 
L 325.66929 144.593328 
L 324.66929 144.623445 
L 323.66929 144.683222 
L 322.66929 144.720414 
L 321.66929 144.75951 
L 320.66929 144.80195 
L 319.66929 144.834715 
L 318.66929 144.902141 
L 317.66929 144.941267 
L 316.66929 144.983942 
L 315.66929 145.054522 
L 314.66929 145.090913 
L 313.66929 145.149316 
L 312.66929 145.260269 
L 311.66929 145.330927 
L 310.66929 145.443867 
L 309.66929 145.48964 
L 308.66929 145.550923 
L 307.66929 145.599422 
L 306.66929 145.680245 
L 305.66929 145.798764 
L 304.66929 145.868975 
L 303.66929 145.952237 
L 302.66929 145.985379 
L 301.66929 146.036616 
L 300.66929 146.105015 
L 299.66929 146.17123 
L 298.66929 146.248147 
L 297.66929 146.275463 
L 296.66929 146.30194 
L 295.66929 146.324591 
L 294.66929 146.344122 
L 293.66929 146.370516 
L 292.66929 146.420287 
L 291.66929 146.45536 
L 290.11196 146.491226 
" clip-path="url(#pf5dc46ec77)" style="fill: none; stroke: #ff7f0e; stroke-opacity: 0.5; stroke-width: 0.2; stroke-linecap: square"/>
   <path d="M 353.66929 94.692527 
L 352.66929 94.661091 
L 351.66929 94.62415 
L 350.66929 94.526404 
L 349.66929 94.493882 
L 348.66929 94.420258 
L 347.66929 94.381692 
L 346.66929 94.346279 
L 345.66929 94.288639 
L 344.66929 94.218253 
L 343.66929 94.166289 
L 342.66929 94.107199 
L 341.66929 94.018878 
L 340.66929 93.972734 
L 339.66929 93.930323 
L 338.66929 93.89983 
L 337.66929 93.873785 
L 336.66929 93.852585 
L 335.66929 93.798284 
L 334.66929 93.770346 
L 333.66929 93.740622 
L 332.66929 93.715227 
L 331.66929 93.704027 
L 330.66929 93.693903 
L 329.66929 93.694107 
L 328.66929 93.703617 
L 327.66929 93.715271 
L 326.66929 93.7463 
L 325.66929 93.757468 
L 324.66929 93.787586 
L 323.66929 93.847363 
L 322.66929 93.884554 
L 321.66929 93.92365 
L 320.66929 93.96609 
L 319.66929 93.998855 
L 318.66929 94.066281 
L 317.66929 94.105407 
L 316.66929 94.148082 
L 315.66929 94.218662 
L 314.66929 94.255053 
L 313.66929 94.313456 
L 312.66929 94.424409 
L 311.66929 94.495067 
L 310.66929 94.608007 
L 309.66929 94.65378 
L 308.66929 94.715063 
L 307.66929 94.763563 
L 306.66929 94.844385 
L 305.66929 94.962904 
L 304.66929 95.033115 
L 303.66929 95.116377 
L 302.66929 95.149519 
L 301.66929 95.200756 
L 300.66929 95.269155 
L 299.66929 95.33537 
L 298.66929 95.412287 
L 297.66929 95.439603 
L 296.66929 95.46608 
L 295.66929 95.488731 
L 294.66929 95.508262 
L 293.66929 95.534656 
L 292.66929 95.584427 
L 291.66929 95.6195 
L 290.11196 95.655366 
" clip-path="url(#pf5dc46ec77)" style="fill: none; stroke: #ff7f0e; stroke-opacity: 0.5; stroke-width: 0.2; stroke-linecap: square"/>
   <path d="M 353.66929 136.159037 
L 352.66929 136.1276 
L 351.66929 136.09066 
L 350.66929 135.992913 
L 349.66929 135.960392 
L 348.66929 135.886767 
L 347.66929 135.848201 
L 346.66929 135.812788 
L 345.66929 135.755148 
L 344.66929 135.684762 
L 343.66929 135.632798 
L 342.66929 135.573708 
L 341.66929 135.485387 
L 340.66929 135.439243 
L 339.66929 135.396832 
L 338.66929 135.366339 
L 337.66929 135.340294 
L 336.66929 135.319094 
L 335.66929 135.264793 
L 334.66929 135.236856 
L 333.66929 135.207132 
L 332.66929 135.181737 
L 331.66929 135.170536 
L 330.66929 135.160413 
L 329.66929 135.160617 
L 328.66929 135.170127 
L 327.66929 135.18178 
L 326.66929 135.21281 
L 325.66929 135.223977 
L 324.66929 135.254095 
L 323.66929 135.313872 
L 322.66929 135.351063 
L 321.66929 135.39016 
L 320.66929 135.432599 
L 319.66929 135.465364 
L 318.66929 135.532791 
L 317.66929 135.571917 
L 316.66929 135.614591 
L 315.66929 135.685172 
L 314.66929 135.721563 
L 313.66929 135.779966 
L 312.66929 135.890918 
L 311.66929 135.961577 
L 310.66929 136.074517 
L 309.66929 136.120289 
L 308.66929 136.181573 
L 307.66929 136.230072 
L 306.66929 136.310895 
L 305.66929 136.429414 
L 304.66929 136.499624 
L 303.66929 136.582887 
L 302.66929 136.616029 
L 301.66929 136.667266 
L 300.66929 136.735664 
L 299.66929 136.80188 
L 298.66929 136.878797 
L 297.66929 136.906112 
L 296.66929 136.93259 
L 295.66929 136.95524 
L 294.66929 136.974772 
L 293.66929 137.001166 
L 292.66929 137.050936 
L 291.66929 137.08601 
L 290.11196 137.121875 
" clip-path="url(#pf5dc46ec77)" style="fill: none; stroke: #ff7f0e; stroke-opacity: 0.5; stroke-width: 0.2; stroke-linecap: square"/>
   <path d="M 353.66929 188.782676 
L 352.66929 188.751239 
L 351.66929 188.714299 
L 350.66929 188.616552 
L 349.66929 188.584031 
L 348.66929 188.510406 
L 347.66929 188.471841 
L 346.66929 188.436427 
L 345.66929 188.378787 
L 344.66929 188.308401 
L 343.66929 188.256437 
L 342.66929 188.197347 
L 341.66929 188.109026 
L 340.66929 188.062882 
L 339.66929 188.020471 
L 338.66929 187.989978 
L 337.66929 187.963933 
L 336.66929 187.942733 
L 335.66929 187.888432 
L 334.66929 187.860495 
L 333.66929 187.830771 
L 332.66929 187.805376 
L 331.66929 187.794176 
L 330.66929 187.784052 
L 329.66929 187.784256 
L 328.66929 187.793766 
L 327.66929 187.805419 
L 326.66929 187.836449 
L 325.66929 187.847617 
L 324.66929 187.877734 
L 323.66929 187.937511 
L 322.66929 187.974703 
L 321.66929 188.013799 
L 320.66929 188.056238 
L 319.66929 188.089003 
L 318.66929 188.15643 
L 317.66929 188.195556 
L 316.66929 188.23823 
L 315.66929 188.308811 
L 314.66929 188.345202 
L 313.66929 188.403605 
L 312.66929 188.514558 
L 311.66929 188.585216 
L 310.66929 188.698156 
L 309.66929 188.743929 
L 308.66929 188.805212 
L 307.66929 188.853711 
L 306.66929 188.934534 
L 305.66929 189.053053 
L 304.66929 189.123263 
L 303.66929 189.206526 
L 302.66929 189.239668 
L 301.66929 189.290905 
L 300.66929 189.359303 
L 299.66929 189.425519 
L 298.66929 189.502436 
L 297.66929 189.529751 
L 296.66929 189.556229 
L 295.66929 189.578879 
L 294.66929 189.598411 
L 293.66929 189.624805 
L 292.66929 189.674576 
L 291.66929 189.709649 
L 290.11196 189.745514 
" clip-path="url(#pf5dc46ec77)" style="fill: none; stroke: #ff7f0e; stroke-opacity: 0.5; stroke-width: 0.2; stroke-linecap: square"/>
   <path d="M 353.66929 151.312661 
L 352.66929 151.281225 
L 351.66929 151.244285 
L 350.66929 151.146538 
L 349.66929 151.114017 
L 348.66929 151.040392 
L 347.66929 151.001826 
L 346.66929 150.966413 
L 345.66929 150.908773 
L 344.66929 150.838387 
L 343.66929 150.786423 
L 342.66929 150.727333 
L 341.66929 150.639012 
L 340.66929 150.592868 
L 339.66929 150.550457 
L 338.66929 150.519964 
L 337.66929 150.493919 
L 336.66929 150.472719 
L 335.66929 150.418418 
L 334.66929 150.39048 
L 333.66929 150.360756 
L 332.66929 150.335362 
L 331.66929 150.324161 
L 330.66929 150.314037 
L 329.66929 150.314242 
L 328.66929 150.323752 
L 327.66929 150.335405 
L 326.66929 150.366434 
L 325.66929 150.377602 
L 324.66929 150.40772 
L 323.66929 150.467497 
L 322.66929 150.504688 
L 321.66929 150.543784 
L 320.66929 150.586224 
L 319.66929 150.618989 
L 318.66929 150.686416 
L 317.66929 150.725541 
L 316.66929 150.768216 
L 315.66929 150.838797 
L 314.66929 150.875188 
L 313.66929 150.933591 
L 312.66929 151.044543 
L 311.66929 151.115202 
L 310.66929 151.228141 
L 309.66929 151.273914 
L 308.66929 151.335198 
L 307.66929 151.383697 
L 306.66929 151.46452 
L 305.66929 151.583038 
L 304.66929 151.653249 
L 303.66929 151.736512 
L 302.66929 151.769653 
L 301.66929 151.820891 
L 300.66929 151.889289 
L 299.66929 151.955504 
L 298.66929 152.032421 
L 297.66929 152.059737 
L 296.66929 152.086214 
L 295.66929 152.108865 
L 294.66929 152.128396 
L 293.66929 152.15479 
L 292.66929 152.204561 
L 291.66929 152.239634 
L 290.11196 152.2755 
" clip-path="url(#pf5dc46ec77)" style="fill: none; stroke: #ff7f0e; stroke-opacity: 0.5; stroke-width: 0.2; stroke-linecap: square"/>
   <path d="M 353.66929 176.465303 
L 352.66929 176.433867 
L 351.66929 176.396926 
L 350.66929 176.29918 
L 349.66929 176.266658 
L 348.66929 176.193033 
L 347.66929 176.154468 
L 346.66929 176.119055 
L 345.66929 176.061415 
L 344.66929 175.991029 
L 343.66929 175.939064 
L 342.66929 175.879975 
L 341.66929 175.791654 
L 340.66929 175.745509 
L 339.66929 175.703098 
L 338.66929 175.672606 
L 337.66929 175.646561 
L 336.66929 175.625361 
L 335.66929 175.57106 
L 334.66929 175.543122 
L 333.66929 175.513398 
L 332.66929 175.488003 
L 331.66929 175.476803 
L 330.66929 175.466679 
L 329.66929 175.466883 
L 328.66929 175.476393 
L 327.66929 175.488047 
L 326.66929 175.519076 
L 325.66929 175.530244 
L 324.66929 175.560361 
L 323.66929 175.620138 
L 322.66929 175.65733 
L 321.66929 175.696426 
L 320.66929 175.738866 
L 319.66929 175.771631 
L 318.66929 175.839057 
L 317.66929 175.878183 
L 316.66929 175.920858 
L 315.66929 175.991438 
L 314.66929 176.027829 
L 313.66929 176.086232 
L 312.66929 176.197185 
L 311.66929 176.267843 
L 310.66929 176.380783 
L 309.66929 176.426556 
L 308.66929 176.487839 
L 307.66929 176.536338 
L 306.66929 176.617161 
L 305.66929 176.73568 
L 304.66929 176.805891 
L 303.66929 176.889153 
L 302.66929 176.922295 
L 301.66929 176.973532 
L 300.66929 177.041931 
L 299.66929 177.108146 
L 298.66929 177.185063 
L 297.66929 177.212379 
L 296.66929 177.238856 
L 295.66929 177.261507 
L 294.66929 177.281038 
L 293.66929 177.307432 
L 292.66929 177.357203 
L 291.66929 177.392276 
L 290.11196 177.428142 
" clip-path="url(#pf5dc46ec77)" style="fill: none; stroke: #ff7f0e; stroke-opacity: 0.5; stroke-width: 0.2; stroke-linecap: square"/>
   <path d="M 353.66929 134.905452 
L 352.66929 134.874016 
L 351.66929 134.837075 
L 350.66929 134.739329 
L 349.66929 134.706807 
L 348.66929 134.633183 
L 347.66929 134.594617 
L 346.66929 134.559204 
L 345.66929 134.501564 
L 344.66929 134.431178 
L 343.66929 134.379214 
L 342.66929 134.320124 
L 341.66929 134.231803 
L 340.66929 134.185659 
L 339.66929 134.143248 
L 338.66929 134.112755 
L 337.66929 134.08671 
L 336.66929 134.06551 
L 335.66929 134.011209 
L 334.66929 133.983271 
L 333.66929 133.953547 
L 332.66929 133.928152 
L 331.66929 133.916952 
L 330.66929 133.906828 
L 329.66929 133.907032 
L 328.66929 133.916542 
L 327.66929 133.928196 
L 326.66929 133.959225 
L 325.66929 133.970393 
L 324.66929 134.000511 
L 323.66929 134.060287 
L 322.66929 134.097479 
L 321.66929 134.136575 
L 320.66929 134.179015 
L 319.66929 134.21178 
L 318.66929 134.279206 
L 317.66929 134.318332 
L 316.66929 134.361007 
L 315.66929 134.431587 
L 314.66929 134.467978 
L 313.66929 134.526381 
L 312.66929 134.637334 
L 311.66929 134.707992 
L 310.66929 134.820932 
L 309.66929 134.866705 
L 308.66929 134.927988 
L 307.66929 134.976488 
L 306.66929 135.05731 
L 305.66929 135.175829 
L 304.66929 135.24604 
L 303.66929 135.329302 
L 302.66929 135.362444 
L 301.66929 135.413681 
L 300.66929 135.48208 
L 299.66929 135.548295 
L 298.66929 135.625212 
L 297.66929 135.652528 
L 296.66929 135.679005 
L 295.66929 135.701656 
L 294.66929 135.721187 
L 293.66929 135.747581 
L 292.66929 135.797352 
L 291.66929 135.832425 
L 290.11196 135.868291 
" clip-path="url(#pf5dc46ec77)" style="fill: none; stroke: #ff7f0e; stroke-opacity: 0.5; stroke-width: 0.2; stroke-linecap: square"/>
   <path d="M 290.11196 120.09782 
L 291.11196 120.129257 
L 292.11196 120.166197 
L 293.11196 120.263944 
L 294.11196 120.296465 
L 295.11196 120.37009 
L 296.11196 120.408655 
L 297.11196 120.444069 
L 298.11196 120.501709 
L 299.11196 120.572095 
L 300.11196 120.624059 
L 301.11196 120.683149 
L 302.11196 120.77147 
L 303.11196 120.817614 
L 304.11196 120.860025 
L 305.11196 120.890518 
L 306.11196 120.916563 
L 307.11196 120.937763 
L 308.11196 120.992064 
L 309.11196 121.020001 
L 310.11196 121.049725 
L 311.11196 121.07512 
L 312.11196 121.08632 
L 313.11196 121.096444 
L 314.11196 121.09624 
L 315.11196 121.08673 
L 316.11196 121.075077 
L 317.11196 121.044047 
L 318.11196 121.032879 
L 319.11196 121.002762 
L 320.11196 120.942985 
L 321.11196 120.905793 
L 322.11196 120.866697 
L 323.11196 120.824258 
L 324.11196 120.791493 
L 325.11196 120.724066 
L 326.11196 120.68494 
L 327.11196 120.642266 
L 328.11196 120.571685 
L 329.11196 120.535294 
L 330.11196 120.476891 
L 331.11196 120.365938 
L 332.11196 120.29528 
L 333.11196 120.18234 
L 334.11196 120.136567 
L 335.11196 120.075284 
L 336.11196 120.026785 
L 337.11196 119.945962 
L 338.11196 119.827443 
L 339.11196 119.757233 
L 340.11196 119.67397 
L 341.11196 119.640828 
L 342.11196 119.589591 
L 343.11196 119.521193 
L 344.11196 119.454977 
L 345.11196 119.37806 
L 346.11196 119.350745 
L 347.11196 119.324267 
L 348.11196 119.301617 
L 349.11196 119.282085 
L 350.11196 119.255691 
L 351.11196 119.20592 
L 352.11196 119.170847 
L 353.66929 119.134982 
" clip-path="url(#pf5dc46ec77)" style="fill: none; stroke: #1f77b4; stroke-opacity: 0.5; stroke-width: 0.2; stroke-linecap: square"/>
   <path d="M 290.11196 81.773192 
L 291.11196 81.804628 
L 292.11196 81.841568 
L 293.11196 81.939315 
L 294.11196 81.971837 
L 295.11196 82.045461 
L 296.11196 82.084027 
L 297.11196 82.11944 
L 298.11196 82.17708 
L 299.11196 82.247466 
L 300.11196 82.29943 
L 301.11196 82.35852 
L 302.11196 82.446841 
L 303.11196 82.492985 
L 304.11196 82.535396 
L 305.11196 82.565889 
L 306.11196 82.591934 
L 307.11196 82.613134 
L 308.11196 82.667435 
L 309.11196 82.695373 
L 310.11196 82.725097 
L 311.11196 82.750492 
L 312.11196 82.761692 
L 313.11196 82.771816 
L 314.11196 82.771612 
L 315.11196 82.762102 
L 316.11196 82.750448 
L 317.11196 82.719419 
L 318.11196 82.708251 
L 319.11196 82.678133 
L 320.11196 82.618356 
L 321.11196 82.581165 
L 322.11196 82.542069 
L 323.11196 82.499629 
L 324.11196 82.466864 
L 325.11196 82.399438 
L 326.11196 82.360312 
L 327.11196 82.317637 
L 328.11196 82.247057 
L 329.11196 82.210666 
L 330.11196 82.152263 
L 331.11196 82.04131 
L 332.11196 81.970652 
L 333.11196 81.857712 
L 334.11196 81.811939 
L 335.11196 81.750656 
L 336.11196 81.702156 
L 337.11196 81.621334 
L 338.11196 81.502815 
L 339.11196 81.432604 
L 340.11196 81.349342 
L 341.11196 81.3162 
L 342.11196 81.264963 
L 343.11196 81.196564 
L 344.11196 81.130349 
L 345.11196 81.053432 
L 346.11196 81.026116 
L 347.11196 80.999639 
L 348.11196 80.976988 
L 349.11196 80.957457 
L 350.11196 80.931063 
L 351.11196 80.881292 
L 352.11196 80.846219 
L 353.66929 80.810353 
" clip-path="url(#pf5dc46ec77)" style="fill: none; stroke: #1f77b4; stroke-opacity: 0.5; stroke-width: 0.2; stroke-linecap: square"/>
   <path d="M 290.11196 121.412927 
L 291.11196 121.444364 
L 292.11196 121.481304 
L 293.11196 121.579051 
L 294.11196 121.611572 
L 295.11196 121.685197 
L 296.11196 121.723762 
L 297.11196 121.759176 
L 298.11196 121.816816 
L 299.11196 121.887202 
L 300.11196 121.939166 
L 301.11196 121.998256 
L 302.11196 122.086577 
L 303.11196 122.132721 
L 304.11196 122.175132 
L 305.11196 122.205625 
L 306.11196 122.23167 
L 307.11196 122.25287 
L 308.11196 122.307171 
L 309.11196 122.335108 
L 310.11196 122.364832 
L 311.11196 122.390227 
L 312.11196 122.401427 
L 313.11196 122.411551 
L 314.11196 122.411347 
L 315.11196 122.401837 
L 316.11196 122.390184 
L 317.11196 122.359154 
L 318.11196 122.347986 
L 319.11196 122.317869 
L 320.11196 122.258092 
L 321.11196 122.2209 
L 322.11196 122.181804 
L 323.11196 122.139365 
L 324.11196 122.1066 
L 325.11196 122.039173 
L 326.11196 122.000047 
L 327.11196 121.957373 
L 328.11196 121.886792 
L 329.11196 121.850401 
L 330.11196 121.791998 
L 331.11196 121.681045 
L 332.11196 121.610387 
L 333.11196 121.497447 
L 334.11196 121.451674 
L 335.11196 121.390391 
L 336.11196 121.341892 
L 337.11196 121.261069 
L 338.11196 121.14255 
L 339.11196 121.07234 
L 340.11196 120.989077 
L 341.11196 120.955935 
L 342.11196 120.904698 
L 343.11196 120.8363 
L 344.11196 120.770084 
L 345.11196 120.693167 
L 346.11196 120.665852 
L 347.11196 120.639374 
L 348.11196 120.616724 
L 349.11196 120.597192 
L 350.11196 120.570798 
L 351.11196 120.521027 
L 352.11196 120.485954 
L 353.66929 120.450089 
" clip-path="url(#pf5dc46ec77)" style="fill: none; stroke: #1f77b4; stroke-opacity: 0.5; stroke-width: 0.2; stroke-linecap: square"/>
   <path d="M 290.11196 198.630036 
L 291.11196 198.661473 
L 292.11196 198.698413 
L 293.11196 198.796159 
L 294.11196 198.828681 
L 295.11196 198.902306 
L 296.11196 198.940871 
L 297.11196 198.976285 
L 298.11196 199.033924 
L 299.11196 199.104311 
L 300.11196 199.156275 
L 301.11196 199.215365 
L 302.11196 199.303686 
L 303.11196 199.34983 
L 304.11196 199.392241 
L 305.11196 199.422734 
L 306.11196 199.448778 
L 307.11196 199.469979 
L 308.11196 199.52428 
L 309.11196 199.552217 
L 310.11196 199.581941 
L 311.11196 199.607336 
L 312.11196 199.618536 
L 313.11196 199.62866 
L 314.11196 199.628456 
L 315.11196 199.618946 
L 316.11196 199.607293 
L 317.11196 199.576263 
L 318.11196 199.565095 
L 319.11196 199.534978 
L 320.11196 199.475201 
L 321.11196 199.438009 
L 322.11196 199.398913 
L 323.11196 199.356474 
L 324.11196 199.323709 
L 325.11196 199.256282 
L 326.11196 199.217156 
L 327.11196 199.174482 
L 328.11196 199.103901 
L 329.11196 199.06751 
L 330.11196 199.009107 
L 331.11196 198.898154 
L 332.11196 198.827496 
L 333.11196 198.714556 
L 334.11196 198.668783 
L 335.11196 198.6075 
L 336.11196 198.559001 
L 337.11196 198.478178 
L 338.11196 198.359659 
L 339.11196 198.289449 
L 340.11196 198.206186 
L 341.11196 198.173044 
L 342.11196 198.121807 
L 343.11196 198.053409 
L 344.11196 197.987193 
L 345.11196 197.910276 
L 346.11196 197.882961 
L 347.11196 197.856483 
L 348.11196 197.833832 
L 349.11196 197.814301 
L 350.11196 197.787907 
L 351.11196 197.738136 
L 352.11196 197.703063 
L 353.66929 197.667198 
" clip-path="url(#pf5dc46ec77)" style="fill: none; stroke: #1f77b4; stroke-opacity: 0.5; stroke-width: 0.2; stroke-linecap: square"/>
   <path d="M 290.11196 122.128449 
L 291.11196 122.159885 
L 292.11196 122.196825 
L 293.11196 122.294572 
L 294.11196 122.327093 
L 295.11196 122.400718 
L 296.11196 122.439284 
L 297.11196 122.474697 
L 298.11196 122.532337 
L 299.11196 122.602723 
L 300.11196 122.654687 
L 301.11196 122.713777 
L 302.11196 122.802098 
L 303.11196 122.848242 
L 304.11196 122.890653 
L 305.11196 122.921146 
L 306.11196 122.947191 
L 307.11196 122.968391 
L 308.11196 123.022692 
L 309.11196 123.05063 
L 310.11196 123.080354 
L 311.11196 123.105748 
L 312.11196 123.116949 
L 313.11196 123.127073 
L 314.11196 123.126868 
L 315.11196 123.117359 
L 316.11196 123.105705 
L 317.11196 123.074676 
L 318.11196 123.063508 
L 319.11196 123.03339 
L 320.11196 122.973613 
L 321.11196 122.936422 
L 322.11196 122.897326 
L 323.11196 122.854886 
L 324.11196 122.822121 
L 325.11196 122.754694 
L 326.11196 122.715569 
L 327.11196 122.672894 
L 328.11196 122.602313 
L 329.11196 122.565923 
L 330.11196 122.507519 
L 331.11196 122.396567 
L 332.11196 122.325908 
L 333.11196 122.212969 
L 334.11196 122.167196 
L 335.11196 122.105913 
L 336.11196 122.057413 
L 337.11196 121.976591 
L 338.11196 121.858072 
L 339.11196 121.787861 
L 340.11196 121.704598 
L 341.11196 121.671457 
L 342.11196 121.620219 
L 343.11196 121.551821 
L 344.11196 121.485606 
L 345.11196 121.408689 
L 346.11196 121.381373 
L 347.11196 121.354896 
L 348.11196 121.332245 
L 349.11196 121.312714 
L 350.11196 121.28632 
L 351.11196 121.236549 
L 352.11196 121.201476 
L 353.66929 121.16561 
" clip-path="url(#pf5dc46ec77)" style="fill: none; stroke: #1f77b4; stroke-opacity: 0.5; stroke-width: 0.2; stroke-linecap: square"/>
   <path d="M 290.11196 194.906725 
L 291.11196 194.938162 
L 292.11196 194.975102 
L 293.11196 195.072849 
L 294.11196 195.10537 
L 295.11196 195.178995 
L 296.11196 195.21756 
L 297.11196 195.252974 
L 298.11196 195.310614 
L 299.11196 195.381 
L 300.11196 195.432964 
L 301.11196 195.492054 
L 302.11196 195.580375 
L 303.11196 195.626519 
L 304.11196 195.66893 
L 305.11196 195.699423 
L 306.11196 195.725468 
L 307.11196 195.746668 
L 308.11196 195.800969 
L 309.11196 195.828906 
L 310.11196 195.85863 
L 311.11196 195.884025 
L 312.11196 195.895226 
L 313.11196 195.905349 
L 314.11196 195.905145 
L 315.11196 195.895635 
L 316.11196 195.883982 
L 317.11196 195.852952 
L 318.11196 195.841785 
L 319.11196 195.811667 
L 320.11196 195.75189 
L 321.11196 195.714698 
L 322.11196 195.675602 
L 323.11196 195.633163 
L 324.11196 195.600398 
L 325.11196 195.532971 
L 326.11196 195.493845 
L 327.11196 195.451171 
L 328.11196 195.38059 
L 329.11196 195.344199 
L 330.11196 195.285796 
L 331.11196 195.174844 
L 332.11196 195.104185 
L 333.11196 194.991245 
L 334.11196 194.945472 
L 335.11196 194.884189 
L 336.11196 194.83569 
L 337.11196 194.754867 
L 338.11196 194.636348 
L 339.11196 194.566138 
L 340.11196 194.482875 
L 341.11196 194.449733 
L 342.11196 194.398496 
L 343.11196 194.330098 
L 344.11196 194.263882 
L 345.11196 194.186965 
L 346.11196 194.15965 
L 347.11196 194.133172 
L 348.11196 194.110522 
L 349.11196 194.09099 
L 350.11196 194.064596 
L 351.11196 194.014826 
L 352.11196 193.979752 
L 353.66929 193.943887 
" clip-path="url(#pf5dc46ec77)" style="fill: none; stroke: #1f77b4; stroke-opacity: 0.5; stroke-width: 0.2; stroke-linecap: square"/>
   <path d="M 290.11196 136.174759 
L 291.11196 136.206195 
L 292.11196 136.243135 
L 293.11196 136.340882 
L 294.11196 136.373403 
L 295.11196 136.447028 
L 296.11196 136.485594 
L 297.11196 136.521007 
L 298.11196 136.578647 
L 299.11196 136.649033 
L 300.11196 136.700997 
L 301.11196 136.760087 
L 302.11196 136.848408 
L 303.11196 136.894552 
L 304.11196 136.936963 
L 305.11196 136.967456 
L 306.11196 136.993501 
L 307.11196 137.014701 
L 308.11196 137.069002 
L 309.11196 137.09694 
L 310.11196 137.126664 
L 311.11196 137.152058 
L 312.11196 137.163259 
L 313.11196 137.173383 
L 314.11196 137.173178 
L 315.11196 137.163668 
L 316.11196 137.152015 
L 317.11196 137.120986 
L 318.11196 137.109818 
L 319.11196 137.0797 
L 320.11196 137.019923 
L 321.11196 136.982732 
L 322.11196 136.943636 
L 323.11196 136.901196 
L 324.11196 136.868431 
L 325.11196 136.801004 
L 326.11196 136.761879 
L 327.11196 136.719204 
L 328.11196 136.648623 
L 329.11196 136.612232 
L 330.11196 136.553829 
L 331.11196 136.442877 
L 332.11196 136.372218 
L 333.11196 136.259279 
L 334.11196 136.213506 
L 335.11196 136.152222 
L 336.11196 136.103723 
L 337.11196 136.0229 
L 338.11196 135.904382 
L 339.11196 135.834171 
L 340.11196 135.750908 
L 341.11196 135.717767 
L 342.11196 135.666529 
L 343.11196 135.598131 
L 344.11196 135.531916 
L 345.11196 135.454999 
L 346.11196 135.427683 
L 347.11196 135.401206 
L 348.11196 135.378555 
L 349.11196 135.359024 
L 350.11196 135.33263 
L 351.11196 135.282859 
L 352.11196 135.247786 
L 353.66929 135.21192 
" clip-path="url(#pf5dc46ec77)" style="fill: none; stroke: #1f77b4; stroke-opacity: 0.5; stroke-width: 0.2; stroke-linecap: square"/>
   <path d="M 290.11196 139.447272 
L 291.11196 139.478708 
L 292.11196 139.515649 
L 293.11196 139.613395 
L 294.11196 139.645917 
L 295.11196 139.719542 
L 296.11196 139.758107 
L 297.11196 139.79352 
L 298.11196 139.85116 
L 299.11196 139.921547 
L 300.11196 139.973511 
L 301.11196 140.032601 
L 302.11196 140.120921 
L 303.11196 140.167066 
L 304.11196 140.209477 
L 305.11196 140.239969 
L 306.11196 140.266014 
L 307.11196 140.287214 
L 308.11196 140.341516 
L 309.11196 140.369453 
L 310.11196 140.399177 
L 311.11196 140.424572 
L 312.11196 140.435772 
L 313.11196 140.445896 
L 314.11196 140.445692 
L 315.11196 140.436182 
L 316.11196 140.424528 
L 317.11196 140.393499 
L 318.11196 140.382331 
L 319.11196 140.352214 
L 320.11196 140.292437 
L 321.11196 140.255245 
L 322.11196 140.216149 
L 323.11196 140.17371 
L 324.11196 140.140944 
L 325.11196 140.073518 
L 326.11196 140.034392 
L 327.11196 139.991718 
L 328.11196 139.921137 
L 329.11196 139.884746 
L 330.11196 139.826343 
L 331.11196 139.71539 
L 332.11196 139.644732 
L 333.11196 139.531792 
L 334.11196 139.486019 
L 335.11196 139.424736 
L 336.11196 139.376237 
L 337.11196 139.295414 
L 338.11196 139.176895 
L 339.11196 139.106684 
L 340.11196 139.023422 
L 341.11196 138.99028 
L 342.11196 138.939043 
L 343.11196 138.870645 
L 344.11196 138.804429 
L 345.11196 138.727512 
L 346.11196 138.700197 
L 347.11196 138.673719 
L 348.11196 138.651068 
L 349.11196 138.631537 
L 350.11196 138.605143 
L 351.11196 138.555372 
L 352.11196 138.520299 
L 353.66929 138.484434 
" clip-path="url(#pf5dc46ec77)" style="fill: none; stroke: #1f77b4; stroke-opacity: 0.5; stroke-width: 0.2; stroke-linecap: square"/>
   <path d="M 290.11196 147.235726 
L 291.11196 147.267163 
L 292.11196 147.304103 
L 293.11196 147.40185 
L 294.11196 147.434371 
L 295.11196 147.507996 
L 296.11196 147.546562 
L 297.11196 147.581975 
L 298.11196 147.639615 
L 299.11196 147.710001 
L 300.11196 147.761965 
L 301.11196 147.821055 
L 302.11196 147.909376 
L 303.11196 147.95552 
L 304.11196 147.997931 
L 305.11196 148.028424 
L 306.11196 148.054469 
L 307.11196 148.075669 
L 308.11196 148.12997 
L 309.11196 148.157907 
L 310.11196 148.187631 
L 311.11196 148.213026 
L 312.11196 148.224227 
L 313.11196 148.234351 
L 314.11196 148.234146 
L 315.11196 148.224636 
L 316.11196 148.212983 
L 317.11196 148.181954 
L 318.11196 148.170786 
L 319.11196 148.140668 
L 320.11196 148.080891 
L 321.11196 148.0437 
L 322.11196 148.004604 
L 323.11196 147.962164 
L 324.11196 147.929399 
L 325.11196 147.861972 
L 326.11196 147.822846 
L 327.11196 147.780172 
L 328.11196 147.709591 
L 329.11196 147.6732 
L 330.11196 147.614797 
L 331.11196 147.503845 
L 332.11196 147.433186 
L 333.11196 147.320247 
L 334.11196 147.274474 
L 335.11196 147.21319 
L 336.11196 147.164691 
L 337.11196 147.083868 
L 338.11196 146.965349 
L 339.11196 146.895139 
L 340.11196 146.811876 
L 341.11196 146.778735 
L 342.11196 146.727497 
L 343.11196 146.659099 
L 344.11196 146.592883 
L 345.11196 146.515966 
L 346.11196 146.488651 
L 347.11196 146.462173 
L 348.11196 146.439523 
L 349.11196 146.419991 
L 350.11196 146.393598 
L 351.11196 146.343827 
L 352.11196 146.308754 
L 353.66929 146.272888 
" clip-path="url(#pf5dc46ec77)" style="fill: none; stroke: #1f77b4; stroke-opacity: 0.5; stroke-width: 0.2; stroke-linecap: square"/>
   <path d="M 290.11196 100.001676 
L 291.11196 100.033113 
L 292.11196 100.070053 
L 293.11196 100.1678 
L 294.11196 100.200321 
L 295.11196 100.273946 
L 296.11196 100.312511 
L 297.11196 100.347925 
L 298.11196 100.405565 
L 299.11196 100.475951 
L 300.11196 100.527915 
L 301.11196 100.587005 
L 302.11196 100.675326 
L 303.11196 100.72147 
L 304.11196 100.763881 
L 305.11196 100.794374 
L 306.11196 100.820419 
L 307.11196 100.841619 
L 308.11196 100.89592 
L 309.11196 100.923857 
L 310.11196 100.953581 
L 311.11196 100.978976 
L 312.11196 100.990176 
L 313.11196 101.0003 
L 314.11196 101.000096 
L 315.11196 100.990586 
L 316.11196 100.978933 
L 317.11196 100.947903 
L 318.11196 100.936735 
L 319.11196 100.906618 
L 320.11196 100.846841 
L 321.11196 100.809649 
L 322.11196 100.770553 
L 323.11196 100.728114 
L 324.11196 100.695349 
L 325.11196 100.627922 
L 326.11196 100.588796 
L 327.11196 100.546122 
L 328.11196 100.475541 
L 329.11196 100.43915 
L 330.11196 100.380747 
L 331.11196 100.269794 
L 332.11196 100.199136 
L 333.11196 100.086196 
L 334.11196 100.040423 
L 335.11196 99.97914 
L 336.11196 99.930641 
L 337.11196 99.849818 
L 338.11196 99.731299 
L 339.11196 99.661089 
L 340.11196 99.577826 
L 341.11196 99.544684 
L 342.11196 99.493447 
L 343.11196 99.425049 
L 344.11196 99.358833 
L 345.11196 99.281916 
L 346.11196 99.254601 
L 347.11196 99.228123 
L 348.11196 99.205473 
L 349.11196 99.185941 
L 350.11196 99.159547 
L 351.11196 99.109777 
L 352.11196 99.074703 
L 353.66929 99.038838 
" clip-path="url(#pf5dc46ec77)" style="fill: none; stroke: #1f77b4; stroke-opacity: 0.5; stroke-width: 0.2; stroke-linecap: square"/>
   <path d="M 353.66929 205.056007 
L 352.66929 205.02457 
L 351.66929 204.98763 
L 350.66929 204.889883 
L 349.66929 204.857362 
L 348.66929 204.783737 
L 347.66929 204.745172 
L 346.66929 204.709758 
L 345.66929 204.652118 
L 344.66929 204.581732 
L 343.66929 204.529768 
L 342.66929 204.470678 
L 341.66929 204.382357 
L 340.66929 204.336213 
L 339.66929 204.293802 
L 338.66929 204.263309 
L 337.66929 204.237264 
L 336.66929 204.216064 
L 335.66929 204.161763 
L 334.66929 204.133826 
L 333.66929 204.104102 
L 332.66929 204.078707 
L 331.66929 204.067507 
L 330.66929 204.057383 
L 329.66929 204.057587 
L 328.66929 204.067097 
L 327.66929 204.07875 
L 326.66929 204.10978 
L 325.66929 204.120948 
L 324.66929 204.151065 
L 323.66929 204.210842 
L 322.66929 204.248034 
L 321.66929 204.28713 
L 320.66929 204.329569 
L 319.66929 204.362334 
L 318.66929 204.429761 
L 317.66929 204.468887 
L 316.66929 204.511561 
L 315.66929 204.582142 
L 314.66929 204.618533 
L 313.66929 204.676936 
L 312.66929 204.787889 
L 311.66929 204.858547 
L 310.66929 204.971487 
L 309.66929 205.01726 
L 308.66929 205.078543 
L 307.66929 205.127042 
L 306.66929 205.207865 
L 305.66929 205.326384 
L 304.66929 205.396594 
L 303.66929 205.479857 
L 302.66929 205.512999 
L 301.66929 205.564236 
L 300.66929 205.632634 
L 299.66929 205.69885 
L 298.66929 205.775767 
L 297.66929 205.803082 
L 296.66929 205.82956 
L 295.66929 205.85221 
L 294.66929 205.871742 
L 293.66929 205.898136 
L 292.66929 205.947906 
L 291.66929 205.98298 
L 290.11196 206.018845 
" clip-path="url(#pf5dc46ec77)" style="fill: none; stroke: #ff7f0e; stroke-opacity: 0.5; stroke-width: 0.2; stroke-linecap: square"/>
   <path d="M 353.66929 275.153613 
L 352.66929 275.122177 
L 351.66929 275.085237 
L 350.66929 274.98749 
L 349.66929 274.954968 
L 348.66929 274.881344 
L 347.66929 274.842778 
L 346.66929 274.807365 
L 345.66929 274.749725 
L 344.66929 274.679339 
L 343.66929 274.627375 
L 342.66929 274.568285 
L 341.66929 274.479964 
L 340.66929 274.43382 
L 339.66929 274.391409 
L 338.66929 274.360916 
L 337.66929 274.334871 
L 336.66929 274.313671 
L 335.66929 274.25937 
L 334.66929 274.231432 
L 333.66929 274.201708 
L 332.66929 274.176314 
L 331.66929 274.165113 
L 330.66929 274.154989 
L 329.66929 274.155194 
L 328.66929 274.164703 
L 327.66929 274.176357 
L 326.66929 274.207386 
L 325.66929 274.218554 
L 324.66929 274.248672 
L 323.66929 274.308449 
L 322.66929 274.34564 
L 321.66929 274.384736 
L 320.66929 274.427176 
L 319.66929 274.459941 
L 318.66929 274.527368 
L 317.66929 274.566493 
L 316.66929 274.609168 
L 315.66929 274.679749 
L 314.66929 274.716139 
L 313.66929 274.774543 
L 312.66929 274.885495 
L 311.66929 274.956153 
L 310.66929 275.069093 
L 309.66929 275.114866 
L 308.66929 275.176149 
L 307.66929 275.224649 
L 306.66929 275.305471 
L 305.66929 275.42399 
L 304.66929 275.494201 
L 303.66929 275.577463 
L 302.66929 275.610605 
L 301.66929 275.661843 
L 300.66929 275.730241 
L 299.66929 275.796456 
L 298.66929 275.873373 
L 297.66929 275.900689 
L 296.66929 275.927166 
L 295.66929 275.949817 
L 294.66929 275.969348 
L 293.66929 275.995742 
L 292.66929 276.045513 
L 291.66929 276.080586 
L 290.11196 276.116452 
" clip-path="url(#pf5dc46ec77)" style="fill: none; stroke: #ff7f0e; stroke-opacity: 0.5; stroke-width: 0.2; stroke-linecap: square"/>
   <path d="M 353.66929 283.822005 
L 352.66929 283.790568 
L 351.66929 283.753628 
L 350.66929 283.655881 
L 349.66929 283.62336 
L 348.66929 283.549735 
L 347.66929 283.511169 
L 346.66929 283.475756 
L 345.66929 283.418116 
L 344.66929 283.34773 
L 343.66929 283.295766 
L 342.66929 283.236676 
L 341.66929 283.148355 
L 340.66929 283.102211 
L 339.66929 283.0598 
L 338.66929 283.029307 
L 337.66929 283.003262 
L 336.66929 282.982062 
L 335.66929 282.927761 
L 334.66929 282.899823 
L 333.66929 282.8701 
L 332.66929 282.844705 
L 331.66929 282.833504 
L 330.66929 282.82338 
L 329.66929 282.823585 
L 328.66929 282.833095 
L 327.66929 282.844748 
L 326.66929 282.875777 
L 325.66929 282.886945 
L 324.66929 282.917063 
L 323.66929 282.97684 
L 322.66929 283.014031 
L 321.66929 283.053127 
L 320.66929 283.095567 
L 319.66929 283.128332 
L 318.66929 283.195759 
L 317.66929 283.234885 
L 316.66929 283.277559 
L 315.66929 283.34814 
L 314.66929 283.384531 
L 313.66929 283.442934 
L 312.66929 283.553886 
L 311.66929 283.624545 
L 310.66929 283.737484 
L 309.66929 283.783257 
L 308.66929 283.844541 
L 307.66929 283.89304 
L 306.66929 283.973863 
L 305.66929 284.092382 
L 304.66929 284.162592 
L 303.66929 284.245855 
L 302.66929 284.278996 
L 301.66929 284.330234 
L 300.66929 284.398632 
L 299.66929 284.464847 
L 298.66929 284.541765 
L 297.66929 284.56908 
L 296.66929 284.595558 
L 295.66929 284.618208 
L 294.66929 284.637739 
L 293.66929 284.664133 
L 292.66929 284.713904 
L 291.66929 284.748977 
L 290.11196 284.784843 
" clip-path="url(#pf5dc46ec77)" style="fill: none; stroke: #ff7f0e; stroke-opacity: 0.5; stroke-width: 0.2; stroke-linecap: square"/>
   <path d="M 353.66929 271.944964 
L 352.66929 271.913528 
L 351.66929 271.876588 
L 350.66929 271.778841 
L 349.66929 271.746319 
L 348.66929 271.672695 
L 347.66929 271.634129 
L 346.66929 271.598716 
L 345.66929 271.541076 
L 344.66929 271.47069 
L 343.66929 271.418726 
L 342.66929 271.359636 
L 341.66929 271.271315 
L 340.66929 271.225171 
L 339.66929 271.18276 
L 338.66929 271.152267 
L 337.66929 271.126222 
L 336.66929 271.105022 
L 335.66929 271.050721 
L 334.66929 271.022783 
L 333.66929 270.993059 
L 332.66929 270.967665 
L 331.66929 270.956464 
L 330.66929 270.94634 
L 329.66929 270.946545 
L 328.66929 270.956054 
L 327.66929 270.967708 
L 326.66929 270.998737 
L 325.66929 271.009905 
L 324.66929 271.040023 
L 323.66929 271.0998 
L 322.66929 271.136991 
L 321.66929 271.176087 
L 320.66929 271.218527 
L 319.66929 271.251292 
L 318.66929 271.318718 
L 317.66929 271.357844 
L 316.66929 271.400519 
L 315.66929 271.471099 
L 314.66929 271.50749 
L 313.66929 271.565894 
L 312.66929 271.676846 
L 311.66929 271.747504 
L 310.66929 271.860444 
L 309.66929 271.906217 
L 308.66929 271.9675 
L 307.66929 272.016 
L 306.66929 272.096822 
L 305.66929 272.215341 
L 304.66929 272.285552 
L 303.66929 272.368814 
L 302.66929 272.401956 
L 301.66929 272.453193 
L 300.66929 272.521592 
L 299.66929 272.587807 
L 298.66929 272.664724 
L 297.66929 272.69204 
L 296.66929 272.718517 
L 295.66929 272.741168 
L 294.66929 272.760699 
L 293.66929 272.787093 
L 292.66929 272.836864 
L 291.66929 272.871937 
L 290.11196 272.907803 
" clip-path="url(#pf5dc46ec77)" style="fill: none; stroke: #ff7f0e; stroke-opacity: 0.5; stroke-width: 0.2; stroke-linecap: square"/>
   <path d="M 353.66929 293.211792 
L 352.66929 293.180356 
L 351.66929 293.143416 
L 350.66929 293.045669 
L 349.66929 293.013147 
L 348.66929 292.939523 
L 347.66929 292.900957 
L 346.66929 292.865544 
L 345.66929 292.807904 
L 344.66929 292.737518 
L 343.66929 292.685554 
L 342.66929 292.626464 
L 341.66929 292.538143 
L 340.66929 292.491999 
L 339.66929 292.449588 
L 338.66929 292.419095 
L 337.66929 292.39305 
L 336.66929 292.37185 
L 335.66929 292.317549 
L 334.66929 292.289611 
L 333.66929 292.259887 
L 332.66929 292.234493 
L 331.66929 292.223292 
L 330.66929 292.213168 
L 329.66929 292.213373 
L 328.66929 292.222882 
L 327.66929 292.234536 
L 326.66929 292.265565 
L 325.66929 292.276733 
L 324.66929 292.306851 
L 323.66929 292.366628 
L 322.66929 292.403819 
L 321.66929 292.442915 
L 320.66929 292.485355 
L 319.66929 292.51812 
L 318.66929 292.585546 
L 317.66929 292.624672 
L 316.66929 292.667347 
L 315.66929 292.737928 
L 314.66929 292.774318 
L 313.66929 292.832722 
L 312.66929 292.943674 
L 311.66929 293.014332 
L 310.66929 293.127272 
L 309.66929 293.173045 
L 308.66929 293.234328 
L 307.66929 293.282828 
L 306.66929 293.36365 
L 305.66929 293.482169 
L 304.66929 293.55238 
L 303.66929 293.635642 
L 302.66929 293.668784 
L 301.66929 293.720022 
L 300.66929 293.78842 
L 299.66929 293.854635 
L 298.66929 293.931552 
L 297.66929 293.958868 
L 296.66929 293.985345 
L 295.66929 294.007996 
L 294.66929 294.027527 
L 293.66929 294.053921 
L 292.66929 294.103692 
L 291.66929 294.138765 
L 290.11196 294.174631 
" clip-path="url(#pf5dc46ec77)" style="fill: none; stroke: #ff7f0e; stroke-opacity: 0.5; stroke-width: 0.2; stroke-linecap: square"/>
   <path d="M 353.66929 279.462037 
L 352.66929 279.4306 
L 351.66929 279.39366 
L 350.66929 279.295914 
L 349.66929 279.263392 
L 348.66929 279.189767 
L 347.66929 279.151202 
L 346.66929 279.115789 
L 345.66929 279.058149 
L 344.66929 278.987762 
L 343.66929 278.935798 
L 342.66929 278.876708 
L 341.66929 278.788387 
L 340.66929 278.742243 
L 339.66929 278.699832 
L 338.66929 278.66934 
L 337.66929 278.643295 
L 336.66929 278.622095 
L 335.66929 278.567793 
L 334.66929 278.539856 
L 333.66929 278.510132 
L 332.66929 278.484737 
L 331.66929 278.473537 
L 330.66929 278.463413 
L 329.66929 278.463617 
L 328.66929 278.473127 
L 327.66929 278.48478 
L 326.66929 278.51581 
L 325.66929 278.526978 
L 324.66929 278.557095 
L 323.66929 278.616872 
L 322.66929 278.654064 
L 321.66929 278.69316 
L 320.66929 278.735599 
L 319.66929 278.768365 
L 318.66929 278.835791 
L 317.66929 278.874917 
L 316.66929 278.917591 
L 315.66929 278.988172 
L 314.66929 279.024563 
L 313.66929 279.082966 
L 312.66929 279.193919 
L 311.66929 279.264577 
L 310.66929 279.377517 
L 309.66929 279.42329 
L 308.66929 279.484573 
L 307.66929 279.533072 
L 306.66929 279.613895 
L 305.66929 279.732414 
L 304.66929 279.802624 
L 303.66929 279.885887 
L 302.66929 279.919029 
L 301.66929 279.970266 
L 300.66929 280.038664 
L 299.66929 280.10488 
L 298.66929 280.181797 
L 297.66929 280.209112 
L 296.66929 280.23559 
L 295.66929 280.258241 
L 294.66929 280.277772 
L 293.66929 280.304166 
L 292.66929 280.353937 
L 291.66929 280.38901 
L 290.11196 280.424875 
" clip-path="url(#pf5dc46ec77)" style="fill: none; stroke: #ff7f0e; stroke-opacity: 0.5; stroke-width: 0.2; stroke-linecap: square"/>
   <path d="M 353.66929 221.472387 
L 352.66929 221.44095 
L 351.66929 221.40401 
L 350.66929 221.306263 
L 349.66929 221.273742 
L 348.66929 221.200117 
L 347.66929 221.161552 
L 346.66929 221.126138 
L 345.66929 221.068498 
L 344.66929 220.998112 
L 343.66929 220.946148 
L 342.66929 220.887058 
L 341.66929 220.798737 
L 340.66929 220.752593 
L 339.66929 220.710182 
L 338.66929 220.679689 
L 337.66929 220.653644 
L 336.66929 220.632444 
L 335.66929 220.578143 
L 334.66929 220.550206 
L 333.66929 220.520482 
L 332.66929 220.495087 
L 331.66929 220.483887 
L 330.66929 220.473763 
L 329.66929 220.473967 
L 328.66929 220.483477 
L 327.66929 220.49513 
L 326.66929 220.52616 
L 325.66929 220.537328 
L 324.66929 220.567445 
L 323.66929 220.627222 
L 322.66929 220.664414 
L 321.66929 220.70351 
L 320.66929 220.745949 
L 319.66929 220.778714 
L 318.66929 220.846141 
L 317.66929 220.885267 
L 316.66929 220.927941 
L 315.66929 220.998522 
L 314.66929 221.034913 
L 313.66929 221.093316 
L 312.66929 221.204269 
L 311.66929 221.274927 
L 310.66929 221.387867 
L 309.66929 221.43364 
L 308.66929 221.494923 
L 307.66929 221.543422 
L 306.66929 221.624245 
L 305.66929 221.742764 
L 304.66929 221.812974 
L 303.66929 221.896237 
L 302.66929 221.929379 
L 301.66929 221.980616 
L 300.66929 222.049014 
L 299.66929 222.11523 
L 298.66929 222.192147 
L 297.66929 222.219462 
L 296.66929 222.24594 
L 295.66929 222.26859 
L 294.66929 222.288122 
L 293.66929 222.314516 
L 292.66929 222.364286 
L 291.66929 222.39936 
L 290.11196 222.435225 
" clip-path="url(#pf5dc46ec77)" style="fill: none; stroke: #ff7f0e; stroke-opacity: 0.5; stroke-width: 0.2; stroke-linecap: square"/>
   <path d="M 353.66929 258.148599 
L 352.66929 258.117163 
L 351.66929 258.080222 
L 350.66929 257.982476 
L 349.66929 257.949954 
L 348.66929 257.87633 
L 347.66929 257.837764 
L 346.66929 257.802351 
L 345.66929 257.744711 
L 344.66929 257.674325 
L 343.66929 257.622361 
L 342.66929 257.563271 
L 341.66929 257.47495 
L 340.66929 257.428806 
L 339.66929 257.386395 
L 338.66929 257.355902 
L 337.66929 257.329857 
L 336.66929 257.308657 
L 335.66929 257.254356 
L 334.66929 257.226418 
L 333.66929 257.196694 
L 332.66929 257.171299 
L 331.66929 257.160099 
L 330.66929 257.149975 
L 329.66929 257.150179 
L 328.66929 257.159689 
L 327.66929 257.171343 
L 326.66929 257.202372 
L 325.66929 257.21354 
L 324.66929 257.243658 
L 323.66929 257.303434 
L 322.66929 257.340626 
L 321.66929 257.379722 
L 320.66929 257.422162 
L 319.66929 257.454927 
L 318.66929 257.522353 
L 317.66929 257.561479 
L 316.66929 257.604154 
L 315.66929 257.674734 
L 314.66929 257.711125 
L 313.66929 257.769528 
L 312.66929 257.880481 
L 311.66929 257.951139 
L 310.66929 258.064079 
L 309.66929 258.109852 
L 308.66929 258.171135 
L 307.66929 258.219635 
L 306.66929 258.300457 
L 305.66929 258.418976 
L 304.66929 258.489187 
L 303.66929 258.572449 
L 302.66929 258.605591 
L 301.66929 258.656828 
L 300.66929 258.725227 
L 299.66929 258.791442 
L 298.66929 258.868359 
L 297.66929 258.895675 
L 296.66929 258.922152 
L 295.66929 258.944803 
L 294.66929 258.964334 
L 293.66929 258.990728 
L 292.66929 259.040499 
L 291.66929 259.075572 
L 290.11196 259.111438 
" clip-path="url(#pf5dc46ec77)" style="fill: none; stroke: #ff7f0e; stroke-opacity: 0.5; stroke-width: 0.2; stroke-linecap: square"/>
   <path d="M 353.66929 239.443934 
L 352.66929 239.412497 
L 351.66929 239.375557 
L 350.66929 239.27781 
L 349.66929 239.245289 
L 348.66929 239.171664 
L 347.66929 239.133099 
L 346.66929 239.097685 
L 345.66929 239.040046 
L 344.66929 238.969659 
L 343.66929 238.917695 
L 342.66929 238.858605 
L 341.66929 238.770284 
L 340.66929 238.72414 
L 339.66929 238.681729 
L 338.66929 238.651236 
L 337.66929 238.625192 
L 336.66929 238.603991 
L 335.66929 238.54969 
L 334.66929 238.521753 
L 333.66929 238.492029 
L 332.66929 238.466634 
L 331.66929 238.455434 
L 330.66929 238.44531 
L 329.66929 238.445514 
L 328.66929 238.455024 
L 327.66929 238.466677 
L 326.66929 238.497707 
L 325.66929 238.508875 
L 324.66929 238.538992 
L 323.66929 238.598769 
L 322.66929 238.635961 
L 321.66929 238.675057 
L 320.66929 238.717496 
L 319.66929 238.750261 
L 318.66929 238.817688 
L 317.66929 238.856814 
L 316.66929 238.899488 
L 315.66929 238.970069 
L 314.66929 239.00646 
L 313.66929 239.064863 
L 312.66929 239.175816 
L 311.66929 239.246474 
L 310.66929 239.359414 
L 309.66929 239.405187 
L 308.66929 239.46647 
L 307.66929 239.514969 
L 306.66929 239.595792 
L 305.66929 239.714311 
L 304.66929 239.784521 
L 303.66929 239.867784 
L 302.66929 239.900926 
L 301.66929 239.952163 
L 300.66929 240.020561 
L 299.66929 240.086777 
L 298.66929 240.163694 
L 297.66929 240.191009 
L 296.66929 240.217487 
L 295.66929 240.240137 
L 294.66929 240.259669 
L 293.66929 240.286063 
L 292.66929 240.335834 
L 291.66929 240.370907 
L 290.11196 240.406772 
" clip-path="url(#pf5dc46ec77)" style="fill: none; stroke: #ff7f0e; stroke-opacity: 0.5; stroke-width: 0.2; stroke-linecap: square"/>
   <path d="M 353.66929 275.728029 
L 352.66929 275.696593 
L 351.66929 275.659653 
L 350.66929 275.561906 
L 349.66929 275.529385 
L 348.66929 275.45576 
L 347.66929 275.417194 
L 346.66929 275.381781 
L 345.66929 275.324141 
L 344.66929 275.253755 
L 343.66929 275.201791 
L 342.66929 275.142701 
L 341.66929 275.05438 
L 340.66929 275.008236 
L 339.66929 274.965825 
L 338.66929 274.935332 
L 337.66929 274.909287 
L 336.66929 274.888087 
L 335.66929 274.833786 
L 334.66929 274.805848 
L 333.66929 274.776124 
L 332.66929 274.75073 
L 331.66929 274.739529 
L 330.66929 274.729405 
L 329.66929 274.72961 
L 328.66929 274.73912 
L 327.66929 274.750773 
L 326.66929 274.781802 
L 325.66929 274.79297 
L 324.66929 274.823088 
L 323.66929 274.882865 
L 322.66929 274.920056 
L 321.66929 274.959152 
L 320.66929 275.001592 
L 319.66929 275.034357 
L 318.66929 275.101784 
L 317.66929 275.14091 
L 316.66929 275.183584 
L 315.66929 275.254165 
L 314.66929 275.290556 
L 313.66929 275.348959 
L 312.66929 275.459911 
L 311.66929 275.53057 
L 310.66929 275.643509 
L 309.66929 275.689282 
L 308.66929 275.750566 
L 307.66929 275.799065 
L 306.66929 275.879888 
L 305.66929 275.998406 
L 304.66929 276.068617 
L 303.66929 276.15188 
L 302.66929 276.185021 
L 301.66929 276.236259 
L 300.66929 276.304657 
L 299.66929 276.370872 
L 298.66929 276.44779 
L 297.66929 276.475105 
L 296.66929 276.501583 
L 295.66929 276.524233 
L 294.66929 276.543764 
L 293.66929 276.570158 
L 292.66929 276.619929 
L 291.66929 276.655002 
L 290.11196 276.690868 
" clip-path="url(#pf5dc46ec77)" style="fill: none; stroke: #ff7f0e; stroke-opacity: 0.5; stroke-width: 0.2; stroke-linecap: square"/>
   <path d="M 290.11196 219.270292 
L 291.11196 219.301728 
L 292.11196 219.338668 
L 293.11196 219.436415 
L 294.11196 219.468936 
L 295.11196 219.542561 
L 296.11196 219.581127 
L 297.11196 219.61654 
L 298.11196 219.67418 
L 299.11196 219.744566 
L 300.11196 219.79653 
L 301.11196 219.85562 
L 302.11196 219.943941 
L 303.11196 219.990085 
L 304.11196 220.032496 
L 305.11196 220.062989 
L 306.11196 220.089034 
L 307.11196 220.110234 
L 308.11196 220.164535 
L 309.11196 220.192473 
L 310.11196 220.222197 
L 311.11196 220.247591 
L 312.11196 220.258792 
L 313.11196 220.268916 
L 314.11196 220.268711 
L 315.11196 220.259202 
L 316.11196 220.247548 
L 317.11196 220.216519 
L 318.11196 220.205351 
L 319.11196 220.175233 
L 320.11196 220.115456 
L 321.11196 220.078265 
L 322.11196 220.039169 
L 323.11196 219.996729 
L 324.11196 219.963964 
L 325.11196 219.896537 
L 326.11196 219.857412 
L 327.11196 219.814737 
L 328.11196 219.744156 
L 329.11196 219.707766 
L 330.11196 219.649362 
L 331.11196 219.53841 
L 332.11196 219.467751 
L 333.11196 219.354812 
L 334.11196 219.309039 
L 335.11196 219.247756 
L 336.11196 219.199256 
L 337.11196 219.118434 
L 338.11196 218.999915 
L 339.11196 218.929704 
L 340.11196 218.846441 
L 341.11196 218.8133 
L 342.11196 218.762062 
L 343.11196 218.693664 
L 344.11196 218.627449 
L 345.11196 218.550532 
L 346.11196 218.523216 
L 347.11196 218.496739 
L 348.11196 218.474088 
L 349.11196 218.454557 
L 350.11196 218.428163 
L 351.11196 218.378392 
L 352.11196 218.343319 
L 353.66929 218.307453 
" clip-path="url(#pf5dc46ec77)" style="fill: none; stroke: #1f77b4; stroke-opacity: 0.5; stroke-width: 0.2; stroke-linecap: square"/>
   <path d="M 290.11196 251.706217 
L 291.11196 251.737654 
L 292.11196 251.774594 
L 293.11196 251.872341 
L 294.11196 251.904862 
L 295.11196 251.978487 
L 296.11196 252.017053 
L 297.11196 252.052466 
L 298.11196 252.110106 
L 299.11196 252.180492 
L 300.11196 252.232456 
L 301.11196 252.291546 
L 302.11196 252.379867 
L 303.11196 252.426011 
L 304.11196 252.468422 
L 305.11196 252.498915 
L 306.11196 252.52496 
L 307.11196 252.54616 
L 308.11196 252.600461 
L 309.11196 252.628398 
L 310.11196 252.658122 
L 311.11196 252.683517 
L 312.11196 252.694718 
L 313.11196 252.704841 
L 314.11196 252.704637 
L 315.11196 252.695127 
L 316.11196 252.683474 
L 317.11196 252.652444 
L 318.11196 252.641277 
L 319.11196 252.611159 
L 320.11196 252.551382 
L 321.11196 252.514191 
L 322.11196 252.475094 
L 323.11196 252.432655 
L 324.11196 252.39989 
L 325.11196 252.332463 
L 326.11196 252.293337 
L 327.11196 252.250663 
L 328.11196 252.180082 
L 329.11196 252.143691 
L 330.11196 252.085288 
L 331.11196 251.974336 
L 332.11196 251.903677 
L 333.11196 251.790737 
L 334.11196 251.744965 
L 335.11196 251.683681 
L 336.11196 251.635182 
L 337.11196 251.554359 
L 338.11196 251.43584 
L 339.11196 251.36563 
L 340.11196 251.282367 
L 341.11196 251.249225 
L 342.11196 251.197988 
L 343.11196 251.12959 
L 344.11196 251.063374 
L 345.11196 250.986457 
L 346.11196 250.959142 
L 347.11196 250.932664 
L 348.11196 250.910014 
L 349.11196 250.890482 
L 350.11196 250.864088 
L 351.11196 250.814318 
L 352.11196 250.779244 
L 353.66929 250.743379 
" clip-path="url(#pf5dc46ec77)" style="fill: none; stroke: #1f77b4; stroke-opacity: 0.5; stroke-width: 0.2; stroke-linecap: square"/>
   <path d="M 290.11196 268.444296 
L 291.11196 268.475733 
L 292.11196 268.512673 
L 293.11196 268.61042 
L 294.11196 268.642941 
L 295.11196 268.716566 
L 296.11196 268.755132 
L 297.11196 268.790545 
L 298.11196 268.848185 
L 299.11196 268.918571 
L 300.11196 268.970535 
L 301.11196 269.029625 
L 302.11196 269.117946 
L 303.11196 269.16409 
L 304.11196 269.206501 
L 305.11196 269.236994 
L 306.11196 269.263039 
L 307.11196 269.284239 
L 308.11196 269.33854 
L 309.11196 269.366477 
L 310.11196 269.396201 
L 311.11196 269.421596 
L 312.11196 269.432797 
L 313.11196 269.442921 
L 314.11196 269.442716 
L 315.11196 269.433206 
L 316.11196 269.421553 
L 317.11196 269.390524 
L 318.11196 269.379356 
L 319.11196 269.349238 
L 320.11196 269.289461 
L 321.11196 269.25227 
L 322.11196 269.213174 
L 323.11196 269.170734 
L 324.11196 269.137969 
L 325.11196 269.070542 
L 326.11196 269.031416 
L 327.11196 268.988742 
L 328.11196 268.918161 
L 329.11196 268.88177 
L 330.11196 268.823367 
L 331.11196 268.712415 
L 332.11196 268.641756 
L 333.11196 268.528817 
L 334.11196 268.483044 
L 335.11196 268.42176 
L 336.11196 268.373261 
L 337.11196 268.292438 
L 338.11196 268.173919 
L 339.11196 268.103709 
L 340.11196 268.020446 
L 341.11196 267.987305 
L 342.11196 267.936067 
L 343.11196 267.867669 
L 344.11196 267.801453 
L 345.11196 267.724536 
L 346.11196 267.697221 
L 347.11196 267.670743 
L 348.11196 267.648093 
L 349.11196 267.628562 
L 350.11196 267.602168 
L 351.11196 267.552397 
L 352.11196 267.517324 
L 353.66929 267.481458 
" clip-path="url(#pf5dc46ec77)" style="fill: none; stroke: #1f77b4; stroke-opacity: 0.5; stroke-width: 0.2; stroke-linecap: square"/>
   <path d="M 290.11196 309.850144 
L 291.11196 309.88158 
L 292.11196 309.918521 
L 293.11196 310.016267 
L 294.11196 310.048789 
L 295.11196 310.122414 
L 296.11196 310.160979 
L 297.11196 310.196392 
L 298.11196 310.254032 
L 299.11196 310.324418 
L 300.11196 310.376383 
L 301.11196 310.435472 
L 302.11196 310.523793 
L 303.11196 310.569938 
L 304.11196 310.612349 
L 305.11196 310.642841 
L 306.11196 310.668886 
L 307.11196 310.690086 
L 308.11196 310.744387 
L 309.11196 310.772325 
L 310.11196 310.802049 
L 311.11196 310.827444 
L 312.11196 310.838644 
L 313.11196 310.848768 
L 314.11196 310.848564 
L 315.11196 310.839054 
L 316.11196 310.8274 
L 317.11196 310.796371 
L 318.11196 310.785203 
L 319.11196 310.755086 
L 320.11196 310.695309 
L 321.11196 310.658117 
L 322.11196 310.619021 
L 323.11196 310.576581 
L 324.11196 310.543816 
L 325.11196 310.47639 
L 326.11196 310.437264 
L 327.11196 310.394589 
L 328.11196 310.324009 
L 329.11196 310.287618 
L 330.11196 310.229215 
L 331.11196 310.118262 
L 332.11196 310.047604 
L 333.11196 309.934664 
L 334.11196 309.888891 
L 335.11196 309.827608 
L 336.11196 309.779109 
L 337.11196 309.698286 
L 338.11196 309.579767 
L 339.11196 309.509556 
L 340.11196 309.426294 
L 341.11196 309.393152 
L 342.11196 309.341915 
L 343.11196 309.273516 
L 344.11196 309.207301 
L 345.11196 309.130384 
L 346.11196 309.103068 
L 347.11196 309.076591 
L 348.11196 309.05394 
L 349.11196 309.034409 
L 350.11196 309.008015 
L 351.11196 308.958244 
L 352.11196 308.923171 
L 353.66929 308.887305 
" clip-path="url(#pf5dc46ec77)" style="fill: none; stroke: #1f77b4; stroke-opacity: 0.5; stroke-width: 0.2; stroke-linecap: square"/>
   <path d="M 290.11196 228.405353 
L 291.11196 228.43679 
L 292.11196 228.47373 
L 293.11196 228.571477 
L 294.11196 228.603998 
L 295.11196 228.677623 
L 296.11196 228.716189 
L 297.11196 228.751602 
L 298.11196 228.809242 
L 299.11196 228.879628 
L 300.11196 228.931592 
L 301.11196 228.990682 
L 302.11196 229.079003 
L 303.11196 229.125147 
L 304.11196 229.167558 
L 305.11196 229.198051 
L 306.11196 229.224096 
L 307.11196 229.245296 
L 308.11196 229.299597 
L 309.11196 229.327534 
L 310.11196 229.357258 
L 311.11196 229.382653 
L 312.11196 229.393854 
L 313.11196 229.403978 
L 314.11196 229.403773 
L 315.11196 229.394263 
L 316.11196 229.38261 
L 317.11196 229.35158 
L 318.11196 229.340413 
L 319.11196 229.310295 
L 320.11196 229.250518 
L 321.11196 229.213327 
L 322.11196 229.17423 
L 323.11196 229.131791 
L 324.11196 229.099026 
L 325.11196 229.031599 
L 326.11196 228.992473 
L 327.11196 228.949799 
L 328.11196 228.879218 
L 329.11196 228.842827 
L 330.11196 228.784424 
L 331.11196 228.673472 
L 332.11196 228.602813 
L 333.11196 228.489873 
L 334.11196 228.444101 
L 335.11196 228.382817 
L 336.11196 228.334318 
L 337.11196 228.253495 
L 338.11196 228.134976 
L 339.11196 228.064766 
L 340.11196 227.981503 
L 341.11196 227.948362 
L 342.11196 227.897124 
L 343.11196 227.828726 
L 344.11196 227.76251 
L 345.11196 227.685593 
L 346.11196 227.658278 
L 347.11196 227.6318 
L 348.11196 227.60915 
L 349.11196 227.589618 
L 350.11196 227.563224 
L 351.11196 227.513454 
L 352.11196 227.47838 
L 353.66929 227.442515 
" clip-path="url(#pf5dc46ec77)" style="fill: none; stroke: #1f77b4; stroke-opacity: 0.5; stroke-width: 0.2; stroke-linecap: square"/>
   <path d="M 290.11196 222.450601 
L 291.11196 222.482038 
L 292.11196 222.518978 
L 293.11196 222.616725 
L 294.11196 222.649246 
L 295.11196 222.722871 
L 296.11196 222.761436 
L 297.11196 222.79685 
L 298.11196 222.85449 
L 299.11196 222.924876 
L 300.11196 222.97684 
L 301.11196 223.03593 
L 302.11196 223.124251 
L 303.11196 223.170395 
L 304.11196 223.212806 
L 305.11196 223.243299 
L 306.11196 223.269344 
L 307.11196 223.290544 
L 308.11196 223.344845 
L 309.11196 223.372782 
L 310.11196 223.402506 
L 311.11196 223.427901 
L 312.11196 223.439101 
L 313.11196 223.449225 
L 314.11196 223.449021 
L 315.11196 223.439511 
L 316.11196 223.427858 
L 317.11196 223.396828 
L 318.11196 223.38566 
L 319.11196 223.355543 
L 320.11196 223.295766 
L 321.11196 223.258574 
L 322.11196 223.219478 
L 323.11196 223.177039 
L 324.11196 223.144274 
L 325.11196 223.076847 
L 326.11196 223.037721 
L 327.11196 222.995047 
L 328.11196 222.924466 
L 329.11196 222.888075 
L 330.11196 222.829672 
L 331.11196 222.718719 
L 332.11196 222.648061 
L 333.11196 222.535121 
L 334.11196 222.489348 
L 335.11196 222.428065 
L 336.11196 222.379566 
L 337.11196 222.298743 
L 338.11196 222.180224 
L 339.11196 222.110014 
L 340.11196 222.026751 
L 341.11196 221.993609 
L 342.11196 221.942372 
L 343.11196 221.873974 
L 344.11196 221.807758 
L 345.11196 221.730841 
L 346.11196 221.703526 
L 347.11196 221.677048 
L 348.11196 221.654398 
L 349.11196 221.634866 
L 350.11196 221.608472 
L 351.11196 221.558701 
L 352.11196 221.523628 
L 353.66929 221.487763 
" clip-path="url(#pf5dc46ec77)" style="fill: none; stroke: #1f77b4; stroke-opacity: 0.5; stroke-width: 0.2; stroke-linecap: square"/>
   <path d="M 290.11196 288.990997 
L 291.11196 289.022434 
L 292.11196 289.059374 
L 293.11196 289.157121 
L 294.11196 289.189642 
L 295.11196 289.263267 
L 296.11196 289.301833 
L 297.11196 289.337246 
L 298.11196 289.394886 
L 299.11196 289.465272 
L 300.11196 289.517236 
L 301.11196 289.576326 
L 302.11196 289.664647 
L 303.11196 289.710791 
L 304.11196 289.753202 
L 305.11196 289.783695 
L 306.11196 289.80974 
L 307.11196 289.83094 
L 308.11196 289.885241 
L 309.11196 289.913178 
L 310.11196 289.942902 
L 311.11196 289.968297 
L 312.11196 289.979498 
L 313.11196 289.989621 
L 314.11196 289.989417 
L 315.11196 289.979907 
L 316.11196 289.968254 
L 317.11196 289.937224 
L 318.11196 289.926057 
L 319.11196 289.895939 
L 320.11196 289.836162 
L 321.11196 289.798971 
L 322.11196 289.759874 
L 323.11196 289.717435 
L 324.11196 289.68467 
L 325.11196 289.617243 
L 326.11196 289.578117 
L 327.11196 289.535443 
L 328.11196 289.464862 
L 329.11196 289.428471 
L 330.11196 289.370068 
L 331.11196 289.259116 
L 332.11196 289.188457 
L 333.11196 289.075517 
L 334.11196 289.029745 
L 335.11196 288.968461 
L 336.11196 288.919962 
L 337.11196 288.839139 
L 338.11196 288.72062 
L 339.11196 288.65041 
L 340.11196 288.567147 
L 341.11196 288.534005 
L 342.11196 288.482768 
L 343.11196 288.41437 
L 344.11196 288.348154 
L 345.11196 288.271237 
L 346.11196 288.243922 
L 347.11196 288.217444 
L 348.11196 288.194794 
L 349.11196 288.175262 
L 350.11196 288.148868 
L 351.11196 288.099098 
L 352.11196 288.064024 
L 353.66929 288.028159 
" clip-path="url(#pf5dc46ec77)" style="fill: none; stroke: #1f77b4; stroke-opacity: 0.5; stroke-width: 0.2; stroke-linecap: square"/>
   <path d="M 290.11196 257.208795 
L 291.11196 257.240231 
L 292.11196 257.277172 
L 293.11196 257.374918 
L 294.11196 257.40744 
L 295.11196 257.481064 
L 296.11196 257.51963 
L 297.11196 257.555043 
L 298.11196 257.612683 
L 299.11196 257.683069 
L 300.11196 257.735033 
L 301.11196 257.794123 
L 302.11196 257.882444 
L 303.11196 257.928588 
L 304.11196 257.970999 
L 305.11196 258.001492 
L 306.11196 258.027537 
L 307.11196 258.048737 
L 308.11196 258.103038 
L 309.11196 258.130976 
L 310.11196 258.1607 
L 311.11196 258.186095 
L 312.11196 258.197295 
L 313.11196 258.207419 
L 314.11196 258.207215 
L 315.11196 258.197705 
L 316.11196 258.186051 
L 317.11196 258.155022 
L 318.11196 258.143854 
L 319.11196 258.113736 
L 320.11196 258.053959 
L 321.11196 258.016768 
L 322.11196 257.977672 
L 323.11196 257.935232 
L 324.11196 257.902467 
L 325.11196 257.835041 
L 326.11196 257.795915 
L 327.11196 257.75324 
L 328.11196 257.68266 
L 329.11196 257.646269 
L 330.11196 257.587866 
L 331.11196 257.476913 
L 332.11196 257.406255 
L 333.11196 257.293315 
L 334.11196 257.247542 
L 335.11196 257.186259 
L 336.11196 257.137759 
L 337.11196 257.056937 
L 338.11196 256.938418 
L 339.11196 256.868207 
L 340.11196 256.784945 
L 341.11196 256.751803 
L 342.11196 256.700566 
L 343.11196 256.632167 
L 344.11196 256.565952 
L 345.11196 256.489035 
L 346.11196 256.461719 
L 347.11196 256.435242 
L 348.11196 256.412591 
L 349.11196 256.39306 
L 350.11196 256.366666 
L 351.11196 256.316895 
L 352.11196 256.281822 
L 353.66929 256.245956 
" clip-path="url(#pf5dc46ec77)" style="fill: none; stroke: #1f77b4; stroke-opacity: 0.5; stroke-width: 0.2; stroke-linecap: square"/>
   <path d="M 290.11196 243.049376 
L 291.11196 243.080812 
L 292.11196 243.117752 
L 293.11196 243.215499 
L 294.11196 243.24802 
L 295.11196 243.321645 
L 296.11196 243.360211 
L 297.11196 243.395624 
L 298.11196 243.453264 
L 299.11196 243.52365 
L 300.11196 243.575614 
L 301.11196 243.634704 
L 302.11196 243.723025 
L 303.11196 243.769169 
L 304.11196 243.81158 
L 305.11196 243.842073 
L 306.11196 243.868118 
L 307.11196 243.889318 
L 308.11196 243.943619 
L 309.11196 243.971557 
L 310.11196 244.001281 
L 311.11196 244.026675 
L 312.11196 244.037876 
L 313.11196 244.048 
L 314.11196 244.047795 
L 315.11196 244.038286 
L 316.11196 244.026632 
L 317.11196 243.995603 
L 318.11196 243.984435 
L 319.11196 243.954317 
L 320.11196 243.89454 
L 321.11196 243.857349 
L 322.11196 243.818253 
L 323.11196 243.775813 
L 324.11196 243.743048 
L 325.11196 243.675621 
L 326.11196 243.636496 
L 327.11196 243.593821 
L 328.11196 243.52324 
L 329.11196 243.48685 
L 330.11196 243.428446 
L 331.11196 243.317494 
L 332.11196 243.246835 
L 333.11196 243.133896 
L 334.11196 243.088123 
L 335.11196 243.02684 
L 336.11196 242.97834 
L 337.11196 242.897517 
L 338.11196 242.778999 
L 339.11196 242.708788 
L 340.11196 242.625525 
L 341.11196 242.592384 
L 342.11196 242.541146 
L 343.11196 242.472748 
L 344.11196 242.406533 
L 345.11196 242.329616 
L 346.11196 242.3023 
L 347.11196 242.275823 
L 348.11196 242.253172 
L 349.11196 242.233641 
L 350.11196 242.207247 
L 351.11196 242.157476 
L 352.11196 242.122403 
L 353.66929 242.086537 
" clip-path="url(#pf5dc46ec77)" style="fill: none; stroke: #1f77b4; stroke-opacity: 0.5; stroke-width: 0.2; stroke-linecap: square"/>
   <path d="M 290.11196 292.573627 
L 291.11196 292.605063 
L 292.11196 292.642004 
L 293.11196 292.73975 
L 294.11196 292.772272 
L 295.11196 292.845897 
L 296.11196 292.884462 
L 297.11196 292.919875 
L 298.11196 292.977515 
L 299.11196 293.047901 
L 300.11196 293.099866 
L 301.11196 293.158955 
L 302.11196 293.247276 
L 303.11196 293.293421 
L 304.11196 293.335832 
L 305.11196 293.366324 
L 306.11196 293.392369 
L 307.11196 293.413569 
L 308.11196 293.46787 
L 309.11196 293.495808 
L 310.11196 293.525532 
L 311.11196 293.550927 
L 312.11196 293.562127 
L 313.11196 293.572251 
L 314.11196 293.572047 
L 315.11196 293.562537 
L 316.11196 293.550883 
L 317.11196 293.519854 
L 318.11196 293.508686 
L 319.11196 293.478569 
L 320.11196 293.418792 
L 321.11196 293.3816 
L 322.11196 293.342504 
L 323.11196 293.300064 
L 324.11196 293.267299 
L 325.11196 293.199873 
L 326.11196 293.160747 
L 327.11196 293.118072 
L 328.11196 293.047492 
L 329.11196 293.011101 
L 330.11196 292.952698 
L 331.11196 292.841745 
L 332.11196 292.771087 
L 333.11196 292.658147 
L 334.11196 292.612374 
L 335.11196 292.551091 
L 336.11196 292.502592 
L 337.11196 292.421769 
L 338.11196 292.30325 
L 339.11196 292.233039 
L 340.11196 292.149777 
L 341.11196 292.116635 
L 342.11196 292.065398 
L 343.11196 291.996999 
L 344.11196 291.930784 
L 345.11196 291.853867 
L 346.11196 291.826551 
L 347.11196 291.800074 
L 348.11196 291.777423 
L 349.11196 291.757892 
L 350.11196 291.731498 
L 351.11196 291.681727 
L 352.11196 291.646654 
L 353.66929 291.610788 
" clip-path="url(#pf5dc46ec77)" style="fill: none; stroke: #1f77b4; stroke-opacity: 0.5; stroke-width: 0.2; stroke-linecap: square"/>
   <g id="patch_3">
    <path d="M 69.06392 22.318125 
L 69.06392 318.021875 
M 284.549772 22.318125 
L 284.549772 318.021875 
" clip-path="url(#pf5dc46ec77)" style="fill: none; stroke: #ffffff; stroke-width: 3; stroke-linejoin: miter"/>
    <path d="M 69.06392 22.318125 
L 69.06392 318.021875 
M 284.549772 22.318125 
L 284.549772 318.021875 
" clip-path="url(#pf5dc46ec77)" style="fill: none; stroke: #1f77b4; stroke-linejoin: miter"/>
    <g id="PolyCollection_1">
     <path d="M 284.549772 22.318125 
L 69.06392 22.318125 
L 69.06392 318.021875 
L 284.549772 318.021875 
L 284.549772 318.021875 
L 284.549772 22.318125 
z
" clip-path="url(#pf5dc46ec77)" style="fill: #1f77b4; fill-opacity: 0.5"/>
    </g>
    <g id="patch_4">
     <path d="M 359.231478 22.318125 
L 359.231478 318.021875 
M 574.71733 22.318125 
L 574.71733 318.021875 
" clip-path="url(#pf5dc46ec77)" style="fill: none; stroke: #ffffff; stroke-width: 3; stroke-linejoin: miter"/>
     <path d="M 359.231478 22.318125 
L 359.231478 318.021875 
M 574.71733 22.318125 
L 574.71733 318.021875 
" clip-path="url(#pf5dc46ec77)" style="fill: none; stroke: #ff7f0e; stroke-linejoin: miter"/>
     <g id="PolyCollection_2">
      <path d="M 574.71733 22.318125 
L 359.231478 22.318125 
L 359.231478 318.021875 
L 574.71733 318.021875 
L 574.71733 318.021875 
L 574.71733 22.318125 
z
" clip-path="url(#pf5dc46ec77)" style="fill: #ff7f0e; fill-opacity: 0.5"/>
     </g>
     <g id="matplotlib.axis_1">
      <g id="xtick_1">
       <g id="line2d_1"/>
       <g id="text_1">
        <!-- deme0 -->
        <g transform="translate(159.42794 329.120312) scale(0.1 -0.1)">
         <defs>
          <path id="DejaVuSans-64" d="M 2906 2969 
L 2906 4863 
L 3481 4863 
L 3481 0 
L 2906 0 
L 2906 525 
Q 2725 213 2448 61 
Q 2172 -91 1784 -91 
Q 1150 -91 751 415 
Q 353 922 353 1747 
Q 353 2572 751 3078 
Q 1150 3584 1784 3584 
Q 2172 3584 2448 3432 
Q 2725 3281 2906 2969 
z
M 947 1747 
Q 947 1113 1208 752 
Q 1469 391 1925 391 
Q 2381 391 2643 752 
Q 2906 1113 2906 1747 
Q 2906 2381 2643 2742 
Q 2381 3103 1925 3103 
Q 1469 3103 1208 2742 
Q 947 2381 947 1747 
z
" transform="scale(0.015625)"/>
          <path id="DejaVuSans-65" d="M 3597 1894 
L 3597 1613 
L 953 1613 
Q 991 1019 1311 708 
Q 1631 397 2203 397 
Q 2534 397 2845 478 
Q 3156 559 3463 722 
L 3463 178 
Q 3153 47 2828 -22 
Q 2503 -91 2169 -91 
Q 1331 -91 842 396 
Q 353 884 353 1716 
Q 353 2575 817 3079 
Q 1281 3584 2069 3584 
Q 2775 3584 3186 3129 
Q 3597 2675 3597 1894 
z
M 3022 2063 
Q 3016 2534 2758 2815 
Q 2500 3097 2075 3097 
Q 1594 3097 1305 2825 
Q 1016 2553 972 2059 
L 3022 2063 
z
" transform="scale(0.015625)"/>
          <path id="DejaVuSans-6d" d="M 3328 2828 
Q 3544 3216 3844 3400 
Q 4144 3584 4550 3584 
Q 5097 3584 5394 3201 
Q 5691 2819 5691 2113 
L 5691 0 
L 5113 0 
L 5113 2094 
Q 5113 2597 4934 2840 
Q 4756 3084 4391 3084 
Q 3944 3084 3684 2787 
Q 3425 2491 3425 1978 
L 3425 0 
L 2847 0 
L 2847 2094 
Q 2847 2600 2669 2842 
Q 2491 3084 2119 3084 
Q 1678 3084 1418 2786 
Q 1159 2488 1159 1978 
L 1159 0 
L 581 0 
L 581 3500 
L 1159 3500 
L 1159 2956 
Q 1356 3278 1631 3431 
Q 1906 3584 2284 3584 
Q 2666 3584 2933 3390 
Q 3200 3197 3328 2828 
z
" transform="scale(0.015625)"/>
          <path id="DejaVuSans-30" d="M 2034 4250 
Q 1547 4250 1301 3770 
Q 1056 3291 1056 2328 
Q 1056 1369 1301 889 
Q 1547 409 2034 409 
Q 2525 409 2770 889 
Q 3016 1369 3016 2328 
Q 3016 3291 2770 3770 
Q 2525 4250 2034 4250 
z
M 2034 4750 
Q 2819 4750 3233 4129 
Q 3647 3509 3647 2328 
Q 3647 1150 3233 529 
Q 2819 -91 2034 -91 
Q 1250 -91 836 529 
Q 422 1150 422 2328 
Q 422 3509 836 4129 
Q 1250 4750 2034 4750 
z
" transform="scale(0.015625)"/>
         </defs>
         <use xlink:href="#DejaVuSans-64"/>
         <use xlink:href="#DejaVuSans-65" x="63.476562"/>
         <use xlink:href="#DejaVuSans-6d" x="125"/>
         <use xlink:href="#DejaVuSans-65" x="222.412109"/>
         <use xlink:href="#DejaVuSans-30" x="283.935547"/>
        </g>
       </g>
      </g>
      <g id="xtick_2">
       <g id="line2d_2"/>
       <g id="text_2">
        <!-- deme1 -->
        <g transform="translate(449.595497 329.120312) scale(0.1 -0.1)">
         <defs>
          <path id="DejaVuSans-31" d="M 794 531 
L 1825 531 
L 1825 4091 
L 703 3866 
L 703 4441 
L 1819 4666 
L 2450 4666 
L 2450 531 
L 3481 531 
L 3481 0 
L 794 0 
L 794 531 
z
" transform="scale(0.015625)"/>
         </defs>
         <use xlink:href="#DejaVuSans-64"/>
         <use xlink:href="#DejaVuSans-65" x="63.476562"/>
         <use xlink:href="#DejaVuSans-6d" x="125"/>
         <use xlink:href="#DejaVuSans-65" x="222.412109"/>
         <use xlink:href="#DejaVuSans-31" x="283.935547"/>
        </g>
       </g>
      </g>
     </g>
     <g id="matplotlib.axis_2">
      <g id="ytick_1">
       <g id="line2d_3">
        <defs>
         <path id="m3a5eceb786" d="M 0 0 
L -3.5 0 
" style="stroke: #000000; stroke-width: 0.8"/>
        </defs>
        <g>
         <use xlink:href="#m3a5eceb786" x="43.78125" y="318.021875" style="stroke: #000000; stroke-width: 0.8"/>
        </g>
       </g>
       <g id="text_3">
        <!-- 0.0 -->
        <g transform="translate(20.878125 321.821094) scale(0.1 -0.1)">
         <defs>
          <path id="DejaVuSans-2e" d="M 684 794 
L 1344 794 
L 1344 0 
L 684 0 
L 684 794 
z
" transform="scale(0.015625)"/>
         </defs>
         <use xlink:href="#DejaVuSans-30"/>
         <use xlink:href="#DejaVuSans-2e" x="63.623047"/>
         <use xlink:href="#DejaVuSans-30" x="95.410156"/>
        </g>
       </g>
      </g>
      <g id="ytick_2">
       <g id="line2d_4">
        <g>
         <use xlink:href="#m3a5eceb786" x="43.78125" y="258.881125" style="stroke: #000000; stroke-width: 0.8"/>
        </g>
       </g>
       <g id="text_4">
        <!-- 0.5 -->
        <g transform="translate(20.878125 262.680344) scale(0.1 -0.1)">
         <defs>
          <path id="DejaVuSans-35" d="M 691 4666 
L 3169 4666 
L 3169 4134 
L 1269 4134 
L 1269 2991 
Q 1406 3038 1543 3061 
Q 1681 3084 1819 3084 
Q 2600 3084 3056 2656 
Q 3513 2228 3513 1497 
Q 3513 744 3044 326 
Q 2575 -91 1722 -91 
Q 1428 -91 1123 -41 
Q 819 9 494 109 
L 494 744 
Q 775 591 1075 516 
Q 1375 441 1709 441 
Q 2250 441 2565 725 
Q 2881 1009 2881 1497 
Q 2881 1984 2565 2268 
Q 2250 2553 1709 2553 
Q 1456 2553 1204 2497 
Q 953 2441 691 2322 
L 691 4666 
z
" transform="scale(0.015625)"/>
         </defs>
         <use xlink:href="#DejaVuSans-30"/>
         <use xlink:href="#DejaVuSans-2e" x="63.623047"/>
         <use xlink:href="#DejaVuSans-35" x="95.410156"/>
        </g>
       </g>
      </g>
      <g id="ytick_3">
       <g id="line2d_5">
        <g>
         <use xlink:href="#m3a5eceb786" x="43.78125" y="199.740375" style="stroke: #000000; stroke-width: 0.8"/>
        </g>
       </g>
       <g id="text_5">
        <!-- 1.0 -->
        <g transform="translate(20.878125 203.539594) scale(0.1 -0.1)">
         <use xlink:href="#DejaVuSans-31"/>
         <use xlink:href="#DejaVuSans-2e" x="63.623047"/>
         <use xlink:href="#DejaVuSans-30" x="95.410156"/>
        </g>
       </g>
      </g>
      <g id="ytick_4">
       <g id="line2d_6">
        <g>
         <use xlink:href="#m3a5eceb786" x="43.78125" y="140.599625" style="stroke: #000000; stroke-width: 0.8"/>
        </g>
       </g>
       <g id="text_6">
        <!-- 1.5 -->
        <g transform="translate(20.878125 144.398844) scale(0.1 -0.1)">
         <use xlink:href="#DejaVuSans-31"/>
         <use xlink:href="#DejaVuSans-2e" x="63.623047"/>
         <use xlink:href="#DejaVuSans-35" x="95.410156"/>
        </g>
       </g>
      </g>
      <g id="ytick_5">
       <g id="line2d_7">
        <g>
         <use xlink:href="#m3a5eceb786" x="43.78125" y="81.458875" style="stroke: #000000; stroke-width: 0.8"/>
        </g>
       </g>
       <g id="text_7">
        <!-- 2.0 -->
        <g transform="translate(20.878125 85.258094) scale(0.1 -0.1)">
         <defs>
          <path id="DejaVuSans-32" d="M 1228 531 
L 3431 531 
L 3431 0 
L 469 0 
L 469 531 
Q 828 903 1448 1529 
Q 2069 2156 2228 2338 
Q 2531 2678 2651 2914 
Q 2772 3150 2772 3378 
Q 2772 3750 2511 3984 
Q 2250 4219 1831 4219 
Q 1534 4219 1204 4116 
Q 875 4013 500 3803 
L 500 4441 
Q 881 4594 1212 4672 
Q 1544 4750 1819 4750 
Q 2544 4750 2975 4387 
Q 3406 4025 3406 3419 
Q 3406 3131 3298 2873 
Q 3191 2616 2906 2266 
Q 2828 2175 2409 1742 
Q 1991 1309 1228 531 
z
" transform="scale(0.015625)"/>
         </defs>
         <use xlink:href="#DejaVuSans-32"/>
         <use xlink:href="#DejaVuSans-2e" x="63.623047"/>
         <use xlink:href="#DejaVuSans-30" x="95.410156"/>
        </g>
       </g>
      </g>
      <g id="ytick_6">
       <g id="line2d_8">
        <g>
         <use xlink:href="#m3a5eceb786" x="43.78125" y="22.318125" style="stroke: #000000; stroke-width: 0.8"/>
        </g>
       </g>
       <g id="text_8">
        <!-- 2.5 -->
        <g transform="translate(20.878125 26.117344) scale(0.1 -0.1)">
         <use xlink:href="#DejaVuSans-32"/>
         <use xlink:href="#DejaVuSans-2e" x="63.623047"/>
         <use xlink:href="#DejaVuSans-35" x="95.410156"/>
        </g>
       </g>
      </g>
      <g id="text_9">
       <!-- time ago (generations) -->
       <g transform="translate(14.798438 227.641094) rotate(-90) scale(0.1 -0.1)">
        <defs>
         <path id="DejaVuSans-74" d="M 1172 4494 
L 1172 3500 
L 2356 3500 
L 2356 3053 
L 1172 3053 
L 1172 1153 
Q 1172 725 1289 603 
Q 1406 481 1766 481 
L 2356 481 
L 2356 0 
L 1766 0 
Q 1100 0 847 248 
Q 594 497 594 1153 
L 594 3053 
L 172 3053 
L 172 3500 
L 594 3500 
L 594 4494 
L 1172 4494 
z
" transform="scale(0.015625)"/>
         <path id="DejaVuSans-69" d="M 603 3500 
L 1178 3500 
L 1178 0 
L 603 0 
L 603 3500 
z
M 603 4863 
L 1178 4863 
L 1178 4134 
L 603 4134 
L 603 4863 
z
" transform="scale(0.015625)"/>
         <path id="DejaVuSans-20" transform="scale(0.015625)"/>
         <path id="DejaVuSans-61" d="M 2194 1759 
Q 1497 1759 1228 1600 
Q 959 1441 959 1056 
Q 959 750 1161 570 
Q 1363 391 1709 391 
Q 2188 391 2477 730 
Q 2766 1069 2766 1631 
L 2766 1759 
L 2194 1759 
z
M 3341 1997 
L 3341 0 
L 2766 0 
L 2766 531 
Q 2569 213 2275 61 
Q 1981 -91 1556 -91 
Q 1019 -91 701 211 
Q 384 513 384 1019 
Q 384 1609 779 1909 
Q 1175 2209 1959 2209 
L 2766 2209 
L 2766 2266 
Q 2766 2663 2505 2880 
Q 2244 3097 1772 3097 
Q 1472 3097 1187 3025 
Q 903 2953 641 2809 
L 641 3341 
Q 956 3463 1253 3523 
Q 1550 3584 1831 3584 
Q 2591 3584 2966 3190 
Q 3341 2797 3341 1997 
z
" transform="scale(0.015625)"/>
         <path id="DejaVuSans-67" d="M 2906 1791 
Q 2906 2416 2648 2759 
Q 2391 3103 1925 3103 
Q 1463 3103 1205 2759 
Q 947 2416 947 1791 
Q 947 1169 1205 825 
Q 1463 481 1925 481 
Q 2391 481 2648 825 
Q 2906 1169 2906 1791 
z
M 3481 434 
Q 3481 -459 3084 -895 
Q 2688 -1331 1869 -1331 
Q 1566 -1331 1297 -1286 
Q 1028 -1241 775 -1147 
L 775 -588 
Q 1028 -725 1275 -790 
Q 1522 -856 1778 -856 
Q 2344 -856 2625 -561 
Q 2906 -266 2906 331 
L 2906 616 
Q 2728 306 2450 153 
Q 2172 0 1784 0 
Q 1141 0 747 490 
Q 353 981 353 1791 
Q 353 2603 747 3093 
Q 1141 3584 1784 3584 
Q 2172 3584 2450 3431 
Q 2728 3278 2906 2969 
L 2906 3500 
L 3481 3500 
L 3481 434 
z
" transform="scale(0.015625)"/>
         <path id="DejaVuSans-6f" d="M 1959 3097 
Q 1497 3097 1228 2736 
Q 959 2375 959 1747 
Q 959 1119 1226 758 
Q 1494 397 1959 397 
Q 2419 397 2687 759 
Q 2956 1122 2956 1747 
Q 2956 2369 2687 2733 
Q 2419 3097 1959 3097 
z
M 1959 3584 
Q 2709 3584 3137 3096 
Q 3566 2609 3566 1747 
Q 3566 888 3137 398 
Q 2709 -91 1959 -91 
Q 1206 -91 779 398 
Q 353 888 353 1747 
Q 353 2609 779 3096 
Q 1206 3584 1959 3584 
z
" transform="scale(0.015625)"/>
         <path id="DejaVuSans-28" d="M 1984 4856 
Q 1566 4138 1362 3434 
Q 1159 2731 1159 2009 
Q 1159 1288 1364 580 
Q 1569 -128 1984 -844 
L 1484 -844 
Q 1016 -109 783 600 
Q 550 1309 550 2009 
Q 550 2706 781 3412 
Q 1013 4119 1484 4856 
L 1984 4856 
z
" transform="scale(0.015625)"/>
         <path id="DejaVuSans-6e" d="M 3513 2113 
L 3513 0 
L 2938 0 
L 2938 2094 
Q 2938 2591 2744 2837 
Q 2550 3084 2163 3084 
Q 1697 3084 1428 2787 
Q 1159 2491 1159 1978 
L 1159 0 
L 581 0 
L 581 3500 
L 1159 3500 
L 1159 2956 
Q 1366 3272 1645 3428 
Q 1925 3584 2291 3584 
Q 2894 3584 3203 3211 
Q 3513 2838 3513 2113 
z
" transform="scale(0.015625)"/>
         <path id="DejaVuSans-72" d="M 2631 2963 
Q 2534 3019 2420 3045 
Q 2306 3072 2169 3072 
Q 1681 3072 1420 2755 
Q 1159 2438 1159 1844 
L 1159 0 
L 581 0 
L 581 3500 
L 1159 3500 
L 1159 2956 
Q 1341 3275 1631 3429 
Q 1922 3584 2338 3584 
Q 2397 3584 2469 3576 
Q 2541 3569 2628 3553 
L 2631 2963 
z
" transform="scale(0.015625)"/>
         <path id="DejaVuSans-73" d="M 2834 3397 
L 2834 2853 
Q 2591 2978 2328 3040 
Q 2066 3103 1784 3103 
Q 1356 3103 1142 2972 
Q 928 2841 928 2578 
Q 928 2378 1081 2264 
Q 1234 2150 1697 2047 
L 1894 2003 
Q 2506 1872 2764 1633 
Q 3022 1394 3022 966 
Q 3022 478 2636 193 
Q 2250 -91 1575 -91 
Q 1294 -91 989 -36 
Q 684 19 347 128 
L 347 722 
Q 666 556 975 473 
Q 1284 391 1588 391 
Q 1994 391 2212 530 
Q 2431 669 2431 922 
Q 2431 1156 2273 1281 
Q 2116 1406 1581 1522 
L 1381 1569 
Q 847 1681 609 1914 
Q 372 2147 372 2553 
Q 372 3047 722 3315 
Q 1072 3584 1716 3584 
Q 2034 3584 2315 3537 
Q 2597 3491 2834 3397 
z
" transform="scale(0.015625)"/>
         <path id="DejaVuSans-29" d="M 513 4856 
L 1013 4856 
Q 1481 4119 1714 3412 
Q 1947 2706 1947 2009 
Q 1947 1309 1714 600 
Q 1481 -109 1013 -844 
L 513 -844 
Q 928 -128 1133 580 
Q 1338 1288 1338 2009 
Q 1338 2731 1133 3434 
Q 928 4138 513 4856 
z
" transform="scale(0.015625)"/>
        </defs>
        <use xlink:href="#DejaVuSans-74"/>
        <use xlink:href="#DejaVuSans-69" x="39.208984"/>
        <use xlink:href="#DejaVuSans-6d" x="66.992188"/>
        <use xlink:href="#DejaVuSans-65" x="164.404297"/>
        <use xlink:href="#DejaVuSans-20" x="225.927734"/>
        <use xlink:href="#DejaVuSans-61" x="257.714844"/>
        <use xlink:href="#DejaVuSans-67" x="318.994141"/>
        <use xlink:href="#DejaVuSans-6f" x="382.470703"/>
        <use xlink:href="#DejaVuSans-20" x="443.652344"/>
        <use xlink:href="#DejaVuSans-28" x="475.439453"/>
        <use xlink:href="#DejaVuSans-67" x="514.453125"/>
        <use xlink:href="#DejaVuSans-65" x="577.929688"/>
        <use xlink:href="#DejaVuSans-6e" x="639.453125"/>
        <use xlink:href="#DejaVuSans-65" x="702.832031"/>
        <use xlink:href="#DejaVuSans-72" x="764.355469"/>
        <use xlink:href="#DejaVuSans-61" x="805.46875"/>
        <use xlink:href="#DejaVuSans-74" x="866.748047"/>
        <use xlink:href="#DejaVuSans-69" x="905.957031"/>
        <use xlink:href="#DejaVuSans-6f" x="933.740234"/>
        <use xlink:href="#DejaVuSans-6e" x="994.921875"/>
        <use xlink:href="#DejaVuSans-73" x="1058.300781"/>
        <use xlink:href="#DejaVuSans-29" x="1110.400391"/>
       </g>
      </g>
     </g>
     <path d="M 289.11196 182.967539 
L 291.11196 183.967539 
L 291.11196 181.967539 
z
" clip-path="url(#pf5dc46ec77)" style="fill: #ff7f0e; fill-opacity: 0.5; stroke: #ff7f0e; stroke-opacity: 0.5; stroke-linejoin: miter"/>
     <path d="M 289.11196 190.426749 
L 291.11196 191.426749 
L 291.11196 189.426749 
z
" clip-path="url(#pf5dc46ec77)" style="fill: #ff7f0e; fill-opacity: 0.5; stroke: #ff7f0e; stroke-opacity: 0.5; stroke-linejoin: miter"/>
     <path d="M 289.11196 189.688124 
L 291.11196 190.688124 
L 291.11196 188.688124 
z
" clip-path="url(#pf5dc46ec77)" style="fill: #ff7f0e; fill-opacity: 0.5; stroke: #ff7f0e; stroke-opacity: 0.5; stroke-linejoin: miter"/>
     <path d="M 289.11196 145.528387 
L 291.11196 146.528387 
L 291.11196 144.528387 
z
" clip-path="url(#pf5dc46ec77)" style="fill: #ff7f0e; fill-opacity: 0.5; stroke: #ff7f0e; stroke-opacity: 0.5; stroke-linejoin: miter"/>
     <path d="M 289.11196 94.692527 
L 291.11196 95.692527 
L 291.11196 93.692527 
z
" clip-path="url(#pf5dc46ec77)" style="fill: #ff7f0e; fill-opacity: 0.5; stroke: #ff7f0e; stroke-opacity: 0.5; stroke-linejoin: miter"/>
     <path d="M 289.11196 136.159037 
L 291.11196 137.159037 
L 291.11196 135.159037 
z
" clip-path="url(#pf5dc46ec77)" style="fill: #ff7f0e; fill-opacity: 0.5; stroke: #ff7f0e; stroke-opacity: 0.5; stroke-linejoin: miter"/>
     <path d="M 289.11196 188.782676 
L 291.11196 189.782676 
L 291.11196 187.782676 
z
" clip-path="url(#pf5dc46ec77)" style="fill: #ff7f0e; fill-opacity: 0.5; stroke: #ff7f0e; stroke-opacity: 0.5; stroke-linejoin: miter"/>
     <path d="M 289.11196 151.312661 
L 291.11196 152.312661 
L 291.11196 150.312661 
z
" clip-path="url(#pf5dc46ec77)" style="fill: #ff7f0e; fill-opacity: 0.5; stroke: #ff7f0e; stroke-opacity: 0.5; stroke-linejoin: miter"/>
     <path d="M 289.11196 176.465303 
L 291.11196 177.465303 
L 291.11196 175.465303 
z
" clip-path="url(#pf5dc46ec77)" style="fill: #ff7f0e; fill-opacity: 0.5; stroke: #ff7f0e; stroke-opacity: 0.5; stroke-linejoin: miter"/>
     <path d="M 289.11196 134.905452 
L 291.11196 135.905452 
L 291.11196 133.905452 
z
" clip-path="url(#pf5dc46ec77)" style="fill: #ff7f0e; fill-opacity: 0.5; stroke: #ff7f0e; stroke-opacity: 0.5; stroke-linejoin: miter"/>
     <path d="M 354.66929 120.09782 
L 352.66929 119.09782 
L 352.66929 121.09782 
z
" clip-path="url(#pf5dc46ec77)" style="fill: #1f77b4; fill-opacity: 0.5; stroke: #1f77b4; stroke-opacity: 0.5; stroke-linejoin: miter"/>
     <path d="M 354.66929 81.773192 
L 352.66929 80.773192 
L 352.66929 82.773192 
z
" clip-path="url(#pf5dc46ec77)" style="fill: #1f77b4; fill-opacity: 0.5; stroke: #1f77b4; stroke-opacity: 0.5; stroke-linejoin: miter"/>
     <path d="M 354.66929 121.412927 
L 352.66929 120.412927 
L 352.66929 122.412927 
z
" clip-path="url(#pf5dc46ec77)" style="fill: #1f77b4; fill-opacity: 0.5; stroke: #1f77b4; stroke-opacity: 0.5; stroke-linejoin: miter"/>
     <path d="M 354.66929 198.630036 
L 352.66929 197.630036 
L 352.66929 199.630036 
z
" clip-path="url(#pf5dc46ec77)" style="fill: #1f77b4; fill-opacity: 0.5; stroke: #1f77b4; stroke-opacity: 0.5; stroke-linejoin: miter"/>
     <path d="M 354.66929 122.128449 
L 352.66929 121.128449 
L 352.66929 123.128449 
z
" clip-path="url(#pf5dc46ec77)" style="fill: #1f77b4; fill-opacity: 0.5; stroke: #1f77b4; stroke-opacity: 0.5; stroke-linejoin: miter"/>
     <path d="M 354.66929 194.906725 
L 352.66929 193.906725 
L 352.66929 195.906725 
z
" clip-path="url(#pf5dc46ec77)" style="fill: #1f77b4; fill-opacity: 0.5; stroke: #1f77b4; stroke-opacity: 0.5; stroke-linejoin: miter"/>
     <path d="M 354.66929 136.174759 
L 352.66929 135.174759 
L 352.66929 137.174759 
z
" clip-path="url(#pf5dc46ec77)" style="fill: #1f77b4; fill-opacity: 0.5; stroke: #1f77b4; stroke-opacity: 0.5; stroke-linejoin: miter"/>
     <path d="M 354.66929 139.447272 
L 352.66929 138.447272 
L 352.66929 140.447272 
z
" clip-path="url(#pf5dc46ec77)" style="fill: #1f77b4; fill-opacity: 0.5; stroke: #1f77b4; stroke-opacity: 0.5; stroke-linejoin: miter"/>
     <path d="M 354.66929 147.235726 
L 352.66929 146.235726 
L 352.66929 148.235726 
z
" clip-path="url(#pf5dc46ec77)" style="fill: #1f77b4; fill-opacity: 0.5; stroke: #1f77b4; stroke-opacity: 0.5; stroke-linejoin: miter"/>
     <path d="M 354.66929 100.001676 
L 352.66929 99.001676 
L 352.66929 101.001676 
z
" clip-path="url(#pf5dc46ec77)" style="fill: #1f77b4; fill-opacity: 0.5; stroke: #1f77b4; stroke-opacity: 0.5; stroke-linejoin: miter"/>
     <path d="M 289.11196 205.056007 
L 291.11196 206.056007 
L 291.11196 204.056007 
z
" clip-path="url(#pf5dc46ec77)" style="fill: #ff7f0e; fill-opacity: 0.5; stroke: #ff7f0e; stroke-opacity: 0.5; stroke-linejoin: miter"/>
     <path d="M 289.11196 275.153613 
L 291.11196 276.153613 
L 291.11196 274.153613 
z
" clip-path="url(#pf5dc46ec77)" style="fill: #ff7f0e; fill-opacity: 0.5; stroke: #ff7f0e; stroke-opacity: 0.5; stroke-linejoin: miter"/>
     <path d="M 289.11196 283.822005 
L 291.11196 284.822005 
L 291.11196 282.822005 
z
" clip-path="url(#pf5dc46ec77)" style="fill: #ff7f0e; fill-opacity: 0.5; stroke: #ff7f0e; stroke-opacity: 0.5; stroke-linejoin: miter"/>
     <path d="M 289.11196 271.944964 
L 291.11196 272.944964 
L 291.11196 270.944964 
z
" clip-path="url(#pf5dc46ec77)" style="fill: #ff7f0e; fill-opacity: 0.5; stroke: #ff7f0e; stroke-opacity: 0.5; stroke-linejoin: miter"/>
     <path d="M 289.11196 293.211792 
L 291.11196 294.211792 
L 291.11196 292.211792 
z
" clip-path="url(#pf5dc46ec77)" style="fill: #ff7f0e; fill-opacity: 0.5; stroke: #ff7f0e; stroke-opacity: 0.5; stroke-linejoin: miter"/>
     <path d="M 289.11196 279.462037 
L 291.11196 280.462037 
L 291.11196 278.462037 
z
" clip-path="url(#pf5dc46ec77)" style="fill: #ff7f0e; fill-opacity: 0.5; stroke: #ff7f0e; stroke-opacity: 0.5; stroke-linejoin: miter"/>
     <path d="M 289.11196 221.472387 
L 291.11196 222.472387 
L 291.11196 220.472387 
z
" clip-path="url(#pf5dc46ec77)" style="fill: #ff7f0e; fill-opacity: 0.5; stroke: #ff7f0e; stroke-opacity: 0.5; stroke-linejoin: miter"/>
     <path d="M 289.11196 258.148599 
L 291.11196 259.148599 
L 291.11196 257.148599 
z
" clip-path="url(#pf5dc46ec77)" style="fill: #ff7f0e; fill-opacity: 0.5; stroke: #ff7f0e; stroke-opacity: 0.5; stroke-linejoin: miter"/>
     <path d="M 289.11196 239.443934 
L 291.11196 240.443934 
L 291.11196 238.443934 
z
" clip-path="url(#pf5dc46ec77)" style="fill: #ff7f0e; fill-opacity: 0.5; stroke: #ff7f0e; stroke-opacity: 0.5; stroke-linejoin: miter"/>
     <path d="M 289.11196 275.728029 
L 291.11196 276.728029 
L 291.11196 274.728029 
z
" clip-path="url(#pf5dc46ec77)" style="fill: #ff7f0e; fill-opacity: 0.5; stroke: #ff7f0e; stroke-opacity: 0.5; stroke-linejoin: miter"/>
     <path d="M 354.66929 219.270292 
L 352.66929 218.270292 
L 352.66929 220.270292 
z
" clip-path="url(#pf5dc46ec77)" style="fill: #1f77b4; fill-opacity: 0.5; stroke: #1f77b4; stroke-opacity: 0.5; stroke-linejoin: miter"/>
     <path d="M 354.66929 251.706217 
L 352.66929 250.706217 
L 352.66929 252.706217 
z
" clip-path="url(#pf5dc46ec77)" style="fill: #1f77b4; fill-opacity: 0.5; stroke: #1f77b4; stroke-opacity: 0.5; stroke-linejoin: miter"/>
     <path d="M 354.66929 268.444296 
L 352.66929 267.444296 
L 352.66929 269.444296 
z
" clip-path="url(#pf5dc46ec77)" style="fill: #1f77b4; fill-opacity: 0.5; stroke: #1f77b4; stroke-opacity: 0.5; stroke-linejoin: miter"/>
     <path d="M 354.66929 309.850144 
L 352.66929 308.850144 
L 352.66929 310.850144 
z
" clip-path="url(#pf5dc46ec77)" style="fill: #1f77b4; fill-opacity: 0.5; stroke: #1f77b4; stroke-opacity: 0.5; stroke-linejoin: miter"/>
     <path d="M 354.66929 228.405353 
L 352.66929 227.405353 
L 352.66929 229.405353 
z
" clip-path="url(#pf5dc46ec77)" style="fill: #1f77b4; fill-opacity: 0.5; stroke: #1f77b4; stroke-opacity: 0.5; stroke-linejoin: miter"/>
     <path d="M 354.66929 222.450601 
L 352.66929 221.450601 
L 352.66929 223.450601 
z
" clip-path="url(#pf5dc46ec77)" style="fill: #1f77b4; fill-opacity: 0.5; stroke: #1f77b4; stroke-opacity: 0.5; stroke-linejoin: miter"/>
     <path d="M 354.66929 288.990997 
L 352.66929 287.990997 
L 352.66929 289.990997 
z
" clip-path="url(#pf5dc46ec77)" style="fill: #1f77b4; fill-opacity: 0.5; stroke: #1f77b4; stroke-opacity: 0.5; stroke-linejoin: miter"/>
     <path d="M 354.66929 257.208795 
L 352.66929 256.208795 
L 352.66929 258.208795 
z
" clip-path="url(#pf5dc46ec77)" style="fill: #1f77b4; fill-opacity: 0.5; stroke: #1f77b4; stroke-opacity: 0.5; stroke-linejoin: miter"/>
     <path d="M 354.66929 243.049376 
L 352.66929 242.049376 
L 352.66929 244.049376 
z
" clip-path="url(#pf5dc46ec77)" style="fill: #1f77b4; fill-opacity: 0.5; stroke: #1f77b4; stroke-opacity: 0.5; stroke-linejoin: miter"/>
     <path d="M 354.66929 292.573627 
L 352.66929 291.573627 
L 352.66929 293.573627 
z
" clip-path="url(#pf5dc46ec77)" style="fill: #1f77b4; fill-opacity: 0.5; stroke: #1f77b4; stroke-opacity: 0.5; stroke-linejoin: miter"/>
     <g id="patch_5">
      <path d="M 43.78125 318.021875 
L 43.78125 22.318125 
" style="fill: none; stroke: #000000; stroke-width: 0.8; stroke-linejoin: miter; stroke-linecap: square"/>
     </g>
     <g id="text_10">
      <!-- defaults_symmetric_migration_changing_rate.yaml -->
      <g transform="translate(168.3525 16.318125) scale(0.12 -0.12)">
       <defs>
        <path id="DejaVuSans-66" d="M 2375 4863 
L 2375 4384 
L 1825 4384 
Q 1516 4384 1395 4259 
Q 1275 4134 1275 3809 
L 1275 3500 
L 2222 3500 
L 2222 3053 
L 1275 3053 
L 1275 0 
L 697 0 
L 697 3053 
L 147 3053 
L 147 3500 
L 697 3500 
L 697 3744 
Q 697 4328 969 4595 
Q 1241 4863 1831 4863 
L 2375 4863 
z
" transform="scale(0.015625)"/>
        <path id="DejaVuSans-75" d="M 544 1381 
L 544 3500 
L 1119 3500 
L 1119 1403 
Q 1119 906 1312 657 
Q 1506 409 1894 409 
Q 2359 409 2629 706 
Q 2900 1003 2900 1516 
L 2900 3500 
L 3475 3500 
L 3475 0 
L 2900 0 
L 2900 538 
Q 2691 219 2414 64 
Q 2138 -91 1772 -91 
Q 1169 -91 856 284 
Q 544 659 544 1381 
z
M 1991 3584 
L 1991 3584 
z
" transform="scale(0.015625)"/>
        <path id="DejaVuSans-6c" d="M 603 4863 
L 1178 4863 
L 1178 0 
L 603 0 
L 603 4863 
z
" transform="scale(0.015625)"/>
        <path id="DejaVuSans-5f" d="M 3263 -1063 
L 3263 -1509 
L -63 -1509 
L -63 -1063 
L 3263 -1063 
z
" transform="scale(0.015625)"/>
        <path id="DejaVuSans-79" d="M 2059 -325 
Q 1816 -950 1584 -1140 
Q 1353 -1331 966 -1331 
L 506 -1331 
L 506 -850 
L 844 -850 
Q 1081 -850 1212 -737 
Q 1344 -625 1503 -206 
L 1606 56 
L 191 3500 
L 800 3500 
L 1894 763 
L 2988 3500 
L 3597 3500 
L 2059 -325 
z
" transform="scale(0.015625)"/>
        <path id="DejaVuSans-63" d="M 3122 3366 
L 3122 2828 
Q 2878 2963 2633 3030 
Q 2388 3097 2138 3097 
Q 1578 3097 1268 2742 
Q 959 2388 959 1747 
Q 959 1106 1268 751 
Q 1578 397 2138 397 
Q 2388 397 2633 464 
Q 2878 531 3122 666 
L 3122 134 
Q 2881 22 2623 -34 
Q 2366 -91 2075 -91 
Q 1284 -91 818 406 
Q 353 903 353 1747 
Q 353 2603 823 3093 
Q 1294 3584 2113 3584 
Q 2378 3584 2631 3529 
Q 2884 3475 3122 3366 
z
" transform="scale(0.015625)"/>
        <path id="DejaVuSans-68" d="M 3513 2113 
L 3513 0 
L 2938 0 
L 2938 2094 
Q 2938 2591 2744 2837 
Q 2550 3084 2163 3084 
Q 1697 3084 1428 2787 
Q 1159 2491 1159 1978 
L 1159 0 
L 581 0 
L 581 4863 
L 1159 4863 
L 1159 2956 
Q 1366 3272 1645 3428 
Q 1925 3584 2291 3584 
Q 2894 3584 3203 3211 
Q 3513 2838 3513 2113 
z
" transform="scale(0.015625)"/>
       </defs>
       <use xlink:href="#DejaVuSans-64"/>
       <use xlink:href="#DejaVuSans-65" x="63.476562"/>
       <use xlink:href="#DejaVuSans-66" x="125"/>
       <use xlink:href="#DejaVuSans-61" x="160.205078"/>
       <use xlink:href="#DejaVuSans-75" x="221.484375"/>
       <use xlink:href="#DejaVuSans-6c" x="284.863281"/>
       <use xlink:href="#DejaVuSans-74" x="312.646484"/>
       <use xlink:href="#DejaVuSans-73" x="351.855469"/>
       <use xlink:href="#DejaVuSans-5f" x="403.955078"/>
       <use xlink:href="#DejaVuSans-73" x="453.955078"/>
       <use xlink:href="#DejaVuSans-79" x="506.054688"/>
       <use xlink:href="#DejaVuSans-6d" x="565.234375"/>
       <use xlink:href="#DejaVuSans-6d" x="662.646484"/>
       <use xlink:href="#DejaVuSans-65" x="760.058594"/>
       <use xlink:href="#DejaVuSans-74" x="821.582031"/>
       <use xlink:href="#DejaVuSans-72" x="860.791016"/>
       <use xlink:href="#DejaVuSans-69" x="901.904297"/>
       <use xlink:href="#DejaVuSans-63" x="929.6875"/>
       <use xlink:href="#DejaVuSans-5f" x="984.667969"/>
       <use xlink:href="#DejaVuSans-6d" x="1034.667969"/>
       <use xlink:href="#DejaVuSans-69" x="1132.080078"/>
       <use xlink:href="#DejaVuSans-67" x="1159.863281"/>
       <use xlink:href="#DejaVuSans-72" x="1223.339844"/>
       <use xlink:href="#DejaVuSans-61" x="1264.453125"/>
       <use xlink:href="#DejaVuSans-74" x="1325.732422"/>
       <use xlink:href="#DejaVuSans-69" x="1364.941406"/>
       <use xlink:href="#DejaVuSans-6f" x="1392.724609"/>
       <use xlink:href="#DejaVuSans-6e" x="1453.90625"/>
       <use xlink:href="#DejaVuSans-5f" x="1517.285156"/>
       <use xlink:href="#DejaVuSans-63" x="1567.285156"/>
       <use xlink:href="#DejaVuSans-68" x="1622.265625"/>
       <use xlink:href="#DejaVuSans-61" x="1685.644531"/>
       <use xlink:href="#DejaVuSans-6e" x="1746.923828"/>
       <use xlink:href="#DejaVuSans-67" x="1810.302734"/>
       <use xlink:href="#DejaVuSans-69" x="1873.779297"/>
       <use xlink:href="#DejaVuSans-6e" x="1901.5625"/>
       <use xlink:href="#DejaVuSans-67" x="1964.941406"/>
       <use xlink:href="#DejaVuSans-5f" x="2028.417969"/>
       <use xlink:href="#DejaVuSans-72" x="2078.417969"/>
       <use xlink:href="#DejaVuSans-61" x="2119.53125"/>
       <use xlink:href="#DejaVuSans-74" x="2180.810547"/>
       <use xlink:href="#DejaVuSans-65" x="2220.019531"/>
       <use xlink:href="#DejaVuSans-2e" x="2281.542969"/>
       <use xlink:href="#DejaVuSans-79" x="2313.330078"/>
       <use xlink:href="#DejaVuSans-61" x="2372.509766"/>
       <use xlink:href="#DejaVuSans-6d" x="2433.789062"/>
       <use xlink:href="#DejaVuSans-6c" x="2531.201172"/>
      </g>
     </g>
    </g>
   </g>
   <defs>
    <clipPath id="pf5dc46ec77">
     <rect x="43.78125" y="22.318125" width="556.21875" height="295.70375"/>
    </clipPath>
   </defs>
  </g>
 </g>
</svg>
