<?xml version="1.0" encoding="utf-8" standalone="no"?>
<!DOCTYPE svg PUBLIC "-//W3C//DTD SVG 1.1//EN"
  "http://www.w3.org/Graphics/SVG/1.1/DTD/svg11.dtd">
<svg xmlns:xlink="http://www.w3.org/1999/xlink" width="607.2pt" height="338.4pt" viewBox="0 0 607.2 338.4" xmlns="http://www.w3.org/2000/svg" version="1.1">
 <metadata>
  <rdf:RDF xmlns:dc="http://purl.org/dc/elements/1.1/" xmlns:cc="http://creativecommons.org/ns#" xmlns:rdf="http://www.w3.org/1999/02/22-rdf-syntax-ns#">
   <cc:Work>
    <dc:type rdf:resource="http://purl.org/dc/dcmitype/StillImage"/>
    <dc:date>2023-04-27T13:45:30.709648</dc:date>
    <dc:format>image/svg+xml</dc:format>
    <dc:creator>
     <cc:Agent>
      <dc:title>Matplotlib v3.7.1, https://matplotlib.org/</dc:title>
     </cc:Agent>
    </dc:creator>
   </cc:Work>
  </rdf:RDF>
 </metadata>
 <defs>
  <style type="text/css">*{stroke-linejoin: round; stroke-linecap: butt}</style>
 </defs>
 <g id="figure_1">
  <g id="patch_1">
   <path d="M 0 338.4 
L 607.2 338.4 
L 607.2 0 
L 0 0 
z
" style="fill: #ffffff"/>
  </g>
  <g id="axes_1">
   <g id="patch_2">
    <path d="M 46.965625 318.021875 
L 600 318.021875 
L 600 22.318125 
L 46.965625 22.318125 
z
" style="fill: #ffffff"/>
   </g>
   <path d="M 200.299443 223.510476 
L 201.299443 223.541913 
L 202.299443 223.578853 
L 203.299443 223.6766 
L 204.299443 223.709121 
L 205.299443 223.782746 
L 206.299443 223.821312 
L 207.299443 223.856725 
L 208.299443 223.914365 
L 209.299443 223.984751 
L 210.299443 224.036715 
L 211.299443 224.095805 
L 212.299443 224.184126 
L 213.299443 224.23027 
L 214.299443 224.272681 
L 215.299443 224.303174 
L 216.299443 224.329219 
L 217.299443 224.350419 
L 218.299443 224.40472 
L 219.299443 224.432657 
L 220.299443 224.462381 
L 221.299443 224.487776 
L 222.299443 224.498977 
L 223.299443 224.509101 
L 224.299443 224.508896 
L 225.299443 224.499386 
L 226.299443 224.487733 
L 227.299443 224.456704 
L 228.299443 224.445536 
L 229.299443 224.415418 
L 230.299443 224.355641 
L 231.299443 224.31845 
L 232.299443 224.279354 
L 233.299443 224.236914 
L 234.299443 224.204149 
L 235.299443 224.136722 
L 236.299443 224.097596 
L 237.299443 224.054922 
L 238.299443 223.984341 
L 239.299443 223.94795 
L 240.299443 223.889547 
L 241.299443 223.778595 
L 242.299443 223.707936 
L 243.299443 223.594996 
L 244.299443 223.549224 
L 245.299443 223.48794 
L 246.299443 223.439441 
L 247.299443 223.358618 
L 248.299443 223.240099 
L 249.299443 223.169889 
L 250.299443 223.086626 
L 251.299443 223.053485 
L 252.299443 223.002247 
L 253.299443 222.933849 
L 254.299443 222.867633 
L 255.299443 222.790716 
L 256.619695 222.763401 
" clip-path="url(#pabee1f2c33)" style="fill: none; stroke: #1f77b4; stroke-opacity: 0.5; stroke-width: 0.2; stroke-linecap: square"/>
   <path d="M 200.299443 238.15097 
L 201.299443 238.182406 
L 202.299443 238.219346 
L 203.299443 238.317093 
L 204.299443 238.349614 
L 205.299443 238.423239 
L 206.299443 238.461805 
L 207.299443 238.497218 
L 208.299443 238.554858 
L 209.299443 238.625244 
L 210.299443 238.677208 
L 211.299443 238.736298 
L 212.299443 238.824619 
L 213.299443 238.870763 
L 214.299443 238.913174 
L 215.299443 238.943667 
L 216.299443 238.969712 
L 217.299443 238.990912 
L 218.299443 239.045213 
L 219.299443 239.073151 
L 220.299443 239.102875 
L 221.299443 239.128269 
L 222.299443 239.13947 
L 223.299443 239.149594 
L 224.299443 239.149389 
L 225.299443 239.13988 
L 226.299443 239.128226 
L 227.299443 239.097197 
L 228.299443 239.086029 
L 229.299443 239.055911 
L 230.299443 238.996134 
L 231.299443 238.958943 
L 232.299443 238.919847 
L 233.299443 238.877407 
L 234.299443 238.844642 
L 235.299443 238.777215 
L 236.299443 238.73809 
L 237.299443 238.695415 
L 238.299443 238.624834 
L 239.299443 238.588444 
L 240.299443 238.53004 
L 241.299443 238.419088 
L 242.299443 238.348429 
L 243.299443 238.23549 
L 244.299443 238.189717 
L 245.299443 238.128434 
L 246.299443 238.079934 
L 247.299443 237.999111 
L 248.299443 237.880593 
L 249.299443 237.810382 
L 250.299443 237.727119 
L 251.299443 237.693978 
L 252.299443 237.64274 
L 253.299443 237.574342 
L 254.299443 237.508127 
L 255.299443 237.43121 
L 256.619695 237.403894 
" clip-path="url(#pabee1f2c33)" style="fill: none; stroke: #1f77b4; stroke-opacity: 0.5; stroke-width: 0.2; stroke-linecap: square"/>
   <path d="M 200.299443 61.359674 
L 201.299443 61.391111 
L 202.299443 61.428051 
L 203.299443 61.525797 
L 204.299443 61.558319 
L 205.299443 61.631944 
L 206.299443 61.670509 
L 207.299443 61.705923 
L 208.299443 61.763562 
L 209.299443 61.833949 
L 210.299443 61.885913 
L 211.299443 61.945003 
L 212.299443 62.033324 
L 213.299443 62.079468 
L 214.299443 62.121879 
L 215.299443 62.152372 
L 216.299443 62.178416 
L 217.299443 62.199617 
L 218.299443 62.253918 
L 219.299443 62.281855 
L 220.299443 62.311579 
L 221.299443 62.336974 
L 222.299443 62.348174 
L 223.299443 62.358298 
L 224.299443 62.358094 
L 225.299443 62.348584 
L 226.299443 62.336931 
L 227.299443 62.305901 
L 228.299443 62.294733 
L 229.299443 62.264616 
L 230.299443 62.204839 
L 231.299443 62.167647 
L 232.299443 62.128551 
L 233.299443 62.086112 
L 234.299443 62.053347 
L 235.299443 61.98592 
L 236.299443 61.946794 
L 237.299443 61.90412 
L 238.299443 61.833539 
L 239.299443 61.797148 
L 240.299443 61.738745 
L 241.299443 61.627792 
L 242.299443 61.557134 
L 243.299443 61.444194 
L 244.299443 61.398421 
L 245.299443 61.337138 
L 246.299443 61.288639 
L 247.299443 61.207816 
L 248.299443 61.089297 
L 249.299443 61.019087 
L 250.299443 60.935824 
L 251.299443 60.902682 
L 252.299443 60.851445 
L 253.299443 60.783047 
L 254.299443 60.716831 
L 255.299443 60.639914 
L 256.619695 60.612599 
" clip-path="url(#pabee1f2c33)" style="fill: none; stroke: #1f77b4; stroke-opacity: 0.5; stroke-width: 0.2; stroke-linecap: square"/>
   <path d="M 200.299443 24.971785 
L 201.299443 25.003221 
L 202.299443 25.040162 
L 203.299443 25.137908 
L 204.299443 25.17043 
L 205.299443 25.244054 
L 206.299443 25.28262 
L 207.299443 25.318033 
L 208.299443 25.375673 
L 209.299443 25.446059 
L 210.299443 25.498024 
L 211.299443 25.557113 
L 212.299443 25.645434 
L 213.299443 25.691579 
L 214.299443 25.733989 
L 215.299443 25.764482 
L 216.299443 25.790527 
L 217.299443 25.811727 
L 218.299443 25.866028 
L 219.299443 25.893966 
L 220.299443 25.92369 
L 221.299443 25.949085 
L 222.299443 25.960285 
L 223.299443 25.970409 
L 224.299443 25.970205 
L 225.299443 25.960695 
L 226.299443 25.949041 
L 227.299443 25.918012 
L 228.299443 25.906844 
L 229.299443 25.876726 
L 230.299443 25.81695 
L 231.299443 25.779758 
L 232.299443 25.740662 
L 233.299443 25.698222 
L 234.299443 25.665457 
L 235.299443 25.598031 
L 236.299443 25.558905 
L 237.299443 25.51623 
L 238.299443 25.44565 
L 239.299443 25.409259 
L 240.299443 25.350856 
L 241.299443 25.239903 
L 242.299443 25.169245 
L 243.299443 25.056305 
L 244.299443 25.010532 
L 245.299443 24.949249 
L 246.299443 24.900749 
L 247.299443 24.819927 
L 248.299443 24.701408 
L 249.299443 24.631197 
L 250.299443 24.547935 
L 251.299443 24.514793 
L 252.299443 24.463556 
L 253.299443 24.395157 
L 254.299443 24.328942 
L 255.299443 24.252025 
L 256.619695 24.224709 
" clip-path="url(#pabee1f2c33)" style="fill: none; stroke: #1f77b4; stroke-opacity: 0.5; stroke-width: 0.2; stroke-linecap: square"/>
   <path d="M 200.299443 146.937829 
L 201.299443 146.969265 
L 202.299443 147.006205 
L 203.299443 147.103952 
L 204.299443 147.136474 
L 205.299443 147.210098 
L 206.299443 147.248664 
L 207.299443 147.284077 
L 208.299443 147.341717 
L 209.299443 147.412103 
L 210.299443 147.464067 
L 211.299443 147.523157 
L 212.299443 147.611478 
L 213.299443 147.657622 
L 214.299443 147.700033 
L 215.299443 147.730526 
L 216.299443 147.756571 
L 217.299443 147.777771 
L 218.299443 147.832072 
L 219.299443 147.86001 
L 220.299443 147.889734 
L 221.299443 147.915128 
L 222.299443 147.926329 
L 223.299443 147.936453 
L 224.299443 147.936248 
L 225.299443 147.926739 
L 226.299443 147.915085 
L 227.299443 147.884056 
L 228.299443 147.872888 
L 229.299443 147.84277 
L 230.299443 147.782993 
L 231.299443 147.745802 
L 232.299443 147.706706 
L 233.299443 147.664266 
L 234.299443 147.631501 
L 235.299443 147.564075 
L 236.299443 147.524949 
L 237.299443 147.482274 
L 238.299443 147.411693 
L 239.299443 147.375303 
L 240.299443 147.316899 
L 241.299443 147.205947 
L 242.299443 147.135289 
L 243.299443 147.022349 
L 244.299443 146.976576 
L 245.299443 146.915293 
L 246.299443 146.866793 
L 247.299443 146.785971 
L 248.299443 146.667452 
L 249.299443 146.597241 
L 250.299443 146.513979 
L 251.299443 146.480837 
L 252.299443 146.429599 
L 253.299443 146.361201 
L 254.299443 146.294986 
L 255.299443 146.218069 
L 256.619695 146.190753 
" clip-path="url(#pabee1f2c33)" style="fill: none; stroke: #1f77b4; stroke-opacity: 0.5; stroke-width: 0.2; stroke-linecap: square"/>
   <path d="M 200.299443 277.852412 
L 201.299443 277.883848 
L 202.299443 277.920789 
L 203.299443 278.018535 
L 204.299443 278.051057 
L 205.299443 278.124681 
L 206.299443 278.163247 
L 207.299443 278.19866 
L 208.299443 278.2563 
L 209.299443 278.326686 
L 210.299443 278.37865 
L 211.299443 278.43774 
L 212.299443 278.526061 
L 213.299443 278.572205 
L 214.299443 278.614616 
L 215.299443 278.645109 
L 216.299443 278.671154 
L 217.299443 278.692354 
L 218.299443 278.746655 
L 219.299443 278.774593 
L 220.299443 278.804317 
L 221.299443 278.829712 
L 222.299443 278.840912 
L 223.299443 278.851036 
L 224.299443 278.850832 
L 225.299443 278.841322 
L 226.299443 278.829668 
L 227.299443 278.798639 
L 228.299443 278.787471 
L 229.299443 278.757353 
L 230.299443 278.697576 
L 231.299443 278.660385 
L 232.299443 278.621289 
L 233.299443 278.578849 
L 234.299443 278.546084 
L 235.299443 278.478658 
L 236.299443 278.439532 
L 237.299443 278.396857 
L 238.299443 278.326277 
L 239.299443 278.289886 
L 240.299443 278.231483 
L 241.299443 278.12053 
L 242.299443 278.049872 
L 243.299443 277.936932 
L 244.299443 277.891159 
L 245.299443 277.829876 
L 246.299443 277.781376 
L 247.299443 277.700554 
L 248.299443 277.582035 
L 249.299443 277.511824 
L 250.299443 277.428562 
L 251.299443 277.39542 
L 252.299443 277.344183 
L 253.299443 277.275784 
L 254.299443 277.209569 
L 255.299443 277.132652 
L 256.619695 277.105336 
" clip-path="url(#pabee1f2c33)" style="fill: none; stroke: #1f77b4; stroke-opacity: 0.5; stroke-width: 0.2; stroke-linecap: square"/>
   <path d="M 200.299443 271.836924 
L 201.299443 271.868361 
L 202.299443 271.905301 
L 203.299443 272.003048 
L 204.299443 272.035569 
L 205.299443 272.109194 
L 206.299443 272.14776 
L 207.299443 272.183173 
L 208.299443 272.240813 
L 209.299443 272.311199 
L 210.299443 272.363163 
L 211.299443 272.422253 
L 212.299443 272.510574 
L 213.299443 272.556718 
L 214.299443 272.599129 
L 215.299443 272.629622 
L 216.299443 272.655667 
L 217.299443 272.676867 
L 218.299443 272.731168 
L 219.299443 272.759105 
L 220.299443 272.788829 
L 221.299443 272.814224 
L 222.299443 272.825425 
L 223.299443 272.835549 
L 224.299443 272.835344 
L 225.299443 272.825834 
L 226.299443 272.814181 
L 227.299443 272.783152 
L 228.299443 272.771984 
L 229.299443 272.741866 
L 230.299443 272.682089 
L 231.299443 272.644898 
L 232.299443 272.605802 
L 233.299443 272.563362 
L 234.299443 272.530597 
L 235.299443 272.46317 
L 236.299443 272.424044 
L 237.299443 272.38137 
L 238.299443 272.310789 
L 239.299443 272.274398 
L 240.299443 272.215995 
L 241.299443 272.105043 
L 242.299443 272.034384 
L 243.299443 271.921444 
L 244.299443 271.875672 
L 245.299443 271.814388 
L 246.299443 271.765889 
L 247.299443 271.685066 
L 248.299443 271.566547 
L 249.299443 271.496337 
L 250.299443 271.413074 
L 251.299443 271.379933 
L 252.299443 271.328695 
L 253.299443 271.260297 
L 254.299443 271.194081 
L 255.299443 271.117164 
L 256.619695 271.089849 
" clip-path="url(#pabee1f2c33)" style="fill: none; stroke: #1f77b4; stroke-opacity: 0.5; stroke-width: 0.2; stroke-linecap: square"/>
   <path d="M 200.299443 235.883195 
L 201.299443 235.914631 
L 202.299443 235.951571 
L 203.299443 236.049318 
L 204.299443 236.08184 
L 205.299443 236.155464 
L 206.299443 236.19403 
L 207.299443 236.229443 
L 208.299443 236.287083 
L 209.299443 236.357469 
L 210.299443 236.409433 
L 211.299443 236.468523 
L 212.299443 236.556844 
L 213.299443 236.602988 
L 214.299443 236.645399 
L 215.299443 236.675892 
L 216.299443 236.701937 
L 217.299443 236.723137 
L 218.299443 236.777438 
L 219.299443 236.805376 
L 220.299443 236.8351 
L 221.299443 236.860494 
L 222.299443 236.871695 
L 223.299443 236.881819 
L 224.299443 236.881614 
L 225.299443 236.872105 
L 226.299443 236.860451 
L 227.299443 236.829422 
L 228.299443 236.818254 
L 229.299443 236.788136 
L 230.299443 236.728359 
L 231.299443 236.691168 
L 232.299443 236.652072 
L 233.299443 236.609632 
L 234.299443 236.576867 
L 235.299443 236.50944 
L 236.299443 236.470315 
L 237.299443 236.42764 
L 238.299443 236.357059 
L 239.299443 236.320669 
L 240.299443 236.262265 
L 241.299443 236.151313 
L 242.299443 236.080655 
L 243.299443 235.967715 
L 244.299443 235.921942 
L 245.299443 235.860659 
L 246.299443 235.812159 
L 247.299443 235.731337 
L 248.299443 235.612818 
L 249.299443 235.542607 
L 250.299443 235.459345 
L 251.299443 235.426203 
L 252.299443 235.374965 
L 253.299443 235.306567 
L 254.299443 235.240352 
L 255.299443 235.163435 
L 256.619695 235.136119 
" clip-path="url(#pabee1f2c33)" style="fill: none; stroke: #1f77b4; stroke-opacity: 0.5; stroke-width: 0.2; stroke-linecap: square"/>
   <path d="M 200.299443 173.60378 
L 201.299443 173.635217 
L 202.299443 173.672157 
L 203.299443 173.769904 
L 204.299443 173.802425 
L 205.299443 173.87605 
L 206.299443 173.914615 
L 207.299443 173.950029 
L 208.299443 174.007668 
L 209.299443 174.078055 
L 210.299443 174.130019 
L 211.299443 174.189109 
L 212.299443 174.27743 
L 213.299443 174.323574 
L 214.299443 174.365985 
L 215.299443 174.396478 
L 216.299443 174.422522 
L 217.299443 174.443723 
L 218.299443 174.498024 
L 219.299443 174.525961 
L 220.299443 174.555685 
L 221.299443 174.58108 
L 222.299443 174.59228 
L 223.299443 174.602404 
L 224.299443 174.6022 
L 225.299443 174.59269 
L 226.299443 174.581037 
L 227.299443 174.550007 
L 228.299443 174.538839 
L 229.299443 174.508722 
L 230.299443 174.448945 
L 231.299443 174.411753 
L 232.299443 174.372657 
L 233.299443 174.330218 
L 234.299443 174.297453 
L 235.299443 174.230026 
L 236.299443 174.1909 
L 237.299443 174.148226 
L 238.299443 174.077645 
L 239.299443 174.041254 
L 240.299443 173.982851 
L 241.299443 173.871898 
L 242.299443 173.80124 
L 243.299443 173.6883 
L 244.299443 173.642527 
L 245.299443 173.581244 
L 246.299443 173.532745 
L 247.299443 173.451922 
L 248.299443 173.333403 
L 249.299443 173.263193 
L 250.299443 173.17993 
L 251.299443 173.146788 
L 252.299443 173.095551 
L 253.299443 173.027153 
L 254.299443 172.960937 
L 255.299443 172.88402 
L 256.619695 172.856705 
" clip-path="url(#pabee1f2c33)" style="fill: none; stroke: #1f77b4; stroke-opacity: 0.5; stroke-width: 0.2; stroke-linecap: square"/>
   <path d="M 200.299443 96.265701 
L 201.299443 96.297137 
L 202.299443 96.334077 
L 203.299443 96.431824 
L 204.299443 96.464345 
L 205.299443 96.53797 
L 206.299443 96.576536 
L 207.299443 96.611949 
L 208.299443 96.669589 
L 209.299443 96.739975 
L 210.299443 96.791939 
L 211.299443 96.851029 
L 212.299443 96.93935 
L 213.299443 96.985494 
L 214.299443 97.027905 
L 215.299443 97.058398 
L 216.299443 97.084443 
L 217.299443 97.105643 
L 218.299443 97.159944 
L 219.299443 97.187882 
L 220.299443 97.217606 
L 221.299443 97.243 
L 222.299443 97.254201 
L 223.299443 97.264325 
L 224.299443 97.26412 
L 225.299443 97.25461 
L 226.299443 97.242957 
L 227.299443 97.211928 
L 228.299443 97.20076 
L 229.299443 97.170642 
L 230.299443 97.110865 
L 231.299443 97.073674 
L 232.299443 97.034578 
L 233.299443 96.992138 
L 234.299443 96.959373 
L 235.299443 96.891946 
L 236.299443 96.852821 
L 237.299443 96.810146 
L 238.299443 96.739565 
L 239.299443 96.703175 
L 240.299443 96.644771 
L 241.299443 96.533819 
L 242.299443 96.46316 
L 243.299443 96.350221 
L 244.299443 96.304448 
L 245.299443 96.243164 
L 246.299443 96.194665 
L 247.299443 96.113842 
L 248.299443 95.995324 
L 249.299443 95.925113 
L 250.299443 95.84185 
L 251.299443 95.808709 
L 252.299443 95.757471 
L 253.299443 95.689073 
L 254.299443 95.622858 
L 255.299443 95.545941 
L 256.619695 95.518625 
" clip-path="url(#pabee1f2c33)" style="fill: none; stroke: #1f77b4; stroke-opacity: 0.5; stroke-width: 0.2; stroke-linecap: square"/>
   <path d="M 256.619695 124.805054 
L 255.619695 124.773617 
L 254.619695 124.736677 
L 253.619695 124.63893 
L 252.619695 124.606409 
L 251.619695 124.532784 
L 250.619695 124.494218 
L 249.619695 124.458805 
L 248.619695 124.401165 
L 247.619695 124.330779 
L 246.619695 124.278815 
L 245.619695 124.219725 
L 244.619695 124.131404 
L 243.619695 124.08526 
L 242.619695 124.042849 
L 241.619695 124.012356 
L 240.619695 123.986311 
L 239.619695 123.965111 
L 238.619695 123.91081 
L 237.619695 123.882873 
L 236.619695 123.853149 
L 235.619695 123.827754 
L 234.619695 123.816553 
L 233.619695 123.80643 
L 232.619695 123.806634 
L 231.619695 123.816144 
L 230.619695 123.827797 
L 229.619695 123.858827 
L 228.619695 123.869994 
L 227.619695 123.900112 
L 226.619695 123.959889 
L 225.619695 123.99708 
L 224.619695 124.036177 
L 223.619695 124.078616 
L 222.619695 124.111381 
L 221.619695 124.178808 
L 220.619695 124.217934 
L 219.619695 124.260608 
L 218.619695 124.331189 
L 217.619695 124.36758 
L 216.619695 124.425983 
L 215.619695 124.536935 
L 214.619695 124.607594 
L 213.619695 124.720534 
L 212.619695 124.766306 
L 211.619695 124.82759 
L 210.619695 124.876089 
L 209.619695 124.956912 
L 208.619695 125.075431 
L 207.619695 125.145641 
L 206.619695 125.228904 
L 205.619695 125.262046 
L 204.619695 125.313283 
L 203.619695 125.381681 
L 202.619695 125.447897 
L 201.619695 125.524814 
L 200.299443 125.552129 
" clip-path="url(#pabee1f2c33)" style="fill: none; stroke: #ff7f0e; stroke-opacity: 0.5; stroke-width: 0.2; stroke-linecap: square"/>
   <path d="M 256.619695 210.236644 
L 255.619695 210.205207 
L 254.619695 210.168267 
L 253.619695 210.07052 
L 252.619695 210.037999 
L 251.619695 209.964374 
L 250.619695 209.925809 
L 249.619695 209.890395 
L 248.619695 209.832755 
L 247.619695 209.762369 
L 246.619695 209.710405 
L 245.619695 209.651315 
L 244.619695 209.562994 
L 243.619695 209.51685 
L 242.619695 209.474439 
L 241.619695 209.443946 
L 240.619695 209.417902 
L 239.619695 209.396701 
L 238.619695 209.3424 
L 237.619695 209.314463 
L 236.619695 209.284739 
L 235.619695 209.259344 
L 234.619695 209.248144 
L 233.619695 209.23802 
L 232.619695 209.238224 
L 231.619695 209.247734 
L 230.619695 209.259387 
L 229.619695 209.290417 
L 228.619695 209.301585 
L 227.619695 209.331702 
L 226.619695 209.391479 
L 225.619695 209.428671 
L 224.619695 209.467767 
L 223.619695 209.510206 
L 222.619695 209.542971 
L 221.619695 209.610398 
L 220.619695 209.649524 
L 219.619695 209.692198 
L 218.619695 209.762779 
L 217.619695 209.79917 
L 216.619695 209.857573 
L 215.619695 209.968526 
L 214.619695 210.039184 
L 213.619695 210.152124 
L 212.619695 210.197897 
L 211.619695 210.25918 
L 210.619695 210.307679 
L 209.619695 210.388502 
L 208.619695 210.507021 
L 207.619695 210.577231 
L 206.619695 210.660494 
L 205.619695 210.693636 
L 204.619695 210.744873 
L 203.619695 210.813271 
L 202.619695 210.879487 
L 201.619695 210.956404 
L 200.299443 210.983719 
" clip-path="url(#pabee1f2c33)" style="fill: none; stroke: #ff7f0e; stroke-opacity: 0.5; stroke-width: 0.2; stroke-linecap: square"/>
   <path d="M 256.619695 193.075945 
L 255.619695 193.044508 
L 254.619695 193.007568 
L 253.619695 192.909821 
L 252.619695 192.8773 
L 251.619695 192.803675 
L 250.619695 192.765109 
L 249.619695 192.729696 
L 248.619695 192.672056 
L 247.619695 192.60167 
L 246.619695 192.549706 
L 245.619695 192.490616 
L 244.619695 192.402295 
L 243.619695 192.356151 
L 242.619695 192.31374 
L 241.619695 192.283247 
L 240.619695 192.257202 
L 239.619695 192.236002 
L 238.619695 192.181701 
L 237.619695 192.153764 
L 236.619695 192.12404 
L 235.619695 192.098645 
L 234.619695 192.087444 
L 233.619695 192.07732 
L 232.619695 192.077525 
L 231.619695 192.087035 
L 230.619695 192.098688 
L 229.619695 192.129717 
L 228.619695 192.140885 
L 227.619695 192.171003 
L 226.619695 192.23078 
L 225.619695 192.267971 
L 224.619695 192.307067 
L 223.619695 192.349507 
L 222.619695 192.382272 
L 221.619695 192.449699 
L 220.619695 192.488825 
L 219.619695 192.531499 
L 218.619695 192.60208 
L 217.619695 192.638471 
L 216.619695 192.696874 
L 215.619695 192.807826 
L 214.619695 192.878485 
L 213.619695 192.991425 
L 212.619695 193.037197 
L 211.619695 193.098481 
L 210.619695 193.14698 
L 209.619695 193.227803 
L 208.619695 193.346322 
L 207.619695 193.416532 
L 206.619695 193.499795 
L 205.619695 193.532936 
L 204.619695 193.584174 
L 203.619695 193.652572 
L 202.619695 193.718788 
L 201.619695 193.795705 
L 200.299443 193.82302 
" clip-path="url(#pabee1f2c33)" style="fill: none; stroke: #ff7f0e; stroke-opacity: 0.5; stroke-width: 0.2; stroke-linecap: square"/>
   <path d="M 256.619695 221.631261 
L 255.619695 221.599824 
L 254.619695 221.562884 
L 253.619695 221.465137 
L 252.619695 221.432616 
L 251.619695 221.358991 
L 250.619695 221.320425 
L 249.619695 221.285012 
L 248.619695 221.227372 
L 247.619695 221.156986 
L 246.619695 221.105022 
L 245.619695 221.045932 
L 244.619695 220.957611 
L 243.619695 220.911467 
L 242.619695 220.869056 
L 241.619695 220.838563 
L 240.619695 220.812518 
L 239.619695 220.791318 
L 238.619695 220.737017 
L 237.619695 220.70908 
L 236.619695 220.679356 
L 235.619695 220.653961 
L 234.619695 220.64276 
L 233.619695 220.632636 
L 232.619695 220.632841 
L 231.619695 220.642351 
L 230.619695 220.654004 
L 229.619695 220.685034 
L 228.619695 220.696201 
L 227.619695 220.726319 
L 226.619695 220.786096 
L 225.619695 220.823287 
L 224.619695 220.862384 
L 223.619695 220.904823 
L 222.619695 220.937588 
L 221.619695 221.005015 
L 220.619695 221.044141 
L 219.619695 221.086815 
L 218.619695 221.157396 
L 217.619695 221.193787 
L 216.619695 221.25219 
L 215.619695 221.363142 
L 214.619695 221.433801 
L 213.619695 221.546741 
L 212.619695 221.592513 
L 211.619695 221.653797 
L 210.619695 221.702296 
L 209.619695 221.783119 
L 208.619695 221.901638 
L 207.619695 221.971848 
L 206.619695 222.055111 
L 205.619695 222.088252 
L 204.619695 222.13949 
L 203.619695 222.207888 
L 202.619695 222.274104 
L 201.619695 222.351021 
L 200.299443 222.378336 
" clip-path="url(#pabee1f2c33)" style="fill: none; stroke: #ff7f0e; stroke-opacity: 0.5; stroke-width: 0.2; stroke-linecap: square"/>
   <path d="M 256.619695 100.348536 
L 255.619695 100.3171 
L 254.619695 100.280159 
L 253.619695 100.182413 
L 252.619695 100.149891 
L 251.619695 100.076266 
L 250.619695 100.037701 
L 249.619695 100.002288 
L 248.619695 99.944648 
L 247.619695 99.874261 
L 246.619695 99.822297 
L 245.619695 99.763208 
L 244.619695 99.674887 
L 243.619695 99.628742 
L 242.619695 99.586331 
L 241.619695 99.555839 
L 240.619695 99.529794 
L 239.619695 99.508594 
L 238.619695 99.454292 
L 237.619695 99.426355 
L 236.619695 99.396631 
L 235.619695 99.371236 
L 234.619695 99.360036 
L 233.619695 99.349912 
L 232.619695 99.350116 
L 231.619695 99.359626 
L 230.619695 99.37128 
L 229.619695 99.402309 
L 228.619695 99.413477 
L 227.619695 99.443594 
L 226.619695 99.503371 
L 225.619695 99.540563 
L 224.619695 99.579659 
L 223.619695 99.622099 
L 222.619695 99.654864 
L 221.619695 99.72229 
L 220.619695 99.761416 
L 219.619695 99.804091 
L 218.619695 99.874671 
L 217.619695 99.911062 
L 216.619695 99.969465 
L 215.619695 100.080418 
L 214.619695 100.151076 
L 213.619695 100.264016 
L 212.619695 100.309789 
L 211.619695 100.371072 
L 210.619695 100.419571 
L 209.619695 100.500394 
L 208.619695 100.618913 
L 207.619695 100.689124 
L 206.619695 100.772386 
L 205.619695 100.805528 
L 204.619695 100.856765 
L 203.619695 100.925163 
L 202.619695 100.991379 
L 201.619695 101.068296 
L 200.299443 101.095611 
" clip-path="url(#pabee1f2c33)" style="fill: none; stroke: #ff7f0e; stroke-opacity: 0.5; stroke-width: 0.2; stroke-linecap: square"/>
   <path d="M 256.619695 213.244848 
L 255.619695 213.213412 
L 254.619695 213.176471 
L 253.619695 213.078725 
L 252.619695 213.046203 
L 251.619695 212.972578 
L 250.619695 212.934013 
L 249.619695 212.8986 
L 248.619695 212.84096 
L 247.619695 212.770573 
L 246.619695 212.718609 
L 245.619695 212.659519 
L 244.619695 212.571199 
L 243.619695 212.525054 
L 242.619695 212.482643 
L 241.619695 212.452151 
L 240.619695 212.426106 
L 239.619695 212.404906 
L 238.619695 212.350604 
L 237.619695 212.322667 
L 236.619695 212.292943 
L 235.619695 212.267548 
L 234.619695 212.256348 
L 233.619695 212.246224 
L 232.619695 212.246428 
L 231.619695 212.255938 
L 230.619695 212.267592 
L 229.619695 212.298621 
L 228.619695 212.309789 
L 227.619695 212.339906 
L 226.619695 212.399683 
L 225.619695 212.436875 
L 224.619695 212.475971 
L 223.619695 212.51841 
L 222.619695 212.551176 
L 221.619695 212.618602 
L 220.619695 212.657728 
L 219.619695 212.700402 
L 218.619695 212.770983 
L 217.619695 212.807374 
L 216.619695 212.865777 
L 215.619695 212.97673 
L 214.619695 213.047388 
L 213.619695 213.160328 
L 212.619695 213.206101 
L 211.619695 213.267384 
L 210.619695 213.315883 
L 209.619695 213.396706 
L 208.619695 213.515225 
L 207.619695 213.585436 
L 206.619695 213.668698 
L 205.619695 213.70184 
L 204.619695 213.753077 
L 203.619695 213.821475 
L 202.619695 213.887691 
L 201.619695 213.964608 
L 200.299443 213.991923 
" clip-path="url(#pabee1f2c33)" style="fill: none; stroke: #ff7f0e; stroke-opacity: 0.5; stroke-width: 0.2; stroke-linecap: square"/>
   <path d="M 256.619695 284.597776 
L 255.619695 284.56634 
L 254.619695 284.529399 
L 253.619695 284.431653 
L 252.619695 284.399131 
L 251.619695 284.325507 
L 250.619695 284.286941 
L 249.619695 284.251528 
L 248.619695 284.193888 
L 247.619695 284.123502 
L 246.619695 284.071537 
L 245.619695 284.012448 
L 244.619695 283.924127 
L 243.619695 283.877982 
L 242.619695 283.835572 
L 241.619695 283.805079 
L 240.619695 283.779034 
L 239.619695 283.757834 
L 238.619695 283.703533 
L 237.619695 283.675595 
L 236.619695 283.645871 
L 235.619695 283.620476 
L 234.619695 283.609276 
L 233.619695 283.599152 
L 232.619695 283.599356 
L 231.619695 283.608866 
L 230.619695 283.62052 
L 229.619695 283.651549 
L 228.619695 283.662717 
L 227.619695 283.692835 
L 226.619695 283.752611 
L 225.619695 283.789803 
L 224.619695 283.828899 
L 223.619695 283.871339 
L 222.619695 283.904104 
L 221.619695 283.97153 
L 220.619695 284.010656 
L 219.619695 284.053331 
L 218.619695 284.123911 
L 217.619695 284.160302 
L 216.619695 284.218705 
L 215.619695 284.329658 
L 214.619695 284.400316 
L 213.619695 284.513256 
L 212.619695 284.559029 
L 211.619695 284.620312 
L 210.619695 284.668812 
L 209.619695 284.749634 
L 208.619695 284.868153 
L 207.619695 284.938364 
L 206.619695 285.021626 
L 205.619695 285.054768 
L 204.619695 285.106005 
L 203.619695 285.174404 
L 202.619695 285.240619 
L 201.619695 285.317536 
L 200.299443 285.344852 
" clip-path="url(#pabee1f2c33)" style="fill: none; stroke: #ff7f0e; stroke-opacity: 0.5; stroke-width: 0.2; stroke-linecap: square"/>
   <path d="M 256.619695 310.807468 
L 255.619695 310.776031 
L 254.619695 310.739091 
L 253.619695 310.641344 
L 252.619695 310.608823 
L 251.619695 310.535198 
L 250.619695 310.496632 
L 249.619695 310.461219 
L 248.619695 310.403579 
L 247.619695 310.333193 
L 246.619695 310.281229 
L 245.619695 310.222139 
L 244.619695 310.133818 
L 243.619695 310.087674 
L 242.619695 310.045263 
L 241.619695 310.01477 
L 240.619695 309.988725 
L 239.619695 309.967525 
L 238.619695 309.913224 
L 237.619695 309.885287 
L 236.619695 309.855563 
L 235.619695 309.830168 
L 234.619695 309.818967 
L 233.619695 309.808843 
L 232.619695 309.809048 
L 231.619695 309.818558 
L 230.619695 309.830211 
L 229.619695 309.86124 
L 228.619695 309.872408 
L 227.619695 309.902526 
L 226.619695 309.962303 
L 225.619695 309.999494 
L 224.619695 310.03859 
L 223.619695 310.08103 
L 222.619695 310.113795 
L 221.619695 310.181222 
L 220.619695 310.220348 
L 219.619695 310.263022 
L 218.619695 310.333603 
L 217.619695 310.369994 
L 216.619695 310.428397 
L 215.619695 310.539349 
L 214.619695 310.610008 
L 213.619695 310.722948 
L 212.619695 310.76872 
L 211.619695 310.830004 
L 210.619695 310.878503 
L 209.619695 310.959326 
L 208.619695 311.077845 
L 207.619695 311.148055 
L 206.619695 311.231318 
L 205.619695 311.264459 
L 204.619695 311.315697 
L 203.619695 311.384095 
L 202.619695 311.450311 
L 201.619695 311.527228 
L 200.299443 311.554543 
" clip-path="url(#pabee1f2c33)" style="fill: none; stroke: #ff7f0e; stroke-opacity: 0.5; stroke-width: 0.2; stroke-linecap: square"/>
   <path d="M 256.619695 284.966289 
L 255.619695 284.934853 
L 254.619695 284.897913 
L 253.619695 284.800166 
L 252.619695 284.767644 
L 251.619695 284.69402 
L 250.619695 284.655454 
L 249.619695 284.620041 
L 248.619695 284.562401 
L 247.619695 284.492015 
L 246.619695 284.440051 
L 245.619695 284.380961 
L 244.619695 284.29264 
L 243.619695 284.246496 
L 242.619695 284.204085 
L 241.619695 284.173592 
L 240.619695 284.147547 
L 239.619695 284.126347 
L 238.619695 284.072046 
L 237.619695 284.044108 
L 236.619695 284.014384 
L 235.619695 283.98899 
L 234.619695 283.977789 
L 233.619695 283.967665 
L 232.619695 283.967869 
L 231.619695 283.977379 
L 230.619695 283.989033 
L 229.619695 284.020062 
L 228.619695 284.03123 
L 227.619695 284.061348 
L 226.619695 284.121125 
L 225.619695 284.158316 
L 224.619695 284.197412 
L 223.619695 284.239852 
L 222.619695 284.272617 
L 221.619695 284.340043 
L 220.619695 284.379169 
L 219.619695 284.421844 
L 218.619695 284.492424 
L 217.619695 284.528815 
L 216.619695 284.587219 
L 215.619695 284.698171 
L 214.619695 284.768829 
L 213.619695 284.881769 
L 212.619695 284.927542 
L 211.619695 284.988825 
L 210.619695 285.037325 
L 209.619695 285.118147 
L 208.619695 285.236666 
L 207.619695 285.306877 
L 206.619695 285.390139 
L 205.619695 285.423281 
L 204.619695 285.474518 
L 203.619695 285.542917 
L 202.619695 285.609132 
L 201.619695 285.686049 
L 200.299443 285.713365 
" clip-path="url(#pabee1f2c33)" style="fill: none; stroke: #ff7f0e; stroke-opacity: 0.5; stroke-width: 0.2; stroke-linecap: square"/>
   <path d="M 256.619695 258.937044 
L 255.619695 258.905608 
L 254.619695 258.868668 
L 253.619695 258.770921 
L 252.619695 258.7384 
L 251.619695 258.664775 
L 250.619695 258.626209 
L 249.619695 258.590796 
L 248.619695 258.533156 
L 247.619695 258.46277 
L 246.619695 258.410806 
L 245.619695 258.351716 
L 244.619695 258.263395 
L 243.619695 258.217251 
L 242.619695 258.17484 
L 241.619695 258.144347 
L 240.619695 258.118302 
L 239.619695 258.097102 
L 238.619695 258.042801 
L 237.619695 258.014863 
L 236.619695 257.985139 
L 235.619695 257.959745 
L 234.619695 257.948544 
L 233.619695 257.93842 
L 232.619695 257.938625 
L 231.619695 257.948135 
L 230.619695 257.959788 
L 229.619695 257.990817 
L 228.619695 258.001985 
L 227.619695 258.032103 
L 226.619695 258.09188 
L 225.619695 258.129071 
L 224.619695 258.168167 
L 223.619695 258.210607 
L 222.619695 258.243372 
L 221.619695 258.310799 
L 220.619695 258.349924 
L 219.619695 258.392599 
L 218.619695 258.46318 
L 217.619695 258.49957 
L 216.619695 258.557974 
L 215.619695 258.668926 
L 214.619695 258.739585 
L 213.619695 258.852524 
L 212.619695 258.898297 
L 211.619695 258.959581 
L 210.619695 259.00808 
L 209.619695 259.088903 
L 208.619695 259.207421 
L 207.619695 259.277632 
L 206.619695 259.360895 
L 205.619695 259.394036 
L 204.619695 259.445274 
L 203.619695 259.513672 
L 202.619695 259.579887 
L 201.619695 259.656804 
L 200.299443 259.68412 
" clip-path="url(#pabee1f2c33)" style="fill: none; stroke: #ff7f0e; stroke-opacity: 0.5; stroke-width: 0.2; stroke-linecap: square"/>
   <path d="M 390.34593 57.821836 
L 391.34593 57.853273 
L 392.34593 57.890213 
L 393.34593 57.987959 
L 394.34593 58.020481 
L 395.34593 58.094106 
L 396.34593 58.132671 
L 397.34593 58.168084 
L 398.34593 58.225724 
L 399.34593 58.296111 
L 400.34593 58.348075 
L 401.34593 58.407165 
L 402.34593 58.495486 
L 403.34593 58.54163 
L 404.34593 58.584041 
L 405.34593 58.614533 
L 406.34593 58.640578 
L 407.34593 58.661779 
L 408.34593 58.71608 
L 409.34593 58.744017 
L 410.34593 58.773741 
L 411.34593 58.799136 
L 412.34593 58.810336 
L 413.34593 58.82046 
L 414.34593 58.820256 
L 415.34593 58.810746 
L 416.34593 58.799093 
L 417.34593 58.768063 
L 418.34593 58.756895 
L 419.34593 58.726778 
L 420.34593 58.667001 
L 421.34593 58.629809 
L 422.34593 58.590713 
L 423.34593 58.548274 
L 424.34593 58.515508 
L 425.34593 58.448082 
L 426.34593 58.408956 
L 427.34593 58.366282 
L 428.34593 58.295701 
L 429.34593 58.25931 
L 430.34593 58.200907 
L 431.34593 58.089954 
L 432.34593 58.019296 
L 433.34593 57.906356 
L 434.34593 57.860583 
L 435.34593 57.7993 
L 436.34593 57.750801 
L 437.34593 57.669978 
L 438.34593 57.551459 
L 439.34593 57.481249 
L 440.34593 57.397986 
L 441.34593 57.364844 
L 442.34593 57.313607 
L 443.34593 57.245209 
L 444.34593 57.178993 
L 445.34593 57.102076 
L 446.666182 57.074761 
" clip-path="url(#pabee1f2c33)" style="fill: none; stroke: #ff7f0e; stroke-opacity: 0.5; stroke-width: 0.2; stroke-linecap: square"/>
   <path d="M 390.34593 37.76141 
L 391.34593 37.792847 
L 392.34593 37.829787 
L 393.34593 37.927533 
L 394.34593 37.960055 
L 395.34593 38.03368 
L 396.34593 38.072245 
L 397.34593 38.107658 
L 398.34593 38.165298 
L 399.34593 38.235685 
L 400.34593 38.287649 
L 401.34593 38.346739 
L 402.34593 38.43506 
L 403.34593 38.481204 
L 404.34593 38.523615 
L 405.34593 38.554107 
L 406.34593 38.580152 
L 407.34593 38.601353 
L 408.34593 38.655654 
L 409.34593 38.683591 
L 410.34593 38.713315 
L 411.34593 38.73871 
L 412.34593 38.74991 
L 413.34593 38.760034 
L 414.34593 38.75983 
L 415.34593 38.75032 
L 416.34593 38.738667 
L 417.34593 38.707637 
L 418.34593 38.696469 
L 419.34593 38.666352 
L 420.34593 38.606575 
L 421.34593 38.569383 
L 422.34593 38.530287 
L 423.34593 38.487848 
L 424.34593 38.455082 
L 425.34593 38.387656 
L 426.34593 38.34853 
L 427.34593 38.305856 
L 428.34593 38.235275 
L 429.34593 38.198884 
L 430.34593 38.140481 
L 431.34593 38.029528 
L 432.34593 37.95887 
L 433.34593 37.84593 
L 434.34593 37.800157 
L 435.34593 37.738874 
L 436.34593 37.690375 
L 437.34593 37.609552 
L 438.34593 37.491033 
L 439.34593 37.420823 
L 440.34593 37.33756 
L 441.34593 37.304418 
L 442.34593 37.253181 
L 443.34593 37.184783 
L 444.34593 37.118567 
L 445.34593 37.04165 
L 446.666182 37.014335 
" clip-path="url(#pabee1f2c33)" style="fill: none; stroke: #ff7f0e; stroke-opacity: 0.5; stroke-width: 0.2; stroke-linecap: square"/>
   <path d="M 390.34593 249.283628 
L 391.34593 249.315064 
L 392.34593 249.352004 
L 393.34593 249.449751 
L 394.34593 249.482273 
L 395.34593 249.555897 
L 396.34593 249.594463 
L 397.34593 249.629876 
L 398.34593 249.687516 
L 399.34593 249.757902 
L 400.34593 249.809866 
L 401.34593 249.868956 
L 402.34593 249.957277 
L 403.34593 250.003421 
L 404.34593 250.045832 
L 405.34593 250.076325 
L 406.34593 250.10237 
L 407.34593 250.12357 
L 408.34593 250.177871 
L 409.34593 250.205809 
L 410.34593 250.235533 
L 411.34593 250.260927 
L 412.34593 250.272128 
L 413.34593 250.282252 
L 414.34593 250.282047 
L 415.34593 250.272538 
L 416.34593 250.260884 
L 417.34593 250.229855 
L 418.34593 250.218687 
L 419.34593 250.188569 
L 420.34593 250.128792 
L 421.34593 250.091601 
L 422.34593 250.052505 
L 423.34593 250.010065 
L 424.34593 249.9773 
L 425.34593 249.909874 
L 426.34593 249.870748 
L 427.34593 249.828073 
L 428.34593 249.757492 
L 429.34593 249.721102 
L 430.34593 249.662698 
L 431.34593 249.551746 
L 432.34593 249.481088 
L 433.34593 249.368148 
L 434.34593 249.322375 
L 435.34593 249.261092 
L 436.34593 249.212592 
L 437.34593 249.13177 
L 438.34593 249.013251 
L 439.34593 248.94304 
L 440.34593 248.859778 
L 441.34593 248.826636 
L 442.34593 248.775398 
L 443.34593 248.707 
L 444.34593 248.640785 
L 445.34593 248.563868 
L 446.666182 248.536552 
" clip-path="url(#pabee1f2c33)" style="fill: none; stroke: #ff7f0e; stroke-opacity: 0.5; stroke-width: 0.2; stroke-linecap: square"/>
   <path d="M 390.34593 94.624099 
L 391.34593 94.655536 
L 392.34593 94.692476 
L 393.34593 94.790222 
L 394.34593 94.822744 
L 395.34593 94.896369 
L 396.34593 94.934934 
L 397.34593 94.970347 
L 398.34593 95.027987 
L 399.34593 95.098374 
L 400.34593 95.150338 
L 401.34593 95.209428 
L 402.34593 95.297749 
L 403.34593 95.343893 
L 404.34593 95.386304 
L 405.34593 95.416796 
L 406.34593 95.442841 
L 407.34593 95.464041 
L 408.34593 95.518343 
L 409.34593 95.54628 
L 410.34593 95.576004 
L 411.34593 95.601399 
L 412.34593 95.612599 
L 413.34593 95.622723 
L 414.34593 95.622519 
L 415.34593 95.613009 
L 416.34593 95.601356 
L 417.34593 95.570326 
L 418.34593 95.559158 
L 419.34593 95.529041 
L 420.34593 95.469264 
L 421.34593 95.432072 
L 422.34593 95.392976 
L 423.34593 95.350537 
L 424.34593 95.317771 
L 425.34593 95.250345 
L 426.34593 95.211219 
L 427.34593 95.168545 
L 428.34593 95.097964 
L 429.34593 95.061573 
L 430.34593 95.00317 
L 431.34593 94.892217 
L 432.34593 94.821559 
L 433.34593 94.708619 
L 434.34593 94.662846 
L 435.34593 94.601563 
L 436.34593 94.553064 
L 437.34593 94.472241 
L 438.34593 94.353722 
L 439.34593 94.283512 
L 440.34593 94.200249 
L 441.34593 94.167107 
L 442.34593 94.11587 
L 443.34593 94.047472 
L 444.34593 93.981256 
L 445.34593 93.904339 
L 446.666182 93.877024 
" clip-path="url(#pabee1f2c33)" style="fill: none; stroke: #ff7f0e; stroke-opacity: 0.5; stroke-width: 0.2; stroke-linecap: square"/>
   <path d="M 390.34593 262.503937 
L 391.34593 262.535373 
L 392.34593 262.572314 
L 393.34593 262.67006 
L 394.34593 262.702582 
L 395.34593 262.776206 
L 396.34593 262.814772 
L 397.34593 262.850185 
L 398.34593 262.907825 
L 399.34593 262.978211 
L 400.34593 263.030176 
L 401.34593 263.089265 
L 402.34593 263.177586 
L 403.34593 263.223731 
L 404.34593 263.266142 
L 405.34593 263.296634 
L 406.34593 263.322679 
L 407.34593 263.343879 
L 408.34593 263.39818 
L 409.34593 263.426118 
L 410.34593 263.455842 
L 411.34593 263.481237 
L 412.34593 263.492437 
L 413.34593 263.502561 
L 414.34593 263.502357 
L 415.34593 263.492847 
L 416.34593 263.481193 
L 417.34593 263.450164 
L 418.34593 263.438996 
L 419.34593 263.408879 
L 420.34593 263.349102 
L 421.34593 263.31191 
L 422.34593 263.272814 
L 423.34593 263.230374 
L 424.34593 263.197609 
L 425.34593 263.130183 
L 426.34593 263.091057 
L 427.34593 263.048382 
L 428.34593 262.977802 
L 429.34593 262.941411 
L 430.34593 262.883008 
L 431.34593 262.772055 
L 432.34593 262.701397 
L 433.34593 262.588457 
L 434.34593 262.542684 
L 435.34593 262.481401 
L 436.34593 262.432902 
L 437.34593 262.352079 
L 438.34593 262.23356 
L 439.34593 262.163349 
L 440.34593 262.080087 
L 441.34593 262.046945 
L 442.34593 261.995708 
L 443.34593 261.927309 
L 444.34593 261.861094 
L 445.34593 261.784177 
L 446.666182 261.756861 
" clip-path="url(#pabee1f2c33)" style="fill: none; stroke: #ff7f0e; stroke-opacity: 0.5; stroke-width: 0.2; stroke-linecap: square"/>
   <path d="M 390.34593 159.763647 
L 391.34593 159.795084 
L 392.34593 159.832024 
L 393.34593 159.92977 
L 394.34593 159.962292 
L 395.34593 160.035917 
L 396.34593 160.074482 
L 397.34593 160.109896 
L 398.34593 160.167535 
L 399.34593 160.237922 
L 400.34593 160.289886 
L 401.34593 160.348976 
L 402.34593 160.437297 
L 403.34593 160.483441 
L 404.34593 160.525852 
L 405.34593 160.556344 
L 406.34593 160.582389 
L 407.34593 160.60359 
L 408.34593 160.657891 
L 409.34593 160.685828 
L 410.34593 160.715552 
L 411.34593 160.740947 
L 412.34593 160.752147 
L 413.34593 160.762271 
L 414.34593 160.762067 
L 415.34593 160.752557 
L 416.34593 160.740904 
L 417.34593 160.709874 
L 418.34593 160.698706 
L 419.34593 160.668589 
L 420.34593 160.608812 
L 421.34593 160.57162 
L 422.34593 160.532524 
L 423.34593 160.490085 
L 424.34593 160.45732 
L 425.34593 160.389893 
L 426.34593 160.350767 
L 427.34593 160.308093 
L 428.34593 160.237512 
L 429.34593 160.201121 
L 430.34593 160.142718 
L 431.34593 160.031765 
L 432.34593 159.961107 
L 433.34593 159.848167 
L 434.34593 159.802394 
L 435.34593 159.741111 
L 436.34593 159.692612 
L 437.34593 159.611789 
L 438.34593 159.49327 
L 439.34593 159.42306 
L 440.34593 159.339797 
L 441.34593 159.306655 
L 442.34593 159.255418 
L 443.34593 159.18702 
L 444.34593 159.120804 
L 445.34593 159.043887 
L 446.666182 159.016572 
" clip-path="url(#pabee1f2c33)" style="fill: none; stroke: #ff7f0e; stroke-opacity: 0.5; stroke-width: 0.2; stroke-linecap: square"/>
   <path d="M 390.34593 208.176494 
L 391.34593 208.20793 
L 392.34593 208.244871 
L 393.34593 208.342617 
L 394.34593 208.375139 
L 395.34593 208.448763 
L 396.34593 208.487329 
L 397.34593 208.522742 
L 398.34593 208.580382 
L 399.34593 208.650768 
L 400.34593 208.702732 
L 401.34593 208.761822 
L 402.34593 208.850143 
L 403.34593 208.896287 
L 404.34593 208.938698 
L 405.34593 208.969191 
L 406.34593 208.995236 
L 407.34593 209.016436 
L 408.34593 209.070737 
L 409.34593 209.098675 
L 410.34593 209.128399 
L 411.34593 209.153794 
L 412.34593 209.164994 
L 413.34593 209.175118 
L 414.34593 209.174914 
L 415.34593 209.165404 
L 416.34593 209.15375 
L 417.34593 209.122721 
L 418.34593 209.111553 
L 419.34593 209.081435 
L 420.34593 209.021658 
L 421.34593 208.984467 
L 422.34593 208.945371 
L 423.34593 208.902931 
L 424.34593 208.870166 
L 425.34593 208.80274 
L 426.34593 208.763614 
L 427.34593 208.720939 
L 428.34593 208.650359 
L 429.34593 208.613968 
L 430.34593 208.555565 
L 431.34593 208.444612 
L 432.34593 208.373954 
L 433.34593 208.261014 
L 434.34593 208.215241 
L 435.34593 208.153958 
L 436.34593 208.105458 
L 437.34593 208.024636 
L 438.34593 207.906117 
L 439.34593 207.835906 
L 440.34593 207.752644 
L 441.34593 207.719502 
L 442.34593 207.668265 
L 443.34593 207.599866 
L 444.34593 207.533651 
L 445.34593 207.456734 
L 446.666182 207.429418 
" clip-path="url(#pabee1f2c33)" style="fill: none; stroke: #ff7f0e; stroke-opacity: 0.5; stroke-width: 0.2; stroke-linecap: square"/>
   <path d="M 390.34593 51.30657 
L 391.34593 51.338006 
L 392.34593 51.374947 
L 393.34593 51.472693 
L 394.34593 51.505215 
L 395.34593 51.57884 
L 396.34593 51.617405 
L 397.34593 51.652818 
L 398.34593 51.710458 
L 399.34593 51.780844 
L 400.34593 51.832809 
L 401.34593 51.891898 
L 402.34593 51.980219 
L 403.34593 52.026364 
L 404.34593 52.068775 
L 405.34593 52.099267 
L 406.34593 52.125312 
L 407.34593 52.146512 
L 408.34593 52.200813 
L 409.34593 52.228751 
L 410.34593 52.258475 
L 411.34593 52.28387 
L 412.34593 52.29507 
L 413.34593 52.305194 
L 414.34593 52.30499 
L 415.34593 52.29548 
L 416.34593 52.283826 
L 417.34593 52.252797 
L 418.34593 52.241629 
L 419.34593 52.211512 
L 420.34593 52.151735 
L 421.34593 52.114543 
L 422.34593 52.075447 
L 423.34593 52.033007 
L 424.34593 52.000242 
L 425.34593 51.932816 
L 426.34593 51.89369 
L 427.34593 51.851015 
L 428.34593 51.780435 
L 429.34593 51.744044 
L 430.34593 51.685641 
L 431.34593 51.574688 
L 432.34593 51.50403 
L 433.34593 51.39109 
L 434.34593 51.345317 
L 435.34593 51.284034 
L 436.34593 51.235535 
L 437.34593 51.154712 
L 438.34593 51.036193 
L 439.34593 50.965982 
L 440.34593 50.88272 
L 441.34593 50.849578 
L 442.34593 50.798341 
L 443.34593 50.729942 
L 444.34593 50.663727 
L 445.34593 50.58681 
L 446.666182 50.559494 
" clip-path="url(#pabee1f2c33)" style="fill: none; stroke: #ff7f0e; stroke-opacity: 0.5; stroke-width: 0.2; stroke-linecap: square"/>
   <path d="M 390.34593 144.599232 
L 391.34593 144.630669 
L 392.34593 144.667609 
L 393.34593 144.765356 
L 394.34593 144.797877 
L 395.34593 144.871502 
L 396.34593 144.910067 
L 397.34593 144.945481 
L 398.34593 145.003121 
L 399.34593 145.073507 
L 400.34593 145.125471 
L 401.34593 145.184561 
L 402.34593 145.272882 
L 403.34593 145.319026 
L 404.34593 145.361437 
L 405.34593 145.39193 
L 406.34593 145.417975 
L 407.34593 145.439175 
L 408.34593 145.493476 
L 409.34593 145.521413 
L 410.34593 145.551137 
L 411.34593 145.576532 
L 412.34593 145.587732 
L 413.34593 145.597856 
L 414.34593 145.597652 
L 415.34593 145.588142 
L 416.34593 145.576489 
L 417.34593 145.545459 
L 418.34593 145.534291 
L 419.34593 145.504174 
L 420.34593 145.444397 
L 421.34593 145.407205 
L 422.34593 145.368109 
L 423.34593 145.32567 
L 424.34593 145.292905 
L 425.34593 145.225478 
L 426.34593 145.186352 
L 427.34593 145.143678 
L 428.34593 145.073097 
L 429.34593 145.036706 
L 430.34593 144.978303 
L 431.34593 144.86735 
L 432.34593 144.796692 
L 433.34593 144.683752 
L 434.34593 144.637979 
L 435.34593 144.576696 
L 436.34593 144.528197 
L 437.34593 144.447374 
L 438.34593 144.328855 
L 439.34593 144.258645 
L 440.34593 144.175382 
L 441.34593 144.14224 
L 442.34593 144.091003 
L 443.34593 144.022605 
L 444.34593 143.956389 
L 445.34593 143.879472 
L 446.666182 143.852157 
" clip-path="url(#pabee1f2c33)" style="fill: none; stroke: #ff7f0e; stroke-opacity: 0.5; stroke-width: 0.2; stroke-linecap: square"/>
   <path d="M 390.34593 180.334478 
L 391.34593 180.365914 
L 392.34593 180.402855 
L 393.34593 180.500601 
L 394.34593 180.533123 
L 395.34593 180.606748 
L 396.34593 180.645313 
L 397.34593 180.680726 
L 398.34593 180.738366 
L 399.34593 180.808752 
L 400.34593 180.860717 
L 401.34593 180.919806 
L 402.34593 181.008127 
L 403.34593 181.054272 
L 404.34593 181.096683 
L 405.34593 181.127175 
L 406.34593 181.15322 
L 407.34593 181.17442 
L 408.34593 181.228721 
L 409.34593 181.256659 
L 410.34593 181.286383 
L 411.34593 181.311778 
L 412.34593 181.322978 
L 413.34593 181.333102 
L 414.34593 181.332898 
L 415.34593 181.323388 
L 416.34593 181.311734 
L 417.34593 181.280705 
L 418.34593 181.269537 
L 419.34593 181.23942 
L 420.34593 181.179643 
L 421.34593 181.142451 
L 422.34593 181.103355 
L 423.34593 181.060915 
L 424.34593 181.02815 
L 425.34593 180.960724 
L 426.34593 180.921598 
L 427.34593 180.878923 
L 428.34593 180.808343 
L 429.34593 180.771952 
L 430.34593 180.713549 
L 431.34593 180.602596 
L 432.34593 180.531938 
L 433.34593 180.418998 
L 434.34593 180.373225 
L 435.34593 180.311942 
L 436.34593 180.263443 
L 437.34593 180.18262 
L 438.34593 180.064101 
L 439.34593 179.99389 
L 440.34593 179.910628 
L 441.34593 179.877486 
L 442.34593 179.826249 
L 443.34593 179.75785 
L 444.34593 179.691635 
L 445.34593 179.614718 
L 446.666182 179.587402 
" clip-path="url(#pabee1f2c33)" style="fill: none; stroke: #ff7f0e; stroke-opacity: 0.5; stroke-width: 0.2; stroke-linecap: square"/>
   <path d="M 446.666182 121.520944 
L 445.666182 121.489507 
L 444.666182 121.452567 
L 443.666182 121.35482 
L 442.666182 121.322299 
L 441.666182 121.248674 
L 440.666182 121.210109 
L 439.666182 121.174695 
L 438.666182 121.117055 
L 437.666182 121.046669 
L 436.666182 120.994705 
L 435.666182 120.935615 
L 434.666182 120.847294 
L 433.666182 120.80115 
L 432.666182 120.758739 
L 431.666182 120.728246 
L 430.666182 120.702201 
L 429.666182 120.681001 
L 428.666182 120.6267 
L 427.666182 120.598763 
L 426.666182 120.569039 
L 425.666182 120.543644 
L 424.666182 120.532444 
L 423.666182 120.52232 
L 422.666182 120.522524 
L 421.666182 120.532034 
L 420.666182 120.543687 
L 419.666182 120.574717 
L 418.666182 120.585885 
L 417.666182 120.616002 
L 416.666182 120.675779 
L 415.666182 120.712971 
L 414.666182 120.752067 
L 413.666182 120.794506 
L 412.666182 120.827271 
L 411.666182 120.894698 
L 410.666182 120.933824 
L 409.666182 120.976498 
L 408.666182 121.047079 
L 407.666182 121.08347 
L 406.666182 121.141873 
L 405.666182 121.252826 
L 404.666182 121.323484 
L 403.666182 121.436424 
L 402.666182 121.482197 
L 401.666182 121.54348 
L 400.666182 121.591979 
L 399.666182 121.672802 
L 398.666182 121.791321 
L 397.666182 121.861531 
L 396.666182 121.944794 
L 395.666182 121.977936 
L 394.666182 122.029173 
L 393.666182 122.097571 
L 392.666182 122.163787 
L 391.666182 122.240704 
L 390.34593 122.268019 
" clip-path="url(#pabee1f2c33)" style="fill: none; stroke: #2ca02c; stroke-opacity: 0.5; stroke-width: 0.2; stroke-linecap: square"/>
   <path d="M 446.666182 49.028921 
L 445.666182 48.997485 
L 444.666182 48.960544 
L 443.666182 48.862798 
L 442.666182 48.830276 
L 441.666182 48.756652 
L 440.666182 48.718086 
L 439.666182 48.682673 
L 438.666182 48.625033 
L 437.666182 48.554647 
L 436.666182 48.502682 
L 435.666182 48.443593 
L 434.666182 48.355272 
L 433.666182 48.309127 
L 432.666182 48.266716 
L 431.666182 48.236224 
L 430.666182 48.210179 
L 429.666182 48.188979 
L 428.666182 48.134678 
L 427.666182 48.10674 
L 426.666182 48.077016 
L 425.666182 48.051621 
L 424.666182 48.040421 
L 423.666182 48.030297 
L 422.666182 48.030501 
L 421.666182 48.040011 
L 420.666182 48.051665 
L 419.666182 48.082694 
L 418.666182 48.093862 
L 417.666182 48.123979 
L 416.666182 48.183756 
L 415.666182 48.220948 
L 414.666182 48.260044 
L 413.666182 48.302484 
L 412.666182 48.335249 
L 411.666182 48.402675 
L 410.666182 48.441801 
L 409.666182 48.484476 
L 408.666182 48.555056 
L 407.666182 48.591447 
L 406.666182 48.64985 
L 405.666182 48.760803 
L 404.666182 48.831461 
L 403.666182 48.944401 
L 402.666182 48.990174 
L 401.666182 49.051457 
L 400.666182 49.099957 
L 399.666182 49.180779 
L 398.666182 49.299298 
L 397.666182 49.369509 
L 396.666182 49.452771 
L 395.666182 49.485913 
L 394.666182 49.53715 
L 393.666182 49.605549 
L 392.666182 49.671764 
L 391.666182 49.748681 
L 390.34593 49.775997 
" clip-path="url(#pabee1f2c33)" style="fill: none; stroke: #2ca02c; stroke-opacity: 0.5; stroke-width: 0.2; stroke-linecap: square"/>
   <path d="M 446.666182 248.197765 
L 445.666182 248.166328 
L 444.666182 248.129388 
L 443.666182 248.031642 
L 442.666182 247.99912 
L 441.666182 247.925495 
L 440.666182 247.88693 
L 439.666182 247.851517 
L 438.666182 247.793877 
L 437.666182 247.72349 
L 436.666182 247.671526 
L 435.666182 247.612436 
L 434.666182 247.524115 
L 433.666182 247.477971 
L 432.666182 247.43556 
L 431.666182 247.405068 
L 430.666182 247.379023 
L 429.666182 247.357822 
L 428.666182 247.303521 
L 427.666182 247.275584 
L 426.666182 247.24586 
L 425.666182 247.220465 
L 424.666182 247.209265 
L 423.666182 247.199141 
L 422.666182 247.199345 
L 421.666182 247.208855 
L 420.666182 247.220508 
L 419.666182 247.251538 
L 418.666182 247.262706 
L 417.666182 247.292823 
L 416.666182 247.3526 
L 415.666182 247.389792 
L 414.666182 247.428888 
L 413.666182 247.471327 
L 412.666182 247.504092 
L 411.666182 247.571519 
L 410.666182 247.610645 
L 409.666182 247.653319 
L 408.666182 247.7239 
L 407.666182 247.760291 
L 406.666182 247.818694 
L 405.666182 247.929647 
L 404.666182 248.000305 
L 403.666182 248.113245 
L 402.666182 248.159018 
L 401.666182 248.220301 
L 400.666182 248.2688 
L 399.666182 248.349623 
L 398.666182 248.468142 
L 397.666182 248.538352 
L 396.666182 248.621615 
L 395.666182 248.654757 
L 394.666182 248.705994 
L 393.666182 248.774392 
L 392.666182 248.840608 
L 391.666182 248.917525 
L 390.34593 248.94484 
" clip-path="url(#pabee1f2c33)" style="fill: none; stroke: #2ca02c; stroke-opacity: 0.5; stroke-width: 0.2; stroke-linecap: square"/>
   <path d="M 446.666182 279.883586 
L 445.666182 279.85215 
L 444.666182 279.815209 
L 443.666182 279.717463 
L 442.666182 279.684941 
L 441.666182 279.611317 
L 440.666182 279.572751 
L 439.666182 279.537338 
L 438.666182 279.479698 
L 437.666182 279.409312 
L 436.666182 279.357347 
L 435.666182 279.298258 
L 434.666182 279.209937 
L 433.666182 279.163792 
L 432.666182 279.121382 
L 431.666182 279.090889 
L 430.666182 279.064844 
L 429.666182 279.043644 
L 428.666182 278.989343 
L 427.666182 278.961405 
L 426.666182 278.931681 
L 425.666182 278.906286 
L 424.666182 278.895086 
L 423.666182 278.884962 
L 422.666182 278.885166 
L 421.666182 278.894676 
L 420.666182 278.90633 
L 419.666182 278.937359 
L 418.666182 278.948527 
L 417.666182 278.978644 
L 416.666182 279.038421 
L 415.666182 279.075613 
L 414.666182 279.114709 
L 413.666182 279.157149 
L 412.666182 279.189914 
L 411.666182 279.25734 
L 410.666182 279.296466 
L 409.666182 279.339141 
L 408.666182 279.409721 
L 407.666182 279.446112 
L 406.666182 279.504515 
L 405.666182 279.615468 
L 404.666182 279.686126 
L 403.666182 279.799066 
L 402.666182 279.844839 
L 401.666182 279.906122 
L 400.666182 279.954622 
L 399.666182 280.035444 
L 398.666182 280.153963 
L 397.666182 280.224174 
L 396.666182 280.307436 
L 395.666182 280.340578 
L 394.666182 280.391815 
L 393.666182 280.460214 
L 392.666182 280.526429 
L 391.666182 280.603346 
L 390.34593 280.630662 
" clip-path="url(#pabee1f2c33)" style="fill: none; stroke: #2ca02c; stroke-opacity: 0.5; stroke-width: 0.2; stroke-linecap: square"/>
   <path d="M 446.666182 83.183481 
L 445.666182 83.152045 
L 444.666182 83.115104 
L 443.666182 83.017358 
L 442.666182 82.984836 
L 441.666182 82.911212 
L 440.666182 82.872646 
L 439.666182 82.837233 
L 438.666182 82.779593 
L 437.666182 82.709207 
L 436.666182 82.657242 
L 435.666182 82.598153 
L 434.666182 82.509832 
L 433.666182 82.463687 
L 432.666182 82.421276 
L 431.666182 82.390784 
L 430.666182 82.364739 
L 429.666182 82.343539 
L 428.666182 82.289238 
L 427.666182 82.2613 
L 426.666182 82.231576 
L 425.666182 82.206181 
L 424.666182 82.194981 
L 423.666182 82.184857 
L 422.666182 82.185061 
L 421.666182 82.194571 
L 420.666182 82.206225 
L 419.666182 82.237254 
L 418.666182 82.248422 
L 417.666182 82.278539 
L 416.666182 82.338316 
L 415.666182 82.375508 
L 414.666182 82.414604 
L 413.666182 82.457044 
L 412.666182 82.489809 
L 411.666182 82.557235 
L 410.666182 82.596361 
L 409.666182 82.639036 
L 408.666182 82.709616 
L 407.666182 82.746007 
L 406.666182 82.80441 
L 405.666182 82.915363 
L 404.666182 82.986021 
L 403.666182 83.098961 
L 402.666182 83.144734 
L 401.666182 83.206017 
L 400.666182 83.254516 
L 399.666182 83.335339 
L 398.666182 83.453858 
L 397.666182 83.524069 
L 396.666182 83.607331 
L 395.666182 83.640473 
L 394.666182 83.69171 
L 393.666182 83.760109 
L 392.666182 83.826324 
L 391.666182 83.903241 
L 390.34593 83.930557 
" clip-path="url(#pabee1f2c33)" style="fill: none; stroke: #2ca02c; stroke-opacity: 0.5; stroke-width: 0.2; stroke-linecap: square"/>
   <path d="M 446.666182 194.387513 
L 445.666182 194.356077 
L 444.666182 194.319136 
L 443.666182 194.22139 
L 442.666182 194.188868 
L 441.666182 194.115244 
L 440.666182 194.076678 
L 439.666182 194.041265 
L 438.666182 193.983625 
L 437.666182 193.913239 
L 436.666182 193.861274 
L 435.666182 193.802185 
L 434.666182 193.713864 
L 433.666182 193.667719 
L 432.666182 193.625308 
L 431.666182 193.594816 
L 430.666182 193.568771 
L 429.666182 193.547571 
L 428.666182 193.49327 
L 427.666182 193.465332 
L 426.666182 193.435608 
L 425.666182 193.410213 
L 424.666182 193.399013 
L 423.666182 193.388889 
L 422.666182 193.389093 
L 421.666182 193.398603 
L 420.666182 193.410257 
L 419.666182 193.441286 
L 418.666182 193.452454 
L 417.666182 193.482571 
L 416.666182 193.542348 
L 415.666182 193.57954 
L 414.666182 193.618636 
L 413.666182 193.661076 
L 412.666182 193.693841 
L 411.666182 193.761267 
L 410.666182 193.800393 
L 409.666182 193.843068 
L 408.666182 193.913648 
L 407.666182 193.950039 
L 406.666182 194.008442 
L 405.666182 194.119395 
L 404.666182 194.190053 
L 403.666182 194.302993 
L 402.666182 194.348766 
L 401.666182 194.410049 
L 400.666182 194.458548 
L 399.666182 194.539371 
L 398.666182 194.65789 
L 397.666182 194.728101 
L 396.666182 194.811363 
L 395.666182 194.844505 
L 394.666182 194.895742 
L 393.666182 194.964141 
L 392.666182 195.030356 
L 391.666182 195.107273 
L 390.34593 195.134589 
" clip-path="url(#pabee1f2c33)" style="fill: none; stroke: #2ca02c; stroke-opacity: 0.5; stroke-width: 0.2; stroke-linecap: square"/>
   <path d="M 446.666182 111.862328 
L 445.666182 111.830892 
L 444.666182 111.793952 
L 443.666182 111.696205 
L 442.666182 111.663684 
L 441.666182 111.590059 
L 440.666182 111.551493 
L 439.666182 111.51608 
L 438.666182 111.45844 
L 437.666182 111.388054 
L 436.666182 111.33609 
L 435.666182 111.277 
L 434.666182 111.188679 
L 433.666182 111.142535 
L 432.666182 111.100124 
L 431.666182 111.069631 
L 430.666182 111.043586 
L 429.666182 111.022386 
L 428.666182 110.968085 
L 427.666182 110.940147 
L 426.666182 110.910423 
L 425.666182 110.885029 
L 424.666182 110.873828 
L 423.666182 110.863704 
L 422.666182 110.863909 
L 421.666182 110.873419 
L 420.666182 110.885072 
L 419.666182 110.916101 
L 418.666182 110.927269 
L 417.666182 110.957387 
L 416.666182 111.017164 
L 415.666182 111.054355 
L 414.666182 111.093451 
L 413.666182 111.135891 
L 412.666182 111.168656 
L 411.666182 111.236083 
L 410.666182 111.275209 
L 409.666182 111.317883 
L 408.666182 111.388464 
L 407.666182 111.424855 
L 406.666182 111.483258 
L 405.666182 111.59421 
L 404.666182 111.664869 
L 403.666182 111.777808 
L 402.666182 111.823581 
L 401.666182 111.884865 
L 400.666182 111.933364 
L 399.666182 112.014187 
L 398.666182 112.132705 
L 397.666182 112.202916 
L 396.666182 112.286179 
L 395.666182 112.31932 
L 394.666182 112.370558 
L 393.666182 112.438956 
L 392.666182 112.505171 
L 391.666182 112.582088 
L 390.34593 112.609404 
" clip-path="url(#pabee1f2c33)" style="fill: none; stroke: #2ca02c; stroke-opacity: 0.5; stroke-width: 0.2; stroke-linecap: square"/>
   <path d="M 446.666182 239.687763 
L 445.666182 239.656326 
L 444.666182 239.619386 
L 443.666182 239.52164 
L 442.666182 239.489118 
L 441.666182 239.415493 
L 440.666182 239.376928 
L 439.666182 239.341515 
L 438.666182 239.283875 
L 437.666182 239.213488 
L 436.666182 239.161524 
L 435.666182 239.102434 
L 434.666182 239.014113 
L 433.666182 238.967969 
L 432.666182 238.925558 
L 431.666182 238.895066 
L 430.666182 238.869021 
L 429.666182 238.847821 
L 428.666182 238.793519 
L 427.666182 238.765582 
L 426.666182 238.735858 
L 425.666182 238.710463 
L 424.666182 238.699263 
L 423.666182 238.689139 
L 422.666182 238.689343 
L 421.666182 238.698853 
L 420.666182 238.710506 
L 419.666182 238.741536 
L 418.666182 238.752704 
L 417.666182 238.782821 
L 416.666182 238.842598 
L 415.666182 238.87979 
L 414.666182 238.918886 
L 413.666182 238.961325 
L 412.666182 238.994091 
L 411.666182 239.061517 
L 410.666182 239.100643 
L 409.666182 239.143317 
L 408.666182 239.213898 
L 407.666182 239.250289 
L 406.666182 239.308692 
L 405.666182 239.419645 
L 404.666182 239.490303 
L 403.666182 239.603243 
L 402.666182 239.649016 
L 401.666182 239.710299 
L 400.666182 239.758798 
L 399.666182 239.839621 
L 398.666182 239.95814 
L 397.666182 240.02835 
L 396.666182 240.111613 
L 395.666182 240.144755 
L 394.666182 240.195992 
L 393.666182 240.26439 
L 392.666182 240.330606 
L 391.666182 240.407523 
L 390.34593 240.434838 
" clip-path="url(#pabee1f2c33)" style="fill: none; stroke: #2ca02c; stroke-opacity: 0.5; stroke-width: 0.2; stroke-linecap: square"/>
   <path d="M 446.666182 88.999292 
L 445.666182 88.967855 
L 444.666182 88.930915 
L 443.666182 88.833168 
L 442.666182 88.800647 
L 441.666182 88.727022 
L 440.666182 88.688456 
L 439.666182 88.653043 
L 438.666182 88.595403 
L 437.666182 88.525017 
L 436.666182 88.473053 
L 435.666182 88.413963 
L 434.666182 88.325642 
L 433.666182 88.279498 
L 432.666182 88.237087 
L 431.666182 88.206594 
L 430.666182 88.180549 
L 429.666182 88.159349 
L 428.666182 88.105048 
L 427.666182 88.077111 
L 426.666182 88.047387 
L 425.666182 88.021992 
L 424.666182 88.010791 
L 423.666182 88.000667 
L 422.666182 88.000872 
L 421.666182 88.010382 
L 420.666182 88.022035 
L 419.666182 88.053064 
L 418.666182 88.064232 
L 417.666182 88.09435 
L 416.666182 88.154127 
L 415.666182 88.191318 
L 414.666182 88.230415 
L 413.666182 88.272854 
L 412.666182 88.305619 
L 411.666182 88.373046 
L 410.666182 88.412172 
L 409.666182 88.454846 
L 408.666182 88.525427 
L 407.666182 88.561818 
L 406.666182 88.620221 
L 405.666182 88.731173 
L 404.666182 88.801832 
L 403.666182 88.914772 
L 402.666182 88.960544 
L 401.666182 89.021828 
L 400.666182 89.070327 
L 399.666182 89.15115 
L 398.666182 89.269669 
L 397.666182 89.339879 
L 396.666182 89.423142 
L 395.666182 89.456283 
L 394.666182 89.507521 
L 393.666182 89.575919 
L 392.666182 89.642135 
L 391.666182 89.719052 
L 390.34593 89.746367 
" clip-path="url(#pabee1f2c33)" style="fill: none; stroke: #2ca02c; stroke-opacity: 0.5; stroke-width: 0.2; stroke-linecap: square"/>
   <path d="M 446.666182 184.510853 
L 445.666182 184.479416 
L 444.666182 184.442476 
L 443.666182 184.344729 
L 442.666182 184.312208 
L 441.666182 184.238583 
L 440.666182 184.200017 
L 439.666182 184.164604 
L 438.666182 184.106964 
L 437.666182 184.036578 
L 436.666182 183.984614 
L 435.666182 183.925524 
L 434.666182 183.837203 
L 433.666182 183.791059 
L 432.666182 183.748648 
L 431.666182 183.718155 
L 430.666182 183.69211 
L 429.666182 183.67091 
L 428.666182 183.616609 
L 427.666182 183.588672 
L 426.666182 183.558948 
L 425.666182 183.533553 
L 424.666182 183.522352 
L 423.666182 183.512229 
L 422.666182 183.512433 
L 421.666182 183.521943 
L 420.666182 183.533596 
L 419.666182 183.564626 
L 418.666182 183.575793 
L 417.666182 183.605911 
L 416.666182 183.665688 
L 415.666182 183.702879 
L 414.666182 183.741976 
L 413.666182 183.784415 
L 412.666182 183.81718 
L 411.666182 183.884607 
L 410.666182 183.923733 
L 409.666182 183.966407 
L 408.666182 184.036988 
L 407.666182 184.073379 
L 406.666182 184.131782 
L 405.666182 184.242734 
L 404.666182 184.313393 
L 403.666182 184.426333 
L 402.666182 184.472105 
L 401.666182 184.533389 
L 400.666182 184.581888 
L 399.666182 184.662711 
L 398.666182 184.78123 
L 397.666182 184.85144 
L 396.666182 184.934703 
L 395.666182 184.967845 
L 394.666182 185.019082 
L 393.666182 185.08748 
L 392.666182 185.153696 
L 391.666182 185.230613 
L 390.34593 185.257928 
" clip-path="url(#pabee1f2c33)" style="fill: none; stroke: #2ca02c; stroke-opacity: 0.5; stroke-width: 0.2; stroke-linecap: square"/>
   <g id="patch_3">
    <path d="M 72.103551 22.318125 
L 72.103551 318.021875 
M 194.769099 22.318125 
L 194.769099 318.021875 
" clip-path="url(#pabee1f2c33)" style="fill: none; stroke: #ffffff; stroke-width: 3; stroke-linejoin: miter"/>
    <path d="M 72.103551 22.318125 
L 72.103551 318.021875 
M 194.769099 22.318125 
L 194.769099 318.021875 
" clip-path="url(#pabee1f2c33)" style="fill: none; stroke: #1f77b4; stroke-linejoin: miter"/>
    <g id="PolyCollection_1">
     <path d="M 194.769099 22.318125 
L 72.103551 22.318125 
L 72.103551 318.021875 
L 194.769099 318.021875 
L 194.769099 318.021875 
L 194.769099 22.318125 
z
" clip-path="url(#pabee1f2c33)" style="fill: #1f77b4; fill-opacity: 0.5"/>
    </g>
    <g id="patch_4">
     <path d="M 262.150038 22.318125 
L 262.150038 318.021875 
M 384.815587 22.318125 
L 384.815587 318.021875 
" clip-path="url(#pabee1f2c33)" style="fill: none; stroke: #ffffff; stroke-width: 3; stroke-linejoin: miter"/>
     <path d="M 262.150038 22.318125 
L 262.150038 318.021875 
M 384.815587 22.318125 
L 384.815587 318.021875 
" clip-path="url(#pabee1f2c33)" style="fill: none; stroke: #ff7f0e; stroke-linejoin: miter"/>
     <g id="PolyCollection_2">
      <path d="M 384.815587 22.318125 
L 262.150038 22.318125 
L 262.150038 318.021875 
L 384.815587 318.021875 
L 384.815587 318.021875 
L 384.815587 22.318125 
z
" clip-path="url(#pabee1f2c33)" style="fill: #ff7f0e; fill-opacity: 0.5"/>
     </g>
     <g id="patch_5">
      <path d="M 452.196526 22.318125 
L 452.196526 318.021875 
M 574.862074 22.318125 
L 574.862074 318.021875 
" clip-path="url(#pabee1f2c33)" style="fill: none; stroke: #ffffff; stroke-width: 3; stroke-linejoin: miter"/>
      <path d="M 452.196526 22.318125 
L 452.196526 318.021875 
M 574.862074 22.318125 
L 574.862074 318.021875 
" clip-path="url(#pabee1f2c33)" style="fill: none; stroke: #2ca02c; stroke-linejoin: miter"/>
      <g id="PolyCollection_3">
       <path d="M 574.862074 22.318125 
L 452.196526 22.318125 
L 452.196526 318.021875 
L 574.862074 318.021875 
L 574.862074 318.021875 
L 574.862074 22.318125 
z
" clip-path="url(#pabee1f2c33)" style="fill: #2ca02c; fill-opacity: 0.5"/>
      </g>
      <g id="matplotlib.axis_1">
       <g id="xtick_1">
        <g id="line2d_1"/>
        <g id="text_1">
         <!-- deme1 -->
         <g transform="translate(116.057419 329.120312) scale(0.1 -0.1)">
          <defs>
           <path id="DejaVuSans-64" d="M 2906 2969 
L 2906 4863 
L 3481 4863 
L 3481 0 
L 2906 0 
L 2906 525 
Q 2725 213 2448 61 
Q 2172 -91 1784 -91 
Q 1150 -91 751 415 
Q 353 922 353 1747 
Q 353 2572 751 3078 
Q 1150 3584 1784 3584 
Q 2172 3584 2448 3432 
Q 2725 3281 2906 2969 
z
M 947 1747 
Q 947 1113 1208 752 
Q 1469 391 1925 391 
Q 2381 391 2643 752 
Q 2906 1113 2906 1747 
Q 2906 2381 2643 2742 
Q 2381 3103 1925 3103 
Q 1469 3103 1208 2742 
Q 947 2381 947 1747 
z
" transform="scale(0.015625)"/>
           <path id="DejaVuSans-65" d="M 3597 1894 
L 3597 1613 
L 953 1613 
Q 991 1019 1311 708 
Q 1631 397 2203 397 
Q 2534 397 2845 478 
Q 3156 559 3463 722 
L 3463 178 
Q 3153 47 2828 -22 
Q 2503 -91 2169 -91 
Q 1331 -91 842 396 
Q 353 884 353 1716 
Q 353 2575 817 3079 
Q 1281 3584 2069 3584 
Q 2775 3584 3186 3129 
Q 3597 2675 3597 1894 
z
M 3022 2063 
Q 3016 2534 2758 2815 
Q 2500 3097 2075 3097 
Q 1594 3097 1305 2825 
Q 1016 2553 972 2059 
L 3022 2063 
z
" transform="scale(0.015625)"/>
           <path id="DejaVuSans-6d" d="M 3328 2828 
Q 3544 3216 3844 3400 
Q 4144 3584 4550 3584 
Q 5097 3584 5394 3201 
Q 5691 2819 5691 2113 
L 5691 0 
L 5113 0 
L 5113 2094 
Q 5113 2597 4934 2840 
Q 4756 3084 4391 3084 
Q 3944 3084 3684 2787 
Q 3425 2491 3425 1978 
L 3425 0 
L 2847 0 
L 2847 2094 
Q 2847 2600 2669 2842 
Q 2491 3084 2119 3084 
Q 1678 3084 1418 2786 
Q 1159 2488 1159 1978 
L 1159 0 
L 581 0 
L 581 3500 
L 1159 3500 
L 1159 2956 
Q 1356 3278 1631 3431 
Q 1906 3584 2284 3584 
Q 2666 3584 2933 3390 
Q 3200 3197 3328 2828 
z
" transform="scale(0.015625)"/>
           <path id="DejaVuSans-31" d="M 794 531 
L 1825 531 
L 1825 4091 
L 703 3866 
L 703 4441 
L 1819 4666 
L 2450 4666 
L 2450 531 
L 3481 531 
L 3481 0 
L 794 0 
L 794 531 
z
" transform="scale(0.015625)"/>
          </defs>
          <use xlink:href="#DejaVuSans-64"/>
          <use xlink:href="#DejaVuSans-65" x="63.476562"/>
          <use xlink:href="#DejaVuSans-6d" x="125"/>
          <use xlink:href="#DejaVuSans-65" x="222.412109"/>
          <use xlink:href="#DejaVuSans-31" x="283.935547"/>
         </g>
        </g>
       </g>
       <g id="xtick_2">
        <g id="line2d_2"/>
        <g id="text_2">
         <!-- deme2 -->
         <g transform="translate(306.103906 329.120312) scale(0.1 -0.1)">
          <defs>
           <path id="DejaVuSans-32" d="M 1228 531 
L 3431 531 
L 3431 0 
L 469 0 
L 469 531 
Q 828 903 1448 1529 
Q 2069 2156 2228 2338 
Q 2531 2678 2651 2914 
Q 2772 3150 2772 3378 
Q 2772 3750 2511 3984 
Q 2250 4219 1831 4219 
Q 1534 4219 1204 4116 
Q 875 4013 500 3803 
L 500 4441 
Q 881 4594 1212 4672 
Q 1544 4750 1819 4750 
Q 2544 4750 2975 4387 
Q 3406 4025 3406 3419 
Q 3406 3131 3298 2873 
Q 3191 2616 2906 2266 
Q 2828 2175 2409 1742 
Q 1991 1309 1228 531 
z
" transform="scale(0.015625)"/>
          </defs>
          <use xlink:href="#DejaVuSans-64"/>
          <use xlink:href="#DejaVuSans-65" x="63.476562"/>
          <use xlink:href="#DejaVuSans-6d" x="125"/>
          <use xlink:href="#DejaVuSans-65" x="222.412109"/>
          <use xlink:href="#DejaVuSans-32" x="283.935547"/>
         </g>
        </g>
       </g>
       <g id="xtick_3">
        <g id="line2d_3"/>
        <g id="text_3">
         <!-- deme3 -->
         <g transform="translate(496.150394 329.120312) scale(0.1 -0.1)">
          <defs>
           <path id="DejaVuSans-33" d="M 2597 2516 
Q 3050 2419 3304 2112 
Q 3559 1806 3559 1356 
Q 3559 666 3084 287 
Q 2609 -91 1734 -91 
Q 1441 -91 1130 -33 
Q 819 25 488 141 
L 488 750 
Q 750 597 1062 519 
Q 1375 441 1716 441 
Q 2309 441 2620 675 
Q 2931 909 2931 1356 
Q 2931 1769 2642 2001 
Q 2353 2234 1838 2234 
L 1294 2234 
L 1294 2753 
L 1863 2753 
Q 2328 2753 2575 2939 
Q 2822 3125 2822 3475 
Q 2822 3834 2567 4026 
Q 2313 4219 1838 4219 
Q 1578 4219 1281 4162 
Q 984 4106 628 3988 
L 628 4550 
Q 988 4650 1302 4700 
Q 1616 4750 1894 4750 
Q 2613 4750 3031 4423 
Q 3450 4097 3450 3541 
Q 3450 3153 3228 2886 
Q 3006 2619 2597 2516 
z
" transform="scale(0.015625)"/>
          </defs>
          <use xlink:href="#DejaVuSans-64"/>
          <use xlink:href="#DejaVuSans-65" x="63.476562"/>
          <use xlink:href="#DejaVuSans-6d" x="125"/>
          <use xlink:href="#DejaVuSans-65" x="222.412109"/>
          <use xlink:href="#DejaVuSans-33" x="283.935547"/>
         </g>
        </g>
       </g>
      </g>
      <g id="matplotlib.axis_2">
       <g id="ytick_1">
        <g id="line2d_4">
         <defs>
          <path id="m1687c42f79" d="M 0 0 
L -3.5 0 
" style="stroke: #000000; stroke-width: 0.8"/>
         </defs>
         <g>
          <use xlink:href="#m1687c42f79" x="46.965625" y="318.021875" style="stroke: #000000; stroke-width: 0.8"/>
         </g>
        </g>
        <g id="text_4">
         <!-- 0 -->
         <g transform="translate(33.603125 321.821094) scale(0.1 -0.1)">
          <defs>
           <path id="DejaVuSans-30" d="M 2034 4250 
Q 1547 4250 1301 3770 
Q 1056 3291 1056 2328 
Q 1056 1369 1301 889 
Q 1547 409 2034 409 
Q 2525 409 2770 889 
Q 3016 1369 3016 2328 
Q 3016 3291 2770 3770 
Q 2525 4250 2034 4250 
z
M 2034 4750 
Q 2819 4750 3233 4129 
Q 3647 3509 3647 2328 
Q 3647 1150 3233 529 
Q 2819 -91 2034 -91 
Q 1250 -91 836 529 
Q 422 1150 422 2328 
Q 422 3509 836 4129 
Q 1250 4750 2034 4750 
z
" transform="scale(0.015625)"/>
          </defs>
          <use xlink:href="#DejaVuSans-30"/>
         </g>
        </g>
       </g>
       <g id="ytick_2">
        <g id="line2d_5">
         <g>
          <use xlink:href="#m1687c42f79" x="46.965625" y="265.684928" style="stroke: #000000; stroke-width: 0.8"/>
         </g>
        </g>
        <g id="text_5">
         <!-- 20 -->
         <g transform="translate(27.240625 269.484147) scale(0.1 -0.1)">
          <use xlink:href="#DejaVuSans-32"/>
          <use xlink:href="#DejaVuSans-30" x="63.623047"/>
         </g>
        </g>
       </g>
       <g id="ytick_3">
        <g id="line2d_6">
         <g>
          <use xlink:href="#m1687c42f79" x="46.965625" y="213.347981" style="stroke: #000000; stroke-width: 0.8"/>
         </g>
        </g>
        <g id="text_6">
         <!-- 40 -->
         <g transform="translate(27.240625 217.1472) scale(0.1 -0.1)">
          <defs>
           <path id="DejaVuSans-34" d="M 2419 4116 
L 825 1625 
L 2419 1625 
L 2419 4116 
z
M 2253 4666 
L 3047 4666 
L 3047 1625 
L 3713 1625 
L 3713 1100 
L 3047 1100 
L 3047 0 
L 2419 0 
L 2419 1100 
L 313 1100 
L 313 1709 
L 2253 4666 
z
" transform="scale(0.015625)"/>
          </defs>
          <use xlink:href="#DejaVuSans-34"/>
          <use xlink:href="#DejaVuSans-30" x="63.623047"/>
         </g>
        </g>
       </g>
       <g id="ytick_4">
        <g id="line2d_7">
         <g>
          <use xlink:href="#m1687c42f79" x="46.965625" y="161.011034" style="stroke: #000000; stroke-width: 0.8"/>
         </g>
        </g>
        <g id="text_7">
         <!-- 60 -->
         <g transform="translate(27.240625 164.810253) scale(0.1 -0.1)">
          <defs>
           <path id="DejaVuSans-36" d="M 2113 2584 
Q 1688 2584 1439 2293 
Q 1191 2003 1191 1497 
Q 1191 994 1439 701 
Q 1688 409 2113 409 
Q 2538 409 2786 701 
Q 3034 994 3034 1497 
Q 3034 2003 2786 2293 
Q 2538 2584 2113 2584 
z
M 3366 4563 
L 3366 3988 
Q 3128 4100 2886 4159 
Q 2644 4219 2406 4219 
Q 1781 4219 1451 3797 
Q 1122 3375 1075 2522 
Q 1259 2794 1537 2939 
Q 1816 3084 2150 3084 
Q 2853 3084 3261 2657 
Q 3669 2231 3669 1497 
Q 3669 778 3244 343 
Q 2819 -91 2113 -91 
Q 1303 -91 875 529 
Q 447 1150 447 2328 
Q 447 3434 972 4092 
Q 1497 4750 2381 4750 
Q 2619 4750 2861 4703 
Q 3103 4656 3366 4563 
z
" transform="scale(0.015625)"/>
          </defs>
          <use xlink:href="#DejaVuSans-36"/>
          <use xlink:href="#DejaVuSans-30" x="63.623047"/>
         </g>
        </g>
       </g>
       <g id="ytick_5">
        <g id="line2d_8">
         <g>
          <use xlink:href="#m1687c42f79" x="46.965625" y="108.674087" style="stroke: #000000; stroke-width: 0.8"/>
         </g>
        </g>
        <g id="text_8">
         <!-- 80 -->
         <g transform="translate(27.240625 112.473306) scale(0.1 -0.1)">
          <defs>
           <path id="DejaVuSans-38" d="M 2034 2216 
Q 1584 2216 1326 1975 
Q 1069 1734 1069 1313 
Q 1069 891 1326 650 
Q 1584 409 2034 409 
Q 2484 409 2743 651 
Q 3003 894 3003 1313 
Q 3003 1734 2745 1975 
Q 2488 2216 2034 2216 
z
M 1403 2484 
Q 997 2584 770 2862 
Q 544 3141 544 3541 
Q 544 4100 942 4425 
Q 1341 4750 2034 4750 
Q 2731 4750 3128 4425 
Q 3525 4100 3525 3541 
Q 3525 3141 3298 2862 
Q 3072 2584 2669 2484 
Q 3125 2378 3379 2068 
Q 3634 1759 3634 1313 
Q 3634 634 3220 271 
Q 2806 -91 2034 -91 
Q 1263 -91 848 271 
Q 434 634 434 1313 
Q 434 1759 690 2068 
Q 947 2378 1403 2484 
z
M 1172 3481 
Q 1172 3119 1398 2916 
Q 1625 2713 2034 2713 
Q 2441 2713 2670 2916 
Q 2900 3119 2900 3481 
Q 2900 3844 2670 4047 
Q 2441 4250 2034 4250 
Q 1625 4250 1398 4047 
Q 1172 3844 1172 3481 
z
" transform="scale(0.015625)"/>
          </defs>
          <use xlink:href="#DejaVuSans-38"/>
          <use xlink:href="#DejaVuSans-30" x="63.623047"/>
         </g>
        </g>
       </g>
       <g id="ytick_6">
        <g id="line2d_9">
         <g>
          <use xlink:href="#m1687c42f79" x="46.965625" y="56.33714" style="stroke: #000000; stroke-width: 0.8"/>
         </g>
        </g>
        <g id="text_9">
         <!-- 100 -->
         <g transform="translate(20.878125 60.136359) scale(0.1 -0.1)">
          <use xlink:href="#DejaVuSans-31"/>
          <use xlink:href="#DejaVuSans-30" x="63.623047"/>
          <use xlink:href="#DejaVuSans-30" x="127.246094"/>
         </g>
        </g>
       </g>
       <g id="text_10">
        <!-- time ago (years) -->
        <g transform="translate(14.798437 211.603594) rotate(-90) scale(0.1 -0.1)">
         <defs>
          <path id="DejaVuSans-74" d="M 1172 4494 
L 1172 3500 
L 2356 3500 
L 2356 3053 
L 1172 3053 
L 1172 1153 
Q 1172 725 1289 603 
Q 1406 481 1766 481 
L 2356 481 
L 2356 0 
L 1766 0 
Q 1100 0 847 248 
Q 594 497 594 1153 
L 594 3053 
L 172 3053 
L 172 3500 
L 594 3500 
L 594 4494 
L 1172 4494 
z
" transform="scale(0.015625)"/>
          <path id="DejaVuSans-69" d="M 603 3500 
L 1178 3500 
L 1178 0 
L 603 0 
L 603 3500 
z
M 603 4863 
L 1178 4863 
L 1178 4134 
L 603 4134 
L 603 4863 
z
" transform="scale(0.015625)"/>
          <path id="DejaVuSans-20" transform="scale(0.015625)"/>
          <path id="DejaVuSans-61" d="M 2194 1759 
Q 1497 1759 1228 1600 
Q 959 1441 959 1056 
Q 959 750 1161 570 
Q 1363 391 1709 391 
Q 2188 391 2477 730 
Q 2766 1069 2766 1631 
L 2766 1759 
L 2194 1759 
z
M 3341 1997 
L 3341 0 
L 2766 0 
L 2766 531 
Q 2569 213 2275 61 
Q 1981 -91 1556 -91 
Q 1019 -91 701 211 
Q 384 513 384 1019 
Q 384 1609 779 1909 
Q 1175 2209 1959 2209 
L 2766 2209 
L 2766 2266 
Q 2766 2663 2505 2880 
Q 2244 3097 1772 3097 
Q 1472 3097 1187 3025 
Q 903 2953 641 2809 
L 641 3341 
Q 956 3463 1253 3523 
Q 1550 3584 1831 3584 
Q 2591 3584 2966 3190 
Q 3341 2797 3341 1997 
z
" transform="scale(0.015625)"/>
          <path id="DejaVuSans-67" d="M 2906 1791 
Q 2906 2416 2648 2759 
Q 2391 3103 1925 3103 
Q 1463 3103 1205 2759 
Q 947 2416 947 1791 
Q 947 1169 1205 825 
Q 1463 481 1925 481 
Q 2391 481 2648 825 
Q 2906 1169 2906 1791 
z
M 3481 434 
Q 3481 -459 3084 -895 
Q 2688 -1331 1869 -1331 
Q 1566 -1331 1297 -1286 
Q 1028 -1241 775 -1147 
L 775 -588 
Q 1028 -725 1275 -790 
Q 1522 -856 1778 -856 
Q 2344 -856 2625 -561 
Q 2906 -266 2906 331 
L 2906 616 
Q 2728 306 2450 153 
Q 2172 0 1784 0 
Q 1141 0 747 490 
Q 353 981 353 1791 
Q 353 2603 747 3093 
Q 1141 3584 1784 3584 
Q 2172 3584 2450 3431 
Q 2728 3278 2906 2969 
L 2906 3500 
L 3481 3500 
L 3481 434 
z
" transform="scale(0.015625)"/>
          <path id="DejaVuSans-6f" d="M 1959 3097 
Q 1497 3097 1228 2736 
Q 959 2375 959 1747 
Q 959 1119 1226 758 
Q 1494 397 1959 397 
Q 2419 397 2687 759 
Q 2956 1122 2956 1747 
Q 2956 2369 2687 2733 
Q 2419 3097 1959 3097 
z
M 1959 3584 
Q 2709 3584 3137 3096 
Q 3566 2609 3566 1747 
Q 3566 888 3137 398 
Q 2709 -91 1959 -91 
Q 1206 -91 779 398 
Q 353 888 353 1747 
Q 353 2609 779 3096 
Q 1206 3584 1959 3584 
z
" transform="scale(0.015625)"/>
          <path id="DejaVuSans-28" d="M 1984 4856 
Q 1566 4138 1362 3434 
Q 1159 2731 1159 2009 
Q 1159 1288 1364 580 
Q 1569 -128 1984 -844 
L 1484 -844 
Q 1016 -109 783 600 
Q 550 1309 550 2009 
Q 550 2706 781 3412 
Q 1013 4119 1484 4856 
L 1984 4856 
z
" transform="scale(0.015625)"/>
          <path id="DejaVuSans-79" d="M 2059 -325 
Q 1816 -950 1584 -1140 
Q 1353 -1331 966 -1331 
L 506 -1331 
L 506 -850 
L 844 -850 
Q 1081 -850 1212 -737 
Q 1344 -625 1503 -206 
L 1606 56 
L 191 3500 
L 800 3500 
L 1894 763 
L 2988 3500 
L 3597 3500 
L 2059 -325 
z
" transform="scale(0.015625)"/>
          <path id="DejaVuSans-72" d="M 2631 2963 
Q 2534 3019 2420 3045 
Q 2306 3072 2169 3072 
Q 1681 3072 1420 2755 
Q 1159 2438 1159 1844 
L 1159 0 
L 581 0 
L 581 3500 
L 1159 3500 
L 1159 2956 
Q 1341 3275 1631 3429 
Q 1922 3584 2338 3584 
Q 2397 3584 2469 3576 
Q 2541 3569 2628 3553 
L 2631 2963 
z
" transform="scale(0.015625)"/>
          <path id="DejaVuSans-73" d="M 2834 3397 
L 2834 2853 
Q 2591 2978 2328 3040 
Q 2066 3103 1784 3103 
Q 1356 3103 1142 2972 
Q 928 2841 928 2578 
Q 928 2378 1081 2264 
Q 1234 2150 1697 2047 
L 1894 2003 
Q 2506 1872 2764 1633 
Q 3022 1394 3022 966 
Q 3022 478 2636 193 
Q 2250 -91 1575 -91 
Q 1294 -91 989 -36 
Q 684 19 347 128 
L 347 722 
Q 666 556 975 473 
Q 1284 391 1588 391 
Q 1994 391 2212 530 
Q 2431 669 2431 922 
Q 2431 1156 2273 1281 
Q 2116 1406 1581 1522 
L 1381 1569 
Q 847 1681 609 1914 
Q 372 2147 372 2553 
Q 372 3047 722 3315 
Q 1072 3584 1716 3584 
Q 2034 3584 2315 3537 
Q 2597 3491 2834 3397 
z
" transform="scale(0.015625)"/>
          <path id="DejaVuSans-29" d="M 513 4856 
L 1013 4856 
Q 1481 4119 1714 3412 
Q 1947 2706 1947 2009 
Q 1947 1309 1714 600 
Q 1481 -109 1013 -844 
L 513 -844 
Q 928 -128 1133 580 
Q 1338 1288 1338 2009 
Q 1338 2731 1133 3434 
Q 928 4138 513 4856 
z
" transform="scale(0.015625)"/>
         </defs>
         <use xlink:href="#DejaVuSans-74"/>
         <use xlink:href="#DejaVuSans-69" x="39.208984"/>
         <use xlink:href="#DejaVuSans-6d" x="66.992188"/>
         <use xlink:href="#DejaVuSans-65" x="164.404297"/>
         <use xlink:href="#DejaVuSans-20" x="225.927734"/>
         <use xlink:href="#DejaVuSans-61" x="257.714844"/>
         <use xlink:href="#DejaVuSans-67" x="318.994141"/>
         <use xlink:href="#DejaVuSans-6f" x="382.470703"/>
         <use xlink:href="#DejaVuSans-20" x="443.652344"/>
         <use xlink:href="#DejaVuSans-28" x="475.439453"/>
         <use xlink:href="#DejaVuSans-79" x="514.453125"/>
         <use xlink:href="#DejaVuSans-65" x="573.632812"/>
         <use xlink:href="#DejaVuSans-61" x="635.15625"/>
         <use xlink:href="#DejaVuSans-72" x="696.435547"/>
         <use xlink:href="#DejaVuSans-73" x="737.548828"/>
         <use xlink:href="#DejaVuSans-29" x="789.648438"/>
        </g>
       </g>
      </g>
      <path d="M 257.619695 223.510476 
L 255.619695 222.510476 
L 255.619695 224.510476 
z
" clip-path="url(#pabee1f2c33)" style="fill: #1f77b4; fill-opacity: 0.5; stroke: #1f77b4; stroke-opacity: 0.5; stroke-linejoin: miter"/>
      <path d="M 257.619695 238.15097 
L 255.619695 237.15097 
L 255.619695 239.15097 
z
" clip-path="url(#pabee1f2c33)" style="fill: #1f77b4; fill-opacity: 0.5; stroke: #1f77b4; stroke-opacity: 0.5; stroke-linejoin: miter"/>
      <path d="M 257.619695 61.359674 
L 255.619695 60.359674 
L 255.619695 62.359674 
z
" clip-path="url(#pabee1f2c33)" style="fill: #1f77b4; fill-opacity: 0.5; stroke: #1f77b4; stroke-opacity: 0.5; stroke-linejoin: miter"/>
      <path d="M 257.619695 24.971785 
L 255.619695 23.971785 
L 255.619695 25.971785 
z
" clip-path="url(#pabee1f2c33)" style="fill: #1f77b4; fill-opacity: 0.5; stroke: #1f77b4; stroke-opacity: 0.5; stroke-linejoin: miter"/>
      <path d="M 257.619695 146.937829 
L 255.619695 145.937829 
L 255.619695 147.937829 
z
" clip-path="url(#pabee1f2c33)" style="fill: #1f77b4; fill-opacity: 0.5; stroke: #1f77b4; stroke-opacity: 0.5; stroke-linejoin: miter"/>
      <path d="M 257.619695 277.852412 
L 255.619695 276.852412 
L 255.619695 278.852412 
z
" clip-path="url(#pabee1f2c33)" style="fill: #1f77b4; fill-opacity: 0.5; stroke: #1f77b4; stroke-opacity: 0.5; stroke-linejoin: miter"/>
      <path d="M 257.619695 271.836924 
L 255.619695 270.836924 
L 255.619695 272.836924 
z
" clip-path="url(#pabee1f2c33)" style="fill: #1f77b4; fill-opacity: 0.5; stroke: #1f77b4; stroke-opacity: 0.5; stroke-linejoin: miter"/>
      <path d="M 257.619695 235.883195 
L 255.619695 234.883195 
L 255.619695 236.883195 
z
" clip-path="url(#pabee1f2c33)" style="fill: #1f77b4; fill-opacity: 0.5; stroke: #1f77b4; stroke-opacity: 0.5; stroke-linejoin: miter"/>
      <path d="M 257.619695 173.60378 
L 255.619695 172.60378 
L 255.619695 174.60378 
z
" clip-path="url(#pabee1f2c33)" style="fill: #1f77b4; fill-opacity: 0.5; stroke: #1f77b4; stroke-opacity: 0.5; stroke-linejoin: miter"/>
      <path d="M 257.619695 96.265701 
L 255.619695 95.265701 
L 255.619695 97.265701 
z
" clip-path="url(#pabee1f2c33)" style="fill: #1f77b4; fill-opacity: 0.5; stroke: #1f77b4; stroke-opacity: 0.5; stroke-linejoin: miter"/>
      <path d="M 199.299443 124.805054 
L 201.299443 125.805054 
L 201.299443 123.805054 
z
" clip-path="url(#pabee1f2c33)" style="fill: #ff7f0e; fill-opacity: 0.5; stroke: #ff7f0e; stroke-opacity: 0.5; stroke-linejoin: miter"/>
      <path d="M 199.299443 210.236644 
L 201.299443 211.236644 
L 201.299443 209.236644 
z
" clip-path="url(#pabee1f2c33)" style="fill: #ff7f0e; fill-opacity: 0.5; stroke: #ff7f0e; stroke-opacity: 0.5; stroke-linejoin: miter"/>
      <path d="M 199.299443 193.075945 
L 201.299443 194.075945 
L 201.299443 192.075945 
z
" clip-path="url(#pabee1f2c33)" style="fill: #ff7f0e; fill-opacity: 0.5; stroke: #ff7f0e; stroke-opacity: 0.5; stroke-linejoin: miter"/>
      <path d="M 199.299443 221.631261 
L 201.299443 222.631261 
L 201.299443 220.631261 
z
" clip-path="url(#pabee1f2c33)" style="fill: #ff7f0e; fill-opacity: 0.5; stroke: #ff7f0e; stroke-opacity: 0.5; stroke-linejoin: miter"/>
      <path d="M 199.299443 100.348536 
L 201.299443 101.348536 
L 201.299443 99.348536 
z
" clip-path="url(#pabee1f2c33)" style="fill: #ff7f0e; fill-opacity: 0.5; stroke: #ff7f0e; stroke-opacity: 0.5; stroke-linejoin: miter"/>
      <path d="M 199.299443 213.244848 
L 201.299443 214.244848 
L 201.299443 212.244848 
z
" clip-path="url(#pabee1f2c33)" style="fill: #ff7f0e; fill-opacity: 0.5; stroke: #ff7f0e; stroke-opacity: 0.5; stroke-linejoin: miter"/>
      <path d="M 199.299443 284.597776 
L 201.299443 285.597776 
L 201.299443 283.597776 
z
" clip-path="url(#pabee1f2c33)" style="fill: #ff7f0e; fill-opacity: 0.5; stroke: #ff7f0e; stroke-opacity: 0.5; stroke-linejoin: miter"/>
      <path d="M 199.299443 310.807468 
L 201.299443 311.807468 
L 201.299443 309.807468 
z
" clip-path="url(#pabee1f2c33)" style="fill: #ff7f0e; fill-opacity: 0.5; stroke: #ff7f0e; stroke-opacity: 0.5; stroke-linejoin: miter"/>
      <path d="M 199.299443 284.966289 
L 201.299443 285.966289 
L 201.299443 283.966289 
z
" clip-path="url(#pabee1f2c33)" style="fill: #ff7f0e; fill-opacity: 0.5; stroke: #ff7f0e; stroke-opacity: 0.5; stroke-linejoin: miter"/>
      <path d="M 199.299443 258.937044 
L 201.299443 259.937044 
L 201.299443 257.937044 
z
" clip-path="url(#pabee1f2c33)" style="fill: #ff7f0e; fill-opacity: 0.5; stroke: #ff7f0e; stroke-opacity: 0.5; stroke-linejoin: miter"/>
      <path d="M 447.666182 57.821836 
L 445.666182 56.821836 
L 445.666182 58.821836 
z
" clip-path="url(#pabee1f2c33)" style="fill: #ff7f0e; fill-opacity: 0.5; stroke: #ff7f0e; stroke-opacity: 0.5; stroke-linejoin: miter"/>
      <path d="M 447.666182 37.76141 
L 445.666182 36.76141 
L 445.666182 38.76141 
z
" clip-path="url(#pabee1f2c33)" style="fill: #ff7f0e; fill-opacity: 0.5; stroke: #ff7f0e; stroke-opacity: 0.5; stroke-linejoin: miter"/>
      <path d="M 447.666182 249.283628 
L 445.666182 248.283628 
L 445.666182 250.283628 
z
" clip-path="url(#pabee1f2c33)" style="fill: #ff7f0e; fill-opacity: 0.5; stroke: #ff7f0e; stroke-opacity: 0.5; stroke-linejoin: miter"/>
      <path d="M 447.666182 94.624099 
L 445.666182 93.624099 
L 445.666182 95.624099 
z
" clip-path="url(#pabee1f2c33)" style="fill: #ff7f0e; fill-opacity: 0.5; stroke: #ff7f0e; stroke-opacity: 0.5; stroke-linejoin: miter"/>
      <path d="M 447.666182 262.503937 
L 445.666182 261.503937 
L 445.666182 263.503937 
z
" clip-path="url(#pabee1f2c33)" style="fill: #ff7f0e; fill-opacity: 0.5; stroke: #ff7f0e; stroke-opacity: 0.5; stroke-linejoin: miter"/>
      <path d="M 447.666182 159.763647 
L 445.666182 158.763647 
L 445.666182 160.763647 
z
" clip-path="url(#pabee1f2c33)" style="fill: #ff7f0e; fill-opacity: 0.5; stroke: #ff7f0e; stroke-opacity: 0.5; stroke-linejoin: miter"/>
      <path d="M 447.666182 208.176494 
L 445.666182 207.176494 
L 445.666182 209.176494 
z
" clip-path="url(#pabee1f2c33)" style="fill: #ff7f0e; fill-opacity: 0.5; stroke: #ff7f0e; stroke-opacity: 0.5; stroke-linejoin: miter"/>
      <path d="M 447.666182 51.30657 
L 445.666182 50.30657 
L 445.666182 52.30657 
z
" clip-path="url(#pabee1f2c33)" style="fill: #ff7f0e; fill-opacity: 0.5; stroke: #ff7f0e; stroke-opacity: 0.5; stroke-linejoin: miter"/>
      <path d="M 447.666182 144.599232 
L 445.666182 143.599232 
L 445.666182 145.599232 
z
" clip-path="url(#pabee1f2c33)" style="fill: #ff7f0e; fill-opacity: 0.5; stroke: #ff7f0e; stroke-opacity: 0.5; stroke-linejoin: miter"/>
      <path d="M 447.666182 180.334478 
L 445.666182 179.334478 
L 445.666182 181.334478 
z
" clip-path="url(#pabee1f2c33)" style="fill: #ff7f0e; fill-opacity: 0.5; stroke: #ff7f0e; stroke-opacity: 0.5; stroke-linejoin: miter"/>
      <path d="M 389.34593 121.520944 
L 391.34593 122.520944 
L 391.34593 120.520944 
z
" clip-path="url(#pabee1f2c33)" style="fill: #2ca02c; fill-opacity: 0.5; stroke: #2ca02c; stroke-opacity: 0.5; stroke-linejoin: miter"/>
      <path d="M 389.34593 49.028921 
L 391.34593 50.028921 
L 391.34593 48.028921 
z
" clip-path="url(#pabee1f2c33)" style="fill: #2ca02c; fill-opacity: 0.5; stroke: #2ca02c; stroke-opacity: 0.5; stroke-linejoin: miter"/>
      <path d="M 389.34593 248.197765 
L 391.34593 249.197765 
L 391.34593 247.197765 
z
" clip-path="url(#pabee1f2c33)" style="fill: #2ca02c; fill-opacity: 0.5; stroke: #2ca02c; stroke-opacity: 0.5; stroke-linejoin: miter"/>
      <path d="M 389.34593 279.883586 
L 391.34593 280.883586 
L 391.34593 278.883586 
z
" clip-path="url(#pabee1f2c33)" style="fill: #2ca02c; fill-opacity: 0.5; stroke: #2ca02c; stroke-opacity: 0.5; stroke-linejoin: miter"/>
      <path d="M 389.34593 83.183481 
L 391.34593 84.183481 
L 391.34593 82.183481 
z
" clip-path="url(#pabee1f2c33)" style="fill: #2ca02c; fill-opacity: 0.5; stroke: #2ca02c; stroke-opacity: 0.5; stroke-linejoin: miter"/>
      <path d="M 389.34593 194.387513 
L 391.34593 195.387513 
L 391.34593 193.387513 
z
" clip-path="url(#pabee1f2c33)" style="fill: #2ca02c; fill-opacity: 0.5; stroke: #2ca02c; stroke-opacity: 0.5; stroke-linejoin: miter"/>
      <path d="M 389.34593 111.862328 
L 391.34593 112.862328 
L 391.34593 110.862328 
z
" clip-path="url(#pabee1f2c33)" style="fill: #2ca02c; fill-opacity: 0.5; stroke: #2ca02c; stroke-opacity: 0.5; stroke-linejoin: miter"/>
      <path d="M 389.34593 239.687763 
L 391.34593 240.687763 
L 391.34593 238.687763 
z
" clip-path="url(#pabee1f2c33)" style="fill: #2ca02c; fill-opacity: 0.5; stroke: #2ca02c; stroke-opacity: 0.5; stroke-linejoin: miter"/>
      <path d="M 389.34593 88.999292 
L 391.34593 89.999292 
L 391.34593 87.999292 
z
" clip-path="url(#pabee1f2c33)" style="fill: #2ca02c; fill-opacity: 0.5; stroke: #2ca02c; stroke-opacity: 0.5; stroke-linejoin: miter"/>
      <path d="M 389.34593 184.510853 
L 391.34593 185.510853 
L 391.34593 183.510853 
z
" clip-path="url(#pabee1f2c33)" style="fill: #2ca02c; fill-opacity: 0.5; stroke: #2ca02c; stroke-opacity: 0.5; stroke-linejoin: miter"/>
      <g id="patch_6">
       <path d="M 46.965625 318.021875 
L 46.965625 22.318125 
" style="fill: none; stroke: #000000; stroke-width: 0.8; stroke-linejoin: miter; stroke-linecap: square"/>
      </g>
      <g id="text_11">
       <!-- stepping_stone_model.yaml -->
       <g transform="translate(239.443437 16.318125) scale(0.12 -0.12)">
        <defs>
         <path id="DejaVuSans-70" d="M 1159 525 
L 1159 -1331 
L 581 -1331 
L 581 3500 
L 1159 3500 
L 1159 2969 
Q 1341 3281 1617 3432 
Q 1894 3584 2278 3584 
Q 2916 3584 3314 3078 
Q 3713 2572 3713 1747 
Q 3713 922 3314 415 
Q 2916 -91 2278 -91 
Q 1894 -91 1617 61 
Q 1341 213 1159 525 
z
M 3116 1747 
Q 3116 2381 2855 2742 
Q 2594 3103 2138 3103 
Q 1681 3103 1420 2742 
Q 1159 2381 1159 1747 
Q 1159 1113 1420 752 
Q 1681 391 2138 391 
Q 2594 391 2855 752 
Q 3116 1113 3116 1747 
z
" transform="scale(0.015625)"/>
         <path id="DejaVuSans-6e" d="M 3513 2113 
L 3513 0 
L 2938 0 
L 2938 2094 
Q 2938 2591 2744 2837 
Q 2550 3084 2163 3084 
Q 1697 3084 1428 2787 
Q 1159 2491 1159 1978 
L 1159 0 
L 581 0 
L 581 3500 
L 1159 3500 
L 1159 2956 
Q 1366 3272 1645 3428 
Q 1925 3584 2291 3584 
Q 2894 3584 3203 3211 
Q 3513 2838 3513 2113 
z
" transform="scale(0.015625)"/>
         <path id="DejaVuSans-5f" d="M 3263 -1063 
L 3263 -1509 
L -63 -1509 
L -63 -1063 
L 3263 -1063 
z
" transform="scale(0.015625)"/>
         <path id="DejaVuSans-6c" d="M 603 4863 
L 1178 4863 
L 1178 0 
L 603 0 
L 603 4863 
z
" transform="scale(0.015625)"/>
         <path id="DejaVuSans-2e" d="M 684 794 
L 1344 794 
L 1344 0 
L 684 0 
L 684 794 
z
" transform="scale(0.015625)"/>
        </defs>
        <use xlink:href="#DejaVuSans-73"/>
        <use xlink:href="#DejaVuSans-74" x="52.099609"/>
        <use xlink:href="#DejaVuSans-65" x="91.308594"/>
        <use xlink:href="#DejaVuSans-70" x="152.832031"/>
        <use xlink:href="#DejaVuSans-70" x="216.308594"/>
        <use xlink:href="#DejaVuSans-69" x="279.785156"/>
        <use xlink:href="#DejaVuSans-6e" x="307.568359"/>
        <use xlink:href="#DejaVuSans-67" x="370.947266"/>
        <use xlink:href="#DejaVuSans-5f" x="434.423828"/>
        <use xlink:href="#DejaVuSans-73" x="484.423828"/>
        <use xlink:href="#DejaVuSans-74" x="536.523438"/>
        <use xlink:href="#DejaVuSans-6f" x="575.732422"/>
        <use xlink:href="#DejaVuSans-6e" x="636.914062"/>
        <use xlink:href="#DejaVuSans-65" x="700.292969"/>
        <use xlink:href="#DejaVuSans-5f" x="761.816406"/>
        <use xlink:href="#DejaVuSans-6d" x="811.816406"/>
        <use xlink:href="#DejaVuSans-6f" x="909.228516"/>
        <use xlink:href="#DejaVuSans-64" x="970.410156"/>
        <use xlink:href="#DejaVuSans-65" x="1033.886719"/>
        <use xlink:href="#DejaVuSans-6c" x="1095.410156"/>
        <use xlink:href="#DejaVuSans-2e" x="1123.193359"/>
        <use xlink:href="#DejaVuSans-79" x="1154.980469"/>
        <use xlink:href="#DejaVuSans-61" x="1214.160156"/>
        <use xlink:href="#DejaVuSans-6d" x="1275.439453"/>
        <use xlink:href="#DejaVuSans-6c" x="1372.851562"/>
       </g>
      </g>
     </g>
    </g>
    <defs>
     <clipPath id="pabee1f2c33">
      <rect x="46.965625" y="22.318125" width="553.034375" height="295.70375"/>
     </clipPath>
    </defs>
   </g>
  </g>
 </g>
</svg>
