<?xml version="1.0" encoding="utf-8" standalone="no"?>
<!DOCTYPE svg PUBLIC "-//W3C//DTD SVG 1.1//EN"
  "http://www.w3.org/Graphics/SVG/1.1/DTD/svg11.dtd">
<svg xmlns:xlink="http://www.w3.org/1999/xlink" width="504.8pt" height="280.8pt" viewBox="0 0 504.8 280.8" xmlns="http://www.w3.org/2000/svg" version="1.1">
 <metadata>
  <rdf:RDF xmlns:dc="http://purl.org/dc/elements/1.1/" xmlns:cc="http://creativecommons.org/ns#" xmlns:rdf="http://www.w3.org/1999/02/22-rdf-syntax-ns#">
   <cc:Work>
    <dc:type rdf:resource="http://purl.org/dc/dcmitype/StillImage"/>
    <dc:date>2022-08-01T08:25:23.954704</dc:date>
    <dc:format>image/svg+xml</dc:format>
    <dc:creator>
     <cc:Agent>
      <dc:title>Matplotlib v3.5.2, https://matplotlib.org/</dc:title>
     </cc:Agent>
    </dc:creator>
   </cc:Work>
  </rdf:RDF>
 </metadata>
 <defs>
  <style type="text/css">*{stroke-linejoin: round; stroke-linecap: butt}</style>
 </defs>
 <g id="figure_1">
  <g id="patch_1">
   <path d="M 0 280.8 
L 504.8 280.8 
L 504.8 0 
L 0 0 
L 0 280.8 
z
" style="fill: none"/>
  </g>
  <g id="axes_1">
   <g id="patch_2">
    <path d="M 43.78125 260.421875 
L 497.6 260.421875 
L 497.6 22.318125 
L 43.78125 22.318125 
z
" style="fill: #ffffff"/>
   </g>
   <path d="M 244.762419 134.441575 
L 245.762419 134.473012 
L 246.762419 134.509952 
L 247.762419 134.607699 
L 248.762419 134.64022 
L 249.762419 134.713845 
L 250.762419 134.752411 
L 251.762419 134.787824 
L 252.762419 134.845464 
L 253.762419 134.91585 
L 254.762419 134.967814 
L 255.762419 135.026904 
L 256.762419 135.115225 
L 257.762419 135.161369 
L 258.762419 135.20378 
L 259.762419 135.234273 
L 260.762419 135.260318 
L 261.762419 135.281518 
L 262.762419 135.335819 
L 263.762419 135.363756 
L 264.762419 135.39348 
L 265.762419 135.418875 
L 266.762419 135.430076 
L 267.762419 135.4402 
L 268.762419 135.439995 
L 269.762419 135.430485 
L 270.762419 135.418832 
L 271.762419 135.387803 
L 272.762419 135.376635 
L 273.762419 135.346517 
L 274.762419 135.28674 
L 275.762419 135.249549 
L 276.762419 135.210453 
L 277.762419 135.168013 
L 278.762419 135.135248 
L 279.762419 135.067821 
L 280.762419 135.028695 
L 281.762419 134.986021 
L 282.762419 134.91544 
L 283.762419 134.879049 
L 284.762419 134.820646 
L 285.762419 134.709694 
L 286.762419 134.639035 
L 287.762419 134.526096 
L 288.762419 134.480323 
L 289.762419 134.419039 
L 290.762419 134.37054 
L 291.762419 134.289717 
L 292.762419 134.171198 
L 293.762419 134.100988 
L 294.762419 134.017725 
L 296.618831 133.984584 
" clip-path="url(#p5f9558566c)" style="fill: none; stroke: #1f77b4; stroke-opacity: 0.5; stroke-width: 0.2; stroke-linecap: square"/>
   <path d="M 244.762419 86.493845 
L 245.762419 86.525282 
L 246.762419 86.562222 
L 247.762419 86.659969 
L 248.762419 86.69249 
L 249.762419 86.766115 
L 250.762419 86.804681 
L 251.762419 86.840094 
L 252.762419 86.897734 
L 253.762419 86.96812 
L 254.762419 87.020084 
L 255.762419 87.079174 
L 256.762419 87.167495 
L 257.762419 87.213639 
L 258.762419 87.25605 
L 259.762419 87.286543 
L 260.762419 87.312588 
L 261.762419 87.333788 
L 262.762419 87.388089 
L 263.762419 87.416026 
L 264.762419 87.44575 
L 265.762419 87.471145 
L 266.762419 87.482346 
L 267.762419 87.492469 
L 268.762419 87.492265 
L 269.762419 87.482755 
L 270.762419 87.471102 
L 271.762419 87.440072 
L 272.762419 87.428905 
L 273.762419 87.398787 
L 274.762419 87.33901 
L 275.762419 87.301819 
L 276.762419 87.262722 
L 277.762419 87.220283 
L 278.762419 87.187518 
L 279.762419 87.120091 
L 280.762419 87.080965 
L 281.762419 87.038291 
L 282.762419 86.96771 
L 283.762419 86.931319 
L 284.762419 86.872916 
L 285.762419 86.761964 
L 286.762419 86.691305 
L 287.762419 86.578365 
L 288.762419 86.532593 
L 289.762419 86.471309 
L 290.762419 86.42281 
L 291.762419 86.341987 
L 292.762419 86.223468 
L 293.762419 86.153258 
L 294.762419 86.069995 
L 296.618831 86.036853 
" clip-path="url(#p5f9558566c)" style="fill: none; stroke: #1f77b4; stroke-opacity: 0.5; stroke-width: 0.2; stroke-linecap: square"/>
   <path d="M 244.762419 158.352604 
L 245.762419 158.38404 
L 246.762419 158.42098 
L 247.762419 158.518727 
L 248.762419 158.551249 
L 249.762419 158.624873 
L 250.762419 158.663439 
L 251.762419 158.698852 
L 252.762419 158.756492 
L 253.762419 158.826878 
L 254.762419 158.878842 
L 255.762419 158.937932 
L 256.762419 159.026253 
L 257.762419 159.072397 
L 258.762419 159.114808 
L 259.762419 159.145301 
L 260.762419 159.171346 
L 261.762419 159.192546 
L 262.762419 159.246847 
L 263.762419 159.274785 
L 264.762419 159.304509 
L 265.762419 159.329903 
L 266.762419 159.341104 
L 267.762419 159.351228 
L 268.762419 159.351023 
L 269.762419 159.341514 
L 270.762419 159.32986 
L 271.762419 159.298831 
L 272.762419 159.287663 
L 273.762419 159.257545 
L 274.762419 159.197768 
L 275.762419 159.160577 
L 276.762419 159.121481 
L 277.762419 159.079041 
L 278.762419 159.046276 
L 279.762419 158.97885 
L 280.762419 158.939724 
L 281.762419 158.897049 
L 282.762419 158.826469 
L 283.762419 158.790078 
L 284.762419 158.731674 
L 285.762419 158.620722 
L 286.762419 158.550064 
L 287.762419 158.437124 
L 288.762419 158.391351 
L 289.762419 158.330068 
L 290.762419 158.281568 
L 291.762419 158.200746 
L 292.762419 158.082227 
L 293.762419 158.012016 
L 294.762419 157.928754 
L 296.618831 157.895612 
" clip-path="url(#p5f9558566c)" style="fill: none; stroke: #1f77b4; stroke-opacity: 0.5; stroke-width: 0.2; stroke-linecap: square"/>
   <path d="M 244.762419 75.051681 
L 245.762419 75.083117 
L 246.762419 75.120057 
L 247.762419 75.217804 
L 248.762419 75.250326 
L 249.762419 75.32395 
L 250.762419 75.362516 
L 251.762419 75.397929 
L 252.762419 75.455569 
L 253.762419 75.525955 
L 254.762419 75.577919 
L 255.762419 75.637009 
L 256.762419 75.72533 
L 257.762419 75.771474 
L 258.762419 75.813885 
L 259.762419 75.844378 
L 260.762419 75.870423 
L 261.762419 75.891623 
L 262.762419 75.945924 
L 263.762419 75.973862 
L 264.762419 76.003586 
L 265.762419 76.02898 
L 266.762419 76.040181 
L 267.762419 76.050305 
L 268.762419 76.0501 
L 269.762419 76.040591 
L 270.762419 76.028937 
L 271.762419 75.997908 
L 272.762419 75.98674 
L 273.762419 75.956622 
L 274.762419 75.896845 
L 275.762419 75.859654 
L 276.762419 75.820558 
L 277.762419 75.778118 
L 278.762419 75.745353 
L 279.762419 75.677927 
L 280.762419 75.638801 
L 281.762419 75.596126 
L 282.762419 75.525545 
L 283.762419 75.489155 
L 284.762419 75.430751 
L 285.762419 75.319799 
L 286.762419 75.249141 
L 287.762419 75.136201 
L 288.762419 75.090428 
L 289.762419 75.029145 
L 290.762419 74.980645 
L 291.762419 74.899823 
L 292.762419 74.781304 
L 293.762419 74.711093 
L 294.762419 74.627831 
L 296.618831 74.594689 
" clip-path="url(#p5f9558566c)" style="fill: none; stroke: #1f77b4; stroke-opacity: 0.5; stroke-width: 0.2; stroke-linecap: square"/>
   <path d="M 244.762419 100.825939 
L 245.762419 100.857376 
L 246.762419 100.894316 
L 247.762419 100.992063 
L 248.762419 101.024584 
L 249.762419 101.098209 
L 250.762419 101.136774 
L 251.762419 101.172188 
L 252.762419 101.229828 
L 253.762419 101.300214 
L 254.762419 101.352178 
L 255.762419 101.411268 
L 256.762419 101.499589 
L 257.762419 101.545733 
L 258.762419 101.588144 
L 259.762419 101.618637 
L 260.762419 101.644682 
L 261.762419 101.665882 
L 262.762419 101.720183 
L 263.762419 101.74812 
L 264.762419 101.777844 
L 265.762419 101.803239 
L 266.762419 101.814439 
L 267.762419 101.824563 
L 268.762419 101.824359 
L 269.762419 101.814849 
L 270.762419 101.803196 
L 271.762419 101.772166 
L 272.762419 101.760998 
L 273.762419 101.730881 
L 274.762419 101.671104 
L 275.762419 101.633912 
L 276.762419 101.594816 
L 277.762419 101.552377 
L 278.762419 101.519612 
L 279.762419 101.452185 
L 280.762419 101.413059 
L 281.762419 101.370385 
L 282.762419 101.299804 
L 283.762419 101.263413 
L 284.762419 101.20501 
L 285.762419 101.094057 
L 286.762419 101.023399 
L 287.762419 100.910459 
L 288.762419 100.864686 
L 289.762419 100.803403 
L 290.762419 100.754904 
L 291.762419 100.674081 
L 292.762419 100.555562 
L 293.762419 100.485352 
L 294.762419 100.402089 
L 296.618831 100.368947 
" clip-path="url(#p5f9558566c)" style="fill: none; stroke: #1f77b4; stroke-opacity: 0.5; stroke-width: 0.2; stroke-linecap: square"/>
   <path d="M 244.762419 78.164226 
L 245.762419 78.195662 
L 246.762419 78.232602 
L 247.762419 78.330349 
L 248.762419 78.362871 
L 249.762419 78.436495 
L 250.762419 78.475061 
L 251.762419 78.510474 
L 252.762419 78.568114 
L 253.762419 78.6385 
L 254.762419 78.690464 
L 255.762419 78.749554 
L 256.762419 78.837875 
L 257.762419 78.884019 
L 258.762419 78.92643 
L 259.762419 78.956923 
L 260.762419 78.982968 
L 261.762419 79.004168 
L 262.762419 79.058469 
L 263.762419 79.086407 
L 264.762419 79.116131 
L 265.762419 79.141525 
L 266.762419 79.152726 
L 267.762419 79.16285 
L 268.762419 79.162645 
L 269.762419 79.153136 
L 270.762419 79.141482 
L 271.762419 79.110453 
L 272.762419 79.099285 
L 273.762419 79.069167 
L 274.762419 79.00939 
L 275.762419 78.972199 
L 276.762419 78.933103 
L 277.762419 78.890663 
L 278.762419 78.857898 
L 279.762419 78.790472 
L 280.762419 78.751346 
L 281.762419 78.708671 
L 282.762419 78.63809 
L 283.762419 78.6017 
L 284.762419 78.543296 
L 285.762419 78.432344 
L 286.762419 78.361686 
L 287.762419 78.248746 
L 288.762419 78.202973 
L 289.762419 78.14169 
L 290.762419 78.09319 
L 291.762419 78.012368 
L 292.762419 77.893849 
L 293.762419 77.823638 
L 294.762419 77.740376 
L 296.618831 77.707234 
" clip-path="url(#p5f9558566c)" style="fill: none; stroke: #1f77b4; stroke-opacity: 0.5; stroke-width: 0.2; stroke-linecap: square"/>
   <path d="M 244.762419 163.554246 
L 245.762419 163.585683 
L 246.762419 163.622623 
L 247.762419 163.72037 
L 248.762419 163.752891 
L 249.762419 163.826516 
L 250.762419 163.865082 
L 251.762419 163.900495 
L 252.762419 163.958135 
L 253.762419 164.028521 
L 254.762419 164.080485 
L 255.762419 164.139575 
L 256.762419 164.227896 
L 257.762419 164.27404 
L 258.762419 164.316451 
L 259.762419 164.346944 
L 260.762419 164.372989 
L 261.762419 164.394189 
L 262.762419 164.44849 
L 263.762419 164.476427 
L 264.762419 164.506151 
L 265.762419 164.531546 
L 266.762419 164.542747 
L 267.762419 164.552871 
L 268.762419 164.552666 
L 269.762419 164.543156 
L 270.762419 164.531503 
L 271.762419 164.500474 
L 272.762419 164.489306 
L 273.762419 164.459188 
L 274.762419 164.399411 
L 275.762419 164.36222 
L 276.762419 164.323124 
L 277.762419 164.280684 
L 278.762419 164.247919 
L 279.762419 164.180492 
L 280.762419 164.141366 
L 281.762419 164.098692 
L 282.762419 164.028111 
L 283.762419 163.99172 
L 284.762419 163.933317 
L 285.762419 163.822365 
L 286.762419 163.751706 
L 287.762419 163.638766 
L 288.762419 163.592994 
L 289.762419 163.53171 
L 290.762419 163.483211 
L 291.762419 163.402388 
L 292.762419 163.283869 
L 293.762419 163.213659 
L 294.762419 163.130396 
L 296.618831 163.097255 
" clip-path="url(#p5f9558566c)" style="fill: none; stroke: #1f77b4; stroke-opacity: 0.5; stroke-width: 0.2; stroke-linecap: square"/>
   <path d="M 244.762419 139.774277 
L 245.762419 139.805714 
L 246.762419 139.842654 
L 247.762419 139.940401 
L 248.762419 139.972922 
L 249.762419 140.046547 
L 250.762419 140.085112 
L 251.762419 140.120526 
L 252.762419 140.178166 
L 253.762419 140.248552 
L 254.762419 140.300516 
L 255.762419 140.359606 
L 256.762419 140.447927 
L 257.762419 140.494071 
L 258.762419 140.536482 
L 259.762419 140.566975 
L 260.762419 140.59302 
L 261.762419 140.61422 
L 262.762419 140.668521 
L 263.762419 140.696458 
L 264.762419 140.726182 
L 265.762419 140.751577 
L 266.762419 140.762777 
L 267.762419 140.772901 
L 268.762419 140.772697 
L 269.762419 140.763187 
L 270.762419 140.751534 
L 271.762419 140.720504 
L 272.762419 140.709336 
L 273.762419 140.679219 
L 274.762419 140.619442 
L 275.762419 140.58225 
L 276.762419 140.543154 
L 277.762419 140.500715 
L 278.762419 140.46795 
L 279.762419 140.400523 
L 280.762419 140.361397 
L 281.762419 140.318723 
L 282.762419 140.248142 
L 283.762419 140.211751 
L 284.762419 140.153348 
L 285.762419 140.042395 
L 286.762419 139.971737 
L 287.762419 139.858797 
L 288.762419 139.813024 
L 289.762419 139.751741 
L 290.762419 139.703242 
L 291.762419 139.622419 
L 292.762419 139.5039 
L 293.762419 139.43369 
L 294.762419 139.350427 
L 296.618831 139.317285 
" clip-path="url(#p5f9558566c)" style="fill: none; stroke: #1f77b4; stroke-opacity: 0.5; stroke-width: 0.2; stroke-linecap: square"/>
   <path d="M 244.762419 151.871845 
L 245.762419 151.903281 
L 246.762419 151.940221 
L 247.762419 152.037968 
L 248.762419 152.07049 
L 249.762419 152.144114 
L 250.762419 152.18268 
L 251.762419 152.218093 
L 252.762419 152.275733 
L 253.762419 152.346119 
L 254.762419 152.398083 
L 255.762419 152.457173 
L 256.762419 152.545494 
L 257.762419 152.591638 
L 258.762419 152.634049 
L 259.762419 152.664542 
L 260.762419 152.690587 
L 261.762419 152.711787 
L 262.762419 152.766088 
L 263.762419 152.794026 
L 264.762419 152.82375 
L 265.762419 152.849144 
L 266.762419 152.860345 
L 267.762419 152.870469 
L 268.762419 152.870264 
L 269.762419 152.860755 
L 270.762419 152.849101 
L 271.762419 152.818072 
L 272.762419 152.806904 
L 273.762419 152.776786 
L 274.762419 152.717009 
L 275.762419 152.679818 
L 276.762419 152.640722 
L 277.762419 152.598282 
L 278.762419 152.565517 
L 279.762419 152.498091 
L 280.762419 152.458965 
L 281.762419 152.41629 
L 282.762419 152.345709 
L 283.762419 152.309319 
L 284.762419 152.250915 
L 285.762419 152.139963 
L 286.762419 152.069305 
L 287.762419 151.956365 
L 288.762419 151.910592 
L 289.762419 151.849309 
L 290.762419 151.800809 
L 291.762419 151.719987 
L 292.762419 151.601468 
L 293.762419 151.531257 
L 294.762419 151.447995 
L 296.618831 151.414853 
" clip-path="url(#p5f9558566c)" style="fill: none; stroke: #1f77b4; stroke-opacity: 0.5; stroke-width: 0.2; stroke-linecap: square"/>
   <path d="M 244.762419 140.3578 
L 245.762419 140.389237 
L 246.762419 140.426177 
L 247.762419 140.523924 
L 248.762419 140.556445 
L 249.762419 140.63007 
L 250.762419 140.668636 
L 251.762419 140.704049 
L 252.762419 140.761689 
L 253.762419 140.832075 
L 254.762419 140.884039 
L 255.762419 140.943129 
L 256.762419 141.03145 
L 257.762419 141.077594 
L 258.762419 141.120005 
L 259.762419 141.150498 
L 260.762419 141.176543 
L 261.762419 141.197743 
L 262.762419 141.252044 
L 263.762419 141.279981 
L 264.762419 141.309705 
L 265.762419 141.3351 
L 266.762419 141.346301 
L 267.762419 141.356425 
L 268.762419 141.35622 
L 269.762419 141.34671 
L 270.762419 141.335057 
L 271.762419 141.304028 
L 272.762419 141.29286 
L 273.762419 141.262742 
L 274.762419 141.202965 
L 275.762419 141.165774 
L 276.762419 141.126678 
L 277.762419 141.084238 
L 278.762419 141.051473 
L 279.762419 140.984046 
L 280.762419 140.94492 
L 281.762419 140.902246 
L 282.762419 140.831665 
L 283.762419 140.795274 
L 284.762419 140.736871 
L 285.762419 140.625919 
L 286.762419 140.55526 
L 287.762419 140.44232 
L 288.762419 140.396548 
L 289.762419 140.335264 
L 290.762419 140.286765 
L 291.762419 140.205942 
L 292.762419 140.087423 
L 293.762419 140.017213 
L 294.762419 139.93395 
L 296.618831 139.900809 
" clip-path="url(#p5f9558566c)" style="fill: none; stroke: #1f77b4; stroke-opacity: 0.5; stroke-width: 0.2; stroke-linecap: square"/>
   <path d="M 244.762419 200.745191 
L 245.762419 200.776628 
L 246.762419 200.813568 
L 247.762419 200.911315 
L 248.762419 200.943836 
L 249.762419 201.017461 
L 250.762419 201.056026 
L 251.762419 201.09144 
L 252.762419 201.149079 
L 253.762419 201.219466 
L 254.762419 201.27143 
L 255.762419 201.33052 
L 256.762419 201.418841 
L 257.762419 201.464985 
L 258.762419 201.507396 
L 259.762419 201.537889 
L 260.762419 201.563933 
L 261.762419 201.585134 
L 262.762419 201.639435 
L 263.762419 201.667372 
L 264.762419 201.697096 
L 265.762419 201.722491 
L 266.762419 201.733691 
L 267.762419 201.743815 
L 268.762419 201.743611 
L 269.762419 201.734101 
L 270.762419 201.722448 
L 271.762419 201.691418 
L 272.762419 201.68025 
L 273.762419 201.650133 
L 274.762419 201.590356 
L 275.762419 201.553164 
L 276.762419 201.514068 
L 277.762419 201.471629 
L 278.762419 201.438864 
L 279.762419 201.371437 
L 280.762419 201.332311 
L 281.762419 201.289637 
L 282.762419 201.219056 
L 283.762419 201.182665 
L 284.762419 201.124262 
L 285.762419 201.013309 
L 286.762419 200.942651 
L 287.762419 200.829711 
L 288.762419 200.783938 
L 289.762419 200.722655 
L 290.762419 200.674156 
L 291.762419 200.593333 
L 292.762419 200.474814 
L 293.762419 200.404604 
L 294.762419 200.321341 
L 296.618831 200.288199 
" clip-path="url(#p5f9558566c)" style="fill: none; stroke: #1f77b4; stroke-opacity: 0.5; stroke-width: 0.2; stroke-linecap: square"/>
   <path d="M 244.762419 192.325323 
L 245.762419 192.356759 
L 246.762419 192.3937 
L 247.762419 192.491446 
L 248.762419 192.523968 
L 249.762419 192.597592 
L 250.762419 192.636158 
L 251.762419 192.671571 
L 252.762419 192.729211 
L 253.762419 192.799597 
L 254.762419 192.851561 
L 255.762419 192.910651 
L 256.762419 192.998972 
L 257.762419 193.045116 
L 258.762419 193.087527 
L 259.762419 193.11802 
L 260.762419 193.144065 
L 261.762419 193.165265 
L 262.762419 193.219566 
L 263.762419 193.247504 
L 264.762419 193.277228 
L 265.762419 193.302623 
L 266.762419 193.313823 
L 267.762419 193.323947 
L 268.762419 193.323743 
L 269.762419 193.314233 
L 270.762419 193.302579 
L 271.762419 193.27155 
L 272.762419 193.260382 
L 273.762419 193.230264 
L 274.762419 193.170487 
L 275.762419 193.133296 
L 276.762419 193.0942 
L 277.762419 193.05176 
L 278.762419 193.018995 
L 279.762419 192.951569 
L 280.762419 192.912443 
L 281.762419 192.869768 
L 282.762419 192.799188 
L 283.762419 192.762797 
L 284.762419 192.704394 
L 285.762419 192.593441 
L 286.762419 192.522783 
L 287.762419 192.409843 
L 288.762419 192.36407 
L 289.762419 192.302787 
L 290.762419 192.254287 
L 291.762419 192.173465 
L 292.762419 192.054946 
L 293.762419 191.984735 
L 294.762419 191.901473 
L 296.618831 191.868331 
" clip-path="url(#p5f9558566c)" style="fill: none; stroke: #1f77b4; stroke-opacity: 0.5; stroke-width: 0.2; stroke-linecap: square"/>
   <path d="M 244.762419 173.151388 
L 245.762419 173.182824 
L 246.762419 173.219765 
L 247.762419 173.317511 
L 248.762419 173.350033 
L 249.762419 173.423657 
L 250.762419 173.462223 
L 251.762419 173.497636 
L 252.762419 173.555276 
L 253.762419 173.625662 
L 254.762419 173.677626 
L 255.762419 173.736716 
L 256.762419 173.825037 
L 257.762419 173.871181 
L 258.762419 173.913592 
L 259.762419 173.944085 
L 260.762419 173.97013 
L 261.762419 173.99133 
L 262.762419 174.045631 
L 263.762419 174.073569 
L 264.762419 174.103293 
L 265.762419 174.128688 
L 266.762419 174.139888 
L 267.762419 174.150012 
L 268.762419 174.149808 
L 269.762419 174.140298 
L 270.762419 174.128644 
L 271.762419 174.097615 
L 272.762419 174.086447 
L 273.762419 174.056329 
L 274.762419 173.996552 
L 275.762419 173.959361 
L 276.762419 173.920265 
L 277.762419 173.877825 
L 278.762419 173.84506 
L 279.762419 173.777634 
L 280.762419 173.738508 
L 281.762419 173.695833 
L 282.762419 173.625253 
L 283.762419 173.588862 
L 284.762419 173.530459 
L 285.762419 173.419506 
L 286.762419 173.348848 
L 287.762419 173.235908 
L 288.762419 173.190135 
L 289.762419 173.128852 
L 290.762419 173.080352 
L 291.762419 172.99953 
L 292.762419 172.881011 
L 293.762419 172.8108 
L 294.762419 172.727538 
L 296.618831 172.694396 
" clip-path="url(#p5f9558566c)" style="fill: none; stroke: #1f77b4; stroke-opacity: 0.5; stroke-width: 0.2; stroke-linecap: square"/>
   <path d="M 244.762419 182.053034 
L 245.762419 182.084471 
L 246.762419 182.121411 
L 247.762419 182.219158 
L 248.762419 182.251679 
L 249.762419 182.325304 
L 250.762419 182.36387 
L 251.762419 182.399283 
L 252.762419 182.456923 
L 253.762419 182.527309 
L 254.762419 182.579273 
L 255.762419 182.638363 
L 256.762419 182.726684 
L 257.762419 182.772828 
L 258.762419 182.815239 
L 259.762419 182.845732 
L 260.762419 182.871777 
L 261.762419 182.892977 
L 262.762419 182.947278 
L 263.762419 182.975215 
L 264.762419 183.004939 
L 265.762419 183.030334 
L 266.762419 183.041535 
L 267.762419 183.051659 
L 268.762419 183.051454 
L 269.762419 183.041944 
L 270.762419 183.030291 
L 271.762419 182.999262 
L 272.762419 182.988094 
L 273.762419 182.957976 
L 274.762419 182.898199 
L 275.762419 182.861008 
L 276.762419 182.821912 
L 277.762419 182.779472 
L 278.762419 182.746707 
L 279.762419 182.67928 
L 280.762419 182.640154 
L 281.762419 182.59748 
L 282.762419 182.526899 
L 283.762419 182.490508 
L 284.762419 182.432105 
L 285.762419 182.321153 
L 286.762419 182.250494 
L 287.762419 182.137554 
L 288.762419 182.091782 
L 289.762419 182.030498 
L 290.762419 181.981999 
L 291.762419 181.901176 
L 292.762419 181.782657 
L 293.762419 181.712447 
L 294.762419 181.629184 
L 296.618831 181.596043 
" clip-path="url(#p5f9558566c)" style="fill: none; stroke: #1f77b4; stroke-opacity: 0.5; stroke-width: 0.2; stroke-linecap: square"/>
   <path d="M 244.762419 165.954374 
L 245.762419 165.98581 
L 246.762419 166.02275 
L 247.762419 166.120497 
L 248.762419 166.153019 
L 249.762419 166.226643 
L 250.762419 166.265209 
L 251.762419 166.300622 
L 252.762419 166.358262 
L 253.762419 166.428648 
L 254.762419 166.480612 
L 255.762419 166.539702 
L 256.762419 166.628023 
L 257.762419 166.674167 
L 258.762419 166.716578 
L 259.762419 166.747071 
L 260.762419 166.773116 
L 261.762419 166.794316 
L 262.762419 166.848617 
L 263.762419 166.876555 
L 264.762419 166.906279 
L 265.762419 166.931673 
L 266.762419 166.942874 
L 267.762419 166.952998 
L 268.762419 166.952793 
L 269.762419 166.943284 
L 270.762419 166.93163 
L 271.762419 166.900601 
L 272.762419 166.889433 
L 273.762419 166.859315 
L 274.762419 166.799538 
L 275.762419 166.762347 
L 276.762419 166.723251 
L 277.762419 166.680811 
L 278.762419 166.648046 
L 279.762419 166.580619 
L 280.762419 166.541494 
L 281.762419 166.498819 
L 282.762419 166.428238 
L 283.762419 166.391848 
L 284.762419 166.333444 
L 285.762419 166.222492 
L 286.762419 166.151834 
L 287.762419 166.038894 
L 288.762419 165.993121 
L 289.762419 165.931838 
L 290.762419 165.883338 
L 291.762419 165.802516 
L 292.762419 165.683997 
L 293.762419 165.613786 
L 294.762419 165.530524 
L 296.618831 165.497382 
" clip-path="url(#p5f9558566c)" style="fill: none; stroke: #1f77b4; stroke-opacity: 0.5; stroke-width: 0.2; stroke-linecap: square"/>
   <path d="M 244.762419 237.357043 
L 245.762419 237.388479 
L 246.762419 237.425419 
L 247.762419 237.523166 
L 248.762419 237.555687 
L 249.762419 237.629312 
L 250.762419 237.667878 
L 251.762419 237.703291 
L 252.762419 237.760931 
L 253.762419 237.831317 
L 254.762419 237.883281 
L 255.762419 237.942371 
L 256.762419 238.030692 
L 257.762419 238.076836 
L 258.762419 238.119247 
L 259.762419 238.14974 
L 260.762419 238.175785 
L 261.762419 238.196985 
L 262.762419 238.251286 
L 263.762419 238.279224 
L 264.762419 238.308948 
L 265.762419 238.334342 
L 266.762419 238.345543 
L 267.762419 238.355667 
L 268.762419 238.355462 
L 269.762419 238.345952 
L 270.762419 238.334299 
L 271.762419 238.30327 
L 272.762419 238.292102 
L 273.762419 238.261984 
L 274.762419 238.202207 
L 275.762419 238.165016 
L 276.762419 238.12592 
L 277.762419 238.08348 
L 278.762419 238.050715 
L 279.762419 237.983288 
L 280.762419 237.944162 
L 281.762419 237.901488 
L 282.762419 237.830907 
L 283.762419 237.794516 
L 284.762419 237.736113 
L 285.762419 237.625161 
L 286.762419 237.554502 
L 287.762419 237.441563 
L 288.762419 237.39579 
L 289.762419 237.334506 
L 290.762419 237.286007 
L 291.762419 237.205184 
L 292.762419 237.086666 
L 293.762419 237.016455 
L 294.762419 236.933192 
L 296.618831 236.900051 
" clip-path="url(#p5f9558566c)" style="fill: none; stroke: #1f77b4; stroke-opacity: 0.5; stroke-width: 0.2; stroke-linecap: square"/>
   <path d="M 244.762419 182.847545 
L 245.762419 182.878981 
L 246.762419 182.915922 
L 247.762419 183.013668 
L 248.762419 183.04619 
L 249.762419 183.119815 
L 250.762419 183.15838 
L 251.762419 183.193793 
L 252.762419 183.251433 
L 253.762419 183.321819 
L 254.762419 183.373784 
L 255.762419 183.432873 
L 256.762419 183.521194 
L 257.762419 183.567339 
L 258.762419 183.60975 
L 259.762419 183.640242 
L 260.762419 183.666287 
L 261.762419 183.687487 
L 262.762419 183.741788 
L 263.762419 183.769726 
L 264.762419 183.79945 
L 265.762419 183.824845 
L 266.762419 183.836045 
L 267.762419 183.846169 
L 268.762419 183.845965 
L 269.762419 183.836455 
L 270.762419 183.824801 
L 271.762419 183.793772 
L 272.762419 183.782604 
L 273.762419 183.752487 
L 274.762419 183.69271 
L 275.762419 183.655518 
L 276.762419 183.616422 
L 277.762419 183.573982 
L 278.762419 183.541217 
L 279.762419 183.473791 
L 280.762419 183.434665 
L 281.762419 183.39199 
L 282.762419 183.32141 
L 283.762419 183.285019 
L 284.762419 183.226616 
L 285.762419 183.115663 
L 286.762419 183.045005 
L 287.762419 182.932065 
L 288.762419 182.886292 
L 289.762419 182.825009 
L 290.762419 182.77651 
L 291.762419 182.695687 
L 292.762419 182.577168 
L 293.762419 182.506957 
L 294.762419 182.423695 
L 296.618831 182.390553 
" clip-path="url(#p5f9558566c)" style="fill: none; stroke: #1f77b4; stroke-opacity: 0.5; stroke-width: 0.2; stroke-linecap: square"/>
   <path d="M 244.762419 176.355084 
L 245.762419 176.386521 
L 246.762419 176.423461 
L 247.762419 176.521207 
L 248.762419 176.553729 
L 249.762419 176.627354 
L 250.762419 176.665919 
L 251.762419 176.701333 
L 252.762419 176.758972 
L 253.762419 176.829359 
L 254.762419 176.881323 
L 255.762419 176.940413 
L 256.762419 177.028734 
L 257.762419 177.074878 
L 258.762419 177.117289 
L 259.762419 177.147782 
L 260.762419 177.173826 
L 261.762419 177.195027 
L 262.762419 177.249328 
L 263.762419 177.277265 
L 264.762419 177.306989 
L 265.762419 177.332384 
L 266.762419 177.343584 
L 267.762419 177.353708 
L 268.762419 177.353504 
L 269.762419 177.343994 
L 270.762419 177.332341 
L 271.762419 177.301311 
L 272.762419 177.290143 
L 273.762419 177.260026 
L 274.762419 177.200249 
L 275.762419 177.163057 
L 276.762419 177.123961 
L 277.762419 177.081522 
L 278.762419 177.048757 
L 279.762419 176.98133 
L 280.762419 176.942204 
L 281.762419 176.89953 
L 282.762419 176.828949 
L 283.762419 176.792558 
L 284.762419 176.734155 
L 285.762419 176.623202 
L 286.762419 176.552544 
L 287.762419 176.439604 
L 288.762419 176.393831 
L 289.762419 176.332548 
L 290.762419 176.284049 
L 291.762419 176.203226 
L 292.762419 176.084707 
L 293.762419 176.014497 
L 294.762419 175.931234 
L 296.618831 175.898092 
" clip-path="url(#p5f9558566c)" style="fill: none; stroke: #1f77b4; stroke-opacity: 0.5; stroke-width: 0.2; stroke-linecap: square"/>
   <path d="M 244.762419 206.664306 
L 245.762419 206.695742 
L 246.762419 206.732682 
L 247.762419 206.830429 
L 248.762419 206.86295 
L 249.762419 206.936575 
L 250.762419 206.975141 
L 251.762419 207.010554 
L 252.762419 207.068194 
L 253.762419 207.13858 
L 254.762419 207.190544 
L 255.762419 207.249634 
L 256.762419 207.337955 
L 257.762419 207.384099 
L 258.762419 207.42651 
L 259.762419 207.457003 
L 260.762419 207.483048 
L 261.762419 207.504248 
L 262.762419 207.558549 
L 263.762419 207.586487 
L 264.762419 207.616211 
L 265.762419 207.641605 
L 266.762419 207.652806 
L 267.762419 207.66293 
L 268.762419 207.662725 
L 269.762419 207.653215 
L 270.762419 207.641562 
L 271.762419 207.610533 
L 272.762419 207.599365 
L 273.762419 207.569247 
L 274.762419 207.50947 
L 275.762419 207.472279 
L 276.762419 207.433183 
L 277.762419 207.390743 
L 278.762419 207.357978 
L 279.762419 207.290551 
L 280.762419 207.251426 
L 281.762419 207.208751 
L 282.762419 207.13817 
L 283.762419 207.10178 
L 284.762419 207.043376 
L 285.762419 206.932424 
L 286.762419 206.861765 
L 287.762419 206.748826 
L 288.762419 206.703053 
L 289.762419 206.641769 
L 290.762419 206.59327 
L 291.762419 206.512447 
L 292.762419 206.393929 
L 293.762419 206.323718 
L 294.762419 206.240455 
L 296.618831 206.207314 
" clip-path="url(#p5f9558566c)" style="fill: none; stroke: #1f77b4; stroke-opacity: 0.5; stroke-width: 0.2; stroke-linecap: square"/>
   <path d="M 244.762419 180.835671 
L 245.762419 180.867108 
L 246.762419 180.904048 
L 247.762419 181.001795 
L 248.762419 181.034316 
L 249.762419 181.107941 
L 250.762419 181.146506 
L 251.762419 181.18192 
L 252.762419 181.23956 
L 253.762419 181.309946 
L 254.762419 181.36191 
L 255.762419 181.421 
L 256.762419 181.509321 
L 257.762419 181.555465 
L 258.762419 181.597876 
L 259.762419 181.628369 
L 260.762419 181.654414 
L 261.762419 181.675614 
L 262.762419 181.729915 
L 263.762419 181.757852 
L 264.762419 181.787576 
L 265.762419 181.812971 
L 266.762419 181.824171 
L 267.762419 181.834295 
L 268.762419 181.834091 
L 269.762419 181.824581 
L 270.762419 181.812928 
L 271.762419 181.781898 
L 272.762419 181.77073 
L 273.762419 181.740613 
L 274.762419 181.680836 
L 275.762419 181.643644 
L 276.762419 181.604548 
L 277.762419 181.562109 
L 278.762419 181.529344 
L 279.762419 181.461917 
L 280.762419 181.422791 
L 281.762419 181.380117 
L 282.762419 181.309536 
L 283.762419 181.273145 
L 284.762419 181.214742 
L 285.762419 181.103789 
L 286.762419 181.033131 
L 287.762419 180.920191 
L 288.762419 180.874418 
L 289.762419 180.813135 
L 290.762419 180.764636 
L 291.762419 180.683813 
L 292.762419 180.565294 
L 293.762419 180.495084 
L 294.762419 180.411821 
L 296.618831 180.378679 
" clip-path="url(#p5f9558566c)" style="fill: none; stroke: #1f77b4; stroke-opacity: 0.5; stroke-width: 0.2; stroke-linecap: square"/>
   <g id="patch_3">
    <path d="M 64.409375 22.318125 
L 64.409375 260.421875 
M 240.224232 22.318125 
L 240.224232 260.421875 
" clip-path="url(#p5f9558566c)" style="fill: none; stroke: #ffffff; stroke-width: 3; stroke-linejoin: miter"/>
    <path d="M 64.409375 22.318125 
L 64.409375 260.421875 
M 240.224232 22.318125 
L 240.224232 260.421875 
" clip-path="url(#p5f9558566c)" style="fill: none; stroke: #1f77b4; stroke-linejoin: miter"/>
    <g id="PolyCollection_1">
     <path d="M 240.224232 22.318125 
L 64.409375 22.318125 
L 64.409375 260.421875 
L 240.224232 260.421875 
L 240.224232 260.421875 
L 240.224232 22.318125 
z
" clip-path="url(#p5f9558566c)" style="fill: #1f77b4; fill-opacity: 0.5"/>
    </g>
    <g id="patch_4">
     <path d="M 301.157018 22.318125 
L 301.157018 260.421875 
M 476.971875 22.318125 
L 476.971875 260.421875 
" clip-path="url(#p5f9558566c)" style="fill: none; stroke: #ffffff; stroke-width: 3; stroke-linejoin: miter"/>
     <path d="M 301.157018 22.318125 
L 301.157018 260.421875 
M 476.971875 22.318125 
L 476.971875 260.421875 
" clip-path="url(#p5f9558566c)" style="fill: none; stroke: #ff7f0e; stroke-linejoin: miter"/>
     <g id="PolyCollection_2">
      <path d="M 476.971875 22.318125 
L 301.157018 22.318125 
L 301.157018 260.421875 
L 476.971875 260.421875 
L 476.971875 260.421875 
L 476.971875 22.318125 
z
" clip-path="url(#p5f9558566c)" style="fill: #ff7f0e; fill-opacity: 0.5"/>
     </g>
     <g id="matplotlib.axis_1">
      <g id="xtick_1">
       <g id="line2d_1"/>
       <g id="text_1">
        <!-- deme0 -->
        <g transform="translate(134.937897 271.520312)scale(0.1 -0.1)">
         <defs>
          <path id="DejaVuSans-64" d="M 2906 2969 
L 2906 4863 
L 3481 4863 
L 3481 0 
L 2906 0 
L 2906 525 
Q 2725 213 2448 61 
Q 2172 -91 1784 -91 
Q 1150 -91 751 415 
Q 353 922 353 1747 
Q 353 2572 751 3078 
Q 1150 3584 1784 3584 
Q 2172 3584 2448 3432 
Q 2725 3281 2906 2969 
z
M 947 1747 
Q 947 1113 1208 752 
Q 1469 391 1925 391 
Q 2381 391 2643 752 
Q 2906 1113 2906 1747 
Q 2906 2381 2643 2742 
Q 2381 3103 1925 3103 
Q 1469 3103 1208 2742 
Q 947 2381 947 1747 
z
" transform="scale(0.015625)"/>
          <path id="DejaVuSans-65" d="M 3597 1894 
L 3597 1613 
L 953 1613 
Q 991 1019 1311 708 
Q 1631 397 2203 397 
Q 2534 397 2845 478 
Q 3156 559 3463 722 
L 3463 178 
Q 3153 47 2828 -22 
Q 2503 -91 2169 -91 
Q 1331 -91 842 396 
Q 353 884 353 1716 
Q 353 2575 817 3079 
Q 1281 3584 2069 3584 
Q 2775 3584 3186 3129 
Q 3597 2675 3597 1894 
z
M 3022 2063 
Q 3016 2534 2758 2815 
Q 2500 3097 2075 3097 
Q 1594 3097 1305 2825 
Q 1016 2553 972 2059 
L 3022 2063 
z
" transform="scale(0.015625)"/>
          <path id="DejaVuSans-6d" d="M 3328 2828 
Q 3544 3216 3844 3400 
Q 4144 3584 4550 3584 
Q 5097 3584 5394 3201 
Q 5691 2819 5691 2113 
L 5691 0 
L 5113 0 
L 5113 2094 
Q 5113 2597 4934 2840 
Q 4756 3084 4391 3084 
Q 3944 3084 3684 2787 
Q 3425 2491 3425 1978 
L 3425 0 
L 2847 0 
L 2847 2094 
Q 2847 2600 2669 2842 
Q 2491 3084 2119 3084 
Q 1678 3084 1418 2786 
Q 1159 2488 1159 1978 
L 1159 0 
L 581 0 
L 581 3500 
L 1159 3500 
L 1159 2956 
Q 1356 3278 1631 3431 
Q 1906 3584 2284 3584 
Q 2666 3584 2933 3390 
Q 3200 3197 3328 2828 
z
" transform="scale(0.015625)"/>
          <path id="DejaVuSans-30" d="M 2034 4250 
Q 1547 4250 1301 3770 
Q 1056 3291 1056 2328 
Q 1056 1369 1301 889 
Q 1547 409 2034 409 
Q 2525 409 2770 889 
Q 3016 1369 3016 2328 
Q 3016 3291 2770 3770 
Q 2525 4250 2034 4250 
z
M 2034 4750 
Q 2819 4750 3233 4129 
Q 3647 3509 3647 2328 
Q 3647 1150 3233 529 
Q 2819 -91 2034 -91 
Q 1250 -91 836 529 
Q 422 1150 422 2328 
Q 422 3509 836 4129 
Q 1250 4750 2034 4750 
z
" transform="scale(0.015625)"/>
         </defs>
         <use xlink:href="#DejaVuSans-64"/>
         <use xlink:href="#DejaVuSans-65" x="63.476562"/>
         <use xlink:href="#DejaVuSans-6d" x="125"/>
         <use xlink:href="#DejaVuSans-65" x="222.412109"/>
         <use xlink:href="#DejaVuSans-30" x="283.935547"/>
        </g>
       </g>
      </g>
      <g id="xtick_2">
       <g id="line2d_2"/>
       <g id="text_2">
        <!-- deme1 -->
        <g transform="translate(371.68554 271.520312)scale(0.1 -0.1)">
         <defs>
          <path id="DejaVuSans-31" d="M 794 531 
L 1825 531 
L 1825 4091 
L 703 3866 
L 703 4441 
L 1819 4666 
L 2450 4666 
L 2450 531 
L 3481 531 
L 3481 0 
L 794 0 
L 794 531 
z
" transform="scale(0.015625)"/>
         </defs>
         <use xlink:href="#DejaVuSans-64"/>
         <use xlink:href="#DejaVuSans-65" x="63.476562"/>
         <use xlink:href="#DejaVuSans-6d" x="125"/>
         <use xlink:href="#DejaVuSans-65" x="222.412109"/>
         <use xlink:href="#DejaVuSans-31" x="283.935547"/>
        </g>
       </g>
      </g>
     </g>
     <g id="matplotlib.axis_2">
      <g id="ytick_1">
       <g id="line2d_3">
        <defs>
         <path id="m815064010d" d="M 0 0 
L -3.5 0 
" style="stroke: #000000; stroke-width: 0.8"/>
        </defs>
        <g>
         <use xlink:href="#m815064010d" x="43.78125" y="260.421875" style="stroke: #000000; stroke-width: 0.8"/>
        </g>
       </g>
       <g id="text_3">
        <!-- 0.0 -->
        <g transform="translate(20.878125 264.221094)scale(0.1 -0.1)">
         <defs>
          <path id="DejaVuSans-2e" d="M 684 794 
L 1344 794 
L 1344 0 
L 684 0 
L 684 794 
z
" transform="scale(0.015625)"/>
         </defs>
         <use xlink:href="#DejaVuSans-30"/>
         <use xlink:href="#DejaVuSans-2e" x="63.623047"/>
         <use xlink:href="#DejaVuSans-30" x="95.410156"/>
        </g>
       </g>
      </g>
      <g id="ytick_2">
       <g id="line2d_4">
        <g>
         <use xlink:href="#m815064010d" x="43.78125" y="212.801125" style="stroke: #000000; stroke-width: 0.8"/>
        </g>
       </g>
       <g id="text_4">
        <!-- 0.5 -->
        <g transform="translate(20.878125 216.600344)scale(0.1 -0.1)">
         <defs>
          <path id="DejaVuSans-35" d="M 691 4666 
L 3169 4666 
L 3169 4134 
L 1269 4134 
L 1269 2991 
Q 1406 3038 1543 3061 
Q 1681 3084 1819 3084 
Q 2600 3084 3056 2656 
Q 3513 2228 3513 1497 
Q 3513 744 3044 326 
Q 2575 -91 1722 -91 
Q 1428 -91 1123 -41 
Q 819 9 494 109 
L 494 744 
Q 775 591 1075 516 
Q 1375 441 1709 441 
Q 2250 441 2565 725 
Q 2881 1009 2881 1497 
Q 2881 1984 2565 2268 
Q 2250 2553 1709 2553 
Q 1456 2553 1204 2497 
Q 953 2441 691 2322 
L 691 4666 
z
" transform="scale(0.015625)"/>
         </defs>
         <use xlink:href="#DejaVuSans-30"/>
         <use xlink:href="#DejaVuSans-2e" x="63.623047"/>
         <use xlink:href="#DejaVuSans-35" x="95.410156"/>
        </g>
       </g>
      </g>
      <g id="ytick_3">
       <g id="line2d_5">
        <g>
         <use xlink:href="#m815064010d" x="43.78125" y="165.180375" style="stroke: #000000; stroke-width: 0.8"/>
        </g>
       </g>
       <g id="text_5">
        <!-- 1.0 -->
        <g transform="translate(20.878125 168.979594)scale(0.1 -0.1)">
         <use xlink:href="#DejaVuSans-31"/>
         <use xlink:href="#DejaVuSans-2e" x="63.623047"/>
         <use xlink:href="#DejaVuSans-30" x="95.410156"/>
        </g>
       </g>
      </g>
      <g id="ytick_4">
       <g id="line2d_6">
        <g>
         <use xlink:href="#m815064010d" x="43.78125" y="117.559625" style="stroke: #000000; stroke-width: 0.8"/>
        </g>
       </g>
       <g id="text_6">
        <!-- 1.5 -->
        <g transform="translate(20.878125 121.358844)scale(0.1 -0.1)">
         <use xlink:href="#DejaVuSans-31"/>
         <use xlink:href="#DejaVuSans-2e" x="63.623047"/>
         <use xlink:href="#DejaVuSans-35" x="95.410156"/>
        </g>
       </g>
      </g>
      <g id="ytick_5">
       <g id="line2d_7">
        <g>
         <use xlink:href="#m815064010d" x="43.78125" y="69.938875" style="stroke: #000000; stroke-width: 0.8"/>
        </g>
       </g>
       <g id="text_7">
        <!-- 2.0 -->
        <g transform="translate(20.878125 73.738094)scale(0.1 -0.1)">
         <defs>
          <path id="DejaVuSans-32" d="M 1228 531 
L 3431 531 
L 3431 0 
L 469 0 
L 469 531 
Q 828 903 1448 1529 
Q 2069 2156 2228 2338 
Q 2531 2678 2651 2914 
Q 2772 3150 2772 3378 
Q 2772 3750 2511 3984 
Q 2250 4219 1831 4219 
Q 1534 4219 1204 4116 
Q 875 4013 500 3803 
L 500 4441 
Q 881 4594 1212 4672 
Q 1544 4750 1819 4750 
Q 2544 4750 2975 4387 
Q 3406 4025 3406 3419 
Q 3406 3131 3298 2873 
Q 3191 2616 2906 2266 
Q 2828 2175 2409 1742 
Q 1991 1309 1228 531 
z
" transform="scale(0.015625)"/>
         </defs>
         <use xlink:href="#DejaVuSans-32"/>
         <use xlink:href="#DejaVuSans-2e" x="63.623047"/>
         <use xlink:href="#DejaVuSans-30" x="95.410156"/>
        </g>
       </g>
      </g>
      <g id="ytick_6">
       <g id="line2d_8">
        <g>
         <use xlink:href="#m815064010d" x="43.78125" y="22.318125" style="stroke: #000000; stroke-width: 0.8"/>
        </g>
       </g>
       <g id="text_8">
        <!-- 2.5 -->
        <g transform="translate(20.878125 26.117344)scale(0.1 -0.1)">
         <use xlink:href="#DejaVuSans-32"/>
         <use xlink:href="#DejaVuSans-2e" x="63.623047"/>
         <use xlink:href="#DejaVuSans-35" x="95.410156"/>
        </g>
       </g>
      </g>
      <g id="text_9">
       <!-- time ago (generations) -->
       <g transform="translate(14.798438 198.841094)rotate(-90)scale(0.1 -0.1)">
        <defs>
         <path id="DejaVuSans-74" d="M 1172 4494 
L 1172 3500 
L 2356 3500 
L 2356 3053 
L 1172 3053 
L 1172 1153 
Q 1172 725 1289 603 
Q 1406 481 1766 481 
L 2356 481 
L 2356 0 
L 1766 0 
Q 1100 0 847 248 
Q 594 497 594 1153 
L 594 3053 
L 172 3053 
L 172 3500 
L 594 3500 
L 594 4494 
L 1172 4494 
z
" transform="scale(0.015625)"/>
         <path id="DejaVuSans-69" d="M 603 3500 
L 1178 3500 
L 1178 0 
L 603 0 
L 603 3500 
z
M 603 4863 
L 1178 4863 
L 1178 4134 
L 603 4134 
L 603 4863 
z
" transform="scale(0.015625)"/>
         <path id="DejaVuSans-20" transform="scale(0.015625)"/>
         <path id="DejaVuSans-61" d="M 2194 1759 
Q 1497 1759 1228 1600 
Q 959 1441 959 1056 
Q 959 750 1161 570 
Q 1363 391 1709 391 
Q 2188 391 2477 730 
Q 2766 1069 2766 1631 
L 2766 1759 
L 2194 1759 
z
M 3341 1997 
L 3341 0 
L 2766 0 
L 2766 531 
Q 2569 213 2275 61 
Q 1981 -91 1556 -91 
Q 1019 -91 701 211 
Q 384 513 384 1019 
Q 384 1609 779 1909 
Q 1175 2209 1959 2209 
L 2766 2209 
L 2766 2266 
Q 2766 2663 2505 2880 
Q 2244 3097 1772 3097 
Q 1472 3097 1187 3025 
Q 903 2953 641 2809 
L 641 3341 
Q 956 3463 1253 3523 
Q 1550 3584 1831 3584 
Q 2591 3584 2966 3190 
Q 3341 2797 3341 1997 
z
" transform="scale(0.015625)"/>
         <path id="DejaVuSans-67" d="M 2906 1791 
Q 2906 2416 2648 2759 
Q 2391 3103 1925 3103 
Q 1463 3103 1205 2759 
Q 947 2416 947 1791 
Q 947 1169 1205 825 
Q 1463 481 1925 481 
Q 2391 481 2648 825 
Q 2906 1169 2906 1791 
z
M 3481 434 
Q 3481 -459 3084 -895 
Q 2688 -1331 1869 -1331 
Q 1566 -1331 1297 -1286 
Q 1028 -1241 775 -1147 
L 775 -588 
Q 1028 -725 1275 -790 
Q 1522 -856 1778 -856 
Q 2344 -856 2625 -561 
Q 2906 -266 2906 331 
L 2906 616 
Q 2728 306 2450 153 
Q 2172 0 1784 0 
Q 1141 0 747 490 
Q 353 981 353 1791 
Q 353 2603 747 3093 
Q 1141 3584 1784 3584 
Q 2172 3584 2450 3431 
Q 2728 3278 2906 2969 
L 2906 3500 
L 3481 3500 
L 3481 434 
z
" transform="scale(0.015625)"/>
         <path id="DejaVuSans-6f" d="M 1959 3097 
Q 1497 3097 1228 2736 
Q 959 2375 959 1747 
Q 959 1119 1226 758 
Q 1494 397 1959 397 
Q 2419 397 2687 759 
Q 2956 1122 2956 1747 
Q 2956 2369 2687 2733 
Q 2419 3097 1959 3097 
z
M 1959 3584 
Q 2709 3584 3137 3096 
Q 3566 2609 3566 1747 
Q 3566 888 3137 398 
Q 2709 -91 1959 -91 
Q 1206 -91 779 398 
Q 353 888 353 1747 
Q 353 2609 779 3096 
Q 1206 3584 1959 3584 
z
" transform="scale(0.015625)"/>
         <path id="DejaVuSans-28" d="M 1984 4856 
Q 1566 4138 1362 3434 
Q 1159 2731 1159 2009 
Q 1159 1288 1364 580 
Q 1569 -128 1984 -844 
L 1484 -844 
Q 1016 -109 783 600 
Q 550 1309 550 2009 
Q 550 2706 781 3412 
Q 1013 4119 1484 4856 
L 1984 4856 
z
" transform="scale(0.015625)"/>
         <path id="DejaVuSans-6e" d="M 3513 2113 
L 3513 0 
L 2938 0 
L 2938 2094 
Q 2938 2591 2744 2837 
Q 2550 3084 2163 3084 
Q 1697 3084 1428 2787 
Q 1159 2491 1159 1978 
L 1159 0 
L 581 0 
L 581 3500 
L 1159 3500 
L 1159 2956 
Q 1366 3272 1645 3428 
Q 1925 3584 2291 3584 
Q 2894 3584 3203 3211 
Q 3513 2838 3513 2113 
z
" transform="scale(0.015625)"/>
         <path id="DejaVuSans-72" d="M 2631 2963 
Q 2534 3019 2420 3045 
Q 2306 3072 2169 3072 
Q 1681 3072 1420 2755 
Q 1159 2438 1159 1844 
L 1159 0 
L 581 0 
L 581 3500 
L 1159 3500 
L 1159 2956 
Q 1341 3275 1631 3429 
Q 1922 3584 2338 3584 
Q 2397 3584 2469 3576 
Q 2541 3569 2628 3553 
L 2631 2963 
z
" transform="scale(0.015625)"/>
         <path id="DejaVuSans-73" d="M 2834 3397 
L 2834 2853 
Q 2591 2978 2328 3040 
Q 2066 3103 1784 3103 
Q 1356 3103 1142 2972 
Q 928 2841 928 2578 
Q 928 2378 1081 2264 
Q 1234 2150 1697 2047 
L 1894 2003 
Q 2506 1872 2764 1633 
Q 3022 1394 3022 966 
Q 3022 478 2636 193 
Q 2250 -91 1575 -91 
Q 1294 -91 989 -36 
Q 684 19 347 128 
L 347 722 
Q 666 556 975 473 
Q 1284 391 1588 391 
Q 1994 391 2212 530 
Q 2431 669 2431 922 
Q 2431 1156 2273 1281 
Q 2116 1406 1581 1522 
L 1381 1569 
Q 847 1681 609 1914 
Q 372 2147 372 2553 
Q 372 3047 722 3315 
Q 1072 3584 1716 3584 
Q 2034 3584 2315 3537 
Q 2597 3491 2834 3397 
z
" transform="scale(0.015625)"/>
         <path id="DejaVuSans-29" d="M 513 4856 
L 1013 4856 
Q 1481 4119 1714 3412 
Q 1947 2706 1947 2009 
Q 1947 1309 1714 600 
Q 1481 -109 1013 -844 
L 513 -844 
Q 928 -128 1133 580 
Q 1338 1288 1338 2009 
Q 1338 2731 1133 3434 
Q 928 4138 513 4856 
z
" transform="scale(0.015625)"/>
        </defs>
        <use xlink:href="#DejaVuSans-74"/>
        <use xlink:href="#DejaVuSans-69" x="39.208984"/>
        <use xlink:href="#DejaVuSans-6d" x="66.992188"/>
        <use xlink:href="#DejaVuSans-65" x="164.404297"/>
        <use xlink:href="#DejaVuSans-20" x="225.927734"/>
        <use xlink:href="#DejaVuSans-61" x="257.714844"/>
        <use xlink:href="#DejaVuSans-67" x="318.994141"/>
        <use xlink:href="#DejaVuSans-6f" x="382.470703"/>
        <use xlink:href="#DejaVuSans-20" x="443.652344"/>
        <use xlink:href="#DejaVuSans-28" x="475.439453"/>
        <use xlink:href="#DejaVuSans-67" x="514.453125"/>
        <use xlink:href="#DejaVuSans-65" x="577.929688"/>
        <use xlink:href="#DejaVuSans-6e" x="639.453125"/>
        <use xlink:href="#DejaVuSans-65" x="702.832031"/>
        <use xlink:href="#DejaVuSans-72" x="764.355469"/>
        <use xlink:href="#DejaVuSans-61" x="805.46875"/>
        <use xlink:href="#DejaVuSans-74" x="866.748047"/>
        <use xlink:href="#DejaVuSans-69" x="905.957031"/>
        <use xlink:href="#DejaVuSans-6f" x="933.740234"/>
        <use xlink:href="#DejaVuSans-6e" x="994.921875"/>
        <use xlink:href="#DejaVuSans-73" x="1058.300781"/>
        <use xlink:href="#DejaVuSans-29" x="1110.400391"/>
       </g>
      </g>
     </g>
     <path d="M 297.618831 134.441575 
L 295.618831 133.441575 
L 295.618831 135.441575 
z
" clip-path="url(#p5f9558566c)" style="fill: #1f77b4; fill-opacity: 0.5; stroke: #1f77b4; stroke-opacity: 0.5; stroke-linejoin: miter"/>
     <path d="M 297.618831 86.493845 
L 295.618831 85.493845 
L 295.618831 87.493845 
z
" clip-path="url(#p5f9558566c)" style="fill: #1f77b4; fill-opacity: 0.5; stroke: #1f77b4; stroke-opacity: 0.5; stroke-linejoin: miter"/>
     <path d="M 297.618831 158.352604 
L 295.618831 157.352604 
L 295.618831 159.352604 
z
" clip-path="url(#p5f9558566c)" style="fill: #1f77b4; fill-opacity: 0.5; stroke: #1f77b4; stroke-opacity: 0.5; stroke-linejoin: miter"/>
     <path d="M 297.618831 75.051681 
L 295.618831 74.051681 
L 295.618831 76.051681 
z
" clip-path="url(#p5f9558566c)" style="fill: #1f77b4; fill-opacity: 0.5; stroke: #1f77b4; stroke-opacity: 0.5; stroke-linejoin: miter"/>
     <path d="M 297.618831 100.825939 
L 295.618831 99.825939 
L 295.618831 101.825939 
z
" clip-path="url(#p5f9558566c)" style="fill: #1f77b4; fill-opacity: 0.5; stroke: #1f77b4; stroke-opacity: 0.5; stroke-linejoin: miter"/>
     <path d="M 297.618831 78.164226 
L 295.618831 77.164226 
L 295.618831 79.164226 
z
" clip-path="url(#p5f9558566c)" style="fill: #1f77b4; fill-opacity: 0.5; stroke: #1f77b4; stroke-opacity: 0.5; stroke-linejoin: miter"/>
     <path d="M 297.618831 163.554246 
L 295.618831 162.554246 
L 295.618831 164.554246 
z
" clip-path="url(#p5f9558566c)" style="fill: #1f77b4; fill-opacity: 0.5; stroke: #1f77b4; stroke-opacity: 0.5; stroke-linejoin: miter"/>
     <path d="M 297.618831 139.774277 
L 295.618831 138.774277 
L 295.618831 140.774277 
z
" clip-path="url(#p5f9558566c)" style="fill: #1f77b4; fill-opacity: 0.5; stroke: #1f77b4; stroke-opacity: 0.5; stroke-linejoin: miter"/>
     <path d="M 297.618831 151.871845 
L 295.618831 150.871845 
L 295.618831 152.871845 
z
" clip-path="url(#p5f9558566c)" style="fill: #1f77b4; fill-opacity: 0.5; stroke: #1f77b4; stroke-opacity: 0.5; stroke-linejoin: miter"/>
     <path d="M 297.618831 140.3578 
L 295.618831 139.3578 
L 295.618831 141.3578 
z
" clip-path="url(#p5f9558566c)" style="fill: #1f77b4; fill-opacity: 0.5; stroke: #1f77b4; stroke-opacity: 0.5; stroke-linejoin: miter"/>
     <path d="M 297.618831 200.745191 
L 295.618831 199.745191 
L 295.618831 201.745191 
z
" clip-path="url(#p5f9558566c)" style="fill: #1f77b4; fill-opacity: 0.5; stroke: #1f77b4; stroke-opacity: 0.5; stroke-linejoin: miter"/>
     <path d="M 297.618831 192.325323 
L 295.618831 191.325323 
L 295.618831 193.325323 
z
" clip-path="url(#p5f9558566c)" style="fill: #1f77b4; fill-opacity: 0.5; stroke: #1f77b4; stroke-opacity: 0.5; stroke-linejoin: miter"/>
     <path d="M 297.618831 173.151388 
L 295.618831 172.151388 
L 295.618831 174.151388 
z
" clip-path="url(#p5f9558566c)" style="fill: #1f77b4; fill-opacity: 0.5; stroke: #1f77b4; stroke-opacity: 0.5; stroke-linejoin: miter"/>
     <path d="M 297.618831 182.053034 
L 295.618831 181.053034 
L 295.618831 183.053034 
z
" clip-path="url(#p5f9558566c)" style="fill: #1f77b4; fill-opacity: 0.5; stroke: #1f77b4; stroke-opacity: 0.5; stroke-linejoin: miter"/>
     <path d="M 297.618831 165.954374 
L 295.618831 164.954374 
L 295.618831 166.954374 
z
" clip-path="url(#p5f9558566c)" style="fill: #1f77b4; fill-opacity: 0.5; stroke: #1f77b4; stroke-opacity: 0.5; stroke-linejoin: miter"/>
     <path d="M 297.618831 237.357043 
L 295.618831 236.357043 
L 295.618831 238.357043 
z
" clip-path="url(#p5f9558566c)" style="fill: #1f77b4; fill-opacity: 0.5; stroke: #1f77b4; stroke-opacity: 0.5; stroke-linejoin: miter"/>
     <path d="M 297.618831 182.847545 
L 295.618831 181.847545 
L 295.618831 183.847545 
z
" clip-path="url(#p5f9558566c)" style="fill: #1f77b4; fill-opacity: 0.5; stroke: #1f77b4; stroke-opacity: 0.5; stroke-linejoin: miter"/>
     <path d="M 297.618831 176.355084 
L 295.618831 175.355084 
L 295.618831 177.355084 
z
" clip-path="url(#p5f9558566c)" style="fill: #1f77b4; fill-opacity: 0.5; stroke: #1f77b4; stroke-opacity: 0.5; stroke-linejoin: miter"/>
     <path d="M 297.618831 206.664306 
L 295.618831 205.664306 
L 295.618831 207.664306 
z
" clip-path="url(#p5f9558566c)" style="fill: #1f77b4; fill-opacity: 0.5; stroke: #1f77b4; stroke-opacity: 0.5; stroke-linejoin: miter"/>
     <path d="M 297.618831 180.835671 
L 295.618831 179.835671 
L 295.618831 181.835671 
z
" clip-path="url(#p5f9558566c)" style="fill: #1f77b4; fill-opacity: 0.5; stroke: #1f77b4; stroke-opacity: 0.5; stroke-linejoin: miter"/>
     <g id="patch_5">
      <path d="M 43.78125 260.421875 
L 43.78125 22.318125 
" style="fill: none; stroke: #000000; stroke-width: 0.8; stroke-linejoin: miter; stroke-linecap: square"/>
     </g>
     <g id="text_10">
      <!-- defaults_asymmetric_migration_changing_rate.yaml -->
      <g transform="translate(113.475625 16.318125)scale(0.12 -0.12)">
       <defs>
        <path id="DejaVuSans-66" d="M 2375 4863 
L 2375 4384 
L 1825 4384 
Q 1516 4384 1395 4259 
Q 1275 4134 1275 3809 
L 1275 3500 
L 2222 3500 
L 2222 3053 
L 1275 3053 
L 1275 0 
L 697 0 
L 697 3053 
L 147 3053 
L 147 3500 
L 697 3500 
L 697 3744 
Q 697 4328 969 4595 
Q 1241 4863 1831 4863 
L 2375 4863 
z
" transform="scale(0.015625)"/>
        <path id="DejaVuSans-75" d="M 544 1381 
L 544 3500 
L 1119 3500 
L 1119 1403 
Q 1119 906 1312 657 
Q 1506 409 1894 409 
Q 2359 409 2629 706 
Q 2900 1003 2900 1516 
L 2900 3500 
L 3475 3500 
L 3475 0 
L 2900 0 
L 2900 538 
Q 2691 219 2414 64 
Q 2138 -91 1772 -91 
Q 1169 -91 856 284 
Q 544 659 544 1381 
z
M 1991 3584 
L 1991 3584 
z
" transform="scale(0.015625)"/>
        <path id="DejaVuSans-6c" d="M 603 4863 
L 1178 4863 
L 1178 0 
L 603 0 
L 603 4863 
z
" transform="scale(0.015625)"/>
        <path id="DejaVuSans-5f" d="M 3263 -1063 
L 3263 -1509 
L -63 -1509 
L -63 -1063 
L 3263 -1063 
z
" transform="scale(0.015625)"/>
        <path id="DejaVuSans-79" d="M 2059 -325 
Q 1816 -950 1584 -1140 
Q 1353 -1331 966 -1331 
L 506 -1331 
L 506 -850 
L 844 -850 
Q 1081 -850 1212 -737 
Q 1344 -625 1503 -206 
L 1606 56 
L 191 3500 
L 800 3500 
L 1894 763 
L 2988 3500 
L 3597 3500 
L 2059 -325 
z
" transform="scale(0.015625)"/>
        <path id="DejaVuSans-63" d="M 3122 3366 
L 3122 2828 
Q 2878 2963 2633 3030 
Q 2388 3097 2138 3097 
Q 1578 3097 1268 2742 
Q 959 2388 959 1747 
Q 959 1106 1268 751 
Q 1578 397 2138 397 
Q 2388 397 2633 464 
Q 2878 531 3122 666 
L 3122 134 
Q 2881 22 2623 -34 
Q 2366 -91 2075 -91 
Q 1284 -91 818 406 
Q 353 903 353 1747 
Q 353 2603 823 3093 
Q 1294 3584 2113 3584 
Q 2378 3584 2631 3529 
Q 2884 3475 3122 3366 
z
" transform="scale(0.015625)"/>
        <path id="DejaVuSans-68" d="M 3513 2113 
L 3513 0 
L 2938 0 
L 2938 2094 
Q 2938 2591 2744 2837 
Q 2550 3084 2163 3084 
Q 1697 3084 1428 2787 
Q 1159 2491 1159 1978 
L 1159 0 
L 581 0 
L 581 4863 
L 1159 4863 
L 1159 2956 
Q 1366 3272 1645 3428 
Q 1925 3584 2291 3584 
Q 2894 3584 3203 3211 
Q 3513 2838 3513 2113 
z
" transform="scale(0.015625)"/>
       </defs>
       <use xlink:href="#DejaVuSans-64"/>
       <use xlink:href="#DejaVuSans-65" x="63.476562"/>
       <use xlink:href="#DejaVuSans-66" x="125"/>
       <use xlink:href="#DejaVuSans-61" x="160.205078"/>
       <use xlink:href="#DejaVuSans-75" x="221.484375"/>
       <use xlink:href="#DejaVuSans-6c" x="284.863281"/>
       <use xlink:href="#DejaVuSans-74" x="312.646484"/>
       <use xlink:href="#DejaVuSans-73" x="351.855469"/>
       <use xlink:href="#DejaVuSans-5f" x="403.955078"/>
       <use xlink:href="#DejaVuSans-61" x="453.955078"/>
       <use xlink:href="#DejaVuSans-73" x="515.234375"/>
       <use xlink:href="#DejaVuSans-79" x="567.333984"/>
       <use xlink:href="#DejaVuSans-6d" x="626.513672"/>
       <use xlink:href="#DejaVuSans-6d" x="723.925781"/>
       <use xlink:href="#DejaVuSans-65" x="821.337891"/>
       <use xlink:href="#DejaVuSans-74" x="882.861328"/>
       <use xlink:href="#DejaVuSans-72" x="922.070312"/>
       <use xlink:href="#DejaVuSans-69" x="963.183594"/>
       <use xlink:href="#DejaVuSans-63" x="990.966797"/>
       <use xlink:href="#DejaVuSans-5f" x="1045.947266"/>
       <use xlink:href="#DejaVuSans-6d" x="1095.947266"/>
       <use xlink:href="#DejaVuSans-69" x="1193.359375"/>
       <use xlink:href="#DejaVuSans-67" x="1221.142578"/>
       <use xlink:href="#DejaVuSans-72" x="1284.619141"/>
       <use xlink:href="#DejaVuSans-61" x="1325.732422"/>
       <use xlink:href="#DejaVuSans-74" x="1387.011719"/>
       <use xlink:href="#DejaVuSans-69" x="1426.220703"/>
       <use xlink:href="#DejaVuSans-6f" x="1454.003906"/>
       <use xlink:href="#DejaVuSans-6e" x="1515.185547"/>
       <use xlink:href="#DejaVuSans-5f" x="1578.564453"/>
       <use xlink:href="#DejaVuSans-63" x="1628.564453"/>
       <use xlink:href="#DejaVuSans-68" x="1683.544922"/>
       <use xlink:href="#DejaVuSans-61" x="1746.923828"/>
       <use xlink:href="#DejaVuSans-6e" x="1808.203125"/>
       <use xlink:href="#DejaVuSans-67" x="1871.582031"/>
       <use xlink:href="#DejaVuSans-69" x="1935.058594"/>
       <use xlink:href="#DejaVuSans-6e" x="1962.841797"/>
       <use xlink:href="#DejaVuSans-67" x="2026.220703"/>
       <use xlink:href="#DejaVuSans-5f" x="2089.697266"/>
       <use xlink:href="#DejaVuSans-72" x="2139.697266"/>
       <use xlink:href="#DejaVuSans-61" x="2180.810547"/>
       <use xlink:href="#DejaVuSans-74" x="2242.089844"/>
       <use xlink:href="#DejaVuSans-65" x="2281.298828"/>
       <use xlink:href="#DejaVuSans-2e" x="2342.822266"/>
       <use xlink:href="#DejaVuSans-79" x="2374.609375"/>
       <use xlink:href="#DejaVuSans-61" x="2433.789062"/>
       <use xlink:href="#DejaVuSans-6d" x="2495.068359"/>
       <use xlink:href="#DejaVuSans-6c" x="2592.480469"/>
      </g>
     </g>
    </g>
   </g>
   <defs>
    <clipPath id="p5f9558566c">
     <rect x="43.78125" y="22.318125" width="453.81875" height="238.10375"/>
    </clipPath>
   </defs>
  </g>
 </g>
</svg>
