<?xml version="1.0" encoding="utf-8" standalone="no"?>
<!DOCTYPE svg PUBLIC "-//W3C//DTD SVG 1.1//EN"
  "http://www.w3.org/Graphics/SVG/1.1/DTD/svg11.dtd">
<svg xmlns:xlink="http://www.w3.org/1999/xlink" width="504.8pt" height="280.8pt" viewBox="0 0 504.8 280.8" xmlns="http://www.w3.org/2000/svg" version="1.1">
 <metadata>
  <rdf:RDF xmlns:dc="http://purl.org/dc/elements/1.1/" xmlns:cc="http://creativecommons.org/ns#" xmlns:rdf="http://www.w3.org/1999/02/22-rdf-syntax-ns#">
   <cc:Work>
    <dc:type rdf:resource="http://purl.org/dc/dcmitype/StillImage"/>
    <dc:date>2021-12-13T08:32:34.744661</dc:date>
    <dc:format>image/svg+xml</dc:format>
    <dc:creator>
     <cc:Agent>
      <dc:title>Matplotlib v3.5.1, https://matplotlib.org/</dc:title>
     </cc:Agent>
    </dc:creator>
   </cc:Work>
  </rdf:RDF>
 </metadata>
 <defs>
  <style type="text/css">*{stroke-linejoin: round; stroke-linecap: butt}</style>
 </defs>
 <g id="figure_1">
  <g id="patch_1">
   <path d="M 0 280.8 
L 504.8 280.8 
L 504.8 0 
L 0 0 
L 0 280.8 
z
" style="fill: none"/>
  </g>
  <g id="axes_1">
   <g id="patch_2">
    <path d="M 43.78125 260.421875 
L 497.6 260.421875 
L 497.6 22.318125 
L 43.78125 22.318125 
z
" style="fill: #ffffff"/>
   </g>
   <path d="M 275.975354 148.956475 
L 274.975354 148.925038 
L 273.975354 148.888098 
L 272.975354 148.790352 
L 271.975354 148.75783 
L 270.975354 148.684205 
L 269.975354 148.64564 
L 268.975354 148.610226 
L 267.975354 148.552587 
L 266.975354 148.4822 
L 265.405896 148.430236 
" clip-path="url(#pad45d88937)" style="fill: none; stroke: #ff7f0e; stroke-opacity: 0.5; stroke-width: 0.2; stroke-linecap: square"/>
   <path d="M 275.975354 78.116878 
L 274.975354 78.085441 
L 273.975354 78.048501 
L 272.975354 77.950754 
L 271.975354 77.918233 
L 270.975354 77.844608 
L 269.975354 77.806042 
L 268.975354 77.770629 
L 267.975354 77.712989 
L 266.975354 77.642603 
L 265.405896 77.590639 
" clip-path="url(#pad45d88937)" style="fill: none; stroke: #ff7f0e; stroke-opacity: 0.5; stroke-width: 0.2; stroke-linecap: square"/>
   <path d="M 275.975354 69.955448 
L 274.975354 69.924012 
L 273.975354 69.887072 
L 272.975354 69.789325 
L 271.975354 69.756803 
L 270.975354 69.683179 
L 269.975354 69.644613 
L 268.975354 69.6092 
L 267.975354 69.55156 
L 266.975354 69.481174 
L 265.405896 69.42921 
" clip-path="url(#pad45d88937)" style="fill: none; stroke: #ff7f0e; stroke-opacity: 0.5; stroke-width: 0.2; stroke-linecap: square"/>
   <path d="M 275.975354 151.63765 
L 274.975354 151.606213 
L 273.975354 151.569273 
L 272.975354 151.471526 
L 271.975354 151.439005 
L 270.975354 151.36538 
L 269.975354 151.326815 
L 268.975354 151.291401 
L 267.975354 151.233761 
L 266.975354 151.163375 
L 265.405896 151.111411 
" clip-path="url(#pad45d88937)" style="fill: none; stroke: #ff7f0e; stroke-opacity: 0.5; stroke-width: 0.2; stroke-linecap: square"/>
   <path d="M 275.975354 88.548328 
L 274.975354 88.516892 
L 273.975354 88.479951 
L 272.975354 88.382205 
L 271.975354 88.349683 
L 270.975354 88.276059 
L 269.975354 88.237493 
L 268.975354 88.20208 
L 267.975354 88.14444 
L 266.975354 88.074054 
L 265.405896 88.02209 
" clip-path="url(#pad45d88937)" style="fill: none; stroke: #ff7f0e; stroke-opacity: 0.5; stroke-width: 0.2; stroke-linecap: square"/>
   <path d="M 275.975354 104.860615 
L 274.975354 104.829179 
L 273.975354 104.792238 
L 272.975354 104.694492 
L 271.975354 104.66197 
L 270.975354 104.588346 
L 269.975354 104.54978 
L 268.975354 104.514367 
L 267.975354 104.456727 
L 266.975354 104.386341 
L 265.405896 104.334377 
" clip-path="url(#pad45d88937)" style="fill: none; stroke: #ff7f0e; stroke-opacity: 0.5; stroke-width: 0.2; stroke-linecap: square"/>
   <path d="M 275.975354 142.181703 
L 274.975354 142.150267 
L 273.975354 142.113326 
L 272.975354 142.01558 
L 271.975354 141.983058 
L 270.975354 141.909433 
L 269.975354 141.870868 
L 268.975354 141.835455 
L 267.975354 141.777815 
L 266.975354 141.707428 
L 265.405896 141.655464 
" clip-path="url(#pad45d88937)" style="fill: none; stroke: #ff7f0e; stroke-opacity: 0.5; stroke-width: 0.2; stroke-linecap: square"/>
   <path d="M 275.975354 86.70608 
L 274.975354 86.674644 
L 273.975354 86.637704 
L 272.975354 86.539957 
L 271.975354 86.507436 
L 270.975354 86.433811 
L 269.975354 86.395245 
L 268.975354 86.359832 
L 267.975354 86.302192 
L 266.975354 86.231806 
L 265.405896 86.179842 
" clip-path="url(#pad45d88937)" style="fill: none; stroke: #ff7f0e; stroke-opacity: 0.5; stroke-width: 0.2; stroke-linecap: square"/>
   <path d="M 275.975354 122.265107 
L 274.975354 122.233671 
L 273.975354 122.19673 
L 272.975354 122.098984 
L 271.975354 122.066462 
L 270.975354 121.992837 
L 269.975354 121.954272 
L 268.975354 121.918859 
L 267.975354 121.861219 
L 266.975354 121.790832 
L 265.405896 121.738868 
" clip-path="url(#pad45d88937)" style="fill: none; stroke: #ff7f0e; stroke-opacity: 0.5; stroke-width: 0.2; stroke-linecap: square"/>
   <path d="M 275.975354 163.562953 
L 274.975354 163.531517 
L 273.975354 163.494577 
L 272.975354 163.39683 
L 271.975354 163.364308 
L 270.975354 163.290684 
L 269.975354 163.252118 
L 268.975354 163.216705 
L 267.975354 163.159065 
L 266.975354 163.088679 
L 265.405896 163.036715 
" clip-path="url(#pad45d88937)" style="fill: none; stroke: #ff7f0e; stroke-opacity: 0.5; stroke-width: 0.2; stroke-linecap: square"/>
   <path d="M 265.405896 126.292251 
L 266.405896 126.323687 
L 267.405896 126.360627 
L 268.405896 126.458374 
L 269.405896 126.490896 
L 270.405896 126.56452 
L 271.405896 126.603086 
L 272.405896 126.638499 
L 273.405896 126.696139 
L 274.405896 126.766525 
L 275.975354 126.818489 
" clip-path="url(#pad45d88937)" style="fill: none; stroke: #1f77b4; stroke-opacity: 0.5; stroke-width: 0.2; stroke-linecap: square"/>
   <path d="M 265.405896 90.910562 
L 266.405896 90.941999 
L 267.405896 90.978939 
L 268.405896 91.076686 
L 269.405896 91.109207 
L 270.405896 91.182832 
L 271.405896 91.221397 
L 272.405896 91.256811 
L 273.405896 91.31445 
L 274.405896 91.384837 
L 275.975354 91.436801 
" clip-path="url(#pad45d88937)" style="fill: none; stroke: #1f77b4; stroke-opacity: 0.5; stroke-width: 0.2; stroke-linecap: square"/>
   <path d="M 265.405896 158.384961 
L 266.405896 158.416397 
L 267.405896 158.453338 
L 268.405896 158.551084 
L 269.405896 158.583606 
L 270.405896 158.65723 
L 271.405896 158.695796 
L 272.405896 158.731209 
L 273.405896 158.788849 
L 274.405896 158.859235 
L 275.975354 158.9112 
" clip-path="url(#pad45d88937)" style="fill: none; stroke: #1f77b4; stroke-opacity: 0.5; stroke-width: 0.2; stroke-linecap: square"/>
   <path d="M 265.405896 90.609083 
L 266.405896 90.64052 
L 267.405896 90.67746 
L 268.405896 90.775207 
L 269.405896 90.807728 
L 270.405896 90.881353 
L 271.405896 90.919919 
L 272.405896 90.955332 
L 273.405896 91.012972 
L 274.405896 91.083358 
L 275.975354 91.135322 
" clip-path="url(#pad45d88937)" style="fill: none; stroke: #1f77b4; stroke-opacity: 0.5; stroke-width: 0.2; stroke-linecap: square"/>
   <path d="M 265.405896 71.315886 
L 266.405896 71.347322 
L 267.405896 71.384263 
L 268.405896 71.482009 
L 269.405896 71.514531 
L 270.405896 71.588155 
L 271.405896 71.626721 
L 272.405896 71.662134 
L 273.405896 71.719774 
L 274.405896 71.79016 
L 275.975354 71.842124 
" clip-path="url(#pad45d88937)" style="fill: none; stroke: #1f77b4; stroke-opacity: 0.5; stroke-width: 0.2; stroke-linecap: square"/>
   <path d="M 265.405896 75.401133 
L 266.405896 75.43257 
L 267.405896 75.46951 
L 268.405896 75.567257 
L 269.405896 75.599778 
L 270.405896 75.673403 
L 271.405896 75.711969 
L 272.405896 75.747382 
L 273.405896 75.805022 
L 274.405896 75.875408 
L 275.975354 75.927372 
" clip-path="url(#pad45d88937)" style="fill: none; stroke: #1f77b4; stroke-opacity: 0.5; stroke-width: 0.2; stroke-linecap: square"/>
   <path d="M 265.405896 107.638882 
L 266.405896 107.670318 
L 267.405896 107.707259 
L 268.405896 107.805005 
L 269.405896 107.837527 
L 270.405896 107.911151 
L 271.405896 107.949717 
L 272.405896 107.98513 
L 273.405896 108.04277 
L 274.405896 108.113156 
L 275.975354 108.165121 
" clip-path="url(#pad45d88937)" style="fill: none; stroke: #1f77b4; stroke-opacity: 0.5; stroke-width: 0.2; stroke-linecap: square"/>
   <path d="M 265.405896 94.644381 
L 266.405896 94.675817 
L 267.405896 94.712758 
L 268.405896 94.810504 
L 269.405896 94.843026 
L 270.405896 94.91665 
L 271.405896 94.955216 
L 272.405896 94.990629 
L 273.405896 95.048269 
L 274.405896 95.118655 
L 275.975354 95.170619 
" clip-path="url(#pad45d88937)" style="fill: none; stroke: #1f77b4; stroke-opacity: 0.5; stroke-width: 0.2; stroke-linecap: square"/>
   <path d="M 265.405896 97.825612 
L 266.405896 97.857048 
L 267.405896 97.893988 
L 268.405896 97.991735 
L 269.405896 98.024256 
L 270.405896 98.097881 
L 271.405896 98.136447 
L 272.405896 98.17186 
L 273.405896 98.2295 
L 274.405896 98.299886 
L 275.975354 98.35185 
" clip-path="url(#pad45d88937)" style="fill: none; stroke: #1f77b4; stroke-opacity: 0.5; stroke-width: 0.2; stroke-linecap: square"/>
   <path d="M 265.405896 139.950977 
L 266.405896 139.982413 
L 267.405896 140.019353 
L 268.405896 140.1171 
L 269.405896 140.149622 
L 270.405896 140.223246 
L 271.405896 140.261812 
L 272.405896 140.297225 
L 273.405896 140.354865 
L 274.405896 140.425251 
L 275.975354 140.477215 
" clip-path="url(#pad45d88937)" style="fill: none; stroke: #1f77b4; stroke-opacity: 0.5; stroke-width: 0.2; stroke-linecap: square"/>
   <path d="M 275.975354 190.706216 
L 274.975354 190.67478 
L 273.975354 190.637839 
L 272.975354 190.540093 
L 271.975354 190.507571 
L 270.975354 190.433947 
L 269.975354 190.395381 
L 268.975354 190.359968 
L 267.975354 190.302328 
L 266.975354 190.231942 
L 265.405896 190.179978 
" clip-path="url(#pad45d88937)" style="fill: none; stroke: #ff7f0e; stroke-opacity: 0.5; stroke-width: 0.2; stroke-linecap: square"/>
   <path d="M 275.975354 172.567665 
L 274.975354 172.536228 
L 273.975354 172.499288 
L 272.975354 172.401541 
L 271.975354 172.36902 
L 270.975354 172.295395 
L 269.975354 172.256829 
L 268.975354 172.221416 
L 267.975354 172.163776 
L 266.975354 172.09339 
L 265.405896 172.041426 
" clip-path="url(#pad45d88937)" style="fill: none; stroke: #ff7f0e; stroke-opacity: 0.5; stroke-width: 0.2; stroke-linecap: square"/>
   <path d="M 275.975354 212.891757 
L 274.975354 212.860321 
L 273.975354 212.82338 
L 272.975354 212.725634 
L 271.975354 212.693112 
L 270.975354 212.619487 
L 269.975354 212.580922 
L 268.975354 212.545509 
L 267.975354 212.487869 
L 266.975354 212.417483 
L 265.405896 212.365518 
" clip-path="url(#pad45d88937)" style="fill: none; stroke: #ff7f0e; stroke-opacity: 0.5; stroke-width: 0.2; stroke-linecap: square"/>
   <path d="M 275.975354 250.565953 
L 274.975354 250.534516 
L 273.975354 250.497576 
L 272.975354 250.399829 
L 271.975354 250.367308 
L 270.975354 250.293683 
L 269.975354 250.255117 
L 268.975354 250.219704 
L 267.975354 250.162064 
L 266.975354 250.091678 
L 265.405896 250.039714 
" clip-path="url(#pad45d88937)" style="fill: none; stroke: #ff7f0e; stroke-opacity: 0.5; stroke-width: 0.2; stroke-linecap: square"/>
   <path d="M 275.975354 204.007021 
L 274.975354 203.975584 
L 273.975354 203.938644 
L 272.975354 203.840897 
L 271.975354 203.808376 
L 270.975354 203.734751 
L 269.975354 203.696185 
L 268.975354 203.660772 
L 267.975354 203.603132 
L 266.975354 203.532746 
L 265.405896 203.480782 
" clip-path="url(#pad45d88937)" style="fill: none; stroke: #ff7f0e; stroke-opacity: 0.5; stroke-width: 0.2; stroke-linecap: square"/>
   <path d="M 275.975354 253.3079 
L 274.975354 253.276463 
L 273.975354 253.239523 
L 272.975354 253.141776 
L 271.975354 253.109255 
L 270.975354 253.03563 
L 269.975354 252.997065 
L 268.975354 252.961651 
L 267.975354 252.904012 
L 266.975354 252.833625 
L 265.405896 252.781661 
" clip-path="url(#pad45d88937)" style="fill: none; stroke: #ff7f0e; stroke-opacity: 0.5; stroke-width: 0.2; stroke-linecap: square"/>
   <path d="M 275.975354 250.318882 
L 274.975354 250.287445 
L 273.975354 250.250505 
L 272.975354 250.152758 
L 271.975354 250.120237 
L 270.975354 250.046612 
L 269.975354 250.008047 
L 268.975354 249.972633 
L 267.975354 249.914993 
L 266.975354 249.844607 
L 265.405896 249.792643 
" clip-path="url(#pad45d88937)" style="fill: none; stroke: #ff7f0e; stroke-opacity: 0.5; stroke-width: 0.2; stroke-linecap: square"/>
   <path d="M 275.975354 233.491336 
L 274.975354 233.459899 
L 273.975354 233.422959 
L 272.975354 233.325212 
L 271.975354 233.292691 
L 270.975354 233.219066 
L 269.975354 233.180501 
L 268.975354 233.145087 
L 267.975354 233.087447 
L 266.975354 233.017061 
L 265.405896 232.965097 
" clip-path="url(#pad45d88937)" style="fill: none; stroke: #ff7f0e; stroke-opacity: 0.5; stroke-width: 0.2; stroke-linecap: square"/>
   <path d="M 275.975354 189.555643 
L 274.975354 189.524206 
L 273.975354 189.487266 
L 272.975354 189.389519 
L 271.975354 189.356998 
L 270.975354 189.283373 
L 269.975354 189.244808 
L 268.975354 189.209394 
L 267.975354 189.151754 
L 266.975354 189.081368 
L 265.405896 189.029404 
" clip-path="url(#pad45d88937)" style="fill: none; stroke: #ff7f0e; stroke-opacity: 0.5; stroke-width: 0.2; stroke-linecap: square"/>
   <path d="M 275.975354 247.925675 
L 274.975354 247.894238 
L 273.975354 247.857298 
L 272.975354 247.759551 
L 271.975354 247.72703 
L 270.975354 247.653405 
L 269.975354 247.61484 
L 268.975354 247.579426 
L 267.975354 247.521786 
L 266.975354 247.4514 
L 265.405896 247.399436 
" clip-path="url(#pad45d88937)" style="fill: none; stroke: #ff7f0e; stroke-opacity: 0.5; stroke-width: 0.2; stroke-linecap: square"/>
   <path d="M 265.405896 206.591552 
L 266.405896 206.622988 
L 267.405896 206.659929 
L 268.405896 206.757675 
L 269.405896 206.790197 
L 270.405896 206.863822 
L 271.405896 206.902387 
L 272.405896 206.9378 
L 273.405896 206.99544 
L 274.405896 207.065826 
L 275.975354 207.117791 
" clip-path="url(#pad45d88937)" style="fill: none; stroke: #1f77b4; stroke-opacity: 0.5; stroke-width: 0.2; stroke-linecap: square"/>
   <path d="M 265.405896 259.45041 
L 266.405896 259.481846 
L 267.405896 259.518787 
L 268.405896 259.616533 
L 269.405896 259.649055 
L 270.405896 259.722679 
L 271.405896 259.761245 
L 272.405896 259.796658 
L 273.405896 259.854298 
L 274.405896 259.924684 
L 275.975354 259.976649 
" clip-path="url(#pad45d88937)" style="fill: none; stroke: #1f77b4; stroke-opacity: 0.5; stroke-width: 0.2; stroke-linecap: square"/>
   <path d="M 265.405896 196.272038 
L 266.405896 196.303475 
L 267.405896 196.340415 
L 268.405896 196.438161 
L 269.405896 196.470683 
L 270.405896 196.544308 
L 271.405896 196.582873 
L 272.405896 196.618286 
L 273.405896 196.675926 
L 274.405896 196.746313 
L 275.975354 196.798277 
" clip-path="url(#pad45d88937)" style="fill: none; stroke: #1f77b4; stroke-opacity: 0.5; stroke-width: 0.2; stroke-linecap: square"/>
   <path d="M 265.405896 191.039975 
L 266.405896 191.071411 
L 267.405896 191.108351 
L 268.405896 191.206098 
L 269.405896 191.23862 
L 270.405896 191.312244 
L 271.405896 191.35081 
L 272.405896 191.386223 
L 273.405896 191.443863 
L 274.405896 191.514249 
L 275.975354 191.566213 
" clip-path="url(#pad45d88937)" style="fill: none; stroke: #1f77b4; stroke-opacity: 0.5; stroke-width: 0.2; stroke-linecap: square"/>
   <path d="M 265.405896 260.268906 
L 266.405896 260.300343 
L 267.405896 260.337283 
L 268.405896 260.43503 
L 269.405896 260.467551 
L 270.405896 260.541176 
L 271.405896 260.579742 
L 272.405896 260.615155 
L 273.405896 260.672795 
L 274.405896 260.743181 
L 275.975354 260.795145 
" clip-path="url(#pad45d88937)" style="fill: none; stroke: #1f77b4; stroke-opacity: 0.5; stroke-width: 0.2; stroke-linecap: square"/>
   <path d="M 265.405896 174.006452 
L 266.405896 174.037889 
L 267.405896 174.074829 
L 268.405896 174.172575 
L 269.405896 174.205097 
L 270.405896 174.278722 
L 271.405896 174.317287 
L 272.405896 174.352701 
L 273.405896 174.41034 
L 274.405896 174.480727 
L 275.975354 174.532691 
" clip-path="url(#pad45d88937)" style="fill: none; stroke: #1f77b4; stroke-opacity: 0.5; stroke-width: 0.2; stroke-linecap: square"/>
   <path d="M 265.405896 231.092283 
L 266.405896 231.123719 
L 267.405896 231.160659 
L 268.405896 231.258406 
L 269.405896 231.290928 
L 270.405896 231.364552 
L 271.405896 231.403118 
L 272.405896 231.438531 
L 273.405896 231.496171 
L 274.405896 231.566557 
L 275.975354 231.618521 
" clip-path="url(#pad45d88937)" style="fill: none; stroke: #1f77b4; stroke-opacity: 0.5; stroke-width: 0.2; stroke-linecap: square"/>
   <path d="M 265.405896 254.095132 
L 266.405896 254.126568 
L 267.405896 254.163508 
L 268.405896 254.261255 
L 269.405896 254.293776 
L 270.405896 254.367401 
L 271.405896 254.405967 
L 272.405896 254.44138 
L 273.405896 254.49902 
L 274.405896 254.569406 
L 275.975354 254.62137 
" clip-path="url(#pad45d88937)" style="fill: none; stroke: #1f77b4; stroke-opacity: 0.5; stroke-width: 0.2; stroke-linecap: square"/>
   <path d="M 265.405896 232.969541 
L 266.405896 233.000977 
L 267.405896 233.037917 
L 268.405896 233.135664 
L 269.405896 233.168186 
L 270.405896 233.24181 
L 271.405896 233.280376 
L 272.405896 233.315789 
L 273.405896 233.373429 
L 274.405896 233.443815 
L 275.975354 233.495779 
" clip-path="url(#pad45d88937)" style="fill: none; stroke: #1f77b4; stroke-opacity: 0.5; stroke-width: 0.2; stroke-linecap: square"/>
   <path d="M 265.405896 207.133415 
L 266.405896 207.164852 
L 267.405896 207.201792 
L 268.405896 207.299539 
L 269.405896 207.33206 
L 270.405896 207.405685 
L 271.405896 207.444251 
L 272.405896 207.479664 
L 273.405896 207.537304 
L 274.405896 207.60769 
L 275.975354 207.659654 
" clip-path="url(#pad45d88937)" style="fill: none; stroke: #1f77b4; stroke-opacity: 0.5; stroke-width: 0.2; stroke-linecap: square"/>
   <g id="patch_3">
    <path d="M 64.409375 22.318125 
L 64.409375 260.421875 
M 260.867708 22.318125 
L 260.867708 260.421875 
" clip-path="url(#pad45d88937)" style="fill: none; stroke: #ffffff; stroke-width: 3; stroke-linejoin: miter"/>
    <path d="M 64.409375 22.318125 
L 64.409375 260.421875 
M 260.867708 22.318125 
L 260.867708 260.421875 
" clip-path="url(#pad45d88937)" style="fill: none; stroke: #1f77b4; stroke-linejoin: miter"/>
    <g id="PolyCollection_1">
     <path d="M 260.867708 22.318125 
L 64.409375 22.318125 
L 64.409375 260.421875 
L 260.867708 260.421875 
L 260.867708 260.421875 
L 260.867708 22.318125 
z
" clip-path="url(#pad45d88937)" style="fill: #1f77b4; fill-opacity: 0.5"/>
    </g>
    <g id="patch_4">
     <path d="M 280.513542 22.318125 
L 280.513542 260.421875 
M 476.971875 22.318125 
L 476.971875 260.421875 
" clip-path="url(#pad45d88937)" style="fill: none; stroke: #ffffff; stroke-width: 3; stroke-linejoin: miter"/>
     <path d="M 280.513542 22.318125 
L 280.513542 260.421875 
M 476.971875 22.318125 
L 476.971875 260.421875 
" clip-path="url(#pad45d88937)" style="fill: none; stroke: #ff7f0e; stroke-linejoin: miter"/>
     <g id="PolyCollection_2">
      <path d="M 476.971875 22.318125 
L 280.513542 22.318125 
L 280.513542 260.421875 
L 476.971875 260.421875 
L 476.971875 260.421875 
L 476.971875 22.318125 
z
" clip-path="url(#pad45d88937)" style="fill: #ff7f0e; fill-opacity: 0.5"/>
     </g>
     <g id="matplotlib.axis_1">
      <g id="xtick_1">
       <g id="line2d_1"/>
       <g id="text_1">
        <!-- deme0 -->
        <g transform="translate(145.259635 271.520312)scale(0.1 -0.1)">
         <defs>
          <path id="DejaVuSans-64" d="M 2906 2969 
L 2906 4863 
L 3481 4863 
L 3481 0 
L 2906 0 
L 2906 525 
Q 2725 213 2448 61 
Q 2172 -91 1784 -91 
Q 1150 -91 751 415 
Q 353 922 353 1747 
Q 353 2572 751 3078 
Q 1150 3584 1784 3584 
Q 2172 3584 2448 3432 
Q 2725 3281 2906 2969 
z
M 947 1747 
Q 947 1113 1208 752 
Q 1469 391 1925 391 
Q 2381 391 2643 752 
Q 2906 1113 2906 1747 
Q 2906 2381 2643 2742 
Q 2381 3103 1925 3103 
Q 1469 3103 1208 2742 
Q 947 2381 947 1747 
z
" transform="scale(0.015625)"/>
          <path id="DejaVuSans-65" d="M 3597 1894 
L 3597 1613 
L 953 1613 
Q 991 1019 1311 708 
Q 1631 397 2203 397 
Q 2534 397 2845 478 
Q 3156 559 3463 722 
L 3463 178 
Q 3153 47 2828 -22 
Q 2503 -91 2169 -91 
Q 1331 -91 842 396 
Q 353 884 353 1716 
Q 353 2575 817 3079 
Q 1281 3584 2069 3584 
Q 2775 3584 3186 3129 
Q 3597 2675 3597 1894 
z
M 3022 2063 
Q 3016 2534 2758 2815 
Q 2500 3097 2075 3097 
Q 1594 3097 1305 2825 
Q 1016 2553 972 2059 
L 3022 2063 
z
" transform="scale(0.015625)"/>
          <path id="DejaVuSans-6d" d="M 3328 2828 
Q 3544 3216 3844 3400 
Q 4144 3584 4550 3584 
Q 5097 3584 5394 3201 
Q 5691 2819 5691 2113 
L 5691 0 
L 5113 0 
L 5113 2094 
Q 5113 2597 4934 2840 
Q 4756 3084 4391 3084 
Q 3944 3084 3684 2787 
Q 3425 2491 3425 1978 
L 3425 0 
L 2847 0 
L 2847 2094 
Q 2847 2600 2669 2842 
Q 2491 3084 2119 3084 
Q 1678 3084 1418 2786 
Q 1159 2488 1159 1978 
L 1159 0 
L 581 0 
L 581 3500 
L 1159 3500 
L 1159 2956 
Q 1356 3278 1631 3431 
Q 1906 3584 2284 3584 
Q 2666 3584 2933 3390 
Q 3200 3197 3328 2828 
z
" transform="scale(0.015625)"/>
          <path id="DejaVuSans-30" d="M 2034 4250 
Q 1547 4250 1301 3770 
Q 1056 3291 1056 2328 
Q 1056 1369 1301 889 
Q 1547 409 2034 409 
Q 2525 409 2770 889 
Q 3016 1369 3016 2328 
Q 3016 3291 2770 3770 
Q 2525 4250 2034 4250 
z
M 2034 4750 
Q 2819 4750 3233 4129 
Q 3647 3509 3647 2328 
Q 3647 1150 3233 529 
Q 2819 -91 2034 -91 
Q 1250 -91 836 529 
Q 422 1150 422 2328 
Q 422 3509 836 4129 
Q 1250 4750 2034 4750 
z
" transform="scale(0.015625)"/>
         </defs>
         <use xlink:href="#DejaVuSans-64"/>
         <use xlink:href="#DejaVuSans-65" x="63.476562"/>
         <use xlink:href="#DejaVuSans-6d" x="125"/>
         <use xlink:href="#DejaVuSans-65" x="222.412109"/>
         <use xlink:href="#DejaVuSans-30" x="283.935547"/>
        </g>
       </g>
      </g>
      <g id="xtick_2">
       <g id="line2d_2"/>
       <g id="text_2">
        <!-- deme1 -->
        <g transform="translate(361.363802 271.520312)scale(0.1 -0.1)">
         <defs>
          <path id="DejaVuSans-31" d="M 794 531 
L 1825 531 
L 1825 4091 
L 703 3866 
L 703 4441 
L 1819 4666 
L 2450 4666 
L 2450 531 
L 3481 531 
L 3481 0 
L 794 0 
L 794 531 
z
" transform="scale(0.015625)"/>
         </defs>
         <use xlink:href="#DejaVuSans-64"/>
         <use xlink:href="#DejaVuSans-65" x="63.476562"/>
         <use xlink:href="#DejaVuSans-6d" x="125"/>
         <use xlink:href="#DejaVuSans-65" x="222.412109"/>
         <use xlink:href="#DejaVuSans-31" x="283.935547"/>
        </g>
       </g>
      </g>
     </g>
     <g id="matplotlib.axis_2">
      <g id="ytick_1">
       <g id="line2d_3">
        <defs>
         <path id="me6445b8b75" d="M 0 0 
L -3.5 0 
" style="stroke: #000000; stroke-width: 0.8"/>
        </defs>
        <g>
         <use xlink:href="#me6445b8b75" x="43.78125" y="260.421875" style="stroke: #000000; stroke-width: 0.8"/>
        </g>
       </g>
       <g id="text_3">
        <!-- 0.0 -->
        <g transform="translate(20.878125 264.221094)scale(0.1 -0.1)">
         <defs>
          <path id="DejaVuSans-2e" d="M 684 794 
L 1344 794 
L 1344 0 
L 684 0 
L 684 794 
z
" transform="scale(0.015625)"/>
         </defs>
         <use xlink:href="#DejaVuSans-30"/>
         <use xlink:href="#DejaVuSans-2e" x="63.623047"/>
         <use xlink:href="#DejaVuSans-30" x="95.410156"/>
        </g>
       </g>
      </g>
      <g id="ytick_2">
       <g id="line2d_4">
        <g>
         <use xlink:href="#me6445b8b75" x="43.78125" y="212.801125" style="stroke: #000000; stroke-width: 0.8"/>
        </g>
       </g>
       <g id="text_4">
        <!-- 0.5 -->
        <g transform="translate(20.878125 216.600344)scale(0.1 -0.1)">
         <defs>
          <path id="DejaVuSans-35" d="M 691 4666 
L 3169 4666 
L 3169 4134 
L 1269 4134 
L 1269 2991 
Q 1406 3038 1543 3061 
Q 1681 3084 1819 3084 
Q 2600 3084 3056 2656 
Q 3513 2228 3513 1497 
Q 3513 744 3044 326 
Q 2575 -91 1722 -91 
Q 1428 -91 1123 -41 
Q 819 9 494 109 
L 494 744 
Q 775 591 1075 516 
Q 1375 441 1709 441 
Q 2250 441 2565 725 
Q 2881 1009 2881 1497 
Q 2881 1984 2565 2268 
Q 2250 2553 1709 2553 
Q 1456 2553 1204 2497 
Q 953 2441 691 2322 
L 691 4666 
z
" transform="scale(0.015625)"/>
         </defs>
         <use xlink:href="#DejaVuSans-30"/>
         <use xlink:href="#DejaVuSans-2e" x="63.623047"/>
         <use xlink:href="#DejaVuSans-35" x="95.410156"/>
        </g>
       </g>
      </g>
      <g id="ytick_3">
       <g id="line2d_5">
        <g>
         <use xlink:href="#me6445b8b75" x="43.78125" y="165.180375" style="stroke: #000000; stroke-width: 0.8"/>
        </g>
       </g>
       <g id="text_5">
        <!-- 1.0 -->
        <g transform="translate(20.878125 168.979594)scale(0.1 -0.1)">
         <use xlink:href="#DejaVuSans-31"/>
         <use xlink:href="#DejaVuSans-2e" x="63.623047"/>
         <use xlink:href="#DejaVuSans-30" x="95.410156"/>
        </g>
       </g>
      </g>
      <g id="ytick_4">
       <g id="line2d_6">
        <g>
         <use xlink:href="#me6445b8b75" x="43.78125" y="117.559625" style="stroke: #000000; stroke-width: 0.8"/>
        </g>
       </g>
       <g id="text_6">
        <!-- 1.5 -->
        <g transform="translate(20.878125 121.358844)scale(0.1 -0.1)">
         <use xlink:href="#DejaVuSans-31"/>
         <use xlink:href="#DejaVuSans-2e" x="63.623047"/>
         <use xlink:href="#DejaVuSans-35" x="95.410156"/>
        </g>
       </g>
      </g>
      <g id="ytick_5">
       <g id="line2d_7">
        <g>
         <use xlink:href="#me6445b8b75" x="43.78125" y="69.938875" style="stroke: #000000; stroke-width: 0.8"/>
        </g>
       </g>
       <g id="text_7">
        <!-- 2.0 -->
        <g transform="translate(20.878125 73.738094)scale(0.1 -0.1)">
         <defs>
          <path id="DejaVuSans-32" d="M 1228 531 
L 3431 531 
L 3431 0 
L 469 0 
L 469 531 
Q 828 903 1448 1529 
Q 2069 2156 2228 2338 
Q 2531 2678 2651 2914 
Q 2772 3150 2772 3378 
Q 2772 3750 2511 3984 
Q 2250 4219 1831 4219 
Q 1534 4219 1204 4116 
Q 875 4013 500 3803 
L 500 4441 
Q 881 4594 1212 4672 
Q 1544 4750 1819 4750 
Q 2544 4750 2975 4387 
Q 3406 4025 3406 3419 
Q 3406 3131 3298 2873 
Q 3191 2616 2906 2266 
Q 2828 2175 2409 1742 
Q 1991 1309 1228 531 
z
" transform="scale(0.015625)"/>
         </defs>
         <use xlink:href="#DejaVuSans-32"/>
         <use xlink:href="#DejaVuSans-2e" x="63.623047"/>
         <use xlink:href="#DejaVuSans-30" x="95.410156"/>
        </g>
       </g>
      </g>
      <g id="ytick_6">
       <g id="line2d_8">
        <g>
         <use xlink:href="#me6445b8b75" x="43.78125" y="22.318125" style="stroke: #000000; stroke-width: 0.8"/>
        </g>
       </g>
       <g id="text_8">
        <!-- 2.5 -->
        <g transform="translate(20.878125 26.117344)scale(0.1 -0.1)">
         <use xlink:href="#DejaVuSans-32"/>
         <use xlink:href="#DejaVuSans-2e" x="63.623047"/>
         <use xlink:href="#DejaVuSans-35" x="95.410156"/>
        </g>
       </g>
      </g>
      <g id="text_9">
       <!-- time ago (generations) -->
       <g transform="translate(14.798438 198.841094)rotate(-90)scale(0.1 -0.1)">
        <defs>
         <path id="DejaVuSans-74" d="M 1172 4494 
L 1172 3500 
L 2356 3500 
L 2356 3053 
L 1172 3053 
L 1172 1153 
Q 1172 725 1289 603 
Q 1406 481 1766 481 
L 2356 481 
L 2356 0 
L 1766 0 
Q 1100 0 847 248 
Q 594 497 594 1153 
L 594 3053 
L 172 3053 
L 172 3500 
L 594 3500 
L 594 4494 
L 1172 4494 
z
" transform="scale(0.015625)"/>
         <path id="DejaVuSans-69" d="M 603 3500 
L 1178 3500 
L 1178 0 
L 603 0 
L 603 3500 
z
M 603 4863 
L 1178 4863 
L 1178 4134 
L 603 4134 
L 603 4863 
z
" transform="scale(0.015625)"/>
         <path id="DejaVuSans-20" transform="scale(0.015625)"/>
         <path id="DejaVuSans-61" d="M 2194 1759 
Q 1497 1759 1228 1600 
Q 959 1441 959 1056 
Q 959 750 1161 570 
Q 1363 391 1709 391 
Q 2188 391 2477 730 
Q 2766 1069 2766 1631 
L 2766 1759 
L 2194 1759 
z
M 3341 1997 
L 3341 0 
L 2766 0 
L 2766 531 
Q 2569 213 2275 61 
Q 1981 -91 1556 -91 
Q 1019 -91 701 211 
Q 384 513 384 1019 
Q 384 1609 779 1909 
Q 1175 2209 1959 2209 
L 2766 2209 
L 2766 2266 
Q 2766 2663 2505 2880 
Q 2244 3097 1772 3097 
Q 1472 3097 1187 3025 
Q 903 2953 641 2809 
L 641 3341 
Q 956 3463 1253 3523 
Q 1550 3584 1831 3584 
Q 2591 3584 2966 3190 
Q 3341 2797 3341 1997 
z
" transform="scale(0.015625)"/>
         <path id="DejaVuSans-67" d="M 2906 1791 
Q 2906 2416 2648 2759 
Q 2391 3103 1925 3103 
Q 1463 3103 1205 2759 
Q 947 2416 947 1791 
Q 947 1169 1205 825 
Q 1463 481 1925 481 
Q 2391 481 2648 825 
Q 2906 1169 2906 1791 
z
M 3481 434 
Q 3481 -459 3084 -895 
Q 2688 -1331 1869 -1331 
Q 1566 -1331 1297 -1286 
Q 1028 -1241 775 -1147 
L 775 -588 
Q 1028 -725 1275 -790 
Q 1522 -856 1778 -856 
Q 2344 -856 2625 -561 
Q 2906 -266 2906 331 
L 2906 616 
Q 2728 306 2450 153 
Q 2172 0 1784 0 
Q 1141 0 747 490 
Q 353 981 353 1791 
Q 353 2603 747 3093 
Q 1141 3584 1784 3584 
Q 2172 3584 2450 3431 
Q 2728 3278 2906 2969 
L 2906 3500 
L 3481 3500 
L 3481 434 
z
" transform="scale(0.015625)"/>
         <path id="DejaVuSans-6f" d="M 1959 3097 
Q 1497 3097 1228 2736 
Q 959 2375 959 1747 
Q 959 1119 1226 758 
Q 1494 397 1959 397 
Q 2419 397 2687 759 
Q 2956 1122 2956 1747 
Q 2956 2369 2687 2733 
Q 2419 3097 1959 3097 
z
M 1959 3584 
Q 2709 3584 3137 3096 
Q 3566 2609 3566 1747 
Q 3566 888 3137 398 
Q 2709 -91 1959 -91 
Q 1206 -91 779 398 
Q 353 888 353 1747 
Q 353 2609 779 3096 
Q 1206 3584 1959 3584 
z
" transform="scale(0.015625)"/>
         <path id="DejaVuSans-28" d="M 1984 4856 
Q 1566 4138 1362 3434 
Q 1159 2731 1159 2009 
Q 1159 1288 1364 580 
Q 1569 -128 1984 -844 
L 1484 -844 
Q 1016 -109 783 600 
Q 550 1309 550 2009 
Q 550 2706 781 3412 
Q 1013 4119 1484 4856 
L 1984 4856 
z
" transform="scale(0.015625)"/>
         <path id="DejaVuSans-6e" d="M 3513 2113 
L 3513 0 
L 2938 0 
L 2938 2094 
Q 2938 2591 2744 2837 
Q 2550 3084 2163 3084 
Q 1697 3084 1428 2787 
Q 1159 2491 1159 1978 
L 1159 0 
L 581 0 
L 581 3500 
L 1159 3500 
L 1159 2956 
Q 1366 3272 1645 3428 
Q 1925 3584 2291 3584 
Q 2894 3584 3203 3211 
Q 3513 2838 3513 2113 
z
" transform="scale(0.015625)"/>
         <path id="DejaVuSans-72" d="M 2631 2963 
Q 2534 3019 2420 3045 
Q 2306 3072 2169 3072 
Q 1681 3072 1420 2755 
Q 1159 2438 1159 1844 
L 1159 0 
L 581 0 
L 581 3500 
L 1159 3500 
L 1159 2956 
Q 1341 3275 1631 3429 
Q 1922 3584 2338 3584 
Q 2397 3584 2469 3576 
Q 2541 3569 2628 3553 
L 2631 2963 
z
" transform="scale(0.015625)"/>
         <path id="DejaVuSans-73" d="M 2834 3397 
L 2834 2853 
Q 2591 2978 2328 3040 
Q 2066 3103 1784 3103 
Q 1356 3103 1142 2972 
Q 928 2841 928 2578 
Q 928 2378 1081 2264 
Q 1234 2150 1697 2047 
L 1894 2003 
Q 2506 1872 2764 1633 
Q 3022 1394 3022 966 
Q 3022 478 2636 193 
Q 2250 -91 1575 -91 
Q 1294 -91 989 -36 
Q 684 19 347 128 
L 347 722 
Q 666 556 975 473 
Q 1284 391 1588 391 
Q 1994 391 2212 530 
Q 2431 669 2431 922 
Q 2431 1156 2273 1281 
Q 2116 1406 1581 1522 
L 1381 1569 
Q 847 1681 609 1914 
Q 372 2147 372 2553 
Q 372 3047 722 3315 
Q 1072 3584 1716 3584 
Q 2034 3584 2315 3537 
Q 2597 3491 2834 3397 
z
" transform="scale(0.015625)"/>
         <path id="DejaVuSans-29" d="M 513 4856 
L 1013 4856 
Q 1481 4119 1714 3412 
Q 1947 2706 1947 2009 
Q 1947 1309 1714 600 
Q 1481 -109 1013 -844 
L 513 -844 
Q 928 -128 1133 580 
Q 1338 1288 1338 2009 
Q 1338 2731 1133 3434 
Q 928 4138 513 4856 
z
" transform="scale(0.015625)"/>
        </defs>
        <use xlink:href="#DejaVuSans-74"/>
        <use xlink:href="#DejaVuSans-69" x="39.208984"/>
        <use xlink:href="#DejaVuSans-6d" x="66.992188"/>
        <use xlink:href="#DejaVuSans-65" x="164.404297"/>
        <use xlink:href="#DejaVuSans-20" x="225.927734"/>
        <use xlink:href="#DejaVuSans-61" x="257.714844"/>
        <use xlink:href="#DejaVuSans-67" x="318.994141"/>
        <use xlink:href="#DejaVuSans-6f" x="382.470703"/>
        <use xlink:href="#DejaVuSans-20" x="443.652344"/>
        <use xlink:href="#DejaVuSans-28" x="475.439453"/>
        <use xlink:href="#DejaVuSans-67" x="514.453125"/>
        <use xlink:href="#DejaVuSans-65" x="577.929688"/>
        <use xlink:href="#DejaVuSans-6e" x="639.453125"/>
        <use xlink:href="#DejaVuSans-65" x="702.832031"/>
        <use xlink:href="#DejaVuSans-72" x="764.355469"/>
        <use xlink:href="#DejaVuSans-61" x="805.46875"/>
        <use xlink:href="#DejaVuSans-74" x="866.748047"/>
        <use xlink:href="#DejaVuSans-69" x="905.957031"/>
        <use xlink:href="#DejaVuSans-6f" x="933.740234"/>
        <use xlink:href="#DejaVuSans-6e" x="994.921875"/>
        <use xlink:href="#DejaVuSans-73" x="1058.300781"/>
        <use xlink:href="#DejaVuSans-29" x="1110.400391"/>
       </g>
      </g>
     </g>
     <path d="M 264.405896 148.956475 
L 266.405896 149.956475 
L 266.405896 147.956475 
z
" clip-path="url(#pad45d88937)" style="fill: #ff7f0e; fill-opacity: 0.5; stroke: #ff7f0e; stroke-opacity: 0.5; stroke-linejoin: miter"/>
     <path d="M 264.405896 78.116878 
L 266.405896 79.116878 
L 266.405896 77.116878 
z
" clip-path="url(#pad45d88937)" style="fill: #ff7f0e; fill-opacity: 0.5; stroke: #ff7f0e; stroke-opacity: 0.5; stroke-linejoin: miter"/>
     <path d="M 264.405896 69.955448 
L 266.405896 70.955448 
L 266.405896 68.955448 
z
" clip-path="url(#pad45d88937)" style="fill: #ff7f0e; fill-opacity: 0.5; stroke: #ff7f0e; stroke-opacity: 0.5; stroke-linejoin: miter"/>
     <path d="M 264.405896 151.63765 
L 266.405896 152.63765 
L 266.405896 150.63765 
z
" clip-path="url(#pad45d88937)" style="fill: #ff7f0e; fill-opacity: 0.5; stroke: #ff7f0e; stroke-opacity: 0.5; stroke-linejoin: miter"/>
     <path d="M 264.405896 88.548328 
L 266.405896 89.548328 
L 266.405896 87.548328 
z
" clip-path="url(#pad45d88937)" style="fill: #ff7f0e; fill-opacity: 0.5; stroke: #ff7f0e; stroke-opacity: 0.5; stroke-linejoin: miter"/>
     <path d="M 264.405896 104.860615 
L 266.405896 105.860615 
L 266.405896 103.860615 
z
" clip-path="url(#pad45d88937)" style="fill: #ff7f0e; fill-opacity: 0.5; stroke: #ff7f0e; stroke-opacity: 0.5; stroke-linejoin: miter"/>
     <path d="M 264.405896 142.181703 
L 266.405896 143.181703 
L 266.405896 141.181703 
z
" clip-path="url(#pad45d88937)" style="fill: #ff7f0e; fill-opacity: 0.5; stroke: #ff7f0e; stroke-opacity: 0.5; stroke-linejoin: miter"/>
     <path d="M 264.405896 86.70608 
L 266.405896 87.70608 
L 266.405896 85.70608 
z
" clip-path="url(#pad45d88937)" style="fill: #ff7f0e; fill-opacity: 0.5; stroke: #ff7f0e; stroke-opacity: 0.5; stroke-linejoin: miter"/>
     <path d="M 264.405896 122.265107 
L 266.405896 123.265107 
L 266.405896 121.265107 
z
" clip-path="url(#pad45d88937)" style="fill: #ff7f0e; fill-opacity: 0.5; stroke: #ff7f0e; stroke-opacity: 0.5; stroke-linejoin: miter"/>
     <path d="M 264.405896 163.562953 
L 266.405896 164.562953 
L 266.405896 162.562953 
z
" clip-path="url(#pad45d88937)" style="fill: #ff7f0e; fill-opacity: 0.5; stroke: #ff7f0e; stroke-opacity: 0.5; stroke-linejoin: miter"/>
     <path d="M 276.975354 126.292251 
L 274.975354 125.292251 
L 274.975354 127.292251 
z
" clip-path="url(#pad45d88937)" style="fill: #1f77b4; fill-opacity: 0.5; stroke: #1f77b4; stroke-opacity: 0.5; stroke-linejoin: miter"/>
     <path d="M 276.975354 90.910562 
L 274.975354 89.910562 
L 274.975354 91.910562 
z
" clip-path="url(#pad45d88937)" style="fill: #1f77b4; fill-opacity: 0.5; stroke: #1f77b4; stroke-opacity: 0.5; stroke-linejoin: miter"/>
     <path d="M 276.975354 158.384961 
L 274.975354 157.384961 
L 274.975354 159.384961 
z
" clip-path="url(#pad45d88937)" style="fill: #1f77b4; fill-opacity: 0.5; stroke: #1f77b4; stroke-opacity: 0.5; stroke-linejoin: miter"/>
     <path d="M 276.975354 90.609083 
L 274.975354 89.609083 
L 274.975354 91.609083 
z
" clip-path="url(#pad45d88937)" style="fill: #1f77b4; fill-opacity: 0.5; stroke: #1f77b4; stroke-opacity: 0.5; stroke-linejoin: miter"/>
     <path d="M 276.975354 71.315886 
L 274.975354 70.315886 
L 274.975354 72.315886 
z
" clip-path="url(#pad45d88937)" style="fill: #1f77b4; fill-opacity: 0.5; stroke: #1f77b4; stroke-opacity: 0.5; stroke-linejoin: miter"/>
     <path d="M 276.975354 75.401133 
L 274.975354 74.401133 
L 274.975354 76.401133 
z
" clip-path="url(#pad45d88937)" style="fill: #1f77b4; fill-opacity: 0.5; stroke: #1f77b4; stroke-opacity: 0.5; stroke-linejoin: miter"/>
     <path d="M 276.975354 107.638882 
L 274.975354 106.638882 
L 274.975354 108.638882 
z
" clip-path="url(#pad45d88937)" style="fill: #1f77b4; fill-opacity: 0.5; stroke: #1f77b4; stroke-opacity: 0.5; stroke-linejoin: miter"/>
     <path d="M 276.975354 94.644381 
L 274.975354 93.644381 
L 274.975354 95.644381 
z
" clip-path="url(#pad45d88937)" style="fill: #1f77b4; fill-opacity: 0.5; stroke: #1f77b4; stroke-opacity: 0.5; stroke-linejoin: miter"/>
     <path d="M 276.975354 97.825612 
L 274.975354 96.825612 
L 274.975354 98.825612 
z
" clip-path="url(#pad45d88937)" style="fill: #1f77b4; fill-opacity: 0.5; stroke: #1f77b4; stroke-opacity: 0.5; stroke-linejoin: miter"/>
     <path d="M 276.975354 139.950977 
L 274.975354 138.950977 
L 274.975354 140.950977 
z
" clip-path="url(#pad45d88937)" style="fill: #1f77b4; fill-opacity: 0.5; stroke: #1f77b4; stroke-opacity: 0.5; stroke-linejoin: miter"/>
     <path d="M 264.405896 190.706216 
L 266.405896 191.706216 
L 266.405896 189.706216 
z
" clip-path="url(#pad45d88937)" style="fill: #ff7f0e; fill-opacity: 0.5; stroke: #ff7f0e; stroke-opacity: 0.5; stroke-linejoin: miter"/>
     <path d="M 264.405896 172.567665 
L 266.405896 173.567665 
L 266.405896 171.567665 
z
" clip-path="url(#pad45d88937)" style="fill: #ff7f0e; fill-opacity: 0.5; stroke: #ff7f0e; stroke-opacity: 0.5; stroke-linejoin: miter"/>
     <path d="M 264.405896 212.891757 
L 266.405896 213.891757 
L 266.405896 211.891757 
z
" clip-path="url(#pad45d88937)" style="fill: #ff7f0e; fill-opacity: 0.5; stroke: #ff7f0e; stroke-opacity: 0.5; stroke-linejoin: miter"/>
     <path d="M 264.405896 250.565953 
L 266.405896 251.565953 
L 266.405896 249.565953 
z
" clip-path="url(#pad45d88937)" style="fill: #ff7f0e; fill-opacity: 0.5; stroke: #ff7f0e; stroke-opacity: 0.5; stroke-linejoin: miter"/>
     <path d="M 264.405896 204.007021 
L 266.405896 205.007021 
L 266.405896 203.007021 
z
" clip-path="url(#pad45d88937)" style="fill: #ff7f0e; fill-opacity: 0.5; stroke: #ff7f0e; stroke-opacity: 0.5; stroke-linejoin: miter"/>
     <path d="M 264.405896 253.3079 
L 266.405896 254.3079 
L 266.405896 252.3079 
z
" clip-path="url(#pad45d88937)" style="fill: #ff7f0e; fill-opacity: 0.5; stroke: #ff7f0e; stroke-opacity: 0.5; stroke-linejoin: miter"/>
     <path d="M 264.405896 250.318882 
L 266.405896 251.318882 
L 266.405896 249.318882 
z
" clip-path="url(#pad45d88937)" style="fill: #ff7f0e; fill-opacity: 0.5; stroke: #ff7f0e; stroke-opacity: 0.5; stroke-linejoin: miter"/>
     <path d="M 264.405896 233.491336 
L 266.405896 234.491336 
L 266.405896 232.491336 
z
" clip-path="url(#pad45d88937)" style="fill: #ff7f0e; fill-opacity: 0.5; stroke: #ff7f0e; stroke-opacity: 0.5; stroke-linejoin: miter"/>
     <path d="M 264.405896 189.555643 
L 266.405896 190.555643 
L 266.405896 188.555643 
z
" clip-path="url(#pad45d88937)" style="fill: #ff7f0e; fill-opacity: 0.5; stroke: #ff7f0e; stroke-opacity: 0.5; stroke-linejoin: miter"/>
     <path d="M 264.405896 247.925675 
L 266.405896 248.925675 
L 266.405896 246.925675 
z
" clip-path="url(#pad45d88937)" style="fill: #ff7f0e; fill-opacity: 0.5; stroke: #ff7f0e; stroke-opacity: 0.5; stroke-linejoin: miter"/>
     <path d="M 276.975354 206.591552 
L 274.975354 205.591552 
L 274.975354 207.591552 
z
" clip-path="url(#pad45d88937)" style="fill: #1f77b4; fill-opacity: 0.5; stroke: #1f77b4; stroke-opacity: 0.5; stroke-linejoin: miter"/>
     <path d="M 276.975354 259.45041 
L 274.975354 258.45041 
L 274.975354 260.45041 
z
" clip-path="url(#pad45d88937)" style="fill: #1f77b4; fill-opacity: 0.5; stroke: #1f77b4; stroke-opacity: 0.5; stroke-linejoin: miter"/>
     <path d="M 276.975354 196.272038 
L 274.975354 195.272038 
L 274.975354 197.272038 
z
" clip-path="url(#pad45d88937)" style="fill: #1f77b4; fill-opacity: 0.5; stroke: #1f77b4; stroke-opacity: 0.5; stroke-linejoin: miter"/>
     <path d="M 276.975354 191.039975 
L 274.975354 190.039975 
L 274.975354 192.039975 
z
" clip-path="url(#pad45d88937)" style="fill: #1f77b4; fill-opacity: 0.5; stroke: #1f77b4; stroke-opacity: 0.5; stroke-linejoin: miter"/>
     <path d="M 276.975354 260.268906 
L 274.975354 259.268906 
L 274.975354 261.268906 
z
" clip-path="url(#pad45d88937)" style="fill: #1f77b4; fill-opacity: 0.5; stroke: #1f77b4; stroke-opacity: 0.5; stroke-linejoin: miter"/>
     <path d="M 276.975354 174.006452 
L 274.975354 173.006452 
L 274.975354 175.006452 
z
" clip-path="url(#pad45d88937)" style="fill: #1f77b4; fill-opacity: 0.5; stroke: #1f77b4; stroke-opacity: 0.5; stroke-linejoin: miter"/>
     <path d="M 276.975354 231.092283 
L 274.975354 230.092283 
L 274.975354 232.092283 
z
" clip-path="url(#pad45d88937)" style="fill: #1f77b4; fill-opacity: 0.5; stroke: #1f77b4; stroke-opacity: 0.5; stroke-linejoin: miter"/>
     <path d="M 276.975354 254.095132 
L 274.975354 253.095132 
L 274.975354 255.095132 
z
" clip-path="url(#pad45d88937)" style="fill: #1f77b4; fill-opacity: 0.5; stroke: #1f77b4; stroke-opacity: 0.5; stroke-linejoin: miter"/>
     <path d="M 276.975354 232.969541 
L 274.975354 231.969541 
L 274.975354 233.969541 
z
" clip-path="url(#pad45d88937)" style="fill: #1f77b4; fill-opacity: 0.5; stroke: #1f77b4; stroke-opacity: 0.5; stroke-linejoin: miter"/>
     <path d="M 276.975354 207.133415 
L 274.975354 206.133415 
L 274.975354 208.133415 
z
" clip-path="url(#pad45d88937)" style="fill: #1f77b4; fill-opacity: 0.5; stroke: #1f77b4; stroke-opacity: 0.5; stroke-linejoin: miter"/>
     <g id="patch_5">
      <path d="M 43.78125 260.421875 
L 43.78125 22.318125 
" style="fill: none; stroke: #000000; stroke-width: 0.8; stroke-linejoin: miter; stroke-linecap: square"/>
     </g>
     <g id="text_10">
      <!-- defaults_symmetric_migration_changing_rate.yaml -->
      <g transform="translate(117.1525 16.318125)scale(0.12 -0.12)">
       <defs>
        <path id="DejaVuSans-66" d="M 2375 4863 
L 2375 4384 
L 1825 4384 
Q 1516 4384 1395 4259 
Q 1275 4134 1275 3809 
L 1275 3500 
L 2222 3500 
L 2222 3053 
L 1275 3053 
L 1275 0 
L 697 0 
L 697 3053 
L 147 3053 
L 147 3500 
L 697 3500 
L 697 3744 
Q 697 4328 969 4595 
Q 1241 4863 1831 4863 
L 2375 4863 
z
" transform="scale(0.015625)"/>
        <path id="DejaVuSans-75" d="M 544 1381 
L 544 3500 
L 1119 3500 
L 1119 1403 
Q 1119 906 1312 657 
Q 1506 409 1894 409 
Q 2359 409 2629 706 
Q 2900 1003 2900 1516 
L 2900 3500 
L 3475 3500 
L 3475 0 
L 2900 0 
L 2900 538 
Q 2691 219 2414 64 
Q 2138 -91 1772 -91 
Q 1169 -91 856 284 
Q 544 659 544 1381 
z
M 1991 3584 
L 1991 3584 
z
" transform="scale(0.015625)"/>
        <path id="DejaVuSans-6c" d="M 603 4863 
L 1178 4863 
L 1178 0 
L 603 0 
L 603 4863 
z
" transform="scale(0.015625)"/>
        <path id="DejaVuSans-5f" d="M 3263 -1063 
L 3263 -1509 
L -63 -1509 
L -63 -1063 
L 3263 -1063 
z
" transform="scale(0.015625)"/>
        <path id="DejaVuSans-79" d="M 2059 -325 
Q 1816 -950 1584 -1140 
Q 1353 -1331 966 -1331 
L 506 -1331 
L 506 -850 
L 844 -850 
Q 1081 -850 1212 -737 
Q 1344 -625 1503 -206 
L 1606 56 
L 191 3500 
L 800 3500 
L 1894 763 
L 2988 3500 
L 3597 3500 
L 2059 -325 
z
" transform="scale(0.015625)"/>
        <path id="DejaVuSans-63" d="M 3122 3366 
L 3122 2828 
Q 2878 2963 2633 3030 
Q 2388 3097 2138 3097 
Q 1578 3097 1268 2742 
Q 959 2388 959 1747 
Q 959 1106 1268 751 
Q 1578 397 2138 397 
Q 2388 397 2633 464 
Q 2878 531 3122 666 
L 3122 134 
Q 2881 22 2623 -34 
Q 2366 -91 2075 -91 
Q 1284 -91 818 406 
Q 353 903 353 1747 
Q 353 2603 823 3093 
Q 1294 3584 2113 3584 
Q 2378 3584 2631 3529 
Q 2884 3475 3122 3366 
z
" transform="scale(0.015625)"/>
        <path id="DejaVuSans-68" d="M 3513 2113 
L 3513 0 
L 2938 0 
L 2938 2094 
Q 2938 2591 2744 2837 
Q 2550 3084 2163 3084 
Q 1697 3084 1428 2787 
Q 1159 2491 1159 1978 
L 1159 0 
L 581 0 
L 581 4863 
L 1159 4863 
L 1159 2956 
Q 1366 3272 1645 3428 
Q 1925 3584 2291 3584 
Q 2894 3584 3203 3211 
Q 3513 2838 3513 2113 
z
" transform="scale(0.015625)"/>
       </defs>
       <use xlink:href="#DejaVuSans-64"/>
       <use xlink:href="#DejaVuSans-65" x="63.476562"/>
       <use xlink:href="#DejaVuSans-66" x="125"/>
       <use xlink:href="#DejaVuSans-61" x="160.205078"/>
       <use xlink:href="#DejaVuSans-75" x="221.484375"/>
       <use xlink:href="#DejaVuSans-6c" x="284.863281"/>
       <use xlink:href="#DejaVuSans-74" x="312.646484"/>
       <use xlink:href="#DejaVuSans-73" x="351.855469"/>
       <use xlink:href="#DejaVuSans-5f" x="403.955078"/>
       <use xlink:href="#DejaVuSans-73" x="453.955078"/>
       <use xlink:href="#DejaVuSans-79" x="506.054688"/>
       <use xlink:href="#DejaVuSans-6d" x="565.234375"/>
       <use xlink:href="#DejaVuSans-6d" x="662.646484"/>
       <use xlink:href="#DejaVuSans-65" x="760.058594"/>
       <use xlink:href="#DejaVuSans-74" x="821.582031"/>
       <use xlink:href="#DejaVuSans-72" x="860.791016"/>
       <use xlink:href="#DejaVuSans-69" x="901.904297"/>
       <use xlink:href="#DejaVuSans-63" x="929.6875"/>
       <use xlink:href="#DejaVuSans-5f" x="984.667969"/>
       <use xlink:href="#DejaVuSans-6d" x="1034.667969"/>
       <use xlink:href="#DejaVuSans-69" x="1132.080078"/>
       <use xlink:href="#DejaVuSans-67" x="1159.863281"/>
       <use xlink:href="#DejaVuSans-72" x="1223.339844"/>
       <use xlink:href="#DejaVuSans-61" x="1264.453125"/>
       <use xlink:href="#DejaVuSans-74" x="1325.732422"/>
       <use xlink:href="#DejaVuSans-69" x="1364.941406"/>
       <use xlink:href="#DejaVuSans-6f" x="1392.724609"/>
       <use xlink:href="#DejaVuSans-6e" x="1453.90625"/>
       <use xlink:href="#DejaVuSans-5f" x="1517.285156"/>
       <use xlink:href="#DejaVuSans-63" x="1567.285156"/>
       <use xlink:href="#DejaVuSans-68" x="1622.265625"/>
       <use xlink:href="#DejaVuSans-61" x="1685.644531"/>
       <use xlink:href="#DejaVuSans-6e" x="1746.923828"/>
       <use xlink:href="#DejaVuSans-67" x="1810.302734"/>
       <use xlink:href="#DejaVuSans-69" x="1873.779297"/>
       <use xlink:href="#DejaVuSans-6e" x="1901.5625"/>
       <use xlink:href="#DejaVuSans-67" x="1964.941406"/>
       <use xlink:href="#DejaVuSans-5f" x="2028.417969"/>
       <use xlink:href="#DejaVuSans-72" x="2078.417969"/>
       <use xlink:href="#DejaVuSans-61" x="2119.53125"/>
       <use xlink:href="#DejaVuSans-74" x="2180.810547"/>
       <use xlink:href="#DejaVuSans-65" x="2220.019531"/>
       <use xlink:href="#DejaVuSans-2e" x="2281.542969"/>
       <use xlink:href="#DejaVuSans-79" x="2313.330078"/>
       <use xlink:href="#DejaVuSans-61" x="2372.509766"/>
       <use xlink:href="#DejaVuSans-6d" x="2433.789062"/>
       <use xlink:href="#DejaVuSans-6c" x="2531.201172"/>
      </g>
     </g>
    </g>
   </g>
   <defs>
    <clipPath id="pad45d88937">
     <rect x="43.78125" y="22.318125" width="453.81875" height="238.10375"/>
    </clipPath>
   </defs>
  </g>
 </g>
</svg>
