<?xml version="1.0" encoding="utf-8" standalone="no"?>
<!DOCTYPE svg PUBLIC "-//W3C//DTD SVG 1.1//EN"
  "http://www.w3.org/Graphics/SVG/1.1/DTD/svg11.dtd">
<svg xmlns:xlink="http://www.w3.org/1999/xlink" width="607.2pt" height="338.4pt" viewBox="0 0 607.2 338.4" xmlns="http://www.w3.org/2000/svg" version="1.1">
 <metadata>
  <rdf:RDF xmlns:dc="http://purl.org/dc/elements/1.1/" xmlns:cc="http://creativecommons.org/ns#" xmlns:rdf="http://www.w3.org/1999/02/22-rdf-syntax-ns#">
   <cc:Work>
    <dc:type rdf:resource="http://purl.org/dc/dcmitype/StillImage"/>
    <dc:date>2022-09-05T14:53:32.031816</dc:date>
    <dc:format>image/svg+xml</dc:format>
    <dc:creator>
     <cc:Agent>
      <dc:title>Matplotlib v3.5.3, https://matplotlib.org/</dc:title>
     </cc:Agent>
    </dc:creator>
   </cc:Work>
  </rdf:RDF>
 </metadata>
 <defs>
  <style type="text/css">*{stroke-linejoin: round; stroke-linecap: butt}</style>
 </defs>
 <g id="figure_1">
  <g id="patch_1">
   <path d="M 0 338.4 
L 607.2 338.4 
L 607.2 0 
L 0 0 
z
" style="fill: #ffffff"/>
  </g>
  <g id="axes_1">
   <g id="patch_2">
    <path d="M 43.78125 318.021875 
L 600 318.021875 
L 600 22.318125 
L 43.78125 22.318125 
z
" style="fill: #ffffff"/>
   </g>
   <path d="M 197.997965 187.703492 
L 198.997965 187.734929 
L 199.997965 187.771869 
L 200.997965 187.869616 
L 201.997965 187.902137 
L 202.997965 187.975762 
L 203.997965 188.014328 
L 204.997965 188.049741 
L 205.997965 188.107381 
L 206.997965 188.177767 
L 207.997965 188.229731 
L 208.997965 188.288821 
L 209.997965 188.377142 
L 210.997965 188.423286 
L 211.997965 188.465697 
L 212.997965 188.49619 
L 213.997965 188.522235 
L 214.997965 188.543435 
L 215.997965 188.597736 
L 216.997965 188.625673 
L 217.997965 188.655397 
L 218.997965 188.680792 
L 219.997965 188.691993 
L 220.997965 188.702117 
L 221.997965 188.701912 
L 222.997965 188.692402 
L 223.997965 188.680749 
L 224.997965 188.64972 
L 225.997965 188.638552 
L 226.997965 188.608434 
L 227.997965 188.548657 
L 228.997965 188.511466 
L 229.997965 188.47237 
L 230.997965 188.42993 
L 231.997965 188.397165 
L 232.997965 188.329738 
L 233.997965 188.290612 
L 234.997965 188.247938 
L 235.997965 188.177357 
L 236.997965 188.140966 
L 237.997965 188.082563 
L 238.997965 187.971611 
L 239.997965 187.900952 
L 240.997965 187.788012 
L 241.997965 187.74224 
L 242.997965 187.680956 
L 243.997965 187.632457 
L 244.997965 187.551634 
L 245.997965 187.433115 
L 246.997965 187.362905 
L 247.997965 187.279642 
L 248.997965 187.246501 
L 249.997965 187.195263 
L 250.997965 187.126865 
L 251.997965 187.060649 
L 252.997965 186.983732 
L 254.642509 186.956417 
" clip-path="url(#pa6c241a99e)" style="fill: none; stroke: #1f77b4; stroke-opacity: 0.5; stroke-width: 0.2; stroke-linecap: square"/>
   <path d="M 197.997965 168.347711 
L 198.997965 168.379148 
L 199.997965 168.416088 
L 200.997965 168.513835 
L 201.997965 168.546356 
L 202.997965 168.619981 
L 203.997965 168.658547 
L 204.997965 168.69396 
L 205.997965 168.7516 
L 206.997965 168.821986 
L 207.997965 168.87395 
L 208.997965 168.93304 
L 209.997965 169.021361 
L 210.997965 169.067505 
L 211.997965 169.109916 
L 212.997965 169.140409 
L 213.997965 169.166454 
L 214.997965 169.187654 
L 215.997965 169.241955 
L 216.997965 169.269892 
L 217.997965 169.299616 
L 218.997965 169.325011 
L 219.997965 169.336212 
L 220.997965 169.346336 
L 221.997965 169.346131 
L 222.997965 169.336621 
L 223.997965 169.324968 
L 224.997965 169.293939 
L 225.997965 169.282771 
L 226.997965 169.252653 
L 227.997965 169.192876 
L 228.997965 169.155685 
L 229.997965 169.116589 
L 230.997965 169.074149 
L 231.997965 169.041384 
L 232.997965 168.973957 
L 233.997965 168.934831 
L 234.997965 168.892157 
L 235.997965 168.821576 
L 236.997965 168.785185 
L 237.997965 168.726782 
L 238.997965 168.61583 
L 239.997965 168.545171 
L 240.997965 168.432231 
L 241.997965 168.386459 
L 242.997965 168.325175 
L 243.997965 168.276676 
L 244.997965 168.195853 
L 245.997965 168.077334 
L 246.997965 168.007124 
L 247.997965 167.923861 
L 248.997965 167.89072 
L 249.997965 167.839482 
L 250.997965 167.771084 
L 251.997965 167.704868 
L 252.997965 167.627951 
L 254.642509 167.600636 
" clip-path="url(#pa6c241a99e)" style="fill: none; stroke: #1f77b4; stroke-opacity: 0.5; stroke-width: 0.2; stroke-linecap: square"/>
   <path d="M 197.997965 185.188053 
L 198.997965 185.219489 
L 199.997965 185.25643 
L 200.997965 185.354176 
L 201.997965 185.386698 
L 202.997965 185.460322 
L 203.997965 185.498888 
L 204.997965 185.534301 
L 205.997965 185.591941 
L 206.997965 185.662327 
L 207.997965 185.714291 
L 208.997965 185.773381 
L 209.997965 185.861702 
L 210.997965 185.907846 
L 211.997965 185.950257 
L 212.997965 185.98075 
L 213.997965 186.006795 
L 214.997965 186.027995 
L 215.997965 186.082296 
L 216.997965 186.110234 
L 217.997965 186.139958 
L 218.997965 186.165353 
L 219.997965 186.176553 
L 220.997965 186.186677 
L 221.997965 186.186473 
L 222.997965 186.176963 
L 223.997965 186.165309 
L 224.997965 186.13428 
L 225.997965 186.123112 
L 226.997965 186.092994 
L 227.997965 186.033217 
L 228.997965 185.996026 
L 229.997965 185.95693 
L 230.997965 185.91449 
L 231.997965 185.881725 
L 232.997965 185.814299 
L 233.997965 185.775173 
L 234.997965 185.732498 
L 235.997965 185.661918 
L 236.997965 185.625527 
L 237.997965 185.567124 
L 238.997965 185.456171 
L 239.997965 185.385513 
L 240.997965 185.272573 
L 241.997965 185.2268 
L 242.997965 185.165517 
L 243.997965 185.117017 
L 244.997965 185.036195 
L 245.997965 184.917676 
L 246.997965 184.847465 
L 247.997965 184.764203 
L 248.997965 184.731061 
L 249.997965 184.679824 
L 250.997965 184.611425 
L 251.997965 184.54521 
L 252.997965 184.468293 
L 254.642509 184.440977 
" clip-path="url(#pa6c241a99e)" style="fill: none; stroke: #1f77b4; stroke-opacity: 0.5; stroke-width: 0.2; stroke-linecap: square"/>
   <path d="M 197.997965 150.01141 
L 198.997965 150.042846 
L 199.997965 150.079786 
L 200.997965 150.177533 
L 201.997965 150.210055 
L 202.997965 150.283679 
L 203.997965 150.322245 
L 204.997965 150.357658 
L 205.997965 150.415298 
L 206.997965 150.485684 
L 207.997965 150.537648 
L 208.997965 150.596738 
L 209.997965 150.685059 
L 210.997965 150.731203 
L 211.997965 150.773614 
L 212.997965 150.804107 
L 213.997965 150.830152 
L 214.997965 150.851352 
L 215.997965 150.905653 
L 216.997965 150.933591 
L 217.997965 150.963315 
L 218.997965 150.988709 
L 219.997965 150.99991 
L 220.997965 151.010034 
L 221.997965 151.009829 
L 222.997965 151.00032 
L 223.997965 150.988666 
L 224.997965 150.957637 
L 225.997965 150.946469 
L 226.997965 150.916351 
L 227.997965 150.856574 
L 228.997965 150.819383 
L 229.997965 150.780287 
L 230.997965 150.737847 
L 231.997965 150.705082 
L 232.997965 150.637656 
L 233.997965 150.59853 
L 234.997965 150.555855 
L 235.997965 150.485274 
L 236.997965 150.448884 
L 237.997965 150.39048 
L 238.997965 150.279528 
L 239.997965 150.20887 
L 240.997965 150.09593 
L 241.997965 150.050157 
L 242.997965 149.988874 
L 243.997965 149.940374 
L 244.997965 149.859552 
L 245.997965 149.741033 
L 246.997965 149.670822 
L 247.997965 149.58756 
L 248.997965 149.554418 
L 249.997965 149.50318 
L 250.997965 149.434782 
L 251.997965 149.368567 
L 252.997965 149.29165 
L 254.642509 149.264334 
" clip-path="url(#pa6c241a99e)" style="fill: none; stroke: #1f77b4; stroke-opacity: 0.5; stroke-width: 0.2; stroke-linecap: square"/>
   <path d="M 197.997965 187.536203 
L 198.997965 187.567639 
L 199.997965 187.60458 
L 200.997965 187.702326 
L 201.997965 187.734848 
L 202.997965 187.808472 
L 203.997965 187.847038 
L 204.997965 187.882451 
L 205.997965 187.940091 
L 206.997965 188.010477 
L 207.997965 188.062442 
L 208.997965 188.121531 
L 209.997965 188.209852 
L 210.997965 188.255997 
L 211.997965 188.298408 
L 212.997965 188.3289 
L 213.997965 188.354945 
L 214.997965 188.376145 
L 215.997965 188.430446 
L 216.997965 188.458384 
L 217.997965 188.488108 
L 218.997965 188.513503 
L 219.997965 188.524703 
L 220.997965 188.534827 
L 221.997965 188.534623 
L 222.997965 188.525113 
L 223.997965 188.513459 
L 224.997965 188.48243 
L 225.997965 188.471262 
L 226.997965 188.441145 
L 227.997965 188.381368 
L 228.997965 188.344176 
L 229.997965 188.30508 
L 230.997965 188.26264 
L 231.997965 188.229875 
L 232.997965 188.162449 
L 233.997965 188.123323 
L 234.997965 188.080648 
L 235.997965 188.010068 
L 236.997965 187.973677 
L 237.997965 187.915274 
L 238.997965 187.804321 
L 239.997965 187.733663 
L 240.997965 187.620723 
L 241.997965 187.57495 
L 242.997965 187.513667 
L 243.997965 187.465167 
L 244.997965 187.384345 
L 245.997965 187.265826 
L 246.997965 187.195615 
L 247.997965 187.112353 
L 248.997965 187.079211 
L 249.997965 187.027974 
L 250.997965 186.959575 
L 251.997965 186.89336 
L 252.997965 186.816443 
L 254.642509 186.789127 
" clip-path="url(#pa6c241a99e)" style="fill: none; stroke: #1f77b4; stroke-opacity: 0.5; stroke-width: 0.2; stroke-linecap: square"/>
   <path d="M 197.997965 140.209519 
L 198.997965 140.240955 
L 199.997965 140.277896 
L 200.997965 140.375642 
L 201.997965 140.408164 
L 202.997965 140.481788 
L 203.997965 140.520354 
L 204.997965 140.555767 
L 205.997965 140.613407 
L 206.997965 140.683793 
L 207.997965 140.735758 
L 208.997965 140.794847 
L 209.997965 140.883168 
L 210.997965 140.929313 
L 211.997965 140.971723 
L 212.997965 141.002216 
L 213.997965 141.028261 
L 214.997965 141.049461 
L 215.997965 141.103762 
L 216.997965 141.1317 
L 217.997965 141.161424 
L 218.997965 141.186819 
L 219.997965 141.198019 
L 220.997965 141.208143 
L 221.997965 141.207939 
L 222.997965 141.198429 
L 223.997965 141.186775 
L 224.997965 141.155746 
L 225.997965 141.144578 
L 226.997965 141.11446 
L 227.997965 141.054684 
L 228.997965 141.017492 
L 229.997965 140.978396 
L 230.997965 140.935956 
L 231.997965 140.903191 
L 232.997965 140.835765 
L 233.997965 140.796639 
L 234.997965 140.753964 
L 235.997965 140.683384 
L 236.997965 140.646993 
L 237.997965 140.58859 
L 238.997965 140.477637 
L 239.997965 140.406979 
L 240.997965 140.294039 
L 241.997965 140.248266 
L 242.997965 140.186983 
L 243.997965 140.138483 
L 244.997965 140.057661 
L 245.997965 139.939142 
L 246.997965 139.868931 
L 247.997965 139.785669 
L 248.997965 139.752527 
L 249.997965 139.70129 
L 250.997965 139.632891 
L 251.997965 139.566676 
L 252.997965 139.489759 
L 254.642509 139.462443 
" clip-path="url(#pa6c241a99e)" style="fill: none; stroke: #1f77b4; stroke-opacity: 0.5; stroke-width: 0.2; stroke-linecap: square"/>
   <path d="M 197.997965 186.100066 
L 198.997965 186.131503 
L 199.997965 186.168443 
L 200.997965 186.266189 
L 201.997965 186.298711 
L 202.997965 186.372336 
L 203.997965 186.410901 
L 204.997965 186.446314 
L 205.997965 186.503954 
L 206.997965 186.574341 
L 207.997965 186.626305 
L 208.997965 186.685395 
L 209.997965 186.773716 
L 210.997965 186.81986 
L 211.997965 186.862271 
L 212.997965 186.892763 
L 213.997965 186.918808 
L 214.997965 186.940008 
L 215.997965 186.99431 
L 216.997965 187.022247 
L 217.997965 187.051971 
L 218.997965 187.077366 
L 219.997965 187.088566 
L 220.997965 187.09869 
L 221.997965 187.098486 
L 222.997965 187.088976 
L 223.997965 187.077322 
L 224.997965 187.046293 
L 225.997965 187.035125 
L 226.997965 187.005008 
L 227.997965 186.945231 
L 228.997965 186.908039 
L 229.997965 186.868943 
L 230.997965 186.826504 
L 231.997965 186.793738 
L 232.997965 186.726312 
L 233.997965 186.687186 
L 234.997965 186.644512 
L 235.997965 186.573931 
L 236.997965 186.53754 
L 237.997965 186.479137 
L 238.997965 186.368184 
L 239.997965 186.297526 
L 240.997965 186.184586 
L 241.997965 186.138813 
L 242.997965 186.07753 
L 243.997965 186.029031 
L 244.997965 185.948208 
L 245.997965 185.829689 
L 246.997965 185.759478 
L 247.997965 185.676216 
L 248.997965 185.643074 
L 249.997965 185.591837 
L 250.997965 185.523439 
L 251.997965 185.457223 
L 252.997965 185.380306 
L 254.642509 185.352991 
" clip-path="url(#pa6c241a99e)" style="fill: none; stroke: #1f77b4; stroke-opacity: 0.5; stroke-width: 0.2; stroke-linecap: square"/>
   <path d="M 197.997965 117.488982 
L 198.997965 117.520418 
L 199.997965 117.557358 
L 200.997965 117.655105 
L 201.997965 117.687626 
L 202.997965 117.761251 
L 203.997965 117.799817 
L 204.997965 117.83523 
L 205.997965 117.89287 
L 206.997965 117.963256 
L 207.997965 118.01522 
L 208.997965 118.07431 
L 209.997965 118.162631 
L 210.997965 118.208775 
L 211.997965 118.251186 
L 212.997965 118.281679 
L 213.997965 118.307724 
L 214.997965 118.328924 
L 215.997965 118.383225 
L 216.997965 118.411163 
L 217.997965 118.440887 
L 218.997965 118.466281 
L 219.997965 118.477482 
L 220.997965 118.487606 
L 221.997965 118.487401 
L 222.997965 118.477891 
L 223.997965 118.466238 
L 224.997965 118.435209 
L 225.997965 118.424041 
L 226.997965 118.393923 
L 227.997965 118.334146 
L 228.997965 118.296955 
L 229.997965 118.257859 
L 230.997965 118.215419 
L 231.997965 118.182654 
L 232.997965 118.115227 
L 233.997965 118.076102 
L 234.997965 118.033427 
L 235.997965 117.962846 
L 236.997965 117.926456 
L 237.997965 117.868052 
L 238.997965 117.7571 
L 239.997965 117.686441 
L 240.997965 117.573502 
L 241.997965 117.527729 
L 242.997965 117.466445 
L 243.997965 117.417946 
L 244.997965 117.337123 
L 245.997965 117.218605 
L 246.997965 117.148394 
L 247.997965 117.065131 
L 248.997965 117.03199 
L 249.997965 116.980752 
L 250.997965 116.912354 
L 251.997965 116.846139 
L 252.997965 116.769222 
L 254.642509 116.741906 
" clip-path="url(#pa6c241a99e)" style="fill: none; stroke: #1f77b4; stroke-opacity: 0.5; stroke-width: 0.2; stroke-linecap: square"/>
   <path d="M 197.997965 89.885331 
L 198.997965 89.916767 
L 199.997965 89.953707 
L 200.997965 90.051454 
L 201.997965 90.083976 
L 202.997965 90.1576 
L 203.997965 90.196166 
L 204.997965 90.231579 
L 205.997965 90.289219 
L 206.997965 90.359605 
L 207.997965 90.411569 
L 208.997965 90.470659 
L 209.997965 90.55898 
L 210.997965 90.605124 
L 211.997965 90.647535 
L 212.997965 90.678028 
L 213.997965 90.704073 
L 214.997965 90.725273 
L 215.997965 90.779574 
L 216.997965 90.807512 
L 217.997965 90.837236 
L 218.997965 90.86263 
L 219.997965 90.873831 
L 220.997965 90.883955 
L 221.997965 90.88375 
L 222.997965 90.874241 
L 223.997965 90.862587 
L 224.997965 90.831558 
L 225.997965 90.82039 
L 226.997965 90.790272 
L 227.997965 90.730495 
L 228.997965 90.693304 
L 229.997965 90.654208 
L 230.997965 90.611768 
L 231.997965 90.579003 
L 232.997965 90.511577 
L 233.997965 90.472451 
L 234.997965 90.429776 
L 235.997965 90.359196 
L 236.997965 90.322805 
L 237.997965 90.264401 
L 238.997965 90.153449 
L 239.997965 90.082791 
L 240.997965 89.969851 
L 241.997965 89.924078 
L 242.997965 89.862795 
L 243.997965 89.814295 
L 244.997965 89.733473 
L 245.997965 89.614954 
L 246.997965 89.544743 
L 247.997965 89.461481 
L 248.997965 89.428339 
L 249.997965 89.377102 
L 250.997965 89.308703 
L 251.997965 89.242488 
L 252.997965 89.165571 
L 254.642509 89.138255 
" clip-path="url(#pa6c241a99e)" style="fill: none; stroke: #1f77b4; stroke-opacity: 0.5; stroke-width: 0.2; stroke-linecap: square"/>
   <path d="M 197.997965 137.112481 
L 198.997965 137.143917 
L 199.997965 137.180858 
L 200.997965 137.278604 
L 201.997965 137.311126 
L 202.997965 137.384751 
L 203.997965 137.423316 
L 204.997965 137.458729 
L 205.997965 137.516369 
L 206.997965 137.586755 
L 207.997965 137.63872 
L 208.997965 137.697809 
L 209.997965 137.78613 
L 210.997965 137.832275 
L 211.997965 137.874686 
L 212.997965 137.905178 
L 213.997965 137.931223 
L 214.997965 137.952423 
L 215.997965 138.006724 
L 216.997965 138.034662 
L 217.997965 138.064386 
L 218.997965 138.089781 
L 219.997965 138.100981 
L 220.997965 138.111105 
L 221.997965 138.110901 
L 222.997965 138.101391 
L 223.997965 138.089737 
L 224.997965 138.058708 
L 225.997965 138.04754 
L 226.997965 138.017423 
L 227.997965 137.957646 
L 228.997965 137.920454 
L 229.997965 137.881358 
L 230.997965 137.838918 
L 231.997965 137.806153 
L 232.997965 137.738727 
L 233.997965 137.699601 
L 234.997965 137.656926 
L 235.997965 137.586346 
L 236.997965 137.549955 
L 237.997965 137.491552 
L 238.997965 137.380599 
L 239.997965 137.309941 
L 240.997965 137.197001 
L 241.997965 137.151228 
L 242.997965 137.089945 
L 243.997965 137.041446 
L 244.997965 136.960623 
L 245.997965 136.842104 
L 246.997965 136.771893 
L 247.997965 136.688631 
L 248.997965 136.655489 
L 249.997965 136.604252 
L 250.997965 136.535853 
L 251.997965 136.469638 
L 252.997965 136.392721 
L 254.642509 136.365405 
" clip-path="url(#pa6c241a99e)" style="fill: none; stroke: #1f77b4; stroke-opacity: 0.5; stroke-width: 0.2; stroke-linecap: square"/>
   <path d="M 389.138741 120.862582 
L 390.138741 120.894018 
L 391.138741 120.930958 
L 392.138741 121.028705 
L 393.138741 121.061227 
L 394.138741 121.134851 
L 395.138741 121.173417 
L 396.138741 121.20883 
L 397.138741 121.26647 
L 398.138741 121.336856 
L 399.138741 121.38882 
L 400.138741 121.44791 
L 401.138741 121.536231 
L 402.138741 121.582375 
L 403.138741 121.624786 
L 404.138741 121.655279 
L 405.138741 121.681324 
L 406.138741 121.702524 
L 407.138741 121.756825 
L 408.138741 121.784763 
L 409.138741 121.814487 
L 410.138741 121.839881 
L 411.138741 121.851082 
L 412.138741 121.861206 
L 413.138741 121.861001 
L 414.138741 121.851492 
L 415.138741 121.839838 
L 416.138741 121.808809 
L 417.138741 121.797641 
L 418.138741 121.767523 
L 419.138741 121.707746 
L 420.138741 121.670555 
L 421.138741 121.631459 
L 422.138741 121.589019 
L 423.138741 121.556254 
L 424.138741 121.488828 
L 425.138741 121.449702 
L 426.138741 121.407027 
L 427.138741 121.336446 
L 428.138741 121.300056 
L 429.138741 121.241652 
L 430.138741 121.1307 
L 431.138741 121.060042 
L 432.138741 120.947102 
L 433.138741 120.901329 
L 434.138741 120.840046 
L 435.138741 120.791546 
L 436.138741 120.710724 
L 437.138741 120.592205 
L 438.138741 120.521994 
L 439.138741 120.438732 
L 440.138741 120.40559 
L 441.138741 120.354352 
L 442.138741 120.285954 
L 443.138741 120.219739 
L 444.138741 120.142822 
L 445.783285 120.115506 
" clip-path="url(#pa6c241a99e)" style="fill: none; stroke: #ff7f0e; stroke-opacity: 0.5; stroke-width: 0.2; stroke-linecap: square"/>
   <path d="M 389.138741 113.860853 
L 390.138741 113.892289 
L 391.138741 113.92923 
L 392.138741 114.026976 
L 393.138741 114.059498 
L 394.138741 114.133123 
L 395.138741 114.171688 
L 396.138741 114.207101 
L 397.138741 114.264741 
L 398.138741 114.335127 
L 399.138741 114.387092 
L 400.138741 114.446181 
L 401.138741 114.534502 
L 402.138741 114.580647 
L 403.138741 114.623058 
L 404.138741 114.65355 
L 405.138741 114.679595 
L 406.138741 114.700795 
L 407.138741 114.755096 
L 408.138741 114.783034 
L 409.138741 114.812758 
L 410.138741 114.838153 
L 411.138741 114.849353 
L 412.138741 114.859477 
L 413.138741 114.859273 
L 414.138741 114.849763 
L 415.138741 114.838109 
L 416.138741 114.80708 
L 417.138741 114.795912 
L 418.138741 114.765795 
L 419.138741 114.706018 
L 420.138741 114.668826 
L 421.138741 114.62973 
L 422.138741 114.58729 
L 423.138741 114.554525 
L 424.138741 114.487099 
L 425.138741 114.447973 
L 426.138741 114.405298 
L 427.138741 114.334718 
L 428.138741 114.298327 
L 429.138741 114.239924 
L 430.138741 114.128971 
L 431.138741 114.058313 
L 432.138741 113.945373 
L 433.138741 113.8996 
L 434.138741 113.838317 
L 435.138741 113.789818 
L 436.138741 113.708995 
L 437.138741 113.590476 
L 438.138741 113.520265 
L 439.138741 113.437003 
L 440.138741 113.403861 
L 441.138741 113.352624 
L 442.138741 113.284225 
L 443.138741 113.21801 
L 444.138741 113.141093 
L 445.783285 113.113777 
" clip-path="url(#pa6c241a99e)" style="fill: none; stroke: #ff7f0e; stroke-opacity: 0.5; stroke-width: 0.2; stroke-linecap: square"/>
   <path d="M 389.138741 83.65766 
L 390.138741 83.689096 
L 391.138741 83.726037 
L 392.138741 83.823783 
L 393.138741 83.856305 
L 394.138741 83.929929 
L 395.138741 83.968495 
L 396.138741 84.003908 
L 397.138741 84.061548 
L 398.138741 84.131934 
L 399.138741 84.183898 
L 400.138741 84.242988 
L 401.138741 84.331309 
L 402.138741 84.377454 
L 403.138741 84.419864 
L 404.138741 84.450357 
L 405.138741 84.476402 
L 406.138741 84.497602 
L 407.138741 84.551903 
L 408.138741 84.579841 
L 409.138741 84.609565 
L 410.138741 84.63496 
L 411.138741 84.64616 
L 412.138741 84.656284 
L 413.138741 84.65608 
L 414.138741 84.64657 
L 415.138741 84.634916 
L 416.138741 84.603887 
L 417.138741 84.592719 
L 418.138741 84.562601 
L 419.138741 84.502825 
L 420.138741 84.465633 
L 421.138741 84.426537 
L 422.138741 84.384097 
L 423.138741 84.351332 
L 424.138741 84.283906 
L 425.138741 84.24478 
L 426.138741 84.202105 
L 427.138741 84.131525 
L 428.138741 84.095134 
L 429.138741 84.036731 
L 430.138741 83.925778 
L 431.138741 83.85512 
L 432.138741 83.74218 
L 433.138741 83.696407 
L 434.138741 83.635124 
L 435.138741 83.586624 
L 436.138741 83.505802 
L 437.138741 83.387283 
L 438.138741 83.317072 
L 439.138741 83.23381 
L 440.138741 83.200668 
L 441.138741 83.149431 
L 442.138741 83.081032 
L 443.138741 83.014817 
L 444.138741 82.9379 
L 445.783285 82.910584 
" clip-path="url(#pa6c241a99e)" style="fill: none; stroke: #ff7f0e; stroke-opacity: 0.5; stroke-width: 0.2; stroke-linecap: square"/>
   <path d="M 389.138741 196.797641 
L 390.138741 196.829078 
L 391.138741 196.866018 
L 392.138741 196.963765 
L 393.138741 196.996286 
L 394.138741 197.069911 
L 395.138741 197.108477 
L 396.138741 197.14389 
L 397.138741 197.20153 
L 398.138741 197.271916 
L 399.138741 197.32388 
L 400.138741 197.38297 
L 401.138741 197.471291 
L 402.138741 197.517435 
L 403.138741 197.559846 
L 404.138741 197.590339 
L 405.138741 197.616384 
L 406.138741 197.637584 
L 407.138741 197.691885 
L 408.138741 197.719822 
L 409.138741 197.749546 
L 410.138741 197.774941 
L 411.138741 197.786142 
L 412.138741 197.796266 
L 413.138741 197.796061 
L 414.138741 197.786551 
L 415.138741 197.774898 
L 416.138741 197.743869 
L 417.138741 197.732701 
L 418.138741 197.702583 
L 419.138741 197.642806 
L 420.138741 197.605615 
L 421.138741 197.566519 
L 422.138741 197.524079 
L 423.138741 197.491314 
L 424.138741 197.423887 
L 425.138741 197.384761 
L 426.138741 197.342087 
L 427.138741 197.271506 
L 428.138741 197.235115 
L 429.138741 197.176712 
L 430.138741 197.06576 
L 431.138741 196.995101 
L 432.138741 196.882161 
L 433.138741 196.836389 
L 434.138741 196.775105 
L 435.138741 196.726606 
L 436.138741 196.645783 
L 437.138741 196.527264 
L 438.138741 196.457054 
L 439.138741 196.373791 
L 440.138741 196.34065 
L 441.138741 196.289412 
L 442.138741 196.221014 
L 443.138741 196.154798 
L 444.138741 196.077881 
L 445.783285 196.050566 
" clip-path="url(#pa6c241a99e)" style="fill: none; stroke: #ff7f0e; stroke-opacity: 0.5; stroke-width: 0.2; stroke-linecap: square"/>
   <path d="M 389.138741 188.826169 
L 390.138741 188.857606 
L 391.138741 188.894546 
L 392.138741 188.992293 
L 393.138741 189.024814 
L 394.138741 189.098439 
L 395.138741 189.137004 
L 396.138741 189.172418 
L 397.138741 189.230058 
L 398.138741 189.300444 
L 399.138741 189.352408 
L 400.138741 189.411498 
L 401.138741 189.499819 
L 402.138741 189.545963 
L 403.138741 189.588374 
L 404.138741 189.618867 
L 405.138741 189.644912 
L 406.138741 189.666112 
L 407.138741 189.720413 
L 408.138741 189.74835 
L 409.138741 189.778074 
L 410.138741 189.803469 
L 411.138741 189.814669 
L 412.138741 189.824793 
L 413.138741 189.824589 
L 414.138741 189.815079 
L 415.138741 189.803426 
L 416.138741 189.772396 
L 417.138741 189.761228 
L 418.138741 189.731111 
L 419.138741 189.671334 
L 420.138741 189.634142 
L 421.138741 189.595046 
L 422.138741 189.552607 
L 423.138741 189.519842 
L 424.138741 189.452415 
L 425.138741 189.413289 
L 426.138741 189.370615 
L 427.138741 189.300034 
L 428.138741 189.263643 
L 429.138741 189.20524 
L 430.138741 189.094287 
L 431.138741 189.023629 
L 432.138741 188.910689 
L 433.138741 188.864916 
L 434.138741 188.803633 
L 435.138741 188.755134 
L 436.138741 188.674311 
L 437.138741 188.555792 
L 438.138741 188.485582 
L 439.138741 188.402319 
L 440.138741 188.369177 
L 441.138741 188.31794 
L 442.138741 188.249542 
L 443.138741 188.183326 
L 444.138741 188.106409 
L 445.783285 188.079094 
" clip-path="url(#pa6c241a99e)" style="fill: none; stroke: #ff7f0e; stroke-opacity: 0.5; stroke-width: 0.2; stroke-linecap: square"/>
   <path d="M 389.138741 143.760604 
L 390.138741 143.79204 
L 391.138741 143.828981 
L 392.138741 143.926727 
L 393.138741 143.959249 
L 394.138741 144.032873 
L 395.138741 144.071439 
L 396.138741 144.106852 
L 397.138741 144.164492 
L 398.138741 144.234878 
L 399.138741 144.286842 
L 400.138741 144.345932 
L 401.138741 144.434253 
L 402.138741 144.480398 
L 403.138741 144.522808 
L 404.138741 144.553301 
L 405.138741 144.579346 
L 406.138741 144.600546 
L 407.138741 144.654847 
L 408.138741 144.682785 
L 409.138741 144.712509 
L 410.138741 144.737904 
L 411.138741 144.749104 
L 412.138741 144.759228 
L 413.138741 144.759024 
L 414.138741 144.749514 
L 415.138741 144.73786 
L 416.138741 144.706831 
L 417.138741 144.695663 
L 418.138741 144.665545 
L 419.138741 144.605769 
L 420.138741 144.568577 
L 421.138741 144.529481 
L 422.138741 144.487041 
L 423.138741 144.454276 
L 424.138741 144.38685 
L 425.138741 144.347724 
L 426.138741 144.305049 
L 427.138741 144.234469 
L 428.138741 144.198078 
L 429.138741 144.139675 
L 430.138741 144.028722 
L 431.138741 143.958064 
L 432.138741 143.845124 
L 433.138741 143.799351 
L 434.138741 143.738068 
L 435.138741 143.689568 
L 436.138741 143.608746 
L 437.138741 143.490227 
L 438.138741 143.420016 
L 439.138741 143.336754 
L 440.138741 143.303612 
L 441.138741 143.252375 
L 442.138741 143.183976 
L 443.138741 143.117761 
L 444.138741 143.040844 
L 445.783285 143.013528 
" clip-path="url(#pa6c241a99e)" style="fill: none; stroke: #ff7f0e; stroke-opacity: 0.5; stroke-width: 0.2; stroke-linecap: square"/>
   <path d="M 389.138741 94.443459 
L 390.138741 94.474896 
L 391.138741 94.511836 
L 392.138741 94.609583 
L 393.138741 94.642104 
L 394.138741 94.715729 
L 395.138741 94.754294 
L 396.138741 94.789708 
L 397.138741 94.847348 
L 398.138741 94.917734 
L 399.138741 94.969698 
L 400.138741 95.028788 
L 401.138741 95.117109 
L 402.138741 95.163253 
L 403.138741 95.205664 
L 404.138741 95.236157 
L 405.138741 95.262202 
L 406.138741 95.283402 
L 407.138741 95.337703 
L 408.138741 95.36564 
L 409.138741 95.395364 
L 410.138741 95.420759 
L 411.138741 95.431959 
L 412.138741 95.442083 
L 413.138741 95.441879 
L 414.138741 95.432369 
L 415.138741 95.420716 
L 416.138741 95.389686 
L 417.138741 95.378518 
L 418.138741 95.348401 
L 419.138741 95.288624 
L 420.138741 95.251432 
L 421.138741 95.212336 
L 422.138741 95.169897 
L 423.138741 95.137132 
L 424.138741 95.069705 
L 425.138741 95.030579 
L 426.138741 94.987905 
L 427.138741 94.917324 
L 428.138741 94.880933 
L 429.138741 94.82253 
L 430.138741 94.711577 
L 431.138741 94.640919 
L 432.138741 94.527979 
L 433.138741 94.482206 
L 434.138741 94.420923 
L 435.138741 94.372424 
L 436.138741 94.291601 
L 437.138741 94.173082 
L 438.138741 94.102872 
L 439.138741 94.019609 
L 440.138741 93.986467 
L 441.138741 93.93523 
L 442.138741 93.866832 
L 443.138741 93.800616 
L 444.138741 93.723699 
L 445.783285 93.696384 
" clip-path="url(#pa6c241a99e)" style="fill: none; stroke: #ff7f0e; stroke-opacity: 0.5; stroke-width: 0.2; stroke-linecap: square"/>
   <path d="M 389.138741 107.640951 
L 390.138741 107.672387 
L 391.138741 107.709328 
L 392.138741 107.807074 
L 393.138741 107.839596 
L 394.138741 107.91322 
L 395.138741 107.951786 
L 396.138741 107.987199 
L 397.138741 108.044839 
L 398.138741 108.115225 
L 399.138741 108.167189 
L 400.138741 108.226279 
L 401.138741 108.3146 
L 402.138741 108.360744 
L 403.138741 108.403155 
L 404.138741 108.433648 
L 405.138741 108.459693 
L 406.138741 108.480893 
L 407.138741 108.535194 
L 408.138741 108.563132 
L 409.138741 108.592856 
L 410.138741 108.618251 
L 411.138741 108.629451 
L 412.138741 108.639575 
L 413.138741 108.639371 
L 414.138741 108.629861 
L 415.138741 108.618207 
L 416.138741 108.587178 
L 417.138741 108.57601 
L 418.138741 108.545892 
L 419.138741 108.486115 
L 420.138741 108.448924 
L 421.138741 108.409828 
L 422.138741 108.367388 
L 423.138741 108.334623 
L 424.138741 108.267197 
L 425.138741 108.228071 
L 426.138741 108.185396 
L 427.138741 108.114816 
L 428.138741 108.078425 
L 429.138741 108.020022 
L 430.138741 107.909069 
L 431.138741 107.838411 
L 432.138741 107.725471 
L 433.138741 107.679698 
L 434.138741 107.618415 
L 435.138741 107.569915 
L 436.138741 107.489093 
L 437.138741 107.370574 
L 438.138741 107.300363 
L 439.138741 107.217101 
L 440.138741 107.183959 
L 441.138741 107.132722 
L 442.138741 107.064323 
L 443.138741 106.998108 
L 444.138741 106.921191 
L 445.783285 106.893875 
" clip-path="url(#pa6c241a99e)" style="fill: none; stroke: #ff7f0e; stroke-opacity: 0.5; stroke-width: 0.2; stroke-linecap: square"/>
   <path d="M 389.138741 115.17372 
L 390.138741 115.205156 
L 391.138741 115.242096 
L 392.138741 115.339843 
L 393.138741 115.372365 
L 394.138741 115.445989 
L 395.138741 115.484555 
L 396.138741 115.519968 
L 397.138741 115.577608 
L 398.138741 115.647994 
L 399.138741 115.699958 
L 400.138741 115.759048 
L 401.138741 115.847369 
L 402.138741 115.893513 
L 403.138741 115.935924 
L 404.138741 115.966417 
L 405.138741 115.992462 
L 406.138741 116.013662 
L 407.138741 116.067963 
L 408.138741 116.095901 
L 409.138741 116.125625 
L 410.138741 116.151019 
L 411.138741 116.16222 
L 412.138741 116.172344 
L 413.138741 116.172139 
L 414.138741 116.16263 
L 415.138741 116.150976 
L 416.138741 116.119947 
L 417.138741 116.108779 
L 418.138741 116.078661 
L 419.138741 116.018884 
L 420.138741 115.981693 
L 421.138741 115.942597 
L 422.138741 115.900157 
L 423.138741 115.867392 
L 424.138741 115.799966 
L 425.138741 115.76084 
L 426.138741 115.718165 
L 427.138741 115.647584 
L 428.138741 115.611194 
L 429.138741 115.55279 
L 430.138741 115.441838 
L 431.138741 115.37118 
L 432.138741 115.25824 
L 433.138741 115.212467 
L 434.138741 115.151184 
L 435.138741 115.102684 
L 436.138741 115.021862 
L 437.138741 114.903343 
L 438.138741 114.833132 
L 439.138741 114.74987 
L 440.138741 114.716728 
L 441.138741 114.66549 
L 442.138741 114.597092 
L 443.138741 114.530877 
L 444.138741 114.45396 
L 445.783285 114.426644 
" clip-path="url(#pa6c241a99e)" style="fill: none; stroke: #ff7f0e; stroke-opacity: 0.5; stroke-width: 0.2; stroke-linecap: square"/>
   <path d="M 389.138741 196.533772 
L 390.138741 196.565208 
L 391.138741 196.602149 
L 392.138741 196.699895 
L 393.138741 196.732417 
L 394.138741 196.806042 
L 395.138741 196.844607 
L 396.138741 196.88002 
L 397.138741 196.93766 
L 398.138741 197.008046 
L 399.138741 197.060011 
L 400.138741 197.1191 
L 401.138741 197.207421 
L 402.138741 197.253566 
L 403.138741 197.295977 
L 404.138741 197.326469 
L 405.138741 197.352514 
L 406.138741 197.373714 
L 407.138741 197.428015 
L 408.138741 197.455953 
L 409.138741 197.485677 
L 410.138741 197.511072 
L 411.138741 197.522272 
L 412.138741 197.532396 
L 413.138741 197.532192 
L 414.138741 197.522682 
L 415.138741 197.511028 
L 416.138741 197.479999 
L 417.138741 197.468831 
L 418.138741 197.438714 
L 419.138741 197.378937 
L 420.138741 197.341745 
L 421.138741 197.302649 
L 422.138741 197.260209 
L 423.138741 197.227444 
L 424.138741 197.160018 
L 425.138741 197.120892 
L 426.138741 197.078217 
L 427.138741 197.007637 
L 428.138741 196.971246 
L 429.138741 196.912843 
L 430.138741 196.80189 
L 431.138741 196.731232 
L 432.138741 196.618292 
L 433.138741 196.572519 
L 434.138741 196.511236 
L 435.138741 196.462737 
L 436.138741 196.381914 
L 437.138741 196.263395 
L 438.138741 196.193184 
L 439.138741 196.109922 
L 440.138741 196.07678 
L 441.138741 196.025543 
L 442.138741 195.957144 
L 443.138741 195.890929 
L 444.138741 195.814012 
L 445.783285 195.786697 
" clip-path="url(#pa6c241a99e)" style="fill: none; stroke: #ff7f0e; stroke-opacity: 0.5; stroke-width: 0.2; stroke-linecap: square"/>
   <g id="patch_3">
    <path d="M 69.06392 22.318125 
L 69.06392 318.021875 
M 192.435777 22.318125 
L 192.435777 318.021875 
" clip-path="url(#pa6c241a99e)" style="fill: none; stroke: #ffffff; stroke-width: 3; stroke-linejoin: miter"/>
    <path d="M 69.06392 22.318125 
L 69.06392 318.021875 
M 192.435777 22.318125 
L 192.435777 318.021875 
" clip-path="url(#pa6c241a99e)" style="fill: none; stroke: #1f77b4; stroke-linejoin: miter"/>
    <g id="PolyCollection_1">
     <path d="M 192.435777 22.318125 
L 69.06392 22.318125 
L 69.06392 318.021875 
L 192.435777 318.021875 
L 192.435777 318.021875 
L 192.435777 22.318125 
z
" clip-path="url(#pa6c241a99e)" style="fill: #1f77b4; fill-opacity: 0.5"/>
    </g>
    <g id="patch_4">
     <path d="M 260.204697 22.318125 
L 260.204697 318.021875 
M 383.576553 22.318125 
L 383.576553 318.021875 
" clip-path="url(#pa6c241a99e)" style="fill: none; stroke: #ffffff; stroke-width: 3; stroke-linejoin: miter"/>
     <path d="M 260.204697 22.318125 
L 260.204697 318.021875 
M 383.576553 22.318125 
L 383.576553 318.021875 
" clip-path="url(#pa6c241a99e)" style="fill: none; stroke: #ff7f0e; stroke-linejoin: miter"/>
     <g id="PolyCollection_2">
      <path d="M 383.576553 22.318125 
L 260.204697 22.318125 
L 260.204697 318.021875 
L 383.576553 318.021875 
L 383.576553 318.021875 
L 383.576553 22.318125 
z
" clip-path="url(#pa6c241a99e)" style="fill: #ff7f0e; fill-opacity: 0.5"/>
     </g>
     <g id="patch_5">
      <path d="M 451.345473 22.318125 
L 451.345473 318.021875 
M 574.71733 22.318125 
L 574.71733 318.021875 
" clip-path="url(#pa6c241a99e)" style="fill: none; stroke: #ffffff; stroke-width: 3; stroke-linejoin: miter"/>
      <path d="M 451.345473 22.318125 
L 451.345473 318.021875 
M 574.71733 22.318125 
L 574.71733 318.021875 
" clip-path="url(#pa6c241a99e)" style="fill: none; stroke: #2ca02c; stroke-linejoin: miter"/>
      <g id="PolyCollection_3">
       <path d="M 574.71733 22.318125 
L 451.345473 22.318125 
L 451.345473 318.021875 
L 574.71733 318.021875 
L 574.71733 318.021875 
L 574.71733 22.318125 
z
" clip-path="url(#pa6c241a99e)" style="fill: #2ca02c; fill-opacity: 0.5"/>
      </g>
      <g id="matplotlib.axis_1">
       <g id="xtick_1">
        <g id="line2d_1"/>
        <g id="text_1">
         <!-- deme0 -->
         <g transform="translate(113.370943 329.120312)scale(0.1 -0.1)">
          <defs>
           <path id="DejaVuSans-64" d="M 2906 2969 
L 2906 4863 
L 3481 4863 
L 3481 0 
L 2906 0 
L 2906 525 
Q 2725 213 2448 61 
Q 2172 -91 1784 -91 
Q 1150 -91 751 415 
Q 353 922 353 1747 
Q 353 2572 751 3078 
Q 1150 3584 1784 3584 
Q 2172 3584 2448 3432 
Q 2725 3281 2906 2969 
z
M 947 1747 
Q 947 1113 1208 752 
Q 1469 391 1925 391 
Q 2381 391 2643 752 
Q 2906 1113 2906 1747 
Q 2906 2381 2643 2742 
Q 2381 3103 1925 3103 
Q 1469 3103 1208 2742 
Q 947 2381 947 1747 
z
" transform="scale(0.015625)"/>
           <path id="DejaVuSans-65" d="M 3597 1894 
L 3597 1613 
L 953 1613 
Q 991 1019 1311 708 
Q 1631 397 2203 397 
Q 2534 397 2845 478 
Q 3156 559 3463 722 
L 3463 178 
Q 3153 47 2828 -22 
Q 2503 -91 2169 -91 
Q 1331 -91 842 396 
Q 353 884 353 1716 
Q 353 2575 817 3079 
Q 1281 3584 2069 3584 
Q 2775 3584 3186 3129 
Q 3597 2675 3597 1894 
z
M 3022 2063 
Q 3016 2534 2758 2815 
Q 2500 3097 2075 3097 
Q 1594 3097 1305 2825 
Q 1016 2553 972 2059 
L 3022 2063 
z
" transform="scale(0.015625)"/>
           <path id="DejaVuSans-6d" d="M 3328 2828 
Q 3544 3216 3844 3400 
Q 4144 3584 4550 3584 
Q 5097 3584 5394 3201 
Q 5691 2819 5691 2113 
L 5691 0 
L 5113 0 
L 5113 2094 
Q 5113 2597 4934 2840 
Q 4756 3084 4391 3084 
Q 3944 3084 3684 2787 
Q 3425 2491 3425 1978 
L 3425 0 
L 2847 0 
L 2847 2094 
Q 2847 2600 2669 2842 
Q 2491 3084 2119 3084 
Q 1678 3084 1418 2786 
Q 1159 2488 1159 1978 
L 1159 0 
L 581 0 
L 581 3500 
L 1159 3500 
L 1159 2956 
Q 1356 3278 1631 3431 
Q 1906 3584 2284 3584 
Q 2666 3584 2933 3390 
Q 3200 3197 3328 2828 
z
" transform="scale(0.015625)"/>
           <path id="DejaVuSans-30" d="M 2034 4250 
Q 1547 4250 1301 3770 
Q 1056 3291 1056 2328 
Q 1056 1369 1301 889 
Q 1547 409 2034 409 
Q 2525 409 2770 889 
Q 3016 1369 3016 2328 
Q 3016 3291 2770 3770 
Q 2525 4250 2034 4250 
z
M 2034 4750 
Q 2819 4750 3233 4129 
Q 3647 3509 3647 2328 
Q 3647 1150 3233 529 
Q 2819 -91 2034 -91 
Q 1250 -91 836 529 
Q 422 1150 422 2328 
Q 422 3509 836 4129 
Q 1250 4750 2034 4750 
z
" transform="scale(0.015625)"/>
          </defs>
          <use xlink:href="#DejaVuSans-64"/>
          <use xlink:href="#DejaVuSans-65" x="63.476562"/>
          <use xlink:href="#DejaVuSans-6d" x="125"/>
          <use xlink:href="#DejaVuSans-65" x="222.412109"/>
          <use xlink:href="#DejaVuSans-30" x="283.935547"/>
         </g>
        </g>
       </g>
       <g id="xtick_2">
        <g id="line2d_2"/>
        <g id="text_2">
         <!-- deme1 -->
         <g transform="translate(304.511719 329.120312)scale(0.1 -0.1)">
          <defs>
           <path id="DejaVuSans-31" d="M 794 531 
L 1825 531 
L 1825 4091 
L 703 3866 
L 703 4441 
L 1819 4666 
L 2450 4666 
L 2450 531 
L 3481 531 
L 3481 0 
L 794 0 
L 794 531 
z
" transform="scale(0.015625)"/>
          </defs>
          <use xlink:href="#DejaVuSans-64"/>
          <use xlink:href="#DejaVuSans-65" x="63.476562"/>
          <use xlink:href="#DejaVuSans-6d" x="125"/>
          <use xlink:href="#DejaVuSans-65" x="222.412109"/>
          <use xlink:href="#DejaVuSans-31" x="283.935547"/>
         </g>
        </g>
       </g>
       <g id="xtick_3">
        <g id="line2d_3"/>
        <g id="text_3">
         <!-- deme2 -->
         <g transform="translate(495.652495 329.120312)scale(0.1 -0.1)">
          <defs>
           <path id="DejaVuSans-32" d="M 1228 531 
L 3431 531 
L 3431 0 
L 469 0 
L 469 531 
Q 828 903 1448 1529 
Q 2069 2156 2228 2338 
Q 2531 2678 2651 2914 
Q 2772 3150 2772 3378 
Q 2772 3750 2511 3984 
Q 2250 4219 1831 4219 
Q 1534 4219 1204 4116 
Q 875 4013 500 3803 
L 500 4441 
Q 881 4594 1212 4672 
Q 1544 4750 1819 4750 
Q 2544 4750 2975 4387 
Q 3406 4025 3406 3419 
Q 3406 3131 3298 2873 
Q 3191 2616 2906 2266 
Q 2828 2175 2409 1742 
Q 1991 1309 1228 531 
z
" transform="scale(0.015625)"/>
          </defs>
          <use xlink:href="#DejaVuSans-64"/>
          <use xlink:href="#DejaVuSans-65" x="63.476562"/>
          <use xlink:href="#DejaVuSans-6d" x="125"/>
          <use xlink:href="#DejaVuSans-65" x="222.412109"/>
          <use xlink:href="#DejaVuSans-32" x="283.935547"/>
         </g>
        </g>
       </g>
      </g>
      <g id="matplotlib.axis_2">
       <g id="ytick_1">
        <g id="line2d_4">
         <defs>
          <path id="m82eda1c780" d="M 0 0 
L -3.5 0 
" style="stroke: #000000; stroke-width: 0.8"/>
         </defs>
         <g>
          <use xlink:href="#m82eda1c780" x="43.78125" y="318.021875" style="stroke: #000000; stroke-width: 0.8"/>
         </g>
        </g>
        <g id="text_4">
         <!-- 0.0 -->
         <g transform="translate(20.878125 321.821094)scale(0.1 -0.1)">
          <defs>
           <path id="DejaVuSans-2e" d="M 684 794 
L 1344 794 
L 1344 0 
L 684 0 
L 684 794 
z
" transform="scale(0.015625)"/>
          </defs>
          <use xlink:href="#DejaVuSans-30"/>
          <use xlink:href="#DejaVuSans-2e" x="63.623047"/>
          <use xlink:href="#DejaVuSans-30" x="95.410156"/>
         </g>
        </g>
       </g>
       <g id="ytick_2">
        <g id="line2d_5">
         <g>
          <use xlink:href="#m82eda1c780" x="43.78125" y="258.881125" style="stroke: #000000; stroke-width: 0.8"/>
         </g>
        </g>
        <g id="text_5">
         <!-- 0.5 -->
         <g transform="translate(20.878125 262.680344)scale(0.1 -0.1)">
          <defs>
           <path id="DejaVuSans-35" d="M 691 4666 
L 3169 4666 
L 3169 4134 
L 1269 4134 
L 1269 2991 
Q 1406 3038 1543 3061 
Q 1681 3084 1819 3084 
Q 2600 3084 3056 2656 
Q 3513 2228 3513 1497 
Q 3513 744 3044 326 
Q 2575 -91 1722 -91 
Q 1428 -91 1123 -41 
Q 819 9 494 109 
L 494 744 
Q 775 591 1075 516 
Q 1375 441 1709 441 
Q 2250 441 2565 725 
Q 2881 1009 2881 1497 
Q 2881 1984 2565 2268 
Q 2250 2553 1709 2553 
Q 1456 2553 1204 2497 
Q 953 2441 691 2322 
L 691 4666 
z
" transform="scale(0.015625)"/>
          </defs>
          <use xlink:href="#DejaVuSans-30"/>
          <use xlink:href="#DejaVuSans-2e" x="63.623047"/>
          <use xlink:href="#DejaVuSans-35" x="95.410156"/>
         </g>
        </g>
       </g>
       <g id="ytick_3">
        <g id="line2d_6">
         <g>
          <use xlink:href="#m82eda1c780" x="43.78125" y="199.740375" style="stroke: #000000; stroke-width: 0.8"/>
         </g>
        </g>
        <g id="text_6">
         <!-- 1.0 -->
         <g transform="translate(20.878125 203.539594)scale(0.1 -0.1)">
          <use xlink:href="#DejaVuSans-31"/>
          <use xlink:href="#DejaVuSans-2e" x="63.623047"/>
          <use xlink:href="#DejaVuSans-30" x="95.410156"/>
         </g>
        </g>
       </g>
       <g id="ytick_4">
        <g id="line2d_7">
         <g>
          <use xlink:href="#m82eda1c780" x="43.78125" y="140.599625" style="stroke: #000000; stroke-width: 0.8"/>
         </g>
        </g>
        <g id="text_7">
         <!-- 1.5 -->
         <g transform="translate(20.878125 144.398844)scale(0.1 -0.1)">
          <use xlink:href="#DejaVuSans-31"/>
          <use xlink:href="#DejaVuSans-2e" x="63.623047"/>
          <use xlink:href="#DejaVuSans-35" x="95.410156"/>
         </g>
        </g>
       </g>
       <g id="ytick_5">
        <g id="line2d_8">
         <g>
          <use xlink:href="#m82eda1c780" x="43.78125" y="81.458875" style="stroke: #000000; stroke-width: 0.8"/>
         </g>
        </g>
        <g id="text_8">
         <!-- 2.0 -->
         <g transform="translate(20.878125 85.258094)scale(0.1 -0.1)">
          <use xlink:href="#DejaVuSans-32"/>
          <use xlink:href="#DejaVuSans-2e" x="63.623047"/>
          <use xlink:href="#DejaVuSans-30" x="95.410156"/>
         </g>
        </g>
       </g>
       <g id="ytick_6">
        <g id="line2d_9">
         <g>
          <use xlink:href="#m82eda1c780" x="43.78125" y="22.318125" style="stroke: #000000; stroke-width: 0.8"/>
         </g>
        </g>
        <g id="text_9">
         <!-- 2.5 -->
         <g transform="translate(20.878125 26.117344)scale(0.1 -0.1)">
          <use xlink:href="#DejaVuSans-32"/>
          <use xlink:href="#DejaVuSans-2e" x="63.623047"/>
          <use xlink:href="#DejaVuSans-35" x="95.410156"/>
         </g>
        </g>
       </g>
       <g id="text_10">
        <!-- time ago (generations) -->
        <g transform="translate(14.798438 227.641094)rotate(-90)scale(0.1 -0.1)">
         <defs>
          <path id="DejaVuSans-74" d="M 1172 4494 
L 1172 3500 
L 2356 3500 
L 2356 3053 
L 1172 3053 
L 1172 1153 
Q 1172 725 1289 603 
Q 1406 481 1766 481 
L 2356 481 
L 2356 0 
L 1766 0 
Q 1100 0 847 248 
Q 594 497 594 1153 
L 594 3053 
L 172 3053 
L 172 3500 
L 594 3500 
L 594 4494 
L 1172 4494 
z
" transform="scale(0.015625)"/>
          <path id="DejaVuSans-69" d="M 603 3500 
L 1178 3500 
L 1178 0 
L 603 0 
L 603 3500 
z
M 603 4863 
L 1178 4863 
L 1178 4134 
L 603 4134 
L 603 4863 
z
" transform="scale(0.015625)"/>
          <path id="DejaVuSans-20" transform="scale(0.015625)"/>
          <path id="DejaVuSans-61" d="M 2194 1759 
Q 1497 1759 1228 1600 
Q 959 1441 959 1056 
Q 959 750 1161 570 
Q 1363 391 1709 391 
Q 2188 391 2477 730 
Q 2766 1069 2766 1631 
L 2766 1759 
L 2194 1759 
z
M 3341 1997 
L 3341 0 
L 2766 0 
L 2766 531 
Q 2569 213 2275 61 
Q 1981 -91 1556 -91 
Q 1019 -91 701 211 
Q 384 513 384 1019 
Q 384 1609 779 1909 
Q 1175 2209 1959 2209 
L 2766 2209 
L 2766 2266 
Q 2766 2663 2505 2880 
Q 2244 3097 1772 3097 
Q 1472 3097 1187 3025 
Q 903 2953 641 2809 
L 641 3341 
Q 956 3463 1253 3523 
Q 1550 3584 1831 3584 
Q 2591 3584 2966 3190 
Q 3341 2797 3341 1997 
z
" transform="scale(0.015625)"/>
          <path id="DejaVuSans-67" d="M 2906 1791 
Q 2906 2416 2648 2759 
Q 2391 3103 1925 3103 
Q 1463 3103 1205 2759 
Q 947 2416 947 1791 
Q 947 1169 1205 825 
Q 1463 481 1925 481 
Q 2391 481 2648 825 
Q 2906 1169 2906 1791 
z
M 3481 434 
Q 3481 -459 3084 -895 
Q 2688 -1331 1869 -1331 
Q 1566 -1331 1297 -1286 
Q 1028 -1241 775 -1147 
L 775 -588 
Q 1028 -725 1275 -790 
Q 1522 -856 1778 -856 
Q 2344 -856 2625 -561 
Q 2906 -266 2906 331 
L 2906 616 
Q 2728 306 2450 153 
Q 2172 0 1784 0 
Q 1141 0 747 490 
Q 353 981 353 1791 
Q 353 2603 747 3093 
Q 1141 3584 1784 3584 
Q 2172 3584 2450 3431 
Q 2728 3278 2906 2969 
L 2906 3500 
L 3481 3500 
L 3481 434 
z
" transform="scale(0.015625)"/>
          <path id="DejaVuSans-6f" d="M 1959 3097 
Q 1497 3097 1228 2736 
Q 959 2375 959 1747 
Q 959 1119 1226 758 
Q 1494 397 1959 397 
Q 2419 397 2687 759 
Q 2956 1122 2956 1747 
Q 2956 2369 2687 2733 
Q 2419 3097 1959 3097 
z
M 1959 3584 
Q 2709 3584 3137 3096 
Q 3566 2609 3566 1747 
Q 3566 888 3137 398 
Q 2709 -91 1959 -91 
Q 1206 -91 779 398 
Q 353 888 353 1747 
Q 353 2609 779 3096 
Q 1206 3584 1959 3584 
z
" transform="scale(0.015625)"/>
          <path id="DejaVuSans-28" d="M 1984 4856 
Q 1566 4138 1362 3434 
Q 1159 2731 1159 2009 
Q 1159 1288 1364 580 
Q 1569 -128 1984 -844 
L 1484 -844 
Q 1016 -109 783 600 
Q 550 1309 550 2009 
Q 550 2706 781 3412 
Q 1013 4119 1484 4856 
L 1984 4856 
z
" transform="scale(0.015625)"/>
          <path id="DejaVuSans-6e" d="M 3513 2113 
L 3513 0 
L 2938 0 
L 2938 2094 
Q 2938 2591 2744 2837 
Q 2550 3084 2163 3084 
Q 1697 3084 1428 2787 
Q 1159 2491 1159 1978 
L 1159 0 
L 581 0 
L 581 3500 
L 1159 3500 
L 1159 2956 
Q 1366 3272 1645 3428 
Q 1925 3584 2291 3584 
Q 2894 3584 3203 3211 
Q 3513 2838 3513 2113 
z
" transform="scale(0.015625)"/>
          <path id="DejaVuSans-72" d="M 2631 2963 
Q 2534 3019 2420 3045 
Q 2306 3072 2169 3072 
Q 1681 3072 1420 2755 
Q 1159 2438 1159 1844 
L 1159 0 
L 581 0 
L 581 3500 
L 1159 3500 
L 1159 2956 
Q 1341 3275 1631 3429 
Q 1922 3584 2338 3584 
Q 2397 3584 2469 3576 
Q 2541 3569 2628 3553 
L 2631 2963 
z
" transform="scale(0.015625)"/>
          <path id="DejaVuSans-73" d="M 2834 3397 
L 2834 2853 
Q 2591 2978 2328 3040 
Q 2066 3103 1784 3103 
Q 1356 3103 1142 2972 
Q 928 2841 928 2578 
Q 928 2378 1081 2264 
Q 1234 2150 1697 2047 
L 1894 2003 
Q 2506 1872 2764 1633 
Q 3022 1394 3022 966 
Q 3022 478 2636 193 
Q 2250 -91 1575 -91 
Q 1294 -91 989 -36 
Q 684 19 347 128 
L 347 722 
Q 666 556 975 473 
Q 1284 391 1588 391 
Q 1994 391 2212 530 
Q 2431 669 2431 922 
Q 2431 1156 2273 1281 
Q 2116 1406 1581 1522 
L 1381 1569 
Q 847 1681 609 1914 
Q 372 2147 372 2553 
Q 372 3047 722 3315 
Q 1072 3584 1716 3584 
Q 2034 3584 2315 3537 
Q 2597 3491 2834 3397 
z
" transform="scale(0.015625)"/>
          <path id="DejaVuSans-29" d="M 513 4856 
L 1013 4856 
Q 1481 4119 1714 3412 
Q 1947 2706 1947 2009 
Q 1947 1309 1714 600 
Q 1481 -109 1013 -844 
L 513 -844 
Q 928 -128 1133 580 
Q 1338 1288 1338 2009 
Q 1338 2731 1133 3434 
Q 928 4138 513 4856 
z
" transform="scale(0.015625)"/>
         </defs>
         <use xlink:href="#DejaVuSans-74"/>
         <use xlink:href="#DejaVuSans-69" x="39.208984"/>
         <use xlink:href="#DejaVuSans-6d" x="66.992188"/>
         <use xlink:href="#DejaVuSans-65" x="164.404297"/>
         <use xlink:href="#DejaVuSans-20" x="225.927734"/>
         <use xlink:href="#DejaVuSans-61" x="257.714844"/>
         <use xlink:href="#DejaVuSans-67" x="318.994141"/>
         <use xlink:href="#DejaVuSans-6f" x="382.470703"/>
         <use xlink:href="#DejaVuSans-20" x="443.652344"/>
         <use xlink:href="#DejaVuSans-28" x="475.439453"/>
         <use xlink:href="#DejaVuSans-67" x="514.453125"/>
         <use xlink:href="#DejaVuSans-65" x="577.929688"/>
         <use xlink:href="#DejaVuSans-6e" x="639.453125"/>
         <use xlink:href="#DejaVuSans-65" x="702.832031"/>
         <use xlink:href="#DejaVuSans-72" x="764.355469"/>
         <use xlink:href="#DejaVuSans-61" x="805.46875"/>
         <use xlink:href="#DejaVuSans-74" x="866.748047"/>
         <use xlink:href="#DejaVuSans-69" x="905.957031"/>
         <use xlink:href="#DejaVuSans-6f" x="933.740234"/>
         <use xlink:href="#DejaVuSans-6e" x="994.921875"/>
         <use xlink:href="#DejaVuSans-73" x="1058.300781"/>
         <use xlink:href="#DejaVuSans-29" x="1110.400391"/>
        </g>
       </g>
      </g>
      <path d="M 255.642509 187.703492 
L 253.642509 186.703492 
L 253.642509 188.703492 
z
" clip-path="url(#pa6c241a99e)" style="fill: #1f77b4; fill-opacity: 0.5; stroke: #1f77b4; stroke-opacity: 0.5; stroke-linejoin: miter"/>
      <path d="M 255.642509 168.347711 
L 253.642509 167.347711 
L 253.642509 169.347711 
z
" clip-path="url(#pa6c241a99e)" style="fill: #1f77b4; fill-opacity: 0.5; stroke: #1f77b4; stroke-opacity: 0.5; stroke-linejoin: miter"/>
      <path d="M 255.642509 185.188053 
L 253.642509 184.188053 
L 253.642509 186.188053 
z
" clip-path="url(#pa6c241a99e)" style="fill: #1f77b4; fill-opacity: 0.5; stroke: #1f77b4; stroke-opacity: 0.5; stroke-linejoin: miter"/>
      <path d="M 255.642509 150.01141 
L 253.642509 149.01141 
L 253.642509 151.01141 
z
" clip-path="url(#pa6c241a99e)" style="fill: #1f77b4; fill-opacity: 0.5; stroke: #1f77b4; stroke-opacity: 0.5; stroke-linejoin: miter"/>
      <path d="M 255.642509 187.536203 
L 253.642509 186.536203 
L 253.642509 188.536203 
z
" clip-path="url(#pa6c241a99e)" style="fill: #1f77b4; fill-opacity: 0.5; stroke: #1f77b4; stroke-opacity: 0.5; stroke-linejoin: miter"/>
      <path d="M 255.642509 140.209519 
L 253.642509 139.209519 
L 253.642509 141.209519 
z
" clip-path="url(#pa6c241a99e)" style="fill: #1f77b4; fill-opacity: 0.5; stroke: #1f77b4; stroke-opacity: 0.5; stroke-linejoin: miter"/>
      <path d="M 255.642509 186.100066 
L 253.642509 185.100066 
L 253.642509 187.100066 
z
" clip-path="url(#pa6c241a99e)" style="fill: #1f77b4; fill-opacity: 0.5; stroke: #1f77b4; stroke-opacity: 0.5; stroke-linejoin: miter"/>
      <path d="M 255.642509 117.488982 
L 253.642509 116.488982 
L 253.642509 118.488982 
z
" clip-path="url(#pa6c241a99e)" style="fill: #1f77b4; fill-opacity: 0.5; stroke: #1f77b4; stroke-opacity: 0.5; stroke-linejoin: miter"/>
      <path d="M 255.642509 89.885331 
L 253.642509 88.885331 
L 253.642509 90.885331 
z
" clip-path="url(#pa6c241a99e)" style="fill: #1f77b4; fill-opacity: 0.5; stroke: #1f77b4; stroke-opacity: 0.5; stroke-linejoin: miter"/>
      <path d="M 255.642509 137.112481 
L 253.642509 136.112481 
L 253.642509 138.112481 
z
" clip-path="url(#pa6c241a99e)" style="fill: #1f77b4; fill-opacity: 0.5; stroke: #1f77b4; stroke-opacity: 0.5; stroke-linejoin: miter"/>
      <path d="M 446.783285 120.862582 
L 444.783285 119.862582 
L 444.783285 121.862582 
z
" clip-path="url(#pa6c241a99e)" style="fill: #ff7f0e; fill-opacity: 0.5; stroke: #ff7f0e; stroke-opacity: 0.5; stroke-linejoin: miter"/>
      <path d="M 446.783285 113.860853 
L 444.783285 112.860853 
L 444.783285 114.860853 
z
" clip-path="url(#pa6c241a99e)" style="fill: #ff7f0e; fill-opacity: 0.5; stroke: #ff7f0e; stroke-opacity: 0.5; stroke-linejoin: miter"/>
      <path d="M 446.783285 83.65766 
L 444.783285 82.65766 
L 444.783285 84.65766 
z
" clip-path="url(#pa6c241a99e)" style="fill: #ff7f0e; fill-opacity: 0.5; stroke: #ff7f0e; stroke-opacity: 0.5; stroke-linejoin: miter"/>
      <path d="M 446.783285 196.797641 
L 444.783285 195.797641 
L 444.783285 197.797641 
z
" clip-path="url(#pa6c241a99e)" style="fill: #ff7f0e; fill-opacity: 0.5; stroke: #ff7f0e; stroke-opacity: 0.5; stroke-linejoin: miter"/>
      <path d="M 446.783285 188.826169 
L 444.783285 187.826169 
L 444.783285 189.826169 
z
" clip-path="url(#pa6c241a99e)" style="fill: #ff7f0e; fill-opacity: 0.5; stroke: #ff7f0e; stroke-opacity: 0.5; stroke-linejoin: miter"/>
      <path d="M 446.783285 143.760604 
L 444.783285 142.760604 
L 444.783285 144.760604 
z
" clip-path="url(#pa6c241a99e)" style="fill: #ff7f0e; fill-opacity: 0.5; stroke: #ff7f0e; stroke-opacity: 0.5; stroke-linejoin: miter"/>
      <path d="M 446.783285 94.443459 
L 444.783285 93.443459 
L 444.783285 95.443459 
z
" clip-path="url(#pa6c241a99e)" style="fill: #ff7f0e; fill-opacity: 0.5; stroke: #ff7f0e; stroke-opacity: 0.5; stroke-linejoin: miter"/>
      <path d="M 446.783285 107.640951 
L 444.783285 106.640951 
L 444.783285 108.640951 
z
" clip-path="url(#pa6c241a99e)" style="fill: #ff7f0e; fill-opacity: 0.5; stroke: #ff7f0e; stroke-opacity: 0.5; stroke-linejoin: miter"/>
      <path d="M 446.783285 115.17372 
L 444.783285 114.17372 
L 444.783285 116.17372 
z
" clip-path="url(#pa6c241a99e)" style="fill: #ff7f0e; fill-opacity: 0.5; stroke: #ff7f0e; stroke-opacity: 0.5; stroke-linejoin: miter"/>
      <path d="M 446.783285 196.533772 
L 444.783285 195.533772 
L 444.783285 197.533772 
z
" clip-path="url(#pa6c241a99e)" style="fill: #ff7f0e; fill-opacity: 0.5; stroke: #ff7f0e; stroke-opacity: 0.5; stroke-linejoin: miter"/>
      <g id="patch_6">
       <path d="M 43.78125 318.021875 
L 43.78125 22.318125 
" style="fill: none; stroke: #000000; stroke-width: 0.8; stroke-linejoin: miter; stroke-linecap: square"/>
      </g>
      <g id="text_11">
       <!-- defaults_migration_properties.yaml -->
       <g transform="translate(215.434687 16.318125)scale(0.12 -0.12)">
        <defs>
         <path id="DejaVuSans-66" d="M 2375 4863 
L 2375 4384 
L 1825 4384 
Q 1516 4384 1395 4259 
Q 1275 4134 1275 3809 
L 1275 3500 
L 2222 3500 
L 2222 3053 
L 1275 3053 
L 1275 0 
L 697 0 
L 697 3053 
L 147 3053 
L 147 3500 
L 697 3500 
L 697 3744 
Q 697 4328 969 4595 
Q 1241 4863 1831 4863 
L 2375 4863 
z
" transform="scale(0.015625)"/>
         <path id="DejaVuSans-75" d="M 544 1381 
L 544 3500 
L 1119 3500 
L 1119 1403 
Q 1119 906 1312 657 
Q 1506 409 1894 409 
Q 2359 409 2629 706 
Q 2900 1003 2900 1516 
L 2900 3500 
L 3475 3500 
L 3475 0 
L 2900 0 
L 2900 538 
Q 2691 219 2414 64 
Q 2138 -91 1772 -91 
Q 1169 -91 856 284 
Q 544 659 544 1381 
z
M 1991 3584 
L 1991 3584 
z
" transform="scale(0.015625)"/>
         <path id="DejaVuSans-6c" d="M 603 4863 
L 1178 4863 
L 1178 0 
L 603 0 
L 603 4863 
z
" transform="scale(0.015625)"/>
         <path id="DejaVuSans-5f" d="M 3263 -1063 
L 3263 -1509 
L -63 -1509 
L -63 -1063 
L 3263 -1063 
z
" transform="scale(0.015625)"/>
         <path id="DejaVuSans-70" d="M 1159 525 
L 1159 -1331 
L 581 -1331 
L 581 3500 
L 1159 3500 
L 1159 2969 
Q 1341 3281 1617 3432 
Q 1894 3584 2278 3584 
Q 2916 3584 3314 3078 
Q 3713 2572 3713 1747 
Q 3713 922 3314 415 
Q 2916 -91 2278 -91 
Q 1894 -91 1617 61 
Q 1341 213 1159 525 
z
M 3116 1747 
Q 3116 2381 2855 2742 
Q 2594 3103 2138 3103 
Q 1681 3103 1420 2742 
Q 1159 2381 1159 1747 
Q 1159 1113 1420 752 
Q 1681 391 2138 391 
Q 2594 391 2855 752 
Q 3116 1113 3116 1747 
z
" transform="scale(0.015625)"/>
         <path id="DejaVuSans-79" d="M 2059 -325 
Q 1816 -950 1584 -1140 
Q 1353 -1331 966 -1331 
L 506 -1331 
L 506 -850 
L 844 -850 
Q 1081 -850 1212 -737 
Q 1344 -625 1503 -206 
L 1606 56 
L 191 3500 
L 800 3500 
L 1894 763 
L 2988 3500 
L 3597 3500 
L 2059 -325 
z
" transform="scale(0.015625)"/>
        </defs>
        <use xlink:href="#DejaVuSans-64"/>
        <use xlink:href="#DejaVuSans-65" x="63.476562"/>
        <use xlink:href="#DejaVuSans-66" x="125"/>
        <use xlink:href="#DejaVuSans-61" x="160.205078"/>
        <use xlink:href="#DejaVuSans-75" x="221.484375"/>
        <use xlink:href="#DejaVuSans-6c" x="284.863281"/>
        <use xlink:href="#DejaVuSans-74" x="312.646484"/>
        <use xlink:href="#DejaVuSans-73" x="351.855469"/>
        <use xlink:href="#DejaVuSans-5f" x="403.955078"/>
        <use xlink:href="#DejaVuSans-6d" x="453.955078"/>
        <use xlink:href="#DejaVuSans-69" x="551.367188"/>
        <use xlink:href="#DejaVuSans-67" x="579.150391"/>
        <use xlink:href="#DejaVuSans-72" x="642.626953"/>
        <use xlink:href="#DejaVuSans-61" x="683.740234"/>
        <use xlink:href="#DejaVuSans-74" x="745.019531"/>
        <use xlink:href="#DejaVuSans-69" x="784.228516"/>
        <use xlink:href="#DejaVuSans-6f" x="812.011719"/>
        <use xlink:href="#DejaVuSans-6e" x="873.193359"/>
        <use xlink:href="#DejaVuSans-5f" x="936.572266"/>
        <use xlink:href="#DejaVuSans-70" x="986.572266"/>
        <use xlink:href="#DejaVuSans-72" x="1050.048828"/>
        <use xlink:href="#DejaVuSans-6f" x="1088.912109"/>
        <use xlink:href="#DejaVuSans-70" x="1150.09375"/>
        <use xlink:href="#DejaVuSans-65" x="1213.570312"/>
        <use xlink:href="#DejaVuSans-72" x="1275.09375"/>
        <use xlink:href="#DejaVuSans-74" x="1316.207031"/>
        <use xlink:href="#DejaVuSans-69" x="1355.416016"/>
        <use xlink:href="#DejaVuSans-65" x="1383.199219"/>
        <use xlink:href="#DejaVuSans-73" x="1444.722656"/>
        <use xlink:href="#DejaVuSans-2e" x="1496.822266"/>
        <use xlink:href="#DejaVuSans-79" x="1528.609375"/>
        <use xlink:href="#DejaVuSans-61" x="1587.789062"/>
        <use xlink:href="#DejaVuSans-6d" x="1649.068359"/>
        <use xlink:href="#DejaVuSans-6c" x="1746.480469"/>
       </g>
      </g>
     </g>
    </g>
    <defs>
     <clipPath id="pa6c241a99e">
      <rect x="43.78125" y="22.318125" width="556.21875" height="295.70375"/>
     </clipPath>
    </defs>
   </g>
  </g>
 </g>
</svg>
