<?xml version="1.0" encoding="utf-8" standalone="no"?>
<!DOCTYPE svg PUBLIC "-//W3C//DTD SVG 1.1//EN"
  "http://www.w3.org/Graphics/SVG/1.1/DTD/svg11.dtd">
<svg xmlns:xlink="http://www.w3.org/1999/xlink" width="504.8pt" height="280.8pt" viewBox="0 0 504.8 280.8" xmlns="http://www.w3.org/2000/svg" version="1.1">
 <metadata>
  <rdf:RDF xmlns:dc="http://purl.org/dc/elements/1.1/" xmlns:cc="http://creativecommons.org/ns#" xmlns:rdf="http://www.w3.org/1999/02/22-rdf-syntax-ns#">
   <cc:Work>
    <dc:type rdf:resource="http://purl.org/dc/dcmitype/StillImage"/>
    <dc:date>2022-03-21T08:20:07.438640</dc:date>
    <dc:format>image/svg+xml</dc:format>
    <dc:creator>
     <cc:Agent>
      <dc:title>Matplotlib v3.5.1, https://matplotlib.org/</dc:title>
     </cc:Agent>
    </dc:creator>
   </cc:Work>
  </rdf:RDF>
 </metadata>
 <defs>
  <style type="text/css">*{stroke-linejoin: round; stroke-linecap: butt}</style>
 </defs>
 <g id="figure_1">
  <g id="patch_1">
   <path d="M 0 280.8 
L 504.8 280.8 
L 504.8 0 
L 0 0 
L 0 280.8 
z
" style="fill: none"/>
  </g>
  <g id="axes_1">
   <g id="patch_2">
    <path d="M 46.965625 260.421875 
L 497.6 260.421875 
L 497.6 22.318125 
L 46.965625 22.318125 
z
" style="fill: #ffffff"/>
   </g>
   <path d="M 171.90811 89.589367 
L 172.90811 89.620804 
L 173.90811 89.657744 
L 174.90811 89.755491 
L 175.90811 89.788012 
L 176.90811 89.861637 
L 177.90811 89.900202 
L 178.90811 89.935616 
L 179.90811 89.993256 
L 180.90811 90.063642 
L 181.90811 90.115606 
L 182.90811 90.174696 
L 183.90811 90.263017 
L 184.90811 90.309161 
L 185.90811 90.351572 
L 186.90811 90.382065 
L 187.90811 90.40811 
L 188.90811 90.42931 
L 189.90811 90.483611 
L 190.90811 90.511548 
L 191.90811 90.541272 
L 192.90811 90.566667 
L 193.90811 90.577867 
L 194.90811 90.587991 
L 195.90811 90.587787 
L 196.90811 90.578277 
L 197.90811 90.566624 
L 198.90811 90.535594 
L 199.90811 90.524426 
L 200.90811 90.494309 
L 201.90811 90.434532 
L 202.90811 90.39734 
L 203.90811 90.358244 
L 204.90811 90.315805 
L 205.90811 90.28304 
L 206.90811 90.215613 
L 207.90811 90.176487 
L 208.90811 90.133813 
L 209.90811 90.063232 
L 210.90811 90.026841 
L 211.90811 89.968438 
L 212.90811 89.857485 
L 213.90811 89.786827 
L 214.90811 89.673887 
L 215.90811 89.628114 
L 217.800088 89.566831 
" clip-path="url(#p2a1dc56208)" style="fill: none; stroke: #1f77b4; stroke-opacity: 0.5; stroke-width: 0.2; stroke-linecap: square"/>
   <path d="M 171.90811 30.54377 
L 172.90811 30.575206 
L 173.90811 30.612147 
L 174.90811 30.709893 
L 175.90811 30.742415 
L 176.90811 30.816039 
L 177.90811 30.854605 
L 178.90811 30.890018 
L 179.90811 30.947658 
L 180.90811 31.018044 
L 181.90811 31.070009 
L 182.90811 31.129098 
L 183.90811 31.217419 
L 184.90811 31.263564 
L 185.90811 31.305975 
L 186.90811 31.336467 
L 187.90811 31.362512 
L 188.90811 31.383712 
L 189.90811 31.438013 
L 190.90811 31.465951 
L 191.90811 31.495675 
L 192.90811 31.52107 
L 193.90811 31.53227 
L 194.90811 31.542394 
L 195.90811 31.54219 
L 196.90811 31.53268 
L 197.90811 31.521026 
L 198.90811 31.489997 
L 199.90811 31.478829 
L 200.90811 31.448712 
L 201.90811 31.388935 
L 202.90811 31.351743 
L 203.90811 31.312647 
L 204.90811 31.270207 
L 205.90811 31.237442 
L 206.90811 31.170016 
L 207.90811 31.13089 
L 208.90811 31.088215 
L 209.90811 31.017635 
L 210.90811 30.981244 
L 211.90811 30.922841 
L 212.90811 30.811888 
L 213.90811 30.74123 
L 214.90811 30.62829 
L 215.90811 30.582517 
L 217.800088 30.521234 
" clip-path="url(#p2a1dc56208)" style="fill: none; stroke: #1f77b4; stroke-opacity: 0.5; stroke-width: 0.2; stroke-linecap: square"/>
   <path d="M 171.90811 152.623222 
L 172.90811 152.654659 
L 173.90811 152.691599 
L 174.90811 152.789346 
L 175.90811 152.821867 
L 176.90811 152.895492 
L 177.90811 152.934057 
L 178.90811 152.969471 
L 179.90811 153.027111 
L 180.90811 153.097497 
L 181.90811 153.149461 
L 182.90811 153.208551 
L 183.90811 153.296872 
L 184.90811 153.343016 
L 185.90811 153.385427 
L 186.90811 153.41592 
L 187.90811 153.441965 
L 188.90811 153.463165 
L 189.90811 153.517466 
L 190.90811 153.545403 
L 191.90811 153.575127 
L 192.90811 153.600522 
L 193.90811 153.611722 
L 194.90811 153.621846 
L 195.90811 153.621642 
L 196.90811 153.612132 
L 197.90811 153.600479 
L 198.90811 153.569449 
L 199.90811 153.558281 
L 200.90811 153.528164 
L 201.90811 153.468387 
L 202.90811 153.431195 
L 203.90811 153.392099 
L 204.90811 153.34966 
L 205.90811 153.316895 
L 206.90811 153.249468 
L 207.90811 153.210342 
L 208.90811 153.167668 
L 209.90811 153.097087 
L 210.90811 153.060696 
L 211.90811 153.002293 
L 212.90811 152.891341 
L 213.90811 152.820682 
L 214.90811 152.707742 
L 215.90811 152.661969 
L 217.800088 152.600686 
" clip-path="url(#p2a1dc56208)" style="fill: none; stroke: #1f77b4; stroke-opacity: 0.5; stroke-width: 0.2; stroke-linecap: square"/>
   <path d="M 171.90811 207.89867 
L 172.90811 207.930106 
L 173.90811 207.967047 
L 174.90811 208.064793 
L 175.90811 208.097315 
L 176.90811 208.170939 
L 177.90811 208.209505 
L 178.90811 208.244918 
L 179.90811 208.302558 
L 180.90811 208.372944 
L 181.90811 208.424908 
L 182.90811 208.483998 
L 183.90811 208.572319 
L 184.90811 208.618464 
L 185.90811 208.660874 
L 186.90811 208.691367 
L 187.90811 208.717412 
L 188.90811 208.738612 
L 189.90811 208.792913 
L 190.90811 208.820851 
L 191.90811 208.850575 
L 192.90811 208.87597 
L 193.90811 208.88717 
L 194.90811 208.897294 
L 195.90811 208.89709 
L 196.90811 208.88758 
L 197.90811 208.875926 
L 198.90811 208.844897 
L 199.90811 208.833729 
L 200.90811 208.803611 
L 201.90811 208.743835 
L 202.90811 208.706643 
L 203.90811 208.667547 
L 204.90811 208.625107 
L 205.90811 208.592342 
L 206.90811 208.524916 
L 207.90811 208.48579 
L 208.90811 208.443115 
L 209.90811 208.372535 
L 210.90811 208.336144 
L 211.90811 208.277741 
L 212.90811 208.166788 
L 213.90811 208.09613 
L 214.90811 207.98319 
L 215.90811 207.937417 
L 217.800088 207.876134 
" clip-path="url(#p2a1dc56208)" style="fill: none; stroke: #1f77b4; stroke-opacity: 0.5; stroke-width: 0.2; stroke-linecap: square"/>
   <path d="M 171.90811 176.920314 
L 172.90811 176.95175 
L 173.90811 176.98869 
L 174.90811 177.086437 
L 175.90811 177.118958 
L 176.90811 177.192583 
L 177.90811 177.231149 
L 178.90811 177.266562 
L 179.90811 177.324202 
L 180.90811 177.394588 
L 181.90811 177.446552 
L 182.90811 177.505642 
L 183.90811 177.593963 
L 184.90811 177.640107 
L 185.90811 177.682518 
L 186.90811 177.713011 
L 187.90811 177.739056 
L 188.90811 177.760256 
L 189.90811 177.814557 
L 190.90811 177.842495 
L 191.90811 177.872219 
L 192.90811 177.897613 
L 193.90811 177.908814 
L 194.90811 177.918938 
L 195.90811 177.918733 
L 196.90811 177.909224 
L 197.90811 177.89757 
L 198.90811 177.866541 
L 199.90811 177.855373 
L 200.90811 177.825255 
L 201.90811 177.765478 
L 202.90811 177.728287 
L 203.90811 177.689191 
L 204.90811 177.646751 
L 205.90811 177.613986 
L 206.90811 177.546559 
L 207.90811 177.507434 
L 208.90811 177.464759 
L 209.90811 177.394178 
L 210.90811 177.357788 
L 211.90811 177.299384 
L 212.90811 177.188432 
L 213.90811 177.117773 
L 214.90811 177.004834 
L 215.90811 176.959061 
L 217.800088 176.897778 
" clip-path="url(#p2a1dc56208)" style="fill: none; stroke: #1f77b4; stroke-opacity: 0.5; stroke-width: 0.2; stroke-linecap: square"/>
   <path d="M 171.90811 208.985018 
L 172.90811 209.016455 
L 173.90811 209.053395 
L 174.90811 209.151142 
L 175.90811 209.183663 
L 176.90811 209.257288 
L 177.90811 209.295854 
L 178.90811 209.331267 
L 179.90811 209.388907 
L 180.90811 209.459293 
L 181.90811 209.511257 
L 182.90811 209.570347 
L 183.90811 209.658668 
L 184.90811 209.704812 
L 185.90811 209.747223 
L 186.90811 209.777716 
L 187.90811 209.803761 
L 188.90811 209.824961 
L 189.90811 209.879262 
L 190.90811 209.907199 
L 191.90811 209.936923 
L 192.90811 209.962318 
L 193.90811 209.973519 
L 194.90811 209.983643 
L 195.90811 209.983438 
L 196.90811 209.973928 
L 197.90811 209.962275 
L 198.90811 209.931246 
L 199.90811 209.920078 
L 200.90811 209.88996 
L 201.90811 209.830183 
L 202.90811 209.792992 
L 203.90811 209.753896 
L 204.90811 209.711456 
L 205.90811 209.678691 
L 206.90811 209.611264 
L 207.90811 209.572138 
L 208.90811 209.529464 
L 209.90811 209.458883 
L 210.90811 209.422492 
L 211.90811 209.364089 
L 212.90811 209.253137 
L 213.90811 209.182478 
L 214.90811 209.069538 
L 215.90811 209.023766 
L 217.800088 208.962482 
" clip-path="url(#p2a1dc56208)" style="fill: none; stroke: #1f77b4; stroke-opacity: 0.5; stroke-width: 0.2; stroke-linecap: square"/>
   <path d="M 171.90811 31.464004 
L 172.90811 31.495441 
L 173.90811 31.532381 
L 174.90811 31.630128 
L 175.90811 31.662649 
L 176.90811 31.736274 
L 177.90811 31.77484 
L 178.90811 31.810253 
L 179.90811 31.867893 
L 180.90811 31.938279 
L 181.90811 31.990243 
L 182.90811 32.049333 
L 183.90811 32.137654 
L 184.90811 32.183798 
L 185.90811 32.226209 
L 186.90811 32.256702 
L 187.90811 32.282747 
L 188.90811 32.303947 
L 189.90811 32.358248 
L 190.90811 32.386185 
L 191.90811 32.415909 
L 192.90811 32.441304 
L 193.90811 32.452505 
L 194.90811 32.462629 
L 195.90811 32.462424 
L 196.90811 32.452914 
L 197.90811 32.441261 
L 198.90811 32.410232 
L 199.90811 32.399064 
L 200.90811 32.368946 
L 201.90811 32.309169 
L 202.90811 32.271978 
L 203.90811 32.232882 
L 204.90811 32.190442 
L 205.90811 32.157677 
L 206.90811 32.09025 
L 207.90811 32.051124 
L 208.90811 32.00845 
L 209.90811 31.937869 
L 210.90811 31.901478 
L 211.90811 31.843075 
L 212.90811 31.732123 
L 213.90811 31.661464 
L 214.90811 31.548525 
L 215.90811 31.502752 
L 217.800088 31.441468 
" clip-path="url(#p2a1dc56208)" style="fill: none; stroke: #1f77b4; stroke-opacity: 0.5; stroke-width: 0.2; stroke-linecap: square"/>
   <path d="M 171.90811 55.939473 
L 172.90811 55.970909 
L 173.90811 56.00785 
L 174.90811 56.105596 
L 175.90811 56.138118 
L 176.90811 56.211743 
L 177.90811 56.250308 
L 178.90811 56.285721 
L 179.90811 56.343361 
L 180.90811 56.413747 
L 181.90811 56.465712 
L 182.90811 56.524801 
L 183.90811 56.613122 
L 184.90811 56.659267 
L 185.90811 56.701678 
L 186.90811 56.73217 
L 187.90811 56.758215 
L 188.90811 56.779415 
L 189.90811 56.833716 
L 190.90811 56.861654 
L 191.90811 56.891378 
L 192.90811 56.916773 
L 193.90811 56.927973 
L 194.90811 56.938097 
L 195.90811 56.937893 
L 196.90811 56.928383 
L 197.90811 56.916729 
L 198.90811 56.8857 
L 199.90811 56.874532 
L 200.90811 56.844415 
L 201.90811 56.784638 
L 202.90811 56.747446 
L 203.90811 56.70835 
L 204.90811 56.66591 
L 205.90811 56.633145 
L 206.90811 56.565719 
L 207.90811 56.526593 
L 208.90811 56.483918 
L 209.90811 56.413338 
L 210.90811 56.376947 
L 211.90811 56.318544 
L 212.90811 56.207591 
L 213.90811 56.136933 
L 214.90811 56.023993 
L 215.90811 55.97822 
L 217.800088 55.916937 
" clip-path="url(#p2a1dc56208)" style="fill: none; stroke: #1f77b4; stroke-opacity: 0.5; stroke-width: 0.2; stroke-linecap: square"/>
   <path d="M 171.90811 64.208305 
L 172.90811 64.239742 
L 173.90811 64.276682 
L 174.90811 64.374428 
L 175.90811 64.40695 
L 176.90811 64.480575 
L 177.90811 64.51914 
L 178.90811 64.554554 
L 179.90811 64.612193 
L 180.90811 64.68258 
L 181.90811 64.734544 
L 182.90811 64.793634 
L 183.90811 64.881955 
L 184.90811 64.928099 
L 185.90811 64.97051 
L 186.90811 65.001002 
L 187.90811 65.027047 
L 188.90811 65.048248 
L 189.90811 65.102549 
L 190.90811 65.130486 
L 191.90811 65.16021 
L 192.90811 65.185605 
L 193.90811 65.196805 
L 194.90811 65.206929 
L 195.90811 65.206725 
L 196.90811 65.197215 
L 197.90811 65.185562 
L 198.90811 65.154532 
L 199.90811 65.143364 
L 200.90811 65.113247 
L 201.90811 65.05347 
L 202.90811 65.016278 
L 203.90811 64.977182 
L 204.90811 64.934743 
L 205.90811 64.901978 
L 206.90811 64.834551 
L 207.90811 64.795425 
L 208.90811 64.752751 
L 209.90811 64.68217 
L 210.90811 64.645779 
L 211.90811 64.587376 
L 212.90811 64.476423 
L 213.90811 64.405765 
L 214.90811 64.292825 
L 215.90811 64.247052 
L 217.800088 64.185769 
" clip-path="url(#p2a1dc56208)" style="fill: none; stroke: #1f77b4; stroke-opacity: 0.5; stroke-width: 0.2; stroke-linecap: square"/>
   <path d="M 171.90811 170.522496 
L 172.90811 170.553933 
L 173.90811 170.590873 
L 174.90811 170.68862 
L 175.90811 170.721141 
L 176.90811 170.794766 
L 177.90811 170.833332 
L 178.90811 170.868745 
L 179.90811 170.926385 
L 180.90811 170.996771 
L 181.90811 171.048735 
L 182.90811 171.107825 
L 183.90811 171.196146 
L 184.90811 171.24229 
L 185.90811 171.284701 
L 186.90811 171.315194 
L 187.90811 171.341239 
L 188.90811 171.362439 
L 189.90811 171.41674 
L 190.90811 171.444677 
L 191.90811 171.474401 
L 192.90811 171.499796 
L 193.90811 171.510997 
L 194.90811 171.521121 
L 195.90811 171.520916 
L 196.90811 171.511406 
L 197.90811 171.499753 
L 198.90811 171.468723 
L 199.90811 171.457556 
L 200.90811 171.427438 
L 201.90811 171.367661 
L 202.90811 171.33047 
L 203.90811 171.291373 
L 204.90811 171.248934 
L 205.90811 171.216169 
L 206.90811 171.148742 
L 207.90811 171.109616 
L 208.90811 171.066942 
L 209.90811 170.996361 
L 210.90811 170.95997 
L 211.90811 170.901567 
L 212.90811 170.790615 
L 213.90811 170.719956 
L 214.90811 170.607016 
L 215.90811 170.561244 
L 217.800088 170.49996 
" clip-path="url(#p2a1dc56208)" style="fill: none; stroke: #1f77b4; stroke-opacity: 0.5; stroke-width: 0.2; stroke-linecap: square"/>
   <path d="M 217.800088 165.450919 
L 216.800088 165.419482 
L 215.800088 165.382542 
L 214.800088 165.284795 
L 213.800088 165.252274 
L 212.800088 165.178649 
L 211.800088 165.140084 
L 210.800088 165.10467 
L 209.800088 165.04703 
L 208.800088 164.976644 
L 207.800088 164.92468 
L 206.800088 164.86559 
L 205.800088 164.777269 
L 204.800088 164.731125 
L 203.800088 164.688714 
L 202.800088 164.658221 
L 201.800088 164.632176 
L 200.800088 164.610976 
L 199.800088 164.556675 
L 198.800088 164.528738 
L 197.800088 164.499014 
L 196.800088 164.473619 
L 195.800088 164.462419 
L 194.800088 164.452295 
L 193.800088 164.452499 
L 192.800088 164.462009 
L 191.800088 164.473662 
L 190.800088 164.504692 
L 189.800088 164.51586 
L 188.800088 164.545977 
L 187.800088 164.605754 
L 186.800088 164.642946 
L 185.800088 164.682042 
L 184.800088 164.724481 
L 183.800088 164.757246 
L 182.800088 164.824673 
L 181.800088 164.863799 
L 180.800088 164.906473 
L 179.800088 164.977054 
L 178.800088 165.013445 
L 177.800088 165.071848 
L 176.800088 165.182801 
L 175.800088 165.253459 
L 174.800088 165.366399 
L 173.800088 165.412172 
L 171.90811 165.473455 
" clip-path="url(#p2a1dc56208)" style="fill: none; stroke: #ff7f0e; stroke-opacity: 0.5; stroke-width: 0.2; stroke-linecap: square"/>
   <path d="M 217.800088 95.619837 
L 216.800088 95.5884 
L 215.800088 95.55146 
L 214.800088 95.453714 
L 213.800088 95.421192 
L 212.800088 95.347567 
L 211.800088 95.309002 
L 210.800088 95.273588 
L 209.800088 95.215949 
L 208.800088 95.145562 
L 207.800088 95.093598 
L 206.800088 95.034508 
L 205.800088 94.946187 
L 204.800088 94.900043 
L 203.800088 94.857632 
L 202.800088 94.82714 
L 201.800088 94.801095 
L 200.800088 94.779894 
L 199.800088 94.725593 
L 198.800088 94.697656 
L 197.800088 94.667932 
L 196.800088 94.642537 
L 195.800088 94.631337 
L 194.800088 94.621213 
L 193.800088 94.621417 
L 192.800088 94.630927 
L 191.800088 94.64258 
L 190.800088 94.67361 
L 189.800088 94.684778 
L 188.800088 94.714895 
L 187.800088 94.774672 
L 186.800088 94.811864 
L 185.800088 94.85096 
L 184.800088 94.893399 
L 183.800088 94.926164 
L 182.800088 94.993591 
L 181.800088 95.032717 
L 180.800088 95.075391 
L 179.800088 95.145972 
L 178.800088 95.182363 
L 177.800088 95.240766 
L 176.800088 95.351719 
L 175.800088 95.422377 
L 174.800088 95.535317 
L 173.800088 95.58109 
L 171.90811 95.642373 
" clip-path="url(#p2a1dc56208)" style="fill: none; stroke: #ff7f0e; stroke-opacity: 0.5; stroke-width: 0.2; stroke-linecap: square"/>
   <path d="M 217.800088 128.905031 
L 216.800088 128.873595 
L 215.800088 128.836654 
L 214.800088 128.738908 
L 213.800088 128.706386 
L 212.800088 128.632761 
L 211.800088 128.594196 
L 210.800088 128.558783 
L 209.800088 128.501143 
L 208.800088 128.430756 
L 207.800088 128.378792 
L 206.800088 128.319702 
L 205.800088 128.231381 
L 204.800088 128.185237 
L 203.800088 128.142826 
L 202.800088 128.112334 
L 201.800088 128.086289 
L 200.800088 128.065089 
L 199.800088 128.010787 
L 198.800088 127.98285 
L 197.800088 127.953126 
L 196.800088 127.927731 
L 195.800088 127.916531 
L 194.800088 127.906407 
L 193.800088 127.906611 
L 192.800088 127.916121 
L 191.800088 127.927775 
L 190.800088 127.958804 
L 189.800088 127.969972 
L 188.800088 128.000089 
L 187.800088 128.059866 
L 186.800088 128.097058 
L 185.800088 128.136154 
L 184.800088 128.178593 
L 183.800088 128.211359 
L 182.800088 128.278785 
L 181.800088 128.317911 
L 180.800088 128.360585 
L 179.800088 128.431166 
L 178.800088 128.467557 
L 177.800088 128.52596 
L 176.800088 128.636913 
L 175.800088 128.707571 
L 174.800088 128.820511 
L 173.800088 128.866284 
L 171.90811 128.927567 
" clip-path="url(#p2a1dc56208)" style="fill: none; stroke: #ff7f0e; stroke-opacity: 0.5; stroke-width: 0.2; stroke-linecap: square"/>
   <path d="M 217.800088 205.842583 
L 216.800088 205.811147 
L 215.800088 205.774207 
L 214.800088 205.67646 
L 213.800088 205.643938 
L 212.800088 205.570314 
L 211.800088 205.531748 
L 210.800088 205.496335 
L 209.800088 205.438695 
L 208.800088 205.368309 
L 207.800088 205.316345 
L 206.800088 205.257255 
L 205.800088 205.168934 
L 204.800088 205.12279 
L 203.800088 205.080379 
L 202.800088 205.049886 
L 201.800088 205.023841 
L 200.800088 205.002641 
L 199.800088 204.94834 
L 198.800088 204.920402 
L 197.800088 204.890678 
L 196.800088 204.865284 
L 195.800088 204.854083 
L 194.800088 204.843959 
L 193.800088 204.844164 
L 192.800088 204.853673 
L 191.800088 204.865327 
L 190.800088 204.896356 
L 189.800088 204.907524 
L 188.800088 204.937642 
L 187.800088 204.997419 
L 186.800088 205.03461 
L 185.800088 205.073706 
L 184.800088 205.116146 
L 183.800088 205.148911 
L 182.800088 205.216337 
L 181.800088 205.255463 
L 180.800088 205.298138 
L 179.800088 205.368719 
L 178.800088 205.405109 
L 177.800088 205.463513 
L 176.800088 205.574465 
L 175.800088 205.645123 
L 174.800088 205.758063 
L 173.800088 205.803836 
L 171.90811 205.865119 
" clip-path="url(#p2a1dc56208)" style="fill: none; stroke: #ff7f0e; stroke-opacity: 0.5; stroke-width: 0.2; stroke-linecap: square"/>
   <path d="M 217.800088 195.043631 
L 216.800088 195.012195 
L 215.800088 194.975255 
L 214.800088 194.877508 
L 213.800088 194.844986 
L 212.800088 194.771362 
L 211.800088 194.732796 
L 210.800088 194.697383 
L 209.800088 194.639743 
L 208.800088 194.569357 
L 207.800088 194.517393 
L 206.800088 194.458303 
L 205.800088 194.369982 
L 204.800088 194.323838 
L 203.800088 194.281427 
L 202.800088 194.250934 
L 201.800088 194.224889 
L 200.800088 194.203689 
L 199.800088 194.149388 
L 198.800088 194.12145 
L 197.800088 194.091726 
L 196.800088 194.066332 
L 195.800088 194.055131 
L 194.800088 194.045007 
L 193.800088 194.045212 
L 192.800088 194.054721 
L 191.800088 194.066375 
L 190.800088 194.097404 
L 189.800088 194.108572 
L 188.800088 194.13869 
L 187.800088 194.198467 
L 186.800088 194.235658 
L 185.800088 194.274754 
L 184.800088 194.317194 
L 183.800088 194.349959 
L 182.800088 194.417385 
L 181.800088 194.456511 
L 180.800088 194.499186 
L 179.800088 194.569767 
L 178.800088 194.606157 
L 177.800088 194.664561 
L 176.800088 194.775513 
L 175.800088 194.846171 
L 174.800088 194.959111 
L 173.800088 195.004884 
L 171.90811 195.066167 
" clip-path="url(#p2a1dc56208)" style="fill: none; stroke: #ff7f0e; stroke-opacity: 0.5; stroke-width: 0.2; stroke-linecap: square"/>
   <path d="M 217.800088 129.301917 
L 216.800088 129.270481 
L 215.800088 129.233541 
L 214.800088 129.135794 
L 213.800088 129.103272 
L 212.800088 129.029648 
L 211.800088 128.991082 
L 210.800088 128.955669 
L 209.800088 128.898029 
L 208.800088 128.827643 
L 207.800088 128.775679 
L 206.800088 128.716589 
L 205.800088 128.628268 
L 204.800088 128.582124 
L 203.800088 128.539713 
L 202.800088 128.50922 
L 201.800088 128.483175 
L 200.800088 128.461975 
L 199.800088 128.407674 
L 198.800088 128.379736 
L 197.800088 128.350012 
L 196.800088 128.324618 
L 195.800088 128.313417 
L 194.800088 128.303293 
L 193.800088 128.303498 
L 192.800088 128.313007 
L 191.800088 128.324661 
L 190.800088 128.35569 
L 189.800088 128.366858 
L 188.800088 128.396976 
L 187.800088 128.456753 
L 186.800088 128.493944 
L 185.800088 128.53304 
L 184.800088 128.57548 
L 183.800088 128.608245 
L 182.800088 128.675671 
L 181.800088 128.714797 
L 180.800088 128.757472 
L 179.800088 128.828053 
L 178.800088 128.864443 
L 177.800088 128.922847 
L 176.800088 129.033799 
L 175.800088 129.104457 
L 174.800088 129.217397 
L 173.800088 129.26317 
L 171.90811 129.324453 
" clip-path="url(#p2a1dc56208)" style="fill: none; stroke: #ff7f0e; stroke-opacity: 0.5; stroke-width: 0.2; stroke-linecap: square"/>
   <path d="M 217.800088 145.59818 
L 216.800088 145.566744 
L 215.800088 145.529803 
L 214.800088 145.432057 
L 213.800088 145.399535 
L 212.800088 145.325911 
L 211.800088 145.287345 
L 210.800088 145.251932 
L 209.800088 145.194292 
L 208.800088 145.123906 
L 207.800088 145.071942 
L 206.800088 145.012852 
L 205.800088 144.924531 
L 204.800088 144.878386 
L 203.800088 144.835976 
L 202.800088 144.805483 
L 201.800088 144.779438 
L 200.800088 144.758238 
L 199.800088 144.703937 
L 198.800088 144.675999 
L 197.800088 144.646275 
L 196.800088 144.62088 
L 195.800088 144.60968 
L 194.800088 144.599556 
L 193.800088 144.59976 
L 192.800088 144.60927 
L 191.800088 144.620924 
L 190.800088 144.651953 
L 189.800088 144.663121 
L 188.800088 144.693239 
L 187.800088 144.753015 
L 186.800088 144.790207 
L 185.800088 144.829303 
L 184.800088 144.871743 
L 183.800088 144.904508 
L 182.800088 144.971934 
L 181.800088 145.01106 
L 180.800088 145.053735 
L 179.800088 145.124315 
L 178.800088 145.160706 
L 177.800088 145.219109 
L 176.800088 145.330062 
L 175.800088 145.40072 
L 174.800088 145.51366 
L 173.800088 145.559433 
L 171.90811 145.620716 
" clip-path="url(#p2a1dc56208)" style="fill: none; stroke: #ff7f0e; stroke-opacity: 0.5; stroke-width: 0.2; stroke-linecap: square"/>
   <path d="M 217.800088 82.917988 
L 216.800088 82.886552 
L 215.800088 82.849612 
L 214.800088 82.751865 
L 213.800088 82.719343 
L 212.800088 82.645719 
L 211.800088 82.607153 
L 210.800088 82.57174 
L 209.800088 82.5141 
L 208.800088 82.443714 
L 207.800088 82.39175 
L 206.800088 82.33266 
L 205.800088 82.244339 
L 204.800088 82.198195 
L 203.800088 82.155784 
L 202.800088 82.125291 
L 201.800088 82.099246 
L 200.800088 82.078046 
L 199.800088 82.023745 
L 198.800088 81.995807 
L 197.800088 81.966083 
L 196.800088 81.940689 
L 195.800088 81.929488 
L 194.800088 81.919364 
L 193.800088 81.919569 
L 192.800088 81.929078 
L 191.800088 81.940732 
L 190.800088 81.971761 
L 189.800088 81.982929 
L 188.800088 82.013047 
L 187.800088 82.072824 
L 186.800088 82.110015 
L 185.800088 82.149111 
L 184.800088 82.191551 
L 183.800088 82.224316 
L 182.800088 82.291742 
L 181.800088 82.330868 
L 180.800088 82.373543 
L 179.800088 82.444124 
L 178.800088 82.480514 
L 177.800088 82.538918 
L 176.800088 82.64987 
L 175.800088 82.720528 
L 174.800088 82.833468 
L 173.800088 82.879241 
L 171.90811 82.940524 
" clip-path="url(#p2a1dc56208)" style="fill: none; stroke: #ff7f0e; stroke-opacity: 0.5; stroke-width: 0.2; stroke-linecap: square"/>
   <path d="M 217.800088 166.507807 
L 216.800088 166.476371 
L 215.800088 166.439431 
L 214.800088 166.341684 
L 213.800088 166.309162 
L 212.800088 166.235538 
L 211.800088 166.196972 
L 210.800088 166.161559 
L 209.800088 166.103919 
L 208.800088 166.033533 
L 207.800088 165.981569 
L 206.800088 165.922479 
L 205.800088 165.834158 
L 204.800088 165.788014 
L 203.800088 165.745603 
L 202.800088 165.71511 
L 201.800088 165.689065 
L 200.800088 165.667865 
L 199.800088 165.613564 
L 198.800088 165.585626 
L 197.800088 165.555902 
L 196.800088 165.530508 
L 195.800088 165.519307 
L 194.800088 165.509183 
L 193.800088 165.509388 
L 192.800088 165.518897 
L 191.800088 165.530551 
L 190.800088 165.56158 
L 189.800088 165.572748 
L 188.800088 165.602866 
L 187.800088 165.662643 
L 186.800088 165.699834 
L 185.800088 165.73893 
L 184.800088 165.78137 
L 183.800088 165.814135 
L 182.800088 165.881561 
L 181.800088 165.920687 
L 180.800088 165.963362 
L 179.800088 166.033943 
L 178.800088 166.070333 
L 177.800088 166.128737 
L 176.800088 166.239689 
L 175.800088 166.310347 
L 174.800088 166.423287 
L 173.800088 166.46906 
L 171.90811 166.530343 
" clip-path="url(#p2a1dc56208)" style="fill: none; stroke: #ff7f0e; stroke-opacity: 0.5; stroke-width: 0.2; stroke-linecap: square"/>
   <path d="M 217.800088 215.543656 
L 216.800088 215.51222 
L 215.800088 215.47528 
L 214.800088 215.377533 
L 213.800088 215.345012 
L 212.800088 215.271387 
L 211.800088 215.232821 
L 210.800088 215.197408 
L 209.800088 215.139768 
L 208.800088 215.069382 
L 207.800088 215.017418 
L 206.800088 214.958328 
L 205.800088 214.870007 
L 204.800088 214.823863 
L 203.800088 214.781452 
L 202.800088 214.750959 
L 201.800088 214.724914 
L 200.800088 214.703714 
L 199.800088 214.649413 
L 198.800088 214.621475 
L 197.800088 214.591751 
L 196.800088 214.566357 
L 195.800088 214.555156 
L 194.800088 214.545032 
L 193.800088 214.545237 
L 192.800088 214.554747 
L 191.800088 214.5664 
L 190.800088 214.597429 
L 189.800088 214.608597 
L 188.800088 214.638715 
L 187.800088 214.698492 
L 186.800088 214.735683 
L 185.800088 214.774779 
L 184.800088 214.817219 
L 183.800088 214.849984 
L 182.800088 214.917411 
L 181.800088 214.956536 
L 180.800088 214.999211 
L 179.800088 215.069792 
L 178.800088 215.106182 
L 177.800088 215.164586 
L 176.800088 215.275538 
L 175.800088 215.346197 
L 174.800088 215.459136 
L 173.800088 215.504909 
L 171.90811 215.566193 
" clip-path="url(#p2a1dc56208)" style="fill: none; stroke: #ff7f0e; stroke-opacity: 0.5; stroke-width: 0.2; stroke-linecap: square"/>
   <path d="M 326.765537 225.496193 
L 327.765537 225.52763 
L 328.765537 225.56457 
L 329.765537 225.662317 
L 330.765537 225.694838 
L 331.765537 225.768463 
L 332.765537 225.807029 
L 333.765537 225.842442 
L 334.765537 225.900082 
L 335.765537 225.970468 
L 336.765537 226.022432 
L 337.765537 226.081522 
L 338.765537 226.169843 
L 339.765537 226.215987 
L 340.765537 226.258398 
L 341.765537 226.288891 
L 342.765537 226.314936 
L 343.765537 226.336136 
L 344.765537 226.390437 
L 345.765537 226.418374 
L 346.765537 226.448098 
L 347.765537 226.473493 
L 348.765537 226.484694 
L 349.765537 226.494818 
L 350.765537 226.494613 
L 351.765537 226.485103 
L 352.765537 226.47345 
L 353.765537 226.442421 
L 354.765537 226.431253 
L 355.765537 226.401135 
L 356.765537 226.341358 
L 357.765537 226.304167 
L 358.765537 226.265071 
L 359.765537 226.222631 
L 360.765537 226.189866 
L 361.765537 226.122439 
L 362.765537 226.083313 
L 363.765537 226.040639 
L 364.765537 225.970058 
L 365.765537 225.933667 
L 366.765537 225.875264 
L 367.765537 225.764312 
L 368.765537 225.693653 
L 369.765537 225.580713 
L 370.765537 225.534941 
L 372.657515 225.473657 
" clip-path="url(#p2a1dc56208)" style="fill: none; stroke: #ff7f0e; stroke-opacity: 0.5; stroke-width: 0.2; stroke-linecap: square"/>
   <path d="M 326.765537 232.276763 
L 327.765537 232.308199 
L 328.765537 232.34514 
L 329.765537 232.442886 
L 330.765537 232.475408 
L 331.765537 232.549032 
L 332.765537 232.587598 
L 333.765537 232.623011 
L 334.765537 232.680651 
L 335.765537 232.751037 
L 336.765537 232.803001 
L 337.765537 232.862091 
L 338.765537 232.950412 
L 339.765537 232.996556 
L 340.765537 233.038967 
L 341.765537 233.06946 
L 342.765537 233.095505 
L 343.765537 233.116705 
L 344.765537 233.171006 
L 345.765537 233.198944 
L 346.765537 233.228668 
L 347.765537 233.254063 
L 348.765537 233.265263 
L 349.765537 233.275387 
L 350.765537 233.275183 
L 351.765537 233.265673 
L 352.765537 233.254019 
L 353.765537 233.22299 
L 354.765537 233.211822 
L 355.765537 233.181704 
L 356.765537 233.121927 
L 357.765537 233.084736 
L 358.765537 233.04564 
L 359.765537 233.0032 
L 360.765537 232.970435 
L 361.765537 232.903009 
L 362.765537 232.863883 
L 363.765537 232.821208 
L 364.765537 232.750628 
L 365.765537 232.714237 
L 366.765537 232.655834 
L 367.765537 232.544881 
L 368.765537 232.474223 
L 369.765537 232.361283 
L 370.765537 232.31551 
L 372.657515 232.254227 
" clip-path="url(#p2a1dc56208)" style="fill: none; stroke: #ff7f0e; stroke-opacity: 0.5; stroke-width: 0.2; stroke-linecap: square"/>
   <path d="M 326.765537 124.978635 
L 327.765537 125.010072 
L 328.765537 125.047012 
L 329.765537 125.144759 
L 330.765537 125.17728 
L 331.765537 125.250905 
L 332.765537 125.28947 
L 333.765537 125.324884 
L 334.765537 125.382524 
L 335.765537 125.45291 
L 336.765537 125.504874 
L 337.765537 125.563964 
L 338.765537 125.652285 
L 339.765537 125.698429 
L 340.765537 125.74084 
L 341.765537 125.771333 
L 342.765537 125.797378 
L 343.765537 125.818578 
L 344.765537 125.872879 
L 345.765537 125.900816 
L 346.765537 125.93054 
L 347.765537 125.955935 
L 348.765537 125.967135 
L 349.765537 125.977259 
L 350.765537 125.977055 
L 351.765537 125.967545 
L 352.765537 125.955892 
L 353.765537 125.924862 
L 354.765537 125.913694 
L 355.765537 125.883577 
L 356.765537 125.8238 
L 357.765537 125.786608 
L 358.765537 125.747512 
L 359.765537 125.705073 
L 360.765537 125.672308 
L 361.765537 125.604881 
L 362.765537 125.565755 
L 363.765537 125.523081 
L 364.765537 125.4525 
L 365.765537 125.416109 
L 366.765537 125.357706 
L 367.765537 125.246753 
L 368.765537 125.176095 
L 369.765537 125.063155 
L 370.765537 125.017382 
L 372.657515 124.956099 
" clip-path="url(#p2a1dc56208)" style="fill: none; stroke: #ff7f0e; stroke-opacity: 0.5; stroke-width: 0.2; stroke-linecap: square"/>
   <path d="M 326.765537 25.847735 
L 327.765537 25.879171 
L 328.765537 25.916112 
L 329.765537 26.013858 
L 330.765537 26.04638 
L 331.765537 26.120005 
L 332.765537 26.15857 
L 333.765537 26.193983 
L 334.765537 26.251623 
L 335.765537 26.322009 
L 336.765537 26.373974 
L 337.765537 26.433063 
L 338.765537 26.521384 
L 339.765537 26.567529 
L 340.765537 26.60994 
L 341.765537 26.640432 
L 342.765537 26.666477 
L 343.765537 26.687677 
L 344.765537 26.741978 
L 345.765537 26.769916 
L 346.765537 26.79964 
L 347.765537 26.825035 
L 348.765537 26.836235 
L 349.765537 26.846359 
L 350.765537 26.846155 
L 351.765537 26.836645 
L 352.765537 26.824991 
L 353.765537 26.793962 
L 354.765537 26.782794 
L 355.765537 26.752677 
L 356.765537 26.6929 
L 357.765537 26.655708 
L 358.765537 26.616612 
L 359.765537 26.574172 
L 360.765537 26.541407 
L 361.765537 26.473981 
L 362.765537 26.434855 
L 363.765537 26.39218 
L 364.765537 26.3216 
L 365.765537 26.285209 
L 366.765537 26.226806 
L 367.765537 26.115853 
L 368.765537 26.045195 
L 369.765537 25.932255 
L 370.765537 25.886482 
L 372.657515 25.825199 
" clip-path="url(#p2a1dc56208)" style="fill: none; stroke: #ff7f0e; stroke-opacity: 0.5; stroke-width: 0.2; stroke-linecap: square"/>
   <path d="M 326.765537 155.979204 
L 327.765537 156.01064 
L 328.765537 156.047581 
L 329.765537 156.145327 
L 330.765537 156.177849 
L 331.765537 156.251473 
L 332.765537 156.290039 
L 333.765537 156.325452 
L 334.765537 156.383092 
L 335.765537 156.453478 
L 336.765537 156.505443 
L 337.765537 156.564532 
L 338.765537 156.652853 
L 339.765537 156.698998 
L 340.765537 156.741408 
L 341.765537 156.771901 
L 342.765537 156.797946 
L 343.765537 156.819146 
L 344.765537 156.873447 
L 345.765537 156.901385 
L 346.765537 156.931109 
L 347.765537 156.956504 
L 348.765537 156.967704 
L 349.765537 156.977828 
L 350.765537 156.977624 
L 351.765537 156.968114 
L 352.765537 156.95646 
L 353.765537 156.925431 
L 354.765537 156.914263 
L 355.765537 156.884145 
L 356.765537 156.824369 
L 357.765537 156.787177 
L 358.765537 156.748081 
L 359.765537 156.705641 
L 360.765537 156.672876 
L 361.765537 156.60545 
L 362.765537 156.566324 
L 363.765537 156.523649 
L 364.765537 156.453069 
L 365.765537 156.416678 
L 366.765537 156.358275 
L 367.765537 156.247322 
L 368.765537 156.176664 
L 369.765537 156.063724 
L 370.765537 156.017951 
L 372.657515 155.956668 
" clip-path="url(#p2a1dc56208)" style="fill: none; stroke: #ff7f0e; stroke-opacity: 0.5; stroke-width: 0.2; stroke-linecap: square"/>
   <path d="M 326.765537 73.497067 
L 327.765537 73.528503 
L 328.765537 73.565443 
L 329.765537 73.66319 
L 330.765537 73.695712 
L 331.765537 73.769336 
L 332.765537 73.807902 
L 333.765537 73.843315 
L 334.765537 73.900955 
L 335.765537 73.971341 
L 336.765537 74.023305 
L 337.765537 74.082395 
L 338.765537 74.170716 
L 339.765537 74.21686 
L 340.765537 74.259271 
L 341.765537 74.289764 
L 342.765537 74.315809 
L 343.765537 74.337009 
L 344.765537 74.39131 
L 345.765537 74.419248 
L 346.765537 74.448972 
L 347.765537 74.474366 
L 348.765537 74.485567 
L 349.765537 74.495691 
L 350.765537 74.495486 
L 351.765537 74.485977 
L 352.765537 74.474323 
L 353.765537 74.443294 
L 354.765537 74.432126 
L 355.765537 74.402008 
L 356.765537 74.342231 
L 357.765537 74.30504 
L 358.765537 74.265944 
L 359.765537 74.223504 
L 360.765537 74.190739 
L 361.765537 74.123313 
L 362.765537 74.084187 
L 363.765537 74.041512 
L 364.765537 73.970931 
L 365.765537 73.934541 
L 366.765537 73.876137 
L 367.765537 73.765185 
L 368.765537 73.694527 
L 369.765537 73.581587 
L 370.765537 73.535814 
L 372.657515 73.474531 
" clip-path="url(#p2a1dc56208)" style="fill: none; stroke: #ff7f0e; stroke-opacity: 0.5; stroke-width: 0.2; stroke-linecap: square"/>
   <path d="M 326.765537 62.177997 
L 327.765537 62.209433 
L 328.765537 62.246374 
L 329.765537 62.34412 
L 330.765537 62.376642 
L 331.765537 62.450266 
L 332.765537 62.488832 
L 333.765537 62.524245 
L 334.765537 62.581885 
L 335.765537 62.652271 
L 336.765537 62.704236 
L 337.765537 62.763325 
L 338.765537 62.851646 
L 339.765537 62.897791 
L 340.765537 62.940202 
L 341.765537 62.970694 
L 342.765537 62.996739 
L 343.765537 63.017939 
L 344.765537 63.07224 
L 345.765537 63.100178 
L 346.765537 63.129902 
L 347.765537 63.155297 
L 348.765537 63.166497 
L 349.765537 63.176621 
L 350.765537 63.176417 
L 351.765537 63.166907 
L 352.765537 63.155253 
L 353.765537 63.124224 
L 354.765537 63.113056 
L 355.765537 63.082939 
L 356.765537 63.023162 
L 357.765537 62.98597 
L 358.765537 62.946874 
L 359.765537 62.904434 
L 360.765537 62.871669 
L 361.765537 62.804243 
L 362.765537 62.765117 
L 363.765537 62.722442 
L 364.765537 62.651862 
L 365.765537 62.615471 
L 366.765537 62.557068 
L 367.765537 62.446115 
L 368.765537 62.375457 
L 369.765537 62.262517 
L 370.765537 62.216744 
L 372.657515 62.155461 
" clip-path="url(#p2a1dc56208)" style="fill: none; stroke: #ff7f0e; stroke-opacity: 0.5; stroke-width: 0.2; stroke-linecap: square"/>
   <path d="M 326.765537 113.147522 
L 327.765537 113.178959 
L 328.765537 113.215899 
L 329.765537 113.313646 
L 330.765537 113.346167 
L 331.765537 113.419792 
L 332.765537 113.458358 
L 333.765537 113.493771 
L 334.765537 113.551411 
L 335.765537 113.621797 
L 336.765537 113.673761 
L 337.765537 113.732851 
L 338.765537 113.821172 
L 339.765537 113.867316 
L 340.765537 113.909727 
L 341.765537 113.94022 
L 342.765537 113.966265 
L 343.765537 113.987465 
L 344.765537 114.041766 
L 345.765537 114.069703 
L 346.765537 114.099427 
L 347.765537 114.124822 
L 348.765537 114.136023 
L 349.765537 114.146147 
L 350.765537 114.145942 
L 351.765537 114.136432 
L 352.765537 114.124779 
L 353.765537 114.09375 
L 354.765537 114.082582 
L 355.765537 114.052464 
L 356.765537 113.992687 
L 357.765537 113.955496 
L 358.765537 113.9164 
L 359.765537 113.87396 
L 360.765537 113.841195 
L 361.765537 113.773768 
L 362.765537 113.734642 
L 363.765537 113.691968 
L 364.765537 113.621387 
L 365.765537 113.584996 
L 366.765537 113.526593 
L 367.765537 113.415641 
L 368.765537 113.344982 
L 369.765537 113.232042 
L 370.765537 113.18627 
L 372.657515 113.124986 
" clip-path="url(#p2a1dc56208)" style="fill: none; stroke: #ff7f0e; stroke-opacity: 0.5; stroke-width: 0.2; stroke-linecap: square"/>
   <path d="M 326.765537 39.347781 
L 327.765537 39.379218 
L 328.765537 39.416158 
L 329.765537 39.513905 
L 330.765537 39.546426 
L 331.765537 39.620051 
L 332.765537 39.658617 
L 333.765537 39.69403 
L 334.765537 39.75167 
L 335.765537 39.822056 
L 336.765537 39.87402 
L 337.765537 39.93311 
L 338.765537 40.021431 
L 339.765537 40.067575 
L 340.765537 40.109986 
L 341.765537 40.140479 
L 342.765537 40.166524 
L 343.765537 40.187724 
L 344.765537 40.242025 
L 345.765537 40.269962 
L 346.765537 40.299686 
L 347.765537 40.325081 
L 348.765537 40.336282 
L 349.765537 40.346406 
L 350.765537 40.346201 
L 351.765537 40.336691 
L 352.765537 40.325038 
L 353.765537 40.294009 
L 354.765537 40.282841 
L 355.765537 40.252723 
L 356.765537 40.192946 
L 357.765537 40.155755 
L 358.765537 40.116659 
L 359.765537 40.074219 
L 360.765537 40.041454 
L 361.765537 39.974027 
L 362.765537 39.934901 
L 363.765537 39.892227 
L 364.765537 39.821646 
L 365.765537 39.785255 
L 366.765537 39.726852 
L 367.765537 39.6159 
L 368.765537 39.545241 
L 369.765537 39.432302 
L 370.765537 39.386529 
L 372.657515 39.325245 
" clip-path="url(#p2a1dc56208)" style="fill: none; stroke: #ff7f0e; stroke-opacity: 0.5; stroke-width: 0.2; stroke-linecap: square"/>
   <path d="M 326.765537 64.886475 
L 327.765537 64.917912 
L 328.765537 64.954852 
L 329.765537 65.052599 
L 330.765537 65.08512 
L 331.765537 65.158745 
L 332.765537 65.197311 
L 333.765537 65.232724 
L 334.765537 65.290364 
L 335.765537 65.36075 
L 336.765537 65.412714 
L 337.765537 65.471804 
L 338.765537 65.560125 
L 339.765537 65.606269 
L 340.765537 65.64868 
L 341.765537 65.679173 
L 342.765537 65.705218 
L 343.765537 65.726418 
L 344.765537 65.780719 
L 345.765537 65.808656 
L 346.765537 65.83838 
L 347.765537 65.863775 
L 348.765537 65.874976 
L 349.765537 65.8851 
L 350.765537 65.884895 
L 351.765537 65.875385 
L 352.765537 65.863732 
L 353.765537 65.832702 
L 354.765537 65.821535 
L 355.765537 65.791417 
L 356.765537 65.73164 
L 357.765537 65.694449 
L 358.765537 65.655352 
L 359.765537 65.612913 
L 360.765537 65.580148 
L 361.765537 65.512721 
L 362.765537 65.473595 
L 363.765537 65.430921 
L 364.765537 65.36034 
L 365.765537 65.323949 
L 366.765537 65.265546 
L 367.765537 65.154594 
L 368.765537 65.083935 
L 369.765537 64.970995 
L 370.765537 64.925223 
L 372.657515 64.863939 
" clip-path="url(#p2a1dc56208)" style="fill: none; stroke: #ff7f0e; stroke-opacity: 0.5; stroke-width: 0.2; stroke-linecap: square"/>
   <path d="M 372.657515 27.225653 
L 371.657515 27.194216 
L 370.657515 27.157276 
L 369.657515 27.059529 
L 368.657515 27.027008 
L 367.657515 26.953383 
L 366.657515 26.914817 
L 365.657515 26.879404 
L 364.657515 26.821764 
L 363.657515 26.751378 
L 362.657515 26.699414 
L 361.657515 26.640324 
L 360.657515 26.552003 
L 359.657515 26.505859 
L 358.657515 26.463448 
L 357.657515 26.432955 
L 356.657515 26.40691 
L 355.657515 26.38571 
L 354.657515 26.331409 
L 353.657515 26.303471 
L 352.657515 26.273748 
L 351.657515 26.248353 
L 350.657515 26.237152 
L 349.657515 26.227028 
L 348.657515 26.227233 
L 347.657515 26.236743 
L 346.657515 26.248396 
L 345.657515 26.279425 
L 344.657515 26.290593 
L 343.657515 26.320711 
L 342.657515 26.380488 
L 341.657515 26.417679 
L 340.657515 26.456775 
L 339.657515 26.499215 
L 338.657515 26.53198 
L 337.657515 26.599407 
L 336.657515 26.638533 
L 335.657515 26.681207 
L 334.657515 26.751788 
L 333.657515 26.788179 
L 332.657515 26.846582 
L 331.657515 26.957534 
L 330.657515 27.028193 
L 329.657515 27.141132 
L 328.657515 27.186905 
L 326.765537 27.248189 
" clip-path="url(#p2a1dc56208)" style="fill: none; stroke: #2ca02c; stroke-opacity: 0.5; stroke-width: 0.2; stroke-linecap: square"/>
   <path d="M 372.657515 215.846145 
L 371.657515 215.814708 
L 370.657515 215.777768 
L 369.657515 215.680022 
L 368.657515 215.6475 
L 367.657515 215.573875 
L 366.657515 215.53531 
L 365.657515 215.499896 
L 364.657515 215.442257 
L 363.657515 215.37187 
L 362.657515 215.319906 
L 361.657515 215.260816 
L 360.657515 215.172495 
L 359.657515 215.126351 
L 358.657515 215.08394 
L 357.657515 215.053448 
L 356.657515 215.027403 
L 355.657515 215.006202 
L 354.657515 214.951901 
L 353.657515 214.923964 
L 352.657515 214.89424 
L 351.657515 214.868845 
L 350.657515 214.857645 
L 349.657515 214.847521 
L 348.657515 214.847725 
L 347.657515 214.857235 
L 346.657515 214.868888 
L 345.657515 214.899918 
L 344.657515 214.911086 
L 343.657515 214.941203 
L 342.657515 215.00098 
L 341.657515 215.038172 
L 340.657515 215.077268 
L 339.657515 215.119707 
L 338.657515 215.152472 
L 337.657515 215.219899 
L 336.657515 215.259025 
L 335.657515 215.301699 
L 334.657515 215.37228 
L 333.657515 215.408671 
L 332.657515 215.467074 
L 331.657515 215.578027 
L 330.657515 215.648685 
L 329.657515 215.761625 
L 328.657515 215.807398 
L 326.765537 215.868681 
" clip-path="url(#p2a1dc56208)" style="fill: none; stroke: #2ca02c; stroke-opacity: 0.5; stroke-width: 0.2; stroke-linecap: square"/>
   <path d="M 372.657515 141.611861 
L 371.657515 141.580425 
L 370.657515 141.543485 
L 369.657515 141.445738 
L 368.657515 141.413217 
L 367.657515 141.339592 
L 366.657515 141.301026 
L 365.657515 141.265613 
L 364.657515 141.207973 
L 363.657515 141.137587 
L 362.657515 141.085623 
L 361.657515 141.026533 
L 360.657515 140.938212 
L 359.657515 140.892068 
L 358.657515 140.849657 
L 357.657515 140.819164 
L 356.657515 140.793119 
L 355.657515 140.771919 
L 354.657515 140.717618 
L 353.657515 140.68968 
L 352.657515 140.659956 
L 351.657515 140.634562 
L 350.657515 140.623361 
L 349.657515 140.613237 
L 348.657515 140.613442 
L 347.657515 140.622952 
L 346.657515 140.634605 
L 345.657515 140.665634 
L 344.657515 140.676802 
L 343.657515 140.70692 
L 342.657515 140.766697 
L 341.657515 140.803888 
L 340.657515 140.842984 
L 339.657515 140.885424 
L 338.657515 140.918189 
L 337.657515 140.985616 
L 336.657515 141.024742 
L 335.657515 141.067416 
L 334.657515 141.137997 
L 333.657515 141.174388 
L 332.657515 141.232791 
L 331.657515 141.343743 
L 330.657515 141.414402 
L 329.657515 141.527341 
L 328.657515 141.573114 
L 326.765537 141.634398 
" clip-path="url(#p2a1dc56208)" style="fill: none; stroke: #2ca02c; stroke-opacity: 0.5; stroke-width: 0.2; stroke-linecap: square"/>
   <path d="M 372.657515 27.112758 
L 371.657515 27.081322 
L 370.657515 27.044382 
L 369.657515 26.946635 
L 368.657515 26.914114 
L 367.657515 26.840489 
L 366.657515 26.801923 
L 365.657515 26.76651 
L 364.657515 26.70887 
L 363.657515 26.638484 
L 362.657515 26.58652 
L 361.657515 26.52743 
L 360.657515 26.439109 
L 359.657515 26.392965 
L 358.657515 26.350554 
L 357.657515 26.320061 
L 356.657515 26.294016 
L 355.657515 26.272816 
L 354.657515 26.218515 
L 353.657515 26.190577 
L 352.657515 26.160853 
L 351.657515 26.135459 
L 350.657515 26.124258 
L 349.657515 26.114134 
L 348.657515 26.114339 
L 347.657515 26.123848 
L 346.657515 26.135502 
L 345.657515 26.166531 
L 344.657515 26.177699 
L 343.657515 26.207817 
L 342.657515 26.267594 
L 341.657515 26.304785 
L 340.657515 26.343881 
L 339.657515 26.386321 
L 338.657515 26.419086 
L 337.657515 26.486513 
L 336.657515 26.525638 
L 335.657515 26.568313 
L 334.657515 26.638894 
L 333.657515 26.675284 
L 332.657515 26.733688 
L 331.657515 26.84464 
L 330.657515 26.915299 
L 329.657515 27.028238 
L 328.657515 27.074011 
L 326.765537 27.135294 
" clip-path="url(#p2a1dc56208)" style="fill: none; stroke: #2ca02c; stroke-opacity: 0.5; stroke-width: 0.2; stroke-linecap: square"/>
   <path d="M 372.657515 40.892532 
L 371.657515 40.861095 
L 370.657515 40.824155 
L 369.657515 40.726409 
L 368.657515 40.693887 
L 367.657515 40.620262 
L 366.657515 40.581697 
L 365.657515 40.546284 
L 364.657515 40.488644 
L 363.657515 40.418257 
L 362.657515 40.366293 
L 361.657515 40.307203 
L 360.657515 40.218882 
L 359.657515 40.172738 
L 358.657515 40.130327 
L 357.657515 40.099835 
L 356.657515 40.07379 
L 355.657515 40.052589 
L 354.657515 39.998288 
L 353.657515 39.970351 
L 352.657515 39.940627 
L 351.657515 39.915232 
L 350.657515 39.904032 
L 349.657515 39.893908 
L 348.657515 39.894112 
L 347.657515 39.903622 
L 346.657515 39.915275 
L 345.657515 39.946305 
L 344.657515 39.957473 
L 343.657515 39.98759 
L 342.657515 40.047367 
L 341.657515 40.084559 
L 340.657515 40.123655 
L 339.657515 40.166094 
L 338.657515 40.19886 
L 337.657515 40.266286 
L 336.657515 40.305412 
L 335.657515 40.348086 
L 334.657515 40.418667 
L 333.657515 40.455058 
L 332.657515 40.513461 
L 331.657515 40.624414 
L 330.657515 40.695072 
L 329.657515 40.808012 
L 328.657515 40.853785 
L 326.765537 40.915068 
" clip-path="url(#p2a1dc56208)" style="fill: none; stroke: #2ca02c; stroke-opacity: 0.5; stroke-width: 0.2; stroke-linecap: square"/>
   <path d="M 372.657515 128.134166 
L 371.657515 128.10273 
L 370.657515 128.06579 
L 369.657515 127.968043 
L 368.657515 127.935521 
L 367.657515 127.861897 
L 366.657515 127.823331 
L 365.657515 127.787918 
L 364.657515 127.730278 
L 363.657515 127.659892 
L 362.657515 127.607928 
L 361.657515 127.548838 
L 360.657515 127.460517 
L 359.657515 127.414373 
L 358.657515 127.371962 
L 357.657515 127.341469 
L 356.657515 127.315424 
L 355.657515 127.294224 
L 354.657515 127.239923 
L 353.657515 127.211985 
L 352.657515 127.182261 
L 351.657515 127.156867 
L 350.657515 127.145666 
L 349.657515 127.135542 
L 348.657515 127.135746 
L 347.657515 127.145256 
L 346.657515 127.15691 
L 345.657515 127.187939 
L 344.657515 127.199107 
L 343.657515 127.229225 
L 342.657515 127.289002 
L 341.657515 127.326193 
L 340.657515 127.365289 
L 339.657515 127.407729 
L 338.657515 127.440494 
L 337.657515 127.50792 
L 336.657515 127.547046 
L 335.657515 127.589721 
L 334.657515 127.660301 
L 333.657515 127.696692 
L 332.657515 127.755095 
L 331.657515 127.866048 
L 330.657515 127.936706 
L 329.657515 128.049646 
L 328.657515 128.095419 
L 326.765537 128.156702 
" clip-path="url(#p2a1dc56208)" style="fill: none; stroke: #2ca02c; stroke-opacity: 0.5; stroke-width: 0.2; stroke-linecap: square"/>
   <path d="M 372.657515 219.943148 
L 371.657515 219.911711 
L 370.657515 219.874771 
L 369.657515 219.777024 
L 368.657515 219.744503 
L 367.657515 219.670878 
L 366.657515 219.632312 
L 365.657515 219.596899 
L 364.657515 219.539259 
L 363.657515 219.468873 
L 362.657515 219.416909 
L 361.657515 219.357819 
L 360.657515 219.269498 
L 359.657515 219.223354 
L 358.657515 219.180943 
L 357.657515 219.15045 
L 356.657515 219.124405 
L 355.657515 219.103205 
L 354.657515 219.048904 
L 353.657515 219.020967 
L 352.657515 218.991243 
L 351.657515 218.965848 
L 350.657515 218.954647 
L 349.657515 218.944523 
L 348.657515 218.944728 
L 347.657515 218.954238 
L 346.657515 218.965891 
L 345.657515 218.99692 
L 344.657515 219.008088 
L 343.657515 219.038206 
L 342.657515 219.097983 
L 341.657515 219.135174 
L 340.657515 219.17427 
L 339.657515 219.21671 
L 338.657515 219.249475 
L 337.657515 219.316902 
L 336.657515 219.356028 
L 335.657515 219.398702 
L 334.657515 219.469283 
L 333.657515 219.505674 
L 332.657515 219.564077 
L 331.657515 219.675029 
L 330.657515 219.745688 
L 329.657515 219.858628 
L 328.657515 219.9044 
L 326.765537 219.965684 
" clip-path="url(#p2a1dc56208)" style="fill: none; stroke: #2ca02c; stroke-opacity: 0.5; stroke-width: 0.2; stroke-linecap: square"/>
   <path d="M 372.657515 110.923076 
L 371.657515 110.89164 
L 370.657515 110.8547 
L 369.657515 110.756953 
L 368.657515 110.724431 
L 367.657515 110.650807 
L 366.657515 110.612241 
L 365.657515 110.576828 
L 364.657515 110.519188 
L 363.657515 110.448802 
L 362.657515 110.396838 
L 361.657515 110.337748 
L 360.657515 110.249427 
L 359.657515 110.203283 
L 358.657515 110.160872 
L 357.657515 110.130379 
L 356.657515 110.104334 
L 355.657515 110.083134 
L 354.657515 110.028833 
L 353.657515 110.000895 
L 352.657515 109.971171 
L 351.657515 109.945777 
L 350.657515 109.934576 
L 349.657515 109.924452 
L 348.657515 109.924657 
L 347.657515 109.934166 
L 346.657515 109.94582 
L 345.657515 109.976849 
L 344.657515 109.988017 
L 343.657515 110.018135 
L 342.657515 110.077912 
L 341.657515 110.115103 
L 340.657515 110.154199 
L 339.657515 110.196639 
L 338.657515 110.229404 
L 337.657515 110.29683 
L 336.657515 110.335956 
L 335.657515 110.378631 
L 334.657515 110.449212 
L 333.657515 110.485602 
L 332.657515 110.544006 
L 331.657515 110.654958 
L 330.657515 110.725616 
L 329.657515 110.838556 
L 328.657515 110.884329 
L 326.765537 110.945612 
" clip-path="url(#p2a1dc56208)" style="fill: none; stroke: #2ca02c; stroke-opacity: 0.5; stroke-width: 0.2; stroke-linecap: square"/>
   <path d="M 372.657515 96.596214 
L 371.657515 96.564777 
L 370.657515 96.527837 
L 369.657515 96.430091 
L 368.657515 96.397569 
L 367.657515 96.323944 
L 366.657515 96.285379 
L 365.657515 96.249966 
L 364.657515 96.192326 
L 363.657515 96.121939 
L 362.657515 96.069975 
L 361.657515 96.010885 
L 360.657515 95.922564 
L 359.657515 95.87642 
L 358.657515 95.834009 
L 357.657515 95.803517 
L 356.657515 95.777472 
L 355.657515 95.756272 
L 354.657515 95.70197 
L 353.657515 95.674033 
L 352.657515 95.644309 
L 351.657515 95.618914 
L 350.657515 95.607714 
L 349.657515 95.59759 
L 348.657515 95.597794 
L 347.657515 95.607304 
L 346.657515 95.618957 
L 345.657515 95.649987 
L 344.657515 95.661155 
L 343.657515 95.691272 
L 342.657515 95.751049 
L 341.657515 95.788241 
L 340.657515 95.827337 
L 339.657515 95.869776 
L 338.657515 95.902542 
L 337.657515 95.969968 
L 336.657515 96.009094 
L 335.657515 96.051768 
L 334.657515 96.122349 
L 333.657515 96.15874 
L 332.657515 96.217143 
L 331.657515 96.328096 
L 330.657515 96.398754 
L 329.657515 96.511694 
L 328.657515 96.557467 
L 326.765537 96.61875 
" clip-path="url(#p2a1dc56208)" style="fill: none; stroke: #2ca02c; stroke-opacity: 0.5; stroke-width: 0.2; stroke-linecap: square"/>
   <path d="M 372.657515 33.747434 
L 371.657515 33.715998 
L 370.657515 33.679057 
L 369.657515 33.581311 
L 368.657515 33.548789 
L 367.657515 33.475165 
L 366.657515 33.436599 
L 365.657515 33.401186 
L 364.657515 33.343546 
L 363.657515 33.27316 
L 362.657515 33.221196 
L 361.657515 33.162106 
L 360.657515 33.073785 
L 359.657515 33.02764 
L 358.657515 32.98523 
L 357.657515 32.954737 
L 356.657515 32.928692 
L 355.657515 32.907492 
L 354.657515 32.853191 
L 353.657515 32.825253 
L 352.657515 32.795529 
L 351.657515 32.770134 
L 350.657515 32.758934 
L 349.657515 32.74881 
L 348.657515 32.749014 
L 347.657515 32.758524 
L 346.657515 32.770178 
L 345.657515 32.801207 
L 344.657515 32.812375 
L 343.657515 32.842493 
L 342.657515 32.902269 
L 341.657515 32.939461 
L 340.657515 32.978557 
L 339.657515 33.020997 
L 338.657515 33.053762 
L 337.657515 33.121188 
L 336.657515 33.160314 
L 335.657515 33.202989 
L 334.657515 33.273569 
L 333.657515 33.30996 
L 332.657515 33.368363 
L 331.657515 33.479316 
L 330.657515 33.549974 
L 329.657515 33.662914 
L 328.657515 33.708687 
L 326.765537 33.76997 
" clip-path="url(#p2a1dc56208)" style="fill: none; stroke: #2ca02c; stroke-opacity: 0.5; stroke-width: 0.2; stroke-linecap: square"/>
   <g id="patch_3">
    <path d="M 67.449006 22.318125 
L 67.449006 260.421875 
M 167.401766 22.318125 
L 167.401766 260.421875 
" clip-path="url(#p2a1dc56208)" style="fill: none; stroke: #ffffff; stroke-width: 3; stroke-linejoin: miter"/>
    <path d="M 67.449006 22.318125 
L 67.449006 260.421875 
M 167.401766 22.318125 
L 167.401766 260.421875 
" clip-path="url(#p2a1dc56208)" style="fill: none; stroke: #1f77b4; stroke-linejoin: miter"/>
    <g id="PolyCollection_1">
     <path d="M 167.401766 22.318125 
L 67.449006 22.318125 
L 67.449006 260.421875 
L 167.401766 260.421875 
L 167.401766 260.421875 
L 167.401766 22.318125 
z
" clip-path="url(#p2a1dc56208)" style="fill: #1f77b4; fill-opacity: 0.5"/>
    </g>
    <g id="patch_4">
     <path d="M 222.306432 22.318125 
L 222.306432 260.421875 
M 322.259193 22.318125 
L 322.259193 260.421875 
" clip-path="url(#p2a1dc56208)" style="fill: none; stroke: #ffffff; stroke-width: 3; stroke-linejoin: miter"/>
     <path d="M 222.306432 22.318125 
L 222.306432 260.421875 
M 322.259193 22.318125 
L 322.259193 260.421875 
" clip-path="url(#p2a1dc56208)" style="fill: none; stroke: #ff7f0e; stroke-linejoin: miter"/>
     <g id="PolyCollection_2">
      <path d="M 322.259193 22.318125 
L 222.306432 22.318125 
L 222.306432 260.421875 
L 322.259193 260.421875 
L 322.259193 260.421875 
L 322.259193 22.318125 
z
" clip-path="url(#p2a1dc56208)" style="fill: #ff7f0e; fill-opacity: 0.5"/>
     </g>
     <g id="patch_5">
      <path d="M 377.163859 22.318125 
L 377.163859 260.421875 
M 477.116619 22.318125 
L 477.116619 260.421875 
" clip-path="url(#p2a1dc56208)" style="fill: none; stroke: #ffffff; stroke-width: 3; stroke-linejoin: miter"/>
      <path d="M 377.163859 22.318125 
L 377.163859 260.421875 
M 477.116619 22.318125 
L 477.116619 260.421875 
" clip-path="url(#p2a1dc56208)" style="fill: none; stroke: #2ca02c; stroke-linejoin: miter"/>
      <g id="PolyCollection_3">
       <path d="M 477.116619 22.318125 
L 377.163859 22.318125 
L 377.163859 260.421875 
L 477.116619 260.421875 
L 477.116619 260.421875 
L 477.116619 22.318125 
z
" clip-path="url(#p2a1dc56208)" style="fill: #2ca02c; fill-opacity: 0.5"/>
      </g>
      <g id="matplotlib.axis_1">
       <g id="xtick_1">
        <g id="line2d_1"/>
        <g id="text_1">
         <!-- deme1 -->
         <g transform="translate(100.04648 271.520312)scale(0.1 -0.1)">
          <defs>
           <path id="DejaVuSans-64" d="M 2906 2969 
L 2906 4863 
L 3481 4863 
L 3481 0 
L 2906 0 
L 2906 525 
Q 2725 213 2448 61 
Q 2172 -91 1784 -91 
Q 1150 -91 751 415 
Q 353 922 353 1747 
Q 353 2572 751 3078 
Q 1150 3584 1784 3584 
Q 2172 3584 2448 3432 
Q 2725 3281 2906 2969 
z
M 947 1747 
Q 947 1113 1208 752 
Q 1469 391 1925 391 
Q 2381 391 2643 752 
Q 2906 1113 2906 1747 
Q 2906 2381 2643 2742 
Q 2381 3103 1925 3103 
Q 1469 3103 1208 2742 
Q 947 2381 947 1747 
z
" transform="scale(0.015625)"/>
           <path id="DejaVuSans-65" d="M 3597 1894 
L 3597 1613 
L 953 1613 
Q 991 1019 1311 708 
Q 1631 397 2203 397 
Q 2534 397 2845 478 
Q 3156 559 3463 722 
L 3463 178 
Q 3153 47 2828 -22 
Q 2503 -91 2169 -91 
Q 1331 -91 842 396 
Q 353 884 353 1716 
Q 353 2575 817 3079 
Q 1281 3584 2069 3584 
Q 2775 3584 3186 3129 
Q 3597 2675 3597 1894 
z
M 3022 2063 
Q 3016 2534 2758 2815 
Q 2500 3097 2075 3097 
Q 1594 3097 1305 2825 
Q 1016 2553 972 2059 
L 3022 2063 
z
" transform="scale(0.015625)"/>
           <path id="DejaVuSans-6d" d="M 3328 2828 
Q 3544 3216 3844 3400 
Q 4144 3584 4550 3584 
Q 5097 3584 5394 3201 
Q 5691 2819 5691 2113 
L 5691 0 
L 5113 0 
L 5113 2094 
Q 5113 2597 4934 2840 
Q 4756 3084 4391 3084 
Q 3944 3084 3684 2787 
Q 3425 2491 3425 1978 
L 3425 0 
L 2847 0 
L 2847 2094 
Q 2847 2600 2669 2842 
Q 2491 3084 2119 3084 
Q 1678 3084 1418 2786 
Q 1159 2488 1159 1978 
L 1159 0 
L 581 0 
L 581 3500 
L 1159 3500 
L 1159 2956 
Q 1356 3278 1631 3431 
Q 1906 3584 2284 3584 
Q 2666 3584 2933 3390 
Q 3200 3197 3328 2828 
z
" transform="scale(0.015625)"/>
           <path id="DejaVuSans-31" d="M 794 531 
L 1825 531 
L 1825 4091 
L 703 3866 
L 703 4441 
L 1819 4666 
L 2450 4666 
L 2450 531 
L 3481 531 
L 3481 0 
L 794 0 
L 794 531 
z
" transform="scale(0.015625)"/>
          </defs>
          <use xlink:href="#DejaVuSans-64"/>
          <use xlink:href="#DejaVuSans-65" x="63.476562"/>
          <use xlink:href="#DejaVuSans-6d" x="125"/>
          <use xlink:href="#DejaVuSans-65" x="222.412109"/>
          <use xlink:href="#DejaVuSans-31" x="283.935547"/>
         </g>
        </g>
       </g>
       <g id="xtick_2">
        <g id="line2d_2"/>
        <g id="text_2">
         <!-- deme2 -->
         <g transform="translate(254.903906 271.520312)scale(0.1 -0.1)">
          <defs>
           <path id="DejaVuSans-32" d="M 1228 531 
L 3431 531 
L 3431 0 
L 469 0 
L 469 531 
Q 828 903 1448 1529 
Q 2069 2156 2228 2338 
Q 2531 2678 2651 2914 
Q 2772 3150 2772 3378 
Q 2772 3750 2511 3984 
Q 2250 4219 1831 4219 
Q 1534 4219 1204 4116 
Q 875 4013 500 3803 
L 500 4441 
Q 881 4594 1212 4672 
Q 1544 4750 1819 4750 
Q 2544 4750 2975 4387 
Q 3406 4025 3406 3419 
Q 3406 3131 3298 2873 
Q 3191 2616 2906 2266 
Q 2828 2175 2409 1742 
Q 1991 1309 1228 531 
z
" transform="scale(0.015625)"/>
          </defs>
          <use xlink:href="#DejaVuSans-64"/>
          <use xlink:href="#DejaVuSans-65" x="63.476562"/>
          <use xlink:href="#DejaVuSans-6d" x="125"/>
          <use xlink:href="#DejaVuSans-65" x="222.412109"/>
          <use xlink:href="#DejaVuSans-32" x="283.935547"/>
         </g>
        </g>
       </g>
       <g id="xtick_3">
        <g id="line2d_3"/>
        <g id="text_3">
         <!-- deme3 -->
         <g transform="translate(409.761333 271.520312)scale(0.1 -0.1)">
          <defs>
           <path id="DejaVuSans-33" d="M 2597 2516 
Q 3050 2419 3304 2112 
Q 3559 1806 3559 1356 
Q 3559 666 3084 287 
Q 2609 -91 1734 -91 
Q 1441 -91 1130 -33 
Q 819 25 488 141 
L 488 750 
Q 750 597 1062 519 
Q 1375 441 1716 441 
Q 2309 441 2620 675 
Q 2931 909 2931 1356 
Q 2931 1769 2642 2001 
Q 2353 2234 1838 2234 
L 1294 2234 
L 1294 2753 
L 1863 2753 
Q 2328 2753 2575 2939 
Q 2822 3125 2822 3475 
Q 2822 3834 2567 4026 
Q 2313 4219 1838 4219 
Q 1578 4219 1281 4162 
Q 984 4106 628 3988 
L 628 4550 
Q 988 4650 1302 4700 
Q 1616 4750 1894 4750 
Q 2613 4750 3031 4423 
Q 3450 4097 3450 3541 
Q 3450 3153 3228 2886 
Q 3006 2619 2597 2516 
z
" transform="scale(0.015625)"/>
          </defs>
          <use xlink:href="#DejaVuSans-64"/>
          <use xlink:href="#DejaVuSans-65" x="63.476562"/>
          <use xlink:href="#DejaVuSans-6d" x="125"/>
          <use xlink:href="#DejaVuSans-65" x="222.412109"/>
          <use xlink:href="#DejaVuSans-33" x="283.935547"/>
         </g>
        </g>
       </g>
      </g>
      <g id="matplotlib.axis_2">
       <g id="ytick_1">
        <g id="line2d_4">
         <defs>
          <path id="m9d2052c36b" d="M 0 0 
L -3.5 0 
" style="stroke: #000000; stroke-width: 0.8"/>
         </defs>
         <g>
          <use xlink:href="#m9d2052c36b" x="46.965625" y="260.421875" style="stroke: #000000; stroke-width: 0.8"/>
         </g>
        </g>
        <g id="text_4">
         <!-- 0 -->
         <g transform="translate(33.603125 264.221094)scale(0.1 -0.1)">
          <defs>
           <path id="DejaVuSans-30" d="M 2034 4250 
Q 1547 4250 1301 3770 
Q 1056 3291 1056 2328 
Q 1056 1369 1301 889 
Q 1547 409 2034 409 
Q 2525 409 2770 889 
Q 3016 1369 3016 2328 
Q 3016 3291 2770 3770 
Q 2525 4250 2034 4250 
z
M 2034 4750 
Q 2819 4750 3233 4129 
Q 3647 3509 3647 2328 
Q 3647 1150 3233 529 
Q 2819 -91 2034 -91 
Q 1250 -91 836 529 
Q 422 1150 422 2328 
Q 422 3509 836 4129 
Q 1250 4750 2034 4750 
z
" transform="scale(0.015625)"/>
          </defs>
          <use xlink:href="#DejaVuSans-30"/>
         </g>
        </g>
       </g>
       <g id="ytick_2">
        <g id="line2d_5">
         <g>
          <use xlink:href="#m9d2052c36b" x="46.965625" y="218.279618" style="stroke: #000000; stroke-width: 0.8"/>
         </g>
        </g>
        <g id="text_5">
         <!-- 20 -->
         <g transform="translate(27.240625 222.078837)scale(0.1 -0.1)">
          <use xlink:href="#DejaVuSans-32"/>
          <use xlink:href="#DejaVuSans-30" x="63.623047"/>
         </g>
        </g>
       </g>
       <g id="ytick_3">
        <g id="line2d_6">
         <g>
          <use xlink:href="#m9d2052c36b" x="46.965625" y="176.137362" style="stroke: #000000; stroke-width: 0.8"/>
         </g>
        </g>
        <g id="text_6">
         <!-- 40 -->
         <g transform="translate(27.240625 179.93658)scale(0.1 -0.1)">
          <defs>
           <path id="DejaVuSans-34" d="M 2419 4116 
L 825 1625 
L 2419 1625 
L 2419 4116 
z
M 2253 4666 
L 3047 4666 
L 3047 1625 
L 3713 1625 
L 3713 1100 
L 3047 1100 
L 3047 0 
L 2419 0 
L 2419 1100 
L 313 1100 
L 313 1709 
L 2253 4666 
z
" transform="scale(0.015625)"/>
          </defs>
          <use xlink:href="#DejaVuSans-34"/>
          <use xlink:href="#DejaVuSans-30" x="63.623047"/>
         </g>
        </g>
       </g>
       <g id="ytick_4">
        <g id="line2d_7">
         <g>
          <use xlink:href="#m9d2052c36b" x="46.965625" y="133.995105" style="stroke: #000000; stroke-width: 0.8"/>
         </g>
        </g>
        <g id="text_7">
         <!-- 60 -->
         <g transform="translate(27.240625 137.794324)scale(0.1 -0.1)">
          <defs>
           <path id="DejaVuSans-36" d="M 2113 2584 
Q 1688 2584 1439 2293 
Q 1191 2003 1191 1497 
Q 1191 994 1439 701 
Q 1688 409 2113 409 
Q 2538 409 2786 701 
Q 3034 994 3034 1497 
Q 3034 2003 2786 2293 
Q 2538 2584 2113 2584 
z
M 3366 4563 
L 3366 3988 
Q 3128 4100 2886 4159 
Q 2644 4219 2406 4219 
Q 1781 4219 1451 3797 
Q 1122 3375 1075 2522 
Q 1259 2794 1537 2939 
Q 1816 3084 2150 3084 
Q 2853 3084 3261 2657 
Q 3669 2231 3669 1497 
Q 3669 778 3244 343 
Q 2819 -91 2113 -91 
Q 1303 -91 875 529 
Q 447 1150 447 2328 
Q 447 3434 972 4092 
Q 1497 4750 2381 4750 
Q 2619 4750 2861 4703 
Q 3103 4656 3366 4563 
z
" transform="scale(0.015625)"/>
          </defs>
          <use xlink:href="#DejaVuSans-36"/>
          <use xlink:href="#DejaVuSans-30" x="63.623047"/>
         </g>
        </g>
       </g>
       <g id="ytick_5">
        <g id="line2d_8">
         <g>
          <use xlink:href="#m9d2052c36b" x="46.965625" y="91.852848" style="stroke: #000000; stroke-width: 0.8"/>
         </g>
        </g>
        <g id="text_8">
         <!-- 80 -->
         <g transform="translate(27.240625 95.652067)scale(0.1 -0.1)">
          <defs>
           <path id="DejaVuSans-38" d="M 2034 2216 
Q 1584 2216 1326 1975 
Q 1069 1734 1069 1313 
Q 1069 891 1326 650 
Q 1584 409 2034 409 
Q 2484 409 2743 651 
Q 3003 894 3003 1313 
Q 3003 1734 2745 1975 
Q 2488 2216 2034 2216 
z
M 1403 2484 
Q 997 2584 770 2862 
Q 544 3141 544 3541 
Q 544 4100 942 4425 
Q 1341 4750 2034 4750 
Q 2731 4750 3128 4425 
Q 3525 4100 3525 3541 
Q 3525 3141 3298 2862 
Q 3072 2584 2669 2484 
Q 3125 2378 3379 2068 
Q 3634 1759 3634 1313 
Q 3634 634 3220 271 
Q 2806 -91 2034 -91 
Q 1263 -91 848 271 
Q 434 634 434 1313 
Q 434 1759 690 2068 
Q 947 2378 1403 2484 
z
M 1172 3481 
Q 1172 3119 1398 2916 
Q 1625 2713 2034 2713 
Q 2441 2713 2670 2916 
Q 2900 3119 2900 3481 
Q 2900 3844 2670 4047 
Q 2441 4250 2034 4250 
Q 1625 4250 1398 4047 
Q 1172 3844 1172 3481 
z
" transform="scale(0.015625)"/>
          </defs>
          <use xlink:href="#DejaVuSans-38"/>
          <use xlink:href="#DejaVuSans-30" x="63.623047"/>
         </g>
        </g>
       </g>
       <g id="ytick_6">
        <g id="line2d_9">
         <g>
          <use xlink:href="#m9d2052c36b" x="46.965625" y="49.710592" style="stroke: #000000; stroke-width: 0.8"/>
         </g>
        </g>
        <g id="text_9">
         <!-- 100 -->
         <g transform="translate(20.878125 53.509811)scale(0.1 -0.1)">
          <use xlink:href="#DejaVuSans-31"/>
          <use xlink:href="#DejaVuSans-30" x="63.623047"/>
          <use xlink:href="#DejaVuSans-30" x="127.246094"/>
         </g>
        </g>
       </g>
       <g id="text_10">
        <!-- time ago (years) -->
        <g transform="translate(14.798437 182.803594)rotate(-90)scale(0.1 -0.1)">
         <defs>
          <path id="DejaVuSans-74" d="M 1172 4494 
L 1172 3500 
L 2356 3500 
L 2356 3053 
L 1172 3053 
L 1172 1153 
Q 1172 725 1289 603 
Q 1406 481 1766 481 
L 2356 481 
L 2356 0 
L 1766 0 
Q 1100 0 847 248 
Q 594 497 594 1153 
L 594 3053 
L 172 3053 
L 172 3500 
L 594 3500 
L 594 4494 
L 1172 4494 
z
" transform="scale(0.015625)"/>
          <path id="DejaVuSans-69" d="M 603 3500 
L 1178 3500 
L 1178 0 
L 603 0 
L 603 3500 
z
M 603 4863 
L 1178 4863 
L 1178 4134 
L 603 4134 
L 603 4863 
z
" transform="scale(0.015625)"/>
          <path id="DejaVuSans-20" transform="scale(0.015625)"/>
          <path id="DejaVuSans-61" d="M 2194 1759 
Q 1497 1759 1228 1600 
Q 959 1441 959 1056 
Q 959 750 1161 570 
Q 1363 391 1709 391 
Q 2188 391 2477 730 
Q 2766 1069 2766 1631 
L 2766 1759 
L 2194 1759 
z
M 3341 1997 
L 3341 0 
L 2766 0 
L 2766 531 
Q 2569 213 2275 61 
Q 1981 -91 1556 -91 
Q 1019 -91 701 211 
Q 384 513 384 1019 
Q 384 1609 779 1909 
Q 1175 2209 1959 2209 
L 2766 2209 
L 2766 2266 
Q 2766 2663 2505 2880 
Q 2244 3097 1772 3097 
Q 1472 3097 1187 3025 
Q 903 2953 641 2809 
L 641 3341 
Q 956 3463 1253 3523 
Q 1550 3584 1831 3584 
Q 2591 3584 2966 3190 
Q 3341 2797 3341 1997 
z
" transform="scale(0.015625)"/>
          <path id="DejaVuSans-67" d="M 2906 1791 
Q 2906 2416 2648 2759 
Q 2391 3103 1925 3103 
Q 1463 3103 1205 2759 
Q 947 2416 947 1791 
Q 947 1169 1205 825 
Q 1463 481 1925 481 
Q 2391 481 2648 825 
Q 2906 1169 2906 1791 
z
M 3481 434 
Q 3481 -459 3084 -895 
Q 2688 -1331 1869 -1331 
Q 1566 -1331 1297 -1286 
Q 1028 -1241 775 -1147 
L 775 -588 
Q 1028 -725 1275 -790 
Q 1522 -856 1778 -856 
Q 2344 -856 2625 -561 
Q 2906 -266 2906 331 
L 2906 616 
Q 2728 306 2450 153 
Q 2172 0 1784 0 
Q 1141 0 747 490 
Q 353 981 353 1791 
Q 353 2603 747 3093 
Q 1141 3584 1784 3584 
Q 2172 3584 2450 3431 
Q 2728 3278 2906 2969 
L 2906 3500 
L 3481 3500 
L 3481 434 
z
" transform="scale(0.015625)"/>
          <path id="DejaVuSans-6f" d="M 1959 3097 
Q 1497 3097 1228 2736 
Q 959 2375 959 1747 
Q 959 1119 1226 758 
Q 1494 397 1959 397 
Q 2419 397 2687 759 
Q 2956 1122 2956 1747 
Q 2956 2369 2687 2733 
Q 2419 3097 1959 3097 
z
M 1959 3584 
Q 2709 3584 3137 3096 
Q 3566 2609 3566 1747 
Q 3566 888 3137 398 
Q 2709 -91 1959 -91 
Q 1206 -91 779 398 
Q 353 888 353 1747 
Q 353 2609 779 3096 
Q 1206 3584 1959 3584 
z
" transform="scale(0.015625)"/>
          <path id="DejaVuSans-28" d="M 1984 4856 
Q 1566 4138 1362 3434 
Q 1159 2731 1159 2009 
Q 1159 1288 1364 580 
Q 1569 -128 1984 -844 
L 1484 -844 
Q 1016 -109 783 600 
Q 550 1309 550 2009 
Q 550 2706 781 3412 
Q 1013 4119 1484 4856 
L 1984 4856 
z
" transform="scale(0.015625)"/>
          <path id="DejaVuSans-79" d="M 2059 -325 
Q 1816 -950 1584 -1140 
Q 1353 -1331 966 -1331 
L 506 -1331 
L 506 -850 
L 844 -850 
Q 1081 -850 1212 -737 
Q 1344 -625 1503 -206 
L 1606 56 
L 191 3500 
L 800 3500 
L 1894 763 
L 2988 3500 
L 3597 3500 
L 2059 -325 
z
" transform="scale(0.015625)"/>
          <path id="DejaVuSans-72" d="M 2631 2963 
Q 2534 3019 2420 3045 
Q 2306 3072 2169 3072 
Q 1681 3072 1420 2755 
Q 1159 2438 1159 1844 
L 1159 0 
L 581 0 
L 581 3500 
L 1159 3500 
L 1159 2956 
Q 1341 3275 1631 3429 
Q 1922 3584 2338 3584 
Q 2397 3584 2469 3576 
Q 2541 3569 2628 3553 
L 2631 2963 
z
" transform="scale(0.015625)"/>
          <path id="DejaVuSans-73" d="M 2834 3397 
L 2834 2853 
Q 2591 2978 2328 3040 
Q 2066 3103 1784 3103 
Q 1356 3103 1142 2972 
Q 928 2841 928 2578 
Q 928 2378 1081 2264 
Q 1234 2150 1697 2047 
L 1894 2003 
Q 2506 1872 2764 1633 
Q 3022 1394 3022 966 
Q 3022 478 2636 193 
Q 2250 -91 1575 -91 
Q 1294 -91 989 -36 
Q 684 19 347 128 
L 347 722 
Q 666 556 975 473 
Q 1284 391 1588 391 
Q 1994 391 2212 530 
Q 2431 669 2431 922 
Q 2431 1156 2273 1281 
Q 2116 1406 1581 1522 
L 1381 1569 
Q 847 1681 609 1914 
Q 372 2147 372 2553 
Q 372 3047 722 3315 
Q 1072 3584 1716 3584 
Q 2034 3584 2315 3537 
Q 2597 3491 2834 3397 
z
" transform="scale(0.015625)"/>
          <path id="DejaVuSans-29" d="M 513 4856 
L 1013 4856 
Q 1481 4119 1714 3412 
Q 1947 2706 1947 2009 
Q 1947 1309 1714 600 
Q 1481 -109 1013 -844 
L 513 -844 
Q 928 -128 1133 580 
Q 1338 1288 1338 2009 
Q 1338 2731 1133 3434 
Q 928 4138 513 4856 
z
" transform="scale(0.015625)"/>
         </defs>
         <use xlink:href="#DejaVuSans-74"/>
         <use xlink:href="#DejaVuSans-69" x="39.208984"/>
         <use xlink:href="#DejaVuSans-6d" x="66.992188"/>
         <use xlink:href="#DejaVuSans-65" x="164.404297"/>
         <use xlink:href="#DejaVuSans-20" x="225.927734"/>
         <use xlink:href="#DejaVuSans-61" x="257.714844"/>
         <use xlink:href="#DejaVuSans-67" x="318.994141"/>
         <use xlink:href="#DejaVuSans-6f" x="382.470703"/>
         <use xlink:href="#DejaVuSans-20" x="443.652344"/>
         <use xlink:href="#DejaVuSans-28" x="475.439453"/>
         <use xlink:href="#DejaVuSans-79" x="514.453125"/>
         <use xlink:href="#DejaVuSans-65" x="573.632812"/>
         <use xlink:href="#DejaVuSans-61" x="635.15625"/>
         <use xlink:href="#DejaVuSans-72" x="696.435547"/>
         <use xlink:href="#DejaVuSans-73" x="737.548828"/>
         <use xlink:href="#DejaVuSans-29" x="789.648438"/>
        </g>
       </g>
      </g>
      <path d="M 218.800088 89.589367 
L 216.800088 88.589367 
L 216.800088 90.589367 
z
" clip-path="url(#p2a1dc56208)" style="fill: #1f77b4; fill-opacity: 0.5; stroke: #1f77b4; stroke-opacity: 0.5; stroke-linejoin: miter"/>
      <path d="M 218.800088 30.54377 
L 216.800088 29.54377 
L 216.800088 31.54377 
z
" clip-path="url(#p2a1dc56208)" style="fill: #1f77b4; fill-opacity: 0.5; stroke: #1f77b4; stroke-opacity: 0.5; stroke-linejoin: miter"/>
      <path d="M 218.800088 152.623222 
L 216.800088 151.623222 
L 216.800088 153.623222 
z
" clip-path="url(#p2a1dc56208)" style="fill: #1f77b4; fill-opacity: 0.5; stroke: #1f77b4; stroke-opacity: 0.5; stroke-linejoin: miter"/>
      <path d="M 218.800088 207.89867 
L 216.800088 206.89867 
L 216.800088 208.89867 
z
" clip-path="url(#p2a1dc56208)" style="fill: #1f77b4; fill-opacity: 0.5; stroke: #1f77b4; stroke-opacity: 0.5; stroke-linejoin: miter"/>
      <path d="M 218.800088 176.920314 
L 216.800088 175.920314 
L 216.800088 177.920314 
z
" clip-path="url(#p2a1dc56208)" style="fill: #1f77b4; fill-opacity: 0.5; stroke: #1f77b4; stroke-opacity: 0.5; stroke-linejoin: miter"/>
      <path d="M 218.800088 208.985018 
L 216.800088 207.985018 
L 216.800088 209.985018 
z
" clip-path="url(#p2a1dc56208)" style="fill: #1f77b4; fill-opacity: 0.5; stroke: #1f77b4; stroke-opacity: 0.5; stroke-linejoin: miter"/>
      <path d="M 218.800088 31.464004 
L 216.800088 30.464004 
L 216.800088 32.464004 
z
" clip-path="url(#p2a1dc56208)" style="fill: #1f77b4; fill-opacity: 0.5; stroke: #1f77b4; stroke-opacity: 0.5; stroke-linejoin: miter"/>
      <path d="M 218.800088 55.939473 
L 216.800088 54.939473 
L 216.800088 56.939473 
z
" clip-path="url(#p2a1dc56208)" style="fill: #1f77b4; fill-opacity: 0.5; stroke: #1f77b4; stroke-opacity: 0.5; stroke-linejoin: miter"/>
      <path d="M 218.800088 64.208305 
L 216.800088 63.208305 
L 216.800088 65.208305 
z
" clip-path="url(#p2a1dc56208)" style="fill: #1f77b4; fill-opacity: 0.5; stroke: #1f77b4; stroke-opacity: 0.5; stroke-linejoin: miter"/>
      <path d="M 218.800088 170.522496 
L 216.800088 169.522496 
L 216.800088 171.522496 
z
" clip-path="url(#p2a1dc56208)" style="fill: #1f77b4; fill-opacity: 0.5; stroke: #1f77b4; stroke-opacity: 0.5; stroke-linejoin: miter"/>
      <path d="M 170.90811 165.450919 
L 172.90811 166.450919 
L 172.90811 164.450919 
z
" clip-path="url(#p2a1dc56208)" style="fill: #ff7f0e; fill-opacity: 0.5; stroke: #ff7f0e; stroke-opacity: 0.5; stroke-linejoin: miter"/>
      <path d="M 170.90811 95.619837 
L 172.90811 96.619837 
L 172.90811 94.619837 
z
" clip-path="url(#p2a1dc56208)" style="fill: #ff7f0e; fill-opacity: 0.5; stroke: #ff7f0e; stroke-opacity: 0.5; stroke-linejoin: miter"/>
      <path d="M 170.90811 128.905031 
L 172.90811 129.905031 
L 172.90811 127.905031 
z
" clip-path="url(#p2a1dc56208)" style="fill: #ff7f0e; fill-opacity: 0.5; stroke: #ff7f0e; stroke-opacity: 0.5; stroke-linejoin: miter"/>
      <path d="M 170.90811 205.842583 
L 172.90811 206.842583 
L 172.90811 204.842583 
z
" clip-path="url(#p2a1dc56208)" style="fill: #ff7f0e; fill-opacity: 0.5; stroke: #ff7f0e; stroke-opacity: 0.5; stroke-linejoin: miter"/>
      <path d="M 170.90811 195.043631 
L 172.90811 196.043631 
L 172.90811 194.043631 
z
" clip-path="url(#p2a1dc56208)" style="fill: #ff7f0e; fill-opacity: 0.5; stroke: #ff7f0e; stroke-opacity: 0.5; stroke-linejoin: miter"/>
      <path d="M 170.90811 129.301917 
L 172.90811 130.301917 
L 172.90811 128.301917 
z
" clip-path="url(#p2a1dc56208)" style="fill: #ff7f0e; fill-opacity: 0.5; stroke: #ff7f0e; stroke-opacity: 0.5; stroke-linejoin: miter"/>
      <path d="M 170.90811 145.59818 
L 172.90811 146.59818 
L 172.90811 144.59818 
z
" clip-path="url(#p2a1dc56208)" style="fill: #ff7f0e; fill-opacity: 0.5; stroke: #ff7f0e; stroke-opacity: 0.5; stroke-linejoin: miter"/>
      <path d="M 170.90811 82.917988 
L 172.90811 83.917988 
L 172.90811 81.917988 
z
" clip-path="url(#p2a1dc56208)" style="fill: #ff7f0e; fill-opacity: 0.5; stroke: #ff7f0e; stroke-opacity: 0.5; stroke-linejoin: miter"/>
      <path d="M 170.90811 166.507807 
L 172.90811 167.507807 
L 172.90811 165.507807 
z
" clip-path="url(#p2a1dc56208)" style="fill: #ff7f0e; fill-opacity: 0.5; stroke: #ff7f0e; stroke-opacity: 0.5; stroke-linejoin: miter"/>
      <path d="M 170.90811 215.543656 
L 172.90811 216.543656 
L 172.90811 214.543656 
z
" clip-path="url(#p2a1dc56208)" style="fill: #ff7f0e; fill-opacity: 0.5; stroke: #ff7f0e; stroke-opacity: 0.5; stroke-linejoin: miter"/>
      <path d="M 373.657515 225.496193 
L 371.657515 224.496193 
L 371.657515 226.496193 
z
" clip-path="url(#p2a1dc56208)" style="fill: #ff7f0e; fill-opacity: 0.5; stroke: #ff7f0e; stroke-opacity: 0.5; stroke-linejoin: miter"/>
      <path d="M 373.657515 232.276763 
L 371.657515 231.276763 
L 371.657515 233.276763 
z
" clip-path="url(#p2a1dc56208)" style="fill: #ff7f0e; fill-opacity: 0.5; stroke: #ff7f0e; stroke-opacity: 0.5; stroke-linejoin: miter"/>
      <path d="M 373.657515 124.978635 
L 371.657515 123.978635 
L 371.657515 125.978635 
z
" clip-path="url(#p2a1dc56208)" style="fill: #ff7f0e; fill-opacity: 0.5; stroke: #ff7f0e; stroke-opacity: 0.5; stroke-linejoin: miter"/>
      <path d="M 373.657515 25.847735 
L 371.657515 24.847735 
L 371.657515 26.847735 
z
" clip-path="url(#p2a1dc56208)" style="fill: #ff7f0e; fill-opacity: 0.5; stroke: #ff7f0e; stroke-opacity: 0.5; stroke-linejoin: miter"/>
      <path d="M 373.657515 155.979204 
L 371.657515 154.979204 
L 371.657515 156.979204 
z
" clip-path="url(#p2a1dc56208)" style="fill: #ff7f0e; fill-opacity: 0.5; stroke: #ff7f0e; stroke-opacity: 0.5; stroke-linejoin: miter"/>
      <path d="M 373.657515 73.497067 
L 371.657515 72.497067 
L 371.657515 74.497067 
z
" clip-path="url(#p2a1dc56208)" style="fill: #ff7f0e; fill-opacity: 0.5; stroke: #ff7f0e; stroke-opacity: 0.5; stroke-linejoin: miter"/>
      <path d="M 373.657515 62.177997 
L 371.657515 61.177997 
L 371.657515 63.177997 
z
" clip-path="url(#p2a1dc56208)" style="fill: #ff7f0e; fill-opacity: 0.5; stroke: #ff7f0e; stroke-opacity: 0.5; stroke-linejoin: miter"/>
      <path d="M 373.657515 113.147522 
L 371.657515 112.147522 
L 371.657515 114.147522 
z
" clip-path="url(#p2a1dc56208)" style="fill: #ff7f0e; fill-opacity: 0.5; stroke: #ff7f0e; stroke-opacity: 0.5; stroke-linejoin: miter"/>
      <path d="M 373.657515 39.347781 
L 371.657515 38.347781 
L 371.657515 40.347781 
z
" clip-path="url(#p2a1dc56208)" style="fill: #ff7f0e; fill-opacity: 0.5; stroke: #ff7f0e; stroke-opacity: 0.5; stroke-linejoin: miter"/>
      <path d="M 373.657515 64.886475 
L 371.657515 63.886475 
L 371.657515 65.886475 
z
" clip-path="url(#p2a1dc56208)" style="fill: #ff7f0e; fill-opacity: 0.5; stroke: #ff7f0e; stroke-opacity: 0.5; stroke-linejoin: miter"/>
      <path d="M 325.765537 27.225653 
L 327.765537 28.225653 
L 327.765537 26.225653 
z
" clip-path="url(#p2a1dc56208)" style="fill: #2ca02c; fill-opacity: 0.5; stroke: #2ca02c; stroke-opacity: 0.5; stroke-linejoin: miter"/>
      <path d="M 325.765537 215.846145 
L 327.765537 216.846145 
L 327.765537 214.846145 
z
" clip-path="url(#p2a1dc56208)" style="fill: #2ca02c; fill-opacity: 0.5; stroke: #2ca02c; stroke-opacity: 0.5; stroke-linejoin: miter"/>
      <path d="M 325.765537 141.611861 
L 327.765537 142.611861 
L 327.765537 140.611861 
z
" clip-path="url(#p2a1dc56208)" style="fill: #2ca02c; fill-opacity: 0.5; stroke: #2ca02c; stroke-opacity: 0.5; stroke-linejoin: miter"/>
      <path d="M 325.765537 27.112758 
L 327.765537 28.112758 
L 327.765537 26.112758 
z
" clip-path="url(#p2a1dc56208)" style="fill: #2ca02c; fill-opacity: 0.5; stroke: #2ca02c; stroke-opacity: 0.5; stroke-linejoin: miter"/>
      <path d="M 325.765537 40.892532 
L 327.765537 41.892532 
L 327.765537 39.892532 
z
" clip-path="url(#p2a1dc56208)" style="fill: #2ca02c; fill-opacity: 0.5; stroke: #2ca02c; stroke-opacity: 0.5; stroke-linejoin: miter"/>
      <path d="M 325.765537 128.134166 
L 327.765537 129.134166 
L 327.765537 127.134166 
z
" clip-path="url(#p2a1dc56208)" style="fill: #2ca02c; fill-opacity: 0.5; stroke: #2ca02c; stroke-opacity: 0.5; stroke-linejoin: miter"/>
      <path d="M 325.765537 219.943148 
L 327.765537 220.943148 
L 327.765537 218.943148 
z
" clip-path="url(#p2a1dc56208)" style="fill: #2ca02c; fill-opacity: 0.5; stroke: #2ca02c; stroke-opacity: 0.5; stroke-linejoin: miter"/>
      <path d="M 325.765537 110.923076 
L 327.765537 111.923076 
L 327.765537 109.923076 
z
" clip-path="url(#p2a1dc56208)" style="fill: #2ca02c; fill-opacity: 0.5; stroke: #2ca02c; stroke-opacity: 0.5; stroke-linejoin: miter"/>
      <path d="M 325.765537 96.596214 
L 327.765537 97.596214 
L 327.765537 95.596214 
z
" clip-path="url(#p2a1dc56208)" style="fill: #2ca02c; fill-opacity: 0.5; stroke: #2ca02c; stroke-opacity: 0.5; stroke-linejoin: miter"/>
      <path d="M 325.765537 33.747434 
L 327.765537 34.747434 
L 327.765537 32.747434 
z
" clip-path="url(#p2a1dc56208)" style="fill: #2ca02c; fill-opacity: 0.5; stroke: #2ca02c; stroke-opacity: 0.5; stroke-linejoin: miter"/>
      <g id="patch_6">
       <path d="M 46.965625 260.421875 
L 46.965625 22.318125 
" style="fill: none; stroke: #000000; stroke-width: 0.8; stroke-linejoin: miter; stroke-linecap: square"/>
      </g>
      <g id="text_11">
       <!-- stepping_stone_model.yaml -->
       <g transform="translate(188.243437 16.318125)scale(0.12 -0.12)">
        <defs>
         <path id="DejaVuSans-70" d="M 1159 525 
L 1159 -1331 
L 581 -1331 
L 581 3500 
L 1159 3500 
L 1159 2969 
Q 1341 3281 1617 3432 
Q 1894 3584 2278 3584 
Q 2916 3584 3314 3078 
Q 3713 2572 3713 1747 
Q 3713 922 3314 415 
Q 2916 -91 2278 -91 
Q 1894 -91 1617 61 
Q 1341 213 1159 525 
z
M 3116 1747 
Q 3116 2381 2855 2742 
Q 2594 3103 2138 3103 
Q 1681 3103 1420 2742 
Q 1159 2381 1159 1747 
Q 1159 1113 1420 752 
Q 1681 391 2138 391 
Q 2594 391 2855 752 
Q 3116 1113 3116 1747 
z
" transform="scale(0.015625)"/>
         <path id="DejaVuSans-6e" d="M 3513 2113 
L 3513 0 
L 2938 0 
L 2938 2094 
Q 2938 2591 2744 2837 
Q 2550 3084 2163 3084 
Q 1697 3084 1428 2787 
Q 1159 2491 1159 1978 
L 1159 0 
L 581 0 
L 581 3500 
L 1159 3500 
L 1159 2956 
Q 1366 3272 1645 3428 
Q 1925 3584 2291 3584 
Q 2894 3584 3203 3211 
Q 3513 2838 3513 2113 
z
" transform="scale(0.015625)"/>
         <path id="DejaVuSans-5f" d="M 3263 -1063 
L 3263 -1509 
L -63 -1509 
L -63 -1063 
L 3263 -1063 
z
" transform="scale(0.015625)"/>
         <path id="DejaVuSans-6c" d="M 603 4863 
L 1178 4863 
L 1178 0 
L 603 0 
L 603 4863 
z
" transform="scale(0.015625)"/>
         <path id="DejaVuSans-2e" d="M 684 794 
L 1344 794 
L 1344 0 
L 684 0 
L 684 794 
z
" transform="scale(0.015625)"/>
        </defs>
        <use xlink:href="#DejaVuSans-73"/>
        <use xlink:href="#DejaVuSans-74" x="52.099609"/>
        <use xlink:href="#DejaVuSans-65" x="91.308594"/>
        <use xlink:href="#DejaVuSans-70" x="152.832031"/>
        <use xlink:href="#DejaVuSans-70" x="216.308594"/>
        <use xlink:href="#DejaVuSans-69" x="279.785156"/>
        <use xlink:href="#DejaVuSans-6e" x="307.568359"/>
        <use xlink:href="#DejaVuSans-67" x="370.947266"/>
        <use xlink:href="#DejaVuSans-5f" x="434.423828"/>
        <use xlink:href="#DejaVuSans-73" x="484.423828"/>
        <use xlink:href="#DejaVuSans-74" x="536.523438"/>
        <use xlink:href="#DejaVuSans-6f" x="575.732422"/>
        <use xlink:href="#DejaVuSans-6e" x="636.914062"/>
        <use xlink:href="#DejaVuSans-65" x="700.292969"/>
        <use xlink:href="#DejaVuSans-5f" x="761.816406"/>
        <use xlink:href="#DejaVuSans-6d" x="811.816406"/>
        <use xlink:href="#DejaVuSans-6f" x="909.228516"/>
        <use xlink:href="#DejaVuSans-64" x="970.410156"/>
        <use xlink:href="#DejaVuSans-65" x="1033.886719"/>
        <use xlink:href="#DejaVuSans-6c" x="1095.410156"/>
        <use xlink:href="#DejaVuSans-2e" x="1123.193359"/>
        <use xlink:href="#DejaVuSans-79" x="1154.980469"/>
        <use xlink:href="#DejaVuSans-61" x="1214.160156"/>
        <use xlink:href="#DejaVuSans-6d" x="1275.439453"/>
        <use xlink:href="#DejaVuSans-6c" x="1372.851562"/>
       </g>
      </g>
     </g>
    </g>
    <defs>
     <clipPath id="p2a1dc56208">
      <rect x="46.965625" y="22.318125" width="450.634375" height="238.10375"/>
     </clipPath>
    </defs>
   </g>
  </g>
 </g>
</svg>
