<?xml version="1.0" encoding="utf-8" standalone="no"?>
<!DOCTYPE svg PUBLIC "-//W3C//DTD SVG 1.1//EN"
  "http://www.w3.org/Graphics/SVG/1.1/DTD/svg11.dtd">
<svg xmlns:xlink="http://www.w3.org/1999/xlink" width="504.8pt" height="280.8pt" viewBox="0 0 504.8 280.8" xmlns="http://www.w3.org/2000/svg" version="1.1">
 <metadata>
  <rdf:RDF xmlns:dc="http://purl.org/dc/elements/1.1/" xmlns:cc="http://creativecommons.org/ns#" xmlns:rdf="http://www.w3.org/1999/02/22-rdf-syntax-ns#">
   <cc:Work>
    <dc:type rdf:resource="http://purl.org/dc/dcmitype/StillImage"/>
    <dc:date>2022-05-23T08:21:50.473557</dc:date>
    <dc:format>image/svg+xml</dc:format>
    <dc:creator>
     <cc:Agent>
      <dc:title>Matplotlib v3.5.2, https://matplotlib.org/</dc:title>
     </cc:Agent>
    </dc:creator>
   </cc:Work>
  </rdf:RDF>
 </metadata>
 <defs>
  <style type="text/css">*{stroke-linejoin: round; stroke-linecap: butt}</style>
 </defs>
 <g id="figure_1">
  <g id="patch_1">
   <path d="M 0 280.8 
L 504.8 280.8 
L 504.8 0 
L 0 0 
L 0 280.8 
z
" style="fill: none"/>
  </g>
  <g id="axes_1">
   <g id="patch_2">
    <path d="M 43.78125 260.421875 
L 497.6 260.421875 
L 497.6 22.318125 
L 43.78125 22.318125 
z
" style="fill: #ffffff"/>
   </g>
   <path d="M 296.618831 158.146722 
L 295.618831 158.115286 
L 294.618831 158.078346 
L 293.618831 157.980599 
L 292.618831 157.948078 
L 291.618831 157.874453 
L 290.618831 157.835887 
L 289.618831 157.800474 
L 288.618831 157.742834 
L 287.618831 157.672448 
L 286.618831 157.620484 
L 285.618831 157.561394 
L 284.618831 157.473073 
L 283.618831 157.426929 
L 282.618831 157.384518 
L 281.618831 157.354025 
L 280.618831 157.32798 
L 279.618831 157.30678 
L 278.618831 157.252479 
L 277.618831 157.224541 
L 276.618831 157.194817 
L 275.618831 157.169423 
L 274.618831 157.158222 
L 273.618831 157.148098 
L 272.618831 157.148303 
L 271.618831 157.157812 
L 270.618831 157.169466 
L 269.618831 157.200495 
L 268.618831 157.211663 
L 267.618831 157.241781 
L 266.618831 157.301558 
L 265.618831 157.338749 
L 264.618831 157.377845 
L 263.618831 157.420285 
L 262.618831 157.45305 
L 261.618831 157.520477 
L 260.618831 157.559602 
L 259.618831 157.602277 
L 258.618831 157.672858 
L 257.618831 157.709248 
L 256.618831 157.767652 
L 255.618831 157.878604 
L 254.618831 157.949263 
L 253.618831 158.062202 
L 252.618831 158.107975 
L 251.618831 158.169258 
L 250.618831 158.217758 
L 249.618831 158.29858 
L 248.618831 158.417099 
L 247.618831 158.48731 
L 246.618831 158.570573 
L 244.762419 158.603714 
" clip-path="url(#pb312d1e28a)" style="fill: none; stroke: #ff7f0e; stroke-opacity: 0.5; stroke-width: 0.2; stroke-linecap: square"/>
   <path d="M 296.618831 105.788674 
L 295.618831 105.757237 
L 294.618831 105.720297 
L 293.618831 105.62255 
L 292.618831 105.590029 
L 291.618831 105.516404 
L 290.618831 105.477838 
L 289.618831 105.442425 
L 288.618831 105.384785 
L 287.618831 105.314399 
L 286.618831 105.262435 
L 285.618831 105.203345 
L 284.618831 105.115024 
L 283.618831 105.06888 
L 282.618831 105.026469 
L 281.618831 104.995976 
L 280.618831 104.969931 
L 279.618831 104.948731 
L 278.618831 104.89443 
L 277.618831 104.866493 
L 276.618831 104.836769 
L 275.618831 104.811374 
L 274.618831 104.800173 
L 273.618831 104.79005 
L 272.618831 104.790254 
L 271.618831 104.799764 
L 270.618831 104.811417 
L 269.618831 104.842447 
L 268.618831 104.853614 
L 267.618831 104.883732 
L 266.618831 104.943509 
L 265.618831 104.9807 
L 264.618831 105.019797 
L 263.618831 105.062236 
L 262.618831 105.095001 
L 261.618831 105.162428 
L 260.618831 105.201554 
L 259.618831 105.244228 
L 258.618831 105.314809 
L 257.618831 105.3512 
L 256.618831 105.409603 
L 255.618831 105.520555 
L 254.618831 105.591214 
L 253.618831 105.704154 
L 252.618831 105.749926 
L 251.618831 105.81121 
L 250.618831 105.859709 
L 249.618831 105.940532 
L 248.618831 106.059051 
L 247.618831 106.129261 
L 246.618831 106.212524 
L 244.762419 106.245666 
" clip-path="url(#pb312d1e28a)" style="fill: none; stroke: #ff7f0e; stroke-opacity: 0.5; stroke-width: 0.2; stroke-linecap: square"/>
   <path d="M 296.618831 84.982118 
L 295.618831 84.950681 
L 294.618831 84.913741 
L 293.618831 84.815994 
L 292.618831 84.783473 
L 291.618831 84.709848 
L 290.618831 84.671283 
L 289.618831 84.635869 
L 288.618831 84.578229 
L 287.618831 84.507843 
L 286.618831 84.455879 
L 285.618831 84.396789 
L 284.618831 84.308468 
L 283.618831 84.262324 
L 282.618831 84.219913 
L 281.618831 84.18942 
L 280.618831 84.163376 
L 279.618831 84.142175 
L 278.618831 84.087874 
L 277.618831 84.059937 
L 276.618831 84.030213 
L 275.618831 84.004818 
L 274.618831 83.993618 
L 273.618831 83.983494 
L 272.618831 83.983698 
L 271.618831 83.993208 
L 270.618831 84.004861 
L 269.618831 84.035891 
L 268.618831 84.047059 
L 267.618831 84.077176 
L 266.618831 84.136953 
L 265.618831 84.174145 
L 264.618831 84.213241 
L 263.618831 84.25568 
L 262.618831 84.288445 
L 261.618831 84.355872 
L 260.618831 84.394998 
L 259.618831 84.437672 
L 258.618831 84.508253 
L 257.618831 84.544644 
L 256.618831 84.603047 
L 255.618831 84.714 
L 254.618831 84.784658 
L 253.618831 84.897598 
L 252.618831 84.943371 
L 251.618831 85.004654 
L 250.618831 85.053153 
L 249.618831 85.133976 
L 248.618831 85.252495 
L 247.618831 85.322705 
L 246.618831 85.405968 
L 244.762419 85.43911 
" clip-path="url(#pb312d1e28a)" style="fill: none; stroke: #ff7f0e; stroke-opacity: 0.5; stroke-width: 0.2; stroke-linecap: square"/>
   <path d="M 296.618831 148.2502 
L 295.618831 148.218764 
L 294.618831 148.181823 
L 293.618831 148.084077 
L 292.618831 148.051555 
L 291.618831 147.977931 
L 290.618831 147.939365 
L 289.618831 147.903952 
L 288.618831 147.846312 
L 287.618831 147.775926 
L 286.618831 147.723962 
L 285.618831 147.664872 
L 284.618831 147.576551 
L 283.618831 147.530407 
L 282.618831 147.487996 
L 281.618831 147.457503 
L 280.618831 147.431458 
L 279.618831 147.410258 
L 278.618831 147.355957 
L 277.618831 147.328019 
L 276.618831 147.298295 
L 275.618831 147.2729 
L 274.618831 147.2617 
L 273.618831 147.251576 
L 272.618831 147.25178 
L 271.618831 147.26129 
L 270.618831 147.272944 
L 269.618831 147.303973 
L 268.618831 147.315141 
L 267.618831 147.345259 
L 266.618831 147.405036 
L 265.618831 147.442227 
L 264.618831 147.481323 
L 263.618831 147.523763 
L 262.618831 147.556528 
L 261.618831 147.623954 
L 260.618831 147.66308 
L 259.618831 147.705755 
L 258.618831 147.776335 
L 257.618831 147.812726 
L 256.618831 147.871129 
L 255.618831 147.982082 
L 254.618831 148.05274 
L 253.618831 148.16568 
L 252.618831 148.211453 
L 251.618831 148.272736 
L 250.618831 148.321236 
L 249.618831 148.402058 
L 248.618831 148.520577 
L 247.618831 148.590788 
L 246.618831 148.67405 
L 244.762419 148.707192 
" clip-path="url(#pb312d1e28a)" style="fill: none; stroke: #ff7f0e; stroke-opacity: 0.5; stroke-width: 0.2; stroke-linecap: square"/>
   <path d="M 296.618831 85.974803 
L 295.618831 85.943366 
L 294.618831 85.906426 
L 293.618831 85.808679 
L 292.618831 85.776158 
L 291.618831 85.702533 
L 290.618831 85.663968 
L 289.618831 85.628554 
L 288.618831 85.570914 
L 287.618831 85.500528 
L 286.618831 85.448564 
L 285.618831 85.389474 
L 284.618831 85.301153 
L 283.618831 85.255009 
L 282.618831 85.212598 
L 281.618831 85.182105 
L 280.618831 85.15606 
L 279.618831 85.13486 
L 278.618831 85.080559 
L 277.618831 85.052622 
L 276.618831 85.022898 
L 275.618831 84.997503 
L 274.618831 84.986303 
L 273.618831 84.976179 
L 272.618831 84.976383 
L 271.618831 84.985893 
L 270.618831 84.997546 
L 269.618831 85.028576 
L 268.618831 85.039744 
L 267.618831 85.069861 
L 266.618831 85.129638 
L 265.618831 85.16683 
L 264.618831 85.205926 
L 263.618831 85.248365 
L 262.618831 85.28113 
L 261.618831 85.348557 
L 260.618831 85.387683 
L 259.618831 85.430357 
L 258.618831 85.500938 
L 257.618831 85.537329 
L 256.618831 85.595732 
L 255.618831 85.706685 
L 254.618831 85.777343 
L 253.618831 85.890283 
L 252.618831 85.936056 
L 251.618831 85.997339 
L 250.618831 86.045838 
L 249.618831 86.126661 
L 248.618831 86.24518 
L 247.618831 86.31539 
L 246.618831 86.398653 
L 244.762419 86.431795 
" clip-path="url(#pb312d1e28a)" style="fill: none; stroke: #ff7f0e; stroke-opacity: 0.5; stroke-width: 0.2; stroke-linecap: square"/>
   <path d="M 296.618831 88.127402 
L 295.618831 88.095966 
L 294.618831 88.059025 
L 293.618831 87.961279 
L 292.618831 87.928757 
L 291.618831 87.855133 
L 290.618831 87.816567 
L 289.618831 87.781154 
L 288.618831 87.723514 
L 287.618831 87.653128 
L 286.618831 87.601164 
L 285.618831 87.542074 
L 284.618831 87.453753 
L 283.618831 87.407609 
L 282.618831 87.365198 
L 281.618831 87.334705 
L 280.618831 87.30866 
L 279.618831 87.28746 
L 278.618831 87.233159 
L 277.618831 87.205221 
L 276.618831 87.175497 
L 275.618831 87.150102 
L 274.618831 87.138902 
L 273.618831 87.128778 
L 272.618831 87.128982 
L 271.618831 87.138492 
L 270.618831 87.150146 
L 269.618831 87.181175 
L 268.618831 87.192343 
L 267.618831 87.222461 
L 266.618831 87.282238 
L 265.618831 87.319429 
L 264.618831 87.358525 
L 263.618831 87.400965 
L 262.618831 87.43373 
L 261.618831 87.501156 
L 260.618831 87.540282 
L 259.618831 87.582957 
L 258.618831 87.653537 
L 257.618831 87.689928 
L 256.618831 87.748331 
L 255.618831 87.859284 
L 254.618831 87.929942 
L 253.618831 88.042882 
L 252.618831 88.088655 
L 251.618831 88.149938 
L 250.618831 88.198438 
L 249.618831 88.27926 
L 248.618831 88.397779 
L 247.618831 88.46799 
L 246.618831 88.551252 
L 244.762419 88.584394 
" clip-path="url(#pb312d1e28a)" style="fill: none; stroke: #ff7f0e; stroke-opacity: 0.5; stroke-width: 0.2; stroke-linecap: square"/>
   <path d="M 296.618831 135.0039 
L 295.618831 134.972464 
L 294.618831 134.935524 
L 293.618831 134.837777 
L 292.618831 134.805255 
L 291.618831 134.731631 
L 290.618831 134.693065 
L 289.618831 134.657652 
L 288.618831 134.600012 
L 287.618831 134.529626 
L 286.618831 134.477662 
L 285.618831 134.418572 
L 284.618831 134.330251 
L 283.618831 134.284107 
L 282.618831 134.241696 
L 281.618831 134.211203 
L 280.618831 134.185158 
L 279.618831 134.163958 
L 278.618831 134.109657 
L 277.618831 134.081719 
L 276.618831 134.051995 
L 275.618831 134.026601 
L 274.618831 134.0154 
L 273.618831 134.005276 
L 272.618831 134.00548 
L 271.618831 134.01499 
L 270.618831 134.026644 
L 269.618831 134.057673 
L 268.618831 134.068841 
L 267.618831 134.098959 
L 266.618831 134.158736 
L 265.618831 134.195927 
L 264.618831 134.235023 
L 263.618831 134.277463 
L 262.618831 134.310228 
L 261.618831 134.377654 
L 260.618831 134.41678 
L 259.618831 134.459455 
L 258.618831 134.530035 
L 257.618831 134.566426 
L 256.618831 134.624829 
L 255.618831 134.735782 
L 254.618831 134.80644 
L 253.618831 134.91938 
L 252.618831 134.965153 
L 251.618831 135.026436 
L 250.618831 135.074936 
L 249.618831 135.155758 
L 248.618831 135.274277 
L 247.618831 135.344488 
L 246.618831 135.42775 
L 244.762419 135.460892 
" clip-path="url(#pb312d1e28a)" style="fill: none; stroke: #ff7f0e; stroke-opacity: 0.5; stroke-width: 0.2; stroke-linecap: square"/>
   <path d="M 296.618831 107.223881 
L 295.618831 107.192445 
L 294.618831 107.155504 
L 293.618831 107.057758 
L 292.618831 107.025236 
L 291.618831 106.951612 
L 290.618831 106.913046 
L 289.618831 106.877633 
L 288.618831 106.819993 
L 287.618831 106.749607 
L 286.618831 106.697643 
L 285.618831 106.638553 
L 284.618831 106.550232 
L 283.618831 106.504088 
L 282.618831 106.461677 
L 281.618831 106.431184 
L 280.618831 106.405139 
L 279.618831 106.383939 
L 278.618831 106.329638 
L 277.618831 106.3017 
L 276.618831 106.271976 
L 275.618831 106.246581 
L 274.618831 106.235381 
L 273.618831 106.225257 
L 272.618831 106.225461 
L 271.618831 106.234971 
L 270.618831 106.246625 
L 269.618831 106.277654 
L 268.618831 106.288822 
L 267.618831 106.31894 
L 266.618831 106.378717 
L 265.618831 106.415908 
L 264.618831 106.455004 
L 263.618831 106.497444 
L 262.618831 106.530209 
L 261.618831 106.597635 
L 260.618831 106.636761 
L 259.618831 106.679436 
L 258.618831 106.750016 
L 257.618831 106.786407 
L 256.618831 106.84481 
L 255.618831 106.955763 
L 254.618831 107.026421 
L 253.618831 107.139361 
L 252.618831 107.185134 
L 251.618831 107.246417 
L 250.618831 107.294917 
L 249.618831 107.375739 
L 248.618831 107.494258 
L 247.618831 107.564469 
L 246.618831 107.647731 
L 244.762419 107.680873 
" clip-path="url(#pb312d1e28a)" style="fill: none; stroke: #ff7f0e; stroke-opacity: 0.5; stroke-width: 0.2; stroke-linecap: square"/>
   <path d="M 296.618831 98.835433 
L 295.618831 98.803997 
L 294.618831 98.767057 
L 293.618831 98.66931 
L 292.618831 98.636788 
L 291.618831 98.563164 
L 290.618831 98.524598 
L 289.618831 98.489185 
L 288.618831 98.431545 
L 287.618831 98.361159 
L 286.618831 98.309195 
L 285.618831 98.250105 
L 284.618831 98.161784 
L 283.618831 98.11564 
L 282.618831 98.073229 
L 281.618831 98.042736 
L 280.618831 98.016691 
L 279.618831 97.995491 
L 278.618831 97.94119 
L 277.618831 97.913252 
L 276.618831 97.883528 
L 275.618831 97.858134 
L 274.618831 97.846933 
L 273.618831 97.836809 
L 272.618831 97.837013 
L 271.618831 97.846523 
L 270.618831 97.858177 
L 269.618831 97.889206 
L 268.618831 97.900374 
L 267.618831 97.930492 
L 266.618831 97.990269 
L 265.618831 98.02746 
L 264.618831 98.066556 
L 263.618831 98.108996 
L 262.618831 98.141761 
L 261.618831 98.209187 
L 260.618831 98.248313 
L 259.618831 98.290988 
L 258.618831 98.361568 
L 257.618831 98.397959 
L 256.618831 98.456362 
L 255.618831 98.567315 
L 254.618831 98.637973 
L 253.618831 98.750913 
L 252.618831 98.796686 
L 251.618831 98.857969 
L 250.618831 98.906469 
L 249.618831 98.987291 
L 248.618831 99.10581 
L 247.618831 99.176021 
L 246.618831 99.259283 
L 244.762419 99.292425 
" clip-path="url(#pb312d1e28a)" style="fill: none; stroke: #ff7f0e; stroke-opacity: 0.5; stroke-width: 0.2; stroke-linecap: square"/>
   <path d="M 296.618831 139.156568 
L 295.618831 139.125132 
L 294.618831 139.088191 
L 293.618831 138.990445 
L 292.618831 138.957923 
L 291.618831 138.884299 
L 290.618831 138.845733 
L 289.618831 138.81032 
L 288.618831 138.75268 
L 287.618831 138.682294 
L 286.618831 138.630329 
L 285.618831 138.57124 
L 284.618831 138.482919 
L 283.618831 138.436774 
L 282.618831 138.394363 
L 281.618831 138.363871 
L 280.618831 138.337826 
L 279.618831 138.316626 
L 278.618831 138.262325 
L 277.618831 138.234387 
L 276.618831 138.204663 
L 275.618831 138.179268 
L 274.618831 138.168068 
L 273.618831 138.157944 
L 272.618831 138.158148 
L 271.618831 138.167658 
L 270.618831 138.179312 
L 269.618831 138.210341 
L 268.618831 138.221509 
L 267.618831 138.251626 
L 266.618831 138.311403 
L 265.618831 138.348595 
L 264.618831 138.387691 
L 263.618831 138.430131 
L 262.618831 138.462896 
L 261.618831 138.530322 
L 260.618831 138.569448 
L 259.618831 138.612123 
L 258.618831 138.682703 
L 257.618831 138.719094 
L 256.618831 138.777497 
L 255.618831 138.88845 
L 254.618831 138.959108 
L 253.618831 139.072048 
L 252.618831 139.117821 
L 251.618831 139.179104 
L 250.618831 139.227603 
L 249.618831 139.308426 
L 248.618831 139.426945 
L 247.618831 139.497156 
L 246.618831 139.580418 
L 244.762419 139.61356 
" clip-path="url(#pb312d1e28a)" style="fill: none; stroke: #ff7f0e; stroke-opacity: 0.5; stroke-width: 0.2; stroke-linecap: square"/>
   <path d="M 244.762419 103.334832 
L 245.762419 103.366268 
L 246.762419 103.403209 
L 247.762419 103.500955 
L 248.762419 103.533477 
L 249.762419 103.607102 
L 250.762419 103.645667 
L 251.762419 103.68108 
L 252.762419 103.73872 
L 253.762419 103.809107 
L 254.762419 103.861071 
L 255.762419 103.920161 
L 256.762419 104.008481 
L 257.762419 104.054626 
L 258.762419 104.097037 
L 259.762419 104.127529 
L 260.762419 104.153574 
L 261.762419 104.174774 
L 262.762419 104.229076 
L 263.762419 104.257013 
L 264.762419 104.286737 
L 265.762419 104.312132 
L 266.762419 104.323332 
L 267.762419 104.333456 
L 268.762419 104.333252 
L 269.762419 104.323742 
L 270.762419 104.312088 
L 271.762419 104.281059 
L 272.762419 104.269891 
L 273.762419 104.239774 
L 274.762419 104.179997 
L 275.762419 104.142805 
L 276.762419 104.103709 
L 277.762419 104.06127 
L 278.762419 104.028504 
L 279.762419 103.961078 
L 280.762419 103.921952 
L 281.762419 103.879278 
L 282.762419 103.808697 
L 283.762419 103.772306 
L 284.762419 103.713903 
L 285.762419 103.60295 
L 286.762419 103.532292 
L 287.762419 103.419352 
L 288.762419 103.373579 
L 289.762419 103.312296 
L 290.762419 103.263797 
L 291.762419 103.182974 
L 292.762419 103.064455 
L 293.762419 102.994244 
L 294.762419 102.910982 
L 296.618831 102.87784 
" clip-path="url(#pb312d1e28a)" style="fill: none; stroke: #1f77b4; stroke-opacity: 0.5; stroke-width: 0.2; stroke-linecap: square"/>
   <path d="M 244.762419 140.086064 
L 245.762419 140.1175 
L 246.762419 140.15444 
L 247.762419 140.252187 
L 248.762419 140.284708 
L 249.762419 140.358333 
L 250.762419 140.396899 
L 251.762419 140.432312 
L 252.762419 140.489952 
L 253.762419 140.560338 
L 254.762419 140.612302 
L 255.762419 140.671392 
L 256.762419 140.759713 
L 257.762419 140.805857 
L 258.762419 140.848268 
L 259.762419 140.878761 
L 260.762419 140.904806 
L 261.762419 140.926006 
L 262.762419 140.980307 
L 263.762419 141.008245 
L 264.762419 141.037969 
L 265.762419 141.063363 
L 266.762419 141.074564 
L 267.762419 141.084688 
L 268.762419 141.084483 
L 269.762419 141.074974 
L 270.762419 141.06332 
L 271.762419 141.032291 
L 272.762419 141.021123 
L 273.762419 140.991005 
L 274.762419 140.931228 
L 275.762419 140.894037 
L 276.762419 140.854941 
L 277.762419 140.812501 
L 278.762419 140.779736 
L 279.762419 140.712309 
L 280.762419 140.673184 
L 281.762419 140.630509 
L 282.762419 140.559928 
L 283.762419 140.523538 
L 284.762419 140.465134 
L 285.762419 140.354182 
L 286.762419 140.283523 
L 287.762419 140.170584 
L 288.762419 140.124811 
L 289.762419 140.063528 
L 290.762419 140.015028 
L 291.762419 139.934206 
L 292.762419 139.815687 
L 293.762419 139.745476 
L 294.762419 139.662213 
L 296.618831 139.629072 
" clip-path="url(#pb312d1e28a)" style="fill: none; stroke: #1f77b4; stroke-opacity: 0.5; stroke-width: 0.2; stroke-linecap: square"/>
   <path d="M 244.762419 80.561047 
L 245.762419 80.592483 
L 246.762419 80.629423 
L 247.762419 80.72717 
L 248.762419 80.759692 
L 249.762419 80.833316 
L 250.762419 80.871882 
L 251.762419 80.907295 
L 252.762419 80.964935 
L 253.762419 81.035321 
L 254.762419 81.087285 
L 255.762419 81.146375 
L 256.762419 81.234696 
L 257.762419 81.28084 
L 258.762419 81.323251 
L 259.762419 81.353744 
L 260.762419 81.379789 
L 261.762419 81.400989 
L 262.762419 81.45529 
L 263.762419 81.483228 
L 264.762419 81.512952 
L 265.762419 81.538346 
L 266.762419 81.549547 
L 267.762419 81.559671 
L 268.762419 81.559467 
L 269.762419 81.549957 
L 270.762419 81.538303 
L 271.762419 81.507274 
L 272.762419 81.496106 
L 273.762419 81.465988 
L 274.762419 81.406211 
L 275.762419 81.36902 
L 276.762419 81.329924 
L 277.762419 81.287484 
L 278.762419 81.254719 
L 279.762419 81.187293 
L 280.762419 81.148167 
L 281.762419 81.105492 
L 282.762419 81.034912 
L 283.762419 80.998521 
L 284.762419 80.940117 
L 285.762419 80.829165 
L 286.762419 80.758507 
L 287.762419 80.645567 
L 288.762419 80.599794 
L 289.762419 80.538511 
L 290.762419 80.490011 
L 291.762419 80.409189 
L 292.762419 80.29067 
L 293.762419 80.220459 
L 294.762419 80.137197 
L 296.618831 80.104055 
" clip-path="url(#pb312d1e28a)" style="fill: none; stroke: #1f77b4; stroke-opacity: 0.5; stroke-width: 0.2; stroke-linecap: square"/>
   <path d="M 244.762419 72.141982 
L 245.762419 72.173419 
L 246.762419 72.210359 
L 247.762419 72.308106 
L 248.762419 72.340627 
L 249.762419 72.414252 
L 250.762419 72.452818 
L 251.762419 72.488231 
L 252.762419 72.545871 
L 253.762419 72.616257 
L 254.762419 72.668221 
L 255.762419 72.727311 
L 256.762419 72.815632 
L 257.762419 72.861776 
L 258.762419 72.904187 
L 259.762419 72.93468 
L 260.762419 72.960725 
L 261.762419 72.981925 
L 262.762419 73.036226 
L 263.762419 73.064163 
L 264.762419 73.093887 
L 265.762419 73.119282 
L 266.762419 73.130483 
L 267.762419 73.140607 
L 268.762419 73.140402 
L 269.762419 73.130892 
L 270.762419 73.119239 
L 271.762419 73.08821 
L 272.762419 73.077042 
L 273.762419 73.046924 
L 274.762419 72.987147 
L 275.762419 72.949956 
L 276.762419 72.91086 
L 277.762419 72.86842 
L 278.762419 72.835655 
L 279.762419 72.768228 
L 280.762419 72.729102 
L 281.762419 72.686428 
L 282.762419 72.615847 
L 283.762419 72.579456 
L 284.762419 72.521053 
L 285.762419 72.410101 
L 286.762419 72.339442 
L 287.762419 72.226502 
L 288.762419 72.18073 
L 289.762419 72.119446 
L 290.762419 72.070947 
L 291.762419 71.990124 
L 292.762419 71.871605 
L 293.762419 71.801395 
L 294.762419 71.718132 
L 296.618831 71.684991 
" clip-path="url(#pb312d1e28a)" style="fill: none; stroke: #1f77b4; stroke-opacity: 0.5; stroke-width: 0.2; stroke-linecap: square"/>
   <path d="M 244.762419 109.783957 
L 245.762419 109.815393 
L 246.762419 109.852333 
L 247.762419 109.95008 
L 248.762419 109.982602 
L 249.762419 110.056226 
L 250.762419 110.094792 
L 251.762419 110.130205 
L 252.762419 110.187845 
L 253.762419 110.258231 
L 254.762419 110.310195 
L 255.762419 110.369285 
L 256.762419 110.457606 
L 257.762419 110.50375 
L 258.762419 110.546161 
L 259.762419 110.576654 
L 260.762419 110.602699 
L 261.762419 110.623899 
L 262.762419 110.6782 
L 263.762419 110.706138 
L 264.762419 110.735862 
L 265.762419 110.761256 
L 266.762419 110.772457 
L 267.762419 110.782581 
L 268.762419 110.782376 
L 269.762419 110.772867 
L 270.762419 110.761213 
L 271.762419 110.730184 
L 272.762419 110.719016 
L 273.762419 110.688898 
L 274.762419 110.629121 
L 275.762419 110.59193 
L 276.762419 110.552834 
L 277.762419 110.510394 
L 278.762419 110.477629 
L 279.762419 110.410203 
L 280.762419 110.371077 
L 281.762419 110.328402 
L 282.762419 110.257821 
L 283.762419 110.221431 
L 284.762419 110.163027 
L 285.762419 110.052075 
L 286.762419 109.981417 
L 287.762419 109.868477 
L 288.762419 109.822704 
L 289.762419 109.761421 
L 290.762419 109.712921 
L 291.762419 109.632099 
L 292.762419 109.51358 
L 293.762419 109.443369 
L 294.762419 109.360107 
L 296.618831 109.326965 
" clip-path="url(#pb312d1e28a)" style="fill: none; stroke: #1f77b4; stroke-opacity: 0.5; stroke-width: 0.2; stroke-linecap: square"/>
   <path d="M 244.762419 91.301489 
L 245.762419 91.332925 
L 246.762419 91.369866 
L 247.762419 91.467612 
L 248.762419 91.500134 
L 249.762419 91.573759 
L 250.762419 91.612324 
L 251.762419 91.647737 
L 252.762419 91.705377 
L 253.762419 91.775763 
L 254.762419 91.827728 
L 255.762419 91.886817 
L 256.762419 91.975138 
L 257.762419 92.021283 
L 258.762419 92.063694 
L 259.762419 92.094186 
L 260.762419 92.120231 
L 261.762419 92.141431 
L 262.762419 92.195732 
L 263.762419 92.22367 
L 264.762419 92.253394 
L 265.762419 92.278789 
L 266.762419 92.289989 
L 267.762419 92.300113 
L 268.762419 92.299909 
L 269.762419 92.290399 
L 270.762419 92.278745 
L 271.762419 92.247716 
L 272.762419 92.236548 
L 273.762419 92.206431 
L 274.762419 92.146654 
L 275.762419 92.109462 
L 276.762419 92.070366 
L 277.762419 92.027926 
L 278.762419 91.995161 
L 279.762419 91.927735 
L 280.762419 91.888609 
L 281.762419 91.845934 
L 282.762419 91.775354 
L 283.762419 91.738963 
L 284.762419 91.68056 
L 285.762419 91.569607 
L 286.762419 91.498949 
L 287.762419 91.386009 
L 288.762419 91.340236 
L 289.762419 91.278953 
L 290.762419 91.230454 
L 291.762419 91.149631 
L 292.762419 91.031112 
L 293.762419 90.960901 
L 294.762419 90.877639 
L 296.618831 90.844497 
" clip-path="url(#pb312d1e28a)" style="fill: none; stroke: #1f77b4; stroke-opacity: 0.5; stroke-width: 0.2; stroke-linecap: square"/>
   <path d="M 244.762419 135.323509 
L 245.762419 135.354946 
L 246.762419 135.391886 
L 247.762419 135.489632 
L 248.762419 135.522154 
L 249.762419 135.595779 
L 250.762419 135.634344 
L 251.762419 135.669758 
L 252.762419 135.727397 
L 253.762419 135.797784 
L 254.762419 135.849748 
L 255.762419 135.908838 
L 256.762419 135.997159 
L 257.762419 136.043303 
L 258.762419 136.085714 
L 259.762419 136.116206 
L 260.762419 136.142251 
L 261.762419 136.163452 
L 262.762419 136.217753 
L 263.762419 136.24569 
L 264.762419 136.275414 
L 265.762419 136.300809 
L 266.762419 136.312009 
L 267.762419 136.322133 
L 268.762419 136.321929 
L 269.762419 136.312419 
L 270.762419 136.300766 
L 271.762419 136.269736 
L 272.762419 136.258568 
L 273.762419 136.228451 
L 274.762419 136.168674 
L 275.762419 136.131482 
L 276.762419 136.092386 
L 277.762419 136.049947 
L 278.762419 136.017182 
L 279.762419 135.949755 
L 280.762419 135.910629 
L 281.762419 135.867955 
L 282.762419 135.797374 
L 283.762419 135.760983 
L 284.762419 135.70258 
L 285.762419 135.591627 
L 286.762419 135.520969 
L 287.762419 135.408029 
L 288.762419 135.362256 
L 289.762419 135.300973 
L 290.762419 135.252474 
L 291.762419 135.171651 
L 292.762419 135.053132 
L 293.762419 134.982922 
L 294.762419 134.899659 
L 296.618831 134.866517 
" clip-path="url(#pb312d1e28a)" style="fill: none; stroke: #1f77b4; stroke-opacity: 0.5; stroke-width: 0.2; stroke-linecap: square"/>
   <path d="M 244.762419 79.39762 
L 245.762419 79.429057 
L 246.762419 79.465997 
L 247.762419 79.563743 
L 248.762419 79.596265 
L 249.762419 79.66989 
L 250.762419 79.708455 
L 251.762419 79.743868 
L 252.762419 79.801508 
L 253.762419 79.871895 
L 254.762419 79.923859 
L 255.762419 79.982949 
L 256.762419 80.07127 
L 257.762419 80.117414 
L 258.762419 80.159825 
L 259.762419 80.190317 
L 260.762419 80.216362 
L 261.762419 80.237563 
L 262.762419 80.291864 
L 263.762419 80.319801 
L 264.762419 80.349525 
L 265.762419 80.37492 
L 266.762419 80.38612 
L 267.762419 80.396244 
L 268.762419 80.39604 
L 269.762419 80.38653 
L 270.762419 80.374877 
L 271.762419 80.343847 
L 272.762419 80.332679 
L 273.762419 80.302562 
L 274.762419 80.242785 
L 275.762419 80.205593 
L 276.762419 80.166497 
L 277.762419 80.124058 
L 278.762419 80.091293 
L 279.762419 80.023866 
L 280.762419 79.98474 
L 281.762419 79.942066 
L 282.762419 79.871485 
L 283.762419 79.835094 
L 284.762419 79.776691 
L 285.762419 79.665738 
L 286.762419 79.59508 
L 287.762419 79.48214 
L 288.762419 79.436367 
L 289.762419 79.375084 
L 290.762419 79.326585 
L 291.762419 79.245762 
L 292.762419 79.127243 
L 293.762419 79.057033 
L 294.762419 78.97377 
L 296.618831 78.940628 
" clip-path="url(#pb312d1e28a)" style="fill: none; stroke: #1f77b4; stroke-opacity: 0.5; stroke-width: 0.2; stroke-linecap: square"/>
   <path d="M 244.762419 159.36495 
L 245.762419 159.396387 
L 246.762419 159.433327 
L 247.762419 159.531074 
L 248.762419 159.563595 
L 249.762419 159.63722 
L 250.762419 159.675786 
L 251.762419 159.711199 
L 252.762419 159.768839 
L 253.762419 159.839225 
L 254.762419 159.891189 
L 255.762419 159.950279 
L 256.762419 160.0386 
L 257.762419 160.084744 
L 258.762419 160.127155 
L 259.762419 160.157648 
L 260.762419 160.183693 
L 261.762419 160.204893 
L 262.762419 160.259194 
L 263.762419 160.287131 
L 264.762419 160.316855 
L 265.762419 160.34225 
L 266.762419 160.353451 
L 267.762419 160.363575 
L 268.762419 160.36337 
L 269.762419 160.35386 
L 270.762419 160.342207 
L 271.762419 160.311178 
L 272.762419 160.30001 
L 273.762419 160.269892 
L 274.762419 160.210115 
L 275.762419 160.172924 
L 276.762419 160.133828 
L 277.762419 160.091388 
L 278.762419 160.058623 
L 279.762419 159.991196 
L 280.762419 159.95207 
L 281.762419 159.909396 
L 282.762419 159.838815 
L 283.762419 159.802424 
L 284.762419 159.744021 
L 285.762419 159.633069 
L 286.762419 159.56241 
L 287.762419 159.44947 
L 288.762419 159.403698 
L 289.762419 159.342414 
L 290.762419 159.293915 
L 291.762419 159.213092 
L 292.762419 159.094573 
L 293.762419 159.024363 
L 294.762419 158.9411 
L 296.618831 158.907959 
" clip-path="url(#pb312d1e28a)" style="fill: none; stroke: #1f77b4; stroke-opacity: 0.5; stroke-width: 0.2; stroke-linecap: square"/>
   <path d="M 244.762419 157.923883 
L 245.762419 157.955319 
L 246.762419 157.99226 
L 247.762419 158.090006 
L 248.762419 158.122528 
L 249.762419 158.196152 
L 250.762419 158.234718 
L 251.762419 158.270131 
L 252.762419 158.327771 
L 253.762419 158.398157 
L 254.762419 158.450122 
L 255.762419 158.509211 
L 256.762419 158.597532 
L 257.762419 158.643677 
L 258.762419 158.686087 
L 259.762419 158.71658 
L 260.762419 158.742625 
L 261.762419 158.763825 
L 262.762419 158.818126 
L 263.762419 158.846064 
L 264.762419 158.875788 
L 265.762419 158.901183 
L 266.762419 158.912383 
L 267.762419 158.922507 
L 268.762419 158.922303 
L 269.762419 158.912793 
L 270.762419 158.901139 
L 271.762419 158.87011 
L 272.762419 158.858942 
L 273.762419 158.828824 
L 274.762419 158.769048 
L 275.762419 158.731856 
L 276.762419 158.69276 
L 277.762419 158.65032 
L 278.762419 158.617555 
L 279.762419 158.550129 
L 280.762419 158.511003 
L 281.762419 158.468328 
L 282.762419 158.397748 
L 283.762419 158.361357 
L 284.762419 158.302954 
L 285.762419 158.192001 
L 286.762419 158.121343 
L 287.762419 158.008403 
L 288.762419 157.96263 
L 289.762419 157.901347 
L 290.762419 157.852847 
L 291.762419 157.772025 
L 292.762419 157.653506 
L 293.762419 157.583295 
L 294.762419 157.500033 
L 296.618831 157.466891 
" clip-path="url(#pb312d1e28a)" style="fill: none; stroke: #1f77b4; stroke-opacity: 0.5; stroke-width: 0.2; stroke-linecap: square"/>
   <path d="M 296.618831 241.327184 
L 295.618831 241.295748 
L 294.618831 241.258807 
L 293.618831 241.161061 
L 292.618831 241.128539 
L 291.618831 241.054915 
L 290.618831 241.016349 
L 289.618831 240.980936 
L 288.618831 240.923296 
L 287.618831 240.85291 
L 286.618831 240.800945 
L 285.618831 240.741856 
L 284.618831 240.653535 
L 283.618831 240.60739 
L 282.618831 240.56498 
L 281.618831 240.534487 
L 280.618831 240.508442 
L 279.618831 240.487242 
L 278.618831 240.432941 
L 277.618831 240.405003 
L 276.618831 240.375279 
L 275.618831 240.349884 
L 274.618831 240.338684 
L 273.618831 240.32856 
L 272.618831 240.328764 
L 271.618831 240.338274 
L 270.618831 240.349928 
L 269.618831 240.380957 
L 268.618831 240.392125 
L 267.618831 240.422243 
L 266.618831 240.482019 
L 265.618831 240.519211 
L 264.618831 240.558307 
L 263.618831 240.600747 
L 262.618831 240.633512 
L 261.618831 240.700938 
L 260.618831 240.740064 
L 259.618831 240.782739 
L 258.618831 240.853319 
L 257.618831 240.88971 
L 256.618831 240.948113 
L 255.618831 241.059066 
L 254.618831 241.129724 
L 253.618831 241.242664 
L 252.618831 241.288437 
L 251.618831 241.34972 
L 250.618831 241.39822 
L 249.618831 241.479042 
L 248.618831 241.597561 
L 247.618831 241.667772 
L 246.618831 241.751034 
L 244.762419 241.784176 
" clip-path="url(#pb312d1e28a)" style="fill: none; stroke: #ff7f0e; stroke-opacity: 0.5; stroke-width: 0.2; stroke-linecap: square"/>
   <path d="M 296.618831 258.130324 
L 295.618831 258.098888 
L 294.618831 258.061947 
L 293.618831 257.964201 
L 292.618831 257.931679 
L 291.618831 257.858054 
L 290.618831 257.819489 
L 289.618831 257.784076 
L 288.618831 257.726436 
L 287.618831 257.656049 
L 286.618831 257.604085 
L 285.618831 257.544995 
L 284.618831 257.456675 
L 283.618831 257.41053 
L 282.618831 257.368119 
L 281.618831 257.337627 
L 280.618831 257.311582 
L 279.618831 257.290382 
L 278.618831 257.23608 
L 277.618831 257.208143 
L 276.618831 257.178419 
L 275.618831 257.153024 
L 274.618831 257.141824 
L 273.618831 257.1317 
L 272.618831 257.131904 
L 271.618831 257.141414 
L 270.618831 257.153068 
L 269.618831 257.184097 
L 268.618831 257.195265 
L 267.618831 257.225382 
L 266.618831 257.285159 
L 265.618831 257.322351 
L 264.618831 257.361447 
L 263.618831 257.403886 
L 262.618831 257.436652 
L 261.618831 257.504078 
L 260.618831 257.543204 
L 259.618831 257.585878 
L 258.618831 257.656459 
L 257.618831 257.69285 
L 256.618831 257.751253 
L 255.618831 257.862206 
L 254.618831 257.932864 
L 253.618831 258.045804 
L 252.618831 258.091577 
L 251.618831 258.15286 
L 250.618831 258.201359 
L 249.618831 258.282182 
L 248.618831 258.400701 
L 247.618831 258.470912 
L 246.618831 258.554174 
L 244.762419 258.587316 
" clip-path="url(#pb312d1e28a)" style="fill: none; stroke: #ff7f0e; stroke-opacity: 0.5; stroke-width: 0.2; stroke-linecap: square"/>
   <path d="M 296.618831 201.070777 
L 295.618831 201.039341 
L 294.618831 201.0024 
L 293.618831 200.904654 
L 292.618831 200.872132 
L 291.618831 200.798507 
L 290.618831 200.759942 
L 289.618831 200.724529 
L 288.618831 200.666889 
L 287.618831 200.596502 
L 286.618831 200.544538 
L 285.618831 200.485448 
L 284.618831 200.397128 
L 283.618831 200.350983 
L 282.618831 200.308572 
L 281.618831 200.27808 
L 280.618831 200.252035 
L 279.618831 200.230835 
L 278.618831 200.176533 
L 277.618831 200.148596 
L 276.618831 200.118872 
L 275.618831 200.093477 
L 274.618831 200.082277 
L 273.618831 200.072153 
L 272.618831 200.072357 
L 271.618831 200.081867 
L 270.618831 200.093521 
L 269.618831 200.12455 
L 268.618831 200.135718 
L 267.618831 200.165835 
L 266.618831 200.225612 
L 265.618831 200.262804 
L 264.618831 200.3019 
L 263.618831 200.344339 
L 262.618831 200.377105 
L 261.618831 200.444531 
L 260.618831 200.483657 
L 259.618831 200.526331 
L 258.618831 200.596912 
L 257.618831 200.633303 
L 256.618831 200.691706 
L 255.618831 200.802659 
L 254.618831 200.873317 
L 253.618831 200.986257 
L 252.618831 201.03203 
L 251.618831 201.093313 
L 250.618831 201.141812 
L 249.618831 201.222635 
L 248.618831 201.341154 
L 247.618831 201.411365 
L 246.618831 201.494627 
L 244.762419 201.527769 
" clip-path="url(#pb312d1e28a)" style="fill: none; stroke: #ff7f0e; stroke-opacity: 0.5; stroke-width: 0.2; stroke-linecap: square"/>
   <path d="M 296.618831 224.523195 
L 295.618831 224.491758 
L 294.618831 224.454818 
L 293.618831 224.357071 
L 292.618831 224.32455 
L 291.618831 224.250925 
L 290.618831 224.212359 
L 289.618831 224.176946 
L 288.618831 224.119306 
L 287.618831 224.04892 
L 286.618831 223.996956 
L 285.618831 223.937866 
L 284.618831 223.849545 
L 283.618831 223.803401 
L 282.618831 223.76099 
L 281.618831 223.730497 
L 280.618831 223.704452 
L 279.618831 223.683252 
L 278.618831 223.628951 
L 277.618831 223.601014 
L 276.618831 223.57129 
L 275.618831 223.545895 
L 274.618831 223.534694 
L 273.618831 223.52457 
L 272.618831 223.524775 
L 271.618831 223.534285 
L 270.618831 223.545938 
L 269.618831 223.576968 
L 268.618831 223.588135 
L 267.618831 223.618253 
L 266.618831 223.67803 
L 265.618831 223.715221 
L 264.618831 223.754318 
L 263.618831 223.796757 
L 262.618831 223.829522 
L 261.618831 223.896949 
L 260.618831 223.936075 
L 259.618831 223.978749 
L 258.618831 224.04933 
L 257.618831 224.085721 
L 256.618831 224.144124 
L 255.618831 224.255076 
L 254.618831 224.325735 
L 253.618831 224.438675 
L 252.618831 224.484447 
L 251.618831 224.545731 
L 250.618831 224.59423 
L 249.618831 224.675053 
L 248.618831 224.793572 
L 247.618831 224.863782 
L 246.618831 224.947045 
L 244.762419 224.980187 
" clip-path="url(#pb312d1e28a)" style="fill: none; stroke: #ff7f0e; stroke-opacity: 0.5; stroke-width: 0.2; stroke-linecap: square"/>
   <path d="M 296.618831 259.46278 
L 295.618831 259.431343 
L 294.618831 259.394403 
L 293.618831 259.296656 
L 292.618831 259.264135 
L 291.618831 259.19051 
L 290.618831 259.151944 
L 289.618831 259.116531 
L 288.618831 259.058891 
L 287.618831 258.988505 
L 286.618831 258.936541 
L 285.618831 258.877451 
L 284.618831 258.78913 
L 283.618831 258.742986 
L 282.618831 258.700575 
L 281.618831 258.670082 
L 280.618831 258.644037 
L 279.618831 258.622837 
L 278.618831 258.568536 
L 277.618831 258.540598 
L 276.618831 258.510875 
L 275.618831 258.48548 
L 274.618831 258.474279 
L 273.618831 258.464155 
L 272.618831 258.46436 
L 271.618831 258.47387 
L 270.618831 258.485523 
L 269.618831 258.516552 
L 268.618831 258.52772 
L 267.618831 258.557838 
L 266.618831 258.617615 
L 265.618831 258.654806 
L 264.618831 258.693902 
L 263.618831 258.736342 
L 262.618831 258.769107 
L 261.618831 258.836534 
L 260.618831 258.87566 
L 259.618831 258.918334 
L 258.618831 258.988915 
L 257.618831 259.025306 
L 256.618831 259.083709 
L 255.618831 259.194661 
L 254.618831 259.26532 
L 253.618831 259.378259 
L 252.618831 259.424032 
L 251.618831 259.485316 
L 250.618831 259.533815 
L 249.618831 259.614638 
L 248.618831 259.733157 
L 247.618831 259.803367 
L 246.618831 259.88663 
L 244.762419 259.919771 
" clip-path="url(#pb312d1e28a)" style="fill: none; stroke: #ff7f0e; stroke-opacity: 0.5; stroke-width: 0.2; stroke-linecap: square"/>
   <path d="M 296.618831 258.519288 
L 295.618831 258.487851 
L 294.618831 258.450911 
L 293.618831 258.353164 
L 292.618831 258.320643 
L 291.618831 258.247018 
L 290.618831 258.208452 
L 289.618831 258.173039 
L 288.618831 258.115399 
L 287.618831 258.045013 
L 286.618831 257.993049 
L 285.618831 257.933959 
L 284.618831 257.845638 
L 283.618831 257.799494 
L 282.618831 257.757083 
L 281.618831 257.72659 
L 280.618831 257.700545 
L 279.618831 257.679345 
L 278.618831 257.625044 
L 277.618831 257.597107 
L 276.618831 257.567383 
L 275.618831 257.541988 
L 274.618831 257.530787 
L 273.618831 257.520663 
L 272.618831 257.520868 
L 271.618831 257.530378 
L 270.618831 257.542031 
L 269.618831 257.573061 
L 268.618831 257.584228 
L 267.618831 257.614346 
L 266.618831 257.674123 
L 265.618831 257.711314 
L 264.618831 257.750411 
L 263.618831 257.79285 
L 262.618831 257.825615 
L 261.618831 257.893042 
L 260.618831 257.932168 
L 259.618831 257.974842 
L 258.618831 258.045423 
L 257.618831 258.081814 
L 256.618831 258.140217 
L 255.618831 258.251169 
L 254.618831 258.321828 
L 253.618831 258.434768 
L 252.618831 258.48054 
L 251.618831 258.541824 
L 250.618831 258.590323 
L 249.618831 258.671146 
L 248.618831 258.789665 
L 247.618831 258.859875 
L 246.618831 258.943138 
L 244.762419 258.976279 
" clip-path="url(#pb312d1e28a)" style="fill: none; stroke: #ff7f0e; stroke-opacity: 0.5; stroke-width: 0.2; stroke-linecap: square"/>
   <path d="M 296.618831 170.630326 
L 295.618831 170.59889 
L 294.618831 170.56195 
L 293.618831 170.464203 
L 292.618831 170.431681 
L 291.618831 170.358057 
L 290.618831 170.319491 
L 289.618831 170.284078 
L 288.618831 170.226438 
L 287.618831 170.156052 
L 286.618831 170.104088 
L 285.618831 170.044998 
L 284.618831 169.956677 
L 283.618831 169.910533 
L 282.618831 169.868122 
L 281.618831 169.837629 
L 280.618831 169.811584 
L 279.618831 169.790384 
L 278.618831 169.736083 
L 277.618831 169.708145 
L 276.618831 169.678421 
L 275.618831 169.653027 
L 274.618831 169.641826 
L 273.618831 169.631702 
L 272.618831 169.631907 
L 271.618831 169.641416 
L 270.618831 169.65307 
L 269.618831 169.684099 
L 268.618831 169.695267 
L 267.618831 169.725385 
L 266.618831 169.785162 
L 265.618831 169.822353 
L 264.618831 169.861449 
L 263.618831 169.903889 
L 262.618831 169.936654 
L 261.618831 170.00408 
L 260.618831 170.043206 
L 259.618831 170.085881 
L 258.618831 170.156461 
L 257.618831 170.192852 
L 256.618831 170.251256 
L 255.618831 170.362208 
L 254.618831 170.432866 
L 253.618831 170.545806 
L 252.618831 170.591579 
L 251.618831 170.652862 
L 250.618831 170.701362 
L 249.618831 170.782184 
L 248.618831 170.900703 
L 247.618831 170.970914 
L 246.618831 171.054176 
L 244.762419 171.087318 
" clip-path="url(#pb312d1e28a)" style="fill: none; stroke: #ff7f0e; stroke-opacity: 0.5; stroke-width: 0.2; stroke-linecap: square"/>
   <path d="M 296.618831 209.381409 
L 295.618831 209.349973 
L 294.618831 209.313032 
L 293.618831 209.215286 
L 292.618831 209.182764 
L 291.618831 209.109139 
L 290.618831 209.070574 
L 289.618831 209.035161 
L 288.618831 208.977521 
L 287.618831 208.907135 
L 286.618831 208.85517 
L 285.618831 208.796081 
L 284.618831 208.70776 
L 283.618831 208.661615 
L 282.618831 208.619204 
L 281.618831 208.588712 
L 280.618831 208.562667 
L 279.618831 208.541467 
L 278.618831 208.487166 
L 277.618831 208.459228 
L 276.618831 208.429504 
L 275.618831 208.404109 
L 274.618831 208.392909 
L 273.618831 208.382785 
L 272.618831 208.382989 
L 271.618831 208.392499 
L 270.618831 208.404153 
L 269.618831 208.435182 
L 268.618831 208.44635 
L 267.618831 208.476467 
L 266.618831 208.536244 
L 265.618831 208.573436 
L 264.618831 208.612532 
L 263.618831 208.654972 
L 262.618831 208.687737 
L 261.618831 208.755163 
L 260.618831 208.794289 
L 259.618831 208.836964 
L 258.618831 208.907544 
L 257.618831 208.943935 
L 256.618831 209.002338 
L 255.618831 209.113291 
L 254.618831 209.183949 
L 253.618831 209.296889 
L 252.618831 209.342662 
L 251.618831 209.403945 
L 250.618831 209.452444 
L 249.618831 209.533267 
L 248.618831 209.651786 
L 247.618831 209.721997 
L 246.618831 209.805259 
L 244.762419 209.838401 
" clip-path="url(#pb312d1e28a)" style="fill: none; stroke: #ff7f0e; stroke-opacity: 0.5; stroke-width: 0.2; stroke-linecap: square"/>
   <path d="M 296.618831 176.48681 
L 295.618831 176.455373 
L 294.618831 176.418433 
L 293.618831 176.320686 
L 292.618831 176.288165 
L 291.618831 176.21454 
L 290.618831 176.175974 
L 289.618831 176.140561 
L 288.618831 176.082921 
L 287.618831 176.012535 
L 286.618831 175.960571 
L 285.618831 175.901481 
L 284.618831 175.81316 
L 283.618831 175.767016 
L 282.618831 175.724605 
L 281.618831 175.694112 
L 280.618831 175.668067 
L 279.618831 175.646867 
L 278.618831 175.592566 
L 277.618831 175.564629 
L 276.618831 175.534905 
L 275.618831 175.50951 
L 274.618831 175.498309 
L 273.618831 175.488185 
L 272.618831 175.48839 
L 271.618831 175.4979 
L 270.618831 175.509553 
L 269.618831 175.540582 
L 268.618831 175.55175 
L 267.618831 175.581868 
L 266.618831 175.641645 
L 265.618831 175.678836 
L 264.618831 175.717932 
L 263.618831 175.760372 
L 262.618831 175.793137 
L 261.618831 175.860564 
L 260.618831 175.89969 
L 259.618831 175.942364 
L 258.618831 176.012945 
L 257.618831 176.049336 
L 256.618831 176.107739 
L 255.618831 176.218691 
L 254.618831 176.28935 
L 253.618831 176.40229 
L 252.618831 176.448062 
L 251.618831 176.509346 
L 250.618831 176.557845 
L 249.618831 176.638668 
L 248.618831 176.757187 
L 247.618831 176.827397 
L 246.618831 176.91066 
L 244.762419 176.943801 
" clip-path="url(#pb312d1e28a)" style="fill: none; stroke: #ff7f0e; stroke-opacity: 0.5; stroke-width: 0.2; stroke-linecap: square"/>
   <path d="M 296.618831 255.307498 
L 295.618831 255.276062 
L 294.618831 255.239122 
L 293.618831 255.141375 
L 292.618831 255.108853 
L 291.618831 255.035229 
L 290.618831 254.996663 
L 289.618831 254.96125 
L 288.618831 254.90361 
L 287.618831 254.833224 
L 286.618831 254.78126 
L 285.618831 254.72217 
L 284.618831 254.633849 
L 283.618831 254.587705 
L 282.618831 254.545294 
L 281.618831 254.514801 
L 280.618831 254.488756 
L 279.618831 254.467556 
L 278.618831 254.413255 
L 277.618831 254.385317 
L 276.618831 254.355593 
L 275.618831 254.330199 
L 274.618831 254.318998 
L 273.618831 254.308874 
L 272.618831 254.309079 
L 271.618831 254.318588 
L 270.618831 254.330242 
L 269.618831 254.361271 
L 268.618831 254.372439 
L 267.618831 254.402557 
L 266.618831 254.462334 
L 265.618831 254.499525 
L 264.618831 254.538621 
L 263.618831 254.581061 
L 262.618831 254.613826 
L 261.618831 254.681252 
L 260.618831 254.720378 
L 259.618831 254.763053 
L 258.618831 254.833634 
L 257.618831 254.870024 
L 256.618831 254.928428 
L 255.618831 255.03938 
L 254.618831 255.110038 
L 253.618831 255.222978 
L 252.618831 255.268751 
L 251.618831 255.330034 
L 250.618831 255.378534 
L 249.618831 255.459356 
L 248.618831 255.577875 
L 247.618831 255.648086 
L 246.618831 255.731348 
L 244.762419 255.76449 
" clip-path="url(#pb312d1e28a)" style="fill: none; stroke: #ff7f0e; stroke-opacity: 0.5; stroke-width: 0.2; stroke-linecap: square"/>
   <path d="M 244.762419 243.894381 
L 245.762419 243.925818 
L 246.762419 243.962758 
L 247.762419 244.060505 
L 248.762419 244.093026 
L 249.762419 244.166651 
L 250.762419 244.205216 
L 251.762419 244.24063 
L 252.762419 244.29827 
L 253.762419 244.368656 
L 254.762419 244.42062 
L 255.762419 244.47971 
L 256.762419 244.568031 
L 257.762419 244.614175 
L 258.762419 244.656586 
L 259.762419 244.687079 
L 260.762419 244.713124 
L 261.762419 244.734324 
L 262.762419 244.788625 
L 263.762419 244.816562 
L 264.762419 244.846286 
L 265.762419 244.871681 
L 266.762419 244.882881 
L 267.762419 244.893005 
L 268.762419 244.892801 
L 269.762419 244.883291 
L 270.762419 244.871638 
L 271.762419 244.840608 
L 272.762419 244.82944 
L 273.762419 244.799323 
L 274.762419 244.739546 
L 275.762419 244.702354 
L 276.762419 244.663258 
L 277.762419 244.620819 
L 278.762419 244.588054 
L 279.762419 244.520627 
L 280.762419 244.481501 
L 281.762419 244.438827 
L 282.762419 244.368246 
L 283.762419 244.331855 
L 284.762419 244.273452 
L 285.762419 244.162499 
L 286.762419 244.091841 
L 287.762419 243.978901 
L 288.762419 243.933128 
L 289.762419 243.871845 
L 290.762419 243.823346 
L 291.762419 243.742523 
L 292.762419 243.624004 
L 293.762419 243.553794 
L 294.762419 243.470531 
L 296.618831 243.437389 
" clip-path="url(#pb312d1e28a)" style="fill: none; stroke: #1f77b4; stroke-opacity: 0.5; stroke-width: 0.2; stroke-linecap: square"/>
   <path d="M 244.762419 212.451848 
L 245.762419 212.483284 
L 246.762419 212.520225 
L 247.762419 212.617971 
L 248.762419 212.650493 
L 249.762419 212.724117 
L 250.762419 212.762683 
L 251.762419 212.798096 
L 252.762419 212.855736 
L 253.762419 212.926122 
L 254.762419 212.978086 
L 255.762419 213.037176 
L 256.762419 213.125497 
L 257.762419 213.171642 
L 258.762419 213.214052 
L 259.762419 213.244545 
L 260.762419 213.27059 
L 261.762419 213.29179 
L 262.762419 213.346091 
L 263.762419 213.374029 
L 264.762419 213.403753 
L 265.762419 213.429148 
L 266.762419 213.440348 
L 267.762419 213.450472 
L 268.762419 213.450268 
L 269.762419 213.440758 
L 270.762419 213.429104 
L 271.762419 213.398075 
L 272.762419 213.386907 
L 273.762419 213.356789 
L 274.762419 213.297013 
L 275.762419 213.259821 
L 276.762419 213.220725 
L 277.762419 213.178285 
L 278.762419 213.14552 
L 279.762419 213.078094 
L 280.762419 213.038968 
L 281.762419 212.996293 
L 282.762419 212.925713 
L 283.762419 212.889322 
L 284.762419 212.830919 
L 285.762419 212.719966 
L 286.762419 212.649308 
L 287.762419 212.536368 
L 288.762419 212.490595 
L 289.762419 212.429312 
L 290.762419 212.380812 
L 291.762419 212.29999 
L 292.762419 212.181471 
L 293.762419 212.11126 
L 294.762419 212.027998 
L 296.618831 211.994856 
" clip-path="url(#pb312d1e28a)" style="fill: none; stroke: #1f77b4; stroke-opacity: 0.5; stroke-width: 0.2; stroke-linecap: square"/>
   <path d="M 244.762419 215.693722 
L 245.762419 215.725159 
L 246.762419 215.762099 
L 247.762419 215.859846 
L 248.762419 215.892367 
L 249.762419 215.965992 
L 250.762419 216.004558 
L 251.762419 216.039971 
L 252.762419 216.097611 
L 253.762419 216.167997 
L 254.762419 216.219961 
L 255.762419 216.279051 
L 256.762419 216.367372 
L 257.762419 216.413516 
L 258.762419 216.455927 
L 259.762419 216.48642 
L 260.762419 216.512465 
L 261.762419 216.533665 
L 262.762419 216.587966 
L 263.762419 216.615903 
L 264.762419 216.645627 
L 265.762419 216.671022 
L 266.762419 216.682223 
L 267.762419 216.692347 
L 268.762419 216.692142 
L 269.762419 216.682632 
L 270.762419 216.670979 
L 271.762419 216.639949 
L 272.762419 216.628782 
L 273.762419 216.598664 
L 274.762419 216.538887 
L 275.762419 216.501696 
L 276.762419 216.462599 
L 277.762419 216.42016 
L 278.762419 216.387395 
L 279.762419 216.319968 
L 280.762419 216.280842 
L 281.762419 216.238168 
L 282.762419 216.167587 
L 283.762419 216.131196 
L 284.762419 216.072793 
L 285.762419 215.961841 
L 286.762419 215.891182 
L 287.762419 215.778242 
L 288.762419 215.73247 
L 289.762419 215.671186 
L 290.762419 215.622687 
L 291.762419 215.541864 
L 292.762419 215.423345 
L 293.762419 215.353135 
L 294.762419 215.269872 
L 296.618831 215.236731 
" clip-path="url(#pb312d1e28a)" style="fill: none; stroke: #1f77b4; stroke-opacity: 0.5; stroke-width: 0.2; stroke-linecap: square"/>
   <path d="M 244.762419 217.843923 
L 245.762419 217.875359 
L 246.762419 217.912299 
L 247.762419 218.010046 
L 248.762419 218.042567 
L 249.762419 218.116192 
L 250.762419 218.154758 
L 251.762419 218.190171 
L 252.762419 218.247811 
L 253.762419 218.318197 
L 254.762419 218.370161 
L 255.762419 218.429251 
L 256.762419 218.517572 
L 257.762419 218.563716 
L 258.762419 218.606127 
L 259.762419 218.63662 
L 260.762419 218.662665 
L 261.762419 218.683865 
L 262.762419 218.738166 
L 263.762419 218.766104 
L 264.762419 218.795828 
L 265.762419 218.821222 
L 266.762419 218.832423 
L 267.762419 218.842547 
L 268.762419 218.842342 
L 269.762419 218.832833 
L 270.762419 218.821179 
L 271.762419 218.79015 
L 272.762419 218.778982 
L 273.762419 218.748864 
L 274.762419 218.689087 
L 275.762419 218.651896 
L 276.762419 218.6128 
L 277.762419 218.57036 
L 278.762419 218.537595 
L 279.762419 218.470168 
L 280.762419 218.431043 
L 281.762419 218.388368 
L 282.762419 218.317787 
L 283.762419 218.281397 
L 284.762419 218.222993 
L 285.762419 218.112041 
L 286.762419 218.041382 
L 287.762419 217.928443 
L 288.762419 217.88267 
L 289.762419 217.821387 
L 290.762419 217.772887 
L 291.762419 217.692065 
L 292.762419 217.573546 
L 293.762419 217.503335 
L 294.762419 217.420072 
L 296.618831 217.386931 
" clip-path="url(#pb312d1e28a)" style="fill: none; stroke: #1f77b4; stroke-opacity: 0.5; stroke-width: 0.2; stroke-linecap: square"/>
   <path d="M 244.762419 230.508558 
L 245.762419 230.539995 
L 246.762419 230.576935 
L 247.762419 230.674682 
L 248.762419 230.707203 
L 249.762419 230.780828 
L 250.762419 230.819393 
L 251.762419 230.854807 
L 252.762419 230.912446 
L 253.762419 230.982833 
L 254.762419 231.034797 
L 255.762419 231.093887 
L 256.762419 231.182208 
L 257.762419 231.228352 
L 258.762419 231.270763 
L 259.762419 231.301256 
L 260.762419 231.3273 
L 261.762419 231.348501 
L 262.762419 231.402802 
L 263.762419 231.430739 
L 264.762419 231.460463 
L 265.762419 231.485858 
L 266.762419 231.497058 
L 267.762419 231.507182 
L 268.762419 231.506978 
L 269.762419 231.497468 
L 270.762419 231.485815 
L 271.762419 231.454785 
L 272.762419 231.443617 
L 273.762419 231.4135 
L 274.762419 231.353723 
L 275.762419 231.316531 
L 276.762419 231.277435 
L 277.762419 231.234996 
L 278.762419 231.202231 
L 279.762419 231.134804 
L 280.762419 231.095678 
L 281.762419 231.053004 
L 282.762419 230.982423 
L 283.762419 230.946032 
L 284.762419 230.887629 
L 285.762419 230.776676 
L 286.762419 230.706018 
L 287.762419 230.593078 
L 288.762419 230.547305 
L 289.762419 230.486022 
L 290.762419 230.437523 
L 291.762419 230.3567 
L 292.762419 230.238181 
L 293.762419 230.167971 
L 294.762419 230.084708 
L 296.618831 230.051566 
" clip-path="url(#pb312d1e28a)" style="fill: none; stroke: #1f77b4; stroke-opacity: 0.5; stroke-width: 0.2; stroke-linecap: square"/>
   <path d="M 244.762419 231.204954 
L 245.762419 231.23639 
L 246.762419 231.27333 
L 247.762419 231.371077 
L 248.762419 231.403599 
L 249.762419 231.477223 
L 250.762419 231.515789 
L 251.762419 231.551202 
L 252.762419 231.608842 
L 253.762419 231.679228 
L 254.762419 231.731192 
L 255.762419 231.790282 
L 256.762419 231.878603 
L 257.762419 231.924747 
L 258.762419 231.967158 
L 259.762419 231.997651 
L 260.762419 232.023696 
L 261.762419 232.044896 
L 262.762419 232.099197 
L 263.762419 232.127135 
L 264.762419 232.156859 
L 265.762419 232.182253 
L 266.762419 232.193454 
L 267.762419 232.203578 
L 268.762419 232.203373 
L 269.762419 232.193864 
L 270.762419 232.18221 
L 271.762419 232.151181 
L 272.762419 232.140013 
L 273.762419 232.109895 
L 274.762419 232.050118 
L 275.762419 232.012927 
L 276.762419 231.973831 
L 277.762419 231.931391 
L 278.762419 231.898626 
L 279.762419 231.831199 
L 280.762419 231.792074 
L 281.762419 231.749399 
L 282.762419 231.678818 
L 283.762419 231.642428 
L 284.762419 231.584024 
L 285.762419 231.473072 
L 286.762419 231.402413 
L 287.762419 231.289474 
L 288.762419 231.243701 
L 289.762419 231.182418 
L 290.762419 231.133918 
L 291.762419 231.053096 
L 292.762419 230.934577 
L 293.762419 230.864366 
L 294.762419 230.781104 
L 296.618831 230.747962 
" clip-path="url(#pb312d1e28a)" style="fill: none; stroke: #1f77b4; stroke-opacity: 0.5; stroke-width: 0.2; stroke-linecap: square"/>
   <path d="M 244.762419 217.210796 
L 245.762419 217.242232 
L 246.762419 217.279172 
L 247.762419 217.376919 
L 248.762419 217.40944 
L 249.762419 217.483065 
L 250.762419 217.521631 
L 251.762419 217.557044 
L 252.762419 217.614684 
L 253.762419 217.68507 
L 254.762419 217.737034 
L 255.762419 217.796124 
L 256.762419 217.884445 
L 257.762419 217.930589 
L 258.762419 217.973 
L 259.762419 218.003493 
L 260.762419 218.029538 
L 261.762419 218.050738 
L 262.762419 218.105039 
L 263.762419 218.132977 
L 264.762419 218.162701 
L 265.762419 218.188095 
L 266.762419 218.199296 
L 267.762419 218.20942 
L 268.762419 218.209215 
L 269.762419 218.199705 
L 270.762419 218.188052 
L 271.762419 218.157023 
L 272.762419 218.145855 
L 273.762419 218.115737 
L 274.762419 218.05596 
L 275.762419 218.018769 
L 276.762419 217.979673 
L 277.762419 217.937233 
L 278.762419 217.904468 
L 279.762419 217.837041 
L 280.762419 217.797915 
L 281.762419 217.755241 
L 282.762419 217.68466 
L 283.762419 217.648269 
L 284.762419 217.589866 
L 285.762419 217.478914 
L 286.762419 217.408255 
L 287.762419 217.295316 
L 288.762419 217.249543 
L 289.762419 217.188259 
L 290.762419 217.13976 
L 291.762419 217.058937 
L 292.762419 216.940419 
L 293.762419 216.870208 
L 294.762419 216.786945 
L 296.618831 216.753804 
" clip-path="url(#pb312d1e28a)" style="fill: none; stroke: #1f77b4; stroke-opacity: 0.5; stroke-width: 0.2; stroke-linecap: square"/>
   <path d="M 244.762419 205.150944 
L 245.762419 205.182381 
L 246.762419 205.219321 
L 247.762419 205.317068 
L 248.762419 205.349589 
L 249.762419 205.423214 
L 250.762419 205.46178 
L 251.762419 205.497193 
L 252.762419 205.554833 
L 253.762419 205.625219 
L 254.762419 205.677183 
L 255.762419 205.736273 
L 256.762419 205.824594 
L 257.762419 205.870738 
L 258.762419 205.913149 
L 259.762419 205.943642 
L 260.762419 205.969687 
L 261.762419 205.990887 
L 262.762419 206.045188 
L 263.762419 206.073125 
L 264.762419 206.102849 
L 265.762419 206.128244 
L 266.762419 206.139445 
L 267.762419 206.149568 
L 268.762419 206.149364 
L 269.762419 206.139854 
L 270.762419 206.128201 
L 271.762419 206.097171 
L 272.762419 206.086004 
L 273.762419 206.055886 
L 274.762419 205.996109 
L 275.762419 205.958918 
L 276.762419 205.919821 
L 277.762419 205.877382 
L 278.762419 205.844617 
L 279.762419 205.77719 
L 280.762419 205.738064 
L 281.762419 205.69539 
L 282.762419 205.624809 
L 283.762419 205.588418 
L 284.762419 205.530015 
L 285.762419 205.419063 
L 286.762419 205.348404 
L 287.762419 205.235464 
L 288.762419 205.189692 
L 289.762419 205.128408 
L 290.762419 205.079909 
L 291.762419 204.999086 
L 292.762419 204.880567 
L 293.762419 204.810357 
L 294.762419 204.727094 
L 296.618831 204.693952 
" clip-path="url(#pb312d1e28a)" style="fill: none; stroke: #1f77b4; stroke-opacity: 0.5; stroke-width: 0.2; stroke-linecap: square"/>
   <path d="M 244.762419 221.322908 
L 245.762419 221.354345 
L 246.762419 221.391285 
L 247.762419 221.489031 
L 248.762419 221.521553 
L 249.762419 221.595178 
L 250.762419 221.633743 
L 251.762419 221.669157 
L 252.762419 221.726796 
L 253.762419 221.797183 
L 254.762419 221.849147 
L 255.762419 221.908237 
L 256.762419 221.996558 
L 257.762419 222.042702 
L 258.762419 222.085113 
L 259.762419 222.115605 
L 260.762419 222.14165 
L 261.762419 222.162851 
L 262.762419 222.217152 
L 263.762419 222.245089 
L 264.762419 222.274813 
L 265.762419 222.300208 
L 266.762419 222.311408 
L 267.762419 222.321532 
L 268.762419 222.321328 
L 269.762419 222.311818 
L 270.762419 222.300165 
L 271.762419 222.269135 
L 272.762419 222.257967 
L 273.762419 222.22785 
L 274.762419 222.168073 
L 275.762419 222.130881 
L 276.762419 222.091785 
L 277.762419 222.049346 
L 278.762419 222.016581 
L 279.762419 221.949154 
L 280.762419 221.910028 
L 281.762419 221.867354 
L 282.762419 221.796773 
L 283.762419 221.760382 
L 284.762419 221.701979 
L 285.762419 221.591026 
L 286.762419 221.520368 
L 287.762419 221.407428 
L 288.762419 221.361655 
L 289.762419 221.300372 
L 290.762419 221.251873 
L 291.762419 221.17105 
L 292.762419 221.052531 
L 293.762419 220.982321 
L 294.762419 220.899058 
L 296.618831 220.865916 
" clip-path="url(#pb312d1e28a)" style="fill: none; stroke: #1f77b4; stroke-opacity: 0.5; stroke-width: 0.2; stroke-linecap: square"/>
   <path d="M 244.762419 253.987451 
L 245.762419 254.018888 
L 246.762419 254.055828 
L 247.762419 254.153575 
L 248.762419 254.186096 
L 249.762419 254.259721 
L 250.762419 254.298286 
L 251.762419 254.3337 
L 252.762419 254.391339 
L 253.762419 254.461726 
L 254.762419 254.51369 
L 255.762419 254.57278 
L 256.762419 254.661101 
L 257.762419 254.707245 
L 258.762419 254.749656 
L 259.762419 254.780149 
L 260.762419 254.806193 
L 261.762419 254.827394 
L 262.762419 254.881695 
L 263.762419 254.909632 
L 264.762419 254.939356 
L 265.762419 254.964751 
L 266.762419 254.975951 
L 267.762419 254.986075 
L 268.762419 254.985871 
L 269.762419 254.976361 
L 270.762419 254.964708 
L 271.762419 254.933678 
L 272.762419 254.92251 
L 273.762419 254.892393 
L 274.762419 254.832616 
L 275.762419 254.795424 
L 276.762419 254.756328 
L 277.762419 254.713889 
L 278.762419 254.681124 
L 279.762419 254.613697 
L 280.762419 254.574571 
L 281.762419 254.531897 
L 282.762419 254.461316 
L 283.762419 254.424925 
L 284.762419 254.366522 
L 285.762419 254.255569 
L 286.762419 254.184911 
L 287.762419 254.071971 
L 288.762419 254.026198 
L 289.762419 253.964915 
L 290.762419 253.916416 
L 291.762419 253.835593 
L 292.762419 253.717074 
L 293.762419 253.646864 
L 294.762419 253.563601 
L 296.618831 253.530459 
" clip-path="url(#pb312d1e28a)" style="fill: none; stroke: #1f77b4; stroke-opacity: 0.5; stroke-width: 0.2; stroke-linecap: square"/>
   <g id="patch_3">
    <path d="M 64.409375 22.318125 
L 64.409375 260.421875 
M 240.224232 22.318125 
L 240.224232 260.421875 
" clip-path="url(#pb312d1e28a)" style="fill: none; stroke: #ffffff; stroke-width: 3; stroke-linejoin: miter"/>
    <path d="M 64.409375 22.318125 
L 64.409375 260.421875 
M 240.224232 22.318125 
L 240.224232 260.421875 
" clip-path="url(#pb312d1e28a)" style="fill: none; stroke: #1f77b4; stroke-linejoin: miter"/>
    <g id="PolyCollection_1">
     <path d="M 240.224232 22.318125 
L 64.409375 22.318125 
L 64.409375 260.421875 
L 240.224232 260.421875 
L 240.224232 260.421875 
L 240.224232 22.318125 
z
" clip-path="url(#pb312d1e28a)" style="fill: #1f77b4; fill-opacity: 0.5"/>
    </g>
    <g id="patch_4">
     <path d="M 301.157018 22.318125 
L 301.157018 260.421875 
M 476.971875 22.318125 
L 476.971875 260.421875 
" clip-path="url(#pb312d1e28a)" style="fill: none; stroke: #ffffff; stroke-width: 3; stroke-linejoin: miter"/>
     <path d="M 301.157018 22.318125 
L 301.157018 260.421875 
M 476.971875 22.318125 
L 476.971875 260.421875 
" clip-path="url(#pb312d1e28a)" style="fill: none; stroke: #ff7f0e; stroke-linejoin: miter"/>
     <g id="PolyCollection_2">
      <path d="M 476.971875 22.318125 
L 301.157018 22.318125 
L 301.157018 260.421875 
L 476.971875 260.421875 
L 476.971875 260.421875 
L 476.971875 22.318125 
z
" clip-path="url(#pb312d1e28a)" style="fill: #ff7f0e; fill-opacity: 0.5"/>
     </g>
     <g id="matplotlib.axis_1">
      <g id="xtick_1">
       <g id="line2d_1"/>
       <g id="text_1">
        <!-- deme0 -->
        <g transform="translate(134.937897 271.520312)scale(0.1 -0.1)">
         <defs>
          <path id="DejaVuSans-64" d="M 2906 2969 
L 2906 4863 
L 3481 4863 
L 3481 0 
L 2906 0 
L 2906 525 
Q 2725 213 2448 61 
Q 2172 -91 1784 -91 
Q 1150 -91 751 415 
Q 353 922 353 1747 
Q 353 2572 751 3078 
Q 1150 3584 1784 3584 
Q 2172 3584 2448 3432 
Q 2725 3281 2906 2969 
z
M 947 1747 
Q 947 1113 1208 752 
Q 1469 391 1925 391 
Q 2381 391 2643 752 
Q 2906 1113 2906 1747 
Q 2906 2381 2643 2742 
Q 2381 3103 1925 3103 
Q 1469 3103 1208 2742 
Q 947 2381 947 1747 
z
" transform="scale(0.015625)"/>
          <path id="DejaVuSans-65" d="M 3597 1894 
L 3597 1613 
L 953 1613 
Q 991 1019 1311 708 
Q 1631 397 2203 397 
Q 2534 397 2845 478 
Q 3156 559 3463 722 
L 3463 178 
Q 3153 47 2828 -22 
Q 2503 -91 2169 -91 
Q 1331 -91 842 396 
Q 353 884 353 1716 
Q 353 2575 817 3079 
Q 1281 3584 2069 3584 
Q 2775 3584 3186 3129 
Q 3597 2675 3597 1894 
z
M 3022 2063 
Q 3016 2534 2758 2815 
Q 2500 3097 2075 3097 
Q 1594 3097 1305 2825 
Q 1016 2553 972 2059 
L 3022 2063 
z
" transform="scale(0.015625)"/>
          <path id="DejaVuSans-6d" d="M 3328 2828 
Q 3544 3216 3844 3400 
Q 4144 3584 4550 3584 
Q 5097 3584 5394 3201 
Q 5691 2819 5691 2113 
L 5691 0 
L 5113 0 
L 5113 2094 
Q 5113 2597 4934 2840 
Q 4756 3084 4391 3084 
Q 3944 3084 3684 2787 
Q 3425 2491 3425 1978 
L 3425 0 
L 2847 0 
L 2847 2094 
Q 2847 2600 2669 2842 
Q 2491 3084 2119 3084 
Q 1678 3084 1418 2786 
Q 1159 2488 1159 1978 
L 1159 0 
L 581 0 
L 581 3500 
L 1159 3500 
L 1159 2956 
Q 1356 3278 1631 3431 
Q 1906 3584 2284 3584 
Q 2666 3584 2933 3390 
Q 3200 3197 3328 2828 
z
" transform="scale(0.015625)"/>
          <path id="DejaVuSans-30" d="M 2034 4250 
Q 1547 4250 1301 3770 
Q 1056 3291 1056 2328 
Q 1056 1369 1301 889 
Q 1547 409 2034 409 
Q 2525 409 2770 889 
Q 3016 1369 3016 2328 
Q 3016 3291 2770 3770 
Q 2525 4250 2034 4250 
z
M 2034 4750 
Q 2819 4750 3233 4129 
Q 3647 3509 3647 2328 
Q 3647 1150 3233 529 
Q 2819 -91 2034 -91 
Q 1250 -91 836 529 
Q 422 1150 422 2328 
Q 422 3509 836 4129 
Q 1250 4750 2034 4750 
z
" transform="scale(0.015625)"/>
         </defs>
         <use xlink:href="#DejaVuSans-64"/>
         <use xlink:href="#DejaVuSans-65" x="63.476562"/>
         <use xlink:href="#DejaVuSans-6d" x="125"/>
         <use xlink:href="#DejaVuSans-65" x="222.412109"/>
         <use xlink:href="#DejaVuSans-30" x="283.935547"/>
        </g>
       </g>
      </g>
      <g id="xtick_2">
       <g id="line2d_2"/>
       <g id="text_2">
        <!-- deme1 -->
        <g transform="translate(371.68554 271.520312)scale(0.1 -0.1)">
         <defs>
          <path id="DejaVuSans-31" d="M 794 531 
L 1825 531 
L 1825 4091 
L 703 3866 
L 703 4441 
L 1819 4666 
L 2450 4666 
L 2450 531 
L 3481 531 
L 3481 0 
L 794 0 
L 794 531 
z
" transform="scale(0.015625)"/>
         </defs>
         <use xlink:href="#DejaVuSans-64"/>
         <use xlink:href="#DejaVuSans-65" x="63.476562"/>
         <use xlink:href="#DejaVuSans-6d" x="125"/>
         <use xlink:href="#DejaVuSans-65" x="222.412109"/>
         <use xlink:href="#DejaVuSans-31" x="283.935547"/>
        </g>
       </g>
      </g>
     </g>
     <g id="matplotlib.axis_2">
      <g id="ytick_1">
       <g id="line2d_3">
        <defs>
         <path id="m89e09062bd" d="M 0 0 
L -3.5 0 
" style="stroke: #000000; stroke-width: 0.8"/>
        </defs>
        <g>
         <use xlink:href="#m89e09062bd" x="43.78125" y="260.421875" style="stroke: #000000; stroke-width: 0.8"/>
        </g>
       </g>
       <g id="text_3">
        <!-- 0.0 -->
        <g transform="translate(20.878125 264.221094)scale(0.1 -0.1)">
         <defs>
          <path id="DejaVuSans-2e" d="M 684 794 
L 1344 794 
L 1344 0 
L 684 0 
L 684 794 
z
" transform="scale(0.015625)"/>
         </defs>
         <use xlink:href="#DejaVuSans-30"/>
         <use xlink:href="#DejaVuSans-2e" x="63.623047"/>
         <use xlink:href="#DejaVuSans-30" x="95.410156"/>
        </g>
       </g>
      </g>
      <g id="ytick_2">
       <g id="line2d_4">
        <g>
         <use xlink:href="#m89e09062bd" x="43.78125" y="212.801125" style="stroke: #000000; stroke-width: 0.8"/>
        </g>
       </g>
       <g id="text_4">
        <!-- 0.5 -->
        <g transform="translate(20.878125 216.600344)scale(0.1 -0.1)">
         <defs>
          <path id="DejaVuSans-35" d="M 691 4666 
L 3169 4666 
L 3169 4134 
L 1269 4134 
L 1269 2991 
Q 1406 3038 1543 3061 
Q 1681 3084 1819 3084 
Q 2600 3084 3056 2656 
Q 3513 2228 3513 1497 
Q 3513 744 3044 326 
Q 2575 -91 1722 -91 
Q 1428 -91 1123 -41 
Q 819 9 494 109 
L 494 744 
Q 775 591 1075 516 
Q 1375 441 1709 441 
Q 2250 441 2565 725 
Q 2881 1009 2881 1497 
Q 2881 1984 2565 2268 
Q 2250 2553 1709 2553 
Q 1456 2553 1204 2497 
Q 953 2441 691 2322 
L 691 4666 
z
" transform="scale(0.015625)"/>
         </defs>
         <use xlink:href="#DejaVuSans-30"/>
         <use xlink:href="#DejaVuSans-2e" x="63.623047"/>
         <use xlink:href="#DejaVuSans-35" x="95.410156"/>
        </g>
       </g>
      </g>
      <g id="ytick_3">
       <g id="line2d_5">
        <g>
         <use xlink:href="#m89e09062bd" x="43.78125" y="165.180375" style="stroke: #000000; stroke-width: 0.8"/>
        </g>
       </g>
       <g id="text_5">
        <!-- 1.0 -->
        <g transform="translate(20.878125 168.979594)scale(0.1 -0.1)">
         <use xlink:href="#DejaVuSans-31"/>
         <use xlink:href="#DejaVuSans-2e" x="63.623047"/>
         <use xlink:href="#DejaVuSans-30" x="95.410156"/>
        </g>
       </g>
      </g>
      <g id="ytick_4">
       <g id="line2d_6">
        <g>
         <use xlink:href="#m89e09062bd" x="43.78125" y="117.559625" style="stroke: #000000; stroke-width: 0.8"/>
        </g>
       </g>
       <g id="text_6">
        <!-- 1.5 -->
        <g transform="translate(20.878125 121.358844)scale(0.1 -0.1)">
         <use xlink:href="#DejaVuSans-31"/>
         <use xlink:href="#DejaVuSans-2e" x="63.623047"/>
         <use xlink:href="#DejaVuSans-35" x="95.410156"/>
        </g>
       </g>
      </g>
      <g id="ytick_5">
       <g id="line2d_7">
        <g>
         <use xlink:href="#m89e09062bd" x="43.78125" y="69.938875" style="stroke: #000000; stroke-width: 0.8"/>
        </g>
       </g>
       <g id="text_7">
        <!-- 2.0 -->
        <g transform="translate(20.878125 73.738094)scale(0.1 -0.1)">
         <defs>
          <path id="DejaVuSans-32" d="M 1228 531 
L 3431 531 
L 3431 0 
L 469 0 
L 469 531 
Q 828 903 1448 1529 
Q 2069 2156 2228 2338 
Q 2531 2678 2651 2914 
Q 2772 3150 2772 3378 
Q 2772 3750 2511 3984 
Q 2250 4219 1831 4219 
Q 1534 4219 1204 4116 
Q 875 4013 500 3803 
L 500 4441 
Q 881 4594 1212 4672 
Q 1544 4750 1819 4750 
Q 2544 4750 2975 4387 
Q 3406 4025 3406 3419 
Q 3406 3131 3298 2873 
Q 3191 2616 2906 2266 
Q 2828 2175 2409 1742 
Q 1991 1309 1228 531 
z
" transform="scale(0.015625)"/>
         </defs>
         <use xlink:href="#DejaVuSans-32"/>
         <use xlink:href="#DejaVuSans-2e" x="63.623047"/>
         <use xlink:href="#DejaVuSans-30" x="95.410156"/>
        </g>
       </g>
      </g>
      <g id="ytick_6">
       <g id="line2d_8">
        <g>
         <use xlink:href="#m89e09062bd" x="43.78125" y="22.318125" style="stroke: #000000; stroke-width: 0.8"/>
        </g>
       </g>
       <g id="text_8">
        <!-- 2.5 -->
        <g transform="translate(20.878125 26.117344)scale(0.1 -0.1)">
         <use xlink:href="#DejaVuSans-32"/>
         <use xlink:href="#DejaVuSans-2e" x="63.623047"/>
         <use xlink:href="#DejaVuSans-35" x="95.410156"/>
        </g>
       </g>
      </g>
      <g id="text_9">
       <!-- time ago (generations) -->
       <g transform="translate(14.798438 198.841094)rotate(-90)scale(0.1 -0.1)">
        <defs>
         <path id="DejaVuSans-74" d="M 1172 4494 
L 1172 3500 
L 2356 3500 
L 2356 3053 
L 1172 3053 
L 1172 1153 
Q 1172 725 1289 603 
Q 1406 481 1766 481 
L 2356 481 
L 2356 0 
L 1766 0 
Q 1100 0 847 248 
Q 594 497 594 1153 
L 594 3053 
L 172 3053 
L 172 3500 
L 594 3500 
L 594 4494 
L 1172 4494 
z
" transform="scale(0.015625)"/>
         <path id="DejaVuSans-69" d="M 603 3500 
L 1178 3500 
L 1178 0 
L 603 0 
L 603 3500 
z
M 603 4863 
L 1178 4863 
L 1178 4134 
L 603 4134 
L 603 4863 
z
" transform="scale(0.015625)"/>
         <path id="DejaVuSans-20" transform="scale(0.015625)"/>
         <path id="DejaVuSans-61" d="M 2194 1759 
Q 1497 1759 1228 1600 
Q 959 1441 959 1056 
Q 959 750 1161 570 
Q 1363 391 1709 391 
Q 2188 391 2477 730 
Q 2766 1069 2766 1631 
L 2766 1759 
L 2194 1759 
z
M 3341 1997 
L 3341 0 
L 2766 0 
L 2766 531 
Q 2569 213 2275 61 
Q 1981 -91 1556 -91 
Q 1019 -91 701 211 
Q 384 513 384 1019 
Q 384 1609 779 1909 
Q 1175 2209 1959 2209 
L 2766 2209 
L 2766 2266 
Q 2766 2663 2505 2880 
Q 2244 3097 1772 3097 
Q 1472 3097 1187 3025 
Q 903 2953 641 2809 
L 641 3341 
Q 956 3463 1253 3523 
Q 1550 3584 1831 3584 
Q 2591 3584 2966 3190 
Q 3341 2797 3341 1997 
z
" transform="scale(0.015625)"/>
         <path id="DejaVuSans-67" d="M 2906 1791 
Q 2906 2416 2648 2759 
Q 2391 3103 1925 3103 
Q 1463 3103 1205 2759 
Q 947 2416 947 1791 
Q 947 1169 1205 825 
Q 1463 481 1925 481 
Q 2391 481 2648 825 
Q 2906 1169 2906 1791 
z
M 3481 434 
Q 3481 -459 3084 -895 
Q 2688 -1331 1869 -1331 
Q 1566 -1331 1297 -1286 
Q 1028 -1241 775 -1147 
L 775 -588 
Q 1028 -725 1275 -790 
Q 1522 -856 1778 -856 
Q 2344 -856 2625 -561 
Q 2906 -266 2906 331 
L 2906 616 
Q 2728 306 2450 153 
Q 2172 0 1784 0 
Q 1141 0 747 490 
Q 353 981 353 1791 
Q 353 2603 747 3093 
Q 1141 3584 1784 3584 
Q 2172 3584 2450 3431 
Q 2728 3278 2906 2969 
L 2906 3500 
L 3481 3500 
L 3481 434 
z
" transform="scale(0.015625)"/>
         <path id="DejaVuSans-6f" d="M 1959 3097 
Q 1497 3097 1228 2736 
Q 959 2375 959 1747 
Q 959 1119 1226 758 
Q 1494 397 1959 397 
Q 2419 397 2687 759 
Q 2956 1122 2956 1747 
Q 2956 2369 2687 2733 
Q 2419 3097 1959 3097 
z
M 1959 3584 
Q 2709 3584 3137 3096 
Q 3566 2609 3566 1747 
Q 3566 888 3137 398 
Q 2709 -91 1959 -91 
Q 1206 -91 779 398 
Q 353 888 353 1747 
Q 353 2609 779 3096 
Q 1206 3584 1959 3584 
z
" transform="scale(0.015625)"/>
         <path id="DejaVuSans-28" d="M 1984 4856 
Q 1566 4138 1362 3434 
Q 1159 2731 1159 2009 
Q 1159 1288 1364 580 
Q 1569 -128 1984 -844 
L 1484 -844 
Q 1016 -109 783 600 
Q 550 1309 550 2009 
Q 550 2706 781 3412 
Q 1013 4119 1484 4856 
L 1984 4856 
z
" transform="scale(0.015625)"/>
         <path id="DejaVuSans-6e" d="M 3513 2113 
L 3513 0 
L 2938 0 
L 2938 2094 
Q 2938 2591 2744 2837 
Q 2550 3084 2163 3084 
Q 1697 3084 1428 2787 
Q 1159 2491 1159 1978 
L 1159 0 
L 581 0 
L 581 3500 
L 1159 3500 
L 1159 2956 
Q 1366 3272 1645 3428 
Q 1925 3584 2291 3584 
Q 2894 3584 3203 3211 
Q 3513 2838 3513 2113 
z
" transform="scale(0.015625)"/>
         <path id="DejaVuSans-72" d="M 2631 2963 
Q 2534 3019 2420 3045 
Q 2306 3072 2169 3072 
Q 1681 3072 1420 2755 
Q 1159 2438 1159 1844 
L 1159 0 
L 581 0 
L 581 3500 
L 1159 3500 
L 1159 2956 
Q 1341 3275 1631 3429 
Q 1922 3584 2338 3584 
Q 2397 3584 2469 3576 
Q 2541 3569 2628 3553 
L 2631 2963 
z
" transform="scale(0.015625)"/>
         <path id="DejaVuSans-73" d="M 2834 3397 
L 2834 2853 
Q 2591 2978 2328 3040 
Q 2066 3103 1784 3103 
Q 1356 3103 1142 2972 
Q 928 2841 928 2578 
Q 928 2378 1081 2264 
Q 1234 2150 1697 2047 
L 1894 2003 
Q 2506 1872 2764 1633 
Q 3022 1394 3022 966 
Q 3022 478 2636 193 
Q 2250 -91 1575 -91 
Q 1294 -91 989 -36 
Q 684 19 347 128 
L 347 722 
Q 666 556 975 473 
Q 1284 391 1588 391 
Q 1994 391 2212 530 
Q 2431 669 2431 922 
Q 2431 1156 2273 1281 
Q 2116 1406 1581 1522 
L 1381 1569 
Q 847 1681 609 1914 
Q 372 2147 372 2553 
Q 372 3047 722 3315 
Q 1072 3584 1716 3584 
Q 2034 3584 2315 3537 
Q 2597 3491 2834 3397 
z
" transform="scale(0.015625)"/>
         <path id="DejaVuSans-29" d="M 513 4856 
L 1013 4856 
Q 1481 4119 1714 3412 
Q 1947 2706 1947 2009 
Q 1947 1309 1714 600 
Q 1481 -109 1013 -844 
L 513 -844 
Q 928 -128 1133 580 
Q 1338 1288 1338 2009 
Q 1338 2731 1133 3434 
Q 928 4138 513 4856 
z
" transform="scale(0.015625)"/>
        </defs>
        <use xlink:href="#DejaVuSans-74"/>
        <use xlink:href="#DejaVuSans-69" x="39.208984"/>
        <use xlink:href="#DejaVuSans-6d" x="66.992188"/>
        <use xlink:href="#DejaVuSans-65" x="164.404297"/>
        <use xlink:href="#DejaVuSans-20" x="225.927734"/>
        <use xlink:href="#DejaVuSans-61" x="257.714844"/>
        <use xlink:href="#DejaVuSans-67" x="318.994141"/>
        <use xlink:href="#DejaVuSans-6f" x="382.470703"/>
        <use xlink:href="#DejaVuSans-20" x="443.652344"/>
        <use xlink:href="#DejaVuSans-28" x="475.439453"/>
        <use xlink:href="#DejaVuSans-67" x="514.453125"/>
        <use xlink:href="#DejaVuSans-65" x="577.929688"/>
        <use xlink:href="#DejaVuSans-6e" x="639.453125"/>
        <use xlink:href="#DejaVuSans-65" x="702.832031"/>
        <use xlink:href="#DejaVuSans-72" x="764.355469"/>
        <use xlink:href="#DejaVuSans-61" x="805.46875"/>
        <use xlink:href="#DejaVuSans-74" x="866.748047"/>
        <use xlink:href="#DejaVuSans-69" x="905.957031"/>
        <use xlink:href="#DejaVuSans-6f" x="933.740234"/>
        <use xlink:href="#DejaVuSans-6e" x="994.921875"/>
        <use xlink:href="#DejaVuSans-73" x="1058.300781"/>
        <use xlink:href="#DejaVuSans-29" x="1110.400391"/>
       </g>
      </g>
     </g>
     <path d="M 243.762419 158.146722 
L 245.762419 159.146722 
L 245.762419 157.146722 
z
" clip-path="url(#pb312d1e28a)" style="fill: #ff7f0e; fill-opacity: 0.5; stroke: #ff7f0e; stroke-opacity: 0.5; stroke-linejoin: miter"/>
     <path d="M 243.762419 105.788674 
L 245.762419 106.788674 
L 245.762419 104.788674 
z
" clip-path="url(#pb312d1e28a)" style="fill: #ff7f0e; fill-opacity: 0.5; stroke: #ff7f0e; stroke-opacity: 0.5; stroke-linejoin: miter"/>
     <path d="M 243.762419 84.982118 
L 245.762419 85.982118 
L 245.762419 83.982118 
z
" clip-path="url(#pb312d1e28a)" style="fill: #ff7f0e; fill-opacity: 0.5; stroke: #ff7f0e; stroke-opacity: 0.5; stroke-linejoin: miter"/>
     <path d="M 243.762419 148.2502 
L 245.762419 149.2502 
L 245.762419 147.2502 
z
" clip-path="url(#pb312d1e28a)" style="fill: #ff7f0e; fill-opacity: 0.5; stroke: #ff7f0e; stroke-opacity: 0.5; stroke-linejoin: miter"/>
     <path d="M 243.762419 85.974803 
L 245.762419 86.974803 
L 245.762419 84.974803 
z
" clip-path="url(#pb312d1e28a)" style="fill: #ff7f0e; fill-opacity: 0.5; stroke: #ff7f0e; stroke-opacity: 0.5; stroke-linejoin: miter"/>
     <path d="M 243.762419 88.127402 
L 245.762419 89.127402 
L 245.762419 87.127402 
z
" clip-path="url(#pb312d1e28a)" style="fill: #ff7f0e; fill-opacity: 0.5; stroke: #ff7f0e; stroke-opacity: 0.5; stroke-linejoin: miter"/>
     <path d="M 243.762419 135.0039 
L 245.762419 136.0039 
L 245.762419 134.0039 
z
" clip-path="url(#pb312d1e28a)" style="fill: #ff7f0e; fill-opacity: 0.5; stroke: #ff7f0e; stroke-opacity: 0.5; stroke-linejoin: miter"/>
     <path d="M 243.762419 107.223881 
L 245.762419 108.223881 
L 245.762419 106.223881 
z
" clip-path="url(#pb312d1e28a)" style="fill: #ff7f0e; fill-opacity: 0.5; stroke: #ff7f0e; stroke-opacity: 0.5; stroke-linejoin: miter"/>
     <path d="M 243.762419 98.835433 
L 245.762419 99.835433 
L 245.762419 97.835433 
z
" clip-path="url(#pb312d1e28a)" style="fill: #ff7f0e; fill-opacity: 0.5; stroke: #ff7f0e; stroke-opacity: 0.5; stroke-linejoin: miter"/>
     <path d="M 243.762419 139.156568 
L 245.762419 140.156568 
L 245.762419 138.156568 
z
" clip-path="url(#pb312d1e28a)" style="fill: #ff7f0e; fill-opacity: 0.5; stroke: #ff7f0e; stroke-opacity: 0.5; stroke-linejoin: miter"/>
     <path d="M 297.618831 103.334832 
L 295.618831 102.334832 
L 295.618831 104.334832 
z
" clip-path="url(#pb312d1e28a)" style="fill: #1f77b4; fill-opacity: 0.5; stroke: #1f77b4; stroke-opacity: 0.5; stroke-linejoin: miter"/>
     <path d="M 297.618831 140.086064 
L 295.618831 139.086064 
L 295.618831 141.086064 
z
" clip-path="url(#pb312d1e28a)" style="fill: #1f77b4; fill-opacity: 0.5; stroke: #1f77b4; stroke-opacity: 0.5; stroke-linejoin: miter"/>
     <path d="M 297.618831 80.561047 
L 295.618831 79.561047 
L 295.618831 81.561047 
z
" clip-path="url(#pb312d1e28a)" style="fill: #1f77b4; fill-opacity: 0.5; stroke: #1f77b4; stroke-opacity: 0.5; stroke-linejoin: miter"/>
     <path d="M 297.618831 72.141982 
L 295.618831 71.141982 
L 295.618831 73.141982 
z
" clip-path="url(#pb312d1e28a)" style="fill: #1f77b4; fill-opacity: 0.5; stroke: #1f77b4; stroke-opacity: 0.5; stroke-linejoin: miter"/>
     <path d="M 297.618831 109.783957 
L 295.618831 108.783957 
L 295.618831 110.783957 
z
" clip-path="url(#pb312d1e28a)" style="fill: #1f77b4; fill-opacity: 0.5; stroke: #1f77b4; stroke-opacity: 0.5; stroke-linejoin: miter"/>
     <path d="M 297.618831 91.301489 
L 295.618831 90.301489 
L 295.618831 92.301489 
z
" clip-path="url(#pb312d1e28a)" style="fill: #1f77b4; fill-opacity: 0.5; stroke: #1f77b4; stroke-opacity: 0.5; stroke-linejoin: miter"/>
     <path d="M 297.618831 135.323509 
L 295.618831 134.323509 
L 295.618831 136.323509 
z
" clip-path="url(#pb312d1e28a)" style="fill: #1f77b4; fill-opacity: 0.5; stroke: #1f77b4; stroke-opacity: 0.5; stroke-linejoin: miter"/>
     <path d="M 297.618831 79.39762 
L 295.618831 78.39762 
L 295.618831 80.39762 
z
" clip-path="url(#pb312d1e28a)" style="fill: #1f77b4; fill-opacity: 0.5; stroke: #1f77b4; stroke-opacity: 0.5; stroke-linejoin: miter"/>
     <path d="M 297.618831 159.36495 
L 295.618831 158.36495 
L 295.618831 160.36495 
z
" clip-path="url(#pb312d1e28a)" style="fill: #1f77b4; fill-opacity: 0.5; stroke: #1f77b4; stroke-opacity: 0.5; stroke-linejoin: miter"/>
     <path d="M 297.618831 157.923883 
L 295.618831 156.923883 
L 295.618831 158.923883 
z
" clip-path="url(#pb312d1e28a)" style="fill: #1f77b4; fill-opacity: 0.5; stroke: #1f77b4; stroke-opacity: 0.5; stroke-linejoin: miter"/>
     <path d="M 243.762419 241.327184 
L 245.762419 242.327184 
L 245.762419 240.327184 
z
" clip-path="url(#pb312d1e28a)" style="fill: #ff7f0e; fill-opacity: 0.5; stroke: #ff7f0e; stroke-opacity: 0.5; stroke-linejoin: miter"/>
     <path d="M 243.762419 258.130324 
L 245.762419 259.130324 
L 245.762419 257.130324 
z
" clip-path="url(#pb312d1e28a)" style="fill: #ff7f0e; fill-opacity: 0.5; stroke: #ff7f0e; stroke-opacity: 0.5; stroke-linejoin: miter"/>
     <path d="M 243.762419 201.070777 
L 245.762419 202.070777 
L 245.762419 200.070777 
z
" clip-path="url(#pb312d1e28a)" style="fill: #ff7f0e; fill-opacity: 0.5; stroke: #ff7f0e; stroke-opacity: 0.5; stroke-linejoin: miter"/>
     <path d="M 243.762419 224.523195 
L 245.762419 225.523195 
L 245.762419 223.523195 
z
" clip-path="url(#pb312d1e28a)" style="fill: #ff7f0e; fill-opacity: 0.5; stroke: #ff7f0e; stroke-opacity: 0.5; stroke-linejoin: miter"/>
     <path d="M 243.762419 259.46278 
L 245.762419 260.46278 
L 245.762419 258.46278 
z
" clip-path="url(#pb312d1e28a)" style="fill: #ff7f0e; fill-opacity: 0.5; stroke: #ff7f0e; stroke-opacity: 0.5; stroke-linejoin: miter"/>
     <path d="M 243.762419 258.519288 
L 245.762419 259.519288 
L 245.762419 257.519288 
z
" clip-path="url(#pb312d1e28a)" style="fill: #ff7f0e; fill-opacity: 0.5; stroke: #ff7f0e; stroke-opacity: 0.5; stroke-linejoin: miter"/>
     <path d="M 243.762419 170.630326 
L 245.762419 171.630326 
L 245.762419 169.630326 
z
" clip-path="url(#pb312d1e28a)" style="fill: #ff7f0e; fill-opacity: 0.5; stroke: #ff7f0e; stroke-opacity: 0.5; stroke-linejoin: miter"/>
     <path d="M 243.762419 209.381409 
L 245.762419 210.381409 
L 245.762419 208.381409 
z
" clip-path="url(#pb312d1e28a)" style="fill: #ff7f0e; fill-opacity: 0.5; stroke: #ff7f0e; stroke-opacity: 0.5; stroke-linejoin: miter"/>
     <path d="M 243.762419 176.48681 
L 245.762419 177.48681 
L 245.762419 175.48681 
z
" clip-path="url(#pb312d1e28a)" style="fill: #ff7f0e; fill-opacity: 0.5; stroke: #ff7f0e; stroke-opacity: 0.5; stroke-linejoin: miter"/>
     <path d="M 243.762419 255.307498 
L 245.762419 256.307498 
L 245.762419 254.307498 
z
" clip-path="url(#pb312d1e28a)" style="fill: #ff7f0e; fill-opacity: 0.5; stroke: #ff7f0e; stroke-opacity: 0.5; stroke-linejoin: miter"/>
     <path d="M 297.618831 243.894381 
L 295.618831 242.894381 
L 295.618831 244.894381 
z
" clip-path="url(#pb312d1e28a)" style="fill: #1f77b4; fill-opacity: 0.5; stroke: #1f77b4; stroke-opacity: 0.5; stroke-linejoin: miter"/>
     <path d="M 297.618831 212.451848 
L 295.618831 211.451848 
L 295.618831 213.451848 
z
" clip-path="url(#pb312d1e28a)" style="fill: #1f77b4; fill-opacity: 0.5; stroke: #1f77b4; stroke-opacity: 0.5; stroke-linejoin: miter"/>
     <path d="M 297.618831 215.693722 
L 295.618831 214.693722 
L 295.618831 216.693722 
z
" clip-path="url(#pb312d1e28a)" style="fill: #1f77b4; fill-opacity: 0.5; stroke: #1f77b4; stroke-opacity: 0.5; stroke-linejoin: miter"/>
     <path d="M 297.618831 217.843923 
L 295.618831 216.843923 
L 295.618831 218.843923 
z
" clip-path="url(#pb312d1e28a)" style="fill: #1f77b4; fill-opacity: 0.5; stroke: #1f77b4; stroke-opacity: 0.5; stroke-linejoin: miter"/>
     <path d="M 297.618831 230.508558 
L 295.618831 229.508558 
L 295.618831 231.508558 
z
" clip-path="url(#pb312d1e28a)" style="fill: #1f77b4; fill-opacity: 0.5; stroke: #1f77b4; stroke-opacity: 0.5; stroke-linejoin: miter"/>
     <path d="M 297.618831 231.204954 
L 295.618831 230.204954 
L 295.618831 232.204954 
z
" clip-path="url(#pb312d1e28a)" style="fill: #1f77b4; fill-opacity: 0.5; stroke: #1f77b4; stroke-opacity: 0.5; stroke-linejoin: miter"/>
     <path d="M 297.618831 217.210796 
L 295.618831 216.210796 
L 295.618831 218.210796 
z
" clip-path="url(#pb312d1e28a)" style="fill: #1f77b4; fill-opacity: 0.5; stroke: #1f77b4; stroke-opacity: 0.5; stroke-linejoin: miter"/>
     <path d="M 297.618831 205.150944 
L 295.618831 204.150944 
L 295.618831 206.150944 
z
" clip-path="url(#pb312d1e28a)" style="fill: #1f77b4; fill-opacity: 0.5; stroke: #1f77b4; stroke-opacity: 0.5; stroke-linejoin: miter"/>
     <path d="M 297.618831 221.322908 
L 295.618831 220.322908 
L 295.618831 222.322908 
z
" clip-path="url(#pb312d1e28a)" style="fill: #1f77b4; fill-opacity: 0.5; stroke: #1f77b4; stroke-opacity: 0.5; stroke-linejoin: miter"/>
     <path d="M 297.618831 253.987451 
L 295.618831 252.987451 
L 295.618831 254.987451 
z
" clip-path="url(#pb312d1e28a)" style="fill: #1f77b4; fill-opacity: 0.5; stroke: #1f77b4; stroke-opacity: 0.5; stroke-linejoin: miter"/>
     <g id="patch_5">
      <path d="M 43.78125 260.421875 
L 43.78125 22.318125 
" style="fill: none; stroke: #000000; stroke-width: 0.8; stroke-linejoin: miter; stroke-linecap: square"/>
     </g>
     <g id="text_10">
      <!-- defaults_symmetric_migration_changing_rate.yaml -->
      <g transform="translate(117.1525 16.318125)scale(0.12 -0.12)">
       <defs>
        <path id="DejaVuSans-66" d="M 2375 4863 
L 2375 4384 
L 1825 4384 
Q 1516 4384 1395 4259 
Q 1275 4134 1275 3809 
L 1275 3500 
L 2222 3500 
L 2222 3053 
L 1275 3053 
L 1275 0 
L 697 0 
L 697 3053 
L 147 3053 
L 147 3500 
L 697 3500 
L 697 3744 
Q 697 4328 969 4595 
Q 1241 4863 1831 4863 
L 2375 4863 
z
" transform="scale(0.015625)"/>
        <path id="DejaVuSans-75" d="M 544 1381 
L 544 3500 
L 1119 3500 
L 1119 1403 
Q 1119 906 1312 657 
Q 1506 409 1894 409 
Q 2359 409 2629 706 
Q 2900 1003 2900 1516 
L 2900 3500 
L 3475 3500 
L 3475 0 
L 2900 0 
L 2900 538 
Q 2691 219 2414 64 
Q 2138 -91 1772 -91 
Q 1169 -91 856 284 
Q 544 659 544 1381 
z
M 1991 3584 
L 1991 3584 
z
" transform="scale(0.015625)"/>
        <path id="DejaVuSans-6c" d="M 603 4863 
L 1178 4863 
L 1178 0 
L 603 0 
L 603 4863 
z
" transform="scale(0.015625)"/>
        <path id="DejaVuSans-5f" d="M 3263 -1063 
L 3263 -1509 
L -63 -1509 
L -63 -1063 
L 3263 -1063 
z
" transform="scale(0.015625)"/>
        <path id="DejaVuSans-79" d="M 2059 -325 
Q 1816 -950 1584 -1140 
Q 1353 -1331 966 -1331 
L 506 -1331 
L 506 -850 
L 844 -850 
Q 1081 -850 1212 -737 
Q 1344 -625 1503 -206 
L 1606 56 
L 191 3500 
L 800 3500 
L 1894 763 
L 2988 3500 
L 3597 3500 
L 2059 -325 
z
" transform="scale(0.015625)"/>
        <path id="DejaVuSans-63" d="M 3122 3366 
L 3122 2828 
Q 2878 2963 2633 3030 
Q 2388 3097 2138 3097 
Q 1578 3097 1268 2742 
Q 959 2388 959 1747 
Q 959 1106 1268 751 
Q 1578 397 2138 397 
Q 2388 397 2633 464 
Q 2878 531 3122 666 
L 3122 134 
Q 2881 22 2623 -34 
Q 2366 -91 2075 -91 
Q 1284 -91 818 406 
Q 353 903 353 1747 
Q 353 2603 823 3093 
Q 1294 3584 2113 3584 
Q 2378 3584 2631 3529 
Q 2884 3475 3122 3366 
z
" transform="scale(0.015625)"/>
        <path id="DejaVuSans-68" d="M 3513 2113 
L 3513 0 
L 2938 0 
L 2938 2094 
Q 2938 2591 2744 2837 
Q 2550 3084 2163 3084 
Q 1697 3084 1428 2787 
Q 1159 2491 1159 1978 
L 1159 0 
L 581 0 
L 581 4863 
L 1159 4863 
L 1159 2956 
Q 1366 3272 1645 3428 
Q 1925 3584 2291 3584 
Q 2894 3584 3203 3211 
Q 3513 2838 3513 2113 
z
" transform="scale(0.015625)"/>
       </defs>
       <use xlink:href="#DejaVuSans-64"/>
       <use xlink:href="#DejaVuSans-65" x="63.476562"/>
       <use xlink:href="#DejaVuSans-66" x="125"/>
       <use xlink:href="#DejaVuSans-61" x="160.205078"/>
       <use xlink:href="#DejaVuSans-75" x="221.484375"/>
       <use xlink:href="#DejaVuSans-6c" x="284.863281"/>
       <use xlink:href="#DejaVuSans-74" x="312.646484"/>
       <use xlink:href="#DejaVuSans-73" x="351.855469"/>
       <use xlink:href="#DejaVuSans-5f" x="403.955078"/>
       <use xlink:href="#DejaVuSans-73" x="453.955078"/>
       <use xlink:href="#DejaVuSans-79" x="506.054688"/>
       <use xlink:href="#DejaVuSans-6d" x="565.234375"/>
       <use xlink:href="#DejaVuSans-6d" x="662.646484"/>
       <use xlink:href="#DejaVuSans-65" x="760.058594"/>
       <use xlink:href="#DejaVuSans-74" x="821.582031"/>
       <use xlink:href="#DejaVuSans-72" x="860.791016"/>
       <use xlink:href="#DejaVuSans-69" x="901.904297"/>
       <use xlink:href="#DejaVuSans-63" x="929.6875"/>
       <use xlink:href="#DejaVuSans-5f" x="984.667969"/>
       <use xlink:href="#DejaVuSans-6d" x="1034.667969"/>
       <use xlink:href="#DejaVuSans-69" x="1132.080078"/>
       <use xlink:href="#DejaVuSans-67" x="1159.863281"/>
       <use xlink:href="#DejaVuSans-72" x="1223.339844"/>
       <use xlink:href="#DejaVuSans-61" x="1264.453125"/>
       <use xlink:href="#DejaVuSans-74" x="1325.732422"/>
       <use xlink:href="#DejaVuSans-69" x="1364.941406"/>
       <use xlink:href="#DejaVuSans-6f" x="1392.724609"/>
       <use xlink:href="#DejaVuSans-6e" x="1453.90625"/>
       <use xlink:href="#DejaVuSans-5f" x="1517.285156"/>
       <use xlink:href="#DejaVuSans-63" x="1567.285156"/>
       <use xlink:href="#DejaVuSans-68" x="1622.265625"/>
       <use xlink:href="#DejaVuSans-61" x="1685.644531"/>
       <use xlink:href="#DejaVuSans-6e" x="1746.923828"/>
       <use xlink:href="#DejaVuSans-67" x="1810.302734"/>
       <use xlink:href="#DejaVuSans-69" x="1873.779297"/>
       <use xlink:href="#DejaVuSans-6e" x="1901.5625"/>
       <use xlink:href="#DejaVuSans-67" x="1964.941406"/>
       <use xlink:href="#DejaVuSans-5f" x="2028.417969"/>
       <use xlink:href="#DejaVuSans-72" x="2078.417969"/>
       <use xlink:href="#DejaVuSans-61" x="2119.53125"/>
       <use xlink:href="#DejaVuSans-74" x="2180.810547"/>
       <use xlink:href="#DejaVuSans-65" x="2220.019531"/>
       <use xlink:href="#DejaVuSans-2e" x="2281.542969"/>
       <use xlink:href="#DejaVuSans-79" x="2313.330078"/>
       <use xlink:href="#DejaVuSans-61" x="2372.509766"/>
       <use xlink:href="#DejaVuSans-6d" x="2433.789062"/>
       <use xlink:href="#DejaVuSans-6c" x="2531.201172"/>
      </g>
     </g>
    </g>
   </g>
   <defs>
    <clipPath id="pb312d1e28a">
     <rect x="43.78125" y="22.318125" width="453.81875" height="238.10375"/>
    </clipPath>
   </defs>
  </g>
 </g>
</svg>
