<?xml version="1.0" encoding="utf-8" standalone="no"?>
<!DOCTYPE svg PUBLIC "-//W3C//DTD SVG 1.1//EN"
  "http://www.w3.org/Graphics/SVG/1.1/DTD/svg11.dtd">
<svg xmlns:xlink="http://www.w3.org/1999/xlink" width="607.2pt" height="338.4pt" viewBox="0 0 607.2 338.4" xmlns="http://www.w3.org/2000/svg" version="1.1">
 <metadata>
  <rdf:RDF xmlns:dc="http://purl.org/dc/elements/1.1/" xmlns:cc="http://creativecommons.org/ns#" xmlns:rdf="http://www.w3.org/1999/02/22-rdf-syntax-ns#">
   <cc:Work>
    <dc:type rdf:resource="http://purl.org/dc/dcmitype/StillImage"/>
    <dc:date>2023-03-13T11:16:07.132532</dc:date>
    <dc:format>image/svg+xml</dc:format>
    <dc:creator>
     <cc:Agent>
      <dc:title>Matplotlib v3.7.1, https://matplotlib.org/</dc:title>
     </cc:Agent>
    </dc:creator>
   </cc:Work>
  </rdf:RDF>
 </metadata>
 <defs>
  <style type="text/css">*{stroke-linejoin: round; stroke-linecap: butt}</style>
 </defs>
 <g id="figure_1">
  <g id="patch_1">
   <path d="M 0 338.4 
L 607.2 338.4 
L 607.2 0 
L 0 0 
z
" style="fill: #ffffff"/>
  </g>
  <g id="axes_1">
   <g id="patch_2">
    <path d="M 43.78125 318.021875 
L 600 318.021875 
L 600 22.318125 
L 43.78125 22.318125 
z
" style="fill: #ffffff"/>
   </g>
   <path d="M 353.66929 161.964612 
L 352.66929 161.933176 
L 351.66929 161.896235 
L 350.66929 161.798489 
L 349.66929 161.765967 
L 348.66929 161.692343 
L 347.66929 161.653777 
L 346.66929 161.618364 
L 345.66929 161.560724 
L 344.66929 161.490338 
L 343.66929 161.438374 
L 342.66929 161.379284 
L 341.66929 161.290963 
L 340.66929 161.244819 
L 339.66929 161.202408 
L 338.66929 161.171915 
L 337.66929 161.14587 
L 336.66929 161.12467 
L 335.66929 161.070369 
L 334.66929 161.042431 
L 333.66929 161.012707 
L 332.66929 160.987312 
L 331.66929 160.976112 
L 330.66929 160.965988 
L 329.66929 160.966192 
L 328.66929 160.975702 
L 327.66929 160.987356 
L 326.66929 161.018385 
L 325.66929 161.029553 
L 324.66929 161.059671 
L 323.66929 161.119447 
L 322.66929 161.156639 
L 321.66929 161.195735 
L 320.66929 161.238175 
L 319.66929 161.27094 
L 318.66929 161.338366 
L 317.66929 161.377492 
L 316.66929 161.420167 
L 315.66929 161.490747 
L 314.66929 161.527138 
L 313.66929 161.585541 
L 312.66929 161.696494 
L 311.66929 161.767152 
L 310.66929 161.880092 
L 309.66929 161.925865 
L 308.66929 161.987148 
L 307.66929 162.035648 
L 306.66929 162.11647 
L 305.66929 162.234989 
L 304.66929 162.3052 
L 303.66929 162.388462 
L 302.66929 162.421604 
L 301.66929 162.472841 
L 300.66929 162.54124 
L 299.66929 162.607455 
L 298.66929 162.684372 
L 297.66929 162.711688 
L 296.66929 162.738165 
L 295.66929 162.760816 
L 294.66929 162.780347 
L 293.66929 162.806741 
L 292.66929 162.856512 
L 291.66929 162.891585 
L 290.11196 162.927451 
" clip-path="url(#p3fce86026e)" style="fill: none; stroke: #ff7f0e; stroke-opacity: 0.5; stroke-width: 0.2; stroke-linecap: square"/>
   <path d="M 353.66929 134.490471 
L 352.66929 134.459035 
L 351.66929 134.422094 
L 350.66929 134.324348 
L 349.66929 134.291826 
L 348.66929 134.218202 
L 347.66929 134.179636 
L 346.66929 134.144223 
L 345.66929 134.086583 
L 344.66929 134.016197 
L 343.66929 133.964233 
L 342.66929 133.905143 
L 341.66929 133.816822 
L 340.66929 133.770677 
L 339.66929 133.728267 
L 338.66929 133.697774 
L 337.66929 133.671729 
L 336.66929 133.650529 
L 335.66929 133.596228 
L 334.66929 133.56829 
L 333.66929 133.538566 
L 332.66929 133.513171 
L 331.66929 133.501971 
L 330.66929 133.491847 
L 329.66929 133.492051 
L 328.66929 133.501561 
L 327.66929 133.513215 
L 326.66929 133.544244 
L 325.66929 133.555412 
L 324.66929 133.58553 
L 323.66929 133.645306 
L 322.66929 133.682498 
L 321.66929 133.721594 
L 320.66929 133.764034 
L 319.66929 133.796799 
L 318.66929 133.864225 
L 317.66929 133.903351 
L 316.66929 133.946026 
L 315.66929 134.016606 
L 314.66929 134.052997 
L 313.66929 134.1114 
L 312.66929 134.222353 
L 311.66929 134.293011 
L 310.66929 134.405951 
L 309.66929 134.451724 
L 308.66929 134.513007 
L 307.66929 134.561507 
L 306.66929 134.642329 
L 305.66929 134.760848 
L 304.66929 134.831059 
L 303.66929 134.914321 
L 302.66929 134.947463 
L 301.66929 134.9987 
L 300.66929 135.067099 
L 299.66929 135.133314 
L 298.66929 135.210231 
L 297.66929 135.237547 
L 296.66929 135.264024 
L 295.66929 135.286675 
L 294.66929 135.306206 
L 293.66929 135.3326 
L 292.66929 135.382371 
L 291.66929 135.417444 
L 290.11196 135.45331 
" clip-path="url(#p3fce86026e)" style="fill: none; stroke: #ff7f0e; stroke-opacity: 0.5; stroke-width: 0.2; stroke-linecap: square"/>
   <path d="M 353.66929 93.366328 
L 352.66929 93.334892 
L 351.66929 93.297951 
L 350.66929 93.200205 
L 349.66929 93.167683 
L 348.66929 93.094059 
L 347.66929 93.055493 
L 346.66929 93.02008 
L 345.66929 92.96244 
L 344.66929 92.892054 
L 343.66929 92.84009 
L 342.66929 92.781 
L 341.66929 92.692679 
L 340.66929 92.646534 
L 339.66929 92.604124 
L 338.66929 92.573631 
L 337.66929 92.547586 
L 336.66929 92.526386 
L 335.66929 92.472085 
L 334.66929 92.444147 
L 333.66929 92.414423 
L 332.66929 92.389028 
L 331.66929 92.377828 
L 330.66929 92.367704 
L 329.66929 92.367908 
L 328.66929 92.377418 
L 327.66929 92.389072 
L 326.66929 92.420101 
L 325.66929 92.431269 
L 324.66929 92.461387 
L 323.66929 92.521163 
L 322.66929 92.558355 
L 321.66929 92.597451 
L 320.66929 92.639891 
L 319.66929 92.672656 
L 318.66929 92.740082 
L 317.66929 92.779208 
L 316.66929 92.821883 
L 315.66929 92.892463 
L 314.66929 92.928854 
L 313.66929 92.987257 
L 312.66929 93.09821 
L 311.66929 93.168868 
L 310.66929 93.281808 
L 309.66929 93.327581 
L 308.66929 93.388864 
L 307.66929 93.437364 
L 306.66929 93.518186 
L 305.66929 93.636705 
L 304.66929 93.706916 
L 303.66929 93.790178 
L 302.66929 93.82332 
L 301.66929 93.874557 
L 300.66929 93.942956 
L 299.66929 94.009171 
L 298.66929 94.086088 
L 297.66929 94.113404 
L 296.66929 94.139881 
L 295.66929 94.162532 
L 294.66929 94.182063 
L 293.66929 94.208457 
L 292.66929 94.258228 
L 291.66929 94.293301 
L 290.11196 94.329167 
" clip-path="url(#p3fce86026e)" style="fill: none; stroke: #ff7f0e; stroke-opacity: 0.5; stroke-width: 0.2; stroke-linecap: square"/>
   <path d="M 353.66929 96.340005 
L 352.66929 96.308568 
L 351.66929 96.271628 
L 350.66929 96.173881 
L 349.66929 96.14136 
L 348.66929 96.067735 
L 347.66929 96.02917 
L 346.66929 95.993756 
L 345.66929 95.936116 
L 344.66929 95.86573 
L 343.66929 95.813766 
L 342.66929 95.754676 
L 341.66929 95.666355 
L 340.66929 95.620211 
L 339.66929 95.5778 
L 338.66929 95.547307 
L 337.66929 95.521262 
L 336.66929 95.500062 
L 335.66929 95.445761 
L 334.66929 95.417824 
L 333.66929 95.3881 
L 332.66929 95.362705 
L 331.66929 95.351505 
L 330.66929 95.341381 
L 329.66929 95.341585 
L 328.66929 95.351095 
L 327.66929 95.362748 
L 326.66929 95.393778 
L 325.66929 95.404946 
L 324.66929 95.435063 
L 323.66929 95.49484 
L 322.66929 95.532032 
L 321.66929 95.571128 
L 320.66929 95.613567 
L 319.66929 95.646332 
L 318.66929 95.713759 
L 317.66929 95.752885 
L 316.66929 95.795559 
L 315.66929 95.86614 
L 314.66929 95.902531 
L 313.66929 95.960934 
L 312.66929 96.071887 
L 311.66929 96.142545 
L 310.66929 96.255485 
L 309.66929 96.301258 
L 308.66929 96.362541 
L 307.66929 96.41104 
L 306.66929 96.491863 
L 305.66929 96.610382 
L 304.66929 96.680592 
L 303.66929 96.763855 
L 302.66929 96.796997 
L 301.66929 96.848234 
L 300.66929 96.916632 
L 299.66929 96.982848 
L 298.66929 97.059765 
L 297.66929 97.08708 
L 296.66929 97.113558 
L 295.66929 97.136208 
L 294.66929 97.15574 
L 293.66929 97.182134 
L 292.66929 97.231904 
L 291.66929 97.266978 
L 290.11196 97.302843 
" clip-path="url(#p3fce86026e)" style="fill: none; stroke: #ff7f0e; stroke-opacity: 0.5; stroke-width: 0.2; stroke-linecap: square"/>
   <path d="M 353.66929 184.825212 
L 352.66929 184.793776 
L 351.66929 184.756835 
L 350.66929 184.659089 
L 349.66929 184.626567 
L 348.66929 184.552943 
L 347.66929 184.514377 
L 346.66929 184.478964 
L 345.66929 184.421324 
L 344.66929 184.350938 
L 343.66929 184.298973 
L 342.66929 184.239884 
L 341.66929 184.151563 
L 340.66929 184.105418 
L 339.66929 184.063008 
L 338.66929 184.032515 
L 337.66929 184.00647 
L 336.66929 183.98527 
L 335.66929 183.930969 
L 334.66929 183.903031 
L 333.66929 183.873307 
L 332.66929 183.847912 
L 331.66929 183.836712 
L 330.66929 183.826588 
L 329.66929 183.826792 
L 328.66929 183.836302 
L 327.66929 183.847956 
L 326.66929 183.878985 
L 325.66929 183.890153 
L 324.66929 183.920271 
L 323.66929 183.980047 
L 322.66929 184.017239 
L 321.66929 184.056335 
L 320.66929 184.098775 
L 319.66929 184.13154 
L 318.66929 184.198966 
L 317.66929 184.238092 
L 316.66929 184.280767 
L 315.66929 184.351347 
L 314.66929 184.387738 
L 313.66929 184.446141 
L 312.66929 184.557094 
L 311.66929 184.627752 
L 310.66929 184.740692 
L 309.66929 184.786465 
L 308.66929 184.847748 
L 307.66929 184.896248 
L 306.66929 184.97707 
L 305.66929 185.095589 
L 304.66929 185.1658 
L 303.66929 185.249062 
L 302.66929 185.282204 
L 301.66929 185.333441 
L 300.66929 185.40184 
L 299.66929 185.468055 
L 298.66929 185.544972 
L 297.66929 185.572288 
L 296.66929 185.598765 
L 295.66929 185.621416 
L 294.66929 185.640947 
L 293.66929 185.667341 
L 292.66929 185.717112 
L 291.66929 185.752185 
L 290.11196 185.788051 
" clip-path="url(#p3fce86026e)" style="fill: none; stroke: #ff7f0e; stroke-opacity: 0.5; stroke-width: 0.2; stroke-linecap: square"/>
   <path d="M 353.66929 81.582418 
L 352.66929 81.550981 
L 351.66929 81.514041 
L 350.66929 81.416294 
L 349.66929 81.383773 
L 348.66929 81.310148 
L 347.66929 81.271582 
L 346.66929 81.236169 
L 345.66929 81.178529 
L 344.66929 81.108143 
L 343.66929 81.056179 
L 342.66929 80.997089 
L 341.66929 80.908768 
L 340.66929 80.862624 
L 339.66929 80.820213 
L 338.66929 80.78972 
L 337.66929 80.763675 
L 336.66929 80.742475 
L 335.66929 80.688174 
L 334.66929 80.660237 
L 333.66929 80.630513 
L 332.66929 80.605118 
L 331.66929 80.593917 
L 330.66929 80.583794 
L 329.66929 80.583998 
L 328.66929 80.593508 
L 327.66929 80.605161 
L 326.66929 80.636191 
L 325.66929 80.647358 
L 324.66929 80.677476 
L 323.66929 80.737253 
L 322.66929 80.774444 
L 321.66929 80.813541 
L 320.66929 80.85598 
L 319.66929 80.888745 
L 318.66929 80.956172 
L 317.66929 80.995298 
L 316.66929 81.037972 
L 315.66929 81.108553 
L 314.66929 81.144944 
L 313.66929 81.203347 
L 312.66929 81.314299 
L 311.66929 81.384958 
L 310.66929 81.497898 
L 309.66929 81.54367 
L 308.66929 81.604954 
L 307.66929 81.653453 
L 306.66929 81.734276 
L 305.66929 81.852795 
L 304.66929 81.923005 
L 303.66929 82.006268 
L 302.66929 82.03941 
L 301.66929 82.090647 
L 300.66929 82.159045 
L 299.66929 82.225261 
L 298.66929 82.302178 
L 297.66929 82.329493 
L 296.66929 82.355971 
L 295.66929 82.378621 
L 294.66929 82.398153 
L 293.66929 82.424547 
L 292.66929 82.474317 
L 291.66929 82.509391 
L 290.11196 82.545256 
" clip-path="url(#p3fce86026e)" style="fill: none; stroke: #ff7f0e; stroke-opacity: 0.5; stroke-width: 0.2; stroke-linecap: square"/>
   <path d="M 353.66929 113.787842 
L 352.66929 113.756406 
L 351.66929 113.719466 
L 350.66929 113.621719 
L 349.66929 113.589197 
L 348.66929 113.515573 
L 347.66929 113.477007 
L 346.66929 113.441594 
L 345.66929 113.383954 
L 344.66929 113.313568 
L 343.66929 113.261604 
L 342.66929 113.202514 
L 341.66929 113.114193 
L 340.66929 113.068049 
L 339.66929 113.025638 
L 338.66929 112.995145 
L 337.66929 112.9691 
L 336.66929 112.9479 
L 335.66929 112.893599 
L 334.66929 112.865661 
L 333.66929 112.835937 
L 332.66929 112.810543 
L 331.66929 112.799342 
L 330.66929 112.789218 
L 329.66929 112.789422 
L 328.66929 112.798932 
L 327.66929 112.810586 
L 326.66929 112.841615 
L 325.66929 112.852783 
L 324.66929 112.882901 
L 323.66929 112.942678 
L 322.66929 112.979869 
L 321.66929 113.018965 
L 320.66929 113.061405 
L 319.66929 113.09417 
L 318.66929 113.161596 
L 317.66929 113.200722 
L 316.66929 113.243397 
L 315.66929 113.313977 
L 314.66929 113.350368 
L 313.66929 113.408771 
L 312.66929 113.519724 
L 311.66929 113.590382 
L 310.66929 113.703322 
L 309.66929 113.749095 
L 308.66929 113.810378 
L 307.66929 113.858878 
L 306.66929 113.9397 
L 305.66929 114.058219 
L 304.66929 114.12843 
L 303.66929 114.211692 
L 302.66929 114.244834 
L 301.66929 114.296071 
L 300.66929 114.36447 
L 299.66929 114.430685 
L 298.66929 114.507602 
L 297.66929 114.534918 
L 296.66929 114.561395 
L 295.66929 114.584046 
L 294.66929 114.603577 
L 293.66929 114.629971 
L 292.66929 114.679742 
L 291.66929 114.714815 
L 290.11196 114.750681 
" clip-path="url(#p3fce86026e)" style="fill: none; stroke: #ff7f0e; stroke-opacity: 0.5; stroke-width: 0.2; stroke-linecap: square"/>
   <path d="M 353.66929 138.312505 
L 352.66929 138.281068 
L 351.66929 138.244128 
L 350.66929 138.146381 
L 349.66929 138.11386 
L 348.66929 138.040235 
L 347.66929 138.00167 
L 346.66929 137.966256 
L 345.66929 137.908616 
L 344.66929 137.83823 
L 343.66929 137.786266 
L 342.66929 137.727176 
L 341.66929 137.638855 
L 340.66929 137.592711 
L 339.66929 137.5503 
L 338.66929 137.519807 
L 337.66929 137.493762 
L 336.66929 137.472562 
L 335.66929 137.418261 
L 334.66929 137.390324 
L 333.66929 137.3606 
L 332.66929 137.335205 
L 331.66929 137.324005 
L 330.66929 137.313881 
L 329.66929 137.314085 
L 328.66929 137.323595 
L 327.66929 137.335248 
L 326.66929 137.366278 
L 325.66929 137.377446 
L 324.66929 137.407563 
L 323.66929 137.46734 
L 322.66929 137.504532 
L 321.66929 137.543628 
L 320.66929 137.586067 
L 319.66929 137.618832 
L 318.66929 137.686259 
L 317.66929 137.725385 
L 316.66929 137.768059 
L 315.66929 137.83864 
L 314.66929 137.875031 
L 313.66929 137.933434 
L 312.66929 138.044387 
L 311.66929 138.115045 
L 310.66929 138.227985 
L 309.66929 138.273758 
L 308.66929 138.335041 
L 307.66929 138.38354 
L 306.66929 138.464363 
L 305.66929 138.582882 
L 304.66929 138.653092 
L 303.66929 138.736355 
L 302.66929 138.769497 
L 301.66929 138.820734 
L 300.66929 138.889132 
L 299.66929 138.955348 
L 298.66929 139.032265 
L 297.66929 139.05958 
L 296.66929 139.086058 
L 295.66929 139.108708 
L 294.66929 139.12824 
L 293.66929 139.154634 
L 292.66929 139.204405 
L 291.66929 139.239478 
L 290.11196 139.275343 
" clip-path="url(#p3fce86026e)" style="fill: none; stroke: #ff7f0e; stroke-opacity: 0.5; stroke-width: 0.2; stroke-linecap: square"/>
   <path d="M 353.66929 185.987964 
L 352.66929 185.956527 
L 351.66929 185.919587 
L 350.66929 185.82184 
L 349.66929 185.789319 
L 348.66929 185.715694 
L 347.66929 185.677128 
L 346.66929 185.641715 
L 345.66929 185.584075 
L 344.66929 185.513689 
L 343.66929 185.461725 
L 342.66929 185.402635 
L 341.66929 185.314314 
L 340.66929 185.26817 
L 339.66929 185.225759 
L 338.66929 185.195266 
L 337.66929 185.169221 
L 336.66929 185.148021 
L 335.66929 185.09372 
L 334.66929 185.065782 
L 333.66929 185.036059 
L 332.66929 185.010664 
L 331.66929 184.999463 
L 330.66929 184.989339 
L 329.66929 184.989544 
L 328.66929 184.999054 
L 327.66929 185.010707 
L 326.66929 185.041736 
L 325.66929 185.052904 
L 324.66929 185.083022 
L 323.66929 185.142799 
L 322.66929 185.17999 
L 321.66929 185.219086 
L 320.66929 185.261526 
L 319.66929 185.294291 
L 318.66929 185.361718 
L 317.66929 185.400844 
L 316.66929 185.443518 
L 315.66929 185.514099 
L 314.66929 185.55049 
L 313.66929 185.608893 
L 312.66929 185.719845 
L 311.66929 185.790504 
L 310.66929 185.903443 
L 309.66929 185.949216 
L 308.66929 186.0105 
L 307.66929 186.058999 
L 306.66929 186.139822 
L 305.66929 186.258341 
L 304.66929 186.328551 
L 303.66929 186.411814 
L 302.66929 186.444955 
L 301.66929 186.496193 
L 300.66929 186.564591 
L 299.66929 186.630806 
L 298.66929 186.707724 
L 297.66929 186.735039 
L 296.66929 186.761517 
L 295.66929 186.784167 
L 294.66929 186.803698 
L 293.66929 186.830092 
L 292.66929 186.879863 
L 291.66929 186.914936 
L 290.11196 186.950802 
" clip-path="url(#p3fce86026e)" style="fill: none; stroke: #ff7f0e; stroke-opacity: 0.5; stroke-width: 0.2; stroke-linecap: square"/>
   <path d="M 353.66929 180.424278 
L 352.66929 180.392841 
L 351.66929 180.355901 
L 350.66929 180.258154 
L 349.66929 180.225633 
L 348.66929 180.152008 
L 347.66929 180.113443 
L 346.66929 180.078029 
L 345.66929 180.020389 
L 344.66929 179.950003 
L 343.66929 179.898039 
L 342.66929 179.838949 
L 341.66929 179.750628 
L 340.66929 179.704484 
L 339.66929 179.662073 
L 338.66929 179.63158 
L 337.66929 179.605535 
L 336.66929 179.584335 
L 335.66929 179.530034 
L 334.66929 179.502097 
L 333.66929 179.472373 
L 332.66929 179.446978 
L 331.66929 179.435778 
L 330.66929 179.425654 
L 329.66929 179.425858 
L 328.66929 179.435368 
L 327.66929 179.447021 
L 326.66929 179.478051 
L 325.66929 179.489219 
L 324.66929 179.519336 
L 323.66929 179.579113 
L 322.66929 179.616305 
L 321.66929 179.655401 
L 320.66929 179.69784 
L 319.66929 179.730605 
L 318.66929 179.798032 
L 317.66929 179.837158 
L 316.66929 179.879832 
L 315.66929 179.950413 
L 314.66929 179.986804 
L 313.66929 180.045207 
L 312.66929 180.15616 
L 311.66929 180.226818 
L 310.66929 180.339758 
L 309.66929 180.385531 
L 308.66929 180.446814 
L 307.66929 180.495313 
L 306.66929 180.576136 
L 305.66929 180.694655 
L 304.66929 180.764865 
L 303.66929 180.848128 
L 302.66929 180.88127 
L 301.66929 180.932507 
L 300.66929 181.000905 
L 299.66929 181.067121 
L 298.66929 181.144038 
L 297.66929 181.171353 
L 296.66929 181.197831 
L 295.66929 181.220481 
L 294.66929 181.240013 
L 293.66929 181.266407 
L 292.66929 181.316178 
L 291.66929 181.351251 
L 290.11196 181.387116 
" clip-path="url(#p3fce86026e)" style="fill: none; stroke: #ff7f0e; stroke-opacity: 0.5; stroke-width: 0.2; stroke-linecap: square"/>
   <path d="M 290.11196 82.03241 
L 291.11196 82.063847 
L 292.11196 82.100787 
L 293.11196 82.198533 
L 294.11196 82.231055 
L 295.11196 82.30468 
L 296.11196 82.343245 
L 297.11196 82.378658 
L 298.11196 82.436298 
L 299.11196 82.506685 
L 300.11196 82.558649 
L 301.11196 82.617739 
L 302.11196 82.70606 
L 303.11196 82.752204 
L 304.11196 82.794615 
L 305.11196 82.825107 
L 306.11196 82.851152 
L 307.11196 82.872353 
L 308.11196 82.926654 
L 309.11196 82.954591 
L 310.11196 82.984315 
L 311.11196 83.00971 
L 312.11196 83.02091 
L 313.11196 83.031034 
L 314.11196 83.03083 
L 315.11196 83.02132 
L 316.11196 83.009667 
L 317.11196 82.978637 
L 318.11196 82.967469 
L 319.11196 82.937352 
L 320.11196 82.877575 
L 321.11196 82.840383 
L 322.11196 82.801287 
L 323.11196 82.758848 
L 324.11196 82.726083 
L 325.11196 82.658656 
L 326.11196 82.61953 
L 327.11196 82.576856 
L 328.11196 82.506275 
L 329.11196 82.469884 
L 330.11196 82.411481 
L 331.11196 82.300528 
L 332.11196 82.22987 
L 333.11196 82.11693 
L 334.11196 82.071157 
L 335.11196 82.009874 
L 336.11196 81.961375 
L 337.11196 81.880552 
L 338.11196 81.762033 
L 339.11196 81.691823 
L 340.11196 81.60856 
L 341.11196 81.575418 
L 342.11196 81.524181 
L 343.11196 81.455783 
L 344.11196 81.389567 
L 345.11196 81.31265 
L 346.11196 81.285335 
L 347.11196 81.258857 
L 348.11196 81.236206 
L 349.11196 81.216675 
L 350.11196 81.190281 
L 351.11196 81.14051 
L 352.11196 81.105437 
L 353.66929 81.069572 
" clip-path="url(#p3fce86026e)" style="fill: none; stroke: #1f77b4; stroke-opacity: 0.5; stroke-width: 0.2; stroke-linecap: square"/>
   <path d="M 290.11196 147.014466 
L 291.11196 147.045902 
L 292.11196 147.082843 
L 293.11196 147.180589 
L 294.11196 147.213111 
L 295.11196 147.286736 
L 296.11196 147.325301 
L 297.11196 147.360714 
L 298.11196 147.418354 
L 299.11196 147.488741 
L 300.11196 147.540705 
L 301.11196 147.599794 
L 302.11196 147.688115 
L 303.11196 147.73426 
L 304.11196 147.776671 
L 305.11196 147.807163 
L 306.11196 147.833208 
L 307.11196 147.854408 
L 308.11196 147.908709 
L 309.11196 147.936647 
L 310.11196 147.966371 
L 311.11196 147.991766 
L 312.11196 148.002966 
L 313.11196 148.01309 
L 314.11196 148.012886 
L 315.11196 148.003376 
L 316.11196 147.991722 
L 317.11196 147.960693 
L 318.11196 147.949525 
L 319.11196 147.919408 
L 320.11196 147.859631 
L 321.11196 147.822439 
L 322.11196 147.783343 
L 323.11196 147.740903 
L 324.11196 147.708138 
L 325.11196 147.640712 
L 326.11196 147.601586 
L 327.11196 147.558911 
L 328.11196 147.488331 
L 329.11196 147.45194 
L 330.11196 147.393537 
L 331.11196 147.282584 
L 332.11196 147.211926 
L 333.11196 147.098986 
L 334.11196 147.053213 
L 335.11196 146.99193 
L 336.11196 146.943431 
L 337.11196 146.862608 
L 338.11196 146.744089 
L 339.11196 146.673878 
L 340.11196 146.590616 
L 341.11196 146.557474 
L 342.11196 146.506237 
L 343.11196 146.437839 
L 344.11196 146.371623 
L 345.11196 146.294706 
L 346.11196 146.267391 
L 347.11196 146.240913 
L 348.11196 146.218262 
L 349.11196 146.198731 
L 350.11196 146.172337 
L 351.11196 146.122566 
L 352.11196 146.087493 
L 353.66929 146.051627 
" clip-path="url(#p3fce86026e)" style="fill: none; stroke: #1f77b4; stroke-opacity: 0.5; stroke-width: 0.2; stroke-linecap: square"/>
   <path d="M 290.11196 188.258448 
L 291.11196 188.289884 
L 292.11196 188.326825 
L 293.11196 188.424571 
L 294.11196 188.457093 
L 295.11196 188.530718 
L 296.11196 188.569283 
L 297.11196 188.604696 
L 298.11196 188.662336 
L 299.11196 188.732722 
L 300.11196 188.784687 
L 301.11196 188.843776 
L 302.11196 188.932097 
L 303.11196 188.978242 
L 304.11196 189.020653 
L 305.11196 189.051145 
L 306.11196 189.07719 
L 307.11196 189.09839 
L 308.11196 189.152691 
L 309.11196 189.180629 
L 310.11196 189.210353 
L 311.11196 189.235748 
L 312.11196 189.246948 
L 313.11196 189.257072 
L 314.11196 189.256868 
L 315.11196 189.247358 
L 316.11196 189.235704 
L 317.11196 189.204675 
L 318.11196 189.193507 
L 319.11196 189.16339 
L 320.11196 189.103613 
L 321.11196 189.066421 
L 322.11196 189.027325 
L 323.11196 188.984885 
L 324.11196 188.95212 
L 325.11196 188.884694 
L 326.11196 188.845568 
L 327.11196 188.802893 
L 328.11196 188.732313 
L 329.11196 188.695922 
L 330.11196 188.637519 
L 331.11196 188.526566 
L 332.11196 188.455908 
L 333.11196 188.342968 
L 334.11196 188.297195 
L 335.11196 188.235912 
L 336.11196 188.187413 
L 337.11196 188.10659 
L 338.11196 187.988071 
L 339.11196 187.91786 
L 340.11196 187.834598 
L 341.11196 187.801456 
L 342.11196 187.750219 
L 343.11196 187.68182 
L 344.11196 187.615605 
L 345.11196 187.538688 
L 346.11196 187.511372 
L 347.11196 187.484895 
L 348.11196 187.462244 
L 349.11196 187.442713 
L 350.11196 187.416319 
L 351.11196 187.366548 
L 352.11196 187.331475 
L 353.66929 187.295609 
" clip-path="url(#p3fce86026e)" style="fill: none; stroke: #1f77b4; stroke-opacity: 0.5; stroke-width: 0.2; stroke-linecap: square"/>
   <path d="M 290.11196 152.223819 
L 291.11196 152.255255 
L 292.11196 152.292195 
L 293.11196 152.389942 
L 294.11196 152.422464 
L 295.11196 152.496088 
L 296.11196 152.534654 
L 297.11196 152.570067 
L 298.11196 152.627707 
L 299.11196 152.698093 
L 300.11196 152.750057 
L 301.11196 152.809147 
L 302.11196 152.897468 
L 303.11196 152.943612 
L 304.11196 152.986023 
L 305.11196 153.016516 
L 306.11196 153.042561 
L 307.11196 153.063761 
L 308.11196 153.118062 
L 309.11196 153.146 
L 310.11196 153.175724 
L 311.11196 153.201118 
L 312.11196 153.212319 
L 313.11196 153.222443 
L 314.11196 153.222238 
L 315.11196 153.212729 
L 316.11196 153.201075 
L 317.11196 153.170046 
L 318.11196 153.158878 
L 319.11196 153.12876 
L 320.11196 153.068983 
L 321.11196 153.031792 
L 322.11196 152.992696 
L 323.11196 152.950256 
L 324.11196 152.917491 
L 325.11196 152.850065 
L 326.11196 152.810939 
L 327.11196 152.768264 
L 328.11196 152.697683 
L 329.11196 152.661293 
L 330.11196 152.602889 
L 331.11196 152.491937 
L 332.11196 152.421279 
L 333.11196 152.308339 
L 334.11196 152.262566 
L 335.11196 152.201283 
L 336.11196 152.152783 
L 337.11196 152.071961 
L 338.11196 151.953442 
L 339.11196 151.883231 
L 340.11196 151.799969 
L 341.11196 151.766827 
L 342.11196 151.715589 
L 343.11196 151.647191 
L 344.11196 151.580976 
L 345.11196 151.504059 
L 346.11196 151.476743 
L 347.11196 151.450266 
L 348.11196 151.427615 
L 349.11196 151.408084 
L 350.11196 151.38169 
L 351.11196 151.331919 
L 352.11196 151.296846 
L 353.66929 151.26098 
" clip-path="url(#p3fce86026e)" style="fill: none; stroke: #1f77b4; stroke-opacity: 0.5; stroke-width: 0.2; stroke-linecap: square"/>
   <path d="M 290.11196 141.010428 
L 291.11196 141.041865 
L 292.11196 141.078805 
L 293.11196 141.176552 
L 294.11196 141.209073 
L 295.11196 141.282698 
L 296.11196 141.321264 
L 297.11196 141.356677 
L 298.11196 141.414317 
L 299.11196 141.484703 
L 300.11196 141.536667 
L 301.11196 141.595757 
L 302.11196 141.684078 
L 303.11196 141.730222 
L 304.11196 141.772633 
L 305.11196 141.803126 
L 306.11196 141.829171 
L 307.11196 141.850371 
L 308.11196 141.904672 
L 309.11196 141.932609 
L 310.11196 141.962333 
L 311.11196 141.987728 
L 312.11196 141.998929 
L 313.11196 142.009053 
L 314.11196 142.008848 
L 315.11196 141.999338 
L 316.11196 141.987685 
L 317.11196 141.956656 
L 318.11196 141.945488 
L 319.11196 141.91537 
L 320.11196 141.855593 
L 321.11196 141.818402 
L 322.11196 141.779306 
L 323.11196 141.736866 
L 324.11196 141.704101 
L 325.11196 141.636674 
L 326.11196 141.597548 
L 327.11196 141.554874 
L 328.11196 141.484293 
L 329.11196 141.447902 
L 330.11196 141.389499 
L 331.11196 141.278547 
L 332.11196 141.207888 
L 333.11196 141.094949 
L 334.11196 141.049176 
L 335.11196 140.987892 
L 336.11196 140.939393 
L 337.11196 140.85857 
L 338.11196 140.740051 
L 339.11196 140.669841 
L 340.11196 140.586578 
L 341.11196 140.553437 
L 342.11196 140.502199 
L 343.11196 140.433801 
L 344.11196 140.367585 
L 345.11196 140.290668 
L 346.11196 140.263353 
L 347.11196 140.236875 
L 348.11196 140.214225 
L 349.11196 140.194693 
L 350.11196 140.1683 
L 351.11196 140.118529 
L 352.11196 140.083456 
L 353.66929 140.04759 
" clip-path="url(#p3fce86026e)" style="fill: none; stroke: #1f77b4; stroke-opacity: 0.5; stroke-width: 0.2; stroke-linecap: square"/>
   <path d="M 290.11196 143.994408 
L 291.11196 144.025845 
L 292.11196 144.062785 
L 293.11196 144.160532 
L 294.11196 144.193053 
L 295.11196 144.266678 
L 296.11196 144.305244 
L 297.11196 144.340657 
L 298.11196 144.398297 
L 299.11196 144.468683 
L 300.11196 144.520647 
L 301.11196 144.579737 
L 302.11196 144.668058 
L 303.11196 144.714202 
L 304.11196 144.756613 
L 305.11196 144.787106 
L 306.11196 144.813151 
L 307.11196 144.834351 
L 308.11196 144.888652 
L 309.11196 144.916589 
L 310.11196 144.946313 
L 311.11196 144.971708 
L 312.11196 144.982909 
L 313.11196 144.993033 
L 314.11196 144.992828 
L 315.11196 144.983318 
L 316.11196 144.971665 
L 317.11196 144.940636 
L 318.11196 144.929468 
L 319.11196 144.89935 
L 320.11196 144.839573 
L 321.11196 144.802382 
L 322.11196 144.763285 
L 323.11196 144.720846 
L 324.11196 144.688081 
L 325.11196 144.620654 
L 326.11196 144.581528 
L 327.11196 144.538854 
L 328.11196 144.468273 
L 329.11196 144.431882 
L 330.11196 144.373479 
L 331.11196 144.262527 
L 332.11196 144.191868 
L 333.11196 144.078928 
L 334.11196 144.033156 
L 335.11196 143.971872 
L 336.11196 143.923373 
L 337.11196 143.84255 
L 338.11196 143.724031 
L 339.11196 143.653821 
L 340.11196 143.570558 
L 341.11196 143.537417 
L 342.11196 143.486179 
L 343.11196 143.417781 
L 344.11196 143.351565 
L 345.11196 143.274648 
L 346.11196 143.247333 
L 347.11196 143.220855 
L 348.11196 143.198205 
L 349.11196 143.178673 
L 350.11196 143.152279 
L 351.11196 143.102509 
L 352.11196 143.067435 
L 353.66929 143.03157 
" clip-path="url(#p3fce86026e)" style="fill: none; stroke: #1f77b4; stroke-opacity: 0.5; stroke-width: 0.2; stroke-linecap: square"/>
   <path d="M 290.11196 192.002773 
L 291.11196 192.03421 
L 292.11196 192.07115 
L 293.11196 192.168897 
L 294.11196 192.201418 
L 295.11196 192.275043 
L 296.11196 192.313609 
L 297.11196 192.349022 
L 298.11196 192.406662 
L 299.11196 192.477048 
L 300.11196 192.529012 
L 301.11196 192.588102 
L 302.11196 192.676423 
L 303.11196 192.722567 
L 304.11196 192.764978 
L 305.11196 192.795471 
L 306.11196 192.821516 
L 307.11196 192.842716 
L 308.11196 192.897017 
L 309.11196 192.924954 
L 310.11196 192.954678 
L 311.11196 192.980073 
L 312.11196 192.991274 
L 313.11196 193.001398 
L 314.11196 193.001193 
L 315.11196 192.991683 
L 316.11196 192.98003 
L 317.11196 192.949 
L 318.11196 192.937833 
L 319.11196 192.907715 
L 320.11196 192.847938 
L 321.11196 192.810747 
L 322.11196 192.77165 
L 323.11196 192.729211 
L 324.11196 192.696446 
L 325.11196 192.629019 
L 326.11196 192.589893 
L 327.11196 192.547219 
L 328.11196 192.476638 
L 329.11196 192.440247 
L 330.11196 192.381844 
L 331.11196 192.270892 
L 332.11196 192.200233 
L 333.11196 192.087293 
L 334.11196 192.041521 
L 335.11196 191.980237 
L 336.11196 191.931738 
L 337.11196 191.850915 
L 338.11196 191.732396 
L 339.11196 191.662186 
L 340.11196 191.578923 
L 341.11196 191.545782 
L 342.11196 191.494544 
L 343.11196 191.426146 
L 344.11196 191.35993 
L 345.11196 191.283013 
L 346.11196 191.255698 
L 347.11196 191.22922 
L 348.11196 191.20657 
L 349.11196 191.187038 
L 350.11196 191.160644 
L 351.11196 191.110874 
L 352.11196 191.0758 
L 353.66929 191.039935 
" clip-path="url(#p3fce86026e)" style="fill: none; stroke: #1f77b4; stroke-opacity: 0.5; stroke-width: 0.2; stroke-linecap: square"/>
   <path d="M 290.11196 111.781084 
L 291.11196 111.81252 
L 292.11196 111.84946 
L 293.11196 111.947207 
L 294.11196 111.979728 
L 295.11196 112.053353 
L 296.11196 112.091919 
L 297.11196 112.127332 
L 298.11196 112.184972 
L 299.11196 112.255358 
L 300.11196 112.307322 
L 301.11196 112.366412 
L 302.11196 112.454733 
L 303.11196 112.500877 
L 304.11196 112.543288 
L 305.11196 112.573781 
L 306.11196 112.599826 
L 307.11196 112.621026 
L 308.11196 112.675327 
L 309.11196 112.703265 
L 310.11196 112.732989 
L 311.11196 112.758383 
L 312.11196 112.769584 
L 313.11196 112.779708 
L 314.11196 112.779503 
L 315.11196 112.769994 
L 316.11196 112.75834 
L 317.11196 112.727311 
L 318.11196 112.716143 
L 319.11196 112.686025 
L 320.11196 112.626248 
L 321.11196 112.589057 
L 322.11196 112.549961 
L 323.11196 112.507521 
L 324.11196 112.474756 
L 325.11196 112.407329 
L 326.11196 112.368204 
L 327.11196 112.325529 
L 328.11196 112.254948 
L 329.11196 112.218558 
L 330.11196 112.160154 
L 331.11196 112.049202 
L 332.11196 111.978543 
L 333.11196 111.865604 
L 334.11196 111.819831 
L 335.11196 111.758548 
L 336.11196 111.710048 
L 337.11196 111.629226 
L 338.11196 111.510707 
L 339.11196 111.440496 
L 340.11196 111.357233 
L 341.11196 111.324092 
L 342.11196 111.272854 
L 343.11196 111.204456 
L 344.11196 111.138241 
L 345.11196 111.061324 
L 346.11196 111.034008 
L 347.11196 111.007531 
L 348.11196 110.98488 
L 349.11196 110.965349 
L 350.11196 110.938955 
L 351.11196 110.889184 
L 352.11196 110.854111 
L 353.66929 110.818245 
" clip-path="url(#p3fce86026e)" style="fill: none; stroke: #1f77b4; stroke-opacity: 0.5; stroke-width: 0.2; stroke-linecap: square"/>
   <path d="M 290.11196 117.55452 
L 291.11196 117.585956 
L 292.11196 117.622897 
L 293.11196 117.720643 
L 294.11196 117.753165 
L 295.11196 117.826789 
L 296.11196 117.865355 
L 297.11196 117.900768 
L 298.11196 117.958408 
L 299.11196 118.028794 
L 300.11196 118.080758 
L 301.11196 118.139848 
L 302.11196 118.228169 
L 303.11196 118.274313 
L 304.11196 118.316724 
L 305.11196 118.347217 
L 306.11196 118.373262 
L 307.11196 118.394462 
L 308.11196 118.448763 
L 309.11196 118.476701 
L 310.11196 118.506425 
L 311.11196 118.53182 
L 312.11196 118.54302 
L 313.11196 118.553144 
L 314.11196 118.55294 
L 315.11196 118.54343 
L 316.11196 118.531776 
L 317.11196 118.500747 
L 318.11196 118.489579 
L 319.11196 118.459461 
L 320.11196 118.399685 
L 321.11196 118.362493 
L 322.11196 118.323397 
L 323.11196 118.280957 
L 324.11196 118.248192 
L 325.11196 118.180766 
L 326.11196 118.14164 
L 327.11196 118.098965 
L 328.11196 118.028385 
L 329.11196 117.991994 
L 330.11196 117.933591 
L 331.11196 117.822638 
L 332.11196 117.75198 
L 333.11196 117.63904 
L 334.11196 117.593267 
L 335.11196 117.531984 
L 336.11196 117.483484 
L 337.11196 117.402662 
L 338.11196 117.284143 
L 339.11196 117.213932 
L 340.11196 117.13067 
L 341.11196 117.097528 
L 342.11196 117.046291 
L 343.11196 116.977892 
L 344.11196 116.911677 
L 345.11196 116.83476 
L 346.11196 116.807444 
L 347.11196 116.780967 
L 348.11196 116.758316 
L 349.11196 116.738785 
L 350.11196 116.712391 
L 351.11196 116.66262 
L 352.11196 116.627547 
L 353.66929 116.591681 
" clip-path="url(#p3fce86026e)" style="fill: none; stroke: #1f77b4; stroke-opacity: 0.5; stroke-width: 0.2; stroke-linecap: square"/>
   <path d="M 290.11196 131.788963 
L 291.11196 131.820399 
L 292.11196 131.85734 
L 293.11196 131.955086 
L 294.11196 131.987608 
L 295.11196 132.061233 
L 296.11196 132.099798 
L 297.11196 132.135211 
L 298.11196 132.192851 
L 299.11196 132.263238 
L 300.11196 132.315202 
L 301.11196 132.374291 
L 302.11196 132.462612 
L 303.11196 132.508757 
L 304.11196 132.551168 
L 305.11196 132.58166 
L 306.11196 132.607705 
L 307.11196 132.628905 
L 308.11196 132.683207 
L 309.11196 132.711144 
L 310.11196 132.740868 
L 311.11196 132.766263 
L 312.11196 132.777463 
L 313.11196 132.787587 
L 314.11196 132.787383 
L 315.11196 132.777873 
L 316.11196 132.766219 
L 317.11196 132.73519 
L 318.11196 132.724022 
L 319.11196 132.693905 
L 320.11196 132.634128 
L 321.11196 132.596936 
L 322.11196 132.55784 
L 323.11196 132.5154 
L 324.11196 132.482635 
L 325.11196 132.415209 
L 326.11196 132.376083 
L 327.11196 132.333408 
L 328.11196 132.262828 
L 329.11196 132.226437 
L 330.11196 132.168034 
L 331.11196 132.057081 
L 332.11196 131.986423 
L 333.11196 131.873483 
L 334.11196 131.82771 
L 335.11196 131.766427 
L 336.11196 131.717928 
L 337.11196 131.637105 
L 338.11196 131.518586 
L 339.11196 131.448375 
L 340.11196 131.365113 
L 341.11196 131.331971 
L 342.11196 131.280734 
L 343.11196 131.212336 
L 344.11196 131.14612 
L 345.11196 131.069203 
L 346.11196 131.041888 
L 347.11196 131.01541 
L 348.11196 130.992759 
L 349.11196 130.973228 
L 350.11196 130.946834 
L 351.11196 130.897063 
L 352.11196 130.86199 
L 353.66929 130.826124 
" clip-path="url(#p3fce86026e)" style="fill: none; stroke: #1f77b4; stroke-opacity: 0.5; stroke-width: 0.2; stroke-linecap: square"/>
   <path d="M 353.66929 240.5797 
L 352.66929 240.548263 
L 351.66929 240.511323 
L 350.66929 240.413576 
L 349.66929 240.381055 
L 348.66929 240.30743 
L 347.66929 240.268864 
L 346.66929 240.233451 
L 345.66929 240.175811 
L 344.66929 240.105425 
L 343.66929 240.053461 
L 342.66929 239.994371 
L 341.66929 239.90605 
L 340.66929 239.859906 
L 339.66929 239.817495 
L 338.66929 239.787002 
L 337.66929 239.760957 
L 336.66929 239.739757 
L 335.66929 239.685456 
L 334.66929 239.657519 
L 333.66929 239.627795 
L 332.66929 239.6024 
L 331.66929 239.591199 
L 330.66929 239.581075 
L 329.66929 239.58128 
L 328.66929 239.59079 
L 327.66929 239.602443 
L 326.66929 239.633472 
L 325.66929 239.64464 
L 324.66929 239.674758 
L 323.66929 239.734535 
L 322.66929 239.771726 
L 321.66929 239.810822 
L 320.66929 239.853262 
L 319.66929 239.886027 
L 318.66929 239.953454 
L 317.66929 239.99258 
L 316.66929 240.035254 
L 315.66929 240.105835 
L 314.66929 240.142226 
L 313.66929 240.200629 
L 312.66929 240.311581 
L 311.66929 240.38224 
L 310.66929 240.49518 
L 309.66929 240.540952 
L 308.66929 240.602236 
L 307.66929 240.650735 
L 306.66929 240.731558 
L 305.66929 240.850077 
L 304.66929 240.920287 
L 303.66929 241.00355 
L 302.66929 241.036691 
L 301.66929 241.087929 
L 300.66929 241.156327 
L 299.66929 241.222543 
L 298.66929 241.29946 
L 297.66929 241.326775 
L 296.66929 241.353253 
L 295.66929 241.375903 
L 294.66929 241.395435 
L 293.66929 241.421828 
L 292.66929 241.471599 
L 291.66929 241.506672 
L 290.11196 241.542538 
" clip-path="url(#p3fce86026e)" style="fill: none; stroke: #ff7f0e; stroke-opacity: 0.5; stroke-width: 0.2; stroke-linecap: square"/>
   <path d="M 353.66929 309.507596 
L 352.66929 309.476159 
L 351.66929 309.439219 
L 350.66929 309.341472 
L 349.66929 309.308951 
L 348.66929 309.235326 
L 347.66929 309.19676 
L 346.66929 309.161347 
L 345.66929 309.103707 
L 344.66929 309.033321 
L 343.66929 308.981357 
L 342.66929 308.922267 
L 341.66929 308.833946 
L 340.66929 308.787802 
L 339.66929 308.745391 
L 338.66929 308.714898 
L 337.66929 308.688853 
L 336.66929 308.667653 
L 335.66929 308.613352 
L 334.66929 308.585415 
L 333.66929 308.555691 
L 332.66929 308.530296 
L 331.66929 308.519095 
L 330.66929 308.508971 
L 329.66929 308.509176 
L 328.66929 308.518686 
L 327.66929 308.530339 
L 326.66929 308.561369 
L 325.66929 308.572536 
L 324.66929 308.602654 
L 323.66929 308.662431 
L 322.66929 308.699622 
L 321.66929 308.738719 
L 320.66929 308.781158 
L 319.66929 308.813923 
L 318.66929 308.88135 
L 317.66929 308.920476 
L 316.66929 308.96315 
L 315.66929 309.033731 
L 314.66929 309.070122 
L 313.66929 309.128525 
L 312.66929 309.239477 
L 311.66929 309.310136 
L 310.66929 309.423076 
L 309.66929 309.468848 
L 308.66929 309.530132 
L 307.66929 309.578631 
L 306.66929 309.659454 
L 305.66929 309.777973 
L 304.66929 309.848183 
L 303.66929 309.931446 
L 302.66929 309.964587 
L 301.66929 310.015825 
L 300.66929 310.084223 
L 299.66929 310.150439 
L 298.66929 310.227356 
L 297.66929 310.254671 
L 296.66929 310.281149 
L 295.66929 310.303799 
L 294.66929 310.323331 
L 293.66929 310.349725 
L 292.66929 310.399495 
L 291.66929 310.434569 
L 290.11196 310.470434 
" clip-path="url(#p3fce86026e)" style="fill: none; stroke: #ff7f0e; stroke-opacity: 0.5; stroke-width: 0.2; stroke-linecap: square"/>
   <path d="M 353.66929 210.679182 
L 352.66929 210.647746 
L 351.66929 210.610806 
L 350.66929 210.513059 
L 349.66929 210.480538 
L 348.66929 210.406913 
L 347.66929 210.368347 
L 346.66929 210.332934 
L 345.66929 210.275294 
L 344.66929 210.204908 
L 343.66929 210.152944 
L 342.66929 210.093854 
L 341.66929 210.005533 
L 340.66929 209.959389 
L 339.66929 209.916978 
L 338.66929 209.886485 
L 337.66929 209.86044 
L 336.66929 209.83924 
L 335.66929 209.784939 
L 334.66929 209.757001 
L 333.66929 209.727277 
L 332.66929 209.701883 
L 331.66929 209.690682 
L 330.66929 209.680558 
L 329.66929 209.680763 
L 328.66929 209.690273 
L 327.66929 209.701926 
L 326.66929 209.732955 
L 325.66929 209.744123 
L 324.66929 209.774241 
L 323.66929 209.834018 
L 322.66929 209.871209 
L 321.66929 209.910305 
L 320.66929 209.952745 
L 319.66929 209.98551 
L 318.66929 210.052937 
L 317.66929 210.092063 
L 316.66929 210.134737 
L 315.66929 210.205318 
L 314.66929 210.241709 
L 313.66929 210.300112 
L 312.66929 210.411064 
L 311.66929 210.481723 
L 310.66929 210.594662 
L 309.66929 210.640435 
L 308.66929 210.701719 
L 307.66929 210.750218 
L 306.66929 210.831041 
L 305.66929 210.949559 
L 304.66929 211.01977 
L 303.66929 211.103033 
L 302.66929 211.136174 
L 301.66929 211.187412 
L 300.66929 211.25581 
L 299.66929 211.322025 
L 298.66929 211.398943 
L 297.66929 211.426258 
L 296.66929 211.452735 
L 295.66929 211.475386 
L 294.66929 211.494917 
L 293.66929 211.521311 
L 292.66929 211.571082 
L 291.66929 211.606155 
L 290.11196 211.642021 
" clip-path="url(#p3fce86026e)" style="fill: none; stroke: #ff7f0e; stroke-opacity: 0.5; stroke-width: 0.2; stroke-linecap: square"/>
   <path d="M 353.66929 304.723989 
L 352.66929 304.692553 
L 351.66929 304.655612 
L 350.66929 304.557866 
L 349.66929 304.525344 
L 348.66929 304.451719 
L 347.66929 304.413154 
L 346.66929 304.377741 
L 345.66929 304.320101 
L 344.66929 304.249715 
L 343.66929 304.19775 
L 342.66929 304.138661 
L 341.66929 304.05034 
L 340.66929 304.004195 
L 339.66929 303.961784 
L 338.66929 303.931292 
L 337.66929 303.905247 
L 336.66929 303.884047 
L 335.66929 303.829746 
L 334.66929 303.801808 
L 333.66929 303.772084 
L 332.66929 303.746689 
L 331.66929 303.735489 
L 330.66929 303.725365 
L 329.66929 303.725569 
L 328.66929 303.735079 
L 327.66929 303.746733 
L 326.66929 303.777762 
L 325.66929 303.78893 
L 324.66929 303.819047 
L 323.66929 303.878824 
L 322.66929 303.916016 
L 321.66929 303.955112 
L 320.66929 303.997552 
L 319.66929 304.030317 
L 318.66929 304.097743 
L 317.66929 304.136869 
L 316.66929 304.179544 
L 315.66929 304.250124 
L 314.66929 304.286515 
L 313.66929 304.344918 
L 312.66929 304.455871 
L 311.66929 304.526529 
L 310.66929 304.639469 
L 309.66929 304.685242 
L 308.66929 304.746525 
L 307.66929 304.795024 
L 306.66929 304.875847 
L 305.66929 304.994366 
L 304.66929 305.064577 
L 303.66929 305.147839 
L 302.66929 305.180981 
L 301.66929 305.232218 
L 300.66929 305.300617 
L 299.66929 305.366832 
L 298.66929 305.443749 
L 297.66929 305.471065 
L 296.66929 305.497542 
L 295.66929 305.520193 
L 294.66929 305.539724 
L 293.66929 305.566118 
L 292.66929 305.615889 
L 291.66929 305.650962 
L 290.11196 305.686828 
" clip-path="url(#p3fce86026e)" style="fill: none; stroke: #ff7f0e; stroke-opacity: 0.5; stroke-width: 0.2; stroke-linecap: square"/>
   <path d="M 353.66929 298.321799 
L 352.66929 298.290363 
L 351.66929 298.253423 
L 350.66929 298.155676 
L 349.66929 298.123155 
L 348.66929 298.04953 
L 347.66929 298.010964 
L 346.66929 297.975551 
L 345.66929 297.917911 
L 344.66929 297.847525 
L 343.66929 297.795561 
L 342.66929 297.736471 
L 341.66929 297.64815 
L 340.66929 297.602006 
L 339.66929 297.559595 
L 338.66929 297.529102 
L 337.66929 297.503057 
L 336.66929 297.481857 
L 335.66929 297.427556 
L 334.66929 297.399618 
L 333.66929 297.369894 
L 332.66929 297.3445 
L 331.66929 297.333299 
L 330.66929 297.323175 
L 329.66929 297.32338 
L 328.66929 297.332889 
L 327.66929 297.344543 
L 326.66929 297.375572 
L 325.66929 297.38674 
L 324.66929 297.416858 
L 323.66929 297.476635 
L 322.66929 297.513826 
L 321.66929 297.552922 
L 320.66929 297.595362 
L 319.66929 297.628127 
L 318.66929 297.695554 
L 317.66929 297.734679 
L 316.66929 297.777354 
L 315.66929 297.847935 
L 314.66929 297.884325 
L 313.66929 297.942729 
L 312.66929 298.053681 
L 311.66929 298.12434 
L 310.66929 298.237279 
L 309.66929 298.283052 
L 308.66929 298.344335 
L 307.66929 298.392835 
L 306.66929 298.473657 
L 305.66929 298.592176 
L 304.66929 298.662387 
L 303.66929 298.74565 
L 302.66929 298.778791 
L 301.66929 298.830029 
L 300.66929 298.898427 
L 299.66929 298.964642 
L 298.66929 299.041559 
L 297.66929 299.068875 
L 296.66929 299.095352 
L 295.66929 299.118003 
L 294.66929 299.137534 
L 293.66929 299.163928 
L 292.66929 299.213699 
L 291.66929 299.248772 
L 290.11196 299.284638 
" clip-path="url(#p3fce86026e)" style="fill: none; stroke: #ff7f0e; stroke-opacity: 0.5; stroke-width: 0.2; stroke-linecap: square"/>
   <path d="M 353.66929 302.549697 
L 352.66929 302.518261 
L 351.66929 302.48132 
L 350.66929 302.383574 
L 349.66929 302.351052 
L 348.66929 302.277428 
L 347.66929 302.238862 
L 346.66929 302.203449 
L 345.66929 302.145809 
L 344.66929 302.075423 
L 343.66929 302.023459 
L 342.66929 301.964369 
L 341.66929 301.876048 
L 340.66929 301.829904 
L 339.66929 301.787493 
L 338.66929 301.757 
L 337.66929 301.730955 
L 336.66929 301.709755 
L 335.66929 301.655454 
L 334.66929 301.627516 
L 333.66929 301.597792 
L 332.66929 301.572397 
L 331.66929 301.561197 
L 330.66929 301.551073 
L 329.66929 301.551277 
L 328.66929 301.560787 
L 327.66929 301.572441 
L 326.66929 301.60347 
L 325.66929 301.614638 
L 324.66929 301.644756 
L 323.66929 301.704533 
L 322.66929 301.741724 
L 321.66929 301.78082 
L 320.66929 301.82326 
L 319.66929 301.856025 
L 318.66929 301.923451 
L 317.66929 301.962577 
L 316.66929 302.005252 
L 315.66929 302.075832 
L 314.66929 302.112223 
L 313.66929 302.170626 
L 312.66929 302.281579 
L 311.66929 302.352237 
L 310.66929 302.465177 
L 309.66929 302.51095 
L 308.66929 302.572233 
L 307.66929 302.620733 
L 306.66929 302.701555 
L 305.66929 302.820074 
L 304.66929 302.890285 
L 303.66929 302.973547 
L 302.66929 303.006689 
L 301.66929 303.057926 
L 300.66929 303.126325 
L 299.66929 303.19254 
L 298.66929 303.269457 
L 297.66929 303.296773 
L 296.66929 303.32325 
L 295.66929 303.345901 
L 294.66929 303.365432 
L 293.66929 303.391826 
L 292.66929 303.441597 
L 291.66929 303.47667 
L 290.11196 303.512536 
" clip-path="url(#p3fce86026e)" style="fill: none; stroke: #ff7f0e; stroke-opacity: 0.5; stroke-width: 0.2; stroke-linecap: square"/>
   <path d="M 353.66929 316.506522 
L 352.66929 316.475086 
L 351.66929 316.438146 
L 350.66929 316.340399 
L 349.66929 316.307878 
L 348.66929 316.234253 
L 347.66929 316.195687 
L 346.66929 316.160274 
L 345.66929 316.102634 
L 344.66929 316.032248 
L 343.66929 315.980284 
L 342.66929 315.921194 
L 341.66929 315.832873 
L 340.66929 315.786729 
L 339.66929 315.744318 
L 338.66929 315.713825 
L 337.66929 315.68778 
L 336.66929 315.66658 
L 335.66929 315.612279 
L 334.66929 315.584341 
L 333.66929 315.554617 
L 332.66929 315.529223 
L 331.66929 315.518022 
L 330.66929 315.507898 
L 329.66929 315.508103 
L 328.66929 315.517612 
L 327.66929 315.529266 
L 326.66929 315.560295 
L 325.66929 315.571463 
L 324.66929 315.601581 
L 323.66929 315.661358 
L 322.66929 315.698549 
L 321.66929 315.737645 
L 320.66929 315.780085 
L 319.66929 315.81285 
L 318.66929 315.880277 
L 317.66929 315.919402 
L 316.66929 315.962077 
L 315.66929 316.032658 
L 314.66929 316.069048 
L 313.66929 316.127452 
L 312.66929 316.238404 
L 311.66929 316.309063 
L 310.66929 316.422002 
L 309.66929 316.467775 
L 308.66929 316.529058 
L 307.66929 316.577558 
L 306.66929 316.65838 
L 305.66929 316.776899 
L 304.66929 316.84711 
L 303.66929 316.930373 
L 302.66929 316.963514 
L 301.66929 317.014752 
L 300.66929 317.08315 
L 299.66929 317.149365 
L 298.66929 317.226282 
L 297.66929 317.253598 
L 296.66929 317.280075 
L 295.66929 317.302726 
L 294.66929 317.322257 
L 293.66929 317.348651 
L 292.66929 317.398422 
L 291.66929 317.433495 
L 290.11196 317.469361 
" clip-path="url(#p3fce86026e)" style="fill: none; stroke: #ff7f0e; stroke-opacity: 0.5; stroke-width: 0.2; stroke-linecap: square"/>
   <path d="M 353.66929 207.72634 
L 352.66929 207.694904 
L 351.66929 207.657964 
L 350.66929 207.560217 
L 349.66929 207.527695 
L 348.66929 207.454071 
L 347.66929 207.415505 
L 346.66929 207.380092 
L 345.66929 207.322452 
L 344.66929 207.252066 
L 343.66929 207.200102 
L 342.66929 207.141012 
L 341.66929 207.052691 
L 340.66929 207.006547 
L 339.66929 206.964136 
L 338.66929 206.933643 
L 337.66929 206.907598 
L 336.66929 206.886398 
L 335.66929 206.832097 
L 334.66929 206.804159 
L 333.66929 206.774435 
L 332.66929 206.749041 
L 331.66929 206.73784 
L 330.66929 206.727716 
L 329.66929 206.72792 
L 328.66929 206.73743 
L 327.66929 206.749084 
L 326.66929 206.780113 
L 325.66929 206.791281 
L 324.66929 206.821399 
L 323.66929 206.881176 
L 322.66929 206.918367 
L 321.66929 206.957463 
L 320.66929 206.999903 
L 319.66929 207.032668 
L 318.66929 207.100094 
L 317.66929 207.13922 
L 316.66929 207.181895 
L 315.66929 207.252475 
L 314.66929 207.288866 
L 313.66929 207.34727 
L 312.66929 207.458222 
L 311.66929 207.52888 
L 310.66929 207.64182 
L 309.66929 207.687593 
L 308.66929 207.748876 
L 307.66929 207.797376 
L 306.66929 207.878198 
L 305.66929 207.996717 
L 304.66929 208.066928 
L 303.66929 208.15019 
L 302.66929 208.183332 
L 301.66929 208.234569 
L 300.66929 208.302968 
L 299.66929 208.369183 
L 298.66929 208.4461 
L 297.66929 208.473416 
L 296.66929 208.499893 
L 295.66929 208.522544 
L 294.66929 208.542075 
L 293.66929 208.568469 
L 292.66929 208.61824 
L 291.66929 208.653313 
L 290.11196 208.689179 
" clip-path="url(#p3fce86026e)" style="fill: none; stroke: #ff7f0e; stroke-opacity: 0.5; stroke-width: 0.2; stroke-linecap: square"/>
   <path d="M 353.66929 218.528725 
L 352.66929 218.497288 
L 351.66929 218.460348 
L 350.66929 218.362601 
L 349.66929 218.33008 
L 348.66929 218.256455 
L 347.66929 218.217889 
L 346.66929 218.182476 
L 345.66929 218.124836 
L 344.66929 218.05445 
L 343.66929 218.002486 
L 342.66929 217.943396 
L 341.66929 217.855075 
L 340.66929 217.808931 
L 339.66929 217.76652 
L 338.66929 217.736027 
L 337.66929 217.709982 
L 336.66929 217.688782 
L 335.66929 217.634481 
L 334.66929 217.606544 
L 333.66929 217.57682 
L 332.66929 217.551425 
L 331.66929 217.540224 
L 330.66929 217.5301 
L 329.66929 217.530305 
L 328.66929 217.539815 
L 327.66929 217.551468 
L 326.66929 217.582498 
L 325.66929 217.593665 
L 324.66929 217.623783 
L 323.66929 217.68356 
L 322.66929 217.720751 
L 321.66929 217.759848 
L 320.66929 217.802287 
L 319.66929 217.835052 
L 318.66929 217.902479 
L 317.66929 217.941605 
L 316.66929 217.984279 
L 315.66929 218.05486 
L 314.66929 218.091251 
L 313.66929 218.149654 
L 312.66929 218.260606 
L 311.66929 218.331265 
L 310.66929 218.444205 
L 309.66929 218.489977 
L 308.66929 218.551261 
L 307.66929 218.59976 
L 306.66929 218.680583 
L 305.66929 218.799102 
L 304.66929 218.869312 
L 303.66929 218.952575 
L 302.66929 218.985716 
L 301.66929 219.036954 
L 300.66929 219.105352 
L 299.66929 219.171568 
L 298.66929 219.248485 
L 297.66929 219.2758 
L 296.66929 219.302278 
L 295.66929 219.324928 
L 294.66929 219.34446 
L 293.66929 219.370854 
L 292.66929 219.420624 
L 291.66929 219.455698 
L 290.11196 219.491563 
" clip-path="url(#p3fce86026e)" style="fill: none; stroke: #ff7f0e; stroke-opacity: 0.5; stroke-width: 0.2; stroke-linecap: square"/>
   <path d="M 353.66929 307.339394 
L 352.66929 307.307958 
L 351.66929 307.271018 
L 350.66929 307.173271 
L 349.66929 307.14075 
L 348.66929 307.067125 
L 347.66929 307.028559 
L 346.66929 306.993146 
L 345.66929 306.935506 
L 344.66929 306.86512 
L 343.66929 306.813156 
L 342.66929 306.754066 
L 341.66929 306.665745 
L 340.66929 306.619601 
L 339.66929 306.57719 
L 338.66929 306.546697 
L 337.66929 306.520652 
L 336.66929 306.499452 
L 335.66929 306.445151 
L 334.66929 306.417213 
L 333.66929 306.387489 
L 332.66929 306.362095 
L 331.66929 306.350894 
L 330.66929 306.34077 
L 329.66929 306.340975 
L 328.66929 306.350484 
L 327.66929 306.362138 
L 326.66929 306.393167 
L 325.66929 306.404335 
L 324.66929 306.434453 
L 323.66929 306.49423 
L 322.66929 306.531421 
L 321.66929 306.570517 
L 320.66929 306.612957 
L 319.66929 306.645722 
L 318.66929 306.713149 
L 317.66929 306.752274 
L 316.66929 306.794949 
L 315.66929 306.86553 
L 314.66929 306.90192 
L 313.66929 306.960324 
L 312.66929 307.071276 
L 311.66929 307.141935 
L 310.66929 307.254874 
L 309.66929 307.300647 
L 308.66929 307.36193 
L 307.66929 307.41043 
L 306.66929 307.491252 
L 305.66929 307.609771 
L 304.66929 307.679982 
L 303.66929 307.763245 
L 302.66929 307.796386 
L 301.66929 307.847624 
L 300.66929 307.916022 
L 299.66929 307.982237 
L 298.66929 308.059154 
L 297.66929 308.08647 
L 296.66929 308.112947 
L 295.66929 308.135598 
L 294.66929 308.155129 
L 293.66929 308.181523 
L 292.66929 308.231294 
L 291.66929 308.266367 
L 290.11196 308.302233 
" clip-path="url(#p3fce86026e)" style="fill: none; stroke: #ff7f0e; stroke-opacity: 0.5; stroke-width: 0.2; stroke-linecap: square"/>
   <path d="M 290.11196 309.174161 
L 291.11196 309.205598 
L 292.11196 309.242538 
L 293.11196 309.340284 
L 294.11196 309.372806 
L 295.11196 309.446431 
L 296.11196 309.484996 
L 297.11196 309.520409 
L 298.11196 309.578049 
L 299.11196 309.648436 
L 300.11196 309.7004 
L 301.11196 309.75949 
L 302.11196 309.847811 
L 303.11196 309.893955 
L 304.11196 309.936366 
L 305.11196 309.966858 
L 306.11196 309.992903 
L 307.11196 310.014103 
L 308.11196 310.068405 
L 309.11196 310.096342 
L 310.11196 310.126066 
L 311.11196 310.151461 
L 312.11196 310.162661 
L 313.11196 310.172785 
L 314.11196 310.172581 
L 315.11196 310.163071 
L 316.11196 310.151418 
L 317.11196 310.120388 
L 318.11196 310.10922 
L 319.11196 310.079103 
L 320.11196 310.019326 
L 321.11196 309.982134 
L 322.11196 309.943038 
L 323.11196 309.900599 
L 324.11196 309.867833 
L 325.11196 309.800407 
L 326.11196 309.761281 
L 327.11196 309.718607 
L 328.11196 309.648026 
L 329.11196 309.611635 
L 330.11196 309.553232 
L 331.11196 309.442279 
L 332.11196 309.371621 
L 333.11196 309.258681 
L 334.11196 309.212908 
L 335.11196 309.151625 
L 336.11196 309.103126 
L 337.11196 309.022303 
L 338.11196 308.903784 
L 339.11196 308.833574 
L 340.11196 308.750311 
L 341.11196 308.717169 
L 342.11196 308.665932 
L 343.11196 308.597534 
L 344.11196 308.531318 
L 345.11196 308.454401 
L 346.11196 308.427086 
L 347.11196 308.400608 
L 348.11196 308.377957 
L 349.11196 308.358426 
L 350.11196 308.332032 
L 351.11196 308.282261 
L 352.11196 308.247188 
L 353.66929 308.211323 
" clip-path="url(#p3fce86026e)" style="fill: none; stroke: #1f77b4; stroke-opacity: 0.5; stroke-width: 0.2; stroke-linecap: square"/>
   <path d="M 290.11196 230.156511 
L 291.11196 230.187947 
L 292.11196 230.224888 
L 293.11196 230.322634 
L 294.11196 230.355156 
L 295.11196 230.42878 
L 296.11196 230.467346 
L 297.11196 230.502759 
L 298.11196 230.560399 
L 299.11196 230.630785 
L 300.11196 230.682749 
L 301.11196 230.741839 
L 302.11196 230.83016 
L 303.11196 230.876304 
L 304.11196 230.918715 
L 305.11196 230.949208 
L 306.11196 230.975253 
L 307.11196 230.996453 
L 308.11196 231.050754 
L 309.11196 231.078692 
L 310.11196 231.108416 
L 311.11196 231.133811 
L 312.11196 231.145011 
L 313.11196 231.155135 
L 314.11196 231.154931 
L 315.11196 231.145421 
L 316.11196 231.133767 
L 317.11196 231.102738 
L 318.11196 231.09157 
L 319.11196 231.061452 
L 320.11196 231.001675 
L 321.11196 230.964484 
L 322.11196 230.925388 
L 323.11196 230.882948 
L 324.11196 230.850183 
L 325.11196 230.782757 
L 326.11196 230.743631 
L 327.11196 230.700956 
L 328.11196 230.630376 
L 329.11196 230.593985 
L 330.11196 230.535582 
L 331.11196 230.424629 
L 332.11196 230.353971 
L 333.11196 230.241031 
L 334.11196 230.195258 
L 335.11196 230.133975 
L 336.11196 230.085475 
L 337.11196 230.004653 
L 338.11196 229.886134 
L 339.11196 229.815923 
L 340.11196 229.732661 
L 341.11196 229.699519 
L 342.11196 229.648282 
L 343.11196 229.579883 
L 344.11196 229.513668 
L 345.11196 229.436751 
L 346.11196 229.409435 
L 347.11196 229.382958 
L 348.11196 229.360307 
L 349.11196 229.340776 
L 350.11196 229.314382 
L 351.11196 229.264611 
L 352.11196 229.229538 
L 353.66929 229.193672 
" clip-path="url(#p3fce86026e)" style="fill: none; stroke: #1f77b4; stroke-opacity: 0.5; stroke-width: 0.2; stroke-linecap: square"/>
   <path d="M 290.11196 256.033838 
L 291.11196 256.065274 
L 292.11196 256.102215 
L 293.11196 256.199961 
L 294.11196 256.232483 
L 295.11196 256.306107 
L 296.11196 256.344673 
L 297.11196 256.380086 
L 298.11196 256.437726 
L 299.11196 256.508112 
L 300.11196 256.560076 
L 301.11196 256.619166 
L 302.11196 256.707487 
L 303.11196 256.753631 
L 304.11196 256.796042 
L 305.11196 256.826535 
L 306.11196 256.85258 
L 307.11196 256.87378 
L 308.11196 256.928081 
L 309.11196 256.956019 
L 310.11196 256.985743 
L 311.11196 257.011138 
L 312.11196 257.022338 
L 313.11196 257.032462 
L 314.11196 257.032258 
L 315.11196 257.022748 
L 316.11196 257.011094 
L 317.11196 256.980065 
L 318.11196 256.968897 
L 319.11196 256.938779 
L 320.11196 256.879002 
L 321.11196 256.841811 
L 322.11196 256.802715 
L 323.11196 256.760275 
L 324.11196 256.72751 
L 325.11196 256.660084 
L 326.11196 256.620958 
L 327.11196 256.578283 
L 328.11196 256.507703 
L 329.11196 256.471312 
L 330.11196 256.412909 
L 331.11196 256.301956 
L 332.11196 256.231298 
L 333.11196 256.118358 
L 334.11196 256.072585 
L 335.11196 256.011302 
L 336.11196 255.962802 
L 337.11196 255.88198 
L 338.11196 255.763461 
L 339.11196 255.69325 
L 340.11196 255.609988 
L 341.11196 255.576846 
L 342.11196 255.525609 
L 343.11196 255.45721 
L 344.11196 255.390995 
L 345.11196 255.314078 
L 346.11196 255.286762 
L 347.11196 255.260285 
L 348.11196 255.237634 
L 349.11196 255.218103 
L 350.11196 255.191709 
L 351.11196 255.141938 
L 352.11196 255.106865 
L 353.66929 255.070999 
" clip-path="url(#p3fce86026e)" style="fill: none; stroke: #1f77b4; stroke-opacity: 0.5; stroke-width: 0.2; stroke-linecap: square"/>
   <path d="M 290.11196 239.66367 
L 291.11196 239.695106 
L 292.11196 239.732047 
L 293.11196 239.829793 
L 294.11196 239.862315 
L 295.11196 239.93594 
L 296.11196 239.974505 
L 297.11196 240.009918 
L 298.11196 240.067558 
L 299.11196 240.137944 
L 300.11196 240.189909 
L 301.11196 240.248998 
L 302.11196 240.337319 
L 303.11196 240.383464 
L 304.11196 240.425875 
L 305.11196 240.456367 
L 306.11196 240.482412 
L 307.11196 240.503612 
L 308.11196 240.557913 
L 309.11196 240.585851 
L 310.11196 240.615575 
L 311.11196 240.64097 
L 312.11196 240.65217 
L 313.11196 240.662294 
L 314.11196 240.66209 
L 315.11196 240.65258 
L 316.11196 240.640926 
L 317.11196 240.609897 
L 318.11196 240.598729 
L 319.11196 240.568612 
L 320.11196 240.508835 
L 321.11196 240.471643 
L 322.11196 240.432547 
L 323.11196 240.390107 
L 324.11196 240.357342 
L 325.11196 240.289916 
L 326.11196 240.25079 
L 327.11196 240.208115 
L 328.11196 240.137535 
L 329.11196 240.101144 
L 330.11196 240.042741 
L 331.11196 239.931788 
L 332.11196 239.86113 
L 333.11196 239.74819 
L 334.11196 239.702417 
L 335.11196 239.641134 
L 336.11196 239.592635 
L 337.11196 239.511812 
L 338.11196 239.393293 
L 339.11196 239.323082 
L 340.11196 239.23982 
L 341.11196 239.206678 
L 342.11196 239.155441 
L 343.11196 239.087042 
L 344.11196 239.020827 
L 345.11196 238.94391 
L 346.11196 238.916594 
L 347.11196 238.890117 
L 348.11196 238.867466 
L 349.11196 238.847935 
L 350.11196 238.821541 
L 351.11196 238.77177 
L 352.11196 238.736697 
L 353.66929 238.700831 
" clip-path="url(#p3fce86026e)" style="fill: none; stroke: #1f77b4; stroke-opacity: 0.5; stroke-width: 0.2; stroke-linecap: square"/>
   <path d="M 290.11196 231.806573 
L 291.11196 231.838009 
L 292.11196 231.87495 
L 293.11196 231.972696 
L 294.11196 232.005218 
L 295.11196 232.078842 
L 296.11196 232.117408 
L 297.11196 232.152821 
L 298.11196 232.210461 
L 299.11196 232.280847 
L 300.11196 232.332811 
L 301.11196 232.391901 
L 302.11196 232.480222 
L 303.11196 232.526367 
L 304.11196 232.568777 
L 305.11196 232.59927 
L 306.11196 232.625315 
L 307.11196 232.646515 
L 308.11196 232.700816 
L 309.11196 232.728754 
L 310.11196 232.758478 
L 311.11196 232.783873 
L 312.11196 232.795073 
L 313.11196 232.805197 
L 314.11196 232.804993 
L 315.11196 232.795483 
L 316.11196 232.783829 
L 317.11196 232.7528 
L 318.11196 232.741632 
L 319.11196 232.711514 
L 320.11196 232.651738 
L 321.11196 232.614546 
L 322.11196 232.57545 
L 323.11196 232.53301 
L 324.11196 232.500245 
L 325.11196 232.432819 
L 326.11196 232.393693 
L 327.11196 232.351018 
L 328.11196 232.280438 
L 329.11196 232.244047 
L 330.11196 232.185644 
L 331.11196 232.074691 
L 332.11196 232.004033 
L 333.11196 231.891093 
L 334.11196 231.84532 
L 335.11196 231.784037 
L 336.11196 231.735537 
L 337.11196 231.654715 
L 338.11196 231.536196 
L 339.11196 231.465985 
L 340.11196 231.382723 
L 341.11196 231.349581 
L 342.11196 231.298344 
L 343.11196 231.229945 
L 344.11196 231.16373 
L 345.11196 231.086813 
L 346.11196 231.059497 
L 347.11196 231.03302 
L 348.11196 231.010369 
L 349.11196 230.990838 
L 350.11196 230.964444 
L 351.11196 230.914673 
L 352.11196 230.8796 
L 353.66929 230.843734 
" clip-path="url(#p3fce86026e)" style="fill: none; stroke: #1f77b4; stroke-opacity: 0.5; stroke-width: 0.2; stroke-linecap: square"/>
   <path d="M 290.11196 261.744183 
L 291.11196 261.77562 
L 292.11196 261.81256 
L 293.11196 261.910307 
L 294.11196 261.942828 
L 295.11196 262.016453 
L 296.11196 262.055019 
L 297.11196 262.090432 
L 298.11196 262.148072 
L 299.11196 262.218458 
L 300.11196 262.270422 
L 301.11196 262.329512 
L 302.11196 262.417833 
L 303.11196 262.463977 
L 304.11196 262.506388 
L 305.11196 262.536881 
L 306.11196 262.562926 
L 307.11196 262.584126 
L 308.11196 262.638427 
L 309.11196 262.666364 
L 310.11196 262.696088 
L 311.11196 262.721483 
L 312.11196 262.732684 
L 313.11196 262.742808 
L 314.11196 262.742603 
L 315.11196 262.733093 
L 316.11196 262.72144 
L 317.11196 262.69041 
L 318.11196 262.679243 
L 319.11196 262.649125 
L 320.11196 262.589348 
L 321.11196 262.552157 
L 322.11196 262.51306 
L 323.11196 262.470621 
L 324.11196 262.437856 
L 325.11196 262.370429 
L 326.11196 262.331303 
L 327.11196 262.288629 
L 328.11196 262.218048 
L 329.11196 262.181657 
L 330.11196 262.123254 
L 331.11196 262.012302 
L 332.11196 261.941643 
L 333.11196 261.828703 
L 334.11196 261.782931 
L 335.11196 261.721647 
L 336.11196 261.673148 
L 337.11196 261.592325 
L 338.11196 261.473806 
L 339.11196 261.403596 
L 340.11196 261.320333 
L 341.11196 261.287191 
L 342.11196 261.235954 
L 343.11196 261.167556 
L 344.11196 261.10134 
L 345.11196 261.024423 
L 346.11196 260.997108 
L 347.11196 260.97063 
L 348.11196 260.94798 
L 349.11196 260.928448 
L 350.11196 260.902054 
L 351.11196 260.852284 
L 352.11196 260.81721 
L 353.66929 260.781345 
" clip-path="url(#p3fce86026e)" style="fill: none; stroke: #1f77b4; stroke-opacity: 0.5; stroke-width: 0.2; stroke-linecap: square"/>
   <path d="M 290.11196 275.404736 
L 291.11196 275.436172 
L 292.11196 275.473113 
L 293.11196 275.570859 
L 294.11196 275.603381 
L 295.11196 275.677005 
L 296.11196 275.715571 
L 297.11196 275.750984 
L 298.11196 275.808624 
L 299.11196 275.87901 
L 300.11196 275.930974 
L 301.11196 275.990064 
L 302.11196 276.078385 
L 303.11196 276.12453 
L 304.11196 276.16694 
L 305.11196 276.197433 
L 306.11196 276.223478 
L 307.11196 276.244678 
L 308.11196 276.298979 
L 309.11196 276.326917 
L 310.11196 276.356641 
L 311.11196 276.382036 
L 312.11196 276.393236 
L 313.11196 276.40336 
L 314.11196 276.403156 
L 315.11196 276.393646 
L 316.11196 276.381992 
L 317.11196 276.350963 
L 318.11196 276.339795 
L 319.11196 276.309677 
L 320.11196 276.249901 
L 321.11196 276.212709 
L 322.11196 276.173613 
L 323.11196 276.131173 
L 324.11196 276.098408 
L 325.11196 276.030982 
L 326.11196 275.991856 
L 327.11196 275.949181 
L 328.11196 275.878601 
L 329.11196 275.84221 
L 330.11196 275.783807 
L 331.11196 275.672854 
L 332.11196 275.602196 
L 333.11196 275.489256 
L 334.11196 275.443483 
L 335.11196 275.3822 
L 336.11196 275.3337 
L 337.11196 275.252878 
L 338.11196 275.134359 
L 339.11196 275.064148 
L 340.11196 274.980886 
L 341.11196 274.947744 
L 342.11196 274.896507 
L 343.11196 274.828108 
L 344.11196 274.761893 
L 345.11196 274.684976 
L 346.11196 274.65766 
L 347.11196 274.631183 
L 348.11196 274.608532 
L 349.11196 274.589001 
L 350.11196 274.562607 
L 351.11196 274.512836 
L 352.11196 274.477763 
L 353.66929 274.441897 
" clip-path="url(#p3fce86026e)" style="fill: none; stroke: #1f77b4; stroke-opacity: 0.5; stroke-width: 0.2; stroke-linecap: square"/>
   <path d="M 290.11196 304.896948 
L 291.11196 304.928385 
L 292.11196 304.965325 
L 293.11196 305.063071 
L 294.11196 305.095593 
L 295.11196 305.169218 
L 296.11196 305.207783 
L 297.11196 305.243197 
L 298.11196 305.300836 
L 299.11196 305.371223 
L 300.11196 305.423187 
L 301.11196 305.482277 
L 302.11196 305.570598 
L 303.11196 305.616742 
L 304.11196 305.659153 
L 305.11196 305.689645 
L 306.11196 305.71569 
L 307.11196 305.736891 
L 308.11196 305.791192 
L 309.11196 305.819129 
L 310.11196 305.848853 
L 311.11196 305.874248 
L 312.11196 305.885448 
L 313.11196 305.895572 
L 314.11196 305.895368 
L 315.11196 305.885858 
L 316.11196 305.874205 
L 317.11196 305.843175 
L 318.11196 305.832007 
L 319.11196 305.80189 
L 320.11196 305.742113 
L 321.11196 305.704921 
L 322.11196 305.665825 
L 323.11196 305.623386 
L 324.11196 305.590621 
L 325.11196 305.523194 
L 326.11196 305.484068 
L 327.11196 305.441394 
L 328.11196 305.370813 
L 329.11196 305.334422 
L 330.11196 305.276019 
L 331.11196 305.165066 
L 332.11196 305.094408 
L 333.11196 304.981468 
L 334.11196 304.935695 
L 335.11196 304.874412 
L 336.11196 304.825913 
L 337.11196 304.74509 
L 338.11196 304.626571 
L 339.11196 304.556361 
L 340.11196 304.473098 
L 341.11196 304.439956 
L 342.11196 304.388719 
L 343.11196 304.320321 
L 344.11196 304.254105 
L 345.11196 304.177188 
L 346.11196 304.149873 
L 347.11196 304.123395 
L 348.11196 304.100744 
L 349.11196 304.081213 
L 350.11196 304.054819 
L 351.11196 304.005048 
L 352.11196 303.969975 
L 353.66929 303.93411 
" clip-path="url(#p3fce86026e)" style="fill: none; stroke: #1f77b4; stroke-opacity: 0.5; stroke-width: 0.2; stroke-linecap: square"/>
   <path d="M 290.11196 265.258978 
L 291.11196 265.290415 
L 292.11196 265.327355 
L 293.11196 265.425102 
L 294.11196 265.457623 
L 295.11196 265.531248 
L 296.11196 265.569814 
L 297.11196 265.605227 
L 298.11196 265.662867 
L 299.11196 265.733253 
L 300.11196 265.785217 
L 301.11196 265.844307 
L 302.11196 265.932628 
L 303.11196 265.978772 
L 304.11196 266.021183 
L 305.11196 266.051676 
L 306.11196 266.077721 
L 307.11196 266.098921 
L 308.11196 266.153222 
L 309.11196 266.181159 
L 310.11196 266.210883 
L 311.11196 266.236278 
L 312.11196 266.247479 
L 313.11196 266.257602 
L 314.11196 266.257398 
L 315.11196 266.247888 
L 316.11196 266.236235 
L 317.11196 266.205205 
L 318.11196 266.194038 
L 319.11196 266.16392 
L 320.11196 266.104143 
L 321.11196 266.066952 
L 322.11196 266.027855 
L 323.11196 265.985416 
L 324.11196 265.952651 
L 325.11196 265.885224 
L 326.11196 265.846098 
L 327.11196 265.803424 
L 328.11196 265.732843 
L 329.11196 265.696452 
L 330.11196 265.638049 
L 331.11196 265.527097 
L 332.11196 265.456438 
L 333.11196 265.343498 
L 334.11196 265.297726 
L 335.11196 265.236442 
L 336.11196 265.187943 
L 337.11196 265.10712 
L 338.11196 264.988601 
L 339.11196 264.918391 
L 340.11196 264.835128 
L 341.11196 264.801986 
L 342.11196 264.750749 
L 343.11196 264.682351 
L 344.11196 264.616135 
L 345.11196 264.539218 
L 346.11196 264.511903 
L 347.11196 264.485425 
L 348.11196 264.462775 
L 349.11196 264.443243 
L 350.11196 264.416849 
L 351.11196 264.367079 
L 352.11196 264.332005 
L 353.66929 264.29614 
" clip-path="url(#p3fce86026e)" style="fill: none; stroke: #1f77b4; stroke-opacity: 0.5; stroke-width: 0.2; stroke-linecap: square"/>
   <path d="M 290.11196 259.541304 
L 291.11196 259.57274 
L 292.11196 259.60968 
L 293.11196 259.707427 
L 294.11196 259.739949 
L 295.11196 259.813573 
L 296.11196 259.852139 
L 297.11196 259.887552 
L 298.11196 259.945192 
L 299.11196 260.015578 
L 300.11196 260.067542 
L 301.11196 260.126632 
L 302.11196 260.214953 
L 303.11196 260.261097 
L 304.11196 260.303508 
L 305.11196 260.334001 
L 306.11196 260.360046 
L 307.11196 260.381246 
L 308.11196 260.435547 
L 309.11196 260.463485 
L 310.11196 260.493209 
L 311.11196 260.518603 
L 312.11196 260.529804 
L 313.11196 260.539928 
L 314.11196 260.539723 
L 315.11196 260.530214 
L 316.11196 260.51856 
L 317.11196 260.487531 
L 318.11196 260.476363 
L 319.11196 260.446245 
L 320.11196 260.386468 
L 321.11196 260.349277 
L 322.11196 260.310181 
L 323.11196 260.267741 
L 324.11196 260.234976 
L 325.11196 260.16755 
L 326.11196 260.128424 
L 327.11196 260.085749 
L 328.11196 260.015168 
L 329.11196 259.978778 
L 330.11196 259.920374 
L 331.11196 259.809422 
L 332.11196 259.738764 
L 333.11196 259.625824 
L 334.11196 259.580051 
L 335.11196 259.518768 
L 336.11196 259.470268 
L 337.11196 259.389446 
L 338.11196 259.270927 
L 339.11196 259.200716 
L 340.11196 259.117454 
L 341.11196 259.084312 
L 342.11196 259.033074 
L 343.11196 258.964676 
L 344.11196 258.898461 
L 345.11196 258.821544 
L 346.11196 258.794228 
L 347.11196 258.767751 
L 348.11196 258.7451 
L 349.11196 258.725569 
L 350.11196 258.699175 
L 351.11196 258.649404 
L 352.11196 258.614331 
L 353.66929 258.578465 
" clip-path="url(#p3fce86026e)" style="fill: none; stroke: #1f77b4; stroke-opacity: 0.5; stroke-width: 0.2; stroke-linecap: square"/>
   <g id="patch_3">
    <path d="M 69.06392 22.318125 
L 69.06392 318.021875 
M 284.549772 22.318125 
L 284.549772 318.021875 
" clip-path="url(#p3fce86026e)" style="fill: none; stroke: #ffffff; stroke-width: 3; stroke-linejoin: miter"/>
    <path d="M 69.06392 22.318125 
L 69.06392 318.021875 
M 284.549772 22.318125 
L 284.549772 318.021875 
" clip-path="url(#p3fce86026e)" style="fill: none; stroke: #1f77b4; stroke-linejoin: miter"/>
    <g id="PolyCollection_1">
     <path d="M 284.549772 22.318125 
L 69.06392 22.318125 
L 69.06392 318.021875 
L 284.549772 318.021875 
L 284.549772 318.021875 
L 284.549772 22.318125 
z
" clip-path="url(#p3fce86026e)" style="fill: #1f77b4; fill-opacity: 0.5"/>
    </g>
    <g id="patch_4">
     <path d="M 359.231478 22.318125 
L 359.231478 318.021875 
M 574.71733 22.318125 
L 574.71733 318.021875 
" clip-path="url(#p3fce86026e)" style="fill: none; stroke: #ffffff; stroke-width: 3; stroke-linejoin: miter"/>
     <path d="M 359.231478 22.318125 
L 359.231478 318.021875 
M 574.71733 22.318125 
L 574.71733 318.021875 
" clip-path="url(#p3fce86026e)" style="fill: none; stroke: #ff7f0e; stroke-linejoin: miter"/>
     <g id="PolyCollection_2">
      <path d="M 574.71733 22.318125 
L 359.231478 22.318125 
L 359.231478 318.021875 
L 574.71733 318.021875 
L 574.71733 318.021875 
L 574.71733 22.318125 
z
" clip-path="url(#p3fce86026e)" style="fill: #ff7f0e; fill-opacity: 0.5"/>
     </g>
     <g id="matplotlib.axis_1">
      <g id="xtick_1">
       <g id="line2d_1"/>
       <g id="text_1">
        <!-- deme0 -->
        <g transform="translate(159.42794 329.120312) scale(0.1 -0.1)">
         <defs>
          <path id="DejaVuSans-64" d="M 2906 2969 
L 2906 4863 
L 3481 4863 
L 3481 0 
L 2906 0 
L 2906 525 
Q 2725 213 2448 61 
Q 2172 -91 1784 -91 
Q 1150 -91 751 415 
Q 353 922 353 1747 
Q 353 2572 751 3078 
Q 1150 3584 1784 3584 
Q 2172 3584 2448 3432 
Q 2725 3281 2906 2969 
z
M 947 1747 
Q 947 1113 1208 752 
Q 1469 391 1925 391 
Q 2381 391 2643 752 
Q 2906 1113 2906 1747 
Q 2906 2381 2643 2742 
Q 2381 3103 1925 3103 
Q 1469 3103 1208 2742 
Q 947 2381 947 1747 
z
" transform="scale(0.015625)"/>
          <path id="DejaVuSans-65" d="M 3597 1894 
L 3597 1613 
L 953 1613 
Q 991 1019 1311 708 
Q 1631 397 2203 397 
Q 2534 397 2845 478 
Q 3156 559 3463 722 
L 3463 178 
Q 3153 47 2828 -22 
Q 2503 -91 2169 -91 
Q 1331 -91 842 396 
Q 353 884 353 1716 
Q 353 2575 817 3079 
Q 1281 3584 2069 3584 
Q 2775 3584 3186 3129 
Q 3597 2675 3597 1894 
z
M 3022 2063 
Q 3016 2534 2758 2815 
Q 2500 3097 2075 3097 
Q 1594 3097 1305 2825 
Q 1016 2553 972 2059 
L 3022 2063 
z
" transform="scale(0.015625)"/>
          <path id="DejaVuSans-6d" d="M 3328 2828 
Q 3544 3216 3844 3400 
Q 4144 3584 4550 3584 
Q 5097 3584 5394 3201 
Q 5691 2819 5691 2113 
L 5691 0 
L 5113 0 
L 5113 2094 
Q 5113 2597 4934 2840 
Q 4756 3084 4391 3084 
Q 3944 3084 3684 2787 
Q 3425 2491 3425 1978 
L 3425 0 
L 2847 0 
L 2847 2094 
Q 2847 2600 2669 2842 
Q 2491 3084 2119 3084 
Q 1678 3084 1418 2786 
Q 1159 2488 1159 1978 
L 1159 0 
L 581 0 
L 581 3500 
L 1159 3500 
L 1159 2956 
Q 1356 3278 1631 3431 
Q 1906 3584 2284 3584 
Q 2666 3584 2933 3390 
Q 3200 3197 3328 2828 
z
" transform="scale(0.015625)"/>
          <path id="DejaVuSans-30" d="M 2034 4250 
Q 1547 4250 1301 3770 
Q 1056 3291 1056 2328 
Q 1056 1369 1301 889 
Q 1547 409 2034 409 
Q 2525 409 2770 889 
Q 3016 1369 3016 2328 
Q 3016 3291 2770 3770 
Q 2525 4250 2034 4250 
z
M 2034 4750 
Q 2819 4750 3233 4129 
Q 3647 3509 3647 2328 
Q 3647 1150 3233 529 
Q 2819 -91 2034 -91 
Q 1250 -91 836 529 
Q 422 1150 422 2328 
Q 422 3509 836 4129 
Q 1250 4750 2034 4750 
z
" transform="scale(0.015625)"/>
         </defs>
         <use xlink:href="#DejaVuSans-64"/>
         <use xlink:href="#DejaVuSans-65" x="63.476562"/>
         <use xlink:href="#DejaVuSans-6d" x="125"/>
         <use xlink:href="#DejaVuSans-65" x="222.412109"/>
         <use xlink:href="#DejaVuSans-30" x="283.935547"/>
        </g>
       </g>
      </g>
      <g id="xtick_2">
       <g id="line2d_2"/>
       <g id="text_2">
        <!-- deme1 -->
        <g transform="translate(449.595497 329.120312) scale(0.1 -0.1)">
         <defs>
          <path id="DejaVuSans-31" d="M 794 531 
L 1825 531 
L 1825 4091 
L 703 3866 
L 703 4441 
L 1819 4666 
L 2450 4666 
L 2450 531 
L 3481 531 
L 3481 0 
L 794 0 
L 794 531 
z
" transform="scale(0.015625)"/>
         </defs>
         <use xlink:href="#DejaVuSans-64"/>
         <use xlink:href="#DejaVuSans-65" x="63.476562"/>
         <use xlink:href="#DejaVuSans-6d" x="125"/>
         <use xlink:href="#DejaVuSans-65" x="222.412109"/>
         <use xlink:href="#DejaVuSans-31" x="283.935547"/>
        </g>
       </g>
      </g>
     </g>
     <g id="matplotlib.axis_2">
      <g id="ytick_1">
       <g id="line2d_3">
        <defs>
         <path id="mbe23408b93" d="M 0 0 
L -3.5 0 
" style="stroke: #000000; stroke-width: 0.8"/>
        </defs>
        <g>
         <use xlink:href="#mbe23408b93" x="43.78125" y="318.021875" style="stroke: #000000; stroke-width: 0.8"/>
        </g>
       </g>
       <g id="text_3">
        <!-- 0.0 -->
        <g transform="translate(20.878125 321.821094) scale(0.1 -0.1)">
         <defs>
          <path id="DejaVuSans-2e" d="M 684 794 
L 1344 794 
L 1344 0 
L 684 0 
L 684 794 
z
" transform="scale(0.015625)"/>
         </defs>
         <use xlink:href="#DejaVuSans-30"/>
         <use xlink:href="#DejaVuSans-2e" x="63.623047"/>
         <use xlink:href="#DejaVuSans-30" x="95.410156"/>
        </g>
       </g>
      </g>
      <g id="ytick_2">
       <g id="line2d_4">
        <g>
         <use xlink:href="#mbe23408b93" x="43.78125" y="258.881125" style="stroke: #000000; stroke-width: 0.8"/>
        </g>
       </g>
       <g id="text_4">
        <!-- 0.5 -->
        <g transform="translate(20.878125 262.680344) scale(0.1 -0.1)">
         <defs>
          <path id="DejaVuSans-35" d="M 691 4666 
L 3169 4666 
L 3169 4134 
L 1269 4134 
L 1269 2991 
Q 1406 3038 1543 3061 
Q 1681 3084 1819 3084 
Q 2600 3084 3056 2656 
Q 3513 2228 3513 1497 
Q 3513 744 3044 326 
Q 2575 -91 1722 -91 
Q 1428 -91 1123 -41 
Q 819 9 494 109 
L 494 744 
Q 775 591 1075 516 
Q 1375 441 1709 441 
Q 2250 441 2565 725 
Q 2881 1009 2881 1497 
Q 2881 1984 2565 2268 
Q 2250 2553 1709 2553 
Q 1456 2553 1204 2497 
Q 953 2441 691 2322 
L 691 4666 
z
" transform="scale(0.015625)"/>
         </defs>
         <use xlink:href="#DejaVuSans-30"/>
         <use xlink:href="#DejaVuSans-2e" x="63.623047"/>
         <use xlink:href="#DejaVuSans-35" x="95.410156"/>
        </g>
       </g>
      </g>
      <g id="ytick_3">
       <g id="line2d_5">
        <g>
         <use xlink:href="#mbe23408b93" x="43.78125" y="199.740375" style="stroke: #000000; stroke-width: 0.8"/>
        </g>
       </g>
       <g id="text_5">
        <!-- 1.0 -->
        <g transform="translate(20.878125 203.539594) scale(0.1 -0.1)">
         <use xlink:href="#DejaVuSans-31"/>
         <use xlink:href="#DejaVuSans-2e" x="63.623047"/>
         <use xlink:href="#DejaVuSans-30" x="95.410156"/>
        </g>
       </g>
      </g>
      <g id="ytick_4">
       <g id="line2d_6">
        <g>
         <use xlink:href="#mbe23408b93" x="43.78125" y="140.599625" style="stroke: #000000; stroke-width: 0.8"/>
        </g>
       </g>
       <g id="text_6">
        <!-- 1.5 -->
        <g transform="translate(20.878125 144.398844) scale(0.1 -0.1)">
         <use xlink:href="#DejaVuSans-31"/>
         <use xlink:href="#DejaVuSans-2e" x="63.623047"/>
         <use xlink:href="#DejaVuSans-35" x="95.410156"/>
        </g>
       </g>
      </g>
      <g id="ytick_5">
       <g id="line2d_7">
        <g>
         <use xlink:href="#mbe23408b93" x="43.78125" y="81.458875" style="stroke: #000000; stroke-width: 0.8"/>
        </g>
       </g>
       <g id="text_7">
        <!-- 2.0 -->
        <g transform="translate(20.878125 85.258094) scale(0.1 -0.1)">
         <defs>
          <path id="DejaVuSans-32" d="M 1228 531 
L 3431 531 
L 3431 0 
L 469 0 
L 469 531 
Q 828 903 1448 1529 
Q 2069 2156 2228 2338 
Q 2531 2678 2651 2914 
Q 2772 3150 2772 3378 
Q 2772 3750 2511 3984 
Q 2250 4219 1831 4219 
Q 1534 4219 1204 4116 
Q 875 4013 500 3803 
L 500 4441 
Q 881 4594 1212 4672 
Q 1544 4750 1819 4750 
Q 2544 4750 2975 4387 
Q 3406 4025 3406 3419 
Q 3406 3131 3298 2873 
Q 3191 2616 2906 2266 
Q 2828 2175 2409 1742 
Q 1991 1309 1228 531 
z
" transform="scale(0.015625)"/>
         </defs>
         <use xlink:href="#DejaVuSans-32"/>
         <use xlink:href="#DejaVuSans-2e" x="63.623047"/>
         <use xlink:href="#DejaVuSans-30" x="95.410156"/>
        </g>
       </g>
      </g>
      <g id="ytick_6">
       <g id="line2d_8">
        <g>
         <use xlink:href="#mbe23408b93" x="43.78125" y="22.318125" style="stroke: #000000; stroke-width: 0.8"/>
        </g>
       </g>
       <g id="text_8">
        <!-- 2.5 -->
        <g transform="translate(20.878125 26.117344) scale(0.1 -0.1)">
         <use xlink:href="#DejaVuSans-32"/>
         <use xlink:href="#DejaVuSans-2e" x="63.623047"/>
         <use xlink:href="#DejaVuSans-35" x="95.410156"/>
        </g>
       </g>
      </g>
      <g id="text_9">
       <!-- time ago (generations) -->
       <g transform="translate(14.798438 227.641094) rotate(-90) scale(0.1 -0.1)">
        <defs>
         <path id="DejaVuSans-74" d="M 1172 4494 
L 1172 3500 
L 2356 3500 
L 2356 3053 
L 1172 3053 
L 1172 1153 
Q 1172 725 1289 603 
Q 1406 481 1766 481 
L 2356 481 
L 2356 0 
L 1766 0 
Q 1100 0 847 248 
Q 594 497 594 1153 
L 594 3053 
L 172 3053 
L 172 3500 
L 594 3500 
L 594 4494 
L 1172 4494 
z
" transform="scale(0.015625)"/>
         <path id="DejaVuSans-69" d="M 603 3500 
L 1178 3500 
L 1178 0 
L 603 0 
L 603 3500 
z
M 603 4863 
L 1178 4863 
L 1178 4134 
L 603 4134 
L 603 4863 
z
" transform="scale(0.015625)"/>
         <path id="DejaVuSans-20" transform="scale(0.015625)"/>
         <path id="DejaVuSans-61" d="M 2194 1759 
Q 1497 1759 1228 1600 
Q 959 1441 959 1056 
Q 959 750 1161 570 
Q 1363 391 1709 391 
Q 2188 391 2477 730 
Q 2766 1069 2766 1631 
L 2766 1759 
L 2194 1759 
z
M 3341 1997 
L 3341 0 
L 2766 0 
L 2766 531 
Q 2569 213 2275 61 
Q 1981 -91 1556 -91 
Q 1019 -91 701 211 
Q 384 513 384 1019 
Q 384 1609 779 1909 
Q 1175 2209 1959 2209 
L 2766 2209 
L 2766 2266 
Q 2766 2663 2505 2880 
Q 2244 3097 1772 3097 
Q 1472 3097 1187 3025 
Q 903 2953 641 2809 
L 641 3341 
Q 956 3463 1253 3523 
Q 1550 3584 1831 3584 
Q 2591 3584 2966 3190 
Q 3341 2797 3341 1997 
z
" transform="scale(0.015625)"/>
         <path id="DejaVuSans-67" d="M 2906 1791 
Q 2906 2416 2648 2759 
Q 2391 3103 1925 3103 
Q 1463 3103 1205 2759 
Q 947 2416 947 1791 
Q 947 1169 1205 825 
Q 1463 481 1925 481 
Q 2391 481 2648 825 
Q 2906 1169 2906 1791 
z
M 3481 434 
Q 3481 -459 3084 -895 
Q 2688 -1331 1869 -1331 
Q 1566 -1331 1297 -1286 
Q 1028 -1241 775 -1147 
L 775 -588 
Q 1028 -725 1275 -790 
Q 1522 -856 1778 -856 
Q 2344 -856 2625 -561 
Q 2906 -266 2906 331 
L 2906 616 
Q 2728 306 2450 153 
Q 2172 0 1784 0 
Q 1141 0 747 490 
Q 353 981 353 1791 
Q 353 2603 747 3093 
Q 1141 3584 1784 3584 
Q 2172 3584 2450 3431 
Q 2728 3278 2906 2969 
L 2906 3500 
L 3481 3500 
L 3481 434 
z
" transform="scale(0.015625)"/>
         <path id="DejaVuSans-6f" d="M 1959 3097 
Q 1497 3097 1228 2736 
Q 959 2375 959 1747 
Q 959 1119 1226 758 
Q 1494 397 1959 397 
Q 2419 397 2687 759 
Q 2956 1122 2956 1747 
Q 2956 2369 2687 2733 
Q 2419 3097 1959 3097 
z
M 1959 3584 
Q 2709 3584 3137 3096 
Q 3566 2609 3566 1747 
Q 3566 888 3137 398 
Q 2709 -91 1959 -91 
Q 1206 -91 779 398 
Q 353 888 353 1747 
Q 353 2609 779 3096 
Q 1206 3584 1959 3584 
z
" transform="scale(0.015625)"/>
         <path id="DejaVuSans-28" d="M 1984 4856 
Q 1566 4138 1362 3434 
Q 1159 2731 1159 2009 
Q 1159 1288 1364 580 
Q 1569 -128 1984 -844 
L 1484 -844 
Q 1016 -109 783 600 
Q 550 1309 550 2009 
Q 550 2706 781 3412 
Q 1013 4119 1484 4856 
L 1984 4856 
z
" transform="scale(0.015625)"/>
         <path id="DejaVuSans-6e" d="M 3513 2113 
L 3513 0 
L 2938 0 
L 2938 2094 
Q 2938 2591 2744 2837 
Q 2550 3084 2163 3084 
Q 1697 3084 1428 2787 
Q 1159 2491 1159 1978 
L 1159 0 
L 581 0 
L 581 3500 
L 1159 3500 
L 1159 2956 
Q 1366 3272 1645 3428 
Q 1925 3584 2291 3584 
Q 2894 3584 3203 3211 
Q 3513 2838 3513 2113 
z
" transform="scale(0.015625)"/>
         <path id="DejaVuSans-72" d="M 2631 2963 
Q 2534 3019 2420 3045 
Q 2306 3072 2169 3072 
Q 1681 3072 1420 2755 
Q 1159 2438 1159 1844 
L 1159 0 
L 581 0 
L 581 3500 
L 1159 3500 
L 1159 2956 
Q 1341 3275 1631 3429 
Q 1922 3584 2338 3584 
Q 2397 3584 2469 3576 
Q 2541 3569 2628 3553 
L 2631 2963 
z
" transform="scale(0.015625)"/>
         <path id="DejaVuSans-73" d="M 2834 3397 
L 2834 2853 
Q 2591 2978 2328 3040 
Q 2066 3103 1784 3103 
Q 1356 3103 1142 2972 
Q 928 2841 928 2578 
Q 928 2378 1081 2264 
Q 1234 2150 1697 2047 
L 1894 2003 
Q 2506 1872 2764 1633 
Q 3022 1394 3022 966 
Q 3022 478 2636 193 
Q 2250 -91 1575 -91 
Q 1294 -91 989 -36 
Q 684 19 347 128 
L 347 722 
Q 666 556 975 473 
Q 1284 391 1588 391 
Q 1994 391 2212 530 
Q 2431 669 2431 922 
Q 2431 1156 2273 1281 
Q 2116 1406 1581 1522 
L 1381 1569 
Q 847 1681 609 1914 
Q 372 2147 372 2553 
Q 372 3047 722 3315 
Q 1072 3584 1716 3584 
Q 2034 3584 2315 3537 
Q 2597 3491 2834 3397 
z
" transform="scale(0.015625)"/>
         <path id="DejaVuSans-29" d="M 513 4856 
L 1013 4856 
Q 1481 4119 1714 3412 
Q 1947 2706 1947 2009 
Q 1947 1309 1714 600 
Q 1481 -109 1013 -844 
L 513 -844 
Q 928 -128 1133 580 
Q 1338 1288 1338 2009 
Q 1338 2731 1133 3434 
Q 928 4138 513 4856 
z
" transform="scale(0.015625)"/>
        </defs>
        <use xlink:href="#DejaVuSans-74"/>
        <use xlink:href="#DejaVuSans-69" x="39.208984"/>
        <use xlink:href="#DejaVuSans-6d" x="66.992188"/>
        <use xlink:href="#DejaVuSans-65" x="164.404297"/>
        <use xlink:href="#DejaVuSans-20" x="225.927734"/>
        <use xlink:href="#DejaVuSans-61" x="257.714844"/>
        <use xlink:href="#DejaVuSans-67" x="318.994141"/>
        <use xlink:href="#DejaVuSans-6f" x="382.470703"/>
        <use xlink:href="#DejaVuSans-20" x="443.652344"/>
        <use xlink:href="#DejaVuSans-28" x="475.439453"/>
        <use xlink:href="#DejaVuSans-67" x="514.453125"/>
        <use xlink:href="#DejaVuSans-65" x="577.929688"/>
        <use xlink:href="#DejaVuSans-6e" x="639.453125"/>
        <use xlink:href="#DejaVuSans-65" x="702.832031"/>
        <use xlink:href="#DejaVuSans-72" x="764.355469"/>
        <use xlink:href="#DejaVuSans-61" x="805.46875"/>
        <use xlink:href="#DejaVuSans-74" x="866.748047"/>
        <use xlink:href="#DejaVuSans-69" x="905.957031"/>
        <use xlink:href="#DejaVuSans-6f" x="933.740234"/>
        <use xlink:href="#DejaVuSans-6e" x="994.921875"/>
        <use xlink:href="#DejaVuSans-73" x="1058.300781"/>
        <use xlink:href="#DejaVuSans-29" x="1110.400391"/>
       </g>
      </g>
     </g>
     <path d="M 289.11196 161.964612 
L 291.11196 162.964612 
L 291.11196 160.964612 
z
" clip-path="url(#p3fce86026e)" style="fill: #ff7f0e; fill-opacity: 0.5; stroke: #ff7f0e; stroke-opacity: 0.5; stroke-linejoin: miter"/>
     <path d="M 289.11196 134.490471 
L 291.11196 135.490471 
L 291.11196 133.490471 
z
" clip-path="url(#p3fce86026e)" style="fill: #ff7f0e; fill-opacity: 0.5; stroke: #ff7f0e; stroke-opacity: 0.5; stroke-linejoin: miter"/>
     <path d="M 289.11196 93.366328 
L 291.11196 94.366328 
L 291.11196 92.366328 
z
" clip-path="url(#p3fce86026e)" style="fill: #ff7f0e; fill-opacity: 0.5; stroke: #ff7f0e; stroke-opacity: 0.5; stroke-linejoin: miter"/>
     <path d="M 289.11196 96.340005 
L 291.11196 97.340005 
L 291.11196 95.340005 
z
" clip-path="url(#p3fce86026e)" style="fill: #ff7f0e; fill-opacity: 0.5; stroke: #ff7f0e; stroke-opacity: 0.5; stroke-linejoin: miter"/>
     <path d="M 289.11196 184.825212 
L 291.11196 185.825212 
L 291.11196 183.825212 
z
" clip-path="url(#p3fce86026e)" style="fill: #ff7f0e; fill-opacity: 0.5; stroke: #ff7f0e; stroke-opacity: 0.5; stroke-linejoin: miter"/>
     <path d="M 289.11196 81.582418 
L 291.11196 82.582418 
L 291.11196 80.582418 
z
" clip-path="url(#p3fce86026e)" style="fill: #ff7f0e; fill-opacity: 0.5; stroke: #ff7f0e; stroke-opacity: 0.5; stroke-linejoin: miter"/>
     <path d="M 289.11196 113.787842 
L 291.11196 114.787842 
L 291.11196 112.787842 
z
" clip-path="url(#p3fce86026e)" style="fill: #ff7f0e; fill-opacity: 0.5; stroke: #ff7f0e; stroke-opacity: 0.5; stroke-linejoin: miter"/>
     <path d="M 289.11196 138.312505 
L 291.11196 139.312505 
L 291.11196 137.312505 
z
" clip-path="url(#p3fce86026e)" style="fill: #ff7f0e; fill-opacity: 0.5; stroke: #ff7f0e; stroke-opacity: 0.5; stroke-linejoin: miter"/>
     <path d="M 289.11196 185.987964 
L 291.11196 186.987964 
L 291.11196 184.987964 
z
" clip-path="url(#p3fce86026e)" style="fill: #ff7f0e; fill-opacity: 0.5; stroke: #ff7f0e; stroke-opacity: 0.5; stroke-linejoin: miter"/>
     <path d="M 289.11196 180.424278 
L 291.11196 181.424278 
L 291.11196 179.424278 
z
" clip-path="url(#p3fce86026e)" style="fill: #ff7f0e; fill-opacity: 0.5; stroke: #ff7f0e; stroke-opacity: 0.5; stroke-linejoin: miter"/>
     <path d="M 354.66929 82.03241 
L 352.66929 81.03241 
L 352.66929 83.03241 
z
" clip-path="url(#p3fce86026e)" style="fill: #1f77b4; fill-opacity: 0.5; stroke: #1f77b4; stroke-opacity: 0.5; stroke-linejoin: miter"/>
     <path d="M 354.66929 147.014466 
L 352.66929 146.014466 
L 352.66929 148.014466 
z
" clip-path="url(#p3fce86026e)" style="fill: #1f77b4; fill-opacity: 0.5; stroke: #1f77b4; stroke-opacity: 0.5; stroke-linejoin: miter"/>
     <path d="M 354.66929 188.258448 
L 352.66929 187.258448 
L 352.66929 189.258448 
z
" clip-path="url(#p3fce86026e)" style="fill: #1f77b4; fill-opacity: 0.5; stroke: #1f77b4; stroke-opacity: 0.5; stroke-linejoin: miter"/>
     <path d="M 354.66929 152.223819 
L 352.66929 151.223819 
L 352.66929 153.223819 
z
" clip-path="url(#p3fce86026e)" style="fill: #1f77b4; fill-opacity: 0.5; stroke: #1f77b4; stroke-opacity: 0.5; stroke-linejoin: miter"/>
     <path d="M 354.66929 141.010428 
L 352.66929 140.010428 
L 352.66929 142.010428 
z
" clip-path="url(#p3fce86026e)" style="fill: #1f77b4; fill-opacity: 0.5; stroke: #1f77b4; stroke-opacity: 0.5; stroke-linejoin: miter"/>
     <path d="M 354.66929 143.994408 
L 352.66929 142.994408 
L 352.66929 144.994408 
z
" clip-path="url(#p3fce86026e)" style="fill: #1f77b4; fill-opacity: 0.5; stroke: #1f77b4; stroke-opacity: 0.5; stroke-linejoin: miter"/>
     <path d="M 354.66929 192.002773 
L 352.66929 191.002773 
L 352.66929 193.002773 
z
" clip-path="url(#p3fce86026e)" style="fill: #1f77b4; fill-opacity: 0.5; stroke: #1f77b4; stroke-opacity: 0.5; stroke-linejoin: miter"/>
     <path d="M 354.66929 111.781084 
L 352.66929 110.781084 
L 352.66929 112.781084 
z
" clip-path="url(#p3fce86026e)" style="fill: #1f77b4; fill-opacity: 0.5; stroke: #1f77b4; stroke-opacity: 0.5; stroke-linejoin: miter"/>
     <path d="M 354.66929 117.55452 
L 352.66929 116.55452 
L 352.66929 118.55452 
z
" clip-path="url(#p3fce86026e)" style="fill: #1f77b4; fill-opacity: 0.5; stroke: #1f77b4; stroke-opacity: 0.5; stroke-linejoin: miter"/>
     <path d="M 354.66929 131.788963 
L 352.66929 130.788963 
L 352.66929 132.788963 
z
" clip-path="url(#p3fce86026e)" style="fill: #1f77b4; fill-opacity: 0.5; stroke: #1f77b4; stroke-opacity: 0.5; stroke-linejoin: miter"/>
     <path d="M 289.11196 240.5797 
L 291.11196 241.5797 
L 291.11196 239.5797 
z
" clip-path="url(#p3fce86026e)" style="fill: #ff7f0e; fill-opacity: 0.5; stroke: #ff7f0e; stroke-opacity: 0.5; stroke-linejoin: miter"/>
     <path d="M 289.11196 309.507596 
L 291.11196 310.507596 
L 291.11196 308.507596 
z
" clip-path="url(#p3fce86026e)" style="fill: #ff7f0e; fill-opacity: 0.5; stroke: #ff7f0e; stroke-opacity: 0.5; stroke-linejoin: miter"/>
     <path d="M 289.11196 210.679182 
L 291.11196 211.679182 
L 291.11196 209.679182 
z
" clip-path="url(#p3fce86026e)" style="fill: #ff7f0e; fill-opacity: 0.5; stroke: #ff7f0e; stroke-opacity: 0.5; stroke-linejoin: miter"/>
     <path d="M 289.11196 304.723989 
L 291.11196 305.723989 
L 291.11196 303.723989 
z
" clip-path="url(#p3fce86026e)" style="fill: #ff7f0e; fill-opacity: 0.5; stroke: #ff7f0e; stroke-opacity: 0.5; stroke-linejoin: miter"/>
     <path d="M 289.11196 298.321799 
L 291.11196 299.321799 
L 291.11196 297.321799 
z
" clip-path="url(#p3fce86026e)" style="fill: #ff7f0e; fill-opacity: 0.5; stroke: #ff7f0e; stroke-opacity: 0.5; stroke-linejoin: miter"/>
     <path d="M 289.11196 302.549697 
L 291.11196 303.549697 
L 291.11196 301.549697 
z
" clip-path="url(#p3fce86026e)" style="fill: #ff7f0e; fill-opacity: 0.5; stroke: #ff7f0e; stroke-opacity: 0.5; stroke-linejoin: miter"/>
     <path d="M 289.11196 316.506522 
L 291.11196 317.506522 
L 291.11196 315.506522 
z
" clip-path="url(#p3fce86026e)" style="fill: #ff7f0e; fill-opacity: 0.5; stroke: #ff7f0e; stroke-opacity: 0.5; stroke-linejoin: miter"/>
     <path d="M 289.11196 207.72634 
L 291.11196 208.72634 
L 291.11196 206.72634 
z
" clip-path="url(#p3fce86026e)" style="fill: #ff7f0e; fill-opacity: 0.5; stroke: #ff7f0e; stroke-opacity: 0.5; stroke-linejoin: miter"/>
     <path d="M 289.11196 218.528725 
L 291.11196 219.528725 
L 291.11196 217.528725 
z
" clip-path="url(#p3fce86026e)" style="fill: #ff7f0e; fill-opacity: 0.5; stroke: #ff7f0e; stroke-opacity: 0.5; stroke-linejoin: miter"/>
     <path d="M 289.11196 307.339394 
L 291.11196 308.339394 
L 291.11196 306.339394 
z
" clip-path="url(#p3fce86026e)" style="fill: #ff7f0e; fill-opacity: 0.5; stroke: #ff7f0e; stroke-opacity: 0.5; stroke-linejoin: miter"/>
     <path d="M 354.66929 309.174161 
L 352.66929 308.174161 
L 352.66929 310.174161 
z
" clip-path="url(#p3fce86026e)" style="fill: #1f77b4; fill-opacity: 0.5; stroke: #1f77b4; stroke-opacity: 0.5; stroke-linejoin: miter"/>
     <path d="M 354.66929 230.156511 
L 352.66929 229.156511 
L 352.66929 231.156511 
z
" clip-path="url(#p3fce86026e)" style="fill: #1f77b4; fill-opacity: 0.5; stroke: #1f77b4; stroke-opacity: 0.5; stroke-linejoin: miter"/>
     <path d="M 354.66929 256.033838 
L 352.66929 255.033838 
L 352.66929 257.033838 
z
" clip-path="url(#p3fce86026e)" style="fill: #1f77b4; fill-opacity: 0.5; stroke: #1f77b4; stroke-opacity: 0.5; stroke-linejoin: miter"/>
     <path d="M 354.66929 239.66367 
L 352.66929 238.66367 
L 352.66929 240.66367 
z
" clip-path="url(#p3fce86026e)" style="fill: #1f77b4; fill-opacity: 0.5; stroke: #1f77b4; stroke-opacity: 0.5; stroke-linejoin: miter"/>
     <path d="M 354.66929 231.806573 
L 352.66929 230.806573 
L 352.66929 232.806573 
z
" clip-path="url(#p3fce86026e)" style="fill: #1f77b4; fill-opacity: 0.5; stroke: #1f77b4; stroke-opacity: 0.5; stroke-linejoin: miter"/>
     <path d="M 354.66929 261.744183 
L 352.66929 260.744183 
L 352.66929 262.744183 
z
" clip-path="url(#p3fce86026e)" style="fill: #1f77b4; fill-opacity: 0.5; stroke: #1f77b4; stroke-opacity: 0.5; stroke-linejoin: miter"/>
     <path d="M 354.66929 275.404736 
L 352.66929 274.404736 
L 352.66929 276.404736 
z
" clip-path="url(#p3fce86026e)" style="fill: #1f77b4; fill-opacity: 0.5; stroke: #1f77b4; stroke-opacity: 0.5; stroke-linejoin: miter"/>
     <path d="M 354.66929 304.896948 
L 352.66929 303.896948 
L 352.66929 305.896948 
z
" clip-path="url(#p3fce86026e)" style="fill: #1f77b4; fill-opacity: 0.5; stroke: #1f77b4; stroke-opacity: 0.5; stroke-linejoin: miter"/>
     <path d="M 354.66929 265.258978 
L 352.66929 264.258978 
L 352.66929 266.258978 
z
" clip-path="url(#p3fce86026e)" style="fill: #1f77b4; fill-opacity: 0.5; stroke: #1f77b4; stroke-opacity: 0.5; stroke-linejoin: miter"/>
     <path d="M 354.66929 259.541304 
L 352.66929 258.541304 
L 352.66929 260.541304 
z
" clip-path="url(#p3fce86026e)" style="fill: #1f77b4; fill-opacity: 0.5; stroke: #1f77b4; stroke-opacity: 0.5; stroke-linejoin: miter"/>
     <g id="patch_5">
      <path d="M 43.78125 318.021875 
L 43.78125 22.318125 
" style="fill: none; stroke: #000000; stroke-width: 0.8; stroke-linejoin: miter; stroke-linecap: square"/>
     </g>
     <g id="text_10">
      <!-- defaults_symmetric_migration_changing_rate.yaml -->
      <g transform="translate(168.3525 16.318125) scale(0.12 -0.12)">
       <defs>
        <path id="DejaVuSans-66" d="M 2375 4863 
L 2375 4384 
L 1825 4384 
Q 1516 4384 1395 4259 
Q 1275 4134 1275 3809 
L 1275 3500 
L 2222 3500 
L 2222 3053 
L 1275 3053 
L 1275 0 
L 697 0 
L 697 3053 
L 147 3053 
L 147 3500 
L 697 3500 
L 697 3744 
Q 697 4328 969 4595 
Q 1241 4863 1831 4863 
L 2375 4863 
z
" transform="scale(0.015625)"/>
        <path id="DejaVuSans-75" d="M 544 1381 
L 544 3500 
L 1119 3500 
L 1119 1403 
Q 1119 906 1312 657 
Q 1506 409 1894 409 
Q 2359 409 2629 706 
Q 2900 1003 2900 1516 
L 2900 3500 
L 3475 3500 
L 3475 0 
L 2900 0 
L 2900 538 
Q 2691 219 2414 64 
Q 2138 -91 1772 -91 
Q 1169 -91 856 284 
Q 544 659 544 1381 
z
M 1991 3584 
L 1991 3584 
z
" transform="scale(0.015625)"/>
        <path id="DejaVuSans-6c" d="M 603 4863 
L 1178 4863 
L 1178 0 
L 603 0 
L 603 4863 
z
" transform="scale(0.015625)"/>
        <path id="DejaVuSans-5f" d="M 3263 -1063 
L 3263 -1509 
L -63 -1509 
L -63 -1063 
L 3263 -1063 
z
" transform="scale(0.015625)"/>
        <path id="DejaVuSans-79" d="M 2059 -325 
Q 1816 -950 1584 -1140 
Q 1353 -1331 966 -1331 
L 506 -1331 
L 506 -850 
L 844 -850 
Q 1081 -850 1212 -737 
Q 1344 -625 1503 -206 
L 1606 56 
L 191 3500 
L 800 3500 
L 1894 763 
L 2988 3500 
L 3597 3500 
L 2059 -325 
z
" transform="scale(0.015625)"/>
        <path id="DejaVuSans-63" d="M 3122 3366 
L 3122 2828 
Q 2878 2963 2633 3030 
Q 2388 3097 2138 3097 
Q 1578 3097 1268 2742 
Q 959 2388 959 1747 
Q 959 1106 1268 751 
Q 1578 397 2138 397 
Q 2388 397 2633 464 
Q 2878 531 3122 666 
L 3122 134 
Q 2881 22 2623 -34 
Q 2366 -91 2075 -91 
Q 1284 -91 818 406 
Q 353 903 353 1747 
Q 353 2603 823 3093 
Q 1294 3584 2113 3584 
Q 2378 3584 2631 3529 
Q 2884 3475 3122 3366 
z
" transform="scale(0.015625)"/>
        <path id="DejaVuSans-68" d="M 3513 2113 
L 3513 0 
L 2938 0 
L 2938 2094 
Q 2938 2591 2744 2837 
Q 2550 3084 2163 3084 
Q 1697 3084 1428 2787 
Q 1159 2491 1159 1978 
L 1159 0 
L 581 0 
L 581 4863 
L 1159 4863 
L 1159 2956 
Q 1366 3272 1645 3428 
Q 1925 3584 2291 3584 
Q 2894 3584 3203 3211 
Q 3513 2838 3513 2113 
z
" transform="scale(0.015625)"/>
       </defs>
       <use xlink:href="#DejaVuSans-64"/>
       <use xlink:href="#DejaVuSans-65" x="63.476562"/>
       <use xlink:href="#DejaVuSans-66" x="125"/>
       <use xlink:href="#DejaVuSans-61" x="160.205078"/>
       <use xlink:href="#DejaVuSans-75" x="221.484375"/>
       <use xlink:href="#DejaVuSans-6c" x="284.863281"/>
       <use xlink:href="#DejaVuSans-74" x="312.646484"/>
       <use xlink:href="#DejaVuSans-73" x="351.855469"/>
       <use xlink:href="#DejaVuSans-5f" x="403.955078"/>
       <use xlink:href="#DejaVuSans-73" x="453.955078"/>
       <use xlink:href="#DejaVuSans-79" x="506.054688"/>
       <use xlink:href="#DejaVuSans-6d" x="565.234375"/>
       <use xlink:href="#DejaVuSans-6d" x="662.646484"/>
       <use xlink:href="#DejaVuSans-65" x="760.058594"/>
       <use xlink:href="#DejaVuSans-74" x="821.582031"/>
       <use xlink:href="#DejaVuSans-72" x="860.791016"/>
       <use xlink:href="#DejaVuSans-69" x="901.904297"/>
       <use xlink:href="#DejaVuSans-63" x="929.6875"/>
       <use xlink:href="#DejaVuSans-5f" x="984.667969"/>
       <use xlink:href="#DejaVuSans-6d" x="1034.667969"/>
       <use xlink:href="#DejaVuSans-69" x="1132.080078"/>
       <use xlink:href="#DejaVuSans-67" x="1159.863281"/>
       <use xlink:href="#DejaVuSans-72" x="1223.339844"/>
       <use xlink:href="#DejaVuSans-61" x="1264.453125"/>
       <use xlink:href="#DejaVuSans-74" x="1325.732422"/>
       <use xlink:href="#DejaVuSans-69" x="1364.941406"/>
       <use xlink:href="#DejaVuSans-6f" x="1392.724609"/>
       <use xlink:href="#DejaVuSans-6e" x="1453.90625"/>
       <use xlink:href="#DejaVuSans-5f" x="1517.285156"/>
       <use xlink:href="#DejaVuSans-63" x="1567.285156"/>
       <use xlink:href="#DejaVuSans-68" x="1622.265625"/>
       <use xlink:href="#DejaVuSans-61" x="1685.644531"/>
       <use xlink:href="#DejaVuSans-6e" x="1746.923828"/>
       <use xlink:href="#DejaVuSans-67" x="1810.302734"/>
       <use xlink:href="#DejaVuSans-69" x="1873.779297"/>
       <use xlink:href="#DejaVuSans-6e" x="1901.5625"/>
       <use xlink:href="#DejaVuSans-67" x="1964.941406"/>
       <use xlink:href="#DejaVuSans-5f" x="2028.417969"/>
       <use xlink:href="#DejaVuSans-72" x="2078.417969"/>
       <use xlink:href="#DejaVuSans-61" x="2119.53125"/>
       <use xlink:href="#DejaVuSans-74" x="2180.810547"/>
       <use xlink:href="#DejaVuSans-65" x="2220.019531"/>
       <use xlink:href="#DejaVuSans-2e" x="2281.542969"/>
       <use xlink:href="#DejaVuSans-79" x="2313.330078"/>
       <use xlink:href="#DejaVuSans-61" x="2372.509766"/>
       <use xlink:href="#DejaVuSans-6d" x="2433.789062"/>
       <use xlink:href="#DejaVuSans-6c" x="2531.201172"/>
      </g>
     </g>
    </g>
   </g>
   <defs>
    <clipPath id="p3fce86026e">
     <rect x="43.78125" y="22.318125" width="556.21875" height="295.70375"/>
    </clipPath>
   </defs>
  </g>
 </g>
</svg>
