<?xml version="1.0" encoding="utf-8" standalone="no"?>
<!DOCTYPE svg PUBLIC "-//W3C//DTD SVG 1.1//EN"
  "http://www.w3.org/Graphics/SVG/1.1/DTD/svg11.dtd">
<svg xmlns:xlink="http://www.w3.org/1999/xlink" width="607.2pt" height="338.4pt" viewBox="0 0 607.2 338.4" xmlns="http://www.w3.org/2000/svg" version="1.1">
 <metadata>
  <rdf:RDF xmlns:dc="http://purl.org/dc/elements/1.1/" xmlns:cc="http://creativecommons.org/ns#" xmlns:rdf="http://www.w3.org/1999/02/22-rdf-syntax-ns#">
   <cc:Work>
    <dc:type rdf:resource="http://purl.org/dc/dcmitype/StillImage"/>
    <dc:date>2023-03-14T08:21:23.008039</dc:date>
    <dc:format>image/svg+xml</dc:format>
    <dc:creator>
     <cc:Agent>
      <dc:title>Matplotlib v3.7.1, https://matplotlib.org/</dc:title>
     </cc:Agent>
    </dc:creator>
   </cc:Work>
  </rdf:RDF>
 </metadata>
 <defs>
  <style type="text/css">*{stroke-linejoin: round; stroke-linecap: butt}</style>
 </defs>
 <g id="figure_1">
  <g id="patch_1">
   <path d="M 0 338.4 
L 607.2 338.4 
L 607.2 0 
L 0 0 
z
" style="fill: #ffffff"/>
  </g>
  <g id="axes_1">
   <g id="patch_2">
    <path d="M 46.965625 318.021875 
L 600 318.021875 
L 600 22.318125 
L 46.965625 22.318125 
z
" style="fill: #ffffff"/>
   </g>
   <path d="M 200.299443 105.314052 
L 201.299443 105.345489 
L 202.299443 105.382429 
L 203.299443 105.480175 
L 204.299443 105.512697 
L 205.299443 105.586322 
L 206.299443 105.624887 
L 207.299443 105.660301 
L 208.299443 105.71794 
L 209.299443 105.788327 
L 210.299443 105.840291 
L 211.299443 105.899381 
L 212.299443 105.987702 
L 213.299443 106.033846 
L 214.299443 106.076257 
L 215.299443 106.106749 
L 216.299443 106.132794 
L 217.299443 106.153995 
L 218.299443 106.208296 
L 219.299443 106.236233 
L 220.299443 106.265957 
L 221.299443 106.291352 
L 222.299443 106.302552 
L 223.299443 106.312676 
L 224.299443 106.312472 
L 225.299443 106.302962 
L 226.299443 106.291309 
L 227.299443 106.260279 
L 228.299443 106.249111 
L 229.299443 106.218994 
L 230.299443 106.159217 
L 231.299443 106.122025 
L 232.299443 106.082929 
L 233.299443 106.04049 
L 234.299443 106.007725 
L 235.299443 105.940298 
L 236.299443 105.901172 
L 237.299443 105.858498 
L 238.299443 105.787917 
L 239.299443 105.751526 
L 240.299443 105.693123 
L 241.299443 105.58217 
L 242.299443 105.511512 
L 243.299443 105.398572 
L 244.299443 105.352799 
L 245.299443 105.291516 
L 246.299443 105.243017 
L 247.299443 105.162194 
L 248.299443 105.043675 
L 249.299443 104.973465 
L 250.299443 104.890202 
L 251.299443 104.85706 
L 252.299443 104.805823 
L 253.299443 104.737425 
L 254.299443 104.671209 
L 255.299443 104.594292 
L 256.619695 104.566977 
" clip-path="url(#pef394d298a)" style="fill: none; stroke: #1f77b4; stroke-opacity: 0.5; stroke-width: 0.2; stroke-linecap: square"/>
   <path d="M 200.299443 35.837855 
L 201.299443 35.869291 
L 202.299443 35.906232 
L 203.299443 36.003978 
L 204.299443 36.0365 
L 205.299443 36.110124 
L 206.299443 36.14869 
L 207.299443 36.184103 
L 208.299443 36.241743 
L 209.299443 36.312129 
L 210.299443 36.364093 
L 211.299443 36.423183 
L 212.299443 36.511504 
L 213.299443 36.557648 
L 214.299443 36.600059 
L 215.299443 36.630552 
L 216.299443 36.656597 
L 217.299443 36.677797 
L 218.299443 36.732098 
L 219.299443 36.760036 
L 220.299443 36.78976 
L 221.299443 36.815155 
L 222.299443 36.826355 
L 223.299443 36.836479 
L 224.299443 36.836275 
L 225.299443 36.826765 
L 226.299443 36.815111 
L 227.299443 36.784082 
L 228.299443 36.772914 
L 229.299443 36.742796 
L 230.299443 36.683019 
L 231.299443 36.645828 
L 232.299443 36.606732 
L 233.299443 36.564292 
L 234.299443 36.531527 
L 235.299443 36.464101 
L 236.299443 36.424975 
L 237.299443 36.3823 
L 238.299443 36.31172 
L 239.299443 36.275329 
L 240.299443 36.216926 
L 241.299443 36.105973 
L 242.299443 36.035315 
L 243.299443 35.922375 
L 244.299443 35.876602 
L 245.299443 35.815319 
L 246.299443 35.766819 
L 247.299443 35.685997 
L 248.299443 35.567478 
L 249.299443 35.497267 
L 250.299443 35.414005 
L 251.299443 35.380863 
L 252.299443 35.329626 
L 253.299443 35.261227 
L 254.299443 35.195012 
L 255.299443 35.118095 
L 256.619695 35.090779 
" clip-path="url(#pef394d298a)" style="fill: none; stroke: #1f77b4; stroke-opacity: 0.5; stroke-width: 0.2; stroke-linecap: square"/>
   <path d="M 200.299443 89.782003 
L 201.299443 89.813439 
L 202.299443 89.85038 
L 203.299443 89.948126 
L 204.299443 89.980648 
L 205.299443 90.054272 
L 206.299443 90.092838 
L 207.299443 90.128251 
L 208.299443 90.185891 
L 209.299443 90.256277 
L 210.299443 90.308241 
L 211.299443 90.367331 
L 212.299443 90.455652 
L 213.299443 90.501796 
L 214.299443 90.544207 
L 215.299443 90.5747 
L 216.299443 90.600745 
L 217.299443 90.621945 
L 218.299443 90.676246 
L 219.299443 90.704184 
L 220.299443 90.733908 
L 221.299443 90.759303 
L 222.299443 90.770503 
L 223.299443 90.780627 
L 224.299443 90.780423 
L 225.299443 90.770913 
L 226.299443 90.759259 
L 227.299443 90.72823 
L 228.299443 90.717062 
L 229.299443 90.686944 
L 230.299443 90.627168 
L 231.299443 90.589976 
L 232.299443 90.55088 
L 233.299443 90.50844 
L 234.299443 90.475675 
L 235.299443 90.408249 
L 236.299443 90.369123 
L 237.299443 90.326448 
L 238.299443 90.255868 
L 239.299443 90.219477 
L 240.299443 90.161074 
L 241.299443 90.050121 
L 242.299443 89.979463 
L 243.299443 89.866523 
L 244.299443 89.82075 
L 245.299443 89.759467 
L 246.299443 89.710967 
L 247.299443 89.630145 
L 248.299443 89.511626 
L 249.299443 89.441415 
L 250.299443 89.358153 
L 251.299443 89.325011 
L 252.299443 89.273774 
L 253.299443 89.205375 
L 254.299443 89.13916 
L 255.299443 89.062243 
L 256.619695 89.034927 
" clip-path="url(#pef394d298a)" style="fill: none; stroke: #1f77b4; stroke-opacity: 0.5; stroke-width: 0.2; stroke-linecap: square"/>
   <path d="M 200.299443 294.310594 
L 201.299443 294.342031 
L 202.299443 294.378971 
L 203.299443 294.476718 
L 204.299443 294.509239 
L 205.299443 294.582864 
L 206.299443 294.62143 
L 207.299443 294.656843 
L 208.299443 294.714483 
L 209.299443 294.784869 
L 210.299443 294.836833 
L 211.299443 294.895923 
L 212.299443 294.984244 
L 213.299443 295.030388 
L 214.299443 295.072799 
L 215.299443 295.103292 
L 216.299443 295.129337 
L 217.299443 295.150537 
L 218.299443 295.204838 
L 219.299443 295.232775 
L 220.299443 295.262499 
L 221.299443 295.287894 
L 222.299443 295.299095 
L 223.299443 295.309219 
L 224.299443 295.309014 
L 225.299443 295.299504 
L 226.299443 295.287851 
L 227.299443 295.256821 
L 228.299443 295.245654 
L 229.299443 295.215536 
L 230.299443 295.155759 
L 231.299443 295.118568 
L 232.299443 295.079471 
L 233.299443 295.037032 
L 234.299443 295.004267 
L 235.299443 294.93684 
L 236.299443 294.897714 
L 237.299443 294.85504 
L 238.299443 294.784459 
L 239.299443 294.748068 
L 240.299443 294.689665 
L 241.299443 294.578713 
L 242.299443 294.508054 
L 243.299443 294.395114 
L 244.299443 294.349342 
L 245.299443 294.288058 
L 246.299443 294.239559 
L 247.299443 294.158736 
L 248.299443 294.040217 
L 249.299443 293.970007 
L 250.299443 293.886744 
L 251.299443 293.853603 
L 252.299443 293.802365 
L 253.299443 293.733967 
L 254.299443 293.667751 
L 255.299443 293.590834 
L 256.619695 293.563519 
" clip-path="url(#pef394d298a)" style="fill: none; stroke: #1f77b4; stroke-opacity: 0.5; stroke-width: 0.2; stroke-linecap: square"/>
   <path d="M 200.299443 272.693408 
L 201.299443 272.724844 
L 202.299443 272.761784 
L 203.299443 272.859531 
L 204.299443 272.892052 
L 205.299443 272.965677 
L 206.299443 273.004243 
L 207.299443 273.039656 
L 208.299443 273.097296 
L 209.299443 273.167682 
L 210.299443 273.219646 
L 211.299443 273.278736 
L 212.299443 273.367057 
L 213.299443 273.413201 
L 214.299443 273.455612 
L 215.299443 273.486105 
L 216.299443 273.51215 
L 217.299443 273.53335 
L 218.299443 273.587651 
L 219.299443 273.615589 
L 220.299443 273.645313 
L 221.299443 273.670707 
L 222.299443 273.681908 
L 223.299443 273.692032 
L 224.299443 273.691827 
L 225.299443 273.682317 
L 226.299443 273.670664 
L 227.299443 273.639635 
L 228.299443 273.628467 
L 229.299443 273.598349 
L 230.299443 273.538572 
L 231.299443 273.501381 
L 232.299443 273.462285 
L 233.299443 273.419845 
L 234.299443 273.38708 
L 235.299443 273.319653 
L 236.299443 273.280527 
L 237.299443 273.237853 
L 238.299443 273.167272 
L 239.299443 273.130881 
L 240.299443 273.072478 
L 241.299443 272.961526 
L 242.299443 272.890867 
L 243.299443 272.777928 
L 244.299443 272.732155 
L 245.299443 272.670871 
L 246.299443 272.622372 
L 247.299443 272.541549 
L 248.299443 272.423031 
L 249.299443 272.35282 
L 250.299443 272.269557 
L 251.299443 272.236416 
L 252.299443 272.185178 
L 253.299443 272.11678 
L 254.299443 272.050565 
L 255.299443 271.973647 
L 256.619695 271.946332 
" clip-path="url(#pef394d298a)" style="fill: none; stroke: #1f77b4; stroke-opacity: 0.5; stroke-width: 0.2; stroke-linecap: square"/>
   <path d="M 200.299443 237.415275 
L 201.299443 237.446711 
L 202.299443 237.483652 
L 203.299443 237.581398 
L 204.299443 237.61392 
L 205.299443 237.687545 
L 206.299443 237.72611 
L 207.299443 237.761523 
L 208.299443 237.819163 
L 209.299443 237.88955 
L 210.299443 237.941514 
L 211.299443 238.000604 
L 212.299443 238.088924 
L 213.299443 238.135069 
L 214.299443 238.17748 
L 215.299443 238.207972 
L 216.299443 238.234017 
L 217.299443 238.255217 
L 218.299443 238.309519 
L 219.299443 238.337456 
L 220.299443 238.36718 
L 221.299443 238.392575 
L 222.299443 238.403775 
L 223.299443 238.413899 
L 224.299443 238.413695 
L 225.299443 238.404185 
L 226.299443 238.392531 
L 227.299443 238.361502 
L 228.299443 238.350334 
L 229.299443 238.320217 
L 230.299443 238.26044 
L 231.299443 238.223248 
L 232.299443 238.184152 
L 233.299443 238.141713 
L 234.299443 238.108947 
L 235.299443 238.041521 
L 236.299443 238.002395 
L 237.299443 237.959721 
L 238.299443 237.88914 
L 239.299443 237.852749 
L 240.299443 237.794346 
L 241.299443 237.683393 
L 242.299443 237.612735 
L 243.299443 237.499795 
L 244.299443 237.454022 
L 245.299443 237.392739 
L 246.299443 237.34424 
L 247.299443 237.263417 
L 248.299443 237.144898 
L 249.299443 237.074687 
L 250.299443 236.991425 
L 251.299443 236.958283 
L 252.299443 236.907046 
L 253.299443 236.838648 
L 254.299443 236.772432 
L 255.299443 236.695515 
L 256.619695 236.6682 
" clip-path="url(#pef394d298a)" style="fill: none; stroke: #1f77b4; stroke-opacity: 0.5; stroke-width: 0.2; stroke-linecap: square"/>
   <path d="M 200.299443 198.36273 
L 201.299443 198.394166 
L 202.299443 198.431106 
L 203.299443 198.528853 
L 204.299443 198.561375 
L 205.299443 198.634999 
L 206.299443 198.673565 
L 207.299443 198.708978 
L 208.299443 198.766618 
L 209.299443 198.837004 
L 210.299443 198.888968 
L 211.299443 198.948058 
L 212.299443 199.036379 
L 213.299443 199.082523 
L 214.299443 199.124934 
L 215.299443 199.155427 
L 216.299443 199.181472 
L 217.299443 199.202672 
L 218.299443 199.256973 
L 219.299443 199.284911 
L 220.299443 199.314635 
L 221.299443 199.340029 
L 222.299443 199.35123 
L 223.299443 199.361354 
L 224.299443 199.361149 
L 225.299443 199.35164 
L 226.299443 199.339986 
L 227.299443 199.308957 
L 228.299443 199.297789 
L 229.299443 199.267671 
L 230.299443 199.207894 
L 231.299443 199.170703 
L 232.299443 199.131607 
L 233.299443 199.089167 
L 234.299443 199.056402 
L 235.299443 198.988976 
L 236.299443 198.94985 
L 237.299443 198.907175 
L 238.299443 198.836595 
L 239.299443 198.800204 
L 240.299443 198.7418 
L 241.299443 198.630848 
L 242.299443 198.56019 
L 243.299443 198.44725 
L 244.299443 198.401477 
L 245.299443 198.340194 
L 246.299443 198.291694 
L 247.299443 198.210872 
L 248.299443 198.092353 
L 249.299443 198.022142 
L 250.299443 197.93888 
L 251.299443 197.905738 
L 252.299443 197.854501 
L 253.299443 197.786102 
L 254.299443 197.719887 
L 255.299443 197.64297 
L 256.619695 197.615654 
" clip-path="url(#pef394d298a)" style="fill: none; stroke: #1f77b4; stroke-opacity: 0.5; stroke-width: 0.2; stroke-linecap: square"/>
   <path d="M 200.299443 128.565116 
L 201.299443 128.596553 
L 202.299443 128.633493 
L 203.299443 128.73124 
L 204.299443 128.763761 
L 205.299443 128.837386 
L 206.299443 128.875951 
L 207.299443 128.911365 
L 208.299443 128.969005 
L 209.299443 129.039391 
L 210.299443 129.091355 
L 211.299443 129.150445 
L 212.299443 129.238766 
L 213.299443 129.28491 
L 214.299443 129.327321 
L 215.299443 129.357814 
L 216.299443 129.383859 
L 217.299443 129.405059 
L 218.299443 129.45936 
L 219.299443 129.487297 
L 220.299443 129.517021 
L 221.299443 129.542416 
L 222.299443 129.553617 
L 223.299443 129.56374 
L 224.299443 129.563536 
L 225.299443 129.554026 
L 226.299443 129.542373 
L 227.299443 129.511343 
L 228.299443 129.500176 
L 229.299443 129.470058 
L 230.299443 129.410281 
L 231.299443 129.373089 
L 232.299443 129.333993 
L 233.299443 129.291554 
L 234.299443 129.258789 
L 235.299443 129.191362 
L 236.299443 129.152236 
L 237.299443 129.109562 
L 238.299443 129.038981 
L 239.299443 129.00259 
L 240.299443 128.944187 
L 241.299443 128.833235 
L 242.299443 128.762576 
L 243.299443 128.649636 
L 244.299443 128.603863 
L 245.299443 128.54258 
L 246.299443 128.494081 
L 247.299443 128.413258 
L 248.299443 128.294739 
L 249.299443 128.224529 
L 250.299443 128.141266 
L 251.299443 128.108124 
L 252.299443 128.056887 
L 253.299443 127.988489 
L 254.299443 127.922273 
L 255.299443 127.845356 
L 256.619695 127.818041 
" clip-path="url(#pef394d298a)" style="fill: none; stroke: #1f77b4; stroke-opacity: 0.5; stroke-width: 0.2; stroke-linecap: square"/>
   <path d="M 200.299443 110.515032 
L 201.299443 110.546468 
L 202.299443 110.583409 
L 203.299443 110.681155 
L 204.299443 110.713677 
L 205.299443 110.787301 
L 206.299443 110.825867 
L 207.299443 110.86128 
L 208.299443 110.91892 
L 209.299443 110.989306 
L 210.299443 111.04127 
L 211.299443 111.10036 
L 212.299443 111.188681 
L 213.299443 111.234826 
L 214.299443 111.277236 
L 215.299443 111.307729 
L 216.299443 111.333774 
L 217.299443 111.354974 
L 218.299443 111.409275 
L 219.299443 111.437213 
L 220.299443 111.466937 
L 221.299443 111.492332 
L 222.299443 111.503532 
L 223.299443 111.513656 
L 224.299443 111.513452 
L 225.299443 111.503942 
L 226.299443 111.492288 
L 227.299443 111.461259 
L 228.299443 111.450091 
L 229.299443 111.419973 
L 230.299443 111.360197 
L 231.299443 111.323005 
L 232.299443 111.283909 
L 233.299443 111.241469 
L 234.299443 111.208704 
L 235.299443 111.141278 
L 236.299443 111.102152 
L 237.299443 111.059477 
L 238.299443 110.988897 
L 239.299443 110.952506 
L 240.299443 110.894103 
L 241.299443 110.78315 
L 242.299443 110.712492 
L 243.299443 110.599552 
L 244.299443 110.553779 
L 245.299443 110.492496 
L 246.299443 110.443996 
L 247.299443 110.363174 
L 248.299443 110.244655 
L 249.299443 110.174444 
L 250.299443 110.091182 
L 251.299443 110.05804 
L 252.299443 110.006803 
L 253.299443 109.938404 
L 254.299443 109.872189 
L 255.299443 109.795272 
L 256.619695 109.767956 
" clip-path="url(#pef394d298a)" style="fill: none; stroke: #1f77b4; stroke-opacity: 0.5; stroke-width: 0.2; stroke-linecap: square"/>
   <path d="M 200.299443 88.164127 
L 201.299443 88.195564 
L 202.299443 88.232504 
L 203.299443 88.330251 
L 204.299443 88.362772 
L 205.299443 88.436397 
L 206.299443 88.474962 
L 207.299443 88.510376 
L 208.299443 88.568015 
L 209.299443 88.638402 
L 210.299443 88.690366 
L 211.299443 88.749456 
L 212.299443 88.837777 
L 213.299443 88.883921 
L 214.299443 88.926332 
L 215.299443 88.956825 
L 216.299443 88.982869 
L 217.299443 89.00407 
L 218.299443 89.058371 
L 219.299443 89.086308 
L 220.299443 89.116032 
L 221.299443 89.141427 
L 222.299443 89.152627 
L 223.299443 89.162751 
L 224.299443 89.162547 
L 225.299443 89.153037 
L 226.299443 89.141384 
L 227.299443 89.110354 
L 228.299443 89.099186 
L 229.299443 89.069069 
L 230.299443 89.009292 
L 231.299443 88.9721 
L 232.299443 88.933004 
L 233.299443 88.890565 
L 234.299443 88.8578 
L 235.299443 88.790373 
L 236.299443 88.751247 
L 237.299443 88.708573 
L 238.299443 88.637992 
L 239.299443 88.601601 
L 240.299443 88.543198 
L 241.299443 88.432245 
L 242.299443 88.361587 
L 243.299443 88.248647 
L 244.299443 88.202874 
L 245.299443 88.141591 
L 246.299443 88.093092 
L 247.299443 88.012269 
L 248.299443 87.89375 
L 249.299443 87.82354 
L 250.299443 87.740277 
L 251.299443 87.707135 
L 252.299443 87.655898 
L 253.299443 87.5875 
L 254.299443 87.521284 
L 255.299443 87.444367 
L 256.619695 87.417052 
" clip-path="url(#pef394d298a)" style="fill: none; stroke: #1f77b4; stroke-opacity: 0.5; stroke-width: 0.2; stroke-linecap: square"/>
   <path d="M 256.619695 123.954708 
L 255.619695 123.923271 
L 254.619695 123.886331 
L 253.619695 123.788584 
L 252.619695 123.756063 
L 251.619695 123.682438 
L 250.619695 123.643873 
L 249.619695 123.608459 
L 248.619695 123.550819 
L 247.619695 123.480433 
L 246.619695 123.428469 
L 245.619695 123.369379 
L 244.619695 123.281058 
L 243.619695 123.234914 
L 242.619695 123.192503 
L 241.619695 123.16201 
L 240.619695 123.135965 
L 239.619695 123.114765 
L 238.619695 123.060464 
L 237.619695 123.032527 
L 236.619695 123.002803 
L 235.619695 122.977408 
L 234.619695 122.966208 
L 233.619695 122.956084 
L 232.619695 122.956288 
L 231.619695 122.965798 
L 230.619695 122.977451 
L 229.619695 123.008481 
L 228.619695 123.019649 
L 227.619695 123.049766 
L 226.619695 123.109543 
L 225.619695 123.146735 
L 224.619695 123.185831 
L 223.619695 123.22827 
L 222.619695 123.261035 
L 221.619695 123.328462 
L 220.619695 123.367588 
L 219.619695 123.410262 
L 218.619695 123.480843 
L 217.619695 123.517234 
L 216.619695 123.575637 
L 215.619695 123.68659 
L 214.619695 123.757248 
L 213.619695 123.870188 
L 212.619695 123.915961 
L 211.619695 123.977244 
L 210.619695 124.025743 
L 209.619695 124.106566 
L 208.619695 124.225085 
L 207.619695 124.295295 
L 206.619695 124.378558 
L 205.619695 124.4117 
L 204.619695 124.462937 
L 203.619695 124.531335 
L 202.619695 124.597551 
L 201.619695 124.674468 
L 200.299443 124.701783 
" clip-path="url(#pef394d298a)" style="fill: none; stroke: #ff7f0e; stroke-opacity: 0.5; stroke-width: 0.2; stroke-linecap: square"/>
   <path d="M 256.619695 26.780299 
L 255.619695 26.748863 
L 254.619695 26.711922 
L 253.619695 26.614176 
L 252.619695 26.581654 
L 251.619695 26.50803 
L 250.619695 26.469464 
L 249.619695 26.434051 
L 248.619695 26.376411 
L 247.619695 26.306025 
L 246.619695 26.254061 
L 245.619695 26.194971 
L 244.619695 26.10665 
L 243.619695 26.060506 
L 242.619695 26.018095 
L 241.619695 25.987602 
L 240.619695 25.961557 
L 239.619695 25.940357 
L 238.619695 25.886056 
L 237.619695 25.858118 
L 236.619695 25.828394 
L 235.619695 25.802999 
L 234.619695 25.791799 
L 233.619695 25.781675 
L 232.619695 25.781879 
L 231.619695 25.791389 
L 230.619695 25.803043 
L 229.619695 25.834072 
L 228.619695 25.84524 
L 227.619695 25.875358 
L 226.619695 25.935135 
L 225.619695 25.972326 
L 224.619695 26.011422 
L 223.619695 26.053862 
L 222.619695 26.086627 
L 221.619695 26.154053 
L 220.619695 26.193179 
L 219.619695 26.235854 
L 218.619695 26.306434 
L 217.619695 26.342825 
L 216.619695 26.401228 
L 215.619695 26.512181 
L 214.619695 26.582839 
L 213.619695 26.695779 
L 212.619695 26.741552 
L 211.619695 26.802835 
L 210.619695 26.851335 
L 209.619695 26.932157 
L 208.619695 27.050676 
L 207.619695 27.120887 
L 206.619695 27.204149 
L 205.619695 27.237291 
L 204.619695 27.288528 
L 203.619695 27.356927 
L 202.619695 27.423142 
L 201.619695 27.500059 
L 200.299443 27.527375 
" clip-path="url(#pef394d298a)" style="fill: none; stroke: #ff7f0e; stroke-opacity: 0.5; stroke-width: 0.2; stroke-linecap: square"/>
   <path d="M 256.619695 285.732644 
L 255.619695 285.701208 
L 254.619695 285.664267 
L 253.619695 285.566521 
L 252.619695 285.533999 
L 251.619695 285.460374 
L 250.619695 285.421809 
L 249.619695 285.386396 
L 248.619695 285.328756 
L 247.619695 285.258369 
L 246.619695 285.206405 
L 245.619695 285.147315 
L 244.619695 285.058994 
L 243.619695 285.01285 
L 242.619695 284.970439 
L 241.619695 284.939947 
L 240.619695 284.913902 
L 239.619695 284.892702 
L 238.619695 284.8384 
L 237.619695 284.810463 
L 236.619695 284.780739 
L 235.619695 284.755344 
L 234.619695 284.744144 
L 233.619695 284.73402 
L 232.619695 284.734224 
L 231.619695 284.743734 
L 230.619695 284.755388 
L 229.619695 284.786417 
L 228.619695 284.797585 
L 227.619695 284.827702 
L 226.619695 284.887479 
L 225.619695 284.924671 
L 224.619695 284.963767 
L 223.619695 285.006206 
L 222.619695 285.038972 
L 221.619695 285.106398 
L 220.619695 285.145524 
L 219.619695 285.188198 
L 218.619695 285.258779 
L 217.619695 285.29517 
L 216.619695 285.353573 
L 215.619695 285.464526 
L 214.619695 285.535184 
L 213.619695 285.648124 
L 212.619695 285.693897 
L 211.619695 285.75518 
L 210.619695 285.803679 
L 209.619695 285.884502 
L 208.619695 286.003021 
L 207.619695 286.073232 
L 206.619695 286.156494 
L 205.619695 286.189636 
L 204.619695 286.240873 
L 203.619695 286.309271 
L 202.619695 286.375487 
L 201.619695 286.452404 
L 200.299443 286.479719 
" clip-path="url(#pef394d298a)" style="fill: none; stroke: #ff7f0e; stroke-opacity: 0.5; stroke-width: 0.2; stroke-linecap: square"/>
   <path d="M 256.619695 117.74575 
L 255.619695 117.714314 
L 254.619695 117.677373 
L 253.619695 117.579627 
L 252.619695 117.547105 
L 251.619695 117.47348 
L 250.619695 117.434915 
L 249.619695 117.399502 
L 248.619695 117.341862 
L 247.619695 117.271475 
L 246.619695 117.219511 
L 245.619695 117.160421 
L 244.619695 117.072101 
L 243.619695 117.025956 
L 242.619695 116.983545 
L 241.619695 116.953053 
L 240.619695 116.927008 
L 239.619695 116.905808 
L 238.619695 116.851506 
L 237.619695 116.823569 
L 236.619695 116.793845 
L 235.619695 116.76845 
L 234.619695 116.75725 
L 233.619695 116.747126 
L 232.619695 116.74733 
L 231.619695 116.75684 
L 230.619695 116.768494 
L 229.619695 116.799523 
L 228.619695 116.810691 
L 227.619695 116.840808 
L 226.619695 116.900585 
L 225.619695 116.937777 
L 224.619695 116.976873 
L 223.619695 117.019312 
L 222.619695 117.052078 
L 221.619695 117.119504 
L 220.619695 117.15863 
L 219.619695 117.201304 
L 218.619695 117.271885 
L 217.619695 117.308276 
L 216.619695 117.366679 
L 215.619695 117.477632 
L 214.619695 117.54829 
L 213.619695 117.66123 
L 212.619695 117.707003 
L 211.619695 117.768286 
L 210.619695 117.816785 
L 209.619695 117.897608 
L 208.619695 118.016127 
L 207.619695 118.086338 
L 206.619695 118.1696 
L 205.619695 118.202742 
L 204.619695 118.253979 
L 203.619695 118.322377 
L 202.619695 118.388593 
L 201.619695 118.46551 
L 200.299443 118.492825 
" clip-path="url(#pef394d298a)" style="fill: none; stroke: #ff7f0e; stroke-opacity: 0.5; stroke-width: 0.2; stroke-linecap: square"/>
   <path d="M 256.619695 205.134268 
L 255.619695 205.102831 
L 254.619695 205.065891 
L 253.619695 204.968144 
L 252.619695 204.935623 
L 251.619695 204.861998 
L 250.619695 204.823433 
L 249.619695 204.788019 
L 248.619695 204.73038 
L 247.619695 204.659993 
L 246.619695 204.608029 
L 245.619695 204.548939 
L 244.619695 204.460618 
L 243.619695 204.414474 
L 242.619695 204.372063 
L 241.619695 204.34157 
L 240.619695 204.315526 
L 239.619695 204.294325 
L 238.619695 204.240024 
L 237.619695 204.212087 
L 236.619695 204.182363 
L 235.619695 204.156968 
L 234.619695 204.145768 
L 233.619695 204.135644 
L 232.619695 204.135848 
L 231.619695 204.145358 
L 230.619695 204.157011 
L 229.619695 204.188041 
L 228.619695 204.199209 
L 227.619695 204.229326 
L 226.619695 204.289103 
L 225.619695 204.326295 
L 224.619695 204.365391 
L 223.619695 204.40783 
L 222.619695 204.440595 
L 221.619695 204.508022 
L 220.619695 204.547148 
L 219.619695 204.589822 
L 218.619695 204.660403 
L 217.619695 204.696794 
L 216.619695 204.755197 
L 215.619695 204.86615 
L 214.619695 204.936808 
L 213.619695 205.049748 
L 212.619695 205.095521 
L 211.619695 205.156804 
L 210.619695 205.205303 
L 209.619695 205.286126 
L 208.619695 205.404645 
L 207.619695 205.474855 
L 206.619695 205.558118 
L 205.619695 205.59126 
L 204.619695 205.642497 
L 203.619695 205.710895 
L 202.619695 205.777111 
L 201.619695 205.854028 
L 200.299443 205.881343 
" clip-path="url(#pef394d298a)" style="fill: none; stroke: #ff7f0e; stroke-opacity: 0.5; stroke-width: 0.2; stroke-linecap: square"/>
   <path d="M 256.619695 286.425816 
L 255.619695 286.394379 
L 254.619695 286.357439 
L 253.619695 286.259692 
L 252.619695 286.227171 
L 251.619695 286.153546 
L 250.619695 286.11498 
L 249.619695 286.079567 
L 248.619695 286.021927 
L 247.619695 285.951541 
L 246.619695 285.899577 
L 245.619695 285.840487 
L 244.619695 285.752166 
L 243.619695 285.706022 
L 242.619695 285.663611 
L 241.619695 285.633118 
L 240.619695 285.607073 
L 239.619695 285.585873 
L 238.619695 285.531572 
L 237.619695 285.503635 
L 236.619695 285.473911 
L 235.619695 285.448516 
L 234.619695 285.437315 
L 233.619695 285.427191 
L 232.619695 285.427396 
L 231.619695 285.436906 
L 230.619695 285.448559 
L 229.619695 285.479589 
L 228.619695 285.490756 
L 227.619695 285.520874 
L 226.619695 285.580651 
L 225.619695 285.617842 
L 224.619695 285.656939 
L 223.619695 285.699378 
L 222.619695 285.732143 
L 221.619695 285.79957 
L 220.619695 285.838696 
L 219.619695 285.88137 
L 218.619695 285.951951 
L 217.619695 285.988342 
L 216.619695 286.046745 
L 215.619695 286.157697 
L 214.619695 286.228356 
L 213.619695 286.341296 
L 212.619695 286.387068 
L 211.619695 286.448352 
L 210.619695 286.496851 
L 209.619695 286.577674 
L 208.619695 286.696193 
L 207.619695 286.766403 
L 206.619695 286.849666 
L 205.619695 286.882807 
L 204.619695 286.934045 
L 203.619695 287.002443 
L 202.619695 287.068659 
L 201.619695 287.145576 
L 200.299443 287.172891 
" clip-path="url(#pef394d298a)" style="fill: none; stroke: #ff7f0e; stroke-opacity: 0.5; stroke-width: 0.2; stroke-linecap: square"/>
   <path d="M 256.619695 212.486912 
L 255.619695 212.455476 
L 254.619695 212.418535 
L 253.619695 212.320789 
L 252.619695 212.288267 
L 251.619695 212.214643 
L 250.619695 212.176077 
L 249.619695 212.140664 
L 248.619695 212.083024 
L 247.619695 212.012638 
L 246.619695 211.960673 
L 245.619695 211.901584 
L 244.619695 211.813263 
L 243.619695 211.767118 
L 242.619695 211.724707 
L 241.619695 211.694215 
L 240.619695 211.66817 
L 239.619695 211.64697 
L 238.619695 211.592669 
L 237.619695 211.564731 
L 236.619695 211.535007 
L 235.619695 211.509612 
L 234.619695 211.498412 
L 233.619695 211.488288 
L 232.619695 211.488492 
L 231.619695 211.498002 
L 230.619695 211.509656 
L 229.619695 211.540685 
L 228.619695 211.551853 
L 227.619695 211.58197 
L 226.619695 211.641747 
L 225.619695 211.678939 
L 224.619695 211.718035 
L 223.619695 211.760475 
L 222.619695 211.79324 
L 221.619695 211.860666 
L 220.619695 211.899792 
L 219.619695 211.942467 
L 218.619695 212.013047 
L 217.619695 212.049438 
L 216.619695 212.107841 
L 215.619695 212.218794 
L 214.619695 212.289452 
L 213.619695 212.402392 
L 212.619695 212.448165 
L 211.619695 212.509448 
L 210.619695 212.557948 
L 209.619695 212.63877 
L 208.619695 212.757289 
L 207.619695 212.8275 
L 206.619695 212.910762 
L 205.619695 212.943904 
L 204.619695 212.995141 
L 203.619695 213.06354 
L 202.619695 213.129755 
L 201.619695 213.206672 
L 200.299443 213.233988 
" clip-path="url(#pef394d298a)" style="fill: none; stroke: #ff7f0e; stroke-opacity: 0.5; stroke-width: 0.2; stroke-linecap: square"/>
   <path d="M 256.619695 172.985633 
L 255.619695 172.954197 
L 254.619695 172.917257 
L 253.619695 172.81951 
L 252.619695 172.786989 
L 251.619695 172.713364 
L 250.619695 172.674798 
L 249.619695 172.639385 
L 248.619695 172.581745 
L 247.619695 172.511359 
L 246.619695 172.459395 
L 245.619695 172.400305 
L 244.619695 172.311984 
L 243.619695 172.26584 
L 242.619695 172.223429 
L 241.619695 172.192936 
L 240.619695 172.166891 
L 239.619695 172.145691 
L 238.619695 172.09139 
L 237.619695 172.063452 
L 236.619695 172.033728 
L 235.619695 172.008334 
L 234.619695 171.997133 
L 233.619695 171.987009 
L 232.619695 171.987214 
L 231.619695 171.996724 
L 230.619695 172.008377 
L 229.619695 172.039406 
L 228.619695 172.050574 
L 227.619695 172.080692 
L 226.619695 172.140469 
L 225.619695 172.17766 
L 224.619695 172.216756 
L 223.619695 172.259196 
L 222.619695 172.291961 
L 221.619695 172.359388 
L 220.619695 172.398514 
L 219.619695 172.441188 
L 218.619695 172.511769 
L 217.619695 172.54816 
L 216.619695 172.606563 
L 215.619695 172.717515 
L 214.619695 172.788174 
L 213.619695 172.901113 
L 212.619695 172.946886 
L 211.619695 173.00817 
L 210.619695 173.056669 
L 209.619695 173.137492 
L 208.619695 173.25601 
L 207.619695 173.326221 
L 206.619695 173.409484 
L 205.619695 173.442625 
L 204.619695 173.493863 
L 203.619695 173.562261 
L 202.619695 173.628476 
L 201.619695 173.705394 
L 200.299443 173.732709 
" clip-path="url(#pef394d298a)" style="fill: none; stroke: #ff7f0e; stroke-opacity: 0.5; stroke-width: 0.2; stroke-linecap: square"/>
   <path d="M 256.619695 294.175127 
L 255.619695 294.14369 
L 254.619695 294.10675 
L 253.619695 294.009003 
L 252.619695 293.976482 
L 251.619695 293.902857 
L 250.619695 293.864291 
L 249.619695 293.828878 
L 248.619695 293.771238 
L 247.619695 293.700852 
L 246.619695 293.648888 
L 245.619695 293.589798 
L 244.619695 293.501477 
L 243.619695 293.455333 
L 242.619695 293.412922 
L 241.619695 293.382429 
L 240.619695 293.356384 
L 239.619695 293.335184 
L 238.619695 293.280883 
L 237.619695 293.252946 
L 236.619695 293.223222 
L 235.619695 293.197827 
L 234.619695 293.186626 
L 233.619695 293.176502 
L 232.619695 293.176707 
L 231.619695 293.186217 
L 230.619695 293.19787 
L 229.619695 293.228899 
L 228.619695 293.240067 
L 227.619695 293.270185 
L 226.619695 293.329962 
L 225.619695 293.367153 
L 224.619695 293.406249 
L 223.619695 293.448689 
L 222.619695 293.481454 
L 221.619695 293.548881 
L 220.619695 293.588007 
L 219.619695 293.630681 
L 218.619695 293.701262 
L 217.619695 293.737653 
L 216.619695 293.796056 
L 215.619695 293.907008 
L 214.619695 293.977667 
L 213.619695 294.090606 
L 212.619695 294.136379 
L 211.619695 294.197663 
L 210.619695 294.246162 
L 209.619695 294.326985 
L 208.619695 294.445504 
L 207.619695 294.515714 
L 206.619695 294.598977 
L 205.619695 294.632118 
L 204.619695 294.683356 
L 203.619695 294.751754 
L 202.619695 294.81797 
L 201.619695 294.894887 
L 200.299443 294.922202 
" clip-path="url(#pef394d298a)" style="fill: none; stroke: #ff7f0e; stroke-opacity: 0.5; stroke-width: 0.2; stroke-linecap: square"/>
   <path d="M 256.619695 190.505653 
L 255.619695 190.474217 
L 254.619695 190.437277 
L 253.619695 190.33953 
L 252.619695 190.307009 
L 251.619695 190.233384 
L 250.619695 190.194818 
L 249.619695 190.159405 
L 248.619695 190.101765 
L 247.619695 190.031379 
L 246.619695 189.979415 
L 245.619695 189.920325 
L 244.619695 189.832004 
L 243.619695 189.78586 
L 242.619695 189.743449 
L 241.619695 189.712956 
L 240.619695 189.686911 
L 239.619695 189.665711 
L 238.619695 189.61141 
L 237.619695 189.583472 
L 236.619695 189.553748 
L 235.619695 189.528354 
L 234.619695 189.517153 
L 233.619695 189.507029 
L 232.619695 189.507234 
L 231.619695 189.516743 
L 230.619695 189.528397 
L 229.619695 189.559426 
L 228.619695 189.570594 
L 227.619695 189.600712 
L 226.619695 189.660489 
L 225.619695 189.69768 
L 224.619695 189.736776 
L 223.619695 189.779216 
L 222.619695 189.811981 
L 221.619695 189.879408 
L 220.619695 189.918533 
L 219.619695 189.961208 
L 218.619695 190.031789 
L 217.619695 190.068179 
L 216.619695 190.126583 
L 215.619695 190.237535 
L 214.619695 190.308194 
L 213.619695 190.421133 
L 212.619695 190.466906 
L 211.619695 190.528189 
L 210.619695 190.576689 
L 209.619695 190.657512 
L 208.619695 190.77603 
L 207.619695 190.846241 
L 206.619695 190.929504 
L 205.619695 190.962645 
L 204.619695 191.013883 
L 203.619695 191.082281 
L 202.619695 191.148496 
L 201.619695 191.225413 
L 200.299443 191.252729 
" clip-path="url(#pef394d298a)" style="fill: none; stroke: #ff7f0e; stroke-opacity: 0.5; stroke-width: 0.2; stroke-linecap: square"/>
   <path d="M 390.34593 132.740049 
L 391.34593 132.771485 
L 392.34593 132.808426 
L 393.34593 132.906172 
L 394.34593 132.938694 
L 395.34593 133.012319 
L 396.34593 133.050884 
L 397.34593 133.086297 
L 398.34593 133.143937 
L 399.34593 133.214324 
L 400.34593 133.266288 
L 401.34593 133.325378 
L 402.34593 133.413698 
L 403.34593 133.459843 
L 404.34593 133.502254 
L 405.34593 133.532746 
L 406.34593 133.558791 
L 407.34593 133.579991 
L 408.34593 133.634293 
L 409.34593 133.66223 
L 410.34593 133.691954 
L 411.34593 133.717349 
L 412.34593 133.728549 
L 413.34593 133.738673 
L 414.34593 133.738469 
L 415.34593 133.728959 
L 416.34593 133.717305 
L 417.34593 133.686276 
L 418.34593 133.675108 
L 419.34593 133.644991 
L 420.34593 133.585214 
L 421.34593 133.548022 
L 422.34593 133.508926 
L 423.34593 133.466486 
L 424.34593 133.433721 
L 425.34593 133.366295 
L 426.34593 133.327169 
L 427.34593 133.284495 
L 428.34593 133.213914 
L 429.34593 133.177523 
L 430.34593 133.11912 
L 431.34593 133.008167 
L 432.34593 132.937509 
L 433.34593 132.824569 
L 434.34593 132.778796 
L 435.34593 132.717513 
L 436.34593 132.669014 
L 437.34593 132.588191 
L 438.34593 132.469672 
L 439.34593 132.399461 
L 440.34593 132.316199 
L 441.34593 132.283057 
L 442.34593 132.23182 
L 443.34593 132.163422 
L 444.34593 132.097206 
L 445.34593 132.020289 
L 446.666182 131.992974 
" clip-path="url(#pef394d298a)" style="fill: none; stroke: #ff7f0e; stroke-opacity: 0.5; stroke-width: 0.2; stroke-linecap: square"/>
   <path d="M 390.34593 228.261377 
L 391.34593 228.292813 
L 392.34593 228.329754 
L 393.34593 228.4275 
L 394.34593 228.460022 
L 395.34593 228.533647 
L 396.34593 228.572212 
L 397.34593 228.607625 
L 398.34593 228.665265 
L 399.34593 228.735651 
L 400.34593 228.787616 
L 401.34593 228.846705 
L 402.34593 228.935026 
L 403.34593 228.981171 
L 404.34593 229.023582 
L 405.34593 229.054074 
L 406.34593 229.080119 
L 407.34593 229.101319 
L 408.34593 229.15562 
L 409.34593 229.183558 
L 410.34593 229.213282 
L 411.34593 229.238677 
L 412.34593 229.249877 
L 413.34593 229.260001 
L 414.34593 229.259797 
L 415.34593 229.250287 
L 416.34593 229.238633 
L 417.34593 229.207604 
L 418.34593 229.196436 
L 419.34593 229.166319 
L 420.34593 229.106542 
L 421.34593 229.06935 
L 422.34593 229.030254 
L 423.34593 228.987814 
L 424.34593 228.955049 
L 425.34593 228.887623 
L 426.34593 228.848497 
L 427.34593 228.805822 
L 428.34593 228.735242 
L 429.34593 228.698851 
L 430.34593 228.640448 
L 431.34593 228.529495 
L 432.34593 228.458837 
L 433.34593 228.345897 
L 434.34593 228.300124 
L 435.34593 228.238841 
L 436.34593 228.190342 
L 437.34593 228.109519 
L 438.34593 227.991 
L 439.34593 227.920789 
L 440.34593 227.837527 
L 441.34593 227.804385 
L 442.34593 227.753148 
L 443.34593 227.684749 
L 444.34593 227.618534 
L 445.34593 227.541617 
L 446.666182 227.514301 
" clip-path="url(#pef394d298a)" style="fill: none; stroke: #ff7f0e; stroke-opacity: 0.5; stroke-width: 0.2; stroke-linecap: square"/>
   <path d="M 390.34593 214.667437 
L 391.34593 214.698874 
L 392.34593 214.735814 
L 393.34593 214.833561 
L 394.34593 214.866082 
L 395.34593 214.939707 
L 396.34593 214.978273 
L 397.34593 215.013686 
L 398.34593 215.071326 
L 399.34593 215.141712 
L 400.34593 215.193676 
L 401.34593 215.252766 
L 402.34593 215.341087 
L 403.34593 215.387231 
L 404.34593 215.429642 
L 405.34593 215.460135 
L 406.34593 215.48618 
L 407.34593 215.50738 
L 408.34593 215.561681 
L 409.34593 215.589618 
L 410.34593 215.619342 
L 411.34593 215.644737 
L 412.34593 215.655938 
L 413.34593 215.666062 
L 414.34593 215.665857 
L 415.34593 215.656347 
L 416.34593 215.644694 
L 417.34593 215.613664 
L 418.34593 215.602497 
L 419.34593 215.572379 
L 420.34593 215.512602 
L 421.34593 215.475411 
L 422.34593 215.436314 
L 423.34593 215.393875 
L 424.34593 215.36111 
L 425.34593 215.293683 
L 426.34593 215.254557 
L 427.34593 215.211883 
L 428.34593 215.141302 
L 429.34593 215.104911 
L 430.34593 215.046508 
L 431.34593 214.935556 
L 432.34593 214.864897 
L 433.34593 214.751957 
L 434.34593 214.706185 
L 435.34593 214.644901 
L 436.34593 214.596402 
L 437.34593 214.515579 
L 438.34593 214.39706 
L 439.34593 214.32685 
L 440.34593 214.243587 
L 441.34593 214.210446 
L 442.34593 214.159208 
L 443.34593 214.09081 
L 444.34593 214.024594 
L 445.34593 213.947677 
L 446.666182 213.920362 
" clip-path="url(#pef394d298a)" style="fill: none; stroke: #ff7f0e; stroke-opacity: 0.5; stroke-width: 0.2; stroke-linecap: square"/>
   <path d="M 390.34593 47.191912 
L 391.34593 47.223349 
L 392.34593 47.260289 
L 393.34593 47.358036 
L 394.34593 47.390557 
L 395.34593 47.464182 
L 396.34593 47.502748 
L 397.34593 47.538161 
L 398.34593 47.595801 
L 399.34593 47.666187 
L 400.34593 47.718151 
L 401.34593 47.777241 
L 402.34593 47.865562 
L 403.34593 47.911706 
L 404.34593 47.954117 
L 405.34593 47.98461 
L 406.34593 48.010655 
L 407.34593 48.031855 
L 408.34593 48.086156 
L 409.34593 48.114093 
L 410.34593 48.143817 
L 411.34593 48.169212 
L 412.34593 48.180413 
L 413.34593 48.190537 
L 414.34593 48.190332 
L 415.34593 48.180822 
L 416.34593 48.169169 
L 417.34593 48.138139 
L 418.34593 48.126972 
L 419.34593 48.096854 
L 420.34593 48.037077 
L 421.34593 47.999886 
L 422.34593 47.960789 
L 423.34593 47.91835 
L 424.34593 47.885585 
L 425.34593 47.818158 
L 426.34593 47.779032 
L 427.34593 47.736358 
L 428.34593 47.665777 
L 429.34593 47.629386 
L 430.34593 47.570983 
L 431.34593 47.460031 
L 432.34593 47.389372 
L 433.34593 47.276432 
L 434.34593 47.23066 
L 435.34593 47.169376 
L 436.34593 47.120877 
L 437.34593 47.040054 
L 438.34593 46.921535 
L 439.34593 46.851325 
L 440.34593 46.768062 
L 441.34593 46.734921 
L 442.34593 46.683683 
L 443.34593 46.615285 
L 444.34593 46.549069 
L 445.34593 46.472152 
L 446.666182 46.444837 
" clip-path="url(#pef394d298a)" style="fill: none; stroke: #ff7f0e; stroke-opacity: 0.5; stroke-width: 0.2; stroke-linecap: square"/>
   <path d="M 390.34593 108.988304 
L 391.34593 109.01974 
L 392.34593 109.05668 
L 393.34593 109.154427 
L 394.34593 109.186948 
L 395.34593 109.260573 
L 396.34593 109.299139 
L 397.34593 109.334552 
L 398.34593 109.392192 
L 399.34593 109.462578 
L 400.34593 109.514542 
L 401.34593 109.573632 
L 402.34593 109.661953 
L 403.34593 109.708097 
L 404.34593 109.750508 
L 405.34593 109.781001 
L 406.34593 109.807046 
L 407.34593 109.828246 
L 408.34593 109.882547 
L 409.34593 109.910485 
L 410.34593 109.940209 
L 411.34593 109.965603 
L 412.34593 109.976804 
L 413.34593 109.986928 
L 414.34593 109.986723 
L 415.34593 109.977214 
L 416.34593 109.96556 
L 417.34593 109.934531 
L 418.34593 109.923363 
L 419.34593 109.893245 
L 420.34593 109.833468 
L 421.34593 109.796277 
L 422.34593 109.757181 
L 423.34593 109.714741 
L 424.34593 109.681976 
L 425.34593 109.614549 
L 426.34593 109.575424 
L 427.34593 109.532749 
L 428.34593 109.462168 
L 429.34593 109.425778 
L 430.34593 109.367374 
L 431.34593 109.256422 
L 432.34593 109.185763 
L 433.34593 109.072824 
L 434.34593 109.027051 
L 435.34593 108.965768 
L 436.34593 108.917268 
L 437.34593 108.836445 
L 438.34593 108.717927 
L 439.34593 108.647716 
L 440.34593 108.564453 
L 441.34593 108.531312 
L 442.34593 108.480074 
L 443.34593 108.411676 
L 444.34593 108.345461 
L 445.34593 108.268544 
L 446.666182 108.241228 
" clip-path="url(#pef394d298a)" style="fill: none; stroke: #ff7f0e; stroke-opacity: 0.5; stroke-width: 0.2; stroke-linecap: square"/>
   <path d="M 390.34593 216.319639 
L 391.34593 216.351075 
L 392.34593 216.388016 
L 393.34593 216.485762 
L 394.34593 216.518284 
L 395.34593 216.591909 
L 396.34593 216.630474 
L 397.34593 216.665887 
L 398.34593 216.723527 
L 399.34593 216.793913 
L 400.34593 216.845878 
L 401.34593 216.904967 
L 402.34593 216.993288 
L 403.34593 217.039433 
L 404.34593 217.081844 
L 405.34593 217.112336 
L 406.34593 217.138381 
L 407.34593 217.159581 
L 408.34593 217.213882 
L 409.34593 217.24182 
L 410.34593 217.271544 
L 411.34593 217.296939 
L 412.34593 217.308139 
L 413.34593 217.318263 
L 414.34593 217.318059 
L 415.34593 217.308549 
L 416.34593 217.296895 
L 417.34593 217.265866 
L 418.34593 217.254698 
L 419.34593 217.224581 
L 420.34593 217.164804 
L 421.34593 217.127612 
L 422.34593 217.088516 
L 423.34593 217.046076 
L 424.34593 217.013311 
L 425.34593 216.945885 
L 426.34593 216.906759 
L 427.34593 216.864084 
L 428.34593 216.793504 
L 429.34593 216.757113 
L 430.34593 216.69871 
L 431.34593 216.587757 
L 432.34593 216.517099 
L 433.34593 216.404159 
L 434.34593 216.358386 
L 435.34593 216.297103 
L 436.34593 216.248604 
L 437.34593 216.167781 
L 438.34593 216.049262 
L 439.34593 215.979051 
L 440.34593 215.895789 
L 441.34593 215.862647 
L 442.34593 215.81141 
L 443.34593 215.743011 
L 444.34593 215.676796 
L 445.34593 215.599879 
L 446.666182 215.572563 
" clip-path="url(#pef394d298a)" style="fill: none; stroke: #ff7f0e; stroke-opacity: 0.5; stroke-width: 0.2; stroke-linecap: square"/>
   <path d="M 390.34593 207.871786 
L 391.34593 207.903222 
L 392.34593 207.940162 
L 393.34593 208.037909 
L 394.34593 208.070431 
L 395.34593 208.144055 
L 396.34593 208.182621 
L 397.34593 208.218034 
L 398.34593 208.275674 
L 399.34593 208.34606 
L 400.34593 208.398024 
L 401.34593 208.457114 
L 402.34593 208.545435 
L 403.34593 208.591579 
L 404.34593 208.63399 
L 405.34593 208.664483 
L 406.34593 208.690528 
L 407.34593 208.711728 
L 408.34593 208.766029 
L 409.34593 208.793967 
L 410.34593 208.823691 
L 411.34593 208.849085 
L 412.34593 208.860286 
L 413.34593 208.87041 
L 414.34593 208.870205 
L 415.34593 208.860696 
L 416.34593 208.849042 
L 417.34593 208.818013 
L 418.34593 208.806845 
L 419.34593 208.776727 
L 420.34593 208.71695 
L 421.34593 208.679759 
L 422.34593 208.640663 
L 423.34593 208.598223 
L 424.34593 208.565458 
L 425.34593 208.498032 
L 426.34593 208.458906 
L 427.34593 208.416231 
L 428.34593 208.34565 
L 429.34593 208.30926 
L 430.34593 208.250856 
L 431.34593 208.139904 
L 432.34593 208.069246 
L 433.34593 207.956306 
L 434.34593 207.910533 
L 435.34593 207.84925 
L 436.34593 207.80075 
L 437.34593 207.719928 
L 438.34593 207.601409 
L 439.34593 207.531198 
L 440.34593 207.447936 
L 441.34593 207.414794 
L 442.34593 207.363556 
L 443.34593 207.295158 
L 444.34593 207.228943 
L 445.34593 207.152026 
L 446.666182 207.12471 
" clip-path="url(#pef394d298a)" style="fill: none; stroke: #ff7f0e; stroke-opacity: 0.5; stroke-width: 0.2; stroke-linecap: square"/>
   <path d="M 390.34593 133.547993 
L 391.34593 133.579429 
L 392.34593 133.616369 
L 393.34593 133.714116 
L 394.34593 133.746638 
L 395.34593 133.820262 
L 396.34593 133.858828 
L 397.34593 133.894241 
L 398.34593 133.951881 
L 399.34593 134.022267 
L 400.34593 134.074231 
L 401.34593 134.133321 
L 402.34593 134.221642 
L 403.34593 134.267786 
L 404.34593 134.310197 
L 405.34593 134.34069 
L 406.34593 134.366735 
L 407.34593 134.387935 
L 408.34593 134.442236 
L 409.34593 134.470174 
L 410.34593 134.499898 
L 411.34593 134.525292 
L 412.34593 134.536493 
L 413.34593 134.546617 
L 414.34593 134.546413 
L 415.34593 134.536903 
L 416.34593 134.525249 
L 417.34593 134.49422 
L 418.34593 134.483052 
L 419.34593 134.452934 
L 420.34593 134.393157 
L 421.34593 134.355966 
L 422.34593 134.31687 
L 423.34593 134.27443 
L 424.34593 134.241665 
L 425.34593 134.174239 
L 426.34593 134.135113 
L 427.34593 134.092438 
L 428.34593 134.021858 
L 429.34593 133.985467 
L 430.34593 133.927063 
L 431.34593 133.816111 
L 432.34593 133.745453 
L 433.34593 133.632513 
L 434.34593 133.58674 
L 435.34593 133.525457 
L 436.34593 133.476957 
L 437.34593 133.396135 
L 438.34593 133.277616 
L 439.34593 133.207405 
L 440.34593 133.124143 
L 441.34593 133.091001 
L 442.34593 133.039764 
L 443.34593 132.971365 
L 444.34593 132.90515 
L 445.34593 132.828233 
L 446.666182 132.800917 
" clip-path="url(#pef394d298a)" style="fill: none; stroke: #ff7f0e; stroke-opacity: 0.5; stroke-width: 0.2; stroke-linecap: square"/>
   <path d="M 390.34593 289.470962 
L 391.34593 289.502399 
L 392.34593 289.539339 
L 393.34593 289.637086 
L 394.34593 289.669607 
L 395.34593 289.743232 
L 396.34593 289.781798 
L 397.34593 289.817211 
L 398.34593 289.874851 
L 399.34593 289.945237 
L 400.34593 289.997201 
L 401.34593 290.056291 
L 402.34593 290.144612 
L 403.34593 290.190756 
L 404.34593 290.233167 
L 405.34593 290.26366 
L 406.34593 290.289705 
L 407.34593 290.310905 
L 408.34593 290.365206 
L 409.34593 290.393143 
L 410.34593 290.422867 
L 411.34593 290.448262 
L 412.34593 290.459463 
L 413.34593 290.469587 
L 414.34593 290.469382 
L 415.34593 290.459872 
L 416.34593 290.448219 
L 417.34593 290.417189 
L 418.34593 290.406022 
L 419.34593 290.375904 
L 420.34593 290.316127 
L 421.34593 290.278936 
L 422.34593 290.239839 
L 423.34593 290.1974 
L 424.34593 290.164635 
L 425.34593 290.097208 
L 426.34593 290.058082 
L 427.34593 290.015408 
L 428.34593 289.944827 
L 429.34593 289.908436 
L 430.34593 289.850033 
L 431.34593 289.739081 
L 432.34593 289.668422 
L 433.34593 289.555482 
L 434.34593 289.50971 
L 435.34593 289.448426 
L 436.34593 289.399927 
L 437.34593 289.319104 
L 438.34593 289.200585 
L 439.34593 289.130375 
L 440.34593 289.047112 
L 441.34593 289.01397 
L 442.34593 288.962733 
L 443.34593 288.894335 
L 444.34593 288.828119 
L 445.34593 288.751202 
L 446.666182 288.723887 
" clip-path="url(#pef394d298a)" style="fill: none; stroke: #ff7f0e; stroke-opacity: 0.5; stroke-width: 0.2; stroke-linecap: square"/>
   <path d="M 390.34593 155.679587 
L 391.34593 155.711023 
L 392.34593 155.747964 
L 393.34593 155.84571 
L 394.34593 155.878232 
L 395.34593 155.951856 
L 396.34593 155.990422 
L 397.34593 156.025835 
L 398.34593 156.083475 
L 399.34593 156.153861 
L 400.34593 156.205826 
L 401.34593 156.264915 
L 402.34593 156.353236 
L 403.34593 156.399381 
L 404.34593 156.441792 
L 405.34593 156.472284 
L 406.34593 156.498329 
L 407.34593 156.519529 
L 408.34593 156.57383 
L 409.34593 156.601768 
L 410.34593 156.631492 
L 411.34593 156.656887 
L 412.34593 156.668087 
L 413.34593 156.678211 
L 414.34593 156.678007 
L 415.34593 156.668497 
L 416.34593 156.656843 
L 417.34593 156.625814 
L 418.34593 156.614646 
L 419.34593 156.584529 
L 420.34593 156.524752 
L 421.34593 156.48756 
L 422.34593 156.448464 
L 423.34593 156.406024 
L 424.34593 156.373259 
L 425.34593 156.305833 
L 426.34593 156.266707 
L 427.34593 156.224032 
L 428.34593 156.153452 
L 429.34593 156.117061 
L 430.34593 156.058658 
L 431.34593 155.947705 
L 432.34593 155.877047 
L 433.34593 155.764107 
L 434.34593 155.718334 
L 435.34593 155.657051 
L 436.34593 155.608551 
L 437.34593 155.527729 
L 438.34593 155.40921 
L 439.34593 155.338999 
L 440.34593 155.255737 
L 441.34593 155.222595 
L 442.34593 155.171358 
L 443.34593 155.102959 
L 444.34593 155.036744 
L 445.34593 154.959827 
L 446.666182 154.932511 
" clip-path="url(#pef394d298a)" style="fill: none; stroke: #ff7f0e; stroke-opacity: 0.5; stroke-width: 0.2; stroke-linecap: square"/>
   <path d="M 446.666182 71.705664 
L 445.666182 71.674227 
L 444.666182 71.637287 
L 443.666182 71.53954 
L 442.666182 71.507019 
L 441.666182 71.433394 
L 440.666182 71.394828 
L 439.666182 71.359415 
L 438.666182 71.301775 
L 437.666182 71.231389 
L 436.666182 71.179425 
L 435.666182 71.120335 
L 434.666182 71.032014 
L 433.666182 70.98587 
L 432.666182 70.943459 
L 431.666182 70.912966 
L 430.666182 70.886921 
L 429.666182 70.865721 
L 428.666182 70.81142 
L 427.666182 70.783483 
L 426.666182 70.753759 
L 425.666182 70.728364 
L 424.666182 70.717163 
L 423.666182 70.707039 
L 422.666182 70.707244 
L 421.666182 70.716754 
L 420.666182 70.728407 
L 419.666182 70.759437 
L 418.666182 70.770604 
L 417.666182 70.800722 
L 416.666182 70.860499 
L 415.666182 70.89769 
L 414.666182 70.936787 
L 413.666182 70.979226 
L 412.666182 71.011991 
L 411.666182 71.079418 
L 410.666182 71.118544 
L 409.666182 71.161218 
L 408.666182 71.231799 
L 407.666182 71.26819 
L 406.666182 71.326593 
L 405.666182 71.437545 
L 404.666182 71.508204 
L 403.666182 71.621144 
L 402.666182 71.666916 
L 401.666182 71.7282 
L 400.666182 71.776699 
L 399.666182 71.857522 
L 398.666182 71.976041 
L 397.666182 72.046251 
L 396.666182 72.129514 
L 395.666182 72.162655 
L 394.666182 72.213893 
L 393.666182 72.282291 
L 392.666182 72.348507 
L 391.666182 72.425424 
L 390.34593 72.452739 
" clip-path="url(#pef394d298a)" style="fill: none; stroke: #2ca02c; stroke-opacity: 0.5; stroke-width: 0.2; stroke-linecap: square"/>
   <path d="M 446.666182 178.373533 
L 445.666182 178.342097 
L 444.666182 178.305156 
L 443.666182 178.20741 
L 442.666182 178.174888 
L 441.666182 178.101264 
L 440.666182 178.062698 
L 439.666182 178.027285 
L 438.666182 177.969645 
L 437.666182 177.899259 
L 436.666182 177.847295 
L 435.666182 177.788205 
L 434.666182 177.699884 
L 433.666182 177.65374 
L 432.666182 177.611329 
L 431.666182 177.580836 
L 430.666182 177.554791 
L 429.666182 177.533591 
L 428.666182 177.47929 
L 427.666182 177.451352 
L 426.666182 177.421628 
L 425.666182 177.396233 
L 424.666182 177.385033 
L 423.666182 177.374909 
L 422.666182 177.375113 
L 421.666182 177.384623 
L 420.666182 177.396277 
L 419.666182 177.427306 
L 418.666182 177.438474 
L 417.666182 177.468592 
L 416.666182 177.528369 
L 415.666182 177.56556 
L 414.666182 177.604656 
L 413.666182 177.647096 
L 412.666182 177.679861 
L 411.666182 177.747287 
L 410.666182 177.786413 
L 409.666182 177.829088 
L 408.666182 177.899668 
L 407.666182 177.936059 
L 406.666182 177.994462 
L 405.666182 178.105415 
L 404.666182 178.176073 
L 403.666182 178.289013 
L 402.666182 178.334786 
L 401.666182 178.396069 
L 400.666182 178.444569 
L 399.666182 178.525391 
L 398.666182 178.64391 
L 397.666182 178.714121 
L 396.666182 178.797383 
L 395.666182 178.830525 
L 394.666182 178.881762 
L 393.666182 178.950161 
L 392.666182 179.016376 
L 391.666182 179.093293 
L 390.34593 179.120609 
" clip-path="url(#pef394d298a)" style="fill: none; stroke: #2ca02c; stroke-opacity: 0.5; stroke-width: 0.2; stroke-linecap: square"/>
   <path d="M 446.666182 213.49455 
L 445.666182 213.463114 
L 444.666182 213.426173 
L 443.666182 213.328427 
L 442.666182 213.295905 
L 441.666182 213.222281 
L 440.666182 213.183715 
L 439.666182 213.148302 
L 438.666182 213.090662 
L 437.666182 213.020276 
L 436.666182 212.968312 
L 435.666182 212.909222 
L 434.666182 212.820901 
L 433.666182 212.774756 
L 432.666182 212.732346 
L 431.666182 212.701853 
L 430.666182 212.675808 
L 429.666182 212.654608 
L 428.666182 212.600307 
L 427.666182 212.572369 
L 426.666182 212.542645 
L 425.666182 212.51725 
L 424.666182 212.50605 
L 423.666182 212.495926 
L 422.666182 212.49613 
L 421.666182 212.50564 
L 420.666182 212.517294 
L 419.666182 212.548323 
L 418.666182 212.559491 
L 417.666182 212.589609 
L 416.666182 212.649385 
L 415.666182 212.686577 
L 414.666182 212.725673 
L 413.666182 212.768113 
L 412.666182 212.800878 
L 411.666182 212.868304 
L 410.666182 212.90743 
L 409.666182 212.950105 
L 408.666182 213.020685 
L 407.666182 213.057076 
L 406.666182 213.115479 
L 405.666182 213.226432 
L 404.666182 213.29709 
L 403.666182 213.41003 
L 402.666182 213.455803 
L 401.666182 213.517086 
L 400.666182 213.565586 
L 399.666182 213.646408 
L 398.666182 213.764927 
L 397.666182 213.835138 
L 396.666182 213.9184 
L 395.666182 213.951542 
L 394.666182 214.002779 
L 393.666182 214.071178 
L 392.666182 214.137393 
L 391.666182 214.21431 
L 390.34593 214.241626 
" clip-path="url(#pef394d298a)" style="fill: none; stroke: #2ca02c; stroke-opacity: 0.5; stroke-width: 0.2; stroke-linecap: square"/>
   <path d="M 446.666182 173.258216 
L 445.666182 173.226779 
L 444.666182 173.189839 
L 443.666182 173.092092 
L 442.666182 173.059571 
L 441.666182 172.985946 
L 440.666182 172.947381 
L 439.666182 172.911967 
L 438.666182 172.854328 
L 437.666182 172.783941 
L 436.666182 172.731977 
L 435.666182 172.672887 
L 434.666182 172.584566 
L 433.666182 172.538422 
L 432.666182 172.496011 
L 431.666182 172.465518 
L 430.666182 172.439474 
L 429.666182 172.418273 
L 428.666182 172.363972 
L 427.666182 172.336035 
L 426.666182 172.306311 
L 425.666182 172.280916 
L 424.666182 172.269716 
L 423.666182 172.259592 
L 422.666182 172.259796 
L 421.666182 172.269306 
L 420.666182 172.280959 
L 419.666182 172.311989 
L 418.666182 172.323157 
L 417.666182 172.353274 
L 416.666182 172.413051 
L 415.666182 172.450243 
L 414.666182 172.489339 
L 413.666182 172.531778 
L 412.666182 172.564543 
L 411.666182 172.63197 
L 410.666182 172.671096 
L 409.666182 172.71377 
L 408.666182 172.784351 
L 407.666182 172.820742 
L 406.666182 172.879145 
L 405.666182 172.990098 
L 404.666182 173.060756 
L 403.666182 173.173696 
L 402.666182 173.219469 
L 401.666182 173.280752 
L 400.666182 173.329251 
L 399.666182 173.410074 
L 398.666182 173.528593 
L 397.666182 173.598803 
L 396.666182 173.682066 
L 395.666182 173.715208 
L 394.666182 173.766445 
L 393.666182 173.834843 
L 392.666182 173.901059 
L 391.666182 173.977976 
L 390.34593 174.005291 
" clip-path="url(#pef394d298a)" style="fill: none; stroke: #2ca02c; stroke-opacity: 0.5; stroke-width: 0.2; stroke-linecap: square"/>
   <path d="M 446.666182 271.716751 
L 445.666182 271.685315 
L 444.666182 271.648374 
L 443.666182 271.550628 
L 442.666182 271.518106 
L 441.666182 271.444481 
L 440.666182 271.405916 
L 439.666182 271.370503 
L 438.666182 271.312863 
L 437.666182 271.242477 
L 436.666182 271.190512 
L 435.666182 271.131423 
L 434.666182 271.043102 
L 433.666182 270.996957 
L 432.666182 270.954546 
L 431.666182 270.924054 
L 430.666182 270.898009 
L 429.666182 270.876809 
L 428.666182 270.822508 
L 427.666182 270.79457 
L 426.666182 270.764846 
L 425.666182 270.739451 
L 424.666182 270.728251 
L 423.666182 270.718127 
L 422.666182 270.718331 
L 421.666182 270.727841 
L 420.666182 270.739495 
L 419.666182 270.770524 
L 418.666182 270.781692 
L 417.666182 270.811809 
L 416.666182 270.871586 
L 415.666182 270.908778 
L 414.666182 270.947874 
L 413.666182 270.990314 
L 412.666182 271.023079 
L 411.666182 271.090505 
L 410.666182 271.129631 
L 409.666182 271.172306 
L 408.666182 271.242886 
L 407.666182 271.279277 
L 406.666182 271.33768 
L 405.666182 271.448633 
L 404.666182 271.519291 
L 403.666182 271.632231 
L 402.666182 271.678004 
L 401.666182 271.739287 
L 400.666182 271.787786 
L 399.666182 271.868609 
L 398.666182 271.987128 
L 397.666182 272.057339 
L 396.666182 272.140601 
L 395.666182 272.173743 
L 394.666182 272.22498 
L 393.666182 272.293379 
L 392.666182 272.359594 
L 391.666182 272.436511 
L 390.34593 272.463827 
" clip-path="url(#pef394d298a)" style="fill: none; stroke: #2ca02c; stroke-opacity: 0.5; stroke-width: 0.2; stroke-linecap: square"/>
   <path d="M 446.666182 29.181104 
L 445.666182 29.149667 
L 444.666182 29.112727 
L 443.666182 29.014981 
L 442.666182 28.982459 
L 441.666182 28.908834 
L 440.666182 28.870269 
L 439.666182 28.834856 
L 438.666182 28.777216 
L 437.666182 28.706829 
L 436.666182 28.654865 
L 435.666182 28.595775 
L 434.666182 28.507454 
L 433.666182 28.46131 
L 432.666182 28.418899 
L 431.666182 28.388407 
L 430.666182 28.362362 
L 429.666182 28.341162 
L 428.666182 28.28686 
L 427.666182 28.258923 
L 426.666182 28.229199 
L 425.666182 28.203804 
L 424.666182 28.192604 
L 423.666182 28.18248 
L 422.666182 28.182684 
L 421.666182 28.192194 
L 420.666182 28.203848 
L 419.666182 28.234877 
L 418.666182 28.246045 
L 417.666182 28.276162 
L 416.666182 28.335939 
L 415.666182 28.373131 
L 414.666182 28.412227 
L 413.666182 28.454666 
L 412.666182 28.487432 
L 411.666182 28.554858 
L 410.666182 28.593984 
L 409.666182 28.636658 
L 408.666182 28.707239 
L 407.666182 28.74363 
L 406.666182 28.802033 
L 405.666182 28.912986 
L 404.666182 28.983644 
L 403.666182 29.096584 
L 402.666182 29.142357 
L 401.666182 29.20364 
L 400.666182 29.252139 
L 399.666182 29.332962 
L 398.666182 29.451481 
L 397.666182 29.521692 
L 396.666182 29.604954 
L 395.666182 29.638096 
L 394.666182 29.689333 
L 393.666182 29.757731 
L 392.666182 29.823947 
L 391.666182 29.900864 
L 390.34593 29.928179 
" clip-path="url(#pef394d298a)" style="fill: none; stroke: #2ca02c; stroke-opacity: 0.5; stroke-width: 0.2; stroke-linecap: square"/>
   <path d="M 446.666182 248.760976 
L 445.666182 248.729539 
L 444.666182 248.692599 
L 443.666182 248.594852 
L 442.666182 248.562331 
L 441.666182 248.488706 
L 440.666182 248.450141 
L 439.666182 248.414727 
L 438.666182 248.357088 
L 437.666182 248.286701 
L 436.666182 248.234737 
L 435.666182 248.175647 
L 434.666182 248.087326 
L 433.666182 248.041182 
L 432.666182 247.998771 
L 431.666182 247.968278 
L 430.666182 247.942234 
L 429.666182 247.921033 
L 428.666182 247.866732 
L 427.666182 247.838795 
L 426.666182 247.809071 
L 425.666182 247.783676 
L 424.666182 247.772476 
L 423.666182 247.762352 
L 422.666182 247.762556 
L 421.666182 247.772066 
L 420.666182 247.783719 
L 419.666182 247.814749 
L 418.666182 247.825917 
L 417.666182 247.856034 
L 416.666182 247.915811 
L 415.666182 247.953003 
L 414.666182 247.992099 
L 413.666182 248.034538 
L 412.666182 248.067303 
L 411.666182 248.13473 
L 410.666182 248.173856 
L 409.666182 248.21653 
L 408.666182 248.287111 
L 407.666182 248.323502 
L 406.666182 248.381905 
L 405.666182 248.492858 
L 404.666182 248.563516 
L 403.666182 248.676456 
L 402.666182 248.722229 
L 401.666182 248.783512 
L 400.666182 248.832011 
L 399.666182 248.912834 
L 398.666182 249.031353 
L 397.666182 249.101563 
L 396.666182 249.184826 
L 395.666182 249.217968 
L 394.666182 249.269205 
L 393.666182 249.337603 
L 392.666182 249.403819 
L 391.666182 249.480736 
L 390.34593 249.508051 
" clip-path="url(#pef394d298a)" style="fill: none; stroke: #2ca02c; stroke-opacity: 0.5; stroke-width: 0.2; stroke-linecap: square"/>
   <path d="M 446.666182 238.980789 
L 445.666182 238.949352 
L 444.666182 238.912412 
L 443.666182 238.814665 
L 442.666182 238.782144 
L 441.666182 238.708519 
L 440.666182 238.669954 
L 439.666182 238.63454 
L 438.666182 238.5769 
L 437.666182 238.506514 
L 436.666182 238.45455 
L 435.666182 238.39546 
L 434.666182 238.307139 
L 433.666182 238.260995 
L 432.666182 238.218584 
L 431.666182 238.188091 
L 430.666182 238.162046 
L 429.666182 238.140846 
L 428.666182 238.086545 
L 427.666182 238.058608 
L 426.666182 238.028884 
L 425.666182 238.003489 
L 424.666182 237.992289 
L 423.666182 237.982165 
L 422.666182 237.982369 
L 421.666182 237.991879 
L 420.666182 238.003532 
L 419.666182 238.034562 
L 418.666182 238.04573 
L 417.666182 238.075847 
L 416.666182 238.135624 
L 415.666182 238.172816 
L 414.666182 238.211912 
L 413.666182 238.254351 
L 412.666182 238.287116 
L 411.666182 238.354543 
L 410.666182 238.393669 
L 409.666182 238.436343 
L 408.666182 238.506924 
L 407.666182 238.543315 
L 406.666182 238.601718 
L 405.666182 238.712671 
L 404.666182 238.783329 
L 403.666182 238.896269 
L 402.666182 238.942042 
L 401.666182 239.003325 
L 400.666182 239.051824 
L 399.666182 239.132647 
L 398.666182 239.251166 
L 397.666182 239.321376 
L 396.666182 239.404639 
L 395.666182 239.437781 
L 394.666182 239.489018 
L 393.666182 239.557416 
L 392.666182 239.623632 
L 391.666182 239.700549 
L 390.34593 239.727864 
" clip-path="url(#pef394d298a)" style="fill: none; stroke: #2ca02c; stroke-opacity: 0.5; stroke-width: 0.2; stroke-linecap: square"/>
   <path d="M 446.666182 214.434358 
L 445.666182 214.402921 
L 444.666182 214.365981 
L 443.666182 214.268235 
L 442.666182 214.235713 
L 441.666182 214.162088 
L 440.666182 214.123523 
L 439.666182 214.08811 
L 438.666182 214.03047 
L 437.666182 213.960083 
L 436.666182 213.908119 
L 435.666182 213.849029 
L 434.666182 213.760708 
L 433.666182 213.714564 
L 432.666182 213.672153 
L 431.666182 213.641661 
L 430.666182 213.615616 
L 429.666182 213.594416 
L 428.666182 213.540114 
L 427.666182 213.512177 
L 426.666182 213.482453 
L 425.666182 213.457058 
L 424.666182 213.445858 
L 423.666182 213.435734 
L 422.666182 213.435938 
L 421.666182 213.445448 
L 420.666182 213.457101 
L 419.666182 213.488131 
L 418.666182 213.499299 
L 417.666182 213.529416 
L 416.666182 213.589193 
L 415.666182 213.626385 
L 414.666182 213.665481 
L 413.666182 213.70792 
L 412.666182 213.740686 
L 411.666182 213.808112 
L 410.666182 213.847238 
L 409.666182 213.889912 
L 408.666182 213.960493 
L 407.666182 213.996884 
L 406.666182 214.055287 
L 405.666182 214.16624 
L 404.666182 214.236898 
L 403.666182 214.349838 
L 402.666182 214.395611 
L 401.666182 214.456894 
L 400.666182 214.505393 
L 399.666182 214.586216 
L 398.666182 214.704735 
L 397.666182 214.774945 
L 396.666182 214.858208 
L 395.666182 214.89135 
L 394.666182 214.942587 
L 393.666182 215.010985 
L 392.666182 215.077201 
L 391.666182 215.154118 
L 390.34593 215.181433 
" clip-path="url(#pef394d298a)" style="fill: none; stroke: #2ca02c; stroke-opacity: 0.5; stroke-width: 0.2; stroke-linecap: square"/>
   <path d="M 446.666182 81.061205 
L 445.666182 81.029769 
L 444.666182 80.992828 
L 443.666182 80.895082 
L 442.666182 80.86256 
L 441.666182 80.788935 
L 440.666182 80.75037 
L 439.666182 80.714957 
L 438.666182 80.657317 
L 437.666182 80.58693 
L 436.666182 80.534966 
L 435.666182 80.475876 
L 434.666182 80.387556 
L 433.666182 80.341411 
L 432.666182 80.299 
L 431.666182 80.268508 
L 430.666182 80.242463 
L 429.666182 80.221263 
L 428.666182 80.166961 
L 427.666182 80.139024 
L 426.666182 80.1093 
L 425.666182 80.083905 
L 424.666182 80.072705 
L 423.666182 80.062581 
L 422.666182 80.062785 
L 421.666182 80.072295 
L 420.666182 80.083949 
L 419.666182 80.114978 
L 418.666182 80.126146 
L 417.666182 80.156263 
L 416.666182 80.21604 
L 415.666182 80.253232 
L 414.666182 80.292328 
L 413.666182 80.334767 
L 412.666182 80.367533 
L 411.666182 80.434959 
L 410.666182 80.474085 
L 409.666182 80.516759 
L 408.666182 80.58734 
L 407.666182 80.623731 
L 406.666182 80.682134 
L 405.666182 80.793087 
L 404.666182 80.863745 
L 403.666182 80.976685 
L 402.666182 81.022458 
L 401.666182 81.083741 
L 400.666182 81.13224 
L 399.666182 81.213063 
L 398.666182 81.331582 
L 397.666182 81.401793 
L 396.666182 81.485055 
L 395.666182 81.518197 
L 394.666182 81.569434 
L 393.666182 81.637832 
L 392.666182 81.704048 
L 391.666182 81.780965 
L 390.34593 81.80828 
" clip-path="url(#pef394d298a)" style="fill: none; stroke: #2ca02c; stroke-opacity: 0.5; stroke-width: 0.2; stroke-linecap: square"/>
   <g id="patch_3">
    <path d="M 72.103551 22.318125 
L 72.103551 318.021875 
M 194.769099 22.318125 
L 194.769099 318.021875 
" clip-path="url(#pef394d298a)" style="fill: none; stroke: #ffffff; stroke-width: 3; stroke-linejoin: miter"/>
    <path d="M 72.103551 22.318125 
L 72.103551 318.021875 
M 194.769099 22.318125 
L 194.769099 318.021875 
" clip-path="url(#pef394d298a)" style="fill: none; stroke: #1f77b4; stroke-linejoin: miter"/>
    <g id="PolyCollection_1">
     <path d="M 194.769099 22.318125 
L 72.103551 22.318125 
L 72.103551 318.021875 
L 194.769099 318.021875 
L 194.769099 318.021875 
L 194.769099 22.318125 
z
" clip-path="url(#pef394d298a)" style="fill: #1f77b4; fill-opacity: 0.5"/>
    </g>
    <g id="patch_4">
     <path d="M 262.150038 22.318125 
L 262.150038 318.021875 
M 384.815587 22.318125 
L 384.815587 318.021875 
" clip-path="url(#pef394d298a)" style="fill: none; stroke: #ffffff; stroke-width: 3; stroke-linejoin: miter"/>
     <path d="M 262.150038 22.318125 
L 262.150038 318.021875 
M 384.815587 22.318125 
L 384.815587 318.021875 
" clip-path="url(#pef394d298a)" style="fill: none; stroke: #ff7f0e; stroke-linejoin: miter"/>
     <g id="PolyCollection_2">
      <path d="M 384.815587 22.318125 
L 262.150038 22.318125 
L 262.150038 318.021875 
L 384.815587 318.021875 
L 384.815587 318.021875 
L 384.815587 22.318125 
z
" clip-path="url(#pef394d298a)" style="fill: #ff7f0e; fill-opacity: 0.5"/>
     </g>
     <g id="patch_5">
      <path d="M 452.196526 22.318125 
L 452.196526 318.021875 
M 574.862074 22.318125 
L 574.862074 318.021875 
" clip-path="url(#pef394d298a)" style="fill: none; stroke: #ffffff; stroke-width: 3; stroke-linejoin: miter"/>
      <path d="M 452.196526 22.318125 
L 452.196526 318.021875 
M 574.862074 22.318125 
L 574.862074 318.021875 
" clip-path="url(#pef394d298a)" style="fill: none; stroke: #2ca02c; stroke-linejoin: miter"/>
      <g id="PolyCollection_3">
       <path d="M 574.862074 22.318125 
L 452.196526 22.318125 
L 452.196526 318.021875 
L 574.862074 318.021875 
L 574.862074 318.021875 
L 574.862074 22.318125 
z
" clip-path="url(#pef394d298a)" style="fill: #2ca02c; fill-opacity: 0.5"/>
      </g>
      <g id="matplotlib.axis_1">
       <g id="xtick_1">
        <g id="line2d_1"/>
        <g id="text_1">
         <!-- deme1 -->
         <g transform="translate(116.057419 329.120312) scale(0.1 -0.1)">
          <defs>
           <path id="DejaVuSans-64" d="M 2906 2969 
L 2906 4863 
L 3481 4863 
L 3481 0 
L 2906 0 
L 2906 525 
Q 2725 213 2448 61 
Q 2172 -91 1784 -91 
Q 1150 -91 751 415 
Q 353 922 353 1747 
Q 353 2572 751 3078 
Q 1150 3584 1784 3584 
Q 2172 3584 2448 3432 
Q 2725 3281 2906 2969 
z
M 947 1747 
Q 947 1113 1208 752 
Q 1469 391 1925 391 
Q 2381 391 2643 752 
Q 2906 1113 2906 1747 
Q 2906 2381 2643 2742 
Q 2381 3103 1925 3103 
Q 1469 3103 1208 2742 
Q 947 2381 947 1747 
z
" transform="scale(0.015625)"/>
           <path id="DejaVuSans-65" d="M 3597 1894 
L 3597 1613 
L 953 1613 
Q 991 1019 1311 708 
Q 1631 397 2203 397 
Q 2534 397 2845 478 
Q 3156 559 3463 722 
L 3463 178 
Q 3153 47 2828 -22 
Q 2503 -91 2169 -91 
Q 1331 -91 842 396 
Q 353 884 353 1716 
Q 353 2575 817 3079 
Q 1281 3584 2069 3584 
Q 2775 3584 3186 3129 
Q 3597 2675 3597 1894 
z
M 3022 2063 
Q 3016 2534 2758 2815 
Q 2500 3097 2075 3097 
Q 1594 3097 1305 2825 
Q 1016 2553 972 2059 
L 3022 2063 
z
" transform="scale(0.015625)"/>
           <path id="DejaVuSans-6d" d="M 3328 2828 
Q 3544 3216 3844 3400 
Q 4144 3584 4550 3584 
Q 5097 3584 5394 3201 
Q 5691 2819 5691 2113 
L 5691 0 
L 5113 0 
L 5113 2094 
Q 5113 2597 4934 2840 
Q 4756 3084 4391 3084 
Q 3944 3084 3684 2787 
Q 3425 2491 3425 1978 
L 3425 0 
L 2847 0 
L 2847 2094 
Q 2847 2600 2669 2842 
Q 2491 3084 2119 3084 
Q 1678 3084 1418 2786 
Q 1159 2488 1159 1978 
L 1159 0 
L 581 0 
L 581 3500 
L 1159 3500 
L 1159 2956 
Q 1356 3278 1631 3431 
Q 1906 3584 2284 3584 
Q 2666 3584 2933 3390 
Q 3200 3197 3328 2828 
z
" transform="scale(0.015625)"/>
           <path id="DejaVuSans-31" d="M 794 531 
L 1825 531 
L 1825 4091 
L 703 3866 
L 703 4441 
L 1819 4666 
L 2450 4666 
L 2450 531 
L 3481 531 
L 3481 0 
L 794 0 
L 794 531 
z
" transform="scale(0.015625)"/>
          </defs>
          <use xlink:href="#DejaVuSans-64"/>
          <use xlink:href="#DejaVuSans-65" x="63.476562"/>
          <use xlink:href="#DejaVuSans-6d" x="125"/>
          <use xlink:href="#DejaVuSans-65" x="222.412109"/>
          <use xlink:href="#DejaVuSans-31" x="283.935547"/>
         </g>
        </g>
       </g>
       <g id="xtick_2">
        <g id="line2d_2"/>
        <g id="text_2">
         <!-- deme2 -->
         <g transform="translate(306.103906 329.120312) scale(0.1 -0.1)">
          <defs>
           <path id="DejaVuSans-32" d="M 1228 531 
L 3431 531 
L 3431 0 
L 469 0 
L 469 531 
Q 828 903 1448 1529 
Q 2069 2156 2228 2338 
Q 2531 2678 2651 2914 
Q 2772 3150 2772 3378 
Q 2772 3750 2511 3984 
Q 2250 4219 1831 4219 
Q 1534 4219 1204 4116 
Q 875 4013 500 3803 
L 500 4441 
Q 881 4594 1212 4672 
Q 1544 4750 1819 4750 
Q 2544 4750 2975 4387 
Q 3406 4025 3406 3419 
Q 3406 3131 3298 2873 
Q 3191 2616 2906 2266 
Q 2828 2175 2409 1742 
Q 1991 1309 1228 531 
z
" transform="scale(0.015625)"/>
          </defs>
          <use xlink:href="#DejaVuSans-64"/>
          <use xlink:href="#DejaVuSans-65" x="63.476562"/>
          <use xlink:href="#DejaVuSans-6d" x="125"/>
          <use xlink:href="#DejaVuSans-65" x="222.412109"/>
          <use xlink:href="#DejaVuSans-32" x="283.935547"/>
         </g>
        </g>
       </g>
       <g id="xtick_3">
        <g id="line2d_3"/>
        <g id="text_3">
         <!-- deme3 -->
         <g transform="translate(496.150394 329.120312) scale(0.1 -0.1)">
          <defs>
           <path id="DejaVuSans-33" d="M 2597 2516 
Q 3050 2419 3304 2112 
Q 3559 1806 3559 1356 
Q 3559 666 3084 287 
Q 2609 -91 1734 -91 
Q 1441 -91 1130 -33 
Q 819 25 488 141 
L 488 750 
Q 750 597 1062 519 
Q 1375 441 1716 441 
Q 2309 441 2620 675 
Q 2931 909 2931 1356 
Q 2931 1769 2642 2001 
Q 2353 2234 1838 2234 
L 1294 2234 
L 1294 2753 
L 1863 2753 
Q 2328 2753 2575 2939 
Q 2822 3125 2822 3475 
Q 2822 3834 2567 4026 
Q 2313 4219 1838 4219 
Q 1578 4219 1281 4162 
Q 984 4106 628 3988 
L 628 4550 
Q 988 4650 1302 4700 
Q 1616 4750 1894 4750 
Q 2613 4750 3031 4423 
Q 3450 4097 3450 3541 
Q 3450 3153 3228 2886 
Q 3006 2619 2597 2516 
z
" transform="scale(0.015625)"/>
          </defs>
          <use xlink:href="#DejaVuSans-64"/>
          <use xlink:href="#DejaVuSans-65" x="63.476562"/>
          <use xlink:href="#DejaVuSans-6d" x="125"/>
          <use xlink:href="#DejaVuSans-65" x="222.412109"/>
          <use xlink:href="#DejaVuSans-33" x="283.935547"/>
         </g>
        </g>
       </g>
      </g>
      <g id="matplotlib.axis_2">
       <g id="ytick_1">
        <g id="line2d_4">
         <defs>
          <path id="mc0521eb171" d="M 0 0 
L -3.5 0 
" style="stroke: #000000; stroke-width: 0.8"/>
         </defs>
         <g>
          <use xlink:href="#mc0521eb171" x="46.965625" y="318.021875" style="stroke: #000000; stroke-width: 0.8"/>
         </g>
        </g>
        <g id="text_4">
         <!-- 0 -->
         <g transform="translate(33.603125 321.821094) scale(0.1 -0.1)">
          <defs>
           <path id="DejaVuSans-30" d="M 2034 4250 
Q 1547 4250 1301 3770 
Q 1056 3291 1056 2328 
Q 1056 1369 1301 889 
Q 1547 409 2034 409 
Q 2525 409 2770 889 
Q 3016 1369 3016 2328 
Q 3016 3291 2770 3770 
Q 2525 4250 2034 4250 
z
M 2034 4750 
Q 2819 4750 3233 4129 
Q 3647 3509 3647 2328 
Q 3647 1150 3233 529 
Q 2819 -91 2034 -91 
Q 1250 -91 836 529 
Q 422 1150 422 2328 
Q 422 3509 836 4129 
Q 1250 4750 2034 4750 
z
" transform="scale(0.015625)"/>
          </defs>
          <use xlink:href="#DejaVuSans-30"/>
         </g>
        </g>
       </g>
       <g id="ytick_2">
        <g id="line2d_5">
         <g>
          <use xlink:href="#mc0521eb171" x="46.965625" y="265.684928" style="stroke: #000000; stroke-width: 0.8"/>
         </g>
        </g>
        <g id="text_5">
         <!-- 20 -->
         <g transform="translate(27.240625 269.484147) scale(0.1 -0.1)">
          <use xlink:href="#DejaVuSans-32"/>
          <use xlink:href="#DejaVuSans-30" x="63.623047"/>
         </g>
        </g>
       </g>
       <g id="ytick_3">
        <g id="line2d_6">
         <g>
          <use xlink:href="#mc0521eb171" x="46.965625" y="213.347981" style="stroke: #000000; stroke-width: 0.8"/>
         </g>
        </g>
        <g id="text_6">
         <!-- 40 -->
         <g transform="translate(27.240625 217.1472) scale(0.1 -0.1)">
          <defs>
           <path id="DejaVuSans-34" d="M 2419 4116 
L 825 1625 
L 2419 1625 
L 2419 4116 
z
M 2253 4666 
L 3047 4666 
L 3047 1625 
L 3713 1625 
L 3713 1100 
L 3047 1100 
L 3047 0 
L 2419 0 
L 2419 1100 
L 313 1100 
L 313 1709 
L 2253 4666 
z
" transform="scale(0.015625)"/>
          </defs>
          <use xlink:href="#DejaVuSans-34"/>
          <use xlink:href="#DejaVuSans-30" x="63.623047"/>
         </g>
        </g>
       </g>
       <g id="ytick_4">
        <g id="line2d_7">
         <g>
          <use xlink:href="#mc0521eb171" x="46.965625" y="161.011034" style="stroke: #000000; stroke-width: 0.8"/>
         </g>
        </g>
        <g id="text_7">
         <!-- 60 -->
         <g transform="translate(27.240625 164.810253) scale(0.1 -0.1)">
          <defs>
           <path id="DejaVuSans-36" d="M 2113 2584 
Q 1688 2584 1439 2293 
Q 1191 2003 1191 1497 
Q 1191 994 1439 701 
Q 1688 409 2113 409 
Q 2538 409 2786 701 
Q 3034 994 3034 1497 
Q 3034 2003 2786 2293 
Q 2538 2584 2113 2584 
z
M 3366 4563 
L 3366 3988 
Q 3128 4100 2886 4159 
Q 2644 4219 2406 4219 
Q 1781 4219 1451 3797 
Q 1122 3375 1075 2522 
Q 1259 2794 1537 2939 
Q 1816 3084 2150 3084 
Q 2853 3084 3261 2657 
Q 3669 2231 3669 1497 
Q 3669 778 3244 343 
Q 2819 -91 2113 -91 
Q 1303 -91 875 529 
Q 447 1150 447 2328 
Q 447 3434 972 4092 
Q 1497 4750 2381 4750 
Q 2619 4750 2861 4703 
Q 3103 4656 3366 4563 
z
" transform="scale(0.015625)"/>
          </defs>
          <use xlink:href="#DejaVuSans-36"/>
          <use xlink:href="#DejaVuSans-30" x="63.623047"/>
         </g>
        </g>
       </g>
       <g id="ytick_5">
        <g id="line2d_8">
         <g>
          <use xlink:href="#mc0521eb171" x="46.965625" y="108.674087" style="stroke: #000000; stroke-width: 0.8"/>
         </g>
        </g>
        <g id="text_8">
         <!-- 80 -->
         <g transform="translate(27.240625 112.473306) scale(0.1 -0.1)">
          <defs>
           <path id="DejaVuSans-38" d="M 2034 2216 
Q 1584 2216 1326 1975 
Q 1069 1734 1069 1313 
Q 1069 891 1326 650 
Q 1584 409 2034 409 
Q 2484 409 2743 651 
Q 3003 894 3003 1313 
Q 3003 1734 2745 1975 
Q 2488 2216 2034 2216 
z
M 1403 2484 
Q 997 2584 770 2862 
Q 544 3141 544 3541 
Q 544 4100 942 4425 
Q 1341 4750 2034 4750 
Q 2731 4750 3128 4425 
Q 3525 4100 3525 3541 
Q 3525 3141 3298 2862 
Q 3072 2584 2669 2484 
Q 3125 2378 3379 2068 
Q 3634 1759 3634 1313 
Q 3634 634 3220 271 
Q 2806 -91 2034 -91 
Q 1263 -91 848 271 
Q 434 634 434 1313 
Q 434 1759 690 2068 
Q 947 2378 1403 2484 
z
M 1172 3481 
Q 1172 3119 1398 2916 
Q 1625 2713 2034 2713 
Q 2441 2713 2670 2916 
Q 2900 3119 2900 3481 
Q 2900 3844 2670 4047 
Q 2441 4250 2034 4250 
Q 1625 4250 1398 4047 
Q 1172 3844 1172 3481 
z
" transform="scale(0.015625)"/>
          </defs>
          <use xlink:href="#DejaVuSans-38"/>
          <use xlink:href="#DejaVuSans-30" x="63.623047"/>
         </g>
        </g>
       </g>
       <g id="ytick_6">
        <g id="line2d_9">
         <g>
          <use xlink:href="#mc0521eb171" x="46.965625" y="56.33714" style="stroke: #000000; stroke-width: 0.8"/>
         </g>
        </g>
        <g id="text_9">
         <!-- 100 -->
         <g transform="translate(20.878125 60.136359) scale(0.1 -0.1)">
          <use xlink:href="#DejaVuSans-31"/>
          <use xlink:href="#DejaVuSans-30" x="63.623047"/>
          <use xlink:href="#DejaVuSans-30" x="127.246094"/>
         </g>
        </g>
       </g>
       <g id="text_10">
        <!-- time ago (years) -->
        <g transform="translate(14.798437 211.603594) rotate(-90) scale(0.1 -0.1)">
         <defs>
          <path id="DejaVuSans-74" d="M 1172 4494 
L 1172 3500 
L 2356 3500 
L 2356 3053 
L 1172 3053 
L 1172 1153 
Q 1172 725 1289 603 
Q 1406 481 1766 481 
L 2356 481 
L 2356 0 
L 1766 0 
Q 1100 0 847 248 
Q 594 497 594 1153 
L 594 3053 
L 172 3053 
L 172 3500 
L 594 3500 
L 594 4494 
L 1172 4494 
z
" transform="scale(0.015625)"/>
          <path id="DejaVuSans-69" d="M 603 3500 
L 1178 3500 
L 1178 0 
L 603 0 
L 603 3500 
z
M 603 4863 
L 1178 4863 
L 1178 4134 
L 603 4134 
L 603 4863 
z
" transform="scale(0.015625)"/>
          <path id="DejaVuSans-20" transform="scale(0.015625)"/>
          <path id="DejaVuSans-61" d="M 2194 1759 
Q 1497 1759 1228 1600 
Q 959 1441 959 1056 
Q 959 750 1161 570 
Q 1363 391 1709 391 
Q 2188 391 2477 730 
Q 2766 1069 2766 1631 
L 2766 1759 
L 2194 1759 
z
M 3341 1997 
L 3341 0 
L 2766 0 
L 2766 531 
Q 2569 213 2275 61 
Q 1981 -91 1556 -91 
Q 1019 -91 701 211 
Q 384 513 384 1019 
Q 384 1609 779 1909 
Q 1175 2209 1959 2209 
L 2766 2209 
L 2766 2266 
Q 2766 2663 2505 2880 
Q 2244 3097 1772 3097 
Q 1472 3097 1187 3025 
Q 903 2953 641 2809 
L 641 3341 
Q 956 3463 1253 3523 
Q 1550 3584 1831 3584 
Q 2591 3584 2966 3190 
Q 3341 2797 3341 1997 
z
" transform="scale(0.015625)"/>
          <path id="DejaVuSans-67" d="M 2906 1791 
Q 2906 2416 2648 2759 
Q 2391 3103 1925 3103 
Q 1463 3103 1205 2759 
Q 947 2416 947 1791 
Q 947 1169 1205 825 
Q 1463 481 1925 481 
Q 2391 481 2648 825 
Q 2906 1169 2906 1791 
z
M 3481 434 
Q 3481 -459 3084 -895 
Q 2688 -1331 1869 -1331 
Q 1566 -1331 1297 -1286 
Q 1028 -1241 775 -1147 
L 775 -588 
Q 1028 -725 1275 -790 
Q 1522 -856 1778 -856 
Q 2344 -856 2625 -561 
Q 2906 -266 2906 331 
L 2906 616 
Q 2728 306 2450 153 
Q 2172 0 1784 0 
Q 1141 0 747 490 
Q 353 981 353 1791 
Q 353 2603 747 3093 
Q 1141 3584 1784 3584 
Q 2172 3584 2450 3431 
Q 2728 3278 2906 2969 
L 2906 3500 
L 3481 3500 
L 3481 434 
z
" transform="scale(0.015625)"/>
          <path id="DejaVuSans-6f" d="M 1959 3097 
Q 1497 3097 1228 2736 
Q 959 2375 959 1747 
Q 959 1119 1226 758 
Q 1494 397 1959 397 
Q 2419 397 2687 759 
Q 2956 1122 2956 1747 
Q 2956 2369 2687 2733 
Q 2419 3097 1959 3097 
z
M 1959 3584 
Q 2709 3584 3137 3096 
Q 3566 2609 3566 1747 
Q 3566 888 3137 398 
Q 2709 -91 1959 -91 
Q 1206 -91 779 398 
Q 353 888 353 1747 
Q 353 2609 779 3096 
Q 1206 3584 1959 3584 
z
" transform="scale(0.015625)"/>
          <path id="DejaVuSans-28" d="M 1984 4856 
Q 1566 4138 1362 3434 
Q 1159 2731 1159 2009 
Q 1159 1288 1364 580 
Q 1569 -128 1984 -844 
L 1484 -844 
Q 1016 -109 783 600 
Q 550 1309 550 2009 
Q 550 2706 781 3412 
Q 1013 4119 1484 4856 
L 1984 4856 
z
" transform="scale(0.015625)"/>
          <path id="DejaVuSans-79" d="M 2059 -325 
Q 1816 -950 1584 -1140 
Q 1353 -1331 966 -1331 
L 506 -1331 
L 506 -850 
L 844 -850 
Q 1081 -850 1212 -737 
Q 1344 -625 1503 -206 
L 1606 56 
L 191 3500 
L 800 3500 
L 1894 763 
L 2988 3500 
L 3597 3500 
L 2059 -325 
z
" transform="scale(0.015625)"/>
          <path id="DejaVuSans-72" d="M 2631 2963 
Q 2534 3019 2420 3045 
Q 2306 3072 2169 3072 
Q 1681 3072 1420 2755 
Q 1159 2438 1159 1844 
L 1159 0 
L 581 0 
L 581 3500 
L 1159 3500 
L 1159 2956 
Q 1341 3275 1631 3429 
Q 1922 3584 2338 3584 
Q 2397 3584 2469 3576 
Q 2541 3569 2628 3553 
L 2631 2963 
z
" transform="scale(0.015625)"/>
          <path id="DejaVuSans-73" d="M 2834 3397 
L 2834 2853 
Q 2591 2978 2328 3040 
Q 2066 3103 1784 3103 
Q 1356 3103 1142 2972 
Q 928 2841 928 2578 
Q 928 2378 1081 2264 
Q 1234 2150 1697 2047 
L 1894 2003 
Q 2506 1872 2764 1633 
Q 3022 1394 3022 966 
Q 3022 478 2636 193 
Q 2250 -91 1575 -91 
Q 1294 -91 989 -36 
Q 684 19 347 128 
L 347 722 
Q 666 556 975 473 
Q 1284 391 1588 391 
Q 1994 391 2212 530 
Q 2431 669 2431 922 
Q 2431 1156 2273 1281 
Q 2116 1406 1581 1522 
L 1381 1569 
Q 847 1681 609 1914 
Q 372 2147 372 2553 
Q 372 3047 722 3315 
Q 1072 3584 1716 3584 
Q 2034 3584 2315 3537 
Q 2597 3491 2834 3397 
z
" transform="scale(0.015625)"/>
          <path id="DejaVuSans-29" d="M 513 4856 
L 1013 4856 
Q 1481 4119 1714 3412 
Q 1947 2706 1947 2009 
Q 1947 1309 1714 600 
Q 1481 -109 1013 -844 
L 513 -844 
Q 928 -128 1133 580 
Q 1338 1288 1338 2009 
Q 1338 2731 1133 3434 
Q 928 4138 513 4856 
z
" transform="scale(0.015625)"/>
         </defs>
         <use xlink:href="#DejaVuSans-74"/>
         <use xlink:href="#DejaVuSans-69" x="39.208984"/>
         <use xlink:href="#DejaVuSans-6d" x="66.992188"/>
         <use xlink:href="#DejaVuSans-65" x="164.404297"/>
         <use xlink:href="#DejaVuSans-20" x="225.927734"/>
         <use xlink:href="#DejaVuSans-61" x="257.714844"/>
         <use xlink:href="#DejaVuSans-67" x="318.994141"/>
         <use xlink:href="#DejaVuSans-6f" x="382.470703"/>
         <use xlink:href="#DejaVuSans-20" x="443.652344"/>
         <use xlink:href="#DejaVuSans-28" x="475.439453"/>
         <use xlink:href="#DejaVuSans-79" x="514.453125"/>
         <use xlink:href="#DejaVuSans-65" x="573.632812"/>
         <use xlink:href="#DejaVuSans-61" x="635.15625"/>
         <use xlink:href="#DejaVuSans-72" x="696.435547"/>
         <use xlink:href="#DejaVuSans-73" x="737.548828"/>
         <use xlink:href="#DejaVuSans-29" x="789.648438"/>
        </g>
       </g>
      </g>
      <path d="M 257.619695 105.314052 
L 255.619695 104.314052 
L 255.619695 106.314052 
z
" clip-path="url(#pef394d298a)" style="fill: #1f77b4; fill-opacity: 0.5; stroke: #1f77b4; stroke-opacity: 0.5; stroke-linejoin: miter"/>
      <path d="M 257.619695 35.837855 
L 255.619695 34.837855 
L 255.619695 36.837855 
z
" clip-path="url(#pef394d298a)" style="fill: #1f77b4; fill-opacity: 0.5; stroke: #1f77b4; stroke-opacity: 0.5; stroke-linejoin: miter"/>
      <path d="M 257.619695 89.782003 
L 255.619695 88.782003 
L 255.619695 90.782003 
z
" clip-path="url(#pef394d298a)" style="fill: #1f77b4; fill-opacity: 0.5; stroke: #1f77b4; stroke-opacity: 0.5; stroke-linejoin: miter"/>
      <path d="M 257.619695 294.310594 
L 255.619695 293.310594 
L 255.619695 295.310594 
z
" clip-path="url(#pef394d298a)" style="fill: #1f77b4; fill-opacity: 0.5; stroke: #1f77b4; stroke-opacity: 0.5; stroke-linejoin: miter"/>
      <path d="M 257.619695 272.693408 
L 255.619695 271.693408 
L 255.619695 273.693408 
z
" clip-path="url(#pef394d298a)" style="fill: #1f77b4; fill-opacity: 0.5; stroke: #1f77b4; stroke-opacity: 0.5; stroke-linejoin: miter"/>
      <path d="M 257.619695 237.415275 
L 255.619695 236.415275 
L 255.619695 238.415275 
z
" clip-path="url(#pef394d298a)" style="fill: #1f77b4; fill-opacity: 0.5; stroke: #1f77b4; stroke-opacity: 0.5; stroke-linejoin: miter"/>
      <path d="M 257.619695 198.36273 
L 255.619695 197.36273 
L 255.619695 199.36273 
z
" clip-path="url(#pef394d298a)" style="fill: #1f77b4; fill-opacity: 0.5; stroke: #1f77b4; stroke-opacity: 0.5; stroke-linejoin: miter"/>
      <path d="M 257.619695 128.565116 
L 255.619695 127.565116 
L 255.619695 129.565116 
z
" clip-path="url(#pef394d298a)" style="fill: #1f77b4; fill-opacity: 0.5; stroke: #1f77b4; stroke-opacity: 0.5; stroke-linejoin: miter"/>
      <path d="M 257.619695 110.515032 
L 255.619695 109.515032 
L 255.619695 111.515032 
z
" clip-path="url(#pef394d298a)" style="fill: #1f77b4; fill-opacity: 0.5; stroke: #1f77b4; stroke-opacity: 0.5; stroke-linejoin: miter"/>
      <path d="M 257.619695 88.164127 
L 255.619695 87.164127 
L 255.619695 89.164127 
z
" clip-path="url(#pef394d298a)" style="fill: #1f77b4; fill-opacity: 0.5; stroke: #1f77b4; stroke-opacity: 0.5; stroke-linejoin: miter"/>
      <path d="M 199.299443 123.954708 
L 201.299443 124.954708 
L 201.299443 122.954708 
z
" clip-path="url(#pef394d298a)" style="fill: #ff7f0e; fill-opacity: 0.5; stroke: #ff7f0e; stroke-opacity: 0.5; stroke-linejoin: miter"/>
      <path d="M 199.299443 26.780299 
L 201.299443 27.780299 
L 201.299443 25.780299 
z
" clip-path="url(#pef394d298a)" style="fill: #ff7f0e; fill-opacity: 0.5; stroke: #ff7f0e; stroke-opacity: 0.5; stroke-linejoin: miter"/>
      <path d="M 199.299443 285.732644 
L 201.299443 286.732644 
L 201.299443 284.732644 
z
" clip-path="url(#pef394d298a)" style="fill: #ff7f0e; fill-opacity: 0.5; stroke: #ff7f0e; stroke-opacity: 0.5; stroke-linejoin: miter"/>
      <path d="M 199.299443 117.74575 
L 201.299443 118.74575 
L 201.299443 116.74575 
z
" clip-path="url(#pef394d298a)" style="fill: #ff7f0e; fill-opacity: 0.5; stroke: #ff7f0e; stroke-opacity: 0.5; stroke-linejoin: miter"/>
      <path d="M 199.299443 205.134268 
L 201.299443 206.134268 
L 201.299443 204.134268 
z
" clip-path="url(#pef394d298a)" style="fill: #ff7f0e; fill-opacity: 0.5; stroke: #ff7f0e; stroke-opacity: 0.5; stroke-linejoin: miter"/>
      <path d="M 199.299443 286.425816 
L 201.299443 287.425816 
L 201.299443 285.425816 
z
" clip-path="url(#pef394d298a)" style="fill: #ff7f0e; fill-opacity: 0.5; stroke: #ff7f0e; stroke-opacity: 0.5; stroke-linejoin: miter"/>
      <path d="M 199.299443 212.486912 
L 201.299443 213.486912 
L 201.299443 211.486912 
z
" clip-path="url(#pef394d298a)" style="fill: #ff7f0e; fill-opacity: 0.5; stroke: #ff7f0e; stroke-opacity: 0.5; stroke-linejoin: miter"/>
      <path d="M 199.299443 172.985633 
L 201.299443 173.985633 
L 201.299443 171.985633 
z
" clip-path="url(#pef394d298a)" style="fill: #ff7f0e; fill-opacity: 0.5; stroke: #ff7f0e; stroke-opacity: 0.5; stroke-linejoin: miter"/>
      <path d="M 199.299443 294.175127 
L 201.299443 295.175127 
L 201.299443 293.175127 
z
" clip-path="url(#pef394d298a)" style="fill: #ff7f0e; fill-opacity: 0.5; stroke: #ff7f0e; stroke-opacity: 0.5; stroke-linejoin: miter"/>
      <path d="M 199.299443 190.505653 
L 201.299443 191.505653 
L 201.299443 189.505653 
z
" clip-path="url(#pef394d298a)" style="fill: #ff7f0e; fill-opacity: 0.5; stroke: #ff7f0e; stroke-opacity: 0.5; stroke-linejoin: miter"/>
      <path d="M 447.666182 132.740049 
L 445.666182 131.740049 
L 445.666182 133.740049 
z
" clip-path="url(#pef394d298a)" style="fill: #ff7f0e; fill-opacity: 0.5; stroke: #ff7f0e; stroke-opacity: 0.5; stroke-linejoin: miter"/>
      <path d="M 447.666182 228.261377 
L 445.666182 227.261377 
L 445.666182 229.261377 
z
" clip-path="url(#pef394d298a)" style="fill: #ff7f0e; fill-opacity: 0.5; stroke: #ff7f0e; stroke-opacity: 0.5; stroke-linejoin: miter"/>
      <path d="M 447.666182 214.667437 
L 445.666182 213.667437 
L 445.666182 215.667437 
z
" clip-path="url(#pef394d298a)" style="fill: #ff7f0e; fill-opacity: 0.5; stroke: #ff7f0e; stroke-opacity: 0.5; stroke-linejoin: miter"/>
      <path d="M 447.666182 47.191912 
L 445.666182 46.191912 
L 445.666182 48.191912 
z
" clip-path="url(#pef394d298a)" style="fill: #ff7f0e; fill-opacity: 0.5; stroke: #ff7f0e; stroke-opacity: 0.5; stroke-linejoin: miter"/>
      <path d="M 447.666182 108.988304 
L 445.666182 107.988304 
L 445.666182 109.988304 
z
" clip-path="url(#pef394d298a)" style="fill: #ff7f0e; fill-opacity: 0.5; stroke: #ff7f0e; stroke-opacity: 0.5; stroke-linejoin: miter"/>
      <path d="M 447.666182 216.319639 
L 445.666182 215.319639 
L 445.666182 217.319639 
z
" clip-path="url(#pef394d298a)" style="fill: #ff7f0e; fill-opacity: 0.5; stroke: #ff7f0e; stroke-opacity: 0.5; stroke-linejoin: miter"/>
      <path d="M 447.666182 207.871786 
L 445.666182 206.871786 
L 445.666182 208.871786 
z
" clip-path="url(#pef394d298a)" style="fill: #ff7f0e; fill-opacity: 0.5; stroke: #ff7f0e; stroke-opacity: 0.5; stroke-linejoin: miter"/>
      <path d="M 447.666182 133.547993 
L 445.666182 132.547993 
L 445.666182 134.547993 
z
" clip-path="url(#pef394d298a)" style="fill: #ff7f0e; fill-opacity: 0.5; stroke: #ff7f0e; stroke-opacity: 0.5; stroke-linejoin: miter"/>
      <path d="M 447.666182 289.470962 
L 445.666182 288.470962 
L 445.666182 290.470962 
z
" clip-path="url(#pef394d298a)" style="fill: #ff7f0e; fill-opacity: 0.5; stroke: #ff7f0e; stroke-opacity: 0.5; stroke-linejoin: miter"/>
      <path d="M 447.666182 155.679587 
L 445.666182 154.679587 
L 445.666182 156.679587 
z
" clip-path="url(#pef394d298a)" style="fill: #ff7f0e; fill-opacity: 0.5; stroke: #ff7f0e; stroke-opacity: 0.5; stroke-linejoin: miter"/>
      <path d="M 389.34593 71.705664 
L 391.34593 72.705664 
L 391.34593 70.705664 
z
" clip-path="url(#pef394d298a)" style="fill: #2ca02c; fill-opacity: 0.5; stroke: #2ca02c; stroke-opacity: 0.5; stroke-linejoin: miter"/>
      <path d="M 389.34593 178.373533 
L 391.34593 179.373533 
L 391.34593 177.373533 
z
" clip-path="url(#pef394d298a)" style="fill: #2ca02c; fill-opacity: 0.5; stroke: #2ca02c; stroke-opacity: 0.5; stroke-linejoin: miter"/>
      <path d="M 389.34593 213.49455 
L 391.34593 214.49455 
L 391.34593 212.49455 
z
" clip-path="url(#pef394d298a)" style="fill: #2ca02c; fill-opacity: 0.5; stroke: #2ca02c; stroke-opacity: 0.5; stroke-linejoin: miter"/>
      <path d="M 389.34593 173.258216 
L 391.34593 174.258216 
L 391.34593 172.258216 
z
" clip-path="url(#pef394d298a)" style="fill: #2ca02c; fill-opacity: 0.5; stroke: #2ca02c; stroke-opacity: 0.5; stroke-linejoin: miter"/>
      <path d="M 389.34593 271.716751 
L 391.34593 272.716751 
L 391.34593 270.716751 
z
" clip-path="url(#pef394d298a)" style="fill: #2ca02c; fill-opacity: 0.5; stroke: #2ca02c; stroke-opacity: 0.5; stroke-linejoin: miter"/>
      <path d="M 389.34593 29.181104 
L 391.34593 30.181104 
L 391.34593 28.181104 
z
" clip-path="url(#pef394d298a)" style="fill: #2ca02c; fill-opacity: 0.5; stroke: #2ca02c; stroke-opacity: 0.5; stroke-linejoin: miter"/>
      <path d="M 389.34593 248.760976 
L 391.34593 249.760976 
L 391.34593 247.760976 
z
" clip-path="url(#pef394d298a)" style="fill: #2ca02c; fill-opacity: 0.5; stroke: #2ca02c; stroke-opacity: 0.5; stroke-linejoin: miter"/>
      <path d="M 389.34593 238.980789 
L 391.34593 239.980789 
L 391.34593 237.980789 
z
" clip-path="url(#pef394d298a)" style="fill: #2ca02c; fill-opacity: 0.5; stroke: #2ca02c; stroke-opacity: 0.5; stroke-linejoin: miter"/>
      <path d="M 389.34593 214.434358 
L 391.34593 215.434358 
L 391.34593 213.434358 
z
" clip-path="url(#pef394d298a)" style="fill: #2ca02c; fill-opacity: 0.5; stroke: #2ca02c; stroke-opacity: 0.5; stroke-linejoin: miter"/>
      <path d="M 389.34593 81.061205 
L 391.34593 82.061205 
L 391.34593 80.061205 
z
" clip-path="url(#pef394d298a)" style="fill: #2ca02c; fill-opacity: 0.5; stroke: #2ca02c; stroke-opacity: 0.5; stroke-linejoin: miter"/>
      <g id="patch_6">
       <path d="M 46.965625 318.021875 
L 46.965625 22.318125 
" style="fill: none; stroke: #000000; stroke-width: 0.8; stroke-linejoin: miter; stroke-linecap: square"/>
      </g>
      <g id="text_11">
       <!-- stepping_stone_model.yaml -->
       <g transform="translate(239.443437 16.318125) scale(0.12 -0.12)">
        <defs>
         <path id="DejaVuSans-70" d="M 1159 525 
L 1159 -1331 
L 581 -1331 
L 581 3500 
L 1159 3500 
L 1159 2969 
Q 1341 3281 1617 3432 
Q 1894 3584 2278 3584 
Q 2916 3584 3314 3078 
Q 3713 2572 3713 1747 
Q 3713 922 3314 415 
Q 2916 -91 2278 -91 
Q 1894 -91 1617 61 
Q 1341 213 1159 525 
z
M 3116 1747 
Q 3116 2381 2855 2742 
Q 2594 3103 2138 3103 
Q 1681 3103 1420 2742 
Q 1159 2381 1159 1747 
Q 1159 1113 1420 752 
Q 1681 391 2138 391 
Q 2594 391 2855 752 
Q 3116 1113 3116 1747 
z
" transform="scale(0.015625)"/>
         <path id="DejaVuSans-6e" d="M 3513 2113 
L 3513 0 
L 2938 0 
L 2938 2094 
Q 2938 2591 2744 2837 
Q 2550 3084 2163 3084 
Q 1697 3084 1428 2787 
Q 1159 2491 1159 1978 
L 1159 0 
L 581 0 
L 581 3500 
L 1159 3500 
L 1159 2956 
Q 1366 3272 1645 3428 
Q 1925 3584 2291 3584 
Q 2894 3584 3203 3211 
Q 3513 2838 3513 2113 
z
" transform="scale(0.015625)"/>
         <path id="DejaVuSans-5f" d="M 3263 -1063 
L 3263 -1509 
L -63 -1509 
L -63 -1063 
L 3263 -1063 
z
" transform="scale(0.015625)"/>
         <path id="DejaVuSans-6c" d="M 603 4863 
L 1178 4863 
L 1178 0 
L 603 0 
L 603 4863 
z
" transform="scale(0.015625)"/>
         <path id="DejaVuSans-2e" d="M 684 794 
L 1344 794 
L 1344 0 
L 684 0 
L 684 794 
z
" transform="scale(0.015625)"/>
        </defs>
        <use xlink:href="#DejaVuSans-73"/>
        <use xlink:href="#DejaVuSans-74" x="52.099609"/>
        <use xlink:href="#DejaVuSans-65" x="91.308594"/>
        <use xlink:href="#DejaVuSans-70" x="152.832031"/>
        <use xlink:href="#DejaVuSans-70" x="216.308594"/>
        <use xlink:href="#DejaVuSans-69" x="279.785156"/>
        <use xlink:href="#DejaVuSans-6e" x="307.568359"/>
        <use xlink:href="#DejaVuSans-67" x="370.947266"/>
        <use xlink:href="#DejaVuSans-5f" x="434.423828"/>
        <use xlink:href="#DejaVuSans-73" x="484.423828"/>
        <use xlink:href="#DejaVuSans-74" x="536.523438"/>
        <use xlink:href="#DejaVuSans-6f" x="575.732422"/>
        <use xlink:href="#DejaVuSans-6e" x="636.914062"/>
        <use xlink:href="#DejaVuSans-65" x="700.292969"/>
        <use xlink:href="#DejaVuSans-5f" x="761.816406"/>
        <use xlink:href="#DejaVuSans-6d" x="811.816406"/>
        <use xlink:href="#DejaVuSans-6f" x="909.228516"/>
        <use xlink:href="#DejaVuSans-64" x="970.410156"/>
        <use xlink:href="#DejaVuSans-65" x="1033.886719"/>
        <use xlink:href="#DejaVuSans-6c" x="1095.410156"/>
        <use xlink:href="#DejaVuSans-2e" x="1123.193359"/>
        <use xlink:href="#DejaVuSans-79" x="1154.980469"/>
        <use xlink:href="#DejaVuSans-61" x="1214.160156"/>
        <use xlink:href="#DejaVuSans-6d" x="1275.439453"/>
        <use xlink:href="#DejaVuSans-6c" x="1372.851562"/>
       </g>
      </g>
     </g>
    </g>
    <defs>
     <clipPath id="pef394d298a">
      <rect x="46.965625" y="22.318125" width="553.034375" height="295.70375"/>
     </clipPath>
    </defs>
   </g>
  </g>
 </g>
</svg>
