<?xml version="1.0" encoding="utf-8" standalone="no"?>
<!DOCTYPE svg PUBLIC "-//W3C//DTD SVG 1.1//EN"
  "http://www.w3.org/Graphics/SVG/1.1/DTD/svg11.dtd">
<svg xmlns:xlink="http://www.w3.org/1999/xlink" width="504.8pt" height="280.8pt" viewBox="0 0 504.8 280.8" xmlns="http://www.w3.org/2000/svg" version="1.1">
 <metadata>
  <rdf:RDF xmlns:dc="http://purl.org/dc/elements/1.1/" xmlns:cc="http://creativecommons.org/ns#" xmlns:rdf="http://www.w3.org/1999/02/22-rdf-syntax-ns#">
   <cc:Work>
    <dc:type rdf:resource="http://purl.org/dc/dcmitype/StillImage"/>
    <dc:date>2022-02-28T08:23:43.372068</dc:date>
    <dc:format>image/svg+xml</dc:format>
    <dc:creator>
     <cc:Agent>
      <dc:title>Matplotlib v3.5.1, https://matplotlib.org/</dc:title>
     </cc:Agent>
    </dc:creator>
   </cc:Work>
  </rdf:RDF>
 </metadata>
 <defs>
  <style type="text/css">*{stroke-linejoin: round; stroke-linecap: butt}</style>
 </defs>
 <g id="figure_1">
  <g id="patch_1">
   <path d="M 0 280.8 
L 504.8 280.8 
L 504.8 0 
L 0 0 
L 0 280.8 
z
" style="fill: none"/>
  </g>
  <g id="axes_1">
   <g id="patch_2">
    <path d="M 43.78125 260.421875 
L 497.6 260.421875 
L 497.6 22.318125 
L 43.78125 22.318125 
z
" style="fill: #ffffff"/>
   </g>
   <path d="M 169.606632 98.797855 
L 170.606632 98.829291 
L 171.606632 98.866231 
L 172.606632 98.963978 
L 173.606632 98.9965 
L 174.606632 99.070124 
L 175.606632 99.10869 
L 176.606632 99.144103 
L 177.606632 99.201743 
L 178.606632 99.272129 
L 179.606632 99.324093 
L 180.606632 99.383183 
L 181.606632 99.471504 
L 182.606632 99.517648 
L 183.606632 99.560059 
L 184.606632 99.590552 
L 185.606632 99.616597 
L 186.606632 99.637797 
L 187.606632 99.692098 
L 188.606632 99.720036 
L 189.606632 99.74976 
L 190.606632 99.775154 
L 191.606632 99.786355 
L 192.606632 99.796479 
L 193.606632 99.796274 
L 194.606632 99.786765 
L 195.606632 99.775111 
L 196.606632 99.744082 
L 197.606632 99.732914 
L 198.606632 99.702796 
L 199.606632 99.643019 
L 200.606632 99.605828 
L 201.606632 99.566732 
L 202.606632 99.524292 
L 203.606632 99.491527 
L 204.606632 99.424101 
L 205.606632 99.384975 
L 206.606632 99.3423 
L 207.606632 99.271719 
L 208.606632 99.235329 
L 209.606632 99.176925 
L 210.606632 99.065973 
L 211.606632 98.995315 
L 212.606632 98.882375 
L 213.606632 98.836602 
L 214.606632 98.775319 
L 215.822903 98.726819 
" clip-path="url(#p3614ddbf54)" style="fill: none; stroke: #1f77b4; stroke-opacity: 0.5; stroke-width: 0.2; stroke-linecap: square"/>
   <path d="M 169.606632 113.084067 
L 170.606632 113.115503 
L 171.606632 113.152443 
L 172.606632 113.25019 
L 173.606632 113.282711 
L 174.606632 113.356336 
L 175.606632 113.394902 
L 176.606632 113.430315 
L 177.606632 113.487955 
L 178.606632 113.558341 
L 179.606632 113.610305 
L 180.606632 113.669395 
L 181.606632 113.757716 
L 182.606632 113.80386 
L 183.606632 113.846271 
L 184.606632 113.876764 
L 185.606632 113.902809 
L 186.606632 113.924009 
L 187.606632 113.97831 
L 188.606632 114.006248 
L 189.606632 114.035972 
L 190.606632 114.061366 
L 191.606632 114.072567 
L 192.606632 114.082691 
L 193.606632 114.082486 
L 194.606632 114.072976 
L 195.606632 114.061323 
L 196.606632 114.030294 
L 197.606632 114.019126 
L 198.606632 113.989008 
L 199.606632 113.929231 
L 200.606632 113.89204 
L 201.606632 113.852944 
L 202.606632 113.810504 
L 203.606632 113.777739 
L 204.606632 113.710312 
L 205.606632 113.671186 
L 206.606632 113.628512 
L 207.606632 113.557931 
L 208.606632 113.52154 
L 209.606632 113.463137 
L 210.606632 113.352185 
L 211.606632 113.281526 
L 212.606632 113.168587 
L 213.606632 113.122814 
L 214.606632 113.06153 
L 215.822903 113.013031 
" clip-path="url(#p3614ddbf54)" style="fill: none; stroke: #1f77b4; stroke-opacity: 0.5; stroke-width: 0.2; stroke-linecap: square"/>
   <path d="M 169.606632 164.803834 
L 170.606632 164.83527 
L 171.606632 164.872211 
L 172.606632 164.969957 
L 173.606632 165.002479 
L 174.606632 165.076103 
L 175.606632 165.114669 
L 176.606632 165.150082 
L 177.606632 165.207722 
L 178.606632 165.278108 
L 179.606632 165.330073 
L 180.606632 165.389162 
L 181.606632 165.477483 
L 182.606632 165.523628 
L 183.606632 165.566039 
L 184.606632 165.596531 
L 185.606632 165.622576 
L 186.606632 165.643776 
L 187.606632 165.698077 
L 188.606632 165.726015 
L 189.606632 165.755739 
L 190.606632 165.781134 
L 191.606632 165.792334 
L 192.606632 165.802458 
L 193.606632 165.802254 
L 194.606632 165.792744 
L 195.606632 165.78109 
L 196.606632 165.750061 
L 197.606632 165.738893 
L 198.606632 165.708776 
L 199.606632 165.648999 
L 200.606632 165.611807 
L 201.606632 165.572711 
L 202.606632 165.530271 
L 203.606632 165.497506 
L 204.606632 165.43008 
L 205.606632 165.390954 
L 206.606632 165.348279 
L 207.606632 165.277699 
L 208.606632 165.241308 
L 209.606632 165.182905 
L 210.606632 165.071952 
L 211.606632 165.001294 
L 212.606632 164.888354 
L 213.606632 164.842581 
L 214.606632 164.781298 
L 215.822903 164.732798 
" clip-path="url(#p3614ddbf54)" style="fill: none; stroke: #1f77b4; stroke-opacity: 0.5; stroke-width: 0.2; stroke-linecap: square"/>
   <path d="M 169.606632 97.010082 
L 170.606632 97.041518 
L 171.606632 97.078459 
L 172.606632 97.176205 
L 173.606632 97.208727 
L 174.606632 97.282351 
L 175.606632 97.320917 
L 176.606632 97.35633 
L 177.606632 97.41397 
L 178.606632 97.484356 
L 179.606632 97.536321 
L 180.606632 97.59541 
L 181.606632 97.683731 
L 182.606632 97.729876 
L 183.606632 97.772286 
L 184.606632 97.802779 
L 185.606632 97.828824 
L 186.606632 97.850024 
L 187.606632 97.904325 
L 188.606632 97.932263 
L 189.606632 97.961987 
L 190.606632 97.987382 
L 191.606632 97.998582 
L 192.606632 98.008706 
L 193.606632 98.008502 
L 194.606632 97.998992 
L 195.606632 97.987338 
L 196.606632 97.956309 
L 197.606632 97.945141 
L 198.606632 97.915023 
L 199.606632 97.855247 
L 200.606632 97.818055 
L 201.606632 97.778959 
L 202.606632 97.736519 
L 203.606632 97.703754 
L 204.606632 97.636328 
L 205.606632 97.597202 
L 206.606632 97.554527 
L 207.606632 97.483947 
L 208.606632 97.447556 
L 209.606632 97.389153 
L 210.606632 97.2782 
L 211.606632 97.207542 
L 212.606632 97.094602 
L 213.606632 97.048829 
L 214.606632 96.987546 
L 215.822903 96.939046 
" clip-path="url(#p3614ddbf54)" style="fill: none; stroke: #1f77b4; stroke-opacity: 0.5; stroke-width: 0.2; stroke-linecap: square"/>
   <path d="M 169.606632 130.409948 
L 170.606632 130.441384 
L 171.606632 130.478324 
L 172.606632 130.576071 
L 173.606632 130.608593 
L 174.606632 130.682217 
L 175.606632 130.720783 
L 176.606632 130.756196 
L 177.606632 130.813836 
L 178.606632 130.884222 
L 179.606632 130.936186 
L 180.606632 130.995276 
L 181.606632 131.083597 
L 182.606632 131.129741 
L 183.606632 131.172152 
L 184.606632 131.202645 
L 185.606632 131.22869 
L 186.606632 131.24989 
L 187.606632 131.304191 
L 188.606632 131.332129 
L 189.606632 131.361853 
L 190.606632 131.387247 
L 191.606632 131.398448 
L 192.606632 131.408572 
L 193.606632 131.408367 
L 194.606632 131.398858 
L 195.606632 131.387204 
L 196.606632 131.356175 
L 197.606632 131.345007 
L 198.606632 131.314889 
L 199.606632 131.255112 
L 200.606632 131.217921 
L 201.606632 131.178825 
L 202.606632 131.136385 
L 203.606632 131.10362 
L 204.606632 131.036194 
L 205.606632 130.997068 
L 206.606632 130.954393 
L 207.606632 130.883812 
L 208.606632 130.847422 
L 209.606632 130.789018 
L 210.606632 130.678066 
L 211.606632 130.607408 
L 212.606632 130.494468 
L 213.606632 130.448695 
L 214.606632 130.387412 
L 215.822903 130.338912 
" clip-path="url(#p3614ddbf54)" style="fill: none; stroke: #1f77b4; stroke-opacity: 0.5; stroke-width: 0.2; stroke-linecap: square"/>
   <path d="M 169.606632 107.264153 
L 170.606632 107.295589 
L 171.606632 107.33253 
L 172.606632 107.430276 
L 173.606632 107.462798 
L 174.606632 107.536423 
L 175.606632 107.574988 
L 176.606632 107.610401 
L 177.606632 107.668041 
L 178.606632 107.738427 
L 179.606632 107.790392 
L 180.606632 107.849481 
L 181.606632 107.937802 
L 182.606632 107.983947 
L 183.606632 108.026358 
L 184.606632 108.05685 
L 185.606632 108.082895 
L 186.606632 108.104095 
L 187.606632 108.158396 
L 188.606632 108.186334 
L 189.606632 108.216058 
L 190.606632 108.241453 
L 191.606632 108.252653 
L 192.606632 108.262777 
L 193.606632 108.262573 
L 194.606632 108.253063 
L 195.606632 108.241409 
L 196.606632 108.21038 
L 197.606632 108.199212 
L 198.606632 108.169095 
L 199.606632 108.109318 
L 200.606632 108.072126 
L 201.606632 108.03303 
L 202.606632 107.99059 
L 203.606632 107.957825 
L 204.606632 107.890399 
L 205.606632 107.851273 
L 206.606632 107.808598 
L 207.606632 107.738018 
L 208.606632 107.701627 
L 209.606632 107.643224 
L 210.606632 107.532271 
L 211.606632 107.461613 
L 212.606632 107.348673 
L 213.606632 107.3029 
L 214.606632 107.241617 
L 215.822903 107.193118 
" clip-path="url(#p3614ddbf54)" style="fill: none; stroke: #1f77b4; stroke-opacity: 0.5; stroke-width: 0.2; stroke-linecap: square"/>
   <path d="M 169.606632 86.374435 
L 170.606632 86.405872 
L 171.606632 86.442812 
L 172.606632 86.540559 
L 173.606632 86.57308 
L 174.606632 86.646705 
L 175.606632 86.685271 
L 176.606632 86.720684 
L 177.606632 86.778324 
L 178.606632 86.84871 
L 179.606632 86.900674 
L 180.606632 86.959764 
L 181.606632 87.048085 
L 182.606632 87.094229 
L 183.606632 87.13664 
L 184.606632 87.167133 
L 185.606632 87.193178 
L 186.606632 87.214378 
L 187.606632 87.268679 
L 188.606632 87.296616 
L 189.606632 87.32634 
L 190.606632 87.351735 
L 191.606632 87.362936 
L 192.606632 87.37306 
L 193.606632 87.372855 
L 194.606632 87.363345 
L 195.606632 87.351692 
L 196.606632 87.320663 
L 197.606632 87.309495 
L 198.606632 87.279377 
L 199.606632 87.2196 
L 200.606632 87.182409 
L 201.606632 87.143313 
L 202.606632 87.100873 
L 203.606632 87.068108 
L 204.606632 87.000681 
L 205.606632 86.961555 
L 206.606632 86.918881 
L 207.606632 86.8483 
L 208.606632 86.811909 
L 209.606632 86.753506 
L 210.606632 86.642554 
L 211.606632 86.571895 
L 212.606632 86.458955 
L 213.606632 86.413183 
L 214.606632 86.351899 
L 215.822903 86.3034 
" clip-path="url(#p3614ddbf54)" style="fill: none; stroke: #1f77b4; stroke-opacity: 0.5; stroke-width: 0.2; stroke-linecap: square"/>
   <path d="M 169.606632 93.356627 
L 170.606632 93.388064 
L 171.606632 93.425004 
L 172.606632 93.52275 
L 173.606632 93.555272 
L 174.606632 93.628897 
L 175.606632 93.667462 
L 176.606632 93.702876 
L 177.606632 93.760515 
L 178.606632 93.830902 
L 179.606632 93.882866 
L 180.606632 93.941956 
L 181.606632 94.030277 
L 182.606632 94.076421 
L 183.606632 94.118832 
L 184.606632 94.149324 
L 185.606632 94.175369 
L 186.606632 94.19657 
L 187.606632 94.250871 
L 188.606632 94.278808 
L 189.606632 94.308532 
L 190.606632 94.333927 
L 191.606632 94.345127 
L 192.606632 94.355251 
L 193.606632 94.355047 
L 194.606632 94.345537 
L 195.606632 94.333884 
L 196.606632 94.302854 
L 197.606632 94.291686 
L 198.606632 94.261569 
L 199.606632 94.201792 
L 200.606632 94.1646 
L 201.606632 94.125504 
L 202.606632 94.083065 
L 203.606632 94.0503 
L 204.606632 93.982873 
L 205.606632 93.943747 
L 206.606632 93.901073 
L 207.606632 93.830492 
L 208.606632 93.794101 
L 209.606632 93.735698 
L 210.606632 93.624745 
L 211.606632 93.554087 
L 212.606632 93.441147 
L 213.606632 93.395374 
L 214.606632 93.334091 
L 215.822903 93.285592 
" clip-path="url(#p3614ddbf54)" style="fill: none; stroke: #1f77b4; stroke-opacity: 0.5; stroke-width: 0.2; stroke-linecap: square"/>
   <path d="M 169.606632 79.279016 
L 170.606632 79.310452 
L 171.606632 79.347393 
L 172.606632 79.445139 
L 173.606632 79.477661 
L 174.606632 79.551285 
L 175.606632 79.589851 
L 176.606632 79.625264 
L 177.606632 79.682904 
L 178.606632 79.75329 
L 179.606632 79.805255 
L 180.606632 79.864344 
L 181.606632 79.952665 
L 182.606632 79.99881 
L 183.606632 80.041221 
L 184.606632 80.071713 
L 185.606632 80.097758 
L 186.606632 80.118958 
L 187.606632 80.173259 
L 188.606632 80.201197 
L 189.606632 80.230921 
L 190.606632 80.256316 
L 191.606632 80.267516 
L 192.606632 80.27764 
L 193.606632 80.277436 
L 194.606632 80.267926 
L 195.606632 80.256272 
L 196.606632 80.225243 
L 197.606632 80.214075 
L 198.606632 80.183958 
L 199.606632 80.124181 
L 200.606632 80.086989 
L 201.606632 80.047893 
L 202.606632 80.005453 
L 203.606632 79.972688 
L 204.606632 79.905262 
L 205.606632 79.866136 
L 206.606632 79.823461 
L 207.606632 79.752881 
L 208.606632 79.71649 
L 209.606632 79.658087 
L 210.606632 79.547134 
L 211.606632 79.476476 
L 212.606632 79.363536 
L 213.606632 79.317763 
L 214.606632 79.25648 
L 215.822903 79.20798 
" clip-path="url(#p3614ddbf54)" style="fill: none; stroke: #1f77b4; stroke-opacity: 0.5; stroke-width: 0.2; stroke-linecap: square"/>
   <path d="M 169.606632 109.065922 
L 170.606632 109.097358 
L 171.606632 109.134298 
L 172.606632 109.232045 
L 173.606632 109.264567 
L 174.606632 109.338191 
L 175.606632 109.376757 
L 176.606632 109.41217 
L 177.606632 109.46981 
L 178.606632 109.540196 
L 179.606632 109.59216 
L 180.606632 109.65125 
L 181.606632 109.739571 
L 182.606632 109.785715 
L 183.606632 109.828126 
L 184.606632 109.858619 
L 185.606632 109.884664 
L 186.606632 109.905864 
L 187.606632 109.960165 
L 188.606632 109.988103 
L 189.606632 110.017827 
L 190.606632 110.043221 
L 191.606632 110.054422 
L 192.606632 110.064546 
L 193.606632 110.064341 
L 194.606632 110.054832 
L 195.606632 110.043178 
L 196.606632 110.012149 
L 197.606632 110.000981 
L 198.606632 109.970863 
L 199.606632 109.911086 
L 200.606632 109.873895 
L 201.606632 109.834799 
L 202.606632 109.792359 
L 203.606632 109.759594 
L 204.606632 109.692168 
L 205.606632 109.653042 
L 206.606632 109.610367 
L 207.606632 109.539786 
L 208.606632 109.503396 
L 209.606632 109.444992 
L 210.606632 109.33404 
L 211.606632 109.263382 
L 212.606632 109.150442 
L 213.606632 109.104669 
L 214.606632 109.043386 
L 215.822903 108.994886 
" clip-path="url(#p3614ddbf54)" style="fill: none; stroke: #1f77b4; stroke-opacity: 0.5; stroke-width: 0.2; stroke-linecap: square"/>
   <path d="M 325.558347 88.73145 
L 326.558347 88.762886 
L 327.558347 88.799827 
L 328.558347 88.897573 
L 329.558347 88.930095 
L 330.558347 89.00372 
L 331.558347 89.042285 
L 332.558347 89.077698 
L 333.558347 89.135338 
L 334.558347 89.205724 
L 335.558347 89.257689 
L 336.558347 89.316778 
L 337.558347 89.405099 
L 338.558347 89.451244 
L 339.558347 89.493655 
L 340.558347 89.524147 
L 341.558347 89.550192 
L 342.558347 89.571392 
L 343.558347 89.625693 
L 344.558347 89.653631 
L 345.558347 89.683355 
L 346.558347 89.70875 
L 347.558347 89.71995 
L 348.558347 89.730074 
L 349.558347 89.72987 
L 350.558347 89.72036 
L 351.558347 89.708706 
L 352.558347 89.677677 
L 353.558347 89.666509 
L 354.558347 89.636392 
L 355.558347 89.576615 
L 356.558347 89.539423 
L 357.558347 89.500327 
L 358.558347 89.457887 
L 359.558347 89.425122 
L 360.558347 89.357696 
L 361.558347 89.31857 
L 362.558347 89.275895 
L 363.558347 89.205315 
L 364.558347 89.168924 
L 365.558347 89.110521 
L 366.558347 88.999568 
L 367.558347 88.92891 
L 368.558347 88.81597 
L 369.558347 88.770197 
L 370.558347 88.708914 
L 371.774618 88.660415 
" clip-path="url(#p3614ddbf54)" style="fill: none; stroke: #ff7f0e; stroke-opacity: 0.5; stroke-width: 0.2; stroke-linecap: square"/>
   <path d="M 325.558347 126.594065 
L 326.558347 126.625502 
L 327.558347 126.662442 
L 328.558347 126.760189 
L 329.558347 126.79271 
L 330.558347 126.866335 
L 331.558347 126.904901 
L 332.558347 126.940314 
L 333.558347 126.997954 
L 334.558347 127.06834 
L 335.558347 127.120304 
L 336.558347 127.179394 
L 337.558347 127.267715 
L 338.558347 127.313859 
L 339.558347 127.35627 
L 340.558347 127.386763 
L 341.558347 127.412808 
L 342.558347 127.434008 
L 343.558347 127.488309 
L 344.558347 127.516246 
L 345.558347 127.54597 
L 346.558347 127.571365 
L 347.558347 127.582566 
L 348.558347 127.59269 
L 349.558347 127.592485 
L 350.558347 127.582975 
L 351.558347 127.571322 
L 352.558347 127.540292 
L 353.558347 127.529125 
L 354.558347 127.499007 
L 355.558347 127.43923 
L 356.558347 127.402039 
L 357.558347 127.362942 
L 358.558347 127.320503 
L 359.558347 127.287738 
L 360.558347 127.220311 
L 361.558347 127.181185 
L 362.558347 127.138511 
L 363.558347 127.06793 
L 364.558347 127.031539 
L 365.558347 126.973136 
L 366.558347 126.862184 
L 367.558347 126.791525 
L 368.558347 126.678585 
L 369.558347 126.632813 
L 370.558347 126.571529 
L 371.774618 126.52303 
" clip-path="url(#p3614ddbf54)" style="fill: none; stroke: #ff7f0e; stroke-opacity: 0.5; stroke-width: 0.2; stroke-linecap: square"/>
   <path d="M 325.558347 157.285914 
L 326.558347 157.317351 
L 327.558347 157.354291 
L 328.558347 157.452038 
L 329.558347 157.484559 
L 330.558347 157.558184 
L 331.558347 157.59675 
L 332.558347 157.632163 
L 333.558347 157.689803 
L 334.558347 157.760189 
L 335.558347 157.812153 
L 336.558347 157.871243 
L 337.558347 157.959564 
L 338.558347 158.005708 
L 339.558347 158.048119 
L 340.558347 158.078612 
L 341.558347 158.104657 
L 342.558347 158.125857 
L 343.558347 158.180158 
L 344.558347 158.208095 
L 345.558347 158.237819 
L 346.558347 158.263214 
L 347.558347 158.274415 
L 348.558347 158.284539 
L 349.558347 158.284334 
L 350.558347 158.274824 
L 351.558347 158.263171 
L 352.558347 158.232142 
L 353.558347 158.220974 
L 354.558347 158.190856 
L 355.558347 158.131079 
L 356.558347 158.093888 
L 357.558347 158.054792 
L 358.558347 158.012352 
L 359.558347 157.979587 
L 360.558347 157.91216 
L 361.558347 157.873034 
L 362.558347 157.83036 
L 363.558347 157.759779 
L 364.558347 157.723388 
L 365.558347 157.664985 
L 366.558347 157.554033 
L 367.558347 157.483374 
L 368.558347 157.370435 
L 369.558347 157.324662 
L 370.558347 157.263378 
L 371.774618 157.214879 
" clip-path="url(#p3614ddbf54)" style="fill: none; stroke: #ff7f0e; stroke-opacity: 0.5; stroke-width: 0.2; stroke-linecap: square"/>
   <path d="M 325.558347 91.260467 
L 326.558347 91.291904 
L 327.558347 91.328844 
L 328.558347 91.426591 
L 329.558347 91.459112 
L 330.558347 91.532737 
L 331.558347 91.571303 
L 332.558347 91.606716 
L 333.558347 91.664356 
L 334.558347 91.734742 
L 335.558347 91.786706 
L 336.558347 91.845796 
L 337.558347 91.934117 
L 338.558347 91.980261 
L 339.558347 92.022672 
L 340.558347 92.053165 
L 341.558347 92.07921 
L 342.558347 92.10041 
L 343.558347 92.154711 
L 344.558347 92.182648 
L 345.558347 92.212372 
L 346.558347 92.237767 
L 347.558347 92.248968 
L 348.558347 92.259091 
L 349.558347 92.258887 
L 350.558347 92.249377 
L 351.558347 92.237724 
L 352.558347 92.206694 
L 353.558347 92.195527 
L 354.558347 92.165409 
L 355.558347 92.105632 
L 356.558347 92.068441 
L 357.558347 92.029344 
L 358.558347 91.986905 
L 359.558347 91.95414 
L 360.558347 91.886713 
L 361.558347 91.847587 
L 362.558347 91.804913 
L 363.558347 91.734332 
L 364.558347 91.697941 
L 365.558347 91.639538 
L 366.558347 91.528586 
L 367.558347 91.457927 
L 368.558347 91.344987 
L 369.558347 91.299215 
L 370.558347 91.237931 
L 371.774618 91.189432 
" clip-path="url(#p3614ddbf54)" style="fill: none; stroke: #ff7f0e; stroke-opacity: 0.5; stroke-width: 0.2; stroke-linecap: square"/>
   <path d="M 325.558347 72.904603 
L 326.558347 72.936039 
L 327.558347 72.97298 
L 328.558347 73.070726 
L 329.558347 73.103248 
L 330.558347 73.176872 
L 331.558347 73.215438 
L 332.558347 73.250851 
L 333.558347 73.308491 
L 334.558347 73.378877 
L 335.558347 73.430841 
L 336.558347 73.489931 
L 337.558347 73.578252 
L 338.558347 73.624396 
L 339.558347 73.666807 
L 340.558347 73.6973 
L 341.558347 73.723345 
L 342.558347 73.744545 
L 343.558347 73.798846 
L 344.558347 73.826784 
L 345.558347 73.856508 
L 346.558347 73.881903 
L 347.558347 73.893103 
L 348.558347 73.903227 
L 349.558347 73.903023 
L 350.558347 73.893513 
L 351.558347 73.881859 
L 352.558347 73.85083 
L 353.558347 73.839662 
L 354.558347 73.809544 
L 355.558347 73.749768 
L 356.558347 73.712576 
L 357.558347 73.67348 
L 358.558347 73.63104 
L 359.558347 73.598275 
L 360.558347 73.530849 
L 361.558347 73.491723 
L 362.558347 73.449048 
L 363.558347 73.378468 
L 364.558347 73.342077 
L 365.558347 73.283674 
L 366.558347 73.172721 
L 367.558347 73.102063 
L 368.558347 72.989123 
L 369.558347 72.94335 
L 370.558347 72.882067 
L 371.774618 72.833567 
" clip-path="url(#p3614ddbf54)" style="fill: none; stroke: #ff7f0e; stroke-opacity: 0.5; stroke-width: 0.2; stroke-linecap: square"/>
   <path d="M 325.558347 120.22223 
L 326.558347 120.253666 
L 327.558347 120.290607 
L 328.558347 120.388353 
L 329.558347 120.420875 
L 330.558347 120.494499 
L 331.558347 120.533065 
L 332.558347 120.568478 
L 333.558347 120.626118 
L 334.558347 120.696504 
L 335.558347 120.748468 
L 336.558347 120.807558 
L 337.558347 120.895879 
L 338.558347 120.942024 
L 339.558347 120.984434 
L 340.558347 121.014927 
L 341.558347 121.040972 
L 342.558347 121.062172 
L 343.558347 121.116473 
L 344.558347 121.144411 
L 345.558347 121.174135 
L 346.558347 121.19953 
L 347.558347 121.21073 
L 348.558347 121.220854 
L 349.558347 121.22065 
L 350.558347 121.21114 
L 351.558347 121.199486 
L 352.558347 121.168457 
L 353.558347 121.157289 
L 354.558347 121.127171 
L 355.558347 121.067395 
L 356.558347 121.030203 
L 357.558347 120.991107 
L 358.558347 120.948667 
L 359.558347 120.915902 
L 360.558347 120.848476 
L 361.558347 120.80935 
L 362.558347 120.766675 
L 363.558347 120.696095 
L 364.558347 120.659704 
L 365.558347 120.601301 
L 366.558347 120.490348 
L 367.558347 120.41969 
L 368.558347 120.30675 
L 369.558347 120.260977 
L 370.558347 120.199694 
L 371.774618 120.151194 
" clip-path="url(#p3614ddbf54)" style="fill: none; stroke: #ff7f0e; stroke-opacity: 0.5; stroke-width: 0.2; stroke-linecap: square"/>
   <path d="M 325.558347 121.928984 
L 326.558347 121.960421 
L 327.558347 121.997361 
L 328.558347 122.095108 
L 329.558347 122.127629 
L 330.558347 122.201254 
L 331.558347 122.23982 
L 332.558347 122.275233 
L 333.558347 122.332873 
L 334.558347 122.403259 
L 335.558347 122.455223 
L 336.558347 122.514313 
L 337.558347 122.602634 
L 338.558347 122.648778 
L 339.558347 122.691189 
L 340.558347 122.721682 
L 341.558347 122.747727 
L 342.558347 122.768927 
L 343.558347 122.823228 
L 344.558347 122.851165 
L 345.558347 122.880889 
L 346.558347 122.906284 
L 347.558347 122.917485 
L 348.558347 122.927609 
L 349.558347 122.927404 
L 350.558347 122.917894 
L 351.558347 122.906241 
L 352.558347 122.875211 
L 353.558347 122.864044 
L 354.558347 122.833926 
L 355.558347 122.774149 
L 356.558347 122.736958 
L 357.558347 122.697861 
L 358.558347 122.655422 
L 359.558347 122.622657 
L 360.558347 122.55523 
L 361.558347 122.516104 
L 362.558347 122.47343 
L 363.558347 122.402849 
L 364.558347 122.366458 
L 365.558347 122.308055 
L 366.558347 122.197103 
L 367.558347 122.126444 
L 368.558347 122.013504 
L 369.558347 121.967732 
L 370.558347 121.906448 
L 371.774618 121.857949 
" clip-path="url(#p3614ddbf54)" style="fill: none; stroke: #ff7f0e; stroke-opacity: 0.5; stroke-width: 0.2; stroke-linecap: square"/>
   <path d="M 325.558347 91.47177 
L 326.558347 91.503206 
L 327.558347 91.540147 
L 328.558347 91.637893 
L 329.558347 91.670415 
L 330.558347 91.744039 
L 331.558347 91.782605 
L 332.558347 91.818018 
L 333.558347 91.875658 
L 334.558347 91.946044 
L 335.558347 91.998008 
L 336.558347 92.057098 
L 337.558347 92.145419 
L 338.558347 92.191563 
L 339.558347 92.233974 
L 340.558347 92.264467 
L 341.558347 92.290512 
L 342.558347 92.311712 
L 343.558347 92.366013 
L 344.558347 92.393951 
L 345.558347 92.423675 
L 346.558347 92.44907 
L 347.558347 92.46027 
L 348.558347 92.470394 
L 349.558347 92.47019 
L 350.558347 92.46068 
L 351.558347 92.449026 
L 352.558347 92.417997 
L 353.558347 92.406829 
L 354.558347 92.376711 
L 355.558347 92.316934 
L 356.558347 92.279743 
L 357.558347 92.240647 
L 358.558347 92.198207 
L 359.558347 92.165442 
L 360.558347 92.098016 
L 361.558347 92.05889 
L 362.558347 92.016215 
L 363.558347 91.945635 
L 364.558347 91.909244 
L 365.558347 91.850841 
L 366.558347 91.739888 
L 367.558347 91.66923 
L 368.558347 91.55629 
L 369.558347 91.510517 
L 370.558347 91.449234 
L 371.774618 91.400734 
" clip-path="url(#p3614ddbf54)" style="fill: none; stroke: #ff7f0e; stroke-opacity: 0.5; stroke-width: 0.2; stroke-linecap: square"/>
   <path d="M 325.558347 117.911006 
L 326.558347 117.942443 
L 327.558347 117.979383 
L 328.558347 118.07713 
L 329.558347 118.109651 
L 330.558347 118.183276 
L 331.558347 118.221841 
L 332.558347 118.257255 
L 333.558347 118.314895 
L 334.558347 118.385281 
L 335.558347 118.437245 
L 336.558347 118.496335 
L 337.558347 118.584656 
L 338.558347 118.6308 
L 339.558347 118.673211 
L 340.558347 118.703704 
L 341.558347 118.729749 
L 342.558347 118.750949 
L 343.558347 118.80525 
L 344.558347 118.833187 
L 345.558347 118.862911 
L 346.558347 118.888306 
L 347.558347 118.899506 
L 348.558347 118.90963 
L 349.558347 118.909426 
L 350.558347 118.899916 
L 351.558347 118.888263 
L 352.558347 118.857233 
L 353.558347 118.846065 
L 354.558347 118.815948 
L 355.558347 118.756171 
L 356.558347 118.718979 
L 357.558347 118.679883 
L 358.558347 118.637444 
L 359.558347 118.604679 
L 360.558347 118.537252 
L 361.558347 118.498126 
L 362.558347 118.455452 
L 363.558347 118.384871 
L 364.558347 118.34848 
L 365.558347 118.290077 
L 366.558347 118.179124 
L 367.558347 118.108466 
L 368.558347 117.995526 
L 369.558347 117.949753 
L 370.558347 117.88847 
L 371.774618 117.839971 
" clip-path="url(#p3614ddbf54)" style="fill: none; stroke: #ff7f0e; stroke-opacity: 0.5; stroke-width: 0.2; stroke-linecap: square"/>
   <path d="M 325.558347 144.762785 
L 326.558347 144.794222 
L 327.558347 144.831162 
L 328.558347 144.928909 
L 329.558347 144.96143 
L 330.558347 145.035055 
L 331.558347 145.07362 
L 332.558347 145.109034 
L 333.558347 145.166674 
L 334.558347 145.23706 
L 335.558347 145.289024 
L 336.558347 145.348114 
L 337.558347 145.436435 
L 338.558347 145.482579 
L 339.558347 145.52499 
L 340.558347 145.555483 
L 341.558347 145.581528 
L 342.558347 145.602728 
L 343.558347 145.657029 
L 344.558347 145.684966 
L 345.558347 145.71469 
L 346.558347 145.740085 
L 347.558347 145.751285 
L 348.558347 145.761409 
L 349.558347 145.761205 
L 350.558347 145.751695 
L 351.558347 145.740042 
L 352.558347 145.709012 
L 353.558347 145.697844 
L 354.558347 145.667727 
L 355.558347 145.60795 
L 356.558347 145.570758 
L 357.558347 145.531662 
L 358.558347 145.489223 
L 359.558347 145.456458 
L 360.558347 145.389031 
L 361.558347 145.349905 
L 362.558347 145.307231 
L 363.558347 145.23665 
L 364.558347 145.200259 
L 365.558347 145.141856 
L 366.558347 145.030903 
L 367.558347 144.960245 
L 368.558347 144.847305 
L 369.558347 144.801532 
L 370.558347 144.740249 
L 371.774618 144.69175 
" clip-path="url(#p3614ddbf54)" style="fill: none; stroke: #ff7f0e; stroke-opacity: 0.5; stroke-width: 0.2; stroke-linecap: square"/>
   <g id="patch_3">
    <path d="M 64.409375 22.318125 
L 64.409375 260.421875 
M 165.068445 22.318125 
L 165.068445 260.421875 
" clip-path="url(#p3614ddbf54)" style="fill: none; stroke: #ffffff; stroke-width: 3; stroke-linejoin: miter"/>
    <path d="M 64.409375 22.318125 
L 64.409375 260.421875 
M 165.068445 22.318125 
L 165.068445 260.421875 
" clip-path="url(#p3614ddbf54)" style="fill: none; stroke: #1f77b4; stroke-linejoin: miter"/>
    <g id="PolyCollection_1">
     <path d="M 165.068445 22.318125 
L 64.409375 22.318125 
L 64.409375 260.421875 
L 165.068445 260.421875 
L 165.068445 260.421875 
L 165.068445 22.318125 
z
" clip-path="url(#p3614ddbf54)" style="fill: #1f77b4; fill-opacity: 0.5"/>
    </g>
    <g id="patch_4">
     <path d="M 220.36109 22.318125 
L 220.36109 260.421875 
M 321.02016 22.318125 
L 321.02016 260.421875 
" clip-path="url(#p3614ddbf54)" style="fill: none; stroke: #ffffff; stroke-width: 3; stroke-linejoin: miter"/>
     <path d="M 220.36109 22.318125 
L 220.36109 260.421875 
M 321.02016 22.318125 
L 321.02016 260.421875 
" clip-path="url(#p3614ddbf54)" style="fill: none; stroke: #ff7f0e; stroke-linejoin: miter"/>
     <g id="PolyCollection_2">
      <path d="M 321.02016 22.318125 
L 220.36109 22.318125 
L 220.36109 260.421875 
L 321.02016 260.421875 
L 321.02016 260.421875 
L 321.02016 22.318125 
z
" clip-path="url(#p3614ddbf54)" style="fill: #ff7f0e; fill-opacity: 0.5"/>
     </g>
     <g id="patch_5">
      <path d="M 376.312805 22.318125 
L 376.312805 260.421875 
M 476.971875 22.318125 
L 476.971875 260.421875 
" clip-path="url(#p3614ddbf54)" style="fill: none; stroke: #ffffff; stroke-width: 3; stroke-linejoin: miter"/>
      <path d="M 376.312805 22.318125 
L 376.312805 260.421875 
M 476.971875 22.318125 
L 476.971875 260.421875 
" clip-path="url(#p3614ddbf54)" style="fill: none; stroke: #2ca02c; stroke-linejoin: miter"/>
      <g id="PolyCollection_3">
       <path d="M 476.971875 22.318125 
L 376.312805 22.318125 
L 376.312805 260.421875 
L 476.971875 260.421875 
L 476.971875 260.421875 
L 476.971875 22.318125 
z
" clip-path="url(#p3614ddbf54)" style="fill: #2ca02c; fill-opacity: 0.5"/>
      </g>
      <g id="matplotlib.axis_1">
       <g id="xtick_1">
        <g id="line2d_1"/>
        <g id="text_1">
         <!-- deme0 -->
         <g transform="translate(97.360004 271.520312)scale(0.1 -0.1)">
          <defs>
           <path id="DejaVuSans-64" d="M 2906 2969 
L 2906 4863 
L 3481 4863 
L 3481 0 
L 2906 0 
L 2906 525 
Q 2725 213 2448 61 
Q 2172 -91 1784 -91 
Q 1150 -91 751 415 
Q 353 922 353 1747 
Q 353 2572 751 3078 
Q 1150 3584 1784 3584 
Q 2172 3584 2448 3432 
Q 2725 3281 2906 2969 
z
M 947 1747 
Q 947 1113 1208 752 
Q 1469 391 1925 391 
Q 2381 391 2643 752 
Q 2906 1113 2906 1747 
Q 2906 2381 2643 2742 
Q 2381 3103 1925 3103 
Q 1469 3103 1208 2742 
Q 947 2381 947 1747 
z
" transform="scale(0.015625)"/>
           <path id="DejaVuSans-65" d="M 3597 1894 
L 3597 1613 
L 953 1613 
Q 991 1019 1311 708 
Q 1631 397 2203 397 
Q 2534 397 2845 478 
Q 3156 559 3463 722 
L 3463 178 
Q 3153 47 2828 -22 
Q 2503 -91 2169 -91 
Q 1331 -91 842 396 
Q 353 884 353 1716 
Q 353 2575 817 3079 
Q 1281 3584 2069 3584 
Q 2775 3584 3186 3129 
Q 3597 2675 3597 1894 
z
M 3022 2063 
Q 3016 2534 2758 2815 
Q 2500 3097 2075 3097 
Q 1594 3097 1305 2825 
Q 1016 2553 972 2059 
L 3022 2063 
z
" transform="scale(0.015625)"/>
           <path id="DejaVuSans-6d" d="M 3328 2828 
Q 3544 3216 3844 3400 
Q 4144 3584 4550 3584 
Q 5097 3584 5394 3201 
Q 5691 2819 5691 2113 
L 5691 0 
L 5113 0 
L 5113 2094 
Q 5113 2597 4934 2840 
Q 4756 3084 4391 3084 
Q 3944 3084 3684 2787 
Q 3425 2491 3425 1978 
L 3425 0 
L 2847 0 
L 2847 2094 
Q 2847 2600 2669 2842 
Q 2491 3084 2119 3084 
Q 1678 3084 1418 2786 
Q 1159 2488 1159 1978 
L 1159 0 
L 581 0 
L 581 3500 
L 1159 3500 
L 1159 2956 
Q 1356 3278 1631 3431 
Q 1906 3584 2284 3584 
Q 2666 3584 2933 3390 
Q 3200 3197 3328 2828 
z
" transform="scale(0.015625)"/>
           <path id="DejaVuSans-30" d="M 2034 4250 
Q 1547 4250 1301 3770 
Q 1056 3291 1056 2328 
Q 1056 1369 1301 889 
Q 1547 409 2034 409 
Q 2525 409 2770 889 
Q 3016 1369 3016 2328 
Q 3016 3291 2770 3770 
Q 2525 4250 2034 4250 
z
M 2034 4750 
Q 2819 4750 3233 4129 
Q 3647 3509 3647 2328 
Q 3647 1150 3233 529 
Q 2819 -91 2034 -91 
Q 1250 -91 836 529 
Q 422 1150 422 2328 
Q 422 3509 836 4129 
Q 1250 4750 2034 4750 
z
" transform="scale(0.015625)"/>
          </defs>
          <use xlink:href="#DejaVuSans-64"/>
          <use xlink:href="#DejaVuSans-65" x="63.476562"/>
          <use xlink:href="#DejaVuSans-6d" x="125"/>
          <use xlink:href="#DejaVuSans-65" x="222.412109"/>
          <use xlink:href="#DejaVuSans-30" x="283.935547"/>
         </g>
        </g>
       </g>
       <g id="xtick_2">
        <g id="line2d_2"/>
        <g id="text_2">
         <!-- deme1 -->
         <g transform="translate(253.311719 271.520312)scale(0.1 -0.1)">
          <defs>
           <path id="DejaVuSans-31" d="M 794 531 
L 1825 531 
L 1825 4091 
L 703 3866 
L 703 4441 
L 1819 4666 
L 2450 4666 
L 2450 531 
L 3481 531 
L 3481 0 
L 794 0 
L 794 531 
z
" transform="scale(0.015625)"/>
          </defs>
          <use xlink:href="#DejaVuSans-64"/>
          <use xlink:href="#DejaVuSans-65" x="63.476562"/>
          <use xlink:href="#DejaVuSans-6d" x="125"/>
          <use xlink:href="#DejaVuSans-65" x="222.412109"/>
          <use xlink:href="#DejaVuSans-31" x="283.935547"/>
         </g>
        </g>
       </g>
       <g id="xtick_3">
        <g id="line2d_3"/>
        <g id="text_3">
         <!-- deme2 -->
         <g transform="translate(409.263434 271.520312)scale(0.1 -0.1)">
          <defs>
           <path id="DejaVuSans-32" d="M 1228 531 
L 3431 531 
L 3431 0 
L 469 0 
L 469 531 
Q 828 903 1448 1529 
Q 2069 2156 2228 2338 
Q 2531 2678 2651 2914 
Q 2772 3150 2772 3378 
Q 2772 3750 2511 3984 
Q 2250 4219 1831 4219 
Q 1534 4219 1204 4116 
Q 875 4013 500 3803 
L 500 4441 
Q 881 4594 1212 4672 
Q 1544 4750 1819 4750 
Q 2544 4750 2975 4387 
Q 3406 4025 3406 3419 
Q 3406 3131 3298 2873 
Q 3191 2616 2906 2266 
Q 2828 2175 2409 1742 
Q 1991 1309 1228 531 
z
" transform="scale(0.015625)"/>
          </defs>
          <use xlink:href="#DejaVuSans-64"/>
          <use xlink:href="#DejaVuSans-65" x="63.476562"/>
          <use xlink:href="#DejaVuSans-6d" x="125"/>
          <use xlink:href="#DejaVuSans-65" x="222.412109"/>
          <use xlink:href="#DejaVuSans-32" x="283.935547"/>
         </g>
        </g>
       </g>
      </g>
      <g id="matplotlib.axis_2">
       <g id="ytick_1">
        <g id="line2d_4">
         <defs>
          <path id="m9ec9eb83ab" d="M 0 0 
L -3.5 0 
" style="stroke: #000000; stroke-width: 0.8"/>
         </defs>
         <g>
          <use xlink:href="#m9ec9eb83ab" x="43.78125" y="260.421875" style="stroke: #000000; stroke-width: 0.8"/>
         </g>
        </g>
        <g id="text_4">
         <!-- 0.0 -->
         <g transform="translate(20.878125 264.221094)scale(0.1 -0.1)">
          <defs>
           <path id="DejaVuSans-2e" d="M 684 794 
L 1344 794 
L 1344 0 
L 684 0 
L 684 794 
z
" transform="scale(0.015625)"/>
          </defs>
          <use xlink:href="#DejaVuSans-30"/>
          <use xlink:href="#DejaVuSans-2e" x="63.623047"/>
          <use xlink:href="#DejaVuSans-30" x="95.410156"/>
         </g>
        </g>
       </g>
       <g id="ytick_2">
        <g id="line2d_5">
         <g>
          <use xlink:href="#m9ec9eb83ab" x="43.78125" y="212.801125" style="stroke: #000000; stroke-width: 0.8"/>
         </g>
        </g>
        <g id="text_5">
         <!-- 0.5 -->
         <g transform="translate(20.878125 216.600344)scale(0.1 -0.1)">
          <defs>
           <path id="DejaVuSans-35" d="M 691 4666 
L 3169 4666 
L 3169 4134 
L 1269 4134 
L 1269 2991 
Q 1406 3038 1543 3061 
Q 1681 3084 1819 3084 
Q 2600 3084 3056 2656 
Q 3513 2228 3513 1497 
Q 3513 744 3044 326 
Q 2575 -91 1722 -91 
Q 1428 -91 1123 -41 
Q 819 9 494 109 
L 494 744 
Q 775 591 1075 516 
Q 1375 441 1709 441 
Q 2250 441 2565 725 
Q 2881 1009 2881 1497 
Q 2881 1984 2565 2268 
Q 2250 2553 1709 2553 
Q 1456 2553 1204 2497 
Q 953 2441 691 2322 
L 691 4666 
z
" transform="scale(0.015625)"/>
          </defs>
          <use xlink:href="#DejaVuSans-30"/>
          <use xlink:href="#DejaVuSans-2e" x="63.623047"/>
          <use xlink:href="#DejaVuSans-35" x="95.410156"/>
         </g>
        </g>
       </g>
       <g id="ytick_3">
        <g id="line2d_6">
         <g>
          <use xlink:href="#m9ec9eb83ab" x="43.78125" y="165.180375" style="stroke: #000000; stroke-width: 0.8"/>
         </g>
        </g>
        <g id="text_6">
         <!-- 1.0 -->
         <g transform="translate(20.878125 168.979594)scale(0.1 -0.1)">
          <use xlink:href="#DejaVuSans-31"/>
          <use xlink:href="#DejaVuSans-2e" x="63.623047"/>
          <use xlink:href="#DejaVuSans-30" x="95.410156"/>
         </g>
        </g>
       </g>
       <g id="ytick_4">
        <g id="line2d_7">
         <g>
          <use xlink:href="#m9ec9eb83ab" x="43.78125" y="117.559625" style="stroke: #000000; stroke-width: 0.8"/>
         </g>
        </g>
        <g id="text_7">
         <!-- 1.5 -->
         <g transform="translate(20.878125 121.358844)scale(0.1 -0.1)">
          <use xlink:href="#DejaVuSans-31"/>
          <use xlink:href="#DejaVuSans-2e" x="63.623047"/>
          <use xlink:href="#DejaVuSans-35" x="95.410156"/>
         </g>
        </g>
       </g>
       <g id="ytick_5">
        <g id="line2d_8">
         <g>
          <use xlink:href="#m9ec9eb83ab" x="43.78125" y="69.938875" style="stroke: #000000; stroke-width: 0.8"/>
         </g>
        </g>
        <g id="text_8">
         <!-- 2.0 -->
         <g transform="translate(20.878125 73.738094)scale(0.1 -0.1)">
          <use xlink:href="#DejaVuSans-32"/>
          <use xlink:href="#DejaVuSans-2e" x="63.623047"/>
          <use xlink:href="#DejaVuSans-30" x="95.410156"/>
         </g>
        </g>
       </g>
       <g id="ytick_6">
        <g id="line2d_9">
         <g>
          <use xlink:href="#m9ec9eb83ab" x="43.78125" y="22.318125" style="stroke: #000000; stroke-width: 0.8"/>
         </g>
        </g>
        <g id="text_9">
         <!-- 2.5 -->
         <g transform="translate(20.878125 26.117344)scale(0.1 -0.1)">
          <use xlink:href="#DejaVuSans-32"/>
          <use xlink:href="#DejaVuSans-2e" x="63.623047"/>
          <use xlink:href="#DejaVuSans-35" x="95.410156"/>
         </g>
        </g>
       </g>
       <g id="text_10">
        <!-- time ago (generations) -->
        <g transform="translate(14.798438 198.841094)rotate(-90)scale(0.1 -0.1)">
         <defs>
          <path id="DejaVuSans-74" d="M 1172 4494 
L 1172 3500 
L 2356 3500 
L 2356 3053 
L 1172 3053 
L 1172 1153 
Q 1172 725 1289 603 
Q 1406 481 1766 481 
L 2356 481 
L 2356 0 
L 1766 0 
Q 1100 0 847 248 
Q 594 497 594 1153 
L 594 3053 
L 172 3053 
L 172 3500 
L 594 3500 
L 594 4494 
L 1172 4494 
z
" transform="scale(0.015625)"/>
          <path id="DejaVuSans-69" d="M 603 3500 
L 1178 3500 
L 1178 0 
L 603 0 
L 603 3500 
z
M 603 4863 
L 1178 4863 
L 1178 4134 
L 603 4134 
L 603 4863 
z
" transform="scale(0.015625)"/>
          <path id="DejaVuSans-20" transform="scale(0.015625)"/>
          <path id="DejaVuSans-61" d="M 2194 1759 
Q 1497 1759 1228 1600 
Q 959 1441 959 1056 
Q 959 750 1161 570 
Q 1363 391 1709 391 
Q 2188 391 2477 730 
Q 2766 1069 2766 1631 
L 2766 1759 
L 2194 1759 
z
M 3341 1997 
L 3341 0 
L 2766 0 
L 2766 531 
Q 2569 213 2275 61 
Q 1981 -91 1556 -91 
Q 1019 -91 701 211 
Q 384 513 384 1019 
Q 384 1609 779 1909 
Q 1175 2209 1959 2209 
L 2766 2209 
L 2766 2266 
Q 2766 2663 2505 2880 
Q 2244 3097 1772 3097 
Q 1472 3097 1187 3025 
Q 903 2953 641 2809 
L 641 3341 
Q 956 3463 1253 3523 
Q 1550 3584 1831 3584 
Q 2591 3584 2966 3190 
Q 3341 2797 3341 1997 
z
" transform="scale(0.015625)"/>
          <path id="DejaVuSans-67" d="M 2906 1791 
Q 2906 2416 2648 2759 
Q 2391 3103 1925 3103 
Q 1463 3103 1205 2759 
Q 947 2416 947 1791 
Q 947 1169 1205 825 
Q 1463 481 1925 481 
Q 2391 481 2648 825 
Q 2906 1169 2906 1791 
z
M 3481 434 
Q 3481 -459 3084 -895 
Q 2688 -1331 1869 -1331 
Q 1566 -1331 1297 -1286 
Q 1028 -1241 775 -1147 
L 775 -588 
Q 1028 -725 1275 -790 
Q 1522 -856 1778 -856 
Q 2344 -856 2625 -561 
Q 2906 -266 2906 331 
L 2906 616 
Q 2728 306 2450 153 
Q 2172 0 1784 0 
Q 1141 0 747 490 
Q 353 981 353 1791 
Q 353 2603 747 3093 
Q 1141 3584 1784 3584 
Q 2172 3584 2450 3431 
Q 2728 3278 2906 2969 
L 2906 3500 
L 3481 3500 
L 3481 434 
z
" transform="scale(0.015625)"/>
          <path id="DejaVuSans-6f" d="M 1959 3097 
Q 1497 3097 1228 2736 
Q 959 2375 959 1747 
Q 959 1119 1226 758 
Q 1494 397 1959 397 
Q 2419 397 2687 759 
Q 2956 1122 2956 1747 
Q 2956 2369 2687 2733 
Q 2419 3097 1959 3097 
z
M 1959 3584 
Q 2709 3584 3137 3096 
Q 3566 2609 3566 1747 
Q 3566 888 3137 398 
Q 2709 -91 1959 -91 
Q 1206 -91 779 398 
Q 353 888 353 1747 
Q 353 2609 779 3096 
Q 1206 3584 1959 3584 
z
" transform="scale(0.015625)"/>
          <path id="DejaVuSans-28" d="M 1984 4856 
Q 1566 4138 1362 3434 
Q 1159 2731 1159 2009 
Q 1159 1288 1364 580 
Q 1569 -128 1984 -844 
L 1484 -844 
Q 1016 -109 783 600 
Q 550 1309 550 2009 
Q 550 2706 781 3412 
Q 1013 4119 1484 4856 
L 1984 4856 
z
" transform="scale(0.015625)"/>
          <path id="DejaVuSans-6e" d="M 3513 2113 
L 3513 0 
L 2938 0 
L 2938 2094 
Q 2938 2591 2744 2837 
Q 2550 3084 2163 3084 
Q 1697 3084 1428 2787 
Q 1159 2491 1159 1978 
L 1159 0 
L 581 0 
L 581 3500 
L 1159 3500 
L 1159 2956 
Q 1366 3272 1645 3428 
Q 1925 3584 2291 3584 
Q 2894 3584 3203 3211 
Q 3513 2838 3513 2113 
z
" transform="scale(0.015625)"/>
          <path id="DejaVuSans-72" d="M 2631 2963 
Q 2534 3019 2420 3045 
Q 2306 3072 2169 3072 
Q 1681 3072 1420 2755 
Q 1159 2438 1159 1844 
L 1159 0 
L 581 0 
L 581 3500 
L 1159 3500 
L 1159 2956 
Q 1341 3275 1631 3429 
Q 1922 3584 2338 3584 
Q 2397 3584 2469 3576 
Q 2541 3569 2628 3553 
L 2631 2963 
z
" transform="scale(0.015625)"/>
          <path id="DejaVuSans-73" d="M 2834 3397 
L 2834 2853 
Q 2591 2978 2328 3040 
Q 2066 3103 1784 3103 
Q 1356 3103 1142 2972 
Q 928 2841 928 2578 
Q 928 2378 1081 2264 
Q 1234 2150 1697 2047 
L 1894 2003 
Q 2506 1872 2764 1633 
Q 3022 1394 3022 966 
Q 3022 478 2636 193 
Q 2250 -91 1575 -91 
Q 1294 -91 989 -36 
Q 684 19 347 128 
L 347 722 
Q 666 556 975 473 
Q 1284 391 1588 391 
Q 1994 391 2212 530 
Q 2431 669 2431 922 
Q 2431 1156 2273 1281 
Q 2116 1406 1581 1522 
L 1381 1569 
Q 847 1681 609 1914 
Q 372 2147 372 2553 
Q 372 3047 722 3315 
Q 1072 3584 1716 3584 
Q 2034 3584 2315 3537 
Q 2597 3491 2834 3397 
z
" transform="scale(0.015625)"/>
          <path id="DejaVuSans-29" d="M 513 4856 
L 1013 4856 
Q 1481 4119 1714 3412 
Q 1947 2706 1947 2009 
Q 1947 1309 1714 600 
Q 1481 -109 1013 -844 
L 513 -844 
Q 928 -128 1133 580 
Q 1338 1288 1338 2009 
Q 1338 2731 1133 3434 
Q 928 4138 513 4856 
z
" transform="scale(0.015625)"/>
         </defs>
         <use xlink:href="#DejaVuSans-74"/>
         <use xlink:href="#DejaVuSans-69" x="39.208984"/>
         <use xlink:href="#DejaVuSans-6d" x="66.992188"/>
         <use xlink:href="#DejaVuSans-65" x="164.404297"/>
         <use xlink:href="#DejaVuSans-20" x="225.927734"/>
         <use xlink:href="#DejaVuSans-61" x="257.714844"/>
         <use xlink:href="#DejaVuSans-67" x="318.994141"/>
         <use xlink:href="#DejaVuSans-6f" x="382.470703"/>
         <use xlink:href="#DejaVuSans-20" x="443.652344"/>
         <use xlink:href="#DejaVuSans-28" x="475.439453"/>
         <use xlink:href="#DejaVuSans-67" x="514.453125"/>
         <use xlink:href="#DejaVuSans-65" x="577.929688"/>
         <use xlink:href="#DejaVuSans-6e" x="639.453125"/>
         <use xlink:href="#DejaVuSans-65" x="702.832031"/>
         <use xlink:href="#DejaVuSans-72" x="764.355469"/>
         <use xlink:href="#DejaVuSans-61" x="805.46875"/>
         <use xlink:href="#DejaVuSans-74" x="866.748047"/>
         <use xlink:href="#DejaVuSans-69" x="905.957031"/>
         <use xlink:href="#DejaVuSans-6f" x="933.740234"/>
         <use xlink:href="#DejaVuSans-6e" x="994.921875"/>
         <use xlink:href="#DejaVuSans-73" x="1058.300781"/>
         <use xlink:href="#DejaVuSans-29" x="1110.400391"/>
        </g>
       </g>
      </g>
      <path d="M 216.822903 98.797855 
L 214.822903 97.797855 
L 214.822903 99.797855 
z
" clip-path="url(#p3614ddbf54)" style="fill: #1f77b4; fill-opacity: 0.5; stroke: #1f77b4; stroke-opacity: 0.5; stroke-linejoin: miter"/>
      <path d="M 216.822903 113.084067 
L 214.822903 112.084067 
L 214.822903 114.084067 
z
" clip-path="url(#p3614ddbf54)" style="fill: #1f77b4; fill-opacity: 0.5; stroke: #1f77b4; stroke-opacity: 0.5; stroke-linejoin: miter"/>
      <path d="M 216.822903 164.803834 
L 214.822903 163.803834 
L 214.822903 165.803834 
z
" clip-path="url(#p3614ddbf54)" style="fill: #1f77b4; fill-opacity: 0.5; stroke: #1f77b4; stroke-opacity: 0.5; stroke-linejoin: miter"/>
      <path d="M 216.822903 97.010082 
L 214.822903 96.010082 
L 214.822903 98.010082 
z
" clip-path="url(#p3614ddbf54)" style="fill: #1f77b4; fill-opacity: 0.5; stroke: #1f77b4; stroke-opacity: 0.5; stroke-linejoin: miter"/>
      <path d="M 216.822903 130.409948 
L 214.822903 129.409948 
L 214.822903 131.409948 
z
" clip-path="url(#p3614ddbf54)" style="fill: #1f77b4; fill-opacity: 0.5; stroke: #1f77b4; stroke-opacity: 0.5; stroke-linejoin: miter"/>
      <path d="M 216.822903 107.264153 
L 214.822903 106.264153 
L 214.822903 108.264153 
z
" clip-path="url(#p3614ddbf54)" style="fill: #1f77b4; fill-opacity: 0.5; stroke: #1f77b4; stroke-opacity: 0.5; stroke-linejoin: miter"/>
      <path d="M 216.822903 86.374435 
L 214.822903 85.374435 
L 214.822903 87.374435 
z
" clip-path="url(#p3614ddbf54)" style="fill: #1f77b4; fill-opacity: 0.5; stroke: #1f77b4; stroke-opacity: 0.5; stroke-linejoin: miter"/>
      <path d="M 216.822903 93.356627 
L 214.822903 92.356627 
L 214.822903 94.356627 
z
" clip-path="url(#p3614ddbf54)" style="fill: #1f77b4; fill-opacity: 0.5; stroke: #1f77b4; stroke-opacity: 0.5; stroke-linejoin: miter"/>
      <path d="M 216.822903 79.279016 
L 214.822903 78.279016 
L 214.822903 80.279016 
z
" clip-path="url(#p3614ddbf54)" style="fill: #1f77b4; fill-opacity: 0.5; stroke: #1f77b4; stroke-opacity: 0.5; stroke-linejoin: miter"/>
      <path d="M 216.822903 109.065922 
L 214.822903 108.065922 
L 214.822903 110.065922 
z
" clip-path="url(#p3614ddbf54)" style="fill: #1f77b4; fill-opacity: 0.5; stroke: #1f77b4; stroke-opacity: 0.5; stroke-linejoin: miter"/>
      <path d="M 372.774618 88.73145 
L 370.774618 87.73145 
L 370.774618 89.73145 
z
" clip-path="url(#p3614ddbf54)" style="fill: #ff7f0e; fill-opacity: 0.5; stroke: #ff7f0e; stroke-opacity: 0.5; stroke-linejoin: miter"/>
      <path d="M 372.774618 126.594065 
L 370.774618 125.594065 
L 370.774618 127.594065 
z
" clip-path="url(#p3614ddbf54)" style="fill: #ff7f0e; fill-opacity: 0.5; stroke: #ff7f0e; stroke-opacity: 0.5; stroke-linejoin: miter"/>
      <path d="M 372.774618 157.285914 
L 370.774618 156.285914 
L 370.774618 158.285914 
z
" clip-path="url(#p3614ddbf54)" style="fill: #ff7f0e; fill-opacity: 0.5; stroke: #ff7f0e; stroke-opacity: 0.5; stroke-linejoin: miter"/>
      <path d="M 372.774618 91.260467 
L 370.774618 90.260467 
L 370.774618 92.260467 
z
" clip-path="url(#p3614ddbf54)" style="fill: #ff7f0e; fill-opacity: 0.5; stroke: #ff7f0e; stroke-opacity: 0.5; stroke-linejoin: miter"/>
      <path d="M 372.774618 72.904603 
L 370.774618 71.904603 
L 370.774618 73.904603 
z
" clip-path="url(#p3614ddbf54)" style="fill: #ff7f0e; fill-opacity: 0.5; stroke: #ff7f0e; stroke-opacity: 0.5; stroke-linejoin: miter"/>
      <path d="M 372.774618 120.22223 
L 370.774618 119.22223 
L 370.774618 121.22223 
z
" clip-path="url(#p3614ddbf54)" style="fill: #ff7f0e; fill-opacity: 0.5; stroke: #ff7f0e; stroke-opacity: 0.5; stroke-linejoin: miter"/>
      <path d="M 372.774618 121.928984 
L 370.774618 120.928984 
L 370.774618 122.928984 
z
" clip-path="url(#p3614ddbf54)" style="fill: #ff7f0e; fill-opacity: 0.5; stroke: #ff7f0e; stroke-opacity: 0.5; stroke-linejoin: miter"/>
      <path d="M 372.774618 91.47177 
L 370.774618 90.47177 
L 370.774618 92.47177 
z
" clip-path="url(#p3614ddbf54)" style="fill: #ff7f0e; fill-opacity: 0.5; stroke: #ff7f0e; stroke-opacity: 0.5; stroke-linejoin: miter"/>
      <path d="M 372.774618 117.911006 
L 370.774618 116.911006 
L 370.774618 118.911006 
z
" clip-path="url(#p3614ddbf54)" style="fill: #ff7f0e; fill-opacity: 0.5; stroke: #ff7f0e; stroke-opacity: 0.5; stroke-linejoin: miter"/>
      <path d="M 372.774618 144.762785 
L 370.774618 143.762785 
L 370.774618 145.762785 
z
" clip-path="url(#p3614ddbf54)" style="fill: #ff7f0e; fill-opacity: 0.5; stroke: #ff7f0e; stroke-opacity: 0.5; stroke-linejoin: miter"/>
      <g id="patch_6">
       <path d="M 43.78125 260.421875 
L 43.78125 22.318125 
" style="fill: none; stroke: #000000; stroke-width: 0.8; stroke-linejoin: miter; stroke-linecap: square"/>
      </g>
      <g id="text_11">
       <!-- defaults_migration_properties.yaml -->
       <g transform="translate(164.234688 16.318125)scale(0.12 -0.12)">
        <defs>
         <path id="DejaVuSans-66" d="M 2375 4863 
L 2375 4384 
L 1825 4384 
Q 1516 4384 1395 4259 
Q 1275 4134 1275 3809 
L 1275 3500 
L 2222 3500 
L 2222 3053 
L 1275 3053 
L 1275 0 
L 697 0 
L 697 3053 
L 147 3053 
L 147 3500 
L 697 3500 
L 697 3744 
Q 697 4328 969 4595 
Q 1241 4863 1831 4863 
L 2375 4863 
z
" transform="scale(0.015625)"/>
         <path id="DejaVuSans-75" d="M 544 1381 
L 544 3500 
L 1119 3500 
L 1119 1403 
Q 1119 906 1312 657 
Q 1506 409 1894 409 
Q 2359 409 2629 706 
Q 2900 1003 2900 1516 
L 2900 3500 
L 3475 3500 
L 3475 0 
L 2900 0 
L 2900 538 
Q 2691 219 2414 64 
Q 2138 -91 1772 -91 
Q 1169 -91 856 284 
Q 544 659 544 1381 
z
M 1991 3584 
L 1991 3584 
z
" transform="scale(0.015625)"/>
         <path id="DejaVuSans-6c" d="M 603 4863 
L 1178 4863 
L 1178 0 
L 603 0 
L 603 4863 
z
" transform="scale(0.015625)"/>
         <path id="DejaVuSans-5f" d="M 3263 -1063 
L 3263 -1509 
L -63 -1509 
L -63 -1063 
L 3263 -1063 
z
" transform="scale(0.015625)"/>
         <path id="DejaVuSans-70" d="M 1159 525 
L 1159 -1331 
L 581 -1331 
L 581 3500 
L 1159 3500 
L 1159 2969 
Q 1341 3281 1617 3432 
Q 1894 3584 2278 3584 
Q 2916 3584 3314 3078 
Q 3713 2572 3713 1747 
Q 3713 922 3314 415 
Q 2916 -91 2278 -91 
Q 1894 -91 1617 61 
Q 1341 213 1159 525 
z
M 3116 1747 
Q 3116 2381 2855 2742 
Q 2594 3103 2138 3103 
Q 1681 3103 1420 2742 
Q 1159 2381 1159 1747 
Q 1159 1113 1420 752 
Q 1681 391 2138 391 
Q 2594 391 2855 752 
Q 3116 1113 3116 1747 
z
" transform="scale(0.015625)"/>
         <path id="DejaVuSans-79" d="M 2059 -325 
Q 1816 -950 1584 -1140 
Q 1353 -1331 966 -1331 
L 506 -1331 
L 506 -850 
L 844 -850 
Q 1081 -850 1212 -737 
Q 1344 -625 1503 -206 
L 1606 56 
L 191 3500 
L 800 3500 
L 1894 763 
L 2988 3500 
L 3597 3500 
L 2059 -325 
z
" transform="scale(0.015625)"/>
        </defs>
        <use xlink:href="#DejaVuSans-64"/>
        <use xlink:href="#DejaVuSans-65" x="63.476562"/>
        <use xlink:href="#DejaVuSans-66" x="125"/>
        <use xlink:href="#DejaVuSans-61" x="160.205078"/>
        <use xlink:href="#DejaVuSans-75" x="221.484375"/>
        <use xlink:href="#DejaVuSans-6c" x="284.863281"/>
        <use xlink:href="#DejaVuSans-74" x="312.646484"/>
        <use xlink:href="#DejaVuSans-73" x="351.855469"/>
        <use xlink:href="#DejaVuSans-5f" x="403.955078"/>
        <use xlink:href="#DejaVuSans-6d" x="453.955078"/>
        <use xlink:href="#DejaVuSans-69" x="551.367188"/>
        <use xlink:href="#DejaVuSans-67" x="579.150391"/>
        <use xlink:href="#DejaVuSans-72" x="642.626953"/>
        <use xlink:href="#DejaVuSans-61" x="683.740234"/>
        <use xlink:href="#DejaVuSans-74" x="745.019531"/>
        <use xlink:href="#DejaVuSans-69" x="784.228516"/>
        <use xlink:href="#DejaVuSans-6f" x="812.011719"/>
        <use xlink:href="#DejaVuSans-6e" x="873.193359"/>
        <use xlink:href="#DejaVuSans-5f" x="936.572266"/>
        <use xlink:href="#DejaVuSans-70" x="986.572266"/>
        <use xlink:href="#DejaVuSans-72" x="1050.048828"/>
        <use xlink:href="#DejaVuSans-6f" x="1088.912109"/>
        <use xlink:href="#DejaVuSans-70" x="1150.09375"/>
        <use xlink:href="#DejaVuSans-65" x="1213.570312"/>
        <use xlink:href="#DejaVuSans-72" x="1275.09375"/>
        <use xlink:href="#DejaVuSans-74" x="1316.207031"/>
        <use xlink:href="#DejaVuSans-69" x="1355.416016"/>
        <use xlink:href="#DejaVuSans-65" x="1383.199219"/>
        <use xlink:href="#DejaVuSans-73" x="1444.722656"/>
        <use xlink:href="#DejaVuSans-2e" x="1496.822266"/>
        <use xlink:href="#DejaVuSans-79" x="1528.609375"/>
        <use xlink:href="#DejaVuSans-61" x="1587.789062"/>
        <use xlink:href="#DejaVuSans-6d" x="1649.068359"/>
        <use xlink:href="#DejaVuSans-6c" x="1746.480469"/>
       </g>
      </g>
     </g>
    </g>
    <defs>
     <clipPath id="p3614ddbf54">
      <rect x="43.78125" y="22.318125" width="453.81875" height="238.10375"/>
     </clipPath>
    </defs>
   </g>
  </g>
 </g>
</svg>
