<?xml version="1.0" encoding="utf-8" standalone="no"?>
<!DOCTYPE svg PUBLIC "-//W3C//DTD SVG 1.1//EN"
  "http://www.w3.org/Graphics/SVG/1.1/DTD/svg11.dtd">
<svg xmlns:xlink="http://www.w3.org/1999/xlink" width="607.2pt" height="338.4pt" viewBox="0 0 607.2 338.4" xmlns="http://www.w3.org/2000/svg" version="1.1">
 <metadata>
  <rdf:RDF xmlns:dc="http://purl.org/dc/elements/1.1/" xmlns:cc="http://creativecommons.org/ns#" xmlns:rdf="http://www.w3.org/1999/02/22-rdf-syntax-ns#">
   <cc:Work>
    <dc:type rdf:resource="http://purl.org/dc/dcmitype/StillImage"/>
    <dc:date>2022-09-05T14:53:28.513999</dc:date>
    <dc:format>image/svg+xml</dc:format>
    <dc:creator>
     <cc:Agent>
      <dc:title>Matplotlib v3.5.3, https://matplotlib.org/</dc:title>
     </cc:Agent>
    </dc:creator>
   </cc:Work>
  </rdf:RDF>
 </metadata>
 <defs>
  <style type="text/css">*{stroke-linejoin: round; stroke-linecap: butt}</style>
 </defs>
 <g id="figure_1">
  <g id="patch_1">
   <path d="M 0 338.4 
L 607.2 338.4 
L 607.2 0 
L 0 0 
z
" style="fill: #ffffff"/>
  </g>
  <g id="axes_1">
   <g id="patch_2">
    <path d="M 43.78125 318.021875 
L 600 318.021875 
L 600 22.318125 
L 43.78125 22.318125 
z
" style="fill: #ffffff"/>
   </g>
   <path d="M 290.11196 91.5395 
L 291.11196 91.570936 
L 292.11196 91.607876 
L 293.11196 91.705623 
L 294.11196 91.738144 
L 295.11196 91.811769 
L 296.11196 91.850335 
L 297.11196 91.885748 
L 298.11196 91.943388 
L 299.11196 92.013774 
L 300.11196 92.065738 
L 301.11196 92.124828 
L 302.11196 92.213149 
L 303.11196 92.259293 
L 304.11196 92.301704 
L 305.11196 92.332197 
L 306.11196 92.358242 
L 307.11196 92.379442 
L 308.11196 92.433743 
L 309.11196 92.461681 
L 310.11196 92.491405 
L 311.11196 92.516799 
L 312.11196 92.528 
L 313.11196 92.538124 
L 314.11196 92.537919 
L 315.11196 92.528409 
L 316.11196 92.516756 
L 317.11196 92.485727 
L 318.11196 92.474559 
L 319.11196 92.444441 
L 320.11196 92.384664 
L 321.11196 92.347473 
L 322.11196 92.308377 
L 323.11196 92.265937 
L 324.11196 92.233172 
L 325.11196 92.165745 
L 326.11196 92.126619 
L 327.11196 92.083945 
L 328.11196 92.013364 
L 329.11196 91.976973 
L 330.11196 91.91857 
L 331.11196 91.807618 
L 332.11196 91.736959 
L 333.11196 91.62402 
L 334.11196 91.578247 
L 335.11196 91.516963 
L 336.11196 91.468464 
L 337.11196 91.387641 
L 338.11196 91.269123 
L 339.11196 91.198912 
L 340.11196 91.115649 
L 341.11196 91.082508 
L 342.11196 91.03127 
L 343.11196 90.962872 
L 344.11196 90.896657 
L 345.11196 90.819739 
L 346.11196 90.792424 
L 347.11196 90.765946 
L 348.11196 90.743296 
L 349.11196 90.723765 
L 350.11196 90.697371 
L 351.11196 90.6476 
L 352.11196 90.612527 
L 353.66929 90.576661 
" clip-path="url(#p9d92ee5597)" style="fill: none; stroke: #1f77b4; stroke-opacity: 0.5; stroke-width: 0.2; stroke-linecap: square"/>
   <path d="M 290.11196 129.100777 
L 291.11196 129.132214 
L 292.11196 129.169154 
L 293.11196 129.266901 
L 294.11196 129.299422 
L 295.11196 129.373047 
L 296.11196 129.411613 
L 297.11196 129.447026 
L 298.11196 129.504666 
L 299.11196 129.575052 
L 300.11196 129.627016 
L 301.11196 129.686106 
L 302.11196 129.774427 
L 303.11196 129.820571 
L 304.11196 129.862982 
L 305.11196 129.893475 
L 306.11196 129.91952 
L 307.11196 129.94072 
L 308.11196 129.995021 
L 309.11196 130.022958 
L 310.11196 130.052682 
L 311.11196 130.078077 
L 312.11196 130.089278 
L 313.11196 130.099402 
L 314.11196 130.099197 
L 315.11196 130.089687 
L 316.11196 130.078034 
L 317.11196 130.047004 
L 318.11196 130.035837 
L 319.11196 130.005719 
L 320.11196 129.945942 
L 321.11196 129.908751 
L 322.11196 129.869654 
L 323.11196 129.827215 
L 324.11196 129.79445 
L 325.11196 129.727023 
L 326.11196 129.687897 
L 327.11196 129.645223 
L 328.11196 129.574642 
L 329.11196 129.538251 
L 330.11196 129.479848 
L 331.11196 129.368896 
L 332.11196 129.298237 
L 333.11196 129.185297 
L 334.11196 129.139525 
L 335.11196 129.078241 
L 336.11196 129.029742 
L 337.11196 128.948919 
L 338.11196 128.8304 
L 339.11196 128.76019 
L 340.11196 128.676927 
L 341.11196 128.643786 
L 342.11196 128.592548 
L 343.11196 128.52415 
L 344.11196 128.457934 
L 345.11196 128.381017 
L 346.11196 128.353702 
L 347.11196 128.327224 
L 348.11196 128.304574 
L 349.11196 128.285042 
L 350.11196 128.258648 
L 351.11196 128.208878 
L 352.11196 128.173804 
L 353.66929 128.137939 
" clip-path="url(#p9d92ee5597)" style="fill: none; stroke: #1f77b4; stroke-opacity: 0.5; stroke-width: 0.2; stroke-linecap: square"/>
   <path d="M 290.11196 112.393396 
L 291.11196 112.424832 
L 292.11196 112.461773 
L 293.11196 112.559519 
L 294.11196 112.592041 
L 295.11196 112.665665 
L 296.11196 112.704231 
L 297.11196 112.739644 
L 298.11196 112.797284 
L 299.11196 112.86767 
L 300.11196 112.919634 
L 301.11196 112.978724 
L 302.11196 113.067045 
L 303.11196 113.11319 
L 304.11196 113.1556 
L 305.11196 113.186093 
L 306.11196 113.212138 
L 307.11196 113.233338 
L 308.11196 113.287639 
L 309.11196 113.315577 
L 310.11196 113.345301 
L 311.11196 113.370696 
L 312.11196 113.381896 
L 313.11196 113.39202 
L 314.11196 113.391816 
L 315.11196 113.382306 
L 316.11196 113.370652 
L 317.11196 113.339623 
L 318.11196 113.328455 
L 319.11196 113.298337 
L 320.11196 113.238561 
L 321.11196 113.201369 
L 322.11196 113.162273 
L 323.11196 113.119833 
L 324.11196 113.087068 
L 325.11196 113.019642 
L 326.11196 112.980516 
L 327.11196 112.937841 
L 328.11196 112.867261 
L 329.11196 112.83087 
L 330.11196 112.772467 
L 331.11196 112.661514 
L 332.11196 112.590856 
L 333.11196 112.477916 
L 334.11196 112.432143 
L 335.11196 112.37086 
L 336.11196 112.32236 
L 337.11196 112.241538 
L 338.11196 112.123019 
L 339.11196 112.052808 
L 340.11196 111.969546 
L 341.11196 111.936404 
L 342.11196 111.885167 
L 343.11196 111.816768 
L 344.11196 111.750553 
L 345.11196 111.673636 
L 346.11196 111.64632 
L 347.11196 111.619843 
L 348.11196 111.597192 
L 349.11196 111.577661 
L 350.11196 111.551267 
L 351.11196 111.501496 
L 352.11196 111.466423 
L 353.66929 111.430557 
" clip-path="url(#p9d92ee5597)" style="fill: none; stroke: #1f77b4; stroke-opacity: 0.5; stroke-width: 0.2; stroke-linecap: square"/>
   <path d="M 290.11196 153.547463 
L 291.11196 153.578899 
L 292.11196 153.615839 
L 293.11196 153.713586 
L 294.11196 153.746108 
L 295.11196 153.819732 
L 296.11196 153.858298 
L 297.11196 153.893711 
L 298.11196 153.951351 
L 299.11196 154.021737 
L 300.11196 154.073701 
L 301.11196 154.132791 
L 302.11196 154.221112 
L 303.11196 154.267256 
L 304.11196 154.309667 
L 305.11196 154.34016 
L 306.11196 154.366205 
L 307.11196 154.387405 
L 308.11196 154.441706 
L 309.11196 154.469644 
L 310.11196 154.499368 
L 311.11196 154.524762 
L 312.11196 154.535963 
L 313.11196 154.546087 
L 314.11196 154.545883 
L 315.11196 154.536373 
L 316.11196 154.524719 
L 317.11196 154.49369 
L 318.11196 154.482522 
L 319.11196 154.452404 
L 320.11196 154.392627 
L 321.11196 154.355436 
L 322.11196 154.31634 
L 323.11196 154.2739 
L 324.11196 154.241135 
L 325.11196 154.173709 
L 326.11196 154.134583 
L 327.11196 154.091908 
L 328.11196 154.021328 
L 329.11196 153.984937 
L 330.11196 153.926533 
L 331.11196 153.815581 
L 332.11196 153.744923 
L 333.11196 153.631983 
L 334.11196 153.58621 
L 335.11196 153.524927 
L 336.11196 153.476427 
L 337.11196 153.395605 
L 338.11196 153.277086 
L 339.11196 153.206875 
L 340.11196 153.123613 
L 341.11196 153.090471 
L 342.11196 153.039234 
L 343.11196 152.970835 
L 344.11196 152.90462 
L 345.11196 152.827703 
L 346.11196 152.800387 
L 347.11196 152.77391 
L 348.11196 152.751259 
L 349.11196 152.731728 
L 350.11196 152.705334 
L 351.11196 152.655563 
L 352.11196 152.62049 
L 353.66929 152.584624 
" clip-path="url(#p9d92ee5597)" style="fill: none; stroke: #1f77b4; stroke-opacity: 0.5; stroke-width: 0.2; stroke-linecap: square"/>
   <path d="M 290.11196 190.612367 
L 291.11196 190.643804 
L 292.11196 190.680744 
L 293.11196 190.778491 
L 294.11196 190.811012 
L 295.11196 190.884637 
L 296.11196 190.923203 
L 297.11196 190.958616 
L 298.11196 191.016256 
L 299.11196 191.086642 
L 300.11196 191.138606 
L 301.11196 191.197696 
L 302.11196 191.286017 
L 303.11196 191.332161 
L 304.11196 191.374572 
L 305.11196 191.405065 
L 306.11196 191.43111 
L 307.11196 191.45231 
L 308.11196 191.506611 
L 309.11196 191.534548 
L 310.11196 191.564272 
L 311.11196 191.589667 
L 312.11196 191.600868 
L 313.11196 191.610992 
L 314.11196 191.610787 
L 315.11196 191.601277 
L 316.11196 191.589624 
L 317.11196 191.558594 
L 318.11196 191.547427 
L 319.11196 191.517309 
L 320.11196 191.457532 
L 321.11196 191.420341 
L 322.11196 191.381244 
L 323.11196 191.338805 
L 324.11196 191.30604 
L 325.11196 191.238613 
L 326.11196 191.199487 
L 327.11196 191.156813 
L 328.11196 191.086232 
L 329.11196 191.049841 
L 330.11196 190.991438 
L 331.11196 190.880486 
L 332.11196 190.809827 
L 333.11196 190.696887 
L 334.11196 190.651115 
L 335.11196 190.589831 
L 336.11196 190.541332 
L 337.11196 190.460509 
L 338.11196 190.34199 
L 339.11196 190.27178 
L 340.11196 190.188517 
L 341.11196 190.155376 
L 342.11196 190.104138 
L 343.11196 190.03574 
L 344.11196 189.969524 
L 345.11196 189.892607 
L 346.11196 189.865292 
L 347.11196 189.838814 
L 348.11196 189.816164 
L 349.11196 189.796632 
L 350.11196 189.770238 
L 351.11196 189.720468 
L 352.11196 189.685394 
L 353.66929 189.649529 
" clip-path="url(#p9d92ee5597)" style="fill: none; stroke: #1f77b4; stroke-opacity: 0.5; stroke-width: 0.2; stroke-linecap: square"/>
   <path d="M 290.11196 173.753319 
L 291.11196 173.784755 
L 292.11196 173.821696 
L 293.11196 173.919442 
L 294.11196 173.951964 
L 295.11196 174.025588 
L 296.11196 174.064154 
L 297.11196 174.099567 
L 298.11196 174.157207 
L 299.11196 174.227593 
L 300.11196 174.279557 
L 301.11196 174.338647 
L 302.11196 174.426968 
L 303.11196 174.473112 
L 304.11196 174.515523 
L 305.11196 174.546016 
L 306.11196 174.572061 
L 307.11196 174.593261 
L 308.11196 174.647562 
L 309.11196 174.6755 
L 310.11196 174.705224 
L 311.11196 174.730619 
L 312.11196 174.741819 
L 313.11196 174.751943 
L 314.11196 174.751739 
L 315.11196 174.742229 
L 316.11196 174.730575 
L 317.11196 174.699546 
L 318.11196 174.688378 
L 319.11196 174.65826 
L 320.11196 174.598484 
L 321.11196 174.561292 
L 322.11196 174.522196 
L 323.11196 174.479756 
L 324.11196 174.446991 
L 325.11196 174.379565 
L 326.11196 174.340439 
L 327.11196 174.297764 
L 328.11196 174.227184 
L 329.11196 174.190793 
L 330.11196 174.13239 
L 331.11196 174.021437 
L 332.11196 173.950779 
L 333.11196 173.837839 
L 334.11196 173.792066 
L 335.11196 173.730783 
L 336.11196 173.682283 
L 337.11196 173.601461 
L 338.11196 173.482942 
L 339.11196 173.412731 
L 340.11196 173.329469 
L 341.11196 173.296327 
L 342.11196 173.24509 
L 343.11196 173.176691 
L 344.11196 173.110476 
L 345.11196 173.033559 
L 346.11196 173.006243 
L 347.11196 172.979766 
L 348.11196 172.957115 
L 349.11196 172.937584 
L 350.11196 172.91119 
L 351.11196 172.861419 
L 352.11196 172.826346 
L 353.66929 172.79048 
" clip-path="url(#p9d92ee5597)" style="fill: none; stroke: #1f77b4; stroke-opacity: 0.5; stroke-width: 0.2; stroke-linecap: square"/>
   <path d="M 290.11196 178.315478 
L 291.11196 178.346914 
L 292.11196 178.383855 
L 293.11196 178.481601 
L 294.11196 178.514123 
L 295.11196 178.587747 
L 296.11196 178.626313 
L 297.11196 178.661726 
L 298.11196 178.719366 
L 299.11196 178.789752 
L 300.11196 178.841716 
L 301.11196 178.900806 
L 302.11196 178.989127 
L 303.11196 179.035271 
L 304.11196 179.077682 
L 305.11196 179.108175 
L 306.11196 179.13422 
L 307.11196 179.15542 
L 308.11196 179.209721 
L 309.11196 179.237659 
L 310.11196 179.267383 
L 311.11196 179.292778 
L 312.11196 179.303978 
L 313.11196 179.314102 
L 314.11196 179.313898 
L 315.11196 179.304388 
L 316.11196 179.292734 
L 317.11196 179.261705 
L 318.11196 179.250537 
L 319.11196 179.220419 
L 320.11196 179.160642 
L 321.11196 179.123451 
L 322.11196 179.084355 
L 323.11196 179.041915 
L 324.11196 179.00915 
L 325.11196 178.941724 
L 326.11196 178.902598 
L 327.11196 178.859923 
L 328.11196 178.789343 
L 329.11196 178.752952 
L 330.11196 178.694549 
L 331.11196 178.583596 
L 332.11196 178.512938 
L 333.11196 178.399998 
L 334.11196 178.354225 
L 335.11196 178.292942 
L 336.11196 178.244442 
L 337.11196 178.16362 
L 338.11196 178.045101 
L 339.11196 177.97489 
L 340.11196 177.891628 
L 341.11196 177.858486 
L 342.11196 177.807249 
L 343.11196 177.73885 
L 344.11196 177.672635 
L 345.11196 177.595718 
L 346.11196 177.568402 
L 347.11196 177.541925 
L 348.11196 177.519274 
L 349.11196 177.499743 
L 350.11196 177.473349 
L 351.11196 177.423578 
L 352.11196 177.388505 
L 353.66929 177.352639 
" clip-path="url(#p9d92ee5597)" style="fill: none; stroke: #1f77b4; stroke-opacity: 0.5; stroke-width: 0.2; stroke-linecap: square"/>
   <path d="M 290.11196 81.74065 
L 291.11196 81.772086 
L 292.11196 81.809026 
L 293.11196 81.906773 
L 294.11196 81.939295 
L 295.11196 82.012919 
L 296.11196 82.051485 
L 297.11196 82.086898 
L 298.11196 82.144538 
L 299.11196 82.214924 
L 300.11196 82.266888 
L 301.11196 82.325978 
L 302.11196 82.414299 
L 303.11196 82.460443 
L 304.11196 82.502854 
L 305.11196 82.533347 
L 306.11196 82.559392 
L 307.11196 82.580592 
L 308.11196 82.634893 
L 309.11196 82.662831 
L 310.11196 82.692555 
L 311.11196 82.717949 
L 312.11196 82.72915 
L 313.11196 82.739274 
L 314.11196 82.739069 
L 315.11196 82.72956 
L 316.11196 82.717906 
L 317.11196 82.686877 
L 318.11196 82.675709 
L 319.11196 82.645591 
L 320.11196 82.585814 
L 321.11196 82.548623 
L 322.11196 82.509527 
L 323.11196 82.467087 
L 324.11196 82.434322 
L 325.11196 82.366896 
L 326.11196 82.32777 
L 327.11196 82.285095 
L 328.11196 82.214514 
L 329.11196 82.178124 
L 330.11196 82.11972 
L 331.11196 82.008768 
L 332.11196 81.93811 
L 333.11196 81.82517 
L 334.11196 81.779397 
L 335.11196 81.718114 
L 336.11196 81.669614 
L 337.11196 81.588792 
L 338.11196 81.470273 
L 339.11196 81.400062 
L 340.11196 81.3168 
L 341.11196 81.283658 
L 342.11196 81.23242 
L 343.11196 81.164022 
L 344.11196 81.097807 
L 345.11196 81.02089 
L 346.11196 80.993574 
L 347.11196 80.967097 
L 348.11196 80.944446 
L 349.11196 80.924915 
L 350.11196 80.898521 
L 351.11196 80.84875 
L 352.11196 80.813677 
L 353.66929 80.777811 
" clip-path="url(#p9d92ee5597)" style="fill: none; stroke: #1f77b4; stroke-opacity: 0.5; stroke-width: 0.2; stroke-linecap: square"/>
   <path d="M 290.11196 187.544322 
L 291.11196 187.575758 
L 292.11196 187.612698 
L 293.11196 187.710445 
L 294.11196 187.742966 
L 295.11196 187.816591 
L 296.11196 187.855157 
L 297.11196 187.89057 
L 298.11196 187.94821 
L 299.11196 188.018596 
L 300.11196 188.07056 
L 301.11196 188.12965 
L 302.11196 188.217971 
L 303.11196 188.264115 
L 304.11196 188.306526 
L 305.11196 188.337019 
L 306.11196 188.363064 
L 307.11196 188.384264 
L 308.11196 188.438565 
L 309.11196 188.466503 
L 310.11196 188.496227 
L 311.11196 188.521621 
L 312.11196 188.532822 
L 313.11196 188.542946 
L 314.11196 188.542741 
L 315.11196 188.533232 
L 316.11196 188.521578 
L 317.11196 188.490549 
L 318.11196 188.479381 
L 319.11196 188.449263 
L 320.11196 188.389486 
L 321.11196 188.352295 
L 322.11196 188.313199 
L 323.11196 188.270759 
L 324.11196 188.237994 
L 325.11196 188.170567 
L 326.11196 188.131442 
L 327.11196 188.088767 
L 328.11196 188.018186 
L 329.11196 187.981796 
L 330.11196 187.923392 
L 331.11196 187.81244 
L 332.11196 187.741781 
L 333.11196 187.628842 
L 334.11196 187.583069 
L 335.11196 187.521786 
L 336.11196 187.473286 
L 337.11196 187.392464 
L 338.11196 187.273945 
L 339.11196 187.203734 
L 340.11196 187.120471 
L 341.11196 187.08733 
L 342.11196 187.036092 
L 343.11196 186.967694 
L 344.11196 186.901479 
L 345.11196 186.824562 
L 346.11196 186.797246 
L 347.11196 186.770769 
L 348.11196 186.748118 
L 349.11196 186.728587 
L 350.11196 186.702193 
L 351.11196 186.652422 
L 352.11196 186.617349 
L 353.66929 186.581483 
" clip-path="url(#p9d92ee5597)" style="fill: none; stroke: #1f77b4; stroke-opacity: 0.5; stroke-width: 0.2; stroke-linecap: square"/>
   <path d="M 290.11196 160.297263 
L 291.11196 160.3287 
L 292.11196 160.36564 
L 293.11196 160.463387 
L 294.11196 160.495908 
L 295.11196 160.569533 
L 296.11196 160.608098 
L 297.11196 160.643512 
L 298.11196 160.701152 
L 299.11196 160.771538 
L 300.11196 160.823502 
L 301.11196 160.882592 
L 302.11196 160.970913 
L 303.11196 161.017057 
L 304.11196 161.059468 
L 305.11196 161.089961 
L 306.11196 161.116006 
L 307.11196 161.137206 
L 308.11196 161.191507 
L 309.11196 161.219444 
L 310.11196 161.249168 
L 311.11196 161.274563 
L 312.11196 161.285763 
L 313.11196 161.295887 
L 314.11196 161.295683 
L 315.11196 161.286173 
L 316.11196 161.27452 
L 317.11196 161.24349 
L 318.11196 161.232322 
L 319.11196 161.202205 
L 320.11196 161.142428 
L 321.11196 161.105236 
L 322.11196 161.06614 
L 323.11196 161.023701 
L 324.11196 160.990936 
L 325.11196 160.923509 
L 326.11196 160.884383 
L 327.11196 160.841709 
L 328.11196 160.771128 
L 329.11196 160.734737 
L 330.11196 160.676334 
L 331.11196 160.565381 
L 332.11196 160.494723 
L 333.11196 160.381783 
L 334.11196 160.33601 
L 335.11196 160.274727 
L 336.11196 160.226228 
L 337.11196 160.145405 
L 338.11196 160.026886 
L 339.11196 159.956676 
L 340.11196 159.873413 
L 341.11196 159.840271 
L 342.11196 159.789034 
L 343.11196 159.720636 
L 344.11196 159.65442 
L 345.11196 159.577503 
L 346.11196 159.550188 
L 347.11196 159.52371 
L 348.11196 159.50106 
L 349.11196 159.481528 
L 350.11196 159.455134 
L 351.11196 159.405363 
L 352.11196 159.37029 
L 353.66929 159.334425 
" clip-path="url(#p9d92ee5597)" style="fill: none; stroke: #1f77b4; stroke-opacity: 0.5; stroke-width: 0.2; stroke-linecap: square"/>
   <path d="M 290.11196 236.000645 
L 291.11196 236.032082 
L 292.11196 236.069022 
L 293.11196 236.166769 
L 294.11196 236.19929 
L 295.11196 236.272915 
L 296.11196 236.31148 
L 297.11196 236.346894 
L 298.11196 236.404534 
L 299.11196 236.47492 
L 300.11196 236.526884 
L 301.11196 236.585974 
L 302.11196 236.674295 
L 303.11196 236.720439 
L 304.11196 236.76285 
L 305.11196 236.793343 
L 306.11196 236.819388 
L 307.11196 236.840588 
L 308.11196 236.894889 
L 309.11196 236.922826 
L 310.11196 236.95255 
L 311.11196 236.977945 
L 312.11196 236.989145 
L 313.11196 236.999269 
L 314.11196 236.999065 
L 315.11196 236.989555 
L 316.11196 236.977902 
L 317.11196 236.946872 
L 318.11196 236.935704 
L 319.11196 236.905587 
L 320.11196 236.84581 
L 321.11196 236.808618 
L 322.11196 236.769522 
L 323.11196 236.727083 
L 324.11196 236.694318 
L 325.11196 236.626891 
L 326.11196 236.587765 
L 327.11196 236.545091 
L 328.11196 236.47451 
L 329.11196 236.438119 
L 330.11196 236.379716 
L 331.11196 236.268763 
L 332.11196 236.198105 
L 333.11196 236.085165 
L 334.11196 236.039392 
L 335.11196 235.978109 
L 336.11196 235.92961 
L 337.11196 235.848787 
L 338.11196 235.730268 
L 339.11196 235.660058 
L 340.11196 235.576795 
L 341.11196 235.543653 
L 342.11196 235.492416 
L 343.11196 235.424018 
L 344.11196 235.357802 
L 345.11196 235.280885 
L 346.11196 235.25357 
L 347.11196 235.227092 
L 348.11196 235.204442 
L 349.11196 235.18491 
L 350.11196 235.158516 
L 351.11196 235.108746 
L 352.11196 235.073672 
L 353.66929 235.037807 
" clip-path="url(#p9d92ee5597)" style="fill: none; stroke: #1f77b4; stroke-opacity: 0.5; stroke-width: 0.2; stroke-linecap: square"/>
   <path d="M 290.11196 227.147545 
L 291.11196 227.178982 
L 292.11196 227.215922 
L 293.11196 227.313669 
L 294.11196 227.34619 
L 295.11196 227.419815 
L 296.11196 227.458381 
L 297.11196 227.493794 
L 298.11196 227.551434 
L 299.11196 227.62182 
L 300.11196 227.673784 
L 301.11196 227.732874 
L 302.11196 227.821195 
L 303.11196 227.867339 
L 304.11196 227.90975 
L 305.11196 227.940243 
L 306.11196 227.966288 
L 307.11196 227.987488 
L 308.11196 228.041789 
L 309.11196 228.069726 
L 310.11196 228.09945 
L 311.11196 228.124845 
L 312.11196 228.136046 
L 313.11196 228.14617 
L 314.11196 228.145965 
L 315.11196 228.136455 
L 316.11196 228.124802 
L 317.11196 228.093772 
L 318.11196 228.082605 
L 319.11196 228.052487 
L 320.11196 227.99271 
L 321.11196 227.955519 
L 322.11196 227.916422 
L 323.11196 227.873983 
L 324.11196 227.841218 
L 325.11196 227.773791 
L 326.11196 227.734665 
L 327.11196 227.691991 
L 328.11196 227.62141 
L 329.11196 227.585019 
L 330.11196 227.526616 
L 331.11196 227.415664 
L 332.11196 227.345005 
L 333.11196 227.232065 
L 334.11196 227.186293 
L 335.11196 227.125009 
L 336.11196 227.07651 
L 337.11196 226.995687 
L 338.11196 226.877168 
L 339.11196 226.806958 
L 340.11196 226.723695 
L 341.11196 226.690554 
L 342.11196 226.639316 
L 343.11196 226.570918 
L 344.11196 226.504702 
L 345.11196 226.427785 
L 346.11196 226.40047 
L 347.11196 226.373992 
L 348.11196 226.351342 
L 349.11196 226.33181 
L 350.11196 226.305416 
L 351.11196 226.255646 
L 352.11196 226.220572 
L 353.66929 226.184707 
" clip-path="url(#p9d92ee5597)" style="fill: none; stroke: #1f77b4; stroke-opacity: 0.5; stroke-width: 0.2; stroke-linecap: square"/>
   <path d="M 290.11196 258.382314 
L 291.11196 258.41375 
L 292.11196 258.45069 
L 293.11196 258.548437 
L 294.11196 258.580959 
L 295.11196 258.654583 
L 296.11196 258.693149 
L 297.11196 258.728562 
L 298.11196 258.786202 
L 299.11196 258.856588 
L 300.11196 258.908552 
L 301.11196 258.967642 
L 302.11196 259.055963 
L 303.11196 259.102107 
L 304.11196 259.144518 
L 305.11196 259.175011 
L 306.11196 259.201056 
L 307.11196 259.222256 
L 308.11196 259.276557 
L 309.11196 259.304495 
L 310.11196 259.334219 
L 311.11196 259.359613 
L 312.11196 259.370814 
L 313.11196 259.380938 
L 314.11196 259.380733 
L 315.11196 259.371224 
L 316.11196 259.35957 
L 317.11196 259.328541 
L 318.11196 259.317373 
L 319.11196 259.287255 
L 320.11196 259.227478 
L 321.11196 259.190287 
L 322.11196 259.151191 
L 323.11196 259.108751 
L 324.11196 259.075986 
L 325.11196 259.00856 
L 326.11196 258.969434 
L 327.11196 258.926759 
L 328.11196 258.856178 
L 329.11196 258.819788 
L 330.11196 258.761384 
L 331.11196 258.650432 
L 332.11196 258.579774 
L 333.11196 258.466834 
L 334.11196 258.421061 
L 335.11196 258.359778 
L 336.11196 258.311278 
L 337.11196 258.230456 
L 338.11196 258.111937 
L 339.11196 258.041726 
L 340.11196 257.958464 
L 341.11196 257.925322 
L 342.11196 257.874084 
L 343.11196 257.805686 
L 344.11196 257.739471 
L 345.11196 257.662554 
L 346.11196 257.635238 
L 347.11196 257.608761 
L 348.11196 257.58611 
L 349.11196 257.566579 
L 350.11196 257.540185 
L 351.11196 257.490414 
L 352.11196 257.455341 
L 353.66929 257.419475 
" clip-path="url(#p9d92ee5597)" style="fill: none; stroke: #1f77b4; stroke-opacity: 0.5; stroke-width: 0.2; stroke-linecap: square"/>
   <path d="M 290.11196 214.603838 
L 291.11196 214.635275 
L 292.11196 214.672215 
L 293.11196 214.769962 
L 294.11196 214.802483 
L 295.11196 214.876108 
L 296.11196 214.914674 
L 297.11196 214.950087 
L 298.11196 215.007727 
L 299.11196 215.078113 
L 300.11196 215.130077 
L 301.11196 215.189167 
L 302.11196 215.277488 
L 303.11196 215.323632 
L 304.11196 215.366043 
L 305.11196 215.396536 
L 306.11196 215.422581 
L 307.11196 215.443781 
L 308.11196 215.498082 
L 309.11196 215.526019 
L 310.11196 215.555743 
L 311.11196 215.581138 
L 312.11196 215.592339 
L 313.11196 215.602463 
L 314.11196 215.602258 
L 315.11196 215.592748 
L 316.11196 215.581095 
L 317.11196 215.550065 
L 318.11196 215.538898 
L 319.11196 215.50878 
L 320.11196 215.449003 
L 321.11196 215.411812 
L 322.11196 215.372715 
L 323.11196 215.330276 
L 324.11196 215.297511 
L 325.11196 215.230084 
L 326.11196 215.190958 
L 327.11196 215.148284 
L 328.11196 215.077703 
L 329.11196 215.041312 
L 330.11196 214.982909 
L 331.11196 214.871957 
L 332.11196 214.801298 
L 333.11196 214.688358 
L 334.11196 214.642586 
L 335.11196 214.581302 
L 336.11196 214.532803 
L 337.11196 214.45198 
L 338.11196 214.333461 
L 339.11196 214.263251 
L 340.11196 214.179988 
L 341.11196 214.146846 
L 342.11196 214.095609 
L 343.11196 214.027211 
L 344.11196 213.960995 
L 345.11196 213.884078 
L 346.11196 213.856763 
L 347.11196 213.830285 
L 348.11196 213.807635 
L 349.11196 213.788103 
L 350.11196 213.761709 
L 351.11196 213.711939 
L 352.11196 213.676865 
L 353.66929 213.641 
" clip-path="url(#p9d92ee5597)" style="fill: none; stroke: #1f77b4; stroke-opacity: 0.5; stroke-width: 0.2; stroke-linecap: square"/>
   <path d="M 290.11196 314.66243 
L 291.11196 314.693866 
L 292.11196 314.730806 
L 293.11196 314.828553 
L 294.11196 314.861075 
L 295.11196 314.934699 
L 296.11196 314.973265 
L 297.11196 315.008678 
L 298.11196 315.066318 
L 299.11196 315.136704 
L 300.11196 315.188668 
L 301.11196 315.247758 
L 302.11196 315.336079 
L 303.11196 315.382223 
L 304.11196 315.424634 
L 305.11196 315.455127 
L 306.11196 315.481172 
L 307.11196 315.502372 
L 308.11196 315.556673 
L 309.11196 315.584611 
L 310.11196 315.614335 
L 311.11196 315.639729 
L 312.11196 315.65093 
L 313.11196 315.661054 
L 314.11196 315.660849 
L 315.11196 315.65134 
L 316.11196 315.639686 
L 317.11196 315.608657 
L 318.11196 315.597489 
L 319.11196 315.567371 
L 320.11196 315.507594 
L 321.11196 315.470403 
L 322.11196 315.431307 
L 323.11196 315.388867 
L 324.11196 315.356102 
L 325.11196 315.288676 
L 326.11196 315.24955 
L 327.11196 315.206875 
L 328.11196 315.136295 
L 329.11196 315.099904 
L 330.11196 315.0415 
L 331.11196 314.930548 
L 332.11196 314.85989 
L 333.11196 314.74695 
L 334.11196 314.701177 
L 335.11196 314.639894 
L 336.11196 314.591394 
L 337.11196 314.510572 
L 338.11196 314.392053 
L 339.11196 314.321842 
L 340.11196 314.23858 
L 341.11196 314.205438 
L 342.11196 314.154201 
L 343.11196 314.085802 
L 344.11196 314.019587 
L 345.11196 313.94267 
L 346.11196 313.915354 
L 347.11196 313.888877 
L 348.11196 313.866226 
L 349.11196 313.846695 
L 350.11196 313.820301 
L 351.11196 313.77053 
L 352.11196 313.735457 
L 353.66929 313.699591 
" clip-path="url(#p9d92ee5597)" style="fill: none; stroke: #1f77b4; stroke-opacity: 0.5; stroke-width: 0.2; stroke-linecap: square"/>
   <path d="M 290.11196 302.292867 
L 291.11196 302.324304 
L 292.11196 302.361244 
L 293.11196 302.45899 
L 294.11196 302.491512 
L 295.11196 302.565137 
L 296.11196 302.603702 
L 297.11196 302.639115 
L 298.11196 302.696755 
L 299.11196 302.767142 
L 300.11196 302.819106 
L 301.11196 302.878196 
L 302.11196 302.966517 
L 303.11196 303.012661 
L 304.11196 303.055072 
L 305.11196 303.085564 
L 306.11196 303.111609 
L 307.11196 303.132809 
L 308.11196 303.187111 
L 309.11196 303.215048 
L 310.11196 303.244772 
L 311.11196 303.270167 
L 312.11196 303.281367 
L 313.11196 303.291491 
L 314.11196 303.291287 
L 315.11196 303.281777 
L 316.11196 303.270124 
L 317.11196 303.239094 
L 318.11196 303.227926 
L 319.11196 303.197809 
L 320.11196 303.138032 
L 321.11196 303.10084 
L 322.11196 303.061744 
L 323.11196 303.019305 
L 324.11196 302.986539 
L 325.11196 302.919113 
L 326.11196 302.879987 
L 327.11196 302.837313 
L 328.11196 302.766732 
L 329.11196 302.730341 
L 330.11196 302.671938 
L 331.11196 302.560985 
L 332.11196 302.490327 
L 333.11196 302.377387 
L 334.11196 302.331614 
L 335.11196 302.270331 
L 336.11196 302.221832 
L 337.11196 302.141009 
L 338.11196 302.02249 
L 339.11196 301.95228 
L 340.11196 301.869017 
L 341.11196 301.835875 
L 342.11196 301.784638 
L 343.11196 301.71624 
L 344.11196 301.650024 
L 345.11196 301.573107 
L 346.11196 301.545792 
L 347.11196 301.519314 
L 348.11196 301.496663 
L 349.11196 301.477132 
L 350.11196 301.450738 
L 351.11196 301.400967 
L 352.11196 301.365894 
L 353.66929 301.330029 
" clip-path="url(#p9d92ee5597)" style="fill: none; stroke: #1f77b4; stroke-opacity: 0.5; stroke-width: 0.2; stroke-linecap: square"/>
   <path d="M 290.11196 300.840987 
L 291.11196 300.872423 
L 292.11196 300.909364 
L 293.11196 301.00711 
L 294.11196 301.039632 
L 295.11196 301.113257 
L 296.11196 301.151822 
L 297.11196 301.187235 
L 298.11196 301.244875 
L 299.11196 301.315262 
L 300.11196 301.367226 
L 301.11196 301.426315 
L 302.11196 301.514636 
L 303.11196 301.560781 
L 304.11196 301.603192 
L 305.11196 301.633684 
L 306.11196 301.659729 
L 307.11196 301.680929 
L 308.11196 301.73523 
L 309.11196 301.763168 
L 310.11196 301.792892 
L 311.11196 301.818287 
L 312.11196 301.829487 
L 313.11196 301.839611 
L 314.11196 301.839407 
L 315.11196 301.829897 
L 316.11196 301.818243 
L 317.11196 301.787214 
L 318.11196 301.776046 
L 319.11196 301.745929 
L 320.11196 301.686152 
L 321.11196 301.64896 
L 322.11196 301.609864 
L 323.11196 301.567424 
L 324.11196 301.534659 
L 325.11196 301.467233 
L 326.11196 301.428107 
L 327.11196 301.385432 
L 328.11196 301.314852 
L 329.11196 301.278461 
L 330.11196 301.220058 
L 331.11196 301.109105 
L 332.11196 301.038447 
L 333.11196 300.925507 
L 334.11196 300.879734 
L 335.11196 300.818451 
L 336.11196 300.769952 
L 337.11196 300.689129 
L 338.11196 300.57061 
L 339.11196 300.500399 
L 340.11196 300.417137 
L 341.11196 300.383995 
L 342.11196 300.332758 
L 343.11196 300.26436 
L 344.11196 300.198144 
L 345.11196 300.121227 
L 346.11196 300.093912 
L 347.11196 300.067434 
L 348.11196 300.044783 
L 349.11196 300.025252 
L 350.11196 299.998858 
L 351.11196 299.949087 
L 352.11196 299.914014 
L 353.66929 299.878148 
" clip-path="url(#p9d92ee5597)" style="fill: none; stroke: #1f77b4; stroke-opacity: 0.5; stroke-width: 0.2; stroke-linecap: square"/>
   <path d="M 290.11196 231.684287 
L 291.11196 231.715723 
L 292.11196 231.752664 
L 293.11196 231.85041 
L 294.11196 231.882932 
L 295.11196 231.956557 
L 296.11196 231.995122 
L 297.11196 232.030535 
L 298.11196 232.088175 
L 299.11196 232.158561 
L 300.11196 232.210526 
L 301.11196 232.269615 
L 302.11196 232.357936 
L 303.11196 232.404081 
L 304.11196 232.446492 
L 305.11196 232.476984 
L 306.11196 232.503029 
L 307.11196 232.524229 
L 308.11196 232.57853 
L 309.11196 232.606468 
L 310.11196 232.636192 
L 311.11196 232.661587 
L 312.11196 232.672787 
L 313.11196 232.682911 
L 314.11196 232.682707 
L 315.11196 232.673197 
L 316.11196 232.661543 
L 317.11196 232.630514 
L 318.11196 232.619346 
L 319.11196 232.589229 
L 320.11196 232.529452 
L 321.11196 232.49226 
L 322.11196 232.453164 
L 323.11196 232.410724 
L 324.11196 232.377959 
L 325.11196 232.310533 
L 326.11196 232.271407 
L 327.11196 232.228732 
L 328.11196 232.158152 
L 329.11196 232.121761 
L 330.11196 232.063358 
L 331.11196 231.952405 
L 332.11196 231.881747 
L 333.11196 231.768807 
L 334.11196 231.723034 
L 335.11196 231.661751 
L 336.11196 231.613252 
L 337.11196 231.532429 
L 338.11196 231.41391 
L 339.11196 231.343699 
L 340.11196 231.260437 
L 341.11196 231.227295 
L 342.11196 231.176058 
L 343.11196 231.107659 
L 344.11196 231.041444 
L 345.11196 230.964527 
L 346.11196 230.937211 
L 347.11196 230.910734 
L 348.11196 230.888083 
L 349.11196 230.868552 
L 350.11196 230.842158 
L 351.11196 230.792387 
L 352.11196 230.757314 
L 353.66929 230.721448 
" clip-path="url(#p9d92ee5597)" style="fill: none; stroke: #1f77b4; stroke-opacity: 0.5; stroke-width: 0.2; stroke-linecap: square"/>
   <path d="M 290.11196 205.845272 
L 291.11196 205.876708 
L 292.11196 205.913648 
L 293.11196 206.011395 
L 294.11196 206.043917 
L 295.11196 206.117541 
L 296.11196 206.156107 
L 297.11196 206.19152 
L 298.11196 206.24916 
L 299.11196 206.319546 
L 300.11196 206.37151 
L 301.11196 206.4306 
L 302.11196 206.518921 
L 303.11196 206.565065 
L 304.11196 206.607476 
L 305.11196 206.637969 
L 306.11196 206.664014 
L 307.11196 206.685214 
L 308.11196 206.739515 
L 309.11196 206.767453 
L 310.11196 206.797177 
L 311.11196 206.822571 
L 312.11196 206.833772 
L 313.11196 206.843896 
L 314.11196 206.843691 
L 315.11196 206.834182 
L 316.11196 206.822528 
L 317.11196 206.791499 
L 318.11196 206.780331 
L 319.11196 206.750213 
L 320.11196 206.690436 
L 321.11196 206.653245 
L 322.11196 206.614149 
L 323.11196 206.571709 
L 324.11196 206.538944 
L 325.11196 206.471518 
L 326.11196 206.432392 
L 327.11196 206.389717 
L 328.11196 206.319136 
L 329.11196 206.282746 
L 330.11196 206.224342 
L 331.11196 206.11339 
L 332.11196 206.042732 
L 333.11196 205.929792 
L 334.11196 205.884019 
L 335.11196 205.822736 
L 336.11196 205.774236 
L 337.11196 205.693414 
L 338.11196 205.574895 
L 339.11196 205.504684 
L 340.11196 205.421422 
L 341.11196 205.38828 
L 342.11196 205.337042 
L 343.11196 205.268644 
L 344.11196 205.202429 
L 345.11196 205.125512 
L 346.11196 205.098196 
L 347.11196 205.071719 
L 348.11196 205.049068 
L 349.11196 205.029537 
L 350.11196 205.003143 
L 351.11196 204.953372 
L 352.11196 204.918299 
L 353.66929 204.882433 
" clip-path="url(#p9d92ee5597)" style="fill: none; stroke: #1f77b4; stroke-opacity: 0.5; stroke-width: 0.2; stroke-linecap: square"/>
   <path d="M 290.11196 290.42898 
L 291.11196 290.460416 
L 292.11196 290.497356 
L 293.11196 290.595103 
L 294.11196 290.627624 
L 295.11196 290.701249 
L 296.11196 290.739815 
L 297.11196 290.775228 
L 298.11196 290.832868 
L 299.11196 290.903254 
L 300.11196 290.955218 
L 301.11196 291.014308 
L 302.11196 291.102629 
L 303.11196 291.148773 
L 304.11196 291.191184 
L 305.11196 291.221677 
L 306.11196 291.247722 
L 307.11196 291.268922 
L 308.11196 291.323223 
L 309.11196 291.351161 
L 310.11196 291.380885 
L 311.11196 291.406279 
L 312.11196 291.41748 
L 313.11196 291.427604 
L 314.11196 291.427399 
L 315.11196 291.41789 
L 316.11196 291.406236 
L 317.11196 291.375207 
L 318.11196 291.364039 
L 319.11196 291.333921 
L 320.11196 291.274144 
L 321.11196 291.236953 
L 322.11196 291.197857 
L 323.11196 291.155417 
L 324.11196 291.122652 
L 325.11196 291.055225 
L 326.11196 291.0161 
L 327.11196 290.973425 
L 328.11196 290.902844 
L 329.11196 290.866454 
L 330.11196 290.80805 
L 331.11196 290.697098 
L 332.11196 290.626439 
L 333.11196 290.5135 
L 334.11196 290.467727 
L 335.11196 290.406444 
L 336.11196 290.357944 
L 337.11196 290.277122 
L 338.11196 290.158603 
L 339.11196 290.088392 
L 340.11196 290.005129 
L 341.11196 289.971988 
L 342.11196 289.92075 
L 343.11196 289.852352 
L 344.11196 289.786137 
L 345.11196 289.70922 
L 346.11196 289.681904 
L 347.11196 289.655427 
L 348.11196 289.632776 
L 349.11196 289.613245 
L 350.11196 289.586851 
L 351.11196 289.53708 
L 352.11196 289.502007 
L 353.66929 289.466141 
" clip-path="url(#p9d92ee5597)" style="fill: none; stroke: #1f77b4; stroke-opacity: 0.5; stroke-width: 0.2; stroke-linecap: square"/>
   <g id="patch_3">
    <path d="M 69.06392 22.318125 
L 69.06392 318.021875 
M 284.549772 22.318125 
L 284.549772 318.021875 
" clip-path="url(#p9d92ee5597)" style="fill: none; stroke: #ffffff; stroke-width: 3; stroke-linejoin: miter"/>
    <path d="M 69.06392 22.318125 
L 69.06392 318.021875 
M 284.549772 22.318125 
L 284.549772 318.021875 
" clip-path="url(#p9d92ee5597)" style="fill: none; stroke: #1f77b4; stroke-linejoin: miter"/>
    <g id="PolyCollection_1">
     <path d="M 284.549772 22.318125 
L 69.06392 22.318125 
L 69.06392 318.021875 
L 284.549772 318.021875 
L 284.549772 318.021875 
L 284.549772 22.318125 
z
" clip-path="url(#p9d92ee5597)" style="fill: #1f77b4; fill-opacity: 0.5"/>
    </g>
    <g id="patch_4">
     <path d="M 359.231478 22.318125 
L 359.231478 318.021875 
M 574.71733 22.318125 
L 574.71733 318.021875 
" clip-path="url(#p9d92ee5597)" style="fill: none; stroke: #ffffff; stroke-width: 3; stroke-linejoin: miter"/>
     <path d="M 359.231478 22.318125 
L 359.231478 318.021875 
M 574.71733 22.318125 
L 574.71733 318.021875 
" clip-path="url(#p9d92ee5597)" style="fill: none; stroke: #ff7f0e; stroke-linejoin: miter"/>
     <g id="PolyCollection_2">
      <path d="M 574.71733 22.318125 
L 359.231478 22.318125 
L 359.231478 318.021875 
L 574.71733 318.021875 
L 574.71733 318.021875 
L 574.71733 22.318125 
z
" clip-path="url(#p9d92ee5597)" style="fill: #ff7f0e; fill-opacity: 0.5"/>
     </g>
     <g id="matplotlib.axis_1">
      <g id="xtick_1">
       <g id="line2d_1"/>
       <g id="text_1">
        <!-- deme0 -->
        <g transform="translate(159.42794 329.120312)scale(0.1 -0.1)">
         <defs>
          <path id="DejaVuSans-64" d="M 2906 2969 
L 2906 4863 
L 3481 4863 
L 3481 0 
L 2906 0 
L 2906 525 
Q 2725 213 2448 61 
Q 2172 -91 1784 -91 
Q 1150 -91 751 415 
Q 353 922 353 1747 
Q 353 2572 751 3078 
Q 1150 3584 1784 3584 
Q 2172 3584 2448 3432 
Q 2725 3281 2906 2969 
z
M 947 1747 
Q 947 1113 1208 752 
Q 1469 391 1925 391 
Q 2381 391 2643 752 
Q 2906 1113 2906 1747 
Q 2906 2381 2643 2742 
Q 2381 3103 1925 3103 
Q 1469 3103 1208 2742 
Q 947 2381 947 1747 
z
" transform="scale(0.015625)"/>
          <path id="DejaVuSans-65" d="M 3597 1894 
L 3597 1613 
L 953 1613 
Q 991 1019 1311 708 
Q 1631 397 2203 397 
Q 2534 397 2845 478 
Q 3156 559 3463 722 
L 3463 178 
Q 3153 47 2828 -22 
Q 2503 -91 2169 -91 
Q 1331 -91 842 396 
Q 353 884 353 1716 
Q 353 2575 817 3079 
Q 1281 3584 2069 3584 
Q 2775 3584 3186 3129 
Q 3597 2675 3597 1894 
z
M 3022 2063 
Q 3016 2534 2758 2815 
Q 2500 3097 2075 3097 
Q 1594 3097 1305 2825 
Q 1016 2553 972 2059 
L 3022 2063 
z
" transform="scale(0.015625)"/>
          <path id="DejaVuSans-6d" d="M 3328 2828 
Q 3544 3216 3844 3400 
Q 4144 3584 4550 3584 
Q 5097 3584 5394 3201 
Q 5691 2819 5691 2113 
L 5691 0 
L 5113 0 
L 5113 2094 
Q 5113 2597 4934 2840 
Q 4756 3084 4391 3084 
Q 3944 3084 3684 2787 
Q 3425 2491 3425 1978 
L 3425 0 
L 2847 0 
L 2847 2094 
Q 2847 2600 2669 2842 
Q 2491 3084 2119 3084 
Q 1678 3084 1418 2786 
Q 1159 2488 1159 1978 
L 1159 0 
L 581 0 
L 581 3500 
L 1159 3500 
L 1159 2956 
Q 1356 3278 1631 3431 
Q 1906 3584 2284 3584 
Q 2666 3584 2933 3390 
Q 3200 3197 3328 2828 
z
" transform="scale(0.015625)"/>
          <path id="DejaVuSans-30" d="M 2034 4250 
Q 1547 4250 1301 3770 
Q 1056 3291 1056 2328 
Q 1056 1369 1301 889 
Q 1547 409 2034 409 
Q 2525 409 2770 889 
Q 3016 1369 3016 2328 
Q 3016 3291 2770 3770 
Q 2525 4250 2034 4250 
z
M 2034 4750 
Q 2819 4750 3233 4129 
Q 3647 3509 3647 2328 
Q 3647 1150 3233 529 
Q 2819 -91 2034 -91 
Q 1250 -91 836 529 
Q 422 1150 422 2328 
Q 422 3509 836 4129 
Q 1250 4750 2034 4750 
z
" transform="scale(0.015625)"/>
         </defs>
         <use xlink:href="#DejaVuSans-64"/>
         <use xlink:href="#DejaVuSans-65" x="63.476562"/>
         <use xlink:href="#DejaVuSans-6d" x="125"/>
         <use xlink:href="#DejaVuSans-65" x="222.412109"/>
         <use xlink:href="#DejaVuSans-30" x="283.935547"/>
        </g>
       </g>
      </g>
      <g id="xtick_2">
       <g id="line2d_2"/>
       <g id="text_2">
        <!-- deme1 -->
        <g transform="translate(449.595497 329.120312)scale(0.1 -0.1)">
         <defs>
          <path id="DejaVuSans-31" d="M 794 531 
L 1825 531 
L 1825 4091 
L 703 3866 
L 703 4441 
L 1819 4666 
L 2450 4666 
L 2450 531 
L 3481 531 
L 3481 0 
L 794 0 
L 794 531 
z
" transform="scale(0.015625)"/>
         </defs>
         <use xlink:href="#DejaVuSans-64"/>
         <use xlink:href="#DejaVuSans-65" x="63.476562"/>
         <use xlink:href="#DejaVuSans-6d" x="125"/>
         <use xlink:href="#DejaVuSans-65" x="222.412109"/>
         <use xlink:href="#DejaVuSans-31" x="283.935547"/>
        </g>
       </g>
      </g>
     </g>
     <g id="matplotlib.axis_2">
      <g id="ytick_1">
       <g id="line2d_3">
        <defs>
         <path id="md7f47a421f" d="M 0 0 
L -3.5 0 
" style="stroke: #000000; stroke-width: 0.8"/>
        </defs>
        <g>
         <use xlink:href="#md7f47a421f" x="43.78125" y="318.021875" style="stroke: #000000; stroke-width: 0.8"/>
        </g>
       </g>
       <g id="text_3">
        <!-- 0.0 -->
        <g transform="translate(20.878125 321.821094)scale(0.1 -0.1)">
         <defs>
          <path id="DejaVuSans-2e" d="M 684 794 
L 1344 794 
L 1344 0 
L 684 0 
L 684 794 
z
" transform="scale(0.015625)"/>
         </defs>
         <use xlink:href="#DejaVuSans-30"/>
         <use xlink:href="#DejaVuSans-2e" x="63.623047"/>
         <use xlink:href="#DejaVuSans-30" x="95.410156"/>
        </g>
       </g>
      </g>
      <g id="ytick_2">
       <g id="line2d_4">
        <g>
         <use xlink:href="#md7f47a421f" x="43.78125" y="258.881125" style="stroke: #000000; stroke-width: 0.8"/>
        </g>
       </g>
       <g id="text_4">
        <!-- 0.5 -->
        <g transform="translate(20.878125 262.680344)scale(0.1 -0.1)">
         <defs>
          <path id="DejaVuSans-35" d="M 691 4666 
L 3169 4666 
L 3169 4134 
L 1269 4134 
L 1269 2991 
Q 1406 3038 1543 3061 
Q 1681 3084 1819 3084 
Q 2600 3084 3056 2656 
Q 3513 2228 3513 1497 
Q 3513 744 3044 326 
Q 2575 -91 1722 -91 
Q 1428 -91 1123 -41 
Q 819 9 494 109 
L 494 744 
Q 775 591 1075 516 
Q 1375 441 1709 441 
Q 2250 441 2565 725 
Q 2881 1009 2881 1497 
Q 2881 1984 2565 2268 
Q 2250 2553 1709 2553 
Q 1456 2553 1204 2497 
Q 953 2441 691 2322 
L 691 4666 
z
" transform="scale(0.015625)"/>
         </defs>
         <use xlink:href="#DejaVuSans-30"/>
         <use xlink:href="#DejaVuSans-2e" x="63.623047"/>
         <use xlink:href="#DejaVuSans-35" x="95.410156"/>
        </g>
       </g>
      </g>
      <g id="ytick_3">
       <g id="line2d_5">
        <g>
         <use xlink:href="#md7f47a421f" x="43.78125" y="199.740375" style="stroke: #000000; stroke-width: 0.8"/>
        </g>
       </g>
       <g id="text_5">
        <!-- 1.0 -->
        <g transform="translate(20.878125 203.539594)scale(0.1 -0.1)">
         <use xlink:href="#DejaVuSans-31"/>
         <use xlink:href="#DejaVuSans-2e" x="63.623047"/>
         <use xlink:href="#DejaVuSans-30" x="95.410156"/>
        </g>
       </g>
      </g>
      <g id="ytick_4">
       <g id="line2d_6">
        <g>
         <use xlink:href="#md7f47a421f" x="43.78125" y="140.599625" style="stroke: #000000; stroke-width: 0.8"/>
        </g>
       </g>
       <g id="text_6">
        <!-- 1.5 -->
        <g transform="translate(20.878125 144.398844)scale(0.1 -0.1)">
         <use xlink:href="#DejaVuSans-31"/>
         <use xlink:href="#DejaVuSans-2e" x="63.623047"/>
         <use xlink:href="#DejaVuSans-35" x="95.410156"/>
        </g>
       </g>
      </g>
      <g id="ytick_5">
       <g id="line2d_7">
        <g>
         <use xlink:href="#md7f47a421f" x="43.78125" y="81.458875" style="stroke: #000000; stroke-width: 0.8"/>
        </g>
       </g>
       <g id="text_7">
        <!-- 2.0 -->
        <g transform="translate(20.878125 85.258094)scale(0.1 -0.1)">
         <defs>
          <path id="DejaVuSans-32" d="M 1228 531 
L 3431 531 
L 3431 0 
L 469 0 
L 469 531 
Q 828 903 1448 1529 
Q 2069 2156 2228 2338 
Q 2531 2678 2651 2914 
Q 2772 3150 2772 3378 
Q 2772 3750 2511 3984 
Q 2250 4219 1831 4219 
Q 1534 4219 1204 4116 
Q 875 4013 500 3803 
L 500 4441 
Q 881 4594 1212 4672 
Q 1544 4750 1819 4750 
Q 2544 4750 2975 4387 
Q 3406 4025 3406 3419 
Q 3406 3131 3298 2873 
Q 3191 2616 2906 2266 
Q 2828 2175 2409 1742 
Q 1991 1309 1228 531 
z
" transform="scale(0.015625)"/>
         </defs>
         <use xlink:href="#DejaVuSans-32"/>
         <use xlink:href="#DejaVuSans-2e" x="63.623047"/>
         <use xlink:href="#DejaVuSans-30" x="95.410156"/>
        </g>
       </g>
      </g>
      <g id="ytick_6">
       <g id="line2d_8">
        <g>
         <use xlink:href="#md7f47a421f" x="43.78125" y="22.318125" style="stroke: #000000; stroke-width: 0.8"/>
        </g>
       </g>
       <g id="text_8">
        <!-- 2.5 -->
        <g transform="translate(20.878125 26.117344)scale(0.1 -0.1)">
         <use xlink:href="#DejaVuSans-32"/>
         <use xlink:href="#DejaVuSans-2e" x="63.623047"/>
         <use xlink:href="#DejaVuSans-35" x="95.410156"/>
        </g>
       </g>
      </g>
      <g id="text_9">
       <!-- time ago (generations) -->
       <g transform="translate(14.798438 227.641094)rotate(-90)scale(0.1 -0.1)">
        <defs>
         <path id="DejaVuSans-74" d="M 1172 4494 
L 1172 3500 
L 2356 3500 
L 2356 3053 
L 1172 3053 
L 1172 1153 
Q 1172 725 1289 603 
Q 1406 481 1766 481 
L 2356 481 
L 2356 0 
L 1766 0 
Q 1100 0 847 248 
Q 594 497 594 1153 
L 594 3053 
L 172 3053 
L 172 3500 
L 594 3500 
L 594 4494 
L 1172 4494 
z
" transform="scale(0.015625)"/>
         <path id="DejaVuSans-69" d="M 603 3500 
L 1178 3500 
L 1178 0 
L 603 0 
L 603 3500 
z
M 603 4863 
L 1178 4863 
L 1178 4134 
L 603 4134 
L 603 4863 
z
" transform="scale(0.015625)"/>
         <path id="DejaVuSans-20" transform="scale(0.015625)"/>
         <path id="DejaVuSans-61" d="M 2194 1759 
Q 1497 1759 1228 1600 
Q 959 1441 959 1056 
Q 959 750 1161 570 
Q 1363 391 1709 391 
Q 2188 391 2477 730 
Q 2766 1069 2766 1631 
L 2766 1759 
L 2194 1759 
z
M 3341 1997 
L 3341 0 
L 2766 0 
L 2766 531 
Q 2569 213 2275 61 
Q 1981 -91 1556 -91 
Q 1019 -91 701 211 
Q 384 513 384 1019 
Q 384 1609 779 1909 
Q 1175 2209 1959 2209 
L 2766 2209 
L 2766 2266 
Q 2766 2663 2505 2880 
Q 2244 3097 1772 3097 
Q 1472 3097 1187 3025 
Q 903 2953 641 2809 
L 641 3341 
Q 956 3463 1253 3523 
Q 1550 3584 1831 3584 
Q 2591 3584 2966 3190 
Q 3341 2797 3341 1997 
z
" transform="scale(0.015625)"/>
         <path id="DejaVuSans-67" d="M 2906 1791 
Q 2906 2416 2648 2759 
Q 2391 3103 1925 3103 
Q 1463 3103 1205 2759 
Q 947 2416 947 1791 
Q 947 1169 1205 825 
Q 1463 481 1925 481 
Q 2391 481 2648 825 
Q 2906 1169 2906 1791 
z
M 3481 434 
Q 3481 -459 3084 -895 
Q 2688 -1331 1869 -1331 
Q 1566 -1331 1297 -1286 
Q 1028 -1241 775 -1147 
L 775 -588 
Q 1028 -725 1275 -790 
Q 1522 -856 1778 -856 
Q 2344 -856 2625 -561 
Q 2906 -266 2906 331 
L 2906 616 
Q 2728 306 2450 153 
Q 2172 0 1784 0 
Q 1141 0 747 490 
Q 353 981 353 1791 
Q 353 2603 747 3093 
Q 1141 3584 1784 3584 
Q 2172 3584 2450 3431 
Q 2728 3278 2906 2969 
L 2906 3500 
L 3481 3500 
L 3481 434 
z
" transform="scale(0.015625)"/>
         <path id="DejaVuSans-6f" d="M 1959 3097 
Q 1497 3097 1228 2736 
Q 959 2375 959 1747 
Q 959 1119 1226 758 
Q 1494 397 1959 397 
Q 2419 397 2687 759 
Q 2956 1122 2956 1747 
Q 2956 2369 2687 2733 
Q 2419 3097 1959 3097 
z
M 1959 3584 
Q 2709 3584 3137 3096 
Q 3566 2609 3566 1747 
Q 3566 888 3137 398 
Q 2709 -91 1959 -91 
Q 1206 -91 779 398 
Q 353 888 353 1747 
Q 353 2609 779 3096 
Q 1206 3584 1959 3584 
z
" transform="scale(0.015625)"/>
         <path id="DejaVuSans-28" d="M 1984 4856 
Q 1566 4138 1362 3434 
Q 1159 2731 1159 2009 
Q 1159 1288 1364 580 
Q 1569 -128 1984 -844 
L 1484 -844 
Q 1016 -109 783 600 
Q 550 1309 550 2009 
Q 550 2706 781 3412 
Q 1013 4119 1484 4856 
L 1984 4856 
z
" transform="scale(0.015625)"/>
         <path id="DejaVuSans-6e" d="M 3513 2113 
L 3513 0 
L 2938 0 
L 2938 2094 
Q 2938 2591 2744 2837 
Q 2550 3084 2163 3084 
Q 1697 3084 1428 2787 
Q 1159 2491 1159 1978 
L 1159 0 
L 581 0 
L 581 3500 
L 1159 3500 
L 1159 2956 
Q 1366 3272 1645 3428 
Q 1925 3584 2291 3584 
Q 2894 3584 3203 3211 
Q 3513 2838 3513 2113 
z
" transform="scale(0.015625)"/>
         <path id="DejaVuSans-72" d="M 2631 2963 
Q 2534 3019 2420 3045 
Q 2306 3072 2169 3072 
Q 1681 3072 1420 2755 
Q 1159 2438 1159 1844 
L 1159 0 
L 581 0 
L 581 3500 
L 1159 3500 
L 1159 2956 
Q 1341 3275 1631 3429 
Q 1922 3584 2338 3584 
Q 2397 3584 2469 3576 
Q 2541 3569 2628 3553 
L 2631 2963 
z
" transform="scale(0.015625)"/>
         <path id="DejaVuSans-73" d="M 2834 3397 
L 2834 2853 
Q 2591 2978 2328 3040 
Q 2066 3103 1784 3103 
Q 1356 3103 1142 2972 
Q 928 2841 928 2578 
Q 928 2378 1081 2264 
Q 1234 2150 1697 2047 
L 1894 2003 
Q 2506 1872 2764 1633 
Q 3022 1394 3022 966 
Q 3022 478 2636 193 
Q 2250 -91 1575 -91 
Q 1294 -91 989 -36 
Q 684 19 347 128 
L 347 722 
Q 666 556 975 473 
Q 1284 391 1588 391 
Q 1994 391 2212 530 
Q 2431 669 2431 922 
Q 2431 1156 2273 1281 
Q 2116 1406 1581 1522 
L 1381 1569 
Q 847 1681 609 1914 
Q 372 2147 372 2553 
Q 372 3047 722 3315 
Q 1072 3584 1716 3584 
Q 2034 3584 2315 3537 
Q 2597 3491 2834 3397 
z
" transform="scale(0.015625)"/>
         <path id="DejaVuSans-29" d="M 513 4856 
L 1013 4856 
Q 1481 4119 1714 3412 
Q 1947 2706 1947 2009 
Q 1947 1309 1714 600 
Q 1481 -109 1013 -844 
L 513 -844 
Q 928 -128 1133 580 
Q 1338 1288 1338 2009 
Q 1338 2731 1133 3434 
Q 928 4138 513 4856 
z
" transform="scale(0.015625)"/>
        </defs>
        <use xlink:href="#DejaVuSans-74"/>
        <use xlink:href="#DejaVuSans-69" x="39.208984"/>
        <use xlink:href="#DejaVuSans-6d" x="66.992188"/>
        <use xlink:href="#DejaVuSans-65" x="164.404297"/>
        <use xlink:href="#DejaVuSans-20" x="225.927734"/>
        <use xlink:href="#DejaVuSans-61" x="257.714844"/>
        <use xlink:href="#DejaVuSans-67" x="318.994141"/>
        <use xlink:href="#DejaVuSans-6f" x="382.470703"/>
        <use xlink:href="#DejaVuSans-20" x="443.652344"/>
        <use xlink:href="#DejaVuSans-28" x="475.439453"/>
        <use xlink:href="#DejaVuSans-67" x="514.453125"/>
        <use xlink:href="#DejaVuSans-65" x="577.929688"/>
        <use xlink:href="#DejaVuSans-6e" x="639.453125"/>
        <use xlink:href="#DejaVuSans-65" x="702.832031"/>
        <use xlink:href="#DejaVuSans-72" x="764.355469"/>
        <use xlink:href="#DejaVuSans-61" x="805.46875"/>
        <use xlink:href="#DejaVuSans-74" x="866.748047"/>
        <use xlink:href="#DejaVuSans-69" x="905.957031"/>
        <use xlink:href="#DejaVuSans-6f" x="933.740234"/>
        <use xlink:href="#DejaVuSans-6e" x="994.921875"/>
        <use xlink:href="#DejaVuSans-73" x="1058.300781"/>
        <use xlink:href="#DejaVuSans-29" x="1110.400391"/>
       </g>
      </g>
     </g>
     <path d="M 354.66929 91.5395 
L 352.66929 90.5395 
L 352.66929 92.5395 
z
" clip-path="url(#p9d92ee5597)" style="fill: #1f77b4; fill-opacity: 0.5; stroke: #1f77b4; stroke-opacity: 0.5; stroke-linejoin: miter"/>
     <path d="M 354.66929 129.100777 
L 352.66929 128.100777 
L 352.66929 130.100777 
z
" clip-path="url(#p9d92ee5597)" style="fill: #1f77b4; fill-opacity: 0.5; stroke: #1f77b4; stroke-opacity: 0.5; stroke-linejoin: miter"/>
     <path d="M 354.66929 112.393396 
L 352.66929 111.393396 
L 352.66929 113.393396 
z
" clip-path="url(#p9d92ee5597)" style="fill: #1f77b4; fill-opacity: 0.5; stroke: #1f77b4; stroke-opacity: 0.5; stroke-linejoin: miter"/>
     <path d="M 354.66929 153.547463 
L 352.66929 152.547463 
L 352.66929 154.547463 
z
" clip-path="url(#p9d92ee5597)" style="fill: #1f77b4; fill-opacity: 0.5; stroke: #1f77b4; stroke-opacity: 0.5; stroke-linejoin: miter"/>
     <path d="M 354.66929 190.612367 
L 352.66929 189.612367 
L 352.66929 191.612367 
z
" clip-path="url(#p9d92ee5597)" style="fill: #1f77b4; fill-opacity: 0.5; stroke: #1f77b4; stroke-opacity: 0.5; stroke-linejoin: miter"/>
     <path d="M 354.66929 173.753319 
L 352.66929 172.753319 
L 352.66929 174.753319 
z
" clip-path="url(#p9d92ee5597)" style="fill: #1f77b4; fill-opacity: 0.5; stroke: #1f77b4; stroke-opacity: 0.5; stroke-linejoin: miter"/>
     <path d="M 354.66929 178.315478 
L 352.66929 177.315478 
L 352.66929 179.315478 
z
" clip-path="url(#p9d92ee5597)" style="fill: #1f77b4; fill-opacity: 0.5; stroke: #1f77b4; stroke-opacity: 0.5; stroke-linejoin: miter"/>
     <path d="M 354.66929 81.74065 
L 352.66929 80.74065 
L 352.66929 82.74065 
z
" clip-path="url(#p9d92ee5597)" style="fill: #1f77b4; fill-opacity: 0.5; stroke: #1f77b4; stroke-opacity: 0.5; stroke-linejoin: miter"/>
     <path d="M 354.66929 187.544322 
L 352.66929 186.544322 
L 352.66929 188.544322 
z
" clip-path="url(#p9d92ee5597)" style="fill: #1f77b4; fill-opacity: 0.5; stroke: #1f77b4; stroke-opacity: 0.5; stroke-linejoin: miter"/>
     <path d="M 354.66929 160.297263 
L 352.66929 159.297263 
L 352.66929 161.297263 
z
" clip-path="url(#p9d92ee5597)" style="fill: #1f77b4; fill-opacity: 0.5; stroke: #1f77b4; stroke-opacity: 0.5; stroke-linejoin: miter"/>
     <path d="M 354.66929 236.000645 
L 352.66929 235.000645 
L 352.66929 237.000645 
z
" clip-path="url(#p9d92ee5597)" style="fill: #1f77b4; fill-opacity: 0.5; stroke: #1f77b4; stroke-opacity: 0.5; stroke-linejoin: miter"/>
     <path d="M 354.66929 227.147545 
L 352.66929 226.147545 
L 352.66929 228.147545 
z
" clip-path="url(#p9d92ee5597)" style="fill: #1f77b4; fill-opacity: 0.5; stroke: #1f77b4; stroke-opacity: 0.5; stroke-linejoin: miter"/>
     <path d="M 354.66929 258.382314 
L 352.66929 257.382314 
L 352.66929 259.382314 
z
" clip-path="url(#p9d92ee5597)" style="fill: #1f77b4; fill-opacity: 0.5; stroke: #1f77b4; stroke-opacity: 0.5; stroke-linejoin: miter"/>
     <path d="M 354.66929 214.603838 
L 352.66929 213.603838 
L 352.66929 215.603838 
z
" clip-path="url(#p9d92ee5597)" style="fill: #1f77b4; fill-opacity: 0.5; stroke: #1f77b4; stroke-opacity: 0.5; stroke-linejoin: miter"/>
     <path d="M 354.66929 314.66243 
L 352.66929 313.66243 
L 352.66929 315.66243 
z
" clip-path="url(#p9d92ee5597)" style="fill: #1f77b4; fill-opacity: 0.5; stroke: #1f77b4; stroke-opacity: 0.5; stroke-linejoin: miter"/>
     <path d="M 354.66929 302.292867 
L 352.66929 301.292867 
L 352.66929 303.292867 
z
" clip-path="url(#p9d92ee5597)" style="fill: #1f77b4; fill-opacity: 0.5; stroke: #1f77b4; stroke-opacity: 0.5; stroke-linejoin: miter"/>
     <path d="M 354.66929 300.840987 
L 352.66929 299.840987 
L 352.66929 301.840987 
z
" clip-path="url(#p9d92ee5597)" style="fill: #1f77b4; fill-opacity: 0.5; stroke: #1f77b4; stroke-opacity: 0.5; stroke-linejoin: miter"/>
     <path d="M 354.66929 231.684287 
L 352.66929 230.684287 
L 352.66929 232.684287 
z
" clip-path="url(#p9d92ee5597)" style="fill: #1f77b4; fill-opacity: 0.5; stroke: #1f77b4; stroke-opacity: 0.5; stroke-linejoin: miter"/>
     <path d="M 354.66929 205.845272 
L 352.66929 204.845272 
L 352.66929 206.845272 
z
" clip-path="url(#p9d92ee5597)" style="fill: #1f77b4; fill-opacity: 0.5; stroke: #1f77b4; stroke-opacity: 0.5; stroke-linejoin: miter"/>
     <path d="M 354.66929 290.42898 
L 352.66929 289.42898 
L 352.66929 291.42898 
z
" clip-path="url(#p9d92ee5597)" style="fill: #1f77b4; fill-opacity: 0.5; stroke: #1f77b4; stroke-opacity: 0.5; stroke-linejoin: miter"/>
     <g id="patch_5">
      <path d="M 43.78125 318.021875 
L 43.78125 22.318125 
" style="fill: none; stroke: #000000; stroke-width: 0.8; stroke-linejoin: miter; stroke-linecap: square"/>
     </g>
     <g id="text_10">
      <!-- defaults_asymmetric_migration_changing_rate.yaml -->
      <g transform="translate(164.675625 16.318125)scale(0.12 -0.12)">
       <defs>
        <path id="DejaVuSans-66" d="M 2375 4863 
L 2375 4384 
L 1825 4384 
Q 1516 4384 1395 4259 
Q 1275 4134 1275 3809 
L 1275 3500 
L 2222 3500 
L 2222 3053 
L 1275 3053 
L 1275 0 
L 697 0 
L 697 3053 
L 147 3053 
L 147 3500 
L 697 3500 
L 697 3744 
Q 697 4328 969 4595 
Q 1241 4863 1831 4863 
L 2375 4863 
z
" transform="scale(0.015625)"/>
        <path id="DejaVuSans-75" d="M 544 1381 
L 544 3500 
L 1119 3500 
L 1119 1403 
Q 1119 906 1312 657 
Q 1506 409 1894 409 
Q 2359 409 2629 706 
Q 2900 1003 2900 1516 
L 2900 3500 
L 3475 3500 
L 3475 0 
L 2900 0 
L 2900 538 
Q 2691 219 2414 64 
Q 2138 -91 1772 -91 
Q 1169 -91 856 284 
Q 544 659 544 1381 
z
M 1991 3584 
L 1991 3584 
z
" transform="scale(0.015625)"/>
        <path id="DejaVuSans-6c" d="M 603 4863 
L 1178 4863 
L 1178 0 
L 603 0 
L 603 4863 
z
" transform="scale(0.015625)"/>
        <path id="DejaVuSans-5f" d="M 3263 -1063 
L 3263 -1509 
L -63 -1509 
L -63 -1063 
L 3263 -1063 
z
" transform="scale(0.015625)"/>
        <path id="DejaVuSans-79" d="M 2059 -325 
Q 1816 -950 1584 -1140 
Q 1353 -1331 966 -1331 
L 506 -1331 
L 506 -850 
L 844 -850 
Q 1081 -850 1212 -737 
Q 1344 -625 1503 -206 
L 1606 56 
L 191 3500 
L 800 3500 
L 1894 763 
L 2988 3500 
L 3597 3500 
L 2059 -325 
z
" transform="scale(0.015625)"/>
        <path id="DejaVuSans-63" d="M 3122 3366 
L 3122 2828 
Q 2878 2963 2633 3030 
Q 2388 3097 2138 3097 
Q 1578 3097 1268 2742 
Q 959 2388 959 1747 
Q 959 1106 1268 751 
Q 1578 397 2138 397 
Q 2388 397 2633 464 
Q 2878 531 3122 666 
L 3122 134 
Q 2881 22 2623 -34 
Q 2366 -91 2075 -91 
Q 1284 -91 818 406 
Q 353 903 353 1747 
Q 353 2603 823 3093 
Q 1294 3584 2113 3584 
Q 2378 3584 2631 3529 
Q 2884 3475 3122 3366 
z
" transform="scale(0.015625)"/>
        <path id="DejaVuSans-68" d="M 3513 2113 
L 3513 0 
L 2938 0 
L 2938 2094 
Q 2938 2591 2744 2837 
Q 2550 3084 2163 3084 
Q 1697 3084 1428 2787 
Q 1159 2491 1159 1978 
L 1159 0 
L 581 0 
L 581 4863 
L 1159 4863 
L 1159 2956 
Q 1366 3272 1645 3428 
Q 1925 3584 2291 3584 
Q 2894 3584 3203 3211 
Q 3513 2838 3513 2113 
z
" transform="scale(0.015625)"/>
       </defs>
       <use xlink:href="#DejaVuSans-64"/>
       <use xlink:href="#DejaVuSans-65" x="63.476562"/>
       <use xlink:href="#DejaVuSans-66" x="125"/>
       <use xlink:href="#DejaVuSans-61" x="160.205078"/>
       <use xlink:href="#DejaVuSans-75" x="221.484375"/>
       <use xlink:href="#DejaVuSans-6c" x="284.863281"/>
       <use xlink:href="#DejaVuSans-74" x="312.646484"/>
       <use xlink:href="#DejaVuSans-73" x="351.855469"/>
       <use xlink:href="#DejaVuSans-5f" x="403.955078"/>
       <use xlink:href="#DejaVuSans-61" x="453.955078"/>
       <use xlink:href="#DejaVuSans-73" x="515.234375"/>
       <use xlink:href="#DejaVuSans-79" x="567.333984"/>
       <use xlink:href="#DejaVuSans-6d" x="626.513672"/>
       <use xlink:href="#DejaVuSans-6d" x="723.925781"/>
       <use xlink:href="#DejaVuSans-65" x="821.337891"/>
       <use xlink:href="#DejaVuSans-74" x="882.861328"/>
       <use xlink:href="#DejaVuSans-72" x="922.070312"/>
       <use xlink:href="#DejaVuSans-69" x="963.183594"/>
       <use xlink:href="#DejaVuSans-63" x="990.966797"/>
       <use xlink:href="#DejaVuSans-5f" x="1045.947266"/>
       <use xlink:href="#DejaVuSans-6d" x="1095.947266"/>
       <use xlink:href="#DejaVuSans-69" x="1193.359375"/>
       <use xlink:href="#DejaVuSans-67" x="1221.142578"/>
       <use xlink:href="#DejaVuSans-72" x="1284.619141"/>
       <use xlink:href="#DejaVuSans-61" x="1325.732422"/>
       <use xlink:href="#DejaVuSans-74" x="1387.011719"/>
       <use xlink:href="#DejaVuSans-69" x="1426.220703"/>
       <use xlink:href="#DejaVuSans-6f" x="1454.003906"/>
       <use xlink:href="#DejaVuSans-6e" x="1515.185547"/>
       <use xlink:href="#DejaVuSans-5f" x="1578.564453"/>
       <use xlink:href="#DejaVuSans-63" x="1628.564453"/>
       <use xlink:href="#DejaVuSans-68" x="1683.544922"/>
       <use xlink:href="#DejaVuSans-61" x="1746.923828"/>
       <use xlink:href="#DejaVuSans-6e" x="1808.203125"/>
       <use xlink:href="#DejaVuSans-67" x="1871.582031"/>
       <use xlink:href="#DejaVuSans-69" x="1935.058594"/>
       <use xlink:href="#DejaVuSans-6e" x="1962.841797"/>
       <use xlink:href="#DejaVuSans-67" x="2026.220703"/>
       <use xlink:href="#DejaVuSans-5f" x="2089.697266"/>
       <use xlink:href="#DejaVuSans-72" x="2139.697266"/>
       <use xlink:href="#DejaVuSans-61" x="2180.810547"/>
       <use xlink:href="#DejaVuSans-74" x="2242.089844"/>
       <use xlink:href="#DejaVuSans-65" x="2281.298828"/>
       <use xlink:href="#DejaVuSans-2e" x="2342.822266"/>
       <use xlink:href="#DejaVuSans-79" x="2374.609375"/>
       <use xlink:href="#DejaVuSans-61" x="2433.789062"/>
       <use xlink:href="#DejaVuSans-6d" x="2495.068359"/>
       <use xlink:href="#DejaVuSans-6c" x="2592.480469"/>
      </g>
     </g>
    </g>
   </g>
   <defs>
    <clipPath id="p9d92ee5597">
     <rect x="43.78125" y="22.318125" width="556.21875" height="295.70375"/>
    </clipPath>
   </defs>
  </g>
 </g>
</svg>
