<?xml version="1.0" encoding="utf-8" standalone="no"?>
<!DOCTYPE svg PUBLIC "-//W3C//DTD SVG 1.1//EN"
  "http://www.w3.org/Graphics/SVG/1.1/DTD/svg11.dtd">
<svg xmlns:xlink="http://www.w3.org/1999/xlink" width="504.8pt" height="280.8pt" viewBox="0 0 504.8 280.8" xmlns="http://www.w3.org/2000/svg" version="1.1">
 <metadata>
  <rdf:RDF xmlns:dc="http://purl.org/dc/elements/1.1/" xmlns:cc="http://creativecommons.org/ns#" xmlns:rdf="http://www.w3.org/1999/02/22-rdf-syntax-ns#">
   <cc:Work>
    <dc:type rdf:resource="http://purl.org/dc/dcmitype/StillImage"/>
    <dc:date>2022-01-17T08:22:49.728179</dc:date>
    <dc:format>image/svg+xml</dc:format>
    <dc:creator>
     <cc:Agent>
      <dc:title>Matplotlib v3.5.1, https://matplotlib.org/</dc:title>
     </cc:Agent>
    </dc:creator>
   </cc:Work>
  </rdf:RDF>
 </metadata>
 <defs>
  <style type="text/css">*{stroke-linejoin: round; stroke-linecap: butt}</style>
 </defs>
 <g id="figure_1">
  <g id="patch_1">
   <path d="M 0 280.8 
L 504.8 280.8 
L 504.8 0 
L 0 0 
L 0 280.8 
z
" style="fill: none"/>
  </g>
  <g id="axes_1">
   <g id="patch_2">
    <path d="M 46.965625 260.421875 
L 497.6 260.421875 
L 497.6 22.318125 
L 46.965625 22.318125 
z
" style="fill: #ffffff"/>
   </g>
   <path d="M 171.90811 142.856335 
L 172.90811 142.887771 
L 173.90811 142.924712 
L 174.90811 143.022458 
L 175.90811 143.05498 
L 176.90811 143.128604 
L 177.90811 143.16717 
L 178.90811 143.202583 
L 179.90811 143.260223 
L 180.90811 143.330609 
L 181.90811 143.382574 
L 182.90811 143.441663 
L 183.90811 143.529984 
L 184.90811 143.576129 
L 185.90811 143.61854 
L 186.90811 143.649032 
L 187.90811 143.675077 
L 188.90811 143.696277 
L 189.90811 143.750578 
L 190.90811 143.778516 
L 191.90811 143.80824 
L 192.90811 143.833635 
L 193.90811 143.844835 
L 194.90811 143.854959 
L 195.90811 143.854755 
L 196.90811 143.845245 
L 197.90811 143.833591 
L 198.90811 143.802562 
L 199.90811 143.791394 
L 200.90811 143.761277 
L 201.90811 143.7015 
L 202.90811 143.664308 
L 203.90811 143.625212 
L 204.90811 143.582772 
L 205.90811 143.550007 
L 206.90811 143.482581 
L 207.90811 143.443455 
L 208.90811 143.40078 
L 209.90811 143.3302 
L 210.90811 143.293809 
L 211.90811 143.235406 
L 212.90811 143.124453 
L 213.90811 143.053795 
L 214.90811 142.940855 
L 215.90811 142.895082 
L 217.800088 142.833799 
" clip-path="url(#p08b6a573ef)" style="fill: none; stroke: #1f77b4; stroke-opacity: 0.5; stroke-width: 0.2; stroke-linecap: square"/>
   <path d="M 171.90811 124.726195 
L 172.90811 124.757632 
L 173.90811 124.794572 
L 174.90811 124.892319 
L 175.90811 124.92484 
L 176.90811 124.998465 
L 177.90811 125.03703 
L 178.90811 125.072444 
L 179.90811 125.130084 
L 180.90811 125.20047 
L 181.90811 125.252434 
L 182.90811 125.311524 
L 183.90811 125.399845 
L 184.90811 125.445989 
L 185.90811 125.4884 
L 186.90811 125.518893 
L 187.90811 125.544938 
L 188.90811 125.566138 
L 189.90811 125.620439 
L 190.90811 125.648376 
L 191.90811 125.6781 
L 192.90811 125.703495 
L 193.90811 125.714695 
L 194.90811 125.724819 
L 195.90811 125.724615 
L 196.90811 125.715105 
L 197.90811 125.703452 
L 198.90811 125.672422 
L 199.90811 125.661254 
L 200.90811 125.631137 
L 201.90811 125.57136 
L 202.90811 125.534168 
L 203.90811 125.495072 
L 204.90811 125.452633 
L 205.90811 125.419868 
L 206.90811 125.352441 
L 207.90811 125.313315 
L 208.90811 125.270641 
L 209.90811 125.20006 
L 210.90811 125.163669 
L 211.90811 125.105266 
L 212.90811 124.994313 
L 213.90811 124.923655 
L 214.90811 124.810715 
L 215.90811 124.764942 
L 217.800088 124.703659 
" clip-path="url(#p08b6a573ef)" style="fill: none; stroke: #1f77b4; stroke-opacity: 0.5; stroke-width: 0.2; stroke-linecap: square"/>
   <path d="M 171.90811 143.357502 
L 172.90811 143.388938 
L 173.90811 143.425879 
L 174.90811 143.523625 
L 175.90811 143.556147 
L 176.90811 143.629771 
L 177.90811 143.668337 
L 178.90811 143.70375 
L 179.90811 143.76139 
L 180.90811 143.831776 
L 181.90811 143.88374 
L 182.90811 143.94283 
L 183.90811 144.031151 
L 184.90811 144.077295 
L 185.90811 144.119706 
L 186.90811 144.150199 
L 187.90811 144.176244 
L 188.90811 144.197444 
L 189.90811 144.251745 
L 190.90811 144.279683 
L 191.90811 144.309407 
L 192.90811 144.334802 
L 193.90811 144.346002 
L 194.90811 144.356126 
L 195.90811 144.355922 
L 196.90811 144.346412 
L 197.90811 144.334758 
L 198.90811 144.303729 
L 199.90811 144.292561 
L 200.90811 144.262443 
L 201.90811 144.202666 
L 202.90811 144.165475 
L 203.90811 144.126379 
L 204.90811 144.083939 
L 205.90811 144.051174 
L 206.90811 143.983748 
L 207.90811 143.944622 
L 208.90811 143.901947 
L 209.90811 143.831367 
L 210.90811 143.794976 
L 211.90811 143.736573 
L 212.90811 143.62562 
L 213.90811 143.554962 
L 214.90811 143.442022 
L 215.90811 143.396249 
L 217.800088 143.334966 
" clip-path="url(#p08b6a573ef)" style="fill: none; stroke: #1f77b4; stroke-opacity: 0.5; stroke-width: 0.2; stroke-linecap: square"/>
   <path d="M 171.90811 119.705707 
L 172.90811 119.737143 
L 173.90811 119.774084 
L 174.90811 119.87183 
L 175.90811 119.904352 
L 176.90811 119.977976 
L 177.90811 120.016542 
L 178.90811 120.051955 
L 179.90811 120.109595 
L 180.90811 120.179981 
L 181.90811 120.231945 
L 182.90811 120.291035 
L 183.90811 120.379356 
L 184.90811 120.4255 
L 185.90811 120.467911 
L 186.90811 120.498404 
L 187.90811 120.524449 
L 188.90811 120.545649 
L 189.90811 120.59995 
L 190.90811 120.627888 
L 191.90811 120.657612 
L 192.90811 120.683007 
L 193.90811 120.694207 
L 194.90811 120.704331 
L 195.90811 120.704127 
L 196.90811 120.694617 
L 197.90811 120.682963 
L 198.90811 120.651934 
L 199.90811 120.640766 
L 200.90811 120.610648 
L 201.90811 120.550872 
L 202.90811 120.51368 
L 203.90811 120.474584 
L 204.90811 120.432144 
L 205.90811 120.399379 
L 206.90811 120.331953 
L 207.90811 120.292827 
L 208.90811 120.250152 
L 209.90811 120.179572 
L 210.90811 120.143181 
L 211.90811 120.084778 
L 212.90811 119.973825 
L 213.90811 119.903167 
L 214.90811 119.790227 
L 215.90811 119.744454 
L 217.800088 119.683171 
" clip-path="url(#p08b6a573ef)" style="fill: none; stroke: #1f77b4; stroke-opacity: 0.5; stroke-width: 0.2; stroke-linecap: square"/>
   <path d="M 171.90811 199.661075 
L 172.90811 199.692512 
L 173.90811 199.729452 
L 174.90811 199.827199 
L 175.90811 199.85972 
L 176.90811 199.933345 
L 177.90811 199.97191 
L 178.90811 200.007324 
L 179.90811 200.064964 
L 180.90811 200.13535 
L 181.90811 200.187314 
L 182.90811 200.246404 
L 183.90811 200.334725 
L 184.90811 200.380869 
L 185.90811 200.42328 
L 186.90811 200.453773 
L 187.90811 200.479818 
L 188.90811 200.501018 
L 189.90811 200.555319 
L 190.90811 200.583256 
L 191.90811 200.61298 
L 192.90811 200.638375 
L 193.90811 200.649575 
L 194.90811 200.659699 
L 195.90811 200.659495 
L 196.90811 200.649985 
L 197.90811 200.638332 
L 198.90811 200.607302 
L 199.90811 200.596134 
L 200.90811 200.566017 
L 201.90811 200.50624 
L 202.90811 200.469048 
L 203.90811 200.429952 
L 204.90811 200.387513 
L 205.90811 200.354748 
L 206.90811 200.287321 
L 207.90811 200.248195 
L 208.90811 200.205521 
L 209.90811 200.13494 
L 210.90811 200.098549 
L 211.90811 200.040146 
L 212.90811 199.929193 
L 213.90811 199.858535 
L 214.90811 199.745595 
L 215.90811 199.699822 
L 217.800088 199.638539 
" clip-path="url(#p08b6a573ef)" style="fill: none; stroke: #1f77b4; stroke-opacity: 0.5; stroke-width: 0.2; stroke-linecap: square"/>
   <path d="M 171.90811 137.698612 
L 172.90811 137.730049 
L 173.90811 137.766989 
L 174.90811 137.864736 
L 175.90811 137.897257 
L 176.90811 137.970882 
L 177.90811 138.009448 
L 178.90811 138.044861 
L 179.90811 138.102501 
L 180.90811 138.172887 
L 181.90811 138.224851 
L 182.90811 138.283941 
L 183.90811 138.372262 
L 184.90811 138.418406 
L 185.90811 138.460817 
L 186.90811 138.49131 
L 187.90811 138.517355 
L 188.90811 138.538555 
L 189.90811 138.592856 
L 190.90811 138.620793 
L 191.90811 138.650517 
L 192.90811 138.675912 
L 193.90811 138.687113 
L 194.90811 138.697237 
L 195.90811 138.697032 
L 196.90811 138.687522 
L 197.90811 138.675869 
L 198.90811 138.644839 
L 199.90811 138.633672 
L 200.90811 138.603554 
L 201.90811 138.543777 
L 202.90811 138.506586 
L 203.90811 138.467489 
L 204.90811 138.42505 
L 205.90811 138.392285 
L 206.90811 138.324858 
L 207.90811 138.285732 
L 208.90811 138.243058 
L 209.90811 138.172477 
L 210.90811 138.136086 
L 211.90811 138.077683 
L 212.90811 137.966731 
L 213.90811 137.896072 
L 214.90811 137.783132 
L 215.90811 137.73736 
L 217.800088 137.676076 
" clip-path="url(#p08b6a573ef)" style="fill: none; stroke: #1f77b4; stroke-opacity: 0.5; stroke-width: 0.2; stroke-linecap: square"/>
   <path d="M 171.90811 237.203208 
L 172.90811 237.234645 
L 173.90811 237.271585 
L 174.90811 237.369331 
L 175.90811 237.401853 
L 176.90811 237.475478 
L 177.90811 237.514043 
L 178.90811 237.549457 
L 179.90811 237.607096 
L 180.90811 237.677483 
L 181.90811 237.729447 
L 182.90811 237.788537 
L 183.90811 237.876858 
L 184.90811 237.923002 
L 185.90811 237.965413 
L 186.90811 237.995905 
L 187.90811 238.02195 
L 188.90811 238.043151 
L 189.90811 238.097452 
L 190.90811 238.125389 
L 191.90811 238.155113 
L 192.90811 238.180508 
L 193.90811 238.191708 
L 194.90811 238.201832 
L 195.90811 238.201628 
L 196.90811 238.192118 
L 197.90811 238.180465 
L 198.90811 238.149435 
L 199.90811 238.138267 
L 200.90811 238.10815 
L 201.90811 238.048373 
L 202.90811 238.011181 
L 203.90811 237.972085 
L 204.90811 237.929646 
L 205.90811 237.896881 
L 206.90811 237.829454 
L 207.90811 237.790328 
L 208.90811 237.747654 
L 209.90811 237.677073 
L 210.90811 237.640682 
L 211.90811 237.582279 
L 212.90811 237.471326 
L 213.90811 237.400668 
L 214.90811 237.287728 
L 215.90811 237.241955 
L 217.800088 237.180672 
" clip-path="url(#p08b6a573ef)" style="fill: none; stroke: #1f77b4; stroke-opacity: 0.5; stroke-width: 0.2; stroke-linecap: square"/>
   <path d="M 171.90811 61.181539 
L 172.90811 61.212976 
L 173.90811 61.249916 
L 174.90811 61.347663 
L 175.90811 61.380184 
L 176.90811 61.453809 
L 177.90811 61.492375 
L 178.90811 61.527788 
L 179.90811 61.585428 
L 180.90811 61.655814 
L 181.90811 61.707778 
L 182.90811 61.766868 
L 183.90811 61.855189 
L 184.90811 61.901333 
L 185.90811 61.943744 
L 186.90811 61.974237 
L 187.90811 62.000282 
L 188.90811 62.021482 
L 189.90811 62.075783 
L 190.90811 62.10372 
L 191.90811 62.133444 
L 192.90811 62.158839 
L 193.90811 62.17004 
L 194.90811 62.180163 
L 195.90811 62.179959 
L 196.90811 62.170449 
L 197.90811 62.158796 
L 198.90811 62.127766 
L 199.90811 62.116599 
L 200.90811 62.086481 
L 201.90811 62.026704 
L 202.90811 61.989513 
L 203.90811 61.950416 
L 204.90811 61.907977 
L 205.90811 61.875212 
L 206.90811 61.807785 
L 207.90811 61.768659 
L 208.90811 61.725985 
L 209.90811 61.655404 
L 210.90811 61.619013 
L 211.90811 61.56061 
L 212.90811 61.449658 
L 213.90811 61.378999 
L 214.90811 61.266059 
L 215.90811 61.220287 
L 217.800088 61.159003 
" clip-path="url(#p08b6a573ef)" style="fill: none; stroke: #1f77b4; stroke-opacity: 0.5; stroke-width: 0.2; stroke-linecap: square"/>
   <path d="M 171.90811 130.614574 
L 172.90811 130.64601 
L 173.90811 130.68295 
L 174.90811 130.780697 
L 175.90811 130.813219 
L 176.90811 130.886843 
L 177.90811 130.925409 
L 178.90811 130.960822 
L 179.90811 131.018462 
L 180.90811 131.088848 
L 181.90811 131.140812 
L 182.90811 131.199902 
L 183.90811 131.288223 
L 184.90811 131.334367 
L 185.90811 131.376778 
L 186.90811 131.407271 
L 187.90811 131.433316 
L 188.90811 131.454516 
L 189.90811 131.508817 
L 190.90811 131.536755 
L 191.90811 131.566479 
L 192.90811 131.591873 
L 193.90811 131.603074 
L 194.90811 131.613198 
L 195.90811 131.612993 
L 196.90811 131.603484 
L 197.90811 131.59183 
L 198.90811 131.560801 
L 199.90811 131.549633 
L 200.90811 131.519515 
L 201.90811 131.459738 
L 202.90811 131.422547 
L 203.90811 131.383451 
L 204.90811 131.341011 
L 205.90811 131.308246 
L 206.90811 131.24082 
L 207.90811 131.201694 
L 208.90811 131.159019 
L 209.90811 131.088438 
L 210.90811 131.052048 
L 211.90811 130.993644 
L 212.90811 130.882692 
L 213.90811 130.812034 
L 214.90811 130.699094 
L 215.90811 130.653321 
L 217.800088 130.592038 
" clip-path="url(#p08b6a573ef)" style="fill: none; stroke: #1f77b4; stroke-opacity: 0.5; stroke-width: 0.2; stroke-linecap: square"/>
   <path d="M 171.90811 121.845173 
L 172.90811 121.876609 
L 173.90811 121.91355 
L 174.90811 122.011296 
L 175.90811 122.043818 
L 176.90811 122.117442 
L 177.90811 122.156008 
L 178.90811 122.191421 
L 179.90811 122.249061 
L 180.90811 122.319447 
L 181.90811 122.371411 
L 182.90811 122.430501 
L 183.90811 122.518822 
L 184.90811 122.564966 
L 185.90811 122.607377 
L 186.90811 122.63787 
L 187.90811 122.663915 
L 188.90811 122.685115 
L 189.90811 122.739416 
L 190.90811 122.767354 
L 191.90811 122.797078 
L 192.90811 122.822473 
L 193.90811 122.833673 
L 194.90811 122.843797 
L 195.90811 122.843593 
L 196.90811 122.834083 
L 197.90811 122.822429 
L 198.90811 122.7914 
L 199.90811 122.780232 
L 200.90811 122.750114 
L 201.90811 122.690337 
L 202.90811 122.653146 
L 203.90811 122.61405 
L 204.90811 122.57161 
L 205.90811 122.538845 
L 206.90811 122.471419 
L 207.90811 122.432293 
L 208.90811 122.389618 
L 209.90811 122.319038 
L 210.90811 122.282647 
L 211.90811 122.224244 
L 212.90811 122.113291 
L 213.90811 122.042633 
L 214.90811 121.929693 
L 215.90811 121.88392 
L 217.800088 121.822637 
" clip-path="url(#p08b6a573ef)" style="fill: none; stroke: #1f77b4; stroke-opacity: 0.5; stroke-width: 0.2; stroke-linecap: square"/>
   <path d="M 217.800088 256.726167 
L 216.800088 256.694731 
L 215.800088 256.657791 
L 214.800088 256.560044 
L 213.800088 256.527522 
L 212.800088 256.453898 
L 211.800088 256.415332 
L 210.800088 256.379919 
L 209.800088 256.322279 
L 208.800088 256.251893 
L 207.800088 256.199929 
L 206.800088 256.140839 
L 205.800088 256.052518 
L 204.800088 256.006374 
L 203.800088 255.963963 
L 202.800088 255.93347 
L 201.800088 255.907425 
L 200.800088 255.886225 
L 199.800088 255.831924 
L 198.800088 255.803986 
L 197.800088 255.774262 
L 196.800088 255.748868 
L 195.800088 255.737667 
L 194.800088 255.727543 
L 193.800088 255.727748 
L 192.800088 255.737257 
L 191.800088 255.748911 
L 190.800088 255.77994 
L 189.800088 255.791108 
L 188.800088 255.821226 
L 187.800088 255.881003 
L 186.800088 255.918194 
L 185.800088 255.95729 
L 184.800088 255.99973 
L 183.800088 256.032495 
L 182.800088 256.099921 
L 181.800088 256.139047 
L 180.800088 256.181722 
L 179.800088 256.252302 
L 178.800088 256.288693 
L 177.800088 256.347097 
L 176.800088 256.458049 
L 175.800088 256.528707 
L 174.800088 256.641647 
L 173.800088 256.68742 
L 171.90811 256.748703 
" clip-path="url(#p08b6a573ef)" style="fill: none; stroke: #ff7f0e; stroke-opacity: 0.5; stroke-width: 0.2; stroke-linecap: square"/>
   <path d="M 217.800088 89.146676 
L 216.800088 89.115239 
L 215.800088 89.078299 
L 214.800088 88.980552 
L 213.800088 88.948031 
L 212.800088 88.874406 
L 211.800088 88.83584 
L 210.800088 88.800427 
L 209.800088 88.742787 
L 208.800088 88.672401 
L 207.800088 88.620437 
L 206.800088 88.561347 
L 205.800088 88.473026 
L 204.800088 88.426882 
L 203.800088 88.384471 
L 202.800088 88.353978 
L 201.800088 88.327933 
L 200.800088 88.306733 
L 199.800088 88.252432 
L 198.800088 88.224494 
L 197.800088 88.194771 
L 196.800088 88.169376 
L 195.800088 88.158175 
L 194.800088 88.148051 
L 193.800088 88.148256 
L 192.800088 88.157766 
L 191.800088 88.169419 
L 190.800088 88.200448 
L 189.800088 88.211616 
L 188.800088 88.241734 
L 187.800088 88.301511 
L 186.800088 88.338702 
L 185.800088 88.377798 
L 184.800088 88.420238 
L 183.800088 88.453003 
L 182.800088 88.52043 
L 181.800088 88.559556 
L 180.800088 88.60223 
L 179.800088 88.672811 
L 178.800088 88.709202 
L 177.800088 88.767605 
L 176.800088 88.878557 
L 175.800088 88.949216 
L 174.800088 89.062155 
L 173.800088 89.107928 
L 171.90811 89.169212 
" clip-path="url(#p08b6a573ef)" style="fill: none; stroke: #ff7f0e; stroke-opacity: 0.5; stroke-width: 0.2; stroke-linecap: square"/>
   <path d="M 217.800088 36.80193 
L 216.800088 36.770494 
L 215.800088 36.733554 
L 214.800088 36.635807 
L 213.800088 36.603286 
L 212.800088 36.529661 
L 211.800088 36.491095 
L 210.800088 36.455682 
L 209.800088 36.398042 
L 208.800088 36.327656 
L 207.800088 36.275692 
L 206.800088 36.216602 
L 205.800088 36.128281 
L 204.800088 36.082137 
L 203.800088 36.039726 
L 202.800088 36.009233 
L 201.800088 35.983188 
L 200.800088 35.961988 
L 199.800088 35.907687 
L 198.800088 35.879749 
L 197.800088 35.850025 
L 196.800088 35.824631 
L 195.800088 35.81343 
L 194.800088 35.803306 
L 193.800088 35.803511 
L 192.800088 35.813021 
L 191.800088 35.824674 
L 190.800088 35.855703 
L 189.800088 35.866871 
L 188.800088 35.896989 
L 187.800088 35.956766 
L 186.800088 35.993957 
L 185.800088 36.033053 
L 184.800088 36.075493 
L 183.800088 36.108258 
L 182.800088 36.175685 
L 181.800088 36.214811 
L 180.800088 36.257485 
L 179.800088 36.328066 
L 178.800088 36.364457 
L 177.800088 36.42286 
L 176.800088 36.533812 
L 175.800088 36.604471 
L 174.800088 36.71741 
L 173.800088 36.763183 
L 171.90811 36.824467 
" clip-path="url(#p08b6a573ef)" style="fill: none; stroke: #ff7f0e; stroke-opacity: 0.5; stroke-width: 0.2; stroke-linecap: square"/>
   <path d="M 217.800088 102.501912 
L 216.800088 102.470475 
L 215.800088 102.433535 
L 214.800088 102.335788 
L 213.800088 102.303267 
L 212.800088 102.229642 
L 211.800088 102.191076 
L 210.800088 102.155663 
L 209.800088 102.098023 
L 208.800088 102.027637 
L 207.800088 101.975673 
L 206.800088 101.916583 
L 205.800088 101.828262 
L 204.800088 101.782118 
L 203.800088 101.739707 
L 202.800088 101.709214 
L 201.800088 101.683169 
L 200.800088 101.661969 
L 199.800088 101.607668 
L 198.800088 101.579731 
L 197.800088 101.550007 
L 196.800088 101.524612 
L 195.800088 101.513411 
L 194.800088 101.503287 
L 193.800088 101.503492 
L 192.800088 101.513002 
L 191.800088 101.524655 
L 190.800088 101.555684 
L 189.800088 101.566852 
L 188.800088 101.59697 
L 187.800088 101.656747 
L 186.800088 101.693938 
L 185.800088 101.733034 
L 184.800088 101.775474 
L 183.800088 101.808239 
L 182.800088 101.875666 
L 181.800088 101.914792 
L 180.800088 101.957466 
L 179.800088 102.028047 
L 178.800088 102.064438 
L 177.800088 102.122841 
L 176.800088 102.233793 
L 175.800088 102.304452 
L 174.800088 102.417392 
L 173.800088 102.463164 
L 171.90811 102.524448 
" clip-path="url(#p08b6a573ef)" style="fill: none; stroke: #ff7f0e; stroke-opacity: 0.5; stroke-width: 0.2; stroke-linecap: square"/>
   <path d="M 217.800088 42.55151 
L 216.800088 42.520073 
L 215.800088 42.483133 
L 214.800088 42.385386 
L 213.800088 42.352865 
L 212.800088 42.27924 
L 211.800088 42.240674 
L 210.800088 42.205261 
L 209.800088 42.147621 
L 208.800088 42.077235 
L 207.800088 42.025271 
L 206.800088 41.966181 
L 205.800088 41.87786 
L 204.800088 41.831716 
L 203.800088 41.789305 
L 202.800088 41.758812 
L 201.800088 41.732767 
L 200.800088 41.711567 
L 199.800088 41.657266 
L 198.800088 41.629329 
L 197.800088 41.599605 
L 196.800088 41.57421 
L 195.800088 41.563009 
L 194.800088 41.552885 
L 193.800088 41.55309 
L 192.800088 41.5626 
L 191.800088 41.574253 
L 190.800088 41.605283 
L 189.800088 41.61645 
L 188.800088 41.646568 
L 187.800088 41.706345 
L 186.800088 41.743536 
L 185.800088 41.782633 
L 184.800088 41.825072 
L 183.800088 41.857837 
L 182.800088 41.925264 
L 181.800088 41.96439 
L 180.800088 42.007064 
L 179.800088 42.077645 
L 178.800088 42.114036 
L 177.800088 42.172439 
L 176.800088 42.283391 
L 175.800088 42.35405 
L 174.800088 42.46699 
L 173.800088 42.512762 
L 171.90811 42.574046 
" clip-path="url(#p08b6a573ef)" style="fill: none; stroke: #ff7f0e; stroke-opacity: 0.5; stroke-width: 0.2; stroke-linecap: square"/>
   <path d="M 217.800088 37.973848 
L 216.800088 37.942412 
L 215.800088 37.905472 
L 214.800088 37.807725 
L 213.800088 37.775203 
L 212.800088 37.701579 
L 211.800088 37.663013 
L 210.800088 37.6276 
L 209.800088 37.56996 
L 208.800088 37.499574 
L 207.800088 37.44761 
L 206.800088 37.38852 
L 205.800088 37.300199 
L 204.800088 37.254055 
L 203.800088 37.211644 
L 202.800088 37.181151 
L 201.800088 37.155106 
L 200.800088 37.133906 
L 199.800088 37.079605 
L 198.800088 37.051667 
L 197.800088 37.021943 
L 196.800088 36.996549 
L 195.800088 36.985348 
L 194.800088 36.975224 
L 193.800088 36.975429 
L 192.800088 36.984938 
L 191.800088 36.996592 
L 190.800088 37.027621 
L 189.800088 37.038789 
L 188.800088 37.068907 
L 187.800088 37.128684 
L 186.800088 37.165875 
L 185.800088 37.204971 
L 184.800088 37.247411 
L 183.800088 37.280176 
L 182.800088 37.347602 
L 181.800088 37.386728 
L 180.800088 37.429403 
L 179.800088 37.499984 
L 178.800088 37.536374 
L 177.800088 37.594778 
L 176.800088 37.70573 
L 175.800088 37.776388 
L 174.800088 37.889328 
L 173.800088 37.935101 
L 171.90811 37.996384 
" clip-path="url(#p08b6a573ef)" style="fill: none; stroke: #ff7f0e; stroke-opacity: 0.5; stroke-width: 0.2; stroke-linecap: square"/>
   <path d="M 217.800088 152.824658 
L 216.800088 152.793222 
L 215.800088 152.756281 
L 214.800088 152.658535 
L 213.800088 152.626013 
L 212.800088 152.552389 
L 211.800088 152.513823 
L 210.800088 152.47841 
L 209.800088 152.42077 
L 208.800088 152.350384 
L 207.800088 152.29842 
L 206.800088 152.23933 
L 205.800088 152.151009 
L 204.800088 152.104865 
L 203.800088 152.062454 
L 202.800088 152.031961 
L 201.800088 152.005916 
L 200.800088 151.984716 
L 199.800088 151.930415 
L 198.800088 151.902477 
L 197.800088 151.872753 
L 196.800088 151.847358 
L 195.800088 151.836158 
L 194.800088 151.826034 
L 193.800088 151.826238 
L 192.800088 151.835748 
L 191.800088 151.847402 
L 190.800088 151.878431 
L 189.800088 151.889599 
L 188.800088 151.919717 
L 187.800088 151.979494 
L 186.800088 152.016685 
L 185.800088 152.055781 
L 184.800088 152.098221 
L 183.800088 152.130986 
L 182.800088 152.198412 
L 181.800088 152.237538 
L 180.800088 152.280213 
L 179.800088 152.350793 
L 178.800088 152.387184 
L 177.800088 152.445587 
L 176.800088 152.55654 
L 175.800088 152.627198 
L 174.800088 152.740138 
L 173.800088 152.785911 
L 171.90811 152.847194 
" clip-path="url(#p08b6a573ef)" style="fill: none; stroke: #ff7f0e; stroke-opacity: 0.5; stroke-width: 0.2; stroke-linecap: square"/>
   <path d="M 217.800088 56.935258 
L 216.800088 56.903822 
L 215.800088 56.866881 
L 214.800088 56.769135 
L 213.800088 56.736613 
L 212.800088 56.662988 
L 211.800088 56.624423 
L 210.800088 56.58901 
L 209.800088 56.53137 
L 208.800088 56.460983 
L 207.800088 56.409019 
L 206.800088 56.34993 
L 205.800088 56.261609 
L 204.800088 56.215464 
L 203.800088 56.173053 
L 202.800088 56.142561 
L 201.800088 56.116516 
L 200.800088 56.095316 
L 199.800088 56.041015 
L 198.800088 56.013077 
L 197.800088 55.983353 
L 196.800088 55.957958 
L 195.800088 55.946758 
L 194.800088 55.936634 
L 193.800088 55.936838 
L 192.800088 55.946348 
L 191.800088 55.958002 
L 190.800088 55.989031 
L 189.800088 56.000199 
L 188.800088 56.030316 
L 187.800088 56.090093 
L 186.800088 56.127285 
L 185.800088 56.166381 
L 184.800088 56.208821 
L 183.800088 56.241586 
L 182.800088 56.309012 
L 181.800088 56.348138 
L 180.800088 56.390813 
L 179.800088 56.461393 
L 178.800088 56.497784 
L 177.800088 56.556187 
L 176.800088 56.66714 
L 175.800088 56.737798 
L 174.800088 56.850738 
L 173.800088 56.896511 
L 171.90811 56.957794 
" clip-path="url(#p08b6a573ef)" style="fill: none; stroke: #ff7f0e; stroke-opacity: 0.5; stroke-width: 0.2; stroke-linecap: square"/>
   <path d="M 217.800088 67.564781 
L 216.800088 67.533344 
L 215.800088 67.496404 
L 214.800088 67.398657 
L 213.800088 67.366136 
L 212.800088 67.292511 
L 211.800088 67.253945 
L 210.800088 67.218532 
L 209.800088 67.160892 
L 208.800088 67.090506 
L 207.800088 67.038542 
L 206.800088 66.979452 
L 205.800088 66.891131 
L 204.800088 66.844987 
L 203.800088 66.802576 
L 202.800088 66.772083 
L 201.800088 66.746038 
L 200.800088 66.724838 
L 199.800088 66.670537 
L 198.800088 66.6426 
L 197.800088 66.612876 
L 196.800088 66.587481 
L 195.800088 66.57628 
L 194.800088 66.566156 
L 193.800088 66.566361 
L 192.800088 66.575871 
L 191.800088 66.587524 
L 190.800088 66.618553 
L 189.800088 66.629721 
L 188.800088 66.659839 
L 187.800088 66.719616 
L 186.800088 66.756807 
L 185.800088 66.795903 
L 184.800088 66.838343 
L 183.800088 66.871108 
L 182.800088 66.938535 
L 181.800088 66.977661 
L 180.800088 67.020335 
L 179.800088 67.090916 
L 178.800088 67.127307 
L 177.800088 67.18571 
L 176.800088 67.296662 
L 175.800088 67.367321 
L 174.800088 67.48026 
L 173.800088 67.526033 
L 171.90811 67.587317 
" clip-path="url(#p08b6a573ef)" style="fill: none; stroke: #ff7f0e; stroke-opacity: 0.5; stroke-width: 0.2; stroke-linecap: square"/>
   <path d="M 217.800088 169.610643 
L 216.800088 169.579207 
L 215.800088 169.542266 
L 214.800088 169.44452 
L 213.800088 169.411998 
L 212.800088 169.338373 
L 211.800088 169.299808 
L 210.800088 169.264395 
L 209.800088 169.206755 
L 208.800088 169.136368 
L 207.800088 169.084404 
L 206.800088 169.025314 
L 205.800088 168.936993 
L 204.800088 168.890849 
L 203.800088 168.848438 
L 202.800088 168.817946 
L 201.800088 168.791901 
L 200.800088 168.770701 
L 199.800088 168.716399 
L 198.800088 168.688462 
L 197.800088 168.658738 
L 196.800088 168.633343 
L 195.800088 168.622143 
L 194.800088 168.612019 
L 193.800088 168.612223 
L 192.800088 168.621733 
L 191.800088 168.633387 
L 190.800088 168.664416 
L 189.800088 168.675584 
L 188.800088 168.705701 
L 187.800088 168.765478 
L 186.800088 168.80267 
L 185.800088 168.841766 
L 184.800088 168.884205 
L 183.800088 168.916971 
L 182.800088 168.984397 
L 181.800088 169.023523 
L 180.800088 169.066197 
L 179.800088 169.136778 
L 178.800088 169.173169 
L 177.800088 169.231572 
L 176.800088 169.342525 
L 175.800088 169.413183 
L 174.800088 169.526123 
L 173.800088 169.571896 
L 171.90811 169.633179 
" clip-path="url(#p08b6a573ef)" style="fill: none; stroke: #ff7f0e; stroke-opacity: 0.5; stroke-width: 0.2; stroke-linecap: square"/>
   <path d="M 326.765537 71.996772 
L 327.765537 72.028208 
L 328.765537 72.065149 
L 329.765537 72.162895 
L 330.765537 72.195417 
L 331.765537 72.269042 
L 332.765537 72.307607 
L 333.765537 72.34302 
L 334.765537 72.40066 
L 335.765537 72.471046 
L 336.765537 72.523011 
L 337.765537 72.5821 
L 338.765537 72.670421 
L 339.765537 72.716566 
L 340.765537 72.758977 
L 341.765537 72.789469 
L 342.765537 72.815514 
L 343.765537 72.836714 
L 344.765537 72.891015 
L 345.765537 72.918953 
L 346.765537 72.948677 
L 347.765537 72.974072 
L 348.765537 72.985272 
L 349.765537 72.995396 
L 350.765537 72.995192 
L 351.765537 72.985682 
L 352.765537 72.974028 
L 353.765537 72.942999 
L 354.765537 72.931831 
L 355.765537 72.901714 
L 356.765537 72.841937 
L 357.765537 72.804745 
L 358.765537 72.765649 
L 359.765537 72.723209 
L 360.765537 72.690444 
L 361.765537 72.623018 
L 362.765537 72.583892 
L 363.765537 72.541217 
L 364.765537 72.470637 
L 365.765537 72.434246 
L 366.765537 72.375843 
L 367.765537 72.26489 
L 368.765537 72.194232 
L 369.765537 72.081292 
L 370.765537 72.035519 
L 372.657515 71.974236 
" clip-path="url(#p08b6a573ef)" style="fill: none; stroke: #ff7f0e; stroke-opacity: 0.5; stroke-width: 0.2; stroke-linecap: square"/>
   <path d="M 326.765537 150.668288 
L 327.765537 150.699724 
L 328.765537 150.736665 
L 329.765537 150.834411 
L 330.765537 150.866933 
L 331.765537 150.940557 
L 332.765537 150.979123 
L 333.765537 151.014536 
L 334.765537 151.072176 
L 335.765537 151.142562 
L 336.765537 151.194526 
L 337.765537 151.253616 
L 338.765537 151.341937 
L 339.765537 151.388082 
L 340.765537 151.430492 
L 341.765537 151.460985 
L 342.765537 151.48703 
L 343.765537 151.50823 
L 344.765537 151.562531 
L 345.765537 151.590469 
L 346.765537 151.620193 
L 347.765537 151.645588 
L 348.765537 151.656788 
L 349.765537 151.666912 
L 350.765537 151.666708 
L 351.765537 151.657198 
L 352.765537 151.645544 
L 353.765537 151.614515 
L 354.765537 151.603347 
L 355.765537 151.573229 
L 356.765537 151.513453 
L 357.765537 151.476261 
L 358.765537 151.437165 
L 359.765537 151.394725 
L 360.765537 151.36196 
L 361.765537 151.294534 
L 362.765537 151.255408 
L 363.765537 151.212733 
L 364.765537 151.142153 
L 365.765537 151.105762 
L 366.765537 151.047359 
L 367.765537 150.936406 
L 368.765537 150.865748 
L 369.765537 150.752808 
L 370.765537 150.707035 
L 372.657515 150.645752 
" clip-path="url(#p08b6a573ef)" style="fill: none; stroke: #ff7f0e; stroke-opacity: 0.5; stroke-width: 0.2; stroke-linecap: square"/>
   <path d="M 326.765537 64.261835 
L 327.765537 64.293272 
L 328.765537 64.330212 
L 329.765537 64.427959 
L 330.765537 64.46048 
L 331.765537 64.534105 
L 332.765537 64.57267 
L 333.765537 64.608084 
L 334.765537 64.665723 
L 335.765537 64.73611 
L 336.765537 64.788074 
L 337.765537 64.847164 
L 338.765537 64.935485 
L 339.765537 64.981629 
L 340.765537 65.02404 
L 341.765537 65.054533 
L 342.765537 65.080577 
L 343.765537 65.101778 
L 344.765537 65.156079 
L 345.765537 65.184016 
L 346.765537 65.21374 
L 347.765537 65.239135 
L 348.765537 65.250335 
L 349.765537 65.260459 
L 350.765537 65.260255 
L 351.765537 65.250745 
L 352.765537 65.239092 
L 353.765537 65.208062 
L 354.765537 65.196894 
L 355.765537 65.166777 
L 356.765537 65.107 
L 357.765537 65.069808 
L 358.765537 65.030712 
L 359.765537 64.988273 
L 360.765537 64.955508 
L 361.765537 64.888081 
L 362.765537 64.848955 
L 363.765537 64.806281 
L 364.765537 64.7357 
L 365.765537 64.699309 
L 366.765537 64.640906 
L 367.765537 64.529953 
L 368.765537 64.459295 
L 369.765537 64.346355 
L 370.765537 64.300582 
L 372.657515 64.239299 
" clip-path="url(#p08b6a573ef)" style="fill: none; stroke: #ff7f0e; stroke-opacity: 0.5; stroke-width: 0.2; stroke-linecap: square"/>
   <path d="M 326.765537 175.365136 
L 327.765537 175.396572 
L 328.765537 175.433512 
L 329.765537 175.531259 
L 330.765537 175.56378 
L 331.765537 175.637405 
L 332.765537 175.675971 
L 333.765537 175.711384 
L 334.765537 175.769024 
L 335.765537 175.83941 
L 336.765537 175.891374 
L 337.765537 175.950464 
L 338.765537 176.038785 
L 339.765537 176.084929 
L 340.765537 176.12734 
L 341.765537 176.157833 
L 342.765537 176.183878 
L 343.765537 176.205078 
L 344.765537 176.259379 
L 345.765537 176.287317 
L 346.765537 176.317041 
L 347.765537 176.342435 
L 348.765537 176.353636 
L 349.765537 176.36376 
L 350.765537 176.363555 
L 351.765537 176.354045 
L 352.765537 176.342392 
L 353.765537 176.311363 
L 354.765537 176.300195 
L 355.765537 176.270077 
L 356.765537 176.2103 
L 357.765537 176.173109 
L 358.765537 176.134013 
L 359.765537 176.091573 
L 360.765537 176.058808 
L 361.765537 175.991381 
L 362.765537 175.952255 
L 363.765537 175.909581 
L 364.765537 175.839 
L 365.765537 175.802609 
L 366.765537 175.744206 
L 367.765537 175.633254 
L 368.765537 175.562595 
L 369.765537 175.449656 
L 370.765537 175.403883 
L 372.657515 175.342599 
" clip-path="url(#p08b6a573ef)" style="fill: none; stroke: #ff7f0e; stroke-opacity: 0.5; stroke-width: 0.2; stroke-linecap: square"/>
   <path d="M 326.765537 79.841012 
L 327.765537 79.872448 
L 328.765537 79.909389 
L 329.765537 80.007135 
L 330.765537 80.039657 
L 331.765537 80.113282 
L 332.765537 80.151847 
L 333.765537 80.18726 
L 334.765537 80.2449 
L 335.765537 80.315287 
L 336.765537 80.367251 
L 337.765537 80.42634 
L 338.765537 80.514661 
L 339.765537 80.560806 
L 340.765537 80.603217 
L 341.765537 80.633709 
L 342.765537 80.659754 
L 343.765537 80.680954 
L 344.765537 80.735256 
L 345.765537 80.763193 
L 346.765537 80.792917 
L 347.765537 80.818312 
L 348.765537 80.829512 
L 349.765537 80.839636 
L 350.765537 80.839432 
L 351.765537 80.829922 
L 352.765537 80.818268 
L 353.765537 80.787239 
L 354.765537 80.776071 
L 355.765537 80.745954 
L 356.765537 80.686177 
L 357.765537 80.648985 
L 358.765537 80.609889 
L 359.765537 80.567449 
L 360.765537 80.534684 
L 361.765537 80.467258 
L 362.765537 80.428132 
L 363.765537 80.385457 
L 364.765537 80.314877 
L 365.765537 80.278486 
L 366.765537 80.220083 
L 367.765537 80.10913 
L 368.765537 80.038472 
L 369.765537 79.925532 
L 370.765537 79.879759 
L 372.657515 79.818476 
" clip-path="url(#p08b6a573ef)" style="fill: none; stroke: #ff7f0e; stroke-opacity: 0.5; stroke-width: 0.2; stroke-linecap: square"/>
   <path d="M 326.765537 55.503394 
L 327.765537 55.53483 
L 328.765537 55.571771 
L 329.765537 55.669517 
L 330.765537 55.702039 
L 331.765537 55.775663 
L 332.765537 55.814229 
L 333.765537 55.849642 
L 334.765537 55.907282 
L 335.765537 55.977668 
L 336.765537 56.029633 
L 337.765537 56.088722 
L 338.765537 56.177043 
L 339.765537 56.223188 
L 340.765537 56.265598 
L 341.765537 56.296091 
L 342.765537 56.322136 
L 343.765537 56.343336 
L 344.765537 56.397637 
L 345.765537 56.425575 
L 346.765537 56.455299 
L 347.765537 56.480694 
L 348.765537 56.491894 
L 349.765537 56.502018 
L 350.765537 56.501814 
L 351.765537 56.492304 
L 352.765537 56.48065 
L 353.765537 56.449621 
L 354.765537 56.438453 
L 355.765537 56.408335 
L 356.765537 56.348559 
L 357.765537 56.311367 
L 358.765537 56.272271 
L 359.765537 56.229831 
L 360.765537 56.197066 
L 361.765537 56.12964 
L 362.765537 56.090514 
L 363.765537 56.047839 
L 364.765537 55.977259 
L 365.765537 55.940868 
L 366.765537 55.882465 
L 367.765537 55.771512 
L 368.765537 55.700854 
L 369.765537 55.587914 
L 370.765537 55.542141 
L 372.657515 55.480858 
" clip-path="url(#p08b6a573ef)" style="fill: none; stroke: #ff7f0e; stroke-opacity: 0.5; stroke-width: 0.2; stroke-linecap: square"/>
   <path d="M 326.765537 203.149333 
L 327.765537 203.18077 
L 328.765537 203.21771 
L 329.765537 203.315457 
L 330.765537 203.347978 
L 331.765537 203.421603 
L 332.765537 203.460169 
L 333.765537 203.495582 
L 334.765537 203.553222 
L 335.765537 203.623608 
L 336.765537 203.675572 
L 337.765537 203.734662 
L 338.765537 203.822983 
L 339.765537 203.869127 
L 340.765537 203.911538 
L 341.765537 203.942031 
L 342.765537 203.968076 
L 343.765537 203.989276 
L 344.765537 204.043577 
L 345.765537 204.071514 
L 346.765537 204.101238 
L 347.765537 204.126633 
L 348.765537 204.137834 
L 349.765537 204.147958 
L 350.765537 204.147753 
L 351.765537 204.138243 
L 352.765537 204.12659 
L 353.765537 204.095561 
L 354.765537 204.084393 
L 355.765537 204.054275 
L 356.765537 203.994498 
L 357.765537 203.957307 
L 358.765537 203.91821 
L 359.765537 203.875771 
L 360.765537 203.843006 
L 361.765537 203.775579 
L 362.765537 203.736453 
L 363.765537 203.693779 
L 364.765537 203.623198 
L 365.765537 203.586807 
L 366.765537 203.528404 
L 367.765537 203.417452 
L 368.765537 203.346793 
L 369.765537 203.233853 
L 370.765537 203.188081 
L 372.657515 203.126797 
" clip-path="url(#p08b6a573ef)" style="fill: none; stroke: #ff7f0e; stroke-opacity: 0.5; stroke-width: 0.2; stroke-linecap: square"/>
   <path d="M 326.765537 247.009113 
L 327.765537 247.040549 
L 328.765537 247.077489 
L 329.765537 247.175236 
L 330.765537 247.207758 
L 331.765537 247.281382 
L 332.765537 247.319948 
L 333.765537 247.355361 
L 334.765537 247.413001 
L 335.765537 247.483387 
L 336.765537 247.535351 
L 337.765537 247.594441 
L 338.765537 247.682762 
L 339.765537 247.728906 
L 340.765537 247.771317 
L 341.765537 247.80181 
L 342.765537 247.827855 
L 343.765537 247.849055 
L 344.765537 247.903356 
L 345.765537 247.931294 
L 346.765537 247.961018 
L 347.765537 247.986412 
L 348.765537 247.997613 
L 349.765537 248.007737 
L 350.765537 248.007532 
L 351.765537 247.998023 
L 352.765537 247.986369 
L 353.765537 247.95534 
L 354.765537 247.944172 
L 355.765537 247.914054 
L 356.765537 247.854277 
L 357.765537 247.817086 
L 358.765537 247.77799 
L 359.765537 247.73555 
L 360.765537 247.702785 
L 361.765537 247.635359 
L 362.765537 247.596233 
L 363.765537 247.553558 
L 364.765537 247.482977 
L 365.765537 247.446587 
L 366.765537 247.388183 
L 367.765537 247.277231 
L 368.765537 247.206573 
L 369.765537 247.093633 
L 370.765537 247.04786 
L 372.657515 246.986577 
" clip-path="url(#p08b6a573ef)" style="fill: none; stroke: #ff7f0e; stroke-opacity: 0.5; stroke-width: 0.2; stroke-linecap: square"/>
   <path d="M 326.765537 168.329792 
L 327.765537 168.361229 
L 328.765537 168.398169 
L 329.765537 168.495916 
L 330.765537 168.528437 
L 331.765537 168.602062 
L 332.765537 168.640627 
L 333.765537 168.676041 
L 334.765537 168.733681 
L 335.765537 168.804067 
L 336.765537 168.856031 
L 337.765537 168.915121 
L 338.765537 169.003442 
L 339.765537 169.049586 
L 340.765537 169.091997 
L 341.765537 169.12249 
L 342.765537 169.148535 
L 343.765537 169.169735 
L 344.765537 169.224036 
L 345.765537 169.251973 
L 346.765537 169.281697 
L 347.765537 169.307092 
L 348.765537 169.318292 
L 349.765537 169.328416 
L 350.765537 169.328212 
L 351.765537 169.318702 
L 352.765537 169.307049 
L 353.765537 169.276019 
L 354.765537 169.264851 
L 355.765537 169.234734 
L 356.765537 169.174957 
L 357.765537 169.137765 
L 358.765537 169.098669 
L 359.765537 169.05623 
L 360.765537 169.023465 
L 361.765537 168.956038 
L 362.765537 168.916912 
L 363.765537 168.874238 
L 364.765537 168.803657 
L 365.765537 168.767266 
L 366.765537 168.708863 
L 367.765537 168.59791 
L 368.765537 168.527252 
L 369.765537 168.414312 
L 370.765537 168.368539 
L 372.657515 168.307256 
" clip-path="url(#p08b6a573ef)" style="fill: none; stroke: #ff7f0e; stroke-opacity: 0.5; stroke-width: 0.2; stroke-linecap: square"/>
   <path d="M 326.765537 245.187539 
L 327.765537 245.218975 
L 328.765537 245.255916 
L 329.765537 245.353662 
L 330.765537 245.386184 
L 331.765537 245.459809 
L 332.765537 245.498374 
L 333.765537 245.533787 
L 334.765537 245.591427 
L 335.765537 245.661814 
L 336.765537 245.713778 
L 337.765537 245.772868 
L 338.765537 245.861188 
L 339.765537 245.907333 
L 340.765537 245.949744 
L 341.765537 245.980236 
L 342.765537 246.006281 
L 343.765537 246.027481 
L 344.765537 246.081783 
L 345.765537 246.10972 
L 346.765537 246.139444 
L 347.765537 246.164839 
L 348.765537 246.176039 
L 349.765537 246.186163 
L 350.765537 246.185959 
L 351.765537 246.176449 
L 352.765537 246.164795 
L 353.765537 246.133766 
L 354.765537 246.122598 
L 355.765537 246.092481 
L 356.765537 246.032704 
L 357.765537 245.995512 
L 358.765537 245.956416 
L 359.765537 245.913977 
L 360.765537 245.881211 
L 361.765537 245.813785 
L 362.765537 245.774659 
L 363.765537 245.731985 
L 364.765537 245.661404 
L 365.765537 245.625013 
L 366.765537 245.56661 
L 367.765537 245.455657 
L 368.765537 245.384999 
L 369.765537 245.272059 
L 370.765537 245.226286 
L 372.657515 245.165003 
" clip-path="url(#p08b6a573ef)" style="fill: none; stroke: #ff7f0e; stroke-opacity: 0.5; stroke-width: 0.2; stroke-linecap: square"/>
   <path d="M 372.657515 38.065696 
L 371.657515 38.03426 
L 370.657515 37.99732 
L 369.657515 37.899573 
L 368.657515 37.867051 
L 367.657515 37.793427 
L 366.657515 37.754861 
L 365.657515 37.719448 
L 364.657515 37.661808 
L 363.657515 37.591422 
L 362.657515 37.539458 
L 361.657515 37.480368 
L 360.657515 37.392047 
L 359.657515 37.345903 
L 358.657515 37.303492 
L 357.657515 37.272999 
L 356.657515 37.246954 
L 355.657515 37.225754 
L 354.657515 37.171453 
L 353.657515 37.143515 
L 352.657515 37.113791 
L 351.657515 37.088397 
L 350.657515 37.077196 
L 349.657515 37.067072 
L 348.657515 37.067277 
L 347.657515 37.076786 
L 346.657515 37.08844 
L 345.657515 37.119469 
L 344.657515 37.130637 
L 343.657515 37.160755 
L 342.657515 37.220532 
L 341.657515 37.257723 
L 340.657515 37.296819 
L 339.657515 37.339259 
L 338.657515 37.372024 
L 337.657515 37.43945 
L 336.657515 37.478576 
L 335.657515 37.521251 
L 334.657515 37.591832 
L 333.657515 37.628222 
L 332.657515 37.686626 
L 331.657515 37.797578 
L 330.657515 37.868236 
L 329.657515 37.981176 
L 328.657515 38.026949 
L 326.765537 38.088232 
" clip-path="url(#p08b6a573ef)" style="fill: none; stroke: #2ca02c; stroke-opacity: 0.5; stroke-width: 0.2; stroke-linecap: square"/>
   <path d="M 372.657515 230.382539 
L 371.657515 230.351103 
L 370.657515 230.314162 
L 369.657515 230.216416 
L 368.657515 230.183894 
L 367.657515 230.11027 
L 366.657515 230.071704 
L 365.657515 230.036291 
L 364.657515 229.978651 
L 363.657515 229.908265 
L 362.657515 229.8563 
L 361.657515 229.797211 
L 360.657515 229.70889 
L 359.657515 229.662745 
L 358.657515 229.620335 
L 357.657515 229.589842 
L 356.657515 229.563797 
L 355.657515 229.542597 
L 354.657515 229.488296 
L 353.657515 229.460358 
L 352.657515 229.430634 
L 351.657515 229.405239 
L 350.657515 229.394039 
L 349.657515 229.383915 
L 348.657515 229.384119 
L 347.657515 229.393629 
L 346.657515 229.405283 
L 345.657515 229.436312 
L 344.657515 229.44748 
L 343.657515 229.477598 
L 342.657515 229.537374 
L 341.657515 229.574566 
L 340.657515 229.613662 
L 339.657515 229.656102 
L 338.657515 229.688867 
L 337.657515 229.756293 
L 336.657515 229.795419 
L 335.657515 229.838094 
L 334.657515 229.908674 
L 333.657515 229.945065 
L 332.657515 230.003468 
L 331.657515 230.114421 
L 330.657515 230.185079 
L 329.657515 230.298019 
L 328.657515 230.343792 
L 326.765537 230.405075 
" clip-path="url(#p08b6a573ef)" style="fill: none; stroke: #2ca02c; stroke-opacity: 0.5; stroke-width: 0.2; stroke-linecap: square"/>
   <path d="M 372.657515 229.453027 
L 371.657515 229.421591 
L 370.657515 229.38465 
L 369.657515 229.286904 
L 368.657515 229.254382 
L 367.657515 229.180757 
L 366.657515 229.142192 
L 365.657515 229.106779 
L 364.657515 229.049139 
L 363.657515 228.978752 
L 362.657515 228.926788 
L 361.657515 228.867698 
L 360.657515 228.779378 
L 359.657515 228.733233 
L 358.657515 228.690822 
L 357.657515 228.66033 
L 356.657515 228.634285 
L 355.657515 228.613085 
L 354.657515 228.558783 
L 353.657515 228.530846 
L 352.657515 228.501122 
L 351.657515 228.475727 
L 350.657515 228.464527 
L 349.657515 228.454403 
L 348.657515 228.454607 
L 347.657515 228.464117 
L 346.657515 228.475771 
L 345.657515 228.5068 
L 344.657515 228.517968 
L 343.657515 228.548085 
L 342.657515 228.607862 
L 341.657515 228.645054 
L 340.657515 228.68415 
L 339.657515 228.726589 
L 338.657515 228.759355 
L 337.657515 228.826781 
L 336.657515 228.865907 
L 335.657515 228.908581 
L 334.657515 228.979162 
L 333.657515 229.015553 
L 332.657515 229.073956 
L 331.657515 229.184909 
L 330.657515 229.255567 
L 329.657515 229.368507 
L 328.657515 229.41428 
L 326.765537 229.475563 
" clip-path="url(#p08b6a573ef)" style="fill: none; stroke: #2ca02c; stroke-opacity: 0.5; stroke-width: 0.2; stroke-linecap: square"/>
   <path d="M 372.657515 143.747375 
L 371.657515 143.715939 
L 370.657515 143.678999 
L 369.657515 143.581252 
L 368.657515 143.54873 
L 367.657515 143.475106 
L 366.657515 143.43654 
L 365.657515 143.401127 
L 364.657515 143.343487 
L 363.657515 143.273101 
L 362.657515 143.221137 
L 361.657515 143.162047 
L 360.657515 143.073726 
L 359.657515 143.027582 
L 358.657515 142.985171 
L 357.657515 142.954678 
L 356.657515 142.928633 
L 355.657515 142.907433 
L 354.657515 142.853132 
L 353.657515 142.825194 
L 352.657515 142.79547 
L 351.657515 142.770076 
L 350.657515 142.758875 
L 349.657515 142.748751 
L 348.657515 142.748956 
L 347.657515 142.758465 
L 346.657515 142.770119 
L 345.657515 142.801148 
L 344.657515 142.812316 
L 343.657515 142.842434 
L 342.657515 142.902211 
L 341.657515 142.939402 
L 340.657515 142.978498 
L 339.657515 143.020938 
L 338.657515 143.053703 
L 337.657515 143.121129 
L 336.657515 143.160255 
L 335.657515 143.20293 
L 334.657515 143.27351 
L 333.657515 143.309901 
L 332.657515 143.368305 
L 331.657515 143.479257 
L 330.657515 143.549915 
L 329.657515 143.662855 
L 328.657515 143.708628 
L 326.765537 143.769911 
" clip-path="url(#p08b6a573ef)" style="fill: none; stroke: #2ca02c; stroke-opacity: 0.5; stroke-width: 0.2; stroke-linecap: square"/>
   <path d="M 372.657515 233.027401 
L 371.657515 232.995964 
L 370.657515 232.959024 
L 369.657515 232.861277 
L 368.657515 232.828756 
L 367.657515 232.755131 
L 366.657515 232.716565 
L 365.657515 232.681152 
L 364.657515 232.623512 
L 363.657515 232.553126 
L 362.657515 232.501162 
L 361.657515 232.442072 
L 360.657515 232.353751 
L 359.657515 232.307607 
L 358.657515 232.265196 
L 357.657515 232.234703 
L 356.657515 232.208658 
L 355.657515 232.187458 
L 354.657515 232.133157 
L 353.657515 232.10522 
L 352.657515 232.075496 
L 351.657515 232.050101 
L 350.657515 232.0389 
L 349.657515 232.028776 
L 348.657515 232.028981 
L 347.657515 232.038491 
L 346.657515 232.050144 
L 345.657515 232.081174 
L 344.657515 232.092341 
L 343.657515 232.122459 
L 342.657515 232.182236 
L 341.657515 232.219427 
L 340.657515 232.258524 
L 339.657515 232.300963 
L 338.657515 232.333728 
L 337.657515 232.401155 
L 336.657515 232.440281 
L 335.657515 232.482955 
L 334.657515 232.553536 
L 333.657515 232.589927 
L 332.657515 232.64833 
L 331.657515 232.759282 
L 330.657515 232.829941 
L 329.657515 232.942881 
L 328.657515 232.988653 
L 326.765537 233.049937 
" clip-path="url(#p08b6a573ef)" style="fill: none; stroke: #2ca02c; stroke-opacity: 0.5; stroke-width: 0.2; stroke-linecap: square"/>
   <path d="M 372.657515 25.030817 
L 371.657515 24.999381 
L 370.657515 24.96244 
L 369.657515 24.864694 
L 368.657515 24.832172 
L 367.657515 24.758548 
L 366.657515 24.719982 
L 365.657515 24.684569 
L 364.657515 24.626929 
L 363.657515 24.556543 
L 362.657515 24.504579 
L 361.657515 24.445489 
L 360.657515 24.357168 
L 359.657515 24.311023 
L 358.657515 24.268613 
L 357.657515 24.23812 
L 356.657515 24.212075 
L 355.657515 24.190875 
L 354.657515 24.136574 
L 353.657515 24.108636 
L 352.657515 24.078912 
L 351.657515 24.053517 
L 350.657515 24.042317 
L 349.657515 24.032193 
L 348.657515 24.032397 
L 347.657515 24.041907 
L 346.657515 24.053561 
L 345.657515 24.08459 
L 344.657515 24.095758 
L 343.657515 24.125876 
L 342.657515 24.185652 
L 341.657515 24.222844 
L 340.657515 24.26194 
L 339.657515 24.30438 
L 338.657515 24.337145 
L 337.657515 24.404571 
L 336.657515 24.443697 
L 335.657515 24.486372 
L 334.657515 24.556952 
L 333.657515 24.593343 
L 332.657515 24.651746 
L 331.657515 24.762699 
L 330.657515 24.833357 
L 329.657515 24.946297 
L 328.657515 24.99207 
L 326.765537 25.053353 
" clip-path="url(#p08b6a573ef)" style="fill: none; stroke: #2ca02c; stroke-opacity: 0.5; stroke-width: 0.2; stroke-linecap: square"/>
   <path d="M 372.657515 127.603342 
L 371.657515 127.571906 
L 370.657515 127.534965 
L 369.657515 127.437219 
L 368.657515 127.404697 
L 367.657515 127.331072 
L 366.657515 127.292507 
L 365.657515 127.257094 
L 364.657515 127.199454 
L 363.657515 127.129067 
L 362.657515 127.077103 
L 361.657515 127.018013 
L 360.657515 126.929693 
L 359.657515 126.883548 
L 358.657515 126.841137 
L 357.657515 126.810645 
L 356.657515 126.7846 
L 355.657515 126.7634 
L 354.657515 126.709098 
L 353.657515 126.681161 
L 352.657515 126.651437 
L 351.657515 126.626042 
L 350.657515 126.614842 
L 349.657515 126.604718 
L 348.657515 126.604922 
L 347.657515 126.614432 
L 346.657515 126.626086 
L 345.657515 126.657115 
L 344.657515 126.668283 
L 343.657515 126.6984 
L 342.657515 126.758177 
L 341.657515 126.795369 
L 340.657515 126.834465 
L 339.657515 126.876904 
L 338.657515 126.90967 
L 337.657515 126.977096 
L 336.657515 127.016222 
L 335.657515 127.058896 
L 334.657515 127.129477 
L 333.657515 127.165868 
L 332.657515 127.224271 
L 331.657515 127.335224 
L 330.657515 127.405882 
L 329.657515 127.518822 
L 328.657515 127.564595 
L 326.765537 127.625878 
" clip-path="url(#p08b6a573ef)" style="fill: none; stroke: #2ca02c; stroke-opacity: 0.5; stroke-width: 0.2; stroke-linecap: square"/>
   <path d="M 372.657515 110.902319 
L 371.657515 110.870882 
L 370.657515 110.833942 
L 369.657515 110.736196 
L 368.657515 110.703674 
L 367.657515 110.630049 
L 366.657515 110.591484 
L 365.657515 110.556071 
L 364.657515 110.498431 
L 363.657515 110.428044 
L 362.657515 110.37608 
L 361.657515 110.31699 
L 360.657515 110.228669 
L 359.657515 110.182525 
L 358.657515 110.140114 
L 357.657515 110.109622 
L 356.657515 110.083577 
L 355.657515 110.062377 
L 354.657515 110.008075 
L 353.657515 109.980138 
L 352.657515 109.950414 
L 351.657515 109.925019 
L 350.657515 109.913819 
L 349.657515 109.903695 
L 348.657515 109.903899 
L 347.657515 109.913409 
L 346.657515 109.925063 
L 345.657515 109.956092 
L 344.657515 109.96726 
L 343.657515 109.997377 
L 342.657515 110.057154 
L 341.657515 110.094346 
L 340.657515 110.133442 
L 339.657515 110.175881 
L 338.657515 110.208647 
L 337.657515 110.276073 
L 336.657515 110.315199 
L 335.657515 110.357873 
L 334.657515 110.428454 
L 333.657515 110.464845 
L 332.657515 110.523248 
L 331.657515 110.634201 
L 330.657515 110.704859 
L 329.657515 110.817799 
L 328.657515 110.863572 
L 326.765537 110.924855 
" clip-path="url(#p08b6a573ef)" style="fill: none; stroke: #2ca02c; stroke-opacity: 0.5; stroke-width: 0.2; stroke-linecap: square"/>
   <path d="M 372.657515 221.888768 
L 371.657515 221.857332 
L 370.657515 221.820391 
L 369.657515 221.722645 
L 368.657515 221.690123 
L 367.657515 221.616498 
L 366.657515 221.577933 
L 365.657515 221.54252 
L 364.657515 221.48488 
L 363.657515 221.414494 
L 362.657515 221.362529 
L 361.657515 221.30344 
L 360.657515 221.215119 
L 359.657515 221.168974 
L 358.657515 221.126563 
L 357.657515 221.096071 
L 356.657515 221.070026 
L 355.657515 221.048826 
L 354.657515 220.994525 
L 353.657515 220.966587 
L 352.657515 220.936863 
L 351.657515 220.911468 
L 350.657515 220.900268 
L 349.657515 220.890144 
L 348.657515 220.890348 
L 347.657515 220.899858 
L 346.657515 220.911512 
L 345.657515 220.942541 
L 344.657515 220.953709 
L 343.657515 220.983826 
L 342.657515 221.043603 
L 341.657515 221.080795 
L 340.657515 221.119891 
L 339.657515 221.162331 
L 338.657515 221.195096 
L 337.657515 221.262522 
L 336.657515 221.301648 
L 335.657515 221.344323 
L 334.657515 221.414903 
L 333.657515 221.451294 
L 332.657515 221.509697 
L 331.657515 221.62065 
L 330.657515 221.691308 
L 329.657515 221.804248 
L 328.657515 221.850021 
L 326.765537 221.911304 
" clip-path="url(#p08b6a573ef)" style="fill: none; stroke: #2ca02c; stroke-opacity: 0.5; stroke-width: 0.2; stroke-linecap: square"/>
   <path d="M 372.657515 182.110926 
L 371.657515 182.07949 
L 370.657515 182.04255 
L 369.657515 181.944803 
L 368.657515 181.912282 
L 367.657515 181.838657 
L 366.657515 181.800091 
L 365.657515 181.764678 
L 364.657515 181.707038 
L 363.657515 181.636652 
L 362.657515 181.584688 
L 361.657515 181.525598 
L 360.657515 181.437277 
L 359.657515 181.391133 
L 358.657515 181.348722 
L 357.657515 181.318229 
L 356.657515 181.292184 
L 355.657515 181.270984 
L 354.657515 181.216683 
L 353.657515 181.188745 
L 352.657515 181.159021 
L 351.657515 181.133627 
L 350.657515 181.122426 
L 349.657515 181.112302 
L 348.657515 181.112507 
L 347.657515 181.122017 
L 346.657515 181.13367 
L 345.657515 181.164699 
L 344.657515 181.175867 
L 343.657515 181.205985 
L 342.657515 181.265762 
L 341.657515 181.302953 
L 340.657515 181.342049 
L 339.657515 181.384489 
L 338.657515 181.417254 
L 337.657515 181.484681 
L 336.657515 181.523807 
L 335.657515 181.566481 
L 334.657515 181.637062 
L 333.657515 181.673453 
L 332.657515 181.731856 
L 331.657515 181.842808 
L 330.657515 181.913467 
L 329.657515 182.026406 
L 328.657515 182.072179 
L 326.765537 182.133463 
" clip-path="url(#p08b6a573ef)" style="fill: none; stroke: #2ca02c; stroke-opacity: 0.5; stroke-width: 0.2; stroke-linecap: square"/>
   <g id="patch_3">
    <path d="M 67.449006 22.318125 
L 67.449006 260.421875 
M 167.401766 22.318125 
L 167.401766 260.421875 
" clip-path="url(#p08b6a573ef)" style="fill: none; stroke: #ffffff; stroke-width: 3; stroke-linejoin: miter"/>
    <path d="M 67.449006 22.318125 
L 67.449006 260.421875 
M 167.401766 22.318125 
L 167.401766 260.421875 
" clip-path="url(#p08b6a573ef)" style="fill: none; stroke: #1f77b4; stroke-linejoin: miter"/>
    <g id="PolyCollection_1">
     <path d="M 167.401766 22.318125 
L 67.449006 22.318125 
L 67.449006 260.421875 
L 167.401766 260.421875 
L 167.401766 260.421875 
L 167.401766 22.318125 
z
" clip-path="url(#p08b6a573ef)" style="fill: #1f77b4; fill-opacity: 0.5"/>
    </g>
    <g id="patch_4">
     <path d="M 222.306432 22.318125 
L 222.306432 260.421875 
M 322.259193 22.318125 
L 322.259193 260.421875 
" clip-path="url(#p08b6a573ef)" style="fill: none; stroke: #ffffff; stroke-width: 3; stroke-linejoin: miter"/>
     <path d="M 222.306432 22.318125 
L 222.306432 260.421875 
M 322.259193 22.318125 
L 322.259193 260.421875 
" clip-path="url(#p08b6a573ef)" style="fill: none; stroke: #ff7f0e; stroke-linejoin: miter"/>
     <g id="PolyCollection_2">
      <path d="M 322.259193 22.318125 
L 222.306432 22.318125 
L 222.306432 260.421875 
L 322.259193 260.421875 
L 322.259193 260.421875 
L 322.259193 22.318125 
z
" clip-path="url(#p08b6a573ef)" style="fill: #ff7f0e; fill-opacity: 0.5"/>
     </g>
     <g id="patch_5">
      <path d="M 377.163859 22.318125 
L 377.163859 260.421875 
M 477.116619 22.318125 
L 477.116619 260.421875 
" clip-path="url(#p08b6a573ef)" style="fill: none; stroke: #ffffff; stroke-width: 3; stroke-linejoin: miter"/>
      <path d="M 377.163859 22.318125 
L 377.163859 260.421875 
M 477.116619 22.318125 
L 477.116619 260.421875 
" clip-path="url(#p08b6a573ef)" style="fill: none; stroke: #2ca02c; stroke-linejoin: miter"/>
      <g id="PolyCollection_3">
       <path d="M 477.116619 22.318125 
L 377.163859 22.318125 
L 377.163859 260.421875 
L 477.116619 260.421875 
L 477.116619 260.421875 
L 477.116619 22.318125 
z
" clip-path="url(#p08b6a573ef)" style="fill: #2ca02c; fill-opacity: 0.5"/>
      </g>
      <g id="matplotlib.axis_1">
       <g id="xtick_1">
        <g id="line2d_1"/>
        <g id="text_1">
         <!-- deme1 -->
         <g transform="translate(100.04648 271.520312)scale(0.1 -0.1)">
          <defs>
           <path id="DejaVuSans-64" d="M 2906 2969 
L 2906 4863 
L 3481 4863 
L 3481 0 
L 2906 0 
L 2906 525 
Q 2725 213 2448 61 
Q 2172 -91 1784 -91 
Q 1150 -91 751 415 
Q 353 922 353 1747 
Q 353 2572 751 3078 
Q 1150 3584 1784 3584 
Q 2172 3584 2448 3432 
Q 2725 3281 2906 2969 
z
M 947 1747 
Q 947 1113 1208 752 
Q 1469 391 1925 391 
Q 2381 391 2643 752 
Q 2906 1113 2906 1747 
Q 2906 2381 2643 2742 
Q 2381 3103 1925 3103 
Q 1469 3103 1208 2742 
Q 947 2381 947 1747 
z
" transform="scale(0.015625)"/>
           <path id="DejaVuSans-65" d="M 3597 1894 
L 3597 1613 
L 953 1613 
Q 991 1019 1311 708 
Q 1631 397 2203 397 
Q 2534 397 2845 478 
Q 3156 559 3463 722 
L 3463 178 
Q 3153 47 2828 -22 
Q 2503 -91 2169 -91 
Q 1331 -91 842 396 
Q 353 884 353 1716 
Q 353 2575 817 3079 
Q 1281 3584 2069 3584 
Q 2775 3584 3186 3129 
Q 3597 2675 3597 1894 
z
M 3022 2063 
Q 3016 2534 2758 2815 
Q 2500 3097 2075 3097 
Q 1594 3097 1305 2825 
Q 1016 2553 972 2059 
L 3022 2063 
z
" transform="scale(0.015625)"/>
           <path id="DejaVuSans-6d" d="M 3328 2828 
Q 3544 3216 3844 3400 
Q 4144 3584 4550 3584 
Q 5097 3584 5394 3201 
Q 5691 2819 5691 2113 
L 5691 0 
L 5113 0 
L 5113 2094 
Q 5113 2597 4934 2840 
Q 4756 3084 4391 3084 
Q 3944 3084 3684 2787 
Q 3425 2491 3425 1978 
L 3425 0 
L 2847 0 
L 2847 2094 
Q 2847 2600 2669 2842 
Q 2491 3084 2119 3084 
Q 1678 3084 1418 2786 
Q 1159 2488 1159 1978 
L 1159 0 
L 581 0 
L 581 3500 
L 1159 3500 
L 1159 2956 
Q 1356 3278 1631 3431 
Q 1906 3584 2284 3584 
Q 2666 3584 2933 3390 
Q 3200 3197 3328 2828 
z
" transform="scale(0.015625)"/>
           <path id="DejaVuSans-31" d="M 794 531 
L 1825 531 
L 1825 4091 
L 703 3866 
L 703 4441 
L 1819 4666 
L 2450 4666 
L 2450 531 
L 3481 531 
L 3481 0 
L 794 0 
L 794 531 
z
" transform="scale(0.015625)"/>
          </defs>
          <use xlink:href="#DejaVuSans-64"/>
          <use xlink:href="#DejaVuSans-65" x="63.476562"/>
          <use xlink:href="#DejaVuSans-6d" x="125"/>
          <use xlink:href="#DejaVuSans-65" x="222.412109"/>
          <use xlink:href="#DejaVuSans-31" x="283.935547"/>
         </g>
        </g>
       </g>
       <g id="xtick_2">
        <g id="line2d_2"/>
        <g id="text_2">
         <!-- deme2 -->
         <g transform="translate(254.903906 271.520312)scale(0.1 -0.1)">
          <defs>
           <path id="DejaVuSans-32" d="M 1228 531 
L 3431 531 
L 3431 0 
L 469 0 
L 469 531 
Q 828 903 1448 1529 
Q 2069 2156 2228 2338 
Q 2531 2678 2651 2914 
Q 2772 3150 2772 3378 
Q 2772 3750 2511 3984 
Q 2250 4219 1831 4219 
Q 1534 4219 1204 4116 
Q 875 4013 500 3803 
L 500 4441 
Q 881 4594 1212 4672 
Q 1544 4750 1819 4750 
Q 2544 4750 2975 4387 
Q 3406 4025 3406 3419 
Q 3406 3131 3298 2873 
Q 3191 2616 2906 2266 
Q 2828 2175 2409 1742 
Q 1991 1309 1228 531 
z
" transform="scale(0.015625)"/>
          </defs>
          <use xlink:href="#DejaVuSans-64"/>
          <use xlink:href="#DejaVuSans-65" x="63.476562"/>
          <use xlink:href="#DejaVuSans-6d" x="125"/>
          <use xlink:href="#DejaVuSans-65" x="222.412109"/>
          <use xlink:href="#DejaVuSans-32" x="283.935547"/>
         </g>
        </g>
       </g>
       <g id="xtick_3">
        <g id="line2d_3"/>
        <g id="text_3">
         <!-- deme3 -->
         <g transform="translate(409.761333 271.520312)scale(0.1 -0.1)">
          <defs>
           <path id="DejaVuSans-33" d="M 2597 2516 
Q 3050 2419 3304 2112 
Q 3559 1806 3559 1356 
Q 3559 666 3084 287 
Q 2609 -91 1734 -91 
Q 1441 -91 1130 -33 
Q 819 25 488 141 
L 488 750 
Q 750 597 1062 519 
Q 1375 441 1716 441 
Q 2309 441 2620 675 
Q 2931 909 2931 1356 
Q 2931 1769 2642 2001 
Q 2353 2234 1838 2234 
L 1294 2234 
L 1294 2753 
L 1863 2753 
Q 2328 2753 2575 2939 
Q 2822 3125 2822 3475 
Q 2822 3834 2567 4026 
Q 2313 4219 1838 4219 
Q 1578 4219 1281 4162 
Q 984 4106 628 3988 
L 628 4550 
Q 988 4650 1302 4700 
Q 1616 4750 1894 4750 
Q 2613 4750 3031 4423 
Q 3450 4097 3450 3541 
Q 3450 3153 3228 2886 
Q 3006 2619 2597 2516 
z
" transform="scale(0.015625)"/>
          </defs>
          <use xlink:href="#DejaVuSans-64"/>
          <use xlink:href="#DejaVuSans-65" x="63.476562"/>
          <use xlink:href="#DejaVuSans-6d" x="125"/>
          <use xlink:href="#DejaVuSans-65" x="222.412109"/>
          <use xlink:href="#DejaVuSans-33" x="283.935547"/>
         </g>
        </g>
       </g>
      </g>
      <g id="matplotlib.axis_2">
       <g id="ytick_1">
        <g id="line2d_4">
         <defs>
          <path id="m9a64ff8d15" d="M 0 0 
L -3.5 0 
" style="stroke: #000000; stroke-width: 0.8"/>
         </defs>
         <g>
          <use xlink:href="#m9a64ff8d15" x="46.965625" y="260.421875" style="stroke: #000000; stroke-width: 0.8"/>
         </g>
        </g>
        <g id="text_4">
         <!-- 0 -->
         <g transform="translate(33.603125 264.221094)scale(0.1 -0.1)">
          <defs>
           <path id="DejaVuSans-30" d="M 2034 4250 
Q 1547 4250 1301 3770 
Q 1056 3291 1056 2328 
Q 1056 1369 1301 889 
Q 1547 409 2034 409 
Q 2525 409 2770 889 
Q 3016 1369 3016 2328 
Q 3016 3291 2770 3770 
Q 2525 4250 2034 4250 
z
M 2034 4750 
Q 2819 4750 3233 4129 
Q 3647 3509 3647 2328 
Q 3647 1150 3233 529 
Q 2819 -91 2034 -91 
Q 1250 -91 836 529 
Q 422 1150 422 2328 
Q 422 3509 836 4129 
Q 1250 4750 2034 4750 
z
" transform="scale(0.015625)"/>
          </defs>
          <use xlink:href="#DejaVuSans-30"/>
         </g>
        </g>
       </g>
       <g id="ytick_2">
        <g id="line2d_5">
         <g>
          <use xlink:href="#m9a64ff8d15" x="46.965625" y="218.279618" style="stroke: #000000; stroke-width: 0.8"/>
         </g>
        </g>
        <g id="text_5">
         <!-- 20 -->
         <g transform="translate(27.240625 222.078837)scale(0.1 -0.1)">
          <use xlink:href="#DejaVuSans-32"/>
          <use xlink:href="#DejaVuSans-30" x="63.623047"/>
         </g>
        </g>
       </g>
       <g id="ytick_3">
        <g id="line2d_6">
         <g>
          <use xlink:href="#m9a64ff8d15" x="46.965625" y="176.137362" style="stroke: #000000; stroke-width: 0.8"/>
         </g>
        </g>
        <g id="text_6">
         <!-- 40 -->
         <g transform="translate(27.240625 179.93658)scale(0.1 -0.1)">
          <defs>
           <path id="DejaVuSans-34" d="M 2419 4116 
L 825 1625 
L 2419 1625 
L 2419 4116 
z
M 2253 4666 
L 3047 4666 
L 3047 1625 
L 3713 1625 
L 3713 1100 
L 3047 1100 
L 3047 0 
L 2419 0 
L 2419 1100 
L 313 1100 
L 313 1709 
L 2253 4666 
z
" transform="scale(0.015625)"/>
          </defs>
          <use xlink:href="#DejaVuSans-34"/>
          <use xlink:href="#DejaVuSans-30" x="63.623047"/>
         </g>
        </g>
       </g>
       <g id="ytick_4">
        <g id="line2d_7">
         <g>
          <use xlink:href="#m9a64ff8d15" x="46.965625" y="133.995105" style="stroke: #000000; stroke-width: 0.8"/>
         </g>
        </g>
        <g id="text_7">
         <!-- 60 -->
         <g transform="translate(27.240625 137.794324)scale(0.1 -0.1)">
          <defs>
           <path id="DejaVuSans-36" d="M 2113 2584 
Q 1688 2584 1439 2293 
Q 1191 2003 1191 1497 
Q 1191 994 1439 701 
Q 1688 409 2113 409 
Q 2538 409 2786 701 
Q 3034 994 3034 1497 
Q 3034 2003 2786 2293 
Q 2538 2584 2113 2584 
z
M 3366 4563 
L 3366 3988 
Q 3128 4100 2886 4159 
Q 2644 4219 2406 4219 
Q 1781 4219 1451 3797 
Q 1122 3375 1075 2522 
Q 1259 2794 1537 2939 
Q 1816 3084 2150 3084 
Q 2853 3084 3261 2657 
Q 3669 2231 3669 1497 
Q 3669 778 3244 343 
Q 2819 -91 2113 -91 
Q 1303 -91 875 529 
Q 447 1150 447 2328 
Q 447 3434 972 4092 
Q 1497 4750 2381 4750 
Q 2619 4750 2861 4703 
Q 3103 4656 3366 4563 
z
" transform="scale(0.015625)"/>
          </defs>
          <use xlink:href="#DejaVuSans-36"/>
          <use xlink:href="#DejaVuSans-30" x="63.623047"/>
         </g>
        </g>
       </g>
       <g id="ytick_5">
        <g id="line2d_8">
         <g>
          <use xlink:href="#m9a64ff8d15" x="46.965625" y="91.852848" style="stroke: #000000; stroke-width: 0.8"/>
         </g>
        </g>
        <g id="text_8">
         <!-- 80 -->
         <g transform="translate(27.240625 95.652067)scale(0.1 -0.1)">
          <defs>
           <path id="DejaVuSans-38" d="M 2034 2216 
Q 1584 2216 1326 1975 
Q 1069 1734 1069 1313 
Q 1069 891 1326 650 
Q 1584 409 2034 409 
Q 2484 409 2743 651 
Q 3003 894 3003 1313 
Q 3003 1734 2745 1975 
Q 2488 2216 2034 2216 
z
M 1403 2484 
Q 997 2584 770 2862 
Q 544 3141 544 3541 
Q 544 4100 942 4425 
Q 1341 4750 2034 4750 
Q 2731 4750 3128 4425 
Q 3525 4100 3525 3541 
Q 3525 3141 3298 2862 
Q 3072 2584 2669 2484 
Q 3125 2378 3379 2068 
Q 3634 1759 3634 1313 
Q 3634 634 3220 271 
Q 2806 -91 2034 -91 
Q 1263 -91 848 271 
Q 434 634 434 1313 
Q 434 1759 690 2068 
Q 947 2378 1403 2484 
z
M 1172 3481 
Q 1172 3119 1398 2916 
Q 1625 2713 2034 2713 
Q 2441 2713 2670 2916 
Q 2900 3119 2900 3481 
Q 2900 3844 2670 4047 
Q 2441 4250 2034 4250 
Q 1625 4250 1398 4047 
Q 1172 3844 1172 3481 
z
" transform="scale(0.015625)"/>
          </defs>
          <use xlink:href="#DejaVuSans-38"/>
          <use xlink:href="#DejaVuSans-30" x="63.623047"/>
         </g>
        </g>
       </g>
       <g id="ytick_6">
        <g id="line2d_9">
         <g>
          <use xlink:href="#m9a64ff8d15" x="46.965625" y="49.710592" style="stroke: #000000; stroke-width: 0.8"/>
         </g>
        </g>
        <g id="text_9">
         <!-- 100 -->
         <g transform="translate(20.878125 53.509811)scale(0.1 -0.1)">
          <use xlink:href="#DejaVuSans-31"/>
          <use xlink:href="#DejaVuSans-30" x="63.623047"/>
          <use xlink:href="#DejaVuSans-30" x="127.246094"/>
         </g>
        </g>
       </g>
       <g id="text_10">
        <!-- time ago (years) -->
        <g transform="translate(14.798437 182.803594)rotate(-90)scale(0.1 -0.1)">
         <defs>
          <path id="DejaVuSans-74" d="M 1172 4494 
L 1172 3500 
L 2356 3500 
L 2356 3053 
L 1172 3053 
L 1172 1153 
Q 1172 725 1289 603 
Q 1406 481 1766 481 
L 2356 481 
L 2356 0 
L 1766 0 
Q 1100 0 847 248 
Q 594 497 594 1153 
L 594 3053 
L 172 3053 
L 172 3500 
L 594 3500 
L 594 4494 
L 1172 4494 
z
" transform="scale(0.015625)"/>
          <path id="DejaVuSans-69" d="M 603 3500 
L 1178 3500 
L 1178 0 
L 603 0 
L 603 3500 
z
M 603 4863 
L 1178 4863 
L 1178 4134 
L 603 4134 
L 603 4863 
z
" transform="scale(0.015625)"/>
          <path id="DejaVuSans-20" transform="scale(0.015625)"/>
          <path id="DejaVuSans-61" d="M 2194 1759 
Q 1497 1759 1228 1600 
Q 959 1441 959 1056 
Q 959 750 1161 570 
Q 1363 391 1709 391 
Q 2188 391 2477 730 
Q 2766 1069 2766 1631 
L 2766 1759 
L 2194 1759 
z
M 3341 1997 
L 3341 0 
L 2766 0 
L 2766 531 
Q 2569 213 2275 61 
Q 1981 -91 1556 -91 
Q 1019 -91 701 211 
Q 384 513 384 1019 
Q 384 1609 779 1909 
Q 1175 2209 1959 2209 
L 2766 2209 
L 2766 2266 
Q 2766 2663 2505 2880 
Q 2244 3097 1772 3097 
Q 1472 3097 1187 3025 
Q 903 2953 641 2809 
L 641 3341 
Q 956 3463 1253 3523 
Q 1550 3584 1831 3584 
Q 2591 3584 2966 3190 
Q 3341 2797 3341 1997 
z
" transform="scale(0.015625)"/>
          <path id="DejaVuSans-67" d="M 2906 1791 
Q 2906 2416 2648 2759 
Q 2391 3103 1925 3103 
Q 1463 3103 1205 2759 
Q 947 2416 947 1791 
Q 947 1169 1205 825 
Q 1463 481 1925 481 
Q 2391 481 2648 825 
Q 2906 1169 2906 1791 
z
M 3481 434 
Q 3481 -459 3084 -895 
Q 2688 -1331 1869 -1331 
Q 1566 -1331 1297 -1286 
Q 1028 -1241 775 -1147 
L 775 -588 
Q 1028 -725 1275 -790 
Q 1522 -856 1778 -856 
Q 2344 -856 2625 -561 
Q 2906 -266 2906 331 
L 2906 616 
Q 2728 306 2450 153 
Q 2172 0 1784 0 
Q 1141 0 747 490 
Q 353 981 353 1791 
Q 353 2603 747 3093 
Q 1141 3584 1784 3584 
Q 2172 3584 2450 3431 
Q 2728 3278 2906 2969 
L 2906 3500 
L 3481 3500 
L 3481 434 
z
" transform="scale(0.015625)"/>
          <path id="DejaVuSans-6f" d="M 1959 3097 
Q 1497 3097 1228 2736 
Q 959 2375 959 1747 
Q 959 1119 1226 758 
Q 1494 397 1959 397 
Q 2419 397 2687 759 
Q 2956 1122 2956 1747 
Q 2956 2369 2687 2733 
Q 2419 3097 1959 3097 
z
M 1959 3584 
Q 2709 3584 3137 3096 
Q 3566 2609 3566 1747 
Q 3566 888 3137 398 
Q 2709 -91 1959 -91 
Q 1206 -91 779 398 
Q 353 888 353 1747 
Q 353 2609 779 3096 
Q 1206 3584 1959 3584 
z
" transform="scale(0.015625)"/>
          <path id="DejaVuSans-28" d="M 1984 4856 
Q 1566 4138 1362 3434 
Q 1159 2731 1159 2009 
Q 1159 1288 1364 580 
Q 1569 -128 1984 -844 
L 1484 -844 
Q 1016 -109 783 600 
Q 550 1309 550 2009 
Q 550 2706 781 3412 
Q 1013 4119 1484 4856 
L 1984 4856 
z
" transform="scale(0.015625)"/>
          <path id="DejaVuSans-79" d="M 2059 -325 
Q 1816 -950 1584 -1140 
Q 1353 -1331 966 -1331 
L 506 -1331 
L 506 -850 
L 844 -850 
Q 1081 -850 1212 -737 
Q 1344 -625 1503 -206 
L 1606 56 
L 191 3500 
L 800 3500 
L 1894 763 
L 2988 3500 
L 3597 3500 
L 2059 -325 
z
" transform="scale(0.015625)"/>
          <path id="DejaVuSans-72" d="M 2631 2963 
Q 2534 3019 2420 3045 
Q 2306 3072 2169 3072 
Q 1681 3072 1420 2755 
Q 1159 2438 1159 1844 
L 1159 0 
L 581 0 
L 581 3500 
L 1159 3500 
L 1159 2956 
Q 1341 3275 1631 3429 
Q 1922 3584 2338 3584 
Q 2397 3584 2469 3576 
Q 2541 3569 2628 3553 
L 2631 2963 
z
" transform="scale(0.015625)"/>
          <path id="DejaVuSans-73" d="M 2834 3397 
L 2834 2853 
Q 2591 2978 2328 3040 
Q 2066 3103 1784 3103 
Q 1356 3103 1142 2972 
Q 928 2841 928 2578 
Q 928 2378 1081 2264 
Q 1234 2150 1697 2047 
L 1894 2003 
Q 2506 1872 2764 1633 
Q 3022 1394 3022 966 
Q 3022 478 2636 193 
Q 2250 -91 1575 -91 
Q 1294 -91 989 -36 
Q 684 19 347 128 
L 347 722 
Q 666 556 975 473 
Q 1284 391 1588 391 
Q 1994 391 2212 530 
Q 2431 669 2431 922 
Q 2431 1156 2273 1281 
Q 2116 1406 1581 1522 
L 1381 1569 
Q 847 1681 609 1914 
Q 372 2147 372 2553 
Q 372 3047 722 3315 
Q 1072 3584 1716 3584 
Q 2034 3584 2315 3537 
Q 2597 3491 2834 3397 
z
" transform="scale(0.015625)"/>
          <path id="DejaVuSans-29" d="M 513 4856 
L 1013 4856 
Q 1481 4119 1714 3412 
Q 1947 2706 1947 2009 
Q 1947 1309 1714 600 
Q 1481 -109 1013 -844 
L 513 -844 
Q 928 -128 1133 580 
Q 1338 1288 1338 2009 
Q 1338 2731 1133 3434 
Q 928 4138 513 4856 
z
" transform="scale(0.015625)"/>
         </defs>
         <use xlink:href="#DejaVuSans-74"/>
         <use xlink:href="#DejaVuSans-69" x="39.208984"/>
         <use xlink:href="#DejaVuSans-6d" x="66.992188"/>
         <use xlink:href="#DejaVuSans-65" x="164.404297"/>
         <use xlink:href="#DejaVuSans-20" x="225.927734"/>
         <use xlink:href="#DejaVuSans-61" x="257.714844"/>
         <use xlink:href="#DejaVuSans-67" x="318.994141"/>
         <use xlink:href="#DejaVuSans-6f" x="382.470703"/>
         <use xlink:href="#DejaVuSans-20" x="443.652344"/>
         <use xlink:href="#DejaVuSans-28" x="475.439453"/>
         <use xlink:href="#DejaVuSans-79" x="514.453125"/>
         <use xlink:href="#DejaVuSans-65" x="573.632812"/>
         <use xlink:href="#DejaVuSans-61" x="635.15625"/>
         <use xlink:href="#DejaVuSans-72" x="696.435547"/>
         <use xlink:href="#DejaVuSans-73" x="737.548828"/>
         <use xlink:href="#DejaVuSans-29" x="789.648438"/>
        </g>
       </g>
      </g>
      <path d="M 218.800088 142.856335 
L 216.800088 141.856335 
L 216.800088 143.856335 
z
" clip-path="url(#p08b6a573ef)" style="fill: #1f77b4; fill-opacity: 0.5; stroke: #1f77b4; stroke-opacity: 0.5; stroke-linejoin: miter"/>
      <path d="M 218.800088 124.726195 
L 216.800088 123.726195 
L 216.800088 125.726195 
z
" clip-path="url(#p08b6a573ef)" style="fill: #1f77b4; fill-opacity: 0.5; stroke: #1f77b4; stroke-opacity: 0.5; stroke-linejoin: miter"/>
      <path d="M 218.800088 143.357502 
L 216.800088 142.357502 
L 216.800088 144.357502 
z
" clip-path="url(#p08b6a573ef)" style="fill: #1f77b4; fill-opacity: 0.5; stroke: #1f77b4; stroke-opacity: 0.5; stroke-linejoin: miter"/>
      <path d="M 218.800088 119.705707 
L 216.800088 118.705707 
L 216.800088 120.705707 
z
" clip-path="url(#p08b6a573ef)" style="fill: #1f77b4; fill-opacity: 0.5; stroke: #1f77b4; stroke-opacity: 0.5; stroke-linejoin: miter"/>
      <path d="M 218.800088 199.661075 
L 216.800088 198.661075 
L 216.800088 200.661075 
z
" clip-path="url(#p08b6a573ef)" style="fill: #1f77b4; fill-opacity: 0.5; stroke: #1f77b4; stroke-opacity: 0.5; stroke-linejoin: miter"/>
      <path d="M 218.800088 137.698612 
L 216.800088 136.698612 
L 216.800088 138.698612 
z
" clip-path="url(#p08b6a573ef)" style="fill: #1f77b4; fill-opacity: 0.5; stroke: #1f77b4; stroke-opacity: 0.5; stroke-linejoin: miter"/>
      <path d="M 218.800088 237.203208 
L 216.800088 236.203208 
L 216.800088 238.203208 
z
" clip-path="url(#p08b6a573ef)" style="fill: #1f77b4; fill-opacity: 0.5; stroke: #1f77b4; stroke-opacity: 0.5; stroke-linejoin: miter"/>
      <path d="M 218.800088 61.181539 
L 216.800088 60.181539 
L 216.800088 62.181539 
z
" clip-path="url(#p08b6a573ef)" style="fill: #1f77b4; fill-opacity: 0.5; stroke: #1f77b4; stroke-opacity: 0.5; stroke-linejoin: miter"/>
      <path d="M 218.800088 130.614574 
L 216.800088 129.614574 
L 216.800088 131.614574 
z
" clip-path="url(#p08b6a573ef)" style="fill: #1f77b4; fill-opacity: 0.5; stroke: #1f77b4; stroke-opacity: 0.5; stroke-linejoin: miter"/>
      <path d="M 218.800088 121.845173 
L 216.800088 120.845173 
L 216.800088 122.845173 
z
" clip-path="url(#p08b6a573ef)" style="fill: #1f77b4; fill-opacity: 0.5; stroke: #1f77b4; stroke-opacity: 0.5; stroke-linejoin: miter"/>
      <path d="M 170.90811 256.726167 
L 172.90811 257.726167 
L 172.90811 255.726167 
z
" clip-path="url(#p08b6a573ef)" style="fill: #ff7f0e; fill-opacity: 0.5; stroke: #ff7f0e; stroke-opacity: 0.5; stroke-linejoin: miter"/>
      <path d="M 170.90811 89.146676 
L 172.90811 90.146676 
L 172.90811 88.146676 
z
" clip-path="url(#p08b6a573ef)" style="fill: #ff7f0e; fill-opacity: 0.5; stroke: #ff7f0e; stroke-opacity: 0.5; stroke-linejoin: miter"/>
      <path d="M 170.90811 36.80193 
L 172.90811 37.80193 
L 172.90811 35.80193 
z
" clip-path="url(#p08b6a573ef)" style="fill: #ff7f0e; fill-opacity: 0.5; stroke: #ff7f0e; stroke-opacity: 0.5; stroke-linejoin: miter"/>
      <path d="M 170.90811 102.501912 
L 172.90811 103.501912 
L 172.90811 101.501912 
z
" clip-path="url(#p08b6a573ef)" style="fill: #ff7f0e; fill-opacity: 0.5; stroke: #ff7f0e; stroke-opacity: 0.5; stroke-linejoin: miter"/>
      <path d="M 170.90811 42.55151 
L 172.90811 43.55151 
L 172.90811 41.55151 
z
" clip-path="url(#p08b6a573ef)" style="fill: #ff7f0e; fill-opacity: 0.5; stroke: #ff7f0e; stroke-opacity: 0.5; stroke-linejoin: miter"/>
      <path d="M 170.90811 37.973848 
L 172.90811 38.973848 
L 172.90811 36.973848 
z
" clip-path="url(#p08b6a573ef)" style="fill: #ff7f0e; fill-opacity: 0.5; stroke: #ff7f0e; stroke-opacity: 0.5; stroke-linejoin: miter"/>
      <path d="M 170.90811 152.824658 
L 172.90811 153.824658 
L 172.90811 151.824658 
z
" clip-path="url(#p08b6a573ef)" style="fill: #ff7f0e; fill-opacity: 0.5; stroke: #ff7f0e; stroke-opacity: 0.5; stroke-linejoin: miter"/>
      <path d="M 170.90811 56.935258 
L 172.90811 57.935258 
L 172.90811 55.935258 
z
" clip-path="url(#p08b6a573ef)" style="fill: #ff7f0e; fill-opacity: 0.5; stroke: #ff7f0e; stroke-opacity: 0.5; stroke-linejoin: miter"/>
      <path d="M 170.90811 67.564781 
L 172.90811 68.564781 
L 172.90811 66.564781 
z
" clip-path="url(#p08b6a573ef)" style="fill: #ff7f0e; fill-opacity: 0.5; stroke: #ff7f0e; stroke-opacity: 0.5; stroke-linejoin: miter"/>
      <path d="M 170.90811 169.610643 
L 172.90811 170.610643 
L 172.90811 168.610643 
z
" clip-path="url(#p08b6a573ef)" style="fill: #ff7f0e; fill-opacity: 0.5; stroke: #ff7f0e; stroke-opacity: 0.5; stroke-linejoin: miter"/>
      <path d="M 373.657515 71.996772 
L 371.657515 70.996772 
L 371.657515 72.996772 
z
" clip-path="url(#p08b6a573ef)" style="fill: #ff7f0e; fill-opacity: 0.5; stroke: #ff7f0e; stroke-opacity: 0.5; stroke-linejoin: miter"/>
      <path d="M 373.657515 150.668288 
L 371.657515 149.668288 
L 371.657515 151.668288 
z
" clip-path="url(#p08b6a573ef)" style="fill: #ff7f0e; fill-opacity: 0.5; stroke: #ff7f0e; stroke-opacity: 0.5; stroke-linejoin: miter"/>
      <path d="M 373.657515 64.261835 
L 371.657515 63.261835 
L 371.657515 65.261835 
z
" clip-path="url(#p08b6a573ef)" style="fill: #ff7f0e; fill-opacity: 0.5; stroke: #ff7f0e; stroke-opacity: 0.5; stroke-linejoin: miter"/>
      <path d="M 373.657515 175.365136 
L 371.657515 174.365136 
L 371.657515 176.365136 
z
" clip-path="url(#p08b6a573ef)" style="fill: #ff7f0e; fill-opacity: 0.5; stroke: #ff7f0e; stroke-opacity: 0.5; stroke-linejoin: miter"/>
      <path d="M 373.657515 79.841012 
L 371.657515 78.841012 
L 371.657515 80.841012 
z
" clip-path="url(#p08b6a573ef)" style="fill: #ff7f0e; fill-opacity: 0.5; stroke: #ff7f0e; stroke-opacity: 0.5; stroke-linejoin: miter"/>
      <path d="M 373.657515 55.503394 
L 371.657515 54.503394 
L 371.657515 56.503394 
z
" clip-path="url(#p08b6a573ef)" style="fill: #ff7f0e; fill-opacity: 0.5; stroke: #ff7f0e; stroke-opacity: 0.5; stroke-linejoin: miter"/>
      <path d="M 373.657515 203.149333 
L 371.657515 202.149333 
L 371.657515 204.149333 
z
" clip-path="url(#p08b6a573ef)" style="fill: #ff7f0e; fill-opacity: 0.5; stroke: #ff7f0e; stroke-opacity: 0.5; stroke-linejoin: miter"/>
      <path d="M 373.657515 247.009113 
L 371.657515 246.009113 
L 371.657515 248.009113 
z
" clip-path="url(#p08b6a573ef)" style="fill: #ff7f0e; fill-opacity: 0.5; stroke: #ff7f0e; stroke-opacity: 0.5; stroke-linejoin: miter"/>
      <path d="M 373.657515 168.329792 
L 371.657515 167.329792 
L 371.657515 169.329792 
z
" clip-path="url(#p08b6a573ef)" style="fill: #ff7f0e; fill-opacity: 0.5; stroke: #ff7f0e; stroke-opacity: 0.5; stroke-linejoin: miter"/>
      <path d="M 373.657515 245.187539 
L 371.657515 244.187539 
L 371.657515 246.187539 
z
" clip-path="url(#p08b6a573ef)" style="fill: #ff7f0e; fill-opacity: 0.5; stroke: #ff7f0e; stroke-opacity: 0.5; stroke-linejoin: miter"/>
      <path d="M 325.765537 38.065696 
L 327.765537 39.065696 
L 327.765537 37.065696 
z
" clip-path="url(#p08b6a573ef)" style="fill: #2ca02c; fill-opacity: 0.5; stroke: #2ca02c; stroke-opacity: 0.5; stroke-linejoin: miter"/>
      <path d="M 325.765537 230.382539 
L 327.765537 231.382539 
L 327.765537 229.382539 
z
" clip-path="url(#p08b6a573ef)" style="fill: #2ca02c; fill-opacity: 0.5; stroke: #2ca02c; stroke-opacity: 0.5; stroke-linejoin: miter"/>
      <path d="M 325.765537 229.453027 
L 327.765537 230.453027 
L 327.765537 228.453027 
z
" clip-path="url(#p08b6a573ef)" style="fill: #2ca02c; fill-opacity: 0.5; stroke: #2ca02c; stroke-opacity: 0.5; stroke-linejoin: miter"/>
      <path d="M 325.765537 143.747375 
L 327.765537 144.747375 
L 327.765537 142.747375 
z
" clip-path="url(#p08b6a573ef)" style="fill: #2ca02c; fill-opacity: 0.5; stroke: #2ca02c; stroke-opacity: 0.5; stroke-linejoin: miter"/>
      <path d="M 325.765537 233.027401 
L 327.765537 234.027401 
L 327.765537 232.027401 
z
" clip-path="url(#p08b6a573ef)" style="fill: #2ca02c; fill-opacity: 0.5; stroke: #2ca02c; stroke-opacity: 0.5; stroke-linejoin: miter"/>
      <path d="M 325.765537 25.030817 
L 327.765537 26.030817 
L 327.765537 24.030817 
z
" clip-path="url(#p08b6a573ef)" style="fill: #2ca02c; fill-opacity: 0.5; stroke: #2ca02c; stroke-opacity: 0.5; stroke-linejoin: miter"/>
      <path d="M 325.765537 127.603342 
L 327.765537 128.603342 
L 327.765537 126.603342 
z
" clip-path="url(#p08b6a573ef)" style="fill: #2ca02c; fill-opacity: 0.5; stroke: #2ca02c; stroke-opacity: 0.5; stroke-linejoin: miter"/>
      <path d="M 325.765537 110.902319 
L 327.765537 111.902319 
L 327.765537 109.902319 
z
" clip-path="url(#p08b6a573ef)" style="fill: #2ca02c; fill-opacity: 0.5; stroke: #2ca02c; stroke-opacity: 0.5; stroke-linejoin: miter"/>
      <path d="M 325.765537 221.888768 
L 327.765537 222.888768 
L 327.765537 220.888768 
z
" clip-path="url(#p08b6a573ef)" style="fill: #2ca02c; fill-opacity: 0.5; stroke: #2ca02c; stroke-opacity: 0.5; stroke-linejoin: miter"/>
      <path d="M 325.765537 182.110926 
L 327.765537 183.110926 
L 327.765537 181.110926 
z
" clip-path="url(#p08b6a573ef)" style="fill: #2ca02c; fill-opacity: 0.5; stroke: #2ca02c; stroke-opacity: 0.5; stroke-linejoin: miter"/>
      <g id="patch_6">
       <path d="M 46.965625 260.421875 
L 46.965625 22.318125 
" style="fill: none; stroke: #000000; stroke-width: 0.8; stroke-linejoin: miter; stroke-linecap: square"/>
      </g>
      <g id="text_11">
       <!-- stepping_stone_model.yaml -->
       <g transform="translate(188.243437 16.318125)scale(0.12 -0.12)">
        <defs>
         <path id="DejaVuSans-70" d="M 1159 525 
L 1159 -1331 
L 581 -1331 
L 581 3500 
L 1159 3500 
L 1159 2969 
Q 1341 3281 1617 3432 
Q 1894 3584 2278 3584 
Q 2916 3584 3314 3078 
Q 3713 2572 3713 1747 
Q 3713 922 3314 415 
Q 2916 -91 2278 -91 
Q 1894 -91 1617 61 
Q 1341 213 1159 525 
z
M 3116 1747 
Q 3116 2381 2855 2742 
Q 2594 3103 2138 3103 
Q 1681 3103 1420 2742 
Q 1159 2381 1159 1747 
Q 1159 1113 1420 752 
Q 1681 391 2138 391 
Q 2594 391 2855 752 
Q 3116 1113 3116 1747 
z
" transform="scale(0.015625)"/>
         <path id="DejaVuSans-6e" d="M 3513 2113 
L 3513 0 
L 2938 0 
L 2938 2094 
Q 2938 2591 2744 2837 
Q 2550 3084 2163 3084 
Q 1697 3084 1428 2787 
Q 1159 2491 1159 1978 
L 1159 0 
L 581 0 
L 581 3500 
L 1159 3500 
L 1159 2956 
Q 1366 3272 1645 3428 
Q 1925 3584 2291 3584 
Q 2894 3584 3203 3211 
Q 3513 2838 3513 2113 
z
" transform="scale(0.015625)"/>
         <path id="DejaVuSans-5f" d="M 3263 -1063 
L 3263 -1509 
L -63 -1509 
L -63 -1063 
L 3263 -1063 
z
" transform="scale(0.015625)"/>
         <path id="DejaVuSans-6c" d="M 603 4863 
L 1178 4863 
L 1178 0 
L 603 0 
L 603 4863 
z
" transform="scale(0.015625)"/>
         <path id="DejaVuSans-2e" d="M 684 794 
L 1344 794 
L 1344 0 
L 684 0 
L 684 794 
z
" transform="scale(0.015625)"/>
        </defs>
        <use xlink:href="#DejaVuSans-73"/>
        <use xlink:href="#DejaVuSans-74" x="52.099609"/>
        <use xlink:href="#DejaVuSans-65" x="91.308594"/>
        <use xlink:href="#DejaVuSans-70" x="152.832031"/>
        <use xlink:href="#DejaVuSans-70" x="216.308594"/>
        <use xlink:href="#DejaVuSans-69" x="279.785156"/>
        <use xlink:href="#DejaVuSans-6e" x="307.568359"/>
        <use xlink:href="#DejaVuSans-67" x="370.947266"/>
        <use xlink:href="#DejaVuSans-5f" x="434.423828"/>
        <use xlink:href="#DejaVuSans-73" x="484.423828"/>
        <use xlink:href="#DejaVuSans-74" x="536.523438"/>
        <use xlink:href="#DejaVuSans-6f" x="575.732422"/>
        <use xlink:href="#DejaVuSans-6e" x="636.914062"/>
        <use xlink:href="#DejaVuSans-65" x="700.292969"/>
        <use xlink:href="#DejaVuSans-5f" x="761.816406"/>
        <use xlink:href="#DejaVuSans-6d" x="811.816406"/>
        <use xlink:href="#DejaVuSans-6f" x="909.228516"/>
        <use xlink:href="#DejaVuSans-64" x="970.410156"/>
        <use xlink:href="#DejaVuSans-65" x="1033.886719"/>
        <use xlink:href="#DejaVuSans-6c" x="1095.410156"/>
        <use xlink:href="#DejaVuSans-2e" x="1123.193359"/>
        <use xlink:href="#DejaVuSans-79" x="1154.980469"/>
        <use xlink:href="#DejaVuSans-61" x="1214.160156"/>
        <use xlink:href="#DejaVuSans-6d" x="1275.439453"/>
        <use xlink:href="#DejaVuSans-6c" x="1372.851562"/>
       </g>
      </g>
     </g>
    </g>
    <defs>
     <clipPath id="p08b6a573ef">
      <rect x="46.965625" y="22.318125" width="450.634375" height="238.10375"/>
     </clipPath>
    </defs>
   </g>
  </g>
 </g>
</svg>
