<?xml version="1.0" encoding="utf-8" standalone="no"?>
<!DOCTYPE svg PUBLIC "-//W3C//DTD SVG 1.1//EN"
  "http://www.w3.org/Graphics/SVG/1.1/DTD/svg11.dtd">
<svg xmlns:xlink="http://www.w3.org/1999/xlink" width="607.2pt" height="338.4pt" viewBox="0 0 607.2 338.4" xmlns="http://www.w3.org/2000/svg" version="1.1">
 <metadata>
  <rdf:RDF xmlns:dc="http://purl.org/dc/elements/1.1/" xmlns:cc="http://creativecommons.org/ns#" xmlns:rdf="http://www.w3.org/1999/02/22-rdf-syntax-ns#">
   <cc:Work>
    <dc:type rdf:resource="http://purl.org/dc/dcmitype/StillImage"/>
    <dc:date>2023-03-07T08:29:05.910149</dc:date>
    <dc:format>image/svg+xml</dc:format>
    <dc:creator>
     <cc:Agent>
      <dc:title>Matplotlib v3.7.1, https://matplotlib.org/</dc:title>
     </cc:Agent>
    </dc:creator>
   </cc:Work>
  </rdf:RDF>
 </metadata>
 <defs>
  <style type="text/css">*{stroke-linejoin: round; stroke-linecap: butt}</style>
 </defs>
 <g id="figure_1">
  <g id="patch_1">
   <path d="M 0 338.4 
L 607.2 338.4 
L 607.2 0 
L 0 0 
z
" style="fill: #ffffff"/>
  </g>
  <g id="axes_1">
   <g id="patch_2">
    <path d="M 46.965625 318.021875 
L 600 318.021875 
L 600 22.318125 
L 46.965625 22.318125 
z
" style="fill: #ffffff"/>
   </g>
   <path d="M 200.299443 195.237952 
L 201.299443 195.269388 
L 202.299443 195.306328 
L 203.299443 195.404075 
L 204.299443 195.436596 
L 205.299443 195.510221 
L 206.299443 195.548787 
L 207.299443 195.5842 
L 208.299443 195.64184 
L 209.299443 195.712226 
L 210.299443 195.76419 
L 211.299443 195.82328 
L 212.299443 195.911601 
L 213.299443 195.957745 
L 214.299443 196.000156 
L 215.299443 196.030649 
L 216.299443 196.056694 
L 217.299443 196.077894 
L 218.299443 196.132195 
L 219.299443 196.160133 
L 220.299443 196.189857 
L 221.299443 196.215251 
L 222.299443 196.226452 
L 223.299443 196.236576 
L 224.299443 196.236371 
L 225.299443 196.226861 
L 226.299443 196.215208 
L 227.299443 196.184179 
L 228.299443 196.173011 
L 229.299443 196.142893 
L 230.299443 196.083116 
L 231.299443 196.045925 
L 232.299443 196.006829 
L 233.299443 195.964389 
L 234.299443 195.931624 
L 235.299443 195.864197 
L 236.299443 195.825071 
L 237.299443 195.782397 
L 238.299443 195.711816 
L 239.299443 195.675425 
L 240.299443 195.617022 
L 241.299443 195.50607 
L 242.299443 195.435411 
L 243.299443 195.322472 
L 244.299443 195.276699 
L 245.299443 195.215415 
L 246.299443 195.166916 
L 247.299443 195.086093 
L 248.299443 194.967575 
L 249.299443 194.897364 
L 250.299443 194.814101 
L 251.299443 194.78096 
L 252.299443 194.729722 
L 253.299443 194.661324 
L 254.299443 194.595109 
L 255.299443 194.518192 
L 256.619695 194.490876 
" clip-path="url(#p843c758a01)" style="fill: none; stroke: #1f77b4; stroke-opacity: 0.5; stroke-width: 0.2; stroke-linecap: square"/>
   <path d="M 200.299443 283.402961 
L 201.299443 283.434398 
L 202.299443 283.471338 
L 203.299443 283.569085 
L 204.299443 283.601606 
L 205.299443 283.675231 
L 206.299443 283.713797 
L 207.299443 283.74921 
L 208.299443 283.80685 
L 209.299443 283.877236 
L 210.299443 283.9292 
L 211.299443 283.98829 
L 212.299443 284.076611 
L 213.299443 284.122755 
L 214.299443 284.165166 
L 215.299443 284.195659 
L 216.299443 284.221704 
L 217.299443 284.242904 
L 218.299443 284.297205 
L 219.299443 284.325142 
L 220.299443 284.354866 
L 221.299443 284.380261 
L 222.299443 284.391462 
L 223.299443 284.401585 
L 224.299443 284.401381 
L 225.299443 284.391871 
L 226.299443 284.380218 
L 227.299443 284.349188 
L 228.299443 284.338021 
L 229.299443 284.307903 
L 230.299443 284.248126 
L 231.299443 284.210935 
L 232.299443 284.171838 
L 233.299443 284.129399 
L 234.299443 284.096634 
L 235.299443 284.029207 
L 236.299443 283.990081 
L 237.299443 283.947407 
L 238.299443 283.876826 
L 239.299443 283.840435 
L 240.299443 283.782032 
L 241.299443 283.67108 
L 242.299443 283.600421 
L 243.299443 283.487481 
L 244.299443 283.441709 
L 245.299443 283.380425 
L 246.299443 283.331926 
L 247.299443 283.251103 
L 248.299443 283.132584 
L 249.299443 283.062374 
L 250.299443 282.979111 
L 251.299443 282.945969 
L 252.299443 282.894732 
L 253.299443 282.826334 
L 254.299443 282.760118 
L 255.299443 282.683201 
L 256.619695 282.655886 
" clip-path="url(#p843c758a01)" style="fill: none; stroke: #1f77b4; stroke-opacity: 0.5; stroke-width: 0.2; stroke-linecap: square"/>
   <path d="M 200.299443 57.918089 
L 201.299443 57.949525 
L 202.299443 57.986465 
L 203.299443 58.084212 
L 204.299443 58.116733 
L 205.299443 58.190358 
L 206.299443 58.228924 
L 207.299443 58.264337 
L 208.299443 58.321977 
L 209.299443 58.392363 
L 210.299443 58.444327 
L 211.299443 58.503417 
L 212.299443 58.591738 
L 213.299443 58.637882 
L 214.299443 58.680293 
L 215.299443 58.710786 
L 216.299443 58.736831 
L 217.299443 58.758031 
L 218.299443 58.812332 
L 219.299443 58.84027 
L 220.299443 58.869994 
L 221.299443 58.895388 
L 222.299443 58.906589 
L 223.299443 58.916713 
L 224.299443 58.916508 
L 225.299443 58.906999 
L 226.299443 58.895345 
L 227.299443 58.864316 
L 228.299443 58.853148 
L 229.299443 58.82303 
L 230.299443 58.763253 
L 231.299443 58.726062 
L 232.299443 58.686966 
L 233.299443 58.644526 
L 234.299443 58.611761 
L 235.299443 58.544334 
L 236.299443 58.505209 
L 237.299443 58.462534 
L 238.299443 58.391953 
L 239.299443 58.355563 
L 240.299443 58.297159 
L 241.299443 58.186207 
L 242.299443 58.115548 
L 243.299443 58.002609 
L 244.299443 57.956836 
L 245.299443 57.895553 
L 246.299443 57.847053 
L 247.299443 57.766231 
L 248.299443 57.647712 
L 249.299443 57.577501 
L 250.299443 57.494238 
L 251.299443 57.461097 
L 252.299443 57.409859 
L 253.299443 57.341461 
L 254.299443 57.275246 
L 255.299443 57.198329 
L 256.619695 57.171013 
" clip-path="url(#p843c758a01)" style="fill: none; stroke: #1f77b4; stroke-opacity: 0.5; stroke-width: 0.2; stroke-linecap: square"/>
   <path d="M 200.299443 74.455724 
L 201.299443 74.48716 
L 202.299443 74.5241 
L 203.299443 74.621847 
L 204.299443 74.654369 
L 205.299443 74.727993 
L 206.299443 74.766559 
L 207.299443 74.801972 
L 208.299443 74.859612 
L 209.299443 74.929998 
L 210.299443 74.981962 
L 211.299443 75.041052 
L 212.299443 75.129373 
L 213.299443 75.175517 
L 214.299443 75.217928 
L 215.299443 75.248421 
L 216.299443 75.274466 
L 217.299443 75.295666 
L 218.299443 75.349967 
L 219.299443 75.377905 
L 220.299443 75.407629 
L 221.299443 75.433023 
L 222.299443 75.444224 
L 223.299443 75.454348 
L 224.299443 75.454144 
L 225.299443 75.444634 
L 226.299443 75.43298 
L 227.299443 75.401951 
L 228.299443 75.390783 
L 229.299443 75.360665 
L 230.299443 75.300888 
L 231.299443 75.263697 
L 232.299443 75.224601 
L 233.299443 75.182161 
L 234.299443 75.149396 
L 235.299443 75.08197 
L 236.299443 75.042844 
L 237.299443 75.000169 
L 238.299443 74.929589 
L 239.299443 74.893198 
L 240.299443 74.834795 
L 241.299443 74.723842 
L 242.299443 74.653184 
L 243.299443 74.540244 
L 244.299443 74.494471 
L 245.299443 74.433188 
L 246.299443 74.384688 
L 247.299443 74.303866 
L 248.299443 74.185347 
L 249.299443 74.115136 
L 250.299443 74.031874 
L 251.299443 73.998732 
L 252.299443 73.947495 
L 253.299443 73.879096 
L 254.299443 73.812881 
L 255.299443 73.735964 
L 256.619695 73.708648 
" clip-path="url(#p843c758a01)" style="fill: none; stroke: #1f77b4; stroke-opacity: 0.5; stroke-width: 0.2; stroke-linecap: square"/>
   <path d="M 200.299443 76.498246 
L 201.299443 76.529682 
L 202.299443 76.566622 
L 203.299443 76.664369 
L 204.299443 76.69689 
L 205.299443 76.770515 
L 206.299443 76.809081 
L 207.299443 76.844494 
L 208.299443 76.902134 
L 209.299443 76.97252 
L 210.299443 77.024484 
L 211.299443 77.083574 
L 212.299443 77.171895 
L 213.299443 77.218039 
L 214.299443 77.26045 
L 215.299443 77.290943 
L 216.299443 77.316988 
L 217.299443 77.338188 
L 218.299443 77.392489 
L 219.299443 77.420427 
L 220.299443 77.450151 
L 221.299443 77.475545 
L 222.299443 77.486746 
L 223.299443 77.49687 
L 224.299443 77.496665 
L 225.299443 77.487155 
L 226.299443 77.475502 
L 227.299443 77.444473 
L 228.299443 77.433305 
L 229.299443 77.403187 
L 230.299443 77.34341 
L 231.299443 77.306219 
L 232.299443 77.267123 
L 233.299443 77.224683 
L 234.299443 77.191918 
L 235.299443 77.124491 
L 236.299443 77.085365 
L 237.299443 77.042691 
L 238.299443 76.97211 
L 239.299443 76.935719 
L 240.299443 76.877316 
L 241.299443 76.766364 
L 242.299443 76.695705 
L 243.299443 76.582766 
L 244.299443 76.536993 
L 245.299443 76.475709 
L 246.299443 76.42721 
L 247.299443 76.346387 
L 248.299443 76.227869 
L 249.299443 76.157658 
L 250.299443 76.074395 
L 251.299443 76.041254 
L 252.299443 75.990016 
L 253.299443 75.921618 
L 254.299443 75.855403 
L 255.299443 75.778485 
L 256.619695 75.75117 
" clip-path="url(#p843c758a01)" style="fill: none; stroke: #1f77b4; stroke-opacity: 0.5; stroke-width: 0.2; stroke-linecap: square"/>
   <path d="M 200.299443 280.57323 
L 201.299443 280.604666 
L 202.299443 280.641606 
L 203.299443 280.739353 
L 204.299443 280.771874 
L 205.299443 280.845499 
L 206.299443 280.884065 
L 207.299443 280.919478 
L 208.299443 280.977118 
L 209.299443 281.047504 
L 210.299443 281.099468 
L 211.299443 281.158558 
L 212.299443 281.246879 
L 213.299443 281.293023 
L 214.299443 281.335434 
L 215.299443 281.365927 
L 216.299443 281.391972 
L 217.299443 281.413172 
L 218.299443 281.467473 
L 219.299443 281.495411 
L 220.299443 281.525135 
L 221.299443 281.550529 
L 222.299443 281.56173 
L 223.299443 281.571854 
L 224.299443 281.571649 
L 225.299443 281.56214 
L 226.299443 281.550486 
L 227.299443 281.519457 
L 228.299443 281.508289 
L 229.299443 281.478171 
L 230.299443 281.418394 
L 231.299443 281.381203 
L 232.299443 281.342107 
L 233.299443 281.299667 
L 234.299443 281.266902 
L 235.299443 281.199475 
L 236.299443 281.16035 
L 237.299443 281.117675 
L 238.299443 281.047094 
L 239.299443 281.010704 
L 240.299443 280.9523 
L 241.299443 280.841348 
L 242.299443 280.770689 
L 243.299443 280.65775 
L 244.299443 280.611977 
L 245.299443 280.550694 
L 246.299443 280.502194 
L 247.299443 280.421372 
L 248.299443 280.302853 
L 249.299443 280.232642 
L 250.299443 280.149379 
L 251.299443 280.116238 
L 252.299443 280.065 
L 253.299443 279.996602 
L 254.299443 279.930387 
L 255.299443 279.85347 
L 256.619695 279.826154 
" clip-path="url(#p843c758a01)" style="fill: none; stroke: #1f77b4; stroke-opacity: 0.5; stroke-width: 0.2; stroke-linecap: square"/>
   <path d="M 200.299443 118.238233 
L 201.299443 118.269669 
L 202.299443 118.30661 
L 203.299443 118.404356 
L 204.299443 118.436878 
L 205.299443 118.510502 
L 206.299443 118.549068 
L 207.299443 118.584481 
L 208.299443 118.642121 
L 209.299443 118.712507 
L 210.299443 118.764471 
L 211.299443 118.823561 
L 212.299443 118.911882 
L 213.299443 118.958026 
L 214.299443 119.000437 
L 215.299443 119.03093 
L 216.299443 119.056975 
L 217.299443 119.078175 
L 218.299443 119.132476 
L 219.299443 119.160414 
L 220.299443 119.190138 
L 221.299443 119.215533 
L 222.299443 119.226733 
L 223.299443 119.236857 
L 224.299443 119.236653 
L 225.299443 119.227143 
L 226.299443 119.215489 
L 227.299443 119.18446 
L 228.299443 119.173292 
L 229.299443 119.143174 
L 230.299443 119.083397 
L 231.299443 119.046206 
L 232.299443 119.00711 
L 233.299443 118.96467 
L 234.299443 118.931905 
L 235.299443 118.864479 
L 236.299443 118.825353 
L 237.299443 118.782678 
L 238.299443 118.712098 
L 239.299443 118.675707 
L 240.299443 118.617304 
L 241.299443 118.506351 
L 242.299443 118.435693 
L 243.299443 118.322753 
L 244.299443 118.27698 
L 245.299443 118.215697 
L 246.299443 118.167197 
L 247.299443 118.086375 
L 248.299443 117.967856 
L 249.299443 117.897645 
L 250.299443 117.814383 
L 251.299443 117.781241 
L 252.299443 117.730004 
L 253.299443 117.661605 
L 254.299443 117.59539 
L 255.299443 117.518473 
L 256.619695 117.491157 
" clip-path="url(#p843c758a01)" style="fill: none; stroke: #1f77b4; stroke-opacity: 0.5; stroke-width: 0.2; stroke-linecap: square"/>
   <path d="M 200.299443 79.806419 
L 201.299443 79.837855 
L 202.299443 79.874795 
L 203.299443 79.972542 
L 204.299443 80.005064 
L 205.299443 80.078688 
L 206.299443 80.117254 
L 207.299443 80.152667 
L 208.299443 80.210307 
L 209.299443 80.280693 
L 210.299443 80.332657 
L 211.299443 80.391747 
L 212.299443 80.480068 
L 213.299443 80.526212 
L 214.299443 80.568623 
L 215.299443 80.599116 
L 216.299443 80.625161 
L 217.299443 80.646361 
L 218.299443 80.700662 
L 219.299443 80.7286 
L 220.299443 80.758324 
L 221.299443 80.783718 
L 222.299443 80.794919 
L 223.299443 80.805043 
L 224.299443 80.804838 
L 225.299443 80.795329 
L 226.299443 80.783675 
L 227.299443 80.752646 
L 228.299443 80.741478 
L 229.299443 80.71136 
L 230.299443 80.651583 
L 231.299443 80.614392 
L 232.299443 80.575296 
L 233.299443 80.532856 
L 234.299443 80.500091 
L 235.299443 80.432665 
L 236.299443 80.393539 
L 237.299443 80.350864 
L 238.299443 80.280283 
L 239.299443 80.243893 
L 240.299443 80.185489 
L 241.299443 80.074537 
L 242.299443 80.003879 
L 243.299443 79.890939 
L 244.299443 79.845166 
L 245.299443 79.783883 
L 246.299443 79.735383 
L 247.299443 79.654561 
L 248.299443 79.536042 
L 249.299443 79.465831 
L 250.299443 79.382569 
L 251.299443 79.349427 
L 252.299443 79.298189 
L 253.299443 79.229791 
L 254.299443 79.163576 
L 255.299443 79.086659 
L 256.619695 79.059343 
" clip-path="url(#p843c758a01)" style="fill: none; stroke: #1f77b4; stroke-opacity: 0.5; stroke-width: 0.2; stroke-linecap: square"/>
   <path d="M 200.299443 145.856139 
L 201.299443 145.887575 
L 202.299443 145.924515 
L 203.299443 146.022262 
L 204.299443 146.054783 
L 205.299443 146.128408 
L 206.299443 146.166974 
L 207.299443 146.202387 
L 208.299443 146.260027 
L 209.299443 146.330413 
L 210.299443 146.382377 
L 211.299443 146.441467 
L 212.299443 146.529788 
L 213.299443 146.575932 
L 214.299443 146.618343 
L 215.299443 146.648836 
L 216.299443 146.674881 
L 217.299443 146.696081 
L 218.299443 146.750382 
L 219.299443 146.77832 
L 220.299443 146.808044 
L 221.299443 146.833438 
L 222.299443 146.844639 
L 223.299443 146.854763 
L 224.299443 146.854558 
L 225.299443 146.845048 
L 226.299443 146.833395 
L 227.299443 146.802366 
L 228.299443 146.791198 
L 229.299443 146.76108 
L 230.299443 146.701303 
L 231.299443 146.664112 
L 232.299443 146.625016 
L 233.299443 146.582576 
L 234.299443 146.549811 
L 235.299443 146.482384 
L 236.299443 146.443258 
L 237.299443 146.400584 
L 238.299443 146.330003 
L 239.299443 146.293612 
L 240.299443 146.235209 
L 241.299443 146.124257 
L 242.299443 146.053598 
L 243.299443 145.940659 
L 244.299443 145.894886 
L 245.299443 145.833602 
L 246.299443 145.785103 
L 247.299443 145.70428 
L 248.299443 145.585762 
L 249.299443 145.515551 
L 250.299443 145.432288 
L 251.299443 145.399147 
L 252.299443 145.347909 
L 253.299443 145.279511 
L 254.299443 145.213296 
L 255.299443 145.136378 
L 256.619695 145.109063 
" clip-path="url(#p843c758a01)" style="fill: none; stroke: #1f77b4; stroke-opacity: 0.5; stroke-width: 0.2; stroke-linecap: square"/>
   <path d="M 200.299443 47.593162 
L 201.299443 47.624598 
L 202.299443 47.661539 
L 203.299443 47.759285 
L 204.299443 47.791807 
L 205.299443 47.865432 
L 206.299443 47.903997 
L 207.299443 47.93941 
L 208.299443 47.99705 
L 209.299443 48.067436 
L 210.299443 48.119401 
L 211.299443 48.17849 
L 212.299443 48.266811 
L 213.299443 48.312956 
L 214.299443 48.355367 
L 215.299443 48.385859 
L 216.299443 48.411904 
L 217.299443 48.433104 
L 218.299443 48.487405 
L 219.299443 48.515343 
L 220.299443 48.545067 
L 221.299443 48.570462 
L 222.299443 48.581662 
L 223.299443 48.591786 
L 224.299443 48.591582 
L 225.299443 48.582072 
L 226.299443 48.570418 
L 227.299443 48.539389 
L 228.299443 48.528221 
L 229.299443 48.498104 
L 230.299443 48.438327 
L 231.299443 48.401135 
L 232.299443 48.362039 
L 233.299443 48.319599 
L 234.299443 48.286834 
L 235.299443 48.219408 
L 236.299443 48.180282 
L 237.299443 48.137607 
L 238.299443 48.067027 
L 239.299443 48.030636 
L 240.299443 47.972233 
L 241.299443 47.86128 
L 242.299443 47.790622 
L 243.299443 47.677682 
L 244.299443 47.631909 
L 245.299443 47.570626 
L 246.299443 47.522127 
L 247.299443 47.441304 
L 248.299443 47.322785 
L 249.299443 47.252574 
L 250.299443 47.169312 
L 251.299443 47.13617 
L 252.299443 47.084933 
L 253.299443 47.016534 
L 254.299443 46.950319 
L 255.299443 46.873402 
L 256.619695 46.846086 
" clip-path="url(#p843c758a01)" style="fill: none; stroke: #1f77b4; stroke-opacity: 0.5; stroke-width: 0.2; stroke-linecap: square"/>
   <path d="M 256.619695 124.685648 
L 255.619695 124.654211 
L 254.619695 124.617271 
L 253.619695 124.519525 
L 252.619695 124.487003 
L 251.619695 124.413378 
L 250.619695 124.374813 
L 249.619695 124.3394 
L 248.619695 124.28176 
L 247.619695 124.211373 
L 246.619695 124.159409 
L 245.619695 124.100319 
L 244.619695 124.011998 
L 243.619695 123.965854 
L 242.619695 123.923443 
L 241.619695 123.892951 
L 240.619695 123.866906 
L 239.619695 123.845706 
L 238.619695 123.791404 
L 237.619695 123.763467 
L 236.619695 123.733743 
L 235.619695 123.708348 
L 234.619695 123.697148 
L 233.619695 123.687024 
L 232.619695 123.687228 
L 231.619695 123.696738 
L 230.619695 123.708391 
L 229.619695 123.739421 
L 228.619695 123.750589 
L 227.619695 123.780706 
L 226.619695 123.840483 
L 225.619695 123.877675 
L 224.619695 123.916771 
L 223.619695 123.95921 
L 222.619695 123.991976 
L 221.619695 124.059402 
L 220.619695 124.098528 
L 219.619695 124.141202 
L 218.619695 124.211783 
L 217.619695 124.248174 
L 216.619695 124.306577 
L 215.619695 124.41753 
L 214.619695 124.488188 
L 213.619695 124.601128 
L 212.619695 124.646901 
L 211.619695 124.708184 
L 210.619695 124.756683 
L 209.619695 124.837506 
L 208.619695 124.956025 
L 207.619695 125.026235 
L 206.619695 125.109498 
L 205.619695 125.14264 
L 204.619695 125.193877 
L 203.619695 125.262275 
L 202.619695 125.328491 
L 201.619695 125.405408 
L 200.299443 125.432723 
" clip-path="url(#p843c758a01)" style="fill: none; stroke: #ff7f0e; stroke-opacity: 0.5; stroke-width: 0.2; stroke-linecap: square"/>
   <path d="M 256.619695 187.427091 
L 255.619695 187.395655 
L 254.619695 187.358714 
L 253.619695 187.260968 
L 252.619695 187.228446 
L 251.619695 187.154822 
L 250.619695 187.116256 
L 249.619695 187.080843 
L 248.619695 187.023203 
L 247.619695 186.952817 
L 246.619695 186.900853 
L 245.619695 186.841763 
L 244.619695 186.753442 
L 243.619695 186.707297 
L 242.619695 186.664887 
L 241.619695 186.634394 
L 240.619695 186.608349 
L 239.619695 186.587149 
L 238.619695 186.532848 
L 237.619695 186.50491 
L 236.619695 186.475186 
L 235.619695 186.449791 
L 234.619695 186.438591 
L 233.619695 186.428467 
L 232.619695 186.428671 
L 231.619695 186.438181 
L 230.619695 186.449835 
L 229.619695 186.480864 
L 228.619695 186.492032 
L 227.619695 186.52215 
L 226.619695 186.581926 
L 225.619695 186.619118 
L 224.619695 186.658214 
L 223.619695 186.700654 
L 222.619695 186.733419 
L 221.619695 186.800845 
L 220.619695 186.839971 
L 219.619695 186.882646 
L 218.619695 186.953226 
L 217.619695 186.989617 
L 216.619695 187.04802 
L 215.619695 187.158973 
L 214.619695 187.229631 
L 213.619695 187.342571 
L 212.619695 187.388344 
L 211.619695 187.449627 
L 210.619695 187.498127 
L 209.619695 187.578949 
L 208.619695 187.697468 
L 207.619695 187.767679 
L 206.619695 187.850941 
L 205.619695 187.884083 
L 204.619695 187.93532 
L 203.619695 188.003719 
L 202.619695 188.069934 
L 201.619695 188.146851 
L 200.299443 188.174167 
" clip-path="url(#p843c758a01)" style="fill: none; stroke: #ff7f0e; stroke-opacity: 0.5; stroke-width: 0.2; stroke-linecap: square"/>
   <path d="M 256.619695 148.397361 
L 255.619695 148.365925 
L 254.619695 148.328985 
L 253.619695 148.231238 
L 252.619695 148.198717 
L 251.619695 148.125092 
L 250.619695 148.086526 
L 249.619695 148.051113 
L 248.619695 147.993473 
L 247.619695 147.923087 
L 246.619695 147.871123 
L 245.619695 147.812033 
L 244.619695 147.723712 
L 243.619695 147.677568 
L 242.619695 147.635157 
L 241.619695 147.604664 
L 240.619695 147.578619 
L 239.619695 147.557419 
L 238.619695 147.503118 
L 237.619695 147.47518 
L 236.619695 147.445456 
L 235.619695 147.420062 
L 234.619695 147.408861 
L 233.619695 147.398737 
L 232.619695 147.398942 
L 231.619695 147.408451 
L 230.619695 147.420105 
L 229.619695 147.451134 
L 228.619695 147.462302 
L 227.619695 147.49242 
L 226.619695 147.552197 
L 225.619695 147.589388 
L 224.619695 147.628484 
L 223.619695 147.670924 
L 222.619695 147.703689 
L 221.619695 147.771116 
L 220.619695 147.810241 
L 219.619695 147.852916 
L 218.619695 147.923497 
L 217.619695 147.959887 
L 216.619695 148.018291 
L 215.619695 148.129243 
L 214.619695 148.199902 
L 213.619695 148.312841 
L 212.619695 148.358614 
L 211.619695 148.419897 
L 210.619695 148.468397 
L 209.619695 148.549219 
L 208.619695 148.667738 
L 207.619695 148.737949 
L 206.619695 148.821212 
L 205.619695 148.854353 
L 204.619695 148.905591 
L 203.619695 148.973989 
L 202.619695 149.040204 
L 201.619695 149.117121 
L 200.299443 149.144437 
" clip-path="url(#p843c758a01)" style="fill: none; stroke: #ff7f0e; stroke-opacity: 0.5; stroke-width: 0.2; stroke-linecap: square"/>
   <path d="M 256.619695 118.95245 
L 255.619695 118.921014 
L 254.619695 118.884074 
L 253.619695 118.786327 
L 252.619695 118.753806 
L 251.619695 118.680181 
L 250.619695 118.641615 
L 249.619695 118.606202 
L 248.619695 118.548562 
L 247.619695 118.478176 
L 246.619695 118.426212 
L 245.619695 118.367122 
L 244.619695 118.278801 
L 243.619695 118.232657 
L 242.619695 118.190246 
L 241.619695 118.159753 
L 240.619695 118.133708 
L 239.619695 118.112508 
L 238.619695 118.058207 
L 237.619695 118.030269 
L 236.619695 118.000545 
L 235.619695 117.975151 
L 234.619695 117.96395 
L 233.619695 117.953826 
L 232.619695 117.954031 
L 231.619695 117.963541 
L 230.619695 117.975194 
L 229.619695 118.006223 
L 228.619695 118.017391 
L 227.619695 118.047509 
L 226.619695 118.107286 
L 225.619695 118.144477 
L 224.619695 118.183573 
L 223.619695 118.226013 
L 222.619695 118.258778 
L 221.619695 118.326205 
L 220.619695 118.365331 
L 219.619695 118.408005 
L 218.619695 118.478586 
L 217.619695 118.514977 
L 216.619695 118.57338 
L 215.619695 118.684332 
L 214.619695 118.754991 
L 213.619695 118.86793 
L 212.619695 118.913703 
L 211.619695 118.974987 
L 210.619695 119.023486 
L 209.619695 119.104309 
L 208.619695 119.222827 
L 207.619695 119.293038 
L 206.619695 119.376301 
L 205.619695 119.409442 
L 204.619695 119.46068 
L 203.619695 119.529078 
L 202.619695 119.595293 
L 201.619695 119.67221 
L 200.299443 119.699526 
" clip-path="url(#p843c758a01)" style="fill: none; stroke: #ff7f0e; stroke-opacity: 0.5; stroke-width: 0.2; stroke-linecap: square"/>
   <path d="M 256.619695 233.358928 
L 255.619695 233.327492 
L 254.619695 233.290552 
L 253.619695 233.192805 
L 252.619695 233.160284 
L 251.619695 233.086659 
L 250.619695 233.048093 
L 249.619695 233.01268 
L 248.619695 232.95504 
L 247.619695 232.884654 
L 246.619695 232.83269 
L 245.619695 232.7736 
L 244.619695 232.685279 
L 243.619695 232.639135 
L 242.619695 232.596724 
L 241.619695 232.566231 
L 240.619695 232.540186 
L 239.619695 232.518986 
L 238.619695 232.464685 
L 237.619695 232.436747 
L 236.619695 232.407023 
L 235.619695 232.381629 
L 234.619695 232.370428 
L 233.619695 232.360304 
L 232.619695 232.360509 
L 231.619695 232.370019 
L 230.619695 232.381672 
L 229.619695 232.412701 
L 228.619695 232.423869 
L 227.619695 232.453987 
L 226.619695 232.513764 
L 225.619695 232.550955 
L 224.619695 232.590051 
L 223.619695 232.632491 
L 222.619695 232.665256 
L 221.619695 232.732683 
L 220.619695 232.771809 
L 219.619695 232.814483 
L 218.619695 232.885064 
L 217.619695 232.921455 
L 216.619695 232.979858 
L 215.619695 233.09081 
L 214.619695 233.161469 
L 213.619695 233.274408 
L 212.619695 233.320181 
L 211.619695 233.381465 
L 210.619695 233.429964 
L 209.619695 233.510787 
L 208.619695 233.629305 
L 207.619695 233.699516 
L 206.619695 233.782779 
L 205.619695 233.81592 
L 204.619695 233.867158 
L 203.619695 233.935556 
L 202.619695 234.001771 
L 201.619695 234.078689 
L 200.299443 234.106004 
" clip-path="url(#p843c758a01)" style="fill: none; stroke: #ff7f0e; stroke-opacity: 0.5; stroke-width: 0.2; stroke-linecap: square"/>
   <path d="M 256.619695 267.271688 
L 255.619695 267.240251 
L 254.619695 267.203311 
L 253.619695 267.105564 
L 252.619695 267.073043 
L 251.619695 266.999418 
L 250.619695 266.960852 
L 249.619695 266.925439 
L 248.619695 266.867799 
L 247.619695 266.797413 
L 246.619695 266.745449 
L 245.619695 266.686359 
L 244.619695 266.598038 
L 243.619695 266.551894 
L 242.619695 266.509483 
L 241.619695 266.47899 
L 240.619695 266.452945 
L 239.619695 266.431745 
L 238.619695 266.377444 
L 237.619695 266.349507 
L 236.619695 266.319783 
L 235.619695 266.294388 
L 234.619695 266.283187 
L 233.619695 266.273063 
L 232.619695 266.273268 
L 231.619695 266.282778 
L 230.619695 266.294431 
L 229.619695 266.32546 
L 228.619695 266.336628 
L 227.619695 266.366746 
L 226.619695 266.426523 
L 225.619695 266.463714 
L 224.619695 266.50281 
L 223.619695 266.54525 
L 222.619695 266.578015 
L 221.619695 266.645442 
L 220.619695 266.684568 
L 219.619695 266.727242 
L 218.619695 266.797823 
L 217.619695 266.834214 
L 216.619695 266.892617 
L 215.619695 267.003569 
L 214.619695 267.074228 
L 213.619695 267.187168 
L 212.619695 267.23294 
L 211.619695 267.294224 
L 210.619695 267.342723 
L 209.619695 267.423546 
L 208.619695 267.542065 
L 207.619695 267.612275 
L 206.619695 267.695538 
L 205.619695 267.728679 
L 204.619695 267.779917 
L 203.619695 267.848315 
L 202.619695 267.914531 
L 201.619695 267.991448 
L 200.299443 268.018763 
" clip-path="url(#p843c758a01)" style="fill: none; stroke: #ff7f0e; stroke-opacity: 0.5; stroke-width: 0.2; stroke-linecap: square"/>
   <path d="M 256.619695 154.402149 
L 255.619695 154.370712 
L 254.619695 154.333772 
L 253.619695 154.236025 
L 252.619695 154.203504 
L 251.619695 154.129879 
L 250.619695 154.091313 
L 249.619695 154.0559 
L 248.619695 153.99826 
L 247.619695 153.927874 
L 246.619695 153.87591 
L 245.619695 153.81682 
L 244.619695 153.728499 
L 243.619695 153.682355 
L 242.619695 153.639944 
L 241.619695 153.609451 
L 240.619695 153.583406 
L 239.619695 153.562206 
L 238.619695 153.507905 
L 237.619695 153.479968 
L 236.619695 153.450244 
L 235.619695 153.424849 
L 234.619695 153.413648 
L 233.619695 153.403524 
L 232.619695 153.403729 
L 231.619695 153.413239 
L 230.619695 153.424892 
L 229.619695 153.455921 
L 228.619695 153.467089 
L 227.619695 153.497207 
L 226.619695 153.556984 
L 225.619695 153.594175 
L 224.619695 153.633271 
L 223.619695 153.675711 
L 222.619695 153.708476 
L 221.619695 153.775903 
L 220.619695 153.815029 
L 219.619695 153.857703 
L 218.619695 153.928284 
L 217.619695 153.964675 
L 216.619695 154.023078 
L 215.619695 154.13403 
L 214.619695 154.204689 
L 213.619695 154.317628 
L 212.619695 154.363401 
L 211.619695 154.424685 
L 210.619695 154.473184 
L 209.619695 154.554007 
L 208.619695 154.672526 
L 207.619695 154.742736 
L 206.619695 154.825999 
L 205.619695 154.85914 
L 204.619695 154.910378 
L 203.619695 154.978776 
L 202.619695 155.044992 
L 201.619695 155.121909 
L 200.299443 155.149224 
" clip-path="url(#p843c758a01)" style="fill: none; stroke: #ff7f0e; stroke-opacity: 0.5; stroke-width: 0.2; stroke-linecap: square"/>
   <path d="M 256.619695 155.235119 
L 255.619695 155.203683 
L 254.619695 155.166743 
L 253.619695 155.068996 
L 252.619695 155.036475 
L 251.619695 154.96285 
L 250.619695 154.924284 
L 249.619695 154.888871 
L 248.619695 154.831231 
L 247.619695 154.760845 
L 246.619695 154.708881 
L 245.619695 154.649791 
L 244.619695 154.56147 
L 243.619695 154.515326 
L 242.619695 154.472915 
L 241.619695 154.442422 
L 240.619695 154.416377 
L 239.619695 154.395177 
L 238.619695 154.340876 
L 237.619695 154.312938 
L 236.619695 154.283214 
L 235.619695 154.25782 
L 234.619695 154.246619 
L 233.619695 154.236495 
L 232.619695 154.2367 
L 231.619695 154.24621 
L 230.619695 154.257863 
L 229.619695 154.288892 
L 228.619695 154.30006 
L 227.619695 154.330178 
L 226.619695 154.389955 
L 225.619695 154.427146 
L 224.619695 154.466242 
L 223.619695 154.508682 
L 222.619695 154.541447 
L 221.619695 154.608874 
L 220.619695 154.648 
L 219.619695 154.690674 
L 218.619695 154.761255 
L 217.619695 154.797646 
L 216.619695 154.856049 
L 215.619695 154.967001 
L 214.619695 155.03766 
L 213.619695 155.150599 
L 212.619695 155.196372 
L 211.619695 155.257656 
L 210.619695 155.306155 
L 209.619695 155.386978 
L 208.619695 155.505496 
L 207.619695 155.575707 
L 206.619695 155.65897 
L 205.619695 155.692111 
L 204.619695 155.743349 
L 203.619695 155.811747 
L 202.619695 155.877962 
L 201.619695 155.95488 
L 200.299443 155.982195 
" clip-path="url(#p843c758a01)" style="fill: none; stroke: #ff7f0e; stroke-opacity: 0.5; stroke-width: 0.2; stroke-linecap: square"/>
   <path d="M 256.619695 141.434408 
L 255.619695 141.402972 
L 254.619695 141.366031 
L 253.619695 141.268285 
L 252.619695 141.235763 
L 251.619695 141.162139 
L 250.619695 141.123573 
L 249.619695 141.08816 
L 248.619695 141.03052 
L 247.619695 140.960134 
L 246.619695 140.90817 
L 245.619695 140.84908 
L 244.619695 140.760759 
L 243.619695 140.714615 
L 242.619695 140.672204 
L 241.619695 140.641711 
L 240.619695 140.615666 
L 239.619695 140.594466 
L 238.619695 140.540165 
L 237.619695 140.512227 
L 236.619695 140.482503 
L 235.619695 140.457108 
L 234.619695 140.445908 
L 233.619695 140.435784 
L 232.619695 140.435988 
L 231.619695 140.445498 
L 230.619695 140.457152 
L 229.619695 140.488181 
L 228.619695 140.499349 
L 227.619695 140.529467 
L 226.619695 140.589244 
L 225.619695 140.626435 
L 224.619695 140.665531 
L 223.619695 140.707971 
L 222.619695 140.740736 
L 221.619695 140.808162 
L 220.619695 140.847288 
L 219.619695 140.889963 
L 218.619695 140.960543 
L 217.619695 140.996934 
L 216.619695 141.055337 
L 215.619695 141.16629 
L 214.619695 141.236948 
L 213.619695 141.349888 
L 212.619695 141.395661 
L 211.619695 141.456944 
L 210.619695 141.505444 
L 209.619695 141.586266 
L 208.619695 141.704785 
L 207.619695 141.774996 
L 206.619695 141.858258 
L 205.619695 141.8914 
L 204.619695 141.942637 
L 203.619695 142.011036 
L 202.619695 142.077251 
L 201.619695 142.154168 
L 200.299443 142.181484 
" clip-path="url(#p843c758a01)" style="fill: none; stroke: #ff7f0e; stroke-opacity: 0.5; stroke-width: 0.2; stroke-linecap: square"/>
   <path d="M 256.619695 215.110845 
L 255.619695 215.079408 
L 254.619695 215.042468 
L 253.619695 214.944721 
L 252.619695 214.9122 
L 251.619695 214.838575 
L 250.619695 214.800009 
L 249.619695 214.764596 
L 248.619695 214.706956 
L 247.619695 214.63657 
L 246.619695 214.584606 
L 245.619695 214.525516 
L 244.619695 214.437195 
L 243.619695 214.391051 
L 242.619695 214.34864 
L 241.619695 214.318147 
L 240.619695 214.292102 
L 239.619695 214.270902 
L 238.619695 214.216601 
L 237.619695 214.188664 
L 236.619695 214.15894 
L 235.619695 214.133545 
L 234.619695 214.122344 
L 233.619695 214.11222 
L 232.619695 214.112425 
L 231.619695 214.121935 
L 230.619695 214.133588 
L 229.619695 214.164617 
L 228.619695 214.175785 
L 227.619695 214.205903 
L 226.619695 214.26568 
L 225.619695 214.302871 
L 224.619695 214.341967 
L 223.619695 214.384407 
L 222.619695 214.417172 
L 221.619695 214.484599 
L 220.619695 214.523725 
L 219.619695 214.566399 
L 218.619695 214.63698 
L 217.619695 214.673371 
L 216.619695 214.731774 
L 215.619695 214.842726 
L 214.619695 214.913385 
L 213.619695 215.026324 
L 212.619695 215.072097 
L 211.619695 215.133381 
L 210.619695 215.18188 
L 209.619695 215.262703 
L 208.619695 215.381222 
L 207.619695 215.451432 
L 206.619695 215.534695 
L 205.619695 215.567836 
L 204.619695 215.619074 
L 203.619695 215.687472 
L 202.619695 215.753688 
L 201.619695 215.830605 
L 200.299443 215.85792 
" clip-path="url(#p843c758a01)" style="fill: none; stroke: #ff7f0e; stroke-opacity: 0.5; stroke-width: 0.2; stroke-linecap: square"/>
   <path d="M 390.34593 40.712387 
L 391.34593 40.743824 
L 392.34593 40.780764 
L 393.34593 40.878511 
L 394.34593 40.911032 
L 395.34593 40.984657 
L 396.34593 41.023222 
L 397.34593 41.058636 
L 398.34593 41.116276 
L 399.34593 41.186662 
L 400.34593 41.238626 
L 401.34593 41.297716 
L 402.34593 41.386037 
L 403.34593 41.432181 
L 404.34593 41.474592 
L 405.34593 41.505085 
L 406.34593 41.53113 
L 407.34593 41.55233 
L 408.34593 41.606631 
L 409.34593 41.634568 
L 410.34593 41.664292 
L 411.34593 41.689687 
L 412.34593 41.700888 
L 413.34593 41.711011 
L 414.34593 41.710807 
L 415.34593 41.701297 
L 416.34593 41.689644 
L 417.34593 41.658614 
L 418.34593 41.647447 
L 419.34593 41.617329 
L 420.34593 41.557552 
L 421.34593 41.520361 
L 422.34593 41.481264 
L 423.34593 41.438825 
L 424.34593 41.40606 
L 425.34593 41.338633 
L 426.34593 41.299507 
L 427.34593 41.256833 
L 428.34593 41.186252 
L 429.34593 41.149861 
L 430.34593 41.091458 
L 431.34593 40.980506 
L 432.34593 40.909847 
L 433.34593 40.796907 
L 434.34593 40.751135 
L 435.34593 40.689851 
L 436.34593 40.641352 
L 437.34593 40.560529 
L 438.34593 40.44201 
L 439.34593 40.3718 
L 440.34593 40.288537 
L 441.34593 40.255395 
L 442.34593 40.204158 
L 443.34593 40.13576 
L 444.34593 40.069544 
L 445.34593 39.992627 
L 446.666182 39.965312 
" clip-path="url(#p843c758a01)" style="fill: none; stroke: #ff7f0e; stroke-opacity: 0.5; stroke-width: 0.2; stroke-linecap: square"/>
   <path d="M 390.34593 188.329342 
L 391.34593 188.360779 
L 392.34593 188.397719 
L 393.34593 188.495466 
L 394.34593 188.527987 
L 395.34593 188.601612 
L 396.34593 188.640178 
L 397.34593 188.675591 
L 398.34593 188.733231 
L 399.34593 188.803617 
L 400.34593 188.855581 
L 401.34593 188.914671 
L 402.34593 189.002992 
L 403.34593 189.049136 
L 404.34593 189.091547 
L 405.34593 189.12204 
L 406.34593 189.148085 
L 407.34593 189.169285 
L 408.34593 189.223586 
L 409.34593 189.251523 
L 410.34593 189.281247 
L 411.34593 189.306642 
L 412.34593 189.317843 
L 413.34593 189.327967 
L 414.34593 189.327762 
L 415.34593 189.318252 
L 416.34593 189.306599 
L 417.34593 189.275569 
L 418.34593 189.264402 
L 419.34593 189.234284 
L 420.34593 189.174507 
L 421.34593 189.137316 
L 422.34593 189.098219 
L 423.34593 189.05578 
L 424.34593 189.023015 
L 425.34593 188.955588 
L 426.34593 188.916462 
L 427.34593 188.873788 
L 428.34593 188.803207 
L 429.34593 188.766816 
L 430.34593 188.708413 
L 431.34593 188.597461 
L 432.34593 188.526802 
L 433.34593 188.413862 
L 434.34593 188.36809 
L 435.34593 188.306806 
L 436.34593 188.258307 
L 437.34593 188.177484 
L 438.34593 188.058965 
L 439.34593 187.988755 
L 440.34593 187.905492 
L 441.34593 187.87235 
L 442.34593 187.821113 
L 443.34593 187.752715 
L 444.34593 187.686499 
L 445.34593 187.609582 
L 446.666182 187.582267 
" clip-path="url(#p843c758a01)" style="fill: none; stroke: #ff7f0e; stroke-opacity: 0.5; stroke-width: 0.2; stroke-linecap: square"/>
   <path d="M 390.34593 291.269043 
L 391.34593 291.300479 
L 392.34593 291.33742 
L 393.34593 291.435166 
L 394.34593 291.467688 
L 395.34593 291.541312 
L 396.34593 291.579878 
L 397.34593 291.615291 
L 398.34593 291.672931 
L 399.34593 291.743317 
L 400.34593 291.795281 
L 401.34593 291.854371 
L 402.34593 291.942692 
L 403.34593 291.988836 
L 404.34593 292.031247 
L 405.34593 292.06174 
L 406.34593 292.087785 
L 407.34593 292.108985 
L 408.34593 292.163286 
L 409.34593 292.191224 
L 410.34593 292.220948 
L 411.34593 292.246343 
L 412.34593 292.257543 
L 413.34593 292.267667 
L 414.34593 292.267463 
L 415.34593 292.257953 
L 416.34593 292.246299 
L 417.34593 292.21527 
L 418.34593 292.204102 
L 419.34593 292.173984 
L 420.34593 292.114207 
L 421.34593 292.077016 
L 422.34593 292.03792 
L 423.34593 291.99548 
L 424.34593 291.962715 
L 425.34593 291.895289 
L 426.34593 291.856163 
L 427.34593 291.813488 
L 428.34593 291.742908 
L 429.34593 291.706517 
L 430.34593 291.648114 
L 431.34593 291.537161 
L 432.34593 291.466503 
L 433.34593 291.353563 
L 434.34593 291.30779 
L 435.34593 291.246507 
L 436.34593 291.198007 
L 437.34593 291.117185 
L 438.34593 290.998666 
L 439.34593 290.928455 
L 440.34593 290.845193 
L 441.34593 290.812051 
L 442.34593 290.760814 
L 443.34593 290.692415 
L 444.34593 290.6262 
L 445.34593 290.549283 
L 446.666182 290.521967 
" clip-path="url(#p843c758a01)" style="fill: none; stroke: #ff7f0e; stroke-opacity: 0.5; stroke-width: 0.2; stroke-linecap: square"/>
   <path d="M 390.34593 47.040538 
L 391.34593 47.071974 
L 392.34593 47.108914 
L 393.34593 47.206661 
L 394.34593 47.239183 
L 395.34593 47.312807 
L 396.34593 47.351373 
L 397.34593 47.386786 
L 398.34593 47.444426 
L 399.34593 47.514812 
L 400.34593 47.566776 
L 401.34593 47.625866 
L 402.34593 47.714187 
L 403.34593 47.760331 
L 404.34593 47.802742 
L 405.34593 47.833235 
L 406.34593 47.85928 
L 407.34593 47.88048 
L 408.34593 47.934781 
L 409.34593 47.962719 
L 410.34593 47.992443 
L 411.34593 48.017837 
L 412.34593 48.029038 
L 413.34593 48.039162 
L 414.34593 48.038957 
L 415.34593 48.029448 
L 416.34593 48.017794 
L 417.34593 47.986765 
L 418.34593 47.975597 
L 419.34593 47.945479 
L 420.34593 47.885702 
L 421.34593 47.848511 
L 422.34593 47.809415 
L 423.34593 47.766975 
L 424.34593 47.73421 
L 425.34593 47.666784 
L 426.34593 47.627658 
L 427.34593 47.584983 
L 428.34593 47.514402 
L 429.34593 47.478012 
L 430.34593 47.419608 
L 431.34593 47.308656 
L 432.34593 47.237998 
L 433.34593 47.125058 
L 434.34593 47.079285 
L 435.34593 47.018002 
L 436.34593 46.969502 
L 437.34593 46.88868 
L 438.34593 46.770161 
L 439.34593 46.69995 
L 440.34593 46.616688 
L 441.34593 46.583546 
L 442.34593 46.532308 
L 443.34593 46.46391 
L 444.34593 46.397695 
L 445.34593 46.320778 
L 446.666182 46.293462 
" clip-path="url(#p843c758a01)" style="fill: none; stroke: #ff7f0e; stroke-opacity: 0.5; stroke-width: 0.2; stroke-linecap: square"/>
   <path d="M 390.34593 22.924226 
L 391.34593 22.955663 
L 392.34593 22.992603 
L 393.34593 23.09035 
L 394.34593 23.122871 
L 395.34593 23.196496 
L 396.34593 23.235062 
L 397.34593 23.270475 
L 398.34593 23.328115 
L 399.34593 23.398501 
L 400.34593 23.450465 
L 401.34593 23.509555 
L 402.34593 23.597876 
L 403.34593 23.64402 
L 404.34593 23.686431 
L 405.34593 23.716924 
L 406.34593 23.742969 
L 407.34593 23.764169 
L 408.34593 23.81847 
L 409.34593 23.846407 
L 410.34593 23.876131 
L 411.34593 23.901526 
L 412.34593 23.912727 
L 413.34593 23.922851 
L 414.34593 23.922646 
L 415.34593 23.913136 
L 416.34593 23.901483 
L 417.34593 23.870453 
L 418.34593 23.859286 
L 419.34593 23.829168 
L 420.34593 23.769391 
L 421.34593 23.7322 
L 422.34593 23.693103 
L 423.34593 23.650664 
L 424.34593 23.617899 
L 425.34593 23.550472 
L 426.34593 23.511346 
L 427.34593 23.468672 
L 428.34593 23.398091 
L 429.34593 23.3617 
L 430.34593 23.303297 
L 431.34593 23.192345 
L 432.34593 23.121686 
L 433.34593 23.008746 
L 434.34593 22.962974 
L 435.34593 22.90169 
L 436.34593 22.853191 
L 437.34593 22.772368 
L 438.34593 22.653849 
L 439.34593 22.583639 
L 440.34593 22.500376 
L 441.34593 22.467235 
L 442.34593 22.415997 
L 443.34593 22.347599 
L 444.34593 22.281383 
L 445.34593 22.204466 
L 446.666182 22.177151 
" clip-path="url(#p843c758a01)" style="fill: none; stroke: #ff7f0e; stroke-opacity: 0.5; stroke-width: 0.2; stroke-linecap: square"/>
   <path d="M 390.34593 262.654908 
L 391.34593 262.686344 
L 392.34593 262.723285 
L 393.34593 262.821031 
L 394.34593 262.853553 
L 395.34593 262.927177 
L 396.34593 262.965743 
L 397.34593 263.001156 
L 398.34593 263.058796 
L 399.34593 263.129182 
L 400.34593 263.181146 
L 401.34593 263.240236 
L 402.34593 263.328557 
L 403.34593 263.374701 
L 404.34593 263.417112 
L 405.34593 263.447605 
L 406.34593 263.47365 
L 407.34593 263.49485 
L 408.34593 263.549151 
L 409.34593 263.577089 
L 410.34593 263.606813 
L 411.34593 263.632208 
L 412.34593 263.643408 
L 413.34593 263.653532 
L 414.34593 263.653328 
L 415.34593 263.643818 
L 416.34593 263.632164 
L 417.34593 263.601135 
L 418.34593 263.589967 
L 419.34593 263.559849 
L 420.34593 263.500072 
L 421.34593 263.462881 
L 422.34593 263.423785 
L 423.34593 263.381345 
L 424.34593 263.34858 
L 425.34593 263.281154 
L 426.34593 263.242028 
L 427.34593 263.199353 
L 428.34593 263.128773 
L 429.34593 263.092382 
L 430.34593 263.033979 
L 431.34593 262.923026 
L 432.34593 262.852368 
L 433.34593 262.739428 
L 434.34593 262.693655 
L 435.34593 262.632372 
L 436.34593 262.583872 
L 437.34593 262.50305 
L 438.34593 262.384531 
L 439.34593 262.31432 
L 440.34593 262.231058 
L 441.34593 262.197916 
L 442.34593 262.146679 
L 443.34593 262.07828 
L 444.34593 262.012065 
L 445.34593 261.935148 
L 446.666182 261.907832 
" clip-path="url(#p843c758a01)" style="fill: none; stroke: #ff7f0e; stroke-opacity: 0.5; stroke-width: 0.2; stroke-linecap: square"/>
   <path d="M 390.34593 220.084761 
L 391.34593 220.116198 
L 392.34593 220.153138 
L 393.34593 220.250885 
L 394.34593 220.283406 
L 395.34593 220.357031 
L 396.34593 220.395597 
L 397.34593 220.43101 
L 398.34593 220.48865 
L 399.34593 220.559036 
L 400.34593 220.611 
L 401.34593 220.67009 
L 402.34593 220.758411 
L 403.34593 220.804555 
L 404.34593 220.846966 
L 405.34593 220.877459 
L 406.34593 220.903504 
L 407.34593 220.924704 
L 408.34593 220.979005 
L 409.34593 221.006942 
L 410.34593 221.036666 
L 411.34593 221.062061 
L 412.34593 221.073262 
L 413.34593 221.083386 
L 414.34593 221.083181 
L 415.34593 221.073671 
L 416.34593 221.062018 
L 417.34593 221.030989 
L 418.34593 221.019821 
L 419.34593 220.989703 
L 420.34593 220.929926 
L 421.34593 220.892735 
L 422.34593 220.853639 
L 423.34593 220.811199 
L 424.34593 220.778434 
L 425.34593 220.711007 
L 426.34593 220.671881 
L 427.34593 220.629207 
L 428.34593 220.558626 
L 429.34593 220.522235 
L 430.34593 220.463832 
L 431.34593 220.35288 
L 432.34593 220.282221 
L 433.34593 220.169282 
L 434.34593 220.123509 
L 435.34593 220.062225 
L 436.34593 220.013726 
L 437.34593 219.932903 
L 438.34593 219.814384 
L 439.34593 219.744174 
L 440.34593 219.660911 
L 441.34593 219.62777 
L 442.34593 219.576532 
L 443.34593 219.508134 
L 444.34593 219.441918 
L 445.34593 219.365001 
L 446.666182 219.337686 
" clip-path="url(#p843c758a01)" style="fill: none; stroke: #ff7f0e; stroke-opacity: 0.5; stroke-width: 0.2; stroke-linecap: square"/>
   <path d="M 390.34593 65.486195 
L 391.34593 65.517631 
L 392.34593 65.554571 
L 393.34593 65.652318 
L 394.34593 65.684839 
L 395.34593 65.758464 
L 396.34593 65.79703 
L 397.34593 65.832443 
L 398.34593 65.890083 
L 399.34593 65.960469 
L 400.34593 66.012433 
L 401.34593 66.071523 
L 402.34593 66.159844 
L 403.34593 66.205988 
L 404.34593 66.248399 
L 405.34593 66.278892 
L 406.34593 66.304937 
L 407.34593 66.326137 
L 408.34593 66.380438 
L 409.34593 66.408376 
L 410.34593 66.4381 
L 411.34593 66.463494 
L 412.34593 66.474695 
L 413.34593 66.484819 
L 414.34593 66.484614 
L 415.34593 66.475104 
L 416.34593 66.463451 
L 417.34593 66.432422 
L 418.34593 66.421254 
L 419.34593 66.391136 
L 420.34593 66.331359 
L 421.34593 66.294168 
L 422.34593 66.255072 
L 423.34593 66.212632 
L 424.34593 66.179867 
L 425.34593 66.11244 
L 426.34593 66.073314 
L 427.34593 66.03064 
L 428.34593 65.960059 
L 429.34593 65.923668 
L 430.34593 65.865265 
L 431.34593 65.754313 
L 432.34593 65.683654 
L 433.34593 65.570715 
L 434.34593 65.524942 
L 435.34593 65.463658 
L 436.34593 65.415159 
L 437.34593 65.334336 
L 438.34593 65.215818 
L 439.34593 65.145607 
L 440.34593 65.062344 
L 441.34593 65.029203 
L 442.34593 64.977965 
L 443.34593 64.909567 
L 444.34593 64.843352 
L 445.34593 64.766434 
L 446.666182 64.739119 
" clip-path="url(#p843c758a01)" style="fill: none; stroke: #ff7f0e; stroke-opacity: 0.5; stroke-width: 0.2; stroke-linecap: square"/>
   <path d="M 390.34593 298.24885 
L 391.34593 298.280287 
L 392.34593 298.317227 
L 393.34593 298.414974 
L 394.34593 298.447495 
L 395.34593 298.52112 
L 396.34593 298.559685 
L 397.34593 298.595099 
L 398.34593 298.652739 
L 399.34593 298.723125 
L 400.34593 298.775089 
L 401.34593 298.834179 
L 402.34593 298.9225 
L 403.34593 298.968644 
L 404.34593 299.011055 
L 405.34593 299.041548 
L 406.34593 299.067592 
L 407.34593 299.088793 
L 408.34593 299.143094 
L 409.34593 299.171031 
L 410.34593 299.200755 
L 411.34593 299.22615 
L 412.34593 299.23735 
L 413.34593 299.247474 
L 414.34593 299.24727 
L 415.34593 299.23776 
L 416.34593 299.226107 
L 417.34593 299.195077 
L 418.34593 299.183909 
L 419.34593 299.153792 
L 420.34593 299.094015 
L 421.34593 299.056823 
L 422.34593 299.017727 
L 423.34593 298.975288 
L 424.34593 298.942523 
L 425.34593 298.875096 
L 426.34593 298.83597 
L 427.34593 298.793296 
L 428.34593 298.722715 
L 429.34593 298.686324 
L 430.34593 298.627921 
L 431.34593 298.516968 
L 432.34593 298.44631 
L 433.34593 298.33337 
L 434.34593 298.287597 
L 435.34593 298.226314 
L 436.34593 298.177815 
L 437.34593 298.096992 
L 438.34593 297.978473 
L 439.34593 297.908263 
L 440.34593 297.825 
L 441.34593 297.791858 
L 442.34593 297.740621 
L 443.34593 297.672223 
L 444.34593 297.606007 
L 445.34593 297.52909 
L 446.666182 297.501775 
" clip-path="url(#p843c758a01)" style="fill: none; stroke: #ff7f0e; stroke-opacity: 0.5; stroke-width: 0.2; stroke-linecap: square"/>
   <path d="M 390.34593 48.857023 
L 391.34593 48.888459 
L 392.34593 48.925399 
L 393.34593 49.023146 
L 394.34593 49.055667 
L 395.34593 49.129292 
L 396.34593 49.167858 
L 397.34593 49.203271 
L 398.34593 49.260911 
L 399.34593 49.331297 
L 400.34593 49.383261 
L 401.34593 49.442351 
L 402.34593 49.530672 
L 403.34593 49.576816 
L 404.34593 49.619227 
L 405.34593 49.64972 
L 406.34593 49.675765 
L 407.34593 49.696965 
L 408.34593 49.751266 
L 409.34593 49.779204 
L 410.34593 49.808928 
L 411.34593 49.834322 
L 412.34593 49.845523 
L 413.34593 49.855647 
L 414.34593 49.855442 
L 415.34593 49.845932 
L 416.34593 49.834279 
L 417.34593 49.80325 
L 418.34593 49.792082 
L 419.34593 49.761964 
L 420.34593 49.702187 
L 421.34593 49.664996 
L 422.34593 49.6259 
L 423.34593 49.58346 
L 424.34593 49.550695 
L 425.34593 49.483268 
L 426.34593 49.444143 
L 427.34593 49.401468 
L 428.34593 49.330887 
L 429.34593 49.294497 
L 430.34593 49.236093 
L 431.34593 49.125141 
L 432.34593 49.054482 
L 433.34593 48.941543 
L 434.34593 48.89577 
L 435.34593 48.834486 
L 436.34593 48.785987 
L 437.34593 48.705164 
L 438.34593 48.586646 
L 439.34593 48.516435 
L 440.34593 48.433172 
L 441.34593 48.400031 
L 442.34593 48.348793 
L 443.34593 48.280395 
L 444.34593 48.21418 
L 445.34593 48.137263 
L 446.666182 48.109947 
" clip-path="url(#p843c758a01)" style="fill: none; stroke: #ff7f0e; stroke-opacity: 0.5; stroke-width: 0.2; stroke-linecap: square"/>
   <path d="M 446.666182 130.207863 
L 445.666182 130.176427 
L 444.666182 130.139486 
L 443.666182 130.04174 
L 442.666182 130.009218 
L 441.666182 129.935593 
L 440.666182 129.897028 
L 439.666182 129.861615 
L 438.666182 129.803975 
L 437.666182 129.733589 
L 436.666182 129.681624 
L 435.666182 129.622535 
L 434.666182 129.534214 
L 433.666182 129.488069 
L 432.666182 129.445658 
L 431.666182 129.415166 
L 430.666182 129.389121 
L 429.666182 129.367921 
L 428.666182 129.31362 
L 427.666182 129.285682 
L 426.666182 129.255958 
L 425.666182 129.230563 
L 424.666182 129.219363 
L 423.666182 129.209239 
L 422.666182 129.209443 
L 421.666182 129.218953 
L 420.666182 129.230607 
L 419.666182 129.261636 
L 418.666182 129.272804 
L 417.666182 129.302921 
L 416.666182 129.362698 
L 415.666182 129.39989 
L 414.666182 129.438986 
L 413.666182 129.481426 
L 412.666182 129.514191 
L 411.666182 129.581617 
L 410.666182 129.620743 
L 409.666182 129.663418 
L 408.666182 129.733998 
L 407.666182 129.770389 
L 406.666182 129.828792 
L 405.666182 129.939745 
L 404.666182 130.010403 
L 403.666182 130.123343 
L 402.666182 130.169116 
L 401.666182 130.230399 
L 400.666182 130.278898 
L 399.666182 130.359721 
L 398.666182 130.47824 
L 397.666182 130.548451 
L 396.666182 130.631713 
L 395.666182 130.664855 
L 394.666182 130.716092 
L 393.666182 130.784491 
L 392.666182 130.850706 
L 391.666182 130.927623 
L 390.34593 130.954938 
" clip-path="url(#p843c758a01)" style="fill: none; stroke: #2ca02c; stroke-opacity: 0.5; stroke-width: 0.2; stroke-linecap: square"/>
   <path d="M 446.666182 53.895873 
L 445.666182 53.864437 
L 444.666182 53.827497 
L 443.666182 53.72975 
L 442.666182 53.697228 
L 441.666182 53.623604 
L 440.666182 53.585038 
L 439.666182 53.549625 
L 438.666182 53.491985 
L 437.666182 53.421599 
L 436.666182 53.369635 
L 435.666182 53.310545 
L 434.666182 53.222224 
L 433.666182 53.17608 
L 432.666182 53.133669 
L 431.666182 53.103176 
L 430.666182 53.077131 
L 429.666182 53.055931 
L 428.666182 53.00163 
L 427.666182 52.973692 
L 426.666182 52.943968 
L 425.666182 52.918574 
L 424.666182 52.907373 
L 423.666182 52.897249 
L 422.666182 52.897453 
L 421.666182 52.906963 
L 420.666182 52.918617 
L 419.666182 52.949646 
L 418.666182 52.960814 
L 417.666182 52.990932 
L 416.666182 53.050709 
L 415.666182 53.0879 
L 414.666182 53.126996 
L 413.666182 53.169436 
L 412.666182 53.202201 
L 411.666182 53.269627 
L 410.666182 53.308753 
L 409.666182 53.351428 
L 408.666182 53.422008 
L 407.666182 53.458399 
L 406.666182 53.516803 
L 405.666182 53.627755 
L 404.666182 53.698413 
L 403.666182 53.811353 
L 402.666182 53.857126 
L 401.666182 53.918409 
L 400.666182 53.966909 
L 399.666182 54.047731 
L 398.666182 54.16625 
L 397.666182 54.236461 
L 396.666182 54.319723 
L 395.666182 54.352865 
L 394.666182 54.404102 
L 393.666182 54.472501 
L 392.666182 54.538716 
L 391.666182 54.615633 
L 390.34593 54.642949 
" clip-path="url(#p843c758a01)" style="fill: none; stroke: #2ca02c; stroke-opacity: 0.5; stroke-width: 0.2; stroke-linecap: square"/>
   <path d="M 446.666182 252.728179 
L 445.666182 252.696742 
L 444.666182 252.659802 
L 443.666182 252.562055 
L 442.666182 252.529534 
L 441.666182 252.455909 
L 440.666182 252.417343 
L 439.666182 252.38193 
L 438.666182 252.32429 
L 437.666182 252.253904 
L 436.666182 252.20194 
L 435.666182 252.14285 
L 434.666182 252.054529 
L 433.666182 252.008385 
L 432.666182 251.965974 
L 431.666182 251.935481 
L 430.666182 251.909436 
L 429.666182 251.888236 
L 428.666182 251.833935 
L 427.666182 251.805998 
L 426.666182 251.776274 
L 425.666182 251.750879 
L 424.666182 251.739678 
L 423.666182 251.729554 
L 422.666182 251.729759 
L 421.666182 251.739269 
L 420.666182 251.750922 
L 419.666182 251.781951 
L 418.666182 251.793119 
L 417.666182 251.823237 
L 416.666182 251.883014 
L 415.666182 251.920205 
L 414.666182 251.959301 
L 413.666182 252.001741 
L 412.666182 252.034506 
L 411.666182 252.101933 
L 410.666182 252.141059 
L 409.666182 252.183733 
L 408.666182 252.254314 
L 407.666182 252.290705 
L 406.666182 252.349108 
L 405.666182 252.46006 
L 404.666182 252.530719 
L 403.666182 252.643658 
L 402.666182 252.689431 
L 401.666182 252.750715 
L 400.666182 252.799214 
L 399.666182 252.880037 
L 398.666182 252.998556 
L 397.666182 253.068766 
L 396.666182 253.152029 
L 395.666182 253.18517 
L 394.666182 253.236408 
L 393.666182 253.304806 
L 392.666182 253.371022 
L 391.666182 253.447939 
L 390.34593 253.475254 
" clip-path="url(#p843c758a01)" style="fill: none; stroke: #2ca02c; stroke-opacity: 0.5; stroke-width: 0.2; stroke-linecap: square"/>
   <path d="M 446.666182 291.026591 
L 445.666182 290.995154 
L 444.666182 290.958214 
L 443.666182 290.860468 
L 442.666182 290.827946 
L 441.666182 290.754321 
L 440.666182 290.715756 
L 439.666182 290.680343 
L 438.666182 290.622703 
L 437.666182 290.552316 
L 436.666182 290.500352 
L 435.666182 290.441262 
L 434.666182 290.352941 
L 433.666182 290.306797 
L 432.666182 290.264386 
L 431.666182 290.233894 
L 430.666182 290.207849 
L 429.666182 290.186649 
L 428.666182 290.132347 
L 427.666182 290.10441 
L 426.666182 290.074686 
L 425.666182 290.049291 
L 424.666182 290.038091 
L 423.666182 290.027967 
L 422.666182 290.028171 
L 421.666182 290.037681 
L 420.666182 290.049334 
L 419.666182 290.080364 
L 418.666182 290.091532 
L 417.666182 290.121649 
L 416.666182 290.181426 
L 415.666182 290.218618 
L 414.666182 290.257714 
L 413.666182 290.300153 
L 412.666182 290.332919 
L 411.666182 290.400345 
L 410.666182 290.439471 
L 409.666182 290.482145 
L 408.666182 290.552726 
L 407.666182 290.589117 
L 406.666182 290.64752 
L 405.666182 290.758473 
L 404.666182 290.829131 
L 403.666182 290.942071 
L 402.666182 290.987844 
L 401.666182 291.049127 
L 400.666182 291.097626 
L 399.666182 291.178449 
L 398.666182 291.296968 
L 397.666182 291.367178 
L 396.666182 291.450441 
L 395.666182 291.483583 
L 394.666182 291.53482 
L 393.666182 291.603218 
L 392.666182 291.669434 
L 391.666182 291.746351 
L 390.34593 291.773666 
" clip-path="url(#p843c758a01)" style="fill: none; stroke: #2ca02c; stroke-opacity: 0.5; stroke-width: 0.2; stroke-linecap: square"/>
   <path d="M 446.666182 220.543846 
L 445.666182 220.51241 
L 444.666182 220.475469 
L 443.666182 220.377723 
L 442.666182 220.345201 
L 441.666182 220.271577 
L 440.666182 220.233011 
L 439.666182 220.197598 
L 438.666182 220.139958 
L 437.666182 220.069572 
L 436.666182 220.017608 
L 435.666182 219.958518 
L 434.666182 219.870197 
L 433.666182 219.824053 
L 432.666182 219.781642 
L 431.666182 219.751149 
L 430.666182 219.725104 
L 429.666182 219.703904 
L 428.666182 219.649603 
L 427.666182 219.621665 
L 426.666182 219.591941 
L 425.666182 219.566546 
L 424.666182 219.555346 
L 423.666182 219.545222 
L 422.666182 219.545426 
L 421.666182 219.554936 
L 420.666182 219.56659 
L 419.666182 219.597619 
L 418.666182 219.608787 
L 417.666182 219.638905 
L 416.666182 219.698682 
L 415.666182 219.735873 
L 414.666182 219.774969 
L 413.666182 219.817409 
L 412.666182 219.850174 
L 411.666182 219.9176 
L 410.666182 219.956726 
L 409.666182 219.999401 
L 408.666182 220.069981 
L 407.666182 220.106372 
L 406.666182 220.164775 
L 405.666182 220.275728 
L 404.666182 220.346386 
L 403.666182 220.459326 
L 402.666182 220.505099 
L 401.666182 220.566382 
L 400.666182 220.614882 
L 399.666182 220.695704 
L 398.666182 220.814223 
L 397.666182 220.884434 
L 396.666182 220.967696 
L 395.666182 221.000838 
L 394.666182 221.052075 
L 393.666182 221.120474 
L 392.666182 221.186689 
L 391.666182 221.263606 
L 390.34593 221.290922 
" clip-path="url(#p843c758a01)" style="fill: none; stroke: #2ca02c; stroke-opacity: 0.5; stroke-width: 0.2; stroke-linecap: square"/>
   <path d="M 446.666182 199.596571 
L 445.666182 199.565134 
L 444.666182 199.528194 
L 443.666182 199.430447 
L 442.666182 199.397926 
L 441.666182 199.324301 
L 440.666182 199.285735 
L 439.666182 199.250322 
L 438.666182 199.192682 
L 437.666182 199.122296 
L 436.666182 199.070332 
L 435.666182 199.011242 
L 434.666182 198.922921 
L 433.666182 198.876777 
L 432.666182 198.834366 
L 431.666182 198.803873 
L 430.666182 198.777828 
L 429.666182 198.756628 
L 428.666182 198.702327 
L 427.666182 198.67439 
L 426.666182 198.644666 
L 425.666182 198.619271 
L 424.666182 198.60807 
L 423.666182 198.597946 
L 422.666182 198.598151 
L 421.666182 198.607661 
L 420.666182 198.619314 
L 419.666182 198.650344 
L 418.666182 198.661511 
L 417.666182 198.691629 
L 416.666182 198.751406 
L 415.666182 198.788597 
L 414.666182 198.827694 
L 413.666182 198.870133 
L 412.666182 198.902898 
L 411.666182 198.970325 
L 410.666182 199.009451 
L 409.666182 199.052125 
L 408.666182 199.122706 
L 407.666182 199.159097 
L 406.666182 199.2175 
L 405.666182 199.328452 
L 404.666182 199.399111 
L 403.666182 199.512051 
L 402.666182 199.557823 
L 401.666182 199.619107 
L 400.666182 199.667606 
L 399.666182 199.748429 
L 398.666182 199.866948 
L 397.666182 199.937158 
L 396.666182 200.020421 
L 395.666182 200.053563 
L 394.666182 200.1048 
L 393.666182 200.173198 
L 392.666182 200.239414 
L 391.666182 200.316331 
L 390.34593 200.343646 
" clip-path="url(#p843c758a01)" style="fill: none; stroke: #2ca02c; stroke-opacity: 0.5; stroke-width: 0.2; stroke-linecap: square"/>
   <path d="M 446.666182 87.16036 
L 445.666182 87.128924 
L 444.666182 87.091983 
L 443.666182 86.994237 
L 442.666182 86.961715 
L 441.666182 86.888091 
L 440.666182 86.849525 
L 439.666182 86.814112 
L 438.666182 86.756472 
L 437.666182 86.686086 
L 436.666182 86.634122 
L 435.666182 86.575032 
L 434.666182 86.486711 
L 433.666182 86.440567 
L 432.666182 86.398156 
L 431.666182 86.367663 
L 430.666182 86.341618 
L 429.666182 86.320418 
L 428.666182 86.266117 
L 427.666182 86.238179 
L 426.666182 86.208455 
L 425.666182 86.18306 
L 424.666182 86.17186 
L 423.666182 86.161736 
L 422.666182 86.16194 
L 421.666182 86.17145 
L 420.666182 86.183104 
L 419.666182 86.214133 
L 418.666182 86.225301 
L 417.666182 86.255419 
L 416.666182 86.315196 
L 415.666182 86.352387 
L 414.666182 86.391483 
L 413.666182 86.433923 
L 412.666182 86.466688 
L 411.666182 86.534114 
L 410.666182 86.57324 
L 409.666182 86.615915 
L 408.666182 86.686495 
L 407.666182 86.722886 
L 406.666182 86.781289 
L 405.666182 86.892242 
L 404.666182 86.9629 
L 403.666182 87.07584 
L 402.666182 87.121613 
L 401.666182 87.182896 
L 400.666182 87.231396 
L 399.666182 87.312218 
L 398.666182 87.430737 
L 397.666182 87.500948 
L 396.666182 87.58421 
L 395.666182 87.617352 
L 394.666182 87.668589 
L 393.666182 87.736988 
L 392.666182 87.803203 
L 391.666182 87.88012 
L 390.34593 87.907436 
" clip-path="url(#p843c758a01)" style="fill: none; stroke: #2ca02c; stroke-opacity: 0.5; stroke-width: 0.2; stroke-linecap: square"/>
   <path d="M 446.666182 202.111222 
L 445.666182 202.079786 
L 444.666182 202.042846 
L 443.666182 201.945099 
L 442.666182 201.912578 
L 441.666182 201.838953 
L 440.666182 201.800387 
L 439.666182 201.764974 
L 438.666182 201.707334 
L 437.666182 201.636948 
L 436.666182 201.584984 
L 435.666182 201.525894 
L 434.666182 201.437573 
L 433.666182 201.391429 
L 432.666182 201.349018 
L 431.666182 201.318525 
L 430.666182 201.29248 
L 429.666182 201.27128 
L 428.666182 201.216979 
L 427.666182 201.189041 
L 426.666182 201.159317 
L 425.666182 201.133923 
L 424.666182 201.122722 
L 423.666182 201.112598 
L 422.666182 201.112803 
L 421.666182 201.122312 
L 420.666182 201.133966 
L 419.666182 201.164995 
L 418.666182 201.176163 
L 417.666182 201.206281 
L 416.666182 201.266058 
L 415.666182 201.303249 
L 414.666182 201.342345 
L 413.666182 201.384785 
L 412.666182 201.41755 
L 411.666182 201.484977 
L 410.666182 201.524102 
L 409.666182 201.566777 
L 408.666182 201.637358 
L 407.666182 201.673748 
L 406.666182 201.732152 
L 405.666182 201.843104 
L 404.666182 201.913763 
L 403.666182 202.026702 
L 402.666182 202.072475 
L 401.666182 202.133758 
L 400.666182 202.182258 
L 399.666182 202.263081 
L 398.666182 202.381599 
L 397.666182 202.45181 
L 396.666182 202.535073 
L 395.666182 202.568214 
L 394.666182 202.619452 
L 393.666182 202.68785 
L 392.666182 202.754065 
L 391.666182 202.830982 
L 390.34593 202.858298 
" clip-path="url(#p843c758a01)" style="fill: none; stroke: #2ca02c; stroke-opacity: 0.5; stroke-width: 0.2; stroke-linecap: square"/>
   <path d="M 446.666182 43.797034 
L 445.666182 43.765598 
L 444.666182 43.728658 
L 443.666182 43.630911 
L 442.666182 43.598389 
L 441.666182 43.524765 
L 440.666182 43.486199 
L 439.666182 43.450786 
L 438.666182 43.393146 
L 437.666182 43.32276 
L 436.666182 43.270796 
L 435.666182 43.211706 
L 434.666182 43.123385 
L 433.666182 43.077241 
L 432.666182 43.03483 
L 431.666182 43.004337 
L 430.666182 42.978292 
L 429.666182 42.957092 
L 428.666182 42.902791 
L 427.666182 42.874853 
L 426.666182 42.845129 
L 425.666182 42.819735 
L 424.666182 42.808534 
L 423.666182 42.79841 
L 422.666182 42.798615 
L 421.666182 42.808124 
L 420.666182 42.819778 
L 419.666182 42.850807 
L 418.666182 42.861975 
L 417.666182 42.892093 
L 416.666182 42.95187 
L 415.666182 42.989061 
L 414.666182 43.028157 
L 413.666182 43.070597 
L 412.666182 43.103362 
L 411.666182 43.170788 
L 410.666182 43.209914 
L 409.666182 43.252589 
L 408.666182 43.32317 
L 407.666182 43.35956 
L 406.666182 43.417964 
L 405.666182 43.528916 
L 404.666182 43.599574 
L 403.666182 43.712514 
L 402.666182 43.758287 
L 401.666182 43.81957 
L 400.666182 43.86807 
L 399.666182 43.948892 
L 398.666182 44.067411 
L 397.666182 44.137622 
L 396.666182 44.220884 
L 395.666182 44.254026 
L 394.666182 44.305264 
L 393.666182 44.373662 
L 392.666182 44.439877 
L 391.666182 44.516794 
L 390.34593 44.54411 
" clip-path="url(#p843c758a01)" style="fill: none; stroke: #2ca02c; stroke-opacity: 0.5; stroke-width: 0.2; stroke-linecap: square"/>
   <path d="M 446.666182 241.611694 
L 445.666182 241.580257 
L 444.666182 241.543317 
L 443.666182 241.44557 
L 442.666182 241.413049 
L 441.666182 241.339424 
L 440.666182 241.300858 
L 439.666182 241.265445 
L 438.666182 241.207805 
L 437.666182 241.137419 
L 436.666182 241.085455 
L 435.666182 241.026365 
L 434.666182 240.938044 
L 433.666182 240.8919 
L 432.666182 240.849489 
L 431.666182 240.818996 
L 430.666182 240.792951 
L 429.666182 240.771751 
L 428.666182 240.71745 
L 427.666182 240.689513 
L 426.666182 240.659789 
L 425.666182 240.634394 
L 424.666182 240.623193 
L 423.666182 240.613069 
L 422.666182 240.613274 
L 421.666182 240.622784 
L 420.666182 240.634437 
L 419.666182 240.665466 
L 418.666182 240.676634 
L 417.666182 240.706752 
L 416.666182 240.766529 
L 415.666182 240.80372 
L 414.666182 240.842816 
L 413.666182 240.885256 
L 412.666182 240.918021 
L 411.666182 240.985448 
L 410.666182 241.024574 
L 409.666182 241.067248 
L 408.666182 241.137829 
L 407.666182 241.17422 
L 406.666182 241.232623 
L 405.666182 241.343575 
L 404.666182 241.414234 
L 403.666182 241.527173 
L 402.666182 241.572946 
L 401.666182 241.63423 
L 400.666182 241.682729 
L 399.666182 241.763552 
L 398.666182 241.882071 
L 397.666182 241.952281 
L 396.666182 242.035544 
L 395.666182 242.068685 
L 394.666182 242.119923 
L 393.666182 242.188321 
L 392.666182 242.254537 
L 391.666182 242.331454 
L 390.34593 242.358769 
" clip-path="url(#p843c758a01)" style="fill: none; stroke: #2ca02c; stroke-opacity: 0.5; stroke-width: 0.2; stroke-linecap: square"/>
   <g id="patch_3">
    <path d="M 72.103551 22.318125 
L 72.103551 318.021875 
M 194.769099 22.318125 
L 194.769099 318.021875 
" clip-path="url(#p843c758a01)" style="fill: none; stroke: #ffffff; stroke-width: 3; stroke-linejoin: miter"/>
    <path d="M 72.103551 22.318125 
L 72.103551 318.021875 
M 194.769099 22.318125 
L 194.769099 318.021875 
" clip-path="url(#p843c758a01)" style="fill: none; stroke: #1f77b4; stroke-linejoin: miter"/>
    <g id="PolyCollection_1">
     <path d="M 194.769099 22.318125 
L 72.103551 22.318125 
L 72.103551 318.021875 
L 194.769099 318.021875 
L 194.769099 318.021875 
L 194.769099 22.318125 
z
" clip-path="url(#p843c758a01)" style="fill: #1f77b4; fill-opacity: 0.5"/>
    </g>
    <g id="patch_4">
     <path d="M 262.150038 22.318125 
L 262.150038 318.021875 
M 384.815587 22.318125 
L 384.815587 318.021875 
" clip-path="url(#p843c758a01)" style="fill: none; stroke: #ffffff; stroke-width: 3; stroke-linejoin: miter"/>
     <path d="M 262.150038 22.318125 
L 262.150038 318.021875 
M 384.815587 22.318125 
L 384.815587 318.021875 
" clip-path="url(#p843c758a01)" style="fill: none; stroke: #ff7f0e; stroke-linejoin: miter"/>
     <g id="PolyCollection_2">
      <path d="M 384.815587 22.318125 
L 262.150038 22.318125 
L 262.150038 318.021875 
L 384.815587 318.021875 
L 384.815587 318.021875 
L 384.815587 22.318125 
z
" clip-path="url(#p843c758a01)" style="fill: #ff7f0e; fill-opacity: 0.5"/>
     </g>
     <g id="patch_5">
      <path d="M 452.196526 22.318125 
L 452.196526 318.021875 
M 574.862074 22.318125 
L 574.862074 318.021875 
" clip-path="url(#p843c758a01)" style="fill: none; stroke: #ffffff; stroke-width: 3; stroke-linejoin: miter"/>
      <path d="M 452.196526 22.318125 
L 452.196526 318.021875 
M 574.862074 22.318125 
L 574.862074 318.021875 
" clip-path="url(#p843c758a01)" style="fill: none; stroke: #2ca02c; stroke-linejoin: miter"/>
      <g id="PolyCollection_3">
       <path d="M 574.862074 22.318125 
L 452.196526 22.318125 
L 452.196526 318.021875 
L 574.862074 318.021875 
L 574.862074 318.021875 
L 574.862074 22.318125 
z
" clip-path="url(#p843c758a01)" style="fill: #2ca02c; fill-opacity: 0.5"/>
      </g>
      <g id="matplotlib.axis_1">
       <g id="xtick_1">
        <g id="line2d_1"/>
        <g id="text_1">
         <!-- deme1 -->
         <g transform="translate(116.057419 329.120312) scale(0.1 -0.1)">
          <defs>
           <path id="DejaVuSans-64" d="M 2906 2969 
L 2906 4863 
L 3481 4863 
L 3481 0 
L 2906 0 
L 2906 525 
Q 2725 213 2448 61 
Q 2172 -91 1784 -91 
Q 1150 -91 751 415 
Q 353 922 353 1747 
Q 353 2572 751 3078 
Q 1150 3584 1784 3584 
Q 2172 3584 2448 3432 
Q 2725 3281 2906 2969 
z
M 947 1747 
Q 947 1113 1208 752 
Q 1469 391 1925 391 
Q 2381 391 2643 752 
Q 2906 1113 2906 1747 
Q 2906 2381 2643 2742 
Q 2381 3103 1925 3103 
Q 1469 3103 1208 2742 
Q 947 2381 947 1747 
z
" transform="scale(0.015625)"/>
           <path id="DejaVuSans-65" d="M 3597 1894 
L 3597 1613 
L 953 1613 
Q 991 1019 1311 708 
Q 1631 397 2203 397 
Q 2534 397 2845 478 
Q 3156 559 3463 722 
L 3463 178 
Q 3153 47 2828 -22 
Q 2503 -91 2169 -91 
Q 1331 -91 842 396 
Q 353 884 353 1716 
Q 353 2575 817 3079 
Q 1281 3584 2069 3584 
Q 2775 3584 3186 3129 
Q 3597 2675 3597 1894 
z
M 3022 2063 
Q 3016 2534 2758 2815 
Q 2500 3097 2075 3097 
Q 1594 3097 1305 2825 
Q 1016 2553 972 2059 
L 3022 2063 
z
" transform="scale(0.015625)"/>
           <path id="DejaVuSans-6d" d="M 3328 2828 
Q 3544 3216 3844 3400 
Q 4144 3584 4550 3584 
Q 5097 3584 5394 3201 
Q 5691 2819 5691 2113 
L 5691 0 
L 5113 0 
L 5113 2094 
Q 5113 2597 4934 2840 
Q 4756 3084 4391 3084 
Q 3944 3084 3684 2787 
Q 3425 2491 3425 1978 
L 3425 0 
L 2847 0 
L 2847 2094 
Q 2847 2600 2669 2842 
Q 2491 3084 2119 3084 
Q 1678 3084 1418 2786 
Q 1159 2488 1159 1978 
L 1159 0 
L 581 0 
L 581 3500 
L 1159 3500 
L 1159 2956 
Q 1356 3278 1631 3431 
Q 1906 3584 2284 3584 
Q 2666 3584 2933 3390 
Q 3200 3197 3328 2828 
z
" transform="scale(0.015625)"/>
           <path id="DejaVuSans-31" d="M 794 531 
L 1825 531 
L 1825 4091 
L 703 3866 
L 703 4441 
L 1819 4666 
L 2450 4666 
L 2450 531 
L 3481 531 
L 3481 0 
L 794 0 
L 794 531 
z
" transform="scale(0.015625)"/>
          </defs>
          <use xlink:href="#DejaVuSans-64"/>
          <use xlink:href="#DejaVuSans-65" x="63.476562"/>
          <use xlink:href="#DejaVuSans-6d" x="125"/>
          <use xlink:href="#DejaVuSans-65" x="222.412109"/>
          <use xlink:href="#DejaVuSans-31" x="283.935547"/>
         </g>
        </g>
       </g>
       <g id="xtick_2">
        <g id="line2d_2"/>
        <g id="text_2">
         <!-- deme2 -->
         <g transform="translate(306.103906 329.120312) scale(0.1 -0.1)">
          <defs>
           <path id="DejaVuSans-32" d="M 1228 531 
L 3431 531 
L 3431 0 
L 469 0 
L 469 531 
Q 828 903 1448 1529 
Q 2069 2156 2228 2338 
Q 2531 2678 2651 2914 
Q 2772 3150 2772 3378 
Q 2772 3750 2511 3984 
Q 2250 4219 1831 4219 
Q 1534 4219 1204 4116 
Q 875 4013 500 3803 
L 500 4441 
Q 881 4594 1212 4672 
Q 1544 4750 1819 4750 
Q 2544 4750 2975 4387 
Q 3406 4025 3406 3419 
Q 3406 3131 3298 2873 
Q 3191 2616 2906 2266 
Q 2828 2175 2409 1742 
Q 1991 1309 1228 531 
z
" transform="scale(0.015625)"/>
          </defs>
          <use xlink:href="#DejaVuSans-64"/>
          <use xlink:href="#DejaVuSans-65" x="63.476562"/>
          <use xlink:href="#DejaVuSans-6d" x="125"/>
          <use xlink:href="#DejaVuSans-65" x="222.412109"/>
          <use xlink:href="#DejaVuSans-32" x="283.935547"/>
         </g>
        </g>
       </g>
       <g id="xtick_3">
        <g id="line2d_3"/>
        <g id="text_3">
         <!-- deme3 -->
         <g transform="translate(496.150394 329.120312) scale(0.1 -0.1)">
          <defs>
           <path id="DejaVuSans-33" d="M 2597 2516 
Q 3050 2419 3304 2112 
Q 3559 1806 3559 1356 
Q 3559 666 3084 287 
Q 2609 -91 1734 -91 
Q 1441 -91 1130 -33 
Q 819 25 488 141 
L 488 750 
Q 750 597 1062 519 
Q 1375 441 1716 441 
Q 2309 441 2620 675 
Q 2931 909 2931 1356 
Q 2931 1769 2642 2001 
Q 2353 2234 1838 2234 
L 1294 2234 
L 1294 2753 
L 1863 2753 
Q 2328 2753 2575 2939 
Q 2822 3125 2822 3475 
Q 2822 3834 2567 4026 
Q 2313 4219 1838 4219 
Q 1578 4219 1281 4162 
Q 984 4106 628 3988 
L 628 4550 
Q 988 4650 1302 4700 
Q 1616 4750 1894 4750 
Q 2613 4750 3031 4423 
Q 3450 4097 3450 3541 
Q 3450 3153 3228 2886 
Q 3006 2619 2597 2516 
z
" transform="scale(0.015625)"/>
          </defs>
          <use xlink:href="#DejaVuSans-64"/>
          <use xlink:href="#DejaVuSans-65" x="63.476562"/>
          <use xlink:href="#DejaVuSans-6d" x="125"/>
          <use xlink:href="#DejaVuSans-65" x="222.412109"/>
          <use xlink:href="#DejaVuSans-33" x="283.935547"/>
         </g>
        </g>
       </g>
      </g>
      <g id="matplotlib.axis_2">
       <g id="ytick_1">
        <g id="line2d_4">
         <defs>
          <path id="me7b2526d00" d="M 0 0 
L -3.5 0 
" style="stroke: #000000; stroke-width: 0.8"/>
         </defs>
         <g>
          <use xlink:href="#me7b2526d00" x="46.965625" y="318.021875" style="stroke: #000000; stroke-width: 0.8"/>
         </g>
        </g>
        <g id="text_4">
         <!-- 0 -->
         <g transform="translate(33.603125 321.821094) scale(0.1 -0.1)">
          <defs>
           <path id="DejaVuSans-30" d="M 2034 4250 
Q 1547 4250 1301 3770 
Q 1056 3291 1056 2328 
Q 1056 1369 1301 889 
Q 1547 409 2034 409 
Q 2525 409 2770 889 
Q 3016 1369 3016 2328 
Q 3016 3291 2770 3770 
Q 2525 4250 2034 4250 
z
M 2034 4750 
Q 2819 4750 3233 4129 
Q 3647 3509 3647 2328 
Q 3647 1150 3233 529 
Q 2819 -91 2034 -91 
Q 1250 -91 836 529 
Q 422 1150 422 2328 
Q 422 3509 836 4129 
Q 1250 4750 2034 4750 
z
" transform="scale(0.015625)"/>
          </defs>
          <use xlink:href="#DejaVuSans-30"/>
         </g>
        </g>
       </g>
       <g id="ytick_2">
        <g id="line2d_5">
         <g>
          <use xlink:href="#me7b2526d00" x="46.965625" y="265.684928" style="stroke: #000000; stroke-width: 0.8"/>
         </g>
        </g>
        <g id="text_5">
         <!-- 20 -->
         <g transform="translate(27.240625 269.484147) scale(0.1 -0.1)">
          <use xlink:href="#DejaVuSans-32"/>
          <use xlink:href="#DejaVuSans-30" x="63.623047"/>
         </g>
        </g>
       </g>
       <g id="ytick_3">
        <g id="line2d_6">
         <g>
          <use xlink:href="#me7b2526d00" x="46.965625" y="213.347981" style="stroke: #000000; stroke-width: 0.8"/>
         </g>
        </g>
        <g id="text_6">
         <!-- 40 -->
         <g transform="translate(27.240625 217.1472) scale(0.1 -0.1)">
          <defs>
           <path id="DejaVuSans-34" d="M 2419 4116 
L 825 1625 
L 2419 1625 
L 2419 4116 
z
M 2253 4666 
L 3047 4666 
L 3047 1625 
L 3713 1625 
L 3713 1100 
L 3047 1100 
L 3047 0 
L 2419 0 
L 2419 1100 
L 313 1100 
L 313 1709 
L 2253 4666 
z
" transform="scale(0.015625)"/>
          </defs>
          <use xlink:href="#DejaVuSans-34"/>
          <use xlink:href="#DejaVuSans-30" x="63.623047"/>
         </g>
        </g>
       </g>
       <g id="ytick_4">
        <g id="line2d_7">
         <g>
          <use xlink:href="#me7b2526d00" x="46.965625" y="161.011034" style="stroke: #000000; stroke-width: 0.8"/>
         </g>
        </g>
        <g id="text_7">
         <!-- 60 -->
         <g transform="translate(27.240625 164.810253) scale(0.1 -0.1)">
          <defs>
           <path id="DejaVuSans-36" d="M 2113 2584 
Q 1688 2584 1439 2293 
Q 1191 2003 1191 1497 
Q 1191 994 1439 701 
Q 1688 409 2113 409 
Q 2538 409 2786 701 
Q 3034 994 3034 1497 
Q 3034 2003 2786 2293 
Q 2538 2584 2113 2584 
z
M 3366 4563 
L 3366 3988 
Q 3128 4100 2886 4159 
Q 2644 4219 2406 4219 
Q 1781 4219 1451 3797 
Q 1122 3375 1075 2522 
Q 1259 2794 1537 2939 
Q 1816 3084 2150 3084 
Q 2853 3084 3261 2657 
Q 3669 2231 3669 1497 
Q 3669 778 3244 343 
Q 2819 -91 2113 -91 
Q 1303 -91 875 529 
Q 447 1150 447 2328 
Q 447 3434 972 4092 
Q 1497 4750 2381 4750 
Q 2619 4750 2861 4703 
Q 3103 4656 3366 4563 
z
" transform="scale(0.015625)"/>
          </defs>
          <use xlink:href="#DejaVuSans-36"/>
          <use xlink:href="#DejaVuSans-30" x="63.623047"/>
         </g>
        </g>
       </g>
       <g id="ytick_5">
        <g id="line2d_8">
         <g>
          <use xlink:href="#me7b2526d00" x="46.965625" y="108.674087" style="stroke: #000000; stroke-width: 0.8"/>
         </g>
        </g>
        <g id="text_8">
         <!-- 80 -->
         <g transform="translate(27.240625 112.473306) scale(0.1 -0.1)">
          <defs>
           <path id="DejaVuSans-38" d="M 2034 2216 
Q 1584 2216 1326 1975 
Q 1069 1734 1069 1313 
Q 1069 891 1326 650 
Q 1584 409 2034 409 
Q 2484 409 2743 651 
Q 3003 894 3003 1313 
Q 3003 1734 2745 1975 
Q 2488 2216 2034 2216 
z
M 1403 2484 
Q 997 2584 770 2862 
Q 544 3141 544 3541 
Q 544 4100 942 4425 
Q 1341 4750 2034 4750 
Q 2731 4750 3128 4425 
Q 3525 4100 3525 3541 
Q 3525 3141 3298 2862 
Q 3072 2584 2669 2484 
Q 3125 2378 3379 2068 
Q 3634 1759 3634 1313 
Q 3634 634 3220 271 
Q 2806 -91 2034 -91 
Q 1263 -91 848 271 
Q 434 634 434 1313 
Q 434 1759 690 2068 
Q 947 2378 1403 2484 
z
M 1172 3481 
Q 1172 3119 1398 2916 
Q 1625 2713 2034 2713 
Q 2441 2713 2670 2916 
Q 2900 3119 2900 3481 
Q 2900 3844 2670 4047 
Q 2441 4250 2034 4250 
Q 1625 4250 1398 4047 
Q 1172 3844 1172 3481 
z
" transform="scale(0.015625)"/>
          </defs>
          <use xlink:href="#DejaVuSans-38"/>
          <use xlink:href="#DejaVuSans-30" x="63.623047"/>
         </g>
        </g>
       </g>
       <g id="ytick_6">
        <g id="line2d_9">
         <g>
          <use xlink:href="#me7b2526d00" x="46.965625" y="56.33714" style="stroke: #000000; stroke-width: 0.8"/>
         </g>
        </g>
        <g id="text_9">
         <!-- 100 -->
         <g transform="translate(20.878125 60.136359) scale(0.1 -0.1)">
          <use xlink:href="#DejaVuSans-31"/>
          <use xlink:href="#DejaVuSans-30" x="63.623047"/>
          <use xlink:href="#DejaVuSans-30" x="127.246094"/>
         </g>
        </g>
       </g>
       <g id="text_10">
        <!-- time ago (years) -->
        <g transform="translate(14.798437 211.603594) rotate(-90) scale(0.1 -0.1)">
         <defs>
          <path id="DejaVuSans-74" d="M 1172 4494 
L 1172 3500 
L 2356 3500 
L 2356 3053 
L 1172 3053 
L 1172 1153 
Q 1172 725 1289 603 
Q 1406 481 1766 481 
L 2356 481 
L 2356 0 
L 1766 0 
Q 1100 0 847 248 
Q 594 497 594 1153 
L 594 3053 
L 172 3053 
L 172 3500 
L 594 3500 
L 594 4494 
L 1172 4494 
z
" transform="scale(0.015625)"/>
          <path id="DejaVuSans-69" d="M 603 3500 
L 1178 3500 
L 1178 0 
L 603 0 
L 603 3500 
z
M 603 4863 
L 1178 4863 
L 1178 4134 
L 603 4134 
L 603 4863 
z
" transform="scale(0.015625)"/>
          <path id="DejaVuSans-20" transform="scale(0.015625)"/>
          <path id="DejaVuSans-61" d="M 2194 1759 
Q 1497 1759 1228 1600 
Q 959 1441 959 1056 
Q 959 750 1161 570 
Q 1363 391 1709 391 
Q 2188 391 2477 730 
Q 2766 1069 2766 1631 
L 2766 1759 
L 2194 1759 
z
M 3341 1997 
L 3341 0 
L 2766 0 
L 2766 531 
Q 2569 213 2275 61 
Q 1981 -91 1556 -91 
Q 1019 -91 701 211 
Q 384 513 384 1019 
Q 384 1609 779 1909 
Q 1175 2209 1959 2209 
L 2766 2209 
L 2766 2266 
Q 2766 2663 2505 2880 
Q 2244 3097 1772 3097 
Q 1472 3097 1187 3025 
Q 903 2953 641 2809 
L 641 3341 
Q 956 3463 1253 3523 
Q 1550 3584 1831 3584 
Q 2591 3584 2966 3190 
Q 3341 2797 3341 1997 
z
" transform="scale(0.015625)"/>
          <path id="DejaVuSans-67" d="M 2906 1791 
Q 2906 2416 2648 2759 
Q 2391 3103 1925 3103 
Q 1463 3103 1205 2759 
Q 947 2416 947 1791 
Q 947 1169 1205 825 
Q 1463 481 1925 481 
Q 2391 481 2648 825 
Q 2906 1169 2906 1791 
z
M 3481 434 
Q 3481 -459 3084 -895 
Q 2688 -1331 1869 -1331 
Q 1566 -1331 1297 -1286 
Q 1028 -1241 775 -1147 
L 775 -588 
Q 1028 -725 1275 -790 
Q 1522 -856 1778 -856 
Q 2344 -856 2625 -561 
Q 2906 -266 2906 331 
L 2906 616 
Q 2728 306 2450 153 
Q 2172 0 1784 0 
Q 1141 0 747 490 
Q 353 981 353 1791 
Q 353 2603 747 3093 
Q 1141 3584 1784 3584 
Q 2172 3584 2450 3431 
Q 2728 3278 2906 2969 
L 2906 3500 
L 3481 3500 
L 3481 434 
z
" transform="scale(0.015625)"/>
          <path id="DejaVuSans-6f" d="M 1959 3097 
Q 1497 3097 1228 2736 
Q 959 2375 959 1747 
Q 959 1119 1226 758 
Q 1494 397 1959 397 
Q 2419 397 2687 759 
Q 2956 1122 2956 1747 
Q 2956 2369 2687 2733 
Q 2419 3097 1959 3097 
z
M 1959 3584 
Q 2709 3584 3137 3096 
Q 3566 2609 3566 1747 
Q 3566 888 3137 398 
Q 2709 -91 1959 -91 
Q 1206 -91 779 398 
Q 353 888 353 1747 
Q 353 2609 779 3096 
Q 1206 3584 1959 3584 
z
" transform="scale(0.015625)"/>
          <path id="DejaVuSans-28" d="M 1984 4856 
Q 1566 4138 1362 3434 
Q 1159 2731 1159 2009 
Q 1159 1288 1364 580 
Q 1569 -128 1984 -844 
L 1484 -844 
Q 1016 -109 783 600 
Q 550 1309 550 2009 
Q 550 2706 781 3412 
Q 1013 4119 1484 4856 
L 1984 4856 
z
" transform="scale(0.015625)"/>
          <path id="DejaVuSans-79" d="M 2059 -325 
Q 1816 -950 1584 -1140 
Q 1353 -1331 966 -1331 
L 506 -1331 
L 506 -850 
L 844 -850 
Q 1081 -850 1212 -737 
Q 1344 -625 1503 -206 
L 1606 56 
L 191 3500 
L 800 3500 
L 1894 763 
L 2988 3500 
L 3597 3500 
L 2059 -325 
z
" transform="scale(0.015625)"/>
          <path id="DejaVuSans-72" d="M 2631 2963 
Q 2534 3019 2420 3045 
Q 2306 3072 2169 3072 
Q 1681 3072 1420 2755 
Q 1159 2438 1159 1844 
L 1159 0 
L 581 0 
L 581 3500 
L 1159 3500 
L 1159 2956 
Q 1341 3275 1631 3429 
Q 1922 3584 2338 3584 
Q 2397 3584 2469 3576 
Q 2541 3569 2628 3553 
L 2631 2963 
z
" transform="scale(0.015625)"/>
          <path id="DejaVuSans-73" d="M 2834 3397 
L 2834 2853 
Q 2591 2978 2328 3040 
Q 2066 3103 1784 3103 
Q 1356 3103 1142 2972 
Q 928 2841 928 2578 
Q 928 2378 1081 2264 
Q 1234 2150 1697 2047 
L 1894 2003 
Q 2506 1872 2764 1633 
Q 3022 1394 3022 966 
Q 3022 478 2636 193 
Q 2250 -91 1575 -91 
Q 1294 -91 989 -36 
Q 684 19 347 128 
L 347 722 
Q 666 556 975 473 
Q 1284 391 1588 391 
Q 1994 391 2212 530 
Q 2431 669 2431 922 
Q 2431 1156 2273 1281 
Q 2116 1406 1581 1522 
L 1381 1569 
Q 847 1681 609 1914 
Q 372 2147 372 2553 
Q 372 3047 722 3315 
Q 1072 3584 1716 3584 
Q 2034 3584 2315 3537 
Q 2597 3491 2834 3397 
z
" transform="scale(0.015625)"/>
          <path id="DejaVuSans-29" d="M 513 4856 
L 1013 4856 
Q 1481 4119 1714 3412 
Q 1947 2706 1947 2009 
Q 1947 1309 1714 600 
Q 1481 -109 1013 -844 
L 513 -844 
Q 928 -128 1133 580 
Q 1338 1288 1338 2009 
Q 1338 2731 1133 3434 
Q 928 4138 513 4856 
z
" transform="scale(0.015625)"/>
         </defs>
         <use xlink:href="#DejaVuSans-74"/>
         <use xlink:href="#DejaVuSans-69" x="39.208984"/>
         <use xlink:href="#DejaVuSans-6d" x="66.992188"/>
         <use xlink:href="#DejaVuSans-65" x="164.404297"/>
         <use xlink:href="#DejaVuSans-20" x="225.927734"/>
         <use xlink:href="#DejaVuSans-61" x="257.714844"/>
         <use xlink:href="#DejaVuSans-67" x="318.994141"/>
         <use xlink:href="#DejaVuSans-6f" x="382.470703"/>
         <use xlink:href="#DejaVuSans-20" x="443.652344"/>
         <use xlink:href="#DejaVuSans-28" x="475.439453"/>
         <use xlink:href="#DejaVuSans-79" x="514.453125"/>
         <use xlink:href="#DejaVuSans-65" x="573.632812"/>
         <use xlink:href="#DejaVuSans-61" x="635.15625"/>
         <use xlink:href="#DejaVuSans-72" x="696.435547"/>
         <use xlink:href="#DejaVuSans-73" x="737.548828"/>
         <use xlink:href="#DejaVuSans-29" x="789.648438"/>
        </g>
       </g>
      </g>
      <path d="M 257.619695 195.237952 
L 255.619695 194.237952 
L 255.619695 196.237952 
z
" clip-path="url(#p843c758a01)" style="fill: #1f77b4; fill-opacity: 0.5; stroke: #1f77b4; stroke-opacity: 0.5; stroke-linejoin: miter"/>
      <path d="M 257.619695 283.402961 
L 255.619695 282.402961 
L 255.619695 284.402961 
z
" clip-path="url(#p843c758a01)" style="fill: #1f77b4; fill-opacity: 0.5; stroke: #1f77b4; stroke-opacity: 0.5; stroke-linejoin: miter"/>
      <path d="M 257.619695 57.918089 
L 255.619695 56.918089 
L 255.619695 58.918089 
z
" clip-path="url(#p843c758a01)" style="fill: #1f77b4; fill-opacity: 0.5; stroke: #1f77b4; stroke-opacity: 0.5; stroke-linejoin: miter"/>
      <path d="M 257.619695 74.455724 
L 255.619695 73.455724 
L 255.619695 75.455724 
z
" clip-path="url(#p843c758a01)" style="fill: #1f77b4; fill-opacity: 0.5; stroke: #1f77b4; stroke-opacity: 0.5; stroke-linejoin: miter"/>
      <path d="M 257.619695 76.498246 
L 255.619695 75.498246 
L 255.619695 77.498246 
z
" clip-path="url(#p843c758a01)" style="fill: #1f77b4; fill-opacity: 0.5; stroke: #1f77b4; stroke-opacity: 0.5; stroke-linejoin: miter"/>
      <path d="M 257.619695 280.57323 
L 255.619695 279.57323 
L 255.619695 281.57323 
z
" clip-path="url(#p843c758a01)" style="fill: #1f77b4; fill-opacity: 0.5; stroke: #1f77b4; stroke-opacity: 0.5; stroke-linejoin: miter"/>
      <path d="M 257.619695 118.238233 
L 255.619695 117.238233 
L 255.619695 119.238233 
z
" clip-path="url(#p843c758a01)" style="fill: #1f77b4; fill-opacity: 0.5; stroke: #1f77b4; stroke-opacity: 0.5; stroke-linejoin: miter"/>
      <path d="M 257.619695 79.806419 
L 255.619695 78.806419 
L 255.619695 80.806419 
z
" clip-path="url(#p843c758a01)" style="fill: #1f77b4; fill-opacity: 0.5; stroke: #1f77b4; stroke-opacity: 0.5; stroke-linejoin: miter"/>
      <path d="M 257.619695 145.856139 
L 255.619695 144.856139 
L 255.619695 146.856139 
z
" clip-path="url(#p843c758a01)" style="fill: #1f77b4; fill-opacity: 0.5; stroke: #1f77b4; stroke-opacity: 0.5; stroke-linejoin: miter"/>
      <path d="M 257.619695 47.593162 
L 255.619695 46.593162 
L 255.619695 48.593162 
z
" clip-path="url(#p843c758a01)" style="fill: #1f77b4; fill-opacity: 0.5; stroke: #1f77b4; stroke-opacity: 0.5; stroke-linejoin: miter"/>
      <path d="M 199.299443 124.685648 
L 201.299443 125.685648 
L 201.299443 123.685648 
z
" clip-path="url(#p843c758a01)" style="fill: #ff7f0e; fill-opacity: 0.5; stroke: #ff7f0e; stroke-opacity: 0.5; stroke-linejoin: miter"/>
      <path d="M 199.299443 187.427091 
L 201.299443 188.427091 
L 201.299443 186.427091 
z
" clip-path="url(#p843c758a01)" style="fill: #ff7f0e; fill-opacity: 0.5; stroke: #ff7f0e; stroke-opacity: 0.5; stroke-linejoin: miter"/>
      <path d="M 199.299443 148.397361 
L 201.299443 149.397361 
L 201.299443 147.397361 
z
" clip-path="url(#p843c758a01)" style="fill: #ff7f0e; fill-opacity: 0.5; stroke: #ff7f0e; stroke-opacity: 0.5; stroke-linejoin: miter"/>
      <path d="M 199.299443 118.95245 
L 201.299443 119.95245 
L 201.299443 117.95245 
z
" clip-path="url(#p843c758a01)" style="fill: #ff7f0e; fill-opacity: 0.5; stroke: #ff7f0e; stroke-opacity: 0.5; stroke-linejoin: miter"/>
      <path d="M 199.299443 233.358928 
L 201.299443 234.358928 
L 201.299443 232.358928 
z
" clip-path="url(#p843c758a01)" style="fill: #ff7f0e; fill-opacity: 0.5; stroke: #ff7f0e; stroke-opacity: 0.5; stroke-linejoin: miter"/>
      <path d="M 199.299443 267.271688 
L 201.299443 268.271688 
L 201.299443 266.271688 
z
" clip-path="url(#p843c758a01)" style="fill: #ff7f0e; fill-opacity: 0.5; stroke: #ff7f0e; stroke-opacity: 0.5; stroke-linejoin: miter"/>
      <path d="M 199.299443 154.402149 
L 201.299443 155.402149 
L 201.299443 153.402149 
z
" clip-path="url(#p843c758a01)" style="fill: #ff7f0e; fill-opacity: 0.5; stroke: #ff7f0e; stroke-opacity: 0.5; stroke-linejoin: miter"/>
      <path d="M 199.299443 155.235119 
L 201.299443 156.235119 
L 201.299443 154.235119 
z
" clip-path="url(#p843c758a01)" style="fill: #ff7f0e; fill-opacity: 0.5; stroke: #ff7f0e; stroke-opacity: 0.5; stroke-linejoin: miter"/>
      <path d="M 199.299443 141.434408 
L 201.299443 142.434408 
L 201.299443 140.434408 
z
" clip-path="url(#p843c758a01)" style="fill: #ff7f0e; fill-opacity: 0.5; stroke: #ff7f0e; stroke-opacity: 0.5; stroke-linejoin: miter"/>
      <path d="M 199.299443 215.110845 
L 201.299443 216.110845 
L 201.299443 214.110845 
z
" clip-path="url(#p843c758a01)" style="fill: #ff7f0e; fill-opacity: 0.5; stroke: #ff7f0e; stroke-opacity: 0.5; stroke-linejoin: miter"/>
      <path d="M 447.666182 40.712387 
L 445.666182 39.712387 
L 445.666182 41.712387 
z
" clip-path="url(#p843c758a01)" style="fill: #ff7f0e; fill-opacity: 0.5; stroke: #ff7f0e; stroke-opacity: 0.5; stroke-linejoin: miter"/>
      <path d="M 447.666182 188.329342 
L 445.666182 187.329342 
L 445.666182 189.329342 
z
" clip-path="url(#p843c758a01)" style="fill: #ff7f0e; fill-opacity: 0.5; stroke: #ff7f0e; stroke-opacity: 0.5; stroke-linejoin: miter"/>
      <path d="M 447.666182 291.269043 
L 445.666182 290.269043 
L 445.666182 292.269043 
z
" clip-path="url(#p843c758a01)" style="fill: #ff7f0e; fill-opacity: 0.5; stroke: #ff7f0e; stroke-opacity: 0.5; stroke-linejoin: miter"/>
      <path d="M 447.666182 47.040538 
L 445.666182 46.040538 
L 445.666182 48.040538 
z
" clip-path="url(#p843c758a01)" style="fill: #ff7f0e; fill-opacity: 0.5; stroke: #ff7f0e; stroke-opacity: 0.5; stroke-linejoin: miter"/>
      <path d="M 447.666182 22.924226 
L 445.666182 21.924226 
L 445.666182 23.924226 
z
" clip-path="url(#p843c758a01)" style="fill: #ff7f0e; fill-opacity: 0.5; stroke: #ff7f0e; stroke-opacity: 0.5; stroke-linejoin: miter"/>
      <path d="M 447.666182 262.654908 
L 445.666182 261.654908 
L 445.666182 263.654908 
z
" clip-path="url(#p843c758a01)" style="fill: #ff7f0e; fill-opacity: 0.5; stroke: #ff7f0e; stroke-opacity: 0.5; stroke-linejoin: miter"/>
      <path d="M 447.666182 220.084761 
L 445.666182 219.084761 
L 445.666182 221.084761 
z
" clip-path="url(#p843c758a01)" style="fill: #ff7f0e; fill-opacity: 0.5; stroke: #ff7f0e; stroke-opacity: 0.5; stroke-linejoin: miter"/>
      <path d="M 447.666182 65.486195 
L 445.666182 64.486195 
L 445.666182 66.486195 
z
" clip-path="url(#p843c758a01)" style="fill: #ff7f0e; fill-opacity: 0.5; stroke: #ff7f0e; stroke-opacity: 0.5; stroke-linejoin: miter"/>
      <path d="M 447.666182 298.24885 
L 445.666182 297.24885 
L 445.666182 299.24885 
z
" clip-path="url(#p843c758a01)" style="fill: #ff7f0e; fill-opacity: 0.5; stroke: #ff7f0e; stroke-opacity: 0.5; stroke-linejoin: miter"/>
      <path d="M 447.666182 48.857023 
L 445.666182 47.857023 
L 445.666182 49.857023 
z
" clip-path="url(#p843c758a01)" style="fill: #ff7f0e; fill-opacity: 0.5; stroke: #ff7f0e; stroke-opacity: 0.5; stroke-linejoin: miter"/>
      <path d="M 389.34593 130.207863 
L 391.34593 131.207863 
L 391.34593 129.207863 
z
" clip-path="url(#p843c758a01)" style="fill: #2ca02c; fill-opacity: 0.5; stroke: #2ca02c; stroke-opacity: 0.5; stroke-linejoin: miter"/>
      <path d="M 389.34593 53.895873 
L 391.34593 54.895873 
L 391.34593 52.895873 
z
" clip-path="url(#p843c758a01)" style="fill: #2ca02c; fill-opacity: 0.5; stroke: #2ca02c; stroke-opacity: 0.5; stroke-linejoin: miter"/>
      <path d="M 389.34593 252.728179 
L 391.34593 253.728179 
L 391.34593 251.728179 
z
" clip-path="url(#p843c758a01)" style="fill: #2ca02c; fill-opacity: 0.5; stroke: #2ca02c; stroke-opacity: 0.5; stroke-linejoin: miter"/>
      <path d="M 389.34593 291.026591 
L 391.34593 292.026591 
L 391.34593 290.026591 
z
" clip-path="url(#p843c758a01)" style="fill: #2ca02c; fill-opacity: 0.5; stroke: #2ca02c; stroke-opacity: 0.5; stroke-linejoin: miter"/>
      <path d="M 389.34593 220.543846 
L 391.34593 221.543846 
L 391.34593 219.543846 
z
" clip-path="url(#p843c758a01)" style="fill: #2ca02c; fill-opacity: 0.5; stroke: #2ca02c; stroke-opacity: 0.5; stroke-linejoin: miter"/>
      <path d="M 389.34593 199.596571 
L 391.34593 200.596571 
L 391.34593 198.596571 
z
" clip-path="url(#p843c758a01)" style="fill: #2ca02c; fill-opacity: 0.5; stroke: #2ca02c; stroke-opacity: 0.5; stroke-linejoin: miter"/>
      <path d="M 389.34593 87.16036 
L 391.34593 88.16036 
L 391.34593 86.16036 
z
" clip-path="url(#p843c758a01)" style="fill: #2ca02c; fill-opacity: 0.5; stroke: #2ca02c; stroke-opacity: 0.5; stroke-linejoin: miter"/>
      <path d="M 389.34593 202.111222 
L 391.34593 203.111222 
L 391.34593 201.111222 
z
" clip-path="url(#p843c758a01)" style="fill: #2ca02c; fill-opacity: 0.5; stroke: #2ca02c; stroke-opacity: 0.5; stroke-linejoin: miter"/>
      <path d="M 389.34593 43.797034 
L 391.34593 44.797034 
L 391.34593 42.797034 
z
" clip-path="url(#p843c758a01)" style="fill: #2ca02c; fill-opacity: 0.5; stroke: #2ca02c; stroke-opacity: 0.5; stroke-linejoin: miter"/>
      <path d="M 389.34593 241.611694 
L 391.34593 242.611694 
L 391.34593 240.611694 
z
" clip-path="url(#p843c758a01)" style="fill: #2ca02c; fill-opacity: 0.5; stroke: #2ca02c; stroke-opacity: 0.5; stroke-linejoin: miter"/>
      <g id="patch_6">
       <path d="M 46.965625 318.021875 
L 46.965625 22.318125 
" style="fill: none; stroke: #000000; stroke-width: 0.8; stroke-linejoin: miter; stroke-linecap: square"/>
      </g>
      <g id="text_11">
       <!-- stepping_stone_model.yaml -->
       <g transform="translate(239.443437 16.318125) scale(0.12 -0.12)">
        <defs>
         <path id="DejaVuSans-70" d="M 1159 525 
L 1159 -1331 
L 581 -1331 
L 581 3500 
L 1159 3500 
L 1159 2969 
Q 1341 3281 1617 3432 
Q 1894 3584 2278 3584 
Q 2916 3584 3314 3078 
Q 3713 2572 3713 1747 
Q 3713 922 3314 415 
Q 2916 -91 2278 -91 
Q 1894 -91 1617 61 
Q 1341 213 1159 525 
z
M 3116 1747 
Q 3116 2381 2855 2742 
Q 2594 3103 2138 3103 
Q 1681 3103 1420 2742 
Q 1159 2381 1159 1747 
Q 1159 1113 1420 752 
Q 1681 391 2138 391 
Q 2594 391 2855 752 
Q 3116 1113 3116 1747 
z
" transform="scale(0.015625)"/>
         <path id="DejaVuSans-6e" d="M 3513 2113 
L 3513 0 
L 2938 0 
L 2938 2094 
Q 2938 2591 2744 2837 
Q 2550 3084 2163 3084 
Q 1697 3084 1428 2787 
Q 1159 2491 1159 1978 
L 1159 0 
L 581 0 
L 581 3500 
L 1159 3500 
L 1159 2956 
Q 1366 3272 1645 3428 
Q 1925 3584 2291 3584 
Q 2894 3584 3203 3211 
Q 3513 2838 3513 2113 
z
" transform="scale(0.015625)"/>
         <path id="DejaVuSans-5f" d="M 3263 -1063 
L 3263 -1509 
L -63 -1509 
L -63 -1063 
L 3263 -1063 
z
" transform="scale(0.015625)"/>
         <path id="DejaVuSans-6c" d="M 603 4863 
L 1178 4863 
L 1178 0 
L 603 0 
L 603 4863 
z
" transform="scale(0.015625)"/>
         <path id="DejaVuSans-2e" d="M 684 794 
L 1344 794 
L 1344 0 
L 684 0 
L 684 794 
z
" transform="scale(0.015625)"/>
        </defs>
        <use xlink:href="#DejaVuSans-73"/>
        <use xlink:href="#DejaVuSans-74" x="52.099609"/>
        <use xlink:href="#DejaVuSans-65" x="91.308594"/>
        <use xlink:href="#DejaVuSans-70" x="152.832031"/>
        <use xlink:href="#DejaVuSans-70" x="216.308594"/>
        <use xlink:href="#DejaVuSans-69" x="279.785156"/>
        <use xlink:href="#DejaVuSans-6e" x="307.568359"/>
        <use xlink:href="#DejaVuSans-67" x="370.947266"/>
        <use xlink:href="#DejaVuSans-5f" x="434.423828"/>
        <use xlink:href="#DejaVuSans-73" x="484.423828"/>
        <use xlink:href="#DejaVuSans-74" x="536.523438"/>
        <use xlink:href="#DejaVuSans-6f" x="575.732422"/>
        <use xlink:href="#DejaVuSans-6e" x="636.914062"/>
        <use xlink:href="#DejaVuSans-65" x="700.292969"/>
        <use xlink:href="#DejaVuSans-5f" x="761.816406"/>
        <use xlink:href="#DejaVuSans-6d" x="811.816406"/>
        <use xlink:href="#DejaVuSans-6f" x="909.228516"/>
        <use xlink:href="#DejaVuSans-64" x="970.410156"/>
        <use xlink:href="#DejaVuSans-65" x="1033.886719"/>
        <use xlink:href="#DejaVuSans-6c" x="1095.410156"/>
        <use xlink:href="#DejaVuSans-2e" x="1123.193359"/>
        <use xlink:href="#DejaVuSans-79" x="1154.980469"/>
        <use xlink:href="#DejaVuSans-61" x="1214.160156"/>
        <use xlink:href="#DejaVuSans-6d" x="1275.439453"/>
        <use xlink:href="#DejaVuSans-6c" x="1372.851562"/>
       </g>
      </g>
     </g>
    </g>
    <defs>
     <clipPath id="p843c758a01">
      <rect x="46.965625" y="22.318125" width="553.034375" height="295.70375"/>
     </clipPath>
    </defs>
   </g>
  </g>
 </g>
</svg>
