<?xml version="1.0" encoding="utf-8" standalone="no"?>
<!DOCTYPE svg PUBLIC "-//W3C//DTD SVG 1.1//EN"
  "http://www.w3.org/Graphics/SVG/1.1/DTD/svg11.dtd">
<svg xmlns:xlink="http://www.w3.org/1999/xlink" width="504.8pt" height="280.8pt" viewBox="0 0 504.8 280.8" xmlns="http://www.w3.org/2000/svg" version="1.1">
 <metadata>
  <rdf:RDF xmlns:dc="http://purl.org/dc/elements/1.1/" xmlns:cc="http://creativecommons.org/ns#" xmlns:rdf="http://www.w3.org/1999/02/22-rdf-syntax-ns#">
   <cc:Work>
    <dc:type rdf:resource="http://purl.org/dc/dcmitype/StillImage"/>
    <dc:date>2022-07-11T08:24:40.711418</dc:date>
    <dc:format>image/svg+xml</dc:format>
    <dc:creator>
     <cc:Agent>
      <dc:title>Matplotlib v3.5.2, https://matplotlib.org/</dc:title>
     </cc:Agent>
    </dc:creator>
   </cc:Work>
  </rdf:RDF>
 </metadata>
 <defs>
  <style type="text/css">*{stroke-linejoin: round; stroke-linecap: butt}</style>
 </defs>
 <g id="figure_1">
  <g id="patch_1">
   <path d="M 0 280.8 
L 504.8 280.8 
L 504.8 0 
L 0 0 
L 0 280.8 
z
" style="fill: none"/>
  </g>
  <g id="axes_1">
   <g id="patch_2">
    <path d="M 43.78125 260.421875 
L 497.6 260.421875 
L 497.6 22.318125 
L 43.78125 22.318125 
z
" style="fill: #ffffff"/>
   </g>
   <path d="M 169.606632 108.147824 
L 170.606632 108.17926 
L 171.606632 108.216201 
L 172.606632 108.313947 
L 173.606632 108.346469 
L 174.606632 108.420094 
L 175.606632 108.458659 
L 176.606632 108.494072 
L 177.606632 108.551712 
L 178.606632 108.622099 
L 179.606632 108.674063 
L 180.606632 108.733152 
L 181.606632 108.821473 
L 182.606632 108.867618 
L 183.606632 108.910029 
L 184.606632 108.940521 
L 185.606632 108.966566 
L 186.606632 108.987766 
L 187.606632 109.042067 
L 188.606632 109.070005 
L 189.606632 109.099729 
L 190.606632 109.125124 
L 191.606632 109.136324 
L 192.606632 109.146448 
L 193.606632 109.146244 
L 194.606632 109.136734 
L 195.606632 109.12508 
L 196.606632 109.094051 
L 197.606632 109.082883 
L 198.606632 109.052766 
L 199.606632 108.992989 
L 200.606632 108.955797 
L 201.606632 108.916701 
L 202.606632 108.874261 
L 203.606632 108.841496 
L 204.606632 108.77407 
L 205.606632 108.734944 
L 206.606632 108.692269 
L 207.606632 108.621689 
L 208.606632 108.585298 
L 209.606632 108.526895 
L 210.606632 108.415942 
L 211.606632 108.345284 
L 212.606632 108.232344 
L 213.606632 108.186571 
L 214.606632 108.125288 
L 215.822903 108.076789 
" clip-path="url(#p93a361a28c)" style="fill: none; stroke: #1f77b4; stroke-opacity: 0.5; stroke-width: 0.2; stroke-linecap: square"/>
   <path d="M 169.606632 118.784657 
L 170.606632 118.816093 
L 171.606632 118.853033 
L 172.606632 118.95078 
L 173.606632 118.983302 
L 174.606632 119.056926 
L 175.606632 119.095492 
L 176.606632 119.130905 
L 177.606632 119.188545 
L 178.606632 119.258931 
L 179.606632 119.310895 
L 180.606632 119.369985 
L 181.606632 119.458306 
L 182.606632 119.50445 
L 183.606632 119.546861 
L 184.606632 119.577354 
L 185.606632 119.603399 
L 186.606632 119.624599 
L 187.606632 119.6789 
L 188.606632 119.706838 
L 189.606632 119.736562 
L 190.606632 119.761956 
L 191.606632 119.773157 
L 192.606632 119.783281 
L 193.606632 119.783077 
L 194.606632 119.773567 
L 195.606632 119.761913 
L 196.606632 119.730884 
L 197.606632 119.719716 
L 198.606632 119.689598 
L 199.606632 119.629821 
L 200.606632 119.59263 
L 201.606632 119.553534 
L 202.606632 119.511094 
L 203.606632 119.478329 
L 204.606632 119.410903 
L 205.606632 119.371777 
L 206.606632 119.329102 
L 207.606632 119.258522 
L 208.606632 119.222131 
L 209.606632 119.163728 
L 210.606632 119.052775 
L 211.606632 118.982117 
L 212.606632 118.869177 
L 213.606632 118.823404 
L 214.606632 118.762121 
L 215.822903 118.713621 
" clip-path="url(#p93a361a28c)" style="fill: none; stroke: #1f77b4; stroke-opacity: 0.5; stroke-width: 0.2; stroke-linecap: square"/>
   <path d="M 169.606632 146.017788 
L 170.606632 146.049224 
L 171.606632 146.086165 
L 172.606632 146.183911 
L 173.606632 146.216433 
L 174.606632 146.290058 
L 175.606632 146.328623 
L 176.606632 146.364036 
L 177.606632 146.421676 
L 178.606632 146.492063 
L 179.606632 146.544027 
L 180.606632 146.603117 
L 181.606632 146.691438 
L 182.606632 146.737582 
L 183.606632 146.779993 
L 184.606632 146.810485 
L 185.606632 146.83653 
L 186.606632 146.85773 
L 187.606632 146.912032 
L 188.606632 146.939969 
L 189.606632 146.969693 
L 190.606632 146.995088 
L 191.606632 147.006288 
L 192.606632 147.016412 
L 193.606632 147.016208 
L 194.606632 147.006698 
L 195.606632 146.995044 
L 196.606632 146.964015 
L 197.606632 146.952847 
L 198.606632 146.92273 
L 199.606632 146.862953 
L 200.606632 146.825761 
L 201.606632 146.786665 
L 202.606632 146.744226 
L 203.606632 146.71146 
L 204.606632 146.644034 
L 205.606632 146.604908 
L 206.606632 146.562234 
L 207.606632 146.491653 
L 208.606632 146.455262 
L 209.606632 146.396859 
L 210.606632 146.285906 
L 211.606632 146.215248 
L 212.606632 146.102308 
L 213.606632 146.056535 
L 214.606632 145.995252 
L 215.822903 145.946753 
" clip-path="url(#p93a361a28c)" style="fill: none; stroke: #1f77b4; stroke-opacity: 0.5; stroke-width: 0.2; stroke-linecap: square"/>
   <path d="M 169.606632 84.518948 
L 170.606632 84.550385 
L 171.606632 84.587325 
L 172.606632 84.685072 
L 173.606632 84.717593 
L 174.606632 84.791218 
L 175.606632 84.829784 
L 176.606632 84.865197 
L 177.606632 84.922837 
L 178.606632 84.993223 
L 179.606632 85.045187 
L 180.606632 85.104277 
L 181.606632 85.192598 
L 182.606632 85.238742 
L 183.606632 85.281153 
L 184.606632 85.311646 
L 185.606632 85.337691 
L 186.606632 85.358891 
L 187.606632 85.413192 
L 188.606632 85.441129 
L 189.606632 85.470853 
L 190.606632 85.496248 
L 191.606632 85.507449 
L 192.606632 85.517573 
L 193.606632 85.517368 
L 194.606632 85.507858 
L 195.606632 85.496205 
L 196.606632 85.465176 
L 197.606632 85.454008 
L 198.606632 85.42389 
L 199.606632 85.364113 
L 200.606632 85.326922 
L 201.606632 85.287825 
L 202.606632 85.245386 
L 203.606632 85.212621 
L 204.606632 85.145194 
L 205.606632 85.106068 
L 206.606632 85.063394 
L 207.606632 84.992813 
L 208.606632 84.956422 
L 209.606632 84.898019 
L 210.606632 84.787067 
L 211.606632 84.716408 
L 212.606632 84.603468 
L 213.606632 84.557696 
L 214.606632 84.496412 
L 215.822903 84.447913 
" clip-path="url(#p93a361a28c)" style="fill: none; stroke: #1f77b4; stroke-opacity: 0.5; stroke-width: 0.2; stroke-linecap: square"/>
   <path d="M 169.606632 157.437789 
L 170.606632 157.469226 
L 171.606632 157.506166 
L 172.606632 157.603913 
L 173.606632 157.636434 
L 174.606632 157.710059 
L 175.606632 157.748624 
L 176.606632 157.784038 
L 177.606632 157.841678 
L 178.606632 157.912064 
L 179.606632 157.964028 
L 180.606632 158.023118 
L 181.606632 158.111439 
L 182.606632 158.157583 
L 183.606632 158.199994 
L 184.606632 158.230487 
L 185.606632 158.256532 
L 186.606632 158.277732 
L 187.606632 158.332033 
L 188.606632 158.35997 
L 189.606632 158.389694 
L 190.606632 158.415089 
L 191.606632 158.426289 
L 192.606632 158.436413 
L 193.606632 158.436209 
L 194.606632 158.426699 
L 195.606632 158.415046 
L 196.606632 158.384016 
L 197.606632 158.372848 
L 198.606632 158.342731 
L 199.606632 158.282954 
L 200.606632 158.245762 
L 201.606632 158.206666 
L 202.606632 158.164227 
L 203.606632 158.131462 
L 204.606632 158.064035 
L 205.606632 158.024909 
L 206.606632 157.982235 
L 207.606632 157.911654 
L 208.606632 157.875263 
L 209.606632 157.81686 
L 210.606632 157.705907 
L 211.606632 157.635249 
L 212.606632 157.522309 
L 213.606632 157.476536 
L 214.606632 157.415253 
L 215.822903 157.366754 
" clip-path="url(#p93a361a28c)" style="fill: none; stroke: #1f77b4; stroke-opacity: 0.5; stroke-width: 0.2; stroke-linecap: square"/>
   <path d="M 169.606632 94.490495 
L 170.606632 94.521932 
L 171.606632 94.558872 
L 172.606632 94.656619 
L 173.606632 94.68914 
L 174.606632 94.762765 
L 175.606632 94.80133 
L 176.606632 94.836744 
L 177.606632 94.894384 
L 178.606632 94.96477 
L 179.606632 95.016734 
L 180.606632 95.075824 
L 181.606632 95.164145 
L 182.606632 95.210289 
L 183.606632 95.2527 
L 184.606632 95.283193 
L 185.606632 95.309238 
L 186.606632 95.330438 
L 187.606632 95.384739 
L 188.606632 95.412676 
L 189.606632 95.4424 
L 190.606632 95.467795 
L 191.606632 95.478995 
L 192.606632 95.489119 
L 193.606632 95.488915 
L 194.606632 95.479405 
L 195.606632 95.467752 
L 196.606632 95.436722 
L 197.606632 95.425554 
L 198.606632 95.395437 
L 199.606632 95.33566 
L 200.606632 95.298468 
L 201.606632 95.259372 
L 202.606632 95.216933 
L 203.606632 95.184168 
L 204.606632 95.116741 
L 205.606632 95.077615 
L 206.606632 95.034941 
L 207.606632 94.96436 
L 208.606632 94.927969 
L 209.606632 94.869566 
L 210.606632 94.758613 
L 211.606632 94.687955 
L 212.606632 94.575015 
L 213.606632 94.529242 
L 214.606632 94.467959 
L 215.822903 94.41946 
" clip-path="url(#p93a361a28c)" style="fill: none; stroke: #1f77b4; stroke-opacity: 0.5; stroke-width: 0.2; stroke-linecap: square"/>
   <path d="M 169.606632 111.576996 
L 170.606632 111.608432 
L 171.606632 111.645373 
L 172.606632 111.743119 
L 173.606632 111.775641 
L 174.606632 111.849265 
L 175.606632 111.887831 
L 176.606632 111.923244 
L 177.606632 111.980884 
L 178.606632 112.05127 
L 179.606632 112.103235 
L 180.606632 112.162324 
L 181.606632 112.250645 
L 182.606632 112.29679 
L 183.606632 112.3392 
L 184.606632 112.369693 
L 185.606632 112.395738 
L 186.606632 112.416938 
L 187.606632 112.471239 
L 188.606632 112.499177 
L 189.606632 112.528901 
L 190.606632 112.554296 
L 191.606632 112.565496 
L 192.606632 112.57562 
L 193.606632 112.575416 
L 194.606632 112.565906 
L 195.606632 112.554252 
L 196.606632 112.523223 
L 197.606632 112.512055 
L 198.606632 112.481937 
L 199.606632 112.422161 
L 200.606632 112.384969 
L 201.606632 112.345873 
L 202.606632 112.303433 
L 203.606632 112.270668 
L 204.606632 112.203242 
L 205.606632 112.164116 
L 206.606632 112.121441 
L 207.606632 112.050861 
L 208.606632 112.01447 
L 209.606632 111.956067 
L 210.606632 111.845114 
L 211.606632 111.774456 
L 212.606632 111.661516 
L 213.606632 111.615743 
L 214.606632 111.55446 
L 215.822903 111.50596 
" clip-path="url(#p93a361a28c)" style="fill: none; stroke: #1f77b4; stroke-opacity: 0.5; stroke-width: 0.2; stroke-linecap: square"/>
   <path d="M 169.606632 96.157554 
L 170.606632 96.18899 
L 171.606632 96.22593 
L 172.606632 96.323677 
L 173.606632 96.356198 
L 174.606632 96.429823 
L 175.606632 96.468389 
L 176.606632 96.503802 
L 177.606632 96.561442 
L 178.606632 96.631828 
L 179.606632 96.683792 
L 180.606632 96.742882 
L 181.606632 96.831203 
L 182.606632 96.877347 
L 183.606632 96.919758 
L 184.606632 96.950251 
L 185.606632 96.976296 
L 186.606632 96.997496 
L 187.606632 97.051797 
L 188.606632 97.079735 
L 189.606632 97.109459 
L 190.606632 97.134853 
L 191.606632 97.146054 
L 192.606632 97.156178 
L 193.606632 97.155973 
L 194.606632 97.146464 
L 195.606632 97.13481 
L 196.606632 97.103781 
L 197.606632 97.092613 
L 198.606632 97.062495 
L 199.606632 97.002718 
L 200.606632 96.965527 
L 201.606632 96.926431 
L 202.606632 96.883991 
L 203.606632 96.851226 
L 204.606632 96.783799 
L 205.606632 96.744674 
L 206.606632 96.701999 
L 207.606632 96.631418 
L 208.606632 96.595028 
L 209.606632 96.536624 
L 210.606632 96.425672 
L 211.606632 96.355013 
L 212.606632 96.242074 
L 213.606632 96.196301 
L 214.606632 96.135018 
L 215.822903 96.086518 
" clip-path="url(#p93a361a28c)" style="fill: none; stroke: #1f77b4; stroke-opacity: 0.5; stroke-width: 0.2; stroke-linecap: square"/>
   <path d="M 169.606632 86.882013 
L 170.606632 86.91345 
L 171.606632 86.95039 
L 172.606632 87.048137 
L 173.606632 87.080658 
L 174.606632 87.154283 
L 175.606632 87.192849 
L 176.606632 87.228262 
L 177.606632 87.285902 
L 178.606632 87.356288 
L 179.606632 87.408252 
L 180.606632 87.467342 
L 181.606632 87.555663 
L 182.606632 87.601807 
L 183.606632 87.644218 
L 184.606632 87.674711 
L 185.606632 87.700756 
L 186.606632 87.721956 
L 187.606632 87.776257 
L 188.606632 87.804194 
L 189.606632 87.833918 
L 190.606632 87.859313 
L 191.606632 87.870514 
L 192.606632 87.880638 
L 193.606632 87.880433 
L 194.606632 87.870923 
L 195.606632 87.85927 
L 196.606632 87.828241 
L 197.606632 87.817073 
L 198.606632 87.786955 
L 199.606632 87.727178 
L 200.606632 87.689987 
L 201.606632 87.650891 
L 202.606632 87.608451 
L 203.606632 87.575686 
L 204.606632 87.508259 
L 205.606632 87.469133 
L 206.606632 87.426459 
L 207.606632 87.355878 
L 208.606632 87.319487 
L 209.606632 87.261084 
L 210.606632 87.150132 
L 211.606632 87.079473 
L 212.606632 86.966533 
L 213.606632 86.920761 
L 214.606632 86.859477 
L 215.822903 86.810978 
" clip-path="url(#p93a361a28c)" style="fill: none; stroke: #1f77b4; stroke-opacity: 0.5; stroke-width: 0.2; stroke-linecap: square"/>
   <path d="M 169.606632 120.121319 
L 170.606632 120.152756 
L 171.606632 120.189696 
L 172.606632 120.287443 
L 173.606632 120.319964 
L 174.606632 120.393589 
L 175.606632 120.432155 
L 176.606632 120.467568 
L 177.606632 120.525208 
L 178.606632 120.595594 
L 179.606632 120.647558 
L 180.606632 120.706648 
L 181.606632 120.794969 
L 182.606632 120.841113 
L 183.606632 120.883524 
L 184.606632 120.914017 
L 185.606632 120.940062 
L 186.606632 120.961262 
L 187.606632 121.015563 
L 188.606632 121.0435 
L 189.606632 121.073224 
L 190.606632 121.098619 
L 191.606632 121.10982 
L 192.606632 121.119943 
L 193.606632 121.119739 
L 194.606632 121.110229 
L 195.606632 121.098576 
L 196.606632 121.067546 
L 197.606632 121.056379 
L 198.606632 121.026261 
L 199.606632 120.966484 
L 200.606632 120.929293 
L 201.606632 120.890196 
L 202.606632 120.847757 
L 203.606632 120.814992 
L 204.606632 120.747565 
L 205.606632 120.708439 
L 206.606632 120.665765 
L 207.606632 120.595184 
L 208.606632 120.558793 
L 209.606632 120.50039 
L 210.606632 120.389438 
L 211.606632 120.318779 
L 212.606632 120.205839 
L 213.606632 120.160067 
L 214.606632 120.098783 
L 215.822903 120.050284 
" clip-path="url(#p93a361a28c)" style="fill: none; stroke: #1f77b4; stroke-opacity: 0.5; stroke-width: 0.2; stroke-linecap: square"/>
   <path d="M 325.558347 158.548623 
L 326.558347 158.580059 
L 327.558347 158.617 
L 328.558347 158.714746 
L 329.558347 158.747268 
L 330.558347 158.820892 
L 331.558347 158.859458 
L 332.558347 158.894871 
L 333.558347 158.952511 
L 334.558347 159.022897 
L 335.558347 159.074861 
L 336.558347 159.133951 
L 337.558347 159.222272 
L 338.558347 159.268416 
L 339.558347 159.310827 
L 340.558347 159.34132 
L 341.558347 159.367365 
L 342.558347 159.388565 
L 343.558347 159.442866 
L 344.558347 159.470804 
L 345.558347 159.500528 
L 346.558347 159.525923 
L 347.558347 159.537123 
L 348.558347 159.547247 
L 349.558347 159.547043 
L 350.558347 159.537533 
L 351.558347 159.525879 
L 352.558347 159.49485 
L 353.558347 159.483682 
L 354.558347 159.453564 
L 355.558347 159.393787 
L 356.558347 159.356596 
L 357.558347 159.3175 
L 358.558347 159.27506 
L 359.558347 159.242295 
L 360.558347 159.174869 
L 361.558347 159.135743 
L 362.558347 159.093068 
L 363.558347 159.022488 
L 364.558347 158.986097 
L 365.558347 158.927694 
L 366.558347 158.816741 
L 367.558347 158.746083 
L 368.558347 158.633143 
L 369.558347 158.58737 
L 370.558347 158.526087 
L 371.774618 158.477587 
" clip-path="url(#p93a361a28c)" style="fill: none; stroke: #ff7f0e; stroke-opacity: 0.5; stroke-width: 0.2; stroke-linecap: square"/>
   <path d="M 325.558347 90.791919 
L 326.558347 90.823355 
L 327.558347 90.860295 
L 328.558347 90.958042 
L 329.558347 90.990564 
L 330.558347 91.064188 
L 331.558347 91.102754 
L 332.558347 91.138167 
L 333.558347 91.195807 
L 334.558347 91.266193 
L 335.558347 91.318157 
L 336.558347 91.377247 
L 337.558347 91.465568 
L 338.558347 91.511712 
L 339.558347 91.554123 
L 340.558347 91.584616 
L 341.558347 91.610661 
L 342.558347 91.631861 
L 343.558347 91.686162 
L 344.558347 91.7141 
L 345.558347 91.743824 
L 346.558347 91.769218 
L 347.558347 91.780419 
L 348.558347 91.790543 
L 349.558347 91.790338 
L 350.558347 91.780829 
L 351.558347 91.769175 
L 352.558347 91.738146 
L 353.558347 91.726978 
L 354.558347 91.69686 
L 355.558347 91.637083 
L 356.558347 91.599892 
L 357.558347 91.560796 
L 358.558347 91.518356 
L 359.558347 91.485591 
L 360.558347 91.418165 
L 361.558347 91.379039 
L 362.558347 91.336364 
L 363.558347 91.265783 
L 364.558347 91.229393 
L 365.558347 91.170989 
L 366.558347 91.060037 
L 367.558347 90.989379 
L 368.558347 90.876439 
L 369.558347 90.830666 
L 370.558347 90.769383 
L 371.774618 90.720883 
" clip-path="url(#p93a361a28c)" style="fill: none; stroke: #ff7f0e; stroke-opacity: 0.5; stroke-width: 0.2; stroke-linecap: square"/>
   <path d="M 325.558347 70.720495 
L 326.558347 70.751931 
L 327.558347 70.788872 
L 328.558347 70.886618 
L 329.558347 70.91914 
L 330.558347 70.992764 
L 331.558347 71.03133 
L 332.558347 71.066743 
L 333.558347 71.124383 
L 334.558347 71.194769 
L 335.558347 71.246733 
L 336.558347 71.305823 
L 337.558347 71.394144 
L 338.558347 71.440288 
L 339.558347 71.482699 
L 340.558347 71.513192 
L 341.558347 71.539237 
L 342.558347 71.560437 
L 343.558347 71.614738 
L 344.558347 71.642676 
L 345.558347 71.6724 
L 346.558347 71.697795 
L 347.558347 71.708995 
L 348.558347 71.719119 
L 349.558347 71.718915 
L 350.558347 71.709405 
L 351.558347 71.697751 
L 352.558347 71.666722 
L 353.558347 71.655554 
L 354.558347 71.625436 
L 355.558347 71.565659 
L 356.558347 71.528468 
L 357.558347 71.489372 
L 358.558347 71.446932 
L 359.558347 71.414167 
L 360.558347 71.346741 
L 361.558347 71.307615 
L 362.558347 71.26494 
L 363.558347 71.19436 
L 364.558347 71.157969 
L 365.558347 71.099566 
L 366.558347 70.988613 
L 367.558347 70.917955 
L 368.558347 70.805015 
L 369.558347 70.759242 
L 370.558347 70.697959 
L 371.774618 70.649459 
" clip-path="url(#p93a361a28c)" style="fill: none; stroke: #ff7f0e; stroke-opacity: 0.5; stroke-width: 0.2; stroke-linecap: square"/>
   <path d="M 325.558347 79.911651 
L 326.558347 79.943088 
L 327.558347 79.980028 
L 328.558347 80.077775 
L 329.558347 80.110296 
L 330.558347 80.183921 
L 331.558347 80.222486 
L 332.558347 80.2579 
L 333.558347 80.31554 
L 334.558347 80.385926 
L 335.558347 80.43789 
L 336.558347 80.49698 
L 337.558347 80.585301 
L 338.558347 80.631445 
L 339.558347 80.673856 
L 340.558347 80.704349 
L 341.558347 80.730394 
L 342.558347 80.751594 
L 343.558347 80.805895 
L 344.558347 80.833832 
L 345.558347 80.863556 
L 346.558347 80.888951 
L 347.558347 80.900151 
L 348.558347 80.910275 
L 349.558347 80.910071 
L 350.558347 80.900561 
L 351.558347 80.888908 
L 352.558347 80.857878 
L 353.558347 80.84671 
L 354.558347 80.816593 
L 355.558347 80.756816 
L 356.558347 80.719624 
L 357.558347 80.680528 
L 358.558347 80.638089 
L 359.558347 80.605324 
L 360.558347 80.537897 
L 361.558347 80.498771 
L 362.558347 80.456097 
L 363.558347 80.385516 
L 364.558347 80.349125 
L 365.558347 80.290722 
L 366.558347 80.179769 
L 367.558347 80.109111 
L 368.558347 79.996171 
L 369.558347 79.950398 
L 370.558347 79.889115 
L 371.774618 79.840616 
" clip-path="url(#p93a361a28c)" style="fill: none; stroke: #ff7f0e; stroke-opacity: 0.5; stroke-width: 0.2; stroke-linecap: square"/>
   <path d="M 325.558347 153.379431 
L 326.558347 153.410867 
L 327.558347 153.447808 
L 328.558347 153.545554 
L 329.558347 153.578076 
L 330.558347 153.651701 
L 331.558347 153.690266 
L 332.558347 153.725679 
L 333.558347 153.783319 
L 334.558347 153.853705 
L 335.558347 153.90567 
L 336.558347 153.964759 
L 337.558347 154.05308 
L 338.558347 154.099225 
L 339.558347 154.141636 
L 340.558347 154.172128 
L 341.558347 154.198173 
L 342.558347 154.219373 
L 343.558347 154.273674 
L 344.558347 154.301612 
L 345.558347 154.331336 
L 346.558347 154.356731 
L 347.558347 154.367931 
L 348.558347 154.378055 
L 349.558347 154.377851 
L 350.558347 154.368341 
L 351.558347 154.356687 
L 352.558347 154.325658 
L 353.558347 154.31449 
L 354.558347 154.284373 
L 355.558347 154.224596 
L 356.558347 154.187404 
L 357.558347 154.148308 
L 358.558347 154.105868 
L 359.558347 154.073103 
L 360.558347 154.005677 
L 361.558347 153.966551 
L 362.558347 153.923876 
L 363.558347 153.853296 
L 364.558347 153.816905 
L 365.558347 153.758502 
L 366.558347 153.647549 
L 367.558347 153.576891 
L 368.558347 153.463951 
L 369.558347 153.418178 
L 370.558347 153.356895 
L 371.774618 153.308396 
" clip-path="url(#p93a361a28c)" style="fill: none; stroke: #ff7f0e; stroke-opacity: 0.5; stroke-width: 0.2; stroke-linecap: square"/>
   <path d="M 325.558347 84.014653 
L 326.558347 84.046089 
L 327.558347 84.083029 
L 328.558347 84.180776 
L 329.558347 84.213297 
L 330.558347 84.286922 
L 331.558347 84.325488 
L 332.558347 84.360901 
L 333.558347 84.418541 
L 334.558347 84.488927 
L 335.558347 84.540891 
L 336.558347 84.599981 
L 337.558347 84.688302 
L 338.558347 84.734446 
L 339.558347 84.776857 
L 340.558347 84.80735 
L 341.558347 84.833395 
L 342.558347 84.854595 
L 343.558347 84.908896 
L 344.558347 84.936834 
L 345.558347 84.966558 
L 346.558347 84.991952 
L 347.558347 85.003153 
L 348.558347 85.013277 
L 349.558347 85.013072 
L 350.558347 85.003562 
L 351.558347 84.991909 
L 352.558347 84.96088 
L 353.558347 84.949712 
L 354.558347 84.919594 
L 355.558347 84.859817 
L 356.558347 84.822626 
L 357.558347 84.78353 
L 358.558347 84.74109 
L 359.558347 84.708325 
L 360.558347 84.640898 
L 361.558347 84.601773 
L 362.558347 84.559098 
L 363.558347 84.488517 
L 364.558347 84.452127 
L 365.558347 84.393723 
L 366.558347 84.282771 
L 367.558347 84.212112 
L 368.558347 84.099173 
L 369.558347 84.0534 
L 370.558347 83.992116 
L 371.774618 83.943617 
" clip-path="url(#p93a361a28c)" style="fill: none; stroke: #ff7f0e; stroke-opacity: 0.5; stroke-width: 0.2; stroke-linecap: square"/>
   <path d="M 325.558347 118.433033 
L 326.558347 118.46447 
L 327.558347 118.50141 
L 328.558347 118.599157 
L 329.558347 118.631678 
L 330.558347 118.705303 
L 331.558347 118.743868 
L 332.558347 118.779282 
L 333.558347 118.836922 
L 334.558347 118.907308 
L 335.558347 118.959272 
L 336.558347 119.018362 
L 337.558347 119.106683 
L 338.558347 119.152827 
L 339.558347 119.195238 
L 340.558347 119.225731 
L 341.558347 119.251776 
L 342.558347 119.272976 
L 343.558347 119.327277 
L 344.558347 119.355214 
L 345.558347 119.384938 
L 346.558347 119.410333 
L 347.558347 119.421534 
L 348.558347 119.431657 
L 349.558347 119.431453 
L 350.558347 119.421943 
L 351.558347 119.41029 
L 352.558347 119.37926 
L 353.558347 119.368093 
L 354.558347 119.337975 
L 355.558347 119.278198 
L 356.558347 119.241007 
L 357.558347 119.20191 
L 358.558347 119.159471 
L 359.558347 119.126706 
L 360.558347 119.059279 
L 361.558347 119.020153 
L 362.558347 118.977479 
L 363.558347 118.906898 
L 364.558347 118.870507 
L 365.558347 118.812104 
L 366.558347 118.701152 
L 367.558347 118.630493 
L 368.558347 118.517553 
L 369.558347 118.471781 
L 370.558347 118.410497 
L 371.774618 118.361998 
" clip-path="url(#p93a361a28c)" style="fill: none; stroke: #ff7f0e; stroke-opacity: 0.5; stroke-width: 0.2; stroke-linecap: square"/>
   <path d="M 325.558347 94.814878 
L 326.558347 94.846315 
L 327.558347 94.883255 
L 328.558347 94.981001 
L 329.558347 95.013523 
L 330.558347 95.087148 
L 331.558347 95.125713 
L 332.558347 95.161126 
L 333.558347 95.218766 
L 334.558347 95.289153 
L 335.558347 95.341117 
L 336.558347 95.400207 
L 337.558347 95.488528 
L 338.558347 95.534672 
L 339.558347 95.577083 
L 340.558347 95.607575 
L 341.558347 95.63362 
L 342.558347 95.65482 
L 343.558347 95.709122 
L 344.558347 95.737059 
L 345.558347 95.766783 
L 346.558347 95.792178 
L 347.558347 95.803378 
L 348.558347 95.813502 
L 349.558347 95.813298 
L 350.558347 95.803788 
L 351.558347 95.792135 
L 352.558347 95.761105 
L 353.558347 95.749937 
L 354.558347 95.71982 
L 355.558347 95.660043 
L 356.558347 95.622851 
L 357.558347 95.583755 
L 358.558347 95.541316 
L 359.558347 95.50855 
L 360.558347 95.441124 
L 361.558347 95.401998 
L 362.558347 95.359324 
L 363.558347 95.288743 
L 364.558347 95.252352 
L 365.558347 95.193949 
L 366.558347 95.082996 
L 367.558347 95.012338 
L 368.558347 94.899398 
L 369.558347 94.853625 
L 370.558347 94.792342 
L 371.774618 94.743843 
" clip-path="url(#p93a361a28c)" style="fill: none; stroke: #ff7f0e; stroke-opacity: 0.5; stroke-width: 0.2; stroke-linecap: square"/>
   <path d="M 325.558347 161.796522 
L 326.558347 161.827959 
L 327.558347 161.864899 
L 328.558347 161.962645 
L 329.558347 161.995167 
L 330.558347 162.068792 
L 331.558347 162.107357 
L 332.558347 162.14277 
L 333.558347 162.20041 
L 334.558347 162.270797 
L 335.558347 162.322761 
L 336.558347 162.381851 
L 337.558347 162.470172 
L 338.558347 162.516316 
L 339.558347 162.558727 
L 340.558347 162.589219 
L 341.558347 162.615264 
L 342.558347 162.636464 
L 343.558347 162.690766 
L 344.558347 162.718703 
L 345.558347 162.748427 
L 346.558347 162.773822 
L 347.558347 162.785022 
L 348.558347 162.795146 
L 349.558347 162.794942 
L 350.558347 162.785432 
L 351.558347 162.773779 
L 352.558347 162.742749 
L 353.558347 162.731581 
L 354.558347 162.701464 
L 355.558347 162.641687 
L 356.558347 162.604495 
L 357.558347 162.565399 
L 358.558347 162.52296 
L 359.558347 162.490194 
L 360.558347 162.422768 
L 361.558347 162.383642 
L 362.558347 162.340968 
L 363.558347 162.270387 
L 364.558347 162.233996 
L 365.558347 162.175593 
L 366.558347 162.06464 
L 367.558347 161.993982 
L 368.558347 161.881042 
L 369.558347 161.835269 
L 370.558347 161.773986 
L 371.774618 161.725487 
" clip-path="url(#p93a361a28c)" style="fill: none; stroke: #ff7f0e; stroke-opacity: 0.5; stroke-width: 0.2; stroke-linecap: square"/>
   <path d="M 325.558347 161.922263 
L 326.558347 161.9537 
L 327.558347 161.99064 
L 328.558347 162.088387 
L 329.558347 162.120908 
L 330.558347 162.194533 
L 331.558347 162.233098 
L 332.558347 162.268512 
L 333.558347 162.326152 
L 334.558347 162.396538 
L 335.558347 162.448502 
L 336.558347 162.507592 
L 337.558347 162.595913 
L 338.558347 162.642057 
L 339.558347 162.684468 
L 340.558347 162.714961 
L 341.558347 162.741006 
L 342.558347 162.762206 
L 343.558347 162.816507 
L 344.558347 162.844444 
L 345.558347 162.874168 
L 346.558347 162.899563 
L 347.558347 162.910763 
L 348.558347 162.920887 
L 349.558347 162.920683 
L 350.558347 162.911173 
L 351.558347 162.89952 
L 352.558347 162.86849 
L 353.558347 162.857322 
L 354.558347 162.827205 
L 355.558347 162.767428 
L 356.558347 162.730236 
L 357.558347 162.69114 
L 358.558347 162.648701 
L 359.558347 162.615936 
L 360.558347 162.548509 
L 361.558347 162.509383 
L 362.558347 162.466709 
L 363.558347 162.396128 
L 364.558347 162.359737 
L 365.558347 162.301334 
L 366.558347 162.190381 
L 367.558347 162.119723 
L 368.558347 162.006783 
L 369.558347 161.96101 
L 370.558347 161.899727 
L 371.774618 161.851228 
" clip-path="url(#p93a361a28c)" style="fill: none; stroke: #ff7f0e; stroke-opacity: 0.5; stroke-width: 0.2; stroke-linecap: square"/>
   <g id="patch_3">
    <path d="M 64.409375 22.318125 
L 64.409375 260.421875 
M 165.068445 22.318125 
L 165.068445 260.421875 
" clip-path="url(#p93a361a28c)" style="fill: none; stroke: #ffffff; stroke-width: 3; stroke-linejoin: miter"/>
    <path d="M 64.409375 22.318125 
L 64.409375 260.421875 
M 165.068445 22.318125 
L 165.068445 260.421875 
" clip-path="url(#p93a361a28c)" style="fill: none; stroke: #1f77b4; stroke-linejoin: miter"/>
    <g id="PolyCollection_1">
     <path d="M 165.068445 22.318125 
L 64.409375 22.318125 
L 64.409375 260.421875 
L 165.068445 260.421875 
L 165.068445 260.421875 
L 165.068445 22.318125 
z
" clip-path="url(#p93a361a28c)" style="fill: #1f77b4; fill-opacity: 0.5"/>
    </g>
    <g id="patch_4">
     <path d="M 220.36109 22.318125 
L 220.36109 260.421875 
M 321.02016 22.318125 
L 321.02016 260.421875 
" clip-path="url(#p93a361a28c)" style="fill: none; stroke: #ffffff; stroke-width: 3; stroke-linejoin: miter"/>
     <path d="M 220.36109 22.318125 
L 220.36109 260.421875 
M 321.02016 22.318125 
L 321.02016 260.421875 
" clip-path="url(#p93a361a28c)" style="fill: none; stroke: #ff7f0e; stroke-linejoin: miter"/>
     <g id="PolyCollection_2">
      <path d="M 321.02016 22.318125 
L 220.36109 22.318125 
L 220.36109 260.421875 
L 321.02016 260.421875 
L 321.02016 260.421875 
L 321.02016 22.318125 
z
" clip-path="url(#p93a361a28c)" style="fill: #ff7f0e; fill-opacity: 0.5"/>
     </g>
     <g id="patch_5">
      <path d="M 376.312805 22.318125 
L 376.312805 260.421875 
M 476.971875 22.318125 
L 476.971875 260.421875 
" clip-path="url(#p93a361a28c)" style="fill: none; stroke: #ffffff; stroke-width: 3; stroke-linejoin: miter"/>
      <path d="M 376.312805 22.318125 
L 376.312805 260.421875 
M 476.971875 22.318125 
L 476.971875 260.421875 
" clip-path="url(#p93a361a28c)" style="fill: none; stroke: #2ca02c; stroke-linejoin: miter"/>
      <g id="PolyCollection_3">
       <path d="M 476.971875 22.318125 
L 376.312805 22.318125 
L 376.312805 260.421875 
L 476.971875 260.421875 
L 476.971875 260.421875 
L 476.971875 22.318125 
z
" clip-path="url(#p93a361a28c)" style="fill: #2ca02c; fill-opacity: 0.5"/>
      </g>
      <g id="matplotlib.axis_1">
       <g id="xtick_1">
        <g id="line2d_1"/>
        <g id="text_1">
         <!-- deme0 -->
         <g transform="translate(97.360004 271.520312)scale(0.1 -0.1)">
          <defs>
           <path id="DejaVuSans-64" d="M 2906 2969 
L 2906 4863 
L 3481 4863 
L 3481 0 
L 2906 0 
L 2906 525 
Q 2725 213 2448 61 
Q 2172 -91 1784 -91 
Q 1150 -91 751 415 
Q 353 922 353 1747 
Q 353 2572 751 3078 
Q 1150 3584 1784 3584 
Q 2172 3584 2448 3432 
Q 2725 3281 2906 2969 
z
M 947 1747 
Q 947 1113 1208 752 
Q 1469 391 1925 391 
Q 2381 391 2643 752 
Q 2906 1113 2906 1747 
Q 2906 2381 2643 2742 
Q 2381 3103 1925 3103 
Q 1469 3103 1208 2742 
Q 947 2381 947 1747 
z
" transform="scale(0.015625)"/>
           <path id="DejaVuSans-65" d="M 3597 1894 
L 3597 1613 
L 953 1613 
Q 991 1019 1311 708 
Q 1631 397 2203 397 
Q 2534 397 2845 478 
Q 3156 559 3463 722 
L 3463 178 
Q 3153 47 2828 -22 
Q 2503 -91 2169 -91 
Q 1331 -91 842 396 
Q 353 884 353 1716 
Q 353 2575 817 3079 
Q 1281 3584 2069 3584 
Q 2775 3584 3186 3129 
Q 3597 2675 3597 1894 
z
M 3022 2063 
Q 3016 2534 2758 2815 
Q 2500 3097 2075 3097 
Q 1594 3097 1305 2825 
Q 1016 2553 972 2059 
L 3022 2063 
z
" transform="scale(0.015625)"/>
           <path id="DejaVuSans-6d" d="M 3328 2828 
Q 3544 3216 3844 3400 
Q 4144 3584 4550 3584 
Q 5097 3584 5394 3201 
Q 5691 2819 5691 2113 
L 5691 0 
L 5113 0 
L 5113 2094 
Q 5113 2597 4934 2840 
Q 4756 3084 4391 3084 
Q 3944 3084 3684 2787 
Q 3425 2491 3425 1978 
L 3425 0 
L 2847 0 
L 2847 2094 
Q 2847 2600 2669 2842 
Q 2491 3084 2119 3084 
Q 1678 3084 1418 2786 
Q 1159 2488 1159 1978 
L 1159 0 
L 581 0 
L 581 3500 
L 1159 3500 
L 1159 2956 
Q 1356 3278 1631 3431 
Q 1906 3584 2284 3584 
Q 2666 3584 2933 3390 
Q 3200 3197 3328 2828 
z
" transform="scale(0.015625)"/>
           <path id="DejaVuSans-30" d="M 2034 4250 
Q 1547 4250 1301 3770 
Q 1056 3291 1056 2328 
Q 1056 1369 1301 889 
Q 1547 409 2034 409 
Q 2525 409 2770 889 
Q 3016 1369 3016 2328 
Q 3016 3291 2770 3770 
Q 2525 4250 2034 4250 
z
M 2034 4750 
Q 2819 4750 3233 4129 
Q 3647 3509 3647 2328 
Q 3647 1150 3233 529 
Q 2819 -91 2034 -91 
Q 1250 -91 836 529 
Q 422 1150 422 2328 
Q 422 3509 836 4129 
Q 1250 4750 2034 4750 
z
" transform="scale(0.015625)"/>
          </defs>
          <use xlink:href="#DejaVuSans-64"/>
          <use xlink:href="#DejaVuSans-65" x="63.476562"/>
          <use xlink:href="#DejaVuSans-6d" x="125"/>
          <use xlink:href="#DejaVuSans-65" x="222.412109"/>
          <use xlink:href="#DejaVuSans-30" x="283.935547"/>
         </g>
        </g>
       </g>
       <g id="xtick_2">
        <g id="line2d_2"/>
        <g id="text_2">
         <!-- deme1 -->
         <g transform="translate(253.311719 271.520312)scale(0.1 -0.1)">
          <defs>
           <path id="DejaVuSans-31" d="M 794 531 
L 1825 531 
L 1825 4091 
L 703 3866 
L 703 4441 
L 1819 4666 
L 2450 4666 
L 2450 531 
L 3481 531 
L 3481 0 
L 794 0 
L 794 531 
z
" transform="scale(0.015625)"/>
          </defs>
          <use xlink:href="#DejaVuSans-64"/>
          <use xlink:href="#DejaVuSans-65" x="63.476562"/>
          <use xlink:href="#DejaVuSans-6d" x="125"/>
          <use xlink:href="#DejaVuSans-65" x="222.412109"/>
          <use xlink:href="#DejaVuSans-31" x="283.935547"/>
         </g>
        </g>
       </g>
       <g id="xtick_3">
        <g id="line2d_3"/>
        <g id="text_3">
         <!-- deme2 -->
         <g transform="translate(409.263434 271.520312)scale(0.1 -0.1)">
          <defs>
           <path id="DejaVuSans-32" d="M 1228 531 
L 3431 531 
L 3431 0 
L 469 0 
L 469 531 
Q 828 903 1448 1529 
Q 2069 2156 2228 2338 
Q 2531 2678 2651 2914 
Q 2772 3150 2772 3378 
Q 2772 3750 2511 3984 
Q 2250 4219 1831 4219 
Q 1534 4219 1204 4116 
Q 875 4013 500 3803 
L 500 4441 
Q 881 4594 1212 4672 
Q 1544 4750 1819 4750 
Q 2544 4750 2975 4387 
Q 3406 4025 3406 3419 
Q 3406 3131 3298 2873 
Q 3191 2616 2906 2266 
Q 2828 2175 2409 1742 
Q 1991 1309 1228 531 
z
" transform="scale(0.015625)"/>
          </defs>
          <use xlink:href="#DejaVuSans-64"/>
          <use xlink:href="#DejaVuSans-65" x="63.476562"/>
          <use xlink:href="#DejaVuSans-6d" x="125"/>
          <use xlink:href="#DejaVuSans-65" x="222.412109"/>
          <use xlink:href="#DejaVuSans-32" x="283.935547"/>
         </g>
        </g>
       </g>
      </g>
      <g id="matplotlib.axis_2">
       <g id="ytick_1">
        <g id="line2d_4">
         <defs>
          <path id="m58917b4c67" d="M 0 0 
L -3.5 0 
" style="stroke: #000000; stroke-width: 0.8"/>
         </defs>
         <g>
          <use xlink:href="#m58917b4c67" x="43.78125" y="260.421875" style="stroke: #000000; stroke-width: 0.8"/>
         </g>
        </g>
        <g id="text_4">
         <!-- 0.0 -->
         <g transform="translate(20.878125 264.221094)scale(0.1 -0.1)">
          <defs>
           <path id="DejaVuSans-2e" d="M 684 794 
L 1344 794 
L 1344 0 
L 684 0 
L 684 794 
z
" transform="scale(0.015625)"/>
          </defs>
          <use xlink:href="#DejaVuSans-30"/>
          <use xlink:href="#DejaVuSans-2e" x="63.623047"/>
          <use xlink:href="#DejaVuSans-30" x="95.410156"/>
         </g>
        </g>
       </g>
       <g id="ytick_2">
        <g id="line2d_5">
         <g>
          <use xlink:href="#m58917b4c67" x="43.78125" y="212.801125" style="stroke: #000000; stroke-width: 0.8"/>
         </g>
        </g>
        <g id="text_5">
         <!-- 0.5 -->
         <g transform="translate(20.878125 216.600344)scale(0.1 -0.1)">
          <defs>
           <path id="DejaVuSans-35" d="M 691 4666 
L 3169 4666 
L 3169 4134 
L 1269 4134 
L 1269 2991 
Q 1406 3038 1543 3061 
Q 1681 3084 1819 3084 
Q 2600 3084 3056 2656 
Q 3513 2228 3513 1497 
Q 3513 744 3044 326 
Q 2575 -91 1722 -91 
Q 1428 -91 1123 -41 
Q 819 9 494 109 
L 494 744 
Q 775 591 1075 516 
Q 1375 441 1709 441 
Q 2250 441 2565 725 
Q 2881 1009 2881 1497 
Q 2881 1984 2565 2268 
Q 2250 2553 1709 2553 
Q 1456 2553 1204 2497 
Q 953 2441 691 2322 
L 691 4666 
z
" transform="scale(0.015625)"/>
          </defs>
          <use xlink:href="#DejaVuSans-30"/>
          <use xlink:href="#DejaVuSans-2e" x="63.623047"/>
          <use xlink:href="#DejaVuSans-35" x="95.410156"/>
         </g>
        </g>
       </g>
       <g id="ytick_3">
        <g id="line2d_6">
         <g>
          <use xlink:href="#m58917b4c67" x="43.78125" y="165.180375" style="stroke: #000000; stroke-width: 0.8"/>
         </g>
        </g>
        <g id="text_6">
         <!-- 1.0 -->
         <g transform="translate(20.878125 168.979594)scale(0.1 -0.1)">
          <use xlink:href="#DejaVuSans-31"/>
          <use xlink:href="#DejaVuSans-2e" x="63.623047"/>
          <use xlink:href="#DejaVuSans-30" x="95.410156"/>
         </g>
        </g>
       </g>
       <g id="ytick_4">
        <g id="line2d_7">
         <g>
          <use xlink:href="#m58917b4c67" x="43.78125" y="117.559625" style="stroke: #000000; stroke-width: 0.8"/>
         </g>
        </g>
        <g id="text_7">
         <!-- 1.5 -->
         <g transform="translate(20.878125 121.358844)scale(0.1 -0.1)">
          <use xlink:href="#DejaVuSans-31"/>
          <use xlink:href="#DejaVuSans-2e" x="63.623047"/>
          <use xlink:href="#DejaVuSans-35" x="95.410156"/>
         </g>
        </g>
       </g>
       <g id="ytick_5">
        <g id="line2d_8">
         <g>
          <use xlink:href="#m58917b4c67" x="43.78125" y="69.938875" style="stroke: #000000; stroke-width: 0.8"/>
         </g>
        </g>
        <g id="text_8">
         <!-- 2.0 -->
         <g transform="translate(20.878125 73.738094)scale(0.1 -0.1)">
          <use xlink:href="#DejaVuSans-32"/>
          <use xlink:href="#DejaVuSans-2e" x="63.623047"/>
          <use xlink:href="#DejaVuSans-30" x="95.410156"/>
         </g>
        </g>
       </g>
       <g id="ytick_6">
        <g id="line2d_9">
         <g>
          <use xlink:href="#m58917b4c67" x="43.78125" y="22.318125" style="stroke: #000000; stroke-width: 0.8"/>
         </g>
        </g>
        <g id="text_9">
         <!-- 2.5 -->
         <g transform="translate(20.878125 26.117344)scale(0.1 -0.1)">
          <use xlink:href="#DejaVuSans-32"/>
          <use xlink:href="#DejaVuSans-2e" x="63.623047"/>
          <use xlink:href="#DejaVuSans-35" x="95.410156"/>
         </g>
        </g>
       </g>
       <g id="text_10">
        <!-- time ago (generations) -->
        <g transform="translate(14.798438 198.841094)rotate(-90)scale(0.1 -0.1)">
         <defs>
          <path id="DejaVuSans-74" d="M 1172 4494 
L 1172 3500 
L 2356 3500 
L 2356 3053 
L 1172 3053 
L 1172 1153 
Q 1172 725 1289 603 
Q 1406 481 1766 481 
L 2356 481 
L 2356 0 
L 1766 0 
Q 1100 0 847 248 
Q 594 497 594 1153 
L 594 3053 
L 172 3053 
L 172 3500 
L 594 3500 
L 594 4494 
L 1172 4494 
z
" transform="scale(0.015625)"/>
          <path id="DejaVuSans-69" d="M 603 3500 
L 1178 3500 
L 1178 0 
L 603 0 
L 603 3500 
z
M 603 4863 
L 1178 4863 
L 1178 4134 
L 603 4134 
L 603 4863 
z
" transform="scale(0.015625)"/>
          <path id="DejaVuSans-20" transform="scale(0.015625)"/>
          <path id="DejaVuSans-61" d="M 2194 1759 
Q 1497 1759 1228 1600 
Q 959 1441 959 1056 
Q 959 750 1161 570 
Q 1363 391 1709 391 
Q 2188 391 2477 730 
Q 2766 1069 2766 1631 
L 2766 1759 
L 2194 1759 
z
M 3341 1997 
L 3341 0 
L 2766 0 
L 2766 531 
Q 2569 213 2275 61 
Q 1981 -91 1556 -91 
Q 1019 -91 701 211 
Q 384 513 384 1019 
Q 384 1609 779 1909 
Q 1175 2209 1959 2209 
L 2766 2209 
L 2766 2266 
Q 2766 2663 2505 2880 
Q 2244 3097 1772 3097 
Q 1472 3097 1187 3025 
Q 903 2953 641 2809 
L 641 3341 
Q 956 3463 1253 3523 
Q 1550 3584 1831 3584 
Q 2591 3584 2966 3190 
Q 3341 2797 3341 1997 
z
" transform="scale(0.015625)"/>
          <path id="DejaVuSans-67" d="M 2906 1791 
Q 2906 2416 2648 2759 
Q 2391 3103 1925 3103 
Q 1463 3103 1205 2759 
Q 947 2416 947 1791 
Q 947 1169 1205 825 
Q 1463 481 1925 481 
Q 2391 481 2648 825 
Q 2906 1169 2906 1791 
z
M 3481 434 
Q 3481 -459 3084 -895 
Q 2688 -1331 1869 -1331 
Q 1566 -1331 1297 -1286 
Q 1028 -1241 775 -1147 
L 775 -588 
Q 1028 -725 1275 -790 
Q 1522 -856 1778 -856 
Q 2344 -856 2625 -561 
Q 2906 -266 2906 331 
L 2906 616 
Q 2728 306 2450 153 
Q 2172 0 1784 0 
Q 1141 0 747 490 
Q 353 981 353 1791 
Q 353 2603 747 3093 
Q 1141 3584 1784 3584 
Q 2172 3584 2450 3431 
Q 2728 3278 2906 2969 
L 2906 3500 
L 3481 3500 
L 3481 434 
z
" transform="scale(0.015625)"/>
          <path id="DejaVuSans-6f" d="M 1959 3097 
Q 1497 3097 1228 2736 
Q 959 2375 959 1747 
Q 959 1119 1226 758 
Q 1494 397 1959 397 
Q 2419 397 2687 759 
Q 2956 1122 2956 1747 
Q 2956 2369 2687 2733 
Q 2419 3097 1959 3097 
z
M 1959 3584 
Q 2709 3584 3137 3096 
Q 3566 2609 3566 1747 
Q 3566 888 3137 398 
Q 2709 -91 1959 -91 
Q 1206 -91 779 398 
Q 353 888 353 1747 
Q 353 2609 779 3096 
Q 1206 3584 1959 3584 
z
" transform="scale(0.015625)"/>
          <path id="DejaVuSans-28" d="M 1984 4856 
Q 1566 4138 1362 3434 
Q 1159 2731 1159 2009 
Q 1159 1288 1364 580 
Q 1569 -128 1984 -844 
L 1484 -844 
Q 1016 -109 783 600 
Q 550 1309 550 2009 
Q 550 2706 781 3412 
Q 1013 4119 1484 4856 
L 1984 4856 
z
" transform="scale(0.015625)"/>
          <path id="DejaVuSans-6e" d="M 3513 2113 
L 3513 0 
L 2938 0 
L 2938 2094 
Q 2938 2591 2744 2837 
Q 2550 3084 2163 3084 
Q 1697 3084 1428 2787 
Q 1159 2491 1159 1978 
L 1159 0 
L 581 0 
L 581 3500 
L 1159 3500 
L 1159 2956 
Q 1366 3272 1645 3428 
Q 1925 3584 2291 3584 
Q 2894 3584 3203 3211 
Q 3513 2838 3513 2113 
z
" transform="scale(0.015625)"/>
          <path id="DejaVuSans-72" d="M 2631 2963 
Q 2534 3019 2420 3045 
Q 2306 3072 2169 3072 
Q 1681 3072 1420 2755 
Q 1159 2438 1159 1844 
L 1159 0 
L 581 0 
L 581 3500 
L 1159 3500 
L 1159 2956 
Q 1341 3275 1631 3429 
Q 1922 3584 2338 3584 
Q 2397 3584 2469 3576 
Q 2541 3569 2628 3553 
L 2631 2963 
z
" transform="scale(0.015625)"/>
          <path id="DejaVuSans-73" d="M 2834 3397 
L 2834 2853 
Q 2591 2978 2328 3040 
Q 2066 3103 1784 3103 
Q 1356 3103 1142 2972 
Q 928 2841 928 2578 
Q 928 2378 1081 2264 
Q 1234 2150 1697 2047 
L 1894 2003 
Q 2506 1872 2764 1633 
Q 3022 1394 3022 966 
Q 3022 478 2636 193 
Q 2250 -91 1575 -91 
Q 1294 -91 989 -36 
Q 684 19 347 128 
L 347 722 
Q 666 556 975 473 
Q 1284 391 1588 391 
Q 1994 391 2212 530 
Q 2431 669 2431 922 
Q 2431 1156 2273 1281 
Q 2116 1406 1581 1522 
L 1381 1569 
Q 847 1681 609 1914 
Q 372 2147 372 2553 
Q 372 3047 722 3315 
Q 1072 3584 1716 3584 
Q 2034 3584 2315 3537 
Q 2597 3491 2834 3397 
z
" transform="scale(0.015625)"/>
          <path id="DejaVuSans-29" d="M 513 4856 
L 1013 4856 
Q 1481 4119 1714 3412 
Q 1947 2706 1947 2009 
Q 1947 1309 1714 600 
Q 1481 -109 1013 -844 
L 513 -844 
Q 928 -128 1133 580 
Q 1338 1288 1338 2009 
Q 1338 2731 1133 3434 
Q 928 4138 513 4856 
z
" transform="scale(0.015625)"/>
         </defs>
         <use xlink:href="#DejaVuSans-74"/>
         <use xlink:href="#DejaVuSans-69" x="39.208984"/>
         <use xlink:href="#DejaVuSans-6d" x="66.992188"/>
         <use xlink:href="#DejaVuSans-65" x="164.404297"/>
         <use xlink:href="#DejaVuSans-20" x="225.927734"/>
         <use xlink:href="#DejaVuSans-61" x="257.714844"/>
         <use xlink:href="#DejaVuSans-67" x="318.994141"/>
         <use xlink:href="#DejaVuSans-6f" x="382.470703"/>
         <use xlink:href="#DejaVuSans-20" x="443.652344"/>
         <use xlink:href="#DejaVuSans-28" x="475.439453"/>
         <use xlink:href="#DejaVuSans-67" x="514.453125"/>
         <use xlink:href="#DejaVuSans-65" x="577.929688"/>
         <use xlink:href="#DejaVuSans-6e" x="639.453125"/>
         <use xlink:href="#DejaVuSans-65" x="702.832031"/>
         <use xlink:href="#DejaVuSans-72" x="764.355469"/>
         <use xlink:href="#DejaVuSans-61" x="805.46875"/>
         <use xlink:href="#DejaVuSans-74" x="866.748047"/>
         <use xlink:href="#DejaVuSans-69" x="905.957031"/>
         <use xlink:href="#DejaVuSans-6f" x="933.740234"/>
         <use xlink:href="#DejaVuSans-6e" x="994.921875"/>
         <use xlink:href="#DejaVuSans-73" x="1058.300781"/>
         <use xlink:href="#DejaVuSans-29" x="1110.400391"/>
        </g>
       </g>
      </g>
      <path d="M 216.822903 108.147824 
L 214.822903 107.147824 
L 214.822903 109.147824 
z
" clip-path="url(#p93a361a28c)" style="fill: #1f77b4; fill-opacity: 0.5; stroke: #1f77b4; stroke-opacity: 0.5; stroke-linejoin: miter"/>
      <path d="M 216.822903 118.784657 
L 214.822903 117.784657 
L 214.822903 119.784657 
z
" clip-path="url(#p93a361a28c)" style="fill: #1f77b4; fill-opacity: 0.5; stroke: #1f77b4; stroke-opacity: 0.5; stroke-linejoin: miter"/>
      <path d="M 216.822903 146.017788 
L 214.822903 145.017788 
L 214.822903 147.017788 
z
" clip-path="url(#p93a361a28c)" style="fill: #1f77b4; fill-opacity: 0.5; stroke: #1f77b4; stroke-opacity: 0.5; stroke-linejoin: miter"/>
      <path d="M 216.822903 84.518948 
L 214.822903 83.518948 
L 214.822903 85.518948 
z
" clip-path="url(#p93a361a28c)" style="fill: #1f77b4; fill-opacity: 0.5; stroke: #1f77b4; stroke-opacity: 0.5; stroke-linejoin: miter"/>
      <path d="M 216.822903 157.437789 
L 214.822903 156.437789 
L 214.822903 158.437789 
z
" clip-path="url(#p93a361a28c)" style="fill: #1f77b4; fill-opacity: 0.5; stroke: #1f77b4; stroke-opacity: 0.5; stroke-linejoin: miter"/>
      <path d="M 216.822903 94.490495 
L 214.822903 93.490495 
L 214.822903 95.490495 
z
" clip-path="url(#p93a361a28c)" style="fill: #1f77b4; fill-opacity: 0.5; stroke: #1f77b4; stroke-opacity: 0.5; stroke-linejoin: miter"/>
      <path d="M 216.822903 111.576996 
L 214.822903 110.576996 
L 214.822903 112.576996 
z
" clip-path="url(#p93a361a28c)" style="fill: #1f77b4; fill-opacity: 0.5; stroke: #1f77b4; stroke-opacity: 0.5; stroke-linejoin: miter"/>
      <path d="M 216.822903 96.157554 
L 214.822903 95.157554 
L 214.822903 97.157554 
z
" clip-path="url(#p93a361a28c)" style="fill: #1f77b4; fill-opacity: 0.5; stroke: #1f77b4; stroke-opacity: 0.5; stroke-linejoin: miter"/>
      <path d="M 216.822903 86.882013 
L 214.822903 85.882013 
L 214.822903 87.882013 
z
" clip-path="url(#p93a361a28c)" style="fill: #1f77b4; fill-opacity: 0.5; stroke: #1f77b4; stroke-opacity: 0.5; stroke-linejoin: miter"/>
      <path d="M 216.822903 120.121319 
L 214.822903 119.121319 
L 214.822903 121.121319 
z
" clip-path="url(#p93a361a28c)" style="fill: #1f77b4; fill-opacity: 0.5; stroke: #1f77b4; stroke-opacity: 0.5; stroke-linejoin: miter"/>
      <path d="M 372.774618 158.548623 
L 370.774618 157.548623 
L 370.774618 159.548623 
z
" clip-path="url(#p93a361a28c)" style="fill: #ff7f0e; fill-opacity: 0.5; stroke: #ff7f0e; stroke-opacity: 0.5; stroke-linejoin: miter"/>
      <path d="M 372.774618 90.791919 
L 370.774618 89.791919 
L 370.774618 91.791919 
z
" clip-path="url(#p93a361a28c)" style="fill: #ff7f0e; fill-opacity: 0.5; stroke: #ff7f0e; stroke-opacity: 0.5; stroke-linejoin: miter"/>
      <path d="M 372.774618 70.720495 
L 370.774618 69.720495 
L 370.774618 71.720495 
z
" clip-path="url(#p93a361a28c)" style="fill: #ff7f0e; fill-opacity: 0.5; stroke: #ff7f0e; stroke-opacity: 0.5; stroke-linejoin: miter"/>
      <path d="M 372.774618 79.911651 
L 370.774618 78.911651 
L 370.774618 80.911651 
z
" clip-path="url(#p93a361a28c)" style="fill: #ff7f0e; fill-opacity: 0.5; stroke: #ff7f0e; stroke-opacity: 0.5; stroke-linejoin: miter"/>
      <path d="M 372.774618 153.379431 
L 370.774618 152.379431 
L 370.774618 154.379431 
z
" clip-path="url(#p93a361a28c)" style="fill: #ff7f0e; fill-opacity: 0.5; stroke: #ff7f0e; stroke-opacity: 0.5; stroke-linejoin: miter"/>
      <path d="M 372.774618 84.014653 
L 370.774618 83.014653 
L 370.774618 85.014653 
z
" clip-path="url(#p93a361a28c)" style="fill: #ff7f0e; fill-opacity: 0.5; stroke: #ff7f0e; stroke-opacity: 0.5; stroke-linejoin: miter"/>
      <path d="M 372.774618 118.433033 
L 370.774618 117.433033 
L 370.774618 119.433033 
z
" clip-path="url(#p93a361a28c)" style="fill: #ff7f0e; fill-opacity: 0.5; stroke: #ff7f0e; stroke-opacity: 0.5; stroke-linejoin: miter"/>
      <path d="M 372.774618 94.814878 
L 370.774618 93.814878 
L 370.774618 95.814878 
z
" clip-path="url(#p93a361a28c)" style="fill: #ff7f0e; fill-opacity: 0.5; stroke: #ff7f0e; stroke-opacity: 0.5; stroke-linejoin: miter"/>
      <path d="M 372.774618 161.796522 
L 370.774618 160.796522 
L 370.774618 162.796522 
z
" clip-path="url(#p93a361a28c)" style="fill: #ff7f0e; fill-opacity: 0.5; stroke: #ff7f0e; stroke-opacity: 0.5; stroke-linejoin: miter"/>
      <path d="M 372.774618 161.922263 
L 370.774618 160.922263 
L 370.774618 162.922263 
z
" clip-path="url(#p93a361a28c)" style="fill: #ff7f0e; fill-opacity: 0.5; stroke: #ff7f0e; stroke-opacity: 0.5; stroke-linejoin: miter"/>
      <g id="patch_6">
       <path d="M 43.78125 260.421875 
L 43.78125 22.318125 
" style="fill: none; stroke: #000000; stroke-width: 0.8; stroke-linejoin: miter; stroke-linecap: square"/>
      </g>
      <g id="text_11">
       <!-- defaults_migration_properties.yaml -->
       <g transform="translate(164.234688 16.318125)scale(0.12 -0.12)">
        <defs>
         <path id="DejaVuSans-66" d="M 2375 4863 
L 2375 4384 
L 1825 4384 
Q 1516 4384 1395 4259 
Q 1275 4134 1275 3809 
L 1275 3500 
L 2222 3500 
L 2222 3053 
L 1275 3053 
L 1275 0 
L 697 0 
L 697 3053 
L 147 3053 
L 147 3500 
L 697 3500 
L 697 3744 
Q 697 4328 969 4595 
Q 1241 4863 1831 4863 
L 2375 4863 
z
" transform="scale(0.015625)"/>
         <path id="DejaVuSans-75" d="M 544 1381 
L 544 3500 
L 1119 3500 
L 1119 1403 
Q 1119 906 1312 657 
Q 1506 409 1894 409 
Q 2359 409 2629 706 
Q 2900 1003 2900 1516 
L 2900 3500 
L 3475 3500 
L 3475 0 
L 2900 0 
L 2900 538 
Q 2691 219 2414 64 
Q 2138 -91 1772 -91 
Q 1169 -91 856 284 
Q 544 659 544 1381 
z
M 1991 3584 
L 1991 3584 
z
" transform="scale(0.015625)"/>
         <path id="DejaVuSans-6c" d="M 603 4863 
L 1178 4863 
L 1178 0 
L 603 0 
L 603 4863 
z
" transform="scale(0.015625)"/>
         <path id="DejaVuSans-5f" d="M 3263 -1063 
L 3263 -1509 
L -63 -1509 
L -63 -1063 
L 3263 -1063 
z
" transform="scale(0.015625)"/>
         <path id="DejaVuSans-70" d="M 1159 525 
L 1159 -1331 
L 581 -1331 
L 581 3500 
L 1159 3500 
L 1159 2969 
Q 1341 3281 1617 3432 
Q 1894 3584 2278 3584 
Q 2916 3584 3314 3078 
Q 3713 2572 3713 1747 
Q 3713 922 3314 415 
Q 2916 -91 2278 -91 
Q 1894 -91 1617 61 
Q 1341 213 1159 525 
z
M 3116 1747 
Q 3116 2381 2855 2742 
Q 2594 3103 2138 3103 
Q 1681 3103 1420 2742 
Q 1159 2381 1159 1747 
Q 1159 1113 1420 752 
Q 1681 391 2138 391 
Q 2594 391 2855 752 
Q 3116 1113 3116 1747 
z
" transform="scale(0.015625)"/>
         <path id="DejaVuSans-79" d="M 2059 -325 
Q 1816 -950 1584 -1140 
Q 1353 -1331 966 -1331 
L 506 -1331 
L 506 -850 
L 844 -850 
Q 1081 -850 1212 -737 
Q 1344 -625 1503 -206 
L 1606 56 
L 191 3500 
L 800 3500 
L 1894 763 
L 2988 3500 
L 3597 3500 
L 2059 -325 
z
" transform="scale(0.015625)"/>
        </defs>
        <use xlink:href="#DejaVuSans-64"/>
        <use xlink:href="#DejaVuSans-65" x="63.476562"/>
        <use xlink:href="#DejaVuSans-66" x="125"/>
        <use xlink:href="#DejaVuSans-61" x="160.205078"/>
        <use xlink:href="#DejaVuSans-75" x="221.484375"/>
        <use xlink:href="#DejaVuSans-6c" x="284.863281"/>
        <use xlink:href="#DejaVuSans-74" x="312.646484"/>
        <use xlink:href="#DejaVuSans-73" x="351.855469"/>
        <use xlink:href="#DejaVuSans-5f" x="403.955078"/>
        <use xlink:href="#DejaVuSans-6d" x="453.955078"/>
        <use xlink:href="#DejaVuSans-69" x="551.367188"/>
        <use xlink:href="#DejaVuSans-67" x="579.150391"/>
        <use xlink:href="#DejaVuSans-72" x="642.626953"/>
        <use xlink:href="#DejaVuSans-61" x="683.740234"/>
        <use xlink:href="#DejaVuSans-74" x="745.019531"/>
        <use xlink:href="#DejaVuSans-69" x="784.228516"/>
        <use xlink:href="#DejaVuSans-6f" x="812.011719"/>
        <use xlink:href="#DejaVuSans-6e" x="873.193359"/>
        <use xlink:href="#DejaVuSans-5f" x="936.572266"/>
        <use xlink:href="#DejaVuSans-70" x="986.572266"/>
        <use xlink:href="#DejaVuSans-72" x="1050.048828"/>
        <use xlink:href="#DejaVuSans-6f" x="1088.912109"/>
        <use xlink:href="#DejaVuSans-70" x="1150.09375"/>
        <use xlink:href="#DejaVuSans-65" x="1213.570312"/>
        <use xlink:href="#DejaVuSans-72" x="1275.09375"/>
        <use xlink:href="#DejaVuSans-74" x="1316.207031"/>
        <use xlink:href="#DejaVuSans-69" x="1355.416016"/>
        <use xlink:href="#DejaVuSans-65" x="1383.199219"/>
        <use xlink:href="#DejaVuSans-73" x="1444.722656"/>
        <use xlink:href="#DejaVuSans-2e" x="1496.822266"/>
        <use xlink:href="#DejaVuSans-79" x="1528.609375"/>
        <use xlink:href="#DejaVuSans-61" x="1587.789062"/>
        <use xlink:href="#DejaVuSans-6d" x="1649.068359"/>
        <use xlink:href="#DejaVuSans-6c" x="1746.480469"/>
       </g>
      </g>
     </g>
    </g>
    <defs>
     <clipPath id="p93a361a28c">
      <rect x="43.78125" y="22.318125" width="453.81875" height="238.10375"/>
     </clipPath>
    </defs>
   </g>
  </g>
 </g>
</svg>
