<?xml version="1.0" encoding="utf-8" standalone="no"?>
<!DOCTYPE svg PUBLIC "-//W3C//DTD SVG 1.1//EN"
  "http://www.w3.org/Graphics/SVG/1.1/DTD/svg11.dtd">
<svg xmlns:xlink="http://www.w3.org/1999/xlink" width="504.8pt" height="280.8pt" viewBox="0 0 504.8 280.8" xmlns="http://www.w3.org/2000/svg" version="1.1">
 <metadata>
  <rdf:RDF xmlns:dc="http://purl.org/dc/elements/1.1/" xmlns:cc="http://creativecommons.org/ns#" xmlns:rdf="http://www.w3.org/1999/02/22-rdf-syntax-ns#">
   <cc:Work>
    <dc:type rdf:resource="http://purl.org/dc/dcmitype/StillImage"/>
    <dc:date>2022-07-11T08:24:59.578325</dc:date>
    <dc:format>image/svg+xml</dc:format>
    <dc:creator>
     <cc:Agent>
      <dc:title>Matplotlib v3.5.2, https://matplotlib.org/</dc:title>
     </cc:Agent>
    </dc:creator>
   </cc:Work>
  </rdf:RDF>
 </metadata>
 <defs>
  <style type="text/css">*{stroke-linejoin: round; stroke-linecap: butt}</style>
 </defs>
 <g id="figure_1">
  <g id="patch_1">
   <path d="M 0 280.8 
L 504.8 280.8 
L 504.8 0 
L 0 0 
L 0 280.8 
z
" style="fill: none"/>
  </g>
  <g id="axes_1">
   <g id="patch_2">
    <path d="M 46.965625 260.421875 
L 497.6 260.421875 
L 497.6 22.318125 
L 46.965625 22.318125 
z
" style="fill: #ffffff"/>
   </g>
   <path d="M 171.90811 109.201577 
L 172.90811 109.233014 
L 173.90811 109.269954 
L 174.90811 109.3677 
L 175.90811 109.400222 
L 176.90811 109.473847 
L 177.90811 109.512412 
L 178.90811 109.547825 
L 179.90811 109.605465 
L 180.90811 109.675852 
L 181.90811 109.727816 
L 182.90811 109.786906 
L 183.90811 109.875227 
L 184.90811 109.921371 
L 185.90811 109.963782 
L 186.90811 109.994274 
L 187.90811 110.020319 
L 188.90811 110.041519 
L 189.90811 110.095821 
L 190.90811 110.123758 
L 191.90811 110.153482 
L 192.90811 110.178877 
L 193.90811 110.190077 
L 194.90811 110.200201 
L 195.90811 110.199997 
L 196.90811 110.190487 
L 197.90811 110.178834 
L 198.90811 110.147804 
L 199.90811 110.136636 
L 200.90811 110.106519 
L 201.90811 110.046742 
L 202.90811 110.00955 
L 203.90811 109.970454 
L 204.90811 109.928015 
L 205.90811 109.895249 
L 206.90811 109.827823 
L 207.90811 109.788697 
L 208.90811 109.746023 
L 209.90811 109.675442 
L 210.90811 109.639051 
L 211.90811 109.580648 
L 212.90811 109.469695 
L 213.90811 109.399037 
L 214.90811 109.286097 
L 215.90811 109.240324 
L 217.800088 109.179041 
" clip-path="url(#pf97ebf8fd3)" style="fill: none; stroke: #1f77b4; stroke-opacity: 0.5; stroke-width: 0.2; stroke-linecap: square"/>
   <path d="M 171.90811 245.759222 
L 172.90811 245.790658 
L 173.90811 245.827598 
L 174.90811 245.925345 
L 175.90811 245.957867 
L 176.90811 246.031491 
L 177.90811 246.070057 
L 178.90811 246.10547 
L 179.90811 246.16311 
L 180.90811 246.233496 
L 181.90811 246.28546 
L 182.90811 246.34455 
L 183.90811 246.432871 
L 184.90811 246.479015 
L 185.90811 246.521426 
L 186.90811 246.551919 
L 187.90811 246.577964 
L 188.90811 246.599164 
L 189.90811 246.653465 
L 190.90811 246.681403 
L 191.90811 246.711127 
L 192.90811 246.736521 
L 193.90811 246.747722 
L 194.90811 246.757846 
L 195.90811 246.757641 
L 196.90811 246.748132 
L 197.90811 246.736478 
L 198.90811 246.705449 
L 199.90811 246.694281 
L 200.90811 246.664163 
L 201.90811 246.604386 
L 202.90811 246.567195 
L 203.90811 246.528099 
L 204.90811 246.485659 
L 205.90811 246.452894 
L 206.90811 246.385468 
L 207.90811 246.346342 
L 208.90811 246.303667 
L 209.90811 246.233087 
L 210.90811 246.196696 
L 211.90811 246.138292 
L 212.90811 246.02734 
L 213.90811 245.956682 
L 214.90811 245.843742 
L 215.90811 245.797969 
L 217.800088 245.736686 
" clip-path="url(#pf97ebf8fd3)" style="fill: none; stroke: #1f77b4; stroke-opacity: 0.5; stroke-width: 0.2; stroke-linecap: square"/>
   <path d="M 171.90811 241.38704 
L 172.90811 241.418477 
L 173.90811 241.455417 
L 174.90811 241.553164 
L 175.90811 241.585685 
L 176.90811 241.65931 
L 177.90811 241.697875 
L 178.90811 241.733289 
L 179.90811 241.790929 
L 180.90811 241.861315 
L 181.90811 241.913279 
L 182.90811 241.972369 
L 183.90811 242.06069 
L 184.90811 242.106834 
L 185.90811 242.149245 
L 186.90811 242.179738 
L 187.90811 242.205783 
L 188.90811 242.226983 
L 189.90811 242.281284 
L 190.90811 242.309221 
L 191.90811 242.338945 
L 192.90811 242.36434 
L 193.90811 242.375541 
L 194.90811 242.385664 
L 195.90811 242.38546 
L 196.90811 242.37595 
L 197.90811 242.364297 
L 198.90811 242.333267 
L 199.90811 242.3221 
L 200.90811 242.291982 
L 201.90811 242.232205 
L 202.90811 242.195014 
L 203.90811 242.155917 
L 204.90811 242.113478 
L 205.90811 242.080713 
L 206.90811 242.013286 
L 207.90811 241.97416 
L 208.90811 241.931486 
L 209.90811 241.860905 
L 210.90811 241.824514 
L 211.90811 241.766111 
L 212.90811 241.655159 
L 213.90811 241.5845 
L 214.90811 241.47156 
L 215.90811 241.425788 
L 217.800088 241.364504 
" clip-path="url(#pf97ebf8fd3)" style="fill: none; stroke: #1f77b4; stroke-opacity: 0.5; stroke-width: 0.2; stroke-linecap: square"/>
   <path d="M 171.90811 46.497047 
L 172.90811 46.528483 
L 173.90811 46.565423 
L 174.90811 46.66317 
L 175.90811 46.695691 
L 176.90811 46.769316 
L 177.90811 46.807882 
L 178.90811 46.843295 
L 179.90811 46.900935 
L 180.90811 46.971321 
L 181.90811 47.023285 
L 182.90811 47.082375 
L 183.90811 47.170696 
L 184.90811 47.21684 
L 185.90811 47.259251 
L 186.90811 47.289744 
L 187.90811 47.315789 
L 188.90811 47.336989 
L 189.90811 47.39129 
L 190.90811 47.419228 
L 191.90811 47.448952 
L 192.90811 47.474346 
L 193.90811 47.485547 
L 194.90811 47.495671 
L 195.90811 47.495466 
L 196.90811 47.485956 
L 197.90811 47.474303 
L 198.90811 47.443274 
L 199.90811 47.432106 
L 200.90811 47.401988 
L 201.90811 47.342211 
L 202.90811 47.30502 
L 203.90811 47.265924 
L 204.90811 47.223484 
L 205.90811 47.190719 
L 206.90811 47.123292 
L 207.90811 47.084166 
L 208.90811 47.041492 
L 209.90811 46.970911 
L 210.90811 46.93452 
L 211.90811 46.876117 
L 212.90811 46.765165 
L 213.90811 46.694506 
L 214.90811 46.581567 
L 215.90811 46.535794 
L 217.800088 46.47451 
" clip-path="url(#pf97ebf8fd3)" style="fill: none; stroke: #1f77b4; stroke-opacity: 0.5; stroke-width: 0.2; stroke-linecap: square"/>
   <path d="M 171.90811 147.545866 
L 172.90811 147.577302 
L 173.90811 147.614243 
L 174.90811 147.711989 
L 175.90811 147.744511 
L 176.90811 147.818135 
L 177.90811 147.856701 
L 178.90811 147.892114 
L 179.90811 147.949754 
L 180.90811 148.02014 
L 181.90811 148.072105 
L 182.90811 148.131194 
L 183.90811 148.219515 
L 184.90811 148.26566 
L 185.90811 148.30807 
L 186.90811 148.338563 
L 187.90811 148.364608 
L 188.90811 148.385808 
L 189.90811 148.440109 
L 190.90811 148.468047 
L 191.90811 148.497771 
L 192.90811 148.523166 
L 193.90811 148.534366 
L 194.90811 148.54449 
L 195.90811 148.544286 
L 196.90811 148.534776 
L 197.90811 148.523122 
L 198.90811 148.492093 
L 199.90811 148.480925 
L 200.90811 148.450807 
L 201.90811 148.391031 
L 202.90811 148.353839 
L 203.90811 148.314743 
L 204.90811 148.272303 
L 205.90811 148.239538 
L 206.90811 148.172112 
L 207.90811 148.132986 
L 208.90811 148.090311 
L 209.90811 148.019731 
L 210.90811 147.98334 
L 211.90811 147.924937 
L 212.90811 147.813984 
L 213.90811 147.743326 
L 214.90811 147.630386 
L 215.90811 147.584613 
L 217.800088 147.52333 
" clip-path="url(#pf97ebf8fd3)" style="fill: none; stroke: #1f77b4; stroke-opacity: 0.5; stroke-width: 0.2; stroke-linecap: square"/>
   <path d="M 171.90811 180.960114 
L 172.90811 180.99155 
L 173.90811 181.02849 
L 174.90811 181.126237 
L 175.90811 181.158759 
L 176.90811 181.232383 
L 177.90811 181.270949 
L 178.90811 181.306362 
L 179.90811 181.364002 
L 180.90811 181.434388 
L 181.90811 181.486352 
L 182.90811 181.545442 
L 183.90811 181.633763 
L 184.90811 181.679907 
L 185.90811 181.722318 
L 186.90811 181.752811 
L 187.90811 181.778856 
L 188.90811 181.800056 
L 189.90811 181.854357 
L 190.90811 181.882295 
L 191.90811 181.912019 
L 192.90811 181.937413 
L 193.90811 181.948614 
L 194.90811 181.958738 
L 195.90811 181.958533 
L 196.90811 181.949024 
L 197.90811 181.93737 
L 198.90811 181.906341 
L 199.90811 181.895173 
L 200.90811 181.865055 
L 201.90811 181.805278 
L 202.90811 181.768087 
L 203.90811 181.728991 
L 204.90811 181.686551 
L 205.90811 181.653786 
L 206.90811 181.58636 
L 207.90811 181.547234 
L 208.90811 181.504559 
L 209.90811 181.433979 
L 210.90811 181.397588 
L 211.90811 181.339184 
L 212.90811 181.228232 
L 213.90811 181.157574 
L 214.90811 181.044634 
L 215.90811 180.998861 
L 217.800088 180.937578 
" clip-path="url(#pf97ebf8fd3)" style="fill: none; stroke: #1f77b4; stroke-opacity: 0.5; stroke-width: 0.2; stroke-linecap: square"/>
   <path d="M 171.90811 32.058766 
L 172.90811 32.090203 
L 173.90811 32.127143 
L 174.90811 32.22489 
L 175.90811 32.257411 
L 176.90811 32.331036 
L 177.90811 32.369601 
L 178.90811 32.405015 
L 179.90811 32.462654 
L 180.90811 32.533041 
L 181.90811 32.585005 
L 182.90811 32.644095 
L 183.90811 32.732416 
L 184.90811 32.77856 
L 185.90811 32.820971 
L 186.90811 32.851464 
L 187.90811 32.877508 
L 188.90811 32.898709 
L 189.90811 32.95301 
L 190.90811 32.980947 
L 191.90811 33.010671 
L 192.90811 33.036066 
L 193.90811 33.047266 
L 194.90811 33.05739 
L 195.90811 33.057186 
L 196.90811 33.047676 
L 197.90811 33.036023 
L 198.90811 33.004993 
L 199.90811 32.993825 
L 200.90811 32.963708 
L 201.90811 32.903931 
L 202.90811 32.866739 
L 203.90811 32.827643 
L 204.90811 32.785204 
L 205.90811 32.752439 
L 206.90811 32.685012 
L 207.90811 32.645886 
L 208.90811 32.603212 
L 209.90811 32.532631 
L 210.90811 32.49624 
L 211.90811 32.437837 
L 212.90811 32.326884 
L 213.90811 32.256226 
L 214.90811 32.143286 
L 215.90811 32.097513 
L 217.800088 32.03623 
" clip-path="url(#pf97ebf8fd3)" style="fill: none; stroke: #1f77b4; stroke-opacity: 0.5; stroke-width: 0.2; stroke-linecap: square"/>
   <path d="M 171.90811 34.141419 
L 172.90811 34.172855 
L 173.90811 34.209796 
L 174.90811 34.307542 
L 175.90811 34.340064 
L 176.90811 34.413689 
L 177.90811 34.452254 
L 178.90811 34.487667 
L 179.90811 34.545307 
L 180.90811 34.615693 
L 181.90811 34.667658 
L 182.90811 34.726747 
L 183.90811 34.815068 
L 184.90811 34.861213 
L 185.90811 34.903624 
L 186.90811 34.934116 
L 187.90811 34.960161 
L 188.90811 34.981361 
L 189.90811 35.035662 
L 190.90811 35.0636 
L 191.90811 35.093324 
L 192.90811 35.118719 
L 193.90811 35.129919 
L 194.90811 35.140043 
L 195.90811 35.139839 
L 196.90811 35.130329 
L 197.90811 35.118675 
L 198.90811 35.087646 
L 199.90811 35.076478 
L 200.90811 35.046361 
L 201.90811 34.986584 
L 202.90811 34.949392 
L 203.90811 34.910296 
L 204.90811 34.867856 
L 205.90811 34.835091 
L 206.90811 34.767665 
L 207.90811 34.728539 
L 208.90811 34.685864 
L 209.90811 34.615284 
L 210.90811 34.578893 
L 211.90811 34.52049 
L 212.90811 34.409537 
L 213.90811 34.338879 
L 214.90811 34.225939 
L 215.90811 34.180166 
L 217.800088 34.118883 
" clip-path="url(#pf97ebf8fd3)" style="fill: none; stroke: #1f77b4; stroke-opacity: 0.5; stroke-width: 0.2; stroke-linecap: square"/>
   <path d="M 171.90811 213.719391 
L 172.90811 213.750828 
L 173.90811 213.787768 
L 174.90811 213.885515 
L 175.90811 213.918036 
L 176.90811 213.991661 
L 177.90811 214.030227 
L 178.90811 214.06564 
L 179.90811 214.12328 
L 180.90811 214.193666 
L 181.90811 214.24563 
L 182.90811 214.30472 
L 183.90811 214.393041 
L 184.90811 214.439185 
L 185.90811 214.481596 
L 186.90811 214.512089 
L 187.90811 214.538134 
L 188.90811 214.559334 
L 189.90811 214.613635 
L 190.90811 214.641573 
L 191.90811 214.671296 
L 192.90811 214.696691 
L 193.90811 214.707892 
L 194.90811 214.718016 
L 195.90811 214.717811 
L 196.90811 214.708301 
L 197.90811 214.696648 
L 198.90811 214.665619 
L 199.90811 214.654451 
L 200.90811 214.624333 
L 201.90811 214.564556 
L 202.90811 214.527365 
L 203.90811 214.488269 
L 204.90811 214.445829 
L 205.90811 214.413064 
L 206.90811 214.345637 
L 207.90811 214.306511 
L 208.90811 214.263837 
L 209.90811 214.193256 
L 210.90811 214.156865 
L 211.90811 214.098462 
L 212.90811 213.98751 
L 213.90811 213.916851 
L 214.90811 213.803912 
L 215.90811 213.758139 
L 217.800088 213.696855 
" clip-path="url(#pf97ebf8fd3)" style="fill: none; stroke: #1f77b4; stroke-opacity: 0.5; stroke-width: 0.2; stroke-linecap: square"/>
   <path d="M 171.90811 201.861415 
L 172.90811 201.892851 
L 173.90811 201.929791 
L 174.90811 202.027538 
L 175.90811 202.060059 
L 176.90811 202.133684 
L 177.90811 202.17225 
L 178.90811 202.207663 
L 179.90811 202.265303 
L 180.90811 202.335689 
L 181.90811 202.387653 
L 182.90811 202.446743 
L 183.90811 202.535064 
L 184.90811 202.581208 
L 185.90811 202.623619 
L 186.90811 202.654112 
L 187.90811 202.680157 
L 188.90811 202.701357 
L 189.90811 202.755658 
L 190.90811 202.783596 
L 191.90811 202.81332 
L 192.90811 202.838714 
L 193.90811 202.849915 
L 194.90811 202.860039 
L 195.90811 202.859834 
L 196.90811 202.850324 
L 197.90811 202.838671 
L 198.90811 202.807642 
L 199.90811 202.796474 
L 200.90811 202.766356 
L 201.90811 202.706579 
L 202.90811 202.669388 
L 203.90811 202.630292 
L 204.90811 202.587852 
L 205.90811 202.555087 
L 206.90811 202.48766 
L 207.90811 202.448535 
L 208.90811 202.40586 
L 209.90811 202.335279 
L 210.90811 202.298888 
L 211.90811 202.240485 
L 212.90811 202.129533 
L 213.90811 202.058874 
L 214.90811 201.945935 
L 215.90811 201.900162 
L 217.800088 201.838878 
" clip-path="url(#pf97ebf8fd3)" style="fill: none; stroke: #1f77b4; stroke-opacity: 0.5; stroke-width: 0.2; stroke-linecap: square"/>
   <path d="M 217.800088 44.810642 
L 216.800088 44.779206 
L 215.800088 44.742266 
L 214.800088 44.644519 
L 213.800088 44.611997 
L 212.800088 44.538373 
L 211.800088 44.499807 
L 210.800088 44.464394 
L 209.800088 44.406754 
L 208.800088 44.336368 
L 207.800088 44.284404 
L 206.800088 44.225314 
L 205.800088 44.136993 
L 204.800088 44.090849 
L 203.800088 44.048438 
L 202.800088 44.017945 
L 201.800088 43.9919 
L 200.800088 43.9707 
L 199.800088 43.916399 
L 198.800088 43.888461 
L 197.800088 43.858737 
L 196.800088 43.833343 
L 195.800088 43.822142 
L 194.800088 43.812018 
L 193.800088 43.812223 
L 192.800088 43.821732 
L 191.800088 43.833386 
L 190.800088 43.864415 
L 189.800088 43.875583 
L 188.800088 43.905701 
L 187.800088 43.965478 
L 186.800088 44.002669 
L 185.800088 44.041765 
L 184.800088 44.084205 
L 183.800088 44.11697 
L 182.800088 44.184396 
L 181.800088 44.223522 
L 180.800088 44.266197 
L 179.800088 44.336778 
L 178.800088 44.373168 
L 177.800088 44.431572 
L 176.800088 44.542524 
L 175.800088 44.613182 
L 174.800088 44.726122 
L 173.800088 44.771895 
L 171.90811 44.833178 
" clip-path="url(#pf97ebf8fd3)" style="fill: none; stroke: #ff7f0e; stroke-opacity: 0.5; stroke-width: 0.2; stroke-linecap: square"/>
   <path d="M 217.800088 122.047804 
L 216.800088 122.016368 
L 215.800088 121.979427 
L 214.800088 121.881681 
L 213.800088 121.849159 
L 212.800088 121.775534 
L 211.800088 121.736969 
L 210.800088 121.701556 
L 209.800088 121.643916 
L 208.800088 121.573529 
L 207.800088 121.521565 
L 206.800088 121.462476 
L 205.800088 121.374155 
L 204.800088 121.32801 
L 203.800088 121.285599 
L 202.800088 121.255107 
L 201.800088 121.229062 
L 200.800088 121.207862 
L 199.800088 121.15356 
L 198.800088 121.125623 
L 197.800088 121.095899 
L 196.800088 121.070504 
L 195.800088 121.059304 
L 194.800088 121.04918 
L 193.800088 121.049384 
L 192.800088 121.058894 
L 191.800088 121.070548 
L 190.800088 121.101577 
L 189.800088 121.112745 
L 188.800088 121.142862 
L 187.800088 121.202639 
L 186.800088 121.239831 
L 185.800088 121.278927 
L 184.800088 121.321367 
L 183.800088 121.354132 
L 182.800088 121.421558 
L 181.800088 121.460684 
L 180.800088 121.503359 
L 179.800088 121.573939 
L 178.800088 121.61033 
L 177.800088 121.668733 
L 176.800088 121.779686 
L 175.800088 121.850344 
L 174.800088 121.963284 
L 173.800088 122.009057 
L 171.90811 122.07034 
" clip-path="url(#pf97ebf8fd3)" style="fill: none; stroke: #ff7f0e; stroke-opacity: 0.5; stroke-width: 0.2; stroke-linecap: square"/>
   <path d="M 217.800088 238.623181 
L 216.800088 238.591744 
L 215.800088 238.554804 
L 214.800088 238.457057 
L 213.800088 238.424536 
L 212.800088 238.350911 
L 211.800088 238.312345 
L 210.800088 238.276932 
L 209.800088 238.219292 
L 208.800088 238.148906 
L 207.800088 238.096942 
L 206.800088 238.037852 
L 205.800088 237.949531 
L 204.800088 237.903387 
L 203.800088 237.860976 
L 202.800088 237.830483 
L 201.800088 237.804438 
L 200.800088 237.783238 
L 199.800088 237.728937 
L 198.800088 237.701 
L 197.800088 237.671276 
L 196.800088 237.645881 
L 195.800088 237.63468 
L 194.800088 237.624556 
L 193.800088 237.624761 
L 192.800088 237.634271 
L 191.800088 237.645924 
L 190.800088 237.676953 
L 189.800088 237.688121 
L 188.800088 237.718239 
L 187.800088 237.778016 
L 186.800088 237.815207 
L 185.800088 237.854303 
L 184.800088 237.896743 
L 183.800088 237.929508 
L 182.800088 237.996935 
L 181.800088 238.036061 
L 180.800088 238.078735 
L 179.800088 238.149316 
L 178.800088 238.185707 
L 177.800088 238.24411 
L 176.800088 238.355062 
L 175.800088 238.425721 
L 174.800088 238.53866 
L 173.800088 238.584433 
L 171.90811 238.645717 
" clip-path="url(#pf97ebf8fd3)" style="fill: none; stroke: #ff7f0e; stroke-opacity: 0.5; stroke-width: 0.2; stroke-linecap: square"/>
   <path d="M 217.800088 171.028906 
L 216.800088 170.99747 
L 215.800088 170.96053 
L 214.800088 170.862783 
L 213.800088 170.830262 
L 212.800088 170.756637 
L 211.800088 170.718071 
L 210.800088 170.682658 
L 209.800088 170.625018 
L 208.800088 170.554632 
L 207.800088 170.502668 
L 206.800088 170.443578 
L 205.800088 170.355257 
L 204.800088 170.309113 
L 203.800088 170.266702 
L 202.800088 170.236209 
L 201.800088 170.210164 
L 200.800088 170.188964 
L 199.800088 170.134663 
L 198.800088 170.106725 
L 197.800088 170.077001 
L 196.800088 170.051607 
L 195.800088 170.040406 
L 194.800088 170.030282 
L 193.800088 170.030487 
L 192.800088 170.039996 
L 191.800088 170.05165 
L 190.800088 170.082679 
L 189.800088 170.093847 
L 188.800088 170.123965 
L 187.800088 170.183742 
L 186.800088 170.220933 
L 185.800088 170.260029 
L 184.800088 170.302469 
L 183.800088 170.335234 
L 182.800088 170.402661 
L 181.800088 170.441786 
L 180.800088 170.484461 
L 179.800088 170.555042 
L 178.800088 170.591432 
L 177.800088 170.649836 
L 176.800088 170.760788 
L 175.800088 170.831447 
L 174.800088 170.944386 
L 173.800088 170.990159 
L 171.90811 171.051442 
" clip-path="url(#pf97ebf8fd3)" style="fill: none; stroke: #ff7f0e; stroke-opacity: 0.5; stroke-width: 0.2; stroke-linecap: square"/>
   <path d="M 217.800088 117.337627 
L 216.800088 117.306191 
L 215.800088 117.269251 
L 214.800088 117.171504 
L 213.800088 117.138982 
L 212.800088 117.065358 
L 211.800088 117.026792 
L 210.800088 116.991379 
L 209.800088 116.933739 
L 208.800088 116.863353 
L 207.800088 116.811389 
L 206.800088 116.752299 
L 205.800088 116.663978 
L 204.800088 116.617834 
L 203.800088 116.575423 
L 202.800088 116.54493 
L 201.800088 116.518885 
L 200.800088 116.497685 
L 199.800088 116.443384 
L 198.800088 116.415446 
L 197.800088 116.385722 
L 196.800088 116.360328 
L 195.800088 116.349127 
L 194.800088 116.339003 
L 193.800088 116.339208 
L 192.800088 116.348717 
L 191.800088 116.360371 
L 190.800088 116.3914 
L 189.800088 116.402568 
L 188.800088 116.432686 
L 187.800088 116.492463 
L 186.800088 116.529654 
L 185.800088 116.56875 
L 184.800088 116.61119 
L 183.800088 116.643955 
L 182.800088 116.711381 
L 181.800088 116.750507 
L 180.800088 116.793182 
L 179.800088 116.863763 
L 178.800088 116.900153 
L 177.800088 116.958557 
L 176.800088 117.069509 
L 175.800088 117.140167 
L 174.800088 117.253107 
L 173.800088 117.29888 
L 171.90811 117.360163 
" clip-path="url(#pf97ebf8fd3)" style="fill: none; stroke: #ff7f0e; stroke-opacity: 0.5; stroke-width: 0.2; stroke-linecap: square"/>
   <path d="M 217.800088 98.779961 
L 216.800088 98.748525 
L 215.800088 98.711585 
L 214.800088 98.613838 
L 213.800088 98.581316 
L 212.800088 98.507692 
L 211.800088 98.469126 
L 210.800088 98.433713 
L 209.800088 98.376073 
L 208.800088 98.305687 
L 207.800088 98.253723 
L 206.800088 98.194633 
L 205.800088 98.106312 
L 204.800088 98.060168 
L 203.800088 98.017757 
L 202.800088 97.987264 
L 201.800088 97.961219 
L 200.800088 97.940019 
L 199.800088 97.885718 
L 198.800088 97.85778 
L 197.800088 97.828056 
L 196.800088 97.802662 
L 195.800088 97.791461 
L 194.800088 97.781337 
L 193.800088 97.781542 
L 192.800088 97.791051 
L 191.800088 97.802705 
L 190.800088 97.833734 
L 189.800088 97.844902 
L 188.800088 97.87502 
L 187.800088 97.934797 
L 186.800088 97.971988 
L 185.800088 98.011084 
L 184.800088 98.053524 
L 183.800088 98.086289 
L 182.800088 98.153716 
L 181.800088 98.192841 
L 180.800088 98.235516 
L 179.800088 98.306097 
L 178.800088 98.342487 
L 177.800088 98.400891 
L 176.800088 98.511843 
L 175.800088 98.582502 
L 174.800088 98.695441 
L 173.800088 98.741214 
L 171.90811 98.802497 
" clip-path="url(#pf97ebf8fd3)" style="fill: none; stroke: #ff7f0e; stroke-opacity: 0.5; stroke-width: 0.2; stroke-linecap: square"/>
   <path d="M 217.800088 259.727288 
L 216.800088 259.695852 
L 215.800088 259.658912 
L 214.800088 259.561165 
L 213.800088 259.528644 
L 212.800088 259.455019 
L 211.800088 259.416453 
L 210.800088 259.38104 
L 209.800088 259.3234 
L 208.800088 259.253014 
L 207.800088 259.20105 
L 206.800088 259.14196 
L 205.800088 259.053639 
L 204.800088 259.007495 
L 203.800088 258.965084 
L 202.800088 258.934591 
L 201.800088 258.908546 
L 200.800088 258.887346 
L 199.800088 258.833045 
L 198.800088 258.805107 
L 197.800088 258.775383 
L 196.800088 258.749989 
L 195.800088 258.738788 
L 194.800088 258.728664 
L 193.800088 258.728869 
L 192.800088 258.738379 
L 191.800088 258.750032 
L 190.800088 258.781061 
L 189.800088 258.792229 
L 188.800088 258.822347 
L 187.800088 258.882124 
L 186.800088 258.919315 
L 185.800088 258.958411 
L 184.800088 259.000851 
L 183.800088 259.033616 
L 182.800088 259.101043 
L 181.800088 259.140169 
L 180.800088 259.182843 
L 179.800088 259.253424 
L 178.800088 259.289815 
L 177.800088 259.348218 
L 176.800088 259.45917 
L 175.800088 259.529829 
L 174.800088 259.642768 
L 173.800088 259.688541 
L 171.90811 259.749825 
" clip-path="url(#pf97ebf8fd3)" style="fill: none; stroke: #ff7f0e; stroke-opacity: 0.5; stroke-width: 0.2; stroke-linecap: square"/>
   <path d="M 217.800088 50.441564 
L 216.800088 50.410127 
L 215.800088 50.373187 
L 214.800088 50.27544 
L 213.800088 50.242919 
L 212.800088 50.169294 
L 211.800088 50.130728 
L 210.800088 50.095315 
L 209.800088 50.037675 
L 208.800088 49.967289 
L 207.800088 49.915325 
L 206.800088 49.856235 
L 205.800088 49.767914 
L 204.800088 49.72177 
L 203.800088 49.679359 
L 202.800088 49.648866 
L 201.800088 49.622821 
L 200.800088 49.601621 
L 199.800088 49.54732 
L 198.800088 49.519383 
L 197.800088 49.489659 
L 196.800088 49.464264 
L 195.800088 49.453063 
L 194.800088 49.442939 
L 193.800088 49.443144 
L 192.800088 49.452654 
L 191.800088 49.464307 
L 190.800088 49.495336 
L 189.800088 49.506504 
L 188.800088 49.536622 
L 187.800088 49.596399 
L 186.800088 49.63359 
L 185.800088 49.672686 
L 184.800088 49.715126 
L 183.800088 49.747891 
L 182.800088 49.815318 
L 181.800088 49.854444 
L 180.800088 49.897118 
L 179.800088 49.967699 
L 178.800088 50.00409 
L 177.800088 50.062493 
L 176.800088 50.173445 
L 175.800088 50.244104 
L 174.800088 50.357043 
L 173.800088 50.402816 
L 171.90811 50.4641 
" clip-path="url(#pf97ebf8fd3)" style="fill: none; stroke: #ff7f0e; stroke-opacity: 0.5; stroke-width: 0.2; stroke-linecap: square"/>
   <path d="M 217.800088 111.009232 
L 216.800088 110.977795 
L 215.800088 110.940855 
L 214.800088 110.843108 
L 213.800088 110.810587 
L 212.800088 110.736962 
L 211.800088 110.698396 
L 210.800088 110.662983 
L 209.800088 110.605343 
L 208.800088 110.534957 
L 207.800088 110.482993 
L 206.800088 110.423903 
L 205.800088 110.335582 
L 204.800088 110.289438 
L 203.800088 110.247027 
L 202.800088 110.216534 
L 201.800088 110.190489 
L 200.800088 110.169289 
L 199.800088 110.114988 
L 198.800088 110.087051 
L 197.800088 110.057327 
L 196.800088 110.031932 
L 195.800088 110.020731 
L 194.800088 110.010607 
L 193.800088 110.010812 
L 192.800088 110.020322 
L 191.800088 110.031975 
L 190.800088 110.063004 
L 189.800088 110.074172 
L 188.800088 110.10429 
L 187.800088 110.164067 
L 186.800088 110.201258 
L 185.800088 110.240354 
L 184.800088 110.282794 
L 183.800088 110.315559 
L 182.800088 110.382986 
L 181.800088 110.422112 
L 180.800088 110.464786 
L 179.800088 110.535367 
L 178.800088 110.571758 
L 177.800088 110.630161 
L 176.800088 110.741113 
L 175.800088 110.811772 
L 174.800088 110.924711 
L 173.800088 110.970484 
L 171.90811 111.031768 
" clip-path="url(#pf97ebf8fd3)" style="fill: none; stroke: #ff7f0e; stroke-opacity: 0.5; stroke-width: 0.2; stroke-linecap: square"/>
   <path d="M 217.800088 195.310139 
L 216.800088 195.278703 
L 215.800088 195.241763 
L 214.800088 195.144016 
L 213.800088 195.111495 
L 212.800088 195.03787 
L 211.800088 194.999304 
L 210.800088 194.963891 
L 209.800088 194.906251 
L 208.800088 194.835865 
L 207.800088 194.783901 
L 206.800088 194.724811 
L 205.800088 194.63649 
L 204.800088 194.590346 
L 203.800088 194.547935 
L 202.800088 194.517442 
L 201.800088 194.491397 
L 200.800088 194.470197 
L 199.800088 194.415896 
L 198.800088 194.387958 
L 197.800088 194.358234 
L 196.800088 194.33284 
L 195.800088 194.321639 
L 194.800088 194.311515 
L 193.800088 194.31172 
L 192.800088 194.32123 
L 191.800088 194.332883 
L 190.800088 194.363912 
L 189.800088 194.37508 
L 188.800088 194.405198 
L 187.800088 194.464975 
L 186.800088 194.502166 
L 185.800088 194.541262 
L 184.800088 194.583702 
L 183.800088 194.616467 
L 182.800088 194.683894 
L 181.800088 194.723019 
L 180.800088 194.765694 
L 179.800088 194.836275 
L 178.800088 194.872665 
L 177.800088 194.931069 
L 176.800088 195.042021 
L 175.800088 195.11268 
L 174.800088 195.225619 
L 173.800088 195.271392 
L 171.90811 195.332676 
" clip-path="url(#pf97ebf8fd3)" style="fill: none; stroke: #ff7f0e; stroke-opacity: 0.5; stroke-width: 0.2; stroke-linecap: square"/>
   <path d="M 326.765537 66.225858 
L 327.765537 66.257294 
L 328.765537 66.294235 
L 329.765537 66.391981 
L 330.765537 66.424503 
L 331.765537 66.498128 
L 332.765537 66.536693 
L 333.765537 66.572106 
L 334.765537 66.629746 
L 335.765537 66.700132 
L 336.765537 66.752097 
L 337.765537 66.811186 
L 338.765537 66.899507 
L 339.765537 66.945652 
L 340.765537 66.988063 
L 341.765537 67.018555 
L 342.765537 67.0446 
L 343.765537 67.0658 
L 344.765537 67.120101 
L 345.765537 67.148039 
L 346.765537 67.177763 
L 347.765537 67.203158 
L 348.765537 67.214358 
L 349.765537 67.224482 
L 350.765537 67.224278 
L 351.765537 67.214768 
L 352.765537 67.203114 
L 353.765537 67.172085 
L 354.765537 67.160917 
L 355.765537 67.1308 
L 356.765537 67.071023 
L 357.765537 67.033831 
L 358.765537 66.994735 
L 359.765537 66.952295 
L 360.765537 66.91953 
L 361.765537 66.852104 
L 362.765537 66.812978 
L 363.765537 66.770303 
L 364.765537 66.699723 
L 365.765537 66.663332 
L 366.765537 66.604929 
L 367.765537 66.493976 
L 368.765537 66.423318 
L 369.765537 66.310378 
L 370.765537 66.264605 
L 372.657515 66.203322 
" clip-path="url(#pf97ebf8fd3)" style="fill: none; stroke: #ff7f0e; stroke-opacity: 0.5; stroke-width: 0.2; stroke-linecap: square"/>
   <path d="M 326.765537 148.959538 
L 327.765537 148.990974 
L 328.765537 149.027915 
L 329.765537 149.125661 
L 330.765537 149.158183 
L 331.765537 149.231807 
L 332.765537 149.270373 
L 333.765537 149.305786 
L 334.765537 149.363426 
L 335.765537 149.433812 
L 336.765537 149.485776 
L 337.765537 149.544866 
L 338.765537 149.633187 
L 339.765537 149.679332 
L 340.765537 149.721742 
L 341.765537 149.752235 
L 342.765537 149.77828 
L 343.765537 149.79948 
L 344.765537 149.853781 
L 345.765537 149.881719 
L 346.765537 149.911443 
L 347.765537 149.936838 
L 348.765537 149.948038 
L 349.765537 149.958162 
L 350.765537 149.957958 
L 351.765537 149.948448 
L 352.765537 149.936794 
L 353.765537 149.905765 
L 354.765537 149.894597 
L 355.765537 149.864479 
L 356.765537 149.804703 
L 357.765537 149.767511 
L 358.765537 149.728415 
L 359.765537 149.685975 
L 360.765537 149.65321 
L 361.765537 149.585784 
L 362.765537 149.546658 
L 363.765537 149.503983 
L 364.765537 149.433403 
L 365.765537 149.397012 
L 366.765537 149.338609 
L 367.765537 149.227656 
L 368.765537 149.156998 
L 369.765537 149.044058 
L 370.765537 148.998285 
L 372.657515 148.937002 
" clip-path="url(#pf97ebf8fd3)" style="fill: none; stroke: #ff7f0e; stroke-opacity: 0.5; stroke-width: 0.2; stroke-linecap: square"/>
   <path d="M 326.765537 82.531088 
L 327.765537 82.562524 
L 328.765537 82.599465 
L 329.765537 82.697211 
L 330.765537 82.729733 
L 331.765537 82.803358 
L 332.765537 82.841923 
L 333.765537 82.877336 
L 334.765537 82.934976 
L 335.765537 83.005363 
L 336.765537 83.057327 
L 337.765537 83.116417 
L 338.765537 83.204737 
L 339.765537 83.250882 
L 340.765537 83.293293 
L 341.765537 83.323785 
L 342.765537 83.34983 
L 343.765537 83.37103 
L 344.765537 83.425332 
L 345.765537 83.453269 
L 346.765537 83.482993 
L 347.765537 83.508388 
L 348.765537 83.519588 
L 349.765537 83.529712 
L 350.765537 83.529508 
L 351.765537 83.519998 
L 352.765537 83.508344 
L 353.765537 83.477315 
L 354.765537 83.466147 
L 355.765537 83.43603 
L 356.765537 83.376253 
L 357.765537 83.339061 
L 358.765537 83.299965 
L 359.765537 83.257526 
L 360.765537 83.22476 
L 361.765537 83.157334 
L 362.765537 83.118208 
L 363.765537 83.075534 
L 364.765537 83.004953 
L 365.765537 82.968562 
L 366.765537 82.910159 
L 367.765537 82.799206 
L 368.765537 82.728548 
L 369.765537 82.615608 
L 370.765537 82.569835 
L 372.657515 82.508552 
" clip-path="url(#pf97ebf8fd3)" style="fill: none; stroke: #ff7f0e; stroke-opacity: 0.5; stroke-width: 0.2; stroke-linecap: square"/>
   <path d="M 326.765537 176.378058 
L 327.765537 176.409495 
L 328.765537 176.446435 
L 329.765537 176.544181 
L 330.765537 176.576703 
L 331.765537 176.650328 
L 332.765537 176.688893 
L 333.765537 176.724306 
L 334.765537 176.781946 
L 335.765537 176.852333 
L 336.765537 176.904297 
L 337.765537 176.963387 
L 338.765537 177.051708 
L 339.765537 177.097852 
L 340.765537 177.140263 
L 341.765537 177.170755 
L 342.765537 177.1968 
L 343.765537 177.218 
L 344.765537 177.272302 
L 345.765537 177.300239 
L 346.765537 177.329963 
L 347.765537 177.355358 
L 348.765537 177.366558 
L 349.765537 177.376682 
L 350.765537 177.376478 
L 351.765537 177.366968 
L 352.765537 177.355315 
L 353.765537 177.324285 
L 354.765537 177.313117 
L 355.765537 177.283 
L 356.765537 177.223223 
L 357.765537 177.186031 
L 358.765537 177.146935 
L 359.765537 177.104496 
L 360.765537 177.07173 
L 361.765537 177.004304 
L 362.765537 176.965178 
L 363.765537 176.922504 
L 364.765537 176.851923 
L 365.765537 176.815532 
L 366.765537 176.757129 
L 367.765537 176.646176 
L 368.765537 176.575518 
L 369.765537 176.462578 
L 370.765537 176.416805 
L 372.657515 176.355522 
" clip-path="url(#pf97ebf8fd3)" style="fill: none; stroke: #ff7f0e; stroke-opacity: 0.5; stroke-width: 0.2; stroke-linecap: square"/>
   <path d="M 326.765537 157.404269 
L 327.765537 157.435705 
L 328.765537 157.472646 
L 329.765537 157.570392 
L 330.765537 157.602914 
L 331.765537 157.676539 
L 332.765537 157.715104 
L 333.765537 157.750517 
L 334.765537 157.808157 
L 335.765537 157.878543 
L 336.765537 157.930508 
L 337.765537 157.989597 
L 338.765537 158.077918 
L 339.765537 158.124063 
L 340.765537 158.166474 
L 341.765537 158.196966 
L 342.765537 158.223011 
L 343.765537 158.244211 
L 344.765537 158.298512 
L 345.765537 158.32645 
L 346.765537 158.356174 
L 347.765537 158.381569 
L 348.765537 158.392769 
L 349.765537 158.402893 
L 350.765537 158.402689 
L 351.765537 158.393179 
L 352.765537 158.381525 
L 353.765537 158.350496 
L 354.765537 158.339328 
L 355.765537 158.309211 
L 356.765537 158.249434 
L 357.765537 158.212242 
L 358.765537 158.173146 
L 359.765537 158.130706 
L 360.765537 158.097941 
L 361.765537 158.030515 
L 362.765537 157.991389 
L 363.765537 157.948714 
L 364.765537 157.878134 
L 365.765537 157.841743 
L 366.765537 157.78334 
L 367.765537 157.672387 
L 368.765537 157.601729 
L 369.765537 157.488789 
L 370.765537 157.443016 
L 372.657515 157.381733 
" clip-path="url(#pf97ebf8fd3)" style="fill: none; stroke: #ff7f0e; stroke-opacity: 0.5; stroke-width: 0.2; stroke-linecap: square"/>
   <path d="M 326.765537 121.438515 
L 327.765537 121.469952 
L 328.765537 121.506892 
L 329.765537 121.604638 
L 330.765537 121.63716 
L 331.765537 121.710785 
L 332.765537 121.74935 
L 333.765537 121.784764 
L 334.765537 121.842403 
L 335.765537 121.91279 
L 336.765537 121.964754 
L 337.765537 122.023844 
L 338.765537 122.112165 
L 339.765537 122.158309 
L 340.765537 122.20072 
L 341.765537 122.231212 
L 342.765537 122.257257 
L 343.765537 122.278458 
L 344.765537 122.332759 
L 345.765537 122.360696 
L 346.765537 122.39042 
L 347.765537 122.415815 
L 348.765537 122.427015 
L 349.765537 122.437139 
L 350.765537 122.436935 
L 351.765537 122.427425 
L 352.765537 122.415772 
L 353.765537 122.384742 
L 354.765537 122.373574 
L 355.765537 122.343457 
L 356.765537 122.28368 
L 357.765537 122.246488 
L 358.765537 122.207392 
L 359.765537 122.164953 
L 360.765537 122.132188 
L 361.765537 122.064761 
L 362.765537 122.025635 
L 363.765537 121.982961 
L 364.765537 121.91238 
L 365.765537 121.875989 
L 366.765537 121.817586 
L 367.765537 121.706633 
L 368.765537 121.635975 
L 369.765537 121.523035 
L 370.765537 121.477262 
L 372.657515 121.415979 
" clip-path="url(#pf97ebf8fd3)" style="fill: none; stroke: #ff7f0e; stroke-opacity: 0.5; stroke-width: 0.2; stroke-linecap: square"/>
   <path d="M 326.765537 201.793248 
L 327.765537 201.824684 
L 328.765537 201.861625 
L 329.765537 201.959371 
L 330.765537 201.991893 
L 331.765537 202.065518 
L 332.765537 202.104083 
L 333.765537 202.139496 
L 334.765537 202.197136 
L 335.765537 202.267523 
L 336.765537 202.319487 
L 337.765537 202.378577 
L 338.765537 202.466897 
L 339.765537 202.513042 
L 340.765537 202.555453 
L 341.765537 202.585945 
L 342.765537 202.61199 
L 343.765537 202.63319 
L 344.765537 202.687492 
L 345.765537 202.715429 
L 346.765537 202.745153 
L 347.765537 202.770548 
L 348.765537 202.781748 
L 349.765537 202.791872 
L 350.765537 202.791668 
L 351.765537 202.782158 
L 352.765537 202.770504 
L 353.765537 202.739475 
L 354.765537 202.728307 
L 355.765537 202.69819 
L 356.765537 202.638413 
L 357.765537 202.601221 
L 358.765537 202.562125 
L 359.765537 202.519686 
L 360.765537 202.48692 
L 361.765537 202.419494 
L 362.765537 202.380368 
L 363.765537 202.337694 
L 364.765537 202.267113 
L 365.765537 202.230722 
L 366.765537 202.172319 
L 367.765537 202.061366 
L 368.765537 201.990708 
L 369.765537 201.877768 
L 370.765537 201.831995 
L 372.657515 201.770712 
" clip-path="url(#pf97ebf8fd3)" style="fill: none; stroke: #ff7f0e; stroke-opacity: 0.5; stroke-width: 0.2; stroke-linecap: square"/>
   <path d="M 326.765537 128.512982 
L 327.765537 128.544419 
L 328.765537 128.581359 
L 329.765537 128.679106 
L 330.765537 128.711627 
L 331.765537 128.785252 
L 332.765537 128.823817 
L 333.765537 128.859231 
L 334.765537 128.91687 
L 335.765537 128.987257 
L 336.765537 129.039221 
L 337.765537 129.098311 
L 338.765537 129.186632 
L 339.765537 129.232776 
L 340.765537 129.275187 
L 341.765537 129.30568 
L 342.765537 129.331724 
L 343.765537 129.352925 
L 344.765537 129.407226 
L 345.765537 129.435163 
L 346.765537 129.464887 
L 347.765537 129.490282 
L 348.765537 129.501482 
L 349.765537 129.511606 
L 350.765537 129.511402 
L 351.765537 129.501892 
L 352.765537 129.490239 
L 353.765537 129.459209 
L 354.765537 129.448041 
L 355.765537 129.417924 
L 356.765537 129.358147 
L 357.765537 129.320955 
L 358.765537 129.281859 
L 359.765537 129.23942 
L 360.765537 129.206655 
L 361.765537 129.139228 
L 362.765537 129.100102 
L 363.765537 129.057428 
L 364.765537 128.986847 
L 365.765537 128.950456 
L 366.765537 128.892053 
L 367.765537 128.7811 
L 368.765537 128.710442 
L 369.765537 128.597502 
L 370.765537 128.551729 
L 372.657515 128.490446 
" clip-path="url(#pf97ebf8fd3)" style="fill: none; stroke: #ff7f0e; stroke-opacity: 0.5; stroke-width: 0.2; stroke-linecap: square"/>
   <path d="M 326.765537 179.179735 
L 327.765537 179.211171 
L 328.765537 179.248111 
L 329.765537 179.345858 
L 330.765537 179.37838 
L 331.765537 179.452004 
L 332.765537 179.49057 
L 333.765537 179.525983 
L 334.765537 179.583623 
L 335.765537 179.654009 
L 336.765537 179.705973 
L 337.765537 179.765063 
L 338.765537 179.853384 
L 339.765537 179.899528 
L 340.765537 179.941939 
L 341.765537 179.972432 
L 342.765537 179.998477 
L 343.765537 180.019677 
L 344.765537 180.073978 
L 345.765537 180.101916 
L 346.765537 180.13164 
L 347.765537 180.157034 
L 348.765537 180.168235 
L 349.765537 180.178359 
L 350.765537 180.178154 
L 351.765537 180.168645 
L 352.765537 180.156991 
L 353.765537 180.125962 
L 354.765537 180.114794 
L 355.765537 180.084676 
L 356.765537 180.024899 
L 357.765537 179.987708 
L 358.765537 179.948612 
L 359.765537 179.906172 
L 360.765537 179.873407 
L 361.765537 179.805981 
L 362.765537 179.766855 
L 363.765537 179.72418 
L 364.765537 179.653599 
L 365.765537 179.617209 
L 366.765537 179.558805 
L 367.765537 179.447853 
L 368.765537 179.377195 
L 369.765537 179.264255 
L 370.765537 179.218482 
L 372.657515 179.157199 
" clip-path="url(#pf97ebf8fd3)" style="fill: none; stroke: #ff7f0e; stroke-opacity: 0.5; stroke-width: 0.2; stroke-linecap: square"/>
   <path d="M 326.765537 246.993096 
L 327.765537 247.024532 
L 328.765537 247.061473 
L 329.765537 247.159219 
L 330.765537 247.191741 
L 331.765537 247.265366 
L 332.765537 247.303931 
L 333.765537 247.339344 
L 334.765537 247.396984 
L 335.765537 247.46737 
L 336.765537 247.519335 
L 337.765537 247.578424 
L 338.765537 247.666745 
L 339.765537 247.71289 
L 340.765537 247.755301 
L 341.765537 247.785793 
L 342.765537 247.811838 
L 343.765537 247.833038 
L 344.765537 247.887339 
L 345.765537 247.915277 
L 346.765537 247.945001 
L 347.765537 247.970396 
L 348.765537 247.981596 
L 349.765537 247.99172 
L 350.765537 247.991516 
L 351.765537 247.982006 
L 352.765537 247.970352 
L 353.765537 247.939323 
L 354.765537 247.928155 
L 355.765537 247.898038 
L 356.765537 247.838261 
L 357.765537 247.801069 
L 358.765537 247.761973 
L 359.765537 247.719533 
L 360.765537 247.686768 
L 361.765537 247.619342 
L 362.765537 247.580216 
L 363.765537 247.537541 
L 364.765537 247.466961 
L 365.765537 247.43057 
L 366.765537 247.372167 
L 367.765537 247.261214 
L 368.765537 247.190556 
L 369.765537 247.077616 
L 370.765537 247.031843 
L 372.657515 246.97056 
" clip-path="url(#pf97ebf8fd3)" style="fill: none; stroke: #ff7f0e; stroke-opacity: 0.5; stroke-width: 0.2; stroke-linecap: square"/>
   <path d="M 372.657515 176.890321 
L 371.657515 176.858885 
L 370.657515 176.821944 
L 369.657515 176.724198 
L 368.657515 176.691676 
L 367.657515 176.618051 
L 366.657515 176.579486 
L 365.657515 176.544073 
L 364.657515 176.486433 
L 363.657515 176.416046 
L 362.657515 176.364082 
L 361.657515 176.304993 
L 360.657515 176.216672 
L 359.657515 176.170527 
L 358.657515 176.128116 
L 357.657515 176.097624 
L 356.657515 176.071579 
L 355.657515 176.050379 
L 354.657515 175.996077 
L 353.657515 175.96814 
L 352.657515 175.938416 
L 351.657515 175.913021 
L 350.657515 175.901821 
L 349.657515 175.891697 
L 348.657515 175.891901 
L 347.657515 175.901411 
L 346.657515 175.913065 
L 345.657515 175.944094 
L 344.657515 175.955262 
L 343.657515 175.985379 
L 342.657515 176.045156 
L 341.657515 176.082348 
L 340.657515 176.121444 
L 339.657515 176.163884 
L 338.657515 176.196649 
L 337.657515 176.264075 
L 336.657515 176.303201 
L 335.657515 176.345876 
L 334.657515 176.416456 
L 333.657515 176.452847 
L 332.657515 176.51125 
L 331.657515 176.622203 
L 330.657515 176.692861 
L 329.657515 176.805801 
L 328.657515 176.851574 
L 326.765537 176.912857 
" clip-path="url(#pf97ebf8fd3)" style="fill: none; stroke: #2ca02c; stroke-opacity: 0.5; stroke-width: 0.2; stroke-linecap: square"/>
   <path d="M 372.657515 54.580032 
L 371.657515 54.548596 
L 370.657515 54.511655 
L 369.657515 54.413909 
L 368.657515 54.381387 
L 367.657515 54.307763 
L 366.657515 54.269197 
L 365.657515 54.233784 
L 364.657515 54.176144 
L 363.657515 54.105758 
L 362.657515 54.053794 
L 361.657515 53.994704 
L 360.657515 53.906383 
L 359.657515 53.860238 
L 358.657515 53.817828 
L 357.657515 53.787335 
L 356.657515 53.76129 
L 355.657515 53.74009 
L 354.657515 53.685789 
L 353.657515 53.657851 
L 352.657515 53.628127 
L 351.657515 53.602732 
L 350.657515 53.591532 
L 349.657515 53.581408 
L 348.657515 53.581612 
L 347.657515 53.591122 
L 346.657515 53.602776 
L 345.657515 53.633805 
L 344.657515 53.644973 
L 343.657515 53.675091 
L 342.657515 53.734867 
L 341.657515 53.772059 
L 340.657515 53.811155 
L 339.657515 53.853595 
L 338.657515 53.88636 
L 337.657515 53.953786 
L 336.657515 53.992912 
L 335.657515 54.035587 
L 334.657515 54.106167 
L 333.657515 54.142558 
L 332.657515 54.200961 
L 331.657515 54.311914 
L 330.657515 54.382572 
L 329.657515 54.495512 
L 328.657515 54.541285 
L 326.765537 54.602568 
" clip-path="url(#pf97ebf8fd3)" style="fill: none; stroke: #2ca02c; stroke-opacity: 0.5; stroke-width: 0.2; stroke-linecap: square"/>
   <path d="M 372.657515 70.009001 
L 371.657515 69.977565 
L 370.657515 69.940624 
L 369.657515 69.842878 
L 368.657515 69.810356 
L 367.657515 69.736731 
L 366.657515 69.698166 
L 365.657515 69.662753 
L 364.657515 69.605113 
L 363.657515 69.534727 
L 362.657515 69.482762 
L 361.657515 69.423673 
L 360.657515 69.335352 
L 359.657515 69.289207 
L 358.657515 69.246796 
L 357.657515 69.216304 
L 356.657515 69.190259 
L 355.657515 69.169059 
L 354.657515 69.114758 
L 353.657515 69.08682 
L 352.657515 69.057096 
L 351.657515 69.031701 
L 350.657515 69.020501 
L 349.657515 69.010377 
L 348.657515 69.010581 
L 347.657515 69.020091 
L 346.657515 69.031745 
L 345.657515 69.062774 
L 344.657515 69.073942 
L 343.657515 69.104059 
L 342.657515 69.163836 
L 341.657515 69.201028 
L 340.657515 69.240124 
L 339.657515 69.282564 
L 338.657515 69.315329 
L 337.657515 69.382755 
L 336.657515 69.421881 
L 335.657515 69.464556 
L 334.657515 69.535136 
L 333.657515 69.571527 
L 332.657515 69.62993 
L 331.657515 69.740883 
L 330.657515 69.811541 
L 329.657515 69.924481 
L 328.657515 69.970254 
L 326.765537 70.031537 
" clip-path="url(#pf97ebf8fd3)" style="fill: none; stroke: #2ca02c; stroke-opacity: 0.5; stroke-width: 0.2; stroke-linecap: square"/>
   <path d="M 372.657515 33.745178 
L 371.657515 33.713742 
L 370.657515 33.676802 
L 369.657515 33.579055 
L 368.657515 33.546533 
L 367.657515 33.472909 
L 366.657515 33.434343 
L 365.657515 33.39893 
L 364.657515 33.34129 
L 363.657515 33.270904 
L 362.657515 33.21894 
L 361.657515 33.15985 
L 360.657515 33.071529 
L 359.657515 33.025385 
L 358.657515 32.982974 
L 357.657515 32.952481 
L 356.657515 32.926436 
L 355.657515 32.905236 
L 354.657515 32.850935 
L 353.657515 32.822997 
L 352.657515 32.793273 
L 351.657515 32.767879 
L 350.657515 32.756678 
L 349.657515 32.746554 
L 348.657515 32.746759 
L 347.657515 32.756268 
L 346.657515 32.767922 
L 345.657515 32.798951 
L 344.657515 32.810119 
L 343.657515 32.840237 
L 342.657515 32.900014 
L 341.657515 32.937205 
L 340.657515 32.976301 
L 339.657515 33.018741 
L 338.657515 33.051506 
L 337.657515 33.118933 
L 336.657515 33.158058 
L 335.657515 33.200733 
L 334.657515 33.271314 
L 333.657515 33.307704 
L 332.657515 33.366108 
L 331.657515 33.47706 
L 330.657515 33.547718 
L 329.657515 33.660658 
L 328.657515 33.706431 
L 326.765537 33.767714 
" clip-path="url(#pf97ebf8fd3)" style="fill: none; stroke: #2ca02c; stroke-opacity: 0.5; stroke-width: 0.2; stroke-linecap: square"/>
   <path d="M 372.657515 54.233341 
L 371.657515 54.201904 
L 370.657515 54.164964 
L 369.657515 54.067217 
L 368.657515 54.034696 
L 367.657515 53.961071 
L 366.657515 53.922505 
L 365.657515 53.887092 
L 364.657515 53.829452 
L 363.657515 53.759066 
L 362.657515 53.707102 
L 361.657515 53.648012 
L 360.657515 53.559691 
L 359.657515 53.513547 
L 358.657515 53.471136 
L 357.657515 53.440643 
L 356.657515 53.414598 
L 355.657515 53.393398 
L 354.657515 53.339097 
L 353.657515 53.31116 
L 352.657515 53.281436 
L 351.657515 53.256041 
L 350.657515 53.24484 
L 349.657515 53.234716 
L 348.657515 53.234921 
L 347.657515 53.244431 
L 346.657515 53.256084 
L 345.657515 53.287114 
L 344.657515 53.298281 
L 343.657515 53.328399 
L 342.657515 53.388176 
L 341.657515 53.425367 
L 340.657515 53.464464 
L 339.657515 53.506903 
L 338.657515 53.539668 
L 337.657515 53.607095 
L 336.657515 53.646221 
L 335.657515 53.688895 
L 334.657515 53.759476 
L 333.657515 53.795867 
L 332.657515 53.85427 
L 331.657515 53.965222 
L 330.657515 54.035881 
L 329.657515 54.148821 
L 328.657515 54.194593 
L 326.765537 54.255877 
" clip-path="url(#pf97ebf8fd3)" style="fill: none; stroke: #2ca02c; stroke-opacity: 0.5; stroke-width: 0.2; stroke-linecap: square"/>
   <path d="M 372.657515 49.25339 
L 371.657515 49.221954 
L 370.657515 49.185014 
L 369.657515 49.087267 
L 368.657515 49.054745 
L 367.657515 48.981121 
L 366.657515 48.942555 
L 365.657515 48.907142 
L 364.657515 48.849502 
L 363.657515 48.779116 
L 362.657515 48.727152 
L 361.657515 48.668062 
L 360.657515 48.579741 
L 359.657515 48.533597 
L 358.657515 48.491186 
L 357.657515 48.460693 
L 356.657515 48.434648 
L 355.657515 48.413448 
L 354.657515 48.359147 
L 353.657515 48.331209 
L 352.657515 48.301485 
L 351.657515 48.276091 
L 350.657515 48.26489 
L 349.657515 48.254766 
L 348.657515 48.254971 
L 347.657515 48.26448 
L 346.657515 48.276134 
L 345.657515 48.307163 
L 344.657515 48.318331 
L 343.657515 48.348449 
L 342.657515 48.408226 
L 341.657515 48.445417 
L 340.657515 48.484513 
L 339.657515 48.526953 
L 338.657515 48.559718 
L 337.657515 48.627144 
L 336.657515 48.66627 
L 335.657515 48.708945 
L 334.657515 48.779526 
L 333.657515 48.815916 
L 332.657515 48.87432 
L 331.657515 48.985272 
L 330.657515 49.05593 
L 329.657515 49.16887 
L 328.657515 49.214643 
L 326.765537 49.275926 
" clip-path="url(#pf97ebf8fd3)" style="fill: none; stroke: #2ca02c; stroke-opacity: 0.5; stroke-width: 0.2; stroke-linecap: square"/>
   <path d="M 372.657515 167.283678 
L 371.657515 167.252242 
L 370.657515 167.215302 
L 369.657515 167.117555 
L 368.657515 167.085034 
L 367.657515 167.011409 
L 366.657515 166.972843 
L 365.657515 166.93743 
L 364.657515 166.87979 
L 363.657515 166.809404 
L 362.657515 166.75744 
L 361.657515 166.69835 
L 360.657515 166.610029 
L 359.657515 166.563885 
L 358.657515 166.521474 
L 357.657515 166.490981 
L 356.657515 166.464936 
L 355.657515 166.443736 
L 354.657515 166.389435 
L 353.657515 166.361497 
L 352.657515 166.331773 
L 351.657515 166.306379 
L 350.657515 166.295178 
L 349.657515 166.285054 
L 348.657515 166.285259 
L 347.657515 166.294769 
L 346.657515 166.306422 
L 345.657515 166.337451 
L 344.657515 166.348619 
L 343.657515 166.378737 
L 342.657515 166.438514 
L 341.657515 166.475705 
L 340.657515 166.514801 
L 339.657515 166.557241 
L 338.657515 166.590006 
L 337.657515 166.657433 
L 336.657515 166.696559 
L 335.657515 166.739233 
L 334.657515 166.809814 
L 333.657515 166.846205 
L 332.657515 166.904608 
L 331.657515 167.01556 
L 330.657515 167.086219 
L 329.657515 167.199158 
L 328.657515 167.244931 
L 326.765537 167.306215 
" clip-path="url(#pf97ebf8fd3)" style="fill: none; stroke: #2ca02c; stroke-opacity: 0.5; stroke-width: 0.2; stroke-linecap: square"/>
   <path d="M 372.657515 209.185935 
L 371.657515 209.154498 
L 370.657515 209.117558 
L 369.657515 209.019811 
L 368.657515 208.98729 
L 367.657515 208.913665 
L 366.657515 208.875099 
L 365.657515 208.839686 
L 364.657515 208.782046 
L 363.657515 208.71166 
L 362.657515 208.659696 
L 361.657515 208.600606 
L 360.657515 208.512285 
L 359.657515 208.466141 
L 358.657515 208.42373 
L 357.657515 208.393237 
L 356.657515 208.367192 
L 355.657515 208.345992 
L 354.657515 208.291691 
L 353.657515 208.263754 
L 352.657515 208.23403 
L 351.657515 208.208635 
L 350.657515 208.197434 
L 349.657515 208.187311 
L 348.657515 208.187515 
L 347.657515 208.197025 
L 346.657515 208.208678 
L 345.657515 208.239708 
L 344.657515 208.250875 
L 343.657515 208.280993 
L 342.657515 208.34077 
L 341.657515 208.377961 
L 340.657515 208.417058 
L 339.657515 208.459497 
L 338.657515 208.492262 
L 337.657515 208.559689 
L 336.657515 208.598815 
L 335.657515 208.641489 
L 334.657515 208.71207 
L 333.657515 208.748461 
L 332.657515 208.806864 
L 331.657515 208.917816 
L 330.657515 208.988475 
L 329.657515 209.101415 
L 328.657515 209.147187 
L 326.765537 209.208471 
" clip-path="url(#pf97ebf8fd3)" style="fill: none; stroke: #2ca02c; stroke-opacity: 0.5; stroke-width: 0.2; stroke-linecap: square"/>
   <path d="M 372.657515 26.442098 
L 371.657515 26.410661 
L 370.657515 26.373721 
L 369.657515 26.275974 
L 368.657515 26.243453 
L 367.657515 26.169828 
L 366.657515 26.131262 
L 365.657515 26.095849 
L 364.657515 26.038209 
L 363.657515 25.967823 
L 362.657515 25.915859 
L 361.657515 25.856769 
L 360.657515 25.768448 
L 359.657515 25.722304 
L 358.657515 25.679893 
L 357.657515 25.6494 
L 356.657515 25.623355 
L 355.657515 25.602155 
L 354.657515 25.547854 
L 353.657515 25.519917 
L 352.657515 25.490193 
L 351.657515 25.464798 
L 350.657515 25.453597 
L 349.657515 25.443473 
L 348.657515 25.443678 
L 347.657515 25.453188 
L 346.657515 25.464841 
L 345.657515 25.49587 
L 344.657515 25.507038 
L 343.657515 25.537156 
L 342.657515 25.596933 
L 341.657515 25.634124 
L 340.657515 25.67322 
L 339.657515 25.71566 
L 338.657515 25.748425 
L 337.657515 25.815852 
L 336.657515 25.854978 
L 335.657515 25.897652 
L 334.657515 25.968233 
L 333.657515 26.004624 
L 332.657515 26.063027 
L 331.657515 26.173979 
L 330.657515 26.244638 
L 329.657515 26.357577 
L 328.657515 26.40335 
L 326.765537 26.464634 
" clip-path="url(#pf97ebf8fd3)" style="fill: none; stroke: #2ca02c; stroke-opacity: 0.5; stroke-width: 0.2; stroke-linecap: square"/>
   <path d="M 372.657515 167.04846 
L 371.657515 167.017023 
L 370.657515 166.980083 
L 369.657515 166.882336 
L 368.657515 166.849815 
L 367.657515 166.77619 
L 366.657515 166.737624 
L 365.657515 166.702211 
L 364.657515 166.644571 
L 363.657515 166.574185 
L 362.657515 166.522221 
L 361.657515 166.463131 
L 360.657515 166.37481 
L 359.657515 166.328666 
L 358.657515 166.286255 
L 357.657515 166.255762 
L 356.657515 166.229717 
L 355.657515 166.208517 
L 354.657515 166.154216 
L 353.657515 166.126279 
L 352.657515 166.096555 
L 351.657515 166.07116 
L 350.657515 166.059959 
L 349.657515 166.049835 
L 348.657515 166.05004 
L 347.657515 166.05955 
L 346.657515 166.071203 
L 345.657515 166.102232 
L 344.657515 166.1134 
L 343.657515 166.143518 
L 342.657515 166.203295 
L 341.657515 166.240486 
L 340.657515 166.279582 
L 339.657515 166.322022 
L 338.657515 166.354787 
L 337.657515 166.422214 
L 336.657515 166.46134 
L 335.657515 166.504014 
L 334.657515 166.574595 
L 333.657515 166.610986 
L 332.657515 166.669389 
L 331.657515 166.780341 
L 330.657515 166.851 
L 329.657515 166.96394 
L 328.657515 167.009712 
L 326.765537 167.070996 
" clip-path="url(#pf97ebf8fd3)" style="fill: none; stroke: #2ca02c; stroke-opacity: 0.5; stroke-width: 0.2; stroke-linecap: square"/>
   <g id="patch_3">
    <path d="M 67.449006 22.318125 
L 67.449006 260.421875 
M 167.401766 22.318125 
L 167.401766 260.421875 
" clip-path="url(#pf97ebf8fd3)" style="fill: none; stroke: #ffffff; stroke-width: 3; stroke-linejoin: miter"/>
    <path d="M 67.449006 22.318125 
L 67.449006 260.421875 
M 167.401766 22.318125 
L 167.401766 260.421875 
" clip-path="url(#pf97ebf8fd3)" style="fill: none; stroke: #1f77b4; stroke-linejoin: miter"/>
    <g id="PolyCollection_1">
     <path d="M 167.401766 22.318125 
L 67.449006 22.318125 
L 67.449006 260.421875 
L 167.401766 260.421875 
L 167.401766 260.421875 
L 167.401766 22.318125 
z
" clip-path="url(#pf97ebf8fd3)" style="fill: #1f77b4; fill-opacity: 0.5"/>
    </g>
    <g id="patch_4">
     <path d="M 222.306432 22.318125 
L 222.306432 260.421875 
M 322.259193 22.318125 
L 322.259193 260.421875 
" clip-path="url(#pf97ebf8fd3)" style="fill: none; stroke: #ffffff; stroke-width: 3; stroke-linejoin: miter"/>
     <path d="M 222.306432 22.318125 
L 222.306432 260.421875 
M 322.259193 22.318125 
L 322.259193 260.421875 
" clip-path="url(#pf97ebf8fd3)" style="fill: none; stroke: #ff7f0e; stroke-linejoin: miter"/>
     <g id="PolyCollection_2">
      <path d="M 322.259193 22.318125 
L 222.306432 22.318125 
L 222.306432 260.421875 
L 322.259193 260.421875 
L 322.259193 260.421875 
L 322.259193 22.318125 
z
" clip-path="url(#pf97ebf8fd3)" style="fill: #ff7f0e; fill-opacity: 0.5"/>
     </g>
     <g id="patch_5">
      <path d="M 377.163859 22.318125 
L 377.163859 260.421875 
M 477.116619 22.318125 
L 477.116619 260.421875 
" clip-path="url(#pf97ebf8fd3)" style="fill: none; stroke: #ffffff; stroke-width: 3; stroke-linejoin: miter"/>
      <path d="M 377.163859 22.318125 
L 377.163859 260.421875 
M 477.116619 22.318125 
L 477.116619 260.421875 
" clip-path="url(#pf97ebf8fd3)" style="fill: none; stroke: #2ca02c; stroke-linejoin: miter"/>
      <g id="PolyCollection_3">
       <path d="M 477.116619 22.318125 
L 377.163859 22.318125 
L 377.163859 260.421875 
L 477.116619 260.421875 
L 477.116619 260.421875 
L 477.116619 22.318125 
z
" clip-path="url(#pf97ebf8fd3)" style="fill: #2ca02c; fill-opacity: 0.5"/>
      </g>
      <g id="matplotlib.axis_1">
       <g id="xtick_1">
        <g id="line2d_1"/>
        <g id="text_1">
         <!-- deme1 -->
         <g transform="translate(100.04648 271.520312)scale(0.1 -0.1)">
          <defs>
           <path id="DejaVuSans-64" d="M 2906 2969 
L 2906 4863 
L 3481 4863 
L 3481 0 
L 2906 0 
L 2906 525 
Q 2725 213 2448 61 
Q 2172 -91 1784 -91 
Q 1150 -91 751 415 
Q 353 922 353 1747 
Q 353 2572 751 3078 
Q 1150 3584 1784 3584 
Q 2172 3584 2448 3432 
Q 2725 3281 2906 2969 
z
M 947 1747 
Q 947 1113 1208 752 
Q 1469 391 1925 391 
Q 2381 391 2643 752 
Q 2906 1113 2906 1747 
Q 2906 2381 2643 2742 
Q 2381 3103 1925 3103 
Q 1469 3103 1208 2742 
Q 947 2381 947 1747 
z
" transform="scale(0.015625)"/>
           <path id="DejaVuSans-65" d="M 3597 1894 
L 3597 1613 
L 953 1613 
Q 991 1019 1311 708 
Q 1631 397 2203 397 
Q 2534 397 2845 478 
Q 3156 559 3463 722 
L 3463 178 
Q 3153 47 2828 -22 
Q 2503 -91 2169 -91 
Q 1331 -91 842 396 
Q 353 884 353 1716 
Q 353 2575 817 3079 
Q 1281 3584 2069 3584 
Q 2775 3584 3186 3129 
Q 3597 2675 3597 1894 
z
M 3022 2063 
Q 3016 2534 2758 2815 
Q 2500 3097 2075 3097 
Q 1594 3097 1305 2825 
Q 1016 2553 972 2059 
L 3022 2063 
z
" transform="scale(0.015625)"/>
           <path id="DejaVuSans-6d" d="M 3328 2828 
Q 3544 3216 3844 3400 
Q 4144 3584 4550 3584 
Q 5097 3584 5394 3201 
Q 5691 2819 5691 2113 
L 5691 0 
L 5113 0 
L 5113 2094 
Q 5113 2597 4934 2840 
Q 4756 3084 4391 3084 
Q 3944 3084 3684 2787 
Q 3425 2491 3425 1978 
L 3425 0 
L 2847 0 
L 2847 2094 
Q 2847 2600 2669 2842 
Q 2491 3084 2119 3084 
Q 1678 3084 1418 2786 
Q 1159 2488 1159 1978 
L 1159 0 
L 581 0 
L 581 3500 
L 1159 3500 
L 1159 2956 
Q 1356 3278 1631 3431 
Q 1906 3584 2284 3584 
Q 2666 3584 2933 3390 
Q 3200 3197 3328 2828 
z
" transform="scale(0.015625)"/>
           <path id="DejaVuSans-31" d="M 794 531 
L 1825 531 
L 1825 4091 
L 703 3866 
L 703 4441 
L 1819 4666 
L 2450 4666 
L 2450 531 
L 3481 531 
L 3481 0 
L 794 0 
L 794 531 
z
" transform="scale(0.015625)"/>
          </defs>
          <use xlink:href="#DejaVuSans-64"/>
          <use xlink:href="#DejaVuSans-65" x="63.476562"/>
          <use xlink:href="#DejaVuSans-6d" x="125"/>
          <use xlink:href="#DejaVuSans-65" x="222.412109"/>
          <use xlink:href="#DejaVuSans-31" x="283.935547"/>
         </g>
        </g>
       </g>
       <g id="xtick_2">
        <g id="line2d_2"/>
        <g id="text_2">
         <!-- deme2 -->
         <g transform="translate(254.903906 271.520312)scale(0.1 -0.1)">
          <defs>
           <path id="DejaVuSans-32" d="M 1228 531 
L 3431 531 
L 3431 0 
L 469 0 
L 469 531 
Q 828 903 1448 1529 
Q 2069 2156 2228 2338 
Q 2531 2678 2651 2914 
Q 2772 3150 2772 3378 
Q 2772 3750 2511 3984 
Q 2250 4219 1831 4219 
Q 1534 4219 1204 4116 
Q 875 4013 500 3803 
L 500 4441 
Q 881 4594 1212 4672 
Q 1544 4750 1819 4750 
Q 2544 4750 2975 4387 
Q 3406 4025 3406 3419 
Q 3406 3131 3298 2873 
Q 3191 2616 2906 2266 
Q 2828 2175 2409 1742 
Q 1991 1309 1228 531 
z
" transform="scale(0.015625)"/>
          </defs>
          <use xlink:href="#DejaVuSans-64"/>
          <use xlink:href="#DejaVuSans-65" x="63.476562"/>
          <use xlink:href="#DejaVuSans-6d" x="125"/>
          <use xlink:href="#DejaVuSans-65" x="222.412109"/>
          <use xlink:href="#DejaVuSans-32" x="283.935547"/>
         </g>
        </g>
       </g>
       <g id="xtick_3">
        <g id="line2d_3"/>
        <g id="text_3">
         <!-- deme3 -->
         <g transform="translate(409.761333 271.520312)scale(0.1 -0.1)">
          <defs>
           <path id="DejaVuSans-33" d="M 2597 2516 
Q 3050 2419 3304 2112 
Q 3559 1806 3559 1356 
Q 3559 666 3084 287 
Q 2609 -91 1734 -91 
Q 1441 -91 1130 -33 
Q 819 25 488 141 
L 488 750 
Q 750 597 1062 519 
Q 1375 441 1716 441 
Q 2309 441 2620 675 
Q 2931 909 2931 1356 
Q 2931 1769 2642 2001 
Q 2353 2234 1838 2234 
L 1294 2234 
L 1294 2753 
L 1863 2753 
Q 2328 2753 2575 2939 
Q 2822 3125 2822 3475 
Q 2822 3834 2567 4026 
Q 2313 4219 1838 4219 
Q 1578 4219 1281 4162 
Q 984 4106 628 3988 
L 628 4550 
Q 988 4650 1302 4700 
Q 1616 4750 1894 4750 
Q 2613 4750 3031 4423 
Q 3450 4097 3450 3541 
Q 3450 3153 3228 2886 
Q 3006 2619 2597 2516 
z
" transform="scale(0.015625)"/>
          </defs>
          <use xlink:href="#DejaVuSans-64"/>
          <use xlink:href="#DejaVuSans-65" x="63.476562"/>
          <use xlink:href="#DejaVuSans-6d" x="125"/>
          <use xlink:href="#DejaVuSans-65" x="222.412109"/>
          <use xlink:href="#DejaVuSans-33" x="283.935547"/>
         </g>
        </g>
       </g>
      </g>
      <g id="matplotlib.axis_2">
       <g id="ytick_1">
        <g id="line2d_4">
         <defs>
          <path id="mee9aa21062" d="M 0 0 
L -3.5 0 
" style="stroke: #000000; stroke-width: 0.8"/>
         </defs>
         <g>
          <use xlink:href="#mee9aa21062" x="46.965625" y="260.421875" style="stroke: #000000; stroke-width: 0.8"/>
         </g>
        </g>
        <g id="text_4">
         <!-- 0 -->
         <g transform="translate(33.603125 264.221094)scale(0.1 -0.1)">
          <defs>
           <path id="DejaVuSans-30" d="M 2034 4250 
Q 1547 4250 1301 3770 
Q 1056 3291 1056 2328 
Q 1056 1369 1301 889 
Q 1547 409 2034 409 
Q 2525 409 2770 889 
Q 3016 1369 3016 2328 
Q 3016 3291 2770 3770 
Q 2525 4250 2034 4250 
z
M 2034 4750 
Q 2819 4750 3233 4129 
Q 3647 3509 3647 2328 
Q 3647 1150 3233 529 
Q 2819 -91 2034 -91 
Q 1250 -91 836 529 
Q 422 1150 422 2328 
Q 422 3509 836 4129 
Q 1250 4750 2034 4750 
z
" transform="scale(0.015625)"/>
          </defs>
          <use xlink:href="#DejaVuSans-30"/>
         </g>
        </g>
       </g>
       <g id="ytick_2">
        <g id="line2d_5">
         <g>
          <use xlink:href="#mee9aa21062" x="46.965625" y="218.279618" style="stroke: #000000; stroke-width: 0.8"/>
         </g>
        </g>
        <g id="text_5">
         <!-- 20 -->
         <g transform="translate(27.240625 222.078837)scale(0.1 -0.1)">
          <use xlink:href="#DejaVuSans-32"/>
          <use xlink:href="#DejaVuSans-30" x="63.623047"/>
         </g>
        </g>
       </g>
       <g id="ytick_3">
        <g id="line2d_6">
         <g>
          <use xlink:href="#mee9aa21062" x="46.965625" y="176.137362" style="stroke: #000000; stroke-width: 0.8"/>
         </g>
        </g>
        <g id="text_6">
         <!-- 40 -->
         <g transform="translate(27.240625 179.93658)scale(0.1 -0.1)">
          <defs>
           <path id="DejaVuSans-34" d="M 2419 4116 
L 825 1625 
L 2419 1625 
L 2419 4116 
z
M 2253 4666 
L 3047 4666 
L 3047 1625 
L 3713 1625 
L 3713 1100 
L 3047 1100 
L 3047 0 
L 2419 0 
L 2419 1100 
L 313 1100 
L 313 1709 
L 2253 4666 
z
" transform="scale(0.015625)"/>
          </defs>
          <use xlink:href="#DejaVuSans-34"/>
          <use xlink:href="#DejaVuSans-30" x="63.623047"/>
         </g>
        </g>
       </g>
       <g id="ytick_4">
        <g id="line2d_7">
         <g>
          <use xlink:href="#mee9aa21062" x="46.965625" y="133.995105" style="stroke: #000000; stroke-width: 0.8"/>
         </g>
        </g>
        <g id="text_7">
         <!-- 60 -->
         <g transform="translate(27.240625 137.794324)scale(0.1 -0.1)">
          <defs>
           <path id="DejaVuSans-36" d="M 2113 2584 
Q 1688 2584 1439 2293 
Q 1191 2003 1191 1497 
Q 1191 994 1439 701 
Q 1688 409 2113 409 
Q 2538 409 2786 701 
Q 3034 994 3034 1497 
Q 3034 2003 2786 2293 
Q 2538 2584 2113 2584 
z
M 3366 4563 
L 3366 3988 
Q 3128 4100 2886 4159 
Q 2644 4219 2406 4219 
Q 1781 4219 1451 3797 
Q 1122 3375 1075 2522 
Q 1259 2794 1537 2939 
Q 1816 3084 2150 3084 
Q 2853 3084 3261 2657 
Q 3669 2231 3669 1497 
Q 3669 778 3244 343 
Q 2819 -91 2113 -91 
Q 1303 -91 875 529 
Q 447 1150 447 2328 
Q 447 3434 972 4092 
Q 1497 4750 2381 4750 
Q 2619 4750 2861 4703 
Q 3103 4656 3366 4563 
z
" transform="scale(0.015625)"/>
          </defs>
          <use xlink:href="#DejaVuSans-36"/>
          <use xlink:href="#DejaVuSans-30" x="63.623047"/>
         </g>
        </g>
       </g>
       <g id="ytick_5">
        <g id="line2d_8">
         <g>
          <use xlink:href="#mee9aa21062" x="46.965625" y="91.852848" style="stroke: #000000; stroke-width: 0.8"/>
         </g>
        </g>
        <g id="text_8">
         <!-- 80 -->
         <g transform="translate(27.240625 95.652067)scale(0.1 -0.1)">
          <defs>
           <path id="DejaVuSans-38" d="M 2034 2216 
Q 1584 2216 1326 1975 
Q 1069 1734 1069 1313 
Q 1069 891 1326 650 
Q 1584 409 2034 409 
Q 2484 409 2743 651 
Q 3003 894 3003 1313 
Q 3003 1734 2745 1975 
Q 2488 2216 2034 2216 
z
M 1403 2484 
Q 997 2584 770 2862 
Q 544 3141 544 3541 
Q 544 4100 942 4425 
Q 1341 4750 2034 4750 
Q 2731 4750 3128 4425 
Q 3525 4100 3525 3541 
Q 3525 3141 3298 2862 
Q 3072 2584 2669 2484 
Q 3125 2378 3379 2068 
Q 3634 1759 3634 1313 
Q 3634 634 3220 271 
Q 2806 -91 2034 -91 
Q 1263 -91 848 271 
Q 434 634 434 1313 
Q 434 1759 690 2068 
Q 947 2378 1403 2484 
z
M 1172 3481 
Q 1172 3119 1398 2916 
Q 1625 2713 2034 2713 
Q 2441 2713 2670 2916 
Q 2900 3119 2900 3481 
Q 2900 3844 2670 4047 
Q 2441 4250 2034 4250 
Q 1625 4250 1398 4047 
Q 1172 3844 1172 3481 
z
" transform="scale(0.015625)"/>
          </defs>
          <use xlink:href="#DejaVuSans-38"/>
          <use xlink:href="#DejaVuSans-30" x="63.623047"/>
         </g>
        </g>
       </g>
       <g id="ytick_6">
        <g id="line2d_9">
         <g>
          <use xlink:href="#mee9aa21062" x="46.965625" y="49.710592" style="stroke: #000000; stroke-width: 0.8"/>
         </g>
        </g>
        <g id="text_9">
         <!-- 100 -->
         <g transform="translate(20.878125 53.509811)scale(0.1 -0.1)">
          <use xlink:href="#DejaVuSans-31"/>
          <use xlink:href="#DejaVuSans-30" x="63.623047"/>
          <use xlink:href="#DejaVuSans-30" x="127.246094"/>
         </g>
        </g>
       </g>
       <g id="text_10">
        <!-- time ago (years) -->
        <g transform="translate(14.798437 182.803594)rotate(-90)scale(0.1 -0.1)">
         <defs>
          <path id="DejaVuSans-74" d="M 1172 4494 
L 1172 3500 
L 2356 3500 
L 2356 3053 
L 1172 3053 
L 1172 1153 
Q 1172 725 1289 603 
Q 1406 481 1766 481 
L 2356 481 
L 2356 0 
L 1766 0 
Q 1100 0 847 248 
Q 594 497 594 1153 
L 594 3053 
L 172 3053 
L 172 3500 
L 594 3500 
L 594 4494 
L 1172 4494 
z
" transform="scale(0.015625)"/>
          <path id="DejaVuSans-69" d="M 603 3500 
L 1178 3500 
L 1178 0 
L 603 0 
L 603 3500 
z
M 603 4863 
L 1178 4863 
L 1178 4134 
L 603 4134 
L 603 4863 
z
" transform="scale(0.015625)"/>
          <path id="DejaVuSans-20" transform="scale(0.015625)"/>
          <path id="DejaVuSans-61" d="M 2194 1759 
Q 1497 1759 1228 1600 
Q 959 1441 959 1056 
Q 959 750 1161 570 
Q 1363 391 1709 391 
Q 2188 391 2477 730 
Q 2766 1069 2766 1631 
L 2766 1759 
L 2194 1759 
z
M 3341 1997 
L 3341 0 
L 2766 0 
L 2766 531 
Q 2569 213 2275 61 
Q 1981 -91 1556 -91 
Q 1019 -91 701 211 
Q 384 513 384 1019 
Q 384 1609 779 1909 
Q 1175 2209 1959 2209 
L 2766 2209 
L 2766 2266 
Q 2766 2663 2505 2880 
Q 2244 3097 1772 3097 
Q 1472 3097 1187 3025 
Q 903 2953 641 2809 
L 641 3341 
Q 956 3463 1253 3523 
Q 1550 3584 1831 3584 
Q 2591 3584 2966 3190 
Q 3341 2797 3341 1997 
z
" transform="scale(0.015625)"/>
          <path id="DejaVuSans-67" d="M 2906 1791 
Q 2906 2416 2648 2759 
Q 2391 3103 1925 3103 
Q 1463 3103 1205 2759 
Q 947 2416 947 1791 
Q 947 1169 1205 825 
Q 1463 481 1925 481 
Q 2391 481 2648 825 
Q 2906 1169 2906 1791 
z
M 3481 434 
Q 3481 -459 3084 -895 
Q 2688 -1331 1869 -1331 
Q 1566 -1331 1297 -1286 
Q 1028 -1241 775 -1147 
L 775 -588 
Q 1028 -725 1275 -790 
Q 1522 -856 1778 -856 
Q 2344 -856 2625 -561 
Q 2906 -266 2906 331 
L 2906 616 
Q 2728 306 2450 153 
Q 2172 0 1784 0 
Q 1141 0 747 490 
Q 353 981 353 1791 
Q 353 2603 747 3093 
Q 1141 3584 1784 3584 
Q 2172 3584 2450 3431 
Q 2728 3278 2906 2969 
L 2906 3500 
L 3481 3500 
L 3481 434 
z
" transform="scale(0.015625)"/>
          <path id="DejaVuSans-6f" d="M 1959 3097 
Q 1497 3097 1228 2736 
Q 959 2375 959 1747 
Q 959 1119 1226 758 
Q 1494 397 1959 397 
Q 2419 397 2687 759 
Q 2956 1122 2956 1747 
Q 2956 2369 2687 2733 
Q 2419 3097 1959 3097 
z
M 1959 3584 
Q 2709 3584 3137 3096 
Q 3566 2609 3566 1747 
Q 3566 888 3137 398 
Q 2709 -91 1959 -91 
Q 1206 -91 779 398 
Q 353 888 353 1747 
Q 353 2609 779 3096 
Q 1206 3584 1959 3584 
z
" transform="scale(0.015625)"/>
          <path id="DejaVuSans-28" d="M 1984 4856 
Q 1566 4138 1362 3434 
Q 1159 2731 1159 2009 
Q 1159 1288 1364 580 
Q 1569 -128 1984 -844 
L 1484 -844 
Q 1016 -109 783 600 
Q 550 1309 550 2009 
Q 550 2706 781 3412 
Q 1013 4119 1484 4856 
L 1984 4856 
z
" transform="scale(0.015625)"/>
          <path id="DejaVuSans-79" d="M 2059 -325 
Q 1816 -950 1584 -1140 
Q 1353 -1331 966 -1331 
L 506 -1331 
L 506 -850 
L 844 -850 
Q 1081 -850 1212 -737 
Q 1344 -625 1503 -206 
L 1606 56 
L 191 3500 
L 800 3500 
L 1894 763 
L 2988 3500 
L 3597 3500 
L 2059 -325 
z
" transform="scale(0.015625)"/>
          <path id="DejaVuSans-72" d="M 2631 2963 
Q 2534 3019 2420 3045 
Q 2306 3072 2169 3072 
Q 1681 3072 1420 2755 
Q 1159 2438 1159 1844 
L 1159 0 
L 581 0 
L 581 3500 
L 1159 3500 
L 1159 2956 
Q 1341 3275 1631 3429 
Q 1922 3584 2338 3584 
Q 2397 3584 2469 3576 
Q 2541 3569 2628 3553 
L 2631 2963 
z
" transform="scale(0.015625)"/>
          <path id="DejaVuSans-73" d="M 2834 3397 
L 2834 2853 
Q 2591 2978 2328 3040 
Q 2066 3103 1784 3103 
Q 1356 3103 1142 2972 
Q 928 2841 928 2578 
Q 928 2378 1081 2264 
Q 1234 2150 1697 2047 
L 1894 2003 
Q 2506 1872 2764 1633 
Q 3022 1394 3022 966 
Q 3022 478 2636 193 
Q 2250 -91 1575 -91 
Q 1294 -91 989 -36 
Q 684 19 347 128 
L 347 722 
Q 666 556 975 473 
Q 1284 391 1588 391 
Q 1994 391 2212 530 
Q 2431 669 2431 922 
Q 2431 1156 2273 1281 
Q 2116 1406 1581 1522 
L 1381 1569 
Q 847 1681 609 1914 
Q 372 2147 372 2553 
Q 372 3047 722 3315 
Q 1072 3584 1716 3584 
Q 2034 3584 2315 3537 
Q 2597 3491 2834 3397 
z
" transform="scale(0.015625)"/>
          <path id="DejaVuSans-29" d="M 513 4856 
L 1013 4856 
Q 1481 4119 1714 3412 
Q 1947 2706 1947 2009 
Q 1947 1309 1714 600 
Q 1481 -109 1013 -844 
L 513 -844 
Q 928 -128 1133 580 
Q 1338 1288 1338 2009 
Q 1338 2731 1133 3434 
Q 928 4138 513 4856 
z
" transform="scale(0.015625)"/>
         </defs>
         <use xlink:href="#DejaVuSans-74"/>
         <use xlink:href="#DejaVuSans-69" x="39.208984"/>
         <use xlink:href="#DejaVuSans-6d" x="66.992188"/>
         <use xlink:href="#DejaVuSans-65" x="164.404297"/>
         <use xlink:href="#DejaVuSans-20" x="225.927734"/>
         <use xlink:href="#DejaVuSans-61" x="257.714844"/>
         <use xlink:href="#DejaVuSans-67" x="318.994141"/>
         <use xlink:href="#DejaVuSans-6f" x="382.470703"/>
         <use xlink:href="#DejaVuSans-20" x="443.652344"/>
         <use xlink:href="#DejaVuSans-28" x="475.439453"/>
         <use xlink:href="#DejaVuSans-79" x="514.453125"/>
         <use xlink:href="#DejaVuSans-65" x="573.632812"/>
         <use xlink:href="#DejaVuSans-61" x="635.15625"/>
         <use xlink:href="#DejaVuSans-72" x="696.435547"/>
         <use xlink:href="#DejaVuSans-73" x="737.548828"/>
         <use xlink:href="#DejaVuSans-29" x="789.648438"/>
        </g>
       </g>
      </g>
      <path d="M 218.800088 109.201577 
L 216.800088 108.201577 
L 216.800088 110.201577 
z
" clip-path="url(#pf97ebf8fd3)" style="fill: #1f77b4; fill-opacity: 0.5; stroke: #1f77b4; stroke-opacity: 0.5; stroke-linejoin: miter"/>
      <path d="M 218.800088 245.759222 
L 216.800088 244.759222 
L 216.800088 246.759222 
z
" clip-path="url(#pf97ebf8fd3)" style="fill: #1f77b4; fill-opacity: 0.5; stroke: #1f77b4; stroke-opacity: 0.5; stroke-linejoin: miter"/>
      <path d="M 218.800088 241.38704 
L 216.800088 240.38704 
L 216.800088 242.38704 
z
" clip-path="url(#pf97ebf8fd3)" style="fill: #1f77b4; fill-opacity: 0.5; stroke: #1f77b4; stroke-opacity: 0.5; stroke-linejoin: miter"/>
      <path d="M 218.800088 46.497047 
L 216.800088 45.497047 
L 216.800088 47.497047 
z
" clip-path="url(#pf97ebf8fd3)" style="fill: #1f77b4; fill-opacity: 0.5; stroke: #1f77b4; stroke-opacity: 0.5; stroke-linejoin: miter"/>
      <path d="M 218.800088 147.545866 
L 216.800088 146.545866 
L 216.800088 148.545866 
z
" clip-path="url(#pf97ebf8fd3)" style="fill: #1f77b4; fill-opacity: 0.5; stroke: #1f77b4; stroke-opacity: 0.5; stroke-linejoin: miter"/>
      <path d="M 218.800088 180.960114 
L 216.800088 179.960114 
L 216.800088 181.960114 
z
" clip-path="url(#pf97ebf8fd3)" style="fill: #1f77b4; fill-opacity: 0.5; stroke: #1f77b4; stroke-opacity: 0.5; stroke-linejoin: miter"/>
      <path d="M 218.800088 32.058766 
L 216.800088 31.058766 
L 216.800088 33.058766 
z
" clip-path="url(#pf97ebf8fd3)" style="fill: #1f77b4; fill-opacity: 0.5; stroke: #1f77b4; stroke-opacity: 0.5; stroke-linejoin: miter"/>
      <path d="M 218.800088 34.141419 
L 216.800088 33.141419 
L 216.800088 35.141419 
z
" clip-path="url(#pf97ebf8fd3)" style="fill: #1f77b4; fill-opacity: 0.5; stroke: #1f77b4; stroke-opacity: 0.5; stroke-linejoin: miter"/>
      <path d="M 218.800088 213.719391 
L 216.800088 212.719391 
L 216.800088 214.719391 
z
" clip-path="url(#pf97ebf8fd3)" style="fill: #1f77b4; fill-opacity: 0.5; stroke: #1f77b4; stroke-opacity: 0.5; stroke-linejoin: miter"/>
      <path d="M 218.800088 201.861415 
L 216.800088 200.861415 
L 216.800088 202.861415 
z
" clip-path="url(#pf97ebf8fd3)" style="fill: #1f77b4; fill-opacity: 0.5; stroke: #1f77b4; stroke-opacity: 0.5; stroke-linejoin: miter"/>
      <path d="M 170.90811 44.810642 
L 172.90811 45.810642 
L 172.90811 43.810642 
z
" clip-path="url(#pf97ebf8fd3)" style="fill: #ff7f0e; fill-opacity: 0.5; stroke: #ff7f0e; stroke-opacity: 0.5; stroke-linejoin: miter"/>
      <path d="M 170.90811 122.047804 
L 172.90811 123.047804 
L 172.90811 121.047804 
z
" clip-path="url(#pf97ebf8fd3)" style="fill: #ff7f0e; fill-opacity: 0.5; stroke: #ff7f0e; stroke-opacity: 0.5; stroke-linejoin: miter"/>
      <path d="M 170.90811 238.623181 
L 172.90811 239.623181 
L 172.90811 237.623181 
z
" clip-path="url(#pf97ebf8fd3)" style="fill: #ff7f0e; fill-opacity: 0.5; stroke: #ff7f0e; stroke-opacity: 0.5; stroke-linejoin: miter"/>
      <path d="M 170.90811 171.028906 
L 172.90811 172.028906 
L 172.90811 170.028906 
z
" clip-path="url(#pf97ebf8fd3)" style="fill: #ff7f0e; fill-opacity: 0.5; stroke: #ff7f0e; stroke-opacity: 0.5; stroke-linejoin: miter"/>
      <path d="M 170.90811 117.337627 
L 172.90811 118.337627 
L 172.90811 116.337627 
z
" clip-path="url(#pf97ebf8fd3)" style="fill: #ff7f0e; fill-opacity: 0.5; stroke: #ff7f0e; stroke-opacity: 0.5; stroke-linejoin: miter"/>
      <path d="M 170.90811 98.779961 
L 172.90811 99.779961 
L 172.90811 97.779961 
z
" clip-path="url(#pf97ebf8fd3)" style="fill: #ff7f0e; fill-opacity: 0.5; stroke: #ff7f0e; stroke-opacity: 0.5; stroke-linejoin: miter"/>
      <path d="M 170.90811 259.727288 
L 172.90811 260.727288 
L 172.90811 258.727288 
z
" clip-path="url(#pf97ebf8fd3)" style="fill: #ff7f0e; fill-opacity: 0.5; stroke: #ff7f0e; stroke-opacity: 0.5; stroke-linejoin: miter"/>
      <path d="M 170.90811 50.441564 
L 172.90811 51.441564 
L 172.90811 49.441564 
z
" clip-path="url(#pf97ebf8fd3)" style="fill: #ff7f0e; fill-opacity: 0.5; stroke: #ff7f0e; stroke-opacity: 0.5; stroke-linejoin: miter"/>
      <path d="M 170.90811 111.009232 
L 172.90811 112.009232 
L 172.90811 110.009232 
z
" clip-path="url(#pf97ebf8fd3)" style="fill: #ff7f0e; fill-opacity: 0.5; stroke: #ff7f0e; stroke-opacity: 0.5; stroke-linejoin: miter"/>
      <path d="M 170.90811 195.310139 
L 172.90811 196.310139 
L 172.90811 194.310139 
z
" clip-path="url(#pf97ebf8fd3)" style="fill: #ff7f0e; fill-opacity: 0.5; stroke: #ff7f0e; stroke-opacity: 0.5; stroke-linejoin: miter"/>
      <path d="M 373.657515 66.225858 
L 371.657515 65.225858 
L 371.657515 67.225858 
z
" clip-path="url(#pf97ebf8fd3)" style="fill: #ff7f0e; fill-opacity: 0.5; stroke: #ff7f0e; stroke-opacity: 0.5; stroke-linejoin: miter"/>
      <path d="M 373.657515 148.959538 
L 371.657515 147.959538 
L 371.657515 149.959538 
z
" clip-path="url(#pf97ebf8fd3)" style="fill: #ff7f0e; fill-opacity: 0.5; stroke: #ff7f0e; stroke-opacity: 0.5; stroke-linejoin: miter"/>
      <path d="M 373.657515 82.531088 
L 371.657515 81.531088 
L 371.657515 83.531088 
z
" clip-path="url(#pf97ebf8fd3)" style="fill: #ff7f0e; fill-opacity: 0.5; stroke: #ff7f0e; stroke-opacity: 0.5; stroke-linejoin: miter"/>
      <path d="M 373.657515 176.378058 
L 371.657515 175.378058 
L 371.657515 177.378058 
z
" clip-path="url(#pf97ebf8fd3)" style="fill: #ff7f0e; fill-opacity: 0.5; stroke: #ff7f0e; stroke-opacity: 0.5; stroke-linejoin: miter"/>
      <path d="M 373.657515 157.404269 
L 371.657515 156.404269 
L 371.657515 158.404269 
z
" clip-path="url(#pf97ebf8fd3)" style="fill: #ff7f0e; fill-opacity: 0.5; stroke: #ff7f0e; stroke-opacity: 0.5; stroke-linejoin: miter"/>
      <path d="M 373.657515 121.438515 
L 371.657515 120.438515 
L 371.657515 122.438515 
z
" clip-path="url(#pf97ebf8fd3)" style="fill: #ff7f0e; fill-opacity: 0.5; stroke: #ff7f0e; stroke-opacity: 0.5; stroke-linejoin: miter"/>
      <path d="M 373.657515 201.793248 
L 371.657515 200.793248 
L 371.657515 202.793248 
z
" clip-path="url(#pf97ebf8fd3)" style="fill: #ff7f0e; fill-opacity: 0.5; stroke: #ff7f0e; stroke-opacity: 0.5; stroke-linejoin: miter"/>
      <path d="M 373.657515 128.512982 
L 371.657515 127.512982 
L 371.657515 129.512982 
z
" clip-path="url(#pf97ebf8fd3)" style="fill: #ff7f0e; fill-opacity: 0.5; stroke: #ff7f0e; stroke-opacity: 0.5; stroke-linejoin: miter"/>
      <path d="M 373.657515 179.179735 
L 371.657515 178.179735 
L 371.657515 180.179735 
z
" clip-path="url(#pf97ebf8fd3)" style="fill: #ff7f0e; fill-opacity: 0.5; stroke: #ff7f0e; stroke-opacity: 0.5; stroke-linejoin: miter"/>
      <path d="M 373.657515 246.993096 
L 371.657515 245.993096 
L 371.657515 247.993096 
z
" clip-path="url(#pf97ebf8fd3)" style="fill: #ff7f0e; fill-opacity: 0.5; stroke: #ff7f0e; stroke-opacity: 0.5; stroke-linejoin: miter"/>
      <path d="M 325.765537 176.890321 
L 327.765537 177.890321 
L 327.765537 175.890321 
z
" clip-path="url(#pf97ebf8fd3)" style="fill: #2ca02c; fill-opacity: 0.5; stroke: #2ca02c; stroke-opacity: 0.5; stroke-linejoin: miter"/>
      <path d="M 325.765537 54.580032 
L 327.765537 55.580032 
L 327.765537 53.580032 
z
" clip-path="url(#pf97ebf8fd3)" style="fill: #2ca02c; fill-opacity: 0.5; stroke: #2ca02c; stroke-opacity: 0.5; stroke-linejoin: miter"/>
      <path d="M 325.765537 70.009001 
L 327.765537 71.009001 
L 327.765537 69.009001 
z
" clip-path="url(#pf97ebf8fd3)" style="fill: #2ca02c; fill-opacity: 0.5; stroke: #2ca02c; stroke-opacity: 0.5; stroke-linejoin: miter"/>
      <path d="M 325.765537 33.745178 
L 327.765537 34.745178 
L 327.765537 32.745178 
z
" clip-path="url(#pf97ebf8fd3)" style="fill: #2ca02c; fill-opacity: 0.5; stroke: #2ca02c; stroke-opacity: 0.5; stroke-linejoin: miter"/>
      <path d="M 325.765537 54.233341 
L 327.765537 55.233341 
L 327.765537 53.233341 
z
" clip-path="url(#pf97ebf8fd3)" style="fill: #2ca02c; fill-opacity: 0.5; stroke: #2ca02c; stroke-opacity: 0.5; stroke-linejoin: miter"/>
      <path d="M 325.765537 49.25339 
L 327.765537 50.25339 
L 327.765537 48.25339 
z
" clip-path="url(#pf97ebf8fd3)" style="fill: #2ca02c; fill-opacity: 0.5; stroke: #2ca02c; stroke-opacity: 0.5; stroke-linejoin: miter"/>
      <path d="M 325.765537 167.283678 
L 327.765537 168.283678 
L 327.765537 166.283678 
z
" clip-path="url(#pf97ebf8fd3)" style="fill: #2ca02c; fill-opacity: 0.5; stroke: #2ca02c; stroke-opacity: 0.5; stroke-linejoin: miter"/>
      <path d="M 325.765537 209.185935 
L 327.765537 210.185935 
L 327.765537 208.185935 
z
" clip-path="url(#pf97ebf8fd3)" style="fill: #2ca02c; fill-opacity: 0.5; stroke: #2ca02c; stroke-opacity: 0.5; stroke-linejoin: miter"/>
      <path d="M 325.765537 26.442098 
L 327.765537 27.442098 
L 327.765537 25.442098 
z
" clip-path="url(#pf97ebf8fd3)" style="fill: #2ca02c; fill-opacity: 0.5; stroke: #2ca02c; stroke-opacity: 0.5; stroke-linejoin: miter"/>
      <path d="M 325.765537 167.04846 
L 327.765537 168.04846 
L 327.765537 166.04846 
z
" clip-path="url(#pf97ebf8fd3)" style="fill: #2ca02c; fill-opacity: 0.5; stroke: #2ca02c; stroke-opacity: 0.5; stroke-linejoin: miter"/>
      <g id="patch_6">
       <path d="M 46.965625 260.421875 
L 46.965625 22.318125 
" style="fill: none; stroke: #000000; stroke-width: 0.8; stroke-linejoin: miter; stroke-linecap: square"/>
      </g>
      <g id="text_11">
       <!-- stepping_stone_model.yaml -->
       <g transform="translate(188.243437 16.318125)scale(0.12 -0.12)">
        <defs>
         <path id="DejaVuSans-70" d="M 1159 525 
L 1159 -1331 
L 581 -1331 
L 581 3500 
L 1159 3500 
L 1159 2969 
Q 1341 3281 1617 3432 
Q 1894 3584 2278 3584 
Q 2916 3584 3314 3078 
Q 3713 2572 3713 1747 
Q 3713 922 3314 415 
Q 2916 -91 2278 -91 
Q 1894 -91 1617 61 
Q 1341 213 1159 525 
z
M 3116 1747 
Q 3116 2381 2855 2742 
Q 2594 3103 2138 3103 
Q 1681 3103 1420 2742 
Q 1159 2381 1159 1747 
Q 1159 1113 1420 752 
Q 1681 391 2138 391 
Q 2594 391 2855 752 
Q 3116 1113 3116 1747 
z
" transform="scale(0.015625)"/>
         <path id="DejaVuSans-6e" d="M 3513 2113 
L 3513 0 
L 2938 0 
L 2938 2094 
Q 2938 2591 2744 2837 
Q 2550 3084 2163 3084 
Q 1697 3084 1428 2787 
Q 1159 2491 1159 1978 
L 1159 0 
L 581 0 
L 581 3500 
L 1159 3500 
L 1159 2956 
Q 1366 3272 1645 3428 
Q 1925 3584 2291 3584 
Q 2894 3584 3203 3211 
Q 3513 2838 3513 2113 
z
" transform="scale(0.015625)"/>
         <path id="DejaVuSans-5f" d="M 3263 -1063 
L 3263 -1509 
L -63 -1509 
L -63 -1063 
L 3263 -1063 
z
" transform="scale(0.015625)"/>
         <path id="DejaVuSans-6c" d="M 603 4863 
L 1178 4863 
L 1178 0 
L 603 0 
L 603 4863 
z
" transform="scale(0.015625)"/>
         <path id="DejaVuSans-2e" d="M 684 794 
L 1344 794 
L 1344 0 
L 684 0 
L 684 794 
z
" transform="scale(0.015625)"/>
        </defs>
        <use xlink:href="#DejaVuSans-73"/>
        <use xlink:href="#DejaVuSans-74" x="52.099609"/>
        <use xlink:href="#DejaVuSans-65" x="91.308594"/>
        <use xlink:href="#DejaVuSans-70" x="152.832031"/>
        <use xlink:href="#DejaVuSans-70" x="216.308594"/>
        <use xlink:href="#DejaVuSans-69" x="279.785156"/>
        <use xlink:href="#DejaVuSans-6e" x="307.568359"/>
        <use xlink:href="#DejaVuSans-67" x="370.947266"/>
        <use xlink:href="#DejaVuSans-5f" x="434.423828"/>
        <use xlink:href="#DejaVuSans-73" x="484.423828"/>
        <use xlink:href="#DejaVuSans-74" x="536.523438"/>
        <use xlink:href="#DejaVuSans-6f" x="575.732422"/>
        <use xlink:href="#DejaVuSans-6e" x="636.914062"/>
        <use xlink:href="#DejaVuSans-65" x="700.292969"/>
        <use xlink:href="#DejaVuSans-5f" x="761.816406"/>
        <use xlink:href="#DejaVuSans-6d" x="811.816406"/>
        <use xlink:href="#DejaVuSans-6f" x="909.228516"/>
        <use xlink:href="#DejaVuSans-64" x="970.410156"/>
        <use xlink:href="#DejaVuSans-65" x="1033.886719"/>
        <use xlink:href="#DejaVuSans-6c" x="1095.410156"/>
        <use xlink:href="#DejaVuSans-2e" x="1123.193359"/>
        <use xlink:href="#DejaVuSans-79" x="1154.980469"/>
        <use xlink:href="#DejaVuSans-61" x="1214.160156"/>
        <use xlink:href="#DejaVuSans-6d" x="1275.439453"/>
        <use xlink:href="#DejaVuSans-6c" x="1372.851562"/>
       </g>
      </g>
     </g>
    </g>
    <defs>
     <clipPath id="pf97ebf8fd3">
      <rect x="46.965625" y="22.318125" width="450.634375" height="238.10375"/>
     </clipPath>
    </defs>
   </g>
  </g>
 </g>
</svg>
