<?xml version="1.0" encoding="utf-8" standalone="no"?>
<!DOCTYPE svg PUBLIC "-//W3C//DTD SVG 1.1//EN"
  "http://www.w3.org/Graphics/SVG/1.1/DTD/svg11.dtd">
<svg xmlns:xlink="http://www.w3.org/1999/xlink" width="504.8pt" height="280.8pt" viewBox="0 0 504.8 280.8" xmlns="http://www.w3.org/2000/svg" version="1.1">
 <metadata>
  <rdf:RDF xmlns:dc="http://purl.org/dc/elements/1.1/" xmlns:cc="http://creativecommons.org/ns#" xmlns:rdf="http://www.w3.org/1999/02/22-rdf-syntax-ns#">
   <cc:Work>
    <dc:type rdf:resource="http://purl.org/dc/dcmitype/StillImage"/>
    <dc:date>2022-06-27T08:29:06.676329</dc:date>
    <dc:format>image/svg+xml</dc:format>
    <dc:creator>
     <cc:Agent>
      <dc:title>Matplotlib v3.5.2, https://matplotlib.org/</dc:title>
     </cc:Agent>
    </dc:creator>
   </cc:Work>
  </rdf:RDF>
 </metadata>
 <defs>
  <style type="text/css">*{stroke-linejoin: round; stroke-linecap: butt}</style>
 </defs>
 <g id="figure_1">
  <g id="patch_1">
   <path d="M 0 280.8 
L 504.8 280.8 
L 504.8 0 
L 0 0 
L 0 280.8 
z
" style="fill: none"/>
  </g>
  <g id="axes_1">
   <g id="patch_2">
    <path d="M 43.78125 260.421875 
L 497.6 260.421875 
L 497.6 22.318125 
L 43.78125 22.318125 
z
" style="fill: #ffffff"/>
   </g>
   <path d="M 169.606632 84.216988 
L 170.606632 84.248425 
L 171.606632 84.285365 
L 172.606632 84.383112 
L 173.606632 84.415633 
L 174.606632 84.489258 
L 175.606632 84.527824 
L 176.606632 84.563237 
L 177.606632 84.620877 
L 178.606632 84.691263 
L 179.606632 84.743227 
L 180.606632 84.802317 
L 181.606632 84.890638 
L 182.606632 84.936782 
L 183.606632 84.979193 
L 184.606632 85.009686 
L 185.606632 85.035731 
L 186.606632 85.056931 
L 187.606632 85.111232 
L 188.606632 85.139169 
L 189.606632 85.168893 
L 190.606632 85.194288 
L 191.606632 85.205489 
L 192.606632 85.215613 
L 193.606632 85.215408 
L 194.606632 85.205898 
L 195.606632 85.194245 
L 196.606632 85.163215 
L 197.606632 85.152048 
L 198.606632 85.12193 
L 199.606632 85.062153 
L 200.606632 85.024962 
L 201.606632 84.985865 
L 202.606632 84.943426 
L 203.606632 84.910661 
L 204.606632 84.843234 
L 205.606632 84.804108 
L 206.606632 84.761434 
L 207.606632 84.690853 
L 208.606632 84.654462 
L 209.606632 84.596059 
L 210.606632 84.485107 
L 211.606632 84.414448 
L 212.606632 84.301508 
L 213.606632 84.255736 
L 214.606632 84.194452 
L 215.822903 84.145953 
" clip-path="url(#p04d1ab00ff)" style="fill: none; stroke: #1f77b4; stroke-opacity: 0.5; stroke-width: 0.2; stroke-linecap: square"/>
   <path d="M 169.606632 103.574055 
L 170.606632 103.605492 
L 171.606632 103.642432 
L 172.606632 103.740179 
L 173.606632 103.7727 
L 174.606632 103.846325 
L 175.606632 103.884891 
L 176.606632 103.920304 
L 177.606632 103.977944 
L 178.606632 104.04833 
L 179.606632 104.100294 
L 180.606632 104.159384 
L 181.606632 104.247705 
L 182.606632 104.293849 
L 183.606632 104.33626 
L 184.606632 104.366753 
L 185.606632 104.392798 
L 186.606632 104.413998 
L 187.606632 104.468299 
L 188.606632 104.496236 
L 189.606632 104.52596 
L 190.606632 104.551355 
L 191.606632 104.562556 
L 192.606632 104.572679 
L 193.606632 104.572475 
L 194.606632 104.562965 
L 195.606632 104.551312 
L 196.606632 104.520282 
L 197.606632 104.509115 
L 198.606632 104.478997 
L 199.606632 104.41922 
L 200.606632 104.382029 
L 201.606632 104.342932 
L 202.606632 104.300493 
L 203.606632 104.267728 
L 204.606632 104.200301 
L 205.606632 104.161175 
L 206.606632 104.118501 
L 207.606632 104.04792 
L 208.606632 104.011529 
L 209.606632 103.953126 
L 210.606632 103.842174 
L 211.606632 103.771515 
L 212.606632 103.658575 
L 213.606632 103.612803 
L 214.606632 103.551519 
L 215.822903 103.50302 
" clip-path="url(#p04d1ab00ff)" style="fill: none; stroke: #1f77b4; stroke-opacity: 0.5; stroke-width: 0.2; stroke-linecap: square"/>
   <path d="M 169.606632 135.586657 
L 170.606632 135.618093 
L 171.606632 135.655034 
L 172.606632 135.75278 
L 173.606632 135.785302 
L 174.606632 135.858926 
L 175.606632 135.897492 
L 176.606632 135.932905 
L 177.606632 135.990545 
L 178.606632 136.060931 
L 179.606632 136.112895 
L 180.606632 136.171985 
L 181.606632 136.260306 
L 182.606632 136.306451 
L 183.606632 136.348861 
L 184.606632 136.379354 
L 185.606632 136.405399 
L 186.606632 136.426599 
L 187.606632 136.4809 
L 188.606632 136.508838 
L 189.606632 136.538562 
L 190.606632 136.563957 
L 191.606632 136.575157 
L 192.606632 136.585281 
L 193.606632 136.585077 
L 194.606632 136.575567 
L 195.606632 136.563913 
L 196.606632 136.532884 
L 197.606632 136.521716 
L 198.606632 136.491598 
L 199.606632 136.431822 
L 200.606632 136.39463 
L 201.606632 136.355534 
L 202.606632 136.313094 
L 203.606632 136.280329 
L 204.606632 136.212903 
L 205.606632 136.173777 
L 206.606632 136.131102 
L 207.606632 136.060522 
L 208.606632 136.024131 
L 209.606632 135.965728 
L 210.606632 135.854775 
L 211.606632 135.784117 
L 212.606632 135.671177 
L 213.606632 135.625404 
L 214.606632 135.564121 
L 215.822903 135.515621 
" clip-path="url(#p04d1ab00ff)" style="fill: none; stroke: #1f77b4; stroke-opacity: 0.5; stroke-width: 0.2; stroke-linecap: square"/>
   <path d="M 169.606632 119.853474 
L 170.606632 119.884911 
L 171.606632 119.921851 
L 172.606632 120.019598 
L 173.606632 120.052119 
L 174.606632 120.125744 
L 175.606632 120.16431 
L 176.606632 120.199723 
L 177.606632 120.257363 
L 178.606632 120.327749 
L 179.606632 120.379713 
L 180.606632 120.438803 
L 181.606632 120.527124 
L 182.606632 120.573268 
L 183.606632 120.615679 
L 184.606632 120.646172 
L 185.606632 120.672217 
L 186.606632 120.693417 
L 187.606632 120.747718 
L 188.606632 120.775656 
L 189.606632 120.805379 
L 190.606632 120.830774 
L 191.606632 120.841975 
L 192.606632 120.852099 
L 193.606632 120.851894 
L 194.606632 120.842384 
L 195.606632 120.830731 
L 196.606632 120.799702 
L 197.606632 120.788534 
L 198.606632 120.758416 
L 199.606632 120.698639 
L 200.606632 120.661448 
L 201.606632 120.622352 
L 202.606632 120.579912 
L 203.606632 120.547147 
L 204.606632 120.47972 
L 205.606632 120.440594 
L 206.606632 120.39792 
L 207.606632 120.327339 
L 208.606632 120.290948 
L 209.606632 120.232545 
L 210.606632 120.121593 
L 211.606632 120.050934 
L 212.606632 119.937995 
L 213.606632 119.892222 
L 214.606632 119.830938 
L 215.822903 119.782439 
" clip-path="url(#p04d1ab00ff)" style="fill: none; stroke: #1f77b4; stroke-opacity: 0.5; stroke-width: 0.2; stroke-linecap: square"/>
   <path d="M 169.606632 115.631063 
L 170.606632 115.6625 
L 171.606632 115.69944 
L 172.606632 115.797187 
L 173.606632 115.829708 
L 174.606632 115.903333 
L 175.606632 115.941899 
L 176.606632 115.977312 
L 177.606632 116.034952 
L 178.606632 116.105338 
L 179.606632 116.157302 
L 180.606632 116.216392 
L 181.606632 116.304713 
L 182.606632 116.350857 
L 183.606632 116.393268 
L 184.606632 116.423761 
L 185.606632 116.449806 
L 186.606632 116.471006 
L 187.606632 116.525307 
L 188.606632 116.553244 
L 189.606632 116.582968 
L 190.606632 116.608363 
L 191.606632 116.619564 
L 192.606632 116.629688 
L 193.606632 116.629483 
L 194.606632 116.619973 
L 195.606632 116.60832 
L 196.606632 116.577291 
L 197.606632 116.566123 
L 198.606632 116.536005 
L 199.606632 116.476228 
L 200.606632 116.439037 
L 201.606632 116.399941 
L 202.606632 116.357501 
L 203.606632 116.324736 
L 204.606632 116.257309 
L 205.606632 116.218183 
L 206.606632 116.175509 
L 207.606632 116.104928 
L 208.606632 116.068537 
L 209.606632 116.010134 
L 210.606632 115.899182 
L 211.606632 115.828523 
L 212.606632 115.715584 
L 213.606632 115.669811 
L 214.606632 115.608527 
L 215.822903 115.560028 
" clip-path="url(#p04d1ab00ff)" style="fill: none; stroke: #1f77b4; stroke-opacity: 0.5; stroke-width: 0.2; stroke-linecap: square"/>
   <path d="M 169.606632 113.535279 
L 170.606632 113.566715 
L 171.606632 113.603655 
L 172.606632 113.701402 
L 173.606632 113.733924 
L 174.606632 113.807548 
L 175.606632 113.846114 
L 176.606632 113.881527 
L 177.606632 113.939167 
L 178.606632 114.009553 
L 179.606632 114.061517 
L 180.606632 114.120607 
L 181.606632 114.208928 
L 182.606632 114.255072 
L 183.606632 114.297483 
L 184.606632 114.327976 
L 185.606632 114.354021 
L 186.606632 114.375221 
L 187.606632 114.429522 
L 188.606632 114.45746 
L 189.606632 114.487184 
L 190.606632 114.512578 
L 191.606632 114.523779 
L 192.606632 114.533903 
L 193.606632 114.533698 
L 194.606632 114.524189 
L 195.606632 114.512535 
L 196.606632 114.481506 
L 197.606632 114.470338 
L 198.606632 114.44022 
L 199.606632 114.380443 
L 200.606632 114.343252 
L 201.606632 114.304156 
L 202.606632 114.261716 
L 203.606632 114.228951 
L 204.606632 114.161525 
L 205.606632 114.122399 
L 206.606632 114.079724 
L 207.606632 114.009144 
L 208.606632 113.972753 
L 209.606632 113.914349 
L 210.606632 113.803397 
L 211.606632 113.732739 
L 212.606632 113.619799 
L 213.606632 113.574026 
L 214.606632 113.512743 
L 215.822903 113.464243 
" clip-path="url(#p04d1ab00ff)" style="fill: none; stroke: #1f77b4; stroke-opacity: 0.5; stroke-width: 0.2; stroke-linecap: square"/>
   <path d="M 169.606632 147.091847 
L 170.606632 147.123283 
L 171.606632 147.160224 
L 172.606632 147.25797 
L 173.606632 147.290492 
L 174.606632 147.364117 
L 175.606632 147.402682 
L 176.606632 147.438095 
L 177.606632 147.495735 
L 178.606632 147.566121 
L 179.606632 147.618086 
L 180.606632 147.677175 
L 181.606632 147.765496 
L 182.606632 147.811641 
L 183.606632 147.854052 
L 184.606632 147.884544 
L 185.606632 147.910589 
L 186.606632 147.931789 
L 187.606632 147.98609 
L 188.606632 148.014028 
L 189.606632 148.043752 
L 190.606632 148.069147 
L 191.606632 148.080347 
L 192.606632 148.090471 
L 193.606632 148.090267 
L 194.606632 148.080757 
L 195.606632 148.069103 
L 196.606632 148.038074 
L 197.606632 148.026906 
L 198.606632 147.996789 
L 199.606632 147.937012 
L 200.606632 147.89982 
L 201.606632 147.860724 
L 202.606632 147.818284 
L 203.606632 147.785519 
L 204.606632 147.718093 
L 205.606632 147.678967 
L 206.606632 147.636292 
L 207.606632 147.565712 
L 208.606632 147.529321 
L 209.606632 147.470918 
L 210.606632 147.359965 
L 211.606632 147.289307 
L 212.606632 147.176367 
L 213.606632 147.130594 
L 214.606632 147.069311 
L 215.822903 147.020812 
" clip-path="url(#p04d1ab00ff)" style="fill: none; stroke: #1f77b4; stroke-opacity: 0.5; stroke-width: 0.2; stroke-linecap: square"/>
   <path d="M 169.606632 80.069855 
L 170.606632 80.101291 
L 171.606632 80.138231 
L 172.606632 80.235978 
L 173.606632 80.2685 
L 174.606632 80.342124 
L 175.606632 80.38069 
L 176.606632 80.416103 
L 177.606632 80.473743 
L 178.606632 80.544129 
L 179.606632 80.596093 
L 180.606632 80.655183 
L 181.606632 80.743504 
L 182.606632 80.789648 
L 183.606632 80.832059 
L 184.606632 80.862552 
L 185.606632 80.888597 
L 186.606632 80.909797 
L 187.606632 80.964098 
L 188.606632 80.992036 
L 189.606632 81.02176 
L 190.606632 81.047154 
L 191.606632 81.058355 
L 192.606632 81.068479 
L 193.606632 81.068274 
L 194.606632 81.058765 
L 195.606632 81.047111 
L 196.606632 81.016082 
L 197.606632 81.004914 
L 198.606632 80.974796 
L 199.606632 80.915019 
L 200.606632 80.877828 
L 201.606632 80.838732 
L 202.606632 80.796292 
L 203.606632 80.763527 
L 204.606632 80.696101 
L 205.606632 80.656975 
L 206.606632 80.6143 
L 207.606632 80.543719 
L 208.606632 80.507329 
L 209.606632 80.448925 
L 210.606632 80.337973 
L 211.606632 80.267315 
L 212.606632 80.154375 
L 213.606632 80.108602 
L 214.606632 80.047319 
L 215.822903 79.998819 
" clip-path="url(#p04d1ab00ff)" style="fill: none; stroke: #1f77b4; stroke-opacity: 0.5; stroke-width: 0.2; stroke-linecap: square"/>
   <path d="M 169.606632 94.468346 
L 170.606632 94.499783 
L 171.606632 94.536723 
L 172.606632 94.63447 
L 173.606632 94.666991 
L 174.606632 94.740616 
L 175.606632 94.779182 
L 176.606632 94.814595 
L 177.606632 94.872235 
L 178.606632 94.942621 
L 179.606632 94.994585 
L 180.606632 95.053675 
L 181.606632 95.141996 
L 182.606632 95.18814 
L 183.606632 95.230551 
L 184.606632 95.261044 
L 185.606632 95.287089 
L 186.606632 95.308289 
L 187.606632 95.36259 
L 188.606632 95.390527 
L 189.606632 95.420251 
L 190.606632 95.445646 
L 191.606632 95.456847 
L 192.606632 95.466971 
L 193.606632 95.466766 
L 194.606632 95.457256 
L 195.606632 95.445603 
L 196.606632 95.414574 
L 197.606632 95.403406 
L 198.606632 95.373288 
L 199.606632 95.313511 
L 200.606632 95.27632 
L 201.606632 95.237224 
L 202.606632 95.194784 
L 203.606632 95.162019 
L 204.606632 95.094592 
L 205.606632 95.055466 
L 206.606632 95.012792 
L 207.606632 94.942211 
L 208.606632 94.90582 
L 209.606632 94.847417 
L 210.606632 94.736465 
L 211.606632 94.665806 
L 212.606632 94.552866 
L 213.606632 94.507094 
L 214.606632 94.44581 
L 215.822903 94.397311 
" clip-path="url(#p04d1ab00ff)" style="fill: none; stroke: #1f77b4; stroke-opacity: 0.5; stroke-width: 0.2; stroke-linecap: square"/>
   <path d="M 169.606632 112.403961 
L 170.606632 112.435397 
L 171.606632 112.472338 
L 172.606632 112.570084 
L 173.606632 112.602606 
L 174.606632 112.67623 
L 175.606632 112.714796 
L 176.606632 112.750209 
L 177.606632 112.807849 
L 178.606632 112.878235 
L 179.606632 112.930199 
L 180.606632 112.989289 
L 181.606632 113.07761 
L 182.606632 113.123754 
L 183.606632 113.166165 
L 184.606632 113.196658 
L 185.606632 113.222703 
L 186.606632 113.243903 
L 187.606632 113.298204 
L 188.606632 113.326142 
L 189.606632 113.355866 
L 190.606632 113.381261 
L 191.606632 113.392461 
L 192.606632 113.402585 
L 193.606632 113.402381 
L 194.606632 113.392871 
L 195.606632 113.381217 
L 196.606632 113.350188 
L 197.606632 113.33902 
L 198.606632 113.308902 
L 199.606632 113.249125 
L 200.606632 113.211934 
L 201.606632 113.172838 
L 202.606632 113.130398 
L 203.606632 113.097633 
L 204.606632 113.030207 
L 205.606632 112.991081 
L 206.606632 112.948406 
L 207.606632 112.877826 
L 208.606632 112.841435 
L 209.606632 112.783032 
L 210.606632 112.672079 
L 211.606632 112.601421 
L 212.606632 112.488481 
L 213.606632 112.442708 
L 214.606632 112.381425 
L 215.822903 112.332925 
" clip-path="url(#p04d1ab00ff)" style="fill: none; stroke: #1f77b4; stroke-opacity: 0.5; stroke-width: 0.2; stroke-linecap: square"/>
   <path d="M 325.558347 152.01194 
L 326.558347 152.043376 
L 327.558347 152.080316 
L 328.558347 152.178063 
L 329.558347 152.210585 
L 330.558347 152.284209 
L 331.558347 152.322775 
L 332.558347 152.358188 
L 333.558347 152.415828 
L 334.558347 152.486214 
L 335.558347 152.538178 
L 336.558347 152.597268 
L 337.558347 152.685589 
L 338.558347 152.731733 
L 339.558347 152.774144 
L 340.558347 152.804637 
L 341.558347 152.830682 
L 342.558347 152.851882 
L 343.558347 152.906183 
L 344.558347 152.934121 
L 345.558347 152.963845 
L 346.558347 152.989239 
L 347.558347 153.00044 
L 348.558347 153.010564 
L 349.558347 153.01036 
L 350.558347 153.00085 
L 351.558347 152.989196 
L 352.558347 152.958167 
L 353.558347 152.946999 
L 354.558347 152.916881 
L 355.558347 152.857104 
L 356.558347 152.819913 
L 357.558347 152.780817 
L 358.558347 152.738377 
L 359.558347 152.705612 
L 360.558347 152.638186 
L 361.558347 152.59906 
L 362.558347 152.556385 
L 363.558347 152.485805 
L 364.558347 152.449414 
L 365.558347 152.39101 
L 366.558347 152.280058 
L 367.558347 152.2094 
L 368.558347 152.09646 
L 369.558347 152.050687 
L 370.558347 151.989404 
L 371.774618 151.940904 
" clip-path="url(#p04d1ab00ff)" style="fill: none; stroke: #ff7f0e; stroke-opacity: 0.5; stroke-width: 0.2; stroke-linecap: square"/>
   <path d="M 325.558347 154.963584 
L 326.558347 154.99502 
L 327.558347 155.031961 
L 328.558347 155.129707 
L 329.558347 155.162229 
L 330.558347 155.235854 
L 331.558347 155.274419 
L 332.558347 155.309832 
L 333.558347 155.367472 
L 334.558347 155.437859 
L 335.558347 155.489823 
L 336.558347 155.548913 
L 337.558347 155.637233 
L 338.558347 155.683378 
L 339.558347 155.725789 
L 340.558347 155.756281 
L 341.558347 155.782326 
L 342.558347 155.803526 
L 343.558347 155.857828 
L 344.558347 155.885765 
L 345.558347 155.915489 
L 346.558347 155.940884 
L 347.558347 155.952084 
L 348.558347 155.962208 
L 349.558347 155.962004 
L 350.558347 155.952494 
L 351.558347 155.94084 
L 352.558347 155.909811 
L 353.558347 155.898643 
L 354.558347 155.868526 
L 355.558347 155.808749 
L 356.558347 155.771557 
L 357.558347 155.732461 
L 358.558347 155.690021 
L 359.558347 155.657256 
L 360.558347 155.58983 
L 361.558347 155.550704 
L 362.558347 155.50803 
L 363.558347 155.437449 
L 364.558347 155.401058 
L 365.558347 155.342655 
L 366.558347 155.231702 
L 367.558347 155.161044 
L 368.558347 155.048104 
L 369.558347 155.002331 
L 370.558347 154.941048 
L 371.774618 154.892549 
" clip-path="url(#p04d1ab00ff)" style="fill: none; stroke: #ff7f0e; stroke-opacity: 0.5; stroke-width: 0.2; stroke-linecap: square"/>
   <path d="M 325.558347 93.153729 
L 326.558347 93.185165 
L 327.558347 93.222106 
L 328.558347 93.319852 
L 329.558347 93.352374 
L 330.558347 93.425999 
L 331.558347 93.464564 
L 332.558347 93.499977 
L 333.558347 93.557617 
L 334.558347 93.628004 
L 335.558347 93.679968 
L 336.558347 93.739058 
L 337.558347 93.827379 
L 338.558347 93.873523 
L 339.558347 93.915934 
L 340.558347 93.946426 
L 341.558347 93.972471 
L 342.558347 93.993671 
L 343.558347 94.047973 
L 344.558347 94.07591 
L 345.558347 94.105634 
L 346.558347 94.131029 
L 347.558347 94.142229 
L 348.558347 94.152353 
L 349.558347 94.152149 
L 350.558347 94.142639 
L 351.558347 94.130985 
L 352.558347 94.099956 
L 353.558347 94.088788 
L 354.558347 94.058671 
L 355.558347 93.998894 
L 356.558347 93.961702 
L 357.558347 93.922606 
L 358.558347 93.880167 
L 359.558347 93.847401 
L 360.558347 93.779975 
L 361.558347 93.740849 
L 362.558347 93.698175 
L 363.558347 93.627594 
L 364.558347 93.591203 
L 365.558347 93.5328 
L 366.558347 93.421847 
L 367.558347 93.351189 
L 368.558347 93.238249 
L 369.558347 93.192476 
L 370.558347 93.131193 
L 371.774618 93.082694 
" clip-path="url(#p04d1ab00ff)" style="fill: none; stroke: #ff7f0e; stroke-opacity: 0.5; stroke-width: 0.2; stroke-linecap: square"/>
   <path d="M 325.558347 81.463961 
L 326.558347 81.495398 
L 327.558347 81.532338 
L 328.558347 81.630084 
L 329.558347 81.662606 
L 330.558347 81.736231 
L 331.558347 81.774796 
L 332.558347 81.81021 
L 333.558347 81.867849 
L 334.558347 81.938236 
L 335.558347 81.9902 
L 336.558347 82.04929 
L 337.558347 82.137611 
L 338.558347 82.183755 
L 339.558347 82.226166 
L 340.558347 82.256659 
L 341.558347 82.282703 
L 342.558347 82.303904 
L 343.558347 82.358205 
L 344.558347 82.386142 
L 345.558347 82.415866 
L 346.558347 82.441261 
L 347.558347 82.452461 
L 348.558347 82.462585 
L 349.558347 82.462381 
L 350.558347 82.452871 
L 351.558347 82.441218 
L 352.558347 82.410188 
L 353.558347 82.39902 
L 354.558347 82.368903 
L 355.558347 82.309126 
L 356.558347 82.271934 
L 357.558347 82.232838 
L 358.558347 82.190399 
L 359.558347 82.157634 
L 360.558347 82.090207 
L 361.558347 82.051081 
L 362.558347 82.008407 
L 363.558347 81.937826 
L 364.558347 81.901435 
L 365.558347 81.843032 
L 366.558347 81.732079 
L 367.558347 81.661421 
L 368.558347 81.548481 
L 369.558347 81.502708 
L 370.558347 81.441425 
L 371.774618 81.392926 
" clip-path="url(#p04d1ab00ff)" style="fill: none; stroke: #ff7f0e; stroke-opacity: 0.5; stroke-width: 0.2; stroke-linecap: square"/>
   <path d="M 325.558347 116.053386 
L 326.558347 116.084823 
L 327.558347 116.121763 
L 328.558347 116.21951 
L 329.558347 116.252031 
L 330.558347 116.325656 
L 331.558347 116.364222 
L 332.558347 116.399635 
L 333.558347 116.457275 
L 334.558347 116.527661 
L 335.558347 116.579625 
L 336.558347 116.638715 
L 337.558347 116.727036 
L 338.558347 116.77318 
L 339.558347 116.815591 
L 340.558347 116.846084 
L 341.558347 116.872129 
L 342.558347 116.893329 
L 343.558347 116.94763 
L 344.558347 116.975567 
L 345.558347 117.005291 
L 346.558347 117.030686 
L 347.558347 117.041887 
L 348.558347 117.052011 
L 349.558347 117.051806 
L 350.558347 117.042296 
L 351.558347 117.030643 
L 352.558347 116.999614 
L 353.558347 116.988446 
L 354.558347 116.958328 
L 355.558347 116.898551 
L 356.558347 116.86136 
L 357.558347 116.822264 
L 358.558347 116.779824 
L 359.558347 116.747059 
L 360.558347 116.679632 
L 361.558347 116.640506 
L 362.558347 116.597832 
L 363.558347 116.527251 
L 364.558347 116.49086 
L 365.558347 116.432457 
L 366.558347 116.321505 
L 367.558347 116.250846 
L 368.558347 116.137906 
L 369.558347 116.092134 
L 370.558347 116.03085 
L 371.774618 115.982351 
" clip-path="url(#p04d1ab00ff)" style="fill: none; stroke: #ff7f0e; stroke-opacity: 0.5; stroke-width: 0.2; stroke-linecap: square"/>
   <path d="M 325.558347 76.551192 
L 326.558347 76.582628 
L 327.558347 76.619569 
L 328.558347 76.717315 
L 329.558347 76.749837 
L 330.558347 76.823461 
L 331.558347 76.862027 
L 332.558347 76.89744 
L 333.558347 76.95508 
L 334.558347 77.025466 
L 335.558347 77.077431 
L 336.558347 77.13652 
L 337.558347 77.224841 
L 338.558347 77.270986 
L 339.558347 77.313396 
L 340.558347 77.343889 
L 341.558347 77.369934 
L 342.558347 77.391134 
L 343.558347 77.445435 
L 344.558347 77.473373 
L 345.558347 77.503097 
L 346.558347 77.528492 
L 347.558347 77.539692 
L 348.558347 77.549816 
L 349.558347 77.549612 
L 350.558347 77.540102 
L 351.558347 77.528448 
L 352.558347 77.497419 
L 353.558347 77.486251 
L 354.558347 77.456133 
L 355.558347 77.396357 
L 356.558347 77.359165 
L 357.558347 77.320069 
L 358.558347 77.277629 
L 359.558347 77.244864 
L 360.558347 77.177438 
L 361.558347 77.138312 
L 362.558347 77.095637 
L 363.558347 77.025057 
L 364.558347 76.988666 
L 365.558347 76.930263 
L 366.558347 76.81931 
L 367.558347 76.748652 
L 368.558347 76.635712 
L 369.558347 76.589939 
L 370.558347 76.528656 
L 371.774618 76.480156 
" clip-path="url(#p04d1ab00ff)" style="fill: none; stroke: #ff7f0e; stroke-opacity: 0.5; stroke-width: 0.2; stroke-linecap: square"/>
   <path d="M 325.558347 143.621741 
L 326.558347 143.653177 
L 327.558347 143.690117 
L 328.558347 143.787864 
L 329.558347 143.820386 
L 330.558347 143.89401 
L 331.558347 143.932576 
L 332.558347 143.967989 
L 333.558347 144.025629 
L 334.558347 144.096015 
L 335.558347 144.147979 
L 336.558347 144.207069 
L 337.558347 144.29539 
L 338.558347 144.341534 
L 339.558347 144.383945 
L 340.558347 144.414438 
L 341.558347 144.440483 
L 342.558347 144.461683 
L 343.558347 144.515984 
L 344.558347 144.543922 
L 345.558347 144.573646 
L 346.558347 144.59904 
L 347.558347 144.610241 
L 348.558347 144.620365 
L 349.558347 144.62016 
L 350.558347 144.610651 
L 351.558347 144.598997 
L 352.558347 144.567968 
L 353.558347 144.5568 
L 354.558347 144.526682 
L 355.558347 144.466905 
L 356.558347 144.429714 
L 357.558347 144.390618 
L 358.558347 144.348178 
L 359.558347 144.315413 
L 360.558347 144.247987 
L 361.558347 144.208861 
L 362.558347 144.166186 
L 363.558347 144.095605 
L 364.558347 144.059215 
L 365.558347 144.000811 
L 366.558347 143.889859 
L 367.558347 143.819201 
L 368.558347 143.706261 
L 369.558347 143.660488 
L 370.558347 143.599205 
L 371.774618 143.550705 
" clip-path="url(#p04d1ab00ff)" style="fill: none; stroke: #ff7f0e; stroke-opacity: 0.5; stroke-width: 0.2; stroke-linecap: square"/>
   <path d="M 325.558347 79.920312 
L 326.558347 79.951749 
L 327.558347 79.988689 
L 328.558347 80.086436 
L 329.558347 80.118957 
L 330.558347 80.192582 
L 331.558347 80.231147 
L 332.558347 80.266561 
L 333.558347 80.324201 
L 334.558347 80.394587 
L 335.558347 80.446551 
L 336.558347 80.505641 
L 337.558347 80.593962 
L 338.558347 80.640106 
L 339.558347 80.682517 
L 340.558347 80.71301 
L 341.558347 80.739055 
L 342.558347 80.760255 
L 343.558347 80.814556 
L 344.558347 80.842493 
L 345.558347 80.872217 
L 346.558347 80.897612 
L 347.558347 80.908812 
L 348.558347 80.918936 
L 349.558347 80.918732 
L 350.558347 80.909222 
L 351.558347 80.897569 
L 352.558347 80.866539 
L 353.558347 80.855371 
L 354.558347 80.825254 
L 355.558347 80.765477 
L 356.558347 80.728285 
L 357.558347 80.689189 
L 358.558347 80.64675 
L 359.558347 80.613985 
L 360.558347 80.546558 
L 361.558347 80.507432 
L 362.558347 80.464758 
L 363.558347 80.394177 
L 364.558347 80.357786 
L 365.558347 80.299383 
L 366.558347 80.18843 
L 367.558347 80.117772 
L 368.558347 80.004832 
L 369.558347 79.959059 
L 370.558347 79.897776 
L 371.774618 79.849277 
" clip-path="url(#p04d1ab00ff)" style="fill: none; stroke: #ff7f0e; stroke-opacity: 0.5; stroke-width: 0.2; stroke-linecap: square"/>
   <path d="M 325.558347 153.848205 
L 326.558347 153.879642 
L 327.558347 153.916582 
L 328.558347 154.014329 
L 329.558347 154.04685 
L 330.558347 154.120475 
L 331.558347 154.159041 
L 332.558347 154.194454 
L 333.558347 154.252094 
L 334.558347 154.32248 
L 335.558347 154.374444 
L 336.558347 154.433534 
L 337.558347 154.521855 
L 338.558347 154.567999 
L 339.558347 154.61041 
L 340.558347 154.640903 
L 341.558347 154.666948 
L 342.558347 154.688148 
L 343.558347 154.742449 
L 344.558347 154.770386 
L 345.558347 154.80011 
L 346.558347 154.825505 
L 347.558347 154.836706 
L 348.558347 154.84683 
L 349.558347 154.846625 
L 350.558347 154.837115 
L 351.558347 154.825462 
L 352.558347 154.794433 
L 353.558347 154.783265 
L 354.558347 154.753147 
L 355.558347 154.69337 
L 356.558347 154.656179 
L 357.558347 154.617083 
L 358.558347 154.574643 
L 359.558347 154.541878 
L 360.558347 154.474451 
L 361.558347 154.435325 
L 362.558347 154.392651 
L 363.558347 154.32207 
L 364.558347 154.285679 
L 365.558347 154.227276 
L 366.558347 154.116324 
L 367.558347 154.045665 
L 368.558347 153.932726 
L 369.558347 153.886953 
L 370.558347 153.825669 
L 371.774618 153.77717 
" clip-path="url(#p04d1ab00ff)" style="fill: none; stroke: #ff7f0e; stroke-opacity: 0.5; stroke-width: 0.2; stroke-linecap: square"/>
   <path d="M 325.558347 134.367213 
L 326.558347 134.39865 
L 327.558347 134.43559 
L 328.558347 134.533337 
L 329.558347 134.565858 
L 330.558347 134.639483 
L 331.558347 134.678049 
L 332.558347 134.713462 
L 333.558347 134.771102 
L 334.558347 134.841488 
L 335.558347 134.893452 
L 336.558347 134.952542 
L 337.558347 135.040863 
L 338.558347 135.087007 
L 339.558347 135.129418 
L 340.558347 135.159911 
L 341.558347 135.185956 
L 342.558347 135.207156 
L 343.558347 135.261457 
L 344.558347 135.289394 
L 345.558347 135.319118 
L 346.558347 135.344513 
L 347.558347 135.355714 
L 348.558347 135.365838 
L 349.558347 135.365633 
L 350.558347 135.356123 
L 351.558347 135.34447 
L 352.558347 135.31344 
L 353.558347 135.302273 
L 354.558347 135.272155 
L 355.558347 135.212378 
L 356.558347 135.175187 
L 357.558347 135.13609 
L 358.558347 135.093651 
L 359.558347 135.060886 
L 360.558347 134.993459 
L 361.558347 134.954333 
L 362.558347 134.911659 
L 363.558347 134.841078 
L 364.558347 134.804687 
L 365.558347 134.746284 
L 366.558347 134.635332 
L 367.558347 134.564673 
L 368.558347 134.451733 
L 369.558347 134.405961 
L 370.558347 134.344677 
L 371.774618 134.296178 
" clip-path="url(#p04d1ab00ff)" style="fill: none; stroke: #ff7f0e; stroke-opacity: 0.5; stroke-width: 0.2; stroke-linecap: square"/>
   <g id="patch_3">
    <path d="M 64.409375 22.318125 
L 64.409375 260.421875 
M 165.068445 22.318125 
L 165.068445 260.421875 
" clip-path="url(#p04d1ab00ff)" style="fill: none; stroke: #ffffff; stroke-width: 3; stroke-linejoin: miter"/>
    <path d="M 64.409375 22.318125 
L 64.409375 260.421875 
M 165.068445 22.318125 
L 165.068445 260.421875 
" clip-path="url(#p04d1ab00ff)" style="fill: none; stroke: #1f77b4; stroke-linejoin: miter"/>
    <g id="PolyCollection_1">
     <path d="M 165.068445 22.318125 
L 64.409375 22.318125 
L 64.409375 260.421875 
L 165.068445 260.421875 
L 165.068445 260.421875 
L 165.068445 22.318125 
z
" clip-path="url(#p04d1ab00ff)" style="fill: #1f77b4; fill-opacity: 0.5"/>
    </g>
    <g id="patch_4">
     <path d="M 220.36109 22.318125 
L 220.36109 260.421875 
M 321.02016 22.318125 
L 321.02016 260.421875 
" clip-path="url(#p04d1ab00ff)" style="fill: none; stroke: #ffffff; stroke-width: 3; stroke-linejoin: miter"/>
     <path d="M 220.36109 22.318125 
L 220.36109 260.421875 
M 321.02016 22.318125 
L 321.02016 260.421875 
" clip-path="url(#p04d1ab00ff)" style="fill: none; stroke: #ff7f0e; stroke-linejoin: miter"/>
     <g id="PolyCollection_2">
      <path d="M 321.02016 22.318125 
L 220.36109 22.318125 
L 220.36109 260.421875 
L 321.02016 260.421875 
L 321.02016 260.421875 
L 321.02016 22.318125 
z
" clip-path="url(#p04d1ab00ff)" style="fill: #ff7f0e; fill-opacity: 0.5"/>
     </g>
     <g id="patch_5">
      <path d="M 376.312805 22.318125 
L 376.312805 260.421875 
M 476.971875 22.318125 
L 476.971875 260.421875 
" clip-path="url(#p04d1ab00ff)" style="fill: none; stroke: #ffffff; stroke-width: 3; stroke-linejoin: miter"/>
      <path d="M 376.312805 22.318125 
L 376.312805 260.421875 
M 476.971875 22.318125 
L 476.971875 260.421875 
" clip-path="url(#p04d1ab00ff)" style="fill: none; stroke: #2ca02c; stroke-linejoin: miter"/>
      <g id="PolyCollection_3">
       <path d="M 476.971875 22.318125 
L 376.312805 22.318125 
L 376.312805 260.421875 
L 476.971875 260.421875 
L 476.971875 260.421875 
L 476.971875 22.318125 
z
" clip-path="url(#p04d1ab00ff)" style="fill: #2ca02c; fill-opacity: 0.5"/>
      </g>
      <g id="matplotlib.axis_1">
       <g id="xtick_1">
        <g id="line2d_1"/>
        <g id="text_1">
         <!-- deme0 -->
         <g transform="translate(97.360004 271.520312)scale(0.1 -0.1)">
          <defs>
           <path id="DejaVuSans-64" d="M 2906 2969 
L 2906 4863 
L 3481 4863 
L 3481 0 
L 2906 0 
L 2906 525 
Q 2725 213 2448 61 
Q 2172 -91 1784 -91 
Q 1150 -91 751 415 
Q 353 922 353 1747 
Q 353 2572 751 3078 
Q 1150 3584 1784 3584 
Q 2172 3584 2448 3432 
Q 2725 3281 2906 2969 
z
M 947 1747 
Q 947 1113 1208 752 
Q 1469 391 1925 391 
Q 2381 391 2643 752 
Q 2906 1113 2906 1747 
Q 2906 2381 2643 2742 
Q 2381 3103 1925 3103 
Q 1469 3103 1208 2742 
Q 947 2381 947 1747 
z
" transform="scale(0.015625)"/>
           <path id="DejaVuSans-65" d="M 3597 1894 
L 3597 1613 
L 953 1613 
Q 991 1019 1311 708 
Q 1631 397 2203 397 
Q 2534 397 2845 478 
Q 3156 559 3463 722 
L 3463 178 
Q 3153 47 2828 -22 
Q 2503 -91 2169 -91 
Q 1331 -91 842 396 
Q 353 884 353 1716 
Q 353 2575 817 3079 
Q 1281 3584 2069 3584 
Q 2775 3584 3186 3129 
Q 3597 2675 3597 1894 
z
M 3022 2063 
Q 3016 2534 2758 2815 
Q 2500 3097 2075 3097 
Q 1594 3097 1305 2825 
Q 1016 2553 972 2059 
L 3022 2063 
z
" transform="scale(0.015625)"/>
           <path id="DejaVuSans-6d" d="M 3328 2828 
Q 3544 3216 3844 3400 
Q 4144 3584 4550 3584 
Q 5097 3584 5394 3201 
Q 5691 2819 5691 2113 
L 5691 0 
L 5113 0 
L 5113 2094 
Q 5113 2597 4934 2840 
Q 4756 3084 4391 3084 
Q 3944 3084 3684 2787 
Q 3425 2491 3425 1978 
L 3425 0 
L 2847 0 
L 2847 2094 
Q 2847 2600 2669 2842 
Q 2491 3084 2119 3084 
Q 1678 3084 1418 2786 
Q 1159 2488 1159 1978 
L 1159 0 
L 581 0 
L 581 3500 
L 1159 3500 
L 1159 2956 
Q 1356 3278 1631 3431 
Q 1906 3584 2284 3584 
Q 2666 3584 2933 3390 
Q 3200 3197 3328 2828 
z
" transform="scale(0.015625)"/>
           <path id="DejaVuSans-30" d="M 2034 4250 
Q 1547 4250 1301 3770 
Q 1056 3291 1056 2328 
Q 1056 1369 1301 889 
Q 1547 409 2034 409 
Q 2525 409 2770 889 
Q 3016 1369 3016 2328 
Q 3016 3291 2770 3770 
Q 2525 4250 2034 4250 
z
M 2034 4750 
Q 2819 4750 3233 4129 
Q 3647 3509 3647 2328 
Q 3647 1150 3233 529 
Q 2819 -91 2034 -91 
Q 1250 -91 836 529 
Q 422 1150 422 2328 
Q 422 3509 836 4129 
Q 1250 4750 2034 4750 
z
" transform="scale(0.015625)"/>
          </defs>
          <use xlink:href="#DejaVuSans-64"/>
          <use xlink:href="#DejaVuSans-65" x="63.476562"/>
          <use xlink:href="#DejaVuSans-6d" x="125"/>
          <use xlink:href="#DejaVuSans-65" x="222.412109"/>
          <use xlink:href="#DejaVuSans-30" x="283.935547"/>
         </g>
        </g>
       </g>
       <g id="xtick_2">
        <g id="line2d_2"/>
        <g id="text_2">
         <!-- deme1 -->
         <g transform="translate(253.311719 271.520312)scale(0.1 -0.1)">
          <defs>
           <path id="DejaVuSans-31" d="M 794 531 
L 1825 531 
L 1825 4091 
L 703 3866 
L 703 4441 
L 1819 4666 
L 2450 4666 
L 2450 531 
L 3481 531 
L 3481 0 
L 794 0 
L 794 531 
z
" transform="scale(0.015625)"/>
          </defs>
          <use xlink:href="#DejaVuSans-64"/>
          <use xlink:href="#DejaVuSans-65" x="63.476562"/>
          <use xlink:href="#DejaVuSans-6d" x="125"/>
          <use xlink:href="#DejaVuSans-65" x="222.412109"/>
          <use xlink:href="#DejaVuSans-31" x="283.935547"/>
         </g>
        </g>
       </g>
       <g id="xtick_3">
        <g id="line2d_3"/>
        <g id="text_3">
         <!-- deme2 -->
         <g transform="translate(409.263434 271.520312)scale(0.1 -0.1)">
          <defs>
           <path id="DejaVuSans-32" d="M 1228 531 
L 3431 531 
L 3431 0 
L 469 0 
L 469 531 
Q 828 903 1448 1529 
Q 2069 2156 2228 2338 
Q 2531 2678 2651 2914 
Q 2772 3150 2772 3378 
Q 2772 3750 2511 3984 
Q 2250 4219 1831 4219 
Q 1534 4219 1204 4116 
Q 875 4013 500 3803 
L 500 4441 
Q 881 4594 1212 4672 
Q 1544 4750 1819 4750 
Q 2544 4750 2975 4387 
Q 3406 4025 3406 3419 
Q 3406 3131 3298 2873 
Q 3191 2616 2906 2266 
Q 2828 2175 2409 1742 
Q 1991 1309 1228 531 
z
" transform="scale(0.015625)"/>
          </defs>
          <use xlink:href="#DejaVuSans-64"/>
          <use xlink:href="#DejaVuSans-65" x="63.476562"/>
          <use xlink:href="#DejaVuSans-6d" x="125"/>
          <use xlink:href="#DejaVuSans-65" x="222.412109"/>
          <use xlink:href="#DejaVuSans-32" x="283.935547"/>
         </g>
        </g>
       </g>
      </g>
      <g id="matplotlib.axis_2">
       <g id="ytick_1">
        <g id="line2d_4">
         <defs>
          <path id="m9da5b8291a" d="M 0 0 
L -3.5 0 
" style="stroke: #000000; stroke-width: 0.8"/>
         </defs>
         <g>
          <use xlink:href="#m9da5b8291a" x="43.78125" y="260.421875" style="stroke: #000000; stroke-width: 0.8"/>
         </g>
        </g>
        <g id="text_4">
         <!-- 0.0 -->
         <g transform="translate(20.878125 264.221094)scale(0.1 -0.1)">
          <defs>
           <path id="DejaVuSans-2e" d="M 684 794 
L 1344 794 
L 1344 0 
L 684 0 
L 684 794 
z
" transform="scale(0.015625)"/>
          </defs>
          <use xlink:href="#DejaVuSans-30"/>
          <use xlink:href="#DejaVuSans-2e" x="63.623047"/>
          <use xlink:href="#DejaVuSans-30" x="95.410156"/>
         </g>
        </g>
       </g>
       <g id="ytick_2">
        <g id="line2d_5">
         <g>
          <use xlink:href="#m9da5b8291a" x="43.78125" y="212.801125" style="stroke: #000000; stroke-width: 0.8"/>
         </g>
        </g>
        <g id="text_5">
         <!-- 0.5 -->
         <g transform="translate(20.878125 216.600344)scale(0.1 -0.1)">
          <defs>
           <path id="DejaVuSans-35" d="M 691 4666 
L 3169 4666 
L 3169 4134 
L 1269 4134 
L 1269 2991 
Q 1406 3038 1543 3061 
Q 1681 3084 1819 3084 
Q 2600 3084 3056 2656 
Q 3513 2228 3513 1497 
Q 3513 744 3044 326 
Q 2575 -91 1722 -91 
Q 1428 -91 1123 -41 
Q 819 9 494 109 
L 494 744 
Q 775 591 1075 516 
Q 1375 441 1709 441 
Q 2250 441 2565 725 
Q 2881 1009 2881 1497 
Q 2881 1984 2565 2268 
Q 2250 2553 1709 2553 
Q 1456 2553 1204 2497 
Q 953 2441 691 2322 
L 691 4666 
z
" transform="scale(0.015625)"/>
          </defs>
          <use xlink:href="#DejaVuSans-30"/>
          <use xlink:href="#DejaVuSans-2e" x="63.623047"/>
          <use xlink:href="#DejaVuSans-35" x="95.410156"/>
         </g>
        </g>
       </g>
       <g id="ytick_3">
        <g id="line2d_6">
         <g>
          <use xlink:href="#m9da5b8291a" x="43.78125" y="165.180375" style="stroke: #000000; stroke-width: 0.8"/>
         </g>
        </g>
        <g id="text_6">
         <!-- 1.0 -->
         <g transform="translate(20.878125 168.979594)scale(0.1 -0.1)">
          <use xlink:href="#DejaVuSans-31"/>
          <use xlink:href="#DejaVuSans-2e" x="63.623047"/>
          <use xlink:href="#DejaVuSans-30" x="95.410156"/>
         </g>
        </g>
       </g>
       <g id="ytick_4">
        <g id="line2d_7">
         <g>
          <use xlink:href="#m9da5b8291a" x="43.78125" y="117.559625" style="stroke: #000000; stroke-width: 0.8"/>
         </g>
        </g>
        <g id="text_7">
         <!-- 1.5 -->
         <g transform="translate(20.878125 121.358844)scale(0.1 -0.1)">
          <use xlink:href="#DejaVuSans-31"/>
          <use xlink:href="#DejaVuSans-2e" x="63.623047"/>
          <use xlink:href="#DejaVuSans-35" x="95.410156"/>
         </g>
        </g>
       </g>
       <g id="ytick_5">
        <g id="line2d_8">
         <g>
          <use xlink:href="#m9da5b8291a" x="43.78125" y="69.938875" style="stroke: #000000; stroke-width: 0.8"/>
         </g>
        </g>
        <g id="text_8">
         <!-- 2.0 -->
         <g transform="translate(20.878125 73.738094)scale(0.1 -0.1)">
          <use xlink:href="#DejaVuSans-32"/>
          <use xlink:href="#DejaVuSans-2e" x="63.623047"/>
          <use xlink:href="#DejaVuSans-30" x="95.410156"/>
         </g>
        </g>
       </g>
       <g id="ytick_6">
        <g id="line2d_9">
         <g>
          <use xlink:href="#m9da5b8291a" x="43.78125" y="22.318125" style="stroke: #000000; stroke-width: 0.8"/>
         </g>
        </g>
        <g id="text_9">
         <!-- 2.5 -->
         <g transform="translate(20.878125 26.117344)scale(0.1 -0.1)">
          <use xlink:href="#DejaVuSans-32"/>
          <use xlink:href="#DejaVuSans-2e" x="63.623047"/>
          <use xlink:href="#DejaVuSans-35" x="95.410156"/>
         </g>
        </g>
       </g>
       <g id="text_10">
        <!-- time ago (generations) -->
        <g transform="translate(14.798438 198.841094)rotate(-90)scale(0.1 -0.1)">
         <defs>
          <path id="DejaVuSans-74" d="M 1172 4494 
L 1172 3500 
L 2356 3500 
L 2356 3053 
L 1172 3053 
L 1172 1153 
Q 1172 725 1289 603 
Q 1406 481 1766 481 
L 2356 481 
L 2356 0 
L 1766 0 
Q 1100 0 847 248 
Q 594 497 594 1153 
L 594 3053 
L 172 3053 
L 172 3500 
L 594 3500 
L 594 4494 
L 1172 4494 
z
" transform="scale(0.015625)"/>
          <path id="DejaVuSans-69" d="M 603 3500 
L 1178 3500 
L 1178 0 
L 603 0 
L 603 3500 
z
M 603 4863 
L 1178 4863 
L 1178 4134 
L 603 4134 
L 603 4863 
z
" transform="scale(0.015625)"/>
          <path id="DejaVuSans-20" transform="scale(0.015625)"/>
          <path id="DejaVuSans-61" d="M 2194 1759 
Q 1497 1759 1228 1600 
Q 959 1441 959 1056 
Q 959 750 1161 570 
Q 1363 391 1709 391 
Q 2188 391 2477 730 
Q 2766 1069 2766 1631 
L 2766 1759 
L 2194 1759 
z
M 3341 1997 
L 3341 0 
L 2766 0 
L 2766 531 
Q 2569 213 2275 61 
Q 1981 -91 1556 -91 
Q 1019 -91 701 211 
Q 384 513 384 1019 
Q 384 1609 779 1909 
Q 1175 2209 1959 2209 
L 2766 2209 
L 2766 2266 
Q 2766 2663 2505 2880 
Q 2244 3097 1772 3097 
Q 1472 3097 1187 3025 
Q 903 2953 641 2809 
L 641 3341 
Q 956 3463 1253 3523 
Q 1550 3584 1831 3584 
Q 2591 3584 2966 3190 
Q 3341 2797 3341 1997 
z
" transform="scale(0.015625)"/>
          <path id="DejaVuSans-67" d="M 2906 1791 
Q 2906 2416 2648 2759 
Q 2391 3103 1925 3103 
Q 1463 3103 1205 2759 
Q 947 2416 947 1791 
Q 947 1169 1205 825 
Q 1463 481 1925 481 
Q 2391 481 2648 825 
Q 2906 1169 2906 1791 
z
M 3481 434 
Q 3481 -459 3084 -895 
Q 2688 -1331 1869 -1331 
Q 1566 -1331 1297 -1286 
Q 1028 -1241 775 -1147 
L 775 -588 
Q 1028 -725 1275 -790 
Q 1522 -856 1778 -856 
Q 2344 -856 2625 -561 
Q 2906 -266 2906 331 
L 2906 616 
Q 2728 306 2450 153 
Q 2172 0 1784 0 
Q 1141 0 747 490 
Q 353 981 353 1791 
Q 353 2603 747 3093 
Q 1141 3584 1784 3584 
Q 2172 3584 2450 3431 
Q 2728 3278 2906 2969 
L 2906 3500 
L 3481 3500 
L 3481 434 
z
" transform="scale(0.015625)"/>
          <path id="DejaVuSans-6f" d="M 1959 3097 
Q 1497 3097 1228 2736 
Q 959 2375 959 1747 
Q 959 1119 1226 758 
Q 1494 397 1959 397 
Q 2419 397 2687 759 
Q 2956 1122 2956 1747 
Q 2956 2369 2687 2733 
Q 2419 3097 1959 3097 
z
M 1959 3584 
Q 2709 3584 3137 3096 
Q 3566 2609 3566 1747 
Q 3566 888 3137 398 
Q 2709 -91 1959 -91 
Q 1206 -91 779 398 
Q 353 888 353 1747 
Q 353 2609 779 3096 
Q 1206 3584 1959 3584 
z
" transform="scale(0.015625)"/>
          <path id="DejaVuSans-28" d="M 1984 4856 
Q 1566 4138 1362 3434 
Q 1159 2731 1159 2009 
Q 1159 1288 1364 580 
Q 1569 -128 1984 -844 
L 1484 -844 
Q 1016 -109 783 600 
Q 550 1309 550 2009 
Q 550 2706 781 3412 
Q 1013 4119 1484 4856 
L 1984 4856 
z
" transform="scale(0.015625)"/>
          <path id="DejaVuSans-6e" d="M 3513 2113 
L 3513 0 
L 2938 0 
L 2938 2094 
Q 2938 2591 2744 2837 
Q 2550 3084 2163 3084 
Q 1697 3084 1428 2787 
Q 1159 2491 1159 1978 
L 1159 0 
L 581 0 
L 581 3500 
L 1159 3500 
L 1159 2956 
Q 1366 3272 1645 3428 
Q 1925 3584 2291 3584 
Q 2894 3584 3203 3211 
Q 3513 2838 3513 2113 
z
" transform="scale(0.015625)"/>
          <path id="DejaVuSans-72" d="M 2631 2963 
Q 2534 3019 2420 3045 
Q 2306 3072 2169 3072 
Q 1681 3072 1420 2755 
Q 1159 2438 1159 1844 
L 1159 0 
L 581 0 
L 581 3500 
L 1159 3500 
L 1159 2956 
Q 1341 3275 1631 3429 
Q 1922 3584 2338 3584 
Q 2397 3584 2469 3576 
Q 2541 3569 2628 3553 
L 2631 2963 
z
" transform="scale(0.015625)"/>
          <path id="DejaVuSans-73" d="M 2834 3397 
L 2834 2853 
Q 2591 2978 2328 3040 
Q 2066 3103 1784 3103 
Q 1356 3103 1142 2972 
Q 928 2841 928 2578 
Q 928 2378 1081 2264 
Q 1234 2150 1697 2047 
L 1894 2003 
Q 2506 1872 2764 1633 
Q 3022 1394 3022 966 
Q 3022 478 2636 193 
Q 2250 -91 1575 -91 
Q 1294 -91 989 -36 
Q 684 19 347 128 
L 347 722 
Q 666 556 975 473 
Q 1284 391 1588 391 
Q 1994 391 2212 530 
Q 2431 669 2431 922 
Q 2431 1156 2273 1281 
Q 2116 1406 1581 1522 
L 1381 1569 
Q 847 1681 609 1914 
Q 372 2147 372 2553 
Q 372 3047 722 3315 
Q 1072 3584 1716 3584 
Q 2034 3584 2315 3537 
Q 2597 3491 2834 3397 
z
" transform="scale(0.015625)"/>
          <path id="DejaVuSans-29" d="M 513 4856 
L 1013 4856 
Q 1481 4119 1714 3412 
Q 1947 2706 1947 2009 
Q 1947 1309 1714 600 
Q 1481 -109 1013 -844 
L 513 -844 
Q 928 -128 1133 580 
Q 1338 1288 1338 2009 
Q 1338 2731 1133 3434 
Q 928 4138 513 4856 
z
" transform="scale(0.015625)"/>
         </defs>
         <use xlink:href="#DejaVuSans-74"/>
         <use xlink:href="#DejaVuSans-69" x="39.208984"/>
         <use xlink:href="#DejaVuSans-6d" x="66.992188"/>
         <use xlink:href="#DejaVuSans-65" x="164.404297"/>
         <use xlink:href="#DejaVuSans-20" x="225.927734"/>
         <use xlink:href="#DejaVuSans-61" x="257.714844"/>
         <use xlink:href="#DejaVuSans-67" x="318.994141"/>
         <use xlink:href="#DejaVuSans-6f" x="382.470703"/>
         <use xlink:href="#DejaVuSans-20" x="443.652344"/>
         <use xlink:href="#DejaVuSans-28" x="475.439453"/>
         <use xlink:href="#DejaVuSans-67" x="514.453125"/>
         <use xlink:href="#DejaVuSans-65" x="577.929688"/>
         <use xlink:href="#DejaVuSans-6e" x="639.453125"/>
         <use xlink:href="#DejaVuSans-65" x="702.832031"/>
         <use xlink:href="#DejaVuSans-72" x="764.355469"/>
         <use xlink:href="#DejaVuSans-61" x="805.46875"/>
         <use xlink:href="#DejaVuSans-74" x="866.748047"/>
         <use xlink:href="#DejaVuSans-69" x="905.957031"/>
         <use xlink:href="#DejaVuSans-6f" x="933.740234"/>
         <use xlink:href="#DejaVuSans-6e" x="994.921875"/>
         <use xlink:href="#DejaVuSans-73" x="1058.300781"/>
         <use xlink:href="#DejaVuSans-29" x="1110.400391"/>
        </g>
       </g>
      </g>
      <path d="M 216.822903 84.216988 
L 214.822903 83.216988 
L 214.822903 85.216988 
z
" clip-path="url(#p04d1ab00ff)" style="fill: #1f77b4; fill-opacity: 0.5; stroke: #1f77b4; stroke-opacity: 0.5; stroke-linejoin: miter"/>
      <path d="M 216.822903 103.574055 
L 214.822903 102.574055 
L 214.822903 104.574055 
z
" clip-path="url(#p04d1ab00ff)" style="fill: #1f77b4; fill-opacity: 0.5; stroke: #1f77b4; stroke-opacity: 0.5; stroke-linejoin: miter"/>
      <path d="M 216.822903 135.586657 
L 214.822903 134.586657 
L 214.822903 136.586657 
z
" clip-path="url(#p04d1ab00ff)" style="fill: #1f77b4; fill-opacity: 0.5; stroke: #1f77b4; stroke-opacity: 0.5; stroke-linejoin: miter"/>
      <path d="M 216.822903 119.853474 
L 214.822903 118.853474 
L 214.822903 120.853474 
z
" clip-path="url(#p04d1ab00ff)" style="fill: #1f77b4; fill-opacity: 0.5; stroke: #1f77b4; stroke-opacity: 0.5; stroke-linejoin: miter"/>
      <path d="M 216.822903 115.631063 
L 214.822903 114.631063 
L 214.822903 116.631063 
z
" clip-path="url(#p04d1ab00ff)" style="fill: #1f77b4; fill-opacity: 0.5; stroke: #1f77b4; stroke-opacity: 0.5; stroke-linejoin: miter"/>
      <path d="M 216.822903 113.535279 
L 214.822903 112.535279 
L 214.822903 114.535279 
z
" clip-path="url(#p04d1ab00ff)" style="fill: #1f77b4; fill-opacity: 0.5; stroke: #1f77b4; stroke-opacity: 0.5; stroke-linejoin: miter"/>
      <path d="M 216.822903 147.091847 
L 214.822903 146.091847 
L 214.822903 148.091847 
z
" clip-path="url(#p04d1ab00ff)" style="fill: #1f77b4; fill-opacity: 0.5; stroke: #1f77b4; stroke-opacity: 0.5; stroke-linejoin: miter"/>
      <path d="M 216.822903 80.069855 
L 214.822903 79.069855 
L 214.822903 81.069855 
z
" clip-path="url(#p04d1ab00ff)" style="fill: #1f77b4; fill-opacity: 0.5; stroke: #1f77b4; stroke-opacity: 0.5; stroke-linejoin: miter"/>
      <path d="M 216.822903 94.468346 
L 214.822903 93.468346 
L 214.822903 95.468346 
z
" clip-path="url(#p04d1ab00ff)" style="fill: #1f77b4; fill-opacity: 0.5; stroke: #1f77b4; stroke-opacity: 0.5; stroke-linejoin: miter"/>
      <path d="M 216.822903 112.403961 
L 214.822903 111.403961 
L 214.822903 113.403961 
z
" clip-path="url(#p04d1ab00ff)" style="fill: #1f77b4; fill-opacity: 0.5; stroke: #1f77b4; stroke-opacity: 0.5; stroke-linejoin: miter"/>
      <path d="M 372.774618 152.01194 
L 370.774618 151.01194 
L 370.774618 153.01194 
z
" clip-path="url(#p04d1ab00ff)" style="fill: #ff7f0e; fill-opacity: 0.5; stroke: #ff7f0e; stroke-opacity: 0.5; stroke-linejoin: miter"/>
      <path d="M 372.774618 154.963584 
L 370.774618 153.963584 
L 370.774618 155.963584 
z
" clip-path="url(#p04d1ab00ff)" style="fill: #ff7f0e; fill-opacity: 0.5; stroke: #ff7f0e; stroke-opacity: 0.5; stroke-linejoin: miter"/>
      <path d="M 372.774618 93.153729 
L 370.774618 92.153729 
L 370.774618 94.153729 
z
" clip-path="url(#p04d1ab00ff)" style="fill: #ff7f0e; fill-opacity: 0.5; stroke: #ff7f0e; stroke-opacity: 0.5; stroke-linejoin: miter"/>
      <path d="M 372.774618 81.463961 
L 370.774618 80.463961 
L 370.774618 82.463961 
z
" clip-path="url(#p04d1ab00ff)" style="fill: #ff7f0e; fill-opacity: 0.5; stroke: #ff7f0e; stroke-opacity: 0.5; stroke-linejoin: miter"/>
      <path d="M 372.774618 116.053386 
L 370.774618 115.053386 
L 370.774618 117.053386 
z
" clip-path="url(#p04d1ab00ff)" style="fill: #ff7f0e; fill-opacity: 0.5; stroke: #ff7f0e; stroke-opacity: 0.5; stroke-linejoin: miter"/>
      <path d="M 372.774618 76.551192 
L 370.774618 75.551192 
L 370.774618 77.551192 
z
" clip-path="url(#p04d1ab00ff)" style="fill: #ff7f0e; fill-opacity: 0.5; stroke: #ff7f0e; stroke-opacity: 0.5; stroke-linejoin: miter"/>
      <path d="M 372.774618 143.621741 
L 370.774618 142.621741 
L 370.774618 144.621741 
z
" clip-path="url(#p04d1ab00ff)" style="fill: #ff7f0e; fill-opacity: 0.5; stroke: #ff7f0e; stroke-opacity: 0.5; stroke-linejoin: miter"/>
      <path d="M 372.774618 79.920312 
L 370.774618 78.920312 
L 370.774618 80.920312 
z
" clip-path="url(#p04d1ab00ff)" style="fill: #ff7f0e; fill-opacity: 0.5; stroke: #ff7f0e; stroke-opacity: 0.5; stroke-linejoin: miter"/>
      <path d="M 372.774618 153.848205 
L 370.774618 152.848205 
L 370.774618 154.848205 
z
" clip-path="url(#p04d1ab00ff)" style="fill: #ff7f0e; fill-opacity: 0.5; stroke: #ff7f0e; stroke-opacity: 0.5; stroke-linejoin: miter"/>
      <path d="M 372.774618 134.367213 
L 370.774618 133.367213 
L 370.774618 135.367213 
z
" clip-path="url(#p04d1ab00ff)" style="fill: #ff7f0e; fill-opacity: 0.5; stroke: #ff7f0e; stroke-opacity: 0.5; stroke-linejoin: miter"/>
      <g id="patch_6">
       <path d="M 43.78125 260.421875 
L 43.78125 22.318125 
" style="fill: none; stroke: #000000; stroke-width: 0.8; stroke-linejoin: miter; stroke-linecap: square"/>
      </g>
      <g id="text_11">
       <!-- defaults_migration_properties.yaml -->
       <g transform="translate(164.234688 16.318125)scale(0.12 -0.12)">
        <defs>
         <path id="DejaVuSans-66" d="M 2375 4863 
L 2375 4384 
L 1825 4384 
Q 1516 4384 1395 4259 
Q 1275 4134 1275 3809 
L 1275 3500 
L 2222 3500 
L 2222 3053 
L 1275 3053 
L 1275 0 
L 697 0 
L 697 3053 
L 147 3053 
L 147 3500 
L 697 3500 
L 697 3744 
Q 697 4328 969 4595 
Q 1241 4863 1831 4863 
L 2375 4863 
z
" transform="scale(0.015625)"/>
         <path id="DejaVuSans-75" d="M 544 1381 
L 544 3500 
L 1119 3500 
L 1119 1403 
Q 1119 906 1312 657 
Q 1506 409 1894 409 
Q 2359 409 2629 706 
Q 2900 1003 2900 1516 
L 2900 3500 
L 3475 3500 
L 3475 0 
L 2900 0 
L 2900 538 
Q 2691 219 2414 64 
Q 2138 -91 1772 -91 
Q 1169 -91 856 284 
Q 544 659 544 1381 
z
M 1991 3584 
L 1991 3584 
z
" transform="scale(0.015625)"/>
         <path id="DejaVuSans-6c" d="M 603 4863 
L 1178 4863 
L 1178 0 
L 603 0 
L 603 4863 
z
" transform="scale(0.015625)"/>
         <path id="DejaVuSans-5f" d="M 3263 -1063 
L 3263 -1509 
L -63 -1509 
L -63 -1063 
L 3263 -1063 
z
" transform="scale(0.015625)"/>
         <path id="DejaVuSans-70" d="M 1159 525 
L 1159 -1331 
L 581 -1331 
L 581 3500 
L 1159 3500 
L 1159 2969 
Q 1341 3281 1617 3432 
Q 1894 3584 2278 3584 
Q 2916 3584 3314 3078 
Q 3713 2572 3713 1747 
Q 3713 922 3314 415 
Q 2916 -91 2278 -91 
Q 1894 -91 1617 61 
Q 1341 213 1159 525 
z
M 3116 1747 
Q 3116 2381 2855 2742 
Q 2594 3103 2138 3103 
Q 1681 3103 1420 2742 
Q 1159 2381 1159 1747 
Q 1159 1113 1420 752 
Q 1681 391 2138 391 
Q 2594 391 2855 752 
Q 3116 1113 3116 1747 
z
" transform="scale(0.015625)"/>
         <path id="DejaVuSans-79" d="M 2059 -325 
Q 1816 -950 1584 -1140 
Q 1353 -1331 966 -1331 
L 506 -1331 
L 506 -850 
L 844 -850 
Q 1081 -850 1212 -737 
Q 1344 -625 1503 -206 
L 1606 56 
L 191 3500 
L 800 3500 
L 1894 763 
L 2988 3500 
L 3597 3500 
L 2059 -325 
z
" transform="scale(0.015625)"/>
        </defs>
        <use xlink:href="#DejaVuSans-64"/>
        <use xlink:href="#DejaVuSans-65" x="63.476562"/>
        <use xlink:href="#DejaVuSans-66" x="125"/>
        <use xlink:href="#DejaVuSans-61" x="160.205078"/>
        <use xlink:href="#DejaVuSans-75" x="221.484375"/>
        <use xlink:href="#DejaVuSans-6c" x="284.863281"/>
        <use xlink:href="#DejaVuSans-74" x="312.646484"/>
        <use xlink:href="#DejaVuSans-73" x="351.855469"/>
        <use xlink:href="#DejaVuSans-5f" x="403.955078"/>
        <use xlink:href="#DejaVuSans-6d" x="453.955078"/>
        <use xlink:href="#DejaVuSans-69" x="551.367188"/>
        <use xlink:href="#DejaVuSans-67" x="579.150391"/>
        <use xlink:href="#DejaVuSans-72" x="642.626953"/>
        <use xlink:href="#DejaVuSans-61" x="683.740234"/>
        <use xlink:href="#DejaVuSans-74" x="745.019531"/>
        <use xlink:href="#DejaVuSans-69" x="784.228516"/>
        <use xlink:href="#DejaVuSans-6f" x="812.011719"/>
        <use xlink:href="#DejaVuSans-6e" x="873.193359"/>
        <use xlink:href="#DejaVuSans-5f" x="936.572266"/>
        <use xlink:href="#DejaVuSans-70" x="986.572266"/>
        <use xlink:href="#DejaVuSans-72" x="1050.048828"/>
        <use xlink:href="#DejaVuSans-6f" x="1088.912109"/>
        <use xlink:href="#DejaVuSans-70" x="1150.09375"/>
        <use xlink:href="#DejaVuSans-65" x="1213.570312"/>
        <use xlink:href="#DejaVuSans-72" x="1275.09375"/>
        <use xlink:href="#DejaVuSans-74" x="1316.207031"/>
        <use xlink:href="#DejaVuSans-69" x="1355.416016"/>
        <use xlink:href="#DejaVuSans-65" x="1383.199219"/>
        <use xlink:href="#DejaVuSans-73" x="1444.722656"/>
        <use xlink:href="#DejaVuSans-2e" x="1496.822266"/>
        <use xlink:href="#DejaVuSans-79" x="1528.609375"/>
        <use xlink:href="#DejaVuSans-61" x="1587.789062"/>
        <use xlink:href="#DejaVuSans-6d" x="1649.068359"/>
        <use xlink:href="#DejaVuSans-6c" x="1746.480469"/>
       </g>
      </g>
     </g>
    </g>
    <defs>
     <clipPath id="p04d1ab00ff">
      <rect x="43.78125" y="22.318125" width="453.81875" height="238.10375"/>
     </clipPath>
    </defs>
   </g>
  </g>
 </g>
</svg>
