<?xml version="1.0" encoding="utf-8" standalone="no"?>
<!DOCTYPE svg PUBLIC "-//W3C//DTD SVG 1.1//EN"
  "http://www.w3.org/Graphics/SVG/1.1/DTD/svg11.dtd">
<svg xmlns:xlink="http://www.w3.org/1999/xlink" width="504.8pt" height="280.8pt" viewBox="0 0 504.8 280.8" xmlns="http://www.w3.org/2000/svg" version="1.1">
 <metadata>
  <rdf:RDF xmlns:dc="http://purl.org/dc/elements/1.1/" xmlns:cc="http://creativecommons.org/ns#" xmlns:rdf="http://www.w3.org/1999/02/22-rdf-syntax-ns#">
   <cc:Work>
    <dc:type rdf:resource="http://purl.org/dc/dcmitype/StillImage"/>
    <dc:date>2022-01-24T17:49:43.731648</dc:date>
    <dc:format>image/svg+xml</dc:format>
    <dc:creator>
     <cc:Agent>
      <dc:title>Matplotlib v3.5.1, https://matplotlib.org/</dc:title>
     </cc:Agent>
    </dc:creator>
   </cc:Work>
  </rdf:RDF>
 </metadata>
 <defs>
  <style type="text/css">*{stroke-linejoin: round; stroke-linecap: butt}</style>
 </defs>
 <g id="figure_1">
  <g id="patch_1">
   <path d="M 0 280.8 
L 504.8 280.8 
L 504.8 0 
L 0 0 
L 0 280.8 
z
" style="fill: none"/>
  </g>
  <g id="axes_1">
   <g id="patch_2">
    <path d="M 43.78125 260.421875 
L 497.6 260.421875 
L 497.6 22.318125 
L 43.78125 22.318125 
z
" style="fill: #ffffff"/>
   </g>
   <path d="M 296.618831 128.284547 
L 295.618831 128.253111 
L 294.618831 128.21617 
L 293.618831 128.118424 
L 292.618831 128.085902 
L 291.618831 128.012277 
L 290.618831 127.973712 
L 289.618831 127.938299 
L 288.618831 127.880659 
L 287.618831 127.810273 
L 286.618831 127.758308 
L 285.618831 127.699219 
L 284.618831 127.610898 
L 283.618831 127.564753 
L 282.618831 127.522342 
L 281.618831 127.49185 
L 280.618831 127.465805 
L 279.618831 127.444605 
L 278.618831 127.390304 
L 277.618831 127.362366 
L 276.618831 127.332642 
L 275.618831 127.307247 
L 274.618831 127.296047 
L 273.618831 127.285923 
L 272.618831 127.286127 
L 271.618831 127.295637 
L 270.618831 127.307291 
L 269.618831 127.33832 
L 268.618831 127.349488 
L 267.618831 127.379605 
L 266.618831 127.439382 
L 265.618831 127.476574 
L 264.618831 127.51567 
L 263.618831 127.55811 
L 262.618831 127.590875 
L 261.618831 127.658301 
L 260.618831 127.697427 
L 259.618831 127.740102 
L 258.618831 127.810682 
L 257.618831 127.847073 
L 256.618831 127.905476 
L 255.618831 128.016429 
L 254.618831 128.087087 
L 253.618831 128.200027 
L 252.618831 128.2458 
L 251.618831 128.307083 
L 250.618831 128.355582 
L 249.618831 128.436405 
L 248.618831 128.554924 
L 247.618831 128.625135 
L 246.618831 128.708397 
L 244.762419 128.741539 
" clip-path="url(#p0d20240a95)" style="fill: none; stroke: #ff7f0e; stroke-opacity: 0.5; stroke-width: 0.2; stroke-linecap: square"/>
   <path d="M 296.618831 84.509362 
L 295.618831 84.477926 
L 294.618831 84.440986 
L 293.618831 84.343239 
L 292.618831 84.310717 
L 291.618831 84.237093 
L 290.618831 84.198527 
L 289.618831 84.163114 
L 288.618831 84.105474 
L 287.618831 84.035088 
L 286.618831 83.983124 
L 285.618831 83.924034 
L 284.618831 83.835713 
L 283.618831 83.789569 
L 282.618831 83.747158 
L 281.618831 83.716665 
L 280.618831 83.69062 
L 279.618831 83.66942 
L 278.618831 83.615119 
L 277.618831 83.587181 
L 276.618831 83.557457 
L 275.618831 83.532063 
L 274.618831 83.520862 
L 273.618831 83.510738 
L 272.618831 83.510943 
L 271.618831 83.520452 
L 270.618831 83.532106 
L 269.618831 83.563135 
L 268.618831 83.574303 
L 267.618831 83.604421 
L 266.618831 83.664198 
L 265.618831 83.701389 
L 264.618831 83.740485 
L 263.618831 83.782925 
L 262.618831 83.81569 
L 261.618831 83.883116 
L 260.618831 83.922242 
L 259.618831 83.964917 
L 258.618831 84.035498 
L 257.618831 84.071888 
L 256.618831 84.130292 
L 255.618831 84.241244 
L 254.618831 84.311902 
L 253.618831 84.424842 
L 252.618831 84.470615 
L 251.618831 84.531898 
L 250.618831 84.580398 
L 249.618831 84.66122 
L 248.618831 84.779739 
L 247.618831 84.84995 
L 246.618831 84.933212 
L 244.762419 84.966354 
" clip-path="url(#p0d20240a95)" style="fill: none; stroke: #ff7f0e; stroke-opacity: 0.5; stroke-width: 0.2; stroke-linecap: square"/>
   <path d="M 296.618831 94.190114 
L 295.618831 94.158677 
L 294.618831 94.121737 
L 293.618831 94.023991 
L 292.618831 93.991469 
L 291.618831 93.917844 
L 290.618831 93.879279 
L 289.618831 93.843866 
L 288.618831 93.786226 
L 287.618831 93.715839 
L 286.618831 93.663875 
L 285.618831 93.604785 
L 284.618831 93.516464 
L 283.618831 93.47032 
L 282.618831 93.427909 
L 281.618831 93.397417 
L 280.618831 93.371372 
L 279.618831 93.350172 
L 278.618831 93.29587 
L 277.618831 93.267933 
L 276.618831 93.238209 
L 275.618831 93.212814 
L 274.618831 93.201614 
L 273.618831 93.19149 
L 272.618831 93.191694 
L 271.618831 93.201204 
L 270.618831 93.212857 
L 269.618831 93.243887 
L 268.618831 93.255055 
L 267.618831 93.285172 
L 266.618831 93.344949 
L 265.618831 93.382141 
L 264.618831 93.421237 
L 263.618831 93.463676 
L 262.618831 93.496442 
L 261.618831 93.563868 
L 260.618831 93.602994 
L 259.618831 93.645668 
L 258.618831 93.716249 
L 257.618831 93.75264 
L 256.618831 93.811043 
L 255.618831 93.921996 
L 254.618831 93.992654 
L 253.618831 94.105594 
L 252.618831 94.151367 
L 251.618831 94.21265 
L 250.618831 94.261149 
L 249.618831 94.341972 
L 248.618831 94.460491 
L 247.618831 94.530701 
L 246.618831 94.613964 
L 244.762419 94.647106 
" clip-path="url(#p0d20240a95)" style="fill: none; stroke: #ff7f0e; stroke-opacity: 0.5; stroke-width: 0.2; stroke-linecap: square"/>
   <path d="M 296.618831 152.825058 
L 295.618831 152.793621 
L 294.618831 152.756681 
L 293.618831 152.658934 
L 292.618831 152.626413 
L 291.618831 152.552788 
L 290.618831 152.514222 
L 289.618831 152.478809 
L 288.618831 152.421169 
L 287.618831 152.350783 
L 286.618831 152.298819 
L 285.618831 152.239729 
L 284.618831 152.151408 
L 283.618831 152.105264 
L 282.618831 152.062853 
L 281.618831 152.03236 
L 280.618831 152.006315 
L 279.618831 151.985115 
L 278.618831 151.930814 
L 277.618831 151.902877 
L 276.618831 151.873153 
L 275.618831 151.847758 
L 274.618831 151.836557 
L 273.618831 151.826433 
L 272.618831 151.826638 
L 271.618831 151.836148 
L 270.618831 151.847801 
L 269.618831 151.878831 
L 268.618831 151.889998 
L 267.618831 151.920116 
L 266.618831 151.979893 
L 265.618831 152.017084 
L 264.618831 152.056181 
L 263.618831 152.09862 
L 262.618831 152.131385 
L 261.618831 152.198812 
L 260.618831 152.237938 
L 259.618831 152.280612 
L 258.618831 152.351193 
L 257.618831 152.387584 
L 256.618831 152.445987 
L 255.618831 152.556939 
L 254.618831 152.627598 
L 253.618831 152.740538 
L 252.618831 152.78631 
L 251.618831 152.847594 
L 250.618831 152.896093 
L 249.618831 152.976916 
L 248.618831 153.095435 
L 247.618831 153.165645 
L 246.618831 153.248908 
L 244.762419 153.28205 
" clip-path="url(#p0d20240a95)" style="fill: none; stroke: #ff7f0e; stroke-opacity: 0.5; stroke-width: 0.2; stroke-linecap: square"/>
   <path d="M 296.618831 76.778555 
L 295.618831 76.747119 
L 294.618831 76.710178 
L 293.618831 76.612432 
L 292.618831 76.57991 
L 291.618831 76.506285 
L 290.618831 76.46772 
L 289.618831 76.432307 
L 288.618831 76.374667 
L 287.618831 76.304281 
L 286.618831 76.252316 
L 285.618831 76.193227 
L 284.618831 76.104906 
L 283.618831 76.058761 
L 282.618831 76.01635 
L 281.618831 75.985858 
L 280.618831 75.959813 
L 279.618831 75.938613 
L 278.618831 75.884312 
L 277.618831 75.856374 
L 276.618831 75.82665 
L 275.618831 75.801255 
L 274.618831 75.790055 
L 273.618831 75.779931 
L 272.618831 75.780135 
L 271.618831 75.789645 
L 270.618831 75.801299 
L 269.618831 75.832328 
L 268.618831 75.843496 
L 267.618831 75.873613 
L 266.618831 75.93339 
L 265.618831 75.970582 
L 264.618831 76.009678 
L 263.618831 76.052118 
L 262.618831 76.084883 
L 261.618831 76.152309 
L 260.618831 76.191435 
L 259.618831 76.23411 
L 258.618831 76.30469 
L 257.618831 76.341081 
L 256.618831 76.399484 
L 255.618831 76.510437 
L 254.618831 76.581095 
L 253.618831 76.694035 
L 252.618831 76.739808 
L 251.618831 76.801091 
L 250.618831 76.84959 
L 249.618831 76.930413 
L 248.618831 77.048932 
L 247.618831 77.119143 
L 246.618831 77.202405 
L 244.762419 77.235547 
" clip-path="url(#p0d20240a95)" style="fill: none; stroke: #ff7f0e; stroke-opacity: 0.5; stroke-width: 0.2; stroke-linecap: square"/>
   <path d="M 296.618831 111.499243 
L 295.618831 111.467806 
L 294.618831 111.430866 
L 293.618831 111.333119 
L 292.618831 111.300598 
L 291.618831 111.226973 
L 290.618831 111.188407 
L 289.618831 111.152994 
L 288.618831 111.095354 
L 287.618831 111.024968 
L 286.618831 110.973004 
L 285.618831 110.913914 
L 284.618831 110.825593 
L 283.618831 110.779449 
L 282.618831 110.737038 
L 281.618831 110.706545 
L 280.618831 110.6805 
L 279.618831 110.6593 
L 278.618831 110.604999 
L 277.618831 110.577062 
L 276.618831 110.547338 
L 275.618831 110.521943 
L 274.618831 110.510742 
L 273.618831 110.500619 
L 272.618831 110.500823 
L 271.618831 110.510333 
L 270.618831 110.521986 
L 269.618831 110.553016 
L 268.618831 110.564183 
L 267.618831 110.594301 
L 266.618831 110.654078 
L 265.618831 110.691269 
L 264.618831 110.730366 
L 263.618831 110.772805 
L 262.618831 110.80557 
L 261.618831 110.872997 
L 260.618831 110.912123 
L 259.618831 110.954797 
L 258.618831 111.025378 
L 257.618831 111.061769 
L 256.618831 111.120172 
L 255.618831 111.231124 
L 254.618831 111.301783 
L 253.618831 111.414723 
L 252.618831 111.460495 
L 251.618831 111.521779 
L 250.618831 111.570278 
L 249.618831 111.651101 
L 248.618831 111.76962 
L 247.618831 111.83983 
L 246.618831 111.923093 
L 244.762419 111.956235 
" clip-path="url(#p0d20240a95)" style="fill: none; stroke: #ff7f0e; stroke-opacity: 0.5; stroke-width: 0.2; stroke-linecap: square"/>
   <path d="M 296.618831 137.360142 
L 295.618831 137.328706 
L 294.618831 137.291765 
L 293.618831 137.194019 
L 292.618831 137.161497 
L 291.618831 137.087873 
L 290.618831 137.049307 
L 289.618831 137.013894 
L 288.618831 136.956254 
L 287.618831 136.885868 
L 286.618831 136.833903 
L 285.618831 136.774814 
L 284.618831 136.686493 
L 283.618831 136.640348 
L 282.618831 136.597938 
L 281.618831 136.567445 
L 280.618831 136.5414 
L 279.618831 136.5202 
L 278.618831 136.465899 
L 277.618831 136.437961 
L 276.618831 136.408237 
L 275.618831 136.382842 
L 274.618831 136.371642 
L 273.618831 136.361518 
L 272.618831 136.361722 
L 271.618831 136.371232 
L 270.618831 136.382886 
L 269.618831 136.413915 
L 268.618831 136.425083 
L 267.618831 136.455201 
L 266.618831 136.514977 
L 265.618831 136.552169 
L 264.618831 136.591265 
L 263.618831 136.633705 
L 262.618831 136.66647 
L 261.618831 136.733896 
L 260.618831 136.773022 
L 259.618831 136.815697 
L 258.618831 136.886277 
L 257.618831 136.922668 
L 256.618831 136.981071 
L 255.618831 137.092024 
L 254.618831 137.162682 
L 253.618831 137.275622 
L 252.618831 137.321395 
L 251.618831 137.382678 
L 250.618831 137.431178 
L 249.618831 137.512 
L 248.618831 137.630519 
L 247.618831 137.70073 
L 246.618831 137.783992 
L 244.762419 137.817134 
" clip-path="url(#p0d20240a95)" style="fill: none; stroke: #ff7f0e; stroke-opacity: 0.5; stroke-width: 0.2; stroke-linecap: square"/>
   <path d="M 296.618831 81.971034 
L 295.618831 81.939597 
L 294.618831 81.902657 
L 293.618831 81.80491 
L 292.618831 81.772389 
L 291.618831 81.698764 
L 290.618831 81.660199 
L 289.618831 81.624785 
L 288.618831 81.567145 
L 287.618831 81.496759 
L 286.618831 81.444795 
L 285.618831 81.385705 
L 284.618831 81.297384 
L 283.618831 81.25124 
L 282.618831 81.208829 
L 281.618831 81.178336 
L 280.618831 81.152291 
L 279.618831 81.131091 
L 278.618831 81.07679 
L 277.618831 81.048853 
L 276.618831 81.019129 
L 275.618831 80.993734 
L 274.618831 80.982534 
L 273.618831 80.97241 
L 272.618831 80.972614 
L 271.618831 80.982124 
L 270.618831 80.993777 
L 269.618831 81.024807 
L 268.618831 81.035975 
L 267.618831 81.066092 
L 266.618831 81.125869 
L 265.618831 81.163061 
L 264.618831 81.202157 
L 263.618831 81.244596 
L 262.618831 81.277361 
L 261.618831 81.344788 
L 260.618831 81.383914 
L 259.618831 81.426588 
L 258.618831 81.497169 
L 257.618831 81.53356 
L 256.618831 81.591963 
L 255.618831 81.702916 
L 254.618831 81.773574 
L 253.618831 81.886514 
L 252.618831 81.932287 
L 251.618831 81.99357 
L 250.618831 82.042069 
L 249.618831 82.122892 
L 248.618831 82.241411 
L 247.618831 82.311621 
L 246.618831 82.394884 
L 244.762419 82.428026 
" clip-path="url(#p0d20240a95)" style="fill: none; stroke: #ff7f0e; stroke-opacity: 0.5; stroke-width: 0.2; stroke-linecap: square"/>
   <path d="M 296.618831 103.115935 
L 295.618831 103.084498 
L 294.618831 103.047558 
L 293.618831 102.949811 
L 292.618831 102.91729 
L 291.618831 102.843665 
L 290.618831 102.8051 
L 289.618831 102.769686 
L 288.618831 102.712046 
L 287.618831 102.64166 
L 286.618831 102.589696 
L 285.618831 102.530606 
L 284.618831 102.442285 
L 283.618831 102.396141 
L 282.618831 102.35373 
L 281.618831 102.323237 
L 280.618831 102.297192 
L 279.618831 102.275992 
L 278.618831 102.221691 
L 277.618831 102.193754 
L 276.618831 102.16403 
L 275.618831 102.138635 
L 274.618831 102.127435 
L 273.618831 102.117311 
L 272.618831 102.117515 
L 271.618831 102.127025 
L 270.618831 102.138678 
L 269.618831 102.169708 
L 268.618831 102.180876 
L 267.618831 102.210993 
L 266.618831 102.27077 
L 265.618831 102.307962 
L 264.618831 102.347058 
L 263.618831 102.389497 
L 262.618831 102.422262 
L 261.618831 102.489689 
L 260.618831 102.528815 
L 259.618831 102.571489 
L 258.618831 102.64207 
L 257.618831 102.678461 
L 256.618831 102.736864 
L 255.618831 102.847817 
L 254.618831 102.918475 
L 253.618831 103.031415 
L 252.618831 103.077188 
L 251.618831 103.138471 
L 250.618831 103.18697 
L 249.618831 103.267793 
L 248.618831 103.386312 
L 247.618831 103.456522 
L 246.618831 103.539785 
L 244.762419 103.572927 
" clip-path="url(#p0d20240a95)" style="fill: none; stroke: #ff7f0e; stroke-opacity: 0.5; stroke-width: 0.2; stroke-linecap: square"/>
   <path d="M 296.618831 162.924263 
L 295.618831 162.892826 
L 294.618831 162.855886 
L 293.618831 162.758139 
L 292.618831 162.725618 
L 291.618831 162.651993 
L 290.618831 162.613428 
L 289.618831 162.578014 
L 288.618831 162.520374 
L 287.618831 162.449988 
L 286.618831 162.398024 
L 285.618831 162.338934 
L 284.618831 162.250613 
L 283.618831 162.204469 
L 282.618831 162.162058 
L 281.618831 162.131565 
L 280.618831 162.10552 
L 279.618831 162.08432 
L 278.618831 162.030019 
L 277.618831 162.002082 
L 276.618831 161.972358 
L 275.618831 161.946963 
L 274.618831 161.935763 
L 273.618831 161.925639 
L 272.618831 161.925843 
L 271.618831 161.935353 
L 270.618831 161.947006 
L 269.618831 161.978036 
L 268.618831 161.989204 
L 267.618831 162.019321 
L 266.618831 162.079098 
L 265.618831 162.11629 
L 264.618831 162.155386 
L 263.618831 162.197825 
L 262.618831 162.23059 
L 261.618831 162.298017 
L 260.618831 162.337143 
L 259.618831 162.379817 
L 258.618831 162.450398 
L 257.618831 162.486789 
L 256.618831 162.545192 
L 255.618831 162.656145 
L 254.618831 162.726803 
L 253.618831 162.839743 
L 252.618831 162.885516 
L 251.618831 162.946799 
L 250.618831 162.995298 
L 249.618831 163.076121 
L 248.618831 163.19464 
L 247.618831 163.26485 
L 246.618831 163.348113 
L 244.762419 163.381255 
" clip-path="url(#p0d20240a95)" style="fill: none; stroke: #ff7f0e; stroke-opacity: 0.5; stroke-width: 0.2; stroke-linecap: square"/>
   <path d="M 244.762419 124.302037 
L 245.762419 124.333474 
L 246.762419 124.370414 
L 247.762419 124.468161 
L 248.762419 124.500682 
L 249.762419 124.574307 
L 250.762419 124.612872 
L 251.762419 124.648286 
L 252.762419 124.705926 
L 253.762419 124.776312 
L 254.762419 124.828276 
L 255.762419 124.887366 
L 256.762419 124.975687 
L 257.762419 125.021831 
L 258.762419 125.064242 
L 259.762419 125.094735 
L 260.762419 125.12078 
L 261.762419 125.14198 
L 262.762419 125.196281 
L 263.762419 125.224218 
L 264.762419 125.253942 
L 265.762419 125.279337 
L 266.762419 125.290538 
L 267.762419 125.300661 
L 268.762419 125.300457 
L 269.762419 125.290947 
L 270.762419 125.279294 
L 271.762419 125.248264 
L 272.762419 125.237097 
L 273.762419 125.206979 
L 274.762419 125.147202 
L 275.762419 125.110011 
L 276.762419 125.070914 
L 277.762419 125.028475 
L 278.762419 124.99571 
L 279.762419 124.928283 
L 280.762419 124.889157 
L 281.762419 124.846483 
L 282.762419 124.775902 
L 283.762419 124.739511 
L 284.762419 124.681108 
L 285.762419 124.570156 
L 286.762419 124.499497 
L 287.762419 124.386557 
L 288.762419 124.340785 
L 289.762419 124.279501 
L 290.762419 124.231002 
L 291.762419 124.150179 
L 292.762419 124.03166 
L 293.762419 123.96145 
L 294.762419 123.878187 
L 296.618831 123.845045 
" clip-path="url(#p0d20240a95)" style="fill: none; stroke: #1f77b4; stroke-opacity: 0.5; stroke-width: 0.2; stroke-linecap: square"/>
   <path d="M 244.762419 150.37464 
L 245.762419 150.406076 
L 246.762419 150.443017 
L 247.762419 150.540763 
L 248.762419 150.573285 
L 249.762419 150.64691 
L 250.762419 150.685475 
L 251.762419 150.720888 
L 252.762419 150.778528 
L 253.762419 150.848914 
L 254.762419 150.900879 
L 255.762419 150.959968 
L 256.762419 151.048289 
L 257.762419 151.094434 
L 258.762419 151.136845 
L 259.762419 151.167337 
L 260.762419 151.193382 
L 261.762419 151.214582 
L 262.762419 151.268883 
L 263.762419 151.296821 
L 264.762419 151.326545 
L 265.762419 151.35194 
L 266.762419 151.36314 
L 267.762419 151.373264 
L 268.762419 151.37306 
L 269.762419 151.36355 
L 270.762419 151.351896 
L 271.762419 151.320867 
L 272.762419 151.309699 
L 273.762419 151.279582 
L 274.762419 151.219805 
L 275.762419 151.182613 
L 276.762419 151.143517 
L 277.762419 151.101077 
L 278.762419 151.068312 
L 279.762419 151.000886 
L 280.762419 150.96176 
L 281.762419 150.919085 
L 282.762419 150.848505 
L 283.762419 150.812114 
L 284.762419 150.753711 
L 285.762419 150.642758 
L 286.762419 150.5721 
L 287.762419 150.45916 
L 288.762419 150.413387 
L 289.762419 150.352104 
L 290.762419 150.303605 
L 291.762419 150.222782 
L 292.762419 150.104263 
L 293.762419 150.034052 
L 294.762419 149.95079 
L 296.618831 149.917648 
" clip-path="url(#p0d20240a95)" style="fill: none; stroke: #1f77b4; stroke-opacity: 0.5; stroke-width: 0.2; stroke-linecap: square"/>
   <path d="M 244.762419 77.398571 
L 245.762419 77.430008 
L 246.762419 77.466948 
L 247.762419 77.564695 
L 248.762419 77.597216 
L 249.762419 77.670841 
L 250.762419 77.709407 
L 251.762419 77.74482 
L 252.762419 77.80246 
L 253.762419 77.872846 
L 254.762419 77.92481 
L 255.762419 77.9839 
L 256.762419 78.072221 
L 257.762419 78.118365 
L 258.762419 78.160776 
L 259.762419 78.191269 
L 260.762419 78.217314 
L 261.762419 78.238514 
L 262.762419 78.292815 
L 263.762419 78.320752 
L 264.762419 78.350476 
L 265.762419 78.375871 
L 266.762419 78.387072 
L 267.762419 78.397196 
L 268.762419 78.396991 
L 269.762419 78.387481 
L 270.762419 78.375828 
L 271.762419 78.344798 
L 272.762419 78.333631 
L 273.762419 78.303513 
L 274.762419 78.243736 
L 275.762419 78.206545 
L 276.762419 78.167448 
L 277.762419 78.125009 
L 278.762419 78.092244 
L 279.762419 78.024817 
L 280.762419 77.985691 
L 281.762419 77.943017 
L 282.762419 77.872436 
L 283.762419 77.836045 
L 284.762419 77.777642 
L 285.762419 77.66669 
L 286.762419 77.596031 
L 287.762419 77.483091 
L 288.762419 77.437319 
L 289.762419 77.376035 
L 290.762419 77.327536 
L 291.762419 77.246713 
L 292.762419 77.128194 
L 293.762419 77.057984 
L 294.762419 76.974721 
L 296.618831 76.94158 
" clip-path="url(#p0d20240a95)" style="fill: none; stroke: #1f77b4; stroke-opacity: 0.5; stroke-width: 0.2; stroke-linecap: square"/>
   <path d="M 244.762419 134.478745 
L 245.762419 134.510181 
L 246.762419 134.547122 
L 247.762419 134.644868 
L 248.762419 134.67739 
L 249.762419 134.751014 
L 250.762419 134.78958 
L 251.762419 134.824993 
L 252.762419 134.882633 
L 253.762419 134.953019 
L 254.762419 135.004984 
L 255.762419 135.064073 
L 256.762419 135.152394 
L 257.762419 135.198539 
L 258.762419 135.240949 
L 259.762419 135.271442 
L 260.762419 135.297487 
L 261.762419 135.318687 
L 262.762419 135.372988 
L 263.762419 135.400926 
L 264.762419 135.43065 
L 265.762419 135.456045 
L 266.762419 135.467245 
L 267.762419 135.477369 
L 268.762419 135.477165 
L 269.762419 135.467655 
L 270.762419 135.456001 
L 271.762419 135.424972 
L 272.762419 135.413804 
L 273.762419 135.383686 
L 274.762419 135.32391 
L 275.762419 135.286718 
L 276.762419 135.247622 
L 277.762419 135.205182 
L 278.762419 135.172417 
L 279.762419 135.104991 
L 280.762419 135.065865 
L 281.762419 135.02319 
L 282.762419 134.95261 
L 283.762419 134.916219 
L 284.762419 134.857816 
L 285.762419 134.746863 
L 286.762419 134.676205 
L 287.762419 134.563265 
L 288.762419 134.517492 
L 289.762419 134.456209 
L 290.762419 134.407709 
L 291.762419 134.326887 
L 292.762419 134.208368 
L 293.762419 134.138157 
L 294.762419 134.054895 
L 296.618831 134.021753 
" clip-path="url(#p0d20240a95)" style="fill: none; stroke: #1f77b4; stroke-opacity: 0.5; stroke-width: 0.2; stroke-linecap: square"/>
   <path d="M 244.762419 155.545826 
L 245.762419 155.577262 
L 246.762419 155.614203 
L 247.762419 155.711949 
L 248.762419 155.744471 
L 249.762419 155.818096 
L 250.762419 155.856661 
L 251.762419 155.892074 
L 252.762419 155.949714 
L 253.762419 156.020101 
L 254.762419 156.072065 
L 255.762419 156.131155 
L 256.762419 156.219475 
L 257.762419 156.26562 
L 258.762419 156.308031 
L 259.762419 156.338523 
L 260.762419 156.364568 
L 261.762419 156.385768 
L 262.762419 156.44007 
L 263.762419 156.468007 
L 264.762419 156.497731 
L 265.762419 156.523126 
L 266.762419 156.534326 
L 267.762419 156.54445 
L 268.762419 156.544246 
L 269.762419 156.534736 
L 270.762419 156.523082 
L 271.762419 156.492053 
L 272.762419 156.480885 
L 273.762419 156.450768 
L 274.762419 156.390991 
L 275.762419 156.353799 
L 276.762419 156.314703 
L 277.762419 156.272264 
L 278.762419 156.239498 
L 279.762419 156.172072 
L 280.762419 156.132946 
L 281.762419 156.090272 
L 282.762419 156.019691 
L 283.762419 155.9833 
L 284.762419 155.924897 
L 285.762419 155.813944 
L 286.762419 155.743286 
L 287.762419 155.630346 
L 288.762419 155.584573 
L 289.762419 155.52329 
L 290.762419 155.474791 
L 291.762419 155.393968 
L 292.762419 155.275449 
L 293.762419 155.205238 
L 294.762419 155.121976 
L 296.618831 155.088834 
" clip-path="url(#p0d20240a95)" style="fill: none; stroke: #1f77b4; stroke-opacity: 0.5; stroke-width: 0.2; stroke-linecap: square"/>
   <path d="M 244.762419 139.495537 
L 245.762419 139.526973 
L 246.762419 139.563913 
L 247.762419 139.66166 
L 248.762419 139.694182 
L 249.762419 139.767806 
L 250.762419 139.806372 
L 251.762419 139.841785 
L 252.762419 139.899425 
L 253.762419 139.969811 
L 254.762419 140.021775 
L 255.762419 140.080865 
L 256.762419 140.169186 
L 257.762419 140.21533 
L 258.762419 140.257741 
L 259.762419 140.288234 
L 260.762419 140.314279 
L 261.762419 140.335479 
L 262.762419 140.38978 
L 263.762419 140.417718 
L 264.762419 140.447442 
L 265.762419 140.472836 
L 266.762419 140.484037 
L 267.762419 140.494161 
L 268.762419 140.493956 
L 269.762419 140.484447 
L 270.762419 140.472793 
L 271.762419 140.441764 
L 272.762419 140.430596 
L 273.762419 140.400478 
L 274.762419 140.340701 
L 275.762419 140.30351 
L 276.762419 140.264414 
L 277.762419 140.221974 
L 278.762419 140.189209 
L 279.762419 140.121783 
L 280.762419 140.082657 
L 281.762419 140.039982 
L 282.762419 139.969402 
L 283.762419 139.933011 
L 284.762419 139.874607 
L 285.762419 139.763655 
L 286.762419 139.692997 
L 287.762419 139.580057 
L 288.762419 139.534284 
L 289.762419 139.473001 
L 290.762419 139.424501 
L 291.762419 139.343679 
L 292.762419 139.22516 
L 293.762419 139.154949 
L 294.762419 139.071687 
L 296.618831 139.038545 
" clip-path="url(#p0d20240a95)" style="fill: none; stroke: #1f77b4; stroke-opacity: 0.5; stroke-width: 0.2; stroke-linecap: square"/>
   <path d="M 244.762419 92.230387 
L 245.762419 92.261823 
L 246.762419 92.298763 
L 247.762419 92.39651 
L 248.762419 92.429032 
L 249.762419 92.502656 
L 250.762419 92.541222 
L 251.762419 92.576635 
L 252.762419 92.634275 
L 253.762419 92.704661 
L 254.762419 92.756625 
L 255.762419 92.815715 
L 256.762419 92.904036 
L 257.762419 92.95018 
L 258.762419 92.992591 
L 259.762419 93.023084 
L 260.762419 93.049129 
L 261.762419 93.070329 
L 262.762419 93.12463 
L 263.762419 93.152568 
L 264.762419 93.182292 
L 265.762419 93.207686 
L 266.762419 93.218887 
L 267.762419 93.229011 
L 268.762419 93.228807 
L 269.762419 93.219297 
L 270.762419 93.207643 
L 271.762419 93.176614 
L 272.762419 93.165446 
L 273.762419 93.135328 
L 274.762419 93.075551 
L 275.762419 93.03836 
L 276.762419 92.999264 
L 277.762419 92.956824 
L 278.762419 92.924059 
L 279.762419 92.856633 
L 280.762419 92.817507 
L 281.762419 92.774832 
L 282.762419 92.704252 
L 283.762419 92.667861 
L 284.762419 92.609458 
L 285.762419 92.498505 
L 286.762419 92.427847 
L 287.762419 92.314907 
L 288.762419 92.269134 
L 289.762419 92.207851 
L 290.762419 92.159351 
L 291.762419 92.078529 
L 292.762419 91.96001 
L 293.762419 91.889799 
L 294.762419 91.806537 
L 296.618831 91.773395 
" clip-path="url(#p0d20240a95)" style="fill: none; stroke: #1f77b4; stroke-opacity: 0.5; stroke-width: 0.2; stroke-linecap: square"/>
   <path d="M 244.762419 149.747348 
L 245.762419 149.778784 
L 246.762419 149.815724 
L 247.762419 149.913471 
L 248.762419 149.945993 
L 249.762419 150.019617 
L 250.762419 150.058183 
L 251.762419 150.093596 
L 252.762419 150.151236 
L 253.762419 150.221622 
L 254.762419 150.273586 
L 255.762419 150.332676 
L 256.762419 150.420997 
L 257.762419 150.467141 
L 258.762419 150.509552 
L 259.762419 150.540045 
L 260.762419 150.56609 
L 261.762419 150.58729 
L 262.762419 150.641591 
L 263.762419 150.669529 
L 264.762419 150.699253 
L 265.762419 150.724647 
L 266.762419 150.735848 
L 267.762419 150.745972 
L 268.762419 150.745767 
L 269.762419 150.736258 
L 270.762419 150.724604 
L 271.762419 150.693575 
L 272.762419 150.682407 
L 273.762419 150.652289 
L 274.762419 150.592512 
L 275.762419 150.555321 
L 276.762419 150.516225 
L 277.762419 150.473785 
L 278.762419 150.44102 
L 279.762419 150.373593 
L 280.762419 150.334468 
L 281.762419 150.291793 
L 282.762419 150.221212 
L 283.762419 150.184822 
L 284.762419 150.126418 
L 285.762419 150.015466 
L 286.762419 149.944807 
L 287.762419 149.831868 
L 288.762419 149.786095 
L 289.762419 149.724812 
L 290.762419 149.676312 
L 291.762419 149.59549 
L 292.762419 149.476971 
L 293.762419 149.40676 
L 294.762419 149.323498 
L 296.618831 149.290356 
" clip-path="url(#p0d20240a95)" style="fill: none; stroke: #1f77b4; stroke-opacity: 0.5; stroke-width: 0.2; stroke-linecap: square"/>
   <path d="M 244.762419 94.292461 
L 245.762419 94.323897 
L 246.762419 94.360838 
L 247.762419 94.458584 
L 248.762419 94.491106 
L 249.762419 94.564731 
L 250.762419 94.603296 
L 251.762419 94.638709 
L 252.762419 94.696349 
L 253.762419 94.766736 
L 254.762419 94.8187 
L 255.762419 94.87779 
L 256.762419 94.966111 
L 257.762419 95.012255 
L 258.762419 95.054666 
L 259.762419 95.085158 
L 260.762419 95.111203 
L 261.762419 95.132403 
L 262.762419 95.186705 
L 263.762419 95.214642 
L 264.762419 95.244366 
L 265.762419 95.269761 
L 266.762419 95.280961 
L 267.762419 95.291085 
L 268.762419 95.290881 
L 269.762419 95.281371 
L 270.762419 95.269717 
L 271.762419 95.238688 
L 272.762419 95.22752 
L 273.762419 95.197403 
L 274.762419 95.137626 
L 275.762419 95.100434 
L 276.762419 95.061338 
L 277.762419 95.018899 
L 278.762419 94.986133 
L 279.762419 94.918707 
L 280.762419 94.879581 
L 281.762419 94.836907 
L 282.762419 94.766326 
L 283.762419 94.729935 
L 284.762419 94.671532 
L 285.762419 94.560579 
L 286.762419 94.489921 
L 287.762419 94.376981 
L 288.762419 94.331208 
L 289.762419 94.269925 
L 290.762419 94.221426 
L 291.762419 94.140603 
L 292.762419 94.022084 
L 293.762419 93.951873 
L 294.762419 93.868611 
L 296.618831 93.835469 
" clip-path="url(#p0d20240a95)" style="fill: none; stroke: #1f77b4; stroke-opacity: 0.5; stroke-width: 0.2; stroke-linecap: square"/>
   <path d="M 244.762419 97.939173 
L 245.762419 97.970609 
L 246.762419 98.007549 
L 247.762419 98.105296 
L 248.762419 98.137818 
L 249.762419 98.211442 
L 250.762419 98.250008 
L 251.762419 98.285421 
L 252.762419 98.343061 
L 253.762419 98.413447 
L 254.762419 98.465411 
L 255.762419 98.524501 
L 256.762419 98.612822 
L 257.762419 98.658966 
L 258.762419 98.701377 
L 259.762419 98.73187 
L 260.762419 98.757915 
L 261.762419 98.779115 
L 262.762419 98.833416 
L 263.762419 98.861354 
L 264.762419 98.891078 
L 265.762419 98.916472 
L 266.762419 98.927673 
L 267.762419 98.937797 
L 268.762419 98.937593 
L 269.762419 98.928083 
L 270.762419 98.916429 
L 271.762419 98.8854 
L 272.762419 98.874232 
L 273.762419 98.844114 
L 274.762419 98.784337 
L 275.762419 98.747146 
L 276.762419 98.70805 
L 277.762419 98.66561 
L 278.762419 98.632845 
L 279.762419 98.565419 
L 280.762419 98.526293 
L 281.762419 98.483618 
L 282.762419 98.413038 
L 283.762419 98.376647 
L 284.762419 98.318244 
L 285.762419 98.207291 
L 286.762419 98.136633 
L 287.762419 98.023693 
L 288.762419 97.97792 
L 289.762419 97.916637 
L 290.762419 97.868137 
L 291.762419 97.787315 
L 292.762419 97.668796 
L 293.762419 97.598585 
L 294.762419 97.515323 
L 296.618831 97.482181 
" clip-path="url(#p0d20240a95)" style="fill: none; stroke: #1f77b4; stroke-opacity: 0.5; stroke-width: 0.2; stroke-linecap: square"/>
   <path d="M 296.618831 216.374686 
L 295.618831 216.34325 
L 294.618831 216.30631 
L 293.618831 216.208563 
L 292.618831 216.176042 
L 291.618831 216.102417 
L 290.618831 216.063851 
L 289.618831 216.028438 
L 288.618831 215.970798 
L 287.618831 215.900412 
L 286.618831 215.848448 
L 285.618831 215.789358 
L 284.618831 215.701037 
L 283.618831 215.654893 
L 282.618831 215.612482 
L 281.618831 215.581989 
L 280.618831 215.555944 
L 279.618831 215.534744 
L 278.618831 215.480443 
L 277.618831 215.452505 
L 276.618831 215.422781 
L 275.618831 215.397387 
L 274.618831 215.386186 
L 273.618831 215.376062 
L 272.618831 215.376267 
L 271.618831 215.385777 
L 270.618831 215.39743 
L 269.618831 215.428459 
L 268.618831 215.439627 
L 267.618831 215.469745 
L 266.618831 215.529522 
L 265.618831 215.566713 
L 264.618831 215.605809 
L 263.618831 215.648249 
L 262.618831 215.681014 
L 261.618831 215.748441 
L 260.618831 215.787566 
L 259.618831 215.830241 
L 258.618831 215.900822 
L 257.618831 215.937212 
L 256.618831 215.995616 
L 255.618831 216.106568 
L 254.618831 216.177227 
L 253.618831 216.290166 
L 252.618831 216.335939 
L 251.618831 216.397223 
L 250.618831 216.445722 
L 249.618831 216.526545 
L 248.618831 216.645063 
L 247.618831 216.715274 
L 246.618831 216.798537 
L 244.762419 216.831678 
" clip-path="url(#p0d20240a95)" style="fill: none; stroke: #ff7f0e; stroke-opacity: 0.5; stroke-width: 0.2; stroke-linecap: square"/>
   <path d="M 296.618831 246.800763 
L 295.618831 246.769326 
L 294.618831 246.732386 
L 293.618831 246.634639 
L 292.618831 246.602118 
L 291.618831 246.528493 
L 290.618831 246.489927 
L 289.618831 246.454514 
L 288.618831 246.396874 
L 287.618831 246.326488 
L 286.618831 246.274524 
L 285.618831 246.215434 
L 284.618831 246.127113 
L 283.618831 246.080969 
L 282.618831 246.038558 
L 281.618831 246.008065 
L 280.618831 245.98202 
L 279.618831 245.96082 
L 278.618831 245.906519 
L 277.618831 245.878582 
L 276.618831 245.848858 
L 275.618831 245.823463 
L 274.618831 245.812262 
L 273.618831 245.802138 
L 272.618831 245.802343 
L 271.618831 245.811853 
L 270.618831 245.823506 
L 269.618831 245.854535 
L 268.618831 245.865703 
L 267.618831 245.895821 
L 266.618831 245.955598 
L 265.618831 245.992789 
L 264.618831 246.031885 
L 263.618831 246.074325 
L 262.618831 246.10709 
L 261.618831 246.174517 
L 260.618831 246.213643 
L 259.618831 246.256317 
L 258.618831 246.326898 
L 257.618831 246.363289 
L 256.618831 246.421692 
L 255.618831 246.532644 
L 254.618831 246.603303 
L 253.618831 246.716243 
L 252.618831 246.762015 
L 251.618831 246.823299 
L 250.618831 246.871798 
L 249.618831 246.952621 
L 248.618831 247.07114 
L 247.618831 247.14135 
L 246.618831 247.224613 
L 244.762419 247.257754 
" clip-path="url(#p0d20240a95)" style="fill: none; stroke: #ff7f0e; stroke-opacity: 0.5; stroke-width: 0.2; stroke-linecap: square"/>
   <path d="M 296.618831 202.060483 
L 295.618831 202.029047 
L 294.618831 201.992107 
L 293.618831 201.89436 
L 292.618831 201.861839 
L 291.618831 201.788214 
L 290.618831 201.749648 
L 289.618831 201.714235 
L 288.618831 201.656595 
L 287.618831 201.586209 
L 286.618831 201.534245 
L 285.618831 201.475155 
L 284.618831 201.386834 
L 283.618831 201.34069 
L 282.618831 201.298279 
L 281.618831 201.267786 
L 280.618831 201.241741 
L 279.618831 201.220541 
L 278.618831 201.16624 
L 277.618831 201.138302 
L 276.618831 201.108578 
L 275.618831 201.083184 
L 274.618831 201.071983 
L 273.618831 201.061859 
L 272.618831 201.062064 
L 271.618831 201.071573 
L 270.618831 201.083227 
L 269.618831 201.114256 
L 268.618831 201.125424 
L 267.618831 201.155542 
L 266.618831 201.215319 
L 265.618831 201.25251 
L 264.618831 201.291606 
L 263.618831 201.334046 
L 262.618831 201.366811 
L 261.618831 201.434238 
L 260.618831 201.473363 
L 259.618831 201.516038 
L 258.618831 201.586619 
L 257.618831 201.623009 
L 256.618831 201.681413 
L 255.618831 201.792365 
L 254.618831 201.863024 
L 253.618831 201.975963 
L 252.618831 202.021736 
L 251.618831 202.083019 
L 250.618831 202.131519 
L 249.618831 202.212341 
L 248.618831 202.33086 
L 247.618831 202.401071 
L 246.618831 202.484334 
L 244.762419 202.517475 
" clip-path="url(#p0d20240a95)" style="fill: none; stroke: #ff7f0e; stroke-opacity: 0.5; stroke-width: 0.2; stroke-linecap: square"/>
   <path d="M 296.618831 207.57001 
L 295.618831 207.538574 
L 294.618831 207.501633 
L 293.618831 207.403887 
L 292.618831 207.371365 
L 291.618831 207.29774 
L 290.618831 207.259175 
L 289.618831 207.223762 
L 288.618831 207.166122 
L 287.618831 207.095736 
L 286.618831 207.043771 
L 285.618831 206.984682 
L 284.618831 206.896361 
L 283.618831 206.850216 
L 282.618831 206.807805 
L 281.618831 206.777313 
L 280.618831 206.751268 
L 279.618831 206.730068 
L 278.618831 206.675767 
L 277.618831 206.647829 
L 276.618831 206.618105 
L 275.618831 206.59271 
L 274.618831 206.58151 
L 273.618831 206.571386 
L 272.618831 206.57159 
L 271.618831 206.5811 
L 270.618831 206.592754 
L 269.618831 206.623783 
L 268.618831 206.634951 
L 267.618831 206.665068 
L 266.618831 206.724845 
L 265.618831 206.762037 
L 264.618831 206.801133 
L 263.618831 206.843573 
L 262.618831 206.876338 
L 261.618831 206.943764 
L 260.618831 206.98289 
L 259.618831 207.025565 
L 258.618831 207.096145 
L 257.618831 207.132536 
L 256.618831 207.190939 
L 255.618831 207.301892 
L 254.618831 207.37255 
L 253.618831 207.48549 
L 252.618831 207.531263 
L 251.618831 207.592546 
L 250.618831 207.641045 
L 249.618831 207.721868 
L 248.618831 207.840387 
L 247.618831 207.910598 
L 246.618831 207.99386 
L 244.762419 208.027002 
" clip-path="url(#p0d20240a95)" style="fill: none; stroke: #ff7f0e; stroke-opacity: 0.5; stroke-width: 0.2; stroke-linecap: square"/>
   <path d="M 296.618831 202.25178 
L 295.618831 202.220343 
L 294.618831 202.183403 
L 293.618831 202.085656 
L 292.618831 202.053135 
L 291.618831 201.97951 
L 290.618831 201.940944 
L 289.618831 201.905531 
L 288.618831 201.847891 
L 287.618831 201.777505 
L 286.618831 201.725541 
L 285.618831 201.666451 
L 284.618831 201.57813 
L 283.618831 201.531986 
L 282.618831 201.489575 
L 281.618831 201.459082 
L 280.618831 201.433037 
L 279.618831 201.411837 
L 278.618831 201.357536 
L 277.618831 201.329599 
L 276.618831 201.299875 
L 275.618831 201.27448 
L 274.618831 201.263279 
L 273.618831 201.253155 
L 272.618831 201.25336 
L 271.618831 201.26287 
L 270.618831 201.274523 
L 269.618831 201.305552 
L 268.618831 201.31672 
L 267.618831 201.346838 
L 266.618831 201.406615 
L 265.618831 201.443806 
L 264.618831 201.482903 
L 263.618831 201.525342 
L 262.618831 201.558107 
L 261.618831 201.625534 
L 260.618831 201.66466 
L 259.618831 201.707334 
L 258.618831 201.777915 
L 257.618831 201.814306 
L 256.618831 201.872709 
L 255.618831 201.983661 
L 254.618831 202.05432 
L 253.618831 202.16726 
L 252.618831 202.213032 
L 251.618831 202.274316 
L 250.618831 202.322815 
L 249.618831 202.403638 
L 248.618831 202.522157 
L 247.618831 202.592367 
L 246.618831 202.67563 
L 244.762419 202.708771 
" clip-path="url(#p0d20240a95)" style="fill: none; stroke: #ff7f0e; stroke-opacity: 0.5; stroke-width: 0.2; stroke-linecap: square"/>
   <path d="M 296.618831 224.647848 
L 295.618831 224.616412 
L 294.618831 224.579472 
L 293.618831 224.481725 
L 292.618831 224.449203 
L 291.618831 224.375579 
L 290.618831 224.337013 
L 289.618831 224.3016 
L 288.618831 224.24396 
L 287.618831 224.173574 
L 286.618831 224.12161 
L 285.618831 224.06252 
L 284.618831 223.974199 
L 283.618831 223.928055 
L 282.618831 223.885644 
L 281.618831 223.855151 
L 280.618831 223.829106 
L 279.618831 223.807906 
L 278.618831 223.753605 
L 277.618831 223.725667 
L 276.618831 223.695943 
L 275.618831 223.670549 
L 274.618831 223.659348 
L 273.618831 223.649224 
L 272.618831 223.649429 
L 271.618831 223.658938 
L 270.618831 223.670592 
L 269.618831 223.701621 
L 268.618831 223.712789 
L 267.618831 223.742907 
L 266.618831 223.802684 
L 265.618831 223.839875 
L 264.618831 223.878971 
L 263.618831 223.921411 
L 262.618831 223.954176 
L 261.618831 224.021602 
L 260.618831 224.060728 
L 259.618831 224.103403 
L 258.618831 224.173984 
L 257.618831 224.210374 
L 256.618831 224.268778 
L 255.618831 224.37973 
L 254.618831 224.450388 
L 253.618831 224.563328 
L 252.618831 224.609101 
L 251.618831 224.670384 
L 250.618831 224.718884 
L 249.618831 224.799706 
L 248.618831 224.918225 
L 247.618831 224.988436 
L 246.618831 225.071698 
L 244.762419 225.10484 
" clip-path="url(#p0d20240a95)" style="fill: none; stroke: #ff7f0e; stroke-opacity: 0.5; stroke-width: 0.2; stroke-linecap: square"/>
   <path d="M 296.618831 241.78381 
L 295.618831 241.752373 
L 294.618831 241.715433 
L 293.618831 241.617686 
L 292.618831 241.585165 
L 291.618831 241.51154 
L 290.618831 241.472974 
L 289.618831 241.437561 
L 288.618831 241.379921 
L 287.618831 241.309535 
L 286.618831 241.257571 
L 285.618831 241.198481 
L 284.618831 241.11016 
L 283.618831 241.064016 
L 282.618831 241.021605 
L 281.618831 240.991112 
L 280.618831 240.965067 
L 279.618831 240.943867 
L 278.618831 240.889566 
L 277.618831 240.861629 
L 276.618831 240.831905 
L 275.618831 240.80651 
L 274.618831 240.795309 
L 273.618831 240.785185 
L 272.618831 240.78539 
L 271.618831 240.7949 
L 270.618831 240.806553 
L 269.618831 240.837582 
L 268.618831 240.84875 
L 267.618831 240.878868 
L 266.618831 240.938645 
L 265.618831 240.975836 
L 264.618831 241.014932 
L 263.618831 241.057372 
L 262.618831 241.090137 
L 261.618831 241.157564 
L 260.618831 241.19669 
L 259.618831 241.239364 
L 258.618831 241.309945 
L 257.618831 241.346336 
L 256.618831 241.404739 
L 255.618831 241.515691 
L 254.618831 241.58635 
L 253.618831 241.699289 
L 252.618831 241.745062 
L 251.618831 241.806346 
L 250.618831 241.854845 
L 249.618831 241.935668 
L 248.618831 242.054187 
L 247.618831 242.124397 
L 246.618831 242.20766 
L 244.762419 242.240801 
" clip-path="url(#p0d20240a95)" style="fill: none; stroke: #ff7f0e; stroke-opacity: 0.5; stroke-width: 0.2; stroke-linecap: square"/>
   <path d="M 296.618831 214.978127 
L 295.618831 214.94669 
L 294.618831 214.90975 
L 293.618831 214.812003 
L 292.618831 214.779482 
L 291.618831 214.705857 
L 290.618831 214.667292 
L 289.618831 214.631878 
L 288.618831 214.574238 
L 287.618831 214.503852 
L 286.618831 214.451888 
L 285.618831 214.392798 
L 284.618831 214.304477 
L 283.618831 214.258333 
L 282.618831 214.215922 
L 281.618831 214.185429 
L 280.618831 214.159384 
L 279.618831 214.138184 
L 278.618831 214.083883 
L 277.618831 214.055946 
L 276.618831 214.026222 
L 275.618831 214.000827 
L 274.618831 213.989627 
L 273.618831 213.979503 
L 272.618831 213.979707 
L 271.618831 213.989217 
L 270.618831 214.00087 
L 269.618831 214.0319 
L 268.618831 214.043068 
L 267.618831 214.073185 
L 266.618831 214.132962 
L 265.618831 214.170154 
L 264.618831 214.20925 
L 263.618831 214.251689 
L 262.618831 214.284454 
L 261.618831 214.351881 
L 260.618831 214.391007 
L 259.618831 214.433681 
L 258.618831 214.504262 
L 257.618831 214.540653 
L 256.618831 214.599056 
L 255.618831 214.710009 
L 254.618831 214.780667 
L 253.618831 214.893607 
L 252.618831 214.93938 
L 251.618831 215.000663 
L 250.618831 215.049162 
L 249.618831 215.129985 
L 248.618831 215.248504 
L 247.618831 215.318714 
L 246.618831 215.401977 
L 244.762419 215.435119 
" clip-path="url(#p0d20240a95)" style="fill: none; stroke: #ff7f0e; stroke-opacity: 0.5; stroke-width: 0.2; stroke-linecap: square"/>
   <path d="M 296.618831 258.402528 
L 295.618831 258.371092 
L 294.618831 258.334151 
L 293.618831 258.236405 
L 292.618831 258.203883 
L 291.618831 258.130258 
L 290.618831 258.091693 
L 289.618831 258.05628 
L 288.618831 257.99864 
L 287.618831 257.928253 
L 286.618831 257.876289 
L 285.618831 257.8172 
L 284.618831 257.728879 
L 283.618831 257.682734 
L 282.618831 257.640323 
L 281.618831 257.609831 
L 280.618831 257.583786 
L 279.618831 257.562586 
L 278.618831 257.508284 
L 277.618831 257.480347 
L 276.618831 257.450623 
L 275.618831 257.425228 
L 274.618831 257.414028 
L 273.618831 257.403904 
L 272.618831 257.404108 
L 271.618831 257.413618 
L 270.618831 257.425272 
L 269.618831 257.456301 
L 268.618831 257.467469 
L 267.618831 257.497586 
L 266.618831 257.557363 
L 265.618831 257.594555 
L 264.618831 257.633651 
L 263.618831 257.676091 
L 262.618831 257.708856 
L 261.618831 257.776282 
L 260.618831 257.815408 
L 259.618831 257.858083 
L 258.618831 257.928663 
L 257.618831 257.965054 
L 256.618831 258.023457 
L 255.618831 258.13441 
L 254.618831 258.205068 
L 253.618831 258.318008 
L 252.618831 258.363781 
L 251.618831 258.425064 
L 250.618831 258.473563 
L 249.618831 258.554386 
L 248.618831 258.672905 
L 247.618831 258.743116 
L 246.618831 258.826378 
L 244.762419 258.85952 
" clip-path="url(#p0d20240a95)" style="fill: none; stroke: #ff7f0e; stroke-opacity: 0.5; stroke-width: 0.2; stroke-linecap: square"/>
   <path d="M 296.618831 231.259903 
L 295.618831 231.228466 
L 294.618831 231.191526 
L 293.618831 231.093779 
L 292.618831 231.061258 
L 291.618831 230.987633 
L 290.618831 230.949068 
L 289.618831 230.913654 
L 288.618831 230.856014 
L 287.618831 230.785628 
L 286.618831 230.733664 
L 285.618831 230.674574 
L 284.618831 230.586253 
L 283.618831 230.540109 
L 282.618831 230.497698 
L 281.618831 230.467205 
L 280.618831 230.44116 
L 279.618831 230.41996 
L 278.618831 230.365659 
L 277.618831 230.337722 
L 276.618831 230.307998 
L 275.618831 230.282603 
L 274.618831 230.271402 
L 273.618831 230.261279 
L 272.618831 230.261483 
L 271.618831 230.270993 
L 270.618831 230.282646 
L 269.618831 230.313676 
L 268.618831 230.324843 
L 267.618831 230.354961 
L 266.618831 230.414738 
L 265.618831 230.451929 
L 264.618831 230.491026 
L 263.618831 230.533465 
L 262.618831 230.56623 
L 261.618831 230.633657 
L 260.618831 230.672783 
L 259.618831 230.715457 
L 258.618831 230.786038 
L 257.618831 230.822429 
L 256.618831 230.880832 
L 255.618831 230.991784 
L 254.618831 231.062443 
L 253.618831 231.175383 
L 252.618831 231.221155 
L 251.618831 231.282439 
L 250.618831 231.330938 
L 249.618831 231.411761 
L 248.618831 231.53028 
L 247.618831 231.60049 
L 246.618831 231.683753 
L 244.762419 231.716895 
" clip-path="url(#p0d20240a95)" style="fill: none; stroke: #ff7f0e; stroke-opacity: 0.5; stroke-width: 0.2; stroke-linecap: square"/>
   <path d="M 244.762419 214.084506 
L 245.762419 214.115942 
L 246.762419 214.152883 
L 247.762419 214.250629 
L 248.762419 214.283151 
L 249.762419 214.356776 
L 250.762419 214.395341 
L 251.762419 214.430754 
L 252.762419 214.488394 
L 253.762419 214.55878 
L 254.762419 214.610745 
L 255.762419 214.669834 
L 256.762419 214.758155 
L 257.762419 214.8043 
L 258.762419 214.846711 
L 259.762419 214.877203 
L 260.762419 214.903248 
L 261.762419 214.924448 
L 262.762419 214.978749 
L 263.762419 215.006687 
L 264.762419 215.036411 
L 265.762419 215.061806 
L 266.762419 215.073006 
L 267.762419 215.08313 
L 268.762419 215.082926 
L 269.762419 215.073416 
L 270.762419 215.061762 
L 271.762419 215.030733 
L 272.762419 215.019565 
L 273.762419 214.989448 
L 274.762419 214.929671 
L 275.762419 214.892479 
L 276.762419 214.853383 
L 277.762419 214.810943 
L 278.762419 214.778178 
L 279.762419 214.710752 
L 280.762419 214.671626 
L 281.762419 214.628951 
L 282.762419 214.558371 
L 283.762419 214.52198 
L 284.762419 214.463577 
L 285.762419 214.352624 
L 286.762419 214.281966 
L 287.762419 214.169026 
L 288.762419 214.123253 
L 289.762419 214.06197 
L 290.762419 214.013471 
L 291.762419 213.932648 
L 292.762419 213.814129 
L 293.762419 213.743918 
L 294.762419 213.660656 
L 296.618831 213.627514 
" clip-path="url(#p0d20240a95)" style="fill: none; stroke: #1f77b4; stroke-opacity: 0.5; stroke-width: 0.2; stroke-linecap: square"/>
   <path d="M 244.762419 242.202601 
L 245.762419 242.234038 
L 246.762419 242.270978 
L 247.762419 242.368725 
L 248.762419 242.401246 
L 249.762419 242.474871 
L 250.762419 242.513437 
L 251.762419 242.54885 
L 252.762419 242.60649 
L 253.762419 242.676876 
L 254.762419 242.72884 
L 255.762419 242.78793 
L 256.762419 242.876251 
L 257.762419 242.922395 
L 258.762419 242.964806 
L 259.762419 242.995299 
L 260.762419 243.021344 
L 261.762419 243.042544 
L 262.762419 243.096845 
L 263.762419 243.124782 
L 264.762419 243.154506 
L 265.762419 243.179901 
L 266.762419 243.191102 
L 267.762419 243.201225 
L 268.762419 243.201021 
L 269.762419 243.191511 
L 270.762419 243.179858 
L 271.762419 243.148828 
L 272.762419 243.137661 
L 273.762419 243.107543 
L 274.762419 243.047766 
L 275.762419 243.010575 
L 276.762419 242.971478 
L 277.762419 242.929039 
L 278.762419 242.896274 
L 279.762419 242.828847 
L 280.762419 242.789721 
L 281.762419 242.747047 
L 282.762419 242.676466 
L 283.762419 242.640075 
L 284.762419 242.581672 
L 285.762419 242.47072 
L 286.762419 242.400061 
L 287.762419 242.287121 
L 288.762419 242.241349 
L 289.762419 242.180065 
L 290.762419 242.131566 
L 291.762419 242.050743 
L 292.762419 241.932224 
L 293.762419 241.862014 
L 294.762419 241.778751 
L 296.618831 241.745609 
" clip-path="url(#p0d20240a95)" style="fill: none; stroke: #1f77b4; stroke-opacity: 0.5; stroke-width: 0.2; stroke-linecap: square"/>
   <path d="M 244.762419 225.124727 
L 245.762419 225.156163 
L 246.762419 225.193104 
L 247.762419 225.29085 
L 248.762419 225.323372 
L 249.762419 225.396996 
L 250.762419 225.435562 
L 251.762419 225.470975 
L 252.762419 225.528615 
L 253.762419 225.599001 
L 254.762419 225.650965 
L 255.762419 225.710055 
L 256.762419 225.798376 
L 257.762419 225.84452 
L 258.762419 225.886931 
L 259.762419 225.917424 
L 260.762419 225.943469 
L 261.762419 225.964669 
L 262.762419 226.01897 
L 263.762419 226.046908 
L 264.762419 226.076632 
L 265.762419 226.102027 
L 266.762419 226.113227 
L 267.762419 226.123351 
L 268.762419 226.123147 
L 269.762419 226.113637 
L 270.762419 226.101983 
L 271.762419 226.070954 
L 272.762419 226.059786 
L 273.762419 226.029668 
L 274.762419 225.969891 
L 275.762419 225.9327 
L 276.762419 225.893604 
L 277.762419 225.851164 
L 278.762419 225.818399 
L 279.762419 225.750973 
L 280.762419 225.711847 
L 281.762419 225.669172 
L 282.762419 225.598592 
L 283.762419 225.562201 
L 284.762419 225.503798 
L 285.762419 225.392845 
L 286.762419 225.322187 
L 287.762419 225.209247 
L 288.762419 225.163474 
L 289.762419 225.102191 
L 290.762419 225.053691 
L 291.762419 224.972869 
L 292.762419 224.85435 
L 293.762419 224.784139 
L 294.762419 224.700877 
L 296.618831 224.667735 
" clip-path="url(#p0d20240a95)" style="fill: none; stroke: #1f77b4; stroke-opacity: 0.5; stroke-width: 0.2; stroke-linecap: square"/>
   <path d="M 244.762419 212.522976 
L 245.762419 212.554412 
L 246.762419 212.591353 
L 247.762419 212.689099 
L 248.762419 212.721621 
L 249.762419 212.795246 
L 250.762419 212.833811 
L 251.762419 212.869224 
L 252.762419 212.926864 
L 253.762419 212.99725 
L 254.762419 213.049215 
L 255.762419 213.108304 
L 256.762419 213.196625 
L 257.762419 213.24277 
L 258.762419 213.285181 
L 259.762419 213.315673 
L 260.762419 213.341718 
L 261.762419 213.362918 
L 262.762419 213.417219 
L 263.762419 213.445157 
L 264.762419 213.474881 
L 265.762419 213.500276 
L 266.762419 213.511476 
L 267.762419 213.5216 
L 268.762419 213.521396 
L 269.762419 213.511886 
L 270.762419 213.500232 
L 271.762419 213.469203 
L 272.762419 213.458035 
L 273.762419 213.427918 
L 274.762419 213.368141 
L 275.762419 213.330949 
L 276.762419 213.291853 
L 277.762419 213.249413 
L 278.762419 213.216648 
L 279.762419 213.149222 
L 280.762419 213.110096 
L 281.762419 213.067421 
L 282.762419 212.996841 
L 283.762419 212.96045 
L 284.762419 212.902047 
L 285.762419 212.791094 
L 286.762419 212.720436 
L 287.762419 212.607496 
L 288.762419 212.561723 
L 289.762419 212.50044 
L 290.762419 212.451941 
L 291.762419 212.371118 
L 292.762419 212.252599 
L 293.762419 212.182388 
L 294.762419 212.099126 
L 296.618831 212.065984 
" clip-path="url(#p0d20240a95)" style="fill: none; stroke: #1f77b4; stroke-opacity: 0.5; stroke-width: 0.2; stroke-linecap: square"/>
   <path d="M 244.762419 210.591081 
L 245.762419 210.622518 
L 246.762419 210.659458 
L 247.762419 210.757205 
L 248.762419 210.789726 
L 249.762419 210.863351 
L 250.762419 210.901917 
L 251.762419 210.93733 
L 252.762419 210.99497 
L 253.762419 211.065356 
L 254.762419 211.11732 
L 255.762419 211.17641 
L 256.762419 211.264731 
L 257.762419 211.310875 
L 258.762419 211.353286 
L 259.762419 211.383779 
L 260.762419 211.409824 
L 261.762419 211.431024 
L 262.762419 211.485325 
L 263.762419 211.513262 
L 264.762419 211.542986 
L 265.762419 211.568381 
L 266.762419 211.579582 
L 267.762419 211.589705 
L 268.762419 211.589501 
L 269.762419 211.579991 
L 270.762419 211.568338 
L 271.762419 211.537308 
L 272.762419 211.526141 
L 273.762419 211.496023 
L 274.762419 211.436246 
L 275.762419 211.399055 
L 276.762419 211.359958 
L 277.762419 211.317519 
L 278.762419 211.284754 
L 279.762419 211.217327 
L 280.762419 211.178201 
L 281.762419 211.135527 
L 282.762419 211.064946 
L 283.762419 211.028555 
L 284.762419 210.970152 
L 285.762419 210.8592 
L 286.762419 210.788541 
L 287.762419 210.675601 
L 288.762419 210.629829 
L 289.762419 210.568545 
L 290.762419 210.520046 
L 291.762419 210.439223 
L 292.762419 210.320704 
L 293.762419 210.250494 
L 294.762419 210.167231 
L 296.618831 210.134089 
" clip-path="url(#p0d20240a95)" style="fill: none; stroke: #1f77b4; stroke-opacity: 0.5; stroke-width: 0.2; stroke-linecap: square"/>
   <path d="M 244.762419 179.585766 
L 245.762419 179.617203 
L 246.762419 179.654143 
L 247.762419 179.75189 
L 248.762419 179.784411 
L 249.762419 179.858036 
L 250.762419 179.896601 
L 251.762419 179.932015 
L 252.762419 179.989655 
L 253.762419 180.060041 
L 254.762419 180.112005 
L 255.762419 180.171095 
L 256.762419 180.259416 
L 257.762419 180.30556 
L 258.762419 180.347971 
L 259.762419 180.378464 
L 260.762419 180.404509 
L 261.762419 180.425709 
L 262.762419 180.48001 
L 263.762419 180.507947 
L 264.762419 180.537671 
L 265.762419 180.563066 
L 266.762419 180.574266 
L 267.762419 180.58439 
L 268.762419 180.584186 
L 269.762419 180.574676 
L 270.762419 180.563023 
L 271.762419 180.531993 
L 272.762419 180.520825 
L 273.762419 180.490708 
L 274.762419 180.430931 
L 275.762419 180.393739 
L 276.762419 180.354643 
L 277.762419 180.312204 
L 278.762419 180.279439 
L 279.762419 180.212012 
L 280.762419 180.172886 
L 281.762419 180.130212 
L 282.762419 180.059631 
L 283.762419 180.02324 
L 284.762419 179.964837 
L 285.762419 179.853884 
L 286.762419 179.783226 
L 287.762419 179.670286 
L 288.762419 179.624513 
L 289.762419 179.56323 
L 290.762419 179.514731 
L 291.762419 179.433908 
L 292.762419 179.315389 
L 293.762419 179.245179 
L 294.762419 179.161916 
L 296.618831 179.128774 
" clip-path="url(#p0d20240a95)" style="fill: none; stroke: #1f77b4; stroke-opacity: 0.5; stroke-width: 0.2; stroke-linecap: square"/>
   <path d="M 244.762419 188.614025 
L 245.762419 188.645462 
L 246.762419 188.682402 
L 247.762419 188.780149 
L 248.762419 188.81267 
L 249.762419 188.886295 
L 250.762419 188.924861 
L 251.762419 188.960274 
L 252.762419 189.017914 
L 253.762419 189.0883 
L 254.762419 189.140264 
L 255.762419 189.199354 
L 256.762419 189.287675 
L 257.762419 189.333819 
L 258.762419 189.37623 
L 259.762419 189.406723 
L 260.762419 189.432768 
L 261.762419 189.453968 
L 262.762419 189.508269 
L 263.762419 189.536206 
L 264.762419 189.56593 
L 265.762419 189.591325 
L 266.762419 189.602526 
L 267.762419 189.61265 
L 268.762419 189.612445 
L 269.762419 189.602935 
L 270.762419 189.591282 
L 271.762419 189.560253 
L 272.762419 189.549085 
L 273.762419 189.518967 
L 274.762419 189.45919 
L 275.762419 189.421999 
L 276.762419 189.382902 
L 277.762419 189.340463 
L 278.762419 189.307698 
L 279.762419 189.240271 
L 280.762419 189.201145 
L 281.762419 189.158471 
L 282.762419 189.08789 
L 283.762419 189.051499 
L 284.762419 188.993096 
L 285.762419 188.882144 
L 286.762419 188.811485 
L 287.762419 188.698545 
L 288.762419 188.652773 
L 289.762419 188.591489 
L 290.762419 188.54299 
L 291.762419 188.462167 
L 292.762419 188.343648 
L 293.762419 188.273438 
L 294.762419 188.190175 
L 296.618831 188.157034 
" clip-path="url(#p0d20240a95)" style="fill: none; stroke: #1f77b4; stroke-opacity: 0.5; stroke-width: 0.2; stroke-linecap: square"/>
   <path d="M 244.762419 259.000233 
L 245.762419 259.031669 
L 246.762419 259.06861 
L 247.762419 259.166356 
L 248.762419 259.198878 
L 249.762419 259.272502 
L 250.762419 259.311068 
L 251.762419 259.346481 
L 252.762419 259.404121 
L 253.762419 259.474507 
L 254.762419 259.526472 
L 255.762419 259.585561 
L 256.762419 259.673882 
L 257.762419 259.720027 
L 258.762419 259.762437 
L 259.762419 259.79293 
L 260.762419 259.818975 
L 261.762419 259.840175 
L 262.762419 259.894476 
L 263.762419 259.922414 
L 264.762419 259.952138 
L 265.762419 259.977533 
L 266.762419 259.988733 
L 267.762419 259.998857 
L 268.762419 259.998653 
L 269.762419 259.989143 
L 270.762419 259.977489 
L 271.762419 259.94646 
L 272.762419 259.935292 
L 273.762419 259.905174 
L 274.762419 259.845398 
L 275.762419 259.808206 
L 276.762419 259.76911 
L 277.762419 259.72667 
L 278.762419 259.693905 
L 279.762419 259.626479 
L 280.762419 259.587353 
L 281.762419 259.544678 
L 282.762419 259.474098 
L 283.762419 259.437707 
L 284.762419 259.379304 
L 285.762419 259.268351 
L 286.762419 259.197693 
L 287.762419 259.084753 
L 288.762419 259.03898 
L 289.762419 258.977697 
L 290.762419 258.929197 
L 291.762419 258.848375 
L 292.762419 258.729856 
L 293.762419 258.659645 
L 294.762419 258.576383 
L 296.618831 258.543241 
" clip-path="url(#p0d20240a95)" style="fill: none; stroke: #1f77b4; stroke-opacity: 0.5; stroke-width: 0.2; stroke-linecap: square"/>
   <path d="M 244.762419 181.909348 
L 245.762419 181.940785 
L 246.762419 181.977725 
L 247.762419 182.075472 
L 248.762419 182.107993 
L 249.762419 182.181618 
L 250.762419 182.220183 
L 251.762419 182.255597 
L 252.762419 182.313236 
L 253.762419 182.383623 
L 254.762419 182.435587 
L 255.762419 182.494677 
L 256.762419 182.582998 
L 257.762419 182.629142 
L 258.762419 182.671553 
L 259.762419 182.702046 
L 260.762419 182.72809 
L 261.762419 182.749291 
L 262.762419 182.803592 
L 263.762419 182.831529 
L 264.762419 182.861253 
L 265.762419 182.886648 
L 266.762419 182.897848 
L 267.762419 182.907972 
L 268.762419 182.907768 
L 269.762419 182.898258 
L 270.762419 182.886605 
L 271.762419 182.855575 
L 272.762419 182.844407 
L 273.762419 182.81429 
L 274.762419 182.754513 
L 275.762419 182.717321 
L 276.762419 182.678225 
L 277.762419 182.635786 
L 278.762419 182.603021 
L 279.762419 182.535594 
L 280.762419 182.496468 
L 281.762419 182.453794 
L 282.762419 182.383213 
L 283.762419 182.346822 
L 284.762419 182.288419 
L 285.762419 182.177466 
L 286.762419 182.106808 
L 287.762419 181.993868 
L 288.762419 181.948095 
L 289.762419 181.886812 
L 290.762419 181.838313 
L 291.762419 181.75749 
L 292.762419 181.638971 
L 293.762419 181.568761 
L 294.762419 181.485498 
L 296.618831 181.452356 
" clip-path="url(#p0d20240a95)" style="fill: none; stroke: #1f77b4; stroke-opacity: 0.5; stroke-width: 0.2; stroke-linecap: square"/>
   <path d="M 244.762419 245.168482 
L 245.762419 245.199918 
L 246.762419 245.236858 
L 247.762419 245.334605 
L 248.762419 245.367127 
L 249.762419 245.440751 
L 250.762419 245.479317 
L 251.762419 245.51473 
L 252.762419 245.57237 
L 253.762419 245.642756 
L 254.762419 245.69472 
L 255.762419 245.75381 
L 256.762419 245.842131 
L 257.762419 245.888275 
L 258.762419 245.930686 
L 259.762419 245.961179 
L 260.762419 245.987224 
L 261.762419 246.008424 
L 262.762419 246.062725 
L 263.762419 246.090663 
L 264.762419 246.120387 
L 265.762419 246.145781 
L 266.762419 246.156982 
L 267.762419 246.167106 
L 268.762419 246.166902 
L 269.762419 246.157392 
L 270.762419 246.145738 
L 271.762419 246.114709 
L 272.762419 246.103541 
L 273.762419 246.073423 
L 274.762419 246.013646 
L 275.762419 245.976455 
L 276.762419 245.937359 
L 277.762419 245.894919 
L 278.762419 245.862154 
L 279.762419 245.794728 
L 280.762419 245.755602 
L 281.762419 245.712927 
L 282.762419 245.642347 
L 283.762419 245.605956 
L 284.762419 245.547552 
L 285.762419 245.4366 
L 286.762419 245.365942 
L 287.762419 245.253002 
L 288.762419 245.207229 
L 289.762419 245.145946 
L 290.762419 245.097446 
L 291.762419 245.016624 
L 292.762419 244.898105 
L 293.762419 244.827894 
L 294.762419 244.744632 
L 296.618831 244.71149 
" clip-path="url(#p0d20240a95)" style="fill: none; stroke: #1f77b4; stroke-opacity: 0.5; stroke-width: 0.2; stroke-linecap: square"/>
   <g id="patch_3">
    <path d="M 64.409375 22.318125 
L 64.409375 260.421875 
M 240.224232 22.318125 
L 240.224232 260.421875 
" clip-path="url(#p0d20240a95)" style="fill: none; stroke: #ffffff; stroke-width: 3; stroke-linejoin: miter"/>
    <path d="M 64.409375 22.318125 
L 64.409375 260.421875 
M 240.224232 22.318125 
L 240.224232 260.421875 
" clip-path="url(#p0d20240a95)" style="fill: none; stroke: #1f77b4; stroke-linejoin: miter"/>
    <g id="PolyCollection_1">
     <path d="M 240.224232 22.318125 
L 64.409375 22.318125 
L 64.409375 260.421875 
L 240.224232 260.421875 
L 240.224232 260.421875 
L 240.224232 22.318125 
z
" clip-path="url(#p0d20240a95)" style="fill: #1f77b4; fill-opacity: 0.5"/>
    </g>
    <g id="patch_4">
     <path d="M 301.157018 22.318125 
L 301.157018 260.421875 
M 476.971875 22.318125 
L 476.971875 260.421875 
" clip-path="url(#p0d20240a95)" style="fill: none; stroke: #ffffff; stroke-width: 3; stroke-linejoin: miter"/>
     <path d="M 301.157018 22.318125 
L 301.157018 260.421875 
M 476.971875 22.318125 
L 476.971875 260.421875 
" clip-path="url(#p0d20240a95)" style="fill: none; stroke: #ff7f0e; stroke-linejoin: miter"/>
     <g id="PolyCollection_2">
      <path d="M 476.971875 22.318125 
L 301.157018 22.318125 
L 301.157018 260.421875 
L 476.971875 260.421875 
L 476.971875 260.421875 
L 476.971875 22.318125 
z
" clip-path="url(#p0d20240a95)" style="fill: #ff7f0e; fill-opacity: 0.5"/>
     </g>
     <g id="matplotlib.axis_1">
      <g id="xtick_1">
       <g id="line2d_1"/>
       <g id="text_1">
        <!-- deme0 -->
        <g transform="translate(134.937897 271.520312)scale(0.1 -0.1)">
         <defs>
          <path id="DejaVuSans-64" d="M 2906 2969 
L 2906 4863 
L 3481 4863 
L 3481 0 
L 2906 0 
L 2906 525 
Q 2725 213 2448 61 
Q 2172 -91 1784 -91 
Q 1150 -91 751 415 
Q 353 922 353 1747 
Q 353 2572 751 3078 
Q 1150 3584 1784 3584 
Q 2172 3584 2448 3432 
Q 2725 3281 2906 2969 
z
M 947 1747 
Q 947 1113 1208 752 
Q 1469 391 1925 391 
Q 2381 391 2643 752 
Q 2906 1113 2906 1747 
Q 2906 2381 2643 2742 
Q 2381 3103 1925 3103 
Q 1469 3103 1208 2742 
Q 947 2381 947 1747 
z
" transform="scale(0.015625)"/>
          <path id="DejaVuSans-65" d="M 3597 1894 
L 3597 1613 
L 953 1613 
Q 991 1019 1311 708 
Q 1631 397 2203 397 
Q 2534 397 2845 478 
Q 3156 559 3463 722 
L 3463 178 
Q 3153 47 2828 -22 
Q 2503 -91 2169 -91 
Q 1331 -91 842 396 
Q 353 884 353 1716 
Q 353 2575 817 3079 
Q 1281 3584 2069 3584 
Q 2775 3584 3186 3129 
Q 3597 2675 3597 1894 
z
M 3022 2063 
Q 3016 2534 2758 2815 
Q 2500 3097 2075 3097 
Q 1594 3097 1305 2825 
Q 1016 2553 972 2059 
L 3022 2063 
z
" transform="scale(0.015625)"/>
          <path id="DejaVuSans-6d" d="M 3328 2828 
Q 3544 3216 3844 3400 
Q 4144 3584 4550 3584 
Q 5097 3584 5394 3201 
Q 5691 2819 5691 2113 
L 5691 0 
L 5113 0 
L 5113 2094 
Q 5113 2597 4934 2840 
Q 4756 3084 4391 3084 
Q 3944 3084 3684 2787 
Q 3425 2491 3425 1978 
L 3425 0 
L 2847 0 
L 2847 2094 
Q 2847 2600 2669 2842 
Q 2491 3084 2119 3084 
Q 1678 3084 1418 2786 
Q 1159 2488 1159 1978 
L 1159 0 
L 581 0 
L 581 3500 
L 1159 3500 
L 1159 2956 
Q 1356 3278 1631 3431 
Q 1906 3584 2284 3584 
Q 2666 3584 2933 3390 
Q 3200 3197 3328 2828 
z
" transform="scale(0.015625)"/>
          <path id="DejaVuSans-30" d="M 2034 4250 
Q 1547 4250 1301 3770 
Q 1056 3291 1056 2328 
Q 1056 1369 1301 889 
Q 1547 409 2034 409 
Q 2525 409 2770 889 
Q 3016 1369 3016 2328 
Q 3016 3291 2770 3770 
Q 2525 4250 2034 4250 
z
M 2034 4750 
Q 2819 4750 3233 4129 
Q 3647 3509 3647 2328 
Q 3647 1150 3233 529 
Q 2819 -91 2034 -91 
Q 1250 -91 836 529 
Q 422 1150 422 2328 
Q 422 3509 836 4129 
Q 1250 4750 2034 4750 
z
" transform="scale(0.015625)"/>
         </defs>
         <use xlink:href="#DejaVuSans-64"/>
         <use xlink:href="#DejaVuSans-65" x="63.476562"/>
         <use xlink:href="#DejaVuSans-6d" x="125"/>
         <use xlink:href="#DejaVuSans-65" x="222.412109"/>
         <use xlink:href="#DejaVuSans-30" x="283.935547"/>
        </g>
       </g>
      </g>
      <g id="xtick_2">
       <g id="line2d_2"/>
       <g id="text_2">
        <!-- deme1 -->
        <g transform="translate(371.68554 271.520312)scale(0.1 -0.1)">
         <defs>
          <path id="DejaVuSans-31" d="M 794 531 
L 1825 531 
L 1825 4091 
L 703 3866 
L 703 4441 
L 1819 4666 
L 2450 4666 
L 2450 531 
L 3481 531 
L 3481 0 
L 794 0 
L 794 531 
z
" transform="scale(0.015625)"/>
         </defs>
         <use xlink:href="#DejaVuSans-64"/>
         <use xlink:href="#DejaVuSans-65" x="63.476562"/>
         <use xlink:href="#DejaVuSans-6d" x="125"/>
         <use xlink:href="#DejaVuSans-65" x="222.412109"/>
         <use xlink:href="#DejaVuSans-31" x="283.935547"/>
        </g>
       </g>
      </g>
     </g>
     <g id="matplotlib.axis_2">
      <g id="ytick_1">
       <g id="line2d_3">
        <defs>
         <path id="m1059d28e23" d="M 0 0 
L -3.5 0 
" style="stroke: #000000; stroke-width: 0.8"/>
        </defs>
        <g>
         <use xlink:href="#m1059d28e23" x="43.78125" y="260.421875" style="stroke: #000000; stroke-width: 0.8"/>
        </g>
       </g>
       <g id="text_3">
        <!-- 0.0 -->
        <g transform="translate(20.878125 264.221094)scale(0.1 -0.1)">
         <defs>
          <path id="DejaVuSans-2e" d="M 684 794 
L 1344 794 
L 1344 0 
L 684 0 
L 684 794 
z
" transform="scale(0.015625)"/>
         </defs>
         <use xlink:href="#DejaVuSans-30"/>
         <use xlink:href="#DejaVuSans-2e" x="63.623047"/>
         <use xlink:href="#DejaVuSans-30" x="95.410156"/>
        </g>
       </g>
      </g>
      <g id="ytick_2">
       <g id="line2d_4">
        <g>
         <use xlink:href="#m1059d28e23" x="43.78125" y="212.801125" style="stroke: #000000; stroke-width: 0.8"/>
        </g>
       </g>
       <g id="text_4">
        <!-- 0.5 -->
        <g transform="translate(20.878125 216.600344)scale(0.1 -0.1)">
         <defs>
          <path id="DejaVuSans-35" d="M 691 4666 
L 3169 4666 
L 3169 4134 
L 1269 4134 
L 1269 2991 
Q 1406 3038 1543 3061 
Q 1681 3084 1819 3084 
Q 2600 3084 3056 2656 
Q 3513 2228 3513 1497 
Q 3513 744 3044 326 
Q 2575 -91 1722 -91 
Q 1428 -91 1123 -41 
Q 819 9 494 109 
L 494 744 
Q 775 591 1075 516 
Q 1375 441 1709 441 
Q 2250 441 2565 725 
Q 2881 1009 2881 1497 
Q 2881 1984 2565 2268 
Q 2250 2553 1709 2553 
Q 1456 2553 1204 2497 
Q 953 2441 691 2322 
L 691 4666 
z
" transform="scale(0.015625)"/>
         </defs>
         <use xlink:href="#DejaVuSans-30"/>
         <use xlink:href="#DejaVuSans-2e" x="63.623047"/>
         <use xlink:href="#DejaVuSans-35" x="95.410156"/>
        </g>
       </g>
      </g>
      <g id="ytick_3">
       <g id="line2d_5">
        <g>
         <use xlink:href="#m1059d28e23" x="43.78125" y="165.180375" style="stroke: #000000; stroke-width: 0.8"/>
        </g>
       </g>
       <g id="text_5">
        <!-- 1.0 -->
        <g transform="translate(20.878125 168.979594)scale(0.1 -0.1)">
         <use xlink:href="#DejaVuSans-31"/>
         <use xlink:href="#DejaVuSans-2e" x="63.623047"/>
         <use xlink:href="#DejaVuSans-30" x="95.410156"/>
        </g>
       </g>
      </g>
      <g id="ytick_4">
       <g id="line2d_6">
        <g>
         <use xlink:href="#m1059d28e23" x="43.78125" y="117.559625" style="stroke: #000000; stroke-width: 0.8"/>
        </g>
       </g>
       <g id="text_6">
        <!-- 1.5 -->
        <g transform="translate(20.878125 121.358844)scale(0.1 -0.1)">
         <use xlink:href="#DejaVuSans-31"/>
         <use xlink:href="#DejaVuSans-2e" x="63.623047"/>
         <use xlink:href="#DejaVuSans-35" x="95.410156"/>
        </g>
       </g>
      </g>
      <g id="ytick_5">
       <g id="line2d_7">
        <g>
         <use xlink:href="#m1059d28e23" x="43.78125" y="69.938875" style="stroke: #000000; stroke-width: 0.8"/>
        </g>
       </g>
       <g id="text_7">
        <!-- 2.0 -->
        <g transform="translate(20.878125 73.738094)scale(0.1 -0.1)">
         <defs>
          <path id="DejaVuSans-32" d="M 1228 531 
L 3431 531 
L 3431 0 
L 469 0 
L 469 531 
Q 828 903 1448 1529 
Q 2069 2156 2228 2338 
Q 2531 2678 2651 2914 
Q 2772 3150 2772 3378 
Q 2772 3750 2511 3984 
Q 2250 4219 1831 4219 
Q 1534 4219 1204 4116 
Q 875 4013 500 3803 
L 500 4441 
Q 881 4594 1212 4672 
Q 1544 4750 1819 4750 
Q 2544 4750 2975 4387 
Q 3406 4025 3406 3419 
Q 3406 3131 3298 2873 
Q 3191 2616 2906 2266 
Q 2828 2175 2409 1742 
Q 1991 1309 1228 531 
z
" transform="scale(0.015625)"/>
         </defs>
         <use xlink:href="#DejaVuSans-32"/>
         <use xlink:href="#DejaVuSans-2e" x="63.623047"/>
         <use xlink:href="#DejaVuSans-30" x="95.410156"/>
        </g>
       </g>
      </g>
      <g id="ytick_6">
       <g id="line2d_8">
        <g>
         <use xlink:href="#m1059d28e23" x="43.78125" y="22.318125" style="stroke: #000000; stroke-width: 0.8"/>
        </g>
       </g>
       <g id="text_8">
        <!-- 2.5 -->
        <g transform="translate(20.878125 26.117344)scale(0.1 -0.1)">
         <use xlink:href="#DejaVuSans-32"/>
         <use xlink:href="#DejaVuSans-2e" x="63.623047"/>
         <use xlink:href="#DejaVuSans-35" x="95.410156"/>
        </g>
       </g>
      </g>
      <g id="text_9">
       <!-- time ago (generations) -->
       <g transform="translate(14.798438 198.841094)rotate(-90)scale(0.1 -0.1)">
        <defs>
         <path id="DejaVuSans-74" d="M 1172 4494 
L 1172 3500 
L 2356 3500 
L 2356 3053 
L 1172 3053 
L 1172 1153 
Q 1172 725 1289 603 
Q 1406 481 1766 481 
L 2356 481 
L 2356 0 
L 1766 0 
Q 1100 0 847 248 
Q 594 497 594 1153 
L 594 3053 
L 172 3053 
L 172 3500 
L 594 3500 
L 594 4494 
L 1172 4494 
z
" transform="scale(0.015625)"/>
         <path id="DejaVuSans-69" d="M 603 3500 
L 1178 3500 
L 1178 0 
L 603 0 
L 603 3500 
z
M 603 4863 
L 1178 4863 
L 1178 4134 
L 603 4134 
L 603 4863 
z
" transform="scale(0.015625)"/>
         <path id="DejaVuSans-20" transform="scale(0.015625)"/>
         <path id="DejaVuSans-61" d="M 2194 1759 
Q 1497 1759 1228 1600 
Q 959 1441 959 1056 
Q 959 750 1161 570 
Q 1363 391 1709 391 
Q 2188 391 2477 730 
Q 2766 1069 2766 1631 
L 2766 1759 
L 2194 1759 
z
M 3341 1997 
L 3341 0 
L 2766 0 
L 2766 531 
Q 2569 213 2275 61 
Q 1981 -91 1556 -91 
Q 1019 -91 701 211 
Q 384 513 384 1019 
Q 384 1609 779 1909 
Q 1175 2209 1959 2209 
L 2766 2209 
L 2766 2266 
Q 2766 2663 2505 2880 
Q 2244 3097 1772 3097 
Q 1472 3097 1187 3025 
Q 903 2953 641 2809 
L 641 3341 
Q 956 3463 1253 3523 
Q 1550 3584 1831 3584 
Q 2591 3584 2966 3190 
Q 3341 2797 3341 1997 
z
" transform="scale(0.015625)"/>
         <path id="DejaVuSans-67" d="M 2906 1791 
Q 2906 2416 2648 2759 
Q 2391 3103 1925 3103 
Q 1463 3103 1205 2759 
Q 947 2416 947 1791 
Q 947 1169 1205 825 
Q 1463 481 1925 481 
Q 2391 481 2648 825 
Q 2906 1169 2906 1791 
z
M 3481 434 
Q 3481 -459 3084 -895 
Q 2688 -1331 1869 -1331 
Q 1566 -1331 1297 -1286 
Q 1028 -1241 775 -1147 
L 775 -588 
Q 1028 -725 1275 -790 
Q 1522 -856 1778 -856 
Q 2344 -856 2625 -561 
Q 2906 -266 2906 331 
L 2906 616 
Q 2728 306 2450 153 
Q 2172 0 1784 0 
Q 1141 0 747 490 
Q 353 981 353 1791 
Q 353 2603 747 3093 
Q 1141 3584 1784 3584 
Q 2172 3584 2450 3431 
Q 2728 3278 2906 2969 
L 2906 3500 
L 3481 3500 
L 3481 434 
z
" transform="scale(0.015625)"/>
         <path id="DejaVuSans-6f" d="M 1959 3097 
Q 1497 3097 1228 2736 
Q 959 2375 959 1747 
Q 959 1119 1226 758 
Q 1494 397 1959 397 
Q 2419 397 2687 759 
Q 2956 1122 2956 1747 
Q 2956 2369 2687 2733 
Q 2419 3097 1959 3097 
z
M 1959 3584 
Q 2709 3584 3137 3096 
Q 3566 2609 3566 1747 
Q 3566 888 3137 398 
Q 2709 -91 1959 -91 
Q 1206 -91 779 398 
Q 353 888 353 1747 
Q 353 2609 779 3096 
Q 1206 3584 1959 3584 
z
" transform="scale(0.015625)"/>
         <path id="DejaVuSans-28" d="M 1984 4856 
Q 1566 4138 1362 3434 
Q 1159 2731 1159 2009 
Q 1159 1288 1364 580 
Q 1569 -128 1984 -844 
L 1484 -844 
Q 1016 -109 783 600 
Q 550 1309 550 2009 
Q 550 2706 781 3412 
Q 1013 4119 1484 4856 
L 1984 4856 
z
" transform="scale(0.015625)"/>
         <path id="DejaVuSans-6e" d="M 3513 2113 
L 3513 0 
L 2938 0 
L 2938 2094 
Q 2938 2591 2744 2837 
Q 2550 3084 2163 3084 
Q 1697 3084 1428 2787 
Q 1159 2491 1159 1978 
L 1159 0 
L 581 0 
L 581 3500 
L 1159 3500 
L 1159 2956 
Q 1366 3272 1645 3428 
Q 1925 3584 2291 3584 
Q 2894 3584 3203 3211 
Q 3513 2838 3513 2113 
z
" transform="scale(0.015625)"/>
         <path id="DejaVuSans-72" d="M 2631 2963 
Q 2534 3019 2420 3045 
Q 2306 3072 2169 3072 
Q 1681 3072 1420 2755 
Q 1159 2438 1159 1844 
L 1159 0 
L 581 0 
L 581 3500 
L 1159 3500 
L 1159 2956 
Q 1341 3275 1631 3429 
Q 1922 3584 2338 3584 
Q 2397 3584 2469 3576 
Q 2541 3569 2628 3553 
L 2631 2963 
z
" transform="scale(0.015625)"/>
         <path id="DejaVuSans-73" d="M 2834 3397 
L 2834 2853 
Q 2591 2978 2328 3040 
Q 2066 3103 1784 3103 
Q 1356 3103 1142 2972 
Q 928 2841 928 2578 
Q 928 2378 1081 2264 
Q 1234 2150 1697 2047 
L 1894 2003 
Q 2506 1872 2764 1633 
Q 3022 1394 3022 966 
Q 3022 478 2636 193 
Q 2250 -91 1575 -91 
Q 1294 -91 989 -36 
Q 684 19 347 128 
L 347 722 
Q 666 556 975 473 
Q 1284 391 1588 391 
Q 1994 391 2212 530 
Q 2431 669 2431 922 
Q 2431 1156 2273 1281 
Q 2116 1406 1581 1522 
L 1381 1569 
Q 847 1681 609 1914 
Q 372 2147 372 2553 
Q 372 3047 722 3315 
Q 1072 3584 1716 3584 
Q 2034 3584 2315 3537 
Q 2597 3491 2834 3397 
z
" transform="scale(0.015625)"/>
         <path id="DejaVuSans-29" d="M 513 4856 
L 1013 4856 
Q 1481 4119 1714 3412 
Q 1947 2706 1947 2009 
Q 1947 1309 1714 600 
Q 1481 -109 1013 -844 
L 513 -844 
Q 928 -128 1133 580 
Q 1338 1288 1338 2009 
Q 1338 2731 1133 3434 
Q 928 4138 513 4856 
z
" transform="scale(0.015625)"/>
        </defs>
        <use xlink:href="#DejaVuSans-74"/>
        <use xlink:href="#DejaVuSans-69" x="39.208984"/>
        <use xlink:href="#DejaVuSans-6d" x="66.992188"/>
        <use xlink:href="#DejaVuSans-65" x="164.404297"/>
        <use xlink:href="#DejaVuSans-20" x="225.927734"/>
        <use xlink:href="#DejaVuSans-61" x="257.714844"/>
        <use xlink:href="#DejaVuSans-67" x="318.994141"/>
        <use xlink:href="#DejaVuSans-6f" x="382.470703"/>
        <use xlink:href="#DejaVuSans-20" x="443.652344"/>
        <use xlink:href="#DejaVuSans-28" x="475.439453"/>
        <use xlink:href="#DejaVuSans-67" x="514.453125"/>
        <use xlink:href="#DejaVuSans-65" x="577.929688"/>
        <use xlink:href="#DejaVuSans-6e" x="639.453125"/>
        <use xlink:href="#DejaVuSans-65" x="702.832031"/>
        <use xlink:href="#DejaVuSans-72" x="764.355469"/>
        <use xlink:href="#DejaVuSans-61" x="805.46875"/>
        <use xlink:href="#DejaVuSans-74" x="866.748047"/>
        <use xlink:href="#DejaVuSans-69" x="905.957031"/>
        <use xlink:href="#DejaVuSans-6f" x="933.740234"/>
        <use xlink:href="#DejaVuSans-6e" x="994.921875"/>
        <use xlink:href="#DejaVuSans-73" x="1058.300781"/>
        <use xlink:href="#DejaVuSans-29" x="1110.400391"/>
       </g>
      </g>
     </g>
     <path d="M 243.762419 128.284547 
L 245.762419 129.284547 
L 245.762419 127.284547 
z
" clip-path="url(#p0d20240a95)" style="fill: #ff7f0e; fill-opacity: 0.5; stroke: #ff7f0e; stroke-opacity: 0.5; stroke-linejoin: miter"/>
     <path d="M 243.762419 84.509362 
L 245.762419 85.509362 
L 245.762419 83.509362 
z
" clip-path="url(#p0d20240a95)" style="fill: #ff7f0e; fill-opacity: 0.5; stroke: #ff7f0e; stroke-opacity: 0.5; stroke-linejoin: miter"/>
     <path d="M 243.762419 94.190114 
L 245.762419 95.190114 
L 245.762419 93.190114 
z
" clip-path="url(#p0d20240a95)" style="fill: #ff7f0e; fill-opacity: 0.5; stroke: #ff7f0e; stroke-opacity: 0.5; stroke-linejoin: miter"/>
     <path d="M 243.762419 152.825058 
L 245.762419 153.825058 
L 245.762419 151.825058 
z
" clip-path="url(#p0d20240a95)" style="fill: #ff7f0e; fill-opacity: 0.5; stroke: #ff7f0e; stroke-opacity: 0.5; stroke-linejoin: miter"/>
     <path d="M 243.762419 76.778555 
L 245.762419 77.778555 
L 245.762419 75.778555 
z
" clip-path="url(#p0d20240a95)" style="fill: #ff7f0e; fill-opacity: 0.5; stroke: #ff7f0e; stroke-opacity: 0.5; stroke-linejoin: miter"/>
     <path d="M 243.762419 111.499243 
L 245.762419 112.499243 
L 245.762419 110.499243 
z
" clip-path="url(#p0d20240a95)" style="fill: #ff7f0e; fill-opacity: 0.5; stroke: #ff7f0e; stroke-opacity: 0.5; stroke-linejoin: miter"/>
     <path d="M 243.762419 137.360142 
L 245.762419 138.360142 
L 245.762419 136.360142 
z
" clip-path="url(#p0d20240a95)" style="fill: #ff7f0e; fill-opacity: 0.5; stroke: #ff7f0e; stroke-opacity: 0.5; stroke-linejoin: miter"/>
     <path d="M 243.762419 81.971034 
L 245.762419 82.971034 
L 245.762419 80.971034 
z
" clip-path="url(#p0d20240a95)" style="fill: #ff7f0e; fill-opacity: 0.5; stroke: #ff7f0e; stroke-opacity: 0.5; stroke-linejoin: miter"/>
     <path d="M 243.762419 103.115935 
L 245.762419 104.115935 
L 245.762419 102.115935 
z
" clip-path="url(#p0d20240a95)" style="fill: #ff7f0e; fill-opacity: 0.5; stroke: #ff7f0e; stroke-opacity: 0.5; stroke-linejoin: miter"/>
     <path d="M 243.762419 162.924263 
L 245.762419 163.924263 
L 245.762419 161.924263 
z
" clip-path="url(#p0d20240a95)" style="fill: #ff7f0e; fill-opacity: 0.5; stroke: #ff7f0e; stroke-opacity: 0.5; stroke-linejoin: miter"/>
     <path d="M 297.618831 124.302037 
L 295.618831 123.302037 
L 295.618831 125.302037 
z
" clip-path="url(#p0d20240a95)" style="fill: #1f77b4; fill-opacity: 0.5; stroke: #1f77b4; stroke-opacity: 0.5; stroke-linejoin: miter"/>
     <path d="M 297.618831 150.37464 
L 295.618831 149.37464 
L 295.618831 151.37464 
z
" clip-path="url(#p0d20240a95)" style="fill: #1f77b4; fill-opacity: 0.5; stroke: #1f77b4; stroke-opacity: 0.5; stroke-linejoin: miter"/>
     <path d="M 297.618831 77.398571 
L 295.618831 76.398571 
L 295.618831 78.398571 
z
" clip-path="url(#p0d20240a95)" style="fill: #1f77b4; fill-opacity: 0.5; stroke: #1f77b4; stroke-opacity: 0.5; stroke-linejoin: miter"/>
     <path d="M 297.618831 134.478745 
L 295.618831 133.478745 
L 295.618831 135.478745 
z
" clip-path="url(#p0d20240a95)" style="fill: #1f77b4; fill-opacity: 0.5; stroke: #1f77b4; stroke-opacity: 0.5; stroke-linejoin: miter"/>
     <path d="M 297.618831 155.545826 
L 295.618831 154.545826 
L 295.618831 156.545826 
z
" clip-path="url(#p0d20240a95)" style="fill: #1f77b4; fill-opacity: 0.5; stroke: #1f77b4; stroke-opacity: 0.5; stroke-linejoin: miter"/>
     <path d="M 297.618831 139.495537 
L 295.618831 138.495537 
L 295.618831 140.495537 
z
" clip-path="url(#p0d20240a95)" style="fill: #1f77b4; fill-opacity: 0.5; stroke: #1f77b4; stroke-opacity: 0.5; stroke-linejoin: miter"/>
     <path d="M 297.618831 92.230387 
L 295.618831 91.230387 
L 295.618831 93.230387 
z
" clip-path="url(#p0d20240a95)" style="fill: #1f77b4; fill-opacity: 0.5; stroke: #1f77b4; stroke-opacity: 0.5; stroke-linejoin: miter"/>
     <path d="M 297.618831 149.747348 
L 295.618831 148.747348 
L 295.618831 150.747348 
z
" clip-path="url(#p0d20240a95)" style="fill: #1f77b4; fill-opacity: 0.5; stroke: #1f77b4; stroke-opacity: 0.5; stroke-linejoin: miter"/>
     <path d="M 297.618831 94.292461 
L 295.618831 93.292461 
L 295.618831 95.292461 
z
" clip-path="url(#p0d20240a95)" style="fill: #1f77b4; fill-opacity: 0.5; stroke: #1f77b4; stroke-opacity: 0.5; stroke-linejoin: miter"/>
     <path d="M 297.618831 97.939173 
L 295.618831 96.939173 
L 295.618831 98.939173 
z
" clip-path="url(#p0d20240a95)" style="fill: #1f77b4; fill-opacity: 0.5; stroke: #1f77b4; stroke-opacity: 0.5; stroke-linejoin: miter"/>
     <path d="M 243.762419 216.374686 
L 245.762419 217.374686 
L 245.762419 215.374686 
z
" clip-path="url(#p0d20240a95)" style="fill: #ff7f0e; fill-opacity: 0.5; stroke: #ff7f0e; stroke-opacity: 0.5; stroke-linejoin: miter"/>
     <path d="M 243.762419 246.800763 
L 245.762419 247.800763 
L 245.762419 245.800763 
z
" clip-path="url(#p0d20240a95)" style="fill: #ff7f0e; fill-opacity: 0.5; stroke: #ff7f0e; stroke-opacity: 0.5; stroke-linejoin: miter"/>
     <path d="M 243.762419 202.060483 
L 245.762419 203.060483 
L 245.762419 201.060483 
z
" clip-path="url(#p0d20240a95)" style="fill: #ff7f0e; fill-opacity: 0.5; stroke: #ff7f0e; stroke-opacity: 0.5; stroke-linejoin: miter"/>
     <path d="M 243.762419 207.57001 
L 245.762419 208.57001 
L 245.762419 206.57001 
z
" clip-path="url(#p0d20240a95)" style="fill: #ff7f0e; fill-opacity: 0.5; stroke: #ff7f0e; stroke-opacity: 0.5; stroke-linejoin: miter"/>
     <path d="M 243.762419 202.25178 
L 245.762419 203.25178 
L 245.762419 201.25178 
z
" clip-path="url(#p0d20240a95)" style="fill: #ff7f0e; fill-opacity: 0.5; stroke: #ff7f0e; stroke-opacity: 0.5; stroke-linejoin: miter"/>
     <path d="M 243.762419 224.647848 
L 245.762419 225.647848 
L 245.762419 223.647848 
z
" clip-path="url(#p0d20240a95)" style="fill: #ff7f0e; fill-opacity: 0.5; stroke: #ff7f0e; stroke-opacity: 0.5; stroke-linejoin: miter"/>
     <path d="M 243.762419 241.78381 
L 245.762419 242.78381 
L 245.762419 240.78381 
z
" clip-path="url(#p0d20240a95)" style="fill: #ff7f0e; fill-opacity: 0.5; stroke: #ff7f0e; stroke-opacity: 0.5; stroke-linejoin: miter"/>
     <path d="M 243.762419 214.978127 
L 245.762419 215.978127 
L 245.762419 213.978127 
z
" clip-path="url(#p0d20240a95)" style="fill: #ff7f0e; fill-opacity: 0.5; stroke: #ff7f0e; stroke-opacity: 0.5; stroke-linejoin: miter"/>
     <path d="M 243.762419 258.402528 
L 245.762419 259.402528 
L 245.762419 257.402528 
z
" clip-path="url(#p0d20240a95)" style="fill: #ff7f0e; fill-opacity: 0.5; stroke: #ff7f0e; stroke-opacity: 0.5; stroke-linejoin: miter"/>
     <path d="M 243.762419 231.259903 
L 245.762419 232.259903 
L 245.762419 230.259903 
z
" clip-path="url(#p0d20240a95)" style="fill: #ff7f0e; fill-opacity: 0.5; stroke: #ff7f0e; stroke-opacity: 0.5; stroke-linejoin: miter"/>
     <path d="M 297.618831 214.084506 
L 295.618831 213.084506 
L 295.618831 215.084506 
z
" clip-path="url(#p0d20240a95)" style="fill: #1f77b4; fill-opacity: 0.5; stroke: #1f77b4; stroke-opacity: 0.5; stroke-linejoin: miter"/>
     <path d="M 297.618831 242.202601 
L 295.618831 241.202601 
L 295.618831 243.202601 
z
" clip-path="url(#p0d20240a95)" style="fill: #1f77b4; fill-opacity: 0.5; stroke: #1f77b4; stroke-opacity: 0.5; stroke-linejoin: miter"/>
     <path d="M 297.618831 225.124727 
L 295.618831 224.124727 
L 295.618831 226.124727 
z
" clip-path="url(#p0d20240a95)" style="fill: #1f77b4; fill-opacity: 0.5; stroke: #1f77b4; stroke-opacity: 0.5; stroke-linejoin: miter"/>
     <path d="M 297.618831 212.522976 
L 295.618831 211.522976 
L 295.618831 213.522976 
z
" clip-path="url(#p0d20240a95)" style="fill: #1f77b4; fill-opacity: 0.5; stroke: #1f77b4; stroke-opacity: 0.5; stroke-linejoin: miter"/>
     <path d="M 297.618831 210.591081 
L 295.618831 209.591081 
L 295.618831 211.591081 
z
" clip-path="url(#p0d20240a95)" style="fill: #1f77b4; fill-opacity: 0.5; stroke: #1f77b4; stroke-opacity: 0.5; stroke-linejoin: miter"/>
     <path d="M 297.618831 179.585766 
L 295.618831 178.585766 
L 295.618831 180.585766 
z
" clip-path="url(#p0d20240a95)" style="fill: #1f77b4; fill-opacity: 0.5; stroke: #1f77b4; stroke-opacity: 0.5; stroke-linejoin: miter"/>
     <path d="M 297.618831 188.614025 
L 295.618831 187.614025 
L 295.618831 189.614025 
z
" clip-path="url(#p0d20240a95)" style="fill: #1f77b4; fill-opacity: 0.5; stroke: #1f77b4; stroke-opacity: 0.5; stroke-linejoin: miter"/>
     <path d="M 297.618831 259.000233 
L 295.618831 258.000233 
L 295.618831 260.000233 
z
" clip-path="url(#p0d20240a95)" style="fill: #1f77b4; fill-opacity: 0.5; stroke: #1f77b4; stroke-opacity: 0.5; stroke-linejoin: miter"/>
     <path d="M 297.618831 181.909348 
L 295.618831 180.909348 
L 295.618831 182.909348 
z
" clip-path="url(#p0d20240a95)" style="fill: #1f77b4; fill-opacity: 0.5; stroke: #1f77b4; stroke-opacity: 0.5; stroke-linejoin: miter"/>
     <path d="M 297.618831 245.168482 
L 295.618831 244.168482 
L 295.618831 246.168482 
z
" clip-path="url(#p0d20240a95)" style="fill: #1f77b4; fill-opacity: 0.5; stroke: #1f77b4; stroke-opacity: 0.5; stroke-linejoin: miter"/>
     <g id="patch_5">
      <path d="M 43.78125 260.421875 
L 43.78125 22.318125 
" style="fill: none; stroke: #000000; stroke-width: 0.8; stroke-linejoin: miter; stroke-linecap: square"/>
     </g>
     <g id="text_10">
      <!-- defaults_symmetric_migration_changing_rate.yaml -->
      <g transform="translate(117.1525 16.318125)scale(0.12 -0.12)">
       <defs>
        <path id="DejaVuSans-66" d="M 2375 4863 
L 2375 4384 
L 1825 4384 
Q 1516 4384 1395 4259 
Q 1275 4134 1275 3809 
L 1275 3500 
L 2222 3500 
L 2222 3053 
L 1275 3053 
L 1275 0 
L 697 0 
L 697 3053 
L 147 3053 
L 147 3500 
L 697 3500 
L 697 3744 
Q 697 4328 969 4595 
Q 1241 4863 1831 4863 
L 2375 4863 
z
" transform="scale(0.015625)"/>
        <path id="DejaVuSans-75" d="M 544 1381 
L 544 3500 
L 1119 3500 
L 1119 1403 
Q 1119 906 1312 657 
Q 1506 409 1894 409 
Q 2359 409 2629 706 
Q 2900 1003 2900 1516 
L 2900 3500 
L 3475 3500 
L 3475 0 
L 2900 0 
L 2900 538 
Q 2691 219 2414 64 
Q 2138 -91 1772 -91 
Q 1169 -91 856 284 
Q 544 659 544 1381 
z
M 1991 3584 
L 1991 3584 
z
" transform="scale(0.015625)"/>
        <path id="DejaVuSans-6c" d="M 603 4863 
L 1178 4863 
L 1178 0 
L 603 0 
L 603 4863 
z
" transform="scale(0.015625)"/>
        <path id="DejaVuSans-5f" d="M 3263 -1063 
L 3263 -1509 
L -63 -1509 
L -63 -1063 
L 3263 -1063 
z
" transform="scale(0.015625)"/>
        <path id="DejaVuSans-79" d="M 2059 -325 
Q 1816 -950 1584 -1140 
Q 1353 -1331 966 -1331 
L 506 -1331 
L 506 -850 
L 844 -850 
Q 1081 -850 1212 -737 
Q 1344 -625 1503 -206 
L 1606 56 
L 191 3500 
L 800 3500 
L 1894 763 
L 2988 3500 
L 3597 3500 
L 2059 -325 
z
" transform="scale(0.015625)"/>
        <path id="DejaVuSans-63" d="M 3122 3366 
L 3122 2828 
Q 2878 2963 2633 3030 
Q 2388 3097 2138 3097 
Q 1578 3097 1268 2742 
Q 959 2388 959 1747 
Q 959 1106 1268 751 
Q 1578 397 2138 397 
Q 2388 397 2633 464 
Q 2878 531 3122 666 
L 3122 134 
Q 2881 22 2623 -34 
Q 2366 -91 2075 -91 
Q 1284 -91 818 406 
Q 353 903 353 1747 
Q 353 2603 823 3093 
Q 1294 3584 2113 3584 
Q 2378 3584 2631 3529 
Q 2884 3475 3122 3366 
z
" transform="scale(0.015625)"/>
        <path id="DejaVuSans-68" d="M 3513 2113 
L 3513 0 
L 2938 0 
L 2938 2094 
Q 2938 2591 2744 2837 
Q 2550 3084 2163 3084 
Q 1697 3084 1428 2787 
Q 1159 2491 1159 1978 
L 1159 0 
L 581 0 
L 581 4863 
L 1159 4863 
L 1159 2956 
Q 1366 3272 1645 3428 
Q 1925 3584 2291 3584 
Q 2894 3584 3203 3211 
Q 3513 2838 3513 2113 
z
" transform="scale(0.015625)"/>
       </defs>
       <use xlink:href="#DejaVuSans-64"/>
       <use xlink:href="#DejaVuSans-65" x="63.476562"/>
       <use xlink:href="#DejaVuSans-66" x="125"/>
       <use xlink:href="#DejaVuSans-61" x="160.205078"/>
       <use xlink:href="#DejaVuSans-75" x="221.484375"/>
       <use xlink:href="#DejaVuSans-6c" x="284.863281"/>
       <use xlink:href="#DejaVuSans-74" x="312.646484"/>
       <use xlink:href="#DejaVuSans-73" x="351.855469"/>
       <use xlink:href="#DejaVuSans-5f" x="403.955078"/>
       <use xlink:href="#DejaVuSans-73" x="453.955078"/>
       <use xlink:href="#DejaVuSans-79" x="506.054688"/>
       <use xlink:href="#DejaVuSans-6d" x="565.234375"/>
       <use xlink:href="#DejaVuSans-6d" x="662.646484"/>
       <use xlink:href="#DejaVuSans-65" x="760.058594"/>
       <use xlink:href="#DejaVuSans-74" x="821.582031"/>
       <use xlink:href="#DejaVuSans-72" x="860.791016"/>
       <use xlink:href="#DejaVuSans-69" x="901.904297"/>
       <use xlink:href="#DejaVuSans-63" x="929.6875"/>
       <use xlink:href="#DejaVuSans-5f" x="984.667969"/>
       <use xlink:href="#DejaVuSans-6d" x="1034.667969"/>
       <use xlink:href="#DejaVuSans-69" x="1132.080078"/>
       <use xlink:href="#DejaVuSans-67" x="1159.863281"/>
       <use xlink:href="#DejaVuSans-72" x="1223.339844"/>
       <use xlink:href="#DejaVuSans-61" x="1264.453125"/>
       <use xlink:href="#DejaVuSans-74" x="1325.732422"/>
       <use xlink:href="#DejaVuSans-69" x="1364.941406"/>
       <use xlink:href="#DejaVuSans-6f" x="1392.724609"/>
       <use xlink:href="#DejaVuSans-6e" x="1453.90625"/>
       <use xlink:href="#DejaVuSans-5f" x="1517.285156"/>
       <use xlink:href="#DejaVuSans-63" x="1567.285156"/>
       <use xlink:href="#DejaVuSans-68" x="1622.265625"/>
       <use xlink:href="#DejaVuSans-61" x="1685.644531"/>
       <use xlink:href="#DejaVuSans-6e" x="1746.923828"/>
       <use xlink:href="#DejaVuSans-67" x="1810.302734"/>
       <use xlink:href="#DejaVuSans-69" x="1873.779297"/>
       <use xlink:href="#DejaVuSans-6e" x="1901.5625"/>
       <use xlink:href="#DejaVuSans-67" x="1964.941406"/>
       <use xlink:href="#DejaVuSans-5f" x="2028.417969"/>
       <use xlink:href="#DejaVuSans-72" x="2078.417969"/>
       <use xlink:href="#DejaVuSans-61" x="2119.53125"/>
       <use xlink:href="#DejaVuSans-74" x="2180.810547"/>
       <use xlink:href="#DejaVuSans-65" x="2220.019531"/>
       <use xlink:href="#DejaVuSans-2e" x="2281.542969"/>
       <use xlink:href="#DejaVuSans-79" x="2313.330078"/>
       <use xlink:href="#DejaVuSans-61" x="2372.509766"/>
       <use xlink:href="#DejaVuSans-6d" x="2433.789062"/>
       <use xlink:href="#DejaVuSans-6c" x="2531.201172"/>
      </g>
     </g>
    </g>
   </g>
   <defs>
    <clipPath id="p0d20240a95">
     <rect x="43.78125" y="22.318125" width="453.81875" height="238.10375"/>
    </clipPath>
   </defs>
  </g>
 </g>
</svg>
