<?xml version="1.0" encoding="utf-8" standalone="no"?>
<!DOCTYPE svg PUBLIC "-//W3C//DTD SVG 1.1//EN"
  "http://www.w3.org/Graphics/SVG/1.1/DTD/svg11.dtd">
<svg xmlns:xlink="http://www.w3.org/1999/xlink" width="504.8pt" height="280.8pt" viewBox="0 0 504.8 280.8" xmlns="http://www.w3.org/2000/svg" version="1.1">
 <metadata>
  <rdf:RDF xmlns:dc="http://purl.org/dc/elements/1.1/" xmlns:cc="http://creativecommons.org/ns#" xmlns:rdf="http://www.w3.org/1999/02/22-rdf-syntax-ns#">
   <cc:Work>
    <dc:type rdf:resource="http://purl.org/dc/dcmitype/StillImage"/>
    <dc:date>2022-08-15T08:26:03.097075</dc:date>
    <dc:format>image/svg+xml</dc:format>
    <dc:creator>
     <cc:Agent>
      <dc:title>Matplotlib v3.5.3, https://matplotlib.org/</dc:title>
     </cc:Agent>
    </dc:creator>
   </cc:Work>
  </rdf:RDF>
 </metadata>
 <defs>
  <style type="text/css">*{stroke-linejoin: round; stroke-linecap: butt}</style>
 </defs>
 <g id="figure_1">
  <g id="patch_1">
   <path d="M 0 280.8 
L 504.8 280.8 
L 504.8 0 
L 0 0 
L 0 280.8 
z
" style="fill: none"/>
  </g>
  <g id="axes_1">
   <g id="patch_2">
    <path d="M 43.78125 260.421875 
L 497.6 260.421875 
L 497.6 22.318125 
L 43.78125 22.318125 
z
" style="fill: #ffffff"/>
   </g>
   <path d="M 296.618831 123.847606 
L 295.618831 123.816169 
L 294.618831 123.779229 
L 293.618831 123.681482 
L 292.618831 123.648961 
L 291.618831 123.575336 
L 290.618831 123.53677 
L 289.618831 123.501357 
L 288.618831 123.443717 
L 287.618831 123.373331 
L 286.618831 123.321367 
L 285.618831 123.262277 
L 284.618831 123.173956 
L 283.618831 123.127812 
L 282.618831 123.085401 
L 281.618831 123.054908 
L 280.618831 123.028863 
L 279.618831 123.007663 
L 278.618831 122.953362 
L 277.618831 122.925425 
L 276.618831 122.895701 
L 275.618831 122.870306 
L 274.618831 122.859105 
L 273.618831 122.848981 
L 272.618831 122.849186 
L 271.618831 122.858696 
L 270.618831 122.870349 
L 269.618831 122.901379 
L 268.618831 122.912546 
L 267.618831 122.942664 
L 266.618831 123.002441 
L 265.618831 123.039632 
L 264.618831 123.078729 
L 263.618831 123.121168 
L 262.618831 123.153933 
L 261.618831 123.22136 
L 260.618831 123.260486 
L 259.618831 123.30316 
L 258.618831 123.373741 
L 257.618831 123.410132 
L 256.618831 123.468535 
L 255.618831 123.579487 
L 254.618831 123.650146 
L 253.618831 123.763086 
L 252.618831 123.808858 
L 251.618831 123.870142 
L 250.618831 123.918641 
L 249.618831 123.999464 
L 248.618831 124.117983 
L 247.618831 124.188193 
L 246.618831 124.271456 
L 244.762419 124.304597 
" clip-path="url(#p63db788af6)" style="fill: none; stroke: #ff7f0e; stroke-opacity: 0.5; stroke-width: 0.2; stroke-linecap: square"/>
   <path d="M 296.618831 138.965723 
L 295.618831 138.934286 
L 294.618831 138.897346 
L 293.618831 138.799599 
L 292.618831 138.767078 
L 291.618831 138.693453 
L 290.618831 138.654887 
L 289.618831 138.619474 
L 288.618831 138.561834 
L 287.618831 138.491448 
L 286.618831 138.439484 
L 285.618831 138.380394 
L 284.618831 138.292073 
L 283.618831 138.245929 
L 282.618831 138.203518 
L 281.618831 138.173025 
L 280.618831 138.14698 
L 279.618831 138.12578 
L 278.618831 138.071479 
L 277.618831 138.043542 
L 276.618831 138.013818 
L 275.618831 137.988423 
L 274.618831 137.977222 
L 273.618831 137.967098 
L 272.618831 137.967303 
L 271.618831 137.976813 
L 270.618831 137.988466 
L 269.618831 138.019496 
L 268.618831 138.030663 
L 267.618831 138.060781 
L 266.618831 138.120558 
L 265.618831 138.157749 
L 264.618831 138.196846 
L 263.618831 138.239285 
L 262.618831 138.27205 
L 261.618831 138.339477 
L 260.618831 138.378603 
L 259.618831 138.421277 
L 258.618831 138.491858 
L 257.618831 138.528249 
L 256.618831 138.586652 
L 255.618831 138.697604 
L 254.618831 138.768263 
L 253.618831 138.881203 
L 252.618831 138.926975 
L 251.618831 138.988259 
L 250.618831 139.036758 
L 249.618831 139.117581 
L 248.618831 139.2361 
L 247.618831 139.30631 
L 246.618831 139.389573 
L 244.762419 139.422715 
" clip-path="url(#p63db788af6)" style="fill: none; stroke: #ff7f0e; stroke-opacity: 0.5; stroke-width: 0.2; stroke-linecap: square"/>
   <path d="M 296.618831 123.127536 
L 295.618831 123.0961 
L 294.618831 123.05916 
L 293.618831 122.961413 
L 292.618831 122.928891 
L 291.618831 122.855267 
L 290.618831 122.816701 
L 289.618831 122.781288 
L 288.618831 122.723648 
L 287.618831 122.653262 
L 286.618831 122.601298 
L 285.618831 122.542208 
L 284.618831 122.453887 
L 283.618831 122.407743 
L 282.618831 122.365332 
L 281.618831 122.334839 
L 280.618831 122.308794 
L 279.618831 122.287594 
L 278.618831 122.233293 
L 277.618831 122.205355 
L 276.618831 122.175631 
L 275.618831 122.150237 
L 274.618831 122.139036 
L 273.618831 122.128912 
L 272.618831 122.129117 
L 271.618831 122.138626 
L 270.618831 122.15028 
L 269.618831 122.181309 
L 268.618831 122.192477 
L 267.618831 122.222595 
L 266.618831 122.282372 
L 265.618831 122.319563 
L 264.618831 122.358659 
L 263.618831 122.401099 
L 262.618831 122.433864 
L 261.618831 122.50129 
L 260.618831 122.540416 
L 259.618831 122.583091 
L 258.618831 122.653671 
L 257.618831 122.690062 
L 256.618831 122.748466 
L 255.618831 122.859418 
L 254.618831 122.930076 
L 253.618831 123.043016 
L 252.618831 123.088789 
L 251.618831 123.150072 
L 250.618831 123.198572 
L 249.618831 123.279394 
L 248.618831 123.397913 
L 247.618831 123.468124 
L 246.618831 123.551386 
L 244.762419 123.584528 
" clip-path="url(#p63db788af6)" style="fill: none; stroke: #ff7f0e; stroke-opacity: 0.5; stroke-width: 0.2; stroke-linecap: square"/>
   <path d="M 296.618831 71.055729 
L 295.618831 71.024293 
L 294.618831 70.987353 
L 293.618831 70.889606 
L 292.618831 70.857085 
L 291.618831 70.78346 
L 290.618831 70.744894 
L 289.618831 70.709481 
L 288.618831 70.651841 
L 287.618831 70.581455 
L 286.618831 70.529491 
L 285.618831 70.470401 
L 284.618831 70.38208 
L 283.618831 70.335936 
L 282.618831 70.293525 
L 281.618831 70.263032 
L 280.618831 70.236987 
L 279.618831 70.215787 
L 278.618831 70.161486 
L 277.618831 70.133548 
L 276.618831 70.103824 
L 275.618831 70.07843 
L 274.618831 70.067229 
L 273.618831 70.057105 
L 272.618831 70.05731 
L 271.618831 70.06682 
L 270.618831 70.078473 
L 269.618831 70.109502 
L 268.618831 70.12067 
L 267.618831 70.150788 
L 266.618831 70.210565 
L 265.618831 70.247756 
L 264.618831 70.286852 
L 263.618831 70.329292 
L 262.618831 70.362057 
L 261.618831 70.429484 
L 260.618831 70.46861 
L 259.618831 70.511284 
L 258.618831 70.581865 
L 257.618831 70.618256 
L 256.618831 70.676659 
L 255.618831 70.787611 
L 254.618831 70.85827 
L 253.618831 70.971209 
L 252.618831 71.016982 
L 251.618831 71.078266 
L 250.618831 71.126765 
L 249.618831 71.207588 
L 248.618831 71.326106 
L 247.618831 71.396317 
L 246.618831 71.47958 
L 244.762419 71.512721 
" clip-path="url(#p63db788af6)" style="fill: none; stroke: #ff7f0e; stroke-opacity: 0.5; stroke-width: 0.2; stroke-linecap: square"/>
   <path d="M 296.618831 125.515839 
L 295.618831 125.484403 
L 294.618831 125.447463 
L 293.618831 125.349716 
L 292.618831 125.317195 
L 291.618831 125.24357 
L 290.618831 125.205004 
L 289.618831 125.169591 
L 288.618831 125.111951 
L 287.618831 125.041565 
L 286.618831 124.989601 
L 285.618831 124.930511 
L 284.618831 124.84219 
L 283.618831 124.796046 
L 282.618831 124.753635 
L 281.618831 124.723142 
L 280.618831 124.697097 
L 279.618831 124.675897 
L 278.618831 124.621596 
L 277.618831 124.593658 
L 276.618831 124.563934 
L 275.618831 124.53854 
L 274.618831 124.527339 
L 273.618831 124.517215 
L 272.618831 124.51742 
L 271.618831 124.526929 
L 270.618831 124.538583 
L 269.618831 124.569612 
L 268.618831 124.58078 
L 267.618831 124.610898 
L 266.618831 124.670675 
L 265.618831 124.707866 
L 264.618831 124.746962 
L 263.618831 124.789402 
L 262.618831 124.822167 
L 261.618831 124.889594 
L 260.618831 124.928719 
L 259.618831 124.971394 
L 258.618831 125.041975 
L 257.618831 125.078365 
L 256.618831 125.136769 
L 255.618831 125.247721 
L 254.618831 125.31838 
L 253.618831 125.431319 
L 252.618831 125.477092 
L 251.618831 125.538375 
L 250.618831 125.586875 
L 249.618831 125.667697 
L 248.618831 125.786216 
L 247.618831 125.856427 
L 246.618831 125.93969 
L 244.762419 125.972831 
" clip-path="url(#p63db788af6)" style="fill: none; stroke: #ff7f0e; stroke-opacity: 0.5; stroke-width: 0.2; stroke-linecap: square"/>
   <path d="M 296.618831 142.645477 
L 295.618831 142.614041 
L 294.618831 142.5771 
L 293.618831 142.479354 
L 292.618831 142.446832 
L 291.618831 142.373207 
L 290.618831 142.334642 
L 289.618831 142.299229 
L 288.618831 142.241589 
L 287.618831 142.171202 
L 286.618831 142.119238 
L 285.618831 142.060148 
L 284.618831 141.971827 
L 283.618831 141.925683 
L 282.618831 141.883272 
L 281.618831 141.85278 
L 280.618831 141.826735 
L 279.618831 141.805535 
L 278.618831 141.751233 
L 277.618831 141.723296 
L 276.618831 141.693572 
L 275.618831 141.668177 
L 274.618831 141.656977 
L 273.618831 141.646853 
L 272.618831 141.647057 
L 271.618831 141.656567 
L 270.618831 141.668221 
L 269.618831 141.69925 
L 268.618831 141.710418 
L 267.618831 141.740535 
L 266.618831 141.800312 
L 265.618831 141.837504 
L 264.618831 141.8766 
L 263.618831 141.919039 
L 262.618831 141.951805 
L 261.618831 142.019231 
L 260.618831 142.058357 
L 259.618831 142.101031 
L 258.618831 142.171612 
L 257.618831 142.208003 
L 256.618831 142.266406 
L 255.618831 142.377359 
L 254.618831 142.448017 
L 253.618831 142.560957 
L 252.618831 142.60673 
L 251.618831 142.668013 
L 250.618831 142.716512 
L 249.618831 142.797335 
L 248.618831 142.915854 
L 247.618831 142.986065 
L 246.618831 143.069327 
L 244.762419 143.102469 
" clip-path="url(#p63db788af6)" style="fill: none; stroke: #ff7f0e; stroke-opacity: 0.5; stroke-width: 0.2; stroke-linecap: square"/>
   <path d="M 296.618831 89.011867 
L 295.618831 88.980431 
L 294.618831 88.94349 
L 293.618831 88.845744 
L 292.618831 88.813222 
L 291.618831 88.739597 
L 290.618831 88.701032 
L 289.618831 88.665619 
L 288.618831 88.607979 
L 287.618831 88.537593 
L 286.618831 88.485628 
L 285.618831 88.426539 
L 284.618831 88.338218 
L 283.618831 88.292073 
L 282.618831 88.249662 
L 281.618831 88.21917 
L 280.618831 88.193125 
L 279.618831 88.171925 
L 278.618831 88.117624 
L 277.618831 88.089686 
L 276.618831 88.059962 
L 275.618831 88.034567 
L 274.618831 88.023367 
L 273.618831 88.013243 
L 272.618831 88.013447 
L 271.618831 88.022957 
L 270.618831 88.034611 
L 269.618831 88.06564 
L 268.618831 88.076808 
L 267.618831 88.106925 
L 266.618831 88.166702 
L 265.618831 88.203894 
L 264.618831 88.24299 
L 263.618831 88.28543 
L 262.618831 88.318195 
L 261.618831 88.385621 
L 260.618831 88.424747 
L 259.618831 88.467422 
L 258.618831 88.538002 
L 257.618831 88.574393 
L 256.618831 88.632796 
L 255.618831 88.743749 
L 254.618831 88.814407 
L 253.618831 88.927347 
L 252.618831 88.97312 
L 251.618831 89.034403 
L 250.618831 89.082902 
L 249.618831 89.163725 
L 248.618831 89.282244 
L 247.618831 89.352455 
L 246.618831 89.435717 
L 244.762419 89.468859 
" clip-path="url(#p63db788af6)" style="fill: none; stroke: #ff7f0e; stroke-opacity: 0.5; stroke-width: 0.2; stroke-linecap: square"/>
   <path d="M 296.618831 154.891307 
L 295.618831 154.859871 
L 294.618831 154.82293 
L 293.618831 154.725184 
L 292.618831 154.692662 
L 291.618831 154.619037 
L 290.618831 154.580472 
L 289.618831 154.545059 
L 288.618831 154.487419 
L 287.618831 154.417032 
L 286.618831 154.365068 
L 285.618831 154.305978 
L 284.618831 154.217658 
L 283.618831 154.171513 
L 282.618831 154.129102 
L 281.618831 154.09861 
L 280.618831 154.072565 
L 279.618831 154.051365 
L 278.618831 153.997063 
L 277.618831 153.969126 
L 276.618831 153.939402 
L 275.618831 153.914007 
L 274.618831 153.902807 
L 273.618831 153.892683 
L 272.618831 153.892887 
L 271.618831 153.902397 
L 270.618831 153.914051 
L 269.618831 153.94508 
L 268.618831 153.956248 
L 267.618831 153.986365 
L 266.618831 154.046142 
L 265.618831 154.083334 
L 264.618831 154.12243 
L 263.618831 154.164869 
L 262.618831 154.197635 
L 261.618831 154.265061 
L 260.618831 154.304187 
L 259.618831 154.346861 
L 258.618831 154.417442 
L 257.618831 154.453833 
L 256.618831 154.512236 
L 255.618831 154.623189 
L 254.618831 154.693847 
L 253.618831 154.806787 
L 252.618831 154.85256 
L 251.618831 154.913843 
L 250.618831 154.962342 
L 249.618831 155.043165 
L 248.618831 155.161684 
L 247.618831 155.231895 
L 246.618831 155.315157 
L 244.762419 155.348299 
" clip-path="url(#p63db788af6)" style="fill: none; stroke: #ff7f0e; stroke-opacity: 0.5; stroke-width: 0.2; stroke-linecap: square"/>
   <path d="M 296.618831 162.835154 
L 295.618831 162.803718 
L 294.618831 162.766778 
L 293.618831 162.669031 
L 292.618831 162.63651 
L 291.618831 162.562885 
L 290.618831 162.524319 
L 289.618831 162.488906 
L 288.618831 162.431266 
L 287.618831 162.36088 
L 286.618831 162.308916 
L 285.618831 162.249826 
L 284.618831 162.161505 
L 283.618831 162.115361 
L 282.618831 162.07295 
L 281.618831 162.042457 
L 280.618831 162.016412 
L 279.618831 161.995212 
L 278.618831 161.940911 
L 277.618831 161.912973 
L 276.618831 161.883249 
L 275.618831 161.857855 
L 274.618831 161.846654 
L 273.618831 161.83653 
L 272.618831 161.836735 
L 271.618831 161.846245 
L 270.618831 161.857898 
L 269.618831 161.888927 
L 268.618831 161.900095 
L 267.618831 161.930213 
L 266.618831 161.98999 
L 265.618831 162.027181 
L 264.618831 162.066277 
L 263.618831 162.108717 
L 262.618831 162.141482 
L 261.618831 162.208909 
L 260.618831 162.248034 
L 259.618831 162.290709 
L 258.618831 162.36129 
L 257.618831 162.39768 
L 256.618831 162.456084 
L 255.618831 162.567036 
L 254.618831 162.637695 
L 253.618831 162.750634 
L 252.618831 162.796407 
L 251.618831 162.857691 
L 250.618831 162.90619 
L 249.618831 162.987013 
L 248.618831 163.105531 
L 247.618831 163.175742 
L 246.618831 163.259005 
L 244.762419 163.292146 
" clip-path="url(#p63db788af6)" style="fill: none; stroke: #ff7f0e; stroke-opacity: 0.5; stroke-width: 0.2; stroke-linecap: square"/>
   <path d="M 296.618831 129.670865 
L 295.618831 129.639429 
L 294.618831 129.602489 
L 293.618831 129.504742 
L 292.618831 129.47222 
L 291.618831 129.398596 
L 290.618831 129.36003 
L 289.618831 129.324617 
L 288.618831 129.266977 
L 287.618831 129.196591 
L 286.618831 129.144627 
L 285.618831 129.085537 
L 284.618831 128.997216 
L 283.618831 128.951072 
L 282.618831 128.908661 
L 281.618831 128.878168 
L 280.618831 128.852123 
L 279.618831 128.830923 
L 278.618831 128.776622 
L 277.618831 128.748684 
L 276.618831 128.71896 
L 275.618831 128.693566 
L 274.618831 128.682365 
L 273.618831 128.672241 
L 272.618831 128.672446 
L 271.618831 128.681955 
L 270.618831 128.693609 
L 269.618831 128.724638 
L 268.618831 128.735806 
L 267.618831 128.765924 
L 266.618831 128.825701 
L 265.618831 128.862892 
L 264.618831 128.901988 
L 263.618831 128.944428 
L 262.618831 128.977193 
L 261.618831 129.04462 
L 260.618831 129.083745 
L 259.618831 129.12642 
L 258.618831 129.197001 
L 257.618831 129.233391 
L 256.618831 129.291795 
L 255.618831 129.402747 
L 254.618831 129.473406 
L 253.618831 129.586345 
L 252.618831 129.632118 
L 251.618831 129.693401 
L 250.618831 129.741901 
L 249.618831 129.822723 
L 248.618831 129.941242 
L 247.618831 130.011453 
L 246.618831 130.094715 
L 244.762419 130.127857 
" clip-path="url(#p63db788af6)" style="fill: none; stroke: #ff7f0e; stroke-opacity: 0.5; stroke-width: 0.2; stroke-linecap: square"/>
   <path d="M 244.762419 127.222446 
L 245.762419 127.253882 
L 246.762419 127.290823 
L 247.762419 127.388569 
L 248.762419 127.421091 
L 249.762419 127.494715 
L 250.762419 127.533281 
L 251.762419 127.568694 
L 252.762419 127.626334 
L 253.762419 127.69672 
L 254.762419 127.748685 
L 255.762419 127.807774 
L 256.762419 127.896095 
L 257.762419 127.94224 
L 258.762419 127.98465 
L 259.762419 128.015143 
L 260.762419 128.041188 
L 261.762419 128.062388 
L 262.762419 128.116689 
L 263.762419 128.144627 
L 264.762419 128.174351 
L 265.762419 128.199746 
L 266.762419 128.210946 
L 267.762419 128.22107 
L 268.762419 128.220866 
L 269.762419 128.211356 
L 270.762419 128.199702 
L 271.762419 128.168673 
L 272.762419 128.157505 
L 273.762419 128.127387 
L 274.762419 128.067611 
L 275.762419 128.030419 
L 276.762419 127.991323 
L 277.762419 127.948883 
L 278.762419 127.916118 
L 279.762419 127.848692 
L 280.762419 127.809566 
L 281.762419 127.766891 
L 282.762419 127.696311 
L 283.762419 127.65992 
L 284.762419 127.601517 
L 285.762419 127.490564 
L 286.762419 127.419906 
L 287.762419 127.306966 
L 288.762419 127.261193 
L 289.762419 127.19991 
L 290.762419 127.15141 
L 291.762419 127.070588 
L 292.762419 126.952069 
L 293.762419 126.881858 
L 294.762419 126.798596 
L 296.618831 126.765454 
" clip-path="url(#p63db788af6)" style="fill: none; stroke: #1f77b4; stroke-opacity: 0.5; stroke-width: 0.2; stroke-linecap: square"/>
   <path d="M 244.762419 159.756323 
L 245.762419 159.787759 
L 246.762419 159.8247 
L 247.762419 159.922446 
L 248.762419 159.954968 
L 249.762419 160.028593 
L 250.762419 160.067158 
L 251.762419 160.102571 
L 252.762419 160.160211 
L 253.762419 160.230597 
L 254.762419 160.282562 
L 255.762419 160.341651 
L 256.762419 160.429972 
L 257.762419 160.476117 
L 258.762419 160.518528 
L 259.762419 160.54902 
L 260.762419 160.575065 
L 261.762419 160.596265 
L 262.762419 160.650566 
L 263.762419 160.678504 
L 264.762419 160.708228 
L 265.762419 160.733623 
L 266.762419 160.744823 
L 267.762419 160.754947 
L 268.762419 160.754743 
L 269.762419 160.745233 
L 270.762419 160.733579 
L 271.762419 160.70255 
L 272.762419 160.691382 
L 273.762419 160.661265 
L 274.762419 160.601488 
L 275.762419 160.564296 
L 276.762419 160.5252 
L 277.762419 160.48276 
L 278.762419 160.449995 
L 279.762419 160.382569 
L 280.762419 160.343443 
L 281.762419 160.300768 
L 282.762419 160.230188 
L 283.762419 160.193797 
L 284.762419 160.135394 
L 285.762419 160.024441 
L 286.762419 159.953783 
L 287.762419 159.840843 
L 288.762419 159.79507 
L 289.762419 159.733787 
L 290.762419 159.685288 
L 291.762419 159.604465 
L 292.762419 159.485946 
L 293.762419 159.415735 
L 294.762419 159.332473 
L 296.618831 159.299331 
" clip-path="url(#p63db788af6)" style="fill: none; stroke: #1f77b4; stroke-opacity: 0.5; stroke-width: 0.2; stroke-linecap: square"/>
   <path d="M 244.762419 75.410426 
L 245.762419 75.441862 
L 246.762419 75.478803 
L 247.762419 75.576549 
L 248.762419 75.609071 
L 249.762419 75.682695 
L 250.762419 75.721261 
L 251.762419 75.756674 
L 252.762419 75.814314 
L 253.762419 75.8847 
L 254.762419 75.936664 
L 255.762419 75.995754 
L 256.762419 76.084075 
L 257.762419 76.130219 
L 258.762419 76.17263 
L 259.762419 76.203123 
L 260.762419 76.229168 
L 261.762419 76.250368 
L 262.762419 76.304669 
L 263.762419 76.332607 
L 264.762419 76.362331 
L 265.762419 76.387726 
L 266.762419 76.398926 
L 267.762419 76.40905 
L 268.762419 76.408846 
L 269.762419 76.399336 
L 270.762419 76.387682 
L 271.762419 76.356653 
L 272.762419 76.345485 
L 273.762419 76.315367 
L 274.762419 76.25559 
L 275.762419 76.218399 
L 276.762419 76.179303 
L 277.762419 76.136863 
L 278.762419 76.104098 
L 279.762419 76.036672 
L 280.762419 75.997546 
L 281.762419 75.954871 
L 282.762419 75.884291 
L 283.762419 75.8479 
L 284.762419 75.789497 
L 285.762419 75.678544 
L 286.762419 75.607886 
L 287.762419 75.494946 
L 288.762419 75.449173 
L 289.762419 75.38789 
L 290.762419 75.33939 
L 291.762419 75.258568 
L 292.762419 75.140049 
L 293.762419 75.069838 
L 294.762419 74.986576 
L 296.618831 74.953434 
" clip-path="url(#p63db788af6)" style="fill: none; stroke: #1f77b4; stroke-opacity: 0.5; stroke-width: 0.2; stroke-linecap: square"/>
   <path d="M 244.762419 84.330253 
L 245.762419 84.361689 
L 246.762419 84.398629 
L 247.762419 84.496376 
L 248.762419 84.528898 
L 249.762419 84.602522 
L 250.762419 84.641088 
L 251.762419 84.676501 
L 252.762419 84.734141 
L 253.762419 84.804527 
L 254.762419 84.856491 
L 255.762419 84.915581 
L 256.762419 85.003902 
L 257.762419 85.050046 
L 258.762419 85.092457 
L 259.762419 85.12295 
L 260.762419 85.148995 
L 261.762419 85.170195 
L 262.762419 85.224496 
L 263.762419 85.252434 
L 264.762419 85.282158 
L 265.762419 85.307552 
L 266.762419 85.318753 
L 267.762419 85.328877 
L 268.762419 85.328672 
L 269.762419 85.319163 
L 270.762419 85.307509 
L 271.762419 85.27648 
L 272.762419 85.265312 
L 273.762419 85.235194 
L 274.762419 85.175417 
L 275.762419 85.138226 
L 276.762419 85.09913 
L 277.762419 85.05669 
L 278.762419 85.023925 
L 279.762419 84.956499 
L 280.762419 84.917373 
L 281.762419 84.874698 
L 282.762419 84.804117 
L 283.762419 84.767727 
L 284.762419 84.709323 
L 285.762419 84.598371 
L 286.762419 84.527713 
L 287.762419 84.414773 
L 288.762419 84.369 
L 289.762419 84.307717 
L 290.762419 84.259217 
L 291.762419 84.178395 
L 292.762419 84.059876 
L 293.762419 83.989665 
L 294.762419 83.906403 
L 296.618831 83.873261 
" clip-path="url(#p63db788af6)" style="fill: none; stroke: #1f77b4; stroke-opacity: 0.5; stroke-width: 0.2; stroke-linecap: square"/>
   <path d="M 244.762419 91.305395 
L 245.762419 91.336831 
L 246.762419 91.373771 
L 247.762419 91.471518 
L 248.762419 91.50404 
L 249.762419 91.577664 
L 250.762419 91.61623 
L 251.762419 91.651643 
L 252.762419 91.709283 
L 253.762419 91.779669 
L 254.762419 91.831633 
L 255.762419 91.890723 
L 256.762419 91.979044 
L 257.762419 92.025188 
L 258.762419 92.067599 
L 259.762419 92.098092 
L 260.762419 92.124137 
L 261.762419 92.145337 
L 262.762419 92.199638 
L 263.762419 92.227576 
L 264.762419 92.2573 
L 265.762419 92.282694 
L 266.762419 92.293895 
L 267.762419 92.304019 
L 268.762419 92.303814 
L 269.762419 92.294305 
L 270.762419 92.282651 
L 271.762419 92.251622 
L 272.762419 92.240454 
L 273.762419 92.210336 
L 274.762419 92.150559 
L 275.762419 92.113368 
L 276.762419 92.074272 
L 277.762419 92.031832 
L 278.762419 91.999067 
L 279.762419 91.931641 
L 280.762419 91.892515 
L 281.762419 91.84984 
L 282.762419 91.779259 
L 283.762419 91.742869 
L 284.762419 91.684465 
L 285.762419 91.573513 
L 286.762419 91.502855 
L 287.762419 91.389915 
L 288.762419 91.344142 
L 289.762419 91.282859 
L 290.762419 91.234359 
L 291.762419 91.153537 
L 292.762419 91.035018 
L 293.762419 90.964807 
L 294.762419 90.881545 
L 296.618831 90.848403 
" clip-path="url(#p63db788af6)" style="fill: none; stroke: #1f77b4; stroke-opacity: 0.5; stroke-width: 0.2; stroke-linecap: square"/>
   <path d="M 244.762419 152.618547 
L 245.762419 152.649984 
L 246.762419 152.686924 
L 247.762419 152.784671 
L 248.762419 152.817192 
L 249.762419 152.890817 
L 250.762419 152.929382 
L 251.762419 152.964796 
L 252.762419 153.022436 
L 253.762419 153.092822 
L 254.762419 153.144786 
L 255.762419 153.203876 
L 256.762419 153.292197 
L 257.762419 153.338341 
L 258.762419 153.380752 
L 259.762419 153.411245 
L 260.762419 153.43729 
L 261.762419 153.45849 
L 262.762419 153.512791 
L 263.762419 153.540728 
L 264.762419 153.570452 
L 265.762419 153.595847 
L 266.762419 153.607047 
L 267.762419 153.617171 
L 268.762419 153.616967 
L 269.762419 153.607457 
L 270.762419 153.595804 
L 271.762419 153.564774 
L 272.762419 153.553606 
L 273.762419 153.523489 
L 274.762419 153.463712 
L 275.762419 153.42652 
L 276.762419 153.387424 
L 277.762419 153.344985 
L 278.762419 153.31222 
L 279.762419 153.244793 
L 280.762419 153.205667 
L 281.762419 153.162993 
L 282.762419 153.092412 
L 283.762419 153.056021 
L 284.762419 152.997618 
L 285.762419 152.886665 
L 286.762419 152.816007 
L 287.762419 152.703067 
L 288.762419 152.657294 
L 289.762419 152.596011 
L 290.762419 152.547512 
L 291.762419 152.466689 
L 292.762419 152.34817 
L 293.762419 152.27796 
L 294.762419 152.194697 
L 296.618831 152.161555 
" clip-path="url(#p63db788af6)" style="fill: none; stroke: #1f77b4; stroke-opacity: 0.5; stroke-width: 0.2; stroke-linecap: square"/>
   <path d="M 244.762419 87.421237 
L 245.762419 87.452673 
L 246.762419 87.489614 
L 247.762419 87.58736 
L 248.762419 87.619882 
L 249.762419 87.693506 
L 250.762419 87.732072 
L 251.762419 87.767485 
L 252.762419 87.825125 
L 253.762419 87.895511 
L 254.762419 87.947475 
L 255.762419 88.006565 
L 256.762419 88.094886 
L 257.762419 88.14103 
L 258.762419 88.183441 
L 259.762419 88.213934 
L 260.762419 88.239979 
L 261.762419 88.261179 
L 262.762419 88.31548 
L 263.762419 88.343418 
L 264.762419 88.373142 
L 265.762419 88.398537 
L 266.762419 88.409737 
L 267.762419 88.419861 
L 268.762419 88.419657 
L 269.762419 88.410147 
L 270.762419 88.398493 
L 271.762419 88.367464 
L 272.762419 88.356296 
L 273.762419 88.326178 
L 274.762419 88.266401 
L 275.762419 88.22921 
L 276.762419 88.190114 
L 277.762419 88.147674 
L 278.762419 88.114909 
L 279.762419 88.047483 
L 280.762419 88.008357 
L 281.762419 87.965682 
L 282.762419 87.895102 
L 283.762419 87.858711 
L 284.762419 87.800308 
L 285.762419 87.689355 
L 286.762419 87.618697 
L 287.762419 87.505757 
L 288.762419 87.459984 
L 289.762419 87.398701 
L 290.762419 87.350201 
L 291.762419 87.269379 
L 292.762419 87.15086 
L 293.762419 87.080649 
L 294.762419 86.997387 
L 296.618831 86.964245 
" clip-path="url(#p63db788af6)" style="fill: none; stroke: #1f77b4; stroke-opacity: 0.5; stroke-width: 0.2; stroke-linecap: square"/>
   <path d="M 244.762419 112.889975 
L 245.762419 112.921411 
L 246.762419 112.958351 
L 247.762419 113.056098 
L 248.762419 113.08862 
L 249.762419 113.162244 
L 250.762419 113.20081 
L 251.762419 113.236223 
L 252.762419 113.293863 
L 253.762419 113.364249 
L 254.762419 113.416213 
L 255.762419 113.475303 
L 256.762419 113.563624 
L 257.762419 113.609768 
L 258.762419 113.652179 
L 259.762419 113.682672 
L 260.762419 113.708717 
L 261.762419 113.729917 
L 262.762419 113.784218 
L 263.762419 113.812156 
L 264.762419 113.84188 
L 265.762419 113.867274 
L 266.762419 113.878475 
L 267.762419 113.888599 
L 268.762419 113.888395 
L 269.762419 113.878885 
L 270.762419 113.867231 
L 271.762419 113.836202 
L 272.762419 113.825034 
L 273.762419 113.794916 
L 274.762419 113.735139 
L 275.762419 113.697948 
L 276.762419 113.658852 
L 277.762419 113.616412 
L 278.762419 113.583647 
L 279.762419 113.516221 
L 280.762419 113.477095 
L 281.762419 113.43442 
L 282.762419 113.36384 
L 283.762419 113.327449 
L 284.762419 113.269045 
L 285.762419 113.158093 
L 286.762419 113.087435 
L 287.762419 112.974495 
L 288.762419 112.928722 
L 289.762419 112.867439 
L 290.762419 112.818939 
L 291.762419 112.738117 
L 292.762419 112.619598 
L 293.762419 112.549387 
L 294.762419 112.466125 
L 296.618831 112.432983 
" clip-path="url(#p63db788af6)" style="fill: none; stroke: #1f77b4; stroke-opacity: 0.5; stroke-width: 0.2; stroke-linecap: square"/>
   <path d="M 244.762419 142.890299 
L 245.762419 142.921736 
L 246.762419 142.958676 
L 247.762419 143.056423 
L 248.762419 143.088944 
L 249.762419 143.162569 
L 250.762419 143.201134 
L 251.762419 143.236548 
L 252.762419 143.294188 
L 253.762419 143.364574 
L 254.762419 143.416538 
L 255.762419 143.475628 
L 256.762419 143.563949 
L 257.762419 143.610093 
L 258.762419 143.652504 
L 259.762419 143.682997 
L 260.762419 143.709042 
L 261.762419 143.730242 
L 262.762419 143.784543 
L 263.762419 143.81248 
L 264.762419 143.842204 
L 265.762419 143.867599 
L 266.762419 143.878799 
L 267.762419 143.888923 
L 268.762419 143.888719 
L 269.762419 143.879209 
L 270.762419 143.867556 
L 271.762419 143.836526 
L 272.762419 143.825358 
L 273.762419 143.795241 
L 274.762419 143.735464 
L 275.762419 143.698272 
L 276.762419 143.659176 
L 277.762419 143.616737 
L 278.762419 143.583972 
L 279.762419 143.516545 
L 280.762419 143.477419 
L 281.762419 143.434745 
L 282.762419 143.364164 
L 283.762419 143.327773 
L 284.762419 143.26937 
L 285.762419 143.158417 
L 286.762419 143.087759 
L 287.762419 142.974819 
L 288.762419 142.929046 
L 289.762419 142.867763 
L 290.762419 142.819264 
L 291.762419 142.738441 
L 292.762419 142.619922 
L 293.762419 142.549712 
L 294.762419 142.466449 
L 296.618831 142.433307 
" clip-path="url(#p63db788af6)" style="fill: none; stroke: #1f77b4; stroke-opacity: 0.5; stroke-width: 0.2; stroke-linecap: square"/>
   <path d="M 244.762419 109.003827 
L 245.762419 109.035264 
L 246.762419 109.072204 
L 247.762419 109.169951 
L 248.762419 109.202472 
L 249.762419 109.276097 
L 250.762419 109.314663 
L 251.762419 109.350076 
L 252.762419 109.407716 
L 253.762419 109.478102 
L 254.762419 109.530066 
L 255.762419 109.589156 
L 256.762419 109.677477 
L 257.762419 109.723621 
L 258.762419 109.766032 
L 259.762419 109.796525 
L 260.762419 109.82257 
L 261.762419 109.84377 
L 262.762419 109.898071 
L 263.762419 109.926008 
L 264.762419 109.955732 
L 265.762419 109.981127 
L 266.762419 109.992328 
L 267.762419 110.002452 
L 268.762419 110.002247 
L 269.762419 109.992737 
L 270.762419 109.981084 
L 271.762419 109.950055 
L 272.762419 109.938887 
L 273.762419 109.908769 
L 274.762419 109.848992 
L 275.762419 109.811801 
L 276.762419 109.772705 
L 277.762419 109.730265 
L 278.762419 109.6975 
L 279.762419 109.630073 
L 280.762419 109.590947 
L 281.762419 109.548273 
L 282.762419 109.477692 
L 283.762419 109.441301 
L 284.762419 109.382898 
L 285.762419 109.271946 
L 286.762419 109.201287 
L 287.762419 109.088347 
L 288.762419 109.042575 
L 289.762419 108.981291 
L 290.762419 108.932792 
L 291.762419 108.851969 
L 292.762419 108.73345 
L 293.762419 108.66324 
L 294.762419 108.579977 
L 296.618831 108.546836 
" clip-path="url(#p63db788af6)" style="fill: none; stroke: #1f77b4; stroke-opacity: 0.5; stroke-width: 0.2; stroke-linecap: square"/>
   <path d="M 296.618831 210.560095 
L 295.618831 210.528658 
L 294.618831 210.491718 
L 293.618831 210.393972 
L 292.618831 210.36145 
L 291.618831 210.287825 
L 290.618831 210.24926 
L 289.618831 210.213847 
L 288.618831 210.156207 
L 287.618831 210.08582 
L 286.618831 210.033856 
L 285.618831 209.974766 
L 284.618831 209.886445 
L 283.618831 209.840301 
L 282.618831 209.79789 
L 281.618831 209.767398 
L 280.618831 209.741353 
L 279.618831 209.720152 
L 278.618831 209.665851 
L 277.618831 209.637914 
L 276.618831 209.60819 
L 275.618831 209.582795 
L 274.618831 209.571595 
L 273.618831 209.561471 
L 272.618831 209.561675 
L 271.618831 209.571185 
L 270.618831 209.582838 
L 269.618831 209.613868 
L 268.618831 209.625036 
L 267.618831 209.655153 
L 266.618831 209.71493 
L 265.618831 209.752122 
L 264.618831 209.791218 
L 263.618831 209.833657 
L 262.618831 209.866423 
L 261.618831 209.933849 
L 260.618831 209.972975 
L 259.618831 210.015649 
L 258.618831 210.08623 
L 257.618831 210.122621 
L 256.618831 210.181024 
L 255.618831 210.291977 
L 254.618831 210.362635 
L 253.618831 210.475575 
L 252.618831 210.521348 
L 251.618831 210.582631 
L 250.618831 210.63113 
L 249.618831 210.711953 
L 248.618831 210.830472 
L 247.618831 210.900682 
L 246.618831 210.983945 
L 244.762419 211.017087 
" clip-path="url(#p63db788af6)" style="fill: none; stroke: #ff7f0e; stroke-opacity: 0.5; stroke-width: 0.2; stroke-linecap: square"/>
   <path d="M 296.618831 185.448187 
L 295.618831 185.416751 
L 294.618831 185.379811 
L 293.618831 185.282064 
L 292.618831 185.249543 
L 291.618831 185.175918 
L 290.618831 185.137352 
L 289.618831 185.101939 
L 288.618831 185.044299 
L 287.618831 184.973913 
L 286.618831 184.921949 
L 285.618831 184.862859 
L 284.618831 184.774538 
L 283.618831 184.728394 
L 282.618831 184.685983 
L 281.618831 184.65549 
L 280.618831 184.629445 
L 279.618831 184.608245 
L 278.618831 184.553944 
L 277.618831 184.526006 
L 276.618831 184.496282 
L 275.618831 184.470888 
L 274.618831 184.459687 
L 273.618831 184.449563 
L 272.618831 184.449768 
L 271.618831 184.459278 
L 270.618831 184.470931 
L 269.618831 184.50196 
L 268.618831 184.513128 
L 267.618831 184.543246 
L 266.618831 184.603023 
L 265.618831 184.640214 
L 264.618831 184.67931 
L 263.618831 184.72175 
L 262.618831 184.754515 
L 261.618831 184.821942 
L 260.618831 184.861068 
L 259.618831 184.903742 
L 258.618831 184.974323 
L 257.618831 185.010714 
L 256.618831 185.069117 
L 255.618831 185.180069 
L 254.618831 185.250728 
L 253.618831 185.363667 
L 252.618831 185.40944 
L 251.618831 185.470724 
L 250.618831 185.519223 
L 249.618831 185.600046 
L 248.618831 185.718564 
L 247.618831 185.788775 
L 246.618831 185.872038 
L 244.762419 185.905179 
" clip-path="url(#p63db788af6)" style="fill: none; stroke: #ff7f0e; stroke-opacity: 0.5; stroke-width: 0.2; stroke-linecap: square"/>
   <path d="M 296.618831 167.388559 
L 295.618831 167.357122 
L 294.618831 167.320182 
L 293.618831 167.222435 
L 292.618831 167.189914 
L 291.618831 167.116289 
L 290.618831 167.077724 
L 289.618831 167.04231 
L 288.618831 166.98467 
L 287.618831 166.914284 
L 286.618831 166.86232 
L 285.618831 166.80323 
L 284.618831 166.714909 
L 283.618831 166.668765 
L 282.618831 166.626354 
L 281.618831 166.595861 
L 280.618831 166.569816 
L 279.618831 166.548616 
L 278.618831 166.494315 
L 277.618831 166.466378 
L 276.618831 166.436654 
L 275.618831 166.411259 
L 274.618831 166.400059 
L 273.618831 166.389935 
L 272.618831 166.390139 
L 271.618831 166.399649 
L 270.618831 166.411302 
L 269.618831 166.442332 
L 268.618831 166.4535 
L 267.618831 166.483617 
L 266.618831 166.543394 
L 265.618831 166.580586 
L 264.618831 166.619682 
L 263.618831 166.662121 
L 262.618831 166.694886 
L 261.618831 166.762313 
L 260.618831 166.801439 
L 259.618831 166.844113 
L 258.618831 166.914694 
L 257.618831 166.951085 
L 256.618831 167.009488 
L 255.618831 167.120441 
L 254.618831 167.191099 
L 253.618831 167.304039 
L 252.618831 167.349812 
L 251.618831 167.411095 
L 250.618831 167.459594 
L 249.618831 167.540417 
L 248.618831 167.658936 
L 247.618831 167.729146 
L 246.618831 167.812409 
L 244.762419 167.845551 
" clip-path="url(#p63db788af6)" style="fill: none; stroke: #ff7f0e; stroke-opacity: 0.5; stroke-width: 0.2; stroke-linecap: square"/>
   <path d="M 296.618831 245.070819 
L 295.618831 245.039383 
L 294.618831 245.002442 
L 293.618831 244.904696 
L 292.618831 244.872174 
L 291.618831 244.798549 
L 290.618831 244.759984 
L 289.618831 244.724571 
L 288.618831 244.666931 
L 287.618831 244.596545 
L 286.618831 244.54458 
L 285.618831 244.485491 
L 284.618831 244.39717 
L 283.618831 244.351025 
L 282.618831 244.308614 
L 281.618831 244.278122 
L 280.618831 244.252077 
L 279.618831 244.230877 
L 278.618831 244.176576 
L 277.618831 244.148638 
L 276.618831 244.118914 
L 275.618831 244.093519 
L 274.618831 244.082319 
L 273.618831 244.072195 
L 272.618831 244.072399 
L 271.618831 244.081909 
L 270.618831 244.093563 
L 269.618831 244.124592 
L 268.618831 244.13576 
L 267.618831 244.165877 
L 266.618831 244.225654 
L 265.618831 244.262846 
L 264.618831 244.301942 
L 263.618831 244.344382 
L 262.618831 244.377147 
L 261.618831 244.444573 
L 260.618831 244.483699 
L 259.618831 244.526374 
L 258.618831 244.596954 
L 257.618831 244.633345 
L 256.618831 244.691748 
L 255.618831 244.802701 
L 254.618831 244.873359 
L 253.618831 244.986299 
L 252.618831 245.032072 
L 251.618831 245.093355 
L 250.618831 245.141854 
L 249.618831 245.222677 
L 248.618831 245.341196 
L 247.618831 245.411407 
L 246.618831 245.494669 
L 244.762419 245.527811 
" clip-path="url(#p63db788af6)" style="fill: none; stroke: #ff7f0e; stroke-opacity: 0.5; stroke-width: 0.2; stroke-linecap: square"/>
   <path d="M 296.618831 226.430226 
L 295.618831 226.398789 
L 294.618831 226.361849 
L 293.618831 226.264102 
L 292.618831 226.231581 
L 291.618831 226.157956 
L 290.618831 226.119391 
L 289.618831 226.083977 
L 288.618831 226.026337 
L 287.618831 225.955951 
L 286.618831 225.903987 
L 285.618831 225.844897 
L 284.618831 225.756576 
L 283.618831 225.710432 
L 282.618831 225.668021 
L 281.618831 225.637528 
L 280.618831 225.611483 
L 279.618831 225.590283 
L 278.618831 225.535982 
L 277.618831 225.508045 
L 276.618831 225.478321 
L 275.618831 225.452926 
L 274.618831 225.441726 
L 273.618831 225.431602 
L 272.618831 225.431806 
L 271.618831 225.441316 
L 270.618831 225.452969 
L 269.618831 225.483999 
L 268.618831 225.495167 
L 267.618831 225.525284 
L 266.618831 225.585061 
L 265.618831 225.622253 
L 264.618831 225.661349 
L 263.618831 225.703788 
L 262.618831 225.736553 
L 261.618831 225.80398 
L 260.618831 225.843106 
L 259.618831 225.88578 
L 258.618831 225.956361 
L 257.618831 225.992752 
L 256.618831 226.051155 
L 255.618831 226.162108 
L 254.618831 226.232766 
L 253.618831 226.345706 
L 252.618831 226.391479 
L 251.618831 226.452762 
L 250.618831 226.501261 
L 249.618831 226.582084 
L 248.618831 226.700603 
L 247.618831 226.770813 
L 246.618831 226.854076 
L 244.762419 226.887218 
" clip-path="url(#p63db788af6)" style="fill: none; stroke: #ff7f0e; stroke-opacity: 0.5; stroke-width: 0.2; stroke-linecap: square"/>
   <path d="M 296.618831 222.833022 
L 295.618831 222.801586 
L 294.618831 222.764646 
L 293.618831 222.666899 
L 292.618831 222.634377 
L 291.618831 222.560753 
L 290.618831 222.522187 
L 289.618831 222.486774 
L 288.618831 222.429134 
L 287.618831 222.358748 
L 286.618831 222.306784 
L 285.618831 222.247694 
L 284.618831 222.159373 
L 283.618831 222.113229 
L 282.618831 222.070818 
L 281.618831 222.040325 
L 280.618831 222.01428 
L 279.618831 221.99308 
L 278.618831 221.938779 
L 277.618831 221.910841 
L 276.618831 221.881117 
L 275.618831 221.855723 
L 274.618831 221.844522 
L 273.618831 221.834398 
L 272.618831 221.834603 
L 271.618831 221.844112 
L 270.618831 221.855766 
L 269.618831 221.886795 
L 268.618831 221.897963 
L 267.618831 221.928081 
L 266.618831 221.987858 
L 265.618831 222.025049 
L 264.618831 222.064145 
L 263.618831 222.106585 
L 262.618831 222.13935 
L 261.618831 222.206776 
L 260.618831 222.245902 
L 259.618831 222.288577 
L 258.618831 222.359157 
L 257.618831 222.395548 
L 256.618831 222.453952 
L 255.618831 222.564904 
L 254.618831 222.635562 
L 253.618831 222.748502 
L 252.618831 222.794275 
L 251.618831 222.855558 
L 250.618831 222.904058 
L 249.618831 222.98488 
L 248.618831 223.103399 
L 247.618831 223.17361 
L 246.618831 223.256872 
L 244.762419 223.290014 
" clip-path="url(#p63db788af6)" style="fill: none; stroke: #ff7f0e; stroke-opacity: 0.5; stroke-width: 0.2; stroke-linecap: square"/>
   <path d="M 296.618831 213.625362 
L 295.618831 213.593926 
L 294.618831 213.556986 
L 293.618831 213.459239 
L 292.618831 213.426717 
L 291.618831 213.353093 
L 290.618831 213.314527 
L 289.618831 213.279114 
L 288.618831 213.221474 
L 287.618831 213.151088 
L 286.618831 213.099124 
L 285.618831 213.040034 
L 284.618831 212.951713 
L 283.618831 212.905569 
L 282.618831 212.863158 
L 281.618831 212.832665 
L 280.618831 212.80662 
L 279.618831 212.78542 
L 278.618831 212.731119 
L 277.618831 212.703181 
L 276.618831 212.673457 
L 275.618831 212.648063 
L 274.618831 212.636862 
L 273.618831 212.626738 
L 272.618831 212.626942 
L 271.618831 212.636452 
L 270.618831 212.648106 
L 269.618831 212.679135 
L 268.618831 212.690303 
L 267.618831 212.720421 
L 266.618831 212.780198 
L 265.618831 212.817389 
L 264.618831 212.856485 
L 263.618831 212.898925 
L 262.618831 212.93169 
L 261.618831 212.999116 
L 260.618831 213.038242 
L 259.618831 213.080917 
L 258.618831 213.151497 
L 257.618831 213.187888 
L 256.618831 213.246291 
L 255.618831 213.357244 
L 254.618831 213.427902 
L 253.618831 213.540842 
L 252.618831 213.586615 
L 251.618831 213.647898 
L 250.618831 213.696398 
L 249.618831 213.77722 
L 248.618831 213.895739 
L 247.618831 213.96595 
L 246.618831 214.049212 
L 244.762419 214.082354 
" clip-path="url(#p63db788af6)" style="fill: none; stroke: #ff7f0e; stroke-opacity: 0.5; stroke-width: 0.2; stroke-linecap: square"/>
   <path d="M 296.618831 198.856267 
L 295.618831 198.824831 
L 294.618831 198.787891 
L 293.618831 198.690144 
L 292.618831 198.657622 
L 291.618831 198.583998 
L 290.618831 198.545432 
L 289.618831 198.510019 
L 288.618831 198.452379 
L 287.618831 198.381993 
L 286.618831 198.330029 
L 285.618831 198.270939 
L 284.618831 198.182618 
L 283.618831 198.136474 
L 282.618831 198.094063 
L 281.618831 198.06357 
L 280.618831 198.037525 
L 279.618831 198.016325 
L 278.618831 197.962024 
L 277.618831 197.934086 
L 276.618831 197.904362 
L 275.618831 197.878968 
L 274.618831 197.867767 
L 273.618831 197.857643 
L 272.618831 197.857848 
L 271.618831 197.867357 
L 270.618831 197.879011 
L 269.618831 197.91004 
L 268.618831 197.921208 
L 267.618831 197.951326 
L 266.618831 198.011103 
L 265.618831 198.048294 
L 264.618831 198.08739 
L 263.618831 198.12983 
L 262.618831 198.162595 
L 261.618831 198.230021 
L 260.618831 198.269147 
L 259.618831 198.311822 
L 258.618831 198.382403 
L 257.618831 198.418793 
L 256.618831 198.477197 
L 255.618831 198.588149 
L 254.618831 198.658807 
L 253.618831 198.771747 
L 252.618831 198.81752 
L 251.618831 198.878803 
L 250.618831 198.927303 
L 249.618831 199.008125 
L 248.618831 199.126644 
L 247.618831 199.196855 
L 246.618831 199.280117 
L 244.762419 199.313259 
" clip-path="url(#p63db788af6)" style="fill: none; stroke: #ff7f0e; stroke-opacity: 0.5; stroke-width: 0.2; stroke-linecap: square"/>
   <path d="M 296.618831 241.01857 
L 295.618831 240.987134 
L 294.618831 240.950193 
L 293.618831 240.852447 
L 292.618831 240.819925 
L 291.618831 240.746301 
L 290.618831 240.707735 
L 289.618831 240.672322 
L 288.618831 240.614682 
L 287.618831 240.544296 
L 286.618831 240.492332 
L 285.618831 240.433242 
L 284.618831 240.344921 
L 283.618831 240.298776 
L 282.618831 240.256366 
L 281.618831 240.225873 
L 280.618831 240.199828 
L 279.618831 240.178628 
L 278.618831 240.124327 
L 277.618831 240.096389 
L 276.618831 240.066665 
L 275.618831 240.04127 
L 274.618831 240.03007 
L 273.618831 240.019946 
L 272.618831 240.02015 
L 271.618831 240.02966 
L 270.618831 240.041314 
L 269.618831 240.072343 
L 268.618831 240.083511 
L 267.618831 240.113629 
L 266.618831 240.173405 
L 265.618831 240.210597 
L 264.618831 240.249693 
L 263.618831 240.292133 
L 262.618831 240.324898 
L 261.618831 240.392324 
L 260.618831 240.43145 
L 259.618831 240.474125 
L 258.618831 240.544705 
L 257.618831 240.581096 
L 256.618831 240.639499 
L 255.618831 240.750452 
L 254.618831 240.82111 
L 253.618831 240.93405 
L 252.618831 240.979823 
L 251.618831 241.041106 
L 250.618831 241.089606 
L 249.618831 241.170428 
L 248.618831 241.288947 
L 247.618831 241.359158 
L 246.618831 241.44242 
L 244.762419 241.475562 
" clip-path="url(#p63db788af6)" style="fill: none; stroke: #ff7f0e; stroke-opacity: 0.5; stroke-width: 0.2; stroke-linecap: square"/>
   <path d="M 296.618831 175.272649 
L 295.618831 175.241212 
L 294.618831 175.204272 
L 293.618831 175.106525 
L 292.618831 175.074004 
L 291.618831 175.000379 
L 290.618831 174.961813 
L 289.618831 174.9264 
L 288.618831 174.86876 
L 287.618831 174.798374 
L 286.618831 174.74641 
L 285.618831 174.68732 
L 284.618831 174.598999 
L 283.618831 174.552855 
L 282.618831 174.510444 
L 281.618831 174.479951 
L 280.618831 174.453906 
L 279.618831 174.432706 
L 278.618831 174.378405 
L 277.618831 174.350468 
L 276.618831 174.320744 
L 275.618831 174.295349 
L 274.618831 174.284148 
L 273.618831 174.274024 
L 272.618831 174.274229 
L 271.618831 174.283739 
L 270.618831 174.295392 
L 269.618831 174.326421 
L 268.618831 174.337589 
L 267.618831 174.367707 
L 266.618831 174.427484 
L 265.618831 174.464675 
L 264.618831 174.503771 
L 263.618831 174.546211 
L 262.618831 174.578976 
L 261.618831 174.646403 
L 260.618831 174.685529 
L 259.618831 174.728203 
L 258.618831 174.798784 
L 257.618831 174.835175 
L 256.618831 174.893578 
L 255.618831 175.00453 
L 254.618831 175.075189 
L 253.618831 175.188129 
L 252.618831 175.233901 
L 251.618831 175.295185 
L 250.618831 175.343684 
L 249.618831 175.424507 
L 248.618831 175.543026 
L 247.618831 175.613236 
L 246.618831 175.696499 
L 244.762419 175.72964 
" clip-path="url(#p63db788af6)" style="fill: none; stroke: #ff7f0e; stroke-opacity: 0.5; stroke-width: 0.2; stroke-linecap: square"/>
   <path d="M 244.762419 251.385998 
L 245.762419 251.417435 
L 246.762419 251.454375 
L 247.762419 251.552121 
L 248.762419 251.584643 
L 249.762419 251.658268 
L 250.762419 251.696833 
L 251.762419 251.732246 
L 252.762419 251.789886 
L 253.762419 251.860273 
L 254.762419 251.912237 
L 255.762419 251.971327 
L 256.762419 252.059648 
L 257.762419 252.105792 
L 258.762419 252.148203 
L 259.762419 252.178695 
L 260.762419 252.20474 
L 261.762419 252.22594 
L 262.762419 252.280242 
L 263.762419 252.308179 
L 264.762419 252.337903 
L 265.762419 252.363298 
L 266.762419 252.374498 
L 267.762419 252.384622 
L 268.762419 252.384418 
L 269.762419 252.374908 
L 270.762419 252.363255 
L 271.762419 252.332225 
L 272.762419 252.321057 
L 273.762419 252.29094 
L 274.762419 252.231163 
L 275.762419 252.193971 
L 276.762419 252.154875 
L 277.762419 252.112436 
L 278.762419 252.07967 
L 279.762419 252.012244 
L 280.762419 251.973118 
L 281.762419 251.930444 
L 282.762419 251.859863 
L 283.762419 251.823472 
L 284.762419 251.765069 
L 285.762419 251.654116 
L 286.762419 251.583458 
L 287.762419 251.470518 
L 288.762419 251.424745 
L 289.762419 251.363462 
L 290.762419 251.314963 
L 291.762419 251.23414 
L 292.762419 251.115621 
L 293.762419 251.045411 
L 294.762419 250.962148 
L 296.618831 250.929006 
" clip-path="url(#p63db788af6)" style="fill: none; stroke: #1f77b4; stroke-opacity: 0.5; stroke-width: 0.2; stroke-linecap: square"/>
   <path d="M 244.762419 176.215781 
L 245.762419 176.247217 
L 246.762419 176.284157 
L 247.762419 176.381904 
L 248.762419 176.414425 
L 249.762419 176.48805 
L 250.762419 176.526616 
L 251.762419 176.562029 
L 252.762419 176.619669 
L 253.762419 176.690055 
L 254.762419 176.742019 
L 255.762419 176.801109 
L 256.762419 176.88943 
L 257.762419 176.935574 
L 258.762419 176.977985 
L 259.762419 177.008478 
L 260.762419 177.034523 
L 261.762419 177.055723 
L 262.762419 177.110024 
L 263.762419 177.137962 
L 264.762419 177.167686 
L 265.762419 177.19308 
L 266.762419 177.204281 
L 267.762419 177.214405 
L 268.762419 177.2142 
L 269.762419 177.204691 
L 270.762419 177.193037 
L 271.762419 177.162008 
L 272.762419 177.15084 
L 273.762419 177.120722 
L 274.762419 177.060945 
L 275.762419 177.023754 
L 276.762419 176.984658 
L 277.762419 176.942218 
L 278.762419 176.909453 
L 279.762419 176.842026 
L 280.762419 176.802901 
L 281.762419 176.760226 
L 282.762419 176.689645 
L 283.762419 176.653255 
L 284.762419 176.594851 
L 285.762419 176.483899 
L 286.762419 176.41324 
L 287.762419 176.300301 
L 288.762419 176.254528 
L 289.762419 176.193245 
L 290.762419 176.144745 
L 291.762419 176.063923 
L 292.762419 175.945404 
L 293.762419 175.875193 
L 294.762419 175.79193 
L 296.618831 175.758789 
" clip-path="url(#p63db788af6)" style="fill: none; stroke: #1f77b4; stroke-opacity: 0.5; stroke-width: 0.2; stroke-linecap: square"/>
   <path d="M 244.762419 239.304673 
L 245.762419 239.33611 
L 246.762419 239.37305 
L 247.762419 239.470797 
L 248.762419 239.503318 
L 249.762419 239.576943 
L 250.762419 239.615508 
L 251.762419 239.650922 
L 252.762419 239.708562 
L 253.762419 239.778948 
L 254.762419 239.830912 
L 255.762419 239.890002 
L 256.762419 239.978323 
L 257.762419 240.024467 
L 258.762419 240.066878 
L 259.762419 240.097371 
L 260.762419 240.123415 
L 261.762419 240.144616 
L 262.762419 240.198917 
L 263.762419 240.226854 
L 264.762419 240.256578 
L 265.762419 240.281973 
L 266.762419 240.293173 
L 267.762419 240.303297 
L 268.762419 240.303093 
L 269.762419 240.293583 
L 270.762419 240.28193 
L 271.762419 240.2509 
L 272.762419 240.239732 
L 273.762419 240.209615 
L 274.762419 240.149838 
L 275.762419 240.112646 
L 276.762419 240.07355 
L 277.762419 240.031111 
L 278.762419 239.998346 
L 279.762419 239.930919 
L 280.762419 239.891793 
L 281.762419 239.849119 
L 282.762419 239.778538 
L 283.762419 239.742147 
L 284.762419 239.683744 
L 285.762419 239.572791 
L 286.762419 239.502133 
L 287.762419 239.389193 
L 288.762419 239.34342 
L 289.762419 239.282137 
L 290.762419 239.233638 
L 291.762419 239.152815 
L 292.762419 239.034296 
L 293.762419 238.964086 
L 294.762419 238.880823 
L 296.618831 238.847681 
" clip-path="url(#p63db788af6)" style="fill: none; stroke: #1f77b4; stroke-opacity: 0.5; stroke-width: 0.2; stroke-linecap: square"/>
   <path d="M 244.762419 201.187501 
L 245.762419 201.218938 
L 246.762419 201.255878 
L 247.762419 201.353625 
L 248.762419 201.386146 
L 249.762419 201.459771 
L 250.762419 201.498336 
L 251.762419 201.53375 
L 252.762419 201.591389 
L 253.762419 201.661776 
L 254.762419 201.71374 
L 255.762419 201.77283 
L 256.762419 201.861151 
L 257.762419 201.907295 
L 258.762419 201.949706 
L 259.762419 201.980199 
L 260.762419 202.006243 
L 261.762419 202.027444 
L 262.762419 202.081745 
L 263.762419 202.109682 
L 264.762419 202.139406 
L 265.762419 202.164801 
L 266.762419 202.176001 
L 267.762419 202.186125 
L 268.762419 202.185921 
L 269.762419 202.176411 
L 270.762419 202.164758 
L 271.762419 202.133728 
L 272.762419 202.12256 
L 273.762419 202.092443 
L 274.762419 202.032666 
L 275.762419 201.995474 
L 276.762419 201.956378 
L 277.762419 201.913939 
L 278.762419 201.881174 
L 279.762419 201.813747 
L 280.762419 201.774621 
L 281.762419 201.731947 
L 282.762419 201.661366 
L 283.762419 201.624975 
L 284.762419 201.566572 
L 285.762419 201.455619 
L 286.762419 201.384961 
L 287.762419 201.272021 
L 288.762419 201.226248 
L 289.762419 201.164965 
L 290.762419 201.116466 
L 291.762419 201.035643 
L 292.762419 200.917124 
L 293.762419 200.846914 
L 294.762419 200.763651 
L 296.618831 200.730509 
" clip-path="url(#p63db788af6)" style="fill: none; stroke: #1f77b4; stroke-opacity: 0.5; stroke-width: 0.2; stroke-linecap: square"/>
   <path d="M 244.762419 178.385147 
L 245.762419 178.416584 
L 246.762419 178.453524 
L 247.762419 178.551271 
L 248.762419 178.583792 
L 249.762419 178.657417 
L 250.762419 178.695983 
L 251.762419 178.731396 
L 252.762419 178.789036 
L 253.762419 178.859422 
L 254.762419 178.911386 
L 255.762419 178.970476 
L 256.762419 179.058797 
L 257.762419 179.104941 
L 258.762419 179.147352 
L 259.762419 179.177845 
L 260.762419 179.20389 
L 261.762419 179.22509 
L 262.762419 179.279391 
L 263.762419 179.307328 
L 264.762419 179.337052 
L 265.762419 179.362447 
L 266.762419 179.373648 
L 267.762419 179.383772 
L 268.762419 179.383567 
L 269.762419 179.374057 
L 270.762419 179.362404 
L 271.762419 179.331375 
L 272.762419 179.320207 
L 273.762419 179.290089 
L 274.762419 179.230312 
L 275.762419 179.193121 
L 276.762419 179.154025 
L 277.762419 179.111585 
L 278.762419 179.07882 
L 279.762419 179.011393 
L 280.762419 178.972267 
L 281.762419 178.929593 
L 282.762419 178.859012 
L 283.762419 178.822621 
L 284.762419 178.764218 
L 285.762419 178.653266 
L 286.762419 178.582607 
L 287.762419 178.469667 
L 288.762419 178.423895 
L 289.762419 178.362611 
L 290.762419 178.314112 
L 291.762419 178.233289 
L 292.762419 178.11477 
L 293.762419 178.04456 
L 294.762419 177.961297 
L 296.618831 177.928156 
" clip-path="url(#p63db788af6)" style="fill: none; stroke: #1f77b4; stroke-opacity: 0.5; stroke-width: 0.2; stroke-linecap: square"/>
   <path d="M 244.762419 199.939937 
L 245.762419 199.971373 
L 246.762419 200.008314 
L 247.762419 200.10606 
L 248.762419 200.138582 
L 249.762419 200.212206 
L 250.762419 200.250772 
L 251.762419 200.286185 
L 252.762419 200.343825 
L 253.762419 200.414211 
L 254.762419 200.466176 
L 255.762419 200.525265 
L 256.762419 200.613586 
L 257.762419 200.659731 
L 258.762419 200.702141 
L 259.762419 200.732634 
L 260.762419 200.758679 
L 261.762419 200.779879 
L 262.762419 200.83418 
L 263.762419 200.862118 
L 264.762419 200.891842 
L 265.762419 200.917237 
L 266.762419 200.928437 
L 267.762419 200.938561 
L 268.762419 200.938357 
L 269.762419 200.928847 
L 270.762419 200.917193 
L 271.762419 200.886164 
L 272.762419 200.874996 
L 273.762419 200.844878 
L 274.762419 200.785102 
L 275.762419 200.74791 
L 276.762419 200.708814 
L 277.762419 200.666374 
L 278.762419 200.633609 
L 279.762419 200.566183 
L 280.762419 200.527057 
L 281.762419 200.484382 
L 282.762419 200.413802 
L 283.762419 200.377411 
L 284.762419 200.319008 
L 285.762419 200.208055 
L 286.762419 200.137397 
L 287.762419 200.024457 
L 288.762419 199.978684 
L 289.762419 199.917401 
L 290.762419 199.868901 
L 291.762419 199.788079 
L 292.762419 199.66956 
L 293.762419 199.599349 
L 294.762419 199.516087 
L 296.618831 199.482945 
" clip-path="url(#p63db788af6)" style="fill: none; stroke: #1f77b4; stroke-opacity: 0.5; stroke-width: 0.2; stroke-linecap: square"/>
   <path d="M 244.762419 238.745875 
L 245.762419 238.777311 
L 246.762419 238.814251 
L 247.762419 238.911998 
L 248.762419 238.944519 
L 249.762419 239.018144 
L 250.762419 239.05671 
L 251.762419 239.092123 
L 252.762419 239.149763 
L 253.762419 239.220149 
L 254.762419 239.272113 
L 255.762419 239.331203 
L 256.762419 239.419524 
L 257.762419 239.465668 
L 258.762419 239.508079 
L 259.762419 239.538572 
L 260.762419 239.564617 
L 261.762419 239.585817 
L 262.762419 239.640118 
L 263.762419 239.668056 
L 264.762419 239.69778 
L 265.762419 239.723174 
L 266.762419 239.734375 
L 267.762419 239.744499 
L 268.762419 239.744294 
L 269.762419 239.734785 
L 270.762419 239.723131 
L 271.762419 239.692102 
L 272.762419 239.680934 
L 273.762419 239.650816 
L 274.762419 239.591039 
L 275.762419 239.553848 
L 276.762419 239.514752 
L 277.762419 239.472312 
L 278.762419 239.439547 
L 279.762419 239.37212 
L 280.762419 239.332995 
L 281.762419 239.29032 
L 282.762419 239.219739 
L 283.762419 239.183349 
L 284.762419 239.124945 
L 285.762419 239.013993 
L 286.762419 238.943334 
L 287.762419 238.830395 
L 288.762419 238.784622 
L 289.762419 238.723339 
L 290.762419 238.674839 
L 291.762419 238.594017 
L 292.762419 238.475498 
L 293.762419 238.405287 
L 294.762419 238.322024 
L 296.618831 238.288883 
" clip-path="url(#p63db788af6)" style="fill: none; stroke: #1f77b4; stroke-opacity: 0.5; stroke-width: 0.2; stroke-linecap: square"/>
   <path d="M 244.762419 213.487873 
L 245.762419 213.519309 
L 246.762419 213.556249 
L 247.762419 213.653996 
L 248.762419 213.686518 
L 249.762419 213.760142 
L 250.762419 213.798708 
L 251.762419 213.834121 
L 252.762419 213.891761 
L 253.762419 213.962147 
L 254.762419 214.014111 
L 255.762419 214.073201 
L 256.762419 214.161522 
L 257.762419 214.207666 
L 258.762419 214.250077 
L 259.762419 214.28057 
L 260.762419 214.306615 
L 261.762419 214.327815 
L 262.762419 214.382116 
L 263.762419 214.410054 
L 264.762419 214.439778 
L 265.762419 214.465172 
L 266.762419 214.476373 
L 267.762419 214.486497 
L 268.762419 214.486293 
L 269.762419 214.476783 
L 270.762419 214.465129 
L 271.762419 214.4341 
L 272.762419 214.422932 
L 273.762419 214.392814 
L 274.762419 214.333037 
L 275.762419 214.295846 
L 276.762419 214.25675 
L 277.762419 214.21431 
L 278.762419 214.181545 
L 279.762419 214.114119 
L 280.762419 214.074993 
L 281.762419 214.032318 
L 282.762419 213.961738 
L 283.762419 213.925347 
L 284.762419 213.866943 
L 285.762419 213.755991 
L 286.762419 213.685333 
L 287.762419 213.572393 
L 288.762419 213.52662 
L 289.762419 213.465337 
L 290.762419 213.416837 
L 291.762419 213.336015 
L 292.762419 213.217496 
L 293.762419 213.147285 
L 294.762419 213.064023 
L 296.618831 213.030881 
" clip-path="url(#p63db788af6)" style="fill: none; stroke: #1f77b4; stroke-opacity: 0.5; stroke-width: 0.2; stroke-linecap: square"/>
   <path d="M 244.762419 169.652069 
L 245.762419 169.683506 
L 246.762419 169.720446 
L 247.762419 169.818193 
L 248.762419 169.850714 
L 249.762419 169.924339 
L 250.762419 169.962905 
L 251.762419 169.998318 
L 252.762419 170.055958 
L 253.762419 170.126344 
L 254.762419 170.178308 
L 255.762419 170.237398 
L 256.762419 170.325719 
L 257.762419 170.371863 
L 258.762419 170.414274 
L 259.762419 170.444767 
L 260.762419 170.470812 
L 261.762419 170.492012 
L 262.762419 170.546313 
L 263.762419 170.57425 
L 264.762419 170.603974 
L 265.762419 170.629369 
L 266.762419 170.64057 
L 267.762419 170.650694 
L 268.762419 170.650489 
L 269.762419 170.640979 
L 270.762419 170.629326 
L 271.762419 170.598297 
L 272.762419 170.587129 
L 273.762419 170.557011 
L 274.762419 170.497234 
L 275.762419 170.460043 
L 276.762419 170.420947 
L 277.762419 170.378507 
L 278.762419 170.345742 
L 279.762419 170.278315 
L 280.762419 170.239189 
L 281.762419 170.196515 
L 282.762419 170.125934 
L 283.762419 170.089543 
L 284.762419 170.03114 
L 285.762419 169.920188 
L 286.762419 169.849529 
L 287.762419 169.736589 
L 288.762419 169.690817 
L 289.762419 169.629533 
L 290.762419 169.581034 
L 291.762419 169.500211 
L 292.762419 169.381692 
L 293.762419 169.311482 
L 294.762419 169.228219 
L 296.618831 169.195078 
" clip-path="url(#p63db788af6)" style="fill: none; stroke: #1f77b4; stroke-opacity: 0.5; stroke-width: 0.2; stroke-linecap: square"/>
   <path d="M 244.762419 227.906213 
L 245.762419 227.937649 
L 246.762419 227.974589 
L 247.762419 228.072336 
L 248.762419 228.104857 
L 249.762419 228.178482 
L 250.762419 228.217048 
L 251.762419 228.252461 
L 252.762419 228.310101 
L 253.762419 228.380487 
L 254.762419 228.432451 
L 255.762419 228.491541 
L 256.762419 228.579862 
L 257.762419 228.626006 
L 258.762419 228.668417 
L 259.762419 228.69891 
L 260.762419 228.724955 
L 261.762419 228.746155 
L 262.762419 228.800456 
L 263.762419 228.828394 
L 264.762419 228.858118 
L 265.762419 228.883512 
L 266.762419 228.894713 
L 267.762419 228.904837 
L 268.762419 228.904632 
L 269.762419 228.895122 
L 270.762419 228.883469 
L 271.762419 228.85244 
L 272.762419 228.841272 
L 273.762419 228.811154 
L 274.762419 228.751377 
L 275.762419 228.714186 
L 276.762419 228.67509 
L 277.762419 228.63265 
L 278.762419 228.599885 
L 279.762419 228.532458 
L 280.762419 228.493332 
L 281.762419 228.450658 
L 282.762419 228.380077 
L 283.762419 228.343686 
L 284.762419 228.285283 
L 285.762419 228.174331 
L 286.762419 228.103672 
L 287.762419 227.990733 
L 288.762419 227.94496 
L 289.762419 227.883676 
L 290.762419 227.835177 
L 291.762419 227.754354 
L 292.762419 227.635836 
L 293.762419 227.565625 
L 294.762419 227.482362 
L 296.618831 227.449221 
" clip-path="url(#p63db788af6)" style="fill: none; stroke: #1f77b4; stroke-opacity: 0.5; stroke-width: 0.2; stroke-linecap: square"/>
   <g id="patch_3">
    <path d="M 64.409375 22.318125 
L 64.409375 260.421875 
M 240.224232 22.318125 
L 240.224232 260.421875 
" clip-path="url(#p63db788af6)" style="fill: none; stroke: #ffffff; stroke-width: 3; stroke-linejoin: miter"/>
    <path d="M 64.409375 22.318125 
L 64.409375 260.421875 
M 240.224232 22.318125 
L 240.224232 260.421875 
" clip-path="url(#p63db788af6)" style="fill: none; stroke: #1f77b4; stroke-linejoin: miter"/>
    <g id="PolyCollection_1">
     <path d="M 240.224232 22.318125 
L 64.409375 22.318125 
L 64.409375 260.421875 
L 240.224232 260.421875 
L 240.224232 260.421875 
L 240.224232 22.318125 
z
" clip-path="url(#p63db788af6)" style="fill: #1f77b4; fill-opacity: 0.5"/>
    </g>
    <g id="patch_4">
     <path d="M 301.157018 22.318125 
L 301.157018 260.421875 
M 476.971875 22.318125 
L 476.971875 260.421875 
" clip-path="url(#p63db788af6)" style="fill: none; stroke: #ffffff; stroke-width: 3; stroke-linejoin: miter"/>
     <path d="M 301.157018 22.318125 
L 301.157018 260.421875 
M 476.971875 22.318125 
L 476.971875 260.421875 
" clip-path="url(#p63db788af6)" style="fill: none; stroke: #ff7f0e; stroke-linejoin: miter"/>
     <g id="PolyCollection_2">
      <path d="M 476.971875 22.318125 
L 301.157018 22.318125 
L 301.157018 260.421875 
L 476.971875 260.421875 
L 476.971875 260.421875 
L 476.971875 22.318125 
z
" clip-path="url(#p63db788af6)" style="fill: #ff7f0e; fill-opacity: 0.5"/>
     </g>
     <g id="matplotlib.axis_1">
      <g id="xtick_1">
       <g id="line2d_1"/>
       <g id="text_1">
        <!-- deme0 -->
        <g transform="translate(134.937897 271.520312)scale(0.1 -0.1)">
         <defs>
          <path id="DejaVuSans-64" d="M 2906 2969 
L 2906 4863 
L 3481 4863 
L 3481 0 
L 2906 0 
L 2906 525 
Q 2725 213 2448 61 
Q 2172 -91 1784 -91 
Q 1150 -91 751 415 
Q 353 922 353 1747 
Q 353 2572 751 3078 
Q 1150 3584 1784 3584 
Q 2172 3584 2448 3432 
Q 2725 3281 2906 2969 
z
M 947 1747 
Q 947 1113 1208 752 
Q 1469 391 1925 391 
Q 2381 391 2643 752 
Q 2906 1113 2906 1747 
Q 2906 2381 2643 2742 
Q 2381 3103 1925 3103 
Q 1469 3103 1208 2742 
Q 947 2381 947 1747 
z
" transform="scale(0.015625)"/>
          <path id="DejaVuSans-65" d="M 3597 1894 
L 3597 1613 
L 953 1613 
Q 991 1019 1311 708 
Q 1631 397 2203 397 
Q 2534 397 2845 478 
Q 3156 559 3463 722 
L 3463 178 
Q 3153 47 2828 -22 
Q 2503 -91 2169 -91 
Q 1331 -91 842 396 
Q 353 884 353 1716 
Q 353 2575 817 3079 
Q 1281 3584 2069 3584 
Q 2775 3584 3186 3129 
Q 3597 2675 3597 1894 
z
M 3022 2063 
Q 3016 2534 2758 2815 
Q 2500 3097 2075 3097 
Q 1594 3097 1305 2825 
Q 1016 2553 972 2059 
L 3022 2063 
z
" transform="scale(0.015625)"/>
          <path id="DejaVuSans-6d" d="M 3328 2828 
Q 3544 3216 3844 3400 
Q 4144 3584 4550 3584 
Q 5097 3584 5394 3201 
Q 5691 2819 5691 2113 
L 5691 0 
L 5113 0 
L 5113 2094 
Q 5113 2597 4934 2840 
Q 4756 3084 4391 3084 
Q 3944 3084 3684 2787 
Q 3425 2491 3425 1978 
L 3425 0 
L 2847 0 
L 2847 2094 
Q 2847 2600 2669 2842 
Q 2491 3084 2119 3084 
Q 1678 3084 1418 2786 
Q 1159 2488 1159 1978 
L 1159 0 
L 581 0 
L 581 3500 
L 1159 3500 
L 1159 2956 
Q 1356 3278 1631 3431 
Q 1906 3584 2284 3584 
Q 2666 3584 2933 3390 
Q 3200 3197 3328 2828 
z
" transform="scale(0.015625)"/>
          <path id="DejaVuSans-30" d="M 2034 4250 
Q 1547 4250 1301 3770 
Q 1056 3291 1056 2328 
Q 1056 1369 1301 889 
Q 1547 409 2034 409 
Q 2525 409 2770 889 
Q 3016 1369 3016 2328 
Q 3016 3291 2770 3770 
Q 2525 4250 2034 4250 
z
M 2034 4750 
Q 2819 4750 3233 4129 
Q 3647 3509 3647 2328 
Q 3647 1150 3233 529 
Q 2819 -91 2034 -91 
Q 1250 -91 836 529 
Q 422 1150 422 2328 
Q 422 3509 836 4129 
Q 1250 4750 2034 4750 
z
" transform="scale(0.015625)"/>
         </defs>
         <use xlink:href="#DejaVuSans-64"/>
         <use xlink:href="#DejaVuSans-65" x="63.476562"/>
         <use xlink:href="#DejaVuSans-6d" x="125"/>
         <use xlink:href="#DejaVuSans-65" x="222.412109"/>
         <use xlink:href="#DejaVuSans-30" x="283.935547"/>
        </g>
       </g>
      </g>
      <g id="xtick_2">
       <g id="line2d_2"/>
       <g id="text_2">
        <!-- deme1 -->
        <g transform="translate(371.68554 271.520312)scale(0.1 -0.1)">
         <defs>
          <path id="DejaVuSans-31" d="M 794 531 
L 1825 531 
L 1825 4091 
L 703 3866 
L 703 4441 
L 1819 4666 
L 2450 4666 
L 2450 531 
L 3481 531 
L 3481 0 
L 794 0 
L 794 531 
z
" transform="scale(0.015625)"/>
         </defs>
         <use xlink:href="#DejaVuSans-64"/>
         <use xlink:href="#DejaVuSans-65" x="63.476562"/>
         <use xlink:href="#DejaVuSans-6d" x="125"/>
         <use xlink:href="#DejaVuSans-65" x="222.412109"/>
         <use xlink:href="#DejaVuSans-31" x="283.935547"/>
        </g>
       </g>
      </g>
     </g>
     <g id="matplotlib.axis_2">
      <g id="ytick_1">
       <g id="line2d_3">
        <defs>
         <path id="ma37d99d439" d="M 0 0 
L -3.5 0 
" style="stroke: #000000; stroke-width: 0.8"/>
        </defs>
        <g>
         <use xlink:href="#ma37d99d439" x="43.78125" y="260.421875" style="stroke: #000000; stroke-width: 0.8"/>
        </g>
       </g>
       <g id="text_3">
        <!-- 0.0 -->
        <g transform="translate(20.878125 264.221094)scale(0.1 -0.1)">
         <defs>
          <path id="DejaVuSans-2e" d="M 684 794 
L 1344 794 
L 1344 0 
L 684 0 
L 684 794 
z
" transform="scale(0.015625)"/>
         </defs>
         <use xlink:href="#DejaVuSans-30"/>
         <use xlink:href="#DejaVuSans-2e" x="63.623047"/>
         <use xlink:href="#DejaVuSans-30" x="95.410156"/>
        </g>
       </g>
      </g>
      <g id="ytick_2">
       <g id="line2d_4">
        <g>
         <use xlink:href="#ma37d99d439" x="43.78125" y="212.801125" style="stroke: #000000; stroke-width: 0.8"/>
        </g>
       </g>
       <g id="text_4">
        <!-- 0.5 -->
        <g transform="translate(20.878125 216.600344)scale(0.1 -0.1)">
         <defs>
          <path id="DejaVuSans-35" d="M 691 4666 
L 3169 4666 
L 3169 4134 
L 1269 4134 
L 1269 2991 
Q 1406 3038 1543 3061 
Q 1681 3084 1819 3084 
Q 2600 3084 3056 2656 
Q 3513 2228 3513 1497 
Q 3513 744 3044 326 
Q 2575 -91 1722 -91 
Q 1428 -91 1123 -41 
Q 819 9 494 109 
L 494 744 
Q 775 591 1075 516 
Q 1375 441 1709 441 
Q 2250 441 2565 725 
Q 2881 1009 2881 1497 
Q 2881 1984 2565 2268 
Q 2250 2553 1709 2553 
Q 1456 2553 1204 2497 
Q 953 2441 691 2322 
L 691 4666 
z
" transform="scale(0.015625)"/>
         </defs>
         <use xlink:href="#DejaVuSans-30"/>
         <use xlink:href="#DejaVuSans-2e" x="63.623047"/>
         <use xlink:href="#DejaVuSans-35" x="95.410156"/>
        </g>
       </g>
      </g>
      <g id="ytick_3">
       <g id="line2d_5">
        <g>
         <use xlink:href="#ma37d99d439" x="43.78125" y="165.180375" style="stroke: #000000; stroke-width: 0.8"/>
        </g>
       </g>
       <g id="text_5">
        <!-- 1.0 -->
        <g transform="translate(20.878125 168.979594)scale(0.1 -0.1)">
         <use xlink:href="#DejaVuSans-31"/>
         <use xlink:href="#DejaVuSans-2e" x="63.623047"/>
         <use xlink:href="#DejaVuSans-30" x="95.410156"/>
        </g>
       </g>
      </g>
      <g id="ytick_4">
       <g id="line2d_6">
        <g>
         <use xlink:href="#ma37d99d439" x="43.78125" y="117.559625" style="stroke: #000000; stroke-width: 0.8"/>
        </g>
       </g>
       <g id="text_6">
        <!-- 1.5 -->
        <g transform="translate(20.878125 121.358844)scale(0.1 -0.1)">
         <use xlink:href="#DejaVuSans-31"/>
         <use xlink:href="#DejaVuSans-2e" x="63.623047"/>
         <use xlink:href="#DejaVuSans-35" x="95.410156"/>
        </g>
       </g>
      </g>
      <g id="ytick_5">
       <g id="line2d_7">
        <g>
         <use xlink:href="#ma37d99d439" x="43.78125" y="69.938875" style="stroke: #000000; stroke-width: 0.8"/>
        </g>
       </g>
       <g id="text_7">
        <!-- 2.0 -->
        <g transform="translate(20.878125 73.738094)scale(0.1 -0.1)">
         <defs>
          <path id="DejaVuSans-32" d="M 1228 531 
L 3431 531 
L 3431 0 
L 469 0 
L 469 531 
Q 828 903 1448 1529 
Q 2069 2156 2228 2338 
Q 2531 2678 2651 2914 
Q 2772 3150 2772 3378 
Q 2772 3750 2511 3984 
Q 2250 4219 1831 4219 
Q 1534 4219 1204 4116 
Q 875 4013 500 3803 
L 500 4441 
Q 881 4594 1212 4672 
Q 1544 4750 1819 4750 
Q 2544 4750 2975 4387 
Q 3406 4025 3406 3419 
Q 3406 3131 3298 2873 
Q 3191 2616 2906 2266 
Q 2828 2175 2409 1742 
Q 1991 1309 1228 531 
z
" transform="scale(0.015625)"/>
         </defs>
         <use xlink:href="#DejaVuSans-32"/>
         <use xlink:href="#DejaVuSans-2e" x="63.623047"/>
         <use xlink:href="#DejaVuSans-30" x="95.410156"/>
        </g>
       </g>
      </g>
      <g id="ytick_6">
       <g id="line2d_8">
        <g>
         <use xlink:href="#ma37d99d439" x="43.78125" y="22.318125" style="stroke: #000000; stroke-width: 0.8"/>
        </g>
       </g>
       <g id="text_8">
        <!-- 2.5 -->
        <g transform="translate(20.878125 26.117344)scale(0.1 -0.1)">
         <use xlink:href="#DejaVuSans-32"/>
         <use xlink:href="#DejaVuSans-2e" x="63.623047"/>
         <use xlink:href="#DejaVuSans-35" x="95.410156"/>
        </g>
       </g>
      </g>
      <g id="text_9">
       <!-- time ago (generations) -->
       <g transform="translate(14.798438 198.841094)rotate(-90)scale(0.1 -0.1)">
        <defs>
         <path id="DejaVuSans-74" d="M 1172 4494 
L 1172 3500 
L 2356 3500 
L 2356 3053 
L 1172 3053 
L 1172 1153 
Q 1172 725 1289 603 
Q 1406 481 1766 481 
L 2356 481 
L 2356 0 
L 1766 0 
Q 1100 0 847 248 
Q 594 497 594 1153 
L 594 3053 
L 172 3053 
L 172 3500 
L 594 3500 
L 594 4494 
L 1172 4494 
z
" transform="scale(0.015625)"/>
         <path id="DejaVuSans-69" d="M 603 3500 
L 1178 3500 
L 1178 0 
L 603 0 
L 603 3500 
z
M 603 4863 
L 1178 4863 
L 1178 4134 
L 603 4134 
L 603 4863 
z
" transform="scale(0.015625)"/>
         <path id="DejaVuSans-20" transform="scale(0.015625)"/>
         <path id="DejaVuSans-61" d="M 2194 1759 
Q 1497 1759 1228 1600 
Q 959 1441 959 1056 
Q 959 750 1161 570 
Q 1363 391 1709 391 
Q 2188 391 2477 730 
Q 2766 1069 2766 1631 
L 2766 1759 
L 2194 1759 
z
M 3341 1997 
L 3341 0 
L 2766 0 
L 2766 531 
Q 2569 213 2275 61 
Q 1981 -91 1556 -91 
Q 1019 -91 701 211 
Q 384 513 384 1019 
Q 384 1609 779 1909 
Q 1175 2209 1959 2209 
L 2766 2209 
L 2766 2266 
Q 2766 2663 2505 2880 
Q 2244 3097 1772 3097 
Q 1472 3097 1187 3025 
Q 903 2953 641 2809 
L 641 3341 
Q 956 3463 1253 3523 
Q 1550 3584 1831 3584 
Q 2591 3584 2966 3190 
Q 3341 2797 3341 1997 
z
" transform="scale(0.015625)"/>
         <path id="DejaVuSans-67" d="M 2906 1791 
Q 2906 2416 2648 2759 
Q 2391 3103 1925 3103 
Q 1463 3103 1205 2759 
Q 947 2416 947 1791 
Q 947 1169 1205 825 
Q 1463 481 1925 481 
Q 2391 481 2648 825 
Q 2906 1169 2906 1791 
z
M 3481 434 
Q 3481 -459 3084 -895 
Q 2688 -1331 1869 -1331 
Q 1566 -1331 1297 -1286 
Q 1028 -1241 775 -1147 
L 775 -588 
Q 1028 -725 1275 -790 
Q 1522 -856 1778 -856 
Q 2344 -856 2625 -561 
Q 2906 -266 2906 331 
L 2906 616 
Q 2728 306 2450 153 
Q 2172 0 1784 0 
Q 1141 0 747 490 
Q 353 981 353 1791 
Q 353 2603 747 3093 
Q 1141 3584 1784 3584 
Q 2172 3584 2450 3431 
Q 2728 3278 2906 2969 
L 2906 3500 
L 3481 3500 
L 3481 434 
z
" transform="scale(0.015625)"/>
         <path id="DejaVuSans-6f" d="M 1959 3097 
Q 1497 3097 1228 2736 
Q 959 2375 959 1747 
Q 959 1119 1226 758 
Q 1494 397 1959 397 
Q 2419 397 2687 759 
Q 2956 1122 2956 1747 
Q 2956 2369 2687 2733 
Q 2419 3097 1959 3097 
z
M 1959 3584 
Q 2709 3584 3137 3096 
Q 3566 2609 3566 1747 
Q 3566 888 3137 398 
Q 2709 -91 1959 -91 
Q 1206 -91 779 398 
Q 353 888 353 1747 
Q 353 2609 779 3096 
Q 1206 3584 1959 3584 
z
" transform="scale(0.015625)"/>
         <path id="DejaVuSans-28" d="M 1984 4856 
Q 1566 4138 1362 3434 
Q 1159 2731 1159 2009 
Q 1159 1288 1364 580 
Q 1569 -128 1984 -844 
L 1484 -844 
Q 1016 -109 783 600 
Q 550 1309 550 2009 
Q 550 2706 781 3412 
Q 1013 4119 1484 4856 
L 1984 4856 
z
" transform="scale(0.015625)"/>
         <path id="DejaVuSans-6e" d="M 3513 2113 
L 3513 0 
L 2938 0 
L 2938 2094 
Q 2938 2591 2744 2837 
Q 2550 3084 2163 3084 
Q 1697 3084 1428 2787 
Q 1159 2491 1159 1978 
L 1159 0 
L 581 0 
L 581 3500 
L 1159 3500 
L 1159 2956 
Q 1366 3272 1645 3428 
Q 1925 3584 2291 3584 
Q 2894 3584 3203 3211 
Q 3513 2838 3513 2113 
z
" transform="scale(0.015625)"/>
         <path id="DejaVuSans-72" d="M 2631 2963 
Q 2534 3019 2420 3045 
Q 2306 3072 2169 3072 
Q 1681 3072 1420 2755 
Q 1159 2438 1159 1844 
L 1159 0 
L 581 0 
L 581 3500 
L 1159 3500 
L 1159 2956 
Q 1341 3275 1631 3429 
Q 1922 3584 2338 3584 
Q 2397 3584 2469 3576 
Q 2541 3569 2628 3553 
L 2631 2963 
z
" transform="scale(0.015625)"/>
         <path id="DejaVuSans-73" d="M 2834 3397 
L 2834 2853 
Q 2591 2978 2328 3040 
Q 2066 3103 1784 3103 
Q 1356 3103 1142 2972 
Q 928 2841 928 2578 
Q 928 2378 1081 2264 
Q 1234 2150 1697 2047 
L 1894 2003 
Q 2506 1872 2764 1633 
Q 3022 1394 3022 966 
Q 3022 478 2636 193 
Q 2250 -91 1575 -91 
Q 1294 -91 989 -36 
Q 684 19 347 128 
L 347 722 
Q 666 556 975 473 
Q 1284 391 1588 391 
Q 1994 391 2212 530 
Q 2431 669 2431 922 
Q 2431 1156 2273 1281 
Q 2116 1406 1581 1522 
L 1381 1569 
Q 847 1681 609 1914 
Q 372 2147 372 2553 
Q 372 3047 722 3315 
Q 1072 3584 1716 3584 
Q 2034 3584 2315 3537 
Q 2597 3491 2834 3397 
z
" transform="scale(0.015625)"/>
         <path id="DejaVuSans-29" d="M 513 4856 
L 1013 4856 
Q 1481 4119 1714 3412 
Q 1947 2706 1947 2009 
Q 1947 1309 1714 600 
Q 1481 -109 1013 -844 
L 513 -844 
Q 928 -128 1133 580 
Q 1338 1288 1338 2009 
Q 1338 2731 1133 3434 
Q 928 4138 513 4856 
z
" transform="scale(0.015625)"/>
        </defs>
        <use xlink:href="#DejaVuSans-74"/>
        <use xlink:href="#DejaVuSans-69" x="39.208984"/>
        <use xlink:href="#DejaVuSans-6d" x="66.992188"/>
        <use xlink:href="#DejaVuSans-65" x="164.404297"/>
        <use xlink:href="#DejaVuSans-20" x="225.927734"/>
        <use xlink:href="#DejaVuSans-61" x="257.714844"/>
        <use xlink:href="#DejaVuSans-67" x="318.994141"/>
        <use xlink:href="#DejaVuSans-6f" x="382.470703"/>
        <use xlink:href="#DejaVuSans-20" x="443.652344"/>
        <use xlink:href="#DejaVuSans-28" x="475.439453"/>
        <use xlink:href="#DejaVuSans-67" x="514.453125"/>
        <use xlink:href="#DejaVuSans-65" x="577.929688"/>
        <use xlink:href="#DejaVuSans-6e" x="639.453125"/>
        <use xlink:href="#DejaVuSans-65" x="702.832031"/>
        <use xlink:href="#DejaVuSans-72" x="764.355469"/>
        <use xlink:href="#DejaVuSans-61" x="805.46875"/>
        <use xlink:href="#DejaVuSans-74" x="866.748047"/>
        <use xlink:href="#DejaVuSans-69" x="905.957031"/>
        <use xlink:href="#DejaVuSans-6f" x="933.740234"/>
        <use xlink:href="#DejaVuSans-6e" x="994.921875"/>
        <use xlink:href="#DejaVuSans-73" x="1058.300781"/>
        <use xlink:href="#DejaVuSans-29" x="1110.400391"/>
       </g>
      </g>
     </g>
     <path d="M 243.762419 123.847606 
L 245.762419 124.847606 
L 245.762419 122.847606 
z
" clip-path="url(#p63db788af6)" style="fill: #ff7f0e; fill-opacity: 0.5; stroke: #ff7f0e; stroke-opacity: 0.5; stroke-linejoin: miter"/>
     <path d="M 243.762419 138.965723 
L 245.762419 139.965723 
L 245.762419 137.965723 
z
" clip-path="url(#p63db788af6)" style="fill: #ff7f0e; fill-opacity: 0.5; stroke: #ff7f0e; stroke-opacity: 0.5; stroke-linejoin: miter"/>
     <path d="M 243.762419 123.127536 
L 245.762419 124.127536 
L 245.762419 122.127536 
z
" clip-path="url(#p63db788af6)" style="fill: #ff7f0e; fill-opacity: 0.5; stroke: #ff7f0e; stroke-opacity: 0.5; stroke-linejoin: miter"/>
     <path d="M 243.762419 71.055729 
L 245.762419 72.055729 
L 245.762419 70.055729 
z
" clip-path="url(#p63db788af6)" style="fill: #ff7f0e; fill-opacity: 0.5; stroke: #ff7f0e; stroke-opacity: 0.5; stroke-linejoin: miter"/>
     <path d="M 243.762419 125.515839 
L 245.762419 126.515839 
L 245.762419 124.515839 
z
" clip-path="url(#p63db788af6)" style="fill: #ff7f0e; fill-opacity: 0.5; stroke: #ff7f0e; stroke-opacity: 0.5; stroke-linejoin: miter"/>
     <path d="M 243.762419 142.645477 
L 245.762419 143.645477 
L 245.762419 141.645477 
z
" clip-path="url(#p63db788af6)" style="fill: #ff7f0e; fill-opacity: 0.5; stroke: #ff7f0e; stroke-opacity: 0.5; stroke-linejoin: miter"/>
     <path d="M 243.762419 89.011867 
L 245.762419 90.011867 
L 245.762419 88.011867 
z
" clip-path="url(#p63db788af6)" style="fill: #ff7f0e; fill-opacity: 0.5; stroke: #ff7f0e; stroke-opacity: 0.5; stroke-linejoin: miter"/>
     <path d="M 243.762419 154.891307 
L 245.762419 155.891307 
L 245.762419 153.891307 
z
" clip-path="url(#p63db788af6)" style="fill: #ff7f0e; fill-opacity: 0.5; stroke: #ff7f0e; stroke-opacity: 0.5; stroke-linejoin: miter"/>
     <path d="M 243.762419 162.835154 
L 245.762419 163.835154 
L 245.762419 161.835154 
z
" clip-path="url(#p63db788af6)" style="fill: #ff7f0e; fill-opacity: 0.5; stroke: #ff7f0e; stroke-opacity: 0.5; stroke-linejoin: miter"/>
     <path d="M 243.762419 129.670865 
L 245.762419 130.670865 
L 245.762419 128.670865 
z
" clip-path="url(#p63db788af6)" style="fill: #ff7f0e; fill-opacity: 0.5; stroke: #ff7f0e; stroke-opacity: 0.5; stroke-linejoin: miter"/>
     <path d="M 297.618831 127.222446 
L 295.618831 126.222446 
L 295.618831 128.222446 
z
" clip-path="url(#p63db788af6)" style="fill: #1f77b4; fill-opacity: 0.5; stroke: #1f77b4; stroke-opacity: 0.5; stroke-linejoin: miter"/>
     <path d="M 297.618831 159.756323 
L 295.618831 158.756323 
L 295.618831 160.756323 
z
" clip-path="url(#p63db788af6)" style="fill: #1f77b4; fill-opacity: 0.5; stroke: #1f77b4; stroke-opacity: 0.5; stroke-linejoin: miter"/>
     <path d="M 297.618831 75.410426 
L 295.618831 74.410426 
L 295.618831 76.410426 
z
" clip-path="url(#p63db788af6)" style="fill: #1f77b4; fill-opacity: 0.5; stroke: #1f77b4; stroke-opacity: 0.5; stroke-linejoin: miter"/>
     <path d="M 297.618831 84.330253 
L 295.618831 83.330253 
L 295.618831 85.330253 
z
" clip-path="url(#p63db788af6)" style="fill: #1f77b4; fill-opacity: 0.5; stroke: #1f77b4; stroke-opacity: 0.5; stroke-linejoin: miter"/>
     <path d="M 297.618831 91.305395 
L 295.618831 90.305395 
L 295.618831 92.305395 
z
" clip-path="url(#p63db788af6)" style="fill: #1f77b4; fill-opacity: 0.5; stroke: #1f77b4; stroke-opacity: 0.5; stroke-linejoin: miter"/>
     <path d="M 297.618831 152.618547 
L 295.618831 151.618547 
L 295.618831 153.618547 
z
" clip-path="url(#p63db788af6)" style="fill: #1f77b4; fill-opacity: 0.5; stroke: #1f77b4; stroke-opacity: 0.5; stroke-linejoin: miter"/>
     <path d="M 297.618831 87.421237 
L 295.618831 86.421237 
L 295.618831 88.421237 
z
" clip-path="url(#p63db788af6)" style="fill: #1f77b4; fill-opacity: 0.5; stroke: #1f77b4; stroke-opacity: 0.5; stroke-linejoin: miter"/>
     <path d="M 297.618831 112.889975 
L 295.618831 111.889975 
L 295.618831 113.889975 
z
" clip-path="url(#p63db788af6)" style="fill: #1f77b4; fill-opacity: 0.5; stroke: #1f77b4; stroke-opacity: 0.5; stroke-linejoin: miter"/>
     <path d="M 297.618831 142.890299 
L 295.618831 141.890299 
L 295.618831 143.890299 
z
" clip-path="url(#p63db788af6)" style="fill: #1f77b4; fill-opacity: 0.5; stroke: #1f77b4; stroke-opacity: 0.5; stroke-linejoin: miter"/>
     <path d="M 297.618831 109.003827 
L 295.618831 108.003827 
L 295.618831 110.003827 
z
" clip-path="url(#p63db788af6)" style="fill: #1f77b4; fill-opacity: 0.5; stroke: #1f77b4; stroke-opacity: 0.5; stroke-linejoin: miter"/>
     <path d="M 243.762419 210.560095 
L 245.762419 211.560095 
L 245.762419 209.560095 
z
" clip-path="url(#p63db788af6)" style="fill: #ff7f0e; fill-opacity: 0.5; stroke: #ff7f0e; stroke-opacity: 0.5; stroke-linejoin: miter"/>
     <path d="M 243.762419 185.448187 
L 245.762419 186.448187 
L 245.762419 184.448187 
z
" clip-path="url(#p63db788af6)" style="fill: #ff7f0e; fill-opacity: 0.5; stroke: #ff7f0e; stroke-opacity: 0.5; stroke-linejoin: miter"/>
     <path d="M 243.762419 167.388559 
L 245.762419 168.388559 
L 245.762419 166.388559 
z
" clip-path="url(#p63db788af6)" style="fill: #ff7f0e; fill-opacity: 0.5; stroke: #ff7f0e; stroke-opacity: 0.5; stroke-linejoin: miter"/>
     <path d="M 243.762419 245.070819 
L 245.762419 246.070819 
L 245.762419 244.070819 
z
" clip-path="url(#p63db788af6)" style="fill: #ff7f0e; fill-opacity: 0.5; stroke: #ff7f0e; stroke-opacity: 0.5; stroke-linejoin: miter"/>
     <path d="M 243.762419 226.430226 
L 245.762419 227.430226 
L 245.762419 225.430226 
z
" clip-path="url(#p63db788af6)" style="fill: #ff7f0e; fill-opacity: 0.5; stroke: #ff7f0e; stroke-opacity: 0.5; stroke-linejoin: miter"/>
     <path d="M 243.762419 222.833022 
L 245.762419 223.833022 
L 245.762419 221.833022 
z
" clip-path="url(#p63db788af6)" style="fill: #ff7f0e; fill-opacity: 0.5; stroke: #ff7f0e; stroke-opacity: 0.5; stroke-linejoin: miter"/>
     <path d="M 243.762419 213.625362 
L 245.762419 214.625362 
L 245.762419 212.625362 
z
" clip-path="url(#p63db788af6)" style="fill: #ff7f0e; fill-opacity: 0.5; stroke: #ff7f0e; stroke-opacity: 0.5; stroke-linejoin: miter"/>
     <path d="M 243.762419 198.856267 
L 245.762419 199.856267 
L 245.762419 197.856267 
z
" clip-path="url(#p63db788af6)" style="fill: #ff7f0e; fill-opacity: 0.5; stroke: #ff7f0e; stroke-opacity: 0.5; stroke-linejoin: miter"/>
     <path d="M 243.762419 241.01857 
L 245.762419 242.01857 
L 245.762419 240.01857 
z
" clip-path="url(#p63db788af6)" style="fill: #ff7f0e; fill-opacity: 0.5; stroke: #ff7f0e; stroke-opacity: 0.5; stroke-linejoin: miter"/>
     <path d="M 243.762419 175.272649 
L 245.762419 176.272649 
L 245.762419 174.272649 
z
" clip-path="url(#p63db788af6)" style="fill: #ff7f0e; fill-opacity: 0.5; stroke: #ff7f0e; stroke-opacity: 0.5; stroke-linejoin: miter"/>
     <path d="M 297.618831 251.385998 
L 295.618831 250.385998 
L 295.618831 252.385998 
z
" clip-path="url(#p63db788af6)" style="fill: #1f77b4; fill-opacity: 0.5; stroke: #1f77b4; stroke-opacity: 0.5; stroke-linejoin: miter"/>
     <path d="M 297.618831 176.215781 
L 295.618831 175.215781 
L 295.618831 177.215781 
z
" clip-path="url(#p63db788af6)" style="fill: #1f77b4; fill-opacity: 0.5; stroke: #1f77b4; stroke-opacity: 0.5; stroke-linejoin: miter"/>
     <path d="M 297.618831 239.304673 
L 295.618831 238.304673 
L 295.618831 240.304673 
z
" clip-path="url(#p63db788af6)" style="fill: #1f77b4; fill-opacity: 0.5; stroke: #1f77b4; stroke-opacity: 0.5; stroke-linejoin: miter"/>
     <path d="M 297.618831 201.187501 
L 295.618831 200.187501 
L 295.618831 202.187501 
z
" clip-path="url(#p63db788af6)" style="fill: #1f77b4; fill-opacity: 0.5; stroke: #1f77b4; stroke-opacity: 0.5; stroke-linejoin: miter"/>
     <path d="M 297.618831 178.385147 
L 295.618831 177.385147 
L 295.618831 179.385147 
z
" clip-path="url(#p63db788af6)" style="fill: #1f77b4; fill-opacity: 0.5; stroke: #1f77b4; stroke-opacity: 0.5; stroke-linejoin: miter"/>
     <path d="M 297.618831 199.939937 
L 295.618831 198.939937 
L 295.618831 200.939937 
z
" clip-path="url(#p63db788af6)" style="fill: #1f77b4; fill-opacity: 0.5; stroke: #1f77b4; stroke-opacity: 0.5; stroke-linejoin: miter"/>
     <path d="M 297.618831 238.745875 
L 295.618831 237.745875 
L 295.618831 239.745875 
z
" clip-path="url(#p63db788af6)" style="fill: #1f77b4; fill-opacity: 0.5; stroke: #1f77b4; stroke-opacity: 0.5; stroke-linejoin: miter"/>
     <path d="M 297.618831 213.487873 
L 295.618831 212.487873 
L 295.618831 214.487873 
z
" clip-path="url(#p63db788af6)" style="fill: #1f77b4; fill-opacity: 0.5; stroke: #1f77b4; stroke-opacity: 0.5; stroke-linejoin: miter"/>
     <path d="M 297.618831 169.652069 
L 295.618831 168.652069 
L 295.618831 170.652069 
z
" clip-path="url(#p63db788af6)" style="fill: #1f77b4; fill-opacity: 0.5; stroke: #1f77b4; stroke-opacity: 0.5; stroke-linejoin: miter"/>
     <path d="M 297.618831 227.906213 
L 295.618831 226.906213 
L 295.618831 228.906213 
z
" clip-path="url(#p63db788af6)" style="fill: #1f77b4; fill-opacity: 0.5; stroke: #1f77b4; stroke-opacity: 0.5; stroke-linejoin: miter"/>
     <g id="patch_5">
      <path d="M 43.78125 260.421875 
L 43.78125 22.318125 
" style="fill: none; stroke: #000000; stroke-width: 0.8; stroke-linejoin: miter; stroke-linecap: square"/>
     </g>
     <g id="text_10">
      <!-- defaults_symmetric_migration_changing_rate.yaml -->
      <g transform="translate(117.1525 16.318125)scale(0.12 -0.12)">
       <defs>
        <path id="DejaVuSans-66" d="M 2375 4863 
L 2375 4384 
L 1825 4384 
Q 1516 4384 1395 4259 
Q 1275 4134 1275 3809 
L 1275 3500 
L 2222 3500 
L 2222 3053 
L 1275 3053 
L 1275 0 
L 697 0 
L 697 3053 
L 147 3053 
L 147 3500 
L 697 3500 
L 697 3744 
Q 697 4328 969 4595 
Q 1241 4863 1831 4863 
L 2375 4863 
z
" transform="scale(0.015625)"/>
        <path id="DejaVuSans-75" d="M 544 1381 
L 544 3500 
L 1119 3500 
L 1119 1403 
Q 1119 906 1312 657 
Q 1506 409 1894 409 
Q 2359 409 2629 706 
Q 2900 1003 2900 1516 
L 2900 3500 
L 3475 3500 
L 3475 0 
L 2900 0 
L 2900 538 
Q 2691 219 2414 64 
Q 2138 -91 1772 -91 
Q 1169 -91 856 284 
Q 544 659 544 1381 
z
M 1991 3584 
L 1991 3584 
z
" transform="scale(0.015625)"/>
        <path id="DejaVuSans-6c" d="M 603 4863 
L 1178 4863 
L 1178 0 
L 603 0 
L 603 4863 
z
" transform="scale(0.015625)"/>
        <path id="DejaVuSans-5f" d="M 3263 -1063 
L 3263 -1509 
L -63 -1509 
L -63 -1063 
L 3263 -1063 
z
" transform="scale(0.015625)"/>
        <path id="DejaVuSans-79" d="M 2059 -325 
Q 1816 -950 1584 -1140 
Q 1353 -1331 966 -1331 
L 506 -1331 
L 506 -850 
L 844 -850 
Q 1081 -850 1212 -737 
Q 1344 -625 1503 -206 
L 1606 56 
L 191 3500 
L 800 3500 
L 1894 763 
L 2988 3500 
L 3597 3500 
L 2059 -325 
z
" transform="scale(0.015625)"/>
        <path id="DejaVuSans-63" d="M 3122 3366 
L 3122 2828 
Q 2878 2963 2633 3030 
Q 2388 3097 2138 3097 
Q 1578 3097 1268 2742 
Q 959 2388 959 1747 
Q 959 1106 1268 751 
Q 1578 397 2138 397 
Q 2388 397 2633 464 
Q 2878 531 3122 666 
L 3122 134 
Q 2881 22 2623 -34 
Q 2366 -91 2075 -91 
Q 1284 -91 818 406 
Q 353 903 353 1747 
Q 353 2603 823 3093 
Q 1294 3584 2113 3584 
Q 2378 3584 2631 3529 
Q 2884 3475 3122 3366 
z
" transform="scale(0.015625)"/>
        <path id="DejaVuSans-68" d="M 3513 2113 
L 3513 0 
L 2938 0 
L 2938 2094 
Q 2938 2591 2744 2837 
Q 2550 3084 2163 3084 
Q 1697 3084 1428 2787 
Q 1159 2491 1159 1978 
L 1159 0 
L 581 0 
L 581 4863 
L 1159 4863 
L 1159 2956 
Q 1366 3272 1645 3428 
Q 1925 3584 2291 3584 
Q 2894 3584 3203 3211 
Q 3513 2838 3513 2113 
z
" transform="scale(0.015625)"/>
       </defs>
       <use xlink:href="#DejaVuSans-64"/>
       <use xlink:href="#DejaVuSans-65" x="63.476562"/>
       <use xlink:href="#DejaVuSans-66" x="125"/>
       <use xlink:href="#DejaVuSans-61" x="160.205078"/>
       <use xlink:href="#DejaVuSans-75" x="221.484375"/>
       <use xlink:href="#DejaVuSans-6c" x="284.863281"/>
       <use xlink:href="#DejaVuSans-74" x="312.646484"/>
       <use xlink:href="#DejaVuSans-73" x="351.855469"/>
       <use xlink:href="#DejaVuSans-5f" x="403.955078"/>
       <use xlink:href="#DejaVuSans-73" x="453.955078"/>
       <use xlink:href="#DejaVuSans-79" x="506.054688"/>
       <use xlink:href="#DejaVuSans-6d" x="565.234375"/>
       <use xlink:href="#DejaVuSans-6d" x="662.646484"/>
       <use xlink:href="#DejaVuSans-65" x="760.058594"/>
       <use xlink:href="#DejaVuSans-74" x="821.582031"/>
       <use xlink:href="#DejaVuSans-72" x="860.791016"/>
       <use xlink:href="#DejaVuSans-69" x="901.904297"/>
       <use xlink:href="#DejaVuSans-63" x="929.6875"/>
       <use xlink:href="#DejaVuSans-5f" x="984.667969"/>
       <use xlink:href="#DejaVuSans-6d" x="1034.667969"/>
       <use xlink:href="#DejaVuSans-69" x="1132.080078"/>
       <use xlink:href="#DejaVuSans-67" x="1159.863281"/>
       <use xlink:href="#DejaVuSans-72" x="1223.339844"/>
       <use xlink:href="#DejaVuSans-61" x="1264.453125"/>
       <use xlink:href="#DejaVuSans-74" x="1325.732422"/>
       <use xlink:href="#DejaVuSans-69" x="1364.941406"/>
       <use xlink:href="#DejaVuSans-6f" x="1392.724609"/>
       <use xlink:href="#DejaVuSans-6e" x="1453.90625"/>
       <use xlink:href="#DejaVuSans-5f" x="1517.285156"/>
       <use xlink:href="#DejaVuSans-63" x="1567.285156"/>
       <use xlink:href="#DejaVuSans-68" x="1622.265625"/>
       <use xlink:href="#DejaVuSans-61" x="1685.644531"/>
       <use xlink:href="#DejaVuSans-6e" x="1746.923828"/>
       <use xlink:href="#DejaVuSans-67" x="1810.302734"/>
       <use xlink:href="#DejaVuSans-69" x="1873.779297"/>
       <use xlink:href="#DejaVuSans-6e" x="1901.5625"/>
       <use xlink:href="#DejaVuSans-67" x="1964.941406"/>
       <use xlink:href="#DejaVuSans-5f" x="2028.417969"/>
       <use xlink:href="#DejaVuSans-72" x="2078.417969"/>
       <use xlink:href="#DejaVuSans-61" x="2119.53125"/>
       <use xlink:href="#DejaVuSans-74" x="2180.810547"/>
       <use xlink:href="#DejaVuSans-65" x="2220.019531"/>
       <use xlink:href="#DejaVuSans-2e" x="2281.542969"/>
       <use xlink:href="#DejaVuSans-79" x="2313.330078"/>
       <use xlink:href="#DejaVuSans-61" x="2372.509766"/>
       <use xlink:href="#DejaVuSans-6d" x="2433.789062"/>
       <use xlink:href="#DejaVuSans-6c" x="2531.201172"/>
      </g>
     </g>
    </g>
   </g>
   <defs>
    <clipPath id="p63db788af6">
     <rect x="43.78125" y="22.318125" width="453.81875" height="238.10375"/>
    </clipPath>
   </defs>
  </g>
 </g>
</svg>
