<?xml version="1.0" encoding="utf-8" standalone="no"?>
<!DOCTYPE svg PUBLIC "-//W3C//DTD SVG 1.1//EN"
  "http://www.w3.org/Graphics/SVG/1.1/DTD/svg11.dtd">
<svg xmlns:xlink="http://www.w3.org/1999/xlink" width="504.8pt" height="280.8pt" viewBox="0 0 504.8 280.8" xmlns="http://www.w3.org/2000/svg" version="1.1">
 <metadata>
  <rdf:RDF xmlns:dc="http://purl.org/dc/elements/1.1/" xmlns:cc="http://creativecommons.org/ns#" xmlns:rdf="http://www.w3.org/1999/02/22-rdf-syntax-ns#">
   <cc:Work>
    <dc:type rdf:resource="http://purl.org/dc/dcmitype/StillImage"/>
    <dc:date>2022-07-04T08:23:36.443798</dc:date>
    <dc:format>image/svg+xml</dc:format>
    <dc:creator>
     <cc:Agent>
      <dc:title>Matplotlib v3.5.2, https://matplotlib.org/</dc:title>
     </cc:Agent>
    </dc:creator>
   </cc:Work>
  </rdf:RDF>
 </metadata>
 <defs>
  <style type="text/css">*{stroke-linejoin: round; stroke-linecap: butt}</style>
 </defs>
 <g id="figure_1">
  <g id="patch_1">
   <path d="M 0 280.8 
L 504.8 280.8 
L 504.8 0 
L 0 0 
L 0 280.8 
z
" style="fill: none"/>
  </g>
  <g id="axes_1">
   <g id="patch_2">
    <path d="M 46.965625 260.421875 
L 497.6 260.421875 
L 497.6 22.318125 
L 46.965625 22.318125 
z
" style="fill: #ffffff"/>
   </g>
   <path d="M 171.90811 63.12237 
L 172.90811 63.153806 
L 173.90811 63.190746 
L 174.90811 63.288493 
L 175.90811 63.321015 
L 176.90811 63.394639 
L 177.90811 63.433205 
L 178.90811 63.468618 
L 179.90811 63.526258 
L 180.90811 63.596644 
L 181.90811 63.648608 
L 182.90811 63.707698 
L 183.90811 63.796019 
L 184.90811 63.842163 
L 185.90811 63.884574 
L 186.90811 63.915067 
L 187.90811 63.941112 
L 188.90811 63.962312 
L 189.90811 64.016613 
L 190.90811 64.044551 
L 191.90811 64.074275 
L 192.90811 64.099669 
L 193.90811 64.11087 
L 194.90811 64.120994 
L 195.90811 64.120789 
L 196.90811 64.11128 
L 197.90811 64.099626 
L 198.90811 64.068597 
L 199.90811 64.057429 
L 200.90811 64.027311 
L 201.90811 63.967534 
L 202.90811 63.930343 
L 203.90811 63.891247 
L 204.90811 63.848807 
L 205.90811 63.816042 
L 206.90811 63.748616 
L 207.90811 63.70949 
L 208.90811 63.666815 
L 209.90811 63.596234 
L 210.90811 63.559844 
L 211.90811 63.50144 
L 212.90811 63.390488 
L 213.90811 63.31983 
L 214.90811 63.20689 
L 215.90811 63.161117 
L 217.800088 63.099834 
" clip-path="url(#p4487521e38)" style="fill: none; stroke: #1f77b4; stroke-opacity: 0.5; stroke-width: 0.2; stroke-linecap: square"/>
   <path d="M 171.90811 58.496652 
L 172.90811 58.528088 
L 173.90811 58.565029 
L 174.90811 58.662775 
L 175.90811 58.695297 
L 176.90811 58.768921 
L 177.90811 58.807487 
L 178.90811 58.8429 
L 179.90811 58.90054 
L 180.90811 58.970926 
L 181.90811 59.02289 
L 182.90811 59.08198 
L 183.90811 59.170301 
L 184.90811 59.216445 
L 185.90811 59.258856 
L 186.90811 59.289349 
L 187.90811 59.315394 
L 188.90811 59.336594 
L 189.90811 59.390895 
L 190.90811 59.418833 
L 191.90811 59.448557 
L 192.90811 59.473952 
L 193.90811 59.485152 
L 194.90811 59.495276 
L 195.90811 59.495072 
L 196.90811 59.485562 
L 197.90811 59.473908 
L 198.90811 59.442879 
L 199.90811 59.431711 
L 200.90811 59.401593 
L 201.90811 59.341817 
L 202.90811 59.304625 
L 203.90811 59.265529 
L 204.90811 59.223089 
L 205.90811 59.190324 
L 206.90811 59.122898 
L 207.90811 59.083772 
L 208.90811 59.041097 
L 209.90811 58.970517 
L 210.90811 58.934126 
L 211.90811 58.875723 
L 212.90811 58.76477 
L 213.90811 58.694112 
L 214.90811 58.581172 
L 215.90811 58.535399 
L 217.800088 58.474116 
" clip-path="url(#p4487521e38)" style="fill: none; stroke: #1f77b4; stroke-opacity: 0.5; stroke-width: 0.2; stroke-linecap: square"/>
   <path d="M 171.90811 255.995543 
L 172.90811 256.02698 
L 173.90811 256.06392 
L 174.90811 256.161667 
L 175.90811 256.194188 
L 176.90811 256.267813 
L 177.90811 256.306379 
L 178.90811 256.341792 
L 179.90811 256.399432 
L 180.90811 256.469818 
L 181.90811 256.521782 
L 182.90811 256.580872 
L 183.90811 256.669193 
L 184.90811 256.715337 
L 185.90811 256.757748 
L 186.90811 256.788241 
L 187.90811 256.814286 
L 188.90811 256.835486 
L 189.90811 256.889787 
L 190.90811 256.917724 
L 191.90811 256.947448 
L 192.90811 256.972843 
L 193.90811 256.984044 
L 194.90811 256.994168 
L 195.90811 256.993963 
L 196.90811 256.984453 
L 197.90811 256.9728 
L 198.90811 256.94177 
L 199.90811 256.930603 
L 200.90811 256.900485 
L 201.90811 256.840708 
L 202.90811 256.803517 
L 203.90811 256.76442 
L 204.90811 256.721981 
L 205.90811 256.689216 
L 206.90811 256.621789 
L 207.90811 256.582663 
L 208.90811 256.539989 
L 209.90811 256.469408 
L 210.90811 256.433017 
L 211.90811 256.374614 
L 212.90811 256.263662 
L 213.90811 256.193003 
L 214.90811 256.080063 
L 215.90811 256.034291 
L 217.800088 255.973007 
" clip-path="url(#p4487521e38)" style="fill: none; stroke: #1f77b4; stroke-opacity: 0.5; stroke-width: 0.2; stroke-linecap: square"/>
   <path d="M 171.90811 203.124426 
L 172.90811 203.155863 
L 173.90811 203.192803 
L 174.90811 203.29055 
L 175.90811 203.323071 
L 176.90811 203.396696 
L 177.90811 203.435262 
L 178.90811 203.470675 
L 179.90811 203.528315 
L 180.90811 203.598701 
L 181.90811 203.650665 
L 182.90811 203.709755 
L 183.90811 203.798076 
L 184.90811 203.84422 
L 185.90811 203.886631 
L 186.90811 203.917124 
L 187.90811 203.943169 
L 188.90811 203.964369 
L 189.90811 204.01867 
L 190.90811 204.046607 
L 191.90811 204.076331 
L 192.90811 204.101726 
L 193.90811 204.112927 
L 194.90811 204.123051 
L 195.90811 204.122846 
L 196.90811 204.113336 
L 197.90811 204.101683 
L 198.90811 204.070654 
L 199.90811 204.059486 
L 200.90811 204.029368 
L 201.90811 203.969591 
L 202.90811 203.9324 
L 203.90811 203.893304 
L 204.90811 203.850864 
L 205.90811 203.818099 
L 206.90811 203.750672 
L 207.90811 203.711546 
L 208.90811 203.668872 
L 209.90811 203.598291 
L 210.90811 203.5619 
L 211.90811 203.503497 
L 212.90811 203.392545 
L 213.90811 203.321886 
L 214.90811 203.208946 
L 215.90811 203.163174 
L 217.800088 203.10189 
" clip-path="url(#p4487521e38)" style="fill: none; stroke: #1f77b4; stroke-opacity: 0.5; stroke-width: 0.2; stroke-linecap: square"/>
   <path d="M 171.90811 121.189817 
L 172.90811 121.221253 
L 173.90811 121.258194 
L 174.90811 121.35594 
L 175.90811 121.388462 
L 176.90811 121.462087 
L 177.90811 121.500652 
L 178.90811 121.536065 
L 179.90811 121.593705 
L 180.90811 121.664092 
L 181.90811 121.716056 
L 182.90811 121.775146 
L 183.90811 121.863466 
L 184.90811 121.909611 
L 185.90811 121.952022 
L 186.90811 121.982514 
L 187.90811 122.008559 
L 188.90811 122.029759 
L 189.90811 122.084061 
L 190.90811 122.111998 
L 191.90811 122.141722 
L 192.90811 122.167117 
L 193.90811 122.178317 
L 194.90811 122.188441 
L 195.90811 122.188237 
L 196.90811 122.178727 
L 197.90811 122.167073 
L 198.90811 122.136044 
L 199.90811 122.124876 
L 200.90811 122.094759 
L 201.90811 122.034982 
L 202.90811 121.99779 
L 203.90811 121.958694 
L 204.90811 121.916255 
L 205.90811 121.883489 
L 206.90811 121.816063 
L 207.90811 121.776937 
L 208.90811 121.734263 
L 209.90811 121.663682 
L 210.90811 121.627291 
L 211.90811 121.568888 
L 212.90811 121.457935 
L 213.90811 121.387277 
L 214.90811 121.274337 
L 215.90811 121.228564 
L 217.800088 121.167281 
" clip-path="url(#p4487521e38)" style="fill: none; stroke: #1f77b4; stroke-opacity: 0.5; stroke-width: 0.2; stroke-linecap: square"/>
   <path d="M 171.90811 176.750107 
L 172.90811 176.781543 
L 173.90811 176.818483 
L 174.90811 176.91623 
L 175.90811 176.948752 
L 176.90811 177.022376 
L 177.90811 177.060942 
L 178.90811 177.096355 
L 179.90811 177.153995 
L 180.90811 177.224381 
L 181.90811 177.276345 
L 182.90811 177.335435 
L 183.90811 177.423756 
L 184.90811 177.4699 
L 185.90811 177.512311 
L 186.90811 177.542804 
L 187.90811 177.568849 
L 188.90811 177.590049 
L 189.90811 177.64435 
L 190.90811 177.672288 
L 191.90811 177.702012 
L 192.90811 177.727406 
L 193.90811 177.738607 
L 194.90811 177.748731 
L 195.90811 177.748527 
L 196.90811 177.739017 
L 197.90811 177.727363 
L 198.90811 177.696334 
L 199.90811 177.685166 
L 200.90811 177.655048 
L 201.90811 177.595271 
L 202.90811 177.55808 
L 203.90811 177.518984 
L 204.90811 177.476544 
L 205.90811 177.443779 
L 206.90811 177.376353 
L 207.90811 177.337227 
L 208.90811 177.294552 
L 209.90811 177.223972 
L 210.90811 177.187581 
L 211.90811 177.129177 
L 212.90811 177.018225 
L 213.90811 176.947567 
L 214.90811 176.834627 
L 215.90811 176.788854 
L 217.800088 176.727571 
" clip-path="url(#p4487521e38)" style="fill: none; stroke: #1f77b4; stroke-opacity: 0.5; stroke-width: 0.2; stroke-linecap: square"/>
   <path d="M 171.90811 227.391348 
L 172.90811 227.422784 
L 173.90811 227.459725 
L 174.90811 227.557471 
L 175.90811 227.589993 
L 176.90811 227.663617 
L 177.90811 227.702183 
L 178.90811 227.737596 
L 179.90811 227.795236 
L 180.90811 227.865622 
L 181.90811 227.917586 
L 182.90811 227.976676 
L 183.90811 228.064997 
L 184.90811 228.111142 
L 185.90811 228.153552 
L 186.90811 228.184045 
L 187.90811 228.21009 
L 188.90811 228.23129 
L 189.90811 228.285591 
L 190.90811 228.313529 
L 191.90811 228.343253 
L 192.90811 228.368648 
L 193.90811 228.379848 
L 194.90811 228.389972 
L 195.90811 228.389768 
L 196.90811 228.380258 
L 197.90811 228.368604 
L 198.90811 228.337575 
L 199.90811 228.326407 
L 200.90811 228.296289 
L 201.90811 228.236513 
L 202.90811 228.199321 
L 203.90811 228.160225 
L 204.90811 228.117785 
L 205.90811 228.08502 
L 206.90811 228.017594 
L 207.90811 227.978468 
L 208.90811 227.935793 
L 209.90811 227.865213 
L 210.90811 227.828822 
L 211.90811 227.770419 
L 212.90811 227.659466 
L 213.90811 227.588808 
L 214.90811 227.475868 
L 215.90811 227.430095 
L 217.800088 227.368812 
" clip-path="url(#p4487521e38)" style="fill: none; stroke: #1f77b4; stroke-opacity: 0.5; stroke-width: 0.2; stroke-linecap: square"/>
   <path d="M 171.90811 194.357679 
L 172.90811 194.389115 
L 173.90811 194.426056 
L 174.90811 194.523802 
L 175.90811 194.556324 
L 176.90811 194.629948 
L 177.90811 194.668514 
L 178.90811 194.703927 
L 179.90811 194.761567 
L 180.90811 194.831953 
L 181.90811 194.883917 
L 182.90811 194.943007 
L 183.90811 195.031328 
L 184.90811 195.077472 
L 185.90811 195.119883 
L 186.90811 195.150376 
L 187.90811 195.176421 
L 188.90811 195.197621 
L 189.90811 195.251922 
L 190.90811 195.27986 
L 191.90811 195.309584 
L 192.90811 195.334979 
L 193.90811 195.346179 
L 194.90811 195.356303 
L 195.90811 195.356099 
L 196.90811 195.346589 
L 197.90811 195.334935 
L 198.90811 195.303906 
L 199.90811 195.292738 
L 200.90811 195.26262 
L 201.90811 195.202844 
L 202.90811 195.165652 
L 203.90811 195.126556 
L 204.90811 195.084116 
L 205.90811 195.051351 
L 206.90811 194.983925 
L 207.90811 194.944799 
L 208.90811 194.902124 
L 209.90811 194.831544 
L 210.90811 194.795153 
L 211.90811 194.73675 
L 212.90811 194.625797 
L 213.90811 194.555139 
L 214.90811 194.442199 
L 215.90811 194.396426 
L 217.800088 194.335143 
" clip-path="url(#p4487521e38)" style="fill: none; stroke: #1f77b4; stroke-opacity: 0.5; stroke-width: 0.2; stroke-linecap: square"/>
   <path d="M 171.90811 60.01662 
L 172.90811 60.048056 
L 173.90811 60.084997 
L 174.90811 60.182743 
L 175.90811 60.215265 
L 176.90811 60.288889 
L 177.90811 60.327455 
L 178.90811 60.362868 
L 179.90811 60.420508 
L 180.90811 60.490894 
L 181.90811 60.542858 
L 182.90811 60.601948 
L 183.90811 60.690269 
L 184.90811 60.736413 
L 185.90811 60.778824 
L 186.90811 60.809317 
L 187.90811 60.835362 
L 188.90811 60.856562 
L 189.90811 60.910863 
L 190.90811 60.938801 
L 191.90811 60.968525 
L 192.90811 60.99392 
L 193.90811 61.00512 
L 194.90811 61.015244 
L 195.90811 61.01504 
L 196.90811 61.00553 
L 197.90811 60.993876 
L 198.90811 60.962847 
L 199.90811 60.951679 
L 200.90811 60.921561 
L 201.90811 60.861784 
L 202.90811 60.824593 
L 203.90811 60.785497 
L 204.90811 60.743057 
L 205.90811 60.710292 
L 206.90811 60.642866 
L 207.90811 60.60374 
L 208.90811 60.561065 
L 209.90811 60.490485 
L 210.90811 60.454094 
L 211.90811 60.395691 
L 212.90811 60.284738 
L 213.90811 60.21408 
L 214.90811 60.10114 
L 215.90811 60.055367 
L 217.800088 59.994084 
" clip-path="url(#p4487521e38)" style="fill: none; stroke: #1f77b4; stroke-opacity: 0.5; stroke-width: 0.2; stroke-linecap: square"/>
   <path d="M 171.90811 196.560375 
L 172.90811 196.591811 
L 173.90811 196.628751 
L 174.90811 196.726498 
L 175.90811 196.759019 
L 176.90811 196.832644 
L 177.90811 196.87121 
L 178.90811 196.906623 
L 179.90811 196.964263 
L 180.90811 197.034649 
L 181.90811 197.086613 
L 182.90811 197.145703 
L 183.90811 197.234024 
L 184.90811 197.280168 
L 185.90811 197.322579 
L 186.90811 197.353072 
L 187.90811 197.379117 
L 188.90811 197.400317 
L 189.90811 197.454618 
L 190.90811 197.482556 
L 191.90811 197.51228 
L 192.90811 197.537674 
L 193.90811 197.548875 
L 194.90811 197.558999 
L 195.90811 197.558794 
L 196.90811 197.549284 
L 197.90811 197.537631 
L 198.90811 197.506602 
L 199.90811 197.495434 
L 200.90811 197.465316 
L 201.90811 197.405539 
L 202.90811 197.368348 
L 203.90811 197.329252 
L 204.90811 197.286812 
L 205.90811 197.254047 
L 206.90811 197.18662 
L 207.90811 197.147495 
L 208.90811 197.10482 
L 209.90811 197.034239 
L 210.90811 196.997849 
L 211.90811 196.939445 
L 212.90811 196.828493 
L 213.90811 196.757834 
L 214.90811 196.644895 
L 215.90811 196.599122 
L 217.800088 196.537838 
" clip-path="url(#p4487521e38)" style="fill: none; stroke: #1f77b4; stroke-opacity: 0.5; stroke-width: 0.2; stroke-linecap: square"/>
   <path d="M 217.800088 31.333894 
L 216.800088 31.302458 
L 215.800088 31.265517 
L 214.800088 31.167771 
L 213.800088 31.135249 
L 212.800088 31.061624 
L 211.800088 31.023059 
L 210.800088 30.987646 
L 209.800088 30.930006 
L 208.800088 30.85962 
L 207.800088 30.807655 
L 206.800088 30.748566 
L 205.800088 30.660245 
L 204.800088 30.6141 
L 203.800088 30.571689 
L 202.800088 30.541197 
L 201.800088 30.515152 
L 200.800088 30.493952 
L 199.800088 30.439651 
L 198.800088 30.411713 
L 197.800088 30.381989 
L 196.800088 30.356594 
L 195.800088 30.345394 
L 194.800088 30.33527 
L 193.800088 30.335474 
L 192.800088 30.344984 
L 191.800088 30.356638 
L 190.800088 30.387667 
L 189.800088 30.398835 
L 188.800088 30.428952 
L 187.800088 30.488729 
L 186.800088 30.525921 
L 185.800088 30.565017 
L 184.800088 30.607457 
L 183.800088 30.640222 
L 182.800088 30.707648 
L 181.800088 30.746774 
L 180.800088 30.789449 
L 179.800088 30.860029 
L 178.800088 30.89642 
L 177.800088 30.954823 
L 176.800088 31.065776 
L 175.800088 31.136434 
L 174.800088 31.249374 
L 173.800088 31.295147 
L 171.90811 31.35643 
" clip-path="url(#p4487521e38)" style="fill: none; stroke: #ff7f0e; stroke-opacity: 0.5; stroke-width: 0.2; stroke-linecap: square"/>
   <path d="M 217.800088 191.630053 
L 216.800088 191.598616 
L 215.800088 191.561676 
L 214.800088 191.463929 
L 213.800088 191.431408 
L 212.800088 191.357783 
L 211.800088 191.319217 
L 210.800088 191.283804 
L 209.800088 191.226164 
L 208.800088 191.155778 
L 207.800088 191.103814 
L 206.800088 191.044724 
L 205.800088 190.956403 
L 204.800088 190.910259 
L 203.800088 190.867848 
L 202.800088 190.837355 
L 201.800088 190.81131 
L 200.800088 190.79011 
L 199.800088 190.735809 
L 198.800088 190.707872 
L 197.800088 190.678148 
L 196.800088 190.652753 
L 195.800088 190.641552 
L 194.800088 190.631428 
L 193.800088 190.631633 
L 192.800088 190.641143 
L 191.800088 190.652796 
L 190.800088 190.683825 
L 189.800088 190.694993 
L 188.800088 190.725111 
L 187.800088 190.784888 
L 186.800088 190.822079 
L 185.800088 190.861175 
L 184.800088 190.903615 
L 183.800088 190.93638 
L 182.800088 191.003807 
L 181.800088 191.042933 
L 180.800088 191.085607 
L 179.800088 191.156188 
L 178.800088 191.192579 
L 177.800088 191.250982 
L 176.800088 191.361934 
L 175.800088 191.432593 
L 174.800088 191.545532 
L 173.800088 191.591305 
L 171.90811 191.652589 
" clip-path="url(#p4487521e38)" style="fill: none; stroke: #ff7f0e; stroke-opacity: 0.5; stroke-width: 0.2; stroke-linecap: square"/>
   <path d="M 217.800088 23.942842 
L 216.800088 23.911405 
L 215.800088 23.874465 
L 214.800088 23.776718 
L 213.800088 23.744197 
L 212.800088 23.670572 
L 211.800088 23.632006 
L 210.800088 23.596593 
L 209.800088 23.538953 
L 208.800088 23.468567 
L 207.800088 23.416603 
L 206.800088 23.357513 
L 205.800088 23.269192 
L 204.800088 23.223048 
L 203.800088 23.180637 
L 202.800088 23.150144 
L 201.800088 23.124099 
L 200.800088 23.102899 
L 199.800088 23.048598 
L 198.800088 23.020661 
L 197.800088 22.990937 
L 196.800088 22.965542 
L 195.800088 22.954341 
L 194.800088 22.944218 
L 193.800088 22.944422 
L 192.800088 22.953932 
L 191.800088 22.965585 
L 190.800088 22.996615 
L 189.800088 23.007782 
L 188.800088 23.0379 
L 187.800088 23.097677 
L 186.800088 23.134868 
L 185.800088 23.173965 
L 184.800088 23.216404 
L 183.800088 23.249169 
L 182.800088 23.316596 
L 181.800088 23.355722 
L 180.800088 23.398396 
L 179.800088 23.468977 
L 178.800088 23.505368 
L 177.800088 23.563771 
L 176.800088 23.674723 
L 175.800088 23.745382 
L 174.800088 23.858322 
L 173.800088 23.904094 
L 171.90811 23.965378 
" clip-path="url(#p4487521e38)" style="fill: none; stroke: #ff7f0e; stroke-opacity: 0.5; stroke-width: 0.2; stroke-linecap: square"/>
   <path d="M 217.800088 35.881842 
L 216.800088 35.850406 
L 215.800088 35.813466 
L 214.800088 35.715719 
L 213.800088 35.683197 
L 212.800088 35.609573 
L 211.800088 35.571007 
L 210.800088 35.535594 
L 209.800088 35.477954 
L 208.800088 35.407568 
L 207.800088 35.355604 
L 206.800088 35.296514 
L 205.800088 35.208193 
L 204.800088 35.162049 
L 203.800088 35.119638 
L 202.800088 35.089145 
L 201.800088 35.0631 
L 200.800088 35.0419 
L 199.800088 34.987599 
L 198.800088 34.959661 
L 197.800088 34.929937 
L 196.800088 34.904543 
L 195.800088 34.893342 
L 194.800088 34.883218 
L 193.800088 34.883423 
L 192.800088 34.892932 
L 191.800088 34.904586 
L 190.800088 34.935615 
L 189.800088 34.946783 
L 188.800088 34.976901 
L 187.800088 35.036678 
L 186.800088 35.073869 
L 185.800088 35.112965 
L 184.800088 35.155405 
L 183.800088 35.18817 
L 182.800088 35.255596 
L 181.800088 35.294722 
L 180.800088 35.337397 
L 179.800088 35.407978 
L 178.800088 35.444368 
L 177.800088 35.502772 
L 176.800088 35.613724 
L 175.800088 35.684382 
L 174.800088 35.797322 
L 173.800088 35.843095 
L 171.90811 35.904378 
" clip-path="url(#p4487521e38)" style="fill: none; stroke: #ff7f0e; stroke-opacity: 0.5; stroke-width: 0.2; stroke-linecap: square"/>
   <path d="M 217.800088 224.567508 
L 216.800088 224.536072 
L 215.800088 224.499131 
L 214.800088 224.401385 
L 213.800088 224.368863 
L 212.800088 224.295239 
L 211.800088 224.256673 
L 210.800088 224.22126 
L 209.800088 224.16362 
L 208.800088 224.093234 
L 207.800088 224.041269 
L 206.800088 223.98218 
L 205.800088 223.893859 
L 204.800088 223.847714 
L 203.800088 223.805304 
L 202.800088 223.774811 
L 201.800088 223.748766 
L 200.800088 223.727566 
L 199.800088 223.673265 
L 198.800088 223.645327 
L 197.800088 223.615603 
L 196.800088 223.590208 
L 195.800088 223.579008 
L 194.800088 223.568884 
L 193.800088 223.569088 
L 192.800088 223.578598 
L 191.800088 223.590252 
L 190.800088 223.621281 
L 189.800088 223.632449 
L 188.800088 223.662567 
L 187.800088 223.722343 
L 186.800088 223.759535 
L 185.800088 223.798631 
L 184.800088 223.841071 
L 183.800088 223.873836 
L 182.800088 223.941262 
L 181.800088 223.980388 
L 180.800088 224.023063 
L 179.800088 224.093643 
L 178.800088 224.130034 
L 177.800088 224.188437 
L 176.800088 224.29939 
L 175.800088 224.370048 
L 174.800088 224.482988 
L 173.800088 224.528761 
L 171.90811 224.590044 
" clip-path="url(#p4487521e38)" style="fill: none; stroke: #ff7f0e; stroke-opacity: 0.5; stroke-width: 0.2; stroke-linecap: square"/>
   <path d="M 217.800088 186.274217 
L 216.800088 186.242781 
L 215.800088 186.20584 
L 214.800088 186.108094 
L 213.800088 186.075572 
L 212.800088 186.001948 
L 211.800088 185.963382 
L 210.800088 185.927969 
L 209.800088 185.870329 
L 208.800088 185.799943 
L 207.800088 185.747979 
L 206.800088 185.688889 
L 205.800088 185.600568 
L 204.800088 185.554423 
L 203.800088 185.512013 
L 202.800088 185.48152 
L 201.800088 185.455475 
L 200.800088 185.434275 
L 199.800088 185.379974 
L 198.800088 185.352036 
L 197.800088 185.322312 
L 196.800088 185.296917 
L 195.800088 185.285717 
L 194.800088 185.275593 
L 193.800088 185.275797 
L 192.800088 185.285307 
L 191.800088 185.296961 
L 190.800088 185.32799 
L 189.800088 185.339158 
L 188.800088 185.369276 
L 187.800088 185.429052 
L 186.800088 185.466244 
L 185.800088 185.50534 
L 184.800088 185.54778 
L 183.800088 185.580545 
L 182.800088 185.647971 
L 181.800088 185.687097 
L 180.800088 185.729772 
L 179.800088 185.800352 
L 178.800088 185.836743 
L 177.800088 185.895146 
L 176.800088 186.006099 
L 175.800088 186.076757 
L 174.800088 186.189697 
L 173.800088 186.23547 
L 171.90811 186.296753 
" clip-path="url(#p4487521e38)" style="fill: none; stroke: #ff7f0e; stroke-opacity: 0.5; stroke-width: 0.2; stroke-linecap: square"/>
   <path d="M 217.800088 27.72461 
L 216.800088 27.693173 
L 215.800088 27.656233 
L 214.800088 27.558486 
L 213.800088 27.525965 
L 212.800088 27.45234 
L 211.800088 27.413774 
L 210.800088 27.378361 
L 209.800088 27.320721 
L 208.800088 27.250335 
L 207.800088 27.198371 
L 206.800088 27.139281 
L 205.800088 27.05096 
L 204.800088 27.004816 
L 203.800088 26.962405 
L 202.800088 26.931912 
L 201.800088 26.905867 
L 200.800088 26.884667 
L 199.800088 26.830366 
L 198.800088 26.802429 
L 197.800088 26.772705 
L 196.800088 26.74731 
L 195.800088 26.736109 
L 194.800088 26.725985 
L 193.800088 26.72619 
L 192.800088 26.7357 
L 191.800088 26.747353 
L 190.800088 26.778383 
L 189.800088 26.78955 
L 188.800088 26.819668 
L 187.800088 26.879445 
L 186.800088 26.916636 
L 185.800088 26.955733 
L 184.800088 26.998172 
L 183.800088 27.030937 
L 182.800088 27.098364 
L 181.800088 27.13749 
L 180.800088 27.180164 
L 179.800088 27.250745 
L 178.800088 27.287136 
L 177.800088 27.345539 
L 176.800088 27.456491 
L 175.800088 27.52715 
L 174.800088 27.64009 
L 173.800088 27.685862 
L 171.90811 27.747146 
" clip-path="url(#p4487521e38)" style="fill: none; stroke: #ff7f0e; stroke-opacity: 0.5; stroke-width: 0.2; stroke-linecap: square"/>
   <path d="M 217.800088 202.885589 
L 216.800088 202.854153 
L 215.800088 202.817212 
L 214.800088 202.719466 
L 213.800088 202.686944 
L 212.800088 202.61332 
L 211.800088 202.574754 
L 210.800088 202.539341 
L 209.800088 202.481701 
L 208.800088 202.411315 
L 207.800088 202.359351 
L 206.800088 202.300261 
L 205.800088 202.21194 
L 204.800088 202.165796 
L 203.800088 202.123385 
L 202.800088 202.092892 
L 201.800088 202.066847 
L 200.800088 202.045647 
L 199.800088 201.991346 
L 198.800088 201.963408 
L 197.800088 201.933684 
L 196.800088 201.908289 
L 195.800088 201.897089 
L 194.800088 201.886965 
L 193.800088 201.887169 
L 192.800088 201.896679 
L 191.800088 201.908333 
L 190.800088 201.939362 
L 189.800088 201.95053 
L 188.800088 201.980648 
L 187.800088 202.040424 
L 186.800088 202.077616 
L 185.800088 202.116712 
L 184.800088 202.159152 
L 183.800088 202.191917 
L 182.800088 202.259343 
L 181.800088 202.298469 
L 180.800088 202.341144 
L 179.800088 202.411724 
L 178.800088 202.448115 
L 177.800088 202.506518 
L 176.800088 202.617471 
L 175.800088 202.688129 
L 174.800088 202.801069 
L 173.800088 202.846842 
L 171.90811 202.908125 
" clip-path="url(#p4487521e38)" style="fill: none; stroke: #ff7f0e; stroke-opacity: 0.5; stroke-width: 0.2; stroke-linecap: square"/>
   <path d="M 217.800088 118.01891 
L 216.800088 117.987473 
L 215.800088 117.950533 
L 214.800088 117.852786 
L 213.800088 117.820265 
L 212.800088 117.74664 
L 211.800088 117.708074 
L 210.800088 117.672661 
L 209.800088 117.615021 
L 208.800088 117.544635 
L 207.800088 117.492671 
L 206.800088 117.433581 
L 205.800088 117.34526 
L 204.800088 117.299116 
L 203.800088 117.256705 
L 202.800088 117.226212 
L 201.800088 117.200167 
L 200.800088 117.178967 
L 199.800088 117.124666 
L 198.800088 117.096729 
L 197.800088 117.067005 
L 196.800088 117.04161 
L 195.800088 117.030409 
L 194.800088 117.020285 
L 193.800088 117.02049 
L 192.800088 117.03 
L 191.800088 117.041653 
L 190.800088 117.072683 
L 189.800088 117.08385 
L 188.800088 117.113968 
L 187.800088 117.173745 
L 186.800088 117.210936 
L 185.800088 117.250033 
L 184.800088 117.292472 
L 183.800088 117.325237 
L 182.800088 117.392664 
L 181.800088 117.43179 
L 180.800088 117.474464 
L 179.800088 117.545045 
L 178.800088 117.581436 
L 177.800088 117.639839 
L 176.800088 117.750791 
L 175.800088 117.82145 
L 174.800088 117.93439 
L 173.800088 117.980162 
L 171.90811 118.041446 
" clip-path="url(#p4487521e38)" style="fill: none; stroke: #ff7f0e; stroke-opacity: 0.5; stroke-width: 0.2; stroke-linecap: square"/>
   <path d="M 217.800088 47.410169 
L 216.800088 47.378732 
L 215.800088 47.341792 
L 214.800088 47.244045 
L 213.800088 47.211524 
L 212.800088 47.137899 
L 211.800088 47.099333 
L 210.800088 47.06392 
L 209.800088 47.00628 
L 208.800088 46.935894 
L 207.800088 46.88393 
L 206.800088 46.82484 
L 205.800088 46.736519 
L 204.800088 46.690375 
L 203.800088 46.647964 
L 202.800088 46.617471 
L 201.800088 46.591426 
L 200.800088 46.570226 
L 199.800088 46.515925 
L 198.800088 46.487988 
L 197.800088 46.458264 
L 196.800088 46.432869 
L 195.800088 46.421668 
L 194.800088 46.411544 
L 193.800088 46.411749 
L 192.800088 46.421259 
L 191.800088 46.432912 
L 190.800088 46.463942 
L 189.800088 46.475109 
L 188.800088 46.505227 
L 187.800088 46.565004 
L 186.800088 46.602195 
L 185.800088 46.641292 
L 184.800088 46.683731 
L 183.800088 46.716496 
L 182.800088 46.783923 
L 181.800088 46.823049 
L 180.800088 46.865723 
L 179.800088 46.936304 
L 178.800088 46.972695 
L 177.800088 47.031098 
L 176.800088 47.14205 
L 175.800088 47.212709 
L 174.800088 47.325649 
L 173.800088 47.371421 
L 171.90811 47.432705 
" clip-path="url(#p4487521e38)" style="fill: none; stroke: #ff7f0e; stroke-opacity: 0.5; stroke-width: 0.2; stroke-linecap: square"/>
   <path d="M 326.765537 135.447633 
L 327.765537 135.479069 
L 328.765537 135.516009 
L 329.765537 135.613756 
L 330.765537 135.646278 
L 331.765537 135.719902 
L 332.765537 135.758468 
L 333.765537 135.793881 
L 334.765537 135.851521 
L 335.765537 135.921907 
L 336.765537 135.973871 
L 337.765537 136.032961 
L 338.765537 136.121282 
L 339.765537 136.167426 
L 340.765537 136.209837 
L 341.765537 136.24033 
L 342.765537 136.266375 
L 343.765537 136.287575 
L 344.765537 136.341876 
L 345.765537 136.369814 
L 346.765537 136.399538 
L 347.765537 136.424932 
L 348.765537 136.436133 
L 349.765537 136.446257 
L 350.765537 136.446052 
L 351.765537 136.436543 
L 352.765537 136.424889 
L 353.765537 136.39386 
L 354.765537 136.382692 
L 355.765537 136.352574 
L 356.765537 136.292797 
L 357.765537 136.255606 
L 358.765537 136.21651 
L 359.765537 136.17407 
L 360.765537 136.141305 
L 361.765537 136.073878 
L 362.765537 136.034753 
L 363.765537 135.992078 
L 364.765537 135.921497 
L 365.765537 135.885107 
L 366.765537 135.826703 
L 367.765537 135.715751 
L 368.765537 135.645092 
L 369.765537 135.532153 
L 370.765537 135.48638 
L 372.657515 135.425097 
" clip-path="url(#p4487521e38)" style="fill: none; stroke: #ff7f0e; stroke-opacity: 0.5; stroke-width: 0.2; stroke-linecap: square"/>
   <path d="M 326.765537 236.395518 
L 327.765537 236.426954 
L 328.765537 236.463895 
L 329.765537 236.561641 
L 330.765537 236.594163 
L 331.765537 236.667788 
L 332.765537 236.706353 
L 333.765537 236.741766 
L 334.765537 236.799406 
L 335.765537 236.869793 
L 336.765537 236.921757 
L 337.765537 236.980847 
L 338.765537 237.069167 
L 339.765537 237.115312 
L 340.765537 237.157723 
L 341.765537 237.188215 
L 342.765537 237.21426 
L 343.765537 237.23546 
L 344.765537 237.289762 
L 345.765537 237.317699 
L 346.765537 237.347423 
L 347.765537 237.372818 
L 348.765537 237.384018 
L 349.765537 237.394142 
L 350.765537 237.393938 
L 351.765537 237.384428 
L 352.765537 237.372774 
L 353.765537 237.341745 
L 354.765537 237.330577 
L 355.765537 237.30046 
L 356.765537 237.240683 
L 357.765537 237.203491 
L 358.765537 237.164395 
L 359.765537 237.121955 
L 360.765537 237.08919 
L 361.765537 237.021764 
L 362.765537 236.982638 
L 363.765537 236.939964 
L 364.765537 236.869383 
L 365.765537 236.832992 
L 366.765537 236.774589 
L 367.765537 236.663636 
L 368.765537 236.592978 
L 369.765537 236.480038 
L 370.765537 236.434265 
L 372.657515 236.372982 
" clip-path="url(#p4487521e38)" style="fill: none; stroke: #ff7f0e; stroke-opacity: 0.5; stroke-width: 0.2; stroke-linecap: square"/>
   <path d="M 326.765537 147.752463 
L 327.765537 147.7839 
L 328.765537 147.82084 
L 329.765537 147.918586 
L 330.765537 147.951108 
L 331.765537 148.024733 
L 332.765537 148.063298 
L 333.765537 148.098712 
L 334.765537 148.156351 
L 335.765537 148.226738 
L 336.765537 148.278702 
L 337.765537 148.337792 
L 338.765537 148.426113 
L 339.765537 148.472257 
L 340.765537 148.514668 
L 341.765537 148.54516 
L 342.765537 148.571205 
L 343.765537 148.592406 
L 344.765537 148.646707 
L 345.765537 148.674644 
L 346.765537 148.704368 
L 347.765537 148.729763 
L 348.765537 148.740963 
L 349.765537 148.751087 
L 350.765537 148.750883 
L 351.765537 148.741373 
L 352.765537 148.72972 
L 353.765537 148.69869 
L 354.765537 148.687522 
L 355.765537 148.657405 
L 356.765537 148.597628 
L 357.765537 148.560436 
L 358.765537 148.52134 
L 359.765537 148.478901 
L 360.765537 148.446136 
L 361.765537 148.378709 
L 362.765537 148.339583 
L 363.765537 148.296909 
L 364.765537 148.226328 
L 365.765537 148.189937 
L 366.765537 148.131534 
L 367.765537 148.020581 
L 368.765537 147.949923 
L 369.765537 147.836983 
L 370.765537 147.79121 
L 372.657515 147.729927 
" clip-path="url(#p4487521e38)" style="fill: none; stroke: #ff7f0e; stroke-opacity: 0.5; stroke-width: 0.2; stroke-linecap: square"/>
   <path d="M 326.765537 200.535979 
L 327.765537 200.567415 
L 328.765537 200.604356 
L 329.765537 200.702102 
L 330.765537 200.734624 
L 331.765537 200.808248 
L 332.765537 200.846814 
L 333.765537 200.882227 
L 334.765537 200.939867 
L 335.765537 201.010253 
L 336.765537 201.062218 
L 337.765537 201.121307 
L 338.765537 201.209628 
L 339.765537 201.255773 
L 340.765537 201.298183 
L 341.765537 201.328676 
L 342.765537 201.354721 
L 343.765537 201.375921 
L 344.765537 201.430222 
L 345.765537 201.45816 
L 346.765537 201.487884 
L 347.765537 201.513279 
L 348.765537 201.524479 
L 349.765537 201.534603 
L 350.765537 201.534399 
L 351.765537 201.524889 
L 352.765537 201.513235 
L 353.765537 201.482206 
L 354.765537 201.471038 
L 355.765537 201.44092 
L 356.765537 201.381144 
L 357.765537 201.343952 
L 358.765537 201.304856 
L 359.765537 201.262416 
L 360.765537 201.229651 
L 361.765537 201.162225 
L 362.765537 201.123099 
L 363.765537 201.080424 
L 364.765537 201.009844 
L 365.765537 200.973453 
L 366.765537 200.91505 
L 367.765537 200.804097 
L 368.765537 200.733439 
L 369.765537 200.620499 
L 370.765537 200.574726 
L 372.657515 200.513443 
" clip-path="url(#p4487521e38)" style="fill: none; stroke: #ff7f0e; stroke-opacity: 0.5; stroke-width: 0.2; stroke-linecap: square"/>
   <path d="M 326.765537 103.637077 
L 327.765537 103.668513 
L 328.765537 103.705453 
L 329.765537 103.8032 
L 330.765537 103.835721 
L 331.765537 103.909346 
L 332.765537 103.947912 
L 333.765537 103.983325 
L 334.765537 104.040965 
L 335.765537 104.111351 
L 336.765537 104.163315 
L 337.765537 104.222405 
L 338.765537 104.310726 
L 339.765537 104.35687 
L 340.765537 104.399281 
L 341.765537 104.429774 
L 342.765537 104.455819 
L 343.765537 104.477019 
L 344.765537 104.53132 
L 345.765537 104.559258 
L 346.765537 104.588982 
L 347.765537 104.614376 
L 348.765537 104.625577 
L 349.765537 104.635701 
L 350.765537 104.635496 
L 351.765537 104.625986 
L 352.765537 104.614333 
L 353.765537 104.583304 
L 354.765537 104.572136 
L 355.765537 104.542018 
L 356.765537 104.482241 
L 357.765537 104.44505 
L 358.765537 104.405954 
L 359.765537 104.363514 
L 360.765537 104.330749 
L 361.765537 104.263322 
L 362.765537 104.224196 
L 363.765537 104.181522 
L 364.765537 104.110941 
L 365.765537 104.07455 
L 366.765537 104.016147 
L 367.765537 103.905195 
L 368.765537 103.834536 
L 369.765537 103.721597 
L 370.765537 103.675824 
L 372.657515 103.61454 
" clip-path="url(#p4487521e38)" style="fill: none; stroke: #ff7f0e; stroke-opacity: 0.5; stroke-width: 0.2; stroke-linecap: square"/>
   <path d="M 326.765537 162.855858 
L 327.765537 162.887295 
L 328.765537 162.924235 
L 329.765537 163.021982 
L 330.765537 163.054503 
L 331.765537 163.128128 
L 332.765537 163.166694 
L 333.765537 163.202107 
L 334.765537 163.259747 
L 335.765537 163.330133 
L 336.765537 163.382097 
L 337.765537 163.441187 
L 338.765537 163.529508 
L 339.765537 163.575652 
L 340.765537 163.618063 
L 341.765537 163.648556 
L 342.765537 163.674601 
L 343.765537 163.695801 
L 344.765537 163.750102 
L 345.765537 163.778039 
L 346.765537 163.807763 
L 347.765537 163.833158 
L 348.765537 163.844359 
L 349.765537 163.854483 
L 350.765537 163.854278 
L 351.765537 163.844768 
L 352.765537 163.833115 
L 353.765537 163.802086 
L 354.765537 163.790918 
L 355.765537 163.7608 
L 356.765537 163.701023 
L 357.765537 163.663832 
L 358.765537 163.624736 
L 359.765537 163.582296 
L 360.765537 163.549531 
L 361.765537 163.482104 
L 362.765537 163.442978 
L 363.765537 163.400304 
L 364.765537 163.329723 
L 365.765537 163.293332 
L 366.765537 163.234929 
L 367.765537 163.123977 
L 368.765537 163.053318 
L 369.765537 162.940379 
L 370.765537 162.894606 
L 372.657515 162.833322 
" clip-path="url(#p4487521e38)" style="fill: none; stroke: #ff7f0e; stroke-opacity: 0.5; stroke-width: 0.2; stroke-linecap: square"/>
   <path d="M 326.765537 243.643061 
L 327.765537 243.674497 
L 328.765537 243.711437 
L 329.765537 243.809184 
L 330.765537 243.841706 
L 331.765537 243.91533 
L 332.765537 243.953896 
L 333.765537 243.989309 
L 334.765537 244.046949 
L 335.765537 244.117335 
L 336.765537 244.169299 
L 337.765537 244.228389 
L 338.765537 244.31671 
L 339.765537 244.362854 
L 340.765537 244.405265 
L 341.765537 244.435758 
L 342.765537 244.461803 
L 343.765537 244.483003 
L 344.765537 244.537304 
L 345.765537 244.565242 
L 346.765537 244.594966 
L 347.765537 244.62036 
L 348.765537 244.631561 
L 349.765537 244.641685 
L 350.765537 244.641481 
L 351.765537 244.631971 
L 352.765537 244.620317 
L 353.765537 244.589288 
L 354.765537 244.57812 
L 355.765537 244.548002 
L 356.765537 244.488225 
L 357.765537 244.451034 
L 358.765537 244.411938 
L 359.765537 244.369498 
L 360.765537 244.336733 
L 361.765537 244.269307 
L 362.765537 244.230181 
L 363.765537 244.187506 
L 364.765537 244.116926 
L 365.765537 244.080535 
L 366.765537 244.022131 
L 367.765537 243.911179 
L 368.765537 243.840521 
L 369.765537 243.727581 
L 370.765537 243.681808 
L 372.657515 243.620525 
" clip-path="url(#p4487521e38)" style="fill: none; stroke: #ff7f0e; stroke-opacity: 0.5; stroke-width: 0.2; stroke-linecap: square"/>
   <path d="M 326.765537 100.232187 
L 327.765537 100.263623 
L 328.765537 100.300563 
L 329.765537 100.39831 
L 330.765537 100.430831 
L 331.765537 100.504456 
L 332.765537 100.543022 
L 333.765537 100.578435 
L 334.765537 100.636075 
L 335.765537 100.706461 
L 336.765537 100.758425 
L 337.765537 100.817515 
L 338.765537 100.905836 
L 339.765537 100.95198 
L 340.765537 100.994391 
L 341.765537 101.024884 
L 342.765537 101.050929 
L 343.765537 101.072129 
L 344.765537 101.12643 
L 345.765537 101.154368 
L 346.765537 101.184092 
L 347.765537 101.209486 
L 348.765537 101.220687 
L 349.765537 101.230811 
L 350.765537 101.230606 
L 351.765537 101.221097 
L 352.765537 101.209443 
L 353.765537 101.178414 
L 354.765537 101.167246 
L 355.765537 101.137128 
L 356.765537 101.077351 
L 357.765537 101.04016 
L 358.765537 101.001064 
L 359.765537 100.958624 
L 360.765537 100.925859 
L 361.765537 100.858432 
L 362.765537 100.819307 
L 363.765537 100.776632 
L 364.765537 100.706051 
L 365.765537 100.669661 
L 366.765537 100.611257 
L 367.765537 100.500305 
L 368.765537 100.429646 
L 369.765537 100.316707 
L 370.765537 100.270934 
L 372.657515 100.209651 
" clip-path="url(#p4487521e38)" style="fill: none; stroke: #ff7f0e; stroke-opacity: 0.5; stroke-width: 0.2; stroke-linecap: square"/>
   <path d="M 326.765537 161.24419 
L 327.765537 161.275626 
L 328.765537 161.312566 
L 329.765537 161.410313 
L 330.765537 161.442834 
L 331.765537 161.516459 
L 332.765537 161.555025 
L 333.765537 161.590438 
L 334.765537 161.648078 
L 335.765537 161.718464 
L 336.765537 161.770428 
L 337.765537 161.829518 
L 338.765537 161.917839 
L 339.765537 161.963983 
L 340.765537 162.006394 
L 341.765537 162.036887 
L 342.765537 162.062932 
L 343.765537 162.084132 
L 344.765537 162.138433 
L 345.765537 162.166371 
L 346.765537 162.196095 
L 347.765537 162.221489 
L 348.765537 162.23269 
L 349.765537 162.242814 
L 350.765537 162.242609 
L 351.765537 162.233099 
L 352.765537 162.221446 
L 353.765537 162.190417 
L 354.765537 162.179249 
L 355.765537 162.149131 
L 356.765537 162.089354 
L 357.765537 162.052163 
L 358.765537 162.013067 
L 359.765537 161.970627 
L 360.765537 161.937862 
L 361.765537 161.870435 
L 362.765537 161.83131 
L 363.765537 161.788635 
L 364.765537 161.718054 
L 365.765537 161.681664 
L 366.765537 161.62326 
L 367.765537 161.512308 
L 368.765537 161.441649 
L 369.765537 161.32871 
L 370.765537 161.282937 
L 372.657515 161.221653 
" clip-path="url(#p4487521e38)" style="fill: none; stroke: #ff7f0e; stroke-opacity: 0.5; stroke-width: 0.2; stroke-linecap: square"/>
   <path d="M 326.765537 50.597624 
L 327.765537 50.62906 
L 328.765537 50.666 
L 329.765537 50.763747 
L 330.765537 50.796268 
L 331.765537 50.869893 
L 332.765537 50.908459 
L 333.765537 50.943872 
L 334.765537 51.001512 
L 335.765537 51.071898 
L 336.765537 51.123862 
L 337.765537 51.182952 
L 338.765537 51.271273 
L 339.765537 51.317417 
L 340.765537 51.359828 
L 341.765537 51.390321 
L 342.765537 51.416366 
L 343.765537 51.437566 
L 344.765537 51.491867 
L 345.765537 51.519805 
L 346.765537 51.549529 
L 347.765537 51.574923 
L 348.765537 51.586124 
L 349.765537 51.596248 
L 350.765537 51.596043 
L 351.765537 51.586533 
L 352.765537 51.57488 
L 353.765537 51.543851 
L 354.765537 51.532683 
L 355.765537 51.502565 
L 356.765537 51.442788 
L 357.765537 51.405597 
L 358.765537 51.366501 
L 359.765537 51.324061 
L 360.765537 51.291296 
L 361.765537 51.223869 
L 362.765537 51.184743 
L 363.765537 51.142069 
L 364.765537 51.071488 
L 365.765537 51.035097 
L 366.765537 50.976694 
L 367.765537 50.865742 
L 368.765537 50.795083 
L 369.765537 50.682144 
L 370.765537 50.636371 
L 372.657515 50.575087 
" clip-path="url(#p4487521e38)" style="fill: none; stroke: #ff7f0e; stroke-opacity: 0.5; stroke-width: 0.2; stroke-linecap: square"/>
   <path d="M 372.657515 189.38085 
L 371.657515 189.349413 
L 370.657515 189.312473 
L 369.657515 189.214726 
L 368.657515 189.182205 
L 367.657515 189.10858 
L 366.657515 189.070014 
L 365.657515 189.034601 
L 364.657515 188.976961 
L 363.657515 188.906575 
L 362.657515 188.854611 
L 361.657515 188.795521 
L 360.657515 188.7072 
L 359.657515 188.661056 
L 358.657515 188.618645 
L 357.657515 188.588152 
L 356.657515 188.562107 
L 355.657515 188.540907 
L 354.657515 188.486606 
L 353.657515 188.458669 
L 352.657515 188.428945 
L 351.657515 188.40355 
L 350.657515 188.392349 
L 349.657515 188.382225 
L 348.657515 188.38243 
L 347.657515 188.39194 
L 346.657515 188.403593 
L 345.657515 188.434623 
L 344.657515 188.44579 
L 343.657515 188.475908 
L 342.657515 188.535685 
L 341.657515 188.572876 
L 340.657515 188.611973 
L 339.657515 188.654412 
L 338.657515 188.687177 
L 337.657515 188.754604 
L 336.657515 188.79373 
L 335.657515 188.836404 
L 334.657515 188.906985 
L 333.657515 188.943376 
L 332.657515 189.001779 
L 331.657515 189.112731 
L 330.657515 189.18339 
L 329.657515 189.29633 
L 328.657515 189.342102 
L 326.765537 189.403386 
" clip-path="url(#p4487521e38)" style="fill: none; stroke: #2ca02c; stroke-opacity: 0.5; stroke-width: 0.2; stroke-linecap: square"/>
   <path d="M 372.657515 56.640543 
L 371.657515 56.609107 
L 370.657515 56.572166 
L 369.657515 56.47442 
L 368.657515 56.441898 
L 367.657515 56.368273 
L 366.657515 56.329708 
L 365.657515 56.294295 
L 364.657515 56.236655 
L 363.657515 56.166269 
L 362.657515 56.114304 
L 361.657515 56.055215 
L 360.657515 55.966894 
L 359.657515 55.920749 
L 358.657515 55.878338 
L 357.657515 55.847846 
L 356.657515 55.821801 
L 355.657515 55.800601 
L 354.657515 55.7463 
L 353.657515 55.718362 
L 352.657515 55.688638 
L 351.657515 55.663243 
L 350.657515 55.652043 
L 349.657515 55.641919 
L 348.657515 55.642123 
L 347.657515 55.651633 
L 346.657515 55.663287 
L 345.657515 55.694316 
L 344.657515 55.705484 
L 343.657515 55.735601 
L 342.657515 55.795378 
L 341.657515 55.83257 
L 340.657515 55.871666 
L 339.657515 55.914106 
L 338.657515 55.946871 
L 337.657515 56.014297 
L 336.657515 56.053423 
L 335.657515 56.096098 
L 334.657515 56.166678 
L 333.657515 56.203069 
L 332.657515 56.261472 
L 331.657515 56.372425 
L 330.657515 56.443083 
L 329.657515 56.556023 
L 328.657515 56.601796 
L 326.765537 56.663079 
" clip-path="url(#p4487521e38)" style="fill: none; stroke: #2ca02c; stroke-opacity: 0.5; stroke-width: 0.2; stroke-linecap: square"/>
   <path d="M 372.657515 138.17235 
L 371.657515 138.140913 
L 370.657515 138.103973 
L 369.657515 138.006226 
L 368.657515 137.973705 
L 367.657515 137.90008 
L 366.657515 137.861514 
L 365.657515 137.826101 
L 364.657515 137.768461 
L 363.657515 137.698075 
L 362.657515 137.646111 
L 361.657515 137.587021 
L 360.657515 137.4987 
L 359.657515 137.452556 
L 358.657515 137.410145 
L 357.657515 137.379652 
L 356.657515 137.353607 
L 355.657515 137.332407 
L 354.657515 137.278106 
L 353.657515 137.250169 
L 352.657515 137.220445 
L 351.657515 137.19505 
L 350.657515 137.183849 
L 349.657515 137.173725 
L 348.657515 137.17393 
L 347.657515 137.18344 
L 346.657515 137.195093 
L 345.657515 137.226122 
L 344.657515 137.23729 
L 343.657515 137.267408 
L 342.657515 137.327185 
L 341.657515 137.364376 
L 340.657515 137.403472 
L 339.657515 137.445912 
L 338.657515 137.478677 
L 337.657515 137.546104 
L 336.657515 137.58523 
L 335.657515 137.627904 
L 334.657515 137.698485 
L 333.657515 137.734876 
L 332.657515 137.793279 
L 331.657515 137.904231 
L 330.657515 137.97489 
L 329.657515 138.08783 
L 328.657515 138.133602 
L 326.765537 138.194886 
" clip-path="url(#p4487521e38)" style="fill: none; stroke: #2ca02c; stroke-opacity: 0.5; stroke-width: 0.2; stroke-linecap: square"/>
   <path d="M 372.657515 223.135409 
L 371.657515 223.103973 
L 370.657515 223.067033 
L 369.657515 222.969286 
L 368.657515 222.936765 
L 367.657515 222.86314 
L 366.657515 222.824574 
L 365.657515 222.789161 
L 364.657515 222.731521 
L 363.657515 222.661135 
L 362.657515 222.609171 
L 361.657515 222.550081 
L 360.657515 222.46176 
L 359.657515 222.415616 
L 358.657515 222.373205 
L 357.657515 222.342712 
L 356.657515 222.316667 
L 355.657515 222.295467 
L 354.657515 222.241166 
L 353.657515 222.213228 
L 352.657515 222.183504 
L 351.657515 222.15811 
L 350.657515 222.146909 
L 349.657515 222.136785 
L 348.657515 222.13699 
L 347.657515 222.146499 
L 346.657515 222.158153 
L 345.657515 222.189182 
L 344.657515 222.20035 
L 343.657515 222.230468 
L 342.657515 222.290245 
L 341.657515 222.327436 
L 340.657515 222.366532 
L 339.657515 222.408972 
L 338.657515 222.441737 
L 337.657515 222.509164 
L 336.657515 222.548289 
L 335.657515 222.590964 
L 334.657515 222.661545 
L 333.657515 222.697935 
L 332.657515 222.756339 
L 331.657515 222.867291 
L 330.657515 222.93795 
L 329.657515 223.050889 
L 328.657515 223.096662 
L 326.765537 223.157945 
" clip-path="url(#p4487521e38)" style="fill: none; stroke: #2ca02c; stroke-opacity: 0.5; stroke-width: 0.2; stroke-linecap: square"/>
   <path d="M 372.657515 37.374616 
L 371.657515 37.34318 
L 370.657515 37.306239 
L 369.657515 37.208493 
L 368.657515 37.175971 
L 367.657515 37.102347 
L 366.657515 37.063781 
L 365.657515 37.028368 
L 364.657515 36.970728 
L 363.657515 36.900342 
L 362.657515 36.848377 
L 361.657515 36.789288 
L 360.657515 36.700967 
L 359.657515 36.654822 
L 358.657515 36.612412 
L 357.657515 36.581919 
L 356.657515 36.555874 
L 355.657515 36.534674 
L 354.657515 36.480373 
L 353.657515 36.452435 
L 352.657515 36.422711 
L 351.657515 36.397316 
L 350.657515 36.386116 
L 349.657515 36.375992 
L 348.657515 36.376196 
L 347.657515 36.385706 
L 346.657515 36.39736 
L 345.657515 36.428389 
L 344.657515 36.439557 
L 343.657515 36.469675 
L 342.657515 36.529451 
L 341.657515 36.566643 
L 340.657515 36.605739 
L 339.657515 36.648179 
L 338.657515 36.680944 
L 337.657515 36.74837 
L 336.657515 36.787496 
L 335.657515 36.830171 
L 334.657515 36.900751 
L 333.657515 36.937142 
L 332.657515 36.995545 
L 331.657515 37.106498 
L 330.657515 37.177156 
L 329.657515 37.290096 
L 328.657515 37.335869 
L 326.765537 37.397152 
" clip-path="url(#p4487521e38)" style="fill: none; stroke: #2ca02c; stroke-opacity: 0.5; stroke-width: 0.2; stroke-linecap: square"/>
   <path d="M 372.657515 69.270023 
L 371.657515 69.238587 
L 370.657515 69.201646 
L 369.657515 69.1039 
L 368.657515 69.071378 
L 367.657515 68.997754 
L 366.657515 68.959188 
L 365.657515 68.923775 
L 364.657515 68.866135 
L 363.657515 68.795749 
L 362.657515 68.743785 
L 361.657515 68.684695 
L 360.657515 68.596374 
L 359.657515 68.55023 
L 358.657515 68.507819 
L 357.657515 68.477326 
L 356.657515 68.451281 
L 355.657515 68.430081 
L 354.657515 68.37578 
L 353.657515 68.347842 
L 352.657515 68.318118 
L 351.657515 68.292723 
L 350.657515 68.281523 
L 349.657515 68.271399 
L 348.657515 68.271603 
L 347.657515 68.281113 
L 346.657515 68.292767 
L 345.657515 68.323796 
L 344.657515 68.334964 
L 343.657515 68.365082 
L 342.657515 68.424858 
L 341.657515 68.46205 
L 340.657515 68.501146 
L 339.657515 68.543586 
L 338.657515 68.576351 
L 337.657515 68.643777 
L 336.657515 68.682903 
L 335.657515 68.725578 
L 334.657515 68.796158 
L 333.657515 68.832549 
L 332.657515 68.890952 
L 331.657515 69.001905 
L 330.657515 69.072563 
L 329.657515 69.185503 
L 328.657515 69.231276 
L 326.765537 69.292559 
" clip-path="url(#p4487521e38)" style="fill: none; stroke: #2ca02c; stroke-opacity: 0.5; stroke-width: 0.2; stroke-linecap: square"/>
   <path d="M 372.657515 52.510113 
L 371.657515 52.478677 
L 370.657515 52.441737 
L 369.657515 52.34399 
L 368.657515 52.311468 
L 367.657515 52.237844 
L 366.657515 52.199278 
L 365.657515 52.163865 
L 364.657515 52.106225 
L 363.657515 52.035839 
L 362.657515 51.983875 
L 361.657515 51.924785 
L 360.657515 51.836464 
L 359.657515 51.79032 
L 358.657515 51.747909 
L 357.657515 51.717416 
L 356.657515 51.691371 
L 355.657515 51.670171 
L 354.657515 51.61587 
L 353.657515 51.587932 
L 352.657515 51.558208 
L 351.657515 51.532814 
L 350.657515 51.521613 
L 349.657515 51.511489 
L 348.657515 51.511694 
L 347.657515 51.521203 
L 346.657515 51.532857 
L 345.657515 51.563886 
L 344.657515 51.575054 
L 343.657515 51.605172 
L 342.657515 51.664949 
L 341.657515 51.70214 
L 340.657515 51.741236 
L 339.657515 51.783676 
L 338.657515 51.816441 
L 337.657515 51.883867 
L 336.657515 51.922993 
L 335.657515 51.965668 
L 334.657515 52.036248 
L 333.657515 52.072639 
L 332.657515 52.131043 
L 331.657515 52.241995 
L 330.657515 52.312653 
L 329.657515 52.425593 
L 328.657515 52.471366 
L 326.765537 52.532649 
" clip-path="url(#p4487521e38)" style="fill: none; stroke: #2ca02c; stroke-opacity: 0.5; stroke-width: 0.2; stroke-linecap: square"/>
   <path d="M 372.657515 185.589675 
L 371.657515 185.558239 
L 370.657515 185.521299 
L 369.657515 185.423552 
L 368.657515 185.391031 
L 367.657515 185.317406 
L 366.657515 185.27884 
L 365.657515 185.243427 
L 364.657515 185.185787 
L 363.657515 185.115401 
L 362.657515 185.063437 
L 361.657515 185.004347 
L 360.657515 184.916026 
L 359.657515 184.869882 
L 358.657515 184.827471 
L 357.657515 184.796978 
L 356.657515 184.770933 
L 355.657515 184.749733 
L 354.657515 184.695432 
L 353.657515 184.667494 
L 352.657515 184.637771 
L 351.657515 184.612376 
L 350.657515 184.601175 
L 349.657515 184.591051 
L 348.657515 184.591256 
L 347.657515 184.600766 
L 346.657515 184.612419 
L 345.657515 184.643448 
L 344.657515 184.654616 
L 343.657515 184.684734 
L 342.657515 184.744511 
L 341.657515 184.781702 
L 340.657515 184.820798 
L 339.657515 184.863238 
L 338.657515 184.896003 
L 337.657515 184.96343 
L 336.657515 185.002556 
L 335.657515 185.04523 
L 334.657515 185.115811 
L 333.657515 185.152202 
L 332.657515 185.210605 
L 331.657515 185.321557 
L 330.657515 185.392216 
L 329.657515 185.505155 
L 328.657515 185.550928 
L 326.765537 185.612212 
" clip-path="url(#p4487521e38)" style="fill: none; stroke: #2ca02c; stroke-opacity: 0.5; stroke-width: 0.2; stroke-linecap: square"/>
   <path d="M 372.657515 177.24595 
L 371.657515 177.214513 
L 370.657515 177.177573 
L 369.657515 177.079826 
L 368.657515 177.047305 
L 367.657515 176.97368 
L 366.657515 176.935114 
L 365.657515 176.899701 
L 364.657515 176.842061 
L 363.657515 176.771675 
L 362.657515 176.719711 
L 361.657515 176.660621 
L 360.657515 176.5723 
L 359.657515 176.526156 
L 358.657515 176.483745 
L 357.657515 176.453252 
L 356.657515 176.427207 
L 355.657515 176.406007 
L 354.657515 176.351706 
L 353.657515 176.323769 
L 352.657515 176.294045 
L 351.657515 176.26865 
L 350.657515 176.257449 
L 349.657515 176.247325 
L 348.657515 176.24753 
L 347.657515 176.25704 
L 346.657515 176.268693 
L 345.657515 176.299722 
L 344.657515 176.31089 
L 343.657515 176.341008 
L 342.657515 176.400785 
L 341.657515 176.437976 
L 340.657515 176.477072 
L 339.657515 176.519512 
L 338.657515 176.552277 
L 337.657515 176.619704 
L 336.657515 176.65883 
L 335.657515 176.701504 
L 334.657515 176.772085 
L 333.657515 176.808476 
L 332.657515 176.866879 
L 331.657515 176.977831 
L 330.657515 177.04849 
L 329.657515 177.16143 
L 328.657515 177.207202 
L 326.765537 177.268486 
" clip-path="url(#p4487521e38)" style="fill: none; stroke: #2ca02c; stroke-opacity: 0.5; stroke-width: 0.2; stroke-linecap: square"/>
   <path d="M 372.657515 55.719153 
L 371.657515 55.687716 
L 370.657515 55.650776 
L 369.657515 55.553029 
L 368.657515 55.520508 
L 367.657515 55.446883 
L 366.657515 55.408318 
L 365.657515 55.372904 
L 364.657515 55.315264 
L 363.657515 55.244878 
L 362.657515 55.192914 
L 361.657515 55.133824 
L 360.657515 55.045503 
L 359.657515 54.999359 
L 358.657515 54.956948 
L 357.657515 54.926455 
L 356.657515 54.90041 
L 355.657515 54.87921 
L 354.657515 54.824909 
L 353.657515 54.796972 
L 352.657515 54.767248 
L 351.657515 54.741853 
L 350.657515 54.730653 
L 349.657515 54.720529 
L 348.657515 54.720733 
L 347.657515 54.730243 
L 346.657515 54.741896 
L 345.657515 54.772926 
L 344.657515 54.784094 
L 343.657515 54.814211 
L 342.657515 54.873988 
L 341.657515 54.91118 
L 340.657515 54.950276 
L 339.657515 54.992715 
L 338.657515 55.02548 
L 337.657515 55.092907 
L 336.657515 55.132033 
L 335.657515 55.174707 
L 334.657515 55.245288 
L 333.657515 55.281679 
L 332.657515 55.340082 
L 331.657515 55.451035 
L 330.657515 55.521693 
L 329.657515 55.634633 
L 328.657515 55.680406 
L 326.765537 55.741689 
" clip-path="url(#p4487521e38)" style="fill: none; stroke: #2ca02c; stroke-opacity: 0.5; stroke-width: 0.2; stroke-linecap: square"/>
   <g id="patch_3">
    <path d="M 67.449006 22.318125 
L 67.449006 260.421875 
M 167.401766 22.318125 
L 167.401766 260.421875 
" clip-path="url(#p4487521e38)" style="fill: none; stroke: #ffffff; stroke-width: 3; stroke-linejoin: miter"/>
    <path d="M 67.449006 22.318125 
L 67.449006 260.421875 
M 167.401766 22.318125 
L 167.401766 260.421875 
" clip-path="url(#p4487521e38)" style="fill: none; stroke: #1f77b4; stroke-linejoin: miter"/>
    <g id="PolyCollection_1">
     <path d="M 167.401766 22.318125 
L 67.449006 22.318125 
L 67.449006 260.421875 
L 167.401766 260.421875 
L 167.401766 260.421875 
L 167.401766 22.318125 
z
" clip-path="url(#p4487521e38)" style="fill: #1f77b4; fill-opacity: 0.5"/>
    </g>
    <g id="patch_4">
     <path d="M 222.306432 22.318125 
L 222.306432 260.421875 
M 322.259193 22.318125 
L 322.259193 260.421875 
" clip-path="url(#p4487521e38)" style="fill: none; stroke: #ffffff; stroke-width: 3; stroke-linejoin: miter"/>
     <path d="M 222.306432 22.318125 
L 222.306432 260.421875 
M 322.259193 22.318125 
L 322.259193 260.421875 
" clip-path="url(#p4487521e38)" style="fill: none; stroke: #ff7f0e; stroke-linejoin: miter"/>
     <g id="PolyCollection_2">
      <path d="M 322.259193 22.318125 
L 222.306432 22.318125 
L 222.306432 260.421875 
L 322.259193 260.421875 
L 322.259193 260.421875 
L 322.259193 22.318125 
z
" clip-path="url(#p4487521e38)" style="fill: #ff7f0e; fill-opacity: 0.5"/>
     </g>
     <g id="patch_5">
      <path d="M 377.163859 22.318125 
L 377.163859 260.421875 
M 477.116619 22.318125 
L 477.116619 260.421875 
" clip-path="url(#p4487521e38)" style="fill: none; stroke: #ffffff; stroke-width: 3; stroke-linejoin: miter"/>
      <path d="M 377.163859 22.318125 
L 377.163859 260.421875 
M 477.116619 22.318125 
L 477.116619 260.421875 
" clip-path="url(#p4487521e38)" style="fill: none; stroke: #2ca02c; stroke-linejoin: miter"/>
      <g id="PolyCollection_3">
       <path d="M 477.116619 22.318125 
L 377.163859 22.318125 
L 377.163859 260.421875 
L 477.116619 260.421875 
L 477.116619 260.421875 
L 477.116619 22.318125 
z
" clip-path="url(#p4487521e38)" style="fill: #2ca02c; fill-opacity: 0.5"/>
      </g>
      <g id="matplotlib.axis_1">
       <g id="xtick_1">
        <g id="line2d_1"/>
        <g id="text_1">
         <!-- deme1 -->
         <g transform="translate(100.04648 271.520312)scale(0.1 -0.1)">
          <defs>
           <path id="DejaVuSans-64" d="M 2906 2969 
L 2906 4863 
L 3481 4863 
L 3481 0 
L 2906 0 
L 2906 525 
Q 2725 213 2448 61 
Q 2172 -91 1784 -91 
Q 1150 -91 751 415 
Q 353 922 353 1747 
Q 353 2572 751 3078 
Q 1150 3584 1784 3584 
Q 2172 3584 2448 3432 
Q 2725 3281 2906 2969 
z
M 947 1747 
Q 947 1113 1208 752 
Q 1469 391 1925 391 
Q 2381 391 2643 752 
Q 2906 1113 2906 1747 
Q 2906 2381 2643 2742 
Q 2381 3103 1925 3103 
Q 1469 3103 1208 2742 
Q 947 2381 947 1747 
z
" transform="scale(0.015625)"/>
           <path id="DejaVuSans-65" d="M 3597 1894 
L 3597 1613 
L 953 1613 
Q 991 1019 1311 708 
Q 1631 397 2203 397 
Q 2534 397 2845 478 
Q 3156 559 3463 722 
L 3463 178 
Q 3153 47 2828 -22 
Q 2503 -91 2169 -91 
Q 1331 -91 842 396 
Q 353 884 353 1716 
Q 353 2575 817 3079 
Q 1281 3584 2069 3584 
Q 2775 3584 3186 3129 
Q 3597 2675 3597 1894 
z
M 3022 2063 
Q 3016 2534 2758 2815 
Q 2500 3097 2075 3097 
Q 1594 3097 1305 2825 
Q 1016 2553 972 2059 
L 3022 2063 
z
" transform="scale(0.015625)"/>
           <path id="DejaVuSans-6d" d="M 3328 2828 
Q 3544 3216 3844 3400 
Q 4144 3584 4550 3584 
Q 5097 3584 5394 3201 
Q 5691 2819 5691 2113 
L 5691 0 
L 5113 0 
L 5113 2094 
Q 5113 2597 4934 2840 
Q 4756 3084 4391 3084 
Q 3944 3084 3684 2787 
Q 3425 2491 3425 1978 
L 3425 0 
L 2847 0 
L 2847 2094 
Q 2847 2600 2669 2842 
Q 2491 3084 2119 3084 
Q 1678 3084 1418 2786 
Q 1159 2488 1159 1978 
L 1159 0 
L 581 0 
L 581 3500 
L 1159 3500 
L 1159 2956 
Q 1356 3278 1631 3431 
Q 1906 3584 2284 3584 
Q 2666 3584 2933 3390 
Q 3200 3197 3328 2828 
z
" transform="scale(0.015625)"/>
           <path id="DejaVuSans-31" d="M 794 531 
L 1825 531 
L 1825 4091 
L 703 3866 
L 703 4441 
L 1819 4666 
L 2450 4666 
L 2450 531 
L 3481 531 
L 3481 0 
L 794 0 
L 794 531 
z
" transform="scale(0.015625)"/>
          </defs>
          <use xlink:href="#DejaVuSans-64"/>
          <use xlink:href="#DejaVuSans-65" x="63.476562"/>
          <use xlink:href="#DejaVuSans-6d" x="125"/>
          <use xlink:href="#DejaVuSans-65" x="222.412109"/>
          <use xlink:href="#DejaVuSans-31" x="283.935547"/>
         </g>
        </g>
       </g>
       <g id="xtick_2">
        <g id="line2d_2"/>
        <g id="text_2">
         <!-- deme2 -->
         <g transform="translate(254.903906 271.520312)scale(0.1 -0.1)">
          <defs>
           <path id="DejaVuSans-32" d="M 1228 531 
L 3431 531 
L 3431 0 
L 469 0 
L 469 531 
Q 828 903 1448 1529 
Q 2069 2156 2228 2338 
Q 2531 2678 2651 2914 
Q 2772 3150 2772 3378 
Q 2772 3750 2511 3984 
Q 2250 4219 1831 4219 
Q 1534 4219 1204 4116 
Q 875 4013 500 3803 
L 500 4441 
Q 881 4594 1212 4672 
Q 1544 4750 1819 4750 
Q 2544 4750 2975 4387 
Q 3406 4025 3406 3419 
Q 3406 3131 3298 2873 
Q 3191 2616 2906 2266 
Q 2828 2175 2409 1742 
Q 1991 1309 1228 531 
z
" transform="scale(0.015625)"/>
          </defs>
          <use xlink:href="#DejaVuSans-64"/>
          <use xlink:href="#DejaVuSans-65" x="63.476562"/>
          <use xlink:href="#DejaVuSans-6d" x="125"/>
          <use xlink:href="#DejaVuSans-65" x="222.412109"/>
          <use xlink:href="#DejaVuSans-32" x="283.935547"/>
         </g>
        </g>
       </g>
       <g id="xtick_3">
        <g id="line2d_3"/>
        <g id="text_3">
         <!-- deme3 -->
         <g transform="translate(409.761333 271.520312)scale(0.1 -0.1)">
          <defs>
           <path id="DejaVuSans-33" d="M 2597 2516 
Q 3050 2419 3304 2112 
Q 3559 1806 3559 1356 
Q 3559 666 3084 287 
Q 2609 -91 1734 -91 
Q 1441 -91 1130 -33 
Q 819 25 488 141 
L 488 750 
Q 750 597 1062 519 
Q 1375 441 1716 441 
Q 2309 441 2620 675 
Q 2931 909 2931 1356 
Q 2931 1769 2642 2001 
Q 2353 2234 1838 2234 
L 1294 2234 
L 1294 2753 
L 1863 2753 
Q 2328 2753 2575 2939 
Q 2822 3125 2822 3475 
Q 2822 3834 2567 4026 
Q 2313 4219 1838 4219 
Q 1578 4219 1281 4162 
Q 984 4106 628 3988 
L 628 4550 
Q 988 4650 1302 4700 
Q 1616 4750 1894 4750 
Q 2613 4750 3031 4423 
Q 3450 4097 3450 3541 
Q 3450 3153 3228 2886 
Q 3006 2619 2597 2516 
z
" transform="scale(0.015625)"/>
          </defs>
          <use xlink:href="#DejaVuSans-64"/>
          <use xlink:href="#DejaVuSans-65" x="63.476562"/>
          <use xlink:href="#DejaVuSans-6d" x="125"/>
          <use xlink:href="#DejaVuSans-65" x="222.412109"/>
          <use xlink:href="#DejaVuSans-33" x="283.935547"/>
         </g>
        </g>
       </g>
      </g>
      <g id="matplotlib.axis_2">
       <g id="ytick_1">
        <g id="line2d_4">
         <defs>
          <path id="m8241b871d0" d="M 0 0 
L -3.5 0 
" style="stroke: #000000; stroke-width: 0.8"/>
         </defs>
         <g>
          <use xlink:href="#m8241b871d0" x="46.965625" y="260.421875" style="stroke: #000000; stroke-width: 0.8"/>
         </g>
        </g>
        <g id="text_4">
         <!-- 0 -->
         <g transform="translate(33.603125 264.221094)scale(0.1 -0.1)">
          <defs>
           <path id="DejaVuSans-30" d="M 2034 4250 
Q 1547 4250 1301 3770 
Q 1056 3291 1056 2328 
Q 1056 1369 1301 889 
Q 1547 409 2034 409 
Q 2525 409 2770 889 
Q 3016 1369 3016 2328 
Q 3016 3291 2770 3770 
Q 2525 4250 2034 4250 
z
M 2034 4750 
Q 2819 4750 3233 4129 
Q 3647 3509 3647 2328 
Q 3647 1150 3233 529 
Q 2819 -91 2034 -91 
Q 1250 -91 836 529 
Q 422 1150 422 2328 
Q 422 3509 836 4129 
Q 1250 4750 2034 4750 
z
" transform="scale(0.015625)"/>
          </defs>
          <use xlink:href="#DejaVuSans-30"/>
         </g>
        </g>
       </g>
       <g id="ytick_2">
        <g id="line2d_5">
         <g>
          <use xlink:href="#m8241b871d0" x="46.965625" y="218.279618" style="stroke: #000000; stroke-width: 0.8"/>
         </g>
        </g>
        <g id="text_5">
         <!-- 20 -->
         <g transform="translate(27.240625 222.078837)scale(0.1 -0.1)">
          <use xlink:href="#DejaVuSans-32"/>
          <use xlink:href="#DejaVuSans-30" x="63.623047"/>
         </g>
        </g>
       </g>
       <g id="ytick_3">
        <g id="line2d_6">
         <g>
          <use xlink:href="#m8241b871d0" x="46.965625" y="176.137362" style="stroke: #000000; stroke-width: 0.8"/>
         </g>
        </g>
        <g id="text_6">
         <!-- 40 -->
         <g transform="translate(27.240625 179.93658)scale(0.1 -0.1)">
          <defs>
           <path id="DejaVuSans-34" d="M 2419 4116 
L 825 1625 
L 2419 1625 
L 2419 4116 
z
M 2253 4666 
L 3047 4666 
L 3047 1625 
L 3713 1625 
L 3713 1100 
L 3047 1100 
L 3047 0 
L 2419 0 
L 2419 1100 
L 313 1100 
L 313 1709 
L 2253 4666 
z
" transform="scale(0.015625)"/>
          </defs>
          <use xlink:href="#DejaVuSans-34"/>
          <use xlink:href="#DejaVuSans-30" x="63.623047"/>
         </g>
        </g>
       </g>
       <g id="ytick_4">
        <g id="line2d_7">
         <g>
          <use xlink:href="#m8241b871d0" x="46.965625" y="133.995105" style="stroke: #000000; stroke-width: 0.8"/>
         </g>
        </g>
        <g id="text_7">
         <!-- 60 -->
         <g transform="translate(27.240625 137.794324)scale(0.1 -0.1)">
          <defs>
           <path id="DejaVuSans-36" d="M 2113 2584 
Q 1688 2584 1439 2293 
Q 1191 2003 1191 1497 
Q 1191 994 1439 701 
Q 1688 409 2113 409 
Q 2538 409 2786 701 
Q 3034 994 3034 1497 
Q 3034 2003 2786 2293 
Q 2538 2584 2113 2584 
z
M 3366 4563 
L 3366 3988 
Q 3128 4100 2886 4159 
Q 2644 4219 2406 4219 
Q 1781 4219 1451 3797 
Q 1122 3375 1075 2522 
Q 1259 2794 1537 2939 
Q 1816 3084 2150 3084 
Q 2853 3084 3261 2657 
Q 3669 2231 3669 1497 
Q 3669 778 3244 343 
Q 2819 -91 2113 -91 
Q 1303 -91 875 529 
Q 447 1150 447 2328 
Q 447 3434 972 4092 
Q 1497 4750 2381 4750 
Q 2619 4750 2861 4703 
Q 3103 4656 3366 4563 
z
" transform="scale(0.015625)"/>
          </defs>
          <use xlink:href="#DejaVuSans-36"/>
          <use xlink:href="#DejaVuSans-30" x="63.623047"/>
         </g>
        </g>
       </g>
       <g id="ytick_5">
        <g id="line2d_8">
         <g>
          <use xlink:href="#m8241b871d0" x="46.965625" y="91.852848" style="stroke: #000000; stroke-width: 0.8"/>
         </g>
        </g>
        <g id="text_8">
         <!-- 80 -->
         <g transform="translate(27.240625 95.652067)scale(0.1 -0.1)">
          <defs>
           <path id="DejaVuSans-38" d="M 2034 2216 
Q 1584 2216 1326 1975 
Q 1069 1734 1069 1313 
Q 1069 891 1326 650 
Q 1584 409 2034 409 
Q 2484 409 2743 651 
Q 3003 894 3003 1313 
Q 3003 1734 2745 1975 
Q 2488 2216 2034 2216 
z
M 1403 2484 
Q 997 2584 770 2862 
Q 544 3141 544 3541 
Q 544 4100 942 4425 
Q 1341 4750 2034 4750 
Q 2731 4750 3128 4425 
Q 3525 4100 3525 3541 
Q 3525 3141 3298 2862 
Q 3072 2584 2669 2484 
Q 3125 2378 3379 2068 
Q 3634 1759 3634 1313 
Q 3634 634 3220 271 
Q 2806 -91 2034 -91 
Q 1263 -91 848 271 
Q 434 634 434 1313 
Q 434 1759 690 2068 
Q 947 2378 1403 2484 
z
M 1172 3481 
Q 1172 3119 1398 2916 
Q 1625 2713 2034 2713 
Q 2441 2713 2670 2916 
Q 2900 3119 2900 3481 
Q 2900 3844 2670 4047 
Q 2441 4250 2034 4250 
Q 1625 4250 1398 4047 
Q 1172 3844 1172 3481 
z
" transform="scale(0.015625)"/>
          </defs>
          <use xlink:href="#DejaVuSans-38"/>
          <use xlink:href="#DejaVuSans-30" x="63.623047"/>
         </g>
        </g>
       </g>
       <g id="ytick_6">
        <g id="line2d_9">
         <g>
          <use xlink:href="#m8241b871d0" x="46.965625" y="49.710592" style="stroke: #000000; stroke-width: 0.8"/>
         </g>
        </g>
        <g id="text_9">
         <!-- 100 -->
         <g transform="translate(20.878125 53.509811)scale(0.1 -0.1)">
          <use xlink:href="#DejaVuSans-31"/>
          <use xlink:href="#DejaVuSans-30" x="63.623047"/>
          <use xlink:href="#DejaVuSans-30" x="127.246094"/>
         </g>
        </g>
       </g>
       <g id="text_10">
        <!-- time ago (years) -->
        <g transform="translate(14.798437 182.803594)rotate(-90)scale(0.1 -0.1)">
         <defs>
          <path id="DejaVuSans-74" d="M 1172 4494 
L 1172 3500 
L 2356 3500 
L 2356 3053 
L 1172 3053 
L 1172 1153 
Q 1172 725 1289 603 
Q 1406 481 1766 481 
L 2356 481 
L 2356 0 
L 1766 0 
Q 1100 0 847 248 
Q 594 497 594 1153 
L 594 3053 
L 172 3053 
L 172 3500 
L 594 3500 
L 594 4494 
L 1172 4494 
z
" transform="scale(0.015625)"/>
          <path id="DejaVuSans-69" d="M 603 3500 
L 1178 3500 
L 1178 0 
L 603 0 
L 603 3500 
z
M 603 4863 
L 1178 4863 
L 1178 4134 
L 603 4134 
L 603 4863 
z
" transform="scale(0.015625)"/>
          <path id="DejaVuSans-20" transform="scale(0.015625)"/>
          <path id="DejaVuSans-61" d="M 2194 1759 
Q 1497 1759 1228 1600 
Q 959 1441 959 1056 
Q 959 750 1161 570 
Q 1363 391 1709 391 
Q 2188 391 2477 730 
Q 2766 1069 2766 1631 
L 2766 1759 
L 2194 1759 
z
M 3341 1997 
L 3341 0 
L 2766 0 
L 2766 531 
Q 2569 213 2275 61 
Q 1981 -91 1556 -91 
Q 1019 -91 701 211 
Q 384 513 384 1019 
Q 384 1609 779 1909 
Q 1175 2209 1959 2209 
L 2766 2209 
L 2766 2266 
Q 2766 2663 2505 2880 
Q 2244 3097 1772 3097 
Q 1472 3097 1187 3025 
Q 903 2953 641 2809 
L 641 3341 
Q 956 3463 1253 3523 
Q 1550 3584 1831 3584 
Q 2591 3584 2966 3190 
Q 3341 2797 3341 1997 
z
" transform="scale(0.015625)"/>
          <path id="DejaVuSans-67" d="M 2906 1791 
Q 2906 2416 2648 2759 
Q 2391 3103 1925 3103 
Q 1463 3103 1205 2759 
Q 947 2416 947 1791 
Q 947 1169 1205 825 
Q 1463 481 1925 481 
Q 2391 481 2648 825 
Q 2906 1169 2906 1791 
z
M 3481 434 
Q 3481 -459 3084 -895 
Q 2688 -1331 1869 -1331 
Q 1566 -1331 1297 -1286 
Q 1028 -1241 775 -1147 
L 775 -588 
Q 1028 -725 1275 -790 
Q 1522 -856 1778 -856 
Q 2344 -856 2625 -561 
Q 2906 -266 2906 331 
L 2906 616 
Q 2728 306 2450 153 
Q 2172 0 1784 0 
Q 1141 0 747 490 
Q 353 981 353 1791 
Q 353 2603 747 3093 
Q 1141 3584 1784 3584 
Q 2172 3584 2450 3431 
Q 2728 3278 2906 2969 
L 2906 3500 
L 3481 3500 
L 3481 434 
z
" transform="scale(0.015625)"/>
          <path id="DejaVuSans-6f" d="M 1959 3097 
Q 1497 3097 1228 2736 
Q 959 2375 959 1747 
Q 959 1119 1226 758 
Q 1494 397 1959 397 
Q 2419 397 2687 759 
Q 2956 1122 2956 1747 
Q 2956 2369 2687 2733 
Q 2419 3097 1959 3097 
z
M 1959 3584 
Q 2709 3584 3137 3096 
Q 3566 2609 3566 1747 
Q 3566 888 3137 398 
Q 2709 -91 1959 -91 
Q 1206 -91 779 398 
Q 353 888 353 1747 
Q 353 2609 779 3096 
Q 1206 3584 1959 3584 
z
" transform="scale(0.015625)"/>
          <path id="DejaVuSans-28" d="M 1984 4856 
Q 1566 4138 1362 3434 
Q 1159 2731 1159 2009 
Q 1159 1288 1364 580 
Q 1569 -128 1984 -844 
L 1484 -844 
Q 1016 -109 783 600 
Q 550 1309 550 2009 
Q 550 2706 781 3412 
Q 1013 4119 1484 4856 
L 1984 4856 
z
" transform="scale(0.015625)"/>
          <path id="DejaVuSans-79" d="M 2059 -325 
Q 1816 -950 1584 -1140 
Q 1353 -1331 966 -1331 
L 506 -1331 
L 506 -850 
L 844 -850 
Q 1081 -850 1212 -737 
Q 1344 -625 1503 -206 
L 1606 56 
L 191 3500 
L 800 3500 
L 1894 763 
L 2988 3500 
L 3597 3500 
L 2059 -325 
z
" transform="scale(0.015625)"/>
          <path id="DejaVuSans-72" d="M 2631 2963 
Q 2534 3019 2420 3045 
Q 2306 3072 2169 3072 
Q 1681 3072 1420 2755 
Q 1159 2438 1159 1844 
L 1159 0 
L 581 0 
L 581 3500 
L 1159 3500 
L 1159 2956 
Q 1341 3275 1631 3429 
Q 1922 3584 2338 3584 
Q 2397 3584 2469 3576 
Q 2541 3569 2628 3553 
L 2631 2963 
z
" transform="scale(0.015625)"/>
          <path id="DejaVuSans-73" d="M 2834 3397 
L 2834 2853 
Q 2591 2978 2328 3040 
Q 2066 3103 1784 3103 
Q 1356 3103 1142 2972 
Q 928 2841 928 2578 
Q 928 2378 1081 2264 
Q 1234 2150 1697 2047 
L 1894 2003 
Q 2506 1872 2764 1633 
Q 3022 1394 3022 966 
Q 3022 478 2636 193 
Q 2250 -91 1575 -91 
Q 1294 -91 989 -36 
Q 684 19 347 128 
L 347 722 
Q 666 556 975 473 
Q 1284 391 1588 391 
Q 1994 391 2212 530 
Q 2431 669 2431 922 
Q 2431 1156 2273 1281 
Q 2116 1406 1581 1522 
L 1381 1569 
Q 847 1681 609 1914 
Q 372 2147 372 2553 
Q 372 3047 722 3315 
Q 1072 3584 1716 3584 
Q 2034 3584 2315 3537 
Q 2597 3491 2834 3397 
z
" transform="scale(0.015625)"/>
          <path id="DejaVuSans-29" d="M 513 4856 
L 1013 4856 
Q 1481 4119 1714 3412 
Q 1947 2706 1947 2009 
Q 1947 1309 1714 600 
Q 1481 -109 1013 -844 
L 513 -844 
Q 928 -128 1133 580 
Q 1338 1288 1338 2009 
Q 1338 2731 1133 3434 
Q 928 4138 513 4856 
z
" transform="scale(0.015625)"/>
         </defs>
         <use xlink:href="#DejaVuSans-74"/>
         <use xlink:href="#DejaVuSans-69" x="39.208984"/>
         <use xlink:href="#DejaVuSans-6d" x="66.992188"/>
         <use xlink:href="#DejaVuSans-65" x="164.404297"/>
         <use xlink:href="#DejaVuSans-20" x="225.927734"/>
         <use xlink:href="#DejaVuSans-61" x="257.714844"/>
         <use xlink:href="#DejaVuSans-67" x="318.994141"/>
         <use xlink:href="#DejaVuSans-6f" x="382.470703"/>
         <use xlink:href="#DejaVuSans-20" x="443.652344"/>
         <use xlink:href="#DejaVuSans-28" x="475.439453"/>
         <use xlink:href="#DejaVuSans-79" x="514.453125"/>
         <use xlink:href="#DejaVuSans-65" x="573.632812"/>
         <use xlink:href="#DejaVuSans-61" x="635.15625"/>
         <use xlink:href="#DejaVuSans-72" x="696.435547"/>
         <use xlink:href="#DejaVuSans-73" x="737.548828"/>
         <use xlink:href="#DejaVuSans-29" x="789.648438"/>
        </g>
       </g>
      </g>
      <path d="M 218.800088 63.12237 
L 216.800088 62.12237 
L 216.800088 64.12237 
z
" clip-path="url(#p4487521e38)" style="fill: #1f77b4; fill-opacity: 0.5; stroke: #1f77b4; stroke-opacity: 0.5; stroke-linejoin: miter"/>
      <path d="M 218.800088 58.496652 
L 216.800088 57.496652 
L 216.800088 59.496652 
z
" clip-path="url(#p4487521e38)" style="fill: #1f77b4; fill-opacity: 0.5; stroke: #1f77b4; stroke-opacity: 0.5; stroke-linejoin: miter"/>
      <path d="M 218.800088 255.995543 
L 216.800088 254.995543 
L 216.800088 256.995543 
z
" clip-path="url(#p4487521e38)" style="fill: #1f77b4; fill-opacity: 0.5; stroke: #1f77b4; stroke-opacity: 0.5; stroke-linejoin: miter"/>
      <path d="M 218.800088 203.124426 
L 216.800088 202.124426 
L 216.800088 204.124426 
z
" clip-path="url(#p4487521e38)" style="fill: #1f77b4; fill-opacity: 0.5; stroke: #1f77b4; stroke-opacity: 0.5; stroke-linejoin: miter"/>
      <path d="M 218.800088 121.189817 
L 216.800088 120.189817 
L 216.800088 122.189817 
z
" clip-path="url(#p4487521e38)" style="fill: #1f77b4; fill-opacity: 0.5; stroke: #1f77b4; stroke-opacity: 0.5; stroke-linejoin: miter"/>
      <path d="M 218.800088 176.750107 
L 216.800088 175.750107 
L 216.800088 177.750107 
z
" clip-path="url(#p4487521e38)" style="fill: #1f77b4; fill-opacity: 0.5; stroke: #1f77b4; stroke-opacity: 0.5; stroke-linejoin: miter"/>
      <path d="M 218.800088 227.391348 
L 216.800088 226.391348 
L 216.800088 228.391348 
z
" clip-path="url(#p4487521e38)" style="fill: #1f77b4; fill-opacity: 0.5; stroke: #1f77b4; stroke-opacity: 0.5; stroke-linejoin: miter"/>
      <path d="M 218.800088 194.357679 
L 216.800088 193.357679 
L 216.800088 195.357679 
z
" clip-path="url(#p4487521e38)" style="fill: #1f77b4; fill-opacity: 0.5; stroke: #1f77b4; stroke-opacity: 0.5; stroke-linejoin: miter"/>
      <path d="M 218.800088 60.01662 
L 216.800088 59.01662 
L 216.800088 61.01662 
z
" clip-path="url(#p4487521e38)" style="fill: #1f77b4; fill-opacity: 0.5; stroke: #1f77b4; stroke-opacity: 0.5; stroke-linejoin: miter"/>
      <path d="M 218.800088 196.560375 
L 216.800088 195.560375 
L 216.800088 197.560375 
z
" clip-path="url(#p4487521e38)" style="fill: #1f77b4; fill-opacity: 0.5; stroke: #1f77b4; stroke-opacity: 0.5; stroke-linejoin: miter"/>
      <path d="M 170.90811 31.333894 
L 172.90811 32.333894 
L 172.90811 30.333894 
z
" clip-path="url(#p4487521e38)" style="fill: #ff7f0e; fill-opacity: 0.5; stroke: #ff7f0e; stroke-opacity: 0.5; stroke-linejoin: miter"/>
      <path d="M 170.90811 191.630053 
L 172.90811 192.630053 
L 172.90811 190.630053 
z
" clip-path="url(#p4487521e38)" style="fill: #ff7f0e; fill-opacity: 0.5; stroke: #ff7f0e; stroke-opacity: 0.5; stroke-linejoin: miter"/>
      <path d="M 170.90811 23.942842 
L 172.90811 24.942842 
L 172.90811 22.942842 
z
" clip-path="url(#p4487521e38)" style="fill: #ff7f0e; fill-opacity: 0.5; stroke: #ff7f0e; stroke-opacity: 0.5; stroke-linejoin: miter"/>
      <path d="M 170.90811 35.881842 
L 172.90811 36.881842 
L 172.90811 34.881842 
z
" clip-path="url(#p4487521e38)" style="fill: #ff7f0e; fill-opacity: 0.5; stroke: #ff7f0e; stroke-opacity: 0.5; stroke-linejoin: miter"/>
      <path d="M 170.90811 224.567508 
L 172.90811 225.567508 
L 172.90811 223.567508 
z
" clip-path="url(#p4487521e38)" style="fill: #ff7f0e; fill-opacity: 0.5; stroke: #ff7f0e; stroke-opacity: 0.5; stroke-linejoin: miter"/>
      <path d="M 170.90811 186.274217 
L 172.90811 187.274217 
L 172.90811 185.274217 
z
" clip-path="url(#p4487521e38)" style="fill: #ff7f0e; fill-opacity: 0.5; stroke: #ff7f0e; stroke-opacity: 0.5; stroke-linejoin: miter"/>
      <path d="M 170.90811 27.72461 
L 172.90811 28.72461 
L 172.90811 26.72461 
z
" clip-path="url(#p4487521e38)" style="fill: #ff7f0e; fill-opacity: 0.5; stroke: #ff7f0e; stroke-opacity: 0.5; stroke-linejoin: miter"/>
      <path d="M 170.90811 202.885589 
L 172.90811 203.885589 
L 172.90811 201.885589 
z
" clip-path="url(#p4487521e38)" style="fill: #ff7f0e; fill-opacity: 0.5; stroke: #ff7f0e; stroke-opacity: 0.5; stroke-linejoin: miter"/>
      <path d="M 170.90811 118.01891 
L 172.90811 119.01891 
L 172.90811 117.01891 
z
" clip-path="url(#p4487521e38)" style="fill: #ff7f0e; fill-opacity: 0.5; stroke: #ff7f0e; stroke-opacity: 0.5; stroke-linejoin: miter"/>
      <path d="M 170.90811 47.410169 
L 172.90811 48.410169 
L 172.90811 46.410169 
z
" clip-path="url(#p4487521e38)" style="fill: #ff7f0e; fill-opacity: 0.5; stroke: #ff7f0e; stroke-opacity: 0.5; stroke-linejoin: miter"/>
      <path d="M 373.657515 135.447633 
L 371.657515 134.447633 
L 371.657515 136.447633 
z
" clip-path="url(#p4487521e38)" style="fill: #ff7f0e; fill-opacity: 0.5; stroke: #ff7f0e; stroke-opacity: 0.5; stroke-linejoin: miter"/>
      <path d="M 373.657515 236.395518 
L 371.657515 235.395518 
L 371.657515 237.395518 
z
" clip-path="url(#p4487521e38)" style="fill: #ff7f0e; fill-opacity: 0.5; stroke: #ff7f0e; stroke-opacity: 0.5; stroke-linejoin: miter"/>
      <path d="M 373.657515 147.752463 
L 371.657515 146.752463 
L 371.657515 148.752463 
z
" clip-path="url(#p4487521e38)" style="fill: #ff7f0e; fill-opacity: 0.5; stroke: #ff7f0e; stroke-opacity: 0.5; stroke-linejoin: miter"/>
      <path d="M 373.657515 200.535979 
L 371.657515 199.535979 
L 371.657515 201.535979 
z
" clip-path="url(#p4487521e38)" style="fill: #ff7f0e; fill-opacity: 0.5; stroke: #ff7f0e; stroke-opacity: 0.5; stroke-linejoin: miter"/>
      <path d="M 373.657515 103.637077 
L 371.657515 102.637077 
L 371.657515 104.637077 
z
" clip-path="url(#p4487521e38)" style="fill: #ff7f0e; fill-opacity: 0.5; stroke: #ff7f0e; stroke-opacity: 0.5; stroke-linejoin: miter"/>
      <path d="M 373.657515 162.855858 
L 371.657515 161.855858 
L 371.657515 163.855858 
z
" clip-path="url(#p4487521e38)" style="fill: #ff7f0e; fill-opacity: 0.5; stroke: #ff7f0e; stroke-opacity: 0.5; stroke-linejoin: miter"/>
      <path d="M 373.657515 243.643061 
L 371.657515 242.643061 
L 371.657515 244.643061 
z
" clip-path="url(#p4487521e38)" style="fill: #ff7f0e; fill-opacity: 0.5; stroke: #ff7f0e; stroke-opacity: 0.5; stroke-linejoin: miter"/>
      <path d="M 373.657515 100.232187 
L 371.657515 99.232187 
L 371.657515 101.232187 
z
" clip-path="url(#p4487521e38)" style="fill: #ff7f0e; fill-opacity: 0.5; stroke: #ff7f0e; stroke-opacity: 0.5; stroke-linejoin: miter"/>
      <path d="M 373.657515 161.24419 
L 371.657515 160.24419 
L 371.657515 162.24419 
z
" clip-path="url(#p4487521e38)" style="fill: #ff7f0e; fill-opacity: 0.5; stroke: #ff7f0e; stroke-opacity: 0.5; stroke-linejoin: miter"/>
      <path d="M 373.657515 50.597624 
L 371.657515 49.597624 
L 371.657515 51.597624 
z
" clip-path="url(#p4487521e38)" style="fill: #ff7f0e; fill-opacity: 0.5; stroke: #ff7f0e; stroke-opacity: 0.5; stroke-linejoin: miter"/>
      <path d="M 325.765537 189.38085 
L 327.765537 190.38085 
L 327.765537 188.38085 
z
" clip-path="url(#p4487521e38)" style="fill: #2ca02c; fill-opacity: 0.5; stroke: #2ca02c; stroke-opacity: 0.5; stroke-linejoin: miter"/>
      <path d="M 325.765537 56.640543 
L 327.765537 57.640543 
L 327.765537 55.640543 
z
" clip-path="url(#p4487521e38)" style="fill: #2ca02c; fill-opacity: 0.5; stroke: #2ca02c; stroke-opacity: 0.5; stroke-linejoin: miter"/>
      <path d="M 325.765537 138.17235 
L 327.765537 139.17235 
L 327.765537 137.17235 
z
" clip-path="url(#p4487521e38)" style="fill: #2ca02c; fill-opacity: 0.5; stroke: #2ca02c; stroke-opacity: 0.5; stroke-linejoin: miter"/>
      <path d="M 325.765537 223.135409 
L 327.765537 224.135409 
L 327.765537 222.135409 
z
" clip-path="url(#p4487521e38)" style="fill: #2ca02c; fill-opacity: 0.5; stroke: #2ca02c; stroke-opacity: 0.5; stroke-linejoin: miter"/>
      <path d="M 325.765537 37.374616 
L 327.765537 38.374616 
L 327.765537 36.374616 
z
" clip-path="url(#p4487521e38)" style="fill: #2ca02c; fill-opacity: 0.5; stroke: #2ca02c; stroke-opacity: 0.5; stroke-linejoin: miter"/>
      <path d="M 325.765537 69.270023 
L 327.765537 70.270023 
L 327.765537 68.270023 
z
" clip-path="url(#p4487521e38)" style="fill: #2ca02c; fill-opacity: 0.5; stroke: #2ca02c; stroke-opacity: 0.5; stroke-linejoin: miter"/>
      <path d="M 325.765537 52.510113 
L 327.765537 53.510113 
L 327.765537 51.510113 
z
" clip-path="url(#p4487521e38)" style="fill: #2ca02c; fill-opacity: 0.5; stroke: #2ca02c; stroke-opacity: 0.5; stroke-linejoin: miter"/>
      <path d="M 325.765537 185.589675 
L 327.765537 186.589675 
L 327.765537 184.589675 
z
" clip-path="url(#p4487521e38)" style="fill: #2ca02c; fill-opacity: 0.5; stroke: #2ca02c; stroke-opacity: 0.5; stroke-linejoin: miter"/>
      <path d="M 325.765537 177.24595 
L 327.765537 178.24595 
L 327.765537 176.24595 
z
" clip-path="url(#p4487521e38)" style="fill: #2ca02c; fill-opacity: 0.5; stroke: #2ca02c; stroke-opacity: 0.5; stroke-linejoin: miter"/>
      <path d="M 325.765537 55.719153 
L 327.765537 56.719153 
L 327.765537 54.719153 
z
" clip-path="url(#p4487521e38)" style="fill: #2ca02c; fill-opacity: 0.5; stroke: #2ca02c; stroke-opacity: 0.5; stroke-linejoin: miter"/>
      <g id="patch_6">
       <path d="M 46.965625 260.421875 
L 46.965625 22.318125 
" style="fill: none; stroke: #000000; stroke-width: 0.8; stroke-linejoin: miter; stroke-linecap: square"/>
      </g>
      <g id="text_11">
       <!-- stepping_stone_model.yaml -->
       <g transform="translate(188.243437 16.318125)scale(0.12 -0.12)">
        <defs>
         <path id="DejaVuSans-70" d="M 1159 525 
L 1159 -1331 
L 581 -1331 
L 581 3500 
L 1159 3500 
L 1159 2969 
Q 1341 3281 1617 3432 
Q 1894 3584 2278 3584 
Q 2916 3584 3314 3078 
Q 3713 2572 3713 1747 
Q 3713 922 3314 415 
Q 2916 -91 2278 -91 
Q 1894 -91 1617 61 
Q 1341 213 1159 525 
z
M 3116 1747 
Q 3116 2381 2855 2742 
Q 2594 3103 2138 3103 
Q 1681 3103 1420 2742 
Q 1159 2381 1159 1747 
Q 1159 1113 1420 752 
Q 1681 391 2138 391 
Q 2594 391 2855 752 
Q 3116 1113 3116 1747 
z
" transform="scale(0.015625)"/>
         <path id="DejaVuSans-6e" d="M 3513 2113 
L 3513 0 
L 2938 0 
L 2938 2094 
Q 2938 2591 2744 2837 
Q 2550 3084 2163 3084 
Q 1697 3084 1428 2787 
Q 1159 2491 1159 1978 
L 1159 0 
L 581 0 
L 581 3500 
L 1159 3500 
L 1159 2956 
Q 1366 3272 1645 3428 
Q 1925 3584 2291 3584 
Q 2894 3584 3203 3211 
Q 3513 2838 3513 2113 
z
" transform="scale(0.015625)"/>
         <path id="DejaVuSans-5f" d="M 3263 -1063 
L 3263 -1509 
L -63 -1509 
L -63 -1063 
L 3263 -1063 
z
" transform="scale(0.015625)"/>
         <path id="DejaVuSans-6c" d="M 603 4863 
L 1178 4863 
L 1178 0 
L 603 0 
L 603 4863 
z
" transform="scale(0.015625)"/>
         <path id="DejaVuSans-2e" d="M 684 794 
L 1344 794 
L 1344 0 
L 684 0 
L 684 794 
z
" transform="scale(0.015625)"/>
        </defs>
        <use xlink:href="#DejaVuSans-73"/>
        <use xlink:href="#DejaVuSans-74" x="52.099609"/>
        <use xlink:href="#DejaVuSans-65" x="91.308594"/>
        <use xlink:href="#DejaVuSans-70" x="152.832031"/>
        <use xlink:href="#DejaVuSans-70" x="216.308594"/>
        <use xlink:href="#DejaVuSans-69" x="279.785156"/>
        <use xlink:href="#DejaVuSans-6e" x="307.568359"/>
        <use xlink:href="#DejaVuSans-67" x="370.947266"/>
        <use xlink:href="#DejaVuSans-5f" x="434.423828"/>
        <use xlink:href="#DejaVuSans-73" x="484.423828"/>
        <use xlink:href="#DejaVuSans-74" x="536.523438"/>
        <use xlink:href="#DejaVuSans-6f" x="575.732422"/>
        <use xlink:href="#DejaVuSans-6e" x="636.914062"/>
        <use xlink:href="#DejaVuSans-65" x="700.292969"/>
        <use xlink:href="#DejaVuSans-5f" x="761.816406"/>
        <use xlink:href="#DejaVuSans-6d" x="811.816406"/>
        <use xlink:href="#DejaVuSans-6f" x="909.228516"/>
        <use xlink:href="#DejaVuSans-64" x="970.410156"/>
        <use xlink:href="#DejaVuSans-65" x="1033.886719"/>
        <use xlink:href="#DejaVuSans-6c" x="1095.410156"/>
        <use xlink:href="#DejaVuSans-2e" x="1123.193359"/>
        <use xlink:href="#DejaVuSans-79" x="1154.980469"/>
        <use xlink:href="#DejaVuSans-61" x="1214.160156"/>
        <use xlink:href="#DejaVuSans-6d" x="1275.439453"/>
        <use xlink:href="#DejaVuSans-6c" x="1372.851562"/>
       </g>
      </g>
     </g>
    </g>
    <defs>
     <clipPath id="p4487521e38">
      <rect x="46.965625" y="22.318125" width="450.634375" height="238.10375"/>
     </clipPath>
    </defs>
   </g>
  </g>
 </g>
</svg>
