<?xml version="1.0" encoding="utf-8" standalone="no"?>
<!DOCTYPE svg PUBLIC "-//W3C//DTD SVG 1.1//EN"
  "http://www.w3.org/Graphics/SVG/1.1/DTD/svg11.dtd">
<svg xmlns:xlink="http://www.w3.org/1999/xlink" width="607.2pt" height="338.4pt" viewBox="0 0 607.2 338.4" xmlns="http://www.w3.org/2000/svg" version="1.1">
 <metadata>
  <rdf:RDF xmlns:dc="http://purl.org/dc/elements/1.1/" xmlns:cc="http://creativecommons.org/ns#" xmlns:rdf="http://www.w3.org/1999/02/22-rdf-syntax-ns#">
   <cc:Work>
    <dc:type rdf:resource="http://purl.org/dc/dcmitype/StillImage"/>
    <dc:date>2022-10-31T08:35:41.453899</dc:date>
    <dc:format>image/svg+xml</dc:format>
    <dc:creator>
     <cc:Agent>
      <dc:title>Matplotlib v3.6.1, https://matplotlib.org/</dc:title>
     </cc:Agent>
    </dc:creator>
   </cc:Work>
  </rdf:RDF>
 </metadata>
 <defs>
  <style type="text/css">*{stroke-linejoin: round; stroke-linecap: butt}</style>
 </defs>
 <g id="figure_1">
  <g id="patch_1">
   <path d="M 0 338.4 
L 607.2 338.4 
L 607.2 0 
L 0 0 
z
" style="fill: #ffffff"/>
  </g>
  <g id="axes_1">
   <g id="patch_2">
    <path d="M 43.78125 318.021875 
L 600 318.021875 
L 600 22.318125 
L 43.78125 22.318125 
z
" style="fill: #ffffff"/>
   </g>
   <path d="M 290.11196 183.532624 
L 291.11196 183.56406 
L 292.11196 183.601 
L 293.11196 183.698747 
L 294.11196 183.731269 
L 295.11196 183.804893 
L 296.11196 183.843459 
L 297.11196 183.878872 
L 298.11196 183.936512 
L 299.11196 184.006898 
L 300.11196 184.058862 
L 301.11196 184.117952 
L 302.11196 184.206273 
L 303.11196 184.252417 
L 304.11196 184.294828 
L 305.11196 184.325321 
L 306.11196 184.351366 
L 307.11196 184.372566 
L 308.11196 184.426867 
L 309.11196 184.454805 
L 310.11196 184.484529 
L 311.11196 184.509923 
L 312.11196 184.521124 
L 313.11196 184.531248 
L 314.11196 184.531043 
L 315.11196 184.521534 
L 316.11196 184.50988 
L 317.11196 184.478851 
L 318.11196 184.467683 
L 319.11196 184.437565 
L 320.11196 184.377788 
L 321.11196 184.340597 
L 322.11196 184.301501 
L 323.11196 184.259061 
L 324.11196 184.226296 
L 325.11196 184.15887 
L 326.11196 184.119744 
L 327.11196 184.077069 
L 328.11196 184.006488 
L 329.11196 183.970098 
L 330.11196 183.911694 
L 331.11196 183.800742 
L 332.11196 183.730084 
L 333.11196 183.617144 
L 334.11196 183.571371 
L 335.11196 183.510088 
L 336.11196 183.461588 
L 337.11196 183.380766 
L 338.11196 183.262247 
L 339.11196 183.192036 
L 340.11196 183.108774 
L 341.11196 183.075632 
L 342.11196 183.024394 
L 343.11196 182.955996 
L 344.11196 182.889781 
L 345.11196 182.812864 
L 346.11196 182.785548 
L 347.11196 182.759071 
L 348.11196 182.73642 
L 349.11196 182.716889 
L 350.11196 182.690495 
L 351.11196 182.640724 
L 352.11196 182.605651 
L 353.66929 182.569785 
" clip-path="url(#pb17c0121f5)" style="fill: none; stroke: #1f77b4; stroke-opacity: 0.5; stroke-width: 0.2; stroke-linecap: square"/>
   <path d="M 290.11196 157.312885 
L 291.11196 157.344321 
L 292.11196 157.381262 
L 293.11196 157.479008 
L 294.11196 157.51153 
L 295.11196 157.585154 
L 296.11196 157.62372 
L 297.11196 157.659133 
L 298.11196 157.716773 
L 299.11196 157.787159 
L 300.11196 157.839124 
L 301.11196 157.898213 
L 302.11196 157.986534 
L 303.11196 158.032679 
L 304.11196 158.075089 
L 305.11196 158.105582 
L 306.11196 158.131627 
L 307.11196 158.152827 
L 308.11196 158.207128 
L 309.11196 158.235066 
L 310.11196 158.26479 
L 311.11196 158.290185 
L 312.11196 158.301385 
L 313.11196 158.311509 
L 314.11196 158.311305 
L 315.11196 158.301795 
L 316.11196 158.290141 
L 317.11196 158.259112 
L 318.11196 158.247944 
L 319.11196 158.217826 
L 320.11196 158.15805 
L 321.11196 158.120858 
L 322.11196 158.081762 
L 323.11196 158.039322 
L 324.11196 158.006557 
L 325.11196 157.939131 
L 326.11196 157.900005 
L 327.11196 157.85733 
L 328.11196 157.78675 
L 329.11196 157.750359 
L 330.11196 157.691956 
L 331.11196 157.581003 
L 332.11196 157.510345 
L 333.11196 157.397405 
L 334.11196 157.351632 
L 335.11196 157.290349 
L 336.11196 157.241849 
L 337.11196 157.161027 
L 338.11196 157.042508 
L 339.11196 156.972297 
L 340.11196 156.889035 
L 341.11196 156.855893 
L 342.11196 156.804656 
L 343.11196 156.736257 
L 344.11196 156.670042 
L 345.11196 156.593125 
L 346.11196 156.565809 
L 347.11196 156.539332 
L 348.11196 156.516681 
L 349.11196 156.49715 
L 350.11196 156.470756 
L 351.11196 156.420985 
L 352.11196 156.385912 
L 353.66929 156.350046 
" clip-path="url(#pb17c0121f5)" style="fill: none; stroke: #1f77b4; stroke-opacity: 0.5; stroke-width: 0.2; stroke-linecap: square"/>
   <path d="M 290.11196 94.949626 
L 291.11196 94.981063 
L 292.11196 95.018003 
L 293.11196 95.11575 
L 294.11196 95.148271 
L 295.11196 95.221896 
L 296.11196 95.260462 
L 297.11196 95.295875 
L 298.11196 95.353515 
L 299.11196 95.423901 
L 300.11196 95.475865 
L 301.11196 95.534955 
L 302.11196 95.623276 
L 303.11196 95.66942 
L 304.11196 95.711831 
L 305.11196 95.742324 
L 306.11196 95.768369 
L 307.11196 95.789569 
L 308.11196 95.84387 
L 309.11196 95.871807 
L 310.11196 95.901531 
L 311.11196 95.926926 
L 312.11196 95.938127 
L 313.11196 95.948251 
L 314.11196 95.948046 
L 315.11196 95.938536 
L 316.11196 95.926883 
L 317.11196 95.895854 
L 318.11196 95.884686 
L 319.11196 95.854568 
L 320.11196 95.794791 
L 321.11196 95.7576 
L 322.11196 95.718504 
L 323.11196 95.676064 
L 324.11196 95.643299 
L 325.11196 95.575872 
L 326.11196 95.536746 
L 327.11196 95.494072 
L 328.11196 95.423491 
L 329.11196 95.3871 
L 330.11196 95.328697 
L 331.11196 95.217745 
L 332.11196 95.147086 
L 333.11196 95.034146 
L 334.11196 94.988374 
L 335.11196 94.92709 
L 336.11196 94.878591 
L 337.11196 94.797768 
L 338.11196 94.679249 
L 339.11196 94.609039 
L 340.11196 94.525776 
L 341.11196 94.492635 
L 342.11196 94.441397 
L 343.11196 94.372999 
L 344.11196 94.306783 
L 345.11196 94.229866 
L 346.11196 94.202551 
L 347.11196 94.176073 
L 348.11196 94.153423 
L 349.11196 94.133891 
L 350.11196 94.107498 
L 351.11196 94.057727 
L 352.11196 94.022654 
L 353.66929 93.986788 
" clip-path="url(#pb17c0121f5)" style="fill: none; stroke: #1f77b4; stroke-opacity: 0.5; stroke-width: 0.2; stroke-linecap: square"/>
   <path d="M 290.11196 82.991484 
L 291.11196 83.022921 
L 292.11196 83.059861 
L 293.11196 83.157608 
L 294.11196 83.190129 
L 295.11196 83.263754 
L 296.11196 83.30232 
L 297.11196 83.337733 
L 298.11196 83.395373 
L 299.11196 83.465759 
L 300.11196 83.517723 
L 301.11196 83.576813 
L 302.11196 83.665134 
L 303.11196 83.711278 
L 304.11196 83.753689 
L 305.11196 83.784182 
L 306.11196 83.810227 
L 307.11196 83.831427 
L 308.11196 83.885728 
L 309.11196 83.913665 
L 310.11196 83.943389 
L 311.11196 83.968784 
L 312.11196 83.979985 
L 313.11196 83.990109 
L 314.11196 83.989904 
L 315.11196 83.980394 
L 316.11196 83.968741 
L 317.11196 83.937711 
L 318.11196 83.926544 
L 319.11196 83.896426 
L 320.11196 83.836649 
L 321.11196 83.799458 
L 322.11196 83.760361 
L 323.11196 83.717922 
L 324.11196 83.685157 
L 325.11196 83.61773 
L 326.11196 83.578604 
L 327.11196 83.53593 
L 328.11196 83.465349 
L 329.11196 83.428958 
L 330.11196 83.370555 
L 331.11196 83.259603 
L 332.11196 83.188944 
L 333.11196 83.076004 
L 334.11196 83.030232 
L 335.11196 82.968948 
L 336.11196 82.920449 
L 337.11196 82.839626 
L 338.11196 82.721107 
L 339.11196 82.650897 
L 340.11196 82.567634 
L 341.11196 82.534492 
L 342.11196 82.483255 
L 343.11196 82.414857 
L 344.11196 82.348641 
L 345.11196 82.271724 
L 346.11196 82.244409 
L 347.11196 82.217931 
L 348.11196 82.195281 
L 349.11196 82.175749 
L 350.11196 82.149355 
L 351.11196 82.099585 
L 352.11196 82.064511 
L 353.66929 82.028646 
" clip-path="url(#pb17c0121f5)" style="fill: none; stroke: #1f77b4; stroke-opacity: 0.5; stroke-width: 0.2; stroke-linecap: square"/>
   <path d="M 290.11196 131.90056 
L 291.11196 131.931997 
L 292.11196 131.968937 
L 293.11196 132.066683 
L 294.11196 132.099205 
L 295.11196 132.17283 
L 296.11196 132.211395 
L 297.11196 132.246808 
L 298.11196 132.304448 
L 299.11196 132.374835 
L 300.11196 132.426799 
L 301.11196 132.485889 
L 302.11196 132.57421 
L 303.11196 132.620354 
L 304.11196 132.662765 
L 305.11196 132.693257 
L 306.11196 132.719302 
L 307.11196 132.740503 
L 308.11196 132.794804 
L 309.11196 132.822741 
L 310.11196 132.852465 
L 311.11196 132.87786 
L 312.11196 132.88906 
L 313.11196 132.899184 
L 314.11196 132.89898 
L 315.11196 132.88947 
L 316.11196 132.877817 
L 317.11196 132.846787 
L 318.11196 132.835619 
L 319.11196 132.805502 
L 320.11196 132.745725 
L 321.11196 132.708533 
L 322.11196 132.669437 
L 323.11196 132.626998 
L 324.11196 132.594233 
L 325.11196 132.526806 
L 326.11196 132.48768 
L 327.11196 132.445006 
L 328.11196 132.374425 
L 329.11196 132.338034 
L 330.11196 132.279631 
L 331.11196 132.168678 
L 332.11196 132.09802 
L 333.11196 131.98508 
L 334.11196 131.939307 
L 335.11196 131.878024 
L 336.11196 131.829525 
L 337.11196 131.748702 
L 338.11196 131.630183 
L 339.11196 131.559973 
L 340.11196 131.47671 
L 341.11196 131.443568 
L 342.11196 131.392331 
L 343.11196 131.323933 
L 344.11196 131.257717 
L 345.11196 131.1808 
L 346.11196 131.153485 
L 347.11196 131.127007 
L 348.11196 131.104356 
L 349.11196 131.084825 
L 350.11196 131.058431 
L 351.11196 131.00866 
L 352.11196 130.973587 
L 353.66929 130.937722 
" clip-path="url(#pb17c0121f5)" style="fill: none; stroke: #1f77b4; stroke-opacity: 0.5; stroke-width: 0.2; stroke-linecap: square"/>
   <path d="M 290.11196 160.663989 
L 291.11196 160.695426 
L 292.11196 160.732366 
L 293.11196 160.830113 
L 294.11196 160.862634 
L 295.11196 160.936259 
L 296.11196 160.974825 
L 297.11196 161.010238 
L 298.11196 161.067878 
L 299.11196 161.138264 
L 300.11196 161.190228 
L 301.11196 161.249318 
L 302.11196 161.337639 
L 303.11196 161.383783 
L 304.11196 161.426194 
L 305.11196 161.456687 
L 306.11196 161.482732 
L 307.11196 161.503932 
L 308.11196 161.558233 
L 309.11196 161.58617 
L 310.11196 161.615894 
L 311.11196 161.641289 
L 312.11196 161.65249 
L 313.11196 161.662614 
L 314.11196 161.662409 
L 315.11196 161.652899 
L 316.11196 161.641246 
L 317.11196 161.610217 
L 318.11196 161.599049 
L 319.11196 161.568931 
L 320.11196 161.509154 
L 321.11196 161.471963 
L 322.11196 161.432867 
L 323.11196 161.390427 
L 324.11196 161.357662 
L 325.11196 161.290235 
L 326.11196 161.251109 
L 327.11196 161.208435 
L 328.11196 161.137854 
L 329.11196 161.101463 
L 330.11196 161.04306 
L 331.11196 160.932108 
L 332.11196 160.861449 
L 333.11196 160.748509 
L 334.11196 160.702737 
L 335.11196 160.641453 
L 336.11196 160.592954 
L 337.11196 160.512131 
L 338.11196 160.393612 
L 339.11196 160.323402 
L 340.11196 160.240139 
L 341.11196 160.206998 
L 342.11196 160.15576 
L 343.11196 160.087362 
L 344.11196 160.021146 
L 345.11196 159.944229 
L 346.11196 159.916914 
L 347.11196 159.890436 
L 348.11196 159.867786 
L 349.11196 159.848254 
L 350.11196 159.82186 
L 351.11196 159.77209 
L 352.11196 159.737017 
L 353.66929 159.701151 
" clip-path="url(#pb17c0121f5)" style="fill: none; stroke: #1f77b4; stroke-opacity: 0.5; stroke-width: 0.2; stroke-linecap: square"/>
   <path d="M 290.11196 116.700241 
L 291.11196 116.731677 
L 292.11196 116.768618 
L 293.11196 116.866364 
L 294.11196 116.898886 
L 295.11196 116.97251 
L 296.11196 117.011076 
L 297.11196 117.046489 
L 298.11196 117.104129 
L 299.11196 117.174515 
L 300.11196 117.22648 
L 301.11196 117.285569 
L 302.11196 117.37389 
L 303.11196 117.420035 
L 304.11196 117.462445 
L 305.11196 117.492938 
L 306.11196 117.518983 
L 307.11196 117.540183 
L 308.11196 117.594484 
L 309.11196 117.622422 
L 310.11196 117.652146 
L 311.11196 117.677541 
L 312.11196 117.688741 
L 313.11196 117.698865 
L 314.11196 117.698661 
L 315.11196 117.689151 
L 316.11196 117.677497 
L 317.11196 117.646468 
L 318.11196 117.6353 
L 319.11196 117.605182 
L 320.11196 117.545406 
L 321.11196 117.508214 
L 322.11196 117.469118 
L 323.11196 117.426678 
L 324.11196 117.393913 
L 325.11196 117.326487 
L 326.11196 117.287361 
L 327.11196 117.244686 
L 328.11196 117.174106 
L 329.11196 117.137715 
L 330.11196 117.079312 
L 331.11196 116.968359 
L 332.11196 116.897701 
L 333.11196 116.784761 
L 334.11196 116.738988 
L 335.11196 116.677705 
L 336.11196 116.629205 
L 337.11196 116.548383 
L 338.11196 116.429864 
L 339.11196 116.359653 
L 340.11196 116.276391 
L 341.11196 116.243249 
L 342.11196 116.192012 
L 343.11196 116.123613 
L 344.11196 116.057398 
L 345.11196 115.980481 
L 346.11196 115.953165 
L 347.11196 115.926688 
L 348.11196 115.904037 
L 349.11196 115.884506 
L 350.11196 115.858112 
L 351.11196 115.808341 
L 352.11196 115.773268 
L 353.66929 115.737402 
" clip-path="url(#pb17c0121f5)" style="fill: none; stroke: #1f77b4; stroke-opacity: 0.5; stroke-width: 0.2; stroke-linecap: square"/>
   <path d="M 290.11196 118.183753 
L 291.11196 118.21519 
L 292.11196 118.25213 
L 293.11196 118.349877 
L 294.11196 118.382398 
L 295.11196 118.456023 
L 296.11196 118.494588 
L 297.11196 118.530002 
L 298.11196 118.587642 
L 299.11196 118.658028 
L 300.11196 118.709992 
L 301.11196 118.769082 
L 302.11196 118.857403 
L 303.11196 118.903547 
L 304.11196 118.945958 
L 305.11196 118.976451 
L 306.11196 119.002496 
L 307.11196 119.023696 
L 308.11196 119.077997 
L 309.11196 119.105934 
L 310.11196 119.135658 
L 311.11196 119.161053 
L 312.11196 119.172253 
L 313.11196 119.182377 
L 314.11196 119.182173 
L 315.11196 119.172663 
L 316.11196 119.16101 
L 317.11196 119.12998 
L 318.11196 119.118812 
L 319.11196 119.088695 
L 320.11196 119.028918 
L 321.11196 118.991726 
L 322.11196 118.95263 
L 323.11196 118.910191 
L 324.11196 118.877426 
L 325.11196 118.809999 
L 326.11196 118.770873 
L 327.11196 118.728199 
L 328.11196 118.657618 
L 329.11196 118.621227 
L 330.11196 118.562824 
L 331.11196 118.451871 
L 332.11196 118.381213 
L 333.11196 118.268273 
L 334.11196 118.2225 
L 335.11196 118.161217 
L 336.11196 118.112718 
L 337.11196 118.031895 
L 338.11196 117.913376 
L 339.11196 117.843166 
L 340.11196 117.759903 
L 341.11196 117.726761 
L 342.11196 117.675524 
L 343.11196 117.607126 
L 344.11196 117.54091 
L 345.11196 117.463993 
L 346.11196 117.436678 
L 347.11196 117.4102 
L 348.11196 117.38755 
L 349.11196 117.368018 
L 350.11196 117.341624 
L 351.11196 117.291854 
L 352.11196 117.25678 
L 353.66929 117.220915 
" clip-path="url(#pb17c0121f5)" style="fill: none; stroke: #1f77b4; stroke-opacity: 0.5; stroke-width: 0.2; stroke-linecap: square"/>
   <path d="M 290.11196 145.566195 
L 291.11196 145.597631 
L 292.11196 145.634572 
L 293.11196 145.732318 
L 294.11196 145.76484 
L 295.11196 145.838465 
L 296.11196 145.87703 
L 297.11196 145.912443 
L 298.11196 145.970083 
L 299.11196 146.04047 
L 300.11196 146.092434 
L 301.11196 146.151524 
L 302.11196 146.239844 
L 303.11196 146.285989 
L 304.11196 146.3284 
L 305.11196 146.358892 
L 306.11196 146.384937 
L 307.11196 146.406137 
L 308.11196 146.460439 
L 309.11196 146.488376 
L 310.11196 146.5181 
L 311.11196 146.543495 
L 312.11196 146.554695 
L 313.11196 146.564819 
L 314.11196 146.564615 
L 315.11196 146.555105 
L 316.11196 146.543451 
L 317.11196 146.512422 
L 318.11196 146.501254 
L 319.11196 146.471137 
L 320.11196 146.41136 
L 321.11196 146.374168 
L 322.11196 146.335072 
L 323.11196 146.292632 
L 324.11196 146.259867 
L 325.11196 146.192441 
L 326.11196 146.153315 
L 327.11196 146.110641 
L 328.11196 146.04006 
L 329.11196 146.003669 
L 330.11196 145.945266 
L 331.11196 145.834313 
L 332.11196 145.763655 
L 333.11196 145.650715 
L 334.11196 145.604942 
L 335.11196 145.543659 
L 336.11196 145.49516 
L 337.11196 145.414337 
L 338.11196 145.295818 
L 339.11196 145.225607 
L 340.11196 145.142345 
L 341.11196 145.109203 
L 342.11196 145.057966 
L 343.11196 144.989568 
L 344.11196 144.923352 
L 345.11196 144.846435 
L 346.11196 144.81912 
L 347.11196 144.792642 
L 348.11196 144.769991 
L 349.11196 144.75046 
L 350.11196 144.724066 
L 351.11196 144.674295 
L 352.11196 144.639222 
L 353.66929 144.603356 
" clip-path="url(#pb17c0121f5)" style="fill: none; stroke: #1f77b4; stroke-opacity: 0.5; stroke-width: 0.2; stroke-linecap: square"/>
   <path d="M 290.11196 182.751694 
L 291.11196 182.783131 
L 292.11196 182.820071 
L 293.11196 182.917818 
L 294.11196 182.950339 
L 295.11196 183.023964 
L 296.11196 183.06253 
L 297.11196 183.097943 
L 298.11196 183.155583 
L 299.11196 183.225969 
L 300.11196 183.277933 
L 301.11196 183.337023 
L 302.11196 183.425344 
L 303.11196 183.471488 
L 304.11196 183.513899 
L 305.11196 183.544392 
L 306.11196 183.570437 
L 307.11196 183.591637 
L 308.11196 183.645938 
L 309.11196 183.673875 
L 310.11196 183.703599 
L 311.11196 183.728994 
L 312.11196 183.740195 
L 313.11196 183.750319 
L 314.11196 183.750114 
L 315.11196 183.740604 
L 316.11196 183.728951 
L 317.11196 183.697921 
L 318.11196 183.686754 
L 319.11196 183.656636 
L 320.11196 183.596859 
L 321.11196 183.559668 
L 322.11196 183.520571 
L 323.11196 183.478132 
L 324.11196 183.445367 
L 325.11196 183.37794 
L 326.11196 183.338814 
L 327.11196 183.29614 
L 328.11196 183.225559 
L 329.11196 183.189168 
L 330.11196 183.130765 
L 331.11196 183.019813 
L 332.11196 182.949154 
L 333.11196 182.836214 
L 334.11196 182.790442 
L 335.11196 182.729158 
L 336.11196 182.680659 
L 337.11196 182.599836 
L 338.11196 182.481317 
L 339.11196 182.411107 
L 340.11196 182.327844 
L 341.11196 182.294703 
L 342.11196 182.243465 
L 343.11196 182.175067 
L 344.11196 182.108851 
L 345.11196 182.031934 
L 346.11196 182.004619 
L 347.11196 181.978141 
L 348.11196 181.955491 
L 349.11196 181.935959 
L 350.11196 181.909565 
L 351.11196 181.859795 
L 352.11196 181.824721 
L 353.66929 181.788856 
" clip-path="url(#pb17c0121f5)" style="fill: none; stroke: #1f77b4; stroke-opacity: 0.5; stroke-width: 0.2; stroke-linecap: square"/>
   <path d="M 290.11196 289.331479 
L 291.11196 289.362915 
L 292.11196 289.399856 
L 293.11196 289.497602 
L 294.11196 289.530124 
L 295.11196 289.603748 
L 296.11196 289.642314 
L 297.11196 289.677727 
L 298.11196 289.735367 
L 299.11196 289.805753 
L 300.11196 289.857717 
L 301.11196 289.916807 
L 302.11196 290.005128 
L 303.11196 290.051272 
L 304.11196 290.093683 
L 305.11196 290.124176 
L 306.11196 290.150221 
L 307.11196 290.171421 
L 308.11196 290.225722 
L 309.11196 290.25366 
L 310.11196 290.283384 
L 311.11196 290.308779 
L 312.11196 290.319979 
L 313.11196 290.330103 
L 314.11196 290.329899 
L 315.11196 290.320389 
L 316.11196 290.308735 
L 317.11196 290.277706 
L 318.11196 290.266538 
L 319.11196 290.23642 
L 320.11196 290.176643 
L 321.11196 290.139452 
L 322.11196 290.100356 
L 323.11196 290.057916 
L 324.11196 290.025151 
L 325.11196 289.957725 
L 326.11196 289.918599 
L 327.11196 289.875924 
L 328.11196 289.805344 
L 329.11196 289.768953 
L 330.11196 289.71055 
L 331.11196 289.599597 
L 332.11196 289.528939 
L 333.11196 289.415999 
L 334.11196 289.370226 
L 335.11196 289.308943 
L 336.11196 289.260443 
L 337.11196 289.179621 
L 338.11196 289.061102 
L 339.11196 288.990891 
L 340.11196 288.907629 
L 341.11196 288.874487 
L 342.11196 288.82325 
L 343.11196 288.754851 
L 344.11196 288.688636 
L 345.11196 288.611719 
L 346.11196 288.584403 
L 347.11196 288.557926 
L 348.11196 288.535275 
L 349.11196 288.515744 
L 350.11196 288.48935 
L 351.11196 288.439579 
L 352.11196 288.404506 
L 353.66929 288.36864 
" clip-path="url(#pb17c0121f5)" style="fill: none; stroke: #1f77b4; stroke-opacity: 0.5; stroke-width: 0.2; stroke-linecap: square"/>
   <path d="M 290.11196 223.15372 
L 291.11196 223.185156 
L 292.11196 223.222097 
L 293.11196 223.319843 
L 294.11196 223.352365 
L 295.11196 223.425989 
L 296.11196 223.464555 
L 297.11196 223.499968 
L 298.11196 223.557608 
L 299.11196 223.627994 
L 300.11196 223.679959 
L 301.11196 223.739048 
L 302.11196 223.827369 
L 303.11196 223.873514 
L 304.11196 223.915924 
L 305.11196 223.946417 
L 306.11196 223.972462 
L 307.11196 223.993662 
L 308.11196 224.047963 
L 309.11196 224.075901 
L 310.11196 224.105625 
L 311.11196 224.13102 
L 312.11196 224.14222 
L 313.11196 224.152344 
L 314.11196 224.15214 
L 315.11196 224.14263 
L 316.11196 224.130976 
L 317.11196 224.099947 
L 318.11196 224.088779 
L 319.11196 224.058662 
L 320.11196 223.998885 
L 321.11196 223.961693 
L 322.11196 223.922597 
L 323.11196 223.880157 
L 324.11196 223.847392 
L 325.11196 223.779966 
L 326.11196 223.74084 
L 327.11196 223.698165 
L 328.11196 223.627585 
L 329.11196 223.591194 
L 330.11196 223.532791 
L 331.11196 223.421838 
L 332.11196 223.35118 
L 333.11196 223.23824 
L 334.11196 223.192467 
L 335.11196 223.131184 
L 336.11196 223.082684 
L 337.11196 223.001862 
L 338.11196 222.883343 
L 339.11196 222.813132 
L 340.11196 222.72987 
L 341.11196 222.696728 
L 342.11196 222.645491 
L 343.11196 222.577092 
L 344.11196 222.510877 
L 345.11196 222.43396 
L 346.11196 222.406644 
L 347.11196 222.380167 
L 348.11196 222.357516 
L 349.11196 222.337985 
L 350.11196 222.311591 
L 351.11196 222.26182 
L 352.11196 222.226747 
L 353.66929 222.190881 
" clip-path="url(#pb17c0121f5)" style="fill: none; stroke: #1f77b4; stroke-opacity: 0.5; stroke-width: 0.2; stroke-linecap: square"/>
   <path d="M 290.11196 267.689187 
L 291.11196 267.720623 
L 292.11196 267.757564 
L 293.11196 267.85531 
L 294.11196 267.887832 
L 295.11196 267.961457 
L 296.11196 268.000022 
L 297.11196 268.035435 
L 298.11196 268.093075 
L 299.11196 268.163462 
L 300.11196 268.215426 
L 301.11196 268.274515 
L 302.11196 268.362836 
L 303.11196 268.408981 
L 304.11196 268.451392 
L 305.11196 268.481884 
L 306.11196 268.507929 
L 307.11196 268.529129 
L 308.11196 268.58343 
L 309.11196 268.611368 
L 310.11196 268.641092 
L 311.11196 268.666487 
L 312.11196 268.677687 
L 313.11196 268.687811 
L 314.11196 268.687607 
L 315.11196 268.678097 
L 316.11196 268.666443 
L 317.11196 268.635414 
L 318.11196 268.624246 
L 319.11196 268.594129 
L 320.11196 268.534352 
L 321.11196 268.49716 
L 322.11196 268.458064 
L 323.11196 268.415624 
L 324.11196 268.382859 
L 325.11196 268.315433 
L 326.11196 268.276307 
L 327.11196 268.233632 
L 328.11196 268.163052 
L 329.11196 268.126661 
L 330.11196 268.068258 
L 331.11196 267.957305 
L 332.11196 267.886647 
L 333.11196 267.773707 
L 334.11196 267.727934 
L 335.11196 267.666651 
L 336.11196 267.618152 
L 337.11196 267.537329 
L 338.11196 267.41881 
L 339.11196 267.348599 
L 340.11196 267.265337 
L 341.11196 267.232195 
L 342.11196 267.180958 
L 343.11196 267.11256 
L 344.11196 267.046344 
L 345.11196 266.969427 
L 346.11196 266.942112 
L 347.11196 266.915634 
L 348.11196 266.892983 
L 349.11196 266.873452 
L 350.11196 266.847058 
L 351.11196 266.797287 
L 352.11196 266.762214 
L 353.66929 266.726348 
" clip-path="url(#pb17c0121f5)" style="fill: none; stroke: #1f77b4; stroke-opacity: 0.5; stroke-width: 0.2; stroke-linecap: square"/>
   <path d="M 290.11196 253.995069 
L 291.11196 254.026505 
L 292.11196 254.063446 
L 293.11196 254.161192 
L 294.11196 254.193714 
L 295.11196 254.267338 
L 296.11196 254.305904 
L 297.11196 254.341317 
L 298.11196 254.398957 
L 299.11196 254.469343 
L 300.11196 254.521307 
L 301.11196 254.580397 
L 302.11196 254.668718 
L 303.11196 254.714862 
L 304.11196 254.757273 
L 305.11196 254.787766 
L 306.11196 254.813811 
L 307.11196 254.835011 
L 308.11196 254.889312 
L 309.11196 254.91725 
L 310.11196 254.946974 
L 311.11196 254.972369 
L 312.11196 254.983569 
L 313.11196 254.993693 
L 314.11196 254.993489 
L 315.11196 254.983979 
L 316.11196 254.972325 
L 317.11196 254.941296 
L 318.11196 254.930128 
L 319.11196 254.90001 
L 320.11196 254.840234 
L 321.11196 254.803042 
L 322.11196 254.763946 
L 323.11196 254.721506 
L 324.11196 254.688741 
L 325.11196 254.621315 
L 326.11196 254.582189 
L 327.11196 254.539514 
L 328.11196 254.468934 
L 329.11196 254.432543 
L 330.11196 254.37414 
L 331.11196 254.263187 
L 332.11196 254.192529 
L 333.11196 254.079589 
L 334.11196 254.033816 
L 335.11196 253.972533 
L 336.11196 253.924033 
L 337.11196 253.843211 
L 338.11196 253.724692 
L 339.11196 253.654481 
L 340.11196 253.571219 
L 341.11196 253.538077 
L 342.11196 253.48684 
L 343.11196 253.418441 
L 344.11196 253.352226 
L 345.11196 253.275309 
L 346.11196 253.247993 
L 347.11196 253.221516 
L 348.11196 253.198865 
L 349.11196 253.179334 
L 350.11196 253.15294 
L 351.11196 253.103169 
L 352.11196 253.068096 
L 353.66929 253.03223 
" clip-path="url(#pb17c0121f5)" style="fill: none; stroke: #1f77b4; stroke-opacity: 0.5; stroke-width: 0.2; stroke-linecap: square"/>
   <path d="M 290.11196 311.613042 
L 291.11196 311.644478 
L 292.11196 311.681419 
L 293.11196 311.779165 
L 294.11196 311.811687 
L 295.11196 311.885311 
L 296.11196 311.923877 
L 297.11196 311.95929 
L 298.11196 312.01693 
L 299.11196 312.087316 
L 300.11196 312.139281 
L 301.11196 312.19837 
L 302.11196 312.286691 
L 303.11196 312.332836 
L 304.11196 312.375246 
L 305.11196 312.405739 
L 306.11196 312.431784 
L 307.11196 312.452984 
L 308.11196 312.507285 
L 309.11196 312.535223 
L 310.11196 312.564947 
L 311.11196 312.590342 
L 312.11196 312.601542 
L 313.11196 312.611666 
L 314.11196 312.611462 
L 315.11196 312.601952 
L 316.11196 312.590298 
L 317.11196 312.559269 
L 318.11196 312.548101 
L 319.11196 312.517983 
L 320.11196 312.458207 
L 321.11196 312.421015 
L 322.11196 312.381919 
L 323.11196 312.339479 
L 324.11196 312.306714 
L 325.11196 312.239288 
L 326.11196 312.200162 
L 327.11196 312.157487 
L 328.11196 312.086907 
L 329.11196 312.050516 
L 330.11196 311.992113 
L 331.11196 311.88116 
L 332.11196 311.810502 
L 333.11196 311.697562 
L 334.11196 311.651789 
L 335.11196 311.590506 
L 336.11196 311.542006 
L 337.11196 311.461184 
L 338.11196 311.342665 
L 339.11196 311.272454 
L 340.11196 311.189192 
L 341.11196 311.15605 
L 342.11196 311.104813 
L 343.11196 311.036414 
L 344.11196 310.970199 
L 345.11196 310.893282 
L 346.11196 310.865966 
L 347.11196 310.839489 
L 348.11196 310.816838 
L 349.11196 310.797307 
L 350.11196 310.770913 
L 351.11196 310.721142 
L 352.11196 310.686069 
L 353.66929 310.650203 
" clip-path="url(#pb17c0121f5)" style="fill: none; stroke: #1f77b4; stroke-opacity: 0.5; stroke-width: 0.2; stroke-linecap: square"/>
   <path d="M 290.11196 261.686452 
L 291.11196 261.717888 
L 292.11196 261.754828 
L 293.11196 261.852575 
L 294.11196 261.885096 
L 295.11196 261.958721 
L 296.11196 261.997287 
L 297.11196 262.0327 
L 298.11196 262.09034 
L 299.11196 262.160726 
L 300.11196 262.21269 
L 301.11196 262.27178 
L 302.11196 262.360101 
L 303.11196 262.406245 
L 304.11196 262.448656 
L 305.11196 262.479149 
L 306.11196 262.505194 
L 307.11196 262.526394 
L 308.11196 262.580695 
L 309.11196 262.608633 
L 310.11196 262.638357 
L 311.11196 262.663751 
L 312.11196 262.674952 
L 313.11196 262.685076 
L 314.11196 262.684871 
L 315.11196 262.675361 
L 316.11196 262.663708 
L 317.11196 262.632679 
L 318.11196 262.621511 
L 319.11196 262.591393 
L 320.11196 262.531616 
L 321.11196 262.494425 
L 322.11196 262.455329 
L 323.11196 262.412889 
L 324.11196 262.380124 
L 325.11196 262.312697 
L 326.11196 262.273572 
L 327.11196 262.230897 
L 328.11196 262.160316 
L 329.11196 262.123926 
L 330.11196 262.065522 
L 331.11196 261.95457 
L 332.11196 261.883911 
L 333.11196 261.770972 
L 334.11196 261.725199 
L 335.11196 261.663915 
L 336.11196 261.615416 
L 337.11196 261.534593 
L 338.11196 261.416075 
L 339.11196 261.345864 
L 340.11196 261.262601 
L 341.11196 261.22946 
L 342.11196 261.178222 
L 343.11196 261.109824 
L 344.11196 261.043609 
L 345.11196 260.966692 
L 346.11196 260.939376 
L 347.11196 260.912899 
L 348.11196 260.890248 
L 349.11196 260.870717 
L 350.11196 260.844323 
L 351.11196 260.794552 
L 352.11196 260.759479 
L 353.66929 260.723613 
" clip-path="url(#pb17c0121f5)" style="fill: none; stroke: #1f77b4; stroke-opacity: 0.5; stroke-width: 0.2; stroke-linecap: square"/>
   <path d="M 290.11196 228.587345 
L 291.11196 228.618781 
L 292.11196 228.655721 
L 293.11196 228.753468 
L 294.11196 228.785989 
L 295.11196 228.859614 
L 296.11196 228.89818 
L 297.11196 228.933593 
L 298.11196 228.991233 
L 299.11196 229.061619 
L 300.11196 229.113583 
L 301.11196 229.172673 
L 302.11196 229.260994 
L 303.11196 229.307138 
L 304.11196 229.349549 
L 305.11196 229.380042 
L 306.11196 229.406087 
L 307.11196 229.427287 
L 308.11196 229.481588 
L 309.11196 229.509526 
L 310.11196 229.53925 
L 311.11196 229.564644 
L 312.11196 229.575845 
L 313.11196 229.585969 
L 314.11196 229.585764 
L 315.11196 229.576255 
L 316.11196 229.564601 
L 317.11196 229.533572 
L 318.11196 229.522404 
L 319.11196 229.492286 
L 320.11196 229.432509 
L 321.11196 229.395318 
L 322.11196 229.356222 
L 323.11196 229.313782 
L 324.11196 229.281017 
L 325.11196 229.21359 
L 326.11196 229.174465 
L 327.11196 229.13179 
L 328.11196 229.061209 
L 329.11196 229.024819 
L 330.11196 228.966415 
L 331.11196 228.855463 
L 332.11196 228.784804 
L 333.11196 228.671865 
L 334.11196 228.626092 
L 335.11196 228.564809 
L 336.11196 228.516309 
L 337.11196 228.435486 
L 338.11196 228.316968 
L 339.11196 228.246757 
L 340.11196 228.163494 
L 341.11196 228.130353 
L 342.11196 228.079115 
L 343.11196 228.010717 
L 344.11196 227.944502 
L 345.11196 227.867585 
L 346.11196 227.840269 
L 347.11196 227.813792 
L 348.11196 227.791141 
L 349.11196 227.77161 
L 350.11196 227.745216 
L 351.11196 227.695445 
L 352.11196 227.660372 
L 353.66929 227.624506 
" clip-path="url(#pb17c0121f5)" style="fill: none; stroke: #1f77b4; stroke-opacity: 0.5; stroke-width: 0.2; stroke-linecap: square"/>
   <path d="M 290.11196 259.81405 
L 291.11196 259.845486 
L 292.11196 259.882426 
L 293.11196 259.980173 
L 294.11196 260.012694 
L 295.11196 260.086319 
L 296.11196 260.124885 
L 297.11196 260.160298 
L 298.11196 260.217938 
L 299.11196 260.288324 
L 300.11196 260.340288 
L 301.11196 260.399378 
L 302.11196 260.487699 
L 303.11196 260.533843 
L 304.11196 260.576254 
L 305.11196 260.606747 
L 306.11196 260.632792 
L 307.11196 260.653992 
L 308.11196 260.708293 
L 309.11196 260.736231 
L 310.11196 260.765955 
L 311.11196 260.791349 
L 312.11196 260.80255 
L 313.11196 260.812674 
L 314.11196 260.812469 
L 315.11196 260.802959 
L 316.11196 260.791306 
L 317.11196 260.760277 
L 318.11196 260.749109 
L 319.11196 260.718991 
L 320.11196 260.659214 
L 321.11196 260.622023 
L 322.11196 260.582927 
L 323.11196 260.540487 
L 324.11196 260.507722 
L 325.11196 260.440295 
L 326.11196 260.401169 
L 327.11196 260.358495 
L 328.11196 260.287914 
L 329.11196 260.251523 
L 330.11196 260.19312 
L 331.11196 260.082168 
L 332.11196 260.011509 
L 333.11196 259.89857 
L 334.11196 259.852797 
L 335.11196 259.791513 
L 336.11196 259.743014 
L 337.11196 259.662191 
L 338.11196 259.543673 
L 339.11196 259.473462 
L 340.11196 259.390199 
L 341.11196 259.357058 
L 342.11196 259.30582 
L 343.11196 259.237422 
L 344.11196 259.171207 
L 345.11196 259.094289 
L 346.11196 259.066974 
L 347.11196 259.040496 
L 348.11196 259.017846 
L 349.11196 258.998315 
L 350.11196 258.971921 
L 351.11196 258.92215 
L 352.11196 258.887077 
L 353.66929 258.851211 
" clip-path="url(#pb17c0121f5)" style="fill: none; stroke: #1f77b4; stroke-opacity: 0.5; stroke-width: 0.2; stroke-linecap: square"/>
   <path d="M 290.11196 232.820691 
L 291.11196 232.852127 
L 292.11196 232.889068 
L 293.11196 232.986814 
L 294.11196 233.019336 
L 295.11196 233.09296 
L 296.11196 233.131526 
L 297.11196 233.166939 
L 298.11196 233.224579 
L 299.11196 233.294965 
L 300.11196 233.346929 
L 301.11196 233.406019 
L 302.11196 233.49434 
L 303.11196 233.540484 
L 304.11196 233.582895 
L 305.11196 233.613388 
L 306.11196 233.639433 
L 307.11196 233.660633 
L 308.11196 233.714934 
L 309.11196 233.742872 
L 310.11196 233.772596 
L 311.11196 233.797991 
L 312.11196 233.809191 
L 313.11196 233.819315 
L 314.11196 233.819111 
L 315.11196 233.809601 
L 316.11196 233.797947 
L 317.11196 233.766918 
L 318.11196 233.75575 
L 319.11196 233.725632 
L 320.11196 233.665855 
L 321.11196 233.628664 
L 322.11196 233.589568 
L 323.11196 233.547128 
L 324.11196 233.514363 
L 325.11196 233.446937 
L 326.11196 233.407811 
L 327.11196 233.365136 
L 328.11196 233.294556 
L 329.11196 233.258165 
L 330.11196 233.199762 
L 331.11196 233.088809 
L 332.11196 233.018151 
L 333.11196 232.905211 
L 334.11196 232.859438 
L 335.11196 232.798155 
L 336.11196 232.749655 
L 337.11196 232.668833 
L 338.11196 232.550314 
L 339.11196 232.480103 
L 340.11196 232.396841 
L 341.11196 232.363699 
L 342.11196 232.312462 
L 343.11196 232.244063 
L 344.11196 232.177848 
L 345.11196 232.100931 
L 346.11196 232.073615 
L 347.11196 232.047138 
L 348.11196 232.024487 
L 349.11196 232.004956 
L 350.11196 231.978562 
L 351.11196 231.928791 
L 352.11196 231.893718 
L 353.66929 231.857852 
" clip-path="url(#pb17c0121f5)" style="fill: none; stroke: #1f77b4; stroke-opacity: 0.5; stroke-width: 0.2; stroke-linecap: square"/>
   <path d="M 290.11196 214.10216 
L 291.11196 214.133597 
L 292.11196 214.170537 
L 293.11196 214.268284 
L 294.11196 214.300805 
L 295.11196 214.37443 
L 296.11196 214.412996 
L 297.11196 214.448409 
L 298.11196 214.506049 
L 299.11196 214.576435 
L 300.11196 214.628399 
L 301.11196 214.687489 
L 302.11196 214.77581 
L 303.11196 214.821954 
L 304.11196 214.864365 
L 305.11196 214.894858 
L 306.11196 214.920903 
L 307.11196 214.942103 
L 308.11196 214.996404 
L 309.11196 215.024341 
L 310.11196 215.054065 
L 311.11196 215.07946 
L 312.11196 215.090661 
L 313.11196 215.100785 
L 314.11196 215.10058 
L 315.11196 215.09107 
L 316.11196 215.079417 
L 317.11196 215.048388 
L 318.11196 215.03722 
L 319.11196 215.007102 
L 320.11196 214.947325 
L 321.11196 214.910134 
L 322.11196 214.871037 
L 323.11196 214.828598 
L 324.11196 214.795833 
L 325.11196 214.728406 
L 326.11196 214.68928 
L 327.11196 214.646606 
L 328.11196 214.576025 
L 329.11196 214.539634 
L 330.11196 214.481231 
L 331.11196 214.370279 
L 332.11196 214.29962 
L 333.11196 214.18668 
L 334.11196 214.140908 
L 335.11196 214.079624 
L 336.11196 214.031125 
L 337.11196 213.950302 
L 338.11196 213.831783 
L 339.11196 213.761573 
L 340.11196 213.67831 
L 341.11196 213.645169 
L 342.11196 213.593931 
L 343.11196 213.525533 
L 344.11196 213.459317 
L 345.11196 213.3824 
L 346.11196 213.355085 
L 347.11196 213.328607 
L 348.11196 213.305957 
L 349.11196 213.286425 
L 350.11196 213.260031 
L 351.11196 213.210261 
L 352.11196 213.175188 
L 353.66929 213.139322 
" clip-path="url(#pb17c0121f5)" style="fill: none; stroke: #1f77b4; stroke-opacity: 0.5; stroke-width: 0.2; stroke-linecap: square"/>
   <g id="patch_3">
    <path d="M 69.06392 22.318125 
L 69.06392 318.021875 
M 284.549772 22.318125 
L 284.549772 318.021875 
" clip-path="url(#pb17c0121f5)" style="fill: none; stroke: #ffffff; stroke-width: 3; stroke-linejoin: miter"/>
    <path d="M 69.06392 22.318125 
L 69.06392 318.021875 
M 284.549772 22.318125 
L 284.549772 318.021875 
" clip-path="url(#pb17c0121f5)" style="fill: none; stroke: #1f77b4; stroke-linejoin: miter"/>
    <g id="PolyCollection_1">
     <path d="M 284.549772 22.318125 
L 69.06392 22.318125 
L 69.06392 318.021875 
L 284.549772 318.021875 
L 284.549772 318.021875 
L 284.549772 22.318125 
z
" clip-path="url(#pb17c0121f5)" style="fill: #1f77b4; fill-opacity: 0.5"/>
    </g>
    <g id="patch_4">
     <path d="M 359.231478 22.318125 
L 359.231478 318.021875 
M 574.71733 22.318125 
L 574.71733 318.021875 
" clip-path="url(#pb17c0121f5)" style="fill: none; stroke: #ffffff; stroke-width: 3; stroke-linejoin: miter"/>
     <path d="M 359.231478 22.318125 
L 359.231478 318.021875 
M 574.71733 22.318125 
L 574.71733 318.021875 
" clip-path="url(#pb17c0121f5)" style="fill: none; stroke: #ff7f0e; stroke-linejoin: miter"/>
     <g id="PolyCollection_2">
      <path d="M 574.71733 22.318125 
L 359.231478 22.318125 
L 359.231478 318.021875 
L 574.71733 318.021875 
L 574.71733 318.021875 
L 574.71733 22.318125 
z
" clip-path="url(#pb17c0121f5)" style="fill: #ff7f0e; fill-opacity: 0.5"/>
     </g>
     <g id="matplotlib.axis_1">
      <g id="xtick_1">
       <g id="line2d_1"/>
       <g id="text_1">
        <!-- deme0 -->
        <g transform="translate(159.42794 329.120312) scale(0.1 -0.1)">
         <defs>
          <path id="DejaVuSans-64" d="M 2906 2969 
L 2906 4863 
L 3481 4863 
L 3481 0 
L 2906 0 
L 2906 525 
Q 2725 213 2448 61 
Q 2172 -91 1784 -91 
Q 1150 -91 751 415 
Q 353 922 353 1747 
Q 353 2572 751 3078 
Q 1150 3584 1784 3584 
Q 2172 3584 2448 3432 
Q 2725 3281 2906 2969 
z
M 947 1747 
Q 947 1113 1208 752 
Q 1469 391 1925 391 
Q 2381 391 2643 752 
Q 2906 1113 2906 1747 
Q 2906 2381 2643 2742 
Q 2381 3103 1925 3103 
Q 1469 3103 1208 2742 
Q 947 2381 947 1747 
z
" transform="scale(0.015625)"/>
          <path id="DejaVuSans-65" d="M 3597 1894 
L 3597 1613 
L 953 1613 
Q 991 1019 1311 708 
Q 1631 397 2203 397 
Q 2534 397 2845 478 
Q 3156 559 3463 722 
L 3463 178 
Q 3153 47 2828 -22 
Q 2503 -91 2169 -91 
Q 1331 -91 842 396 
Q 353 884 353 1716 
Q 353 2575 817 3079 
Q 1281 3584 2069 3584 
Q 2775 3584 3186 3129 
Q 3597 2675 3597 1894 
z
M 3022 2063 
Q 3016 2534 2758 2815 
Q 2500 3097 2075 3097 
Q 1594 3097 1305 2825 
Q 1016 2553 972 2059 
L 3022 2063 
z
" transform="scale(0.015625)"/>
          <path id="DejaVuSans-6d" d="M 3328 2828 
Q 3544 3216 3844 3400 
Q 4144 3584 4550 3584 
Q 5097 3584 5394 3201 
Q 5691 2819 5691 2113 
L 5691 0 
L 5113 0 
L 5113 2094 
Q 5113 2597 4934 2840 
Q 4756 3084 4391 3084 
Q 3944 3084 3684 2787 
Q 3425 2491 3425 1978 
L 3425 0 
L 2847 0 
L 2847 2094 
Q 2847 2600 2669 2842 
Q 2491 3084 2119 3084 
Q 1678 3084 1418 2786 
Q 1159 2488 1159 1978 
L 1159 0 
L 581 0 
L 581 3500 
L 1159 3500 
L 1159 2956 
Q 1356 3278 1631 3431 
Q 1906 3584 2284 3584 
Q 2666 3584 2933 3390 
Q 3200 3197 3328 2828 
z
" transform="scale(0.015625)"/>
          <path id="DejaVuSans-30" d="M 2034 4250 
Q 1547 4250 1301 3770 
Q 1056 3291 1056 2328 
Q 1056 1369 1301 889 
Q 1547 409 2034 409 
Q 2525 409 2770 889 
Q 3016 1369 3016 2328 
Q 3016 3291 2770 3770 
Q 2525 4250 2034 4250 
z
M 2034 4750 
Q 2819 4750 3233 4129 
Q 3647 3509 3647 2328 
Q 3647 1150 3233 529 
Q 2819 -91 2034 -91 
Q 1250 -91 836 529 
Q 422 1150 422 2328 
Q 422 3509 836 4129 
Q 1250 4750 2034 4750 
z
" transform="scale(0.015625)"/>
         </defs>
         <use xlink:href="#DejaVuSans-64"/>
         <use xlink:href="#DejaVuSans-65" x="63.476562"/>
         <use xlink:href="#DejaVuSans-6d" x="125"/>
         <use xlink:href="#DejaVuSans-65" x="222.412109"/>
         <use xlink:href="#DejaVuSans-30" x="283.935547"/>
        </g>
       </g>
      </g>
      <g id="xtick_2">
       <g id="line2d_2"/>
       <g id="text_2">
        <!-- deme1 -->
        <g transform="translate(449.595497 329.120312) scale(0.1 -0.1)">
         <defs>
          <path id="DejaVuSans-31" d="M 794 531 
L 1825 531 
L 1825 4091 
L 703 3866 
L 703 4441 
L 1819 4666 
L 2450 4666 
L 2450 531 
L 3481 531 
L 3481 0 
L 794 0 
L 794 531 
z
" transform="scale(0.015625)"/>
         </defs>
         <use xlink:href="#DejaVuSans-64"/>
         <use xlink:href="#DejaVuSans-65" x="63.476562"/>
         <use xlink:href="#DejaVuSans-6d" x="125"/>
         <use xlink:href="#DejaVuSans-65" x="222.412109"/>
         <use xlink:href="#DejaVuSans-31" x="283.935547"/>
        </g>
       </g>
      </g>
     </g>
     <g id="matplotlib.axis_2">
      <g id="ytick_1">
       <g id="line2d_3">
        <defs>
         <path id="m5176194bca" d="M 0 0 
L -3.5 0 
" style="stroke: #000000; stroke-width: 0.8"/>
        </defs>
        <g>
         <use xlink:href="#m5176194bca" x="43.78125" y="318.021875" style="stroke: #000000; stroke-width: 0.8"/>
        </g>
       </g>
       <g id="text_3">
        <!-- 0.0 -->
        <g transform="translate(20.878125 321.821094) scale(0.1 -0.1)">
         <defs>
          <path id="DejaVuSans-2e" d="M 684 794 
L 1344 794 
L 1344 0 
L 684 0 
L 684 794 
z
" transform="scale(0.015625)"/>
         </defs>
         <use xlink:href="#DejaVuSans-30"/>
         <use xlink:href="#DejaVuSans-2e" x="63.623047"/>
         <use xlink:href="#DejaVuSans-30" x="95.410156"/>
        </g>
       </g>
      </g>
      <g id="ytick_2">
       <g id="line2d_4">
        <g>
         <use xlink:href="#m5176194bca" x="43.78125" y="258.881125" style="stroke: #000000; stroke-width: 0.8"/>
        </g>
       </g>
       <g id="text_4">
        <!-- 0.5 -->
        <g transform="translate(20.878125 262.680344) scale(0.1 -0.1)">
         <defs>
          <path id="DejaVuSans-35" d="M 691 4666 
L 3169 4666 
L 3169 4134 
L 1269 4134 
L 1269 2991 
Q 1406 3038 1543 3061 
Q 1681 3084 1819 3084 
Q 2600 3084 3056 2656 
Q 3513 2228 3513 1497 
Q 3513 744 3044 326 
Q 2575 -91 1722 -91 
Q 1428 -91 1123 -41 
Q 819 9 494 109 
L 494 744 
Q 775 591 1075 516 
Q 1375 441 1709 441 
Q 2250 441 2565 725 
Q 2881 1009 2881 1497 
Q 2881 1984 2565 2268 
Q 2250 2553 1709 2553 
Q 1456 2553 1204 2497 
Q 953 2441 691 2322 
L 691 4666 
z
" transform="scale(0.015625)"/>
         </defs>
         <use xlink:href="#DejaVuSans-30"/>
         <use xlink:href="#DejaVuSans-2e" x="63.623047"/>
         <use xlink:href="#DejaVuSans-35" x="95.410156"/>
        </g>
       </g>
      </g>
      <g id="ytick_3">
       <g id="line2d_5">
        <g>
         <use xlink:href="#m5176194bca" x="43.78125" y="199.740375" style="stroke: #000000; stroke-width: 0.8"/>
        </g>
       </g>
       <g id="text_5">
        <!-- 1.0 -->
        <g transform="translate(20.878125 203.539594) scale(0.1 -0.1)">
         <use xlink:href="#DejaVuSans-31"/>
         <use xlink:href="#DejaVuSans-2e" x="63.623047"/>
         <use xlink:href="#DejaVuSans-30" x="95.410156"/>
        </g>
       </g>
      </g>
      <g id="ytick_4">
       <g id="line2d_6">
        <g>
         <use xlink:href="#m5176194bca" x="43.78125" y="140.599625" style="stroke: #000000; stroke-width: 0.8"/>
        </g>
       </g>
       <g id="text_6">
        <!-- 1.5 -->
        <g transform="translate(20.878125 144.398844) scale(0.1 -0.1)">
         <use xlink:href="#DejaVuSans-31"/>
         <use xlink:href="#DejaVuSans-2e" x="63.623047"/>
         <use xlink:href="#DejaVuSans-35" x="95.410156"/>
        </g>
       </g>
      </g>
      <g id="ytick_5">
       <g id="line2d_7">
        <g>
         <use xlink:href="#m5176194bca" x="43.78125" y="81.458875" style="stroke: #000000; stroke-width: 0.8"/>
        </g>
       </g>
       <g id="text_7">
        <!-- 2.0 -->
        <g transform="translate(20.878125 85.258094) scale(0.1 -0.1)">
         <defs>
          <path id="DejaVuSans-32" d="M 1228 531 
L 3431 531 
L 3431 0 
L 469 0 
L 469 531 
Q 828 903 1448 1529 
Q 2069 2156 2228 2338 
Q 2531 2678 2651 2914 
Q 2772 3150 2772 3378 
Q 2772 3750 2511 3984 
Q 2250 4219 1831 4219 
Q 1534 4219 1204 4116 
Q 875 4013 500 3803 
L 500 4441 
Q 881 4594 1212 4672 
Q 1544 4750 1819 4750 
Q 2544 4750 2975 4387 
Q 3406 4025 3406 3419 
Q 3406 3131 3298 2873 
Q 3191 2616 2906 2266 
Q 2828 2175 2409 1742 
Q 1991 1309 1228 531 
z
" transform="scale(0.015625)"/>
         </defs>
         <use xlink:href="#DejaVuSans-32"/>
         <use xlink:href="#DejaVuSans-2e" x="63.623047"/>
         <use xlink:href="#DejaVuSans-30" x="95.410156"/>
        </g>
       </g>
      </g>
      <g id="ytick_6">
       <g id="line2d_8">
        <g>
         <use xlink:href="#m5176194bca" x="43.78125" y="22.318125" style="stroke: #000000; stroke-width: 0.8"/>
        </g>
       </g>
       <g id="text_8">
        <!-- 2.5 -->
        <g transform="translate(20.878125 26.117344) scale(0.1 -0.1)">
         <use xlink:href="#DejaVuSans-32"/>
         <use xlink:href="#DejaVuSans-2e" x="63.623047"/>
         <use xlink:href="#DejaVuSans-35" x="95.410156"/>
        </g>
       </g>
      </g>
      <g id="text_9">
       <!-- time ago (generations) -->
       <g transform="translate(14.798438 227.641094) rotate(-90) scale(0.1 -0.1)">
        <defs>
         <path id="DejaVuSans-74" d="M 1172 4494 
L 1172 3500 
L 2356 3500 
L 2356 3053 
L 1172 3053 
L 1172 1153 
Q 1172 725 1289 603 
Q 1406 481 1766 481 
L 2356 481 
L 2356 0 
L 1766 0 
Q 1100 0 847 248 
Q 594 497 594 1153 
L 594 3053 
L 172 3053 
L 172 3500 
L 594 3500 
L 594 4494 
L 1172 4494 
z
" transform="scale(0.015625)"/>
         <path id="DejaVuSans-69" d="M 603 3500 
L 1178 3500 
L 1178 0 
L 603 0 
L 603 3500 
z
M 603 4863 
L 1178 4863 
L 1178 4134 
L 603 4134 
L 603 4863 
z
" transform="scale(0.015625)"/>
         <path id="DejaVuSans-20" transform="scale(0.015625)"/>
         <path id="DejaVuSans-61" d="M 2194 1759 
Q 1497 1759 1228 1600 
Q 959 1441 959 1056 
Q 959 750 1161 570 
Q 1363 391 1709 391 
Q 2188 391 2477 730 
Q 2766 1069 2766 1631 
L 2766 1759 
L 2194 1759 
z
M 3341 1997 
L 3341 0 
L 2766 0 
L 2766 531 
Q 2569 213 2275 61 
Q 1981 -91 1556 -91 
Q 1019 -91 701 211 
Q 384 513 384 1019 
Q 384 1609 779 1909 
Q 1175 2209 1959 2209 
L 2766 2209 
L 2766 2266 
Q 2766 2663 2505 2880 
Q 2244 3097 1772 3097 
Q 1472 3097 1187 3025 
Q 903 2953 641 2809 
L 641 3341 
Q 956 3463 1253 3523 
Q 1550 3584 1831 3584 
Q 2591 3584 2966 3190 
Q 3341 2797 3341 1997 
z
" transform="scale(0.015625)"/>
         <path id="DejaVuSans-67" d="M 2906 1791 
Q 2906 2416 2648 2759 
Q 2391 3103 1925 3103 
Q 1463 3103 1205 2759 
Q 947 2416 947 1791 
Q 947 1169 1205 825 
Q 1463 481 1925 481 
Q 2391 481 2648 825 
Q 2906 1169 2906 1791 
z
M 3481 434 
Q 3481 -459 3084 -895 
Q 2688 -1331 1869 -1331 
Q 1566 -1331 1297 -1286 
Q 1028 -1241 775 -1147 
L 775 -588 
Q 1028 -725 1275 -790 
Q 1522 -856 1778 -856 
Q 2344 -856 2625 -561 
Q 2906 -266 2906 331 
L 2906 616 
Q 2728 306 2450 153 
Q 2172 0 1784 0 
Q 1141 0 747 490 
Q 353 981 353 1791 
Q 353 2603 747 3093 
Q 1141 3584 1784 3584 
Q 2172 3584 2450 3431 
Q 2728 3278 2906 2969 
L 2906 3500 
L 3481 3500 
L 3481 434 
z
" transform="scale(0.015625)"/>
         <path id="DejaVuSans-6f" d="M 1959 3097 
Q 1497 3097 1228 2736 
Q 959 2375 959 1747 
Q 959 1119 1226 758 
Q 1494 397 1959 397 
Q 2419 397 2687 759 
Q 2956 1122 2956 1747 
Q 2956 2369 2687 2733 
Q 2419 3097 1959 3097 
z
M 1959 3584 
Q 2709 3584 3137 3096 
Q 3566 2609 3566 1747 
Q 3566 888 3137 398 
Q 2709 -91 1959 -91 
Q 1206 -91 779 398 
Q 353 888 353 1747 
Q 353 2609 779 3096 
Q 1206 3584 1959 3584 
z
" transform="scale(0.015625)"/>
         <path id="DejaVuSans-28" d="M 1984 4856 
Q 1566 4138 1362 3434 
Q 1159 2731 1159 2009 
Q 1159 1288 1364 580 
Q 1569 -128 1984 -844 
L 1484 -844 
Q 1016 -109 783 600 
Q 550 1309 550 2009 
Q 550 2706 781 3412 
Q 1013 4119 1484 4856 
L 1984 4856 
z
" transform="scale(0.015625)"/>
         <path id="DejaVuSans-6e" d="M 3513 2113 
L 3513 0 
L 2938 0 
L 2938 2094 
Q 2938 2591 2744 2837 
Q 2550 3084 2163 3084 
Q 1697 3084 1428 2787 
Q 1159 2491 1159 1978 
L 1159 0 
L 581 0 
L 581 3500 
L 1159 3500 
L 1159 2956 
Q 1366 3272 1645 3428 
Q 1925 3584 2291 3584 
Q 2894 3584 3203 3211 
Q 3513 2838 3513 2113 
z
" transform="scale(0.015625)"/>
         <path id="DejaVuSans-72" d="M 2631 2963 
Q 2534 3019 2420 3045 
Q 2306 3072 2169 3072 
Q 1681 3072 1420 2755 
Q 1159 2438 1159 1844 
L 1159 0 
L 581 0 
L 581 3500 
L 1159 3500 
L 1159 2956 
Q 1341 3275 1631 3429 
Q 1922 3584 2338 3584 
Q 2397 3584 2469 3576 
Q 2541 3569 2628 3553 
L 2631 2963 
z
" transform="scale(0.015625)"/>
         <path id="DejaVuSans-73" d="M 2834 3397 
L 2834 2853 
Q 2591 2978 2328 3040 
Q 2066 3103 1784 3103 
Q 1356 3103 1142 2972 
Q 928 2841 928 2578 
Q 928 2378 1081 2264 
Q 1234 2150 1697 2047 
L 1894 2003 
Q 2506 1872 2764 1633 
Q 3022 1394 3022 966 
Q 3022 478 2636 193 
Q 2250 -91 1575 -91 
Q 1294 -91 989 -36 
Q 684 19 347 128 
L 347 722 
Q 666 556 975 473 
Q 1284 391 1588 391 
Q 1994 391 2212 530 
Q 2431 669 2431 922 
Q 2431 1156 2273 1281 
Q 2116 1406 1581 1522 
L 1381 1569 
Q 847 1681 609 1914 
Q 372 2147 372 2553 
Q 372 3047 722 3315 
Q 1072 3584 1716 3584 
Q 2034 3584 2315 3537 
Q 2597 3491 2834 3397 
z
" transform="scale(0.015625)"/>
         <path id="DejaVuSans-29" d="M 513 4856 
L 1013 4856 
Q 1481 4119 1714 3412 
Q 1947 2706 1947 2009 
Q 1947 1309 1714 600 
Q 1481 -109 1013 -844 
L 513 -844 
Q 928 -128 1133 580 
Q 1338 1288 1338 2009 
Q 1338 2731 1133 3434 
Q 928 4138 513 4856 
z
" transform="scale(0.015625)"/>
        </defs>
        <use xlink:href="#DejaVuSans-74"/>
        <use xlink:href="#DejaVuSans-69" x="39.208984"/>
        <use xlink:href="#DejaVuSans-6d" x="66.992188"/>
        <use xlink:href="#DejaVuSans-65" x="164.404297"/>
        <use xlink:href="#DejaVuSans-20" x="225.927734"/>
        <use xlink:href="#DejaVuSans-61" x="257.714844"/>
        <use xlink:href="#DejaVuSans-67" x="318.994141"/>
        <use xlink:href="#DejaVuSans-6f" x="382.470703"/>
        <use xlink:href="#DejaVuSans-20" x="443.652344"/>
        <use xlink:href="#DejaVuSans-28" x="475.439453"/>
        <use xlink:href="#DejaVuSans-67" x="514.453125"/>
        <use xlink:href="#DejaVuSans-65" x="577.929688"/>
        <use xlink:href="#DejaVuSans-6e" x="639.453125"/>
        <use xlink:href="#DejaVuSans-65" x="702.832031"/>
        <use xlink:href="#DejaVuSans-72" x="764.355469"/>
        <use xlink:href="#DejaVuSans-61" x="805.46875"/>
        <use xlink:href="#DejaVuSans-74" x="866.748047"/>
        <use xlink:href="#DejaVuSans-69" x="905.957031"/>
        <use xlink:href="#DejaVuSans-6f" x="933.740234"/>
        <use xlink:href="#DejaVuSans-6e" x="994.921875"/>
        <use xlink:href="#DejaVuSans-73" x="1058.300781"/>
        <use xlink:href="#DejaVuSans-29" x="1110.400391"/>
       </g>
      </g>
     </g>
     <path d="M 354.66929 183.532624 
L 352.66929 182.532624 
L 352.66929 184.532624 
z
" clip-path="url(#pb17c0121f5)" style="fill: #1f77b4; fill-opacity: 0.5; stroke: #1f77b4; stroke-opacity: 0.5; stroke-linejoin: miter"/>
     <path d="M 354.66929 157.312885 
L 352.66929 156.312885 
L 352.66929 158.312885 
z
" clip-path="url(#pb17c0121f5)" style="fill: #1f77b4; fill-opacity: 0.5; stroke: #1f77b4; stroke-opacity: 0.5; stroke-linejoin: miter"/>
     <path d="M 354.66929 94.949626 
L 352.66929 93.949626 
L 352.66929 95.949626 
z
" clip-path="url(#pb17c0121f5)" style="fill: #1f77b4; fill-opacity: 0.5; stroke: #1f77b4; stroke-opacity: 0.5; stroke-linejoin: miter"/>
     <path d="M 354.66929 82.991484 
L 352.66929 81.991484 
L 352.66929 83.991484 
z
" clip-path="url(#pb17c0121f5)" style="fill: #1f77b4; fill-opacity: 0.5; stroke: #1f77b4; stroke-opacity: 0.5; stroke-linejoin: miter"/>
     <path d="M 354.66929 131.90056 
L 352.66929 130.90056 
L 352.66929 132.90056 
z
" clip-path="url(#pb17c0121f5)" style="fill: #1f77b4; fill-opacity: 0.5; stroke: #1f77b4; stroke-opacity: 0.5; stroke-linejoin: miter"/>
     <path d="M 354.66929 160.663989 
L 352.66929 159.663989 
L 352.66929 161.663989 
z
" clip-path="url(#pb17c0121f5)" style="fill: #1f77b4; fill-opacity: 0.5; stroke: #1f77b4; stroke-opacity: 0.5; stroke-linejoin: miter"/>
     <path d="M 354.66929 116.700241 
L 352.66929 115.700241 
L 352.66929 117.700241 
z
" clip-path="url(#pb17c0121f5)" style="fill: #1f77b4; fill-opacity: 0.5; stroke: #1f77b4; stroke-opacity: 0.5; stroke-linejoin: miter"/>
     <path d="M 354.66929 118.183753 
L 352.66929 117.183753 
L 352.66929 119.183753 
z
" clip-path="url(#pb17c0121f5)" style="fill: #1f77b4; fill-opacity: 0.5; stroke: #1f77b4; stroke-opacity: 0.5; stroke-linejoin: miter"/>
     <path d="M 354.66929 145.566195 
L 352.66929 144.566195 
L 352.66929 146.566195 
z
" clip-path="url(#pb17c0121f5)" style="fill: #1f77b4; fill-opacity: 0.5; stroke: #1f77b4; stroke-opacity: 0.5; stroke-linejoin: miter"/>
     <path d="M 354.66929 182.751694 
L 352.66929 181.751694 
L 352.66929 183.751694 
z
" clip-path="url(#pb17c0121f5)" style="fill: #1f77b4; fill-opacity: 0.5; stroke: #1f77b4; stroke-opacity: 0.5; stroke-linejoin: miter"/>
     <path d="M 354.66929 289.331479 
L 352.66929 288.331479 
L 352.66929 290.331479 
z
" clip-path="url(#pb17c0121f5)" style="fill: #1f77b4; fill-opacity: 0.5; stroke: #1f77b4; stroke-opacity: 0.5; stroke-linejoin: miter"/>
     <path d="M 354.66929 223.15372 
L 352.66929 222.15372 
L 352.66929 224.15372 
z
" clip-path="url(#pb17c0121f5)" style="fill: #1f77b4; fill-opacity: 0.5; stroke: #1f77b4; stroke-opacity: 0.5; stroke-linejoin: miter"/>
     <path d="M 354.66929 267.689187 
L 352.66929 266.689187 
L 352.66929 268.689187 
z
" clip-path="url(#pb17c0121f5)" style="fill: #1f77b4; fill-opacity: 0.5; stroke: #1f77b4; stroke-opacity: 0.5; stroke-linejoin: miter"/>
     <path d="M 354.66929 253.995069 
L 352.66929 252.995069 
L 352.66929 254.995069 
z
" clip-path="url(#pb17c0121f5)" style="fill: #1f77b4; fill-opacity: 0.5; stroke: #1f77b4; stroke-opacity: 0.5; stroke-linejoin: miter"/>
     <path d="M 354.66929 311.613042 
L 352.66929 310.613042 
L 352.66929 312.613042 
z
" clip-path="url(#pb17c0121f5)" style="fill: #1f77b4; fill-opacity: 0.5; stroke: #1f77b4; stroke-opacity: 0.5; stroke-linejoin: miter"/>
     <path d="M 354.66929 261.686452 
L 352.66929 260.686452 
L 352.66929 262.686452 
z
" clip-path="url(#pb17c0121f5)" style="fill: #1f77b4; fill-opacity: 0.5; stroke: #1f77b4; stroke-opacity: 0.5; stroke-linejoin: miter"/>
     <path d="M 354.66929 228.587345 
L 352.66929 227.587345 
L 352.66929 229.587345 
z
" clip-path="url(#pb17c0121f5)" style="fill: #1f77b4; fill-opacity: 0.5; stroke: #1f77b4; stroke-opacity: 0.5; stroke-linejoin: miter"/>
     <path d="M 354.66929 259.81405 
L 352.66929 258.81405 
L 352.66929 260.81405 
z
" clip-path="url(#pb17c0121f5)" style="fill: #1f77b4; fill-opacity: 0.5; stroke: #1f77b4; stroke-opacity: 0.5; stroke-linejoin: miter"/>
     <path d="M 354.66929 232.820691 
L 352.66929 231.820691 
L 352.66929 233.820691 
z
" clip-path="url(#pb17c0121f5)" style="fill: #1f77b4; fill-opacity: 0.5; stroke: #1f77b4; stroke-opacity: 0.5; stroke-linejoin: miter"/>
     <path d="M 354.66929 214.10216 
L 352.66929 213.10216 
L 352.66929 215.10216 
z
" clip-path="url(#pb17c0121f5)" style="fill: #1f77b4; fill-opacity: 0.5; stroke: #1f77b4; stroke-opacity: 0.5; stroke-linejoin: miter"/>
     <g id="patch_5">
      <path d="M 43.78125 318.021875 
L 43.78125 22.318125 
" style="fill: none; stroke: #000000; stroke-width: 0.8; stroke-linejoin: miter; stroke-linecap: square"/>
     </g>
     <g id="text_10">
      <!-- defaults_asymmetric_migration_changing_rate.yaml -->
      <g transform="translate(164.675625 16.318125) scale(0.12 -0.12)">
       <defs>
        <path id="DejaVuSans-66" d="M 2375 4863 
L 2375 4384 
L 1825 4384 
Q 1516 4384 1395 4259 
Q 1275 4134 1275 3809 
L 1275 3500 
L 2222 3500 
L 2222 3053 
L 1275 3053 
L 1275 0 
L 697 0 
L 697 3053 
L 147 3053 
L 147 3500 
L 697 3500 
L 697 3744 
Q 697 4328 969 4595 
Q 1241 4863 1831 4863 
L 2375 4863 
z
" transform="scale(0.015625)"/>
        <path id="DejaVuSans-75" d="M 544 1381 
L 544 3500 
L 1119 3500 
L 1119 1403 
Q 1119 906 1312 657 
Q 1506 409 1894 409 
Q 2359 409 2629 706 
Q 2900 1003 2900 1516 
L 2900 3500 
L 3475 3500 
L 3475 0 
L 2900 0 
L 2900 538 
Q 2691 219 2414 64 
Q 2138 -91 1772 -91 
Q 1169 -91 856 284 
Q 544 659 544 1381 
z
M 1991 3584 
L 1991 3584 
z
" transform="scale(0.015625)"/>
        <path id="DejaVuSans-6c" d="M 603 4863 
L 1178 4863 
L 1178 0 
L 603 0 
L 603 4863 
z
" transform="scale(0.015625)"/>
        <path id="DejaVuSans-5f" d="M 3263 -1063 
L 3263 -1509 
L -63 -1509 
L -63 -1063 
L 3263 -1063 
z
" transform="scale(0.015625)"/>
        <path id="DejaVuSans-79" d="M 2059 -325 
Q 1816 -950 1584 -1140 
Q 1353 -1331 966 -1331 
L 506 -1331 
L 506 -850 
L 844 -850 
Q 1081 -850 1212 -737 
Q 1344 -625 1503 -206 
L 1606 56 
L 191 3500 
L 800 3500 
L 1894 763 
L 2988 3500 
L 3597 3500 
L 2059 -325 
z
" transform="scale(0.015625)"/>
        <path id="DejaVuSans-63" d="M 3122 3366 
L 3122 2828 
Q 2878 2963 2633 3030 
Q 2388 3097 2138 3097 
Q 1578 3097 1268 2742 
Q 959 2388 959 1747 
Q 959 1106 1268 751 
Q 1578 397 2138 397 
Q 2388 397 2633 464 
Q 2878 531 3122 666 
L 3122 134 
Q 2881 22 2623 -34 
Q 2366 -91 2075 -91 
Q 1284 -91 818 406 
Q 353 903 353 1747 
Q 353 2603 823 3093 
Q 1294 3584 2113 3584 
Q 2378 3584 2631 3529 
Q 2884 3475 3122 3366 
z
" transform="scale(0.015625)"/>
        <path id="DejaVuSans-68" d="M 3513 2113 
L 3513 0 
L 2938 0 
L 2938 2094 
Q 2938 2591 2744 2837 
Q 2550 3084 2163 3084 
Q 1697 3084 1428 2787 
Q 1159 2491 1159 1978 
L 1159 0 
L 581 0 
L 581 4863 
L 1159 4863 
L 1159 2956 
Q 1366 3272 1645 3428 
Q 1925 3584 2291 3584 
Q 2894 3584 3203 3211 
Q 3513 2838 3513 2113 
z
" transform="scale(0.015625)"/>
       </defs>
       <use xlink:href="#DejaVuSans-64"/>
       <use xlink:href="#DejaVuSans-65" x="63.476562"/>
       <use xlink:href="#DejaVuSans-66" x="125"/>
       <use xlink:href="#DejaVuSans-61" x="160.205078"/>
       <use xlink:href="#DejaVuSans-75" x="221.484375"/>
       <use xlink:href="#DejaVuSans-6c" x="284.863281"/>
       <use xlink:href="#DejaVuSans-74" x="312.646484"/>
       <use xlink:href="#DejaVuSans-73" x="351.855469"/>
       <use xlink:href="#DejaVuSans-5f" x="403.955078"/>
       <use xlink:href="#DejaVuSans-61" x="453.955078"/>
       <use xlink:href="#DejaVuSans-73" x="515.234375"/>
       <use xlink:href="#DejaVuSans-79" x="567.333984"/>
       <use xlink:href="#DejaVuSans-6d" x="626.513672"/>
       <use xlink:href="#DejaVuSans-6d" x="723.925781"/>
       <use xlink:href="#DejaVuSans-65" x="821.337891"/>
       <use xlink:href="#DejaVuSans-74" x="882.861328"/>
       <use xlink:href="#DejaVuSans-72" x="922.070312"/>
       <use xlink:href="#DejaVuSans-69" x="963.183594"/>
       <use xlink:href="#DejaVuSans-63" x="990.966797"/>
       <use xlink:href="#DejaVuSans-5f" x="1045.947266"/>
       <use xlink:href="#DejaVuSans-6d" x="1095.947266"/>
       <use xlink:href="#DejaVuSans-69" x="1193.359375"/>
       <use xlink:href="#DejaVuSans-67" x="1221.142578"/>
       <use xlink:href="#DejaVuSans-72" x="1284.619141"/>
       <use xlink:href="#DejaVuSans-61" x="1325.732422"/>
       <use xlink:href="#DejaVuSans-74" x="1387.011719"/>
       <use xlink:href="#DejaVuSans-69" x="1426.220703"/>
       <use xlink:href="#DejaVuSans-6f" x="1454.003906"/>
       <use xlink:href="#DejaVuSans-6e" x="1515.185547"/>
       <use xlink:href="#DejaVuSans-5f" x="1578.564453"/>
       <use xlink:href="#DejaVuSans-63" x="1628.564453"/>
       <use xlink:href="#DejaVuSans-68" x="1683.544922"/>
       <use xlink:href="#DejaVuSans-61" x="1746.923828"/>
       <use xlink:href="#DejaVuSans-6e" x="1808.203125"/>
       <use xlink:href="#DejaVuSans-67" x="1871.582031"/>
       <use xlink:href="#DejaVuSans-69" x="1935.058594"/>
       <use xlink:href="#DejaVuSans-6e" x="1962.841797"/>
       <use xlink:href="#DejaVuSans-67" x="2026.220703"/>
       <use xlink:href="#DejaVuSans-5f" x="2089.697266"/>
       <use xlink:href="#DejaVuSans-72" x="2139.697266"/>
       <use xlink:href="#DejaVuSans-61" x="2180.810547"/>
       <use xlink:href="#DejaVuSans-74" x="2242.089844"/>
       <use xlink:href="#DejaVuSans-65" x="2281.298828"/>
       <use xlink:href="#DejaVuSans-2e" x="2342.822266"/>
       <use xlink:href="#DejaVuSans-79" x="2374.609375"/>
       <use xlink:href="#DejaVuSans-61" x="2433.789062"/>
       <use xlink:href="#DejaVuSans-6d" x="2495.068359"/>
       <use xlink:href="#DejaVuSans-6c" x="2592.480469"/>
      </g>
     </g>
    </g>
   </g>
   <defs>
    <clipPath id="pb17c0121f5">
     <rect x="43.78125" y="22.318125" width="556.21875" height="295.70375"/>
    </clipPath>
   </defs>
  </g>
 </g>
</svg>
