<?xml version="1.0" encoding="utf-8" standalone="no"?>
<!DOCTYPE svg PUBLIC "-//W3C//DTD SVG 1.1//EN"
  "http://www.w3.org/Graphics/SVG/1.1/DTD/svg11.dtd">
<svg xmlns:xlink="http://www.w3.org/1999/xlink" width="607.2pt" height="338.4pt" viewBox="0 0 607.2 338.4" xmlns="http://www.w3.org/2000/svg" version="1.1">
 <metadata>
  <rdf:RDF xmlns:dc="http://purl.org/dc/elements/1.1/" xmlns:cc="http://creativecommons.org/ns#" xmlns:rdf="http://www.w3.org/1999/02/22-rdf-syntax-ns#">
   <cc:Work>
    <dc:type rdf:resource="http://purl.org/dc/dcmitype/StillImage"/>
    <dc:date>2023-03-21T08:54:57.025295</dc:date>
    <dc:format>image/svg+xml</dc:format>
    <dc:creator>
     <cc:Agent>
      <dc:title>Matplotlib v3.7.1, https://matplotlib.org/</dc:title>
     </cc:Agent>
    </dc:creator>
   </cc:Work>
  </rdf:RDF>
 </metadata>
 <defs>
  <style type="text/css">*{stroke-linejoin: round; stroke-linecap: butt}</style>
 </defs>
 <g id="figure_1">
  <g id="patch_1">
   <path d="M 0 338.4 
L 607.2 338.4 
L 607.2 0 
L 0 0 
z
" style="fill: #ffffff"/>
  </g>
  <g id="axes_1">
   <g id="patch_2">
    <path d="M 43.78125 318.021875 
L 600 318.021875 
L 600 22.318125 
L 43.78125 22.318125 
z
" style="fill: #ffffff"/>
   </g>
   <path d="M 197.997965 87.938075 
L 198.997965 87.969511 
L 199.997965 88.006451 
L 200.997965 88.104198 
L 201.997965 88.13672 
L 202.997965 88.210344 
L 203.997965 88.24891 
L 204.997965 88.284323 
L 205.997965 88.341963 
L 206.997965 88.412349 
L 207.997965 88.464313 
L 208.997965 88.523403 
L 209.997965 88.611724 
L 210.997965 88.657868 
L 211.997965 88.700279 
L 212.997965 88.730772 
L 213.997965 88.756817 
L 214.997965 88.778017 
L 215.997965 88.832318 
L 216.997965 88.860256 
L 217.997965 88.88998 
L 218.997965 88.915374 
L 219.997965 88.926575 
L 220.997965 88.936699 
L 221.997965 88.936494 
L 222.997965 88.926985 
L 223.997965 88.915331 
L 224.997965 88.884302 
L 225.997965 88.873134 
L 226.997965 88.843016 
L 227.997965 88.783239 
L 228.997965 88.746048 
L 229.997965 88.706952 
L 230.997965 88.664512 
L 231.997965 88.631747 
L 232.997965 88.56432 
L 233.997965 88.525195 
L 234.997965 88.48252 
L 235.997965 88.411939 
L 236.997965 88.375549 
L 237.997965 88.317145 
L 238.997965 88.206193 
L 239.997965 88.135534 
L 240.997965 88.022595 
L 241.997965 87.976822 
L 242.997965 87.915539 
L 243.997965 87.867039 
L 244.997965 87.786217 
L 245.997965 87.667698 
L 246.997965 87.597487 
L 247.997965 87.514225 
L 248.997965 87.481083 
L 249.997965 87.429845 
L 250.997965 87.361447 
L 251.997965 87.295232 
L 252.997965 87.218315 
L 254.642509 87.190999 
" clip-path="url(#p2159786285)" style="fill: none; stroke: #1f77b4; stroke-opacity: 0.5; stroke-width: 0.2; stroke-linecap: square"/>
   <path d="M 197.997965 169.758839 
L 198.997965 169.790275 
L 199.997965 169.827216 
L 200.997965 169.924962 
L 201.997965 169.957484 
L 202.997965 170.031109 
L 203.997965 170.069674 
L 204.997965 170.105087 
L 205.997965 170.162727 
L 206.997965 170.233114 
L 207.997965 170.285078 
L 208.997965 170.344168 
L 209.997965 170.432488 
L 210.997965 170.478633 
L 211.997965 170.521044 
L 212.997965 170.551536 
L 213.997965 170.577581 
L 214.997965 170.598781 
L 215.997965 170.653083 
L 216.997965 170.68102 
L 217.997965 170.710744 
L 218.997965 170.736139 
L 219.997965 170.747339 
L 220.997965 170.757463 
L 221.997965 170.757259 
L 222.997965 170.747749 
L 223.997965 170.736095 
L 224.997965 170.705066 
L 225.997965 170.693898 
L 226.997965 170.663781 
L 227.997965 170.604004 
L 228.997965 170.566812 
L 229.997965 170.527716 
L 230.997965 170.485277 
L 231.997965 170.452511 
L 232.997965 170.385085 
L 233.997965 170.345959 
L 234.997965 170.303285 
L 235.997965 170.232704 
L 236.997965 170.196313 
L 237.997965 170.13791 
L 238.997965 170.026957 
L 239.997965 169.956299 
L 240.997965 169.843359 
L 241.997965 169.797586 
L 242.997965 169.736303 
L 243.997965 169.687804 
L 244.997965 169.606981 
L 245.997965 169.488462 
L 246.997965 169.418251 
L 247.997965 169.334989 
L 248.997965 169.301847 
L 249.997965 169.25061 
L 250.997965 169.182212 
L 251.997965 169.115996 
L 252.997965 169.039079 
L 254.642509 169.011764 
" clip-path="url(#p2159786285)" style="fill: none; stroke: #1f77b4; stroke-opacity: 0.5; stroke-width: 0.2; stroke-linecap: square"/>
   <path d="M 197.997965 187.423407 
L 198.997965 187.454843 
L 199.997965 187.491784 
L 200.997965 187.58953 
L 201.997965 187.622052 
L 202.997965 187.695676 
L 203.997965 187.734242 
L 204.997965 187.769655 
L 205.997965 187.827295 
L 206.997965 187.897681 
L 207.997965 187.949645 
L 208.997965 188.008735 
L 209.997965 188.097056 
L 210.997965 188.143201 
L 211.997965 188.185611 
L 212.997965 188.216104 
L 213.997965 188.242149 
L 214.997965 188.263349 
L 215.997965 188.31765 
L 216.997965 188.345588 
L 217.997965 188.375312 
L 218.997965 188.400707 
L 219.997965 188.411907 
L 220.997965 188.422031 
L 221.997965 188.421827 
L 222.997965 188.412317 
L 223.997965 188.400663 
L 224.997965 188.369634 
L 225.997965 188.358466 
L 226.997965 188.328348 
L 227.997965 188.268572 
L 228.997965 188.23138 
L 229.997965 188.192284 
L 230.997965 188.149844 
L 231.997965 188.117079 
L 232.997965 188.049653 
L 233.997965 188.010527 
L 234.997965 187.967852 
L 235.997965 187.897272 
L 236.997965 187.860881 
L 237.997965 187.802478 
L 238.997965 187.691525 
L 239.997965 187.620867 
L 240.997965 187.507927 
L 241.997965 187.462154 
L 242.997965 187.400871 
L 243.997965 187.352371 
L 244.997965 187.271549 
L 245.997965 187.15303 
L 246.997965 187.082819 
L 247.997965 186.999557 
L 248.997965 186.966415 
L 249.997965 186.915178 
L 250.997965 186.846779 
L 251.997965 186.780564 
L 252.997965 186.703647 
L 254.642509 186.676331 
" clip-path="url(#p2159786285)" style="fill: none; stroke: #1f77b4; stroke-opacity: 0.5; stroke-width: 0.2; stroke-linecap: square"/>
   <path d="M 197.997965 125.16212 
L 198.997965 125.193557 
L 199.997965 125.230497 
L 200.997965 125.328244 
L 201.997965 125.360765 
L 202.997965 125.43439 
L 203.997965 125.472955 
L 204.997965 125.508369 
L 205.997965 125.566009 
L 206.997965 125.636395 
L 207.997965 125.688359 
L 208.997965 125.747449 
L 209.997965 125.83577 
L 210.997965 125.881914 
L 211.997965 125.924325 
L 212.997965 125.954818 
L 213.997965 125.980863 
L 214.997965 126.002063 
L 215.997965 126.056364 
L 216.997965 126.084301 
L 217.997965 126.114025 
L 218.997965 126.13942 
L 219.997965 126.150621 
L 220.997965 126.160744 
L 221.997965 126.16054 
L 222.997965 126.15103 
L 223.997965 126.139377 
L 224.997965 126.108347 
L 225.997965 126.09718 
L 226.997965 126.067062 
L 227.997965 126.007285 
L 228.997965 125.970094 
L 229.997965 125.930997 
L 230.997965 125.888558 
L 231.997965 125.855793 
L 232.997965 125.788366 
L 233.997965 125.74924 
L 234.997965 125.706566 
L 235.997965 125.635985 
L 236.997965 125.599594 
L 237.997965 125.541191 
L 238.997965 125.430239 
L 239.997965 125.35958 
L 240.997965 125.24664 
L 241.997965 125.200868 
L 242.997965 125.139584 
L 243.997965 125.091085 
L 244.997965 125.010262 
L 245.997965 124.891743 
L 246.997965 124.821533 
L 247.997965 124.73827 
L 248.997965 124.705128 
L 249.997965 124.653891 
L 250.997965 124.585493 
L 251.997965 124.519277 
L 252.997965 124.44236 
L 254.642509 124.415045 
" clip-path="url(#p2159786285)" style="fill: none; stroke: #1f77b4; stroke-opacity: 0.5; stroke-width: 0.2; stroke-linecap: square"/>
   <path d="M 197.997965 148.368349 
L 198.997965 148.399786 
L 199.997965 148.436726 
L 200.997965 148.534473 
L 201.997965 148.566994 
L 202.997965 148.640619 
L 203.997965 148.679184 
L 204.997965 148.714598 
L 205.997965 148.772238 
L 206.997965 148.842624 
L 207.997965 148.894588 
L 208.997965 148.953678 
L 209.997965 149.041999 
L 210.997965 149.088143 
L 211.997965 149.130554 
L 212.997965 149.161047 
L 213.997965 149.187092 
L 214.997965 149.208292 
L 215.997965 149.262593 
L 216.997965 149.29053 
L 217.997965 149.320254 
L 218.997965 149.345649 
L 219.997965 149.35685 
L 220.997965 149.366973 
L 221.997965 149.366769 
L 222.997965 149.357259 
L 223.997965 149.345606 
L 224.997965 149.314576 
L 225.997965 149.303409 
L 226.997965 149.273291 
L 227.997965 149.213514 
L 228.997965 149.176322 
L 229.997965 149.137226 
L 230.997965 149.094787 
L 231.997965 149.062022 
L 232.997965 148.994595 
L 233.997965 148.955469 
L 234.997965 148.912795 
L 235.997965 148.842214 
L 236.997965 148.805823 
L 237.997965 148.74742 
L 238.997965 148.636468 
L 239.997965 148.565809 
L 240.997965 148.452869 
L 241.997965 148.407096 
L 242.997965 148.345813 
L 243.997965 148.297314 
L 244.997965 148.216491 
L 245.997965 148.097972 
L 246.997965 148.027762 
L 247.997965 147.944499 
L 248.997965 147.911357 
L 249.997965 147.86012 
L 250.997965 147.791722 
L 251.997965 147.725506 
L 252.997965 147.648589 
L 254.642509 147.621274 
" clip-path="url(#p2159786285)" style="fill: none; stroke: #1f77b4; stroke-opacity: 0.5; stroke-width: 0.2; stroke-linecap: square"/>
   <path d="M 197.997965 103.825078 
L 198.997965 103.856515 
L 199.997965 103.893455 
L 200.997965 103.991202 
L 201.997965 104.023723 
L 202.997965 104.097348 
L 203.997965 104.135914 
L 204.997965 104.171327 
L 205.997965 104.228967 
L 206.997965 104.299353 
L 207.997965 104.351317 
L 208.997965 104.410407 
L 209.997965 104.498728 
L 210.997965 104.544872 
L 211.997965 104.587283 
L 212.997965 104.617776 
L 213.997965 104.643821 
L 214.997965 104.665021 
L 215.997965 104.719322 
L 216.997965 104.747259 
L 217.997965 104.776983 
L 218.997965 104.802378 
L 219.997965 104.813579 
L 220.997965 104.823703 
L 221.997965 104.823498 
L 222.997965 104.813988 
L 223.997965 104.802335 
L 224.997965 104.771306 
L 225.997965 104.760138 
L 226.997965 104.73002 
L 227.997965 104.670243 
L 228.997965 104.633052 
L 229.997965 104.593956 
L 230.997965 104.551516 
L 231.997965 104.518751 
L 232.997965 104.451324 
L 233.997965 104.412198 
L 234.997965 104.369524 
L 235.997965 104.298943 
L 236.997965 104.262552 
L 237.997965 104.204149 
L 238.997965 104.093197 
L 239.997965 104.022538 
L 240.997965 103.909598 
L 241.997965 103.863826 
L 242.997965 103.802542 
L 243.997965 103.754043 
L 244.997965 103.67322 
L 245.997965 103.554701 
L 246.997965 103.484491 
L 247.997965 103.401228 
L 248.997965 103.368087 
L 249.997965 103.316849 
L 250.997965 103.248451 
L 251.997965 103.182235 
L 252.997965 103.105318 
L 254.642509 103.078003 
" clip-path="url(#p2159786285)" style="fill: none; stroke: #1f77b4; stroke-opacity: 0.5; stroke-width: 0.2; stroke-linecap: square"/>
   <path d="M 197.997965 87.162217 
L 198.997965 87.193654 
L 199.997965 87.230594 
L 200.997965 87.32834 
L 201.997965 87.360862 
L 202.997965 87.434487 
L 203.997965 87.473052 
L 204.997965 87.508466 
L 205.997965 87.566105 
L 206.997965 87.636492 
L 207.997965 87.688456 
L 208.997965 87.747546 
L 209.997965 87.835867 
L 210.997965 87.882011 
L 211.997965 87.924422 
L 212.997965 87.954914 
L 213.997965 87.980959 
L 214.997965 88.00216 
L 215.997965 88.056461 
L 216.997965 88.084398 
L 217.997965 88.114122 
L 218.997965 88.139517 
L 219.997965 88.150717 
L 220.997965 88.160841 
L 221.997965 88.160637 
L 222.997965 88.151127 
L 223.997965 88.139474 
L 224.997965 88.108444 
L 225.997965 88.097276 
L 226.997965 88.067159 
L 227.997965 88.007382 
L 228.997965 87.97019 
L 229.997965 87.931094 
L 230.997965 87.888655 
L 231.997965 87.85589 
L 232.997965 87.788463 
L 233.997965 87.749337 
L 234.997965 87.706663 
L 235.997965 87.636082 
L 236.997965 87.599691 
L 237.997965 87.541288 
L 238.997965 87.430335 
L 239.997965 87.359677 
L 240.997965 87.246737 
L 241.997965 87.200964 
L 242.997965 87.139681 
L 243.997965 87.091182 
L 244.997965 87.010359 
L 245.997965 86.89184 
L 246.997965 86.82163 
L 247.997965 86.738367 
L 248.997965 86.705225 
L 249.997965 86.653988 
L 250.997965 86.58559 
L 251.997965 86.519374 
L 252.997965 86.442457 
L 254.642509 86.415142 
" clip-path="url(#p2159786285)" style="fill: none; stroke: #1f77b4; stroke-opacity: 0.5; stroke-width: 0.2; stroke-linecap: square"/>
   <path d="M 197.997965 146.829322 
L 198.997965 146.860758 
L 199.997965 146.897699 
L 200.997965 146.995445 
L 201.997965 147.027967 
L 202.997965 147.101591 
L 203.997965 147.140157 
L 204.997965 147.17557 
L 205.997965 147.23321 
L 206.997965 147.303596 
L 207.997965 147.35556 
L 208.997965 147.41465 
L 209.997965 147.502971 
L 210.997965 147.549115 
L 211.997965 147.591526 
L 212.997965 147.622019 
L 213.997965 147.648064 
L 214.997965 147.669264 
L 215.997965 147.723565 
L 216.997965 147.751503 
L 217.997965 147.781227 
L 218.997965 147.806622 
L 219.997965 147.817822 
L 220.997965 147.827946 
L 221.997965 147.827742 
L 222.997965 147.818232 
L 223.997965 147.806578 
L 224.997965 147.775549 
L 225.997965 147.764381 
L 226.997965 147.734263 
L 227.997965 147.674487 
L 228.997965 147.637295 
L 229.997965 147.598199 
L 230.997965 147.555759 
L 231.997965 147.522994 
L 232.997965 147.455568 
L 233.997965 147.416442 
L 234.997965 147.373767 
L 235.997965 147.303187 
L 236.997965 147.266796 
L 237.997965 147.208393 
L 238.997965 147.09744 
L 239.997965 147.026782 
L 240.997965 146.913842 
L 241.997965 146.868069 
L 242.997965 146.806786 
L 243.997965 146.758286 
L 244.997965 146.677464 
L 245.997965 146.558945 
L 246.997965 146.488734 
L 247.997965 146.405472 
L 248.997965 146.37233 
L 249.997965 146.321093 
L 250.997965 146.252694 
L 251.997965 146.186479 
L 252.997965 146.109562 
L 254.642509 146.082246 
" clip-path="url(#p2159786285)" style="fill: none; stroke: #1f77b4; stroke-opacity: 0.5; stroke-width: 0.2; stroke-linecap: square"/>
   <path d="M 197.997965 124.647385 
L 198.997965 124.678821 
L 199.997965 124.715762 
L 200.997965 124.813508 
L 201.997965 124.84603 
L 202.997965 124.919655 
L 203.997965 124.95822 
L 204.997965 124.993633 
L 205.997965 125.051273 
L 206.997965 125.121659 
L 207.997965 125.173624 
L 208.997965 125.232713 
L 209.997965 125.321034 
L 210.997965 125.367179 
L 211.997965 125.40959 
L 212.997965 125.440082 
L 213.997965 125.466127 
L 214.997965 125.487327 
L 215.997965 125.541628 
L 216.997965 125.569566 
L 217.997965 125.59929 
L 218.997965 125.624685 
L 219.997965 125.635885 
L 220.997965 125.646009 
L 221.997965 125.645805 
L 222.997965 125.636295 
L 223.997965 125.624641 
L 224.997965 125.593612 
L 225.997965 125.582444 
L 226.997965 125.552327 
L 227.997965 125.49255 
L 228.997965 125.455358 
L 229.997965 125.416262 
L 230.997965 125.373822 
L 231.997965 125.341057 
L 232.997965 125.273631 
L 233.997965 125.234505 
L 234.997965 125.19183 
L 235.997965 125.12125 
L 236.997965 125.084859 
L 237.997965 125.026456 
L 238.997965 124.915503 
L 239.997965 124.844845 
L 240.997965 124.731905 
L 241.997965 124.686132 
L 242.997965 124.624849 
L 243.997965 124.57635 
L 244.997965 124.495527 
L 245.997965 124.377008 
L 246.997965 124.306797 
L 247.997965 124.223535 
L 248.997965 124.190393 
L 249.997965 124.139156 
L 250.997965 124.070757 
L 251.997965 124.004542 
L 252.997965 123.927625 
L 254.642509 123.900309 
" clip-path="url(#p2159786285)" style="fill: none; stroke: #1f77b4; stroke-opacity: 0.5; stroke-width: 0.2; stroke-linecap: square"/>
   <path d="M 197.997965 190.859558 
L 198.997965 190.890994 
L 199.997965 190.927935 
L 200.997965 191.025681 
L 201.997965 191.058203 
L 202.997965 191.131828 
L 203.997965 191.170393 
L 204.997965 191.205806 
L 205.997965 191.263446 
L 206.997965 191.333833 
L 207.997965 191.385797 
L 208.997965 191.444887 
L 209.997965 191.533207 
L 210.997965 191.579352 
L 211.997965 191.621763 
L 212.997965 191.652255 
L 213.997965 191.6783 
L 214.997965 191.6995 
L 215.997965 191.753802 
L 216.997965 191.781739 
L 217.997965 191.811463 
L 218.997965 191.836858 
L 219.997965 191.848058 
L 220.997965 191.858182 
L 221.997965 191.857978 
L 222.997965 191.848468 
L 223.997965 191.836814 
L 224.997965 191.805785 
L 225.997965 191.794617 
L 226.997965 191.7645 
L 227.997965 191.704723 
L 228.997965 191.667531 
L 229.997965 191.628435 
L 230.997965 191.585996 
L 231.997965 191.55323 
L 232.997965 191.485804 
L 233.997965 191.446678 
L 234.997965 191.404004 
L 235.997965 191.333423 
L 236.997965 191.297032 
L 237.997965 191.238629 
L 238.997965 191.127676 
L 239.997965 191.057018 
L 240.997965 190.944078 
L 241.997965 190.898305 
L 242.997965 190.837022 
L 243.997965 190.788523 
L 244.997965 190.7077 
L 245.997965 190.589181 
L 246.997965 190.51897 
L 247.997965 190.435708 
L 248.997965 190.402566 
L 249.997965 190.351329 
L 250.997965 190.282931 
L 251.997965 190.216715 
L 252.997965 190.139798 
L 254.642509 190.112483 
" clip-path="url(#p2159786285)" style="fill: none; stroke: #1f77b4; stroke-opacity: 0.5; stroke-width: 0.2; stroke-linecap: square"/>
   <path d="M 389.138741 86.171981 
L 390.138741 86.203417 
L 391.138741 86.240358 
L 392.138741 86.338104 
L 393.138741 86.370626 
L 394.138741 86.44425 
L 395.138741 86.482816 
L 396.138741 86.518229 
L 397.138741 86.575869 
L 398.138741 86.646255 
L 399.138741 86.698219 
L 400.138741 86.757309 
L 401.138741 86.84563 
L 402.138741 86.891774 
L 403.138741 86.934185 
L 404.138741 86.964678 
L 405.138741 86.990723 
L 406.138741 87.011923 
L 407.138741 87.066224 
L 408.138741 87.094162 
L 409.138741 87.123886 
L 410.138741 87.149281 
L 411.138741 87.160481 
L 412.138741 87.170605 
L 413.138741 87.170401 
L 414.138741 87.160891 
L 415.138741 87.149237 
L 416.138741 87.118208 
L 417.138741 87.10704 
L 418.138741 87.076922 
L 419.138741 87.017146 
L 420.138741 86.979954 
L 421.138741 86.940858 
L 422.138741 86.898418 
L 423.138741 86.865653 
L 424.138741 86.798227 
L 425.138741 86.759101 
L 426.138741 86.716426 
L 427.138741 86.645846 
L 428.138741 86.609455 
L 429.138741 86.551052 
L 430.138741 86.440099 
L 431.138741 86.369441 
L 432.138741 86.256501 
L 433.138741 86.210728 
L 434.138741 86.149445 
L 435.138741 86.100945 
L 436.138741 86.020123 
L 437.138741 85.901604 
L 438.138741 85.831393 
L 439.138741 85.748131 
L 440.138741 85.714989 
L 441.138741 85.663752 
L 442.138741 85.595353 
L 443.138741 85.529138 
L 444.138741 85.452221 
L 445.783285 85.424905 
" clip-path="url(#p2159786285)" style="fill: none; stroke: #ff7f0e; stroke-opacity: 0.5; stroke-width: 0.2; stroke-linecap: square"/>
   <path d="M 389.138741 89.391484 
L 390.138741 89.422921 
L 391.138741 89.459861 
L 392.138741 89.557608 
L 393.138741 89.590129 
L 394.138741 89.663754 
L 395.138741 89.70232 
L 396.138741 89.737733 
L 397.138741 89.795373 
L 398.138741 89.865759 
L 399.138741 89.917723 
L 400.138741 89.976813 
L 401.138741 90.065134 
L 402.138741 90.111278 
L 403.138741 90.153689 
L 404.138741 90.184182 
L 405.138741 90.210227 
L 406.138741 90.231427 
L 407.138741 90.285728 
L 408.138741 90.313665 
L 409.138741 90.343389 
L 410.138741 90.368784 
L 411.138741 90.379985 
L 412.138741 90.390109 
L 413.138741 90.389904 
L 414.138741 90.380394 
L 415.138741 90.368741 
L 416.138741 90.337711 
L 417.138741 90.326544 
L 418.138741 90.296426 
L 419.138741 90.236649 
L 420.138741 90.199458 
L 421.138741 90.160361 
L 422.138741 90.117922 
L 423.138741 90.085157 
L 424.138741 90.01773 
L 425.138741 89.978604 
L 426.138741 89.93593 
L 427.138741 89.865349 
L 428.138741 89.828958 
L 429.138741 89.770555 
L 430.138741 89.659603 
L 431.138741 89.588944 
L 432.138741 89.476004 
L 433.138741 89.430232 
L 434.138741 89.368948 
L 435.138741 89.320449 
L 436.138741 89.239626 
L 437.138741 89.121107 
L 438.138741 89.050897 
L 439.138741 88.967634 
L 440.138741 88.934492 
L 441.138741 88.883255 
L 442.138741 88.814857 
L 443.138741 88.748641 
L 444.138741 88.671724 
L 445.783285 88.644409 
" clip-path="url(#p2159786285)" style="fill: none; stroke: #ff7f0e; stroke-opacity: 0.5; stroke-width: 0.2; stroke-linecap: square"/>
   <path d="M 389.138741 91.806999 
L 390.138741 91.838435 
L 391.138741 91.875376 
L 392.138741 91.973122 
L 393.138741 92.005644 
L 394.138741 92.079268 
L 395.138741 92.117834 
L 396.138741 92.153247 
L 397.138741 92.210887 
L 398.138741 92.281273 
L 399.138741 92.333237 
L 400.138741 92.392327 
L 401.138741 92.480648 
L 402.138741 92.526793 
L 403.138741 92.569203 
L 404.138741 92.599696 
L 405.138741 92.625741 
L 406.138741 92.646941 
L 407.138741 92.701242 
L 408.138741 92.72918 
L 409.138741 92.758904 
L 410.138741 92.784299 
L 411.138741 92.795499 
L 412.138741 92.805623 
L 413.138741 92.805419 
L 414.138741 92.795909 
L 415.138741 92.784255 
L 416.138741 92.753226 
L 417.138741 92.742058 
L 418.138741 92.71194 
L 419.138741 92.652164 
L 420.138741 92.614972 
L 421.138741 92.575876 
L 422.138741 92.533436 
L 423.138741 92.500671 
L 424.138741 92.433245 
L 425.138741 92.394119 
L 426.138741 92.351444 
L 427.138741 92.280864 
L 428.138741 92.244473 
L 429.138741 92.18607 
L 430.138741 92.075117 
L 431.138741 92.004459 
L 432.138741 91.891519 
L 433.138741 91.845746 
L 434.138741 91.784463 
L 435.138741 91.735963 
L 436.138741 91.655141 
L 437.138741 91.536622 
L 438.138741 91.466411 
L 439.138741 91.383149 
L 440.138741 91.350007 
L 441.138741 91.29877 
L 442.138741 91.230371 
L 443.138741 91.164156 
L 444.138741 91.087239 
L 445.783285 91.059923 
" clip-path="url(#p2159786285)" style="fill: none; stroke: #ff7f0e; stroke-opacity: 0.5; stroke-width: 0.2; stroke-linecap: square"/>
   <path d="M 389.138741 132.818263 
L 390.138741 132.849699 
L 391.138741 132.886639 
L 392.138741 132.984386 
L 393.138741 133.016908 
L 394.138741 133.090532 
L 395.138741 133.129098 
L 396.138741 133.164511 
L 397.138741 133.222151 
L 398.138741 133.292537 
L 399.138741 133.344501 
L 400.138741 133.403591 
L 401.138741 133.491912 
L 402.138741 133.538056 
L 403.138741 133.580467 
L 404.138741 133.61096 
L 405.138741 133.637005 
L 406.138741 133.658205 
L 407.138741 133.712506 
L 408.138741 133.740444 
L 409.138741 133.770168 
L 410.138741 133.795562 
L 411.138741 133.806763 
L 412.138741 133.816887 
L 413.138741 133.816682 
L 414.138741 133.807173 
L 415.138741 133.795519 
L 416.138741 133.76449 
L 417.138741 133.753322 
L 418.138741 133.723204 
L 419.138741 133.663427 
L 420.138741 133.626236 
L 421.138741 133.58714 
L 422.138741 133.5447 
L 423.138741 133.511935 
L 424.138741 133.444509 
L 425.138741 133.405383 
L 426.138741 133.362708 
L 427.138741 133.292127 
L 428.138741 133.255737 
L 429.138741 133.197333 
L 430.138741 133.086381 
L 431.138741 133.015723 
L 432.138741 132.902783 
L 433.138741 132.85701 
L 434.138741 132.795727 
L 435.138741 132.747227 
L 436.138741 132.666405 
L 437.138741 132.547886 
L 438.138741 132.477675 
L 439.138741 132.394413 
L 440.138741 132.361271 
L 441.138741 132.310033 
L 442.138741 132.241635 
L 443.138741 132.17542 
L 444.138741 132.098503 
L 445.783285 132.071187 
" clip-path="url(#p2159786285)" style="fill: none; stroke: #ff7f0e; stroke-opacity: 0.5; stroke-width: 0.2; stroke-linecap: square"/>
   <path d="M 389.138741 132.850691 
L 390.138741 132.882127 
L 391.138741 132.919068 
L 392.138741 133.016814 
L 393.138741 133.049336 
L 394.138741 133.122961 
L 395.138741 133.161526 
L 396.138741 133.196939 
L 397.138741 133.254579 
L 398.138741 133.324965 
L 399.138741 133.37693 
L 400.138741 133.436019 
L 401.138741 133.52434 
L 402.138741 133.570485 
L 403.138741 133.612896 
L 404.138741 133.643388 
L 405.138741 133.669433 
L 406.138741 133.690633 
L 407.138741 133.744934 
L 408.138741 133.772872 
L 409.138741 133.802596 
L 410.138741 133.827991 
L 411.138741 133.839191 
L 412.138741 133.849315 
L 413.138741 133.849111 
L 414.138741 133.839601 
L 415.138741 133.827947 
L 416.138741 133.796918 
L 417.138741 133.78575 
L 418.138741 133.755633 
L 419.138741 133.695856 
L 420.138741 133.658664 
L 421.138741 133.619568 
L 422.138741 133.577128 
L 423.138741 133.544363 
L 424.138741 133.476937 
L 425.138741 133.437811 
L 426.138741 133.395136 
L 427.138741 133.324556 
L 428.138741 133.288165 
L 429.138741 133.229762 
L 430.138741 133.118809 
L 431.138741 133.048151 
L 432.138741 132.935211 
L 433.138741 132.889438 
L 434.138741 132.828155 
L 435.138741 132.779656 
L 436.138741 132.698833 
L 437.138741 132.580314 
L 438.138741 132.510103 
L 439.138741 132.426841 
L 440.138741 132.393699 
L 441.138741 132.342462 
L 442.138741 132.274063 
L 443.138741 132.207848 
L 444.138741 132.130931 
L 445.783285 132.103615 
" clip-path="url(#p2159786285)" style="fill: none; stroke: #ff7f0e; stroke-opacity: 0.5; stroke-width: 0.2; stroke-linecap: square"/>
   <path d="M 389.138741 172.675266 
L 390.138741 172.706703 
L 391.138741 172.743643 
L 392.138741 172.84139 
L 393.138741 172.873911 
L 394.138741 172.947536 
L 395.138741 172.986102 
L 396.138741 173.021515 
L 397.138741 173.079155 
L 398.138741 173.149541 
L 399.138741 173.201505 
L 400.138741 173.260595 
L 401.138741 173.348916 
L 402.138741 173.39506 
L 403.138741 173.437471 
L 404.138741 173.467964 
L 405.138741 173.494009 
L 406.138741 173.515209 
L 407.138741 173.56951 
L 408.138741 173.597447 
L 409.138741 173.627171 
L 410.138741 173.652566 
L 411.138741 173.663767 
L 412.138741 173.673891 
L 413.138741 173.673686 
L 414.138741 173.664176 
L 415.138741 173.652523 
L 416.138741 173.621493 
L 417.138741 173.610326 
L 418.138741 173.580208 
L 419.138741 173.520431 
L 420.138741 173.48324 
L 421.138741 173.444143 
L 422.138741 173.401704 
L 423.138741 173.368939 
L 424.138741 173.301512 
L 425.138741 173.262386 
L 426.138741 173.219712 
L 427.138741 173.149131 
L 428.138741 173.11274 
L 429.138741 173.054337 
L 430.138741 172.943385 
L 431.138741 172.872726 
L 432.138741 172.759786 
L 433.138741 172.714014 
L 434.138741 172.65273 
L 435.138741 172.604231 
L 436.138741 172.523408 
L 437.138741 172.404889 
L 438.138741 172.334679 
L 439.138741 172.251416 
L 440.138741 172.218275 
L 441.138741 172.167037 
L 442.138741 172.098639 
L 443.138741 172.032423 
L 444.138741 171.955506 
L 445.783285 171.928191 
" clip-path="url(#p2159786285)" style="fill: none; stroke: #ff7f0e; stroke-opacity: 0.5; stroke-width: 0.2; stroke-linecap: square"/>
   <path d="M 389.138741 166.654429 
L 390.138741 166.685866 
L 391.138741 166.722806 
L 392.138741 166.820553 
L 393.138741 166.853074 
L 394.138741 166.926699 
L 395.138741 166.965265 
L 396.138741 167.000678 
L 397.138741 167.058318 
L 398.138741 167.128704 
L 399.138741 167.180668 
L 400.138741 167.239758 
L 401.138741 167.328079 
L 402.138741 167.374223 
L 403.138741 167.416634 
L 404.138741 167.447127 
L 405.138741 167.473172 
L 406.138741 167.494372 
L 407.138741 167.548673 
L 408.138741 167.57661 
L 409.138741 167.606334 
L 410.138741 167.631729 
L 411.138741 167.64293 
L 412.138741 167.653054 
L 413.138741 167.652849 
L 414.138741 167.643339 
L 415.138741 167.631686 
L 416.138741 167.600657 
L 417.138741 167.589489 
L 418.138741 167.559371 
L 419.138741 167.499594 
L 420.138741 167.462403 
L 421.138741 167.423307 
L 422.138741 167.380867 
L 423.138741 167.348102 
L 424.138741 167.280675 
L 425.138741 167.241549 
L 426.138741 167.198875 
L 427.138741 167.128294 
L 428.138741 167.091903 
L 429.138741 167.0335 
L 430.138741 166.922548 
L 431.138741 166.851889 
L 432.138741 166.73895 
L 433.138741 166.693177 
L 434.138741 166.631893 
L 435.138741 166.583394 
L 436.138741 166.502571 
L 437.138741 166.384052 
L 438.138741 166.313842 
L 439.138741 166.230579 
L 440.138741 166.197438 
L 441.138741 166.1462 
L 442.138741 166.077802 
L 443.138741 166.011586 
L 444.138741 165.934669 
L 445.783285 165.907354 
" clip-path="url(#p2159786285)" style="fill: none; stroke: #ff7f0e; stroke-opacity: 0.5; stroke-width: 0.2; stroke-linecap: square"/>
   <path d="M 389.138741 120.541807 
L 390.138741 120.573243 
L 391.138741 120.610184 
L 392.138741 120.70793 
L 393.138741 120.740452 
L 394.138741 120.814076 
L 395.138741 120.852642 
L 396.138741 120.888055 
L 397.138741 120.945695 
L 398.138741 121.016081 
L 399.138741 121.068045 
L 400.138741 121.127135 
L 401.138741 121.215456 
L 402.138741 121.2616 
L 403.138741 121.304011 
L 404.138741 121.334504 
L 405.138741 121.360549 
L 406.138741 121.381749 
L 407.138741 121.43605 
L 408.138741 121.463988 
L 409.138741 121.493712 
L 410.138741 121.519107 
L 411.138741 121.530307 
L 412.138741 121.540431 
L 413.138741 121.540227 
L 414.138741 121.530717 
L 415.138741 121.519063 
L 416.138741 121.488034 
L 417.138741 121.476866 
L 418.138741 121.446748 
L 419.138741 121.386971 
L 420.138741 121.34978 
L 421.138741 121.310684 
L 422.138741 121.268244 
L 423.138741 121.235479 
L 424.138741 121.168053 
L 425.138741 121.128927 
L 426.138741 121.086252 
L 427.138741 121.015672 
L 428.138741 120.979281 
L 429.138741 120.920878 
L 430.138741 120.809925 
L 431.138741 120.739267 
L 432.138741 120.626327 
L 433.138741 120.580554 
L 434.138741 120.519271 
L 435.138741 120.470771 
L 436.138741 120.389949 
L 437.138741 120.27143 
L 438.138741 120.201219 
L 439.138741 120.117957 
L 440.138741 120.084815 
L 441.138741 120.033578 
L 442.138741 119.965179 
L 443.138741 119.898964 
L 444.138741 119.822047 
L 445.783285 119.794731 
" clip-path="url(#p2159786285)" style="fill: none; stroke: #ff7f0e; stroke-opacity: 0.5; stroke-width: 0.2; stroke-linecap: square"/>
   <path d="M 389.138741 98.844286 
L 390.138741 98.875722 
L 391.138741 98.912662 
L 392.138741 99.010409 
L 393.138741 99.042931 
L 394.138741 99.116555 
L 395.138741 99.155121 
L 396.138741 99.190534 
L 397.138741 99.248174 
L 398.138741 99.31856 
L 399.138741 99.370524 
L 400.138741 99.429614 
L 401.138741 99.517935 
L 402.138741 99.564079 
L 403.138741 99.60649 
L 404.138741 99.636983 
L 405.138741 99.663028 
L 406.138741 99.684228 
L 407.138741 99.738529 
L 408.138741 99.766467 
L 409.138741 99.796191 
L 410.138741 99.821585 
L 411.138741 99.832786 
L 412.138741 99.84291 
L 413.138741 99.842705 
L 414.138741 99.833196 
L 415.138741 99.821542 
L 416.138741 99.790513 
L 417.138741 99.779345 
L 418.138741 99.749227 
L 419.138741 99.68945 
L 420.138741 99.652259 
L 421.138741 99.613163 
L 422.138741 99.570723 
L 423.138741 99.537958 
L 424.138741 99.470532 
L 425.138741 99.431406 
L 426.138741 99.388731 
L 427.138741 99.318151 
L 428.138741 99.28176 
L 429.138741 99.223356 
L 430.138741 99.112404 
L 431.138741 99.041746 
L 432.138741 98.928806 
L 433.138741 98.883033 
L 434.138741 98.82175 
L 435.138741 98.77325 
L 436.138741 98.692428 
L 437.138741 98.573909 
L 438.138741 98.503698 
L 439.138741 98.420436 
L 440.138741 98.387294 
L 441.138741 98.336057 
L 442.138741 98.267658 
L 443.138741 98.201443 
L 444.138741 98.124526 
L 445.783285 98.09721 
" clip-path="url(#p2159786285)" style="fill: none; stroke: #ff7f0e; stroke-opacity: 0.5; stroke-width: 0.2; stroke-linecap: square"/>
   <path d="M 389.138741 107.258702 
L 390.138741 107.290139 
L 391.138741 107.327079 
L 392.138741 107.424826 
L 393.138741 107.457347 
L 394.138741 107.530972 
L 395.138741 107.569538 
L 396.138741 107.604951 
L 397.138741 107.662591 
L 398.138741 107.732977 
L 399.138741 107.784941 
L 400.138741 107.844031 
L 401.138741 107.932352 
L 402.138741 107.978496 
L 403.138741 108.020907 
L 404.138741 108.0514 
L 405.138741 108.077445 
L 406.138741 108.098645 
L 407.138741 108.152946 
L 408.138741 108.180883 
L 409.138741 108.210607 
L 410.138741 108.236002 
L 411.138741 108.247203 
L 412.138741 108.257327 
L 413.138741 108.257122 
L 414.138741 108.247612 
L 415.138741 108.235959 
L 416.138741 108.204929 
L 417.138741 108.193762 
L 418.138741 108.163644 
L 419.138741 108.103867 
L 420.138741 108.066676 
L 421.138741 108.027579 
L 422.138741 107.98514 
L 423.138741 107.952375 
L 424.138741 107.884948 
L 425.138741 107.845822 
L 426.138741 107.803148 
L 427.138741 107.732567 
L 428.138741 107.696176 
L 429.138741 107.637773 
L 430.138741 107.526821 
L 431.138741 107.456162 
L 432.138741 107.343222 
L 433.138741 107.29745 
L 434.138741 107.236166 
L 435.138741 107.187667 
L 436.138741 107.106844 
L 437.138741 106.988325 
L 438.138741 106.918115 
L 439.138741 106.834852 
L 440.138741 106.801711 
L 441.138741 106.750473 
L 442.138741 106.682075 
L 443.138741 106.615859 
L 444.138741 106.538942 
L 445.783285 106.511627 
" clip-path="url(#p2159786285)" style="fill: none; stroke: #ff7f0e; stroke-opacity: 0.5; stroke-width: 0.2; stroke-linecap: square"/>
   <g id="patch_3">
    <path d="M 69.06392 22.318125 
L 69.06392 318.021875 
M 192.435777 22.318125 
L 192.435777 318.021875 
" clip-path="url(#p2159786285)" style="fill: none; stroke: #ffffff; stroke-width: 3; stroke-linejoin: miter"/>
    <path d="M 69.06392 22.318125 
L 69.06392 318.021875 
M 192.435777 22.318125 
L 192.435777 318.021875 
" clip-path="url(#p2159786285)" style="fill: none; stroke: #1f77b4; stroke-linejoin: miter"/>
    <g id="PolyCollection_1">
     <path d="M 192.435777 22.318125 
L 69.06392 22.318125 
L 69.06392 318.021875 
L 192.435777 318.021875 
L 192.435777 318.021875 
L 192.435777 22.318125 
z
" clip-path="url(#p2159786285)" style="fill: #1f77b4; fill-opacity: 0.5"/>
    </g>
    <g id="patch_4">
     <path d="M 260.204697 22.318125 
L 260.204697 318.021875 
M 383.576553 22.318125 
L 383.576553 318.021875 
" clip-path="url(#p2159786285)" style="fill: none; stroke: #ffffff; stroke-width: 3; stroke-linejoin: miter"/>
     <path d="M 260.204697 22.318125 
L 260.204697 318.021875 
M 383.576553 22.318125 
L 383.576553 318.021875 
" clip-path="url(#p2159786285)" style="fill: none; stroke: #ff7f0e; stroke-linejoin: miter"/>
     <g id="PolyCollection_2">
      <path d="M 383.576553 22.318125 
L 260.204697 22.318125 
L 260.204697 318.021875 
L 383.576553 318.021875 
L 383.576553 318.021875 
L 383.576553 22.318125 
z
" clip-path="url(#p2159786285)" style="fill: #ff7f0e; fill-opacity: 0.5"/>
     </g>
     <g id="patch_5">
      <path d="M 451.345473 22.318125 
L 451.345473 318.021875 
M 574.71733 22.318125 
L 574.71733 318.021875 
" clip-path="url(#p2159786285)" style="fill: none; stroke: #ffffff; stroke-width: 3; stroke-linejoin: miter"/>
      <path d="M 451.345473 22.318125 
L 451.345473 318.021875 
M 574.71733 22.318125 
L 574.71733 318.021875 
" clip-path="url(#p2159786285)" style="fill: none; stroke: #2ca02c; stroke-linejoin: miter"/>
      <g id="PolyCollection_3">
       <path d="M 574.71733 22.318125 
L 451.345473 22.318125 
L 451.345473 318.021875 
L 574.71733 318.021875 
L 574.71733 318.021875 
L 574.71733 22.318125 
z
" clip-path="url(#p2159786285)" style="fill: #2ca02c; fill-opacity: 0.5"/>
      </g>
      <g id="matplotlib.axis_1">
       <g id="xtick_1">
        <g id="line2d_1"/>
        <g id="text_1">
         <!-- deme0 -->
         <g transform="translate(113.370943 329.120312) scale(0.1 -0.1)">
          <defs>
           <path id="DejaVuSans-64" d="M 2906 2969 
L 2906 4863 
L 3481 4863 
L 3481 0 
L 2906 0 
L 2906 525 
Q 2725 213 2448 61 
Q 2172 -91 1784 -91 
Q 1150 -91 751 415 
Q 353 922 353 1747 
Q 353 2572 751 3078 
Q 1150 3584 1784 3584 
Q 2172 3584 2448 3432 
Q 2725 3281 2906 2969 
z
M 947 1747 
Q 947 1113 1208 752 
Q 1469 391 1925 391 
Q 2381 391 2643 752 
Q 2906 1113 2906 1747 
Q 2906 2381 2643 2742 
Q 2381 3103 1925 3103 
Q 1469 3103 1208 2742 
Q 947 2381 947 1747 
z
" transform="scale(0.015625)"/>
           <path id="DejaVuSans-65" d="M 3597 1894 
L 3597 1613 
L 953 1613 
Q 991 1019 1311 708 
Q 1631 397 2203 397 
Q 2534 397 2845 478 
Q 3156 559 3463 722 
L 3463 178 
Q 3153 47 2828 -22 
Q 2503 -91 2169 -91 
Q 1331 -91 842 396 
Q 353 884 353 1716 
Q 353 2575 817 3079 
Q 1281 3584 2069 3584 
Q 2775 3584 3186 3129 
Q 3597 2675 3597 1894 
z
M 3022 2063 
Q 3016 2534 2758 2815 
Q 2500 3097 2075 3097 
Q 1594 3097 1305 2825 
Q 1016 2553 972 2059 
L 3022 2063 
z
" transform="scale(0.015625)"/>
           <path id="DejaVuSans-6d" d="M 3328 2828 
Q 3544 3216 3844 3400 
Q 4144 3584 4550 3584 
Q 5097 3584 5394 3201 
Q 5691 2819 5691 2113 
L 5691 0 
L 5113 0 
L 5113 2094 
Q 5113 2597 4934 2840 
Q 4756 3084 4391 3084 
Q 3944 3084 3684 2787 
Q 3425 2491 3425 1978 
L 3425 0 
L 2847 0 
L 2847 2094 
Q 2847 2600 2669 2842 
Q 2491 3084 2119 3084 
Q 1678 3084 1418 2786 
Q 1159 2488 1159 1978 
L 1159 0 
L 581 0 
L 581 3500 
L 1159 3500 
L 1159 2956 
Q 1356 3278 1631 3431 
Q 1906 3584 2284 3584 
Q 2666 3584 2933 3390 
Q 3200 3197 3328 2828 
z
" transform="scale(0.015625)"/>
           <path id="DejaVuSans-30" d="M 2034 4250 
Q 1547 4250 1301 3770 
Q 1056 3291 1056 2328 
Q 1056 1369 1301 889 
Q 1547 409 2034 409 
Q 2525 409 2770 889 
Q 3016 1369 3016 2328 
Q 3016 3291 2770 3770 
Q 2525 4250 2034 4250 
z
M 2034 4750 
Q 2819 4750 3233 4129 
Q 3647 3509 3647 2328 
Q 3647 1150 3233 529 
Q 2819 -91 2034 -91 
Q 1250 -91 836 529 
Q 422 1150 422 2328 
Q 422 3509 836 4129 
Q 1250 4750 2034 4750 
z
" transform="scale(0.015625)"/>
          </defs>
          <use xlink:href="#DejaVuSans-64"/>
          <use xlink:href="#DejaVuSans-65" x="63.476562"/>
          <use xlink:href="#DejaVuSans-6d" x="125"/>
          <use xlink:href="#DejaVuSans-65" x="222.412109"/>
          <use xlink:href="#DejaVuSans-30" x="283.935547"/>
         </g>
        </g>
       </g>
       <g id="xtick_2">
        <g id="line2d_2"/>
        <g id="text_2">
         <!-- deme1 -->
         <g transform="translate(304.511719 329.120312) scale(0.1 -0.1)">
          <defs>
           <path id="DejaVuSans-31" d="M 794 531 
L 1825 531 
L 1825 4091 
L 703 3866 
L 703 4441 
L 1819 4666 
L 2450 4666 
L 2450 531 
L 3481 531 
L 3481 0 
L 794 0 
L 794 531 
z
" transform="scale(0.015625)"/>
          </defs>
          <use xlink:href="#DejaVuSans-64"/>
          <use xlink:href="#DejaVuSans-65" x="63.476562"/>
          <use xlink:href="#DejaVuSans-6d" x="125"/>
          <use xlink:href="#DejaVuSans-65" x="222.412109"/>
          <use xlink:href="#DejaVuSans-31" x="283.935547"/>
         </g>
        </g>
       </g>
       <g id="xtick_3">
        <g id="line2d_3"/>
        <g id="text_3">
         <!-- deme2 -->
         <g transform="translate(495.652495 329.120312) scale(0.1 -0.1)">
          <defs>
           <path id="DejaVuSans-32" d="M 1228 531 
L 3431 531 
L 3431 0 
L 469 0 
L 469 531 
Q 828 903 1448 1529 
Q 2069 2156 2228 2338 
Q 2531 2678 2651 2914 
Q 2772 3150 2772 3378 
Q 2772 3750 2511 3984 
Q 2250 4219 1831 4219 
Q 1534 4219 1204 4116 
Q 875 4013 500 3803 
L 500 4441 
Q 881 4594 1212 4672 
Q 1544 4750 1819 4750 
Q 2544 4750 2975 4387 
Q 3406 4025 3406 3419 
Q 3406 3131 3298 2873 
Q 3191 2616 2906 2266 
Q 2828 2175 2409 1742 
Q 1991 1309 1228 531 
z
" transform="scale(0.015625)"/>
          </defs>
          <use xlink:href="#DejaVuSans-64"/>
          <use xlink:href="#DejaVuSans-65" x="63.476562"/>
          <use xlink:href="#DejaVuSans-6d" x="125"/>
          <use xlink:href="#DejaVuSans-65" x="222.412109"/>
          <use xlink:href="#DejaVuSans-32" x="283.935547"/>
         </g>
        </g>
       </g>
      </g>
      <g id="matplotlib.axis_2">
       <g id="ytick_1">
        <g id="line2d_4">
         <defs>
          <path id="m6f73dc0a50" d="M 0 0 
L -3.5 0 
" style="stroke: #000000; stroke-width: 0.8"/>
         </defs>
         <g>
          <use xlink:href="#m6f73dc0a50" x="43.78125" y="318.021875" style="stroke: #000000; stroke-width: 0.8"/>
         </g>
        </g>
        <g id="text_4">
         <!-- 0.0 -->
         <g transform="translate(20.878125 321.821094) scale(0.1 -0.1)">
          <defs>
           <path id="DejaVuSans-2e" d="M 684 794 
L 1344 794 
L 1344 0 
L 684 0 
L 684 794 
z
" transform="scale(0.015625)"/>
          </defs>
          <use xlink:href="#DejaVuSans-30"/>
          <use xlink:href="#DejaVuSans-2e" x="63.623047"/>
          <use xlink:href="#DejaVuSans-30" x="95.410156"/>
         </g>
        </g>
       </g>
       <g id="ytick_2">
        <g id="line2d_5">
         <g>
          <use xlink:href="#m6f73dc0a50" x="43.78125" y="258.881125" style="stroke: #000000; stroke-width: 0.8"/>
         </g>
        </g>
        <g id="text_5">
         <!-- 0.5 -->
         <g transform="translate(20.878125 262.680344) scale(0.1 -0.1)">
          <defs>
           <path id="DejaVuSans-35" d="M 691 4666 
L 3169 4666 
L 3169 4134 
L 1269 4134 
L 1269 2991 
Q 1406 3038 1543 3061 
Q 1681 3084 1819 3084 
Q 2600 3084 3056 2656 
Q 3513 2228 3513 1497 
Q 3513 744 3044 326 
Q 2575 -91 1722 -91 
Q 1428 -91 1123 -41 
Q 819 9 494 109 
L 494 744 
Q 775 591 1075 516 
Q 1375 441 1709 441 
Q 2250 441 2565 725 
Q 2881 1009 2881 1497 
Q 2881 1984 2565 2268 
Q 2250 2553 1709 2553 
Q 1456 2553 1204 2497 
Q 953 2441 691 2322 
L 691 4666 
z
" transform="scale(0.015625)"/>
          </defs>
          <use xlink:href="#DejaVuSans-30"/>
          <use xlink:href="#DejaVuSans-2e" x="63.623047"/>
          <use xlink:href="#DejaVuSans-35" x="95.410156"/>
         </g>
        </g>
       </g>
       <g id="ytick_3">
        <g id="line2d_6">
         <g>
          <use xlink:href="#m6f73dc0a50" x="43.78125" y="199.740375" style="stroke: #000000; stroke-width: 0.8"/>
         </g>
        </g>
        <g id="text_6">
         <!-- 1.0 -->
         <g transform="translate(20.878125 203.539594) scale(0.1 -0.1)">
          <use xlink:href="#DejaVuSans-31"/>
          <use xlink:href="#DejaVuSans-2e" x="63.623047"/>
          <use xlink:href="#DejaVuSans-30" x="95.410156"/>
         </g>
        </g>
       </g>
       <g id="ytick_4">
        <g id="line2d_7">
         <g>
          <use xlink:href="#m6f73dc0a50" x="43.78125" y="140.599625" style="stroke: #000000; stroke-width: 0.8"/>
         </g>
        </g>
        <g id="text_7">
         <!-- 1.5 -->
         <g transform="translate(20.878125 144.398844) scale(0.1 -0.1)">
          <use xlink:href="#DejaVuSans-31"/>
          <use xlink:href="#DejaVuSans-2e" x="63.623047"/>
          <use xlink:href="#DejaVuSans-35" x="95.410156"/>
         </g>
        </g>
       </g>
       <g id="ytick_5">
        <g id="line2d_8">
         <g>
          <use xlink:href="#m6f73dc0a50" x="43.78125" y="81.458875" style="stroke: #000000; stroke-width: 0.8"/>
         </g>
        </g>
        <g id="text_8">
         <!-- 2.0 -->
         <g transform="translate(20.878125 85.258094) scale(0.1 -0.1)">
          <use xlink:href="#DejaVuSans-32"/>
          <use xlink:href="#DejaVuSans-2e" x="63.623047"/>
          <use xlink:href="#DejaVuSans-30" x="95.410156"/>
         </g>
        </g>
       </g>
       <g id="ytick_6">
        <g id="line2d_9">
         <g>
          <use xlink:href="#m6f73dc0a50" x="43.78125" y="22.318125" style="stroke: #000000; stroke-width: 0.8"/>
         </g>
        </g>
        <g id="text_9">
         <!-- 2.5 -->
         <g transform="translate(20.878125 26.117344) scale(0.1 -0.1)">
          <use xlink:href="#DejaVuSans-32"/>
          <use xlink:href="#DejaVuSans-2e" x="63.623047"/>
          <use xlink:href="#DejaVuSans-35" x="95.410156"/>
         </g>
        </g>
       </g>
       <g id="text_10">
        <!-- time ago (generations) -->
        <g transform="translate(14.798438 227.641094) rotate(-90) scale(0.1 -0.1)">
         <defs>
          <path id="DejaVuSans-74" d="M 1172 4494 
L 1172 3500 
L 2356 3500 
L 2356 3053 
L 1172 3053 
L 1172 1153 
Q 1172 725 1289 603 
Q 1406 481 1766 481 
L 2356 481 
L 2356 0 
L 1766 0 
Q 1100 0 847 248 
Q 594 497 594 1153 
L 594 3053 
L 172 3053 
L 172 3500 
L 594 3500 
L 594 4494 
L 1172 4494 
z
" transform="scale(0.015625)"/>
          <path id="DejaVuSans-69" d="M 603 3500 
L 1178 3500 
L 1178 0 
L 603 0 
L 603 3500 
z
M 603 4863 
L 1178 4863 
L 1178 4134 
L 603 4134 
L 603 4863 
z
" transform="scale(0.015625)"/>
          <path id="DejaVuSans-20" transform="scale(0.015625)"/>
          <path id="DejaVuSans-61" d="M 2194 1759 
Q 1497 1759 1228 1600 
Q 959 1441 959 1056 
Q 959 750 1161 570 
Q 1363 391 1709 391 
Q 2188 391 2477 730 
Q 2766 1069 2766 1631 
L 2766 1759 
L 2194 1759 
z
M 3341 1997 
L 3341 0 
L 2766 0 
L 2766 531 
Q 2569 213 2275 61 
Q 1981 -91 1556 -91 
Q 1019 -91 701 211 
Q 384 513 384 1019 
Q 384 1609 779 1909 
Q 1175 2209 1959 2209 
L 2766 2209 
L 2766 2266 
Q 2766 2663 2505 2880 
Q 2244 3097 1772 3097 
Q 1472 3097 1187 3025 
Q 903 2953 641 2809 
L 641 3341 
Q 956 3463 1253 3523 
Q 1550 3584 1831 3584 
Q 2591 3584 2966 3190 
Q 3341 2797 3341 1997 
z
" transform="scale(0.015625)"/>
          <path id="DejaVuSans-67" d="M 2906 1791 
Q 2906 2416 2648 2759 
Q 2391 3103 1925 3103 
Q 1463 3103 1205 2759 
Q 947 2416 947 1791 
Q 947 1169 1205 825 
Q 1463 481 1925 481 
Q 2391 481 2648 825 
Q 2906 1169 2906 1791 
z
M 3481 434 
Q 3481 -459 3084 -895 
Q 2688 -1331 1869 -1331 
Q 1566 -1331 1297 -1286 
Q 1028 -1241 775 -1147 
L 775 -588 
Q 1028 -725 1275 -790 
Q 1522 -856 1778 -856 
Q 2344 -856 2625 -561 
Q 2906 -266 2906 331 
L 2906 616 
Q 2728 306 2450 153 
Q 2172 0 1784 0 
Q 1141 0 747 490 
Q 353 981 353 1791 
Q 353 2603 747 3093 
Q 1141 3584 1784 3584 
Q 2172 3584 2450 3431 
Q 2728 3278 2906 2969 
L 2906 3500 
L 3481 3500 
L 3481 434 
z
" transform="scale(0.015625)"/>
          <path id="DejaVuSans-6f" d="M 1959 3097 
Q 1497 3097 1228 2736 
Q 959 2375 959 1747 
Q 959 1119 1226 758 
Q 1494 397 1959 397 
Q 2419 397 2687 759 
Q 2956 1122 2956 1747 
Q 2956 2369 2687 2733 
Q 2419 3097 1959 3097 
z
M 1959 3584 
Q 2709 3584 3137 3096 
Q 3566 2609 3566 1747 
Q 3566 888 3137 398 
Q 2709 -91 1959 -91 
Q 1206 -91 779 398 
Q 353 888 353 1747 
Q 353 2609 779 3096 
Q 1206 3584 1959 3584 
z
" transform="scale(0.015625)"/>
          <path id="DejaVuSans-28" d="M 1984 4856 
Q 1566 4138 1362 3434 
Q 1159 2731 1159 2009 
Q 1159 1288 1364 580 
Q 1569 -128 1984 -844 
L 1484 -844 
Q 1016 -109 783 600 
Q 550 1309 550 2009 
Q 550 2706 781 3412 
Q 1013 4119 1484 4856 
L 1984 4856 
z
" transform="scale(0.015625)"/>
          <path id="DejaVuSans-6e" d="M 3513 2113 
L 3513 0 
L 2938 0 
L 2938 2094 
Q 2938 2591 2744 2837 
Q 2550 3084 2163 3084 
Q 1697 3084 1428 2787 
Q 1159 2491 1159 1978 
L 1159 0 
L 581 0 
L 581 3500 
L 1159 3500 
L 1159 2956 
Q 1366 3272 1645 3428 
Q 1925 3584 2291 3584 
Q 2894 3584 3203 3211 
Q 3513 2838 3513 2113 
z
" transform="scale(0.015625)"/>
          <path id="DejaVuSans-72" d="M 2631 2963 
Q 2534 3019 2420 3045 
Q 2306 3072 2169 3072 
Q 1681 3072 1420 2755 
Q 1159 2438 1159 1844 
L 1159 0 
L 581 0 
L 581 3500 
L 1159 3500 
L 1159 2956 
Q 1341 3275 1631 3429 
Q 1922 3584 2338 3584 
Q 2397 3584 2469 3576 
Q 2541 3569 2628 3553 
L 2631 2963 
z
" transform="scale(0.015625)"/>
          <path id="DejaVuSans-73" d="M 2834 3397 
L 2834 2853 
Q 2591 2978 2328 3040 
Q 2066 3103 1784 3103 
Q 1356 3103 1142 2972 
Q 928 2841 928 2578 
Q 928 2378 1081 2264 
Q 1234 2150 1697 2047 
L 1894 2003 
Q 2506 1872 2764 1633 
Q 3022 1394 3022 966 
Q 3022 478 2636 193 
Q 2250 -91 1575 -91 
Q 1294 -91 989 -36 
Q 684 19 347 128 
L 347 722 
Q 666 556 975 473 
Q 1284 391 1588 391 
Q 1994 391 2212 530 
Q 2431 669 2431 922 
Q 2431 1156 2273 1281 
Q 2116 1406 1581 1522 
L 1381 1569 
Q 847 1681 609 1914 
Q 372 2147 372 2553 
Q 372 3047 722 3315 
Q 1072 3584 1716 3584 
Q 2034 3584 2315 3537 
Q 2597 3491 2834 3397 
z
" transform="scale(0.015625)"/>
          <path id="DejaVuSans-29" d="M 513 4856 
L 1013 4856 
Q 1481 4119 1714 3412 
Q 1947 2706 1947 2009 
Q 1947 1309 1714 600 
Q 1481 -109 1013 -844 
L 513 -844 
Q 928 -128 1133 580 
Q 1338 1288 1338 2009 
Q 1338 2731 1133 3434 
Q 928 4138 513 4856 
z
" transform="scale(0.015625)"/>
         </defs>
         <use xlink:href="#DejaVuSans-74"/>
         <use xlink:href="#DejaVuSans-69" x="39.208984"/>
         <use xlink:href="#DejaVuSans-6d" x="66.992188"/>
         <use xlink:href="#DejaVuSans-65" x="164.404297"/>
         <use xlink:href="#DejaVuSans-20" x="225.927734"/>
         <use xlink:href="#DejaVuSans-61" x="257.714844"/>
         <use xlink:href="#DejaVuSans-67" x="318.994141"/>
         <use xlink:href="#DejaVuSans-6f" x="382.470703"/>
         <use xlink:href="#DejaVuSans-20" x="443.652344"/>
         <use xlink:href="#DejaVuSans-28" x="475.439453"/>
         <use xlink:href="#DejaVuSans-67" x="514.453125"/>
         <use xlink:href="#DejaVuSans-65" x="577.929688"/>
         <use xlink:href="#DejaVuSans-6e" x="639.453125"/>
         <use xlink:href="#DejaVuSans-65" x="702.832031"/>
         <use xlink:href="#DejaVuSans-72" x="764.355469"/>
         <use xlink:href="#DejaVuSans-61" x="805.46875"/>
         <use xlink:href="#DejaVuSans-74" x="866.748047"/>
         <use xlink:href="#DejaVuSans-69" x="905.957031"/>
         <use xlink:href="#DejaVuSans-6f" x="933.740234"/>
         <use xlink:href="#DejaVuSans-6e" x="994.921875"/>
         <use xlink:href="#DejaVuSans-73" x="1058.300781"/>
         <use xlink:href="#DejaVuSans-29" x="1110.400391"/>
        </g>
       </g>
      </g>
      <path d="M 255.642509 87.938075 
L 253.642509 86.938075 
L 253.642509 88.938075 
z
" clip-path="url(#p2159786285)" style="fill: #1f77b4; fill-opacity: 0.5; stroke: #1f77b4; stroke-opacity: 0.5; stroke-linejoin: miter"/>
      <path d="M 255.642509 169.758839 
L 253.642509 168.758839 
L 253.642509 170.758839 
z
" clip-path="url(#p2159786285)" style="fill: #1f77b4; fill-opacity: 0.5; stroke: #1f77b4; stroke-opacity: 0.5; stroke-linejoin: miter"/>
      <path d="M 255.642509 187.423407 
L 253.642509 186.423407 
L 253.642509 188.423407 
z
" clip-path="url(#p2159786285)" style="fill: #1f77b4; fill-opacity: 0.5; stroke: #1f77b4; stroke-opacity: 0.5; stroke-linejoin: miter"/>
      <path d="M 255.642509 125.16212 
L 253.642509 124.16212 
L 253.642509 126.16212 
z
" clip-path="url(#p2159786285)" style="fill: #1f77b4; fill-opacity: 0.5; stroke: #1f77b4; stroke-opacity: 0.5; stroke-linejoin: miter"/>
      <path d="M 255.642509 148.368349 
L 253.642509 147.368349 
L 253.642509 149.368349 
z
" clip-path="url(#p2159786285)" style="fill: #1f77b4; fill-opacity: 0.5; stroke: #1f77b4; stroke-opacity: 0.5; stroke-linejoin: miter"/>
      <path d="M 255.642509 103.825078 
L 253.642509 102.825078 
L 253.642509 104.825078 
z
" clip-path="url(#p2159786285)" style="fill: #1f77b4; fill-opacity: 0.5; stroke: #1f77b4; stroke-opacity: 0.5; stroke-linejoin: miter"/>
      <path d="M 255.642509 87.162217 
L 253.642509 86.162217 
L 253.642509 88.162217 
z
" clip-path="url(#p2159786285)" style="fill: #1f77b4; fill-opacity: 0.5; stroke: #1f77b4; stroke-opacity: 0.5; stroke-linejoin: miter"/>
      <path d="M 255.642509 146.829322 
L 253.642509 145.829322 
L 253.642509 147.829322 
z
" clip-path="url(#p2159786285)" style="fill: #1f77b4; fill-opacity: 0.5; stroke: #1f77b4; stroke-opacity: 0.5; stroke-linejoin: miter"/>
      <path d="M 255.642509 124.647385 
L 253.642509 123.647385 
L 253.642509 125.647385 
z
" clip-path="url(#p2159786285)" style="fill: #1f77b4; fill-opacity: 0.5; stroke: #1f77b4; stroke-opacity: 0.5; stroke-linejoin: miter"/>
      <path d="M 255.642509 190.859558 
L 253.642509 189.859558 
L 253.642509 191.859558 
z
" clip-path="url(#p2159786285)" style="fill: #1f77b4; fill-opacity: 0.5; stroke: #1f77b4; stroke-opacity: 0.5; stroke-linejoin: miter"/>
      <path d="M 446.783285 86.171981 
L 444.783285 85.171981 
L 444.783285 87.171981 
z
" clip-path="url(#p2159786285)" style="fill: #ff7f0e; fill-opacity: 0.5; stroke: #ff7f0e; stroke-opacity: 0.5; stroke-linejoin: miter"/>
      <path d="M 446.783285 89.391484 
L 444.783285 88.391484 
L 444.783285 90.391484 
z
" clip-path="url(#p2159786285)" style="fill: #ff7f0e; fill-opacity: 0.5; stroke: #ff7f0e; stroke-opacity: 0.5; stroke-linejoin: miter"/>
      <path d="M 446.783285 91.806999 
L 444.783285 90.806999 
L 444.783285 92.806999 
z
" clip-path="url(#p2159786285)" style="fill: #ff7f0e; fill-opacity: 0.5; stroke: #ff7f0e; stroke-opacity: 0.5; stroke-linejoin: miter"/>
      <path d="M 446.783285 132.818263 
L 444.783285 131.818263 
L 444.783285 133.818263 
z
" clip-path="url(#p2159786285)" style="fill: #ff7f0e; fill-opacity: 0.5; stroke: #ff7f0e; stroke-opacity: 0.5; stroke-linejoin: miter"/>
      <path d="M 446.783285 132.850691 
L 444.783285 131.850691 
L 444.783285 133.850691 
z
" clip-path="url(#p2159786285)" style="fill: #ff7f0e; fill-opacity: 0.5; stroke: #ff7f0e; stroke-opacity: 0.5; stroke-linejoin: miter"/>
      <path d="M 446.783285 172.675266 
L 444.783285 171.675266 
L 444.783285 173.675266 
z
" clip-path="url(#p2159786285)" style="fill: #ff7f0e; fill-opacity: 0.5; stroke: #ff7f0e; stroke-opacity: 0.5; stroke-linejoin: miter"/>
      <path d="M 446.783285 166.654429 
L 444.783285 165.654429 
L 444.783285 167.654429 
z
" clip-path="url(#p2159786285)" style="fill: #ff7f0e; fill-opacity: 0.5; stroke: #ff7f0e; stroke-opacity: 0.5; stroke-linejoin: miter"/>
      <path d="M 446.783285 120.541807 
L 444.783285 119.541807 
L 444.783285 121.541807 
z
" clip-path="url(#p2159786285)" style="fill: #ff7f0e; fill-opacity: 0.5; stroke: #ff7f0e; stroke-opacity: 0.5; stroke-linejoin: miter"/>
      <path d="M 446.783285 98.844286 
L 444.783285 97.844286 
L 444.783285 99.844286 
z
" clip-path="url(#p2159786285)" style="fill: #ff7f0e; fill-opacity: 0.5; stroke: #ff7f0e; stroke-opacity: 0.5; stroke-linejoin: miter"/>
      <path d="M 446.783285 107.258702 
L 444.783285 106.258702 
L 444.783285 108.258702 
z
" clip-path="url(#p2159786285)" style="fill: #ff7f0e; fill-opacity: 0.5; stroke: #ff7f0e; stroke-opacity: 0.5; stroke-linejoin: miter"/>
      <g id="patch_6">
       <path d="M 43.78125 318.021875 
L 43.78125 22.318125 
" style="fill: none; stroke: #000000; stroke-width: 0.8; stroke-linejoin: miter; stroke-linecap: square"/>
      </g>
      <g id="text_11">
       <!-- defaults_migration_properties.yaml -->
       <g transform="translate(215.434687 16.318125) scale(0.12 -0.12)">
        <defs>
         <path id="DejaVuSans-66" d="M 2375 4863 
L 2375 4384 
L 1825 4384 
Q 1516 4384 1395 4259 
Q 1275 4134 1275 3809 
L 1275 3500 
L 2222 3500 
L 2222 3053 
L 1275 3053 
L 1275 0 
L 697 0 
L 697 3053 
L 147 3053 
L 147 3500 
L 697 3500 
L 697 3744 
Q 697 4328 969 4595 
Q 1241 4863 1831 4863 
L 2375 4863 
z
" transform="scale(0.015625)"/>
         <path id="DejaVuSans-75" d="M 544 1381 
L 544 3500 
L 1119 3500 
L 1119 1403 
Q 1119 906 1312 657 
Q 1506 409 1894 409 
Q 2359 409 2629 706 
Q 2900 1003 2900 1516 
L 2900 3500 
L 3475 3500 
L 3475 0 
L 2900 0 
L 2900 538 
Q 2691 219 2414 64 
Q 2138 -91 1772 -91 
Q 1169 -91 856 284 
Q 544 659 544 1381 
z
M 1991 3584 
L 1991 3584 
z
" transform="scale(0.015625)"/>
         <path id="DejaVuSans-6c" d="M 603 4863 
L 1178 4863 
L 1178 0 
L 603 0 
L 603 4863 
z
" transform="scale(0.015625)"/>
         <path id="DejaVuSans-5f" d="M 3263 -1063 
L 3263 -1509 
L -63 -1509 
L -63 -1063 
L 3263 -1063 
z
" transform="scale(0.015625)"/>
         <path id="DejaVuSans-70" d="M 1159 525 
L 1159 -1331 
L 581 -1331 
L 581 3500 
L 1159 3500 
L 1159 2969 
Q 1341 3281 1617 3432 
Q 1894 3584 2278 3584 
Q 2916 3584 3314 3078 
Q 3713 2572 3713 1747 
Q 3713 922 3314 415 
Q 2916 -91 2278 -91 
Q 1894 -91 1617 61 
Q 1341 213 1159 525 
z
M 3116 1747 
Q 3116 2381 2855 2742 
Q 2594 3103 2138 3103 
Q 1681 3103 1420 2742 
Q 1159 2381 1159 1747 
Q 1159 1113 1420 752 
Q 1681 391 2138 391 
Q 2594 391 2855 752 
Q 3116 1113 3116 1747 
z
" transform="scale(0.015625)"/>
         <path id="DejaVuSans-79" d="M 2059 -325 
Q 1816 -950 1584 -1140 
Q 1353 -1331 966 -1331 
L 506 -1331 
L 506 -850 
L 844 -850 
Q 1081 -850 1212 -737 
Q 1344 -625 1503 -206 
L 1606 56 
L 191 3500 
L 800 3500 
L 1894 763 
L 2988 3500 
L 3597 3500 
L 2059 -325 
z
" transform="scale(0.015625)"/>
        </defs>
        <use xlink:href="#DejaVuSans-64"/>
        <use xlink:href="#DejaVuSans-65" x="63.476562"/>
        <use xlink:href="#DejaVuSans-66" x="125"/>
        <use xlink:href="#DejaVuSans-61" x="160.205078"/>
        <use xlink:href="#DejaVuSans-75" x="221.484375"/>
        <use xlink:href="#DejaVuSans-6c" x="284.863281"/>
        <use xlink:href="#DejaVuSans-74" x="312.646484"/>
        <use xlink:href="#DejaVuSans-73" x="351.855469"/>
        <use xlink:href="#DejaVuSans-5f" x="403.955078"/>
        <use xlink:href="#DejaVuSans-6d" x="453.955078"/>
        <use xlink:href="#DejaVuSans-69" x="551.367188"/>
        <use xlink:href="#DejaVuSans-67" x="579.150391"/>
        <use xlink:href="#DejaVuSans-72" x="642.626953"/>
        <use xlink:href="#DejaVuSans-61" x="683.740234"/>
        <use xlink:href="#DejaVuSans-74" x="745.019531"/>
        <use xlink:href="#DejaVuSans-69" x="784.228516"/>
        <use xlink:href="#DejaVuSans-6f" x="812.011719"/>
        <use xlink:href="#DejaVuSans-6e" x="873.193359"/>
        <use xlink:href="#DejaVuSans-5f" x="936.572266"/>
        <use xlink:href="#DejaVuSans-70" x="986.572266"/>
        <use xlink:href="#DejaVuSans-72" x="1050.048828"/>
        <use xlink:href="#DejaVuSans-6f" x="1088.912109"/>
        <use xlink:href="#DejaVuSans-70" x="1150.09375"/>
        <use xlink:href="#DejaVuSans-65" x="1213.570312"/>
        <use xlink:href="#DejaVuSans-72" x="1275.09375"/>
        <use xlink:href="#DejaVuSans-74" x="1316.207031"/>
        <use xlink:href="#DejaVuSans-69" x="1355.416016"/>
        <use xlink:href="#DejaVuSans-65" x="1383.199219"/>
        <use xlink:href="#DejaVuSans-73" x="1444.722656"/>
        <use xlink:href="#DejaVuSans-2e" x="1496.822266"/>
        <use xlink:href="#DejaVuSans-79" x="1528.609375"/>
        <use xlink:href="#DejaVuSans-61" x="1587.789062"/>
        <use xlink:href="#DejaVuSans-6d" x="1649.068359"/>
        <use xlink:href="#DejaVuSans-6c" x="1746.480469"/>
       </g>
      </g>
     </g>
    </g>
    <defs>
     <clipPath id="p2159786285">
      <rect x="43.78125" y="22.318125" width="556.21875" height="295.70375"/>
     </clipPath>
    </defs>
   </g>
  </g>
 </g>
</svg>
