<?xml version="1.0" encoding="utf-8" standalone="no"?>
<!DOCTYPE svg PUBLIC "-//W3C//DTD SVG 1.1//EN"
  "http://www.w3.org/Graphics/SVG/1.1/DTD/svg11.dtd">
<svg xmlns:xlink="http://www.w3.org/1999/xlink" width="504.8pt" height="280.8pt" viewBox="0 0 504.8 280.8" xmlns="http://www.w3.org/2000/svg" version="1.1">
 <metadata>
  <rdf:RDF xmlns:dc="http://purl.org/dc/elements/1.1/" xmlns:cc="http://creativecommons.org/ns#" xmlns:rdf="http://www.w3.org/1999/02/22-rdf-syntax-ns#">
   <cc:Work>
    <dc:type rdf:resource="http://purl.org/dc/dcmitype/StillImage"/>
    <dc:date>2022-06-13T08:24:50.233038</dc:date>
    <dc:format>image/svg+xml</dc:format>
    <dc:creator>
     <cc:Agent>
      <dc:title>Matplotlib v3.5.2, https://matplotlib.org/</dc:title>
     </cc:Agent>
    </dc:creator>
   </cc:Work>
  </rdf:RDF>
 </metadata>
 <defs>
  <style type="text/css">*{stroke-linejoin: round; stroke-linecap: butt}</style>
 </defs>
 <g id="figure_1">
  <g id="patch_1">
   <path d="M 0 280.8 
L 504.8 280.8 
L 504.8 0 
L 0 0 
L 0 280.8 
z
" style="fill: none"/>
  </g>
  <g id="axes_1">
   <g id="patch_2">
    <path d="M 43.78125 260.421875 
L 497.6 260.421875 
L 497.6 22.318125 
L 43.78125 22.318125 
z
" style="fill: #ffffff"/>
   </g>
   <path d="M 244.762419 106.123429 
L 245.762419 106.154865 
L 246.762419 106.191805 
L 247.762419 106.289552 
L 248.762419 106.322074 
L 249.762419 106.395698 
L 250.762419 106.434264 
L 251.762419 106.469677 
L 252.762419 106.527317 
L 253.762419 106.597703 
L 254.762419 106.649667 
L 255.762419 106.708757 
L 256.762419 106.797078 
L 257.762419 106.843222 
L 258.762419 106.885633 
L 259.762419 106.916126 
L 260.762419 106.942171 
L 261.762419 106.963371 
L 262.762419 107.017672 
L 263.762419 107.04561 
L 264.762419 107.075334 
L 265.762419 107.100728 
L 266.762419 107.111929 
L 267.762419 107.122053 
L 268.762419 107.121848 
L 269.762419 107.112339 
L 270.762419 107.100685 
L 271.762419 107.069656 
L 272.762419 107.058488 
L 273.762419 107.02837 
L 274.762419 106.968593 
L 275.762419 106.931402 
L 276.762419 106.892306 
L 277.762419 106.849866 
L 278.762419 106.817101 
L 279.762419 106.749675 
L 280.762419 106.710549 
L 281.762419 106.667874 
L 282.762419 106.597294 
L 283.762419 106.560903 
L 284.762419 106.502499 
L 285.762419 106.391547 
L 286.762419 106.320889 
L 287.762419 106.207949 
L 288.762419 106.162176 
L 289.762419 106.100893 
L 290.762419 106.052393 
L 291.762419 105.971571 
L 292.762419 105.853052 
L 293.762419 105.782841 
L 294.762419 105.699579 
L 296.618831 105.666437 
" clip-path="url(#p6ccc102a93)" style="fill: none; stroke: #1f77b4; stroke-opacity: 0.5; stroke-width: 0.2; stroke-linecap: square"/>
   <path d="M 244.762419 113.118881 
L 245.762419 113.150317 
L 246.762419 113.187258 
L 247.762419 113.285004 
L 248.762419 113.317526 
L 249.762419 113.39115 
L 250.762419 113.429716 
L 251.762419 113.465129 
L 252.762419 113.522769 
L 253.762419 113.593155 
L 254.762419 113.645119 
L 255.762419 113.704209 
L 256.762419 113.79253 
L 257.762419 113.838674 
L 258.762419 113.881085 
L 259.762419 113.911578 
L 260.762419 113.937623 
L 261.762419 113.958823 
L 262.762419 114.013124 
L 263.762419 114.041062 
L 264.762419 114.070786 
L 265.762419 114.096181 
L 266.762419 114.107381 
L 267.762419 114.117505 
L 268.762419 114.117301 
L 269.762419 114.107791 
L 270.762419 114.096137 
L 271.762419 114.065108 
L 272.762419 114.05394 
L 273.762419 114.023822 
L 274.762419 113.964045 
L 275.762419 113.926854 
L 276.762419 113.887758 
L 277.762419 113.845318 
L 278.762419 113.812553 
L 279.762419 113.745127 
L 280.762419 113.706001 
L 281.762419 113.663326 
L 282.762419 113.592746 
L 283.762419 113.556355 
L 284.762419 113.497952 
L 285.762419 113.386999 
L 286.762419 113.316341 
L 287.762419 113.203401 
L 288.762419 113.157628 
L 289.762419 113.096345 
L 290.762419 113.047845 
L 291.762419 112.967023 
L 292.762419 112.848504 
L 293.762419 112.778293 
L 294.762419 112.695031 
L 296.618831 112.661889 
" clip-path="url(#p6ccc102a93)" style="fill: none; stroke: #1f77b4; stroke-opacity: 0.5; stroke-width: 0.2; stroke-linecap: square"/>
   <path d="M 244.762419 73.733969 
L 245.762419 73.765405 
L 246.762419 73.802346 
L 247.762419 73.900092 
L 248.762419 73.932614 
L 249.762419 74.006239 
L 250.762419 74.044804 
L 251.762419 74.080217 
L 252.762419 74.137857 
L 253.762419 74.208244 
L 254.762419 74.260208 
L 255.762419 74.319297 
L 256.762419 74.407618 
L 257.762419 74.453763 
L 258.762419 74.496174 
L 259.762419 74.526666 
L 260.762419 74.552711 
L 261.762419 74.573911 
L 262.762419 74.628213 
L 263.762419 74.65615 
L 264.762419 74.685874 
L 265.762419 74.711269 
L 266.762419 74.722469 
L 267.762419 74.732593 
L 268.762419 74.732389 
L 269.762419 74.722879 
L 270.762419 74.711225 
L 271.762419 74.680196 
L 272.762419 74.669028 
L 273.762419 74.638911 
L 274.762419 74.579134 
L 275.762419 74.541942 
L 276.762419 74.502846 
L 277.762419 74.460406 
L 278.762419 74.427641 
L 279.762419 74.360215 
L 280.762419 74.321089 
L 281.762419 74.278414 
L 282.762419 74.207834 
L 283.762419 74.171443 
L 284.762419 74.11304 
L 285.762419 74.002087 
L 286.762419 73.931429 
L 287.762419 73.818489 
L 288.762419 73.772716 
L 289.762419 73.711433 
L 290.762419 73.662934 
L 291.762419 73.582111 
L 292.762419 73.463592 
L 293.762419 73.393381 
L 294.762419 73.310119 
L 296.618831 73.276977 
" clip-path="url(#p6ccc102a93)" style="fill: none; stroke: #1f77b4; stroke-opacity: 0.5; stroke-width: 0.2; stroke-linecap: square"/>
   <path d="M 244.762419 155.634143 
L 245.762419 155.665579 
L 246.762419 155.70252 
L 247.762419 155.800266 
L 248.762419 155.832788 
L 249.762419 155.906412 
L 250.762419 155.944978 
L 251.762419 155.980391 
L 252.762419 156.038031 
L 253.762419 156.108417 
L 254.762419 156.160381 
L 255.762419 156.219471 
L 256.762419 156.307792 
L 257.762419 156.353936 
L 258.762419 156.396347 
L 259.762419 156.42684 
L 260.762419 156.452885 
L 261.762419 156.474085 
L 262.762419 156.528386 
L 263.762419 156.556324 
L 264.762419 156.586048 
L 265.762419 156.611443 
L 266.762419 156.622643 
L 267.762419 156.632767 
L 268.762419 156.632563 
L 269.762419 156.623053 
L 270.762419 156.611399 
L 271.762419 156.58037 
L 272.762419 156.569202 
L 273.762419 156.539084 
L 274.762419 156.479307 
L 275.762419 156.442116 
L 276.762419 156.40302 
L 277.762419 156.36058 
L 278.762419 156.327815 
L 279.762419 156.260389 
L 280.762419 156.221263 
L 281.762419 156.178588 
L 282.762419 156.108008 
L 283.762419 156.071617 
L 284.762419 156.013214 
L 285.762419 155.902261 
L 286.762419 155.831603 
L 287.762419 155.718663 
L 288.762419 155.67289 
L 289.762419 155.611607 
L 290.762419 155.563107 
L 291.762419 155.482285 
L 292.762419 155.363766 
L 293.762419 155.293555 
L 294.762419 155.210293 
L 296.618831 155.177151 
" clip-path="url(#p6ccc102a93)" style="fill: none; stroke: #1f77b4; stroke-opacity: 0.5; stroke-width: 0.2; stroke-linecap: square"/>
   <path d="M 244.762419 119.299183 
L 245.762419 119.33062 
L 246.762419 119.36756 
L 247.762419 119.465307 
L 248.762419 119.497828 
L 249.762419 119.571453 
L 250.762419 119.610018 
L 251.762419 119.645432 
L 252.762419 119.703072 
L 253.762419 119.773458 
L 254.762419 119.825422 
L 255.762419 119.884512 
L 256.762419 119.972833 
L 257.762419 120.018977 
L 258.762419 120.061388 
L 259.762419 120.091881 
L 260.762419 120.117926 
L 261.762419 120.139126 
L 262.762419 120.193427 
L 263.762419 120.221364 
L 264.762419 120.251088 
L 265.762419 120.276483 
L 266.762419 120.287683 
L 267.762419 120.297807 
L 268.762419 120.297603 
L 269.762419 120.288093 
L 270.762419 120.27644 
L 271.762419 120.24541 
L 272.762419 120.234242 
L 273.762419 120.204125 
L 274.762419 120.144348 
L 275.762419 120.107156 
L 276.762419 120.06806 
L 277.762419 120.025621 
L 278.762419 119.992856 
L 279.762419 119.925429 
L 280.762419 119.886303 
L 281.762419 119.843629 
L 282.762419 119.773048 
L 283.762419 119.736657 
L 284.762419 119.678254 
L 285.762419 119.567301 
L 286.762419 119.496643 
L 287.762419 119.383703 
L 288.762419 119.33793 
L 289.762419 119.276647 
L 290.762419 119.228148 
L 291.762419 119.147325 
L 292.762419 119.028806 
L 293.762419 118.958596 
L 294.762419 118.875333 
L 296.618831 118.842191 
" clip-path="url(#p6ccc102a93)" style="fill: none; stroke: #1f77b4; stroke-opacity: 0.5; stroke-width: 0.2; stroke-linecap: square"/>
   <path d="M 244.762419 72.587292 
L 245.762419 72.618729 
L 246.762419 72.655669 
L 247.762419 72.753416 
L 248.762419 72.785937 
L 249.762419 72.859562 
L 250.762419 72.898128 
L 251.762419 72.933541 
L 252.762419 72.991181 
L 253.762419 73.061567 
L 254.762419 73.113531 
L 255.762419 73.172621 
L 256.762419 73.260942 
L 257.762419 73.307086 
L 258.762419 73.349497 
L 259.762419 73.37999 
L 260.762419 73.406035 
L 261.762419 73.427235 
L 262.762419 73.481536 
L 263.762419 73.509473 
L 264.762419 73.539197 
L 265.762419 73.564592 
L 266.762419 73.575793 
L 267.762419 73.585917 
L 268.762419 73.585712 
L 269.762419 73.576202 
L 270.762419 73.564549 
L 271.762419 73.53352 
L 272.762419 73.522352 
L 273.762419 73.492234 
L 274.762419 73.432457 
L 275.762419 73.395266 
L 276.762419 73.35617 
L 277.762419 73.31373 
L 278.762419 73.280965 
L 279.762419 73.213538 
L 280.762419 73.174412 
L 281.762419 73.131738 
L 282.762419 73.061157 
L 283.762419 73.024766 
L 284.762419 72.966363 
L 285.762419 72.855411 
L 286.762419 72.784752 
L 287.762419 72.671812 
L 288.762419 72.62604 
L 289.762419 72.564756 
L 290.762419 72.516257 
L 291.762419 72.435434 
L 292.762419 72.316915 
L 293.762419 72.246705 
L 294.762419 72.163442 
L 296.618831 72.130301 
" clip-path="url(#p6ccc102a93)" style="fill: none; stroke: #1f77b4; stroke-opacity: 0.5; stroke-width: 0.2; stroke-linecap: square"/>
   <path d="M 244.762419 146.113498 
L 245.762419 146.144934 
L 246.762419 146.181875 
L 247.762419 146.279621 
L 248.762419 146.312143 
L 249.762419 146.385767 
L 250.762419 146.424333 
L 251.762419 146.459746 
L 252.762419 146.517386 
L 253.762419 146.587772 
L 254.762419 146.639736 
L 255.762419 146.698826 
L 256.762419 146.787147 
L 257.762419 146.833291 
L 258.762419 146.875702 
L 259.762419 146.906195 
L 260.762419 146.93224 
L 261.762419 146.95344 
L 262.762419 147.007741 
L 263.762419 147.035679 
L 264.762419 147.065403 
L 265.762419 147.090798 
L 266.762419 147.101998 
L 267.762419 147.112122 
L 268.762419 147.111918 
L 269.762419 147.102408 
L 270.762419 147.090754 
L 271.762419 147.059725 
L 272.762419 147.048557 
L 273.762419 147.018439 
L 274.762419 146.958662 
L 275.762419 146.921471 
L 276.762419 146.882375 
L 277.762419 146.839935 
L 278.762419 146.80717 
L 279.762419 146.739744 
L 280.762419 146.700618 
L 281.762419 146.657943 
L 282.762419 146.587363 
L 283.762419 146.550972 
L 284.762419 146.492569 
L 285.762419 146.381616 
L 286.762419 146.310958 
L 287.762419 146.198018 
L 288.762419 146.152245 
L 289.762419 146.090962 
L 290.762419 146.042462 
L 291.762419 145.96164 
L 292.762419 145.843121 
L 293.762419 145.77291 
L 294.762419 145.689648 
L 296.618831 145.656506 
" clip-path="url(#p6ccc102a93)" style="fill: none; stroke: #1f77b4; stroke-opacity: 0.5; stroke-width: 0.2; stroke-linecap: square"/>
   <path d="M 244.762419 78.890173 
L 245.762419 78.921609 
L 246.762419 78.95855 
L 247.762419 79.056296 
L 248.762419 79.088818 
L 249.762419 79.162442 
L 250.762419 79.201008 
L 251.762419 79.236421 
L 252.762419 79.294061 
L 253.762419 79.364447 
L 254.762419 79.416411 
L 255.762419 79.475501 
L 256.762419 79.563822 
L 257.762419 79.609966 
L 258.762419 79.652377 
L 259.762419 79.68287 
L 260.762419 79.708915 
L 261.762419 79.730115 
L 262.762419 79.784416 
L 263.762419 79.812354 
L 264.762419 79.842078 
L 265.762419 79.867473 
L 266.762419 79.878673 
L 267.762419 79.888797 
L 268.762419 79.888593 
L 269.762419 79.879083 
L 270.762419 79.867429 
L 271.762419 79.8364 
L 272.762419 79.825232 
L 273.762419 79.795114 
L 274.762419 79.735338 
L 275.762419 79.698146 
L 276.762419 79.65905 
L 277.762419 79.61661 
L 278.762419 79.583845 
L 279.762419 79.516419 
L 280.762419 79.477293 
L 281.762419 79.434618 
L 282.762419 79.364038 
L 283.762419 79.327647 
L 284.762419 79.269244 
L 285.762419 79.158291 
L 286.762419 79.087633 
L 287.762419 78.974693 
L 288.762419 78.92892 
L 289.762419 78.867637 
L 290.762419 78.819137 
L 291.762419 78.738315 
L 292.762419 78.619796 
L 293.762419 78.549585 
L 294.762419 78.466323 
L 296.618831 78.433181 
" clip-path="url(#p6ccc102a93)" style="fill: none; stroke: #1f77b4; stroke-opacity: 0.5; stroke-width: 0.2; stroke-linecap: square"/>
   <path d="M 244.762419 70.949872 
L 245.762419 70.981309 
L 246.762419 71.018249 
L 247.762419 71.115996 
L 248.762419 71.148517 
L 249.762419 71.222142 
L 250.762419 71.260707 
L 251.762419 71.296121 
L 252.762419 71.353761 
L 253.762419 71.424147 
L 254.762419 71.476111 
L 255.762419 71.535201 
L 256.762419 71.623522 
L 257.762419 71.669666 
L 258.762419 71.712077 
L 259.762419 71.74257 
L 260.762419 71.768615 
L 261.762419 71.789815 
L 262.762419 71.844116 
L 263.762419 71.872053 
L 264.762419 71.901777 
L 265.762419 71.927172 
L 266.762419 71.938372 
L 267.762419 71.948496 
L 268.762419 71.948292 
L 269.762419 71.938782 
L 270.762419 71.927129 
L 271.762419 71.896099 
L 272.762419 71.884931 
L 273.762419 71.854814 
L 274.762419 71.795037 
L 275.762419 71.757845 
L 276.762419 71.718749 
L 277.762419 71.67631 
L 278.762419 71.643545 
L 279.762419 71.576118 
L 280.762419 71.536992 
L 281.762419 71.494318 
L 282.762419 71.423737 
L 283.762419 71.387346 
L 284.762419 71.328943 
L 285.762419 71.21799 
L 286.762419 71.147332 
L 287.762419 71.034392 
L 288.762419 70.988619 
L 289.762419 70.927336 
L 290.762419 70.878837 
L 291.762419 70.798014 
L 292.762419 70.679495 
L 293.762419 70.609285 
L 294.762419 70.526022 
L 296.618831 70.49288 
" clip-path="url(#p6ccc102a93)" style="fill: none; stroke: #1f77b4; stroke-opacity: 0.5; stroke-width: 0.2; stroke-linecap: square"/>
   <path d="M 244.762419 139.101945 
L 245.762419 139.133382 
L 246.762419 139.170322 
L 247.762419 139.268069 
L 248.762419 139.30059 
L 249.762419 139.374215 
L 250.762419 139.412781 
L 251.762419 139.448194 
L 252.762419 139.505834 
L 253.762419 139.57622 
L 254.762419 139.628184 
L 255.762419 139.687274 
L 256.762419 139.775595 
L 257.762419 139.821739 
L 258.762419 139.86415 
L 259.762419 139.894643 
L 260.762419 139.920688 
L 261.762419 139.941888 
L 262.762419 139.996189 
L 263.762419 140.024126 
L 264.762419 140.05385 
L 265.762419 140.079245 
L 266.762419 140.090446 
L 267.762419 140.10057 
L 268.762419 140.100365 
L 269.762419 140.090855 
L 270.762419 140.079202 
L 271.762419 140.048173 
L 272.762419 140.037005 
L 273.762419 140.006887 
L 274.762419 139.94711 
L 275.762419 139.909919 
L 276.762419 139.870823 
L 277.762419 139.828383 
L 278.762419 139.795618 
L 279.762419 139.728191 
L 280.762419 139.689065 
L 281.762419 139.646391 
L 282.762419 139.57581 
L 283.762419 139.539419 
L 284.762419 139.481016 
L 285.762419 139.370064 
L 286.762419 139.299405 
L 287.762419 139.186465 
L 288.762419 139.140693 
L 289.762419 139.079409 
L 290.762419 139.03091 
L 291.762419 138.950087 
L 292.762419 138.831568 
L 293.762419 138.761358 
L 294.762419 138.678095 
L 296.618831 138.644954 
" clip-path="url(#p6ccc102a93)" style="fill: none; stroke: #1f77b4; stroke-opacity: 0.5; stroke-width: 0.2; stroke-linecap: square"/>
   <path d="M 244.762419 220.172782 
L 245.762419 220.204218 
L 246.762419 220.241158 
L 247.762419 220.338905 
L 248.762419 220.371426 
L 249.762419 220.445051 
L 250.762419 220.483617 
L 251.762419 220.51903 
L 252.762419 220.57667 
L 253.762419 220.647056 
L 254.762419 220.69902 
L 255.762419 220.75811 
L 256.762419 220.846431 
L 257.762419 220.892575 
L 258.762419 220.934986 
L 259.762419 220.965479 
L 260.762419 220.991524 
L 261.762419 221.012724 
L 262.762419 221.067025 
L 263.762419 221.094963 
L 264.762419 221.124687 
L 265.762419 221.150081 
L 266.762419 221.161282 
L 267.762419 221.171406 
L 268.762419 221.171201 
L 269.762419 221.161691 
L 270.762419 221.150038 
L 271.762419 221.119009 
L 272.762419 221.107841 
L 273.762419 221.077723 
L 274.762419 221.017946 
L 275.762419 220.980755 
L 276.762419 220.941659 
L 277.762419 220.899219 
L 278.762419 220.866454 
L 279.762419 220.799027 
L 280.762419 220.759902 
L 281.762419 220.717227 
L 282.762419 220.646646 
L 283.762419 220.610256 
L 284.762419 220.551852 
L 285.762419 220.4409 
L 286.762419 220.370241 
L 287.762419 220.257302 
L 288.762419 220.211529 
L 289.762419 220.150245 
L 290.762419 220.101746 
L 291.762419 220.020923 
L 292.762419 219.902405 
L 293.762419 219.832194 
L 294.762419 219.748931 
L 296.618831 219.71579 
" clip-path="url(#p6ccc102a93)" style="fill: none; stroke: #1f77b4; stroke-opacity: 0.5; stroke-width: 0.2; stroke-linecap: square"/>
   <path d="M 244.762419 234.471142 
L 245.762419 234.502578 
L 246.762419 234.539519 
L 247.762419 234.637265 
L 248.762419 234.669787 
L 249.762419 234.743412 
L 250.762419 234.781977 
L 251.762419 234.81739 
L 252.762419 234.87503 
L 253.762419 234.945417 
L 254.762419 234.997381 
L 255.762419 235.056471 
L 256.762419 235.144791 
L 257.762419 235.190936 
L 258.762419 235.233347 
L 259.762419 235.263839 
L 260.762419 235.289884 
L 261.762419 235.311084 
L 262.762419 235.365386 
L 263.762419 235.393323 
L 264.762419 235.423047 
L 265.762419 235.448442 
L 266.762419 235.459642 
L 267.762419 235.469766 
L 268.762419 235.469562 
L 269.762419 235.460052 
L 270.762419 235.448398 
L 271.762419 235.417369 
L 272.762419 235.406201 
L 273.762419 235.376084 
L 274.762419 235.316307 
L 275.762419 235.279115 
L 276.762419 235.240019 
L 277.762419 235.19758 
L 278.762419 235.164814 
L 279.762419 235.097388 
L 280.762419 235.058262 
L 281.762419 235.015588 
L 282.762419 234.945007 
L 283.762419 234.908616 
L 284.762419 234.850213 
L 285.762419 234.73926 
L 286.762419 234.668602 
L 287.762419 234.555662 
L 288.762419 234.509889 
L 289.762419 234.448606 
L 290.762419 234.400107 
L 291.762419 234.319284 
L 292.762419 234.200765 
L 293.762419 234.130554 
L 294.762419 234.047292 
L 296.618831 234.01415 
" clip-path="url(#p6ccc102a93)" style="fill: none; stroke: #1f77b4; stroke-opacity: 0.5; stroke-width: 0.2; stroke-linecap: square"/>
   <path d="M 244.762419 228.195784 
L 245.762419 228.227221 
L 246.762419 228.264161 
L 247.762419 228.361908 
L 248.762419 228.394429 
L 249.762419 228.468054 
L 250.762419 228.50662 
L 251.762419 228.542033 
L 252.762419 228.599673 
L 253.762419 228.670059 
L 254.762419 228.722023 
L 255.762419 228.781113 
L 256.762419 228.869434 
L 257.762419 228.915578 
L 258.762419 228.957989 
L 259.762419 228.988482 
L 260.762419 229.014527 
L 261.762419 229.035727 
L 262.762419 229.090028 
L 263.762419 229.117965 
L 264.762419 229.147689 
L 265.762419 229.173084 
L 266.762419 229.184285 
L 267.762419 229.194409 
L 268.762419 229.194204 
L 269.762419 229.184694 
L 270.762419 229.173041 
L 271.762419 229.142012 
L 272.762419 229.130844 
L 273.762419 229.100726 
L 274.762419 229.040949 
L 275.762419 229.003758 
L 276.762419 228.964662 
L 277.762419 228.922222 
L 278.762419 228.889457 
L 279.762419 228.82203 
L 280.762419 228.782904 
L 281.762419 228.74023 
L 282.762419 228.669649 
L 283.762419 228.633258 
L 284.762419 228.574855 
L 285.762419 228.463903 
L 286.762419 228.393244 
L 287.762419 228.280304 
L 288.762419 228.234532 
L 289.762419 228.173248 
L 290.762419 228.124749 
L 291.762419 228.043926 
L 292.762419 227.925407 
L 293.762419 227.855197 
L 294.762419 227.771934 
L 296.618831 227.738793 
" clip-path="url(#p6ccc102a93)" style="fill: none; stroke: #1f77b4; stroke-opacity: 0.5; stroke-width: 0.2; stroke-linecap: square"/>
   <path d="M 244.762419 170.257327 
L 245.762419 170.288764 
L 246.762419 170.325704 
L 247.762419 170.423451 
L 248.762419 170.455972 
L 249.762419 170.529597 
L 250.762419 170.568162 
L 251.762419 170.603576 
L 252.762419 170.661216 
L 253.762419 170.731602 
L 254.762419 170.783566 
L 255.762419 170.842656 
L 256.762419 170.930977 
L 257.762419 170.977121 
L 258.762419 171.019532 
L 259.762419 171.050025 
L 260.762419 171.076069 
L 261.762419 171.09727 
L 262.762419 171.151571 
L 263.762419 171.179508 
L 264.762419 171.209232 
L 265.762419 171.234627 
L 266.762419 171.245827 
L 267.762419 171.255951 
L 268.762419 171.255747 
L 269.762419 171.246237 
L 270.762419 171.234584 
L 271.762419 171.203554 
L 272.762419 171.192386 
L 273.762419 171.162269 
L 274.762419 171.102492 
L 275.762419 171.0653 
L 276.762419 171.026204 
L 277.762419 170.983765 
L 278.762419 170.951 
L 279.762419 170.883573 
L 280.762419 170.844447 
L 281.762419 170.801773 
L 282.762419 170.731192 
L 283.762419 170.694801 
L 284.762419 170.636398 
L 285.762419 170.525445 
L 286.762419 170.454787 
L 287.762419 170.341847 
L 288.762419 170.296074 
L 289.762419 170.234791 
L 290.762419 170.186292 
L 291.762419 170.105469 
L 292.762419 169.98695 
L 293.762419 169.91674 
L 294.762419 169.833477 
L 296.618831 169.800335 
" clip-path="url(#p6ccc102a93)" style="fill: none; stroke: #1f77b4; stroke-opacity: 0.5; stroke-width: 0.2; stroke-linecap: square"/>
   <path d="M 244.762419 244.696339 
L 245.762419 244.727776 
L 246.762419 244.764716 
L 247.762419 244.862463 
L 248.762419 244.894984 
L 249.762419 244.968609 
L 250.762419 245.007175 
L 251.762419 245.042588 
L 252.762419 245.100228 
L 253.762419 245.170614 
L 254.762419 245.222578 
L 255.762419 245.281668 
L 256.762419 245.369989 
L 257.762419 245.416133 
L 258.762419 245.458544 
L 259.762419 245.489037 
L 260.762419 245.515082 
L 261.762419 245.536282 
L 262.762419 245.590583 
L 263.762419 245.61852 
L 264.762419 245.648244 
L 265.762419 245.673639 
L 266.762419 245.68484 
L 267.762419 245.694963 
L 268.762419 245.694759 
L 269.762419 245.685249 
L 270.762419 245.673596 
L 271.762419 245.642566 
L 272.762419 245.631399 
L 273.762419 245.601281 
L 274.762419 245.541504 
L 275.762419 245.504313 
L 276.762419 245.465216 
L 277.762419 245.422777 
L 278.762419 245.390012 
L 279.762419 245.322585 
L 280.762419 245.283459 
L 281.762419 245.240785 
L 282.762419 245.170204 
L 283.762419 245.133813 
L 284.762419 245.07541 
L 285.762419 244.964458 
L 286.762419 244.893799 
L 287.762419 244.780859 
L 288.762419 244.735087 
L 289.762419 244.673803 
L 290.762419 244.625304 
L 291.762419 244.544481 
L 292.762419 244.425962 
L 293.762419 244.355752 
L 294.762419 244.272489 
L 296.618831 244.239347 
" clip-path="url(#p6ccc102a93)" style="fill: none; stroke: #1f77b4; stroke-opacity: 0.5; stroke-width: 0.2; stroke-linecap: square"/>
   <path d="M 244.762419 189.702804 
L 245.762419 189.73424 
L 246.762419 189.771181 
L 247.762419 189.868927 
L 248.762419 189.901449 
L 249.762419 189.975073 
L 250.762419 190.013639 
L 251.762419 190.049052 
L 252.762419 190.106692 
L 253.762419 190.177078 
L 254.762419 190.229042 
L 255.762419 190.288132 
L 256.762419 190.376453 
L 257.762419 190.422597 
L 258.762419 190.465008 
L 259.762419 190.495501 
L 260.762419 190.521546 
L 261.762419 190.542746 
L 262.762419 190.597047 
L 263.762419 190.624985 
L 264.762419 190.654709 
L 265.762419 190.680104 
L 266.762419 190.691304 
L 267.762419 190.701428 
L 268.762419 190.701224 
L 269.762419 190.691714 
L 270.762419 190.68006 
L 271.762419 190.649031 
L 272.762419 190.637863 
L 273.762419 190.607745 
L 274.762419 190.547969 
L 275.762419 190.510777 
L 276.762419 190.471681 
L 277.762419 190.429241 
L 278.762419 190.396476 
L 279.762419 190.32905 
L 280.762419 190.289924 
L 281.762419 190.247249 
L 282.762419 190.176669 
L 283.762419 190.140278 
L 284.762419 190.081875 
L 285.762419 189.970922 
L 286.762419 189.900264 
L 287.762419 189.787324 
L 288.762419 189.741551 
L 289.762419 189.680268 
L 290.762419 189.631768 
L 291.762419 189.550946 
L 292.762419 189.432427 
L 293.762419 189.362216 
L 294.762419 189.278954 
L 296.618831 189.245812 
" clip-path="url(#p6ccc102a93)" style="fill: none; stroke: #1f77b4; stroke-opacity: 0.5; stroke-width: 0.2; stroke-linecap: square"/>
   <path d="M 244.762419 225.86857 
L 245.762419 225.900006 
L 246.762419 225.936946 
L 247.762419 226.034693 
L 248.762419 226.067215 
L 249.762419 226.140839 
L 250.762419 226.179405 
L 251.762419 226.214818 
L 252.762419 226.272458 
L 253.762419 226.342844 
L 254.762419 226.394808 
L 255.762419 226.453898 
L 256.762419 226.542219 
L 257.762419 226.588363 
L 258.762419 226.630774 
L 259.762419 226.661267 
L 260.762419 226.687312 
L 261.762419 226.708512 
L 262.762419 226.762813 
L 263.762419 226.790751 
L 264.762419 226.820475 
L 265.762419 226.845869 
L 266.762419 226.85707 
L 267.762419 226.867194 
L 268.762419 226.86699 
L 269.762419 226.85748 
L 270.762419 226.845826 
L 271.762419 226.814797 
L 272.762419 226.803629 
L 273.762419 226.773511 
L 274.762419 226.713734 
L 275.762419 226.676543 
L 276.762419 226.637447 
L 277.762419 226.595007 
L 278.762419 226.562242 
L 279.762419 226.494816 
L 280.762419 226.45569 
L 281.762419 226.413015 
L 282.762419 226.342435 
L 283.762419 226.306044 
L 284.762419 226.24764 
L 285.762419 226.136688 
L 286.762419 226.06603 
L 287.762419 225.95309 
L 288.762419 225.907317 
L 289.762419 225.846034 
L 290.762419 225.797534 
L 291.762419 225.716712 
L 292.762419 225.598193 
L 293.762419 225.527982 
L 294.762419 225.44472 
L 296.618831 225.411578 
" clip-path="url(#p6ccc102a93)" style="fill: none; stroke: #1f77b4; stroke-opacity: 0.5; stroke-width: 0.2; stroke-linecap: square"/>
   <path d="M 244.762419 179.306783 
L 245.762419 179.33822 
L 246.762419 179.37516 
L 247.762419 179.472907 
L 248.762419 179.505428 
L 249.762419 179.579053 
L 250.762419 179.617619 
L 251.762419 179.653032 
L 252.762419 179.710672 
L 253.762419 179.781058 
L 254.762419 179.833022 
L 255.762419 179.892112 
L 256.762419 179.980433 
L 257.762419 180.026577 
L 258.762419 180.068988 
L 259.762419 180.099481 
L 260.762419 180.125526 
L 261.762419 180.146726 
L 262.762419 180.201027 
L 263.762419 180.228964 
L 264.762419 180.258688 
L 265.762419 180.284083 
L 266.762419 180.295284 
L 267.762419 180.305408 
L 268.762419 180.305203 
L 269.762419 180.295693 
L 270.762419 180.28404 
L 271.762419 180.253011 
L 272.762419 180.241843 
L 273.762419 180.211725 
L 274.762419 180.151948 
L 275.762419 180.114757 
L 276.762419 180.075661 
L 277.762419 180.033221 
L 278.762419 180.000456 
L 279.762419 179.933029 
L 280.762419 179.893903 
L 281.762419 179.851229 
L 282.762419 179.780648 
L 283.762419 179.744257 
L 284.762419 179.685854 
L 285.762419 179.574902 
L 286.762419 179.504243 
L 287.762419 179.391303 
L 288.762419 179.345531 
L 289.762419 179.284247 
L 290.762419 179.235748 
L 291.762419 179.154925 
L 292.762419 179.036406 
L 293.762419 178.966196 
L 294.762419 178.882933 
L 296.618831 178.849792 
" clip-path="url(#p6ccc102a93)" style="fill: none; stroke: #1f77b4; stroke-opacity: 0.5; stroke-width: 0.2; stroke-linecap: square"/>
   <path d="M 244.762419 232.10614 
L 245.762419 232.137577 
L 246.762419 232.174517 
L 247.762419 232.272263 
L 248.762419 232.304785 
L 249.762419 232.37841 
L 250.762419 232.416975 
L 251.762419 232.452388 
L 252.762419 232.510028 
L 253.762419 232.580415 
L 254.762419 232.632379 
L 255.762419 232.691469 
L 256.762419 232.77979 
L 257.762419 232.825934 
L 258.762419 232.868345 
L 259.762419 232.898837 
L 260.762419 232.924882 
L 261.762419 232.946083 
L 262.762419 233.000384 
L 263.762419 233.028321 
L 264.762419 233.058045 
L 265.762419 233.08344 
L 266.762419 233.09464 
L 267.762419 233.104764 
L 268.762419 233.10456 
L 269.762419 233.09505 
L 270.762419 233.083397 
L 271.762419 233.052367 
L 272.762419 233.041199 
L 273.762419 233.011082 
L 274.762419 232.951305 
L 275.762419 232.914113 
L 276.762419 232.875017 
L 277.762419 232.832578 
L 278.762419 232.799813 
L 279.762419 232.732386 
L 280.762419 232.69326 
L 281.762419 232.650586 
L 282.762419 232.580005 
L 283.762419 232.543614 
L 284.762419 232.485211 
L 285.762419 232.374258 
L 286.762419 232.3036 
L 287.762419 232.19066 
L 288.762419 232.144887 
L 289.762419 232.083604 
L 290.762419 232.035105 
L 291.762419 231.954282 
L 292.762419 231.835763 
L 293.762419 231.765553 
L 294.762419 231.68229 
L 296.618831 231.649148 
" clip-path="url(#p6ccc102a93)" style="fill: none; stroke: #1f77b4; stroke-opacity: 0.5; stroke-width: 0.2; stroke-linecap: square"/>
   <path d="M 244.762419 212.122307 
L 245.762419 212.153743 
L 246.762419 212.190683 
L 247.762419 212.28843 
L 248.762419 212.320952 
L 249.762419 212.394576 
L 250.762419 212.433142 
L 251.762419 212.468555 
L 252.762419 212.526195 
L 253.762419 212.596581 
L 254.762419 212.648545 
L 255.762419 212.707635 
L 256.762419 212.795956 
L 257.762419 212.8421 
L 258.762419 212.884511 
L 259.762419 212.915004 
L 260.762419 212.941049 
L 261.762419 212.962249 
L 262.762419 213.01655 
L 263.762419 213.044488 
L 264.762419 213.074212 
L 265.762419 213.099606 
L 266.762419 213.110807 
L 267.762419 213.120931 
L 268.762419 213.120726 
L 269.762419 213.111217 
L 270.762419 213.099563 
L 271.762419 213.068534 
L 272.762419 213.057366 
L 273.762419 213.027248 
L 274.762419 212.967471 
L 275.762419 212.93028 
L 276.762419 212.891184 
L 277.762419 212.848744 
L 278.762419 212.815979 
L 279.762419 212.748553 
L 280.762419 212.709427 
L 281.762419 212.666752 
L 282.762419 212.596171 
L 283.762419 212.559781 
L 284.762419 212.501377 
L 285.762419 212.390425 
L 286.762419 212.319767 
L 287.762419 212.206827 
L 288.762419 212.161054 
L 289.762419 212.099771 
L 290.762419 212.051271 
L 291.762419 211.970449 
L 292.762419 211.85193 
L 293.762419 211.781719 
L 294.762419 211.698457 
L 296.618831 211.665315 
" clip-path="url(#p6ccc102a93)" style="fill: none; stroke: #1f77b4; stroke-opacity: 0.5; stroke-width: 0.2; stroke-linecap: square"/>
   <g id="patch_3">
    <path d="M 64.409375 22.318125 
L 64.409375 260.421875 
M 240.224232 22.318125 
L 240.224232 260.421875 
" clip-path="url(#p6ccc102a93)" style="fill: none; stroke: #ffffff; stroke-width: 3; stroke-linejoin: miter"/>
    <path d="M 64.409375 22.318125 
L 64.409375 260.421875 
M 240.224232 22.318125 
L 240.224232 260.421875 
" clip-path="url(#p6ccc102a93)" style="fill: none; stroke: #1f77b4; stroke-linejoin: miter"/>
    <g id="PolyCollection_1">
     <path d="M 240.224232 22.318125 
L 64.409375 22.318125 
L 64.409375 260.421875 
L 240.224232 260.421875 
L 240.224232 260.421875 
L 240.224232 22.318125 
z
" clip-path="url(#p6ccc102a93)" style="fill: #1f77b4; fill-opacity: 0.5"/>
    </g>
    <g id="patch_4">
     <path d="M 301.157018 22.318125 
L 301.157018 260.421875 
M 476.971875 22.318125 
L 476.971875 260.421875 
" clip-path="url(#p6ccc102a93)" style="fill: none; stroke: #ffffff; stroke-width: 3; stroke-linejoin: miter"/>
     <path d="M 301.157018 22.318125 
L 301.157018 260.421875 
M 476.971875 22.318125 
L 476.971875 260.421875 
" clip-path="url(#p6ccc102a93)" style="fill: none; stroke: #ff7f0e; stroke-linejoin: miter"/>
     <g id="PolyCollection_2">
      <path d="M 476.971875 22.318125 
L 301.157018 22.318125 
L 301.157018 260.421875 
L 476.971875 260.421875 
L 476.971875 260.421875 
L 476.971875 22.318125 
z
" clip-path="url(#p6ccc102a93)" style="fill: #ff7f0e; fill-opacity: 0.5"/>
     </g>
     <g id="matplotlib.axis_1">
      <g id="xtick_1">
       <g id="line2d_1"/>
       <g id="text_1">
        <!-- deme0 -->
        <g transform="translate(134.937897 271.520312)scale(0.1 -0.1)">
         <defs>
          <path id="DejaVuSans-64" d="M 2906 2969 
L 2906 4863 
L 3481 4863 
L 3481 0 
L 2906 0 
L 2906 525 
Q 2725 213 2448 61 
Q 2172 -91 1784 -91 
Q 1150 -91 751 415 
Q 353 922 353 1747 
Q 353 2572 751 3078 
Q 1150 3584 1784 3584 
Q 2172 3584 2448 3432 
Q 2725 3281 2906 2969 
z
M 947 1747 
Q 947 1113 1208 752 
Q 1469 391 1925 391 
Q 2381 391 2643 752 
Q 2906 1113 2906 1747 
Q 2906 2381 2643 2742 
Q 2381 3103 1925 3103 
Q 1469 3103 1208 2742 
Q 947 2381 947 1747 
z
" transform="scale(0.015625)"/>
          <path id="DejaVuSans-65" d="M 3597 1894 
L 3597 1613 
L 953 1613 
Q 991 1019 1311 708 
Q 1631 397 2203 397 
Q 2534 397 2845 478 
Q 3156 559 3463 722 
L 3463 178 
Q 3153 47 2828 -22 
Q 2503 -91 2169 -91 
Q 1331 -91 842 396 
Q 353 884 353 1716 
Q 353 2575 817 3079 
Q 1281 3584 2069 3584 
Q 2775 3584 3186 3129 
Q 3597 2675 3597 1894 
z
M 3022 2063 
Q 3016 2534 2758 2815 
Q 2500 3097 2075 3097 
Q 1594 3097 1305 2825 
Q 1016 2553 972 2059 
L 3022 2063 
z
" transform="scale(0.015625)"/>
          <path id="DejaVuSans-6d" d="M 3328 2828 
Q 3544 3216 3844 3400 
Q 4144 3584 4550 3584 
Q 5097 3584 5394 3201 
Q 5691 2819 5691 2113 
L 5691 0 
L 5113 0 
L 5113 2094 
Q 5113 2597 4934 2840 
Q 4756 3084 4391 3084 
Q 3944 3084 3684 2787 
Q 3425 2491 3425 1978 
L 3425 0 
L 2847 0 
L 2847 2094 
Q 2847 2600 2669 2842 
Q 2491 3084 2119 3084 
Q 1678 3084 1418 2786 
Q 1159 2488 1159 1978 
L 1159 0 
L 581 0 
L 581 3500 
L 1159 3500 
L 1159 2956 
Q 1356 3278 1631 3431 
Q 1906 3584 2284 3584 
Q 2666 3584 2933 3390 
Q 3200 3197 3328 2828 
z
" transform="scale(0.015625)"/>
          <path id="DejaVuSans-30" d="M 2034 4250 
Q 1547 4250 1301 3770 
Q 1056 3291 1056 2328 
Q 1056 1369 1301 889 
Q 1547 409 2034 409 
Q 2525 409 2770 889 
Q 3016 1369 3016 2328 
Q 3016 3291 2770 3770 
Q 2525 4250 2034 4250 
z
M 2034 4750 
Q 2819 4750 3233 4129 
Q 3647 3509 3647 2328 
Q 3647 1150 3233 529 
Q 2819 -91 2034 -91 
Q 1250 -91 836 529 
Q 422 1150 422 2328 
Q 422 3509 836 4129 
Q 1250 4750 2034 4750 
z
" transform="scale(0.015625)"/>
         </defs>
         <use xlink:href="#DejaVuSans-64"/>
         <use xlink:href="#DejaVuSans-65" x="63.476562"/>
         <use xlink:href="#DejaVuSans-6d" x="125"/>
         <use xlink:href="#DejaVuSans-65" x="222.412109"/>
         <use xlink:href="#DejaVuSans-30" x="283.935547"/>
        </g>
       </g>
      </g>
      <g id="xtick_2">
       <g id="line2d_2"/>
       <g id="text_2">
        <!-- deme1 -->
        <g transform="translate(371.68554 271.520312)scale(0.1 -0.1)">
         <defs>
          <path id="DejaVuSans-31" d="M 794 531 
L 1825 531 
L 1825 4091 
L 703 3866 
L 703 4441 
L 1819 4666 
L 2450 4666 
L 2450 531 
L 3481 531 
L 3481 0 
L 794 0 
L 794 531 
z
" transform="scale(0.015625)"/>
         </defs>
         <use xlink:href="#DejaVuSans-64"/>
         <use xlink:href="#DejaVuSans-65" x="63.476562"/>
         <use xlink:href="#DejaVuSans-6d" x="125"/>
         <use xlink:href="#DejaVuSans-65" x="222.412109"/>
         <use xlink:href="#DejaVuSans-31" x="283.935547"/>
        </g>
       </g>
      </g>
     </g>
     <g id="matplotlib.axis_2">
      <g id="ytick_1">
       <g id="line2d_3">
        <defs>
         <path id="mc13644e705" d="M 0 0 
L -3.5 0 
" style="stroke: #000000; stroke-width: 0.8"/>
        </defs>
        <g>
         <use xlink:href="#mc13644e705" x="43.78125" y="260.421875" style="stroke: #000000; stroke-width: 0.8"/>
        </g>
       </g>
       <g id="text_3">
        <!-- 0.0 -->
        <g transform="translate(20.878125 264.221094)scale(0.1 -0.1)">
         <defs>
          <path id="DejaVuSans-2e" d="M 684 794 
L 1344 794 
L 1344 0 
L 684 0 
L 684 794 
z
" transform="scale(0.015625)"/>
         </defs>
         <use xlink:href="#DejaVuSans-30"/>
         <use xlink:href="#DejaVuSans-2e" x="63.623047"/>
         <use xlink:href="#DejaVuSans-30" x="95.410156"/>
        </g>
       </g>
      </g>
      <g id="ytick_2">
       <g id="line2d_4">
        <g>
         <use xlink:href="#mc13644e705" x="43.78125" y="212.801125" style="stroke: #000000; stroke-width: 0.8"/>
        </g>
       </g>
       <g id="text_4">
        <!-- 0.5 -->
        <g transform="translate(20.878125 216.600344)scale(0.1 -0.1)">
         <defs>
          <path id="DejaVuSans-35" d="M 691 4666 
L 3169 4666 
L 3169 4134 
L 1269 4134 
L 1269 2991 
Q 1406 3038 1543 3061 
Q 1681 3084 1819 3084 
Q 2600 3084 3056 2656 
Q 3513 2228 3513 1497 
Q 3513 744 3044 326 
Q 2575 -91 1722 -91 
Q 1428 -91 1123 -41 
Q 819 9 494 109 
L 494 744 
Q 775 591 1075 516 
Q 1375 441 1709 441 
Q 2250 441 2565 725 
Q 2881 1009 2881 1497 
Q 2881 1984 2565 2268 
Q 2250 2553 1709 2553 
Q 1456 2553 1204 2497 
Q 953 2441 691 2322 
L 691 4666 
z
" transform="scale(0.015625)"/>
         </defs>
         <use xlink:href="#DejaVuSans-30"/>
         <use xlink:href="#DejaVuSans-2e" x="63.623047"/>
         <use xlink:href="#DejaVuSans-35" x="95.410156"/>
        </g>
       </g>
      </g>
      <g id="ytick_3">
       <g id="line2d_5">
        <g>
         <use xlink:href="#mc13644e705" x="43.78125" y="165.180375" style="stroke: #000000; stroke-width: 0.8"/>
        </g>
       </g>
       <g id="text_5">
        <!-- 1.0 -->
        <g transform="translate(20.878125 168.979594)scale(0.1 -0.1)">
         <use xlink:href="#DejaVuSans-31"/>
         <use xlink:href="#DejaVuSans-2e" x="63.623047"/>
         <use xlink:href="#DejaVuSans-30" x="95.410156"/>
        </g>
       </g>
      </g>
      <g id="ytick_4">
       <g id="line2d_6">
        <g>
         <use xlink:href="#mc13644e705" x="43.78125" y="117.559625" style="stroke: #000000; stroke-width: 0.8"/>
        </g>
       </g>
       <g id="text_6">
        <!-- 1.5 -->
        <g transform="translate(20.878125 121.358844)scale(0.1 -0.1)">
         <use xlink:href="#DejaVuSans-31"/>
         <use xlink:href="#DejaVuSans-2e" x="63.623047"/>
         <use xlink:href="#DejaVuSans-35" x="95.410156"/>
        </g>
       </g>
      </g>
      <g id="ytick_5">
       <g id="line2d_7">
        <g>
         <use xlink:href="#mc13644e705" x="43.78125" y="69.938875" style="stroke: #000000; stroke-width: 0.8"/>
        </g>
       </g>
       <g id="text_7">
        <!-- 2.0 -->
        <g transform="translate(20.878125 73.738094)scale(0.1 -0.1)">
         <defs>
          <path id="DejaVuSans-32" d="M 1228 531 
L 3431 531 
L 3431 0 
L 469 0 
L 469 531 
Q 828 903 1448 1529 
Q 2069 2156 2228 2338 
Q 2531 2678 2651 2914 
Q 2772 3150 2772 3378 
Q 2772 3750 2511 3984 
Q 2250 4219 1831 4219 
Q 1534 4219 1204 4116 
Q 875 4013 500 3803 
L 500 4441 
Q 881 4594 1212 4672 
Q 1544 4750 1819 4750 
Q 2544 4750 2975 4387 
Q 3406 4025 3406 3419 
Q 3406 3131 3298 2873 
Q 3191 2616 2906 2266 
Q 2828 2175 2409 1742 
Q 1991 1309 1228 531 
z
" transform="scale(0.015625)"/>
         </defs>
         <use xlink:href="#DejaVuSans-32"/>
         <use xlink:href="#DejaVuSans-2e" x="63.623047"/>
         <use xlink:href="#DejaVuSans-30" x="95.410156"/>
        </g>
       </g>
      </g>
      <g id="ytick_6">
       <g id="line2d_8">
        <g>
         <use xlink:href="#mc13644e705" x="43.78125" y="22.318125" style="stroke: #000000; stroke-width: 0.8"/>
        </g>
       </g>
       <g id="text_8">
        <!-- 2.5 -->
        <g transform="translate(20.878125 26.117344)scale(0.1 -0.1)">
         <use xlink:href="#DejaVuSans-32"/>
         <use xlink:href="#DejaVuSans-2e" x="63.623047"/>
         <use xlink:href="#DejaVuSans-35" x="95.410156"/>
        </g>
       </g>
      </g>
      <g id="text_9">
       <!-- time ago (generations) -->
       <g transform="translate(14.798438 198.841094)rotate(-90)scale(0.1 -0.1)">
        <defs>
         <path id="DejaVuSans-74" d="M 1172 4494 
L 1172 3500 
L 2356 3500 
L 2356 3053 
L 1172 3053 
L 1172 1153 
Q 1172 725 1289 603 
Q 1406 481 1766 481 
L 2356 481 
L 2356 0 
L 1766 0 
Q 1100 0 847 248 
Q 594 497 594 1153 
L 594 3053 
L 172 3053 
L 172 3500 
L 594 3500 
L 594 4494 
L 1172 4494 
z
" transform="scale(0.015625)"/>
         <path id="DejaVuSans-69" d="M 603 3500 
L 1178 3500 
L 1178 0 
L 603 0 
L 603 3500 
z
M 603 4863 
L 1178 4863 
L 1178 4134 
L 603 4134 
L 603 4863 
z
" transform="scale(0.015625)"/>
         <path id="DejaVuSans-20" transform="scale(0.015625)"/>
         <path id="DejaVuSans-61" d="M 2194 1759 
Q 1497 1759 1228 1600 
Q 959 1441 959 1056 
Q 959 750 1161 570 
Q 1363 391 1709 391 
Q 2188 391 2477 730 
Q 2766 1069 2766 1631 
L 2766 1759 
L 2194 1759 
z
M 3341 1997 
L 3341 0 
L 2766 0 
L 2766 531 
Q 2569 213 2275 61 
Q 1981 -91 1556 -91 
Q 1019 -91 701 211 
Q 384 513 384 1019 
Q 384 1609 779 1909 
Q 1175 2209 1959 2209 
L 2766 2209 
L 2766 2266 
Q 2766 2663 2505 2880 
Q 2244 3097 1772 3097 
Q 1472 3097 1187 3025 
Q 903 2953 641 2809 
L 641 3341 
Q 956 3463 1253 3523 
Q 1550 3584 1831 3584 
Q 2591 3584 2966 3190 
Q 3341 2797 3341 1997 
z
" transform="scale(0.015625)"/>
         <path id="DejaVuSans-67" d="M 2906 1791 
Q 2906 2416 2648 2759 
Q 2391 3103 1925 3103 
Q 1463 3103 1205 2759 
Q 947 2416 947 1791 
Q 947 1169 1205 825 
Q 1463 481 1925 481 
Q 2391 481 2648 825 
Q 2906 1169 2906 1791 
z
M 3481 434 
Q 3481 -459 3084 -895 
Q 2688 -1331 1869 -1331 
Q 1566 -1331 1297 -1286 
Q 1028 -1241 775 -1147 
L 775 -588 
Q 1028 -725 1275 -790 
Q 1522 -856 1778 -856 
Q 2344 -856 2625 -561 
Q 2906 -266 2906 331 
L 2906 616 
Q 2728 306 2450 153 
Q 2172 0 1784 0 
Q 1141 0 747 490 
Q 353 981 353 1791 
Q 353 2603 747 3093 
Q 1141 3584 1784 3584 
Q 2172 3584 2450 3431 
Q 2728 3278 2906 2969 
L 2906 3500 
L 3481 3500 
L 3481 434 
z
" transform="scale(0.015625)"/>
         <path id="DejaVuSans-6f" d="M 1959 3097 
Q 1497 3097 1228 2736 
Q 959 2375 959 1747 
Q 959 1119 1226 758 
Q 1494 397 1959 397 
Q 2419 397 2687 759 
Q 2956 1122 2956 1747 
Q 2956 2369 2687 2733 
Q 2419 3097 1959 3097 
z
M 1959 3584 
Q 2709 3584 3137 3096 
Q 3566 2609 3566 1747 
Q 3566 888 3137 398 
Q 2709 -91 1959 -91 
Q 1206 -91 779 398 
Q 353 888 353 1747 
Q 353 2609 779 3096 
Q 1206 3584 1959 3584 
z
" transform="scale(0.015625)"/>
         <path id="DejaVuSans-28" d="M 1984 4856 
Q 1566 4138 1362 3434 
Q 1159 2731 1159 2009 
Q 1159 1288 1364 580 
Q 1569 -128 1984 -844 
L 1484 -844 
Q 1016 -109 783 600 
Q 550 1309 550 2009 
Q 550 2706 781 3412 
Q 1013 4119 1484 4856 
L 1984 4856 
z
" transform="scale(0.015625)"/>
         <path id="DejaVuSans-6e" d="M 3513 2113 
L 3513 0 
L 2938 0 
L 2938 2094 
Q 2938 2591 2744 2837 
Q 2550 3084 2163 3084 
Q 1697 3084 1428 2787 
Q 1159 2491 1159 1978 
L 1159 0 
L 581 0 
L 581 3500 
L 1159 3500 
L 1159 2956 
Q 1366 3272 1645 3428 
Q 1925 3584 2291 3584 
Q 2894 3584 3203 3211 
Q 3513 2838 3513 2113 
z
" transform="scale(0.015625)"/>
         <path id="DejaVuSans-72" d="M 2631 2963 
Q 2534 3019 2420 3045 
Q 2306 3072 2169 3072 
Q 1681 3072 1420 2755 
Q 1159 2438 1159 1844 
L 1159 0 
L 581 0 
L 581 3500 
L 1159 3500 
L 1159 2956 
Q 1341 3275 1631 3429 
Q 1922 3584 2338 3584 
Q 2397 3584 2469 3576 
Q 2541 3569 2628 3553 
L 2631 2963 
z
" transform="scale(0.015625)"/>
         <path id="DejaVuSans-73" d="M 2834 3397 
L 2834 2853 
Q 2591 2978 2328 3040 
Q 2066 3103 1784 3103 
Q 1356 3103 1142 2972 
Q 928 2841 928 2578 
Q 928 2378 1081 2264 
Q 1234 2150 1697 2047 
L 1894 2003 
Q 2506 1872 2764 1633 
Q 3022 1394 3022 966 
Q 3022 478 2636 193 
Q 2250 -91 1575 -91 
Q 1294 -91 989 -36 
Q 684 19 347 128 
L 347 722 
Q 666 556 975 473 
Q 1284 391 1588 391 
Q 1994 391 2212 530 
Q 2431 669 2431 922 
Q 2431 1156 2273 1281 
Q 2116 1406 1581 1522 
L 1381 1569 
Q 847 1681 609 1914 
Q 372 2147 372 2553 
Q 372 3047 722 3315 
Q 1072 3584 1716 3584 
Q 2034 3584 2315 3537 
Q 2597 3491 2834 3397 
z
" transform="scale(0.015625)"/>
         <path id="DejaVuSans-29" d="M 513 4856 
L 1013 4856 
Q 1481 4119 1714 3412 
Q 1947 2706 1947 2009 
Q 1947 1309 1714 600 
Q 1481 -109 1013 -844 
L 513 -844 
Q 928 -128 1133 580 
Q 1338 1288 1338 2009 
Q 1338 2731 1133 3434 
Q 928 4138 513 4856 
z
" transform="scale(0.015625)"/>
        </defs>
        <use xlink:href="#DejaVuSans-74"/>
        <use xlink:href="#DejaVuSans-69" x="39.208984"/>
        <use xlink:href="#DejaVuSans-6d" x="66.992188"/>
        <use xlink:href="#DejaVuSans-65" x="164.404297"/>
        <use xlink:href="#DejaVuSans-20" x="225.927734"/>
        <use xlink:href="#DejaVuSans-61" x="257.714844"/>
        <use xlink:href="#DejaVuSans-67" x="318.994141"/>
        <use xlink:href="#DejaVuSans-6f" x="382.470703"/>
        <use xlink:href="#DejaVuSans-20" x="443.652344"/>
        <use xlink:href="#DejaVuSans-28" x="475.439453"/>
        <use xlink:href="#DejaVuSans-67" x="514.453125"/>
        <use xlink:href="#DejaVuSans-65" x="577.929688"/>
        <use xlink:href="#DejaVuSans-6e" x="639.453125"/>
        <use xlink:href="#DejaVuSans-65" x="702.832031"/>
        <use xlink:href="#DejaVuSans-72" x="764.355469"/>
        <use xlink:href="#DejaVuSans-61" x="805.46875"/>
        <use xlink:href="#DejaVuSans-74" x="866.748047"/>
        <use xlink:href="#DejaVuSans-69" x="905.957031"/>
        <use xlink:href="#DejaVuSans-6f" x="933.740234"/>
        <use xlink:href="#DejaVuSans-6e" x="994.921875"/>
        <use xlink:href="#DejaVuSans-73" x="1058.300781"/>
        <use xlink:href="#DejaVuSans-29" x="1110.400391"/>
       </g>
      </g>
     </g>
     <path d="M 297.618831 106.123429 
L 295.618831 105.123429 
L 295.618831 107.123429 
z
" clip-path="url(#p6ccc102a93)" style="fill: #1f77b4; fill-opacity: 0.5; stroke: #1f77b4; stroke-opacity: 0.5; stroke-linejoin: miter"/>
     <path d="M 297.618831 113.118881 
L 295.618831 112.118881 
L 295.618831 114.118881 
z
" clip-path="url(#p6ccc102a93)" style="fill: #1f77b4; fill-opacity: 0.5; stroke: #1f77b4; stroke-opacity: 0.5; stroke-linejoin: miter"/>
     <path d="M 297.618831 73.733969 
L 295.618831 72.733969 
L 295.618831 74.733969 
z
" clip-path="url(#p6ccc102a93)" style="fill: #1f77b4; fill-opacity: 0.5; stroke: #1f77b4; stroke-opacity: 0.5; stroke-linejoin: miter"/>
     <path d="M 297.618831 155.634143 
L 295.618831 154.634143 
L 295.618831 156.634143 
z
" clip-path="url(#p6ccc102a93)" style="fill: #1f77b4; fill-opacity: 0.5; stroke: #1f77b4; stroke-opacity: 0.5; stroke-linejoin: miter"/>
     <path d="M 297.618831 119.299183 
L 295.618831 118.299183 
L 295.618831 120.299183 
z
" clip-path="url(#p6ccc102a93)" style="fill: #1f77b4; fill-opacity: 0.5; stroke: #1f77b4; stroke-opacity: 0.5; stroke-linejoin: miter"/>
     <path d="M 297.618831 72.587292 
L 295.618831 71.587292 
L 295.618831 73.587292 
z
" clip-path="url(#p6ccc102a93)" style="fill: #1f77b4; fill-opacity: 0.5; stroke: #1f77b4; stroke-opacity: 0.5; stroke-linejoin: miter"/>
     <path d="M 297.618831 146.113498 
L 295.618831 145.113498 
L 295.618831 147.113498 
z
" clip-path="url(#p6ccc102a93)" style="fill: #1f77b4; fill-opacity: 0.5; stroke: #1f77b4; stroke-opacity: 0.5; stroke-linejoin: miter"/>
     <path d="M 297.618831 78.890173 
L 295.618831 77.890173 
L 295.618831 79.890173 
z
" clip-path="url(#p6ccc102a93)" style="fill: #1f77b4; fill-opacity: 0.5; stroke: #1f77b4; stroke-opacity: 0.5; stroke-linejoin: miter"/>
     <path d="M 297.618831 70.949872 
L 295.618831 69.949872 
L 295.618831 71.949872 
z
" clip-path="url(#p6ccc102a93)" style="fill: #1f77b4; fill-opacity: 0.5; stroke: #1f77b4; stroke-opacity: 0.5; stroke-linejoin: miter"/>
     <path d="M 297.618831 139.101945 
L 295.618831 138.101945 
L 295.618831 140.101945 
z
" clip-path="url(#p6ccc102a93)" style="fill: #1f77b4; fill-opacity: 0.5; stroke: #1f77b4; stroke-opacity: 0.5; stroke-linejoin: miter"/>
     <path d="M 297.618831 220.172782 
L 295.618831 219.172782 
L 295.618831 221.172782 
z
" clip-path="url(#p6ccc102a93)" style="fill: #1f77b4; fill-opacity: 0.5; stroke: #1f77b4; stroke-opacity: 0.5; stroke-linejoin: miter"/>
     <path d="M 297.618831 234.471142 
L 295.618831 233.471142 
L 295.618831 235.471142 
z
" clip-path="url(#p6ccc102a93)" style="fill: #1f77b4; fill-opacity: 0.5; stroke: #1f77b4; stroke-opacity: 0.5; stroke-linejoin: miter"/>
     <path d="M 297.618831 228.195784 
L 295.618831 227.195784 
L 295.618831 229.195784 
z
" clip-path="url(#p6ccc102a93)" style="fill: #1f77b4; fill-opacity: 0.5; stroke: #1f77b4; stroke-opacity: 0.5; stroke-linejoin: miter"/>
     <path d="M 297.618831 170.257327 
L 295.618831 169.257327 
L 295.618831 171.257327 
z
" clip-path="url(#p6ccc102a93)" style="fill: #1f77b4; fill-opacity: 0.5; stroke: #1f77b4; stroke-opacity: 0.5; stroke-linejoin: miter"/>
     <path d="M 297.618831 244.696339 
L 295.618831 243.696339 
L 295.618831 245.696339 
z
" clip-path="url(#p6ccc102a93)" style="fill: #1f77b4; fill-opacity: 0.5; stroke: #1f77b4; stroke-opacity: 0.5; stroke-linejoin: miter"/>
     <path d="M 297.618831 189.702804 
L 295.618831 188.702804 
L 295.618831 190.702804 
z
" clip-path="url(#p6ccc102a93)" style="fill: #1f77b4; fill-opacity: 0.5; stroke: #1f77b4; stroke-opacity: 0.5; stroke-linejoin: miter"/>
     <path d="M 297.618831 225.86857 
L 295.618831 224.86857 
L 295.618831 226.86857 
z
" clip-path="url(#p6ccc102a93)" style="fill: #1f77b4; fill-opacity: 0.5; stroke: #1f77b4; stroke-opacity: 0.5; stroke-linejoin: miter"/>
     <path d="M 297.618831 179.306783 
L 295.618831 178.306783 
L 295.618831 180.306783 
z
" clip-path="url(#p6ccc102a93)" style="fill: #1f77b4; fill-opacity: 0.5; stroke: #1f77b4; stroke-opacity: 0.5; stroke-linejoin: miter"/>
     <path d="M 297.618831 232.10614 
L 295.618831 231.10614 
L 295.618831 233.10614 
z
" clip-path="url(#p6ccc102a93)" style="fill: #1f77b4; fill-opacity: 0.5; stroke: #1f77b4; stroke-opacity: 0.5; stroke-linejoin: miter"/>
     <path d="M 297.618831 212.122307 
L 295.618831 211.122307 
L 295.618831 213.122307 
z
" clip-path="url(#p6ccc102a93)" style="fill: #1f77b4; fill-opacity: 0.5; stroke: #1f77b4; stroke-opacity: 0.5; stroke-linejoin: miter"/>
     <g id="patch_5">
      <path d="M 43.78125 260.421875 
L 43.78125 22.318125 
" style="fill: none; stroke: #000000; stroke-width: 0.8; stroke-linejoin: miter; stroke-linecap: square"/>
     </g>
     <g id="text_10">
      <!-- defaults_asymmetric_migration_changing_rate.yaml -->
      <g transform="translate(113.475625 16.318125)scale(0.12 -0.12)">
       <defs>
        <path id="DejaVuSans-66" d="M 2375 4863 
L 2375 4384 
L 1825 4384 
Q 1516 4384 1395 4259 
Q 1275 4134 1275 3809 
L 1275 3500 
L 2222 3500 
L 2222 3053 
L 1275 3053 
L 1275 0 
L 697 0 
L 697 3053 
L 147 3053 
L 147 3500 
L 697 3500 
L 697 3744 
Q 697 4328 969 4595 
Q 1241 4863 1831 4863 
L 2375 4863 
z
" transform="scale(0.015625)"/>
        <path id="DejaVuSans-75" d="M 544 1381 
L 544 3500 
L 1119 3500 
L 1119 1403 
Q 1119 906 1312 657 
Q 1506 409 1894 409 
Q 2359 409 2629 706 
Q 2900 1003 2900 1516 
L 2900 3500 
L 3475 3500 
L 3475 0 
L 2900 0 
L 2900 538 
Q 2691 219 2414 64 
Q 2138 -91 1772 -91 
Q 1169 -91 856 284 
Q 544 659 544 1381 
z
M 1991 3584 
L 1991 3584 
z
" transform="scale(0.015625)"/>
        <path id="DejaVuSans-6c" d="M 603 4863 
L 1178 4863 
L 1178 0 
L 603 0 
L 603 4863 
z
" transform="scale(0.015625)"/>
        <path id="DejaVuSans-5f" d="M 3263 -1063 
L 3263 -1509 
L -63 -1509 
L -63 -1063 
L 3263 -1063 
z
" transform="scale(0.015625)"/>
        <path id="DejaVuSans-79" d="M 2059 -325 
Q 1816 -950 1584 -1140 
Q 1353 -1331 966 -1331 
L 506 -1331 
L 506 -850 
L 844 -850 
Q 1081 -850 1212 -737 
Q 1344 -625 1503 -206 
L 1606 56 
L 191 3500 
L 800 3500 
L 1894 763 
L 2988 3500 
L 3597 3500 
L 2059 -325 
z
" transform="scale(0.015625)"/>
        <path id="DejaVuSans-63" d="M 3122 3366 
L 3122 2828 
Q 2878 2963 2633 3030 
Q 2388 3097 2138 3097 
Q 1578 3097 1268 2742 
Q 959 2388 959 1747 
Q 959 1106 1268 751 
Q 1578 397 2138 397 
Q 2388 397 2633 464 
Q 2878 531 3122 666 
L 3122 134 
Q 2881 22 2623 -34 
Q 2366 -91 2075 -91 
Q 1284 -91 818 406 
Q 353 903 353 1747 
Q 353 2603 823 3093 
Q 1294 3584 2113 3584 
Q 2378 3584 2631 3529 
Q 2884 3475 3122 3366 
z
" transform="scale(0.015625)"/>
        <path id="DejaVuSans-68" d="M 3513 2113 
L 3513 0 
L 2938 0 
L 2938 2094 
Q 2938 2591 2744 2837 
Q 2550 3084 2163 3084 
Q 1697 3084 1428 2787 
Q 1159 2491 1159 1978 
L 1159 0 
L 581 0 
L 581 4863 
L 1159 4863 
L 1159 2956 
Q 1366 3272 1645 3428 
Q 1925 3584 2291 3584 
Q 2894 3584 3203 3211 
Q 3513 2838 3513 2113 
z
" transform="scale(0.015625)"/>
       </defs>
       <use xlink:href="#DejaVuSans-64"/>
       <use xlink:href="#DejaVuSans-65" x="63.476562"/>
       <use xlink:href="#DejaVuSans-66" x="125"/>
       <use xlink:href="#DejaVuSans-61" x="160.205078"/>
       <use xlink:href="#DejaVuSans-75" x="221.484375"/>
       <use xlink:href="#DejaVuSans-6c" x="284.863281"/>
       <use xlink:href="#DejaVuSans-74" x="312.646484"/>
       <use xlink:href="#DejaVuSans-73" x="351.855469"/>
       <use xlink:href="#DejaVuSans-5f" x="403.955078"/>
       <use xlink:href="#DejaVuSans-61" x="453.955078"/>
       <use xlink:href="#DejaVuSans-73" x="515.234375"/>
       <use xlink:href="#DejaVuSans-79" x="567.333984"/>
       <use xlink:href="#DejaVuSans-6d" x="626.513672"/>
       <use xlink:href="#DejaVuSans-6d" x="723.925781"/>
       <use xlink:href="#DejaVuSans-65" x="821.337891"/>
       <use xlink:href="#DejaVuSans-74" x="882.861328"/>
       <use xlink:href="#DejaVuSans-72" x="922.070312"/>
       <use xlink:href="#DejaVuSans-69" x="963.183594"/>
       <use xlink:href="#DejaVuSans-63" x="990.966797"/>
       <use xlink:href="#DejaVuSans-5f" x="1045.947266"/>
       <use xlink:href="#DejaVuSans-6d" x="1095.947266"/>
       <use xlink:href="#DejaVuSans-69" x="1193.359375"/>
       <use xlink:href="#DejaVuSans-67" x="1221.142578"/>
       <use xlink:href="#DejaVuSans-72" x="1284.619141"/>
       <use xlink:href="#DejaVuSans-61" x="1325.732422"/>
       <use xlink:href="#DejaVuSans-74" x="1387.011719"/>
       <use xlink:href="#DejaVuSans-69" x="1426.220703"/>
       <use xlink:href="#DejaVuSans-6f" x="1454.003906"/>
       <use xlink:href="#DejaVuSans-6e" x="1515.185547"/>
       <use xlink:href="#DejaVuSans-5f" x="1578.564453"/>
       <use xlink:href="#DejaVuSans-63" x="1628.564453"/>
       <use xlink:href="#DejaVuSans-68" x="1683.544922"/>
       <use xlink:href="#DejaVuSans-61" x="1746.923828"/>
       <use xlink:href="#DejaVuSans-6e" x="1808.203125"/>
       <use xlink:href="#DejaVuSans-67" x="1871.582031"/>
       <use xlink:href="#DejaVuSans-69" x="1935.058594"/>
       <use xlink:href="#DejaVuSans-6e" x="1962.841797"/>
       <use xlink:href="#DejaVuSans-67" x="2026.220703"/>
       <use xlink:href="#DejaVuSans-5f" x="2089.697266"/>
       <use xlink:href="#DejaVuSans-72" x="2139.697266"/>
       <use xlink:href="#DejaVuSans-61" x="2180.810547"/>
       <use xlink:href="#DejaVuSans-74" x="2242.089844"/>
       <use xlink:href="#DejaVuSans-65" x="2281.298828"/>
       <use xlink:href="#DejaVuSans-2e" x="2342.822266"/>
       <use xlink:href="#DejaVuSans-79" x="2374.609375"/>
       <use xlink:href="#DejaVuSans-61" x="2433.789062"/>
       <use xlink:href="#DejaVuSans-6d" x="2495.068359"/>
       <use xlink:href="#DejaVuSans-6c" x="2592.480469"/>
      </g>
     </g>
    </g>
   </g>
   <defs>
    <clipPath id="p6ccc102a93">
     <rect x="43.78125" y="22.318125" width="453.81875" height="238.10375"/>
    </clipPath>
   </defs>
  </g>
 </g>
</svg>
