<?xml version="1.0" encoding="utf-8" standalone="no"?>
<!DOCTYPE svg PUBLIC "-//W3C//DTD SVG 1.1//EN"
  "http://www.w3.org/Graphics/SVG/1.1/DTD/svg11.dtd">
<svg xmlns:xlink="http://www.w3.org/1999/xlink" width="504.8pt" height="280.8pt" viewBox="0 0 504.8 280.8" xmlns="http://www.w3.org/2000/svg" version="1.1">
 <metadata>
  <rdf:RDF xmlns:dc="http://purl.org/dc/elements/1.1/" xmlns:cc="http://creativecommons.org/ns#" xmlns:rdf="http://www.w3.org/1999/02/22-rdf-syntax-ns#">
   <cc:Work>
    <dc:type rdf:resource="http://purl.org/dc/dcmitype/StillImage"/>
    <dc:date>2022-05-02T08:20:53.662986</dc:date>
    <dc:format>image/svg+xml</dc:format>
    <dc:creator>
     <cc:Agent>
      <dc:title>Matplotlib v3.5.1, https://matplotlib.org/</dc:title>
     </cc:Agent>
    </dc:creator>
   </cc:Work>
  </rdf:RDF>
 </metadata>
 <defs>
  <style type="text/css">*{stroke-linejoin: round; stroke-linecap: butt}</style>
 </defs>
 <g id="figure_1">
  <g id="patch_1">
   <path d="M 0 280.8 
L 504.8 280.8 
L 504.8 0 
L 0 0 
L 0 280.8 
z
" style="fill: none"/>
  </g>
  <g id="axes_1">
   <g id="patch_2">
    <path d="M 43.78125 260.421875 
L 497.6 260.421875 
L 497.6 22.318125 
L 43.78125 22.318125 
z
" style="fill: #ffffff"/>
   </g>
   <path d="M 296.618831 72.547148 
L 295.618831 72.515712 
L 294.618831 72.478772 
L 293.618831 72.381025 
L 292.618831 72.348503 
L 291.618831 72.274879 
L 290.618831 72.236313 
L 289.618831 72.2009 
L 288.618831 72.14326 
L 287.618831 72.072874 
L 286.618831 72.02091 
L 285.618831 71.96182 
L 284.618831 71.873499 
L 283.618831 71.827355 
L 282.618831 71.784944 
L 281.618831 71.754451 
L 280.618831 71.728406 
L 279.618831 71.707206 
L 278.618831 71.652905 
L 277.618831 71.624967 
L 276.618831 71.595243 
L 275.618831 71.569849 
L 274.618831 71.558648 
L 273.618831 71.548524 
L 272.618831 71.548729 
L 271.618831 71.558238 
L 270.618831 71.569892 
L 269.618831 71.600921 
L 268.618831 71.612089 
L 267.618831 71.642207 
L 266.618831 71.701984 
L 265.618831 71.739175 
L 264.618831 71.778271 
L 263.618831 71.820711 
L 262.618831 71.853476 
L 261.618831 71.920903 
L 260.618831 71.960028 
L 259.618831 72.002703 
L 258.618831 72.073284 
L 257.618831 72.109674 
L 256.618831 72.168078 
L 255.618831 72.27903 
L 254.618831 72.349688 
L 253.618831 72.462628 
L 252.618831 72.508401 
L 251.618831 72.569684 
L 250.618831 72.618184 
L 249.618831 72.699006 
L 248.618831 72.817525 
L 247.618831 72.887736 
L 246.618831 72.970998 
L 244.762419 73.00414 
" clip-path="url(#pcfe69cb0fe)" style="fill: none; stroke: #ff7f0e; stroke-opacity: 0.5; stroke-width: 0.2; stroke-linecap: square"/>
   <path d="M 296.618831 101.726968 
L 295.618831 101.695531 
L 294.618831 101.658591 
L 293.618831 101.560844 
L 292.618831 101.528323 
L 291.618831 101.454698 
L 290.618831 101.416133 
L 289.618831 101.380719 
L 288.618831 101.323079 
L 287.618831 101.252693 
L 286.618831 101.200729 
L 285.618831 101.141639 
L 284.618831 101.053318 
L 283.618831 101.007174 
L 282.618831 100.964763 
L 281.618831 100.93427 
L 280.618831 100.908226 
L 279.618831 100.887025 
L 278.618831 100.832724 
L 277.618831 100.804787 
L 276.618831 100.775063 
L 275.618831 100.749668 
L 274.618831 100.738468 
L 273.618831 100.728344 
L 272.618831 100.728548 
L 271.618831 100.738058 
L 270.618831 100.749711 
L 269.618831 100.780741 
L 268.618831 100.791909 
L 267.618831 100.822026 
L 266.618831 100.881803 
L 265.618831 100.918995 
L 264.618831 100.958091 
L 263.618831 101.00053 
L 262.618831 101.033295 
L 261.618831 101.100722 
L 260.618831 101.139848 
L 259.618831 101.182522 
L 258.618831 101.253103 
L 257.618831 101.289494 
L 256.618831 101.347897 
L 255.618831 101.45885 
L 254.618831 101.529508 
L 253.618831 101.642448 
L 252.618831 101.688221 
L 251.618831 101.749504 
L 250.618831 101.798003 
L 249.618831 101.878826 
L 248.618831 101.997345 
L 247.618831 102.067555 
L 246.618831 102.150818 
L 244.762419 102.18396 
" clip-path="url(#pcfe69cb0fe)" style="fill: none; stroke: #ff7f0e; stroke-opacity: 0.5; stroke-width: 0.2; stroke-linecap: square"/>
   <path d="M 296.618831 73.325527 
L 295.618831 73.294091 
L 294.618831 73.25715 
L 293.618831 73.159404 
L 292.618831 73.126882 
L 291.618831 73.053257 
L 290.618831 73.014692 
L 289.618831 72.979279 
L 288.618831 72.921639 
L 287.618831 72.851253 
L 286.618831 72.799288 
L 285.618831 72.740199 
L 284.618831 72.651878 
L 283.618831 72.605733 
L 282.618831 72.563322 
L 281.618831 72.53283 
L 280.618831 72.506785 
L 279.618831 72.485585 
L 278.618831 72.431284 
L 277.618831 72.403346 
L 276.618831 72.373622 
L 275.618831 72.348227 
L 274.618831 72.337027 
L 273.618831 72.326903 
L 272.618831 72.327107 
L 271.618831 72.336617 
L 270.618831 72.348271 
L 269.618831 72.3793 
L 268.618831 72.390468 
L 267.618831 72.420585 
L 266.618831 72.480362 
L 265.618831 72.517554 
L 264.618831 72.55665 
L 263.618831 72.59909 
L 262.618831 72.631855 
L 261.618831 72.699281 
L 260.618831 72.738407 
L 259.618831 72.781082 
L 258.618831 72.851662 
L 257.618831 72.888053 
L 256.618831 72.946456 
L 255.618831 73.057409 
L 254.618831 73.128067 
L 253.618831 73.241007 
L 252.618831 73.28678 
L 251.618831 73.348063 
L 250.618831 73.396562 
L 249.618831 73.477385 
L 248.618831 73.595904 
L 247.618831 73.666115 
L 246.618831 73.749377 
L 244.762419 73.782519 
" clip-path="url(#pcfe69cb0fe)" style="fill: none; stroke: #ff7f0e; stroke-opacity: 0.5; stroke-width: 0.2; stroke-linecap: square"/>
   <path d="M 296.618831 153.923616 
L 295.618831 153.89218 
L 294.618831 153.85524 
L 293.618831 153.757493 
L 292.618831 153.724971 
L 291.618831 153.651347 
L 290.618831 153.612781 
L 289.618831 153.577368 
L 288.618831 153.519728 
L 287.618831 153.449342 
L 286.618831 153.397378 
L 285.618831 153.338288 
L 284.618831 153.249967 
L 283.618831 153.203823 
L 282.618831 153.161412 
L 281.618831 153.130919 
L 280.618831 153.104874 
L 279.618831 153.083674 
L 278.618831 153.029373 
L 277.618831 153.001435 
L 276.618831 152.971711 
L 275.618831 152.946317 
L 274.618831 152.935116 
L 273.618831 152.924992 
L 272.618831 152.925197 
L 271.618831 152.934706 
L 270.618831 152.94636 
L 269.618831 152.977389 
L 268.618831 152.988557 
L 267.618831 153.018675 
L 266.618831 153.078452 
L 265.618831 153.115643 
L 264.618831 153.154739 
L 263.618831 153.197179 
L 262.618831 153.229944 
L 261.618831 153.29737 
L 260.618831 153.336496 
L 259.618831 153.379171 
L 258.618831 153.449752 
L 257.618831 153.486142 
L 256.618831 153.544546 
L 255.618831 153.655498 
L 254.618831 153.726156 
L 253.618831 153.839096 
L 252.618831 153.884869 
L 251.618831 153.946152 
L 250.618831 153.994652 
L 249.618831 154.075474 
L 248.618831 154.193993 
L 247.618831 154.264204 
L 246.618831 154.347466 
L 244.762419 154.380608 
" clip-path="url(#pcfe69cb0fe)" style="fill: none; stroke: #ff7f0e; stroke-opacity: 0.5; stroke-width: 0.2; stroke-linecap: square"/>
   <path d="M 296.618831 88.757806 
L 295.618831 88.72637 
L 294.618831 88.689429 
L 293.618831 88.591683 
L 292.618831 88.559161 
L 291.618831 88.485537 
L 290.618831 88.446971 
L 289.618831 88.411558 
L 288.618831 88.353918 
L 287.618831 88.283532 
L 286.618831 88.231568 
L 285.618831 88.172478 
L 284.618831 88.084157 
L 283.618831 88.038013 
L 282.618831 87.995602 
L 281.618831 87.965109 
L 280.618831 87.939064 
L 279.618831 87.917864 
L 278.618831 87.863563 
L 277.618831 87.835625 
L 276.618831 87.805901 
L 275.618831 87.780506 
L 274.618831 87.769306 
L 273.618831 87.759182 
L 272.618831 87.759386 
L 271.618831 87.768896 
L 270.618831 87.78055 
L 269.618831 87.811579 
L 268.618831 87.822747 
L 267.618831 87.852865 
L 266.618831 87.912642 
L 265.618831 87.949833 
L 264.618831 87.988929 
L 263.618831 88.031369 
L 262.618831 88.064134 
L 261.618831 88.13156 
L 260.618831 88.170686 
L 259.618831 88.213361 
L 258.618831 88.283941 
L 257.618831 88.320332 
L 256.618831 88.378735 
L 255.618831 88.489688 
L 254.618831 88.560346 
L 253.618831 88.673286 
L 252.618831 88.719059 
L 251.618831 88.780342 
L 250.618831 88.828842 
L 249.618831 88.909664 
L 248.618831 89.028183 
L 247.618831 89.098394 
L 246.618831 89.181656 
L 244.762419 89.214798 
" clip-path="url(#pcfe69cb0fe)" style="fill: none; stroke: #ff7f0e; stroke-opacity: 0.5; stroke-width: 0.2; stroke-linecap: square"/>
   <path d="M 296.618831 129.826297 
L 295.618831 129.79486 
L 294.618831 129.75792 
L 293.618831 129.660173 
L 292.618831 129.627652 
L 291.618831 129.554027 
L 290.618831 129.515461 
L 289.618831 129.480048 
L 288.618831 129.422408 
L 287.618831 129.352022 
L 286.618831 129.300058 
L 285.618831 129.240968 
L 284.618831 129.152647 
L 283.618831 129.106503 
L 282.618831 129.064092 
L 281.618831 129.033599 
L 280.618831 129.007554 
L 279.618831 128.986354 
L 278.618831 128.932053 
L 277.618831 128.904116 
L 276.618831 128.874392 
L 275.618831 128.848997 
L 274.618831 128.837796 
L 273.618831 128.827673 
L 272.618831 128.827877 
L 271.618831 128.837387 
L 270.618831 128.84904 
L 269.618831 128.88007 
L 268.618831 128.891237 
L 267.618831 128.921355 
L 266.618831 128.981132 
L 265.618831 129.018323 
L 264.618831 129.05742 
L 263.618831 129.099859 
L 262.618831 129.132624 
L 261.618831 129.200051 
L 260.618831 129.239177 
L 259.618831 129.281851 
L 258.618831 129.352432 
L 257.618831 129.388823 
L 256.618831 129.447226 
L 255.618831 129.558178 
L 254.618831 129.628837 
L 253.618831 129.741777 
L 252.618831 129.787549 
L 251.618831 129.848833 
L 250.618831 129.897332 
L 249.618831 129.978155 
L 248.618831 130.096674 
L 247.618831 130.166884 
L 246.618831 130.250147 
L 244.762419 130.283289 
" clip-path="url(#pcfe69cb0fe)" style="fill: none; stroke: #ff7f0e; stroke-opacity: 0.5; stroke-width: 0.2; stroke-linecap: square"/>
   <path d="M 296.618831 163.707127 
L 295.618831 163.675691 
L 294.618831 163.63875 
L 293.618831 163.541004 
L 292.618831 163.508482 
L 291.618831 163.434858 
L 290.618831 163.396292 
L 289.618831 163.360879 
L 288.618831 163.303239 
L 287.618831 163.232853 
L 286.618831 163.180888 
L 285.618831 163.121799 
L 284.618831 163.033478 
L 283.618831 162.987333 
L 282.618831 162.944922 
L 281.618831 162.91443 
L 280.618831 162.888385 
L 279.618831 162.867185 
L 278.618831 162.812884 
L 277.618831 162.784946 
L 276.618831 162.755222 
L 275.618831 162.729827 
L 274.618831 162.718627 
L 273.618831 162.708503 
L 272.618831 162.708707 
L 271.618831 162.718217 
L 270.618831 162.729871 
L 269.618831 162.7609 
L 268.618831 162.772068 
L 267.618831 162.802185 
L 266.618831 162.861962 
L 265.618831 162.899154 
L 264.618831 162.93825 
L 263.618831 162.98069 
L 262.618831 163.013455 
L 261.618831 163.080881 
L 260.618831 163.120007 
L 259.618831 163.162682 
L 258.618831 163.233262 
L 257.618831 163.269653 
L 256.618831 163.328056 
L 255.618831 163.439009 
L 254.618831 163.509667 
L 253.618831 163.622607 
L 252.618831 163.66838 
L 251.618831 163.729663 
L 250.618831 163.778163 
L 249.618831 163.858985 
L 248.618831 163.977504 
L 247.618831 164.047715 
L 246.618831 164.130977 
L 244.762419 164.164119 
" clip-path="url(#pcfe69cb0fe)" style="fill: none; stroke: #ff7f0e; stroke-opacity: 0.5; stroke-width: 0.2; stroke-linecap: square"/>
   <path d="M 296.618831 127.341416 
L 295.618831 127.309979 
L 294.618831 127.273039 
L 293.618831 127.175292 
L 292.618831 127.142771 
L 291.618831 127.069146 
L 290.618831 127.03058 
L 289.618831 126.995167 
L 288.618831 126.937527 
L 287.618831 126.867141 
L 286.618831 126.815177 
L 285.618831 126.756087 
L 284.618831 126.667766 
L 283.618831 126.621622 
L 282.618831 126.579211 
L 281.618831 126.548718 
L 280.618831 126.522673 
L 279.618831 126.501473 
L 278.618831 126.447172 
L 277.618831 126.419235 
L 276.618831 126.389511 
L 275.618831 126.364116 
L 274.618831 126.352915 
L 273.618831 126.342791 
L 272.618831 126.342996 
L 271.618831 126.352506 
L 270.618831 126.364159 
L 269.618831 126.395189 
L 268.618831 126.406356 
L 267.618831 126.436474 
L 266.618831 126.496251 
L 265.618831 126.533442 
L 264.618831 126.572539 
L 263.618831 126.614978 
L 262.618831 126.647743 
L 261.618831 126.71517 
L 260.618831 126.754296 
L 259.618831 126.79697 
L 258.618831 126.867551 
L 257.618831 126.903942 
L 256.618831 126.962345 
L 255.618831 127.073297 
L 254.618831 127.143956 
L 253.618831 127.256896 
L 252.618831 127.302668 
L 251.618831 127.363952 
L 250.618831 127.412451 
L 249.618831 127.493274 
L 248.618831 127.611793 
L 247.618831 127.682003 
L 246.618831 127.765266 
L 244.762419 127.798407 
" clip-path="url(#pcfe69cb0fe)" style="fill: none; stroke: #ff7f0e; stroke-opacity: 0.5; stroke-width: 0.2; stroke-linecap: square"/>
   <path d="M 296.618831 79.039625 
L 295.618831 79.008189 
L 294.618831 78.971248 
L 293.618831 78.873502 
L 292.618831 78.84098 
L 291.618831 78.767355 
L 290.618831 78.72879 
L 289.618831 78.693377 
L 288.618831 78.635737 
L 287.618831 78.56535 
L 286.618831 78.513386 
L 285.618831 78.454296 
L 284.618831 78.365975 
L 283.618831 78.319831 
L 282.618831 78.27742 
L 281.618831 78.246928 
L 280.618831 78.220883 
L 279.618831 78.199683 
L 278.618831 78.145381 
L 277.618831 78.117444 
L 276.618831 78.08772 
L 275.618831 78.062325 
L 274.618831 78.051125 
L 273.618831 78.041001 
L 272.618831 78.041205 
L 271.618831 78.050715 
L 270.618831 78.062369 
L 269.618831 78.093398 
L 268.618831 78.104566 
L 267.618831 78.134683 
L 266.618831 78.19446 
L 265.618831 78.231652 
L 264.618831 78.270748 
L 263.618831 78.313187 
L 262.618831 78.345953 
L 261.618831 78.413379 
L 260.618831 78.452505 
L 259.618831 78.495179 
L 258.618831 78.56576 
L 257.618831 78.602151 
L 256.618831 78.660554 
L 255.618831 78.771507 
L 254.618831 78.842165 
L 253.618831 78.955105 
L 252.618831 79.000878 
L 251.618831 79.062161 
L 250.618831 79.11066 
L 249.618831 79.191483 
L 248.618831 79.310002 
L 247.618831 79.380213 
L 246.618831 79.463475 
L 244.762419 79.496617 
" clip-path="url(#pcfe69cb0fe)" style="fill: none; stroke: #ff7f0e; stroke-opacity: 0.5; stroke-width: 0.2; stroke-linecap: square"/>
   <path d="M 296.618831 115.666666 
L 295.618831 115.63523 
L 294.618831 115.598289 
L 293.618831 115.500543 
L 292.618831 115.468021 
L 291.618831 115.394396 
L 290.618831 115.355831 
L 289.618831 115.320418 
L 288.618831 115.262778 
L 287.618831 115.192392 
L 286.618831 115.140427 
L 285.618831 115.081338 
L 284.618831 114.993017 
L 283.618831 114.946872 
L 282.618831 114.904461 
L 281.618831 114.873969 
L 280.618831 114.847924 
L 279.618831 114.826724 
L 278.618831 114.772423 
L 277.618831 114.744485 
L 276.618831 114.714761 
L 275.618831 114.689366 
L 274.618831 114.678166 
L 273.618831 114.668042 
L 272.618831 114.668246 
L 271.618831 114.677756 
L 270.618831 114.68941 
L 269.618831 114.720439 
L 268.618831 114.731607 
L 267.618831 114.761724 
L 266.618831 114.821501 
L 265.618831 114.858693 
L 264.618831 114.897789 
L 263.618831 114.940229 
L 262.618831 114.972994 
L 261.618831 115.04042 
L 260.618831 115.079546 
L 259.618831 115.122221 
L 258.618831 115.192801 
L 257.618831 115.229192 
L 256.618831 115.287595 
L 255.618831 115.398548 
L 254.618831 115.469206 
L 253.618831 115.582146 
L 252.618831 115.627919 
L 251.618831 115.689202 
L 250.618831 115.737701 
L 249.618831 115.818524 
L 248.618831 115.937043 
L 247.618831 116.007254 
L 246.618831 116.090516 
L 244.762419 116.123658 
" clip-path="url(#pcfe69cb0fe)" style="fill: none; stroke: #ff7f0e; stroke-opacity: 0.5; stroke-width: 0.2; stroke-linecap: square"/>
   <path d="M 244.762419 125.56467 
L 245.762419 125.596106 
L 246.762419 125.633046 
L 247.762419 125.730793 
L 248.762419 125.763314 
L 249.762419 125.836939 
L 250.762419 125.875505 
L 251.762419 125.910918 
L 252.762419 125.968558 
L 253.762419 126.038944 
L 254.762419 126.090908 
L 255.762419 126.149998 
L 256.762419 126.238319 
L 257.762419 126.284463 
L 258.762419 126.326874 
L 259.762419 126.357367 
L 260.762419 126.383412 
L 261.762419 126.404612 
L 262.762419 126.458913 
L 263.762419 126.486851 
L 264.762419 126.516575 
L 265.762419 126.541969 
L 266.762419 126.55317 
L 267.762419 126.563294 
L 268.762419 126.563089 
L 269.762419 126.55358 
L 270.762419 126.541926 
L 271.762419 126.510897 
L 272.762419 126.499729 
L 273.762419 126.469611 
L 274.762419 126.409834 
L 275.762419 126.372643 
L 276.762419 126.333547 
L 277.762419 126.291107 
L 278.762419 126.258342 
L 279.762419 126.190915 
L 280.762419 126.15179 
L 281.762419 126.109115 
L 282.762419 126.038534 
L 283.762419 126.002144 
L 284.762419 125.94374 
L 285.762419 125.832788 
L 286.762419 125.762129 
L 287.762419 125.64919 
L 288.762419 125.603417 
L 289.762419 125.542134 
L 290.762419 125.493634 
L 291.762419 125.412812 
L 292.762419 125.294293 
L 293.762419 125.224082 
L 294.762419 125.140819 
L 296.618831 125.107678 
" clip-path="url(#pcfe69cb0fe)" style="fill: none; stroke: #1f77b4; stroke-opacity: 0.5; stroke-width: 0.2; stroke-linecap: square"/>
   <path d="M 244.762419 93.107293 
L 245.762419 93.13873 
L 246.762419 93.17567 
L 247.762419 93.273417 
L 248.762419 93.305938 
L 249.762419 93.379563 
L 250.762419 93.418129 
L 251.762419 93.453542 
L 252.762419 93.511182 
L 253.762419 93.581568 
L 254.762419 93.633532 
L 255.762419 93.692622 
L 256.762419 93.780943 
L 257.762419 93.827087 
L 258.762419 93.869498 
L 259.762419 93.899991 
L 260.762419 93.926036 
L 261.762419 93.947236 
L 262.762419 94.001537 
L 263.762419 94.029474 
L 264.762419 94.059198 
L 265.762419 94.084593 
L 266.762419 94.095794 
L 267.762419 94.105918 
L 268.762419 94.105713 
L 269.762419 94.096203 
L 270.762419 94.08455 
L 271.762419 94.053521 
L 272.762419 94.042353 
L 273.762419 94.012235 
L 274.762419 93.952458 
L 275.762419 93.915267 
L 276.762419 93.876171 
L 277.762419 93.833731 
L 278.762419 93.800966 
L 279.762419 93.733539 
L 280.762419 93.694413 
L 281.762419 93.651739 
L 282.762419 93.581158 
L 283.762419 93.544767 
L 284.762419 93.486364 
L 285.762419 93.375412 
L 286.762419 93.304753 
L 287.762419 93.191814 
L 288.762419 93.146041 
L 289.762419 93.084757 
L 290.762419 93.036258 
L 291.762419 92.955435 
L 292.762419 92.836916 
L 293.762419 92.766706 
L 294.762419 92.683443 
L 296.618831 92.650302 
" clip-path="url(#pcfe69cb0fe)" style="fill: none; stroke: #1f77b4; stroke-opacity: 0.5; stroke-width: 0.2; stroke-linecap: square"/>
   <path d="M 244.762419 108.954676 
L 245.762419 108.986113 
L 246.762419 109.023053 
L 247.762419 109.1208 
L 248.762419 109.153321 
L 249.762419 109.226946 
L 250.762419 109.265511 
L 251.762419 109.300925 
L 252.762419 109.358564 
L 253.762419 109.428951 
L 254.762419 109.480915 
L 255.762419 109.540005 
L 256.762419 109.628326 
L 257.762419 109.67447 
L 258.762419 109.716881 
L 259.762419 109.747374 
L 260.762419 109.773418 
L 261.762419 109.794619 
L 262.762419 109.84892 
L 263.762419 109.876857 
L 264.762419 109.906581 
L 265.762419 109.931976 
L 266.762419 109.943176 
L 267.762419 109.9533 
L 268.762419 109.953096 
L 269.762419 109.943586 
L 270.762419 109.931933 
L 271.762419 109.900903 
L 272.762419 109.889735 
L 273.762419 109.859618 
L 274.762419 109.799841 
L 275.762419 109.762649 
L 276.762419 109.723553 
L 277.762419 109.681114 
L 278.762419 109.648349 
L 279.762419 109.580922 
L 280.762419 109.541796 
L 281.762419 109.499122 
L 282.762419 109.428541 
L 283.762419 109.39215 
L 284.762419 109.333747 
L 285.762419 109.222794 
L 286.762419 109.152136 
L 287.762419 109.039196 
L 288.762419 108.993423 
L 289.762419 108.93214 
L 290.762419 108.883641 
L 291.762419 108.802818 
L 292.762419 108.684299 
L 293.762419 108.614089 
L 294.762419 108.530826 
L 296.618831 108.497684 
" clip-path="url(#pcfe69cb0fe)" style="fill: none; stroke: #1f77b4; stroke-opacity: 0.5; stroke-width: 0.2; stroke-linecap: square"/>
   <path d="M 244.762419 113.338616 
L 245.762419 113.370053 
L 246.762419 113.406993 
L 247.762419 113.50474 
L 248.762419 113.537261 
L 249.762419 113.610886 
L 250.762419 113.649452 
L 251.762419 113.684865 
L 252.762419 113.742505 
L 253.762419 113.812891 
L 254.762419 113.864855 
L 255.762419 113.923945 
L 256.762419 114.012266 
L 257.762419 114.05841 
L 258.762419 114.100821 
L 259.762419 114.131314 
L 260.762419 114.157359 
L 261.762419 114.178559 
L 262.762419 114.23286 
L 263.762419 114.260797 
L 264.762419 114.290521 
L 265.762419 114.315916 
L 266.762419 114.327117 
L 267.762419 114.337241 
L 268.762419 114.337036 
L 269.762419 114.327526 
L 270.762419 114.315873 
L 271.762419 114.284844 
L 272.762419 114.273676 
L 273.762419 114.243558 
L 274.762419 114.183781 
L 275.762419 114.14659 
L 276.762419 114.107494 
L 277.762419 114.065054 
L 278.762419 114.032289 
L 279.762419 113.964862 
L 280.762419 113.925736 
L 281.762419 113.883062 
L 282.762419 113.812481 
L 283.762419 113.77609 
L 284.762419 113.717687 
L 285.762419 113.606735 
L 286.762419 113.536076 
L 287.762419 113.423137 
L 288.762419 113.377364 
L 289.762419 113.31608 
L 290.762419 113.267581 
L 291.762419 113.186758 
L 292.762419 113.068239 
L 293.762419 112.998029 
L 294.762419 112.914766 
L 296.618831 112.881625 
" clip-path="url(#pcfe69cb0fe)" style="fill: none; stroke: #1f77b4; stroke-opacity: 0.5; stroke-width: 0.2; stroke-linecap: square"/>
   <path d="M 244.762419 151.954045 
L 245.762419 151.985482 
L 246.762419 152.022422 
L 247.762419 152.120169 
L 248.762419 152.15269 
L 249.762419 152.226315 
L 250.762419 152.264881 
L 251.762419 152.300294 
L 252.762419 152.357934 
L 253.762419 152.42832 
L 254.762419 152.480284 
L 255.762419 152.539374 
L 256.762419 152.627695 
L 257.762419 152.673839 
L 258.762419 152.71625 
L 259.762419 152.746743 
L 260.762419 152.772788 
L 261.762419 152.793988 
L 262.762419 152.848289 
L 263.762419 152.876226 
L 264.762419 152.90595 
L 265.762419 152.931345 
L 266.762419 152.942546 
L 267.762419 152.95267 
L 268.762419 152.952465 
L 269.762419 152.942955 
L 270.762419 152.931302 
L 271.762419 152.900273 
L 272.762419 152.889105 
L 273.762419 152.858987 
L 274.762419 152.79921 
L 275.762419 152.762019 
L 276.762419 152.722923 
L 277.762419 152.680483 
L 278.762419 152.647718 
L 279.762419 152.580291 
L 280.762419 152.541165 
L 281.762419 152.498491 
L 282.762419 152.42791 
L 283.762419 152.391519 
L 284.762419 152.333116 
L 285.762419 152.222164 
L 286.762419 152.151505 
L 287.762419 152.038566 
L 288.762419 151.992793 
L 289.762419 151.931509 
L 290.762419 151.88301 
L 291.762419 151.802187 
L 292.762419 151.683668 
L 293.762419 151.613458 
L 294.762419 151.530195 
L 296.618831 151.497054 
" clip-path="url(#pcfe69cb0fe)" style="fill: none; stroke: #1f77b4; stroke-opacity: 0.5; stroke-width: 0.2; stroke-linecap: square"/>
   <path d="M 244.762419 121.968492 
L 245.762419 121.999928 
L 246.762419 122.036869 
L 247.762419 122.134615 
L 248.762419 122.167137 
L 249.762419 122.240761 
L 250.762419 122.279327 
L 251.762419 122.31474 
L 252.762419 122.37238 
L 253.762419 122.442766 
L 254.762419 122.494731 
L 255.762419 122.55382 
L 256.762419 122.642141 
L 257.762419 122.688286 
L 258.762419 122.730697 
L 259.762419 122.761189 
L 260.762419 122.787234 
L 261.762419 122.808434 
L 262.762419 122.862735 
L 263.762419 122.890673 
L 264.762419 122.920397 
L 265.762419 122.945792 
L 266.762419 122.956992 
L 267.762419 122.967116 
L 268.762419 122.966912 
L 269.762419 122.957402 
L 270.762419 122.945748 
L 271.762419 122.914719 
L 272.762419 122.903551 
L 273.762419 122.873434 
L 274.762419 122.813657 
L 275.762419 122.776465 
L 276.762419 122.737369 
L 277.762419 122.694929 
L 278.762419 122.662164 
L 279.762419 122.594738 
L 280.762419 122.555612 
L 281.762419 122.512937 
L 282.762419 122.442357 
L 283.762419 122.405966 
L 284.762419 122.347563 
L 285.762419 122.23661 
L 286.762419 122.165952 
L 287.762419 122.053012 
L 288.762419 122.007239 
L 289.762419 121.945956 
L 290.762419 121.897456 
L 291.762419 121.816634 
L 292.762419 121.698115 
L 293.762419 121.627904 
L 294.762419 121.544642 
L 296.618831 121.5115 
" clip-path="url(#pcfe69cb0fe)" style="fill: none; stroke: #1f77b4; stroke-opacity: 0.5; stroke-width: 0.2; stroke-linecap: square"/>
   <path d="M 244.762419 155.194428 
L 245.762419 155.225864 
L 246.762419 155.262804 
L 247.762419 155.360551 
L 248.762419 155.393073 
L 249.762419 155.466697 
L 250.762419 155.505263 
L 251.762419 155.540676 
L 252.762419 155.598316 
L 253.762419 155.668702 
L 254.762419 155.720666 
L 255.762419 155.779756 
L 256.762419 155.868077 
L 257.762419 155.914221 
L 258.762419 155.956632 
L 259.762419 155.987125 
L 260.762419 156.01317 
L 261.762419 156.03437 
L 262.762419 156.088671 
L 263.762419 156.116609 
L 264.762419 156.146333 
L 265.762419 156.171727 
L 266.762419 156.182928 
L 267.762419 156.193052 
L 268.762419 156.192847 
L 269.762419 156.183338 
L 270.762419 156.171684 
L 271.762419 156.140655 
L 272.762419 156.129487 
L 273.762419 156.099369 
L 274.762419 156.039592 
L 275.762419 156.002401 
L 276.762419 155.963305 
L 277.762419 155.920865 
L 278.762419 155.8881 
L 279.762419 155.820674 
L 280.762419 155.781548 
L 281.762419 155.738873 
L 282.762419 155.668292 
L 283.762419 155.631902 
L 284.762419 155.573498 
L 285.762419 155.462546 
L 286.762419 155.391888 
L 287.762419 155.278948 
L 288.762419 155.233175 
L 289.762419 155.171892 
L 290.762419 155.123392 
L 291.762419 155.04257 
L 292.762419 154.924051 
L 293.762419 154.85384 
L 294.762419 154.770578 
L 296.618831 154.737436 
" clip-path="url(#pcfe69cb0fe)" style="fill: none; stroke: #1f77b4; stroke-opacity: 0.5; stroke-width: 0.2; stroke-linecap: square"/>
   <path d="M 244.762419 80.734345 
L 245.762419 80.765781 
L 246.762419 80.802722 
L 247.762419 80.900468 
L 248.762419 80.93299 
L 249.762419 81.006615 
L 250.762419 81.04518 
L 251.762419 81.080593 
L 252.762419 81.138233 
L 253.762419 81.208619 
L 254.762419 81.260584 
L 255.762419 81.319673 
L 256.762419 81.407994 
L 257.762419 81.454139 
L 258.762419 81.49655 
L 259.762419 81.527042 
L 260.762419 81.553087 
L 261.762419 81.574287 
L 262.762419 81.628588 
L 263.762419 81.656526 
L 264.762419 81.68625 
L 265.762419 81.711645 
L 266.762419 81.722845 
L 267.762419 81.732969 
L 268.762419 81.732765 
L 269.762419 81.723255 
L 270.762419 81.711601 
L 271.762419 81.680572 
L 272.762419 81.669404 
L 273.762419 81.639287 
L 274.762419 81.57951 
L 275.762419 81.542318 
L 276.762419 81.503222 
L 277.762419 81.460782 
L 278.762419 81.428017 
L 279.762419 81.360591 
L 280.762419 81.321465 
L 281.762419 81.27879 
L 282.762419 81.20821 
L 283.762419 81.171819 
L 284.762419 81.113416 
L 285.762419 81.002463 
L 286.762419 80.931805 
L 287.762419 80.818865 
L 288.762419 80.773092 
L 289.762419 80.711809 
L 290.762419 80.66331 
L 291.762419 80.582487 
L 292.762419 80.463968 
L 293.762419 80.393757 
L 294.762419 80.310495 
L 296.618831 80.277353 
" clip-path="url(#pcfe69cb0fe)" style="fill: none; stroke: #1f77b4; stroke-opacity: 0.5; stroke-width: 0.2; stroke-linecap: square"/>
   <path d="M 244.762419 105.508585 
L 245.762419 105.540022 
L 246.762419 105.576962 
L 247.762419 105.674709 
L 248.762419 105.70723 
L 249.762419 105.780855 
L 250.762419 105.81942 
L 251.762419 105.854834 
L 252.762419 105.912474 
L 253.762419 105.98286 
L 254.762419 106.034824 
L 255.762419 106.093914 
L 256.762419 106.182235 
L 257.762419 106.228379 
L 258.762419 106.27079 
L 259.762419 106.301283 
L 260.762419 106.327328 
L 261.762419 106.348528 
L 262.762419 106.402829 
L 263.762419 106.430766 
L 264.762419 106.46049 
L 265.762419 106.485885 
L 266.762419 106.497085 
L 267.762419 106.507209 
L 268.762419 106.507005 
L 269.762419 106.497495 
L 270.762419 106.485842 
L 271.762419 106.454812 
L 272.762419 106.443644 
L 273.762419 106.413527 
L 274.762419 106.35375 
L 275.762419 106.316558 
L 276.762419 106.277462 
L 277.762419 106.235023 
L 278.762419 106.202258 
L 279.762419 106.134831 
L 280.762419 106.095705 
L 281.762419 106.053031 
L 282.762419 105.98245 
L 283.762419 105.946059 
L 284.762419 105.887656 
L 285.762419 105.776703 
L 286.762419 105.706045 
L 287.762419 105.593105 
L 288.762419 105.547332 
L 289.762419 105.486049 
L 290.762419 105.43755 
L 291.762419 105.356727 
L 292.762419 105.238208 
L 293.762419 105.167998 
L 294.762419 105.084735 
L 296.618831 105.051593 
" clip-path="url(#pcfe69cb0fe)" style="fill: none; stroke: #1f77b4; stroke-opacity: 0.5; stroke-width: 0.2; stroke-linecap: square"/>
   <path d="M 244.762419 162.665898 
L 245.762419 162.697334 
L 246.762419 162.734274 
L 247.762419 162.832021 
L 248.762419 162.864543 
L 249.762419 162.938167 
L 250.762419 162.976733 
L 251.762419 163.012146 
L 252.762419 163.069786 
L 253.762419 163.140172 
L 254.762419 163.192136 
L 255.762419 163.251226 
L 256.762419 163.339547 
L 257.762419 163.385691 
L 258.762419 163.428102 
L 259.762419 163.458595 
L 260.762419 163.48464 
L 261.762419 163.50584 
L 262.762419 163.560141 
L 263.762419 163.588079 
L 264.762419 163.617803 
L 265.762419 163.643197 
L 266.762419 163.654398 
L 267.762419 163.664522 
L 268.762419 163.664317 
L 269.762419 163.654808 
L 270.762419 163.643154 
L 271.762419 163.612125 
L 272.762419 163.600957 
L 273.762419 163.570839 
L 274.762419 163.511062 
L 275.762419 163.473871 
L 276.762419 163.434775 
L 277.762419 163.392335 
L 278.762419 163.35957 
L 279.762419 163.292144 
L 280.762419 163.253018 
L 281.762419 163.210343 
L 282.762419 163.139762 
L 283.762419 163.103372 
L 284.762419 163.044968 
L 285.762419 162.934016 
L 286.762419 162.863358 
L 287.762419 162.750418 
L 288.762419 162.704645 
L 289.762419 162.643362 
L 290.762419 162.594862 
L 291.762419 162.51404 
L 292.762419 162.395521 
L 293.762419 162.32531 
L 294.762419 162.242048 
L 296.618831 162.208906 
" clip-path="url(#pcfe69cb0fe)" style="fill: none; stroke: #1f77b4; stroke-opacity: 0.5; stroke-width: 0.2; stroke-linecap: square"/>
   <path d="M 296.618831 259.447354 
L 295.618831 259.415917 
L 294.618831 259.378977 
L 293.618831 259.28123 
L 292.618831 259.248709 
L 291.618831 259.175084 
L 290.618831 259.136518 
L 289.618831 259.101105 
L 288.618831 259.043465 
L 287.618831 258.973079 
L 286.618831 258.921115 
L 285.618831 258.862025 
L 284.618831 258.773704 
L 283.618831 258.72756 
L 282.618831 258.685149 
L 281.618831 258.654656 
L 280.618831 258.628611 
L 279.618831 258.607411 
L 278.618831 258.55311 
L 277.618831 258.525173 
L 276.618831 258.495449 
L 275.618831 258.470054 
L 274.618831 258.458853 
L 273.618831 258.448729 
L 272.618831 258.448934 
L 271.618831 258.458444 
L 270.618831 258.470097 
L 269.618831 258.501126 
L 268.618831 258.512294 
L 267.618831 258.542412 
L 266.618831 258.602189 
L 265.618831 258.63938 
L 264.618831 258.678476 
L 263.618831 258.720916 
L 262.618831 258.753681 
L 261.618831 258.821108 
L 260.618831 258.860234 
L 259.618831 258.902908 
L 258.618831 258.973489 
L 257.618831 259.00988 
L 256.618831 259.068283 
L 255.618831 259.179235 
L 254.618831 259.249894 
L 253.618831 259.362834 
L 252.618831 259.408606 
L 251.618831 259.46989 
L 250.618831 259.518389 
L 249.618831 259.599212 
L 248.618831 259.717731 
L 247.618831 259.787941 
L 246.618831 259.871204 
L 244.762419 259.904345 
" clip-path="url(#pcfe69cb0fe)" style="fill: none; stroke: #ff7f0e; stroke-opacity: 0.5; stroke-width: 0.2; stroke-linecap: square"/>
   <path d="M 296.618831 197.150197 
L 295.618831 197.118761 
L 294.618831 197.081821 
L 293.618831 196.984074 
L 292.618831 196.951552 
L 291.618831 196.877928 
L 290.618831 196.839362 
L 289.618831 196.803949 
L 288.618831 196.746309 
L 287.618831 196.675923 
L 286.618831 196.623959 
L 285.618831 196.564869 
L 284.618831 196.476548 
L 283.618831 196.430404 
L 282.618831 196.387993 
L 281.618831 196.3575 
L 280.618831 196.331455 
L 279.618831 196.310255 
L 278.618831 196.255954 
L 277.618831 196.228016 
L 276.618831 196.198292 
L 275.618831 196.172898 
L 274.618831 196.161697 
L 273.618831 196.151573 
L 272.618831 196.151777 
L 271.618831 196.161287 
L 270.618831 196.172941 
L 269.618831 196.20397 
L 268.618831 196.215138 
L 267.618831 196.245256 
L 266.618831 196.305033 
L 265.618831 196.342224 
L 264.618831 196.38132 
L 263.618831 196.42376 
L 262.618831 196.456525 
L 261.618831 196.523951 
L 260.618831 196.563077 
L 259.618831 196.605752 
L 258.618831 196.676332 
L 257.618831 196.712723 
L 256.618831 196.771127 
L 255.618831 196.882079 
L 254.618831 196.952737 
L 253.618831 197.065677 
L 252.618831 197.11145 
L 251.618831 197.172733 
L 250.618831 197.221233 
L 249.618831 197.302055 
L 248.618831 197.420574 
L 247.618831 197.490785 
L 246.618831 197.574047 
L 244.762419 197.607189 
" clip-path="url(#pcfe69cb0fe)" style="fill: none; stroke: #ff7f0e; stroke-opacity: 0.5; stroke-width: 0.2; stroke-linecap: square"/>
   <path d="M 296.618831 166.217595 
L 295.618831 166.186159 
L 294.618831 166.149218 
L 293.618831 166.051472 
L 292.618831 166.01895 
L 291.618831 165.945326 
L 290.618831 165.90676 
L 289.618831 165.871347 
L 288.618831 165.813707 
L 287.618831 165.743321 
L 286.618831 165.691357 
L 285.618831 165.632267 
L 284.618831 165.543946 
L 283.618831 165.497801 
L 282.618831 165.455391 
L 281.618831 165.424898 
L 280.618831 165.398853 
L 279.618831 165.377653 
L 278.618831 165.323352 
L 277.618831 165.295414 
L 276.618831 165.26569 
L 275.618831 165.240295 
L 274.618831 165.229095 
L 273.618831 165.218971 
L 272.618831 165.219175 
L 271.618831 165.228685 
L 270.618831 165.240339 
L 269.618831 165.271368 
L 268.618831 165.282536 
L 267.618831 165.312654 
L 266.618831 165.37243 
L 265.618831 165.409622 
L 264.618831 165.448718 
L 263.618831 165.491158 
L 262.618831 165.523923 
L 261.618831 165.591349 
L 260.618831 165.630475 
L 259.618831 165.67315 
L 258.618831 165.74373 
L 257.618831 165.780121 
L 256.618831 165.838524 
L 255.618831 165.949477 
L 254.618831 166.020135 
L 253.618831 166.133075 
L 252.618831 166.178848 
L 251.618831 166.240131 
L 250.618831 166.288631 
L 249.618831 166.369453 
L 248.618831 166.487972 
L 247.618831 166.558183 
L 246.618831 166.641445 
L 244.762419 166.674587 
" clip-path="url(#pcfe69cb0fe)" style="fill: none; stroke: #ff7f0e; stroke-opacity: 0.5; stroke-width: 0.2; stroke-linecap: square"/>
   <path d="M 296.618831 214.422633 
L 295.618831 214.391196 
L 294.618831 214.354256 
L 293.618831 214.256509 
L 292.618831 214.223988 
L 291.618831 214.150363 
L 290.618831 214.111797 
L 289.618831 214.076384 
L 288.618831 214.018744 
L 287.618831 213.948358 
L 286.618831 213.896394 
L 285.618831 213.837304 
L 284.618831 213.748983 
L 283.618831 213.702839 
L 282.618831 213.660428 
L 281.618831 213.629935 
L 280.618831 213.60389 
L 279.618831 213.58269 
L 278.618831 213.528389 
L 277.618831 213.500452 
L 276.618831 213.470728 
L 275.618831 213.445333 
L 274.618831 213.434132 
L 273.618831 213.424008 
L 272.618831 213.424213 
L 271.618831 213.433723 
L 270.618831 213.445376 
L 269.618831 213.476406 
L 268.618831 213.487573 
L 267.618831 213.517691 
L 266.618831 213.577468 
L 265.618831 213.614659 
L 264.618831 213.653756 
L 263.618831 213.696195 
L 262.618831 213.72896 
L 261.618831 213.796387 
L 260.618831 213.835513 
L 259.618831 213.878187 
L 258.618831 213.948768 
L 257.618831 213.985159 
L 256.618831 214.043562 
L 255.618831 214.154514 
L 254.618831 214.225173 
L 253.618831 214.338113 
L 252.618831 214.383885 
L 251.618831 214.445169 
L 250.618831 214.493668 
L 249.618831 214.574491 
L 248.618831 214.69301 
L 247.618831 214.76322 
L 246.618831 214.846483 
L 244.762419 214.879625 
" clip-path="url(#pcfe69cb0fe)" style="fill: none; stroke: #ff7f0e; stroke-opacity: 0.5; stroke-width: 0.2; stroke-linecap: square"/>
   <path d="M 296.618831 229.170603 
L 295.618831 229.139167 
L 294.618831 229.102227 
L 293.618831 229.00448 
L 292.618831 228.971959 
L 291.618831 228.898334 
L 290.618831 228.859768 
L 289.618831 228.824355 
L 288.618831 228.766715 
L 287.618831 228.696329 
L 286.618831 228.644365 
L 285.618831 228.585275 
L 284.618831 228.496954 
L 283.618831 228.45081 
L 282.618831 228.408399 
L 281.618831 228.377906 
L 280.618831 228.351861 
L 279.618831 228.330661 
L 278.618831 228.27636 
L 277.618831 228.248422 
L 276.618831 228.218699 
L 275.618831 228.193304 
L 274.618831 228.182103 
L 273.618831 228.171979 
L 272.618831 228.172184 
L 271.618831 228.181694 
L 270.618831 228.193347 
L 269.618831 228.224376 
L 268.618831 228.235544 
L 267.618831 228.265662 
L 266.618831 228.325439 
L 265.618831 228.36263 
L 264.618831 228.401726 
L 263.618831 228.444166 
L 262.618831 228.476931 
L 261.618831 228.544358 
L 260.618831 228.583484 
L 259.618831 228.626158 
L 258.618831 228.696739 
L 257.618831 228.73313 
L 256.618831 228.791533 
L 255.618831 228.902485 
L 254.618831 228.973144 
L 253.618831 229.086083 
L 252.618831 229.131856 
L 251.618831 229.19314 
L 250.618831 229.241639 
L 249.618831 229.322462 
L 248.618831 229.440981 
L 247.618831 229.511191 
L 246.618831 229.594454 
L 244.762419 229.627595 
" clip-path="url(#pcfe69cb0fe)" style="fill: none; stroke: #ff7f0e; stroke-opacity: 0.5; stroke-width: 0.2; stroke-linecap: square"/>
   <path d="M 296.618831 173.282026 
L 295.618831 173.250589 
L 294.618831 173.213649 
L 293.618831 173.115902 
L 292.618831 173.083381 
L 291.618831 173.009756 
L 290.618831 172.97119 
L 289.618831 172.935777 
L 288.618831 172.878137 
L 287.618831 172.807751 
L 286.618831 172.755787 
L 285.618831 172.696697 
L 284.618831 172.608376 
L 283.618831 172.562232 
L 282.618831 172.519821 
L 281.618831 172.489328 
L 280.618831 172.463283 
L 279.618831 172.442083 
L 278.618831 172.387782 
L 277.618831 172.359845 
L 276.618831 172.330121 
L 275.618831 172.304726 
L 274.618831 172.293525 
L 273.618831 172.283402 
L 272.618831 172.283606 
L 271.618831 172.293116 
L 270.618831 172.304769 
L 269.618831 172.335799 
L 268.618831 172.346966 
L 267.618831 172.377084 
L 266.618831 172.436861 
L 265.618831 172.474052 
L 264.618831 172.513149 
L 263.618831 172.555588 
L 262.618831 172.588353 
L 261.618831 172.65578 
L 260.618831 172.694906 
L 259.618831 172.73758 
L 258.618831 172.808161 
L 257.618831 172.844552 
L 256.618831 172.902955 
L 255.618831 173.013907 
L 254.618831 173.084566 
L 253.618831 173.197506 
L 252.618831 173.243278 
L 251.618831 173.304562 
L 250.618831 173.353061 
L 249.618831 173.433884 
L 248.618831 173.552403 
L 247.618831 173.622613 
L 246.618831 173.705876 
L 244.762419 173.739018 
" clip-path="url(#pcfe69cb0fe)" style="fill: none; stroke: #ff7f0e; stroke-opacity: 0.5; stroke-width: 0.2; stroke-linecap: square"/>
   <path d="M 296.618831 172.676773 
L 295.618831 172.645337 
L 294.618831 172.608396 
L 293.618831 172.51065 
L 292.618831 172.478128 
L 291.618831 172.404504 
L 290.618831 172.365938 
L 289.618831 172.330525 
L 288.618831 172.272885 
L 287.618831 172.202499 
L 286.618831 172.150534 
L 285.618831 172.091445 
L 284.618831 172.003124 
L 283.618831 171.956979 
L 282.618831 171.914569 
L 281.618831 171.884076 
L 280.618831 171.858031 
L 279.618831 171.836831 
L 278.618831 171.78253 
L 277.618831 171.754592 
L 276.618831 171.724868 
L 275.618831 171.699473 
L 274.618831 171.688273 
L 273.618831 171.678149 
L 272.618831 171.678353 
L 271.618831 171.687863 
L 270.618831 171.699517 
L 269.618831 171.730546 
L 268.618831 171.741714 
L 267.618831 171.771832 
L 266.618831 171.831608 
L 265.618831 171.8688 
L 264.618831 171.907896 
L 263.618831 171.950336 
L 262.618831 171.983101 
L 261.618831 172.050527 
L 260.618831 172.089653 
L 259.618831 172.132328 
L 258.618831 172.202908 
L 257.618831 172.239299 
L 256.618831 172.297702 
L 255.618831 172.408655 
L 254.618831 172.479313 
L 253.618831 172.592253 
L 252.618831 172.638026 
L 251.618831 172.699309 
L 250.618831 172.747809 
L 249.618831 172.828631 
L 248.618831 172.94715 
L 247.618831 173.017361 
L 246.618831 173.100623 
L 244.762419 173.133765 
" clip-path="url(#pcfe69cb0fe)" style="fill: none; stroke: #ff7f0e; stroke-opacity: 0.5; stroke-width: 0.2; stroke-linecap: square"/>
   <path d="M 296.618831 198.327422 
L 295.618831 198.295985 
L 294.618831 198.259045 
L 293.618831 198.161298 
L 292.618831 198.128777 
L 291.618831 198.055152 
L 290.618831 198.016587 
L 289.618831 197.981173 
L 288.618831 197.923534 
L 287.618831 197.853147 
L 286.618831 197.801183 
L 285.618831 197.742093 
L 284.618831 197.653772 
L 283.618831 197.607628 
L 282.618831 197.565217 
L 281.618831 197.534724 
L 280.618831 197.50868 
L 279.618831 197.487479 
L 278.618831 197.433178 
L 277.618831 197.405241 
L 276.618831 197.375517 
L 275.618831 197.350122 
L 274.618831 197.338922 
L 273.618831 197.328798 
L 272.618831 197.329002 
L 271.618831 197.338512 
L 270.618831 197.350165 
L 269.618831 197.381195 
L 268.618831 197.392363 
L 267.618831 197.42248 
L 266.618831 197.482257 
L 265.618831 197.519449 
L 264.618831 197.558545 
L 263.618831 197.600984 
L 262.618831 197.633749 
L 261.618831 197.701176 
L 260.618831 197.740302 
L 259.618831 197.782976 
L 258.618831 197.853557 
L 257.618831 197.889948 
L 256.618831 197.948351 
L 255.618831 198.059304 
L 254.618831 198.129962 
L 253.618831 198.242902 
L 252.618831 198.288675 
L 251.618831 198.349958 
L 250.618831 198.398457 
L 249.618831 198.47928 
L 248.618831 198.597799 
L 247.618831 198.668009 
L 246.618831 198.751272 
L 244.762419 198.784414 
" clip-path="url(#pcfe69cb0fe)" style="fill: none; stroke: #ff7f0e; stroke-opacity: 0.5; stroke-width: 0.2; stroke-linecap: square"/>
   <path d="M 296.618831 173.278734 
L 295.618831 173.247298 
L 294.618831 173.210357 
L 293.618831 173.112611 
L 292.618831 173.080089 
L 291.618831 173.006465 
L 290.618831 172.967899 
L 289.618831 172.932486 
L 288.618831 172.874846 
L 287.618831 172.80446 
L 286.618831 172.752496 
L 285.618831 172.693406 
L 284.618831 172.605085 
L 283.618831 172.558941 
L 282.618831 172.51653 
L 281.618831 172.486037 
L 280.618831 172.459992 
L 279.618831 172.438792 
L 278.618831 172.384491 
L 277.618831 172.356553 
L 276.618831 172.326829 
L 275.618831 172.301434 
L 274.618831 172.290234 
L 273.618831 172.28011 
L 272.618831 172.280314 
L 271.618831 172.289824 
L 270.618831 172.301478 
L 269.618831 172.332507 
L 268.618831 172.343675 
L 267.618831 172.373793 
L 266.618831 172.43357 
L 265.618831 172.470761 
L 264.618831 172.509857 
L 263.618831 172.552297 
L 262.618831 172.585062 
L 261.618831 172.652488 
L 260.618831 172.691614 
L 259.618831 172.734289 
L 258.618831 172.804869 
L 257.618831 172.84126 
L 256.618831 172.899663 
L 255.618831 173.010616 
L 254.618831 173.081274 
L 253.618831 173.194214 
L 252.618831 173.239987 
L 251.618831 173.30127 
L 250.618831 173.34977 
L 249.618831 173.430592 
L 248.618831 173.549111 
L 247.618831 173.619322 
L 246.618831 173.702584 
L 244.762419 173.735726 
" clip-path="url(#pcfe69cb0fe)" style="fill: none; stroke: #ff7f0e; stroke-opacity: 0.5; stroke-width: 0.2; stroke-linecap: square"/>
   <path d="M 296.618831 195.805413 
L 295.618831 195.773977 
L 294.618831 195.737036 
L 293.618831 195.63929 
L 292.618831 195.606768 
L 291.618831 195.533143 
L 290.618831 195.494578 
L 289.618831 195.459165 
L 288.618831 195.401525 
L 287.618831 195.331138 
L 286.618831 195.279174 
L 285.618831 195.220084 
L 284.618831 195.131764 
L 283.618831 195.085619 
L 282.618831 195.043208 
L 281.618831 195.012716 
L 280.618831 194.986671 
L 279.618831 194.965471 
L 278.618831 194.911169 
L 277.618831 194.883232 
L 276.618831 194.853508 
L 275.618831 194.828113 
L 274.618831 194.816913 
L 273.618831 194.806789 
L 272.618831 194.806993 
L 271.618831 194.816503 
L 270.618831 194.828157 
L 269.618831 194.859186 
L 268.618831 194.870354 
L 267.618831 194.900471 
L 266.618831 194.960248 
L 265.618831 194.99744 
L 264.618831 195.036536 
L 263.618831 195.078975 
L 262.618831 195.111741 
L 261.618831 195.179167 
L 260.618831 195.218293 
L 259.618831 195.260967 
L 258.618831 195.331548 
L 257.618831 195.367939 
L 256.618831 195.426342 
L 255.618831 195.537295 
L 254.618831 195.607953 
L 253.618831 195.720893 
L 252.618831 195.766666 
L 251.618831 195.827949 
L 250.618831 195.876448 
L 249.618831 195.957271 
L 248.618831 196.07579 
L 247.618831 196.146001 
L 246.618831 196.229263 
L 244.762419 196.262405 
" clip-path="url(#pcfe69cb0fe)" style="fill: none; stroke: #ff7f0e; stroke-opacity: 0.5; stroke-width: 0.2; stroke-linecap: square"/>
   <path d="M 244.762419 179.470593 
L 245.762419 179.50203 
L 246.762419 179.53897 
L 247.762419 179.636716 
L 248.762419 179.669238 
L 249.762419 179.742863 
L 250.762419 179.781428 
L 251.762419 179.816841 
L 252.762419 179.874481 
L 253.762419 179.944868 
L 254.762419 179.996832 
L 255.762419 180.055922 
L 256.762419 180.144243 
L 257.762419 180.190387 
L 258.762419 180.232798 
L 259.762419 180.26329 
L 260.762419 180.289335 
L 261.762419 180.310536 
L 262.762419 180.364837 
L 263.762419 180.392774 
L 264.762419 180.422498 
L 265.762419 180.447893 
L 266.762419 180.459093 
L 267.762419 180.469217 
L 268.762419 180.469013 
L 269.762419 180.459503 
L 270.762419 180.44785 
L 271.762419 180.41682 
L 272.762419 180.405652 
L 273.762419 180.375535 
L 274.762419 180.315758 
L 275.762419 180.278566 
L 276.762419 180.23947 
L 277.762419 180.197031 
L 278.762419 180.164266 
L 279.762419 180.096839 
L 280.762419 180.057713 
L 281.762419 180.015039 
L 282.762419 179.944458 
L 283.762419 179.908067 
L 284.762419 179.849664 
L 285.762419 179.738711 
L 286.762419 179.668053 
L 287.762419 179.555113 
L 288.762419 179.50934 
L 289.762419 179.448057 
L 290.762419 179.399558 
L 291.762419 179.318735 
L 292.762419 179.200216 
L 293.762419 179.130006 
L 294.762419 179.046743 
L 296.618831 179.013601 
" clip-path="url(#pcfe69cb0fe)" style="fill: none; stroke: #1f77b4; stroke-opacity: 0.5; stroke-width: 0.2; stroke-linecap: square"/>
   <path d="M 244.762419 218.863596 
L 245.762419 218.895033 
L 246.762419 218.931973 
L 247.762419 219.02972 
L 248.762419 219.062241 
L 249.762419 219.135866 
L 250.762419 219.174432 
L 251.762419 219.209845 
L 252.762419 219.267485 
L 253.762419 219.337871 
L 254.762419 219.389835 
L 255.762419 219.448925 
L 256.762419 219.537246 
L 257.762419 219.58339 
L 258.762419 219.625801 
L 259.762419 219.656294 
L 260.762419 219.682339 
L 261.762419 219.703539 
L 262.762419 219.75784 
L 263.762419 219.785777 
L 264.762419 219.815501 
L 265.762419 219.840896 
L 266.762419 219.852097 
L 267.762419 219.862221 
L 268.762419 219.862016 
L 269.762419 219.852506 
L 270.762419 219.840853 
L 271.762419 219.809824 
L 272.762419 219.798656 
L 273.762419 219.768538 
L 274.762419 219.708761 
L 275.762419 219.67157 
L 276.762419 219.632474 
L 277.762419 219.590034 
L 278.762419 219.557269 
L 279.762419 219.489842 
L 280.762419 219.450716 
L 281.762419 219.408042 
L 282.762419 219.337461 
L 283.762419 219.30107 
L 284.762419 219.242667 
L 285.762419 219.131715 
L 286.762419 219.061056 
L 287.762419 218.948117 
L 288.762419 218.902344 
L 289.762419 218.84106 
L 290.762419 218.792561 
L 291.762419 218.711738 
L 292.762419 218.593219 
L 293.762419 218.523009 
L 294.762419 218.439746 
L 296.618831 218.406605 
" clip-path="url(#pcfe69cb0fe)" style="fill: none; stroke: #1f77b4; stroke-opacity: 0.5; stroke-width: 0.2; stroke-linecap: square"/>
   <path d="M 244.762419 211.096599 
L 245.762419 211.128036 
L 246.762419 211.164976 
L 247.762419 211.262722 
L 248.762419 211.295244 
L 249.762419 211.368869 
L 250.762419 211.407434 
L 251.762419 211.442848 
L 252.762419 211.500487 
L 253.762419 211.570874 
L 254.762419 211.622838 
L 255.762419 211.681928 
L 256.762419 211.770249 
L 257.762419 211.816393 
L 258.762419 211.858804 
L 259.762419 211.889296 
L 260.762419 211.915341 
L 261.762419 211.936542 
L 262.762419 211.990843 
L 263.762419 212.01878 
L 264.762419 212.048504 
L 265.762419 212.073899 
L 266.762419 212.085099 
L 267.762419 212.095223 
L 268.762419 212.095019 
L 269.762419 212.085509 
L 270.762419 212.073856 
L 271.762419 212.042826 
L 272.762419 212.031658 
L 273.762419 212.001541 
L 274.762419 211.941764 
L 275.762419 211.904572 
L 276.762419 211.865476 
L 277.762419 211.823037 
L 278.762419 211.790272 
L 279.762419 211.722845 
L 280.762419 211.683719 
L 281.762419 211.641045 
L 282.762419 211.570464 
L 283.762419 211.534073 
L 284.762419 211.47567 
L 285.762419 211.364717 
L 286.762419 211.294059 
L 287.762419 211.181119 
L 288.762419 211.135346 
L 289.762419 211.074063 
L 290.762419 211.025564 
L 291.762419 210.944741 
L 292.762419 210.826222 
L 293.762419 210.756012 
L 294.762419 210.672749 
L 296.618831 210.639607 
" clip-path="url(#pcfe69cb0fe)" style="fill: none; stroke: #1f77b4; stroke-opacity: 0.5; stroke-width: 0.2; stroke-linecap: square"/>
   <path d="M 244.762419 256.053113 
L 245.762419 256.084549 
L 246.762419 256.12149 
L 247.762419 256.219236 
L 248.762419 256.251758 
L 249.762419 256.325383 
L 250.762419 256.363948 
L 251.762419 256.399361 
L 252.762419 256.457001 
L 253.762419 256.527388 
L 254.762419 256.579352 
L 255.762419 256.638442 
L 256.762419 256.726763 
L 257.762419 256.772907 
L 258.762419 256.815318 
L 259.762419 256.84581 
L 260.762419 256.871855 
L 261.762419 256.893055 
L 262.762419 256.947357 
L 263.762419 256.975294 
L 264.762419 257.005018 
L 265.762419 257.030413 
L 266.762419 257.041613 
L 267.762419 257.051737 
L 268.762419 257.051533 
L 269.762419 257.042023 
L 270.762419 257.030369 
L 271.762419 256.99934 
L 272.762419 256.988172 
L 273.762419 256.958055 
L 274.762419 256.898278 
L 275.762419 256.861086 
L 276.762419 256.82199 
L 277.762419 256.779551 
L 278.762419 256.746785 
L 279.762419 256.679359 
L 280.762419 256.640233 
L 281.762419 256.597559 
L 282.762419 256.526978 
L 283.762419 256.490587 
L 284.762419 256.432184 
L 285.762419 256.321231 
L 286.762419 256.250573 
L 287.762419 256.137633 
L 288.762419 256.09186 
L 289.762419 256.030577 
L 290.762419 255.982078 
L 291.762419 255.901255 
L 292.762419 255.782736 
L 293.762419 255.712525 
L 294.762419 255.629263 
L 296.618831 255.596121 
" clip-path="url(#pcfe69cb0fe)" style="fill: none; stroke: #1f77b4; stroke-opacity: 0.5; stroke-width: 0.2; stroke-linecap: square"/>
   <path d="M 244.762419 214.391446 
L 245.762419 214.422882 
L 246.762419 214.459822 
L 247.762419 214.557569 
L 248.762419 214.590091 
L 249.762419 214.663715 
L 250.762419 214.702281 
L 251.762419 214.737694 
L 252.762419 214.795334 
L 253.762419 214.86572 
L 254.762419 214.917684 
L 255.762419 214.976774 
L 256.762419 215.065095 
L 257.762419 215.111239 
L 258.762419 215.15365 
L 259.762419 215.184143 
L 260.762419 215.210188 
L 261.762419 215.231388 
L 262.762419 215.285689 
L 263.762419 215.313627 
L 264.762419 215.343351 
L 265.762419 215.368745 
L 266.762419 215.379946 
L 267.762419 215.39007 
L 268.762419 215.389865 
L 269.762419 215.380356 
L 270.762419 215.368702 
L 271.762419 215.337673 
L 272.762419 215.326505 
L 273.762419 215.296387 
L 274.762419 215.23661 
L 275.762419 215.199419 
L 276.762419 215.160323 
L 277.762419 215.117883 
L 278.762419 215.085118 
L 279.762419 215.017692 
L 280.762419 214.978566 
L 281.762419 214.935891 
L 282.762419 214.86531 
L 283.762419 214.82892 
L 284.762419 214.770516 
L 285.762419 214.659564 
L 286.762419 214.588906 
L 287.762419 214.475966 
L 288.762419 214.430193 
L 289.762419 214.36891 
L 290.762419 214.32041 
L 291.762419 214.239588 
L 292.762419 214.121069 
L 293.762419 214.050858 
L 294.762419 213.967596 
L 296.618831 213.934454 
" clip-path="url(#pcfe69cb0fe)" style="fill: none; stroke: #1f77b4; stroke-opacity: 0.5; stroke-width: 0.2; stroke-linecap: square"/>
   <path d="M 244.762419 238.610212 
L 245.762419 238.641648 
L 246.762419 238.678588 
L 247.762419 238.776335 
L 248.762419 238.808856 
L 249.762419 238.882481 
L 250.762419 238.921047 
L 251.762419 238.95646 
L 252.762419 239.0141 
L 253.762419 239.084486 
L 254.762419 239.13645 
L 255.762419 239.19554 
L 256.762419 239.283861 
L 257.762419 239.330005 
L 258.762419 239.372416 
L 259.762419 239.402909 
L 260.762419 239.428954 
L 261.762419 239.450154 
L 262.762419 239.504455 
L 263.762419 239.532393 
L 264.762419 239.562117 
L 265.762419 239.587511 
L 266.762419 239.598712 
L 267.762419 239.608836 
L 268.762419 239.608631 
L 269.762419 239.599121 
L 270.762419 239.587468 
L 271.762419 239.556439 
L 272.762419 239.545271 
L 273.762419 239.515153 
L 274.762419 239.455376 
L 275.762419 239.418185 
L 276.762419 239.379089 
L 277.762419 239.336649 
L 278.762419 239.303884 
L 279.762419 239.236457 
L 280.762419 239.197331 
L 281.762419 239.154657 
L 282.762419 239.084076 
L 283.762419 239.047685 
L 284.762419 238.989282 
L 285.762419 238.87833 
L 286.762419 238.807671 
L 287.762419 238.694732 
L 288.762419 238.648959 
L 289.762419 238.587675 
L 290.762419 238.539176 
L 291.762419 238.458353 
L 292.762419 238.339835 
L 293.762419 238.269624 
L 294.762419 238.186361 
L 296.618831 238.15322 
" clip-path="url(#pcfe69cb0fe)" style="fill: none; stroke: #1f77b4; stroke-opacity: 0.5; stroke-width: 0.2; stroke-linecap: square"/>
   <path d="M 244.762419 200.929648 
L 245.762419 200.961084 
L 246.762419 200.998025 
L 247.762419 201.095771 
L 248.762419 201.128293 
L 249.762419 201.201917 
L 250.762419 201.240483 
L 251.762419 201.275896 
L 252.762419 201.333536 
L 253.762419 201.403922 
L 254.762419 201.455886 
L 255.762419 201.514976 
L 256.762419 201.603297 
L 257.762419 201.649442 
L 258.762419 201.691852 
L 259.762419 201.722345 
L 260.762419 201.74839 
L 261.762419 201.76959 
L 262.762419 201.823891 
L 263.762419 201.851829 
L 264.762419 201.881553 
L 265.762419 201.906948 
L 266.762419 201.918148 
L 267.762419 201.928272 
L 268.762419 201.928068 
L 269.762419 201.918558 
L 270.762419 201.906904 
L 271.762419 201.875875 
L 272.762419 201.864707 
L 273.762419 201.834589 
L 274.762419 201.774813 
L 275.762419 201.737621 
L 276.762419 201.698525 
L 277.762419 201.656085 
L 278.762419 201.62332 
L 279.762419 201.555894 
L 280.762419 201.516768 
L 281.762419 201.474093 
L 282.762419 201.403513 
L 283.762419 201.367122 
L 284.762419 201.308719 
L 285.762419 201.197766 
L 286.762419 201.127108 
L 287.762419 201.014168 
L 288.762419 200.968395 
L 289.762419 200.907112 
L 290.762419 200.858612 
L 291.762419 200.77779 
L 292.762419 200.659271 
L 293.762419 200.58906 
L 294.762419 200.505798 
L 296.618831 200.472656 
" clip-path="url(#pcfe69cb0fe)" style="fill: none; stroke: #1f77b4; stroke-opacity: 0.5; stroke-width: 0.2; stroke-linecap: square"/>
   <path d="M 244.762419 205.7577 
L 245.762419 205.789137 
L 246.762419 205.826077 
L 247.762419 205.923824 
L 248.762419 205.956345 
L 249.762419 206.02997 
L 250.762419 206.068536 
L 251.762419 206.103949 
L 252.762419 206.161589 
L 253.762419 206.231975 
L 254.762419 206.283939 
L 255.762419 206.343029 
L 256.762419 206.43135 
L 257.762419 206.477494 
L 258.762419 206.519905 
L 259.762419 206.550398 
L 260.762419 206.576443 
L 261.762419 206.597643 
L 262.762419 206.651944 
L 263.762419 206.679882 
L 264.762419 206.709605 
L 265.762419 206.735 
L 266.762419 206.746201 
L 267.762419 206.756325 
L 268.762419 206.75612 
L 269.762419 206.74661 
L 270.762419 206.734957 
L 271.762419 206.703928 
L 272.762419 206.69276 
L 273.762419 206.662642 
L 274.762419 206.602865 
L 275.762419 206.565674 
L 276.762419 206.526578 
L 277.762419 206.484138 
L 278.762419 206.451373 
L 279.762419 206.383946 
L 280.762419 206.34482 
L 281.762419 206.302146 
L 282.762419 206.231565 
L 283.762419 206.195174 
L 284.762419 206.136771 
L 285.762419 206.025819 
L 286.762419 205.95516 
L 287.762419 205.842221 
L 288.762419 205.796448 
L 289.762419 205.735164 
L 290.762419 205.686665 
L 291.762419 205.605842 
L 292.762419 205.487323 
L 293.762419 205.417113 
L 294.762419 205.33385 
L 296.618831 205.300709 
" clip-path="url(#pcfe69cb0fe)" style="fill: none; stroke: #1f77b4; stroke-opacity: 0.5; stroke-width: 0.2; stroke-linecap: square"/>
   <path d="M 244.762419 228.33977 
L 245.762419 228.371207 
L 246.762419 228.408147 
L 247.762419 228.505894 
L 248.762419 228.538415 
L 249.762419 228.61204 
L 250.762419 228.650605 
L 251.762419 228.686019 
L 252.762419 228.743659 
L 253.762419 228.814045 
L 254.762419 228.866009 
L 255.762419 228.925099 
L 256.762419 229.01342 
L 257.762419 229.059564 
L 258.762419 229.101975 
L 259.762419 229.132468 
L 260.762419 229.158513 
L 261.762419 229.179713 
L 262.762419 229.234014 
L 263.762419 229.261951 
L 264.762419 229.291675 
L 265.762419 229.31707 
L 266.762419 229.32827 
L 267.762419 229.338394 
L 268.762419 229.33819 
L 269.762419 229.32868 
L 270.762419 229.317027 
L 271.762419 229.285997 
L 272.762419 229.274829 
L 273.762419 229.244712 
L 274.762419 229.184935 
L 275.762419 229.147743 
L 276.762419 229.108647 
L 277.762419 229.066208 
L 278.762419 229.033443 
L 279.762419 228.966016 
L 280.762419 228.92689 
L 281.762419 228.884216 
L 282.762419 228.813635 
L 283.762419 228.777244 
L 284.762419 228.718841 
L 285.762419 228.607888 
L 286.762419 228.53723 
L 287.762419 228.42429 
L 288.762419 228.378517 
L 289.762419 228.317234 
L 290.762419 228.268735 
L 291.762419 228.187912 
L 292.762419 228.069393 
L 293.762419 227.999183 
L 294.762419 227.91592 
L 296.618831 227.882778 
" clip-path="url(#pcfe69cb0fe)" style="fill: none; stroke: #1f77b4; stroke-opacity: 0.5; stroke-width: 0.2; stroke-linecap: square"/>
   <path d="M 244.762419 251.503403 
L 245.762419 251.534839 
L 246.762419 251.571779 
L 247.762419 251.669526 
L 248.762419 251.702047 
L 249.762419 251.775672 
L 250.762419 251.814238 
L 251.762419 251.849651 
L 252.762419 251.907291 
L 253.762419 251.977677 
L 254.762419 252.029641 
L 255.762419 252.088731 
L 256.762419 252.177052 
L 257.762419 252.223196 
L 258.762419 252.265607 
L 259.762419 252.2961 
L 260.762419 252.322145 
L 261.762419 252.343345 
L 262.762419 252.397646 
L 263.762419 252.425584 
L 264.762419 252.455308 
L 265.762419 252.480702 
L 266.762419 252.491903 
L 267.762419 252.502027 
L 268.762419 252.501822 
L 269.762419 252.492312 
L 270.762419 252.480659 
L 271.762419 252.44963 
L 272.762419 252.438462 
L 273.762419 252.408344 
L 274.762419 252.348567 
L 275.762419 252.311376 
L 276.762419 252.27228 
L 277.762419 252.22984 
L 278.762419 252.197075 
L 279.762419 252.129648 
L 280.762419 252.090522 
L 281.762419 252.047848 
L 282.762419 251.977267 
L 283.762419 251.940876 
L 284.762419 251.882473 
L 285.762419 251.771521 
L 286.762419 251.700862 
L 287.762419 251.587923 
L 288.762419 251.54215 
L 289.762419 251.480866 
L 290.762419 251.432367 
L 291.762419 251.351544 
L 292.762419 251.233026 
L 293.762419 251.162815 
L 294.762419 251.079552 
L 296.618831 251.046411 
" clip-path="url(#pcfe69cb0fe)" style="fill: none; stroke: #1f77b4; stroke-opacity: 0.5; stroke-width: 0.2; stroke-linecap: square"/>
   <g id="patch_3">
    <path d="M 64.409375 22.318125 
L 64.409375 260.421875 
M 240.224232 22.318125 
L 240.224232 260.421875 
" clip-path="url(#pcfe69cb0fe)" style="fill: none; stroke: #ffffff; stroke-width: 3; stroke-linejoin: miter"/>
    <path d="M 64.409375 22.318125 
L 64.409375 260.421875 
M 240.224232 22.318125 
L 240.224232 260.421875 
" clip-path="url(#pcfe69cb0fe)" style="fill: none; stroke: #1f77b4; stroke-linejoin: miter"/>
    <g id="PolyCollection_1">
     <path d="M 240.224232 22.318125 
L 64.409375 22.318125 
L 64.409375 260.421875 
L 240.224232 260.421875 
L 240.224232 260.421875 
L 240.224232 22.318125 
z
" clip-path="url(#pcfe69cb0fe)" style="fill: #1f77b4; fill-opacity: 0.5"/>
    </g>
    <g id="patch_4">
     <path d="M 301.157018 22.318125 
L 301.157018 260.421875 
M 476.971875 22.318125 
L 476.971875 260.421875 
" clip-path="url(#pcfe69cb0fe)" style="fill: none; stroke: #ffffff; stroke-width: 3; stroke-linejoin: miter"/>
     <path d="M 301.157018 22.318125 
L 301.157018 260.421875 
M 476.971875 22.318125 
L 476.971875 260.421875 
" clip-path="url(#pcfe69cb0fe)" style="fill: none; stroke: #ff7f0e; stroke-linejoin: miter"/>
     <g id="PolyCollection_2">
      <path d="M 476.971875 22.318125 
L 301.157018 22.318125 
L 301.157018 260.421875 
L 476.971875 260.421875 
L 476.971875 260.421875 
L 476.971875 22.318125 
z
" clip-path="url(#pcfe69cb0fe)" style="fill: #ff7f0e; fill-opacity: 0.5"/>
     </g>
     <g id="matplotlib.axis_1">
      <g id="xtick_1">
       <g id="line2d_1"/>
       <g id="text_1">
        <!-- deme0 -->
        <g transform="translate(134.937897 271.520312)scale(0.1 -0.1)">
         <defs>
          <path id="DejaVuSans-64" d="M 2906 2969 
L 2906 4863 
L 3481 4863 
L 3481 0 
L 2906 0 
L 2906 525 
Q 2725 213 2448 61 
Q 2172 -91 1784 -91 
Q 1150 -91 751 415 
Q 353 922 353 1747 
Q 353 2572 751 3078 
Q 1150 3584 1784 3584 
Q 2172 3584 2448 3432 
Q 2725 3281 2906 2969 
z
M 947 1747 
Q 947 1113 1208 752 
Q 1469 391 1925 391 
Q 2381 391 2643 752 
Q 2906 1113 2906 1747 
Q 2906 2381 2643 2742 
Q 2381 3103 1925 3103 
Q 1469 3103 1208 2742 
Q 947 2381 947 1747 
z
" transform="scale(0.015625)"/>
          <path id="DejaVuSans-65" d="M 3597 1894 
L 3597 1613 
L 953 1613 
Q 991 1019 1311 708 
Q 1631 397 2203 397 
Q 2534 397 2845 478 
Q 3156 559 3463 722 
L 3463 178 
Q 3153 47 2828 -22 
Q 2503 -91 2169 -91 
Q 1331 -91 842 396 
Q 353 884 353 1716 
Q 353 2575 817 3079 
Q 1281 3584 2069 3584 
Q 2775 3584 3186 3129 
Q 3597 2675 3597 1894 
z
M 3022 2063 
Q 3016 2534 2758 2815 
Q 2500 3097 2075 3097 
Q 1594 3097 1305 2825 
Q 1016 2553 972 2059 
L 3022 2063 
z
" transform="scale(0.015625)"/>
          <path id="DejaVuSans-6d" d="M 3328 2828 
Q 3544 3216 3844 3400 
Q 4144 3584 4550 3584 
Q 5097 3584 5394 3201 
Q 5691 2819 5691 2113 
L 5691 0 
L 5113 0 
L 5113 2094 
Q 5113 2597 4934 2840 
Q 4756 3084 4391 3084 
Q 3944 3084 3684 2787 
Q 3425 2491 3425 1978 
L 3425 0 
L 2847 0 
L 2847 2094 
Q 2847 2600 2669 2842 
Q 2491 3084 2119 3084 
Q 1678 3084 1418 2786 
Q 1159 2488 1159 1978 
L 1159 0 
L 581 0 
L 581 3500 
L 1159 3500 
L 1159 2956 
Q 1356 3278 1631 3431 
Q 1906 3584 2284 3584 
Q 2666 3584 2933 3390 
Q 3200 3197 3328 2828 
z
" transform="scale(0.015625)"/>
          <path id="DejaVuSans-30" d="M 2034 4250 
Q 1547 4250 1301 3770 
Q 1056 3291 1056 2328 
Q 1056 1369 1301 889 
Q 1547 409 2034 409 
Q 2525 409 2770 889 
Q 3016 1369 3016 2328 
Q 3016 3291 2770 3770 
Q 2525 4250 2034 4250 
z
M 2034 4750 
Q 2819 4750 3233 4129 
Q 3647 3509 3647 2328 
Q 3647 1150 3233 529 
Q 2819 -91 2034 -91 
Q 1250 -91 836 529 
Q 422 1150 422 2328 
Q 422 3509 836 4129 
Q 1250 4750 2034 4750 
z
" transform="scale(0.015625)"/>
         </defs>
         <use xlink:href="#DejaVuSans-64"/>
         <use xlink:href="#DejaVuSans-65" x="63.476562"/>
         <use xlink:href="#DejaVuSans-6d" x="125"/>
         <use xlink:href="#DejaVuSans-65" x="222.412109"/>
         <use xlink:href="#DejaVuSans-30" x="283.935547"/>
        </g>
       </g>
      </g>
      <g id="xtick_2">
       <g id="line2d_2"/>
       <g id="text_2">
        <!-- deme1 -->
        <g transform="translate(371.68554 271.520312)scale(0.1 -0.1)">
         <defs>
          <path id="DejaVuSans-31" d="M 794 531 
L 1825 531 
L 1825 4091 
L 703 3866 
L 703 4441 
L 1819 4666 
L 2450 4666 
L 2450 531 
L 3481 531 
L 3481 0 
L 794 0 
L 794 531 
z
" transform="scale(0.015625)"/>
         </defs>
         <use xlink:href="#DejaVuSans-64"/>
         <use xlink:href="#DejaVuSans-65" x="63.476562"/>
         <use xlink:href="#DejaVuSans-6d" x="125"/>
         <use xlink:href="#DejaVuSans-65" x="222.412109"/>
         <use xlink:href="#DejaVuSans-31" x="283.935547"/>
        </g>
       </g>
      </g>
     </g>
     <g id="matplotlib.axis_2">
      <g id="ytick_1">
       <g id="line2d_3">
        <defs>
         <path id="md21171ac7c" d="M 0 0 
L -3.5 0 
" style="stroke: #000000; stroke-width: 0.8"/>
        </defs>
        <g>
         <use xlink:href="#md21171ac7c" x="43.78125" y="260.421875" style="stroke: #000000; stroke-width: 0.8"/>
        </g>
       </g>
       <g id="text_3">
        <!-- 0.0 -->
        <g transform="translate(20.878125 264.221094)scale(0.1 -0.1)">
         <defs>
          <path id="DejaVuSans-2e" d="M 684 794 
L 1344 794 
L 1344 0 
L 684 0 
L 684 794 
z
" transform="scale(0.015625)"/>
         </defs>
         <use xlink:href="#DejaVuSans-30"/>
         <use xlink:href="#DejaVuSans-2e" x="63.623047"/>
         <use xlink:href="#DejaVuSans-30" x="95.410156"/>
        </g>
       </g>
      </g>
      <g id="ytick_2">
       <g id="line2d_4">
        <g>
         <use xlink:href="#md21171ac7c" x="43.78125" y="212.801125" style="stroke: #000000; stroke-width: 0.8"/>
        </g>
       </g>
       <g id="text_4">
        <!-- 0.5 -->
        <g transform="translate(20.878125 216.600344)scale(0.1 -0.1)">
         <defs>
          <path id="DejaVuSans-35" d="M 691 4666 
L 3169 4666 
L 3169 4134 
L 1269 4134 
L 1269 2991 
Q 1406 3038 1543 3061 
Q 1681 3084 1819 3084 
Q 2600 3084 3056 2656 
Q 3513 2228 3513 1497 
Q 3513 744 3044 326 
Q 2575 -91 1722 -91 
Q 1428 -91 1123 -41 
Q 819 9 494 109 
L 494 744 
Q 775 591 1075 516 
Q 1375 441 1709 441 
Q 2250 441 2565 725 
Q 2881 1009 2881 1497 
Q 2881 1984 2565 2268 
Q 2250 2553 1709 2553 
Q 1456 2553 1204 2497 
Q 953 2441 691 2322 
L 691 4666 
z
" transform="scale(0.015625)"/>
         </defs>
         <use xlink:href="#DejaVuSans-30"/>
         <use xlink:href="#DejaVuSans-2e" x="63.623047"/>
         <use xlink:href="#DejaVuSans-35" x="95.410156"/>
        </g>
       </g>
      </g>
      <g id="ytick_3">
       <g id="line2d_5">
        <g>
         <use xlink:href="#md21171ac7c" x="43.78125" y="165.180375" style="stroke: #000000; stroke-width: 0.8"/>
        </g>
       </g>
       <g id="text_5">
        <!-- 1.0 -->
        <g transform="translate(20.878125 168.979594)scale(0.1 -0.1)">
         <use xlink:href="#DejaVuSans-31"/>
         <use xlink:href="#DejaVuSans-2e" x="63.623047"/>
         <use xlink:href="#DejaVuSans-30" x="95.410156"/>
        </g>
       </g>
      </g>
      <g id="ytick_4">
       <g id="line2d_6">
        <g>
         <use xlink:href="#md21171ac7c" x="43.78125" y="117.559625" style="stroke: #000000; stroke-width: 0.8"/>
        </g>
       </g>
       <g id="text_6">
        <!-- 1.5 -->
        <g transform="translate(20.878125 121.358844)scale(0.1 -0.1)">
         <use xlink:href="#DejaVuSans-31"/>
         <use xlink:href="#DejaVuSans-2e" x="63.623047"/>
         <use xlink:href="#DejaVuSans-35" x="95.410156"/>
        </g>
       </g>
      </g>
      <g id="ytick_5">
       <g id="line2d_7">
        <g>
         <use xlink:href="#md21171ac7c" x="43.78125" y="69.938875" style="stroke: #000000; stroke-width: 0.8"/>
        </g>
       </g>
       <g id="text_7">
        <!-- 2.0 -->
        <g transform="translate(20.878125 73.738094)scale(0.1 -0.1)">
         <defs>
          <path id="DejaVuSans-32" d="M 1228 531 
L 3431 531 
L 3431 0 
L 469 0 
L 469 531 
Q 828 903 1448 1529 
Q 2069 2156 2228 2338 
Q 2531 2678 2651 2914 
Q 2772 3150 2772 3378 
Q 2772 3750 2511 3984 
Q 2250 4219 1831 4219 
Q 1534 4219 1204 4116 
Q 875 4013 500 3803 
L 500 4441 
Q 881 4594 1212 4672 
Q 1544 4750 1819 4750 
Q 2544 4750 2975 4387 
Q 3406 4025 3406 3419 
Q 3406 3131 3298 2873 
Q 3191 2616 2906 2266 
Q 2828 2175 2409 1742 
Q 1991 1309 1228 531 
z
" transform="scale(0.015625)"/>
         </defs>
         <use xlink:href="#DejaVuSans-32"/>
         <use xlink:href="#DejaVuSans-2e" x="63.623047"/>
         <use xlink:href="#DejaVuSans-30" x="95.410156"/>
        </g>
       </g>
      </g>
      <g id="ytick_6">
       <g id="line2d_8">
        <g>
         <use xlink:href="#md21171ac7c" x="43.78125" y="22.318125" style="stroke: #000000; stroke-width: 0.8"/>
        </g>
       </g>
       <g id="text_8">
        <!-- 2.5 -->
        <g transform="translate(20.878125 26.117344)scale(0.1 -0.1)">
         <use xlink:href="#DejaVuSans-32"/>
         <use xlink:href="#DejaVuSans-2e" x="63.623047"/>
         <use xlink:href="#DejaVuSans-35" x="95.410156"/>
        </g>
       </g>
      </g>
      <g id="text_9">
       <!-- time ago (generations) -->
       <g transform="translate(14.798438 198.841094)rotate(-90)scale(0.1 -0.1)">
        <defs>
         <path id="DejaVuSans-74" d="M 1172 4494 
L 1172 3500 
L 2356 3500 
L 2356 3053 
L 1172 3053 
L 1172 1153 
Q 1172 725 1289 603 
Q 1406 481 1766 481 
L 2356 481 
L 2356 0 
L 1766 0 
Q 1100 0 847 248 
Q 594 497 594 1153 
L 594 3053 
L 172 3053 
L 172 3500 
L 594 3500 
L 594 4494 
L 1172 4494 
z
" transform="scale(0.015625)"/>
         <path id="DejaVuSans-69" d="M 603 3500 
L 1178 3500 
L 1178 0 
L 603 0 
L 603 3500 
z
M 603 4863 
L 1178 4863 
L 1178 4134 
L 603 4134 
L 603 4863 
z
" transform="scale(0.015625)"/>
         <path id="DejaVuSans-20" transform="scale(0.015625)"/>
         <path id="DejaVuSans-61" d="M 2194 1759 
Q 1497 1759 1228 1600 
Q 959 1441 959 1056 
Q 959 750 1161 570 
Q 1363 391 1709 391 
Q 2188 391 2477 730 
Q 2766 1069 2766 1631 
L 2766 1759 
L 2194 1759 
z
M 3341 1997 
L 3341 0 
L 2766 0 
L 2766 531 
Q 2569 213 2275 61 
Q 1981 -91 1556 -91 
Q 1019 -91 701 211 
Q 384 513 384 1019 
Q 384 1609 779 1909 
Q 1175 2209 1959 2209 
L 2766 2209 
L 2766 2266 
Q 2766 2663 2505 2880 
Q 2244 3097 1772 3097 
Q 1472 3097 1187 3025 
Q 903 2953 641 2809 
L 641 3341 
Q 956 3463 1253 3523 
Q 1550 3584 1831 3584 
Q 2591 3584 2966 3190 
Q 3341 2797 3341 1997 
z
" transform="scale(0.015625)"/>
         <path id="DejaVuSans-67" d="M 2906 1791 
Q 2906 2416 2648 2759 
Q 2391 3103 1925 3103 
Q 1463 3103 1205 2759 
Q 947 2416 947 1791 
Q 947 1169 1205 825 
Q 1463 481 1925 481 
Q 2391 481 2648 825 
Q 2906 1169 2906 1791 
z
M 3481 434 
Q 3481 -459 3084 -895 
Q 2688 -1331 1869 -1331 
Q 1566 -1331 1297 -1286 
Q 1028 -1241 775 -1147 
L 775 -588 
Q 1028 -725 1275 -790 
Q 1522 -856 1778 -856 
Q 2344 -856 2625 -561 
Q 2906 -266 2906 331 
L 2906 616 
Q 2728 306 2450 153 
Q 2172 0 1784 0 
Q 1141 0 747 490 
Q 353 981 353 1791 
Q 353 2603 747 3093 
Q 1141 3584 1784 3584 
Q 2172 3584 2450 3431 
Q 2728 3278 2906 2969 
L 2906 3500 
L 3481 3500 
L 3481 434 
z
" transform="scale(0.015625)"/>
         <path id="DejaVuSans-6f" d="M 1959 3097 
Q 1497 3097 1228 2736 
Q 959 2375 959 1747 
Q 959 1119 1226 758 
Q 1494 397 1959 397 
Q 2419 397 2687 759 
Q 2956 1122 2956 1747 
Q 2956 2369 2687 2733 
Q 2419 3097 1959 3097 
z
M 1959 3584 
Q 2709 3584 3137 3096 
Q 3566 2609 3566 1747 
Q 3566 888 3137 398 
Q 2709 -91 1959 -91 
Q 1206 -91 779 398 
Q 353 888 353 1747 
Q 353 2609 779 3096 
Q 1206 3584 1959 3584 
z
" transform="scale(0.015625)"/>
         <path id="DejaVuSans-28" d="M 1984 4856 
Q 1566 4138 1362 3434 
Q 1159 2731 1159 2009 
Q 1159 1288 1364 580 
Q 1569 -128 1984 -844 
L 1484 -844 
Q 1016 -109 783 600 
Q 550 1309 550 2009 
Q 550 2706 781 3412 
Q 1013 4119 1484 4856 
L 1984 4856 
z
" transform="scale(0.015625)"/>
         <path id="DejaVuSans-6e" d="M 3513 2113 
L 3513 0 
L 2938 0 
L 2938 2094 
Q 2938 2591 2744 2837 
Q 2550 3084 2163 3084 
Q 1697 3084 1428 2787 
Q 1159 2491 1159 1978 
L 1159 0 
L 581 0 
L 581 3500 
L 1159 3500 
L 1159 2956 
Q 1366 3272 1645 3428 
Q 1925 3584 2291 3584 
Q 2894 3584 3203 3211 
Q 3513 2838 3513 2113 
z
" transform="scale(0.015625)"/>
         <path id="DejaVuSans-72" d="M 2631 2963 
Q 2534 3019 2420 3045 
Q 2306 3072 2169 3072 
Q 1681 3072 1420 2755 
Q 1159 2438 1159 1844 
L 1159 0 
L 581 0 
L 581 3500 
L 1159 3500 
L 1159 2956 
Q 1341 3275 1631 3429 
Q 1922 3584 2338 3584 
Q 2397 3584 2469 3576 
Q 2541 3569 2628 3553 
L 2631 2963 
z
" transform="scale(0.015625)"/>
         <path id="DejaVuSans-73" d="M 2834 3397 
L 2834 2853 
Q 2591 2978 2328 3040 
Q 2066 3103 1784 3103 
Q 1356 3103 1142 2972 
Q 928 2841 928 2578 
Q 928 2378 1081 2264 
Q 1234 2150 1697 2047 
L 1894 2003 
Q 2506 1872 2764 1633 
Q 3022 1394 3022 966 
Q 3022 478 2636 193 
Q 2250 -91 1575 -91 
Q 1294 -91 989 -36 
Q 684 19 347 128 
L 347 722 
Q 666 556 975 473 
Q 1284 391 1588 391 
Q 1994 391 2212 530 
Q 2431 669 2431 922 
Q 2431 1156 2273 1281 
Q 2116 1406 1581 1522 
L 1381 1569 
Q 847 1681 609 1914 
Q 372 2147 372 2553 
Q 372 3047 722 3315 
Q 1072 3584 1716 3584 
Q 2034 3584 2315 3537 
Q 2597 3491 2834 3397 
z
" transform="scale(0.015625)"/>
         <path id="DejaVuSans-29" d="M 513 4856 
L 1013 4856 
Q 1481 4119 1714 3412 
Q 1947 2706 1947 2009 
Q 1947 1309 1714 600 
Q 1481 -109 1013 -844 
L 513 -844 
Q 928 -128 1133 580 
Q 1338 1288 1338 2009 
Q 1338 2731 1133 3434 
Q 928 4138 513 4856 
z
" transform="scale(0.015625)"/>
        </defs>
        <use xlink:href="#DejaVuSans-74"/>
        <use xlink:href="#DejaVuSans-69" x="39.208984"/>
        <use xlink:href="#DejaVuSans-6d" x="66.992188"/>
        <use xlink:href="#DejaVuSans-65" x="164.404297"/>
        <use xlink:href="#DejaVuSans-20" x="225.927734"/>
        <use xlink:href="#DejaVuSans-61" x="257.714844"/>
        <use xlink:href="#DejaVuSans-67" x="318.994141"/>
        <use xlink:href="#DejaVuSans-6f" x="382.470703"/>
        <use xlink:href="#DejaVuSans-20" x="443.652344"/>
        <use xlink:href="#DejaVuSans-28" x="475.439453"/>
        <use xlink:href="#DejaVuSans-67" x="514.453125"/>
        <use xlink:href="#DejaVuSans-65" x="577.929688"/>
        <use xlink:href="#DejaVuSans-6e" x="639.453125"/>
        <use xlink:href="#DejaVuSans-65" x="702.832031"/>
        <use xlink:href="#DejaVuSans-72" x="764.355469"/>
        <use xlink:href="#DejaVuSans-61" x="805.46875"/>
        <use xlink:href="#DejaVuSans-74" x="866.748047"/>
        <use xlink:href="#DejaVuSans-69" x="905.957031"/>
        <use xlink:href="#DejaVuSans-6f" x="933.740234"/>
        <use xlink:href="#DejaVuSans-6e" x="994.921875"/>
        <use xlink:href="#DejaVuSans-73" x="1058.300781"/>
        <use xlink:href="#DejaVuSans-29" x="1110.400391"/>
       </g>
      </g>
     </g>
     <path d="M 243.762419 72.547148 
L 245.762419 73.547148 
L 245.762419 71.547148 
z
" clip-path="url(#pcfe69cb0fe)" style="fill: #ff7f0e; fill-opacity: 0.5; stroke: #ff7f0e; stroke-opacity: 0.5; stroke-linejoin: miter"/>
     <path d="M 243.762419 101.726968 
L 245.762419 102.726968 
L 245.762419 100.726968 
z
" clip-path="url(#pcfe69cb0fe)" style="fill: #ff7f0e; fill-opacity: 0.5; stroke: #ff7f0e; stroke-opacity: 0.5; stroke-linejoin: miter"/>
     <path d="M 243.762419 73.325527 
L 245.762419 74.325527 
L 245.762419 72.325527 
z
" clip-path="url(#pcfe69cb0fe)" style="fill: #ff7f0e; fill-opacity: 0.5; stroke: #ff7f0e; stroke-opacity: 0.5; stroke-linejoin: miter"/>
     <path d="M 243.762419 153.923616 
L 245.762419 154.923616 
L 245.762419 152.923616 
z
" clip-path="url(#pcfe69cb0fe)" style="fill: #ff7f0e; fill-opacity: 0.5; stroke: #ff7f0e; stroke-opacity: 0.5; stroke-linejoin: miter"/>
     <path d="M 243.762419 88.757806 
L 245.762419 89.757806 
L 245.762419 87.757806 
z
" clip-path="url(#pcfe69cb0fe)" style="fill: #ff7f0e; fill-opacity: 0.5; stroke: #ff7f0e; stroke-opacity: 0.5; stroke-linejoin: miter"/>
     <path d="M 243.762419 129.826297 
L 245.762419 130.826297 
L 245.762419 128.826297 
z
" clip-path="url(#pcfe69cb0fe)" style="fill: #ff7f0e; fill-opacity: 0.5; stroke: #ff7f0e; stroke-opacity: 0.5; stroke-linejoin: miter"/>
     <path d="M 243.762419 163.707127 
L 245.762419 164.707127 
L 245.762419 162.707127 
z
" clip-path="url(#pcfe69cb0fe)" style="fill: #ff7f0e; fill-opacity: 0.5; stroke: #ff7f0e; stroke-opacity: 0.5; stroke-linejoin: miter"/>
     <path d="M 243.762419 127.341416 
L 245.762419 128.341416 
L 245.762419 126.341416 
z
" clip-path="url(#pcfe69cb0fe)" style="fill: #ff7f0e; fill-opacity: 0.5; stroke: #ff7f0e; stroke-opacity: 0.5; stroke-linejoin: miter"/>
     <path d="M 243.762419 79.039625 
L 245.762419 80.039625 
L 245.762419 78.039625 
z
" clip-path="url(#pcfe69cb0fe)" style="fill: #ff7f0e; fill-opacity: 0.5; stroke: #ff7f0e; stroke-opacity: 0.5; stroke-linejoin: miter"/>
     <path d="M 243.762419 115.666666 
L 245.762419 116.666666 
L 245.762419 114.666666 
z
" clip-path="url(#pcfe69cb0fe)" style="fill: #ff7f0e; fill-opacity: 0.5; stroke: #ff7f0e; stroke-opacity: 0.5; stroke-linejoin: miter"/>
     <path d="M 297.618831 125.56467 
L 295.618831 124.56467 
L 295.618831 126.56467 
z
" clip-path="url(#pcfe69cb0fe)" style="fill: #1f77b4; fill-opacity: 0.5; stroke: #1f77b4; stroke-opacity: 0.5; stroke-linejoin: miter"/>
     <path d="M 297.618831 93.107293 
L 295.618831 92.107293 
L 295.618831 94.107293 
z
" clip-path="url(#pcfe69cb0fe)" style="fill: #1f77b4; fill-opacity: 0.5; stroke: #1f77b4; stroke-opacity: 0.5; stroke-linejoin: miter"/>
     <path d="M 297.618831 108.954676 
L 295.618831 107.954676 
L 295.618831 109.954676 
z
" clip-path="url(#pcfe69cb0fe)" style="fill: #1f77b4; fill-opacity: 0.5; stroke: #1f77b4; stroke-opacity: 0.5; stroke-linejoin: miter"/>
     <path d="M 297.618831 113.338616 
L 295.618831 112.338616 
L 295.618831 114.338616 
z
" clip-path="url(#pcfe69cb0fe)" style="fill: #1f77b4; fill-opacity: 0.5; stroke: #1f77b4; stroke-opacity: 0.5; stroke-linejoin: miter"/>
     <path d="M 297.618831 151.954045 
L 295.618831 150.954045 
L 295.618831 152.954045 
z
" clip-path="url(#pcfe69cb0fe)" style="fill: #1f77b4; fill-opacity: 0.5; stroke: #1f77b4; stroke-opacity: 0.5; stroke-linejoin: miter"/>
     <path d="M 297.618831 121.968492 
L 295.618831 120.968492 
L 295.618831 122.968492 
z
" clip-path="url(#pcfe69cb0fe)" style="fill: #1f77b4; fill-opacity: 0.5; stroke: #1f77b4; stroke-opacity: 0.5; stroke-linejoin: miter"/>
     <path d="M 297.618831 155.194428 
L 295.618831 154.194428 
L 295.618831 156.194428 
z
" clip-path="url(#pcfe69cb0fe)" style="fill: #1f77b4; fill-opacity: 0.5; stroke: #1f77b4; stroke-opacity: 0.5; stroke-linejoin: miter"/>
     <path d="M 297.618831 80.734345 
L 295.618831 79.734345 
L 295.618831 81.734345 
z
" clip-path="url(#pcfe69cb0fe)" style="fill: #1f77b4; fill-opacity: 0.5; stroke: #1f77b4; stroke-opacity: 0.5; stroke-linejoin: miter"/>
     <path d="M 297.618831 105.508585 
L 295.618831 104.508585 
L 295.618831 106.508585 
z
" clip-path="url(#pcfe69cb0fe)" style="fill: #1f77b4; fill-opacity: 0.5; stroke: #1f77b4; stroke-opacity: 0.5; stroke-linejoin: miter"/>
     <path d="M 297.618831 162.665898 
L 295.618831 161.665898 
L 295.618831 163.665898 
z
" clip-path="url(#pcfe69cb0fe)" style="fill: #1f77b4; fill-opacity: 0.5; stroke: #1f77b4; stroke-opacity: 0.5; stroke-linejoin: miter"/>
     <path d="M 243.762419 259.447354 
L 245.762419 260.447354 
L 245.762419 258.447354 
z
" clip-path="url(#pcfe69cb0fe)" style="fill: #ff7f0e; fill-opacity: 0.5; stroke: #ff7f0e; stroke-opacity: 0.5; stroke-linejoin: miter"/>
     <path d="M 243.762419 197.150197 
L 245.762419 198.150197 
L 245.762419 196.150197 
z
" clip-path="url(#pcfe69cb0fe)" style="fill: #ff7f0e; fill-opacity: 0.5; stroke: #ff7f0e; stroke-opacity: 0.5; stroke-linejoin: miter"/>
     <path d="M 243.762419 166.217595 
L 245.762419 167.217595 
L 245.762419 165.217595 
z
" clip-path="url(#pcfe69cb0fe)" style="fill: #ff7f0e; fill-opacity: 0.5; stroke: #ff7f0e; stroke-opacity: 0.5; stroke-linejoin: miter"/>
     <path d="M 243.762419 214.422633 
L 245.762419 215.422633 
L 245.762419 213.422633 
z
" clip-path="url(#pcfe69cb0fe)" style="fill: #ff7f0e; fill-opacity: 0.5; stroke: #ff7f0e; stroke-opacity: 0.5; stroke-linejoin: miter"/>
     <path d="M 243.762419 229.170603 
L 245.762419 230.170603 
L 245.762419 228.170603 
z
" clip-path="url(#pcfe69cb0fe)" style="fill: #ff7f0e; fill-opacity: 0.5; stroke: #ff7f0e; stroke-opacity: 0.5; stroke-linejoin: miter"/>
     <path d="M 243.762419 173.282026 
L 245.762419 174.282026 
L 245.762419 172.282026 
z
" clip-path="url(#pcfe69cb0fe)" style="fill: #ff7f0e; fill-opacity: 0.5; stroke: #ff7f0e; stroke-opacity: 0.5; stroke-linejoin: miter"/>
     <path d="M 243.762419 172.676773 
L 245.762419 173.676773 
L 245.762419 171.676773 
z
" clip-path="url(#pcfe69cb0fe)" style="fill: #ff7f0e; fill-opacity: 0.5; stroke: #ff7f0e; stroke-opacity: 0.5; stroke-linejoin: miter"/>
     <path d="M 243.762419 198.327422 
L 245.762419 199.327422 
L 245.762419 197.327422 
z
" clip-path="url(#pcfe69cb0fe)" style="fill: #ff7f0e; fill-opacity: 0.5; stroke: #ff7f0e; stroke-opacity: 0.5; stroke-linejoin: miter"/>
     <path d="M 243.762419 173.278734 
L 245.762419 174.278734 
L 245.762419 172.278734 
z
" clip-path="url(#pcfe69cb0fe)" style="fill: #ff7f0e; fill-opacity: 0.5; stroke: #ff7f0e; stroke-opacity: 0.5; stroke-linejoin: miter"/>
     <path d="M 243.762419 195.805413 
L 245.762419 196.805413 
L 245.762419 194.805413 
z
" clip-path="url(#pcfe69cb0fe)" style="fill: #ff7f0e; fill-opacity: 0.5; stroke: #ff7f0e; stroke-opacity: 0.5; stroke-linejoin: miter"/>
     <path d="M 297.618831 179.470593 
L 295.618831 178.470593 
L 295.618831 180.470593 
z
" clip-path="url(#pcfe69cb0fe)" style="fill: #1f77b4; fill-opacity: 0.5; stroke: #1f77b4; stroke-opacity: 0.5; stroke-linejoin: miter"/>
     <path d="M 297.618831 218.863596 
L 295.618831 217.863596 
L 295.618831 219.863596 
z
" clip-path="url(#pcfe69cb0fe)" style="fill: #1f77b4; fill-opacity: 0.5; stroke: #1f77b4; stroke-opacity: 0.5; stroke-linejoin: miter"/>
     <path d="M 297.618831 211.096599 
L 295.618831 210.096599 
L 295.618831 212.096599 
z
" clip-path="url(#pcfe69cb0fe)" style="fill: #1f77b4; fill-opacity: 0.5; stroke: #1f77b4; stroke-opacity: 0.5; stroke-linejoin: miter"/>
     <path d="M 297.618831 256.053113 
L 295.618831 255.053113 
L 295.618831 257.053113 
z
" clip-path="url(#pcfe69cb0fe)" style="fill: #1f77b4; fill-opacity: 0.5; stroke: #1f77b4; stroke-opacity: 0.5; stroke-linejoin: miter"/>
     <path d="M 297.618831 214.391446 
L 295.618831 213.391446 
L 295.618831 215.391446 
z
" clip-path="url(#pcfe69cb0fe)" style="fill: #1f77b4; fill-opacity: 0.5; stroke: #1f77b4; stroke-opacity: 0.5; stroke-linejoin: miter"/>
     <path d="M 297.618831 238.610212 
L 295.618831 237.610212 
L 295.618831 239.610212 
z
" clip-path="url(#pcfe69cb0fe)" style="fill: #1f77b4; fill-opacity: 0.5; stroke: #1f77b4; stroke-opacity: 0.5; stroke-linejoin: miter"/>
     <path d="M 297.618831 200.929648 
L 295.618831 199.929648 
L 295.618831 201.929648 
z
" clip-path="url(#pcfe69cb0fe)" style="fill: #1f77b4; fill-opacity: 0.5; stroke: #1f77b4; stroke-opacity: 0.5; stroke-linejoin: miter"/>
     <path d="M 297.618831 205.7577 
L 295.618831 204.7577 
L 295.618831 206.7577 
z
" clip-path="url(#pcfe69cb0fe)" style="fill: #1f77b4; fill-opacity: 0.5; stroke: #1f77b4; stroke-opacity: 0.5; stroke-linejoin: miter"/>
     <path d="M 297.618831 228.33977 
L 295.618831 227.33977 
L 295.618831 229.33977 
z
" clip-path="url(#pcfe69cb0fe)" style="fill: #1f77b4; fill-opacity: 0.5; stroke: #1f77b4; stroke-opacity: 0.5; stroke-linejoin: miter"/>
     <path d="M 297.618831 251.503403 
L 295.618831 250.503403 
L 295.618831 252.503403 
z
" clip-path="url(#pcfe69cb0fe)" style="fill: #1f77b4; fill-opacity: 0.5; stroke: #1f77b4; stroke-opacity: 0.5; stroke-linejoin: miter"/>
     <g id="patch_5">
      <path d="M 43.78125 260.421875 
L 43.78125 22.318125 
" style="fill: none; stroke: #000000; stroke-width: 0.8; stroke-linejoin: miter; stroke-linecap: square"/>
     </g>
     <g id="text_10">
      <!-- defaults_symmetric_migration_changing_rate.yaml -->
      <g transform="translate(117.1525 16.318125)scale(0.12 -0.12)">
       <defs>
        <path id="DejaVuSans-66" d="M 2375 4863 
L 2375 4384 
L 1825 4384 
Q 1516 4384 1395 4259 
Q 1275 4134 1275 3809 
L 1275 3500 
L 2222 3500 
L 2222 3053 
L 1275 3053 
L 1275 0 
L 697 0 
L 697 3053 
L 147 3053 
L 147 3500 
L 697 3500 
L 697 3744 
Q 697 4328 969 4595 
Q 1241 4863 1831 4863 
L 2375 4863 
z
" transform="scale(0.015625)"/>
        <path id="DejaVuSans-75" d="M 544 1381 
L 544 3500 
L 1119 3500 
L 1119 1403 
Q 1119 906 1312 657 
Q 1506 409 1894 409 
Q 2359 409 2629 706 
Q 2900 1003 2900 1516 
L 2900 3500 
L 3475 3500 
L 3475 0 
L 2900 0 
L 2900 538 
Q 2691 219 2414 64 
Q 2138 -91 1772 -91 
Q 1169 -91 856 284 
Q 544 659 544 1381 
z
M 1991 3584 
L 1991 3584 
z
" transform="scale(0.015625)"/>
        <path id="DejaVuSans-6c" d="M 603 4863 
L 1178 4863 
L 1178 0 
L 603 0 
L 603 4863 
z
" transform="scale(0.015625)"/>
        <path id="DejaVuSans-5f" d="M 3263 -1063 
L 3263 -1509 
L -63 -1509 
L -63 -1063 
L 3263 -1063 
z
" transform="scale(0.015625)"/>
        <path id="DejaVuSans-79" d="M 2059 -325 
Q 1816 -950 1584 -1140 
Q 1353 -1331 966 -1331 
L 506 -1331 
L 506 -850 
L 844 -850 
Q 1081 -850 1212 -737 
Q 1344 -625 1503 -206 
L 1606 56 
L 191 3500 
L 800 3500 
L 1894 763 
L 2988 3500 
L 3597 3500 
L 2059 -325 
z
" transform="scale(0.015625)"/>
        <path id="DejaVuSans-63" d="M 3122 3366 
L 3122 2828 
Q 2878 2963 2633 3030 
Q 2388 3097 2138 3097 
Q 1578 3097 1268 2742 
Q 959 2388 959 1747 
Q 959 1106 1268 751 
Q 1578 397 2138 397 
Q 2388 397 2633 464 
Q 2878 531 3122 666 
L 3122 134 
Q 2881 22 2623 -34 
Q 2366 -91 2075 -91 
Q 1284 -91 818 406 
Q 353 903 353 1747 
Q 353 2603 823 3093 
Q 1294 3584 2113 3584 
Q 2378 3584 2631 3529 
Q 2884 3475 3122 3366 
z
" transform="scale(0.015625)"/>
        <path id="DejaVuSans-68" d="M 3513 2113 
L 3513 0 
L 2938 0 
L 2938 2094 
Q 2938 2591 2744 2837 
Q 2550 3084 2163 3084 
Q 1697 3084 1428 2787 
Q 1159 2491 1159 1978 
L 1159 0 
L 581 0 
L 581 4863 
L 1159 4863 
L 1159 2956 
Q 1366 3272 1645 3428 
Q 1925 3584 2291 3584 
Q 2894 3584 3203 3211 
Q 3513 2838 3513 2113 
z
" transform="scale(0.015625)"/>
       </defs>
       <use xlink:href="#DejaVuSans-64"/>
       <use xlink:href="#DejaVuSans-65" x="63.476562"/>
       <use xlink:href="#DejaVuSans-66" x="125"/>
       <use xlink:href="#DejaVuSans-61" x="160.205078"/>
       <use xlink:href="#DejaVuSans-75" x="221.484375"/>
       <use xlink:href="#DejaVuSans-6c" x="284.863281"/>
       <use xlink:href="#DejaVuSans-74" x="312.646484"/>
       <use xlink:href="#DejaVuSans-73" x="351.855469"/>
       <use xlink:href="#DejaVuSans-5f" x="403.955078"/>
       <use xlink:href="#DejaVuSans-73" x="453.955078"/>
       <use xlink:href="#DejaVuSans-79" x="506.054688"/>
       <use xlink:href="#DejaVuSans-6d" x="565.234375"/>
       <use xlink:href="#DejaVuSans-6d" x="662.646484"/>
       <use xlink:href="#DejaVuSans-65" x="760.058594"/>
       <use xlink:href="#DejaVuSans-74" x="821.582031"/>
       <use xlink:href="#DejaVuSans-72" x="860.791016"/>
       <use xlink:href="#DejaVuSans-69" x="901.904297"/>
       <use xlink:href="#DejaVuSans-63" x="929.6875"/>
       <use xlink:href="#DejaVuSans-5f" x="984.667969"/>
       <use xlink:href="#DejaVuSans-6d" x="1034.667969"/>
       <use xlink:href="#DejaVuSans-69" x="1132.080078"/>
       <use xlink:href="#DejaVuSans-67" x="1159.863281"/>
       <use xlink:href="#DejaVuSans-72" x="1223.339844"/>
       <use xlink:href="#DejaVuSans-61" x="1264.453125"/>
       <use xlink:href="#DejaVuSans-74" x="1325.732422"/>
       <use xlink:href="#DejaVuSans-69" x="1364.941406"/>
       <use xlink:href="#DejaVuSans-6f" x="1392.724609"/>
       <use xlink:href="#DejaVuSans-6e" x="1453.90625"/>
       <use xlink:href="#DejaVuSans-5f" x="1517.285156"/>
       <use xlink:href="#DejaVuSans-63" x="1567.285156"/>
       <use xlink:href="#DejaVuSans-68" x="1622.265625"/>
       <use xlink:href="#DejaVuSans-61" x="1685.644531"/>
       <use xlink:href="#DejaVuSans-6e" x="1746.923828"/>
       <use xlink:href="#DejaVuSans-67" x="1810.302734"/>
       <use xlink:href="#DejaVuSans-69" x="1873.779297"/>
       <use xlink:href="#DejaVuSans-6e" x="1901.5625"/>
       <use xlink:href="#DejaVuSans-67" x="1964.941406"/>
       <use xlink:href="#DejaVuSans-5f" x="2028.417969"/>
       <use xlink:href="#DejaVuSans-72" x="2078.417969"/>
       <use xlink:href="#DejaVuSans-61" x="2119.53125"/>
       <use xlink:href="#DejaVuSans-74" x="2180.810547"/>
       <use xlink:href="#DejaVuSans-65" x="2220.019531"/>
       <use xlink:href="#DejaVuSans-2e" x="2281.542969"/>
       <use xlink:href="#DejaVuSans-79" x="2313.330078"/>
       <use xlink:href="#DejaVuSans-61" x="2372.509766"/>
       <use xlink:href="#DejaVuSans-6d" x="2433.789062"/>
       <use xlink:href="#DejaVuSans-6c" x="2531.201172"/>
      </g>
     </g>
    </g>
   </g>
   <defs>
    <clipPath id="pcfe69cb0fe">
     <rect x="43.78125" y="22.318125" width="453.81875" height="238.10375"/>
    </clipPath>
   </defs>
  </g>
 </g>
</svg>
