<?xml version="1.0" encoding="utf-8" standalone="no"?>
<!DOCTYPE svg PUBLIC "-//W3C//DTD SVG 1.1//EN"
  "http://www.w3.org/Graphics/SVG/1.1/DTD/svg11.dtd">
<svg xmlns:xlink="http://www.w3.org/1999/xlink" width="504.8pt" height="280.8pt" viewBox="0 0 504.8 280.8" xmlns="http://www.w3.org/2000/svg" version="1.1">
 <metadata>
  <rdf:RDF xmlns:dc="http://purl.org/dc/elements/1.1/" xmlns:cc="http://creativecommons.org/ns#" xmlns:rdf="http://www.w3.org/1999/02/22-rdf-syntax-ns#">
   <cc:Work>
    <dc:type rdf:resource="http://purl.org/dc/dcmitype/StillImage"/>
    <dc:date>2022-04-26T11:09:19.436271</dc:date>
    <dc:format>image/svg+xml</dc:format>
    <dc:creator>
     <cc:Agent>
      <dc:title>Matplotlib v3.5.1, https://matplotlib.org/</dc:title>
     </cc:Agent>
    </dc:creator>
   </cc:Work>
  </rdf:RDF>
 </metadata>
 <defs>
  <style type="text/css">*{stroke-linejoin: round; stroke-linecap: butt}</style>
 </defs>
 <g id="figure_1">
  <g id="patch_1">
   <path d="M 0 280.8 
L 504.8 280.8 
L 504.8 0 
L 0 0 
L 0 280.8 
z
" style="fill: none"/>
  </g>
  <g id="axes_1">
   <g id="patch_2">
    <path d="M 43.78125 260.421875 
L 497.6 260.421875 
L 497.6 22.318125 
L 43.78125 22.318125 
z
" style="fill: #ffffff"/>
   </g>
   <path d="M 169.606632 142.163209 
L 170.606632 142.194646 
L 171.606632 142.231586 
L 172.606632 142.329333 
L 173.606632 142.361854 
L 174.606632 142.435479 
L 175.606632 142.474044 
L 176.606632 142.509458 
L 177.606632 142.567098 
L 178.606632 142.637484 
L 179.606632 142.689448 
L 180.606632 142.748538 
L 181.606632 142.836859 
L 182.606632 142.883003 
L 183.606632 142.925414 
L 184.606632 142.955907 
L 185.606632 142.981952 
L 186.606632 143.003152 
L 187.606632 143.057453 
L 188.606632 143.08539 
L 189.606632 143.115114 
L 190.606632 143.140509 
L 191.606632 143.151709 
L 192.606632 143.161833 
L 193.606632 143.161629 
L 194.606632 143.152119 
L 195.606632 143.140466 
L 196.606632 143.109436 
L 197.606632 143.098268 
L 198.606632 143.068151 
L 199.606632 143.008374 
L 200.606632 142.971182 
L 201.606632 142.932086 
L 202.606632 142.889647 
L 203.606632 142.856882 
L 204.606632 142.789455 
L 205.606632 142.750329 
L 206.606632 142.707655 
L 207.606632 142.637074 
L 208.606632 142.600683 
L 209.606632 142.54228 
L 210.606632 142.431327 
L 211.606632 142.360669 
L 212.606632 142.247729 
L 213.606632 142.201956 
L 214.606632 142.140673 
L 215.822903 142.092174 
" clip-path="url(#pa47a36784e)" style="fill: none; stroke: #1f77b4; stroke-opacity: 0.5; stroke-width: 0.2; stroke-linecap: square"/>
   <path d="M 169.606632 83.49271 
L 170.606632 83.524146 
L 171.606632 83.561086 
L 172.606632 83.658833 
L 173.606632 83.691355 
L 174.606632 83.764979 
L 175.606632 83.803545 
L 176.606632 83.838958 
L 177.606632 83.896598 
L 178.606632 83.966984 
L 179.606632 84.018948 
L 180.606632 84.078038 
L 181.606632 84.166359 
L 182.606632 84.212503 
L 183.606632 84.254914 
L 184.606632 84.285407 
L 185.606632 84.311452 
L 186.606632 84.332652 
L 187.606632 84.386953 
L 188.606632 84.414891 
L 189.606632 84.444615 
L 190.606632 84.470009 
L 191.606632 84.48121 
L 192.606632 84.491334 
L 193.606632 84.491129 
L 194.606632 84.48162 
L 195.606632 84.469966 
L 196.606632 84.438937 
L 197.606632 84.427769 
L 198.606632 84.397651 
L 199.606632 84.337874 
L 200.606632 84.300683 
L 201.606632 84.261587 
L 202.606632 84.219147 
L 203.606632 84.186382 
L 204.606632 84.118956 
L 205.606632 84.07983 
L 206.606632 84.037155 
L 207.606632 83.966574 
L 208.606632 83.930184 
L 209.606632 83.87178 
L 210.606632 83.760828 
L 211.606632 83.69017 
L 212.606632 83.57723 
L 213.606632 83.531457 
L 214.606632 83.470174 
L 215.822903 83.421674 
" clip-path="url(#pa47a36784e)" style="fill: none; stroke: #1f77b4; stroke-opacity: 0.5; stroke-width: 0.2; stroke-linecap: square"/>
   <path d="M 169.606632 114.958968 
L 170.606632 114.990405 
L 171.606632 115.027345 
L 172.606632 115.125092 
L 173.606632 115.157613 
L 174.606632 115.231238 
L 175.606632 115.269804 
L 176.606632 115.305217 
L 177.606632 115.362857 
L 178.606632 115.433243 
L 179.606632 115.485207 
L 180.606632 115.544297 
L 181.606632 115.632618 
L 182.606632 115.678762 
L 183.606632 115.721173 
L 184.606632 115.751666 
L 185.606632 115.777711 
L 186.606632 115.798911 
L 187.606632 115.853212 
L 188.606632 115.88115 
L 189.606632 115.910873 
L 190.606632 115.936268 
L 191.606632 115.947469 
L 192.606632 115.957593 
L 193.606632 115.957388 
L 194.606632 115.947878 
L 195.606632 115.936225 
L 196.606632 115.905196 
L 197.606632 115.894028 
L 198.606632 115.86391 
L 199.606632 115.804133 
L 200.606632 115.766942 
L 201.606632 115.727846 
L 202.606632 115.685406 
L 203.606632 115.652641 
L 204.606632 115.585214 
L 205.606632 115.546088 
L 206.606632 115.503414 
L 207.606632 115.432833 
L 208.606632 115.396442 
L 209.606632 115.338039 
L 210.606632 115.227087 
L 211.606632 115.156428 
L 212.606632 115.043489 
L 213.606632 114.997716 
L 214.606632 114.936432 
L 215.822903 114.887933 
" clip-path="url(#pa47a36784e)" style="fill: none; stroke: #1f77b4; stroke-opacity: 0.5; stroke-width: 0.2; stroke-linecap: square"/>
   <path d="M 169.606632 77.298967 
L 170.606632 77.330403 
L 171.606632 77.367343 
L 172.606632 77.46509 
L 173.606632 77.497611 
L 174.606632 77.571236 
L 175.606632 77.609802 
L 176.606632 77.645215 
L 177.606632 77.702855 
L 178.606632 77.773241 
L 179.606632 77.825205 
L 180.606632 77.884295 
L 181.606632 77.972616 
L 182.606632 78.01876 
L 183.606632 78.061171 
L 184.606632 78.091664 
L 185.606632 78.117709 
L 186.606632 78.138909 
L 187.606632 78.19321 
L 188.606632 78.221148 
L 189.606632 78.250872 
L 190.606632 78.276266 
L 191.606632 78.287467 
L 192.606632 78.297591 
L 193.606632 78.297386 
L 194.606632 78.287876 
L 195.606632 78.276223 
L 196.606632 78.245194 
L 197.606632 78.234026 
L 198.606632 78.203908 
L 199.606632 78.144131 
L 200.606632 78.10694 
L 201.606632 78.067844 
L 202.606632 78.025404 
L 203.606632 77.992639 
L 204.606632 77.925212 
L 205.606632 77.886087 
L 206.606632 77.843412 
L 207.606632 77.772831 
L 208.606632 77.736441 
L 209.606632 77.678037 
L 210.606632 77.567085 
L 211.606632 77.496426 
L 212.606632 77.383487 
L 213.606632 77.337714 
L 214.606632 77.27643 
L 215.822903 77.227931 
" clip-path="url(#pa47a36784e)" style="fill: none; stroke: #1f77b4; stroke-opacity: 0.5; stroke-width: 0.2; stroke-linecap: square"/>
   <path d="M 169.606632 119.38297 
L 170.606632 119.414406 
L 171.606632 119.451346 
L 172.606632 119.549093 
L 173.606632 119.581614 
L 174.606632 119.655239 
L 175.606632 119.693805 
L 176.606632 119.729218 
L 177.606632 119.786858 
L 178.606632 119.857244 
L 179.606632 119.909208 
L 180.606632 119.968298 
L 181.606632 120.056619 
L 182.606632 120.102763 
L 183.606632 120.145174 
L 184.606632 120.175667 
L 185.606632 120.201712 
L 186.606632 120.222912 
L 187.606632 120.277213 
L 188.606632 120.305151 
L 189.606632 120.334875 
L 190.606632 120.360269 
L 191.606632 120.37147 
L 192.606632 120.381594 
L 193.606632 120.381389 
L 194.606632 120.37188 
L 195.606632 120.360226 
L 196.606632 120.329197 
L 197.606632 120.318029 
L 198.606632 120.287911 
L 199.606632 120.228134 
L 200.606632 120.190943 
L 201.606632 120.151847 
L 202.606632 120.109407 
L 203.606632 120.076642 
L 204.606632 120.009215 
L 205.606632 119.97009 
L 206.606632 119.927415 
L 207.606632 119.856834 
L 208.606632 119.820444 
L 209.606632 119.76204 
L 210.606632 119.651088 
L 211.606632 119.580429 
L 212.606632 119.46749 
L 213.606632 119.421717 
L 214.606632 119.360434 
L 215.822903 119.311934 
" clip-path="url(#pa47a36784e)" style="fill: none; stroke: #1f77b4; stroke-opacity: 0.5; stroke-width: 0.2; stroke-linecap: square"/>
   <path d="M 169.606632 77.747749 
L 170.606632 77.779185 
L 171.606632 77.816126 
L 172.606632 77.913872 
L 173.606632 77.946394 
L 174.606632 78.020019 
L 175.606632 78.058584 
L 176.606632 78.093997 
L 177.606632 78.151637 
L 178.606632 78.222024 
L 179.606632 78.273988 
L 180.606632 78.333077 
L 181.606632 78.421398 
L 182.606632 78.467543 
L 183.606632 78.509954 
L 184.606632 78.540446 
L 185.606632 78.566491 
L 186.606632 78.587691 
L 187.606632 78.641992 
L 188.606632 78.66993 
L 189.606632 78.699654 
L 190.606632 78.725049 
L 191.606632 78.736249 
L 192.606632 78.746373 
L 193.606632 78.746169 
L 194.606632 78.736659 
L 195.606632 78.725005 
L 196.606632 78.693976 
L 197.606632 78.682808 
L 198.606632 78.652691 
L 199.606632 78.592914 
L 200.606632 78.555722 
L 201.606632 78.516626 
L 202.606632 78.474186 
L 203.606632 78.441421 
L 204.606632 78.373995 
L 205.606632 78.334869 
L 206.606632 78.292194 
L 207.606632 78.221614 
L 208.606632 78.185223 
L 209.606632 78.12682 
L 210.606632 78.015867 
L 211.606632 77.945209 
L 212.606632 77.832269 
L 213.606632 77.786496 
L 214.606632 77.725213 
L 215.822903 77.676714 
" clip-path="url(#pa47a36784e)" style="fill: none; stroke: #1f77b4; stroke-opacity: 0.5; stroke-width: 0.2; stroke-linecap: square"/>
   <path d="M 169.606632 73.935071 
L 170.606632 73.966508 
L 171.606632 74.003448 
L 172.606632 74.101195 
L 173.606632 74.133716 
L 174.606632 74.207341 
L 175.606632 74.245907 
L 176.606632 74.28132 
L 177.606632 74.33896 
L 178.606632 74.409346 
L 179.606632 74.46131 
L 180.606632 74.5204 
L 181.606632 74.608721 
L 182.606632 74.654865 
L 183.606632 74.697276 
L 184.606632 74.727769 
L 185.606632 74.753814 
L 186.606632 74.775014 
L 187.606632 74.829315 
L 188.606632 74.857252 
L 189.606632 74.886976 
L 190.606632 74.912371 
L 191.606632 74.923572 
L 192.606632 74.933696 
L 193.606632 74.933491 
L 194.606632 74.923981 
L 195.606632 74.912328 
L 196.606632 74.881298 
L 197.606632 74.870131 
L 198.606632 74.840013 
L 199.606632 74.780236 
L 200.606632 74.743045 
L 201.606632 74.703948 
L 202.606632 74.661509 
L 203.606632 74.628744 
L 204.606632 74.561317 
L 205.606632 74.522191 
L 206.606632 74.479517 
L 207.606632 74.408936 
L 208.606632 74.372545 
L 209.606632 74.314142 
L 210.606632 74.20319 
L 211.606632 74.132531 
L 212.606632 74.019591 
L 213.606632 73.973819 
L 214.606632 73.912535 
L 215.822903 73.864036 
" clip-path="url(#pa47a36784e)" style="fill: none; stroke: #1f77b4; stroke-opacity: 0.5; stroke-width: 0.2; stroke-linecap: square"/>
   <path d="M 169.606632 134.887732 
L 170.606632 134.919168 
L 171.606632 134.956108 
L 172.606632 135.053855 
L 173.606632 135.086376 
L 174.606632 135.160001 
L 175.606632 135.198567 
L 176.606632 135.23398 
L 177.606632 135.29162 
L 178.606632 135.362006 
L 179.606632 135.41397 
L 180.606632 135.47306 
L 181.606632 135.561381 
L 182.606632 135.607525 
L 183.606632 135.649936 
L 184.606632 135.680429 
L 185.606632 135.706474 
L 186.606632 135.727674 
L 187.606632 135.781975 
L 188.606632 135.809913 
L 189.606632 135.839637 
L 190.606632 135.865031 
L 191.606632 135.876232 
L 192.606632 135.886356 
L 193.606632 135.886151 
L 194.606632 135.876641 
L 195.606632 135.864988 
L 196.606632 135.833959 
L 197.606632 135.822791 
L 198.606632 135.792673 
L 199.606632 135.732896 
L 200.606632 135.695705 
L 201.606632 135.656609 
L 202.606632 135.614169 
L 203.606632 135.581404 
L 204.606632 135.513977 
L 205.606632 135.474852 
L 206.606632 135.432177 
L 207.606632 135.361596 
L 208.606632 135.325206 
L 209.606632 135.266802 
L 210.606632 135.15585 
L 211.606632 135.085191 
L 212.606632 134.972252 
L 213.606632 134.926479 
L 214.606632 134.865195 
L 215.822903 134.816696 
" clip-path="url(#pa47a36784e)" style="fill: none; stroke: #1f77b4; stroke-opacity: 0.5; stroke-width: 0.2; stroke-linecap: square"/>
   <path d="M 169.606632 162.295793 
L 170.606632 162.32723 
L 171.606632 162.36417 
L 172.606632 162.461917 
L 173.606632 162.494438 
L 174.606632 162.568063 
L 175.606632 162.606629 
L 176.606632 162.642042 
L 177.606632 162.699682 
L 178.606632 162.770068 
L 179.606632 162.822032 
L 180.606632 162.881122 
L 181.606632 162.969443 
L 182.606632 163.015587 
L 183.606632 163.057998 
L 184.606632 163.088491 
L 185.606632 163.114536 
L 186.606632 163.135736 
L 187.606632 163.190037 
L 188.606632 163.217974 
L 189.606632 163.247698 
L 190.606632 163.273093 
L 191.606632 163.284294 
L 192.606632 163.294418 
L 193.606632 163.294213 
L 194.606632 163.284703 
L 195.606632 163.27305 
L 196.606632 163.24202 
L 197.606632 163.230853 
L 198.606632 163.200735 
L 199.606632 163.140958 
L 200.606632 163.103767 
L 201.606632 163.06467 
L 202.606632 163.022231 
L 203.606632 162.989466 
L 204.606632 162.922039 
L 205.606632 162.882913 
L 206.606632 162.840239 
L 207.606632 162.769658 
L 208.606632 162.733267 
L 209.606632 162.674864 
L 210.606632 162.563912 
L 211.606632 162.493253 
L 212.606632 162.380313 
L 213.606632 162.334541 
L 214.606632 162.273257 
L 215.822903 162.224758 
" clip-path="url(#pa47a36784e)" style="fill: none; stroke: #1f77b4; stroke-opacity: 0.5; stroke-width: 0.2; stroke-linecap: square"/>
   <path d="M 169.606632 120.163752 
L 170.606632 120.195189 
L 171.606632 120.232129 
L 172.606632 120.329875 
L 173.606632 120.362397 
L 174.606632 120.436022 
L 175.606632 120.474587 
L 176.606632 120.510001 
L 177.606632 120.56764 
L 178.606632 120.638027 
L 179.606632 120.689991 
L 180.606632 120.749081 
L 181.606632 120.837402 
L 182.606632 120.883546 
L 183.606632 120.925957 
L 184.606632 120.95645 
L 185.606632 120.982494 
L 186.606632 121.003695 
L 187.606632 121.057996 
L 188.606632 121.085933 
L 189.606632 121.115657 
L 190.606632 121.141052 
L 191.606632 121.152252 
L 192.606632 121.162376 
L 193.606632 121.162172 
L 194.606632 121.152662 
L 195.606632 121.141009 
L 196.606632 121.109979 
L 197.606632 121.098811 
L 198.606632 121.068694 
L 199.606632 121.008917 
L 200.606632 120.971725 
L 201.606632 120.932629 
L 202.606632 120.89019 
L 203.606632 120.857425 
L 204.606632 120.789998 
L 205.606632 120.750872 
L 206.606632 120.708198 
L 207.606632 120.637617 
L 208.606632 120.601226 
L 209.606632 120.542823 
L 210.606632 120.43187 
L 211.606632 120.361212 
L 212.606632 120.248272 
L 213.606632 120.202499 
L 214.606632 120.141216 
L 215.822903 120.092717 
" clip-path="url(#pa47a36784e)" style="fill: none; stroke: #1f77b4; stroke-opacity: 0.5; stroke-width: 0.2; stroke-linecap: square"/>
   <path d="M 325.558347 148.404681 
L 326.558347 148.436118 
L 327.558347 148.473058 
L 328.558347 148.570805 
L 329.558347 148.603326 
L 330.558347 148.676951 
L 331.558347 148.715517 
L 332.558347 148.75093 
L 333.558347 148.80857 
L 334.558347 148.878956 
L 335.558347 148.93092 
L 336.558347 148.99001 
L 337.558347 149.078331 
L 338.558347 149.124475 
L 339.558347 149.166886 
L 340.558347 149.197379 
L 341.558347 149.223424 
L 342.558347 149.244624 
L 343.558347 149.298925 
L 344.558347 149.326862 
L 345.558347 149.356586 
L 346.558347 149.381981 
L 347.558347 149.393182 
L 348.558347 149.403306 
L 349.558347 149.403101 
L 350.558347 149.393591 
L 351.558347 149.381938 
L 352.558347 149.350909 
L 353.558347 149.339741 
L 354.558347 149.309623 
L 355.558347 149.249846 
L 356.558347 149.212655 
L 357.558347 149.173559 
L 358.558347 149.131119 
L 359.558347 149.098354 
L 360.558347 149.030927 
L 361.558347 148.991801 
L 362.558347 148.949127 
L 363.558347 148.878546 
L 364.558347 148.842155 
L 365.558347 148.783752 
L 366.558347 148.6728 
L 367.558347 148.602141 
L 368.558347 148.489201 
L 369.558347 148.443429 
L 370.558347 148.382145 
L 371.774618 148.333646 
" clip-path="url(#pa47a36784e)" style="fill: none; stroke: #ff7f0e; stroke-opacity: 0.5; stroke-width: 0.2; stroke-linecap: square"/>
   <path d="M 325.558347 127.917873 
L 326.558347 127.949309 
L 327.558347 127.98625 
L 328.558347 128.083996 
L 329.558347 128.116518 
L 330.558347 128.190143 
L 331.558347 128.228708 
L 332.558347 128.264121 
L 333.558347 128.321761 
L 334.558347 128.392148 
L 335.558347 128.444112 
L 336.558347 128.503202 
L 337.558347 128.591523 
L 338.558347 128.637667 
L 339.558347 128.680078 
L 340.558347 128.71057 
L 341.558347 128.736615 
L 342.558347 128.757815 
L 343.558347 128.812117 
L 344.558347 128.840054 
L 345.558347 128.869778 
L 346.558347 128.895173 
L 347.558347 128.906373 
L 348.558347 128.916497 
L 349.558347 128.916293 
L 350.558347 128.906783 
L 351.558347 128.895129 
L 352.558347 128.8641 
L 353.558347 128.852932 
L 354.558347 128.822815 
L 355.558347 128.763038 
L 356.558347 128.725846 
L 357.558347 128.68675 
L 358.558347 128.644311 
L 359.558347 128.611545 
L 360.558347 128.544119 
L 361.558347 128.504993 
L 362.558347 128.462319 
L 363.558347 128.391738 
L 364.558347 128.355347 
L 365.558347 128.296944 
L 366.558347 128.185991 
L 367.558347 128.115333 
L 368.558347 128.002393 
L 369.558347 127.95662 
L 370.558347 127.895337 
L 371.774618 127.846838 
" clip-path="url(#pa47a36784e)" style="fill: none; stroke: #ff7f0e; stroke-opacity: 0.5; stroke-width: 0.2; stroke-linecap: square"/>
   <path d="M 325.558347 95.719898 
L 326.558347 95.751334 
L 327.558347 95.788275 
L 328.558347 95.886021 
L 329.558347 95.918543 
L 330.558347 95.992167 
L 331.558347 96.030733 
L 332.558347 96.066146 
L 333.558347 96.123786 
L 334.558347 96.194172 
L 335.558347 96.246137 
L 336.558347 96.305226 
L 337.558347 96.393547 
L 338.558347 96.439692 
L 339.558347 96.482102 
L 340.558347 96.512595 
L 341.558347 96.53864 
L 342.558347 96.55984 
L 343.558347 96.614141 
L 344.558347 96.642079 
L 345.558347 96.671803 
L 346.558347 96.697198 
L 347.558347 96.708398 
L 348.558347 96.718522 
L 349.558347 96.718318 
L 350.558347 96.708808 
L 351.558347 96.697154 
L 352.558347 96.666125 
L 353.558347 96.654957 
L 354.558347 96.624839 
L 355.558347 96.565063 
L 356.558347 96.527871 
L 357.558347 96.488775 
L 358.558347 96.446335 
L 359.558347 96.41357 
L 360.558347 96.346144 
L 361.558347 96.307018 
L 362.558347 96.264343 
L 363.558347 96.193763 
L 364.558347 96.157372 
L 365.558347 96.098969 
L 366.558347 95.988016 
L 367.558347 95.917358 
L 368.558347 95.804418 
L 369.558347 95.758645 
L 370.558347 95.697362 
L 371.774618 95.648862 
" clip-path="url(#pa47a36784e)" style="fill: none; stroke: #ff7f0e; stroke-opacity: 0.5; stroke-width: 0.2; stroke-linecap: square"/>
   <path d="M 325.558347 149.832819 
L 326.558347 149.864256 
L 327.558347 149.901196 
L 328.558347 149.998943 
L 329.558347 150.031464 
L 330.558347 150.105089 
L 331.558347 150.143655 
L 332.558347 150.179068 
L 333.558347 150.236708 
L 334.558347 150.307094 
L 335.558347 150.359058 
L 336.558347 150.418148 
L 337.558347 150.506469 
L 338.558347 150.552613 
L 339.558347 150.595024 
L 340.558347 150.625517 
L 341.558347 150.651562 
L 342.558347 150.672762 
L 343.558347 150.727063 
L 344.558347 150.755 
L 345.558347 150.784724 
L 346.558347 150.810119 
L 347.558347 150.82132 
L 348.558347 150.831444 
L 349.558347 150.831239 
L 350.558347 150.821729 
L 351.558347 150.810076 
L 352.558347 150.779047 
L 353.558347 150.767879 
L 354.558347 150.737761 
L 355.558347 150.677984 
L 356.558347 150.640793 
L 357.558347 150.601697 
L 358.558347 150.559257 
L 359.558347 150.526492 
L 360.558347 150.459065 
L 361.558347 150.419939 
L 362.558347 150.377265 
L 363.558347 150.306684 
L 364.558347 150.270293 
L 365.558347 150.21189 
L 366.558347 150.100938 
L 367.558347 150.030279 
L 368.558347 149.917339 
L 369.558347 149.871567 
L 370.558347 149.810283 
L 371.774618 149.761784 
" clip-path="url(#pa47a36784e)" style="fill: none; stroke: #ff7f0e; stroke-opacity: 0.5; stroke-width: 0.2; stroke-linecap: square"/>
   <path d="M 325.558347 80.464306 
L 326.558347 80.495742 
L 327.558347 80.532683 
L 328.558347 80.630429 
L 329.558347 80.662951 
L 330.558347 80.736575 
L 331.558347 80.775141 
L 332.558347 80.810554 
L 333.558347 80.868194 
L 334.558347 80.93858 
L 335.558347 80.990544 
L 336.558347 81.049634 
L 337.558347 81.137955 
L 338.558347 81.184099 
L 339.558347 81.22651 
L 340.558347 81.257003 
L 341.558347 81.283048 
L 342.558347 81.304248 
L 343.558347 81.358549 
L 344.558347 81.386487 
L 345.558347 81.416211 
L 346.558347 81.441606 
L 347.558347 81.452806 
L 348.558347 81.46293 
L 349.558347 81.462726 
L 350.558347 81.453216 
L 351.558347 81.441562 
L 352.558347 81.410533 
L 353.558347 81.399365 
L 354.558347 81.369247 
L 355.558347 81.30947 
L 356.558347 81.272279 
L 357.558347 81.233183 
L 358.558347 81.190743 
L 359.558347 81.157978 
L 360.558347 81.090552 
L 361.558347 81.051426 
L 362.558347 81.008751 
L 363.558347 80.938171 
L 364.558347 80.90178 
L 365.558347 80.843377 
L 366.558347 80.732424 
L 367.558347 80.661766 
L 368.558347 80.548826 
L 369.558347 80.503053 
L 370.558347 80.44177 
L 371.774618 80.39327 
" clip-path="url(#pa47a36784e)" style="fill: none; stroke: #ff7f0e; stroke-opacity: 0.5; stroke-width: 0.2; stroke-linecap: square"/>
   <path d="M 325.558347 70.492084 
L 326.558347 70.52352 
L 327.558347 70.56046 
L 328.558347 70.658207 
L 329.558347 70.690728 
L 330.558347 70.764353 
L 331.558347 70.802919 
L 332.558347 70.838332 
L 333.558347 70.895972 
L 334.558347 70.966358 
L 335.558347 71.018322 
L 336.558347 71.077412 
L 337.558347 71.165733 
L 338.558347 71.211877 
L 339.558347 71.254288 
L 340.558347 71.284781 
L 341.558347 71.310826 
L 342.558347 71.332026 
L 343.558347 71.386327 
L 344.558347 71.414265 
L 345.558347 71.443989 
L 346.558347 71.469383 
L 347.558347 71.480584 
L 348.558347 71.490708 
L 349.558347 71.490503 
L 350.558347 71.480994 
L 351.558347 71.46934 
L 352.558347 71.438311 
L 353.558347 71.427143 
L 354.558347 71.397025 
L 355.558347 71.337248 
L 356.558347 71.300057 
L 357.558347 71.260961 
L 358.558347 71.218521 
L 359.558347 71.185756 
L 360.558347 71.118329 
L 361.558347 71.079204 
L 362.558347 71.036529 
L 363.558347 70.965948 
L 364.558347 70.929558 
L 365.558347 70.871154 
L 366.558347 70.760202 
L 367.558347 70.689543 
L 368.558347 70.576604 
L 369.558347 70.530831 
L 370.558347 70.469548 
L 371.774618 70.421048 
" clip-path="url(#pa47a36784e)" style="fill: none; stroke: #ff7f0e; stroke-opacity: 0.5; stroke-width: 0.2; stroke-linecap: square"/>
   <path d="M 325.558347 113.639826 
L 326.558347 113.671262 
L 327.558347 113.708203 
L 328.558347 113.805949 
L 329.558347 113.838471 
L 330.558347 113.912096 
L 331.558347 113.950661 
L 332.558347 113.986074 
L 333.558347 114.043714 
L 334.558347 114.1141 
L 335.558347 114.166065 
L 336.558347 114.225154 
L 337.558347 114.313475 
L 338.558347 114.35962 
L 339.558347 114.402031 
L 340.558347 114.432523 
L 341.558347 114.458568 
L 342.558347 114.479768 
L 343.558347 114.534069 
L 344.558347 114.562007 
L 345.558347 114.591731 
L 346.558347 114.617126 
L 347.558347 114.628326 
L 348.558347 114.63845 
L 349.558347 114.638246 
L 350.558347 114.628736 
L 351.558347 114.617082 
L 352.558347 114.586053 
L 353.558347 114.574885 
L 354.558347 114.544768 
L 355.558347 114.484991 
L 356.558347 114.447799 
L 357.558347 114.408703 
L 358.558347 114.366263 
L 359.558347 114.333498 
L 360.558347 114.266072 
L 361.558347 114.226946 
L 362.558347 114.184271 
L 363.558347 114.113691 
L 364.558347 114.0773 
L 365.558347 114.018897 
L 366.558347 113.907944 
L 367.558347 113.837286 
L 368.558347 113.724346 
L 369.558347 113.678573 
L 370.558347 113.61729 
L 371.774618 113.568791 
" clip-path="url(#pa47a36784e)" style="fill: none; stroke: #ff7f0e; stroke-opacity: 0.5; stroke-width: 0.2; stroke-linecap: square"/>
   <path d="M 325.558347 115.687925 
L 326.558347 115.719361 
L 327.558347 115.756302 
L 328.558347 115.854048 
L 329.558347 115.88657 
L 330.558347 115.960194 
L 331.558347 115.99876 
L 332.558347 116.034173 
L 333.558347 116.091813 
L 334.558347 116.162199 
L 335.558347 116.214163 
L 336.558347 116.273253 
L 337.558347 116.361574 
L 338.558347 116.407719 
L 339.558347 116.450129 
L 340.558347 116.480622 
L 341.558347 116.506667 
L 342.558347 116.527867 
L 343.558347 116.582168 
L 344.558347 116.610106 
L 345.558347 116.63983 
L 346.558347 116.665225 
L 347.558347 116.676425 
L 348.558347 116.686549 
L 349.558347 116.686345 
L 350.558347 116.676835 
L 351.558347 116.665181 
L 352.558347 116.634152 
L 353.558347 116.622984 
L 354.558347 116.592866 
L 355.558347 116.53309 
L 356.558347 116.495898 
L 357.558347 116.456802 
L 358.558347 116.414362 
L 359.558347 116.381597 
L 360.558347 116.314171 
L 361.558347 116.275045 
L 362.558347 116.23237 
L 363.558347 116.16179 
L 364.558347 116.125399 
L 365.558347 116.066996 
L 366.558347 115.956043 
L 367.558347 115.885385 
L 368.558347 115.772445 
L 369.558347 115.726672 
L 370.558347 115.665389 
L 371.774618 115.616889 
" clip-path="url(#pa47a36784e)" style="fill: none; stroke: #ff7f0e; stroke-opacity: 0.5; stroke-width: 0.2; stroke-linecap: square"/>
   <path d="M 325.558347 90.846539 
L 326.558347 90.877975 
L 327.558347 90.914916 
L 328.558347 91.012662 
L 329.558347 91.045184 
L 330.558347 91.118808 
L 331.558347 91.157374 
L 332.558347 91.192787 
L 333.558347 91.250427 
L 334.558347 91.320813 
L 335.558347 91.372777 
L 336.558347 91.431867 
L 337.558347 91.520188 
L 338.558347 91.566333 
L 339.558347 91.608743 
L 340.558347 91.639236 
L 341.558347 91.665281 
L 342.558347 91.686481 
L 343.558347 91.740782 
L 344.558347 91.76872 
L 345.558347 91.798444 
L 346.558347 91.823839 
L 347.558347 91.835039 
L 348.558347 91.845163 
L 349.558347 91.844959 
L 350.558347 91.835449 
L 351.558347 91.823795 
L 352.558347 91.792766 
L 353.558347 91.781598 
L 354.558347 91.75148 
L 355.558347 91.691704 
L 356.558347 91.654512 
L 357.558347 91.615416 
L 358.558347 91.572976 
L 359.558347 91.540211 
L 360.558347 91.472785 
L 361.558347 91.433659 
L 362.558347 91.390984 
L 363.558347 91.320404 
L 364.558347 91.284013 
L 365.558347 91.22561 
L 366.558347 91.114657 
L 367.558347 91.043999 
L 368.558347 90.931059 
L 369.558347 90.885286 
L 370.558347 90.824003 
L 371.774618 90.775503 
" clip-path="url(#pa47a36784e)" style="fill: none; stroke: #ff7f0e; stroke-opacity: 0.5; stroke-width: 0.2; stroke-linecap: square"/>
   <path d="M 325.558347 164.005332 
L 326.558347 164.036768 
L 327.558347 164.073709 
L 328.558347 164.171455 
L 329.558347 164.203977 
L 330.558347 164.277602 
L 331.558347 164.316167 
L 332.558347 164.35158 
L 333.558347 164.40922 
L 334.558347 164.479606 
L 335.558347 164.531571 
L 336.558347 164.59066 
L 337.558347 164.678981 
L 338.558347 164.725126 
L 339.558347 164.767537 
L 340.558347 164.798029 
L 341.558347 164.824074 
L 342.558347 164.845274 
L 343.558347 164.899575 
L 344.558347 164.927513 
L 345.558347 164.957237 
L 346.558347 164.982632 
L 347.558347 164.993832 
L 348.558347 165.003956 
L 349.558347 165.003752 
L 350.558347 164.994242 
L 351.558347 164.982588 
L 352.558347 164.951559 
L 353.558347 164.940391 
L 354.558347 164.910274 
L 355.558347 164.850497 
L 356.558347 164.813305 
L 357.558347 164.774209 
L 358.558347 164.731769 
L 359.558347 164.699004 
L 360.558347 164.631578 
L 361.558347 164.592452 
L 362.558347 164.549777 
L 363.558347 164.479197 
L 364.558347 164.442806 
L 365.558347 164.384403 
L 366.558347 164.27345 
L 367.558347 164.202792 
L 368.558347 164.089852 
L 369.558347 164.044079 
L 370.558347 163.982796 
L 371.774618 163.934297 
" clip-path="url(#pa47a36784e)" style="fill: none; stroke: #ff7f0e; stroke-opacity: 0.5; stroke-width: 0.2; stroke-linecap: square"/>
   <g id="patch_3">
    <path d="M 64.409375 22.318125 
L 64.409375 260.421875 
M 165.068445 22.318125 
L 165.068445 260.421875 
" clip-path="url(#pa47a36784e)" style="fill: none; stroke: #ffffff; stroke-width: 3; stroke-linejoin: miter"/>
    <path d="M 64.409375 22.318125 
L 64.409375 260.421875 
M 165.068445 22.318125 
L 165.068445 260.421875 
" clip-path="url(#pa47a36784e)" style="fill: none; stroke: #1f77b4; stroke-linejoin: miter"/>
    <g id="PolyCollection_1">
     <path d="M 165.068445 22.318125 
L 64.409375 22.318125 
L 64.409375 260.421875 
L 165.068445 260.421875 
L 165.068445 260.421875 
L 165.068445 22.318125 
z
" clip-path="url(#pa47a36784e)" style="fill: #1f77b4; fill-opacity: 0.5"/>
    </g>
    <g id="patch_4">
     <path d="M 220.36109 22.318125 
L 220.36109 260.421875 
M 321.02016 22.318125 
L 321.02016 260.421875 
" clip-path="url(#pa47a36784e)" style="fill: none; stroke: #ffffff; stroke-width: 3; stroke-linejoin: miter"/>
     <path d="M 220.36109 22.318125 
L 220.36109 260.421875 
M 321.02016 22.318125 
L 321.02016 260.421875 
" clip-path="url(#pa47a36784e)" style="fill: none; stroke: #ff7f0e; stroke-linejoin: miter"/>
     <g id="PolyCollection_2">
      <path d="M 321.02016 22.318125 
L 220.36109 22.318125 
L 220.36109 260.421875 
L 321.02016 260.421875 
L 321.02016 260.421875 
L 321.02016 22.318125 
z
" clip-path="url(#pa47a36784e)" style="fill: #ff7f0e; fill-opacity: 0.5"/>
     </g>
     <g id="patch_5">
      <path d="M 376.312805 22.318125 
L 376.312805 260.421875 
M 476.971875 22.318125 
L 476.971875 260.421875 
" clip-path="url(#pa47a36784e)" style="fill: none; stroke: #ffffff; stroke-width: 3; stroke-linejoin: miter"/>
      <path d="M 376.312805 22.318125 
L 376.312805 260.421875 
M 476.971875 22.318125 
L 476.971875 260.421875 
" clip-path="url(#pa47a36784e)" style="fill: none; stroke: #2ca02c; stroke-linejoin: miter"/>
      <g id="PolyCollection_3">
       <path d="M 476.971875 22.318125 
L 376.312805 22.318125 
L 376.312805 260.421875 
L 476.971875 260.421875 
L 476.971875 260.421875 
L 476.971875 22.318125 
z
" clip-path="url(#pa47a36784e)" style="fill: #2ca02c; fill-opacity: 0.5"/>
      </g>
      <g id="matplotlib.axis_1">
       <g id="xtick_1">
        <g id="line2d_1"/>
        <g id="text_1">
         <!-- deme0 -->
         <g transform="translate(97.360004 271.520312)scale(0.1 -0.1)">
          <defs>
           <path id="DejaVuSans-64" d="M 2906 2969 
L 2906 4863 
L 3481 4863 
L 3481 0 
L 2906 0 
L 2906 525 
Q 2725 213 2448 61 
Q 2172 -91 1784 -91 
Q 1150 -91 751 415 
Q 353 922 353 1747 
Q 353 2572 751 3078 
Q 1150 3584 1784 3584 
Q 2172 3584 2448 3432 
Q 2725 3281 2906 2969 
z
M 947 1747 
Q 947 1113 1208 752 
Q 1469 391 1925 391 
Q 2381 391 2643 752 
Q 2906 1113 2906 1747 
Q 2906 2381 2643 2742 
Q 2381 3103 1925 3103 
Q 1469 3103 1208 2742 
Q 947 2381 947 1747 
z
" transform="scale(0.015625)"/>
           <path id="DejaVuSans-65" d="M 3597 1894 
L 3597 1613 
L 953 1613 
Q 991 1019 1311 708 
Q 1631 397 2203 397 
Q 2534 397 2845 478 
Q 3156 559 3463 722 
L 3463 178 
Q 3153 47 2828 -22 
Q 2503 -91 2169 -91 
Q 1331 -91 842 396 
Q 353 884 353 1716 
Q 353 2575 817 3079 
Q 1281 3584 2069 3584 
Q 2775 3584 3186 3129 
Q 3597 2675 3597 1894 
z
M 3022 2063 
Q 3016 2534 2758 2815 
Q 2500 3097 2075 3097 
Q 1594 3097 1305 2825 
Q 1016 2553 972 2059 
L 3022 2063 
z
" transform="scale(0.015625)"/>
           <path id="DejaVuSans-6d" d="M 3328 2828 
Q 3544 3216 3844 3400 
Q 4144 3584 4550 3584 
Q 5097 3584 5394 3201 
Q 5691 2819 5691 2113 
L 5691 0 
L 5113 0 
L 5113 2094 
Q 5113 2597 4934 2840 
Q 4756 3084 4391 3084 
Q 3944 3084 3684 2787 
Q 3425 2491 3425 1978 
L 3425 0 
L 2847 0 
L 2847 2094 
Q 2847 2600 2669 2842 
Q 2491 3084 2119 3084 
Q 1678 3084 1418 2786 
Q 1159 2488 1159 1978 
L 1159 0 
L 581 0 
L 581 3500 
L 1159 3500 
L 1159 2956 
Q 1356 3278 1631 3431 
Q 1906 3584 2284 3584 
Q 2666 3584 2933 3390 
Q 3200 3197 3328 2828 
z
" transform="scale(0.015625)"/>
           <path id="DejaVuSans-30" d="M 2034 4250 
Q 1547 4250 1301 3770 
Q 1056 3291 1056 2328 
Q 1056 1369 1301 889 
Q 1547 409 2034 409 
Q 2525 409 2770 889 
Q 3016 1369 3016 2328 
Q 3016 3291 2770 3770 
Q 2525 4250 2034 4250 
z
M 2034 4750 
Q 2819 4750 3233 4129 
Q 3647 3509 3647 2328 
Q 3647 1150 3233 529 
Q 2819 -91 2034 -91 
Q 1250 -91 836 529 
Q 422 1150 422 2328 
Q 422 3509 836 4129 
Q 1250 4750 2034 4750 
z
" transform="scale(0.015625)"/>
          </defs>
          <use xlink:href="#DejaVuSans-64"/>
          <use xlink:href="#DejaVuSans-65" x="63.476562"/>
          <use xlink:href="#DejaVuSans-6d" x="125"/>
          <use xlink:href="#DejaVuSans-65" x="222.412109"/>
          <use xlink:href="#DejaVuSans-30" x="283.935547"/>
         </g>
        </g>
       </g>
       <g id="xtick_2">
        <g id="line2d_2"/>
        <g id="text_2">
         <!-- deme1 -->
         <g transform="translate(253.311719 271.520312)scale(0.1 -0.1)">
          <defs>
           <path id="DejaVuSans-31" d="M 794 531 
L 1825 531 
L 1825 4091 
L 703 3866 
L 703 4441 
L 1819 4666 
L 2450 4666 
L 2450 531 
L 3481 531 
L 3481 0 
L 794 0 
L 794 531 
z
" transform="scale(0.015625)"/>
          </defs>
          <use xlink:href="#DejaVuSans-64"/>
          <use xlink:href="#DejaVuSans-65" x="63.476562"/>
          <use xlink:href="#DejaVuSans-6d" x="125"/>
          <use xlink:href="#DejaVuSans-65" x="222.412109"/>
          <use xlink:href="#DejaVuSans-31" x="283.935547"/>
         </g>
        </g>
       </g>
       <g id="xtick_3">
        <g id="line2d_3"/>
        <g id="text_3">
         <!-- deme2 -->
         <g transform="translate(409.263434 271.520312)scale(0.1 -0.1)">
          <defs>
           <path id="DejaVuSans-32" d="M 1228 531 
L 3431 531 
L 3431 0 
L 469 0 
L 469 531 
Q 828 903 1448 1529 
Q 2069 2156 2228 2338 
Q 2531 2678 2651 2914 
Q 2772 3150 2772 3378 
Q 2772 3750 2511 3984 
Q 2250 4219 1831 4219 
Q 1534 4219 1204 4116 
Q 875 4013 500 3803 
L 500 4441 
Q 881 4594 1212 4672 
Q 1544 4750 1819 4750 
Q 2544 4750 2975 4387 
Q 3406 4025 3406 3419 
Q 3406 3131 3298 2873 
Q 3191 2616 2906 2266 
Q 2828 2175 2409 1742 
Q 1991 1309 1228 531 
z
" transform="scale(0.015625)"/>
          </defs>
          <use xlink:href="#DejaVuSans-64"/>
          <use xlink:href="#DejaVuSans-65" x="63.476562"/>
          <use xlink:href="#DejaVuSans-6d" x="125"/>
          <use xlink:href="#DejaVuSans-65" x="222.412109"/>
          <use xlink:href="#DejaVuSans-32" x="283.935547"/>
         </g>
        </g>
       </g>
      </g>
      <g id="matplotlib.axis_2">
       <g id="ytick_1">
        <g id="line2d_4">
         <defs>
          <path id="mf4b49b4d44" d="M 0 0 
L -3.5 0 
" style="stroke: #000000; stroke-width: 0.8"/>
         </defs>
         <g>
          <use xlink:href="#mf4b49b4d44" x="43.78125" y="260.421875" style="stroke: #000000; stroke-width: 0.8"/>
         </g>
        </g>
        <g id="text_4">
         <!-- 0.0 -->
         <g transform="translate(20.878125 264.221094)scale(0.1 -0.1)">
          <defs>
           <path id="DejaVuSans-2e" d="M 684 794 
L 1344 794 
L 1344 0 
L 684 0 
L 684 794 
z
" transform="scale(0.015625)"/>
          </defs>
          <use xlink:href="#DejaVuSans-30"/>
          <use xlink:href="#DejaVuSans-2e" x="63.623047"/>
          <use xlink:href="#DejaVuSans-30" x="95.410156"/>
         </g>
        </g>
       </g>
       <g id="ytick_2">
        <g id="line2d_5">
         <g>
          <use xlink:href="#mf4b49b4d44" x="43.78125" y="212.801125" style="stroke: #000000; stroke-width: 0.8"/>
         </g>
        </g>
        <g id="text_5">
         <!-- 0.5 -->
         <g transform="translate(20.878125 216.600344)scale(0.1 -0.1)">
          <defs>
           <path id="DejaVuSans-35" d="M 691 4666 
L 3169 4666 
L 3169 4134 
L 1269 4134 
L 1269 2991 
Q 1406 3038 1543 3061 
Q 1681 3084 1819 3084 
Q 2600 3084 3056 2656 
Q 3513 2228 3513 1497 
Q 3513 744 3044 326 
Q 2575 -91 1722 -91 
Q 1428 -91 1123 -41 
Q 819 9 494 109 
L 494 744 
Q 775 591 1075 516 
Q 1375 441 1709 441 
Q 2250 441 2565 725 
Q 2881 1009 2881 1497 
Q 2881 1984 2565 2268 
Q 2250 2553 1709 2553 
Q 1456 2553 1204 2497 
Q 953 2441 691 2322 
L 691 4666 
z
" transform="scale(0.015625)"/>
          </defs>
          <use xlink:href="#DejaVuSans-30"/>
          <use xlink:href="#DejaVuSans-2e" x="63.623047"/>
          <use xlink:href="#DejaVuSans-35" x="95.410156"/>
         </g>
        </g>
       </g>
       <g id="ytick_3">
        <g id="line2d_6">
         <g>
          <use xlink:href="#mf4b49b4d44" x="43.78125" y="165.180375" style="stroke: #000000; stroke-width: 0.8"/>
         </g>
        </g>
        <g id="text_6">
         <!-- 1.0 -->
         <g transform="translate(20.878125 168.979594)scale(0.1 -0.1)">
          <use xlink:href="#DejaVuSans-31"/>
          <use xlink:href="#DejaVuSans-2e" x="63.623047"/>
          <use xlink:href="#DejaVuSans-30" x="95.410156"/>
         </g>
        </g>
       </g>
       <g id="ytick_4">
        <g id="line2d_7">
         <g>
          <use xlink:href="#mf4b49b4d44" x="43.78125" y="117.559625" style="stroke: #000000; stroke-width: 0.8"/>
         </g>
        </g>
        <g id="text_7">
         <!-- 1.5 -->
         <g transform="translate(20.878125 121.358844)scale(0.1 -0.1)">
          <use xlink:href="#DejaVuSans-31"/>
          <use xlink:href="#DejaVuSans-2e" x="63.623047"/>
          <use xlink:href="#DejaVuSans-35" x="95.410156"/>
         </g>
        </g>
       </g>
       <g id="ytick_5">
        <g id="line2d_8">
         <g>
          <use xlink:href="#mf4b49b4d44" x="43.78125" y="69.938875" style="stroke: #000000; stroke-width: 0.8"/>
         </g>
        </g>
        <g id="text_8">
         <!-- 2.0 -->
         <g transform="translate(20.878125 73.738094)scale(0.1 -0.1)">
          <use xlink:href="#DejaVuSans-32"/>
          <use xlink:href="#DejaVuSans-2e" x="63.623047"/>
          <use xlink:href="#DejaVuSans-30" x="95.410156"/>
         </g>
        </g>
       </g>
       <g id="ytick_6">
        <g id="line2d_9">
         <g>
          <use xlink:href="#mf4b49b4d44" x="43.78125" y="22.318125" style="stroke: #000000; stroke-width: 0.8"/>
         </g>
        </g>
        <g id="text_9">
         <!-- 2.5 -->
         <g transform="translate(20.878125 26.117344)scale(0.1 -0.1)">
          <use xlink:href="#DejaVuSans-32"/>
          <use xlink:href="#DejaVuSans-2e" x="63.623047"/>
          <use xlink:href="#DejaVuSans-35" x="95.410156"/>
         </g>
        </g>
       </g>
       <g id="text_10">
        <!-- time ago (generations) -->
        <g transform="translate(14.798438 198.841094)rotate(-90)scale(0.1 -0.1)">
         <defs>
          <path id="DejaVuSans-74" d="M 1172 4494 
L 1172 3500 
L 2356 3500 
L 2356 3053 
L 1172 3053 
L 1172 1153 
Q 1172 725 1289 603 
Q 1406 481 1766 481 
L 2356 481 
L 2356 0 
L 1766 0 
Q 1100 0 847 248 
Q 594 497 594 1153 
L 594 3053 
L 172 3053 
L 172 3500 
L 594 3500 
L 594 4494 
L 1172 4494 
z
" transform="scale(0.015625)"/>
          <path id="DejaVuSans-69" d="M 603 3500 
L 1178 3500 
L 1178 0 
L 603 0 
L 603 3500 
z
M 603 4863 
L 1178 4863 
L 1178 4134 
L 603 4134 
L 603 4863 
z
" transform="scale(0.015625)"/>
          <path id="DejaVuSans-20" transform="scale(0.015625)"/>
          <path id="DejaVuSans-61" d="M 2194 1759 
Q 1497 1759 1228 1600 
Q 959 1441 959 1056 
Q 959 750 1161 570 
Q 1363 391 1709 391 
Q 2188 391 2477 730 
Q 2766 1069 2766 1631 
L 2766 1759 
L 2194 1759 
z
M 3341 1997 
L 3341 0 
L 2766 0 
L 2766 531 
Q 2569 213 2275 61 
Q 1981 -91 1556 -91 
Q 1019 -91 701 211 
Q 384 513 384 1019 
Q 384 1609 779 1909 
Q 1175 2209 1959 2209 
L 2766 2209 
L 2766 2266 
Q 2766 2663 2505 2880 
Q 2244 3097 1772 3097 
Q 1472 3097 1187 3025 
Q 903 2953 641 2809 
L 641 3341 
Q 956 3463 1253 3523 
Q 1550 3584 1831 3584 
Q 2591 3584 2966 3190 
Q 3341 2797 3341 1997 
z
" transform="scale(0.015625)"/>
          <path id="DejaVuSans-67" d="M 2906 1791 
Q 2906 2416 2648 2759 
Q 2391 3103 1925 3103 
Q 1463 3103 1205 2759 
Q 947 2416 947 1791 
Q 947 1169 1205 825 
Q 1463 481 1925 481 
Q 2391 481 2648 825 
Q 2906 1169 2906 1791 
z
M 3481 434 
Q 3481 -459 3084 -895 
Q 2688 -1331 1869 -1331 
Q 1566 -1331 1297 -1286 
Q 1028 -1241 775 -1147 
L 775 -588 
Q 1028 -725 1275 -790 
Q 1522 -856 1778 -856 
Q 2344 -856 2625 -561 
Q 2906 -266 2906 331 
L 2906 616 
Q 2728 306 2450 153 
Q 2172 0 1784 0 
Q 1141 0 747 490 
Q 353 981 353 1791 
Q 353 2603 747 3093 
Q 1141 3584 1784 3584 
Q 2172 3584 2450 3431 
Q 2728 3278 2906 2969 
L 2906 3500 
L 3481 3500 
L 3481 434 
z
" transform="scale(0.015625)"/>
          <path id="DejaVuSans-6f" d="M 1959 3097 
Q 1497 3097 1228 2736 
Q 959 2375 959 1747 
Q 959 1119 1226 758 
Q 1494 397 1959 397 
Q 2419 397 2687 759 
Q 2956 1122 2956 1747 
Q 2956 2369 2687 2733 
Q 2419 3097 1959 3097 
z
M 1959 3584 
Q 2709 3584 3137 3096 
Q 3566 2609 3566 1747 
Q 3566 888 3137 398 
Q 2709 -91 1959 -91 
Q 1206 -91 779 398 
Q 353 888 353 1747 
Q 353 2609 779 3096 
Q 1206 3584 1959 3584 
z
" transform="scale(0.015625)"/>
          <path id="DejaVuSans-28" d="M 1984 4856 
Q 1566 4138 1362 3434 
Q 1159 2731 1159 2009 
Q 1159 1288 1364 580 
Q 1569 -128 1984 -844 
L 1484 -844 
Q 1016 -109 783 600 
Q 550 1309 550 2009 
Q 550 2706 781 3412 
Q 1013 4119 1484 4856 
L 1984 4856 
z
" transform="scale(0.015625)"/>
          <path id="DejaVuSans-6e" d="M 3513 2113 
L 3513 0 
L 2938 0 
L 2938 2094 
Q 2938 2591 2744 2837 
Q 2550 3084 2163 3084 
Q 1697 3084 1428 2787 
Q 1159 2491 1159 1978 
L 1159 0 
L 581 0 
L 581 3500 
L 1159 3500 
L 1159 2956 
Q 1366 3272 1645 3428 
Q 1925 3584 2291 3584 
Q 2894 3584 3203 3211 
Q 3513 2838 3513 2113 
z
" transform="scale(0.015625)"/>
          <path id="DejaVuSans-72" d="M 2631 2963 
Q 2534 3019 2420 3045 
Q 2306 3072 2169 3072 
Q 1681 3072 1420 2755 
Q 1159 2438 1159 1844 
L 1159 0 
L 581 0 
L 581 3500 
L 1159 3500 
L 1159 2956 
Q 1341 3275 1631 3429 
Q 1922 3584 2338 3584 
Q 2397 3584 2469 3576 
Q 2541 3569 2628 3553 
L 2631 2963 
z
" transform="scale(0.015625)"/>
          <path id="DejaVuSans-73" d="M 2834 3397 
L 2834 2853 
Q 2591 2978 2328 3040 
Q 2066 3103 1784 3103 
Q 1356 3103 1142 2972 
Q 928 2841 928 2578 
Q 928 2378 1081 2264 
Q 1234 2150 1697 2047 
L 1894 2003 
Q 2506 1872 2764 1633 
Q 3022 1394 3022 966 
Q 3022 478 2636 193 
Q 2250 -91 1575 -91 
Q 1294 -91 989 -36 
Q 684 19 347 128 
L 347 722 
Q 666 556 975 473 
Q 1284 391 1588 391 
Q 1994 391 2212 530 
Q 2431 669 2431 922 
Q 2431 1156 2273 1281 
Q 2116 1406 1581 1522 
L 1381 1569 
Q 847 1681 609 1914 
Q 372 2147 372 2553 
Q 372 3047 722 3315 
Q 1072 3584 1716 3584 
Q 2034 3584 2315 3537 
Q 2597 3491 2834 3397 
z
" transform="scale(0.015625)"/>
          <path id="DejaVuSans-29" d="M 513 4856 
L 1013 4856 
Q 1481 4119 1714 3412 
Q 1947 2706 1947 2009 
Q 1947 1309 1714 600 
Q 1481 -109 1013 -844 
L 513 -844 
Q 928 -128 1133 580 
Q 1338 1288 1338 2009 
Q 1338 2731 1133 3434 
Q 928 4138 513 4856 
z
" transform="scale(0.015625)"/>
         </defs>
         <use xlink:href="#DejaVuSans-74"/>
         <use xlink:href="#DejaVuSans-69" x="39.208984"/>
         <use xlink:href="#DejaVuSans-6d" x="66.992188"/>
         <use xlink:href="#DejaVuSans-65" x="164.404297"/>
         <use xlink:href="#DejaVuSans-20" x="225.927734"/>
         <use xlink:href="#DejaVuSans-61" x="257.714844"/>
         <use xlink:href="#DejaVuSans-67" x="318.994141"/>
         <use xlink:href="#DejaVuSans-6f" x="382.470703"/>
         <use xlink:href="#DejaVuSans-20" x="443.652344"/>
         <use xlink:href="#DejaVuSans-28" x="475.439453"/>
         <use xlink:href="#DejaVuSans-67" x="514.453125"/>
         <use xlink:href="#DejaVuSans-65" x="577.929688"/>
         <use xlink:href="#DejaVuSans-6e" x="639.453125"/>
         <use xlink:href="#DejaVuSans-65" x="702.832031"/>
         <use xlink:href="#DejaVuSans-72" x="764.355469"/>
         <use xlink:href="#DejaVuSans-61" x="805.46875"/>
         <use xlink:href="#DejaVuSans-74" x="866.748047"/>
         <use xlink:href="#DejaVuSans-69" x="905.957031"/>
         <use xlink:href="#DejaVuSans-6f" x="933.740234"/>
         <use xlink:href="#DejaVuSans-6e" x="994.921875"/>
         <use xlink:href="#DejaVuSans-73" x="1058.300781"/>
         <use xlink:href="#DejaVuSans-29" x="1110.400391"/>
        </g>
       </g>
      </g>
      <path d="M 216.822903 142.163209 
L 214.822903 141.163209 
L 214.822903 143.163209 
z
" clip-path="url(#pa47a36784e)" style="fill: #1f77b4; fill-opacity: 0.5; stroke: #1f77b4; stroke-opacity: 0.5; stroke-linejoin: miter"/>
      <path d="M 216.822903 83.49271 
L 214.822903 82.49271 
L 214.822903 84.49271 
z
" clip-path="url(#pa47a36784e)" style="fill: #1f77b4; fill-opacity: 0.5; stroke: #1f77b4; stroke-opacity: 0.5; stroke-linejoin: miter"/>
      <path d="M 216.822903 114.958968 
L 214.822903 113.958968 
L 214.822903 115.958968 
z
" clip-path="url(#pa47a36784e)" style="fill: #1f77b4; fill-opacity: 0.5; stroke: #1f77b4; stroke-opacity: 0.5; stroke-linejoin: miter"/>
      <path d="M 216.822903 77.298967 
L 214.822903 76.298967 
L 214.822903 78.298967 
z
" clip-path="url(#pa47a36784e)" style="fill: #1f77b4; fill-opacity: 0.5; stroke: #1f77b4; stroke-opacity: 0.5; stroke-linejoin: miter"/>
      <path d="M 216.822903 119.38297 
L 214.822903 118.38297 
L 214.822903 120.38297 
z
" clip-path="url(#pa47a36784e)" style="fill: #1f77b4; fill-opacity: 0.5; stroke: #1f77b4; stroke-opacity: 0.5; stroke-linejoin: miter"/>
      <path d="M 216.822903 77.747749 
L 214.822903 76.747749 
L 214.822903 78.747749 
z
" clip-path="url(#pa47a36784e)" style="fill: #1f77b4; fill-opacity: 0.5; stroke: #1f77b4; stroke-opacity: 0.5; stroke-linejoin: miter"/>
      <path d="M 216.822903 73.935071 
L 214.822903 72.935071 
L 214.822903 74.935071 
z
" clip-path="url(#pa47a36784e)" style="fill: #1f77b4; fill-opacity: 0.5; stroke: #1f77b4; stroke-opacity: 0.5; stroke-linejoin: miter"/>
      <path d="M 216.822903 134.887732 
L 214.822903 133.887732 
L 214.822903 135.887732 
z
" clip-path="url(#pa47a36784e)" style="fill: #1f77b4; fill-opacity: 0.5; stroke: #1f77b4; stroke-opacity: 0.5; stroke-linejoin: miter"/>
      <path d="M 216.822903 162.295793 
L 214.822903 161.295793 
L 214.822903 163.295793 
z
" clip-path="url(#pa47a36784e)" style="fill: #1f77b4; fill-opacity: 0.5; stroke: #1f77b4; stroke-opacity: 0.5; stroke-linejoin: miter"/>
      <path d="M 216.822903 120.163752 
L 214.822903 119.163752 
L 214.822903 121.163752 
z
" clip-path="url(#pa47a36784e)" style="fill: #1f77b4; fill-opacity: 0.5; stroke: #1f77b4; stroke-opacity: 0.5; stroke-linejoin: miter"/>
      <path d="M 372.774618 148.404681 
L 370.774618 147.404681 
L 370.774618 149.404681 
z
" clip-path="url(#pa47a36784e)" style="fill: #ff7f0e; fill-opacity: 0.5; stroke: #ff7f0e; stroke-opacity: 0.5; stroke-linejoin: miter"/>
      <path d="M 372.774618 127.917873 
L 370.774618 126.917873 
L 370.774618 128.917873 
z
" clip-path="url(#pa47a36784e)" style="fill: #ff7f0e; fill-opacity: 0.5; stroke: #ff7f0e; stroke-opacity: 0.5; stroke-linejoin: miter"/>
      <path d="M 372.774618 95.719898 
L 370.774618 94.719898 
L 370.774618 96.719898 
z
" clip-path="url(#pa47a36784e)" style="fill: #ff7f0e; fill-opacity: 0.5; stroke: #ff7f0e; stroke-opacity: 0.5; stroke-linejoin: miter"/>
      <path d="M 372.774618 149.832819 
L 370.774618 148.832819 
L 370.774618 150.832819 
z
" clip-path="url(#pa47a36784e)" style="fill: #ff7f0e; fill-opacity: 0.5; stroke: #ff7f0e; stroke-opacity: 0.5; stroke-linejoin: miter"/>
      <path d="M 372.774618 80.464306 
L 370.774618 79.464306 
L 370.774618 81.464306 
z
" clip-path="url(#pa47a36784e)" style="fill: #ff7f0e; fill-opacity: 0.5; stroke: #ff7f0e; stroke-opacity: 0.5; stroke-linejoin: miter"/>
      <path d="M 372.774618 70.492084 
L 370.774618 69.492084 
L 370.774618 71.492084 
z
" clip-path="url(#pa47a36784e)" style="fill: #ff7f0e; fill-opacity: 0.5; stroke: #ff7f0e; stroke-opacity: 0.5; stroke-linejoin: miter"/>
      <path d="M 372.774618 113.639826 
L 370.774618 112.639826 
L 370.774618 114.639826 
z
" clip-path="url(#pa47a36784e)" style="fill: #ff7f0e; fill-opacity: 0.5; stroke: #ff7f0e; stroke-opacity: 0.5; stroke-linejoin: miter"/>
      <path d="M 372.774618 115.687925 
L 370.774618 114.687925 
L 370.774618 116.687925 
z
" clip-path="url(#pa47a36784e)" style="fill: #ff7f0e; fill-opacity: 0.5; stroke: #ff7f0e; stroke-opacity: 0.5; stroke-linejoin: miter"/>
      <path d="M 372.774618 90.846539 
L 370.774618 89.846539 
L 370.774618 91.846539 
z
" clip-path="url(#pa47a36784e)" style="fill: #ff7f0e; fill-opacity: 0.5; stroke: #ff7f0e; stroke-opacity: 0.5; stroke-linejoin: miter"/>
      <path d="M 372.774618 164.005332 
L 370.774618 163.005332 
L 370.774618 165.005332 
z
" clip-path="url(#pa47a36784e)" style="fill: #ff7f0e; fill-opacity: 0.5; stroke: #ff7f0e; stroke-opacity: 0.5; stroke-linejoin: miter"/>
      <g id="patch_6">
       <path d="M 43.78125 260.421875 
L 43.78125 22.318125 
" style="fill: none; stroke: #000000; stroke-width: 0.8; stroke-linejoin: miter; stroke-linecap: square"/>
      </g>
      <g id="text_11">
       <!-- defaults_migration_properties.yaml -->
       <g transform="translate(164.234688 16.318125)scale(0.12 -0.12)">
        <defs>
         <path id="DejaVuSans-66" d="M 2375 4863 
L 2375 4384 
L 1825 4384 
Q 1516 4384 1395 4259 
Q 1275 4134 1275 3809 
L 1275 3500 
L 2222 3500 
L 2222 3053 
L 1275 3053 
L 1275 0 
L 697 0 
L 697 3053 
L 147 3053 
L 147 3500 
L 697 3500 
L 697 3744 
Q 697 4328 969 4595 
Q 1241 4863 1831 4863 
L 2375 4863 
z
" transform="scale(0.015625)"/>
         <path id="DejaVuSans-75" d="M 544 1381 
L 544 3500 
L 1119 3500 
L 1119 1403 
Q 1119 906 1312 657 
Q 1506 409 1894 409 
Q 2359 409 2629 706 
Q 2900 1003 2900 1516 
L 2900 3500 
L 3475 3500 
L 3475 0 
L 2900 0 
L 2900 538 
Q 2691 219 2414 64 
Q 2138 -91 1772 -91 
Q 1169 -91 856 284 
Q 544 659 544 1381 
z
M 1991 3584 
L 1991 3584 
z
" transform="scale(0.015625)"/>
         <path id="DejaVuSans-6c" d="M 603 4863 
L 1178 4863 
L 1178 0 
L 603 0 
L 603 4863 
z
" transform="scale(0.015625)"/>
         <path id="DejaVuSans-5f" d="M 3263 -1063 
L 3263 -1509 
L -63 -1509 
L -63 -1063 
L 3263 -1063 
z
" transform="scale(0.015625)"/>
         <path id="DejaVuSans-70" d="M 1159 525 
L 1159 -1331 
L 581 -1331 
L 581 3500 
L 1159 3500 
L 1159 2969 
Q 1341 3281 1617 3432 
Q 1894 3584 2278 3584 
Q 2916 3584 3314 3078 
Q 3713 2572 3713 1747 
Q 3713 922 3314 415 
Q 2916 -91 2278 -91 
Q 1894 -91 1617 61 
Q 1341 213 1159 525 
z
M 3116 1747 
Q 3116 2381 2855 2742 
Q 2594 3103 2138 3103 
Q 1681 3103 1420 2742 
Q 1159 2381 1159 1747 
Q 1159 1113 1420 752 
Q 1681 391 2138 391 
Q 2594 391 2855 752 
Q 3116 1113 3116 1747 
z
" transform="scale(0.015625)"/>
         <path id="DejaVuSans-79" d="M 2059 -325 
Q 1816 -950 1584 -1140 
Q 1353 -1331 966 -1331 
L 506 -1331 
L 506 -850 
L 844 -850 
Q 1081 -850 1212 -737 
Q 1344 -625 1503 -206 
L 1606 56 
L 191 3500 
L 800 3500 
L 1894 763 
L 2988 3500 
L 3597 3500 
L 2059 -325 
z
" transform="scale(0.015625)"/>
        </defs>
        <use xlink:href="#DejaVuSans-64"/>
        <use xlink:href="#DejaVuSans-65" x="63.476562"/>
        <use xlink:href="#DejaVuSans-66" x="125"/>
        <use xlink:href="#DejaVuSans-61" x="160.205078"/>
        <use xlink:href="#DejaVuSans-75" x="221.484375"/>
        <use xlink:href="#DejaVuSans-6c" x="284.863281"/>
        <use xlink:href="#DejaVuSans-74" x="312.646484"/>
        <use xlink:href="#DejaVuSans-73" x="351.855469"/>
        <use xlink:href="#DejaVuSans-5f" x="403.955078"/>
        <use xlink:href="#DejaVuSans-6d" x="453.955078"/>
        <use xlink:href="#DejaVuSans-69" x="551.367188"/>
        <use xlink:href="#DejaVuSans-67" x="579.150391"/>
        <use xlink:href="#DejaVuSans-72" x="642.626953"/>
        <use xlink:href="#DejaVuSans-61" x="683.740234"/>
        <use xlink:href="#DejaVuSans-74" x="745.019531"/>
        <use xlink:href="#DejaVuSans-69" x="784.228516"/>
        <use xlink:href="#DejaVuSans-6f" x="812.011719"/>
        <use xlink:href="#DejaVuSans-6e" x="873.193359"/>
        <use xlink:href="#DejaVuSans-5f" x="936.572266"/>
        <use xlink:href="#DejaVuSans-70" x="986.572266"/>
        <use xlink:href="#DejaVuSans-72" x="1050.048828"/>
        <use xlink:href="#DejaVuSans-6f" x="1088.912109"/>
        <use xlink:href="#DejaVuSans-70" x="1150.09375"/>
        <use xlink:href="#DejaVuSans-65" x="1213.570312"/>
        <use xlink:href="#DejaVuSans-72" x="1275.09375"/>
        <use xlink:href="#DejaVuSans-74" x="1316.207031"/>
        <use xlink:href="#DejaVuSans-69" x="1355.416016"/>
        <use xlink:href="#DejaVuSans-65" x="1383.199219"/>
        <use xlink:href="#DejaVuSans-73" x="1444.722656"/>
        <use xlink:href="#DejaVuSans-2e" x="1496.822266"/>
        <use xlink:href="#DejaVuSans-79" x="1528.609375"/>
        <use xlink:href="#DejaVuSans-61" x="1587.789062"/>
        <use xlink:href="#DejaVuSans-6d" x="1649.068359"/>
        <use xlink:href="#DejaVuSans-6c" x="1746.480469"/>
       </g>
      </g>
     </g>
    </g>
    <defs>
     <clipPath id="pa47a36784e">
      <rect x="43.78125" y="22.318125" width="453.81875" height="238.10375"/>
     </clipPath>
    </defs>
   </g>
  </g>
 </g>
</svg>
