<?xml version="1.0" encoding="utf-8" standalone="no"?>
<!DOCTYPE svg PUBLIC "-//W3C//DTD SVG 1.1//EN"
  "http://www.w3.org/Graphics/SVG/1.1/DTD/svg11.dtd">
<svg xmlns:xlink="http://www.w3.org/1999/xlink" width="504.8pt" height="280.8pt" viewBox="0 0 504.8 280.8" xmlns="http://www.w3.org/2000/svg" version="1.1">
 <metadata>
  <rdf:RDF xmlns:dc="http://purl.org/dc/elements/1.1/" xmlns:cc="http://creativecommons.org/ns#" xmlns:rdf="http://www.w3.org/1999/02/22-rdf-syntax-ns#">
   <cc:Work>
    <dc:type rdf:resource="http://purl.org/dc/dcmitype/StillImage"/>
    <dc:date>2022-01-31T08:26:14.647902</dc:date>
    <dc:format>image/svg+xml</dc:format>
    <dc:creator>
     <cc:Agent>
      <dc:title>Matplotlib v3.5.1, https://matplotlib.org/</dc:title>
     </cc:Agent>
    </dc:creator>
   </cc:Work>
  </rdf:RDF>
 </metadata>
 <defs>
  <style type="text/css">*{stroke-linejoin: round; stroke-linecap: butt}</style>
 </defs>
 <g id="figure_1">
  <g id="patch_1">
   <path d="M 0 280.8 
L 504.8 280.8 
L 504.8 0 
L 0 0 
L 0 280.8 
z
" style="fill: none"/>
  </g>
  <g id="axes_1">
   <g id="patch_2">
    <path d="M 46.965625 260.421875 
L 497.6 260.421875 
L 497.6 22.318125 
L 46.965625 22.318125 
z
" style="fill: #ffffff"/>
   </g>
   <path d="M 171.90811 199.523504 
L 172.90811 199.554941 
L 173.90811 199.591881 
L 174.90811 199.689628 
L 175.90811 199.722149 
L 176.90811 199.795774 
L 177.90811 199.83434 
L 178.90811 199.869753 
L 179.90811 199.927393 
L 180.90811 199.997779 
L 181.90811 200.049743 
L 182.90811 200.108833 
L 183.90811 200.197154 
L 184.90811 200.243298 
L 185.90811 200.285709 
L 186.90811 200.316202 
L 187.90811 200.342247 
L 188.90811 200.363447 
L 189.90811 200.417748 
L 190.90811 200.445685 
L 191.90811 200.475409 
L 192.90811 200.500804 
L 193.90811 200.512005 
L 194.90811 200.522128 
L 195.90811 200.521924 
L 196.90811 200.512414 
L 197.90811 200.500761 
L 198.90811 200.469731 
L 199.90811 200.458564 
L 200.90811 200.428446 
L 201.90811 200.368669 
L 202.90811 200.331478 
L 203.90811 200.292381 
L 204.90811 200.249942 
L 205.90811 200.217177 
L 206.90811 200.14975 
L 207.90811 200.110624 
L 208.90811 200.06795 
L 209.90811 199.997369 
L 210.90811 199.960978 
L 211.90811 199.902575 
L 212.90811 199.791623 
L 213.90811 199.720964 
L 214.90811 199.608024 
L 215.90811 199.562252 
L 217.800088 199.500968 
" clip-path="url(#p0595db0ad7)" style="fill: none; stroke: #1f77b4; stroke-opacity: 0.5; stroke-width: 0.2; stroke-linecap: square"/>
   <path d="M 171.90811 158.533169 
L 172.90811 158.564606 
L 173.90811 158.601546 
L 174.90811 158.699293 
L 175.90811 158.731814 
L 176.90811 158.805439 
L 177.90811 158.844004 
L 178.90811 158.879418 
L 179.90811 158.937058 
L 180.90811 159.007444 
L 181.90811 159.059408 
L 182.90811 159.118498 
L 183.90811 159.206819 
L 184.90811 159.252963 
L 185.90811 159.295374 
L 186.90811 159.325867 
L 187.90811 159.351912 
L 188.90811 159.373112 
L 189.90811 159.427413 
L 190.90811 159.45535 
L 191.90811 159.485074 
L 192.90811 159.510469 
L 193.90811 159.521669 
L 194.90811 159.531793 
L 195.90811 159.531589 
L 196.90811 159.522079 
L 197.90811 159.510426 
L 198.90811 159.479396 
L 199.90811 159.468228 
L 200.90811 159.438111 
L 201.90811 159.378334 
L 202.90811 159.341142 
L 203.90811 159.302046 
L 204.90811 159.259607 
L 205.90811 159.226842 
L 206.90811 159.159415 
L 207.90811 159.120289 
L 208.90811 159.077615 
L 209.90811 159.007034 
L 210.90811 158.970643 
L 211.90811 158.91224 
L 212.90811 158.801287 
L 213.90811 158.730629 
L 214.90811 158.617689 
L 215.90811 158.571916 
L 217.800088 158.510633 
" clip-path="url(#p0595db0ad7)" style="fill: none; stroke: #1f77b4; stroke-opacity: 0.5; stroke-width: 0.2; stroke-linecap: square"/>
   <path d="M 171.90811 228.435127 
L 172.90811 228.466564 
L 173.90811 228.503504 
L 174.90811 228.601251 
L 175.90811 228.633772 
L 176.90811 228.707397 
L 177.90811 228.745962 
L 178.90811 228.781376 
L 179.90811 228.839016 
L 180.90811 228.909402 
L 181.90811 228.961366 
L 182.90811 229.020456 
L 183.90811 229.108777 
L 184.90811 229.154921 
L 185.90811 229.197332 
L 186.90811 229.227825 
L 187.90811 229.25387 
L 188.90811 229.27507 
L 189.90811 229.329371 
L 190.90811 229.357308 
L 191.90811 229.387032 
L 192.90811 229.412427 
L 193.90811 229.423627 
L 194.90811 229.433751 
L 195.90811 229.433547 
L 196.90811 229.424037 
L 197.90811 229.412384 
L 198.90811 229.381354 
L 199.90811 229.370186 
L 200.90811 229.340069 
L 201.90811 229.280292 
L 202.90811 229.2431 
L 203.90811 229.204004 
L 204.90811 229.161565 
L 205.90811 229.1288 
L 206.90811 229.061373 
L 207.90811 229.022247 
L 208.90811 228.979573 
L 209.90811 228.908992 
L 210.90811 228.872601 
L 211.90811 228.814198 
L 212.90811 228.703245 
L 213.90811 228.632587 
L 214.90811 228.519647 
L 215.90811 228.473874 
L 217.800088 228.412591 
" clip-path="url(#p0595db0ad7)" style="fill: none; stroke: #1f77b4; stroke-opacity: 0.5; stroke-width: 0.2; stroke-linecap: square"/>
   <path d="M 171.90811 219.812981 
L 172.90811 219.844418 
L 173.90811 219.881358 
L 174.90811 219.979105 
L 175.90811 220.011626 
L 176.90811 220.085251 
L 177.90811 220.123816 
L 178.90811 220.15923 
L 179.90811 220.21687 
L 180.90811 220.287256 
L 181.90811 220.33922 
L 182.90811 220.39831 
L 183.90811 220.486631 
L 184.90811 220.532775 
L 185.90811 220.575186 
L 186.90811 220.605679 
L 187.90811 220.631724 
L 188.90811 220.652924 
L 189.90811 220.707225 
L 190.90811 220.735162 
L 191.90811 220.764886 
L 192.90811 220.790281 
L 193.90811 220.801482 
L 194.90811 220.811605 
L 195.90811 220.811401 
L 196.90811 220.801891 
L 197.90811 220.790238 
L 198.90811 220.759208 
L 199.90811 220.748041 
L 200.90811 220.717923 
L 201.90811 220.658146 
L 202.90811 220.620955 
L 203.90811 220.581858 
L 204.90811 220.539419 
L 205.90811 220.506654 
L 206.90811 220.439227 
L 207.90811 220.400101 
L 208.90811 220.357427 
L 209.90811 220.286846 
L 210.90811 220.250455 
L 211.90811 220.192052 
L 212.90811 220.0811 
L 213.90811 220.010441 
L 214.90811 219.897501 
L 215.90811 219.851729 
L 217.800088 219.790445 
" clip-path="url(#p0595db0ad7)" style="fill: none; stroke: #1f77b4; stroke-opacity: 0.5; stroke-width: 0.2; stroke-linecap: square"/>
   <path d="M 171.90811 174.362631 
L 172.90811 174.394067 
L 173.90811 174.431007 
L 174.90811 174.528754 
L 175.90811 174.561275 
L 176.90811 174.6349 
L 177.90811 174.673466 
L 178.90811 174.708879 
L 179.90811 174.766519 
L 180.90811 174.836905 
L 181.90811 174.888869 
L 182.90811 174.947959 
L 183.90811 175.03628 
L 184.90811 175.082424 
L 185.90811 175.124835 
L 186.90811 175.155328 
L 187.90811 175.181373 
L 188.90811 175.202573 
L 189.90811 175.256874 
L 190.90811 175.284812 
L 191.90811 175.314536 
L 192.90811 175.33993 
L 193.90811 175.351131 
L 194.90811 175.361255 
L 195.90811 175.36105 
L 196.90811 175.35154 
L 197.90811 175.339887 
L 198.90811 175.308858 
L 199.90811 175.29769 
L 200.90811 175.267572 
L 201.90811 175.207795 
L 202.90811 175.170604 
L 203.90811 175.131508 
L 204.90811 175.089068 
L 205.90811 175.056303 
L 206.90811 174.988876 
L 207.90811 174.94975 
L 208.90811 174.907076 
L 209.90811 174.836495 
L 210.90811 174.800104 
L 211.90811 174.741701 
L 212.90811 174.630749 
L 213.90811 174.56009 
L 214.90811 174.447151 
L 215.90811 174.401378 
L 217.800088 174.340094 
" clip-path="url(#p0595db0ad7)" style="fill: none; stroke: #1f77b4; stroke-opacity: 0.5; stroke-width: 0.2; stroke-linecap: square"/>
   <path d="M 171.90811 248.717982 
L 172.90811 248.749418 
L 173.90811 248.786358 
L 174.90811 248.884105 
L 175.90811 248.916627 
L 176.90811 248.990251 
L 177.90811 249.028817 
L 178.90811 249.06423 
L 179.90811 249.12187 
L 180.90811 249.192256 
L 181.90811 249.24422 
L 182.90811 249.30331 
L 183.90811 249.391631 
L 184.90811 249.437775 
L 185.90811 249.480186 
L 186.90811 249.510679 
L 187.90811 249.536724 
L 188.90811 249.557924 
L 189.90811 249.612225 
L 190.90811 249.640163 
L 191.90811 249.669887 
L 192.90811 249.695281 
L 193.90811 249.706482 
L 194.90811 249.716606 
L 195.90811 249.716401 
L 196.90811 249.706892 
L 197.90811 249.695238 
L 198.90811 249.664209 
L 199.90811 249.653041 
L 200.90811 249.622923 
L 201.90811 249.563146 
L 202.90811 249.525955 
L 203.90811 249.486859 
L 204.90811 249.444419 
L 205.90811 249.411654 
L 206.90811 249.344228 
L 207.90811 249.305102 
L 208.90811 249.262427 
L 209.90811 249.191846 
L 210.90811 249.155456 
L 211.90811 249.097052 
L 212.90811 248.9861 
L 213.90811 248.915442 
L 214.90811 248.802502 
L 215.90811 248.756729 
L 217.800088 248.695446 
" clip-path="url(#p0595db0ad7)" style="fill: none; stroke: #1f77b4; stroke-opacity: 0.5; stroke-width: 0.2; stroke-linecap: square"/>
   <path d="M 171.90811 171.906316 
L 172.90811 171.937753 
L 173.90811 171.974693 
L 174.90811 172.07244 
L 175.90811 172.104961 
L 176.90811 172.178586 
L 177.90811 172.217151 
L 178.90811 172.252565 
L 179.90811 172.310205 
L 180.90811 172.380591 
L 181.90811 172.432555 
L 182.90811 172.491645 
L 183.90811 172.579966 
L 184.90811 172.62611 
L 185.90811 172.668521 
L 186.90811 172.699014 
L 187.90811 172.725059 
L 188.90811 172.746259 
L 189.90811 172.80056 
L 190.90811 172.828497 
L 191.90811 172.858221 
L 192.90811 172.883616 
L 193.90811 172.894816 
L 194.90811 172.90494 
L 195.90811 172.904736 
L 196.90811 172.895226 
L 197.90811 172.883573 
L 198.90811 172.852543 
L 199.90811 172.841375 
L 200.90811 172.811258 
L 201.90811 172.751481 
L 202.90811 172.714289 
L 203.90811 172.675193 
L 204.90811 172.632754 
L 205.90811 172.599989 
L 206.90811 172.532562 
L 207.90811 172.493436 
L 208.90811 172.450762 
L 209.90811 172.380181 
L 210.90811 172.34379 
L 211.90811 172.285387 
L 212.90811 172.174434 
L 213.90811 172.103776 
L 214.90811 171.990836 
L 215.90811 171.945063 
L 217.800088 171.88378 
" clip-path="url(#p0595db0ad7)" style="fill: none; stroke: #1f77b4; stroke-opacity: 0.5; stroke-width: 0.2; stroke-linecap: square"/>
   <path d="M 171.90811 202.375298 
L 172.90811 202.406734 
L 173.90811 202.443674 
L 174.90811 202.541421 
L 175.90811 202.573943 
L 176.90811 202.647567 
L 177.90811 202.686133 
L 178.90811 202.721546 
L 179.90811 202.779186 
L 180.90811 202.849572 
L 181.90811 202.901536 
L 182.90811 202.960626 
L 183.90811 203.048947 
L 184.90811 203.095091 
L 185.90811 203.137502 
L 186.90811 203.167995 
L 187.90811 203.19404 
L 188.90811 203.21524 
L 189.90811 203.269541 
L 190.90811 203.297479 
L 191.90811 203.327203 
L 192.90811 203.352598 
L 193.90811 203.363798 
L 194.90811 203.373922 
L 195.90811 203.373718 
L 196.90811 203.364208 
L 197.90811 203.352554 
L 198.90811 203.321525 
L 199.90811 203.310357 
L 200.90811 203.280239 
L 201.90811 203.220462 
L 202.90811 203.183271 
L 203.90811 203.144175 
L 204.90811 203.101735 
L 205.90811 203.06897 
L 206.90811 203.001544 
L 207.90811 202.962418 
L 208.90811 202.919743 
L 209.90811 202.849163 
L 210.90811 202.812772 
L 211.90811 202.754369 
L 212.90811 202.643416 
L 213.90811 202.572758 
L 214.90811 202.459818 
L 215.90811 202.414045 
L 217.800088 202.352762 
" clip-path="url(#p0595db0ad7)" style="fill: none; stroke: #1f77b4; stroke-opacity: 0.5; stroke-width: 0.2; stroke-linecap: square"/>
   <path d="M 171.90811 233.819633 
L 172.90811 233.85107 
L 173.90811 233.88801 
L 174.90811 233.985757 
L 175.90811 234.018278 
L 176.90811 234.091903 
L 177.90811 234.130469 
L 178.90811 234.165882 
L 179.90811 234.223522 
L 180.90811 234.293908 
L 181.90811 234.345872 
L 182.90811 234.404962 
L 183.90811 234.493283 
L 184.90811 234.539427 
L 185.90811 234.581838 
L 186.90811 234.612331 
L 187.90811 234.638376 
L 188.90811 234.659576 
L 189.90811 234.713877 
L 190.90811 234.741814 
L 191.90811 234.771538 
L 192.90811 234.796933 
L 193.90811 234.808134 
L 194.90811 234.818258 
L 195.90811 234.818053 
L 196.90811 234.808543 
L 197.90811 234.79689 
L 198.90811 234.765861 
L 199.90811 234.754693 
L 200.90811 234.724575 
L 201.90811 234.664798 
L 202.90811 234.627607 
L 203.90811 234.588511 
L 204.90811 234.546071 
L 205.90811 234.513306 
L 206.90811 234.445879 
L 207.90811 234.406753 
L 208.90811 234.364079 
L 209.90811 234.293498 
L 210.90811 234.257107 
L 211.90811 234.198704 
L 212.90811 234.087752 
L 213.90811 234.017093 
L 214.90811 233.904154 
L 215.90811 233.858381 
L 217.800088 233.797097 
" clip-path="url(#p0595db0ad7)" style="fill: none; stroke: #1f77b4; stroke-opacity: 0.5; stroke-width: 0.2; stroke-linecap: square"/>
   <path d="M 171.90811 46.263326 
L 172.90811 46.294763 
L 173.90811 46.331703 
L 174.90811 46.429449 
L 175.90811 46.461971 
L 176.90811 46.535596 
L 177.90811 46.574161 
L 178.90811 46.609575 
L 179.90811 46.667214 
L 180.90811 46.737601 
L 181.90811 46.789565 
L 182.90811 46.848655 
L 183.90811 46.936976 
L 184.90811 46.98312 
L 185.90811 47.025531 
L 186.90811 47.056023 
L 187.90811 47.082068 
L 188.90811 47.103269 
L 189.90811 47.15757 
L 190.90811 47.185507 
L 191.90811 47.215231 
L 192.90811 47.240626 
L 193.90811 47.251826 
L 194.90811 47.26195 
L 195.90811 47.261746 
L 196.90811 47.252236 
L 197.90811 47.240583 
L 198.90811 47.209553 
L 199.90811 47.198385 
L 200.90811 47.168268 
L 201.90811 47.108491 
L 202.90811 47.071299 
L 203.90811 47.032203 
L 204.90811 46.989764 
L 205.90811 46.956999 
L 206.90811 46.889572 
L 207.90811 46.850446 
L 208.90811 46.807772 
L 209.90811 46.737191 
L 210.90811 46.7008 
L 211.90811 46.642397 
L 212.90811 46.531444 
L 213.90811 46.460786 
L 214.90811 46.347846 
L 215.90811 46.302073 
L 217.800088 46.24079 
" clip-path="url(#p0595db0ad7)" style="fill: none; stroke: #1f77b4; stroke-opacity: 0.5; stroke-width: 0.2; stroke-linecap: square"/>
   <path d="M 217.800088 78.213952 
L 216.800088 78.182515 
L 215.800088 78.145575 
L 214.800088 78.047828 
L 213.800088 78.015307 
L 212.800088 77.941682 
L 211.800088 77.903117 
L 210.800088 77.867703 
L 209.800088 77.810064 
L 208.800088 77.739677 
L 207.800088 77.687713 
L 206.800088 77.628623 
L 205.800088 77.540302 
L 204.800088 77.494158 
L 203.800088 77.451747 
L 202.800088 77.421254 
L 201.800088 77.39521 
L 200.800088 77.374009 
L 199.800088 77.319708 
L 198.800088 77.291771 
L 197.800088 77.262047 
L 196.800088 77.236652 
L 195.800088 77.225452 
L 194.800088 77.215328 
L 193.800088 77.215532 
L 192.800088 77.225042 
L 191.800088 77.236695 
L 190.800088 77.267725 
L 189.800088 77.278893 
L 188.800088 77.30901 
L 187.800088 77.368787 
L 186.800088 77.405979 
L 185.800088 77.445075 
L 184.800088 77.487514 
L 183.800088 77.520279 
L 182.800088 77.587706 
L 181.800088 77.626832 
L 180.800088 77.669506 
L 179.800088 77.740087 
L 178.800088 77.776478 
L 177.800088 77.834881 
L 176.800088 77.945834 
L 175.800088 78.016492 
L 174.800088 78.129432 
L 173.800088 78.175205 
L 171.90811 78.236488 
" clip-path="url(#p0595db0ad7)" style="fill: none; stroke: #ff7f0e; stroke-opacity: 0.5; stroke-width: 0.2; stroke-linecap: square"/>
   <path d="M 217.800088 189.71917 
L 216.800088 189.687734 
L 215.800088 189.650793 
L 214.800088 189.553047 
L 213.800088 189.520525 
L 212.800088 189.446901 
L 211.800088 189.408335 
L 210.800088 189.372922 
L 209.800088 189.315282 
L 208.800088 189.244896 
L 207.800088 189.192931 
L 206.800088 189.133842 
L 205.800088 189.045521 
L 204.800088 188.999376 
L 203.800088 188.956966 
L 202.800088 188.926473 
L 201.800088 188.900428 
L 200.800088 188.879228 
L 199.800088 188.824927 
L 198.800088 188.796989 
L 197.800088 188.767265 
L 196.800088 188.74187 
L 195.800088 188.73067 
L 194.800088 188.720546 
L 193.800088 188.72075 
L 192.800088 188.73026 
L 191.800088 188.741914 
L 190.800088 188.772943 
L 189.800088 188.784111 
L 188.800088 188.814229 
L 187.800088 188.874005 
L 186.800088 188.911197 
L 185.800088 188.950293 
L 184.800088 188.992733 
L 183.800088 189.025498 
L 182.800088 189.092924 
L 181.800088 189.13205 
L 180.800088 189.174725 
L 179.800088 189.245305 
L 178.800088 189.281696 
L 177.800088 189.340099 
L 176.800088 189.451052 
L 175.800088 189.52171 
L 174.800088 189.63465 
L 173.800088 189.680423 
L 171.90811 189.741706 
" clip-path="url(#p0595db0ad7)" style="fill: none; stroke: #ff7f0e; stroke-opacity: 0.5; stroke-width: 0.2; stroke-linecap: square"/>
   <path d="M 217.800088 33.449636 
L 216.800088 33.4182 
L 215.800088 33.38126 
L 214.800088 33.283513 
L 213.800088 33.250991 
L 212.800088 33.177367 
L 211.800088 33.138801 
L 210.800088 33.103388 
L 209.800088 33.045748 
L 208.800088 32.975362 
L 207.800088 32.923398 
L 206.800088 32.864308 
L 205.800088 32.775987 
L 204.800088 32.729843 
L 203.800088 32.687432 
L 202.800088 32.656939 
L 201.800088 32.630894 
L 200.800088 32.609694 
L 199.800088 32.555393 
L 198.800088 32.527455 
L 197.800088 32.497731 
L 196.800088 32.472337 
L 195.800088 32.461136 
L 194.800088 32.451012 
L 193.800088 32.451216 
L 192.800088 32.460726 
L 191.800088 32.47238 
L 190.800088 32.503409 
L 189.800088 32.514577 
L 188.800088 32.544695 
L 187.800088 32.604472 
L 186.800088 32.641663 
L 185.800088 32.680759 
L 184.800088 32.723199 
L 183.800088 32.755964 
L 182.800088 32.82339 
L 181.800088 32.862516 
L 180.800088 32.905191 
L 179.800088 32.975771 
L 178.800088 33.012162 
L 177.800088 33.070566 
L 176.800088 33.181518 
L 175.800088 33.252176 
L 174.800088 33.365116 
L 173.800088 33.410889 
L 171.90811 33.472172 
" clip-path="url(#p0595db0ad7)" style="fill: none; stroke: #ff7f0e; stroke-opacity: 0.5; stroke-width: 0.2; stroke-linecap: square"/>
   <path d="M 217.800088 200.218126 
L 216.800088 200.18669 
L 215.800088 200.149749 
L 214.800088 200.052003 
L 213.800088 200.019481 
L 212.800088 199.945857 
L 211.800088 199.907291 
L 210.800088 199.871878 
L 209.800088 199.814238 
L 208.800088 199.743852 
L 207.800088 199.691888 
L 206.800088 199.632798 
L 205.800088 199.544477 
L 204.800088 199.498332 
L 203.800088 199.455922 
L 202.800088 199.425429 
L 201.800088 199.399384 
L 200.800088 199.378184 
L 199.800088 199.323883 
L 198.800088 199.295945 
L 197.800088 199.266221 
L 196.800088 199.240826 
L 195.800088 199.229626 
L 194.800088 199.219502 
L 193.800088 199.219706 
L 192.800088 199.229216 
L 191.800088 199.24087 
L 190.800088 199.271899 
L 189.800088 199.283067 
L 188.800088 199.313185 
L 187.800088 199.372961 
L 186.800088 199.410153 
L 185.800088 199.449249 
L 184.800088 199.491689 
L 183.800088 199.524454 
L 182.800088 199.59188 
L 181.800088 199.631006 
L 180.800088 199.673681 
L 179.800088 199.744261 
L 178.800088 199.780652 
L 177.800088 199.839055 
L 176.800088 199.950008 
L 175.800088 200.020666 
L 174.800088 200.133606 
L 173.800088 200.179379 
L 171.90811 200.240662 
" clip-path="url(#p0595db0ad7)" style="fill: none; stroke: #ff7f0e; stroke-opacity: 0.5; stroke-width: 0.2; stroke-linecap: square"/>
   <path d="M 217.800088 162.545108 
L 216.800088 162.513672 
L 215.800088 162.476731 
L 214.800088 162.378985 
L 213.800088 162.346463 
L 212.800088 162.272839 
L 211.800088 162.234273 
L 210.800088 162.19886 
L 209.800088 162.14122 
L 208.800088 162.070834 
L 207.800088 162.01887 
L 206.800088 161.95978 
L 205.800088 161.871459 
L 204.800088 161.825314 
L 203.800088 161.782904 
L 202.800088 161.752411 
L 201.800088 161.726366 
L 200.800088 161.705166 
L 199.800088 161.650865 
L 198.800088 161.622927 
L 197.800088 161.593203 
L 196.800088 161.567808 
L 195.800088 161.556608 
L 194.800088 161.546484 
L 193.800088 161.546688 
L 192.800088 161.556198 
L 191.800088 161.567852 
L 190.800088 161.598881 
L 189.800088 161.610049 
L 188.800088 161.640167 
L 187.800088 161.699943 
L 186.800088 161.737135 
L 185.800088 161.776231 
L 184.800088 161.818671 
L 183.800088 161.851436 
L 182.800088 161.918862 
L 181.800088 161.957988 
L 180.800088 162.000663 
L 179.800088 162.071243 
L 178.800088 162.107634 
L 177.800088 162.166037 
L 176.800088 162.27699 
L 175.800088 162.347648 
L 174.800088 162.460588 
L 173.800088 162.506361 
L 171.90811 162.567644 
" clip-path="url(#p0595db0ad7)" style="fill: none; stroke: #ff7f0e; stroke-opacity: 0.5; stroke-width: 0.2; stroke-linecap: square"/>
   <path d="M 217.800088 27.017568 
L 216.800088 26.986132 
L 215.800088 26.949192 
L 214.800088 26.851445 
L 213.800088 26.818924 
L 212.800088 26.745299 
L 211.800088 26.706733 
L 210.800088 26.67132 
L 209.800088 26.61368 
L 208.800088 26.543294 
L 207.800088 26.49133 
L 206.800088 26.43224 
L 205.800088 26.343919 
L 204.800088 26.297775 
L 203.800088 26.255364 
L 202.800088 26.224871 
L 201.800088 26.198826 
L 200.800088 26.177626 
L 199.800088 26.123325 
L 198.800088 26.095387 
L 197.800088 26.065663 
L 196.800088 26.040269 
L 195.800088 26.029068 
L 194.800088 26.018944 
L 193.800088 26.019149 
L 192.800088 26.028659 
L 191.800088 26.040312 
L 190.800088 26.071341 
L 189.800088 26.082509 
L 188.800088 26.112627 
L 187.800088 26.172404 
L 186.800088 26.209595 
L 185.800088 26.248691 
L 184.800088 26.291131 
L 183.800088 26.323896 
L 182.800088 26.391323 
L 181.800088 26.430448 
L 180.800088 26.473123 
L 179.800088 26.543704 
L 178.800088 26.580094 
L 177.800088 26.638498 
L 176.800088 26.74945 
L 175.800088 26.820109 
L 174.800088 26.933048 
L 173.800088 26.978821 
L 171.90811 27.040105 
" clip-path="url(#p0595db0ad7)" style="fill: none; stroke: #ff7f0e; stroke-opacity: 0.5; stroke-width: 0.2; stroke-linecap: square"/>
   <path d="M 217.800088 254.319755 
L 216.800088 254.288319 
L 215.800088 254.251379 
L 214.800088 254.153632 
L 213.800088 254.12111 
L 212.800088 254.047486 
L 211.800088 254.00892 
L 210.800088 253.973507 
L 209.800088 253.915867 
L 208.800088 253.845481 
L 207.800088 253.793517 
L 206.800088 253.734427 
L 205.800088 253.646106 
L 204.800088 253.599962 
L 203.800088 253.557551 
L 202.800088 253.527058 
L 201.800088 253.501013 
L 200.800088 253.479813 
L 199.800088 253.425512 
L 198.800088 253.397574 
L 197.800088 253.36785 
L 196.800088 253.342456 
L 195.800088 253.331255 
L 194.800088 253.321131 
L 193.800088 253.321336 
L 192.800088 253.330845 
L 191.800088 253.342499 
L 190.800088 253.373528 
L 189.800088 253.384696 
L 188.800088 253.414814 
L 187.800088 253.474591 
L 186.800088 253.511782 
L 185.800088 253.550878 
L 184.800088 253.593318 
L 183.800088 253.626083 
L 182.800088 253.693509 
L 181.800088 253.732635 
L 180.800088 253.77531 
L 179.800088 253.845891 
L 178.800088 253.882281 
L 177.800088 253.940685 
L 176.800088 254.051637 
L 175.800088 254.122295 
L 174.800088 254.235235 
L 173.800088 254.281008 
L 171.90811 254.342291 
" clip-path="url(#p0595db0ad7)" style="fill: none; stroke: #ff7f0e; stroke-opacity: 0.5; stroke-width: 0.2; stroke-linecap: square"/>
   <path d="M 217.800088 71.097319 
L 216.800088 71.065883 
L 215.800088 71.028943 
L 214.800088 70.931196 
L 213.800088 70.898674 
L 212.800088 70.82505 
L 211.800088 70.786484 
L 210.800088 70.751071 
L 209.800088 70.693431 
L 208.800088 70.623045 
L 207.800088 70.571081 
L 206.800088 70.511991 
L 205.800088 70.42367 
L 204.800088 70.377526 
L 203.800088 70.335115 
L 202.800088 70.304622 
L 201.800088 70.278577 
L 200.800088 70.257377 
L 199.800088 70.203076 
L 198.800088 70.175138 
L 197.800088 70.145414 
L 196.800088 70.12002 
L 195.800088 70.108819 
L 194.800088 70.098695 
L 193.800088 70.0989 
L 192.800088 70.108409 
L 191.800088 70.120063 
L 190.800088 70.151092 
L 189.800088 70.16226 
L 188.800088 70.192378 
L 187.800088 70.252155 
L 186.800088 70.289346 
L 185.800088 70.328442 
L 184.800088 70.370882 
L 183.800088 70.403647 
L 182.800088 70.471073 
L 181.800088 70.510199 
L 180.800088 70.552874 
L 179.800088 70.623454 
L 178.800088 70.659845 
L 177.800088 70.718249 
L 176.800088 70.829201 
L 175.800088 70.899859 
L 174.800088 71.012799 
L 173.800088 71.058572 
L 171.90811 71.119855 
" clip-path="url(#p0595db0ad7)" style="fill: none; stroke: #ff7f0e; stroke-opacity: 0.5; stroke-width: 0.2; stroke-linecap: square"/>
   <path d="M 217.800088 70.58516 
L 216.800088 70.553724 
L 215.800088 70.516783 
L 214.800088 70.419037 
L 213.800088 70.386515 
L 212.800088 70.31289 
L 211.800088 70.274325 
L 210.800088 70.238912 
L 209.800088 70.181272 
L 208.800088 70.110886 
L 207.800088 70.058921 
L 206.800088 69.999832 
L 205.800088 69.911511 
L 204.800088 69.865366 
L 203.800088 69.822955 
L 202.800088 69.792463 
L 201.800088 69.766418 
L 200.800088 69.745218 
L 199.800088 69.690917 
L 198.800088 69.662979 
L 197.800088 69.633255 
L 196.800088 69.60786 
L 195.800088 69.59666 
L 194.800088 69.586536 
L 193.800088 69.58674 
L 192.800088 69.59625 
L 191.800088 69.607904 
L 190.800088 69.638933 
L 189.800088 69.650101 
L 188.800088 69.680218 
L 187.800088 69.739995 
L 186.800088 69.777187 
L 185.800088 69.816283 
L 184.800088 69.858723 
L 183.800088 69.891488 
L 182.800088 69.958914 
L 181.800088 69.99804 
L 180.800088 70.040715 
L 179.800088 70.111295 
L 178.800088 70.147686 
L 177.800088 70.206089 
L 176.800088 70.317042 
L 175.800088 70.3877 
L 174.800088 70.50064 
L 173.800088 70.546413 
L 171.90811 70.607696 
" clip-path="url(#p0595db0ad7)" style="fill: none; stroke: #ff7f0e; stroke-opacity: 0.5; stroke-width: 0.2; stroke-linecap: square"/>
   <path d="M 217.800088 223.722098 
L 216.800088 223.690661 
L 215.800088 223.653721 
L 214.800088 223.555974 
L 213.800088 223.523453 
L 212.800088 223.449828 
L 211.800088 223.411263 
L 210.800088 223.375849 
L 209.800088 223.318209 
L 208.800088 223.247823 
L 207.800088 223.195859 
L 206.800088 223.136769 
L 205.800088 223.048448 
L 204.800088 223.002304 
L 203.800088 222.959893 
L 202.800088 222.9294 
L 201.800088 222.903355 
L 200.800088 222.882155 
L 199.800088 222.827854 
L 198.800088 222.799917 
L 197.800088 222.770193 
L 196.800088 222.744798 
L 195.800088 222.733598 
L 194.800088 222.723474 
L 193.800088 222.723678 
L 192.800088 222.733188 
L 191.800088 222.744841 
L 190.800088 222.775871 
L 189.800088 222.787039 
L 188.800088 222.817156 
L 187.800088 222.876933 
L 186.800088 222.914125 
L 185.800088 222.953221 
L 184.800088 222.99566 
L 183.800088 223.028425 
L 182.800088 223.095852 
L 181.800088 223.134978 
L 180.800088 223.177652 
L 179.800088 223.248233 
L 178.800088 223.284624 
L 177.800088 223.343027 
L 176.800088 223.45398 
L 175.800088 223.524638 
L 174.800088 223.637578 
L 173.800088 223.683351 
L 171.90811 223.744634 
" clip-path="url(#p0595db0ad7)" style="fill: none; stroke: #ff7f0e; stroke-opacity: 0.5; stroke-width: 0.2; stroke-linecap: square"/>
   <path d="M 326.765537 253.20076 
L 327.765537 253.232196 
L 328.765537 253.269137 
L 329.765537 253.366883 
L 330.765537 253.399405 
L 331.765537 253.47303 
L 332.765537 253.511595 
L 333.765537 253.547008 
L 334.765537 253.604648 
L 335.765537 253.675034 
L 336.765537 253.726999 
L 337.765537 253.786088 
L 338.765537 253.874409 
L 339.765537 253.920554 
L 340.765537 253.962965 
L 341.765537 253.993457 
L 342.765537 254.019502 
L 343.765537 254.040702 
L 344.765537 254.095003 
L 345.765537 254.122941 
L 346.765537 254.152665 
L 347.765537 254.17806 
L 348.765537 254.18926 
L 349.765537 254.199384 
L 350.765537 254.19918 
L 351.765537 254.18967 
L 352.765537 254.178016 
L 353.765537 254.146987 
L 354.765537 254.135819 
L 355.765537 254.105702 
L 356.765537 254.045925 
L 357.765537 254.008733 
L 358.765537 253.969637 
L 359.765537 253.927197 
L 360.765537 253.894432 
L 361.765537 253.827006 
L 362.765537 253.78788 
L 363.765537 253.745205 
L 364.765537 253.674625 
L 365.765537 253.638234 
L 366.765537 253.579831 
L 367.765537 253.468878 
L 368.765537 253.39822 
L 369.765537 253.28528 
L 370.765537 253.239507 
L 372.657515 253.178224 
" clip-path="url(#p0595db0ad7)" style="fill: none; stroke: #ff7f0e; stroke-opacity: 0.5; stroke-width: 0.2; stroke-linecap: square"/>
   <path d="M 326.765537 97.635569 
L 327.765537 97.667006 
L 328.765537 97.703946 
L 329.765537 97.801693 
L 330.765537 97.834214 
L 331.765537 97.907839 
L 332.765537 97.946405 
L 333.765537 97.981818 
L 334.765537 98.039458 
L 335.765537 98.109844 
L 336.765537 98.161808 
L 337.765537 98.220898 
L 338.765537 98.309219 
L 339.765537 98.355363 
L 340.765537 98.397774 
L 341.765537 98.428267 
L 342.765537 98.454312 
L 343.765537 98.475512 
L 344.765537 98.529813 
L 345.765537 98.55775 
L 346.765537 98.587474 
L 347.765537 98.612869 
L 348.765537 98.62407 
L 349.765537 98.634194 
L 350.765537 98.633989 
L 351.765537 98.624479 
L 352.765537 98.612826 
L 353.765537 98.581797 
L 354.765537 98.570629 
L 355.765537 98.540511 
L 356.765537 98.480734 
L 357.765537 98.443543 
L 358.765537 98.404446 
L 359.765537 98.362007 
L 360.765537 98.329242 
L 361.765537 98.261815 
L 362.765537 98.222689 
L 363.765537 98.180015 
L 364.765537 98.109434 
L 365.765537 98.073043 
L 366.765537 98.01464 
L 367.765537 97.903688 
L 368.765537 97.833029 
L 369.765537 97.720089 
L 370.765537 97.674317 
L 372.657515 97.613033 
" clip-path="url(#p0595db0ad7)" style="fill: none; stroke: #ff7f0e; stroke-opacity: 0.5; stroke-width: 0.2; stroke-linecap: square"/>
   <path d="M 326.765537 147.730932 
L 327.765537 147.762369 
L 328.765537 147.799309 
L 329.765537 147.897055 
L 330.765537 147.929577 
L 331.765537 148.003202 
L 332.765537 148.041767 
L 333.765537 148.077181 
L 334.765537 148.13482 
L 335.765537 148.205207 
L 336.765537 148.257171 
L 337.765537 148.316261 
L 338.765537 148.404582 
L 339.765537 148.450726 
L 340.765537 148.493137 
L 341.765537 148.523629 
L 342.765537 148.549674 
L 343.765537 148.570875 
L 344.765537 148.625176 
L 345.765537 148.653113 
L 346.765537 148.682837 
L 347.765537 148.708232 
L 348.765537 148.719432 
L 349.765537 148.729556 
L 350.765537 148.729352 
L 351.765537 148.719842 
L 352.765537 148.708189 
L 353.765537 148.677159 
L 354.765537 148.665991 
L 355.765537 148.635874 
L 356.765537 148.576097 
L 357.765537 148.538905 
L 358.765537 148.499809 
L 359.765537 148.45737 
L 360.765537 148.424605 
L 361.765537 148.357178 
L 362.765537 148.318052 
L 363.765537 148.275378 
L 364.765537 148.204797 
L 365.765537 148.168406 
L 366.765537 148.110003 
L 367.765537 147.99905 
L 368.765537 147.928392 
L 369.765537 147.815452 
L 370.765537 147.769679 
L 372.657515 147.708396 
" clip-path="url(#p0595db0ad7)" style="fill: none; stroke: #ff7f0e; stroke-opacity: 0.5; stroke-width: 0.2; stroke-linecap: square"/>
   <path d="M 326.765537 107.113846 
L 327.765537 107.145282 
L 328.765537 107.182223 
L 329.765537 107.279969 
L 330.765537 107.312491 
L 331.765537 107.386116 
L 332.765537 107.424681 
L 333.765537 107.460094 
L 334.765537 107.517734 
L 335.765537 107.58812 
L 336.765537 107.640085 
L 337.765537 107.699174 
L 338.765537 107.787495 
L 339.765537 107.83364 
L 340.765537 107.876051 
L 341.765537 107.906543 
L 342.765537 107.932588 
L 343.765537 107.953788 
L 344.765537 108.008089 
L 345.765537 108.036027 
L 346.765537 108.065751 
L 347.765537 108.091146 
L 348.765537 108.102346 
L 349.765537 108.11247 
L 350.765537 108.112266 
L 351.765537 108.102756 
L 352.765537 108.091102 
L 353.765537 108.060073 
L 354.765537 108.048905 
L 355.765537 108.018788 
L 356.765537 107.959011 
L 357.765537 107.921819 
L 358.765537 107.882723 
L 359.765537 107.840283 
L 360.765537 107.807518 
L 361.765537 107.740092 
L 362.765537 107.700966 
L 363.765537 107.658291 
L 364.765537 107.587711 
L 365.765537 107.55132 
L 366.765537 107.492917 
L 367.765537 107.381964 
L 368.765537 107.311306 
L 369.765537 107.198366 
L 370.765537 107.152593 
L 372.657515 107.09131 
" clip-path="url(#p0595db0ad7)" style="fill: none; stroke: #ff7f0e; stroke-opacity: 0.5; stroke-width: 0.2; stroke-linecap: square"/>
   <path d="M 326.765537 177.133923 
L 327.765537 177.16536 
L 328.765537 177.2023 
L 329.765537 177.300047 
L 330.765537 177.332568 
L 331.765537 177.406193 
L 332.765537 177.444759 
L 333.765537 177.480172 
L 334.765537 177.537812 
L 335.765537 177.608198 
L 336.765537 177.660162 
L 337.765537 177.719252 
L 338.765537 177.807573 
L 339.765537 177.853717 
L 340.765537 177.896128 
L 341.765537 177.926621 
L 342.765537 177.952666 
L 343.765537 177.973866 
L 344.765537 178.028167 
L 345.765537 178.056104 
L 346.765537 178.085828 
L 347.765537 178.111223 
L 348.765537 178.122424 
L 349.765537 178.132547 
L 350.765537 178.132343 
L 351.765537 178.122833 
L 352.765537 178.11118 
L 353.765537 178.08015 
L 354.765537 178.068983 
L 355.765537 178.038865 
L 356.765537 177.979088 
L 357.765537 177.941897 
L 358.765537 177.9028 
L 359.765537 177.860361 
L 360.765537 177.827596 
L 361.765537 177.760169 
L 362.765537 177.721043 
L 363.765537 177.678369 
L 364.765537 177.607788 
L 365.765537 177.571397 
L 366.765537 177.512994 
L 367.765537 177.402042 
L 368.765537 177.331383 
L 369.765537 177.218443 
L 370.765537 177.172671 
L 372.657515 177.111387 
" clip-path="url(#p0595db0ad7)" style="fill: none; stroke: #ff7f0e; stroke-opacity: 0.5; stroke-width: 0.2; stroke-linecap: square"/>
   <path d="M 326.765537 134.750276 
L 327.765537 134.781712 
L 328.765537 134.818653 
L 329.765537 134.916399 
L 330.765537 134.948921 
L 331.765537 135.022545 
L 332.765537 135.061111 
L 333.765537 135.096524 
L 334.765537 135.154164 
L 335.765537 135.22455 
L 336.765537 135.276514 
L 337.765537 135.335604 
L 338.765537 135.423925 
L 339.765537 135.470069 
L 340.765537 135.51248 
L 341.765537 135.542973 
L 342.765537 135.569018 
L 343.765537 135.590218 
L 344.765537 135.644519 
L 345.765537 135.672457 
L 346.765537 135.702181 
L 347.765537 135.727576 
L 348.765537 135.738776 
L 349.765537 135.7489 
L 350.765537 135.748696 
L 351.765537 135.739186 
L 352.765537 135.727532 
L 353.765537 135.696503 
L 354.765537 135.685335 
L 355.765537 135.655217 
L 356.765537 135.59544 
L 357.765537 135.558249 
L 358.765537 135.519153 
L 359.765537 135.476713 
L 360.765537 135.443948 
L 361.765537 135.376522 
L 362.765537 135.337396 
L 363.765537 135.294721 
L 364.765537 135.224141 
L 365.765537 135.18775 
L 366.765537 135.129347 
L 367.765537 135.018394 
L 368.765537 134.947736 
L 369.765537 134.834796 
L 370.765537 134.789023 
L 372.657515 134.72774 
" clip-path="url(#p0595db0ad7)" style="fill: none; stroke: #ff7f0e; stroke-opacity: 0.5; stroke-width: 0.2; stroke-linecap: square"/>
   <path d="M 326.765537 191.594425 
L 327.765537 191.625861 
L 328.765537 191.662802 
L 329.765537 191.760548 
L 330.765537 191.79307 
L 331.765537 191.866694 
L 332.765537 191.90526 
L 333.765537 191.940673 
L 334.765537 191.998313 
L 335.765537 192.068699 
L 336.765537 192.120663 
L 337.765537 192.179753 
L 338.765537 192.268074 
L 339.765537 192.314218 
L 340.765537 192.356629 
L 341.765537 192.387122 
L 342.765537 192.413167 
L 343.765537 192.434367 
L 344.765537 192.488668 
L 345.765537 192.516606 
L 346.765537 192.54633 
L 347.765537 192.571725 
L 348.765537 192.582925 
L 349.765537 192.593049 
L 350.765537 192.592845 
L 351.765537 192.583335 
L 352.765537 192.571681 
L 353.765537 192.540652 
L 354.765537 192.529484 
L 355.765537 192.499366 
L 356.765537 192.439589 
L 357.765537 192.402398 
L 358.765537 192.363302 
L 359.765537 192.320862 
L 360.765537 192.288097 
L 361.765537 192.220671 
L 362.765537 192.181545 
L 363.765537 192.13887 
L 364.765537 192.06829 
L 365.765537 192.031899 
L 366.765537 191.973496 
L 367.765537 191.862543 
L 368.765537 191.791885 
L 369.765537 191.678945 
L 370.765537 191.633172 
L 372.657515 191.571889 
" clip-path="url(#p0595db0ad7)" style="fill: none; stroke: #ff7f0e; stroke-opacity: 0.5; stroke-width: 0.2; stroke-linecap: square"/>
   <path d="M 326.765537 126.012836 
L 327.765537 126.044272 
L 328.765537 126.081212 
L 329.765537 126.178959 
L 330.765537 126.211481 
L 331.765537 126.285105 
L 332.765537 126.323671 
L 333.765537 126.359084 
L 334.765537 126.416724 
L 335.765537 126.48711 
L 336.765537 126.539074 
L 337.765537 126.598164 
L 338.765537 126.686485 
L 339.765537 126.732629 
L 340.765537 126.77504 
L 341.765537 126.805533 
L 342.765537 126.831578 
L 343.765537 126.852778 
L 344.765537 126.907079 
L 345.765537 126.935017 
L 346.765537 126.964741 
L 347.765537 126.990135 
L 348.765537 127.001336 
L 349.765537 127.01146 
L 350.765537 127.011255 
L 351.765537 127.001746 
L 352.765537 126.990092 
L 353.765537 126.959063 
L 354.765537 126.947895 
L 355.765537 126.917777 
L 356.765537 126.858 
L 357.765537 126.820809 
L 358.765537 126.781713 
L 359.765537 126.739273 
L 360.765537 126.706508 
L 361.765537 126.639082 
L 362.765537 126.599956 
L 363.765537 126.557281 
L 364.765537 126.4867 
L 365.765537 126.45031 
L 366.765537 126.391906 
L 367.765537 126.280954 
L 368.765537 126.210296 
L 369.765537 126.097356 
L 370.765537 126.051583 
L 372.657515 125.9903 
" clip-path="url(#p0595db0ad7)" style="fill: none; stroke: #ff7f0e; stroke-opacity: 0.5; stroke-width: 0.2; stroke-linecap: square"/>
   <path d="M 326.765537 92.645288 
L 327.765537 92.676724 
L 328.765537 92.713665 
L 329.765537 92.811411 
L 330.765537 92.843933 
L 331.765537 92.917557 
L 332.765537 92.956123 
L 333.765537 92.991536 
L 334.765537 93.049176 
L 335.765537 93.119562 
L 336.765537 93.171526 
L 337.765537 93.230616 
L 338.765537 93.318937 
L 339.765537 93.365081 
L 340.765537 93.407492 
L 341.765537 93.437985 
L 342.765537 93.46403 
L 343.765537 93.48523 
L 344.765537 93.539531 
L 345.765537 93.567469 
L 346.765537 93.597193 
L 347.765537 93.622588 
L 348.765537 93.633788 
L 349.765537 93.643912 
L 350.765537 93.643708 
L 351.765537 93.634198 
L 352.765537 93.622544 
L 353.765537 93.591515 
L 354.765537 93.580347 
L 355.765537 93.550229 
L 356.765537 93.490453 
L 357.765537 93.453261 
L 358.765537 93.414165 
L 359.765537 93.371725 
L 360.765537 93.33896 
L 361.765537 93.271534 
L 362.765537 93.232408 
L 363.765537 93.189733 
L 364.765537 93.119153 
L 365.765537 93.082762 
L 366.765537 93.024359 
L 367.765537 92.913406 
L 368.765537 92.842748 
L 369.765537 92.729808 
L 370.765537 92.684035 
L 372.657515 92.622752 
" clip-path="url(#p0595db0ad7)" style="fill: none; stroke: #ff7f0e; stroke-opacity: 0.5; stroke-width: 0.2; stroke-linecap: square"/>
   <path d="M 326.765537 55.76366 
L 327.765537 55.795096 
L 328.765537 55.832037 
L 329.765537 55.929783 
L 330.765537 55.962305 
L 331.765537 56.03593 
L 332.765537 56.074495 
L 333.765537 56.109908 
L 334.765537 56.167548 
L 335.765537 56.237935 
L 336.765537 56.289899 
L 337.765537 56.348989 
L 338.765537 56.43731 
L 339.765537 56.483454 
L 340.765537 56.525865 
L 341.765537 56.556357 
L 342.765537 56.582402 
L 343.765537 56.603602 
L 344.765537 56.657904 
L 345.765537 56.685841 
L 346.765537 56.715565 
L 347.765537 56.74096 
L 348.765537 56.75216 
L 349.765537 56.762284 
L 350.765537 56.76208 
L 351.765537 56.75257 
L 352.765537 56.740916 
L 353.765537 56.709887 
L 354.765537 56.698719 
L 355.765537 56.668602 
L 356.765537 56.608825 
L 357.765537 56.571633 
L 358.765537 56.532537 
L 359.765537 56.490098 
L 360.765537 56.457332 
L 361.765537 56.389906 
L 362.765537 56.35078 
L 363.765537 56.308106 
L 364.765537 56.237525 
L 365.765537 56.201134 
L 366.765537 56.142731 
L 367.765537 56.031778 
L 368.765537 55.96112 
L 369.765537 55.84818 
L 370.765537 55.802407 
L 372.657515 55.741124 
" clip-path="url(#p0595db0ad7)" style="fill: none; stroke: #ff7f0e; stroke-opacity: 0.5; stroke-width: 0.2; stroke-linecap: square"/>
   <path d="M 372.657515 174.650647 
L 371.657515 174.619211 
L 370.657515 174.582271 
L 369.657515 174.484524 
L 368.657515 174.452002 
L 367.657515 174.378378 
L 366.657515 174.339812 
L 365.657515 174.304399 
L 364.657515 174.246759 
L 363.657515 174.176373 
L 362.657515 174.124409 
L 361.657515 174.065319 
L 360.657515 173.976998 
L 359.657515 173.930854 
L 358.657515 173.888443 
L 357.657515 173.85795 
L 356.657515 173.831905 
L 355.657515 173.810705 
L 354.657515 173.756404 
L 353.657515 173.728466 
L 352.657515 173.698742 
L 351.657515 173.673348 
L 350.657515 173.662147 
L 349.657515 173.652023 
L 348.657515 173.652228 
L 347.657515 173.661737 
L 346.657515 173.673391 
L 345.657515 173.70442 
L 344.657515 173.715588 
L 343.657515 173.745706 
L 342.657515 173.805483 
L 341.657515 173.842674 
L 340.657515 173.88177 
L 339.657515 173.92421 
L 338.657515 173.956975 
L 337.657515 174.024401 
L 336.657515 174.063527 
L 335.657515 174.106202 
L 334.657515 174.176783 
L 333.657515 174.213173 
L 332.657515 174.271577 
L 331.657515 174.382529 
L 330.657515 174.453187 
L 329.657515 174.566127 
L 328.657515 174.6119 
L 326.765537 174.673183 
" clip-path="url(#p0595db0ad7)" style="fill: none; stroke: #2ca02c; stroke-opacity: 0.5; stroke-width: 0.2; stroke-linecap: square"/>
   <path d="M 372.657515 189.996668 
L 371.657515 189.965231 
L 370.657515 189.928291 
L 369.657515 189.830545 
L 368.657515 189.798023 
L 367.657515 189.724398 
L 366.657515 189.685833 
L 365.657515 189.650419 
L 364.657515 189.59278 
L 363.657515 189.522393 
L 362.657515 189.470429 
L 361.657515 189.411339 
L 360.657515 189.323018 
L 359.657515 189.276874 
L 358.657515 189.234463 
L 357.657515 189.203971 
L 356.657515 189.177926 
L 355.657515 189.156725 
L 354.657515 189.102424 
L 353.657515 189.074487 
L 352.657515 189.044763 
L 351.657515 189.019368 
L 350.657515 189.008168 
L 349.657515 188.998044 
L 348.657515 188.998248 
L 347.657515 189.007758 
L 346.657515 189.019411 
L 345.657515 189.050441 
L 344.657515 189.061609 
L 343.657515 189.091726 
L 342.657515 189.151503 
L 341.657515 189.188695 
L 340.657515 189.227791 
L 339.657515 189.27023 
L 338.657515 189.302995 
L 337.657515 189.370422 
L 336.657515 189.409548 
L 335.657515 189.452222 
L 334.657515 189.522803 
L 333.657515 189.559194 
L 332.657515 189.617597 
L 331.657515 189.72855 
L 330.657515 189.799208 
L 329.657515 189.912148 
L 328.657515 189.957921 
L 326.765537 190.019204 
" clip-path="url(#p0595db0ad7)" style="fill: none; stroke: #2ca02c; stroke-opacity: 0.5; stroke-width: 0.2; stroke-linecap: square"/>
   <path d="M 372.657515 203.681823 
L 371.657515 203.650387 
L 370.657515 203.613446 
L 369.657515 203.5157 
L 368.657515 203.483178 
L 367.657515 203.409554 
L 366.657515 203.370988 
L 365.657515 203.335575 
L 364.657515 203.277935 
L 363.657515 203.207549 
L 362.657515 203.155585 
L 361.657515 203.096495 
L 360.657515 203.008174 
L 359.657515 202.96203 
L 358.657515 202.919619 
L 357.657515 202.889126 
L 356.657515 202.863081 
L 355.657515 202.841881 
L 354.657515 202.78758 
L 353.657515 202.759642 
L 352.657515 202.729918 
L 351.657515 202.704523 
L 350.657515 202.693323 
L 349.657515 202.683199 
L 348.657515 202.683403 
L 347.657515 202.692913 
L 346.657515 202.704567 
L 345.657515 202.735596 
L 344.657515 202.746764 
L 343.657515 202.776882 
L 342.657515 202.836659 
L 341.657515 202.87385 
L 340.657515 202.912946 
L 339.657515 202.955386 
L 338.657515 202.988151 
L 337.657515 203.055577 
L 336.657515 203.094703 
L 335.657515 203.137378 
L 334.657515 203.207958 
L 333.657515 203.244349 
L 332.657515 203.302752 
L 331.657515 203.413705 
L 330.657515 203.484363 
L 329.657515 203.597303 
L 328.657515 203.643076 
L 326.765537 203.704359 
" clip-path="url(#p0595db0ad7)" style="fill: none; stroke: #2ca02c; stroke-opacity: 0.5; stroke-width: 0.2; stroke-linecap: square"/>
   <path d="M 372.657515 134.738416 
L 371.657515 134.706979 
L 370.657515 134.670039 
L 369.657515 134.572292 
L 368.657515 134.539771 
L 367.657515 134.466146 
L 366.657515 134.427581 
L 365.657515 134.392167 
L 364.657515 134.334527 
L 363.657515 134.264141 
L 362.657515 134.212177 
L 361.657515 134.153087 
L 360.657515 134.064766 
L 359.657515 134.018622 
L 358.657515 133.976211 
L 357.657515 133.945718 
L 356.657515 133.919673 
L 355.657515 133.898473 
L 354.657515 133.844172 
L 353.657515 133.816235 
L 352.657515 133.786511 
L 351.657515 133.761116 
L 350.657515 133.749915 
L 349.657515 133.739792 
L 348.657515 133.739996 
L 347.657515 133.749506 
L 346.657515 133.761159 
L 345.657515 133.792189 
L 344.657515 133.803356 
L 343.657515 133.833474 
L 342.657515 133.893251 
L 341.657515 133.930442 
L 340.657515 133.969539 
L 339.657515 134.011978 
L 338.657515 134.044743 
L 337.657515 134.11217 
L 336.657515 134.151296 
L 335.657515 134.19397 
L 334.657515 134.264551 
L 333.657515 134.300942 
L 332.657515 134.359345 
L 331.657515 134.470297 
L 330.657515 134.540956 
L 329.657515 134.653896 
L 328.657515 134.699668 
L 326.765537 134.760952 
" clip-path="url(#p0595db0ad7)" style="fill: none; stroke: #2ca02c; stroke-opacity: 0.5; stroke-width: 0.2; stroke-linecap: square"/>
   <path d="M 372.657515 151.284128 
L 371.657515 151.252692 
L 370.657515 151.215751 
L 369.657515 151.118005 
L 368.657515 151.085483 
L 367.657515 151.011859 
L 366.657515 150.973293 
L 365.657515 150.93788 
L 364.657515 150.88024 
L 363.657515 150.809854 
L 362.657515 150.757889 
L 361.657515 150.6988 
L 360.657515 150.610479 
L 359.657515 150.564334 
L 358.657515 150.521924 
L 357.657515 150.491431 
L 356.657515 150.465386 
L 355.657515 150.444186 
L 354.657515 150.389885 
L 353.657515 150.361947 
L 352.657515 150.332223 
L 351.657515 150.306828 
L 350.657515 150.295628 
L 349.657515 150.285504 
L 348.657515 150.285708 
L 347.657515 150.295218 
L 346.657515 150.306872 
L 345.657515 150.337901 
L 344.657515 150.349069 
L 343.657515 150.379187 
L 342.657515 150.438963 
L 341.657515 150.476155 
L 340.657515 150.515251 
L 339.657515 150.557691 
L 338.657515 150.590456 
L 337.657515 150.657882 
L 336.657515 150.697008 
L 335.657515 150.739683 
L 334.657515 150.810263 
L 333.657515 150.846654 
L 332.657515 150.905057 
L 331.657515 151.01601 
L 330.657515 151.086668 
L 329.657515 151.199608 
L 328.657515 151.245381 
L 326.765537 151.306664 
" clip-path="url(#p0595db0ad7)" style="fill: none; stroke: #2ca02c; stroke-opacity: 0.5; stroke-width: 0.2; stroke-linecap: square"/>
   <path d="M 372.657515 92.056642 
L 371.657515 92.025206 
L 370.657515 91.988266 
L 369.657515 91.890519 
L 368.657515 91.857997 
L 367.657515 91.784373 
L 366.657515 91.745807 
L 365.657515 91.710394 
L 364.657515 91.652754 
L 363.657515 91.582368 
L 362.657515 91.530404 
L 361.657515 91.471314 
L 360.657515 91.382993 
L 359.657515 91.336849 
L 358.657515 91.294438 
L 357.657515 91.263945 
L 356.657515 91.2379 
L 355.657515 91.2167 
L 354.657515 91.162399 
L 353.657515 91.134461 
L 352.657515 91.104737 
L 351.657515 91.079343 
L 350.657515 91.068142 
L 349.657515 91.058018 
L 348.657515 91.058222 
L 347.657515 91.067732 
L 346.657515 91.079386 
L 345.657515 91.110415 
L 344.657515 91.121583 
L 343.657515 91.151701 
L 342.657515 91.211478 
L 341.657515 91.248669 
L 340.657515 91.287765 
L 339.657515 91.330205 
L 338.657515 91.36297 
L 337.657515 91.430396 
L 336.657515 91.469522 
L 335.657515 91.512197 
L 334.657515 91.582777 
L 333.657515 91.619168 
L 332.657515 91.677572 
L 331.657515 91.788524 
L 330.657515 91.859182 
L 329.657515 91.972122 
L 328.657515 92.017895 
L 326.765537 92.079178 
" clip-path="url(#p0595db0ad7)" style="fill: none; stroke: #2ca02c; stroke-opacity: 0.5; stroke-width: 0.2; stroke-linecap: square"/>
   <path d="M 372.657515 202.441436 
L 371.657515 202.409999 
L 370.657515 202.373059 
L 369.657515 202.275312 
L 368.657515 202.242791 
L 367.657515 202.169166 
L 366.657515 202.1306 
L 365.657515 202.095187 
L 364.657515 202.037547 
L 363.657515 201.967161 
L 362.657515 201.915197 
L 361.657515 201.856107 
L 360.657515 201.767786 
L 359.657515 201.721642 
L 358.657515 201.679231 
L 357.657515 201.648738 
L 356.657515 201.622693 
L 355.657515 201.601493 
L 354.657515 201.547192 
L 353.657515 201.519255 
L 352.657515 201.489531 
L 351.657515 201.464136 
L 350.657515 201.452935 
L 349.657515 201.442811 
L 348.657515 201.443016 
L 347.657515 201.452526 
L 346.657515 201.464179 
L 345.657515 201.495209 
L 344.657515 201.506376 
L 343.657515 201.536494 
L 342.657515 201.596271 
L 341.657515 201.633462 
L 340.657515 201.672559 
L 339.657515 201.714998 
L 338.657515 201.747763 
L 337.657515 201.81519 
L 336.657515 201.854316 
L 335.657515 201.89699 
L 334.657515 201.967571 
L 333.657515 202.003962 
L 332.657515 202.062365 
L 331.657515 202.173317 
L 330.657515 202.243976 
L 329.657515 202.356916 
L 328.657515 202.402688 
L 326.765537 202.463972 
" clip-path="url(#p0595db0ad7)" style="fill: none; stroke: #2ca02c; stroke-opacity: 0.5; stroke-width: 0.2; stroke-linecap: square"/>
   <path d="M 372.657515 245.653236 
L 371.657515 245.6218 
L 370.657515 245.584859 
L 369.657515 245.487113 
L 368.657515 245.454591 
L 367.657515 245.380967 
L 366.657515 245.342401 
L 365.657515 245.306988 
L 364.657515 245.249348 
L 363.657515 245.178962 
L 362.657515 245.126997 
L 361.657515 245.067908 
L 360.657515 244.979587 
L 359.657515 244.933442 
L 358.657515 244.891031 
L 357.657515 244.860539 
L 356.657515 244.834494 
L 355.657515 244.813294 
L 354.657515 244.758993 
L 353.657515 244.731055 
L 352.657515 244.701331 
L 351.657515 244.675936 
L 350.657515 244.664736 
L 349.657515 244.654612 
L 348.657515 244.654816 
L 347.657515 244.664326 
L 346.657515 244.67598 
L 345.657515 244.707009 
L 344.657515 244.718177 
L 343.657515 244.748294 
L 342.657515 244.808071 
L 341.657515 244.845263 
L 340.657515 244.884359 
L 339.657515 244.926799 
L 338.657515 244.959564 
L 337.657515 245.02699 
L 336.657515 245.066116 
L 335.657515 245.108791 
L 334.657515 245.179371 
L 333.657515 245.215762 
L 332.657515 245.274165 
L 331.657515 245.385118 
L 330.657515 245.455776 
L 329.657515 245.568716 
L 328.657515 245.614489 
L 326.765537 245.675772 
" clip-path="url(#p0595db0ad7)" style="fill: none; stroke: #2ca02c; stroke-opacity: 0.5; stroke-width: 0.2; stroke-linecap: square"/>
   <path d="M 372.657515 166.529436 
L 371.657515 166.498 
L 370.657515 166.46106 
L 369.657515 166.363313 
L 368.657515 166.330792 
L 367.657515 166.257167 
L 366.657515 166.218601 
L 365.657515 166.183188 
L 364.657515 166.125548 
L 363.657515 166.055162 
L 362.657515 166.003198 
L 361.657515 165.944108 
L 360.657515 165.855787 
L 359.657515 165.809643 
L 358.657515 165.767232 
L 357.657515 165.736739 
L 356.657515 165.710694 
L 355.657515 165.689494 
L 354.657515 165.635193 
L 353.657515 165.607255 
L 352.657515 165.577531 
L 351.657515 165.552137 
L 350.657515 165.540936 
L 349.657515 165.530812 
L 348.657515 165.531017 
L 347.657515 165.540527 
L 346.657515 165.55218 
L 345.657515 165.583209 
L 344.657515 165.594377 
L 343.657515 165.624495 
L 342.657515 165.684272 
L 341.657515 165.721463 
L 340.657515 165.760559 
L 339.657515 165.802999 
L 338.657515 165.835764 
L 337.657515 165.903191 
L 336.657515 165.942317 
L 335.657515 165.984991 
L 334.657515 166.055572 
L 333.657515 166.091963 
L 332.657515 166.150366 
L 331.657515 166.261318 
L 330.657515 166.331977 
L 329.657515 166.444916 
L 328.657515 166.490689 
L 326.765537 166.551973 
" clip-path="url(#p0595db0ad7)" style="fill: none; stroke: #2ca02c; stroke-opacity: 0.5; stroke-width: 0.2; stroke-linecap: square"/>
   <path d="M 372.657515 72.073803 
L 371.657515 72.042367 
L 370.657515 72.005427 
L 369.657515 71.90768 
L 368.657515 71.875159 
L 367.657515 71.801534 
L 366.657515 71.762968 
L 365.657515 71.727555 
L 364.657515 71.669915 
L 363.657515 71.599529 
L 362.657515 71.547565 
L 361.657515 71.488475 
L 360.657515 71.400154 
L 359.657515 71.35401 
L 358.657515 71.311599 
L 357.657515 71.281106 
L 356.657515 71.255061 
L 355.657515 71.233861 
L 354.657515 71.17956 
L 353.657515 71.151622 
L 352.657515 71.121898 
L 351.657515 71.096504 
L 350.657515 71.085303 
L 349.657515 71.075179 
L 348.657515 71.075384 
L 347.657515 71.084894 
L 346.657515 71.096547 
L 345.657515 71.127576 
L 344.657515 71.138744 
L 343.657515 71.168862 
L 342.657515 71.228639 
L 341.657515 71.26583 
L 340.657515 71.304926 
L 339.657515 71.347366 
L 338.657515 71.380131 
L 337.657515 71.447558 
L 336.657515 71.486683 
L 335.657515 71.529358 
L 334.657515 71.599939 
L 333.657515 71.636329 
L 332.657515 71.694733 
L 331.657515 71.805685 
L 330.657515 71.876344 
L 329.657515 71.989283 
L 328.657515 72.035056 
L 326.765537 72.09634 
" clip-path="url(#p0595db0ad7)" style="fill: none; stroke: #2ca02c; stroke-opacity: 0.5; stroke-width: 0.2; stroke-linecap: square"/>
   <g id="patch_3">
    <path d="M 67.449006 22.318125 
L 67.449006 260.421875 
M 167.401766 22.318125 
L 167.401766 260.421875 
" clip-path="url(#p0595db0ad7)" style="fill: none; stroke: #ffffff; stroke-width: 3; stroke-linejoin: miter"/>
    <path d="M 67.449006 22.318125 
L 67.449006 260.421875 
M 167.401766 22.318125 
L 167.401766 260.421875 
" clip-path="url(#p0595db0ad7)" style="fill: none; stroke: #1f77b4; stroke-linejoin: miter"/>
    <g id="PolyCollection_1">
     <path d="M 167.401766 22.318125 
L 67.449006 22.318125 
L 67.449006 260.421875 
L 167.401766 260.421875 
L 167.401766 260.421875 
L 167.401766 22.318125 
z
" clip-path="url(#p0595db0ad7)" style="fill: #1f77b4; fill-opacity: 0.5"/>
    </g>
    <g id="patch_4">
     <path d="M 222.306432 22.318125 
L 222.306432 260.421875 
M 322.259193 22.318125 
L 322.259193 260.421875 
" clip-path="url(#p0595db0ad7)" style="fill: none; stroke: #ffffff; stroke-width: 3; stroke-linejoin: miter"/>
     <path d="M 222.306432 22.318125 
L 222.306432 260.421875 
M 322.259193 22.318125 
L 322.259193 260.421875 
" clip-path="url(#p0595db0ad7)" style="fill: none; stroke: #ff7f0e; stroke-linejoin: miter"/>
     <g id="PolyCollection_2">
      <path d="M 322.259193 22.318125 
L 222.306432 22.318125 
L 222.306432 260.421875 
L 322.259193 260.421875 
L 322.259193 260.421875 
L 322.259193 22.318125 
z
" clip-path="url(#p0595db0ad7)" style="fill: #ff7f0e; fill-opacity: 0.5"/>
     </g>
     <g id="patch_5">
      <path d="M 377.163859 22.318125 
L 377.163859 260.421875 
M 477.116619 22.318125 
L 477.116619 260.421875 
" clip-path="url(#p0595db0ad7)" style="fill: none; stroke: #ffffff; stroke-width: 3; stroke-linejoin: miter"/>
      <path d="M 377.163859 22.318125 
L 377.163859 260.421875 
M 477.116619 22.318125 
L 477.116619 260.421875 
" clip-path="url(#p0595db0ad7)" style="fill: none; stroke: #2ca02c; stroke-linejoin: miter"/>
      <g id="PolyCollection_3">
       <path d="M 477.116619 22.318125 
L 377.163859 22.318125 
L 377.163859 260.421875 
L 477.116619 260.421875 
L 477.116619 260.421875 
L 477.116619 22.318125 
z
" clip-path="url(#p0595db0ad7)" style="fill: #2ca02c; fill-opacity: 0.5"/>
      </g>
      <g id="matplotlib.axis_1">
       <g id="xtick_1">
        <g id="line2d_1"/>
        <g id="text_1">
         <!-- deme1 -->
         <g transform="translate(100.04648 271.520312)scale(0.1 -0.1)">
          <defs>
           <path id="DejaVuSans-64" d="M 2906 2969 
L 2906 4863 
L 3481 4863 
L 3481 0 
L 2906 0 
L 2906 525 
Q 2725 213 2448 61 
Q 2172 -91 1784 -91 
Q 1150 -91 751 415 
Q 353 922 353 1747 
Q 353 2572 751 3078 
Q 1150 3584 1784 3584 
Q 2172 3584 2448 3432 
Q 2725 3281 2906 2969 
z
M 947 1747 
Q 947 1113 1208 752 
Q 1469 391 1925 391 
Q 2381 391 2643 752 
Q 2906 1113 2906 1747 
Q 2906 2381 2643 2742 
Q 2381 3103 1925 3103 
Q 1469 3103 1208 2742 
Q 947 2381 947 1747 
z
" transform="scale(0.015625)"/>
           <path id="DejaVuSans-65" d="M 3597 1894 
L 3597 1613 
L 953 1613 
Q 991 1019 1311 708 
Q 1631 397 2203 397 
Q 2534 397 2845 478 
Q 3156 559 3463 722 
L 3463 178 
Q 3153 47 2828 -22 
Q 2503 -91 2169 -91 
Q 1331 -91 842 396 
Q 353 884 353 1716 
Q 353 2575 817 3079 
Q 1281 3584 2069 3584 
Q 2775 3584 3186 3129 
Q 3597 2675 3597 1894 
z
M 3022 2063 
Q 3016 2534 2758 2815 
Q 2500 3097 2075 3097 
Q 1594 3097 1305 2825 
Q 1016 2553 972 2059 
L 3022 2063 
z
" transform="scale(0.015625)"/>
           <path id="DejaVuSans-6d" d="M 3328 2828 
Q 3544 3216 3844 3400 
Q 4144 3584 4550 3584 
Q 5097 3584 5394 3201 
Q 5691 2819 5691 2113 
L 5691 0 
L 5113 0 
L 5113 2094 
Q 5113 2597 4934 2840 
Q 4756 3084 4391 3084 
Q 3944 3084 3684 2787 
Q 3425 2491 3425 1978 
L 3425 0 
L 2847 0 
L 2847 2094 
Q 2847 2600 2669 2842 
Q 2491 3084 2119 3084 
Q 1678 3084 1418 2786 
Q 1159 2488 1159 1978 
L 1159 0 
L 581 0 
L 581 3500 
L 1159 3500 
L 1159 2956 
Q 1356 3278 1631 3431 
Q 1906 3584 2284 3584 
Q 2666 3584 2933 3390 
Q 3200 3197 3328 2828 
z
" transform="scale(0.015625)"/>
           <path id="DejaVuSans-31" d="M 794 531 
L 1825 531 
L 1825 4091 
L 703 3866 
L 703 4441 
L 1819 4666 
L 2450 4666 
L 2450 531 
L 3481 531 
L 3481 0 
L 794 0 
L 794 531 
z
" transform="scale(0.015625)"/>
          </defs>
          <use xlink:href="#DejaVuSans-64"/>
          <use xlink:href="#DejaVuSans-65" x="63.476562"/>
          <use xlink:href="#DejaVuSans-6d" x="125"/>
          <use xlink:href="#DejaVuSans-65" x="222.412109"/>
          <use xlink:href="#DejaVuSans-31" x="283.935547"/>
         </g>
        </g>
       </g>
       <g id="xtick_2">
        <g id="line2d_2"/>
        <g id="text_2">
         <!-- deme2 -->
         <g transform="translate(254.903906 271.520312)scale(0.1 -0.1)">
          <defs>
           <path id="DejaVuSans-32" d="M 1228 531 
L 3431 531 
L 3431 0 
L 469 0 
L 469 531 
Q 828 903 1448 1529 
Q 2069 2156 2228 2338 
Q 2531 2678 2651 2914 
Q 2772 3150 2772 3378 
Q 2772 3750 2511 3984 
Q 2250 4219 1831 4219 
Q 1534 4219 1204 4116 
Q 875 4013 500 3803 
L 500 4441 
Q 881 4594 1212 4672 
Q 1544 4750 1819 4750 
Q 2544 4750 2975 4387 
Q 3406 4025 3406 3419 
Q 3406 3131 3298 2873 
Q 3191 2616 2906 2266 
Q 2828 2175 2409 1742 
Q 1991 1309 1228 531 
z
" transform="scale(0.015625)"/>
          </defs>
          <use xlink:href="#DejaVuSans-64"/>
          <use xlink:href="#DejaVuSans-65" x="63.476562"/>
          <use xlink:href="#DejaVuSans-6d" x="125"/>
          <use xlink:href="#DejaVuSans-65" x="222.412109"/>
          <use xlink:href="#DejaVuSans-32" x="283.935547"/>
         </g>
        </g>
       </g>
       <g id="xtick_3">
        <g id="line2d_3"/>
        <g id="text_3">
         <!-- deme3 -->
         <g transform="translate(409.761333 271.520312)scale(0.1 -0.1)">
          <defs>
           <path id="DejaVuSans-33" d="M 2597 2516 
Q 3050 2419 3304 2112 
Q 3559 1806 3559 1356 
Q 3559 666 3084 287 
Q 2609 -91 1734 -91 
Q 1441 -91 1130 -33 
Q 819 25 488 141 
L 488 750 
Q 750 597 1062 519 
Q 1375 441 1716 441 
Q 2309 441 2620 675 
Q 2931 909 2931 1356 
Q 2931 1769 2642 2001 
Q 2353 2234 1838 2234 
L 1294 2234 
L 1294 2753 
L 1863 2753 
Q 2328 2753 2575 2939 
Q 2822 3125 2822 3475 
Q 2822 3834 2567 4026 
Q 2313 4219 1838 4219 
Q 1578 4219 1281 4162 
Q 984 4106 628 3988 
L 628 4550 
Q 988 4650 1302 4700 
Q 1616 4750 1894 4750 
Q 2613 4750 3031 4423 
Q 3450 4097 3450 3541 
Q 3450 3153 3228 2886 
Q 3006 2619 2597 2516 
z
" transform="scale(0.015625)"/>
          </defs>
          <use xlink:href="#DejaVuSans-64"/>
          <use xlink:href="#DejaVuSans-65" x="63.476562"/>
          <use xlink:href="#DejaVuSans-6d" x="125"/>
          <use xlink:href="#DejaVuSans-65" x="222.412109"/>
          <use xlink:href="#DejaVuSans-33" x="283.935547"/>
         </g>
        </g>
       </g>
      </g>
      <g id="matplotlib.axis_2">
       <g id="ytick_1">
        <g id="line2d_4">
         <defs>
          <path id="m4c3f29a60d" d="M 0 0 
L -3.5 0 
" style="stroke: #000000; stroke-width: 0.8"/>
         </defs>
         <g>
          <use xlink:href="#m4c3f29a60d" x="46.965625" y="260.421875" style="stroke: #000000; stroke-width: 0.8"/>
         </g>
        </g>
        <g id="text_4">
         <!-- 0 -->
         <g transform="translate(33.603125 264.221094)scale(0.1 -0.1)">
          <defs>
           <path id="DejaVuSans-30" d="M 2034 4250 
Q 1547 4250 1301 3770 
Q 1056 3291 1056 2328 
Q 1056 1369 1301 889 
Q 1547 409 2034 409 
Q 2525 409 2770 889 
Q 3016 1369 3016 2328 
Q 3016 3291 2770 3770 
Q 2525 4250 2034 4250 
z
M 2034 4750 
Q 2819 4750 3233 4129 
Q 3647 3509 3647 2328 
Q 3647 1150 3233 529 
Q 2819 -91 2034 -91 
Q 1250 -91 836 529 
Q 422 1150 422 2328 
Q 422 3509 836 4129 
Q 1250 4750 2034 4750 
z
" transform="scale(0.015625)"/>
          </defs>
          <use xlink:href="#DejaVuSans-30"/>
         </g>
        </g>
       </g>
       <g id="ytick_2">
        <g id="line2d_5">
         <g>
          <use xlink:href="#m4c3f29a60d" x="46.965625" y="218.279618" style="stroke: #000000; stroke-width: 0.8"/>
         </g>
        </g>
        <g id="text_5">
         <!-- 20 -->
         <g transform="translate(27.240625 222.078837)scale(0.1 -0.1)">
          <use xlink:href="#DejaVuSans-32"/>
          <use xlink:href="#DejaVuSans-30" x="63.623047"/>
         </g>
        </g>
       </g>
       <g id="ytick_3">
        <g id="line2d_6">
         <g>
          <use xlink:href="#m4c3f29a60d" x="46.965625" y="176.137362" style="stroke: #000000; stroke-width: 0.8"/>
         </g>
        </g>
        <g id="text_6">
         <!-- 40 -->
         <g transform="translate(27.240625 179.93658)scale(0.1 -0.1)">
          <defs>
           <path id="DejaVuSans-34" d="M 2419 4116 
L 825 1625 
L 2419 1625 
L 2419 4116 
z
M 2253 4666 
L 3047 4666 
L 3047 1625 
L 3713 1625 
L 3713 1100 
L 3047 1100 
L 3047 0 
L 2419 0 
L 2419 1100 
L 313 1100 
L 313 1709 
L 2253 4666 
z
" transform="scale(0.015625)"/>
          </defs>
          <use xlink:href="#DejaVuSans-34"/>
          <use xlink:href="#DejaVuSans-30" x="63.623047"/>
         </g>
        </g>
       </g>
       <g id="ytick_4">
        <g id="line2d_7">
         <g>
          <use xlink:href="#m4c3f29a60d" x="46.965625" y="133.995105" style="stroke: #000000; stroke-width: 0.8"/>
         </g>
        </g>
        <g id="text_7">
         <!-- 60 -->
         <g transform="translate(27.240625 137.794324)scale(0.1 -0.1)">
          <defs>
           <path id="DejaVuSans-36" d="M 2113 2584 
Q 1688 2584 1439 2293 
Q 1191 2003 1191 1497 
Q 1191 994 1439 701 
Q 1688 409 2113 409 
Q 2538 409 2786 701 
Q 3034 994 3034 1497 
Q 3034 2003 2786 2293 
Q 2538 2584 2113 2584 
z
M 3366 4563 
L 3366 3988 
Q 3128 4100 2886 4159 
Q 2644 4219 2406 4219 
Q 1781 4219 1451 3797 
Q 1122 3375 1075 2522 
Q 1259 2794 1537 2939 
Q 1816 3084 2150 3084 
Q 2853 3084 3261 2657 
Q 3669 2231 3669 1497 
Q 3669 778 3244 343 
Q 2819 -91 2113 -91 
Q 1303 -91 875 529 
Q 447 1150 447 2328 
Q 447 3434 972 4092 
Q 1497 4750 2381 4750 
Q 2619 4750 2861 4703 
Q 3103 4656 3366 4563 
z
" transform="scale(0.015625)"/>
          </defs>
          <use xlink:href="#DejaVuSans-36"/>
          <use xlink:href="#DejaVuSans-30" x="63.623047"/>
         </g>
        </g>
       </g>
       <g id="ytick_5">
        <g id="line2d_8">
         <g>
          <use xlink:href="#m4c3f29a60d" x="46.965625" y="91.852848" style="stroke: #000000; stroke-width: 0.8"/>
         </g>
        </g>
        <g id="text_8">
         <!-- 80 -->
         <g transform="translate(27.240625 95.652067)scale(0.1 -0.1)">
          <defs>
           <path id="DejaVuSans-38" d="M 2034 2216 
Q 1584 2216 1326 1975 
Q 1069 1734 1069 1313 
Q 1069 891 1326 650 
Q 1584 409 2034 409 
Q 2484 409 2743 651 
Q 3003 894 3003 1313 
Q 3003 1734 2745 1975 
Q 2488 2216 2034 2216 
z
M 1403 2484 
Q 997 2584 770 2862 
Q 544 3141 544 3541 
Q 544 4100 942 4425 
Q 1341 4750 2034 4750 
Q 2731 4750 3128 4425 
Q 3525 4100 3525 3541 
Q 3525 3141 3298 2862 
Q 3072 2584 2669 2484 
Q 3125 2378 3379 2068 
Q 3634 1759 3634 1313 
Q 3634 634 3220 271 
Q 2806 -91 2034 -91 
Q 1263 -91 848 271 
Q 434 634 434 1313 
Q 434 1759 690 2068 
Q 947 2378 1403 2484 
z
M 1172 3481 
Q 1172 3119 1398 2916 
Q 1625 2713 2034 2713 
Q 2441 2713 2670 2916 
Q 2900 3119 2900 3481 
Q 2900 3844 2670 4047 
Q 2441 4250 2034 4250 
Q 1625 4250 1398 4047 
Q 1172 3844 1172 3481 
z
" transform="scale(0.015625)"/>
          </defs>
          <use xlink:href="#DejaVuSans-38"/>
          <use xlink:href="#DejaVuSans-30" x="63.623047"/>
         </g>
        </g>
       </g>
       <g id="ytick_6">
        <g id="line2d_9">
         <g>
          <use xlink:href="#m4c3f29a60d" x="46.965625" y="49.710592" style="stroke: #000000; stroke-width: 0.8"/>
         </g>
        </g>
        <g id="text_9">
         <!-- 100 -->
         <g transform="translate(20.878125 53.509811)scale(0.1 -0.1)">
          <use xlink:href="#DejaVuSans-31"/>
          <use xlink:href="#DejaVuSans-30" x="63.623047"/>
          <use xlink:href="#DejaVuSans-30" x="127.246094"/>
         </g>
        </g>
       </g>
       <g id="text_10">
        <!-- time ago (years) -->
        <g transform="translate(14.798437 182.803594)rotate(-90)scale(0.1 -0.1)">
         <defs>
          <path id="DejaVuSans-74" d="M 1172 4494 
L 1172 3500 
L 2356 3500 
L 2356 3053 
L 1172 3053 
L 1172 1153 
Q 1172 725 1289 603 
Q 1406 481 1766 481 
L 2356 481 
L 2356 0 
L 1766 0 
Q 1100 0 847 248 
Q 594 497 594 1153 
L 594 3053 
L 172 3053 
L 172 3500 
L 594 3500 
L 594 4494 
L 1172 4494 
z
" transform="scale(0.015625)"/>
          <path id="DejaVuSans-69" d="M 603 3500 
L 1178 3500 
L 1178 0 
L 603 0 
L 603 3500 
z
M 603 4863 
L 1178 4863 
L 1178 4134 
L 603 4134 
L 603 4863 
z
" transform="scale(0.015625)"/>
          <path id="DejaVuSans-20" transform="scale(0.015625)"/>
          <path id="DejaVuSans-61" d="M 2194 1759 
Q 1497 1759 1228 1600 
Q 959 1441 959 1056 
Q 959 750 1161 570 
Q 1363 391 1709 391 
Q 2188 391 2477 730 
Q 2766 1069 2766 1631 
L 2766 1759 
L 2194 1759 
z
M 3341 1997 
L 3341 0 
L 2766 0 
L 2766 531 
Q 2569 213 2275 61 
Q 1981 -91 1556 -91 
Q 1019 -91 701 211 
Q 384 513 384 1019 
Q 384 1609 779 1909 
Q 1175 2209 1959 2209 
L 2766 2209 
L 2766 2266 
Q 2766 2663 2505 2880 
Q 2244 3097 1772 3097 
Q 1472 3097 1187 3025 
Q 903 2953 641 2809 
L 641 3341 
Q 956 3463 1253 3523 
Q 1550 3584 1831 3584 
Q 2591 3584 2966 3190 
Q 3341 2797 3341 1997 
z
" transform="scale(0.015625)"/>
          <path id="DejaVuSans-67" d="M 2906 1791 
Q 2906 2416 2648 2759 
Q 2391 3103 1925 3103 
Q 1463 3103 1205 2759 
Q 947 2416 947 1791 
Q 947 1169 1205 825 
Q 1463 481 1925 481 
Q 2391 481 2648 825 
Q 2906 1169 2906 1791 
z
M 3481 434 
Q 3481 -459 3084 -895 
Q 2688 -1331 1869 -1331 
Q 1566 -1331 1297 -1286 
Q 1028 -1241 775 -1147 
L 775 -588 
Q 1028 -725 1275 -790 
Q 1522 -856 1778 -856 
Q 2344 -856 2625 -561 
Q 2906 -266 2906 331 
L 2906 616 
Q 2728 306 2450 153 
Q 2172 0 1784 0 
Q 1141 0 747 490 
Q 353 981 353 1791 
Q 353 2603 747 3093 
Q 1141 3584 1784 3584 
Q 2172 3584 2450 3431 
Q 2728 3278 2906 2969 
L 2906 3500 
L 3481 3500 
L 3481 434 
z
" transform="scale(0.015625)"/>
          <path id="DejaVuSans-6f" d="M 1959 3097 
Q 1497 3097 1228 2736 
Q 959 2375 959 1747 
Q 959 1119 1226 758 
Q 1494 397 1959 397 
Q 2419 397 2687 759 
Q 2956 1122 2956 1747 
Q 2956 2369 2687 2733 
Q 2419 3097 1959 3097 
z
M 1959 3584 
Q 2709 3584 3137 3096 
Q 3566 2609 3566 1747 
Q 3566 888 3137 398 
Q 2709 -91 1959 -91 
Q 1206 -91 779 398 
Q 353 888 353 1747 
Q 353 2609 779 3096 
Q 1206 3584 1959 3584 
z
" transform="scale(0.015625)"/>
          <path id="DejaVuSans-28" d="M 1984 4856 
Q 1566 4138 1362 3434 
Q 1159 2731 1159 2009 
Q 1159 1288 1364 580 
Q 1569 -128 1984 -844 
L 1484 -844 
Q 1016 -109 783 600 
Q 550 1309 550 2009 
Q 550 2706 781 3412 
Q 1013 4119 1484 4856 
L 1984 4856 
z
" transform="scale(0.015625)"/>
          <path id="DejaVuSans-79" d="M 2059 -325 
Q 1816 -950 1584 -1140 
Q 1353 -1331 966 -1331 
L 506 -1331 
L 506 -850 
L 844 -850 
Q 1081 -850 1212 -737 
Q 1344 -625 1503 -206 
L 1606 56 
L 191 3500 
L 800 3500 
L 1894 763 
L 2988 3500 
L 3597 3500 
L 2059 -325 
z
" transform="scale(0.015625)"/>
          <path id="DejaVuSans-72" d="M 2631 2963 
Q 2534 3019 2420 3045 
Q 2306 3072 2169 3072 
Q 1681 3072 1420 2755 
Q 1159 2438 1159 1844 
L 1159 0 
L 581 0 
L 581 3500 
L 1159 3500 
L 1159 2956 
Q 1341 3275 1631 3429 
Q 1922 3584 2338 3584 
Q 2397 3584 2469 3576 
Q 2541 3569 2628 3553 
L 2631 2963 
z
" transform="scale(0.015625)"/>
          <path id="DejaVuSans-73" d="M 2834 3397 
L 2834 2853 
Q 2591 2978 2328 3040 
Q 2066 3103 1784 3103 
Q 1356 3103 1142 2972 
Q 928 2841 928 2578 
Q 928 2378 1081 2264 
Q 1234 2150 1697 2047 
L 1894 2003 
Q 2506 1872 2764 1633 
Q 3022 1394 3022 966 
Q 3022 478 2636 193 
Q 2250 -91 1575 -91 
Q 1294 -91 989 -36 
Q 684 19 347 128 
L 347 722 
Q 666 556 975 473 
Q 1284 391 1588 391 
Q 1994 391 2212 530 
Q 2431 669 2431 922 
Q 2431 1156 2273 1281 
Q 2116 1406 1581 1522 
L 1381 1569 
Q 847 1681 609 1914 
Q 372 2147 372 2553 
Q 372 3047 722 3315 
Q 1072 3584 1716 3584 
Q 2034 3584 2315 3537 
Q 2597 3491 2834 3397 
z
" transform="scale(0.015625)"/>
          <path id="DejaVuSans-29" d="M 513 4856 
L 1013 4856 
Q 1481 4119 1714 3412 
Q 1947 2706 1947 2009 
Q 1947 1309 1714 600 
Q 1481 -109 1013 -844 
L 513 -844 
Q 928 -128 1133 580 
Q 1338 1288 1338 2009 
Q 1338 2731 1133 3434 
Q 928 4138 513 4856 
z
" transform="scale(0.015625)"/>
         </defs>
         <use xlink:href="#DejaVuSans-74"/>
         <use xlink:href="#DejaVuSans-69" x="39.208984"/>
         <use xlink:href="#DejaVuSans-6d" x="66.992188"/>
         <use xlink:href="#DejaVuSans-65" x="164.404297"/>
         <use xlink:href="#DejaVuSans-20" x="225.927734"/>
         <use xlink:href="#DejaVuSans-61" x="257.714844"/>
         <use xlink:href="#DejaVuSans-67" x="318.994141"/>
         <use xlink:href="#DejaVuSans-6f" x="382.470703"/>
         <use xlink:href="#DejaVuSans-20" x="443.652344"/>
         <use xlink:href="#DejaVuSans-28" x="475.439453"/>
         <use xlink:href="#DejaVuSans-79" x="514.453125"/>
         <use xlink:href="#DejaVuSans-65" x="573.632812"/>
         <use xlink:href="#DejaVuSans-61" x="635.15625"/>
         <use xlink:href="#DejaVuSans-72" x="696.435547"/>
         <use xlink:href="#DejaVuSans-73" x="737.548828"/>
         <use xlink:href="#DejaVuSans-29" x="789.648438"/>
        </g>
       </g>
      </g>
      <path d="M 218.800088 199.523504 
L 216.800088 198.523504 
L 216.800088 200.523504 
z
" clip-path="url(#p0595db0ad7)" style="fill: #1f77b4; fill-opacity: 0.5; stroke: #1f77b4; stroke-opacity: 0.5; stroke-linejoin: miter"/>
      <path d="M 218.800088 158.533169 
L 216.800088 157.533169 
L 216.800088 159.533169 
z
" clip-path="url(#p0595db0ad7)" style="fill: #1f77b4; fill-opacity: 0.5; stroke: #1f77b4; stroke-opacity: 0.5; stroke-linejoin: miter"/>
      <path d="M 218.800088 228.435127 
L 216.800088 227.435127 
L 216.800088 229.435127 
z
" clip-path="url(#p0595db0ad7)" style="fill: #1f77b4; fill-opacity: 0.5; stroke: #1f77b4; stroke-opacity: 0.5; stroke-linejoin: miter"/>
      <path d="M 218.800088 219.812981 
L 216.800088 218.812981 
L 216.800088 220.812981 
z
" clip-path="url(#p0595db0ad7)" style="fill: #1f77b4; fill-opacity: 0.5; stroke: #1f77b4; stroke-opacity: 0.5; stroke-linejoin: miter"/>
      <path d="M 218.800088 174.362631 
L 216.800088 173.362631 
L 216.800088 175.362631 
z
" clip-path="url(#p0595db0ad7)" style="fill: #1f77b4; fill-opacity: 0.5; stroke: #1f77b4; stroke-opacity: 0.5; stroke-linejoin: miter"/>
      <path d="M 218.800088 248.717982 
L 216.800088 247.717982 
L 216.800088 249.717982 
z
" clip-path="url(#p0595db0ad7)" style="fill: #1f77b4; fill-opacity: 0.5; stroke: #1f77b4; stroke-opacity: 0.5; stroke-linejoin: miter"/>
      <path d="M 218.800088 171.906316 
L 216.800088 170.906316 
L 216.800088 172.906316 
z
" clip-path="url(#p0595db0ad7)" style="fill: #1f77b4; fill-opacity: 0.5; stroke: #1f77b4; stroke-opacity: 0.5; stroke-linejoin: miter"/>
      <path d="M 218.800088 202.375298 
L 216.800088 201.375298 
L 216.800088 203.375298 
z
" clip-path="url(#p0595db0ad7)" style="fill: #1f77b4; fill-opacity: 0.5; stroke: #1f77b4; stroke-opacity: 0.5; stroke-linejoin: miter"/>
      <path d="M 218.800088 233.819633 
L 216.800088 232.819633 
L 216.800088 234.819633 
z
" clip-path="url(#p0595db0ad7)" style="fill: #1f77b4; fill-opacity: 0.5; stroke: #1f77b4; stroke-opacity: 0.5; stroke-linejoin: miter"/>
      <path d="M 218.800088 46.263326 
L 216.800088 45.263326 
L 216.800088 47.263326 
z
" clip-path="url(#p0595db0ad7)" style="fill: #1f77b4; fill-opacity: 0.5; stroke: #1f77b4; stroke-opacity: 0.5; stroke-linejoin: miter"/>
      <path d="M 170.90811 78.213952 
L 172.90811 79.213952 
L 172.90811 77.213952 
z
" clip-path="url(#p0595db0ad7)" style="fill: #ff7f0e; fill-opacity: 0.5; stroke: #ff7f0e; stroke-opacity: 0.5; stroke-linejoin: miter"/>
      <path d="M 170.90811 189.71917 
L 172.90811 190.71917 
L 172.90811 188.71917 
z
" clip-path="url(#p0595db0ad7)" style="fill: #ff7f0e; fill-opacity: 0.5; stroke: #ff7f0e; stroke-opacity: 0.5; stroke-linejoin: miter"/>
      <path d="M 170.90811 33.449636 
L 172.90811 34.449636 
L 172.90811 32.449636 
z
" clip-path="url(#p0595db0ad7)" style="fill: #ff7f0e; fill-opacity: 0.5; stroke: #ff7f0e; stroke-opacity: 0.5; stroke-linejoin: miter"/>
      <path d="M 170.90811 200.218126 
L 172.90811 201.218126 
L 172.90811 199.218126 
z
" clip-path="url(#p0595db0ad7)" style="fill: #ff7f0e; fill-opacity: 0.5; stroke: #ff7f0e; stroke-opacity: 0.5; stroke-linejoin: miter"/>
      <path d="M 170.90811 162.545108 
L 172.90811 163.545108 
L 172.90811 161.545108 
z
" clip-path="url(#p0595db0ad7)" style="fill: #ff7f0e; fill-opacity: 0.5; stroke: #ff7f0e; stroke-opacity: 0.5; stroke-linejoin: miter"/>
      <path d="M 170.90811 27.017568 
L 172.90811 28.017568 
L 172.90811 26.017568 
z
" clip-path="url(#p0595db0ad7)" style="fill: #ff7f0e; fill-opacity: 0.5; stroke: #ff7f0e; stroke-opacity: 0.5; stroke-linejoin: miter"/>
      <path d="M 170.90811 254.319755 
L 172.90811 255.319755 
L 172.90811 253.319755 
z
" clip-path="url(#p0595db0ad7)" style="fill: #ff7f0e; fill-opacity: 0.5; stroke: #ff7f0e; stroke-opacity: 0.5; stroke-linejoin: miter"/>
      <path d="M 170.90811 71.097319 
L 172.90811 72.097319 
L 172.90811 70.097319 
z
" clip-path="url(#p0595db0ad7)" style="fill: #ff7f0e; fill-opacity: 0.5; stroke: #ff7f0e; stroke-opacity: 0.5; stroke-linejoin: miter"/>
      <path d="M 170.90811 70.58516 
L 172.90811 71.58516 
L 172.90811 69.58516 
z
" clip-path="url(#p0595db0ad7)" style="fill: #ff7f0e; fill-opacity: 0.5; stroke: #ff7f0e; stroke-opacity: 0.5; stroke-linejoin: miter"/>
      <path d="M 170.90811 223.722098 
L 172.90811 224.722098 
L 172.90811 222.722098 
z
" clip-path="url(#p0595db0ad7)" style="fill: #ff7f0e; fill-opacity: 0.5; stroke: #ff7f0e; stroke-opacity: 0.5; stroke-linejoin: miter"/>
      <path d="M 373.657515 253.20076 
L 371.657515 252.20076 
L 371.657515 254.20076 
z
" clip-path="url(#p0595db0ad7)" style="fill: #ff7f0e; fill-opacity: 0.5; stroke: #ff7f0e; stroke-opacity: 0.5; stroke-linejoin: miter"/>
      <path d="M 373.657515 97.635569 
L 371.657515 96.635569 
L 371.657515 98.635569 
z
" clip-path="url(#p0595db0ad7)" style="fill: #ff7f0e; fill-opacity: 0.5; stroke: #ff7f0e; stroke-opacity: 0.5; stroke-linejoin: miter"/>
      <path d="M 373.657515 147.730932 
L 371.657515 146.730932 
L 371.657515 148.730932 
z
" clip-path="url(#p0595db0ad7)" style="fill: #ff7f0e; fill-opacity: 0.5; stroke: #ff7f0e; stroke-opacity: 0.5; stroke-linejoin: miter"/>
      <path d="M 373.657515 107.113846 
L 371.657515 106.113846 
L 371.657515 108.113846 
z
" clip-path="url(#p0595db0ad7)" style="fill: #ff7f0e; fill-opacity: 0.5; stroke: #ff7f0e; stroke-opacity: 0.5; stroke-linejoin: miter"/>
      <path d="M 373.657515 177.133923 
L 371.657515 176.133923 
L 371.657515 178.133923 
z
" clip-path="url(#p0595db0ad7)" style="fill: #ff7f0e; fill-opacity: 0.5; stroke: #ff7f0e; stroke-opacity: 0.5; stroke-linejoin: miter"/>
      <path d="M 373.657515 134.750276 
L 371.657515 133.750276 
L 371.657515 135.750276 
z
" clip-path="url(#p0595db0ad7)" style="fill: #ff7f0e; fill-opacity: 0.5; stroke: #ff7f0e; stroke-opacity: 0.5; stroke-linejoin: miter"/>
      <path d="M 373.657515 191.594425 
L 371.657515 190.594425 
L 371.657515 192.594425 
z
" clip-path="url(#p0595db0ad7)" style="fill: #ff7f0e; fill-opacity: 0.5; stroke: #ff7f0e; stroke-opacity: 0.5; stroke-linejoin: miter"/>
      <path d="M 373.657515 126.012836 
L 371.657515 125.012836 
L 371.657515 127.012836 
z
" clip-path="url(#p0595db0ad7)" style="fill: #ff7f0e; fill-opacity: 0.5; stroke: #ff7f0e; stroke-opacity: 0.5; stroke-linejoin: miter"/>
      <path d="M 373.657515 92.645288 
L 371.657515 91.645288 
L 371.657515 93.645288 
z
" clip-path="url(#p0595db0ad7)" style="fill: #ff7f0e; fill-opacity: 0.5; stroke: #ff7f0e; stroke-opacity: 0.5; stroke-linejoin: miter"/>
      <path d="M 373.657515 55.76366 
L 371.657515 54.76366 
L 371.657515 56.76366 
z
" clip-path="url(#p0595db0ad7)" style="fill: #ff7f0e; fill-opacity: 0.5; stroke: #ff7f0e; stroke-opacity: 0.5; stroke-linejoin: miter"/>
      <path d="M 325.765537 174.650647 
L 327.765537 175.650647 
L 327.765537 173.650647 
z
" clip-path="url(#p0595db0ad7)" style="fill: #2ca02c; fill-opacity: 0.5; stroke: #2ca02c; stroke-opacity: 0.5; stroke-linejoin: miter"/>
      <path d="M 325.765537 189.996668 
L 327.765537 190.996668 
L 327.765537 188.996668 
z
" clip-path="url(#p0595db0ad7)" style="fill: #2ca02c; fill-opacity: 0.5; stroke: #2ca02c; stroke-opacity: 0.5; stroke-linejoin: miter"/>
      <path d="M 325.765537 203.681823 
L 327.765537 204.681823 
L 327.765537 202.681823 
z
" clip-path="url(#p0595db0ad7)" style="fill: #2ca02c; fill-opacity: 0.5; stroke: #2ca02c; stroke-opacity: 0.5; stroke-linejoin: miter"/>
      <path d="M 325.765537 134.738416 
L 327.765537 135.738416 
L 327.765537 133.738416 
z
" clip-path="url(#p0595db0ad7)" style="fill: #2ca02c; fill-opacity: 0.5; stroke: #2ca02c; stroke-opacity: 0.5; stroke-linejoin: miter"/>
      <path d="M 325.765537 151.284128 
L 327.765537 152.284128 
L 327.765537 150.284128 
z
" clip-path="url(#p0595db0ad7)" style="fill: #2ca02c; fill-opacity: 0.5; stroke: #2ca02c; stroke-opacity: 0.5; stroke-linejoin: miter"/>
      <path d="M 325.765537 92.056642 
L 327.765537 93.056642 
L 327.765537 91.056642 
z
" clip-path="url(#p0595db0ad7)" style="fill: #2ca02c; fill-opacity: 0.5; stroke: #2ca02c; stroke-opacity: 0.5; stroke-linejoin: miter"/>
      <path d="M 325.765537 202.441436 
L 327.765537 203.441436 
L 327.765537 201.441436 
z
" clip-path="url(#p0595db0ad7)" style="fill: #2ca02c; fill-opacity: 0.5; stroke: #2ca02c; stroke-opacity: 0.5; stroke-linejoin: miter"/>
      <path d="M 325.765537 245.653236 
L 327.765537 246.653236 
L 327.765537 244.653236 
z
" clip-path="url(#p0595db0ad7)" style="fill: #2ca02c; fill-opacity: 0.5; stroke: #2ca02c; stroke-opacity: 0.5; stroke-linejoin: miter"/>
      <path d="M 325.765537 166.529436 
L 327.765537 167.529436 
L 327.765537 165.529436 
z
" clip-path="url(#p0595db0ad7)" style="fill: #2ca02c; fill-opacity: 0.5; stroke: #2ca02c; stroke-opacity: 0.5; stroke-linejoin: miter"/>
      <path d="M 325.765537 72.073803 
L 327.765537 73.073803 
L 327.765537 71.073803 
z
" clip-path="url(#p0595db0ad7)" style="fill: #2ca02c; fill-opacity: 0.5; stroke: #2ca02c; stroke-opacity: 0.5; stroke-linejoin: miter"/>
      <g id="patch_6">
       <path d="M 46.965625 260.421875 
L 46.965625 22.318125 
" style="fill: none; stroke: #000000; stroke-width: 0.8; stroke-linejoin: miter; stroke-linecap: square"/>
      </g>
      <g id="text_11">
       <!-- stepping_stone_model.yaml -->
       <g transform="translate(188.243437 16.318125)scale(0.12 -0.12)">
        <defs>
         <path id="DejaVuSans-70" d="M 1159 525 
L 1159 -1331 
L 581 -1331 
L 581 3500 
L 1159 3500 
L 1159 2969 
Q 1341 3281 1617 3432 
Q 1894 3584 2278 3584 
Q 2916 3584 3314 3078 
Q 3713 2572 3713 1747 
Q 3713 922 3314 415 
Q 2916 -91 2278 -91 
Q 1894 -91 1617 61 
Q 1341 213 1159 525 
z
M 3116 1747 
Q 3116 2381 2855 2742 
Q 2594 3103 2138 3103 
Q 1681 3103 1420 2742 
Q 1159 2381 1159 1747 
Q 1159 1113 1420 752 
Q 1681 391 2138 391 
Q 2594 391 2855 752 
Q 3116 1113 3116 1747 
z
" transform="scale(0.015625)"/>
         <path id="DejaVuSans-6e" d="M 3513 2113 
L 3513 0 
L 2938 0 
L 2938 2094 
Q 2938 2591 2744 2837 
Q 2550 3084 2163 3084 
Q 1697 3084 1428 2787 
Q 1159 2491 1159 1978 
L 1159 0 
L 581 0 
L 581 3500 
L 1159 3500 
L 1159 2956 
Q 1366 3272 1645 3428 
Q 1925 3584 2291 3584 
Q 2894 3584 3203 3211 
Q 3513 2838 3513 2113 
z
" transform="scale(0.015625)"/>
         <path id="DejaVuSans-5f" d="M 3263 -1063 
L 3263 -1509 
L -63 -1509 
L -63 -1063 
L 3263 -1063 
z
" transform="scale(0.015625)"/>
         <path id="DejaVuSans-6c" d="M 603 4863 
L 1178 4863 
L 1178 0 
L 603 0 
L 603 4863 
z
" transform="scale(0.015625)"/>
         <path id="DejaVuSans-2e" d="M 684 794 
L 1344 794 
L 1344 0 
L 684 0 
L 684 794 
z
" transform="scale(0.015625)"/>
        </defs>
        <use xlink:href="#DejaVuSans-73"/>
        <use xlink:href="#DejaVuSans-74" x="52.099609"/>
        <use xlink:href="#DejaVuSans-65" x="91.308594"/>
        <use xlink:href="#DejaVuSans-70" x="152.832031"/>
        <use xlink:href="#DejaVuSans-70" x="216.308594"/>
        <use xlink:href="#DejaVuSans-69" x="279.785156"/>
        <use xlink:href="#DejaVuSans-6e" x="307.568359"/>
        <use xlink:href="#DejaVuSans-67" x="370.947266"/>
        <use xlink:href="#DejaVuSans-5f" x="434.423828"/>
        <use xlink:href="#DejaVuSans-73" x="484.423828"/>
        <use xlink:href="#DejaVuSans-74" x="536.523438"/>
        <use xlink:href="#DejaVuSans-6f" x="575.732422"/>
        <use xlink:href="#DejaVuSans-6e" x="636.914062"/>
        <use xlink:href="#DejaVuSans-65" x="700.292969"/>
        <use xlink:href="#DejaVuSans-5f" x="761.816406"/>
        <use xlink:href="#DejaVuSans-6d" x="811.816406"/>
        <use xlink:href="#DejaVuSans-6f" x="909.228516"/>
        <use xlink:href="#DejaVuSans-64" x="970.410156"/>
        <use xlink:href="#DejaVuSans-65" x="1033.886719"/>
        <use xlink:href="#DejaVuSans-6c" x="1095.410156"/>
        <use xlink:href="#DejaVuSans-2e" x="1123.193359"/>
        <use xlink:href="#DejaVuSans-79" x="1154.980469"/>
        <use xlink:href="#DejaVuSans-61" x="1214.160156"/>
        <use xlink:href="#DejaVuSans-6d" x="1275.439453"/>
        <use xlink:href="#DejaVuSans-6c" x="1372.851562"/>
       </g>
      </g>
     </g>
    </g>
    <defs>
     <clipPath id="p0595db0ad7">
      <rect x="46.965625" y="22.318125" width="450.634375" height="238.10375"/>
     </clipPath>
    </defs>
   </g>
  </g>
 </g>
</svg>
