<?xml version="1.0" encoding="utf-8" standalone="no"?>
<!DOCTYPE svg PUBLIC "-//W3C//DTD SVG 1.1//EN"
  "http://www.w3.org/Graphics/SVG/1.1/DTD/svg11.dtd">
<svg xmlns:xlink="http://www.w3.org/1999/xlink" width="504.8pt" height="280.8pt" viewBox="0 0 504.8 280.8" xmlns="http://www.w3.org/2000/svg" version="1.1">
 <metadata>
  <rdf:RDF xmlns:dc="http://purl.org/dc/elements/1.1/" xmlns:cc="http://creativecommons.org/ns#" xmlns:rdf="http://www.w3.org/1999/02/22-rdf-syntax-ns#">
   <cc:Work>
    <dc:type rdf:resource="http://purl.org/dc/dcmitype/StillImage"/>
    <dc:date>2022-05-09T08:20:29.159622</dc:date>
    <dc:format>image/svg+xml</dc:format>
    <dc:creator>
     <cc:Agent>
      <dc:title>Matplotlib v3.5.2, https://matplotlib.org/</dc:title>
     </cc:Agent>
    </dc:creator>
   </cc:Work>
  </rdf:RDF>
 </metadata>
 <defs>
  <style type="text/css">*{stroke-linejoin: round; stroke-linecap: butt}</style>
 </defs>
 <g id="figure_1">
  <g id="patch_1">
   <path d="M 0 280.8 
L 504.8 280.8 
L 504.8 0 
L 0 0 
L 0 280.8 
z
" style="fill: none"/>
  </g>
  <g id="axes_1">
   <g id="patch_2">
    <path d="M 43.78125 260.421875 
L 497.6 260.421875 
L 497.6 22.318125 
L 43.78125 22.318125 
z
" style="fill: #ffffff"/>
   </g>
   <path d="M 296.618831 103.639287 
L 295.618831 103.60785 
L 294.618831 103.57091 
L 293.618831 103.473163 
L 292.618831 103.440642 
L 291.618831 103.367017 
L 290.618831 103.328451 
L 289.618831 103.293038 
L 288.618831 103.235398 
L 287.618831 103.165012 
L 286.618831 103.113048 
L 285.618831 103.053958 
L 284.618831 102.965637 
L 283.618831 102.919493 
L 282.618831 102.877082 
L 281.618831 102.846589 
L 280.618831 102.820544 
L 279.618831 102.799344 
L 278.618831 102.745043 
L 277.618831 102.717106 
L 276.618831 102.687382 
L 275.618831 102.661987 
L 274.618831 102.650786 
L 273.618831 102.640662 
L 272.618831 102.640867 
L 271.618831 102.650377 
L 270.618831 102.66203 
L 269.618831 102.693059 
L 268.618831 102.704227 
L 267.618831 102.734345 
L 266.618831 102.794122 
L 265.618831 102.831313 
L 264.618831 102.870409 
L 263.618831 102.912849 
L 262.618831 102.945614 
L 261.618831 103.013041 
L 260.618831 103.052167 
L 259.618831 103.094841 
L 258.618831 103.165422 
L 257.618831 103.201813 
L 256.618831 103.260216 
L 255.618831 103.371168 
L 254.618831 103.441827 
L 253.618831 103.554767 
L 252.618831 103.600539 
L 251.618831 103.661823 
L 250.618831 103.710322 
L 249.618831 103.791145 
L 248.618831 103.909664 
L 247.618831 103.979874 
L 246.618831 104.063137 
L 244.762419 104.096278 
" clip-path="url(#pdf9c8fc3ad)" style="fill: none; stroke: #ff7f0e; stroke-opacity: 0.5; stroke-width: 0.2; stroke-linecap: square"/>
   <path d="M 296.618831 102.778294 
L 295.618831 102.746858 
L 294.618831 102.709918 
L 293.618831 102.612171 
L 292.618831 102.579649 
L 291.618831 102.506025 
L 290.618831 102.467459 
L 289.618831 102.432046 
L 288.618831 102.374406 
L 287.618831 102.30402 
L 286.618831 102.252056 
L 285.618831 102.192966 
L 284.618831 102.104645 
L 283.618831 102.058501 
L 282.618831 102.01609 
L 281.618831 101.985597 
L 280.618831 101.959552 
L 279.618831 101.938352 
L 278.618831 101.884051 
L 277.618831 101.856113 
L 276.618831 101.826389 
L 275.618831 101.800995 
L 274.618831 101.789794 
L 273.618831 101.77967 
L 272.618831 101.779875 
L 271.618831 101.789384 
L 270.618831 101.801038 
L 269.618831 101.832067 
L 268.618831 101.843235 
L 267.618831 101.873353 
L 266.618831 101.93313 
L 265.618831 101.970321 
L 264.618831 102.009417 
L 263.618831 102.051857 
L 262.618831 102.084622 
L 261.618831 102.152048 
L 260.618831 102.191174 
L 259.618831 102.233849 
L 258.618831 102.304429 
L 257.618831 102.34082 
L 256.618831 102.399224 
L 255.618831 102.510176 
L 254.618831 102.580834 
L 253.618831 102.693774 
L 252.618831 102.739547 
L 251.618831 102.80083 
L 250.618831 102.84933 
L 249.618831 102.930152 
L 248.618831 103.048671 
L 247.618831 103.118882 
L 246.618831 103.202144 
L 244.762419 103.235286 
" clip-path="url(#pdf9c8fc3ad)" style="fill: none; stroke: #ff7f0e; stroke-opacity: 0.5; stroke-width: 0.2; stroke-linecap: square"/>
   <path d="M 296.618831 156.805237 
L 295.618831 156.773801 
L 294.618831 156.736861 
L 293.618831 156.639114 
L 292.618831 156.606592 
L 291.618831 156.532968 
L 290.618831 156.494402 
L 289.618831 156.458989 
L 288.618831 156.401349 
L 287.618831 156.330963 
L 286.618831 156.278999 
L 285.618831 156.219909 
L 284.618831 156.131588 
L 283.618831 156.085444 
L 282.618831 156.043033 
L 281.618831 156.01254 
L 280.618831 155.986495 
L 279.618831 155.965295 
L 278.618831 155.910994 
L 277.618831 155.883056 
L 276.618831 155.853332 
L 275.618831 155.827938 
L 274.618831 155.816737 
L 273.618831 155.806613 
L 272.618831 155.806818 
L 271.618831 155.816327 
L 270.618831 155.827981 
L 269.618831 155.85901 
L 268.618831 155.870178 
L 267.618831 155.900296 
L 266.618831 155.960073 
L 265.618831 155.997264 
L 264.618831 156.03636 
L 263.618831 156.0788 
L 262.618831 156.111565 
L 261.618831 156.178991 
L 260.618831 156.218117 
L 259.618831 156.260792 
L 258.618831 156.331373 
L 257.618831 156.367763 
L 256.618831 156.426167 
L 255.618831 156.537119 
L 254.618831 156.607777 
L 253.618831 156.720717 
L 252.618831 156.76649 
L 251.618831 156.827773 
L 250.618831 156.876273 
L 249.618831 156.957095 
L 248.618831 157.075614 
L 247.618831 157.145825 
L 246.618831 157.229087 
L 244.762419 157.262229 
" clip-path="url(#pdf9c8fc3ad)" style="fill: none; stroke: #ff7f0e; stroke-opacity: 0.5; stroke-width: 0.2; stroke-linecap: square"/>
   <path d="M 296.618831 89.71036 
L 295.618831 89.678923 
L 294.618831 89.641983 
L 293.618831 89.544236 
L 292.618831 89.511715 
L 291.618831 89.43809 
L 290.618831 89.399525 
L 289.618831 89.364111 
L 288.618831 89.306471 
L 287.618831 89.236085 
L 286.618831 89.184121 
L 285.618831 89.125031 
L 284.618831 89.03671 
L 283.618831 88.990566 
L 282.618831 88.948155 
L 281.618831 88.917662 
L 280.618831 88.891617 
L 279.618831 88.870417 
L 278.618831 88.816116 
L 277.618831 88.788179 
L 276.618831 88.758455 
L 275.618831 88.73306 
L 274.618831 88.72186 
L 273.618831 88.711736 
L 272.618831 88.71194 
L 271.618831 88.72145 
L 270.618831 88.733103 
L 269.618831 88.764133 
L 268.618831 88.775301 
L 267.618831 88.805418 
L 266.618831 88.865195 
L 265.618831 88.902387 
L 264.618831 88.941483 
L 263.618831 88.983922 
L 262.618831 89.016687 
L 261.618831 89.084114 
L 260.618831 89.12324 
L 259.618831 89.165914 
L 258.618831 89.236495 
L 257.618831 89.272886 
L 256.618831 89.331289 
L 255.618831 89.442242 
L 254.618831 89.5129 
L 253.618831 89.62584 
L 252.618831 89.671613 
L 251.618831 89.732896 
L 250.618831 89.781395 
L 249.618831 89.862218 
L 248.618831 89.980737 
L 247.618831 90.050947 
L 246.618831 90.13421 
L 244.762419 90.167352 
" clip-path="url(#pdf9c8fc3ad)" style="fill: none; stroke: #ff7f0e; stroke-opacity: 0.5; stroke-width: 0.2; stroke-linecap: square"/>
   <path d="M 296.618831 75.384145 
L 295.618831 75.352708 
L 294.618831 75.315768 
L 293.618831 75.218022 
L 292.618831 75.1855 
L 291.618831 75.111875 
L 290.618831 75.07331 
L 289.618831 75.037897 
L 288.618831 74.980257 
L 287.618831 74.90987 
L 286.618831 74.857906 
L 285.618831 74.798816 
L 284.618831 74.710495 
L 283.618831 74.664351 
L 282.618831 74.62194 
L 281.618831 74.591448 
L 280.618831 74.565403 
L 279.618831 74.544203 
L 278.618831 74.489901 
L 277.618831 74.461964 
L 276.618831 74.43224 
L 275.618831 74.406845 
L 274.618831 74.395645 
L 273.618831 74.385521 
L 272.618831 74.385725 
L 271.618831 74.395235 
L 270.618831 74.406888 
L 269.618831 74.437918 
L 268.618831 74.449086 
L 267.618831 74.479203 
L 266.618831 74.53898 
L 265.618831 74.576172 
L 264.618831 74.615268 
L 263.618831 74.657707 
L 262.618831 74.690473 
L 261.618831 74.757899 
L 260.618831 74.797025 
L 259.618831 74.839699 
L 258.618831 74.91028 
L 257.618831 74.946671 
L 256.618831 75.005074 
L 255.618831 75.116027 
L 254.618831 75.186685 
L 253.618831 75.299625 
L 252.618831 75.345398 
L 251.618831 75.406681 
L 250.618831 75.45518 
L 249.618831 75.536003 
L 248.618831 75.654522 
L 247.618831 75.724732 
L 246.618831 75.807995 
L 244.762419 75.841137 
" clip-path="url(#pdf9c8fc3ad)" style="fill: none; stroke: #ff7f0e; stroke-opacity: 0.5; stroke-width: 0.2; stroke-linecap: square"/>
   <path d="M 296.618831 138.524234 
L 295.618831 138.492797 
L 294.618831 138.455857 
L 293.618831 138.35811 
L 292.618831 138.325589 
L 291.618831 138.251964 
L 290.618831 138.213399 
L 289.618831 138.177985 
L 288.618831 138.120345 
L 287.618831 138.049959 
L 286.618831 137.997995 
L 285.618831 137.938905 
L 284.618831 137.850584 
L 283.618831 137.80444 
L 282.618831 137.762029 
L 281.618831 137.731536 
L 280.618831 137.705491 
L 279.618831 137.684291 
L 278.618831 137.62999 
L 277.618831 137.602053 
L 276.618831 137.572329 
L 275.618831 137.546934 
L 274.618831 137.535734 
L 273.618831 137.52561 
L 272.618831 137.525814 
L 271.618831 137.535324 
L 270.618831 137.546977 
L 269.618831 137.578007 
L 268.618831 137.589175 
L 267.618831 137.619292 
L 266.618831 137.679069 
L 265.618831 137.716261 
L 264.618831 137.755357 
L 263.618831 137.797796 
L 262.618831 137.830561 
L 261.618831 137.897988 
L 260.618831 137.937114 
L 259.618831 137.979788 
L 258.618831 138.050369 
L 257.618831 138.08676 
L 256.618831 138.145163 
L 255.618831 138.256116 
L 254.618831 138.326774 
L 253.618831 138.439714 
L 252.618831 138.485487 
L 251.618831 138.54677 
L 250.618831 138.595269 
L 249.618831 138.676092 
L 248.618831 138.794611 
L 247.618831 138.864821 
L 246.618831 138.948084 
L 244.762419 138.981226 
" clip-path="url(#pdf9c8fc3ad)" style="fill: none; stroke: #ff7f0e; stroke-opacity: 0.5; stroke-width: 0.2; stroke-linecap: square"/>
   <path d="M 296.618831 145.082285 
L 295.618831 145.050849 
L 294.618831 145.013908 
L 293.618831 144.916162 
L 292.618831 144.88364 
L 291.618831 144.810016 
L 290.618831 144.77145 
L 289.618831 144.736037 
L 288.618831 144.678397 
L 287.618831 144.608011 
L 286.618831 144.556047 
L 285.618831 144.496957 
L 284.618831 144.408636 
L 283.618831 144.362492 
L 282.618831 144.320081 
L 281.618831 144.289588 
L 280.618831 144.263543 
L 279.618831 144.242343 
L 278.618831 144.188042 
L 277.618831 144.160104 
L 276.618831 144.13038 
L 275.618831 144.104985 
L 274.618831 144.093785 
L 273.618831 144.083661 
L 272.618831 144.083865 
L 271.618831 144.093375 
L 270.618831 144.105029 
L 269.618831 144.136058 
L 268.618831 144.147226 
L 267.618831 144.177344 
L 266.618831 144.237121 
L 265.618831 144.274312 
L 264.618831 144.313408 
L 263.618831 144.355848 
L 262.618831 144.388613 
L 261.618831 144.456039 
L 260.618831 144.495165 
L 259.618831 144.53784 
L 258.618831 144.60842 
L 257.618831 144.644811 
L 256.618831 144.703214 
L 255.618831 144.814167 
L 254.618831 144.884825 
L 253.618831 144.997765 
L 252.618831 145.043538 
L 251.618831 145.104821 
L 250.618831 145.153321 
L 249.618831 145.234143 
L 248.618831 145.352662 
L 247.618831 145.422873 
L 246.618831 145.506135 
L 244.762419 145.539277 
" clip-path="url(#pdf9c8fc3ad)" style="fill: none; stroke: #ff7f0e; stroke-opacity: 0.5; stroke-width: 0.2; stroke-linecap: square"/>
   <path d="M 296.618831 116.107497 
L 295.618831 116.07606 
L 294.618831 116.03912 
L 293.618831 115.941374 
L 292.618831 115.908852 
L 291.618831 115.835227 
L 290.618831 115.796662 
L 289.618831 115.761248 
L 288.618831 115.703609 
L 287.618831 115.633222 
L 286.618831 115.581258 
L 285.618831 115.522168 
L 284.618831 115.433847 
L 283.618831 115.387703 
L 282.618831 115.345292 
L 281.618831 115.3148 
L 280.618831 115.288755 
L 279.618831 115.267554 
L 278.618831 115.213253 
L 277.618831 115.185316 
L 276.618831 115.155592 
L 275.618831 115.130197 
L 274.618831 115.118997 
L 273.618831 115.108873 
L 272.618831 115.109077 
L 271.618831 115.118587 
L 270.618831 115.13024 
L 269.618831 115.16127 
L 268.618831 115.172438 
L 267.618831 115.202555 
L 266.618831 115.262332 
L 265.618831 115.299524 
L 264.618831 115.33862 
L 263.618831 115.381059 
L 262.618831 115.413824 
L 261.618831 115.481251 
L 260.618831 115.520377 
L 259.618831 115.563051 
L 258.618831 115.633632 
L 257.618831 115.670023 
L 256.618831 115.728426 
L 255.618831 115.839379 
L 254.618831 115.910037 
L 253.618831 116.022977 
L 252.618831 116.06875 
L 251.618831 116.130033 
L 250.618831 116.178532 
L 249.618831 116.259355 
L 248.618831 116.377874 
L 247.618831 116.448084 
L 246.618831 116.531347 
L 244.762419 116.564489 
" clip-path="url(#pdf9c8fc3ad)" style="fill: none; stroke: #ff7f0e; stroke-opacity: 0.5; stroke-width: 0.2; stroke-linecap: square"/>
   <path d="M 296.618831 116.582504 
L 295.618831 116.551067 
L 294.618831 116.514127 
L 293.618831 116.41638 
L 292.618831 116.383859 
L 291.618831 116.310234 
L 290.618831 116.271668 
L 289.618831 116.236255 
L 288.618831 116.178615 
L 287.618831 116.108229 
L 286.618831 116.056265 
L 285.618831 115.997175 
L 284.618831 115.908854 
L 283.618831 115.86271 
L 282.618831 115.820299 
L 281.618831 115.789806 
L 280.618831 115.763761 
L 279.618831 115.742561 
L 278.618831 115.68826 
L 277.618831 115.660323 
L 276.618831 115.630599 
L 275.618831 115.605204 
L 274.618831 115.594003 
L 273.618831 115.583879 
L 272.618831 115.584084 
L 271.618831 115.593594 
L 270.618831 115.605247 
L 269.618831 115.636276 
L 268.618831 115.647444 
L 267.618831 115.677562 
L 266.618831 115.737339 
L 265.618831 115.77453 
L 264.618831 115.813626 
L 263.618831 115.856066 
L 262.618831 115.888831 
L 261.618831 115.956258 
L 260.618831 115.995384 
L 259.618831 116.038058 
L 258.618831 116.108639 
L 257.618831 116.14503 
L 256.618831 116.203433 
L 255.618831 116.314385 
L 254.618831 116.385044 
L 253.618831 116.497983 
L 252.618831 116.543756 
L 251.618831 116.60504 
L 250.618831 116.653539 
L 249.618831 116.734362 
L 248.618831 116.852881 
L 247.618831 116.923091 
L 246.618831 117.006354 
L 244.762419 117.039495 
" clip-path="url(#pdf9c8fc3ad)" style="fill: none; stroke: #ff7f0e; stroke-opacity: 0.5; stroke-width: 0.2; stroke-linecap: square"/>
   <path d="M 296.618831 76.678439 
L 295.618831 76.647003 
L 294.618831 76.610062 
L 293.618831 76.512316 
L 292.618831 76.479794 
L 291.618831 76.40617 
L 290.618831 76.367604 
L 289.618831 76.332191 
L 288.618831 76.274551 
L 287.618831 76.204165 
L 286.618831 76.152201 
L 285.618831 76.093111 
L 284.618831 76.00479 
L 283.618831 75.958646 
L 282.618831 75.916235 
L 281.618831 75.885742 
L 280.618831 75.859697 
L 279.618831 75.838497 
L 278.618831 75.784196 
L 277.618831 75.756258 
L 276.618831 75.726534 
L 275.618831 75.701139 
L 274.618831 75.689939 
L 273.618831 75.679815 
L 272.618831 75.680019 
L 271.618831 75.689529 
L 270.618831 75.701183 
L 269.618831 75.732212 
L 268.618831 75.74338 
L 267.618831 75.773498 
L 266.618831 75.833275 
L 265.618831 75.870466 
L 264.618831 75.909562 
L 263.618831 75.952002 
L 262.618831 75.984767 
L 261.618831 76.052193 
L 260.618831 76.091319 
L 259.618831 76.133994 
L 258.618831 76.204574 
L 257.618831 76.240965 
L 256.618831 76.299368 
L 255.618831 76.410321 
L 254.618831 76.480979 
L 253.618831 76.593919 
L 252.618831 76.639692 
L 251.618831 76.700975 
L 250.618831 76.749475 
L 249.618831 76.830297 
L 248.618831 76.948816 
L 247.618831 77.019027 
L 246.618831 77.102289 
L 244.762419 77.135431 
" clip-path="url(#pdf9c8fc3ad)" style="fill: none; stroke: #ff7f0e; stroke-opacity: 0.5; stroke-width: 0.2; stroke-linecap: square"/>
   <path d="M 244.762419 140.51076 
L 245.762419 140.542197 
L 246.762419 140.579137 
L 247.762419 140.676884 
L 248.762419 140.709405 
L 249.762419 140.78303 
L 250.762419 140.821596 
L 251.762419 140.857009 
L 252.762419 140.914649 
L 253.762419 140.985035 
L 254.762419 141.036999 
L 255.762419 141.096089 
L 256.762419 141.18441 
L 257.762419 141.230554 
L 258.762419 141.272965 
L 259.762419 141.303458 
L 260.762419 141.329503 
L 261.762419 141.350703 
L 262.762419 141.405004 
L 263.762419 141.432941 
L 264.762419 141.462665 
L 265.762419 141.48806 
L 266.762419 141.499261 
L 267.762419 141.509385 
L 268.762419 141.50918 
L 269.762419 141.49967 
L 270.762419 141.488017 
L 271.762419 141.456987 
L 272.762419 141.44582 
L 273.762419 141.415702 
L 274.762419 141.355925 
L 275.762419 141.318734 
L 276.762419 141.279637 
L 277.762419 141.237198 
L 278.762419 141.204433 
L 279.762419 141.137006 
L 280.762419 141.09788 
L 281.762419 141.055206 
L 282.762419 140.984625 
L 283.762419 140.948234 
L 284.762419 140.889831 
L 285.762419 140.778879 
L 286.762419 140.70822 
L 287.762419 140.59528 
L 288.762419 140.549508 
L 289.762419 140.488224 
L 290.762419 140.439725 
L 291.762419 140.358902 
L 292.762419 140.240383 
L 293.762419 140.170173 
L 294.762419 140.08691 
L 296.618831 140.053769 
" clip-path="url(#pdf9c8fc3ad)" style="fill: none; stroke: #1f77b4; stroke-opacity: 0.5; stroke-width: 0.2; stroke-linecap: square"/>
   <path d="M 244.762419 145.741882 
L 245.762419 145.773318 
L 246.762419 145.810258 
L 247.762419 145.908005 
L 248.762419 145.940527 
L 249.762419 146.014151 
L 250.762419 146.052717 
L 251.762419 146.08813 
L 252.762419 146.14577 
L 253.762419 146.216156 
L 254.762419 146.26812 
L 255.762419 146.32721 
L 256.762419 146.415531 
L 257.762419 146.461675 
L 258.762419 146.504086 
L 259.762419 146.534579 
L 260.762419 146.560624 
L 261.762419 146.581824 
L 262.762419 146.636125 
L 263.762419 146.664063 
L 264.762419 146.693787 
L 265.762419 146.719181 
L 266.762419 146.730382 
L 267.762419 146.740506 
L 268.762419 146.740301 
L 269.762419 146.730792 
L 270.762419 146.719138 
L 271.762419 146.688109 
L 272.762419 146.676941 
L 273.762419 146.646823 
L 274.762419 146.587046 
L 275.762419 146.549855 
L 276.762419 146.510759 
L 277.762419 146.468319 
L 278.762419 146.435554 
L 279.762419 146.368127 
L 280.762419 146.329002 
L 281.762419 146.286327 
L 282.762419 146.215746 
L 283.762419 146.179356 
L 284.762419 146.120952 
L 285.762419 146.01 
L 286.762419 145.939341 
L 287.762419 145.826402 
L 288.762419 145.780629 
L 289.762419 145.719346 
L 290.762419 145.670846 
L 291.762419 145.590024 
L 292.762419 145.471505 
L 293.762419 145.401294 
L 294.762419 145.318032 
L 296.618831 145.28489 
" clip-path="url(#pdf9c8fc3ad)" style="fill: none; stroke: #1f77b4; stroke-opacity: 0.5; stroke-width: 0.2; stroke-linecap: square"/>
   <path d="M 244.762419 117.045746 
L 245.762419 117.077182 
L 246.762419 117.114122 
L 247.762419 117.211869 
L 248.762419 117.24439 
L 249.762419 117.318015 
L 250.762419 117.356581 
L 251.762419 117.391994 
L 252.762419 117.449634 
L 253.762419 117.52002 
L 254.762419 117.571984 
L 255.762419 117.631074 
L 256.762419 117.719395 
L 257.762419 117.765539 
L 258.762419 117.80795 
L 259.762419 117.838443 
L 260.762419 117.864488 
L 261.762419 117.885688 
L 262.762419 117.939989 
L 263.762419 117.967927 
L 264.762419 117.997651 
L 265.762419 118.023045 
L 266.762419 118.034246 
L 267.762419 118.04437 
L 268.762419 118.044165 
L 269.762419 118.034656 
L 270.762419 118.023002 
L 271.762419 117.991973 
L 272.762419 117.980805 
L 273.762419 117.950687 
L 274.762419 117.89091 
L 275.762419 117.853719 
L 276.762419 117.814623 
L 277.762419 117.772183 
L 278.762419 117.739418 
L 279.762419 117.671991 
L 280.762419 117.632866 
L 281.762419 117.590191 
L 282.762419 117.51961 
L 283.762419 117.48322 
L 284.762419 117.424816 
L 285.762419 117.313864 
L 286.762419 117.243205 
L 287.762419 117.130266 
L 288.762419 117.084493 
L 289.762419 117.02321 
L 290.762419 116.97471 
L 291.762419 116.893887 
L 292.762419 116.775369 
L 293.762419 116.705158 
L 294.762419 116.621895 
L 296.618831 116.588754 
" clip-path="url(#pdf9c8fc3ad)" style="fill: none; stroke: #1f77b4; stroke-opacity: 0.5; stroke-width: 0.2; stroke-linecap: square"/>
   <path d="M 244.762419 87.527638 
L 245.762419 87.559074 
L 246.762419 87.596014 
L 247.762419 87.693761 
L 248.762419 87.726283 
L 249.762419 87.799907 
L 250.762419 87.838473 
L 251.762419 87.873886 
L 252.762419 87.931526 
L 253.762419 88.001912 
L 254.762419 88.053876 
L 255.762419 88.112966 
L 256.762419 88.201287 
L 257.762419 88.247431 
L 258.762419 88.289842 
L 259.762419 88.320335 
L 260.762419 88.34638 
L 261.762419 88.36758 
L 262.762419 88.421881 
L 263.762419 88.449819 
L 264.762419 88.479543 
L 265.762419 88.504937 
L 266.762419 88.516138 
L 267.762419 88.526262 
L 268.762419 88.526057 
L 269.762419 88.516548 
L 270.762419 88.504894 
L 271.762419 88.473865 
L 272.762419 88.462697 
L 273.762419 88.432579 
L 274.762419 88.372802 
L 275.762419 88.335611 
L 276.762419 88.296515 
L 277.762419 88.254075 
L 278.762419 88.22131 
L 279.762419 88.153884 
L 280.762419 88.114758 
L 281.762419 88.072083 
L 282.762419 88.001503 
L 283.762419 87.965112 
L 284.762419 87.906708 
L 285.762419 87.795756 
L 286.762419 87.725098 
L 287.762419 87.612158 
L 288.762419 87.566385 
L 289.762419 87.505102 
L 290.762419 87.456602 
L 291.762419 87.37578 
L 292.762419 87.257261 
L 293.762419 87.18705 
L 294.762419 87.103788 
L 296.618831 87.070646 
" clip-path="url(#pdf9c8fc3ad)" style="fill: none; stroke: #1f77b4; stroke-opacity: 0.5; stroke-width: 0.2; stroke-linecap: square"/>
   <path d="M 244.762419 148.850701 
L 245.762419 148.882138 
L 246.762419 148.919078 
L 247.762419 149.016825 
L 248.762419 149.049346 
L 249.762419 149.122971 
L 250.762419 149.161537 
L 251.762419 149.19695 
L 252.762419 149.25459 
L 253.762419 149.324976 
L 254.762419 149.37694 
L 255.762419 149.43603 
L 256.762419 149.524351 
L 257.762419 149.570495 
L 258.762419 149.612906 
L 259.762419 149.643399 
L 260.762419 149.669444 
L 261.762419 149.690644 
L 262.762419 149.744945 
L 263.762419 149.772882 
L 264.762419 149.802606 
L 265.762419 149.828001 
L 266.762419 149.839202 
L 267.762419 149.849326 
L 268.762419 149.849121 
L 269.762419 149.839611 
L 270.762419 149.827958 
L 271.762419 149.796928 
L 272.762419 149.785761 
L 273.762419 149.755643 
L 274.762419 149.695866 
L 275.762419 149.658675 
L 276.762419 149.619578 
L 277.762419 149.577139 
L 278.762419 149.544374 
L 279.762419 149.476947 
L 280.762419 149.437821 
L 281.762419 149.395147 
L 282.762419 149.324566 
L 283.762419 149.288175 
L 284.762419 149.229772 
L 285.762419 149.11882 
L 286.762419 149.048161 
L 287.762419 148.935221 
L 288.762419 148.889449 
L 289.762419 148.828165 
L 290.762419 148.779666 
L 291.762419 148.698843 
L 292.762419 148.580324 
L 293.762419 148.510114 
L 294.762419 148.426851 
L 296.618831 148.39371 
" clip-path="url(#pdf9c8fc3ad)" style="fill: none; stroke: #1f77b4; stroke-opacity: 0.5; stroke-width: 0.2; stroke-linecap: square"/>
   <path d="M 244.762419 109.524805 
L 245.762419 109.556241 
L 246.762419 109.593181 
L 247.762419 109.690928 
L 248.762419 109.723449 
L 249.762419 109.797074 
L 250.762419 109.83564 
L 251.762419 109.871053 
L 252.762419 109.928693 
L 253.762419 109.999079 
L 254.762419 110.051043 
L 255.762419 110.110133 
L 256.762419 110.198454 
L 257.762419 110.244598 
L 258.762419 110.287009 
L 259.762419 110.317502 
L 260.762419 110.343547 
L 261.762419 110.364747 
L 262.762419 110.419048 
L 263.762419 110.446986 
L 264.762419 110.47671 
L 265.762419 110.502104 
L 266.762419 110.513305 
L 267.762419 110.523429 
L 268.762419 110.523224 
L 269.762419 110.513714 
L 270.762419 110.502061 
L 271.762419 110.471032 
L 272.762419 110.459864 
L 273.762419 110.429746 
L 274.762419 110.369969 
L 275.762419 110.332778 
L 276.762419 110.293682 
L 277.762419 110.251242 
L 278.762419 110.218477 
L 279.762419 110.15105 
L 280.762419 110.111924 
L 281.762419 110.06925 
L 282.762419 109.998669 
L 283.762419 109.962278 
L 284.762419 109.903875 
L 285.762419 109.792923 
L 286.762419 109.722264 
L 287.762419 109.609325 
L 288.762419 109.563552 
L 289.762419 109.502268 
L 290.762419 109.453769 
L 291.762419 109.372946 
L 292.762419 109.254428 
L 293.762419 109.184217 
L 294.762419 109.100954 
L 296.618831 109.067813 
" clip-path="url(#pdf9c8fc3ad)" style="fill: none; stroke: #1f77b4; stroke-opacity: 0.5; stroke-width: 0.2; stroke-linecap: square"/>
   <path d="M 244.762419 102.710206 
L 245.762419 102.741643 
L 246.762419 102.778583 
L 247.762419 102.876329 
L 248.762419 102.908851 
L 249.762419 102.982476 
L 250.762419 103.021041 
L 251.762419 103.056454 
L 252.762419 103.114094 
L 253.762419 103.184481 
L 254.762419 103.236445 
L 255.762419 103.295535 
L 256.762419 103.383856 
L 257.762419 103.43 
L 258.762419 103.472411 
L 259.762419 103.502903 
L 260.762419 103.528948 
L 261.762419 103.550149 
L 262.762419 103.60445 
L 263.762419 103.632387 
L 264.762419 103.662111 
L 265.762419 103.687506 
L 266.762419 103.698706 
L 267.762419 103.70883 
L 268.762419 103.708626 
L 269.762419 103.699116 
L 270.762419 103.687463 
L 271.762419 103.656433 
L 272.762419 103.645265 
L 273.762419 103.615148 
L 274.762419 103.555371 
L 275.762419 103.518179 
L 276.762419 103.479083 
L 277.762419 103.436644 
L 278.762419 103.403879 
L 279.762419 103.336452 
L 280.762419 103.297326 
L 281.762419 103.254652 
L 282.762419 103.184071 
L 283.762419 103.14768 
L 284.762419 103.089277 
L 285.762419 102.978324 
L 286.762419 102.907666 
L 287.762419 102.794726 
L 288.762419 102.748953 
L 289.762419 102.68767 
L 290.762419 102.639171 
L 291.762419 102.558348 
L 292.762419 102.439829 
L 293.762419 102.369619 
L 294.762419 102.286356 
L 296.618831 102.253214 
" clip-path="url(#pdf9c8fc3ad)" style="fill: none; stroke: #1f77b4; stroke-opacity: 0.5; stroke-width: 0.2; stroke-linecap: square"/>
   <path d="M 244.762419 106.083359 
L 245.762419 106.114796 
L 246.762419 106.151736 
L 247.762419 106.249482 
L 248.762419 106.282004 
L 249.762419 106.355629 
L 250.762419 106.394194 
L 251.762419 106.429607 
L 252.762419 106.487247 
L 253.762419 106.557634 
L 254.762419 106.609598 
L 255.762419 106.668688 
L 256.762419 106.757009 
L 257.762419 106.803153 
L 258.762419 106.845564 
L 259.762419 106.876056 
L 260.762419 106.902101 
L 261.762419 106.923302 
L 262.762419 106.977603 
L 263.762419 107.00554 
L 264.762419 107.035264 
L 265.762419 107.060659 
L 266.762419 107.071859 
L 267.762419 107.081983 
L 268.762419 107.081779 
L 269.762419 107.072269 
L 270.762419 107.060616 
L 271.762419 107.029586 
L 272.762419 107.018418 
L 273.762419 106.988301 
L 274.762419 106.928524 
L 275.762419 106.891332 
L 276.762419 106.852236 
L 277.762419 106.809797 
L 278.762419 106.777032 
L 279.762419 106.709605 
L 280.762419 106.670479 
L 281.762419 106.627805 
L 282.762419 106.557224 
L 283.762419 106.520833 
L 284.762419 106.46243 
L 285.762419 106.351477 
L 286.762419 106.280819 
L 287.762419 106.167879 
L 288.762419 106.122106 
L 289.762419 106.060823 
L 290.762419 106.012324 
L 291.762419 105.931501 
L 292.762419 105.812982 
L 293.762419 105.742772 
L 294.762419 105.659509 
L 296.618831 105.626367 
" clip-path="url(#pdf9c8fc3ad)" style="fill: none; stroke: #1f77b4; stroke-opacity: 0.5; stroke-width: 0.2; stroke-linecap: square"/>
   <path d="M 244.762419 163.794251 
L 245.762419 163.825687 
L 246.762419 163.862627 
L 247.762419 163.960374 
L 248.762419 163.992896 
L 249.762419 164.06652 
L 250.762419 164.105086 
L 251.762419 164.140499 
L 252.762419 164.198139 
L 253.762419 164.268525 
L 254.762419 164.320489 
L 255.762419 164.379579 
L 256.762419 164.4679 
L 257.762419 164.514044 
L 258.762419 164.556455 
L 259.762419 164.586948 
L 260.762419 164.612993 
L 261.762419 164.634193 
L 262.762419 164.688494 
L 263.762419 164.716432 
L 264.762419 164.746156 
L 265.762419 164.77155 
L 266.762419 164.782751 
L 267.762419 164.792875 
L 268.762419 164.79267 
L 269.762419 164.783161 
L 270.762419 164.771507 
L 271.762419 164.740478 
L 272.762419 164.72931 
L 273.762419 164.699192 
L 274.762419 164.639415 
L 275.762419 164.602224 
L 276.762419 164.563128 
L 277.762419 164.520688 
L 278.762419 164.487923 
L 279.762419 164.420497 
L 280.762419 164.381371 
L 281.762419 164.338696 
L 282.762419 164.268116 
L 283.762419 164.231725 
L 284.762419 164.173321 
L 285.762419 164.062369 
L 286.762419 163.991711 
L 287.762419 163.878771 
L 288.762419 163.832998 
L 289.762419 163.771715 
L 290.762419 163.723215 
L 291.762419 163.642393 
L 292.762419 163.523874 
L 293.762419 163.453663 
L 294.762419 163.370401 
L 296.618831 163.337259 
" clip-path="url(#pdf9c8fc3ad)" style="fill: none; stroke: #1f77b4; stroke-opacity: 0.5; stroke-width: 0.2; stroke-linecap: square"/>
   <path d="M 244.762419 140.36228 
L 245.762419 140.393716 
L 246.762419 140.430656 
L 247.762419 140.528403 
L 248.762419 140.560924 
L 249.762419 140.634549 
L 250.762419 140.673115 
L 251.762419 140.708528 
L 252.762419 140.766168 
L 253.762419 140.836554 
L 254.762419 140.888518 
L 255.762419 140.947608 
L 256.762419 141.035929 
L 257.762419 141.082073 
L 258.762419 141.124484 
L 259.762419 141.154977 
L 260.762419 141.181022 
L 261.762419 141.202222 
L 262.762419 141.256523 
L 263.762419 141.284461 
L 264.762419 141.314185 
L 265.762419 141.339579 
L 266.762419 141.35078 
L 267.762419 141.360904 
L 268.762419 141.360699 
L 269.762419 141.35119 
L 270.762419 141.339536 
L 271.762419 141.308507 
L 272.762419 141.297339 
L 273.762419 141.267221 
L 274.762419 141.207444 
L 275.762419 141.170253 
L 276.762419 141.131157 
L 277.762419 141.088717 
L 278.762419 141.055952 
L 279.762419 140.988525 
L 280.762419 140.9494 
L 281.762419 140.906725 
L 282.762419 140.836144 
L 283.762419 140.799754 
L 284.762419 140.74135 
L 285.762419 140.630398 
L 286.762419 140.559739 
L 287.762419 140.4468 
L 288.762419 140.401027 
L 289.762419 140.339744 
L 290.762419 140.291244 
L 291.762419 140.210422 
L 292.762419 140.091903 
L 293.762419 140.021692 
L 294.762419 139.938429 
L 296.618831 139.905288 
" clip-path="url(#pdf9c8fc3ad)" style="fill: none; stroke: #1f77b4; stroke-opacity: 0.5; stroke-width: 0.2; stroke-linecap: square"/>
   <path d="M 296.618831 241.181909 
L 295.618831 241.150473 
L 294.618831 241.113533 
L 293.618831 241.015786 
L 292.618831 240.983265 
L 291.618831 240.90964 
L 290.618831 240.871074 
L 289.618831 240.835661 
L 288.618831 240.778021 
L 287.618831 240.707635 
L 286.618831 240.655671 
L 285.618831 240.596581 
L 284.618831 240.50826 
L 283.618831 240.462116 
L 282.618831 240.419705 
L 281.618831 240.389212 
L 280.618831 240.363167 
L 279.618831 240.341967 
L 278.618831 240.287666 
L 277.618831 240.259728 
L 276.618831 240.230004 
L 275.618831 240.20461 
L 274.618831 240.193409 
L 273.618831 240.183285 
L 272.618831 240.18349 
L 271.618831 240.193 
L 270.618831 240.204653 
L 269.618831 240.235682 
L 268.618831 240.24685 
L 267.618831 240.276968 
L 266.618831 240.336745 
L 265.618831 240.373936 
L 264.618831 240.413032 
L 263.618831 240.455472 
L 262.618831 240.488237 
L 261.618831 240.555664 
L 260.618831 240.594789 
L 259.618831 240.637464 
L 258.618831 240.708045 
L 257.618831 240.744435 
L 256.618831 240.802839 
L 255.618831 240.913791 
L 254.618831 240.98445 
L 253.618831 241.097389 
L 252.618831 241.143162 
L 251.618831 241.204446 
L 250.618831 241.252945 
L 249.618831 241.333768 
L 248.618831 241.452286 
L 247.618831 241.522497 
L 246.618831 241.60576 
L 244.762419 241.638901 
" clip-path="url(#pdf9c8fc3ad)" style="fill: none; stroke: #ff7f0e; stroke-opacity: 0.5; stroke-width: 0.2; stroke-linecap: square"/>
   <path d="M 296.618831 248.397625 
L 295.618831 248.366188 
L 294.618831 248.329248 
L 293.618831 248.231502 
L 292.618831 248.19898 
L 291.618831 248.125355 
L 290.618831 248.08679 
L 289.618831 248.051376 
L 288.618831 247.993737 
L 287.618831 247.92335 
L 286.618831 247.871386 
L 285.618831 247.812296 
L 284.618831 247.723975 
L 283.618831 247.677831 
L 282.618831 247.63542 
L 281.618831 247.604928 
L 280.618831 247.578883 
L 279.618831 247.557682 
L 278.618831 247.503381 
L 277.618831 247.475444 
L 276.618831 247.44572 
L 275.618831 247.420325 
L 274.618831 247.409125 
L 273.618831 247.399001 
L 272.618831 247.399205 
L 271.618831 247.408715 
L 270.618831 247.420368 
L 269.618831 247.451398 
L 268.618831 247.462566 
L 267.618831 247.492683 
L 266.618831 247.55246 
L 265.618831 247.589652 
L 264.618831 247.628748 
L 263.618831 247.671187 
L 262.618831 247.703952 
L 261.618831 247.771379 
L 260.618831 247.810505 
L 259.618831 247.853179 
L 258.618831 247.92376 
L 257.618831 247.960151 
L 256.618831 248.018554 
L 255.618831 248.129507 
L 254.618831 248.200165 
L 253.618831 248.313105 
L 252.618831 248.358878 
L 251.618831 248.420161 
L 250.618831 248.46866 
L 249.618831 248.549483 
L 248.618831 248.668002 
L 247.618831 248.738212 
L 246.618831 248.821475 
L 244.762419 248.854617 
" clip-path="url(#pdf9c8fc3ad)" style="fill: none; stroke: #ff7f0e; stroke-opacity: 0.5; stroke-width: 0.2; stroke-linecap: square"/>
   <path d="M 296.618831 173.917558 
L 295.618831 173.886122 
L 294.618831 173.849182 
L 293.618831 173.751435 
L 292.618831 173.718913 
L 291.618831 173.645289 
L 290.618831 173.606723 
L 289.618831 173.57131 
L 288.618831 173.51367 
L 287.618831 173.443284 
L 286.618831 173.39132 
L 285.618831 173.33223 
L 284.618831 173.243909 
L 283.618831 173.197765 
L 282.618831 173.155354 
L 281.618831 173.124861 
L 280.618831 173.098816 
L 279.618831 173.077616 
L 278.618831 173.023315 
L 277.618831 172.995377 
L 276.618831 172.965653 
L 275.618831 172.940259 
L 274.618831 172.929058 
L 273.618831 172.918934 
L 272.618831 172.919139 
L 271.618831 172.928648 
L 270.618831 172.940302 
L 269.618831 172.971331 
L 268.618831 172.982499 
L 267.618831 173.012617 
L 266.618831 173.072394 
L 265.618831 173.109585 
L 264.618831 173.148681 
L 263.618831 173.191121 
L 262.618831 173.223886 
L 261.618831 173.291312 
L 260.618831 173.330438 
L 259.618831 173.373113 
L 258.618831 173.443694 
L 257.618831 173.480084 
L 256.618831 173.538488 
L 255.618831 173.64944 
L 254.618831 173.720098 
L 253.618831 173.833038 
L 252.618831 173.878811 
L 251.618831 173.940094 
L 250.618831 173.988594 
L 249.618831 174.069416 
L 248.618831 174.187935 
L 247.618831 174.258146 
L 246.618831 174.341408 
L 244.762419 174.37455 
" clip-path="url(#pdf9c8fc3ad)" style="fill: none; stroke: #ff7f0e; stroke-opacity: 0.5; stroke-width: 0.2; stroke-linecap: square"/>
   <path d="M 296.618831 204.50771 
L 295.618831 204.476273 
L 294.618831 204.439333 
L 293.618831 204.341587 
L 292.618831 204.309065 
L 291.618831 204.23544 
L 290.618831 204.196875 
L 289.618831 204.161462 
L 288.618831 204.103822 
L 287.618831 204.033435 
L 286.618831 203.981471 
L 285.618831 203.922381 
L 284.618831 203.83406 
L 283.618831 203.787916 
L 282.618831 203.745505 
L 281.618831 203.715013 
L 280.618831 203.688968 
L 279.618831 203.667768 
L 278.618831 203.613466 
L 277.618831 203.585529 
L 276.618831 203.555805 
L 275.618831 203.53041 
L 274.618831 203.51921 
L 273.618831 203.509086 
L 272.618831 203.50929 
L 271.618831 203.5188 
L 270.618831 203.530454 
L 269.618831 203.561483 
L 268.618831 203.572651 
L 267.618831 203.602768 
L 266.618831 203.662545 
L 265.618831 203.699737 
L 264.618831 203.738833 
L 263.618831 203.781272 
L 262.618831 203.814038 
L 261.618831 203.881464 
L 260.618831 203.92059 
L 259.618831 203.963264 
L 258.618831 204.033845 
L 257.618831 204.070236 
L 256.618831 204.128639 
L 255.618831 204.239592 
L 254.618831 204.31025 
L 253.618831 204.42319 
L 252.618831 204.468963 
L 251.618831 204.530246 
L 250.618831 204.578745 
L 249.618831 204.659568 
L 248.618831 204.778087 
L 247.618831 204.848298 
L 246.618831 204.93156 
L 244.762419 204.964702 
" clip-path="url(#pdf9c8fc3ad)" style="fill: none; stroke: #ff7f0e; stroke-opacity: 0.5; stroke-width: 0.2; stroke-linecap: square"/>
   <path d="M 296.618831 249.638427 
L 295.618831 249.606991 
L 294.618831 249.57005 
L 293.618831 249.472304 
L 292.618831 249.439782 
L 291.618831 249.366158 
L 290.618831 249.327592 
L 289.618831 249.292179 
L 288.618831 249.234539 
L 287.618831 249.164153 
L 286.618831 249.112189 
L 285.618831 249.053099 
L 284.618831 248.964778 
L 283.618831 248.918634 
L 282.618831 248.876223 
L 281.618831 248.84573 
L 280.618831 248.819685 
L 279.618831 248.798485 
L 278.618831 248.744184 
L 277.618831 248.716246 
L 276.618831 248.686522 
L 275.618831 248.661127 
L 274.618831 248.649927 
L 273.618831 248.639803 
L 272.618831 248.640007 
L 271.618831 248.649517 
L 270.618831 248.661171 
L 269.618831 248.6922 
L 268.618831 248.703368 
L 267.618831 248.733486 
L 266.618831 248.793263 
L 265.618831 248.830454 
L 264.618831 248.86955 
L 263.618831 248.91199 
L 262.618831 248.944755 
L 261.618831 249.012181 
L 260.618831 249.051307 
L 259.618831 249.093982 
L 258.618831 249.164562 
L 257.618831 249.200953 
L 256.618831 249.259356 
L 255.618831 249.370309 
L 254.618831 249.440967 
L 253.618831 249.553907 
L 252.618831 249.59968 
L 251.618831 249.660963 
L 250.618831 249.709463 
L 249.618831 249.790285 
L 248.618831 249.908804 
L 247.618831 249.979015 
L 246.618831 250.062277 
L 244.762419 250.095419 
" clip-path="url(#pdf9c8fc3ad)" style="fill: none; stroke: #ff7f0e; stroke-opacity: 0.5; stroke-width: 0.2; stroke-linecap: square"/>
   <path d="M 296.618831 256.992893 
L 295.618831 256.961457 
L 294.618831 256.924517 
L 293.618831 256.82677 
L 292.618831 256.794248 
L 291.618831 256.720624 
L 290.618831 256.682058 
L 289.618831 256.646645 
L 288.618831 256.589005 
L 287.618831 256.518619 
L 286.618831 256.466655 
L 285.618831 256.407565 
L 284.618831 256.319244 
L 283.618831 256.2731 
L 282.618831 256.230689 
L 281.618831 256.200196 
L 280.618831 256.174151 
L 279.618831 256.152951 
L 278.618831 256.09865 
L 277.618831 256.070712 
L 276.618831 256.040988 
L 275.618831 256.015594 
L 274.618831 256.004393 
L 273.618831 255.994269 
L 272.618831 255.994474 
L 271.618831 256.003983 
L 270.618831 256.015637 
L 269.618831 256.046666 
L 268.618831 256.057834 
L 267.618831 256.087952 
L 266.618831 256.147729 
L 265.618831 256.18492 
L 264.618831 256.224016 
L 263.618831 256.266456 
L 262.618831 256.299221 
L 261.618831 256.366648 
L 260.618831 256.405773 
L 259.618831 256.448448 
L 258.618831 256.519029 
L 257.618831 256.555419 
L 256.618831 256.613823 
L 255.618831 256.724775 
L 254.618831 256.795434 
L 253.618831 256.908373 
L 252.618831 256.954146 
L 251.618831 257.015429 
L 250.618831 257.063929 
L 249.618831 257.144751 
L 248.618831 257.26327 
L 247.618831 257.333481 
L 246.618831 257.416743 
L 244.762419 257.449885 
" clip-path="url(#pdf9c8fc3ad)" style="fill: none; stroke: #ff7f0e; stroke-opacity: 0.5; stroke-width: 0.2; stroke-linecap: square"/>
   <path d="M 296.618831 173.484768 
L 295.618831 173.453332 
L 294.618831 173.416392 
L 293.618831 173.318645 
L 292.618831 173.286124 
L 291.618831 173.212499 
L 290.618831 173.173933 
L 289.618831 173.13852 
L 288.618831 173.08088 
L 287.618831 173.010494 
L 286.618831 172.95853 
L 285.618831 172.89944 
L 284.618831 172.811119 
L 283.618831 172.764975 
L 282.618831 172.722564 
L 281.618831 172.692071 
L 280.618831 172.666026 
L 279.618831 172.644826 
L 278.618831 172.590525 
L 277.618831 172.562587 
L 276.618831 172.532863 
L 275.618831 172.507469 
L 274.618831 172.496268 
L 273.618831 172.486144 
L 272.618831 172.486349 
L 271.618831 172.495859 
L 270.618831 172.507512 
L 269.618831 172.538541 
L 268.618831 172.549709 
L 267.618831 172.579827 
L 266.618831 172.639604 
L 265.618831 172.676795 
L 264.618831 172.715891 
L 263.618831 172.758331 
L 262.618831 172.791096 
L 261.618831 172.858523 
L 260.618831 172.897648 
L 259.618831 172.940323 
L 258.618831 173.010904 
L 257.618831 173.047294 
L 256.618831 173.105698 
L 255.618831 173.21665 
L 254.618831 173.287309 
L 253.618831 173.400248 
L 252.618831 173.446021 
L 251.618831 173.507305 
L 250.618831 173.555804 
L 249.618831 173.636627 
L 248.618831 173.755145 
L 247.618831 173.825356 
L 246.618831 173.908619 
L 244.762419 173.94176 
" clip-path="url(#pdf9c8fc3ad)" style="fill: none; stroke: #ff7f0e; stroke-opacity: 0.5; stroke-width: 0.2; stroke-linecap: square"/>
   <path d="M 296.618831 188.089023 
L 295.618831 188.057586 
L 294.618831 188.020646 
L 293.618831 187.9229 
L 292.618831 187.890378 
L 291.618831 187.816753 
L 290.618831 187.778188 
L 289.618831 187.742775 
L 288.618831 187.685135 
L 287.618831 187.614748 
L 286.618831 187.562784 
L 285.618831 187.503694 
L 284.618831 187.415373 
L 283.618831 187.369229 
L 282.618831 187.326818 
L 281.618831 187.296326 
L 280.618831 187.270281 
L 279.618831 187.24908 
L 278.618831 187.194779 
L 277.618831 187.166842 
L 276.618831 187.137118 
L 275.618831 187.111723 
L 274.618831 187.100523 
L 273.618831 187.090399 
L 272.618831 187.090603 
L 271.618831 187.100113 
L 270.618831 187.111766 
L 269.618831 187.142796 
L 268.618831 187.153964 
L 267.618831 187.184081 
L 266.618831 187.243858 
L 265.618831 187.28105 
L 264.618831 187.320146 
L 263.618831 187.362585 
L 262.618831 187.395351 
L 261.618831 187.462777 
L 260.618831 187.501903 
L 259.618831 187.544577 
L 258.618831 187.615158 
L 257.618831 187.651549 
L 256.618831 187.709952 
L 255.618831 187.820905 
L 254.618831 187.891563 
L 253.618831 188.004503 
L 252.618831 188.050276 
L 251.618831 188.111559 
L 250.618831 188.160058 
L 249.618831 188.240881 
L 248.618831 188.3594 
L 247.618831 188.42961 
L 246.618831 188.512873 
L 244.762419 188.546015 
" clip-path="url(#pdf9c8fc3ad)" style="fill: none; stroke: #ff7f0e; stroke-opacity: 0.5; stroke-width: 0.2; stroke-linecap: square"/>
   <path d="M 296.618831 214.344366 
L 295.618831 214.31293 
L 294.618831 214.275989 
L 293.618831 214.178243 
L 292.618831 214.145721 
L 291.618831 214.072096 
L 290.618831 214.033531 
L 289.618831 213.998118 
L 288.618831 213.940478 
L 287.618831 213.870091 
L 286.618831 213.818127 
L 285.618831 213.759037 
L 284.618831 213.670717 
L 283.618831 213.624572 
L 282.618831 213.582161 
L 281.618831 213.551669 
L 280.618831 213.525624 
L 279.618831 213.504424 
L 278.618831 213.450122 
L 277.618831 213.422185 
L 276.618831 213.392461 
L 275.618831 213.367066 
L 274.618831 213.355866 
L 273.618831 213.345742 
L 272.618831 213.345946 
L 271.618831 213.355456 
L 270.618831 213.36711 
L 269.618831 213.398139 
L 268.618831 213.409307 
L 267.618831 213.439424 
L 266.618831 213.499201 
L 265.618831 213.536393 
L 264.618831 213.575489 
L 263.618831 213.617928 
L 262.618831 213.650694 
L 261.618831 213.71812 
L 260.618831 213.757246 
L 259.618831 213.79992 
L 258.618831 213.870501 
L 257.618831 213.906892 
L 256.618831 213.965295 
L 255.618831 214.076248 
L 254.618831 214.146906 
L 253.618831 214.259846 
L 252.618831 214.305619 
L 251.618831 214.366902 
L 250.618831 214.415401 
L 249.618831 214.496224 
L 248.618831 214.614743 
L 247.618831 214.684954 
L 246.618831 214.768216 
L 244.762419 214.801358 
" clip-path="url(#pdf9c8fc3ad)" style="fill: none; stroke: #ff7f0e; stroke-opacity: 0.5; stroke-width: 0.2; stroke-linecap: square"/>
   <path d="M 296.618831 223.866501 
L 295.618831 223.835065 
L 294.618831 223.798125 
L 293.618831 223.700378 
L 292.618831 223.667856 
L 291.618831 223.594232 
L 290.618831 223.555666 
L 289.618831 223.520253 
L 288.618831 223.462613 
L 287.618831 223.392227 
L 286.618831 223.340263 
L 285.618831 223.281173 
L 284.618831 223.192852 
L 283.618831 223.146708 
L 282.618831 223.104297 
L 281.618831 223.073804 
L 280.618831 223.047759 
L 279.618831 223.026559 
L 278.618831 222.972258 
L 277.618831 222.94432 
L 276.618831 222.914596 
L 275.618831 222.889202 
L 274.618831 222.878001 
L 273.618831 222.867877 
L 272.618831 222.868082 
L 271.618831 222.877591 
L 270.618831 222.889245 
L 269.618831 222.920274 
L 268.618831 222.931442 
L 267.618831 222.96156 
L 266.618831 223.021337 
L 265.618831 223.058528 
L 264.618831 223.097624 
L 263.618831 223.140064 
L 262.618831 223.172829 
L 261.618831 223.240255 
L 260.618831 223.279381 
L 259.618831 223.322056 
L 258.618831 223.392637 
L 257.618831 223.429027 
L 256.618831 223.487431 
L 255.618831 223.598383 
L 254.618831 223.669041 
L 253.618831 223.781981 
L 252.618831 223.827754 
L 251.618831 223.889037 
L 250.618831 223.937537 
L 249.618831 224.018359 
L 248.618831 224.136878 
L 247.618831 224.207089 
L 246.618831 224.290351 
L 244.762419 224.323493 
" clip-path="url(#pdf9c8fc3ad)" style="fill: none; stroke: #ff7f0e; stroke-opacity: 0.5; stroke-width: 0.2; stroke-linecap: square"/>
   <path d="M 244.762419 207.957004 
L 245.762419 207.988441 
L 246.762419 208.025381 
L 247.762419 208.123128 
L 248.762419 208.155649 
L 249.762419 208.229274 
L 250.762419 208.26784 
L 251.762419 208.303253 
L 252.762419 208.360893 
L 253.762419 208.431279 
L 254.762419 208.483243 
L 255.762419 208.542333 
L 256.762419 208.630654 
L 257.762419 208.676798 
L 258.762419 208.719209 
L 259.762419 208.749702 
L 260.762419 208.775747 
L 261.762419 208.796947 
L 262.762419 208.851248 
L 263.762419 208.879185 
L 264.762419 208.908909 
L 265.762419 208.934304 
L 266.762419 208.945505 
L 267.762419 208.955628 
L 268.762419 208.955424 
L 269.762419 208.945914 
L 270.762419 208.934261 
L 271.762419 208.903231 
L 272.762419 208.892064 
L 273.762419 208.861946 
L 274.762419 208.802169 
L 275.762419 208.764978 
L 276.762419 208.725881 
L 277.762419 208.683442 
L 278.762419 208.650677 
L 279.762419 208.58325 
L 280.762419 208.544124 
L 281.762419 208.50145 
L 282.762419 208.430869 
L 283.762419 208.394478 
L 284.762419 208.336075 
L 285.762419 208.225123 
L 286.762419 208.154464 
L 287.762419 208.041524 
L 288.762419 207.995752 
L 289.762419 207.934468 
L 290.762419 207.885969 
L 291.762419 207.805146 
L 292.762419 207.686627 
L 293.762419 207.616417 
L 294.762419 207.533154 
L 296.618831 207.500012 
" clip-path="url(#pdf9c8fc3ad)" style="fill: none; stroke: #1f77b4; stroke-opacity: 0.5; stroke-width: 0.2; stroke-linecap: square"/>
   <path d="M 244.762419 200.8872 
L 245.762419 200.918636 
L 246.762419 200.955577 
L 247.762419 201.053323 
L 248.762419 201.085845 
L 249.762419 201.159469 
L 250.762419 201.198035 
L 251.762419 201.233448 
L 252.762419 201.291088 
L 253.762419 201.361474 
L 254.762419 201.413439 
L 255.762419 201.472528 
L 256.762419 201.560849 
L 257.762419 201.606994 
L 258.762419 201.649405 
L 259.762419 201.679897 
L 260.762419 201.705942 
L 261.762419 201.727142 
L 262.762419 201.781443 
L 263.762419 201.809381 
L 264.762419 201.839105 
L 265.762419 201.8645 
L 266.762419 201.8757 
L 267.762419 201.885824 
L 268.762419 201.88562 
L 269.762419 201.87611 
L 270.762419 201.864456 
L 271.762419 201.833427 
L 272.762419 201.822259 
L 273.762419 201.792142 
L 274.762419 201.732365 
L 275.762419 201.695173 
L 276.762419 201.656077 
L 277.762419 201.613637 
L 278.762419 201.580872 
L 279.762419 201.513446 
L 280.762419 201.47432 
L 281.762419 201.431645 
L 282.762419 201.361065 
L 283.762419 201.324674 
L 284.762419 201.266271 
L 285.762419 201.155318 
L 286.762419 201.08466 
L 287.762419 200.97172 
L 288.762419 200.925947 
L 289.762419 200.864664 
L 290.762419 200.816165 
L 291.762419 200.735342 
L 292.762419 200.616823 
L 293.762419 200.546612 
L 294.762419 200.46335 
L 296.618831 200.430208 
" clip-path="url(#pdf9c8fc3ad)" style="fill: none; stroke: #1f77b4; stroke-opacity: 0.5; stroke-width: 0.2; stroke-linecap: square"/>
   <path d="M 244.762419 175.886155 
L 245.762419 175.917591 
L 246.762419 175.954531 
L 247.762419 176.052278 
L 248.762419 176.0848 
L 249.762419 176.158424 
L 250.762419 176.19699 
L 251.762419 176.232403 
L 252.762419 176.290043 
L 253.762419 176.360429 
L 254.762419 176.412393 
L 255.762419 176.471483 
L 256.762419 176.559804 
L 257.762419 176.605948 
L 258.762419 176.648359 
L 259.762419 176.678852 
L 260.762419 176.704897 
L 261.762419 176.726097 
L 262.762419 176.780398 
L 263.762419 176.808336 
L 264.762419 176.83806 
L 265.762419 176.863454 
L 266.762419 176.874655 
L 267.762419 176.884779 
L 268.762419 176.884574 
L 269.762419 176.875065 
L 270.762419 176.863411 
L 271.762419 176.832382 
L 272.762419 176.821214 
L 273.762419 176.791096 
L 274.762419 176.731319 
L 275.762419 176.694128 
L 276.762419 176.655032 
L 277.762419 176.612592 
L 278.762419 176.579827 
L 279.762419 176.512401 
L 280.762419 176.473275 
L 281.762419 176.4306 
L 282.762419 176.360019 
L 283.762419 176.323629 
L 284.762419 176.265225 
L 285.762419 176.154273 
L 286.762419 176.083615 
L 287.762419 175.970675 
L 288.762419 175.924902 
L 289.762419 175.863619 
L 290.762419 175.815119 
L 291.762419 175.734297 
L 292.762419 175.615778 
L 293.762419 175.545567 
L 294.762419 175.462305 
L 296.618831 175.429163 
" clip-path="url(#pdf9c8fc3ad)" style="fill: none; stroke: #1f77b4; stroke-opacity: 0.5; stroke-width: 0.2; stroke-linecap: square"/>
   <path d="M 244.762419 240.304545 
L 245.762419 240.335981 
L 246.762419 240.372921 
L 247.762419 240.470668 
L 248.762419 240.50319 
L 249.762419 240.576814 
L 250.762419 240.61538 
L 251.762419 240.650793 
L 252.762419 240.708433 
L 253.762419 240.778819 
L 254.762419 240.830783 
L 255.762419 240.889873 
L 256.762419 240.978194 
L 257.762419 241.024338 
L 258.762419 241.066749 
L 259.762419 241.097242 
L 260.762419 241.123287 
L 261.762419 241.144487 
L 262.762419 241.198788 
L 263.762419 241.226726 
L 264.762419 241.25645 
L 265.762419 241.281844 
L 266.762419 241.293045 
L 267.762419 241.303169 
L 268.762419 241.302964 
L 269.762419 241.293455 
L 270.762419 241.281801 
L 271.762419 241.250772 
L 272.762419 241.239604 
L 273.762419 241.209486 
L 274.762419 241.149709 
L 275.762419 241.112518 
L 276.762419 241.073422 
L 277.762419 241.030982 
L 278.762419 240.998217 
L 279.762419 240.930791 
L 280.762419 240.891665 
L 281.762419 240.84899 
L 282.762419 240.778409 
L 283.762419 240.742019 
L 284.762419 240.683615 
L 285.762419 240.572663 
L 286.762419 240.502005 
L 287.762419 240.389065 
L 288.762419 240.343292 
L 289.762419 240.282009 
L 290.762419 240.233509 
L 291.762419 240.152687 
L 292.762419 240.034168 
L 293.762419 239.963957 
L 294.762419 239.880695 
L 296.618831 239.847553 
" clip-path="url(#pdf9c8fc3ad)" style="fill: none; stroke: #1f77b4; stroke-opacity: 0.5; stroke-width: 0.2; stroke-linecap: square"/>
   <path d="M 244.762419 250.354046 
L 245.762419 250.385482 
L 246.762419 250.422422 
L 247.762419 250.520169 
L 248.762419 250.55269 
L 249.762419 250.626315 
L 250.762419 250.664881 
L 251.762419 250.700294 
L 252.762419 250.757934 
L 253.762419 250.82832 
L 254.762419 250.880284 
L 255.762419 250.939374 
L 256.762419 251.027695 
L 257.762419 251.073839 
L 258.762419 251.11625 
L 259.762419 251.146743 
L 260.762419 251.172788 
L 261.762419 251.193988 
L 262.762419 251.248289 
L 263.762419 251.276227 
L 264.762419 251.305951 
L 265.762419 251.331345 
L 266.762419 251.342546 
L 267.762419 251.35267 
L 268.762419 251.352465 
L 269.762419 251.342955 
L 270.762419 251.331302 
L 271.762419 251.300273 
L 272.762419 251.289105 
L 273.762419 251.258987 
L 274.762419 251.19921 
L 275.762419 251.162019 
L 276.762419 251.122923 
L 277.762419 251.080483 
L 278.762419 251.047718 
L 279.762419 250.980291 
L 280.762419 250.941165 
L 281.762419 250.898491 
L 282.762419 250.82791 
L 283.762419 250.791519 
L 284.762419 250.733116 
L 285.762419 250.622164 
L 286.762419 250.551505 
L 287.762419 250.438566 
L 288.762419 250.392793 
L 289.762419 250.331509 
L 290.762419 250.28301 
L 291.762419 250.202187 
L 292.762419 250.083669 
L 293.762419 250.013458 
L 294.762419 249.930195 
L 296.618831 249.897054 
" clip-path="url(#pdf9c8fc3ad)" style="fill: none; stroke: #1f77b4; stroke-opacity: 0.5; stroke-width: 0.2; stroke-linecap: square"/>
   <path d="M 244.762419 166.396141 
L 245.762419 166.427577 
L 246.762419 166.464517 
L 247.762419 166.562264 
L 248.762419 166.594785 
L 249.762419 166.66841 
L 250.762419 166.706976 
L 251.762419 166.742389 
L 252.762419 166.800029 
L 253.762419 166.870415 
L 254.762419 166.922379 
L 255.762419 166.981469 
L 256.762419 167.06979 
L 257.762419 167.115934 
L 258.762419 167.158345 
L 259.762419 167.188838 
L 260.762419 167.214883 
L 261.762419 167.236083 
L 262.762419 167.290384 
L 263.762419 167.318322 
L 264.762419 167.348046 
L 265.762419 167.37344 
L 266.762419 167.384641 
L 267.762419 167.394765 
L 268.762419 167.39456 
L 269.762419 167.38505 
L 270.762419 167.373397 
L 271.762419 167.342368 
L 272.762419 167.3312 
L 273.762419 167.301082 
L 274.762419 167.241305 
L 275.762419 167.204114 
L 276.762419 167.165018 
L 277.762419 167.122578 
L 278.762419 167.089813 
L 279.762419 167.022386 
L 280.762419 166.98326 
L 281.762419 166.940586 
L 282.762419 166.870005 
L 283.762419 166.833614 
L 284.762419 166.775211 
L 285.762419 166.664259 
L 286.762419 166.5936 
L 287.762419 166.480661 
L 288.762419 166.434888 
L 289.762419 166.373604 
L 290.762419 166.325105 
L 291.762419 166.244282 
L 292.762419 166.125764 
L 293.762419 166.055553 
L 294.762419 165.97229 
L 296.618831 165.939149 
" clip-path="url(#pdf9c8fc3ad)" style="fill: none; stroke: #1f77b4; stroke-opacity: 0.5; stroke-width: 0.2; stroke-linecap: square"/>
   <path d="M 244.762419 173.627664 
L 245.762419 173.6591 
L 246.762419 173.69604 
L 247.762419 173.793787 
L 248.762419 173.826309 
L 249.762419 173.899933 
L 250.762419 173.938499 
L 251.762419 173.973912 
L 252.762419 174.031552 
L 253.762419 174.101938 
L 254.762419 174.153902 
L 255.762419 174.212992 
L 256.762419 174.301313 
L 257.762419 174.347457 
L 258.762419 174.389868 
L 259.762419 174.420361 
L 260.762419 174.446406 
L 261.762419 174.467606 
L 262.762419 174.521907 
L 263.762419 174.549845 
L 264.762419 174.579569 
L 265.762419 174.604963 
L 266.762419 174.616164 
L 267.762419 174.626288 
L 268.762419 174.626083 
L 269.762419 174.616574 
L 270.762419 174.60492 
L 271.762419 174.573891 
L 272.762419 174.562723 
L 273.762419 174.532605 
L 274.762419 174.472828 
L 275.762419 174.435637 
L 276.762419 174.396541 
L 277.762419 174.354101 
L 278.762419 174.321336 
L 279.762419 174.25391 
L 280.762419 174.214784 
L 281.762419 174.172109 
L 282.762419 174.101529 
L 283.762419 174.065138 
L 284.762419 174.006734 
L 285.762419 173.895782 
L 286.762419 173.825124 
L 287.762419 173.712184 
L 288.762419 173.666411 
L 289.762419 173.605128 
L 290.762419 173.556628 
L 291.762419 173.475806 
L 292.762419 173.357287 
L 293.762419 173.287076 
L 294.762419 173.203814 
L 296.618831 173.170672 
" clip-path="url(#pdf9c8fc3ad)" style="fill: none; stroke: #1f77b4; stroke-opacity: 0.5; stroke-width: 0.2; stroke-linecap: square"/>
   <path d="M 244.762419 208.529262 
L 245.762419 208.560698 
L 246.762419 208.597638 
L 247.762419 208.695385 
L 248.762419 208.727907 
L 249.762419 208.801531 
L 250.762419 208.840097 
L 251.762419 208.87551 
L 252.762419 208.93315 
L 253.762419 209.003536 
L 254.762419 209.0555 
L 255.762419 209.11459 
L 256.762419 209.202911 
L 257.762419 209.249055 
L 258.762419 209.291466 
L 259.762419 209.321959 
L 260.762419 209.348004 
L 261.762419 209.369204 
L 262.762419 209.423505 
L 263.762419 209.451443 
L 264.762419 209.481167 
L 265.762419 209.506561 
L 266.762419 209.517762 
L 267.762419 209.527886 
L 268.762419 209.527682 
L 269.762419 209.518172 
L 270.762419 209.506518 
L 271.762419 209.475489 
L 272.762419 209.464321 
L 273.762419 209.434203 
L 274.762419 209.374426 
L 275.762419 209.337235 
L 276.762419 209.298139 
L 277.762419 209.255699 
L 278.762419 209.222934 
L 279.762419 209.155508 
L 280.762419 209.116382 
L 281.762419 209.073707 
L 282.762419 209.003127 
L 283.762419 208.966736 
L 284.762419 208.908333 
L 285.762419 208.79738 
L 286.762419 208.726722 
L 287.762419 208.613782 
L 288.762419 208.568009 
L 289.762419 208.506726 
L 290.762419 208.458226 
L 291.762419 208.377404 
L 292.762419 208.258885 
L 293.762419 208.188674 
L 294.762419 208.105412 
L 296.618831 208.07227 
" clip-path="url(#pdf9c8fc3ad)" style="fill: none; stroke: #1f77b4; stroke-opacity: 0.5; stroke-width: 0.2; stroke-linecap: square"/>
   <path d="M 244.762419 230.187257 
L 245.762419 230.218693 
L 246.762419 230.255634 
L 247.762419 230.35338 
L 248.762419 230.385902 
L 249.762419 230.459527 
L 250.762419 230.498092 
L 251.762419 230.533505 
L 252.762419 230.591145 
L 253.762419 230.661531 
L 254.762419 230.713496 
L 255.762419 230.772585 
L 256.762419 230.860906 
L 257.762419 230.907051 
L 258.762419 230.949462 
L 259.762419 230.979954 
L 260.762419 231.005999 
L 261.762419 231.027199 
L 262.762419 231.0815 
L 263.762419 231.109438 
L 264.762419 231.139162 
L 265.762419 231.164557 
L 266.762419 231.175757 
L 267.762419 231.185881 
L 268.762419 231.185677 
L 269.762419 231.176167 
L 270.762419 231.164513 
L 271.762419 231.133484 
L 272.762419 231.122316 
L 273.762419 231.092199 
L 274.762419 231.032422 
L 275.762419 230.99523 
L 276.762419 230.956134 
L 277.762419 230.913694 
L 278.762419 230.880929 
L 279.762419 230.813503 
L 280.762419 230.774377 
L 281.762419 230.731702 
L 282.762419 230.661122 
L 283.762419 230.624731 
L 284.762419 230.566328 
L 285.762419 230.455375 
L 286.762419 230.384717 
L 287.762419 230.271777 
L 288.762419 230.226004 
L 289.762419 230.164721 
L 290.762419 230.116222 
L 291.762419 230.035399 
L 292.762419 229.91688 
L 293.762419 229.846669 
L 294.762419 229.763407 
L 296.618831 229.730265 
" clip-path="url(#pdf9c8fc3ad)" style="fill: none; stroke: #1f77b4; stroke-opacity: 0.5; stroke-width: 0.2; stroke-linecap: square"/>
   <path d="M 244.762419 180.267174 
L 245.762419 180.298611 
L 246.762419 180.335551 
L 247.762419 180.433297 
L 248.762419 180.465819 
L 249.762419 180.539444 
L 250.762419 180.578009 
L 251.762419 180.613423 
L 252.762419 180.671062 
L 253.762419 180.741449 
L 254.762419 180.793413 
L 255.762419 180.852503 
L 256.762419 180.940824 
L 257.762419 180.986968 
L 258.762419 181.029379 
L 259.762419 181.059871 
L 260.762419 181.085916 
L 261.762419 181.107117 
L 262.762419 181.161418 
L 263.762419 181.189355 
L 264.762419 181.219079 
L 265.762419 181.244474 
L 266.762419 181.255674 
L 267.762419 181.265798 
L 268.762419 181.265594 
L 269.762419 181.256084 
L 270.762419 181.244431 
L 271.762419 181.213401 
L 272.762419 181.202233 
L 273.762419 181.172116 
L 274.762419 181.112339 
L 275.762419 181.075147 
L 276.762419 181.036051 
L 277.762419 180.993612 
L 278.762419 180.960847 
L 279.762419 180.89342 
L 280.762419 180.854294 
L 281.762419 180.81162 
L 282.762419 180.741039 
L 283.762419 180.704648 
L 284.762419 180.646245 
L 285.762419 180.535292 
L 286.762419 180.464634 
L 287.762419 180.351694 
L 288.762419 180.305921 
L 289.762419 180.244638 
L 290.762419 180.196139 
L 291.762419 180.115316 
L 292.762419 179.996797 
L 293.762419 179.926587 
L 294.762419 179.843324 
L 296.618831 179.810182 
" clip-path="url(#pdf9c8fc3ad)" style="fill: none; stroke: #1f77b4; stroke-opacity: 0.5; stroke-width: 0.2; stroke-linecap: square"/>
   <g id="patch_3">
    <path d="M 64.409375 22.318125 
L 64.409375 260.421875 
M 240.224232 22.318125 
L 240.224232 260.421875 
" clip-path="url(#pdf9c8fc3ad)" style="fill: none; stroke: #ffffff; stroke-width: 3; stroke-linejoin: miter"/>
    <path d="M 64.409375 22.318125 
L 64.409375 260.421875 
M 240.224232 22.318125 
L 240.224232 260.421875 
" clip-path="url(#pdf9c8fc3ad)" style="fill: none; stroke: #1f77b4; stroke-linejoin: miter"/>
    <g id="PolyCollection_1">
     <path d="M 240.224232 22.318125 
L 64.409375 22.318125 
L 64.409375 260.421875 
L 240.224232 260.421875 
L 240.224232 260.421875 
L 240.224232 22.318125 
z
" clip-path="url(#pdf9c8fc3ad)" style="fill: #1f77b4; fill-opacity: 0.5"/>
    </g>
    <g id="patch_4">
     <path d="M 301.157018 22.318125 
L 301.157018 260.421875 
M 476.971875 22.318125 
L 476.971875 260.421875 
" clip-path="url(#pdf9c8fc3ad)" style="fill: none; stroke: #ffffff; stroke-width: 3; stroke-linejoin: miter"/>
     <path d="M 301.157018 22.318125 
L 301.157018 260.421875 
M 476.971875 22.318125 
L 476.971875 260.421875 
" clip-path="url(#pdf9c8fc3ad)" style="fill: none; stroke: #ff7f0e; stroke-linejoin: miter"/>
     <g id="PolyCollection_2">
      <path d="M 476.971875 22.318125 
L 301.157018 22.318125 
L 301.157018 260.421875 
L 476.971875 260.421875 
L 476.971875 260.421875 
L 476.971875 22.318125 
z
" clip-path="url(#pdf9c8fc3ad)" style="fill: #ff7f0e; fill-opacity: 0.5"/>
     </g>
     <g id="matplotlib.axis_1">
      <g id="xtick_1">
       <g id="line2d_1"/>
       <g id="text_1">
        <!-- deme0 -->
        <g transform="translate(134.937897 271.520312)scale(0.1 -0.1)">
         <defs>
          <path id="DejaVuSans-64" d="M 2906 2969 
L 2906 4863 
L 3481 4863 
L 3481 0 
L 2906 0 
L 2906 525 
Q 2725 213 2448 61 
Q 2172 -91 1784 -91 
Q 1150 -91 751 415 
Q 353 922 353 1747 
Q 353 2572 751 3078 
Q 1150 3584 1784 3584 
Q 2172 3584 2448 3432 
Q 2725 3281 2906 2969 
z
M 947 1747 
Q 947 1113 1208 752 
Q 1469 391 1925 391 
Q 2381 391 2643 752 
Q 2906 1113 2906 1747 
Q 2906 2381 2643 2742 
Q 2381 3103 1925 3103 
Q 1469 3103 1208 2742 
Q 947 2381 947 1747 
z
" transform="scale(0.015625)"/>
          <path id="DejaVuSans-65" d="M 3597 1894 
L 3597 1613 
L 953 1613 
Q 991 1019 1311 708 
Q 1631 397 2203 397 
Q 2534 397 2845 478 
Q 3156 559 3463 722 
L 3463 178 
Q 3153 47 2828 -22 
Q 2503 -91 2169 -91 
Q 1331 -91 842 396 
Q 353 884 353 1716 
Q 353 2575 817 3079 
Q 1281 3584 2069 3584 
Q 2775 3584 3186 3129 
Q 3597 2675 3597 1894 
z
M 3022 2063 
Q 3016 2534 2758 2815 
Q 2500 3097 2075 3097 
Q 1594 3097 1305 2825 
Q 1016 2553 972 2059 
L 3022 2063 
z
" transform="scale(0.015625)"/>
          <path id="DejaVuSans-6d" d="M 3328 2828 
Q 3544 3216 3844 3400 
Q 4144 3584 4550 3584 
Q 5097 3584 5394 3201 
Q 5691 2819 5691 2113 
L 5691 0 
L 5113 0 
L 5113 2094 
Q 5113 2597 4934 2840 
Q 4756 3084 4391 3084 
Q 3944 3084 3684 2787 
Q 3425 2491 3425 1978 
L 3425 0 
L 2847 0 
L 2847 2094 
Q 2847 2600 2669 2842 
Q 2491 3084 2119 3084 
Q 1678 3084 1418 2786 
Q 1159 2488 1159 1978 
L 1159 0 
L 581 0 
L 581 3500 
L 1159 3500 
L 1159 2956 
Q 1356 3278 1631 3431 
Q 1906 3584 2284 3584 
Q 2666 3584 2933 3390 
Q 3200 3197 3328 2828 
z
" transform="scale(0.015625)"/>
          <path id="DejaVuSans-30" d="M 2034 4250 
Q 1547 4250 1301 3770 
Q 1056 3291 1056 2328 
Q 1056 1369 1301 889 
Q 1547 409 2034 409 
Q 2525 409 2770 889 
Q 3016 1369 3016 2328 
Q 3016 3291 2770 3770 
Q 2525 4250 2034 4250 
z
M 2034 4750 
Q 2819 4750 3233 4129 
Q 3647 3509 3647 2328 
Q 3647 1150 3233 529 
Q 2819 -91 2034 -91 
Q 1250 -91 836 529 
Q 422 1150 422 2328 
Q 422 3509 836 4129 
Q 1250 4750 2034 4750 
z
" transform="scale(0.015625)"/>
         </defs>
         <use xlink:href="#DejaVuSans-64"/>
         <use xlink:href="#DejaVuSans-65" x="63.476562"/>
         <use xlink:href="#DejaVuSans-6d" x="125"/>
         <use xlink:href="#DejaVuSans-65" x="222.412109"/>
         <use xlink:href="#DejaVuSans-30" x="283.935547"/>
        </g>
       </g>
      </g>
      <g id="xtick_2">
       <g id="line2d_2"/>
       <g id="text_2">
        <!-- deme1 -->
        <g transform="translate(371.68554 271.520312)scale(0.1 -0.1)">
         <defs>
          <path id="DejaVuSans-31" d="M 794 531 
L 1825 531 
L 1825 4091 
L 703 3866 
L 703 4441 
L 1819 4666 
L 2450 4666 
L 2450 531 
L 3481 531 
L 3481 0 
L 794 0 
L 794 531 
z
" transform="scale(0.015625)"/>
         </defs>
         <use xlink:href="#DejaVuSans-64"/>
         <use xlink:href="#DejaVuSans-65" x="63.476562"/>
         <use xlink:href="#DejaVuSans-6d" x="125"/>
         <use xlink:href="#DejaVuSans-65" x="222.412109"/>
         <use xlink:href="#DejaVuSans-31" x="283.935547"/>
        </g>
       </g>
      </g>
     </g>
     <g id="matplotlib.axis_2">
      <g id="ytick_1">
       <g id="line2d_3">
        <defs>
         <path id="m82f0ab1bb0" d="M 0 0 
L -3.5 0 
" style="stroke: #000000; stroke-width: 0.8"/>
        </defs>
        <g>
         <use xlink:href="#m82f0ab1bb0" x="43.78125" y="260.421875" style="stroke: #000000; stroke-width: 0.8"/>
        </g>
       </g>
       <g id="text_3">
        <!-- 0.0 -->
        <g transform="translate(20.878125 264.221094)scale(0.1 -0.1)">
         <defs>
          <path id="DejaVuSans-2e" d="M 684 794 
L 1344 794 
L 1344 0 
L 684 0 
L 684 794 
z
" transform="scale(0.015625)"/>
         </defs>
         <use xlink:href="#DejaVuSans-30"/>
         <use xlink:href="#DejaVuSans-2e" x="63.623047"/>
         <use xlink:href="#DejaVuSans-30" x="95.410156"/>
        </g>
       </g>
      </g>
      <g id="ytick_2">
       <g id="line2d_4">
        <g>
         <use xlink:href="#m82f0ab1bb0" x="43.78125" y="212.801125" style="stroke: #000000; stroke-width: 0.8"/>
        </g>
       </g>
       <g id="text_4">
        <!-- 0.5 -->
        <g transform="translate(20.878125 216.600344)scale(0.1 -0.1)">
         <defs>
          <path id="DejaVuSans-35" d="M 691 4666 
L 3169 4666 
L 3169 4134 
L 1269 4134 
L 1269 2991 
Q 1406 3038 1543 3061 
Q 1681 3084 1819 3084 
Q 2600 3084 3056 2656 
Q 3513 2228 3513 1497 
Q 3513 744 3044 326 
Q 2575 -91 1722 -91 
Q 1428 -91 1123 -41 
Q 819 9 494 109 
L 494 744 
Q 775 591 1075 516 
Q 1375 441 1709 441 
Q 2250 441 2565 725 
Q 2881 1009 2881 1497 
Q 2881 1984 2565 2268 
Q 2250 2553 1709 2553 
Q 1456 2553 1204 2497 
Q 953 2441 691 2322 
L 691 4666 
z
" transform="scale(0.015625)"/>
         </defs>
         <use xlink:href="#DejaVuSans-30"/>
         <use xlink:href="#DejaVuSans-2e" x="63.623047"/>
         <use xlink:href="#DejaVuSans-35" x="95.410156"/>
        </g>
       </g>
      </g>
      <g id="ytick_3">
       <g id="line2d_5">
        <g>
         <use xlink:href="#m82f0ab1bb0" x="43.78125" y="165.180375" style="stroke: #000000; stroke-width: 0.8"/>
        </g>
       </g>
       <g id="text_5">
        <!-- 1.0 -->
        <g transform="translate(20.878125 168.979594)scale(0.1 -0.1)">
         <use xlink:href="#DejaVuSans-31"/>
         <use xlink:href="#DejaVuSans-2e" x="63.623047"/>
         <use xlink:href="#DejaVuSans-30" x="95.410156"/>
        </g>
       </g>
      </g>
      <g id="ytick_4">
       <g id="line2d_6">
        <g>
         <use xlink:href="#m82f0ab1bb0" x="43.78125" y="117.559625" style="stroke: #000000; stroke-width: 0.8"/>
        </g>
       </g>
       <g id="text_6">
        <!-- 1.5 -->
        <g transform="translate(20.878125 121.358844)scale(0.1 -0.1)">
         <use xlink:href="#DejaVuSans-31"/>
         <use xlink:href="#DejaVuSans-2e" x="63.623047"/>
         <use xlink:href="#DejaVuSans-35" x="95.410156"/>
        </g>
       </g>
      </g>
      <g id="ytick_5">
       <g id="line2d_7">
        <g>
         <use xlink:href="#m82f0ab1bb0" x="43.78125" y="69.938875" style="stroke: #000000; stroke-width: 0.8"/>
        </g>
       </g>
       <g id="text_7">
        <!-- 2.0 -->
        <g transform="translate(20.878125 73.738094)scale(0.1 -0.1)">
         <defs>
          <path id="DejaVuSans-32" d="M 1228 531 
L 3431 531 
L 3431 0 
L 469 0 
L 469 531 
Q 828 903 1448 1529 
Q 2069 2156 2228 2338 
Q 2531 2678 2651 2914 
Q 2772 3150 2772 3378 
Q 2772 3750 2511 3984 
Q 2250 4219 1831 4219 
Q 1534 4219 1204 4116 
Q 875 4013 500 3803 
L 500 4441 
Q 881 4594 1212 4672 
Q 1544 4750 1819 4750 
Q 2544 4750 2975 4387 
Q 3406 4025 3406 3419 
Q 3406 3131 3298 2873 
Q 3191 2616 2906 2266 
Q 2828 2175 2409 1742 
Q 1991 1309 1228 531 
z
" transform="scale(0.015625)"/>
         </defs>
         <use xlink:href="#DejaVuSans-32"/>
         <use xlink:href="#DejaVuSans-2e" x="63.623047"/>
         <use xlink:href="#DejaVuSans-30" x="95.410156"/>
        </g>
       </g>
      </g>
      <g id="ytick_6">
       <g id="line2d_8">
        <g>
         <use xlink:href="#m82f0ab1bb0" x="43.78125" y="22.318125" style="stroke: #000000; stroke-width: 0.8"/>
        </g>
       </g>
       <g id="text_8">
        <!-- 2.5 -->
        <g transform="translate(20.878125 26.117344)scale(0.1 -0.1)">
         <use xlink:href="#DejaVuSans-32"/>
         <use xlink:href="#DejaVuSans-2e" x="63.623047"/>
         <use xlink:href="#DejaVuSans-35" x="95.410156"/>
        </g>
       </g>
      </g>
      <g id="text_9">
       <!-- time ago (generations) -->
       <g transform="translate(14.798438 198.841094)rotate(-90)scale(0.1 -0.1)">
        <defs>
         <path id="DejaVuSans-74" d="M 1172 4494 
L 1172 3500 
L 2356 3500 
L 2356 3053 
L 1172 3053 
L 1172 1153 
Q 1172 725 1289 603 
Q 1406 481 1766 481 
L 2356 481 
L 2356 0 
L 1766 0 
Q 1100 0 847 248 
Q 594 497 594 1153 
L 594 3053 
L 172 3053 
L 172 3500 
L 594 3500 
L 594 4494 
L 1172 4494 
z
" transform="scale(0.015625)"/>
         <path id="DejaVuSans-69" d="M 603 3500 
L 1178 3500 
L 1178 0 
L 603 0 
L 603 3500 
z
M 603 4863 
L 1178 4863 
L 1178 4134 
L 603 4134 
L 603 4863 
z
" transform="scale(0.015625)"/>
         <path id="DejaVuSans-20" transform="scale(0.015625)"/>
         <path id="DejaVuSans-61" d="M 2194 1759 
Q 1497 1759 1228 1600 
Q 959 1441 959 1056 
Q 959 750 1161 570 
Q 1363 391 1709 391 
Q 2188 391 2477 730 
Q 2766 1069 2766 1631 
L 2766 1759 
L 2194 1759 
z
M 3341 1997 
L 3341 0 
L 2766 0 
L 2766 531 
Q 2569 213 2275 61 
Q 1981 -91 1556 -91 
Q 1019 -91 701 211 
Q 384 513 384 1019 
Q 384 1609 779 1909 
Q 1175 2209 1959 2209 
L 2766 2209 
L 2766 2266 
Q 2766 2663 2505 2880 
Q 2244 3097 1772 3097 
Q 1472 3097 1187 3025 
Q 903 2953 641 2809 
L 641 3341 
Q 956 3463 1253 3523 
Q 1550 3584 1831 3584 
Q 2591 3584 2966 3190 
Q 3341 2797 3341 1997 
z
" transform="scale(0.015625)"/>
         <path id="DejaVuSans-67" d="M 2906 1791 
Q 2906 2416 2648 2759 
Q 2391 3103 1925 3103 
Q 1463 3103 1205 2759 
Q 947 2416 947 1791 
Q 947 1169 1205 825 
Q 1463 481 1925 481 
Q 2391 481 2648 825 
Q 2906 1169 2906 1791 
z
M 3481 434 
Q 3481 -459 3084 -895 
Q 2688 -1331 1869 -1331 
Q 1566 -1331 1297 -1286 
Q 1028 -1241 775 -1147 
L 775 -588 
Q 1028 -725 1275 -790 
Q 1522 -856 1778 -856 
Q 2344 -856 2625 -561 
Q 2906 -266 2906 331 
L 2906 616 
Q 2728 306 2450 153 
Q 2172 0 1784 0 
Q 1141 0 747 490 
Q 353 981 353 1791 
Q 353 2603 747 3093 
Q 1141 3584 1784 3584 
Q 2172 3584 2450 3431 
Q 2728 3278 2906 2969 
L 2906 3500 
L 3481 3500 
L 3481 434 
z
" transform="scale(0.015625)"/>
         <path id="DejaVuSans-6f" d="M 1959 3097 
Q 1497 3097 1228 2736 
Q 959 2375 959 1747 
Q 959 1119 1226 758 
Q 1494 397 1959 397 
Q 2419 397 2687 759 
Q 2956 1122 2956 1747 
Q 2956 2369 2687 2733 
Q 2419 3097 1959 3097 
z
M 1959 3584 
Q 2709 3584 3137 3096 
Q 3566 2609 3566 1747 
Q 3566 888 3137 398 
Q 2709 -91 1959 -91 
Q 1206 -91 779 398 
Q 353 888 353 1747 
Q 353 2609 779 3096 
Q 1206 3584 1959 3584 
z
" transform="scale(0.015625)"/>
         <path id="DejaVuSans-28" d="M 1984 4856 
Q 1566 4138 1362 3434 
Q 1159 2731 1159 2009 
Q 1159 1288 1364 580 
Q 1569 -128 1984 -844 
L 1484 -844 
Q 1016 -109 783 600 
Q 550 1309 550 2009 
Q 550 2706 781 3412 
Q 1013 4119 1484 4856 
L 1984 4856 
z
" transform="scale(0.015625)"/>
         <path id="DejaVuSans-6e" d="M 3513 2113 
L 3513 0 
L 2938 0 
L 2938 2094 
Q 2938 2591 2744 2837 
Q 2550 3084 2163 3084 
Q 1697 3084 1428 2787 
Q 1159 2491 1159 1978 
L 1159 0 
L 581 0 
L 581 3500 
L 1159 3500 
L 1159 2956 
Q 1366 3272 1645 3428 
Q 1925 3584 2291 3584 
Q 2894 3584 3203 3211 
Q 3513 2838 3513 2113 
z
" transform="scale(0.015625)"/>
         <path id="DejaVuSans-72" d="M 2631 2963 
Q 2534 3019 2420 3045 
Q 2306 3072 2169 3072 
Q 1681 3072 1420 2755 
Q 1159 2438 1159 1844 
L 1159 0 
L 581 0 
L 581 3500 
L 1159 3500 
L 1159 2956 
Q 1341 3275 1631 3429 
Q 1922 3584 2338 3584 
Q 2397 3584 2469 3576 
Q 2541 3569 2628 3553 
L 2631 2963 
z
" transform="scale(0.015625)"/>
         <path id="DejaVuSans-73" d="M 2834 3397 
L 2834 2853 
Q 2591 2978 2328 3040 
Q 2066 3103 1784 3103 
Q 1356 3103 1142 2972 
Q 928 2841 928 2578 
Q 928 2378 1081 2264 
Q 1234 2150 1697 2047 
L 1894 2003 
Q 2506 1872 2764 1633 
Q 3022 1394 3022 966 
Q 3022 478 2636 193 
Q 2250 -91 1575 -91 
Q 1294 -91 989 -36 
Q 684 19 347 128 
L 347 722 
Q 666 556 975 473 
Q 1284 391 1588 391 
Q 1994 391 2212 530 
Q 2431 669 2431 922 
Q 2431 1156 2273 1281 
Q 2116 1406 1581 1522 
L 1381 1569 
Q 847 1681 609 1914 
Q 372 2147 372 2553 
Q 372 3047 722 3315 
Q 1072 3584 1716 3584 
Q 2034 3584 2315 3537 
Q 2597 3491 2834 3397 
z
" transform="scale(0.015625)"/>
         <path id="DejaVuSans-29" d="M 513 4856 
L 1013 4856 
Q 1481 4119 1714 3412 
Q 1947 2706 1947 2009 
Q 1947 1309 1714 600 
Q 1481 -109 1013 -844 
L 513 -844 
Q 928 -128 1133 580 
Q 1338 1288 1338 2009 
Q 1338 2731 1133 3434 
Q 928 4138 513 4856 
z
" transform="scale(0.015625)"/>
        </defs>
        <use xlink:href="#DejaVuSans-74"/>
        <use xlink:href="#DejaVuSans-69" x="39.208984"/>
        <use xlink:href="#DejaVuSans-6d" x="66.992188"/>
        <use xlink:href="#DejaVuSans-65" x="164.404297"/>
        <use xlink:href="#DejaVuSans-20" x="225.927734"/>
        <use xlink:href="#DejaVuSans-61" x="257.714844"/>
        <use xlink:href="#DejaVuSans-67" x="318.994141"/>
        <use xlink:href="#DejaVuSans-6f" x="382.470703"/>
        <use xlink:href="#DejaVuSans-20" x="443.652344"/>
        <use xlink:href="#DejaVuSans-28" x="475.439453"/>
        <use xlink:href="#DejaVuSans-67" x="514.453125"/>
        <use xlink:href="#DejaVuSans-65" x="577.929688"/>
        <use xlink:href="#DejaVuSans-6e" x="639.453125"/>
        <use xlink:href="#DejaVuSans-65" x="702.832031"/>
        <use xlink:href="#DejaVuSans-72" x="764.355469"/>
        <use xlink:href="#DejaVuSans-61" x="805.46875"/>
        <use xlink:href="#DejaVuSans-74" x="866.748047"/>
        <use xlink:href="#DejaVuSans-69" x="905.957031"/>
        <use xlink:href="#DejaVuSans-6f" x="933.740234"/>
        <use xlink:href="#DejaVuSans-6e" x="994.921875"/>
        <use xlink:href="#DejaVuSans-73" x="1058.300781"/>
        <use xlink:href="#DejaVuSans-29" x="1110.400391"/>
       </g>
      </g>
     </g>
     <path d="M 243.762419 103.639287 
L 245.762419 104.639287 
L 245.762419 102.639287 
z
" clip-path="url(#pdf9c8fc3ad)" style="fill: #ff7f0e; fill-opacity: 0.5; stroke: #ff7f0e; stroke-opacity: 0.5; stroke-linejoin: miter"/>
     <path d="M 243.762419 102.778294 
L 245.762419 103.778294 
L 245.762419 101.778294 
z
" clip-path="url(#pdf9c8fc3ad)" style="fill: #ff7f0e; fill-opacity: 0.5; stroke: #ff7f0e; stroke-opacity: 0.5; stroke-linejoin: miter"/>
     <path d="M 243.762419 156.805237 
L 245.762419 157.805237 
L 245.762419 155.805237 
z
" clip-path="url(#pdf9c8fc3ad)" style="fill: #ff7f0e; fill-opacity: 0.5; stroke: #ff7f0e; stroke-opacity: 0.5; stroke-linejoin: miter"/>
     <path d="M 243.762419 89.71036 
L 245.762419 90.71036 
L 245.762419 88.71036 
z
" clip-path="url(#pdf9c8fc3ad)" style="fill: #ff7f0e; fill-opacity: 0.5; stroke: #ff7f0e; stroke-opacity: 0.5; stroke-linejoin: miter"/>
     <path d="M 243.762419 75.384145 
L 245.762419 76.384145 
L 245.762419 74.384145 
z
" clip-path="url(#pdf9c8fc3ad)" style="fill: #ff7f0e; fill-opacity: 0.5; stroke: #ff7f0e; stroke-opacity: 0.5; stroke-linejoin: miter"/>
     <path d="M 243.762419 138.524234 
L 245.762419 139.524234 
L 245.762419 137.524234 
z
" clip-path="url(#pdf9c8fc3ad)" style="fill: #ff7f0e; fill-opacity: 0.5; stroke: #ff7f0e; stroke-opacity: 0.5; stroke-linejoin: miter"/>
     <path d="M 243.762419 145.082285 
L 245.762419 146.082285 
L 245.762419 144.082285 
z
" clip-path="url(#pdf9c8fc3ad)" style="fill: #ff7f0e; fill-opacity: 0.5; stroke: #ff7f0e; stroke-opacity: 0.5; stroke-linejoin: miter"/>
     <path d="M 243.762419 116.107497 
L 245.762419 117.107497 
L 245.762419 115.107497 
z
" clip-path="url(#pdf9c8fc3ad)" style="fill: #ff7f0e; fill-opacity: 0.5; stroke: #ff7f0e; stroke-opacity: 0.5; stroke-linejoin: miter"/>
     <path d="M 243.762419 116.582504 
L 245.762419 117.582504 
L 245.762419 115.582504 
z
" clip-path="url(#pdf9c8fc3ad)" style="fill: #ff7f0e; fill-opacity: 0.5; stroke: #ff7f0e; stroke-opacity: 0.5; stroke-linejoin: miter"/>
     <path d="M 243.762419 76.678439 
L 245.762419 77.678439 
L 245.762419 75.678439 
z
" clip-path="url(#pdf9c8fc3ad)" style="fill: #ff7f0e; fill-opacity: 0.5; stroke: #ff7f0e; stroke-opacity: 0.5; stroke-linejoin: miter"/>
     <path d="M 297.618831 140.51076 
L 295.618831 139.51076 
L 295.618831 141.51076 
z
" clip-path="url(#pdf9c8fc3ad)" style="fill: #1f77b4; fill-opacity: 0.5; stroke: #1f77b4; stroke-opacity: 0.5; stroke-linejoin: miter"/>
     <path d="M 297.618831 145.741882 
L 295.618831 144.741882 
L 295.618831 146.741882 
z
" clip-path="url(#pdf9c8fc3ad)" style="fill: #1f77b4; fill-opacity: 0.5; stroke: #1f77b4; stroke-opacity: 0.5; stroke-linejoin: miter"/>
     <path d="M 297.618831 117.045746 
L 295.618831 116.045746 
L 295.618831 118.045746 
z
" clip-path="url(#pdf9c8fc3ad)" style="fill: #1f77b4; fill-opacity: 0.5; stroke: #1f77b4; stroke-opacity: 0.5; stroke-linejoin: miter"/>
     <path d="M 297.618831 87.527638 
L 295.618831 86.527638 
L 295.618831 88.527638 
z
" clip-path="url(#pdf9c8fc3ad)" style="fill: #1f77b4; fill-opacity: 0.5; stroke: #1f77b4; stroke-opacity: 0.5; stroke-linejoin: miter"/>
     <path d="M 297.618831 148.850701 
L 295.618831 147.850701 
L 295.618831 149.850701 
z
" clip-path="url(#pdf9c8fc3ad)" style="fill: #1f77b4; fill-opacity: 0.5; stroke: #1f77b4; stroke-opacity: 0.5; stroke-linejoin: miter"/>
     <path d="M 297.618831 109.524805 
L 295.618831 108.524805 
L 295.618831 110.524805 
z
" clip-path="url(#pdf9c8fc3ad)" style="fill: #1f77b4; fill-opacity: 0.5; stroke: #1f77b4; stroke-opacity: 0.5; stroke-linejoin: miter"/>
     <path d="M 297.618831 102.710206 
L 295.618831 101.710206 
L 295.618831 103.710206 
z
" clip-path="url(#pdf9c8fc3ad)" style="fill: #1f77b4; fill-opacity: 0.5; stroke: #1f77b4; stroke-opacity: 0.5; stroke-linejoin: miter"/>
     <path d="M 297.618831 106.083359 
L 295.618831 105.083359 
L 295.618831 107.083359 
z
" clip-path="url(#pdf9c8fc3ad)" style="fill: #1f77b4; fill-opacity: 0.5; stroke: #1f77b4; stroke-opacity: 0.5; stroke-linejoin: miter"/>
     <path d="M 297.618831 163.794251 
L 295.618831 162.794251 
L 295.618831 164.794251 
z
" clip-path="url(#pdf9c8fc3ad)" style="fill: #1f77b4; fill-opacity: 0.5; stroke: #1f77b4; stroke-opacity: 0.5; stroke-linejoin: miter"/>
     <path d="M 297.618831 140.36228 
L 295.618831 139.36228 
L 295.618831 141.36228 
z
" clip-path="url(#pdf9c8fc3ad)" style="fill: #1f77b4; fill-opacity: 0.5; stroke: #1f77b4; stroke-opacity: 0.5; stroke-linejoin: miter"/>
     <path d="M 243.762419 241.181909 
L 245.762419 242.181909 
L 245.762419 240.181909 
z
" clip-path="url(#pdf9c8fc3ad)" style="fill: #ff7f0e; fill-opacity: 0.5; stroke: #ff7f0e; stroke-opacity: 0.5; stroke-linejoin: miter"/>
     <path d="M 243.762419 248.397625 
L 245.762419 249.397625 
L 245.762419 247.397625 
z
" clip-path="url(#pdf9c8fc3ad)" style="fill: #ff7f0e; fill-opacity: 0.5; stroke: #ff7f0e; stroke-opacity: 0.5; stroke-linejoin: miter"/>
     <path d="M 243.762419 173.917558 
L 245.762419 174.917558 
L 245.762419 172.917558 
z
" clip-path="url(#pdf9c8fc3ad)" style="fill: #ff7f0e; fill-opacity: 0.5; stroke: #ff7f0e; stroke-opacity: 0.5; stroke-linejoin: miter"/>
     <path d="M 243.762419 204.50771 
L 245.762419 205.50771 
L 245.762419 203.50771 
z
" clip-path="url(#pdf9c8fc3ad)" style="fill: #ff7f0e; fill-opacity: 0.5; stroke: #ff7f0e; stroke-opacity: 0.5; stroke-linejoin: miter"/>
     <path d="M 243.762419 249.638427 
L 245.762419 250.638427 
L 245.762419 248.638427 
z
" clip-path="url(#pdf9c8fc3ad)" style="fill: #ff7f0e; fill-opacity: 0.5; stroke: #ff7f0e; stroke-opacity: 0.5; stroke-linejoin: miter"/>
     <path d="M 243.762419 256.992893 
L 245.762419 257.992893 
L 245.762419 255.992893 
z
" clip-path="url(#pdf9c8fc3ad)" style="fill: #ff7f0e; fill-opacity: 0.5; stroke: #ff7f0e; stroke-opacity: 0.5; stroke-linejoin: miter"/>
     <path d="M 243.762419 173.484768 
L 245.762419 174.484768 
L 245.762419 172.484768 
z
" clip-path="url(#pdf9c8fc3ad)" style="fill: #ff7f0e; fill-opacity: 0.5; stroke: #ff7f0e; stroke-opacity: 0.5; stroke-linejoin: miter"/>
     <path d="M 243.762419 188.089023 
L 245.762419 189.089023 
L 245.762419 187.089023 
z
" clip-path="url(#pdf9c8fc3ad)" style="fill: #ff7f0e; fill-opacity: 0.5; stroke: #ff7f0e; stroke-opacity: 0.5; stroke-linejoin: miter"/>
     <path d="M 243.762419 214.344366 
L 245.762419 215.344366 
L 245.762419 213.344366 
z
" clip-path="url(#pdf9c8fc3ad)" style="fill: #ff7f0e; fill-opacity: 0.5; stroke: #ff7f0e; stroke-opacity: 0.5; stroke-linejoin: miter"/>
     <path d="M 243.762419 223.866501 
L 245.762419 224.866501 
L 245.762419 222.866501 
z
" clip-path="url(#pdf9c8fc3ad)" style="fill: #ff7f0e; fill-opacity: 0.5; stroke: #ff7f0e; stroke-opacity: 0.5; stroke-linejoin: miter"/>
     <path d="M 297.618831 207.957004 
L 295.618831 206.957004 
L 295.618831 208.957004 
z
" clip-path="url(#pdf9c8fc3ad)" style="fill: #1f77b4; fill-opacity: 0.5; stroke: #1f77b4; stroke-opacity: 0.5; stroke-linejoin: miter"/>
     <path d="M 297.618831 200.8872 
L 295.618831 199.8872 
L 295.618831 201.8872 
z
" clip-path="url(#pdf9c8fc3ad)" style="fill: #1f77b4; fill-opacity: 0.5; stroke: #1f77b4; stroke-opacity: 0.5; stroke-linejoin: miter"/>
     <path d="M 297.618831 175.886155 
L 295.618831 174.886155 
L 295.618831 176.886155 
z
" clip-path="url(#pdf9c8fc3ad)" style="fill: #1f77b4; fill-opacity: 0.5; stroke: #1f77b4; stroke-opacity: 0.5; stroke-linejoin: miter"/>
     <path d="M 297.618831 240.304545 
L 295.618831 239.304545 
L 295.618831 241.304545 
z
" clip-path="url(#pdf9c8fc3ad)" style="fill: #1f77b4; fill-opacity: 0.5; stroke: #1f77b4; stroke-opacity: 0.5; stroke-linejoin: miter"/>
     <path d="M 297.618831 250.354046 
L 295.618831 249.354046 
L 295.618831 251.354046 
z
" clip-path="url(#pdf9c8fc3ad)" style="fill: #1f77b4; fill-opacity: 0.5; stroke: #1f77b4; stroke-opacity: 0.5; stroke-linejoin: miter"/>
     <path d="M 297.618831 166.396141 
L 295.618831 165.396141 
L 295.618831 167.396141 
z
" clip-path="url(#pdf9c8fc3ad)" style="fill: #1f77b4; fill-opacity: 0.5; stroke: #1f77b4; stroke-opacity: 0.5; stroke-linejoin: miter"/>
     <path d="M 297.618831 173.627664 
L 295.618831 172.627664 
L 295.618831 174.627664 
z
" clip-path="url(#pdf9c8fc3ad)" style="fill: #1f77b4; fill-opacity: 0.5; stroke: #1f77b4; stroke-opacity: 0.5; stroke-linejoin: miter"/>
     <path d="M 297.618831 208.529262 
L 295.618831 207.529262 
L 295.618831 209.529262 
z
" clip-path="url(#pdf9c8fc3ad)" style="fill: #1f77b4; fill-opacity: 0.5; stroke: #1f77b4; stroke-opacity: 0.5; stroke-linejoin: miter"/>
     <path d="M 297.618831 230.187257 
L 295.618831 229.187257 
L 295.618831 231.187257 
z
" clip-path="url(#pdf9c8fc3ad)" style="fill: #1f77b4; fill-opacity: 0.5; stroke: #1f77b4; stroke-opacity: 0.5; stroke-linejoin: miter"/>
     <path d="M 297.618831 180.267174 
L 295.618831 179.267174 
L 295.618831 181.267174 
z
" clip-path="url(#pdf9c8fc3ad)" style="fill: #1f77b4; fill-opacity: 0.5; stroke: #1f77b4; stroke-opacity: 0.5; stroke-linejoin: miter"/>
     <g id="patch_5">
      <path d="M 43.78125 260.421875 
L 43.78125 22.318125 
" style="fill: none; stroke: #000000; stroke-width: 0.8; stroke-linejoin: miter; stroke-linecap: square"/>
     </g>
     <g id="text_10">
      <!-- defaults_symmetric_migration_changing_rate.yaml -->
      <g transform="translate(117.1525 16.318125)scale(0.12 -0.12)">
       <defs>
        <path id="DejaVuSans-66" d="M 2375 4863 
L 2375 4384 
L 1825 4384 
Q 1516 4384 1395 4259 
Q 1275 4134 1275 3809 
L 1275 3500 
L 2222 3500 
L 2222 3053 
L 1275 3053 
L 1275 0 
L 697 0 
L 697 3053 
L 147 3053 
L 147 3500 
L 697 3500 
L 697 3744 
Q 697 4328 969 4595 
Q 1241 4863 1831 4863 
L 2375 4863 
z
" transform="scale(0.015625)"/>
        <path id="DejaVuSans-75" d="M 544 1381 
L 544 3500 
L 1119 3500 
L 1119 1403 
Q 1119 906 1312 657 
Q 1506 409 1894 409 
Q 2359 409 2629 706 
Q 2900 1003 2900 1516 
L 2900 3500 
L 3475 3500 
L 3475 0 
L 2900 0 
L 2900 538 
Q 2691 219 2414 64 
Q 2138 -91 1772 -91 
Q 1169 -91 856 284 
Q 544 659 544 1381 
z
M 1991 3584 
L 1991 3584 
z
" transform="scale(0.015625)"/>
        <path id="DejaVuSans-6c" d="M 603 4863 
L 1178 4863 
L 1178 0 
L 603 0 
L 603 4863 
z
" transform="scale(0.015625)"/>
        <path id="DejaVuSans-5f" d="M 3263 -1063 
L 3263 -1509 
L -63 -1509 
L -63 -1063 
L 3263 -1063 
z
" transform="scale(0.015625)"/>
        <path id="DejaVuSans-79" d="M 2059 -325 
Q 1816 -950 1584 -1140 
Q 1353 -1331 966 -1331 
L 506 -1331 
L 506 -850 
L 844 -850 
Q 1081 -850 1212 -737 
Q 1344 -625 1503 -206 
L 1606 56 
L 191 3500 
L 800 3500 
L 1894 763 
L 2988 3500 
L 3597 3500 
L 2059 -325 
z
" transform="scale(0.015625)"/>
        <path id="DejaVuSans-63" d="M 3122 3366 
L 3122 2828 
Q 2878 2963 2633 3030 
Q 2388 3097 2138 3097 
Q 1578 3097 1268 2742 
Q 959 2388 959 1747 
Q 959 1106 1268 751 
Q 1578 397 2138 397 
Q 2388 397 2633 464 
Q 2878 531 3122 666 
L 3122 134 
Q 2881 22 2623 -34 
Q 2366 -91 2075 -91 
Q 1284 -91 818 406 
Q 353 903 353 1747 
Q 353 2603 823 3093 
Q 1294 3584 2113 3584 
Q 2378 3584 2631 3529 
Q 2884 3475 3122 3366 
z
" transform="scale(0.015625)"/>
        <path id="DejaVuSans-68" d="M 3513 2113 
L 3513 0 
L 2938 0 
L 2938 2094 
Q 2938 2591 2744 2837 
Q 2550 3084 2163 3084 
Q 1697 3084 1428 2787 
Q 1159 2491 1159 1978 
L 1159 0 
L 581 0 
L 581 4863 
L 1159 4863 
L 1159 2956 
Q 1366 3272 1645 3428 
Q 1925 3584 2291 3584 
Q 2894 3584 3203 3211 
Q 3513 2838 3513 2113 
z
" transform="scale(0.015625)"/>
       </defs>
       <use xlink:href="#DejaVuSans-64"/>
       <use xlink:href="#DejaVuSans-65" x="63.476562"/>
       <use xlink:href="#DejaVuSans-66" x="125"/>
       <use xlink:href="#DejaVuSans-61" x="160.205078"/>
       <use xlink:href="#DejaVuSans-75" x="221.484375"/>
       <use xlink:href="#DejaVuSans-6c" x="284.863281"/>
       <use xlink:href="#DejaVuSans-74" x="312.646484"/>
       <use xlink:href="#DejaVuSans-73" x="351.855469"/>
       <use xlink:href="#DejaVuSans-5f" x="403.955078"/>
       <use xlink:href="#DejaVuSans-73" x="453.955078"/>
       <use xlink:href="#DejaVuSans-79" x="506.054688"/>
       <use xlink:href="#DejaVuSans-6d" x="565.234375"/>
       <use xlink:href="#DejaVuSans-6d" x="662.646484"/>
       <use xlink:href="#DejaVuSans-65" x="760.058594"/>
       <use xlink:href="#DejaVuSans-74" x="821.582031"/>
       <use xlink:href="#DejaVuSans-72" x="860.791016"/>
       <use xlink:href="#DejaVuSans-69" x="901.904297"/>
       <use xlink:href="#DejaVuSans-63" x="929.6875"/>
       <use xlink:href="#DejaVuSans-5f" x="984.667969"/>
       <use xlink:href="#DejaVuSans-6d" x="1034.667969"/>
       <use xlink:href="#DejaVuSans-69" x="1132.080078"/>
       <use xlink:href="#DejaVuSans-67" x="1159.863281"/>
       <use xlink:href="#DejaVuSans-72" x="1223.339844"/>
       <use xlink:href="#DejaVuSans-61" x="1264.453125"/>
       <use xlink:href="#DejaVuSans-74" x="1325.732422"/>
       <use xlink:href="#DejaVuSans-69" x="1364.941406"/>
       <use xlink:href="#DejaVuSans-6f" x="1392.724609"/>
       <use xlink:href="#DejaVuSans-6e" x="1453.90625"/>
       <use xlink:href="#DejaVuSans-5f" x="1517.285156"/>
       <use xlink:href="#DejaVuSans-63" x="1567.285156"/>
       <use xlink:href="#DejaVuSans-68" x="1622.265625"/>
       <use xlink:href="#DejaVuSans-61" x="1685.644531"/>
       <use xlink:href="#DejaVuSans-6e" x="1746.923828"/>
       <use xlink:href="#DejaVuSans-67" x="1810.302734"/>
       <use xlink:href="#DejaVuSans-69" x="1873.779297"/>
       <use xlink:href="#DejaVuSans-6e" x="1901.5625"/>
       <use xlink:href="#DejaVuSans-67" x="1964.941406"/>
       <use xlink:href="#DejaVuSans-5f" x="2028.417969"/>
       <use xlink:href="#DejaVuSans-72" x="2078.417969"/>
       <use xlink:href="#DejaVuSans-61" x="2119.53125"/>
       <use xlink:href="#DejaVuSans-74" x="2180.810547"/>
       <use xlink:href="#DejaVuSans-65" x="2220.019531"/>
       <use xlink:href="#DejaVuSans-2e" x="2281.542969"/>
       <use xlink:href="#DejaVuSans-79" x="2313.330078"/>
       <use xlink:href="#DejaVuSans-61" x="2372.509766"/>
       <use xlink:href="#DejaVuSans-6d" x="2433.789062"/>
       <use xlink:href="#DejaVuSans-6c" x="2531.201172"/>
      </g>
     </g>
    </g>
   </g>
   <defs>
    <clipPath id="pdf9c8fc3ad">
     <rect x="43.78125" y="22.318125" width="453.81875" height="238.10375"/>
    </clipPath>
   </defs>
  </g>
 </g>
</svg>
