<?xml version="1.0" encoding="utf-8" standalone="no"?>
<!DOCTYPE svg PUBLIC "-//W3C//DTD SVG 1.1//EN"
  "http://www.w3.org/Graphics/SVG/1.1/DTD/svg11.dtd">
<svg xmlns:xlink="http://www.w3.org/1999/xlink" width="504.8pt" height="280.8pt" viewBox="0 0 504.8 280.8" xmlns="http://www.w3.org/2000/svg" version="1.1">
 <metadata>
  <rdf:RDF xmlns:dc="http://purl.org/dc/elements/1.1/" xmlns:cc="http://creativecommons.org/ns#" xmlns:rdf="http://www.w3.org/1999/02/22-rdf-syntax-ns#">
   <cc:Work>
    <dc:type rdf:resource="http://purl.org/dc/dcmitype/StillImage"/>
    <dc:date>2022-06-27T08:35:59.729703</dc:date>
    <dc:format>image/svg+xml</dc:format>
    <dc:creator>
     <cc:Agent>
      <dc:title>Matplotlib v3.5.2, https://matplotlib.org/</dc:title>
     </cc:Agent>
    </dc:creator>
   </cc:Work>
  </rdf:RDF>
 </metadata>
 <defs>
  <style type="text/css">*{stroke-linejoin: round; stroke-linecap: butt}</style>
 </defs>
 <g id="figure_1">
  <g id="patch_1">
   <path d="M 0 280.8 
L 504.8 280.8 
L 504.8 0 
L 0 0 
L 0 280.8 
z
" style="fill: none"/>
  </g>
  <g id="axes_1">
   <g id="patch_2">
    <path d="M 46.965625 260.421875 
L 497.6 260.421875 
L 497.6 22.318125 
L 46.965625 22.318125 
z
" style="fill: #ffffff"/>
   </g>
   <path d="M 171.90811 114.394695 
L 172.90811 114.426131 
L 173.90811 114.463071 
L 174.90811 114.560818 
L 175.90811 114.593339 
L 176.90811 114.666964 
L 177.90811 114.70553 
L 178.90811 114.740943 
L 179.90811 114.798583 
L 180.90811 114.868969 
L 181.90811 114.920933 
L 182.90811 114.980023 
L 183.90811 115.068344 
L 184.90811 115.114488 
L 185.90811 115.156899 
L 186.90811 115.187392 
L 187.90811 115.213437 
L 188.90811 115.234637 
L 189.90811 115.288938 
L 190.90811 115.316876 
L 191.90811 115.3466 
L 192.90811 115.371994 
L 193.90811 115.383195 
L 194.90811 115.393319 
L 195.90811 115.393114 
L 196.90811 115.383604 
L 197.90811 115.371951 
L 198.90811 115.340922 
L 199.90811 115.329754 
L 200.90811 115.299636 
L 201.90811 115.239859 
L 202.90811 115.202668 
L 203.90811 115.163572 
L 204.90811 115.121132 
L 205.90811 115.088367 
L 206.90811 115.02094 
L 207.90811 114.981815 
L 208.90811 114.93914 
L 209.90811 114.868559 
L 210.90811 114.832169 
L 211.90811 114.773765 
L 212.90811 114.662813 
L 213.90811 114.592154 
L 214.90811 114.479215 
L 215.90811 114.433442 
L 217.800088 114.372158 
" clip-path="url(#pa7dc37f511)" style="fill: none; stroke: #1f77b4; stroke-opacity: 0.5; stroke-width: 0.2; stroke-linecap: square"/>
   <path d="M 171.90811 184.139178 
L 172.90811 184.170614 
L 173.90811 184.207554 
L 174.90811 184.305301 
L 175.90811 184.337823 
L 176.90811 184.411447 
L 177.90811 184.450013 
L 178.90811 184.485426 
L 179.90811 184.543066 
L 180.90811 184.613452 
L 181.90811 184.665416 
L 182.90811 184.724506 
L 183.90811 184.812827 
L 184.90811 184.858971 
L 185.90811 184.901382 
L 186.90811 184.931875 
L 187.90811 184.95792 
L 188.90811 184.97912 
L 189.90811 185.033421 
L 190.90811 185.061359 
L 191.90811 185.091083 
L 192.90811 185.116477 
L 193.90811 185.127678 
L 194.90811 185.137802 
L 195.90811 185.137598 
L 196.90811 185.128088 
L 197.90811 185.116434 
L 198.90811 185.085405 
L 199.90811 185.074237 
L 200.90811 185.044119 
L 201.90811 184.984342 
L 202.90811 184.947151 
L 203.90811 184.908055 
L 204.90811 184.865615 
L 205.90811 184.83285 
L 206.90811 184.765424 
L 207.90811 184.726298 
L 208.90811 184.683623 
L 209.90811 184.613043 
L 210.90811 184.576652 
L 211.90811 184.518248 
L 212.90811 184.407296 
L 213.90811 184.336638 
L 214.90811 184.223698 
L 215.90811 184.177925 
L 217.800088 184.116642 
" clip-path="url(#pa7dc37f511)" style="fill: none; stroke: #1f77b4; stroke-opacity: 0.5; stroke-width: 0.2; stroke-linecap: square"/>
   <path d="M 171.90811 74.102832 
L 172.90811 74.134269 
L 173.90811 74.171209 
L 174.90811 74.268956 
L 175.90811 74.301477 
L 176.90811 74.375102 
L 177.90811 74.413668 
L 178.90811 74.449081 
L 179.90811 74.506721 
L 180.90811 74.577107 
L 181.90811 74.629071 
L 182.90811 74.688161 
L 183.90811 74.776482 
L 184.90811 74.822626 
L 185.90811 74.865037 
L 186.90811 74.89553 
L 187.90811 74.921575 
L 188.90811 74.942775 
L 189.90811 74.997076 
L 190.90811 75.025013 
L 191.90811 75.054737 
L 192.90811 75.080132 
L 193.90811 75.091333 
L 194.90811 75.101457 
L 195.90811 75.101252 
L 196.90811 75.091742 
L 197.90811 75.080089 
L 198.90811 75.049059 
L 199.90811 75.037892 
L 200.90811 75.007774 
L 201.90811 74.947997 
L 202.90811 74.910806 
L 203.90811 74.871709 
L 204.90811 74.82927 
L 205.90811 74.796505 
L 206.90811 74.729078 
L 207.90811 74.689952 
L 208.90811 74.647278 
L 209.90811 74.576697 
L 210.90811 74.540306 
L 211.90811 74.481903 
L 212.90811 74.370951 
L 213.90811 74.300292 
L 214.90811 74.187352 
L 215.90811 74.14158 
L 217.800088 74.080296 
" clip-path="url(#pa7dc37f511)" style="fill: none; stroke: #1f77b4; stroke-opacity: 0.5; stroke-width: 0.2; stroke-linecap: square"/>
   <path d="M 171.90811 80.911005 
L 172.90811 80.942442 
L 173.90811 80.979382 
L 174.90811 81.077128 
L 175.90811 81.10965 
L 176.90811 81.183275 
L 177.90811 81.22184 
L 178.90811 81.257254 
L 179.90811 81.314893 
L 180.90811 81.38528 
L 181.90811 81.437244 
L 182.90811 81.496334 
L 183.90811 81.584655 
L 184.90811 81.630799 
L 185.90811 81.67321 
L 186.90811 81.703702 
L 187.90811 81.729747 
L 188.90811 81.750948 
L 189.90811 81.805249 
L 190.90811 81.833186 
L 191.90811 81.86291 
L 192.90811 81.888305 
L 193.90811 81.899505 
L 194.90811 81.909629 
L 195.90811 81.909425 
L 196.90811 81.899915 
L 197.90811 81.888262 
L 198.90811 81.857232 
L 199.90811 81.846064 
L 200.90811 81.815947 
L 201.90811 81.75617 
L 202.90811 81.718978 
L 203.90811 81.679882 
L 204.90811 81.637443 
L 205.90811 81.604678 
L 206.90811 81.537251 
L 207.90811 81.498125 
L 208.90811 81.455451 
L 209.90811 81.38487 
L 210.90811 81.348479 
L 211.90811 81.290076 
L 212.90811 81.179123 
L 213.90811 81.108465 
L 214.90811 80.995525 
L 215.90811 80.949752 
L 217.800088 80.888469 
" clip-path="url(#pa7dc37f511)" style="fill: none; stroke: #1f77b4; stroke-opacity: 0.5; stroke-width: 0.2; stroke-linecap: square"/>
   <path d="M 171.90811 206.610773 
L 172.90811 206.64221 
L 173.90811 206.67915 
L 174.90811 206.776897 
L 175.90811 206.809418 
L 176.90811 206.883043 
L 177.90811 206.921609 
L 178.90811 206.957022 
L 179.90811 207.014662 
L 180.90811 207.085048 
L 181.90811 207.137012 
L 182.90811 207.196102 
L 183.90811 207.284423 
L 184.90811 207.330567 
L 185.90811 207.372978 
L 186.90811 207.403471 
L 187.90811 207.429516 
L 188.90811 207.450716 
L 189.90811 207.505017 
L 190.90811 207.532955 
L 191.90811 207.562678 
L 192.90811 207.588073 
L 193.90811 207.599274 
L 194.90811 207.609398 
L 195.90811 207.609193 
L 196.90811 207.599683 
L 197.90811 207.58803 
L 198.90811 207.557001 
L 199.90811 207.545833 
L 200.90811 207.515715 
L 201.90811 207.455938 
L 202.90811 207.418747 
L 203.90811 207.379651 
L 204.90811 207.337211 
L 205.90811 207.304446 
L 206.90811 207.237019 
L 207.90811 207.197893 
L 208.90811 207.155219 
L 209.90811 207.084638 
L 210.90811 207.048247 
L 211.90811 206.989844 
L 212.90811 206.878892 
L 213.90811 206.808233 
L 214.90811 206.695294 
L 215.90811 206.649521 
L 217.800088 206.588237 
" clip-path="url(#pa7dc37f511)" style="fill: none; stroke: #1f77b4; stroke-opacity: 0.5; stroke-width: 0.2; stroke-linecap: square"/>
   <path d="M 171.90811 165.146066 
L 172.90811 165.177502 
L 173.90811 165.214443 
L 174.90811 165.312189 
L 175.90811 165.344711 
L 176.90811 165.418335 
L 177.90811 165.456901 
L 178.90811 165.492314 
L 179.90811 165.549954 
L 180.90811 165.62034 
L 181.90811 165.672304 
L 182.90811 165.731394 
L 183.90811 165.819715 
L 184.90811 165.865859 
L 185.90811 165.90827 
L 186.90811 165.938763 
L 187.90811 165.964808 
L 188.90811 165.986008 
L 189.90811 166.040309 
L 190.90811 166.068247 
L 191.90811 166.097971 
L 192.90811 166.123366 
L 193.90811 166.134566 
L 194.90811 166.14469 
L 195.90811 166.144486 
L 196.90811 166.134976 
L 197.90811 166.123322 
L 198.90811 166.092293 
L 199.90811 166.081125 
L 200.90811 166.051007 
L 201.90811 165.99123 
L 202.90811 165.954039 
L 203.90811 165.914943 
L 204.90811 165.872503 
L 205.90811 165.839738 
L 206.90811 165.772312 
L 207.90811 165.733186 
L 208.90811 165.690511 
L 209.90811 165.619931 
L 210.90811 165.58354 
L 211.90811 165.525137 
L 212.90811 165.414184 
L 213.90811 165.343526 
L 214.90811 165.230586 
L 215.90811 165.184813 
L 217.800088 165.12353 
" clip-path="url(#pa7dc37f511)" style="fill: none; stroke: #1f77b4; stroke-opacity: 0.5; stroke-width: 0.2; stroke-linecap: square"/>
   <path d="M 171.90811 182.289879 
L 172.90811 182.321315 
L 173.90811 182.358256 
L 174.90811 182.456002 
L 175.90811 182.488524 
L 176.90811 182.562148 
L 177.90811 182.600714 
L 178.90811 182.636127 
L 179.90811 182.693767 
L 180.90811 182.764153 
L 181.90811 182.816118 
L 182.90811 182.875207 
L 183.90811 182.963528 
L 184.90811 183.009673 
L 185.90811 183.052083 
L 186.90811 183.082576 
L 187.90811 183.108621 
L 188.90811 183.129821 
L 189.90811 183.184122 
L 190.90811 183.21206 
L 191.90811 183.241784 
L 192.90811 183.267179 
L 193.90811 183.278379 
L 194.90811 183.288503 
L 195.90811 183.288299 
L 196.90811 183.278789 
L 197.90811 183.267135 
L 198.90811 183.236106 
L 199.90811 183.224938 
L 200.90811 183.19482 
L 201.90811 183.135044 
L 202.90811 183.097852 
L 203.90811 183.058756 
L 204.90811 183.016316 
L 205.90811 182.983551 
L 206.90811 182.916125 
L 207.90811 182.876999 
L 208.90811 182.834324 
L 209.90811 182.763744 
L 210.90811 182.727353 
L 211.90811 182.66895 
L 212.90811 182.557997 
L 213.90811 182.487339 
L 214.90811 182.374399 
L 215.90811 182.328626 
L 217.800088 182.267343 
" clip-path="url(#pa7dc37f511)" style="fill: none; stroke: #1f77b4; stroke-opacity: 0.5; stroke-width: 0.2; stroke-linecap: square"/>
   <path d="M 171.90811 113.647771 
L 172.90811 113.679207 
L 173.90811 113.716147 
L 174.90811 113.813894 
L 175.90811 113.846415 
L 176.90811 113.92004 
L 177.90811 113.958606 
L 178.90811 113.994019 
L 179.90811 114.051659 
L 180.90811 114.122045 
L 181.90811 114.174009 
L 182.90811 114.233099 
L 183.90811 114.32142 
L 184.90811 114.367564 
L 185.90811 114.409975 
L 186.90811 114.440468 
L 187.90811 114.466513 
L 188.90811 114.487713 
L 189.90811 114.542014 
L 190.90811 114.569952 
L 191.90811 114.599676 
L 192.90811 114.62507 
L 193.90811 114.636271 
L 194.90811 114.646395 
L 195.90811 114.64619 
L 196.90811 114.636681 
L 197.90811 114.625027 
L 198.90811 114.593998 
L 199.90811 114.58283 
L 200.90811 114.552712 
L 201.90811 114.492935 
L 202.90811 114.455744 
L 203.90811 114.416648 
L 204.90811 114.374208 
L 205.90811 114.341443 
L 206.90811 114.274016 
L 207.90811 114.234891 
L 208.90811 114.192216 
L 209.90811 114.121635 
L 210.90811 114.085245 
L 211.90811 114.026841 
L 212.90811 113.915889 
L 213.90811 113.84523 
L 214.90811 113.732291 
L 215.90811 113.686518 
L 217.800088 113.625235 
" clip-path="url(#pa7dc37f511)" style="fill: none; stroke: #1f77b4; stroke-opacity: 0.5; stroke-width: 0.2; stroke-linecap: square"/>
   <path d="M 171.90811 107.662334 
L 172.90811 107.693771 
L 173.90811 107.730711 
L 174.90811 107.828458 
L 175.90811 107.860979 
L 176.90811 107.934604 
L 177.90811 107.973169 
L 178.90811 108.008583 
L 179.90811 108.066223 
L 180.90811 108.136609 
L 181.90811 108.188573 
L 182.90811 108.247663 
L 183.90811 108.335984 
L 184.90811 108.382128 
L 185.90811 108.424539 
L 186.90811 108.455032 
L 187.90811 108.481077 
L 188.90811 108.502277 
L 189.90811 108.556578 
L 190.90811 108.584515 
L 191.90811 108.614239 
L 192.90811 108.639634 
L 193.90811 108.650834 
L 194.90811 108.660958 
L 195.90811 108.660754 
L 196.90811 108.651244 
L 197.90811 108.639591 
L 198.90811 108.608561 
L 199.90811 108.597393 
L 200.90811 108.567276 
L 201.90811 108.507499 
L 202.90811 108.470307 
L 203.90811 108.431211 
L 204.90811 108.388772 
L 205.90811 108.356007 
L 206.90811 108.28858 
L 207.90811 108.249454 
L 208.90811 108.20678 
L 209.90811 108.136199 
L 210.90811 108.099808 
L 211.90811 108.041405 
L 212.90811 107.930452 
L 213.90811 107.859794 
L 214.90811 107.746854 
L 215.90811 107.701081 
L 217.800088 107.639798 
" clip-path="url(#pa7dc37f511)" style="fill: none; stroke: #1f77b4; stroke-opacity: 0.5; stroke-width: 0.2; stroke-linecap: square"/>
   <path d="M 171.90811 185.361034 
L 172.90811 185.392471 
L 173.90811 185.429411 
L 174.90811 185.527158 
L 175.90811 185.559679 
L 176.90811 185.633304 
L 177.90811 185.67187 
L 178.90811 185.707283 
L 179.90811 185.764923 
L 180.90811 185.835309 
L 181.90811 185.887273 
L 182.90811 185.946363 
L 183.90811 186.034684 
L 184.90811 186.080828 
L 185.90811 186.123239 
L 186.90811 186.153732 
L 187.90811 186.179777 
L 188.90811 186.200977 
L 189.90811 186.255278 
L 190.90811 186.283215 
L 191.90811 186.312939 
L 192.90811 186.338334 
L 193.90811 186.349535 
L 194.90811 186.359659 
L 195.90811 186.359454 
L 196.90811 186.349944 
L 197.90811 186.338291 
L 198.90811 186.307261 
L 199.90811 186.296094 
L 200.90811 186.265976 
L 201.90811 186.206199 
L 202.90811 186.169008 
L 203.90811 186.129911 
L 204.90811 186.087472 
L 205.90811 186.054707 
L 206.90811 185.98728 
L 207.90811 185.948154 
L 208.90811 185.90548 
L 209.90811 185.834899 
L 210.90811 185.798508 
L 211.90811 185.740105 
L 212.90811 185.629153 
L 213.90811 185.558494 
L 214.90811 185.445554 
L 215.90811 185.399782 
L 217.800088 185.338498 
" clip-path="url(#pa7dc37f511)" style="fill: none; stroke: #1f77b4; stroke-opacity: 0.5; stroke-width: 0.2; stroke-linecap: square"/>
   <path d="M 217.800088 257.355653 
L 216.800088 257.324216 
L 215.800088 257.287276 
L 214.800088 257.189529 
L 213.800088 257.157008 
L 212.800088 257.083383 
L 211.800088 257.044817 
L 210.800088 257.009404 
L 209.800088 256.951764 
L 208.800088 256.881378 
L 207.800088 256.829414 
L 206.800088 256.770324 
L 205.800088 256.682003 
L 204.800088 256.635859 
L 203.800088 256.593448 
L 202.800088 256.562955 
L 201.800088 256.53691 
L 200.800088 256.51571 
L 199.800088 256.461409 
L 198.800088 256.433472 
L 197.800088 256.403748 
L 196.800088 256.378353 
L 195.800088 256.367152 
L 194.800088 256.357028 
L 193.800088 256.357233 
L 192.800088 256.366743 
L 191.800088 256.378396 
L 190.800088 256.409425 
L 189.800088 256.420593 
L 188.800088 256.450711 
L 187.800088 256.510488 
L 186.800088 256.547679 
L 185.800088 256.586775 
L 184.800088 256.629215 
L 183.800088 256.66198 
L 182.800088 256.729407 
L 181.800088 256.768533 
L 180.800088 256.811207 
L 179.800088 256.881788 
L 178.800088 256.918179 
L 177.800088 256.976582 
L 176.800088 257.087534 
L 175.800088 257.158193 
L 174.800088 257.271133 
L 173.800088 257.316905 
L 171.90811 257.378189 
" clip-path="url(#pa7dc37f511)" style="fill: none; stroke: #ff7f0e; stroke-opacity: 0.5; stroke-width: 0.2; stroke-linecap: square"/>
   <path d="M 217.800088 71.364614 
L 216.800088 71.333178 
L 215.800088 71.296238 
L 214.800088 71.198491 
L 213.800088 71.165969 
L 212.800088 71.092345 
L 211.800088 71.053779 
L 210.800088 71.018366 
L 209.800088 70.960726 
L 208.800088 70.89034 
L 207.800088 70.838376 
L 206.800088 70.779286 
L 205.800088 70.690965 
L 204.800088 70.644821 
L 203.800088 70.60241 
L 202.800088 70.571917 
L 201.800088 70.545872 
L 200.800088 70.524672 
L 199.800088 70.470371 
L 198.800088 70.442433 
L 197.800088 70.412709 
L 196.800088 70.387315 
L 195.800088 70.376114 
L 194.800088 70.36599 
L 193.800088 70.366194 
L 192.800088 70.375704 
L 191.800088 70.387358 
L 190.800088 70.418387 
L 189.800088 70.429555 
L 188.800088 70.459673 
L 187.800088 70.51945 
L 186.800088 70.556641 
L 185.800088 70.595737 
L 184.800088 70.638177 
L 183.800088 70.670942 
L 182.800088 70.738368 
L 181.800088 70.777494 
L 180.800088 70.820169 
L 179.800088 70.890749 
L 178.800088 70.92714 
L 177.800088 70.985544 
L 176.800088 71.096496 
L 175.800088 71.167154 
L 174.800088 71.280094 
L 173.800088 71.325867 
L 171.90811 71.38715 
" clip-path="url(#pa7dc37f511)" style="fill: none; stroke: #ff7f0e; stroke-opacity: 0.5; stroke-width: 0.2; stroke-linecap: square"/>
   <path d="M 217.800088 57.578203 
L 216.800088 57.546766 
L 215.800088 57.509826 
L 214.800088 57.412079 
L 213.800088 57.379558 
L 212.800088 57.305933 
L 211.800088 57.267367 
L 210.800088 57.231954 
L 209.800088 57.174314 
L 208.800088 57.103928 
L 207.800088 57.051964 
L 206.800088 56.992874 
L 205.800088 56.904553 
L 204.800088 56.858409 
L 203.800088 56.815998 
L 202.800088 56.785505 
L 201.800088 56.75946 
L 200.800088 56.73826 
L 199.800088 56.683959 
L 198.800088 56.656022 
L 197.800088 56.626298 
L 196.800088 56.600903 
L 195.800088 56.589702 
L 194.800088 56.579578 
L 193.800088 56.579783 
L 192.800088 56.589293 
L 191.800088 56.600946 
L 190.800088 56.631975 
L 189.800088 56.643143 
L 188.800088 56.673261 
L 187.800088 56.733038 
L 186.800088 56.770229 
L 185.800088 56.809325 
L 184.800088 56.851765 
L 183.800088 56.88453 
L 182.800088 56.951957 
L 181.800088 56.991083 
L 180.800088 57.033757 
L 179.800088 57.104338 
L 178.800088 57.140729 
L 177.800088 57.199132 
L 176.800088 57.310084 
L 175.800088 57.380743 
L 174.800088 57.493683 
L 173.800088 57.539455 
L 171.90811 57.600739 
" clip-path="url(#pa7dc37f511)" style="fill: none; stroke: #ff7f0e; stroke-opacity: 0.5; stroke-width: 0.2; stroke-linecap: square"/>
   <path d="M 217.800088 42.444823 
L 216.800088 42.413386 
L 215.800088 42.376446 
L 214.800088 42.278699 
L 213.800088 42.246178 
L 212.800088 42.172553 
L 211.800088 42.133987 
L 210.800088 42.098574 
L 209.800088 42.040934 
L 208.800088 41.970548 
L 207.800088 41.918584 
L 206.800088 41.859494 
L 205.800088 41.771173 
L 204.800088 41.725029 
L 203.800088 41.682618 
L 202.800088 41.652125 
L 201.800088 41.62608 
L 200.800088 41.60488 
L 199.800088 41.550579 
L 198.800088 41.522642 
L 197.800088 41.492918 
L 196.800088 41.467523 
L 195.800088 41.456322 
L 194.800088 41.446198 
L 193.800088 41.446403 
L 192.800088 41.455913 
L 191.800088 41.467566 
L 190.800088 41.498596 
L 189.800088 41.509763 
L 188.800088 41.539881 
L 187.800088 41.599658 
L 186.800088 41.636849 
L 185.800088 41.675946 
L 184.800088 41.718385 
L 183.800088 41.75115 
L 182.800088 41.818577 
L 181.800088 41.857703 
L 180.800088 41.900377 
L 179.800088 41.970958 
L 178.800088 42.007349 
L 177.800088 42.065752 
L 176.800088 42.176704 
L 175.800088 42.247363 
L 174.800088 42.360303 
L 173.800088 42.406075 
L 171.90811 42.467359 
" clip-path="url(#pa7dc37f511)" style="fill: none; stroke: #ff7f0e; stroke-opacity: 0.5; stroke-width: 0.2; stroke-linecap: square"/>
   <path d="M 217.800088 175.252699 
L 216.800088 175.221262 
L 215.800088 175.184322 
L 214.800088 175.086575 
L 213.800088 175.054054 
L 212.800088 174.980429 
L 211.800088 174.941863 
L 210.800088 174.90645 
L 209.800088 174.84881 
L 208.800088 174.778424 
L 207.800088 174.72646 
L 206.800088 174.66737 
L 205.800088 174.579049 
L 204.800088 174.532905 
L 203.800088 174.490494 
L 202.800088 174.460001 
L 201.800088 174.433956 
L 200.800088 174.412756 
L 199.800088 174.358455 
L 198.800088 174.330518 
L 197.800088 174.300794 
L 196.800088 174.275399 
L 195.800088 174.264198 
L 194.800088 174.254074 
L 193.800088 174.254279 
L 192.800088 174.263789 
L 191.800088 174.275442 
L 190.800088 174.306472 
L 189.800088 174.317639 
L 188.800088 174.347757 
L 187.800088 174.407534 
L 186.800088 174.444725 
L 185.800088 174.483822 
L 184.800088 174.526261 
L 183.800088 174.559026 
L 182.800088 174.626453 
L 181.800088 174.665579 
L 180.800088 174.708253 
L 179.800088 174.778834 
L 178.800088 174.815225 
L 177.800088 174.873628 
L 176.800088 174.98458 
L 175.800088 175.055239 
L 174.800088 175.168179 
L 173.800088 175.213951 
L 171.90811 175.275235 
" clip-path="url(#pa7dc37f511)" style="fill: none; stroke: #ff7f0e; stroke-opacity: 0.5; stroke-width: 0.2; stroke-linecap: square"/>
   <path d="M 217.800088 239.765377 
L 216.800088 239.73394 
L 215.800088 239.697 
L 214.800088 239.599254 
L 213.800088 239.566732 
L 212.800088 239.493107 
L 211.800088 239.454542 
L 210.800088 239.419129 
L 209.800088 239.361489 
L 208.800088 239.291102 
L 207.800088 239.239138 
L 206.800088 239.180048 
L 205.800088 239.091727 
L 204.800088 239.045583 
L 203.800088 239.003172 
L 202.800088 238.97268 
L 201.800088 238.946635 
L 200.800088 238.925434 
L 199.800088 238.871133 
L 198.800088 238.843196 
L 197.800088 238.813472 
L 196.800088 238.788077 
L 195.800088 238.776877 
L 194.800088 238.766753 
L 193.800088 238.766957 
L 192.800088 238.776467 
L 191.800088 238.78812 
L 190.800088 238.81915 
L 189.800088 238.830318 
L 188.800088 238.860435 
L 187.800088 238.920212 
L 186.800088 238.957404 
L 185.800088 238.9965 
L 184.800088 239.038939 
L 183.800088 239.071705 
L 182.800088 239.139131 
L 181.800088 239.178257 
L 180.800088 239.220931 
L 179.800088 239.291512 
L 178.800088 239.327903 
L 177.800088 239.386306 
L 176.800088 239.497259 
L 175.800088 239.567917 
L 174.800088 239.680857 
L 173.800088 239.72663 
L 171.90811 239.787913 
" clip-path="url(#pa7dc37f511)" style="fill: none; stroke: #ff7f0e; stroke-opacity: 0.5; stroke-width: 0.2; stroke-linecap: square"/>
   <path d="M 217.800088 196.049739 
L 216.800088 196.018303 
L 215.800088 195.981363 
L 214.800088 195.883616 
L 213.800088 195.851095 
L 212.800088 195.77747 
L 211.800088 195.738904 
L 210.800088 195.703491 
L 209.800088 195.645851 
L 208.800088 195.575465 
L 207.800088 195.523501 
L 206.800088 195.464411 
L 205.800088 195.37609 
L 204.800088 195.329946 
L 203.800088 195.287535 
L 202.800088 195.257042 
L 201.800088 195.230997 
L 200.800088 195.209797 
L 199.800088 195.155496 
L 198.800088 195.127558 
L 197.800088 195.097834 
L 196.800088 195.07244 
L 195.800088 195.061239 
L 194.800088 195.051115 
L 193.800088 195.05132 
L 192.800088 195.06083 
L 191.800088 195.072483 
L 190.800088 195.103512 
L 189.800088 195.11468 
L 188.800088 195.144798 
L 187.800088 195.204575 
L 186.800088 195.241766 
L 185.800088 195.280862 
L 184.800088 195.323302 
L 183.800088 195.356067 
L 182.800088 195.423494 
L 181.800088 195.462619 
L 180.800088 195.505294 
L 179.800088 195.575875 
L 178.800088 195.612265 
L 177.800088 195.670669 
L 176.800088 195.781621 
L 175.800088 195.85228 
L 174.800088 195.965219 
L 173.800088 196.010992 
L 171.90811 196.072276 
" clip-path="url(#pa7dc37f511)" style="fill: none; stroke: #ff7f0e; stroke-opacity: 0.5; stroke-width: 0.2; stroke-linecap: square"/>
   <path d="M 217.800088 141.369581 
L 216.800088 141.338144 
L 215.800088 141.301204 
L 214.800088 141.203457 
L 213.800088 141.170936 
L 212.800088 141.097311 
L 211.800088 141.058745 
L 210.800088 141.023332 
L 209.800088 140.965692 
L 208.800088 140.895306 
L 207.800088 140.843342 
L 206.800088 140.784252 
L 205.800088 140.695931 
L 204.800088 140.649787 
L 203.800088 140.607376 
L 202.800088 140.576883 
L 201.800088 140.550838 
L 200.800088 140.529638 
L 199.800088 140.475337 
L 198.800088 140.4474 
L 197.800088 140.417676 
L 196.800088 140.392281 
L 195.800088 140.38108 
L 194.800088 140.370956 
L 193.800088 140.371161 
L 192.800088 140.380671 
L 191.800088 140.392324 
L 190.800088 140.423354 
L 189.800088 140.434521 
L 188.800088 140.464639 
L 187.800088 140.524416 
L 186.800088 140.561607 
L 185.800088 140.600704 
L 184.800088 140.643143 
L 183.800088 140.675908 
L 182.800088 140.743335 
L 181.800088 140.782461 
L 180.800088 140.825135 
L 179.800088 140.895716 
L 178.800088 140.932107 
L 177.800088 140.99051 
L 176.800088 141.101462 
L 175.800088 141.172121 
L 174.800088 141.285061 
L 173.800088 141.330833 
L 171.90811 141.392117 
" clip-path="url(#pa7dc37f511)" style="fill: none; stroke: #ff7f0e; stroke-opacity: 0.5; stroke-width: 0.2; stroke-linecap: square"/>
   <path d="M 217.800088 201.392291 
L 216.800088 201.360854 
L 215.800088 201.323914 
L 214.800088 201.226167 
L 213.800088 201.193646 
L 212.800088 201.120021 
L 211.800088 201.081456 
L 210.800088 201.046042 
L 209.800088 200.988402 
L 208.800088 200.918016 
L 207.800088 200.866052 
L 206.800088 200.806962 
L 205.800088 200.718641 
L 204.800088 200.672497 
L 203.800088 200.630086 
L 202.800088 200.599593 
L 201.800088 200.573548 
L 200.800088 200.552348 
L 199.800088 200.498047 
L 198.800088 200.47011 
L 197.800088 200.440386 
L 196.800088 200.414991 
L 195.800088 200.403791 
L 194.800088 200.393667 
L 193.800088 200.393871 
L 192.800088 200.403381 
L 191.800088 200.415034 
L 190.800088 200.446064 
L 189.800088 200.457232 
L 188.800088 200.487349 
L 187.800088 200.547126 
L 186.800088 200.584318 
L 185.800088 200.623414 
L 184.800088 200.665853 
L 183.800088 200.698618 
L 182.800088 200.766045 
L 181.800088 200.805171 
L 180.800088 200.847845 
L 179.800088 200.918426 
L 178.800088 200.954817 
L 177.800088 201.01322 
L 176.800088 201.124173 
L 175.800088 201.194831 
L 174.800088 201.307771 
L 173.800088 201.353544 
L 171.90811 201.414827 
" clip-path="url(#pa7dc37f511)" style="fill: none; stroke: #ff7f0e; stroke-opacity: 0.5; stroke-width: 0.2; stroke-linecap: square"/>
   <path d="M 217.800088 99.7748 
L 216.800088 99.743364 
L 215.800088 99.706423 
L 214.800088 99.608677 
L 213.800088 99.576155 
L 212.800088 99.50253 
L 211.800088 99.463965 
L 210.800088 99.428552 
L 209.800088 99.370912 
L 208.800088 99.300526 
L 207.800088 99.248561 
L 206.800088 99.189472 
L 205.800088 99.101151 
L 204.800088 99.055006 
L 203.800088 99.012595 
L 202.800088 98.982103 
L 201.800088 98.956058 
L 200.800088 98.934858 
L 199.800088 98.880557 
L 198.800088 98.852619 
L 197.800088 98.822895 
L 196.800088 98.7975 
L 195.800088 98.7863 
L 194.800088 98.776176 
L 193.800088 98.77638 
L 192.800088 98.78589 
L 191.800088 98.797544 
L 190.800088 98.828573 
L 189.800088 98.839741 
L 188.800088 98.869858 
L 187.800088 98.929635 
L 186.800088 98.966827 
L 185.800088 99.005923 
L 184.800088 99.048363 
L 183.800088 99.081128 
L 182.800088 99.148554 
L 181.800088 99.18768 
L 180.800088 99.230355 
L 179.800088 99.300935 
L 178.800088 99.337326 
L 177.800088 99.395729 
L 176.800088 99.506682 
L 175.800088 99.57734 
L 174.800088 99.69028 
L 173.800088 99.736053 
L 171.90811 99.797336 
" clip-path="url(#pa7dc37f511)" style="fill: none; stroke: #ff7f0e; stroke-opacity: 0.5; stroke-width: 0.2; stroke-linecap: square"/>
   <path d="M 326.765537 200.47251 
L 327.765537 200.503947 
L 328.765537 200.540887 
L 329.765537 200.638634 
L 330.765537 200.671155 
L 331.765537 200.74478 
L 332.765537 200.783346 
L 333.765537 200.818759 
L 334.765537 200.876399 
L 335.765537 200.946785 
L 336.765537 200.998749 
L 337.765537 201.057839 
L 338.765537 201.14616 
L 339.765537 201.192304 
L 340.765537 201.234715 
L 341.765537 201.265208 
L 342.765537 201.291253 
L 343.765537 201.312453 
L 344.765537 201.366754 
L 345.765537 201.394691 
L 346.765537 201.424415 
L 347.765537 201.44981 
L 348.765537 201.461011 
L 349.765537 201.471135 
L 350.765537 201.47093 
L 351.765537 201.46142 
L 352.765537 201.449767 
L 353.765537 201.418738 
L 354.765537 201.40757 
L 355.765537 201.377452 
L 356.765537 201.317675 
L 357.765537 201.280484 
L 358.765537 201.241388 
L 359.765537 201.198948 
L 360.765537 201.166183 
L 361.765537 201.098756 
L 362.765537 201.05963 
L 363.765537 201.016956 
L 364.765537 200.946375 
L 365.765537 200.909984 
L 366.765537 200.851581 
L 367.765537 200.740629 
L 368.765537 200.66997 
L 369.765537 200.55703 
L 370.765537 200.511258 
L 372.657515 200.449974 
" clip-path="url(#pa7dc37f511)" style="fill: none; stroke: #ff7f0e; stroke-opacity: 0.5; stroke-width: 0.2; stroke-linecap: square"/>
   <path d="M 326.765537 32.149442 
L 327.765537 32.180878 
L 328.765537 32.217818 
L 329.765537 32.315565 
L 330.765537 32.348086 
L 331.765537 32.421711 
L 332.765537 32.460277 
L 333.765537 32.49569 
L 334.765537 32.55333 
L 335.765537 32.623716 
L 336.765537 32.67568 
L 337.765537 32.73477 
L 338.765537 32.823091 
L 339.765537 32.869235 
L 340.765537 32.911646 
L 341.765537 32.942139 
L 342.765537 32.968184 
L 343.765537 32.989384 
L 344.765537 33.043685 
L 345.765537 33.071623 
L 346.765537 33.101347 
L 347.765537 33.126741 
L 348.765537 33.137942 
L 349.765537 33.148066 
L 350.765537 33.147861 
L 351.765537 33.138352 
L 352.765537 33.126698 
L 353.765537 33.095669 
L 354.765537 33.084501 
L 355.765537 33.054383 
L 356.765537 32.994606 
L 357.765537 32.957415 
L 358.765537 32.918319 
L 359.765537 32.875879 
L 360.765537 32.843114 
L 361.765537 32.775687 
L 362.765537 32.736562 
L 363.765537 32.693887 
L 364.765537 32.623306 
L 365.765537 32.586916 
L 366.765537 32.528512 
L 367.765537 32.41756 
L 368.765537 32.346901 
L 369.765537 32.233962 
L 370.765537 32.188189 
L 372.657515 32.126906 
" clip-path="url(#pa7dc37f511)" style="fill: none; stroke: #ff7f0e; stroke-opacity: 0.5; stroke-width: 0.2; stroke-linecap: square"/>
   <path d="M 326.765537 100.027303 
L 327.765537 100.058739 
L 328.765537 100.095679 
L 329.765537 100.193426 
L 330.765537 100.225948 
L 331.765537 100.299572 
L 332.765537 100.338138 
L 333.765537 100.373551 
L 334.765537 100.431191 
L 335.765537 100.501577 
L 336.765537 100.553541 
L 337.765537 100.612631 
L 338.765537 100.700952 
L 339.765537 100.747096 
L 340.765537 100.789507 
L 341.765537 100.82 
L 342.765537 100.846045 
L 343.765537 100.867245 
L 344.765537 100.921546 
L 345.765537 100.949484 
L 346.765537 100.979208 
L 347.765537 101.004602 
L 348.765537 101.015803 
L 349.765537 101.025927 
L 350.765537 101.025722 
L 351.765537 101.016213 
L 352.765537 101.004559 
L 353.765537 100.97353 
L 354.765537 100.962362 
L 355.765537 100.932244 
L 356.765537 100.872467 
L 357.765537 100.835276 
L 358.765537 100.79618 
L 359.765537 100.75374 
L 360.765537 100.720975 
L 361.765537 100.653549 
L 362.765537 100.614423 
L 363.765537 100.571748 
L 364.765537 100.501168 
L 365.765537 100.464777 
L 366.765537 100.406373 
L 367.765537 100.295421 
L 368.765537 100.224763 
L 369.765537 100.111823 
L 370.765537 100.06605 
L 372.657515 100.004767 
" clip-path="url(#pa7dc37f511)" style="fill: none; stroke: #ff7f0e; stroke-opacity: 0.5; stroke-width: 0.2; stroke-linecap: square"/>
   <path d="M 326.765537 91.189827 
L 327.765537 91.221263 
L 328.765537 91.258203 
L 329.765537 91.35595 
L 330.765537 91.388472 
L 331.765537 91.462096 
L 332.765537 91.500662 
L 333.765537 91.536075 
L 334.765537 91.593715 
L 335.765537 91.664101 
L 336.765537 91.716065 
L 337.765537 91.775155 
L 338.765537 91.863476 
L 339.765537 91.90962 
L 340.765537 91.952031 
L 341.765537 91.982524 
L 342.765537 92.008569 
L 343.765537 92.029769 
L 344.765537 92.08407 
L 345.765537 92.112008 
L 346.765537 92.141732 
L 347.765537 92.167126 
L 348.765537 92.178327 
L 349.765537 92.188451 
L 350.765537 92.188246 
L 351.765537 92.178737 
L 352.765537 92.167083 
L 353.765537 92.136054 
L 354.765537 92.124886 
L 355.765537 92.094768 
L 356.765537 92.034991 
L 357.765537 91.9978 
L 358.765537 91.958704 
L 359.765537 91.916264 
L 360.765537 91.883499 
L 361.765537 91.816073 
L 362.765537 91.776947 
L 363.765537 91.734272 
L 364.765537 91.663691 
L 365.765537 91.627301 
L 366.765537 91.568897 
L 367.765537 91.457945 
L 368.765537 91.387287 
L 369.765537 91.274347 
L 370.765537 91.228574 
L 372.657515 91.167291 
" clip-path="url(#pa7dc37f511)" style="fill: none; stroke: #ff7f0e; stroke-opacity: 0.5; stroke-width: 0.2; stroke-linecap: square"/>
   <path d="M 326.765537 88.386897 
L 327.765537 88.418333 
L 328.765537 88.455274 
L 329.765537 88.55302 
L 330.765537 88.585542 
L 331.765537 88.659167 
L 332.765537 88.697732 
L 333.765537 88.733145 
L 334.765537 88.790785 
L 335.765537 88.861172 
L 336.765537 88.913136 
L 337.765537 88.972225 
L 338.765537 89.060546 
L 339.765537 89.106691 
L 340.765537 89.149102 
L 341.765537 89.179594 
L 342.765537 89.205639 
L 343.765537 89.226839 
L 344.765537 89.28114 
L 345.765537 89.309078 
L 346.765537 89.338802 
L 347.765537 89.364197 
L 348.765537 89.375397 
L 349.765537 89.385521 
L 350.765537 89.385317 
L 351.765537 89.375807 
L 352.765537 89.364153 
L 353.765537 89.333124 
L 354.765537 89.321956 
L 355.765537 89.291839 
L 356.765537 89.232062 
L 357.765537 89.19487 
L 358.765537 89.155774 
L 359.765537 89.113334 
L 360.765537 89.080569 
L 361.765537 89.013143 
L 362.765537 88.974017 
L 363.765537 88.931342 
L 364.765537 88.860762 
L 365.765537 88.824371 
L 366.765537 88.765968 
L 367.765537 88.655015 
L 368.765537 88.584357 
L 369.765537 88.471417 
L 370.765537 88.425644 
L 372.657515 88.364361 
" clip-path="url(#pa7dc37f511)" style="fill: none; stroke: #ff7f0e; stroke-opacity: 0.5; stroke-width: 0.2; stroke-linecap: square"/>
   <path d="M 326.765537 159.151117 
L 327.765537 159.182554 
L 328.765537 159.219494 
L 329.765537 159.317241 
L 330.765537 159.349762 
L 331.765537 159.423387 
L 332.765537 159.461953 
L 333.765537 159.497366 
L 334.765537 159.555006 
L 335.765537 159.625392 
L 336.765537 159.677356 
L 337.765537 159.736446 
L 338.765537 159.824767 
L 339.765537 159.870911 
L 340.765537 159.913322 
L 341.765537 159.943815 
L 342.765537 159.96986 
L 343.765537 159.99106 
L 344.765537 160.045361 
L 345.765537 160.073298 
L 346.765537 160.103022 
L 347.765537 160.128417 
L 348.765537 160.139618 
L 349.765537 160.149742 
L 350.765537 160.149537 
L 351.765537 160.140027 
L 352.765537 160.128374 
L 353.765537 160.097345 
L 354.765537 160.086177 
L 355.765537 160.056059 
L 356.765537 159.996282 
L 357.765537 159.959091 
L 358.765537 159.919995 
L 359.765537 159.877555 
L 360.765537 159.84479 
L 361.765537 159.777363 
L 362.765537 159.738237 
L 363.765537 159.695563 
L 364.765537 159.624982 
L 365.765537 159.588591 
L 366.765537 159.530188 
L 367.765537 159.419236 
L 368.765537 159.348577 
L 369.765537 159.235637 
L 370.765537 159.189865 
L 372.657515 159.128581 
" clip-path="url(#pa7dc37f511)" style="fill: none; stroke: #ff7f0e; stroke-opacity: 0.5; stroke-width: 0.2; stroke-linecap: square"/>
   <path d="M 326.765537 22.815556 
L 327.765537 22.846993 
L 328.765537 22.883933 
L 329.765537 22.981679 
L 330.765537 23.014201 
L 331.765537 23.087826 
L 332.765537 23.126391 
L 333.765537 23.161805 
L 334.765537 23.219444 
L 335.765537 23.289831 
L 336.765537 23.341795 
L 337.765537 23.400885 
L 338.765537 23.489206 
L 339.765537 23.53535 
L 340.765537 23.577761 
L 341.765537 23.608253 
L 342.765537 23.634298 
L 343.765537 23.655499 
L 344.765537 23.7098 
L 345.765537 23.737737 
L 346.765537 23.767461 
L 347.765537 23.792856 
L 348.765537 23.804056 
L 349.765537 23.81418 
L 350.765537 23.813976 
L 351.765537 23.804466 
L 352.765537 23.792813 
L 353.765537 23.761783 
L 354.765537 23.750615 
L 355.765537 23.720498 
L 356.765537 23.660721 
L 357.765537 23.623529 
L 358.765537 23.584433 
L 359.765537 23.541994 
L 360.765537 23.509229 
L 361.765537 23.441802 
L 362.765537 23.402676 
L 363.765537 23.360002 
L 364.765537 23.289421 
L 365.765537 23.25303 
L 366.765537 23.194627 
L 367.765537 23.083674 
L 368.765537 23.013016 
L 369.765537 22.900076 
L 370.765537 22.854303 
L 372.657515 22.79302 
" clip-path="url(#pa7dc37f511)" style="fill: none; stroke: #ff7f0e; stroke-opacity: 0.5; stroke-width: 0.2; stroke-linecap: square"/>
   <path d="M 326.765537 242.286443 
L 327.765537 242.31788 
L 328.765537 242.35482 
L 329.765537 242.452567 
L 330.765537 242.485088 
L 331.765537 242.558713 
L 332.765537 242.597278 
L 333.765537 242.632692 
L 334.765537 242.690332 
L 335.765537 242.760718 
L 336.765537 242.812682 
L 337.765537 242.871772 
L 338.765537 242.960093 
L 339.765537 243.006237 
L 340.765537 243.048648 
L 341.765537 243.079141 
L 342.765537 243.105186 
L 343.765537 243.126386 
L 344.765537 243.180687 
L 345.765537 243.208624 
L 346.765537 243.238348 
L 347.765537 243.263743 
L 348.765537 243.274943 
L 349.765537 243.285067 
L 350.765537 243.284863 
L 351.765537 243.275353 
L 352.765537 243.2637 
L 353.765537 243.23267 
L 354.765537 243.221502 
L 355.765537 243.191385 
L 356.765537 243.131608 
L 357.765537 243.094416 
L 358.765537 243.05532 
L 359.765537 243.012881 
L 360.765537 242.980116 
L 361.765537 242.912689 
L 362.765537 242.873563 
L 363.765537 242.830889 
L 364.765537 242.760308 
L 365.765537 242.723917 
L 366.765537 242.665514 
L 367.765537 242.554561 
L 368.765537 242.483903 
L 369.765537 242.370963 
L 370.765537 242.32519 
L 372.657515 242.263907 
" clip-path="url(#pa7dc37f511)" style="fill: none; stroke: #ff7f0e; stroke-opacity: 0.5; stroke-width: 0.2; stroke-linecap: square"/>
   <path d="M 326.765537 225.66031 
L 327.765537 225.691747 
L 328.765537 225.728687 
L 329.765537 225.826433 
L 330.765537 225.858955 
L 331.765537 225.93258 
L 332.765537 225.971145 
L 333.765537 226.006558 
L 334.765537 226.064198 
L 335.765537 226.134585 
L 336.765537 226.186549 
L 337.765537 226.245639 
L 338.765537 226.33396 
L 339.765537 226.380104 
L 340.765537 226.422515 
L 341.765537 226.453007 
L 342.765537 226.479052 
L 343.765537 226.500253 
L 344.765537 226.554554 
L 345.765537 226.582491 
L 346.765537 226.612215 
L 347.765537 226.63761 
L 348.765537 226.64881 
L 349.765537 226.658934 
L 350.765537 226.65873 
L 351.765537 226.64922 
L 352.765537 226.637567 
L 353.765537 226.606537 
L 354.765537 226.595369 
L 355.765537 226.565252 
L 356.765537 226.505475 
L 357.765537 226.468283 
L 358.765537 226.429187 
L 359.765537 226.386748 
L 360.765537 226.353983 
L 361.765537 226.286556 
L 362.765537 226.24743 
L 363.765537 226.204756 
L 364.765537 226.134175 
L 365.765537 226.097784 
L 366.765537 226.039381 
L 367.765537 225.928428 
L 368.765537 225.85777 
L 369.765537 225.74483 
L 370.765537 225.699057 
L 372.657515 225.637774 
" clip-path="url(#pa7dc37f511)" style="fill: none; stroke: #ff7f0e; stroke-opacity: 0.5; stroke-width: 0.2; stroke-linecap: square"/>
   <path d="M 326.765537 239.36141 
L 327.765537 239.392846 
L 328.765537 239.429786 
L 329.765537 239.527533 
L 330.765537 239.560054 
L 331.765537 239.633679 
L 332.765537 239.672245 
L 333.765537 239.707658 
L 334.765537 239.765298 
L 335.765537 239.835684 
L 336.765537 239.887648 
L 337.765537 239.946738 
L 338.765537 240.035059 
L 339.765537 240.081203 
L 340.765537 240.123614 
L 341.765537 240.154107 
L 342.765537 240.180152 
L 343.765537 240.201352 
L 344.765537 240.255653 
L 345.765537 240.283591 
L 346.765537 240.313315 
L 347.765537 240.338709 
L 348.765537 240.34991 
L 349.765537 240.360034 
L 350.765537 240.359829 
L 351.765537 240.350319 
L 352.765537 240.338666 
L 353.765537 240.307637 
L 354.765537 240.296469 
L 355.765537 240.266351 
L 356.765537 240.206574 
L 357.765537 240.169383 
L 358.765537 240.130287 
L 359.765537 240.087847 
L 360.765537 240.055082 
L 361.765537 239.987655 
L 362.765537 239.948529 
L 363.765537 239.905855 
L 364.765537 239.835274 
L 365.765537 239.798883 
L 366.765537 239.74048 
L 367.765537 239.629528 
L 368.765537 239.558869 
L 369.765537 239.44593 
L 370.765537 239.400157 
L 372.657515 239.338873 
" clip-path="url(#pa7dc37f511)" style="fill: none; stroke: #ff7f0e; stroke-opacity: 0.5; stroke-width: 0.2; stroke-linecap: square"/>
   <path d="M 372.657515 199.329014 
L 371.657515 199.297577 
L 370.657515 199.260637 
L 369.657515 199.16289 
L 368.657515 199.130369 
L 367.657515 199.056744 
L 366.657515 199.018178 
L 365.657515 198.982765 
L 364.657515 198.925125 
L 363.657515 198.854739 
L 362.657515 198.802775 
L 361.657515 198.743685 
L 360.657515 198.655364 
L 359.657515 198.60922 
L 358.657515 198.566809 
L 357.657515 198.536316 
L 356.657515 198.510271 
L 355.657515 198.489071 
L 354.657515 198.43477 
L 353.657515 198.406833 
L 352.657515 198.377109 
L 351.657515 198.351714 
L 350.657515 198.340513 
L 349.657515 198.330389 
L 348.657515 198.330594 
L 347.657515 198.340104 
L 346.657515 198.351757 
L 345.657515 198.382786 
L 344.657515 198.393954 
L 343.657515 198.424072 
L 342.657515 198.483849 
L 341.657515 198.52104 
L 340.657515 198.560136 
L 339.657515 198.602576 
L 338.657515 198.635341 
L 337.657515 198.702768 
L 336.657515 198.741894 
L 335.657515 198.784568 
L 334.657515 198.855149 
L 333.657515 198.89154 
L 332.657515 198.949943 
L 331.657515 199.060895 
L 330.657515 199.131554 
L 329.657515 199.244494 
L 328.657515 199.290266 
L 326.765537 199.35155 
" clip-path="url(#pa7dc37f511)" style="fill: none; stroke: #2ca02c; stroke-opacity: 0.5; stroke-width: 0.2; stroke-linecap: square"/>
   <path d="M 372.657515 32.751403 
L 371.657515 32.719967 
L 370.657515 32.683026 
L 369.657515 32.58528 
L 368.657515 32.552758 
L 367.657515 32.479133 
L 366.657515 32.440568 
L 365.657515 32.405155 
L 364.657515 32.347515 
L 363.657515 32.277128 
L 362.657515 32.225164 
L 361.657515 32.166074 
L 360.657515 32.077754 
L 359.657515 32.031609 
L 358.657515 31.989198 
L 357.657515 31.958706 
L 356.657515 31.932661 
L 355.657515 31.911461 
L 354.657515 31.857159 
L 353.657515 31.829222 
L 352.657515 31.799498 
L 351.657515 31.774103 
L 350.657515 31.762903 
L 349.657515 31.752779 
L 348.657515 31.752983 
L 347.657515 31.762493 
L 346.657515 31.774147 
L 345.657515 31.805176 
L 344.657515 31.816344 
L 343.657515 31.846461 
L 342.657515 31.906238 
L 341.657515 31.94343 
L 340.657515 31.982526 
L 339.657515 32.024965 
L 338.657515 32.057731 
L 337.657515 32.125157 
L 336.657515 32.164283 
L 335.657515 32.206957 
L 334.657515 32.277538 
L 333.657515 32.313929 
L 332.657515 32.372332 
L 331.657515 32.483285 
L 330.657515 32.553943 
L 329.657515 32.666883 
L 328.657515 32.712656 
L 326.765537 32.773939 
" clip-path="url(#pa7dc37f511)" style="fill: none; stroke: #2ca02c; stroke-opacity: 0.5; stroke-width: 0.2; stroke-linecap: square"/>
   <path d="M 372.657515 60.189205 
L 371.657515 60.157769 
L 370.657515 60.120828 
L 369.657515 60.023082 
L 368.657515 59.99056 
L 367.657515 59.916936 
L 366.657515 59.87837 
L 365.657515 59.842957 
L 364.657515 59.785317 
L 363.657515 59.714931 
L 362.657515 59.662966 
L 361.657515 59.603877 
L 360.657515 59.515556 
L 359.657515 59.469411 
L 358.657515 59.427001 
L 357.657515 59.396508 
L 356.657515 59.370463 
L 355.657515 59.349263 
L 354.657515 59.294962 
L 353.657515 59.267024 
L 352.657515 59.2373 
L 351.657515 59.211905 
L 350.657515 59.200705 
L 349.657515 59.190581 
L 348.657515 59.190785 
L 347.657515 59.200295 
L 346.657515 59.211949 
L 345.657515 59.242978 
L 344.657515 59.254146 
L 343.657515 59.284264 
L 342.657515 59.34404 
L 341.657515 59.381232 
L 340.657515 59.420328 
L 339.657515 59.462768 
L 338.657515 59.495533 
L 337.657515 59.562959 
L 336.657515 59.602085 
L 335.657515 59.64476 
L 334.657515 59.71534 
L 333.657515 59.751731 
L 332.657515 59.810134 
L 331.657515 59.921087 
L 330.657515 59.991745 
L 329.657515 60.104685 
L 328.657515 60.150458 
L 326.765537 60.211741 
" clip-path="url(#pa7dc37f511)" style="fill: none; stroke: #2ca02c; stroke-opacity: 0.5; stroke-width: 0.2; stroke-linecap: square"/>
   <path d="M 372.657515 247.634039 
L 371.657515 247.602603 
L 370.657515 247.565663 
L 369.657515 247.467916 
L 368.657515 247.435395 
L 367.657515 247.36177 
L 366.657515 247.323204 
L 365.657515 247.287791 
L 364.657515 247.230151 
L 363.657515 247.159765 
L 362.657515 247.107801 
L 361.657515 247.048711 
L 360.657515 246.96039 
L 359.657515 246.914246 
L 358.657515 246.871835 
L 357.657515 246.841342 
L 356.657515 246.815297 
L 355.657515 246.794097 
L 354.657515 246.739796 
L 353.657515 246.711858 
L 352.657515 246.682134 
L 351.657515 246.65674 
L 350.657515 246.645539 
L 349.657515 246.635415 
L 348.657515 246.63562 
L 347.657515 246.64513 
L 346.657515 246.656783 
L 345.657515 246.687812 
L 344.657515 246.69898 
L 343.657515 246.729098 
L 342.657515 246.788875 
L 341.657515 246.826066 
L 340.657515 246.865162 
L 339.657515 246.907602 
L 338.657515 246.940367 
L 337.657515 247.007794 
L 336.657515 247.04692 
L 335.657515 247.089594 
L 334.657515 247.160175 
L 333.657515 247.196566 
L 332.657515 247.254969 
L 331.657515 247.365921 
L 330.657515 247.43658 
L 329.657515 247.549519 
L 328.657515 247.595292 
L 326.765537 247.656576 
" clip-path="url(#pa7dc37f511)" style="fill: none; stroke: #2ca02c; stroke-opacity: 0.5; stroke-width: 0.2; stroke-linecap: square"/>
   <path d="M 372.657515 259.616902 
L 371.657515 259.585466 
L 370.657515 259.548526 
L 369.657515 259.450779 
L 368.657515 259.418257 
L 367.657515 259.344633 
L 366.657515 259.306067 
L 365.657515 259.270654 
L 364.657515 259.213014 
L 363.657515 259.142628 
L 362.657515 259.090664 
L 361.657515 259.031574 
L 360.657515 258.943253 
L 359.657515 258.897109 
L 358.657515 258.854698 
L 357.657515 258.824205 
L 356.657515 258.79816 
L 355.657515 258.77696 
L 354.657515 258.722659 
L 353.657515 258.694721 
L 352.657515 258.664997 
L 351.657515 258.639603 
L 350.657515 258.628402 
L 349.657515 258.618278 
L 348.657515 258.618483 
L 347.657515 258.627992 
L 346.657515 258.639646 
L 345.657515 258.670675 
L 344.657515 258.681843 
L 343.657515 258.711961 
L 342.657515 258.771738 
L 341.657515 258.808929 
L 340.657515 258.848025 
L 339.657515 258.890465 
L 338.657515 258.92323 
L 337.657515 258.990656 
L 336.657515 259.029782 
L 335.657515 259.072457 
L 334.657515 259.143037 
L 333.657515 259.179428 
L 332.657515 259.237832 
L 331.657515 259.348784 
L 330.657515 259.419442 
L 329.657515 259.532382 
L 328.657515 259.578155 
L 326.765537 259.639438 
" clip-path="url(#pa7dc37f511)" style="fill: none; stroke: #2ca02c; stroke-opacity: 0.5; stroke-width: 0.2; stroke-linecap: square"/>
   <path d="M 372.657515 69.015464 
L 371.657515 68.984027 
L 370.657515 68.947087 
L 369.657515 68.84934 
L 368.657515 68.816819 
L 367.657515 68.743194 
L 366.657515 68.704628 
L 365.657515 68.669215 
L 364.657515 68.611575 
L 363.657515 68.541189 
L 362.657515 68.489225 
L 361.657515 68.430135 
L 360.657515 68.341814 
L 359.657515 68.29567 
L 358.657515 68.253259 
L 357.657515 68.222766 
L 356.657515 68.196721 
L 355.657515 68.175521 
L 354.657515 68.12122 
L 353.657515 68.093282 
L 352.657515 68.063559 
L 351.657515 68.038164 
L 350.657515 68.026963 
L 349.657515 68.016839 
L 348.657515 68.017044 
L 347.657515 68.026554 
L 346.657515 68.038207 
L 345.657515 68.069236 
L 344.657515 68.080404 
L 343.657515 68.110522 
L 342.657515 68.170299 
L 341.657515 68.20749 
L 340.657515 68.246586 
L 339.657515 68.289026 
L 338.657515 68.321791 
L 337.657515 68.389218 
L 336.657515 68.428344 
L 335.657515 68.471018 
L 334.657515 68.541599 
L 333.657515 68.57799 
L 332.657515 68.636393 
L 331.657515 68.747345 
L 330.657515 68.818004 
L 329.657515 68.930943 
L 328.657515 68.976716 
L 326.765537 69.038 
" clip-path="url(#pa7dc37f511)" style="fill: none; stroke: #2ca02c; stroke-opacity: 0.5; stroke-width: 0.2; stroke-linecap: square"/>
   <path d="M 372.657515 55.057993 
L 371.657515 55.026557 
L 370.657515 54.989617 
L 369.657515 54.89187 
L 368.657515 54.859348 
L 367.657515 54.785724 
L 366.657515 54.747158 
L 365.657515 54.711745 
L 364.657515 54.654105 
L 363.657515 54.583719 
L 362.657515 54.531755 
L 361.657515 54.472665 
L 360.657515 54.384344 
L 359.657515 54.3382 
L 358.657515 54.295789 
L 357.657515 54.265296 
L 356.657515 54.239251 
L 355.657515 54.218051 
L 354.657515 54.16375 
L 353.657515 54.135812 
L 352.657515 54.106088 
L 351.657515 54.080694 
L 350.657515 54.069493 
L 349.657515 54.059369 
L 348.657515 54.059574 
L 347.657515 54.069083 
L 346.657515 54.080737 
L 345.657515 54.111766 
L 344.657515 54.122934 
L 343.657515 54.153052 
L 342.657515 54.212829 
L 341.657515 54.25002 
L 340.657515 54.289116 
L 339.657515 54.331556 
L 338.657515 54.364321 
L 337.657515 54.431747 
L 336.657515 54.470873 
L 335.657515 54.513548 
L 334.657515 54.584128 
L 333.657515 54.620519 
L 332.657515 54.678923 
L 331.657515 54.789875 
L 330.657515 54.860533 
L 329.657515 54.973473 
L 328.657515 55.019246 
L 326.765537 55.080529 
" clip-path="url(#pa7dc37f511)" style="fill: none; stroke: #2ca02c; stroke-opacity: 0.5; stroke-width: 0.2; stroke-linecap: square"/>
   <path d="M 372.657515 173.550041 
L 371.657515 173.518604 
L 370.657515 173.481664 
L 369.657515 173.383917 
L 368.657515 173.351396 
L 367.657515 173.277771 
L 366.657515 173.239205 
L 365.657515 173.203792 
L 364.657515 173.146152 
L 363.657515 173.075766 
L 362.657515 173.023802 
L 361.657515 172.964712 
L 360.657515 172.876391 
L 359.657515 172.830247 
L 358.657515 172.787836 
L 357.657515 172.757343 
L 356.657515 172.731298 
L 355.657515 172.710098 
L 354.657515 172.655797 
L 353.657515 172.627859 
L 352.657515 172.598136 
L 351.657515 172.572741 
L 350.657515 172.56154 
L 349.657515 172.551416 
L 348.657515 172.551621 
L 347.657515 172.561131 
L 346.657515 172.572784 
L 345.657515 172.603813 
L 344.657515 172.614981 
L 343.657515 172.645099 
L 342.657515 172.704876 
L 341.657515 172.742067 
L 340.657515 172.781163 
L 339.657515 172.823603 
L 338.657515 172.856368 
L 337.657515 172.923795 
L 336.657515 172.962921 
L 335.657515 173.005595 
L 334.657515 173.076176 
L 333.657515 173.112567 
L 332.657515 173.17097 
L 331.657515 173.281922 
L 330.657515 173.352581 
L 329.657515 173.46552 
L 328.657515 173.511293 
L 326.765537 173.572577 
" clip-path="url(#pa7dc37f511)" style="fill: none; stroke: #2ca02c; stroke-opacity: 0.5; stroke-width: 0.2; stroke-linecap: square"/>
   <path d="M 372.657515 234.867296 
L 371.657515 234.83586 
L 370.657515 234.798919 
L 369.657515 234.701173 
L 368.657515 234.668651 
L 367.657515 234.595026 
L 366.657515 234.556461 
L 365.657515 234.521048 
L 364.657515 234.463408 
L 363.657515 234.393022 
L 362.657515 234.341057 
L 361.657515 234.281968 
L 360.657515 234.193647 
L 359.657515 234.147502 
L 358.657515 234.105091 
L 357.657515 234.074599 
L 356.657515 234.048554 
L 355.657515 234.027354 
L 354.657515 233.973053 
L 353.657515 233.945115 
L 352.657515 233.915391 
L 351.657515 233.889996 
L 350.657515 233.878796 
L 349.657515 233.868672 
L 348.657515 233.868876 
L 347.657515 233.878386 
L 346.657515 233.89004 
L 345.657515 233.921069 
L 344.657515 233.932237 
L 343.657515 233.962354 
L 342.657515 234.022131 
L 341.657515 234.059323 
L 340.657515 234.098419 
L 339.657515 234.140859 
L 338.657515 234.173624 
L 337.657515 234.24105 
L 336.657515 234.280176 
L 335.657515 234.322851 
L 334.657515 234.393431 
L 333.657515 234.429822 
L 332.657515 234.488225 
L 331.657515 234.599178 
L 330.657515 234.669836 
L 329.657515 234.782776 
L 328.657515 234.828549 
L 326.765537 234.889832 
" clip-path="url(#pa7dc37f511)" style="fill: none; stroke: #2ca02c; stroke-opacity: 0.5; stroke-width: 0.2; stroke-linecap: square"/>
   <path d="M 372.657515 60.278267 
L 371.657515 60.246831 
L 370.657515 60.20989 
L 369.657515 60.112144 
L 368.657515 60.079622 
L 367.657515 60.005997 
L 366.657515 59.967432 
L 365.657515 59.932019 
L 364.657515 59.874379 
L 363.657515 59.803993 
L 362.657515 59.752028 
L 361.657515 59.692939 
L 360.657515 59.604618 
L 359.657515 59.558473 
L 358.657515 59.516062 
L 357.657515 59.48557 
L 356.657515 59.459525 
L 355.657515 59.438325 
L 354.657515 59.384024 
L 353.657515 59.356086 
L 352.657515 59.326362 
L 351.657515 59.300967 
L 350.657515 59.289767 
L 349.657515 59.279643 
L 348.657515 59.279847 
L 347.657515 59.289357 
L 346.657515 59.301011 
L 345.657515 59.33204 
L 344.657515 59.343208 
L 343.657515 59.373325 
L 342.657515 59.433102 
L 341.657515 59.470294 
L 340.657515 59.50939 
L 339.657515 59.55183 
L 338.657515 59.584595 
L 337.657515 59.652021 
L 336.657515 59.691147 
L 335.657515 59.733822 
L 334.657515 59.804402 
L 333.657515 59.840793 
L 332.657515 59.899196 
L 331.657515 60.010149 
L 330.657515 60.080807 
L 329.657515 60.193747 
L 328.657515 60.23952 
L 326.765537 60.300803 
" clip-path="url(#pa7dc37f511)" style="fill: none; stroke: #2ca02c; stroke-opacity: 0.5; stroke-width: 0.2; stroke-linecap: square"/>
   <g id="patch_3">
    <path d="M 67.449006 22.318125 
L 67.449006 260.421875 
M 167.401766 22.318125 
L 167.401766 260.421875 
" clip-path="url(#pa7dc37f511)" style="fill: none; stroke: #ffffff; stroke-width: 3; stroke-linejoin: miter"/>
    <path d="M 67.449006 22.318125 
L 67.449006 260.421875 
M 167.401766 22.318125 
L 167.401766 260.421875 
" clip-path="url(#pa7dc37f511)" style="fill: none; stroke: #1f77b4; stroke-linejoin: miter"/>
    <g id="PolyCollection_1">
     <path d="M 167.401766 22.318125 
L 67.449006 22.318125 
L 67.449006 260.421875 
L 167.401766 260.421875 
L 167.401766 260.421875 
L 167.401766 22.318125 
z
" clip-path="url(#pa7dc37f511)" style="fill: #1f77b4; fill-opacity: 0.5"/>
    </g>
    <g id="patch_4">
     <path d="M 222.306432 22.318125 
L 222.306432 260.421875 
M 322.259193 22.318125 
L 322.259193 260.421875 
" clip-path="url(#pa7dc37f511)" style="fill: none; stroke: #ffffff; stroke-width: 3; stroke-linejoin: miter"/>
     <path d="M 222.306432 22.318125 
L 222.306432 260.421875 
M 322.259193 22.318125 
L 322.259193 260.421875 
" clip-path="url(#pa7dc37f511)" style="fill: none; stroke: #ff7f0e; stroke-linejoin: miter"/>
     <g id="PolyCollection_2">
      <path d="M 322.259193 22.318125 
L 222.306432 22.318125 
L 222.306432 260.421875 
L 322.259193 260.421875 
L 322.259193 260.421875 
L 322.259193 22.318125 
z
" clip-path="url(#pa7dc37f511)" style="fill: #ff7f0e; fill-opacity: 0.5"/>
     </g>
     <g id="patch_5">
      <path d="M 377.163859 22.318125 
L 377.163859 260.421875 
M 477.116619 22.318125 
L 477.116619 260.421875 
" clip-path="url(#pa7dc37f511)" style="fill: none; stroke: #ffffff; stroke-width: 3; stroke-linejoin: miter"/>
      <path d="M 377.163859 22.318125 
L 377.163859 260.421875 
M 477.116619 22.318125 
L 477.116619 260.421875 
" clip-path="url(#pa7dc37f511)" style="fill: none; stroke: #2ca02c; stroke-linejoin: miter"/>
      <g id="PolyCollection_3">
       <path d="M 477.116619 22.318125 
L 377.163859 22.318125 
L 377.163859 260.421875 
L 477.116619 260.421875 
L 477.116619 260.421875 
L 477.116619 22.318125 
z
" clip-path="url(#pa7dc37f511)" style="fill: #2ca02c; fill-opacity: 0.5"/>
      </g>
      <g id="matplotlib.axis_1">
       <g id="xtick_1">
        <g id="line2d_1"/>
        <g id="text_1">
         <!-- deme1 -->
         <g transform="translate(100.04648 271.520312)scale(0.1 -0.1)">
          <defs>
           <path id="DejaVuSans-64" d="M 2906 2969 
L 2906 4863 
L 3481 4863 
L 3481 0 
L 2906 0 
L 2906 525 
Q 2725 213 2448 61 
Q 2172 -91 1784 -91 
Q 1150 -91 751 415 
Q 353 922 353 1747 
Q 353 2572 751 3078 
Q 1150 3584 1784 3584 
Q 2172 3584 2448 3432 
Q 2725 3281 2906 2969 
z
M 947 1747 
Q 947 1113 1208 752 
Q 1469 391 1925 391 
Q 2381 391 2643 752 
Q 2906 1113 2906 1747 
Q 2906 2381 2643 2742 
Q 2381 3103 1925 3103 
Q 1469 3103 1208 2742 
Q 947 2381 947 1747 
z
" transform="scale(0.015625)"/>
           <path id="DejaVuSans-65" d="M 3597 1894 
L 3597 1613 
L 953 1613 
Q 991 1019 1311 708 
Q 1631 397 2203 397 
Q 2534 397 2845 478 
Q 3156 559 3463 722 
L 3463 178 
Q 3153 47 2828 -22 
Q 2503 -91 2169 -91 
Q 1331 -91 842 396 
Q 353 884 353 1716 
Q 353 2575 817 3079 
Q 1281 3584 2069 3584 
Q 2775 3584 3186 3129 
Q 3597 2675 3597 1894 
z
M 3022 2063 
Q 3016 2534 2758 2815 
Q 2500 3097 2075 3097 
Q 1594 3097 1305 2825 
Q 1016 2553 972 2059 
L 3022 2063 
z
" transform="scale(0.015625)"/>
           <path id="DejaVuSans-6d" d="M 3328 2828 
Q 3544 3216 3844 3400 
Q 4144 3584 4550 3584 
Q 5097 3584 5394 3201 
Q 5691 2819 5691 2113 
L 5691 0 
L 5113 0 
L 5113 2094 
Q 5113 2597 4934 2840 
Q 4756 3084 4391 3084 
Q 3944 3084 3684 2787 
Q 3425 2491 3425 1978 
L 3425 0 
L 2847 0 
L 2847 2094 
Q 2847 2600 2669 2842 
Q 2491 3084 2119 3084 
Q 1678 3084 1418 2786 
Q 1159 2488 1159 1978 
L 1159 0 
L 581 0 
L 581 3500 
L 1159 3500 
L 1159 2956 
Q 1356 3278 1631 3431 
Q 1906 3584 2284 3584 
Q 2666 3584 2933 3390 
Q 3200 3197 3328 2828 
z
" transform="scale(0.015625)"/>
           <path id="DejaVuSans-31" d="M 794 531 
L 1825 531 
L 1825 4091 
L 703 3866 
L 703 4441 
L 1819 4666 
L 2450 4666 
L 2450 531 
L 3481 531 
L 3481 0 
L 794 0 
L 794 531 
z
" transform="scale(0.015625)"/>
          </defs>
          <use xlink:href="#DejaVuSans-64"/>
          <use xlink:href="#DejaVuSans-65" x="63.476562"/>
          <use xlink:href="#DejaVuSans-6d" x="125"/>
          <use xlink:href="#DejaVuSans-65" x="222.412109"/>
          <use xlink:href="#DejaVuSans-31" x="283.935547"/>
         </g>
        </g>
       </g>
       <g id="xtick_2">
        <g id="line2d_2"/>
        <g id="text_2">
         <!-- deme2 -->
         <g transform="translate(254.903906 271.520312)scale(0.1 -0.1)">
          <defs>
           <path id="DejaVuSans-32" d="M 1228 531 
L 3431 531 
L 3431 0 
L 469 0 
L 469 531 
Q 828 903 1448 1529 
Q 2069 2156 2228 2338 
Q 2531 2678 2651 2914 
Q 2772 3150 2772 3378 
Q 2772 3750 2511 3984 
Q 2250 4219 1831 4219 
Q 1534 4219 1204 4116 
Q 875 4013 500 3803 
L 500 4441 
Q 881 4594 1212 4672 
Q 1544 4750 1819 4750 
Q 2544 4750 2975 4387 
Q 3406 4025 3406 3419 
Q 3406 3131 3298 2873 
Q 3191 2616 2906 2266 
Q 2828 2175 2409 1742 
Q 1991 1309 1228 531 
z
" transform="scale(0.015625)"/>
          </defs>
          <use xlink:href="#DejaVuSans-64"/>
          <use xlink:href="#DejaVuSans-65" x="63.476562"/>
          <use xlink:href="#DejaVuSans-6d" x="125"/>
          <use xlink:href="#DejaVuSans-65" x="222.412109"/>
          <use xlink:href="#DejaVuSans-32" x="283.935547"/>
         </g>
        </g>
       </g>
       <g id="xtick_3">
        <g id="line2d_3"/>
        <g id="text_3">
         <!-- deme3 -->
         <g transform="translate(409.761333 271.520312)scale(0.1 -0.1)">
          <defs>
           <path id="DejaVuSans-33" d="M 2597 2516 
Q 3050 2419 3304 2112 
Q 3559 1806 3559 1356 
Q 3559 666 3084 287 
Q 2609 -91 1734 -91 
Q 1441 -91 1130 -33 
Q 819 25 488 141 
L 488 750 
Q 750 597 1062 519 
Q 1375 441 1716 441 
Q 2309 441 2620 675 
Q 2931 909 2931 1356 
Q 2931 1769 2642 2001 
Q 2353 2234 1838 2234 
L 1294 2234 
L 1294 2753 
L 1863 2753 
Q 2328 2753 2575 2939 
Q 2822 3125 2822 3475 
Q 2822 3834 2567 4026 
Q 2313 4219 1838 4219 
Q 1578 4219 1281 4162 
Q 984 4106 628 3988 
L 628 4550 
Q 988 4650 1302 4700 
Q 1616 4750 1894 4750 
Q 2613 4750 3031 4423 
Q 3450 4097 3450 3541 
Q 3450 3153 3228 2886 
Q 3006 2619 2597 2516 
z
" transform="scale(0.015625)"/>
          </defs>
          <use xlink:href="#DejaVuSans-64"/>
          <use xlink:href="#DejaVuSans-65" x="63.476562"/>
          <use xlink:href="#DejaVuSans-6d" x="125"/>
          <use xlink:href="#DejaVuSans-65" x="222.412109"/>
          <use xlink:href="#DejaVuSans-33" x="283.935547"/>
         </g>
        </g>
       </g>
      </g>
      <g id="matplotlib.axis_2">
       <g id="ytick_1">
        <g id="line2d_4">
         <defs>
          <path id="mde939cb31e" d="M 0 0 
L -3.5 0 
" style="stroke: #000000; stroke-width: 0.8"/>
         </defs>
         <g>
          <use xlink:href="#mde939cb31e" x="46.965625" y="260.421875" style="stroke: #000000; stroke-width: 0.8"/>
         </g>
        </g>
        <g id="text_4">
         <!-- 0 -->
         <g transform="translate(33.603125 264.221094)scale(0.1 -0.1)">
          <defs>
           <path id="DejaVuSans-30" d="M 2034 4250 
Q 1547 4250 1301 3770 
Q 1056 3291 1056 2328 
Q 1056 1369 1301 889 
Q 1547 409 2034 409 
Q 2525 409 2770 889 
Q 3016 1369 3016 2328 
Q 3016 3291 2770 3770 
Q 2525 4250 2034 4250 
z
M 2034 4750 
Q 2819 4750 3233 4129 
Q 3647 3509 3647 2328 
Q 3647 1150 3233 529 
Q 2819 -91 2034 -91 
Q 1250 -91 836 529 
Q 422 1150 422 2328 
Q 422 3509 836 4129 
Q 1250 4750 2034 4750 
z
" transform="scale(0.015625)"/>
          </defs>
          <use xlink:href="#DejaVuSans-30"/>
         </g>
        </g>
       </g>
       <g id="ytick_2">
        <g id="line2d_5">
         <g>
          <use xlink:href="#mde939cb31e" x="46.965625" y="218.279618" style="stroke: #000000; stroke-width: 0.8"/>
         </g>
        </g>
        <g id="text_5">
         <!-- 20 -->
         <g transform="translate(27.240625 222.078837)scale(0.1 -0.1)">
          <use xlink:href="#DejaVuSans-32"/>
          <use xlink:href="#DejaVuSans-30" x="63.623047"/>
         </g>
        </g>
       </g>
       <g id="ytick_3">
        <g id="line2d_6">
         <g>
          <use xlink:href="#mde939cb31e" x="46.965625" y="176.137362" style="stroke: #000000; stroke-width: 0.8"/>
         </g>
        </g>
        <g id="text_6">
         <!-- 40 -->
         <g transform="translate(27.240625 179.93658)scale(0.1 -0.1)">
          <defs>
           <path id="DejaVuSans-34" d="M 2419 4116 
L 825 1625 
L 2419 1625 
L 2419 4116 
z
M 2253 4666 
L 3047 4666 
L 3047 1625 
L 3713 1625 
L 3713 1100 
L 3047 1100 
L 3047 0 
L 2419 0 
L 2419 1100 
L 313 1100 
L 313 1709 
L 2253 4666 
z
" transform="scale(0.015625)"/>
          </defs>
          <use xlink:href="#DejaVuSans-34"/>
          <use xlink:href="#DejaVuSans-30" x="63.623047"/>
         </g>
        </g>
       </g>
       <g id="ytick_4">
        <g id="line2d_7">
         <g>
          <use xlink:href="#mde939cb31e" x="46.965625" y="133.995105" style="stroke: #000000; stroke-width: 0.8"/>
         </g>
        </g>
        <g id="text_7">
         <!-- 60 -->
         <g transform="translate(27.240625 137.794324)scale(0.1 -0.1)">
          <defs>
           <path id="DejaVuSans-36" d="M 2113 2584 
Q 1688 2584 1439 2293 
Q 1191 2003 1191 1497 
Q 1191 994 1439 701 
Q 1688 409 2113 409 
Q 2538 409 2786 701 
Q 3034 994 3034 1497 
Q 3034 2003 2786 2293 
Q 2538 2584 2113 2584 
z
M 3366 4563 
L 3366 3988 
Q 3128 4100 2886 4159 
Q 2644 4219 2406 4219 
Q 1781 4219 1451 3797 
Q 1122 3375 1075 2522 
Q 1259 2794 1537 2939 
Q 1816 3084 2150 3084 
Q 2853 3084 3261 2657 
Q 3669 2231 3669 1497 
Q 3669 778 3244 343 
Q 2819 -91 2113 -91 
Q 1303 -91 875 529 
Q 447 1150 447 2328 
Q 447 3434 972 4092 
Q 1497 4750 2381 4750 
Q 2619 4750 2861 4703 
Q 3103 4656 3366 4563 
z
" transform="scale(0.015625)"/>
          </defs>
          <use xlink:href="#DejaVuSans-36"/>
          <use xlink:href="#DejaVuSans-30" x="63.623047"/>
         </g>
        </g>
       </g>
       <g id="ytick_5">
        <g id="line2d_8">
         <g>
          <use xlink:href="#mde939cb31e" x="46.965625" y="91.852848" style="stroke: #000000; stroke-width: 0.8"/>
         </g>
        </g>
        <g id="text_8">
         <!-- 80 -->
         <g transform="translate(27.240625 95.652067)scale(0.1 -0.1)">
          <defs>
           <path id="DejaVuSans-38" d="M 2034 2216 
Q 1584 2216 1326 1975 
Q 1069 1734 1069 1313 
Q 1069 891 1326 650 
Q 1584 409 2034 409 
Q 2484 409 2743 651 
Q 3003 894 3003 1313 
Q 3003 1734 2745 1975 
Q 2488 2216 2034 2216 
z
M 1403 2484 
Q 997 2584 770 2862 
Q 544 3141 544 3541 
Q 544 4100 942 4425 
Q 1341 4750 2034 4750 
Q 2731 4750 3128 4425 
Q 3525 4100 3525 3541 
Q 3525 3141 3298 2862 
Q 3072 2584 2669 2484 
Q 3125 2378 3379 2068 
Q 3634 1759 3634 1313 
Q 3634 634 3220 271 
Q 2806 -91 2034 -91 
Q 1263 -91 848 271 
Q 434 634 434 1313 
Q 434 1759 690 2068 
Q 947 2378 1403 2484 
z
M 1172 3481 
Q 1172 3119 1398 2916 
Q 1625 2713 2034 2713 
Q 2441 2713 2670 2916 
Q 2900 3119 2900 3481 
Q 2900 3844 2670 4047 
Q 2441 4250 2034 4250 
Q 1625 4250 1398 4047 
Q 1172 3844 1172 3481 
z
" transform="scale(0.015625)"/>
          </defs>
          <use xlink:href="#DejaVuSans-38"/>
          <use xlink:href="#DejaVuSans-30" x="63.623047"/>
         </g>
        </g>
       </g>
       <g id="ytick_6">
        <g id="line2d_9">
         <g>
          <use xlink:href="#mde939cb31e" x="46.965625" y="49.710592" style="stroke: #000000; stroke-width: 0.8"/>
         </g>
        </g>
        <g id="text_9">
         <!-- 100 -->
         <g transform="translate(20.878125 53.509811)scale(0.1 -0.1)">
          <use xlink:href="#DejaVuSans-31"/>
          <use xlink:href="#DejaVuSans-30" x="63.623047"/>
          <use xlink:href="#DejaVuSans-30" x="127.246094"/>
         </g>
        </g>
       </g>
       <g id="text_10">
        <!-- time ago (years) -->
        <g transform="translate(14.798437 182.803594)rotate(-90)scale(0.1 -0.1)">
         <defs>
          <path id="DejaVuSans-74" d="M 1172 4494 
L 1172 3500 
L 2356 3500 
L 2356 3053 
L 1172 3053 
L 1172 1153 
Q 1172 725 1289 603 
Q 1406 481 1766 481 
L 2356 481 
L 2356 0 
L 1766 0 
Q 1100 0 847 248 
Q 594 497 594 1153 
L 594 3053 
L 172 3053 
L 172 3500 
L 594 3500 
L 594 4494 
L 1172 4494 
z
" transform="scale(0.015625)"/>
          <path id="DejaVuSans-69" d="M 603 3500 
L 1178 3500 
L 1178 0 
L 603 0 
L 603 3500 
z
M 603 4863 
L 1178 4863 
L 1178 4134 
L 603 4134 
L 603 4863 
z
" transform="scale(0.015625)"/>
          <path id="DejaVuSans-20" transform="scale(0.015625)"/>
          <path id="DejaVuSans-61" d="M 2194 1759 
Q 1497 1759 1228 1600 
Q 959 1441 959 1056 
Q 959 750 1161 570 
Q 1363 391 1709 391 
Q 2188 391 2477 730 
Q 2766 1069 2766 1631 
L 2766 1759 
L 2194 1759 
z
M 3341 1997 
L 3341 0 
L 2766 0 
L 2766 531 
Q 2569 213 2275 61 
Q 1981 -91 1556 -91 
Q 1019 -91 701 211 
Q 384 513 384 1019 
Q 384 1609 779 1909 
Q 1175 2209 1959 2209 
L 2766 2209 
L 2766 2266 
Q 2766 2663 2505 2880 
Q 2244 3097 1772 3097 
Q 1472 3097 1187 3025 
Q 903 2953 641 2809 
L 641 3341 
Q 956 3463 1253 3523 
Q 1550 3584 1831 3584 
Q 2591 3584 2966 3190 
Q 3341 2797 3341 1997 
z
" transform="scale(0.015625)"/>
          <path id="DejaVuSans-67" d="M 2906 1791 
Q 2906 2416 2648 2759 
Q 2391 3103 1925 3103 
Q 1463 3103 1205 2759 
Q 947 2416 947 1791 
Q 947 1169 1205 825 
Q 1463 481 1925 481 
Q 2391 481 2648 825 
Q 2906 1169 2906 1791 
z
M 3481 434 
Q 3481 -459 3084 -895 
Q 2688 -1331 1869 -1331 
Q 1566 -1331 1297 -1286 
Q 1028 -1241 775 -1147 
L 775 -588 
Q 1028 -725 1275 -790 
Q 1522 -856 1778 -856 
Q 2344 -856 2625 -561 
Q 2906 -266 2906 331 
L 2906 616 
Q 2728 306 2450 153 
Q 2172 0 1784 0 
Q 1141 0 747 490 
Q 353 981 353 1791 
Q 353 2603 747 3093 
Q 1141 3584 1784 3584 
Q 2172 3584 2450 3431 
Q 2728 3278 2906 2969 
L 2906 3500 
L 3481 3500 
L 3481 434 
z
" transform="scale(0.015625)"/>
          <path id="DejaVuSans-6f" d="M 1959 3097 
Q 1497 3097 1228 2736 
Q 959 2375 959 1747 
Q 959 1119 1226 758 
Q 1494 397 1959 397 
Q 2419 397 2687 759 
Q 2956 1122 2956 1747 
Q 2956 2369 2687 2733 
Q 2419 3097 1959 3097 
z
M 1959 3584 
Q 2709 3584 3137 3096 
Q 3566 2609 3566 1747 
Q 3566 888 3137 398 
Q 2709 -91 1959 -91 
Q 1206 -91 779 398 
Q 353 888 353 1747 
Q 353 2609 779 3096 
Q 1206 3584 1959 3584 
z
" transform="scale(0.015625)"/>
          <path id="DejaVuSans-28" d="M 1984 4856 
Q 1566 4138 1362 3434 
Q 1159 2731 1159 2009 
Q 1159 1288 1364 580 
Q 1569 -128 1984 -844 
L 1484 -844 
Q 1016 -109 783 600 
Q 550 1309 550 2009 
Q 550 2706 781 3412 
Q 1013 4119 1484 4856 
L 1984 4856 
z
" transform="scale(0.015625)"/>
          <path id="DejaVuSans-79" d="M 2059 -325 
Q 1816 -950 1584 -1140 
Q 1353 -1331 966 -1331 
L 506 -1331 
L 506 -850 
L 844 -850 
Q 1081 -850 1212 -737 
Q 1344 -625 1503 -206 
L 1606 56 
L 191 3500 
L 800 3500 
L 1894 763 
L 2988 3500 
L 3597 3500 
L 2059 -325 
z
" transform="scale(0.015625)"/>
          <path id="DejaVuSans-72" d="M 2631 2963 
Q 2534 3019 2420 3045 
Q 2306 3072 2169 3072 
Q 1681 3072 1420 2755 
Q 1159 2438 1159 1844 
L 1159 0 
L 581 0 
L 581 3500 
L 1159 3500 
L 1159 2956 
Q 1341 3275 1631 3429 
Q 1922 3584 2338 3584 
Q 2397 3584 2469 3576 
Q 2541 3569 2628 3553 
L 2631 2963 
z
" transform="scale(0.015625)"/>
          <path id="DejaVuSans-73" d="M 2834 3397 
L 2834 2853 
Q 2591 2978 2328 3040 
Q 2066 3103 1784 3103 
Q 1356 3103 1142 2972 
Q 928 2841 928 2578 
Q 928 2378 1081 2264 
Q 1234 2150 1697 2047 
L 1894 2003 
Q 2506 1872 2764 1633 
Q 3022 1394 3022 966 
Q 3022 478 2636 193 
Q 2250 -91 1575 -91 
Q 1294 -91 989 -36 
Q 684 19 347 128 
L 347 722 
Q 666 556 975 473 
Q 1284 391 1588 391 
Q 1994 391 2212 530 
Q 2431 669 2431 922 
Q 2431 1156 2273 1281 
Q 2116 1406 1581 1522 
L 1381 1569 
Q 847 1681 609 1914 
Q 372 2147 372 2553 
Q 372 3047 722 3315 
Q 1072 3584 1716 3584 
Q 2034 3584 2315 3537 
Q 2597 3491 2834 3397 
z
" transform="scale(0.015625)"/>
          <path id="DejaVuSans-29" d="M 513 4856 
L 1013 4856 
Q 1481 4119 1714 3412 
Q 1947 2706 1947 2009 
Q 1947 1309 1714 600 
Q 1481 -109 1013 -844 
L 513 -844 
Q 928 -128 1133 580 
Q 1338 1288 1338 2009 
Q 1338 2731 1133 3434 
Q 928 4138 513 4856 
z
" transform="scale(0.015625)"/>
         </defs>
         <use xlink:href="#DejaVuSans-74"/>
         <use xlink:href="#DejaVuSans-69" x="39.208984"/>
         <use xlink:href="#DejaVuSans-6d" x="66.992188"/>
         <use xlink:href="#DejaVuSans-65" x="164.404297"/>
         <use xlink:href="#DejaVuSans-20" x="225.927734"/>
         <use xlink:href="#DejaVuSans-61" x="257.714844"/>
         <use xlink:href="#DejaVuSans-67" x="318.994141"/>
         <use xlink:href="#DejaVuSans-6f" x="382.470703"/>
         <use xlink:href="#DejaVuSans-20" x="443.652344"/>
         <use xlink:href="#DejaVuSans-28" x="475.439453"/>
         <use xlink:href="#DejaVuSans-79" x="514.453125"/>
         <use xlink:href="#DejaVuSans-65" x="573.632812"/>
         <use xlink:href="#DejaVuSans-61" x="635.15625"/>
         <use xlink:href="#DejaVuSans-72" x="696.435547"/>
         <use xlink:href="#DejaVuSans-73" x="737.548828"/>
         <use xlink:href="#DejaVuSans-29" x="789.648438"/>
        </g>
       </g>
      </g>
      <path d="M 218.800088 114.394695 
L 216.800088 113.394695 
L 216.800088 115.394695 
z
" clip-path="url(#pa7dc37f511)" style="fill: #1f77b4; fill-opacity: 0.5; stroke: #1f77b4; stroke-opacity: 0.5; stroke-linejoin: miter"/>
      <path d="M 218.800088 184.139178 
L 216.800088 183.139178 
L 216.800088 185.139178 
z
" clip-path="url(#pa7dc37f511)" style="fill: #1f77b4; fill-opacity: 0.5; stroke: #1f77b4; stroke-opacity: 0.5; stroke-linejoin: miter"/>
      <path d="M 218.800088 74.102832 
L 216.800088 73.102832 
L 216.800088 75.102832 
z
" clip-path="url(#pa7dc37f511)" style="fill: #1f77b4; fill-opacity: 0.5; stroke: #1f77b4; stroke-opacity: 0.5; stroke-linejoin: miter"/>
      <path d="M 218.800088 80.911005 
L 216.800088 79.911005 
L 216.800088 81.911005 
z
" clip-path="url(#pa7dc37f511)" style="fill: #1f77b4; fill-opacity: 0.5; stroke: #1f77b4; stroke-opacity: 0.5; stroke-linejoin: miter"/>
      <path d="M 218.800088 206.610773 
L 216.800088 205.610773 
L 216.800088 207.610773 
z
" clip-path="url(#pa7dc37f511)" style="fill: #1f77b4; fill-opacity: 0.5; stroke: #1f77b4; stroke-opacity: 0.5; stroke-linejoin: miter"/>
      <path d="M 218.800088 165.146066 
L 216.800088 164.146066 
L 216.800088 166.146066 
z
" clip-path="url(#pa7dc37f511)" style="fill: #1f77b4; fill-opacity: 0.5; stroke: #1f77b4; stroke-opacity: 0.5; stroke-linejoin: miter"/>
      <path d="M 218.800088 182.289879 
L 216.800088 181.289879 
L 216.800088 183.289879 
z
" clip-path="url(#pa7dc37f511)" style="fill: #1f77b4; fill-opacity: 0.5; stroke: #1f77b4; stroke-opacity: 0.5; stroke-linejoin: miter"/>
      <path d="M 218.800088 113.647771 
L 216.800088 112.647771 
L 216.800088 114.647771 
z
" clip-path="url(#pa7dc37f511)" style="fill: #1f77b4; fill-opacity: 0.5; stroke: #1f77b4; stroke-opacity: 0.5; stroke-linejoin: miter"/>
      <path d="M 218.800088 107.662334 
L 216.800088 106.662334 
L 216.800088 108.662334 
z
" clip-path="url(#pa7dc37f511)" style="fill: #1f77b4; fill-opacity: 0.5; stroke: #1f77b4; stroke-opacity: 0.5; stroke-linejoin: miter"/>
      <path d="M 218.800088 185.361034 
L 216.800088 184.361034 
L 216.800088 186.361034 
z
" clip-path="url(#pa7dc37f511)" style="fill: #1f77b4; fill-opacity: 0.5; stroke: #1f77b4; stroke-opacity: 0.5; stroke-linejoin: miter"/>
      <path d="M 170.90811 257.355653 
L 172.90811 258.355653 
L 172.90811 256.355653 
z
" clip-path="url(#pa7dc37f511)" style="fill: #ff7f0e; fill-opacity: 0.5; stroke: #ff7f0e; stroke-opacity: 0.5; stroke-linejoin: miter"/>
      <path d="M 170.90811 71.364614 
L 172.90811 72.364614 
L 172.90811 70.364614 
z
" clip-path="url(#pa7dc37f511)" style="fill: #ff7f0e; fill-opacity: 0.5; stroke: #ff7f0e; stroke-opacity: 0.5; stroke-linejoin: miter"/>
      <path d="M 170.90811 57.578203 
L 172.90811 58.578203 
L 172.90811 56.578203 
z
" clip-path="url(#pa7dc37f511)" style="fill: #ff7f0e; fill-opacity: 0.5; stroke: #ff7f0e; stroke-opacity: 0.5; stroke-linejoin: miter"/>
      <path d="M 170.90811 42.444823 
L 172.90811 43.444823 
L 172.90811 41.444823 
z
" clip-path="url(#pa7dc37f511)" style="fill: #ff7f0e; fill-opacity: 0.5; stroke: #ff7f0e; stroke-opacity: 0.5; stroke-linejoin: miter"/>
      <path d="M 170.90811 175.252699 
L 172.90811 176.252699 
L 172.90811 174.252699 
z
" clip-path="url(#pa7dc37f511)" style="fill: #ff7f0e; fill-opacity: 0.5; stroke: #ff7f0e; stroke-opacity: 0.5; stroke-linejoin: miter"/>
      <path d="M 170.90811 239.765377 
L 172.90811 240.765377 
L 172.90811 238.765377 
z
" clip-path="url(#pa7dc37f511)" style="fill: #ff7f0e; fill-opacity: 0.5; stroke: #ff7f0e; stroke-opacity: 0.5; stroke-linejoin: miter"/>
      <path d="M 170.90811 196.049739 
L 172.90811 197.049739 
L 172.90811 195.049739 
z
" clip-path="url(#pa7dc37f511)" style="fill: #ff7f0e; fill-opacity: 0.5; stroke: #ff7f0e; stroke-opacity: 0.5; stroke-linejoin: miter"/>
      <path d="M 170.90811 141.369581 
L 172.90811 142.369581 
L 172.90811 140.369581 
z
" clip-path="url(#pa7dc37f511)" style="fill: #ff7f0e; fill-opacity: 0.5; stroke: #ff7f0e; stroke-opacity: 0.5; stroke-linejoin: miter"/>
      <path d="M 170.90811 201.392291 
L 172.90811 202.392291 
L 172.90811 200.392291 
z
" clip-path="url(#pa7dc37f511)" style="fill: #ff7f0e; fill-opacity: 0.5; stroke: #ff7f0e; stroke-opacity: 0.5; stroke-linejoin: miter"/>
      <path d="M 170.90811 99.7748 
L 172.90811 100.7748 
L 172.90811 98.7748 
z
" clip-path="url(#pa7dc37f511)" style="fill: #ff7f0e; fill-opacity: 0.5; stroke: #ff7f0e; stroke-opacity: 0.5; stroke-linejoin: miter"/>
      <path d="M 373.657515 200.47251 
L 371.657515 199.47251 
L 371.657515 201.47251 
z
" clip-path="url(#pa7dc37f511)" style="fill: #ff7f0e; fill-opacity: 0.5; stroke: #ff7f0e; stroke-opacity: 0.5; stroke-linejoin: miter"/>
      <path d="M 373.657515 32.149442 
L 371.657515 31.149442 
L 371.657515 33.149442 
z
" clip-path="url(#pa7dc37f511)" style="fill: #ff7f0e; fill-opacity: 0.5; stroke: #ff7f0e; stroke-opacity: 0.5; stroke-linejoin: miter"/>
      <path d="M 373.657515 100.027303 
L 371.657515 99.027303 
L 371.657515 101.027303 
z
" clip-path="url(#pa7dc37f511)" style="fill: #ff7f0e; fill-opacity: 0.5; stroke: #ff7f0e; stroke-opacity: 0.5; stroke-linejoin: miter"/>
      <path d="M 373.657515 91.189827 
L 371.657515 90.189827 
L 371.657515 92.189827 
z
" clip-path="url(#pa7dc37f511)" style="fill: #ff7f0e; fill-opacity: 0.5; stroke: #ff7f0e; stroke-opacity: 0.5; stroke-linejoin: miter"/>
      <path d="M 373.657515 88.386897 
L 371.657515 87.386897 
L 371.657515 89.386897 
z
" clip-path="url(#pa7dc37f511)" style="fill: #ff7f0e; fill-opacity: 0.5; stroke: #ff7f0e; stroke-opacity: 0.5; stroke-linejoin: miter"/>
      <path d="M 373.657515 159.151117 
L 371.657515 158.151117 
L 371.657515 160.151117 
z
" clip-path="url(#pa7dc37f511)" style="fill: #ff7f0e; fill-opacity: 0.5; stroke: #ff7f0e; stroke-opacity: 0.5; stroke-linejoin: miter"/>
      <path d="M 373.657515 22.815556 
L 371.657515 21.815556 
L 371.657515 23.815556 
z
" clip-path="url(#pa7dc37f511)" style="fill: #ff7f0e; fill-opacity: 0.5; stroke: #ff7f0e; stroke-opacity: 0.5; stroke-linejoin: miter"/>
      <path d="M 373.657515 242.286443 
L 371.657515 241.286443 
L 371.657515 243.286443 
z
" clip-path="url(#pa7dc37f511)" style="fill: #ff7f0e; fill-opacity: 0.5; stroke: #ff7f0e; stroke-opacity: 0.5; stroke-linejoin: miter"/>
      <path d="M 373.657515 225.66031 
L 371.657515 224.66031 
L 371.657515 226.66031 
z
" clip-path="url(#pa7dc37f511)" style="fill: #ff7f0e; fill-opacity: 0.5; stroke: #ff7f0e; stroke-opacity: 0.5; stroke-linejoin: miter"/>
      <path d="M 373.657515 239.36141 
L 371.657515 238.36141 
L 371.657515 240.36141 
z
" clip-path="url(#pa7dc37f511)" style="fill: #ff7f0e; fill-opacity: 0.5; stroke: #ff7f0e; stroke-opacity: 0.5; stroke-linejoin: miter"/>
      <path d="M 325.765537 199.329014 
L 327.765537 200.329014 
L 327.765537 198.329014 
z
" clip-path="url(#pa7dc37f511)" style="fill: #2ca02c; fill-opacity: 0.5; stroke: #2ca02c; stroke-opacity: 0.5; stroke-linejoin: miter"/>
      <path d="M 325.765537 32.751403 
L 327.765537 33.751403 
L 327.765537 31.751403 
z
" clip-path="url(#pa7dc37f511)" style="fill: #2ca02c; fill-opacity: 0.5; stroke: #2ca02c; stroke-opacity: 0.5; stroke-linejoin: miter"/>
      <path d="M 325.765537 60.189205 
L 327.765537 61.189205 
L 327.765537 59.189205 
z
" clip-path="url(#pa7dc37f511)" style="fill: #2ca02c; fill-opacity: 0.5; stroke: #2ca02c; stroke-opacity: 0.5; stroke-linejoin: miter"/>
      <path d="M 325.765537 247.634039 
L 327.765537 248.634039 
L 327.765537 246.634039 
z
" clip-path="url(#pa7dc37f511)" style="fill: #2ca02c; fill-opacity: 0.5; stroke: #2ca02c; stroke-opacity: 0.5; stroke-linejoin: miter"/>
      <path d="M 325.765537 259.616902 
L 327.765537 260.616902 
L 327.765537 258.616902 
z
" clip-path="url(#pa7dc37f511)" style="fill: #2ca02c; fill-opacity: 0.5; stroke: #2ca02c; stroke-opacity: 0.5; stroke-linejoin: miter"/>
      <path d="M 325.765537 69.015464 
L 327.765537 70.015464 
L 327.765537 68.015464 
z
" clip-path="url(#pa7dc37f511)" style="fill: #2ca02c; fill-opacity: 0.5; stroke: #2ca02c; stroke-opacity: 0.5; stroke-linejoin: miter"/>
      <path d="M 325.765537 55.057993 
L 327.765537 56.057993 
L 327.765537 54.057993 
z
" clip-path="url(#pa7dc37f511)" style="fill: #2ca02c; fill-opacity: 0.5; stroke: #2ca02c; stroke-opacity: 0.5; stroke-linejoin: miter"/>
      <path d="M 325.765537 173.550041 
L 327.765537 174.550041 
L 327.765537 172.550041 
z
" clip-path="url(#pa7dc37f511)" style="fill: #2ca02c; fill-opacity: 0.5; stroke: #2ca02c; stroke-opacity: 0.5; stroke-linejoin: miter"/>
      <path d="M 325.765537 234.867296 
L 327.765537 235.867296 
L 327.765537 233.867296 
z
" clip-path="url(#pa7dc37f511)" style="fill: #2ca02c; fill-opacity: 0.5; stroke: #2ca02c; stroke-opacity: 0.5; stroke-linejoin: miter"/>
      <path d="M 325.765537 60.278267 
L 327.765537 61.278267 
L 327.765537 59.278267 
z
" clip-path="url(#pa7dc37f511)" style="fill: #2ca02c; fill-opacity: 0.5; stroke: #2ca02c; stroke-opacity: 0.5; stroke-linejoin: miter"/>
      <g id="patch_6">
       <path d="M 46.965625 260.421875 
L 46.965625 22.318125 
" style="fill: none; stroke: #000000; stroke-width: 0.8; stroke-linejoin: miter; stroke-linecap: square"/>
      </g>
      <g id="text_11">
       <!-- stepping_stone_model.yaml -->
       <g transform="translate(188.243437 16.318125)scale(0.12 -0.12)">
        <defs>
         <path id="DejaVuSans-70" d="M 1159 525 
L 1159 -1331 
L 581 -1331 
L 581 3500 
L 1159 3500 
L 1159 2969 
Q 1341 3281 1617 3432 
Q 1894 3584 2278 3584 
Q 2916 3584 3314 3078 
Q 3713 2572 3713 1747 
Q 3713 922 3314 415 
Q 2916 -91 2278 -91 
Q 1894 -91 1617 61 
Q 1341 213 1159 525 
z
M 3116 1747 
Q 3116 2381 2855 2742 
Q 2594 3103 2138 3103 
Q 1681 3103 1420 2742 
Q 1159 2381 1159 1747 
Q 1159 1113 1420 752 
Q 1681 391 2138 391 
Q 2594 391 2855 752 
Q 3116 1113 3116 1747 
z
" transform="scale(0.015625)"/>
         <path id="DejaVuSans-6e" d="M 3513 2113 
L 3513 0 
L 2938 0 
L 2938 2094 
Q 2938 2591 2744 2837 
Q 2550 3084 2163 3084 
Q 1697 3084 1428 2787 
Q 1159 2491 1159 1978 
L 1159 0 
L 581 0 
L 581 3500 
L 1159 3500 
L 1159 2956 
Q 1366 3272 1645 3428 
Q 1925 3584 2291 3584 
Q 2894 3584 3203 3211 
Q 3513 2838 3513 2113 
z
" transform="scale(0.015625)"/>
         <path id="DejaVuSans-5f" d="M 3263 -1063 
L 3263 -1509 
L -63 -1509 
L -63 -1063 
L 3263 -1063 
z
" transform="scale(0.015625)"/>
         <path id="DejaVuSans-6c" d="M 603 4863 
L 1178 4863 
L 1178 0 
L 603 0 
L 603 4863 
z
" transform="scale(0.015625)"/>
         <path id="DejaVuSans-2e" d="M 684 794 
L 1344 794 
L 1344 0 
L 684 0 
L 684 794 
z
" transform="scale(0.015625)"/>
        </defs>
        <use xlink:href="#DejaVuSans-73"/>
        <use xlink:href="#DejaVuSans-74" x="52.099609"/>
        <use xlink:href="#DejaVuSans-65" x="91.308594"/>
        <use xlink:href="#DejaVuSans-70" x="152.832031"/>
        <use xlink:href="#DejaVuSans-70" x="216.308594"/>
        <use xlink:href="#DejaVuSans-69" x="279.785156"/>
        <use xlink:href="#DejaVuSans-6e" x="307.568359"/>
        <use xlink:href="#DejaVuSans-67" x="370.947266"/>
        <use xlink:href="#DejaVuSans-5f" x="434.423828"/>
        <use xlink:href="#DejaVuSans-73" x="484.423828"/>
        <use xlink:href="#DejaVuSans-74" x="536.523438"/>
        <use xlink:href="#DejaVuSans-6f" x="575.732422"/>
        <use xlink:href="#DejaVuSans-6e" x="636.914062"/>
        <use xlink:href="#DejaVuSans-65" x="700.292969"/>
        <use xlink:href="#DejaVuSans-5f" x="761.816406"/>
        <use xlink:href="#DejaVuSans-6d" x="811.816406"/>
        <use xlink:href="#DejaVuSans-6f" x="909.228516"/>
        <use xlink:href="#DejaVuSans-64" x="970.410156"/>
        <use xlink:href="#DejaVuSans-65" x="1033.886719"/>
        <use xlink:href="#DejaVuSans-6c" x="1095.410156"/>
        <use xlink:href="#DejaVuSans-2e" x="1123.193359"/>
        <use xlink:href="#DejaVuSans-79" x="1154.980469"/>
        <use xlink:href="#DejaVuSans-61" x="1214.160156"/>
        <use xlink:href="#DejaVuSans-6d" x="1275.439453"/>
        <use xlink:href="#DejaVuSans-6c" x="1372.851562"/>
       </g>
      </g>
     </g>
    </g>
    <defs>
     <clipPath id="pa7dc37f511">
      <rect x="46.965625" y="22.318125" width="450.634375" height="238.10375"/>
     </clipPath>
    </defs>
   </g>
  </g>
 </g>
</svg>
