<?xml version="1.0" encoding="utf-8" standalone="no"?>
<!DOCTYPE svg PUBLIC "-//W3C//DTD SVG 1.1//EN"
  "http://www.w3.org/Graphics/SVG/1.1/DTD/svg11.dtd">
<svg xmlns:xlink="http://www.w3.org/1999/xlink" width="607.2pt" height="338.4pt" viewBox="0 0 607.2 338.4" xmlns="http://www.w3.org/2000/svg" version="1.1">
 <metadata>
  <rdf:RDF xmlns:dc="http://purl.org/dc/elements/1.1/" xmlns:cc="http://creativecommons.org/ns#" xmlns:rdf="http://www.w3.org/1999/02/22-rdf-syntax-ns#">
   <cc:Work>
    <dc:type rdf:resource="http://purl.org/dc/dcmitype/StillImage"/>
    <dc:date>2023-04-24T09:04:32.262533</dc:date>
    <dc:format>image/svg+xml</dc:format>
    <dc:creator>
     <cc:Agent>
      <dc:title>Matplotlib v3.7.1, https://matplotlib.org/</dc:title>
     </cc:Agent>
    </dc:creator>
   </cc:Work>
  </rdf:RDF>
 </metadata>
 <defs>
  <style type="text/css">*{stroke-linejoin: round; stroke-linecap: butt}</style>
 </defs>
 <g id="figure_1">
  <g id="patch_1">
   <path d="M 0 338.4 
L 607.2 338.4 
L 607.2 0 
L 0 0 
z
" style="fill: #ffffff"/>
  </g>
  <g id="axes_1">
   <g id="patch_2">
    <path d="M 43.78125 318.021875 
L 600 318.021875 
L 600 22.318125 
L 43.78125 22.318125 
z
" style="fill: #ffffff"/>
   </g>
   <path d="M 290.11196 186.444314 
L 291.11196 186.475751 
L 292.11196 186.512691 
L 293.11196 186.610438 
L 294.11196 186.642959 
L 295.11196 186.716584 
L 296.11196 186.755149 
L 297.11196 186.790563 
L 298.11196 186.848202 
L 299.11196 186.918589 
L 300.11196 186.970553 
L 301.11196 187.029643 
L 302.11196 187.117964 
L 303.11196 187.164108 
L 304.11196 187.206519 
L 305.11196 187.237012 
L 306.11196 187.263056 
L 307.11196 187.284257 
L 308.11196 187.338558 
L 309.11196 187.366495 
L 310.11196 187.396219 
L 311.11196 187.421614 
L 312.11196 187.432814 
L 313.11196 187.442938 
L 314.11196 187.442734 
L 315.11196 187.433224 
L 316.11196 187.421571 
L 317.11196 187.390541 
L 318.11196 187.379373 
L 319.11196 187.349256 
L 320.11196 187.289479 
L 321.11196 187.252287 
L 322.11196 187.213191 
L 323.11196 187.170752 
L 324.11196 187.137987 
L 325.11196 187.07056 
L 326.11196 187.031434 
L 327.11196 186.98876 
L 328.11196 186.918179 
L 329.11196 186.881788 
L 330.11196 186.823385 
L 331.11196 186.712432 
L 332.11196 186.641774 
L 333.11196 186.528834 
L 334.11196 186.483061 
L 335.11196 186.421778 
L 336.11196 186.373279 
L 337.11196 186.292456 
L 338.11196 186.173937 
L 339.11196 186.103727 
L 340.11196 186.020464 
L 341.11196 185.987322 
L 342.11196 185.936085 
L 343.11196 185.867687 
L 344.11196 185.801471 
L 345.11196 185.724554 
L 346.11196 185.697239 
L 347.11196 185.670761 
L 348.11196 185.648111 
L 349.11196 185.628579 
L 350.11196 185.602185 
L 351.11196 185.552414 
L 352.11196 185.517341 
L 353.66929 185.481476 
" clip-path="url(#p30d056967c)" style="fill: none; stroke: #1f77b4; stroke-opacity: 0.5; stroke-width: 0.2; stroke-linecap: square"/>
   <path d="M 290.11196 185.705708 
L 291.11196 185.737144 
L 292.11196 185.774084 
L 293.11196 185.871831 
L 294.11196 185.904353 
L 295.11196 185.977977 
L 296.11196 186.016543 
L 297.11196 186.051956 
L 298.11196 186.109596 
L 299.11196 186.179982 
L 300.11196 186.231946 
L 301.11196 186.291036 
L 302.11196 186.379357 
L 303.11196 186.425501 
L 304.11196 186.467912 
L 305.11196 186.498405 
L 306.11196 186.52445 
L 307.11196 186.54565 
L 308.11196 186.599951 
L 309.11196 186.627889 
L 310.11196 186.657613 
L 311.11196 186.683007 
L 312.11196 186.694208 
L 313.11196 186.704332 
L 314.11196 186.704127 
L 315.11196 186.694618 
L 316.11196 186.682964 
L 317.11196 186.651935 
L 318.11196 186.640767 
L 319.11196 186.610649 
L 320.11196 186.550872 
L 321.11196 186.513681 
L 322.11196 186.474585 
L 323.11196 186.432145 
L 324.11196 186.39938 
L 325.11196 186.331954 
L 326.11196 186.292828 
L 327.11196 186.250153 
L 328.11196 186.179572 
L 329.11196 186.143182 
L 330.11196 186.084778 
L 331.11196 185.973826 
L 332.11196 185.903168 
L 333.11196 185.790228 
L 334.11196 185.744455 
L 335.11196 185.683172 
L 336.11196 185.634672 
L 337.11196 185.55385 
L 338.11196 185.435331 
L 339.11196 185.36512 
L 340.11196 185.281858 
L 341.11196 185.248716 
L 342.11196 185.197478 
L 343.11196 185.12908 
L 344.11196 185.062865 
L 345.11196 184.985948 
L 346.11196 184.958632 
L 347.11196 184.932155 
L 348.11196 184.909504 
L 349.11196 184.889973 
L 350.11196 184.863579 
L 351.11196 184.813808 
L 352.11196 184.778735 
L 353.66929 184.742869 
" clip-path="url(#p30d056967c)" style="fill: none; stroke: #1f77b4; stroke-opacity: 0.5; stroke-width: 0.2; stroke-linecap: square"/>
   <path d="M 290.11196 167.152831 
L 291.11196 167.184268 
L 292.11196 167.221208 
L 293.11196 167.318954 
L 294.11196 167.351476 
L 295.11196 167.425101 
L 296.11196 167.463666 
L 297.11196 167.499079 
L 298.11196 167.556719 
L 299.11196 167.627106 
L 300.11196 167.67907 
L 301.11196 167.73816 
L 302.11196 167.826481 
L 303.11196 167.872625 
L 304.11196 167.915036 
L 305.11196 167.945528 
L 306.11196 167.971573 
L 307.11196 167.992773 
L 308.11196 168.047075 
L 309.11196 168.075012 
L 310.11196 168.104736 
L 311.11196 168.130131 
L 312.11196 168.141331 
L 313.11196 168.151455 
L 314.11196 168.151251 
L 315.11196 168.141741 
L 316.11196 168.130087 
L 317.11196 168.099058 
L 318.11196 168.08789 
L 319.11196 168.057773 
L 320.11196 167.997996 
L 321.11196 167.960804 
L 322.11196 167.921708 
L 323.11196 167.879269 
L 324.11196 167.846503 
L 325.11196 167.779077 
L 326.11196 167.739951 
L 327.11196 167.697277 
L 328.11196 167.626696 
L 329.11196 167.590305 
L 330.11196 167.531902 
L 331.11196 167.420949 
L 332.11196 167.350291 
L 333.11196 167.237351 
L 334.11196 167.191578 
L 335.11196 167.130295 
L 336.11196 167.081796 
L 337.11196 167.000973 
L 338.11196 166.882454 
L 339.11196 166.812243 
L 340.11196 166.728981 
L 341.11196 166.695839 
L 342.11196 166.644602 
L 343.11196 166.576204 
L 344.11196 166.509988 
L 345.11196 166.433071 
L 346.11196 166.405756 
L 347.11196 166.379278 
L 348.11196 166.356627 
L 349.11196 166.337096 
L 350.11196 166.310702 
L 351.11196 166.260931 
L 352.11196 166.225858 
L 353.66929 166.189993 
" clip-path="url(#p30d056967c)" style="fill: none; stroke: #1f77b4; stroke-opacity: 0.5; stroke-width: 0.2; stroke-linecap: square"/>
   <path d="M 290.11196 122.548338 
L 291.11196 122.579774 
L 292.11196 122.616715 
L 293.11196 122.714461 
L 294.11196 122.746983 
L 295.11196 122.820607 
L 296.11196 122.859173 
L 297.11196 122.894586 
L 298.11196 122.952226 
L 299.11196 123.022612 
L 300.11196 123.074576 
L 301.11196 123.133666 
L 302.11196 123.221987 
L 303.11196 123.268131 
L 304.11196 123.310542 
L 305.11196 123.341035 
L 306.11196 123.36708 
L 307.11196 123.38828 
L 308.11196 123.442581 
L 309.11196 123.470519 
L 310.11196 123.500243 
L 311.11196 123.525638 
L 312.11196 123.536838 
L 313.11196 123.546962 
L 314.11196 123.546758 
L 315.11196 123.537248 
L 316.11196 123.525594 
L 317.11196 123.494565 
L 318.11196 123.483397 
L 319.11196 123.453279 
L 320.11196 123.393502 
L 321.11196 123.356311 
L 322.11196 123.317215 
L 323.11196 123.274775 
L 324.11196 123.24201 
L 325.11196 123.174584 
L 326.11196 123.135458 
L 327.11196 123.092783 
L 328.11196 123.022203 
L 329.11196 122.985812 
L 330.11196 122.927409 
L 331.11196 122.816456 
L 332.11196 122.745798 
L 333.11196 122.632858 
L 334.11196 122.587085 
L 335.11196 122.525802 
L 336.11196 122.477302 
L 337.11196 122.39648 
L 338.11196 122.277961 
L 339.11196 122.20775 
L 340.11196 122.124488 
L 341.11196 122.091346 
L 342.11196 122.040109 
L 343.11196 121.97171 
L 344.11196 121.905495 
L 345.11196 121.828578 
L 346.11196 121.801262 
L 347.11196 121.774785 
L 348.11196 121.752134 
L 349.11196 121.732603 
L 350.11196 121.706209 
L 351.11196 121.656438 
L 352.11196 121.621365 
L 353.66929 121.585499 
" clip-path="url(#p30d056967c)" style="fill: none; stroke: #1f77b4; stroke-opacity: 0.5; stroke-width: 0.2; stroke-linecap: square"/>
   <path d="M 290.11196 105.34359 
L 291.11196 105.375027 
L 292.11196 105.411967 
L 293.11196 105.509713 
L 294.11196 105.542235 
L 295.11196 105.61586 
L 296.11196 105.654425 
L 297.11196 105.689839 
L 298.11196 105.747478 
L 299.11196 105.817865 
L 300.11196 105.869829 
L 301.11196 105.928919 
L 302.11196 106.01724 
L 303.11196 106.063384 
L 304.11196 106.105795 
L 305.11196 106.136288 
L 306.11196 106.162332 
L 307.11196 106.183533 
L 308.11196 106.237834 
L 309.11196 106.265771 
L 310.11196 106.295495 
L 311.11196 106.32089 
L 312.11196 106.33209 
L 313.11196 106.342214 
L 314.11196 106.34201 
L 315.11196 106.3325 
L 316.11196 106.320847 
L 317.11196 106.289817 
L 318.11196 106.278649 
L 319.11196 106.248532 
L 320.11196 106.188755 
L 321.11196 106.151563 
L 322.11196 106.112467 
L 323.11196 106.070028 
L 324.11196 106.037263 
L 325.11196 105.969836 
L 326.11196 105.93071 
L 327.11196 105.888036 
L 328.11196 105.817455 
L 329.11196 105.781064 
L 330.11196 105.722661 
L 331.11196 105.611708 
L 332.11196 105.54105 
L 333.11196 105.42811 
L 334.11196 105.382337 
L 335.11196 105.321054 
L 336.11196 105.272555 
L 337.11196 105.191732 
L 338.11196 105.073213 
L 339.11196 105.003003 
L 340.11196 104.91974 
L 341.11196 104.886598 
L 342.11196 104.835361 
L 343.11196 104.766963 
L 344.11196 104.700747 
L 345.11196 104.62383 
L 346.11196 104.596515 
L 347.11196 104.570037 
L 348.11196 104.547387 
L 349.11196 104.527855 
L 350.11196 104.501461 
L 351.11196 104.45169 
L 352.11196 104.416617 
L 353.66929 104.380752 
" clip-path="url(#p30d056967c)" style="fill: none; stroke: #1f77b4; stroke-opacity: 0.5; stroke-width: 0.2; stroke-linecap: square"/>
   <path d="M 290.11196 152.983716 
L 291.11196 153.015152 
L 292.11196 153.052092 
L 293.11196 153.149839 
L 294.11196 153.18236 
L 295.11196 153.255985 
L 296.11196 153.294551 
L 297.11196 153.329964 
L 298.11196 153.387604 
L 299.11196 153.45799 
L 300.11196 153.509954 
L 301.11196 153.569044 
L 302.11196 153.657365 
L 303.11196 153.703509 
L 304.11196 153.74592 
L 305.11196 153.776413 
L 306.11196 153.802458 
L 307.11196 153.823658 
L 308.11196 153.877959 
L 309.11196 153.905897 
L 310.11196 153.935621 
L 311.11196 153.961015 
L 312.11196 153.972216 
L 313.11196 153.98234 
L 314.11196 153.982135 
L 315.11196 153.972626 
L 316.11196 153.960972 
L 317.11196 153.929943 
L 318.11196 153.918775 
L 319.11196 153.888657 
L 320.11196 153.82888 
L 321.11196 153.791689 
L 322.11196 153.752593 
L 323.11196 153.710153 
L 324.11196 153.677388 
L 325.11196 153.609961 
L 326.11196 153.570836 
L 327.11196 153.528161 
L 328.11196 153.45758 
L 329.11196 153.42119 
L 330.11196 153.362786 
L 331.11196 153.251834 
L 332.11196 153.181175 
L 333.11196 153.068236 
L 334.11196 153.022463 
L 335.11196 152.96118 
L 336.11196 152.91268 
L 337.11196 152.831858 
L 338.11196 152.713339 
L 339.11196 152.643128 
L 340.11196 152.559865 
L 341.11196 152.526724 
L 342.11196 152.475486 
L 343.11196 152.407088 
L 344.11196 152.340873 
L 345.11196 152.263956 
L 346.11196 152.23664 
L 347.11196 152.210163 
L 348.11196 152.187512 
L 349.11196 152.167981 
L 350.11196 152.141587 
L 351.11196 152.091816 
L 352.11196 152.056743 
L 353.66929 152.020877 
" clip-path="url(#p30d056967c)" style="fill: none; stroke: #1f77b4; stroke-opacity: 0.5; stroke-width: 0.2; stroke-linecap: square"/>
   <path d="M 290.11196 151.74583 
L 291.11196 151.777266 
L 292.11196 151.814206 
L 293.11196 151.911953 
L 294.11196 151.944474 
L 295.11196 152.018099 
L 296.11196 152.056665 
L 297.11196 152.092078 
L 298.11196 152.149718 
L 299.11196 152.220104 
L 300.11196 152.272068 
L 301.11196 152.331158 
L 302.11196 152.419479 
L 303.11196 152.465623 
L 304.11196 152.508034 
L 305.11196 152.538527 
L 306.11196 152.564572 
L 307.11196 152.585772 
L 308.11196 152.640073 
L 309.11196 152.668011 
L 310.11196 152.697735 
L 311.11196 152.723129 
L 312.11196 152.73433 
L 313.11196 152.744454 
L 314.11196 152.744249 
L 315.11196 152.734739 
L 316.11196 152.723086 
L 317.11196 152.692057 
L 318.11196 152.680889 
L 319.11196 152.650771 
L 320.11196 152.590994 
L 321.11196 152.553803 
L 322.11196 152.514707 
L 323.11196 152.472267 
L 324.11196 152.439502 
L 325.11196 152.372075 
L 326.11196 152.332949 
L 327.11196 152.290275 
L 328.11196 152.219694 
L 329.11196 152.183303 
L 330.11196 152.1249 
L 331.11196 152.013948 
L 332.11196 151.943289 
L 333.11196 151.83035 
L 334.11196 151.784577 
L 335.11196 151.723293 
L 336.11196 151.674794 
L 337.11196 151.593971 
L 338.11196 151.475453 
L 339.11196 151.405242 
L 340.11196 151.321979 
L 341.11196 151.288838 
L 342.11196 151.2376 
L 343.11196 151.169202 
L 344.11196 151.102987 
L 345.11196 151.026069 
L 346.11196 150.998754 
L 347.11196 150.972276 
L 348.11196 150.949626 
L 349.11196 150.930095 
L 350.11196 150.903701 
L 351.11196 150.85393 
L 352.11196 150.818857 
L 353.66929 150.782991 
" clip-path="url(#p30d056967c)" style="fill: none; stroke: #1f77b4; stroke-opacity: 0.5; stroke-width: 0.2; stroke-linecap: square"/>
   <path d="M 290.11196 118.02491 
L 291.11196 118.056347 
L 292.11196 118.093287 
L 293.11196 118.191034 
L 294.11196 118.223555 
L 295.11196 118.29718 
L 296.11196 118.335746 
L 297.11196 118.371159 
L 298.11196 118.428799 
L 299.11196 118.499185 
L 300.11196 118.551149 
L 301.11196 118.610239 
L 302.11196 118.69856 
L 303.11196 118.744704 
L 304.11196 118.787115 
L 305.11196 118.817608 
L 306.11196 118.843653 
L 307.11196 118.864853 
L 308.11196 118.919154 
L 309.11196 118.947092 
L 310.11196 118.976815 
L 311.11196 119.00221 
L 312.11196 119.013411 
L 313.11196 119.023535 
L 314.11196 119.02333 
L 315.11196 119.01382 
L 316.11196 119.002167 
L 317.11196 118.971138 
L 318.11196 118.95997 
L 319.11196 118.929852 
L 320.11196 118.870075 
L 321.11196 118.832884 
L 322.11196 118.793788 
L 323.11196 118.751348 
L 324.11196 118.718583 
L 325.11196 118.651156 
L 326.11196 118.61203 
L 327.11196 118.569356 
L 328.11196 118.498775 
L 329.11196 118.462384 
L 330.11196 118.403981 
L 331.11196 118.293029 
L 332.11196 118.22237 
L 333.11196 118.109431 
L 334.11196 118.063658 
L 335.11196 118.002374 
L 336.11196 117.953875 
L 337.11196 117.873052 
L 338.11196 117.754533 
L 339.11196 117.684323 
L 340.11196 117.60106 
L 341.11196 117.567919 
L 342.11196 117.516681 
L 343.11196 117.448283 
L 344.11196 117.382068 
L 345.11196 117.30515 
L 346.11196 117.277835 
L 347.11196 117.251357 
L 348.11196 117.228707 
L 349.11196 117.209176 
L 350.11196 117.182782 
L 351.11196 117.133011 
L 352.11196 117.097938 
L 353.66929 117.062072 
" clip-path="url(#p30d056967c)" style="fill: none; stroke: #1f77b4; stroke-opacity: 0.5; stroke-width: 0.2; stroke-linecap: square"/>
   <path d="M 290.11196 189.324625 
L 291.11196 189.356062 
L 292.11196 189.393002 
L 293.11196 189.490749 
L 294.11196 189.52327 
L 295.11196 189.596895 
L 296.11196 189.635461 
L 297.11196 189.670874 
L 298.11196 189.728514 
L 299.11196 189.7989 
L 300.11196 189.850864 
L 301.11196 189.909954 
L 302.11196 189.998275 
L 303.11196 190.044419 
L 304.11196 190.08683 
L 305.11196 190.117323 
L 306.11196 190.143368 
L 307.11196 190.164568 
L 308.11196 190.218869 
L 309.11196 190.246806 
L 310.11196 190.27653 
L 311.11196 190.301925 
L 312.11196 190.313126 
L 313.11196 190.32325 
L 314.11196 190.323045 
L 315.11196 190.313535 
L 316.11196 190.301882 
L 317.11196 190.270853 
L 318.11196 190.259685 
L 319.11196 190.229567 
L 320.11196 190.16979 
L 321.11196 190.132599 
L 322.11196 190.093503 
L 323.11196 190.051063 
L 324.11196 190.018298 
L 325.11196 189.950871 
L 326.11196 189.911745 
L 327.11196 189.869071 
L 328.11196 189.79849 
L 329.11196 189.762099 
L 330.11196 189.703696 
L 331.11196 189.592744 
L 332.11196 189.522085 
L 333.11196 189.409145 
L 334.11196 189.363373 
L 335.11196 189.302089 
L 336.11196 189.25359 
L 337.11196 189.172767 
L 338.11196 189.054248 
L 339.11196 188.984038 
L 340.11196 188.900775 
L 341.11196 188.867634 
L 342.11196 188.816396 
L 343.11196 188.747998 
L 344.11196 188.681782 
L 345.11196 188.604865 
L 346.11196 188.57755 
L 347.11196 188.551072 
L 348.11196 188.528422 
L 349.11196 188.50889 
L 350.11196 188.482497 
L 351.11196 188.432726 
L 352.11196 188.397653 
L 353.66929 188.361787 
" clip-path="url(#p30d056967c)" style="fill: none; stroke: #1f77b4; stroke-opacity: 0.5; stroke-width: 0.2; stroke-linecap: square"/>
   <path d="M 290.11196 95.365788 
L 291.11196 95.397225 
L 292.11196 95.434165 
L 293.11196 95.531912 
L 294.11196 95.564433 
L 295.11196 95.638058 
L 296.11196 95.676624 
L 297.11196 95.712037 
L 298.11196 95.769677 
L 299.11196 95.840063 
L 300.11196 95.892027 
L 301.11196 95.951117 
L 302.11196 96.039438 
L 303.11196 96.085582 
L 304.11196 96.127993 
L 305.11196 96.158486 
L 306.11196 96.184531 
L 307.11196 96.205731 
L 308.11196 96.260032 
L 309.11196 96.287969 
L 310.11196 96.317693 
L 311.11196 96.343088 
L 312.11196 96.354289 
L 313.11196 96.364413 
L 314.11196 96.364208 
L 315.11196 96.354698 
L 316.11196 96.343045 
L 317.11196 96.312015 
L 318.11196 96.300848 
L 319.11196 96.27073 
L 320.11196 96.210953 
L 321.11196 96.173762 
L 322.11196 96.134665 
L 323.11196 96.092226 
L 324.11196 96.059461 
L 325.11196 95.992034 
L 326.11196 95.952908 
L 327.11196 95.910234 
L 328.11196 95.839653 
L 329.11196 95.803262 
L 330.11196 95.744859 
L 331.11196 95.633907 
L 332.11196 95.563248 
L 333.11196 95.450308 
L 334.11196 95.404536 
L 335.11196 95.343252 
L 336.11196 95.294753 
L 337.11196 95.21393 
L 338.11196 95.095411 
L 339.11196 95.025201 
L 340.11196 94.941938 
L 341.11196 94.908797 
L 342.11196 94.857559 
L 343.11196 94.789161 
L 344.11196 94.722945 
L 345.11196 94.646028 
L 346.11196 94.618713 
L 347.11196 94.592235 
L 348.11196 94.569585 
L 349.11196 94.550053 
L 350.11196 94.523659 
L 351.11196 94.473889 
L 352.11196 94.438815 
L 353.66929 94.40295 
" clip-path="url(#p30d056967c)" style="fill: none; stroke: #1f77b4; stroke-opacity: 0.5; stroke-width: 0.2; stroke-linecap: square"/>
   <path d="M 290.11196 299.078338 
L 291.11196 299.109774 
L 292.11196 299.146714 
L 293.11196 299.244461 
L 294.11196 299.276983 
L 295.11196 299.350607 
L 296.11196 299.389173 
L 297.11196 299.424586 
L 298.11196 299.482226 
L 299.11196 299.552612 
L 300.11196 299.604576 
L 301.11196 299.663666 
L 302.11196 299.751987 
L 303.11196 299.798131 
L 304.11196 299.840542 
L 305.11196 299.871035 
L 306.11196 299.89708 
L 307.11196 299.91828 
L 308.11196 299.972581 
L 309.11196 300.000519 
L 310.11196 300.030243 
L 311.11196 300.055637 
L 312.11196 300.066838 
L 313.11196 300.076962 
L 314.11196 300.076758 
L 315.11196 300.067248 
L 316.11196 300.055594 
L 317.11196 300.024565 
L 318.11196 300.013397 
L 319.11196 299.983279 
L 320.11196 299.923502 
L 321.11196 299.886311 
L 322.11196 299.847215 
L 323.11196 299.804775 
L 324.11196 299.77201 
L 325.11196 299.704584 
L 326.11196 299.665458 
L 327.11196 299.622783 
L 328.11196 299.552203 
L 329.11196 299.515812 
L 330.11196 299.457408 
L 331.11196 299.346456 
L 332.11196 299.275798 
L 333.11196 299.162858 
L 334.11196 299.117085 
L 335.11196 299.055802 
L 336.11196 299.007302 
L 337.11196 298.92648 
L 338.11196 298.807961 
L 339.11196 298.73775 
L 340.11196 298.654488 
L 341.11196 298.621346 
L 342.11196 298.570109 
L 343.11196 298.50171 
L 344.11196 298.435495 
L 345.11196 298.358578 
L 346.11196 298.331262 
L 347.11196 298.304785 
L 348.11196 298.282134 
L 349.11196 298.262603 
L 350.11196 298.236209 
L 351.11196 298.186438 
L 352.11196 298.151365 
L 353.66929 298.115499 
" clip-path="url(#p30d056967c)" style="fill: none; stroke: #1f77b4; stroke-opacity: 0.5; stroke-width: 0.2; stroke-linecap: square"/>
   <path d="M 290.11196 239.924347 
L 291.11196 239.955783 
L 292.11196 239.992724 
L 293.11196 240.09047 
L 294.11196 240.122992 
L 295.11196 240.196616 
L 296.11196 240.235182 
L 297.11196 240.270595 
L 298.11196 240.328235 
L 299.11196 240.398621 
L 300.11196 240.450585 
L 301.11196 240.509675 
L 302.11196 240.597996 
L 303.11196 240.64414 
L 304.11196 240.686551 
L 305.11196 240.717044 
L 306.11196 240.743089 
L 307.11196 240.764289 
L 308.11196 240.81859 
L 309.11196 240.846528 
L 310.11196 240.876252 
L 311.11196 240.901647 
L 312.11196 240.912847 
L 313.11196 240.922971 
L 314.11196 240.922767 
L 315.11196 240.913257 
L 316.11196 240.901603 
L 317.11196 240.870574 
L 318.11196 240.859406 
L 319.11196 240.829288 
L 320.11196 240.769511 
L 321.11196 240.73232 
L 322.11196 240.693224 
L 323.11196 240.650784 
L 324.11196 240.618019 
L 325.11196 240.550593 
L 326.11196 240.511467 
L 327.11196 240.468792 
L 328.11196 240.398212 
L 329.11196 240.361821 
L 330.11196 240.303418 
L 331.11196 240.192465 
L 332.11196 240.121807 
L 333.11196 240.008867 
L 334.11196 239.963094 
L 335.11196 239.901811 
L 336.11196 239.853311 
L 337.11196 239.772489 
L 338.11196 239.65397 
L 339.11196 239.583759 
L 340.11196 239.500497 
L 341.11196 239.467355 
L 342.11196 239.416118 
L 343.11196 239.347719 
L 344.11196 239.281504 
L 345.11196 239.204587 
L 346.11196 239.177271 
L 347.11196 239.150794 
L 348.11196 239.128143 
L 349.11196 239.108612 
L 350.11196 239.082218 
L 351.11196 239.032447 
L 352.11196 238.997374 
L 353.66929 238.961508 
" clip-path="url(#p30d056967c)" style="fill: none; stroke: #1f77b4; stroke-opacity: 0.5; stroke-width: 0.2; stroke-linecap: square"/>
   <path d="M 290.11196 233.390318 
L 291.11196 233.421755 
L 292.11196 233.458695 
L 293.11196 233.556441 
L 294.11196 233.588963 
L 295.11196 233.662588 
L 296.11196 233.701153 
L 297.11196 233.736566 
L 298.11196 233.794206 
L 299.11196 233.864593 
L 300.11196 233.916557 
L 301.11196 233.975647 
L 302.11196 234.063968 
L 303.11196 234.110112 
L 304.11196 234.152523 
L 305.11196 234.183015 
L 306.11196 234.20906 
L 307.11196 234.230261 
L 308.11196 234.284562 
L 309.11196 234.312499 
L 310.11196 234.342223 
L 311.11196 234.367618 
L 312.11196 234.378818 
L 313.11196 234.388942 
L 314.11196 234.388738 
L 315.11196 234.379228 
L 316.11196 234.367575 
L 317.11196 234.336545 
L 318.11196 234.325377 
L 319.11196 234.29526 
L 320.11196 234.235483 
L 321.11196 234.198291 
L 322.11196 234.159195 
L 323.11196 234.116756 
L 324.11196 234.083991 
L 325.11196 234.016564 
L 326.11196 233.977438 
L 327.11196 233.934764 
L 328.11196 233.864183 
L 329.11196 233.827792 
L 330.11196 233.769389 
L 331.11196 233.658436 
L 332.11196 233.587778 
L 333.11196 233.474838 
L 334.11196 233.429065 
L 335.11196 233.367782 
L 336.11196 233.319283 
L 337.11196 233.23846 
L 338.11196 233.119941 
L 339.11196 233.049731 
L 340.11196 232.966468 
L 341.11196 232.933326 
L 342.11196 232.882089 
L 343.11196 232.813691 
L 344.11196 232.747475 
L 345.11196 232.670558 
L 346.11196 232.643243 
L 347.11196 232.616765 
L 348.11196 232.594114 
L 349.11196 232.574583 
L 350.11196 232.548189 
L 351.11196 232.498418 
L 352.11196 232.463345 
L 353.66929 232.42748 
" clip-path="url(#p30d056967c)" style="fill: none; stroke: #1f77b4; stroke-opacity: 0.5; stroke-width: 0.2; stroke-linecap: square"/>
   <path d="M 290.11196 203.497238 
L 291.11196 203.528674 
L 292.11196 203.565614 
L 293.11196 203.663361 
L 294.11196 203.695882 
L 295.11196 203.769507 
L 296.11196 203.808073 
L 297.11196 203.843486 
L 298.11196 203.901126 
L 299.11196 203.971512 
L 300.11196 204.023476 
L 301.11196 204.082566 
L 302.11196 204.170887 
L 303.11196 204.217031 
L 304.11196 204.259442 
L 305.11196 204.289935 
L 306.11196 204.31598 
L 307.11196 204.33718 
L 308.11196 204.391481 
L 309.11196 204.419419 
L 310.11196 204.449142 
L 311.11196 204.474537 
L 312.11196 204.485738 
L 313.11196 204.495862 
L 314.11196 204.495657 
L 315.11196 204.486147 
L 316.11196 204.474494 
L 317.11196 204.443465 
L 318.11196 204.432297 
L 319.11196 204.402179 
L 320.11196 204.342402 
L 321.11196 204.305211 
L 322.11196 204.266115 
L 323.11196 204.223675 
L 324.11196 204.19091 
L 325.11196 204.123483 
L 326.11196 204.084357 
L 327.11196 204.041683 
L 328.11196 203.971102 
L 329.11196 203.934711 
L 330.11196 203.876308 
L 331.11196 203.765356 
L 332.11196 203.694697 
L 333.11196 203.581758 
L 334.11196 203.535985 
L 335.11196 203.474701 
L 336.11196 203.426202 
L 337.11196 203.345379 
L 338.11196 203.226861 
L 339.11196 203.15665 
L 340.11196 203.073387 
L 341.11196 203.040246 
L 342.11196 202.989008 
L 343.11196 202.92061 
L 344.11196 202.854395 
L 345.11196 202.777477 
L 346.11196 202.750162 
L 347.11196 202.723684 
L 348.11196 202.701034 
L 349.11196 202.681503 
L 350.11196 202.655109 
L 351.11196 202.605338 
L 352.11196 202.570265 
L 353.66929 202.534399 
" clip-path="url(#p30d056967c)" style="fill: none; stroke: #1f77b4; stroke-opacity: 0.5; stroke-width: 0.2; stroke-linecap: square"/>
   <path d="M 290.11196 250.693235 
L 291.11196 250.724671 
L 292.11196 250.761612 
L 293.11196 250.859358 
L 294.11196 250.89188 
L 295.11196 250.965505 
L 296.11196 251.00407 
L 297.11196 251.039483 
L 298.11196 251.097123 
L 299.11196 251.167509 
L 300.11196 251.219474 
L 301.11196 251.278563 
L 302.11196 251.366884 
L 303.11196 251.413029 
L 304.11196 251.45544 
L 305.11196 251.485932 
L 306.11196 251.511977 
L 307.11196 251.533177 
L 308.11196 251.587478 
L 309.11196 251.615416 
L 310.11196 251.64514 
L 311.11196 251.670535 
L 312.11196 251.681735 
L 313.11196 251.691859 
L 314.11196 251.691655 
L 315.11196 251.682145 
L 316.11196 251.670491 
L 317.11196 251.639462 
L 318.11196 251.628294 
L 319.11196 251.598177 
L 320.11196 251.5384 
L 321.11196 251.501208 
L 322.11196 251.462112 
L 323.11196 251.419672 
L 324.11196 251.386907 
L 325.11196 251.319481 
L 326.11196 251.280355 
L 327.11196 251.23768 
L 328.11196 251.1671 
L 329.11196 251.130709 
L 330.11196 251.072306 
L 331.11196 250.961353 
L 332.11196 250.890695 
L 333.11196 250.777755 
L 334.11196 250.731982 
L 335.11196 250.670699 
L 336.11196 250.6222 
L 337.11196 250.541377 
L 338.11196 250.422858 
L 339.11196 250.352647 
L 340.11196 250.269385 
L 341.11196 250.236243 
L 342.11196 250.185006 
L 343.11196 250.116607 
L 344.11196 250.050392 
L 345.11196 249.973475 
L 346.11196 249.946159 
L 347.11196 249.919682 
L 348.11196 249.897031 
L 349.11196 249.8775 
L 350.11196 249.851106 
L 351.11196 249.801335 
L 352.11196 249.766262 
L 353.66929 249.730396 
" clip-path="url(#p30d056967c)" style="fill: none; stroke: #1f77b4; stroke-opacity: 0.5; stroke-width: 0.2; stroke-linecap: square"/>
   <path d="M 290.11196 207.497301 
L 291.11196 207.528738 
L 292.11196 207.565678 
L 293.11196 207.663424 
L 294.11196 207.695946 
L 295.11196 207.769571 
L 296.11196 207.808136 
L 297.11196 207.84355 
L 298.11196 207.901189 
L 299.11196 207.971576 
L 300.11196 208.02354 
L 301.11196 208.08263 
L 302.11196 208.170951 
L 303.11196 208.217095 
L 304.11196 208.259506 
L 305.11196 208.289998 
L 306.11196 208.316043 
L 307.11196 208.337244 
L 308.11196 208.391545 
L 309.11196 208.419482 
L 310.11196 208.449206 
L 311.11196 208.474601 
L 312.11196 208.485801 
L 313.11196 208.495925 
L 314.11196 208.495721 
L 315.11196 208.486211 
L 316.11196 208.474558 
L 317.11196 208.443528 
L 318.11196 208.43236 
L 319.11196 208.402243 
L 320.11196 208.342466 
L 321.11196 208.305274 
L 322.11196 208.266178 
L 323.11196 208.223739 
L 324.11196 208.190974 
L 325.11196 208.123547 
L 326.11196 208.084421 
L 327.11196 208.041747 
L 328.11196 207.971166 
L 329.11196 207.934775 
L 330.11196 207.876372 
L 331.11196 207.765419 
L 332.11196 207.694761 
L 333.11196 207.581821 
L 334.11196 207.536048 
L 335.11196 207.474765 
L 336.11196 207.426266 
L 337.11196 207.345443 
L 338.11196 207.226924 
L 339.11196 207.156714 
L 340.11196 207.073451 
L 341.11196 207.040309 
L 342.11196 206.989072 
L 343.11196 206.920674 
L 344.11196 206.854458 
L 345.11196 206.777541 
L 346.11196 206.750226 
L 347.11196 206.723748 
L 348.11196 206.701097 
L 349.11196 206.681566 
L 350.11196 206.655172 
L 351.11196 206.605401 
L 352.11196 206.570328 
L 353.66929 206.534463 
" clip-path="url(#p30d056967c)" style="fill: none; stroke: #1f77b4; stroke-opacity: 0.5; stroke-width: 0.2; stroke-linecap: square"/>
   <path d="M 290.11196 312.44628 
L 291.11196 312.477717 
L 292.11196 312.514657 
L 293.11196 312.612404 
L 294.11196 312.644925 
L 295.11196 312.71855 
L 296.11196 312.757116 
L 297.11196 312.792529 
L 298.11196 312.850169 
L 299.11196 312.920555 
L 300.11196 312.972519 
L 301.11196 313.031609 
L 302.11196 313.11993 
L 303.11196 313.166074 
L 304.11196 313.208485 
L 305.11196 313.238978 
L 306.11196 313.265023 
L 307.11196 313.286223 
L 308.11196 313.340524 
L 309.11196 313.368461 
L 310.11196 313.398185 
L 311.11196 313.42358 
L 312.11196 313.434781 
L 313.11196 313.444904 
L 314.11196 313.4447 
L 315.11196 313.43519 
L 316.11196 313.423537 
L 317.11196 313.392507 
L 318.11196 313.38134 
L 319.11196 313.351222 
L 320.11196 313.291445 
L 321.11196 313.254254 
L 322.11196 313.215157 
L 323.11196 313.172718 
L 324.11196 313.139953 
L 325.11196 313.072526 
L 326.11196 313.0334 
L 327.11196 312.990726 
L 328.11196 312.920145 
L 329.11196 312.883754 
L 330.11196 312.825351 
L 331.11196 312.714399 
L 332.11196 312.64374 
L 333.11196 312.5308 
L 334.11196 312.485028 
L 335.11196 312.423744 
L 336.11196 312.375245 
L 337.11196 312.294422 
L 338.11196 312.175903 
L 339.11196 312.105693 
L 340.11196 312.02243 
L 341.11196 311.989288 
L 342.11196 311.938051 
L 343.11196 311.869653 
L 344.11196 311.803437 
L 345.11196 311.72652 
L 346.11196 311.699205 
L 347.11196 311.672727 
L 348.11196 311.650077 
L 349.11196 311.630545 
L 350.11196 311.604151 
L 351.11196 311.554381 
L 352.11196 311.519307 
L 353.66929 311.483442 
" clip-path="url(#p30d056967c)" style="fill: none; stroke: #1f77b4; stroke-opacity: 0.5; stroke-width: 0.2; stroke-linecap: square"/>
   <path d="M 290.11196 241.277274 
L 291.11196 241.308711 
L 292.11196 241.345651 
L 293.11196 241.443398 
L 294.11196 241.475919 
L 295.11196 241.549544 
L 296.11196 241.58811 
L 297.11196 241.623523 
L 298.11196 241.681163 
L 299.11196 241.751549 
L 300.11196 241.803513 
L 301.11196 241.862603 
L 302.11196 241.950924 
L 303.11196 241.997068 
L 304.11196 242.039479 
L 305.11196 242.069972 
L 306.11196 242.096017 
L 307.11196 242.117217 
L 308.11196 242.171518 
L 309.11196 242.199455 
L 310.11196 242.229179 
L 311.11196 242.254574 
L 312.11196 242.265775 
L 313.11196 242.275899 
L 314.11196 242.275694 
L 315.11196 242.266184 
L 316.11196 242.254531 
L 317.11196 242.223501 
L 318.11196 242.212334 
L 319.11196 242.182216 
L 320.11196 242.122439 
L 321.11196 242.085248 
L 322.11196 242.046151 
L 323.11196 242.003712 
L 324.11196 241.970947 
L 325.11196 241.90352 
L 326.11196 241.864394 
L 327.11196 241.82172 
L 328.11196 241.751139 
L 329.11196 241.714748 
L 330.11196 241.656345 
L 331.11196 241.545393 
L 332.11196 241.474734 
L 333.11196 241.361794 
L 334.11196 241.316022 
L 335.11196 241.254738 
L 336.11196 241.206239 
L 337.11196 241.125416 
L 338.11196 241.006897 
L 339.11196 240.936687 
L 340.11196 240.853424 
L 341.11196 240.820282 
L 342.11196 240.769045 
L 343.11196 240.700647 
L 344.11196 240.634431 
L 345.11196 240.557514 
L 346.11196 240.530199 
L 347.11196 240.503721 
L 348.11196 240.481071 
L 349.11196 240.461539 
L 350.11196 240.435145 
L 351.11196 240.385375 
L 352.11196 240.350301 
L 353.66929 240.314436 
" clip-path="url(#p30d056967c)" style="fill: none; stroke: #1f77b4; stroke-opacity: 0.5; stroke-width: 0.2; stroke-linecap: square"/>
   <path d="M 290.11196 278.468628 
L 291.11196 278.500064 
L 292.11196 278.537005 
L 293.11196 278.634751 
L 294.11196 278.667273 
L 295.11196 278.740898 
L 296.11196 278.779463 
L 297.11196 278.814876 
L 298.11196 278.872516 
L 299.11196 278.942903 
L 300.11196 278.994867 
L 301.11196 279.053957 
L 302.11196 279.142278 
L 303.11196 279.188422 
L 304.11196 279.230833 
L 305.11196 279.261325 
L 306.11196 279.28737 
L 307.11196 279.30857 
L 308.11196 279.362872 
L 309.11196 279.390809 
L 310.11196 279.420533 
L 311.11196 279.445928 
L 312.11196 279.457128 
L 313.11196 279.467252 
L 314.11196 279.467048 
L 315.11196 279.457538 
L 316.11196 279.445884 
L 317.11196 279.414855 
L 318.11196 279.403687 
L 319.11196 279.37357 
L 320.11196 279.313793 
L 321.11196 279.276601 
L 322.11196 279.237505 
L 323.11196 279.195066 
L 324.11196 279.1623 
L 325.11196 279.094874 
L 326.11196 279.055748 
L 327.11196 279.013074 
L 328.11196 278.942493 
L 329.11196 278.906102 
L 330.11196 278.847699 
L 331.11196 278.736746 
L 332.11196 278.666088 
L 333.11196 278.553148 
L 334.11196 278.507375 
L 335.11196 278.446092 
L 336.11196 278.397593 
L 337.11196 278.31677 
L 338.11196 278.198251 
L 339.11196 278.12804 
L 340.11196 278.044778 
L 341.11196 278.011636 
L 342.11196 277.960399 
L 343.11196 277.892001 
L 344.11196 277.825785 
L 345.11196 277.748868 
L 346.11196 277.721553 
L 347.11196 277.695075 
L 348.11196 277.672424 
L 349.11196 277.652893 
L 350.11196 277.626499 
L 351.11196 277.576728 
L 352.11196 277.541655 
L 353.66929 277.50579 
" clip-path="url(#p30d056967c)" style="fill: none; stroke: #1f77b4; stroke-opacity: 0.5; stroke-width: 0.2; stroke-linecap: square"/>
   <path d="M 290.11196 221.825397 
L 291.11196 221.856833 
L 292.11196 221.893774 
L 293.11196 221.99152 
L 294.11196 222.024042 
L 295.11196 222.097667 
L 296.11196 222.136232 
L 297.11196 222.171645 
L 298.11196 222.229285 
L 299.11196 222.299671 
L 300.11196 222.351636 
L 301.11196 222.410725 
L 302.11196 222.499046 
L 303.11196 222.545191 
L 304.11196 222.587602 
L 305.11196 222.618094 
L 306.11196 222.644139 
L 307.11196 222.665339 
L 308.11196 222.71964 
L 309.11196 222.747578 
L 310.11196 222.777302 
L 311.11196 222.802697 
L 312.11196 222.813897 
L 313.11196 222.824021 
L 314.11196 222.823817 
L 315.11196 222.814307 
L 316.11196 222.802653 
L 317.11196 222.771624 
L 318.11196 222.760456 
L 319.11196 222.730339 
L 320.11196 222.670562 
L 321.11196 222.63337 
L 322.11196 222.594274 
L 323.11196 222.551834 
L 324.11196 222.519069 
L 325.11196 222.451643 
L 326.11196 222.412517 
L 327.11196 222.369842 
L 328.11196 222.299262 
L 329.11196 222.262871 
L 330.11196 222.204468 
L 331.11196 222.093515 
L 332.11196 222.022857 
L 333.11196 221.909917 
L 334.11196 221.864144 
L 335.11196 221.802861 
L 336.11196 221.754362 
L 337.11196 221.673539 
L 338.11196 221.55502 
L 339.11196 221.484809 
L 340.11196 221.401547 
L 341.11196 221.368405 
L 342.11196 221.317168 
L 343.11196 221.248769 
L 344.11196 221.182554 
L 345.11196 221.105637 
L 346.11196 221.078321 
L 347.11196 221.051844 
L 348.11196 221.029193 
L 349.11196 221.009662 
L 350.11196 220.983268 
L 351.11196 220.933497 
L 352.11196 220.898424 
L 353.66929 220.862558 
" clip-path="url(#p30d056967c)" style="fill: none; stroke: #1f77b4; stroke-opacity: 0.5; stroke-width: 0.2; stroke-linecap: square"/>
   <g id="patch_3">
    <path d="M 69.06392 22.318125 
L 69.06392 318.021875 
M 284.549772 22.318125 
L 284.549772 318.021875 
" clip-path="url(#p30d056967c)" style="fill: none; stroke: #ffffff; stroke-width: 3; stroke-linejoin: miter"/>
    <path d="M 69.06392 22.318125 
L 69.06392 318.021875 
M 284.549772 22.318125 
L 284.549772 318.021875 
" clip-path="url(#p30d056967c)" style="fill: none; stroke: #1f77b4; stroke-linejoin: miter"/>
    <g id="PolyCollection_1">
     <path d="M 284.549772 22.318125 
L 69.06392 22.318125 
L 69.06392 318.021875 
L 284.549772 318.021875 
L 284.549772 318.021875 
L 284.549772 22.318125 
z
" clip-path="url(#p30d056967c)" style="fill: #1f77b4; fill-opacity: 0.5"/>
    </g>
    <g id="patch_4">
     <path d="M 359.231478 22.318125 
L 359.231478 318.021875 
M 574.71733 22.318125 
L 574.71733 318.021875 
" clip-path="url(#p30d056967c)" style="fill: none; stroke: #ffffff; stroke-width: 3; stroke-linejoin: miter"/>
     <path d="M 359.231478 22.318125 
L 359.231478 318.021875 
M 574.71733 22.318125 
L 574.71733 318.021875 
" clip-path="url(#p30d056967c)" style="fill: none; stroke: #ff7f0e; stroke-linejoin: miter"/>
     <g id="PolyCollection_2">
      <path d="M 574.71733 22.318125 
L 359.231478 22.318125 
L 359.231478 318.021875 
L 574.71733 318.021875 
L 574.71733 318.021875 
L 574.71733 22.318125 
z
" clip-path="url(#p30d056967c)" style="fill: #ff7f0e; fill-opacity: 0.5"/>
     </g>
     <g id="matplotlib.axis_1">
      <g id="xtick_1">
       <g id="line2d_1"/>
       <g id="text_1">
        <!-- deme0 -->
        <g transform="translate(159.42794 329.120312) scale(0.1 -0.1)">
         <defs>
          <path id="DejaVuSans-64" d="M 2906 2969 
L 2906 4863 
L 3481 4863 
L 3481 0 
L 2906 0 
L 2906 525 
Q 2725 213 2448 61 
Q 2172 -91 1784 -91 
Q 1150 -91 751 415 
Q 353 922 353 1747 
Q 353 2572 751 3078 
Q 1150 3584 1784 3584 
Q 2172 3584 2448 3432 
Q 2725 3281 2906 2969 
z
M 947 1747 
Q 947 1113 1208 752 
Q 1469 391 1925 391 
Q 2381 391 2643 752 
Q 2906 1113 2906 1747 
Q 2906 2381 2643 2742 
Q 2381 3103 1925 3103 
Q 1469 3103 1208 2742 
Q 947 2381 947 1747 
z
" transform="scale(0.015625)"/>
          <path id="DejaVuSans-65" d="M 3597 1894 
L 3597 1613 
L 953 1613 
Q 991 1019 1311 708 
Q 1631 397 2203 397 
Q 2534 397 2845 478 
Q 3156 559 3463 722 
L 3463 178 
Q 3153 47 2828 -22 
Q 2503 -91 2169 -91 
Q 1331 -91 842 396 
Q 353 884 353 1716 
Q 353 2575 817 3079 
Q 1281 3584 2069 3584 
Q 2775 3584 3186 3129 
Q 3597 2675 3597 1894 
z
M 3022 2063 
Q 3016 2534 2758 2815 
Q 2500 3097 2075 3097 
Q 1594 3097 1305 2825 
Q 1016 2553 972 2059 
L 3022 2063 
z
" transform="scale(0.015625)"/>
          <path id="DejaVuSans-6d" d="M 3328 2828 
Q 3544 3216 3844 3400 
Q 4144 3584 4550 3584 
Q 5097 3584 5394 3201 
Q 5691 2819 5691 2113 
L 5691 0 
L 5113 0 
L 5113 2094 
Q 5113 2597 4934 2840 
Q 4756 3084 4391 3084 
Q 3944 3084 3684 2787 
Q 3425 2491 3425 1978 
L 3425 0 
L 2847 0 
L 2847 2094 
Q 2847 2600 2669 2842 
Q 2491 3084 2119 3084 
Q 1678 3084 1418 2786 
Q 1159 2488 1159 1978 
L 1159 0 
L 581 0 
L 581 3500 
L 1159 3500 
L 1159 2956 
Q 1356 3278 1631 3431 
Q 1906 3584 2284 3584 
Q 2666 3584 2933 3390 
Q 3200 3197 3328 2828 
z
" transform="scale(0.015625)"/>
          <path id="DejaVuSans-30" d="M 2034 4250 
Q 1547 4250 1301 3770 
Q 1056 3291 1056 2328 
Q 1056 1369 1301 889 
Q 1547 409 2034 409 
Q 2525 409 2770 889 
Q 3016 1369 3016 2328 
Q 3016 3291 2770 3770 
Q 2525 4250 2034 4250 
z
M 2034 4750 
Q 2819 4750 3233 4129 
Q 3647 3509 3647 2328 
Q 3647 1150 3233 529 
Q 2819 -91 2034 -91 
Q 1250 -91 836 529 
Q 422 1150 422 2328 
Q 422 3509 836 4129 
Q 1250 4750 2034 4750 
z
" transform="scale(0.015625)"/>
         </defs>
         <use xlink:href="#DejaVuSans-64"/>
         <use xlink:href="#DejaVuSans-65" x="63.476562"/>
         <use xlink:href="#DejaVuSans-6d" x="125"/>
         <use xlink:href="#DejaVuSans-65" x="222.412109"/>
         <use xlink:href="#DejaVuSans-30" x="283.935547"/>
        </g>
       </g>
      </g>
      <g id="xtick_2">
       <g id="line2d_2"/>
       <g id="text_2">
        <!-- deme1 -->
        <g transform="translate(449.595497 329.120312) scale(0.1 -0.1)">
         <defs>
          <path id="DejaVuSans-31" d="M 794 531 
L 1825 531 
L 1825 4091 
L 703 3866 
L 703 4441 
L 1819 4666 
L 2450 4666 
L 2450 531 
L 3481 531 
L 3481 0 
L 794 0 
L 794 531 
z
" transform="scale(0.015625)"/>
         </defs>
         <use xlink:href="#DejaVuSans-64"/>
         <use xlink:href="#DejaVuSans-65" x="63.476562"/>
         <use xlink:href="#DejaVuSans-6d" x="125"/>
         <use xlink:href="#DejaVuSans-65" x="222.412109"/>
         <use xlink:href="#DejaVuSans-31" x="283.935547"/>
        </g>
       </g>
      </g>
     </g>
     <g id="matplotlib.axis_2">
      <g id="ytick_1">
       <g id="line2d_3">
        <defs>
         <path id="m92a9a145f3" d="M 0 0 
L -3.5 0 
" style="stroke: #000000; stroke-width: 0.8"/>
        </defs>
        <g>
         <use xlink:href="#m92a9a145f3" x="43.78125" y="318.021875" style="stroke: #000000; stroke-width: 0.8"/>
        </g>
       </g>
       <g id="text_3">
        <!-- 0.0 -->
        <g transform="translate(20.878125 321.821094) scale(0.1 -0.1)">
         <defs>
          <path id="DejaVuSans-2e" d="M 684 794 
L 1344 794 
L 1344 0 
L 684 0 
L 684 794 
z
" transform="scale(0.015625)"/>
         </defs>
         <use xlink:href="#DejaVuSans-30"/>
         <use xlink:href="#DejaVuSans-2e" x="63.623047"/>
         <use xlink:href="#DejaVuSans-30" x="95.410156"/>
        </g>
       </g>
      </g>
      <g id="ytick_2">
       <g id="line2d_4">
        <g>
         <use xlink:href="#m92a9a145f3" x="43.78125" y="258.881125" style="stroke: #000000; stroke-width: 0.8"/>
        </g>
       </g>
       <g id="text_4">
        <!-- 0.5 -->
        <g transform="translate(20.878125 262.680344) scale(0.1 -0.1)">
         <defs>
          <path id="DejaVuSans-35" d="M 691 4666 
L 3169 4666 
L 3169 4134 
L 1269 4134 
L 1269 2991 
Q 1406 3038 1543 3061 
Q 1681 3084 1819 3084 
Q 2600 3084 3056 2656 
Q 3513 2228 3513 1497 
Q 3513 744 3044 326 
Q 2575 -91 1722 -91 
Q 1428 -91 1123 -41 
Q 819 9 494 109 
L 494 744 
Q 775 591 1075 516 
Q 1375 441 1709 441 
Q 2250 441 2565 725 
Q 2881 1009 2881 1497 
Q 2881 1984 2565 2268 
Q 2250 2553 1709 2553 
Q 1456 2553 1204 2497 
Q 953 2441 691 2322 
L 691 4666 
z
" transform="scale(0.015625)"/>
         </defs>
         <use xlink:href="#DejaVuSans-30"/>
         <use xlink:href="#DejaVuSans-2e" x="63.623047"/>
         <use xlink:href="#DejaVuSans-35" x="95.410156"/>
        </g>
       </g>
      </g>
      <g id="ytick_3">
       <g id="line2d_5">
        <g>
         <use xlink:href="#m92a9a145f3" x="43.78125" y="199.740375" style="stroke: #000000; stroke-width: 0.8"/>
        </g>
       </g>
       <g id="text_5">
        <!-- 1.0 -->
        <g transform="translate(20.878125 203.539594) scale(0.1 -0.1)">
         <use xlink:href="#DejaVuSans-31"/>
         <use xlink:href="#DejaVuSans-2e" x="63.623047"/>
         <use xlink:href="#DejaVuSans-30" x="95.410156"/>
        </g>
       </g>
      </g>
      <g id="ytick_4">
       <g id="line2d_6">
        <g>
         <use xlink:href="#m92a9a145f3" x="43.78125" y="140.599625" style="stroke: #000000; stroke-width: 0.8"/>
        </g>
       </g>
       <g id="text_6">
        <!-- 1.5 -->
        <g transform="translate(20.878125 144.398844) scale(0.1 -0.1)">
         <use xlink:href="#DejaVuSans-31"/>
         <use xlink:href="#DejaVuSans-2e" x="63.623047"/>
         <use xlink:href="#DejaVuSans-35" x="95.410156"/>
        </g>
       </g>
      </g>
      <g id="ytick_5">
       <g id="line2d_7">
        <g>
         <use xlink:href="#m92a9a145f3" x="43.78125" y="81.458875" style="stroke: #000000; stroke-width: 0.8"/>
        </g>
       </g>
       <g id="text_7">
        <!-- 2.0 -->
        <g transform="translate(20.878125 85.258094) scale(0.1 -0.1)">
         <defs>
          <path id="DejaVuSans-32" d="M 1228 531 
L 3431 531 
L 3431 0 
L 469 0 
L 469 531 
Q 828 903 1448 1529 
Q 2069 2156 2228 2338 
Q 2531 2678 2651 2914 
Q 2772 3150 2772 3378 
Q 2772 3750 2511 3984 
Q 2250 4219 1831 4219 
Q 1534 4219 1204 4116 
Q 875 4013 500 3803 
L 500 4441 
Q 881 4594 1212 4672 
Q 1544 4750 1819 4750 
Q 2544 4750 2975 4387 
Q 3406 4025 3406 3419 
Q 3406 3131 3298 2873 
Q 3191 2616 2906 2266 
Q 2828 2175 2409 1742 
Q 1991 1309 1228 531 
z
" transform="scale(0.015625)"/>
         </defs>
         <use xlink:href="#DejaVuSans-32"/>
         <use xlink:href="#DejaVuSans-2e" x="63.623047"/>
         <use xlink:href="#DejaVuSans-30" x="95.410156"/>
        </g>
       </g>
      </g>
      <g id="ytick_6">
       <g id="line2d_8">
        <g>
         <use xlink:href="#m92a9a145f3" x="43.78125" y="22.318125" style="stroke: #000000; stroke-width: 0.8"/>
        </g>
       </g>
       <g id="text_8">
        <!-- 2.5 -->
        <g transform="translate(20.878125 26.117344) scale(0.1 -0.1)">
         <use xlink:href="#DejaVuSans-32"/>
         <use xlink:href="#DejaVuSans-2e" x="63.623047"/>
         <use xlink:href="#DejaVuSans-35" x="95.410156"/>
        </g>
       </g>
      </g>
      <g id="text_9">
       <!-- time ago (generations) -->
       <g transform="translate(14.798438 227.641094) rotate(-90) scale(0.1 -0.1)">
        <defs>
         <path id="DejaVuSans-74" d="M 1172 4494 
L 1172 3500 
L 2356 3500 
L 2356 3053 
L 1172 3053 
L 1172 1153 
Q 1172 725 1289 603 
Q 1406 481 1766 481 
L 2356 481 
L 2356 0 
L 1766 0 
Q 1100 0 847 248 
Q 594 497 594 1153 
L 594 3053 
L 172 3053 
L 172 3500 
L 594 3500 
L 594 4494 
L 1172 4494 
z
" transform="scale(0.015625)"/>
         <path id="DejaVuSans-69" d="M 603 3500 
L 1178 3500 
L 1178 0 
L 603 0 
L 603 3500 
z
M 603 4863 
L 1178 4863 
L 1178 4134 
L 603 4134 
L 603 4863 
z
" transform="scale(0.015625)"/>
         <path id="DejaVuSans-20" transform="scale(0.015625)"/>
         <path id="DejaVuSans-61" d="M 2194 1759 
Q 1497 1759 1228 1600 
Q 959 1441 959 1056 
Q 959 750 1161 570 
Q 1363 391 1709 391 
Q 2188 391 2477 730 
Q 2766 1069 2766 1631 
L 2766 1759 
L 2194 1759 
z
M 3341 1997 
L 3341 0 
L 2766 0 
L 2766 531 
Q 2569 213 2275 61 
Q 1981 -91 1556 -91 
Q 1019 -91 701 211 
Q 384 513 384 1019 
Q 384 1609 779 1909 
Q 1175 2209 1959 2209 
L 2766 2209 
L 2766 2266 
Q 2766 2663 2505 2880 
Q 2244 3097 1772 3097 
Q 1472 3097 1187 3025 
Q 903 2953 641 2809 
L 641 3341 
Q 956 3463 1253 3523 
Q 1550 3584 1831 3584 
Q 2591 3584 2966 3190 
Q 3341 2797 3341 1997 
z
" transform="scale(0.015625)"/>
         <path id="DejaVuSans-67" d="M 2906 1791 
Q 2906 2416 2648 2759 
Q 2391 3103 1925 3103 
Q 1463 3103 1205 2759 
Q 947 2416 947 1791 
Q 947 1169 1205 825 
Q 1463 481 1925 481 
Q 2391 481 2648 825 
Q 2906 1169 2906 1791 
z
M 3481 434 
Q 3481 -459 3084 -895 
Q 2688 -1331 1869 -1331 
Q 1566 -1331 1297 -1286 
Q 1028 -1241 775 -1147 
L 775 -588 
Q 1028 -725 1275 -790 
Q 1522 -856 1778 -856 
Q 2344 -856 2625 -561 
Q 2906 -266 2906 331 
L 2906 616 
Q 2728 306 2450 153 
Q 2172 0 1784 0 
Q 1141 0 747 490 
Q 353 981 353 1791 
Q 353 2603 747 3093 
Q 1141 3584 1784 3584 
Q 2172 3584 2450 3431 
Q 2728 3278 2906 2969 
L 2906 3500 
L 3481 3500 
L 3481 434 
z
" transform="scale(0.015625)"/>
         <path id="DejaVuSans-6f" d="M 1959 3097 
Q 1497 3097 1228 2736 
Q 959 2375 959 1747 
Q 959 1119 1226 758 
Q 1494 397 1959 397 
Q 2419 397 2687 759 
Q 2956 1122 2956 1747 
Q 2956 2369 2687 2733 
Q 2419 3097 1959 3097 
z
M 1959 3584 
Q 2709 3584 3137 3096 
Q 3566 2609 3566 1747 
Q 3566 888 3137 398 
Q 2709 -91 1959 -91 
Q 1206 -91 779 398 
Q 353 888 353 1747 
Q 353 2609 779 3096 
Q 1206 3584 1959 3584 
z
" transform="scale(0.015625)"/>
         <path id="DejaVuSans-28" d="M 1984 4856 
Q 1566 4138 1362 3434 
Q 1159 2731 1159 2009 
Q 1159 1288 1364 580 
Q 1569 -128 1984 -844 
L 1484 -844 
Q 1016 -109 783 600 
Q 550 1309 550 2009 
Q 550 2706 781 3412 
Q 1013 4119 1484 4856 
L 1984 4856 
z
" transform="scale(0.015625)"/>
         <path id="DejaVuSans-6e" d="M 3513 2113 
L 3513 0 
L 2938 0 
L 2938 2094 
Q 2938 2591 2744 2837 
Q 2550 3084 2163 3084 
Q 1697 3084 1428 2787 
Q 1159 2491 1159 1978 
L 1159 0 
L 581 0 
L 581 3500 
L 1159 3500 
L 1159 2956 
Q 1366 3272 1645 3428 
Q 1925 3584 2291 3584 
Q 2894 3584 3203 3211 
Q 3513 2838 3513 2113 
z
" transform="scale(0.015625)"/>
         <path id="DejaVuSans-72" d="M 2631 2963 
Q 2534 3019 2420 3045 
Q 2306 3072 2169 3072 
Q 1681 3072 1420 2755 
Q 1159 2438 1159 1844 
L 1159 0 
L 581 0 
L 581 3500 
L 1159 3500 
L 1159 2956 
Q 1341 3275 1631 3429 
Q 1922 3584 2338 3584 
Q 2397 3584 2469 3576 
Q 2541 3569 2628 3553 
L 2631 2963 
z
" transform="scale(0.015625)"/>
         <path id="DejaVuSans-73" d="M 2834 3397 
L 2834 2853 
Q 2591 2978 2328 3040 
Q 2066 3103 1784 3103 
Q 1356 3103 1142 2972 
Q 928 2841 928 2578 
Q 928 2378 1081 2264 
Q 1234 2150 1697 2047 
L 1894 2003 
Q 2506 1872 2764 1633 
Q 3022 1394 3022 966 
Q 3022 478 2636 193 
Q 2250 -91 1575 -91 
Q 1294 -91 989 -36 
Q 684 19 347 128 
L 347 722 
Q 666 556 975 473 
Q 1284 391 1588 391 
Q 1994 391 2212 530 
Q 2431 669 2431 922 
Q 2431 1156 2273 1281 
Q 2116 1406 1581 1522 
L 1381 1569 
Q 847 1681 609 1914 
Q 372 2147 372 2553 
Q 372 3047 722 3315 
Q 1072 3584 1716 3584 
Q 2034 3584 2315 3537 
Q 2597 3491 2834 3397 
z
" transform="scale(0.015625)"/>
         <path id="DejaVuSans-29" d="M 513 4856 
L 1013 4856 
Q 1481 4119 1714 3412 
Q 1947 2706 1947 2009 
Q 1947 1309 1714 600 
Q 1481 -109 1013 -844 
L 513 -844 
Q 928 -128 1133 580 
Q 1338 1288 1338 2009 
Q 1338 2731 1133 3434 
Q 928 4138 513 4856 
z
" transform="scale(0.015625)"/>
        </defs>
        <use xlink:href="#DejaVuSans-74"/>
        <use xlink:href="#DejaVuSans-69" x="39.208984"/>
        <use xlink:href="#DejaVuSans-6d" x="66.992188"/>
        <use xlink:href="#DejaVuSans-65" x="164.404297"/>
        <use xlink:href="#DejaVuSans-20" x="225.927734"/>
        <use xlink:href="#DejaVuSans-61" x="257.714844"/>
        <use xlink:href="#DejaVuSans-67" x="318.994141"/>
        <use xlink:href="#DejaVuSans-6f" x="382.470703"/>
        <use xlink:href="#DejaVuSans-20" x="443.652344"/>
        <use xlink:href="#DejaVuSans-28" x="475.439453"/>
        <use xlink:href="#DejaVuSans-67" x="514.453125"/>
        <use xlink:href="#DejaVuSans-65" x="577.929688"/>
        <use xlink:href="#DejaVuSans-6e" x="639.453125"/>
        <use xlink:href="#DejaVuSans-65" x="702.832031"/>
        <use xlink:href="#DejaVuSans-72" x="764.355469"/>
        <use xlink:href="#DejaVuSans-61" x="805.46875"/>
        <use xlink:href="#DejaVuSans-74" x="866.748047"/>
        <use xlink:href="#DejaVuSans-69" x="905.957031"/>
        <use xlink:href="#DejaVuSans-6f" x="933.740234"/>
        <use xlink:href="#DejaVuSans-6e" x="994.921875"/>
        <use xlink:href="#DejaVuSans-73" x="1058.300781"/>
        <use xlink:href="#DejaVuSans-29" x="1110.400391"/>
       </g>
      </g>
     </g>
     <path d="M 354.66929 186.444314 
L 352.66929 185.444314 
L 352.66929 187.444314 
z
" clip-path="url(#p30d056967c)" style="fill: #1f77b4; fill-opacity: 0.5; stroke: #1f77b4; stroke-opacity: 0.5; stroke-linejoin: miter"/>
     <path d="M 354.66929 185.705708 
L 352.66929 184.705708 
L 352.66929 186.705708 
z
" clip-path="url(#p30d056967c)" style="fill: #1f77b4; fill-opacity: 0.5; stroke: #1f77b4; stroke-opacity: 0.5; stroke-linejoin: miter"/>
     <path d="M 354.66929 167.152831 
L 352.66929 166.152831 
L 352.66929 168.152831 
z
" clip-path="url(#p30d056967c)" style="fill: #1f77b4; fill-opacity: 0.5; stroke: #1f77b4; stroke-opacity: 0.5; stroke-linejoin: miter"/>
     <path d="M 354.66929 122.548338 
L 352.66929 121.548338 
L 352.66929 123.548338 
z
" clip-path="url(#p30d056967c)" style="fill: #1f77b4; fill-opacity: 0.5; stroke: #1f77b4; stroke-opacity: 0.5; stroke-linejoin: miter"/>
     <path d="M 354.66929 105.34359 
L 352.66929 104.34359 
L 352.66929 106.34359 
z
" clip-path="url(#p30d056967c)" style="fill: #1f77b4; fill-opacity: 0.5; stroke: #1f77b4; stroke-opacity: 0.5; stroke-linejoin: miter"/>
     <path d="M 354.66929 152.983716 
L 352.66929 151.983716 
L 352.66929 153.983716 
z
" clip-path="url(#p30d056967c)" style="fill: #1f77b4; fill-opacity: 0.5; stroke: #1f77b4; stroke-opacity: 0.5; stroke-linejoin: miter"/>
     <path d="M 354.66929 151.74583 
L 352.66929 150.74583 
L 352.66929 152.74583 
z
" clip-path="url(#p30d056967c)" style="fill: #1f77b4; fill-opacity: 0.5; stroke: #1f77b4; stroke-opacity: 0.5; stroke-linejoin: miter"/>
     <path d="M 354.66929 118.02491 
L 352.66929 117.02491 
L 352.66929 119.02491 
z
" clip-path="url(#p30d056967c)" style="fill: #1f77b4; fill-opacity: 0.5; stroke: #1f77b4; stroke-opacity: 0.5; stroke-linejoin: miter"/>
     <path d="M 354.66929 189.324625 
L 352.66929 188.324625 
L 352.66929 190.324625 
z
" clip-path="url(#p30d056967c)" style="fill: #1f77b4; fill-opacity: 0.5; stroke: #1f77b4; stroke-opacity: 0.5; stroke-linejoin: miter"/>
     <path d="M 354.66929 95.365788 
L 352.66929 94.365788 
L 352.66929 96.365788 
z
" clip-path="url(#p30d056967c)" style="fill: #1f77b4; fill-opacity: 0.5; stroke: #1f77b4; stroke-opacity: 0.5; stroke-linejoin: miter"/>
     <path d="M 354.66929 299.078338 
L 352.66929 298.078338 
L 352.66929 300.078338 
z
" clip-path="url(#p30d056967c)" style="fill: #1f77b4; fill-opacity: 0.5; stroke: #1f77b4; stroke-opacity: 0.5; stroke-linejoin: miter"/>
     <path d="M 354.66929 239.924347 
L 352.66929 238.924347 
L 352.66929 240.924347 
z
" clip-path="url(#p30d056967c)" style="fill: #1f77b4; fill-opacity: 0.5; stroke: #1f77b4; stroke-opacity: 0.5; stroke-linejoin: miter"/>
     <path d="M 354.66929 233.390318 
L 352.66929 232.390318 
L 352.66929 234.390318 
z
" clip-path="url(#p30d056967c)" style="fill: #1f77b4; fill-opacity: 0.5; stroke: #1f77b4; stroke-opacity: 0.5; stroke-linejoin: miter"/>
     <path d="M 354.66929 203.497238 
L 352.66929 202.497238 
L 352.66929 204.497238 
z
" clip-path="url(#p30d056967c)" style="fill: #1f77b4; fill-opacity: 0.5; stroke: #1f77b4; stroke-opacity: 0.5; stroke-linejoin: miter"/>
     <path d="M 354.66929 250.693235 
L 352.66929 249.693235 
L 352.66929 251.693235 
z
" clip-path="url(#p30d056967c)" style="fill: #1f77b4; fill-opacity: 0.5; stroke: #1f77b4; stroke-opacity: 0.5; stroke-linejoin: miter"/>
     <path d="M 354.66929 207.497301 
L 352.66929 206.497301 
L 352.66929 208.497301 
z
" clip-path="url(#p30d056967c)" style="fill: #1f77b4; fill-opacity: 0.5; stroke: #1f77b4; stroke-opacity: 0.5; stroke-linejoin: miter"/>
     <path d="M 354.66929 312.44628 
L 352.66929 311.44628 
L 352.66929 313.44628 
z
" clip-path="url(#p30d056967c)" style="fill: #1f77b4; fill-opacity: 0.5; stroke: #1f77b4; stroke-opacity: 0.5; stroke-linejoin: miter"/>
     <path d="M 354.66929 241.277274 
L 352.66929 240.277274 
L 352.66929 242.277274 
z
" clip-path="url(#p30d056967c)" style="fill: #1f77b4; fill-opacity: 0.5; stroke: #1f77b4; stroke-opacity: 0.5; stroke-linejoin: miter"/>
     <path d="M 354.66929 278.468628 
L 352.66929 277.468628 
L 352.66929 279.468628 
z
" clip-path="url(#p30d056967c)" style="fill: #1f77b4; fill-opacity: 0.5; stroke: #1f77b4; stroke-opacity: 0.5; stroke-linejoin: miter"/>
     <path d="M 354.66929 221.825397 
L 352.66929 220.825397 
L 352.66929 222.825397 
z
" clip-path="url(#p30d056967c)" style="fill: #1f77b4; fill-opacity: 0.5; stroke: #1f77b4; stroke-opacity: 0.5; stroke-linejoin: miter"/>
     <g id="patch_5">
      <path d="M 43.78125 318.021875 
L 43.78125 22.318125 
" style="fill: none; stroke: #000000; stroke-width: 0.8; stroke-linejoin: miter; stroke-linecap: square"/>
     </g>
     <g id="text_10">
      <!-- defaults_asymmetric_migration_changing_rate.yaml -->
      <g transform="translate(164.675625 16.318125) scale(0.12 -0.12)">
       <defs>
        <path id="DejaVuSans-66" d="M 2375 4863 
L 2375 4384 
L 1825 4384 
Q 1516 4384 1395 4259 
Q 1275 4134 1275 3809 
L 1275 3500 
L 2222 3500 
L 2222 3053 
L 1275 3053 
L 1275 0 
L 697 0 
L 697 3053 
L 147 3053 
L 147 3500 
L 697 3500 
L 697 3744 
Q 697 4328 969 4595 
Q 1241 4863 1831 4863 
L 2375 4863 
z
" transform="scale(0.015625)"/>
        <path id="DejaVuSans-75" d="M 544 1381 
L 544 3500 
L 1119 3500 
L 1119 1403 
Q 1119 906 1312 657 
Q 1506 409 1894 409 
Q 2359 409 2629 706 
Q 2900 1003 2900 1516 
L 2900 3500 
L 3475 3500 
L 3475 0 
L 2900 0 
L 2900 538 
Q 2691 219 2414 64 
Q 2138 -91 1772 -91 
Q 1169 -91 856 284 
Q 544 659 544 1381 
z
M 1991 3584 
L 1991 3584 
z
" transform="scale(0.015625)"/>
        <path id="DejaVuSans-6c" d="M 603 4863 
L 1178 4863 
L 1178 0 
L 603 0 
L 603 4863 
z
" transform="scale(0.015625)"/>
        <path id="DejaVuSans-5f" d="M 3263 -1063 
L 3263 -1509 
L -63 -1509 
L -63 -1063 
L 3263 -1063 
z
" transform="scale(0.015625)"/>
        <path id="DejaVuSans-79" d="M 2059 -325 
Q 1816 -950 1584 -1140 
Q 1353 -1331 966 -1331 
L 506 -1331 
L 506 -850 
L 844 -850 
Q 1081 -850 1212 -737 
Q 1344 -625 1503 -206 
L 1606 56 
L 191 3500 
L 800 3500 
L 1894 763 
L 2988 3500 
L 3597 3500 
L 2059 -325 
z
" transform="scale(0.015625)"/>
        <path id="DejaVuSans-63" d="M 3122 3366 
L 3122 2828 
Q 2878 2963 2633 3030 
Q 2388 3097 2138 3097 
Q 1578 3097 1268 2742 
Q 959 2388 959 1747 
Q 959 1106 1268 751 
Q 1578 397 2138 397 
Q 2388 397 2633 464 
Q 2878 531 3122 666 
L 3122 134 
Q 2881 22 2623 -34 
Q 2366 -91 2075 -91 
Q 1284 -91 818 406 
Q 353 903 353 1747 
Q 353 2603 823 3093 
Q 1294 3584 2113 3584 
Q 2378 3584 2631 3529 
Q 2884 3475 3122 3366 
z
" transform="scale(0.015625)"/>
        <path id="DejaVuSans-68" d="M 3513 2113 
L 3513 0 
L 2938 0 
L 2938 2094 
Q 2938 2591 2744 2837 
Q 2550 3084 2163 3084 
Q 1697 3084 1428 2787 
Q 1159 2491 1159 1978 
L 1159 0 
L 581 0 
L 581 4863 
L 1159 4863 
L 1159 2956 
Q 1366 3272 1645 3428 
Q 1925 3584 2291 3584 
Q 2894 3584 3203 3211 
Q 3513 2838 3513 2113 
z
" transform="scale(0.015625)"/>
       </defs>
       <use xlink:href="#DejaVuSans-64"/>
       <use xlink:href="#DejaVuSans-65" x="63.476562"/>
       <use xlink:href="#DejaVuSans-66" x="125"/>
       <use xlink:href="#DejaVuSans-61" x="160.205078"/>
       <use xlink:href="#DejaVuSans-75" x="221.484375"/>
       <use xlink:href="#DejaVuSans-6c" x="284.863281"/>
       <use xlink:href="#DejaVuSans-74" x="312.646484"/>
       <use xlink:href="#DejaVuSans-73" x="351.855469"/>
       <use xlink:href="#DejaVuSans-5f" x="403.955078"/>
       <use xlink:href="#DejaVuSans-61" x="453.955078"/>
       <use xlink:href="#DejaVuSans-73" x="515.234375"/>
       <use xlink:href="#DejaVuSans-79" x="567.333984"/>
       <use xlink:href="#DejaVuSans-6d" x="626.513672"/>
       <use xlink:href="#DejaVuSans-6d" x="723.925781"/>
       <use xlink:href="#DejaVuSans-65" x="821.337891"/>
       <use xlink:href="#DejaVuSans-74" x="882.861328"/>
       <use xlink:href="#DejaVuSans-72" x="922.070312"/>
       <use xlink:href="#DejaVuSans-69" x="963.183594"/>
       <use xlink:href="#DejaVuSans-63" x="990.966797"/>
       <use xlink:href="#DejaVuSans-5f" x="1045.947266"/>
       <use xlink:href="#DejaVuSans-6d" x="1095.947266"/>
       <use xlink:href="#DejaVuSans-69" x="1193.359375"/>
       <use xlink:href="#DejaVuSans-67" x="1221.142578"/>
       <use xlink:href="#DejaVuSans-72" x="1284.619141"/>
       <use xlink:href="#DejaVuSans-61" x="1325.732422"/>
       <use xlink:href="#DejaVuSans-74" x="1387.011719"/>
       <use xlink:href="#DejaVuSans-69" x="1426.220703"/>
       <use xlink:href="#DejaVuSans-6f" x="1454.003906"/>
       <use xlink:href="#DejaVuSans-6e" x="1515.185547"/>
       <use xlink:href="#DejaVuSans-5f" x="1578.564453"/>
       <use xlink:href="#DejaVuSans-63" x="1628.564453"/>
       <use xlink:href="#DejaVuSans-68" x="1683.544922"/>
       <use xlink:href="#DejaVuSans-61" x="1746.923828"/>
       <use xlink:href="#DejaVuSans-6e" x="1808.203125"/>
       <use xlink:href="#DejaVuSans-67" x="1871.582031"/>
       <use xlink:href="#DejaVuSans-69" x="1935.058594"/>
       <use xlink:href="#DejaVuSans-6e" x="1962.841797"/>
       <use xlink:href="#DejaVuSans-67" x="2026.220703"/>
       <use xlink:href="#DejaVuSans-5f" x="2089.697266"/>
       <use xlink:href="#DejaVuSans-72" x="2139.697266"/>
       <use xlink:href="#DejaVuSans-61" x="2180.810547"/>
       <use xlink:href="#DejaVuSans-74" x="2242.089844"/>
       <use xlink:href="#DejaVuSans-65" x="2281.298828"/>
       <use xlink:href="#DejaVuSans-2e" x="2342.822266"/>
       <use xlink:href="#DejaVuSans-79" x="2374.609375"/>
       <use xlink:href="#DejaVuSans-61" x="2433.789062"/>
       <use xlink:href="#DejaVuSans-6d" x="2495.068359"/>
       <use xlink:href="#DejaVuSans-6c" x="2592.480469"/>
      </g>
     </g>
    </g>
   </g>
   <defs>
    <clipPath id="p30d056967c">
     <rect x="43.78125" y="22.318125" width="556.21875" height="295.70375"/>
    </clipPath>
   </defs>
  </g>
 </g>
</svg>
