<?xml version="1.0" encoding="utf-8" standalone="no"?>
<!DOCTYPE svg PUBLIC "-//W3C//DTD SVG 1.1//EN"
  "http://www.w3.org/Graphics/SVG/1.1/DTD/svg11.dtd">
<svg xmlns:xlink="http://www.w3.org/1999/xlink" width="607.2pt" height="338.4pt" viewBox="0 0 607.2 338.4" xmlns="http://www.w3.org/2000/svg" version="1.1">
 <metadata>
  <rdf:RDF xmlns:dc="http://purl.org/dc/elements/1.1/" xmlns:cc="http://creativecommons.org/ns#" xmlns:rdf="http://www.w3.org/1999/02/22-rdf-syntax-ns#">
   <cc:Work>
    <dc:type rdf:resource="http://purl.org/dc/dcmitype/StillImage"/>
    <dc:date>2022-10-17T08:40:28.051870</dc:date>
    <dc:format>image/svg+xml</dc:format>
    <dc:creator>
     <cc:Agent>
      <dc:title>Matplotlib v3.6.1, https://matplotlib.org/</dc:title>
     </cc:Agent>
    </dc:creator>
   </cc:Work>
  </rdf:RDF>
 </metadata>
 <defs>
  <style type="text/css">*{stroke-linejoin: round; stroke-linecap: butt}</style>
 </defs>
 <g id="figure_1">
  <g id="patch_1">
   <path d="M 0 338.4 
L 607.2 338.4 
L 607.2 0 
L 0 0 
z
" style="fill: #ffffff"/>
  </g>
  <g id="axes_1">
   <g id="patch_2">
    <path d="M 46.965625 318.021875 
L 600 318.021875 
L 600 22.318125 
L 46.965625 22.318125 
z
" style="fill: #ffffff"/>
   </g>
   <path d="M 200.299443 225.260256 
L 201.299443 225.291692 
L 202.299443 225.328632 
L 203.299443 225.426379 
L 204.299443 225.4589 
L 205.299443 225.532525 
L 206.299443 225.571091 
L 207.299443 225.606504 
L 208.299443 225.664144 
L 209.299443 225.73453 
L 210.299443 225.786494 
L 211.299443 225.845584 
L 212.299443 225.933905 
L 213.299443 225.980049 
L 214.299443 226.02246 
L 215.299443 226.052953 
L 216.299443 226.078998 
L 217.299443 226.100198 
L 218.299443 226.154499 
L 219.299443 226.182437 
L 220.299443 226.212161 
L 221.299443 226.237555 
L 222.299443 226.248756 
L 223.299443 226.25888 
L 224.299443 226.258675 
L 225.299443 226.249165 
L 226.299443 226.237512 
L 227.299443 226.206483 
L 228.299443 226.195315 
L 229.299443 226.165197 
L 230.299443 226.10542 
L 231.299443 226.068229 
L 232.299443 226.029133 
L 233.299443 225.986693 
L 234.299443 225.953928 
L 235.299443 225.886501 
L 236.299443 225.847375 
L 237.299443 225.804701 
L 238.299443 225.73412 
L 239.299443 225.697729 
L 240.299443 225.639326 
L 241.299443 225.528374 
L 242.299443 225.457715 
L 243.299443 225.344776 
L 244.299443 225.299003 
L 245.299443 225.237719 
L 246.299443 225.18922 
L 247.299443 225.108397 
L 248.299443 224.989879 
L 249.299443 224.919668 
L 250.299443 224.836405 
L 251.299443 224.803264 
L 252.299443 224.752026 
L 253.299443 224.683628 
L 254.299443 224.617413 
L 255.299443 224.540495 
L 256.619695 224.51318 
" clip-path="url(#p549d304dc3)" style="fill: none; stroke: #1f77b4; stroke-opacity: 0.5; stroke-width: 0.2; stroke-linecap: square"/>
   <path d="M 200.299443 224.03328 
L 201.299443 224.064716 
L 202.299443 224.101657 
L 203.299443 224.199403 
L 204.299443 224.231925 
L 205.299443 224.30555 
L 206.299443 224.344115 
L 207.299443 224.379528 
L 208.299443 224.437168 
L 209.299443 224.507555 
L 210.299443 224.559519 
L 211.299443 224.618609 
L 212.299443 224.70693 
L 213.299443 224.753074 
L 214.299443 224.795485 
L 215.299443 224.825977 
L 216.299443 224.852022 
L 217.299443 224.873222 
L 218.299443 224.927524 
L 219.299443 224.955461 
L 220.299443 224.985185 
L 221.299443 225.01058 
L 222.299443 225.02178 
L 223.299443 225.031904 
L 224.299443 225.0317 
L 225.299443 225.02219 
L 226.299443 225.010536 
L 227.299443 224.979507 
L 228.299443 224.968339 
L 229.299443 224.938222 
L 230.299443 224.878445 
L 231.299443 224.841253 
L 232.299443 224.802157 
L 233.299443 224.759718 
L 234.299443 224.726952 
L 235.299443 224.659526 
L 236.299443 224.6204 
L 237.299443 224.577726 
L 238.299443 224.507145 
L 239.299443 224.470754 
L 240.299443 224.412351 
L 241.299443 224.301398 
L 242.299443 224.23074 
L 243.299443 224.1178 
L 244.299443 224.072027 
L 245.299443 224.010744 
L 246.299443 223.962245 
L 247.299443 223.881422 
L 248.299443 223.762903 
L 249.299443 223.692692 
L 250.299443 223.60943 
L 251.299443 223.576288 
L 252.299443 223.525051 
L 253.299443 223.456653 
L 254.299443 223.390437 
L 255.299443 223.31352 
L 256.619695 223.286205 
" clip-path="url(#p549d304dc3)" style="fill: none; stroke: #1f77b4; stroke-opacity: 0.5; stroke-width: 0.2; stroke-linecap: square"/>
   <path d="M 200.299443 245.60247 
L 201.299443 245.633906 
L 202.299443 245.670846 
L 203.299443 245.768593 
L 204.299443 245.801115 
L 205.299443 245.874739 
L 206.299443 245.913305 
L 207.299443 245.948718 
L 208.299443 246.006358 
L 209.299443 246.076744 
L 210.299443 246.128708 
L 211.299443 246.187798 
L 212.299443 246.276119 
L 213.299443 246.322263 
L 214.299443 246.364674 
L 215.299443 246.395167 
L 216.299443 246.421212 
L 217.299443 246.442412 
L 218.299443 246.496713 
L 219.299443 246.524651 
L 220.299443 246.554375 
L 221.299443 246.579769 
L 222.299443 246.59097 
L 223.299443 246.601094 
L 224.299443 246.60089 
L 225.299443 246.59138 
L 226.299443 246.579726 
L 227.299443 246.548697 
L 228.299443 246.537529 
L 229.299443 246.507411 
L 230.299443 246.447634 
L 231.299443 246.410443 
L 232.299443 246.371347 
L 233.299443 246.328907 
L 234.299443 246.296142 
L 235.299443 246.228716 
L 236.299443 246.18959 
L 237.299443 246.146915 
L 238.299443 246.076335 
L 239.299443 246.039944 
L 240.299443 245.98154 
L 241.299443 245.870588 
L 242.299443 245.79993 
L 243.299443 245.68699 
L 244.299443 245.641217 
L 245.299443 245.579934 
L 246.299443 245.531434 
L 247.299443 245.450612 
L 248.299443 245.332093 
L 249.299443 245.261882 
L 250.299443 245.17862 
L 251.299443 245.145478 
L 252.299443 245.094241 
L 253.299443 245.025842 
L 254.299443 244.959627 
L 255.299443 244.88271 
L 256.619695 244.855394 
" clip-path="url(#p549d304dc3)" style="fill: none; stroke: #1f77b4; stroke-opacity: 0.5; stroke-width: 0.2; stroke-linecap: square"/>
   <path d="M 200.299443 255.770364 
L 201.299443 255.801801 
L 202.299443 255.838741 
L 203.299443 255.936488 
L 204.299443 255.969009 
L 205.299443 256.042634 
L 206.299443 256.081199 
L 207.299443 256.116613 
L 208.299443 256.174253 
L 209.299443 256.244639 
L 210.299443 256.296603 
L 211.299443 256.355693 
L 212.299443 256.444014 
L 213.299443 256.490158 
L 214.299443 256.532569 
L 215.299443 256.563062 
L 216.299443 256.589106 
L 217.299443 256.610307 
L 218.299443 256.664608 
L 219.299443 256.692545 
L 220.299443 256.722269 
L 221.299443 256.747664 
L 222.299443 256.758864 
L 223.299443 256.768988 
L 224.299443 256.768784 
L 225.299443 256.759274 
L 226.299443 256.747621 
L 227.299443 256.716591 
L 228.299443 256.705423 
L 229.299443 256.675306 
L 230.299443 256.615529 
L 231.299443 256.578337 
L 232.299443 256.539241 
L 233.299443 256.496802 
L 234.299443 256.464037 
L 235.299443 256.39661 
L 236.299443 256.357484 
L 237.299443 256.31481 
L 238.299443 256.244229 
L 239.299443 256.207838 
L 240.299443 256.149435 
L 241.299443 256.038482 
L 242.299443 255.967824 
L 243.299443 255.854884 
L 244.299443 255.809111 
L 245.299443 255.747828 
L 246.299443 255.699329 
L 247.299443 255.618506 
L 248.299443 255.499987 
L 249.299443 255.429777 
L 250.299443 255.346514 
L 251.299443 255.313372 
L 252.299443 255.262135 
L 253.299443 255.193737 
L 254.299443 255.127521 
L 255.299443 255.050604 
L 256.619695 255.023289 
" clip-path="url(#p549d304dc3)" style="fill: none; stroke: #1f77b4; stroke-opacity: 0.5; stroke-width: 0.2; stroke-linecap: square"/>
   <path d="M 200.299443 237.619618 
L 201.299443 237.651055 
L 202.299443 237.687995 
L 203.299443 237.785741 
L 204.299443 237.818263 
L 205.299443 237.891888 
L 206.299443 237.930453 
L 207.299443 237.965866 
L 208.299443 238.023506 
L 209.299443 238.093893 
L 210.299443 238.145857 
L 211.299443 238.204947 
L 212.299443 238.293268 
L 213.299443 238.339412 
L 214.299443 238.381823 
L 215.299443 238.412315 
L 216.299443 238.43836 
L 217.299443 238.459561 
L 218.299443 238.513862 
L 219.299443 238.541799 
L 220.299443 238.571523 
L 221.299443 238.596918 
L 222.299443 238.608118 
L 223.299443 238.618242 
L 224.299443 238.618038 
L 225.299443 238.608528 
L 226.299443 238.596875 
L 227.299443 238.565845 
L 228.299443 238.554677 
L 229.299443 238.52456 
L 230.299443 238.464783 
L 231.299443 238.427591 
L 232.299443 238.388495 
L 233.299443 238.346056 
L 234.299443 238.313291 
L 235.299443 238.245864 
L 236.299443 238.206738 
L 237.299443 238.164064 
L 238.299443 238.093483 
L 239.299443 238.057092 
L 240.299443 237.998689 
L 241.299443 237.887736 
L 242.299443 237.817078 
L 243.299443 237.704138 
L 244.299443 237.658365 
L 245.299443 237.597082 
L 246.299443 237.548583 
L 247.299443 237.46776 
L 248.299443 237.349241 
L 249.299443 237.279031 
L 250.299443 237.195768 
L 251.299443 237.162626 
L 252.299443 237.111389 
L 253.299443 237.042991 
L 254.299443 236.976775 
L 255.299443 236.899858 
L 256.619695 236.872543 
" clip-path="url(#p549d304dc3)" style="fill: none; stroke: #1f77b4; stroke-opacity: 0.5; stroke-width: 0.2; stroke-linecap: square"/>
   <path d="M 200.299443 126.939673 
L 201.299443 126.97111 
L 202.299443 127.00805 
L 203.299443 127.105797 
L 204.299443 127.138318 
L 205.299443 127.211943 
L 206.299443 127.250508 
L 207.299443 127.285922 
L 208.299443 127.343562 
L 209.299443 127.413948 
L 210.299443 127.465912 
L 211.299443 127.525002 
L 212.299443 127.613323 
L 213.299443 127.659467 
L 214.299443 127.701878 
L 215.299443 127.732371 
L 216.299443 127.758416 
L 217.299443 127.779616 
L 218.299443 127.833917 
L 219.299443 127.861854 
L 220.299443 127.891578 
L 221.299443 127.916973 
L 222.299443 127.928173 
L 223.299443 127.938297 
L 224.299443 127.938093 
L 225.299443 127.928583 
L 226.299443 127.91693 
L 227.299443 127.8859 
L 228.299443 127.874732 
L 229.299443 127.844615 
L 230.299443 127.784838 
L 231.299443 127.747646 
L 232.299443 127.70855 
L 233.299443 127.666111 
L 234.299443 127.633346 
L 235.299443 127.565919 
L 236.299443 127.526793 
L 237.299443 127.484119 
L 238.299443 127.413538 
L 239.299443 127.377147 
L 240.299443 127.318744 
L 241.299443 127.207791 
L 242.299443 127.137133 
L 243.299443 127.024193 
L 244.299443 126.97842 
L 245.299443 126.917137 
L 246.299443 126.868638 
L 247.299443 126.787815 
L 248.299443 126.669296 
L 249.299443 126.599086 
L 250.299443 126.515823 
L 251.299443 126.482681 
L 252.299443 126.431444 
L 253.299443 126.363046 
L 254.299443 126.29683 
L 255.299443 126.219913 
L 256.619695 126.192598 
" clip-path="url(#p549d304dc3)" style="fill: none; stroke: #1f77b4; stroke-opacity: 0.5; stroke-width: 0.2; stroke-linecap: square"/>
   <path d="M 200.299443 39.537275 
L 201.299443 39.568712 
L 202.299443 39.605652 
L 203.299443 39.703399 
L 204.299443 39.73592 
L 205.299443 39.809545 
L 206.299443 39.84811 
L 207.299443 39.883524 
L 208.299443 39.941164 
L 209.299443 40.01155 
L 210.299443 40.063514 
L 211.299443 40.122604 
L 212.299443 40.210925 
L 213.299443 40.257069 
L 214.299443 40.29948 
L 215.299443 40.329973 
L 216.299443 40.356018 
L 217.299443 40.377218 
L 218.299443 40.431519 
L 219.299443 40.459456 
L 220.299443 40.48918 
L 221.299443 40.514575 
L 222.299443 40.525775 
L 223.299443 40.535899 
L 224.299443 40.535695 
L 225.299443 40.526185 
L 226.299443 40.514532 
L 227.299443 40.483502 
L 228.299443 40.472334 
L 229.299443 40.442217 
L 230.299443 40.38244 
L 231.299443 40.345248 
L 232.299443 40.306152 
L 233.299443 40.263713 
L 234.299443 40.230948 
L 235.299443 40.163521 
L 236.299443 40.124395 
L 237.299443 40.081721 
L 238.299443 40.01114 
L 239.299443 39.974749 
L 240.299443 39.916346 
L 241.299443 39.805393 
L 242.299443 39.734735 
L 243.299443 39.621795 
L 244.299443 39.576022 
L 245.299443 39.514739 
L 246.299443 39.46624 
L 247.299443 39.385417 
L 248.299443 39.266898 
L 249.299443 39.196688 
L 250.299443 39.113425 
L 251.299443 39.080283 
L 252.299443 39.029046 
L 253.299443 38.960648 
L 254.299443 38.894432 
L 255.299443 38.817515 
L 256.619695 38.7902 
" clip-path="url(#p549d304dc3)" style="fill: none; stroke: #1f77b4; stroke-opacity: 0.5; stroke-width: 0.2; stroke-linecap: square"/>
   <path d="M 200.299443 135.312659 
L 201.299443 135.344096 
L 202.299443 135.381036 
L 203.299443 135.478783 
L 204.299443 135.511304 
L 205.299443 135.584929 
L 206.299443 135.623495 
L 207.299443 135.658908 
L 208.299443 135.716548 
L 209.299443 135.786934 
L 210.299443 135.838898 
L 211.299443 135.897988 
L 212.299443 135.986309 
L 213.299443 136.032453 
L 214.299443 136.074864 
L 215.299443 136.105357 
L 216.299443 136.131402 
L 217.299443 136.152602 
L 218.299443 136.206903 
L 219.299443 136.23484 
L 220.299443 136.264564 
L 221.299443 136.289959 
L 222.299443 136.30116 
L 223.299443 136.311284 
L 224.299443 136.311079 
L 225.299443 136.301569 
L 226.299443 136.289916 
L 227.299443 136.258887 
L 228.299443 136.247719 
L 229.299443 136.217601 
L 230.299443 136.157824 
L 231.299443 136.120633 
L 232.299443 136.081537 
L 233.299443 136.039097 
L 234.299443 136.006332 
L 235.299443 135.938905 
L 236.299443 135.899779 
L 237.299443 135.857105 
L 238.299443 135.786524 
L 239.299443 135.750133 
L 240.299443 135.69173 
L 241.299443 135.580778 
L 242.299443 135.510119 
L 243.299443 135.397179 
L 244.299443 135.351407 
L 245.299443 135.290123 
L 246.299443 135.241624 
L 247.299443 135.160801 
L 248.299443 135.042282 
L 249.299443 134.972072 
L 250.299443 134.888809 
L 251.299443 134.855668 
L 252.299443 134.80443 
L 253.299443 134.736032 
L 254.299443 134.669816 
L 255.299443 134.592899 
L 256.619695 134.565584 
" clip-path="url(#p549d304dc3)" style="fill: none; stroke: #1f77b4; stroke-opacity: 0.5; stroke-width: 0.2; stroke-linecap: square"/>
   <path d="M 200.299443 169.439844 
L 201.299443 169.471281 
L 202.299443 169.508221 
L 203.299443 169.605968 
L 204.299443 169.638489 
L 205.299443 169.712114 
L 206.299443 169.75068 
L 207.299443 169.786093 
L 208.299443 169.843733 
L 209.299443 169.914119 
L 210.299443 169.966083 
L 211.299443 170.025173 
L 212.299443 170.113494 
L 213.299443 170.159638 
L 214.299443 170.202049 
L 215.299443 170.232542 
L 216.299443 170.258587 
L 217.299443 170.279787 
L 218.299443 170.334088 
L 219.299443 170.362025 
L 220.299443 170.391749 
L 221.299443 170.417144 
L 222.299443 170.428345 
L 223.299443 170.438469 
L 224.299443 170.438264 
L 225.299443 170.428754 
L 226.299443 170.417101 
L 227.299443 170.386072 
L 228.299443 170.374904 
L 229.299443 170.344786 
L 230.299443 170.285009 
L 231.299443 170.247818 
L 232.299443 170.208722 
L 233.299443 170.166282 
L 234.299443 170.133517 
L 235.299443 170.06609 
L 236.299443 170.026964 
L 237.299443 169.98429 
L 238.299443 169.913709 
L 239.299443 169.877318 
L 240.299443 169.818915 
L 241.299443 169.707963 
L 242.299443 169.637304 
L 243.299443 169.524364 
L 244.299443 169.478592 
L 245.299443 169.417308 
L 246.299443 169.368809 
L 247.299443 169.287986 
L 248.299443 169.169467 
L 249.299443 169.099257 
L 250.299443 169.015994 
L 251.299443 168.982853 
L 252.299443 168.931615 
L 253.299443 168.863217 
L 254.299443 168.797001 
L 255.299443 168.720084 
L 256.619695 168.692769 
" clip-path="url(#p549d304dc3)" style="fill: none; stroke: #1f77b4; stroke-opacity: 0.5; stroke-width: 0.2; stroke-linecap: square"/>
   <path d="M 200.299443 75.677979 
L 201.299443 75.709415 
L 202.299443 75.746355 
L 203.299443 75.844102 
L 204.299443 75.876624 
L 205.299443 75.950248 
L 206.299443 75.988814 
L 207.299443 76.024227 
L 208.299443 76.081867 
L 209.299443 76.152253 
L 210.299443 76.204217 
L 211.299443 76.263307 
L 212.299443 76.351628 
L 213.299443 76.397772 
L 214.299443 76.440183 
L 215.299443 76.470676 
L 216.299443 76.496721 
L 217.299443 76.517921 
L 218.299443 76.572222 
L 219.299443 76.60016 
L 220.299443 76.629884 
L 221.299443 76.655278 
L 222.299443 76.666479 
L 223.299443 76.676603 
L 224.299443 76.676399 
L 225.299443 76.666889 
L 226.299443 76.655235 
L 227.299443 76.624206 
L 228.299443 76.613038 
L 229.299443 76.58292 
L 230.299443 76.523143 
L 231.299443 76.485952 
L 232.299443 76.446856 
L 233.299443 76.404416 
L 234.299443 76.371651 
L 235.299443 76.304225 
L 236.299443 76.265099 
L 237.299443 76.222424 
L 238.299443 76.151844 
L 239.299443 76.115453 
L 240.299443 76.057049 
L 241.299443 75.946097 
L 242.299443 75.875439 
L 243.299443 75.762499 
L 244.299443 75.716726 
L 245.299443 75.655443 
L 246.299443 75.606943 
L 247.299443 75.526121 
L 248.299443 75.407602 
L 249.299443 75.337391 
L 250.299443 75.254129 
L 251.299443 75.220987 
L 252.299443 75.16975 
L 253.299443 75.101351 
L 254.299443 75.035136 
L 255.299443 74.958219 
L 256.619695 74.930903 
" clip-path="url(#p549d304dc3)" style="fill: none; stroke: #1f77b4; stroke-opacity: 0.5; stroke-width: 0.2; stroke-linecap: square"/>
   <path d="M 256.619695 77.520207 
L 255.619695 77.48877 
L 254.619695 77.45183 
L 253.619695 77.354083 
L 252.619695 77.321562 
L 251.619695 77.247937 
L 250.619695 77.209371 
L 249.619695 77.173958 
L 248.619695 77.116318 
L 247.619695 77.045932 
L 246.619695 76.993968 
L 245.619695 76.934878 
L 244.619695 76.846557 
L 243.619695 76.800413 
L 242.619695 76.758002 
L 241.619695 76.727509 
L 240.619695 76.701464 
L 239.619695 76.680264 
L 238.619695 76.625963 
L 237.619695 76.598026 
L 236.619695 76.568302 
L 235.619695 76.542907 
L 234.619695 76.531706 
L 233.619695 76.521582 
L 232.619695 76.521787 
L 231.619695 76.531297 
L 230.619695 76.54295 
L 229.619695 76.573979 
L 228.619695 76.585147 
L 227.619695 76.615265 
L 226.619695 76.675042 
L 225.619695 76.712233 
L 224.619695 76.751329 
L 223.619695 76.793769 
L 222.619695 76.826534 
L 221.619695 76.893961 
L 220.619695 76.933087 
L 219.619695 76.975761 
L 218.619695 77.046342 
L 217.619695 77.082733 
L 216.619695 77.141136 
L 215.619695 77.252088 
L 214.619695 77.322747 
L 213.619695 77.435687 
L 212.619695 77.481459 
L 211.619695 77.542743 
L 210.619695 77.591242 
L 209.619695 77.672065 
L 208.619695 77.790584 
L 207.619695 77.860794 
L 206.619695 77.944057 
L 205.619695 77.977198 
L 204.619695 78.028436 
L 203.619695 78.096834 
L 202.619695 78.16305 
L 201.619695 78.239967 
L 200.299443 78.267282 
" clip-path="url(#p549d304dc3)" style="fill: none; stroke: #ff7f0e; stroke-opacity: 0.5; stroke-width: 0.2; stroke-linecap: square"/>
   <path d="M 256.619695 32.962995 
L 255.619695 32.931559 
L 254.619695 32.894618 
L 253.619695 32.796872 
L 252.619695 32.76435 
L 251.619695 32.690725 
L 250.619695 32.65216 
L 249.619695 32.616747 
L 248.619695 32.559107 
L 247.619695 32.488721 
L 246.619695 32.436756 
L 245.619695 32.377667 
L 244.619695 32.289346 
L 243.619695 32.243201 
L 242.619695 32.20079 
L 241.619695 32.170298 
L 240.619695 32.144253 
L 239.619695 32.123053 
L 238.619695 32.068752 
L 237.619695 32.040814 
L 236.619695 32.01109 
L 235.619695 31.985695 
L 234.619695 31.974495 
L 233.619695 31.964371 
L 232.619695 31.964575 
L 231.619695 31.974085 
L 230.619695 31.985739 
L 229.619695 32.016768 
L 228.619695 32.027936 
L 227.619695 32.058053 
L 226.619695 32.11783 
L 225.619695 32.155022 
L 224.619695 32.194118 
L 223.619695 32.236558 
L 222.619695 32.269323 
L 221.619695 32.336749 
L 220.619695 32.375875 
L 219.619695 32.41855 
L 218.619695 32.48913 
L 217.619695 32.525521 
L 216.619695 32.583924 
L 215.619695 32.694877 
L 214.619695 32.765535 
L 213.619695 32.878475 
L 212.619695 32.924248 
L 211.619695 32.985531 
L 210.619695 33.03403 
L 209.619695 33.114853 
L 208.619695 33.233372 
L 207.619695 33.303583 
L 206.619695 33.386845 
L 205.619695 33.419987 
L 204.619695 33.471224 
L 203.619695 33.539623 
L 202.619695 33.605838 
L 201.619695 33.682755 
L 200.299443 33.710071 
" clip-path="url(#p549d304dc3)" style="fill: none; stroke: #ff7f0e; stroke-opacity: 0.5; stroke-width: 0.2; stroke-linecap: square"/>
   <path d="M 256.619695 64.371357 
L 255.619695 64.33992 
L 254.619695 64.30298 
L 253.619695 64.205234 
L 252.619695 64.172712 
L 251.619695 64.099087 
L 250.619695 64.060522 
L 249.619695 64.025108 
L 248.619695 63.967469 
L 247.619695 63.897082 
L 246.619695 63.845118 
L 245.619695 63.786028 
L 244.619695 63.697707 
L 243.619695 63.651563 
L 242.619695 63.609152 
L 241.619695 63.578659 
L 240.619695 63.552615 
L 239.619695 63.531414 
L 238.619695 63.477113 
L 237.619695 63.449176 
L 236.619695 63.419452 
L 235.619695 63.394057 
L 234.619695 63.382857 
L 233.619695 63.372733 
L 232.619695 63.372937 
L 231.619695 63.382447 
L 230.619695 63.3941 
L 229.619695 63.42513 
L 228.619695 63.436298 
L 227.619695 63.466415 
L 226.619695 63.526192 
L 225.619695 63.563384 
L 224.619695 63.60248 
L 223.619695 63.644919 
L 222.619695 63.677684 
L 221.619695 63.745111 
L 220.619695 63.784237 
L 219.619695 63.826911 
L 218.619695 63.897492 
L 217.619695 63.933883 
L 216.619695 63.992286 
L 215.619695 64.103239 
L 214.619695 64.173897 
L 213.619695 64.286837 
L 212.619695 64.33261 
L 211.619695 64.393893 
L 210.619695 64.442392 
L 209.619695 64.523215 
L 208.619695 64.641734 
L 207.619695 64.711944 
L 206.619695 64.795207 
L 205.619695 64.828349 
L 204.619695 64.879586 
L 203.619695 64.947984 
L 202.619695 65.0142 
L 201.619695 65.091117 
L 200.299443 65.118432 
" clip-path="url(#p549d304dc3)" style="fill: none; stroke: #ff7f0e; stroke-opacity: 0.5; stroke-width: 0.2; stroke-linecap: square"/>
   <path d="M 256.619695 300.919488 
L 255.619695 300.888052 
L 254.619695 300.851112 
L 253.619695 300.753365 
L 252.619695 300.720844 
L 251.619695 300.647219 
L 250.619695 300.608653 
L 249.619695 300.57324 
L 248.619695 300.5156 
L 247.619695 300.445214 
L 246.619695 300.39325 
L 245.619695 300.33416 
L 244.619695 300.245839 
L 243.619695 300.199695 
L 242.619695 300.157284 
L 241.619695 300.126791 
L 240.619695 300.100746 
L 239.619695 300.079546 
L 238.619695 300.025245 
L 237.619695 299.997307 
L 236.619695 299.967583 
L 235.619695 299.942189 
L 234.619695 299.930988 
L 233.619695 299.920864 
L 232.619695 299.921069 
L 231.619695 299.930578 
L 230.619695 299.942232 
L 229.619695 299.973261 
L 228.619695 299.984429 
L 227.619695 300.014547 
L 226.619695 300.074324 
L 225.619695 300.111515 
L 224.619695 300.150611 
L 223.619695 300.193051 
L 222.619695 300.225816 
L 221.619695 300.293243 
L 220.619695 300.332368 
L 219.619695 300.375043 
L 218.619695 300.445624 
L 217.619695 300.482014 
L 216.619695 300.540418 
L 215.619695 300.65137 
L 214.619695 300.722029 
L 213.619695 300.834968 
L 212.619695 300.880741 
L 211.619695 300.942024 
L 210.619695 300.990524 
L 209.619695 301.071346 
L 208.619695 301.189865 
L 207.619695 301.260076 
L 206.619695 301.343339 
L 205.619695 301.37648 
L 204.619695 301.427718 
L 203.619695 301.496116 
L 202.619695 301.562331 
L 201.619695 301.639248 
L 200.299443 301.666564 
" clip-path="url(#p549d304dc3)" style="fill: none; stroke: #ff7f0e; stroke-opacity: 0.5; stroke-width: 0.2; stroke-linecap: square"/>
   <path d="M 256.619695 219.010228 
L 255.619695 218.978792 
L 254.619695 218.941851 
L 253.619695 218.844105 
L 252.619695 218.811583 
L 251.619695 218.737958 
L 250.619695 218.699393 
L 249.619695 218.66398 
L 248.619695 218.60634 
L 247.619695 218.535953 
L 246.619695 218.483989 
L 245.619695 218.424899 
L 244.619695 218.336578 
L 243.619695 218.290434 
L 242.619695 218.248023 
L 241.619695 218.217531 
L 240.619695 218.191486 
L 239.619695 218.170286 
L 238.619695 218.115984 
L 237.619695 218.088047 
L 236.619695 218.058323 
L 235.619695 218.032928 
L 234.619695 218.021728 
L 233.619695 218.011604 
L 232.619695 218.011808 
L 231.619695 218.021318 
L 230.619695 218.032972 
L 229.619695 218.064001 
L 228.619695 218.075169 
L 227.619695 218.105286 
L 226.619695 218.165063 
L 225.619695 218.202255 
L 224.619695 218.241351 
L 223.619695 218.28379 
L 222.619695 218.316556 
L 221.619695 218.383982 
L 220.619695 218.423108 
L 219.619695 218.465782 
L 218.619695 218.536363 
L 217.619695 218.572754 
L 216.619695 218.631157 
L 215.619695 218.74211 
L 214.619695 218.812768 
L 213.619695 218.925708 
L 212.619695 218.971481 
L 211.619695 219.032764 
L 210.619695 219.081263 
L 209.619695 219.162086 
L 208.619695 219.280605 
L 207.619695 219.350816 
L 206.619695 219.434078 
L 205.619695 219.46722 
L 204.619695 219.518457 
L 203.619695 219.586855 
L 202.619695 219.653071 
L 201.619695 219.729988 
L 200.299443 219.757303 
" clip-path="url(#p549d304dc3)" style="fill: none; stroke: #ff7f0e; stroke-opacity: 0.5; stroke-width: 0.2; stroke-linecap: square"/>
   <path d="M 256.619695 299.978226 
L 255.619695 299.94679 
L 254.619695 299.90985 
L 253.619695 299.812103 
L 252.619695 299.779582 
L 251.619695 299.705957 
L 250.619695 299.667391 
L 249.619695 299.631978 
L 248.619695 299.574338 
L 247.619695 299.503952 
L 246.619695 299.451988 
L 245.619695 299.392898 
L 244.619695 299.304577 
L 243.619695 299.258433 
L 242.619695 299.216022 
L 241.619695 299.185529 
L 240.619695 299.159484 
L 239.619695 299.138284 
L 238.619695 299.083983 
L 237.619695 299.056045 
L 236.619695 299.026321 
L 235.619695 299.000927 
L 234.619695 298.989726 
L 233.619695 298.979602 
L 232.619695 298.979807 
L 231.619695 298.989317 
L 230.619695 299.00097 
L 229.619695 299.031999 
L 228.619695 299.043167 
L 227.619695 299.073285 
L 226.619695 299.133062 
L 225.619695 299.170253 
L 224.619695 299.209349 
L 223.619695 299.251789 
L 222.619695 299.284554 
L 221.619695 299.351981 
L 220.619695 299.391107 
L 219.619695 299.433781 
L 218.619695 299.504362 
L 217.619695 299.540753 
L 216.619695 299.599156 
L 215.619695 299.710108 
L 214.619695 299.780767 
L 213.619695 299.893706 
L 212.619695 299.939479 
L 211.619695 300.000763 
L 210.619695 300.049262 
L 209.619695 300.130085 
L 208.619695 300.248603 
L 207.619695 300.318814 
L 206.619695 300.402077 
L 205.619695 300.435218 
L 204.619695 300.486456 
L 203.619695 300.554854 
L 202.619695 300.621069 
L 201.619695 300.697987 
L 200.299443 300.725302 
" clip-path="url(#p549d304dc3)" style="fill: none; stroke: #ff7f0e; stroke-opacity: 0.5; stroke-width: 0.2; stroke-linecap: square"/>
   <path d="M 256.619695 25.659696 
L 255.619695 25.62826 
L 254.619695 25.591319 
L 253.619695 25.493573 
L 252.619695 25.461051 
L 251.619695 25.387427 
L 250.619695 25.348861 
L 249.619695 25.313448 
L 248.619695 25.255808 
L 247.619695 25.185422 
L 246.619695 25.133458 
L 245.619695 25.074368 
L 244.619695 24.986047 
L 243.619695 24.939903 
L 242.619695 24.897492 
L 241.619695 24.866999 
L 240.619695 24.840954 
L 239.619695 24.819754 
L 238.619695 24.765453 
L 237.619695 24.737515 
L 236.619695 24.707791 
L 235.619695 24.682396 
L 234.619695 24.671196 
L 233.619695 24.661072 
L 232.619695 24.661276 
L 231.619695 24.670786 
L 230.619695 24.68244 
L 229.619695 24.713469 
L 228.619695 24.724637 
L 227.619695 24.754755 
L 226.619695 24.814532 
L 225.619695 24.851723 
L 224.619695 24.890819 
L 223.619695 24.933259 
L 222.619695 24.966024 
L 221.619695 25.03345 
L 220.619695 25.072576 
L 219.619695 25.115251 
L 218.619695 25.185831 
L 217.619695 25.222222 
L 216.619695 25.280625 
L 215.619695 25.391578 
L 214.619695 25.462236 
L 213.619695 25.575176 
L 212.619695 25.620949 
L 211.619695 25.682232 
L 210.619695 25.730732 
L 209.619695 25.811554 
L 208.619695 25.930073 
L 207.619695 26.000284 
L 206.619695 26.083546 
L 205.619695 26.116688 
L 204.619695 26.167925 
L 203.619695 26.236324 
L 202.619695 26.302539 
L 201.619695 26.379456 
L 200.299443 26.406772 
" clip-path="url(#p549d304dc3)" style="fill: none; stroke: #ff7f0e; stroke-opacity: 0.5; stroke-width: 0.2; stroke-linecap: square"/>
   <path d="M 256.619695 84.540344 
L 255.619695 84.508908 
L 254.619695 84.471967 
L 253.619695 84.374221 
L 252.619695 84.341699 
L 251.619695 84.268075 
L 250.619695 84.229509 
L 249.619695 84.194096 
L 248.619695 84.136456 
L 247.619695 84.06607 
L 246.619695 84.014106 
L 245.619695 83.955016 
L 244.619695 83.866695 
L 243.619695 83.82055 
L 242.619695 83.77814 
L 241.619695 83.747647 
L 240.619695 83.721602 
L 239.619695 83.700402 
L 238.619695 83.646101 
L 237.619695 83.618163 
L 236.619695 83.588439 
L 235.619695 83.563044 
L 234.619695 83.551844 
L 233.619695 83.54172 
L 232.619695 83.541924 
L 231.619695 83.551434 
L 230.619695 83.563088 
L 229.619695 83.594117 
L 228.619695 83.605285 
L 227.619695 83.635403 
L 226.619695 83.695179 
L 225.619695 83.732371 
L 224.619695 83.771467 
L 223.619695 83.813907 
L 222.619695 83.846672 
L 221.619695 83.914098 
L 220.619695 83.953224 
L 219.619695 83.995899 
L 218.619695 84.066479 
L 217.619695 84.10287 
L 216.619695 84.161273 
L 215.619695 84.272226 
L 214.619695 84.342884 
L 213.619695 84.455824 
L 212.619695 84.501597 
L 211.619695 84.56288 
L 210.619695 84.61138 
L 209.619695 84.692202 
L 208.619695 84.810721 
L 207.619695 84.880932 
L 206.619695 84.964194 
L 205.619695 84.997336 
L 204.619695 85.048573 
L 203.619695 85.116972 
L 202.619695 85.183187 
L 201.619695 85.260104 
L 200.299443 85.28742 
" clip-path="url(#p549d304dc3)" style="fill: none; stroke: #ff7f0e; stroke-opacity: 0.5; stroke-width: 0.2; stroke-linecap: square"/>
   <path d="M 256.619695 271.980231 
L 255.619695 271.948794 
L 254.619695 271.911854 
L 253.619695 271.814108 
L 252.619695 271.781586 
L 251.619695 271.707961 
L 250.619695 271.669396 
L 249.619695 271.633982 
L 248.619695 271.576343 
L 247.619695 271.505956 
L 246.619695 271.453992 
L 245.619695 271.394902 
L 244.619695 271.306581 
L 243.619695 271.260437 
L 242.619695 271.218026 
L 241.619695 271.187533 
L 240.619695 271.161489 
L 239.619695 271.140288 
L 238.619695 271.085987 
L 237.619695 271.05805 
L 236.619695 271.028326 
L 235.619695 271.002931 
L 234.619695 270.991731 
L 233.619695 270.981607 
L 232.619695 270.981811 
L 231.619695 270.991321 
L 230.619695 271.002974 
L 229.619695 271.034004 
L 228.619695 271.045172 
L 227.619695 271.075289 
L 226.619695 271.135066 
L 225.619695 271.172258 
L 224.619695 271.211354 
L 223.619695 271.253793 
L 222.619695 271.286558 
L 221.619695 271.353985 
L 220.619695 271.393111 
L 219.619695 271.435785 
L 218.619695 271.506366 
L 217.619695 271.542757 
L 216.619695 271.60116 
L 215.619695 271.712113 
L 214.619695 271.782771 
L 213.619695 271.895711 
L 212.619695 271.941484 
L 211.619695 272.002767 
L 210.619695 272.051266 
L 209.619695 272.132089 
L 208.619695 272.250608 
L 207.619695 272.320818 
L 206.619695 272.404081 
L 205.619695 272.437223 
L 204.619695 272.48846 
L 203.619695 272.556858 
L 202.619695 272.623074 
L 201.619695 272.699991 
L 200.299443 272.727306 
" clip-path="url(#p549d304dc3)" style="fill: none; stroke: #ff7f0e; stroke-opacity: 0.5; stroke-width: 0.2; stroke-linecap: square"/>
   <path d="M 256.619695 88.397161 
L 255.619695 88.365725 
L 254.619695 88.328785 
L 253.619695 88.231038 
L 252.619695 88.198516 
L 251.619695 88.124892 
L 250.619695 88.086326 
L 249.619695 88.050913 
L 248.619695 87.993273 
L 247.619695 87.922887 
L 246.619695 87.870923 
L 245.619695 87.811833 
L 244.619695 87.723512 
L 243.619695 87.677368 
L 242.619695 87.634957 
L 241.619695 87.604464 
L 240.619695 87.578419 
L 239.619695 87.557219 
L 238.619695 87.502918 
L 237.619695 87.47498 
L 236.619695 87.445256 
L 235.619695 87.419862 
L 234.619695 87.408661 
L 233.619695 87.398537 
L 232.619695 87.398742 
L 231.619695 87.408251 
L 230.619695 87.419905 
L 229.619695 87.450934 
L 228.619695 87.462102 
L 227.619695 87.49222 
L 226.619695 87.551997 
L 225.619695 87.589188 
L 224.619695 87.628284 
L 223.619695 87.670724 
L 222.619695 87.703489 
L 221.619695 87.770915 
L 220.619695 87.810041 
L 219.619695 87.852716 
L 218.619695 87.923297 
L 217.619695 87.959687 
L 216.619695 88.018091 
L 215.619695 88.129043 
L 214.619695 88.199701 
L 213.619695 88.312641 
L 212.619695 88.358414 
L 211.619695 88.419697 
L 210.619695 88.468197 
L 209.619695 88.549019 
L 208.619695 88.667538 
L 207.619695 88.737749 
L 206.619695 88.821011 
L 205.619695 88.854153 
L 204.619695 88.905391 
L 203.619695 88.973789 
L 202.619695 89.040004 
L 201.619695 89.116921 
L 200.299443 89.144237 
" clip-path="url(#p549d304dc3)" style="fill: none; stroke: #ff7f0e; stroke-opacity: 0.5; stroke-width: 0.2; stroke-linecap: square"/>
   <path d="M 390.34593 254.506357 
L 391.34593 254.537794 
L 392.34593 254.574734 
L 393.34593 254.672481 
L 394.34593 254.705002 
L 395.34593 254.778627 
L 396.34593 254.817193 
L 397.34593 254.852606 
L 398.34593 254.910246 
L 399.34593 254.980632 
L 400.34593 255.032596 
L 401.34593 255.091686 
L 402.34593 255.180007 
L 403.34593 255.226151 
L 404.34593 255.268562 
L 405.34593 255.299055 
L 406.34593 255.3251 
L 407.34593 255.3463 
L 408.34593 255.400601 
L 409.34593 255.428538 
L 410.34593 255.458262 
L 411.34593 255.483657 
L 412.34593 255.494858 
L 413.34593 255.504982 
L 414.34593 255.504777 
L 415.34593 255.495267 
L 416.34593 255.483614 
L 417.34593 255.452585 
L 418.34593 255.441417 
L 419.34593 255.411299 
L 420.34593 255.351522 
L 421.34593 255.314331 
L 422.34593 255.275234 
L 423.34593 255.232795 
L 424.34593 255.20003 
L 425.34593 255.132603 
L 426.34593 255.093477 
L 427.34593 255.050803 
L 428.34593 254.980222 
L 429.34593 254.943831 
L 430.34593 254.885428 
L 431.34593 254.774476 
L 432.34593 254.703817 
L 433.34593 254.590877 
L 434.34593 254.545105 
L 435.34593 254.483821 
L 436.34593 254.435322 
L 437.34593 254.354499 
L 438.34593 254.23598 
L 439.34593 254.16577 
L 440.34593 254.082507 
L 441.34593 254.049366 
L 442.34593 253.998128 
L 443.34593 253.92973 
L 444.34593 253.863514 
L 445.34593 253.786597 
L 446.666182 253.759282 
" clip-path="url(#p549d304dc3)" style="fill: none; stroke: #ff7f0e; stroke-opacity: 0.5; stroke-width: 0.2; stroke-linecap: square"/>
   <path d="M 390.34593 143.197104 
L 391.34593 143.22854 
L 392.34593 143.26548 
L 393.34593 143.363227 
L 394.34593 143.395748 
L 395.34593 143.469373 
L 396.34593 143.507939 
L 397.34593 143.543352 
L 398.34593 143.600992 
L 399.34593 143.671378 
L 400.34593 143.723342 
L 401.34593 143.782432 
L 402.34593 143.870753 
L 403.34593 143.916897 
L 404.34593 143.959308 
L 405.34593 143.989801 
L 406.34593 144.015846 
L 407.34593 144.037046 
L 408.34593 144.091347 
L 409.34593 144.119285 
L 410.34593 144.149009 
L 411.34593 144.174403 
L 412.34593 144.185604 
L 413.34593 144.195728 
L 414.34593 144.195523 
L 415.34593 144.186013 
L 416.34593 144.17436 
L 417.34593 144.143331 
L 418.34593 144.132163 
L 419.34593 144.102045 
L 420.34593 144.042268 
L 421.34593 144.005077 
L 422.34593 143.965981 
L 423.34593 143.923541 
L 424.34593 143.890776 
L 425.34593 143.823349 
L 426.34593 143.784223 
L 427.34593 143.741549 
L 428.34593 143.670968 
L 429.34593 143.634577 
L 430.34593 143.576174 
L 431.34593 143.465222 
L 432.34593 143.394563 
L 433.34593 143.281624 
L 434.34593 143.235851 
L 435.34593 143.174567 
L 436.34593 143.126068 
L 437.34593 143.045245 
L 438.34593 142.926727 
L 439.34593 142.856516 
L 440.34593 142.773253 
L 441.34593 142.740112 
L 442.34593 142.688874 
L 443.34593 142.620476 
L 444.34593 142.554261 
L 445.34593 142.477343 
L 446.666182 142.450028 
" clip-path="url(#p549d304dc3)" style="fill: none; stroke: #ff7f0e; stroke-opacity: 0.5; stroke-width: 0.2; stroke-linecap: square"/>
   <path d="M 390.34593 66.150671 
L 391.34593 66.182107 
L 392.34593 66.219048 
L 393.34593 66.316794 
L 394.34593 66.349316 
L 395.34593 66.422941 
L 396.34593 66.461506 
L 397.34593 66.496919 
L 398.34593 66.554559 
L 399.34593 66.624946 
L 400.34593 66.67691 
L 401.34593 66.736 
L 402.34593 66.82432 
L 403.34593 66.870465 
L 404.34593 66.912876 
L 405.34593 66.943368 
L 406.34593 66.969413 
L 407.34593 66.990613 
L 408.34593 67.044915 
L 409.34593 67.072852 
L 410.34593 67.102576 
L 411.34593 67.127971 
L 412.34593 67.139171 
L 413.34593 67.149295 
L 414.34593 67.149091 
L 415.34593 67.139581 
L 416.34593 67.127927 
L 417.34593 67.096898 
L 418.34593 67.08573 
L 419.34593 67.055613 
L 420.34593 66.995836 
L 421.34593 66.958644 
L 422.34593 66.919548 
L 423.34593 66.877109 
L 424.34593 66.844343 
L 425.34593 66.776917 
L 426.34593 66.737791 
L 427.34593 66.695117 
L 428.34593 66.624536 
L 429.34593 66.588145 
L 430.34593 66.529742 
L 431.34593 66.418789 
L 432.34593 66.348131 
L 433.34593 66.235191 
L 434.34593 66.189418 
L 435.34593 66.128135 
L 436.34593 66.079636 
L 437.34593 65.998813 
L 438.34593 65.880294 
L 439.34593 65.810083 
L 440.34593 65.726821 
L 441.34593 65.693679 
L 442.34593 65.642442 
L 443.34593 65.574044 
L 444.34593 65.507828 
L 445.34593 65.430911 
L 446.666182 65.403596 
" clip-path="url(#p549d304dc3)" style="fill: none; stroke: #ff7f0e; stroke-opacity: 0.5; stroke-width: 0.2; stroke-linecap: square"/>
   <path d="M 390.34593 51.541303 
L 391.34593 51.57274 
L 392.34593 51.60968 
L 393.34593 51.707426 
L 394.34593 51.739948 
L 395.34593 51.813573 
L 396.34593 51.852138 
L 397.34593 51.887551 
L 398.34593 51.945191 
L 399.34593 52.015578 
L 400.34593 52.067542 
L 401.34593 52.126632 
L 402.34593 52.214953 
L 403.34593 52.261097 
L 404.34593 52.303508 
L 405.34593 52.334 
L 406.34593 52.360045 
L 407.34593 52.381246 
L 408.34593 52.435547 
L 409.34593 52.463484 
L 410.34593 52.493208 
L 411.34593 52.518603 
L 412.34593 52.529803 
L 413.34593 52.539927 
L 414.34593 52.539723 
L 415.34593 52.530213 
L 416.34593 52.51856 
L 417.34593 52.48753 
L 418.34593 52.476362 
L 419.34593 52.446245 
L 420.34593 52.386468 
L 421.34593 52.349276 
L 422.34593 52.31018 
L 423.34593 52.267741 
L 424.34593 52.234976 
L 425.34593 52.167549 
L 426.34593 52.128423 
L 427.34593 52.085749 
L 428.34593 52.015168 
L 429.34593 51.978777 
L 430.34593 51.920374 
L 431.34593 51.809421 
L 432.34593 51.738763 
L 433.34593 51.625823 
L 434.34593 51.58005 
L 435.34593 51.518767 
L 436.34593 51.470268 
L 437.34593 51.389445 
L 438.34593 51.270926 
L 439.34593 51.200716 
L 440.34593 51.117453 
L 441.34593 51.084311 
L 442.34593 51.033074 
L 443.34593 50.964676 
L 444.34593 50.89846 
L 445.34593 50.821543 
L 446.666182 50.794228 
" clip-path="url(#p549d304dc3)" style="fill: none; stroke: #ff7f0e; stroke-opacity: 0.5; stroke-width: 0.2; stroke-linecap: square"/>
   <path d="M 390.34593 218.682254 
L 391.34593 218.71369 
L 392.34593 218.750631 
L 393.34593 218.848377 
L 394.34593 218.880899 
L 395.34593 218.954524 
L 396.34593 218.993089 
L 397.34593 219.028502 
L 398.34593 219.086142 
L 399.34593 219.156528 
L 400.34593 219.208493 
L 401.34593 219.267582 
L 402.34593 219.355903 
L 403.34593 219.402048 
L 404.34593 219.444459 
L 405.34593 219.474951 
L 406.34593 219.500996 
L 407.34593 219.522196 
L 408.34593 219.576497 
L 409.34593 219.604435 
L 410.34593 219.634159 
L 411.34593 219.659554 
L 412.34593 219.670754 
L 413.34593 219.680878 
L 414.34593 219.680674 
L 415.34593 219.671164 
L 416.34593 219.65951 
L 417.34593 219.628481 
L 418.34593 219.617313 
L 419.34593 219.587196 
L 420.34593 219.527419 
L 421.34593 219.490227 
L 422.34593 219.451131 
L 423.34593 219.408691 
L 424.34593 219.375926 
L 425.34593 219.3085 
L 426.34593 219.269374 
L 427.34593 219.226699 
L 428.34593 219.156119 
L 429.34593 219.119728 
L 430.34593 219.061325 
L 431.34593 218.950372 
L 432.34593 218.879714 
L 433.34593 218.766774 
L 434.34593 218.721001 
L 435.34593 218.659718 
L 436.34593 218.611219 
L 437.34593 218.530396 
L 438.34593 218.411877 
L 439.34593 218.341666 
L 440.34593 218.258404 
L 441.34593 218.225262 
L 442.34593 218.174025 
L 443.34593 218.105626 
L 444.34593 218.039411 
L 445.34593 217.962494 
L 446.666182 217.935178 
" clip-path="url(#p549d304dc3)" style="fill: none; stroke: #ff7f0e; stroke-opacity: 0.5; stroke-width: 0.2; stroke-linecap: square"/>
   <path d="M 390.34593 238.86198 
L 391.34593 238.893416 
L 392.34593 238.930356 
L 393.34593 239.028103 
L 394.34593 239.060624 
L 395.34593 239.134249 
L 396.34593 239.172815 
L 397.34593 239.208228 
L 398.34593 239.265868 
L 399.34593 239.336254 
L 400.34593 239.388218 
L 401.34593 239.447308 
L 402.34593 239.535629 
L 403.34593 239.581773 
L 404.34593 239.624184 
L 405.34593 239.654677 
L 406.34593 239.680722 
L 407.34593 239.701922 
L 408.34593 239.756223 
L 409.34593 239.784161 
L 410.34593 239.813885 
L 411.34593 239.839279 
L 412.34593 239.85048 
L 413.34593 239.860604 
L 414.34593 239.860399 
L 415.34593 239.850889 
L 416.34593 239.839236 
L 417.34593 239.808207 
L 418.34593 239.797039 
L 419.34593 239.766921 
L 420.34593 239.707144 
L 421.34593 239.669953 
L 422.34593 239.630857 
L 423.34593 239.588417 
L 424.34593 239.555652 
L 425.34593 239.488225 
L 426.34593 239.449099 
L 427.34593 239.406425 
L 428.34593 239.335844 
L 429.34593 239.299453 
L 430.34593 239.24105 
L 431.34593 239.130098 
L 432.34593 239.059439 
L 433.34593 238.9465 
L 434.34593 238.900727 
L 435.34593 238.839443 
L 436.34593 238.790944 
L 437.34593 238.710121 
L 438.34593 238.591603 
L 439.34593 238.521392 
L 440.34593 238.438129 
L 441.34593 238.404988 
L 442.34593 238.35375 
L 443.34593 238.285352 
L 444.34593 238.219137 
L 445.34593 238.142219 
L 446.666182 238.114904 
" clip-path="url(#p549d304dc3)" style="fill: none; stroke: #ff7f0e; stroke-opacity: 0.5; stroke-width: 0.2; stroke-linecap: square"/>
   <path d="M 390.34593 273.670735 
L 391.34593 273.702172 
L 392.34593 273.739112 
L 393.34593 273.836859 
L 394.34593 273.86938 
L 395.34593 273.943005 
L 396.34593 273.981571 
L 397.34593 274.016984 
L 398.34593 274.074624 
L 399.34593 274.14501 
L 400.34593 274.196974 
L 401.34593 274.256064 
L 402.34593 274.344385 
L 403.34593 274.390529 
L 404.34593 274.43294 
L 405.34593 274.463433 
L 406.34593 274.489478 
L 407.34593 274.510678 
L 408.34593 274.564979 
L 409.34593 274.592916 
L 410.34593 274.62264 
L 411.34593 274.648035 
L 412.34593 274.659236 
L 413.34593 274.66936 
L 414.34593 274.669155 
L 415.34593 274.659645 
L 416.34593 274.647992 
L 417.34593 274.616963 
L 418.34593 274.605795 
L 419.34593 274.575677 
L 420.34593 274.5159 
L 421.34593 274.478709 
L 422.34593 274.439613 
L 423.34593 274.397173 
L 424.34593 274.364408 
L 425.34593 274.296981 
L 426.34593 274.257855 
L 427.34593 274.215181 
L 428.34593 274.1446 
L 429.34593 274.108209 
L 430.34593 274.049806 
L 431.34593 273.938854 
L 432.34593 273.868195 
L 433.34593 273.755256 
L 434.34593 273.709483 
L 435.34593 273.648199 
L 436.34593 273.5997 
L 437.34593 273.518877 
L 438.34593 273.400358 
L 439.34593 273.330148 
L 440.34593 273.246885 
L 441.34593 273.213744 
L 442.34593 273.162506 
L 443.34593 273.094108 
L 444.34593 273.027892 
L 445.34593 272.950975 
L 446.666182 272.92366 
" clip-path="url(#p549d304dc3)" style="fill: none; stroke: #ff7f0e; stroke-opacity: 0.5; stroke-width: 0.2; stroke-linecap: square"/>
   <path d="M 390.34593 245.316051 
L 391.34593 245.347488 
L 392.34593 245.384428 
L 393.34593 245.482174 
L 394.34593 245.514696 
L 395.34593 245.588321 
L 396.34593 245.626886 
L 397.34593 245.662299 
L 398.34593 245.719939 
L 399.34593 245.790326 
L 400.34593 245.84229 
L 401.34593 245.90138 
L 402.34593 245.989701 
L 403.34593 246.035845 
L 404.34593 246.078256 
L 405.34593 246.108748 
L 406.34593 246.134793 
L 407.34593 246.155993 
L 408.34593 246.210295 
L 409.34593 246.238232 
L 410.34593 246.267956 
L 411.34593 246.293351 
L 412.34593 246.304551 
L 413.34593 246.314675 
L 414.34593 246.314471 
L 415.34593 246.304961 
L 416.34593 246.293307 
L 417.34593 246.262278 
L 418.34593 246.25111 
L 419.34593 246.220993 
L 420.34593 246.161216 
L 421.34593 246.124024 
L 422.34593 246.084928 
L 423.34593 246.042489 
L 424.34593 246.009723 
L 425.34593 245.942297 
L 426.34593 245.903171 
L 427.34593 245.860497 
L 428.34593 245.789916 
L 429.34593 245.753525 
L 430.34593 245.695122 
L 431.34593 245.584169 
L 432.34593 245.513511 
L 433.34593 245.400571 
L 434.34593 245.354798 
L 435.34593 245.293515 
L 436.34593 245.245016 
L 437.34593 245.164193 
L 438.34593 245.045674 
L 439.34593 244.975463 
L 440.34593 244.892201 
L 441.34593 244.859059 
L 442.34593 244.807822 
L 443.34593 244.739424 
L 444.34593 244.673208 
L 445.34593 244.596291 
L 446.666182 244.568976 
" clip-path="url(#p549d304dc3)" style="fill: none; stroke: #ff7f0e; stroke-opacity: 0.5; stroke-width: 0.2; stroke-linecap: square"/>
   <path d="M 390.34593 290.206736 
L 391.34593 290.238172 
L 392.34593 290.275112 
L 393.34593 290.372859 
L 394.34593 290.40538 
L 395.34593 290.479005 
L 396.34593 290.517571 
L 397.34593 290.552984 
L 398.34593 290.610624 
L 399.34593 290.68101 
L 400.34593 290.732974 
L 401.34593 290.792064 
L 402.34593 290.880385 
L 403.34593 290.926529 
L 404.34593 290.96894 
L 405.34593 290.999433 
L 406.34593 291.025478 
L 407.34593 291.046678 
L 408.34593 291.100979 
L 409.34593 291.128917 
L 410.34593 291.158641 
L 411.34593 291.184035 
L 412.34593 291.195236 
L 413.34593 291.20536 
L 414.34593 291.205155 
L 415.34593 291.195646 
L 416.34593 291.183992 
L 417.34593 291.152963 
L 418.34593 291.141795 
L 419.34593 291.111677 
L 420.34593 291.0519 
L 421.34593 291.014709 
L 422.34593 290.975613 
L 423.34593 290.933173 
L 424.34593 290.900408 
L 425.34593 290.832981 
L 426.34593 290.793856 
L 427.34593 290.751181 
L 428.34593 290.6806 
L 429.34593 290.64421 
L 430.34593 290.585806 
L 431.34593 290.474854 
L 432.34593 290.404195 
L 433.34593 290.291256 
L 434.34593 290.245483 
L 435.34593 290.1842 
L 436.34593 290.1357 
L 437.34593 290.054878 
L 438.34593 289.936359 
L 439.34593 289.866148 
L 440.34593 289.782885 
L 441.34593 289.749744 
L 442.34593 289.698506 
L 443.34593 289.630108 
L 444.34593 289.563893 
L 445.34593 289.486976 
L 446.666182 289.45966 
" clip-path="url(#p549d304dc3)" style="fill: none; stroke: #ff7f0e; stroke-opacity: 0.5; stroke-width: 0.2; stroke-linecap: square"/>
   <path d="M 390.34593 261.574735 
L 391.34593 261.606172 
L 392.34593 261.643112 
L 393.34593 261.740859 
L 394.34593 261.77338 
L 395.34593 261.847005 
L 396.34593 261.88557 
L 397.34593 261.920984 
L 398.34593 261.978624 
L 399.34593 262.04901 
L 400.34593 262.100974 
L 401.34593 262.160064 
L 402.34593 262.248385 
L 403.34593 262.294529 
L 404.34593 262.33694 
L 405.34593 262.367433 
L 406.34593 262.393478 
L 407.34593 262.414678 
L 408.34593 262.468979 
L 409.34593 262.496916 
L 410.34593 262.52664 
L 411.34593 262.552035 
L 412.34593 262.563235 
L 413.34593 262.573359 
L 414.34593 262.573155 
L 415.34593 262.563645 
L 416.34593 262.551992 
L 417.34593 262.520962 
L 418.34593 262.509794 
L 419.34593 262.479677 
L 420.34593 262.4199 
L 421.34593 262.382708 
L 422.34593 262.343612 
L 423.34593 262.301173 
L 424.34593 262.268408 
L 425.34593 262.200981 
L 426.34593 262.161855 
L 427.34593 262.119181 
L 428.34593 262.0486 
L 429.34593 262.012209 
L 430.34593 261.953806 
L 431.34593 261.842853 
L 432.34593 261.772195 
L 433.34593 261.659255 
L 434.34593 261.613482 
L 435.34593 261.552199 
L 436.34593 261.5037 
L 437.34593 261.422877 
L 438.34593 261.304358 
L 439.34593 261.234148 
L 440.34593 261.150885 
L 441.34593 261.117743 
L 442.34593 261.066506 
L 443.34593 260.998108 
L 444.34593 260.931892 
L 445.34593 260.854975 
L 446.666182 260.82766 
" clip-path="url(#p549d304dc3)" style="fill: none; stroke: #ff7f0e; stroke-opacity: 0.5; stroke-width: 0.2; stroke-linecap: square"/>
   <path d="M 446.666182 182.864352 
L 445.666182 182.832915 
L 444.666182 182.795975 
L 443.666182 182.698229 
L 442.666182 182.665707 
L 441.666182 182.592082 
L 440.666182 182.553517 
L 439.666182 182.518103 
L 438.666182 182.460464 
L 437.666182 182.390077 
L 436.666182 182.338113 
L 435.666182 182.279023 
L 434.666182 182.190702 
L 433.666182 182.144558 
L 432.666182 182.102147 
L 431.666182 182.071655 
L 430.666182 182.04561 
L 429.666182 182.024409 
L 428.666182 181.970108 
L 427.666182 181.942171 
L 426.666182 181.912447 
L 425.666182 181.887052 
L 424.666182 181.875852 
L 423.666182 181.865728 
L 422.666182 181.865932 
L 421.666182 181.875442 
L 420.666182 181.887095 
L 419.666182 181.918125 
L 418.666182 181.929293 
L 417.666182 181.95941 
L 416.666182 182.019187 
L 415.666182 182.056379 
L 414.666182 182.095475 
L 413.666182 182.137914 
L 412.666182 182.170679 
L 411.666182 182.238106 
L 410.666182 182.277232 
L 409.666182 182.319906 
L 408.666182 182.390487 
L 407.666182 182.426878 
L 406.666182 182.485281 
L 405.666182 182.596234 
L 404.666182 182.666892 
L 403.666182 182.779832 
L 402.666182 182.825605 
L 401.666182 182.886888 
L 400.666182 182.935387 
L 399.666182 183.01621 
L 398.666182 183.134729 
L 397.666182 183.204939 
L 396.666182 183.288202 
L 395.666182 183.321344 
L 394.666182 183.372581 
L 393.666182 183.440979 
L 392.666182 183.507195 
L 391.666182 183.584112 
L 390.34593 183.611427 
" clip-path="url(#p549d304dc3)" style="fill: none; stroke: #2ca02c; stroke-opacity: 0.5; stroke-width: 0.2; stroke-linecap: square"/>
   <path d="M 446.666182 53.636356 
L 445.666182 53.60492 
L 444.666182 53.567979 
L 443.666182 53.470233 
L 442.666182 53.437711 
L 441.666182 53.364087 
L 440.666182 53.325521 
L 439.666182 53.290108 
L 438.666182 53.232468 
L 437.666182 53.162082 
L 436.666182 53.110118 
L 435.666182 53.051028 
L 434.666182 52.962707 
L 433.666182 52.916563 
L 432.666182 52.874152 
L 431.666182 52.843659 
L 430.666182 52.817614 
L 429.666182 52.796414 
L 428.666182 52.742113 
L 427.666182 52.714175 
L 426.666182 52.684451 
L 425.666182 52.659056 
L 424.666182 52.647856 
L 423.666182 52.637732 
L 422.666182 52.637936 
L 421.666182 52.647446 
L 420.666182 52.6591 
L 419.666182 52.690129 
L 418.666182 52.701297 
L 417.666182 52.731415 
L 416.666182 52.791192 
L 415.666182 52.828383 
L 414.666182 52.867479 
L 413.666182 52.909919 
L 412.666182 52.942684 
L 411.666182 53.01011 
L 410.666182 53.049236 
L 409.666182 53.091911 
L 408.666182 53.162491 
L 407.666182 53.198882 
L 406.666182 53.257285 
L 405.666182 53.368238 
L 404.666182 53.438896 
L 403.666182 53.551836 
L 402.666182 53.597609 
L 401.666182 53.658892 
L 400.666182 53.707392 
L 399.666182 53.788214 
L 398.666182 53.906733 
L 397.666182 53.976944 
L 396.666182 54.060206 
L 395.666182 54.093348 
L 394.666182 54.144585 
L 393.666182 54.212984 
L 392.666182 54.279199 
L 391.666182 54.356116 
L 390.34593 54.383432 
" clip-path="url(#p549d304dc3)" style="fill: none; stroke: #2ca02c; stroke-opacity: 0.5; stroke-width: 0.2; stroke-linecap: square"/>
   <path d="M 446.666182 289.433823 
L 445.666182 289.402387 
L 444.666182 289.365446 
L 443.666182 289.2677 
L 442.666182 289.235178 
L 441.666182 289.161553 
L 440.666182 289.122988 
L 439.666182 289.087575 
L 438.666182 289.029935 
L 437.666182 288.959548 
L 436.666182 288.907584 
L 435.666182 288.848494 
L 434.666182 288.760174 
L 433.666182 288.714029 
L 432.666182 288.671618 
L 431.666182 288.641126 
L 430.666182 288.615081 
L 429.666182 288.593881 
L 428.666182 288.539579 
L 427.666182 288.511642 
L 426.666182 288.481918 
L 425.666182 288.456523 
L 424.666182 288.445323 
L 423.666182 288.435199 
L 422.666182 288.435403 
L 421.666182 288.444913 
L 420.666182 288.456567 
L 419.666182 288.487596 
L 418.666182 288.498764 
L 417.666182 288.528881 
L 416.666182 288.588658 
L 415.666182 288.62585 
L 414.666182 288.664946 
L 413.666182 288.707385 
L 412.666182 288.740151 
L 411.666182 288.807577 
L 410.666182 288.846703 
L 409.666182 288.889377 
L 408.666182 288.959958 
L 407.666182 288.996349 
L 406.666182 289.054752 
L 405.666182 289.165705 
L 404.666182 289.236363 
L 403.666182 289.349303 
L 402.666182 289.395076 
L 401.666182 289.456359 
L 400.666182 289.504858 
L 399.666182 289.585681 
L 398.666182 289.7042 
L 397.666182 289.774411 
L 396.666182 289.857673 
L 395.666182 289.890815 
L 394.666182 289.942052 
L 393.666182 290.01045 
L 392.666182 290.076666 
L 391.666182 290.153583 
L 390.34593 290.180898 
" clip-path="url(#p549d304dc3)" style="fill: none; stroke: #2ca02c; stroke-opacity: 0.5; stroke-width: 0.2; stroke-linecap: square"/>
   <path d="M 446.666182 155.774463 
L 445.666182 155.743026 
L 444.666182 155.706086 
L 443.666182 155.608339 
L 442.666182 155.575818 
L 441.666182 155.502193 
L 440.666182 155.463628 
L 439.666182 155.428214 
L 438.666182 155.370574 
L 437.666182 155.300188 
L 436.666182 155.248224 
L 435.666182 155.189134 
L 434.666182 155.100813 
L 433.666182 155.054669 
L 432.666182 155.012258 
L 431.666182 154.981765 
L 430.666182 154.95572 
L 429.666182 154.93452 
L 428.666182 154.880219 
L 427.666182 154.852282 
L 426.666182 154.822558 
L 425.666182 154.797163 
L 424.666182 154.785963 
L 423.666182 154.775839 
L 422.666182 154.776043 
L 421.666182 154.785553 
L 420.666182 154.797206 
L 419.666182 154.828236 
L 418.666182 154.839404 
L 417.666182 154.869521 
L 416.666182 154.929298 
L 415.666182 154.96649 
L 414.666182 155.005586 
L 413.666182 155.048025 
L 412.666182 155.08079 
L 411.666182 155.148217 
L 410.666182 155.187343 
L 409.666182 155.230017 
L 408.666182 155.300598 
L 407.666182 155.336989 
L 406.666182 155.395392 
L 405.666182 155.506345 
L 404.666182 155.577003 
L 403.666182 155.689943 
L 402.666182 155.735716 
L 401.666182 155.796999 
L 400.666182 155.845498 
L 399.666182 155.926321 
L 398.666182 156.04484 
L 397.666182 156.11505 
L 396.666182 156.198313 
L 395.666182 156.231455 
L 394.666182 156.282692 
L 393.666182 156.35109 
L 392.666182 156.417306 
L 391.666182 156.494223 
L 390.34593 156.521538 
" clip-path="url(#p549d304dc3)" style="fill: none; stroke: #2ca02c; stroke-opacity: 0.5; stroke-width: 0.2; stroke-linecap: square"/>
   <path d="M 446.666182 115.720274 
L 445.666182 115.688838 
L 444.666182 115.651897 
L 443.666182 115.554151 
L 442.666182 115.521629 
L 441.666182 115.448004 
L 440.666182 115.409439 
L 439.666182 115.374026 
L 438.666182 115.316386 
L 437.666182 115.246 
L 436.666182 115.194035 
L 435.666182 115.134946 
L 434.666182 115.046625 
L 433.666182 115.00048 
L 432.666182 114.958069 
L 431.666182 114.927577 
L 430.666182 114.901532 
L 429.666182 114.880332 
L 428.666182 114.826031 
L 427.666182 114.798093 
L 426.666182 114.768369 
L 425.666182 114.742974 
L 424.666182 114.731774 
L 423.666182 114.72165 
L 422.666182 114.721854 
L 421.666182 114.731364 
L 420.666182 114.743018 
L 419.666182 114.774047 
L 418.666182 114.785215 
L 417.666182 114.815332 
L 416.666182 114.875109 
L 415.666182 114.912301 
L 414.666182 114.951397 
L 413.666182 114.993837 
L 412.666182 115.026602 
L 411.666182 115.094028 
L 410.666182 115.133154 
L 409.666182 115.175829 
L 408.666182 115.246409 
L 407.666182 115.2828 
L 406.666182 115.341203 
L 405.666182 115.452156 
L 404.666182 115.522814 
L 403.666182 115.635754 
L 402.666182 115.681527 
L 401.666182 115.74281 
L 400.666182 115.791309 
L 399.666182 115.872132 
L 398.666182 115.990651 
L 397.666182 116.060862 
L 396.666182 116.144124 
L 395.666182 116.177266 
L 394.666182 116.228503 
L 393.666182 116.296902 
L 392.666182 116.363117 
L 391.666182 116.440034 
L 390.34593 116.46735 
" clip-path="url(#p549d304dc3)" style="fill: none; stroke: #2ca02c; stroke-opacity: 0.5; stroke-width: 0.2; stroke-linecap: square"/>
   <path d="M 446.666182 137.304624 
L 445.666182 137.273188 
L 444.666182 137.236248 
L 443.666182 137.138501 
L 442.666182 137.105979 
L 441.666182 137.032355 
L 440.666182 136.993789 
L 439.666182 136.958376 
L 438.666182 136.900736 
L 437.666182 136.83035 
L 436.666182 136.778386 
L 435.666182 136.719296 
L 434.666182 136.630975 
L 433.666182 136.584831 
L 432.666182 136.54242 
L 431.666182 136.511927 
L 430.666182 136.485882 
L 429.666182 136.464682 
L 428.666182 136.410381 
L 427.666182 136.382443 
L 426.666182 136.352719 
L 425.666182 136.327325 
L 424.666182 136.316124 
L 423.666182 136.306 
L 422.666182 136.306205 
L 421.666182 136.315714 
L 420.666182 136.327368 
L 419.666182 136.358397 
L 418.666182 136.369565 
L 417.666182 136.399683 
L 416.666182 136.45946 
L 415.666182 136.496651 
L 414.666182 136.535747 
L 413.666182 136.578187 
L 412.666182 136.610952 
L 411.666182 136.678378 
L 410.666182 136.717504 
L 409.666182 136.760179 
L 408.666182 136.83076 
L 407.666182 136.86715 
L 406.666182 136.925554 
L 405.666182 137.036506 
L 404.666182 137.107164 
L 403.666182 137.220104 
L 402.666182 137.265877 
L 401.666182 137.32716 
L 400.666182 137.37566 
L 399.666182 137.456482 
L 398.666182 137.575001 
L 397.666182 137.645212 
L 396.666182 137.728474 
L 395.666182 137.761616 
L 394.666182 137.812854 
L 393.666182 137.881252 
L 392.666182 137.947467 
L 391.666182 138.024384 
L 390.34593 138.0517 
" clip-path="url(#p549d304dc3)" style="fill: none; stroke: #2ca02c; stroke-opacity: 0.5; stroke-width: 0.2; stroke-linecap: square"/>
   <path d="M 446.666182 114.622054 
L 445.666182 114.590618 
L 444.666182 114.553677 
L 443.666182 114.455931 
L 442.666182 114.423409 
L 441.666182 114.349784 
L 440.666182 114.311219 
L 439.666182 114.275806 
L 438.666182 114.218166 
L 437.666182 114.147779 
L 436.666182 114.095815 
L 435.666182 114.036725 
L 434.666182 113.948405 
L 433.666182 113.90226 
L 432.666182 113.859849 
L 431.666182 113.829357 
L 430.666182 113.803312 
L 429.666182 113.782112 
L 428.666182 113.72781 
L 427.666182 113.699873 
L 426.666182 113.670149 
L 425.666182 113.644754 
L 424.666182 113.633554 
L 423.666182 113.62343 
L 422.666182 113.623634 
L 421.666182 113.633144 
L 420.666182 113.644798 
L 419.666182 113.675827 
L 418.666182 113.686995 
L 417.666182 113.717112 
L 416.666182 113.776889 
L 415.666182 113.814081 
L 414.666182 113.853177 
L 413.666182 113.895616 
L 412.666182 113.928382 
L 411.666182 113.995808 
L 410.666182 114.034934 
L 409.666182 114.077608 
L 408.666182 114.148189 
L 407.666182 114.18458 
L 406.666182 114.242983 
L 405.666182 114.353936 
L 404.666182 114.424594 
L 403.666182 114.537534 
L 402.666182 114.583307 
L 401.666182 114.64459 
L 400.666182 114.693089 
L 399.666182 114.773912 
L 398.666182 114.892431 
L 397.666182 114.962642 
L 396.666182 115.045904 
L 395.666182 115.079046 
L 394.666182 115.130283 
L 393.666182 115.198681 
L 392.666182 115.264897 
L 391.666182 115.341814 
L 390.34593 115.369129 
" clip-path="url(#p549d304dc3)" style="fill: none; stroke: #2ca02c; stroke-opacity: 0.5; stroke-width: 0.2; stroke-linecap: square"/>
   <path d="M 446.666182 99.320506 
L 445.666182 99.28907 
L 444.666182 99.252129 
L 443.666182 99.154383 
L 442.666182 99.121861 
L 441.666182 99.048236 
L 440.666182 99.009671 
L 439.666182 98.974258 
L 438.666182 98.916618 
L 437.666182 98.846231 
L 436.666182 98.794267 
L 435.666182 98.735177 
L 434.666182 98.646857 
L 433.666182 98.600712 
L 432.666182 98.558301 
L 431.666182 98.527809 
L 430.666182 98.501764 
L 429.666182 98.480564 
L 428.666182 98.426262 
L 427.666182 98.398325 
L 426.666182 98.368601 
L 425.666182 98.343206 
L 424.666182 98.332006 
L 423.666182 98.321882 
L 422.666182 98.322086 
L 421.666182 98.331596 
L 420.666182 98.34325 
L 419.666182 98.374279 
L 418.666182 98.385447 
L 417.666182 98.415564 
L 416.666182 98.475341 
L 415.666182 98.512533 
L 414.666182 98.551629 
L 413.666182 98.594069 
L 412.666182 98.626834 
L 411.666182 98.69426 
L 410.666182 98.733386 
L 409.666182 98.77606 
L 408.666182 98.846641 
L 407.666182 98.883032 
L 406.666182 98.941435 
L 405.666182 99.052388 
L 404.666182 99.123046 
L 403.666182 99.235986 
L 402.666182 99.281759 
L 401.666182 99.343042 
L 400.666182 99.391541 
L 399.666182 99.472364 
L 398.666182 99.590883 
L 397.666182 99.661094 
L 396.666182 99.744356 
L 395.666182 99.777498 
L 394.666182 99.828735 
L 393.666182 99.897133 
L 392.666182 99.963349 
L 391.666182 100.040266 
L 390.34593 100.067581 
" clip-path="url(#p549d304dc3)" style="fill: none; stroke: #2ca02c; stroke-opacity: 0.5; stroke-width: 0.2; stroke-linecap: square"/>
   <path d="M 446.666182 216.883047 
L 445.666182 216.851611 
L 444.666182 216.814671 
L 443.666182 216.716924 
L 442.666182 216.684402 
L 441.666182 216.610778 
L 440.666182 216.572212 
L 439.666182 216.536799 
L 438.666182 216.479159 
L 437.666182 216.408773 
L 436.666182 216.356809 
L 435.666182 216.297719 
L 434.666182 216.209398 
L 433.666182 216.163254 
L 432.666182 216.120843 
L 431.666182 216.09035 
L 430.666182 216.064305 
L 429.666182 216.043105 
L 428.666182 215.988804 
L 427.666182 215.960866 
L 426.666182 215.931142 
L 425.666182 215.905748 
L 424.666182 215.894547 
L 423.666182 215.884423 
L 422.666182 215.884628 
L 421.666182 215.894137 
L 420.666182 215.905791 
L 419.666182 215.93682 
L 418.666182 215.947988 
L 417.666182 215.978106 
L 416.666182 216.037883 
L 415.666182 216.075074 
L 414.666182 216.11417 
L 413.666182 216.15661 
L 412.666182 216.189375 
L 411.666182 216.256801 
L 410.666182 216.295927 
L 409.666182 216.338602 
L 408.666182 216.409183 
L 407.666182 216.445573 
L 406.666182 216.503977 
L 405.666182 216.614929 
L 404.666182 216.685587 
L 403.666182 216.798527 
L 402.666182 216.8443 
L 401.666182 216.905583 
L 400.666182 216.954083 
L 399.666182 217.034905 
L 398.666182 217.153424 
L 397.666182 217.223635 
L 396.666182 217.306897 
L 395.666182 217.340039 
L 394.666182 217.391277 
L 393.666182 217.459675 
L 392.666182 217.52589 
L 391.666182 217.602807 
L 390.34593 217.630123 
" clip-path="url(#p549d304dc3)" style="fill: none; stroke: #2ca02c; stroke-opacity: 0.5; stroke-width: 0.2; stroke-linecap: square"/>
   <path d="M 446.666182 141.147783 
L 445.666182 141.116346 
L 444.666182 141.079406 
L 443.666182 140.981659 
L 442.666182 140.949138 
L 441.666182 140.875513 
L 440.666182 140.836947 
L 439.666182 140.801534 
L 438.666182 140.743894 
L 437.666182 140.673508 
L 436.666182 140.621544 
L 435.666182 140.562454 
L 434.666182 140.474133 
L 433.666182 140.427989 
L 432.666182 140.385578 
L 431.666182 140.355085 
L 430.666182 140.32904 
L 429.666182 140.30784 
L 428.666182 140.253539 
L 427.666182 140.225602 
L 426.666182 140.195878 
L 425.666182 140.170483 
L 424.666182 140.159282 
L 423.666182 140.149158 
L 422.666182 140.149363 
L 421.666182 140.158873 
L 420.666182 140.170526 
L 419.666182 140.201555 
L 418.666182 140.212723 
L 417.666182 140.242841 
L 416.666182 140.302618 
L 415.666182 140.339809 
L 414.666182 140.378905 
L 413.666182 140.421345 
L 412.666182 140.45411 
L 411.666182 140.521537 
L 410.666182 140.560663 
L 409.666182 140.603337 
L 408.666182 140.673918 
L 407.666182 140.710309 
L 406.666182 140.768712 
L 405.666182 140.879664 
L 404.666182 140.950323 
L 403.666182 141.063263 
L 402.666182 141.109035 
L 401.666182 141.170319 
L 400.666182 141.218818 
L 399.666182 141.299641 
L 398.666182 141.41816 
L 397.666182 141.48837 
L 396.666182 141.571633 
L 395.666182 141.604774 
L 394.666182 141.656012 
L 393.666182 141.72441 
L 392.666182 141.790626 
L 391.666182 141.867543 
L 390.34593 141.894858 
" clip-path="url(#p549d304dc3)" style="fill: none; stroke: #2ca02c; stroke-opacity: 0.5; stroke-width: 0.2; stroke-linecap: square"/>
   <g id="patch_3">
    <path d="M 72.103551 22.318125 
L 72.103551 318.021875 
M 194.769099 22.318125 
L 194.769099 318.021875 
" clip-path="url(#p549d304dc3)" style="fill: none; stroke: #ffffff; stroke-width: 3; stroke-linejoin: miter"/>
    <path d="M 72.103551 22.318125 
L 72.103551 318.021875 
M 194.769099 22.318125 
L 194.769099 318.021875 
" clip-path="url(#p549d304dc3)" style="fill: none; stroke: #1f77b4; stroke-linejoin: miter"/>
    <g id="PolyCollection_1">
     <path d="M 194.769099 22.318125 
L 72.103551 22.318125 
L 72.103551 318.021875 
L 194.769099 318.021875 
L 194.769099 318.021875 
L 194.769099 22.318125 
z
" clip-path="url(#p549d304dc3)" style="fill: #1f77b4; fill-opacity: 0.5"/>
    </g>
    <g id="patch_4">
     <path d="M 262.150038 22.318125 
L 262.150038 318.021875 
M 384.815587 22.318125 
L 384.815587 318.021875 
" clip-path="url(#p549d304dc3)" style="fill: none; stroke: #ffffff; stroke-width: 3; stroke-linejoin: miter"/>
     <path d="M 262.150038 22.318125 
L 262.150038 318.021875 
M 384.815587 22.318125 
L 384.815587 318.021875 
" clip-path="url(#p549d304dc3)" style="fill: none; stroke: #ff7f0e; stroke-linejoin: miter"/>
     <g id="PolyCollection_2">
      <path d="M 384.815587 22.318125 
L 262.150038 22.318125 
L 262.150038 318.021875 
L 384.815587 318.021875 
L 384.815587 318.021875 
L 384.815587 22.318125 
z
" clip-path="url(#p549d304dc3)" style="fill: #ff7f0e; fill-opacity: 0.5"/>
     </g>
     <g id="patch_5">
      <path d="M 452.196526 22.318125 
L 452.196526 318.021875 
M 574.862074 22.318125 
L 574.862074 318.021875 
" clip-path="url(#p549d304dc3)" style="fill: none; stroke: #ffffff; stroke-width: 3; stroke-linejoin: miter"/>
      <path d="M 452.196526 22.318125 
L 452.196526 318.021875 
M 574.862074 22.318125 
L 574.862074 318.021875 
" clip-path="url(#p549d304dc3)" style="fill: none; stroke: #2ca02c; stroke-linejoin: miter"/>
      <g id="PolyCollection_3">
       <path d="M 574.862074 22.318125 
L 452.196526 22.318125 
L 452.196526 318.021875 
L 574.862074 318.021875 
L 574.862074 318.021875 
L 574.862074 22.318125 
z
" clip-path="url(#p549d304dc3)" style="fill: #2ca02c; fill-opacity: 0.5"/>
      </g>
      <g id="matplotlib.axis_1">
       <g id="xtick_1">
        <g id="line2d_1"/>
        <g id="text_1">
         <!-- deme1 -->
         <g transform="translate(116.057419 329.120312) scale(0.1 -0.1)">
          <defs>
           <path id="DejaVuSans-64" d="M 2906 2969 
L 2906 4863 
L 3481 4863 
L 3481 0 
L 2906 0 
L 2906 525 
Q 2725 213 2448 61 
Q 2172 -91 1784 -91 
Q 1150 -91 751 415 
Q 353 922 353 1747 
Q 353 2572 751 3078 
Q 1150 3584 1784 3584 
Q 2172 3584 2448 3432 
Q 2725 3281 2906 2969 
z
M 947 1747 
Q 947 1113 1208 752 
Q 1469 391 1925 391 
Q 2381 391 2643 752 
Q 2906 1113 2906 1747 
Q 2906 2381 2643 2742 
Q 2381 3103 1925 3103 
Q 1469 3103 1208 2742 
Q 947 2381 947 1747 
z
" transform="scale(0.015625)"/>
           <path id="DejaVuSans-65" d="M 3597 1894 
L 3597 1613 
L 953 1613 
Q 991 1019 1311 708 
Q 1631 397 2203 397 
Q 2534 397 2845 478 
Q 3156 559 3463 722 
L 3463 178 
Q 3153 47 2828 -22 
Q 2503 -91 2169 -91 
Q 1331 -91 842 396 
Q 353 884 353 1716 
Q 353 2575 817 3079 
Q 1281 3584 2069 3584 
Q 2775 3584 3186 3129 
Q 3597 2675 3597 1894 
z
M 3022 2063 
Q 3016 2534 2758 2815 
Q 2500 3097 2075 3097 
Q 1594 3097 1305 2825 
Q 1016 2553 972 2059 
L 3022 2063 
z
" transform="scale(0.015625)"/>
           <path id="DejaVuSans-6d" d="M 3328 2828 
Q 3544 3216 3844 3400 
Q 4144 3584 4550 3584 
Q 5097 3584 5394 3201 
Q 5691 2819 5691 2113 
L 5691 0 
L 5113 0 
L 5113 2094 
Q 5113 2597 4934 2840 
Q 4756 3084 4391 3084 
Q 3944 3084 3684 2787 
Q 3425 2491 3425 1978 
L 3425 0 
L 2847 0 
L 2847 2094 
Q 2847 2600 2669 2842 
Q 2491 3084 2119 3084 
Q 1678 3084 1418 2786 
Q 1159 2488 1159 1978 
L 1159 0 
L 581 0 
L 581 3500 
L 1159 3500 
L 1159 2956 
Q 1356 3278 1631 3431 
Q 1906 3584 2284 3584 
Q 2666 3584 2933 3390 
Q 3200 3197 3328 2828 
z
" transform="scale(0.015625)"/>
           <path id="DejaVuSans-31" d="M 794 531 
L 1825 531 
L 1825 4091 
L 703 3866 
L 703 4441 
L 1819 4666 
L 2450 4666 
L 2450 531 
L 3481 531 
L 3481 0 
L 794 0 
L 794 531 
z
" transform="scale(0.015625)"/>
          </defs>
          <use xlink:href="#DejaVuSans-64"/>
          <use xlink:href="#DejaVuSans-65" x="63.476562"/>
          <use xlink:href="#DejaVuSans-6d" x="125"/>
          <use xlink:href="#DejaVuSans-65" x="222.412109"/>
          <use xlink:href="#DejaVuSans-31" x="283.935547"/>
         </g>
        </g>
       </g>
       <g id="xtick_2">
        <g id="line2d_2"/>
        <g id="text_2">
         <!-- deme2 -->
         <g transform="translate(306.103906 329.120312) scale(0.1 -0.1)">
          <defs>
           <path id="DejaVuSans-32" d="M 1228 531 
L 3431 531 
L 3431 0 
L 469 0 
L 469 531 
Q 828 903 1448 1529 
Q 2069 2156 2228 2338 
Q 2531 2678 2651 2914 
Q 2772 3150 2772 3378 
Q 2772 3750 2511 3984 
Q 2250 4219 1831 4219 
Q 1534 4219 1204 4116 
Q 875 4013 500 3803 
L 500 4441 
Q 881 4594 1212 4672 
Q 1544 4750 1819 4750 
Q 2544 4750 2975 4387 
Q 3406 4025 3406 3419 
Q 3406 3131 3298 2873 
Q 3191 2616 2906 2266 
Q 2828 2175 2409 1742 
Q 1991 1309 1228 531 
z
" transform="scale(0.015625)"/>
          </defs>
          <use xlink:href="#DejaVuSans-64"/>
          <use xlink:href="#DejaVuSans-65" x="63.476562"/>
          <use xlink:href="#DejaVuSans-6d" x="125"/>
          <use xlink:href="#DejaVuSans-65" x="222.412109"/>
          <use xlink:href="#DejaVuSans-32" x="283.935547"/>
         </g>
        </g>
       </g>
       <g id="xtick_3">
        <g id="line2d_3"/>
        <g id="text_3">
         <!-- deme3 -->
         <g transform="translate(496.150394 329.120312) scale(0.1 -0.1)">
          <defs>
           <path id="DejaVuSans-33" d="M 2597 2516 
Q 3050 2419 3304 2112 
Q 3559 1806 3559 1356 
Q 3559 666 3084 287 
Q 2609 -91 1734 -91 
Q 1441 -91 1130 -33 
Q 819 25 488 141 
L 488 750 
Q 750 597 1062 519 
Q 1375 441 1716 441 
Q 2309 441 2620 675 
Q 2931 909 2931 1356 
Q 2931 1769 2642 2001 
Q 2353 2234 1838 2234 
L 1294 2234 
L 1294 2753 
L 1863 2753 
Q 2328 2753 2575 2939 
Q 2822 3125 2822 3475 
Q 2822 3834 2567 4026 
Q 2313 4219 1838 4219 
Q 1578 4219 1281 4162 
Q 984 4106 628 3988 
L 628 4550 
Q 988 4650 1302 4700 
Q 1616 4750 1894 4750 
Q 2613 4750 3031 4423 
Q 3450 4097 3450 3541 
Q 3450 3153 3228 2886 
Q 3006 2619 2597 2516 
z
" transform="scale(0.015625)"/>
          </defs>
          <use xlink:href="#DejaVuSans-64"/>
          <use xlink:href="#DejaVuSans-65" x="63.476562"/>
          <use xlink:href="#DejaVuSans-6d" x="125"/>
          <use xlink:href="#DejaVuSans-65" x="222.412109"/>
          <use xlink:href="#DejaVuSans-33" x="283.935547"/>
         </g>
        </g>
       </g>
      </g>
      <g id="matplotlib.axis_2">
       <g id="ytick_1">
        <g id="line2d_4">
         <defs>
          <path id="m0fced26987" d="M 0 0 
L -3.5 0 
" style="stroke: #000000; stroke-width: 0.8"/>
         </defs>
         <g>
          <use xlink:href="#m0fced26987" x="46.965625" y="318.021875" style="stroke: #000000; stroke-width: 0.8"/>
         </g>
        </g>
        <g id="text_4">
         <!-- 0 -->
         <g transform="translate(33.603125 321.821094) scale(0.1 -0.1)">
          <defs>
           <path id="DejaVuSans-30" d="M 2034 4250 
Q 1547 4250 1301 3770 
Q 1056 3291 1056 2328 
Q 1056 1369 1301 889 
Q 1547 409 2034 409 
Q 2525 409 2770 889 
Q 3016 1369 3016 2328 
Q 3016 3291 2770 3770 
Q 2525 4250 2034 4250 
z
M 2034 4750 
Q 2819 4750 3233 4129 
Q 3647 3509 3647 2328 
Q 3647 1150 3233 529 
Q 2819 -91 2034 -91 
Q 1250 -91 836 529 
Q 422 1150 422 2328 
Q 422 3509 836 4129 
Q 1250 4750 2034 4750 
z
" transform="scale(0.015625)"/>
          </defs>
          <use xlink:href="#DejaVuSans-30"/>
         </g>
        </g>
       </g>
       <g id="ytick_2">
        <g id="line2d_5">
         <g>
          <use xlink:href="#m0fced26987" x="46.965625" y="265.684928" style="stroke: #000000; stroke-width: 0.8"/>
         </g>
        </g>
        <g id="text_5">
         <!-- 20 -->
         <g transform="translate(27.240625 269.484147) scale(0.1 -0.1)">
          <use xlink:href="#DejaVuSans-32"/>
          <use xlink:href="#DejaVuSans-30" x="63.623047"/>
         </g>
        </g>
       </g>
       <g id="ytick_3">
        <g id="line2d_6">
         <g>
          <use xlink:href="#m0fced26987" x="46.965625" y="213.347981" style="stroke: #000000; stroke-width: 0.8"/>
         </g>
        </g>
        <g id="text_6">
         <!-- 40 -->
         <g transform="translate(27.240625 217.1472) scale(0.1 -0.1)">
          <defs>
           <path id="DejaVuSans-34" d="M 2419 4116 
L 825 1625 
L 2419 1625 
L 2419 4116 
z
M 2253 4666 
L 3047 4666 
L 3047 1625 
L 3713 1625 
L 3713 1100 
L 3047 1100 
L 3047 0 
L 2419 0 
L 2419 1100 
L 313 1100 
L 313 1709 
L 2253 4666 
z
" transform="scale(0.015625)"/>
          </defs>
          <use xlink:href="#DejaVuSans-34"/>
          <use xlink:href="#DejaVuSans-30" x="63.623047"/>
         </g>
        </g>
       </g>
       <g id="ytick_4">
        <g id="line2d_7">
         <g>
          <use xlink:href="#m0fced26987" x="46.965625" y="161.011034" style="stroke: #000000; stroke-width: 0.8"/>
         </g>
        </g>
        <g id="text_7">
         <!-- 60 -->
         <g transform="translate(27.240625 164.810253) scale(0.1 -0.1)">
          <defs>
           <path id="DejaVuSans-36" d="M 2113 2584 
Q 1688 2584 1439 2293 
Q 1191 2003 1191 1497 
Q 1191 994 1439 701 
Q 1688 409 2113 409 
Q 2538 409 2786 701 
Q 3034 994 3034 1497 
Q 3034 2003 2786 2293 
Q 2538 2584 2113 2584 
z
M 3366 4563 
L 3366 3988 
Q 3128 4100 2886 4159 
Q 2644 4219 2406 4219 
Q 1781 4219 1451 3797 
Q 1122 3375 1075 2522 
Q 1259 2794 1537 2939 
Q 1816 3084 2150 3084 
Q 2853 3084 3261 2657 
Q 3669 2231 3669 1497 
Q 3669 778 3244 343 
Q 2819 -91 2113 -91 
Q 1303 -91 875 529 
Q 447 1150 447 2328 
Q 447 3434 972 4092 
Q 1497 4750 2381 4750 
Q 2619 4750 2861 4703 
Q 3103 4656 3366 4563 
z
" transform="scale(0.015625)"/>
          </defs>
          <use xlink:href="#DejaVuSans-36"/>
          <use xlink:href="#DejaVuSans-30" x="63.623047"/>
         </g>
        </g>
       </g>
       <g id="ytick_5">
        <g id="line2d_8">
         <g>
          <use xlink:href="#m0fced26987" x="46.965625" y="108.674087" style="stroke: #000000; stroke-width: 0.8"/>
         </g>
        </g>
        <g id="text_8">
         <!-- 80 -->
         <g transform="translate(27.240625 112.473306) scale(0.1 -0.1)">
          <defs>
           <path id="DejaVuSans-38" d="M 2034 2216 
Q 1584 2216 1326 1975 
Q 1069 1734 1069 1313 
Q 1069 891 1326 650 
Q 1584 409 2034 409 
Q 2484 409 2743 651 
Q 3003 894 3003 1313 
Q 3003 1734 2745 1975 
Q 2488 2216 2034 2216 
z
M 1403 2484 
Q 997 2584 770 2862 
Q 544 3141 544 3541 
Q 544 4100 942 4425 
Q 1341 4750 2034 4750 
Q 2731 4750 3128 4425 
Q 3525 4100 3525 3541 
Q 3525 3141 3298 2862 
Q 3072 2584 2669 2484 
Q 3125 2378 3379 2068 
Q 3634 1759 3634 1313 
Q 3634 634 3220 271 
Q 2806 -91 2034 -91 
Q 1263 -91 848 271 
Q 434 634 434 1313 
Q 434 1759 690 2068 
Q 947 2378 1403 2484 
z
M 1172 3481 
Q 1172 3119 1398 2916 
Q 1625 2713 2034 2713 
Q 2441 2713 2670 2916 
Q 2900 3119 2900 3481 
Q 2900 3844 2670 4047 
Q 2441 4250 2034 4250 
Q 1625 4250 1398 4047 
Q 1172 3844 1172 3481 
z
" transform="scale(0.015625)"/>
          </defs>
          <use xlink:href="#DejaVuSans-38"/>
          <use xlink:href="#DejaVuSans-30" x="63.623047"/>
         </g>
        </g>
       </g>
       <g id="ytick_6">
        <g id="line2d_9">
         <g>
          <use xlink:href="#m0fced26987" x="46.965625" y="56.33714" style="stroke: #000000; stroke-width: 0.8"/>
         </g>
        </g>
        <g id="text_9">
         <!-- 100 -->
         <g transform="translate(20.878125 60.136359) scale(0.1 -0.1)">
          <use xlink:href="#DejaVuSans-31"/>
          <use xlink:href="#DejaVuSans-30" x="63.623047"/>
          <use xlink:href="#DejaVuSans-30" x="127.246094"/>
         </g>
        </g>
       </g>
       <g id="text_10">
        <!-- time ago (years) -->
        <g transform="translate(14.798437 211.603594) rotate(-90) scale(0.1 -0.1)">
         <defs>
          <path id="DejaVuSans-74" d="M 1172 4494 
L 1172 3500 
L 2356 3500 
L 2356 3053 
L 1172 3053 
L 1172 1153 
Q 1172 725 1289 603 
Q 1406 481 1766 481 
L 2356 481 
L 2356 0 
L 1766 0 
Q 1100 0 847 248 
Q 594 497 594 1153 
L 594 3053 
L 172 3053 
L 172 3500 
L 594 3500 
L 594 4494 
L 1172 4494 
z
" transform="scale(0.015625)"/>
          <path id="DejaVuSans-69" d="M 603 3500 
L 1178 3500 
L 1178 0 
L 603 0 
L 603 3500 
z
M 603 4863 
L 1178 4863 
L 1178 4134 
L 603 4134 
L 603 4863 
z
" transform="scale(0.015625)"/>
          <path id="DejaVuSans-20" transform="scale(0.015625)"/>
          <path id="DejaVuSans-61" d="M 2194 1759 
Q 1497 1759 1228 1600 
Q 959 1441 959 1056 
Q 959 750 1161 570 
Q 1363 391 1709 391 
Q 2188 391 2477 730 
Q 2766 1069 2766 1631 
L 2766 1759 
L 2194 1759 
z
M 3341 1997 
L 3341 0 
L 2766 0 
L 2766 531 
Q 2569 213 2275 61 
Q 1981 -91 1556 -91 
Q 1019 -91 701 211 
Q 384 513 384 1019 
Q 384 1609 779 1909 
Q 1175 2209 1959 2209 
L 2766 2209 
L 2766 2266 
Q 2766 2663 2505 2880 
Q 2244 3097 1772 3097 
Q 1472 3097 1187 3025 
Q 903 2953 641 2809 
L 641 3341 
Q 956 3463 1253 3523 
Q 1550 3584 1831 3584 
Q 2591 3584 2966 3190 
Q 3341 2797 3341 1997 
z
" transform="scale(0.015625)"/>
          <path id="DejaVuSans-67" d="M 2906 1791 
Q 2906 2416 2648 2759 
Q 2391 3103 1925 3103 
Q 1463 3103 1205 2759 
Q 947 2416 947 1791 
Q 947 1169 1205 825 
Q 1463 481 1925 481 
Q 2391 481 2648 825 
Q 2906 1169 2906 1791 
z
M 3481 434 
Q 3481 -459 3084 -895 
Q 2688 -1331 1869 -1331 
Q 1566 -1331 1297 -1286 
Q 1028 -1241 775 -1147 
L 775 -588 
Q 1028 -725 1275 -790 
Q 1522 -856 1778 -856 
Q 2344 -856 2625 -561 
Q 2906 -266 2906 331 
L 2906 616 
Q 2728 306 2450 153 
Q 2172 0 1784 0 
Q 1141 0 747 490 
Q 353 981 353 1791 
Q 353 2603 747 3093 
Q 1141 3584 1784 3584 
Q 2172 3584 2450 3431 
Q 2728 3278 2906 2969 
L 2906 3500 
L 3481 3500 
L 3481 434 
z
" transform="scale(0.015625)"/>
          <path id="DejaVuSans-6f" d="M 1959 3097 
Q 1497 3097 1228 2736 
Q 959 2375 959 1747 
Q 959 1119 1226 758 
Q 1494 397 1959 397 
Q 2419 397 2687 759 
Q 2956 1122 2956 1747 
Q 2956 2369 2687 2733 
Q 2419 3097 1959 3097 
z
M 1959 3584 
Q 2709 3584 3137 3096 
Q 3566 2609 3566 1747 
Q 3566 888 3137 398 
Q 2709 -91 1959 -91 
Q 1206 -91 779 398 
Q 353 888 353 1747 
Q 353 2609 779 3096 
Q 1206 3584 1959 3584 
z
" transform="scale(0.015625)"/>
          <path id="DejaVuSans-28" d="M 1984 4856 
Q 1566 4138 1362 3434 
Q 1159 2731 1159 2009 
Q 1159 1288 1364 580 
Q 1569 -128 1984 -844 
L 1484 -844 
Q 1016 -109 783 600 
Q 550 1309 550 2009 
Q 550 2706 781 3412 
Q 1013 4119 1484 4856 
L 1984 4856 
z
" transform="scale(0.015625)"/>
          <path id="DejaVuSans-79" d="M 2059 -325 
Q 1816 -950 1584 -1140 
Q 1353 -1331 966 -1331 
L 506 -1331 
L 506 -850 
L 844 -850 
Q 1081 -850 1212 -737 
Q 1344 -625 1503 -206 
L 1606 56 
L 191 3500 
L 800 3500 
L 1894 763 
L 2988 3500 
L 3597 3500 
L 2059 -325 
z
" transform="scale(0.015625)"/>
          <path id="DejaVuSans-72" d="M 2631 2963 
Q 2534 3019 2420 3045 
Q 2306 3072 2169 3072 
Q 1681 3072 1420 2755 
Q 1159 2438 1159 1844 
L 1159 0 
L 581 0 
L 581 3500 
L 1159 3500 
L 1159 2956 
Q 1341 3275 1631 3429 
Q 1922 3584 2338 3584 
Q 2397 3584 2469 3576 
Q 2541 3569 2628 3553 
L 2631 2963 
z
" transform="scale(0.015625)"/>
          <path id="DejaVuSans-73" d="M 2834 3397 
L 2834 2853 
Q 2591 2978 2328 3040 
Q 2066 3103 1784 3103 
Q 1356 3103 1142 2972 
Q 928 2841 928 2578 
Q 928 2378 1081 2264 
Q 1234 2150 1697 2047 
L 1894 2003 
Q 2506 1872 2764 1633 
Q 3022 1394 3022 966 
Q 3022 478 2636 193 
Q 2250 -91 1575 -91 
Q 1294 -91 989 -36 
Q 684 19 347 128 
L 347 722 
Q 666 556 975 473 
Q 1284 391 1588 391 
Q 1994 391 2212 530 
Q 2431 669 2431 922 
Q 2431 1156 2273 1281 
Q 2116 1406 1581 1522 
L 1381 1569 
Q 847 1681 609 1914 
Q 372 2147 372 2553 
Q 372 3047 722 3315 
Q 1072 3584 1716 3584 
Q 2034 3584 2315 3537 
Q 2597 3491 2834 3397 
z
" transform="scale(0.015625)"/>
          <path id="DejaVuSans-29" d="M 513 4856 
L 1013 4856 
Q 1481 4119 1714 3412 
Q 1947 2706 1947 2009 
Q 1947 1309 1714 600 
Q 1481 -109 1013 -844 
L 513 -844 
Q 928 -128 1133 580 
Q 1338 1288 1338 2009 
Q 1338 2731 1133 3434 
Q 928 4138 513 4856 
z
" transform="scale(0.015625)"/>
         </defs>
         <use xlink:href="#DejaVuSans-74"/>
         <use xlink:href="#DejaVuSans-69" x="39.208984"/>
         <use xlink:href="#DejaVuSans-6d" x="66.992188"/>
         <use xlink:href="#DejaVuSans-65" x="164.404297"/>
         <use xlink:href="#DejaVuSans-20" x="225.927734"/>
         <use xlink:href="#DejaVuSans-61" x="257.714844"/>
         <use xlink:href="#DejaVuSans-67" x="318.994141"/>
         <use xlink:href="#DejaVuSans-6f" x="382.470703"/>
         <use xlink:href="#DejaVuSans-20" x="443.652344"/>
         <use xlink:href="#DejaVuSans-28" x="475.439453"/>
         <use xlink:href="#DejaVuSans-79" x="514.453125"/>
         <use xlink:href="#DejaVuSans-65" x="573.632812"/>
         <use xlink:href="#DejaVuSans-61" x="635.15625"/>
         <use xlink:href="#DejaVuSans-72" x="696.435547"/>
         <use xlink:href="#DejaVuSans-73" x="737.548828"/>
         <use xlink:href="#DejaVuSans-29" x="789.648438"/>
        </g>
       </g>
      </g>
      <path d="M 257.619695 225.260256 
L 255.619695 224.260256 
L 255.619695 226.260256 
z
" clip-path="url(#p549d304dc3)" style="fill: #1f77b4; fill-opacity: 0.5; stroke: #1f77b4; stroke-opacity: 0.5; stroke-linejoin: miter"/>
      <path d="M 257.619695 224.03328 
L 255.619695 223.03328 
L 255.619695 225.03328 
z
" clip-path="url(#p549d304dc3)" style="fill: #1f77b4; fill-opacity: 0.5; stroke: #1f77b4; stroke-opacity: 0.5; stroke-linejoin: miter"/>
      <path d="M 257.619695 245.60247 
L 255.619695 244.60247 
L 255.619695 246.60247 
z
" clip-path="url(#p549d304dc3)" style="fill: #1f77b4; fill-opacity: 0.5; stroke: #1f77b4; stroke-opacity: 0.5; stroke-linejoin: miter"/>
      <path d="M 257.619695 255.770364 
L 255.619695 254.770364 
L 255.619695 256.770364 
z
" clip-path="url(#p549d304dc3)" style="fill: #1f77b4; fill-opacity: 0.5; stroke: #1f77b4; stroke-opacity: 0.5; stroke-linejoin: miter"/>
      <path d="M 257.619695 237.619618 
L 255.619695 236.619618 
L 255.619695 238.619618 
z
" clip-path="url(#p549d304dc3)" style="fill: #1f77b4; fill-opacity: 0.5; stroke: #1f77b4; stroke-opacity: 0.5; stroke-linejoin: miter"/>
      <path d="M 257.619695 126.939673 
L 255.619695 125.939673 
L 255.619695 127.939673 
z
" clip-path="url(#p549d304dc3)" style="fill: #1f77b4; fill-opacity: 0.5; stroke: #1f77b4; stroke-opacity: 0.5; stroke-linejoin: miter"/>
      <path d="M 257.619695 39.537275 
L 255.619695 38.537275 
L 255.619695 40.537275 
z
" clip-path="url(#p549d304dc3)" style="fill: #1f77b4; fill-opacity: 0.5; stroke: #1f77b4; stroke-opacity: 0.5; stroke-linejoin: miter"/>
      <path d="M 257.619695 135.312659 
L 255.619695 134.312659 
L 255.619695 136.312659 
z
" clip-path="url(#p549d304dc3)" style="fill: #1f77b4; fill-opacity: 0.5; stroke: #1f77b4; stroke-opacity: 0.5; stroke-linejoin: miter"/>
      <path d="M 257.619695 169.439844 
L 255.619695 168.439844 
L 255.619695 170.439844 
z
" clip-path="url(#p549d304dc3)" style="fill: #1f77b4; fill-opacity: 0.5; stroke: #1f77b4; stroke-opacity: 0.5; stroke-linejoin: miter"/>
      <path d="M 257.619695 75.677979 
L 255.619695 74.677979 
L 255.619695 76.677979 
z
" clip-path="url(#p549d304dc3)" style="fill: #1f77b4; fill-opacity: 0.5; stroke: #1f77b4; stroke-opacity: 0.5; stroke-linejoin: miter"/>
      <path d="M 199.299443 77.520207 
L 201.299443 78.520207 
L 201.299443 76.520207 
z
" clip-path="url(#p549d304dc3)" style="fill: #ff7f0e; fill-opacity: 0.5; stroke: #ff7f0e; stroke-opacity: 0.5; stroke-linejoin: miter"/>
      <path d="M 199.299443 32.962995 
L 201.299443 33.962995 
L 201.299443 31.962995 
z
" clip-path="url(#p549d304dc3)" style="fill: #ff7f0e; fill-opacity: 0.5; stroke: #ff7f0e; stroke-opacity: 0.5; stroke-linejoin: miter"/>
      <path d="M 199.299443 64.371357 
L 201.299443 65.371357 
L 201.299443 63.371357 
z
" clip-path="url(#p549d304dc3)" style="fill: #ff7f0e; fill-opacity: 0.5; stroke: #ff7f0e; stroke-opacity: 0.5; stroke-linejoin: miter"/>
      <path d="M 199.299443 300.919488 
L 201.299443 301.919488 
L 201.299443 299.919488 
z
" clip-path="url(#p549d304dc3)" style="fill: #ff7f0e; fill-opacity: 0.5; stroke: #ff7f0e; stroke-opacity: 0.5; stroke-linejoin: miter"/>
      <path d="M 199.299443 219.010228 
L 201.299443 220.010228 
L 201.299443 218.010228 
z
" clip-path="url(#p549d304dc3)" style="fill: #ff7f0e; fill-opacity: 0.5; stroke: #ff7f0e; stroke-opacity: 0.5; stroke-linejoin: miter"/>
      <path d="M 199.299443 299.978226 
L 201.299443 300.978226 
L 201.299443 298.978226 
z
" clip-path="url(#p549d304dc3)" style="fill: #ff7f0e; fill-opacity: 0.5; stroke: #ff7f0e; stroke-opacity: 0.5; stroke-linejoin: miter"/>
      <path d="M 199.299443 25.659696 
L 201.299443 26.659696 
L 201.299443 24.659696 
z
" clip-path="url(#p549d304dc3)" style="fill: #ff7f0e; fill-opacity: 0.5; stroke: #ff7f0e; stroke-opacity: 0.5; stroke-linejoin: miter"/>
      <path d="M 199.299443 84.540344 
L 201.299443 85.540344 
L 201.299443 83.540344 
z
" clip-path="url(#p549d304dc3)" style="fill: #ff7f0e; fill-opacity: 0.5; stroke: #ff7f0e; stroke-opacity: 0.5; stroke-linejoin: miter"/>
      <path d="M 199.299443 271.980231 
L 201.299443 272.980231 
L 201.299443 270.980231 
z
" clip-path="url(#p549d304dc3)" style="fill: #ff7f0e; fill-opacity: 0.5; stroke: #ff7f0e; stroke-opacity: 0.5; stroke-linejoin: miter"/>
      <path d="M 199.299443 88.397161 
L 201.299443 89.397161 
L 201.299443 87.397161 
z
" clip-path="url(#p549d304dc3)" style="fill: #ff7f0e; fill-opacity: 0.5; stroke: #ff7f0e; stroke-opacity: 0.5; stroke-linejoin: miter"/>
      <path d="M 447.666182 254.506357 
L 445.666182 253.506357 
L 445.666182 255.506357 
z
" clip-path="url(#p549d304dc3)" style="fill: #ff7f0e; fill-opacity: 0.5; stroke: #ff7f0e; stroke-opacity: 0.5; stroke-linejoin: miter"/>
      <path d="M 447.666182 143.197104 
L 445.666182 142.197104 
L 445.666182 144.197104 
z
" clip-path="url(#p549d304dc3)" style="fill: #ff7f0e; fill-opacity: 0.5; stroke: #ff7f0e; stroke-opacity: 0.5; stroke-linejoin: miter"/>
      <path d="M 447.666182 66.150671 
L 445.666182 65.150671 
L 445.666182 67.150671 
z
" clip-path="url(#p549d304dc3)" style="fill: #ff7f0e; fill-opacity: 0.5; stroke: #ff7f0e; stroke-opacity: 0.5; stroke-linejoin: miter"/>
      <path d="M 447.666182 51.541303 
L 445.666182 50.541303 
L 445.666182 52.541303 
z
" clip-path="url(#p549d304dc3)" style="fill: #ff7f0e; fill-opacity: 0.5; stroke: #ff7f0e; stroke-opacity: 0.5; stroke-linejoin: miter"/>
      <path d="M 447.666182 218.682254 
L 445.666182 217.682254 
L 445.666182 219.682254 
z
" clip-path="url(#p549d304dc3)" style="fill: #ff7f0e; fill-opacity: 0.5; stroke: #ff7f0e; stroke-opacity: 0.5; stroke-linejoin: miter"/>
      <path d="M 447.666182 238.86198 
L 445.666182 237.86198 
L 445.666182 239.86198 
z
" clip-path="url(#p549d304dc3)" style="fill: #ff7f0e; fill-opacity: 0.5; stroke: #ff7f0e; stroke-opacity: 0.5; stroke-linejoin: miter"/>
      <path d="M 447.666182 273.670735 
L 445.666182 272.670735 
L 445.666182 274.670735 
z
" clip-path="url(#p549d304dc3)" style="fill: #ff7f0e; fill-opacity: 0.5; stroke: #ff7f0e; stroke-opacity: 0.5; stroke-linejoin: miter"/>
      <path d="M 447.666182 245.316051 
L 445.666182 244.316051 
L 445.666182 246.316051 
z
" clip-path="url(#p549d304dc3)" style="fill: #ff7f0e; fill-opacity: 0.5; stroke: #ff7f0e; stroke-opacity: 0.5; stroke-linejoin: miter"/>
      <path d="M 447.666182 290.206736 
L 445.666182 289.206736 
L 445.666182 291.206736 
z
" clip-path="url(#p549d304dc3)" style="fill: #ff7f0e; fill-opacity: 0.5; stroke: #ff7f0e; stroke-opacity: 0.5; stroke-linejoin: miter"/>
      <path d="M 447.666182 261.574735 
L 445.666182 260.574735 
L 445.666182 262.574735 
z
" clip-path="url(#p549d304dc3)" style="fill: #ff7f0e; fill-opacity: 0.5; stroke: #ff7f0e; stroke-opacity: 0.5; stroke-linejoin: miter"/>
      <path d="M 389.34593 182.864352 
L 391.34593 183.864352 
L 391.34593 181.864352 
z
" clip-path="url(#p549d304dc3)" style="fill: #2ca02c; fill-opacity: 0.5; stroke: #2ca02c; stroke-opacity: 0.5; stroke-linejoin: miter"/>
      <path d="M 389.34593 53.636356 
L 391.34593 54.636356 
L 391.34593 52.636356 
z
" clip-path="url(#p549d304dc3)" style="fill: #2ca02c; fill-opacity: 0.5; stroke: #2ca02c; stroke-opacity: 0.5; stroke-linejoin: miter"/>
      <path d="M 389.34593 289.433823 
L 391.34593 290.433823 
L 391.34593 288.433823 
z
" clip-path="url(#p549d304dc3)" style="fill: #2ca02c; fill-opacity: 0.5; stroke: #2ca02c; stroke-opacity: 0.5; stroke-linejoin: miter"/>
      <path d="M 389.34593 155.774463 
L 391.34593 156.774463 
L 391.34593 154.774463 
z
" clip-path="url(#p549d304dc3)" style="fill: #2ca02c; fill-opacity: 0.5; stroke: #2ca02c; stroke-opacity: 0.5; stroke-linejoin: miter"/>
      <path d="M 389.34593 115.720274 
L 391.34593 116.720274 
L 391.34593 114.720274 
z
" clip-path="url(#p549d304dc3)" style="fill: #2ca02c; fill-opacity: 0.5; stroke: #2ca02c; stroke-opacity: 0.5; stroke-linejoin: miter"/>
      <path d="M 389.34593 137.304624 
L 391.34593 138.304624 
L 391.34593 136.304624 
z
" clip-path="url(#p549d304dc3)" style="fill: #2ca02c; fill-opacity: 0.5; stroke: #2ca02c; stroke-opacity: 0.5; stroke-linejoin: miter"/>
      <path d="M 389.34593 114.622054 
L 391.34593 115.622054 
L 391.34593 113.622054 
z
" clip-path="url(#p549d304dc3)" style="fill: #2ca02c; fill-opacity: 0.5; stroke: #2ca02c; stroke-opacity: 0.5; stroke-linejoin: miter"/>
      <path d="M 389.34593 99.320506 
L 391.34593 100.320506 
L 391.34593 98.320506 
z
" clip-path="url(#p549d304dc3)" style="fill: #2ca02c; fill-opacity: 0.5; stroke: #2ca02c; stroke-opacity: 0.5; stroke-linejoin: miter"/>
      <path d="M 389.34593 216.883047 
L 391.34593 217.883047 
L 391.34593 215.883047 
z
" clip-path="url(#p549d304dc3)" style="fill: #2ca02c; fill-opacity: 0.5; stroke: #2ca02c; stroke-opacity: 0.5; stroke-linejoin: miter"/>
      <path d="M 389.34593 141.147783 
L 391.34593 142.147783 
L 391.34593 140.147783 
z
" clip-path="url(#p549d304dc3)" style="fill: #2ca02c; fill-opacity: 0.5; stroke: #2ca02c; stroke-opacity: 0.5; stroke-linejoin: miter"/>
      <g id="patch_6">
       <path d="M 46.965625 318.021875 
L 46.965625 22.318125 
" style="fill: none; stroke: #000000; stroke-width: 0.8; stroke-linejoin: miter; stroke-linecap: square"/>
      </g>
      <g id="text_11">
       <!-- stepping_stone_model.yaml -->
       <g transform="translate(239.443437 16.318125) scale(0.12 -0.12)">
        <defs>
         <path id="DejaVuSans-70" d="M 1159 525 
L 1159 -1331 
L 581 -1331 
L 581 3500 
L 1159 3500 
L 1159 2969 
Q 1341 3281 1617 3432 
Q 1894 3584 2278 3584 
Q 2916 3584 3314 3078 
Q 3713 2572 3713 1747 
Q 3713 922 3314 415 
Q 2916 -91 2278 -91 
Q 1894 -91 1617 61 
Q 1341 213 1159 525 
z
M 3116 1747 
Q 3116 2381 2855 2742 
Q 2594 3103 2138 3103 
Q 1681 3103 1420 2742 
Q 1159 2381 1159 1747 
Q 1159 1113 1420 752 
Q 1681 391 2138 391 
Q 2594 391 2855 752 
Q 3116 1113 3116 1747 
z
" transform="scale(0.015625)"/>
         <path id="DejaVuSans-6e" d="M 3513 2113 
L 3513 0 
L 2938 0 
L 2938 2094 
Q 2938 2591 2744 2837 
Q 2550 3084 2163 3084 
Q 1697 3084 1428 2787 
Q 1159 2491 1159 1978 
L 1159 0 
L 581 0 
L 581 3500 
L 1159 3500 
L 1159 2956 
Q 1366 3272 1645 3428 
Q 1925 3584 2291 3584 
Q 2894 3584 3203 3211 
Q 3513 2838 3513 2113 
z
" transform="scale(0.015625)"/>
         <path id="DejaVuSans-5f" d="M 3263 -1063 
L 3263 -1509 
L -63 -1509 
L -63 -1063 
L 3263 -1063 
z
" transform="scale(0.015625)"/>
         <path id="DejaVuSans-6c" d="M 603 4863 
L 1178 4863 
L 1178 0 
L 603 0 
L 603 4863 
z
" transform="scale(0.015625)"/>
         <path id="DejaVuSans-2e" d="M 684 794 
L 1344 794 
L 1344 0 
L 684 0 
L 684 794 
z
" transform="scale(0.015625)"/>
        </defs>
        <use xlink:href="#DejaVuSans-73"/>
        <use xlink:href="#DejaVuSans-74" x="52.099609"/>
        <use xlink:href="#DejaVuSans-65" x="91.308594"/>
        <use xlink:href="#DejaVuSans-70" x="152.832031"/>
        <use xlink:href="#DejaVuSans-70" x="216.308594"/>
        <use xlink:href="#DejaVuSans-69" x="279.785156"/>
        <use xlink:href="#DejaVuSans-6e" x="307.568359"/>
        <use xlink:href="#DejaVuSans-67" x="370.947266"/>
        <use xlink:href="#DejaVuSans-5f" x="434.423828"/>
        <use xlink:href="#DejaVuSans-73" x="484.423828"/>
        <use xlink:href="#DejaVuSans-74" x="536.523438"/>
        <use xlink:href="#DejaVuSans-6f" x="575.732422"/>
        <use xlink:href="#DejaVuSans-6e" x="636.914062"/>
        <use xlink:href="#DejaVuSans-65" x="700.292969"/>
        <use xlink:href="#DejaVuSans-5f" x="761.816406"/>
        <use xlink:href="#DejaVuSans-6d" x="811.816406"/>
        <use xlink:href="#DejaVuSans-6f" x="909.228516"/>
        <use xlink:href="#DejaVuSans-64" x="970.410156"/>
        <use xlink:href="#DejaVuSans-65" x="1033.886719"/>
        <use xlink:href="#DejaVuSans-6c" x="1095.410156"/>
        <use xlink:href="#DejaVuSans-2e" x="1123.193359"/>
        <use xlink:href="#DejaVuSans-79" x="1154.980469"/>
        <use xlink:href="#DejaVuSans-61" x="1214.160156"/>
        <use xlink:href="#DejaVuSans-6d" x="1275.439453"/>
        <use xlink:href="#DejaVuSans-6c" x="1372.851562"/>
       </g>
      </g>
     </g>
    </g>
    <defs>
     <clipPath id="p549d304dc3">
      <rect x="46.965625" y="22.318125" width="553.034375" height="295.70375"/>
     </clipPath>
    </defs>
   </g>
  </g>
 </g>
</svg>
