<?xml version="1.0" encoding="utf-8" standalone="no"?>
<!DOCTYPE svg PUBLIC "-//W3C//DTD SVG 1.1//EN"
  "http://www.w3.org/Graphics/SVG/1.1/DTD/svg11.dtd">
<svg xmlns:xlink="http://www.w3.org/1999/xlink" width="504.8pt" height="280.8pt" viewBox="0 0 504.8 280.8" xmlns="http://www.w3.org/2000/svg" version="1.1">
 <metadata>
  <rdf:RDF xmlns:dc="http://purl.org/dc/elements/1.1/" xmlns:cc="http://creativecommons.org/ns#" xmlns:rdf="http://www.w3.org/1999/02/22-rdf-syntax-ns#">
   <cc:Work>
    <dc:type rdf:resource="http://purl.org/dc/dcmitype/StillImage"/>
    <dc:date>2022-05-02T08:20:49.636078</dc:date>
    <dc:format>image/svg+xml</dc:format>
    <dc:creator>
     <cc:Agent>
      <dc:title>Matplotlib v3.5.1, https://matplotlib.org/</dc:title>
     </cc:Agent>
    </dc:creator>
   </cc:Work>
  </rdf:RDF>
 </metadata>
 <defs>
  <style type="text/css">*{stroke-linejoin: round; stroke-linecap: butt}</style>
 </defs>
 <g id="figure_1">
  <g id="patch_1">
   <path d="M 0 280.8 
L 504.8 280.8 
L 504.8 0 
L 0 0 
L 0 280.8 
z
" style="fill: none"/>
  </g>
  <g id="axes_1">
   <g id="patch_2">
    <path d="M 43.78125 260.421875 
L 497.6 260.421875 
L 497.6 22.318125 
L 43.78125 22.318125 
z
" style="fill: #ffffff"/>
   </g>
   <path d="M 244.762419 99.004878 
L 245.762419 99.036315 
L 246.762419 99.073255 
L 247.762419 99.171002 
L 248.762419 99.203523 
L 249.762419 99.277148 
L 250.762419 99.315714 
L 251.762419 99.351127 
L 252.762419 99.408767 
L 253.762419 99.479153 
L 254.762419 99.531117 
L 255.762419 99.590207 
L 256.762419 99.678528 
L 257.762419 99.724672 
L 258.762419 99.767083 
L 259.762419 99.797576 
L 260.762419 99.823621 
L 261.762419 99.844821 
L 262.762419 99.899122 
L 263.762419 99.927059 
L 264.762419 99.956783 
L 265.762419 99.982178 
L 266.762419 99.993379 
L 267.762419 100.003502 
L 268.762419 100.003298 
L 269.762419 99.993788 
L 270.762419 99.982135 
L 271.762419 99.951105 
L 272.762419 99.939938 
L 273.762419 99.90982 
L 274.762419 99.850043 
L 275.762419 99.812852 
L 276.762419 99.773755 
L 277.762419 99.731316 
L 278.762419 99.698551 
L 279.762419 99.631124 
L 280.762419 99.591998 
L 281.762419 99.549324 
L 282.762419 99.478743 
L 283.762419 99.442352 
L 284.762419 99.383949 
L 285.762419 99.272997 
L 286.762419 99.202338 
L 287.762419 99.089398 
L 288.762419 99.043626 
L 289.762419 98.982342 
L 290.762419 98.933843 
L 291.762419 98.85302 
L 292.762419 98.734501 
L 293.762419 98.664291 
L 294.762419 98.581028 
L 296.618831 98.547886 
" clip-path="url(#pa3a9b451e6)" style="fill: none; stroke: #1f77b4; stroke-opacity: 0.5; stroke-width: 0.2; stroke-linecap: square"/>
   <path d="M 244.762419 117.411135 
L 245.762419 117.442571 
L 246.762419 117.479511 
L 247.762419 117.577258 
L 248.762419 117.609779 
L 249.762419 117.683404 
L 250.762419 117.72197 
L 251.762419 117.757383 
L 252.762419 117.815023 
L 253.762419 117.885409 
L 254.762419 117.937373 
L 255.762419 117.996463 
L 256.762419 118.084784 
L 257.762419 118.130928 
L 258.762419 118.173339 
L 259.762419 118.203832 
L 260.762419 118.229877 
L 261.762419 118.251077 
L 262.762419 118.305378 
L 263.762419 118.333316 
L 264.762419 118.36304 
L 265.762419 118.388434 
L 266.762419 118.399635 
L 267.762419 118.409759 
L 268.762419 118.409554 
L 269.762419 118.400044 
L 270.762419 118.388391 
L 271.762419 118.357362 
L 272.762419 118.346194 
L 273.762419 118.316076 
L 274.762419 118.256299 
L 275.762419 118.219108 
L 276.762419 118.180012 
L 277.762419 118.137572 
L 278.762419 118.104807 
L 279.762419 118.03738 
L 280.762419 117.998254 
L 281.762419 117.95558 
L 282.762419 117.884999 
L 283.762419 117.848608 
L 284.762419 117.790205 
L 285.762419 117.679253 
L 286.762419 117.608594 
L 287.762419 117.495655 
L 288.762419 117.449882 
L 289.762419 117.388598 
L 290.762419 117.340099 
L 291.762419 117.259276 
L 292.762419 117.140758 
L 293.762419 117.070547 
L 294.762419 116.987284 
L 296.618831 116.954143 
" clip-path="url(#pa3a9b451e6)" style="fill: none; stroke: #1f77b4; stroke-opacity: 0.5; stroke-width: 0.2; stroke-linecap: square"/>
   <path d="M 244.762419 148.555683 
L 245.762419 148.587119 
L 246.762419 148.62406 
L 247.762419 148.721806 
L 248.762419 148.754328 
L 249.762419 148.827952 
L 250.762419 148.866518 
L 251.762419 148.901931 
L 252.762419 148.959571 
L 253.762419 149.029957 
L 254.762419 149.081922 
L 255.762419 149.141011 
L 256.762419 149.229332 
L 257.762419 149.275477 
L 258.762419 149.317887 
L 259.762419 149.34838 
L 260.762419 149.374425 
L 261.762419 149.395625 
L 262.762419 149.449926 
L 263.762419 149.477864 
L 264.762419 149.507588 
L 265.762419 149.532983 
L 266.762419 149.544183 
L 267.762419 149.554307 
L 268.762419 149.554103 
L 269.762419 149.544593 
L 270.762419 149.532939 
L 271.762419 149.50191 
L 272.762419 149.490742 
L 273.762419 149.460624 
L 274.762419 149.400848 
L 275.762419 149.363656 
L 276.762419 149.32456 
L 277.762419 149.28212 
L 278.762419 149.249355 
L 279.762419 149.181929 
L 280.762419 149.142803 
L 281.762419 149.100128 
L 282.762419 149.029548 
L 283.762419 148.993157 
L 284.762419 148.934754 
L 285.762419 148.823801 
L 286.762419 148.753143 
L 287.762419 148.640203 
L 288.762419 148.59443 
L 289.762419 148.533147 
L 290.762419 148.484647 
L 291.762419 148.403825 
L 292.762419 148.285306 
L 293.762419 148.215095 
L 294.762419 148.131833 
L 296.618831 148.098691 
" clip-path="url(#pa3a9b451e6)" style="fill: none; stroke: #1f77b4; stroke-opacity: 0.5; stroke-width: 0.2; stroke-linecap: square"/>
   <path d="M 244.762419 122.301803 
L 245.762419 122.333239 
L 246.762419 122.370179 
L 247.762419 122.467926 
L 248.762419 122.500448 
L 249.762419 122.574072 
L 250.762419 122.612638 
L 251.762419 122.648051 
L 252.762419 122.705691 
L 253.762419 122.776077 
L 254.762419 122.828041 
L 255.762419 122.887131 
L 256.762419 122.975452 
L 257.762419 123.021596 
L 258.762419 123.064007 
L 259.762419 123.0945 
L 260.762419 123.120545 
L 261.762419 123.141745 
L 262.762419 123.196046 
L 263.762419 123.223984 
L 264.762419 123.253708 
L 265.762419 123.279102 
L 266.762419 123.290303 
L 267.762419 123.300427 
L 268.762419 123.300222 
L 269.762419 123.290713 
L 270.762419 123.279059 
L 271.762419 123.24803 
L 272.762419 123.236862 
L 273.762419 123.206744 
L 274.762419 123.146967 
L 275.762419 123.109776 
L 276.762419 123.07068 
L 277.762419 123.02824 
L 278.762419 122.995475 
L 279.762419 122.928049 
L 280.762419 122.888923 
L 281.762419 122.846248 
L 282.762419 122.775667 
L 283.762419 122.739277 
L 284.762419 122.680873 
L 285.762419 122.569921 
L 286.762419 122.499263 
L 287.762419 122.386323 
L 288.762419 122.34055 
L 289.762419 122.279267 
L 290.762419 122.230767 
L 291.762419 122.149945 
L 292.762419 122.031426 
L 293.762419 121.961215 
L 294.762419 121.877953 
L 296.618831 121.844811 
" clip-path="url(#pa3a9b451e6)" style="fill: none; stroke: #1f77b4; stroke-opacity: 0.5; stroke-width: 0.2; stroke-linecap: square"/>
   <path d="M 244.762419 106.058658 
L 245.762419 106.090095 
L 246.762419 106.127035 
L 247.762419 106.224781 
L 248.762419 106.257303 
L 249.762419 106.330928 
L 250.762419 106.369493 
L 251.762419 106.404906 
L 252.762419 106.462546 
L 253.762419 106.532933 
L 254.762419 106.584897 
L 255.762419 106.643987 
L 256.762419 106.732308 
L 257.762419 106.778452 
L 258.762419 106.820863 
L 259.762419 106.851355 
L 260.762419 106.8774 
L 261.762419 106.8986 
L 262.762419 106.952902 
L 263.762419 106.980839 
L 264.762419 107.010563 
L 265.762419 107.035958 
L 266.762419 107.047158 
L 267.762419 107.057282 
L 268.762419 107.057078 
L 269.762419 107.047568 
L 270.762419 107.035914 
L 271.762419 107.004885 
L 272.762419 106.993717 
L 273.762419 106.9636 
L 274.762419 106.903823 
L 275.762419 106.866631 
L 276.762419 106.827535 
L 277.762419 106.785096 
L 278.762419 106.75233 
L 279.762419 106.684904 
L 280.762419 106.645778 
L 281.762419 106.603104 
L 282.762419 106.532523 
L 283.762419 106.496132 
L 284.762419 106.437729 
L 285.762419 106.326776 
L 286.762419 106.256118 
L 287.762419 106.143178 
L 288.762419 106.097405 
L 289.762419 106.036122 
L 290.762419 105.987623 
L 291.762419 105.9068 
L 292.762419 105.788281 
L 293.762419 105.71807 
L 294.762419 105.634808 
L 296.618831 105.601666 
" clip-path="url(#pa3a9b451e6)" style="fill: none; stroke: #1f77b4; stroke-opacity: 0.5; stroke-width: 0.2; stroke-linecap: square"/>
   <path d="M 244.762419 121.309972 
L 245.762419 121.341408 
L 246.762419 121.378349 
L 247.762419 121.476095 
L 248.762419 121.508617 
L 249.762419 121.582241 
L 250.762419 121.620807 
L 251.762419 121.65622 
L 252.762419 121.71386 
L 253.762419 121.784246 
L 254.762419 121.836211 
L 255.762419 121.8953 
L 256.762419 121.983621 
L 257.762419 122.029766 
L 258.762419 122.072176 
L 259.762419 122.102669 
L 260.762419 122.128714 
L 261.762419 122.149914 
L 262.762419 122.204215 
L 263.762419 122.232153 
L 264.762419 122.261877 
L 265.762419 122.287272 
L 266.762419 122.298472 
L 267.762419 122.308596 
L 268.762419 122.308392 
L 269.762419 122.298882 
L 270.762419 122.287228 
L 271.762419 122.256199 
L 272.762419 122.245031 
L 273.762419 122.214913 
L 274.762419 122.155137 
L 275.762419 122.117945 
L 276.762419 122.078849 
L 277.762419 122.036409 
L 278.762419 122.003644 
L 279.762419 121.936218 
L 280.762419 121.897092 
L 281.762419 121.854417 
L 282.762419 121.783837 
L 283.762419 121.747446 
L 284.762419 121.689043 
L 285.762419 121.57809 
L 286.762419 121.507432 
L 287.762419 121.394492 
L 288.762419 121.348719 
L 289.762419 121.287436 
L 290.762419 121.238936 
L 291.762419 121.158114 
L 292.762419 121.039595 
L 293.762419 120.969384 
L 294.762419 120.886122 
L 296.618831 120.85298 
" clip-path="url(#pa3a9b451e6)" style="fill: none; stroke: #1f77b4; stroke-opacity: 0.5; stroke-width: 0.2; stroke-linecap: square"/>
   <path d="M 244.762419 110.83852 
L 245.762419 110.869956 
L 246.762419 110.906896 
L 247.762419 111.004643 
L 248.762419 111.037165 
L 249.762419 111.110789 
L 250.762419 111.149355 
L 251.762419 111.184768 
L 252.762419 111.242408 
L 253.762419 111.312794 
L 254.762419 111.364758 
L 255.762419 111.423848 
L 256.762419 111.512169 
L 257.762419 111.558313 
L 258.762419 111.600724 
L 259.762419 111.631217 
L 260.762419 111.657262 
L 261.762419 111.678462 
L 262.762419 111.732763 
L 263.762419 111.760701 
L 264.762419 111.790425 
L 265.762419 111.815819 
L 266.762419 111.82702 
L 267.762419 111.837144 
L 268.762419 111.83694 
L 269.762419 111.82743 
L 270.762419 111.815776 
L 271.762419 111.784747 
L 272.762419 111.773579 
L 273.762419 111.743461 
L 274.762419 111.683684 
L 275.762419 111.646493 
L 276.762419 111.607397 
L 277.762419 111.564957 
L 278.762419 111.532192 
L 279.762419 111.464766 
L 280.762419 111.42564 
L 281.762419 111.382965 
L 282.762419 111.312385 
L 283.762419 111.275994 
L 284.762419 111.21759 
L 285.762419 111.106638 
L 286.762419 111.03598 
L 287.762419 110.92304 
L 288.762419 110.877267 
L 289.762419 110.815984 
L 290.762419 110.767484 
L 291.762419 110.686662 
L 292.762419 110.568143 
L 293.762419 110.497932 
L 294.762419 110.41467 
L 296.618831 110.381528 
" clip-path="url(#pa3a9b451e6)" style="fill: none; stroke: #1f77b4; stroke-opacity: 0.5; stroke-width: 0.2; stroke-linecap: square"/>
   <path d="M 244.762419 107.970718 
L 245.762419 108.002154 
L 246.762419 108.039094 
L 247.762419 108.136841 
L 248.762419 108.169363 
L 249.762419 108.242987 
L 250.762419 108.281553 
L 251.762419 108.316966 
L 252.762419 108.374606 
L 253.762419 108.444992 
L 254.762419 108.496956 
L 255.762419 108.556046 
L 256.762419 108.644367 
L 257.762419 108.690511 
L 258.762419 108.732922 
L 259.762419 108.763415 
L 260.762419 108.78946 
L 261.762419 108.81066 
L 262.762419 108.864961 
L 263.762419 108.892899 
L 264.762419 108.922623 
L 265.762419 108.948017 
L 266.762419 108.959218 
L 267.762419 108.969342 
L 268.762419 108.969137 
L 269.762419 108.959628 
L 270.762419 108.947974 
L 271.762419 108.916945 
L 272.762419 108.905777 
L 273.762419 108.875659 
L 274.762419 108.815882 
L 275.762419 108.778691 
L 276.762419 108.739595 
L 277.762419 108.697155 
L 278.762419 108.66439 
L 279.762419 108.596964 
L 280.762419 108.557838 
L 281.762419 108.515163 
L 282.762419 108.444582 
L 283.762419 108.408192 
L 284.762419 108.349788 
L 285.762419 108.238836 
L 286.762419 108.168178 
L 287.762419 108.055238 
L 288.762419 108.009465 
L 289.762419 107.948182 
L 290.762419 107.899682 
L 291.762419 107.81886 
L 292.762419 107.700341 
L 293.762419 107.63013 
L 294.762419 107.546868 
L 296.618831 107.513726 
" clip-path="url(#pa3a9b451e6)" style="fill: none; stroke: #1f77b4; stroke-opacity: 0.5; stroke-width: 0.2; stroke-linecap: square"/>
   <path d="M 244.762419 111.835628 
L 245.762419 111.867065 
L 246.762419 111.904005 
L 247.762419 112.001752 
L 248.762419 112.034273 
L 249.762419 112.107898 
L 250.762419 112.146464 
L 251.762419 112.181877 
L 252.762419 112.239517 
L 253.762419 112.309903 
L 254.762419 112.361867 
L 255.762419 112.420957 
L 256.762419 112.509278 
L 257.762419 112.555422 
L 258.762419 112.597833 
L 259.762419 112.628326 
L 260.762419 112.654371 
L 261.762419 112.675571 
L 262.762419 112.729872 
L 263.762419 112.757809 
L 264.762419 112.787533 
L 265.762419 112.812928 
L 266.762419 112.824129 
L 267.762419 112.834253 
L 268.762419 112.834048 
L 269.762419 112.824538 
L 270.762419 112.812885 
L 271.762419 112.781856 
L 272.762419 112.770688 
L 273.762419 112.74057 
L 274.762419 112.680793 
L 275.762419 112.643602 
L 276.762419 112.604506 
L 277.762419 112.562066 
L 278.762419 112.529301 
L 279.762419 112.461874 
L 280.762419 112.422748 
L 281.762419 112.380074 
L 282.762419 112.309493 
L 283.762419 112.273102 
L 284.762419 112.214699 
L 285.762419 112.103747 
L 286.762419 112.033088 
L 287.762419 111.920149 
L 288.762419 111.874376 
L 289.762419 111.813092 
L 290.762419 111.764593 
L 291.762419 111.68377 
L 292.762419 111.565251 
L 293.762419 111.495041 
L 294.762419 111.411778 
L 296.618831 111.378637 
" clip-path="url(#pa3a9b451e6)" style="fill: none; stroke: #1f77b4; stroke-opacity: 0.5; stroke-width: 0.2; stroke-linecap: square"/>
   <path d="M 244.762419 89.375799 
L 245.762419 89.407235 
L 246.762419 89.444176 
L 247.762419 89.541922 
L 248.762419 89.574444 
L 249.762419 89.648069 
L 250.762419 89.686634 
L 251.762419 89.722047 
L 252.762419 89.779687 
L 253.762419 89.850073 
L 254.762419 89.902038 
L 255.762419 89.961127 
L 256.762419 90.049448 
L 257.762419 90.095593 
L 258.762419 90.138004 
L 259.762419 90.168496 
L 260.762419 90.194541 
L 261.762419 90.215741 
L 262.762419 90.270042 
L 263.762419 90.29798 
L 264.762419 90.327704 
L 265.762419 90.353099 
L 266.762419 90.364299 
L 267.762419 90.374423 
L 268.762419 90.374219 
L 269.762419 90.364709 
L 270.762419 90.353055 
L 271.762419 90.322026 
L 272.762419 90.310858 
L 273.762419 90.280741 
L 274.762419 90.220964 
L 275.762419 90.183772 
L 276.762419 90.144676 
L 277.762419 90.102236 
L 278.762419 90.069471 
L 279.762419 90.002045 
L 280.762419 89.962919 
L 281.762419 89.920244 
L 282.762419 89.849664 
L 283.762419 89.813273 
L 284.762419 89.75487 
L 285.762419 89.643917 
L 286.762419 89.573259 
L 287.762419 89.460319 
L 288.762419 89.414546 
L 289.762419 89.353263 
L 290.762419 89.304764 
L 291.762419 89.223941 
L 292.762419 89.105422 
L 293.762419 89.035211 
L 294.762419 88.951949 
L 296.618831 88.918807 
" clip-path="url(#pa3a9b451e6)" style="fill: none; stroke: #1f77b4; stroke-opacity: 0.5; stroke-width: 0.2; stroke-linecap: square"/>
   <path d="M 244.762419 253.720512 
L 245.762419 253.751948 
L 246.762419 253.788888 
L 247.762419 253.886635 
L 248.762419 253.919157 
L 249.762419 253.992781 
L 250.762419 254.031347 
L 251.762419 254.06676 
L 252.762419 254.1244 
L 253.762419 254.194786 
L 254.762419 254.24675 
L 255.762419 254.30584 
L 256.762419 254.394161 
L 257.762419 254.440305 
L 258.762419 254.482716 
L 259.762419 254.513209 
L 260.762419 254.539254 
L 261.762419 254.560454 
L 262.762419 254.614755 
L 263.762419 254.642693 
L 264.762419 254.672417 
L 265.762419 254.697811 
L 266.762419 254.709012 
L 267.762419 254.719136 
L 268.762419 254.718931 
L 269.762419 254.709422 
L 270.762419 254.697768 
L 271.762419 254.666739 
L 272.762419 254.655571 
L 273.762419 254.625453 
L 274.762419 254.565676 
L 275.762419 254.528485 
L 276.762419 254.489389 
L 277.762419 254.446949 
L 278.762419 254.414184 
L 279.762419 254.346758 
L 280.762419 254.307632 
L 281.762419 254.264957 
L 282.762419 254.194376 
L 283.762419 254.157986 
L 284.762419 254.099582 
L 285.762419 253.98863 
L 286.762419 253.917972 
L 287.762419 253.805032 
L 288.762419 253.759259 
L 289.762419 253.697976 
L 290.762419 253.649476 
L 291.762419 253.568654 
L 292.762419 253.450135 
L 293.762419 253.379924 
L 294.762419 253.296662 
L 296.618831 253.26352 
" clip-path="url(#pa3a9b451e6)" style="fill: none; stroke: #1f77b4; stroke-opacity: 0.5; stroke-width: 0.2; stroke-linecap: square"/>
   <path d="M 244.762419 181.751248 
L 245.762419 181.782685 
L 246.762419 181.819625 
L 247.762419 181.917372 
L 248.762419 181.949893 
L 249.762419 182.023518 
L 250.762419 182.062084 
L 251.762419 182.097497 
L 252.762419 182.155137 
L 253.762419 182.225523 
L 254.762419 182.277487 
L 255.762419 182.336577 
L 256.762419 182.424898 
L 257.762419 182.471042 
L 258.762419 182.513453 
L 259.762419 182.543946 
L 260.762419 182.569991 
L 261.762419 182.591191 
L 262.762419 182.645492 
L 263.762419 182.673429 
L 264.762419 182.703153 
L 265.762419 182.728548 
L 266.762419 182.739749 
L 267.762419 182.749873 
L 268.762419 182.749668 
L 269.762419 182.740158 
L 270.762419 182.728505 
L 271.762419 182.697476 
L 272.762419 182.686308 
L 273.762419 182.65619 
L 274.762419 182.596413 
L 275.762419 182.559222 
L 276.762419 182.520126 
L 277.762419 182.477686 
L 278.762419 182.444921 
L 279.762419 182.377494 
L 280.762419 182.338368 
L 281.762419 182.295694 
L 282.762419 182.225113 
L 283.762419 182.188722 
L 284.762419 182.130319 
L 285.762419 182.019367 
L 286.762419 181.948708 
L 287.762419 181.835768 
L 288.762419 181.789996 
L 289.762419 181.728712 
L 290.762419 181.680213 
L 291.762419 181.59939 
L 292.762419 181.480871 
L 293.762419 181.410661 
L 294.762419 181.327398 
L 296.618831 181.294257 
" clip-path="url(#pa3a9b451e6)" style="fill: none; stroke: #1f77b4; stroke-opacity: 0.5; stroke-width: 0.2; stroke-linecap: square"/>
   <path d="M 244.762419 200.101018 
L 245.762419 200.132455 
L 246.762419 200.169395 
L 247.762419 200.267142 
L 248.762419 200.299663 
L 249.762419 200.373288 
L 250.762419 200.411854 
L 251.762419 200.447267 
L 252.762419 200.504907 
L 253.762419 200.575293 
L 254.762419 200.627257 
L 255.762419 200.686347 
L 256.762419 200.774668 
L 257.762419 200.820812 
L 258.762419 200.863223 
L 259.762419 200.893716 
L 260.762419 200.919761 
L 261.762419 200.940961 
L 262.762419 200.995262 
L 263.762419 201.023199 
L 264.762419 201.052923 
L 265.762419 201.078318 
L 266.762419 201.089519 
L 267.762419 201.099643 
L 268.762419 201.099438 
L 269.762419 201.089928 
L 270.762419 201.078275 
L 271.762419 201.047246 
L 272.762419 201.036078 
L 273.762419 201.00596 
L 274.762419 200.946183 
L 275.762419 200.908992 
L 276.762419 200.869896 
L 277.762419 200.827456 
L 278.762419 200.794691 
L 279.762419 200.727264 
L 280.762419 200.688138 
L 281.762419 200.645464 
L 282.762419 200.574883 
L 283.762419 200.538492 
L 284.762419 200.480089 
L 285.762419 200.369137 
L 286.762419 200.298478 
L 287.762419 200.185539 
L 288.762419 200.139766 
L 289.762419 200.078482 
L 290.762419 200.029983 
L 291.762419 199.94916 
L 292.762419 199.830641 
L 293.762419 199.760431 
L 294.762419 199.677168 
L 296.618831 199.644027 
" clip-path="url(#pa3a9b451e6)" style="fill: none; stroke: #1f77b4; stroke-opacity: 0.5; stroke-width: 0.2; stroke-linecap: square"/>
   <path d="M 244.762419 243.051171 
L 245.762419 243.082608 
L 246.762419 243.119548 
L 247.762419 243.217295 
L 248.762419 243.249816 
L 249.762419 243.323441 
L 250.762419 243.362007 
L 251.762419 243.39742 
L 252.762419 243.45506 
L 253.762419 243.525446 
L 254.762419 243.57741 
L 255.762419 243.6365 
L 256.762419 243.724821 
L 257.762419 243.770965 
L 258.762419 243.813376 
L 259.762419 243.843869 
L 260.762419 243.869914 
L 261.762419 243.891114 
L 262.762419 243.945415 
L 263.762419 243.973352 
L 264.762419 244.003076 
L 265.762419 244.028471 
L 266.762419 244.039672 
L 267.762419 244.049796 
L 268.762419 244.049591 
L 269.762419 244.040081 
L 270.762419 244.028428 
L 271.762419 243.997399 
L 272.762419 243.986231 
L 273.762419 243.956113 
L 274.762419 243.896336 
L 275.762419 243.859145 
L 276.762419 243.820049 
L 277.762419 243.777609 
L 278.762419 243.744844 
L 279.762419 243.677417 
L 280.762419 243.638291 
L 281.762419 243.595617 
L 282.762419 243.525036 
L 283.762419 243.488645 
L 284.762419 243.430242 
L 285.762419 243.31929 
L 286.762419 243.248631 
L 287.762419 243.135692 
L 288.762419 243.089919 
L 289.762419 243.028635 
L 290.762419 242.980136 
L 291.762419 242.899313 
L 292.762419 242.780794 
L 293.762419 242.710584 
L 294.762419 242.627321 
L 296.618831 242.59418 
" clip-path="url(#pa3a9b451e6)" style="fill: none; stroke: #1f77b4; stroke-opacity: 0.5; stroke-width: 0.2; stroke-linecap: square"/>
   <path d="M 244.762419 176.755219 
L 245.762419 176.786656 
L 246.762419 176.823596 
L 247.762419 176.921343 
L 248.762419 176.953864 
L 249.762419 177.027489 
L 250.762419 177.066055 
L 251.762419 177.101468 
L 252.762419 177.159108 
L 253.762419 177.229494 
L 254.762419 177.281458 
L 255.762419 177.340548 
L 256.762419 177.428869 
L 257.762419 177.475013 
L 258.762419 177.517424 
L 259.762419 177.547917 
L 260.762419 177.573962 
L 261.762419 177.595162 
L 262.762419 177.649463 
L 263.762419 177.6774 
L 264.762419 177.707124 
L 265.762419 177.732519 
L 266.762419 177.74372 
L 267.762419 177.753844 
L 268.762419 177.753639 
L 269.762419 177.744129 
L 270.762419 177.732476 
L 271.762419 177.701447 
L 272.762419 177.690279 
L 273.762419 177.660161 
L 274.762419 177.600384 
L 275.762419 177.563193 
L 276.762419 177.524097 
L 277.762419 177.481657 
L 278.762419 177.448892 
L 279.762419 177.381465 
L 280.762419 177.342339 
L 281.762419 177.299665 
L 282.762419 177.229084 
L 283.762419 177.192693 
L 284.762419 177.13429 
L 285.762419 177.023338 
L 286.762419 176.952679 
L 287.762419 176.83974 
L 288.762419 176.793967 
L 289.762419 176.732683 
L 290.762419 176.684184 
L 291.762419 176.603361 
L 292.762419 176.484842 
L 293.762419 176.414632 
L 294.762419 176.331369 
L 296.618831 176.298228 
" clip-path="url(#pa3a9b451e6)" style="fill: none; stroke: #1f77b4; stroke-opacity: 0.5; stroke-width: 0.2; stroke-linecap: square"/>
   <path d="M 244.762419 190.753473 
L 245.762419 190.78491 
L 246.762419 190.82185 
L 247.762419 190.919597 
L 248.762419 190.952118 
L 249.762419 191.025743 
L 250.762419 191.064309 
L 251.762419 191.099722 
L 252.762419 191.157362 
L 253.762419 191.227748 
L 254.762419 191.279712 
L 255.762419 191.338802 
L 256.762419 191.427123 
L 257.762419 191.473267 
L 258.762419 191.515678 
L 259.762419 191.546171 
L 260.762419 191.572216 
L 261.762419 191.593416 
L 262.762419 191.647717 
L 263.762419 191.675654 
L 264.762419 191.705378 
L 265.762419 191.730773 
L 266.762419 191.741974 
L 267.762419 191.752098 
L 268.762419 191.751893 
L 269.762419 191.742383 
L 270.762419 191.73073 
L 271.762419 191.699701 
L 272.762419 191.688533 
L 273.762419 191.658415 
L 274.762419 191.598638 
L 275.762419 191.561447 
L 276.762419 191.522351 
L 277.762419 191.479911 
L 278.762419 191.447146 
L 279.762419 191.379719 
L 280.762419 191.340593 
L 281.762419 191.297919 
L 282.762419 191.227338 
L 283.762419 191.190947 
L 284.762419 191.132544 
L 285.762419 191.021592 
L 286.762419 190.950933 
L 287.762419 190.837993 
L 288.762419 190.792221 
L 289.762419 190.730937 
L 290.762419 190.682438 
L 291.762419 190.601615 
L 292.762419 190.483096 
L 293.762419 190.412886 
L 294.762419 190.329623 
L 296.618831 190.296482 
" clip-path="url(#pa3a9b451e6)" style="fill: none; stroke: #1f77b4; stroke-opacity: 0.5; stroke-width: 0.2; stroke-linecap: square"/>
   <path d="M 244.762419 226.654302 
L 245.762419 226.685739 
L 246.762419 226.722679 
L 247.762419 226.820426 
L 248.762419 226.852947 
L 249.762419 226.926572 
L 250.762419 226.965138 
L 251.762419 227.000551 
L 252.762419 227.058191 
L 253.762419 227.128577 
L 254.762419 227.180541 
L 255.762419 227.239631 
L 256.762419 227.327952 
L 257.762419 227.374096 
L 258.762419 227.416507 
L 259.762419 227.447 
L 260.762419 227.473045 
L 261.762419 227.494245 
L 262.762419 227.548546 
L 263.762419 227.576483 
L 264.762419 227.606207 
L 265.762419 227.631602 
L 266.762419 227.642803 
L 267.762419 227.652927 
L 268.762419 227.652722 
L 269.762419 227.643212 
L 270.762419 227.631559 
L 271.762419 227.600529 
L 272.762419 227.589362 
L 273.762419 227.559244 
L 274.762419 227.499467 
L 275.762419 227.462276 
L 276.762419 227.423179 
L 277.762419 227.38074 
L 278.762419 227.347975 
L 279.762419 227.280548 
L 280.762419 227.241422 
L 281.762419 227.198748 
L 282.762419 227.128167 
L 283.762419 227.091776 
L 284.762419 227.033373 
L 285.762419 226.922421 
L 286.762419 226.851762 
L 287.762419 226.738822 
L 288.762419 226.69305 
L 289.762419 226.631766 
L 290.762419 226.583267 
L 291.762419 226.502444 
L 292.762419 226.383925 
L 293.762419 226.313715 
L 294.762419 226.230452 
L 296.618831 226.19731 
" clip-path="url(#pa3a9b451e6)" style="fill: none; stroke: #1f77b4; stroke-opacity: 0.5; stroke-width: 0.2; stroke-linecap: square"/>
   <path d="M 244.762419 218.250154 
L 245.762419 218.28159 
L 246.762419 218.31853 
L 247.762419 218.416277 
L 248.762419 218.448799 
L 249.762419 218.522423 
L 250.762419 218.560989 
L 251.762419 218.596402 
L 252.762419 218.654042 
L 253.762419 218.724428 
L 254.762419 218.776392 
L 255.762419 218.835482 
L 256.762419 218.923803 
L 257.762419 218.969947 
L 258.762419 219.012358 
L 259.762419 219.042851 
L 260.762419 219.068896 
L 261.762419 219.090096 
L 262.762419 219.144397 
L 263.762419 219.172335 
L 264.762419 219.202059 
L 265.762419 219.227453 
L 266.762419 219.238654 
L 267.762419 219.248778 
L 268.762419 219.248573 
L 269.762419 219.239064 
L 270.762419 219.22741 
L 271.762419 219.196381 
L 272.762419 219.185213 
L 273.762419 219.155095 
L 274.762419 219.095318 
L 275.762419 219.058127 
L 276.762419 219.019031 
L 277.762419 218.976591 
L 278.762419 218.943826 
L 279.762419 218.876399 
L 280.762419 218.837274 
L 281.762419 218.794599 
L 282.762419 218.724018 
L 283.762419 218.687628 
L 284.762419 218.629224 
L 285.762419 218.518272 
L 286.762419 218.447613 
L 287.762419 218.334674 
L 288.762419 218.288901 
L 289.762419 218.227618 
L 290.762419 218.179118 
L 291.762419 218.098296 
L 292.762419 217.979777 
L 293.762419 217.909566 
L 294.762419 217.826304 
L 296.618831 217.793162 
" clip-path="url(#pa3a9b451e6)" style="fill: none; stroke: #1f77b4; stroke-opacity: 0.5; stroke-width: 0.2; stroke-linecap: square"/>
   <path d="M 244.762419 222.033847 
L 245.762419 222.065284 
L 246.762419 222.102224 
L 247.762419 222.199971 
L 248.762419 222.232492 
L 249.762419 222.306117 
L 250.762419 222.344683 
L 251.762419 222.380096 
L 252.762419 222.437736 
L 253.762419 222.508122 
L 254.762419 222.560086 
L 255.762419 222.619176 
L 256.762419 222.707497 
L 257.762419 222.753641 
L 258.762419 222.796052 
L 259.762419 222.826545 
L 260.762419 222.85259 
L 261.762419 222.87379 
L 262.762419 222.928091 
L 263.762419 222.956028 
L 264.762419 222.985752 
L 265.762419 223.011147 
L 266.762419 223.022348 
L 267.762419 223.032472 
L 268.762419 223.032267 
L 269.762419 223.022757 
L 270.762419 223.011104 
L 271.762419 222.980075 
L 272.762419 222.968907 
L 273.762419 222.938789 
L 274.762419 222.879012 
L 275.762419 222.841821 
L 276.762419 222.802725 
L 277.762419 222.760285 
L 278.762419 222.72752 
L 279.762419 222.660093 
L 280.762419 222.620967 
L 281.762419 222.578293 
L 282.762419 222.507712 
L 283.762419 222.471321 
L 284.762419 222.412918 
L 285.762419 222.301966 
L 286.762419 222.231307 
L 287.762419 222.118367 
L 288.762419 222.072595 
L 289.762419 222.011311 
L 290.762419 221.962812 
L 291.762419 221.881989 
L 292.762419 221.76347 
L 293.762419 221.69326 
L 294.762419 221.609997 
L 296.618831 221.576856 
" clip-path="url(#pa3a9b451e6)" style="fill: none; stroke: #1f77b4; stroke-opacity: 0.5; stroke-width: 0.2; stroke-linecap: square"/>
   <path d="M 244.762419 199.345373 
L 245.762419 199.376809 
L 246.762419 199.41375 
L 247.762419 199.511496 
L 248.762419 199.544018 
L 249.762419 199.617642 
L 250.762419 199.656208 
L 251.762419 199.691621 
L 252.762419 199.749261 
L 253.762419 199.819647 
L 254.762419 199.871612 
L 255.762419 199.930701 
L 256.762419 200.019022 
L 257.762419 200.065167 
L 258.762419 200.107578 
L 259.762419 200.13807 
L 260.762419 200.164115 
L 261.762419 200.185315 
L 262.762419 200.239616 
L 263.762419 200.267554 
L 264.762419 200.297278 
L 265.762419 200.322673 
L 266.762419 200.333873 
L 267.762419 200.343997 
L 268.762419 200.343793 
L 269.762419 200.334283 
L 270.762419 200.322629 
L 271.762419 200.2916 
L 272.762419 200.280432 
L 273.762419 200.250315 
L 274.762419 200.190538 
L 275.762419 200.153346 
L 276.762419 200.11425 
L 277.762419 200.07181 
L 278.762419 200.039045 
L 279.762419 199.971619 
L 280.762419 199.932493 
L 281.762419 199.889818 
L 282.762419 199.819238 
L 283.762419 199.782847 
L 284.762419 199.724444 
L 285.762419 199.613491 
L 286.762419 199.542833 
L 287.762419 199.429893 
L 288.762419 199.38412 
L 289.762419 199.322837 
L 290.762419 199.274338 
L 291.762419 199.193515 
L 292.762419 199.074996 
L 293.762419 199.004785 
L 294.762419 198.921523 
L 296.618831 198.888381 
" clip-path="url(#pa3a9b451e6)" style="fill: none; stroke: #1f77b4; stroke-opacity: 0.5; stroke-width: 0.2; stroke-linecap: square"/>
   <g id="patch_3">
    <path d="M 64.409375 22.318125 
L 64.409375 260.421875 
M 240.224232 22.318125 
L 240.224232 260.421875 
" clip-path="url(#pa3a9b451e6)" style="fill: none; stroke: #ffffff; stroke-width: 3; stroke-linejoin: miter"/>
    <path d="M 64.409375 22.318125 
L 64.409375 260.421875 
M 240.224232 22.318125 
L 240.224232 260.421875 
" clip-path="url(#pa3a9b451e6)" style="fill: none; stroke: #1f77b4; stroke-linejoin: miter"/>
    <g id="PolyCollection_1">
     <path d="M 240.224232 22.318125 
L 64.409375 22.318125 
L 64.409375 260.421875 
L 240.224232 260.421875 
L 240.224232 260.421875 
L 240.224232 22.318125 
z
" clip-path="url(#pa3a9b451e6)" style="fill: #1f77b4; fill-opacity: 0.5"/>
    </g>
    <g id="patch_4">
     <path d="M 301.157018 22.318125 
L 301.157018 260.421875 
M 476.971875 22.318125 
L 476.971875 260.421875 
" clip-path="url(#pa3a9b451e6)" style="fill: none; stroke: #ffffff; stroke-width: 3; stroke-linejoin: miter"/>
     <path d="M 301.157018 22.318125 
L 301.157018 260.421875 
M 476.971875 22.318125 
L 476.971875 260.421875 
" clip-path="url(#pa3a9b451e6)" style="fill: none; stroke: #ff7f0e; stroke-linejoin: miter"/>
     <g id="PolyCollection_2">
      <path d="M 476.971875 22.318125 
L 301.157018 22.318125 
L 301.157018 260.421875 
L 476.971875 260.421875 
L 476.971875 260.421875 
L 476.971875 22.318125 
z
" clip-path="url(#pa3a9b451e6)" style="fill: #ff7f0e; fill-opacity: 0.5"/>
     </g>
     <g id="matplotlib.axis_1">
      <g id="xtick_1">
       <g id="line2d_1"/>
       <g id="text_1">
        <!-- deme0 -->
        <g transform="translate(134.937897 271.520312)scale(0.1 -0.1)">
         <defs>
          <path id="DejaVuSans-64" d="M 2906 2969 
L 2906 4863 
L 3481 4863 
L 3481 0 
L 2906 0 
L 2906 525 
Q 2725 213 2448 61 
Q 2172 -91 1784 -91 
Q 1150 -91 751 415 
Q 353 922 353 1747 
Q 353 2572 751 3078 
Q 1150 3584 1784 3584 
Q 2172 3584 2448 3432 
Q 2725 3281 2906 2969 
z
M 947 1747 
Q 947 1113 1208 752 
Q 1469 391 1925 391 
Q 2381 391 2643 752 
Q 2906 1113 2906 1747 
Q 2906 2381 2643 2742 
Q 2381 3103 1925 3103 
Q 1469 3103 1208 2742 
Q 947 2381 947 1747 
z
" transform="scale(0.015625)"/>
          <path id="DejaVuSans-65" d="M 3597 1894 
L 3597 1613 
L 953 1613 
Q 991 1019 1311 708 
Q 1631 397 2203 397 
Q 2534 397 2845 478 
Q 3156 559 3463 722 
L 3463 178 
Q 3153 47 2828 -22 
Q 2503 -91 2169 -91 
Q 1331 -91 842 396 
Q 353 884 353 1716 
Q 353 2575 817 3079 
Q 1281 3584 2069 3584 
Q 2775 3584 3186 3129 
Q 3597 2675 3597 1894 
z
M 3022 2063 
Q 3016 2534 2758 2815 
Q 2500 3097 2075 3097 
Q 1594 3097 1305 2825 
Q 1016 2553 972 2059 
L 3022 2063 
z
" transform="scale(0.015625)"/>
          <path id="DejaVuSans-6d" d="M 3328 2828 
Q 3544 3216 3844 3400 
Q 4144 3584 4550 3584 
Q 5097 3584 5394 3201 
Q 5691 2819 5691 2113 
L 5691 0 
L 5113 0 
L 5113 2094 
Q 5113 2597 4934 2840 
Q 4756 3084 4391 3084 
Q 3944 3084 3684 2787 
Q 3425 2491 3425 1978 
L 3425 0 
L 2847 0 
L 2847 2094 
Q 2847 2600 2669 2842 
Q 2491 3084 2119 3084 
Q 1678 3084 1418 2786 
Q 1159 2488 1159 1978 
L 1159 0 
L 581 0 
L 581 3500 
L 1159 3500 
L 1159 2956 
Q 1356 3278 1631 3431 
Q 1906 3584 2284 3584 
Q 2666 3584 2933 3390 
Q 3200 3197 3328 2828 
z
" transform="scale(0.015625)"/>
          <path id="DejaVuSans-30" d="M 2034 4250 
Q 1547 4250 1301 3770 
Q 1056 3291 1056 2328 
Q 1056 1369 1301 889 
Q 1547 409 2034 409 
Q 2525 409 2770 889 
Q 3016 1369 3016 2328 
Q 3016 3291 2770 3770 
Q 2525 4250 2034 4250 
z
M 2034 4750 
Q 2819 4750 3233 4129 
Q 3647 3509 3647 2328 
Q 3647 1150 3233 529 
Q 2819 -91 2034 -91 
Q 1250 -91 836 529 
Q 422 1150 422 2328 
Q 422 3509 836 4129 
Q 1250 4750 2034 4750 
z
" transform="scale(0.015625)"/>
         </defs>
         <use xlink:href="#DejaVuSans-64"/>
         <use xlink:href="#DejaVuSans-65" x="63.476562"/>
         <use xlink:href="#DejaVuSans-6d" x="125"/>
         <use xlink:href="#DejaVuSans-65" x="222.412109"/>
         <use xlink:href="#DejaVuSans-30" x="283.935547"/>
        </g>
       </g>
      </g>
      <g id="xtick_2">
       <g id="line2d_2"/>
       <g id="text_2">
        <!-- deme1 -->
        <g transform="translate(371.68554 271.520312)scale(0.1 -0.1)">
         <defs>
          <path id="DejaVuSans-31" d="M 794 531 
L 1825 531 
L 1825 4091 
L 703 3866 
L 703 4441 
L 1819 4666 
L 2450 4666 
L 2450 531 
L 3481 531 
L 3481 0 
L 794 0 
L 794 531 
z
" transform="scale(0.015625)"/>
         </defs>
         <use xlink:href="#DejaVuSans-64"/>
         <use xlink:href="#DejaVuSans-65" x="63.476562"/>
         <use xlink:href="#DejaVuSans-6d" x="125"/>
         <use xlink:href="#DejaVuSans-65" x="222.412109"/>
         <use xlink:href="#DejaVuSans-31" x="283.935547"/>
        </g>
       </g>
      </g>
     </g>
     <g id="matplotlib.axis_2">
      <g id="ytick_1">
       <g id="line2d_3">
        <defs>
         <path id="m81969f0a2b" d="M 0 0 
L -3.5 0 
" style="stroke: #000000; stroke-width: 0.8"/>
        </defs>
        <g>
         <use xlink:href="#m81969f0a2b" x="43.78125" y="260.421875" style="stroke: #000000; stroke-width: 0.8"/>
        </g>
       </g>
       <g id="text_3">
        <!-- 0.0 -->
        <g transform="translate(20.878125 264.221094)scale(0.1 -0.1)">
         <defs>
          <path id="DejaVuSans-2e" d="M 684 794 
L 1344 794 
L 1344 0 
L 684 0 
L 684 794 
z
" transform="scale(0.015625)"/>
         </defs>
         <use xlink:href="#DejaVuSans-30"/>
         <use xlink:href="#DejaVuSans-2e" x="63.623047"/>
         <use xlink:href="#DejaVuSans-30" x="95.410156"/>
        </g>
       </g>
      </g>
      <g id="ytick_2">
       <g id="line2d_4">
        <g>
         <use xlink:href="#m81969f0a2b" x="43.78125" y="212.801125" style="stroke: #000000; stroke-width: 0.8"/>
        </g>
       </g>
       <g id="text_4">
        <!-- 0.5 -->
        <g transform="translate(20.878125 216.600344)scale(0.1 -0.1)">
         <defs>
          <path id="DejaVuSans-35" d="M 691 4666 
L 3169 4666 
L 3169 4134 
L 1269 4134 
L 1269 2991 
Q 1406 3038 1543 3061 
Q 1681 3084 1819 3084 
Q 2600 3084 3056 2656 
Q 3513 2228 3513 1497 
Q 3513 744 3044 326 
Q 2575 -91 1722 -91 
Q 1428 -91 1123 -41 
Q 819 9 494 109 
L 494 744 
Q 775 591 1075 516 
Q 1375 441 1709 441 
Q 2250 441 2565 725 
Q 2881 1009 2881 1497 
Q 2881 1984 2565 2268 
Q 2250 2553 1709 2553 
Q 1456 2553 1204 2497 
Q 953 2441 691 2322 
L 691 4666 
z
" transform="scale(0.015625)"/>
         </defs>
         <use xlink:href="#DejaVuSans-30"/>
         <use xlink:href="#DejaVuSans-2e" x="63.623047"/>
         <use xlink:href="#DejaVuSans-35" x="95.410156"/>
        </g>
       </g>
      </g>
      <g id="ytick_3">
       <g id="line2d_5">
        <g>
         <use xlink:href="#m81969f0a2b" x="43.78125" y="165.180375" style="stroke: #000000; stroke-width: 0.8"/>
        </g>
       </g>
       <g id="text_5">
        <!-- 1.0 -->
        <g transform="translate(20.878125 168.979594)scale(0.1 -0.1)">
         <use xlink:href="#DejaVuSans-31"/>
         <use xlink:href="#DejaVuSans-2e" x="63.623047"/>
         <use xlink:href="#DejaVuSans-30" x="95.410156"/>
        </g>
       </g>
      </g>
      <g id="ytick_4">
       <g id="line2d_6">
        <g>
         <use xlink:href="#m81969f0a2b" x="43.78125" y="117.559625" style="stroke: #000000; stroke-width: 0.8"/>
        </g>
       </g>
       <g id="text_6">
        <!-- 1.5 -->
        <g transform="translate(20.878125 121.358844)scale(0.1 -0.1)">
         <use xlink:href="#DejaVuSans-31"/>
         <use xlink:href="#DejaVuSans-2e" x="63.623047"/>
         <use xlink:href="#DejaVuSans-35" x="95.410156"/>
        </g>
       </g>
      </g>
      <g id="ytick_5">
       <g id="line2d_7">
        <g>
         <use xlink:href="#m81969f0a2b" x="43.78125" y="69.938875" style="stroke: #000000; stroke-width: 0.8"/>
        </g>
       </g>
       <g id="text_7">
        <!-- 2.0 -->
        <g transform="translate(20.878125 73.738094)scale(0.1 -0.1)">
         <defs>
          <path id="DejaVuSans-32" d="M 1228 531 
L 3431 531 
L 3431 0 
L 469 0 
L 469 531 
Q 828 903 1448 1529 
Q 2069 2156 2228 2338 
Q 2531 2678 2651 2914 
Q 2772 3150 2772 3378 
Q 2772 3750 2511 3984 
Q 2250 4219 1831 4219 
Q 1534 4219 1204 4116 
Q 875 4013 500 3803 
L 500 4441 
Q 881 4594 1212 4672 
Q 1544 4750 1819 4750 
Q 2544 4750 2975 4387 
Q 3406 4025 3406 3419 
Q 3406 3131 3298 2873 
Q 3191 2616 2906 2266 
Q 2828 2175 2409 1742 
Q 1991 1309 1228 531 
z
" transform="scale(0.015625)"/>
         </defs>
         <use xlink:href="#DejaVuSans-32"/>
         <use xlink:href="#DejaVuSans-2e" x="63.623047"/>
         <use xlink:href="#DejaVuSans-30" x="95.410156"/>
        </g>
       </g>
      </g>
      <g id="ytick_6">
       <g id="line2d_8">
        <g>
         <use xlink:href="#m81969f0a2b" x="43.78125" y="22.318125" style="stroke: #000000; stroke-width: 0.8"/>
        </g>
       </g>
       <g id="text_8">
        <!-- 2.5 -->
        <g transform="translate(20.878125 26.117344)scale(0.1 -0.1)">
         <use xlink:href="#DejaVuSans-32"/>
         <use xlink:href="#DejaVuSans-2e" x="63.623047"/>
         <use xlink:href="#DejaVuSans-35" x="95.410156"/>
        </g>
       </g>
      </g>
      <g id="text_9">
       <!-- time ago (generations) -->
       <g transform="translate(14.798438 198.841094)rotate(-90)scale(0.1 -0.1)">
        <defs>
         <path id="DejaVuSans-74" d="M 1172 4494 
L 1172 3500 
L 2356 3500 
L 2356 3053 
L 1172 3053 
L 1172 1153 
Q 1172 725 1289 603 
Q 1406 481 1766 481 
L 2356 481 
L 2356 0 
L 1766 0 
Q 1100 0 847 248 
Q 594 497 594 1153 
L 594 3053 
L 172 3053 
L 172 3500 
L 594 3500 
L 594 4494 
L 1172 4494 
z
" transform="scale(0.015625)"/>
         <path id="DejaVuSans-69" d="M 603 3500 
L 1178 3500 
L 1178 0 
L 603 0 
L 603 3500 
z
M 603 4863 
L 1178 4863 
L 1178 4134 
L 603 4134 
L 603 4863 
z
" transform="scale(0.015625)"/>
         <path id="DejaVuSans-20" transform="scale(0.015625)"/>
         <path id="DejaVuSans-61" d="M 2194 1759 
Q 1497 1759 1228 1600 
Q 959 1441 959 1056 
Q 959 750 1161 570 
Q 1363 391 1709 391 
Q 2188 391 2477 730 
Q 2766 1069 2766 1631 
L 2766 1759 
L 2194 1759 
z
M 3341 1997 
L 3341 0 
L 2766 0 
L 2766 531 
Q 2569 213 2275 61 
Q 1981 -91 1556 -91 
Q 1019 -91 701 211 
Q 384 513 384 1019 
Q 384 1609 779 1909 
Q 1175 2209 1959 2209 
L 2766 2209 
L 2766 2266 
Q 2766 2663 2505 2880 
Q 2244 3097 1772 3097 
Q 1472 3097 1187 3025 
Q 903 2953 641 2809 
L 641 3341 
Q 956 3463 1253 3523 
Q 1550 3584 1831 3584 
Q 2591 3584 2966 3190 
Q 3341 2797 3341 1997 
z
" transform="scale(0.015625)"/>
         <path id="DejaVuSans-67" d="M 2906 1791 
Q 2906 2416 2648 2759 
Q 2391 3103 1925 3103 
Q 1463 3103 1205 2759 
Q 947 2416 947 1791 
Q 947 1169 1205 825 
Q 1463 481 1925 481 
Q 2391 481 2648 825 
Q 2906 1169 2906 1791 
z
M 3481 434 
Q 3481 -459 3084 -895 
Q 2688 -1331 1869 -1331 
Q 1566 -1331 1297 -1286 
Q 1028 -1241 775 -1147 
L 775 -588 
Q 1028 -725 1275 -790 
Q 1522 -856 1778 -856 
Q 2344 -856 2625 -561 
Q 2906 -266 2906 331 
L 2906 616 
Q 2728 306 2450 153 
Q 2172 0 1784 0 
Q 1141 0 747 490 
Q 353 981 353 1791 
Q 353 2603 747 3093 
Q 1141 3584 1784 3584 
Q 2172 3584 2450 3431 
Q 2728 3278 2906 2969 
L 2906 3500 
L 3481 3500 
L 3481 434 
z
" transform="scale(0.015625)"/>
         <path id="DejaVuSans-6f" d="M 1959 3097 
Q 1497 3097 1228 2736 
Q 959 2375 959 1747 
Q 959 1119 1226 758 
Q 1494 397 1959 397 
Q 2419 397 2687 759 
Q 2956 1122 2956 1747 
Q 2956 2369 2687 2733 
Q 2419 3097 1959 3097 
z
M 1959 3584 
Q 2709 3584 3137 3096 
Q 3566 2609 3566 1747 
Q 3566 888 3137 398 
Q 2709 -91 1959 -91 
Q 1206 -91 779 398 
Q 353 888 353 1747 
Q 353 2609 779 3096 
Q 1206 3584 1959 3584 
z
" transform="scale(0.015625)"/>
         <path id="DejaVuSans-28" d="M 1984 4856 
Q 1566 4138 1362 3434 
Q 1159 2731 1159 2009 
Q 1159 1288 1364 580 
Q 1569 -128 1984 -844 
L 1484 -844 
Q 1016 -109 783 600 
Q 550 1309 550 2009 
Q 550 2706 781 3412 
Q 1013 4119 1484 4856 
L 1984 4856 
z
" transform="scale(0.015625)"/>
         <path id="DejaVuSans-6e" d="M 3513 2113 
L 3513 0 
L 2938 0 
L 2938 2094 
Q 2938 2591 2744 2837 
Q 2550 3084 2163 3084 
Q 1697 3084 1428 2787 
Q 1159 2491 1159 1978 
L 1159 0 
L 581 0 
L 581 3500 
L 1159 3500 
L 1159 2956 
Q 1366 3272 1645 3428 
Q 1925 3584 2291 3584 
Q 2894 3584 3203 3211 
Q 3513 2838 3513 2113 
z
" transform="scale(0.015625)"/>
         <path id="DejaVuSans-72" d="M 2631 2963 
Q 2534 3019 2420 3045 
Q 2306 3072 2169 3072 
Q 1681 3072 1420 2755 
Q 1159 2438 1159 1844 
L 1159 0 
L 581 0 
L 581 3500 
L 1159 3500 
L 1159 2956 
Q 1341 3275 1631 3429 
Q 1922 3584 2338 3584 
Q 2397 3584 2469 3576 
Q 2541 3569 2628 3553 
L 2631 2963 
z
" transform="scale(0.015625)"/>
         <path id="DejaVuSans-73" d="M 2834 3397 
L 2834 2853 
Q 2591 2978 2328 3040 
Q 2066 3103 1784 3103 
Q 1356 3103 1142 2972 
Q 928 2841 928 2578 
Q 928 2378 1081 2264 
Q 1234 2150 1697 2047 
L 1894 2003 
Q 2506 1872 2764 1633 
Q 3022 1394 3022 966 
Q 3022 478 2636 193 
Q 2250 -91 1575 -91 
Q 1294 -91 989 -36 
Q 684 19 347 128 
L 347 722 
Q 666 556 975 473 
Q 1284 391 1588 391 
Q 1994 391 2212 530 
Q 2431 669 2431 922 
Q 2431 1156 2273 1281 
Q 2116 1406 1581 1522 
L 1381 1569 
Q 847 1681 609 1914 
Q 372 2147 372 2553 
Q 372 3047 722 3315 
Q 1072 3584 1716 3584 
Q 2034 3584 2315 3537 
Q 2597 3491 2834 3397 
z
" transform="scale(0.015625)"/>
         <path id="DejaVuSans-29" d="M 513 4856 
L 1013 4856 
Q 1481 4119 1714 3412 
Q 1947 2706 1947 2009 
Q 1947 1309 1714 600 
Q 1481 -109 1013 -844 
L 513 -844 
Q 928 -128 1133 580 
Q 1338 1288 1338 2009 
Q 1338 2731 1133 3434 
Q 928 4138 513 4856 
z
" transform="scale(0.015625)"/>
        </defs>
        <use xlink:href="#DejaVuSans-74"/>
        <use xlink:href="#DejaVuSans-69" x="39.208984"/>
        <use xlink:href="#DejaVuSans-6d" x="66.992188"/>
        <use xlink:href="#DejaVuSans-65" x="164.404297"/>
        <use xlink:href="#DejaVuSans-20" x="225.927734"/>
        <use xlink:href="#DejaVuSans-61" x="257.714844"/>
        <use xlink:href="#DejaVuSans-67" x="318.994141"/>
        <use xlink:href="#DejaVuSans-6f" x="382.470703"/>
        <use xlink:href="#DejaVuSans-20" x="443.652344"/>
        <use xlink:href="#DejaVuSans-28" x="475.439453"/>
        <use xlink:href="#DejaVuSans-67" x="514.453125"/>
        <use xlink:href="#DejaVuSans-65" x="577.929688"/>
        <use xlink:href="#DejaVuSans-6e" x="639.453125"/>
        <use xlink:href="#DejaVuSans-65" x="702.832031"/>
        <use xlink:href="#DejaVuSans-72" x="764.355469"/>
        <use xlink:href="#DejaVuSans-61" x="805.46875"/>
        <use xlink:href="#DejaVuSans-74" x="866.748047"/>
        <use xlink:href="#DejaVuSans-69" x="905.957031"/>
        <use xlink:href="#DejaVuSans-6f" x="933.740234"/>
        <use xlink:href="#DejaVuSans-6e" x="994.921875"/>
        <use xlink:href="#DejaVuSans-73" x="1058.300781"/>
        <use xlink:href="#DejaVuSans-29" x="1110.400391"/>
       </g>
      </g>
     </g>
     <path d="M 297.618831 99.004878 
L 295.618831 98.004878 
L 295.618831 100.004878 
z
" clip-path="url(#pa3a9b451e6)" style="fill: #1f77b4; fill-opacity: 0.5; stroke: #1f77b4; stroke-opacity: 0.5; stroke-linejoin: miter"/>
     <path d="M 297.618831 117.411135 
L 295.618831 116.411135 
L 295.618831 118.411135 
z
" clip-path="url(#pa3a9b451e6)" style="fill: #1f77b4; fill-opacity: 0.5; stroke: #1f77b4; stroke-opacity: 0.5; stroke-linejoin: miter"/>
     <path d="M 297.618831 148.555683 
L 295.618831 147.555683 
L 295.618831 149.555683 
z
" clip-path="url(#pa3a9b451e6)" style="fill: #1f77b4; fill-opacity: 0.5; stroke: #1f77b4; stroke-opacity: 0.5; stroke-linejoin: miter"/>
     <path d="M 297.618831 122.301803 
L 295.618831 121.301803 
L 295.618831 123.301803 
z
" clip-path="url(#pa3a9b451e6)" style="fill: #1f77b4; fill-opacity: 0.5; stroke: #1f77b4; stroke-opacity: 0.5; stroke-linejoin: miter"/>
     <path d="M 297.618831 106.058658 
L 295.618831 105.058658 
L 295.618831 107.058658 
z
" clip-path="url(#pa3a9b451e6)" style="fill: #1f77b4; fill-opacity: 0.5; stroke: #1f77b4; stroke-opacity: 0.5; stroke-linejoin: miter"/>
     <path d="M 297.618831 121.309972 
L 295.618831 120.309972 
L 295.618831 122.309972 
z
" clip-path="url(#pa3a9b451e6)" style="fill: #1f77b4; fill-opacity: 0.5; stroke: #1f77b4; stroke-opacity: 0.5; stroke-linejoin: miter"/>
     <path d="M 297.618831 110.83852 
L 295.618831 109.83852 
L 295.618831 111.83852 
z
" clip-path="url(#pa3a9b451e6)" style="fill: #1f77b4; fill-opacity: 0.5; stroke: #1f77b4; stroke-opacity: 0.5; stroke-linejoin: miter"/>
     <path d="M 297.618831 107.970718 
L 295.618831 106.970718 
L 295.618831 108.970718 
z
" clip-path="url(#pa3a9b451e6)" style="fill: #1f77b4; fill-opacity: 0.5; stroke: #1f77b4; stroke-opacity: 0.5; stroke-linejoin: miter"/>
     <path d="M 297.618831 111.835628 
L 295.618831 110.835628 
L 295.618831 112.835628 
z
" clip-path="url(#pa3a9b451e6)" style="fill: #1f77b4; fill-opacity: 0.5; stroke: #1f77b4; stroke-opacity: 0.5; stroke-linejoin: miter"/>
     <path d="M 297.618831 89.375799 
L 295.618831 88.375799 
L 295.618831 90.375799 
z
" clip-path="url(#pa3a9b451e6)" style="fill: #1f77b4; fill-opacity: 0.5; stroke: #1f77b4; stroke-opacity: 0.5; stroke-linejoin: miter"/>
     <path d="M 297.618831 253.720512 
L 295.618831 252.720512 
L 295.618831 254.720512 
z
" clip-path="url(#pa3a9b451e6)" style="fill: #1f77b4; fill-opacity: 0.5; stroke: #1f77b4; stroke-opacity: 0.5; stroke-linejoin: miter"/>
     <path d="M 297.618831 181.751248 
L 295.618831 180.751248 
L 295.618831 182.751248 
z
" clip-path="url(#pa3a9b451e6)" style="fill: #1f77b4; fill-opacity: 0.5; stroke: #1f77b4; stroke-opacity: 0.5; stroke-linejoin: miter"/>
     <path d="M 297.618831 200.101018 
L 295.618831 199.101018 
L 295.618831 201.101018 
z
" clip-path="url(#pa3a9b451e6)" style="fill: #1f77b4; fill-opacity: 0.5; stroke: #1f77b4; stroke-opacity: 0.5; stroke-linejoin: miter"/>
     <path d="M 297.618831 243.051171 
L 295.618831 242.051171 
L 295.618831 244.051171 
z
" clip-path="url(#pa3a9b451e6)" style="fill: #1f77b4; fill-opacity: 0.5; stroke: #1f77b4; stroke-opacity: 0.5; stroke-linejoin: miter"/>
     <path d="M 297.618831 176.755219 
L 295.618831 175.755219 
L 295.618831 177.755219 
z
" clip-path="url(#pa3a9b451e6)" style="fill: #1f77b4; fill-opacity: 0.5; stroke: #1f77b4; stroke-opacity: 0.5; stroke-linejoin: miter"/>
     <path d="M 297.618831 190.753473 
L 295.618831 189.753473 
L 295.618831 191.753473 
z
" clip-path="url(#pa3a9b451e6)" style="fill: #1f77b4; fill-opacity: 0.5; stroke: #1f77b4; stroke-opacity: 0.5; stroke-linejoin: miter"/>
     <path d="M 297.618831 226.654302 
L 295.618831 225.654302 
L 295.618831 227.654302 
z
" clip-path="url(#pa3a9b451e6)" style="fill: #1f77b4; fill-opacity: 0.5; stroke: #1f77b4; stroke-opacity: 0.5; stroke-linejoin: miter"/>
     <path d="M 297.618831 218.250154 
L 295.618831 217.250154 
L 295.618831 219.250154 
z
" clip-path="url(#pa3a9b451e6)" style="fill: #1f77b4; fill-opacity: 0.5; stroke: #1f77b4; stroke-opacity: 0.5; stroke-linejoin: miter"/>
     <path d="M 297.618831 222.033847 
L 295.618831 221.033847 
L 295.618831 223.033847 
z
" clip-path="url(#pa3a9b451e6)" style="fill: #1f77b4; fill-opacity: 0.5; stroke: #1f77b4; stroke-opacity: 0.5; stroke-linejoin: miter"/>
     <path d="M 297.618831 199.345373 
L 295.618831 198.345373 
L 295.618831 200.345373 
z
" clip-path="url(#pa3a9b451e6)" style="fill: #1f77b4; fill-opacity: 0.5; stroke: #1f77b4; stroke-opacity: 0.5; stroke-linejoin: miter"/>
     <g id="patch_5">
      <path d="M 43.78125 260.421875 
L 43.78125 22.318125 
" style="fill: none; stroke: #000000; stroke-width: 0.8; stroke-linejoin: miter; stroke-linecap: square"/>
     </g>
     <g id="text_10">
      <!-- defaults_asymmetric_migration_changing_rate.yaml -->
      <g transform="translate(113.475625 16.318125)scale(0.12 -0.12)">
       <defs>
        <path id="DejaVuSans-66" d="M 2375 4863 
L 2375 4384 
L 1825 4384 
Q 1516 4384 1395 4259 
Q 1275 4134 1275 3809 
L 1275 3500 
L 2222 3500 
L 2222 3053 
L 1275 3053 
L 1275 0 
L 697 0 
L 697 3053 
L 147 3053 
L 147 3500 
L 697 3500 
L 697 3744 
Q 697 4328 969 4595 
Q 1241 4863 1831 4863 
L 2375 4863 
z
" transform="scale(0.015625)"/>
        <path id="DejaVuSans-75" d="M 544 1381 
L 544 3500 
L 1119 3500 
L 1119 1403 
Q 1119 906 1312 657 
Q 1506 409 1894 409 
Q 2359 409 2629 706 
Q 2900 1003 2900 1516 
L 2900 3500 
L 3475 3500 
L 3475 0 
L 2900 0 
L 2900 538 
Q 2691 219 2414 64 
Q 2138 -91 1772 -91 
Q 1169 -91 856 284 
Q 544 659 544 1381 
z
M 1991 3584 
L 1991 3584 
z
" transform="scale(0.015625)"/>
        <path id="DejaVuSans-6c" d="M 603 4863 
L 1178 4863 
L 1178 0 
L 603 0 
L 603 4863 
z
" transform="scale(0.015625)"/>
        <path id="DejaVuSans-5f" d="M 3263 -1063 
L 3263 -1509 
L -63 -1509 
L -63 -1063 
L 3263 -1063 
z
" transform="scale(0.015625)"/>
        <path id="DejaVuSans-79" d="M 2059 -325 
Q 1816 -950 1584 -1140 
Q 1353 -1331 966 -1331 
L 506 -1331 
L 506 -850 
L 844 -850 
Q 1081 -850 1212 -737 
Q 1344 -625 1503 -206 
L 1606 56 
L 191 3500 
L 800 3500 
L 1894 763 
L 2988 3500 
L 3597 3500 
L 2059 -325 
z
" transform="scale(0.015625)"/>
        <path id="DejaVuSans-63" d="M 3122 3366 
L 3122 2828 
Q 2878 2963 2633 3030 
Q 2388 3097 2138 3097 
Q 1578 3097 1268 2742 
Q 959 2388 959 1747 
Q 959 1106 1268 751 
Q 1578 397 2138 397 
Q 2388 397 2633 464 
Q 2878 531 3122 666 
L 3122 134 
Q 2881 22 2623 -34 
Q 2366 -91 2075 -91 
Q 1284 -91 818 406 
Q 353 903 353 1747 
Q 353 2603 823 3093 
Q 1294 3584 2113 3584 
Q 2378 3584 2631 3529 
Q 2884 3475 3122 3366 
z
" transform="scale(0.015625)"/>
        <path id="DejaVuSans-68" d="M 3513 2113 
L 3513 0 
L 2938 0 
L 2938 2094 
Q 2938 2591 2744 2837 
Q 2550 3084 2163 3084 
Q 1697 3084 1428 2787 
Q 1159 2491 1159 1978 
L 1159 0 
L 581 0 
L 581 4863 
L 1159 4863 
L 1159 2956 
Q 1366 3272 1645 3428 
Q 1925 3584 2291 3584 
Q 2894 3584 3203 3211 
Q 3513 2838 3513 2113 
z
" transform="scale(0.015625)"/>
       </defs>
       <use xlink:href="#DejaVuSans-64"/>
       <use xlink:href="#DejaVuSans-65" x="63.476562"/>
       <use xlink:href="#DejaVuSans-66" x="125"/>
       <use xlink:href="#DejaVuSans-61" x="160.205078"/>
       <use xlink:href="#DejaVuSans-75" x="221.484375"/>
       <use xlink:href="#DejaVuSans-6c" x="284.863281"/>
       <use xlink:href="#DejaVuSans-74" x="312.646484"/>
       <use xlink:href="#DejaVuSans-73" x="351.855469"/>
       <use xlink:href="#DejaVuSans-5f" x="403.955078"/>
       <use xlink:href="#DejaVuSans-61" x="453.955078"/>
       <use xlink:href="#DejaVuSans-73" x="515.234375"/>
       <use xlink:href="#DejaVuSans-79" x="567.333984"/>
       <use xlink:href="#DejaVuSans-6d" x="626.513672"/>
       <use xlink:href="#DejaVuSans-6d" x="723.925781"/>
       <use xlink:href="#DejaVuSans-65" x="821.337891"/>
       <use xlink:href="#DejaVuSans-74" x="882.861328"/>
       <use xlink:href="#DejaVuSans-72" x="922.070312"/>
       <use xlink:href="#DejaVuSans-69" x="963.183594"/>
       <use xlink:href="#DejaVuSans-63" x="990.966797"/>
       <use xlink:href="#DejaVuSans-5f" x="1045.947266"/>
       <use xlink:href="#DejaVuSans-6d" x="1095.947266"/>
       <use xlink:href="#DejaVuSans-69" x="1193.359375"/>
       <use xlink:href="#DejaVuSans-67" x="1221.142578"/>
       <use xlink:href="#DejaVuSans-72" x="1284.619141"/>
       <use xlink:href="#DejaVuSans-61" x="1325.732422"/>
       <use xlink:href="#DejaVuSans-74" x="1387.011719"/>
       <use xlink:href="#DejaVuSans-69" x="1426.220703"/>
       <use xlink:href="#DejaVuSans-6f" x="1454.003906"/>
       <use xlink:href="#DejaVuSans-6e" x="1515.185547"/>
       <use xlink:href="#DejaVuSans-5f" x="1578.564453"/>
       <use xlink:href="#DejaVuSans-63" x="1628.564453"/>
       <use xlink:href="#DejaVuSans-68" x="1683.544922"/>
       <use xlink:href="#DejaVuSans-61" x="1746.923828"/>
       <use xlink:href="#DejaVuSans-6e" x="1808.203125"/>
       <use xlink:href="#DejaVuSans-67" x="1871.582031"/>
       <use xlink:href="#DejaVuSans-69" x="1935.058594"/>
       <use xlink:href="#DejaVuSans-6e" x="1962.841797"/>
       <use xlink:href="#DejaVuSans-67" x="2026.220703"/>
       <use xlink:href="#DejaVuSans-5f" x="2089.697266"/>
       <use xlink:href="#DejaVuSans-72" x="2139.697266"/>
       <use xlink:href="#DejaVuSans-61" x="2180.810547"/>
       <use xlink:href="#DejaVuSans-74" x="2242.089844"/>
       <use xlink:href="#DejaVuSans-65" x="2281.298828"/>
       <use xlink:href="#DejaVuSans-2e" x="2342.822266"/>
       <use xlink:href="#DejaVuSans-79" x="2374.609375"/>
       <use xlink:href="#DejaVuSans-61" x="2433.789062"/>
       <use xlink:href="#DejaVuSans-6d" x="2495.068359"/>
       <use xlink:href="#DejaVuSans-6c" x="2592.480469"/>
      </g>
     </g>
    </g>
   </g>
   <defs>
    <clipPath id="pa3a9b451e6">
     <rect x="43.78125" y="22.318125" width="453.81875" height="238.10375"/>
    </clipPath>
   </defs>
  </g>
 </g>
</svg>
