<?xml version="1.0" encoding="utf-8" standalone="no"?>
<!DOCTYPE svg PUBLIC "-//W3C//DTD SVG 1.1//EN"
  "http://www.w3.org/Graphics/SVG/1.1/DTD/svg11.dtd">
<svg xmlns:xlink="http://www.w3.org/1999/xlink" width="607.2pt" height="338.4pt" viewBox="0 0 607.2 338.4" xmlns="http://www.w3.org/2000/svg" version="1.1">
 <metadata>
  <rdf:RDF xmlns:dc="http://purl.org/dc/elements/1.1/" xmlns:cc="http://creativecommons.org/ns#" xmlns:rdf="http://www.w3.org/1999/02/22-rdf-syntax-ns#">
   <cc:Work>
    <dc:type rdf:resource="http://purl.org/dc/dcmitype/StillImage"/>
    <dc:date>2022-10-31T08:30:26.753551</dc:date>
    <dc:format>image/svg+xml</dc:format>
    <dc:creator>
     <cc:Agent>
      <dc:title>Matplotlib v3.6.1, https://matplotlib.org/</dc:title>
     </cc:Agent>
    </dc:creator>
   </cc:Work>
  </rdf:RDF>
 </metadata>
 <defs>
  <style type="text/css">*{stroke-linejoin: round; stroke-linecap: butt}</style>
 </defs>
 <g id="figure_1">
  <g id="patch_1">
   <path d="M 0 338.4 
L 607.2 338.4 
L 607.2 0 
L 0 0 
z
" style="fill: #ffffff"/>
  </g>
  <g id="axes_1">
   <g id="patch_2">
    <path d="M 46.965625 318.021875 
L 600 318.021875 
L 600 22.318125 
L 46.965625 22.318125 
z
" style="fill: #ffffff"/>
   </g>
   <path d="M 200.299443 167.640484 
L 201.299443 167.671921 
L 202.299443 167.708861 
L 203.299443 167.806608 
L 204.299443 167.839129 
L 205.299443 167.912754 
L 206.299443 167.95132 
L 207.299443 167.986733 
L 208.299443 168.044373 
L 209.299443 168.114759 
L 210.299443 168.166723 
L 211.299443 168.225813 
L 212.299443 168.314134 
L 213.299443 168.360278 
L 214.299443 168.402689 
L 215.299443 168.433182 
L 216.299443 168.459227 
L 217.299443 168.480427 
L 218.299443 168.534728 
L 219.299443 168.562665 
L 220.299443 168.592389 
L 221.299443 168.617784 
L 222.299443 168.628985 
L 223.299443 168.639109 
L 224.299443 168.638904 
L 225.299443 168.629394 
L 226.299443 168.617741 
L 227.299443 168.586712 
L 228.299443 168.575544 
L 229.299443 168.545426 
L 230.299443 168.485649 
L 231.299443 168.448458 
L 232.299443 168.409362 
L 233.299443 168.366922 
L 234.299443 168.334157 
L 235.299443 168.26673 
L 236.299443 168.227604 
L 237.299443 168.18493 
L 238.299443 168.114349 
L 239.299443 168.077958 
L 240.299443 168.019555 
L 241.299443 167.908603 
L 242.299443 167.837944 
L 243.299443 167.725005 
L 244.299443 167.679232 
L 245.299443 167.617948 
L 246.299443 167.569449 
L 247.299443 167.488626 
L 248.299443 167.370107 
L 249.299443 167.299897 
L 250.299443 167.216634 
L 251.299443 167.183493 
L 252.299443 167.132255 
L 253.299443 167.063857 
L 254.299443 166.997641 
L 255.299443 166.920724 
L 256.619695 166.893409 
" clip-path="url(#pc6f87bca23)" style="fill: none; stroke: #1f77b4; stroke-opacity: 0.5; stroke-width: 0.2; stroke-linecap: square"/>
   <path d="M 200.299443 96.977275 
L 201.299443 97.008711 
L 202.299443 97.045651 
L 203.299443 97.143398 
L 204.299443 97.17592 
L 205.299443 97.249544 
L 206.299443 97.28811 
L 207.299443 97.323523 
L 208.299443 97.381163 
L 209.299443 97.451549 
L 210.299443 97.503513 
L 211.299443 97.562603 
L 212.299443 97.650924 
L 213.299443 97.697068 
L 214.299443 97.739479 
L 215.299443 97.769972 
L 216.299443 97.796017 
L 217.299443 97.817217 
L 218.299443 97.871518 
L 219.299443 97.899456 
L 220.299443 97.92918 
L 221.299443 97.954574 
L 222.299443 97.965775 
L 223.299443 97.975899 
L 224.299443 97.975694 
L 225.299443 97.966185 
L 226.299443 97.954531 
L 227.299443 97.923502 
L 228.299443 97.912334 
L 229.299443 97.882216 
L 230.299443 97.822439 
L 231.299443 97.785248 
L 232.299443 97.746152 
L 233.299443 97.703712 
L 234.299443 97.670947 
L 235.299443 97.603521 
L 236.299443 97.564395 
L 237.299443 97.52172 
L 238.299443 97.45114 
L 239.299443 97.414749 
L 240.299443 97.356345 
L 241.299443 97.245393 
L 242.299443 97.174735 
L 243.299443 97.061795 
L 244.299443 97.016022 
L 245.299443 96.954739 
L 246.299443 96.906239 
L 247.299443 96.825417 
L 248.299443 96.706898 
L 249.299443 96.636687 
L 250.299443 96.553425 
L 251.299443 96.520283 
L 252.299443 96.469046 
L 253.299443 96.400647 
L 254.299443 96.334432 
L 255.299443 96.257515 
L 256.619695 96.230199 
" clip-path="url(#pc6f87bca23)" style="fill: none; stroke: #1f77b4; stroke-opacity: 0.5; stroke-width: 0.2; stroke-linecap: square"/>
   <path d="M 200.299443 177.059936 
L 201.299443 177.091373 
L 202.299443 177.128313 
L 203.299443 177.226059 
L 204.299443 177.258581 
L 205.299443 177.332206 
L 206.299443 177.370771 
L 207.299443 177.406184 
L 208.299443 177.463824 
L 209.299443 177.534211 
L 210.299443 177.586175 
L 211.299443 177.645265 
L 212.299443 177.733586 
L 213.299443 177.77973 
L 214.299443 177.822141 
L 215.299443 177.852633 
L 216.299443 177.878678 
L 217.299443 177.899879 
L 218.299443 177.95418 
L 219.299443 177.982117 
L 220.299443 178.011841 
L 221.299443 178.037236 
L 222.299443 178.048436 
L 223.299443 178.05856 
L 224.299443 178.058356 
L 225.299443 178.048846 
L 226.299443 178.037193 
L 227.299443 178.006163 
L 228.299443 177.994995 
L 229.299443 177.964878 
L 230.299443 177.905101 
L 231.299443 177.867909 
L 232.299443 177.828813 
L 233.299443 177.786374 
L 234.299443 177.753609 
L 235.299443 177.686182 
L 236.299443 177.647056 
L 237.299443 177.604382 
L 238.299443 177.533801 
L 239.299443 177.49741 
L 240.299443 177.439007 
L 241.299443 177.328054 
L 242.299443 177.257396 
L 243.299443 177.144456 
L 244.299443 177.098683 
L 245.299443 177.0374 
L 246.299443 176.988901 
L 247.299443 176.908078 
L 248.299443 176.789559 
L 249.299443 176.719349 
L 250.299443 176.636086 
L 251.299443 176.602944 
L 252.299443 176.551707 
L 253.299443 176.483309 
L 254.299443 176.417093 
L 255.299443 176.340176 
L 256.619695 176.312861 
" clip-path="url(#pc6f87bca23)" style="fill: none; stroke: #1f77b4; stroke-opacity: 0.5; stroke-width: 0.2; stroke-linecap: square"/>
   <path d="M 200.299443 223.532841 
L 201.299443 223.564277 
L 202.299443 223.601218 
L 203.299443 223.698964 
L 204.299443 223.731486 
L 205.299443 223.80511 
L 206.299443 223.843676 
L 207.299443 223.879089 
L 208.299443 223.936729 
L 209.299443 224.007115 
L 210.299443 224.059079 
L 211.299443 224.118169 
L 212.299443 224.20649 
L 213.299443 224.252634 
L 214.299443 224.295045 
L 215.299443 224.325538 
L 216.299443 224.351583 
L 217.299443 224.372783 
L 218.299443 224.427084 
L 219.299443 224.455022 
L 220.299443 224.484746 
L 221.299443 224.510141 
L 222.299443 224.521341 
L 223.299443 224.531465 
L 224.299443 224.531261 
L 225.299443 224.521751 
L 226.299443 224.510097 
L 227.299443 224.479068 
L 228.299443 224.4679 
L 229.299443 224.437782 
L 230.299443 224.378005 
L 231.299443 224.340814 
L 232.299443 224.301718 
L 233.299443 224.259278 
L 234.299443 224.226513 
L 235.299443 224.159087 
L 236.299443 224.119961 
L 237.299443 224.077286 
L 238.299443 224.006706 
L 239.299443 223.970315 
L 240.299443 223.911912 
L 241.299443 223.800959 
L 242.299443 223.730301 
L 243.299443 223.617361 
L 244.299443 223.571588 
L 245.299443 223.510305 
L 246.299443 223.461805 
L 247.299443 223.380983 
L 248.299443 223.262464 
L 249.299443 223.192253 
L 250.299443 223.108991 
L 251.299443 223.075849 
L 252.299443 223.024612 
L 253.299443 222.956213 
L 254.299443 222.889998 
L 255.299443 222.813081 
L 256.619695 222.785765 
" clip-path="url(#pc6f87bca23)" style="fill: none; stroke: #1f77b4; stroke-opacity: 0.5; stroke-width: 0.2; stroke-linecap: square"/>
   <path d="M 200.299443 245.437887 
L 201.299443 245.469324 
L 202.299443 245.506264 
L 203.299443 245.604011 
L 204.299443 245.636532 
L 205.299443 245.710157 
L 206.299443 245.748722 
L 207.299443 245.784136 
L 208.299443 245.841776 
L 209.299443 245.912162 
L 210.299443 245.964126 
L 211.299443 246.023216 
L 212.299443 246.111537 
L 213.299443 246.157681 
L 214.299443 246.200092 
L 215.299443 246.230585 
L 216.299443 246.25663 
L 217.299443 246.27783 
L 218.299443 246.332131 
L 219.299443 246.360068 
L 220.299443 246.389792 
L 221.299443 246.415187 
L 222.299443 246.426388 
L 223.299443 246.436511 
L 224.299443 246.436307 
L 225.299443 246.426797 
L 226.299443 246.415144 
L 227.299443 246.384114 
L 228.299443 246.372947 
L 229.299443 246.342829 
L 230.299443 246.283052 
L 231.299443 246.245861 
L 232.299443 246.206764 
L 233.299443 246.164325 
L 234.299443 246.13156 
L 235.299443 246.064133 
L 236.299443 246.025007 
L 237.299443 245.982333 
L 238.299443 245.911752 
L 239.299443 245.875361 
L 240.299443 245.816958 
L 241.299443 245.706006 
L 242.299443 245.635347 
L 243.299443 245.522407 
L 244.299443 245.476635 
L 245.299443 245.415351 
L 246.299443 245.366852 
L 247.299443 245.286029 
L 248.299443 245.16751 
L 249.299443 245.0973 
L 250.299443 245.014037 
L 251.299443 244.980895 
L 252.299443 244.929658 
L 253.299443 244.86126 
L 254.299443 244.795044 
L 255.299443 244.718127 
L 256.619695 244.690812 
" clip-path="url(#pc6f87bca23)" style="fill: none; stroke: #1f77b4; stroke-opacity: 0.5; stroke-width: 0.2; stroke-linecap: square"/>
   <path d="M 200.299443 137.157581 
L 201.299443 137.189018 
L 202.299443 137.225958 
L 203.299443 137.323704 
L 204.299443 137.356226 
L 205.299443 137.429851 
L 206.299443 137.468416 
L 207.299443 137.503829 
L 208.299443 137.561469 
L 209.299443 137.631856 
L 210.299443 137.68382 
L 211.299443 137.74291 
L 212.299443 137.831231 
L 213.299443 137.877375 
L 214.299443 137.919786 
L 215.299443 137.950278 
L 216.299443 137.976323 
L 217.299443 137.997523 
L 218.299443 138.051825 
L 219.299443 138.079762 
L 220.299443 138.109486 
L 221.299443 138.134881 
L 222.299443 138.146081 
L 223.299443 138.156205 
L 224.299443 138.156001 
L 225.299443 138.146491 
L 226.299443 138.134837 
L 227.299443 138.103808 
L 228.299443 138.09264 
L 229.299443 138.062523 
L 230.299443 138.002746 
L 231.299443 137.965554 
L 232.299443 137.926458 
L 233.299443 137.884019 
L 234.299443 137.851253 
L 235.299443 137.783827 
L 236.299443 137.744701 
L 237.299443 137.702027 
L 238.299443 137.631446 
L 239.299443 137.595055 
L 240.299443 137.536652 
L 241.299443 137.425699 
L 242.299443 137.355041 
L 243.299443 137.242101 
L 244.299443 137.196328 
L 245.299443 137.135045 
L 246.299443 137.086546 
L 247.299443 137.005723 
L 248.299443 136.887204 
L 249.299443 136.816993 
L 250.299443 136.733731 
L 251.299443 136.700589 
L 252.299443 136.649352 
L 253.299443 136.580954 
L 254.299443 136.514738 
L 255.299443 136.437821 
L 256.619695 136.410506 
" clip-path="url(#pc6f87bca23)" style="fill: none; stroke: #1f77b4; stroke-opacity: 0.5; stroke-width: 0.2; stroke-linecap: square"/>
   <path d="M 200.299443 240.12068 
L 201.299443 240.152117 
L 202.299443 240.189057 
L 203.299443 240.286804 
L 204.299443 240.319325 
L 205.299443 240.39295 
L 206.299443 240.431516 
L 207.299443 240.466929 
L 208.299443 240.524569 
L 209.299443 240.594955 
L 210.299443 240.646919 
L 211.299443 240.706009 
L 212.299443 240.79433 
L 213.299443 240.840474 
L 214.299443 240.882885 
L 215.299443 240.913378 
L 216.299443 240.939423 
L 217.299443 240.960623 
L 218.299443 241.014924 
L 219.299443 241.042861 
L 220.299443 241.072585 
L 221.299443 241.09798 
L 222.299443 241.109181 
L 223.299443 241.119305 
L 224.299443 241.1191 
L 225.299443 241.10959 
L 226.299443 241.097937 
L 227.299443 241.066907 
L 228.299443 241.05574 
L 229.299443 241.025622 
L 230.299443 240.965845 
L 231.299443 240.928654 
L 232.299443 240.889557 
L 233.299443 240.847118 
L 234.299443 240.814353 
L 235.299443 240.746926 
L 236.299443 240.7078 
L 237.299443 240.665126 
L 238.299443 240.594545 
L 239.299443 240.558154 
L 240.299443 240.499751 
L 241.299443 240.388799 
L 242.299443 240.31814 
L 243.299443 240.2052 
L 244.299443 240.159428 
L 245.299443 240.098144 
L 246.299443 240.049645 
L 247.299443 239.968822 
L 248.299443 239.850303 
L 249.299443 239.780093 
L 250.299443 239.69683 
L 251.299443 239.663689 
L 252.299443 239.612451 
L 253.299443 239.544053 
L 254.299443 239.477837 
L 255.299443 239.40092 
L 256.619695 239.373605 
" clip-path="url(#pc6f87bca23)" style="fill: none; stroke: #1f77b4; stroke-opacity: 0.5; stroke-width: 0.2; stroke-linecap: square"/>
   <path d="M 200.299443 197.925385 
L 201.299443 197.956821 
L 202.299443 197.993761 
L 203.299443 198.091508 
L 204.299443 198.124029 
L 205.299443 198.197654 
L 206.299443 198.23622 
L 207.299443 198.271633 
L 208.299443 198.329273 
L 209.299443 198.399659 
L 210.299443 198.451623 
L 211.299443 198.510713 
L 212.299443 198.599034 
L 213.299443 198.645178 
L 214.299443 198.687589 
L 215.299443 198.718082 
L 216.299443 198.744127 
L 217.299443 198.765327 
L 218.299443 198.819628 
L 219.299443 198.847566 
L 220.299443 198.87729 
L 221.299443 198.902684 
L 222.299443 198.913885 
L 223.299443 198.924009 
L 224.299443 198.923804 
L 225.299443 198.914294 
L 226.299443 198.902641 
L 227.299443 198.871612 
L 228.299443 198.860444 
L 229.299443 198.830326 
L 230.299443 198.770549 
L 231.299443 198.733358 
L 232.299443 198.694262 
L 233.299443 198.651822 
L 234.299443 198.619057 
L 235.299443 198.55163 
L 236.299443 198.512504 
L 237.299443 198.46983 
L 238.299443 198.399249 
L 239.299443 198.362858 
L 240.299443 198.304455 
L 241.299443 198.193503 
L 242.299443 198.122844 
L 243.299443 198.009905 
L 244.299443 197.964132 
L 245.299443 197.902848 
L 246.299443 197.854349 
L 247.299443 197.773526 
L 248.299443 197.655008 
L 249.299443 197.584797 
L 250.299443 197.501534 
L 251.299443 197.468393 
L 252.299443 197.417155 
L 253.299443 197.348757 
L 254.299443 197.282542 
L 255.299443 197.205624 
L 256.619695 197.178309 
" clip-path="url(#pc6f87bca23)" style="fill: none; stroke: #1f77b4; stroke-opacity: 0.5; stroke-width: 0.2; stroke-linecap: square"/>
   <path d="M 200.299443 225.100251 
L 201.299443 225.131687 
L 202.299443 225.168627 
L 203.299443 225.266374 
L 204.299443 225.298896 
L 205.299443 225.37252 
L 206.299443 225.411086 
L 207.299443 225.446499 
L 208.299443 225.504139 
L 209.299443 225.574525 
L 210.299443 225.626489 
L 211.299443 225.685579 
L 212.299443 225.7739 
L 213.299443 225.820044 
L 214.299443 225.862455 
L 215.299443 225.892948 
L 216.299443 225.918993 
L 217.299443 225.940193 
L 218.299443 225.994494 
L 219.299443 226.022432 
L 220.299443 226.052156 
L 221.299443 226.07755 
L 222.299443 226.088751 
L 223.299443 226.098875 
L 224.299443 226.09867 
L 225.299443 226.089161 
L 226.299443 226.077507 
L 227.299443 226.046478 
L 228.299443 226.03531 
L 229.299443 226.005192 
L 230.299443 225.945415 
L 231.299443 225.908224 
L 232.299443 225.869128 
L 233.299443 225.826688 
L 234.299443 225.793923 
L 235.299443 225.726496 
L 236.299443 225.687371 
L 237.299443 225.644696 
L 238.299443 225.574115 
L 239.299443 225.537725 
L 240.299443 225.479321 
L 241.299443 225.368369 
L 242.299443 225.297711 
L 243.299443 225.184771 
L 244.299443 225.138998 
L 245.299443 225.077715 
L 246.299443 225.029215 
L 247.299443 224.948393 
L 248.299443 224.829874 
L 249.299443 224.759663 
L 250.299443 224.676401 
L 251.299443 224.643259 
L 252.299443 224.592021 
L 253.299443 224.523623 
L 254.299443 224.457408 
L 255.299443 224.380491 
L 256.619695 224.353175 
" clip-path="url(#pc6f87bca23)" style="fill: none; stroke: #1f77b4; stroke-opacity: 0.5; stroke-width: 0.2; stroke-linecap: square"/>
   <path d="M 200.299443 243.904192 
L 201.299443 243.935628 
L 202.299443 243.972568 
L 203.299443 244.070315 
L 204.299443 244.102836 
L 205.299443 244.176461 
L 206.299443 244.215027 
L 207.299443 244.25044 
L 208.299443 244.30808 
L 209.299443 244.378466 
L 210.299443 244.43043 
L 211.299443 244.48952 
L 212.299443 244.577841 
L 213.299443 244.623985 
L 214.299443 244.666396 
L 215.299443 244.696889 
L 216.299443 244.722934 
L 217.299443 244.744134 
L 218.299443 244.798435 
L 219.299443 244.826373 
L 220.299443 244.856097 
L 221.299443 244.881491 
L 222.299443 244.892692 
L 223.299443 244.902816 
L 224.299443 244.902611 
L 225.299443 244.893101 
L 226.299443 244.881448 
L 227.299443 244.850419 
L 228.299443 244.839251 
L 229.299443 244.809133 
L 230.299443 244.749356 
L 231.299443 244.712165 
L 232.299443 244.673069 
L 233.299443 244.630629 
L 234.299443 244.597864 
L 235.299443 244.530437 
L 236.299443 244.491311 
L 237.299443 244.448637 
L 238.299443 244.378056 
L 239.299443 244.341665 
L 240.299443 244.283262 
L 241.299443 244.17231 
L 242.299443 244.101651 
L 243.299443 243.988712 
L 244.299443 243.942939 
L 245.299443 243.881655 
L 246.299443 243.833156 
L 247.299443 243.752333 
L 248.299443 243.633815 
L 249.299443 243.563604 
L 250.299443 243.480341 
L 251.299443 243.4472 
L 252.299443 243.395962 
L 253.299443 243.327564 
L 254.299443 243.261349 
L 255.299443 243.184431 
L 256.619695 243.157116 
" clip-path="url(#pc6f87bca23)" style="fill: none; stroke: #1f77b4; stroke-opacity: 0.5; stroke-width: 0.2; stroke-linecap: square"/>
   <path d="M 256.619695 131.699736 
L 255.619695 131.6683 
L 254.619695 131.63136 
L 253.619695 131.533613 
L 252.619695 131.501091 
L 251.619695 131.427467 
L 250.619695 131.388901 
L 249.619695 131.353488 
L 248.619695 131.295848 
L 247.619695 131.225462 
L 246.619695 131.173498 
L 245.619695 131.114408 
L 244.619695 131.026087 
L 243.619695 130.979943 
L 242.619695 130.937532 
L 241.619695 130.907039 
L 240.619695 130.880994 
L 239.619695 130.859794 
L 238.619695 130.805493 
L 237.619695 130.777555 
L 236.619695 130.747831 
L 235.619695 130.722437 
L 234.619695 130.711236 
L 233.619695 130.701112 
L 232.619695 130.701317 
L 231.619695 130.710826 
L 230.619695 130.72248 
L 229.619695 130.753509 
L 228.619695 130.764677 
L 227.619695 130.794795 
L 226.619695 130.854572 
L 225.619695 130.891763 
L 224.619695 130.930859 
L 223.619695 130.973299 
L 222.619695 131.006064 
L 221.619695 131.07349 
L 220.619695 131.112616 
L 219.619695 131.155291 
L 218.619695 131.225872 
L 217.619695 131.262262 
L 216.619695 131.320666 
L 215.619695 131.431618 
L 214.619695 131.502276 
L 213.619695 131.615216 
L 212.619695 131.660989 
L 211.619695 131.722272 
L 210.619695 131.770772 
L 209.619695 131.851594 
L 208.619695 131.970113 
L 207.619695 132.040324 
L 206.619695 132.123586 
L 205.619695 132.156728 
L 204.619695 132.207966 
L 203.619695 132.276364 
L 202.619695 132.342579 
L 201.619695 132.419496 
L 200.299443 132.446812 
" clip-path="url(#pc6f87bca23)" style="fill: none; stroke: #ff7f0e; stroke-opacity: 0.5; stroke-width: 0.2; stroke-linecap: square"/>
   <path d="M 256.619695 212.867554 
L 255.619695 212.836118 
L 254.619695 212.799178 
L 253.619695 212.701431 
L 252.619695 212.66891 
L 251.619695 212.595285 
L 250.619695 212.556719 
L 249.619695 212.521306 
L 248.619695 212.463666 
L 247.619695 212.39328 
L 246.619695 212.341316 
L 245.619695 212.282226 
L 244.619695 212.193905 
L 243.619695 212.147761 
L 242.619695 212.10535 
L 241.619695 212.074857 
L 240.619695 212.048812 
L 239.619695 212.027612 
L 238.619695 211.973311 
L 237.619695 211.945373 
L 236.619695 211.915649 
L 235.619695 211.890255 
L 234.619695 211.879054 
L 233.619695 211.86893 
L 232.619695 211.869135 
L 231.619695 211.878644 
L 230.619695 211.890298 
L 229.619695 211.921327 
L 228.619695 211.932495 
L 227.619695 211.962613 
L 226.619695 212.02239 
L 225.619695 212.059581 
L 224.619695 212.098677 
L 223.619695 212.141117 
L 222.619695 212.173882 
L 221.619695 212.241309 
L 220.619695 212.280434 
L 219.619695 212.323109 
L 218.619695 212.39369 
L 217.619695 212.43008 
L 216.619695 212.488484 
L 215.619695 212.599436 
L 214.619695 212.670095 
L 213.619695 212.783034 
L 212.619695 212.828807 
L 211.619695 212.89009 
L 210.619695 212.93859 
L 209.619695 213.019412 
L 208.619695 213.137931 
L 207.619695 213.208142 
L 206.619695 213.291405 
L 205.619695 213.324546 
L 204.619695 213.375784 
L 203.619695 213.444182 
L 202.619695 213.510397 
L 201.619695 213.587314 
L 200.299443 213.61463 
" clip-path="url(#pc6f87bca23)" style="fill: none; stroke: #ff7f0e; stroke-opacity: 0.5; stroke-width: 0.2; stroke-linecap: square"/>
   <path d="M 256.619695 291.038895 
L 255.619695 291.007458 
L 254.619695 290.970518 
L 253.619695 290.872771 
L 252.619695 290.84025 
L 251.619695 290.766625 
L 250.619695 290.728059 
L 249.619695 290.692646 
L 248.619695 290.635006 
L 247.619695 290.56462 
L 246.619695 290.512656 
L 245.619695 290.453566 
L 244.619695 290.365245 
L 243.619695 290.319101 
L 242.619695 290.27669 
L 241.619695 290.246197 
L 240.619695 290.220152 
L 239.619695 290.198952 
L 238.619695 290.144651 
L 237.619695 290.116714 
L 236.619695 290.08699 
L 235.619695 290.061595 
L 234.619695 290.050394 
L 233.619695 290.04027 
L 232.619695 290.040475 
L 231.619695 290.049985 
L 230.619695 290.061638 
L 229.619695 290.092667 
L 228.619695 290.103835 
L 227.619695 290.133953 
L 226.619695 290.19373 
L 225.619695 290.230921 
L 224.619695 290.270017 
L 223.619695 290.312457 
L 222.619695 290.345222 
L 221.619695 290.412649 
L 220.619695 290.451775 
L 219.619695 290.494449 
L 218.619695 290.56503 
L 217.619695 290.601421 
L 216.619695 290.659824 
L 215.619695 290.770776 
L 214.619695 290.841435 
L 213.619695 290.954375 
L 212.619695 291.000147 
L 211.619695 291.061431 
L 210.619695 291.10993 
L 209.619695 291.190753 
L 208.619695 291.309272 
L 207.619695 291.379482 
L 206.619695 291.462745 
L 205.619695 291.495886 
L 204.619695 291.547124 
L 203.619695 291.615522 
L 202.619695 291.681738 
L 201.619695 291.758655 
L 200.299443 291.78597 
" clip-path="url(#pc6f87bca23)" style="fill: none; stroke: #ff7f0e; stroke-opacity: 0.5; stroke-width: 0.2; stroke-linecap: square"/>
   <path d="M 256.619695 154.048902 
L 255.619695 154.017466 
L 254.619695 153.980525 
L 253.619695 153.882779 
L 252.619695 153.850257 
L 251.619695 153.776632 
L 250.619695 153.738067 
L 249.619695 153.702654 
L 248.619695 153.645014 
L 247.619695 153.574628 
L 246.619695 153.522663 
L 245.619695 153.463574 
L 244.619695 153.375253 
L 243.619695 153.329108 
L 242.619695 153.286697 
L 241.619695 153.256205 
L 240.619695 153.23016 
L 239.619695 153.20896 
L 238.619695 153.154659 
L 237.619695 153.126721 
L 236.619695 153.096997 
L 235.619695 153.071602 
L 234.619695 153.060402 
L 233.619695 153.050278 
L 232.619695 153.050482 
L 231.619695 153.059992 
L 230.619695 153.071646 
L 229.619695 153.102675 
L 228.619695 153.113843 
L 227.619695 153.14396 
L 226.619695 153.203737 
L 225.619695 153.240929 
L 224.619695 153.280025 
L 223.619695 153.322465 
L 222.619695 153.35523 
L 221.619695 153.422656 
L 220.619695 153.461782 
L 219.619695 153.504457 
L 218.619695 153.575037 
L 217.619695 153.611428 
L 216.619695 153.669831 
L 215.619695 153.780784 
L 214.619695 153.851442 
L 213.619695 153.964382 
L 212.619695 154.010155 
L 211.619695 154.071438 
L 210.619695 154.119937 
L 209.619695 154.20076 
L 208.619695 154.319279 
L 207.619695 154.38949 
L 206.619695 154.472752 
L 205.619695 154.505894 
L 204.619695 154.557131 
L 203.619695 154.62553 
L 202.619695 154.691745 
L 201.619695 154.768662 
L 200.299443 154.795978 
" clip-path="url(#pc6f87bca23)" style="fill: none; stroke: #ff7f0e; stroke-opacity: 0.5; stroke-width: 0.2; stroke-linecap: square"/>
   <path d="M 256.619695 247.511064 
L 255.619695 247.479628 
L 254.619695 247.442688 
L 253.619695 247.344941 
L 252.619695 247.31242 
L 251.619695 247.238795 
L 250.619695 247.200229 
L 249.619695 247.164816 
L 248.619695 247.107176 
L 247.619695 247.03679 
L 246.619695 246.984826 
L 245.619695 246.925736 
L 244.619695 246.837415 
L 243.619695 246.791271 
L 242.619695 246.74886 
L 241.619695 246.718367 
L 240.619695 246.692322 
L 239.619695 246.671122 
L 238.619695 246.616821 
L 237.619695 246.588883 
L 236.619695 246.55916 
L 235.619695 246.533765 
L 234.619695 246.522564 
L 233.619695 246.51244 
L 232.619695 246.512645 
L 231.619695 246.522155 
L 230.619695 246.533808 
L 229.619695 246.564837 
L 228.619695 246.576005 
L 227.619695 246.606123 
L 226.619695 246.6659 
L 225.619695 246.703091 
L 224.619695 246.742187 
L 223.619695 246.784627 
L 222.619695 246.817392 
L 221.619695 246.884819 
L 220.619695 246.923945 
L 219.619695 246.966619 
L 218.619695 247.0372 
L 217.619695 247.073591 
L 216.619695 247.131994 
L 215.619695 247.242946 
L 214.619695 247.313605 
L 213.619695 247.426544 
L 212.619695 247.472317 
L 211.619695 247.533601 
L 210.619695 247.5821 
L 209.619695 247.662923 
L 208.619695 247.781441 
L 207.619695 247.851652 
L 206.619695 247.934915 
L 205.619695 247.968056 
L 204.619695 248.019294 
L 203.619695 248.087692 
L 202.619695 248.153907 
L 201.619695 248.230825 
L 200.299443 248.25814 
" clip-path="url(#pc6f87bca23)" style="fill: none; stroke: #ff7f0e; stroke-opacity: 0.5; stroke-width: 0.2; stroke-linecap: square"/>
   <path d="M 256.619695 232.755401 
L 255.619695 232.723964 
L 254.619695 232.687024 
L 253.619695 232.589277 
L 252.619695 232.556756 
L 251.619695 232.483131 
L 250.619695 232.444566 
L 249.619695 232.409152 
L 248.619695 232.351513 
L 247.619695 232.281126 
L 246.619695 232.229162 
L 245.619695 232.170072 
L 244.619695 232.081751 
L 243.619695 232.035607 
L 242.619695 231.993196 
L 241.619695 231.962703 
L 240.619695 231.936659 
L 239.619695 231.915458 
L 238.619695 231.861157 
L 237.619695 231.83322 
L 236.619695 231.803496 
L 235.619695 231.778101 
L 234.619695 231.766901 
L 233.619695 231.756777 
L 232.619695 231.756981 
L 231.619695 231.766491 
L 230.619695 231.778144 
L 229.619695 231.809174 
L 228.619695 231.820342 
L 227.619695 231.850459 
L 226.619695 231.910236 
L 225.619695 231.947428 
L 224.619695 231.986524 
L 223.619695 232.028963 
L 222.619695 232.061728 
L 221.619695 232.129155 
L 220.619695 232.168281 
L 219.619695 232.210955 
L 218.619695 232.281536 
L 217.619695 232.317927 
L 216.619695 232.37633 
L 215.619695 232.487283 
L 214.619695 232.557941 
L 213.619695 232.670881 
L 212.619695 232.716654 
L 211.619695 232.777937 
L 210.619695 232.826436 
L 209.619695 232.907259 
L 208.619695 233.025778 
L 207.619695 233.095988 
L 206.619695 233.179251 
L 205.619695 233.212393 
L 204.619695 233.26363 
L 203.619695 233.332028 
L 202.619695 233.398244 
L 201.619695 233.475161 
L 200.299443 233.502476 
" clip-path="url(#pc6f87bca23)" style="fill: none; stroke: #ff7f0e; stroke-opacity: 0.5; stroke-width: 0.2; stroke-linecap: square"/>
   <path d="M 256.619695 207.49083 
L 255.619695 207.459394 
L 254.619695 207.422453 
L 253.619695 207.324707 
L 252.619695 207.292185 
L 251.619695 207.218561 
L 250.619695 207.179995 
L 249.619695 207.144582 
L 248.619695 207.086942 
L 247.619695 207.016556 
L 246.619695 206.964592 
L 245.619695 206.905502 
L 244.619695 206.817181 
L 243.619695 206.771036 
L 242.619695 206.728626 
L 241.619695 206.698133 
L 240.619695 206.672088 
L 239.619695 206.650888 
L 238.619695 206.596587 
L 237.619695 206.568649 
L 236.619695 206.538925 
L 235.619695 206.51353 
L 234.619695 206.50233 
L 233.619695 206.492206 
L 232.619695 206.49241 
L 231.619695 206.50192 
L 230.619695 206.513574 
L 229.619695 206.544603 
L 228.619695 206.555771 
L 227.619695 206.585889 
L 226.619695 206.645665 
L 225.619695 206.682857 
L 224.619695 206.721953 
L 223.619695 206.764393 
L 222.619695 206.797158 
L 221.619695 206.864584 
L 220.619695 206.90371 
L 219.619695 206.946385 
L 218.619695 207.016965 
L 217.619695 207.053356 
L 216.619695 207.111759 
L 215.619695 207.222712 
L 214.619695 207.29337 
L 213.619695 207.40631 
L 212.619695 207.452083 
L 211.619695 207.513366 
L 210.619695 207.561866 
L 209.619695 207.642688 
L 208.619695 207.761207 
L 207.619695 207.831418 
L 206.619695 207.91468 
L 205.619695 207.947822 
L 204.619695 207.999059 
L 203.619695 208.067458 
L 202.619695 208.133673 
L 201.619695 208.21059 
L 200.299443 208.237906 
" clip-path="url(#pc6f87bca23)" style="fill: none; stroke: #ff7f0e; stroke-opacity: 0.5; stroke-width: 0.2; stroke-linecap: square"/>
   <path d="M 256.619695 311.371558 
L 255.619695 311.340121 
L 254.619695 311.303181 
L 253.619695 311.205434 
L 252.619695 311.172913 
L 251.619695 311.099288 
L 250.619695 311.060723 
L 249.619695 311.025309 
L 248.619695 310.96767 
L 247.619695 310.897283 
L 246.619695 310.845319 
L 245.619695 310.786229 
L 244.619695 310.697908 
L 243.619695 310.651764 
L 242.619695 310.609353 
L 241.619695 310.57886 
L 240.619695 310.552816 
L 239.619695 310.531615 
L 238.619695 310.477314 
L 237.619695 310.449377 
L 236.619695 310.419653 
L 235.619695 310.394258 
L 234.619695 310.383058 
L 233.619695 310.372934 
L 232.619695 310.373138 
L 231.619695 310.382648 
L 230.619695 310.394301 
L 229.619695 310.425331 
L 228.619695 310.436499 
L 227.619695 310.466616 
L 226.619695 310.526393 
L 225.619695 310.563585 
L 224.619695 310.602681 
L 223.619695 310.64512 
L 222.619695 310.677885 
L 221.619695 310.745312 
L 220.619695 310.784438 
L 219.619695 310.827112 
L 218.619695 310.897693 
L 217.619695 310.934084 
L 216.619695 310.992487 
L 215.619695 311.10344 
L 214.619695 311.174098 
L 213.619695 311.287038 
L 212.619695 311.332811 
L 211.619695 311.394094 
L 210.619695 311.442593 
L 209.619695 311.523416 
L 208.619695 311.641935 
L 207.619695 311.712145 
L 206.619695 311.795408 
L 205.619695 311.82855 
L 204.619695 311.879787 
L 203.619695 311.948185 
L 202.619695 312.014401 
L 201.619695 312.091318 
L 200.299443 312.118633 
" clip-path="url(#pc6f87bca23)" style="fill: none; stroke: #ff7f0e; stroke-opacity: 0.5; stroke-width: 0.2; stroke-linecap: square"/>
   <path d="M 256.619695 180.804853 
L 255.619695 180.773417 
L 254.619695 180.736476 
L 253.619695 180.63873 
L 252.619695 180.606208 
L 251.619695 180.532584 
L 250.619695 180.494018 
L 249.619695 180.458605 
L 248.619695 180.400965 
L 247.619695 180.330579 
L 246.619695 180.278615 
L 245.619695 180.219525 
L 244.619695 180.131204 
L 243.619695 180.08506 
L 242.619695 180.042649 
L 241.619695 180.012156 
L 240.619695 179.986111 
L 239.619695 179.964911 
L 238.619695 179.91061 
L 237.619695 179.882672 
L 236.619695 179.852948 
L 235.619695 179.827553 
L 234.619695 179.816353 
L 233.619695 179.806229 
L 232.619695 179.806433 
L 231.619695 179.815943 
L 230.619695 179.827597 
L 229.619695 179.858626 
L 228.619695 179.869794 
L 227.619695 179.899912 
L 226.619695 179.959689 
L 225.619695 179.99688 
L 224.619695 180.035976 
L 223.619695 180.078416 
L 222.619695 180.111181 
L 221.619695 180.178607 
L 220.619695 180.217733 
L 219.619695 180.260408 
L 218.619695 180.330988 
L 217.619695 180.367379 
L 216.619695 180.425782 
L 215.619695 180.536735 
L 214.619695 180.607393 
L 213.619695 180.720333 
L 212.619695 180.766106 
L 211.619695 180.827389 
L 210.619695 180.875889 
L 209.619695 180.956711 
L 208.619695 181.07523 
L 207.619695 181.145441 
L 206.619695 181.228703 
L 205.619695 181.261845 
L 204.619695 181.313082 
L 203.619695 181.381481 
L 202.619695 181.447696 
L 201.619695 181.524613 
L 200.299443 181.551929 
" clip-path="url(#pc6f87bca23)" style="fill: none; stroke: #ff7f0e; stroke-opacity: 0.5; stroke-width: 0.2; stroke-linecap: square"/>
   <path d="M 256.619695 105.196383 
L 255.619695 105.164947 
L 254.619695 105.128006 
L 253.619695 105.03026 
L 252.619695 104.997738 
L 251.619695 104.924113 
L 250.619695 104.885548 
L 249.619695 104.850135 
L 248.619695 104.792495 
L 247.619695 104.722108 
L 246.619695 104.670144 
L 245.619695 104.611054 
L 244.619695 104.522733 
L 243.619695 104.476589 
L 242.619695 104.434178 
L 241.619695 104.403686 
L 240.619695 104.377641 
L 239.619695 104.356441 
L 238.619695 104.302139 
L 237.619695 104.274202 
L 236.619695 104.244478 
L 235.619695 104.219083 
L 234.619695 104.207883 
L 233.619695 104.197759 
L 232.619695 104.197963 
L 231.619695 104.207473 
L 230.619695 104.219127 
L 229.619695 104.250156 
L 228.619695 104.261324 
L 227.619695 104.291441 
L 226.619695 104.351218 
L 225.619695 104.38841 
L 224.619695 104.427506 
L 223.619695 104.469945 
L 222.619695 104.502711 
L 221.619695 104.570137 
L 220.619695 104.609263 
L 219.619695 104.651937 
L 218.619695 104.722518 
L 217.619695 104.758909 
L 216.619695 104.817312 
L 215.619695 104.928265 
L 214.619695 104.998923 
L 213.619695 105.111863 
L 212.619695 105.157636 
L 211.619695 105.218919 
L 210.619695 105.267418 
L 209.619695 105.348241 
L 208.619695 105.46676 
L 207.619695 105.536971 
L 206.619695 105.620233 
L 205.619695 105.653375 
L 204.619695 105.704612 
L 203.619695 105.77301 
L 202.619695 105.839226 
L 201.619695 105.916143 
L 200.299443 105.943458 
" clip-path="url(#pc6f87bca23)" style="fill: none; stroke: #ff7f0e; stroke-opacity: 0.5; stroke-width: 0.2; stroke-linecap: square"/>
   <path d="M 390.34593 183.328689 
L 391.34593 183.360125 
L 392.34593 183.397065 
L 393.34593 183.494812 
L 394.34593 183.527333 
L 395.34593 183.600958 
L 396.34593 183.639524 
L 397.34593 183.674937 
L 398.34593 183.732577 
L 399.34593 183.802963 
L 400.34593 183.854927 
L 401.34593 183.914017 
L 402.34593 184.002338 
L 403.34593 184.048482 
L 404.34593 184.090893 
L 405.34593 184.121386 
L 406.34593 184.147431 
L 407.34593 184.168631 
L 408.34593 184.222932 
L 409.34593 184.25087 
L 410.34593 184.280594 
L 411.34593 184.305988 
L 412.34593 184.317189 
L 413.34593 184.327313 
L 414.34593 184.327108 
L 415.34593 184.317598 
L 416.34593 184.305945 
L 417.34593 184.274916 
L 418.34593 184.263748 
L 419.34593 184.23363 
L 420.34593 184.173853 
L 421.34593 184.136662 
L 422.34593 184.097566 
L 423.34593 184.055126 
L 424.34593 184.022361 
L 425.34593 183.954934 
L 426.34593 183.915808 
L 427.34593 183.873134 
L 428.34593 183.802553 
L 429.34593 183.766162 
L 430.34593 183.707759 
L 431.34593 183.596807 
L 432.34593 183.526148 
L 433.34593 183.413209 
L 434.34593 183.367436 
L 435.34593 183.306152 
L 436.34593 183.257653 
L 437.34593 183.17683 
L 438.34593 183.058312 
L 439.34593 182.988101 
L 440.34593 182.904838 
L 441.34593 182.871697 
L 442.34593 182.820459 
L 443.34593 182.752061 
L 444.34593 182.685846 
L 445.34593 182.608928 
L 446.666182 182.581613 
" clip-path="url(#pc6f87bca23)" style="fill: none; stroke: #ff7f0e; stroke-opacity: 0.5; stroke-width: 0.2; stroke-linecap: square"/>
   <path d="M 390.34593 156.271736 
L 391.34593 156.303173 
L 392.34593 156.340113 
L 393.34593 156.437859 
L 394.34593 156.470381 
L 395.34593 156.544006 
L 396.34593 156.582571 
L 397.34593 156.617984 
L 398.34593 156.675624 
L 399.34593 156.746011 
L 400.34593 156.797975 
L 401.34593 156.857065 
L 402.34593 156.945386 
L 403.34593 156.99153 
L 404.34593 157.033941 
L 405.34593 157.064433 
L 406.34593 157.090478 
L 407.34593 157.111678 
L 408.34593 157.16598 
L 409.34593 157.193917 
L 410.34593 157.223641 
L 411.34593 157.249036 
L 412.34593 157.260236 
L 413.34593 157.27036 
L 414.34593 157.270156 
L 415.34593 157.260646 
L 416.34593 157.248993 
L 417.34593 157.217963 
L 418.34593 157.206795 
L 419.34593 157.176678 
L 420.34593 157.116901 
L 421.34593 157.079709 
L 422.34593 157.040613 
L 423.34593 156.998174 
L 424.34593 156.965408 
L 425.34593 156.897982 
L 426.34593 156.858856 
L 427.34593 156.816182 
L 428.34593 156.745601 
L 429.34593 156.70921 
L 430.34593 156.650807 
L 431.34593 156.539854 
L 432.34593 156.469196 
L 433.34593 156.356256 
L 434.34593 156.310483 
L 435.34593 156.2492 
L 436.34593 156.200701 
L 437.34593 156.119878 
L 438.34593 156.001359 
L 439.34593 155.931149 
L 440.34593 155.847886 
L 441.34593 155.814744 
L 442.34593 155.763507 
L 443.34593 155.695109 
L 444.34593 155.628893 
L 445.34593 155.551976 
L 446.666182 155.524661 
" clip-path="url(#pc6f87bca23)" style="fill: none; stroke: #ff7f0e; stroke-opacity: 0.5; stroke-width: 0.2; stroke-linecap: square"/>
   <path d="M 390.34593 233.731779 
L 391.34593 233.763215 
L 392.34593 233.800156 
L 393.34593 233.897902 
L 394.34593 233.930424 
L 395.34593 234.004049 
L 396.34593 234.042614 
L 397.34593 234.078027 
L 398.34593 234.135667 
L 399.34593 234.206053 
L 400.34593 234.258018 
L 401.34593 234.317107 
L 402.34593 234.405428 
L 403.34593 234.451573 
L 404.34593 234.493984 
L 405.34593 234.524476 
L 406.34593 234.550521 
L 407.34593 234.571721 
L 408.34593 234.626022 
L 409.34593 234.65396 
L 410.34593 234.683684 
L 411.34593 234.709079 
L 412.34593 234.720279 
L 413.34593 234.730403 
L 414.34593 234.730199 
L 415.34593 234.720689 
L 416.34593 234.709035 
L 417.34593 234.678006 
L 418.34593 234.666838 
L 419.34593 234.636721 
L 420.34593 234.576944 
L 421.34593 234.539752 
L 422.34593 234.500656 
L 423.34593 234.458216 
L 424.34593 234.425451 
L 425.34593 234.358025 
L 426.34593 234.318899 
L 427.34593 234.276224 
L 428.34593 234.205644 
L 429.34593 234.169253 
L 430.34593 234.11085 
L 431.34593 233.999897 
L 432.34593 233.929239 
L 433.34593 233.816299 
L 434.34593 233.770526 
L 435.34593 233.709243 
L 436.34593 233.660744 
L 437.34593 233.579921 
L 438.34593 233.461402 
L 439.34593 233.391191 
L 440.34593 233.307929 
L 441.34593 233.274787 
L 442.34593 233.22355 
L 443.34593 233.155151 
L 444.34593 233.088936 
L 445.34593 233.012019 
L 446.666182 232.984703 
" clip-path="url(#pc6f87bca23)" style="fill: none; stroke: #ff7f0e; stroke-opacity: 0.5; stroke-width: 0.2; stroke-linecap: square"/>
   <path d="M 390.34593 316.037199 
L 391.34593 316.068636 
L 392.34593 316.105576 
L 393.34593 316.203323 
L 394.34593 316.235844 
L 395.34593 316.309469 
L 396.34593 316.348034 
L 397.34593 316.383448 
L 398.34593 316.441088 
L 399.34593 316.511474 
L 400.34593 316.563438 
L 401.34593 316.622528 
L 402.34593 316.710849 
L 403.34593 316.756993 
L 404.34593 316.799404 
L 405.34593 316.829897 
L 406.34593 316.855942 
L 407.34593 316.877142 
L 408.34593 316.931443 
L 409.34593 316.95938 
L 410.34593 316.989104 
L 411.34593 317.014499 
L 412.34593 317.025699 
L 413.34593 317.035823 
L 414.34593 317.035619 
L 415.34593 317.026109 
L 416.34593 317.014456 
L 417.34593 316.983426 
L 418.34593 316.972258 
L 419.34593 316.942141 
L 420.34593 316.882364 
L 421.34593 316.845172 
L 422.34593 316.806076 
L 423.34593 316.763637 
L 424.34593 316.730872 
L 425.34593 316.663445 
L 426.34593 316.624319 
L 427.34593 316.581645 
L 428.34593 316.511064 
L 429.34593 316.474673 
L 430.34593 316.41627 
L 431.34593 316.305317 
L 432.34593 316.234659 
L 433.34593 316.121719 
L 434.34593 316.075946 
L 435.34593 316.014663 
L 436.34593 315.966164 
L 437.34593 315.885341 
L 438.34593 315.766822 
L 439.34593 315.696612 
L 440.34593 315.613349 
L 441.34593 315.580207 
L 442.34593 315.52897 
L 443.34593 315.460572 
L 444.34593 315.394356 
L 445.34593 315.317439 
L 446.666182 315.290124 
" clip-path="url(#pc6f87bca23)" style="fill: none; stroke: #ff7f0e; stroke-opacity: 0.5; stroke-width: 0.2; stroke-linecap: square"/>
   <path d="M 390.34593 199.25609 
L 391.34593 199.287526 
L 392.34593 199.324466 
L 393.34593 199.422213 
L 394.34593 199.454734 
L 395.34593 199.528359 
L 396.34593 199.566925 
L 397.34593 199.602338 
L 398.34593 199.659978 
L 399.34593 199.730364 
L 400.34593 199.782328 
L 401.34593 199.841418 
L 402.34593 199.929739 
L 403.34593 199.975883 
L 404.34593 200.018294 
L 405.34593 200.048787 
L 406.34593 200.074832 
L 407.34593 200.096032 
L 408.34593 200.150333 
L 409.34593 200.178271 
L 410.34593 200.207995 
L 411.34593 200.233389 
L 412.34593 200.24459 
L 413.34593 200.254714 
L 414.34593 200.254509 
L 415.34593 200.244999 
L 416.34593 200.233346 
L 417.34593 200.202317 
L 418.34593 200.191149 
L 419.34593 200.161031 
L 420.34593 200.101254 
L 421.34593 200.064063 
L 422.34593 200.024967 
L 423.34593 199.982527 
L 424.34593 199.949762 
L 425.34593 199.882335 
L 426.34593 199.84321 
L 427.34593 199.800535 
L 428.34593 199.729954 
L 429.34593 199.693564 
L 430.34593 199.63516 
L 431.34593 199.524208 
L 432.34593 199.453549 
L 433.34593 199.34061 
L 434.34593 199.294837 
L 435.34593 199.233553 
L 436.34593 199.185054 
L 437.34593 199.104231 
L 438.34593 198.985713 
L 439.34593 198.915502 
L 440.34593 198.832239 
L 441.34593 198.799098 
L 442.34593 198.74786 
L 443.34593 198.679462 
L 444.34593 198.613247 
L 445.34593 198.53633 
L 446.666182 198.509014 
" clip-path="url(#pc6f87bca23)" style="fill: none; stroke: #ff7f0e; stroke-opacity: 0.5; stroke-width: 0.2; stroke-linecap: square"/>
   <path d="M 390.34593 315.705486 
L 391.34593 315.736922 
L 392.34593 315.773862 
L 393.34593 315.871609 
L 394.34593 315.904131 
L 395.34593 315.977755 
L 396.34593 316.016321 
L 397.34593 316.051734 
L 398.34593 316.109374 
L 399.34593 316.17976 
L 400.34593 316.231724 
L 401.34593 316.290814 
L 402.34593 316.379135 
L 403.34593 316.425279 
L 404.34593 316.46769 
L 405.34593 316.498183 
L 406.34593 316.524228 
L 407.34593 316.545428 
L 408.34593 316.599729 
L 409.34593 316.627667 
L 410.34593 316.657391 
L 411.34593 316.682785 
L 412.34593 316.693986 
L 413.34593 316.70411 
L 414.34593 316.703905 
L 415.34593 316.694396 
L 416.34593 316.682742 
L 417.34593 316.651713 
L 418.34593 316.640545 
L 419.34593 316.610427 
L 420.34593 316.55065 
L 421.34593 316.513459 
L 422.34593 316.474363 
L 423.34593 316.431923 
L 424.34593 316.399158 
L 425.34593 316.331732 
L 426.34593 316.292606 
L 427.34593 316.249931 
L 428.34593 316.179351 
L 429.34593 316.14296 
L 430.34593 316.084556 
L 431.34593 315.973604 
L 432.34593 315.902946 
L 433.34593 315.790006 
L 434.34593 315.744233 
L 435.34593 315.68295 
L 436.34593 315.63445 
L 437.34593 315.553628 
L 438.34593 315.435109 
L 439.34593 315.364898 
L 440.34593 315.281636 
L 441.34593 315.248494 
L 442.34593 315.197257 
L 443.34593 315.128858 
L 444.34593 315.062643 
L 445.34593 314.985726 
L 446.666182 314.95841 
" clip-path="url(#pc6f87bca23)" style="fill: none; stroke: #ff7f0e; stroke-opacity: 0.5; stroke-width: 0.2; stroke-linecap: square"/>
   <path d="M 390.34593 139.482646 
L 391.34593 139.514082 
L 392.34593 139.551022 
L 393.34593 139.648769 
L 394.34593 139.681291 
L 395.34593 139.754915 
L 396.34593 139.793481 
L 397.34593 139.828894 
L 398.34593 139.886534 
L 399.34593 139.95692 
L 400.34593 140.008884 
L 401.34593 140.067974 
L 402.34593 140.156295 
L 403.34593 140.202439 
L 404.34593 140.24485 
L 405.34593 140.275343 
L 406.34593 140.301388 
L 407.34593 140.322588 
L 408.34593 140.376889 
L 409.34593 140.404827 
L 410.34593 140.434551 
L 411.34593 140.459945 
L 412.34593 140.471146 
L 413.34593 140.48127 
L 414.34593 140.481065 
L 415.34593 140.471556 
L 416.34593 140.459902 
L 417.34593 140.428873 
L 418.34593 140.417705 
L 419.34593 140.387587 
L 420.34593 140.32781 
L 421.34593 140.290619 
L 422.34593 140.251523 
L 423.34593 140.209083 
L 424.34593 140.176318 
L 425.34593 140.108892 
L 426.34593 140.069766 
L 427.34593 140.027091 
L 428.34593 139.95651 
L 429.34593 139.92012 
L 430.34593 139.861716 
L 431.34593 139.750764 
L 432.34593 139.680106 
L 433.34593 139.567166 
L 434.34593 139.521393 
L 435.34593 139.46011 
L 436.34593 139.41161 
L 437.34593 139.330788 
L 438.34593 139.212269 
L 439.34593 139.142058 
L 440.34593 139.058796 
L 441.34593 139.025654 
L 442.34593 138.974416 
L 443.34593 138.906018 
L 444.34593 138.839803 
L 445.34593 138.762886 
L 446.666182 138.73557 
" clip-path="url(#pc6f87bca23)" style="fill: none; stroke: #ff7f0e; stroke-opacity: 0.5; stroke-width: 0.2; stroke-linecap: square"/>
   <path d="M 390.34593 292.958045 
L 391.34593 292.989481 
L 392.34593 293.026421 
L 393.34593 293.124168 
L 394.34593 293.156689 
L 395.34593 293.230314 
L 396.34593 293.26888 
L 397.34593 293.304293 
L 398.34593 293.361933 
L 399.34593 293.432319 
L 400.34593 293.484283 
L 401.34593 293.543373 
L 402.34593 293.631694 
L 403.34593 293.677838 
L 404.34593 293.720249 
L 405.34593 293.750742 
L 406.34593 293.776787 
L 407.34593 293.797987 
L 408.34593 293.852288 
L 409.34593 293.880226 
L 410.34593 293.90995 
L 411.34593 293.935344 
L 412.34593 293.946545 
L 413.34593 293.956669 
L 414.34593 293.956464 
L 415.34593 293.946954 
L 416.34593 293.935301 
L 417.34593 293.904272 
L 418.34593 293.893104 
L 419.34593 293.862986 
L 420.34593 293.803209 
L 421.34593 293.766018 
L 422.34593 293.726922 
L 423.34593 293.684482 
L 424.34593 293.651717 
L 425.34593 293.58429 
L 426.34593 293.545165 
L 427.34593 293.50249 
L 428.34593 293.431909 
L 429.34593 293.395519 
L 430.34593 293.337115 
L 431.34593 293.226163 
L 432.34593 293.155504 
L 433.34593 293.042565 
L 434.34593 292.996792 
L 435.34593 292.935508 
L 436.34593 292.887009 
L 437.34593 292.806186 
L 438.34593 292.687668 
L 439.34593 292.617457 
L 440.34593 292.534194 
L 441.34593 292.501053 
L 442.34593 292.449815 
L 443.34593 292.381417 
L 444.34593 292.315202 
L 445.34593 292.238285 
L 446.666182 292.210969 
" clip-path="url(#pc6f87bca23)" style="fill: none; stroke: #ff7f0e; stroke-opacity: 0.5; stroke-width: 0.2; stroke-linecap: square"/>
   <path d="M 390.34593 311.121983 
L 391.34593 311.15342 
L 392.34593 311.19036 
L 393.34593 311.288107 
L 394.34593 311.320628 
L 395.34593 311.394253 
L 396.34593 311.432818 
L 397.34593 311.468232 
L 398.34593 311.525872 
L 399.34593 311.596258 
L 400.34593 311.648222 
L 401.34593 311.707312 
L 402.34593 311.795633 
L 403.34593 311.841777 
L 404.34593 311.884188 
L 405.34593 311.914681 
L 406.34593 311.940726 
L 407.34593 311.961926 
L 408.34593 312.016227 
L 409.34593 312.044164 
L 410.34593 312.073888 
L 411.34593 312.099283 
L 412.34593 312.110483 
L 413.34593 312.120607 
L 414.34593 312.120403 
L 415.34593 312.110893 
L 416.34593 312.09924 
L 417.34593 312.06821 
L 418.34593 312.057042 
L 419.34593 312.026925 
L 420.34593 311.967148 
L 421.34593 311.929956 
L 422.34593 311.89086 
L 423.34593 311.848421 
L 424.34593 311.815656 
L 425.34593 311.748229 
L 426.34593 311.709103 
L 427.34593 311.666429 
L 428.34593 311.595848 
L 429.34593 311.559457 
L 430.34593 311.501054 
L 431.34593 311.390101 
L 432.34593 311.319443 
L 433.34593 311.206503 
L 434.34593 311.16073 
L 435.34593 311.099447 
L 436.34593 311.050948 
L 437.34593 310.970125 
L 438.34593 310.851606 
L 439.34593 310.781396 
L 440.34593 310.698133 
L 441.34593 310.664991 
L 442.34593 310.613754 
L 443.34593 310.545356 
L 444.34593 310.47914 
L 445.34593 310.402223 
L 446.666182 310.374908 
" clip-path="url(#pc6f87bca23)" style="fill: none; stroke: #ff7f0e; stroke-opacity: 0.5; stroke-width: 0.2; stroke-linecap: square"/>
   <path d="M 390.34593 256.849198 
L 391.34593 256.880635 
L 392.34593 256.917575 
L 393.34593 257.015322 
L 394.34593 257.047843 
L 395.34593 257.121468 
L 396.34593 257.160034 
L 397.34593 257.195447 
L 398.34593 257.253087 
L 399.34593 257.323473 
L 400.34593 257.375437 
L 401.34593 257.434527 
L 402.34593 257.522848 
L 403.34593 257.568992 
L 404.34593 257.611403 
L 405.34593 257.641896 
L 406.34593 257.667941 
L 407.34593 257.689141 
L 408.34593 257.743442 
L 409.34593 257.771379 
L 410.34593 257.801103 
L 411.34593 257.826498 
L 412.34593 257.837699 
L 413.34593 257.847823 
L 414.34593 257.847618 
L 415.34593 257.838108 
L 416.34593 257.826455 
L 417.34593 257.795425 
L 418.34593 257.784258 
L 419.34593 257.75414 
L 420.34593 257.694363 
L 421.34593 257.657172 
L 422.34593 257.618075 
L 423.34593 257.575636 
L 424.34593 257.542871 
L 425.34593 257.475444 
L 426.34593 257.436318 
L 427.34593 257.393644 
L 428.34593 257.323063 
L 429.34593 257.286672 
L 430.34593 257.228269 
L 431.34593 257.117317 
L 432.34593 257.046658 
L 433.34593 256.933718 
L 434.34593 256.887946 
L 435.34593 256.826662 
L 436.34593 256.778163 
L 437.34593 256.69734 
L 438.34593 256.578821 
L 439.34593 256.508611 
L 440.34593 256.425348 
L 441.34593 256.392206 
L 442.34593 256.340969 
L 443.34593 256.272571 
L 444.34593 256.206355 
L 445.34593 256.129438 
L 446.666182 256.102123 
" clip-path="url(#pc6f87bca23)" style="fill: none; stroke: #ff7f0e; stroke-opacity: 0.5; stroke-width: 0.2; stroke-linecap: square"/>
   <path d="M 446.666182 182.301427 
L 445.666182 182.269991 
L 444.666182 182.233051 
L 443.666182 182.135304 
L 442.666182 182.102783 
L 441.666182 182.029158 
L 440.666182 181.990592 
L 439.666182 181.955179 
L 438.666182 181.897539 
L 437.666182 181.827153 
L 436.666182 181.775189 
L 435.666182 181.716099 
L 434.666182 181.627778 
L 433.666182 181.581634 
L 432.666182 181.539223 
L 431.666182 181.50873 
L 430.666182 181.482685 
L 429.666182 181.461485 
L 428.666182 181.407184 
L 427.666182 181.379246 
L 426.666182 181.349522 
L 425.666182 181.324128 
L 424.666182 181.312927 
L 423.666182 181.302803 
L 422.666182 181.303008 
L 421.666182 181.312518 
L 420.666182 181.324171 
L 419.666182 181.3552 
L 418.666182 181.366368 
L 417.666182 181.396486 
L 416.666182 181.456263 
L 415.666182 181.493454 
L 414.666182 181.53255 
L 413.666182 181.57499 
L 412.666182 181.607755 
L 411.666182 181.675182 
L 410.666182 181.714308 
L 409.666182 181.756982 
L 408.666182 181.827563 
L 407.666182 181.863954 
L 406.666182 181.922357 
L 405.666182 182.033309 
L 404.666182 182.103968 
L 403.666182 182.216907 
L 402.666182 182.26268 
L 401.666182 182.323964 
L 400.666182 182.372463 
L 399.666182 182.453286 
L 398.666182 182.571804 
L 397.666182 182.642015 
L 396.666182 182.725278 
L 395.666182 182.758419 
L 394.666182 182.809657 
L 393.666182 182.878055 
L 392.666182 182.94427 
L 391.666182 183.021188 
L 390.34593 183.048503 
" clip-path="url(#pc6f87bca23)" style="fill: none; stroke: #2ca02c; stroke-opacity: 0.5; stroke-width: 0.2; stroke-linecap: square"/>
   <path d="M 446.666182 287.502735 
L 445.666182 287.471298 
L 444.666182 287.434358 
L 443.666182 287.336611 
L 442.666182 287.30409 
L 441.666182 287.230465 
L 440.666182 287.191899 
L 439.666182 287.156486 
L 438.666182 287.098846 
L 437.666182 287.02846 
L 436.666182 286.976496 
L 435.666182 286.917406 
L 434.666182 286.829085 
L 433.666182 286.782941 
L 432.666182 286.74053 
L 431.666182 286.710037 
L 430.666182 286.683992 
L 429.666182 286.662792 
L 428.666182 286.608491 
L 427.666182 286.580554 
L 426.666182 286.55083 
L 425.666182 286.525435 
L 424.666182 286.514234 
L 423.666182 286.50411 
L 422.666182 286.504315 
L 421.666182 286.513825 
L 420.666182 286.525478 
L 419.666182 286.556508 
L 418.666182 286.567675 
L 417.666182 286.597793 
L 416.666182 286.65757 
L 415.666182 286.694761 
L 414.666182 286.733858 
L 413.666182 286.776297 
L 412.666182 286.809062 
L 411.666182 286.876489 
L 410.666182 286.915615 
L 409.666182 286.958289 
L 408.666182 287.02887 
L 407.666182 287.065261 
L 406.666182 287.123664 
L 405.666182 287.234616 
L 404.666182 287.305275 
L 403.666182 287.418215 
L 402.666182 287.463987 
L 401.666182 287.525271 
L 400.666182 287.57377 
L 399.666182 287.654593 
L 398.666182 287.773112 
L 397.666182 287.843322 
L 396.666182 287.926585 
L 395.666182 287.959726 
L 394.666182 288.010964 
L 393.666182 288.079362 
L 392.666182 288.145578 
L 391.666182 288.222495 
L 390.34593 288.24981 
" clip-path="url(#pc6f87bca23)" style="fill: none; stroke: #2ca02c; stroke-opacity: 0.5; stroke-width: 0.2; stroke-linecap: square"/>
   <path d="M 446.666182 207.674069 
L 445.666182 207.642632 
L 444.666182 207.605692 
L 443.666182 207.507945 
L 442.666182 207.475424 
L 441.666182 207.401799 
L 440.666182 207.363234 
L 439.666182 207.32782 
L 438.666182 207.27018 
L 437.666182 207.199794 
L 436.666182 207.14783 
L 435.666182 207.08874 
L 434.666182 207.000419 
L 433.666182 206.954275 
L 432.666182 206.911864 
L 431.666182 206.881371 
L 430.666182 206.855326 
L 429.666182 206.834126 
L 428.666182 206.779825 
L 427.666182 206.751888 
L 426.666182 206.722164 
L 425.666182 206.696769 
L 424.666182 206.685568 
L 423.666182 206.675445 
L 422.666182 206.675649 
L 421.666182 206.685159 
L 420.666182 206.696812 
L 419.666182 206.727842 
L 418.666182 206.73901 
L 417.666182 206.769127 
L 416.666182 206.828904 
L 415.666182 206.866096 
L 414.666182 206.905192 
L 413.666182 206.947631 
L 412.666182 206.980396 
L 411.666182 207.047823 
L 410.666182 207.086949 
L 409.666182 207.129623 
L 408.666182 207.200204 
L 407.666182 207.236595 
L 406.666182 207.294998 
L 405.666182 207.40595 
L 404.666182 207.476609 
L 403.666182 207.589549 
L 402.666182 207.635322 
L 401.666182 207.696605 
L 400.666182 207.745104 
L 399.666182 207.825927 
L 398.666182 207.944446 
L 397.666182 208.014656 
L 396.666182 208.097919 
L 395.666182 208.131061 
L 394.666182 208.182298 
L 393.666182 208.250696 
L 392.666182 208.316912 
L 391.666182 208.393829 
L 390.34593 208.421144 
" clip-path="url(#pc6f87bca23)" style="fill: none; stroke: #2ca02c; stroke-opacity: 0.5; stroke-width: 0.2; stroke-linecap: square"/>
   <path d="M 446.666182 250.20277 
L 445.666182 250.171334 
L 444.666182 250.134393 
L 443.666182 250.036647 
L 442.666182 250.004125 
L 441.666182 249.9305 
L 440.666182 249.891935 
L 439.666182 249.856522 
L 438.666182 249.798882 
L 437.666182 249.728496 
L 436.666182 249.676531 
L 435.666182 249.617442 
L 434.666182 249.529121 
L 433.666182 249.482976 
L 432.666182 249.440565 
L 431.666182 249.410073 
L 430.666182 249.384028 
L 429.666182 249.362828 
L 428.666182 249.308527 
L 427.666182 249.280589 
L 426.666182 249.250865 
L 425.666182 249.22547 
L 424.666182 249.21427 
L 423.666182 249.204146 
L 422.666182 249.20435 
L 421.666182 249.21386 
L 420.666182 249.225514 
L 419.666182 249.256543 
L 418.666182 249.267711 
L 417.666182 249.297828 
L 416.666182 249.357605 
L 415.666182 249.394797 
L 414.666182 249.433893 
L 413.666182 249.476333 
L 412.666182 249.509098 
L 411.666182 249.576524 
L 410.666182 249.61565 
L 409.666182 249.658325 
L 408.666182 249.728905 
L 407.666182 249.765296 
L 406.666182 249.823699 
L 405.666182 249.934652 
L 404.666182 250.00531 
L 403.666182 250.11825 
L 402.666182 250.164023 
L 401.666182 250.225306 
L 400.666182 250.273805 
L 399.666182 250.354628 
L 398.666182 250.473147 
L 397.666182 250.543358 
L 396.666182 250.62662 
L 395.666182 250.659762 
L 394.666182 250.710999 
L 393.666182 250.779398 
L 392.666182 250.845613 
L 391.666182 250.92253 
L 390.34593 250.949846 
" clip-path="url(#pc6f87bca23)" style="fill: none; stroke: #2ca02c; stroke-opacity: 0.5; stroke-width: 0.2; stroke-linecap: square"/>
   <path d="M 446.666182 209.132672 
L 445.666182 209.101235 
L 444.666182 209.064295 
L 443.666182 208.966548 
L 442.666182 208.934027 
L 441.666182 208.860402 
L 440.666182 208.821836 
L 439.666182 208.786423 
L 438.666182 208.728783 
L 437.666182 208.658397 
L 436.666182 208.606433 
L 435.666182 208.547343 
L 434.666182 208.459022 
L 433.666182 208.412878 
L 432.666182 208.370467 
L 431.666182 208.339974 
L 430.666182 208.313929 
L 429.666182 208.292729 
L 428.666182 208.238428 
L 427.666182 208.210491 
L 426.666182 208.180767 
L 425.666182 208.155372 
L 424.666182 208.144171 
L 423.666182 208.134048 
L 422.666182 208.134252 
L 421.666182 208.143762 
L 420.666182 208.155415 
L 419.666182 208.186445 
L 418.666182 208.197612 
L 417.666182 208.22773 
L 416.666182 208.287507 
L 415.666182 208.324698 
L 414.666182 208.363795 
L 413.666182 208.406234 
L 412.666182 208.438999 
L 411.666182 208.506426 
L 410.666182 208.545552 
L 409.666182 208.588226 
L 408.666182 208.658807 
L 407.666182 208.695198 
L 406.666182 208.753601 
L 405.666182 208.864553 
L 404.666182 208.935212 
L 403.666182 209.048152 
L 402.666182 209.093924 
L 401.666182 209.155208 
L 400.666182 209.203707 
L 399.666182 209.28453 
L 398.666182 209.403049 
L 397.666182 209.473259 
L 396.666182 209.556522 
L 395.666182 209.589664 
L 394.666182 209.640901 
L 393.666182 209.709299 
L 392.666182 209.775515 
L 391.666182 209.852432 
L 390.34593 209.879747 
" clip-path="url(#pc6f87bca23)" style="fill: none; stroke: #2ca02c; stroke-opacity: 0.5; stroke-width: 0.2; stroke-linecap: square"/>
   <path d="M 446.666182 207.191425 
L 445.666182 207.159989 
L 444.666182 207.123048 
L 443.666182 207.025302 
L 442.666182 206.99278 
L 441.666182 206.919155 
L 440.666182 206.88059 
L 439.666182 206.845177 
L 438.666182 206.787537 
L 437.666182 206.717151 
L 436.666182 206.665186 
L 435.666182 206.606097 
L 434.666182 206.517776 
L 433.666182 206.471631 
L 432.666182 206.42922 
L 431.666182 206.398728 
L 430.666182 206.372683 
L 429.666182 206.351483 
L 428.666182 206.297182 
L 427.666182 206.269244 
L 426.666182 206.23952 
L 425.666182 206.214125 
L 424.666182 206.202925 
L 423.666182 206.192801 
L 422.666182 206.193005 
L 421.666182 206.202515 
L 420.666182 206.214169 
L 419.666182 206.245198 
L 418.666182 206.256366 
L 417.666182 206.286483 
L 416.666182 206.34626 
L 415.666182 206.383452 
L 414.666182 206.422548 
L 413.666182 206.464988 
L 412.666182 206.497753 
L 411.666182 206.565179 
L 410.666182 206.604305 
L 409.666182 206.64698 
L 408.666182 206.71756 
L 407.666182 206.753951 
L 406.666182 206.812354 
L 405.666182 206.923307 
L 404.666182 206.993965 
L 403.666182 207.106905 
L 402.666182 207.152678 
L 401.666182 207.213961 
L 400.666182 207.26246 
L 399.666182 207.343283 
L 398.666182 207.461802 
L 397.666182 207.532013 
L 396.666182 207.615275 
L 395.666182 207.648417 
L 394.666182 207.699654 
L 393.666182 207.768053 
L 392.666182 207.834268 
L 391.666182 207.911185 
L 390.34593 207.938501 
" clip-path="url(#pc6f87bca23)" style="fill: none; stroke: #2ca02c; stroke-opacity: 0.5; stroke-width: 0.2; stroke-linecap: square"/>
   <path d="M 446.666182 200.384131 
L 445.666182 200.352695 
L 444.666182 200.315755 
L 443.666182 200.218008 
L 442.666182 200.185486 
L 441.666182 200.111862 
L 440.666182 200.073296 
L 439.666182 200.037883 
L 438.666182 199.980243 
L 437.666182 199.909857 
L 436.666182 199.857893 
L 435.666182 199.798803 
L 434.666182 199.710482 
L 433.666182 199.664338 
L 432.666182 199.621927 
L 431.666182 199.591434 
L 430.666182 199.565389 
L 429.666182 199.544189 
L 428.666182 199.489888 
L 427.666182 199.46195 
L 426.666182 199.432226 
L 425.666182 199.406832 
L 424.666182 199.395631 
L 423.666182 199.385507 
L 422.666182 199.385712 
L 421.666182 199.395221 
L 420.666182 199.406875 
L 419.666182 199.437904 
L 418.666182 199.449072 
L 417.666182 199.47919 
L 416.666182 199.538967 
L 415.666182 199.576158 
L 414.666182 199.615254 
L 413.666182 199.657694 
L 412.666182 199.690459 
L 411.666182 199.757885 
L 410.666182 199.797011 
L 409.666182 199.839686 
L 408.666182 199.910267 
L 407.666182 199.946657 
L 406.666182 200.005061 
L 405.666182 200.116013 
L 404.666182 200.186671 
L 403.666182 200.299611 
L 402.666182 200.345384 
L 401.666182 200.406667 
L 400.666182 200.455167 
L 399.666182 200.535989 
L 398.666182 200.654508 
L 397.666182 200.724719 
L 396.666182 200.807981 
L 395.666182 200.841123 
L 394.666182 200.892361 
L 393.666182 200.960759 
L 392.666182 201.026974 
L 391.666182 201.103891 
L 390.34593 201.131207 
" clip-path="url(#pc6f87bca23)" style="fill: none; stroke: #2ca02c; stroke-opacity: 0.5; stroke-width: 0.2; stroke-linecap: square"/>
   <path d="M 446.666182 210.131941 
L 445.666182 210.100504 
L 444.666182 210.063564 
L 443.666182 209.965817 
L 442.666182 209.933296 
L 441.666182 209.859671 
L 440.666182 209.821106 
L 439.666182 209.785692 
L 438.666182 209.728052 
L 437.666182 209.657666 
L 436.666182 209.605702 
L 435.666182 209.546612 
L 434.666182 209.458291 
L 433.666182 209.412147 
L 432.666182 209.369736 
L 431.666182 209.339243 
L 430.666182 209.313198 
L 429.666182 209.291998 
L 428.666182 209.237697 
L 427.666182 209.20976 
L 426.666182 209.180036 
L 425.666182 209.154641 
L 424.666182 209.143441 
L 423.666182 209.133317 
L 422.666182 209.133521 
L 421.666182 209.143031 
L 420.666182 209.154684 
L 419.666182 209.185714 
L 418.666182 209.196882 
L 417.666182 209.226999 
L 416.666182 209.286776 
L 415.666182 209.323968 
L 414.666182 209.363064 
L 413.666182 209.405503 
L 412.666182 209.438268 
L 411.666182 209.505695 
L 410.666182 209.544821 
L 409.666182 209.587495 
L 408.666182 209.658076 
L 407.666182 209.694467 
L 406.666182 209.75287 
L 405.666182 209.863823 
L 404.666182 209.934481 
L 403.666182 210.047421 
L 402.666182 210.093194 
L 401.666182 210.154477 
L 400.666182 210.202976 
L 399.666182 210.283799 
L 398.666182 210.402318 
L 397.666182 210.472528 
L 396.666182 210.555791 
L 395.666182 210.588933 
L 394.666182 210.64017 
L 393.666182 210.708568 
L 392.666182 210.774784 
L 391.666182 210.851701 
L 390.34593 210.879016 
" clip-path="url(#pc6f87bca23)" style="fill: none; stroke: #2ca02c; stroke-opacity: 0.5; stroke-width: 0.2; stroke-linecap: square"/>
   <path d="M 446.666182 170.557412 
L 445.666182 170.525976 
L 444.666182 170.489035 
L 443.666182 170.391289 
L 442.666182 170.358767 
L 441.666182 170.285142 
L 440.666182 170.246577 
L 439.666182 170.211164 
L 438.666182 170.153524 
L 437.666182 170.083138 
L 436.666182 170.031173 
L 435.666182 169.972084 
L 434.666182 169.883763 
L 433.666182 169.837618 
L 432.666182 169.795207 
L 431.666182 169.764715 
L 430.666182 169.73867 
L 429.666182 169.71747 
L 428.666182 169.663169 
L 427.666182 169.635231 
L 426.666182 169.605507 
L 425.666182 169.580112 
L 424.666182 169.568912 
L 423.666182 169.558788 
L 422.666182 169.558992 
L 421.666182 169.568502 
L 420.666182 169.580156 
L 419.666182 169.611185 
L 418.666182 169.622353 
L 417.666182 169.65247 
L 416.666182 169.712247 
L 415.666182 169.749439 
L 414.666182 169.788535 
L 413.666182 169.830975 
L 412.666182 169.86374 
L 411.666182 169.931166 
L 410.666182 169.970292 
L 409.666182 170.012967 
L 408.666182 170.083547 
L 407.666182 170.119938 
L 406.666182 170.178341 
L 405.666182 170.289294 
L 404.666182 170.359952 
L 403.666182 170.472892 
L 402.666182 170.518665 
L 401.666182 170.579948 
L 400.666182 170.628447 
L 399.666182 170.70927 
L 398.666182 170.827789 
L 397.666182 170.898 
L 396.666182 170.981262 
L 395.666182 171.014404 
L 394.666182 171.065641 
L 393.666182 171.13404 
L 392.666182 171.200255 
L 391.666182 171.277172 
L 390.34593 171.304488 
" clip-path="url(#pc6f87bca23)" style="fill: none; stroke: #2ca02c; stroke-opacity: 0.5; stroke-width: 0.2; stroke-linecap: square"/>
   <path d="M 446.666182 238.325903 
L 445.666182 238.294467 
L 444.666182 238.257526 
L 443.666182 238.15978 
L 442.666182 238.127258 
L 441.666182 238.053634 
L 440.666182 238.015068 
L 439.666182 237.979655 
L 438.666182 237.922015 
L 437.666182 237.851629 
L 436.666182 237.799665 
L 435.666182 237.740575 
L 434.666182 237.652254 
L 433.666182 237.606109 
L 432.666182 237.563699 
L 431.666182 237.533206 
L 430.666182 237.507161 
L 429.666182 237.485961 
L 428.666182 237.43166 
L 427.666182 237.403722 
L 426.666182 237.373998 
L 425.666182 237.348603 
L 424.666182 237.337403 
L 423.666182 237.327279 
L 422.666182 237.327483 
L 421.666182 237.336993 
L 420.666182 237.348647 
L 419.666182 237.379676 
L 418.666182 237.390844 
L 417.666182 237.420962 
L 416.666182 237.480738 
L 415.666182 237.51793 
L 414.666182 237.557026 
L 413.666182 237.599466 
L 412.666182 237.632231 
L 411.666182 237.699657 
L 410.666182 237.738783 
L 409.666182 237.781458 
L 408.666182 237.852038 
L 407.666182 237.888429 
L 406.666182 237.946832 
L 405.666182 238.057785 
L 404.666182 238.128443 
L 403.666182 238.241383 
L 402.666182 238.287156 
L 401.666182 238.348439 
L 400.666182 238.396939 
L 399.666182 238.477761 
L 398.666182 238.59628 
L 397.666182 238.666491 
L 396.666182 238.749753 
L 395.666182 238.782895 
L 394.666182 238.834132 
L 393.666182 238.902531 
L 392.666182 238.968746 
L 391.666182 239.045663 
L 390.34593 239.072979 
" clip-path="url(#pc6f87bca23)" style="fill: none; stroke: #2ca02c; stroke-opacity: 0.5; stroke-width: 0.2; stroke-linecap: square"/>
   <g id="patch_3">
    <path d="M 72.103551 22.318125 
L 72.103551 318.021875 
M 194.769099 22.318125 
L 194.769099 318.021875 
" clip-path="url(#pc6f87bca23)" style="fill: none; stroke: #ffffff; stroke-width: 3; stroke-linejoin: miter"/>
    <path d="M 72.103551 22.318125 
L 72.103551 318.021875 
M 194.769099 22.318125 
L 194.769099 318.021875 
" clip-path="url(#pc6f87bca23)" style="fill: none; stroke: #1f77b4; stroke-linejoin: miter"/>
    <g id="PolyCollection_1">
     <path d="M 194.769099 22.318125 
L 72.103551 22.318125 
L 72.103551 318.021875 
L 194.769099 318.021875 
L 194.769099 318.021875 
L 194.769099 22.318125 
z
" clip-path="url(#pc6f87bca23)" style="fill: #1f77b4; fill-opacity: 0.5"/>
    </g>
    <g id="patch_4">
     <path d="M 262.150038 22.318125 
L 262.150038 318.021875 
M 384.815587 22.318125 
L 384.815587 318.021875 
" clip-path="url(#pc6f87bca23)" style="fill: none; stroke: #ffffff; stroke-width: 3; stroke-linejoin: miter"/>
     <path d="M 262.150038 22.318125 
L 262.150038 318.021875 
M 384.815587 22.318125 
L 384.815587 318.021875 
" clip-path="url(#pc6f87bca23)" style="fill: none; stroke: #ff7f0e; stroke-linejoin: miter"/>
     <g id="PolyCollection_2">
      <path d="M 384.815587 22.318125 
L 262.150038 22.318125 
L 262.150038 318.021875 
L 384.815587 318.021875 
L 384.815587 318.021875 
L 384.815587 22.318125 
z
" clip-path="url(#pc6f87bca23)" style="fill: #ff7f0e; fill-opacity: 0.5"/>
     </g>
     <g id="patch_5">
      <path d="M 452.196526 22.318125 
L 452.196526 318.021875 
M 574.862074 22.318125 
L 574.862074 318.021875 
" clip-path="url(#pc6f87bca23)" style="fill: none; stroke: #ffffff; stroke-width: 3; stroke-linejoin: miter"/>
      <path d="M 452.196526 22.318125 
L 452.196526 318.021875 
M 574.862074 22.318125 
L 574.862074 318.021875 
" clip-path="url(#pc6f87bca23)" style="fill: none; stroke: #2ca02c; stroke-linejoin: miter"/>
      <g id="PolyCollection_3">
       <path d="M 574.862074 22.318125 
L 452.196526 22.318125 
L 452.196526 318.021875 
L 574.862074 318.021875 
L 574.862074 318.021875 
L 574.862074 22.318125 
z
" clip-path="url(#pc6f87bca23)" style="fill: #2ca02c; fill-opacity: 0.5"/>
      </g>
      <g id="matplotlib.axis_1">
       <g id="xtick_1">
        <g id="line2d_1"/>
        <g id="text_1">
         <!-- deme1 -->
         <g transform="translate(116.057419 329.120312) scale(0.1 -0.1)">
          <defs>
           <path id="DejaVuSans-64" d="M 2906 2969 
L 2906 4863 
L 3481 4863 
L 3481 0 
L 2906 0 
L 2906 525 
Q 2725 213 2448 61 
Q 2172 -91 1784 -91 
Q 1150 -91 751 415 
Q 353 922 353 1747 
Q 353 2572 751 3078 
Q 1150 3584 1784 3584 
Q 2172 3584 2448 3432 
Q 2725 3281 2906 2969 
z
M 947 1747 
Q 947 1113 1208 752 
Q 1469 391 1925 391 
Q 2381 391 2643 752 
Q 2906 1113 2906 1747 
Q 2906 2381 2643 2742 
Q 2381 3103 1925 3103 
Q 1469 3103 1208 2742 
Q 947 2381 947 1747 
z
" transform="scale(0.015625)"/>
           <path id="DejaVuSans-65" d="M 3597 1894 
L 3597 1613 
L 953 1613 
Q 991 1019 1311 708 
Q 1631 397 2203 397 
Q 2534 397 2845 478 
Q 3156 559 3463 722 
L 3463 178 
Q 3153 47 2828 -22 
Q 2503 -91 2169 -91 
Q 1331 -91 842 396 
Q 353 884 353 1716 
Q 353 2575 817 3079 
Q 1281 3584 2069 3584 
Q 2775 3584 3186 3129 
Q 3597 2675 3597 1894 
z
M 3022 2063 
Q 3016 2534 2758 2815 
Q 2500 3097 2075 3097 
Q 1594 3097 1305 2825 
Q 1016 2553 972 2059 
L 3022 2063 
z
" transform="scale(0.015625)"/>
           <path id="DejaVuSans-6d" d="M 3328 2828 
Q 3544 3216 3844 3400 
Q 4144 3584 4550 3584 
Q 5097 3584 5394 3201 
Q 5691 2819 5691 2113 
L 5691 0 
L 5113 0 
L 5113 2094 
Q 5113 2597 4934 2840 
Q 4756 3084 4391 3084 
Q 3944 3084 3684 2787 
Q 3425 2491 3425 1978 
L 3425 0 
L 2847 0 
L 2847 2094 
Q 2847 2600 2669 2842 
Q 2491 3084 2119 3084 
Q 1678 3084 1418 2786 
Q 1159 2488 1159 1978 
L 1159 0 
L 581 0 
L 581 3500 
L 1159 3500 
L 1159 2956 
Q 1356 3278 1631 3431 
Q 1906 3584 2284 3584 
Q 2666 3584 2933 3390 
Q 3200 3197 3328 2828 
z
" transform="scale(0.015625)"/>
           <path id="DejaVuSans-31" d="M 794 531 
L 1825 531 
L 1825 4091 
L 703 3866 
L 703 4441 
L 1819 4666 
L 2450 4666 
L 2450 531 
L 3481 531 
L 3481 0 
L 794 0 
L 794 531 
z
" transform="scale(0.015625)"/>
          </defs>
          <use xlink:href="#DejaVuSans-64"/>
          <use xlink:href="#DejaVuSans-65" x="63.476562"/>
          <use xlink:href="#DejaVuSans-6d" x="125"/>
          <use xlink:href="#DejaVuSans-65" x="222.412109"/>
          <use xlink:href="#DejaVuSans-31" x="283.935547"/>
         </g>
        </g>
       </g>
       <g id="xtick_2">
        <g id="line2d_2"/>
        <g id="text_2">
         <!-- deme2 -->
         <g transform="translate(306.103906 329.120312) scale(0.1 -0.1)">
          <defs>
           <path id="DejaVuSans-32" d="M 1228 531 
L 3431 531 
L 3431 0 
L 469 0 
L 469 531 
Q 828 903 1448 1529 
Q 2069 2156 2228 2338 
Q 2531 2678 2651 2914 
Q 2772 3150 2772 3378 
Q 2772 3750 2511 3984 
Q 2250 4219 1831 4219 
Q 1534 4219 1204 4116 
Q 875 4013 500 3803 
L 500 4441 
Q 881 4594 1212 4672 
Q 1544 4750 1819 4750 
Q 2544 4750 2975 4387 
Q 3406 4025 3406 3419 
Q 3406 3131 3298 2873 
Q 3191 2616 2906 2266 
Q 2828 2175 2409 1742 
Q 1991 1309 1228 531 
z
" transform="scale(0.015625)"/>
          </defs>
          <use xlink:href="#DejaVuSans-64"/>
          <use xlink:href="#DejaVuSans-65" x="63.476562"/>
          <use xlink:href="#DejaVuSans-6d" x="125"/>
          <use xlink:href="#DejaVuSans-65" x="222.412109"/>
          <use xlink:href="#DejaVuSans-32" x="283.935547"/>
         </g>
        </g>
       </g>
       <g id="xtick_3">
        <g id="line2d_3"/>
        <g id="text_3">
         <!-- deme3 -->
         <g transform="translate(496.150394 329.120312) scale(0.1 -0.1)">
          <defs>
           <path id="DejaVuSans-33" d="M 2597 2516 
Q 3050 2419 3304 2112 
Q 3559 1806 3559 1356 
Q 3559 666 3084 287 
Q 2609 -91 1734 -91 
Q 1441 -91 1130 -33 
Q 819 25 488 141 
L 488 750 
Q 750 597 1062 519 
Q 1375 441 1716 441 
Q 2309 441 2620 675 
Q 2931 909 2931 1356 
Q 2931 1769 2642 2001 
Q 2353 2234 1838 2234 
L 1294 2234 
L 1294 2753 
L 1863 2753 
Q 2328 2753 2575 2939 
Q 2822 3125 2822 3475 
Q 2822 3834 2567 4026 
Q 2313 4219 1838 4219 
Q 1578 4219 1281 4162 
Q 984 4106 628 3988 
L 628 4550 
Q 988 4650 1302 4700 
Q 1616 4750 1894 4750 
Q 2613 4750 3031 4423 
Q 3450 4097 3450 3541 
Q 3450 3153 3228 2886 
Q 3006 2619 2597 2516 
z
" transform="scale(0.015625)"/>
          </defs>
          <use xlink:href="#DejaVuSans-64"/>
          <use xlink:href="#DejaVuSans-65" x="63.476562"/>
          <use xlink:href="#DejaVuSans-6d" x="125"/>
          <use xlink:href="#DejaVuSans-65" x="222.412109"/>
          <use xlink:href="#DejaVuSans-33" x="283.935547"/>
         </g>
        </g>
       </g>
      </g>
      <g id="matplotlib.axis_2">
       <g id="ytick_1">
        <g id="line2d_4">
         <defs>
          <path id="m199198e654" d="M 0 0 
L -3.5 0 
" style="stroke: #000000; stroke-width: 0.8"/>
         </defs>
         <g>
          <use xlink:href="#m199198e654" x="46.965625" y="318.021875" style="stroke: #000000; stroke-width: 0.8"/>
         </g>
        </g>
        <g id="text_4">
         <!-- 0 -->
         <g transform="translate(33.603125 321.821094) scale(0.1 -0.1)">
          <defs>
           <path id="DejaVuSans-30" d="M 2034 4250 
Q 1547 4250 1301 3770 
Q 1056 3291 1056 2328 
Q 1056 1369 1301 889 
Q 1547 409 2034 409 
Q 2525 409 2770 889 
Q 3016 1369 3016 2328 
Q 3016 3291 2770 3770 
Q 2525 4250 2034 4250 
z
M 2034 4750 
Q 2819 4750 3233 4129 
Q 3647 3509 3647 2328 
Q 3647 1150 3233 529 
Q 2819 -91 2034 -91 
Q 1250 -91 836 529 
Q 422 1150 422 2328 
Q 422 3509 836 4129 
Q 1250 4750 2034 4750 
z
" transform="scale(0.015625)"/>
          </defs>
          <use xlink:href="#DejaVuSans-30"/>
         </g>
        </g>
       </g>
       <g id="ytick_2">
        <g id="line2d_5">
         <g>
          <use xlink:href="#m199198e654" x="46.965625" y="265.684928" style="stroke: #000000; stroke-width: 0.8"/>
         </g>
        </g>
        <g id="text_5">
         <!-- 20 -->
         <g transform="translate(27.240625 269.484147) scale(0.1 -0.1)">
          <use xlink:href="#DejaVuSans-32"/>
          <use xlink:href="#DejaVuSans-30" x="63.623047"/>
         </g>
        </g>
       </g>
       <g id="ytick_3">
        <g id="line2d_6">
         <g>
          <use xlink:href="#m199198e654" x="46.965625" y="213.347981" style="stroke: #000000; stroke-width: 0.8"/>
         </g>
        </g>
        <g id="text_6">
         <!-- 40 -->
         <g transform="translate(27.240625 217.1472) scale(0.1 -0.1)">
          <defs>
           <path id="DejaVuSans-34" d="M 2419 4116 
L 825 1625 
L 2419 1625 
L 2419 4116 
z
M 2253 4666 
L 3047 4666 
L 3047 1625 
L 3713 1625 
L 3713 1100 
L 3047 1100 
L 3047 0 
L 2419 0 
L 2419 1100 
L 313 1100 
L 313 1709 
L 2253 4666 
z
" transform="scale(0.015625)"/>
          </defs>
          <use xlink:href="#DejaVuSans-34"/>
          <use xlink:href="#DejaVuSans-30" x="63.623047"/>
         </g>
        </g>
       </g>
       <g id="ytick_4">
        <g id="line2d_7">
         <g>
          <use xlink:href="#m199198e654" x="46.965625" y="161.011034" style="stroke: #000000; stroke-width: 0.8"/>
         </g>
        </g>
        <g id="text_7">
         <!-- 60 -->
         <g transform="translate(27.240625 164.810253) scale(0.1 -0.1)">
          <defs>
           <path id="DejaVuSans-36" d="M 2113 2584 
Q 1688 2584 1439 2293 
Q 1191 2003 1191 1497 
Q 1191 994 1439 701 
Q 1688 409 2113 409 
Q 2538 409 2786 701 
Q 3034 994 3034 1497 
Q 3034 2003 2786 2293 
Q 2538 2584 2113 2584 
z
M 3366 4563 
L 3366 3988 
Q 3128 4100 2886 4159 
Q 2644 4219 2406 4219 
Q 1781 4219 1451 3797 
Q 1122 3375 1075 2522 
Q 1259 2794 1537 2939 
Q 1816 3084 2150 3084 
Q 2853 3084 3261 2657 
Q 3669 2231 3669 1497 
Q 3669 778 3244 343 
Q 2819 -91 2113 -91 
Q 1303 -91 875 529 
Q 447 1150 447 2328 
Q 447 3434 972 4092 
Q 1497 4750 2381 4750 
Q 2619 4750 2861 4703 
Q 3103 4656 3366 4563 
z
" transform="scale(0.015625)"/>
          </defs>
          <use xlink:href="#DejaVuSans-36"/>
          <use xlink:href="#DejaVuSans-30" x="63.623047"/>
         </g>
        </g>
       </g>
       <g id="ytick_5">
        <g id="line2d_8">
         <g>
          <use xlink:href="#m199198e654" x="46.965625" y="108.674087" style="stroke: #000000; stroke-width: 0.8"/>
         </g>
        </g>
        <g id="text_8">
         <!-- 80 -->
         <g transform="translate(27.240625 112.473306) scale(0.1 -0.1)">
          <defs>
           <path id="DejaVuSans-38" d="M 2034 2216 
Q 1584 2216 1326 1975 
Q 1069 1734 1069 1313 
Q 1069 891 1326 650 
Q 1584 409 2034 409 
Q 2484 409 2743 651 
Q 3003 894 3003 1313 
Q 3003 1734 2745 1975 
Q 2488 2216 2034 2216 
z
M 1403 2484 
Q 997 2584 770 2862 
Q 544 3141 544 3541 
Q 544 4100 942 4425 
Q 1341 4750 2034 4750 
Q 2731 4750 3128 4425 
Q 3525 4100 3525 3541 
Q 3525 3141 3298 2862 
Q 3072 2584 2669 2484 
Q 3125 2378 3379 2068 
Q 3634 1759 3634 1313 
Q 3634 634 3220 271 
Q 2806 -91 2034 -91 
Q 1263 -91 848 271 
Q 434 634 434 1313 
Q 434 1759 690 2068 
Q 947 2378 1403 2484 
z
M 1172 3481 
Q 1172 3119 1398 2916 
Q 1625 2713 2034 2713 
Q 2441 2713 2670 2916 
Q 2900 3119 2900 3481 
Q 2900 3844 2670 4047 
Q 2441 4250 2034 4250 
Q 1625 4250 1398 4047 
Q 1172 3844 1172 3481 
z
" transform="scale(0.015625)"/>
          </defs>
          <use xlink:href="#DejaVuSans-38"/>
          <use xlink:href="#DejaVuSans-30" x="63.623047"/>
         </g>
        </g>
       </g>
       <g id="ytick_6">
        <g id="line2d_9">
         <g>
          <use xlink:href="#m199198e654" x="46.965625" y="56.33714" style="stroke: #000000; stroke-width: 0.8"/>
         </g>
        </g>
        <g id="text_9">
         <!-- 100 -->
         <g transform="translate(20.878125 60.136359) scale(0.1 -0.1)">
          <use xlink:href="#DejaVuSans-31"/>
          <use xlink:href="#DejaVuSans-30" x="63.623047"/>
          <use xlink:href="#DejaVuSans-30" x="127.246094"/>
         </g>
        </g>
       </g>
       <g id="text_10">
        <!-- time ago (years) -->
        <g transform="translate(14.798437 211.603594) rotate(-90) scale(0.1 -0.1)">
         <defs>
          <path id="DejaVuSans-74" d="M 1172 4494 
L 1172 3500 
L 2356 3500 
L 2356 3053 
L 1172 3053 
L 1172 1153 
Q 1172 725 1289 603 
Q 1406 481 1766 481 
L 2356 481 
L 2356 0 
L 1766 0 
Q 1100 0 847 248 
Q 594 497 594 1153 
L 594 3053 
L 172 3053 
L 172 3500 
L 594 3500 
L 594 4494 
L 1172 4494 
z
" transform="scale(0.015625)"/>
          <path id="DejaVuSans-69" d="M 603 3500 
L 1178 3500 
L 1178 0 
L 603 0 
L 603 3500 
z
M 603 4863 
L 1178 4863 
L 1178 4134 
L 603 4134 
L 603 4863 
z
" transform="scale(0.015625)"/>
          <path id="DejaVuSans-20" transform="scale(0.015625)"/>
          <path id="DejaVuSans-61" d="M 2194 1759 
Q 1497 1759 1228 1600 
Q 959 1441 959 1056 
Q 959 750 1161 570 
Q 1363 391 1709 391 
Q 2188 391 2477 730 
Q 2766 1069 2766 1631 
L 2766 1759 
L 2194 1759 
z
M 3341 1997 
L 3341 0 
L 2766 0 
L 2766 531 
Q 2569 213 2275 61 
Q 1981 -91 1556 -91 
Q 1019 -91 701 211 
Q 384 513 384 1019 
Q 384 1609 779 1909 
Q 1175 2209 1959 2209 
L 2766 2209 
L 2766 2266 
Q 2766 2663 2505 2880 
Q 2244 3097 1772 3097 
Q 1472 3097 1187 3025 
Q 903 2953 641 2809 
L 641 3341 
Q 956 3463 1253 3523 
Q 1550 3584 1831 3584 
Q 2591 3584 2966 3190 
Q 3341 2797 3341 1997 
z
" transform="scale(0.015625)"/>
          <path id="DejaVuSans-67" d="M 2906 1791 
Q 2906 2416 2648 2759 
Q 2391 3103 1925 3103 
Q 1463 3103 1205 2759 
Q 947 2416 947 1791 
Q 947 1169 1205 825 
Q 1463 481 1925 481 
Q 2391 481 2648 825 
Q 2906 1169 2906 1791 
z
M 3481 434 
Q 3481 -459 3084 -895 
Q 2688 -1331 1869 -1331 
Q 1566 -1331 1297 -1286 
Q 1028 -1241 775 -1147 
L 775 -588 
Q 1028 -725 1275 -790 
Q 1522 -856 1778 -856 
Q 2344 -856 2625 -561 
Q 2906 -266 2906 331 
L 2906 616 
Q 2728 306 2450 153 
Q 2172 0 1784 0 
Q 1141 0 747 490 
Q 353 981 353 1791 
Q 353 2603 747 3093 
Q 1141 3584 1784 3584 
Q 2172 3584 2450 3431 
Q 2728 3278 2906 2969 
L 2906 3500 
L 3481 3500 
L 3481 434 
z
" transform="scale(0.015625)"/>
          <path id="DejaVuSans-6f" d="M 1959 3097 
Q 1497 3097 1228 2736 
Q 959 2375 959 1747 
Q 959 1119 1226 758 
Q 1494 397 1959 397 
Q 2419 397 2687 759 
Q 2956 1122 2956 1747 
Q 2956 2369 2687 2733 
Q 2419 3097 1959 3097 
z
M 1959 3584 
Q 2709 3584 3137 3096 
Q 3566 2609 3566 1747 
Q 3566 888 3137 398 
Q 2709 -91 1959 -91 
Q 1206 -91 779 398 
Q 353 888 353 1747 
Q 353 2609 779 3096 
Q 1206 3584 1959 3584 
z
" transform="scale(0.015625)"/>
          <path id="DejaVuSans-28" d="M 1984 4856 
Q 1566 4138 1362 3434 
Q 1159 2731 1159 2009 
Q 1159 1288 1364 580 
Q 1569 -128 1984 -844 
L 1484 -844 
Q 1016 -109 783 600 
Q 550 1309 550 2009 
Q 550 2706 781 3412 
Q 1013 4119 1484 4856 
L 1984 4856 
z
" transform="scale(0.015625)"/>
          <path id="DejaVuSans-79" d="M 2059 -325 
Q 1816 -950 1584 -1140 
Q 1353 -1331 966 -1331 
L 506 -1331 
L 506 -850 
L 844 -850 
Q 1081 -850 1212 -737 
Q 1344 -625 1503 -206 
L 1606 56 
L 191 3500 
L 800 3500 
L 1894 763 
L 2988 3500 
L 3597 3500 
L 2059 -325 
z
" transform="scale(0.015625)"/>
          <path id="DejaVuSans-72" d="M 2631 2963 
Q 2534 3019 2420 3045 
Q 2306 3072 2169 3072 
Q 1681 3072 1420 2755 
Q 1159 2438 1159 1844 
L 1159 0 
L 581 0 
L 581 3500 
L 1159 3500 
L 1159 2956 
Q 1341 3275 1631 3429 
Q 1922 3584 2338 3584 
Q 2397 3584 2469 3576 
Q 2541 3569 2628 3553 
L 2631 2963 
z
" transform="scale(0.015625)"/>
          <path id="DejaVuSans-73" d="M 2834 3397 
L 2834 2853 
Q 2591 2978 2328 3040 
Q 2066 3103 1784 3103 
Q 1356 3103 1142 2972 
Q 928 2841 928 2578 
Q 928 2378 1081 2264 
Q 1234 2150 1697 2047 
L 1894 2003 
Q 2506 1872 2764 1633 
Q 3022 1394 3022 966 
Q 3022 478 2636 193 
Q 2250 -91 1575 -91 
Q 1294 -91 989 -36 
Q 684 19 347 128 
L 347 722 
Q 666 556 975 473 
Q 1284 391 1588 391 
Q 1994 391 2212 530 
Q 2431 669 2431 922 
Q 2431 1156 2273 1281 
Q 2116 1406 1581 1522 
L 1381 1569 
Q 847 1681 609 1914 
Q 372 2147 372 2553 
Q 372 3047 722 3315 
Q 1072 3584 1716 3584 
Q 2034 3584 2315 3537 
Q 2597 3491 2834 3397 
z
" transform="scale(0.015625)"/>
          <path id="DejaVuSans-29" d="M 513 4856 
L 1013 4856 
Q 1481 4119 1714 3412 
Q 1947 2706 1947 2009 
Q 1947 1309 1714 600 
Q 1481 -109 1013 -844 
L 513 -844 
Q 928 -128 1133 580 
Q 1338 1288 1338 2009 
Q 1338 2731 1133 3434 
Q 928 4138 513 4856 
z
" transform="scale(0.015625)"/>
         </defs>
         <use xlink:href="#DejaVuSans-74"/>
         <use xlink:href="#DejaVuSans-69" x="39.208984"/>
         <use xlink:href="#DejaVuSans-6d" x="66.992188"/>
         <use xlink:href="#DejaVuSans-65" x="164.404297"/>
         <use xlink:href="#DejaVuSans-20" x="225.927734"/>
         <use xlink:href="#DejaVuSans-61" x="257.714844"/>
         <use xlink:href="#DejaVuSans-67" x="318.994141"/>
         <use xlink:href="#DejaVuSans-6f" x="382.470703"/>
         <use xlink:href="#DejaVuSans-20" x="443.652344"/>
         <use xlink:href="#DejaVuSans-28" x="475.439453"/>
         <use xlink:href="#DejaVuSans-79" x="514.453125"/>
         <use xlink:href="#DejaVuSans-65" x="573.632812"/>
         <use xlink:href="#DejaVuSans-61" x="635.15625"/>
         <use xlink:href="#DejaVuSans-72" x="696.435547"/>
         <use xlink:href="#DejaVuSans-73" x="737.548828"/>
         <use xlink:href="#DejaVuSans-29" x="789.648438"/>
        </g>
       </g>
      </g>
      <path d="M 257.619695 167.640484 
L 255.619695 166.640484 
L 255.619695 168.640484 
z
" clip-path="url(#pc6f87bca23)" style="fill: #1f77b4; fill-opacity: 0.5; stroke: #1f77b4; stroke-opacity: 0.5; stroke-linejoin: miter"/>
      <path d="M 257.619695 96.977275 
L 255.619695 95.977275 
L 255.619695 97.977275 
z
" clip-path="url(#pc6f87bca23)" style="fill: #1f77b4; fill-opacity: 0.5; stroke: #1f77b4; stroke-opacity: 0.5; stroke-linejoin: miter"/>
      <path d="M 257.619695 177.059936 
L 255.619695 176.059936 
L 255.619695 178.059936 
z
" clip-path="url(#pc6f87bca23)" style="fill: #1f77b4; fill-opacity: 0.5; stroke: #1f77b4; stroke-opacity: 0.5; stroke-linejoin: miter"/>
      <path d="M 257.619695 223.532841 
L 255.619695 222.532841 
L 255.619695 224.532841 
z
" clip-path="url(#pc6f87bca23)" style="fill: #1f77b4; fill-opacity: 0.5; stroke: #1f77b4; stroke-opacity: 0.5; stroke-linejoin: miter"/>
      <path d="M 257.619695 245.437887 
L 255.619695 244.437887 
L 255.619695 246.437887 
z
" clip-path="url(#pc6f87bca23)" style="fill: #1f77b4; fill-opacity: 0.5; stroke: #1f77b4; stroke-opacity: 0.5; stroke-linejoin: miter"/>
      <path d="M 257.619695 137.157581 
L 255.619695 136.157581 
L 255.619695 138.157581 
z
" clip-path="url(#pc6f87bca23)" style="fill: #1f77b4; fill-opacity: 0.5; stroke: #1f77b4; stroke-opacity: 0.5; stroke-linejoin: miter"/>
      <path d="M 257.619695 240.12068 
L 255.619695 239.12068 
L 255.619695 241.12068 
z
" clip-path="url(#pc6f87bca23)" style="fill: #1f77b4; fill-opacity: 0.5; stroke: #1f77b4; stroke-opacity: 0.5; stroke-linejoin: miter"/>
      <path d="M 257.619695 197.925385 
L 255.619695 196.925385 
L 255.619695 198.925385 
z
" clip-path="url(#pc6f87bca23)" style="fill: #1f77b4; fill-opacity: 0.5; stroke: #1f77b4; stroke-opacity: 0.5; stroke-linejoin: miter"/>
      <path d="M 257.619695 225.100251 
L 255.619695 224.100251 
L 255.619695 226.100251 
z
" clip-path="url(#pc6f87bca23)" style="fill: #1f77b4; fill-opacity: 0.5; stroke: #1f77b4; stroke-opacity: 0.5; stroke-linejoin: miter"/>
      <path d="M 257.619695 243.904192 
L 255.619695 242.904192 
L 255.619695 244.904192 
z
" clip-path="url(#pc6f87bca23)" style="fill: #1f77b4; fill-opacity: 0.5; stroke: #1f77b4; stroke-opacity: 0.5; stroke-linejoin: miter"/>
      <path d="M 199.299443 131.699736 
L 201.299443 132.699736 
L 201.299443 130.699736 
z
" clip-path="url(#pc6f87bca23)" style="fill: #ff7f0e; fill-opacity: 0.5; stroke: #ff7f0e; stroke-opacity: 0.5; stroke-linejoin: miter"/>
      <path d="M 199.299443 212.867554 
L 201.299443 213.867554 
L 201.299443 211.867554 
z
" clip-path="url(#pc6f87bca23)" style="fill: #ff7f0e; fill-opacity: 0.5; stroke: #ff7f0e; stroke-opacity: 0.5; stroke-linejoin: miter"/>
      <path d="M 199.299443 291.038895 
L 201.299443 292.038895 
L 201.299443 290.038895 
z
" clip-path="url(#pc6f87bca23)" style="fill: #ff7f0e; fill-opacity: 0.5; stroke: #ff7f0e; stroke-opacity: 0.5; stroke-linejoin: miter"/>
      <path d="M 199.299443 154.048902 
L 201.299443 155.048902 
L 201.299443 153.048902 
z
" clip-path="url(#pc6f87bca23)" style="fill: #ff7f0e; fill-opacity: 0.5; stroke: #ff7f0e; stroke-opacity: 0.5; stroke-linejoin: miter"/>
      <path d="M 199.299443 247.511064 
L 201.299443 248.511064 
L 201.299443 246.511064 
z
" clip-path="url(#pc6f87bca23)" style="fill: #ff7f0e; fill-opacity: 0.5; stroke: #ff7f0e; stroke-opacity: 0.5; stroke-linejoin: miter"/>
      <path d="M 199.299443 232.755401 
L 201.299443 233.755401 
L 201.299443 231.755401 
z
" clip-path="url(#pc6f87bca23)" style="fill: #ff7f0e; fill-opacity: 0.5; stroke: #ff7f0e; stroke-opacity: 0.5; stroke-linejoin: miter"/>
      <path d="M 199.299443 207.49083 
L 201.299443 208.49083 
L 201.299443 206.49083 
z
" clip-path="url(#pc6f87bca23)" style="fill: #ff7f0e; fill-opacity: 0.5; stroke: #ff7f0e; stroke-opacity: 0.5; stroke-linejoin: miter"/>
      <path d="M 199.299443 311.371558 
L 201.299443 312.371558 
L 201.299443 310.371558 
z
" clip-path="url(#pc6f87bca23)" style="fill: #ff7f0e; fill-opacity: 0.5; stroke: #ff7f0e; stroke-opacity: 0.5; stroke-linejoin: miter"/>
      <path d="M 199.299443 180.804853 
L 201.299443 181.804853 
L 201.299443 179.804853 
z
" clip-path="url(#pc6f87bca23)" style="fill: #ff7f0e; fill-opacity: 0.5; stroke: #ff7f0e; stroke-opacity: 0.5; stroke-linejoin: miter"/>
      <path d="M 199.299443 105.196383 
L 201.299443 106.196383 
L 201.299443 104.196383 
z
" clip-path="url(#pc6f87bca23)" style="fill: #ff7f0e; fill-opacity: 0.5; stroke: #ff7f0e; stroke-opacity: 0.5; stroke-linejoin: miter"/>
      <path d="M 447.666182 183.328689 
L 445.666182 182.328689 
L 445.666182 184.328689 
z
" clip-path="url(#pc6f87bca23)" style="fill: #ff7f0e; fill-opacity: 0.5; stroke: #ff7f0e; stroke-opacity: 0.5; stroke-linejoin: miter"/>
      <path d="M 447.666182 156.271736 
L 445.666182 155.271736 
L 445.666182 157.271736 
z
" clip-path="url(#pc6f87bca23)" style="fill: #ff7f0e; fill-opacity: 0.5; stroke: #ff7f0e; stroke-opacity: 0.5; stroke-linejoin: miter"/>
      <path d="M 447.666182 233.731779 
L 445.666182 232.731779 
L 445.666182 234.731779 
z
" clip-path="url(#pc6f87bca23)" style="fill: #ff7f0e; fill-opacity: 0.5; stroke: #ff7f0e; stroke-opacity: 0.5; stroke-linejoin: miter"/>
      <path d="M 447.666182 316.037199 
L 445.666182 315.037199 
L 445.666182 317.037199 
z
" clip-path="url(#pc6f87bca23)" style="fill: #ff7f0e; fill-opacity: 0.5; stroke: #ff7f0e; stroke-opacity: 0.5; stroke-linejoin: miter"/>
      <path d="M 447.666182 199.25609 
L 445.666182 198.25609 
L 445.666182 200.25609 
z
" clip-path="url(#pc6f87bca23)" style="fill: #ff7f0e; fill-opacity: 0.5; stroke: #ff7f0e; stroke-opacity: 0.5; stroke-linejoin: miter"/>
      <path d="M 447.666182 315.705486 
L 445.666182 314.705486 
L 445.666182 316.705486 
z
" clip-path="url(#pc6f87bca23)" style="fill: #ff7f0e; fill-opacity: 0.5; stroke: #ff7f0e; stroke-opacity: 0.5; stroke-linejoin: miter"/>
      <path d="M 447.666182 139.482646 
L 445.666182 138.482646 
L 445.666182 140.482646 
z
" clip-path="url(#pc6f87bca23)" style="fill: #ff7f0e; fill-opacity: 0.5; stroke: #ff7f0e; stroke-opacity: 0.5; stroke-linejoin: miter"/>
      <path d="M 447.666182 292.958045 
L 445.666182 291.958045 
L 445.666182 293.958045 
z
" clip-path="url(#pc6f87bca23)" style="fill: #ff7f0e; fill-opacity: 0.5; stroke: #ff7f0e; stroke-opacity: 0.5; stroke-linejoin: miter"/>
      <path d="M 447.666182 311.121983 
L 445.666182 310.121983 
L 445.666182 312.121983 
z
" clip-path="url(#pc6f87bca23)" style="fill: #ff7f0e; fill-opacity: 0.5; stroke: #ff7f0e; stroke-opacity: 0.5; stroke-linejoin: miter"/>
      <path d="M 447.666182 256.849198 
L 445.666182 255.849198 
L 445.666182 257.849198 
z
" clip-path="url(#pc6f87bca23)" style="fill: #ff7f0e; fill-opacity: 0.5; stroke: #ff7f0e; stroke-opacity: 0.5; stroke-linejoin: miter"/>
      <path d="M 389.34593 182.301427 
L 391.34593 183.301427 
L 391.34593 181.301427 
z
" clip-path="url(#pc6f87bca23)" style="fill: #2ca02c; fill-opacity: 0.5; stroke: #2ca02c; stroke-opacity: 0.5; stroke-linejoin: miter"/>
      <path d="M 389.34593 287.502735 
L 391.34593 288.502735 
L 391.34593 286.502735 
z
" clip-path="url(#pc6f87bca23)" style="fill: #2ca02c; fill-opacity: 0.5; stroke: #2ca02c; stroke-opacity: 0.5; stroke-linejoin: miter"/>
      <path d="M 389.34593 207.674069 
L 391.34593 208.674069 
L 391.34593 206.674069 
z
" clip-path="url(#pc6f87bca23)" style="fill: #2ca02c; fill-opacity: 0.5; stroke: #2ca02c; stroke-opacity: 0.5; stroke-linejoin: miter"/>
      <path d="M 389.34593 250.20277 
L 391.34593 251.20277 
L 391.34593 249.20277 
z
" clip-path="url(#pc6f87bca23)" style="fill: #2ca02c; fill-opacity: 0.5; stroke: #2ca02c; stroke-opacity: 0.5; stroke-linejoin: miter"/>
      <path d="M 389.34593 209.132672 
L 391.34593 210.132672 
L 391.34593 208.132672 
z
" clip-path="url(#pc6f87bca23)" style="fill: #2ca02c; fill-opacity: 0.5; stroke: #2ca02c; stroke-opacity: 0.5; stroke-linejoin: miter"/>
      <path d="M 389.34593 207.191425 
L 391.34593 208.191425 
L 391.34593 206.191425 
z
" clip-path="url(#pc6f87bca23)" style="fill: #2ca02c; fill-opacity: 0.5; stroke: #2ca02c; stroke-opacity: 0.5; stroke-linejoin: miter"/>
      <path d="M 389.34593 200.384131 
L 391.34593 201.384131 
L 391.34593 199.384131 
z
" clip-path="url(#pc6f87bca23)" style="fill: #2ca02c; fill-opacity: 0.5; stroke: #2ca02c; stroke-opacity: 0.5; stroke-linejoin: miter"/>
      <path d="M 389.34593 210.131941 
L 391.34593 211.131941 
L 391.34593 209.131941 
z
" clip-path="url(#pc6f87bca23)" style="fill: #2ca02c; fill-opacity: 0.5; stroke: #2ca02c; stroke-opacity: 0.5; stroke-linejoin: miter"/>
      <path d="M 389.34593 170.557412 
L 391.34593 171.557412 
L 391.34593 169.557412 
z
" clip-path="url(#pc6f87bca23)" style="fill: #2ca02c; fill-opacity: 0.5; stroke: #2ca02c; stroke-opacity: 0.5; stroke-linejoin: miter"/>
      <path d="M 389.34593 238.325903 
L 391.34593 239.325903 
L 391.34593 237.325903 
z
" clip-path="url(#pc6f87bca23)" style="fill: #2ca02c; fill-opacity: 0.5; stroke: #2ca02c; stroke-opacity: 0.5; stroke-linejoin: miter"/>
      <g id="patch_6">
       <path d="M 46.965625 318.021875 
L 46.965625 22.318125 
" style="fill: none; stroke: #000000; stroke-width: 0.8; stroke-linejoin: miter; stroke-linecap: square"/>
      </g>
      <g id="text_11">
       <!-- stepping_stone_model.yaml -->
       <g transform="translate(239.443437 16.318125) scale(0.12 -0.12)">
        <defs>
         <path id="DejaVuSans-70" d="M 1159 525 
L 1159 -1331 
L 581 -1331 
L 581 3500 
L 1159 3500 
L 1159 2969 
Q 1341 3281 1617 3432 
Q 1894 3584 2278 3584 
Q 2916 3584 3314 3078 
Q 3713 2572 3713 1747 
Q 3713 922 3314 415 
Q 2916 -91 2278 -91 
Q 1894 -91 1617 61 
Q 1341 213 1159 525 
z
M 3116 1747 
Q 3116 2381 2855 2742 
Q 2594 3103 2138 3103 
Q 1681 3103 1420 2742 
Q 1159 2381 1159 1747 
Q 1159 1113 1420 752 
Q 1681 391 2138 391 
Q 2594 391 2855 752 
Q 3116 1113 3116 1747 
z
" transform="scale(0.015625)"/>
         <path id="DejaVuSans-6e" d="M 3513 2113 
L 3513 0 
L 2938 0 
L 2938 2094 
Q 2938 2591 2744 2837 
Q 2550 3084 2163 3084 
Q 1697 3084 1428 2787 
Q 1159 2491 1159 1978 
L 1159 0 
L 581 0 
L 581 3500 
L 1159 3500 
L 1159 2956 
Q 1366 3272 1645 3428 
Q 1925 3584 2291 3584 
Q 2894 3584 3203 3211 
Q 3513 2838 3513 2113 
z
" transform="scale(0.015625)"/>
         <path id="DejaVuSans-5f" d="M 3263 -1063 
L 3263 -1509 
L -63 -1509 
L -63 -1063 
L 3263 -1063 
z
" transform="scale(0.015625)"/>
         <path id="DejaVuSans-6c" d="M 603 4863 
L 1178 4863 
L 1178 0 
L 603 0 
L 603 4863 
z
" transform="scale(0.015625)"/>
         <path id="DejaVuSans-2e" d="M 684 794 
L 1344 794 
L 1344 0 
L 684 0 
L 684 794 
z
" transform="scale(0.015625)"/>
        </defs>
        <use xlink:href="#DejaVuSans-73"/>
        <use xlink:href="#DejaVuSans-74" x="52.099609"/>
        <use xlink:href="#DejaVuSans-65" x="91.308594"/>
        <use xlink:href="#DejaVuSans-70" x="152.832031"/>
        <use xlink:href="#DejaVuSans-70" x="216.308594"/>
        <use xlink:href="#DejaVuSans-69" x="279.785156"/>
        <use xlink:href="#DejaVuSans-6e" x="307.568359"/>
        <use xlink:href="#DejaVuSans-67" x="370.947266"/>
        <use xlink:href="#DejaVuSans-5f" x="434.423828"/>
        <use xlink:href="#DejaVuSans-73" x="484.423828"/>
        <use xlink:href="#DejaVuSans-74" x="536.523438"/>
        <use xlink:href="#DejaVuSans-6f" x="575.732422"/>
        <use xlink:href="#DejaVuSans-6e" x="636.914062"/>
        <use xlink:href="#DejaVuSans-65" x="700.292969"/>
        <use xlink:href="#DejaVuSans-5f" x="761.816406"/>
        <use xlink:href="#DejaVuSans-6d" x="811.816406"/>
        <use xlink:href="#DejaVuSans-6f" x="909.228516"/>
        <use xlink:href="#DejaVuSans-64" x="970.410156"/>
        <use xlink:href="#DejaVuSans-65" x="1033.886719"/>
        <use xlink:href="#DejaVuSans-6c" x="1095.410156"/>
        <use xlink:href="#DejaVuSans-2e" x="1123.193359"/>
        <use xlink:href="#DejaVuSans-79" x="1154.980469"/>
        <use xlink:href="#DejaVuSans-61" x="1214.160156"/>
        <use xlink:href="#DejaVuSans-6d" x="1275.439453"/>
        <use xlink:href="#DejaVuSans-6c" x="1372.851562"/>
       </g>
      </g>
     </g>
    </g>
    <defs>
     <clipPath id="pc6f87bca23">
      <rect x="46.965625" y="22.318125" width="553.034375" height="295.70375"/>
     </clipPath>
    </defs>
   </g>
  </g>
 </g>
</svg>
