<?xml version="1.0" encoding="utf-8" standalone="no"?>
<!DOCTYPE svg PUBLIC "-//W3C//DTD SVG 1.1//EN"
  "http://www.w3.org/Graphics/SVG/1.1/DTD/svg11.dtd">
<svg xmlns:xlink="http://www.w3.org/1999/xlink" width="607.2pt" height="338.4pt" viewBox="0 0 607.2 338.4" xmlns="http://www.w3.org/2000/svg" version="1.1">
 <metadata>
  <rdf:RDF xmlns:dc="http://purl.org/dc/elements/1.1/" xmlns:cc="http://creativecommons.org/ns#" xmlns:rdf="http://www.w3.org/1999/02/22-rdf-syntax-ns#">
   <cc:Work>
    <dc:type rdf:resource="http://purl.org/dc/dcmitype/StillImage"/>
    <dc:date>2024-03-11T08:38:28.293342</dc:date>
    <dc:format>image/svg+xml</dc:format>
    <dc:creator>
     <cc:Agent>
      <dc:title>Matplotlib v3.7.2, https://matplotlib.org/</dc:title>
     </cc:Agent>
    </dc:creator>
   </cc:Work>
  </rdf:RDF>
 </metadata>
 <defs>
  <style type="text/css">*{stroke-linejoin: round; stroke-linecap: butt}</style>
 </defs>
 <g id="figure_1">
  <g id="patch_1">
   <path d="M 0 338.4 
L 607.2 338.4 
L 607.2 0 
L 0 0 
z
" style="fill: #ffffff"/>
  </g>
  <g id="axes_1">
   <g id="patch_2">
    <path d="M 43.78125 318.021875 
L 600 318.021875 
L 600 22.318125 
L 43.78125 22.318125 
z
" style="fill: #ffffff"/>
   </g>
   <path d="M 290.098299 99.598433 
L 291.098299 99.629869 
L 292.098299 99.666809 
L 293.098299 99.764556 
L 294.098299 99.797077 
L 295.098299 99.870702 
L 296.098299 99.909268 
L 297.098299 99.944681 
L 298.098299 100.002321 
L 299.098299 100.072707 
L 300.098299 100.124671 
L 301.098299 100.183761 
L 302.098299 100.272082 
L 303.098299 100.318226 
L 304.098299 100.360637 
L 305.098299 100.39113 
L 306.098299 100.417175 
L 307.098299 100.438375 
L 308.098299 100.492676 
L 309.098299 100.520614 
L 310.098299 100.550338 
L 311.098299 100.575732 
L 312.098299 100.586933 
L 313.098299 100.597057 
L 314.098299 100.596852 
L 315.098299 100.587342 
L 316.098299 100.575689 
L 317.098299 100.54466 
L 318.098299 100.533492 
L 319.098299 100.503374 
L 320.098299 100.443597 
L 321.098299 100.406406 
L 322.098299 100.36731 
L 323.098299 100.32487 
L 324.098299 100.292105 
L 325.098299 100.224678 
L 326.098299 100.185552 
L 327.098299 100.142878 
L 328.098299 100.072297 
L 329.098299 100.035906 
L 330.098299 99.977503 
L 331.098299 99.866551 
L 332.098299 99.795892 
L 333.098299 99.682953 
L 334.098299 99.63718 
L 335.098299 99.575896 
L 336.098299 99.527397 
L 337.098299 99.446574 
L 338.098299 99.328056 
L 339.098299 99.257845 
L 340.098299 99.174582 
L 341.098299 99.141441 
L 342.098299 99.090203 
L 343.098299 99.021805 
L 344.098299 98.95559 
L 345.098299 98.878672 
L 346.098299 98.851357 
L 347.098299 98.824879 
L 348.098299 98.802229 
L 349.098299 98.782698 
L 350.098299 98.756304 
L 351.098299 98.706533 
L 352.098299 98.67146 
L 353.682951 98.635594 
" clip-path="url(#p4a963d84ff)" style="fill: none; stroke: #1f77b4; stroke-opacity: 0.5; stroke-width: 0.2; stroke-linecap: square"/>
   <path d="M 290.098299 132.103605 
L 291.098299 132.135041 
L 292.098299 132.171982 
L 293.098299 132.269728 
L 294.098299 132.30225 
L 295.098299 132.375875 
L 296.098299 132.41444 
L 297.098299 132.449853 
L 298.098299 132.507493 
L 299.098299 132.577879 
L 300.098299 132.629844 
L 301.098299 132.688933 
L 302.098299 132.777254 
L 303.098299 132.823399 
L 304.098299 132.86581 
L 305.098299 132.896302 
L 306.098299 132.922347 
L 307.098299 132.943547 
L 308.098299 132.997848 
L 309.098299 133.025786 
L 310.098299 133.05551 
L 311.098299 133.080905 
L 312.098299 133.092105 
L 313.098299 133.102229 
L 314.098299 133.102025 
L 315.098299 133.092515 
L 316.098299 133.080861 
L 317.098299 133.049832 
L 318.098299 133.038664 
L 319.098299 133.008547 
L 320.098299 132.94877 
L 321.098299 132.911578 
L 322.098299 132.872482 
L 323.098299 132.830042 
L 324.098299 132.797277 
L 325.098299 132.729851 
L 326.098299 132.690725 
L 327.098299 132.64805 
L 328.098299 132.57747 
L 329.098299 132.541079 
L 330.098299 132.482676 
L 331.098299 132.371723 
L 332.098299 132.301065 
L 333.098299 132.188125 
L 334.098299 132.142352 
L 335.098299 132.081069 
L 336.098299 132.03257 
L 337.098299 131.951747 
L 338.098299 131.833228 
L 339.098299 131.763017 
L 340.098299 131.679755 
L 341.098299 131.646613 
L 342.098299 131.595376 
L 343.098299 131.526977 
L 344.098299 131.460762 
L 345.098299 131.383845 
L 346.098299 131.356529 
L 347.098299 131.330052 
L 348.098299 131.307401 
L 349.098299 131.28787 
L 350.098299 131.261476 
L 351.098299 131.211705 
L 352.098299 131.176632 
L 353.682951 131.140766 
" clip-path="url(#p4a963d84ff)" style="fill: none; stroke: #1f77b4; stroke-opacity: 0.5; stroke-width: 0.2; stroke-linecap: square"/>
   <path d="M 290.098299 123.413881 
L 291.098299 123.445317 
L 292.098299 123.482257 
L 293.098299 123.580004 
L 294.098299 123.612526 
L 295.098299 123.68615 
L 296.098299 123.724716 
L 297.098299 123.760129 
L 298.098299 123.817769 
L 299.098299 123.888155 
L 300.098299 123.940119 
L 301.098299 123.999209 
L 302.098299 124.08753 
L 303.098299 124.133674 
L 304.098299 124.176085 
L 305.098299 124.206578 
L 306.098299 124.232623 
L 307.098299 124.253823 
L 308.098299 124.308124 
L 309.098299 124.336062 
L 310.098299 124.365786 
L 311.098299 124.39118 
L 312.098299 124.402381 
L 313.098299 124.412505 
L 314.098299 124.412301 
L 315.098299 124.402791 
L 316.098299 124.391137 
L 317.098299 124.360108 
L 318.098299 124.34894 
L 319.098299 124.318822 
L 320.098299 124.259045 
L 321.098299 124.221854 
L 322.098299 124.182758 
L 323.098299 124.140318 
L 324.098299 124.107553 
L 325.098299 124.040127 
L 326.098299 124.001001 
L 327.098299 123.958326 
L 328.098299 123.887746 
L 329.098299 123.851355 
L 330.098299 123.792952 
L 331.098299 123.681999 
L 332.098299 123.611341 
L 333.098299 123.498401 
L 334.098299 123.452628 
L 335.098299 123.391345 
L 336.098299 123.342845 
L 337.098299 123.262023 
L 338.098299 123.143504 
L 339.098299 123.073293 
L 340.098299 122.990031 
L 341.098299 122.956889 
L 342.098299 122.905652 
L 343.098299 122.837253 
L 344.098299 122.771038 
L 345.098299 122.694121 
L 346.098299 122.666805 
L 347.098299 122.640328 
L 348.098299 122.617677 
L 349.098299 122.598146 
L 350.098299 122.571752 
L 351.098299 122.521981 
L 352.098299 122.486908 
L 353.682951 122.451042 
" clip-path="url(#p4a963d84ff)" style="fill: none; stroke: #1f77b4; stroke-opacity: 0.5; stroke-width: 0.2; stroke-linecap: square"/>
   <path d="M 290.098299 148.196905 
L 291.098299 148.228342 
L 292.098299 148.265282 
L 293.098299 148.363029 
L 294.098299 148.39555 
L 295.098299 148.469175 
L 296.098299 148.507741 
L 297.098299 148.543154 
L 298.098299 148.600794 
L 299.098299 148.67118 
L 300.098299 148.723144 
L 301.098299 148.782234 
L 302.098299 148.870555 
L 303.098299 148.916699 
L 304.098299 148.95911 
L 305.098299 148.989603 
L 306.098299 149.015648 
L 307.098299 149.036848 
L 308.098299 149.091149 
L 309.098299 149.119086 
L 310.098299 149.14881 
L 311.098299 149.174205 
L 312.098299 149.185406 
L 313.098299 149.19553 
L 314.098299 149.195325 
L 315.098299 149.185815 
L 316.098299 149.174162 
L 317.098299 149.143133 
L 318.098299 149.131965 
L 319.098299 149.101847 
L 320.098299 149.04207 
L 321.098299 149.004879 
L 322.098299 148.965783 
L 323.098299 148.923343 
L 324.098299 148.890578 
L 325.098299 148.823151 
L 326.098299 148.784025 
L 327.098299 148.741351 
L 328.098299 148.67077 
L 329.098299 148.634379 
L 330.098299 148.575976 
L 331.098299 148.465024 
L 332.098299 148.394365 
L 333.098299 148.281426 
L 334.098299 148.235653 
L 335.098299 148.174369 
L 336.098299 148.12587 
L 337.098299 148.045047 
L 338.098299 147.926528 
L 339.098299 147.856318 
L 340.098299 147.773055 
L 341.098299 147.739914 
L 342.098299 147.688676 
L 343.098299 147.620278 
L 344.098299 147.554062 
L 345.098299 147.477145 
L 346.098299 147.44983 
L 347.098299 147.423352 
L 348.098299 147.400702 
L 349.098299 147.38117 
L 350.098299 147.354777 
L 351.098299 147.305006 
L 352.098299 147.269933 
L 353.682951 147.234067 
" clip-path="url(#p4a963d84ff)" style="fill: none; stroke: #1f77b4; stroke-opacity: 0.5; stroke-width: 0.2; stroke-linecap: square"/>
   <path d="M 290.098299 114.853377 
L 291.098299 114.884814 
L 292.098299 114.921754 
L 293.098299 115.0195 
L 294.098299 115.052022 
L 295.098299 115.125647 
L 296.098299 115.164212 
L 297.098299 115.199625 
L 298.098299 115.257265 
L 299.098299 115.327652 
L 300.098299 115.379616 
L 301.098299 115.438706 
L 302.098299 115.527027 
L 303.098299 115.573171 
L 304.098299 115.615582 
L 305.098299 115.646074 
L 306.098299 115.672119 
L 307.098299 115.693319 
L 308.098299 115.747621 
L 309.098299 115.775558 
L 310.098299 115.805282 
L 311.098299 115.830677 
L 312.098299 115.841877 
L 313.098299 115.852001 
L 314.098299 115.851797 
L 315.098299 115.842287 
L 316.098299 115.830633 
L 317.098299 115.799604 
L 318.098299 115.788436 
L 319.098299 115.758319 
L 320.098299 115.698542 
L 321.098299 115.66135 
L 322.098299 115.622254 
L 323.098299 115.579815 
L 324.098299 115.547049 
L 325.098299 115.479623 
L 326.098299 115.440497 
L 327.098299 115.397823 
L 328.098299 115.327242 
L 329.098299 115.290851 
L 330.098299 115.232448 
L 331.098299 115.121495 
L 332.098299 115.050837 
L 333.098299 114.937897 
L 334.098299 114.892124 
L 335.098299 114.830841 
L 336.098299 114.782342 
L 337.098299 114.701519 
L 338.098299 114.583 
L 339.098299 114.512789 
L 340.098299 114.429527 
L 341.098299 114.396385 
L 342.098299 114.345148 
L 343.098299 114.27675 
L 344.098299 114.210534 
L 345.098299 114.133617 
L 346.098299 114.106302 
L 347.098299 114.079824 
L 348.098299 114.057173 
L 349.098299 114.037642 
L 350.098299 114.011248 
L 351.098299 113.961477 
L 352.098299 113.926404 
L 353.682951 113.890539 
" clip-path="url(#p4a963d84ff)" style="fill: none; stroke: #1f77b4; stroke-opacity: 0.5; stroke-width: 0.2; stroke-linecap: square"/>
   <path d="M 290.098299 180.410421 
L 291.098299 180.441857 
L 292.098299 180.478798 
L 293.098299 180.576544 
L 294.098299 180.609066 
L 295.098299 180.682691 
L 296.098299 180.721256 
L 297.098299 180.756669 
L 298.098299 180.814309 
L 299.098299 180.884695 
L 300.098299 180.93666 
L 301.098299 180.995749 
L 302.098299 181.08407 
L 303.098299 181.130215 
L 304.098299 181.172626 
L 305.098299 181.203118 
L 306.098299 181.229163 
L 307.098299 181.250363 
L 308.098299 181.304664 
L 309.098299 181.332602 
L 310.098299 181.362326 
L 311.098299 181.387721 
L 312.098299 181.398921 
L 313.098299 181.409045 
L 314.098299 181.408841 
L 315.098299 181.399331 
L 316.098299 181.387677 
L 317.098299 181.356648 
L 318.098299 181.34548 
L 319.098299 181.315363 
L 320.098299 181.255586 
L 321.098299 181.218394 
L 322.098299 181.179298 
L 323.098299 181.136858 
L 324.098299 181.104093 
L 325.098299 181.036667 
L 326.098299 180.997541 
L 327.098299 180.954866 
L 328.098299 180.884286 
L 329.098299 180.847895 
L 330.098299 180.789492 
L 331.098299 180.678539 
L 332.098299 180.607881 
L 333.098299 180.494941 
L 334.098299 180.449168 
L 335.098299 180.387885 
L 336.098299 180.339386 
L 337.098299 180.258563 
L 338.098299 180.140044 
L 339.098299 180.069833 
L 340.098299 179.986571 
L 341.098299 179.953429 
L 342.098299 179.902192 
L 343.098299 179.833793 
L 344.098299 179.767578 
L 345.098299 179.690661 
L 346.098299 179.663345 
L 347.098299 179.636868 
L 348.098299 179.614217 
L 349.098299 179.594686 
L 350.098299 179.568292 
L 351.098299 179.518521 
L 352.098299 179.483448 
L 353.682951 179.447582 
" clip-path="url(#p4a963d84ff)" style="fill: none; stroke: #1f77b4; stroke-opacity: 0.5; stroke-width: 0.2; stroke-linecap: square"/>
   <path d="M 290.098299 162.488518 
L 291.098299 162.519954 
L 292.098299 162.556895 
L 293.098299 162.654641 
L 294.098299 162.687163 
L 295.098299 162.760787 
L 296.098299 162.799353 
L 297.098299 162.834766 
L 298.098299 162.892406 
L 299.098299 162.962792 
L 300.098299 163.014757 
L 301.098299 163.073846 
L 302.098299 163.162167 
L 303.098299 163.208312 
L 304.098299 163.250723 
L 305.098299 163.281215 
L 306.098299 163.30726 
L 307.098299 163.32846 
L 308.098299 163.382761 
L 309.098299 163.410699 
L 310.098299 163.440423 
L 311.098299 163.465818 
L 312.098299 163.477018 
L 313.098299 163.487142 
L 314.098299 163.486938 
L 315.098299 163.477428 
L 316.098299 163.465774 
L 317.098299 163.434745 
L 318.098299 163.423577 
L 319.098299 163.39346 
L 320.098299 163.333683 
L 321.098299 163.296491 
L 322.098299 163.257395 
L 323.098299 163.214955 
L 324.098299 163.18219 
L 325.098299 163.114764 
L 326.098299 163.075638 
L 327.098299 163.032963 
L 328.098299 162.962383 
L 329.098299 162.925992 
L 330.098299 162.867589 
L 331.098299 162.756636 
L 332.098299 162.685978 
L 333.098299 162.573038 
L 334.098299 162.527265 
L 335.098299 162.465982 
L 336.098299 162.417482 
L 337.098299 162.33666 
L 338.098299 162.218141 
L 339.098299 162.14793 
L 340.098299 162.064668 
L 341.098299 162.031526 
L 342.098299 161.980289 
L 343.098299 161.91189 
L 344.098299 161.845675 
L 345.098299 161.768758 
L 346.098299 161.741442 
L 347.098299 161.714965 
L 348.098299 161.692314 
L 349.098299 161.672783 
L 350.098299 161.646389 
L 351.098299 161.596618 
L 352.098299 161.561545 
L 353.682951 161.525679 
" clip-path="url(#p4a963d84ff)" style="fill: none; stroke: #1f77b4; stroke-opacity: 0.5; stroke-width: 0.2; stroke-linecap: square"/>
   <path d="M 290.098299 188.491513 
L 291.098299 188.52295 
L 292.098299 188.55989 
L 293.098299 188.657637 
L 294.098299 188.690158 
L 295.098299 188.763783 
L 296.098299 188.802349 
L 297.098299 188.837762 
L 298.098299 188.895402 
L 299.098299 188.965788 
L 300.098299 189.017752 
L 301.098299 189.076842 
L 302.098299 189.165163 
L 303.098299 189.211307 
L 304.098299 189.253718 
L 305.098299 189.284211 
L 306.098299 189.310256 
L 307.098299 189.331456 
L 308.098299 189.385757 
L 309.098299 189.413694 
L 310.098299 189.443418 
L 311.098299 189.468813 
L 312.098299 189.480014 
L 313.098299 189.490137 
L 314.098299 189.489933 
L 315.098299 189.480423 
L 316.098299 189.46877 
L 317.098299 189.43774 
L 318.098299 189.426573 
L 319.098299 189.396455 
L 320.098299 189.336678 
L 321.098299 189.299487 
L 322.098299 189.26039 
L 323.098299 189.217951 
L 324.098299 189.185186 
L 325.098299 189.117759 
L 326.098299 189.078633 
L 327.098299 189.035959 
L 328.098299 188.965378 
L 329.098299 188.928987 
L 330.098299 188.870584 
L 331.098299 188.759632 
L 332.098299 188.688973 
L 333.098299 188.576033 
L 334.098299 188.530261 
L 335.098299 188.468977 
L 336.098299 188.420478 
L 337.098299 188.339655 
L 338.098299 188.221136 
L 339.098299 188.150926 
L 340.098299 188.067663 
L 341.098299 188.034521 
L 342.098299 187.983284 
L 343.098299 187.914886 
L 344.098299 187.84867 
L 345.098299 187.771753 
L 346.098299 187.744438 
L 347.098299 187.71796 
L 348.098299 187.69531 
L 349.098299 187.675778 
L 350.098299 187.649384 
L 351.098299 187.599614 
L 352.098299 187.56454 
L 353.682951 187.528675 
" clip-path="url(#p4a963d84ff)" style="fill: none; stroke: #1f77b4; stroke-opacity: 0.5; stroke-width: 0.2; stroke-linecap: square"/>
   <path d="M 290.098299 88.835802 
L 291.098299 88.867239 
L 292.098299 88.904179 
L 293.098299 89.001926 
L 294.098299 89.034447 
L 295.098299 89.108072 
L 296.098299 89.146638 
L 297.098299 89.182051 
L 298.098299 89.239691 
L 299.098299 89.310077 
L 300.098299 89.362041 
L 301.098299 89.421131 
L 302.098299 89.509452 
L 303.098299 89.555596 
L 304.098299 89.598007 
L 305.098299 89.6285 
L 306.098299 89.654545 
L 307.098299 89.675745 
L 308.098299 89.730046 
L 309.098299 89.757983 
L 310.098299 89.787707 
L 311.098299 89.813102 
L 312.098299 89.824303 
L 313.098299 89.834427 
L 314.098299 89.834222 
L 315.098299 89.824712 
L 316.098299 89.813059 
L 317.098299 89.78203 
L 318.098299 89.770862 
L 319.098299 89.740744 
L 320.098299 89.680967 
L 321.098299 89.643776 
L 322.098299 89.60468 
L 323.098299 89.56224 
L 324.098299 89.529475 
L 325.098299 89.462048 
L 326.098299 89.422922 
L 327.098299 89.380248 
L 328.098299 89.309667 
L 329.098299 89.273276 
L 330.098299 89.214873 
L 331.098299 89.103921 
L 332.098299 89.033262 
L 333.098299 88.920322 
L 334.098299 88.87455 
L 335.098299 88.813266 
L 336.098299 88.764767 
L 337.098299 88.683944 
L 338.098299 88.565425 
L 339.098299 88.495215 
L 340.098299 88.411952 
L 341.098299 88.378811 
L 342.098299 88.327573 
L 343.098299 88.259175 
L 344.098299 88.192959 
L 345.098299 88.116042 
L 346.098299 88.088727 
L 347.098299 88.062249 
L 348.098299 88.039599 
L 349.098299 88.020067 
L 350.098299 87.993674 
L 351.098299 87.943903 
L 352.098299 87.90883 
L 353.682951 87.872964 
" clip-path="url(#p4a963d84ff)" style="fill: none; stroke: #1f77b4; stroke-opacity: 0.5; stroke-width: 0.2; stroke-linecap: square"/>
   <path d="M 290.098299 158.593461 
L 291.098299 158.624897 
L 292.098299 158.661838 
L 293.098299 158.759584 
L 294.098299 158.792106 
L 295.098299 158.86573 
L 296.098299 158.904296 
L 297.098299 158.939709 
L 298.098299 158.997349 
L 299.098299 159.067735 
L 300.098299 159.1197 
L 301.098299 159.178789 
L 302.098299 159.26711 
L 303.098299 159.313255 
L 304.098299 159.355665 
L 305.098299 159.386158 
L 306.098299 159.412203 
L 307.098299 159.433403 
L 308.098299 159.487704 
L 309.098299 159.515642 
L 310.098299 159.545366 
L 311.098299 159.570761 
L 312.098299 159.581961 
L 313.098299 159.592085 
L 314.098299 159.591881 
L 315.098299 159.582371 
L 316.098299 159.570717 
L 317.098299 159.539688 
L 318.098299 159.52852 
L 319.098299 159.498402 
L 320.098299 159.438626 
L 321.098299 159.401434 
L 322.098299 159.362338 
L 323.098299 159.319898 
L 324.098299 159.287133 
L 325.098299 159.219707 
L 326.098299 159.180581 
L 327.098299 159.137906 
L 328.098299 159.067326 
L 329.098299 159.030935 
L 330.098299 158.972532 
L 331.098299 158.861579 
L 332.098299 158.790921 
L 333.098299 158.677981 
L 334.098299 158.632208 
L 335.098299 158.570925 
L 336.098299 158.522425 
L 337.098299 158.441603 
L 338.098299 158.323084 
L 339.098299 158.252873 
L 340.098299 158.169611 
L 341.098299 158.136469 
L 342.098299 158.085232 
L 343.098299 158.016833 
L 344.098299 157.950618 
L 345.098299 157.873701 
L 346.098299 157.846385 
L 347.098299 157.819908 
L 348.098299 157.797257 
L 349.098299 157.777726 
L 350.098299 157.751332 
L 351.098299 157.701561 
L 352.098299 157.666488 
L 353.682951 157.630622 
" clip-path="url(#p4a963d84ff)" style="fill: none; stroke: #1f77b4; stroke-opacity: 0.5; stroke-width: 0.2; stroke-linecap: square"/>
   <path d="M 290.098299 317.140192 
L 291.098299 317.171628 
L 292.098299 317.208568 
L 293.098299 317.306315 
L 294.098299 317.338836 
L 295.098299 317.412461 
L 296.098299 317.451027 
L 297.098299 317.48644 
L 298.098299 317.54408 
L 299.098299 317.614466 
L 300.098299 317.66643 
L 301.098299 317.72552 
L 302.098299 317.813841 
L 303.098299 317.859985 
L 304.098299 317.902396 
L 305.098299 317.932889 
L 306.098299 317.958934 
L 307.098299 317.980134 
L 308.098299 318.034435 
L 309.098299 318.062373 
L 310.098299 318.092097 
L 311.098299 318.117491 
L 312.098299 318.128692 
L 313.098299 318.138816 
L 314.098299 318.138611 
L 315.098299 318.129101 
L 316.098299 318.117448 
L 317.098299 318.086419 
L 318.098299 318.075251 
L 319.098299 318.045133 
L 320.098299 317.985356 
L 321.098299 317.948165 
L 322.098299 317.909069 
L 323.098299 317.866629 
L 324.098299 317.833864 
L 325.098299 317.766437 
L 326.098299 317.727311 
L 327.098299 317.684637 
L 328.098299 317.614056 
L 329.098299 317.577665 
L 330.098299 317.519262 
L 331.098299 317.40831 
L 332.098299 317.337651 
L 333.098299 317.224712 
L 334.098299 317.178939 
L 335.098299 317.117655 
L 336.098299 317.069156 
L 337.098299 316.988333 
L 338.098299 316.869815 
L 339.098299 316.799604 
L 340.098299 316.716341 
L 341.098299 316.6832 
L 342.098299 316.631962 
L 343.098299 316.563564 
L 344.098299 316.497349 
L 345.098299 316.420431 
L 346.098299 316.393116 
L 347.098299 316.366639 
L 348.098299 316.343988 
L 349.098299 316.324457 
L 350.098299 316.298063 
L 351.098299 316.248292 
L 352.098299 316.213219 
L 353.682951 316.177353 
" clip-path="url(#p4a963d84ff)" style="fill: none; stroke: #1f77b4; stroke-opacity: 0.5; stroke-width: 0.2; stroke-linecap: square"/>
   <path d="M 290.098299 245.123608 
L 291.098299 245.155044 
L 292.098299 245.191984 
L 293.098299 245.289731 
L 294.098299 245.322252 
L 295.098299 245.395877 
L 296.098299 245.434443 
L 297.098299 245.469856 
L 298.098299 245.527496 
L 299.098299 245.597882 
L 300.098299 245.649846 
L 301.098299 245.708936 
L 302.098299 245.797257 
L 303.098299 245.843401 
L 304.098299 245.885812 
L 305.098299 245.916305 
L 306.098299 245.94235 
L 307.098299 245.96355 
L 308.098299 246.017851 
L 309.098299 246.045789 
L 310.098299 246.075513 
L 311.098299 246.100907 
L 312.098299 246.112108 
L 313.098299 246.122232 
L 314.098299 246.122027 
L 315.098299 246.112518 
L 316.098299 246.100864 
L 317.098299 246.069835 
L 318.098299 246.058667 
L 319.098299 246.028549 
L 320.098299 245.968772 
L 321.098299 245.931581 
L 322.098299 245.892485 
L 323.098299 245.850045 
L 324.098299 245.81728 
L 325.098299 245.749853 
L 326.098299 245.710728 
L 327.098299 245.668053 
L 328.098299 245.597472 
L 329.098299 245.561082 
L 330.098299 245.502678 
L 331.098299 245.391726 
L 332.098299 245.321067 
L 333.098299 245.208128 
L 334.098299 245.162355 
L 335.098299 245.101072 
L 336.098299 245.052572 
L 337.098299 244.971749 
L 338.098299 244.853231 
L 339.098299 244.78302 
L 340.098299 244.699757 
L 341.098299 244.666616 
L 342.098299 244.615378 
L 343.098299 244.54698 
L 344.098299 244.480765 
L 345.098299 244.403848 
L 346.098299 244.376532 
L 347.098299 244.350055 
L 348.098299 244.327404 
L 349.098299 244.307873 
L 350.098299 244.281479 
L 351.098299 244.231708 
L 352.098299 244.196635 
L 353.682951 244.160769 
" clip-path="url(#p4a963d84ff)" style="fill: none; stroke: #1f77b4; stroke-opacity: 0.5; stroke-width: 0.2; stroke-linecap: square"/>
   <path d="M 290.098299 244.738256 
L 291.098299 244.769692 
L 292.098299 244.806632 
L 293.098299 244.904379 
L 294.098299 244.9369 
L 295.098299 245.010525 
L 296.098299 245.049091 
L 297.098299 245.084504 
L 298.098299 245.142144 
L 299.098299 245.21253 
L 300.098299 245.264494 
L 301.098299 245.323584 
L 302.098299 245.411905 
L 303.098299 245.458049 
L 304.098299 245.50046 
L 305.098299 245.530953 
L 306.098299 245.556998 
L 307.098299 245.578198 
L 308.098299 245.632499 
L 309.098299 245.660437 
L 310.098299 245.690161 
L 311.098299 245.715555 
L 312.098299 245.726756 
L 313.098299 245.73688 
L 314.098299 245.736675 
L 315.098299 245.727165 
L 316.098299 245.715512 
L 317.098299 245.684483 
L 318.098299 245.673315 
L 319.098299 245.643197 
L 320.098299 245.58342 
L 321.098299 245.546229 
L 322.098299 245.507133 
L 323.098299 245.464693 
L 324.098299 245.431928 
L 325.098299 245.364501 
L 326.098299 245.325375 
L 327.098299 245.282701 
L 328.098299 245.21212 
L 329.098299 245.175729 
L 330.098299 245.117326 
L 331.098299 245.006374 
L 332.098299 244.935715 
L 333.098299 244.822776 
L 334.098299 244.777003 
L 335.098299 244.715719 
L 336.098299 244.66722 
L 337.098299 244.586397 
L 338.098299 244.467879 
L 339.098299 244.397668 
L 340.098299 244.314405 
L 341.098299 244.281264 
L 342.098299 244.230026 
L 343.098299 244.161628 
L 344.098299 244.095413 
L 345.098299 244.018496 
L 346.098299 243.99118 
L 347.098299 243.964703 
L 348.098299 243.942052 
L 349.098299 243.922521 
L 350.098299 243.896127 
L 351.098299 243.846356 
L 352.098299 243.811283 
L 353.682951 243.775417 
" clip-path="url(#p4a963d84ff)" style="fill: none; stroke: #1f77b4; stroke-opacity: 0.5; stroke-width: 0.2; stroke-linecap: square"/>
   <path d="M 290.098299 216.534204 
L 291.098299 216.565641 
L 292.098299 216.602581 
L 293.098299 216.700328 
L 294.098299 216.732849 
L 295.098299 216.806474 
L 296.098299 216.845039 
L 297.098299 216.880453 
L 298.098299 216.938092 
L 299.098299 217.008479 
L 300.098299 217.060443 
L 301.098299 217.119533 
L 302.098299 217.207854 
L 303.098299 217.253998 
L 304.098299 217.296409 
L 305.098299 217.326902 
L 306.098299 217.352946 
L 307.098299 217.374147 
L 308.098299 217.428448 
L 309.098299 217.456385 
L 310.098299 217.486109 
L 311.098299 217.511504 
L 312.098299 217.522704 
L 313.098299 217.532828 
L 314.098299 217.532624 
L 315.098299 217.523114 
L 316.098299 217.511461 
L 317.098299 217.480431 
L 318.098299 217.469263 
L 319.098299 217.439146 
L 320.098299 217.379369 
L 321.098299 217.342177 
L 322.098299 217.303081 
L 323.098299 217.260642 
L 324.098299 217.227877 
L 325.098299 217.16045 
L 326.098299 217.121324 
L 327.098299 217.07865 
L 328.098299 217.008069 
L 329.098299 216.971678 
L 330.098299 216.913275 
L 331.098299 216.802322 
L 332.098299 216.731664 
L 333.098299 216.618724 
L 334.098299 216.572951 
L 335.098299 216.511668 
L 336.098299 216.463169 
L 337.098299 216.382346 
L 338.098299 216.263827 
L 339.098299 216.193617 
L 340.098299 216.110354 
L 341.098299 216.077212 
L 342.098299 216.025975 
L 343.098299 215.957577 
L 344.098299 215.891361 
L 345.098299 215.814444 
L 346.098299 215.787129 
L 347.098299 215.760651 
L 348.098299 215.738001 
L 349.098299 215.718469 
L 350.098299 215.692075 
L 351.098299 215.642304 
L 352.098299 215.607231 
L 353.682951 215.571366 
" clip-path="url(#p4a963d84ff)" style="fill: none; stroke: #1f77b4; stroke-opacity: 0.5; stroke-width: 0.2; stroke-linecap: square"/>
   <path d="M 290.098299 273.616962 
L 291.098299 273.648398 
L 292.098299 273.685338 
L 293.098299 273.783085 
L 294.098299 273.815607 
L 295.098299 273.889231 
L 296.098299 273.927797 
L 297.098299 273.96321 
L 298.098299 274.02085 
L 299.098299 274.091236 
L 300.098299 274.1432 
L 301.098299 274.20229 
L 302.098299 274.290611 
L 303.098299 274.336755 
L 304.098299 274.379166 
L 305.098299 274.409659 
L 306.098299 274.435704 
L 307.098299 274.456904 
L 308.098299 274.511205 
L 309.098299 274.539143 
L 310.098299 274.568867 
L 311.098299 274.594261 
L 312.098299 274.605462 
L 313.098299 274.615586 
L 314.098299 274.615381 
L 315.098299 274.605872 
L 316.098299 274.594218 
L 317.098299 274.563189 
L 318.098299 274.552021 
L 319.098299 274.521903 
L 320.098299 274.462126 
L 321.098299 274.424935 
L 322.098299 274.385839 
L 323.098299 274.343399 
L 324.098299 274.310634 
L 325.098299 274.243208 
L 326.098299 274.204082 
L 327.098299 274.161407 
L 328.098299 274.090827 
L 329.098299 274.054436 
L 330.098299 273.996032 
L 331.098299 273.88508 
L 332.098299 273.814422 
L 333.098299 273.701482 
L 334.098299 273.655709 
L 335.098299 273.594426 
L 336.098299 273.545926 
L 337.098299 273.465104 
L 338.098299 273.346585 
L 339.098299 273.276374 
L 340.098299 273.193112 
L 341.098299 273.15997 
L 342.098299 273.108732 
L 343.098299 273.040334 
L 344.098299 272.974119 
L 345.098299 272.897202 
L 346.098299 272.869886 
L 347.098299 272.843409 
L 348.098299 272.820758 
L 349.098299 272.801227 
L 350.098299 272.774833 
L 351.098299 272.725062 
L 352.098299 272.689989 
L 353.682951 272.654123 
" clip-path="url(#p4a963d84ff)" style="fill: none; stroke: #1f77b4; stroke-opacity: 0.5; stroke-width: 0.2; stroke-linecap: square"/>
   <path d="M 290.098299 293.595125 
L 291.098299 293.626562 
L 292.098299 293.663502 
L 293.098299 293.761249 
L 294.098299 293.79377 
L 295.098299 293.867395 
L 296.098299 293.905961 
L 297.098299 293.941374 
L 298.098299 293.999014 
L 299.098299 294.0694 
L 300.098299 294.121364 
L 301.098299 294.180454 
L 302.098299 294.268775 
L 303.098299 294.314919 
L 304.098299 294.35733 
L 305.098299 294.387823 
L 306.098299 294.413868 
L 307.098299 294.435068 
L 308.098299 294.489369 
L 309.098299 294.517306 
L 310.098299 294.54703 
L 311.098299 294.572425 
L 312.098299 294.583626 
L 313.098299 294.59375 
L 314.098299 294.593545 
L 315.098299 294.584035 
L 316.098299 294.572382 
L 317.098299 294.541353 
L 318.098299 294.530185 
L 319.098299 294.500067 
L 320.098299 294.44029 
L 321.098299 294.403099 
L 322.098299 294.364003 
L 323.098299 294.321563 
L 324.098299 294.288798 
L 325.098299 294.221371 
L 326.098299 294.182245 
L 327.098299 294.139571 
L 328.098299 294.06899 
L 329.098299 294.032599 
L 330.098299 293.974196 
L 331.098299 293.863244 
L 332.098299 293.792585 
L 333.098299 293.679645 
L 334.098299 293.633873 
L 335.098299 293.572589 
L 336.098299 293.52409 
L 337.098299 293.443267 
L 338.098299 293.324748 
L 339.098299 293.254538 
L 340.098299 293.171275 
L 341.098299 293.138134 
L 342.098299 293.086896 
L 343.098299 293.018498 
L 344.098299 292.952282 
L 345.098299 292.875365 
L 346.098299 292.84805 
L 347.098299 292.821572 
L 348.098299 292.798922 
L 349.098299 292.77939 
L 350.098299 292.752997 
L 351.098299 292.703226 
L 352.098299 292.668153 
L 353.682951 292.632287 
" clip-path="url(#p4a963d84ff)" style="fill: none; stroke: #1f77b4; stroke-opacity: 0.5; stroke-width: 0.2; stroke-linecap: square"/>
   <path d="M 290.098299 298.569192 
L 291.098299 298.600628 
L 292.098299 298.637569 
L 293.098299 298.735315 
L 294.098299 298.767837 
L 295.098299 298.841462 
L 296.098299 298.880027 
L 297.098299 298.91544 
L 298.098299 298.97308 
L 299.098299 299.043466 
L 300.098299 299.095431 
L 301.098299 299.15452 
L 302.098299 299.242841 
L 303.098299 299.288986 
L 304.098299 299.331397 
L 305.098299 299.361889 
L 306.098299 299.387934 
L 307.098299 299.409134 
L 308.098299 299.463435 
L 309.098299 299.491373 
L 310.098299 299.521097 
L 311.098299 299.546492 
L 312.098299 299.557692 
L 313.098299 299.567816 
L 314.098299 299.567612 
L 315.098299 299.558102 
L 316.098299 299.546448 
L 317.098299 299.515419 
L 318.098299 299.504251 
L 319.098299 299.474134 
L 320.098299 299.414357 
L 321.098299 299.377165 
L 322.098299 299.338069 
L 323.098299 299.295629 
L 324.098299 299.262864 
L 325.098299 299.195438 
L 326.098299 299.156312 
L 327.098299 299.113637 
L 328.098299 299.043057 
L 329.098299 299.006666 
L 330.098299 298.948263 
L 331.098299 298.83731 
L 332.098299 298.766652 
L 333.098299 298.653712 
L 334.098299 298.607939 
L 335.098299 298.546656 
L 336.098299 298.498157 
L 337.098299 298.417334 
L 338.098299 298.298815 
L 339.098299 298.228604 
L 340.098299 298.145342 
L 341.098299 298.1122 
L 342.098299 298.060963 
L 343.098299 297.992564 
L 344.098299 297.926349 
L 345.098299 297.849432 
L 346.098299 297.822116 
L 347.098299 297.795639 
L 348.098299 297.772988 
L 349.098299 297.753457 
L 350.098299 297.727063 
L 351.098299 297.677292 
L 352.098299 297.642219 
L 353.682951 297.606353 
" clip-path="url(#p4a963d84ff)" style="fill: none; stroke: #1f77b4; stroke-opacity: 0.5; stroke-width: 0.2; stroke-linecap: square"/>
   <path d="M 290.098299 252.170146 
L 291.098299 252.201582 
L 292.098299 252.238523 
L 293.098299 252.336269 
L 294.098299 252.368791 
L 295.098299 252.442415 
L 296.098299 252.480981 
L 297.098299 252.516394 
L 298.098299 252.574034 
L 299.098299 252.64442 
L 300.098299 252.696385 
L 301.098299 252.755474 
L 302.098299 252.843795 
L 303.098299 252.88994 
L 304.098299 252.93235 
L 305.098299 252.962843 
L 306.098299 252.988888 
L 307.098299 253.010088 
L 308.098299 253.064389 
L 309.098299 253.092327 
L 310.098299 253.122051 
L 311.098299 253.147446 
L 312.098299 253.158646 
L 313.098299 253.16877 
L 314.098299 253.168566 
L 315.098299 253.159056 
L 316.098299 253.147402 
L 317.098299 253.116373 
L 318.098299 253.105205 
L 319.098299 253.075088 
L 320.098299 253.015311 
L 321.098299 252.978119 
L 322.098299 252.939023 
L 323.098299 252.896583 
L 324.098299 252.863818 
L 325.098299 252.796392 
L 326.098299 252.757266 
L 327.098299 252.714591 
L 328.098299 252.644011 
L 329.098299 252.60762 
L 330.098299 252.549217 
L 331.098299 252.438264 
L 332.098299 252.367606 
L 333.098299 252.254666 
L 334.098299 252.208893 
L 335.098299 252.14761 
L 336.098299 252.09911 
L 337.098299 252.018288 
L 338.098299 251.899769 
L 339.098299 251.829558 
L 340.098299 251.746296 
L 341.098299 251.713154 
L 342.098299 251.661917 
L 343.098299 251.593518 
L 344.098299 251.527303 
L 345.098299 251.450386 
L 346.098299 251.42307 
L 347.098299 251.396593 
L 348.098299 251.373942 
L 349.098299 251.354411 
L 350.098299 251.328017 
L 351.098299 251.278246 
L 352.098299 251.243173 
L 353.682951 251.207307 
" clip-path="url(#p4a963d84ff)" style="fill: none; stroke: #1f77b4; stroke-opacity: 0.5; stroke-width: 0.2; stroke-linecap: square"/>
   <path d="M 290.098299 290.891783 
L 291.098299 290.92322 
L 292.098299 290.96016 
L 293.098299 291.057906 
L 294.098299 291.090428 
L 295.098299 291.164053 
L 296.098299 291.202618 
L 297.098299 291.238032 
L 298.098299 291.295671 
L 299.098299 291.366058 
L 300.098299 291.418022 
L 301.098299 291.477112 
L 302.098299 291.565433 
L 303.098299 291.611577 
L 304.098299 291.653988 
L 305.098299 291.684481 
L 306.098299 291.710525 
L 307.098299 291.731726 
L 308.098299 291.786027 
L 309.098299 291.813964 
L 310.098299 291.843688 
L 311.098299 291.869083 
L 312.098299 291.880283 
L 313.098299 291.890407 
L 314.098299 291.890203 
L 315.098299 291.880693 
L 316.098299 291.86904 
L 317.098299 291.83801 
L 318.098299 291.826842 
L 319.098299 291.796725 
L 320.098299 291.736948 
L 321.098299 291.699756 
L 322.098299 291.66066 
L 323.098299 291.618221 
L 324.098299 291.585456 
L 325.098299 291.518029 
L 326.098299 291.478903 
L 327.098299 291.436229 
L 328.098299 291.365648 
L 329.098299 291.329257 
L 330.098299 291.270854 
L 331.098299 291.159901 
L 332.098299 291.089243 
L 333.098299 290.976303 
L 334.098299 290.93053 
L 335.098299 290.869247 
L 336.098299 290.820748 
L 337.098299 290.739925 
L 338.098299 290.621406 
L 339.098299 290.551196 
L 340.098299 290.467933 
L 341.098299 290.434791 
L 342.098299 290.383554 
L 343.098299 290.315156 
L 344.098299 290.24894 
L 345.098299 290.172023 
L 346.098299 290.144708 
L 347.098299 290.11823 
L 348.098299 290.09558 
L 349.098299 290.076048 
L 350.098299 290.049654 
L 351.098299 289.999883 
L 352.098299 289.96481 
L 353.682951 289.928945 
" clip-path="url(#p4a963d84ff)" style="fill: none; stroke: #1f77b4; stroke-opacity: 0.5; stroke-width: 0.2; stroke-linecap: square"/>
   <path d="M 290.098299 216.103156 
L 291.098299 216.134592 
L 292.098299 216.171533 
L 293.098299 216.269279 
L 294.098299 216.301801 
L 295.098299 216.375425 
L 296.098299 216.413991 
L 297.098299 216.449404 
L 298.098299 216.507044 
L 299.098299 216.57743 
L 300.098299 216.629394 
L 301.098299 216.688484 
L 302.098299 216.776805 
L 303.098299 216.822949 
L 304.098299 216.86536 
L 305.098299 216.895853 
L 306.098299 216.921898 
L 307.098299 216.943098 
L 308.098299 216.997399 
L 309.098299 217.025337 
L 310.098299 217.055061 
L 311.098299 217.080456 
L 312.098299 217.091656 
L 313.098299 217.10178 
L 314.098299 217.101576 
L 315.098299 217.092066 
L 316.098299 217.080412 
L 317.098299 217.049383 
L 318.098299 217.038215 
L 319.098299 217.008097 
L 320.098299 216.948321 
L 321.098299 216.911129 
L 322.098299 216.872033 
L 323.098299 216.829593 
L 324.098299 216.796828 
L 325.098299 216.729402 
L 326.098299 216.690276 
L 327.098299 216.647601 
L 328.098299 216.577021 
L 329.098299 216.54063 
L 330.098299 216.482227 
L 331.098299 216.371274 
L 332.098299 216.300616 
L 333.098299 216.187676 
L 334.098299 216.141903 
L 335.098299 216.08062 
L 336.098299 216.03212 
L 337.098299 215.951298 
L 338.098299 215.832779 
L 339.098299 215.762568 
L 340.098299 215.679306 
L 341.098299 215.646164 
L 342.098299 215.594927 
L 343.098299 215.526528 
L 344.098299 215.460313 
L 345.098299 215.383396 
L 346.098299 215.35608 
L 347.098299 215.329603 
L 348.098299 215.306952 
L 349.098299 215.287421 
L 350.098299 215.261027 
L 351.098299 215.211256 
L 352.098299 215.176183 
L 353.682951 215.140317 
" clip-path="url(#p4a963d84ff)" style="fill: none; stroke: #1f77b4; stroke-opacity: 0.5; stroke-width: 0.2; stroke-linecap: square"/>
   <g id="patch_3">
    <path d="M 69.06392 22.318125 
L 69.06392 318.021875 
M 284.536112 22.318125 
L 284.536112 318.021875 
" clip-path="url(#p4a963d84ff)" style="fill: none; stroke: #ffffff; stroke-width: 3; stroke-linejoin: miter"/>
    <path d="M 69.06392 22.318125 
L 69.06392 318.021875 
M 284.536112 22.318125 
L 284.536112 318.021875 
" clip-path="url(#p4a963d84ff)" style="fill: none; stroke: #1f77b4; stroke-linejoin: miter"/>
    <g id="PolyCollection_1">
     <path d="M 284.536112 22.318125 
L 69.06392 22.318125 
L 69.06392 318.021875 
L 284.536112 318.021875 
L 284.536112 318.021875 
L 284.536112 22.318125 
z
" clip-path="url(#p4a963d84ff)" style="fill: #1f77b4; fill-opacity: 0.5"/>
    </g>
    <g id="patch_4">
     <path d="M 359.245138 22.318125 
L 359.245138 318.021875 
M 574.71733 22.318125 
L 574.71733 318.021875 
" clip-path="url(#p4a963d84ff)" style="fill: none; stroke: #ffffff; stroke-width: 3; stroke-linejoin: miter"/>
     <path d="M 359.245138 22.318125 
L 359.245138 318.021875 
M 574.71733 22.318125 
L 574.71733 318.021875 
" clip-path="url(#p4a963d84ff)" style="fill: none; stroke: #ff7f0e; stroke-linejoin: miter"/>
     <g id="PolyCollection_2">
      <path d="M 574.71733 22.318125 
L 359.245138 22.318125 
L 359.245138 318.021875 
L 574.71733 318.021875 
L 574.71733 318.021875 
L 574.71733 22.318125 
z
" clip-path="url(#p4a963d84ff)" style="fill: #ff7f0e; fill-opacity: 0.5"/>
     </g>
     <g id="matplotlib.axis_1">
      <g id="xtick_1">
       <g id="line2d_1"/>
       <g id="text_1">
        <!-- deme0 -->
        <g transform="translate(159.42111 329.120312) scale(0.1 -0.1)">
         <defs>
          <path id="DejaVuSans-64" d="M 2906 2969 
L 2906 4863 
L 3481 4863 
L 3481 0 
L 2906 0 
L 2906 525 
Q 2725 213 2448 61 
Q 2172 -91 1784 -91 
Q 1150 -91 751 415 
Q 353 922 353 1747 
Q 353 2572 751 3078 
Q 1150 3584 1784 3584 
Q 2172 3584 2448 3432 
Q 2725 3281 2906 2969 
z
M 947 1747 
Q 947 1113 1208 752 
Q 1469 391 1925 391 
Q 2381 391 2643 752 
Q 2906 1113 2906 1747 
Q 2906 2381 2643 2742 
Q 2381 3103 1925 3103 
Q 1469 3103 1208 2742 
Q 947 2381 947 1747 
z
" transform="scale(0.015625)"/>
          <path id="DejaVuSans-65" d="M 3597 1894 
L 3597 1613 
L 953 1613 
Q 991 1019 1311 708 
Q 1631 397 2203 397 
Q 2534 397 2845 478 
Q 3156 559 3463 722 
L 3463 178 
Q 3153 47 2828 -22 
Q 2503 -91 2169 -91 
Q 1331 -91 842 396 
Q 353 884 353 1716 
Q 353 2575 817 3079 
Q 1281 3584 2069 3584 
Q 2775 3584 3186 3129 
Q 3597 2675 3597 1894 
z
M 3022 2063 
Q 3016 2534 2758 2815 
Q 2500 3097 2075 3097 
Q 1594 3097 1305 2825 
Q 1016 2553 972 2059 
L 3022 2063 
z
" transform="scale(0.015625)"/>
          <path id="DejaVuSans-6d" d="M 3328 2828 
Q 3544 3216 3844 3400 
Q 4144 3584 4550 3584 
Q 5097 3584 5394 3201 
Q 5691 2819 5691 2113 
L 5691 0 
L 5113 0 
L 5113 2094 
Q 5113 2597 4934 2840 
Q 4756 3084 4391 3084 
Q 3944 3084 3684 2787 
Q 3425 2491 3425 1978 
L 3425 0 
L 2847 0 
L 2847 2094 
Q 2847 2600 2669 2842 
Q 2491 3084 2119 3084 
Q 1678 3084 1418 2786 
Q 1159 2488 1159 1978 
L 1159 0 
L 581 0 
L 581 3500 
L 1159 3500 
L 1159 2956 
Q 1356 3278 1631 3431 
Q 1906 3584 2284 3584 
Q 2666 3584 2933 3390 
Q 3200 3197 3328 2828 
z
" transform="scale(0.015625)"/>
          <path id="DejaVuSans-30" d="M 2034 4250 
Q 1547 4250 1301 3770 
Q 1056 3291 1056 2328 
Q 1056 1369 1301 889 
Q 1547 409 2034 409 
Q 2525 409 2770 889 
Q 3016 1369 3016 2328 
Q 3016 3291 2770 3770 
Q 2525 4250 2034 4250 
z
M 2034 4750 
Q 2819 4750 3233 4129 
Q 3647 3509 3647 2328 
Q 3647 1150 3233 529 
Q 2819 -91 2034 -91 
Q 1250 -91 836 529 
Q 422 1150 422 2328 
Q 422 3509 836 4129 
Q 1250 4750 2034 4750 
z
" transform="scale(0.015625)"/>
         </defs>
         <use xlink:href="#DejaVuSans-64"/>
         <use xlink:href="#DejaVuSans-65" x="63.476562"/>
         <use xlink:href="#DejaVuSans-6d" x="125"/>
         <use xlink:href="#DejaVuSans-65" x="222.412109"/>
         <use xlink:href="#DejaVuSans-30" x="283.935547"/>
        </g>
       </g>
      </g>
      <g id="xtick_2">
       <g id="line2d_2"/>
       <g id="text_2">
        <!-- deme1 -->
        <g transform="translate(449.602328 329.120312) scale(0.1 -0.1)">
         <defs>
          <path id="DejaVuSans-31" d="M 794 531 
L 1825 531 
L 1825 4091 
L 703 3866 
L 703 4441 
L 1819 4666 
L 2450 4666 
L 2450 531 
L 3481 531 
L 3481 0 
L 794 0 
L 794 531 
z
" transform="scale(0.015625)"/>
         </defs>
         <use xlink:href="#DejaVuSans-64"/>
         <use xlink:href="#DejaVuSans-65" x="63.476562"/>
         <use xlink:href="#DejaVuSans-6d" x="125"/>
         <use xlink:href="#DejaVuSans-65" x="222.412109"/>
         <use xlink:href="#DejaVuSans-31" x="283.935547"/>
        </g>
       </g>
      </g>
     </g>
     <g id="matplotlib.axis_2">
      <g id="ytick_1">
       <g id="line2d_3">
        <defs>
         <path id="me23e24da25" d="M 0 0 
L -3.5 0 
" style="stroke: #000000; stroke-width: 0.8"/>
        </defs>
        <g>
         <use xlink:href="#me23e24da25" x="43.78125" y="318.021875" style="stroke: #000000; stroke-width: 0.8"/>
        </g>
       </g>
       <g id="text_3">
        <!-- 0.0 -->
        <g transform="translate(20.878125 321.821094) scale(0.1 -0.1)">
         <defs>
          <path id="DejaVuSans-2e" d="M 684 794 
L 1344 794 
L 1344 0 
L 684 0 
L 684 794 
z
" transform="scale(0.015625)"/>
         </defs>
         <use xlink:href="#DejaVuSans-30"/>
         <use xlink:href="#DejaVuSans-2e" x="63.623047"/>
         <use xlink:href="#DejaVuSans-30" x="95.410156"/>
        </g>
       </g>
      </g>
      <g id="ytick_2">
       <g id="line2d_4">
        <g>
         <use xlink:href="#me23e24da25" x="43.78125" y="258.881125" style="stroke: #000000; stroke-width: 0.8"/>
        </g>
       </g>
       <g id="text_4">
        <!-- 0.5 -->
        <g transform="translate(20.878125 262.680344) scale(0.1 -0.1)">
         <defs>
          <path id="DejaVuSans-35" d="M 691 4666 
L 3169 4666 
L 3169 4134 
L 1269 4134 
L 1269 2991 
Q 1406 3038 1543 3061 
Q 1681 3084 1819 3084 
Q 2600 3084 3056 2656 
Q 3513 2228 3513 1497 
Q 3513 744 3044 326 
Q 2575 -91 1722 -91 
Q 1428 -91 1123 -41 
Q 819 9 494 109 
L 494 744 
Q 775 591 1075 516 
Q 1375 441 1709 441 
Q 2250 441 2565 725 
Q 2881 1009 2881 1497 
Q 2881 1984 2565 2268 
Q 2250 2553 1709 2553 
Q 1456 2553 1204 2497 
Q 953 2441 691 2322 
L 691 4666 
z
" transform="scale(0.015625)"/>
         </defs>
         <use xlink:href="#DejaVuSans-30"/>
         <use xlink:href="#DejaVuSans-2e" x="63.623047"/>
         <use xlink:href="#DejaVuSans-35" x="95.410156"/>
        </g>
       </g>
      </g>
      <g id="ytick_3">
       <g id="line2d_5">
        <g>
         <use xlink:href="#me23e24da25" x="43.78125" y="199.740375" style="stroke: #000000; stroke-width: 0.8"/>
        </g>
       </g>
       <g id="text_5">
        <!-- 1.0 -->
        <g transform="translate(20.878125 203.539594) scale(0.1 -0.1)">
         <use xlink:href="#DejaVuSans-31"/>
         <use xlink:href="#DejaVuSans-2e" x="63.623047"/>
         <use xlink:href="#DejaVuSans-30" x="95.410156"/>
        </g>
       </g>
      </g>
      <g id="ytick_4">
       <g id="line2d_6">
        <g>
         <use xlink:href="#me23e24da25" x="43.78125" y="140.599625" style="stroke: #000000; stroke-width: 0.8"/>
        </g>
       </g>
       <g id="text_6">
        <!-- 1.5 -->
        <g transform="translate(20.878125 144.398844) scale(0.1 -0.1)">
         <use xlink:href="#DejaVuSans-31"/>
         <use xlink:href="#DejaVuSans-2e" x="63.623047"/>
         <use xlink:href="#DejaVuSans-35" x="95.410156"/>
        </g>
       </g>
      </g>
      <g id="ytick_5">
       <g id="line2d_7">
        <g>
         <use xlink:href="#me23e24da25" x="43.78125" y="81.458875" style="stroke: #000000; stroke-width: 0.8"/>
        </g>
       </g>
       <g id="text_7">
        <!-- 2.0 -->
        <g transform="translate(20.878125 85.258094) scale(0.1 -0.1)">
         <defs>
          <path id="DejaVuSans-32" d="M 1228 531 
L 3431 531 
L 3431 0 
L 469 0 
L 469 531 
Q 828 903 1448 1529 
Q 2069 2156 2228 2338 
Q 2531 2678 2651 2914 
Q 2772 3150 2772 3378 
Q 2772 3750 2511 3984 
Q 2250 4219 1831 4219 
Q 1534 4219 1204 4116 
Q 875 4013 500 3803 
L 500 4441 
Q 881 4594 1212 4672 
Q 1544 4750 1819 4750 
Q 2544 4750 2975 4387 
Q 3406 4025 3406 3419 
Q 3406 3131 3298 2873 
Q 3191 2616 2906 2266 
Q 2828 2175 2409 1742 
Q 1991 1309 1228 531 
z
" transform="scale(0.015625)"/>
         </defs>
         <use xlink:href="#DejaVuSans-32"/>
         <use xlink:href="#DejaVuSans-2e" x="63.623047"/>
         <use xlink:href="#DejaVuSans-30" x="95.410156"/>
        </g>
       </g>
      </g>
      <g id="ytick_6">
       <g id="line2d_8">
        <g>
         <use xlink:href="#me23e24da25" x="43.78125" y="22.318125" style="stroke: #000000; stroke-width: 0.8"/>
        </g>
       </g>
       <g id="text_8">
        <!-- 2.5 -->
        <g transform="translate(20.878125 26.117344) scale(0.1 -0.1)">
         <use xlink:href="#DejaVuSans-32"/>
         <use xlink:href="#DejaVuSans-2e" x="63.623047"/>
         <use xlink:href="#DejaVuSans-35" x="95.410156"/>
        </g>
       </g>
      </g>
      <g id="text_9">
       <!-- time ago (generations) -->
       <g transform="translate(14.798438 227.641094) rotate(-90) scale(0.1 -0.1)">
        <defs>
         <path id="DejaVuSans-74" d="M 1172 4494 
L 1172 3500 
L 2356 3500 
L 2356 3053 
L 1172 3053 
L 1172 1153 
Q 1172 725 1289 603 
Q 1406 481 1766 481 
L 2356 481 
L 2356 0 
L 1766 0 
Q 1100 0 847 248 
Q 594 497 594 1153 
L 594 3053 
L 172 3053 
L 172 3500 
L 594 3500 
L 594 4494 
L 1172 4494 
z
" transform="scale(0.015625)"/>
         <path id="DejaVuSans-69" d="M 603 3500 
L 1178 3500 
L 1178 0 
L 603 0 
L 603 3500 
z
M 603 4863 
L 1178 4863 
L 1178 4134 
L 603 4134 
L 603 4863 
z
" transform="scale(0.015625)"/>
         <path id="DejaVuSans-20" transform="scale(0.015625)"/>
         <path id="DejaVuSans-61" d="M 2194 1759 
Q 1497 1759 1228 1600 
Q 959 1441 959 1056 
Q 959 750 1161 570 
Q 1363 391 1709 391 
Q 2188 391 2477 730 
Q 2766 1069 2766 1631 
L 2766 1759 
L 2194 1759 
z
M 3341 1997 
L 3341 0 
L 2766 0 
L 2766 531 
Q 2569 213 2275 61 
Q 1981 -91 1556 -91 
Q 1019 -91 701 211 
Q 384 513 384 1019 
Q 384 1609 779 1909 
Q 1175 2209 1959 2209 
L 2766 2209 
L 2766 2266 
Q 2766 2663 2505 2880 
Q 2244 3097 1772 3097 
Q 1472 3097 1187 3025 
Q 903 2953 641 2809 
L 641 3341 
Q 956 3463 1253 3523 
Q 1550 3584 1831 3584 
Q 2591 3584 2966 3190 
Q 3341 2797 3341 1997 
z
" transform="scale(0.015625)"/>
         <path id="DejaVuSans-67" d="M 2906 1791 
Q 2906 2416 2648 2759 
Q 2391 3103 1925 3103 
Q 1463 3103 1205 2759 
Q 947 2416 947 1791 
Q 947 1169 1205 825 
Q 1463 481 1925 481 
Q 2391 481 2648 825 
Q 2906 1169 2906 1791 
z
M 3481 434 
Q 3481 -459 3084 -895 
Q 2688 -1331 1869 -1331 
Q 1566 -1331 1297 -1286 
Q 1028 -1241 775 -1147 
L 775 -588 
Q 1028 -725 1275 -790 
Q 1522 -856 1778 -856 
Q 2344 -856 2625 -561 
Q 2906 -266 2906 331 
L 2906 616 
Q 2728 306 2450 153 
Q 2172 0 1784 0 
Q 1141 0 747 490 
Q 353 981 353 1791 
Q 353 2603 747 3093 
Q 1141 3584 1784 3584 
Q 2172 3584 2450 3431 
Q 2728 3278 2906 2969 
L 2906 3500 
L 3481 3500 
L 3481 434 
z
" transform="scale(0.015625)"/>
         <path id="DejaVuSans-6f" d="M 1959 3097 
Q 1497 3097 1228 2736 
Q 959 2375 959 1747 
Q 959 1119 1226 758 
Q 1494 397 1959 397 
Q 2419 397 2687 759 
Q 2956 1122 2956 1747 
Q 2956 2369 2687 2733 
Q 2419 3097 1959 3097 
z
M 1959 3584 
Q 2709 3584 3137 3096 
Q 3566 2609 3566 1747 
Q 3566 888 3137 398 
Q 2709 -91 1959 -91 
Q 1206 -91 779 398 
Q 353 888 353 1747 
Q 353 2609 779 3096 
Q 1206 3584 1959 3584 
z
" transform="scale(0.015625)"/>
         <path id="DejaVuSans-28" d="M 1984 4856 
Q 1566 4138 1362 3434 
Q 1159 2731 1159 2009 
Q 1159 1288 1364 580 
Q 1569 -128 1984 -844 
L 1484 -844 
Q 1016 -109 783 600 
Q 550 1309 550 2009 
Q 550 2706 781 3412 
Q 1013 4119 1484 4856 
L 1984 4856 
z
" transform="scale(0.015625)"/>
         <path id="DejaVuSans-6e" d="M 3513 2113 
L 3513 0 
L 2938 0 
L 2938 2094 
Q 2938 2591 2744 2837 
Q 2550 3084 2163 3084 
Q 1697 3084 1428 2787 
Q 1159 2491 1159 1978 
L 1159 0 
L 581 0 
L 581 3500 
L 1159 3500 
L 1159 2956 
Q 1366 3272 1645 3428 
Q 1925 3584 2291 3584 
Q 2894 3584 3203 3211 
Q 3513 2838 3513 2113 
z
" transform="scale(0.015625)"/>
         <path id="DejaVuSans-72" d="M 2631 2963 
Q 2534 3019 2420 3045 
Q 2306 3072 2169 3072 
Q 1681 3072 1420 2755 
Q 1159 2438 1159 1844 
L 1159 0 
L 581 0 
L 581 3500 
L 1159 3500 
L 1159 2956 
Q 1341 3275 1631 3429 
Q 1922 3584 2338 3584 
Q 2397 3584 2469 3576 
Q 2541 3569 2628 3553 
L 2631 2963 
z
" transform="scale(0.015625)"/>
         <path id="DejaVuSans-73" d="M 2834 3397 
L 2834 2853 
Q 2591 2978 2328 3040 
Q 2066 3103 1784 3103 
Q 1356 3103 1142 2972 
Q 928 2841 928 2578 
Q 928 2378 1081 2264 
Q 1234 2150 1697 2047 
L 1894 2003 
Q 2506 1872 2764 1633 
Q 3022 1394 3022 966 
Q 3022 478 2636 193 
Q 2250 -91 1575 -91 
Q 1294 -91 989 -36 
Q 684 19 347 128 
L 347 722 
Q 666 556 975 473 
Q 1284 391 1588 391 
Q 1994 391 2212 530 
Q 2431 669 2431 922 
Q 2431 1156 2273 1281 
Q 2116 1406 1581 1522 
L 1381 1569 
Q 847 1681 609 1914 
Q 372 2147 372 2553 
Q 372 3047 722 3315 
Q 1072 3584 1716 3584 
Q 2034 3584 2315 3537 
Q 2597 3491 2834 3397 
z
" transform="scale(0.015625)"/>
         <path id="DejaVuSans-29" d="M 513 4856 
L 1013 4856 
Q 1481 4119 1714 3412 
Q 1947 2706 1947 2009 
Q 1947 1309 1714 600 
Q 1481 -109 1013 -844 
L 513 -844 
Q 928 -128 1133 580 
Q 1338 1288 1338 2009 
Q 1338 2731 1133 3434 
Q 928 4138 513 4856 
z
" transform="scale(0.015625)"/>
        </defs>
        <use xlink:href="#DejaVuSans-74"/>
        <use xlink:href="#DejaVuSans-69" x="39.208984"/>
        <use xlink:href="#DejaVuSans-6d" x="66.992188"/>
        <use xlink:href="#DejaVuSans-65" x="164.404297"/>
        <use xlink:href="#DejaVuSans-20" x="225.927734"/>
        <use xlink:href="#DejaVuSans-61" x="257.714844"/>
        <use xlink:href="#DejaVuSans-67" x="318.994141"/>
        <use xlink:href="#DejaVuSans-6f" x="382.470703"/>
        <use xlink:href="#DejaVuSans-20" x="443.652344"/>
        <use xlink:href="#DejaVuSans-28" x="475.439453"/>
        <use xlink:href="#DejaVuSans-67" x="514.453125"/>
        <use xlink:href="#DejaVuSans-65" x="577.929688"/>
        <use xlink:href="#DejaVuSans-6e" x="639.453125"/>
        <use xlink:href="#DejaVuSans-65" x="702.832031"/>
        <use xlink:href="#DejaVuSans-72" x="764.355469"/>
        <use xlink:href="#DejaVuSans-61" x="805.46875"/>
        <use xlink:href="#DejaVuSans-74" x="866.748047"/>
        <use xlink:href="#DejaVuSans-69" x="905.957031"/>
        <use xlink:href="#DejaVuSans-6f" x="933.740234"/>
        <use xlink:href="#DejaVuSans-6e" x="994.921875"/>
        <use xlink:href="#DejaVuSans-73" x="1058.300781"/>
        <use xlink:href="#DejaVuSans-29" x="1110.400391"/>
       </g>
      </g>
     </g>
     <path d="M 354.682951 99.598433 
L 352.682951 98.598433 
L 352.682951 100.598433 
z
" clip-path="url(#p4a963d84ff)" style="fill: #1f77b4; fill-opacity: 0.5; stroke: #1f77b4; stroke-opacity: 0.5; stroke-linejoin: miter"/>
     <path d="M 354.682951 132.103605 
L 352.682951 131.103605 
L 352.682951 133.103605 
z
" clip-path="url(#p4a963d84ff)" style="fill: #1f77b4; fill-opacity: 0.5; stroke: #1f77b4; stroke-opacity: 0.5; stroke-linejoin: miter"/>
     <path d="M 354.682951 123.413881 
L 352.682951 122.413881 
L 352.682951 124.413881 
z
" clip-path="url(#p4a963d84ff)" style="fill: #1f77b4; fill-opacity: 0.5; stroke: #1f77b4; stroke-opacity: 0.5; stroke-linejoin: miter"/>
     <path d="M 354.682951 148.196905 
L 352.682951 147.196905 
L 352.682951 149.196905 
z
" clip-path="url(#p4a963d84ff)" style="fill: #1f77b4; fill-opacity: 0.5; stroke: #1f77b4; stroke-opacity: 0.5; stroke-linejoin: miter"/>
     <path d="M 354.682951 114.853377 
L 352.682951 113.853377 
L 352.682951 115.853377 
z
" clip-path="url(#p4a963d84ff)" style="fill: #1f77b4; fill-opacity: 0.5; stroke: #1f77b4; stroke-opacity: 0.5; stroke-linejoin: miter"/>
     <path d="M 354.682951 180.410421 
L 352.682951 179.410421 
L 352.682951 181.410421 
z
" clip-path="url(#p4a963d84ff)" style="fill: #1f77b4; fill-opacity: 0.5; stroke: #1f77b4; stroke-opacity: 0.5; stroke-linejoin: miter"/>
     <path d="M 354.682951 162.488518 
L 352.682951 161.488518 
L 352.682951 163.488518 
z
" clip-path="url(#p4a963d84ff)" style="fill: #1f77b4; fill-opacity: 0.5; stroke: #1f77b4; stroke-opacity: 0.5; stroke-linejoin: miter"/>
     <path d="M 354.682951 188.491513 
L 352.682951 187.491513 
L 352.682951 189.491513 
z
" clip-path="url(#p4a963d84ff)" style="fill: #1f77b4; fill-opacity: 0.5; stroke: #1f77b4; stroke-opacity: 0.5; stroke-linejoin: miter"/>
     <path d="M 354.682951 88.835802 
L 352.682951 87.835802 
L 352.682951 89.835802 
z
" clip-path="url(#p4a963d84ff)" style="fill: #1f77b4; fill-opacity: 0.5; stroke: #1f77b4; stroke-opacity: 0.5; stroke-linejoin: miter"/>
     <path d="M 354.682951 158.593461 
L 352.682951 157.593461 
L 352.682951 159.593461 
z
" clip-path="url(#p4a963d84ff)" style="fill: #1f77b4; fill-opacity: 0.5; stroke: #1f77b4; stroke-opacity: 0.5; stroke-linejoin: miter"/>
     <path d="M 354.682951 317.140192 
L 352.682951 316.140192 
L 352.682951 318.140192 
z
" clip-path="url(#p4a963d84ff)" style="fill: #1f77b4; fill-opacity: 0.5; stroke: #1f77b4; stroke-opacity: 0.5; stroke-linejoin: miter"/>
     <path d="M 354.682951 245.123608 
L 352.682951 244.123608 
L 352.682951 246.123608 
z
" clip-path="url(#p4a963d84ff)" style="fill: #1f77b4; fill-opacity: 0.5; stroke: #1f77b4; stroke-opacity: 0.5; stroke-linejoin: miter"/>
     <path d="M 354.682951 244.738256 
L 352.682951 243.738256 
L 352.682951 245.738256 
z
" clip-path="url(#p4a963d84ff)" style="fill: #1f77b4; fill-opacity: 0.5; stroke: #1f77b4; stroke-opacity: 0.5; stroke-linejoin: miter"/>
     <path d="M 354.682951 216.534204 
L 352.682951 215.534204 
L 352.682951 217.534204 
z
" clip-path="url(#p4a963d84ff)" style="fill: #1f77b4; fill-opacity: 0.5; stroke: #1f77b4; stroke-opacity: 0.5; stroke-linejoin: miter"/>
     <path d="M 354.682951 273.616962 
L 352.682951 272.616962 
L 352.682951 274.616962 
z
" clip-path="url(#p4a963d84ff)" style="fill: #1f77b4; fill-opacity: 0.5; stroke: #1f77b4; stroke-opacity: 0.5; stroke-linejoin: miter"/>
     <path d="M 354.682951 293.595125 
L 352.682951 292.595125 
L 352.682951 294.595125 
z
" clip-path="url(#p4a963d84ff)" style="fill: #1f77b4; fill-opacity: 0.5; stroke: #1f77b4; stroke-opacity: 0.5; stroke-linejoin: miter"/>
     <path d="M 354.682951 298.569192 
L 352.682951 297.569192 
L 352.682951 299.569192 
z
" clip-path="url(#p4a963d84ff)" style="fill: #1f77b4; fill-opacity: 0.5; stroke: #1f77b4; stroke-opacity: 0.5; stroke-linejoin: miter"/>
     <path d="M 354.682951 252.170146 
L 352.682951 251.170146 
L 352.682951 253.170146 
z
" clip-path="url(#p4a963d84ff)" style="fill: #1f77b4; fill-opacity: 0.5; stroke: #1f77b4; stroke-opacity: 0.5; stroke-linejoin: miter"/>
     <path d="M 354.682951 290.891783 
L 352.682951 289.891783 
L 352.682951 291.891783 
z
" clip-path="url(#p4a963d84ff)" style="fill: #1f77b4; fill-opacity: 0.5; stroke: #1f77b4; stroke-opacity: 0.5; stroke-linejoin: miter"/>
     <path d="M 354.682951 216.103156 
L 352.682951 215.103156 
L 352.682951 217.103156 
z
" clip-path="url(#p4a963d84ff)" style="fill: #1f77b4; fill-opacity: 0.5; stroke: #1f77b4; stroke-opacity: 0.5; stroke-linejoin: miter"/>
     <g id="patch_5">
      <path d="M 43.78125 318.021875 
L 43.78125 22.318125 
" style="fill: none; stroke: #000000; stroke-width: 0.8; stroke-linejoin: miter; stroke-linecap: square"/>
     </g>
     <g id="text_10">
      <!-- defaults_asymmetric_migration_changing_rate.yaml -->
      <g transform="translate(164.675625 16.318125) scale(0.12 -0.12)">
       <defs>
        <path id="DejaVuSans-66" d="M 2375 4863 
L 2375 4384 
L 1825 4384 
Q 1516 4384 1395 4259 
Q 1275 4134 1275 3809 
L 1275 3500 
L 2222 3500 
L 2222 3053 
L 1275 3053 
L 1275 0 
L 697 0 
L 697 3053 
L 147 3053 
L 147 3500 
L 697 3500 
L 697 3744 
Q 697 4328 969 4595 
Q 1241 4863 1831 4863 
L 2375 4863 
z
" transform="scale(0.015625)"/>
        <path id="DejaVuSans-75" d="M 544 1381 
L 544 3500 
L 1119 3500 
L 1119 1403 
Q 1119 906 1312 657 
Q 1506 409 1894 409 
Q 2359 409 2629 706 
Q 2900 1003 2900 1516 
L 2900 3500 
L 3475 3500 
L 3475 0 
L 2900 0 
L 2900 538 
Q 2691 219 2414 64 
Q 2138 -91 1772 -91 
Q 1169 -91 856 284 
Q 544 659 544 1381 
z
M 1991 3584 
L 1991 3584 
z
" transform="scale(0.015625)"/>
        <path id="DejaVuSans-6c" d="M 603 4863 
L 1178 4863 
L 1178 0 
L 603 0 
L 603 4863 
z
" transform="scale(0.015625)"/>
        <path id="DejaVuSans-5f" d="M 3263 -1063 
L 3263 -1509 
L -63 -1509 
L -63 -1063 
L 3263 -1063 
z
" transform="scale(0.015625)"/>
        <path id="DejaVuSans-79" d="M 2059 -325 
Q 1816 -950 1584 -1140 
Q 1353 -1331 966 -1331 
L 506 -1331 
L 506 -850 
L 844 -850 
Q 1081 -850 1212 -737 
Q 1344 -625 1503 -206 
L 1606 56 
L 191 3500 
L 800 3500 
L 1894 763 
L 2988 3500 
L 3597 3500 
L 2059 -325 
z
" transform="scale(0.015625)"/>
        <path id="DejaVuSans-63" d="M 3122 3366 
L 3122 2828 
Q 2878 2963 2633 3030 
Q 2388 3097 2138 3097 
Q 1578 3097 1268 2742 
Q 959 2388 959 1747 
Q 959 1106 1268 751 
Q 1578 397 2138 397 
Q 2388 397 2633 464 
Q 2878 531 3122 666 
L 3122 134 
Q 2881 22 2623 -34 
Q 2366 -91 2075 -91 
Q 1284 -91 818 406 
Q 353 903 353 1747 
Q 353 2603 823 3093 
Q 1294 3584 2113 3584 
Q 2378 3584 2631 3529 
Q 2884 3475 3122 3366 
z
" transform="scale(0.015625)"/>
        <path id="DejaVuSans-68" d="M 3513 2113 
L 3513 0 
L 2938 0 
L 2938 2094 
Q 2938 2591 2744 2837 
Q 2550 3084 2163 3084 
Q 1697 3084 1428 2787 
Q 1159 2491 1159 1978 
L 1159 0 
L 581 0 
L 581 4863 
L 1159 4863 
L 1159 2956 
Q 1366 3272 1645 3428 
Q 1925 3584 2291 3584 
Q 2894 3584 3203 3211 
Q 3513 2838 3513 2113 
z
" transform="scale(0.015625)"/>
       </defs>
       <use xlink:href="#DejaVuSans-64"/>
       <use xlink:href="#DejaVuSans-65" x="63.476562"/>
       <use xlink:href="#DejaVuSans-66" x="125"/>
       <use xlink:href="#DejaVuSans-61" x="160.205078"/>
       <use xlink:href="#DejaVuSans-75" x="221.484375"/>
       <use xlink:href="#DejaVuSans-6c" x="284.863281"/>
       <use xlink:href="#DejaVuSans-74" x="312.646484"/>
       <use xlink:href="#DejaVuSans-73" x="351.855469"/>
       <use xlink:href="#DejaVuSans-5f" x="403.955078"/>
       <use xlink:href="#DejaVuSans-61" x="453.955078"/>
       <use xlink:href="#DejaVuSans-73" x="515.234375"/>
       <use xlink:href="#DejaVuSans-79" x="567.333984"/>
       <use xlink:href="#DejaVuSans-6d" x="626.513672"/>
       <use xlink:href="#DejaVuSans-6d" x="723.925781"/>
       <use xlink:href="#DejaVuSans-65" x="821.337891"/>
       <use xlink:href="#DejaVuSans-74" x="882.861328"/>
       <use xlink:href="#DejaVuSans-72" x="922.070312"/>
       <use xlink:href="#DejaVuSans-69" x="963.183594"/>
       <use xlink:href="#DejaVuSans-63" x="990.966797"/>
       <use xlink:href="#DejaVuSans-5f" x="1045.947266"/>
       <use xlink:href="#DejaVuSans-6d" x="1095.947266"/>
       <use xlink:href="#DejaVuSans-69" x="1193.359375"/>
       <use xlink:href="#DejaVuSans-67" x="1221.142578"/>
       <use xlink:href="#DejaVuSans-72" x="1284.619141"/>
       <use xlink:href="#DejaVuSans-61" x="1325.732422"/>
       <use xlink:href="#DejaVuSans-74" x="1387.011719"/>
       <use xlink:href="#DejaVuSans-69" x="1426.220703"/>
       <use xlink:href="#DejaVuSans-6f" x="1454.003906"/>
       <use xlink:href="#DejaVuSans-6e" x="1515.185547"/>
       <use xlink:href="#DejaVuSans-5f" x="1578.564453"/>
       <use xlink:href="#DejaVuSans-63" x="1628.564453"/>
       <use xlink:href="#DejaVuSans-68" x="1683.544922"/>
       <use xlink:href="#DejaVuSans-61" x="1746.923828"/>
       <use xlink:href="#DejaVuSans-6e" x="1808.203125"/>
       <use xlink:href="#DejaVuSans-67" x="1871.582031"/>
       <use xlink:href="#DejaVuSans-69" x="1935.058594"/>
       <use xlink:href="#DejaVuSans-6e" x="1962.841797"/>
       <use xlink:href="#DejaVuSans-67" x="2026.220703"/>
       <use xlink:href="#DejaVuSans-5f" x="2089.697266"/>
       <use xlink:href="#DejaVuSans-72" x="2139.697266"/>
       <use xlink:href="#DejaVuSans-61" x="2180.810547"/>
       <use xlink:href="#DejaVuSans-74" x="2242.089844"/>
       <use xlink:href="#DejaVuSans-65" x="2281.298828"/>
       <use xlink:href="#DejaVuSans-2e" x="2342.822266"/>
       <use xlink:href="#DejaVuSans-79" x="2374.609375"/>
       <use xlink:href="#DejaVuSans-61" x="2433.789062"/>
       <use xlink:href="#DejaVuSans-6d" x="2495.068359"/>
       <use xlink:href="#DejaVuSans-6c" x="2592.480469"/>
      </g>
     </g>
    </g>
   </g>
   <defs>
    <clipPath id="p4a963d84ff">
     <rect x="43.78125" y="22.318125" width="556.21875" height="295.70375"/>
    </clipPath>
   </defs>
  </g>
 </g>
</svg>