<?xml version="1.0" encoding="utf-8" standalone="no"?>
<!DOCTYPE svg PUBLIC "-//W3C//DTD SVG 1.1//EN"
  "http://www.w3.org/Graphics/SVG/1.1/DTD/svg11.dtd">
<svg xmlns:xlink="http://www.w3.org/1999/xlink" width="607.2pt" height="338.4pt" viewBox="0 0 607.2 338.4" xmlns="http://www.w3.org/2000/svg" version="1.1">
 <metadata>
  <rdf:RDF xmlns:dc="http://purl.org/dc/elements/1.1/" xmlns:cc="http://creativecommons.org/ns#" xmlns:rdf="http://www.w3.org/1999/02/22-rdf-syntax-ns#">
   <cc:Work>
    <dc:type rdf:resource="http://purl.org/dc/dcmitype/StillImage"/>
    <dc:date>2025-10-06T08:21:18.094566</dc:date>
    <dc:format>image/svg+xml</dc:format>
    <dc:creator>
     <cc:Agent>
      <dc:title>Matplotlib v3.10.6, https://matplotlib.org/</dc:title>
     </cc:Agent>
    </dc:creator>
   </cc:Work>
  </rdf:RDF>
 </metadata>
 <defs>
  <style type="text/css">*{stroke-linejoin: round; stroke-linecap: butt}</style>
 </defs>
 <g id="figure_1">
  <g id="patch_1">
   <path d="M 0 338.4 
L 607.2 338.4 
L 607.2 0 
L 0 0 
z
" style="fill: #ffffff"/>
  </g>
  <g id="axes_1">
   <g id="patch_2">
    <path d="M 43.78125 318.021875 
L 600 318.021875 
L 600 22.318125 
L 43.78125 22.318125 
z
" style="fill: #ffffff"/>
   </g>
   <g id="line2d_1">
    <path d="M 197.982246 140.043438 
L 198.982246 140.074875 
L 199.982246 140.111815 
L 200.982246 140.209562 
L 201.982246 140.242083 
L 202.982246 140.315708 
L 203.982246 140.354274 
L 204.982246 140.389687 
L 205.982246 140.447327 
L 206.982246 140.517713 
L 207.982246 140.569677 
L 208.982246 140.628767 
L 209.982246 140.717088 
L 210.982246 140.763232 
L 211.982246 140.805643 
L 212.982246 140.836136 
L 213.982246 140.862181 
L 214.982246 140.883381 
L 215.982246 140.937682 
L 216.982246 140.965619 
L 217.982246 140.995343 
L 218.982246 141.020738 
L 219.982246 141.031939 
L 220.982246 141.042063 
L 221.982246 141.041858 
L 222.982246 141.032348 
L 223.982246 141.020695 
L 224.982246 140.989665 
L 225.982246 140.978498 
L 226.982246 140.94838 
L 227.982246 140.888603 
L 228.982246 140.851412 
L 229.982246 140.812315 
L 230.982246 140.769876 
L 231.982246 140.737111 
L 232.982246 140.669684 
L 233.982246 140.630558 
L 234.982246 140.587884 
L 235.982246 140.517303 
L 236.982246 140.480912 
L 237.982246 140.422509 
L 238.982246 140.311557 
L 239.982246 140.240898 
L 240.982246 140.127958 
L 241.982246 140.082186 
L 242.982246 140.020902 
L 243.982246 139.972403 
L 244.982246 139.89158 
L 245.982246 139.773061 
L 246.982246 139.702851 
L 247.982246 139.619588 
L 248.982246 139.586446 
L 249.982246 139.535209 
L 250.982246 139.466811 
L 251.982246 139.400595 
L 252.982246 139.323678 
L 254.650368 139.296363 
" clip-path="url(#p42a8db1f47)" style="fill: none; stroke: #1f77b4; stroke-opacity: 0.5; stroke-width: 0.2; stroke-linecap: square"/>
   </g>
   <g id="line2d_2">
    <path d="M 197.982246 84.385378 
L 198.982246 84.416815 
L 199.982246 84.453755 
L 200.982246 84.551502 
L 201.982246 84.584023 
L 202.982246 84.657648 
L 203.982246 84.696214 
L 204.982246 84.731627 
L 205.982246 84.789267 
L 206.982246 84.859653 
L 207.982246 84.911617 
L 208.982246 84.970707 
L 209.982246 85.059028 
L 210.982246 85.105172 
L 211.982246 85.147583 
L 212.982246 85.178076 
L 213.982246 85.204121 
L 214.982246 85.225321 
L 215.982246 85.279622 
L 216.982246 85.307559 
L 217.982246 85.337283 
L 218.982246 85.362678 
L 219.982246 85.373879 
L 220.982246 85.384003 
L 221.982246 85.383798 
L 222.982246 85.374288 
L 223.982246 85.362635 
L 224.982246 85.331605 
L 225.982246 85.320438 
L 226.982246 85.29032 
L 227.982246 85.230543 
L 228.982246 85.193352 
L 229.982246 85.154255 
L 230.982246 85.111816 
L 231.982246 85.079051 
L 232.982246 85.011624 
L 233.982246 84.972498 
L 234.982246 84.929824 
L 235.982246 84.859243 
L 236.982246 84.822852 
L 237.982246 84.764449 
L 238.982246 84.653497 
L 239.982246 84.582838 
L 240.982246 84.469898 
L 241.982246 84.424126 
L 242.982246 84.362842 
L 243.982246 84.314343 
L 244.982246 84.23352 
L 245.982246 84.115001 
L 246.982246 84.044791 
L 247.982246 83.961528 
L 248.982246 83.928386 
L 249.982246 83.877149 
L 250.982246 83.808751 
L 251.982246 83.742535 
L 252.982246 83.665618 
L 254.650368 83.638303 
" clip-path="url(#p42a8db1f47)" style="fill: none; stroke: #1f77b4; stroke-opacity: 0.5; stroke-width: 0.2; stroke-linecap: square"/>
   </g>
   <g id="line2d_3">
    <path d="M 197.982246 103.480894 
L 198.982246 103.51233 
L 199.982246 103.54927 
L 200.982246 103.647017 
L 201.982246 103.679539 
L 202.982246 103.753163 
L 203.982246 103.791729 
L 204.982246 103.827142 
L 205.982246 103.884782 
L 206.982246 103.955168 
L 207.982246 104.007132 
L 208.982246 104.066222 
L 209.982246 104.154543 
L 210.982246 104.200687 
L 211.982246 104.243098 
L 212.982246 104.273591 
L 213.982246 104.299636 
L 214.982246 104.320836 
L 215.982246 104.375137 
L 216.982246 104.403075 
L 217.982246 104.432799 
L 218.982246 104.458193 
L 219.982246 104.469394 
L 220.982246 104.479518 
L 221.982246 104.479313 
L 222.982246 104.469804 
L 223.982246 104.45815 
L 224.982246 104.427121 
L 225.982246 104.415953 
L 226.982246 104.385835 
L 227.982246 104.326058 
L 228.982246 104.288867 
L 229.982246 104.249771 
L 230.982246 104.207331 
L 231.982246 104.174566 
L 232.982246 104.10714 
L 233.982246 104.068014 
L 234.982246 104.025339 
L 235.982246 103.954759 
L 236.982246 103.918368 
L 237.982246 103.859964 
L 238.982246 103.749012 
L 239.982246 103.678354 
L 240.982246 103.565414 
L 241.982246 103.519641 
L 242.982246 103.458358 
L 243.982246 103.409858 
L 244.982246 103.329036 
L 245.982246 103.210517 
L 246.982246 103.140306 
L 247.982246 103.057044 
L 248.982246 103.023902 
L 249.982246 102.972665 
L 250.982246 102.904266 
L 251.982246 102.838051 
L 252.982246 102.761134 
L 254.650368 102.733818 
" clip-path="url(#p42a8db1f47)" style="fill: none; stroke: #1f77b4; stroke-opacity: 0.5; stroke-width: 0.2; stroke-linecap: square"/>
   </g>
   <g id="line2d_4">
    <path d="M 197.982246 147.495953 
L 198.982246 147.527389 
L 199.982246 147.56433 
L 200.982246 147.662076 
L 201.982246 147.694598 
L 202.982246 147.768222 
L 203.982246 147.806788 
L 204.982246 147.842201 
L 205.982246 147.899841 
L 206.982246 147.970227 
L 207.982246 148.022192 
L 208.982246 148.081281 
L 209.982246 148.169602 
L 210.982246 148.215747 
L 211.982246 148.258157 
L 212.982246 148.28865 
L 213.982246 148.314695 
L 214.982246 148.335895 
L 215.982246 148.390196 
L 216.982246 148.418134 
L 217.982246 148.447858 
L 218.982246 148.473253 
L 219.982246 148.484453 
L 220.982246 148.494577 
L 221.982246 148.494373 
L 222.982246 148.484863 
L 223.982246 148.473209 
L 224.982246 148.44218 
L 225.982246 148.431012 
L 226.982246 148.400894 
L 227.982246 148.341118 
L 228.982246 148.303926 
L 229.982246 148.26483 
L 230.982246 148.22239 
L 231.982246 148.189625 
L 232.982246 148.122199 
L 233.982246 148.083073 
L 234.982246 148.040398 
L 235.982246 147.969818 
L 236.982246 147.933427 
L 237.982246 147.875024 
L 238.982246 147.764071 
L 239.982246 147.693413 
L 240.982246 147.580473 
L 241.982246 147.5347 
L 242.982246 147.473417 
L 243.982246 147.424917 
L 244.982246 147.344095 
L 245.982246 147.225576 
L 246.982246 147.155365 
L 247.982246 147.072103 
L 248.982246 147.038961 
L 249.982246 146.987724 
L 250.982246 146.919325 
L 251.982246 146.85311 
L 252.982246 146.776193 
L 254.650368 146.748877 
" clip-path="url(#p42a8db1f47)" style="fill: none; stroke: #1f77b4; stroke-opacity: 0.5; stroke-width: 0.2; stroke-linecap: square"/>
   </g>
   <g id="line2d_5">
    <path d="M 197.982246 146.104124 
L 198.982246 146.13556 
L 199.982246 146.172501 
L 200.982246 146.270247 
L 201.982246 146.302769 
L 202.982246 146.376393 
L 203.982246 146.414959 
L 204.982246 146.450372 
L 205.982246 146.508012 
L 206.982246 146.578398 
L 207.982246 146.630363 
L 208.982246 146.689452 
L 209.982246 146.777773 
L 210.982246 146.823918 
L 211.982246 146.866328 
L 212.982246 146.896821 
L 213.982246 146.922866 
L 214.982246 146.944066 
L 215.982246 146.998367 
L 216.982246 147.026305 
L 217.982246 147.056029 
L 218.982246 147.081424 
L 219.982246 147.092624 
L 220.982246 147.102748 
L 221.982246 147.102544 
L 222.982246 147.093034 
L 223.982246 147.08138 
L 224.982246 147.050351 
L 225.982246 147.039183 
L 226.982246 147.009065 
L 227.982246 146.949289 
L 228.982246 146.912097 
L 229.982246 146.873001 
L 230.982246 146.830561 
L 231.982246 146.797796 
L 232.982246 146.73037 
L 233.982246 146.691244 
L 234.982246 146.648569 
L 235.982246 146.577989 
L 236.982246 146.541598 
L 237.982246 146.483195 
L 238.982246 146.372242 
L 239.982246 146.301584 
L 240.982246 146.188644 
L 241.982246 146.142871 
L 242.982246 146.081588 
L 243.982246 146.033088 
L 244.982246 145.952266 
L 245.982246 145.833747 
L 246.982246 145.763536 
L 247.982246 145.680274 
L 248.982246 145.647132 
L 249.982246 145.595895 
L 250.982246 145.527496 
L 251.982246 145.461281 
L 252.982246 145.384364 
L 254.650368 145.357048 
" clip-path="url(#p42a8db1f47)" style="fill: none; stroke: #1f77b4; stroke-opacity: 0.5; stroke-width: 0.2; stroke-linecap: square"/>
   </g>
   <g id="line2d_6">
    <path d="M 197.982246 172.803006 
L 198.982246 172.834443 
L 199.982246 172.871383 
L 200.982246 172.96913 
L 201.982246 173.001651 
L 202.982246 173.075276 
L 203.982246 173.113841 
L 204.982246 173.149255 
L 205.982246 173.206895 
L 206.982246 173.277281 
L 207.982246 173.329245 
L 208.982246 173.388335 
L 209.982246 173.476656 
L 210.982246 173.5228 
L 211.982246 173.565211 
L 212.982246 173.595704 
L 213.982246 173.621748 
L 214.982246 173.642949 
L 215.982246 173.69725 
L 216.982246 173.725187 
L 217.982246 173.754911 
L 218.982246 173.780306 
L 219.982246 173.791506 
L 220.982246 173.80163 
L 221.982246 173.801426 
L 222.982246 173.791916 
L 223.982246 173.780263 
L 224.982246 173.749233 
L 225.982246 173.738065 
L 226.982246 173.707948 
L 227.982246 173.648171 
L 228.982246 173.610979 
L 229.982246 173.571883 
L 230.982246 173.529444 
L 231.982246 173.496679 
L 232.982246 173.429252 
L 233.982246 173.390126 
L 234.982246 173.347452 
L 235.982246 173.276871 
L 236.982246 173.24048 
L 237.982246 173.182077 
L 238.982246 173.071124 
L 239.982246 173.000466 
L 240.982246 172.887526 
L 241.982246 172.841753 
L 242.982246 172.78047 
L 243.982246 172.731971 
L 244.982246 172.651148 
L 245.982246 172.532629 
L 246.982246 172.462419 
L 247.982246 172.379156 
L 248.982246 172.346014 
L 249.982246 172.294777 
L 250.982246 172.226379 
L 251.982246 172.160163 
L 252.982246 172.083246 
L 254.650368 172.055931 
" clip-path="url(#p42a8db1f47)" style="fill: none; stroke: #1f77b4; stroke-opacity: 0.5; stroke-width: 0.2; stroke-linecap: square"/>
   </g>
   <g id="line2d_7">
    <path d="M 197.982246 195.009928 
L 198.982246 195.041364 
L 199.982246 195.078304 
L 200.982246 195.176051 
L 201.982246 195.208573 
L 202.982246 195.282197 
L 203.982246 195.320763 
L 204.982246 195.356176 
L 205.982246 195.413816 
L 206.982246 195.484202 
L 207.982246 195.536166 
L 208.982246 195.595256 
L 209.982246 195.683577 
L 210.982246 195.729721 
L 211.982246 195.772132 
L 212.982246 195.802625 
L 213.982246 195.82867 
L 214.982246 195.84987 
L 215.982246 195.904171 
L 216.982246 195.932109 
L 217.982246 195.961833 
L 218.982246 195.987227 
L 219.982246 195.998428 
L 220.982246 196.008552 
L 221.982246 196.008347 
L 222.982246 195.998838 
L 223.982246 195.987184 
L 224.982246 195.956155 
L 225.982246 195.944987 
L 226.982246 195.914869 
L 227.982246 195.855092 
L 228.982246 195.817901 
L 229.982246 195.778805 
L 230.982246 195.736365 
L 231.982246 195.7036 
L 232.982246 195.636174 
L 233.982246 195.597048 
L 234.982246 195.554373 
L 235.982246 195.483793 
L 236.982246 195.447402 
L 237.982246 195.388998 
L 238.982246 195.278046 
L 239.982246 195.207388 
L 240.982246 195.094448 
L 241.982246 195.048675 
L 242.982246 194.987392 
L 243.982246 194.938892 
L 244.982246 194.85807 
L 245.982246 194.739551 
L 246.982246 194.66934 
L 247.982246 194.586078 
L 248.982246 194.552936 
L 249.982246 194.501699 
L 250.982246 194.4333 
L 251.982246 194.367085 
L 252.982246 194.290168 
L 254.650368 194.262852 
" clip-path="url(#p42a8db1f47)" style="fill: none; stroke: #1f77b4; stroke-opacity: 0.5; stroke-width: 0.2; stroke-linecap: square"/>
   </g>
   <g id="line2d_8">
    <path d="M 197.982246 124.112519 
L 198.982246 124.143955 
L 199.982246 124.180896 
L 200.982246 124.278642 
L 201.982246 124.311164 
L 202.982246 124.384788 
L 203.982246 124.423354 
L 204.982246 124.458767 
L 205.982246 124.516407 
L 206.982246 124.586793 
L 207.982246 124.638757 
L 208.982246 124.697847 
L 209.982246 124.786168 
L 210.982246 124.832313 
L 211.982246 124.874723 
L 212.982246 124.905216 
L 213.982246 124.931261 
L 214.982246 124.952461 
L 215.982246 125.006762 
L 216.982246 125.0347 
L 217.982246 125.064424 
L 218.982246 125.089819 
L 219.982246 125.101019 
L 220.982246 125.111143 
L 221.982246 125.110939 
L 222.982246 125.101429 
L 223.982246 125.089775 
L 224.982246 125.058746 
L 225.982246 125.047578 
L 226.982246 125.01746 
L 227.982246 124.957684 
L 228.982246 124.920492 
L 229.982246 124.881396 
L 230.982246 124.838956 
L 231.982246 124.806191 
L 232.982246 124.738765 
L 233.982246 124.699639 
L 234.982246 124.656964 
L 235.982246 124.586384 
L 236.982246 124.549993 
L 237.982246 124.49159 
L 238.982246 124.380637 
L 239.982246 124.309979 
L 240.982246 124.197039 
L 241.982246 124.151266 
L 242.982246 124.089983 
L 243.982246 124.041483 
L 244.982246 123.960661 
L 245.982246 123.842142 
L 246.982246 123.771931 
L 247.982246 123.688669 
L 248.982246 123.655527 
L 249.982246 123.60429 
L 250.982246 123.535891 
L 251.982246 123.469676 
L 252.982246 123.392759 
L 254.650368 123.365443 
" clip-path="url(#p42a8db1f47)" style="fill: none; stroke: #1f77b4; stroke-opacity: 0.5; stroke-width: 0.2; stroke-linecap: square"/>
   </g>
   <g id="line2d_9">
    <path d="M 197.982246 98.877934 
L 198.982246 98.909371 
L 199.982246 98.946311 
L 200.982246 99.044058 
L 201.982246 99.076579 
L 202.982246 99.150204 
L 203.982246 99.18877 
L 204.982246 99.224183 
L 205.982246 99.281823 
L 206.982246 99.352209 
L 207.982246 99.404173 
L 208.982246 99.463263 
L 209.982246 99.551584 
L 210.982246 99.597728 
L 211.982246 99.640139 
L 212.982246 99.670632 
L 213.982246 99.696677 
L 214.982246 99.717877 
L 215.982246 99.772178 
L 216.982246 99.800115 
L 217.982246 99.829839 
L 218.982246 99.855234 
L 219.982246 99.866435 
L 220.982246 99.876559 
L 221.982246 99.876354 
L 222.982246 99.866844 
L 223.982246 99.855191 
L 224.982246 99.824162 
L 225.982246 99.812994 
L 226.982246 99.782876 
L 227.982246 99.723099 
L 228.982246 99.685908 
L 229.982246 99.646812 
L 230.982246 99.604372 
L 231.982246 99.571607 
L 232.982246 99.50418 
L 233.982246 99.465054 
L 234.982246 99.42238 
L 235.982246 99.351799 
L 236.982246 99.315408 
L 237.982246 99.257005 
L 238.982246 99.146053 
L 239.982246 99.075394 
L 240.982246 98.962455 
L 241.982246 98.916682 
L 242.982246 98.855398 
L 243.982246 98.806899 
L 244.982246 98.726076 
L 245.982246 98.607557 
L 246.982246 98.537347 
L 247.982246 98.454084 
L 248.982246 98.420943 
L 249.982246 98.369705 
L 250.982246 98.301307 
L 251.982246 98.235091 
L 252.982246 98.158174 
L 254.650368 98.130859 
" clip-path="url(#p42a8db1f47)" style="fill: none; stroke: #1f77b4; stroke-opacity: 0.5; stroke-width: 0.2; stroke-linecap: square"/>
   </g>
   <g id="line2d_10">
    <path d="M 197.982246 130.761232 
L 198.982246 130.792668 
L 199.982246 130.829609 
L 200.982246 130.927355 
L 201.982246 130.959877 
L 202.982246 131.033501 
L 203.982246 131.072067 
L 204.982246 131.10748 
L 205.982246 131.16512 
L 206.982246 131.235506 
L 207.982246 131.28747 
L 208.982246 131.34656 
L 209.982246 131.434881 
L 210.982246 131.481025 
L 211.982246 131.523436 
L 212.982246 131.553929 
L 213.982246 131.579974 
L 214.982246 131.601174 
L 215.982246 131.655475 
L 216.982246 131.683413 
L 217.982246 131.713137 
L 218.982246 131.738532 
L 219.982246 131.749732 
L 220.982246 131.759856 
L 221.982246 131.759652 
L 222.982246 131.750142 
L 223.982246 131.738488 
L 224.982246 131.707459 
L 225.982246 131.696291 
L 226.982246 131.666173 
L 227.982246 131.606396 
L 228.982246 131.569205 
L 229.982246 131.530109 
L 230.982246 131.487669 
L 231.982246 131.454904 
L 232.982246 131.387478 
L 233.982246 131.348352 
L 234.982246 131.305677 
L 235.982246 131.235097 
L 236.982246 131.198706 
L 237.982246 131.140303 
L 238.982246 131.02935 
L 239.982246 130.958692 
L 240.982246 130.845752 
L 241.982246 130.799979 
L 242.982246 130.738696 
L 243.982246 130.690196 
L 244.982246 130.609374 
L 245.982246 130.490855 
L 246.982246 130.420644 
L 247.982246 130.337382 
L 248.982246 130.30424 
L 249.982246 130.253003 
L 250.982246 130.184604 
L 251.982246 130.118389 
L 252.982246 130.041472 
L 254.650368 130.014156 
" clip-path="url(#p42a8db1f47)" style="fill: none; stroke: #1f77b4; stroke-opacity: 0.5; stroke-width: 0.2; stroke-linecap: square"/>
   </g>
   <g id="line2d_11">
    <path d="M 389.130882 107.914283 
L 390.130882 107.945719 
L 391.130882 107.98266 
L 392.130882 108.080406 
L 393.130882 108.112928 
L 394.130882 108.186553 
L 395.130882 108.225118 
L 396.130882 108.260531 
L 397.130882 108.318171 
L 398.130882 108.388557 
L 399.130882 108.440522 
L 400.130882 108.499611 
L 401.130882 108.587932 
L 402.130882 108.634077 
L 403.130882 108.676488 
L 404.130882 108.70698 
L 405.130882 108.733025 
L 406.130882 108.754225 
L 407.130882 108.808526 
L 408.130882 108.836464 
L 409.130882 108.866188 
L 410.130882 108.891583 
L 411.130882 108.902783 
L 412.130882 108.912907 
L 413.130882 108.912703 
L 414.130882 108.903193 
L 415.130882 108.891539 
L 416.130882 108.86051 
L 417.130882 108.849342 
L 418.130882 108.819225 
L 419.130882 108.759448 
L 420.130882 108.722256 
L 421.130882 108.68316 
L 422.130882 108.64072 
L 423.130882 108.607955 
L 424.130882 108.540529 
L 425.130882 108.501403 
L 426.130882 108.458728 
L 427.130882 108.388148 
L 428.130882 108.351757 
L 429.130882 108.293354 
L 430.130882 108.182401 
L 431.130882 108.111743 
L 432.130882 107.998803 
L 433.130882 107.95303 
L 434.130882 107.891747 
L 435.130882 107.843248 
L 436.130882 107.762425 
L 437.130882 107.643906 
L 438.130882 107.573695 
L 439.130882 107.490433 
L 440.130882 107.457291 
L 441.130882 107.406054 
L 442.130882 107.337655 
L 443.130882 107.27144 
L 444.130882 107.194523 
L 445.799004 107.167207 
" clip-path="url(#p42a8db1f47)" style="fill: none; stroke: #ff7f0e; stroke-opacity: 0.5; stroke-width: 0.2; stroke-linecap: square"/>
   </g>
   <g id="line2d_12">
    <path d="M 389.130882 83.331849 
L 390.130882 83.363285 
L 391.130882 83.400226 
L 392.130882 83.497972 
L 393.130882 83.530494 
L 394.130882 83.604118 
L 395.130882 83.642684 
L 396.130882 83.678097 
L 397.130882 83.735737 
L 398.130882 83.806123 
L 399.130882 83.858087 
L 400.130882 83.917177 
L 401.130882 84.005498 
L 402.130882 84.051642 
L 403.130882 84.094053 
L 404.130882 84.124546 
L 405.130882 84.150591 
L 406.130882 84.171791 
L 407.130882 84.226092 
L 408.130882 84.25403 
L 409.130882 84.283754 
L 410.130882 84.309149 
L 411.130882 84.320349 
L 412.130882 84.330473 
L 413.130882 84.330269 
L 414.130882 84.320759 
L 415.130882 84.309105 
L 416.130882 84.278076 
L 417.130882 84.266908 
L 418.130882 84.23679 
L 419.130882 84.177013 
L 420.130882 84.139822 
L 421.130882 84.100726 
L 422.130882 84.058286 
L 423.130882 84.025521 
L 424.130882 83.958095 
L 425.130882 83.918969 
L 426.130882 83.876294 
L 427.130882 83.805714 
L 428.130882 83.769323 
L 429.130882 83.71092 
L 430.130882 83.599967 
L 431.130882 83.529309 
L 432.130882 83.416369 
L 433.130882 83.370596 
L 434.130882 83.309313 
L 435.130882 83.260813 
L 436.130882 83.179991 
L 437.130882 83.061472 
L 438.130882 82.991261 
L 439.130882 82.907999 
L 440.130882 82.874857 
L 441.130882 82.82362 
L 442.130882 82.755221 
L 443.130882 82.689006 
L 444.130882 82.612089 
L 445.799004 82.584773 
" clip-path="url(#p42a8db1f47)" style="fill: none; stroke: #ff7f0e; stroke-opacity: 0.5; stroke-width: 0.2; stroke-linecap: square"/>
   </g>
   <g id="line2d_13">
    <path d="M 389.130882 180.684557 
L 390.130882 180.715993 
L 391.130882 180.752933 
L 392.130882 180.85068 
L 393.130882 180.883202 
L 394.130882 180.956826 
L 395.130882 180.995392 
L 396.130882 181.030805 
L 397.130882 181.088445 
L 398.130882 181.158831 
L 399.130882 181.210795 
L 400.130882 181.269885 
L 401.130882 181.358206 
L 402.130882 181.40435 
L 403.130882 181.446761 
L 404.130882 181.477254 
L 405.130882 181.503299 
L 406.130882 181.524499 
L 407.130882 181.5788 
L 408.130882 181.606738 
L 409.130882 181.636462 
L 410.130882 181.661856 
L 411.130882 181.673057 
L 412.130882 181.683181 
L 413.130882 181.682977 
L 414.130882 181.673467 
L 415.130882 181.661813 
L 416.130882 181.630784 
L 417.130882 181.619616 
L 418.130882 181.589498 
L 419.130882 181.529721 
L 420.130882 181.49253 
L 421.130882 181.453434 
L 422.130882 181.410994 
L 423.130882 181.378229 
L 424.130882 181.310803 
L 425.130882 181.271677 
L 426.130882 181.229002 
L 427.130882 181.158422 
L 428.130882 181.122031 
L 429.130882 181.063628 
L 430.130882 180.952675 
L 431.130882 180.882017 
L 432.130882 180.769077 
L 433.130882 180.723304 
L 434.130882 180.662021 
L 435.130882 180.613521 
L 436.130882 180.532699 
L 437.130882 180.41418 
L 438.130882 180.343969 
L 439.130882 180.260707 
L 440.130882 180.227565 
L 441.130882 180.176328 
L 442.130882 180.107929 
L 443.130882 180.041714 
L 444.130882 179.964797 
L 445.799004 179.937481 
" clip-path="url(#p42a8db1f47)" style="fill: none; stroke: #ff7f0e; stroke-opacity: 0.5; stroke-width: 0.2; stroke-linecap: square"/>
   </g>
   <g id="line2d_14">
    <path d="M 389.130882 99.011066 
L 390.130882 99.042502 
L 391.130882 99.079442 
L 392.130882 99.177189 
L 393.130882 99.20971 
L 394.130882 99.283335 
L 395.130882 99.321901 
L 396.130882 99.357314 
L 397.130882 99.414954 
L 398.130882 99.48534 
L 399.130882 99.537304 
L 400.130882 99.596394 
L 401.130882 99.684715 
L 402.130882 99.730859 
L 403.130882 99.77327 
L 404.130882 99.803763 
L 405.130882 99.829808 
L 406.130882 99.851008 
L 407.130882 99.905309 
L 408.130882 99.933247 
L 409.130882 99.962971 
L 410.130882 99.988365 
L 411.130882 99.999566 
L 412.130882 100.00969 
L 413.130882 100.009485 
L 414.130882 99.999975 
L 415.130882 99.988322 
L 416.130882 99.957293 
L 417.130882 99.946125 
L 418.130882 99.916007 
L 419.130882 99.85623 
L 420.130882 99.819039 
L 421.130882 99.779943 
L 422.130882 99.737503 
L 423.130882 99.704738 
L 424.130882 99.637311 
L 425.130882 99.598185 
L 426.130882 99.555511 
L 427.130882 99.48493 
L 428.130882 99.448539 
L 429.130882 99.390136 
L 430.130882 99.279184 
L 431.130882 99.208525 
L 432.130882 99.095586 
L 433.130882 99.049813 
L 434.130882 98.988529 
L 435.130882 98.94003 
L 436.130882 98.859207 
L 437.130882 98.740689 
L 438.130882 98.670478 
L 439.130882 98.587215 
L 440.130882 98.554074 
L 441.130882 98.502836 
L 442.130882 98.434438 
L 443.130882 98.368223 
L 444.130882 98.291305 
L 445.799004 98.26399 
" clip-path="url(#p42a8db1f47)" style="fill: none; stroke: #ff7f0e; stroke-opacity: 0.5; stroke-width: 0.2; stroke-linecap: square"/>
   </g>
   <g id="line2d_15">
    <path d="M 389.130882 86.301225 
L 390.130882 86.332662 
L 391.130882 86.369602 
L 392.130882 86.467349 
L 393.130882 86.49987 
L 394.130882 86.573495 
L 395.130882 86.61206 
L 396.130882 86.647474 
L 397.130882 86.705114 
L 398.130882 86.7755 
L 399.130882 86.827464 
L 400.130882 86.886554 
L 401.130882 86.974875 
L 402.130882 87.021019 
L 403.130882 87.06343 
L 404.130882 87.093923 
L 405.130882 87.119968 
L 406.130882 87.141168 
L 407.130882 87.195469 
L 408.130882 87.223406 
L 409.130882 87.25313 
L 410.130882 87.278525 
L 411.130882 87.289725 
L 412.130882 87.299849 
L 413.130882 87.299645 
L 414.130882 87.290135 
L 415.130882 87.278482 
L 416.130882 87.247452 
L 417.130882 87.236284 
L 418.130882 87.206167 
L 419.130882 87.14639 
L 420.130882 87.109198 
L 421.130882 87.070102 
L 422.130882 87.027663 
L 423.130882 86.994898 
L 424.130882 86.927471 
L 425.130882 86.888345 
L 426.130882 86.845671 
L 427.130882 86.77509 
L 428.130882 86.738699 
L 429.130882 86.680296 
L 430.130882 86.569343 
L 431.130882 86.498685 
L 432.130882 86.385745 
L 433.130882 86.339972 
L 434.130882 86.278689 
L 435.130882 86.23019 
L 436.130882 86.149367 
L 437.130882 86.030848 
L 438.130882 85.960638 
L 439.130882 85.877375 
L 440.130882 85.844233 
L 441.130882 85.792996 
L 442.130882 85.724598 
L 443.130882 85.658382 
L 444.130882 85.581465 
L 445.799004 85.55415 
" clip-path="url(#p42a8db1f47)" style="fill: none; stroke: #ff7f0e; stroke-opacity: 0.5; stroke-width: 0.2; stroke-linecap: square"/>
   </g>
   <g id="line2d_16">
    <path d="M 389.130882 121.538626 
L 390.130882 121.570063 
L 391.130882 121.607003 
L 392.130882 121.70475 
L 393.130882 121.737271 
L 394.130882 121.810896 
L 395.130882 121.849462 
L 396.130882 121.884875 
L 397.130882 121.942515 
L 398.130882 122.012901 
L 399.130882 122.064865 
L 400.130882 122.123955 
L 401.130882 122.212276 
L 402.130882 122.25842 
L 403.130882 122.300831 
L 404.130882 122.331324 
L 405.130882 122.357369 
L 406.130882 122.378569 
L 407.130882 122.43287 
L 408.130882 122.460808 
L 409.130882 122.490531 
L 410.130882 122.515926 
L 411.130882 122.527127 
L 412.130882 122.537251 
L 413.130882 122.537046 
L 414.130882 122.527536 
L 415.130882 122.515883 
L 416.130882 122.484854 
L 417.130882 122.473686 
L 418.130882 122.443568 
L 419.130882 122.383791 
L 420.130882 122.3466 
L 421.130882 122.307504 
L 422.130882 122.265064 
L 423.130882 122.232299 
L 424.130882 122.164872 
L 425.130882 122.125746 
L 426.130882 122.083072 
L 427.130882 122.012491 
L 428.130882 121.9761 
L 429.130882 121.917697 
L 430.130882 121.806745 
L 431.130882 121.736086 
L 432.130882 121.623147 
L 433.130882 121.577374 
L 434.130882 121.51609 
L 435.130882 121.467591 
L 436.130882 121.386768 
L 437.130882 121.268249 
L 438.130882 121.198039 
L 439.130882 121.114776 
L 440.130882 121.081635 
L 441.130882 121.030397 
L 442.130882 120.961999 
L 443.130882 120.895784 
L 444.130882 120.818866 
L 445.799004 120.791551 
" clip-path="url(#p42a8db1f47)" style="fill: none; stroke: #ff7f0e; stroke-opacity: 0.5; stroke-width: 0.2; stroke-linecap: square"/>
   </g>
   <g id="line2d_17">
    <path d="M 389.130882 184.316355 
L 390.130882 184.347792 
L 391.130882 184.384732 
L 392.130882 184.482479 
L 393.130882 184.515 
L 394.130882 184.588625 
L 395.130882 184.62719 
L 396.130882 184.662604 
L 397.130882 184.720244 
L 398.130882 184.79063 
L 399.130882 184.842594 
L 400.130882 184.901684 
L 401.130882 184.990005 
L 402.130882 185.036149 
L 403.130882 185.07856 
L 404.130882 185.109053 
L 405.130882 185.135098 
L 406.130882 185.156298 
L 407.130882 185.210599 
L 408.130882 185.238536 
L 409.130882 185.26826 
L 410.130882 185.293655 
L 411.130882 185.304855 
L 412.130882 185.314979 
L 413.130882 185.314775 
L 414.130882 185.305265 
L 415.130882 185.293612 
L 416.130882 185.262582 
L 417.130882 185.251414 
L 418.130882 185.221297 
L 419.130882 185.16152 
L 420.130882 185.124328 
L 421.130882 185.085232 
L 422.130882 185.042793 
L 423.130882 185.010028 
L 424.130882 184.942601 
L 425.130882 184.903475 
L 426.130882 184.860801 
L 427.130882 184.79022 
L 428.130882 184.753829 
L 429.130882 184.695426 
L 430.130882 184.584473 
L 431.130882 184.513815 
L 432.130882 184.400875 
L 433.130882 184.355102 
L 434.130882 184.293819 
L 435.130882 184.24532 
L 436.130882 184.164497 
L 437.130882 184.045978 
L 438.130882 183.975768 
L 439.130882 183.892505 
L 440.130882 183.859363 
L 441.130882 183.808126 
L 442.130882 183.739728 
L 443.130882 183.673512 
L 444.130882 183.596595 
L 445.799004 183.56928 
" clip-path="url(#p42a8db1f47)" style="fill: none; stroke: #ff7f0e; stroke-opacity: 0.5; stroke-width: 0.2; stroke-linecap: square"/>
   </g>
   <g id="line2d_18">
    <path d="M 389.130882 162.75965 
L 390.130882 162.791087 
L 391.130882 162.828027 
L 392.130882 162.925774 
L 393.130882 162.958295 
L 394.130882 163.03192 
L 395.130882 163.070486 
L 396.130882 163.105899 
L 397.130882 163.163539 
L 398.130882 163.233925 
L 399.130882 163.285889 
L 400.130882 163.344979 
L 401.130882 163.4333 
L 402.130882 163.479444 
L 403.130882 163.521855 
L 404.130882 163.552348 
L 405.130882 163.578393 
L 406.130882 163.599593 
L 407.130882 163.653894 
L 408.130882 163.681831 
L 409.130882 163.711555 
L 410.130882 163.73695 
L 411.130882 163.748151 
L 412.130882 163.758275 
L 413.130882 163.75807 
L 414.130882 163.74856 
L 415.130882 163.736907 
L 416.130882 163.705877 
L 417.130882 163.69471 
L 418.130882 163.664592 
L 419.130882 163.604815 
L 420.130882 163.567624 
L 421.130882 163.528527 
L 422.130882 163.486088 
L 423.130882 163.453323 
L 424.130882 163.385896 
L 425.130882 163.34677 
L 426.130882 163.304096 
L 427.130882 163.233515 
L 428.130882 163.197124 
L 429.130882 163.138721 
L 430.130882 163.027769 
L 431.130882 162.95711 
L 432.130882 162.84417 
L 433.130882 162.798398 
L 434.130882 162.737114 
L 435.130882 162.688615 
L 436.130882 162.607792 
L 437.130882 162.489273 
L 438.130882 162.419063 
L 439.130882 162.3358 
L 440.130882 162.302659 
L 441.130882 162.251421 
L 442.130882 162.183023 
L 443.130882 162.116807 
L 444.130882 162.03989 
L 445.799004 162.012575 
" clip-path="url(#p42a8db1f47)" style="fill: none; stroke: #ff7f0e; stroke-opacity: 0.5; stroke-width: 0.2; stroke-linecap: square"/>
   </g>
   <g id="line2d_19">
    <path d="M 389.130882 143.741126 
L 390.130882 143.772562 
L 391.130882 143.809502 
L 392.130882 143.907249 
L 393.130882 143.93977 
L 394.130882 144.013395 
L 395.130882 144.051961 
L 396.130882 144.087374 
L 397.130882 144.145014 
L 398.130882 144.2154 
L 399.130882 144.267364 
L 400.130882 144.326454 
L 401.130882 144.414775 
L 402.130882 144.460919 
L 403.130882 144.50333 
L 404.130882 144.533823 
L 405.130882 144.559868 
L 406.130882 144.581068 
L 407.130882 144.635369 
L 408.130882 144.663307 
L 409.130882 144.693031 
L 410.130882 144.718425 
L 411.130882 144.729626 
L 412.130882 144.73975 
L 413.130882 144.739545 
L 414.130882 144.730036 
L 415.130882 144.718382 
L 416.130882 144.687353 
L 417.130882 144.676185 
L 418.130882 144.646067 
L 419.130882 144.58629 
L 420.130882 144.549099 
L 421.130882 144.510003 
L 422.130882 144.467563 
L 423.130882 144.434798 
L 424.130882 144.367371 
L 425.130882 144.328246 
L 426.130882 144.285571 
L 427.130882 144.21499 
L 428.130882 144.1786 
L 429.130882 144.120196 
L 430.130882 144.009244 
L 431.130882 143.938585 
L 432.130882 143.825646 
L 433.130882 143.779873 
L 434.130882 143.71859 
L 435.130882 143.67009 
L 436.130882 143.589268 
L 437.130882 143.470749 
L 438.130882 143.400538 
L 439.130882 143.317275 
L 440.130882 143.284134 
L 441.130882 143.232896 
L 442.130882 143.164498 
L 443.130882 143.098283 
L 444.130882 143.021366 
L 445.799004 142.99405 
" clip-path="url(#p42a8db1f47)" style="fill: none; stroke: #ff7f0e; stroke-opacity: 0.5; stroke-width: 0.2; stroke-linecap: square"/>
   </g>
   <g id="line2d_20">
    <path d="M 389.130882 97.274572 
L 390.130882 97.306008 
L 391.130882 97.342948 
L 392.130882 97.440695 
L 393.130882 97.473216 
L 394.130882 97.546841 
L 395.130882 97.585407 
L 396.130882 97.62082 
L 397.130882 97.67846 
L 398.130882 97.748846 
L 399.130882 97.80081 
L 400.130882 97.8599 
L 401.130882 97.948221 
L 402.130882 97.994365 
L 403.130882 98.036776 
L 404.130882 98.067269 
L 405.130882 98.093314 
L 406.130882 98.114514 
L 407.130882 98.168815 
L 408.130882 98.196753 
L 409.130882 98.226477 
L 410.130882 98.251871 
L 411.130882 98.263072 
L 412.130882 98.273196 
L 413.130882 98.272991 
L 414.130882 98.263481 
L 415.130882 98.251828 
L 416.130882 98.220799 
L 417.130882 98.209631 
L 418.130882 98.179513 
L 419.130882 98.119736 
L 420.130882 98.082545 
L 421.130882 98.043449 
L 422.130882 98.001009 
L 423.130882 97.968244 
L 424.130882 97.900817 
L 425.130882 97.861691 
L 426.130882 97.819017 
L 427.130882 97.748436 
L 428.130882 97.712045 
L 429.130882 97.653642 
L 430.130882 97.54269 
L 431.130882 97.472031 
L 432.130882 97.359092 
L 433.130882 97.313319 
L 434.130882 97.252035 
L 435.130882 97.203536 
L 436.130882 97.122713 
L 437.130882 97.004195 
L 438.130882 96.933984 
L 439.130882 96.850721 
L 440.130882 96.81758 
L 441.130882 96.766342 
L 442.130882 96.697944 
L 443.130882 96.631729 
L 444.130882 96.554811 
L 445.799004 96.527496 
" clip-path="url(#p42a8db1f47)" style="fill: none; stroke: #ff7f0e; stroke-opacity: 0.5; stroke-width: 0.2; stroke-linecap: square"/>
   </g>
   <g id="patch_3">
    <path d="M 69.06392 22.318125 
L 69.06392 318.021875 
M 192.420059 22.318125 
L 192.420059 318.021875 
" clip-path="url(#p42a8db1f47)" style="fill: none; stroke: #ffffff; stroke-width: 3; stroke-linejoin: miter"/>
    <path d="M 69.06392 22.318125 
L 69.06392 318.021875 
M 192.420059 22.318125 
L 192.420059 318.021875 
" clip-path="url(#p42a8db1f47)" style="fill: none; stroke: #1f77b4; stroke-linejoin: miter"/>
   </g>
   <g id="FillBetweenPolyCollection_1">
    <path d="M 192.420059 22.318125 
L 69.06392 22.318125 
L 69.06392 318.021875 
L 192.420059 318.021875 
L 192.420059 318.021875 
L 192.420059 22.318125 
z
" clip-path="url(#p42a8db1f47)" style="fill: #1f77b4; fill-opacity: 0.5"/>
   </g>
   <g id="patch_4">
    <path d="M 260.212556 22.318125 
L 260.212556 318.021875 
M 383.568694 22.318125 
L 383.568694 318.021875 
" clip-path="url(#p42a8db1f47)" style="fill: none; stroke: #ffffff; stroke-width: 3; stroke-linejoin: miter"/>
    <path d="M 260.212556 22.318125 
L 260.212556 318.021875 
M 383.568694 22.318125 
L 383.568694 318.021875 
" clip-path="url(#p42a8db1f47)" style="fill: none; stroke: #ff7f0e; stroke-linejoin: miter"/>
   </g>
   <g id="FillBetweenPolyCollection_2">
    <path d="M 383.568694 22.318125 
L 260.212556 22.318125 
L 260.212556 318.021875 
L 383.568694 318.021875 
L 383.568694 318.021875 
L 383.568694 22.318125 
z
" clip-path="url(#p42a8db1f47)" style="fill: #ff7f0e; fill-opacity: 0.5"/>
   </g>
   <g id="patch_5">
    <path d="M 451.361191 22.318125 
L 451.361191 318.021875 
M 574.71733 22.318125 
L 574.71733 318.021875 
" clip-path="url(#p42a8db1f47)" style="fill: none; stroke: #ffffff; stroke-width: 3; stroke-linejoin: miter"/>
    <path d="M 451.361191 22.318125 
L 451.361191 318.021875 
M 574.71733 22.318125 
L 574.71733 318.021875 
" clip-path="url(#p42a8db1f47)" style="fill: none; stroke: #2ca02c; stroke-linejoin: miter"/>
   </g>
   <g id="FillBetweenPolyCollection_3">
    <path d="M 574.71733 22.318125 
L 451.361191 22.318125 
L 451.361191 318.021875 
L 574.71733 318.021875 
L 574.71733 318.021875 
L 574.71733 22.318125 
z
" clip-path="url(#p42a8db1f47)" style="fill: #2ca02c; fill-opacity: 0.5"/>
   </g>
   <g id="matplotlib.axis_1">
    <g id="xtick_1">
     <g id="line2d_21"/>
     <g id="text_1">
      <!-- deme0 -->
      <g transform="translate(113.363083 329.120312) scale(0.1 -0.1)">
       <defs>
        <path id="DejaVuSans-64" d="M 2906 2969 
L 2906 4863 
L 3481 4863 
L 3481 0 
L 2906 0 
L 2906 525 
Q 2725 213 2448 61 
Q 2172 -91 1784 -91 
Q 1150 -91 751 415 
Q 353 922 353 1747 
Q 353 2572 751 3078 
Q 1150 3584 1784 3584 
Q 2172 3584 2448 3432 
Q 2725 3281 2906 2969 
z
M 947 1747 
Q 947 1113 1208 752 
Q 1469 391 1925 391 
Q 2381 391 2643 752 
Q 2906 1113 2906 1747 
Q 2906 2381 2643 2742 
Q 2381 3103 1925 3103 
Q 1469 3103 1208 2742 
Q 947 2381 947 1747 
z
" transform="scale(0.015625)"/>
        <path id="DejaVuSans-65" d="M 3597 1894 
L 3597 1613 
L 953 1613 
Q 991 1019 1311 708 
Q 1631 397 2203 397 
Q 2534 397 2845 478 
Q 3156 559 3463 722 
L 3463 178 
Q 3153 47 2828 -22 
Q 2503 -91 2169 -91 
Q 1331 -91 842 396 
Q 353 884 353 1716 
Q 353 2575 817 3079 
Q 1281 3584 2069 3584 
Q 2775 3584 3186 3129 
Q 3597 2675 3597 1894 
z
M 3022 2063 
Q 3016 2534 2758 2815 
Q 2500 3097 2075 3097 
Q 1594 3097 1305 2825 
Q 1016 2553 972 2059 
L 3022 2063 
z
" transform="scale(0.015625)"/>
        <path id="DejaVuSans-6d" d="M 3328 2828 
Q 3544 3216 3844 3400 
Q 4144 3584 4550 3584 
Q 5097 3584 5394 3201 
Q 5691 2819 5691 2113 
L 5691 0 
L 5113 0 
L 5113 2094 
Q 5113 2597 4934 2840 
Q 4756 3084 4391 3084 
Q 3944 3084 3684 2787 
Q 3425 2491 3425 1978 
L 3425 0 
L 2847 0 
L 2847 2094 
Q 2847 2600 2669 2842 
Q 2491 3084 2119 3084 
Q 1678 3084 1418 2786 
Q 1159 2488 1159 1978 
L 1159 0 
L 581 0 
L 581 3500 
L 1159 3500 
L 1159 2956 
Q 1356 3278 1631 3431 
Q 1906 3584 2284 3584 
Q 2666 3584 2933 3390 
Q 3200 3197 3328 2828 
z
" transform="scale(0.015625)"/>
        <path id="DejaVuSans-30" d="M 2034 4250 
Q 1547 4250 1301 3770 
Q 1056 3291 1056 2328 
Q 1056 1369 1301 889 
Q 1547 409 2034 409 
Q 2525 409 2770 889 
Q 3016 1369 3016 2328 
Q 3016 3291 2770 3770 
Q 2525 4250 2034 4250 
z
M 2034 4750 
Q 2819 4750 3233 4129 
Q 3647 3509 3647 2328 
Q 3647 1150 3233 529 
Q 2819 -91 2034 -91 
Q 1250 -91 836 529 
Q 422 1150 422 2328 
Q 422 3509 836 4129 
Q 1250 4750 2034 4750 
z
" transform="scale(0.015625)"/>
       </defs>
       <use xlink:href="#DejaVuSans-64"/>
       <use xlink:href="#DejaVuSans-65" transform="translate(63.476562 0)"/>
       <use xlink:href="#DejaVuSans-6d" transform="translate(125 0)"/>
       <use xlink:href="#DejaVuSans-65" transform="translate(222.412109 0)"/>
       <use xlink:href="#DejaVuSans-30" transform="translate(283.935547 0)"/>
      </g>
     </g>
    </g>
    <g id="xtick_2">
     <g id="line2d_22"/>
     <g id="text_2">
      <!-- deme1 -->
      <g transform="translate(304.511719 329.120312) scale(0.1 -0.1)">
       <defs>
        <path id="DejaVuSans-31" d="M 794 531 
L 1825 531 
L 1825 4091 
L 703 3866 
L 703 4441 
L 1819 4666 
L 2450 4666 
L 2450 531 
L 3481 531 
L 3481 0 
L 794 0 
L 794 531 
z
" transform="scale(0.015625)"/>
       </defs>
       <use xlink:href="#DejaVuSans-64"/>
       <use xlink:href="#DejaVuSans-65" transform="translate(63.476562 0)"/>
       <use xlink:href="#DejaVuSans-6d" transform="translate(125 0)"/>
       <use xlink:href="#DejaVuSans-65" transform="translate(222.412109 0)"/>
       <use xlink:href="#DejaVuSans-31" transform="translate(283.935547 0)"/>
      </g>
     </g>
    </g>
    <g id="xtick_3">
     <g id="line2d_23"/>
     <g id="text_3">
      <!-- deme2 -->
      <g transform="translate(495.660354 329.120312) scale(0.1 -0.1)">
       <defs>
        <path id="DejaVuSans-32" d="M 1228 531 
L 3431 531 
L 3431 0 
L 469 0 
L 469 531 
Q 828 903 1448 1529 
Q 2069 2156 2228 2338 
Q 2531 2678 2651 2914 
Q 2772 3150 2772 3378 
Q 2772 3750 2511 3984 
Q 2250 4219 1831 4219 
Q 1534 4219 1204 4116 
Q 875 4013 500 3803 
L 500 4441 
Q 881 4594 1212 4672 
Q 1544 4750 1819 4750 
Q 2544 4750 2975 4387 
Q 3406 4025 3406 3419 
Q 3406 3131 3298 2873 
Q 3191 2616 2906 2266 
Q 2828 2175 2409 1742 
Q 1991 1309 1228 531 
z
" transform="scale(0.015625)"/>
       </defs>
       <use xlink:href="#DejaVuSans-64"/>
       <use xlink:href="#DejaVuSans-65" transform="translate(63.476562 0)"/>
       <use xlink:href="#DejaVuSans-6d" transform="translate(125 0)"/>
       <use xlink:href="#DejaVuSans-65" transform="translate(222.412109 0)"/>
       <use xlink:href="#DejaVuSans-32" transform="translate(283.935547 0)"/>
      </g>
     </g>
    </g>
   </g>
   <g id="matplotlib.axis_2">
    <g id="ytick_1">
     <g id="line2d_24">
      <defs>
       <path id="maad7ae2d56" d="M 0 0 
L -3.5 0 
" style="stroke: #000000; stroke-width: 0.8"/>
      </defs>
      <g>
       <use xlink:href="#maad7ae2d56" x="43.78125" y="318.021875" style="stroke: #000000; stroke-width: 0.8"/>
      </g>
     </g>
     <g id="text_4">
      <!-- 0.0 -->
      <g transform="translate(20.878125 321.821094) scale(0.1 -0.1)">
       <defs>
        <path id="DejaVuSans-2e" d="M 684 794 
L 1344 794 
L 1344 0 
L 684 0 
L 684 794 
z
" transform="scale(0.015625)"/>
       </defs>
       <use xlink:href="#DejaVuSans-30"/>
       <use xlink:href="#DejaVuSans-2e" transform="translate(63.623047 0)"/>
       <use xlink:href="#DejaVuSans-30" transform="translate(95.410156 0)"/>
      </g>
     </g>
    </g>
    <g id="ytick_2">
     <g id="line2d_25">
      <g>
       <use xlink:href="#maad7ae2d56" x="43.78125" y="258.881125" style="stroke: #000000; stroke-width: 0.8"/>
      </g>
     </g>
     <g id="text_5">
      <!-- 0.5 -->
      <g transform="translate(20.878125 262.680344) scale(0.1 -0.1)">
       <defs>
        <path id="DejaVuSans-35" d="M 691 4666 
L 3169 4666 
L 3169 4134 
L 1269 4134 
L 1269 2991 
Q 1406 3038 1543 3061 
Q 1681 3084 1819 3084 
Q 2600 3084 3056 2656 
Q 3513 2228 3513 1497 
Q 3513 744 3044 326 
Q 2575 -91 1722 -91 
Q 1428 -91 1123 -41 
Q 819 9 494 109 
L 494 744 
Q 775 591 1075 516 
Q 1375 441 1709 441 
Q 2250 441 2565 725 
Q 2881 1009 2881 1497 
Q 2881 1984 2565 2268 
Q 2250 2553 1709 2553 
Q 1456 2553 1204 2497 
Q 953 2441 691 2322 
L 691 4666 
z
" transform="scale(0.015625)"/>
       </defs>
       <use xlink:href="#DejaVuSans-30"/>
       <use xlink:href="#DejaVuSans-2e" transform="translate(63.623047 0)"/>
       <use xlink:href="#DejaVuSans-35" transform="translate(95.410156 0)"/>
      </g>
     </g>
    </g>
    <g id="ytick_3">
     <g id="line2d_26">
      <g>
       <use xlink:href="#maad7ae2d56" x="43.78125" y="199.740375" style="stroke: #000000; stroke-width: 0.8"/>
      </g>
     </g>
     <g id="text_6">
      <!-- 1.0 -->
      <g transform="translate(20.878125 203.539594) scale(0.1 -0.1)">
       <use xlink:href="#DejaVuSans-31"/>
       <use xlink:href="#DejaVuSans-2e" transform="translate(63.623047 0)"/>
       <use xlink:href="#DejaVuSans-30" transform="translate(95.410156 0)"/>
      </g>
     </g>
    </g>
    <g id="ytick_4">
     <g id="line2d_27">
      <g>
       <use xlink:href="#maad7ae2d56" x="43.78125" y="140.599625" style="stroke: #000000; stroke-width: 0.8"/>
      </g>
     </g>
     <g id="text_7">
      <!-- 1.5 -->
      <g transform="translate(20.878125 144.398844) scale(0.1 -0.1)">
       <use xlink:href="#DejaVuSans-31"/>
       <use xlink:href="#DejaVuSans-2e" transform="translate(63.623047 0)"/>
       <use xlink:href="#DejaVuSans-35" transform="translate(95.410156 0)"/>
      </g>
     </g>
    </g>
    <g id="ytick_5">
     <g id="line2d_28">
      <g>
       <use xlink:href="#maad7ae2d56" x="43.78125" y="81.458875" style="stroke: #000000; stroke-width: 0.8"/>
      </g>
     </g>
     <g id="text_8">
      <!-- 2.0 -->
      <g transform="translate(20.878125 85.258094) scale(0.1 -0.1)">
       <use xlink:href="#DejaVuSans-32"/>
       <use xlink:href="#DejaVuSans-2e" transform="translate(63.623047 0)"/>
       <use xlink:href="#DejaVuSans-30" transform="translate(95.410156 0)"/>
      </g>
     </g>
    </g>
    <g id="ytick_6">
     <g id="line2d_29">
      <g>
       <use xlink:href="#maad7ae2d56" x="43.78125" y="22.318125" style="stroke: #000000; stroke-width: 0.8"/>
      </g>
     </g>
     <g id="text_9">
      <!-- 2.5 -->
      <g transform="translate(20.878125 26.117344) scale(0.1 -0.1)">
       <use xlink:href="#DejaVuSans-32"/>
       <use xlink:href="#DejaVuSans-2e" transform="translate(63.623047 0)"/>
       <use xlink:href="#DejaVuSans-35" transform="translate(95.410156 0)"/>
      </g>
     </g>
    </g>
    <g id="text_10">
     <!-- time ago (generations) -->
     <g transform="translate(14.798438 227.641094) rotate(-90) scale(0.1 -0.1)">
      <defs>
       <path id="DejaVuSans-74" d="M 1172 4494 
L 1172 3500 
L 2356 3500 
L 2356 3053 
L 1172 3053 
L 1172 1153 
Q 1172 725 1289 603 
Q 1406 481 1766 481 
L 2356 481 
L 2356 0 
L 1766 0 
Q 1100 0 847 248 
Q 594 497 594 1153 
L 594 3053 
L 172 3053 
L 172 3500 
L 594 3500 
L 594 4494 
L 1172 4494 
z
" transform="scale(0.015625)"/>
       <path id="DejaVuSans-69" d="M 603 3500 
L 1178 3500 
L 1178 0 
L 603 0 
L 603 3500 
z
M 603 4863 
L 1178 4863 
L 1178 4134 
L 603 4134 
L 603 4863 
z
" transform="scale(0.015625)"/>
       <path id="DejaVuSans-20" transform="scale(0.015625)"/>
       <path id="DejaVuSans-61" d="M 2194 1759 
Q 1497 1759 1228 1600 
Q 959 1441 959 1056 
Q 959 750 1161 570 
Q 1363 391 1709 391 
Q 2188 391 2477 730 
Q 2766 1069 2766 1631 
L 2766 1759 
L 2194 1759 
z
M 3341 1997 
L 3341 0 
L 2766 0 
L 2766 531 
Q 2569 213 2275 61 
Q 1981 -91 1556 -91 
Q 1019 -91 701 211 
Q 384 513 384 1019 
Q 384 1609 779 1909 
Q 1175 2209 1959 2209 
L 2766 2209 
L 2766 2266 
Q 2766 2663 2505 2880 
Q 2244 3097 1772 3097 
Q 1472 3097 1187 3025 
Q 903 2953 641 2809 
L 641 3341 
Q 956 3463 1253 3523 
Q 1550 3584 1831 3584 
Q 2591 3584 2966 3190 
Q 3341 2797 3341 1997 
z
" transform="scale(0.015625)"/>
       <path id="DejaVuSans-67" d="M 2906 1791 
Q 2906 2416 2648 2759 
Q 2391 3103 1925 3103 
Q 1463 3103 1205 2759 
Q 947 2416 947 1791 
Q 947 1169 1205 825 
Q 1463 481 1925 481 
Q 2391 481 2648 825 
Q 2906 1169 2906 1791 
z
M 3481 434 
Q 3481 -459 3084 -895 
Q 2688 -1331 1869 -1331 
Q 1566 -1331 1297 -1286 
Q 1028 -1241 775 -1147 
L 775 -588 
Q 1028 -725 1275 -790 
Q 1522 -856 1778 -856 
Q 2344 -856 2625 -561 
Q 2906 -266 2906 331 
L 2906 616 
Q 2728 306 2450 153 
Q 2172 0 1784 0 
Q 1141 0 747 490 
Q 353 981 353 1791 
Q 353 2603 747 3093 
Q 1141 3584 1784 3584 
Q 2172 3584 2450 3431 
Q 2728 3278 2906 2969 
L 2906 3500 
L 3481 3500 
L 3481 434 
z
" transform="scale(0.015625)"/>
       <path id="DejaVuSans-6f" d="M 1959 3097 
Q 1497 3097 1228 2736 
Q 959 2375 959 1747 
Q 959 1119 1226 758 
Q 1494 397 1959 397 
Q 2419 397 2687 759 
Q 2956 1122 2956 1747 
Q 2956 2369 2687 2733 
Q 2419 3097 1959 3097 
z
M 1959 3584 
Q 2709 3584 3137 3096 
Q 3566 2609 3566 1747 
Q 3566 888 3137 398 
Q 2709 -91 1959 -91 
Q 1206 -91 779 398 
Q 353 888 353 1747 
Q 353 2609 779 3096 
Q 1206 3584 1959 3584 
z
" transform="scale(0.015625)"/>
       <path id="DejaVuSans-28" d="M 1984 4856 
Q 1566 4138 1362 3434 
Q 1159 2731 1159 2009 
Q 1159 1288 1364 580 
Q 1569 -128 1984 -844 
L 1484 -844 
Q 1016 -109 783 600 
Q 550 1309 550 2009 
Q 550 2706 781 3412 
Q 1013 4119 1484 4856 
L 1984 4856 
z
" transform="scale(0.015625)"/>
       <path id="DejaVuSans-6e" d="M 3513 2113 
L 3513 0 
L 2938 0 
L 2938 2094 
Q 2938 2591 2744 2837 
Q 2550 3084 2163 3084 
Q 1697 3084 1428 2787 
Q 1159 2491 1159 1978 
L 1159 0 
L 581 0 
L 581 3500 
L 1159 3500 
L 1159 2956 
Q 1366 3272 1645 3428 
Q 1925 3584 2291 3584 
Q 2894 3584 3203 3211 
Q 3513 2838 3513 2113 
z
" transform="scale(0.015625)"/>
       <path id="DejaVuSans-72" d="M 2631 2963 
Q 2534 3019 2420 3045 
Q 2306 3072 2169 3072 
Q 1681 3072 1420 2755 
Q 1159 2438 1159 1844 
L 1159 0 
L 581 0 
L 581 3500 
L 1159 3500 
L 1159 2956 
Q 1341 3275 1631 3429 
Q 1922 3584 2338 3584 
Q 2397 3584 2469 3576 
Q 2541 3569 2628 3553 
L 2631 2963 
z
" transform="scale(0.015625)"/>
       <path id="DejaVuSans-73" d="M 2834 3397 
L 2834 2853 
Q 2591 2978 2328 3040 
Q 2066 3103 1784 3103 
Q 1356 3103 1142 2972 
Q 928 2841 928 2578 
Q 928 2378 1081 2264 
Q 1234 2150 1697 2047 
L 1894 2003 
Q 2506 1872 2764 1633 
Q 3022 1394 3022 966 
Q 3022 478 2636 193 
Q 2250 -91 1575 -91 
Q 1294 -91 989 -36 
Q 684 19 347 128 
L 347 722 
Q 666 556 975 473 
Q 1284 391 1588 391 
Q 1994 391 2212 530 
Q 2431 669 2431 922 
Q 2431 1156 2273 1281 
Q 2116 1406 1581 1522 
L 1381 1569 
Q 847 1681 609 1914 
Q 372 2147 372 2553 
Q 372 3047 722 3315 
Q 1072 3584 1716 3584 
Q 2034 3584 2315 3537 
Q 2597 3491 2834 3397 
z
" transform="scale(0.015625)"/>
       <path id="DejaVuSans-29" d="M 513 4856 
L 1013 4856 
Q 1481 4119 1714 3412 
Q 1947 2706 1947 2009 
Q 1947 1309 1714 600 
Q 1481 -109 1013 -844 
L 513 -844 
Q 928 -128 1133 580 
Q 1338 1288 1338 2009 
Q 1338 2731 1133 3434 
Q 928 4138 513 4856 
z
" transform="scale(0.015625)"/>
      </defs>
      <use xlink:href="#DejaVuSans-74"/>
      <use xlink:href="#DejaVuSans-69" transform="translate(39.208984 0)"/>
      <use xlink:href="#DejaVuSans-6d" transform="translate(66.992188 0)"/>
      <use xlink:href="#DejaVuSans-65" transform="translate(164.404297 0)"/>
      <use xlink:href="#DejaVuSans-20" transform="translate(225.927734 0)"/>
      <use xlink:href="#DejaVuSans-61" transform="translate(257.714844 0)"/>
      <use xlink:href="#DejaVuSans-67" transform="translate(318.994141 0)"/>
      <use xlink:href="#DejaVuSans-6f" transform="translate(382.470703 0)"/>
      <use xlink:href="#DejaVuSans-20" transform="translate(443.652344 0)"/>
      <use xlink:href="#DejaVuSans-28" transform="translate(475.439453 0)"/>
      <use xlink:href="#DejaVuSans-67" transform="translate(514.453125 0)"/>
      <use xlink:href="#DejaVuSans-65" transform="translate(577.929688 0)"/>
      <use xlink:href="#DejaVuSans-6e" transform="translate(639.453125 0)"/>
      <use xlink:href="#DejaVuSans-65" transform="translate(702.832031 0)"/>
      <use xlink:href="#DejaVuSans-72" transform="translate(764.355469 0)"/>
      <use xlink:href="#DejaVuSans-61" transform="translate(805.46875 0)"/>
      <use xlink:href="#DejaVuSans-74" transform="translate(866.748047 0)"/>
      <use xlink:href="#DejaVuSans-69" transform="translate(905.957031 0)"/>
      <use xlink:href="#DejaVuSans-6f" transform="translate(933.740234 0)"/>
      <use xlink:href="#DejaVuSans-6e" transform="translate(994.921875 0)"/>
      <use xlink:href="#DejaVuSans-73" transform="translate(1058.300781 0)"/>
      <use xlink:href="#DejaVuSans-29" transform="translate(1110.400391 0)"/>
     </g>
    </g>
   </g>
   <g id="line2d_30">
    <path d="M 255.650368 140.043438 
L 253.650368 139.043438 
L 253.650368 141.043438 
z
" clip-path="url(#p42a8db1f47)" style="fill: #1f77b4; fill-opacity: 0.5; stroke: #1f77b4; stroke-opacity: 0.5; stroke-linejoin: miter"/>
   </g>
   <g id="line2d_31">
    <path d="M 255.650368 84.385378 
L 253.650368 83.385378 
L 253.650368 85.385378 
z
" clip-path="url(#p42a8db1f47)" style="fill: #1f77b4; fill-opacity: 0.5; stroke: #1f77b4; stroke-opacity: 0.5; stroke-linejoin: miter"/>
   </g>
   <g id="line2d_32">
    <path d="M 255.650368 103.480894 
L 253.650368 102.480894 
L 253.650368 104.480894 
z
" clip-path="url(#p42a8db1f47)" style="fill: #1f77b4; fill-opacity: 0.5; stroke: #1f77b4; stroke-opacity: 0.5; stroke-linejoin: miter"/>
   </g>
   <g id="line2d_33">
    <path d="M 255.650368 147.495953 
L 253.650368 146.495953 
L 253.650368 148.495953 
z
" clip-path="url(#p42a8db1f47)" style="fill: #1f77b4; fill-opacity: 0.5; stroke: #1f77b4; stroke-opacity: 0.5; stroke-linejoin: miter"/>
   </g>
   <g id="line2d_34">
    <path d="M 255.650368 146.104124 
L 253.650368 145.104124 
L 253.650368 147.104124 
z
" clip-path="url(#p42a8db1f47)" style="fill: #1f77b4; fill-opacity: 0.5; stroke: #1f77b4; stroke-opacity: 0.5; stroke-linejoin: miter"/>
   </g>
   <g id="line2d_35">
    <path d="M 255.650368 172.803006 
L 253.650368 171.803006 
L 253.650368 173.803006 
z
" clip-path="url(#p42a8db1f47)" style="fill: #1f77b4; fill-opacity: 0.5; stroke: #1f77b4; stroke-opacity: 0.5; stroke-linejoin: miter"/>
   </g>
   <g id="line2d_36">
    <path d="M 255.650368 195.009928 
L 253.650368 194.009928 
L 253.650368 196.009928 
z
" clip-path="url(#p42a8db1f47)" style="fill: #1f77b4; fill-opacity: 0.5; stroke: #1f77b4; stroke-opacity: 0.5; stroke-linejoin: miter"/>
   </g>
   <g id="line2d_37">
    <path d="M 255.650368 124.112519 
L 253.650368 123.112519 
L 253.650368 125.112519 
z
" clip-path="url(#p42a8db1f47)" style="fill: #1f77b4; fill-opacity: 0.5; stroke: #1f77b4; stroke-opacity: 0.5; stroke-linejoin: miter"/>
   </g>
   <g id="line2d_38">
    <path d="M 255.650368 98.877934 
L 253.650368 97.877934 
L 253.650368 99.877934 
z
" clip-path="url(#p42a8db1f47)" style="fill: #1f77b4; fill-opacity: 0.5; stroke: #1f77b4; stroke-opacity: 0.5; stroke-linejoin: miter"/>
   </g>
   <g id="line2d_39">
    <path d="M 255.650368 130.761232 
L 253.650368 129.761232 
L 253.650368 131.761232 
z
" clip-path="url(#p42a8db1f47)" style="fill: #1f77b4; fill-opacity: 0.5; stroke: #1f77b4; stroke-opacity: 0.5; stroke-linejoin: miter"/>
   </g>
   <g id="line2d_40">
    <path d="M 446.799004 107.914283 
L 444.799004 106.914283 
L 444.799004 108.914283 
z
" clip-path="url(#p42a8db1f47)" style="fill: #ff7f0e; fill-opacity: 0.5; stroke: #ff7f0e; stroke-opacity: 0.5; stroke-linejoin: miter"/>
   </g>
   <g id="line2d_41">
    <path d="M 446.799004 83.331849 
L 444.799004 82.331849 
L 444.799004 84.331849 
z
" clip-path="url(#p42a8db1f47)" style="fill: #ff7f0e; fill-opacity: 0.5; stroke: #ff7f0e; stroke-opacity: 0.5; stroke-linejoin: miter"/>
   </g>
   <g id="line2d_42">
    <path d="M 446.799004 180.684557 
L 444.799004 179.684557 
L 444.799004 181.684557 
z
" clip-path="url(#p42a8db1f47)" style="fill: #ff7f0e; fill-opacity: 0.5; stroke: #ff7f0e; stroke-opacity: 0.5; stroke-linejoin: miter"/>
   </g>
   <g id="line2d_43">
    <path d="M 446.799004 99.011066 
L 444.799004 98.011066 
L 444.799004 100.011066 
z
" clip-path="url(#p42a8db1f47)" style="fill: #ff7f0e; fill-opacity: 0.5; stroke: #ff7f0e; stroke-opacity: 0.5; stroke-linejoin: miter"/>
   </g>
   <g id="line2d_44">
    <path d="M 446.799004 86.301225 
L 444.799004 85.301225 
L 444.799004 87.301225 
z
" clip-path="url(#p42a8db1f47)" style="fill: #ff7f0e; fill-opacity: 0.5; stroke: #ff7f0e; stroke-opacity: 0.5; stroke-linejoin: miter"/>
   </g>
   <g id="line2d_45">
    <path d="M 446.799004 121.538626 
L 444.799004 120.538626 
L 444.799004 122.538626 
z
" clip-path="url(#p42a8db1f47)" style="fill: #ff7f0e; fill-opacity: 0.5; stroke: #ff7f0e; stroke-opacity: 0.5; stroke-linejoin: miter"/>
   </g>
   <g id="line2d_46">
    <path d="M 446.799004 184.316355 
L 444.799004 183.316355 
L 444.799004 185.316355 
z
" clip-path="url(#p42a8db1f47)" style="fill: #ff7f0e; fill-opacity: 0.5; stroke: #ff7f0e; stroke-opacity: 0.5; stroke-linejoin: miter"/>
   </g>
   <g id="line2d_47">
    <path d="M 446.799004 162.75965 
L 444.799004 161.75965 
L 444.799004 163.75965 
z
" clip-path="url(#p42a8db1f47)" style="fill: #ff7f0e; fill-opacity: 0.5; stroke: #ff7f0e; stroke-opacity: 0.5; stroke-linejoin: miter"/>
   </g>
   <g id="line2d_48">
    <path d="M 446.799004 143.741126 
L 444.799004 142.741126 
L 444.799004 144.741126 
z
" clip-path="url(#p42a8db1f47)" style="fill: #ff7f0e; fill-opacity: 0.5; stroke: #ff7f0e; stroke-opacity: 0.5; stroke-linejoin: miter"/>
   </g>
   <g id="line2d_49">
    <path d="M 446.799004 97.274572 
L 444.799004 96.274572 
L 444.799004 98.274572 
z
" clip-path="url(#p42a8db1f47)" style="fill: #ff7f0e; fill-opacity: 0.5; stroke: #ff7f0e; stroke-opacity: 0.5; stroke-linejoin: miter"/>
   </g>
   <g id="patch_6">
    <path d="M 43.78125 318.021875 
L 43.78125 22.318125 
" style="fill: none; stroke: #000000; stroke-width: 0.8; stroke-linejoin: miter; stroke-linecap: square"/>
   </g>
   <g id="text_11">
    <!-- defaults_migration_properties.yaml -->
    <g transform="translate(215.434687 16.318125) scale(0.12 -0.12)">
     <defs>
      <path id="DejaVuSans-66" d="M 2375 4863 
L 2375 4384 
L 1825 4384 
Q 1516 4384 1395 4259 
Q 1275 4134 1275 3809 
L 1275 3500 
L 2222 3500 
L 2222 3053 
L 1275 3053 
L 1275 0 
L 697 0 
L 697 3053 
L 147 3053 
L 147 3500 
L 697 3500 
L 697 3744 
Q 697 4328 969 4595 
Q 1241 4863 1831 4863 
L 2375 4863 
z
" transform="scale(0.015625)"/>
      <path id="DejaVuSans-75" d="M 544 1381 
L 544 3500 
L 1119 3500 
L 1119 1403 
Q 1119 906 1312 657 
Q 1506 409 1894 409 
Q 2359 409 2629 706 
Q 2900 1003 2900 1516 
L 2900 3500 
L 3475 3500 
L 3475 0 
L 2900 0 
L 2900 538 
Q 2691 219 2414 64 
Q 2138 -91 1772 -91 
Q 1169 -91 856 284 
Q 544 659 544 1381 
z
M 1991 3584 
L 1991 3584 
z
" transform="scale(0.015625)"/>
      <path id="DejaVuSans-6c" d="M 603 4863 
L 1178 4863 
L 1178 0 
L 603 0 
L 603 4863 
z
" transform="scale(0.015625)"/>
      <path id="DejaVuSans-5f" d="M 3263 -1063 
L 3263 -1509 
L -63 -1509 
L -63 -1063 
L 3263 -1063 
z
" transform="scale(0.015625)"/>
      <path id="DejaVuSans-70" d="M 1159 525 
L 1159 -1331 
L 581 -1331 
L 581 3500 
L 1159 3500 
L 1159 2969 
Q 1341 3281 1617 3432 
Q 1894 3584 2278 3584 
Q 2916 3584 3314 3078 
Q 3713 2572 3713 1747 
Q 3713 922 3314 415 
Q 2916 -91 2278 -91 
Q 1894 -91 1617 61 
Q 1341 213 1159 525 
z
M 3116 1747 
Q 3116 2381 2855 2742 
Q 2594 3103 2138 3103 
Q 1681 3103 1420 2742 
Q 1159 2381 1159 1747 
Q 1159 1113 1420 752 
Q 1681 391 2138 391 
Q 2594 391 2855 752 
Q 3116 1113 3116 1747 
z
" transform="scale(0.015625)"/>
      <path id="DejaVuSans-79" d="M 2059 -325 
Q 1816 -950 1584 -1140 
Q 1353 -1331 966 -1331 
L 506 -1331 
L 506 -850 
L 844 -850 
Q 1081 -850 1212 -737 
Q 1344 -625 1503 -206 
L 1606 56 
L 191 3500 
L 800 3500 
L 1894 763 
L 2988 3500 
L 3597 3500 
L 2059 -325 
z
" transform="scale(0.015625)"/>
     </defs>
     <use xlink:href="#DejaVuSans-64"/>
     <use xlink:href="#DejaVuSans-65" transform="translate(63.476562 0)"/>
     <use xlink:href="#DejaVuSans-66" transform="translate(125 0)"/>
     <use xlink:href="#DejaVuSans-61" transform="translate(160.205078 0)"/>
     <use xlink:href="#DejaVuSans-75" transform="translate(221.484375 0)"/>
     <use xlink:href="#DejaVuSans-6c" transform="translate(284.863281 0)"/>
     <use xlink:href="#DejaVuSans-74" transform="translate(312.646484 0)"/>
     <use xlink:href="#DejaVuSans-73" transform="translate(351.855469 0)"/>
     <use xlink:href="#DejaVuSans-5f" transform="translate(403.955078 0)"/>
     <use xlink:href="#DejaVuSans-6d" transform="translate(453.955078 0)"/>
     <use xlink:href="#DejaVuSans-69" transform="translate(551.367188 0)"/>
     <use xlink:href="#DejaVuSans-67" transform="translate(579.150391 0)"/>
     <use xlink:href="#DejaVuSans-72" transform="translate(642.626953 0)"/>
     <use xlink:href="#DejaVuSans-61" transform="translate(683.740234 0)"/>
     <use xlink:href="#DejaVuSans-74" transform="translate(745.019531 0)"/>
     <use xlink:href="#DejaVuSans-69" transform="translate(784.228516 0)"/>
     <use xlink:href="#DejaVuSans-6f" transform="translate(812.011719 0)"/>
     <use xlink:href="#DejaVuSans-6e" transform="translate(873.193359 0)"/>
     <use xlink:href="#DejaVuSans-5f" transform="translate(936.572266 0)"/>
     <use xlink:href="#DejaVuSans-70" transform="translate(986.572266 0)"/>
     <use xlink:href="#DejaVuSans-72" transform="translate(1050.048828 0)"/>
     <use xlink:href="#DejaVuSans-6f" transform="translate(1088.912109 0)"/>
     <use xlink:href="#DejaVuSans-70" transform="translate(1150.09375 0)"/>
     <use xlink:href="#DejaVuSans-65" transform="translate(1213.570312 0)"/>
     <use xlink:href="#DejaVuSans-72" transform="translate(1275.09375 0)"/>
     <use xlink:href="#DejaVuSans-74" transform="translate(1316.207031 0)"/>
     <use xlink:href="#DejaVuSans-69" transform="translate(1355.416016 0)"/>
     <use xlink:href="#DejaVuSans-65" transform="translate(1383.199219 0)"/>
     <use xlink:href="#DejaVuSans-73" transform="translate(1444.722656 0)"/>
     <use xlink:href="#DejaVuSans-2e" transform="translate(1496.822266 0)"/>
     <use xlink:href="#DejaVuSans-79" transform="translate(1528.609375 0)"/>
     <use xlink:href="#DejaVuSans-61" transform="translate(1587.789062 0)"/>
     <use xlink:href="#DejaVuSans-6d" transform="translate(1649.068359 0)"/>
     <use xlink:href="#DejaVuSans-6c" transform="translate(1746.480469 0)"/>
    </g>
   </g>
  </g>
 </g>
 <defs>
  <clipPath id="p42a8db1f47">
   <rect x="43.78125" y="22.318125" width="556.21875" height="295.70375"/>
  </clipPath>
 </defs>
</svg>