<?xml version="1.0" encoding="utf-8" standalone="no"?>
<!DOCTYPE svg PUBLIC "-//W3C//DTD SVG 1.1//EN"
  "http://www.w3.org/Graphics/SVG/1.1/DTD/svg11.dtd">
<svg xmlns:xlink="http://www.w3.org/1999/xlink" width="607.2pt" height="338.4pt" viewBox="0 0 607.2 338.4" xmlns="http://www.w3.org/2000/svg" version="1.1">
 <metadata>
  <rdf:RDF xmlns:dc="http://purl.org/dc/elements/1.1/" xmlns:cc="http://creativecommons.org/ns#" xmlns:rdf="http://www.w3.org/1999/02/22-rdf-syntax-ns#">
   <cc:Work>
    <dc:type rdf:resource="http://purl.org/dc/dcmitype/StillImage"/>
    <dc:date>2023-08-14T08:18:58.908200</dc:date>
    <dc:format>image/svg+xml</dc:format>
    <dc:creator>
     <cc:Agent>
      <dc:title>Matplotlib v3.7.2, https://matplotlib.org/</dc:title>
     </cc:Agent>
    </dc:creator>
   </cc:Work>
  </rdf:RDF>
 </metadata>
 <defs>
  <style type="text/css">*{stroke-linejoin: round; stroke-linecap: butt}</style>
 </defs>
 <g id="figure_1">
  <g id="patch_1">
   <path d="M 0 338.4 
L 607.2 338.4 
L 607.2 0 
L 0 0 
z
" style="fill: #ffffff"/>
  </g>
  <g id="axes_1">
   <g id="patch_2">
    <path d="M 46.965625 318.021875 
L 600 318.021875 
L 600 7.2 
L 46.965625 7.2 
z
" style="fill: #ffffff"/>
   </g>
   <path d="M 200.299443 269.503632 
L 201.299443 269.535069 
L 202.299443 269.572009 
L 203.299443 269.669756 
L 204.299443 269.702277 
L 205.299443 269.775902 
L 206.299443 269.814468 
L 207.299443 269.849881 
L 208.299443 269.907521 
L 209.299443 269.977907 
L 210.299443 270.029871 
L 211.299443 270.088961 
L 212.299443 270.177282 
L 213.299443 270.223426 
L 214.299443 270.265837 
L 215.299443 270.29633 
L 216.299443 270.322375 
L 217.299443 270.343575 
L 218.299443 270.397876 
L 219.299443 270.425813 
L 220.299443 270.455537 
L 221.299443 270.480932 
L 222.299443 270.492133 
L 223.299443 270.502257 
L 224.299443 270.502052 
L 225.299443 270.492542 
L 226.299443 270.480889 
L 227.299443 270.44986 
L 228.299443 270.438692 
L 229.299443 270.408574 
L 230.299443 270.348797 
L 231.299443 270.311606 
L 232.299443 270.27251 
L 233.299443 270.23007 
L 234.299443 270.197305 
L 235.299443 270.129878 
L 236.299443 270.090752 
L 237.299443 270.048078 
L 238.299443 269.977497 
L 239.299443 269.941106 
L 240.299443 269.882703 
L 241.299443 269.771751 
L 242.299443 269.701092 
L 243.299443 269.588152 
L 244.299443 269.54238 
L 245.299443 269.481096 
L 246.299443 269.432597 
L 247.299443 269.351774 
L 248.299443 269.233255 
L 249.299443 269.163045 
L 250.299443 269.079782 
L 251.299443 269.046641 
L 252.299443 268.995403 
L 253.299443 268.927005 
L 254.299443 268.860789 
L 255.299443 268.783872 
L 256.619695 268.756557 
" clip-path="url(#pe557afcb4b)" style="fill: none; stroke: #1f77b4; stroke-opacity: 0.5; stroke-width: 0.2; stroke-linecap: square"/>
   <path d="M 200.299443 273.358273 
L 201.299443 273.38971 
L 202.299443 273.42665 
L 203.299443 273.524397 
L 204.299443 273.556918 
L 205.299443 273.630543 
L 206.299443 273.669109 
L 207.299443 273.704522 
L 208.299443 273.762162 
L 209.299443 273.832548 
L 210.299443 273.884512 
L 211.299443 273.943602 
L 212.299443 274.031923 
L 213.299443 274.078067 
L 214.299443 274.120478 
L 215.299443 274.150971 
L 216.299443 274.177016 
L 217.299443 274.198216 
L 218.299443 274.252517 
L 219.299443 274.280454 
L 220.299443 274.310178 
L 221.299443 274.335573 
L 222.299443 274.346774 
L 223.299443 274.356898 
L 224.299443 274.356693 
L 225.299443 274.347183 
L 226.299443 274.33553 
L 227.299443 274.3045 
L 228.299443 274.293333 
L 229.299443 274.263215 
L 230.299443 274.203438 
L 231.299443 274.166247 
L 232.299443 274.12715 
L 233.299443 274.084711 
L 234.299443 274.051946 
L 235.299443 273.984519 
L 236.299443 273.945393 
L 237.299443 273.902719 
L 238.299443 273.832138 
L 239.299443 273.795747 
L 240.299443 273.737344 
L 241.299443 273.626392 
L 242.299443 273.555733 
L 243.299443 273.442793 
L 244.299443 273.397021 
L 245.299443 273.335737 
L 246.299443 273.287238 
L 247.299443 273.206415 
L 248.299443 273.087896 
L 249.299443 273.017686 
L 250.299443 272.934423 
L 251.299443 272.901282 
L 252.299443 272.850044 
L 253.299443 272.781646 
L 254.299443 272.71543 
L 255.299443 272.638513 
L 256.619695 272.611198 
" clip-path="url(#pe557afcb4b)" style="fill: none; stroke: #1f77b4; stroke-opacity: 0.5; stroke-width: 0.2; stroke-linecap: square"/>
   <path d="M 200.299443 174.28421 
L 201.299443 174.315646 
L 202.299443 174.352586 
L 203.299443 174.450333 
L 204.299443 174.482854 
L 205.299443 174.556479 
L 206.299443 174.595045 
L 207.299443 174.630458 
L 208.299443 174.688098 
L 209.299443 174.758484 
L 210.299443 174.810448 
L 211.299443 174.869538 
L 212.299443 174.957859 
L 213.299443 175.004003 
L 214.299443 175.046414 
L 215.299443 175.076907 
L 216.299443 175.102952 
L 217.299443 175.124152 
L 218.299443 175.178453 
L 219.299443 175.206391 
L 220.299443 175.236115 
L 221.299443 175.261509 
L 222.299443 175.27271 
L 223.299443 175.282834 
L 224.299443 175.282629 
L 225.299443 175.27312 
L 226.299443 175.261466 
L 227.299443 175.230437 
L 228.299443 175.219269 
L 229.299443 175.189151 
L 230.299443 175.129374 
L 231.299443 175.092183 
L 232.299443 175.053087 
L 233.299443 175.010647 
L 234.299443 174.977882 
L 235.299443 174.910455 
L 236.299443 174.87133 
L 237.299443 174.828655 
L 238.299443 174.758074 
L 239.299443 174.721684 
L 240.299443 174.66328 
L 241.299443 174.552328 
L 242.299443 174.481669 
L 243.299443 174.36873 
L 244.299443 174.322957 
L 245.299443 174.261674 
L 246.299443 174.213174 
L 247.299443 174.132352 
L 248.299443 174.013833 
L 249.299443 173.943622 
L 250.299443 173.860359 
L 251.299443 173.827218 
L 252.299443 173.77598 
L 253.299443 173.707582 
L 254.299443 173.641367 
L 255.299443 173.56445 
L 256.619695 173.537134 
" clip-path="url(#pe557afcb4b)" style="fill: none; stroke: #1f77b4; stroke-opacity: 0.5; stroke-width: 0.2; stroke-linecap: square"/>
   <path d="M 200.299443 129.622304 
L 201.299443 129.653741 
L 202.299443 129.690681 
L 203.299443 129.788428 
L 204.299443 129.820949 
L 205.299443 129.894574 
L 206.299443 129.933139 
L 207.299443 129.968553 
L 208.299443 130.026192 
L 209.299443 130.096579 
L 210.299443 130.148543 
L 211.299443 130.207633 
L 212.299443 130.295954 
L 213.299443 130.342098 
L 214.299443 130.384509 
L 215.299443 130.415002 
L 216.299443 130.441046 
L 217.299443 130.462247 
L 218.299443 130.516548 
L 219.299443 130.544485 
L 220.299443 130.574209 
L 221.299443 130.599604 
L 222.299443 130.610804 
L 223.299443 130.620928 
L 224.299443 130.620724 
L 225.299443 130.611214 
L 226.299443 130.599561 
L 227.299443 130.568531 
L 228.299443 130.557363 
L 229.299443 130.527246 
L 230.299443 130.467469 
L 231.299443 130.430277 
L 232.299443 130.391181 
L 233.299443 130.348742 
L 234.299443 130.315977 
L 235.299443 130.24855 
L 236.299443 130.209424 
L 237.299443 130.16675 
L 238.299443 130.096169 
L 239.299443 130.059778 
L 240.299443 130.001375 
L 241.299443 129.890422 
L 242.299443 129.819764 
L 243.299443 129.706824 
L 244.299443 129.661051 
L 245.299443 129.599768 
L 246.299443 129.551269 
L 247.299443 129.470446 
L 248.299443 129.351927 
L 249.299443 129.281717 
L 250.299443 129.198454 
L 251.299443 129.165312 
L 252.299443 129.114075 
L 253.299443 129.045677 
L 254.299443 128.979461 
L 255.299443 128.902544 
L 256.619695 128.875229 
" clip-path="url(#pe557afcb4b)" style="fill: none; stroke: #1f77b4; stroke-opacity: 0.5; stroke-width: 0.2; stroke-linecap: square"/>
   <path d="M 200.299443 119.349206 
L 201.299443 119.380642 
L 202.299443 119.417583 
L 203.299443 119.515329 
L 204.299443 119.547851 
L 205.299443 119.621476 
L 206.299443 119.660041 
L 207.299443 119.695454 
L 208.299443 119.753094 
L 209.299443 119.823481 
L 210.299443 119.875445 
L 211.299443 119.934534 
L 212.299443 120.022855 
L 213.299443 120.069 
L 214.299443 120.111411 
L 215.299443 120.141903 
L 216.299443 120.167948 
L 217.299443 120.189148 
L 218.299443 120.24345 
L 219.299443 120.271387 
L 220.299443 120.301111 
L 221.299443 120.326506 
L 222.299443 120.337706 
L 223.299443 120.34783 
L 224.299443 120.347626 
L 225.299443 120.338116 
L 226.299443 120.326462 
L 227.299443 120.295433 
L 228.299443 120.284265 
L 229.299443 120.254148 
L 230.299443 120.194371 
L 231.299443 120.157179 
L 232.299443 120.118083 
L 233.299443 120.075643 
L 234.299443 120.042878 
L 235.299443 119.975452 
L 236.299443 119.936326 
L 237.299443 119.893651 
L 238.299443 119.823071 
L 239.299443 119.78668 
L 240.299443 119.728277 
L 241.299443 119.617324 
L 242.299443 119.546666 
L 243.299443 119.433726 
L 244.299443 119.387953 
L 245.299443 119.32667 
L 246.299443 119.278171 
L 247.299443 119.197348 
L 248.299443 119.078829 
L 249.299443 119.008618 
L 250.299443 118.925356 
L 251.299443 118.892214 
L 252.299443 118.840977 
L 253.299443 118.772579 
L 254.299443 118.706363 
L 255.299443 118.629446 
L 256.619695 118.602131 
" clip-path="url(#pe557afcb4b)" style="fill: none; stroke: #1f77b4; stroke-opacity: 0.5; stroke-width: 0.2; stroke-linecap: square"/>
   <path d="M 200.299443 143.351687 
L 201.299443 143.383123 
L 202.299443 143.420063 
L 203.299443 143.51781 
L 204.299443 143.550332 
L 205.299443 143.623956 
L 206.299443 143.662522 
L 207.299443 143.697935 
L 208.299443 143.755575 
L 209.299443 143.825961 
L 210.299443 143.877925 
L 211.299443 143.937015 
L 212.299443 144.025336 
L 213.299443 144.07148 
L 214.299443 144.113891 
L 215.299443 144.144384 
L 216.299443 144.170429 
L 217.299443 144.191629 
L 218.299443 144.24593 
L 219.299443 144.273868 
L 220.299443 144.303592 
L 221.299443 144.328986 
L 222.299443 144.340187 
L 223.299443 144.350311 
L 224.299443 144.350106 
L 225.299443 144.340597 
L 226.299443 144.328943 
L 227.299443 144.297914 
L 228.299443 144.286746 
L 229.299443 144.256628 
L 230.299443 144.196851 
L 231.299443 144.15966 
L 232.299443 144.120564 
L 233.299443 144.078124 
L 234.299443 144.045359 
L 235.299443 143.977933 
L 236.299443 143.938807 
L 237.299443 143.896132 
L 238.299443 143.825552 
L 239.299443 143.789161 
L 240.299443 143.730757 
L 241.299443 143.619805 
L 242.299443 143.549147 
L 243.299443 143.436207 
L 244.299443 143.390434 
L 245.299443 143.329151 
L 246.299443 143.280651 
L 247.299443 143.199829 
L 248.299443 143.08131 
L 249.299443 143.011099 
L 250.299443 142.927837 
L 251.299443 142.894695 
L 252.299443 142.843458 
L 253.299443 142.775059 
L 254.299443 142.708844 
L 255.299443 142.631927 
L 256.619695 142.604611 
" clip-path="url(#pe557afcb4b)" style="fill: none; stroke: #1f77b4; stroke-opacity: 0.5; stroke-width: 0.2; stroke-linecap: square"/>
   <path d="M 200.299443 275.949438 
L 201.299443 275.980874 
L 202.299443 276.017815 
L 203.299443 276.115561 
L 204.299443 276.148083 
L 205.299443 276.221707 
L 206.299443 276.260273 
L 207.299443 276.295686 
L 208.299443 276.353326 
L 209.299443 276.423712 
L 210.299443 276.475676 
L 211.299443 276.534766 
L 212.299443 276.623087 
L 213.299443 276.669232 
L 214.299443 276.711642 
L 215.299443 276.742135 
L 216.299443 276.76818 
L 217.299443 276.78938 
L 218.299443 276.843681 
L 219.299443 276.871619 
L 220.299443 276.901343 
L 221.299443 276.926738 
L 222.299443 276.937938 
L 223.299443 276.948062 
L 224.299443 276.947858 
L 225.299443 276.938348 
L 226.299443 276.926694 
L 227.299443 276.895665 
L 228.299443 276.884497 
L 229.299443 276.854379 
L 230.299443 276.794603 
L 231.299443 276.757411 
L 232.299443 276.718315 
L 233.299443 276.675875 
L 234.299443 276.64311 
L 235.299443 276.575684 
L 236.299443 276.536558 
L 237.299443 276.493883 
L 238.299443 276.423303 
L 239.299443 276.386912 
L 240.299443 276.328509 
L 241.299443 276.217556 
L 242.299443 276.146898 
L 243.299443 276.033958 
L 244.299443 275.988185 
L 245.299443 275.926902 
L 246.299443 275.878402 
L 247.299443 275.79758 
L 248.299443 275.679061 
L 249.299443 275.60885 
L 250.299443 275.525588 
L 251.299443 275.492446 
L 252.299443 275.441209 
L 253.299443 275.37281 
L 254.299443 275.306595 
L 255.299443 275.229678 
L 256.619695 275.202362 
" clip-path="url(#pe557afcb4b)" style="fill: none; stroke: #1f77b4; stroke-opacity: 0.5; stroke-width: 0.2; stroke-linecap: square"/>
   <path d="M 200.299443 36.727018 
L 201.299443 36.758454 
L 202.299443 36.795394 
L 203.299443 36.893141 
L 204.299443 36.925662 
L 205.299443 36.999287 
L 206.299443 37.037853 
L 207.299443 37.073266 
L 208.299443 37.130906 
L 209.299443 37.201292 
L 210.299443 37.253256 
L 211.299443 37.312346 
L 212.299443 37.400667 
L 213.299443 37.446811 
L 214.299443 37.489222 
L 215.299443 37.519715 
L 216.299443 37.54576 
L 217.299443 37.56696 
L 218.299443 37.621261 
L 219.299443 37.649199 
L 220.299443 37.678923 
L 221.299443 37.704317 
L 222.299443 37.715518 
L 223.299443 37.725642 
L 224.299443 37.725437 
L 225.299443 37.715927 
L 226.299443 37.704274 
L 227.299443 37.673245 
L 228.299443 37.662077 
L 229.299443 37.631959 
L 230.299443 37.572182 
L 231.299443 37.534991 
L 232.299443 37.495895 
L 233.299443 37.453455 
L 234.299443 37.42069 
L 235.299443 37.353263 
L 236.299443 37.314138 
L 237.299443 37.271463 
L 238.299443 37.200882 
L 239.299443 37.164492 
L 240.299443 37.106088 
L 241.299443 36.995136 
L 242.299443 36.924477 
L 243.299443 36.811538 
L 244.299443 36.765765 
L 245.299443 36.704481 
L 246.299443 36.655982 
L 247.299443 36.575159 
L 248.299443 36.456641 
L 249.299443 36.38643 
L 250.299443 36.303167 
L 251.299443 36.270026 
L 252.299443 36.218788 
L 253.299443 36.15039 
L 254.299443 36.084175 
L 255.299443 36.007258 
L 256.619695 35.979942 
" clip-path="url(#pe557afcb4b)" style="fill: none; stroke: #1f77b4; stroke-opacity: 0.5; stroke-width: 0.2; stroke-linecap: square"/>
   <path d="M 200.299443 260.16796 
L 201.299443 260.199396 
L 202.299443 260.236337 
L 203.299443 260.334083 
L 204.299443 260.366605 
L 205.299443 260.440229 
L 206.299443 260.478795 
L 207.299443 260.514208 
L 208.299443 260.571848 
L 209.299443 260.642234 
L 210.299443 260.694199 
L 211.299443 260.753288 
L 212.299443 260.841609 
L 213.299443 260.887754 
L 214.299443 260.930164 
L 215.299443 260.960657 
L 216.299443 260.986702 
L 217.299443 261.007902 
L 218.299443 261.062203 
L 219.299443 261.090141 
L 220.299443 261.119865 
L 221.299443 261.14526 
L 222.299443 261.15646 
L 223.299443 261.166584 
L 224.299443 261.16638 
L 225.299443 261.15687 
L 226.299443 261.145216 
L 227.299443 261.114187 
L 228.299443 261.103019 
L 229.299443 261.072901 
L 230.299443 261.013125 
L 231.299443 260.975933 
L 232.299443 260.936837 
L 233.299443 260.894397 
L 234.299443 260.861632 
L 235.299443 260.794206 
L 236.299443 260.75508 
L 237.299443 260.712405 
L 238.299443 260.641825 
L 239.299443 260.605434 
L 240.299443 260.547031 
L 241.299443 260.436078 
L 242.299443 260.36542 
L 243.299443 260.25248 
L 244.299443 260.206707 
L 245.299443 260.145424 
L 246.299443 260.096924 
L 247.299443 260.016102 
L 248.299443 259.897583 
L 249.299443 259.827372 
L 250.299443 259.74411 
L 251.299443 259.710968 
L 252.299443 259.659731 
L 253.299443 259.591332 
L 254.299443 259.525117 
L 255.299443 259.4482 
L 256.619695 259.420884 
" clip-path="url(#pe557afcb4b)" style="fill: none; stroke: #1f77b4; stroke-opacity: 0.5; stroke-width: 0.2; stroke-linecap: square"/>
   <path d="M 200.299443 125.02392 
L 201.299443 125.055356 
L 202.299443 125.092296 
L 203.299443 125.190043 
L 204.299443 125.222565 
L 205.299443 125.296189 
L 206.299443 125.334755 
L 207.299443 125.370168 
L 208.299443 125.427808 
L 209.299443 125.498194 
L 210.299443 125.550158 
L 211.299443 125.609248 
L 212.299443 125.697569 
L 213.299443 125.743713 
L 214.299443 125.786124 
L 215.299443 125.816617 
L 216.299443 125.842662 
L 217.299443 125.863862 
L 218.299443 125.918163 
L 219.299443 125.946101 
L 220.299443 125.975825 
L 221.299443 126.001219 
L 222.299443 126.01242 
L 223.299443 126.022544 
L 224.299443 126.02234 
L 225.299443 126.01283 
L 226.299443 126.001176 
L 227.299443 125.970147 
L 228.299443 125.958979 
L 229.299443 125.928861 
L 230.299443 125.869084 
L 231.299443 125.831893 
L 232.299443 125.792797 
L 233.299443 125.750357 
L 234.299443 125.717592 
L 235.299443 125.650166 
L 236.299443 125.61104 
L 237.299443 125.568365 
L 238.299443 125.497785 
L 239.299443 125.461394 
L 240.299443 125.40299 
L 241.299443 125.292038 
L 242.299443 125.22138 
L 243.299443 125.10844 
L 244.299443 125.062667 
L 245.299443 125.001384 
L 246.299443 124.952884 
L 247.299443 124.872062 
L 248.299443 124.753543 
L 249.299443 124.683332 
L 250.299443 124.60007 
L 251.299443 124.566928 
L 252.299443 124.515691 
L 253.299443 124.447292 
L 254.299443 124.381077 
L 255.299443 124.30416 
L 256.619695 124.276844 
" clip-path="url(#pe557afcb4b)" style="fill: none; stroke: #1f77b4; stroke-opacity: 0.5; stroke-width: 0.2; stroke-linecap: square"/>
   <path d="M 256.619695 24.324108 
L 255.619695 24.292672 
L 254.619695 24.255732 
L 253.619695 24.157985 
L 252.619695 24.125463 
L 251.619695 24.051839 
L 250.619695 24.013273 
L 249.619695 23.97786 
L 248.619695 23.92022 
L 247.619695 23.849834 
L 246.619695 23.79787 
L 245.619695 23.73878 
L 244.619695 23.650459 
L 243.619695 23.604315 
L 242.619695 23.561904 
L 241.619695 23.531411 
L 240.619695 23.505366 
L 239.619695 23.484166 
L 238.619695 23.429865 
L 237.619695 23.401927 
L 236.619695 23.372203 
L 235.619695 23.346809 
L 234.619695 23.335608 
L 233.619695 23.325484 
L 232.619695 23.325689 
L 231.619695 23.335198 
L 230.619695 23.346852 
L 229.619695 23.377881 
L 228.619695 23.389049 
L 227.619695 23.419167 
L 226.619695 23.478944 
L 225.619695 23.516135 
L 224.619695 23.555231 
L 223.619695 23.597671 
L 222.619695 23.630436 
L 221.619695 23.697862 
L 220.619695 23.736988 
L 219.619695 23.779663 
L 218.619695 23.850243 
L 217.619695 23.886634 
L 216.619695 23.945038 
L 215.619695 24.05599 
L 214.619695 24.126648 
L 213.619695 24.239588 
L 212.619695 24.285361 
L 211.619695 24.346644 
L 210.619695 24.395144 
L 209.619695 24.475966 
L 208.619695 24.594485 
L 207.619695 24.664696 
L 206.619695 24.747958 
L 205.619695 24.7811 
L 204.619695 24.832338 
L 203.619695 24.900736 
L 202.619695 24.966951 
L 201.619695 25.043868 
L 200.299443 25.071184 
" clip-path="url(#pe557afcb4b)" style="fill: none; stroke: #ff7f0e; stroke-opacity: 0.5; stroke-width: 0.2; stroke-linecap: square"/>
   <path d="M 256.619695 31.143744 
L 255.619695 31.112308 
L 254.619695 31.075367 
L 253.619695 30.977621 
L 252.619695 30.945099 
L 251.619695 30.871474 
L 250.619695 30.832909 
L 249.619695 30.797496 
L 248.619695 30.739856 
L 247.619695 30.66947 
L 246.619695 30.617505 
L 245.619695 30.558416 
L 244.619695 30.470095 
L 243.619695 30.42395 
L 242.619695 30.381539 
L 241.619695 30.351047 
L 240.619695 30.325002 
L 239.619695 30.303802 
L 238.619695 30.249501 
L 237.619695 30.221563 
L 236.619695 30.191839 
L 235.619695 30.166444 
L 234.619695 30.155244 
L 233.619695 30.14512 
L 232.619695 30.145324 
L 231.619695 30.154834 
L 230.619695 30.166488 
L 229.619695 30.197517 
L 228.619695 30.208685 
L 227.619695 30.238802 
L 226.619695 30.298579 
L 225.619695 30.335771 
L 224.619695 30.374867 
L 223.619695 30.417307 
L 222.619695 30.450072 
L 221.619695 30.517498 
L 220.619695 30.556624 
L 219.619695 30.599299 
L 218.619695 30.669879 
L 217.619695 30.70627 
L 216.619695 30.764673 
L 215.619695 30.875626 
L 214.619695 30.946284 
L 213.619695 31.059224 
L 212.619695 31.104997 
L 211.619695 31.16628 
L 210.619695 31.214779 
L 209.619695 31.295602 
L 208.619695 31.414121 
L 207.619695 31.484332 
L 206.619695 31.567594 
L 205.619695 31.600736 
L 204.619695 31.651973 
L 203.619695 31.720372 
L 202.619695 31.786587 
L 201.619695 31.863504 
L 200.299443 31.890819 
" clip-path="url(#pe557afcb4b)" style="fill: none; stroke: #ff7f0e; stroke-opacity: 0.5; stroke-width: 0.2; stroke-linecap: square"/>
   <path d="M 256.619695 301.238931 
L 255.619695 301.207495 
L 254.619695 301.170555 
L 253.619695 301.072808 
L 252.619695 301.040286 
L 251.619695 300.966662 
L 250.619695 300.928096 
L 249.619695 300.892683 
L 248.619695 300.835043 
L 247.619695 300.764657 
L 246.619695 300.712693 
L 245.619695 300.653603 
L 244.619695 300.565282 
L 243.619695 300.519138 
L 242.619695 300.476727 
L 241.619695 300.446234 
L 240.619695 300.420189 
L 239.619695 300.398989 
L 238.619695 300.344688 
L 237.619695 300.31675 
L 236.619695 300.287026 
L 235.619695 300.261632 
L 234.619695 300.250431 
L 233.619695 300.240307 
L 232.619695 300.240512 
L 231.619695 300.250021 
L 230.619695 300.261675 
L 229.619695 300.292704 
L 228.619695 300.303872 
L 227.619695 300.33399 
L 226.619695 300.393767 
L 225.619695 300.430958 
L 224.619695 300.470054 
L 223.619695 300.512494 
L 222.619695 300.545259 
L 221.619695 300.612685 
L 220.619695 300.651811 
L 219.619695 300.694486 
L 218.619695 300.765066 
L 217.619695 300.801457 
L 216.619695 300.859861 
L 215.619695 300.970813 
L 214.619695 301.041471 
L 213.619695 301.154411 
L 212.619695 301.200184 
L 211.619695 301.261467 
L 210.619695 301.309967 
L 209.619695 301.390789 
L 208.619695 301.509308 
L 207.619695 301.579519 
L 206.619695 301.662781 
L 205.619695 301.695923 
L 204.619695 301.74716 
L 203.619695 301.815559 
L 202.619695 301.881774 
L 201.619695 301.958691 
L 200.299443 301.986007 
" clip-path="url(#pe557afcb4b)" style="fill: none; stroke: #ff7f0e; stroke-opacity: 0.5; stroke-width: 0.2; stroke-linecap: square"/>
   <path d="M 256.619695 101.216585 
L 255.619695 101.185148 
L 254.619695 101.148208 
L 253.619695 101.050461 
L 252.619695 101.01794 
L 251.619695 100.944315 
L 250.619695 100.905749 
L 249.619695 100.870336 
L 248.619695 100.812696 
L 247.619695 100.74231 
L 246.619695 100.690346 
L 245.619695 100.631256 
L 244.619695 100.542935 
L 243.619695 100.496791 
L 242.619695 100.45438 
L 241.619695 100.423887 
L 240.619695 100.397842 
L 239.619695 100.376642 
L 238.619695 100.322341 
L 237.619695 100.294404 
L 236.619695 100.26468 
L 235.619695 100.239285 
L 234.619695 100.228084 
L 233.619695 100.21796 
L 232.619695 100.218165 
L 231.619695 100.227675 
L 230.619695 100.239328 
L 229.619695 100.270358 
L 228.619695 100.281525 
L 227.619695 100.311643 
L 226.619695 100.37142 
L 225.619695 100.408611 
L 224.619695 100.447708 
L 223.619695 100.490147 
L 222.619695 100.522912 
L 221.619695 100.590339 
L 220.619695 100.629465 
L 219.619695 100.672139 
L 218.619695 100.74272 
L 217.619695 100.779111 
L 216.619695 100.837514 
L 215.619695 100.948466 
L 214.619695 101.019125 
L 213.619695 101.132065 
L 212.619695 101.177837 
L 211.619695 101.239121 
L 210.619695 101.28762 
L 209.619695 101.368443 
L 208.619695 101.486962 
L 207.619695 101.557172 
L 206.619695 101.640435 
L 205.619695 101.673576 
L 204.619695 101.724814 
L 203.619695 101.793212 
L 202.619695 101.859428 
L 201.619695 101.936345 
L 200.299443 101.96366 
" clip-path="url(#pe557afcb4b)" style="fill: none; stroke: #ff7f0e; stroke-opacity: 0.5; stroke-width: 0.2; stroke-linecap: square"/>
   <path d="M 256.619695 135.771294 
L 255.619695 135.739858 
L 254.619695 135.702917 
L 253.619695 135.605171 
L 252.619695 135.572649 
L 251.619695 135.499025 
L 250.619695 135.460459 
L 249.619695 135.425046 
L 248.619695 135.367406 
L 247.619695 135.29702 
L 246.619695 135.245055 
L 245.619695 135.185966 
L 244.619695 135.097645 
L 243.619695 135.0515 
L 242.619695 135.009089 
L 241.619695 134.978597 
L 240.619695 134.952552 
L 239.619695 134.931352 
L 238.619695 134.877051 
L 237.619695 134.849113 
L 236.619695 134.819389 
L 235.619695 134.793994 
L 234.619695 134.782794 
L 233.619695 134.77267 
L 232.619695 134.772874 
L 231.619695 134.782384 
L 230.619695 134.794038 
L 229.619695 134.825067 
L 228.619695 134.836235 
L 227.619695 134.866352 
L 226.619695 134.926129 
L 225.619695 134.963321 
L 224.619695 135.002417 
L 223.619695 135.044857 
L 222.619695 135.077622 
L 221.619695 135.145048 
L 220.619695 135.184174 
L 219.619695 135.226849 
L 218.619695 135.297429 
L 217.619695 135.33382 
L 216.619695 135.392223 
L 215.619695 135.503176 
L 214.619695 135.573834 
L 213.619695 135.686774 
L 212.619695 135.732547 
L 211.619695 135.79383 
L 210.619695 135.84233 
L 209.619695 135.923152 
L 208.619695 136.041671 
L 207.619695 136.111882 
L 206.619695 136.195144 
L 205.619695 136.228286 
L 204.619695 136.279523 
L 203.619695 136.347922 
L 202.619695 136.414137 
L 201.619695 136.491054 
L 200.299443 136.51837 
" clip-path="url(#pe557afcb4b)" style="fill: none; stroke: #ff7f0e; stroke-opacity: 0.5; stroke-width: 0.2; stroke-linecap: square"/>
   <path d="M 256.619695 257.996136 
L 255.619695 257.964699 
L 254.619695 257.927759 
L 253.619695 257.830012 
L 252.619695 257.797491 
L 251.619695 257.723866 
L 250.619695 257.6853 
L 249.619695 257.649887 
L 248.619695 257.592247 
L 247.619695 257.521861 
L 246.619695 257.469897 
L 245.619695 257.410807 
L 244.619695 257.322486 
L 243.619695 257.276342 
L 242.619695 257.233931 
L 241.619695 257.203438 
L 240.619695 257.177393 
L 239.619695 257.156193 
L 238.619695 257.101892 
L 237.619695 257.073955 
L 236.619695 257.044231 
L 235.619695 257.018836 
L 234.619695 257.007635 
L 233.619695 256.997511 
L 232.619695 256.997716 
L 231.619695 257.007226 
L 230.619695 257.018879 
L 229.619695 257.049909 
L 228.619695 257.061076 
L 227.619695 257.091194 
L 226.619695 257.150971 
L 225.619695 257.188162 
L 224.619695 257.227259 
L 223.619695 257.269698 
L 222.619695 257.302463 
L 221.619695 257.36989 
L 220.619695 257.409016 
L 219.619695 257.45169 
L 218.619695 257.522271 
L 217.619695 257.558662 
L 216.619695 257.617065 
L 215.619695 257.728017 
L 214.619695 257.798676 
L 213.619695 257.911616 
L 212.619695 257.957388 
L 211.619695 258.018672 
L 210.619695 258.067171 
L 209.619695 258.147994 
L 208.619695 258.266513 
L 207.619695 258.336723 
L 206.619695 258.419986 
L 205.619695 258.453127 
L 204.619695 258.504365 
L 203.619695 258.572763 
L 202.619695 258.638979 
L 201.619695 258.715896 
L 200.299443 258.743211 
" clip-path="url(#pe557afcb4b)" style="fill: none; stroke: #ff7f0e; stroke-opacity: 0.5; stroke-width: 0.2; stroke-linecap: square"/>
   <path d="M 256.619695 34.376871 
L 255.619695 34.345434 
L 254.619695 34.308494 
L 253.619695 34.210748 
L 252.619695 34.178226 
L 251.619695 34.104601 
L 250.619695 34.066036 
L 249.619695 34.030623 
L 248.619695 33.972983 
L 247.619695 33.902596 
L 246.619695 33.850632 
L 245.619695 33.791542 
L 244.619695 33.703221 
L 243.619695 33.657077 
L 242.619695 33.614666 
L 241.619695 33.584174 
L 240.619695 33.558129 
L 239.619695 33.536928 
L 238.619695 33.482627 
L 237.619695 33.45469 
L 236.619695 33.424966 
L 235.619695 33.399571 
L 234.619695 33.388371 
L 233.619695 33.378247 
L 232.619695 33.378451 
L 231.619695 33.387961 
L 230.619695 33.399614 
L 229.619695 33.430644 
L 228.619695 33.441812 
L 227.619695 33.471929 
L 226.619695 33.531706 
L 225.619695 33.568898 
L 224.619695 33.607994 
L 223.619695 33.650433 
L 222.619695 33.683199 
L 221.619695 33.750625 
L 220.619695 33.789751 
L 219.619695 33.832425 
L 218.619695 33.903006 
L 217.619695 33.939397 
L 216.619695 33.9978 
L 215.619695 34.108753 
L 214.619695 34.179411 
L 213.619695 34.292351 
L 212.619695 34.338124 
L 211.619695 34.399407 
L 210.619695 34.447906 
L 209.619695 34.528729 
L 208.619695 34.647248 
L 207.619695 34.717458 
L 206.619695 34.800721 
L 205.619695 34.833863 
L 204.619695 34.8851 
L 203.619695 34.953498 
L 202.619695 35.019714 
L 201.619695 35.096631 
L 200.299443 35.123946 
" clip-path="url(#pe557afcb4b)" style="fill: none; stroke: #ff7f0e; stroke-opacity: 0.5; stroke-width: 0.2; stroke-linecap: square"/>
   <path d="M 256.619695 297.645429 
L 255.619695 297.613993 
L 254.619695 297.577053 
L 253.619695 297.479306 
L 252.619695 297.446785 
L 251.619695 297.37316 
L 250.619695 297.334594 
L 249.619695 297.299181 
L 248.619695 297.241541 
L 247.619695 297.171155 
L 246.619695 297.119191 
L 245.619695 297.060101 
L 244.619695 296.97178 
L 243.619695 296.925636 
L 242.619695 296.883225 
L 241.619695 296.852732 
L 240.619695 296.826687 
L 239.619695 296.805487 
L 238.619695 296.751186 
L 237.619695 296.723248 
L 236.619695 296.693524 
L 235.619695 296.66813 
L 234.619695 296.656929 
L 233.619695 296.646805 
L 232.619695 296.64701 
L 231.619695 296.65652 
L 230.619695 296.668173 
L 229.619695 296.699202 
L 228.619695 296.71037 
L 227.619695 296.740488 
L 226.619695 296.800265 
L 225.619695 296.837456 
L 224.619695 296.876552 
L 223.619695 296.918992 
L 222.619695 296.951757 
L 221.619695 297.019184 
L 220.619695 297.05831 
L 219.619695 297.100984 
L 218.619695 297.171565 
L 217.619695 297.207956 
L 216.619695 297.266359 
L 215.619695 297.377311 
L 214.619695 297.44797 
L 213.619695 297.560909 
L 212.619695 297.606682 
L 211.619695 297.667966 
L 210.619695 297.716465 
L 209.619695 297.797288 
L 208.619695 297.915806 
L 207.619695 297.986017 
L 206.619695 298.06928 
L 205.619695 298.102421 
L 204.619695 298.153659 
L 203.619695 298.222057 
L 202.619695 298.288272 
L 201.619695 298.36519 
L 200.299443 298.392505 
" clip-path="url(#pe557afcb4b)" style="fill: none; stroke: #ff7f0e; stroke-opacity: 0.5; stroke-width: 0.2; stroke-linecap: square"/>
   <path d="M 256.619695 217.587244 
L 255.619695 217.555808 
L 254.619695 217.518868 
L 253.619695 217.421121 
L 252.619695 217.388599 
L 251.619695 217.314975 
L 250.619695 217.276409 
L 249.619695 217.240996 
L 248.619695 217.183356 
L 247.619695 217.11297 
L 246.619695 217.061006 
L 245.619695 217.001916 
L 244.619695 216.913595 
L 243.619695 216.867451 
L 242.619695 216.82504 
L 241.619695 216.794547 
L 240.619695 216.768502 
L 239.619695 216.747302 
L 238.619695 216.693001 
L 237.619695 216.665063 
L 236.619695 216.635339 
L 235.619695 216.609945 
L 234.619695 216.598744 
L 233.619695 216.58862 
L 232.619695 216.588825 
L 231.619695 216.598334 
L 230.619695 216.609988 
L 229.619695 216.641017 
L 228.619695 216.652185 
L 227.619695 216.682303 
L 226.619695 216.74208 
L 225.619695 216.779271 
L 224.619695 216.818367 
L 223.619695 216.860807 
L 222.619695 216.893572 
L 221.619695 216.960998 
L 220.619695 217.000124 
L 219.619695 217.042799 
L 218.619695 217.11338 
L 217.619695 217.14977 
L 216.619695 217.208174 
L 215.619695 217.319126 
L 214.619695 217.389784 
L 213.619695 217.502724 
L 212.619695 217.548497 
L 211.619695 217.60978 
L 210.619695 217.65828 
L 209.619695 217.739102 
L 208.619695 217.857621 
L 207.619695 217.927832 
L 206.619695 218.011094 
L 205.619695 218.044236 
L 204.619695 218.095474 
L 203.619695 218.163872 
L 202.619695 218.230087 
L 201.619695 218.307004 
L 200.299443 218.33432 
" clip-path="url(#pe557afcb4b)" style="fill: none; stroke: #ff7f0e; stroke-opacity: 0.5; stroke-width: 0.2; stroke-linecap: square"/>
   <path d="M 256.619695 296.288629 
L 255.619695 296.257193 
L 254.619695 296.220253 
L 253.619695 296.122506 
L 252.619695 296.089985 
L 251.619695 296.01636 
L 250.619695 295.977794 
L 249.619695 295.942381 
L 248.619695 295.884741 
L 247.619695 295.814355 
L 246.619695 295.762391 
L 245.619695 295.703301 
L 244.619695 295.61498 
L 243.619695 295.568836 
L 242.619695 295.526425 
L 241.619695 295.495932 
L 240.619695 295.469887 
L 239.619695 295.448687 
L 238.619695 295.394386 
L 237.619695 295.366448 
L 236.619695 295.336724 
L 235.619695 295.31133 
L 234.619695 295.300129 
L 233.619695 295.290005 
L 232.619695 295.29021 
L 231.619695 295.299719 
L 230.619695 295.311373 
L 229.619695 295.342402 
L 228.619695 295.35357 
L 227.619695 295.383688 
L 226.619695 295.443465 
L 225.619695 295.480656 
L 224.619695 295.519752 
L 223.619695 295.562192 
L 222.619695 295.594957 
L 221.619695 295.662384 
L 220.619695 295.701509 
L 219.619695 295.744184 
L 218.619695 295.814765 
L 217.619695 295.851155 
L 216.619695 295.909559 
L 215.619695 296.020511 
L 214.619695 296.09117 
L 213.619695 296.204109 
L 212.619695 296.249882 
L 211.619695 296.311165 
L 210.619695 296.359665 
L 209.619695 296.440487 
L 208.619695 296.559006 
L 207.619695 296.629217 
L 206.619695 296.71248 
L 205.619695 296.745621 
L 204.619695 296.796859 
L 203.619695 296.865257 
L 202.619695 296.931472 
L 201.619695 297.008389 
L 200.299443 297.035705 
" clip-path="url(#pe557afcb4b)" style="fill: none; stroke: #ff7f0e; stroke-opacity: 0.5; stroke-width: 0.2; stroke-linecap: square"/>
   <path d="M 390.34593 288.236294 
L 391.34593 288.26773 
L 392.34593 288.30467 
L 393.34593 288.402417 
L 394.34593 288.434939 
L 395.34593 288.508563 
L 396.34593 288.547129 
L 397.34593 288.582542 
L 398.34593 288.640182 
L 399.34593 288.710568 
L 400.34593 288.762532 
L 401.34593 288.821622 
L 402.34593 288.909943 
L 403.34593 288.956087 
L 404.34593 288.998498 
L 405.34593 289.028991 
L 406.34593 289.055036 
L 407.34593 289.076236 
L 408.34593 289.130537 
L 409.34593 289.158475 
L 410.34593 289.188199 
L 411.34593 289.213593 
L 412.34593 289.224794 
L 413.34593 289.234918 
L 414.34593 289.234713 
L 415.34593 289.225204 
L 416.34593 289.21355 
L 417.34593 289.182521 
L 418.34593 289.171353 
L 419.34593 289.141235 
L 420.34593 289.081458 
L 421.34593 289.044267 
L 422.34593 289.005171 
L 423.34593 288.962731 
L 424.34593 288.929966 
L 425.34593 288.86254 
L 426.34593 288.823414 
L 427.34593 288.780739 
L 428.34593 288.710158 
L 429.34593 288.673768 
L 430.34593 288.615364 
L 431.34593 288.504412 
L 432.34593 288.433754 
L 433.34593 288.320814 
L 434.34593 288.275041 
L 435.34593 288.213758 
L 436.34593 288.165258 
L 437.34593 288.084436 
L 438.34593 287.965917 
L 439.34593 287.895706 
L 440.34593 287.812444 
L 441.34593 287.779302 
L 442.34593 287.728064 
L 443.34593 287.659666 
L 444.34593 287.593451 
L 445.34593 287.516534 
L 446.666182 287.489218 
" clip-path="url(#pe557afcb4b)" style="fill: none; stroke: #ff7f0e; stroke-opacity: 0.5; stroke-width: 0.2; stroke-linecap: square"/>
   <path d="M 390.34593 276.678728 
L 391.34593 276.710164 
L 392.34593 276.747104 
L 393.34593 276.844851 
L 394.34593 276.877373 
L 395.34593 276.950997 
L 396.34593 276.989563 
L 397.34593 277.024976 
L 398.34593 277.082616 
L 399.34593 277.153002 
L 400.34593 277.204966 
L 401.34593 277.264056 
L 402.34593 277.352377 
L 403.34593 277.398521 
L 404.34593 277.440932 
L 405.34593 277.471425 
L 406.34593 277.49747 
L 407.34593 277.51867 
L 408.34593 277.572971 
L 409.34593 277.600909 
L 410.34593 277.630633 
L 411.34593 277.656027 
L 412.34593 277.667228 
L 413.34593 277.677352 
L 414.34593 277.677148 
L 415.34593 277.667638 
L 416.34593 277.655984 
L 417.34593 277.624955 
L 418.34593 277.613787 
L 419.34593 277.583669 
L 420.34593 277.523892 
L 421.34593 277.486701 
L 422.34593 277.447605 
L 423.34593 277.405165 
L 424.34593 277.3724 
L 425.34593 277.304974 
L 426.34593 277.265848 
L 427.34593 277.223173 
L 428.34593 277.152593 
L 429.34593 277.116202 
L 430.34593 277.057798 
L 431.34593 276.946846 
L 432.34593 276.876188 
L 433.34593 276.763248 
L 434.34593 276.717475 
L 435.34593 276.656192 
L 436.34593 276.607692 
L 437.34593 276.52687 
L 438.34593 276.408351 
L 439.34593 276.33814 
L 440.34593 276.254878 
L 441.34593 276.221736 
L 442.34593 276.170499 
L 443.34593 276.1021 
L 444.34593 276.035885 
L 445.34593 275.958968 
L 446.666182 275.931652 
" clip-path="url(#pe557afcb4b)" style="fill: none; stroke: #ff7f0e; stroke-opacity: 0.5; stroke-width: 0.2; stroke-linecap: square"/>
   <path d="M 390.34593 25.43045 
L 391.34593 25.461886 
L 392.34593 25.498827 
L 393.34593 25.596573 
L 394.34593 25.629095 
L 395.34593 25.702719 
L 396.34593 25.741285 
L 397.34593 25.776698 
L 398.34593 25.834338 
L 399.34593 25.904724 
L 400.34593 25.956689 
L 401.34593 26.015778 
L 402.34593 26.104099 
L 403.34593 26.150244 
L 404.34593 26.192655 
L 405.34593 26.223147 
L 406.34593 26.249192 
L 407.34593 26.270392 
L 408.34593 26.324693 
L 409.34593 26.352631 
L 410.34593 26.382355 
L 411.34593 26.40775 
L 412.34593 26.41895 
L 413.34593 26.429074 
L 414.34593 26.42887 
L 415.34593 26.41936 
L 416.34593 26.407706 
L 417.34593 26.376677 
L 418.34593 26.365509 
L 419.34593 26.335392 
L 420.34593 26.275615 
L 421.34593 26.238423 
L 422.34593 26.199327 
L 423.34593 26.156887 
L 424.34593 26.124122 
L 425.34593 26.056696 
L 426.34593 26.01757 
L 427.34593 25.974895 
L 428.34593 25.904315 
L 429.34593 25.867924 
L 430.34593 25.809521 
L 431.34593 25.698568 
L 432.34593 25.62791 
L 433.34593 25.51497 
L 434.34593 25.469197 
L 435.34593 25.407914 
L 436.34593 25.359414 
L 437.34593 25.278592 
L 438.34593 25.160073 
L 439.34593 25.089862 
L 440.34593 25.0066 
L 441.34593 24.973458 
L 442.34593 24.922221 
L 443.34593 24.853822 
L 444.34593 24.787607 
L 445.34593 24.71069 
L 446.666182 24.683374 
" clip-path="url(#pe557afcb4b)" style="fill: none; stroke: #ff7f0e; stroke-opacity: 0.5; stroke-width: 0.2; stroke-linecap: square"/>
   <path d="M 390.34593 272.535469 
L 391.34593 272.566905 
L 392.34593 272.603846 
L 393.34593 272.701592 
L 394.34593 272.734114 
L 395.34593 272.807739 
L 396.34593 272.846304 
L 397.34593 272.881717 
L 398.34593 272.939357 
L 399.34593 273.009743 
L 400.34593 273.061708 
L 401.34593 273.120797 
L 402.34593 273.209118 
L 403.34593 273.255263 
L 404.34593 273.297674 
L 405.34593 273.328166 
L 406.34593 273.354211 
L 407.34593 273.375411 
L 408.34593 273.429712 
L 409.34593 273.45765 
L 410.34593 273.487374 
L 411.34593 273.512769 
L 412.34593 273.523969 
L 413.34593 273.534093 
L 414.34593 273.533889 
L 415.34593 273.524379 
L 416.34593 273.512725 
L 417.34593 273.481696 
L 418.34593 273.470528 
L 419.34593 273.440411 
L 420.34593 273.380634 
L 421.34593 273.343442 
L 422.34593 273.304346 
L 423.34593 273.261906 
L 424.34593 273.229141 
L 425.34593 273.161715 
L 426.34593 273.122589 
L 427.34593 273.079914 
L 428.34593 273.009334 
L 429.34593 272.972943 
L 430.34593 272.91454 
L 431.34593 272.803587 
L 432.34593 272.732929 
L 433.34593 272.619989 
L 434.34593 272.574216 
L 435.34593 272.512933 
L 436.34593 272.464434 
L 437.34593 272.383611 
L 438.34593 272.265092 
L 439.34593 272.194881 
L 440.34593 272.111619 
L 441.34593 272.078477 
L 442.34593 272.02724 
L 443.34593 271.958841 
L 444.34593 271.892626 
L 445.34593 271.815709 
L 446.666182 271.788393 
" clip-path="url(#pe557afcb4b)" style="fill: none; stroke: #ff7f0e; stroke-opacity: 0.5; stroke-width: 0.2; stroke-linecap: square"/>
   <path d="M 390.34593 26.088562 
L 391.34593 26.119998 
L 392.34593 26.156939 
L 393.34593 26.254685 
L 394.34593 26.287207 
L 395.34593 26.360832 
L 396.34593 26.399397 
L 397.34593 26.43481 
L 398.34593 26.49245 
L 399.34593 26.562837 
L 400.34593 26.614801 
L 401.34593 26.673891 
L 402.34593 26.762211 
L 403.34593 26.808356 
L 404.34593 26.850767 
L 405.34593 26.881259 
L 406.34593 26.907304 
L 407.34593 26.928504 
L 408.34593 26.982806 
L 409.34593 27.010743 
L 410.34593 27.040467 
L 411.34593 27.065862 
L 412.34593 27.077062 
L 413.34593 27.087186 
L 414.34593 27.086982 
L 415.34593 27.077472 
L 416.34593 27.065818 
L 417.34593 27.034789 
L 418.34593 27.023621 
L 419.34593 26.993504 
L 420.34593 26.933727 
L 421.34593 26.896535 
L 422.34593 26.857439 
L 423.34593 26.814999 
L 424.34593 26.782234 
L 425.34593 26.714808 
L 426.34593 26.675682 
L 427.34593 26.633008 
L 428.34593 26.562427 
L 429.34593 26.526036 
L 430.34593 26.467633 
L 431.34593 26.35668 
L 432.34593 26.286022 
L 433.34593 26.173082 
L 434.34593 26.127309 
L 435.34593 26.066026 
L 436.34593 26.017527 
L 437.34593 25.936704 
L 438.34593 25.818185 
L 439.34593 25.747974 
L 440.34593 25.664712 
L 441.34593 25.63157 
L 442.34593 25.580333 
L 443.34593 25.511935 
L 444.34593 25.445719 
L 445.34593 25.368802 
L 446.666182 25.341487 
" clip-path="url(#pe557afcb4b)" style="fill: none; stroke: #ff7f0e; stroke-opacity: 0.5; stroke-width: 0.2; stroke-linecap: square"/>
   <path d="M 390.34593 196.94628 
L 391.34593 196.977716 
L 392.34593 197.014656 
L 393.34593 197.112403 
L 394.34593 197.144924 
L 395.34593 197.218549 
L 396.34593 197.257115 
L 397.34593 197.292528 
L 398.34593 197.350168 
L 399.34593 197.420554 
L 400.34593 197.472518 
L 401.34593 197.531608 
L 402.34593 197.619929 
L 403.34593 197.666073 
L 404.34593 197.708484 
L 405.34593 197.738977 
L 406.34593 197.765022 
L 407.34593 197.786222 
L 408.34593 197.840523 
L 409.34593 197.868461 
L 410.34593 197.898185 
L 411.34593 197.923579 
L 412.34593 197.93478 
L 413.34593 197.944904 
L 414.34593 197.944699 
L 415.34593 197.93519 
L 416.34593 197.923536 
L 417.34593 197.892507 
L 418.34593 197.881339 
L 419.34593 197.851221 
L 420.34593 197.791444 
L 421.34593 197.754253 
L 422.34593 197.715157 
L 423.34593 197.672717 
L 424.34593 197.639952 
L 425.34593 197.572525 
L 426.34593 197.5334 
L 427.34593 197.490725 
L 428.34593 197.420144 
L 429.34593 197.383754 
L 430.34593 197.32535 
L 431.34593 197.214398 
L 432.34593 197.143739 
L 433.34593 197.0308 
L 434.34593 196.985027 
L 435.34593 196.923744 
L 436.34593 196.875244 
L 437.34593 196.794422 
L 438.34593 196.675903 
L 439.34593 196.605692 
L 440.34593 196.522429 
L 441.34593 196.489288 
L 442.34593 196.43805 
L 443.34593 196.369652 
L 444.34593 196.303437 
L 445.34593 196.22652 
L 446.666182 196.199204 
" clip-path="url(#pe557afcb4b)" style="fill: none; stroke: #ff7f0e; stroke-opacity: 0.5; stroke-width: 0.2; stroke-linecap: square"/>
   <path d="M 390.34593 26.02971 
L 391.34593 26.061146 
L 392.34593 26.098086 
L 393.34593 26.195833 
L 394.34593 26.228354 
L 395.34593 26.301979 
L 396.34593 26.340545 
L 397.34593 26.375958 
L 398.34593 26.433598 
L 399.34593 26.503984 
L 400.34593 26.555948 
L 401.34593 26.615038 
L 402.34593 26.703359 
L 403.34593 26.749503 
L 404.34593 26.791914 
L 405.34593 26.822407 
L 406.34593 26.848452 
L 407.34593 26.869652 
L 408.34593 26.923953 
L 409.34593 26.951891 
L 410.34593 26.981615 
L 411.34593 27.007009 
L 412.34593 27.01821 
L 413.34593 27.028334 
L 414.34593 27.028129 
L 415.34593 27.018619 
L 416.34593 27.006966 
L 417.34593 26.975937 
L 418.34593 26.964769 
L 419.34593 26.934651 
L 420.34593 26.874874 
L 421.34593 26.837683 
L 422.34593 26.798587 
L 423.34593 26.756147 
L 424.34593 26.723382 
L 425.34593 26.655955 
L 426.34593 26.616829 
L 427.34593 26.574155 
L 428.34593 26.503574 
L 429.34593 26.467183 
L 430.34593 26.40878 
L 431.34593 26.297828 
L 432.34593 26.227169 
L 433.34593 26.11423 
L 434.34593 26.068457 
L 435.34593 26.007173 
L 436.34593 25.958674 
L 437.34593 25.877851 
L 438.34593 25.759333 
L 439.34593 25.689122 
L 440.34593 25.605859 
L 441.34593 25.572718 
L 442.34593 25.52148 
L 443.34593 25.453082 
L 444.34593 25.386867 
L 445.34593 25.309949 
L 446.666182 25.282634 
" clip-path="url(#pe557afcb4b)" style="fill: none; stroke: #ff7f0e; stroke-opacity: 0.5; stroke-width: 0.2; stroke-linecap: square"/>
   <path d="M 390.34593 201.921627 
L 391.34593 201.953063 
L 392.34593 201.990003 
L 393.34593 202.08775 
L 394.34593 202.120272 
L 395.34593 202.193896 
L 396.34593 202.232462 
L 397.34593 202.267875 
L 398.34593 202.325515 
L 399.34593 202.395901 
L 400.34593 202.447865 
L 401.34593 202.506955 
L 402.34593 202.595276 
L 403.34593 202.64142 
L 404.34593 202.683831 
L 405.34593 202.714324 
L 406.34593 202.740369 
L 407.34593 202.761569 
L 408.34593 202.81587 
L 409.34593 202.843808 
L 410.34593 202.873532 
L 411.34593 202.898926 
L 412.34593 202.910127 
L 413.34593 202.920251 
L 414.34593 202.920046 
L 415.34593 202.910537 
L 416.34593 202.898883 
L 417.34593 202.867854 
L 418.34593 202.856686 
L 419.34593 202.826568 
L 420.34593 202.766791 
L 421.34593 202.7296 
L 422.34593 202.690504 
L 423.34593 202.648064 
L 424.34593 202.615299 
L 425.34593 202.547873 
L 426.34593 202.508747 
L 427.34593 202.466072 
L 428.34593 202.395491 
L 429.34593 202.359101 
L 430.34593 202.300697 
L 431.34593 202.189745 
L 432.34593 202.119087 
L 433.34593 202.006147 
L 434.34593 201.960374 
L 435.34593 201.899091 
L 436.34593 201.850591 
L 437.34593 201.769769 
L 438.34593 201.65125 
L 439.34593 201.581039 
L 440.34593 201.497777 
L 441.34593 201.464635 
L 442.34593 201.413397 
L 443.34593 201.344999 
L 444.34593 201.278784 
L 445.34593 201.201867 
L 446.666182 201.174551 
" clip-path="url(#pe557afcb4b)" style="fill: none; stroke: #ff7f0e; stroke-opacity: 0.5; stroke-width: 0.2; stroke-linecap: square"/>
   <path d="M 390.34593 212.63724 
L 391.34593 212.668676 
L 392.34593 212.705617 
L 393.34593 212.803363 
L 394.34593 212.835885 
L 395.34593 212.90951 
L 396.34593 212.948075 
L 397.34593 212.983488 
L 398.34593 213.041128 
L 399.34593 213.111515 
L 400.34593 213.163479 
L 401.34593 213.222569 
L 402.34593 213.31089 
L 403.34593 213.357034 
L 404.34593 213.399445 
L 405.34593 213.429937 
L 406.34593 213.455982 
L 407.34593 213.477182 
L 408.34593 213.531484 
L 409.34593 213.559421 
L 410.34593 213.589145 
L 411.34593 213.61454 
L 412.34593 213.62574 
L 413.34593 213.635864 
L 414.34593 213.63566 
L 415.34593 213.62615 
L 416.34593 213.614496 
L 417.34593 213.583467 
L 418.34593 213.572299 
L 419.34593 213.542182 
L 420.34593 213.482405 
L 421.34593 213.445213 
L 422.34593 213.406117 
L 423.34593 213.363678 
L 424.34593 213.330912 
L 425.34593 213.263486 
L 426.34593 213.22436 
L 427.34593 213.181686 
L 428.34593 213.111105 
L 429.34593 213.074714 
L 430.34593 213.016311 
L 431.34593 212.905358 
L 432.34593 212.8347 
L 433.34593 212.72176 
L 434.34593 212.675987 
L 435.34593 212.614704 
L 436.34593 212.566205 
L 437.34593 212.485382 
L 438.34593 212.366863 
L 439.34593 212.296652 
L 440.34593 212.21339 
L 441.34593 212.180248 
L 442.34593 212.129011 
L 443.34593 212.060613 
L 444.34593 211.994397 
L 445.34593 211.91748 
L 446.666182 211.890165 
" clip-path="url(#pe557afcb4b)" style="fill: none; stroke: #ff7f0e; stroke-opacity: 0.5; stroke-width: 0.2; stroke-linecap: square"/>
   <path d="M 390.34593 215.051803 
L 391.34593 215.083239 
L 392.34593 215.12018 
L 393.34593 215.217926 
L 394.34593 215.250448 
L 395.34593 215.324072 
L 396.34593 215.362638 
L 397.34593 215.398051 
L 398.34593 215.455691 
L 399.34593 215.526077 
L 400.34593 215.578041 
L 401.34593 215.637131 
L 402.34593 215.725452 
L 403.34593 215.771596 
L 404.34593 215.814007 
L 405.34593 215.8445 
L 406.34593 215.870545 
L 407.34593 215.891745 
L 408.34593 215.946046 
L 409.34593 215.973984 
L 410.34593 216.003708 
L 411.34593 216.029103 
L 412.34593 216.040303 
L 413.34593 216.050427 
L 414.34593 216.050223 
L 415.34593 216.040713 
L 416.34593 216.029059 
L 417.34593 215.99803 
L 418.34593 215.986862 
L 419.34593 215.956744 
L 420.34593 215.896967 
L 421.34593 215.859776 
L 422.34593 215.82068 
L 423.34593 215.77824 
L 424.34593 215.745475 
L 425.34593 215.678049 
L 426.34593 215.638923 
L 427.34593 215.596248 
L 428.34593 215.525668 
L 429.34593 215.489277 
L 430.34593 215.430874 
L 431.34593 215.319921 
L 432.34593 215.249263 
L 433.34593 215.136323 
L 434.34593 215.09055 
L 435.34593 215.029267 
L 436.34593 214.980767 
L 437.34593 214.899945 
L 438.34593 214.781426 
L 439.34593 214.711215 
L 440.34593 214.627953 
L 441.34593 214.594811 
L 442.34593 214.543574 
L 443.34593 214.475175 
L 444.34593 214.40896 
L 445.34593 214.332043 
L 446.666182 214.304727 
" clip-path="url(#pe557afcb4b)" style="fill: none; stroke: #ff7f0e; stroke-opacity: 0.5; stroke-width: 0.2; stroke-linecap: square"/>
   <path d="M 446.666182 139.422208 
L 445.666182 139.390772 
L 444.666182 139.353831 
L 443.666182 139.256085 
L 442.666182 139.223563 
L 441.666182 139.149938 
L 440.666182 139.111373 
L 439.666182 139.07596 
L 438.666182 139.01832 
L 437.666182 138.947934 
L 436.666182 138.895969 
L 435.666182 138.83688 
L 434.666182 138.748559 
L 433.666182 138.702414 
L 432.666182 138.660003 
L 431.666182 138.629511 
L 430.666182 138.603466 
L 429.666182 138.582266 
L 428.666182 138.527965 
L 427.666182 138.500027 
L 426.666182 138.470303 
L 425.666182 138.444908 
L 424.666182 138.433708 
L 423.666182 138.423584 
L 422.666182 138.423788 
L 421.666182 138.433298 
L 420.666182 138.444952 
L 419.666182 138.475981 
L 418.666182 138.487149 
L 417.666182 138.517266 
L 416.666182 138.577043 
L 415.666182 138.614235 
L 414.666182 138.653331 
L 413.666182 138.695771 
L 412.666182 138.728536 
L 411.666182 138.795962 
L 410.666182 138.835088 
L 409.666182 138.877763 
L 408.666182 138.948343 
L 407.666182 138.984734 
L 406.666182 139.043137 
L 405.666182 139.15409 
L 404.666182 139.224748 
L 403.666182 139.337688 
L 402.666182 139.383461 
L 401.666182 139.444744 
L 400.666182 139.493243 
L 399.666182 139.574066 
L 398.666182 139.692585 
L 397.666182 139.762796 
L 396.666182 139.846058 
L 395.666182 139.8792 
L 394.666182 139.930437 
L 393.666182 139.998836 
L 392.666182 140.065051 
L 391.666182 140.141968 
L 390.34593 140.169284 
" clip-path="url(#pe557afcb4b)" style="fill: none; stroke: #2ca02c; stroke-opacity: 0.5; stroke-width: 0.2; stroke-linecap: square"/>
   <path d="M 446.666182 199.115498 
L 445.666182 199.084061 
L 444.666182 199.047121 
L 443.666182 198.949374 
L 442.666182 198.916853 
L 441.666182 198.843228 
L 440.666182 198.804662 
L 439.666182 198.769249 
L 438.666182 198.711609 
L 437.666182 198.641223 
L 436.666182 198.589259 
L 435.666182 198.530169 
L 434.666182 198.441848 
L 433.666182 198.395704 
L 432.666182 198.353293 
L 431.666182 198.3228 
L 430.666182 198.296755 
L 429.666182 198.275555 
L 428.666182 198.221254 
L 427.666182 198.193317 
L 426.666182 198.163593 
L 425.666182 198.138198 
L 424.666182 198.126997 
L 423.666182 198.116873 
L 422.666182 198.117078 
L 421.666182 198.126588 
L 420.666182 198.138241 
L 419.666182 198.16927 
L 418.666182 198.180438 
L 417.666182 198.210556 
L 416.666182 198.270333 
L 415.666182 198.307524 
L 414.666182 198.34662 
L 413.666182 198.38906 
L 412.666182 198.421825 
L 411.666182 198.489252 
L 410.666182 198.528378 
L 409.666182 198.571052 
L 408.666182 198.641633 
L 407.666182 198.678024 
L 406.666182 198.736427 
L 405.666182 198.847379 
L 404.666182 198.918038 
L 403.666182 199.030978 
L 402.666182 199.07675 
L 401.666182 199.138034 
L 400.666182 199.186533 
L 399.666182 199.267356 
L 398.666182 199.385875 
L 397.666182 199.456085 
L 396.666182 199.539348 
L 395.666182 199.572489 
L 394.666182 199.623727 
L 393.666182 199.692125 
L 392.666182 199.758341 
L 391.666182 199.835258 
L 390.34593 199.862573 
" clip-path="url(#pe557afcb4b)" style="fill: none; stroke: #2ca02c; stroke-opacity: 0.5; stroke-width: 0.2; stroke-linecap: square"/>
   <path d="M 446.666182 278.386467 
L 445.666182 278.35503 
L 444.666182 278.31809 
L 443.666182 278.220343 
L 442.666182 278.187822 
L 441.666182 278.114197 
L 440.666182 278.075631 
L 439.666182 278.040218 
L 438.666182 277.982578 
L 437.666182 277.912192 
L 436.666182 277.860228 
L 435.666182 277.801138 
L 434.666182 277.712817 
L 433.666182 277.666673 
L 432.666182 277.624262 
L 431.666182 277.593769 
L 430.666182 277.567724 
L 429.666182 277.546524 
L 428.666182 277.492223 
L 427.666182 277.464286 
L 426.666182 277.434562 
L 425.666182 277.409167 
L 424.666182 277.397966 
L 423.666182 277.387842 
L 422.666182 277.388047 
L 421.666182 277.397557 
L 420.666182 277.40921 
L 419.666182 277.440239 
L 418.666182 277.451407 
L 417.666182 277.481525 
L 416.666182 277.541302 
L 415.666182 277.578493 
L 414.666182 277.617589 
L 413.666182 277.660029 
L 412.666182 277.692794 
L 411.666182 277.760221 
L 410.666182 277.799347 
L 409.666182 277.842021 
L 408.666182 277.912602 
L 407.666182 277.948993 
L 406.666182 278.007396 
L 405.666182 278.118348 
L 404.666182 278.189007 
L 403.666182 278.301947 
L 402.666182 278.347719 
L 401.666182 278.409003 
L 400.666182 278.457502 
L 399.666182 278.538325 
L 398.666182 278.656844 
L 397.666182 278.727054 
L 396.666182 278.810317 
L 395.666182 278.843458 
L 394.666182 278.894696 
L 393.666182 278.963094 
L 392.666182 279.02931 
L 391.666182 279.106227 
L 390.34593 279.133542 
" clip-path="url(#pe557afcb4b)" style="fill: none; stroke: #2ca02c; stroke-opacity: 0.5; stroke-width: 0.2; stroke-linecap: square"/>
   <path d="M 446.666182 31.868153 
L 445.666182 31.836717 
L 444.666182 31.799776 
L 443.666182 31.70203 
L 442.666182 31.669508 
L 441.666182 31.595883 
L 440.666182 31.557318 
L 439.666182 31.521905 
L 438.666182 31.464265 
L 437.666182 31.393878 
L 436.666182 31.341914 
L 435.666182 31.282824 
L 434.666182 31.194504 
L 433.666182 31.148359 
L 432.666182 31.105948 
L 431.666182 31.075456 
L 430.666182 31.049411 
L 429.666182 31.028211 
L 428.666182 30.973909 
L 427.666182 30.945972 
L 426.666182 30.916248 
L 425.666182 30.890853 
L 424.666182 30.879653 
L 423.666182 30.869529 
L 422.666182 30.869733 
L 421.666182 30.879243 
L 420.666182 30.890897 
L 419.666182 30.921926 
L 418.666182 30.933094 
L 417.666182 30.963211 
L 416.666182 31.022988 
L 415.666182 31.06018 
L 414.666182 31.099276 
L 413.666182 31.141715 
L 412.666182 31.174481 
L 411.666182 31.241907 
L 410.666182 31.281033 
L 409.666182 31.323707 
L 408.666182 31.394288 
L 407.666182 31.430679 
L 406.666182 31.489082 
L 405.666182 31.600035 
L 404.666182 31.670693 
L 403.666182 31.783633 
L 402.666182 31.829406 
L 401.666182 31.890689 
L 400.666182 31.939188 
L 399.666182 32.020011 
L 398.666182 32.13853 
L 397.666182 32.208741 
L 396.666182 32.292003 
L 395.666182 32.325145 
L 394.666182 32.376382 
L 393.666182 32.44478 
L 392.666182 32.510996 
L 391.666182 32.587913 
L 390.34593 32.615228 
" clip-path="url(#pe557afcb4b)" style="fill: none; stroke: #2ca02c; stroke-opacity: 0.5; stroke-width: 0.2; stroke-linecap: square"/>
   <path d="M 446.666182 187.421013 
L 445.666182 187.389577 
L 444.666182 187.352637 
L 443.666182 187.25489 
L 442.666182 187.222368 
L 441.666182 187.148744 
L 440.666182 187.110178 
L 439.666182 187.074765 
L 438.666182 187.017125 
L 437.666182 186.946739 
L 436.666182 186.894775 
L 435.666182 186.835685 
L 434.666182 186.747364 
L 433.666182 186.70122 
L 432.666182 186.658809 
L 431.666182 186.628316 
L 430.666182 186.602271 
L 429.666182 186.581071 
L 428.666182 186.52677 
L 427.666182 186.498832 
L 426.666182 186.469108 
L 425.666182 186.443713 
L 424.666182 186.432513 
L 423.666182 186.422389 
L 422.666182 186.422593 
L 421.666182 186.432103 
L 420.666182 186.443757 
L 419.666182 186.474786 
L 418.666182 186.485954 
L 417.666182 186.516072 
L 416.666182 186.575849 
L 415.666182 186.61304 
L 414.666182 186.652136 
L 413.666182 186.694576 
L 412.666182 186.727341 
L 411.666182 186.794767 
L 410.666182 186.833893 
L 409.666182 186.876568 
L 408.666182 186.947148 
L 407.666182 186.983539 
L 406.666182 187.041942 
L 405.666182 187.152895 
L 404.666182 187.223553 
L 403.666182 187.336493 
L 402.666182 187.382266 
L 401.666182 187.443549 
L 400.666182 187.492049 
L 399.666182 187.572871 
L 398.666182 187.69139 
L 397.666182 187.761601 
L 396.666182 187.844863 
L 395.666182 187.878005 
L 394.666182 187.929242 
L 393.666182 187.997641 
L 392.666182 188.063856 
L 391.666182 188.140773 
L 390.34593 188.168089 
" clip-path="url(#pe557afcb4b)" style="fill: none; stroke: #2ca02c; stroke-opacity: 0.5; stroke-width: 0.2; stroke-linecap: square"/>
   <path d="M 446.666182 155.396707 
L 445.666182 155.365271 
L 444.666182 155.32833 
L 443.666182 155.230584 
L 442.666182 155.198062 
L 441.666182 155.124437 
L 440.666182 155.085872 
L 439.666182 155.050459 
L 438.666182 154.992819 
L 437.666182 154.922432 
L 436.666182 154.870468 
L 435.666182 154.811378 
L 434.666182 154.723058 
L 433.666182 154.676913 
L 432.666182 154.634502 
L 431.666182 154.60401 
L 430.666182 154.577965 
L 429.666182 154.556765 
L 428.666182 154.502463 
L 427.666182 154.474526 
L 426.666182 154.444802 
L 425.666182 154.419407 
L 424.666182 154.408207 
L 423.666182 154.398083 
L 422.666182 154.398287 
L 421.666182 154.407797 
L 420.666182 154.419451 
L 419.666182 154.45048 
L 418.666182 154.461648 
L 417.666182 154.491765 
L 416.666182 154.551542 
L 415.666182 154.588734 
L 414.666182 154.62783 
L 413.666182 154.670269 
L 412.666182 154.703035 
L 411.666182 154.770461 
L 410.666182 154.809587 
L 409.666182 154.852261 
L 408.666182 154.922842 
L 407.666182 154.959233 
L 406.666182 155.017636 
L 405.666182 155.128589 
L 404.666182 155.199247 
L 403.666182 155.312187 
L 402.666182 155.35796 
L 401.666182 155.419243 
L 400.666182 155.467742 
L 399.666182 155.548565 
L 398.666182 155.667084 
L 397.666182 155.737295 
L 396.666182 155.820557 
L 395.666182 155.853699 
L 394.666182 155.904936 
L 393.666182 155.973334 
L 392.666182 156.03955 
L 391.666182 156.116467 
L 390.34593 156.143782 
" clip-path="url(#pe557afcb4b)" style="fill: none; stroke: #2ca02c; stroke-opacity: 0.5; stroke-width: 0.2; stroke-linecap: square"/>
   <path d="M 446.666182 163.317918 
L 445.666182 163.286481 
L 444.666182 163.249541 
L 443.666182 163.151794 
L 442.666182 163.119273 
L 441.666182 163.045648 
L 440.666182 163.007083 
L 439.666182 162.971669 
L 438.666182 162.914029 
L 437.666182 162.843643 
L 436.666182 162.791679 
L 435.666182 162.732589 
L 434.666182 162.644268 
L 433.666182 162.598124 
L 432.666182 162.555713 
L 431.666182 162.52522 
L 430.666182 162.499175 
L 429.666182 162.477975 
L 428.666182 162.423674 
L 427.666182 162.395737 
L 426.666182 162.366013 
L 425.666182 162.340618 
L 424.666182 162.329418 
L 423.666182 162.319294 
L 422.666182 162.319498 
L 421.666182 162.329008 
L 420.666182 162.340661 
L 419.666182 162.371691 
L 418.666182 162.382859 
L 417.666182 162.412976 
L 416.666182 162.472753 
L 415.666182 162.509945 
L 414.666182 162.549041 
L 413.666182 162.59148 
L 412.666182 162.624245 
L 411.666182 162.691672 
L 410.666182 162.730798 
L 409.666182 162.773472 
L 408.666182 162.844053 
L 407.666182 162.880444 
L 406.666182 162.938847 
L 405.666182 163.0498 
L 404.666182 163.120458 
L 403.666182 163.233398 
L 402.666182 163.279171 
L 401.666182 163.340454 
L 400.666182 163.388953 
L 399.666182 163.469776 
L 398.666182 163.588295 
L 397.666182 163.658505 
L 396.666182 163.741768 
L 395.666182 163.77491 
L 394.666182 163.826147 
L 393.666182 163.894545 
L 392.666182 163.960761 
L 391.666182 164.037678 
L 390.34593 164.064993 
" clip-path="url(#pe557afcb4b)" style="fill: none; stroke: #2ca02c; stroke-opacity: 0.5; stroke-width: 0.2; stroke-linecap: square"/>
   <path d="M 446.666182 135.391894 
L 445.666182 135.360457 
L 444.666182 135.323517 
L 443.666182 135.22577 
L 442.666182 135.193249 
L 441.666182 135.119624 
L 440.666182 135.081058 
L 439.666182 135.045645 
L 438.666182 134.988005 
L 437.666182 134.917619 
L 436.666182 134.865655 
L 435.666182 134.806565 
L 434.666182 134.718244 
L 433.666182 134.6721 
L 432.666182 134.629689 
L 431.666182 134.599196 
L 430.666182 134.573151 
L 429.666182 134.551951 
L 428.666182 134.49765 
L 427.666182 134.469713 
L 426.666182 134.439989 
L 425.666182 134.414594 
L 424.666182 134.403393 
L 423.666182 134.393269 
L 422.666182 134.393474 
L 421.666182 134.402984 
L 420.666182 134.414637 
L 419.666182 134.445667 
L 418.666182 134.456834 
L 417.666182 134.486952 
L 416.666182 134.546729 
L 415.666182 134.58392 
L 414.666182 134.623017 
L 413.666182 134.665456 
L 412.666182 134.698221 
L 411.666182 134.765648 
L 410.666182 134.804774 
L 409.666182 134.847448 
L 408.666182 134.918029 
L 407.666182 134.95442 
L 406.666182 135.012823 
L 405.666182 135.123775 
L 404.666182 135.194434 
L 403.666182 135.307374 
L 402.666182 135.353146 
L 401.666182 135.41443 
L 400.666182 135.462929 
L 399.666182 135.543752 
L 398.666182 135.662271 
L 397.666182 135.732481 
L 396.666182 135.815744 
L 395.666182 135.848886 
L 394.666182 135.900123 
L 393.666182 135.968521 
L 392.666182 136.034737 
L 391.666182 136.111654 
L 390.34593 136.138969 
" clip-path="url(#pe557afcb4b)" style="fill: none; stroke: #2ca02c; stroke-opacity: 0.5; stroke-width: 0.2; stroke-linecap: square"/>
   <path d="M 446.666182 67.412152 
L 445.666182 67.380716 
L 444.666182 67.343775 
L 443.666182 67.246029 
L 442.666182 67.213507 
L 441.666182 67.139882 
L 440.666182 67.101317 
L 439.666182 67.065904 
L 438.666182 67.008264 
L 437.666182 66.937877 
L 436.666182 66.885913 
L 435.666182 66.826824 
L 434.666182 66.738503 
L 433.666182 66.692358 
L 432.666182 66.649947 
L 431.666182 66.619455 
L 430.666182 66.59341 
L 429.666182 66.57221 
L 428.666182 66.517909 
L 427.666182 66.489971 
L 426.666182 66.460247 
L 425.666182 66.434852 
L 424.666182 66.423652 
L 423.666182 66.413528 
L 422.666182 66.413732 
L 421.666182 66.423242 
L 420.666182 66.434896 
L 419.666182 66.465925 
L 418.666182 66.477093 
L 417.666182 66.50721 
L 416.666182 66.566987 
L 415.666182 66.604179 
L 414.666182 66.643275 
L 413.666182 66.685715 
L 412.666182 66.71848 
L 411.666182 66.785906 
L 410.666182 66.825032 
L 409.666182 66.867707 
L 408.666182 66.938287 
L 407.666182 66.974678 
L 406.666182 67.033081 
L 405.666182 67.144034 
L 404.666182 67.214692 
L 403.666182 67.327632 
L 402.666182 67.373405 
L 401.666182 67.434688 
L 400.666182 67.483187 
L 399.666182 67.56401 
L 398.666182 67.682529 
L 397.666182 67.75274 
L 396.666182 67.836002 
L 395.666182 67.869144 
L 394.666182 67.920381 
L 393.666182 67.988779 
L 392.666182 68.054995 
L 391.666182 68.131912 
L 390.34593 68.159227 
" clip-path="url(#pe557afcb4b)" style="fill: none; stroke: #2ca02c; stroke-opacity: 0.5; stroke-width: 0.2; stroke-linecap: square"/>
   <path d="M 446.666182 262.140929 
L 445.666182 262.109493 
L 444.666182 262.072552 
L 443.666182 261.974806 
L 442.666182 261.942284 
L 441.666182 261.86866 
L 440.666182 261.830094 
L 439.666182 261.794681 
L 438.666182 261.737041 
L 437.666182 261.666655 
L 436.666182 261.614691 
L 435.666182 261.555601 
L 434.666182 261.46728 
L 433.666182 261.421136 
L 432.666182 261.378725 
L 431.666182 261.348232 
L 430.666182 261.322187 
L 429.666182 261.300987 
L 428.666182 261.246686 
L 427.666182 261.218748 
L 426.666182 261.189024 
L 425.666182 261.163629 
L 424.666182 261.152429 
L 423.666182 261.142305 
L 422.666182 261.142509 
L 421.666182 261.152019 
L 420.666182 261.163673 
L 419.666182 261.194702 
L 418.666182 261.20587 
L 417.666182 261.235988 
L 416.666182 261.295765 
L 415.666182 261.332956 
L 414.666182 261.372052 
L 413.666182 261.414492 
L 412.666182 261.447257 
L 411.666182 261.514683 
L 410.666182 261.553809 
L 409.666182 261.596484 
L 408.666182 261.667064 
L 407.666182 261.703455 
L 406.666182 261.761858 
L 405.666182 261.872811 
L 404.666182 261.943469 
L 403.666182 262.056409 
L 402.666182 262.102182 
L 401.666182 262.163465 
L 400.666182 262.211965 
L 399.666182 262.292787 
L 398.666182 262.411306 
L 397.666182 262.481517 
L 396.666182 262.564779 
L 395.666182 262.597921 
L 394.666182 262.649158 
L 393.666182 262.717557 
L 392.666182 262.783772 
L 391.666182 262.860689 
L 390.34593 262.888005 
" clip-path="url(#pe557afcb4b)" style="fill: none; stroke: #2ca02c; stroke-opacity: 0.5; stroke-width: 0.2; stroke-linecap: square"/>
   <g id="patch_3">
    <path d="M 72.103551 7.2 
L 72.103551 318.021875 
M 194.769099 7.2 
L 194.769099 318.021875 
" clip-path="url(#pe557afcb4b)" style="fill: none; stroke: #ffffff; stroke-width: 3; stroke-linejoin: miter"/>
    <path d="M 72.103551 7.2 
L 72.103551 318.021875 
M 194.769099 7.2 
L 194.769099 318.021875 
" clip-path="url(#pe557afcb4b)" style="fill: none; stroke: #1f77b4; stroke-linejoin: miter"/>
    <g id="PolyCollection_1">
     <path d="M 194.769099 7.2 
L 72.103551 7.2 
L 72.103551 318.021875 
L 194.769099 318.021875 
L 194.769099 318.021875 
L 194.769099 7.2 
z
" clip-path="url(#pe557afcb4b)" style="fill: #1f77b4; fill-opacity: 0.5"/>
    </g>
    <g id="patch_4">
     <path d="M 262.150038 7.2 
L 262.150038 318.021875 
M 384.815587 7.2 
L 384.815587 318.021875 
" clip-path="url(#pe557afcb4b)" style="fill: none; stroke: #ffffff; stroke-width: 3; stroke-linejoin: miter"/>
     <path d="M 262.150038 7.2 
L 262.150038 318.021875 
M 384.815587 7.2 
L 384.815587 318.021875 
" clip-path="url(#pe557afcb4b)" style="fill: none; stroke: #ff7f0e; stroke-linejoin: miter"/>
     <g id="PolyCollection_2">
      <path d="M 384.815587 7.2 
L 262.150038 7.2 
L 262.150038 318.021875 
L 384.815587 318.021875 
L 384.815587 318.021875 
L 384.815587 7.2 
z
" clip-path="url(#pe557afcb4b)" style="fill: #ff7f0e; fill-opacity: 0.5"/>
     </g>
     <g id="patch_5">
      <path d="M 452.196526 7.2 
L 452.196526 318.021875 
M 574.862074 7.2 
L 574.862074 318.021875 
" clip-path="url(#pe557afcb4b)" style="fill: none; stroke: #ffffff; stroke-width: 3; stroke-linejoin: miter"/>
      <path d="M 452.196526 7.2 
L 452.196526 318.021875 
M 574.862074 7.2 
L 574.862074 318.021875 
" clip-path="url(#pe557afcb4b)" style="fill: none; stroke: #2ca02c; stroke-linejoin: miter"/>
      <g id="PolyCollection_3">
       <path d="M 574.862074 7.2 
L 452.196526 7.2 
L 452.196526 318.021875 
L 574.862074 318.021875 
L 574.862074 318.021875 
L 574.862074 7.2 
z
" clip-path="url(#pe557afcb4b)" style="fill: #2ca02c; fill-opacity: 0.5"/>
      </g>
      <g id="matplotlib.axis_1">
       <g id="xtick_1">
        <g id="line2d_1"/>
        <g id="text_1">
         <!-- d0 -->
         <g transform="translate(127.080856 329.120312) scale(0.1 -0.1)">
          <defs>
           <path id="DejaVuSans-64" d="M 2906 2969 
L 2906 4863 
L 3481 4863 
L 3481 0 
L 2906 0 
L 2906 525 
Q 2725 213 2448 61 
Q 2172 -91 1784 -91 
Q 1150 -91 751 415 
Q 353 922 353 1747 
Q 353 2572 751 3078 
Q 1150 3584 1784 3584 
Q 2172 3584 2448 3432 
Q 2725 3281 2906 2969 
z
M 947 1747 
Q 947 1113 1208 752 
Q 1469 391 1925 391 
Q 2381 391 2643 752 
Q 2906 1113 2906 1747 
Q 2906 2381 2643 2742 
Q 2381 3103 1925 3103 
Q 1469 3103 1208 2742 
Q 947 2381 947 1747 
z
" transform="scale(0.015625)"/>
           <path id="DejaVuSans-30" d="M 2034 4250 
Q 1547 4250 1301 3770 
Q 1056 3291 1056 2328 
Q 1056 1369 1301 889 
Q 1547 409 2034 409 
Q 2525 409 2770 889 
Q 3016 1369 3016 2328 
Q 3016 3291 2770 3770 
Q 2525 4250 2034 4250 
z
M 2034 4750 
Q 2819 4750 3233 4129 
Q 3647 3509 3647 2328 
Q 3647 1150 3233 529 
Q 2819 -91 2034 -91 
Q 1250 -91 836 529 
Q 422 1150 422 2328 
Q 422 3509 836 4129 
Q 1250 4750 2034 4750 
z
" transform="scale(0.015625)"/>
          </defs>
          <use xlink:href="#DejaVuSans-64"/>
          <use xlink:href="#DejaVuSans-30" x="63.476562"/>
         </g>
        </g>
       </g>
       <g id="xtick_2">
        <g id="line2d_2"/>
        <g id="text_2">
         <!-- d1 -->
         <g transform="translate(317.127344 329.120312) scale(0.1 -0.1)">
          <defs>
           <path id="DejaVuSans-31" d="M 794 531 
L 1825 531 
L 1825 4091 
L 703 3866 
L 703 4441 
L 1819 4666 
L 2450 4666 
L 2450 531 
L 3481 531 
L 3481 0 
L 794 0 
L 794 531 
z
" transform="scale(0.015625)"/>
          </defs>
          <use xlink:href="#DejaVuSans-64"/>
          <use xlink:href="#DejaVuSans-31" x="63.476562"/>
         </g>
        </g>
       </g>
       <g id="xtick_3">
        <g id="line2d_3"/>
        <g id="text_3">
         <!-- d2 -->
         <g transform="translate(507.173831 329.120312) scale(0.1 -0.1)">
          <defs>
           <path id="DejaVuSans-32" d="M 1228 531 
L 3431 531 
L 3431 0 
L 469 0 
L 469 531 
Q 828 903 1448 1529 
Q 2069 2156 2228 2338 
Q 2531 2678 2651 2914 
Q 2772 3150 2772 3378 
Q 2772 3750 2511 3984 
Q 2250 4219 1831 4219 
Q 1534 4219 1204 4116 
Q 875 4013 500 3803 
L 500 4441 
Q 881 4594 1212 4672 
Q 1544 4750 1819 4750 
Q 2544 4750 2975 4387 
Q 3406 4025 3406 3419 
Q 3406 3131 3298 2873 
Q 3191 2616 2906 2266 
Q 2828 2175 2409 1742 
Q 1991 1309 1228 531 
z
" transform="scale(0.015625)"/>
          </defs>
          <use xlink:href="#DejaVuSans-64"/>
          <use xlink:href="#DejaVuSans-32" x="63.476562"/>
         </g>
        </g>
       </g>
      </g>
      <g id="matplotlib.axis_2">
       <g id="ytick_1">
        <g id="line2d_4">
         <defs>
          <path id="m1d98786f3f" d="M 0 0 
L -3.5 0 
" style="stroke: #000000; stroke-width: 0.8"/>
         </defs>
         <g>
          <use xlink:href="#m1d98786f3f" x="46.965625" y="318.021875" style="stroke: #000000; stroke-width: 0.8"/>
         </g>
        </g>
        <g id="text_4">
         <!-- 0 -->
         <g transform="translate(33.603125 321.821094) scale(0.1 -0.1)">
          <use xlink:href="#DejaVuSans-30"/>
         </g>
        </g>
       </g>
       <g id="ytick_2">
        <g id="line2d_5">
         <g>
          <use xlink:href="#m1d98786f3f" x="46.965625" y="263.009154" style="stroke: #000000; stroke-width: 0.8"/>
         </g>
        </g>
        <g id="text_5">
         <!-- 20 -->
         <g transform="translate(27.240625 266.808373) scale(0.1 -0.1)">
          <use xlink:href="#DejaVuSans-32"/>
          <use xlink:href="#DejaVuSans-30" x="63.623047"/>
         </g>
        </g>
       </g>
       <g id="ytick_3">
        <g id="line2d_6">
         <g>
          <use xlink:href="#m1d98786f3f" x="46.965625" y="207.996433" style="stroke: #000000; stroke-width: 0.8"/>
         </g>
        </g>
        <g id="text_6">
         <!-- 40 -->
         <g transform="translate(27.240625 211.795651) scale(0.1 -0.1)">
          <defs>
           <path id="DejaVuSans-34" d="M 2419 4116 
L 825 1625 
L 2419 1625 
L 2419 4116 
z
M 2253 4666 
L 3047 4666 
L 3047 1625 
L 3713 1625 
L 3713 1100 
L 3047 1100 
L 3047 0 
L 2419 0 
L 2419 1100 
L 313 1100 
L 313 1709 
L 2253 4666 
z
" transform="scale(0.015625)"/>
          </defs>
          <use xlink:href="#DejaVuSans-34"/>
          <use xlink:href="#DejaVuSans-30" x="63.623047"/>
         </g>
        </g>
       </g>
       <g id="ytick_4">
        <g id="line2d_7">
         <g>
          <use xlink:href="#m1d98786f3f" x="46.965625" y="152.983711" style="stroke: #000000; stroke-width: 0.8"/>
         </g>
        </g>
        <g id="text_7">
         <!-- 60 -->
         <g transform="translate(27.240625 156.78293) scale(0.1 -0.1)">
          <defs>
           <path id="DejaVuSans-36" d="M 2113 2584 
Q 1688 2584 1439 2293 
Q 1191 2003 1191 1497 
Q 1191 994 1439 701 
Q 1688 409 2113 409 
Q 2538 409 2786 701 
Q 3034 994 3034 1497 
Q 3034 2003 2786 2293 
Q 2538 2584 2113 2584 
z
M 3366 4563 
L 3366 3988 
Q 3128 4100 2886 4159 
Q 2644 4219 2406 4219 
Q 1781 4219 1451 3797 
Q 1122 3375 1075 2522 
Q 1259 2794 1537 2939 
Q 1816 3084 2150 3084 
Q 2853 3084 3261 2657 
Q 3669 2231 3669 1497 
Q 3669 778 3244 343 
Q 2819 -91 2113 -91 
Q 1303 -91 875 529 
Q 447 1150 447 2328 
Q 447 3434 972 4092 
Q 1497 4750 2381 4750 
Q 2619 4750 2861 4703 
Q 3103 4656 3366 4563 
z
" transform="scale(0.015625)"/>
          </defs>
          <use xlink:href="#DejaVuSans-36"/>
          <use xlink:href="#DejaVuSans-30" x="63.623047"/>
         </g>
        </g>
       </g>
       <g id="ytick_5">
        <g id="line2d_8">
         <g>
          <use xlink:href="#m1d98786f3f" x="46.965625" y="97.97099" style="stroke: #000000; stroke-width: 0.8"/>
         </g>
        </g>
        <g id="text_8">
         <!-- 80 -->
         <g transform="translate(27.240625 101.770209) scale(0.1 -0.1)">
          <defs>
           <path id="DejaVuSans-38" d="M 2034 2216 
Q 1584 2216 1326 1975 
Q 1069 1734 1069 1313 
Q 1069 891 1326 650 
Q 1584 409 2034 409 
Q 2484 409 2743 651 
Q 3003 894 3003 1313 
Q 3003 1734 2745 1975 
Q 2488 2216 2034 2216 
z
M 1403 2484 
Q 997 2584 770 2862 
Q 544 3141 544 3541 
Q 544 4100 942 4425 
Q 1341 4750 2034 4750 
Q 2731 4750 3128 4425 
Q 3525 4100 3525 3541 
Q 3525 3141 3298 2862 
Q 3072 2584 2669 2484 
Q 3125 2378 3379 2068 
Q 3634 1759 3634 1313 
Q 3634 634 3220 271 
Q 2806 -91 2034 -91 
Q 1263 -91 848 271 
Q 434 634 434 1313 
Q 434 1759 690 2068 
Q 947 2378 1403 2484 
z
M 1172 3481 
Q 1172 3119 1398 2916 
Q 1625 2713 2034 2713 
Q 2441 2713 2670 2916 
Q 2900 3119 2900 3481 
Q 2900 3844 2670 4047 
Q 2441 4250 2034 4250 
Q 1625 4250 1398 4047 
Q 1172 3844 1172 3481 
z
" transform="scale(0.015625)"/>
          </defs>
          <use xlink:href="#DejaVuSans-38"/>
          <use xlink:href="#DejaVuSans-30" x="63.623047"/>
         </g>
        </g>
       </g>
       <g id="ytick_6">
        <g id="line2d_9">
         <g>
          <use xlink:href="#m1d98786f3f" x="46.965625" y="42.958269" style="stroke: #000000; stroke-width: 0.8"/>
         </g>
        </g>
        <g id="text_9">
         <!-- 100 -->
         <g transform="translate(20.878125 46.757488) scale(0.1 -0.1)">
          <use xlink:href="#DejaVuSans-31"/>
          <use xlink:href="#DejaVuSans-30" x="63.623047"/>
          <use xlink:href="#DejaVuSans-30" x="127.246094"/>
         </g>
        </g>
       </g>
       <g id="text_10">
        <!-- time ago (generations) -->
        <g transform="translate(14.798438 220.082031) rotate(-90) scale(0.1 -0.1)">
         <defs>
          <path id="DejaVuSans-74" d="M 1172 4494 
L 1172 3500 
L 2356 3500 
L 2356 3053 
L 1172 3053 
L 1172 1153 
Q 1172 725 1289 603 
Q 1406 481 1766 481 
L 2356 481 
L 2356 0 
L 1766 0 
Q 1100 0 847 248 
Q 594 497 594 1153 
L 594 3053 
L 172 3053 
L 172 3500 
L 594 3500 
L 594 4494 
L 1172 4494 
z
" transform="scale(0.015625)"/>
          <path id="DejaVuSans-69" d="M 603 3500 
L 1178 3500 
L 1178 0 
L 603 0 
L 603 3500 
z
M 603 4863 
L 1178 4863 
L 1178 4134 
L 603 4134 
L 603 4863 
z
" transform="scale(0.015625)"/>
          <path id="DejaVuSans-6d" d="M 3328 2828 
Q 3544 3216 3844 3400 
Q 4144 3584 4550 3584 
Q 5097 3584 5394 3201 
Q 5691 2819 5691 2113 
L 5691 0 
L 5113 0 
L 5113 2094 
Q 5113 2597 4934 2840 
Q 4756 3084 4391 3084 
Q 3944 3084 3684 2787 
Q 3425 2491 3425 1978 
L 3425 0 
L 2847 0 
L 2847 2094 
Q 2847 2600 2669 2842 
Q 2491 3084 2119 3084 
Q 1678 3084 1418 2786 
Q 1159 2488 1159 1978 
L 1159 0 
L 581 0 
L 581 3500 
L 1159 3500 
L 1159 2956 
Q 1356 3278 1631 3431 
Q 1906 3584 2284 3584 
Q 2666 3584 2933 3390 
Q 3200 3197 3328 2828 
z
" transform="scale(0.015625)"/>
          <path id="DejaVuSans-65" d="M 3597 1894 
L 3597 1613 
L 953 1613 
Q 991 1019 1311 708 
Q 1631 397 2203 397 
Q 2534 397 2845 478 
Q 3156 559 3463 722 
L 3463 178 
Q 3153 47 2828 -22 
Q 2503 -91 2169 -91 
Q 1331 -91 842 396 
Q 353 884 353 1716 
Q 353 2575 817 3079 
Q 1281 3584 2069 3584 
Q 2775 3584 3186 3129 
Q 3597 2675 3597 1894 
z
M 3022 2063 
Q 3016 2534 2758 2815 
Q 2500 3097 2075 3097 
Q 1594 3097 1305 2825 
Q 1016 2553 972 2059 
L 3022 2063 
z
" transform="scale(0.015625)"/>
          <path id="DejaVuSans-20" transform="scale(0.015625)"/>
          <path id="DejaVuSans-61" d="M 2194 1759 
Q 1497 1759 1228 1600 
Q 959 1441 959 1056 
Q 959 750 1161 570 
Q 1363 391 1709 391 
Q 2188 391 2477 730 
Q 2766 1069 2766 1631 
L 2766 1759 
L 2194 1759 
z
M 3341 1997 
L 3341 0 
L 2766 0 
L 2766 531 
Q 2569 213 2275 61 
Q 1981 -91 1556 -91 
Q 1019 -91 701 211 
Q 384 513 384 1019 
Q 384 1609 779 1909 
Q 1175 2209 1959 2209 
L 2766 2209 
L 2766 2266 
Q 2766 2663 2505 2880 
Q 2244 3097 1772 3097 
Q 1472 3097 1187 3025 
Q 903 2953 641 2809 
L 641 3341 
Q 956 3463 1253 3523 
Q 1550 3584 1831 3584 
Q 2591 3584 2966 3190 
Q 3341 2797 3341 1997 
z
" transform="scale(0.015625)"/>
          <path id="DejaVuSans-67" d="M 2906 1791 
Q 2906 2416 2648 2759 
Q 2391 3103 1925 3103 
Q 1463 3103 1205 2759 
Q 947 2416 947 1791 
Q 947 1169 1205 825 
Q 1463 481 1925 481 
Q 2391 481 2648 825 
Q 2906 1169 2906 1791 
z
M 3481 434 
Q 3481 -459 3084 -895 
Q 2688 -1331 1869 -1331 
Q 1566 -1331 1297 -1286 
Q 1028 -1241 775 -1147 
L 775 -588 
Q 1028 -725 1275 -790 
Q 1522 -856 1778 -856 
Q 2344 -856 2625 -561 
Q 2906 -266 2906 331 
L 2906 616 
Q 2728 306 2450 153 
Q 2172 0 1784 0 
Q 1141 0 747 490 
Q 353 981 353 1791 
Q 353 2603 747 3093 
Q 1141 3584 1784 3584 
Q 2172 3584 2450 3431 
Q 2728 3278 2906 2969 
L 2906 3500 
L 3481 3500 
L 3481 434 
z
" transform="scale(0.015625)"/>
          <path id="DejaVuSans-6f" d="M 1959 3097 
Q 1497 3097 1228 2736 
Q 959 2375 959 1747 
Q 959 1119 1226 758 
Q 1494 397 1959 397 
Q 2419 397 2687 759 
Q 2956 1122 2956 1747 
Q 2956 2369 2687 2733 
Q 2419 3097 1959 3097 
z
M 1959 3584 
Q 2709 3584 3137 3096 
Q 3566 2609 3566 1747 
Q 3566 888 3137 398 
Q 2709 -91 1959 -91 
Q 1206 -91 779 398 
Q 353 888 353 1747 
Q 353 2609 779 3096 
Q 1206 3584 1959 3584 
z
" transform="scale(0.015625)"/>
          <path id="DejaVuSans-28" d="M 1984 4856 
Q 1566 4138 1362 3434 
Q 1159 2731 1159 2009 
Q 1159 1288 1364 580 
Q 1569 -128 1984 -844 
L 1484 -844 
Q 1016 -109 783 600 
Q 550 1309 550 2009 
Q 550 2706 781 3412 
Q 1013 4119 1484 4856 
L 1984 4856 
z
" transform="scale(0.015625)"/>
          <path id="DejaVuSans-6e" d="M 3513 2113 
L 3513 0 
L 2938 0 
L 2938 2094 
Q 2938 2591 2744 2837 
Q 2550 3084 2163 3084 
Q 1697 3084 1428 2787 
Q 1159 2491 1159 1978 
L 1159 0 
L 581 0 
L 581 3500 
L 1159 3500 
L 1159 2956 
Q 1366 3272 1645 3428 
Q 1925 3584 2291 3584 
Q 2894 3584 3203 3211 
Q 3513 2838 3513 2113 
z
" transform="scale(0.015625)"/>
          <path id="DejaVuSans-72" d="M 2631 2963 
Q 2534 3019 2420 3045 
Q 2306 3072 2169 3072 
Q 1681 3072 1420 2755 
Q 1159 2438 1159 1844 
L 1159 0 
L 581 0 
L 581 3500 
L 1159 3500 
L 1159 2956 
Q 1341 3275 1631 3429 
Q 1922 3584 2338 3584 
Q 2397 3584 2469 3576 
Q 2541 3569 2628 3553 
L 2631 2963 
z
" transform="scale(0.015625)"/>
          <path id="DejaVuSans-73" d="M 2834 3397 
L 2834 2853 
Q 2591 2978 2328 3040 
Q 2066 3103 1784 3103 
Q 1356 3103 1142 2972 
Q 928 2841 928 2578 
Q 928 2378 1081 2264 
Q 1234 2150 1697 2047 
L 1894 2003 
Q 2506 1872 2764 1633 
Q 3022 1394 3022 966 
Q 3022 478 2636 193 
Q 2250 -91 1575 -91 
Q 1294 -91 989 -36 
Q 684 19 347 128 
L 347 722 
Q 666 556 975 473 
Q 1284 391 1588 391 
Q 1994 391 2212 530 
Q 2431 669 2431 922 
Q 2431 1156 2273 1281 
Q 2116 1406 1581 1522 
L 1381 1569 
Q 847 1681 609 1914 
Q 372 2147 372 2553 
Q 372 3047 722 3315 
Q 1072 3584 1716 3584 
Q 2034 3584 2315 3537 
Q 2597 3491 2834 3397 
z
" transform="scale(0.015625)"/>
          <path id="DejaVuSans-29" d="M 513 4856 
L 1013 4856 
Q 1481 4119 1714 3412 
Q 1947 2706 1947 2009 
Q 1947 1309 1714 600 
Q 1481 -109 1013 -844 
L 513 -844 
Q 928 -128 1133 580 
Q 1338 1288 1338 2009 
Q 1338 2731 1133 3434 
Q 928 4138 513 4856 
z
" transform="scale(0.015625)"/>
         </defs>
         <use xlink:href="#DejaVuSans-74"/>
         <use xlink:href="#DejaVuSans-69" x="39.208984"/>
         <use xlink:href="#DejaVuSans-6d" x="66.992188"/>
         <use xlink:href="#DejaVuSans-65" x="164.404297"/>
         <use xlink:href="#DejaVuSans-20" x="225.927734"/>
         <use xlink:href="#DejaVuSans-61" x="257.714844"/>
         <use xlink:href="#DejaVuSans-67" x="318.994141"/>
         <use xlink:href="#DejaVuSans-6f" x="382.470703"/>
         <use xlink:href="#DejaVuSans-20" x="443.652344"/>
         <use xlink:href="#DejaVuSans-28" x="475.439453"/>
         <use xlink:href="#DejaVuSans-67" x="514.453125"/>
         <use xlink:href="#DejaVuSans-65" x="577.929688"/>
         <use xlink:href="#DejaVuSans-6e" x="639.453125"/>
         <use xlink:href="#DejaVuSans-65" x="702.832031"/>
         <use xlink:href="#DejaVuSans-72" x="764.355469"/>
         <use xlink:href="#DejaVuSans-61" x="805.46875"/>
         <use xlink:href="#DejaVuSans-74" x="866.748047"/>
         <use xlink:href="#DejaVuSans-69" x="905.957031"/>
         <use xlink:href="#DejaVuSans-6f" x="933.740234"/>
         <use xlink:href="#DejaVuSans-6e" x="994.921875"/>
         <use xlink:href="#DejaVuSans-73" x="1058.300781"/>
         <use xlink:href="#DejaVuSans-29" x="1110.400391"/>
        </g>
       </g>
      </g>
      <path d="M 257.619695 269.503632 
L 255.619695 268.503632 
L 255.619695 270.503632 
z
" clip-path="url(#pe557afcb4b)" style="fill: #1f77b4; fill-opacity: 0.5; stroke: #1f77b4; stroke-opacity: 0.5; stroke-linejoin: miter"/>
      <path d="M 257.619695 273.358273 
L 255.619695 272.358273 
L 255.619695 274.358273 
z
" clip-path="url(#pe557afcb4b)" style="fill: #1f77b4; fill-opacity: 0.5; stroke: #1f77b4; stroke-opacity: 0.5; stroke-linejoin: miter"/>
      <path d="M 257.619695 174.28421 
L 255.619695 173.28421 
L 255.619695 175.28421 
z
" clip-path="url(#pe557afcb4b)" style="fill: #1f77b4; fill-opacity: 0.5; stroke: #1f77b4; stroke-opacity: 0.5; stroke-linejoin: miter"/>
      <path d="M 257.619695 129.622304 
L 255.619695 128.622304 
L 255.619695 130.622304 
z
" clip-path="url(#pe557afcb4b)" style="fill: #1f77b4; fill-opacity: 0.5; stroke: #1f77b4; stroke-opacity: 0.5; stroke-linejoin: miter"/>
      <path d="M 257.619695 119.349206 
L 255.619695 118.349206 
L 255.619695 120.349206 
z
" clip-path="url(#pe557afcb4b)" style="fill: #1f77b4; fill-opacity: 0.5; stroke: #1f77b4; stroke-opacity: 0.5; stroke-linejoin: miter"/>
      <path d="M 257.619695 143.351687 
L 255.619695 142.351687 
L 255.619695 144.351687 
z
" clip-path="url(#pe557afcb4b)" style="fill: #1f77b4; fill-opacity: 0.5; stroke: #1f77b4; stroke-opacity: 0.5; stroke-linejoin: miter"/>
      <path d="M 257.619695 275.949438 
L 255.619695 274.949438 
L 255.619695 276.949438 
z
" clip-path="url(#pe557afcb4b)" style="fill: #1f77b4; fill-opacity: 0.5; stroke: #1f77b4; stroke-opacity: 0.5; stroke-linejoin: miter"/>
      <path d="M 257.619695 36.727018 
L 255.619695 35.727018 
L 255.619695 37.727018 
z
" clip-path="url(#pe557afcb4b)" style="fill: #1f77b4; fill-opacity: 0.5; stroke: #1f77b4; stroke-opacity: 0.5; stroke-linejoin: miter"/>
      <path d="M 257.619695 260.16796 
L 255.619695 259.16796 
L 255.619695 261.16796 
z
" clip-path="url(#pe557afcb4b)" style="fill: #1f77b4; fill-opacity: 0.5; stroke: #1f77b4; stroke-opacity: 0.5; stroke-linejoin: miter"/>
      <path d="M 257.619695 125.02392 
L 255.619695 124.02392 
L 255.619695 126.02392 
z
" clip-path="url(#pe557afcb4b)" style="fill: #1f77b4; fill-opacity: 0.5; stroke: #1f77b4; stroke-opacity: 0.5; stroke-linejoin: miter"/>
      <path d="M 199.299443 24.324108 
L 201.299443 25.324108 
L 201.299443 23.324108 
z
" clip-path="url(#pe557afcb4b)" style="fill: #ff7f0e; fill-opacity: 0.5; stroke: #ff7f0e; stroke-opacity: 0.5; stroke-linejoin: miter"/>
      <path d="M 199.299443 31.143744 
L 201.299443 32.143744 
L 201.299443 30.143744 
z
" clip-path="url(#pe557afcb4b)" style="fill: #ff7f0e; fill-opacity: 0.5; stroke: #ff7f0e; stroke-opacity: 0.5; stroke-linejoin: miter"/>
      <path d="M 199.299443 301.238931 
L 201.299443 302.238931 
L 201.299443 300.238931 
z
" clip-path="url(#pe557afcb4b)" style="fill: #ff7f0e; fill-opacity: 0.5; stroke: #ff7f0e; stroke-opacity: 0.5; stroke-linejoin: miter"/>
      <path d="M 199.299443 101.216585 
L 201.299443 102.216585 
L 201.299443 100.216585 
z
" clip-path="url(#pe557afcb4b)" style="fill: #ff7f0e; fill-opacity: 0.5; stroke: #ff7f0e; stroke-opacity: 0.5; stroke-linejoin: miter"/>
      <path d="M 199.299443 135.771294 
L 201.299443 136.771294 
L 201.299443 134.771294 
z
" clip-path="url(#pe557afcb4b)" style="fill: #ff7f0e; fill-opacity: 0.5; stroke: #ff7f0e; stroke-opacity: 0.5; stroke-linejoin: miter"/>
      <path d="M 199.299443 257.996136 
L 201.299443 258.996136 
L 201.299443 256.996136 
z
" clip-path="url(#pe557afcb4b)" style="fill: #ff7f0e; fill-opacity: 0.5; stroke: #ff7f0e; stroke-opacity: 0.5; stroke-linejoin: miter"/>
      <path d="M 199.299443 34.376871 
L 201.299443 35.376871 
L 201.299443 33.376871 
z
" clip-path="url(#pe557afcb4b)" style="fill: #ff7f0e; fill-opacity: 0.5; stroke: #ff7f0e; stroke-opacity: 0.5; stroke-linejoin: miter"/>
      <path d="M 199.299443 297.645429 
L 201.299443 298.645429 
L 201.299443 296.645429 
z
" clip-path="url(#pe557afcb4b)" style="fill: #ff7f0e; fill-opacity: 0.5; stroke: #ff7f0e; stroke-opacity: 0.5; stroke-linejoin: miter"/>
      <path d="M 199.299443 217.587244 
L 201.299443 218.587244 
L 201.299443 216.587244 
z
" clip-path="url(#pe557afcb4b)" style="fill: #ff7f0e; fill-opacity: 0.5; stroke: #ff7f0e; stroke-opacity: 0.5; stroke-linejoin: miter"/>
      <path d="M 199.299443 296.288629 
L 201.299443 297.288629 
L 201.299443 295.288629 
z
" clip-path="url(#pe557afcb4b)" style="fill: #ff7f0e; fill-opacity: 0.5; stroke: #ff7f0e; stroke-opacity: 0.5; stroke-linejoin: miter"/>
      <path d="M 447.666182 288.236294 
L 445.666182 287.236294 
L 445.666182 289.236294 
z
" clip-path="url(#pe557afcb4b)" style="fill: #ff7f0e; fill-opacity: 0.5; stroke: #ff7f0e; stroke-opacity: 0.5; stroke-linejoin: miter"/>
      <path d="M 447.666182 276.678728 
L 445.666182 275.678728 
L 445.666182 277.678728 
z
" clip-path="url(#pe557afcb4b)" style="fill: #ff7f0e; fill-opacity: 0.5; stroke: #ff7f0e; stroke-opacity: 0.5; stroke-linejoin: miter"/>
      <path d="M 447.666182 25.43045 
L 445.666182 24.43045 
L 445.666182 26.43045 
z
" clip-path="url(#pe557afcb4b)" style="fill: #ff7f0e; fill-opacity: 0.5; stroke: #ff7f0e; stroke-opacity: 0.5; stroke-linejoin: miter"/>
      <path d="M 447.666182 272.535469 
L 445.666182 271.535469 
L 445.666182 273.535469 
z
" clip-path="url(#pe557afcb4b)" style="fill: #ff7f0e; fill-opacity: 0.5; stroke: #ff7f0e; stroke-opacity: 0.5; stroke-linejoin: miter"/>
      <path d="M 447.666182 26.088562 
L 445.666182 25.088562 
L 445.666182 27.088562 
z
" clip-path="url(#pe557afcb4b)" style="fill: #ff7f0e; fill-opacity: 0.5; stroke: #ff7f0e; stroke-opacity: 0.5; stroke-linejoin: miter"/>
      <path d="M 447.666182 196.94628 
L 445.666182 195.94628 
L 445.666182 197.94628 
z
" clip-path="url(#pe557afcb4b)" style="fill: #ff7f0e; fill-opacity: 0.5; stroke: #ff7f0e; stroke-opacity: 0.5; stroke-linejoin: miter"/>
      <path d="M 447.666182 26.02971 
L 445.666182 25.02971 
L 445.666182 27.02971 
z
" clip-path="url(#pe557afcb4b)" style="fill: #ff7f0e; fill-opacity: 0.5; stroke: #ff7f0e; stroke-opacity: 0.5; stroke-linejoin: miter"/>
      <path d="M 447.666182 201.921627 
L 445.666182 200.921627 
L 445.666182 202.921627 
z
" clip-path="url(#pe557afcb4b)" style="fill: #ff7f0e; fill-opacity: 0.5; stroke: #ff7f0e; stroke-opacity: 0.5; stroke-linejoin: miter"/>
      <path d="M 447.666182 212.63724 
L 445.666182 211.63724 
L 445.666182 213.63724 
z
" clip-path="url(#pe557afcb4b)" style="fill: #ff7f0e; fill-opacity: 0.5; stroke: #ff7f0e; stroke-opacity: 0.5; stroke-linejoin: miter"/>
      <path d="M 447.666182 215.051803 
L 445.666182 214.051803 
L 445.666182 216.051803 
z
" clip-path="url(#pe557afcb4b)" style="fill: #ff7f0e; fill-opacity: 0.5; stroke: #ff7f0e; stroke-opacity: 0.5; stroke-linejoin: miter"/>
      <path d="M 389.34593 139.422208 
L 391.34593 140.422208 
L 391.34593 138.422208 
z
" clip-path="url(#pe557afcb4b)" style="fill: #2ca02c; fill-opacity: 0.5; stroke: #2ca02c; stroke-opacity: 0.5; stroke-linejoin: miter"/>
      <path d="M 389.34593 199.115498 
L 391.34593 200.115498 
L 391.34593 198.115498 
z
" clip-path="url(#pe557afcb4b)" style="fill: #2ca02c; fill-opacity: 0.5; stroke: #2ca02c; stroke-opacity: 0.5; stroke-linejoin: miter"/>
      <path d="M 389.34593 278.386467 
L 391.34593 279.386467 
L 391.34593 277.386467 
z
" clip-path="url(#pe557afcb4b)" style="fill: #2ca02c; fill-opacity: 0.5; stroke: #2ca02c; stroke-opacity: 0.5; stroke-linejoin: miter"/>
      <path d="M 389.34593 31.868153 
L 391.34593 32.868153 
L 391.34593 30.868153 
z
" clip-path="url(#pe557afcb4b)" style="fill: #2ca02c; fill-opacity: 0.5; stroke: #2ca02c; stroke-opacity: 0.5; stroke-linejoin: miter"/>
      <path d="M 389.34593 187.421013 
L 391.34593 188.421013 
L 391.34593 186.421013 
z
" clip-path="url(#pe557afcb4b)" style="fill: #2ca02c; fill-opacity: 0.5; stroke: #2ca02c; stroke-opacity: 0.5; stroke-linejoin: miter"/>
      <path d="M 389.34593 155.396707 
L 391.34593 156.396707 
L 391.34593 154.396707 
z
" clip-path="url(#pe557afcb4b)" style="fill: #2ca02c; fill-opacity: 0.5; stroke: #2ca02c; stroke-opacity: 0.5; stroke-linejoin: miter"/>
      <path d="M 389.34593 163.317918 
L 391.34593 164.317918 
L 391.34593 162.317918 
z
" clip-path="url(#pe557afcb4b)" style="fill: #2ca02c; fill-opacity: 0.5; stroke: #2ca02c; stroke-opacity: 0.5; stroke-linejoin: miter"/>
      <path d="M 389.34593 135.391894 
L 391.34593 136.391894 
L 391.34593 134.391894 
z
" clip-path="url(#pe557afcb4b)" style="fill: #2ca02c; fill-opacity: 0.5; stroke: #2ca02c; stroke-opacity: 0.5; stroke-linejoin: miter"/>
      <path d="M 389.34593 67.412152 
L 391.34593 68.412152 
L 391.34593 66.412152 
z
" clip-path="url(#pe557afcb4b)" style="fill: #2ca02c; fill-opacity: 0.5; stroke: #2ca02c; stroke-opacity: 0.5; stroke-linejoin: miter"/>
      <path d="M 389.34593 262.140929 
L 391.34593 263.140929 
L 391.34593 261.140929 
z
" clip-path="url(#pe557afcb4b)" style="fill: #2ca02c; fill-opacity: 0.5; stroke: #2ca02c; stroke-opacity: 0.5; stroke-linejoin: miter"/>
      <g id="patch_6">
       <path d="M 46.965625 318.021875 
L 46.965625 7.2 
" style="fill: none; stroke: #000000; stroke-width: 0.8; stroke-linejoin: miter; stroke-linecap: square"/>
      </g>
     </g>
    </g>
    <defs>
     <clipPath id="pe557afcb4b">
      <rect x="46.965625" y="7.2" width="553.034375" height="310.821875"/>
     </clipPath>
    </defs>
   </g>
  </g>
 </g>
</svg>