<?xml version="1.0" encoding="utf-8" standalone="no"?>
<!DOCTYPE svg PUBLIC "-//W3C//DTD SVG 1.1//EN"
  "http://www.w3.org/Graphics/SVG/1.1/DTD/svg11.dtd">
<svg xmlns:xlink="http://www.w3.org/1999/xlink" width="607.2pt" height="338.4pt" viewBox="0 0 607.2 338.4" xmlns="http://www.w3.org/2000/svg" version="1.1">
 <metadata>
  <rdf:RDF xmlns:dc="http://purl.org/dc/elements/1.1/" xmlns:cc="http://creativecommons.org/ns#" xmlns:rdf="http://www.w3.org/1999/02/22-rdf-syntax-ns#">
   <cc:Work>
    <dc:type rdf:resource="http://purl.org/dc/dcmitype/StillImage"/>
    <dc:date>2023-04-28T05:54:12.262864</dc:date>
    <dc:format>image/svg+xml</dc:format>
    <dc:creator>
     <cc:Agent>
      <dc:title>Matplotlib v3.7.1, https://matplotlib.org/</dc:title>
     </cc:Agent>
    </dc:creator>
   </cc:Work>
  </rdf:RDF>
 </metadata>
 <defs>
  <style type="text/css">*{stroke-linejoin: round; stroke-linecap: butt}</style>
 </defs>
 <g id="figure_1">
  <g id="patch_1">
   <path d="M 0 338.4 
L 607.2 338.4 
L 607.2 0 
L 0 0 
z
" style="fill: #ffffff"/>
  </g>
  <g id="axes_1">
   <g id="patch_2">
    <path d="M 43.78125 318.021875 
L 600 318.021875 
L 600 22.318125 
L 43.78125 22.318125 
z
" style="fill: #ffffff"/>
   </g>
   <path d="M 197.997343 182.045848 
L 198.997343 182.077285 
L 199.997343 182.114225 
L 200.997343 182.211972 
L 201.997343 182.244493 
L 202.997343 182.318118 
L 203.997343 182.356684 
L 204.997343 182.392097 
L 205.997343 182.449737 
L 206.997343 182.520123 
L 207.997343 182.572087 
L 208.997343 182.631177 
L 209.997343 182.719498 
L 210.997343 182.765642 
L 211.997343 182.808053 
L 212.997343 182.838546 
L 213.997343 182.864591 
L 214.997343 182.885791 
L 215.997343 182.940092 
L 216.997343 182.968029 
L 217.997343 182.997753 
L 218.997343 183.023148 
L 219.997343 183.034349 
L 220.997343 183.044473 
L 221.997343 183.044268 
L 222.997343 183.034758 
L 223.997343 183.023105 
L 224.997343 182.992076 
L 225.997343 182.980908 
L 226.997343 182.95079 
L 227.997343 182.891013 
L 228.997343 182.853822 
L 229.997343 182.814726 
L 230.997343 182.772286 
L 231.997343 182.739521 
L 232.997343 182.672094 
L 233.997343 182.632968 
L 234.997343 182.590294 
L 235.997343 182.519713 
L 236.997343 182.483322 
L 237.997343 182.424919 
L 238.997343 182.313967 
L 239.997343 182.243308 
L 240.997343 182.130368 
L 241.997343 182.084596 
L 242.997343 182.023312 
L 243.997343 181.974813 
L 244.997343 181.89399 
L 245.997343 181.775471 
L 246.997343 181.705261 
L 247.997343 181.621998 
L 248.997343 181.588857 
L 249.997343 181.537619 
L 250.997343 181.469221 
L 251.997343 181.403005 
L 252.997343 181.326088 
L 254.64282 181.298773 
" clip-path="url(#p5e739a42fe)" style="fill: none; stroke: #1f77b4; stroke-opacity: 0.5; stroke-width: 0.2; stroke-linecap: square"/>
   <path d="M 197.997343 159.361301 
L 198.997343 159.392738 
L 199.997343 159.429678 
L 200.997343 159.527424 
L 201.997343 159.559946 
L 202.997343 159.633571 
L 203.997343 159.672136 
L 204.997343 159.70755 
L 205.997343 159.765189 
L 206.997343 159.835576 
L 207.997343 159.88754 
L 208.997343 159.94663 
L 209.997343 160.034951 
L 210.997343 160.081095 
L 211.997343 160.123506 
L 212.997343 160.153999 
L 213.997343 160.180043 
L 214.997343 160.201244 
L 215.997343 160.255545 
L 216.997343 160.283482 
L 217.997343 160.313206 
L 218.997343 160.338601 
L 219.997343 160.349801 
L 220.997343 160.359925 
L 221.997343 160.359721 
L 222.997343 160.350211 
L 223.997343 160.338558 
L 224.997343 160.307528 
L 225.997343 160.29636 
L 226.997343 160.266243 
L 227.997343 160.206466 
L 228.997343 160.169274 
L 229.997343 160.130178 
L 230.997343 160.087739 
L 231.997343 160.054974 
L 232.997343 159.987547 
L 233.997343 159.948421 
L 234.997343 159.905747 
L 235.997343 159.835166 
L 236.997343 159.798775 
L 237.997343 159.740372 
L 238.997343 159.629419 
L 239.997343 159.558761 
L 240.997343 159.445821 
L 241.997343 159.400048 
L 242.997343 159.338765 
L 243.997343 159.290266 
L 244.997343 159.209443 
L 245.997343 159.090924 
L 246.997343 159.020714 
L 247.997343 158.937451 
L 248.997343 158.904309 
L 249.997343 158.853072 
L 250.997343 158.784674 
L 251.997343 158.718458 
L 252.997343 158.641541 
L 254.64282 158.614226 
" clip-path="url(#p5e739a42fe)" style="fill: none; stroke: #1f77b4; stroke-opacity: 0.5; stroke-width: 0.2; stroke-linecap: square"/>
   <path d="M 197.997343 86.478974 
L 198.997343 86.51041 
L 199.997343 86.547351 
L 200.997343 86.645097 
L 201.997343 86.677619 
L 202.997343 86.751244 
L 203.997343 86.789809 
L 204.997343 86.825222 
L 205.997343 86.882862 
L 206.997343 86.953248 
L 207.997343 87.005213 
L 208.997343 87.064302 
L 209.997343 87.152623 
L 210.997343 87.198768 
L 211.997343 87.241179 
L 212.997343 87.271671 
L 213.997343 87.297716 
L 214.997343 87.318916 
L 215.997343 87.373217 
L 216.997343 87.401155 
L 217.997343 87.430879 
L 218.997343 87.456274 
L 219.997343 87.467474 
L 220.997343 87.477598 
L 221.997343 87.477394 
L 222.997343 87.467884 
L 223.997343 87.45623 
L 224.997343 87.425201 
L 225.997343 87.414033 
L 226.997343 87.383916 
L 227.997343 87.324139 
L 228.997343 87.286947 
L 229.997343 87.247851 
L 230.997343 87.205411 
L 231.997343 87.172646 
L 232.997343 87.10522 
L 233.997343 87.066094 
L 234.997343 87.023419 
L 235.997343 86.952839 
L 236.997343 86.916448 
L 237.997343 86.858045 
L 238.997343 86.747092 
L 239.997343 86.676434 
L 240.997343 86.563494 
L 241.997343 86.517721 
L 242.997343 86.456438 
L 243.997343 86.407939 
L 244.997343 86.327116 
L 245.997343 86.208597 
L 246.997343 86.138386 
L 247.997343 86.055124 
L 248.997343 86.021982 
L 249.997343 85.970745 
L 250.997343 85.902346 
L 251.997343 85.836131 
L 252.997343 85.759214 
L 254.64282 85.731898 
" clip-path="url(#p5e739a42fe)" style="fill: none; stroke: #1f77b4; stroke-opacity: 0.5; stroke-width: 0.2; stroke-linecap: square"/>
   <path d="M 197.997343 84.199586 
L 198.997343 84.231023 
L 199.997343 84.267963 
L 200.997343 84.36571 
L 201.997343 84.398231 
L 202.997343 84.471856 
L 203.997343 84.510422 
L 204.997343 84.545835 
L 205.997343 84.603475 
L 206.997343 84.673861 
L 207.997343 84.725825 
L 208.997343 84.784915 
L 209.997343 84.873236 
L 210.997343 84.91938 
L 211.997343 84.961791 
L 212.997343 84.992284 
L 213.997343 85.018329 
L 214.997343 85.039529 
L 215.997343 85.09383 
L 216.997343 85.121767 
L 217.997343 85.151491 
L 218.997343 85.176886 
L 219.997343 85.188087 
L 220.997343 85.198211 
L 221.997343 85.198006 
L 222.997343 85.188496 
L 223.997343 85.176843 
L 224.997343 85.145814 
L 225.997343 85.134646 
L 226.997343 85.104528 
L 227.997343 85.044751 
L 228.997343 85.00756 
L 229.997343 84.968464 
L 230.997343 84.926024 
L 231.997343 84.893259 
L 232.997343 84.825832 
L 233.997343 84.786706 
L 234.997343 84.744032 
L 235.997343 84.673451 
L 236.997343 84.63706 
L 237.997343 84.578657 
L 238.997343 84.467705 
L 239.997343 84.397046 
L 240.997343 84.284106 
L 241.997343 84.238334 
L 242.997343 84.17705 
L 243.997343 84.128551 
L 244.997343 84.047728 
L 245.997343 83.929209 
L 246.997343 83.858999 
L 247.997343 83.775736 
L 248.997343 83.742595 
L 249.997343 83.691357 
L 250.997343 83.622959 
L 251.997343 83.556743 
L 252.997343 83.479826 
L 254.64282 83.452511 
" clip-path="url(#p5e739a42fe)" style="fill: none; stroke: #1f77b4; stroke-opacity: 0.5; stroke-width: 0.2; stroke-linecap: square"/>
   <path d="M 197.997343 133.984312 
L 198.997343 134.015749 
L 199.997343 134.052689 
L 200.997343 134.150436 
L 201.997343 134.182957 
L 202.997343 134.256582 
L 203.997343 134.295147 
L 204.997343 134.330561 
L 205.997343 134.388201 
L 206.997343 134.458587 
L 207.997343 134.510551 
L 208.997343 134.569641 
L 209.997343 134.657962 
L 210.997343 134.704106 
L 211.997343 134.746517 
L 212.997343 134.77701 
L 213.997343 134.803055 
L 214.997343 134.824255 
L 215.997343 134.878556 
L 216.997343 134.906493 
L 217.997343 134.936217 
L 218.997343 134.961612 
L 219.997343 134.972812 
L 220.997343 134.982936 
L 221.997343 134.982732 
L 222.997343 134.973222 
L 223.997343 134.961569 
L 224.997343 134.930539 
L 225.997343 134.919371 
L 226.997343 134.889254 
L 227.997343 134.829477 
L 228.997343 134.792285 
L 229.997343 134.753189 
L 230.997343 134.71075 
L 231.997343 134.677985 
L 232.997343 134.610558 
L 233.997343 134.571432 
L 234.997343 134.528758 
L 235.997343 134.458177 
L 236.997343 134.421786 
L 237.997343 134.363383 
L 238.997343 134.25243 
L 239.997343 134.181772 
L 240.997343 134.068832 
L 241.997343 134.023059 
L 242.997343 133.961776 
L 243.997343 133.913277 
L 244.997343 133.832454 
L 245.997343 133.713935 
L 246.997343 133.643725 
L 247.997343 133.560462 
L 248.997343 133.52732 
L 249.997343 133.476083 
L 250.997343 133.407685 
L 251.997343 133.341469 
L 252.997343 133.264552 
L 254.64282 133.237237 
" clip-path="url(#p5e739a42fe)" style="fill: none; stroke: #1f77b4; stroke-opacity: 0.5; stroke-width: 0.2; stroke-linecap: square"/>
   <path d="M 197.997343 171.599983 
L 198.997343 171.631419 
L 199.997343 171.66836 
L 200.997343 171.766106 
L 201.997343 171.798628 
L 202.997343 171.872253 
L 203.997343 171.910818 
L 204.997343 171.946231 
L 205.997343 172.003871 
L 206.997343 172.074257 
L 207.997343 172.126222 
L 208.997343 172.185311 
L 209.997343 172.273632 
L 210.997343 172.319777 
L 211.997343 172.362188 
L 212.997343 172.39268 
L 213.997343 172.418725 
L 214.997343 172.439925 
L 215.997343 172.494226 
L 216.997343 172.522164 
L 217.997343 172.551888 
L 218.997343 172.577283 
L 219.997343 172.588483 
L 220.997343 172.598607 
L 221.997343 172.598403 
L 222.997343 172.588893 
L 223.997343 172.577239 
L 224.997343 172.54621 
L 225.997343 172.535042 
L 226.997343 172.504925 
L 227.997343 172.445148 
L 228.997343 172.407956 
L 229.997343 172.36886 
L 230.997343 172.32642 
L 231.997343 172.293655 
L 232.997343 172.226229 
L 233.997343 172.187103 
L 234.997343 172.144428 
L 235.997343 172.073848 
L 236.997343 172.037457 
L 237.997343 171.979054 
L 238.997343 171.868101 
L 239.997343 171.797443 
L 240.997343 171.684503 
L 241.997343 171.63873 
L 242.997343 171.577447 
L 243.997343 171.528948 
L 244.997343 171.448125 
L 245.997343 171.329606 
L 246.997343 171.259395 
L 247.997343 171.176133 
L 248.997343 171.142991 
L 249.997343 171.091754 
L 250.997343 171.023355 
L 251.997343 170.95714 
L 252.997343 170.880223 
L 254.64282 170.852907 
" clip-path="url(#p5e739a42fe)" style="fill: none; stroke: #1f77b4; stroke-opacity: 0.5; stroke-width: 0.2; stroke-linecap: square"/>
   <path d="M 197.997343 160.301493 
L 198.997343 160.332929 
L 199.997343 160.36987 
L 200.997343 160.467616 
L 201.997343 160.500138 
L 202.997343 160.573762 
L 203.997343 160.612328 
L 204.997343 160.647741 
L 205.997343 160.705381 
L 206.997343 160.775767 
L 207.997343 160.827732 
L 208.997343 160.886821 
L 209.997343 160.975142 
L 210.997343 161.021287 
L 211.997343 161.063697 
L 212.997343 161.09419 
L 213.997343 161.120235 
L 214.997343 161.141435 
L 215.997343 161.195736 
L 216.997343 161.223674 
L 217.997343 161.253398 
L 218.997343 161.278793 
L 219.997343 161.289993 
L 220.997343 161.300117 
L 221.997343 161.299913 
L 222.997343 161.290403 
L 223.997343 161.278749 
L 224.997343 161.24772 
L 225.997343 161.236552 
L 226.997343 161.206434 
L 227.997343 161.146658 
L 228.997343 161.109466 
L 229.997343 161.07037 
L 230.997343 161.02793 
L 231.997343 160.995165 
L 232.997343 160.927739 
L 233.997343 160.888613 
L 234.997343 160.845938 
L 235.997343 160.775358 
L 236.997343 160.738967 
L 237.997343 160.680564 
L 238.997343 160.569611 
L 239.997343 160.498953 
L 240.997343 160.386013 
L 241.997343 160.34024 
L 242.997343 160.278957 
L 243.997343 160.230457 
L 244.997343 160.149635 
L 245.997343 160.031116 
L 246.997343 159.960905 
L 247.997343 159.877643 
L 248.997343 159.844501 
L 249.997343 159.793264 
L 250.997343 159.724865 
L 251.997343 159.65865 
L 252.997343 159.581733 
L 254.64282 159.554417 
" clip-path="url(#p5e739a42fe)" style="fill: none; stroke: #1f77b4; stroke-opacity: 0.5; stroke-width: 0.2; stroke-linecap: square"/>
   <path d="M 197.997343 184.479339 
L 198.997343 184.510775 
L 199.997343 184.547715 
L 200.997343 184.645462 
L 201.997343 184.677984 
L 202.997343 184.751608 
L 203.997343 184.790174 
L 204.997343 184.825587 
L 205.997343 184.883227 
L 206.997343 184.953613 
L 207.997343 185.005577 
L 208.997343 185.064667 
L 209.997343 185.152988 
L 210.997343 185.199132 
L 211.997343 185.241543 
L 212.997343 185.272036 
L 213.997343 185.298081 
L 214.997343 185.319281 
L 215.997343 185.373582 
L 216.997343 185.40152 
L 217.997343 185.431244 
L 218.997343 185.456638 
L 219.997343 185.467839 
L 220.997343 185.477963 
L 221.997343 185.477758 
L 222.997343 185.468249 
L 223.997343 185.456595 
L 224.997343 185.425566 
L 225.997343 185.414398 
L 226.997343 185.38428 
L 227.997343 185.324503 
L 228.997343 185.287312 
L 229.997343 185.248216 
L 230.997343 185.205776 
L 231.997343 185.173011 
L 232.997343 185.105585 
L 233.997343 185.066459 
L 234.997343 185.023784 
L 235.997343 184.953204 
L 236.997343 184.916813 
L 237.997343 184.858409 
L 238.997343 184.747457 
L 239.997343 184.676799 
L 240.997343 184.563859 
L 241.997343 184.518086 
L 242.997343 184.456803 
L 243.997343 184.408303 
L 244.997343 184.327481 
L 245.997343 184.208962 
L 246.997343 184.138751 
L 247.997343 184.055489 
L 248.997343 184.022347 
L 249.997343 183.97111 
L 250.997343 183.902711 
L 251.997343 183.836496 
L 252.997343 183.759579 
L 254.64282 183.732263 
" clip-path="url(#p5e739a42fe)" style="fill: none; stroke: #1f77b4; stroke-opacity: 0.5; stroke-width: 0.2; stroke-linecap: square"/>
   <path d="M 197.997343 97.140029 
L 198.997343 97.171465 
L 199.997343 97.208406 
L 200.997343 97.306152 
L 201.997343 97.338674 
L 202.997343 97.412299 
L 203.997343 97.450864 
L 204.997343 97.486277 
L 205.997343 97.543917 
L 206.997343 97.614304 
L 207.997343 97.666268 
L 208.997343 97.725358 
L 209.997343 97.813679 
L 210.997343 97.859823 
L 211.997343 97.902234 
L 212.997343 97.932726 
L 213.997343 97.958771 
L 214.997343 97.979971 
L 215.997343 98.034273 
L 216.997343 98.06221 
L 217.997343 98.091934 
L 218.997343 98.117329 
L 219.997343 98.128529 
L 220.997343 98.138653 
L 221.997343 98.138449 
L 222.997343 98.128939 
L 223.997343 98.117285 
L 224.997343 98.086256 
L 225.997343 98.075088 
L 226.997343 98.044971 
L 227.997343 97.985194 
L 228.997343 97.948002 
L 229.997343 97.908906 
L 230.997343 97.866467 
L 231.997343 97.833701 
L 232.997343 97.766275 
L 233.997343 97.727149 
L 234.997343 97.684475 
L 235.997343 97.613894 
L 236.997343 97.577503 
L 237.997343 97.5191 
L 238.997343 97.408147 
L 239.997343 97.337489 
L 240.997343 97.224549 
L 241.997343 97.178776 
L 242.997343 97.117493 
L 243.997343 97.068994 
L 244.997343 96.988171 
L 245.997343 96.869652 
L 246.997343 96.799441 
L 247.997343 96.716179 
L 248.997343 96.683037 
L 249.997343 96.6318 
L 250.997343 96.563402 
L 251.997343 96.497186 
L 252.997343 96.420269 
L 254.64282 96.392954 
" clip-path="url(#p5e739a42fe)" style="fill: none; stroke: #1f77b4; stroke-opacity: 0.5; stroke-width: 0.2; stroke-linecap: square"/>
   <path d="M 197.997343 149.643026 
L 198.997343 149.674462 
L 199.997343 149.711403 
L 200.997343 149.809149 
L 201.997343 149.841671 
L 202.997343 149.915296 
L 203.997343 149.953861 
L 204.997343 149.989274 
L 205.997343 150.046914 
L 206.997343 150.1173 
L 207.997343 150.169265 
L 208.997343 150.228354 
L 209.997343 150.316675 
L 210.997343 150.36282 
L 211.997343 150.405231 
L 212.997343 150.435723 
L 213.997343 150.461768 
L 214.997343 150.482968 
L 215.997343 150.537269 
L 216.997343 150.565207 
L 217.997343 150.594931 
L 218.997343 150.620326 
L 219.997343 150.631526 
L 220.997343 150.64165 
L 221.997343 150.641446 
L 222.997343 150.631936 
L 223.997343 150.620282 
L 224.997343 150.589253 
L 225.997343 150.578085 
L 226.997343 150.547968 
L 227.997343 150.488191 
L 228.997343 150.450999 
L 229.997343 150.411903 
L 230.997343 150.369463 
L 231.997343 150.336698 
L 232.997343 150.269272 
L 233.997343 150.230146 
L 234.997343 150.187471 
L 235.997343 150.116891 
L 236.997343 150.0805 
L 237.997343 150.022097 
L 238.997343 149.911144 
L 239.997343 149.840486 
L 240.997343 149.727546 
L 241.997343 149.681773 
L 242.997343 149.62049 
L 243.997343 149.571991 
L 244.997343 149.491168 
L 245.997343 149.372649 
L 246.997343 149.302438 
L 247.997343 149.219176 
L 248.997343 149.186034 
L 249.997343 149.134797 
L 250.997343 149.066398 
L 251.997343 149.000183 
L 252.997343 148.923266 
L 254.64282 148.89595 
" clip-path="url(#p5e739a42fe)" style="fill: none; stroke: #1f77b4; stroke-opacity: 0.5; stroke-width: 0.2; stroke-linecap: square"/>
   <path d="M 389.13843 164.308606 
L 390.13843 164.340043 
L 391.13843 164.376983 
L 392.13843 164.47473 
L 393.13843 164.507251 
L 394.13843 164.580876 
L 395.13843 164.619442 
L 396.13843 164.654855 
L 397.13843 164.712495 
L 398.13843 164.782881 
L 399.13843 164.834845 
L 400.13843 164.893935 
L 401.13843 164.982256 
L 402.13843 165.0284 
L 403.13843 165.070811 
L 404.13843 165.101304 
L 405.13843 165.127349 
L 406.13843 165.148549 
L 407.13843 165.20285 
L 408.13843 165.230787 
L 409.13843 165.260511 
L 410.13843 165.285906 
L 411.13843 165.297107 
L 412.13843 165.307231 
L 413.13843 165.307026 
L 414.13843 165.297516 
L 415.13843 165.285863 
L 416.13843 165.254834 
L 417.13843 165.243666 
L 418.13843 165.213548 
L 419.13843 165.153771 
L 420.13843 165.11658 
L 421.13843 165.077484 
L 422.13843 165.035044 
L 423.13843 165.002279 
L 424.13843 164.934852 
L 425.13843 164.895726 
L 426.13843 164.853052 
L 427.13843 164.782471 
L 428.13843 164.74608 
L 429.13843 164.687677 
L 430.13843 164.576725 
L 431.13843 164.506066 
L 432.13843 164.393126 
L 433.13843 164.347354 
L 434.13843 164.28607 
L 435.13843 164.237571 
L 436.13843 164.156748 
L 437.13843 164.038229 
L 438.13843 163.968019 
L 439.13843 163.884756 
L 440.13843 163.851615 
L 441.13843 163.800377 
L 442.13843 163.731979 
L 443.13843 163.665763 
L 444.13843 163.588846 
L 445.783907 163.561531 
" clip-path="url(#p5e739a42fe)" style="fill: none; stroke: #ff7f0e; stroke-opacity: 0.5; stroke-width: 0.2; stroke-linecap: square"/>
   <path d="M 389.13843 98.382167 
L 390.13843 98.413603 
L 391.13843 98.450543 
L 392.13843 98.54829 
L 393.13843 98.580812 
L 394.13843 98.654436 
L 395.13843 98.693002 
L 396.13843 98.728415 
L 397.13843 98.786055 
L 398.13843 98.856441 
L 399.13843 98.908405 
L 400.13843 98.967495 
L 401.13843 99.055816 
L 402.13843 99.10196 
L 403.13843 99.144371 
L 404.13843 99.174864 
L 405.13843 99.200909 
L 406.13843 99.222109 
L 407.13843 99.27641 
L 408.13843 99.304348 
L 409.13843 99.334072 
L 410.13843 99.359466 
L 411.13843 99.370667 
L 412.13843 99.380791 
L 413.13843 99.380586 
L 414.13843 99.371077 
L 415.13843 99.359423 
L 416.13843 99.328394 
L 417.13843 99.317226 
L 418.13843 99.287108 
L 419.13843 99.227331 
L 420.13843 99.19014 
L 421.13843 99.151044 
L 422.13843 99.108604 
L 423.13843 99.075839 
L 424.13843 99.008413 
L 425.13843 98.969287 
L 426.13843 98.926612 
L 427.13843 98.856031 
L 428.13843 98.819641 
L 429.13843 98.761237 
L 430.13843 98.650285 
L 431.13843 98.579627 
L 432.13843 98.466687 
L 433.13843 98.420914 
L 434.13843 98.359631 
L 435.13843 98.311131 
L 436.13843 98.230309 
L 437.13843 98.11179 
L 438.13843 98.041579 
L 439.13843 97.958317 
L 440.13843 97.925175 
L 441.13843 97.873937 
L 442.13843 97.805539 
L 443.13843 97.739324 
L 444.13843 97.662407 
L 445.783907 97.635091 
" clip-path="url(#p5e739a42fe)" style="fill: none; stroke: #ff7f0e; stroke-opacity: 0.5; stroke-width: 0.2; stroke-linecap: square"/>
   <path d="M 389.13843 100.209299 
L 390.13843 100.240735 
L 391.13843 100.277676 
L 392.13843 100.375422 
L 393.13843 100.407944 
L 394.13843 100.481568 
L 395.13843 100.520134 
L 396.13843 100.555547 
L 397.13843 100.613187 
L 398.13843 100.683573 
L 399.13843 100.735538 
L 400.13843 100.794627 
L 401.13843 100.882948 
L 402.13843 100.929093 
L 403.13843 100.971504 
L 404.13843 101.001996 
L 405.13843 101.028041 
L 406.13843 101.049241 
L 407.13843 101.103542 
L 408.13843 101.13148 
L 409.13843 101.161204 
L 410.13843 101.186599 
L 411.13843 101.197799 
L 412.13843 101.207923 
L 413.13843 101.207719 
L 414.13843 101.198209 
L 415.13843 101.186555 
L 416.13843 101.155526 
L 417.13843 101.144358 
L 418.13843 101.114241 
L 419.13843 101.054464 
L 420.13843 101.017272 
L 421.13843 100.978176 
L 422.13843 100.935736 
L 423.13843 100.902971 
L 424.13843 100.835545 
L 425.13843 100.796419 
L 426.13843 100.753744 
L 427.13843 100.683164 
L 428.13843 100.646773 
L 429.13843 100.58837 
L 430.13843 100.477417 
L 431.13843 100.406759 
L 432.13843 100.293819 
L 433.13843 100.248046 
L 434.13843 100.186763 
L 435.13843 100.138263 
L 436.13843 100.057441 
L 437.13843 99.938922 
L 438.13843 99.868711 
L 439.13843 99.785449 
L 440.13843 99.752307 
L 441.13843 99.70107 
L 442.13843 99.632671 
L 443.13843 99.566456 
L 444.13843 99.489539 
L 445.783907 99.462223 
" clip-path="url(#p5e739a42fe)" style="fill: none; stroke: #ff7f0e; stroke-opacity: 0.5; stroke-width: 0.2; stroke-linecap: square"/>
   <path d="M 389.13843 134.098519 
L 390.13843 134.129955 
L 391.13843 134.166895 
L 392.13843 134.264642 
L 393.13843 134.297163 
L 394.13843 134.370788 
L 395.13843 134.409354 
L 396.13843 134.444767 
L 397.13843 134.502407 
L 398.13843 134.572793 
L 399.13843 134.624757 
L 400.13843 134.683847 
L 401.13843 134.772168 
L 402.13843 134.818312 
L 403.13843 134.860723 
L 404.13843 134.891216 
L 405.13843 134.917261 
L 406.13843 134.938461 
L 407.13843 134.992762 
L 408.13843 135.0207 
L 409.13843 135.050424 
L 410.13843 135.075818 
L 411.13843 135.087019 
L 412.13843 135.097143 
L 413.13843 135.096938 
L 414.13843 135.087428 
L 415.13843 135.075775 
L 416.13843 135.044746 
L 417.13843 135.033578 
L 418.13843 135.00346 
L 419.13843 134.943683 
L 420.13843 134.906492 
L 421.13843 134.867396 
L 422.13843 134.824956 
L 423.13843 134.792191 
L 424.13843 134.724764 
L 425.13843 134.685639 
L 426.13843 134.642964 
L 427.13843 134.572383 
L 428.13843 134.535992 
L 429.13843 134.477589 
L 430.13843 134.366637 
L 431.13843 134.295978 
L 432.13843 134.183039 
L 433.13843 134.137266 
L 434.13843 134.075982 
L 435.13843 134.027483 
L 436.13843 133.94666 
L 437.13843 133.828142 
L 438.13843 133.757931 
L 439.13843 133.674668 
L 440.13843 133.641527 
L 441.13843 133.590289 
L 442.13843 133.521891 
L 443.13843 133.455676 
L 444.13843 133.378759 
L 445.783907 133.351443 
" clip-path="url(#p5e739a42fe)" style="fill: none; stroke: #ff7f0e; stroke-opacity: 0.5; stroke-width: 0.2; stroke-linecap: square"/>
   <path d="M 389.13843 95.644559 
L 390.13843 95.675995 
L 391.13843 95.712935 
L 392.13843 95.810682 
L 393.13843 95.843204 
L 394.13843 95.916828 
L 395.13843 95.955394 
L 396.13843 95.990807 
L 397.13843 96.048447 
L 398.13843 96.118833 
L 399.13843 96.170797 
L 400.13843 96.229887 
L 401.13843 96.318208 
L 402.13843 96.364352 
L 403.13843 96.406763 
L 404.13843 96.437256 
L 405.13843 96.463301 
L 406.13843 96.484501 
L 407.13843 96.538802 
L 408.13843 96.56674 
L 409.13843 96.596464 
L 410.13843 96.621858 
L 411.13843 96.633059 
L 412.13843 96.643183 
L 413.13843 96.642978 
L 414.13843 96.633469 
L 415.13843 96.621815 
L 416.13843 96.590786 
L 417.13843 96.579618 
L 418.13843 96.5495 
L 419.13843 96.489723 
L 420.13843 96.452532 
L 421.13843 96.413436 
L 422.13843 96.370996 
L 423.13843 96.338231 
L 424.13843 96.270805 
L 425.13843 96.231679 
L 426.13843 96.189004 
L 427.13843 96.118424 
L 428.13843 96.082033 
L 429.13843 96.023629 
L 430.13843 95.912677 
L 431.13843 95.842019 
L 432.13843 95.729079 
L 433.13843 95.683306 
L 434.13843 95.622023 
L 435.13843 95.573523 
L 436.13843 95.492701 
L 437.13843 95.374182 
L 438.13843 95.303971 
L 439.13843 95.220709 
L 440.13843 95.187567 
L 441.13843 95.13633 
L 442.13843 95.067931 
L 443.13843 95.001716 
L 444.13843 94.924799 
L 445.783907 94.897483 
" clip-path="url(#p5e739a42fe)" style="fill: none; stroke: #ff7f0e; stroke-opacity: 0.5; stroke-width: 0.2; stroke-linecap: square"/>
   <path d="M 389.13843 164.53795 
L 390.13843 164.569386 
L 391.13843 164.606326 
L 392.13843 164.704073 
L 393.13843 164.736594 
L 394.13843 164.810219 
L 395.13843 164.848785 
L 396.13843 164.884198 
L 397.13843 164.941838 
L 398.13843 165.012224 
L 399.13843 165.064188 
L 400.13843 165.123278 
L 401.13843 165.211599 
L 402.13843 165.257743 
L 403.13843 165.300154 
L 404.13843 165.330647 
L 405.13843 165.356692 
L 406.13843 165.377892 
L 407.13843 165.432193 
L 408.13843 165.460131 
L 409.13843 165.489855 
L 410.13843 165.515249 
L 411.13843 165.52645 
L 412.13843 165.536574 
L 413.13843 165.536369 
L 414.13843 165.526859 
L 415.13843 165.515206 
L 416.13843 165.484177 
L 417.13843 165.473009 
L 418.13843 165.442891 
L 419.13843 165.383114 
L 420.13843 165.345923 
L 421.13843 165.306827 
L 422.13843 165.264387 
L 423.13843 165.231622 
L 424.13843 165.164195 
L 425.13843 165.125069 
L 426.13843 165.082395 
L 427.13843 165.011814 
L 428.13843 164.975423 
L 429.13843 164.91702 
L 430.13843 164.806068 
L 431.13843 164.735409 
L 432.13843 164.62247 
L 433.13843 164.576697 
L 434.13843 164.515413 
L 435.13843 164.466914 
L 436.13843 164.386091 
L 437.13843 164.267573 
L 438.13843 164.197362 
L 439.13843 164.114099 
L 440.13843 164.080958 
L 441.13843 164.02972 
L 442.13843 163.961322 
L 443.13843 163.895107 
L 444.13843 163.818189 
L 445.783907 163.790874 
" clip-path="url(#p5e739a42fe)" style="fill: none; stroke: #ff7f0e; stroke-opacity: 0.5; stroke-width: 0.2; stroke-linecap: square"/>
   <path d="M 389.13843 146.227505 
L 390.13843 146.258942 
L 391.13843 146.295882 
L 392.13843 146.393629 
L 393.13843 146.42615 
L 394.13843 146.499775 
L 395.13843 146.538341 
L 396.13843 146.573754 
L 397.13843 146.631394 
L 398.13843 146.70178 
L 399.13843 146.753744 
L 400.13843 146.812834 
L 401.13843 146.901155 
L 402.13843 146.947299 
L 403.13843 146.98971 
L 404.13843 147.020203 
L 405.13843 147.046248 
L 406.13843 147.067448 
L 407.13843 147.121749 
L 408.13843 147.149686 
L 409.13843 147.17941 
L 410.13843 147.204805 
L 411.13843 147.216006 
L 412.13843 147.22613 
L 413.13843 147.225925 
L 414.13843 147.216415 
L 415.13843 147.204762 
L 416.13843 147.173733 
L 417.13843 147.162565 
L 418.13843 147.132447 
L 419.13843 147.07267 
L 420.13843 147.035479 
L 421.13843 146.996383 
L 422.13843 146.953943 
L 423.13843 146.921178 
L 424.13843 146.853751 
L 425.13843 146.814625 
L 426.13843 146.771951 
L 427.13843 146.70137 
L 428.13843 146.664979 
L 429.13843 146.606576 
L 430.13843 146.495624 
L 431.13843 146.424965 
L 432.13843 146.312026 
L 433.13843 146.266253 
L 434.13843 146.204969 
L 435.13843 146.15647 
L 436.13843 146.075647 
L 437.13843 145.957128 
L 438.13843 145.886918 
L 439.13843 145.803655 
L 440.13843 145.770514 
L 441.13843 145.719276 
L 442.13843 145.650878 
L 443.13843 145.584662 
L 444.13843 145.507745 
L 445.783907 145.48043 
" clip-path="url(#p5e739a42fe)" style="fill: none; stroke: #ff7f0e; stroke-opacity: 0.5; stroke-width: 0.2; stroke-linecap: square"/>
   <path d="M 389.13843 116.602391 
L 390.13843 116.633828 
L 391.13843 116.670768 
L 392.13843 116.768515 
L 393.13843 116.801036 
L 394.13843 116.874661 
L 395.13843 116.913227 
L 396.13843 116.94864 
L 397.13843 117.00628 
L 398.13843 117.076666 
L 399.13843 117.12863 
L 400.13843 117.18772 
L 401.13843 117.276041 
L 402.13843 117.322185 
L 403.13843 117.364596 
L 404.13843 117.395089 
L 405.13843 117.421134 
L 406.13843 117.442334 
L 407.13843 117.496635 
L 408.13843 117.524572 
L 409.13843 117.554296 
L 410.13843 117.579691 
L 411.13843 117.590892 
L 412.13843 117.601016 
L 413.13843 117.600811 
L 414.13843 117.591301 
L 415.13843 117.579648 
L 416.13843 117.548619 
L 417.13843 117.537451 
L 418.13843 117.507333 
L 419.13843 117.447556 
L 420.13843 117.410365 
L 421.13843 117.371269 
L 422.13843 117.328829 
L 423.13843 117.296064 
L 424.13843 117.228637 
L 425.13843 117.189511 
L 426.13843 117.146837 
L 427.13843 117.076256 
L 428.13843 117.039865 
L 429.13843 116.981462 
L 430.13843 116.87051 
L 431.13843 116.799851 
L 432.13843 116.686911 
L 433.13843 116.641139 
L 434.13843 116.579855 
L 435.13843 116.531356 
L 436.13843 116.450533 
L 437.13843 116.332014 
L 438.13843 116.261804 
L 439.13843 116.178541 
L 440.13843 116.1454 
L 441.13843 116.094162 
L 442.13843 116.025764 
L 443.13843 115.959548 
L 444.13843 115.882631 
L 445.783907 115.855316 
" clip-path="url(#p5e739a42fe)" style="fill: none; stroke: #ff7f0e; stroke-opacity: 0.5; stroke-width: 0.2; stroke-linecap: square"/>
   <path d="M 389.13843 145.049529 
L 390.13843 145.080966 
L 391.13843 145.117906 
L 392.13843 145.215652 
L 393.13843 145.248174 
L 394.13843 145.321799 
L 395.13843 145.360364 
L 396.13843 145.395778 
L 397.13843 145.453417 
L 398.13843 145.523804 
L 399.13843 145.575768 
L 400.13843 145.634858 
L 401.13843 145.723179 
L 402.13843 145.769323 
L 403.13843 145.811734 
L 404.13843 145.842226 
L 405.13843 145.868271 
L 406.13843 145.889472 
L 407.13843 145.943773 
L 408.13843 145.97171 
L 409.13843 146.001434 
L 410.13843 146.026829 
L 411.13843 146.038029 
L 412.13843 146.048153 
L 413.13843 146.047949 
L 414.13843 146.038439 
L 415.13843 146.026786 
L 416.13843 145.995756 
L 417.13843 145.984588 
L 418.13843 145.954471 
L 419.13843 145.894694 
L 420.13843 145.857502 
L 421.13843 145.818406 
L 422.13843 145.775967 
L 423.13843 145.743202 
L 424.13843 145.675775 
L 425.13843 145.636649 
L 426.13843 145.593975 
L 427.13843 145.523394 
L 428.13843 145.487003 
L 429.13843 145.4286 
L 430.13843 145.317647 
L 431.13843 145.246989 
L 432.13843 145.134049 
L 433.13843 145.088276 
L 434.13843 145.026993 
L 435.13843 144.978494 
L 436.13843 144.897671 
L 437.13843 144.779152 
L 438.13843 144.708942 
L 439.13843 144.625679 
L 440.13843 144.592537 
L 441.13843 144.5413 
L 442.13843 144.472902 
L 443.13843 144.406686 
L 444.13843 144.329769 
L 445.783907 144.302454 
" clip-path="url(#p5e739a42fe)" style="fill: none; stroke: #ff7f0e; stroke-opacity: 0.5; stroke-width: 0.2; stroke-linecap: square"/>
   <path d="M 389.13843 194.519377 
L 390.13843 194.550813 
L 391.13843 194.587754 
L 392.13843 194.6855 
L 393.13843 194.718022 
L 394.13843 194.791646 
L 395.13843 194.830212 
L 396.13843 194.865625 
L 397.13843 194.923265 
L 398.13843 194.993651 
L 399.13843 195.045615 
L 400.13843 195.104705 
L 401.13843 195.193026 
L 402.13843 195.23917 
L 403.13843 195.281581 
L 404.13843 195.312074 
L 405.13843 195.338119 
L 406.13843 195.359319 
L 407.13843 195.41362 
L 408.13843 195.441558 
L 409.13843 195.471282 
L 410.13843 195.496677 
L 411.13843 195.507877 
L 412.13843 195.518001 
L 413.13843 195.517797 
L 414.13843 195.508287 
L 415.13843 195.496633 
L 416.13843 195.465604 
L 417.13843 195.454436 
L 418.13843 195.424318 
L 419.13843 195.364541 
L 420.13843 195.32735 
L 421.13843 195.288254 
L 422.13843 195.245814 
L 423.13843 195.213049 
L 424.13843 195.145623 
L 425.13843 195.106497 
L 426.13843 195.063822 
L 427.13843 194.993242 
L 428.13843 194.956851 
L 429.13843 194.898448 
L 430.13843 194.787495 
L 431.13843 194.716837 
L 432.13843 194.603897 
L 433.13843 194.558124 
L 434.13843 194.496841 
L 435.13843 194.448341 
L 436.13843 194.367519 
L 437.13843 194.249 
L 438.13843 194.178789 
L 439.13843 194.095527 
L 440.13843 194.062385 
L 441.13843 194.011148 
L 442.13843 193.942749 
L 443.13843 193.876534 
L 444.13843 193.799617 
L 445.783907 193.772301 
" clip-path="url(#p5e739a42fe)" style="fill: none; stroke: #ff7f0e; stroke-opacity: 0.5; stroke-width: 0.2; stroke-linecap: square"/>
   <g id="patch_3">
    <path d="M 69.06392 22.318125 
L 69.06392 318.021875 
M 192.435156 22.318125 
L 192.435156 318.021875 
" clip-path="url(#p5e739a42fe)" style="fill: none; stroke: #ffffff; stroke-width: 3; stroke-linejoin: miter"/>
    <path d="M 69.06392 22.318125 
L 69.06392 318.021875 
M 192.435156 22.318125 
L 192.435156 318.021875 
" clip-path="url(#p5e739a42fe)" style="fill: none; stroke: #1f77b4; stroke-linejoin: miter"/>
    <g id="PolyCollection_1">
     <path d="M 192.435156 22.318125 
L 69.06392 22.318125 
L 69.06392 318.021875 
L 192.435156 318.021875 
L 192.435156 318.021875 
L 192.435156 22.318125 
z
" clip-path="url(#p5e739a42fe)" style="fill: #1f77b4; fill-opacity: 0.5"/>
    </g>
    <g id="patch_4">
     <path d="M 260.205007 22.318125 
L 260.205007 318.021875 
M 383.576243 22.318125 
L 383.576243 318.021875 
" clip-path="url(#p5e739a42fe)" style="fill: none; stroke: #ffffff; stroke-width: 3; stroke-linejoin: miter"/>
     <path d="M 260.205007 22.318125 
L 260.205007 318.021875 
M 383.576243 22.318125 
L 383.576243 318.021875 
" clip-path="url(#p5e739a42fe)" style="fill: none; stroke: #ff7f0e; stroke-linejoin: miter"/>
     <g id="PolyCollection_2">
      <path d="M 383.576243 22.318125 
L 260.205007 22.318125 
L 260.205007 318.021875 
L 383.576243 318.021875 
L 383.576243 318.021875 
L 383.576243 22.318125 
z
" clip-path="url(#p5e739a42fe)" style="fill: #ff7f0e; fill-opacity: 0.5"/>
     </g>
     <g id="patch_5">
      <path d="M 451.346094 22.318125 
L 451.346094 318.021875 
M 574.71733 22.318125 
L 574.71733 318.021875 
" clip-path="url(#p5e739a42fe)" style="fill: none; stroke: #ffffff; stroke-width: 3; stroke-linejoin: miter"/>
      <path d="M 451.346094 22.318125 
L 451.346094 318.021875 
M 574.71733 22.318125 
L 574.71733 318.021875 
" clip-path="url(#p5e739a42fe)" style="fill: none; stroke: #2ca02c; stroke-linejoin: miter"/>
      <g id="PolyCollection_3">
       <path d="M 574.71733 22.318125 
L 451.346094 22.318125 
L 451.346094 318.021875 
L 574.71733 318.021875 
L 574.71733 318.021875 
L 574.71733 22.318125 
z
" clip-path="url(#p5e739a42fe)" style="fill: #2ca02c; fill-opacity: 0.5"/>
      </g>
      <g id="matplotlib.axis_1">
       <g id="xtick_1">
        <g id="line2d_1"/>
        <g id="text_1">
         <!-- deme0 -->
         <g transform="translate(113.370632 329.120312) scale(0.1 -0.1)">
          <defs>
           <path id="DejaVuSans-64" d="M 2906 2969 
L 2906 4863 
L 3481 4863 
L 3481 0 
L 2906 0 
L 2906 525 
Q 2725 213 2448 61 
Q 2172 -91 1784 -91 
Q 1150 -91 751 415 
Q 353 922 353 1747 
Q 353 2572 751 3078 
Q 1150 3584 1784 3584 
Q 2172 3584 2448 3432 
Q 2725 3281 2906 2969 
z
M 947 1747 
Q 947 1113 1208 752 
Q 1469 391 1925 391 
Q 2381 391 2643 752 
Q 2906 1113 2906 1747 
Q 2906 2381 2643 2742 
Q 2381 3103 1925 3103 
Q 1469 3103 1208 2742 
Q 947 2381 947 1747 
z
" transform="scale(0.015625)"/>
           <path id="DejaVuSans-65" d="M 3597 1894 
L 3597 1613 
L 953 1613 
Q 991 1019 1311 708 
Q 1631 397 2203 397 
Q 2534 397 2845 478 
Q 3156 559 3463 722 
L 3463 178 
Q 3153 47 2828 -22 
Q 2503 -91 2169 -91 
Q 1331 -91 842 396 
Q 353 884 353 1716 
Q 353 2575 817 3079 
Q 1281 3584 2069 3584 
Q 2775 3584 3186 3129 
Q 3597 2675 3597 1894 
z
M 3022 2063 
Q 3016 2534 2758 2815 
Q 2500 3097 2075 3097 
Q 1594 3097 1305 2825 
Q 1016 2553 972 2059 
L 3022 2063 
z
" transform="scale(0.015625)"/>
           <path id="DejaVuSans-6d" d="M 3328 2828 
Q 3544 3216 3844 3400 
Q 4144 3584 4550 3584 
Q 5097 3584 5394 3201 
Q 5691 2819 5691 2113 
L 5691 0 
L 5113 0 
L 5113 2094 
Q 5113 2597 4934 2840 
Q 4756 3084 4391 3084 
Q 3944 3084 3684 2787 
Q 3425 2491 3425 1978 
L 3425 0 
L 2847 0 
L 2847 2094 
Q 2847 2600 2669 2842 
Q 2491 3084 2119 3084 
Q 1678 3084 1418 2786 
Q 1159 2488 1159 1978 
L 1159 0 
L 581 0 
L 581 3500 
L 1159 3500 
L 1159 2956 
Q 1356 3278 1631 3431 
Q 1906 3584 2284 3584 
Q 2666 3584 2933 3390 
Q 3200 3197 3328 2828 
z
" transform="scale(0.015625)"/>
           <path id="DejaVuSans-30" d="M 2034 4250 
Q 1547 4250 1301 3770 
Q 1056 3291 1056 2328 
Q 1056 1369 1301 889 
Q 1547 409 2034 409 
Q 2525 409 2770 889 
Q 3016 1369 3016 2328 
Q 3016 3291 2770 3770 
Q 2525 4250 2034 4250 
z
M 2034 4750 
Q 2819 4750 3233 4129 
Q 3647 3509 3647 2328 
Q 3647 1150 3233 529 
Q 2819 -91 2034 -91 
Q 1250 -91 836 529 
Q 422 1150 422 2328 
Q 422 3509 836 4129 
Q 1250 4750 2034 4750 
z
" transform="scale(0.015625)"/>
          </defs>
          <use xlink:href="#DejaVuSans-64"/>
          <use xlink:href="#DejaVuSans-65" x="63.476562"/>
          <use xlink:href="#DejaVuSans-6d" x="125"/>
          <use xlink:href="#DejaVuSans-65" x="222.412109"/>
          <use xlink:href="#DejaVuSans-30" x="283.935547"/>
         </g>
        </g>
       </g>
       <g id="xtick_2">
        <g id="line2d_2"/>
        <g id="text_2">
         <!-- deme1 -->
         <g transform="translate(304.511719 329.120312) scale(0.1 -0.1)">
          <defs>
           <path id="DejaVuSans-31" d="M 794 531 
L 1825 531 
L 1825 4091 
L 703 3866 
L 703 4441 
L 1819 4666 
L 2450 4666 
L 2450 531 
L 3481 531 
L 3481 0 
L 794 0 
L 794 531 
z
" transform="scale(0.015625)"/>
          </defs>
          <use xlink:href="#DejaVuSans-64"/>
          <use xlink:href="#DejaVuSans-65" x="63.476562"/>
          <use xlink:href="#DejaVuSans-6d" x="125"/>
          <use xlink:href="#DejaVuSans-65" x="222.412109"/>
          <use xlink:href="#DejaVuSans-31" x="283.935547"/>
         </g>
        </g>
       </g>
       <g id="xtick_3">
        <g id="line2d_3"/>
        <g id="text_3">
         <!-- deme2 -->
         <g transform="translate(495.652806 329.120312) scale(0.1 -0.1)">
          <defs>
           <path id="DejaVuSans-32" d="M 1228 531 
L 3431 531 
L 3431 0 
L 469 0 
L 469 531 
Q 828 903 1448 1529 
Q 2069 2156 2228 2338 
Q 2531 2678 2651 2914 
Q 2772 3150 2772 3378 
Q 2772 3750 2511 3984 
Q 2250 4219 1831 4219 
Q 1534 4219 1204 4116 
Q 875 4013 500 3803 
L 500 4441 
Q 881 4594 1212 4672 
Q 1544 4750 1819 4750 
Q 2544 4750 2975 4387 
Q 3406 4025 3406 3419 
Q 3406 3131 3298 2873 
Q 3191 2616 2906 2266 
Q 2828 2175 2409 1742 
Q 1991 1309 1228 531 
z
" transform="scale(0.015625)"/>
          </defs>
          <use xlink:href="#DejaVuSans-64"/>
          <use xlink:href="#DejaVuSans-65" x="63.476562"/>
          <use xlink:href="#DejaVuSans-6d" x="125"/>
          <use xlink:href="#DejaVuSans-65" x="222.412109"/>
          <use xlink:href="#DejaVuSans-32" x="283.935547"/>
         </g>
        </g>
       </g>
      </g>
      <g id="matplotlib.axis_2">
       <g id="ytick_1">
        <g id="line2d_4">
         <defs>
          <path id="m52abb962c5" d="M 0 0 
L -3.5 0 
" style="stroke: #000000; stroke-width: 0.8"/>
         </defs>
         <g>
          <use xlink:href="#m52abb962c5" x="43.78125" y="318.021875" style="stroke: #000000; stroke-width: 0.8"/>
         </g>
        </g>
        <g id="text_4">
         <!-- 0.0 -->
         <g transform="translate(20.878125 321.821094) scale(0.1 -0.1)">
          <defs>
           <path id="DejaVuSans-2e" d="M 684 794 
L 1344 794 
L 1344 0 
L 684 0 
L 684 794 
z
" transform="scale(0.015625)"/>
          </defs>
          <use xlink:href="#DejaVuSans-30"/>
          <use xlink:href="#DejaVuSans-2e" x="63.623047"/>
          <use xlink:href="#DejaVuSans-30" x="95.410156"/>
         </g>
        </g>
       </g>
       <g id="ytick_2">
        <g id="line2d_5">
         <g>
          <use xlink:href="#m52abb962c5" x="43.78125" y="258.881125" style="stroke: #000000; stroke-width: 0.8"/>
         </g>
        </g>
        <g id="text_5">
         <!-- 0.5 -->
         <g transform="translate(20.878125 262.680344) scale(0.1 -0.1)">
          <defs>
           <path id="DejaVuSans-35" d="M 691 4666 
L 3169 4666 
L 3169 4134 
L 1269 4134 
L 1269 2991 
Q 1406 3038 1543 3061 
Q 1681 3084 1819 3084 
Q 2600 3084 3056 2656 
Q 3513 2228 3513 1497 
Q 3513 744 3044 326 
Q 2575 -91 1722 -91 
Q 1428 -91 1123 -41 
Q 819 9 494 109 
L 494 744 
Q 775 591 1075 516 
Q 1375 441 1709 441 
Q 2250 441 2565 725 
Q 2881 1009 2881 1497 
Q 2881 1984 2565 2268 
Q 2250 2553 1709 2553 
Q 1456 2553 1204 2497 
Q 953 2441 691 2322 
L 691 4666 
z
" transform="scale(0.015625)"/>
          </defs>
          <use xlink:href="#DejaVuSans-30"/>
          <use xlink:href="#DejaVuSans-2e" x="63.623047"/>
          <use xlink:href="#DejaVuSans-35" x="95.410156"/>
         </g>
        </g>
       </g>
       <g id="ytick_3">
        <g id="line2d_6">
         <g>
          <use xlink:href="#m52abb962c5" x="43.78125" y="199.740375" style="stroke: #000000; stroke-width: 0.8"/>
         </g>
        </g>
        <g id="text_6">
         <!-- 1.0 -->
         <g transform="translate(20.878125 203.539594) scale(0.1 -0.1)">
          <use xlink:href="#DejaVuSans-31"/>
          <use xlink:href="#DejaVuSans-2e" x="63.623047"/>
          <use xlink:href="#DejaVuSans-30" x="95.410156"/>
         </g>
        </g>
       </g>
       <g id="ytick_4">
        <g id="line2d_7">
         <g>
          <use xlink:href="#m52abb962c5" x="43.78125" y="140.599625" style="stroke: #000000; stroke-width: 0.8"/>
         </g>
        </g>
        <g id="text_7">
         <!-- 1.5 -->
         <g transform="translate(20.878125 144.398844) scale(0.1 -0.1)">
          <use xlink:href="#DejaVuSans-31"/>
          <use xlink:href="#DejaVuSans-2e" x="63.623047"/>
          <use xlink:href="#DejaVuSans-35" x="95.410156"/>
         </g>
        </g>
       </g>
       <g id="ytick_5">
        <g id="line2d_8">
         <g>
          <use xlink:href="#m52abb962c5" x="43.78125" y="81.458875" style="stroke: #000000; stroke-width: 0.8"/>
         </g>
        </g>
        <g id="text_8">
         <!-- 2.0 -->
         <g transform="translate(20.878125 85.258094) scale(0.1 -0.1)">
          <use xlink:href="#DejaVuSans-32"/>
          <use xlink:href="#DejaVuSans-2e" x="63.623047"/>
          <use xlink:href="#DejaVuSans-30" x="95.410156"/>
         </g>
        </g>
       </g>
       <g id="ytick_6">
        <g id="line2d_9">
         <g>
          <use xlink:href="#m52abb962c5" x="43.78125" y="22.318125" style="stroke: #000000; stroke-width: 0.8"/>
         </g>
        </g>
        <g id="text_9">
         <!-- 2.5 -->
         <g transform="translate(20.878125 26.117344) scale(0.1 -0.1)">
          <use xlink:href="#DejaVuSans-32"/>
          <use xlink:href="#DejaVuSans-2e" x="63.623047"/>
          <use xlink:href="#DejaVuSans-35" x="95.410156"/>
         </g>
        </g>
       </g>
       <g id="text_10">
        <!-- time ago (generations) -->
        <g transform="translate(14.798438 227.641094) rotate(-90) scale(0.1 -0.1)">
         <defs>
          <path id="DejaVuSans-74" d="M 1172 4494 
L 1172 3500 
L 2356 3500 
L 2356 3053 
L 1172 3053 
L 1172 1153 
Q 1172 725 1289 603 
Q 1406 481 1766 481 
L 2356 481 
L 2356 0 
L 1766 0 
Q 1100 0 847 248 
Q 594 497 594 1153 
L 594 3053 
L 172 3053 
L 172 3500 
L 594 3500 
L 594 4494 
L 1172 4494 
z
" transform="scale(0.015625)"/>
          <path id="DejaVuSans-69" d="M 603 3500 
L 1178 3500 
L 1178 0 
L 603 0 
L 603 3500 
z
M 603 4863 
L 1178 4863 
L 1178 4134 
L 603 4134 
L 603 4863 
z
" transform="scale(0.015625)"/>
          <path id="DejaVuSans-20" transform="scale(0.015625)"/>
          <path id="DejaVuSans-61" d="M 2194 1759 
Q 1497 1759 1228 1600 
Q 959 1441 959 1056 
Q 959 750 1161 570 
Q 1363 391 1709 391 
Q 2188 391 2477 730 
Q 2766 1069 2766 1631 
L 2766 1759 
L 2194 1759 
z
M 3341 1997 
L 3341 0 
L 2766 0 
L 2766 531 
Q 2569 213 2275 61 
Q 1981 -91 1556 -91 
Q 1019 -91 701 211 
Q 384 513 384 1019 
Q 384 1609 779 1909 
Q 1175 2209 1959 2209 
L 2766 2209 
L 2766 2266 
Q 2766 2663 2505 2880 
Q 2244 3097 1772 3097 
Q 1472 3097 1187 3025 
Q 903 2953 641 2809 
L 641 3341 
Q 956 3463 1253 3523 
Q 1550 3584 1831 3584 
Q 2591 3584 2966 3190 
Q 3341 2797 3341 1997 
z
" transform="scale(0.015625)"/>
          <path id="DejaVuSans-67" d="M 2906 1791 
Q 2906 2416 2648 2759 
Q 2391 3103 1925 3103 
Q 1463 3103 1205 2759 
Q 947 2416 947 1791 
Q 947 1169 1205 825 
Q 1463 481 1925 481 
Q 2391 481 2648 825 
Q 2906 1169 2906 1791 
z
M 3481 434 
Q 3481 -459 3084 -895 
Q 2688 -1331 1869 -1331 
Q 1566 -1331 1297 -1286 
Q 1028 -1241 775 -1147 
L 775 -588 
Q 1028 -725 1275 -790 
Q 1522 -856 1778 -856 
Q 2344 -856 2625 -561 
Q 2906 -266 2906 331 
L 2906 616 
Q 2728 306 2450 153 
Q 2172 0 1784 0 
Q 1141 0 747 490 
Q 353 981 353 1791 
Q 353 2603 747 3093 
Q 1141 3584 1784 3584 
Q 2172 3584 2450 3431 
Q 2728 3278 2906 2969 
L 2906 3500 
L 3481 3500 
L 3481 434 
z
" transform="scale(0.015625)"/>
          <path id="DejaVuSans-6f" d="M 1959 3097 
Q 1497 3097 1228 2736 
Q 959 2375 959 1747 
Q 959 1119 1226 758 
Q 1494 397 1959 397 
Q 2419 397 2687 759 
Q 2956 1122 2956 1747 
Q 2956 2369 2687 2733 
Q 2419 3097 1959 3097 
z
M 1959 3584 
Q 2709 3584 3137 3096 
Q 3566 2609 3566 1747 
Q 3566 888 3137 398 
Q 2709 -91 1959 -91 
Q 1206 -91 779 398 
Q 353 888 353 1747 
Q 353 2609 779 3096 
Q 1206 3584 1959 3584 
z
" transform="scale(0.015625)"/>
          <path id="DejaVuSans-28" d="M 1984 4856 
Q 1566 4138 1362 3434 
Q 1159 2731 1159 2009 
Q 1159 1288 1364 580 
Q 1569 -128 1984 -844 
L 1484 -844 
Q 1016 -109 783 600 
Q 550 1309 550 2009 
Q 550 2706 781 3412 
Q 1013 4119 1484 4856 
L 1984 4856 
z
" transform="scale(0.015625)"/>
          <path id="DejaVuSans-6e" d="M 3513 2113 
L 3513 0 
L 2938 0 
L 2938 2094 
Q 2938 2591 2744 2837 
Q 2550 3084 2163 3084 
Q 1697 3084 1428 2787 
Q 1159 2491 1159 1978 
L 1159 0 
L 581 0 
L 581 3500 
L 1159 3500 
L 1159 2956 
Q 1366 3272 1645 3428 
Q 1925 3584 2291 3584 
Q 2894 3584 3203 3211 
Q 3513 2838 3513 2113 
z
" transform="scale(0.015625)"/>
          <path id="DejaVuSans-72" d="M 2631 2963 
Q 2534 3019 2420 3045 
Q 2306 3072 2169 3072 
Q 1681 3072 1420 2755 
Q 1159 2438 1159 1844 
L 1159 0 
L 581 0 
L 581 3500 
L 1159 3500 
L 1159 2956 
Q 1341 3275 1631 3429 
Q 1922 3584 2338 3584 
Q 2397 3584 2469 3576 
Q 2541 3569 2628 3553 
L 2631 2963 
z
" transform="scale(0.015625)"/>
          <path id="DejaVuSans-73" d="M 2834 3397 
L 2834 2853 
Q 2591 2978 2328 3040 
Q 2066 3103 1784 3103 
Q 1356 3103 1142 2972 
Q 928 2841 928 2578 
Q 928 2378 1081 2264 
Q 1234 2150 1697 2047 
L 1894 2003 
Q 2506 1872 2764 1633 
Q 3022 1394 3022 966 
Q 3022 478 2636 193 
Q 2250 -91 1575 -91 
Q 1294 -91 989 -36 
Q 684 19 347 128 
L 347 722 
Q 666 556 975 473 
Q 1284 391 1588 391 
Q 1994 391 2212 530 
Q 2431 669 2431 922 
Q 2431 1156 2273 1281 
Q 2116 1406 1581 1522 
L 1381 1569 
Q 847 1681 609 1914 
Q 372 2147 372 2553 
Q 372 3047 722 3315 
Q 1072 3584 1716 3584 
Q 2034 3584 2315 3537 
Q 2597 3491 2834 3397 
z
" transform="scale(0.015625)"/>
          <path id="DejaVuSans-29" d="M 513 4856 
L 1013 4856 
Q 1481 4119 1714 3412 
Q 1947 2706 1947 2009 
Q 1947 1309 1714 600 
Q 1481 -109 1013 -844 
L 513 -844 
Q 928 -128 1133 580 
Q 1338 1288 1338 2009 
Q 1338 2731 1133 3434 
Q 928 4138 513 4856 
z
" transform="scale(0.015625)"/>
         </defs>
         <use xlink:href="#DejaVuSans-74"/>
         <use xlink:href="#DejaVuSans-69" x="39.208984"/>
         <use xlink:href="#DejaVuSans-6d" x="66.992188"/>
         <use xlink:href="#DejaVuSans-65" x="164.404297"/>
         <use xlink:href="#DejaVuSans-20" x="225.927734"/>
         <use xlink:href="#DejaVuSans-61" x="257.714844"/>
         <use xlink:href="#DejaVuSans-67" x="318.994141"/>
         <use xlink:href="#DejaVuSans-6f" x="382.470703"/>
         <use xlink:href="#DejaVuSans-20" x="443.652344"/>
         <use xlink:href="#DejaVuSans-28" x="475.439453"/>
         <use xlink:href="#DejaVuSans-67" x="514.453125"/>
         <use xlink:href="#DejaVuSans-65" x="577.929688"/>
         <use xlink:href="#DejaVuSans-6e" x="639.453125"/>
         <use xlink:href="#DejaVuSans-65" x="702.832031"/>
         <use xlink:href="#DejaVuSans-72" x="764.355469"/>
         <use xlink:href="#DejaVuSans-61" x="805.46875"/>
         <use xlink:href="#DejaVuSans-74" x="866.748047"/>
         <use xlink:href="#DejaVuSans-69" x="905.957031"/>
         <use xlink:href="#DejaVuSans-6f" x="933.740234"/>
         <use xlink:href="#DejaVuSans-6e" x="994.921875"/>
         <use xlink:href="#DejaVuSans-73" x="1058.300781"/>
         <use xlink:href="#DejaVuSans-29" x="1110.400391"/>
        </g>
       </g>
      </g>
      <path d="M 255.64282 182.045848 
L 253.64282 181.045848 
L 253.64282 183.045848 
z
" clip-path="url(#p5e739a42fe)" style="fill: #1f77b4; fill-opacity: 0.5; stroke: #1f77b4; stroke-opacity: 0.5; stroke-linejoin: miter"/>
      <path d="M 255.64282 159.361301 
L 253.64282 158.361301 
L 253.64282 160.361301 
z
" clip-path="url(#p5e739a42fe)" style="fill: #1f77b4; fill-opacity: 0.5; stroke: #1f77b4; stroke-opacity: 0.5; stroke-linejoin: miter"/>
      <path d="M 255.64282 86.478974 
L 253.64282 85.478974 
L 253.64282 87.478974 
z
" clip-path="url(#p5e739a42fe)" style="fill: #1f77b4; fill-opacity: 0.5; stroke: #1f77b4; stroke-opacity: 0.5; stroke-linejoin: miter"/>
      <path d="M 255.64282 84.199586 
L 253.64282 83.199586 
L 253.64282 85.199586 
z
" clip-path="url(#p5e739a42fe)" style="fill: #1f77b4; fill-opacity: 0.5; stroke: #1f77b4; stroke-opacity: 0.5; stroke-linejoin: miter"/>
      <path d="M 255.64282 133.984312 
L 253.64282 132.984312 
L 253.64282 134.984312 
z
" clip-path="url(#p5e739a42fe)" style="fill: #1f77b4; fill-opacity: 0.5; stroke: #1f77b4; stroke-opacity: 0.5; stroke-linejoin: miter"/>
      <path d="M 255.64282 171.599983 
L 253.64282 170.599983 
L 253.64282 172.599983 
z
" clip-path="url(#p5e739a42fe)" style="fill: #1f77b4; fill-opacity: 0.5; stroke: #1f77b4; stroke-opacity: 0.5; stroke-linejoin: miter"/>
      <path d="M 255.64282 160.301493 
L 253.64282 159.301493 
L 253.64282 161.301493 
z
" clip-path="url(#p5e739a42fe)" style="fill: #1f77b4; fill-opacity: 0.5; stroke: #1f77b4; stroke-opacity: 0.5; stroke-linejoin: miter"/>
      <path d="M 255.64282 184.479339 
L 253.64282 183.479339 
L 253.64282 185.479339 
z
" clip-path="url(#p5e739a42fe)" style="fill: #1f77b4; fill-opacity: 0.5; stroke: #1f77b4; stroke-opacity: 0.5; stroke-linejoin: miter"/>
      <path d="M 255.64282 97.140029 
L 253.64282 96.140029 
L 253.64282 98.140029 
z
" clip-path="url(#p5e739a42fe)" style="fill: #1f77b4; fill-opacity: 0.5; stroke: #1f77b4; stroke-opacity: 0.5; stroke-linejoin: miter"/>
      <path d="M 255.64282 149.643026 
L 253.64282 148.643026 
L 253.64282 150.643026 
z
" clip-path="url(#p5e739a42fe)" style="fill: #1f77b4; fill-opacity: 0.5; stroke: #1f77b4; stroke-opacity: 0.5; stroke-linejoin: miter"/>
      <path d="M 446.783907 164.308606 
L 444.783907 163.308606 
L 444.783907 165.308606 
z
" clip-path="url(#p5e739a42fe)" style="fill: #ff7f0e; fill-opacity: 0.5; stroke: #ff7f0e; stroke-opacity: 0.5; stroke-linejoin: miter"/>
      <path d="M 446.783907 98.382167 
L 444.783907 97.382167 
L 444.783907 99.382167 
z
" clip-path="url(#p5e739a42fe)" style="fill: #ff7f0e; fill-opacity: 0.5; stroke: #ff7f0e; stroke-opacity: 0.5; stroke-linejoin: miter"/>
      <path d="M 446.783907 100.209299 
L 444.783907 99.209299 
L 444.783907 101.209299 
z
" clip-path="url(#p5e739a42fe)" style="fill: #ff7f0e; fill-opacity: 0.5; stroke: #ff7f0e; stroke-opacity: 0.5; stroke-linejoin: miter"/>
      <path d="M 446.783907 134.098519 
L 444.783907 133.098519 
L 444.783907 135.098519 
z
" clip-path="url(#p5e739a42fe)" style="fill: #ff7f0e; fill-opacity: 0.5; stroke: #ff7f0e; stroke-opacity: 0.5; stroke-linejoin: miter"/>
      <path d="M 446.783907 95.644559 
L 444.783907 94.644559 
L 444.783907 96.644559 
z
" clip-path="url(#p5e739a42fe)" style="fill: #ff7f0e; fill-opacity: 0.5; stroke: #ff7f0e; stroke-opacity: 0.5; stroke-linejoin: miter"/>
      <path d="M 446.783907 164.53795 
L 444.783907 163.53795 
L 444.783907 165.53795 
z
" clip-path="url(#p5e739a42fe)" style="fill: #ff7f0e; fill-opacity: 0.5; stroke: #ff7f0e; stroke-opacity: 0.5; stroke-linejoin: miter"/>
      <path d="M 446.783907 146.227505 
L 444.783907 145.227505 
L 444.783907 147.227505 
z
" clip-path="url(#p5e739a42fe)" style="fill: #ff7f0e; fill-opacity: 0.5; stroke: #ff7f0e; stroke-opacity: 0.5; stroke-linejoin: miter"/>
      <path d="M 446.783907 116.602391 
L 444.783907 115.602391 
L 444.783907 117.602391 
z
" clip-path="url(#p5e739a42fe)" style="fill: #ff7f0e; fill-opacity: 0.5; stroke: #ff7f0e; stroke-opacity: 0.5; stroke-linejoin: miter"/>
      <path d="M 446.783907 145.049529 
L 444.783907 144.049529 
L 444.783907 146.049529 
z
" clip-path="url(#p5e739a42fe)" style="fill: #ff7f0e; fill-opacity: 0.5; stroke: #ff7f0e; stroke-opacity: 0.5; stroke-linejoin: miter"/>
      <path d="M 446.783907 194.519377 
L 444.783907 193.519377 
L 444.783907 195.519377 
z
" clip-path="url(#p5e739a42fe)" style="fill: #ff7f0e; fill-opacity: 0.5; stroke: #ff7f0e; stroke-opacity: 0.5; stroke-linejoin: miter"/>
      <g id="patch_6">
       <path d="M 43.78125 318.021875 
L 43.78125 22.318125 
" style="fill: none; stroke: #000000; stroke-width: 0.8; stroke-linejoin: miter; stroke-linecap: square"/>
      </g>
      <g id="text_11">
       <!-- defaults_migration_properties.yaml -->
       <g transform="translate(215.434687 16.318125) scale(0.12 -0.12)">
        <defs>
         <path id="DejaVuSans-66" d="M 2375 4863 
L 2375 4384 
L 1825 4384 
Q 1516 4384 1395 4259 
Q 1275 4134 1275 3809 
L 1275 3500 
L 2222 3500 
L 2222 3053 
L 1275 3053 
L 1275 0 
L 697 0 
L 697 3053 
L 147 3053 
L 147 3500 
L 697 3500 
L 697 3744 
Q 697 4328 969 4595 
Q 1241 4863 1831 4863 
L 2375 4863 
z
" transform="scale(0.015625)"/>
         <path id="DejaVuSans-75" d="M 544 1381 
L 544 3500 
L 1119 3500 
L 1119 1403 
Q 1119 906 1312 657 
Q 1506 409 1894 409 
Q 2359 409 2629 706 
Q 2900 1003 2900 1516 
L 2900 3500 
L 3475 3500 
L 3475 0 
L 2900 0 
L 2900 538 
Q 2691 219 2414 64 
Q 2138 -91 1772 -91 
Q 1169 -91 856 284 
Q 544 659 544 1381 
z
M 1991 3584 
L 1991 3584 
z
" transform="scale(0.015625)"/>
         <path id="DejaVuSans-6c" d="M 603 4863 
L 1178 4863 
L 1178 0 
L 603 0 
L 603 4863 
z
" transform="scale(0.015625)"/>
         <path id="DejaVuSans-5f" d="M 3263 -1063 
L 3263 -1509 
L -63 -1509 
L -63 -1063 
L 3263 -1063 
z
" transform="scale(0.015625)"/>
         <path id="DejaVuSans-70" d="M 1159 525 
L 1159 -1331 
L 581 -1331 
L 581 3500 
L 1159 3500 
L 1159 2969 
Q 1341 3281 1617 3432 
Q 1894 3584 2278 3584 
Q 2916 3584 3314 3078 
Q 3713 2572 3713 1747 
Q 3713 922 3314 415 
Q 2916 -91 2278 -91 
Q 1894 -91 1617 61 
Q 1341 213 1159 525 
z
M 3116 1747 
Q 3116 2381 2855 2742 
Q 2594 3103 2138 3103 
Q 1681 3103 1420 2742 
Q 1159 2381 1159 1747 
Q 1159 1113 1420 752 
Q 1681 391 2138 391 
Q 2594 391 2855 752 
Q 3116 1113 3116 1747 
z
" transform="scale(0.015625)"/>
         <path id="DejaVuSans-79" d="M 2059 -325 
Q 1816 -950 1584 -1140 
Q 1353 -1331 966 -1331 
L 506 -1331 
L 506 -850 
L 844 -850 
Q 1081 -850 1212 -737 
Q 1344 -625 1503 -206 
L 1606 56 
L 191 3500 
L 800 3500 
L 1894 763 
L 2988 3500 
L 3597 3500 
L 2059 -325 
z
" transform="scale(0.015625)"/>
        </defs>
        <use xlink:href="#DejaVuSans-64"/>
        <use xlink:href="#DejaVuSans-65" x="63.476562"/>
        <use xlink:href="#DejaVuSans-66" x="125"/>
        <use xlink:href="#DejaVuSans-61" x="160.205078"/>
        <use xlink:href="#DejaVuSans-75" x="221.484375"/>
        <use xlink:href="#DejaVuSans-6c" x="284.863281"/>
        <use xlink:href="#DejaVuSans-74" x="312.646484"/>
        <use xlink:href="#DejaVuSans-73" x="351.855469"/>
        <use xlink:href="#DejaVuSans-5f" x="403.955078"/>
        <use xlink:href="#DejaVuSans-6d" x="453.955078"/>
        <use xlink:href="#DejaVuSans-69" x="551.367188"/>
        <use xlink:href="#DejaVuSans-67" x="579.150391"/>
        <use xlink:href="#DejaVuSans-72" x="642.626953"/>
        <use xlink:href="#DejaVuSans-61" x="683.740234"/>
        <use xlink:href="#DejaVuSans-74" x="745.019531"/>
        <use xlink:href="#DejaVuSans-69" x="784.228516"/>
        <use xlink:href="#DejaVuSans-6f" x="812.011719"/>
        <use xlink:href="#DejaVuSans-6e" x="873.193359"/>
        <use xlink:href="#DejaVuSans-5f" x="936.572266"/>
        <use xlink:href="#DejaVuSans-70" x="986.572266"/>
        <use xlink:href="#DejaVuSans-72" x="1050.048828"/>
        <use xlink:href="#DejaVuSans-6f" x="1088.912109"/>
        <use xlink:href="#DejaVuSans-70" x="1150.09375"/>
        <use xlink:href="#DejaVuSans-65" x="1213.570312"/>
        <use xlink:href="#DejaVuSans-72" x="1275.09375"/>
        <use xlink:href="#DejaVuSans-74" x="1316.207031"/>
        <use xlink:href="#DejaVuSans-69" x="1355.416016"/>
        <use xlink:href="#DejaVuSans-65" x="1383.199219"/>
        <use xlink:href="#DejaVuSans-73" x="1444.722656"/>
        <use xlink:href="#DejaVuSans-2e" x="1496.822266"/>
        <use xlink:href="#DejaVuSans-79" x="1528.609375"/>
        <use xlink:href="#DejaVuSans-61" x="1587.789062"/>
        <use xlink:href="#DejaVuSans-6d" x="1649.068359"/>
        <use xlink:href="#DejaVuSans-6c" x="1746.480469"/>
       </g>
      </g>
     </g>
    </g>
    <defs>
     <clipPath id="p5e739a42fe">
      <rect x="43.78125" y="22.318125" width="556.21875" height="295.70375"/>
     </clipPath>
    </defs>
   </g>
  </g>
 </g>
</svg>
