<?xml version="1.0" encoding="utf-8" standalone="no"?>
<!DOCTYPE svg PUBLIC "-//W3C//DTD SVG 1.1//EN"
  "http://www.w3.org/Graphics/SVG/1.1/DTD/svg11.dtd">
<svg xmlns:xlink="http://www.w3.org/1999/xlink" width="607.2pt" height="338.4pt" viewBox="0 0 607.2 338.4" xmlns="http://www.w3.org/2000/svg" version="1.1">
 <metadata>
  <rdf:RDF xmlns:dc="http://purl.org/dc/elements/1.1/" xmlns:cc="http://creativecommons.org/ns#" xmlns:rdf="http://www.w3.org/1999/02/22-rdf-syntax-ns#">
   <cc:Work>
    <dc:type rdf:resource="http://purl.org/dc/dcmitype/StillImage"/>
    <dc:date>2023-04-28T05:54:42.557168</dc:date>
    <dc:format>image/svg+xml</dc:format>
    <dc:creator>
     <cc:Agent>
      <dc:title>Matplotlib v3.7.1, https://matplotlib.org/</dc:title>
     </cc:Agent>
    </dc:creator>
   </cc:Work>
  </rdf:RDF>
 </metadata>
 <defs>
  <style type="text/css">*{stroke-linejoin: round; stroke-linecap: butt}</style>
 </defs>
 <g id="figure_1">
  <g id="patch_1">
   <path d="M 0 338.4 
L 607.2 338.4 
L 607.2 0 
L 0 0 
z
" style="fill: #ffffff"/>
  </g>
  <g id="axes_1">
   <g id="patch_2">
    <path d="M 53.328125 318.021875 
L 600 318.021875 
L 600 22.318125 
L 53.328125 22.318125 
z
" style="fill: #ffffff"/>
   </g>
   <g id="patch_3">
    <path d="M 108.617331 22.318125 
L 108.617331 81.458875 
M 169.209896 22.318125 
L 169.209896 81.458875 
" clip-path="url(#p5758f22cd9)" style="fill: none; stroke: #ffffff; stroke-width: 3; stroke-linejoin: miter"/>
    <path d="M 108.617331 22.318125 
L 108.617331 81.458875 
M 169.209896 22.318125 
L 169.209896 81.458875 
" clip-path="url(#p5758f22cd9)" style="fill: none; stroke: #1f77b4; stroke-linejoin: miter"/>
    <g id="PolyCollection_1">
     <path d="M 169.209896 22.318125 
L 108.617331 22.318125 
L 108.617331 81.458875 
L 169.209896 81.458875 
L 169.209896 81.458875 
L 169.209896 22.318125 
z
" clip-path="url(#p5758f22cd9)" style="fill: #1f77b4; fill-opacity: 0.5"/>
    </g>
    <g id="patch_4">
     <path d="M 296.370198 22.318125 
L 296.370198 81.458875 
M 356.962764 22.318125 
L 356.962764 81.458875 
" clip-path="url(#p5758f22cd9)" style="fill: none; stroke: #ffffff; stroke-width: 3; stroke-linejoin: miter"/>
     <path d="M 296.370198 22.318125 
L 296.370198 81.458875 
M 356.962764 22.318125 
L 356.962764 81.458875 
" clip-path="url(#p5758f22cd9)" style="fill: none; stroke: #ff7f0e; stroke-linejoin: miter"/>
     <g id="PolyCollection_2">
      <path d="M 356.962764 22.318125 
L 296.370198 22.318125 
L 296.370198 81.458875 
L 356.962764 81.458875 
L 356.962764 81.458875 
L 356.962764 22.318125 
z
" clip-path="url(#p5758f22cd9)" style="fill: #ff7f0e; fill-opacity: 0.5"/>
     </g>
     <g id="patch_5">
      <path d="M 484.123066 22.318125 
L 484.123066 81.458875 
M 544.715631 22.318125 
L 544.715631 81.458875 
" clip-path="url(#p5758f22cd9)" style="fill: none; stroke: #ffffff; stroke-width: 3; stroke-linejoin: miter"/>
      <path d="M 484.123066 22.318125 
L 484.123066 81.458875 
M 544.715631 22.318125 
L 544.715631 81.458875 
" clip-path="url(#p5758f22cd9)" style="fill: none; stroke: #2ca02c; stroke-linejoin: miter"/>
      <g id="PolyCollection_3">
       <path d="M 544.715631 22.318125 
L 484.123066 22.318125 
L 484.123066 81.458875 
L 544.715631 81.458875 
L 544.715631 81.458875 
L 544.715631 22.318125 
z
" clip-path="url(#p5758f22cd9)" style="fill: #2ca02c; fill-opacity: 0.5"/>
      </g>
      <g id="patch_6">
       <path d="M 78.176847 81.458875 
L 78.176847 318.021875 
M 199.361977 81.458875 
L 199.361977 318.021875 
" clip-path="url(#p5758f22cd9)" style="fill: none; stroke: #ffffff; stroke-width: 3; stroke-linejoin: miter"/>
       <path d="M 78.176847 81.458875 
L 78.176847 318.021875 
M 199.361977 81.458875 
L 199.361977 318.021875 
" clip-path="url(#p5758f22cd9)" style="fill: none; stroke: #d62728; stroke-linejoin: miter"/>
       <g id="PolyCollection_4">
        <path d="M 199.361977 81.458875 
L 78.176847 81.458875 
L 78.176847 318.021875 
L 199.361977 318.021875 
L 199.361977 318.021875 
L 199.361977 81.458875 
z
" clip-path="url(#p5758f22cd9)" style="fill: #d62728; fill-opacity: 0.5"/>
       </g>
       <g id="patch_7">
        <path d="M 266.078754 81.458875 
L 266.078754 318.021875 
M 387.263884 81.458875 
L 387.263884 318.021875 
" clip-path="url(#p5758f22cd9)" style="fill: none; stroke: #ffffff; stroke-width: 3; stroke-linejoin: miter"/>
        <path d="M 266.078754 81.458875 
L 266.078754 318.021875 
M 387.263884 81.458875 
L 387.263884 318.021875 
" clip-path="url(#p5758f22cd9)" style="fill: none; stroke: #9467bd; stroke-linejoin: miter"/>
        <g id="PolyCollection_5">
         <path d="M 387.263884 81.458875 
L 266.078754 81.458875 
L 266.078754 318.021875 
L 387.263884 318.021875 
L 387.263884 318.021875 
L 387.263884 81.458875 
z
" clip-path="url(#p5758f22cd9)" style="fill: #9467bd; fill-opacity: 0.5"/>
        </g>
        <g id="patch_8">
         <path d="M 453.966148 81.458875 
L 453.966148 318.021875 
M 575.151278 81.458875 
L 575.151278 318.021875 
" clip-path="url(#p5758f22cd9)" style="fill: none; stroke: #ffffff; stroke-width: 3; stroke-linejoin: miter"/>
         <path d="M 453.966148 81.458875 
L 453.966148 318.021875 
M 575.151278 81.458875 
L 575.151278 318.021875 
" clip-path="url(#p5758f22cd9)" style="fill: none; stroke: #8c564b; stroke-linejoin: miter"/>
         <g id="PolyCollection_6">
          <path d="M 575.151278 81.458875 
L 453.966148 81.458875 
L 453.966148 318.021875 
L 575.151278 318.021875 
L 575.151278 318.021875 
L 575.151278 81.458875 
z
" clip-path="url(#p5758f22cd9)" style="fill: #8c564b; fill-opacity: 0.5"/>
         </g>
         <g id="matplotlib.axis_1">
          <g id="xtick_1">
           <g id="line2d_1"/>
           <g id="text_1">
            <!-- X -->
            <g transform="translate(135.344412 329.120312) scale(0.1 -0.1)">
             <defs>
              <path id="DejaVuSans-58" d="M 403 4666 
L 1081 4666 
L 2241 2931 
L 3406 4666 
L 4084 4666 
L 2584 2425 
L 4184 0 
L 3506 0 
L 2194 1984 
L 872 0 
L 191 0 
L 1856 2491 
L 403 4666 
z
" transform="scale(0.015625)"/>
             </defs>
             <use xlink:href="#DejaVuSans-58"/>
            </g>
           </g>
          </g>
          <g id="xtick_2">
           <g id="line2d_2"/>
           <g id="text_2">
            <!-- Y -->
            <g transform="translate(323.617413 329.120312) scale(0.1 -0.1)">
             <defs>
              <path id="DejaVuSans-59" d="M -13 4666 
L 666 4666 
L 1959 2747 
L 3244 4666 
L 3922 4666 
L 2272 2222 
L 2272 0 
L 1638 0 
L 1638 2222 
L -13 4666 
z
" transform="scale(0.015625)"/>
             </defs>
             <use xlink:href="#DejaVuSans-59"/>
            </g>
           </g>
          </g>
          <g id="xtick_3">
           <g id="line2d_3"/>
           <g id="text_3">
            <!-- Z -->
            <g transform="translate(511.133713 329.120312) scale(0.1 -0.1)">
             <defs>
              <path id="DejaVuSans-5a" d="M 359 4666 
L 4025 4666 
L 4025 4184 
L 1075 531 
L 4097 531 
L 4097 0 
L 288 0 
L 288 481 
L 3238 4134 
L 359 4134 
L 359 4666 
z
" transform="scale(0.015625)"/>
             </defs>
             <use xlink:href="#DejaVuSans-5a"/>
            </g>
           </g>
          </g>
         </g>
         <g id="matplotlib.axis_2">
          <g id="ytick_1">
           <g id="line2d_4">
            <defs>
             <path id="m2b41c98888" d="M 0 0 
L -3.5 0 
" style="stroke: #000000; stroke-width: 0.8"/>
            </defs>
            <g>
             <use xlink:href="#m2b41c98888" x="53.328125" y="318.021875" style="stroke: #000000; stroke-width: 0.8"/>
            </g>
           </g>
           <g id="text_4">
            <!-- 0 -->
            <g transform="translate(39.965625 321.821094) scale(0.1 -0.1)">
             <defs>
              <path id="DejaVuSans-30" d="M 2034 4250 
Q 1547 4250 1301 3770 
Q 1056 3291 1056 2328 
Q 1056 1369 1301 889 
Q 1547 409 2034 409 
Q 2525 409 2770 889 
Q 3016 1369 3016 2328 
Q 3016 3291 2770 3770 
Q 2525 4250 2034 4250 
z
M 2034 4750 
Q 2819 4750 3233 4129 
Q 3647 3509 3647 2328 
Q 3647 1150 3233 529 
Q 2819 -91 2034 -91 
Q 1250 -91 836 529 
Q 422 1150 422 2328 
Q 422 3509 836 4129 
Q 1250 4750 2034 4750 
z
" transform="scale(0.015625)"/>
             </defs>
             <use xlink:href="#DejaVuSans-30"/>
            </g>
           </g>
          </g>
          <g id="ytick_2">
           <g id="line2d_5">
            <g>
             <use xlink:href="#m2b41c98888" x="53.328125" y="270.709275" style="stroke: #000000; stroke-width: 0.8"/>
            </g>
           </g>
           <g id="text_5">
            <!-- 200 -->
            <g transform="translate(27.240625 274.508494) scale(0.1 -0.1)">
             <defs>
              <path id="DejaVuSans-32" d="M 1228 531 
L 3431 531 
L 3431 0 
L 469 0 
L 469 531 
Q 828 903 1448 1529 
Q 2069 2156 2228 2338 
Q 2531 2678 2651 2914 
Q 2772 3150 2772 3378 
Q 2772 3750 2511 3984 
Q 2250 4219 1831 4219 
Q 1534 4219 1204 4116 
Q 875 4013 500 3803 
L 500 4441 
Q 881 4594 1212 4672 
Q 1544 4750 1819 4750 
Q 2544 4750 2975 4387 
Q 3406 4025 3406 3419 
Q 3406 3131 3298 2873 
Q 3191 2616 2906 2266 
Q 2828 2175 2409 1742 
Q 1991 1309 1228 531 
z
" transform="scale(0.015625)"/>
             </defs>
             <use xlink:href="#DejaVuSans-32"/>
             <use xlink:href="#DejaVuSans-30" x="63.623047"/>
             <use xlink:href="#DejaVuSans-30" x="127.246094"/>
            </g>
           </g>
          </g>
          <g id="ytick_3">
           <g id="line2d_6">
            <g>
             <use xlink:href="#m2b41c98888" x="53.328125" y="223.396675" style="stroke: #000000; stroke-width: 0.8"/>
            </g>
           </g>
           <g id="text_6">
            <!-- 400 -->
            <g transform="translate(27.240625 227.195894) scale(0.1 -0.1)">
             <defs>
              <path id="DejaVuSans-34" d="M 2419 4116 
L 825 1625 
L 2419 1625 
L 2419 4116 
z
M 2253 4666 
L 3047 4666 
L 3047 1625 
L 3713 1625 
L 3713 1100 
L 3047 1100 
L 3047 0 
L 2419 0 
L 2419 1100 
L 313 1100 
L 313 1709 
L 2253 4666 
z
" transform="scale(0.015625)"/>
             </defs>
             <use xlink:href="#DejaVuSans-34"/>
             <use xlink:href="#DejaVuSans-30" x="63.623047"/>
             <use xlink:href="#DejaVuSans-30" x="127.246094"/>
            </g>
           </g>
          </g>
          <g id="ytick_4">
           <g id="line2d_7">
            <g>
             <use xlink:href="#m2b41c98888" x="53.328125" y="176.084075" style="stroke: #000000; stroke-width: 0.8"/>
            </g>
           </g>
           <g id="text_7">
            <!-- 600 -->
            <g transform="translate(27.240625 179.883294) scale(0.1 -0.1)">
             <defs>
              <path id="DejaVuSans-36" d="M 2113 2584 
Q 1688 2584 1439 2293 
Q 1191 2003 1191 1497 
Q 1191 994 1439 701 
Q 1688 409 2113 409 
Q 2538 409 2786 701 
Q 3034 994 3034 1497 
Q 3034 2003 2786 2293 
Q 2538 2584 2113 2584 
z
M 3366 4563 
L 3366 3988 
Q 3128 4100 2886 4159 
Q 2644 4219 2406 4219 
Q 1781 4219 1451 3797 
Q 1122 3375 1075 2522 
Q 1259 2794 1537 2939 
Q 1816 3084 2150 3084 
Q 2853 3084 3261 2657 
Q 3669 2231 3669 1497 
Q 3669 778 3244 343 
Q 2819 -91 2113 -91 
Q 1303 -91 875 529 
Q 447 1150 447 2328 
Q 447 3434 972 4092 
Q 1497 4750 2381 4750 
Q 2619 4750 2861 4703 
Q 3103 4656 3366 4563 
z
" transform="scale(0.015625)"/>
             </defs>
             <use xlink:href="#DejaVuSans-36"/>
             <use xlink:href="#DejaVuSans-30" x="63.623047"/>
             <use xlink:href="#DejaVuSans-30" x="127.246094"/>
            </g>
           </g>
          </g>
          <g id="ytick_5">
           <g id="line2d_8">
            <g>
             <use xlink:href="#m2b41c98888" x="53.328125" y="128.771475" style="stroke: #000000; stroke-width: 0.8"/>
            </g>
           </g>
           <g id="text_8">
            <!-- 800 -->
            <g transform="translate(27.240625 132.570694) scale(0.1 -0.1)">
             <defs>
              <path id="DejaVuSans-38" d="M 2034 2216 
Q 1584 2216 1326 1975 
Q 1069 1734 1069 1313 
Q 1069 891 1326 650 
Q 1584 409 2034 409 
Q 2484 409 2743 651 
Q 3003 894 3003 1313 
Q 3003 1734 2745 1975 
Q 2488 2216 2034 2216 
z
M 1403 2484 
Q 997 2584 770 2862 
Q 544 3141 544 3541 
Q 544 4100 942 4425 
Q 1341 4750 2034 4750 
Q 2731 4750 3128 4425 
Q 3525 4100 3525 3541 
Q 3525 3141 3298 2862 
Q 3072 2584 2669 2484 
Q 3125 2378 3379 2068 
Q 3634 1759 3634 1313 
Q 3634 634 3220 271 
Q 2806 -91 2034 -91 
Q 1263 -91 848 271 
Q 434 634 434 1313 
Q 434 1759 690 2068 
Q 947 2378 1403 2484 
z
M 1172 3481 
Q 1172 3119 1398 2916 
Q 1625 2713 2034 2713 
Q 2441 2713 2670 2916 
Q 2900 3119 2900 3481 
Q 2900 3844 2670 4047 
Q 2441 4250 2034 4250 
Q 1625 4250 1398 4047 
Q 1172 3844 1172 3481 
z
" transform="scale(0.015625)"/>
             </defs>
             <use xlink:href="#DejaVuSans-38"/>
             <use xlink:href="#DejaVuSans-30" x="63.623047"/>
             <use xlink:href="#DejaVuSans-30" x="127.246094"/>
            </g>
           </g>
          </g>
          <g id="ytick_6">
           <g id="line2d_9">
            <g>
             <use xlink:href="#m2b41c98888" x="53.328125" y="81.458875" style="stroke: #000000; stroke-width: 0.8"/>
            </g>
           </g>
           <g id="text_9">
            <!-- 1000 -->
            <g transform="translate(20.878125 85.258094) scale(0.1 -0.1)">
             <defs>
              <path id="DejaVuSans-31" d="M 794 531 
L 1825 531 
L 1825 4091 
L 703 3866 
L 703 4441 
L 1819 4666 
L 2450 4666 
L 2450 531 
L 3481 531 
L 3481 0 
L 794 0 
L 794 531 
z
" transform="scale(0.015625)"/>
             </defs>
             <use xlink:href="#DejaVuSans-31"/>
             <use xlink:href="#DejaVuSans-30" x="63.623047"/>
             <use xlink:href="#DejaVuSans-30" x="127.246094"/>
             <use xlink:href="#DejaVuSans-30" x="190.869141"/>
            </g>
           </g>
          </g>
          <g id="ytick_7">
           <g id="line2d_10">
            <g>
             <use xlink:href="#m2b41c98888" x="53.328125" y="34.146275" style="stroke: #000000; stroke-width: 0.8"/>
            </g>
           </g>
           <g id="text_10">
            <!-- 1200 -->
            <g transform="translate(20.878125 37.945494) scale(0.1 -0.1)">
             <use xlink:href="#DejaVuSans-31"/>
             <use xlink:href="#DejaVuSans-32" x="63.623047"/>
             <use xlink:href="#DejaVuSans-30" x="127.246094"/>
             <use xlink:href="#DejaVuSans-30" x="190.869141"/>
            </g>
           </g>
          </g>
          <g id="text_11">
           <!-- time ago (generations) -->
           <g transform="translate(14.798438 227.641094) rotate(-90) scale(0.1 -0.1)">
            <defs>
             <path id="DejaVuSans-74" d="M 1172 4494 
L 1172 3500 
L 2356 3500 
L 2356 3053 
L 1172 3053 
L 1172 1153 
Q 1172 725 1289 603 
Q 1406 481 1766 481 
L 2356 481 
L 2356 0 
L 1766 0 
Q 1100 0 847 248 
Q 594 497 594 1153 
L 594 3053 
L 172 3053 
L 172 3500 
L 594 3500 
L 594 4494 
L 1172 4494 
z
" transform="scale(0.015625)"/>
             <path id="DejaVuSans-69" d="M 603 3500 
L 1178 3500 
L 1178 0 
L 603 0 
L 603 3500 
z
M 603 4863 
L 1178 4863 
L 1178 4134 
L 603 4134 
L 603 4863 
z
" transform="scale(0.015625)"/>
             <path id="DejaVuSans-6d" d="M 3328 2828 
Q 3544 3216 3844 3400 
Q 4144 3584 4550 3584 
Q 5097 3584 5394 3201 
Q 5691 2819 5691 2113 
L 5691 0 
L 5113 0 
L 5113 2094 
Q 5113 2597 4934 2840 
Q 4756 3084 4391 3084 
Q 3944 3084 3684 2787 
Q 3425 2491 3425 1978 
L 3425 0 
L 2847 0 
L 2847 2094 
Q 2847 2600 2669 2842 
Q 2491 3084 2119 3084 
Q 1678 3084 1418 2786 
Q 1159 2488 1159 1978 
L 1159 0 
L 581 0 
L 581 3500 
L 1159 3500 
L 1159 2956 
Q 1356 3278 1631 3431 
Q 1906 3584 2284 3584 
Q 2666 3584 2933 3390 
Q 3200 3197 3328 2828 
z
" transform="scale(0.015625)"/>
             <path id="DejaVuSans-65" d="M 3597 1894 
L 3597 1613 
L 953 1613 
Q 991 1019 1311 708 
Q 1631 397 2203 397 
Q 2534 397 2845 478 
Q 3156 559 3463 722 
L 3463 178 
Q 3153 47 2828 -22 
Q 2503 -91 2169 -91 
Q 1331 -91 842 396 
Q 353 884 353 1716 
Q 353 2575 817 3079 
Q 1281 3584 2069 3584 
Q 2775 3584 3186 3129 
Q 3597 2675 3597 1894 
z
M 3022 2063 
Q 3016 2534 2758 2815 
Q 2500 3097 2075 3097 
Q 1594 3097 1305 2825 
Q 1016 2553 972 2059 
L 3022 2063 
z
" transform="scale(0.015625)"/>
             <path id="DejaVuSans-20" transform="scale(0.015625)"/>
             <path id="DejaVuSans-61" d="M 2194 1759 
Q 1497 1759 1228 1600 
Q 959 1441 959 1056 
Q 959 750 1161 570 
Q 1363 391 1709 391 
Q 2188 391 2477 730 
Q 2766 1069 2766 1631 
L 2766 1759 
L 2194 1759 
z
M 3341 1997 
L 3341 0 
L 2766 0 
L 2766 531 
Q 2569 213 2275 61 
Q 1981 -91 1556 -91 
Q 1019 -91 701 211 
Q 384 513 384 1019 
Q 384 1609 779 1909 
Q 1175 2209 1959 2209 
L 2766 2209 
L 2766 2266 
Q 2766 2663 2505 2880 
Q 2244 3097 1772 3097 
Q 1472 3097 1187 3025 
Q 903 2953 641 2809 
L 641 3341 
Q 956 3463 1253 3523 
Q 1550 3584 1831 3584 
Q 2591 3584 2966 3190 
Q 3341 2797 3341 1997 
z
" transform="scale(0.015625)"/>
             <path id="DejaVuSans-67" d="M 2906 1791 
Q 2906 2416 2648 2759 
Q 2391 3103 1925 3103 
Q 1463 3103 1205 2759 
Q 947 2416 947 1791 
Q 947 1169 1205 825 
Q 1463 481 1925 481 
Q 2391 481 2648 825 
Q 2906 1169 2906 1791 
z
M 3481 434 
Q 3481 -459 3084 -895 
Q 2688 -1331 1869 -1331 
Q 1566 -1331 1297 -1286 
Q 1028 -1241 775 -1147 
L 775 -588 
Q 1028 -725 1275 -790 
Q 1522 -856 1778 -856 
Q 2344 -856 2625 -561 
Q 2906 -266 2906 331 
L 2906 616 
Q 2728 306 2450 153 
Q 2172 0 1784 0 
Q 1141 0 747 490 
Q 353 981 353 1791 
Q 353 2603 747 3093 
Q 1141 3584 1784 3584 
Q 2172 3584 2450 3431 
Q 2728 3278 2906 2969 
L 2906 3500 
L 3481 3500 
L 3481 434 
z
" transform="scale(0.015625)"/>
             <path id="DejaVuSans-6f" d="M 1959 3097 
Q 1497 3097 1228 2736 
Q 959 2375 959 1747 
Q 959 1119 1226 758 
Q 1494 397 1959 397 
Q 2419 397 2687 759 
Q 2956 1122 2956 1747 
Q 2956 2369 2687 2733 
Q 2419 3097 1959 3097 
z
M 1959 3584 
Q 2709 3584 3137 3096 
Q 3566 2609 3566 1747 
Q 3566 888 3137 398 
Q 2709 -91 1959 -91 
Q 1206 -91 779 398 
Q 353 888 353 1747 
Q 353 2609 779 3096 
Q 1206 3584 1959 3584 
z
" transform="scale(0.015625)"/>
             <path id="DejaVuSans-28" d="M 1984 4856 
Q 1566 4138 1362 3434 
Q 1159 2731 1159 2009 
Q 1159 1288 1364 580 
Q 1569 -128 1984 -844 
L 1484 -844 
Q 1016 -109 783 600 
Q 550 1309 550 2009 
Q 550 2706 781 3412 
Q 1013 4119 1484 4856 
L 1984 4856 
z
" transform="scale(0.015625)"/>
             <path id="DejaVuSans-6e" d="M 3513 2113 
L 3513 0 
L 2938 0 
L 2938 2094 
Q 2938 2591 2744 2837 
Q 2550 3084 2163 3084 
Q 1697 3084 1428 2787 
Q 1159 2491 1159 1978 
L 1159 0 
L 581 0 
L 581 3500 
L 1159 3500 
L 1159 2956 
Q 1366 3272 1645 3428 
Q 1925 3584 2291 3584 
Q 2894 3584 3203 3211 
Q 3513 2838 3513 2113 
z
" transform="scale(0.015625)"/>
             <path id="DejaVuSans-72" d="M 2631 2963 
Q 2534 3019 2420 3045 
Q 2306 3072 2169 3072 
Q 1681 3072 1420 2755 
Q 1159 2438 1159 1844 
L 1159 0 
L 581 0 
L 581 3500 
L 1159 3500 
L 1159 2956 
Q 1341 3275 1631 3429 
Q 1922 3584 2338 3584 
Q 2397 3584 2469 3576 
Q 2541 3569 2628 3553 
L 2631 2963 
z
" transform="scale(0.015625)"/>
             <path id="DejaVuSans-73" d="M 2834 3397 
L 2834 2853 
Q 2591 2978 2328 3040 
Q 2066 3103 1784 3103 
Q 1356 3103 1142 2972 
Q 928 2841 928 2578 
Q 928 2378 1081 2264 
Q 1234 2150 1697 2047 
L 1894 2003 
Q 2506 1872 2764 1633 
Q 3022 1394 3022 966 
Q 3022 478 2636 193 
Q 2250 -91 1575 -91 
Q 1294 -91 989 -36 
Q 684 19 347 128 
L 347 722 
Q 666 556 975 473 
Q 1284 391 1588 391 
Q 1994 391 2212 530 
Q 2431 669 2431 922 
Q 2431 1156 2273 1281 
Q 2116 1406 1581 1522 
L 1381 1569 
Q 847 1681 609 1914 
Q 372 2147 372 2553 
Q 372 3047 722 3315 
Q 1072 3584 1716 3584 
Q 2034 3584 2315 3537 
Q 2597 3491 2834 3397 
z
" transform="scale(0.015625)"/>
             <path id="DejaVuSans-29" d="M 513 4856 
L 1013 4856 
Q 1481 4119 1714 3412 
Q 1947 2706 1947 2009 
Q 1947 1309 1714 600 
Q 1481 -109 1013 -844 
L 513 -844 
Q 928 -128 1133 580 
Q 1338 1288 1338 2009 
Q 1338 2731 1133 3434 
Q 928 4138 513 4856 
z
" transform="scale(0.015625)"/>
            </defs>
            <use xlink:href="#DejaVuSans-74"/>
            <use xlink:href="#DejaVuSans-69" x="39.208984"/>
            <use xlink:href="#DejaVuSans-6d" x="66.992188"/>
            <use xlink:href="#DejaVuSans-65" x="164.404297"/>
            <use xlink:href="#DejaVuSans-20" x="225.927734"/>
            <use xlink:href="#DejaVuSans-61" x="257.714844"/>
            <use xlink:href="#DejaVuSans-67" x="318.994141"/>
            <use xlink:href="#DejaVuSans-6f" x="382.470703"/>
            <use xlink:href="#DejaVuSans-20" x="443.652344"/>
            <use xlink:href="#DejaVuSans-28" x="475.439453"/>
            <use xlink:href="#DejaVuSans-67" x="514.453125"/>
            <use xlink:href="#DejaVuSans-65" x="577.929688"/>
            <use xlink:href="#DejaVuSans-6e" x="639.453125"/>
            <use xlink:href="#DejaVuSans-65" x="702.832031"/>
            <use xlink:href="#DejaVuSans-72" x="764.355469"/>
            <use xlink:href="#DejaVuSans-61" x="805.46875"/>
            <use xlink:href="#DejaVuSans-74" x="866.748047"/>
            <use xlink:href="#DejaVuSans-69" x="905.957031"/>
            <use xlink:href="#DejaVuSans-6f" x="933.740234"/>
            <use xlink:href="#DejaVuSans-6e" x="994.921875"/>
            <use xlink:href="#DejaVuSans-73" x="1058.300781"/>
            <use xlink:href="#DejaVuSans-29" x="1110.400391"/>
           </g>
          </g>
         </g>
         <g id="patch_9">
          <path d="M 294.371891 81.458875 
L 293.371891 81.427439 
L 292.371891 81.390498 
L 291.371891 81.292752 
L 290.371891 81.26023 
L 289.371891 81.186605 
L 288.371891 81.14804 
L 287.371891 81.112627 
L 286.371891 81.054987 
L 285.371891 80.984601 
L 284.371891 80.932636 
L 283.371891 80.873547 
L 282.371891 80.785226 
L 281.371891 80.739081 
L 280.371891 80.69667 
L 279.371891 80.666178 
L 278.371891 80.640133 
L 277.371891 80.618933 
L 276.371891 80.564632 
L 275.371891 80.536694 
L 274.371891 80.50697 
L 273.371891 80.481575 
L 272.371891 80.470375 
L 271.371891 80.460251 
L 270.371891 80.460455 
L 269.371891 80.469965 
L 268.371891 80.481619 
L 267.371891 80.512648 
L 266.371891 80.523816 
L 265.371891 80.553933 
L 264.371891 80.61371 
L 263.371891 80.650902 
L 262.371891 80.689998 
L 261.371891 80.732438 
L 260.371891 80.765203 
L 259.371891 80.832629 
L 258.371891 80.871755 
L 257.371891 80.91443 
L 256.371891 80.98501 
L 255.371891 81.021401 
L 254.371891 81.079804 
L 253.371891 81.190757 
L 252.371891 81.261415 
L 251.371891 81.374355 
L 250.371891 81.420128 
L 249.371891 81.481411 
L 248.371891 81.52991 
L 247.371891 81.610733 
L 246.371891 81.729252 
L 245.371891 81.799463 
L 244.371891 81.882725 
L 243.371891 81.915867 
L 242.371891 81.967104 
L 241.371891 82.035503 
L 240.371891 82.101718 
L 239.371891 82.178635 
L 238.371891 82.205951 
L 237.371891 82.232428 
L 236.371891 82.255079 
L 235.371891 82.27461 
L 234.371891 82.301004 
L 233.371891 82.350775 
L 232.371891 82.385848 
L 231.371891 82.421714 
L 230.371891 82.437081 
L 229.371891 82.45285 
L 228.371891 82.456263 
L 227.371891 82.45868 
L 226.371891 82.458194 
L 225.371891 82.456265 
L 224.371891 82.443008 
L 223.371891 82.434617 
L 222.371891 82.413081 
L 221.371891 82.390048 
L 220.371891 82.372815 
L 219.371891 82.354352 
L 218.371891 82.3339 
L 217.371891 82.3173 
L 216.371891 82.254521 
L 215.371891 82.179256 
L 214.371891 82.146617 
L 213.371891 82.079053 
L 212.371891 82.025006 
L 211.371891 81.991302 
L 210.371891 81.901176 
L 209.371891 81.872641 
L 208.371891 81.841155 
L 207.371891 81.810144 
L 206.371891 81.755336 
L 205.371891 81.690749 
L 204.371891 81.652553 
L 202.477748 81.556619 
" clip-path="url(#p5758f22cd9)" style="fill: none; stroke: #ffffff; stroke-width: 3; stroke-linecap: round"/>
          <path d="M 294.371891 81.458875 
L 293.371891 81.427439 
L 292.371891 81.390498 
L 291.371891 81.292752 
L 290.371891 81.26023 
L 289.371891 81.186605 
L 288.371891 81.14804 
L 287.371891 81.112627 
L 286.371891 81.054987 
L 285.371891 80.984601 
L 284.371891 80.932636 
L 283.371891 80.873547 
L 282.371891 80.785226 
L 281.371891 80.739081 
L 280.371891 80.69667 
L 279.371891 80.666178 
L 278.371891 80.640133 
L 277.371891 80.618933 
L 276.371891 80.564632 
L 275.371891 80.536694 
L 274.371891 80.50697 
L 273.371891 80.481575 
L 272.371891 80.470375 
L 271.371891 80.460251 
L 270.371891 80.460455 
L 269.371891 80.469965 
L 268.371891 80.481619 
L 267.371891 80.512648 
L 266.371891 80.523816 
L 265.371891 80.553933 
L 264.371891 80.61371 
L 263.371891 80.650902 
L 262.371891 80.689998 
L 261.371891 80.732438 
L 260.371891 80.765203 
L 259.371891 80.832629 
L 258.371891 80.871755 
L 257.371891 80.91443 
L 256.371891 80.98501 
L 255.371891 81.021401 
L 254.371891 81.079804 
L 253.371891 81.190757 
L 252.371891 81.261415 
L 251.371891 81.374355 
L 250.371891 81.420128 
L 249.371891 81.481411 
L 248.371891 81.52991 
L 247.371891 81.610733 
L 246.371891 81.729252 
L 245.371891 81.799463 
L 244.371891 81.882725 
L 243.371891 81.915867 
L 242.371891 81.967104 
L 241.371891 82.035503 
L 240.371891 82.101718 
L 239.371891 82.178635 
L 238.371891 82.205951 
L 237.371891 82.232428 
L 236.371891 82.255079 
L 235.371891 82.27461 
L 234.371891 82.301004 
L 233.371891 82.350775 
L 232.371891 82.385848 
L 231.371891 82.421714 
L 230.371891 82.437081 
L 229.371891 82.45285 
L 228.371891 82.456263 
L 227.371891 82.45868 
L 226.371891 82.458194 
L 225.371891 82.456265 
L 224.371891 82.443008 
L 223.371891 82.434617 
L 222.371891 82.413081 
L 221.371891 82.390048 
L 220.371891 82.372815 
L 219.371891 82.354352 
L 218.371891 82.3339 
L 217.371891 82.3173 
L 216.371891 82.254521 
L 215.371891 82.179256 
L 214.371891 82.146617 
L 213.371891 82.079053 
L 212.371891 82.025006 
L 211.371891 81.991302 
L 210.371891 81.901176 
L 209.371891 81.872641 
L 208.371891 81.841155 
L 207.371891 81.810144 
L 206.371891 81.755336 
L 205.371891 81.690749 
L 204.371891 81.652553 
L 202.477748 81.556619 
" clip-path="url(#p5758f22cd9)" style="fill: none; stroke: #ff7f0e; stroke-linecap: round"/>
          <path d="M 206.477748 83.458875 
L 205.597379 82.983544 
L 204.719472 82.50329 
L 203.868759 81.968649 
L 202.566584 81.281202 
L 203.493938 81.255187 
L 204.405612 80.842467 
L 205.315876 80.426928 
L 206.658372 79.820124 
L 206.003473 80.458875 
L 205.951509 81.458875 
L 205.892419 83.458875 
z
" clip-path="url(#p5758f22cd9)" style="fill: #ffffff; stroke: #ffffff; stroke-width: 3; stroke-linecap: round"/>
          <path d="M 206.477748 83.458875 
L 205.597379 82.983544 
L 204.719472 82.50329 
L 203.868759 81.968649 
L 202.566584 81.281202 
L 203.493938 81.255187 
L 204.405612 80.842467 
L 205.315876 80.426928 
L 206.658372 79.820124 
L 206.003473 80.458875 
L 205.951509 81.458875 
L 205.892419 83.458875 
z
" clip-path="url(#p5758f22cd9)" style="fill: #ffffff; stroke: #ff7f0e; stroke-linecap: round"/>
          <g id="patch_10">
           <path d="M 482.207538 80.887404 
L 481.255143 80.580921 
L 480.304268 80.269148 
L 479.370193 79.898935 
L 478.418098 79.591409 
L 477.477358 79.244379 
L 476.526933 78.931044 
L 475.575637 78.620738 
L 474.630481 78.289071 
L 473.688846 77.945154 
L 472.742123 77.618942 
L 471.697708 77.257234 
L 470.737526 76.916319 
L 469.781261 76.620199 
L 468.824057 76.327693 
L 467.863857 76.046721 
L 466.902538 75.770055 
L 465.940001 75.498078 
L 464.985787 75.194063 
L 464.024944 74.915565 
L 463.06455 74.635338 
L 462.103068 74.359301 
L 461.138016 74.097002 
L 460.172694 73.835745 
L 459.204774 73.584485 
L 458.234515 73.342231 
L 457.263716 73.102051 
L 456.288045 72.880625 
L 455.317369 72.639976 
L 454.341928 72.417668 
L 453.359028 72.224066 
L 452.381808 72.008604 
L 451.404109 71.794985 
L 450.38187 71.57325 
L 449.374081 71.381719 
L 448.383366 71.229959 
L 447.398809 71.050575 
L 446.41348 70.874656 
L 445.422079 70.725974 
L 444.438117 70.543922 
L 443.449366 70.383354 
L 442.449182 70.274077 
L 441.457764 70.125471 
L 440.457147 70.018133 
L 439.471144 69.845238 
L 438.481766 69.687482 
L 437.49517 69.517247 
L 436.501541 69.378562 
L 435.49971 69.27667 
L 434.50839 69.127627 
L 433.51423 68.991323 
L 432.530975 68.806099 
L 431.543783 68.638538 
L 430.552857 68.487726 
L 428.730913 68.149434 
L 427.756028 68.046764 
L 426.767893 67.890766 
L 425.779911 67.733945 
L 424.792629 67.573361 
L 423.805917 67.409711 
L 422.81795 67.252808 
L 421.825709 67.118887 
L 420.836156 66.970516 
L 419.846457 66.822925 
L 418.860507 66.655181 
L 417.874483 66.487832 
L 416.890719 66.308334 
L 415.907136 66.127859 
L 414.924085 65.944529 
L 413.941297 65.75978 
L 412.960581 65.563894 
L 411.978975 65.372793 
L 410.999772 65.168766 
L 410.020843 64.96327 
L 409.040854 64.763475 
L 407.386988 64.437096 
L 406.432667 64.274775 
L 405.446038 64.110949 
L 404.466217 63.901449 
L 403.488235 63.679599 
L 402.503971 63.499909 
L 401.524854 63.285676 
L 400.543745 63.084812 
L 399.559638 62.904069 
L 398.583847 62.66752 
L 397.598977 62.491889 
L 396.614543 62.31334 
L 395.630038 62.13526 
L 394.649041 61.933644 
L 393.669486 61.722355 
L 392.686041 61.537169 
L 391.711106 61.294876 
L 390.729291 61.098749 
L 389.746711 60.907753 
L 388.76355 60.720661 
L 387.790448 60.46607 
L 386.266426 60.196849 
L 385.272871 60.022864 
L 384.286881 59.84198 
L 383.304738 59.626769 
L 382.315076 59.478654 
L 381.326405 59.321705 
L 380.340252 59.14228 
L 379.351899 58.982481 
L 378.36676 58.794009 
L 377.37638 58.652302 
L 376.390341 58.471863 
L 375.39923 58.336682 
L 374.408636 58.196882 
L 373.41951 58.043992 
L 372.428132 57.911193 
L 371.435905 57.785976 
L 370.4451 57.648062 
L 369.452356 57.527454 
L 368.459962 57.403728 
L 367.467412 57.281385 
L 366.474262 57.164399 
L 365.047101 56.999686 
L 364.012968 56.92697 
L 363.014777 56.865389 
L 362.017018 56.798053 
L 361.017968 56.747936 
L 360.019008 56.696606 
L 359.019104 56.657853 
L 358.019965 56.608909 
L 357.021099 56.556336 
L 356.018757 56.55007 
L 355.015983 56.549564 
L 354.011755 56.568447 
L 353.010738 56.544524 
L 352.009506 56.523474 
L 351.009672 56.483793 
L 350.004537 56.514751 
L 349.00343 56.492037 
L 348.003472 56.454007 
L 347.003954 56.410119 
L 346.002181 56.39627 
L 344.99994 56.388669 
L 343.645274 56.336054 
L 342.641327 56.3631 
L 341.640599 56.363284 
L 340.639725 56.367274 
L 339.638851 56.371286 
L 338.637312 56.392784 
L 337.633736 56.467887 
L 336.632473 56.482124 
L 335.631698 56.483538 
L 334.63063 56.49263 
L 333.629195 56.511393 
L 332.628676 56.506057 
L 331.628024 56.504233 
L 330.627526 56.498325 
L 329.626946 56.494604 
L 328.62545 56.514964 
L 327.624456 56.522141 
L 326.624052 56.513768 
L 325.62286 56.526142 
L 324.622624 56.513346 
L 323.622546 56.496406 
L 322.320238 56.481908 
L 321.35341 56.50591 
L 320.353397 56.519043 
L 319.35338 56.537051 
L 318.353365 56.551779 
L 317.353354 56.563396 
L 316.353349 56.568298 
L 315.353343 56.574247 
L 314.353339 56.578486 
L 313.353341 56.57577 
L 312.353344 56.57211 
L 311.353355 56.560023 
L 310.353381 56.530854 
L 309.353423 56.486132 
L 308.353443 56.464509 
L 307.353481 56.422602 
L 306.353519 56.381593 
L 305.353537 56.361549 
L 304.353559 56.338107 
L 303.353622 56.270521 
L 302.353668 56.219878 
L 301.075548 56.144978 
L 300.096515 56.149448 
L 299.094399 56.109016 
L 298.093668 56.106884 
L 297.091643 56.068956 
L 296.088535 56.001107 
L 295.086665 55.967462 
L 294.083515 55.898438 
L 293.08218 55.8796 
L 292.078371 55.792346 
L 291.076474 55.757974 
L 290.072941 55.678351 
L 289.07178 55.664344 
L 288.071147 55.664903 
L 287.068497 55.609697 
L 286.067216 55.592365 
L 285.064693 55.540655 
L 284.062845 55.507656 
L 283.061809 55.497063 
L 282.059858 55.461207 
L 281.058699 55.447238 
L 279.775199 55.476254 
L 278.744116 55.524158 
L 277.745371 55.577878 
L 276.746633 55.631688 
L 275.746512 55.666637 
L 274.747986 55.723344 
L 273.750049 55.788093 
L 272.752409 55.856881 
L 271.754604 55.923439 
L 270.757466 55.999075 
L 269.76054 56.077615 
L 268.764416 56.167095 
L 267.769425 56.27204 
L 266.774876 56.383014 
L 265.780095 56.490821 
L 264.787381 56.62682 
L 263.791622 56.721285 
L 262.797997 56.844863 
L 261.802496 56.94285 
L 260.809238 57.07143 
L 259.814196 57.175671 
L 258.502927 57.322055 
L 257.491499 57.466065 
L 256.506371 57.655773 
L 255.519982 57.834063 
L 254.538727 58.058842 
L 253.553057 58.243645 
L 252.571784 58.468253 
L 251.586554 58.657038 
L 250.604503 58.874605 
L 249.614869 59.023515 
L 248.632206 59.235542 
L 247.649206 59.444518 
L 246.660245 59.599521 
L 245.670057 59.743417 
L 244.681805 59.90484 
L 243.692202 60.054028 
L 242.702145 60.199109 
L 241.715615 60.376126 
L 240.72595 60.524752 
L 239.737536 60.68471 
L 238.748993 60.843498 
L 237.380657 61.046009 
L 236.427202 61.232038 
L 235.441141 61.399873 
L 234.454136 61.561315 
L 233.471058 61.749358 
L 232.483953 61.910118 
L 231.497995 62.078653 
L 230.511685 62.244803 
L 229.523255 62.396589 
L 228.534341 62.545097 
L 227.544617 62.688124 
L 226.553647 62.822704 
L 225.561898 62.952016 
L 224.567997 63.066747 
L 223.576663 63.198866 
L 222.579694 63.29281 
L 221.583247 63.390299 
L 220.585981 63.482236 
L 219.590227 63.584415 
L 218.590727 63.661225 
L 217.594092 63.757435 
L 216.127074 63.919526 
L 215.150668 64.029764 
L 214.156896 64.155103 
L 213.164436 64.287543 
L 212.167069 64.393437 
L 211.173151 64.517987 
L 210.178788 64.64013 
L 209.188685 64.785319 
L 208.193512 64.903082 
L 207.191062 64.981474 
L 206.19676 65.103947 
L 205.19591 65.191001 
L 204.206752 65.341301 
L 203.214138 65.472904 
L 202.209567 65.539828 
L 201.219783 65.686743 
L 200.226285 65.813564 
L 199.237422 65.965465 
L 198.238015 66.060322 
L 197.246538 66.198073 
L 196.248494 66.300304 
L 194.66807 66.53128 
L 193.650664 66.692103 
L 192.669475 66.886512 
L 191.689756 67.087539 
L 190.70727 67.27611 
L 189.724476 67.463292 
L 188.745537 67.667828 
L 187.763929 67.860353 
L 186.785096 68.065368 
L 185.808067 68.278508 
L 184.832815 68.49965 
L 183.859277 68.728507 
L 182.886188 68.959389 
L 181.91346 69.191892 
L 180.944948 69.44338 
L 179.973056 69.679651 
L 179.009112 69.951706 
L 178.047467 70.234113 
L 177.077188 70.477645 
L 176.108378 70.727791 
L 175.142719 70.992126 
L 173.449519 71.417638 
L 172.475317 71.730953 
L 171.531348 72.074557 
L 170.574208 72.367377 
L 169.618751 72.66669 
L 168.665476 72.974411 
L 167.709452 73.271534 
L 166.756828 73.581766 
L 165.802937 73.887116 
L 164.853588 74.209972 
L 163.91505 74.574517 
L 162.961069 74.879517 
L 162.02027 75.235339 
L 161.078949 75.58915 
L 160.137985 75.944339 
L 159.178677 76.228803 
L 158.236643 76.579863 
L 157.287683 76.904223 
L 156.329612 77.193456 
L 155.371529 77.48264 
L 154.409202 77.755464 
L 152.563075 78.291952 
L 151.629139 78.587698 
L 150.676379 78.892926 
L 149.729292 79.217892 
L 148.773333 79.511986 
L 147.818219 79.809019 
L 146.860603 80.097342 
L 145.904739 80.391764 
L 144.948432 80.684647 
L 143.989267 80.96758 
L 143.027874 81.242764 
L 142.030391 81.522097 
" clip-path="url(#p5758f22cd9)" style="fill: none; stroke: #ffffff; stroke-width: 3; stroke-linecap: round"/>
           <path d="M 482.207538 80.887404 
L 481.255143 80.580921 
L 480.304268 80.269148 
L 479.370193 79.898935 
L 478.418098 79.591409 
L 477.477358 79.244379 
L 476.526933 78.931044 
L 475.575637 78.620738 
L 474.630481 78.289071 
L 473.688846 77.945154 
L 472.742123 77.618942 
L 471.697708 77.257234 
L 470.737526 76.916319 
L 469.781261 76.620199 
L 468.824057 76.327693 
L 467.863857 76.046721 
L 466.902538 75.770055 
L 465.940001 75.498078 
L 464.985787 75.194063 
L 464.024944 74.915565 
L 463.06455 74.635338 
L 462.103068 74.359301 
L 461.138016 74.097002 
L 460.172694 73.835745 
L 459.204774 73.584485 
L 458.234515 73.342231 
L 457.263716 73.102051 
L 456.288045 72.880625 
L 455.317369 72.639976 
L 454.341928 72.417668 
L 453.359028 72.224066 
L 452.381808 72.008604 
L 451.404109 71.794985 
L 450.38187 71.57325 
L 449.374081 71.381719 
L 448.383366 71.229959 
L 447.398809 71.050575 
L 446.41348 70.874656 
L 445.422079 70.725974 
L 444.438117 70.543922 
L 443.449366 70.383354 
L 442.449182 70.274077 
L 441.457764 70.125471 
L 440.457147 70.018133 
L 439.471144 69.845238 
L 438.481766 69.687482 
L 437.49517 69.517247 
L 436.501541 69.378562 
L 435.49971 69.27667 
L 434.50839 69.127627 
L 433.51423 68.991323 
L 432.530975 68.806099 
L 431.543783 68.638538 
L 430.552857 68.487726 
L 428.730913 68.149434 
L 427.756028 68.046764 
L 426.767893 67.890766 
L 425.779911 67.733945 
L 424.792629 67.573361 
L 423.805917 67.409711 
L 422.81795 67.252808 
L 421.825709 67.118887 
L 420.836156 66.970516 
L 419.846457 66.822925 
L 418.860507 66.655181 
L 417.874483 66.487832 
L 416.890719 66.308334 
L 415.907136 66.127859 
L 414.924085 65.944529 
L 413.941297 65.75978 
L 412.960581 65.563894 
L 411.978975 65.372793 
L 410.999772 65.168766 
L 410.020843 64.96327 
L 409.040854 64.763475 
L 407.386988 64.437096 
L 406.432667 64.274775 
L 405.446038 64.110949 
L 404.466217 63.901449 
L 403.488235 63.679599 
L 402.503971 63.499909 
L 401.524854 63.285676 
L 400.543745 63.084812 
L 399.559638 62.904069 
L 398.583847 62.66752 
L 397.598977 62.491889 
L 396.614543 62.31334 
L 395.630038 62.13526 
L 394.649041 61.933644 
L 393.669486 61.722355 
L 392.686041 61.537169 
L 391.711106 61.294876 
L 390.729291 61.098749 
L 389.746711 60.907753 
L 388.76355 60.720661 
L 387.790448 60.46607 
L 386.266426 60.196849 
L 385.272871 60.022864 
L 384.286881 59.84198 
L 383.304738 59.626769 
L 382.315076 59.478654 
L 381.326405 59.321705 
L 380.340252 59.14228 
L 379.351899 58.982481 
L 378.36676 58.794009 
L 377.37638 58.652302 
L 376.390341 58.471863 
L 375.39923 58.336682 
L 374.408636 58.196882 
L 373.41951 58.043992 
L 372.428132 57.911193 
L 371.435905 57.785976 
L 370.4451 57.648062 
L 369.452356 57.527454 
L 368.459962 57.403728 
L 367.467412 57.281385 
L 366.474262 57.164399 
L 365.047101 56.999686 
L 364.012968 56.92697 
L 363.014777 56.865389 
L 362.017018 56.798053 
L 361.017968 56.747936 
L 360.019008 56.696606 
L 359.019104 56.657853 
L 358.019965 56.608909 
L 357.021099 56.556336 
L 356.018757 56.55007 
L 355.015983 56.549564 
L 354.011755 56.568447 
L 353.010738 56.544524 
L 352.009506 56.523474 
L 351.009672 56.483793 
L 350.004537 56.514751 
L 349.00343 56.492037 
L 348.003472 56.454007 
L 347.003954 56.410119 
L 346.002181 56.39627 
L 344.99994 56.388669 
L 343.645274 56.336054 
L 342.641327 56.3631 
L 341.640599 56.363284 
L 340.639725 56.367274 
L 339.638851 56.371286 
L 338.637312 56.392784 
L 337.633736 56.467887 
L 336.632473 56.482124 
L 335.631698 56.483538 
L 334.63063 56.49263 
L 333.629195 56.511393 
L 332.628676 56.506057 
L 331.628024 56.504233 
L 330.627526 56.498325 
L 329.626946 56.494604 
L 328.62545 56.514964 
L 327.624456 56.522141 
L 326.624052 56.513768 
L 325.62286 56.526142 
L 324.622624 56.513346 
L 323.622546 56.496406 
L 322.320238 56.481908 
L 321.35341 56.50591 
L 320.353397 56.519043 
L 319.35338 56.537051 
L 318.353365 56.551779 
L 317.353354 56.563396 
L 316.353349 56.568298 
L 315.353343 56.574247 
L 314.353339 56.578486 
L 313.353341 56.57577 
L 312.353344 56.57211 
L 311.353355 56.560023 
L 310.353381 56.530854 
L 309.353423 56.486132 
L 308.353443 56.464509 
L 307.353481 56.422602 
L 306.353519 56.381593 
L 305.353537 56.361549 
L 304.353559 56.338107 
L 303.353622 56.270521 
L 302.353668 56.219878 
L 301.075548 56.144978 
L 300.096515 56.149448 
L 299.094399 56.109016 
L 298.093668 56.106884 
L 297.091643 56.068956 
L 296.088535 56.001107 
L 295.086665 55.967462 
L 294.083515 55.898438 
L 293.08218 55.8796 
L 292.078371 55.792346 
L 291.076474 55.757974 
L 290.072941 55.678351 
L 289.07178 55.664344 
L 288.071147 55.664903 
L 287.068497 55.609697 
L 286.067216 55.592365 
L 285.064693 55.540655 
L 284.062845 55.507656 
L 283.061809 55.497063 
L 282.059858 55.461207 
L 281.058699 55.447238 
L 279.775199 55.476254 
L 278.744116 55.524158 
L 277.745371 55.577878 
L 276.746633 55.631688 
L 275.746512 55.666637 
L 274.747986 55.723344 
L 273.750049 55.788093 
L 272.752409 55.856881 
L 271.754604 55.923439 
L 270.757466 55.999075 
L 269.76054 56.077615 
L 268.764416 56.167095 
L 267.769425 56.27204 
L 266.774876 56.383014 
L 265.780095 56.490821 
L 264.787381 56.62682 
L 263.791622 56.721285 
L 262.797997 56.844863 
L 261.802496 56.94285 
L 260.809238 57.07143 
L 259.814196 57.175671 
L 258.502927 57.322055 
L 257.491499 57.466065 
L 256.506371 57.655773 
L 255.519982 57.834063 
L 254.538727 58.058842 
L 253.553057 58.243645 
L 252.571784 58.468253 
L 251.586554 58.657038 
L 250.604503 58.874605 
L 249.614869 59.023515 
L 248.632206 59.235542 
L 247.649206 59.444518 
L 246.660245 59.599521 
L 245.670057 59.743417 
L 244.681805 59.90484 
L 243.692202 60.054028 
L 242.702145 60.199109 
L 241.715615 60.376126 
L 240.72595 60.524752 
L 239.737536 60.68471 
L 238.748993 60.843498 
L 237.380657 61.046009 
L 236.427202 61.232038 
L 235.441141 61.399873 
L 234.454136 61.561315 
L 233.471058 61.749358 
L 232.483953 61.910118 
L 231.497995 62.078653 
L 230.511685 62.244803 
L 229.523255 62.396589 
L 228.534341 62.545097 
L 227.544617 62.688124 
L 226.553647 62.822704 
L 225.561898 62.952016 
L 224.567997 63.066747 
L 223.576663 63.198866 
L 222.579694 63.29281 
L 221.583247 63.390299 
L 220.585981 63.482236 
L 219.590227 63.584415 
L 218.590727 63.661225 
L 217.594092 63.757435 
L 216.127074 63.919526 
L 215.150668 64.029764 
L 214.156896 64.155103 
L 213.164436 64.287543 
L 212.167069 64.393437 
L 211.173151 64.517987 
L 210.178788 64.64013 
L 209.188685 64.785319 
L 208.193512 64.903082 
L 207.191062 64.981474 
L 206.19676 65.103947 
L 205.19591 65.191001 
L 204.206752 65.341301 
L 203.214138 65.472904 
L 202.209567 65.539828 
L 201.219783 65.686743 
L 200.226285 65.813564 
L 199.237422 65.965465 
L 198.238015 66.060322 
L 197.246538 66.198073 
L 196.248494 66.300304 
L 194.66807 66.53128 
L 193.650664 66.692103 
L 192.669475 66.886512 
L 191.689756 67.087539 
L 190.70727 67.27611 
L 189.724476 67.463292 
L 188.745537 67.667828 
L 187.763929 67.860353 
L 186.785096 68.065368 
L 185.808067 68.278508 
L 184.832815 68.49965 
L 183.859277 68.728507 
L 182.886188 68.959389 
L 181.91346 69.191892 
L 180.944948 69.44338 
L 179.973056 69.679651 
L 179.009112 69.951706 
L 178.047467 70.234113 
L 177.077188 70.477645 
L 176.108378 70.727791 
L 175.142719 70.992126 
L 173.449519 71.417638 
L 172.475317 71.730953 
L 171.531348 72.074557 
L 170.574208 72.367377 
L 169.618751 72.66669 
L 168.665476 72.974411 
L 167.709452 73.271534 
L 166.756828 73.581766 
L 165.802937 73.887116 
L 164.853588 74.209972 
L 163.91505 74.574517 
L 162.961069 74.879517 
L 162.02027 75.235339 
L 161.078949 75.58915 
L 160.137985 75.944339 
L 159.178677 76.228803 
L 158.236643 76.579863 
L 157.287683 76.904223 
L 156.329612 77.193456 
L 155.371529 77.48264 
L 154.409202 77.755464 
L 152.563075 78.291952 
L 151.629139 78.587698 
L 150.676379 78.892926 
L 149.729292 79.217892 
L 148.773333 79.511986 
L 147.818219 79.809019 
L 146.860603 80.097342 
L 145.904739 80.391764 
L 144.948432 80.684647 
L 143.989267 80.96758 
L 143.027874 81.242764 
L 142.030391 81.522097 
" clip-path="url(#p5758f22cd9)" style="fill: none; stroke: #2ca02c; stroke-linecap: round"/>
           <path d="M 146.160294 81.349177 
L 145.181092 81.143871 
L 144.202849 80.933145 
L 143.235207 80.662545 
L 141.791289 80.373853 
L 142.672944 80.085155 
L 143.42958 79.430183 
L 144.184063 78.772909 
L 145.298526 77.809333 
L 144.852348 78.60797 
L 145.08695 79.58145 
L 145.31472 80.556956 
L 145.514467 81.540776 
z
" clip-path="url(#p5758f22cd9)" style="fill: #ffffff; stroke: #ffffff; stroke-width: 3; stroke-linecap: round"/>
           <path d="M 146.160294 81.349177 
L 145.181092 81.143871 
L 144.202849 80.933145 
L 143.235207 80.662545 
L 141.791289 80.373853 
L 142.672944 80.085155 
L 143.42958 79.430183 
L 144.184063 78.772909 
L 145.298526 77.809333 
L 144.852348 78.60797 
L 145.08695 79.58145 
L 145.31472 80.556956 
L 145.514467 81.540776 
z
" clip-path="url(#p5758f22cd9)" style="fill: #ffffff; stroke: #2ca02c; stroke-linecap: round"/>
           <g id="patch_11">
            <path d="M 171.128472 80.894702 
L 172.101985 80.66392 
L 173.076936 80.438452 
L 174.067764 80.27168 
L 175.041561 80.041946 
L 176.026091 79.851889 
L 177.019764 79.623039 
L 177.989345 79.448746 
L 178.978742 79.292492 
L 179.970849 79.148692 
L 180.95904 78.986892 
L 181.948745 78.832054 
L 182.944665 78.70578 
L 183.931618 78.538292 
L 184.917778 78.367157 
L 185.901405 78.184376 
L 186.884085 77.997248 
L 188.712218 77.621236 
L 189.652779 77.540258 
L 190.646259 77.422878 
L 191.639998 77.307265 
L 192.63311 77.187368 
L 193.624162 77.053428 
L 194.615059 76.918422 
L 195.604457 76.773197 
L 196.592507 76.618766 
L 197.580245 76.462213 
L 198.565173 76.286489 
L 200.230767 76.031072 
L 201.160191 75.933323 
L 202.152895 75.798744 
L 203.147293 75.686687 
L 204.141548 75.572731 
L 205.135552 75.455441 
L 206.130281 75.347798 
L 207.122412 75.205592 
L 208.116665 75.091606 
L 209.110651 74.974081 
L 210.102545 74.828729 
L 211.655882 74.675453 
L 212.624358 74.614905 
L 213.623978 74.500579 
L 214.623734 74.426547 
L 215.623347 74.310234 
L 216.623187 74.261088 
L 217.622975 74.196431 
L 218.622806 74.144558 
L 219.622527 74.060361 
L 220.622122 73.938469 
L 221.621879 73.864885 
L 223.116005 73.776581 
L 224.146465 73.813208 
L 225.147622 73.830783 
L 226.149958 73.831238 
L 227.152145 73.83387 
L 228.155066 73.825827 
L 229.154581 73.867267 
L 230.154037 73.909544 
L 231.153231 73.955638 
L 232.152211 74.004845 
L 233.151662 74.047205 
L 234.639478 74.099759 
L 235.698227 74.211834 
L 236.693388 74.316433 
L 237.685677 74.441328 
L 238.678022 74.565826 
L 239.668636 74.702558 
L 240.659111 74.840275 
L 241.649179 74.980867 
L 242.639044 75.122889 
L 243.627322 75.276126 
L 244.616283 75.424545 
L 246.139111 75.661787 
L 247.178529 75.905944 
L 248.152655 76.132606 
L 249.126523 76.360469 
L 250.099974 76.590278 
L 251.074233 76.816319 
L 252.038803 77.087512 
L 253.000754 77.370913 
L 253.971648 77.612638 
L 254.935214 77.888509 
L 255.901616 78.151164 
L 257.510757 78.530938 
L 258.47972 78.884849 
L 259.437796 79.172779 
L 260.395105 79.463558 
L 261.352536 79.753879 
L 263.160466 80.29821 
" clip-path="url(#p5758f22cd9)" style="fill: none; stroke: #ffffff; stroke-width: 3; stroke-linecap: round"/>
            <path d="M 171.128472 80.894702 
L 172.101985 80.66392 
L 173.076936 80.438452 
L 174.067764 80.27168 
L 175.041561 80.041946 
L 176.026091 79.851889 
L 177.019764 79.623039 
L 177.989345 79.448746 
L 178.978742 79.292492 
L 179.970849 79.148692 
L 180.95904 78.986892 
L 181.948745 78.832054 
L 182.944665 78.70578 
L 183.931618 78.538292 
L 184.917778 78.367157 
L 185.901405 78.184376 
L 186.884085 77.997248 
L 188.712218 77.621236 
L 189.652779 77.540258 
L 190.646259 77.422878 
L 191.639998 77.307265 
L 192.63311 77.187368 
L 193.624162 77.053428 
L 194.615059 76.918422 
L 195.604457 76.773197 
L 196.592507 76.618766 
L 197.580245 76.462213 
L 198.565173 76.286489 
L 200.230767 76.031072 
L 201.160191 75.933323 
L 202.152895 75.798744 
L 203.147293 75.686687 
L 204.141548 75.572731 
L 205.135552 75.455441 
L 206.130281 75.347798 
L 207.122412 75.205592 
L 208.116665 75.091606 
L 209.110651 74.974081 
L 210.102545 74.828729 
L 211.655882 74.675453 
L 212.624358 74.614905 
L 213.623978 74.500579 
L 214.623734 74.426547 
L 215.623347 74.310234 
L 216.623187 74.261088 
L 217.622975 74.196431 
L 218.622806 74.144558 
L 219.622527 74.060361 
L 220.622122 73.938469 
L 221.621879 73.864885 
L 223.116005 73.776581 
L 224.146465 73.813208 
L 225.147622 73.830783 
L 226.149958 73.831238 
L 227.152145 73.83387 
L 228.155066 73.825827 
L 229.154581 73.867267 
L 230.154037 73.909544 
L 231.153231 73.955638 
L 232.152211 74.004845 
L 233.151662 74.047205 
L 234.639478 74.099759 
L 235.698227 74.211834 
L 236.693388 74.316433 
L 237.685677 74.441328 
L 238.678022 74.565826 
L 239.668636 74.702558 
L 240.659111 74.840275 
L 241.649179 74.980867 
L 242.639044 75.122889 
L 243.627322 75.276126 
L 244.616283 75.424545 
L 246.139111 75.661787 
L 247.178529 75.905944 
L 248.152655 76.132606 
L 249.126523 76.360469 
L 250.099974 76.590278 
L 251.074233 76.816319 
L 252.038803 77.087512 
L 253.000754 77.370913 
L 253.971648 77.612638 
L 254.935214 77.888509 
L 255.901616 78.151164 
L 257.510757 78.530938 
L 258.47972 78.884849 
L 259.437796 79.172779 
L 260.395105 79.463558 
L 261.352536 79.753879 
L 263.160466 80.29821 
" clip-path="url(#p5758f22cd9)" style="fill: none; stroke: #1f77b4; stroke-linecap: round"/>
            <path d="M 259.79329 77.555252 
L 260.50766 78.255727 
L 261.218301 78.96025 
L 261.887755 79.709507 
L 262.948721 80.730581 
L 262.050411 80.49885 
L 261.060111 80.64305 
L 260.070386 80.790351 
L 258.612372 81.001782 
L 259.418507 80.569298 
L 259.745281 79.622768 
L 260.355742 77.717294 
z
" clip-path="url(#p5758f22cd9)" style="fill: #ffffff; stroke: #ffffff; stroke-width: 3; stroke-linecap: round"/>
            <path d="M 259.79329 77.555252 
L 260.50766 78.255727 
L 261.218301 78.96025 
L 261.887755 79.709507 
L 262.948721 80.730581 
L 262.050411 80.49885 
L 261.060111 80.64305 
L 260.070386 80.790351 
L 258.612372 81.001782 
L 259.418507 80.569298 
L 259.745281 79.622768 
L 260.355742 77.717294 
z
" clip-path="url(#p5758f22cd9)" style="fill: #ffffff; stroke: #1f77b4; stroke-linecap: round"/>
            <g id="patch_12">
             <path d="M 482.121917 81.458875 
L 481.121917 81.427439 
L 480.121917 81.390498 
L 479.121917 81.292752 
L 478.121917 81.26023 
L 477.121917 81.186605 
L 476.121917 81.14804 
L 475.121917 81.112627 
L 474.121917 81.054987 
L 473.121917 80.984601 
L 472.121917 80.932636 
L 471.121917 80.873547 
L 470.121917 80.785226 
L 469.121917 80.739081 
L 468.121917 80.69667 
L 467.121917 80.666178 
L 466.121917 80.640133 
L 465.121917 80.618933 
L 464.121917 80.564632 
L 463.121917 80.536694 
L 462.121917 80.50697 
L 461.121917 80.481575 
L 460.121917 80.470375 
L 459.121917 80.460251 
L 458.121917 80.460455 
L 457.121917 80.469965 
L 456.121917 80.481619 
L 455.121917 80.512648 
L 454.121917 80.523816 
L 453.121917 80.553933 
L 452.121917 80.61371 
L 451.121917 80.650902 
L 450.121917 80.689998 
L 449.121917 80.732438 
L 448.121917 80.765203 
L 447.121917 80.832629 
L 446.121917 80.871755 
L 445.121917 80.91443 
L 444.121917 80.98501 
L 443.121917 81.021401 
L 442.121917 81.079804 
L 441.121917 81.190757 
L 440.121917 81.261415 
L 439.121917 81.374355 
L 438.121917 81.420128 
L 437.121917 81.481411 
L 436.121917 81.52991 
L 435.121917 81.610733 
L 434.121917 81.729252 
L 433.121917 81.799463 
L 432.121917 81.882725 
L 431.121917 81.915867 
L 430.121917 81.967104 
L 429.121917 82.035503 
L 428.121917 82.101718 
L 427.121917 82.178635 
L 426.121917 82.205951 
L 425.121917 82.232428 
L 424.121917 82.255079 
L 423.121917 82.27461 
L 422.121917 82.301004 
L 421.121917 82.350775 
L 420.121917 82.385848 
L 419.121917 82.421714 
L 418.121917 82.437081 
L 417.121917 82.45285 
L 416.121917 82.456263 
L 415.121917 82.45868 
L 414.121917 82.458194 
L 413.121917 82.456265 
L 412.121917 82.443008 
L 411.121917 82.434617 
L 410.121917 82.413081 
L 409.121917 82.390048 
L 408.121917 82.372815 
L 407.121917 82.354352 
L 406.121917 82.3339 
L 405.121917 82.3173 
L 404.121917 82.254521 
L 403.121917 82.179256 
L 402.121917 82.146617 
L 401.121917 82.079053 
L 400.121917 82.025006 
L 399.121917 81.991302 
L 398.121917 81.901176 
L 397.121917 81.872641 
L 396.121917 81.841155 
L 395.121917 81.810144 
L 394.121917 81.755336 
L 393.121917 81.690749 
L 392.121917 81.652553 
L 390.382251 81.556619 
" clip-path="url(#p5758f22cd9)" style="fill: none; stroke: #ffffff; stroke-width: 3; stroke-linecap: round"/>
             <path d="M 482.121917 81.458875 
L 481.121917 81.427439 
L 480.121917 81.390498 
L 479.121917 81.292752 
L 478.121917 81.26023 
L 477.121917 81.186605 
L 476.121917 81.14804 
L 475.121917 81.112627 
L 474.121917 81.054987 
L 473.121917 80.984601 
L 472.121917 80.932636 
L 471.121917 80.873547 
L 470.121917 80.785226 
L 469.121917 80.739081 
L 468.121917 80.69667 
L 467.121917 80.666178 
L 466.121917 80.640133 
L 465.121917 80.618933 
L 464.121917 80.564632 
L 463.121917 80.536694 
L 462.121917 80.50697 
L 461.121917 80.481575 
L 460.121917 80.470375 
L 459.121917 80.460251 
L 458.121917 80.460455 
L 457.121917 80.469965 
L 456.121917 80.481619 
L 455.121917 80.512648 
L 454.121917 80.523816 
L 453.121917 80.553933 
L 452.121917 80.61371 
L 451.121917 80.650902 
L 450.121917 80.689998 
L 449.121917 80.732438 
L 448.121917 80.765203 
L 447.121917 80.832629 
L 446.121917 80.871755 
L 445.121917 80.91443 
L 444.121917 80.98501 
L 443.121917 81.021401 
L 442.121917 81.079804 
L 441.121917 81.190757 
L 440.121917 81.261415 
L 439.121917 81.374355 
L 438.121917 81.420128 
L 437.121917 81.481411 
L 436.121917 81.52991 
L 435.121917 81.610733 
L 434.121917 81.729252 
L 433.121917 81.799463 
L 432.121917 81.882725 
L 431.121917 81.915867 
L 430.121917 81.967104 
L 429.121917 82.035503 
L 428.121917 82.101718 
L 427.121917 82.178635 
L 426.121917 82.205951 
L 425.121917 82.232428 
L 424.121917 82.255079 
L 423.121917 82.27461 
L 422.121917 82.301004 
L 421.121917 82.350775 
L 420.121917 82.385848 
L 419.121917 82.421714 
L 418.121917 82.437081 
L 417.121917 82.45285 
L 416.121917 82.456263 
L 415.121917 82.45868 
L 414.121917 82.458194 
L 413.121917 82.456265 
L 412.121917 82.443008 
L 411.121917 82.434617 
L 410.121917 82.413081 
L 409.121917 82.390048 
L 408.121917 82.372815 
L 407.121917 82.354352 
L 406.121917 82.3339 
L 405.121917 82.3173 
L 404.121917 82.254521 
L 403.121917 82.179256 
L 402.121917 82.146617 
L 401.121917 82.079053 
L 400.121917 82.025006 
L 399.121917 81.991302 
L 398.121917 81.901176 
L 397.121917 81.872641 
L 396.121917 81.841155 
L 395.121917 81.810144 
L 394.121917 81.755336 
L 393.121917 81.690749 
L 392.121917 81.652553 
L 390.382251 81.556619 
" clip-path="url(#p5758f22cd9)" style="fill: none; stroke: #2ca02c; stroke-linecap: round"/>
             <path d="M 394.382251 83.458875 
L 393.501883 82.983544 
L 392.623976 82.50329 
L 391.773262 81.968649 
L 390.471088 81.281202 
L 391.398441 81.255187 
L 392.310115 80.842467 
L 393.220379 80.426928 
L 394.562875 79.820124 
L 393.907976 80.458875 
L 393.856012 81.458875 
L 393.796922 83.458875 
z
" clip-path="url(#p5758f22cd9)" style="fill: #ffffff; stroke: #ffffff; stroke-width: 3; stroke-linecap: round"/>
             <path d="M 394.382251 83.458875 
L 393.501883 82.983544 
L 392.623976 82.50329 
L 391.773262 81.968649 
L 390.471088 81.281202 
L 391.398441 81.255187 
L 392.310115 80.842467 
L 393.220379 80.426928 
L 394.562875 79.820124 
L 393.907976 80.458875 
L 393.856012 81.458875 
L 393.796922 83.458875 
z
" clip-path="url(#p5758f22cd9)" style="fill: #ffffff; stroke: #2ca02c; stroke-linecap: round"/>
             <g id="patch_13">
              <path d="M 170.928358 82.48373 
L 171.779847 83.009043 
L 172.628595 83.539129 
L 173.447059 84.121943 
L 174.298008 84.648197 
L 175.128485 85.210094 
L 175.976423 85.741589 
L 176.825932 86.270351 
L 177.664371 86.818387 
L 178.496461 87.377475 
L 179.456607 87.988869 
L 180.336541 88.51279 
L 181.183377 89.051928 
L 182.049646 89.553633 
L 182.917634 90.052024 
L 183.791115 90.539838 
L 184.666644 91.023704 
L 185.544406 91.503271 
L 186.406916 92.012215 
L 187.281574 92.497761 
L 188.155408 92.984892 
L 189.031237 93.468181 
L 189.913606 93.938873 
L 190.796471 94.408608 
L 191.684095 94.869177 
L 192.576007 95.321488 
L 193.468906 95.771895 
L 194.370732 96.205106 
L 195.263407 96.655945 
L 196.876802 97.459585 
L 197.863318 97.835364 
L 198.79192 98.2083 
L 199.721297 98.579496 
L 200.652035 98.947638 
L 201.578836 99.324617 
L 202.519741 99.669934 
L 203.44913 100.041103 
L 204.379963 100.40903 
L 205.322152 100.751466 
L 206.250428 101.125134 
L 207.187662 101.478694 
L 208.146278 101.784251 
L 209.088498 102.126616 
L 210.047923 102.430358 
L 210.980017 102.795456 
L 211.918422 103.146384 
L 212.851625 103.508991 
L 213.797982 103.842071 
L 214.971312 104.234991 
L 215.917299 104.511143 
L 216.883649 104.781516 
L 217.832535 105.098868 
L 218.787727 105.399259 
L 219.748897 105.683564 
L 220.709308 105.969915 
L 221.673446 106.246235 
L 222.620303 106.569049 
L 223.566868 106.892648 
L 224.512099 107.219834 
L 225.456243 107.549944 
L 226.402779 107.873621 
L 227.357459 108.175387 
L 228.307019 108.490929 
L 229.256855 108.805728 
L 230.199548 109.139741 
L 231.142382 109.473377 
L 232.768825 110.0743 
L 233.665142 110.3365 
L 234.623381 110.622466 
L 235.581209 110.909816 
L 236.535803 111.208022 
L 237.491786 111.501564 
L 238.444015 111.807705 
L 239.395818 112.115279 
L 240.349277 112.417297 
L 241.302384 112.720491 
L 242.254923 113.025593 
L 243.208562 113.327003 
L 244.149018 113.672669 
L 245.085908 114.030302 
L 246.034968 114.347084 
L 246.974057 114.697336 
L 247.917005 115.034634 
L 248.865761 115.352436 
L 250.100107 115.814188 
L 251.040095 116.05293 
L 252.009024 116.302263 
L 252.978058 116.551133 
L 253.941889 116.823224 
L 254.903582 117.104858 
L 255.871045 117.360738 
L 256.825885 117.67296 
L 257.79093 117.939635 
L 258.757108 118.201248 
L 259.72415 118.459009 
L 260.676272 118.783364 
L 261.642985 119.042594 
L 262.605213 119.321841 
L 263.565731 119.60872 
L 264.518698 119.929305 
L 265.486425 120.184007 
L 267.408391 120.661594 
L 268.422601 120.884382 
L 269.404289 121.081017 
L 270.381694 121.306184 
L 271.366084 121.484815 
L 272.344689 121.701989 
L 273.330054 121.874125 
L 274.314729 122.050858 
L 275.297448 122.240618 
L 276.283169 122.410383 
L 277.270022 122.572606 
L 278.254978 122.747461 
L 279.24252 122.905097 
L 280.229595 123.065835 
L 281.216877 123.225196 
L 282.20496 123.379227 
L 283.193176 123.532367 
L 284.908714 123.784245 
L 285.978989 123.855017 
L 286.976676 123.923394 
L 287.975674 123.974554 
L 288.97458 124.026926 
L 289.974443 124.066723 
L 290.97353 124.116709 
L 291.972341 124.170325 
L 292.974676 124.177636 
L 293.977448 124.179189 
L 294.981696 124.161353 
L 295.982687 124.186321 
L 296.983897 124.208416 
L 297.983689 124.24914 
L 298.988856 124.219231 
L 299.989939 124.24299 
L 300.989856 124.282063 
L 302.568301 124.37105 
L 303.585922 124.312607 
L 304.586056 124.247217 
L 305.586154 124.200341 
L 306.586284 124.137179 
L 307.586359 124.101021 
L 308.586443 124.061055 
L 309.586526 124.021068 
L 310.586645 123.963581 
L 311.586872 123.852451 
L 312.586976 123.80223 
L 313.587054 123.764843 
L 314.587148 123.719771 
L 315.587261 123.665022 
L 316.587325 123.634388 
L 317.587396 123.60024 
L 318.58746 123.570179 
L 320.110018 123.53899 
L 321.05655 123.410487 
L 322.050712 123.293509 
L 323.045993 123.192052 
L 324.039781 123.069887 
L 325.03538 122.972845 
L 326.031278 122.879939 
L 327.026174 122.773152 
L 328.021839 122.677015 
L 329.018238 122.591075 
L 330.014287 122.500272 
L 331.010572 122.412741 
L 332.007081 122.328313 
L 333.004072 122.250582 
L 334.000989 122.171808 
L 334.998028 122.094738 
L 335.995567 122.024606 
L 337.552127 121.915117 
L 338.470737 121.78931 
L 339.464293 121.672502 
L 340.4601 121.571083 
L 341.452563 121.446809 
L 342.447963 121.342605 
L 343.443233 121.237513 
L 344.435468 121.111676 
L 345.428194 120.989202 
L 346.427311 120.910406 
L 347.423975 120.814846 
L 348.424113 120.743031 
L 349.418114 120.629269 
L 350.418674 120.560339 
L 351.413686 120.453488 
L 352.413883 120.382079 
L 353.418414 120.340296 
L 355.104448 120.164226 
L 356.090638 120.054009 
L 357.07902 119.892369 
L 358.082146 119.797582 
L 359.073876 119.651121 
L 360.075357 119.548877 
L 361.062698 119.382516 
L 362.0469 119.201921 
L 363.043119 119.075818 
L 364.031177 118.912706 
L 365.026643 118.783187 
L 366.018076 118.635384 
L 367.004682 118.465686 
L 367.996731 118.320675 
L 368.984064 118.154276 
L 369.964343 117.955893 
L 370.946692 117.766899 
L 372.82625 117.372276 
L 373.85204 117.092268 
L 374.822031 116.846136 
L 375.785852 116.57908 
L 376.747392 116.304288 
L 377.707787 116.025612 
L 378.668814 115.749081 
L 379.627268 115.463819 
L 380.584897 115.175765 
L 381.539424 114.877188 
L 382.489566 114.563739 
L 383.437998 114.24449 
L 384.387328 113.928288 
L 385.328663 113.584973 
L 386.281777 113.281602 
L 387.226634 112.950232 
L 388.178749 112.643474 
L 389.122188 112.307293 
L 390.299811 111.927505 
L 391.260177 111.520939 
L 392.187017 111.144077 
L 393.097258 110.722262 
L 394.011477 110.311224 
L 394.909496 109.856309 
L 395.821446 109.439122 
L 396.719525 108.984369 
L 397.630088 108.563425 
L 398.53062 108.115317 
L 399.455078 107.732007 
L 400.357541 107.289127 
L 401.261067 106.849127 
L 402.183402 106.460066 
L 403.109608 106.081488 
L 404.029706 105.686369 
L 404.954067 105.302797 
L 405.87986 104.923101 
L 407.393714 104.292019 
L 408.255271 103.865623 
L 409.148867 103.413922 
L 410.042941 102.963296 
L 410.936299 102.511058 
L 411.832427 102.065063 
L 412.737566 101.639378 
L 413.645327 101.219601 
L 414.542182 100.775244 
L 415.450222 100.356097 
L 416.355074 99.929765 
L 417.260904 99.505637 
L 418.172623 99.094781 
L 419.085686 98.686955 
L 420.000995 98.284192 
L 420.919768 97.889234 
L 421.840699 97.499143 
L 422.767609 97.122526 
L 423.687391 96.729842 
L 424.732872 96.323603 
L 425.595891 95.929889 
L 426.508931 95.518367 
L 427.417208 95.097654 
L 428.337283 94.699709 
L 429.248336 94.284353 
L 430.161011 93.872127 
L 431.080833 93.473692 
L 431.995109 93.064556 
L 432.906062 92.649007 
L 433.829437 92.257429 
L 434.744082 91.849005 
L 435.659854 91.442755 
L 436.564843 91.015696 
L 437.482663 90.613401 
L 438.418905 90.246654 
L 439.334523 89.840105 
L 440.266712 89.465538 
L 441.169309 89.033864 
L 442.680929 88.308014 
L 443.61662 87.905782 
L 444.501506 87.438628 
L 445.396566 86.989195 
L 446.278927 86.517642 
L 447.190172 86.096399 
L 448.079697 85.637325 
L 448.987208 85.209579 
L 449.884392 84.763845 
L 450.783039 84.320661 
L 451.721441 83.808371 
" clip-path="url(#p5758f22cd9)" style="fill: none; stroke: #ffffff; stroke-width: 3; stroke-linecap: round"/>
              <path d="M 170.928358 82.48373 
L 171.779847 83.009043 
L 172.628595 83.539129 
L 173.447059 84.121943 
L 174.298008 84.648197 
L 175.128485 85.210094 
L 175.976423 85.741589 
L 176.825932 86.270351 
L 177.664371 86.818387 
L 178.496461 87.377475 
L 179.456607 87.988869 
L 180.336541 88.51279 
L 181.183377 89.051928 
L 182.049646 89.553633 
L 182.917634 90.052024 
L 183.791115 90.539838 
L 184.666644 91.023704 
L 185.544406 91.503271 
L 186.406916 92.012215 
L 187.281574 92.497761 
L 188.155408 92.984892 
L 189.031237 93.468181 
L 189.913606 93.938873 
L 190.796471 94.408608 
L 191.684095 94.869177 
L 192.576007 95.321488 
L 193.468906 95.771895 
L 194.370732 96.205106 
L 195.263407 96.655945 
L 196.876802 97.459585 
L 197.863318 97.835364 
L 198.79192 98.2083 
L 199.721297 98.579496 
L 200.652035 98.947638 
L 201.578836 99.324617 
L 202.519741 99.669934 
L 203.44913 100.041103 
L 204.379963 100.40903 
L 205.322152 100.751466 
L 206.250428 101.125134 
L 207.187662 101.478694 
L 208.146278 101.784251 
L 209.088498 102.126616 
L 210.047923 102.430358 
L 210.980017 102.795456 
L 211.918422 103.146384 
L 212.851625 103.508991 
L 213.797982 103.842071 
L 214.971312 104.234991 
L 215.917299 104.511143 
L 216.883649 104.781516 
L 217.832535 105.098868 
L 218.787727 105.399259 
L 219.748897 105.683564 
L 220.709308 105.969915 
L 221.673446 106.246235 
L 222.620303 106.569049 
L 223.566868 106.892648 
L 224.512099 107.219834 
L 225.456243 107.549944 
L 226.402779 107.873621 
L 227.357459 108.175387 
L 228.307019 108.490929 
L 229.256855 108.805728 
L 230.199548 109.139741 
L 231.142382 109.473377 
L 232.768825 110.0743 
L 233.665142 110.3365 
L 234.623381 110.622466 
L 235.581209 110.909816 
L 236.535803 111.208022 
L 237.491786 111.501564 
L 238.444015 111.807705 
L 239.395818 112.115279 
L 240.349277 112.417297 
L 241.302384 112.720491 
L 242.254923 113.025593 
L 243.208562 113.327003 
L 244.149018 113.672669 
L 245.085908 114.030302 
L 246.034968 114.347084 
L 246.974057 114.697336 
L 247.917005 115.034634 
L 248.865761 115.352436 
L 250.100107 115.814188 
L 251.040095 116.05293 
L 252.009024 116.302263 
L 252.978058 116.551133 
L 253.941889 116.823224 
L 254.903582 117.104858 
L 255.871045 117.360738 
L 256.825885 117.67296 
L 257.79093 117.939635 
L 258.757108 118.201248 
L 259.72415 118.459009 
L 260.676272 118.783364 
L 261.642985 119.042594 
L 262.605213 119.321841 
L 263.565731 119.60872 
L 264.518698 119.929305 
L 265.486425 120.184007 
L 267.408391 120.661594 
L 268.422601 120.884382 
L 269.404289 121.081017 
L 270.381694 121.306184 
L 271.366084 121.484815 
L 272.344689 121.701989 
L 273.330054 121.874125 
L 274.314729 122.050858 
L 275.297448 122.240618 
L 276.283169 122.410383 
L 277.270022 122.572606 
L 278.254978 122.747461 
L 279.24252 122.905097 
L 280.229595 123.065835 
L 281.216877 123.225196 
L 282.20496 123.379227 
L 283.193176 123.532367 
L 284.908714 123.784245 
L 285.978989 123.855017 
L 286.976676 123.923394 
L 287.975674 123.974554 
L 288.97458 124.026926 
L 289.974443 124.066723 
L 290.97353 124.116709 
L 291.972341 124.170325 
L 292.974676 124.177636 
L 293.977448 124.179189 
L 294.981696 124.161353 
L 295.982687 124.186321 
L 296.983897 124.208416 
L 297.983689 124.24914 
L 298.988856 124.219231 
L 299.989939 124.24299 
L 300.989856 124.282063 
L 302.568301 124.37105 
L 303.585922 124.312607 
L 304.586056 124.247217 
L 305.586154 124.200341 
L 306.586284 124.137179 
L 307.586359 124.101021 
L 308.586443 124.061055 
L 309.586526 124.021068 
L 310.586645 123.963581 
L 311.586872 123.852451 
L 312.586976 123.80223 
L 313.587054 123.764843 
L 314.587148 123.719771 
L 315.587261 123.665022 
L 316.587325 123.634388 
L 317.587396 123.60024 
L 318.58746 123.570179 
L 320.110018 123.53899 
L 321.05655 123.410487 
L 322.050712 123.293509 
L 323.045993 123.192052 
L 324.039781 123.069887 
L 325.03538 122.972845 
L 326.031278 122.879939 
L 327.026174 122.773152 
L 328.021839 122.677015 
L 329.018238 122.591075 
L 330.014287 122.500272 
L 331.010572 122.412741 
L 332.007081 122.328313 
L 333.004072 122.250582 
L 334.000989 122.171808 
L 334.998028 122.094738 
L 335.995567 122.024606 
L 337.552127 121.915117 
L 338.470737 121.78931 
L 339.464293 121.672502 
L 340.4601 121.571083 
L 341.452563 121.446809 
L 342.447963 121.342605 
L 343.443233 121.237513 
L 344.435468 121.111676 
L 345.428194 120.989202 
L 346.427311 120.910406 
L 347.423975 120.814846 
L 348.424113 120.743031 
L 349.418114 120.629269 
L 350.418674 120.560339 
L 351.413686 120.453488 
L 352.413883 120.382079 
L 353.418414 120.340296 
L 355.104448 120.164226 
L 356.090638 120.054009 
L 357.07902 119.892369 
L 358.082146 119.797582 
L 359.073876 119.651121 
L 360.075357 119.548877 
L 361.062698 119.382516 
L 362.0469 119.201921 
L 363.043119 119.075818 
L 364.031177 118.912706 
L 365.026643 118.783187 
L 366.018076 118.635384 
L 367.004682 118.465686 
L 367.996731 118.320675 
L 368.984064 118.154276 
L 369.964343 117.955893 
L 370.946692 117.766899 
L 372.82625 117.372276 
L 373.85204 117.092268 
L 374.822031 116.846136 
L 375.785852 116.57908 
L 376.747392 116.304288 
L 377.707787 116.025612 
L 378.668814 115.749081 
L 379.627268 115.463819 
L 380.584897 115.175765 
L 381.539424 114.877188 
L 382.489566 114.563739 
L 383.437998 114.24449 
L 384.387328 113.928288 
L 385.328663 113.584973 
L 386.281777 113.281602 
L 387.226634 112.950232 
L 388.178749 112.643474 
L 389.122188 112.307293 
L 390.299811 111.927505 
L 391.260177 111.520939 
L 392.187017 111.144077 
L 393.097258 110.722262 
L 394.011477 110.311224 
L 394.909496 109.856309 
L 395.821446 109.439122 
L 396.719525 108.984369 
L 397.630088 108.563425 
L 398.53062 108.115317 
L 399.455078 107.732007 
L 400.357541 107.289127 
L 401.261067 106.849127 
L 402.183402 106.460066 
L 403.109608 106.081488 
L 404.029706 105.686369 
L 404.954067 105.302797 
L 405.87986 104.923101 
L 407.393714 104.292019 
L 408.255271 103.865623 
L 409.148867 103.413922 
L 410.042941 102.963296 
L 410.936299 102.511058 
L 411.832427 102.065063 
L 412.737566 101.639378 
L 413.645327 101.219601 
L 414.542182 100.775244 
L 415.450222 100.356097 
L 416.355074 99.929765 
L 417.260904 99.505637 
L 418.172623 99.094781 
L 419.085686 98.686955 
L 420.000995 98.284192 
L 420.919768 97.889234 
L 421.840699 97.499143 
L 422.767609 97.122526 
L 423.687391 96.729842 
L 424.732872 96.323603 
L 425.595891 95.929889 
L 426.508931 95.518367 
L 427.417208 95.097654 
L 428.337283 94.699709 
L 429.248336 94.284353 
L 430.161011 93.872127 
L 431.080833 93.473692 
L 431.995109 93.064556 
L 432.906062 92.649007 
L 433.829437 92.257429 
L 434.744082 91.849005 
L 435.659854 91.442755 
L 436.564843 91.015696 
L 437.482663 90.613401 
L 438.418905 90.246654 
L 439.334523 89.840105 
L 440.266712 89.465538 
L 441.169309 89.033864 
L 442.680929 88.308014 
L 443.61662 87.905782 
L 444.501506 87.438628 
L 445.396566 86.989195 
L 446.278927 86.517642 
L 447.190172 86.096399 
L 448.079697 85.637325 
L 448.987208 85.209579 
L 449.884392 84.763845 
L 450.783039 84.320661 
L 451.721441 83.808371 
" clip-path="url(#p5758f22cd9)" style="fill: none; stroke: #1f77b4; stroke-linecap: round"/>
              <path d="M 446.826927 83.371999 
L 447.82662 83.331981 
L 448.826706 83.297452 
L 449.831133 83.323575 
L 451.301835 83.25094 
L 450.517367 83.746188 
L 449.943571 84.566094 
L 449.372427 85.387707 
L 448.526994 86.594251 
L 448.764648 85.710839 
L 448.299436 84.824116 
L 447.840354 83.933759 
L 447.406418 83.028497 
z
" clip-path="url(#p5758f22cd9)" style="fill: #ffffff; stroke: #ffffff; stroke-width: 3; stroke-linecap: round"/>
              <path d="M 446.826927 83.371999 
L 447.82662 83.331981 
L 448.826706 83.297452 
L 449.831133 83.323575 
L 451.301835 83.25094 
L 450.517367 83.746188 
L 449.943571 84.566094 
L 449.372427 85.387707 
L 448.526994 86.594251 
L 448.764648 85.710839 
L 448.299436 84.824116 
L 447.840354 83.933759 
L 447.406418 83.028497 
z
" clip-path="url(#p5758f22cd9)" style="fill: #ffffff; stroke: #1f77b4; stroke-linecap: round"/>
              <g id="patch_14">
               <path d="M 358.879328 80.890898 
L 359.851944 80.656363 
L 360.826018 80.427136 
L 361.816196 80.256543 
L 362.789099 80.023055 
L 363.772889 79.829202 
L 364.747393 79.601542 
L 365.721062 79.370842 
L 366.700618 79.161575 
L 368.611045 78.709857 
L 369.575267 78.551167 
L 370.564544 78.393617 
L 371.560114 78.264613 
L 372.546604 78.09442 
L 373.532292 77.920583 
L 374.515413 77.735106 
L 375.497577 77.545286 
L 376.478699 77.350734 
L 377.466945 77.188508 
L 378.449517 77.000536 
L 379.432473 76.814309 
L 380.414498 76.623853 
L 381.393466 76.419537 
L 382.372204 76.214169 
L 383.348718 75.998715 
L 384.323229 75.774173 
L 385.297278 75.547538 
L 386.267157 75.301982 
L 387.873771 74.936413 
L 388.794126 74.772183 
L 389.774622 74.566753 
L 390.758421 74.383666 
L 391.741943 74.198694 
L 392.724975 74.010415 
L 393.709422 73.831707 
L 394.688799 73.61871 
L 395.672316 73.433709 
L 396.655314 73.245198 
L 397.634229 73.02908 
L 398.618146 72.846785 
L 399.598843 72.642714 
L 400.571852 72.38666 
L 401.550755 72.170466 
L 402.523474 71.912445 
L 403.506018 71.720869 
L 404.486293 71.513949 
L 405.468439 71.319675 
L 406.80381 71.040489 
L 407.80297 70.846209 
L 408.794904 70.701308 
L 409.785861 70.543392 
L 410.780571 70.435456 
L 411.773926 70.309476 
L 412.765996 70.166382 
L 413.758229 70.025465 
L 414.749661 69.873877 
L 415.744808 69.771751 
L 416.740017 69.670461 
L 417.735513 69.572987 
L 418.731242 69.478623 
L 419.726458 69.377416 
L 420.719922 69.252898 
L 421.714488 69.143036 
L 422.708994 69.032384 
L 423.705035 68.942172 
L 424.701046 68.85156 
L 425.871333 68.760252 
L 426.94397 68.752982 
L 427.943969 68.751415 
L 428.943971 68.751291 
L 429.943996 68.762495 
L 430.944011 68.768832 
L 431.944053 68.788316 
L 432.944098 68.809295 
L 433.944131 68.824475 
L 434.944167 68.840884 
L 435.944207 68.859283 
L 436.944239 68.87383 
L 437.944366 68.934555 
L 438.944518 69.007767 
L 439.944583 69.038353 
L 440.94472 69.103863 
L 441.944829 69.155856 
L 442.944896 69.187508 
L 443.945079 69.27558 
L 445.031643 69.301884 
L 446.057132 69.405404 
L 447.052399 69.507405 
L 448.045975 69.633143 
L 449.038857 69.768636 
L 450.033614 69.877803 
L 451.024267 70.044563 
L 452.018238 70.164765 
L 453.012577 70.279792 
L 454.007197 70.390882 
L 454.996967 70.570044 
L 455.99148 70.682635 
L 456.984535 70.815688 
L 457.977035 70.956542 
L 458.967079 71.13185 
L 459.961922 71.239813 
L 460.956133 71.356643 
L 461.948737 71.496032 
L 462.942744 71.615723 
L 464.035679 71.771388 
L 464.970406 71.939471 
L 465.950121 72.151582 
L 466.936363 72.318622 
L 467.921938 72.490262 
L 468.905626 72.674938 
L 469.892211 72.839605 
L 470.879889 72.996724 
L 471.865737 73.166485 
L 472.85408 73.319012 
L 473.841973 73.474645 
L 474.830066 73.628899 
L 475.818932 73.77782 
L 476.807926 73.925848 
L 477.798398 74.063672 
L 478.78998 74.193836 
L 479.780735 74.32971 
L 480.773964 74.448495 
L 481.767019 74.568484 
L 482.977418 74.707202 
L 483.897413 74.884086 
L 484.879106 75.075864 
L 485.870716 75.222275 
L 486.86356 75.363044 
L 487.860558 75.484817 
L 488.848386 75.648528 
L 489.83683 75.809423 
L 490.821284 75.98857 
L 491.820867 76.098514 
L 492.808955 76.26104 
L 493.793762 76.438569 
L 494.777314 76.621838 
L 495.767301 76.775678 
L 496.758625 76.923398 
L 497.745996 77.089205 
L 498.736844 77.239101 
L 499.721925 77.415379 
L 500.707819 77.587937 
L 502.118022 77.853238 
L 503.104671 78.061849 
L 504.099002 78.217125 
L 505.077228 78.431142 
L 506.052061 78.657535 
L 507.028926 78.876519 
L 508.00835 79.086168 
L 508.981397 79.319076 
L 509.955374 79.548594 
L 511.728934 80.001568 
" clip-path="url(#p5758f22cd9)" style="fill: none; stroke: #ffffff; stroke-width: 3; stroke-linecap: round"/>
               <path d="M 358.879328 80.890898 
L 359.851944 80.656363 
L 360.826018 80.427136 
L 361.816196 80.256543 
L 362.789099 80.023055 
L 363.772889 79.829202 
L 364.747393 79.601542 
L 365.721062 79.370842 
L 366.700618 79.161575 
L 368.611045 78.709857 
L 369.575267 78.551167 
L 370.564544 78.393617 
L 371.560114 78.264613 
L 372.546604 78.09442 
L 373.532292 77.920583 
L 374.515413 77.735106 
L 375.497577 77.545286 
L 376.478699 77.350734 
L 377.466945 77.188508 
L 378.449517 77.000536 
L 379.432473 76.814309 
L 380.414498 76.623853 
L 381.393466 76.419537 
L 382.372204 76.214169 
L 383.348718 75.998715 
L 384.323229 75.774173 
L 385.297278 75.547538 
L 386.267157 75.301982 
L 387.873771 74.936413 
L 388.794126 74.772183 
L 389.774622 74.566753 
L 390.758421 74.383666 
L 391.741943 74.198694 
L 392.724975 74.010415 
L 393.709422 73.831707 
L 394.688799 73.61871 
L 395.672316 73.433709 
L 396.655314 73.245198 
L 397.634229 73.02908 
L 398.618146 72.846785 
L 399.598843 72.642714 
L 400.571852 72.38666 
L 401.550755 72.170466 
L 402.523474 71.912445 
L 403.506018 71.720869 
L 404.486293 71.513949 
L 405.468439 71.319675 
L 406.80381 71.040489 
L 407.80297 70.846209 
L 408.794904 70.701308 
L 409.785861 70.543392 
L 410.780571 70.435456 
L 411.773926 70.309476 
L 412.765996 70.166382 
L 413.758229 70.025465 
L 414.749661 69.873877 
L 415.744808 69.771751 
L 416.740017 69.670461 
L 417.735513 69.572987 
L 418.731242 69.478623 
L 419.726458 69.377416 
L 420.719922 69.252898 
L 421.714488 69.143036 
L 422.708994 69.032384 
L 423.705035 68.942172 
L 424.701046 68.85156 
L 425.871333 68.760252 
L 426.94397 68.752982 
L 427.943969 68.751415 
L 428.943971 68.751291 
L 429.943996 68.762495 
L 430.944011 68.768832 
L 431.944053 68.788316 
L 432.944098 68.809295 
L 433.944131 68.824475 
L 434.944167 68.840884 
L 435.944207 68.859283 
L 436.944239 68.87383 
L 437.944366 68.934555 
L 438.944518 69.007767 
L 439.944583 69.038353 
L 440.94472 69.103863 
L 441.944829 69.155856 
L 442.944896 69.187508 
L 443.945079 69.27558 
L 445.031643 69.301884 
L 446.057132 69.405404 
L 447.052399 69.507405 
L 448.045975 69.633143 
L 449.038857 69.768636 
L 450.033614 69.877803 
L 451.024267 70.044563 
L 452.018238 70.164765 
L 453.012577 70.279792 
L 454.007197 70.390882 
L 454.996967 70.570044 
L 455.99148 70.682635 
L 456.984535 70.815688 
L 457.977035 70.956542 
L 458.967079 71.13185 
L 459.961922 71.239813 
L 460.956133 71.356643 
L 461.948737 71.496032 
L 462.942744 71.615723 
L 464.035679 71.771388 
L 464.970406 71.939471 
L 465.950121 72.151582 
L 466.936363 72.318622 
L 467.921938 72.490262 
L 468.905626 72.674938 
L 469.892211 72.839605 
L 470.879889 72.996724 
L 471.865737 73.166485 
L 472.85408 73.319012 
L 473.841973 73.474645 
L 474.830066 73.628899 
L 475.818932 73.77782 
L 476.807926 73.925848 
L 477.798398 74.063672 
L 478.78998 74.193836 
L 479.780735 74.32971 
L 480.773964 74.448495 
L 481.767019 74.568484 
L 482.977418 74.707202 
L 483.897413 74.884086 
L 484.879106 75.075864 
L 485.870716 75.222275 
L 486.86356 75.363044 
L 487.860558 75.484817 
L 488.848386 75.648528 
L 489.83683 75.809423 
L 490.821284 75.98857 
L 491.820867 76.098514 
L 492.808955 76.26104 
L 493.793762 76.438569 
L 494.777314 76.621838 
L 495.767301 76.775678 
L 496.758625 76.923398 
L 497.745996 77.089205 
L 498.736844 77.239101 
L 499.721925 77.415379 
L 500.707819 77.587937 
L 502.118022 77.853238 
L 503.104671 78.061849 
L 504.099002 78.217125 
L 505.077228 78.431142 
L 506.052061 78.657535 
L 507.028926 78.876519 
L 508.00835 79.086168 
L 508.981397 79.319076 
L 509.955374 79.548594 
L 511.728934 80.001568 
" clip-path="url(#p5758f22cd9)" style="fill: none; stroke: #ff7f0e; stroke-linecap: round"/>
               <path d="M 508.293991 77.534227 
L 509.005376 78.237733 
L 509.713015 78.945272 
L 510.379278 79.697368 
L 511.435894 80.722943 
L 510.538577 80.487395 
L 509.547673 80.627384 
L 508.55733 80.770475 
L 507.098431 80.975706 
L 507.906397 80.546653 
L 508.237192 79.601521 
L 508.574826 78.65839 
L 508.940513 77.723471 
z
" clip-path="url(#p5758f22cd9)" style="fill: #ffffff; stroke: #ffffff; stroke-width: 3; stroke-linecap: round"/>
               <path d="M 508.293991 77.534227 
L 509.005376 78.237733 
L 509.713015 78.945272 
L 510.379278 79.697368 
L 511.435894 80.722943 
L 510.538577 80.487395 
L 509.547673 80.627384 
L 508.55733 80.770475 
L 507.098431 80.975706 
L 507.906397 80.546653 
L 508.237192 79.601521 
L 508.574826 78.65839 
L 508.940513 77.723471 
z
" clip-path="url(#p5758f22cd9)" style="fill: #ffffff; stroke: #ff7f0e; stroke-linecap: round"/>
               <g id="patch_15">
                <path d="M 53.328125 318.021875 
L 53.328125 22.318125 
" style="fill: none; stroke: #000000; stroke-width: 0.8; stroke-linejoin: miter; stroke-linecap: square"/>
               </g>
               <g id="text_12">
                <g id="patch_16">
                 <path d="M 135.493301 58.727563 
L 142.333926 58.727563 
Q 144.333926 58.727563 144.333926 56.727563 
L 144.333926 47.049438 
Q 144.333926 45.049438 142.333926 45.049438 
L 135.493301 45.049438 
Q 133.493301 45.049438 133.493301 47.049438 
L 133.493301 56.727563 
Q 133.493301 58.727563 135.493301 58.727563 
z
" style="fill: #ffffff; opacity: 0.6"/>
                </g>
                <!-- A -->
                <g transform="translate(135.493301 54.647875) scale(0.1 -0.1)">
                 <defs>
                  <path id="DejaVuSans-41" d="M 2188 4044 
L 1331 1722 
L 3047 1722 
L 2188 4044 
z
M 1831 4666 
L 2547 4666 
L 4325 0 
L 3669 0 
L 3244 1197 
L 1141 1197 
L 716 0 
L 50 0 
L 1831 4666 
z
" transform="scale(0.015625)"/>
                 </defs>
                 <use xlink:href="#DejaVuSans-41"/>
                </g>
               </g>
               <g id="text_13">
                <g id="patch_17">
                 <path d="M 323.236012 58.727563 
L 330.09695 58.727563 
Q 332.09695 58.727563 332.09695 56.727563 
L 332.09695 47.049438 
Q 332.09695 45.049438 330.09695 45.049438 
L 323.236012 45.049438 
Q 321.236012 45.049438 321.236012 47.049438 
L 321.236012 56.727563 
Q 321.236012 58.727563 323.236012 58.727563 
z
" style="fill: #ffffff; opacity: 0.6"/>
                </g>
                <!-- B -->
                <g transform="translate(323.236012 54.647875) scale(0.1 -0.1)">
                 <defs>
                  <path id="DejaVuSans-42" d="M 1259 2228 
L 1259 519 
L 2272 519 
Q 2781 519 3026 730 
Q 3272 941 3272 1375 
Q 3272 1813 3026 2020 
Q 2781 2228 2272 2228 
L 1259 2228 
z
M 1259 4147 
L 1259 2741 
L 2194 2741 
Q 2656 2741 2882 2914 
Q 3109 3088 3109 3444 
Q 3109 3797 2882 3972 
Q 2656 4147 2194 4147 
L 1259 4147 
z
M 628 4666 
L 2241 4666 
Q 2963 4666 3353 4366 
Q 3744 4066 3744 3513 
Q 3744 3084 3544 2831 
Q 3344 2578 2956 2516 
Q 3422 2416 3680 2098 
Q 3938 1781 3938 1306 
Q 3938 681 3513 340 
Q 3088 0 2303 0 
L 628 0 
L 628 4666 
z
" transform="scale(0.015625)"/>
                 </defs>
                 <use xlink:href="#DejaVuSans-42"/>
                </g>
               </g>
               <g id="text_14">
                <g id="patch_18">
                 <path d="M 510.927942 58.727563 
L 517.910755 58.727563 
Q 519.910755 58.727563 519.910755 56.727563 
L 519.910755 47.049438 
Q 519.910755 45.049438 517.910755 45.049438 
L 510.927942 45.049438 
Q 508.927942 45.049438 508.927942 47.049438 
L 508.927942 56.727563 
Q 508.927942 58.727563 510.927942 58.727563 
z
" style="fill: #ffffff; opacity: 0.6"/>
                </g>
                <!-- C -->
                <g transform="translate(510.927942 54.647875) scale(0.1 -0.1)">
                 <defs>
                  <path id="DejaVuSans-43" d="M 4122 4306 
L 4122 3641 
Q 3803 3938 3442 4084 
Q 3081 4231 2675 4231 
Q 1875 4231 1450 3742 
Q 1025 3253 1025 2328 
Q 1025 1406 1450 917 
Q 1875 428 2675 428 
Q 3081 428 3442 575 
Q 3803 722 4122 1019 
L 4122 359 
Q 3791 134 3420 21 
Q 3050 -91 2638 -91 
Q 1578 -91 968 557 
Q 359 1206 359 2328 
Q 359 3453 968 4101 
Q 1578 4750 2638 4750 
Q 3056 4750 3426 4639 
Q 3797 4528 4122 4306 
z
" transform="scale(0.015625)"/>
                 </defs>
                 <use xlink:href="#DejaVuSans-43"/>
                </g>
               </g>
               <g id="text_15">
                <!-- utility_graph.yaml -->
                <g transform="translate(272.395 16.318125) scale(0.12 -0.12)">
                 <defs>
                  <path id="DejaVuSans-75" d="M 544 1381 
L 544 3500 
L 1119 3500 
L 1119 1403 
Q 1119 906 1312 657 
Q 1506 409 1894 409 
Q 2359 409 2629 706 
Q 2900 1003 2900 1516 
L 2900 3500 
L 3475 3500 
L 3475 0 
L 2900 0 
L 2900 538 
Q 2691 219 2414 64 
Q 2138 -91 1772 -91 
Q 1169 -91 856 284 
Q 544 659 544 1381 
z
M 1991 3584 
L 1991 3584 
z
" transform="scale(0.015625)"/>
                  <path id="DejaVuSans-6c" d="M 603 4863 
L 1178 4863 
L 1178 0 
L 603 0 
L 603 4863 
z
" transform="scale(0.015625)"/>
                  <path id="DejaVuSans-79" d="M 2059 -325 
Q 1816 -950 1584 -1140 
Q 1353 -1331 966 -1331 
L 506 -1331 
L 506 -850 
L 844 -850 
Q 1081 -850 1212 -737 
Q 1344 -625 1503 -206 
L 1606 56 
L 191 3500 
L 800 3500 
L 1894 763 
L 2988 3500 
L 3597 3500 
L 2059 -325 
z
" transform="scale(0.015625)"/>
                  <path id="DejaVuSans-5f" d="M 3263 -1063 
L 3263 -1509 
L -63 -1509 
L -63 -1063 
L 3263 -1063 
z
" transform="scale(0.015625)"/>
                  <path id="DejaVuSans-70" d="M 1159 525 
L 1159 -1331 
L 581 -1331 
L 581 3500 
L 1159 3500 
L 1159 2969 
Q 1341 3281 1617 3432 
Q 1894 3584 2278 3584 
Q 2916 3584 3314 3078 
Q 3713 2572 3713 1747 
Q 3713 922 3314 415 
Q 2916 -91 2278 -91 
Q 1894 -91 1617 61 
Q 1341 213 1159 525 
z
M 3116 1747 
Q 3116 2381 2855 2742 
Q 2594 3103 2138 3103 
Q 1681 3103 1420 2742 
Q 1159 2381 1159 1747 
Q 1159 1113 1420 752 
Q 1681 391 2138 391 
Q 2594 391 2855 752 
Q 3116 1113 3116 1747 
z
" transform="scale(0.015625)"/>
                  <path id="DejaVuSans-68" d="M 3513 2113 
L 3513 0 
L 2938 0 
L 2938 2094 
Q 2938 2591 2744 2837 
Q 2550 3084 2163 3084 
Q 1697 3084 1428 2787 
Q 1159 2491 1159 1978 
L 1159 0 
L 581 0 
L 581 4863 
L 1159 4863 
L 1159 2956 
Q 1366 3272 1645 3428 
Q 1925 3584 2291 3584 
Q 2894 3584 3203 3211 
Q 3513 2838 3513 2113 
z
" transform="scale(0.015625)"/>
                  <path id="DejaVuSans-2e" d="M 684 794 
L 1344 794 
L 1344 0 
L 684 0 
L 684 794 
z
" transform="scale(0.015625)"/>
                 </defs>
                 <use xlink:href="#DejaVuSans-75"/>
                 <use xlink:href="#DejaVuSans-74" x="63.378906"/>
                 <use xlink:href="#DejaVuSans-69" x="102.587891"/>
                 <use xlink:href="#DejaVuSans-6c" x="130.371094"/>
                 <use xlink:href="#DejaVuSans-69" x="158.154297"/>
                 <use xlink:href="#DejaVuSans-74" x="185.9375"/>
                 <use xlink:href="#DejaVuSans-79" x="225.146484"/>
                 <use xlink:href="#DejaVuSans-5f" x="284.326172"/>
                 <use xlink:href="#DejaVuSans-67" x="334.326172"/>
                 <use xlink:href="#DejaVuSans-72" x="397.802734"/>
                 <use xlink:href="#DejaVuSans-61" x="438.916016"/>
                 <use xlink:href="#DejaVuSans-70" x="500.195312"/>
                 <use xlink:href="#DejaVuSans-68" x="563.671875"/>
                 <use xlink:href="#DejaVuSans-2e" x="627.050781"/>
                 <use xlink:href="#DejaVuSans-79" x="658.837891"/>
                 <use xlink:href="#DejaVuSans-61" x="718.017578"/>
                 <use xlink:href="#DejaVuSans-6d" x="779.296875"/>
                 <use xlink:href="#DejaVuSans-6c" x="876.708984"/>
                </g>
               </g>
              </g>
             </g>
             <defs>
              <clipPath id="p5758f22cd9">
               <rect x="53.328125" y="22.318125" width="546.671875" height="295.70375"/>
              </clipPath>
             </defs>
            </g>
           </g>
          </g>
         </g>
        </g>
       </g>
      </g>
     </g>
    </g>
   </g>
  </g>
 </g>
</svg>
