<?xml version="1.0" encoding="utf-8" standalone="no"?>
<!DOCTYPE svg PUBLIC "-//W3C//DTD SVG 1.1//EN"
  "http://www.w3.org/Graphics/SVG/1.1/DTD/svg11.dtd">
<svg xmlns:xlink="http://www.w3.org/1999/xlink" width="504.8pt" height="280.8pt" viewBox="0 0 504.8 280.8" xmlns="http://www.w3.org/2000/svg" version="1.1">
 <metadata>
  <rdf:RDF xmlns:dc="http://purl.org/dc/elements/1.1/" xmlns:cc="http://creativecommons.org/ns#" xmlns:rdf="http://www.w3.org/1999/02/22-rdf-syntax-ns#">
   <cc:Work>
    <dc:type rdf:resource="http://purl.org/dc/dcmitype/StillImage"/>
    <dc:date>2022-01-08T13:06:33.807481</dc:date>
    <dc:format>image/svg+xml</dc:format>
    <dc:creator>
     <cc:Agent>
      <dc:title>Matplotlib v3.5.1, https://matplotlib.org/</dc:title>
     </cc:Agent>
    </dc:creator>
   </cc:Work>
  </rdf:RDF>
 </metadata>
 <defs>
  <style type="text/css">*{stroke-linejoin: round; stroke-linecap: butt}</style>
 </defs>
 <g id="figure_1">
  <g id="patch_1">
   <path d="M 0 280.8 
L 504.8 280.8 
L 504.8 0 
L 0 0 
L 0 280.8 
z
" style="fill: none"/>
  </g>
  <g id="axes_1">
   <g id="patch_2">
    <path d="M 43.78125 260.421875 
L 497.6 260.421875 
L 497.6 22.318125 
L 43.78125 22.318125 
z
" style="fill: #ffffff"/>
   </g>
   <path d="M 169.606632 151.037862 
L 170.606632 151.069298 
L 171.606632 151.106238 
L 172.606632 151.203985 
L 173.606632 151.236507 
L 174.606632 151.310131 
L 175.606632 151.348697 
L 176.606632 151.38411 
L 177.606632 151.44175 
L 178.606632 151.512136 
L 179.606632 151.5641 
L 180.606632 151.62319 
L 181.606632 151.711511 
L 182.606632 151.757655 
L 183.606632 151.800066 
L 184.606632 151.830559 
L 185.606632 151.856604 
L 186.606632 151.877804 
L 187.606632 151.932105 
L 188.606632 151.960043 
L 189.606632 151.989767 
L 190.606632 152.015161 
L 191.606632 152.026362 
L 192.606632 152.036486 
L 193.606632 152.036282 
L 194.606632 152.026772 
L 195.606632 152.015118 
L 196.606632 151.984089 
L 197.606632 151.972921 
L 198.606632 151.942803 
L 199.606632 151.883026 
L 200.606632 151.845835 
L 201.606632 151.806739 
L 202.606632 151.764299 
L 203.606632 151.731534 
L 204.606632 151.664108 
L 205.606632 151.624982 
L 206.606632 151.582307 
L 207.606632 151.511727 
L 208.606632 151.475336 
L 209.606632 151.416933 
L 210.606632 151.30598 
L 211.606632 151.235322 
L 212.606632 151.122382 
L 213.606632 151.076609 
L 214.606632 151.015326 
L 215.822903 150.966826 
" clip-path="url(#p91753e084a)" style="fill: none; stroke: #1f77b4; stroke-opacity: 0.5; stroke-width: 0.2; stroke-linecap: square"/>
   <path d="M 169.606632 114.469503 
L 170.606632 114.50094 
L 171.606632 114.53788 
L 172.606632 114.635627 
L 173.606632 114.668148 
L 174.606632 114.741773 
L 175.606632 114.780339 
L 176.606632 114.815752 
L 177.606632 114.873392 
L 178.606632 114.943778 
L 179.606632 114.995742 
L 180.606632 115.054832 
L 181.606632 115.143153 
L 182.606632 115.189297 
L 183.606632 115.231708 
L 184.606632 115.262201 
L 185.606632 115.288246 
L 186.606632 115.309446 
L 187.606632 115.363747 
L 188.606632 115.391684 
L 189.606632 115.421408 
L 190.606632 115.446803 
L 191.606632 115.458004 
L 192.606632 115.468128 
L 193.606632 115.467923 
L 194.606632 115.458413 
L 195.606632 115.44676 
L 196.606632 115.415731 
L 197.606632 115.404563 
L 198.606632 115.374445 
L 199.606632 115.314668 
L 200.606632 115.277477 
L 201.606632 115.238381 
L 202.606632 115.195941 
L 203.606632 115.163176 
L 204.606632 115.095749 
L 205.606632 115.056623 
L 206.606632 115.013949 
L 207.606632 114.943368 
L 208.606632 114.906977 
L 209.606632 114.848574 
L 210.606632 114.737622 
L 211.606632 114.666963 
L 212.606632 114.554023 
L 213.606632 114.508251 
L 214.606632 114.446967 
L 215.822903 114.398468 
" clip-path="url(#p91753e084a)" style="fill: none; stroke: #1f77b4; stroke-opacity: 0.5; stroke-width: 0.2; stroke-linecap: square"/>
   <path d="M 169.606632 112.838575 
L 170.606632 112.870011 
L 171.606632 112.906952 
L 172.606632 113.004698 
L 173.606632 113.03722 
L 174.606632 113.110844 
L 175.606632 113.14941 
L 176.606632 113.184823 
L 177.606632 113.242463 
L 178.606632 113.312849 
L 179.606632 113.364813 
L 180.606632 113.423903 
L 181.606632 113.512224 
L 182.606632 113.558368 
L 183.606632 113.600779 
L 184.606632 113.631272 
L 185.606632 113.657317 
L 186.606632 113.678517 
L 187.606632 113.732818 
L 188.606632 113.760756 
L 189.606632 113.79048 
L 190.606632 113.815875 
L 191.606632 113.827075 
L 192.606632 113.837199 
L 193.606632 113.836995 
L 194.606632 113.827485 
L 195.606632 113.815831 
L 196.606632 113.784802 
L 197.606632 113.773634 
L 198.606632 113.743516 
L 199.606632 113.683739 
L 200.606632 113.646548 
L 201.606632 113.607452 
L 202.606632 113.565012 
L 203.606632 113.532247 
L 204.606632 113.464821 
L 205.606632 113.425695 
L 206.606632 113.38302 
L 207.606632 113.31244 
L 208.606632 113.276049 
L 209.606632 113.217646 
L 210.606632 113.106693 
L 211.606632 113.036035 
L 212.606632 112.923095 
L 213.606632 112.877322 
L 214.606632 112.816039 
L 215.822903 112.767539 
" clip-path="url(#p91753e084a)" style="fill: none; stroke: #1f77b4; stroke-opacity: 0.5; stroke-width: 0.2; stroke-linecap: square"/>
   <path d="M 169.606632 135.135165 
L 170.606632 135.166601 
L 171.606632 135.203542 
L 172.606632 135.301288 
L 173.606632 135.33381 
L 174.606632 135.407435 
L 175.606632 135.446 
L 176.606632 135.481413 
L 177.606632 135.539053 
L 178.606632 135.609439 
L 179.606632 135.661404 
L 180.606632 135.720493 
L 181.606632 135.808814 
L 182.606632 135.854959 
L 183.606632 135.89737 
L 184.606632 135.927862 
L 185.606632 135.953907 
L 186.606632 135.975107 
L 187.606632 136.029408 
L 188.606632 136.057346 
L 189.606632 136.08707 
L 190.606632 136.112465 
L 191.606632 136.123665 
L 192.606632 136.133789 
L 193.606632 136.133585 
L 194.606632 136.124075 
L 195.606632 136.112421 
L 196.606632 136.081392 
L 197.606632 136.070224 
L 198.606632 136.040107 
L 199.606632 135.98033 
L 200.606632 135.943138 
L 201.606632 135.904042 
L 202.606632 135.861602 
L 203.606632 135.828837 
L 204.606632 135.761411 
L 205.606632 135.722285 
L 206.606632 135.67961 
L 207.606632 135.60903 
L 208.606632 135.572639 
L 209.606632 135.514236 
L 210.606632 135.403283 
L 211.606632 135.332625 
L 212.606632 135.219685 
L 213.606632 135.173912 
L 214.606632 135.112629 
L 215.822903 135.06413 
" clip-path="url(#p91753e084a)" style="fill: none; stroke: #1f77b4; stroke-opacity: 0.5; stroke-width: 0.2; stroke-linecap: square"/>
   <path d="M 169.606632 143.721349 
L 170.606632 143.752785 
L 171.606632 143.789726 
L 172.606632 143.887472 
L 173.606632 143.919994 
L 174.606632 143.993618 
L 175.606632 144.032184 
L 176.606632 144.067597 
L 177.606632 144.125237 
L 178.606632 144.195623 
L 179.606632 144.247587 
L 180.606632 144.306677 
L 181.606632 144.394998 
L 182.606632 144.441142 
L 183.606632 144.483553 
L 184.606632 144.514046 
L 185.606632 144.540091 
L 186.606632 144.561291 
L 187.606632 144.615592 
L 188.606632 144.64353 
L 189.606632 144.673254 
L 190.606632 144.698649 
L 191.606632 144.709849 
L 192.606632 144.719973 
L 193.606632 144.719769 
L 194.606632 144.710259 
L 195.606632 144.698605 
L 196.606632 144.667576 
L 197.606632 144.656408 
L 198.606632 144.62629 
L 199.606632 144.566514 
L 200.606632 144.529322 
L 201.606632 144.490226 
L 202.606632 144.447786 
L 203.606632 144.415021 
L 204.606632 144.347595 
L 205.606632 144.308469 
L 206.606632 144.265794 
L 207.606632 144.195214 
L 208.606632 144.158823 
L 209.606632 144.10042 
L 210.606632 143.989467 
L 211.606632 143.918809 
L 212.606632 143.805869 
L 213.606632 143.760096 
L 214.606632 143.698813 
L 215.822903 143.650313 
" clip-path="url(#p91753e084a)" style="fill: none; stroke: #1f77b4; stroke-opacity: 0.5; stroke-width: 0.2; stroke-linecap: square"/>
   <path d="M 169.606632 87.460762 
L 170.606632 87.492198 
L 171.606632 87.529139 
L 172.606632 87.626885 
L 173.606632 87.659407 
L 174.606632 87.733032 
L 175.606632 87.771597 
L 176.606632 87.80701 
L 177.606632 87.86465 
L 178.606632 87.935037 
L 179.606632 87.987001 
L 180.606632 88.046091 
L 181.606632 88.134411 
L 182.606632 88.180556 
L 183.606632 88.222967 
L 184.606632 88.253459 
L 185.606632 88.279504 
L 186.606632 88.300704 
L 187.606632 88.355006 
L 188.606632 88.382943 
L 189.606632 88.412667 
L 190.606632 88.438062 
L 191.606632 88.449262 
L 192.606632 88.459386 
L 193.606632 88.459182 
L 194.606632 88.449672 
L 195.606632 88.438018 
L 196.606632 88.406989 
L 197.606632 88.395821 
L 198.606632 88.365704 
L 199.606632 88.305927 
L 200.606632 88.268735 
L 201.606632 88.229639 
L 202.606632 88.1872 
L 203.606632 88.154434 
L 204.606632 88.087008 
L 205.606632 88.047882 
L 206.606632 88.005208 
L 207.606632 87.934627 
L 208.606632 87.898236 
L 209.606632 87.839833 
L 210.606632 87.72888 
L 211.606632 87.658222 
L 212.606632 87.545282 
L 213.606632 87.499509 
L 214.606632 87.438226 
L 215.822903 87.389727 
" clip-path="url(#p91753e084a)" style="fill: none; stroke: #1f77b4; stroke-opacity: 0.5; stroke-width: 0.2; stroke-linecap: square"/>
   <path d="M 169.606632 165.007286 
L 170.606632 165.038722 
L 171.606632 165.075663 
L 172.606632 165.173409 
L 173.606632 165.205931 
L 174.606632 165.279556 
L 175.606632 165.318121 
L 176.606632 165.353534 
L 177.606632 165.411174 
L 178.606632 165.48156 
L 179.606632 165.533525 
L 180.606632 165.592614 
L 181.606632 165.680935 
L 182.606632 165.72708 
L 183.606632 165.769491 
L 184.606632 165.799983 
L 185.606632 165.826028 
L 186.606632 165.847228 
L 187.606632 165.901529 
L 188.606632 165.929467 
L 189.606632 165.959191 
L 190.606632 165.984586 
L 191.606632 165.995786 
L 192.606632 166.00591 
L 193.606632 166.005706 
L 194.606632 165.996196 
L 195.606632 165.984542 
L 196.606632 165.953513 
L 197.606632 165.942345 
L 198.606632 165.912228 
L 199.606632 165.852451 
L 200.606632 165.815259 
L 201.606632 165.776163 
L 202.606632 165.733723 
L 203.606632 165.700958 
L 204.606632 165.633532 
L 205.606632 165.594406 
L 206.606632 165.551731 
L 207.606632 165.481151 
L 208.606632 165.44476 
L 209.606632 165.386357 
L 210.606632 165.275404 
L 211.606632 165.204746 
L 212.606632 165.091806 
L 213.606632 165.046033 
L 214.606632 164.98475 
L 215.822903 164.936251 
" clip-path="url(#p91753e084a)" style="fill: none; stroke: #1f77b4; stroke-opacity: 0.5; stroke-width: 0.2; stroke-linecap: square"/>
   <path d="M 169.606632 128.711092 
L 170.606632 128.742528 
L 171.606632 128.779468 
L 172.606632 128.877215 
L 173.606632 128.909737 
L 174.606632 128.983361 
L 175.606632 129.021927 
L 176.606632 129.05734 
L 177.606632 129.11498 
L 178.606632 129.185366 
L 179.606632 129.23733 
L 180.606632 129.29642 
L 181.606632 129.384741 
L 182.606632 129.430885 
L 183.606632 129.473296 
L 184.606632 129.503789 
L 185.606632 129.529834 
L 186.606632 129.551034 
L 187.606632 129.605335 
L 188.606632 129.633273 
L 189.606632 129.662997 
L 190.606632 129.688391 
L 191.606632 129.699592 
L 192.606632 129.709716 
L 193.606632 129.709511 
L 194.606632 129.700002 
L 195.606632 129.688348 
L 196.606632 129.657319 
L 197.606632 129.646151 
L 198.606632 129.616033 
L 199.606632 129.556256 
L 200.606632 129.519065 
L 201.606632 129.479969 
L 202.606632 129.437529 
L 203.606632 129.404764 
L 204.606632 129.337338 
L 205.606632 129.298212 
L 206.606632 129.255537 
L 207.606632 129.184956 
L 208.606632 129.148566 
L 209.606632 129.090162 
L 210.606632 128.97921 
L 211.606632 128.908552 
L 212.606632 128.795612 
L 213.606632 128.749839 
L 214.606632 128.688556 
L 215.822903 128.640056 
" clip-path="url(#p91753e084a)" style="fill: none; stroke: #1f77b4; stroke-opacity: 0.5; stroke-width: 0.2; stroke-linecap: square"/>
   <path d="M 169.606632 148.600014 
L 170.606632 148.63145 
L 171.606632 148.668391 
L 172.606632 148.766137 
L 173.606632 148.798659 
L 174.606632 148.872283 
L 175.606632 148.910849 
L 176.606632 148.946262 
L 177.606632 149.003902 
L 178.606632 149.074288 
L 179.606632 149.126252 
L 180.606632 149.185342 
L 181.606632 149.273663 
L 182.606632 149.319807 
L 183.606632 149.362218 
L 184.606632 149.392711 
L 185.606632 149.418756 
L 186.606632 149.439956 
L 187.606632 149.494257 
L 188.606632 149.522195 
L 189.606632 149.551919 
L 190.606632 149.577314 
L 191.606632 149.588514 
L 192.606632 149.598638 
L 193.606632 149.598434 
L 194.606632 149.588924 
L 195.606632 149.57727 
L 196.606632 149.546241 
L 197.606632 149.535073 
L 198.606632 149.504955 
L 199.606632 149.445178 
L 200.606632 149.407987 
L 201.606632 149.368891 
L 202.606632 149.326451 
L 203.606632 149.293686 
L 204.606632 149.22626 
L 205.606632 149.187134 
L 206.606632 149.144459 
L 207.606632 149.073879 
L 208.606632 149.037488 
L 209.606632 148.979085 
L 210.606632 148.868132 
L 211.606632 148.797474 
L 212.606632 148.684534 
L 213.606632 148.638761 
L 214.606632 148.577478 
L 215.822903 148.528978 
" clip-path="url(#p91753e084a)" style="fill: none; stroke: #1f77b4; stroke-opacity: 0.5; stroke-width: 0.2; stroke-linecap: square"/>
   <path d="M 169.606632 132.272621 
L 170.606632 132.304057 
L 171.606632 132.340998 
L 172.606632 132.438744 
L 173.606632 132.471266 
L 174.606632 132.544891 
L 175.606632 132.583456 
L 176.606632 132.618869 
L 177.606632 132.676509 
L 178.606632 132.746895 
L 179.606632 132.79886 
L 180.606632 132.857949 
L 181.606632 132.94627 
L 182.606632 132.992415 
L 183.606632 133.034826 
L 184.606632 133.065318 
L 185.606632 133.091363 
L 186.606632 133.112563 
L 187.606632 133.166864 
L 188.606632 133.194802 
L 189.606632 133.224526 
L 190.606632 133.249921 
L 191.606632 133.261121 
L 192.606632 133.271245 
L 193.606632 133.271041 
L 194.606632 133.261531 
L 195.606632 133.249877 
L 196.606632 133.218848 
L 197.606632 133.20768 
L 198.606632 133.177563 
L 199.606632 133.117786 
L 200.606632 133.080594 
L 201.606632 133.041498 
L 202.606632 132.999058 
L 203.606632 132.966293 
L 204.606632 132.898867 
L 205.606632 132.859741 
L 206.606632 132.817066 
L 207.606632 132.746486 
L 208.606632 132.710095 
L 209.606632 132.651692 
L 210.606632 132.540739 
L 211.606632 132.470081 
L 212.606632 132.357141 
L 213.606632 132.311368 
L 214.606632 132.250085 
L 215.822903 132.201586 
" clip-path="url(#p91753e084a)" style="fill: none; stroke: #1f77b4; stroke-opacity: 0.5; stroke-width: 0.2; stroke-linecap: square"/>
   <path d="M 325.558347 71.162425 
L 326.558347 71.193862 
L 327.558347 71.230802 
L 328.558347 71.328549 
L 329.558347 71.36107 
L 330.558347 71.434695 
L 331.558347 71.473261 
L 332.558347 71.508674 
L 333.558347 71.566314 
L 334.558347 71.6367 
L 335.558347 71.688664 
L 336.558347 71.747754 
L 337.558347 71.836075 
L 338.558347 71.882219 
L 339.558347 71.92463 
L 340.558347 71.955123 
L 341.558347 71.981168 
L 342.558347 72.002368 
L 343.558347 72.056669 
L 344.558347 72.084606 
L 345.558347 72.11433 
L 346.558347 72.139725 
L 347.558347 72.150926 
L 348.558347 72.16105 
L 349.558347 72.160845 
L 350.558347 72.151335 
L 351.558347 72.139682 
L 352.558347 72.108652 
L 353.558347 72.097485 
L 354.558347 72.067367 
L 355.558347 72.00759 
L 356.558347 71.970399 
L 357.558347 71.931302 
L 358.558347 71.888863 
L 359.558347 71.856098 
L 360.558347 71.788671 
L 361.558347 71.749545 
L 362.558347 71.706871 
L 363.558347 71.63629 
L 364.558347 71.599899 
L 365.558347 71.541496 
L 366.558347 71.430544 
L 367.558347 71.359885 
L 368.558347 71.246945 
L 369.558347 71.201173 
L 370.558347 71.139889 
L 371.774618 71.09139 
" clip-path="url(#p91753e084a)" style="fill: none; stroke: #ff7f0e; stroke-opacity: 0.5; stroke-width: 0.2; stroke-linecap: square"/>
   <path d="M 325.558347 154.146654 
L 326.558347 154.17809 
L 327.558347 154.21503 
L 328.558347 154.312777 
L 329.558347 154.345299 
L 330.558347 154.418923 
L 331.558347 154.457489 
L 332.558347 154.492902 
L 333.558347 154.550542 
L 334.558347 154.620928 
L 335.558347 154.672892 
L 336.558347 154.731982 
L 337.558347 154.820303 
L 338.558347 154.866447 
L 339.558347 154.908858 
L 340.558347 154.939351 
L 341.558347 154.965396 
L 342.558347 154.986596 
L 343.558347 155.040897 
L 344.558347 155.068835 
L 345.558347 155.098559 
L 346.558347 155.123953 
L 347.558347 155.135154 
L 348.558347 155.145278 
L 349.558347 155.145073 
L 350.558347 155.135564 
L 351.558347 155.12391 
L 352.558347 155.092881 
L 353.558347 155.081713 
L 354.558347 155.051595 
L 355.558347 154.991818 
L 356.558347 154.954627 
L 357.558347 154.915531 
L 358.558347 154.873091 
L 359.558347 154.840326 
L 360.558347 154.7729 
L 361.558347 154.733774 
L 362.558347 154.691099 
L 363.558347 154.620518 
L 364.558347 154.584128 
L 365.558347 154.525724 
L 366.558347 154.414772 
L 367.558347 154.344114 
L 368.558347 154.231174 
L 369.558347 154.185401 
L 370.558347 154.124118 
L 371.774618 154.075618 
" clip-path="url(#p91753e084a)" style="fill: none; stroke: #ff7f0e; stroke-opacity: 0.5; stroke-width: 0.2; stroke-linecap: square"/>
   <path d="M 325.558347 114.408036 
L 326.558347 114.439472 
L 327.558347 114.476412 
L 328.558347 114.574159 
L 329.558347 114.606681 
L 330.558347 114.680305 
L 331.558347 114.718871 
L 332.558347 114.754284 
L 333.558347 114.811924 
L 334.558347 114.88231 
L 335.558347 114.934274 
L 336.558347 114.993364 
L 337.558347 115.081685 
L 338.558347 115.127829 
L 339.558347 115.17024 
L 340.558347 115.200733 
L 341.558347 115.226778 
L 342.558347 115.247978 
L 343.558347 115.302279 
L 344.558347 115.330217 
L 345.558347 115.359941 
L 346.558347 115.385335 
L 347.558347 115.396536 
L 348.558347 115.40666 
L 349.558347 115.406455 
L 350.558347 115.396946 
L 351.558347 115.385292 
L 352.558347 115.354263 
L 353.558347 115.343095 
L 354.558347 115.312977 
L 355.558347 115.2532 
L 356.558347 115.216009 
L 357.558347 115.176913 
L 358.558347 115.134473 
L 359.558347 115.101708 
L 360.558347 115.034281 
L 361.558347 114.995156 
L 362.558347 114.952481 
L 363.558347 114.8819 
L 364.558347 114.84551 
L 365.558347 114.787106 
L 366.558347 114.676154 
L 367.558347 114.605496 
L 368.558347 114.492556 
L 369.558347 114.446783 
L 370.558347 114.3855 
L 371.774618 114.337 
" clip-path="url(#p91753e084a)" style="fill: none; stroke: #ff7f0e; stroke-opacity: 0.5; stroke-width: 0.2; stroke-linecap: square"/>
   <path d="M 325.558347 101.135914 
L 326.558347 101.16735 
L 327.558347 101.204291 
L 328.558347 101.302037 
L 329.558347 101.334559 
L 330.558347 101.408183 
L 331.558347 101.446749 
L 332.558347 101.482162 
L 333.558347 101.539802 
L 334.558347 101.610188 
L 335.558347 101.662152 
L 336.558347 101.721242 
L 337.558347 101.809563 
L 338.558347 101.855707 
L 339.558347 101.898118 
L 340.558347 101.928611 
L 341.558347 101.954656 
L 342.558347 101.975856 
L 343.558347 102.030157 
L 344.558347 102.058095 
L 345.558347 102.087819 
L 346.558347 102.113214 
L 347.558347 102.124414 
L 348.558347 102.134538 
L 349.558347 102.134334 
L 350.558347 102.124824 
L 351.558347 102.11317 
L 352.558347 102.082141 
L 353.558347 102.070973 
L 354.558347 102.040855 
L 355.558347 101.981078 
L 356.558347 101.943887 
L 357.558347 101.904791 
L 358.558347 101.862351 
L 359.558347 101.829586 
L 360.558347 101.76216 
L 361.558347 101.723034 
L 362.558347 101.680359 
L 363.558347 101.609779 
L 364.558347 101.573388 
L 365.558347 101.514985 
L 366.558347 101.404032 
L 367.558347 101.333374 
L 368.558347 101.220434 
L 369.558347 101.174661 
L 370.558347 101.113378 
L 371.774618 101.064878 
" clip-path="url(#p91753e084a)" style="fill: none; stroke: #ff7f0e; stroke-opacity: 0.5; stroke-width: 0.2; stroke-linecap: square"/>
   <path d="M 325.558347 118.019812 
L 326.558347 118.051249 
L 327.558347 118.088189 
L 328.558347 118.185936 
L 329.558347 118.218457 
L 330.558347 118.292082 
L 331.558347 118.330648 
L 332.558347 118.366061 
L 333.558347 118.423701 
L 334.558347 118.494087 
L 335.558347 118.546051 
L 336.558347 118.605141 
L 337.558347 118.693462 
L 338.558347 118.739606 
L 339.558347 118.782017 
L 340.558347 118.81251 
L 341.558347 118.838555 
L 342.558347 118.859755 
L 343.558347 118.914056 
L 344.558347 118.941993 
L 345.558347 118.971717 
L 346.558347 118.997112 
L 347.558347 119.008313 
L 348.558347 119.018437 
L 349.558347 119.018232 
L 350.558347 119.008722 
L 351.558347 118.997069 
L 352.558347 118.96604 
L 353.558347 118.954872 
L 354.558347 118.924754 
L 355.558347 118.864977 
L 356.558347 118.827786 
L 357.558347 118.78869 
L 358.558347 118.74625 
L 359.558347 118.713485 
L 360.558347 118.646058 
L 361.558347 118.606932 
L 362.558347 118.564258 
L 363.558347 118.493677 
L 364.558347 118.457286 
L 365.558347 118.398883 
L 366.558347 118.287931 
L 367.558347 118.217272 
L 368.558347 118.104332 
L 369.558347 118.05856 
L 370.558347 117.997276 
L 371.774618 117.948777 
" clip-path="url(#p91753e084a)" style="fill: none; stroke: #ff7f0e; stroke-opacity: 0.5; stroke-width: 0.2; stroke-linecap: square"/>
   <path d="M 325.558347 128.809581 
L 326.558347 128.841017 
L 327.558347 128.877958 
L 328.558347 128.975704 
L 329.558347 129.008226 
L 330.558347 129.08185 
L 331.558347 129.120416 
L 332.558347 129.155829 
L 333.558347 129.213469 
L 334.558347 129.283855 
L 335.558347 129.335819 
L 336.558347 129.394909 
L 337.558347 129.48323 
L 338.558347 129.529374 
L 339.558347 129.571785 
L 340.558347 129.602278 
L 341.558347 129.628323 
L 342.558347 129.649523 
L 343.558347 129.703824 
L 344.558347 129.731762 
L 345.558347 129.761486 
L 346.558347 129.786881 
L 347.558347 129.798081 
L 348.558347 129.808205 
L 349.558347 129.808001 
L 350.558347 129.798491 
L 351.558347 129.786837 
L 352.558347 129.755808 
L 353.558347 129.74464 
L 354.558347 129.714522 
L 355.558347 129.654745 
L 356.558347 129.617554 
L 357.558347 129.578458 
L 358.558347 129.536018 
L 359.558347 129.503253 
L 360.558347 129.435827 
L 361.558347 129.396701 
L 362.558347 129.354026 
L 363.558347 129.283446 
L 364.558347 129.247055 
L 365.558347 129.188652 
L 366.558347 129.077699 
L 367.558347 129.007041 
L 368.558347 128.894101 
L 369.558347 128.848328 
L 370.558347 128.787045 
L 371.774618 128.738545 
" clip-path="url(#p91753e084a)" style="fill: none; stroke: #ff7f0e; stroke-opacity: 0.5; stroke-width: 0.2; stroke-linecap: square"/>
   <path d="M 325.558347 148.198071 
L 326.558347 148.229507 
L 327.558347 148.266448 
L 328.558347 148.364194 
L 329.558347 148.396716 
L 330.558347 148.470341 
L 331.558347 148.508906 
L 332.558347 148.544319 
L 333.558347 148.601959 
L 334.558347 148.672346 
L 335.558347 148.72431 
L 336.558347 148.7834 
L 337.558347 148.87172 
L 338.558347 148.917865 
L 339.558347 148.960276 
L 340.558347 148.990768 
L 341.558347 149.016813 
L 342.558347 149.038013 
L 343.558347 149.092315 
L 344.558347 149.120252 
L 345.558347 149.149976 
L 346.558347 149.175371 
L 347.558347 149.186571 
L 348.558347 149.196695 
L 349.558347 149.196491 
L 350.558347 149.186981 
L 351.558347 149.175327 
L 352.558347 149.144298 
L 353.558347 149.13313 
L 354.558347 149.103013 
L 355.558347 149.043236 
L 356.558347 149.006044 
L 357.558347 148.966948 
L 358.558347 148.924509 
L 359.558347 148.891743 
L 360.558347 148.824317 
L 361.558347 148.785191 
L 362.558347 148.742517 
L 363.558347 148.671936 
L 364.558347 148.635545 
L 365.558347 148.577142 
L 366.558347 148.466189 
L 367.558347 148.395531 
L 368.558347 148.282591 
L 369.558347 148.236818 
L 370.558347 148.175535 
L 371.774618 148.127036 
" clip-path="url(#p91753e084a)" style="fill: none; stroke: #ff7f0e; stroke-opacity: 0.5; stroke-width: 0.2; stroke-linecap: square"/>
   <path d="M 325.558347 105.844894 
L 326.558347 105.87633 
L 327.558347 105.913271 
L 328.558347 106.011017 
L 329.558347 106.043539 
L 330.558347 106.117163 
L 331.558347 106.155729 
L 332.558347 106.191142 
L 333.558347 106.248782 
L 334.558347 106.319168 
L 335.558347 106.371132 
L 336.558347 106.430222 
L 337.558347 106.518543 
L 338.558347 106.564687 
L 339.558347 106.607098 
L 340.558347 106.637591 
L 341.558347 106.663636 
L 342.558347 106.684836 
L 343.558347 106.739137 
L 344.558347 106.767075 
L 345.558347 106.796799 
L 346.558347 106.822194 
L 347.558347 106.833394 
L 348.558347 106.843518 
L 349.558347 106.843314 
L 350.558347 106.833804 
L 351.558347 106.82215 
L 352.558347 106.791121 
L 353.558347 106.779953 
L 354.558347 106.749835 
L 355.558347 106.690058 
L 356.558347 106.652867 
L 357.558347 106.613771 
L 358.558347 106.571331 
L 359.558347 106.538566 
L 360.558347 106.47114 
L 361.558347 106.432014 
L 362.558347 106.389339 
L 363.558347 106.318759 
L 364.558347 106.282368 
L 365.558347 106.223965 
L 366.558347 106.113012 
L 367.558347 106.042354 
L 368.558347 105.929414 
L 369.558347 105.883641 
L 370.558347 105.822358 
L 371.774618 105.773858 
" clip-path="url(#p91753e084a)" style="fill: none; stroke: #ff7f0e; stroke-opacity: 0.5; stroke-width: 0.2; stroke-linecap: square"/>
   <path d="M 325.558347 146.79308 
L 326.558347 146.824517 
L 327.558347 146.861457 
L 328.558347 146.959204 
L 329.558347 146.991725 
L 330.558347 147.06535 
L 331.558347 147.103916 
L 332.558347 147.139329 
L 333.558347 147.196969 
L 334.558347 147.267355 
L 335.558347 147.319319 
L 336.558347 147.378409 
L 337.558347 147.46673 
L 338.558347 147.512874 
L 339.558347 147.555285 
L 340.558347 147.585778 
L 341.558347 147.611823 
L 342.558347 147.633023 
L 343.558347 147.687324 
L 344.558347 147.715261 
L 345.558347 147.744985 
L 346.558347 147.77038 
L 347.558347 147.781581 
L 348.558347 147.791705 
L 349.558347 147.7915 
L 350.558347 147.78199 
L 351.558347 147.770337 
L 352.558347 147.739307 
L 353.558347 147.72814 
L 354.558347 147.698022 
L 355.558347 147.638245 
L 356.558347 147.601054 
L 357.558347 147.561957 
L 358.558347 147.519518 
L 359.558347 147.486753 
L 360.558347 147.419326 
L 361.558347 147.3802 
L 362.558347 147.337526 
L 363.558347 147.266945 
L 364.558347 147.230554 
L 365.558347 147.172151 
L 366.558347 147.061199 
L 367.558347 146.99054 
L 368.558347 146.8776 
L 369.558347 146.831828 
L 370.558347 146.770544 
L 371.774618 146.722045 
" clip-path="url(#p91753e084a)" style="fill: none; stroke: #ff7f0e; stroke-opacity: 0.5; stroke-width: 0.2; stroke-linecap: square"/>
   <path d="M 325.558347 141.951741 
L 326.558347 141.983178 
L 327.558347 142.020118 
L 328.558347 142.117865 
L 329.558347 142.150386 
L 330.558347 142.224011 
L 331.558347 142.262576 
L 332.558347 142.29799 
L 333.558347 142.35563 
L 334.558347 142.426016 
L 335.558347 142.47798 
L 336.558347 142.53707 
L 337.558347 142.625391 
L 338.558347 142.671535 
L 339.558347 142.713946 
L 340.558347 142.744439 
L 341.558347 142.770484 
L 342.558347 142.791684 
L 343.558347 142.845985 
L 344.558347 142.873922 
L 345.558347 142.903646 
L 346.558347 142.929041 
L 347.558347 142.940241 
L 348.558347 142.950365 
L 349.558347 142.950161 
L 350.558347 142.940651 
L 351.558347 142.928998 
L 352.558347 142.897968 
L 353.558347 142.8868 
L 354.558347 142.856683 
L 355.558347 142.796906 
L 356.558347 142.759714 
L 357.558347 142.720618 
L 358.558347 142.678179 
L 359.558347 142.645414 
L 360.558347 142.577987 
L 361.558347 142.538861 
L 362.558347 142.496187 
L 363.558347 142.425606 
L 364.558347 142.389215 
L 365.558347 142.330812 
L 366.558347 142.219859 
L 367.558347 142.149201 
L 368.558347 142.036261 
L 369.558347 141.990488 
L 370.558347 141.929205 
L 371.774618 141.880706 
" clip-path="url(#p91753e084a)" style="fill: none; stroke: #ff7f0e; stroke-opacity: 0.5; stroke-width: 0.2; stroke-linecap: square"/>
   <g id="patch_3">
    <path d="M 64.409375 22.318125 
L 64.409375 260.421875 
M 165.068445 22.318125 
L 165.068445 260.421875 
" clip-path="url(#p91753e084a)" style="fill: none; stroke: #ffffff; stroke-width: 3; stroke-linejoin: miter"/>
    <path d="M 64.409375 22.318125 
L 64.409375 260.421875 
M 165.068445 22.318125 
L 165.068445 260.421875 
" clip-path="url(#p91753e084a)" style="fill: none; stroke: #1f77b4; stroke-linejoin: miter"/>
    <g id="PolyCollection_1">
     <path d="M 165.068445 22.318125 
L 64.409375 22.318125 
L 64.409375 260.421875 
L 165.068445 260.421875 
L 165.068445 260.421875 
L 165.068445 22.318125 
z
" clip-path="url(#p91753e084a)" style="fill: #1f77b4; fill-opacity: 0.5"/>
    </g>
    <g id="patch_4">
     <path d="M 220.36109 22.318125 
L 220.36109 260.421875 
M 321.02016 22.318125 
L 321.02016 260.421875 
" clip-path="url(#p91753e084a)" style="fill: none; stroke: #ffffff; stroke-width: 3; stroke-linejoin: miter"/>
     <path d="M 220.36109 22.318125 
L 220.36109 260.421875 
M 321.02016 22.318125 
L 321.02016 260.421875 
" clip-path="url(#p91753e084a)" style="fill: none; stroke: #ff7f0e; stroke-linejoin: miter"/>
     <g id="PolyCollection_2">
      <path d="M 321.02016 22.318125 
L 220.36109 22.318125 
L 220.36109 260.421875 
L 321.02016 260.421875 
L 321.02016 260.421875 
L 321.02016 22.318125 
z
" clip-path="url(#p91753e084a)" style="fill: #ff7f0e; fill-opacity: 0.5"/>
     </g>
     <g id="patch_5">
      <path d="M 376.312805 22.318125 
L 376.312805 260.421875 
M 476.971875 22.318125 
L 476.971875 260.421875 
" clip-path="url(#p91753e084a)" style="fill: none; stroke: #ffffff; stroke-width: 3; stroke-linejoin: miter"/>
      <path d="M 376.312805 22.318125 
L 376.312805 260.421875 
M 476.971875 22.318125 
L 476.971875 260.421875 
" clip-path="url(#p91753e084a)" style="fill: none; stroke: #2ca02c; stroke-linejoin: miter"/>
      <g id="PolyCollection_3">
       <path d="M 476.971875 22.318125 
L 376.312805 22.318125 
L 376.312805 260.421875 
L 476.971875 260.421875 
L 476.971875 260.421875 
L 476.971875 22.318125 
z
" clip-path="url(#p91753e084a)" style="fill: #2ca02c; fill-opacity: 0.5"/>
      </g>
      <g id="matplotlib.axis_1">
       <g id="xtick_1">
        <g id="line2d_1"/>
        <g id="text_1">
         <!-- deme0 -->
         <g transform="translate(97.360004 271.520312)scale(0.1 -0.1)">
          <defs>
           <path id="DejaVuSans-64" d="M 2906 2969 
L 2906 4863 
L 3481 4863 
L 3481 0 
L 2906 0 
L 2906 525 
Q 2725 213 2448 61 
Q 2172 -91 1784 -91 
Q 1150 -91 751 415 
Q 353 922 353 1747 
Q 353 2572 751 3078 
Q 1150 3584 1784 3584 
Q 2172 3584 2448 3432 
Q 2725 3281 2906 2969 
z
M 947 1747 
Q 947 1113 1208 752 
Q 1469 391 1925 391 
Q 2381 391 2643 752 
Q 2906 1113 2906 1747 
Q 2906 2381 2643 2742 
Q 2381 3103 1925 3103 
Q 1469 3103 1208 2742 
Q 947 2381 947 1747 
z
" transform="scale(0.015625)"/>
           <path id="DejaVuSans-65" d="M 3597 1894 
L 3597 1613 
L 953 1613 
Q 991 1019 1311 708 
Q 1631 397 2203 397 
Q 2534 397 2845 478 
Q 3156 559 3463 722 
L 3463 178 
Q 3153 47 2828 -22 
Q 2503 -91 2169 -91 
Q 1331 -91 842 396 
Q 353 884 353 1716 
Q 353 2575 817 3079 
Q 1281 3584 2069 3584 
Q 2775 3584 3186 3129 
Q 3597 2675 3597 1894 
z
M 3022 2063 
Q 3016 2534 2758 2815 
Q 2500 3097 2075 3097 
Q 1594 3097 1305 2825 
Q 1016 2553 972 2059 
L 3022 2063 
z
" transform="scale(0.015625)"/>
           <path id="DejaVuSans-6d" d="M 3328 2828 
Q 3544 3216 3844 3400 
Q 4144 3584 4550 3584 
Q 5097 3584 5394 3201 
Q 5691 2819 5691 2113 
L 5691 0 
L 5113 0 
L 5113 2094 
Q 5113 2597 4934 2840 
Q 4756 3084 4391 3084 
Q 3944 3084 3684 2787 
Q 3425 2491 3425 1978 
L 3425 0 
L 2847 0 
L 2847 2094 
Q 2847 2600 2669 2842 
Q 2491 3084 2119 3084 
Q 1678 3084 1418 2786 
Q 1159 2488 1159 1978 
L 1159 0 
L 581 0 
L 581 3500 
L 1159 3500 
L 1159 2956 
Q 1356 3278 1631 3431 
Q 1906 3584 2284 3584 
Q 2666 3584 2933 3390 
Q 3200 3197 3328 2828 
z
" transform="scale(0.015625)"/>
           <path id="DejaVuSans-30" d="M 2034 4250 
Q 1547 4250 1301 3770 
Q 1056 3291 1056 2328 
Q 1056 1369 1301 889 
Q 1547 409 2034 409 
Q 2525 409 2770 889 
Q 3016 1369 3016 2328 
Q 3016 3291 2770 3770 
Q 2525 4250 2034 4250 
z
M 2034 4750 
Q 2819 4750 3233 4129 
Q 3647 3509 3647 2328 
Q 3647 1150 3233 529 
Q 2819 -91 2034 -91 
Q 1250 -91 836 529 
Q 422 1150 422 2328 
Q 422 3509 836 4129 
Q 1250 4750 2034 4750 
z
" transform="scale(0.015625)"/>
          </defs>
          <use xlink:href="#DejaVuSans-64"/>
          <use xlink:href="#DejaVuSans-65" x="63.476562"/>
          <use xlink:href="#DejaVuSans-6d" x="125"/>
          <use xlink:href="#DejaVuSans-65" x="222.412109"/>
          <use xlink:href="#DejaVuSans-30" x="283.935547"/>
         </g>
        </g>
       </g>
       <g id="xtick_2">
        <g id="line2d_2"/>
        <g id="text_2">
         <!-- deme1 -->
         <g transform="translate(253.311719 271.520312)scale(0.1 -0.1)">
          <defs>
           <path id="DejaVuSans-31" d="M 794 531 
L 1825 531 
L 1825 4091 
L 703 3866 
L 703 4441 
L 1819 4666 
L 2450 4666 
L 2450 531 
L 3481 531 
L 3481 0 
L 794 0 
L 794 531 
z
" transform="scale(0.015625)"/>
          </defs>
          <use xlink:href="#DejaVuSans-64"/>
          <use xlink:href="#DejaVuSans-65" x="63.476562"/>
          <use xlink:href="#DejaVuSans-6d" x="125"/>
          <use xlink:href="#DejaVuSans-65" x="222.412109"/>
          <use xlink:href="#DejaVuSans-31" x="283.935547"/>
         </g>
        </g>
       </g>
       <g id="xtick_3">
        <g id="line2d_3"/>
        <g id="text_3">
         <!-- deme2 -->
         <g transform="translate(409.263434 271.520312)scale(0.1 -0.1)">
          <defs>
           <path id="DejaVuSans-32" d="M 1228 531 
L 3431 531 
L 3431 0 
L 469 0 
L 469 531 
Q 828 903 1448 1529 
Q 2069 2156 2228 2338 
Q 2531 2678 2651 2914 
Q 2772 3150 2772 3378 
Q 2772 3750 2511 3984 
Q 2250 4219 1831 4219 
Q 1534 4219 1204 4116 
Q 875 4013 500 3803 
L 500 4441 
Q 881 4594 1212 4672 
Q 1544 4750 1819 4750 
Q 2544 4750 2975 4387 
Q 3406 4025 3406 3419 
Q 3406 3131 3298 2873 
Q 3191 2616 2906 2266 
Q 2828 2175 2409 1742 
Q 1991 1309 1228 531 
z
" transform="scale(0.015625)"/>
          </defs>
          <use xlink:href="#DejaVuSans-64"/>
          <use xlink:href="#DejaVuSans-65" x="63.476562"/>
          <use xlink:href="#DejaVuSans-6d" x="125"/>
          <use xlink:href="#DejaVuSans-65" x="222.412109"/>
          <use xlink:href="#DejaVuSans-32" x="283.935547"/>
         </g>
        </g>
       </g>
      </g>
      <g id="matplotlib.axis_2">
       <g id="ytick_1">
        <g id="line2d_4">
         <defs>
          <path id="mb311e5607f" d="M 0 0 
L -3.5 0 
" style="stroke: #000000; stroke-width: 0.8"/>
         </defs>
         <g>
          <use xlink:href="#mb311e5607f" x="43.78125" y="260.421875" style="stroke: #000000; stroke-width: 0.8"/>
         </g>
        </g>
        <g id="text_4">
         <!-- 0.0 -->
         <g transform="translate(20.878125 264.221094)scale(0.1 -0.1)">
          <defs>
           <path id="DejaVuSans-2e" d="M 684 794 
L 1344 794 
L 1344 0 
L 684 0 
L 684 794 
z
" transform="scale(0.015625)"/>
          </defs>
          <use xlink:href="#DejaVuSans-30"/>
          <use xlink:href="#DejaVuSans-2e" x="63.623047"/>
          <use xlink:href="#DejaVuSans-30" x="95.410156"/>
         </g>
        </g>
       </g>
       <g id="ytick_2">
        <g id="line2d_5">
         <g>
          <use xlink:href="#mb311e5607f" x="43.78125" y="212.801125" style="stroke: #000000; stroke-width: 0.8"/>
         </g>
        </g>
        <g id="text_5">
         <!-- 0.5 -->
         <g transform="translate(20.878125 216.600344)scale(0.1 -0.1)">
          <defs>
           <path id="DejaVuSans-35" d="M 691 4666 
L 3169 4666 
L 3169 4134 
L 1269 4134 
L 1269 2991 
Q 1406 3038 1543 3061 
Q 1681 3084 1819 3084 
Q 2600 3084 3056 2656 
Q 3513 2228 3513 1497 
Q 3513 744 3044 326 
Q 2575 -91 1722 -91 
Q 1428 -91 1123 -41 
Q 819 9 494 109 
L 494 744 
Q 775 591 1075 516 
Q 1375 441 1709 441 
Q 2250 441 2565 725 
Q 2881 1009 2881 1497 
Q 2881 1984 2565 2268 
Q 2250 2553 1709 2553 
Q 1456 2553 1204 2497 
Q 953 2441 691 2322 
L 691 4666 
z
" transform="scale(0.015625)"/>
          </defs>
          <use xlink:href="#DejaVuSans-30"/>
          <use xlink:href="#DejaVuSans-2e" x="63.623047"/>
          <use xlink:href="#DejaVuSans-35" x="95.410156"/>
         </g>
        </g>
       </g>
       <g id="ytick_3">
        <g id="line2d_6">
         <g>
          <use xlink:href="#mb311e5607f" x="43.78125" y="165.180375" style="stroke: #000000; stroke-width: 0.8"/>
         </g>
        </g>
        <g id="text_6">
         <!-- 1.0 -->
         <g transform="translate(20.878125 168.979594)scale(0.1 -0.1)">
          <use xlink:href="#DejaVuSans-31"/>
          <use xlink:href="#DejaVuSans-2e" x="63.623047"/>
          <use xlink:href="#DejaVuSans-30" x="95.410156"/>
         </g>
        </g>
       </g>
       <g id="ytick_4">
        <g id="line2d_7">
         <g>
          <use xlink:href="#mb311e5607f" x="43.78125" y="117.559625" style="stroke: #000000; stroke-width: 0.8"/>
         </g>
        </g>
        <g id="text_7">
         <!-- 1.5 -->
         <g transform="translate(20.878125 121.358844)scale(0.1 -0.1)">
          <use xlink:href="#DejaVuSans-31"/>
          <use xlink:href="#DejaVuSans-2e" x="63.623047"/>
          <use xlink:href="#DejaVuSans-35" x="95.410156"/>
         </g>
        </g>
       </g>
       <g id="ytick_5">
        <g id="line2d_8">
         <g>
          <use xlink:href="#mb311e5607f" x="43.78125" y="69.938875" style="stroke: #000000; stroke-width: 0.8"/>
         </g>
        </g>
        <g id="text_8">
         <!-- 2.0 -->
         <g transform="translate(20.878125 73.738094)scale(0.1 -0.1)">
          <use xlink:href="#DejaVuSans-32"/>
          <use xlink:href="#DejaVuSans-2e" x="63.623047"/>
          <use xlink:href="#DejaVuSans-30" x="95.410156"/>
         </g>
        </g>
       </g>
       <g id="ytick_6">
        <g id="line2d_9">
         <g>
          <use xlink:href="#mb311e5607f" x="43.78125" y="22.318125" style="stroke: #000000; stroke-width: 0.8"/>
         </g>
        </g>
        <g id="text_9">
         <!-- 2.5 -->
         <g transform="translate(20.878125 26.117344)scale(0.1 -0.1)">
          <use xlink:href="#DejaVuSans-32"/>
          <use xlink:href="#DejaVuSans-2e" x="63.623047"/>
          <use xlink:href="#DejaVuSans-35" x="95.410156"/>
         </g>
        </g>
       </g>
       <g id="text_10">
        <!-- time ago (generations) -->
        <g transform="translate(14.798438 198.841094)rotate(-90)scale(0.1 -0.1)">
         <defs>
          <path id="DejaVuSans-74" d="M 1172 4494 
L 1172 3500 
L 2356 3500 
L 2356 3053 
L 1172 3053 
L 1172 1153 
Q 1172 725 1289 603 
Q 1406 481 1766 481 
L 2356 481 
L 2356 0 
L 1766 0 
Q 1100 0 847 248 
Q 594 497 594 1153 
L 594 3053 
L 172 3053 
L 172 3500 
L 594 3500 
L 594 4494 
L 1172 4494 
z
" transform="scale(0.015625)"/>
          <path id="DejaVuSans-69" d="M 603 3500 
L 1178 3500 
L 1178 0 
L 603 0 
L 603 3500 
z
M 603 4863 
L 1178 4863 
L 1178 4134 
L 603 4134 
L 603 4863 
z
" transform="scale(0.015625)"/>
          <path id="DejaVuSans-20" transform="scale(0.015625)"/>
          <path id="DejaVuSans-61" d="M 2194 1759 
Q 1497 1759 1228 1600 
Q 959 1441 959 1056 
Q 959 750 1161 570 
Q 1363 391 1709 391 
Q 2188 391 2477 730 
Q 2766 1069 2766 1631 
L 2766 1759 
L 2194 1759 
z
M 3341 1997 
L 3341 0 
L 2766 0 
L 2766 531 
Q 2569 213 2275 61 
Q 1981 -91 1556 -91 
Q 1019 -91 701 211 
Q 384 513 384 1019 
Q 384 1609 779 1909 
Q 1175 2209 1959 2209 
L 2766 2209 
L 2766 2266 
Q 2766 2663 2505 2880 
Q 2244 3097 1772 3097 
Q 1472 3097 1187 3025 
Q 903 2953 641 2809 
L 641 3341 
Q 956 3463 1253 3523 
Q 1550 3584 1831 3584 
Q 2591 3584 2966 3190 
Q 3341 2797 3341 1997 
z
" transform="scale(0.015625)"/>
          <path id="DejaVuSans-67" d="M 2906 1791 
Q 2906 2416 2648 2759 
Q 2391 3103 1925 3103 
Q 1463 3103 1205 2759 
Q 947 2416 947 1791 
Q 947 1169 1205 825 
Q 1463 481 1925 481 
Q 2391 481 2648 825 
Q 2906 1169 2906 1791 
z
M 3481 434 
Q 3481 -459 3084 -895 
Q 2688 -1331 1869 -1331 
Q 1566 -1331 1297 -1286 
Q 1028 -1241 775 -1147 
L 775 -588 
Q 1028 -725 1275 -790 
Q 1522 -856 1778 -856 
Q 2344 -856 2625 -561 
Q 2906 -266 2906 331 
L 2906 616 
Q 2728 306 2450 153 
Q 2172 0 1784 0 
Q 1141 0 747 490 
Q 353 981 353 1791 
Q 353 2603 747 3093 
Q 1141 3584 1784 3584 
Q 2172 3584 2450 3431 
Q 2728 3278 2906 2969 
L 2906 3500 
L 3481 3500 
L 3481 434 
z
" transform="scale(0.015625)"/>
          <path id="DejaVuSans-6f" d="M 1959 3097 
Q 1497 3097 1228 2736 
Q 959 2375 959 1747 
Q 959 1119 1226 758 
Q 1494 397 1959 397 
Q 2419 397 2687 759 
Q 2956 1122 2956 1747 
Q 2956 2369 2687 2733 
Q 2419 3097 1959 3097 
z
M 1959 3584 
Q 2709 3584 3137 3096 
Q 3566 2609 3566 1747 
Q 3566 888 3137 398 
Q 2709 -91 1959 -91 
Q 1206 -91 779 398 
Q 353 888 353 1747 
Q 353 2609 779 3096 
Q 1206 3584 1959 3584 
z
" transform="scale(0.015625)"/>
          <path id="DejaVuSans-28" d="M 1984 4856 
Q 1566 4138 1362 3434 
Q 1159 2731 1159 2009 
Q 1159 1288 1364 580 
Q 1569 -128 1984 -844 
L 1484 -844 
Q 1016 -109 783 600 
Q 550 1309 550 2009 
Q 550 2706 781 3412 
Q 1013 4119 1484 4856 
L 1984 4856 
z
" transform="scale(0.015625)"/>
          <path id="DejaVuSans-6e" d="M 3513 2113 
L 3513 0 
L 2938 0 
L 2938 2094 
Q 2938 2591 2744 2837 
Q 2550 3084 2163 3084 
Q 1697 3084 1428 2787 
Q 1159 2491 1159 1978 
L 1159 0 
L 581 0 
L 581 3500 
L 1159 3500 
L 1159 2956 
Q 1366 3272 1645 3428 
Q 1925 3584 2291 3584 
Q 2894 3584 3203 3211 
Q 3513 2838 3513 2113 
z
" transform="scale(0.015625)"/>
          <path id="DejaVuSans-72" d="M 2631 2963 
Q 2534 3019 2420 3045 
Q 2306 3072 2169 3072 
Q 1681 3072 1420 2755 
Q 1159 2438 1159 1844 
L 1159 0 
L 581 0 
L 581 3500 
L 1159 3500 
L 1159 2956 
Q 1341 3275 1631 3429 
Q 1922 3584 2338 3584 
Q 2397 3584 2469 3576 
Q 2541 3569 2628 3553 
L 2631 2963 
z
" transform="scale(0.015625)"/>
          <path id="DejaVuSans-73" d="M 2834 3397 
L 2834 2853 
Q 2591 2978 2328 3040 
Q 2066 3103 1784 3103 
Q 1356 3103 1142 2972 
Q 928 2841 928 2578 
Q 928 2378 1081 2264 
Q 1234 2150 1697 2047 
L 1894 2003 
Q 2506 1872 2764 1633 
Q 3022 1394 3022 966 
Q 3022 478 2636 193 
Q 2250 -91 1575 -91 
Q 1294 -91 989 -36 
Q 684 19 347 128 
L 347 722 
Q 666 556 975 473 
Q 1284 391 1588 391 
Q 1994 391 2212 530 
Q 2431 669 2431 922 
Q 2431 1156 2273 1281 
Q 2116 1406 1581 1522 
L 1381 1569 
Q 847 1681 609 1914 
Q 372 2147 372 2553 
Q 372 3047 722 3315 
Q 1072 3584 1716 3584 
Q 2034 3584 2315 3537 
Q 2597 3491 2834 3397 
z
" transform="scale(0.015625)"/>
          <path id="DejaVuSans-29" d="M 513 4856 
L 1013 4856 
Q 1481 4119 1714 3412 
Q 1947 2706 1947 2009 
Q 1947 1309 1714 600 
Q 1481 -109 1013 -844 
L 513 -844 
Q 928 -128 1133 580 
Q 1338 1288 1338 2009 
Q 1338 2731 1133 3434 
Q 928 4138 513 4856 
z
" transform="scale(0.015625)"/>
         </defs>
         <use xlink:href="#DejaVuSans-74"/>
         <use xlink:href="#DejaVuSans-69" x="39.208984"/>
         <use xlink:href="#DejaVuSans-6d" x="66.992188"/>
         <use xlink:href="#DejaVuSans-65" x="164.404297"/>
         <use xlink:href="#DejaVuSans-20" x="225.927734"/>
         <use xlink:href="#DejaVuSans-61" x="257.714844"/>
         <use xlink:href="#DejaVuSans-67" x="318.994141"/>
         <use xlink:href="#DejaVuSans-6f" x="382.470703"/>
         <use xlink:href="#DejaVuSans-20" x="443.652344"/>
         <use xlink:href="#DejaVuSans-28" x="475.439453"/>
         <use xlink:href="#DejaVuSans-67" x="514.453125"/>
         <use xlink:href="#DejaVuSans-65" x="577.929688"/>
         <use xlink:href="#DejaVuSans-6e" x="639.453125"/>
         <use xlink:href="#DejaVuSans-65" x="702.832031"/>
         <use xlink:href="#DejaVuSans-72" x="764.355469"/>
         <use xlink:href="#DejaVuSans-61" x="805.46875"/>
         <use xlink:href="#DejaVuSans-74" x="866.748047"/>
         <use xlink:href="#DejaVuSans-69" x="905.957031"/>
         <use xlink:href="#DejaVuSans-6f" x="933.740234"/>
         <use xlink:href="#DejaVuSans-6e" x="994.921875"/>
         <use xlink:href="#DejaVuSans-73" x="1058.300781"/>
         <use xlink:href="#DejaVuSans-29" x="1110.400391"/>
        </g>
       </g>
      </g>
      <path d="M 216.822903 151.037862 
L 214.822903 150.037862 
L 214.822903 152.037862 
z
" clip-path="url(#p91753e084a)" style="fill: #1f77b4; fill-opacity: 0.5; stroke: #1f77b4; stroke-opacity: 0.5; stroke-linejoin: miter"/>
      <path d="M 216.822903 114.469503 
L 214.822903 113.469503 
L 214.822903 115.469503 
z
" clip-path="url(#p91753e084a)" style="fill: #1f77b4; fill-opacity: 0.5; stroke: #1f77b4; stroke-opacity: 0.5; stroke-linejoin: miter"/>
      <path d="M 216.822903 112.838575 
L 214.822903 111.838575 
L 214.822903 113.838575 
z
" clip-path="url(#p91753e084a)" style="fill: #1f77b4; fill-opacity: 0.5; stroke: #1f77b4; stroke-opacity: 0.5; stroke-linejoin: miter"/>
      <path d="M 216.822903 135.135165 
L 214.822903 134.135165 
L 214.822903 136.135165 
z
" clip-path="url(#p91753e084a)" style="fill: #1f77b4; fill-opacity: 0.5; stroke: #1f77b4; stroke-opacity: 0.5; stroke-linejoin: miter"/>
      <path d="M 216.822903 143.721349 
L 214.822903 142.721349 
L 214.822903 144.721349 
z
" clip-path="url(#p91753e084a)" style="fill: #1f77b4; fill-opacity: 0.5; stroke: #1f77b4; stroke-opacity: 0.5; stroke-linejoin: miter"/>
      <path d="M 216.822903 87.460762 
L 214.822903 86.460762 
L 214.822903 88.460762 
z
" clip-path="url(#p91753e084a)" style="fill: #1f77b4; fill-opacity: 0.5; stroke: #1f77b4; stroke-opacity: 0.5; stroke-linejoin: miter"/>
      <path d="M 216.822903 165.007286 
L 214.822903 164.007286 
L 214.822903 166.007286 
z
" clip-path="url(#p91753e084a)" style="fill: #1f77b4; fill-opacity: 0.5; stroke: #1f77b4; stroke-opacity: 0.5; stroke-linejoin: miter"/>
      <path d="M 216.822903 128.711092 
L 214.822903 127.711092 
L 214.822903 129.711092 
z
" clip-path="url(#p91753e084a)" style="fill: #1f77b4; fill-opacity: 0.5; stroke: #1f77b4; stroke-opacity: 0.5; stroke-linejoin: miter"/>
      <path d="M 216.822903 148.600014 
L 214.822903 147.600014 
L 214.822903 149.600014 
z
" clip-path="url(#p91753e084a)" style="fill: #1f77b4; fill-opacity: 0.5; stroke: #1f77b4; stroke-opacity: 0.5; stroke-linejoin: miter"/>
      <path d="M 216.822903 132.272621 
L 214.822903 131.272621 
L 214.822903 133.272621 
z
" clip-path="url(#p91753e084a)" style="fill: #1f77b4; fill-opacity: 0.5; stroke: #1f77b4; stroke-opacity: 0.5; stroke-linejoin: miter"/>
      <path d="M 372.774618 71.162425 
L 370.774618 70.162425 
L 370.774618 72.162425 
z
" clip-path="url(#p91753e084a)" style="fill: #ff7f0e; fill-opacity: 0.5; stroke: #ff7f0e; stroke-opacity: 0.5; stroke-linejoin: miter"/>
      <path d="M 372.774618 154.146654 
L 370.774618 153.146654 
L 370.774618 155.146654 
z
" clip-path="url(#p91753e084a)" style="fill: #ff7f0e; fill-opacity: 0.5; stroke: #ff7f0e; stroke-opacity: 0.5; stroke-linejoin: miter"/>
      <path d="M 372.774618 114.408036 
L 370.774618 113.408036 
L 370.774618 115.408036 
z
" clip-path="url(#p91753e084a)" style="fill: #ff7f0e; fill-opacity: 0.5; stroke: #ff7f0e; stroke-opacity: 0.5; stroke-linejoin: miter"/>
      <path d="M 372.774618 101.135914 
L 370.774618 100.135914 
L 370.774618 102.135914 
z
" clip-path="url(#p91753e084a)" style="fill: #ff7f0e; fill-opacity: 0.5; stroke: #ff7f0e; stroke-opacity: 0.5; stroke-linejoin: miter"/>
      <path d="M 372.774618 118.019812 
L 370.774618 117.019812 
L 370.774618 119.019812 
z
" clip-path="url(#p91753e084a)" style="fill: #ff7f0e; fill-opacity: 0.5; stroke: #ff7f0e; stroke-opacity: 0.5; stroke-linejoin: miter"/>
      <path d="M 372.774618 128.809581 
L 370.774618 127.809581 
L 370.774618 129.809581 
z
" clip-path="url(#p91753e084a)" style="fill: #ff7f0e; fill-opacity: 0.5; stroke: #ff7f0e; stroke-opacity: 0.5; stroke-linejoin: miter"/>
      <path d="M 372.774618 148.198071 
L 370.774618 147.198071 
L 370.774618 149.198071 
z
" clip-path="url(#p91753e084a)" style="fill: #ff7f0e; fill-opacity: 0.5; stroke: #ff7f0e; stroke-opacity: 0.5; stroke-linejoin: miter"/>
      <path d="M 372.774618 105.844894 
L 370.774618 104.844894 
L 370.774618 106.844894 
z
" clip-path="url(#p91753e084a)" style="fill: #ff7f0e; fill-opacity: 0.5; stroke: #ff7f0e; stroke-opacity: 0.5; stroke-linejoin: miter"/>
      <path d="M 372.774618 146.79308 
L 370.774618 145.79308 
L 370.774618 147.79308 
z
" clip-path="url(#p91753e084a)" style="fill: #ff7f0e; fill-opacity: 0.5; stroke: #ff7f0e; stroke-opacity: 0.5; stroke-linejoin: miter"/>
      <path d="M 372.774618 141.951741 
L 370.774618 140.951741 
L 370.774618 142.951741 
z
" clip-path="url(#p91753e084a)" style="fill: #ff7f0e; fill-opacity: 0.5; stroke: #ff7f0e; stroke-opacity: 0.5; stroke-linejoin: miter"/>
      <g id="patch_6">
       <path d="M 43.78125 260.421875 
L 43.78125 22.318125 
" style="fill: none; stroke: #000000; stroke-width: 0.8; stroke-linejoin: miter; stroke-linecap: square"/>
      </g>
      <g id="text_11">
       <!-- defaults_migration_properties.yaml -->
       <g transform="translate(164.234688 16.318125)scale(0.12 -0.12)">
        <defs>
         <path id="DejaVuSans-66" d="M 2375 4863 
L 2375 4384 
L 1825 4384 
Q 1516 4384 1395 4259 
Q 1275 4134 1275 3809 
L 1275 3500 
L 2222 3500 
L 2222 3053 
L 1275 3053 
L 1275 0 
L 697 0 
L 697 3053 
L 147 3053 
L 147 3500 
L 697 3500 
L 697 3744 
Q 697 4328 969 4595 
Q 1241 4863 1831 4863 
L 2375 4863 
z
" transform="scale(0.015625)"/>
         <path id="DejaVuSans-75" d="M 544 1381 
L 544 3500 
L 1119 3500 
L 1119 1403 
Q 1119 906 1312 657 
Q 1506 409 1894 409 
Q 2359 409 2629 706 
Q 2900 1003 2900 1516 
L 2900 3500 
L 3475 3500 
L 3475 0 
L 2900 0 
L 2900 538 
Q 2691 219 2414 64 
Q 2138 -91 1772 -91 
Q 1169 -91 856 284 
Q 544 659 544 1381 
z
M 1991 3584 
L 1991 3584 
z
" transform="scale(0.015625)"/>
         <path id="DejaVuSans-6c" d="M 603 4863 
L 1178 4863 
L 1178 0 
L 603 0 
L 603 4863 
z
" transform="scale(0.015625)"/>
         <path id="DejaVuSans-5f" d="M 3263 -1063 
L 3263 -1509 
L -63 -1509 
L -63 -1063 
L 3263 -1063 
z
" transform="scale(0.015625)"/>
         <path id="DejaVuSans-70" d="M 1159 525 
L 1159 -1331 
L 581 -1331 
L 581 3500 
L 1159 3500 
L 1159 2969 
Q 1341 3281 1617 3432 
Q 1894 3584 2278 3584 
Q 2916 3584 3314 3078 
Q 3713 2572 3713 1747 
Q 3713 922 3314 415 
Q 2916 -91 2278 -91 
Q 1894 -91 1617 61 
Q 1341 213 1159 525 
z
M 3116 1747 
Q 3116 2381 2855 2742 
Q 2594 3103 2138 3103 
Q 1681 3103 1420 2742 
Q 1159 2381 1159 1747 
Q 1159 1113 1420 752 
Q 1681 391 2138 391 
Q 2594 391 2855 752 
Q 3116 1113 3116 1747 
z
" transform="scale(0.015625)"/>
         <path id="DejaVuSans-79" d="M 2059 -325 
Q 1816 -950 1584 -1140 
Q 1353 -1331 966 -1331 
L 506 -1331 
L 506 -850 
L 844 -850 
Q 1081 -850 1212 -737 
Q 1344 -625 1503 -206 
L 1606 56 
L 191 3500 
L 800 3500 
L 1894 763 
L 2988 3500 
L 3597 3500 
L 2059 -325 
z
" transform="scale(0.015625)"/>
        </defs>
        <use xlink:href="#DejaVuSans-64"/>
        <use xlink:href="#DejaVuSans-65" x="63.476562"/>
        <use xlink:href="#DejaVuSans-66" x="125"/>
        <use xlink:href="#DejaVuSans-61" x="160.205078"/>
        <use xlink:href="#DejaVuSans-75" x="221.484375"/>
        <use xlink:href="#DejaVuSans-6c" x="284.863281"/>
        <use xlink:href="#DejaVuSans-74" x="312.646484"/>
        <use xlink:href="#DejaVuSans-73" x="351.855469"/>
        <use xlink:href="#DejaVuSans-5f" x="403.955078"/>
        <use xlink:href="#DejaVuSans-6d" x="453.955078"/>
        <use xlink:href="#DejaVuSans-69" x="551.367188"/>
        <use xlink:href="#DejaVuSans-67" x="579.150391"/>
        <use xlink:href="#DejaVuSans-72" x="642.626953"/>
        <use xlink:href="#DejaVuSans-61" x="683.740234"/>
        <use xlink:href="#DejaVuSans-74" x="745.019531"/>
        <use xlink:href="#DejaVuSans-69" x="784.228516"/>
        <use xlink:href="#DejaVuSans-6f" x="812.011719"/>
        <use xlink:href="#DejaVuSans-6e" x="873.193359"/>
        <use xlink:href="#DejaVuSans-5f" x="936.572266"/>
        <use xlink:href="#DejaVuSans-70" x="986.572266"/>
        <use xlink:href="#DejaVuSans-72" x="1050.048828"/>
        <use xlink:href="#DejaVuSans-6f" x="1088.912109"/>
        <use xlink:href="#DejaVuSans-70" x="1150.09375"/>
        <use xlink:href="#DejaVuSans-65" x="1213.570312"/>
        <use xlink:href="#DejaVuSans-72" x="1275.09375"/>
        <use xlink:href="#DejaVuSans-74" x="1316.207031"/>
        <use xlink:href="#DejaVuSans-69" x="1355.416016"/>
        <use xlink:href="#DejaVuSans-65" x="1383.199219"/>
        <use xlink:href="#DejaVuSans-73" x="1444.722656"/>
        <use xlink:href="#DejaVuSans-2e" x="1496.822266"/>
        <use xlink:href="#DejaVuSans-79" x="1528.609375"/>
        <use xlink:href="#DejaVuSans-61" x="1587.789062"/>
        <use xlink:href="#DejaVuSans-6d" x="1649.068359"/>
        <use xlink:href="#DejaVuSans-6c" x="1746.480469"/>
       </g>
      </g>
     </g>
    </g>
    <defs>
     <clipPath id="p91753e084a">
      <rect x="43.78125" y="22.318125" width="453.81875" height="238.10375"/>
     </clipPath>
    </defs>
   </g>
  </g>
 </g>
</svg>
