<?xml version="1.0" encoding="utf-8" standalone="no"?>
<!DOCTYPE svg PUBLIC "-//W3C//DTD SVG 1.1//EN"
  "http://www.w3.org/Graphics/SVG/1.1/DTD/svg11.dtd">
<svg height="280.8pt" version="1.1" viewBox="0 0 504.8 280.8" width="504.8pt" xmlns="http://www.w3.org/2000/svg" xmlns:xlink="http://www.w3.org/1999/xlink">
 <metadata>
  <rdf:RDF xmlns:cc="http://creativecommons.org/ns#" xmlns:dc="http://purl.org/dc/elements/1.1/" xmlns:rdf="http://www.w3.org/1999/02/22-rdf-syntax-ns#">
   <cc:Work>
    <dc:type rdf:resource="http://purl.org/dc/dcmitype/StillImage"/>
    <dc:date>2021-06-09T07:16:25.915827</dc:date>
    <dc:format>image/svg+xml</dc:format>
    <dc:creator>
     <cc:Agent>
      <dc:title>Matplotlib v3.4.2, https://matplotlib.org/</dc:title>
     </cc:Agent>
    </dc:creator>
   </cc:Work>
  </rdf:RDF>
 </metadata>
 <defs>
  <style type="text/css">*{stroke-linecap:butt;stroke-linejoin:round;}</style>
 </defs>
 <g id="figure_1">
  <g id="patch_1">
   <path d="M 0 280.8 
L 504.8 280.8 
L 504.8 0 
L 0 0 
z
" style="fill:none;"/>
  </g>
  <g id="axes_1">
   <g id="patch_2">
    <path d="M 43.78125 260.421875 
L 497.6 260.421875 
L 497.6 22.318125 
L 43.78125 22.318125 
z
" style="fill:#ffffff;"/>
   </g>
   <path clip-path="url(#p0852115c98)" d="M 275.975354 111.843505 
L 274.975354 111.812069 
L 273.975354 111.775128 
L 272.975354 111.677382 
L 271.975354 111.64486 
L 270.975354 111.571235 
L 269.975354 111.53267 
L 268.975354 111.497257 
L 267.975354 111.439617 
L 266.975354 111.36923 
L 265.405896 111.317266 
" style="fill:none;stroke:#ff7f0e;stroke-linecap:square;stroke-opacity:0.5;stroke-width:0.2;"/>
   <path clip-path="url(#p0852115c98)" d="M 275.975354 79.011357 
L 274.975354 78.97992 
L 273.975354 78.94298 
L 272.975354 78.845233 
L 271.975354 78.812712 
L 270.975354 78.739087 
L 269.975354 78.700522 
L 268.975354 78.665108 
L 267.975354 78.607469 
L 266.975354 78.537082 
L 265.405896 78.485118 
" style="fill:none;stroke:#ff7f0e;stroke-linecap:square;stroke-opacity:0.5;stroke-width:0.2;"/>
   <path clip-path="url(#p0852115c98)" d="M 275.975354 144.071385 
L 274.975354 144.039949 
L 273.975354 144.003008 
L 272.975354 143.905262 
L 271.975354 143.87274 
L 270.975354 143.799116 
L 269.975354 143.76055 
L 268.975354 143.725137 
L 267.975354 143.667497 
L 266.975354 143.597111 
L 265.405896 143.545147 
" style="fill:none;stroke:#ff7f0e;stroke-linecap:square;stroke-opacity:0.5;stroke-width:0.2;"/>
   <path clip-path="url(#p0852115c98)" d="M 275.975354 120.932965 
L 274.975354 120.901529 
L 273.975354 120.864588 
L 272.975354 120.766842 
L 271.975354 120.73432 
L 270.975354 120.660696 
L 269.975354 120.62213 
L 268.975354 120.586717 
L 267.975354 120.529077 
L 266.975354 120.458691 
L 265.405896 120.406727 
" style="fill:none;stroke:#ff7f0e;stroke-linecap:square;stroke-opacity:0.5;stroke-width:0.2;"/>
   <path clip-path="url(#p0852115c98)" d="M 275.975354 140.063144 
L 274.975354 140.031707 
L 273.975354 139.994767 
L 272.975354 139.897021 
L 271.975354 139.864499 
L 270.975354 139.790874 
L 269.975354 139.752309 
L 268.975354 139.716896 
L 267.975354 139.659256 
L 266.975354 139.588869 
L 265.405896 139.536905 
" style="fill:none;stroke:#ff7f0e;stroke-linecap:square;stroke-opacity:0.5;stroke-width:0.2;"/>
   <path clip-path="url(#p0852115c98)" d="M 275.975354 139.279032 
L 274.975354 139.247596 
L 273.975354 139.210655 
L 272.975354 139.112909 
L 271.975354 139.080387 
L 270.975354 139.006762 
L 269.975354 138.968197 
L 268.975354 138.932784 
L 267.975354 138.875144 
L 266.975354 138.804758 
L 265.405896 138.752793 
" style="fill:none;stroke:#ff7f0e;stroke-linecap:square;stroke-opacity:0.5;stroke-width:0.2;"/>
   <path clip-path="url(#p0852115c98)" d="M 275.975354 146.078456 
L 274.975354 146.04702 
L 273.975354 146.01008 
L 272.975354 145.912333 
L 271.975354 145.879811 
L 270.975354 145.806187 
L 269.975354 145.767621 
L 268.975354 145.732208 
L 267.975354 145.674568 
L 266.975354 145.604182 
L 265.405896 145.552218 
" style="fill:none;stroke:#ff7f0e;stroke-linecap:square;stroke-opacity:0.5;stroke-width:0.2;"/>
   <path clip-path="url(#p0852115c98)" d="M 275.975354 134.024804 
L 274.975354 133.993367 
L 273.975354 133.956427 
L 272.975354 133.85868 
L 271.975354 133.826159 
L 270.975354 133.752534 
L 269.975354 133.713968 
L 268.975354 133.678555 
L 267.975354 133.620915 
L 266.975354 133.550529 
L 265.405896 133.498565 
" style="fill:none;stroke:#ff7f0e;stroke-linecap:square;stroke-opacity:0.5;stroke-width:0.2;"/>
   <path clip-path="url(#p0852115c98)" d="M 275.975354 122.161018 
L 274.975354 122.129581 
L 273.975354 122.092641 
L 272.975354 121.994894 
L 271.975354 121.962373 
L 270.975354 121.888748 
L 269.975354 121.850183 
L 268.975354 121.814769 
L 267.975354 121.757129 
L 266.975354 121.686743 
L 265.405896 121.634779 
" style="fill:none;stroke:#ff7f0e;stroke-linecap:square;stroke-opacity:0.5;stroke-width:0.2;"/>
   <path clip-path="url(#p0852115c98)" d="M 275.975354 147.310955 
L 274.975354 147.279519 
L 273.975354 147.242578 
L 272.975354 147.144832 
L 271.975354 147.11231 
L 270.975354 147.038685 
L 269.975354 147.00012 
L 268.975354 146.964707 
L 267.975354 146.907067 
L 266.975354 146.836681 
L 265.405896 146.784716 
" style="fill:none;stroke:#ff7f0e;stroke-linecap:square;stroke-opacity:0.5;stroke-width:0.2;"/>
   <path clip-path="url(#p0852115c98)" d="M 265.405896 81.622889 
L 266.405896 81.654325 
L 267.405896 81.691266 
L 268.405896 81.789012 
L 269.405896 81.821534 
L 270.405896 81.895158 
L 271.405896 81.933724 
L 272.405896 81.969137 
L 273.405896 82.026777 
L 274.405896 82.097163 
L 275.975354 82.149127 
" style="fill:none;stroke:#1f77b4;stroke-linecap:square;stroke-opacity:0.5;stroke-width:0.2;"/>
   <path clip-path="url(#p0852115c98)" d="M 265.405896 126.996335 
L 266.405896 127.027771 
L 267.405896 127.064712 
L 268.405896 127.162458 
L 269.405896 127.19498 
L 270.405896 127.268604 
L 271.405896 127.30717 
L 272.405896 127.342583 
L 273.405896 127.400223 
L 274.405896 127.470609 
L 275.975354 127.522573 
" style="fill:none;stroke:#1f77b4;stroke-linecap:square;stroke-opacity:0.5;stroke-width:0.2;"/>
   <path clip-path="url(#p0852115c98)" d="M 265.405896 105.738933 
L 266.405896 105.77037 
L 267.405896 105.80731 
L 268.405896 105.905057 
L 269.405896 105.937578 
L 270.405896 106.011203 
L 271.405896 106.049768 
L 272.405896 106.085182 
L 273.405896 106.142822 
L 274.405896 106.213208 
L 275.975354 106.265172 
" style="fill:none;stroke:#1f77b4;stroke-linecap:square;stroke-opacity:0.5;stroke-width:0.2;"/>
   <path clip-path="url(#p0852115c98)" d="M 265.405896 108.0188 
L 266.405896 108.050236 
L 267.405896 108.087176 
L 268.405896 108.184923 
L 269.405896 108.217444 
L 270.405896 108.291069 
L 271.405896 108.329635 
L 272.405896 108.365048 
L 273.405896 108.422688 
L 274.405896 108.493074 
L 275.975354 108.545038 
" style="fill:none;stroke:#1f77b4;stroke-linecap:square;stroke-opacity:0.5;stroke-width:0.2;"/>
   <path clip-path="url(#p0852115c98)" d="M 265.405896 81.765297 
L 266.405896 81.796734 
L 267.405896 81.833674 
L 268.405896 81.931421 
L 269.405896 81.963942 
L 270.405896 82.037567 
L 271.405896 82.076133 
L 272.405896 82.111546 
L 273.405896 82.169186 
L 274.405896 82.239572 
L 275.975354 82.291536 
" style="fill:none;stroke:#1f77b4;stroke-linecap:square;stroke-opacity:0.5;stroke-width:0.2;"/>
   <path clip-path="url(#p0852115c98)" d="M 265.405896 94.169076 
L 266.405896 94.200512 
L 267.405896 94.237453 
L 268.405896 94.335199 
L 269.405896 94.367721 
L 270.405896 94.441345 
L 271.405896 94.479911 
L 272.405896 94.515324 
L 273.405896 94.572964 
L 274.405896 94.64335 
L 275.975354 94.695314 
" style="fill:none;stroke:#1f77b4;stroke-linecap:square;stroke-opacity:0.5;stroke-width:0.2;"/>
   <path clip-path="url(#p0852115c98)" d="M 265.405896 162.949889 
L 266.405896 162.981326 
L 267.405896 163.018266 
L 268.405896 163.116013 
L 269.405896 163.148534 
L 270.405896 163.222159 
L 271.405896 163.260725 
L 272.405896 163.296138 
L 273.405896 163.353778 
L 274.405896 163.424164 
L 275.975354 163.476128 
" style="fill:none;stroke:#1f77b4;stroke-linecap:square;stroke-opacity:0.5;stroke-width:0.2;"/>
   <path clip-path="url(#p0852115c98)" d="M 265.405896 131.274136 
L 266.405896 131.305573 
L 267.405896 131.342513 
L 268.405896 131.44026 
L 269.405896 131.472781 
L 270.405896 131.546406 
L 271.405896 131.584972 
L 272.405896 131.620385 
L 273.405896 131.678025 
L 274.405896 131.748411 
L 275.975354 131.800375 
" style="fill:none;stroke:#1f77b4;stroke-linecap:square;stroke-opacity:0.5;stroke-width:0.2;"/>
   <path clip-path="url(#p0852115c98)" d="M 265.405896 107.393685 
L 266.405896 107.425121 
L 267.405896 107.462061 
L 268.405896 107.559808 
L 269.405896 107.59233 
L 270.405896 107.665954 
L 271.405896 107.70452 
L 272.405896 107.739933 
L 273.405896 107.797573 
L 274.405896 107.867959 
L 275.975354 107.919923 
" style="fill:none;stroke:#1f77b4;stroke-linecap:square;stroke-opacity:0.5;stroke-width:0.2;"/>
   <path clip-path="url(#p0852115c98)" d="M 265.405896 97.324347 
L 266.405896 97.355784 
L 267.405896 97.392724 
L 268.405896 97.49047 
L 269.405896 97.522992 
L 270.405896 97.596617 
L 271.405896 97.635182 
L 272.405896 97.670595 
L 273.405896 97.728235 
L 274.405896 97.798622 
L 275.975354 97.850586 
" style="fill:none;stroke:#1f77b4;stroke-linecap:square;stroke-opacity:0.5;stroke-width:0.2;"/>
   <path clip-path="url(#p0852115c98)" d="M 275.975354 235.665896 
L 274.975354 235.63446 
L 273.975354 235.59752 
L 272.975354 235.499773 
L 271.975354 235.467252 
L 270.975354 235.393627 
L 269.975354 235.355061 
L 268.975354 235.319648 
L 267.975354 235.262008 
L 266.975354 235.191622 
L 265.405896 235.139658 
" style="fill:none;stroke:#ff7f0e;stroke-linecap:square;stroke-opacity:0.5;stroke-width:0.2;"/>
   <path clip-path="url(#p0852115c98)" d="M 275.975354 195.631787 
L 274.975354 195.60035 
L 273.975354 195.56341 
L 272.975354 195.465663 
L 271.975354 195.433142 
L 270.975354 195.359517 
L 269.975354 195.320952 
L 268.975354 195.285538 
L 267.975354 195.227898 
L 266.975354 195.157512 
L 265.405896 195.105548 
" style="fill:none;stroke:#ff7f0e;stroke-linecap:square;stroke-opacity:0.5;stroke-width:0.2;"/>
   <path clip-path="url(#p0852115c98)" d="M 275.975354 165.554962 
L 274.975354 165.523525 
L 273.975354 165.486585 
L 272.975354 165.388839 
L 271.975354 165.356317 
L 270.975354 165.282692 
L 269.975354 165.244127 
L 268.975354 165.208713 
L 267.975354 165.151074 
L 266.975354 165.080687 
L 265.405896 165.028723 
" style="fill:none;stroke:#ff7f0e;stroke-linecap:square;stroke-opacity:0.5;stroke-width:0.2;"/>
   <path clip-path="url(#p0852115c98)" d="M 275.975354 226.813025 
L 274.975354 226.781588 
L 273.975354 226.744648 
L 272.975354 226.646902 
L 271.975354 226.61438 
L 270.975354 226.540755 
L 269.975354 226.50219 
L 268.975354 226.466777 
L 267.975354 226.409137 
L 266.975354 226.33875 
L 265.405896 226.286786 
" style="fill:none;stroke:#ff7f0e;stroke-linecap:square;stroke-opacity:0.5;stroke-width:0.2;"/>
   <path clip-path="url(#p0852115c98)" d="M 275.975354 196.879016 
L 274.975354 196.84758 
L 273.975354 196.810639 
L 272.975354 196.712893 
L 271.975354 196.680371 
L 270.975354 196.606746 
L 269.975354 196.568181 
L 268.975354 196.532768 
L 267.975354 196.475128 
L 266.975354 196.404742 
L 265.405896 196.352777 
" style="fill:none;stroke:#ff7f0e;stroke-linecap:square;stroke-opacity:0.5;stroke-width:0.2;"/>
   <path clip-path="url(#p0852115c98)" d="M 275.975354 252.184707 
L 274.975354 252.153271 
L 273.975354 252.116331 
L 272.975354 252.018584 
L 271.975354 251.986063 
L 270.975354 251.912438 
L 269.975354 251.873872 
L 268.975354 251.838459 
L 267.975354 251.780819 
L 266.975354 251.710433 
L 265.405896 251.658469 
" style="fill:none;stroke:#ff7f0e;stroke-linecap:square;stroke-opacity:0.5;stroke-width:0.2;"/>
   <path clip-path="url(#p0852115c98)" d="M 275.975354 204.128403 
L 274.975354 204.096967 
L 273.975354 204.060026 
L 272.975354 203.96228 
L 271.975354 203.929758 
L 270.975354 203.856134 
L 269.975354 203.817568 
L 268.975354 203.782155 
L 267.975354 203.724515 
L 266.975354 203.654129 
L 265.405896 203.602164 
" style="fill:none;stroke:#ff7f0e;stroke-linecap:square;stroke-opacity:0.5;stroke-width:0.2;"/>
   <path clip-path="url(#p0852115c98)" d="M 275.975354 246.542577 
L 274.975354 246.511141 
L 273.975354 246.4742 
L 272.975354 246.376454 
L 271.975354 246.343932 
L 270.975354 246.270307 
L 269.975354 246.231742 
L 268.975354 246.196329 
L 267.975354 246.138689 
L 266.975354 246.068302 
L 265.405896 246.016338 
" style="fill:none;stroke:#ff7f0e;stroke-linecap:square;stroke-opacity:0.5;stroke-width:0.2;"/>
   <path clip-path="url(#p0852115c98)" d="M 275.975354 254.076393 
L 274.975354 254.044956 
L 273.975354 254.008016 
L 272.975354 253.910269 
L 271.975354 253.877748 
L 270.975354 253.804123 
L 269.975354 253.765557 
L 268.975354 253.730144 
L 267.975354 253.672504 
L 266.975354 253.602118 
L 265.405896 253.550154 
" style="fill:none;stroke:#ff7f0e;stroke-linecap:square;stroke-opacity:0.5;stroke-width:0.2;"/>
   <path clip-path="url(#p0852115c98)" d="M 275.975354 229.864779 
L 274.975354 229.833342 
L 273.975354 229.796402 
L 272.975354 229.698655 
L 271.975354 229.666134 
L 270.975354 229.592509 
L 269.975354 229.553944 
L 268.975354 229.51853 
L 267.975354 229.46089 
L 266.975354 229.390504 
L 265.405896 229.33854 
" style="fill:none;stroke:#ff7f0e;stroke-linecap:square;stroke-opacity:0.5;stroke-width:0.2;"/>
   <path clip-path="url(#p0852115c98)" d="M 265.405896 186.373968 
L 266.405896 186.405404 
L 267.405896 186.442344 
L 268.405896 186.540091 
L 269.405896 186.572612 
L 270.405896 186.646237 
L 271.405896 186.684803 
L 272.405896 186.720216 
L 273.405896 186.777856 
L 274.405896 186.848242 
L 275.975354 186.900206 
" style="fill:none;stroke:#1f77b4;stroke-linecap:square;stroke-opacity:0.5;stroke-width:0.2;"/>
   <path clip-path="url(#p0852115c98)" d="M 265.405896 169.097146 
L 266.405896 169.128582 
L 267.405896 169.165523 
L 268.405896 169.263269 
L 269.405896 169.295791 
L 270.405896 169.369416 
L 271.405896 169.407981 
L 272.405896 169.443394 
L 273.405896 169.501034 
L 274.405896 169.571421 
L 275.975354 169.623385 
" style="fill:none;stroke:#1f77b4;stroke-linecap:square;stroke-opacity:0.5;stroke-width:0.2;"/>
   <path clip-path="url(#p0852115c98)" d="M 265.405896 206.937543 
L 266.405896 206.96898 
L 267.405896 207.00592 
L 268.405896 207.103667 
L 269.405896 207.136188 
L 270.405896 207.209813 
L 271.405896 207.248379 
L 272.405896 207.283792 
L 273.405896 207.341432 
L 274.405896 207.411818 
L 275.975354 207.463782 
" style="fill:none;stroke:#1f77b4;stroke-linecap:square;stroke-opacity:0.5;stroke-width:0.2;"/>
   <path clip-path="url(#p0852115c98)" d="M 265.405896 224.895234 
L 266.405896 224.926671 
L 267.405896 224.963611 
L 268.405896 225.061358 
L 269.405896 225.093879 
L 270.405896 225.167504 
L 271.405896 225.20607 
L 272.405896 225.241483 
L 273.405896 225.299123 
L 274.405896 225.369509 
L 275.975354 225.421473 
" style="fill:none;stroke:#1f77b4;stroke-linecap:square;stroke-opacity:0.5;stroke-width:0.2;"/>
   <path clip-path="url(#p0852115c98)" d="M 265.405896 224.513994 
L 266.405896 224.54543 
L 267.405896 224.582371 
L 268.405896 224.680117 
L 269.405896 224.712639 
L 270.405896 224.786264 
L 271.405896 224.824829 
L 272.405896 224.860242 
L 273.405896 224.917882 
L 274.405896 224.988268 
L 275.975354 225.040233 
" style="fill:none;stroke:#1f77b4;stroke-linecap:square;stroke-opacity:0.5;stroke-width:0.2;"/>
   <path clip-path="url(#p0852115c98)" d="M 265.405896 173.824961 
L 266.405896 173.856398 
L 267.405896 173.893338 
L 268.405896 173.991085 
L 269.405896 174.023606 
L 270.405896 174.097231 
L 271.405896 174.135797 
L 272.405896 174.17121 
L 273.405896 174.22885 
L 274.405896 174.299236 
L 275.975354 174.3512 
" style="fill:none;stroke:#1f77b4;stroke-linecap:square;stroke-opacity:0.5;stroke-width:0.2;"/>
   <path clip-path="url(#p0852115c98)" d="M 265.405896 198.44097 
L 266.405896 198.472406 
L 267.405896 198.509347 
L 268.405896 198.607093 
L 269.405896 198.639615 
L 270.405896 198.713239 
L 271.405896 198.751805 
L 272.405896 198.787218 
L 273.405896 198.844858 
L 274.405896 198.915244 
L 275.975354 198.967208 
" style="fill:none;stroke:#1f77b4;stroke-linecap:square;stroke-opacity:0.5;stroke-width:0.2;"/>
   <path clip-path="url(#p0852115c98)" d="M 265.405896 240.897085 
L 266.405896 240.928522 
L 267.405896 240.965462 
L 268.405896 241.063209 
L 269.405896 241.09573 
L 270.405896 241.169355 
L 271.405896 241.207921 
L 272.405896 241.243334 
L 273.405896 241.300974 
L 274.405896 241.37136 
L 275.975354 241.423324 
" style="fill:none;stroke:#1f77b4;stroke-linecap:square;stroke-opacity:0.5;stroke-width:0.2;"/>
   <path clip-path="url(#p0852115c98)" d="M 265.405896 207.048434 
L 266.405896 207.07987 
L 267.405896 207.116811 
L 268.405896 207.214557 
L 269.405896 207.247079 
L 270.405896 207.320703 
L 271.405896 207.359269 
L 272.405896 207.394682 
L 273.405896 207.452322 
L 274.405896 207.522708 
L 275.975354 207.574673 
" style="fill:none;stroke:#1f77b4;stroke-linecap:square;stroke-opacity:0.5;stroke-width:0.2;"/>
   <path clip-path="url(#p0852115c98)" d="M 265.405896 173.515589 
L 266.405896 173.547026 
L 267.405896 173.583966 
L 268.405896 173.681712 
L 269.405896 173.714234 
L 270.405896 173.787859 
L 271.405896 173.826424 
L 272.405896 173.861837 
L 273.405896 173.919477 
L 274.405896 173.989864 
L 275.975354 174.041828 
" style="fill:none;stroke:#1f77b4;stroke-linecap:square;stroke-opacity:0.5;stroke-width:0.2;"/>
   <g id="PolyCollection_1">
    <path clip-path="url(#p0852115c98)" d="M 260.867708 22.318125 
L 64.409375 22.318125 
L 64.409375 260.421875 
L 260.867708 260.421875 
L 260.867708 260.421875 
L 260.867708 22.318125 
z
" style="fill:#1f77b4;fill-opacity:0.5;"/>
   </g>
   <g id="PolyCollection_2">
    <path clip-path="url(#p0852115c98)" d="M 476.971875 22.318125 
L 280.513542 22.318125 
L 280.513542 260.421875 
L 476.971875 260.421875 
L 476.971875 260.421875 
L 476.971875 22.318125 
z
" style="fill:#ff7f0e;fill-opacity:0.5;"/>
   </g>
   <g id="patch_3">
    <path clip-path="url(#p0852115c98)" d="M 64.409375 22.318125 
L 64.409375 260.421875 
M 260.867708 22.318125 
L 260.867708 260.421875 
" style="fill:none;stroke:#ffffff;stroke-linejoin:miter;stroke-width:3;"/>
    <path clip-path="url(#p0852115c98)" d="M 64.409375 22.318125 
L 64.409375 260.421875 
M 260.867708 22.318125 
L 260.867708 260.421875 
" style="fill:none;stroke:#1f77b4;stroke-linejoin:miter;"/>
    <g id="patch_4">
     <path clip-path="url(#p0852115c98)" d="M 280.513542 22.318125 
L 280.513542 260.421875 
M 476.971875 22.318125 
L 476.971875 260.421875 
" style="fill:none;stroke:#ffffff;stroke-linejoin:miter;stroke-width:3;"/>
     <path clip-path="url(#p0852115c98)" d="M 280.513542 22.318125 
L 280.513542 260.421875 
M 476.971875 22.318125 
L 476.971875 260.421875 
" style="fill:none;stroke:#ff7f0e;stroke-linejoin:miter;"/>
     <g id="matplotlib.axis_1">
      <g id="xtick_1">
       <g id="line2d_1"/>
       <g id="text_1">
        <!-- deme0 -->
        <g transform="translate(145.259635 271.520312)scale(0.1 -0.1)">
         <defs>
          <path d="M 2906 2969 
L 2906 4863 
L 3481 4863 
L 3481 0 
L 2906 0 
L 2906 525 
Q 2725 213 2448 61 
Q 2172 -91 1784 -91 
Q 1150 -91 751 415 
Q 353 922 353 1747 
Q 353 2572 751 3078 
Q 1150 3584 1784 3584 
Q 2172 3584 2448 3432 
Q 2725 3281 2906 2969 
z
M 947 1747 
Q 947 1113 1208 752 
Q 1469 391 1925 391 
Q 2381 391 2643 752 
Q 2906 1113 2906 1747 
Q 2906 2381 2643 2742 
Q 2381 3103 1925 3103 
Q 1469 3103 1208 2742 
Q 947 2381 947 1747 
z
" id="DejaVuSans-64" transform="scale(0.015625)"/>
          <path d="M 3597 1894 
L 3597 1613 
L 953 1613 
Q 991 1019 1311 708 
Q 1631 397 2203 397 
Q 2534 397 2845 478 
Q 3156 559 3463 722 
L 3463 178 
Q 3153 47 2828 -22 
Q 2503 -91 2169 -91 
Q 1331 -91 842 396 
Q 353 884 353 1716 
Q 353 2575 817 3079 
Q 1281 3584 2069 3584 
Q 2775 3584 3186 3129 
Q 3597 2675 3597 1894 
z
M 3022 2063 
Q 3016 2534 2758 2815 
Q 2500 3097 2075 3097 
Q 1594 3097 1305 2825 
Q 1016 2553 972 2059 
L 3022 2063 
z
" id="DejaVuSans-65" transform="scale(0.015625)"/>
          <path d="M 3328 2828 
Q 3544 3216 3844 3400 
Q 4144 3584 4550 3584 
Q 5097 3584 5394 3201 
Q 5691 2819 5691 2113 
L 5691 0 
L 5113 0 
L 5113 2094 
Q 5113 2597 4934 2840 
Q 4756 3084 4391 3084 
Q 3944 3084 3684 2787 
Q 3425 2491 3425 1978 
L 3425 0 
L 2847 0 
L 2847 2094 
Q 2847 2600 2669 2842 
Q 2491 3084 2119 3084 
Q 1678 3084 1418 2786 
Q 1159 2488 1159 1978 
L 1159 0 
L 581 0 
L 581 3500 
L 1159 3500 
L 1159 2956 
Q 1356 3278 1631 3431 
Q 1906 3584 2284 3584 
Q 2666 3584 2933 3390 
Q 3200 3197 3328 2828 
z
" id="DejaVuSans-6d" transform="scale(0.015625)"/>
          <path d="M 2034 4250 
Q 1547 4250 1301 3770 
Q 1056 3291 1056 2328 
Q 1056 1369 1301 889 
Q 1547 409 2034 409 
Q 2525 409 2770 889 
Q 3016 1369 3016 2328 
Q 3016 3291 2770 3770 
Q 2525 4250 2034 4250 
z
M 2034 4750 
Q 2819 4750 3233 4129 
Q 3647 3509 3647 2328 
Q 3647 1150 3233 529 
Q 2819 -91 2034 -91 
Q 1250 -91 836 529 
Q 422 1150 422 2328 
Q 422 3509 836 4129 
Q 1250 4750 2034 4750 
z
" id="DejaVuSans-30" transform="scale(0.015625)"/>
         </defs>
         <use xlink:href="#DejaVuSans-64"/>
         <use x="63.476562" xlink:href="#DejaVuSans-65"/>
         <use x="125" xlink:href="#DejaVuSans-6d"/>
         <use x="222.412109" xlink:href="#DejaVuSans-65"/>
         <use x="283.935547" xlink:href="#DejaVuSans-30"/>
        </g>
       </g>
      </g>
      <g id="xtick_2">
       <g id="line2d_2"/>
       <g id="text_2">
        <!-- deme1 -->
        <g transform="translate(361.363802 271.520312)scale(0.1 -0.1)">
         <defs>
          <path d="M 794 531 
L 1825 531 
L 1825 4091 
L 703 3866 
L 703 4441 
L 1819 4666 
L 2450 4666 
L 2450 531 
L 3481 531 
L 3481 0 
L 794 0 
L 794 531 
z
" id="DejaVuSans-31" transform="scale(0.015625)"/>
         </defs>
         <use xlink:href="#DejaVuSans-64"/>
         <use x="63.476562" xlink:href="#DejaVuSans-65"/>
         <use x="125" xlink:href="#DejaVuSans-6d"/>
         <use x="222.412109" xlink:href="#DejaVuSans-65"/>
         <use x="283.935547" xlink:href="#DejaVuSans-31"/>
        </g>
       </g>
      </g>
     </g>
     <g id="matplotlib.axis_2">
      <g id="ytick_1">
       <g id="line2d_3">
        <defs>
         <path d="M 0 0 
L -3.5 0 
" id="m88d6ea25cb" style="stroke:#000000;stroke-width:0.8;"/>
        </defs>
        <g>
         <use style="stroke:#000000;stroke-width:0.8;" x="43.78125" xlink:href="#m88d6ea25cb" y="260.421875"/>
        </g>
       </g>
       <g id="text_3">
        <!-- 0.0 -->
        <g transform="translate(20.878125 264.221094)scale(0.1 -0.1)">
         <defs>
          <path d="M 684 794 
L 1344 794 
L 1344 0 
L 684 0 
L 684 794 
z
" id="DejaVuSans-2e" transform="scale(0.015625)"/>
         </defs>
         <use xlink:href="#DejaVuSans-30"/>
         <use x="63.623047" xlink:href="#DejaVuSans-2e"/>
         <use x="95.410156" xlink:href="#DejaVuSans-30"/>
        </g>
       </g>
      </g>
      <g id="ytick_2">
       <g id="line2d_4">
        <g>
         <use style="stroke:#000000;stroke-width:0.8;" x="43.78125" xlink:href="#m88d6ea25cb" y="212.801125"/>
        </g>
       </g>
       <g id="text_4">
        <!-- 0.5 -->
        <g transform="translate(20.878125 216.600344)scale(0.1 -0.1)">
         <defs>
          <path d="M 691 4666 
L 3169 4666 
L 3169 4134 
L 1269 4134 
L 1269 2991 
Q 1406 3038 1543 3061 
Q 1681 3084 1819 3084 
Q 2600 3084 3056 2656 
Q 3513 2228 3513 1497 
Q 3513 744 3044 326 
Q 2575 -91 1722 -91 
Q 1428 -91 1123 -41 
Q 819 9 494 109 
L 494 744 
Q 775 591 1075 516 
Q 1375 441 1709 441 
Q 2250 441 2565 725 
Q 2881 1009 2881 1497 
Q 2881 1984 2565 2268 
Q 2250 2553 1709 2553 
Q 1456 2553 1204 2497 
Q 953 2441 691 2322 
L 691 4666 
z
" id="DejaVuSans-35" transform="scale(0.015625)"/>
         </defs>
         <use xlink:href="#DejaVuSans-30"/>
         <use x="63.623047" xlink:href="#DejaVuSans-2e"/>
         <use x="95.410156" xlink:href="#DejaVuSans-35"/>
        </g>
       </g>
      </g>
      <g id="ytick_3">
       <g id="line2d_5">
        <g>
         <use style="stroke:#000000;stroke-width:0.8;" x="43.78125" xlink:href="#m88d6ea25cb" y="165.180375"/>
        </g>
       </g>
       <g id="text_5">
        <!-- 1.0 -->
        <g transform="translate(20.878125 168.979594)scale(0.1 -0.1)">
         <use xlink:href="#DejaVuSans-31"/>
         <use x="63.623047" xlink:href="#DejaVuSans-2e"/>
         <use x="95.410156" xlink:href="#DejaVuSans-30"/>
        </g>
       </g>
      </g>
      <g id="ytick_4">
       <g id="line2d_6">
        <g>
         <use style="stroke:#000000;stroke-width:0.8;" x="43.78125" xlink:href="#m88d6ea25cb" y="117.559625"/>
        </g>
       </g>
       <g id="text_6">
        <!-- 1.5 -->
        <g transform="translate(20.878125 121.358844)scale(0.1 -0.1)">
         <use xlink:href="#DejaVuSans-31"/>
         <use x="63.623047" xlink:href="#DejaVuSans-2e"/>
         <use x="95.410156" xlink:href="#DejaVuSans-35"/>
        </g>
       </g>
      </g>
      <g id="ytick_5">
       <g id="line2d_7">
        <g>
         <use style="stroke:#000000;stroke-width:0.8;" x="43.78125" xlink:href="#m88d6ea25cb" y="69.938875"/>
        </g>
       </g>
       <g id="text_7">
        <!-- 2.0 -->
        <g transform="translate(20.878125 73.738094)scale(0.1 -0.1)">
         <defs>
          <path d="M 1228 531 
L 3431 531 
L 3431 0 
L 469 0 
L 469 531 
Q 828 903 1448 1529 
Q 2069 2156 2228 2338 
Q 2531 2678 2651 2914 
Q 2772 3150 2772 3378 
Q 2772 3750 2511 3984 
Q 2250 4219 1831 4219 
Q 1534 4219 1204 4116 
Q 875 4013 500 3803 
L 500 4441 
Q 881 4594 1212 4672 
Q 1544 4750 1819 4750 
Q 2544 4750 2975 4387 
Q 3406 4025 3406 3419 
Q 3406 3131 3298 2873 
Q 3191 2616 2906 2266 
Q 2828 2175 2409 1742 
Q 1991 1309 1228 531 
z
" id="DejaVuSans-32" transform="scale(0.015625)"/>
         </defs>
         <use xlink:href="#DejaVuSans-32"/>
         <use x="63.623047" xlink:href="#DejaVuSans-2e"/>
         <use x="95.410156" xlink:href="#DejaVuSans-30"/>
        </g>
       </g>
      </g>
      <g id="ytick_6">
       <g id="line2d_8">
        <g>
         <use style="stroke:#000000;stroke-width:0.8;" x="43.78125" xlink:href="#m88d6ea25cb" y="22.318125"/>
        </g>
       </g>
       <g id="text_8">
        <!-- 2.5 -->
        <g transform="translate(20.878125 26.117344)scale(0.1 -0.1)">
         <use xlink:href="#DejaVuSans-32"/>
         <use x="63.623047" xlink:href="#DejaVuSans-2e"/>
         <use x="95.410156" xlink:href="#DejaVuSans-35"/>
        </g>
       </g>
      </g>
      <g id="text_9">
       <!-- time ago (generations) -->
       <g transform="translate(14.798438 198.841094)rotate(-90)scale(0.1 -0.1)">
        <defs>
         <path d="M 1172 4494 
L 1172 3500 
L 2356 3500 
L 2356 3053 
L 1172 3053 
L 1172 1153 
Q 1172 725 1289 603 
Q 1406 481 1766 481 
L 2356 481 
L 2356 0 
L 1766 0 
Q 1100 0 847 248 
Q 594 497 594 1153 
L 594 3053 
L 172 3053 
L 172 3500 
L 594 3500 
L 594 4494 
L 1172 4494 
z
" id="DejaVuSans-74" transform="scale(0.015625)"/>
         <path d="M 603 3500 
L 1178 3500 
L 1178 0 
L 603 0 
L 603 3500 
z
M 603 4863 
L 1178 4863 
L 1178 4134 
L 603 4134 
L 603 4863 
z
" id="DejaVuSans-69" transform="scale(0.015625)"/>
         <path id="DejaVuSans-20" transform="scale(0.015625)"/>
         <path d="M 2194 1759 
Q 1497 1759 1228 1600 
Q 959 1441 959 1056 
Q 959 750 1161 570 
Q 1363 391 1709 391 
Q 2188 391 2477 730 
Q 2766 1069 2766 1631 
L 2766 1759 
L 2194 1759 
z
M 3341 1997 
L 3341 0 
L 2766 0 
L 2766 531 
Q 2569 213 2275 61 
Q 1981 -91 1556 -91 
Q 1019 -91 701 211 
Q 384 513 384 1019 
Q 384 1609 779 1909 
Q 1175 2209 1959 2209 
L 2766 2209 
L 2766 2266 
Q 2766 2663 2505 2880 
Q 2244 3097 1772 3097 
Q 1472 3097 1187 3025 
Q 903 2953 641 2809 
L 641 3341 
Q 956 3463 1253 3523 
Q 1550 3584 1831 3584 
Q 2591 3584 2966 3190 
Q 3341 2797 3341 1997 
z
" id="DejaVuSans-61" transform="scale(0.015625)"/>
         <path d="M 2906 1791 
Q 2906 2416 2648 2759 
Q 2391 3103 1925 3103 
Q 1463 3103 1205 2759 
Q 947 2416 947 1791 
Q 947 1169 1205 825 
Q 1463 481 1925 481 
Q 2391 481 2648 825 
Q 2906 1169 2906 1791 
z
M 3481 434 
Q 3481 -459 3084 -895 
Q 2688 -1331 1869 -1331 
Q 1566 -1331 1297 -1286 
Q 1028 -1241 775 -1147 
L 775 -588 
Q 1028 -725 1275 -790 
Q 1522 -856 1778 -856 
Q 2344 -856 2625 -561 
Q 2906 -266 2906 331 
L 2906 616 
Q 2728 306 2450 153 
Q 2172 0 1784 0 
Q 1141 0 747 490 
Q 353 981 353 1791 
Q 353 2603 747 3093 
Q 1141 3584 1784 3584 
Q 2172 3584 2450 3431 
Q 2728 3278 2906 2969 
L 2906 3500 
L 3481 3500 
L 3481 434 
z
" id="DejaVuSans-67" transform="scale(0.015625)"/>
         <path d="M 1959 3097 
Q 1497 3097 1228 2736 
Q 959 2375 959 1747 
Q 959 1119 1226 758 
Q 1494 397 1959 397 
Q 2419 397 2687 759 
Q 2956 1122 2956 1747 
Q 2956 2369 2687 2733 
Q 2419 3097 1959 3097 
z
M 1959 3584 
Q 2709 3584 3137 3096 
Q 3566 2609 3566 1747 
Q 3566 888 3137 398 
Q 2709 -91 1959 -91 
Q 1206 -91 779 398 
Q 353 888 353 1747 
Q 353 2609 779 3096 
Q 1206 3584 1959 3584 
z
" id="DejaVuSans-6f" transform="scale(0.015625)"/>
         <path d="M 1984 4856 
Q 1566 4138 1362 3434 
Q 1159 2731 1159 2009 
Q 1159 1288 1364 580 
Q 1569 -128 1984 -844 
L 1484 -844 
Q 1016 -109 783 600 
Q 550 1309 550 2009 
Q 550 2706 781 3412 
Q 1013 4119 1484 4856 
L 1984 4856 
z
" id="DejaVuSans-28" transform="scale(0.015625)"/>
         <path d="M 3513 2113 
L 3513 0 
L 2938 0 
L 2938 2094 
Q 2938 2591 2744 2837 
Q 2550 3084 2163 3084 
Q 1697 3084 1428 2787 
Q 1159 2491 1159 1978 
L 1159 0 
L 581 0 
L 581 3500 
L 1159 3500 
L 1159 2956 
Q 1366 3272 1645 3428 
Q 1925 3584 2291 3584 
Q 2894 3584 3203 3211 
Q 3513 2838 3513 2113 
z
" id="DejaVuSans-6e" transform="scale(0.015625)"/>
         <path d="M 2631 2963 
Q 2534 3019 2420 3045 
Q 2306 3072 2169 3072 
Q 1681 3072 1420 2755 
Q 1159 2438 1159 1844 
L 1159 0 
L 581 0 
L 581 3500 
L 1159 3500 
L 1159 2956 
Q 1341 3275 1631 3429 
Q 1922 3584 2338 3584 
Q 2397 3584 2469 3576 
Q 2541 3569 2628 3553 
L 2631 2963 
z
" id="DejaVuSans-72" transform="scale(0.015625)"/>
         <path d="M 2834 3397 
L 2834 2853 
Q 2591 2978 2328 3040 
Q 2066 3103 1784 3103 
Q 1356 3103 1142 2972 
Q 928 2841 928 2578 
Q 928 2378 1081 2264 
Q 1234 2150 1697 2047 
L 1894 2003 
Q 2506 1872 2764 1633 
Q 3022 1394 3022 966 
Q 3022 478 2636 193 
Q 2250 -91 1575 -91 
Q 1294 -91 989 -36 
Q 684 19 347 128 
L 347 722 
Q 666 556 975 473 
Q 1284 391 1588 391 
Q 1994 391 2212 530 
Q 2431 669 2431 922 
Q 2431 1156 2273 1281 
Q 2116 1406 1581 1522 
L 1381 1569 
Q 847 1681 609 1914 
Q 372 2147 372 2553 
Q 372 3047 722 3315 
Q 1072 3584 1716 3584 
Q 2034 3584 2315 3537 
Q 2597 3491 2834 3397 
z
" id="DejaVuSans-73" transform="scale(0.015625)"/>
         <path d="M 513 4856 
L 1013 4856 
Q 1481 4119 1714 3412 
Q 1947 2706 1947 2009 
Q 1947 1309 1714 600 
Q 1481 -109 1013 -844 
L 513 -844 
Q 928 -128 1133 580 
Q 1338 1288 1338 2009 
Q 1338 2731 1133 3434 
Q 928 4138 513 4856 
z
" id="DejaVuSans-29" transform="scale(0.015625)"/>
        </defs>
        <use xlink:href="#DejaVuSans-74"/>
        <use x="39.208984" xlink:href="#DejaVuSans-69"/>
        <use x="66.992188" xlink:href="#DejaVuSans-6d"/>
        <use x="164.404297" xlink:href="#DejaVuSans-65"/>
        <use x="225.927734" xlink:href="#DejaVuSans-20"/>
        <use x="257.714844" xlink:href="#DejaVuSans-61"/>
        <use x="318.994141" xlink:href="#DejaVuSans-67"/>
        <use x="382.470703" xlink:href="#DejaVuSans-6f"/>
        <use x="443.652344" xlink:href="#DejaVuSans-20"/>
        <use x="475.439453" xlink:href="#DejaVuSans-28"/>
        <use x="514.453125" xlink:href="#DejaVuSans-67"/>
        <use x="577.929688" xlink:href="#DejaVuSans-65"/>
        <use x="639.453125" xlink:href="#DejaVuSans-6e"/>
        <use x="702.832031" xlink:href="#DejaVuSans-65"/>
        <use x="764.355469" xlink:href="#DejaVuSans-72"/>
        <use x="805.46875" xlink:href="#DejaVuSans-61"/>
        <use x="866.748047" xlink:href="#DejaVuSans-74"/>
        <use x="905.957031" xlink:href="#DejaVuSans-69"/>
        <use x="933.740234" xlink:href="#DejaVuSans-6f"/>
        <use x="994.921875" xlink:href="#DejaVuSans-6e"/>
        <use x="1058.300781" xlink:href="#DejaVuSans-73"/>
        <use x="1110.400391" xlink:href="#DejaVuSans-29"/>
       </g>
      </g>
     </g>
     <path clip-path="url(#p0852115c98)" d="M 264.405896 111.843505 
L 266.405896 112.843505 
L 266.405896 110.843505 
z
" style="fill:#ff7f0e;fill-opacity:0.5;stroke:#ff7f0e;stroke-linejoin:miter;stroke-opacity:0.5;"/>
     <path clip-path="url(#p0852115c98)" d="M 264.405896 79.011357 
L 266.405896 80.011357 
L 266.405896 78.011357 
z
" style="fill:#ff7f0e;fill-opacity:0.5;stroke:#ff7f0e;stroke-linejoin:miter;stroke-opacity:0.5;"/>
     <path clip-path="url(#p0852115c98)" d="M 264.405896 144.071385 
L 266.405896 145.071385 
L 266.405896 143.071385 
z
" style="fill:#ff7f0e;fill-opacity:0.5;stroke:#ff7f0e;stroke-linejoin:miter;stroke-opacity:0.5;"/>
     <path clip-path="url(#p0852115c98)" d="M 264.405896 120.932965 
L 266.405896 121.932965 
L 266.405896 119.932965 
z
" style="fill:#ff7f0e;fill-opacity:0.5;stroke:#ff7f0e;stroke-linejoin:miter;stroke-opacity:0.5;"/>
     <path clip-path="url(#p0852115c98)" d="M 264.405896 140.063144 
L 266.405896 141.063144 
L 266.405896 139.063144 
z
" style="fill:#ff7f0e;fill-opacity:0.5;stroke:#ff7f0e;stroke-linejoin:miter;stroke-opacity:0.5;"/>
     <path clip-path="url(#p0852115c98)" d="M 264.405896 139.279032 
L 266.405896 140.279032 
L 266.405896 138.279032 
z
" style="fill:#ff7f0e;fill-opacity:0.5;stroke:#ff7f0e;stroke-linejoin:miter;stroke-opacity:0.5;"/>
     <path clip-path="url(#p0852115c98)" d="M 264.405896 146.078456 
L 266.405896 147.078456 
L 266.405896 145.078456 
z
" style="fill:#ff7f0e;fill-opacity:0.5;stroke:#ff7f0e;stroke-linejoin:miter;stroke-opacity:0.5;"/>
     <path clip-path="url(#p0852115c98)" d="M 264.405896 134.024804 
L 266.405896 135.024804 
L 266.405896 133.024804 
z
" style="fill:#ff7f0e;fill-opacity:0.5;stroke:#ff7f0e;stroke-linejoin:miter;stroke-opacity:0.5;"/>
     <path clip-path="url(#p0852115c98)" d="M 264.405896 122.161018 
L 266.405896 123.161018 
L 266.405896 121.161018 
z
" style="fill:#ff7f0e;fill-opacity:0.5;stroke:#ff7f0e;stroke-linejoin:miter;stroke-opacity:0.5;"/>
     <path clip-path="url(#p0852115c98)" d="M 264.405896 147.310955 
L 266.405896 148.310955 
L 266.405896 146.310955 
z
" style="fill:#ff7f0e;fill-opacity:0.5;stroke:#ff7f0e;stroke-linejoin:miter;stroke-opacity:0.5;"/>
     <path clip-path="url(#p0852115c98)" d="M 276.975354 81.622889 
L 274.975354 80.622889 
L 274.975354 82.622889 
z
" style="fill:#1f77b4;fill-opacity:0.5;stroke:#1f77b4;stroke-linejoin:miter;stroke-opacity:0.5;"/>
     <path clip-path="url(#p0852115c98)" d="M 276.975354 126.996335 
L 274.975354 125.996335 
L 274.975354 127.996335 
z
" style="fill:#1f77b4;fill-opacity:0.5;stroke:#1f77b4;stroke-linejoin:miter;stroke-opacity:0.5;"/>
     <path clip-path="url(#p0852115c98)" d="M 276.975354 105.738933 
L 274.975354 104.738933 
L 274.975354 106.738933 
z
" style="fill:#1f77b4;fill-opacity:0.5;stroke:#1f77b4;stroke-linejoin:miter;stroke-opacity:0.5;"/>
     <path clip-path="url(#p0852115c98)" d="M 276.975354 108.0188 
L 274.975354 107.0188 
L 274.975354 109.0188 
z
" style="fill:#1f77b4;fill-opacity:0.5;stroke:#1f77b4;stroke-linejoin:miter;stroke-opacity:0.5;"/>
     <path clip-path="url(#p0852115c98)" d="M 276.975354 81.765297 
L 274.975354 80.765297 
L 274.975354 82.765297 
z
" style="fill:#1f77b4;fill-opacity:0.5;stroke:#1f77b4;stroke-linejoin:miter;stroke-opacity:0.5;"/>
     <path clip-path="url(#p0852115c98)" d="M 276.975354 94.169076 
L 274.975354 93.169076 
L 274.975354 95.169076 
z
" style="fill:#1f77b4;fill-opacity:0.5;stroke:#1f77b4;stroke-linejoin:miter;stroke-opacity:0.5;"/>
     <path clip-path="url(#p0852115c98)" d="M 276.975354 162.949889 
L 274.975354 161.949889 
L 274.975354 163.949889 
z
" style="fill:#1f77b4;fill-opacity:0.5;stroke:#1f77b4;stroke-linejoin:miter;stroke-opacity:0.5;"/>
     <path clip-path="url(#p0852115c98)" d="M 276.975354 131.274136 
L 274.975354 130.274136 
L 274.975354 132.274136 
z
" style="fill:#1f77b4;fill-opacity:0.5;stroke:#1f77b4;stroke-linejoin:miter;stroke-opacity:0.5;"/>
     <path clip-path="url(#p0852115c98)" d="M 276.975354 107.393685 
L 274.975354 106.393685 
L 274.975354 108.393685 
z
" style="fill:#1f77b4;fill-opacity:0.5;stroke:#1f77b4;stroke-linejoin:miter;stroke-opacity:0.5;"/>
     <path clip-path="url(#p0852115c98)" d="M 276.975354 97.324347 
L 274.975354 96.324347 
L 274.975354 98.324347 
z
" style="fill:#1f77b4;fill-opacity:0.5;stroke:#1f77b4;stroke-linejoin:miter;stroke-opacity:0.5;"/>
     <path clip-path="url(#p0852115c98)" d="M 264.405896 235.665896 
L 266.405896 236.665896 
L 266.405896 234.665896 
z
" style="fill:#ff7f0e;fill-opacity:0.5;stroke:#ff7f0e;stroke-linejoin:miter;stroke-opacity:0.5;"/>
     <path clip-path="url(#p0852115c98)" d="M 264.405896 195.631787 
L 266.405896 196.631787 
L 266.405896 194.631787 
z
" style="fill:#ff7f0e;fill-opacity:0.5;stroke:#ff7f0e;stroke-linejoin:miter;stroke-opacity:0.5;"/>
     <path clip-path="url(#p0852115c98)" d="M 264.405896 165.554962 
L 266.405896 166.554962 
L 266.405896 164.554962 
z
" style="fill:#ff7f0e;fill-opacity:0.5;stroke:#ff7f0e;stroke-linejoin:miter;stroke-opacity:0.5;"/>
     <path clip-path="url(#p0852115c98)" d="M 264.405896 226.813025 
L 266.405896 227.813025 
L 266.405896 225.813025 
z
" style="fill:#ff7f0e;fill-opacity:0.5;stroke:#ff7f0e;stroke-linejoin:miter;stroke-opacity:0.5;"/>
     <path clip-path="url(#p0852115c98)" d="M 264.405896 196.879016 
L 266.405896 197.879016 
L 266.405896 195.879016 
z
" style="fill:#ff7f0e;fill-opacity:0.5;stroke:#ff7f0e;stroke-linejoin:miter;stroke-opacity:0.5;"/>
     <path clip-path="url(#p0852115c98)" d="M 264.405896 252.184707 
L 266.405896 253.184707 
L 266.405896 251.184707 
z
" style="fill:#ff7f0e;fill-opacity:0.5;stroke:#ff7f0e;stroke-linejoin:miter;stroke-opacity:0.5;"/>
     <path clip-path="url(#p0852115c98)" d="M 264.405896 204.128403 
L 266.405896 205.128403 
L 266.405896 203.128403 
z
" style="fill:#ff7f0e;fill-opacity:0.5;stroke:#ff7f0e;stroke-linejoin:miter;stroke-opacity:0.5;"/>
     <path clip-path="url(#p0852115c98)" d="M 264.405896 246.542577 
L 266.405896 247.542577 
L 266.405896 245.542577 
z
" style="fill:#ff7f0e;fill-opacity:0.5;stroke:#ff7f0e;stroke-linejoin:miter;stroke-opacity:0.5;"/>
     <path clip-path="url(#p0852115c98)" d="M 264.405896 254.076393 
L 266.405896 255.076393 
L 266.405896 253.076393 
z
" style="fill:#ff7f0e;fill-opacity:0.5;stroke:#ff7f0e;stroke-linejoin:miter;stroke-opacity:0.5;"/>
     <path clip-path="url(#p0852115c98)" d="M 264.405896 229.864779 
L 266.405896 230.864779 
L 266.405896 228.864779 
z
" style="fill:#ff7f0e;fill-opacity:0.5;stroke:#ff7f0e;stroke-linejoin:miter;stroke-opacity:0.5;"/>
     <path clip-path="url(#p0852115c98)" d="M 276.975354 186.373968 
L 274.975354 185.373968 
L 274.975354 187.373968 
z
" style="fill:#1f77b4;fill-opacity:0.5;stroke:#1f77b4;stroke-linejoin:miter;stroke-opacity:0.5;"/>
     <path clip-path="url(#p0852115c98)" d="M 276.975354 169.097146 
L 274.975354 168.097146 
L 274.975354 170.097146 
z
" style="fill:#1f77b4;fill-opacity:0.5;stroke:#1f77b4;stroke-linejoin:miter;stroke-opacity:0.5;"/>
     <path clip-path="url(#p0852115c98)" d="M 276.975354 206.937543 
L 274.975354 205.937543 
L 274.975354 207.937543 
z
" style="fill:#1f77b4;fill-opacity:0.5;stroke:#1f77b4;stroke-linejoin:miter;stroke-opacity:0.5;"/>
     <path clip-path="url(#p0852115c98)" d="M 276.975354 224.895234 
L 274.975354 223.895234 
L 274.975354 225.895234 
z
" style="fill:#1f77b4;fill-opacity:0.5;stroke:#1f77b4;stroke-linejoin:miter;stroke-opacity:0.5;"/>
     <path clip-path="url(#p0852115c98)" d="M 276.975354 224.513994 
L 274.975354 223.513994 
L 274.975354 225.513994 
z
" style="fill:#1f77b4;fill-opacity:0.5;stroke:#1f77b4;stroke-linejoin:miter;stroke-opacity:0.5;"/>
     <path clip-path="url(#p0852115c98)" d="M 276.975354 173.824961 
L 274.975354 172.824961 
L 274.975354 174.824961 
z
" style="fill:#1f77b4;fill-opacity:0.5;stroke:#1f77b4;stroke-linejoin:miter;stroke-opacity:0.5;"/>
     <path clip-path="url(#p0852115c98)" d="M 276.975354 198.44097 
L 274.975354 197.44097 
L 274.975354 199.44097 
z
" style="fill:#1f77b4;fill-opacity:0.5;stroke:#1f77b4;stroke-linejoin:miter;stroke-opacity:0.5;"/>
     <path clip-path="url(#p0852115c98)" d="M 276.975354 240.897085 
L 274.975354 239.897085 
L 274.975354 241.897085 
z
" style="fill:#1f77b4;fill-opacity:0.5;stroke:#1f77b4;stroke-linejoin:miter;stroke-opacity:0.5;"/>
     <path clip-path="url(#p0852115c98)" d="M 276.975354 207.048434 
L 274.975354 206.048434 
L 274.975354 208.048434 
z
" style="fill:#1f77b4;fill-opacity:0.5;stroke:#1f77b4;stroke-linejoin:miter;stroke-opacity:0.5;"/>
     <path clip-path="url(#p0852115c98)" d="M 276.975354 173.515589 
L 274.975354 172.515589 
L 274.975354 174.515589 
z
" style="fill:#1f77b4;fill-opacity:0.5;stroke:#1f77b4;stroke-linejoin:miter;stroke-opacity:0.5;"/>
     <g id="patch_5">
      <path d="M 43.78125 260.421875 
L 43.78125 22.318125 
" style="fill:none;stroke:#000000;stroke-linecap:square;stroke-linejoin:miter;stroke-width:0.8;"/>
     </g>
     <g id="text_10">
      <!-- defaults_symmetric_migration_changing_rate.yaml -->
      <g transform="translate(117.1525 16.318125)scale(0.12 -0.12)">
       <defs>
        <path d="M 2375 4863 
L 2375 4384 
L 1825 4384 
Q 1516 4384 1395 4259 
Q 1275 4134 1275 3809 
L 1275 3500 
L 2222 3500 
L 2222 3053 
L 1275 3053 
L 1275 0 
L 697 0 
L 697 3053 
L 147 3053 
L 147 3500 
L 697 3500 
L 697 3744 
Q 697 4328 969 4595 
Q 1241 4863 1831 4863 
L 2375 4863 
z
" id="DejaVuSans-66" transform="scale(0.015625)"/>
        <path d="M 544 1381 
L 544 3500 
L 1119 3500 
L 1119 1403 
Q 1119 906 1312 657 
Q 1506 409 1894 409 
Q 2359 409 2629 706 
Q 2900 1003 2900 1516 
L 2900 3500 
L 3475 3500 
L 3475 0 
L 2900 0 
L 2900 538 
Q 2691 219 2414 64 
Q 2138 -91 1772 -91 
Q 1169 -91 856 284 
Q 544 659 544 1381 
z
M 1991 3584 
L 1991 3584 
z
" id="DejaVuSans-75" transform="scale(0.015625)"/>
        <path d="M 603 4863 
L 1178 4863 
L 1178 0 
L 603 0 
L 603 4863 
z
" id="DejaVuSans-6c" transform="scale(0.015625)"/>
        <path d="M 3263 -1063 
L 3263 -1509 
L -63 -1509 
L -63 -1063 
L 3263 -1063 
z
" id="DejaVuSans-5f" transform="scale(0.015625)"/>
        <path d="M 2059 -325 
Q 1816 -950 1584 -1140 
Q 1353 -1331 966 -1331 
L 506 -1331 
L 506 -850 
L 844 -850 
Q 1081 -850 1212 -737 
Q 1344 -625 1503 -206 
L 1606 56 
L 191 3500 
L 800 3500 
L 1894 763 
L 2988 3500 
L 3597 3500 
L 2059 -325 
z
" id="DejaVuSans-79" transform="scale(0.015625)"/>
        <path d="M 3122 3366 
L 3122 2828 
Q 2878 2963 2633 3030 
Q 2388 3097 2138 3097 
Q 1578 3097 1268 2742 
Q 959 2388 959 1747 
Q 959 1106 1268 751 
Q 1578 397 2138 397 
Q 2388 397 2633 464 
Q 2878 531 3122 666 
L 3122 134 
Q 2881 22 2623 -34 
Q 2366 -91 2075 -91 
Q 1284 -91 818 406 
Q 353 903 353 1747 
Q 353 2603 823 3093 
Q 1294 3584 2113 3584 
Q 2378 3584 2631 3529 
Q 2884 3475 3122 3366 
z
" id="DejaVuSans-63" transform="scale(0.015625)"/>
        <path d="M 3513 2113 
L 3513 0 
L 2938 0 
L 2938 2094 
Q 2938 2591 2744 2837 
Q 2550 3084 2163 3084 
Q 1697 3084 1428 2787 
Q 1159 2491 1159 1978 
L 1159 0 
L 581 0 
L 581 4863 
L 1159 4863 
L 1159 2956 
Q 1366 3272 1645 3428 
Q 1925 3584 2291 3584 
Q 2894 3584 3203 3211 
Q 3513 2838 3513 2113 
z
" id="DejaVuSans-68" transform="scale(0.015625)"/>
       </defs>
       <use xlink:href="#DejaVuSans-64"/>
       <use x="63.476562" xlink:href="#DejaVuSans-65"/>
       <use x="125" xlink:href="#DejaVuSans-66"/>
       <use x="160.205078" xlink:href="#DejaVuSans-61"/>
       <use x="221.484375" xlink:href="#DejaVuSans-75"/>
       <use x="284.863281" xlink:href="#DejaVuSans-6c"/>
       <use x="312.646484" xlink:href="#DejaVuSans-74"/>
       <use x="351.855469" xlink:href="#DejaVuSans-73"/>
       <use x="403.955078" xlink:href="#DejaVuSans-5f"/>
       <use x="453.955078" xlink:href="#DejaVuSans-73"/>
       <use x="506.054688" xlink:href="#DejaVuSans-79"/>
       <use x="565.234375" xlink:href="#DejaVuSans-6d"/>
       <use x="662.646484" xlink:href="#DejaVuSans-6d"/>
       <use x="760.058594" xlink:href="#DejaVuSans-65"/>
       <use x="821.582031" xlink:href="#DejaVuSans-74"/>
       <use x="860.791016" xlink:href="#DejaVuSans-72"/>
       <use x="901.904297" xlink:href="#DejaVuSans-69"/>
       <use x="929.6875" xlink:href="#DejaVuSans-63"/>
       <use x="984.667969" xlink:href="#DejaVuSans-5f"/>
       <use x="1034.667969" xlink:href="#DejaVuSans-6d"/>
       <use x="1132.080078" xlink:href="#DejaVuSans-69"/>
       <use x="1159.863281" xlink:href="#DejaVuSans-67"/>
       <use x="1223.339844" xlink:href="#DejaVuSans-72"/>
       <use x="1264.453125" xlink:href="#DejaVuSans-61"/>
       <use x="1325.732422" xlink:href="#DejaVuSans-74"/>
       <use x="1364.941406" xlink:href="#DejaVuSans-69"/>
       <use x="1392.724609" xlink:href="#DejaVuSans-6f"/>
       <use x="1453.90625" xlink:href="#DejaVuSans-6e"/>
       <use x="1517.285156" xlink:href="#DejaVuSans-5f"/>
       <use x="1567.285156" xlink:href="#DejaVuSans-63"/>
       <use x="1622.265625" xlink:href="#DejaVuSans-68"/>
       <use x="1685.644531" xlink:href="#DejaVuSans-61"/>
       <use x="1746.923828" xlink:href="#DejaVuSans-6e"/>
       <use x="1810.302734" xlink:href="#DejaVuSans-67"/>
       <use x="1873.779297" xlink:href="#DejaVuSans-69"/>
       <use x="1901.5625" xlink:href="#DejaVuSans-6e"/>
       <use x="1964.941406" xlink:href="#DejaVuSans-67"/>
       <use x="2028.417969" xlink:href="#DejaVuSans-5f"/>
       <use x="2078.417969" xlink:href="#DejaVuSans-72"/>
       <use x="2119.53125" xlink:href="#DejaVuSans-61"/>
       <use x="2180.810547" xlink:href="#DejaVuSans-74"/>
       <use x="2220.019531" xlink:href="#DejaVuSans-65"/>
       <use x="2281.542969" xlink:href="#DejaVuSans-2e"/>
       <use x="2313.330078" xlink:href="#DejaVuSans-79"/>
       <use x="2372.509766" xlink:href="#DejaVuSans-61"/>
       <use x="2433.789062" xlink:href="#DejaVuSans-6d"/>
       <use x="2531.201172" xlink:href="#DejaVuSans-6c"/>
      </g>
     </g>
    </g>
   </g>
   <defs>
    <clipPath id="p0852115c98">
     <rect height="238.10375" width="453.81875" x="43.78125" y="22.318125"/>
    </clipPath>
   </defs>
  </g>
 </g>
</svg>
