<?xml version="1.0" encoding="utf-8" standalone="no"?>
<!DOCTYPE svg PUBLIC "-//W3C//DTD SVG 1.1//EN"
  "http://www.w3.org/Graphics/SVG/1.1/DTD/svg11.dtd">
<!-- Created with matplotlib (https://matplotlib.org/) -->
<svg height="280.8pt" version="1.1" viewBox="0 0 504.8 280.8" width="504.8pt" xmlns="http://www.w3.org/2000/svg" xmlns:xlink="http://www.w3.org/1999/xlink">
 <metadata>
  <rdf:RDF xmlns:cc="http://creativecommons.org/ns#" xmlns:dc="http://purl.org/dc/elements/1.1/" xmlns:rdf="http://www.w3.org/1999/02/22-rdf-syntax-ns#">
   <cc:Work>
    <dc:type rdf:resource="http://purl.org/dc/dcmitype/StillImage"/>
    <dc:date>2021-06-08T18:20:18.553693</dc:date>
    <dc:format>image/svg+xml</dc:format>
    <dc:creator>
     <cc:Agent>
      <dc:title>Matplotlib v3.3.4, https://matplotlib.org/</dc:title>
     </cc:Agent>
    </dc:creator>
   </cc:Work>
  </rdf:RDF>
 </metadata>
 <defs>
  <style type="text/css">*{stroke-linecap:butt;stroke-linejoin:round;}</style>
 </defs>
 <g id="figure_1">
  <g id="patch_1">
   <path d="M 0 280.8 
L 504.8 280.8 
L 504.8 0 
L 0 0 
z
" style="fill:none;"/>
  </g>
  <g id="axes_1">
   <g id="patch_2">
    <path d="M 53.328125 260.421875 
L 497.6 260.421875 
L 497.6 22.318125 
L 53.328125 22.318125 
z
" style="fill:#ffffff;"/>
   </g>
   <g id="PolyCollection_1">
    <path clip-path="url(#pf5f29eb86d)" d="M 168.182502 22.318125 
L 105.075701 22.318125 
L 105.075701 69.938875 
L 168.182502 69.938875 
L 168.182502 69.938875 
L 168.182502 22.318125 
z
" style="fill:#1f77b4;fill-opacity:0.5;"/>
   </g>
   <g id="PolyCollection_2">
    <path clip-path="url(#pf5f29eb86d)" d="M 307.017463 22.318125 
L 243.910662 22.318125 
L 243.910662 69.938875 
L 307.017463 69.938875 
L 307.017463 69.938875 
L 307.017463 22.318125 
z
" style="fill:#ff7f0e;fill-opacity:0.5;"/>
   </g>
   <g id="PolyCollection_3">
    <path clip-path="url(#pf5f29eb86d)" d="M 445.852424 22.318125 
L 382.745623 22.318125 
L 382.745623 69.938875 
L 445.852424 69.938875 
L 445.852424 69.938875 
L 445.852424 22.318125 
z
" style="fill:#2ca02c;fill-opacity:0.5;"/>
   </g>
   <g id="PolyCollection_4">
    <path clip-path="url(#pf5f29eb86d)" d="M 199.735902 69.938875 
L 73.522301 69.938875 
L 73.522301 260.421875 
L 199.735902 260.421875 
L 199.735902 260.421875 
L 199.735902 69.938875 
z
" style="fill:#d62728;fill-opacity:0.5;"/>
   </g>
   <g id="PolyCollection_5">
    <path clip-path="url(#pf5f29eb86d)" d="M 338.570863 69.938875 
L 212.357262 69.938875 
L 212.357262 260.421875 
L 338.570863 260.421875 
L 338.570863 260.421875 
L 338.570863 69.938875 
z
" style="fill:#9467bd;fill-opacity:0.5;"/>
   </g>
   <g id="PolyCollection_6">
    <path clip-path="url(#pf5f29eb86d)" d="M 477.405824 69.938875 
L 351.192223 69.938875 
L 351.192223 260.421875 
L 477.405824 260.421875 
L 477.405824 260.421875 
L 477.405824 69.938875 
z
" style="fill:#8c564b;fill-opacity:0.5;"/>
   </g>
   <g id="patch_3">
    <path clip-path="url(#pf5f29eb86d)" d="M 105.075701 22.318125 
L 105.075701 69.938875 
M 168.182502 22.318125 
L 168.182502 69.938875 
" style="fill:none;stroke:#ffffff;stroke-linejoin:miter;stroke-width:3;"/>
    <path clip-path="url(#pf5f29eb86d)" d="M 105.075701 22.318125 
L 105.075701 69.938875 
M 168.182502 22.318125 
L 168.182502 69.938875 
" style="fill:none;stroke:#1f77b4;stroke-linejoin:miter;"/>
    <g id="patch_4">
     <path clip-path="url(#pf5f29eb86d)" d="M 243.910662 22.318125 
L 243.910662 69.938875 
M 307.017463 22.318125 
L 307.017463 69.938875 
" style="fill:none;stroke:#ffffff;stroke-linejoin:miter;stroke-width:3;"/>
     <path clip-path="url(#pf5f29eb86d)" d="M 243.910662 22.318125 
L 243.910662 69.938875 
M 307.017463 22.318125 
L 307.017463 69.938875 
" style="fill:none;stroke:#ff7f0e;stroke-linejoin:miter;"/>
     <g id="patch_5">
      <path clip-path="url(#pf5f29eb86d)" d="M 382.745623 22.318125 
L 382.745623 69.938875 
M 445.852424 22.318125 
L 445.852424 69.938875 
" style="fill:none;stroke:#ffffff;stroke-linejoin:miter;stroke-width:3;"/>
      <path clip-path="url(#pf5f29eb86d)" d="M 382.745623 22.318125 
L 382.745623 69.938875 
M 445.852424 22.318125 
L 445.852424 69.938875 
" style="fill:none;stroke:#2ca02c;stroke-linejoin:miter;"/>
      <g id="patch_6">
       <path clip-path="url(#pf5f29eb86d)" d="M 73.522301 69.938875 
L 73.522301 260.421875 
M 199.735902 69.938875 
L 199.735902 260.421875 
" style="fill:none;stroke:#ffffff;stroke-linejoin:miter;stroke-width:3;"/>
       <path clip-path="url(#pf5f29eb86d)" d="M 73.522301 69.938875 
L 73.522301 260.421875 
M 199.735902 69.938875 
L 199.735902 260.421875 
" style="fill:none;stroke:#d62728;stroke-linejoin:miter;"/>
       <g id="patch_7">
        <path clip-path="url(#pf5f29eb86d)" d="M 212.357262 69.938875 
L 212.357262 260.421875 
M 338.570863 69.938875 
L 338.570863 260.421875 
" style="fill:none;stroke:#ffffff;stroke-linejoin:miter;stroke-width:3;"/>
        <path clip-path="url(#pf5f29eb86d)" d="M 212.357262 69.938875 
L 212.357262 260.421875 
M 338.570863 69.938875 
L 338.570863 260.421875 
" style="fill:none;stroke:#9467bd;stroke-linejoin:miter;"/>
        <g id="patch_8">
         <path clip-path="url(#pf5f29eb86d)" d="M 351.192223 69.938875 
L 351.192223 260.421875 
M 477.405824 69.938875 
L 477.405824 260.421875 
" style="fill:none;stroke:#ffffff;stroke-linejoin:miter;stroke-width:3;"/>
         <path clip-path="url(#pf5f29eb86d)" d="M 351.192223 69.938875 
L 351.192223 260.421875 
M 477.405824 69.938875 
L 477.405824 260.421875 
" style="fill:none;stroke:#8c564b;stroke-linejoin:miter;"/>
         <g id="matplotlib.axis_1">
          <g id="xtick_1">
           <g id="line2d_1"/>
           <g id="text_1">
            <!-- X -->
            <g transform="translate(133.204102 271.520312)scale(0.1 -0.1)">
             <defs>
              <path d="M 6.296875 72.90625 
L 16.890625 72.90625 
L 35.015625 45.796875 
L 53.21875 72.90625 
L 63.8125 72.90625 
L 40.375 37.890625 
L 65.375 0 
L 54.78125 0 
L 34.28125 31 
L 13.625 0 
L 2.984375 0 
L 29 38.921875 
z
" id="DejaVuSans-88"/>
             </defs>
             <use xlink:href="#DejaVuSans-88"/>
            </g>
           </g>
          </g>
          <g id="xtick_2">
           <g id="line2d_2"/>
           <g id="text_2">
            <!-- Y -->
            <g transform="translate(272.410156 271.520312)scale(0.1 -0.1)">
             <defs>
              <path d="M -0.203125 72.90625 
L 10.40625 72.90625 
L 30.609375 42.921875 
L 50.6875 72.90625 
L 61.28125 72.90625 
L 35.5 34.71875 
L 35.5 0 
L 25.59375 0 
L 25.59375 34.71875 
z
" id="DejaVuSans-89"/>
             </defs>
             <use xlink:href="#DejaVuSans-89"/>
            </g>
           </g>
          </g>
          <g id="xtick_3">
           <g id="line2d_3"/>
           <g id="text_3">
            <!-- Z -->
            <g transform="translate(410.874023 271.520312)scale(0.1 -0.1)">
             <defs>
              <path d="M 5.609375 72.90625 
L 62.890625 72.90625 
L 62.890625 65.375 
L 16.796875 8.296875 
L 64.015625 8.296875 
L 64.015625 0 
L 4.5 0 
L 4.5 7.515625 
L 50.59375 64.59375 
L 5.609375 64.59375 
z
" id="DejaVuSans-90"/>
             </defs>
             <use xlink:href="#DejaVuSans-90"/>
            </g>
           </g>
          </g>
         </g>
         <g id="matplotlib.axis_2">
          <g id="ytick_1">
           <g id="line2d_4">
            <defs>
             <path d="M 0 0 
L -3.5 0 
" id="m2ca4f50c90" style="stroke:#000000;stroke-width:0.8;"/>
            </defs>
            <g>
             <use style="stroke:#000000;stroke-width:0.8;" x="53.328125" xlink:href="#m2ca4f50c90" y="260.421875"/>
            </g>
           </g>
           <g id="text_4">
            <!-- 0 -->
            <g transform="translate(39.965625 264.221094)scale(0.1 -0.1)">
             <defs>
              <path d="M 31.78125 66.40625 
Q 24.171875 66.40625 20.328125 58.90625 
Q 16.5 51.421875 16.5 36.375 
Q 16.5 21.390625 20.328125 13.890625 
Q 24.171875 6.390625 31.78125 6.390625 
Q 39.453125 6.390625 43.28125 13.890625 
Q 47.125 21.390625 47.125 36.375 
Q 47.125 51.421875 43.28125 58.90625 
Q 39.453125 66.40625 31.78125 66.40625 
z
M 31.78125 74.21875 
Q 44.046875 74.21875 50.515625 64.515625 
Q 56.984375 54.828125 56.984375 36.375 
Q 56.984375 17.96875 50.515625 8.265625 
Q 44.046875 -1.421875 31.78125 -1.421875 
Q 19.53125 -1.421875 13.0625 8.265625 
Q 6.59375 17.96875 6.59375 36.375 
Q 6.59375 54.828125 13.0625 64.515625 
Q 19.53125 74.21875 31.78125 74.21875 
z
" id="DejaVuSans-48"/>
             </defs>
             <use xlink:href="#DejaVuSans-48"/>
            </g>
           </g>
          </g>
          <g id="ytick_2">
           <g id="line2d_5">
            <g>
             <use style="stroke:#000000;stroke-width:0.8;" x="53.328125" xlink:href="#m2ca4f50c90" y="222.325275"/>
            </g>
           </g>
           <g id="text_5">
            <!-- 200 -->
            <g transform="translate(27.240625 226.124494)scale(0.1 -0.1)">
             <defs>
              <path d="M 19.1875 8.296875 
L 53.609375 8.296875 
L 53.609375 0 
L 7.328125 0 
L 7.328125 8.296875 
Q 12.9375 14.109375 22.625 23.890625 
Q 32.328125 33.6875 34.8125 36.53125 
Q 39.546875 41.84375 41.421875 45.53125 
Q 43.3125 49.21875 43.3125 52.78125 
Q 43.3125 58.59375 39.234375 62.25 
Q 35.15625 65.921875 28.609375 65.921875 
Q 23.96875 65.921875 18.8125 64.3125 
Q 13.671875 62.703125 7.8125 59.421875 
L 7.8125 69.390625 
Q 13.765625 71.78125 18.9375 73 
Q 24.125 74.21875 28.421875 74.21875 
Q 39.75 74.21875 46.484375 68.546875 
Q 53.21875 62.890625 53.21875 53.421875 
Q 53.21875 48.921875 51.53125 44.890625 
Q 49.859375 40.875 45.40625 35.40625 
Q 44.1875 33.984375 37.640625 27.21875 
Q 31.109375 20.453125 19.1875 8.296875 
z
" id="DejaVuSans-50"/>
             </defs>
             <use xlink:href="#DejaVuSans-50"/>
             <use x="63.623047" xlink:href="#DejaVuSans-48"/>
             <use x="127.246094" xlink:href="#DejaVuSans-48"/>
            </g>
           </g>
          </g>
          <g id="ytick_3">
           <g id="line2d_6">
            <g>
             <use style="stroke:#000000;stroke-width:0.8;" x="53.328125" xlink:href="#m2ca4f50c90" y="184.228675"/>
            </g>
           </g>
           <g id="text_6">
            <!-- 400 -->
            <g transform="translate(27.240625 188.027894)scale(0.1 -0.1)">
             <defs>
              <path d="M 37.796875 64.3125 
L 12.890625 25.390625 
L 37.796875 25.390625 
z
M 35.203125 72.90625 
L 47.609375 72.90625 
L 47.609375 25.390625 
L 58.015625 25.390625 
L 58.015625 17.1875 
L 47.609375 17.1875 
L 47.609375 0 
L 37.796875 0 
L 37.796875 17.1875 
L 4.890625 17.1875 
L 4.890625 26.703125 
z
" id="DejaVuSans-52"/>
             </defs>
             <use xlink:href="#DejaVuSans-52"/>
             <use x="63.623047" xlink:href="#DejaVuSans-48"/>
             <use x="127.246094" xlink:href="#DejaVuSans-48"/>
            </g>
           </g>
          </g>
          <g id="ytick_4">
           <g id="line2d_7">
            <g>
             <use style="stroke:#000000;stroke-width:0.8;" x="53.328125" xlink:href="#m2ca4f50c90" y="146.132075"/>
            </g>
           </g>
           <g id="text_7">
            <!-- 600 -->
            <g transform="translate(27.240625 149.931294)scale(0.1 -0.1)">
             <defs>
              <path d="M 33.015625 40.375 
Q 26.375 40.375 22.484375 35.828125 
Q 18.609375 31.296875 18.609375 23.390625 
Q 18.609375 15.53125 22.484375 10.953125 
Q 26.375 6.390625 33.015625 6.390625 
Q 39.65625 6.390625 43.53125 10.953125 
Q 47.40625 15.53125 47.40625 23.390625 
Q 47.40625 31.296875 43.53125 35.828125 
Q 39.65625 40.375 33.015625 40.375 
z
M 52.59375 71.296875 
L 52.59375 62.3125 
Q 48.875 64.0625 45.09375 64.984375 
Q 41.3125 65.921875 37.59375 65.921875 
Q 27.828125 65.921875 22.671875 59.328125 
Q 17.53125 52.734375 16.796875 39.40625 
Q 19.671875 43.65625 24.015625 45.921875 
Q 28.375 48.1875 33.59375 48.1875 
Q 44.578125 48.1875 50.953125 41.515625 
Q 57.328125 34.859375 57.328125 23.390625 
Q 57.328125 12.15625 50.6875 5.359375 
Q 44.046875 -1.421875 33.015625 -1.421875 
Q 20.359375 -1.421875 13.671875 8.265625 
Q 6.984375 17.96875 6.984375 36.375 
Q 6.984375 53.65625 15.1875 63.9375 
Q 23.390625 74.21875 37.203125 74.21875 
Q 40.921875 74.21875 44.703125 73.484375 
Q 48.484375 72.75 52.59375 71.296875 
z
" id="DejaVuSans-54"/>
             </defs>
             <use xlink:href="#DejaVuSans-54"/>
             <use x="63.623047" xlink:href="#DejaVuSans-48"/>
             <use x="127.246094" xlink:href="#DejaVuSans-48"/>
            </g>
           </g>
          </g>
          <g id="ytick_5">
           <g id="line2d_8">
            <g>
             <use style="stroke:#000000;stroke-width:0.8;" x="53.328125" xlink:href="#m2ca4f50c90" y="108.035475"/>
            </g>
           </g>
           <g id="text_8">
            <!-- 800 -->
            <g transform="translate(27.240625 111.834694)scale(0.1 -0.1)">
             <defs>
              <path d="M 31.78125 34.625 
Q 24.75 34.625 20.71875 30.859375 
Q 16.703125 27.09375 16.703125 20.515625 
Q 16.703125 13.921875 20.71875 10.15625 
Q 24.75 6.390625 31.78125 6.390625 
Q 38.8125 6.390625 42.859375 10.171875 
Q 46.921875 13.96875 46.921875 20.515625 
Q 46.921875 27.09375 42.890625 30.859375 
Q 38.875 34.625 31.78125 34.625 
z
M 21.921875 38.8125 
Q 15.578125 40.375 12.03125 44.71875 
Q 8.5 49.078125 8.5 55.328125 
Q 8.5 64.0625 14.71875 69.140625 
Q 20.953125 74.21875 31.78125 74.21875 
Q 42.671875 74.21875 48.875 69.140625 
Q 55.078125 64.0625 55.078125 55.328125 
Q 55.078125 49.078125 51.53125 44.71875 
Q 48 40.375 41.703125 38.8125 
Q 48.828125 37.15625 52.796875 32.3125 
Q 56.78125 27.484375 56.78125 20.515625 
Q 56.78125 9.90625 50.3125 4.234375 
Q 43.84375 -1.421875 31.78125 -1.421875 
Q 19.734375 -1.421875 13.25 4.234375 
Q 6.78125 9.90625 6.78125 20.515625 
Q 6.78125 27.484375 10.78125 32.3125 
Q 14.796875 37.15625 21.921875 38.8125 
z
M 18.3125 54.390625 
Q 18.3125 48.734375 21.84375 45.5625 
Q 25.390625 42.390625 31.78125 42.390625 
Q 38.140625 42.390625 41.71875 45.5625 
Q 45.3125 48.734375 45.3125 54.390625 
Q 45.3125 60.0625 41.71875 63.234375 
Q 38.140625 66.40625 31.78125 66.40625 
Q 25.390625 66.40625 21.84375 63.234375 
Q 18.3125 60.0625 18.3125 54.390625 
z
" id="DejaVuSans-56"/>
             </defs>
             <use xlink:href="#DejaVuSans-56"/>
             <use x="63.623047" xlink:href="#DejaVuSans-48"/>
             <use x="127.246094" xlink:href="#DejaVuSans-48"/>
            </g>
           </g>
          </g>
          <g id="ytick_6">
           <g id="line2d_9">
            <g>
             <use style="stroke:#000000;stroke-width:0.8;" x="53.328125" xlink:href="#m2ca4f50c90" y="69.938875"/>
            </g>
           </g>
           <g id="text_9">
            <!-- 1000 -->
            <g transform="translate(20.878125 73.738094)scale(0.1 -0.1)">
             <defs>
              <path d="M 12.40625 8.296875 
L 28.515625 8.296875 
L 28.515625 63.921875 
L 10.984375 60.40625 
L 10.984375 69.390625 
L 28.421875 72.90625 
L 38.28125 72.90625 
L 38.28125 8.296875 
L 54.390625 8.296875 
L 54.390625 0 
L 12.40625 0 
z
" id="DejaVuSans-49"/>
             </defs>
             <use xlink:href="#DejaVuSans-49"/>
             <use x="63.623047" xlink:href="#DejaVuSans-48"/>
             <use x="127.246094" xlink:href="#DejaVuSans-48"/>
             <use x="190.869141" xlink:href="#DejaVuSans-48"/>
            </g>
           </g>
          </g>
          <g id="ytick_7">
           <g id="line2d_10">
            <g>
             <use style="stroke:#000000;stroke-width:0.8;" x="53.328125" xlink:href="#m2ca4f50c90" y="31.842275"/>
            </g>
           </g>
           <g id="text_10">
            <!-- 1200 -->
            <g transform="translate(20.878125 35.641494)scale(0.1 -0.1)">
             <use xlink:href="#DejaVuSans-49"/>
             <use x="63.623047" xlink:href="#DejaVuSans-50"/>
             <use x="127.246094" xlink:href="#DejaVuSans-48"/>
             <use x="190.869141" xlink:href="#DejaVuSans-48"/>
            </g>
           </g>
          </g>
          <g id="text_11">
           <!-- time ago (generations) -->
           <g transform="translate(14.798438 198.841094)rotate(-90)scale(0.1 -0.1)">
            <defs>
             <path d="M 18.3125 70.21875 
L 18.3125 54.6875 
L 36.8125 54.6875 
L 36.8125 47.703125 
L 18.3125 47.703125 
L 18.3125 18.015625 
Q 18.3125 11.328125 20.140625 9.421875 
Q 21.96875 7.515625 27.59375 7.515625 
L 36.8125 7.515625 
L 36.8125 0 
L 27.59375 0 
Q 17.1875 0 13.234375 3.875 
Q 9.28125 7.765625 9.28125 18.015625 
L 9.28125 47.703125 
L 2.6875 47.703125 
L 2.6875 54.6875 
L 9.28125 54.6875 
L 9.28125 70.21875 
z
" id="DejaVuSans-116"/>
             <path d="M 9.421875 54.6875 
L 18.40625 54.6875 
L 18.40625 0 
L 9.421875 0 
z
M 9.421875 75.984375 
L 18.40625 75.984375 
L 18.40625 64.59375 
L 9.421875 64.59375 
z
" id="DejaVuSans-105"/>
             <path d="M 52 44.1875 
Q 55.375 50.25 60.0625 53.125 
Q 64.75 56 71.09375 56 
Q 79.640625 56 84.28125 50.015625 
Q 88.921875 44.046875 88.921875 33.015625 
L 88.921875 0 
L 79.890625 0 
L 79.890625 32.71875 
Q 79.890625 40.578125 77.09375 44.375 
Q 74.3125 48.1875 68.609375 48.1875 
Q 61.625 48.1875 57.5625 43.546875 
Q 53.515625 38.921875 53.515625 30.90625 
L 53.515625 0 
L 44.484375 0 
L 44.484375 32.71875 
Q 44.484375 40.625 41.703125 44.40625 
Q 38.921875 48.1875 33.109375 48.1875 
Q 26.21875 48.1875 22.15625 43.53125 
Q 18.109375 38.875 18.109375 30.90625 
L 18.109375 0 
L 9.078125 0 
L 9.078125 54.6875 
L 18.109375 54.6875 
L 18.109375 46.1875 
Q 21.1875 51.21875 25.484375 53.609375 
Q 29.78125 56 35.6875 56 
Q 41.65625 56 45.828125 52.96875 
Q 50 49.953125 52 44.1875 
z
" id="DejaVuSans-109"/>
             <path d="M 56.203125 29.59375 
L 56.203125 25.203125 
L 14.890625 25.203125 
Q 15.484375 15.921875 20.484375 11.0625 
Q 25.484375 6.203125 34.421875 6.203125 
Q 39.59375 6.203125 44.453125 7.46875 
Q 49.3125 8.734375 54.109375 11.28125 
L 54.109375 2.78125 
Q 49.265625 0.734375 44.1875 -0.34375 
Q 39.109375 -1.421875 33.890625 -1.421875 
Q 20.796875 -1.421875 13.15625 6.1875 
Q 5.515625 13.8125 5.515625 26.8125 
Q 5.515625 40.234375 12.765625 48.109375 
Q 20.015625 56 32.328125 56 
Q 43.359375 56 49.78125 48.890625 
Q 56.203125 41.796875 56.203125 29.59375 
z
M 47.21875 32.234375 
Q 47.125 39.59375 43.09375 43.984375 
Q 39.0625 48.390625 32.421875 48.390625 
Q 24.90625 48.390625 20.390625 44.140625 
Q 15.875 39.890625 15.1875 32.171875 
z
" id="DejaVuSans-101"/>
             <path id="DejaVuSans-32"/>
             <path d="M 34.28125 27.484375 
Q 23.390625 27.484375 19.1875 25 
Q 14.984375 22.515625 14.984375 16.5 
Q 14.984375 11.71875 18.140625 8.90625 
Q 21.296875 6.109375 26.703125 6.109375 
Q 34.1875 6.109375 38.703125 11.40625 
Q 43.21875 16.703125 43.21875 25.484375 
L 43.21875 27.484375 
z
M 52.203125 31.203125 
L 52.203125 0 
L 43.21875 0 
L 43.21875 8.296875 
Q 40.140625 3.328125 35.546875 0.953125 
Q 30.953125 -1.421875 24.3125 -1.421875 
Q 15.921875 -1.421875 10.953125 3.296875 
Q 6 8.015625 6 15.921875 
Q 6 25.140625 12.171875 29.828125 
Q 18.359375 34.515625 30.609375 34.515625 
L 43.21875 34.515625 
L 43.21875 35.40625 
Q 43.21875 41.609375 39.140625 45 
Q 35.0625 48.390625 27.6875 48.390625 
Q 23 48.390625 18.546875 47.265625 
Q 14.109375 46.140625 10.015625 43.890625 
L 10.015625 52.203125 
Q 14.9375 54.109375 19.578125 55.046875 
Q 24.21875 56 28.609375 56 
Q 40.484375 56 46.34375 49.84375 
Q 52.203125 43.703125 52.203125 31.203125 
z
" id="DejaVuSans-97"/>
             <path d="M 45.40625 27.984375 
Q 45.40625 37.75 41.375 43.109375 
Q 37.359375 48.484375 30.078125 48.484375 
Q 22.859375 48.484375 18.828125 43.109375 
Q 14.796875 37.75 14.796875 27.984375 
Q 14.796875 18.265625 18.828125 12.890625 
Q 22.859375 7.515625 30.078125 7.515625 
Q 37.359375 7.515625 41.375 12.890625 
Q 45.40625 18.265625 45.40625 27.984375 
z
M 54.390625 6.78125 
Q 54.390625 -7.171875 48.1875 -13.984375 
Q 42 -20.796875 29.203125 -20.796875 
Q 24.46875 -20.796875 20.265625 -20.09375 
Q 16.0625 -19.390625 12.109375 -17.921875 
L 12.109375 -9.1875 
Q 16.0625 -11.328125 19.921875 -12.34375 
Q 23.78125 -13.375 27.78125 -13.375 
Q 36.625 -13.375 41.015625 -8.765625 
Q 45.40625 -4.15625 45.40625 5.171875 
L 45.40625 9.625 
Q 42.625 4.78125 38.28125 2.390625 
Q 33.9375 0 27.875 0 
Q 17.828125 0 11.671875 7.65625 
Q 5.515625 15.328125 5.515625 27.984375 
Q 5.515625 40.671875 11.671875 48.328125 
Q 17.828125 56 27.875 56 
Q 33.9375 56 38.28125 53.609375 
Q 42.625 51.21875 45.40625 46.390625 
L 45.40625 54.6875 
L 54.390625 54.6875 
z
" id="DejaVuSans-103"/>
             <path d="M 30.609375 48.390625 
Q 23.390625 48.390625 19.1875 42.75 
Q 14.984375 37.109375 14.984375 27.296875 
Q 14.984375 17.484375 19.15625 11.84375 
Q 23.34375 6.203125 30.609375 6.203125 
Q 37.796875 6.203125 41.984375 11.859375 
Q 46.1875 17.53125 46.1875 27.296875 
Q 46.1875 37.015625 41.984375 42.703125 
Q 37.796875 48.390625 30.609375 48.390625 
z
M 30.609375 56 
Q 42.328125 56 49.015625 48.375 
Q 55.71875 40.765625 55.71875 27.296875 
Q 55.71875 13.875 49.015625 6.21875 
Q 42.328125 -1.421875 30.609375 -1.421875 
Q 18.84375 -1.421875 12.171875 6.21875 
Q 5.515625 13.875 5.515625 27.296875 
Q 5.515625 40.765625 12.171875 48.375 
Q 18.84375 56 30.609375 56 
z
" id="DejaVuSans-111"/>
             <path d="M 31 75.875 
Q 24.46875 64.65625 21.28125 53.65625 
Q 18.109375 42.671875 18.109375 31.390625 
Q 18.109375 20.125 21.3125 9.0625 
Q 24.515625 -2 31 -13.1875 
L 23.1875 -13.1875 
Q 15.875 -1.703125 12.234375 9.375 
Q 8.59375 20.453125 8.59375 31.390625 
Q 8.59375 42.28125 12.203125 53.3125 
Q 15.828125 64.359375 23.1875 75.875 
z
" id="DejaVuSans-40"/>
             <path d="M 54.890625 33.015625 
L 54.890625 0 
L 45.90625 0 
L 45.90625 32.71875 
Q 45.90625 40.484375 42.875 44.328125 
Q 39.84375 48.1875 33.796875 48.1875 
Q 26.515625 48.1875 22.3125 43.546875 
Q 18.109375 38.921875 18.109375 30.90625 
L 18.109375 0 
L 9.078125 0 
L 9.078125 54.6875 
L 18.109375 54.6875 
L 18.109375 46.1875 
Q 21.34375 51.125 25.703125 53.5625 
Q 30.078125 56 35.796875 56 
Q 45.21875 56 50.046875 50.171875 
Q 54.890625 44.34375 54.890625 33.015625 
z
" id="DejaVuSans-110"/>
             <path d="M 41.109375 46.296875 
Q 39.59375 47.171875 37.8125 47.578125 
Q 36.03125 48 33.890625 48 
Q 26.265625 48 22.1875 43.046875 
Q 18.109375 38.09375 18.109375 28.8125 
L 18.109375 0 
L 9.078125 0 
L 9.078125 54.6875 
L 18.109375 54.6875 
L 18.109375 46.1875 
Q 20.953125 51.171875 25.484375 53.578125 
Q 30.03125 56 36.53125 56 
Q 37.453125 56 38.578125 55.875 
Q 39.703125 55.765625 41.0625 55.515625 
z
" id="DejaVuSans-114"/>
             <path d="M 44.28125 53.078125 
L 44.28125 44.578125 
Q 40.484375 46.53125 36.375 47.5 
Q 32.28125 48.484375 27.875 48.484375 
Q 21.1875 48.484375 17.84375 46.4375 
Q 14.5 44.390625 14.5 40.28125 
Q 14.5 37.15625 16.890625 35.375 
Q 19.28125 33.59375 26.515625 31.984375 
L 29.59375 31.296875 
Q 39.15625 29.25 43.1875 25.515625 
Q 47.21875 21.78125 47.21875 15.09375 
Q 47.21875 7.46875 41.1875 3.015625 
Q 35.15625 -1.421875 24.609375 -1.421875 
Q 20.21875 -1.421875 15.453125 -0.5625 
Q 10.6875 0.296875 5.421875 2 
L 5.421875 11.28125 
Q 10.40625 8.6875 15.234375 7.390625 
Q 20.0625 6.109375 24.8125 6.109375 
Q 31.15625 6.109375 34.5625 8.28125 
Q 37.984375 10.453125 37.984375 14.40625 
Q 37.984375 18.0625 35.515625 20.015625 
Q 33.0625 21.96875 24.703125 23.78125 
L 21.578125 24.515625 
Q 13.234375 26.265625 9.515625 29.90625 
Q 5.8125 33.546875 5.8125 39.890625 
Q 5.8125 47.609375 11.28125 51.796875 
Q 16.75 56 26.8125 56 
Q 31.78125 56 36.171875 55.265625 
Q 40.578125 54.546875 44.28125 53.078125 
z
" id="DejaVuSans-115"/>
             <path d="M 8.015625 75.875 
L 15.828125 75.875 
Q 23.140625 64.359375 26.78125 53.3125 
Q 30.421875 42.28125 30.421875 31.390625 
Q 30.421875 20.453125 26.78125 9.375 
Q 23.140625 -1.703125 15.828125 -13.1875 
L 8.015625 -13.1875 
Q 14.5 -2 17.703125 9.0625 
Q 20.90625 20.125 20.90625 31.390625 
Q 20.90625 42.671875 17.703125 53.65625 
Q 14.5 64.65625 8.015625 75.875 
z
" id="DejaVuSans-41"/>
            </defs>
            <use xlink:href="#DejaVuSans-116"/>
            <use x="39.208984" xlink:href="#DejaVuSans-105"/>
            <use x="66.992188" xlink:href="#DejaVuSans-109"/>
            <use x="164.404297" xlink:href="#DejaVuSans-101"/>
            <use x="225.927734" xlink:href="#DejaVuSans-32"/>
            <use x="257.714844" xlink:href="#DejaVuSans-97"/>
            <use x="318.994141" xlink:href="#DejaVuSans-103"/>
            <use x="382.470703" xlink:href="#DejaVuSans-111"/>
            <use x="443.652344" xlink:href="#DejaVuSans-32"/>
            <use x="475.439453" xlink:href="#DejaVuSans-40"/>
            <use x="514.453125" xlink:href="#DejaVuSans-103"/>
            <use x="577.929688" xlink:href="#DejaVuSans-101"/>
            <use x="639.453125" xlink:href="#DejaVuSans-110"/>
            <use x="702.832031" xlink:href="#DejaVuSans-101"/>
            <use x="764.355469" xlink:href="#DejaVuSans-114"/>
            <use x="805.46875" xlink:href="#DejaVuSans-97"/>
            <use x="866.748047" xlink:href="#DejaVuSans-116"/>
            <use x="905.957031" xlink:href="#DejaVuSans-105"/>
            <use x="933.740234" xlink:href="#DejaVuSans-111"/>
            <use x="994.921875" xlink:href="#DejaVuSans-110"/>
            <use x="1058.300781" xlink:href="#DejaVuSans-115"/>
            <use x="1110.400391" xlink:href="#DejaVuSans-41"/>
           </g>
          </g>
         </g>
         <g id="patch_9">
          <path clip-path="url(#pf5f29eb86d)" d="M 197.733964 69.938875 
L 196.733964 69.907439 
L 195.733964 69.870498 
L 194.733964 69.772752 
L 193.733964 69.74023 
L 192.733964 69.666605 
L 191.733964 69.62804 
L 190.733964 69.592627 
L 189.733964 69.534987 
L 188.733964 69.464601 
L 187.733964 69.412636 
L 186.733964 69.353547 
L 185.733964 69.265226 
L 184.733964 69.219081 
L 183.733964 69.17667 
L 182.733964 69.146178 
L 181.733964 69.120133 
L 180.733964 69.098933 
L 179.733964 69.044632 
L 178.733964 69.016694 
L 177.733964 68.98697 
L 176.733964 68.961575 
L 175.733964 68.950375 
L 174.733964 68.940251 
L 173.733964 68.940455 
L 172.733964 68.949965 
L 171.733964 68.961619 
L 170.733964 68.992648 
L 169.733964 69.003816 
L 168.733964 69.033933 
L 167.733964 69.09371 
L 166.733964 69.130902 
L 165.733964 69.169998 
L 164.733964 69.212438 
L 163.733964 69.245203 
L 162.733964 69.312629 
L 161.733964 69.351755 
L 160.733964 69.39443 
L 159.733964 69.46501 
L 158.733964 69.501401 
L 157.733964 69.559804 
L 156.733964 69.670757 
L 155.733964 69.741415 
L 154.733964 69.854355 
L 153.733964 69.900128 
L 152.733964 69.961411 
L 151.733964 70.00991 
L 150.733964 70.090733 
L 149.733964 70.209252 
L 148.733964 70.279463 
L 147.733964 70.362725 
L 146.733964 70.395867 
L 145.733964 70.447104 
L 144.733964 70.515503 
L 143.733964 70.581718 
L 142.733964 70.658635 
L 141.733964 70.685951 
L 140.733964 70.712428 
L 139.733964 70.735079 
L 138.733964 70.75461 
L 137.733964 70.781004 
L 136.733964 70.830775 
L 135.733964 70.865848 
L 134.733964 70.901714 
L 133.733964 70.917081 
L 132.733964 70.93285 
L 131.733964 70.936263 
L 130.733964 70.93868 
L 129.733964 70.938194 
L 128.733964 70.936265 
L 127.733964 70.923008 
L 126.733964 70.914617 
L 125.733964 70.893081 
L 124.733964 70.870048 
L 123.733964 70.852815 
L 122.733964 70.834352 
L 121.733964 70.8139 
L 120.733964 70.7973 
L 119.733964 70.734521 
L 118.733964 70.659256 
L 117.733964 70.626617 
L 116.733964 70.559053 
L 115.733964 70.505006 
L 114.733964 70.471302 
L 113.733964 70.381176 
L 112.733964 70.352641 
L 111.733964 70.321155 
L 110.733964 70.290144 
L 109.733964 70.235336 
L 108.192923 70.170749 
" style="fill:none;stroke:#ffffff;stroke-linecap:round;stroke-width:3;"/>
          <path clip-path="url(#pf5f29eb86d)" d="M 197.733964 69.938875 
L 196.733964 69.907439 
L 195.733964 69.870498 
L 194.733964 69.772752 
L 193.733964 69.74023 
L 192.733964 69.666605 
L 191.733964 69.62804 
L 190.733964 69.592627 
L 189.733964 69.534987 
L 188.733964 69.464601 
L 187.733964 69.412636 
L 186.733964 69.353547 
L 185.733964 69.265226 
L 184.733964 69.219081 
L 183.733964 69.17667 
L 182.733964 69.146178 
L 181.733964 69.120133 
L 180.733964 69.098933 
L 179.733964 69.044632 
L 178.733964 69.016694 
L 177.733964 68.98697 
L 176.733964 68.961575 
L 175.733964 68.950375 
L 174.733964 68.940251 
L 173.733964 68.940455 
L 172.733964 68.949965 
L 171.733964 68.961619 
L 170.733964 68.992648 
L 169.733964 69.003816 
L 168.733964 69.033933 
L 167.733964 69.09371 
L 166.733964 69.130902 
L 165.733964 69.169998 
L 164.733964 69.212438 
L 163.733964 69.245203 
L 162.733964 69.312629 
L 161.733964 69.351755 
L 160.733964 69.39443 
L 159.733964 69.46501 
L 158.733964 69.501401 
L 157.733964 69.559804 
L 156.733964 69.670757 
L 155.733964 69.741415 
L 154.733964 69.854355 
L 153.733964 69.900128 
L 152.733964 69.961411 
L 151.733964 70.00991 
L 150.733964 70.090733 
L 149.733964 70.209252 
L 148.733964 70.279463 
L 147.733964 70.362725 
L 146.733964 70.395867 
L 145.733964 70.447104 
L 144.733964 70.515503 
L 143.733964 70.581718 
L 142.733964 70.658635 
L 141.733964 70.685951 
L 140.733964 70.712428 
L 139.733964 70.735079 
L 138.733964 70.75461 
L 137.733964 70.781004 
L 136.733964 70.830775 
L 135.733964 70.865848 
L 134.733964 70.901714 
L 133.733964 70.917081 
L 132.733964 70.93285 
L 131.733964 70.936263 
L 130.733964 70.93868 
L 129.733964 70.938194 
L 128.733964 70.936265 
L 127.733964 70.923008 
L 126.733964 70.914617 
L 125.733964 70.893081 
L 124.733964 70.870048 
L 123.733964 70.852815 
L 122.733964 70.834352 
L 121.733964 70.8139 
L 120.733964 70.7973 
L 119.733964 70.734521 
L 118.733964 70.659256 
L 117.733964 70.626617 
L 116.733964 70.559053 
L 115.733964 70.505006 
L 114.733964 70.471302 
L 113.733964 70.381176 
L 112.733964 70.352641 
L 111.733964 70.321155 
L 110.733964 70.290144 
L 109.733964 70.235336 
L 108.192923 70.170749 
" style="fill:none;stroke:#1f77b4;stroke-linecap:round;"/>
          <path clip-path="url(#pf5f29eb86d)" d="M 112.192923 71.938875 
L 111.312555 71.463544 
L 110.434648 70.98329 
L 109.583934 70.448649 
L 108.28176 69.761202 
L 109.209113 69.735187 
L 110.120787 69.322467 
L 111.031052 68.906928 
L 112.373548 68.300124 
L 111.718649 68.938875 
L 111.666685 69.938875 
L 111.607595 71.938875 
L 112.192923 71.938875 
z
" style="fill:#ffffff;stroke:#ffffff;stroke-linecap:round;stroke-width:3;"/>
          <path clip-path="url(#pf5f29eb86d)" d="M 112.192923 71.938875 
L 111.312555 71.463544 
L 110.434648 70.98329 
L 109.583934 70.448649 
L 108.28176 69.761202 
L 109.209113 69.735187 
L 110.120787 69.322467 
L 111.031052 68.906928 
L 112.373548 68.300124 
L 111.718649 68.938875 
L 111.666685 69.938875 
L 111.607595 71.938875 
L 112.192923 71.938875 
z
" style="fill:#ffffff;stroke:#1f77b4;stroke-linecap:round;"/>
          <g id="patch_10">
           <path clip-path="url(#pf5f29eb86d)" d="M 241.995388 69.374551 
L 241.038581 69.082133 
L 240.083216 68.784404 
L 239.143787 68.427994 
L 238.187264 68.134529 
L 237.241513 67.801398 
L 235.615633 67.319891 
L 234.631018 67.068314 
L 233.666316 66.798735 
L 232.704332 66.516703 
L 231.73842 66.25267 
L 230.774027 65.981674 
L 229.815869 65.68212 
L 228.848715 65.423773 
L 227.880766 65.169073 
L 226.910274 64.926017 
L 225.938834 64.687306 
L 224.966361 64.453329 
L 224.000947 64.187012 
L 222.833574 63.903594 
L 221.785889 63.71741 
L 220.8002 63.546931 
L 219.812449 63.390495 
L 218.82454 63.235125 
L 217.835131 63.089973 
L 216.844369 62.954027 
L 215.853296 62.820203 
L 214.859406 62.705548 
L 213.868403 62.571243 
L 212.874645 62.455687 
L 211.876577 62.369474 
L 210.881791 62.260917 
L 209.884962 62.153984 
L 208.830468 62.115344 
L 207.830825 62.073059 
L 206.828584 62.065338 
L 205.828465 62.029397 
L 204.828079 61.996994 
L 203.825602 61.992418 
L 202.825688 61.953749 
L 201.824123 61.93703 
L 200.81862 61.972713 
L 199.816137 61.968215 
L 198.810484 62.00588 
L 196.945968 61.911628 
L 195.942999 61.969755 
L 194.942856 62.015207 
L 193.942614 62.092982 
L 192.942258 62.208454 
L 191.942049 62.275617 
L 190.9418 62.355832 
L 189.941703 62.385926 
L 188.941552 62.434116 
L 187.941348 62.499467 
L 186.941151 62.562635 
L 185.940921 62.636505 
L 184.14421 62.658346 
L 183.202487 62.752255 
L 182.20646 62.844138 
L 181.210216 62.93291 
L 180.214448 63.028527 
L 179.2203 63.147466 
L 178.225133 63.251742 
L 177.230021 63.356808 
L 176.233489 63.441426 
L 175.236985 63.526444 
L 174.239625 63.599136 
L 173.242196 63.670835 
L 171.452712 63.794635 
L 170.534 63.926072 
L 169.542111 64.053864 
L 168.550907 64.186475 
L 167.557851 64.30607 
L 166.564584 64.424185 
L 165.572134 64.548041 
L 164.579511 64.67068 
L 163.586607 64.791348 
L 162.594247 64.915831 
L 161.595379 64.994597 
L 160.594751 65.061 
L 158.750935 65.290476 
L 157.807194 65.426608 
L 156.818266 65.584538 
L 155.833625 65.762354 
L 154.837093 65.885016 
L 153.853542 66.067885 
L 152.869368 66.24787 
L 151.885295 66.428319 
L 150.896207 66.585505 
L 149.905057 66.733132 
L 148.91947 66.906558 
L 147.921713 67.023542 
L 145.968351 67.39431 
L 144.994055 67.612573 
L 144.018335 67.835241 
L 143.024777 67.992039 
L 142.048664 68.213255 
L 141.067189 68.414672 
L 139.539699 68.755853 
" style="fill:none;stroke:#ffffff;stroke-linecap:round;stroke-width:3;"/>
           <path clip-path="url(#pf5f29eb86d)" d="M 241.995388 69.374551 
L 241.038581 69.082133 
L 240.083216 68.784404 
L 239.143787 68.427994 
L 238.187264 68.134529 
L 237.241513 67.801398 
L 235.615633 67.319891 
L 234.631018 67.068314 
L 233.666316 66.798735 
L 232.704332 66.516703 
L 231.73842 66.25267 
L 230.774027 65.981674 
L 229.815869 65.68212 
L 228.848715 65.423773 
L 227.880766 65.169073 
L 226.910274 64.926017 
L 225.938834 64.687306 
L 224.966361 64.453329 
L 224.000947 64.187012 
L 222.833574 63.903594 
L 221.785889 63.71741 
L 220.8002 63.546931 
L 219.812449 63.390495 
L 218.82454 63.235125 
L 217.835131 63.089973 
L 216.844369 62.954027 
L 215.853296 62.820203 
L 214.859406 62.705548 
L 213.868403 62.571243 
L 212.874645 62.455687 
L 211.876577 62.369474 
L 210.881791 62.260917 
L 209.884962 62.153984 
L 208.830468 62.115344 
L 207.830825 62.073059 
L 206.828584 62.065338 
L 205.828465 62.029397 
L 204.828079 61.996994 
L 203.825602 61.992418 
L 202.825688 61.953749 
L 201.824123 61.93703 
L 200.81862 61.972713 
L 199.816137 61.968215 
L 198.810484 62.00588 
L 196.945968 61.911628 
L 195.942999 61.969755 
L 194.942856 62.015207 
L 193.942614 62.092982 
L 192.942258 62.208454 
L 191.942049 62.275617 
L 190.9418 62.355832 
L 189.941703 62.385926 
L 188.941552 62.434116 
L 187.941348 62.499467 
L 186.941151 62.562635 
L 185.940921 62.636505 
L 184.14421 62.658346 
L 183.202487 62.752255 
L 182.20646 62.844138 
L 181.210216 62.93291 
L 180.214448 63.028527 
L 179.2203 63.147466 
L 178.225133 63.251742 
L 177.230021 63.356808 
L 176.233489 63.441426 
L 175.236985 63.526444 
L 174.239625 63.599136 
L 173.242196 63.670835 
L 171.452712 63.794635 
L 170.534 63.926072 
L 169.542111 64.053864 
L 168.550907 64.186475 
L 167.557851 64.30607 
L 166.564584 64.424185 
L 165.572134 64.548041 
L 164.579511 64.67068 
L 163.586607 64.791348 
L 162.594247 64.915831 
L 161.595379 64.994597 
L 160.594751 65.061 
L 158.750935 65.290476 
L 157.807194 65.426608 
L 156.818266 65.584538 
L 155.833625 65.762354 
L 154.837093 65.885016 
L 153.853542 66.067885 
L 152.869368 66.24787 
L 151.885295 66.428319 
L 150.896207 66.585505 
L 149.905057 66.733132 
L 148.91947 66.906558 
L 147.921713 67.023542 
L 145.968351 67.39431 
L 144.994055 67.612573 
L 144.018335 67.835241 
L 143.024777 67.992039 
L 142.048664 68.213255 
L 141.067189 68.414672 
L 139.539699 68.755853 
" style="fill:none;stroke:#ff7f0e;stroke-linecap:round;"/>
           <path clip-path="url(#pf5f29eb86d)" d="M 144.020989 69.872358 
L 143.04321 69.660376 
L 142.066428 69.442981 
L 141.100655 69.165784 
L 139.658741 68.867248 
L 140.542344 68.584572 
L 141.303432 67.934777 
L 142.062382 67.282666 
L 143.183393 66.326717 
L 142.731777 67.122291 
L 142.959731 68.097348 
L 143.18084 69.074386 
L 143.37387 70.059546 
L 144.020989 69.872358 
z
" style="fill:#ffffff;stroke:#ffffff;stroke-linecap:round;stroke-width:3;"/>
           <path clip-path="url(#pf5f29eb86d)" d="M 144.020989 69.872358 
L 143.04321 69.660376 
L 142.066428 69.442981 
L 141.100655 69.165784 
L 139.658741 68.867248 
L 140.542344 68.584572 
L 141.303432 67.934777 
L 142.062382 67.282666 
L 143.183393 66.326717 
L 142.731777 67.122291 
L 142.959731 68.097348 
L 143.18084 69.074386 
L 143.37387 70.059546 
L 144.020989 69.872358 
z
" style="fill:#ffffff;stroke:#ff7f0e;stroke-linecap:round;"/>
           <g id="patch_11">
            <path clip-path="url(#pf5f29eb86d)" d="M 380.825245 70.511411 
L 379.855394 70.757128 
L 378.884024 70.997556 
L 377.895876 71.179538 
L 376.925726 71.424213 
L 375.944234 71.62938 
L 374.972415 71.868246 
L 374.001467 72.110141 
L 373.024386 72.330673 
L 371.152139 72.794927 
L 370.18289 72.992584 
L 369.200105 73.186553 
L 368.209977 73.352229 
L 367.230443 73.558729 
L 366.251847 73.768843 
L 365.276244 73.990493 
L 364.301758 74.216448 
L 363.328489 74.447092 
L 362.346906 74.645697 
L 361.371945 74.86982 
L 360.396535 75.092214 
L 359.422213 75.318799 
L 358.451455 75.559123 
L 357.480968 75.800488 
L 356.513075 76.051851 
L 355.54752 76.312222 
L 354.582502 76.574667 
L 353.622352 76.855867 
L 351.969958 77.296173 
L 351.032038 77.535285 
L 350.068933 77.810971 
L 349.10092 78.064611 
L 348.133321 78.320111 
L 347.166448 78.578874 
L 346.197472 78.828193 
L 345.23603 79.111346 
L 344.268437 79.366874 
L 343.301616 79.625866 
L 342.340859 79.912098 
L 341.372672 80.164957 
L 340.409269 80.439301 
L 339.457286 80.76494 
L 338.496547 81.051247 
L 337.544996 81.378825 
L 336.578848 81.640841 
L 335.616071 81.917997 
L 334.650515 82.182675 
L 333.167997 82.595575 
L 332.201212 82.895852 
L 331.230865 83.147559 
L 330.262902 83.412099 
L 329.285784 83.627361 
L 328.311971 83.860415 
L 327.341293 84.11034 
L 326.370216 84.35812 
L 325.401095 84.616421 
L 324.422912 84.825955 
L 323.444576 85.034665 
L 322.465541 85.239613 
L 321.485936 85.441493 
L 320.507585 85.650121 
L 319.533504 85.881733 
L 318.556739 86.098894 
L 317.580118 86.316834 
L 316.599752 86.514621 
L 315.61946 86.712803 
L 314.255748 86.969659 
L 313.231718 87.125248 
L 312.242554 87.272059 
L 311.253177 87.417444 
L 310.262131 87.551624 
L 309.271802 87.690618 
L 308.279537 87.816609 
L 307.287052 87.941121 
L 306.29542 88.071368 
L 305.303608 88.2004 
L 304.311503 88.327463 
L 303.319965 88.458337 
L 302.321625 88.543536 
L 301.321446 88.616384 
L 300.327545 88.731394 
L 299.328501 88.81186 
L 298.331447 88.905695 
L 297.33739 89.019651 
L 296.335022 89.077801 
L 295.081421 89.235634 
L 294.069238 89.317587 
L 293.072 89.39807 
L 292.072113 89.454903 
L 291.071137 89.502018 
L 290.0731 89.575361 
L 289.068635 89.591324 
L 288.069366 89.653673 
L 287.070674 89.721178 
L 286.072422 89.792605 
L 285.066574 89.796212 
L 284.068154 89.866144 
L 283.067451 89.915689 
L 282.065877 89.957463 
L 281.060459 89.964908 
L 280.062555 90.039452 
L 279.063662 90.10516 
L 278.062252 90.148393 
L 277.06304 90.21125 
L 275.897869 90.263663 
L 274.923915 90.305656 
L 273.921517 90.31117 
L 272.922527 90.362098 
L 271.923189 90.40839 
L 270.922865 90.441548 
L 269.924055 90.494866 
L 268.925815 90.555791 
L 267.926619 90.603977 
L 266.928727 90.669527 
L 265.930599 90.731949 
L 264.932576 90.795759 
L 263.934956 90.864944 
L 262.937403 90.935028 
L 261.940622 91.015393 
L 260.944421 91.103478 
L 259.947787 91.185808 
L 258.952446 91.285357 
L 257.957014 91.383693 
L 256.872929 91.50133 
L 255.907359 91.563455 
L 254.908931 91.623792 
L 253.91227 91.730533 
L 252.915828 91.843046 
L 251.920126 91.974989 
L 250.922791 92.064035 
L 249.925565 92.155961 
L 248.927629 92.229218 
L 247.932388 92.373261 
L 246.935099 92.463519 
L 245.937226 92.53843 
L 244.939129 92.60747 
L 243.942179 92.706613 
L 242.945466 92.812015 
L 241.94805 92.898917 
L 240.951252 93.002094 
L 239.953428 93.078285 
L 238.955749 93.158282 
L 237.916379 93.239887 
L 236.91171 93.300537 
L 235.911828 93.414738 
L 234.911883 93.46803 
L 233.911925 93.508489 
L 232.911974 93.556632 
L 231.912034 93.614452 
L 230.912069 93.648157 
L 229.912107 93.685376 
L 228.912141 93.718508 
L 227.912177 93.753828 
L 226.912238 93.813247 
L 225.912286 93.859474 
L 224.912317 93.890139 
L 223.91237 93.941566 
L 222.912397 93.967805 
L 221.912419 93.989897 
L 220.912456 94.025906 
L 219.912482 94.051237 
L 218.892916 94.066365 
L 217.858281 94.048704 
L 216.858365 94.02837 
L 215.858561 94.004927 
L 214.858998 93.974773 
L 213.859398 93.945666 
L 212.85986 93.91485 
L 211.860572 93.877083 
L 210.861318 93.838373 
L 209.862367 93.791241 
L 208.86403 93.727038 
L 207.866254 93.647293 
L 206.867646 93.590631 
L 205.869768 93.513698 
L 204.871858 93.437664 
L 203.873194 93.38258 
L 202.874651 93.3241 
L 201.877697 93.221506 
L 200.880134 93.135843 
L 199.859931 93.025352 
L 198.843524 92.920059 
L 197.85177 92.770743 
L 196.857222 92.659649 
L 195.865286 92.512832 
L 194.875532 92.336153 
L 193.883283 92.19361 
L 192.893615 92.015759 
L 191.900286 91.887992 
L 190.911948 91.691948 
L 189.919752 91.548679 
L 188.930857 91.36025 
L 187.937176 91.237305 
L 186.942432 91.128898 
L 185.951756 90.964836 
L 184.958317 90.838573 
L 183.967386 90.678001 
L 182.97509 90.536102 
L 181.981159 90.416565 
L 180.935699 90.267914 
L 179.976254 90.11119 
L 178.984177 89.98436 
L 177.993153 89.847974 
L 177.0013 89.719119 
L 176.009436 89.590353 
L 175.019644 89.44279 
L 174.027462 89.31691 
L 173.034397 89.199047 
L 172.040889 89.08521 
L 171.047625 88.969149 
L 170.053364 88.862136 
L 169.058784 88.758016 
L 168.063003 88.664801 
L 167.065523 88.586999 
L 166.06738 88.515206 
L 165.069586 88.440256 
L 164.068695 88.393403 
L 163.072366 88.305156 
L 161.964047 88.233935 
L 160.997745 88.116275 
L 160.000318 88.025532 
L 159.006448 87.910645 
L 158.009821 87.814471 
L 157.015768 87.700835 
L 156.014728 87.634606 
L 155.015364 87.557013 
L 154.00918 87.525692 
L 153.00886 87.454582 
L 152.002702 87.423091 
L 151.001798 87.355944 
L 149.996672 87.317444 
L 149.001617 87.210609 
L 147.997304 87.166595 
L 146.993438 87.119545 
L 145.997489 87.018774 
L 145.003168 86.906948 
L 144.006277 86.812566 
L 142.822126 86.678149 
L 141.813855 86.528542 
L 140.818183 86.413591 
L 139.827695 86.270549 
L 138.835138 86.138719 
L 137.842795 86.005732 
L 136.850131 85.87448 
L 135.858707 85.736511 
L 134.871316 85.576692 
L 133.885097 85.410517 
L 132.893998 85.270785 
L 131.907904 85.103932 
L 130.920384 84.944809 
L 129.933301 84.783314 
L 128.948853 84.607541 
L 127.965007 84.428509 
L 126.982166 84.244029 
L 126.000874 84.051152 
L 125.020549 83.853039 
L 123.749722 83.586328 
L 122.743684 83.349424 
L 121.778803 83.081508 
L 120.813146 82.817091 
L 119.848704 82.547194 
L 118.882021 82.287405 
L 117.92089 82.00258 
L 116.955513 81.7369 
L 115.990899 81.467778 
L 115.029648 81.183493 
L 114.065788 80.910973 
L 113.100364 80.645505 
L 112.140785 80.35368 
L 111.177099 80.080377 
L 110.213942 79.804684 
L 109.245712 79.551872 
L 108.283519 79.271832 
L 107.329995 78.952702 
L 106.366766 78.677338 
L 104.991412 78.273689 
L 104.037865 77.993541 
L 103.082598 77.693427 
L 102.143823 77.329639 
L 101.184652 77.044599 
L 100.230605 76.739778 
L 99.270163 76.459647 
L 98.324265 76.123358 
L 97.367431 75.829297 
L 96.419653 75.500267 
L 95.466675 75.191316 
L 94.514435 74.87952 
L 93.55213 74.606578 
L 92.588126 74.340199 
L 91.627322 74.061468 
L 90.666873 73.78136 
L 89.701968 73.518461 
L 88.740148 73.243651 
L 87.775119 72.981227 
L 86.240161 72.579789 
L 85.302827 72.315078 
L 84.338215 72.051115 
L 83.373032 71.789144 
L 82.40739 71.52877 
L 81.436385 71.287089 
L 80.469678 71.030425 
L 79.492862 70.808995 
L 78.51312 70.597758 
L 76.717902 70.111085 
" style="fill:none;stroke:#ffffff;stroke-linecap:round;stroke-width:3;"/>
            <path clip-path="url(#pf5f29eb86d)" d="M 380.825245 70.511411 
L 379.855394 70.757128 
L 378.884024 70.997556 
L 377.895876 71.179538 
L 376.925726 71.424213 
L 375.944234 71.62938 
L 374.972415 71.868246 
L 374.001467 72.110141 
L 373.024386 72.330673 
L 371.152139 72.794927 
L 370.18289 72.992584 
L 369.200105 73.186553 
L 368.209977 73.352229 
L 367.230443 73.558729 
L 366.251847 73.768843 
L 365.276244 73.990493 
L 364.301758 74.216448 
L 363.328489 74.447092 
L 362.346906 74.645697 
L 361.371945 74.86982 
L 360.396535 75.092214 
L 359.422213 75.318799 
L 358.451455 75.559123 
L 357.480968 75.800488 
L 356.513075 76.051851 
L 355.54752 76.312222 
L 354.582502 76.574667 
L 353.622352 76.855867 
L 351.969958 77.296173 
L 351.032038 77.535285 
L 350.068933 77.810971 
L 349.10092 78.064611 
L 348.133321 78.320111 
L 347.166448 78.578874 
L 346.197472 78.828193 
L 345.23603 79.111346 
L 344.268437 79.366874 
L 343.301616 79.625866 
L 342.340859 79.912098 
L 341.372672 80.164957 
L 340.409269 80.439301 
L 339.457286 80.76494 
L 338.496547 81.051247 
L 337.544996 81.378825 
L 336.578848 81.640841 
L 335.616071 81.917997 
L 334.650515 82.182675 
L 333.167997 82.595575 
L 332.201212 82.895852 
L 331.230865 83.147559 
L 330.262902 83.412099 
L 329.285784 83.627361 
L 328.311971 83.860415 
L 327.341293 84.11034 
L 326.370216 84.35812 
L 325.401095 84.616421 
L 324.422912 84.825955 
L 323.444576 85.034665 
L 322.465541 85.239613 
L 321.485936 85.441493 
L 320.507585 85.650121 
L 319.533504 85.881733 
L 318.556739 86.098894 
L 317.580118 86.316834 
L 316.599752 86.514621 
L 315.61946 86.712803 
L 314.255748 86.969659 
L 313.231718 87.125248 
L 312.242554 87.272059 
L 311.253177 87.417444 
L 310.262131 87.551624 
L 309.271802 87.690618 
L 308.279537 87.816609 
L 307.287052 87.941121 
L 306.29542 88.071368 
L 305.303608 88.2004 
L 304.311503 88.327463 
L 303.319965 88.458337 
L 302.321625 88.543536 
L 301.321446 88.616384 
L 300.327545 88.731394 
L 299.328501 88.81186 
L 298.331447 88.905695 
L 297.33739 89.019651 
L 296.335022 89.077801 
L 295.081421 89.235634 
L 294.069238 89.317587 
L 293.072 89.39807 
L 292.072113 89.454903 
L 291.071137 89.502018 
L 290.0731 89.575361 
L 289.068635 89.591324 
L 288.069366 89.653673 
L 287.070674 89.721178 
L 286.072422 89.792605 
L 285.066574 89.796212 
L 284.068154 89.866144 
L 283.067451 89.915689 
L 282.065877 89.957463 
L 281.060459 89.964908 
L 280.062555 90.039452 
L 279.063662 90.10516 
L 278.062252 90.148393 
L 277.06304 90.21125 
L 275.897869 90.263663 
L 274.923915 90.305656 
L 273.921517 90.31117 
L 272.922527 90.362098 
L 271.923189 90.40839 
L 270.922865 90.441548 
L 269.924055 90.494866 
L 268.925815 90.555791 
L 267.926619 90.603977 
L 266.928727 90.669527 
L 265.930599 90.731949 
L 264.932576 90.795759 
L 263.934956 90.864944 
L 262.937403 90.935028 
L 261.940622 91.015393 
L 260.944421 91.103478 
L 259.947787 91.185808 
L 258.952446 91.285357 
L 257.957014 91.383693 
L 256.872929 91.50133 
L 255.907359 91.563455 
L 254.908931 91.623792 
L 253.91227 91.730533 
L 252.915828 91.843046 
L 251.920126 91.974989 
L 250.922791 92.064035 
L 249.925565 92.155961 
L 248.927629 92.229218 
L 247.932388 92.373261 
L 246.935099 92.463519 
L 245.937226 92.53843 
L 244.939129 92.60747 
L 243.942179 92.706613 
L 242.945466 92.812015 
L 241.94805 92.898917 
L 240.951252 93.002094 
L 239.953428 93.078285 
L 238.955749 93.158282 
L 237.916379 93.239887 
L 236.91171 93.300537 
L 235.911828 93.414738 
L 234.911883 93.46803 
L 233.911925 93.508489 
L 232.911974 93.556632 
L 231.912034 93.614452 
L 230.912069 93.648157 
L 229.912107 93.685376 
L 228.912141 93.718508 
L 227.912177 93.753828 
L 226.912238 93.813247 
L 225.912286 93.859474 
L 224.912317 93.890139 
L 223.91237 93.941566 
L 222.912397 93.967805 
L 221.912419 93.989897 
L 220.912456 94.025906 
L 219.912482 94.051237 
L 218.892916 94.066365 
L 217.858281 94.048704 
L 216.858365 94.02837 
L 215.858561 94.004927 
L 214.858998 93.974773 
L 213.859398 93.945666 
L 212.85986 93.91485 
L 211.860572 93.877083 
L 210.861318 93.838373 
L 209.862367 93.791241 
L 208.86403 93.727038 
L 207.866254 93.647293 
L 206.867646 93.590631 
L 205.869768 93.513698 
L 204.871858 93.437664 
L 203.873194 93.38258 
L 202.874651 93.3241 
L 201.877697 93.221506 
L 200.880134 93.135843 
L 199.859931 93.025352 
L 198.843524 92.920059 
L 197.85177 92.770743 
L 196.857222 92.659649 
L 195.865286 92.512832 
L 194.875532 92.336153 
L 193.883283 92.19361 
L 192.893615 92.015759 
L 191.900286 91.887992 
L 190.911948 91.691948 
L 189.919752 91.548679 
L 188.930857 91.36025 
L 187.937176 91.237305 
L 186.942432 91.128898 
L 185.951756 90.964836 
L 184.958317 90.838573 
L 183.967386 90.678001 
L 182.97509 90.536102 
L 181.981159 90.416565 
L 180.935699 90.267914 
L 179.976254 90.11119 
L 178.984177 89.98436 
L 177.993153 89.847974 
L 177.0013 89.719119 
L 176.009436 89.590353 
L 175.019644 89.44279 
L 174.027462 89.31691 
L 173.034397 89.199047 
L 172.040889 89.08521 
L 171.047625 88.969149 
L 170.053364 88.862136 
L 169.058784 88.758016 
L 168.063003 88.664801 
L 167.065523 88.586999 
L 166.06738 88.515206 
L 165.069586 88.440256 
L 164.068695 88.393403 
L 163.072366 88.305156 
L 161.964047 88.233935 
L 160.997745 88.116275 
L 160.000318 88.025532 
L 159.006448 87.910645 
L 158.009821 87.814471 
L 157.015768 87.700835 
L 156.014728 87.634606 
L 155.015364 87.557013 
L 154.00918 87.525692 
L 153.00886 87.454582 
L 152.002702 87.423091 
L 151.001798 87.355944 
L 149.996672 87.317444 
L 149.001617 87.210609 
L 147.997304 87.166595 
L 146.993438 87.119545 
L 145.997489 87.018774 
L 145.003168 86.906948 
L 144.006277 86.812566 
L 142.822126 86.678149 
L 141.813855 86.528542 
L 140.818183 86.413591 
L 139.827695 86.270549 
L 138.835138 86.138719 
L 137.842795 86.005732 
L 136.850131 85.87448 
L 135.858707 85.736511 
L 134.871316 85.576692 
L 133.885097 85.410517 
L 132.893998 85.270785 
L 131.907904 85.103932 
L 130.920384 84.944809 
L 129.933301 84.783314 
L 128.948853 84.607541 
L 127.965007 84.428509 
L 126.982166 84.244029 
L 126.000874 84.051152 
L 125.020549 83.853039 
L 123.749722 83.586328 
L 122.743684 83.349424 
L 121.778803 83.081508 
L 120.813146 82.817091 
L 119.848704 82.547194 
L 118.882021 82.287405 
L 117.92089 82.00258 
L 116.955513 81.7369 
L 115.990899 81.467778 
L 115.029648 81.183493 
L 114.065788 80.910973 
L 113.100364 80.645505 
L 112.140785 80.35368 
L 111.177099 80.080377 
L 110.213942 79.804684 
L 109.245712 79.551872 
L 108.283519 79.271832 
L 107.329995 78.952702 
L 106.366766 78.677338 
L 104.991412 78.273689 
L 104.037865 77.993541 
L 103.082598 77.693427 
L 102.143823 77.329639 
L 101.184652 77.044599 
L 100.230605 76.739778 
L 99.270163 76.459647 
L 98.324265 76.123358 
L 97.367431 75.829297 
L 96.419653 75.500267 
L 95.466675 75.191316 
L 94.514435 74.87952 
L 93.55213 74.606578 
L 92.588126 74.340199 
L 91.627322 74.061468 
L 90.666873 73.78136 
L 89.701968 73.518461 
L 88.740148 73.243651 
L 87.775119 72.981227 
L 86.240161 72.579789 
L 85.302827 72.315078 
L 84.338215 72.051115 
L 83.373032 71.789144 
L 82.40739 71.52877 
L 81.436385 71.287089 
L 80.469678 71.030425 
L 79.492862 70.808995 
L 78.51312 70.597758 
L 76.717902 70.111085 
" style="fill:none;stroke:#2ca02c;stroke-linecap:round;"/>
            <path clip-path="url(#pf5f29eb86d)" d="M 79.77917 73.882156 
L 79.070099 73.176318 
L 78.364787 72.46646 
L 77.700997 71.71218 
L 76.647754 70.683141 
L 77.544293 70.921634 
L 78.535651 70.784899 
L 79.526458 70.645061 
L 80.986024 70.444621 
L 80.176653 70.871019 
L 79.842757 71.81506 
L 79.217956 73.71588 
L 79.77917 73.882156 
z
" style="fill:#ffffff;stroke:#ffffff;stroke-linecap:round;stroke-width:3;"/>
            <path clip-path="url(#pf5f29eb86d)" d="M 79.77917 73.882156 
L 79.070099 73.176318 
L 78.364787 72.46646 
L 77.700997 71.71218 
L 76.647754 70.683141 
L 77.544293 70.921634 
L 78.535651 70.784899 
L 79.526458 70.645061 
L 80.986024 70.444621 
L 80.176653 70.871019 
L 79.842757 71.81506 
L 79.217956 73.71588 
L 79.77917 73.882156 
z
" style="fill:#ffffff;stroke:#2ca02c;stroke-linecap:round;"/>
            <g id="patch_12">
             <path clip-path="url(#pf5f29eb86d)" d="M 169.916167 70.938251 
L 170.788896 71.427467 
L 172.425059 72.319841 
L 173.314015 72.799954 
L 174.223217 73.217577 
L 175.116485 73.673089 
L 176.023345 74.096284 
L 177.38032 74.705344 
L 178.364605 75.049885 
L 179.306531 75.393 
L 180.253533 75.718405 
L 181.198571 76.050661 
L 182.356346 76.474281 
L 183.423303 76.687644 
L 184.405779 76.878797 
L 185.390033 77.058166 
L 186.374951 77.233137 
L 187.413357 77.411279 
L 188.526432 77.488507 
L 189.525959 77.530049 
L 190.525462 77.573376 
L 192.491605 77.625527 
L 193.62012 77.504718 
L 194.61361 77.390344 
L 195.605814 77.265723 
L 197.563577 77.010648 
L 198.658229 76.716633 
L 199.616614 76.429472 
L 200.580106 76.161504 
L 201.538726 75.875224 
L 202.562953 75.540792 
L 203.576922 75.093729 
L 204.487831 74.679274 
L 205.397476 74.261724 
L 206.31078 73.853129 
L 207.456967 73.311929 
L 208.378007 72.794796 
L 209.895773 71.962564 
" style="fill:none;stroke:#ffffff;stroke-linecap:round;stroke-width:3;"/>
             <path clip-path="url(#pf5f29eb86d)" d="M 169.916167 70.938251 
L 170.788896 71.427467 
L 172.425059 72.319841 
L 173.314015 72.799954 
L 174.223217 73.217577 
L 175.116485 73.673089 
L 176.023345 74.096284 
L 177.38032 74.705344 
L 178.364605 75.049885 
L 179.306531 75.393 
L 180.253533 75.718405 
L 181.198571 76.050661 
L 182.356346 76.474281 
L 183.423303 76.687644 
L 184.405779 76.878797 
L 185.390033 77.058166 
L 186.374951 77.233137 
L 187.413357 77.411279 
L 188.526432 77.488507 
L 189.525959 77.530049 
L 190.525462 77.573376 
L 192.491605 77.625527 
L 193.62012 77.504718 
L 194.61361 77.390344 
L 195.605814 77.265723 
L 197.563577 77.010648 
L 198.658229 76.716633 
L 199.616614 76.429472 
L 200.580106 76.161504 
L 201.538726 75.875224 
L 202.562953 75.540792 
L 203.576922 75.093729 
L 204.487831 74.679274 
L 205.397476 74.261724 
L 206.31078 73.853129 
L 207.456967 73.311929 
L 208.378007 72.794796 
L 209.895773 71.962564 
" style="fill:none;stroke:#1f77b4;stroke-linecap:round;"/>
             <path clip-path="url(#pf5f29eb86d)" d="M 205.17756 71.664129 
L 206.178003 71.654113 
L 207.178675 71.649595 
L 208.181866 71.705832 
L 209.654086 71.677341 
L 208.855116 72.148837 
L 208.256987 72.951165 
L 207.661457 73.755278 
L 206.780216 74.935922 
L 207.044259 74.060036 
L 206.605853 73.159758 
L 205.6898 71.380899 
L 205.17756 71.664129 
z
" style="fill:#ffffff;stroke:#ffffff;stroke-linecap:round;stroke-width:3;"/>
             <path clip-path="url(#pf5f29eb86d)" d="M 205.17756 71.664129 
L 206.178003 71.654113 
L 207.178675 71.649595 
L 208.181866 71.705832 
L 209.654086 71.677341 
L 208.855116 72.148837 
L 208.256987 72.951165 
L 207.661457 73.755278 
L 206.780216 74.935922 
L 207.044259 74.060036 
L 206.605853 73.159758 
L 205.6898 71.380899 
L 205.17756 71.664129 
z
" style="fill:#ffffff;stroke:#1f77b4;stroke-linecap:round;"/>
             <g id="patch_13">
              <path clip-path="url(#pf5f29eb86d)" d="M 336.568924 69.938875 
L 335.568924 69.907439 
L 334.568924 69.870498 
L 333.568924 69.772752 
L 332.568924 69.74023 
L 331.568924 69.666605 
L 330.568924 69.62804 
L 329.568924 69.592627 
L 328.568924 69.534987 
L 327.568924 69.464601 
L 326.568924 69.412636 
L 325.568924 69.353547 
L 324.568924 69.265226 
L 323.568924 69.219081 
L 322.568924 69.17667 
L 321.568924 69.146178 
L 320.568924 69.120133 
L 319.568924 69.098933 
L 318.568924 69.044632 
L 317.568924 69.016694 
L 316.568924 68.98697 
L 315.568924 68.961575 
L 314.568924 68.950375 
L 313.568924 68.940251 
L 312.568924 68.940455 
L 311.568924 68.949965 
L 310.568924 68.961619 
L 309.568924 68.992648 
L 308.568924 69.003816 
L 307.568924 69.033933 
L 306.568924 69.09371 
L 305.568924 69.130902 
L 304.568924 69.169998 
L 303.568924 69.212438 
L 302.568924 69.245203 
L 301.568924 69.312629 
L 300.568924 69.351755 
L 299.568924 69.39443 
L 298.568924 69.46501 
L 297.568924 69.501401 
L 296.568924 69.559804 
L 295.568924 69.670757 
L 294.568924 69.741415 
L 293.568924 69.854355 
L 292.568924 69.900128 
L 291.568924 69.961411 
L 290.568924 70.00991 
L 289.568924 70.090733 
L 288.568924 70.209252 
L 287.568924 70.279463 
L 286.568924 70.362725 
L 285.568924 70.395867 
L 284.568924 70.447104 
L 283.568924 70.515503 
L 282.568924 70.581718 
L 281.568924 70.658635 
L 280.568924 70.685951 
L 279.568924 70.712428 
L 278.568924 70.735079 
L 277.568924 70.75461 
L 276.568924 70.781004 
L 275.568924 70.830775 
L 274.568924 70.865848 
L 273.568924 70.901714 
L 272.568924 70.917081 
L 271.568924 70.93285 
L 270.568924 70.936263 
L 269.568924 70.93868 
L 268.568924 70.938194 
L 267.568924 70.936265 
L 266.568924 70.923008 
L 265.568924 70.914617 
L 264.568924 70.893081 
L 263.568924 70.870048 
L 262.568924 70.852815 
L 261.568924 70.834352 
L 260.568924 70.8139 
L 259.568924 70.7973 
L 258.568924 70.734521 
L 257.568924 70.659256 
L 256.568924 70.626617 
L 255.568924 70.559053 
L 254.568924 70.505006 
L 253.568924 70.471302 
L 252.568924 70.381176 
L 251.568924 70.352641 
L 250.568924 70.321155 
L 249.568924 70.290144 
L 248.568924 70.235336 
L 247.027884 70.170749 
" style="fill:none;stroke:#ffffff;stroke-linecap:round;stroke-width:3;"/>
              <path clip-path="url(#pf5f29eb86d)" d="M 336.568924 69.938875 
L 335.568924 69.907439 
L 334.568924 69.870498 
L 333.568924 69.772752 
L 332.568924 69.74023 
L 331.568924 69.666605 
L 330.568924 69.62804 
L 329.568924 69.592627 
L 328.568924 69.534987 
L 327.568924 69.464601 
L 326.568924 69.412636 
L 325.568924 69.353547 
L 324.568924 69.265226 
L 323.568924 69.219081 
L 322.568924 69.17667 
L 321.568924 69.146178 
L 320.568924 69.120133 
L 319.568924 69.098933 
L 318.568924 69.044632 
L 317.568924 69.016694 
L 316.568924 68.98697 
L 315.568924 68.961575 
L 314.568924 68.950375 
L 313.568924 68.940251 
L 312.568924 68.940455 
L 311.568924 68.949965 
L 310.568924 68.961619 
L 309.568924 68.992648 
L 308.568924 69.003816 
L 307.568924 69.033933 
L 306.568924 69.09371 
L 305.568924 69.130902 
L 304.568924 69.169998 
L 303.568924 69.212438 
L 302.568924 69.245203 
L 301.568924 69.312629 
L 300.568924 69.351755 
L 299.568924 69.39443 
L 298.568924 69.46501 
L 297.568924 69.501401 
L 296.568924 69.559804 
L 295.568924 69.670757 
L 294.568924 69.741415 
L 293.568924 69.854355 
L 292.568924 69.900128 
L 291.568924 69.961411 
L 290.568924 70.00991 
L 289.568924 70.090733 
L 288.568924 70.209252 
L 287.568924 70.279463 
L 286.568924 70.362725 
L 285.568924 70.395867 
L 284.568924 70.447104 
L 283.568924 70.515503 
L 282.568924 70.581718 
L 281.568924 70.658635 
L 280.568924 70.685951 
L 279.568924 70.712428 
L 278.568924 70.735079 
L 277.568924 70.75461 
L 276.568924 70.781004 
L 275.568924 70.830775 
L 274.568924 70.865848 
L 273.568924 70.901714 
L 272.568924 70.917081 
L 271.568924 70.93285 
L 270.568924 70.936263 
L 269.568924 70.93868 
L 268.568924 70.938194 
L 267.568924 70.936265 
L 266.568924 70.923008 
L 265.568924 70.914617 
L 264.568924 70.893081 
L 263.568924 70.870048 
L 262.568924 70.852815 
L 261.568924 70.834352 
L 260.568924 70.8139 
L 259.568924 70.7973 
L 258.568924 70.734521 
L 257.568924 70.659256 
L 256.568924 70.626617 
L 255.568924 70.559053 
L 254.568924 70.505006 
L 253.568924 70.471302 
L 252.568924 70.381176 
L 251.568924 70.352641 
L 250.568924 70.321155 
L 249.568924 70.290144 
L 248.568924 70.235336 
L 247.027884 70.170749 
" style="fill:none;stroke:#ff7f0e;stroke-linecap:round;"/>
              <path clip-path="url(#pf5f29eb86d)" d="M 251.027884 71.938875 
L 250.147516 71.463544 
L 249.269609 70.98329 
L 248.418895 70.448649 
L 247.116721 69.761202 
L 248.044074 69.735187 
L 248.955748 69.322467 
L 249.866013 68.906928 
L 251.208509 68.300124 
L 250.55361 68.938875 
L 250.501646 69.938875 
L 250.442556 71.938875 
L 251.027884 71.938875 
z
" style="fill:#ffffff;stroke:#ffffff;stroke-linecap:round;stroke-width:3;"/>
              <path clip-path="url(#pf5f29eb86d)" d="M 251.027884 71.938875 
L 250.147516 71.463544 
L 249.269609 70.98329 
L 248.418895 70.448649 
L 247.116721 69.761202 
L 248.044074 69.735187 
L 248.955748 69.322467 
L 249.866013 68.906928 
L 251.208509 68.300124 
L 250.55361 68.938875 
L 250.501646 69.938875 
L 250.442556 71.938875 
L 251.027884 71.938875 
z
" style="fill:#ffffff;stroke:#ff7f0e;stroke-linecap:round;"/>
              <g id="patch_14">
               <path clip-path="url(#pf5f29eb86d)" d="M 380.830349 69.374551 
L 379.873541 69.082133 
L 378.918177 68.784404 
L 377.978748 68.427994 
L 377.022225 68.134529 
L 376.076474 67.801398 
L 374.450594 67.319891 
L 373.465979 67.068314 
L 372.501277 66.798735 
L 371.539293 66.516703 
L 370.573381 66.25267 
L 369.608988 65.981674 
L 368.65083 65.68212 
L 367.683676 65.423773 
L 366.715727 65.169073 
L 365.745235 64.926017 
L 364.773795 64.687306 
L 363.801322 64.453329 
L 362.835908 64.187012 
L 361.668535 63.903594 
L 360.62085 63.71741 
L 359.635161 63.546931 
L 358.647409 63.390495 
L 357.659501 63.235125 
L 356.670092 63.089973 
L 355.67933 62.954027 
L 354.688256 62.820203 
L 353.694367 62.705548 
L 352.703364 62.571243 
L 351.709606 62.455687 
L 350.711538 62.369474 
L 349.716752 62.260917 
L 348.719923 62.153984 
L 347.665429 62.115344 
L 346.665786 62.073059 
L 345.663545 62.065338 
L 344.663426 62.029397 
L 343.66304 61.996994 
L 342.660563 61.992418 
L 341.660649 61.953749 
L 340.659084 61.93703 
L 339.653581 61.972713 
L 338.651098 61.968215 
L 337.645445 62.00588 
L 335.780929 61.911628 
L 334.77796 61.969755 
L 333.777817 62.015207 
L 332.777575 62.092982 
L 331.777219 62.208454 
L 330.77701 62.275617 
L 329.776761 62.355832 
L 328.776664 62.385926 
L 327.776513 62.434116 
L 326.776309 62.499467 
L 325.776112 62.562635 
L 324.775882 62.636505 
L 322.979171 62.658346 
L 322.037448 62.752255 
L 321.041421 62.844138 
L 320.045177 62.93291 
L 319.049409 63.028527 
L 318.055261 63.147466 
L 317.060094 63.251742 
L 316.064982 63.356808 
L 315.06845 63.441426 
L 314.071946 63.526444 
L 313.074586 63.599136 
L 312.077157 63.670835 
L 310.287673 63.794635 
L 309.368961 63.926072 
L 308.377072 64.053864 
L 307.385868 64.186475 
L 306.392812 64.30607 
L 305.399545 64.424185 
L 304.407095 64.548041 
L 303.414472 64.67068 
L 302.421568 64.791348 
L 301.429208 64.915831 
L 300.43034 64.994597 
L 299.429712 65.061 
L 297.585896 65.290476 
L 296.642155 65.426608 
L 295.653227 65.584538 
L 294.668586 65.762354 
L 293.672054 65.885016 
L 292.688503 66.067885 
L 291.704329 66.24787 
L 290.720256 66.428319 
L 289.731168 66.585505 
L 288.740018 66.733132 
L 287.754431 66.906558 
L 286.756674 67.023542 
L 284.803312 67.39431 
L 283.829016 67.612573 
L 282.853296 67.835241 
L 281.859738 67.992039 
L 280.883625 68.213255 
L 279.90215 68.414672 
L 278.37466 68.755853 
" style="fill:none;stroke:#ffffff;stroke-linecap:round;stroke-width:3;"/>
               <path clip-path="url(#pf5f29eb86d)" d="M 380.830349 69.374551 
L 379.873541 69.082133 
L 378.918177 68.784404 
L 377.978748 68.427994 
L 377.022225 68.134529 
L 376.076474 67.801398 
L 374.450594 67.319891 
L 373.465979 67.068314 
L 372.501277 66.798735 
L 371.539293 66.516703 
L 370.573381 66.25267 
L 369.608988 65.981674 
L 368.65083 65.68212 
L 367.683676 65.423773 
L 366.715727 65.169073 
L 365.745235 64.926017 
L 364.773795 64.687306 
L 363.801322 64.453329 
L 362.835908 64.187012 
L 361.668535 63.903594 
L 360.62085 63.71741 
L 359.635161 63.546931 
L 358.647409 63.390495 
L 357.659501 63.235125 
L 356.670092 63.089973 
L 355.67933 62.954027 
L 354.688256 62.820203 
L 353.694367 62.705548 
L 352.703364 62.571243 
L 351.709606 62.455687 
L 350.711538 62.369474 
L 349.716752 62.260917 
L 348.719923 62.153984 
L 347.665429 62.115344 
L 346.665786 62.073059 
L 345.663545 62.065338 
L 344.663426 62.029397 
L 343.66304 61.996994 
L 342.660563 61.992418 
L 341.660649 61.953749 
L 340.659084 61.93703 
L 339.653581 61.972713 
L 338.651098 61.968215 
L 337.645445 62.00588 
L 335.780929 61.911628 
L 334.77796 61.969755 
L 333.777817 62.015207 
L 332.777575 62.092982 
L 331.777219 62.208454 
L 330.77701 62.275617 
L 329.776761 62.355832 
L 328.776664 62.385926 
L 327.776513 62.434116 
L 326.776309 62.499467 
L 325.776112 62.562635 
L 324.775882 62.636505 
L 322.979171 62.658346 
L 322.037448 62.752255 
L 321.041421 62.844138 
L 320.045177 62.93291 
L 319.049409 63.028527 
L 318.055261 63.147466 
L 317.060094 63.251742 
L 316.064982 63.356808 
L 315.06845 63.441426 
L 314.071946 63.526444 
L 313.074586 63.599136 
L 312.077157 63.670835 
L 310.287673 63.794635 
L 309.368961 63.926072 
L 308.377072 64.053864 
L 307.385868 64.186475 
L 306.392812 64.30607 
L 305.399545 64.424185 
L 304.407095 64.548041 
L 303.414472 64.67068 
L 302.421568 64.791348 
L 301.429208 64.915831 
L 300.43034 64.994597 
L 299.429712 65.061 
L 297.585896 65.290476 
L 296.642155 65.426608 
L 295.653227 65.584538 
L 294.668586 65.762354 
L 293.672054 65.885016 
L 292.688503 66.067885 
L 291.704329 66.24787 
L 290.720256 66.428319 
L 289.731168 66.585505 
L 288.740018 66.733132 
L 287.754431 66.906558 
L 286.756674 67.023542 
L 284.803312 67.39431 
L 283.829016 67.612573 
L 282.853296 67.835241 
L 281.859738 67.992039 
L 280.883625 68.213255 
L 279.90215 68.414672 
L 278.37466 68.755853 
" style="fill:none;stroke:#2ca02c;stroke-linecap:round;"/>
               <path clip-path="url(#pf5f29eb86d)" d="M 282.85595 69.872358 
L 281.878171 69.660376 
L 280.901389 69.442981 
L 279.935616 69.165784 
L 278.493702 68.867248 
L 279.377305 68.584572 
L 280.138393 67.934777 
L 280.897342 67.282666 
L 282.018354 66.326717 
L 281.566738 67.122291 
L 281.794692 68.097348 
L 282.015801 69.074386 
L 282.208831 70.059546 
L 282.85595 69.872358 
z
" style="fill:#ffffff;stroke:#ffffff;stroke-linecap:round;stroke-width:3;"/>
               <path clip-path="url(#pf5f29eb86d)" d="M 282.85595 69.872358 
L 281.878171 69.660376 
L 280.901389 69.442981 
L 279.935616 69.165784 
L 278.493702 68.867248 
L 279.377305 68.584572 
L 280.138393 67.934777 
L 280.897342 67.282666 
L 282.018354 66.326717 
L 281.566738 67.122291 
L 281.794692 68.097348 
L 282.015801 69.074386 
L 282.208831 70.059546 
L 282.85595 69.872358 
z
" style="fill:#ffffff;stroke:#2ca02c;stroke-linecap:round;"/>
               <g id="patch_15">
                <path clip-path="url(#pf5f29eb86d)" d="M 169.899893 68.91811 
L 170.784049 68.449861 
L 171.670932 67.986392 
L 172.587948 67.575739 
L 173.472641 67.108432 
L 174.377703 66.676827 
L 175.66469 65.986957 
L 176.558108 65.566213 
L 177.473243 65.158964 
L 178.394221 64.763043 
L 179.306753 64.350751 
L 180.222552 63.944791 
L 181.151753 63.564809 
L 182.061617 63.147344 
L 182.969769 62.726562 
L 183.872458 62.295187 
L 184.773107 61.85986 
L 185.671534 61.420227 
L 187.136518 60.725562 
L 188.014325 60.369022 
L 188.940685 59.991211 
L 189.865291 59.609442 
L 190.784149 59.214694 
L 191.702571 58.818963 
L 192.61681 58.413787 
L 193.527281 58.000104 
L 194.436883 57.584461 
L 195.338638 57.151102 
L 196.248437 56.735902 
L 197.150562 56.303377 
L 198.277162 55.738984 
L 199.153077 55.377106 
L 200.077409 54.993519 
L 201.00058 54.606796 
L 201.927109 54.229147 
L 202.841612 53.818989 
L 203.765934 53.435373 
L 204.689024 53.04843 
L 205.602433 52.635314 
L 206.527704 52.254264 
L 207.445338 51.852569 
L 209.228718 51.074612 
L 210.150558 50.727962 
L 211.077109 50.335205 
L 212.022768 50.006839 
L 212.964014 49.663603 
L 213.908898 49.332623 
L 214.844585 48.970656 
L 215.769549 48.57255 
L 216.708256 48.220756 
L 217.64325 47.856449 
L 218.592502 47.540193 
L 220.184415 47.014354 
L 221.179146 46.72072 
L 222.140625 46.437978 
L 223.099769 46.144793 
L 224.069733 45.900015 
L 225.03988 45.656054 
L 226.010861 45.415829 
L 226.982523 45.178648 
L 227.952688 44.934769 
L 228.917754 44.668076 
L 229.886025 44.415727 
L 231.304752 44.061889 
L 232.358421 43.885689 
L 233.344993 43.7216 
L 234.3334 43.569731 
L 235.321954 43.418846 
L 236.310939 43.270832 
L 237.300139 43.124246 
L 238.291021 42.988861 
L 239.28118 42.848664 
L 240.273291 42.721468 
L 241.265625 42.59575 
L 242.557293 42.419221 
L 243.62158 42.353682 
L 244.620215 42.297581 
L 245.618555 42.23764 
L 246.620427 42.223741 
L 247.623254 42.222293 
L 248.622821 42.178343 
L 249.625059 42.169216 
L 250.626263 42.146612 
L 251.625912 42.103724 
L 252.629876 42.117093 
L 253.832072 42.053482 
L 254.862502 42.080581 
L 255.862596 42.108414 
L 256.862765 42.160044 
L 257.862965 42.221454 
L 258.863081 42.256472 
L 259.863381 42.349228 
L 260.863533 42.395309 
L 261.863667 42.436201 
L 262.86379 42.473147 
L 263.864129 42.578336 
L 265.027499 42.616268 
L 266.007015 42.748085 
L 266.999625 42.888163 
L 267.989806 43.062697 
L 268.984733 43.169881 
L 269.979035 43.285933 
L 270.971747 43.424546 
L 271.965848 43.543459 
L 272.95792 43.691153 
L 273.953301 43.791906 
L 274.945941 43.931537 
L 276.124649 44.038624 
L 277.050635 44.203279 
L 278.034433 44.38737 
L 279.021116 44.55145 
L 280.008887 44.70798 
L 280.994836 44.877155 
L 281.983269 45.029094 
L 282.971255 45.184139 
L 283.95944 45.337806 
L 284.948393 45.486138 
L 285.937476 45.633578 
L 287.188777 45.808412 
L 288.098737 45.995818 
L 289.077383 46.201508 
L 290.059708 46.390327 
L 291.041773 46.580334 
L 292.026525 46.758019 
L 293.009101 46.945688 
L 293.990901 47.136914 
L 294.982593 47.282768 
L 295.975517 47.422979 
L 296.972582 47.544192 
L 298.353618 47.793062 
L 299.291507 48.012105 
L 300.261307 48.258544 
L 301.25096 48.436984 
L 302.225528 48.667091 
L 303.195791 48.911939 
L 304.164408 49.162428 
L 305.141468 49.384 
L 306.120283 49.599559 
L 307.09391 49.832889 
L 308.072101 50.050586 
L 309.616689 50.461791 
L 310.572981 50.766986 
L 311.526497 51.071246 
L 312.486027 51.359073 
L 313.463995 51.596525 
L 314.421028 51.891175 
L 315.373649 52.197876 
L 316.328912 52.497361 
L 317.287501 52.787759 
L 318.237801 53.100803 
L 319.18931 53.410546 
L 320.93516 54.015385 
L 321.899543 54.401086 
L 322.838323 54.750513 
L 323.771789 55.112016 
L 324.698985 55.487761 
L 325.634546 55.844503 
L 326.559959 56.224299 
L 327.483702 56.607891 
L 328.413051 56.978745 
L 329.338099 57.359371 
L 330.259028 57.749355 
L 331.181921 58.134877 
L 332.238371 58.582768 
L 333.186241 59.054243 
L 334.078158 59.506479 
L 334.970554 59.957784 
L 335.862169 60.410609 
L 336.750601 60.869619 
L 337.638603 61.329468 
L 338.522749 61.796812 
L 339.399081 62.279346 
L 340.268299 62.775709 
L 341.148084 63.251533 
L 342.018589 63.745394 
L 343.329028 64.464544 
L 344.218967 64.993067 
L 345.076543 65.507917 
L 345.912255 66.061114 
L 346.756359 66.599594 
L 347.588576 67.158921 
L 348.781871 67.875313 
" style="fill:none;stroke:#ffffff;stroke-linecap:round;stroke-width:3;"/>
                <path clip-path="url(#pf5f29eb86d)" d="M 169.899893 68.91811 
L 170.784049 68.449861 
L 171.670932 67.986392 
L 172.587948 67.575739 
L 173.472641 67.108432 
L 174.377703 66.676827 
L 175.66469 65.986957 
L 176.558108 65.566213 
L 177.473243 65.158964 
L 178.394221 64.763043 
L 179.306753 64.350751 
L 180.222552 63.944791 
L 181.151753 63.564809 
L 182.061617 63.147344 
L 182.969769 62.726562 
L 183.872458 62.295187 
L 184.773107 61.85986 
L 185.671534 61.420227 
L 187.136518 60.725562 
L 188.014325 60.369022 
L 188.940685 59.991211 
L 189.865291 59.609442 
L 190.784149 59.214694 
L 191.702571 58.818963 
L 192.61681 58.413787 
L 193.527281 58.000104 
L 194.436883 57.584461 
L 195.338638 57.151102 
L 196.248437 56.735902 
L 197.150562 56.303377 
L 198.277162 55.738984 
L 199.153077 55.377106 
L 200.077409 54.993519 
L 201.00058 54.606796 
L 201.927109 54.229147 
L 202.841612 53.818989 
L 203.765934 53.435373 
L 204.689024 53.04843 
L 205.602433 52.635314 
L 206.527704 52.254264 
L 207.445338 51.852569 
L 209.228718 51.074612 
L 210.150558 50.727962 
L 211.077109 50.335205 
L 212.022768 50.006839 
L 212.964014 49.663603 
L 213.908898 49.332623 
L 214.844585 48.970656 
L 215.769549 48.57255 
L 216.708256 48.220756 
L 217.64325 47.856449 
L 218.592502 47.540193 
L 220.184415 47.014354 
L 221.179146 46.72072 
L 222.140625 46.437978 
L 223.099769 46.144793 
L 224.069733 45.900015 
L 225.03988 45.656054 
L 226.010861 45.415829 
L 226.982523 45.178648 
L 227.952688 44.934769 
L 228.917754 44.668076 
L 229.886025 44.415727 
L 231.304752 44.061889 
L 232.358421 43.885689 
L 233.344993 43.7216 
L 234.3334 43.569731 
L 235.321954 43.418846 
L 236.310939 43.270832 
L 237.300139 43.124246 
L 238.291021 42.988861 
L 239.28118 42.848664 
L 240.273291 42.721468 
L 241.265625 42.59575 
L 242.557293 42.419221 
L 243.62158 42.353682 
L 244.620215 42.297581 
L 245.618555 42.23764 
L 246.620427 42.223741 
L 247.623254 42.222293 
L 248.622821 42.178343 
L 249.625059 42.169216 
L 250.626263 42.146612 
L 251.625912 42.103724 
L 252.629876 42.117093 
L 253.832072 42.053482 
L 254.862502 42.080581 
L 255.862596 42.108414 
L 256.862765 42.160044 
L 257.862965 42.221454 
L 258.863081 42.256472 
L 259.863381 42.349228 
L 260.863533 42.395309 
L 261.863667 42.436201 
L 262.86379 42.473147 
L 263.864129 42.578336 
L 265.027499 42.616268 
L 266.007015 42.748085 
L 266.999625 42.888163 
L 267.989806 43.062697 
L 268.984733 43.169881 
L 269.979035 43.285933 
L 270.971747 43.424546 
L 271.965848 43.543459 
L 272.95792 43.691153 
L 273.953301 43.791906 
L 274.945941 43.931537 
L 276.124649 44.038624 
L 277.050635 44.203279 
L 278.034433 44.38737 
L 279.021116 44.55145 
L 280.008887 44.70798 
L 280.994836 44.877155 
L 281.983269 45.029094 
L 282.971255 45.184139 
L 283.95944 45.337806 
L 284.948393 45.486138 
L 285.937476 45.633578 
L 287.188777 45.808412 
L 288.098737 45.995818 
L 289.077383 46.201508 
L 290.059708 46.390327 
L 291.041773 46.580334 
L 292.026525 46.758019 
L 293.009101 46.945688 
L 293.990901 47.136914 
L 294.982593 47.282768 
L 295.975517 47.422979 
L 296.972582 47.544192 
L 298.353618 47.793062 
L 299.291507 48.012105 
L 300.261307 48.258544 
L 301.25096 48.436984 
L 302.225528 48.667091 
L 303.195791 48.911939 
L 304.164408 49.162428 
L 305.141468 49.384 
L 306.120283 49.599559 
L 307.09391 49.832889 
L 308.072101 50.050586 
L 309.616689 50.461791 
L 310.572981 50.766986 
L 311.526497 51.071246 
L 312.486027 51.359073 
L 313.463995 51.596525 
L 314.421028 51.891175 
L 315.373649 52.197876 
L 316.328912 52.497361 
L 317.287501 52.787759 
L 318.237801 53.100803 
L 319.18931 53.410546 
L 320.93516 54.015385 
L 321.899543 54.401086 
L 322.838323 54.750513 
L 323.771789 55.112016 
L 324.698985 55.487761 
L 325.634546 55.844503 
L 326.559959 56.224299 
L 327.483702 56.607891 
L 328.413051 56.978745 
L 329.338099 57.359371 
L 330.259028 57.749355 
L 331.181921 58.134877 
L 332.238371 58.582768 
L 333.186241 59.054243 
L 334.078158 59.506479 
L 334.970554 59.957784 
L 335.862169 60.410609 
L 336.750601 60.869619 
L 337.638603 61.329468 
L 338.522749 61.796812 
L 339.399081 62.279346 
L 340.268299 62.775709 
L 341.148084 63.251533 
L 342.018589 63.745394 
L 343.329028 64.464544 
L 344.218967 64.993067 
L 345.076543 65.507917 
L 345.912255 66.061114 
L 346.756359 66.599594 
L 347.588576 67.158921 
L 348.781871 67.875313 
" style="fill:none;stroke:#1f77b4;stroke-linecap:round;"/>
                <path clip-path="url(#pf5f29eb86d)" d="M 346.078587 64.597749 
L 346.596086 65.45401 
L 347.108966 66.313265 
L 347.57082 67.20559 
L 348.344193 68.458641 
L 347.531852 68.010575 
L 346.536832 67.903705 
L 345.541596 67.79998 
L 344.076849 67.641789 
L 344.96527 67.423604 
L 345.51739 66.588222 
L 346.075651 65.756455 
L 346.659102 64.939518 
L 346.078587 64.597749 
z
" style="fill:#ffffff;stroke:#ffffff;stroke-linecap:round;stroke-width:3;"/>
                <path clip-path="url(#pf5f29eb86d)" d="M 346.078587 64.597749 
L 346.596086 65.45401 
L 347.108966 66.313265 
L 347.57082 67.20559 
L 348.344193 68.458641 
L 347.531852 68.010575 
L 346.536832 67.903705 
L 345.541596 67.79998 
L 344.076849 67.641789 
L 344.96527 67.423604 
L 345.51739 66.588222 
L 346.075651 65.756455 
L 346.659102 64.939518 
L 346.078587 64.597749 
z
" style="fill:#ffffff;stroke:#1f77b4;stroke-linecap:round;"/>
                <g id="patch_16">
                 <path clip-path="url(#pf5f29eb86d)" d="M 308.742847 70.957456 
L 309.605842 71.463645 
L 310.466204 71.974666 
L 311.297464 72.539077 
L 312.159941 73.046218 
L 313.002746 73.58945 
L 313.862329 74.101898 
L 315.062909 74.79662 
L 315.982635 75.263693 
L 316.870426 75.72929 
L 317.765607 76.178012 
L 318.657929 76.633262 
L 319.538527 77.115288 
L 320.436042 77.558679 
L 321.335055 77.99865 
L 322.238848 78.427703 
L 323.144426 78.852683 
L 324.051947 79.273225 
L 324.94619 79.724087 
L 325.851009 80.150801 
L 326.755111 80.57915 
L 327.785485 81.058068 
L 328.857604 81.393525 
L 329.814031 81.685669 
L 330.773376 81.967906 
L 331.735349 82.241216 
L 332.697928 82.512469 
L 333.665979 82.765136 
L 334.62842 83.036855 
L 335.596213 83.290396 
L 336.572383 83.515486 
L 337.542175 83.762241 
L 338.512504 84.007169 
L 339.483777 84.24889 
L 340.900255 84.631772 
L 341.992005 84.734237 
L 342.986716 84.844149 
L 343.981955 84.950552 
L 344.98134 85.029358 
L 345.975645 85.141975 
L 346.973221 85.232823 
L 347.978606 85.271706 
L 348.978002 85.350436 
L 349.983683 85.387353 
L 350.979381 85.490692 
L 351.977385 85.578692 
L 352.973489 85.679335 
L 354.007193 85.752941 
L 354.986085 85.638187 
L 355.986452 85.573425 
L 356.986891 85.49561 
L 357.987056 85.467916 
L 358.987321 85.422126 
L 359.987678 85.359176 
L 360.988024 85.298408 
L 361.988428 85.226939 
L 362.988562 85.205071 
L 363.988692 85.184041 
L 364.9888 85.166838 
L 366.847312 85.157429 
L 367.716394 85.000458 
L 368.699824 84.812462 
L 369.685293 84.639021 
L 370.670652 84.464796 
L 371.658854 84.310871 
L 372.647 84.156548 
L 373.63686 84.014463 
L 374.626859 83.873362 
L 375.61726 83.735138 
L 376.607861 83.598342 
L 377.600033 83.472765 
L 379.535557 83.210148 
L 380.369687 82.983897 
L 381.337412 82.730839 
L 382.303542 82.472206 
L 383.270009 82.214755 
L 384.237024 81.959217 
L 385.20298 81.699975 
L 386.181643 81.485129 
L 387.163743 81.282287 
L 388.134112 81.038465 
L 389.114092 80.828218 
L 390.090353 80.604978 
L 391.061015 80.36218 
L 392.346992 80.08781 
L 393.22188 79.735894 
L 394.152014 79.367328 
L 395.08196 78.998326 
L 396.021364 78.651161 
L 396.964655 78.312969 
L 397.897457 77.95056 
L 398.853207 77.641133 
L 399.790405 77.288875 
L 400.725541 76.931856 
L 401.659109 76.571216 
L 402.619801 76.273198 
L 403.553967 75.913939 
L 405.334823 75.210299 
L 406.266654 74.784366 
L 407.195096 74.39847 
L 408.091285 73.953259 
L 408.991721 73.515857 
L 409.902961 73.098326 
L 410.804768 72.663444 
L 411.943187 72.132743 
" style="fill:none;stroke:#ffffff;stroke-linecap:round;stroke-width:3;"/>
                 <path clip-path="url(#pf5f29eb86d)" d="M 308.742847 70.957456 
L 309.605842 71.463645 
L 310.466204 71.974666 
L 311.297464 72.539077 
L 312.159941 73.046218 
L 313.002746 73.58945 
L 313.862329 74.101898 
L 315.062909 74.79662 
L 315.982635 75.263693 
L 316.870426 75.72929 
L 317.765607 76.178012 
L 318.657929 76.633262 
L 319.538527 77.115288 
L 320.436042 77.558679 
L 321.335055 77.99865 
L 322.238848 78.427703 
L 323.144426 78.852683 
L 324.051947 79.273225 
L 324.94619 79.724087 
L 325.851009 80.150801 
L 326.755111 80.57915 
L 327.785485 81.058068 
L 328.857604 81.393525 
L 329.814031 81.685669 
L 330.773376 81.967906 
L 331.735349 82.241216 
L 332.697928 82.512469 
L 333.665979 82.765136 
L 334.62842 83.036855 
L 335.596213 83.290396 
L 336.572383 83.515486 
L 337.542175 83.762241 
L 338.512504 84.007169 
L 339.483777 84.24889 
L 340.900255 84.631772 
L 341.992005 84.734237 
L 342.986716 84.844149 
L 343.981955 84.950552 
L 344.98134 85.029358 
L 345.975645 85.141975 
L 346.973221 85.232823 
L 347.978606 85.271706 
L 348.978002 85.350436 
L 349.983683 85.387353 
L 350.979381 85.490692 
L 351.977385 85.578692 
L 352.973489 85.679335 
L 354.007193 85.752941 
L 354.986085 85.638187 
L 355.986452 85.573425 
L 356.986891 85.49561 
L 357.987056 85.467916 
L 358.987321 85.422126 
L 359.987678 85.359176 
L 360.988024 85.298408 
L 361.988428 85.226939 
L 362.988562 85.205071 
L 363.988692 85.184041 
L 364.9888 85.166838 
L 366.847312 85.157429 
L 367.716394 85.000458 
L 368.699824 84.812462 
L 369.685293 84.639021 
L 370.670652 84.464796 
L 371.658854 84.310871 
L 372.647 84.156548 
L 373.63686 84.014463 
L 374.626859 83.873362 
L 375.61726 83.735138 
L 376.607861 83.598342 
L 377.600033 83.472765 
L 379.535557 83.210148 
L 380.369687 82.983897 
L 381.337412 82.730839 
L 382.303542 82.472206 
L 383.270009 82.214755 
L 384.237024 81.959217 
L 385.20298 81.699975 
L 386.181643 81.485129 
L 387.163743 81.282287 
L 388.134112 81.038465 
L 389.114092 80.828218 
L 390.090353 80.604978 
L 391.061015 80.36218 
L 392.346992 80.08781 
L 393.22188 79.735894 
L 394.152014 79.367328 
L 395.08196 78.998326 
L 396.021364 78.651161 
L 396.964655 78.312969 
L 397.897457 77.95056 
L 398.853207 77.641133 
L 399.790405 77.288875 
L 400.725541 76.931856 
L 401.659109 76.571216 
L 402.619801 76.273198 
L 403.553967 75.913939 
L 405.334823 75.210299 
L 406.266654 74.784366 
L 407.195096 74.39847 
L 408.091285 73.953259 
L 408.991721 73.515857 
L 409.902961 73.098326 
L 410.804768 72.663444 
L 411.943187 72.132743 
" style="fill:none;stroke:#ff7f0e;stroke-linecap:round;"/>
                 <path clip-path="url(#pf5f29eb86d)" d="M 407.145376 71.796991 
L 408.145388 71.76593 
L 409.145743 71.740362 
L 410.149895 71.775482 
L 411.62119 71.716025 
L 410.832316 72.204225 
L 410.251199 73.018958 
L 409.672717 73.835422 
L 408.816509 75.034344 
L 409.062067 74.153097 
L 408.604818 73.262241 
L 407.651545 71.503048 
L 407.145376 71.796991 
z
" style="fill:#ffffff;stroke:#ffffff;stroke-linecap:round;stroke-width:3;"/>
                 <path clip-path="url(#pf5f29eb86d)" d="M 407.145376 71.796991 
L 408.145388 71.76593 
L 409.145743 71.740362 
L 410.149895 71.775482 
L 411.62119 71.716025 
L 410.832316 72.204225 
L 410.251199 73.018958 
L 409.672717 73.835422 
L 408.816509 75.034344 
L 409.062067 74.153097 
L 408.604818 73.262241 
L 407.651545 71.503048 
L 407.145376 71.796991 
z
" style="fill:#ffffff;stroke:#ff7f0e;stroke-linecap:round;"/>
                 <g id="patch_17">
                  <path clip-path="url(#pf5f29eb86d)" d="M 447.851473 69.938875 
L 448.851473 69.970311 
L 449.851473 70.007252 
L 450.851473 70.104998 
L 451.851473 70.13752 
L 452.851473 70.211145 
L 453.851473 70.24971 
L 454.851473 70.285123 
L 455.851473 70.342763 
L 456.851473 70.413149 
L 457.851473 70.465114 
L 458.851473 70.524203 
L 459.851473 70.612524 
L 460.851473 70.658669 
L 461.851473 70.70108 
L 462.851473 70.731572 
L 463.851473 70.757617 
L 464.851473 70.778817 
L 465.851473 70.833118 
L 466.851473 70.861056 
L 467.851473 70.89078 
L 468.851473 70.916175 
L 469.851473 70.927375 
L 470.851473 70.937499 
L 471.851473 70.937295 
L 472.851473 70.927785 
L 474.285511 70.916131 
" style="fill:none;stroke:#ffffff;stroke-linecap:round;stroke-width:3;"/>
                  <path clip-path="url(#pf5f29eb86d)" d="M 447.851473 69.938875 
L 448.851473 69.970311 
L 449.851473 70.007252 
L 450.851473 70.104998 
L 451.851473 70.13752 
L 452.851473 70.211145 
L 453.851473 70.24971 
L 454.851473 70.285123 
L 455.851473 70.342763 
L 456.851473 70.413149 
L 457.851473 70.465114 
L 458.851473 70.524203 
L 459.851473 70.612524 
L 460.851473 70.658669 
L 461.851473 70.70108 
L 462.851473 70.731572 
L 463.851473 70.757617 
L 464.851473 70.778817 
L 465.851473 70.833118 
L 466.851473 70.861056 
L 467.851473 70.89078 
L 468.851473 70.916175 
L 469.851473 70.927375 
L 470.851473 70.937499 
L 471.851473 70.937295 
L 472.851473 70.927785 
L 474.285511 70.916131 
" style="fill:none;stroke:#2ca02c;stroke-linecap:round;"/>
                  <path clip-path="url(#pf5f29eb86d)" d="M 470.285511 67.938875 
L 471.16588 68.414206 
L 472.043787 68.89446 
L 472.8945 69.429101 
L 474.196675 70.116548 
L 473.269322 70.142563 
L 472.357647 70.555283 
L 471.447383 70.970822 
L 470.104887 71.577626 
L 470.759786 70.938875 
L 470.81175 69.938875 
L 470.87084 67.938875 
L 470.285511 67.938875 
z
" style="fill:#ffffff;stroke:#ffffff;stroke-linecap:round;stroke-width:3;"/>
                  <path clip-path="url(#pf5f29eb86d)" d="M 470.285511 67.938875 
L 471.16588 68.414206 
L 472.043787 68.89446 
L 472.8945 69.429101 
L 474.196675 70.116548 
L 473.269322 70.142563 
L 472.357647 70.555283 
L 471.447383 70.970822 
L 470.104887 71.577626 
L 470.759786 70.938875 
L 470.81175 69.938875 
L 470.87084 67.938875 
L 470.285511 67.938875 
z
" style="fill:#ffffff;stroke:#2ca02c;stroke-linecap:round;"/>
                  <g id="patch_18">
                   <path d="M 53.328125 260.421875 
L 53.328125 22.318125 
" style="fill:none;stroke:#000000;stroke-linecap:square;stroke-linejoin:miter;stroke-width:0.8;"/>
                  </g>
                  <g id="text_12">
                   <g id="patch_19">
                    <path d="M 133.208789 52.967562 
L 140.049414 52.967562 
Q 142.049414 52.967562 142.049414 50.967562 
L 142.049414 41.289437 
Q 142.049414 39.289437 140.049414 39.289437 
L 133.208789 39.289437 
Q 131.208789 39.289437 131.208789 41.289437 
L 131.208789 50.967562 
Q 131.208789 52.967562 133.208789 52.967562 
z
" style="fill:#ffffff;opacity:0.6;"/>
                   </g>
                   <!-- A -->
                   <g transform="translate(133.208789 48.887875)scale(0.1 -0.1)">
                    <defs>
                     <path d="M 34.1875 63.1875 
L 20.796875 26.90625 
L 47.609375 26.90625 
z
M 28.609375 72.90625 
L 39.796875 72.90625 
L 67.578125 0 
L 57.328125 0 
L 50.6875 18.703125 
L 17.828125 18.703125 
L 11.1875 0 
L 0.78125 0 
z
" id="DejaVuSans-65"/>
                    </defs>
                    <use xlink:href="#DejaVuSans-65"/>
                   </g>
                  </g>
                  <g id="text_13">
                   <g id="patch_20">
                    <path d="M 272.033594 52.967562 
L 278.894531 52.967562 
Q 280.894531 52.967562 280.894531 50.967562 
L 280.894531 41.289437 
Q 280.894531 39.289437 278.894531 39.289437 
L 272.033594 39.289437 
Q 270.033594 39.289437 270.033594 41.289437 
L 270.033594 50.967562 
Q 270.033594 52.967562 272.033594 52.967562 
z
" style="fill:#ffffff;opacity:0.6;"/>
                   </g>
                   <!-- B -->
                   <g transform="translate(272.033594 48.887875)scale(0.1 -0.1)">
                    <defs>
                     <path d="M 19.671875 34.8125 
L 19.671875 8.109375 
L 35.5 8.109375 
Q 43.453125 8.109375 47.28125 11.40625 
Q 51.125 14.703125 51.125 21.484375 
Q 51.125 28.328125 47.28125 31.5625 
Q 43.453125 34.8125 35.5 34.8125 
z
M 19.671875 64.796875 
L 19.671875 42.828125 
L 34.28125 42.828125 
Q 41.5 42.828125 45.03125 45.53125 
Q 48.578125 48.25 48.578125 53.8125 
Q 48.578125 59.328125 45.03125 62.0625 
Q 41.5 64.796875 34.28125 64.796875 
z
M 9.8125 72.90625 
L 35.015625 72.90625 
Q 46.296875 72.90625 52.390625 68.21875 
Q 58.5 63.53125 58.5 54.890625 
Q 58.5 48.1875 55.375 44.234375 
Q 52.25 40.28125 46.1875 39.3125 
Q 53.46875 37.75 57.5 32.78125 
Q 61.53125 27.828125 61.53125 20.40625 
Q 61.53125 10.640625 54.890625 5.3125 
Q 48.25 0 35.984375 0 
L 9.8125 0 
z
" id="DejaVuSans-66"/>
                    </defs>
                    <use xlink:href="#DejaVuSans-66"/>
                   </g>
                  </g>
                  <g id="text_14">
                   <g id="patch_21">
                    <path d="M 410.807617 52.967562 
L 417.79043 52.967562 
Q 419.79043 52.967562 419.79043 50.967562 
L 419.79043 41.289437 
Q 419.79043 39.289437 417.79043 39.289437 
L 410.807617 39.289437 
Q 408.807617 39.289437 408.807617 41.289437 
L 408.807617 50.967562 
Q 408.807617 52.967562 410.807617 52.967562 
z
" style="fill:#ffffff;opacity:0.6;"/>
                   </g>
                   <!-- C -->
                   <g transform="translate(410.807617 48.887875)scale(0.1 -0.1)">
                    <defs>
                     <path d="M 64.40625 67.28125 
L 64.40625 56.890625 
Q 59.421875 61.53125 53.78125 63.8125 
Q 48.140625 66.109375 41.796875 66.109375 
Q 29.296875 66.109375 22.65625 58.46875 
Q 16.015625 50.828125 16.015625 36.375 
Q 16.015625 21.96875 22.65625 14.328125 
Q 29.296875 6.6875 41.796875 6.6875 
Q 48.140625 6.6875 53.78125 8.984375 
Q 59.421875 11.28125 64.40625 15.921875 
L 64.40625 5.609375 
Q 59.234375 2.09375 53.4375 0.328125 
Q 47.65625 -1.421875 41.21875 -1.421875 
Q 24.65625 -1.421875 15.125 8.703125 
Q 5.609375 18.84375 5.609375 36.375 
Q 5.609375 53.953125 15.125 64.078125 
Q 24.65625 74.21875 41.21875 74.21875 
Q 47.75 74.21875 53.53125 72.484375 
Q 59.328125 70.75 64.40625 67.28125 
z
" id="DejaVuSans-67"/>
                    </defs>
                    <use xlink:href="#DejaVuSans-67"/>
                   </g>
                  </g>
                  <g id="text_15">
                   <!-- utility_graph.yaml -->
                   <g transform="translate(221.195 16.318125)scale(0.12 -0.12)">
                    <defs>
                     <path d="M 8.5 21.578125 
L 8.5 54.6875 
L 17.484375 54.6875 
L 17.484375 21.921875 
Q 17.484375 14.15625 20.5 10.265625 
Q 23.53125 6.390625 29.59375 6.390625 
Q 36.859375 6.390625 41.078125 11.03125 
Q 45.3125 15.671875 45.3125 23.6875 
L 45.3125 54.6875 
L 54.296875 54.6875 
L 54.296875 0 
L 45.3125 0 
L 45.3125 8.40625 
Q 42.046875 3.421875 37.71875 1 
Q 33.40625 -1.421875 27.6875 -1.421875 
Q 18.265625 -1.421875 13.375 4.4375 
Q 8.5 10.296875 8.5 21.578125 
z
M 31.109375 56 
z
" id="DejaVuSans-117"/>
                     <path d="M 9.421875 75.984375 
L 18.40625 75.984375 
L 18.40625 0 
L 9.421875 0 
z
" id="DejaVuSans-108"/>
                     <path d="M 32.171875 -5.078125 
Q 28.375 -14.84375 24.75 -17.8125 
Q 21.140625 -20.796875 15.09375 -20.796875 
L 7.90625 -20.796875 
L 7.90625 -13.28125 
L 13.1875 -13.28125 
Q 16.890625 -13.28125 18.9375 -11.515625 
Q 21 -9.765625 23.484375 -3.21875 
L 25.09375 0.875 
L 2.984375 54.6875 
L 12.5 54.6875 
L 29.59375 11.921875 
L 46.6875 54.6875 
L 56.203125 54.6875 
z
" id="DejaVuSans-121"/>
                     <path d="M 50.984375 -16.609375 
L 50.984375 -23.578125 
L -0.984375 -23.578125 
L -0.984375 -16.609375 
z
" id="DejaVuSans-95"/>
                     <path d="M 18.109375 8.203125 
L 18.109375 -20.796875 
L 9.078125 -20.796875 
L 9.078125 54.6875 
L 18.109375 54.6875 
L 18.109375 46.390625 
Q 20.953125 51.265625 25.265625 53.625 
Q 29.59375 56 35.59375 56 
Q 45.5625 56 51.78125 48.09375 
Q 58.015625 40.1875 58.015625 27.296875 
Q 58.015625 14.40625 51.78125 6.484375 
Q 45.5625 -1.421875 35.59375 -1.421875 
Q 29.59375 -1.421875 25.265625 0.953125 
Q 20.953125 3.328125 18.109375 8.203125 
z
M 48.6875 27.296875 
Q 48.6875 37.203125 44.609375 42.84375 
Q 40.53125 48.484375 33.40625 48.484375 
Q 26.265625 48.484375 22.1875 42.84375 
Q 18.109375 37.203125 18.109375 27.296875 
Q 18.109375 17.390625 22.1875 11.75 
Q 26.265625 6.109375 33.40625 6.109375 
Q 40.53125 6.109375 44.609375 11.75 
Q 48.6875 17.390625 48.6875 27.296875 
z
" id="DejaVuSans-112"/>
                     <path d="M 54.890625 33.015625 
L 54.890625 0 
L 45.90625 0 
L 45.90625 32.71875 
Q 45.90625 40.484375 42.875 44.328125 
Q 39.84375 48.1875 33.796875 48.1875 
Q 26.515625 48.1875 22.3125 43.546875 
Q 18.109375 38.921875 18.109375 30.90625 
L 18.109375 0 
L 9.078125 0 
L 9.078125 75.984375 
L 18.109375 75.984375 
L 18.109375 46.1875 
Q 21.34375 51.125 25.703125 53.5625 
Q 30.078125 56 35.796875 56 
Q 45.21875 56 50.046875 50.171875 
Q 54.890625 44.34375 54.890625 33.015625 
z
" id="DejaVuSans-104"/>
                     <path d="M 10.6875 12.40625 
L 21 12.40625 
L 21 0 
L 10.6875 0 
z
" id="DejaVuSans-46"/>
                    </defs>
                    <use xlink:href="#DejaVuSans-117"/>
                    <use x="63.378906" xlink:href="#DejaVuSans-116"/>
                    <use x="102.587891" xlink:href="#DejaVuSans-105"/>
                    <use x="130.371094" xlink:href="#DejaVuSans-108"/>
                    <use x="158.154297" xlink:href="#DejaVuSans-105"/>
                    <use x="185.9375" xlink:href="#DejaVuSans-116"/>
                    <use x="225.146484" xlink:href="#DejaVuSans-121"/>
                    <use x="284.326172" xlink:href="#DejaVuSans-95"/>
                    <use x="334.326172" xlink:href="#DejaVuSans-103"/>
                    <use x="397.802734" xlink:href="#DejaVuSans-114"/>
                    <use x="438.916016" xlink:href="#DejaVuSans-97"/>
                    <use x="500.195312" xlink:href="#DejaVuSans-112"/>
                    <use x="563.671875" xlink:href="#DejaVuSans-104"/>
                    <use x="627.050781" xlink:href="#DejaVuSans-46"/>
                    <use x="658.837891" xlink:href="#DejaVuSans-121"/>
                    <use x="718.017578" xlink:href="#DejaVuSans-97"/>
                    <use x="779.296875" xlink:href="#DejaVuSans-109"/>
                    <use x="876.708984" xlink:href="#DejaVuSans-108"/>
                   </g>
                  </g>
                 </g>
                </g>
                <defs>
                 <clipPath id="pf5f29eb86d">
                  <rect height="238.10375" width="444.271875" x="53.328125" y="22.318125"/>
                 </clipPath>
                </defs>
               </g>
              </g>
             </g>
            </g>
           </g>
          </g>
         </g>
        </g>
       </g>
      </g>
     </g>
    </g>
   </g>
  </g>
 </g>
</svg>
