<?xml version="1.0" encoding="utf-8" standalone="no"?>
<!DOCTYPE svg PUBLIC "-//W3C//DTD SVG 1.1//EN"
  "http://www.w3.org/Graphics/SVG/1.1/DTD/svg11.dtd">
<!-- Created with matplotlib (https://matplotlib.org/) -->
<svg height="280.8pt" version="1.1" viewBox="0 0 504.8 280.8" width="504.8pt" xmlns="http://www.w3.org/2000/svg" xmlns:xlink="http://www.w3.org/1999/xlink">
 <metadata>
  <rdf:RDF xmlns:cc="http://creativecommons.org/ns#" xmlns:dc="http://purl.org/dc/elements/1.1/" xmlns:rdf="http://www.w3.org/1999/02/22-rdf-syntax-ns#">
   <cc:Work>
    <dc:type rdf:resource="http://purl.org/dc/dcmitype/StillImage"/>
    <dc:date>2021-03-16T19:42:03.000393</dc:date>
    <dc:format>image/svg+xml</dc:format>
    <dc:creator>
     <cc:Agent>
      <dc:title>Matplotlib v3.3.4, https://matplotlib.org/</dc:title>
     </cc:Agent>
    </dc:creator>
   </cc:Work>
  </rdf:RDF>
 </metadata>
 <defs>
  <style type="text/css">*{stroke-linecap:butt;stroke-linejoin:round;}</style>
 </defs>
 <g id="figure_1">
  <g id="patch_1">
   <path d="M 0 280.8 
L 504.8 280.8 
L 504.8 0 
L 0 0 
z
" style="fill:none;"/>
  </g>
  <g id="axes_1">
   <g id="patch_2">
    <path d="M 45.478125 260.421875 
L 497.6 260.421875 
L 497.6 22.318125 
L 45.478125 22.318125 
z
" style="fill:#ffffff;"/>
   </g>
   <g id="PolyCollection_1">
    <path clip-path="url(#pd0986d773c)" d="M 292.089995 30.716692 
L 250.98813 30.716692 
L 250.98813 76.657729 
L 250.988245 76.657729 
L 250.091911 76.904255 
L 249.169766 77.15078 
L 248.221625 77.397306 
L 247.247324 77.643832 
L 246.246712 77.890358 
L 245.219662 78.136884 
L 244.16606 78.38341 
L 243.085816 78.629936 
L 241.978855 78.876462 
L 240.845122 79.122988 
L 239.684582 79.369513 
L 238.497219 79.616039 
L 237.283034 79.862565 
L 236.042048 80.109091 
L 234.774303 80.355617 
L 233.479857 80.602143 
L 232.158789 80.848669 
L 230.811194 81.095195 
L 229.437188 81.341721 
L 228.036903 81.588246 
L 226.610491 81.834772 
L 225.158121 82.081298 
L 223.679978 82.327824 
L 222.176267 82.57435 
L 220.647206 82.820876 
L 219.093034 83.067402 
L 217.514003 83.313928 
L 215.910381 83.560454 
L 214.282452 83.806979 
L 212.630516 84.053505 
L 210.954885 84.300031 
L 209.255888 84.546557 
L 207.533865 84.793083 
L 205.789171 85.039609 
L 204.022173 85.286135 
L 202.233251 85.532661 
L 200.422794 85.779187 
L 198.591206 86.025712 
L 196.738899 86.272238 
L 194.866297 86.518764 
L 192.973833 86.76529 
L 191.061949 87.011816 
L 189.131096 87.258342 
L 187.181733 87.504868 
L 185.214326 87.751394 
L 183.22935 87.99792 
L 181.227285 88.244445 
L 179.208618 88.490971 
L 177.173841 88.737497 
L 175.123451 88.984023 
L 173.057951 89.230549 
L 170.977846 89.477075 
L 168.883647 89.723601 
L 166.775865 89.970127 
L 164.655018 90.216653 
L 162.521622 90.463178 
L 160.376198 90.709704 
L 158.219266 90.95623 
L 156.051347 91.202756 
L 153.872965 91.449282 
L 151.68464 91.695808 
L 149.486896 91.942334 
L 147.280252 92.18886 
L 145.06523 92.435386 
L 142.842346 92.681911 
L 140.612117 92.928437 
L 138.375058 93.174963 
L 136.13168 93.421489 
L 133.88249 93.668015 
L 131.627994 93.914541 
L 129.368694 94.161067 
L 127.105087 94.407593 
L 124.837667 94.654119 
L 122.566921 94.900644 
L 120.293336 95.14717 
L 118.017389 95.393696 
L 115.739556 95.640222 
L 113.460303 95.886748 
L 111.180095 96.133274 
L 108.899388 96.3798 
L 106.618634 96.626326 
L 104.338276 96.872852 
L 102.058754 97.119377 
L 99.780499 97.365903 
L 97.503936 97.612429 
L 95.229483 97.858955 
L 92.957551 98.105481 
L 90.688545 98.352007 
L 88.422861 98.598533 
L 86.160889 98.845059 
L 83.903011 99.091585 
L 81.649601 99.33811 
L 79.401027 99.584636 
L 77.157648 99.831162 
L 74.919816 100.077688 
L 72.687875 100.324214 
L 70.46216 100.57074 
L 68.243002 100.817266 
L 66.03072 101.063792 
L 66.03072 101.063792 
L 74.619444 101.310317 
L 82.737176 101.556843 
L 90.414271 101.803369 
L 97.678868 102.049894 
L 104.557074 102.29642 
L 111.073122 102.542946 
L 117.249524 102.789471 
L 123.107201 103.035997 
L 128.665615 103.282523 
L 133.942873 103.529048 
L 138.955839 103.775574 
L 143.720224 104.0221 
L 148.250677 104.268625 
L 152.560861 104.515151 
L 156.663529 104.761676 
L 160.570593 105.008202 
L 164.293182 105.254728 
L 167.841701 105.501253 
L 171.225884 105.747779 
L 174.454842 105.994305 
L 177.537106 106.24083 
L 180.480671 106.487356 
L 183.29303 106.733882 
L 185.981213 106.980407 
L 188.551817 107.226933 
L 191.011033 107.473459 
L 193.364681 107.719984 
L 195.618228 107.96651 
L 197.776815 108.213036 
L 199.84528 108.459561 
L 201.828173 108.706087 
L 203.729784 108.952613 
L 205.554148 109.199138 
L 207.305074 109.445664 
L 208.986151 109.692189 
L 210.600764 109.938715 
L 212.152109 110.185241 
L 213.643204 110.431766 
L 215.076899 110.678292 
L 216.455888 110.924818 
L 217.782718 111.171343 
L 219.059797 111.417869 
L 220.289405 111.664395 
L 221.4737 111.91092 
L 222.614726 112.157446 
L 223.714417 112.403972 
L 224.774609 112.650497 
L 225.797042 112.897023 
L 226.783365 113.143549 
L 227.735144 113.390074 
L 228.653867 113.6366 
L 229.540943 113.883126 
L 230.397715 114.129651 
L 231.225456 114.376177 
L 232.025377 114.622702 
L 232.798631 114.869228 
L 233.546313 115.115754 
L 234.269467 115.362279 
L 234.969084 115.608805 
L 235.646112 115.855331 
L 236.301451 116.101856 
L 236.935959 116.348382 
L 237.550455 116.594908 
L 238.14572 116.841433 
L 238.722497 117.087959 
L 239.281498 117.334485 
L 239.823401 117.58101 
L 240.348853 117.827536 
L 240.858473 118.074062 
L 241.352853 118.320587 
L 241.832556 118.567113 
L 242.298123 118.813639 
L 242.750071 119.060164 
L 243.188893 119.30669 
L 243.615063 119.553215 
L 244.029034 119.799741 
L 244.431238 120.046267 
L 244.82209 120.292792 
L 245.201988 120.539318 
L 245.571314 120.785844 
L 245.930433 121.032369 
L 246.279694 121.278895 
L 246.619433 121.525421 
L 246.949974 121.771946 
L 247.271625 122.018472 
L 247.584682 122.264998 
L 247.889432 122.511523 
L 248.186147 122.758049 
L 248.47509 123.004575 
L 248.756515 123.2511 
L 249.030663 123.497626 
L 249.297769 123.744152 
L 249.558056 123.990677 
L 249.811741 124.237203 
L 250.059032 124.483728 
L 250.300127 124.730254 
L 250.53522 124.97678 
L 250.764495 125.223305 
L 250.988131 125.469831 
L 250.988131 125.469831 
L 250.091791 125.716357 
L 249.169639 125.962883 
L 248.221492 126.209409 
L 247.247183 126.455935 
L 246.246565 126.702461 
L 245.219507 126.948988 
L 244.165898 127.195514 
L 243.085646 127.44204 
L 241.978676 127.688566 
L 240.844935 127.935092 
L 239.684387 128.181618 
L 238.497015 128.428144 
L 237.28282 128.67467 
L 236.041826 128.921196 
L 234.774071 129.167722 
L 233.479616 129.414248 
L 232.158537 129.660774 
L 230.810932 129.9073 
L 229.436915 130.153827 
L 228.03662 130.400353 
L 226.610197 130.646879 
L 225.157815 130.893405 
L 223.679661 131.139931 
L 222.175938 131.386457 
L 220.646866 131.632983 
L 219.092681 131.879509 
L 217.513637 132.126035 
L 215.910003 132.372561 
L 214.282061 132.619087 
L 212.630112 132.865613 
L 210.954468 133.11214 
L 209.255457 133.358666 
L 207.533421 133.605192 
L 205.788713 133.851718 
L 204.021701 134.098244 
L 202.232764 134.34477 
L 200.422293 134.591296 
L 198.59069 134.837822 
L 196.738368 135.084348 
L 194.865751 135.330874 
L 192.973272 135.5774 
L 191.061373 135.823926 
L 189.130504 136.070452 
L 187.181125 136.316979 
L 185.213702 136.563505 
L 183.22871 136.810031 
L 181.226629 137.056557 
L 179.207945 137.303083 
L 177.173151 137.549609 
L 175.122745 137.796135 
L 173.057227 138.042661 
L 170.977106 138.289187 
L 168.882889 138.535713 
L 166.775091 138.782239 
L 164.654226 139.028765 
L 162.520813 139.275292 
L 160.375371 139.521818 
L 158.218421 139.768344 
L 156.050484 140.01487 
L 153.872084 140.261396 
L 151.683741 140.507922 
L 149.485979 140.754448 
L 147.279317 141.000974 
L 145.064276 141.2475 
L 142.841374 141.494026 
L 140.611127 141.740552 
L 138.37405 141.987078 
L 136.130653 142.233604 
L 133.881444 142.480131 
L 131.62693 142.726657 
L 129.367611 142.973183 
L 127.103986 143.219709 
L 124.836547 143.466235 
L 122.565783 143.712761 
L 120.292179 143.959287 
L 118.016213 144.205813 
L 115.738361 144.452339 
L 113.45909 144.698865 
L 111.178863 144.945391 
L 108.898137 145.191917 
L 106.617364 145.438444 
L 104.336988 145.68497 
L 102.057447 145.931496 
L 99.779173 146.178022 
L 97.502591 146.424548 
L 95.22812 146.671074 
L 92.956169 146.9176 
L 90.687145 147.164126 
L 88.421442 147.410652 
L 86.159452 147.657178 
L 83.901555 147.903704 
L 81.648127 148.15023 
L 79.399535 148.396756 
L 77.156137 148.643283 
L 74.918287 148.889809 
L 72.686327 149.136335 
L 70.460595 149.382861 
L 68.241419 149.629387 
L 66.029119 149.875913 
L 66.029119 149.875913 
L 74.617924 150.122439 
L 82.735732 150.368964 
L 90.412898 150.61549 
L 97.677563 150.862016 
L 104.555831 151.108541 
L 111.071939 151.355067 
L 117.248396 151.601593 
L 123.106126 151.848119 
L 128.664589 152.094644 
L 133.941894 152.34117 
L 138.954903 152.587696 
L 143.71933 152.834221 
L 148.249822 153.080747 
L 152.560043 153.327273 
L 156.662746 153.573798 
L 160.569843 153.820324 
L 164.292463 154.06685 
L 167.841012 154.313376 
L 171.225223 154.559901 
L 174.454207 154.806427 
L 177.536496 155.052953 
L 180.480085 155.299478 
L 183.292467 155.546004 
L 185.980672 155.79253 
L 188.551295 156.039055 
L 191.010531 156.285581 
L 193.364198 156.532107 
L 195.617762 156.778632 
L 197.776366 157.025158 
L 199.844846 157.271684 
L 201.827755 157.51821 
L 203.72938 157.764735 
L 205.553758 158.011261 
L 207.304697 158.257787 
L 208.985786 158.504312 
L 210.600411 158.750838 
L 212.151768 158.997364 
L 213.642874 159.243889 
L 215.076579 159.490415 
L 216.455578 159.736941 
L 217.782418 159.983467 
L 219.059506 160.229992 
L 220.289123 160.476518 
L 221.473426 160.723044 
L 222.61446 160.969569 
L 223.714159 161.216095 
L 224.774358 161.462621 
L 225.796798 161.709146 
L 226.783128 161.955672 
L 227.734914 162.202198 
L 228.653643 162.448724 
L 229.540725 162.695249 
L 230.397502 162.941775 
L 231.225249 163.188301 
L 232.025175 163.434826 
L 232.798434 163.681352 
L 233.546121 163.927878 
L 234.26928 164.174403 
L 234.968902 164.420929 
L 235.645935 164.667455 
L 236.301278 164.913981 
L 236.93579 165.160506 
L 237.55029 165.407032 
L 238.145558 165.653558 
L 238.722339 165.900083 
L 239.281344 166.146609 
L 239.82325 166.393135 
L 240.348705 166.63966 
L 240.858329 166.886186 
L 241.352711 167.132712 
L 241.832417 167.379237 
L 242.297987 167.625763 
L 242.749938 167.872289 
L 243.188763 168.118815 
L 243.614936 168.36534 
L 244.028908 168.611866 
L 244.431115 168.858392 
L 244.821969 169.104917 
L 245.20187 169.351443 
L 245.571198 169.597969 
L 245.930319 169.844494 
L 246.279582 170.09102 
L 246.619324 170.337546 
L 246.949866 170.584072 
L 247.271519 170.830597 
L 247.584578 171.077123 
L 247.889329 171.323649 
L 248.186046 171.570174 
L 248.474991 171.8167 
L 248.756417 172.063226 
L 249.030567 172.309751 
L 249.297675 172.556277 
L 249.557963 172.802803 
L 249.81165 173.049329 
L 250.058942 173.295854 
L 250.300038 173.54238 
L 250.535132 173.788906 
L 250.764409 174.035431 
L 250.988046 174.281957 
L 250.988046 174.281957 
L 250.091705 174.528483 
L 249.169553 174.775009 
L 248.221405 175.021535 
L 247.247096 175.268061 
L 246.246477 175.514587 
L 245.219419 175.761113 
L 244.16581 176.007639 
L 243.085558 176.254165 
L 241.978589 176.500691 
L 240.844848 176.747217 
L 239.6843 176.993743 
L 238.496928 177.24027 
L 237.282735 177.486796 
L 236.041741 177.733322 
L 234.773987 177.979848 
L 233.479533 178.226374 
L 232.158456 178.4729 
L 230.810852 178.719426 
L 229.436837 178.965952 
L 228.036544 179.212478 
L 226.610123 179.459004 
L 225.157743 179.70553 
L 223.679592 179.952056 
L 222.175871 180.198582 
L 220.646802 180.445108 
L 219.09262 180.691634 
L 217.51358 180.93816 
L 215.909948 181.184686 
L 214.282011 181.431212 
L 212.630065 181.677738 
L 210.954425 181.924264 
L 209.255419 182.17079 
L 207.533387 182.417316 
L 205.788683 182.663842 
L 204.021676 182.910368 
L 202.232744 183.156895 
L 200.422278 183.403421 
L 198.59068 183.649947 
L 196.738364 183.896473 
L 194.865753 184.142999 
L 192.97328 184.389525 
L 191.061386 184.636051 
L 189.130524 184.882577 
L 187.181151 185.129103 
L 185.213736 185.375629 
L 183.22875 185.622155 
L 181.226676 185.868681 
L 179.208 186.115207 
L 177.173214 186.361733 
L 175.122815 186.608259 
L 173.057306 186.854785 
L 170.977192 187.101311 
L 168.882984 187.347837 
L 166.775194 187.594363 
L 164.654338 187.840889 
L 162.520934 188.087415 
L 160.375501 188.333941 
L 158.21856 188.580467 
L 156.050633 188.826993 
L 153.872242 189.07352 
L 151.683909 189.320046 
L 149.486157 189.566572 
L 147.279505 189.813098 
L 145.064474 190.059624 
L 142.841583 190.30615 
L 140.611346 190.552676 
L 138.374279 190.799202 
L 136.130893 191.045728 
L 133.881695 191.292254 
L 131.627192 191.53878 
L 129.367884 191.785306 
L 127.10427 192.031832 
L 124.836842 192.278358 
L 122.56609 192.524884 
L 120.292498 192.77141 
L 118.016544 193.017936 
L 115.738703 193.264462 
L 113.459444 193.510988 
L 111.179229 193.757514 
L 108.898516 194.00404 
L 106.617755 194.250566 
L 104.337391 194.497092 
L 102.057862 194.743618 
L 99.779601 194.990145 
L 97.503032 195.236671 
L 95.228573 195.483197 
L 92.956635 195.729723 
L 90.687624 195.976249 
L 88.421934 196.222775 
L 86.159956 196.469301 
L 83.902073 196.715827 
L 81.648657 196.962353 
L 79.400078 197.208879 
L 77.156694 197.455405 
L 74.918857 197.701931 
L 72.68691 197.948457 
L 70.461191 198.194983 
L 68.242028 198.441509 
L 66.029742 198.688035 
L 66.029742 198.688035 
L 66.029742 40798.01503 
L 477.048383 40798.01503 
L 477.048383 40798.01503 
L 477.048383 198.688035 
L 477.048383 198.688035 
L 474.836097 198.441509 
L 472.616934 198.194983 
L 470.391215 197.948457 
L 468.159268 197.701931 
L 465.921431 197.455405 
L 463.678047 197.208879 
L 461.429468 196.962353 
L 459.176052 196.715827 
L 456.918169 196.469301 
L 454.656191 196.222775 
L 452.390501 195.976249 
L 450.12149 195.729723 
L 447.849552 195.483197 
L 445.575093 195.236671 
L 443.298524 194.990145 
L 441.020263 194.743618 
L 438.740734 194.497092 
L 436.46037 194.250566 
L 434.179609 194.00404 
L 431.898896 193.757514 
L 429.618681 193.510988 
L 427.339422 193.264462 
L 425.061581 193.017936 
L 422.785627 192.77141 
L 420.512035 192.524884 
L 418.241283 192.278358 
L 415.973855 192.031832 
L 413.710241 191.785306 
L 411.450933 191.53878 
L 409.19643 191.292254 
L 406.947232 191.045728 
L 404.703846 190.799202 
L 402.466779 190.552676 
L 400.236542 190.30615 
L 398.013651 190.059624 
L 395.79862 189.813098 
L 393.591968 189.566572 
L 391.394216 189.320046 
L 389.205883 189.07352 
L 387.027492 188.826993 
L 384.859565 188.580467 
L 382.702624 188.333941 
L 380.557191 188.087415 
L 378.423787 187.840889 
L 376.302931 187.594363 
L 374.195141 187.347837 
L 372.100933 187.101311 
L 370.020819 186.854785 
L 367.95531 186.608259 
L 365.904911 186.361733 
L 363.870125 186.115207 
L 361.851449 185.868681 
L 359.849375 185.622155 
L 357.864389 185.375629 
L 355.896974 185.129103 
L 353.947601 184.882577 
L 352.016739 184.636051 
L 350.104845 184.389525 
L 348.212372 184.142999 
L 346.339761 183.896473 
L 344.487445 183.649947 
L 342.655847 183.403421 
L 340.845381 183.156895 
L 339.056449 182.910368 
L 337.289442 182.663842 
L 335.544738 182.417316 
L 333.822706 182.17079 
L 332.1237 181.924264 
L 330.44806 181.677738 
L 328.796114 181.431212 
L 327.168177 181.184686 
L 325.564545 180.93816 
L 323.985505 180.691634 
L 322.431323 180.445108 
L 320.902254 180.198582 
L 319.398533 179.952056 
L 317.920382 179.70553 
L 316.468002 179.459004 
L 315.041581 179.212478 
L 313.641288 178.965952 
L 312.267273 178.719426 
L 310.919669 178.4729 
L 309.598592 178.226374 
L 308.304138 177.979848 
L 307.036384 177.733322 
L 305.79539 177.486796 
L 304.581197 177.24027 
L 303.393825 176.993743 
L 302.233277 176.747217 
L 301.099536 176.500691 
L 299.992567 176.254165 
L 298.912315 176.007639 
L 297.858706 175.761113 
L 296.831648 175.514587 
L 295.831029 175.268061 
L 294.85672 175.021535 
L 293.908572 174.775009 
L 292.98642 174.528483 
L 292.090079 174.281957 
L 292.090079 174.281957 
L 292.313716 174.035431 
L 292.542993 173.788906 
L 292.778087 173.54238 
L 293.019183 173.295854 
L 293.266475 173.049329 
L 293.520162 172.802803 
L 293.78045 172.556277 
L 294.047558 172.309751 
L 294.321708 172.063226 
L 294.603134 171.8167 
L 294.892079 171.570174 
L 295.188796 171.323649 
L 295.493547 171.077123 
L 295.806606 170.830597 
L 296.128259 170.584072 
L 296.458801 170.337546 
L 296.798543 170.09102 
L 297.147806 169.844494 
L 297.506927 169.597969 
L 297.876255 169.351443 
L 298.256156 169.104917 
L 298.64701 168.858392 
L 299.049217 168.611866 
L 299.463189 168.36534 
L 299.889362 168.118815 
L 300.328187 167.872289 
L 300.780138 167.625763 
L 301.245708 167.379237 
L 301.725414 167.132712 
L 302.219796 166.886186 
L 302.72942 166.63966 
L 303.254875 166.393135 
L 303.796781 166.146609 
L 304.355786 165.900083 
L 304.932567 165.653558 
L 305.527835 165.407032 
L 306.142335 165.160506 
L 306.776847 164.913981 
L 307.43219 164.667455 
L 308.109223 164.420929 
L 308.808845 164.174403 
L 309.532004 163.927878 
L 310.279691 163.681352 
L 311.05295 163.434826 
L 311.852876 163.188301 
L 312.680623 162.941775 
L 313.5374 162.695249 
L 314.424482 162.448724 
L 315.343211 162.202198 
L 316.294997 161.955672 
L 317.281327 161.709146 
L 318.303767 161.462621 
L 319.363966 161.216095 
L 320.463665 160.969569 
L 321.604699 160.723044 
L 322.789002 160.476518 
L 324.018619 160.229992 
L 325.295707 159.983467 
L 326.622547 159.736941 
L 328.001546 159.490415 
L 329.435251 159.243889 
L 330.926357 158.997364 
L 332.477714 158.750838 
L 334.092339 158.504312 
L 335.773428 158.257787 
L 337.524367 158.011261 
L 339.348745 157.764735 
L 341.25037 157.51821 
L 343.233279 157.271684 
L 345.301759 157.025158 
L 347.460363 156.778632 
L 349.713927 156.532107 
L 352.067594 156.285581 
L 354.52683 156.039055 
L 357.097453 155.79253 
L 359.785658 155.546004 
L 362.59804 155.299478 
L 365.541629 155.052953 
L 368.623918 154.806427 
L 371.852902 154.559901 
L 375.237113 154.313376 
L 378.785662 154.06685 
L 382.508282 153.820324 
L 386.415379 153.573798 
L 390.518082 153.327273 
L 394.828303 153.080747 
L 399.358795 152.834221 
L 404.123222 152.587696 
L 409.136231 152.34117 
L 414.413536 152.094644 
L 419.971999 151.848119 
L 425.829729 151.601593 
L 432.006186 151.355067 
L 438.522294 151.108541 
L 445.400562 150.862016 
L 452.665227 150.61549 
L 460.342393 150.368964 
L 468.460201 150.122439 
L 477.049006 149.875913 
L 477.049006 149.875913 
L 474.836706 149.629387 
L 472.61753 149.382861 
L 470.391798 149.136335 
L 468.159838 148.889809 
L 465.921988 148.643283 
L 463.67859 148.396756 
L 461.429998 148.15023 
L 459.17657 147.903704 
L 456.918673 147.657178 
L 454.656683 147.410652 
L 452.39098 147.164126 
L 450.121956 146.9176 
L 447.850005 146.671074 
L 445.575534 146.424548 
L 443.298952 146.178022 
L 441.020678 145.931496 
L 438.741137 145.68497 
L 436.460761 145.438444 
L 434.179988 145.191917 
L 431.899262 144.945391 
L 429.619035 144.698865 
L 427.339764 144.452339 
L 425.061912 144.205813 
L 422.785946 143.959287 
L 420.512342 143.712761 
L 418.241578 143.466235 
L 415.974139 143.219709 
L 413.710514 142.973183 
L 411.451195 142.726657 
L 409.196681 142.480131 
L 406.947472 142.233604 
L 404.704075 141.987078 
L 402.466998 141.740552 
L 400.236751 141.494026 
L 398.013849 141.2475 
L 395.798808 141.000974 
L 393.592146 140.754448 
L 391.394384 140.507922 
L 389.206041 140.261396 
L 387.027641 140.01487 
L 384.859704 139.768344 
L 382.702754 139.521818 
L 380.557312 139.275292 
L 378.423899 139.028765 
L 376.303034 138.782239 
L 374.195236 138.535713 
L 372.101019 138.289187 
L 370.020898 138.042661 
L 367.95538 137.796135 
L 365.904974 137.549609 
L 363.87018 137.303083 
L 361.851496 137.056557 
L 359.849415 136.810031 
L 357.864423 136.563505 
L 355.897 136.316979 
L 353.947621 136.070452 
L 352.016752 135.823926 
L 350.104853 135.5774 
L 348.212374 135.330874 
L 346.339757 135.084348 
L 344.487435 134.837822 
L 342.655832 134.591296 
L 340.845361 134.34477 
L 339.056424 134.098244 
L 337.289412 133.851718 
L 335.544704 133.605192 
L 333.822668 133.358666 
L 332.123657 133.11214 
L 330.448013 132.865613 
L 328.796064 132.619087 
L 327.168122 132.372561 
L 325.564488 132.126035 
L 323.985444 131.879509 
L 322.431259 131.632983 
L 320.902187 131.386457 
L 319.398464 131.139931 
L 317.92031 130.893405 
L 316.467928 130.646879 
L 315.041505 130.400353 
L 313.64121 130.153827 
L 312.267193 129.9073 
L 310.919588 129.660774 
L 309.598509 129.414248 
L 308.304054 129.167722 
L 307.036299 128.921196 
L 305.795305 128.67467 
L 304.58111 128.428144 
L 303.393738 128.181618 
L 302.23319 127.935092 
L 301.099449 127.688566 
L 299.992479 127.44204 
L 298.912227 127.195514 
L 297.858618 126.948988 
L 296.83156 126.702461 
L 295.830942 126.455935 
L 294.856633 126.209409 
L 293.908486 125.962883 
L 292.986334 125.716357 
L 292.089994 125.469831 
L 292.089994 125.469831 
L 292.31363 125.223305 
L 292.542905 124.97678 
L 292.777998 124.730254 
L 293.019093 124.483728 
L 293.266384 124.237203 
L 293.520069 123.990677 
L 293.780356 123.744152 
L 294.047462 123.497626 
L 294.32161 123.2511 
L 294.603035 123.004575 
L 294.891978 122.758049 
L 295.188693 122.511523 
L 295.493443 122.264998 
L 295.8065 122.018472 
L 296.128151 121.771946 
L 296.458692 121.525421 
L 296.798431 121.278895 
L 297.147692 121.032369 
L 297.506811 120.785844 
L 297.876137 120.539318 
L 298.256035 120.292792 
L 298.646887 120.046267 
L 299.049091 119.799741 
L 299.463062 119.553215 
L 299.889232 119.30669 
L 300.328054 119.060164 
L 300.780002 118.813639 
L 301.245569 118.567113 
L 301.725272 118.320587 
L 302.219652 118.074062 
L 302.729272 117.827536 
L 303.254724 117.58101 
L 303.796627 117.334485 
L 304.355628 117.087959 
L 304.932405 116.841433 
L 305.52767 116.594908 
L 306.142166 116.348382 
L 306.776674 116.101856 
L 307.432013 115.855331 
L 308.109041 115.608805 
L 308.808658 115.362279 
L 309.531812 115.115754 
L 310.279494 114.869228 
L 311.052748 114.622702 
L 311.852669 114.376177 
L 312.68041 114.129651 
L 313.537182 113.883126 
L 314.424258 113.6366 
L 315.342981 113.390074 
L 316.29476 113.143549 
L 317.281083 112.897023 
L 318.303516 112.650497 
L 319.363708 112.403972 
L 320.463399 112.157446 
L 321.604425 111.91092 
L 322.78872 111.664395 
L 324.018328 111.417869 
L 325.295407 111.171343 
L 326.622237 110.924818 
L 328.001226 110.678292 
L 329.434921 110.431766 
L 330.926016 110.185241 
L 332.477361 109.938715 
L 334.091974 109.692189 
L 335.773051 109.445664 
L 337.523977 109.199138 
L 339.348341 108.952613 
L 341.249952 108.706087 
L 343.232845 108.459561 
L 345.30131 108.213036 
L 347.459897 107.96651 
L 349.713444 107.719984 
L 352.067092 107.473459 
L 354.526308 107.226933 
L 357.096912 106.980407 
L 359.785095 106.733882 
L 362.597454 106.487356 
L 365.541019 106.24083 
L 368.623283 105.994305 
L 371.852241 105.747779 
L 375.236424 105.501253 
L 378.784943 105.254728 
L 382.507532 105.008202 
L 386.414596 104.761676 
L 390.517264 104.515151 
L 394.827448 104.268625 
L 399.357901 104.0221 
L 404.122286 103.775574 
L 409.135252 103.529048 
L 414.41251 103.282523 
L 419.970924 103.035997 
L 425.828601 102.789471 
L 432.005003 102.542946 
L 438.521051 102.29642 
L 445.399257 102.049894 
L 452.663854 101.803369 
L 460.340949 101.556843 
L 468.458681 101.310317 
L 477.047405 101.063792 
L 477.047405 101.063792 
L 474.835123 100.817266 
L 472.615965 100.57074 
L 470.39025 100.324214 
L 468.158309 100.077688 
L 465.920477 99.831162 
L 463.677098 99.584636 
L 461.428524 99.33811 
L 459.175114 99.091585 
L 456.917236 98.845059 
L 454.655264 98.598533 
L 452.38958 98.352007 
L 450.120574 98.105481 
L 447.848642 97.858955 
L 445.574189 97.612429 
L 443.297626 97.365903 
L 441.019371 97.119377 
L 438.739849 96.872852 
L 436.459491 96.626326 
L 434.178737 96.3798 
L 431.89803 96.133274 
L 429.617822 95.886748 
L 427.338569 95.640222 
L 425.060736 95.393696 
L 422.784789 95.14717 
L 420.511204 94.900644 
L 418.240458 94.654119 
L 415.973038 94.407593 
L 413.709431 94.161067 
L 411.450131 93.914541 
L 409.195635 93.668015 
L 406.946445 93.421489 
L 404.703067 93.174963 
L 402.466008 92.928437 
L 400.235779 92.681911 
L 398.012895 92.435386 
L 395.797873 92.18886 
L 393.591229 91.942334 
L 391.393485 91.695808 
L 389.20516 91.449282 
L 387.026778 91.202756 
L 384.858859 90.95623 
L 382.701927 90.709704 
L 380.556503 90.463178 
L 378.423107 90.216653 
L 376.30226 89.970127 
L 374.194478 89.723601 
L 372.100279 89.477075 
L 370.020174 89.230549 
L 367.954674 88.984023 
L 365.904284 88.737497 
L 363.869507 88.490971 
L 361.85084 88.244445 
L 359.848775 87.99792 
L 357.863799 87.751394 
L 355.896392 87.504868 
L 353.947029 87.258342 
L 352.016176 87.011816 
L 350.104292 86.76529 
L 348.211828 86.518764 
L 346.339226 86.272238 
L 344.486919 86.025712 
L 342.655331 85.779187 
L 340.844874 85.532661 
L 339.055952 85.286135 
L 337.288954 85.039609 
L 335.54426 84.793083 
L 333.822237 84.546557 
L 332.12324 84.300031 
L 330.447609 84.053505 
L 328.795673 83.806979 
L 327.167744 83.560454 
L 325.564122 83.313928 
L 323.985091 83.067402 
L 322.430919 82.820876 
L 320.901858 82.57435 
L 319.398147 82.327824 
L 317.920004 82.081298 
L 316.467634 81.834772 
L 315.041222 81.588246 
L 313.640937 81.341721 
L 312.266931 81.095195 
L 310.919336 80.848669 
L 309.598268 80.602143 
L 308.303822 80.355617 
L 307.036077 80.109091 
L 305.795091 79.862565 
L 304.580906 79.616039 
L 303.393543 79.369513 
L 302.233003 79.122988 
L 301.09927 78.876462 
L 299.992309 78.629936 
L 298.912065 78.38341 
L 297.858463 78.136884 
L 296.831413 77.890358 
L 295.830801 77.643832 
L 294.8565 77.397306 
L 293.908359 77.15078 
L 292.986214 76.904255 
L 292.08988 76.657729 
L 292.089995 76.657729 
L 292.089995 30.716692 
z
" style="fill:#1f77b4;fill-opacity:0.5;"/>
   </g>
   <g id="patch_3">
    <path clip-path="url(#pd0986d773c)" d="M 250.98813 30.716692 
L 250.98813 76.657729 
L 250.988245 76.657729 
L 245.219662 78.136884 
L 238.497219 79.616039 
L 230.811194 81.095195 
L 220.647206 82.820876 
L 207.533865 84.793083 
L 191.061949 87.011816 
L 170.977846 89.477075 
L 142.842346 92.681911 
L 77.157648 99.831162 
L 66.03072 101.063792 
L 97.678868 102.049894 
L 123.107201 103.035997 
L 143.720224 104.0221 
L 160.570593 105.008202 
L 177.537106 106.24083 
L 191.011033 107.473459 
L 201.828173 108.706087 
L 210.600764 109.938715 
L 217.782718 111.171343 
L 223.714417 112.403972 
L 228.653867 113.6366 
L 232.798631 114.869228 
L 236.935959 116.348382 
L 240.348853 117.827536 
L 243.188893 119.30669 
L 245.571314 120.785844 
L 247.889432 122.511523 
L 249.811741 124.237203 
L 250.988131 125.469831 
L 250.988131 125.469831 
L 245.219507 126.948988 
L 238.497015 128.428144 
L 230.810932 129.9073 
L 220.646866 131.632983 
L 207.533421 133.605192 
L 191.061373 135.823926 
L 170.977106 138.289187 
L 142.841374 141.494026 
L 77.156137 148.643283 
L 66.029119 149.875913 
L 97.677563 150.862016 
L 123.106126 151.848119 
L 143.71933 152.834221 
L 160.569843 153.820324 
L 177.536496 155.052953 
L 191.010531 156.285581 
L 201.827755 157.51821 
L 210.600411 158.750838 
L 217.782418 159.983467 
L 223.714159 161.216095 
L 228.653643 162.448724 
L 232.798434 163.681352 
L 236.93579 165.160506 
L 240.348705 166.63966 
L 243.188763 168.118815 
L 245.571198 169.597969 
L 247.889329 171.323649 
L 249.81165 173.049329 
L 250.988046 174.281957 
L 250.988046 174.281957 
L 245.219419 175.761113 
L 238.496928 177.24027 
L 230.810852 178.719426 
L 220.646802 180.445108 
L 207.533387 182.417316 
L 191.061386 184.636051 
L 170.977192 187.101311 
L 142.841583 190.30615 
L 77.156694 197.455405 
L 66.029742 198.688035 
L 66.029742 198.688035 
L 66.029742 40798.01503 
M 292.089995 30.716692 
L 292.089995 76.657729 
L 292.08988 76.657729 
L 297.858463 78.136884 
L 304.580906 79.616039 
L 312.266931 81.095195 
L 322.430919 82.820876 
L 335.54426 84.793083 
L 352.016176 87.011816 
L 372.100279 89.477075 
L 400.235779 92.681911 
L 465.920477 99.831162 
L 477.047405 101.063792 
L 445.399257 102.049894 
L 419.970924 103.035997 
L 399.357901 104.0221 
L 382.507532 105.008202 
L 365.541019 106.24083 
L 352.067092 107.473459 
L 341.249952 108.706087 
L 332.477361 109.938715 
L 325.295407 111.171343 
L 319.363708 112.403972 
L 314.424258 113.6366 
L 310.279494 114.869228 
L 306.142166 116.348382 
L 302.729272 117.827536 
L 299.889232 119.30669 
L 297.506811 120.785844 
L 295.188693 122.511523 
L 293.266384 124.237203 
L 292.089994 125.469831 
L 292.089994 125.469831 
L 297.858618 126.948988 
L 304.58111 128.428144 
L 312.267193 129.9073 
L 322.431259 131.632983 
L 335.544704 133.605192 
L 352.016752 135.823926 
L 372.101019 138.289187 
L 400.236751 141.494026 
L 465.921988 148.643283 
L 477.049006 149.875913 
L 445.400562 150.862016 
L 419.971999 151.848119 
L 399.358795 152.834221 
L 382.508282 153.820324 
L 365.541629 155.052953 
L 352.067594 156.285581 
L 341.25037 157.51821 
L 332.477714 158.750838 
L 325.295707 159.983467 
L 319.363966 161.216095 
L 314.424482 162.448724 
L 310.279691 163.681352 
L 306.142335 165.160506 
L 302.72942 166.63966 
L 299.889362 168.118815 
L 297.506927 169.597969 
L 295.188796 171.323649 
L 293.266475 173.049329 
L 292.090079 174.281957 
L 292.090079 174.281957 
L 297.858706 175.761113 
L 304.581197 177.24027 
L 312.267273 178.719426 
L 322.431323 180.445108 
L 335.544738 182.417316 
L 352.016739 184.636051 
L 372.100933 187.101311 
L 400.236542 190.30615 
L 465.921431 197.455405 
L 477.048383 198.688035 
L 477.048383 198.688035 
L 477.048383 40798.01503 
L 477.048383 40798.01503 
" style="fill:none;stroke:#ffffff;stroke-linejoin:miter;stroke-width:3;"/>
    <path clip-path="url(#pd0986d773c)" d="M 250.98813 30.716692 
L 250.98813 76.657729 
L 250.988245 76.657729 
L 245.219662 78.136884 
L 238.497219 79.616039 
L 230.811194 81.095195 
L 220.647206 82.820876 
L 207.533865 84.793083 
L 191.061949 87.011816 
L 170.977846 89.477075 
L 142.842346 92.681911 
L 77.157648 99.831162 
L 66.03072 101.063792 
L 97.678868 102.049894 
L 123.107201 103.035997 
L 143.720224 104.0221 
L 160.570593 105.008202 
L 177.537106 106.24083 
L 191.011033 107.473459 
L 201.828173 108.706087 
L 210.600764 109.938715 
L 217.782718 111.171343 
L 223.714417 112.403972 
L 228.653867 113.6366 
L 232.798631 114.869228 
L 236.935959 116.348382 
L 240.348853 117.827536 
L 243.188893 119.30669 
L 245.571314 120.785844 
L 247.889432 122.511523 
L 249.811741 124.237203 
L 250.988131 125.469831 
L 250.988131 125.469831 
L 245.219507 126.948988 
L 238.497015 128.428144 
L 230.810932 129.9073 
L 220.646866 131.632983 
L 207.533421 133.605192 
L 191.061373 135.823926 
L 170.977106 138.289187 
L 142.841374 141.494026 
L 77.156137 148.643283 
L 66.029119 149.875913 
L 97.677563 150.862016 
L 123.106126 151.848119 
L 143.71933 152.834221 
L 160.569843 153.820324 
L 177.536496 155.052953 
L 191.010531 156.285581 
L 201.827755 157.51821 
L 210.600411 158.750838 
L 217.782418 159.983467 
L 223.714159 161.216095 
L 228.653643 162.448724 
L 232.798434 163.681352 
L 236.93579 165.160506 
L 240.348705 166.63966 
L 243.188763 168.118815 
L 245.571198 169.597969 
L 247.889329 171.323649 
L 249.81165 173.049329 
L 250.988046 174.281957 
L 250.988046 174.281957 
L 245.219419 175.761113 
L 238.496928 177.24027 
L 230.810852 178.719426 
L 220.646802 180.445108 
L 207.533387 182.417316 
L 191.061386 184.636051 
L 170.977192 187.101311 
L 142.841583 190.30615 
L 77.156694 197.455405 
L 66.029742 198.688035 
L 66.029742 198.688035 
L 66.029742 40798.01503 
M 292.089995 30.716692 
L 292.089995 76.657729 
L 292.08988 76.657729 
L 297.858463 78.136884 
L 304.580906 79.616039 
L 312.266931 81.095195 
L 322.430919 82.820876 
L 335.54426 84.793083 
L 352.016176 87.011816 
L 372.100279 89.477075 
L 400.235779 92.681911 
L 465.920477 99.831162 
L 477.047405 101.063792 
L 445.399257 102.049894 
L 419.970924 103.035997 
L 399.357901 104.0221 
L 382.507532 105.008202 
L 365.541019 106.24083 
L 352.067092 107.473459 
L 341.249952 108.706087 
L 332.477361 109.938715 
L 325.295407 111.171343 
L 319.363708 112.403972 
L 314.424258 113.6366 
L 310.279494 114.869228 
L 306.142166 116.348382 
L 302.729272 117.827536 
L 299.889232 119.30669 
L 297.506811 120.785844 
L 295.188693 122.511523 
L 293.266384 124.237203 
L 292.089994 125.469831 
L 292.089994 125.469831 
L 297.858618 126.948988 
L 304.58111 128.428144 
L 312.267193 129.9073 
L 322.431259 131.632983 
L 335.544704 133.605192 
L 352.016752 135.823926 
L 372.101019 138.289187 
L 400.236751 141.494026 
L 465.921988 148.643283 
L 477.049006 149.875913 
L 445.400562 150.862016 
L 419.971999 151.848119 
L 399.358795 152.834221 
L 382.508282 153.820324 
L 365.541629 155.052953 
L 352.067594 156.285581 
L 341.25037 157.51821 
L 332.477714 158.750838 
L 325.295707 159.983467 
L 319.363966 161.216095 
L 314.424482 162.448724 
L 310.279691 163.681352 
L 306.142335 165.160506 
L 302.72942 166.63966 
L 299.889362 168.118815 
L 297.506927 169.597969 
L 295.188796 171.323649 
L 293.266475 173.049329 
L 292.090079 174.281957 
L 292.090079 174.281957 
L 297.858706 175.761113 
L 304.581197 177.24027 
L 312.267273 178.719426 
L 322.431323 180.445108 
L 335.544738 182.417316 
L 352.016739 184.636051 
L 372.100933 187.101311 
L 400.236542 190.30615 
L 465.921431 197.455405 
L 477.048383 198.688035 
L 477.048383 198.688035 
L 477.048383 40798.01503 
L 477.048383 40798.01503 
" style="fill:none;stroke:#1f77b4;stroke-linejoin:miter;"/>
    <g id="matplotlib.axis_1">
     <g id="xtick_1">
      <g id="line2d_1"/>
      <g id="text_1">
       <!-- generic -->
       <g transform="translate(252.849219 271.520312)scale(0.1 -0.1)">
        <defs>
         <path d="M 45.40625 27.984375 
Q 45.40625 37.75 41.375 43.109375 
Q 37.359375 48.484375 30.078125 48.484375 
Q 22.859375 48.484375 18.828125 43.109375 
Q 14.796875 37.75 14.796875 27.984375 
Q 14.796875 18.265625 18.828125 12.890625 
Q 22.859375 7.515625 30.078125 7.515625 
Q 37.359375 7.515625 41.375 12.890625 
Q 45.40625 18.265625 45.40625 27.984375 
z
M 54.390625 6.78125 
Q 54.390625 -7.171875 48.1875 -13.984375 
Q 42 -20.796875 29.203125 -20.796875 
Q 24.46875 -20.796875 20.265625 -20.09375 
Q 16.0625 -19.390625 12.109375 -17.921875 
L 12.109375 -9.1875 
Q 16.0625 -11.328125 19.921875 -12.34375 
Q 23.78125 -13.375 27.78125 -13.375 
Q 36.625 -13.375 41.015625 -8.765625 
Q 45.40625 -4.15625 45.40625 5.171875 
L 45.40625 9.625 
Q 42.625 4.78125 38.28125 2.390625 
Q 33.9375 0 27.875 0 
Q 17.828125 0 11.671875 7.65625 
Q 5.515625 15.328125 5.515625 27.984375 
Q 5.515625 40.671875 11.671875 48.328125 
Q 17.828125 56 27.875 56 
Q 33.9375 56 38.28125 53.609375 
Q 42.625 51.21875 45.40625 46.390625 
L 45.40625 54.6875 
L 54.390625 54.6875 
z
" id="DejaVuSans-103"/>
         <path d="M 56.203125 29.59375 
L 56.203125 25.203125 
L 14.890625 25.203125 
Q 15.484375 15.921875 20.484375 11.0625 
Q 25.484375 6.203125 34.421875 6.203125 
Q 39.59375 6.203125 44.453125 7.46875 
Q 49.3125 8.734375 54.109375 11.28125 
L 54.109375 2.78125 
Q 49.265625 0.734375 44.1875 -0.34375 
Q 39.109375 -1.421875 33.890625 -1.421875 
Q 20.796875 -1.421875 13.15625 6.1875 
Q 5.515625 13.8125 5.515625 26.8125 
Q 5.515625 40.234375 12.765625 48.109375 
Q 20.015625 56 32.328125 56 
Q 43.359375 56 49.78125 48.890625 
Q 56.203125 41.796875 56.203125 29.59375 
z
M 47.21875 32.234375 
Q 47.125 39.59375 43.09375 43.984375 
Q 39.0625 48.390625 32.421875 48.390625 
Q 24.90625 48.390625 20.390625 44.140625 
Q 15.875 39.890625 15.1875 32.171875 
z
" id="DejaVuSans-101"/>
         <path d="M 54.890625 33.015625 
L 54.890625 0 
L 45.90625 0 
L 45.90625 32.71875 
Q 45.90625 40.484375 42.875 44.328125 
Q 39.84375 48.1875 33.796875 48.1875 
Q 26.515625 48.1875 22.3125 43.546875 
Q 18.109375 38.921875 18.109375 30.90625 
L 18.109375 0 
L 9.078125 0 
L 9.078125 54.6875 
L 18.109375 54.6875 
L 18.109375 46.1875 
Q 21.34375 51.125 25.703125 53.5625 
Q 30.078125 56 35.796875 56 
Q 45.21875 56 50.046875 50.171875 
Q 54.890625 44.34375 54.890625 33.015625 
z
" id="DejaVuSans-110"/>
         <path d="M 41.109375 46.296875 
Q 39.59375 47.171875 37.8125 47.578125 
Q 36.03125 48 33.890625 48 
Q 26.265625 48 22.1875 43.046875 
Q 18.109375 38.09375 18.109375 28.8125 
L 18.109375 0 
L 9.078125 0 
L 9.078125 54.6875 
L 18.109375 54.6875 
L 18.109375 46.1875 
Q 20.953125 51.171875 25.484375 53.578125 
Q 30.03125 56 36.53125 56 
Q 37.453125 56 38.578125 55.875 
Q 39.703125 55.765625 41.0625 55.515625 
z
" id="DejaVuSans-114"/>
         <path d="M 9.421875 54.6875 
L 18.40625 54.6875 
L 18.40625 0 
L 9.421875 0 
z
M 9.421875 75.984375 
L 18.40625 75.984375 
L 18.40625 64.59375 
L 9.421875 64.59375 
z
" id="DejaVuSans-105"/>
         <path d="M 48.78125 52.59375 
L 48.78125 44.1875 
Q 44.96875 46.296875 41.140625 47.34375 
Q 37.3125 48.390625 33.40625 48.390625 
Q 24.65625 48.390625 19.8125 42.84375 
Q 14.984375 37.3125 14.984375 27.296875 
Q 14.984375 17.28125 19.8125 11.734375 
Q 24.65625 6.203125 33.40625 6.203125 
Q 37.3125 6.203125 41.140625 7.25 
Q 44.96875 8.296875 48.78125 10.40625 
L 48.78125 2.09375 
Q 45.015625 0.34375 40.984375 -0.53125 
Q 36.96875 -1.421875 32.421875 -1.421875 
Q 20.0625 -1.421875 12.78125 6.34375 
Q 5.515625 14.109375 5.515625 27.296875 
Q 5.515625 40.671875 12.859375 48.328125 
Q 20.21875 56 33.015625 56 
Q 37.15625 56 41.109375 55.140625 
Q 45.0625 54.296875 48.78125 52.59375 
z
" id="DejaVuSans-99"/>
        </defs>
        <use xlink:href="#DejaVuSans-103"/>
        <use x="63.476562" xlink:href="#DejaVuSans-101"/>
        <use x="125" xlink:href="#DejaVuSans-110"/>
        <use x="188.378906" xlink:href="#DejaVuSans-101"/>
        <use x="249.902344" xlink:href="#DejaVuSans-114"/>
        <use x="291.015625" xlink:href="#DejaVuSans-105"/>
        <use x="318.798828" xlink:href="#DejaVuSans-99"/>
       </g>
      </g>
     </g>
    </g>
    <g id="matplotlib.axis_2">
     <g id="ytick_1">
      <g id="line2d_2">
       <defs>
        <path d="M 0 0 
L -3.5 0 
" id="m3c97bb09b8" style="stroke:#000000;stroke-width:0.8;"/>
       </defs>
       <g>
        <use style="stroke:#000000;stroke-width:0.8;" x="45.478125" xlink:href="#m3c97bb09b8" y="260.421875"/>
       </g>
      </g>
      <g id="text_2">
       <!-- $\mathdefault{10^{0}}$ -->
       <g transform="translate(20.878125 264.221094)scale(0.1 -0.1)">
        <defs>
         <path d="M 12.40625 8.296875 
L 28.515625 8.296875 
L 28.515625 63.921875 
L 10.984375 60.40625 
L 10.984375 69.390625 
L 28.421875 72.90625 
L 38.28125 72.90625 
L 38.28125 8.296875 
L 54.390625 8.296875 
L 54.390625 0 
L 12.40625 0 
z
" id="DejaVuSans-49"/>
         <path d="M 31.78125 66.40625 
Q 24.171875 66.40625 20.328125 58.90625 
Q 16.5 51.421875 16.5 36.375 
Q 16.5 21.390625 20.328125 13.890625 
Q 24.171875 6.390625 31.78125 6.390625 
Q 39.453125 6.390625 43.28125 13.890625 
Q 47.125 21.390625 47.125 36.375 
Q 47.125 51.421875 43.28125 58.90625 
Q 39.453125 66.40625 31.78125 66.40625 
z
M 31.78125 74.21875 
Q 44.046875 74.21875 50.515625 64.515625 
Q 56.984375 54.828125 56.984375 36.375 
Q 56.984375 17.96875 50.515625 8.265625 
Q 44.046875 -1.421875 31.78125 -1.421875 
Q 19.53125 -1.421875 13.0625 8.265625 
Q 6.59375 17.96875 6.59375 36.375 
Q 6.59375 54.828125 13.0625 64.515625 
Q 19.53125 74.21875 31.78125 74.21875 
z
" id="DejaVuSans-48"/>
        </defs>
        <use transform="translate(0 0.765625)" xlink:href="#DejaVuSans-49"/>
        <use transform="translate(63.623047 0.765625)" xlink:href="#DejaVuSans-48"/>
        <use transform="translate(128.203125 39.046875)scale(0.7)" xlink:href="#DejaVuSans-48"/>
       </g>
      </g>
     </g>
     <g id="ytick_2">
      <g id="line2d_3">
       <g>
        <use style="stroke:#000000;stroke-width:0.8;" x="45.478125" xlink:href="#m3c97bb09b8" y="219.884282"/>
       </g>
      </g>
      <g id="text_3">
       <!-- $\mathdefault{10^{1}}$ -->
       <g transform="translate(20.878125 223.683501)scale(0.1 -0.1)">
        <use transform="translate(0 0.684375)" xlink:href="#DejaVuSans-49"/>
        <use transform="translate(63.623047 0.684375)" xlink:href="#DejaVuSans-48"/>
        <use transform="translate(128.203125 38.965625)scale(0.7)" xlink:href="#DejaVuSans-49"/>
       </g>
      </g>
     </g>
     <g id="ytick_3">
      <g id="line2d_4">
       <g>
        <use style="stroke:#000000;stroke-width:0.8;" x="45.478125" xlink:href="#m3c97bb09b8" y="179.346689"/>
       </g>
      </g>
      <g id="text_4">
       <!-- $\mathdefault{10^{2}}$ -->
       <g transform="translate(20.878125 183.145907)scale(0.1 -0.1)">
        <defs>
         <path d="M 19.1875 8.296875 
L 53.609375 8.296875 
L 53.609375 0 
L 7.328125 0 
L 7.328125 8.296875 
Q 12.9375 14.109375 22.625 23.890625 
Q 32.328125 33.6875 34.8125 36.53125 
Q 39.546875 41.84375 41.421875 45.53125 
Q 43.3125 49.21875 43.3125 52.78125 
Q 43.3125 58.59375 39.234375 62.25 
Q 35.15625 65.921875 28.609375 65.921875 
Q 23.96875 65.921875 18.8125 64.3125 
Q 13.671875 62.703125 7.8125 59.421875 
L 7.8125 69.390625 
Q 13.765625 71.78125 18.9375 73 
Q 24.125 74.21875 28.421875 74.21875 
Q 39.75 74.21875 46.484375 68.546875 
Q 53.21875 62.890625 53.21875 53.421875 
Q 53.21875 48.921875 51.53125 44.890625 
Q 49.859375 40.875 45.40625 35.40625 
Q 44.1875 33.984375 37.640625 27.21875 
Q 31.109375 20.453125 19.1875 8.296875 
z
" id="DejaVuSans-50"/>
        </defs>
        <use transform="translate(0 0.765625)" xlink:href="#DejaVuSans-49"/>
        <use transform="translate(63.623047 0.765625)" xlink:href="#DejaVuSans-48"/>
        <use transform="translate(128.203125 39.046875)scale(0.7)" xlink:href="#DejaVuSans-50"/>
       </g>
      </g>
     </g>
     <g id="ytick_4">
      <g id="line2d_5">
       <g>
        <use style="stroke:#000000;stroke-width:0.8;" x="45.478125" xlink:href="#m3c97bb09b8" y="138.809096"/>
       </g>
      </g>
      <g id="text_5">
       <!-- $\mathdefault{10^{3}}$ -->
       <g transform="translate(20.878125 142.608314)scale(0.1 -0.1)">
        <defs>
         <path d="M 40.578125 39.3125 
Q 47.65625 37.796875 51.625 33 
Q 55.609375 28.21875 55.609375 21.1875 
Q 55.609375 10.40625 48.1875 4.484375 
Q 40.765625 -1.421875 27.09375 -1.421875 
Q 22.515625 -1.421875 17.65625 -0.515625 
Q 12.796875 0.390625 7.625 2.203125 
L 7.625 11.71875 
Q 11.71875 9.328125 16.59375 8.109375 
Q 21.484375 6.890625 26.8125 6.890625 
Q 36.078125 6.890625 40.9375 10.546875 
Q 45.796875 14.203125 45.796875 21.1875 
Q 45.796875 27.640625 41.28125 31.265625 
Q 36.765625 34.90625 28.71875 34.90625 
L 20.21875 34.90625 
L 20.21875 43.015625 
L 29.109375 43.015625 
Q 36.375 43.015625 40.234375 45.921875 
Q 44.09375 48.828125 44.09375 54.296875 
Q 44.09375 59.90625 40.109375 62.90625 
Q 36.140625 65.921875 28.71875 65.921875 
Q 24.65625 65.921875 20.015625 65.03125 
Q 15.375 64.15625 9.8125 62.3125 
L 9.8125 71.09375 
Q 15.4375 72.65625 20.34375 73.4375 
Q 25.25 74.21875 29.59375 74.21875 
Q 40.828125 74.21875 47.359375 69.109375 
Q 53.90625 64.015625 53.90625 55.328125 
Q 53.90625 49.265625 50.4375 45.09375 
Q 46.96875 40.921875 40.578125 39.3125 
z
" id="DejaVuSans-51"/>
        </defs>
        <use transform="translate(0 0.765625)" xlink:href="#DejaVuSans-49"/>
        <use transform="translate(63.623047 0.765625)" xlink:href="#DejaVuSans-48"/>
        <use transform="translate(128.203125 39.046875)scale(0.7)" xlink:href="#DejaVuSans-51"/>
       </g>
      </g>
     </g>
     <g id="ytick_5">
      <g id="line2d_6">
       <g>
        <use style="stroke:#000000;stroke-width:0.8;" x="45.478125" xlink:href="#m3c97bb09b8" y="98.271502"/>
       </g>
      </g>
      <g id="text_6">
       <!-- $\mathdefault{10^{4}}$ -->
       <g transform="translate(20.878125 102.070721)scale(0.1 -0.1)">
        <defs>
         <path d="M 37.796875 64.3125 
L 12.890625 25.390625 
L 37.796875 25.390625 
z
M 35.203125 72.90625 
L 47.609375 72.90625 
L 47.609375 25.390625 
L 58.015625 25.390625 
L 58.015625 17.1875 
L 47.609375 17.1875 
L 47.609375 0 
L 37.796875 0 
L 37.796875 17.1875 
L 4.890625 17.1875 
L 4.890625 26.703125 
z
" id="DejaVuSans-52"/>
        </defs>
        <use transform="translate(0 0.684375)" xlink:href="#DejaVuSans-49"/>
        <use transform="translate(63.623047 0.684375)" xlink:href="#DejaVuSans-48"/>
        <use transform="translate(128.203125 38.965625)scale(0.7)" xlink:href="#DejaVuSans-52"/>
       </g>
      </g>
     </g>
     <g id="ytick_6">
      <g id="line2d_7">
       <g>
        <use style="stroke:#000000;stroke-width:0.8;" x="45.478125" xlink:href="#m3c97bb09b8" y="57.733909"/>
       </g>
      </g>
      <g id="text_7">
       <!-- $\mathdefault{10^{5}}$ -->
       <g transform="translate(20.878125 61.533128)scale(0.1 -0.1)">
        <defs>
         <path d="M 10.796875 72.90625 
L 49.515625 72.90625 
L 49.515625 64.59375 
L 19.828125 64.59375 
L 19.828125 46.734375 
Q 21.96875 47.46875 24.109375 47.828125 
Q 26.265625 48.1875 28.421875 48.1875 
Q 40.625 48.1875 47.75 41.5 
Q 54.890625 34.8125 54.890625 23.390625 
Q 54.890625 11.625 47.5625 5.09375 
Q 40.234375 -1.421875 26.90625 -1.421875 
Q 22.3125 -1.421875 17.546875 -0.640625 
Q 12.796875 0.140625 7.71875 1.703125 
L 7.71875 11.625 
Q 12.109375 9.234375 16.796875 8.0625 
Q 21.484375 6.890625 26.703125 6.890625 
Q 35.15625 6.890625 40.078125 11.328125 
Q 45.015625 15.765625 45.015625 23.390625 
Q 45.015625 31 40.078125 35.4375 
Q 35.15625 39.890625 26.703125 39.890625 
Q 22.75 39.890625 18.8125 39.015625 
Q 14.890625 38.140625 10.796875 36.28125 
z
" id="DejaVuSans-53"/>
        </defs>
        <use transform="translate(0 0.684375)" xlink:href="#DejaVuSans-49"/>
        <use transform="translate(63.623047 0.684375)" xlink:href="#DejaVuSans-48"/>
        <use transform="translate(128.203125 38.965625)scale(0.7)" xlink:href="#DejaVuSans-53"/>
       </g>
      </g>
     </g>
     <g id="ytick_7">
      <g id="line2d_8">
       <defs>
        <path d="M 0 0 
L -2 0 
" id="m1898aff0e3" style="stroke:#000000;stroke-width:0.6;"/>
       </defs>
       <g>
        <use style="stroke:#000000;stroke-width:0.6;" x="45.478125" xlink:href="#m1898aff0e3" y="248.218844"/>
       </g>
      </g>
     </g>
     <g id="ytick_8">
      <g id="line2d_9">
       <g>
        <use style="stroke:#000000;stroke-width:0.6;" x="45.478125" xlink:href="#m1898aff0e3" y="241.080528"/>
       </g>
      </g>
     </g>
     <g id="ytick_9">
      <g id="line2d_10">
       <g>
        <use style="stroke:#000000;stroke-width:0.6;" x="45.478125" xlink:href="#m1898aff0e3" y="236.015812"/>
       </g>
      </g>
     </g>
     <g id="ytick_10">
      <g id="line2d_11">
       <g>
        <use style="stroke:#000000;stroke-width:0.6;" x="45.478125" xlink:href="#m1898aff0e3" y="232.087313"/>
       </g>
      </g>
     </g>
     <g id="ytick_11">
      <g id="line2d_12">
       <g>
        <use style="stroke:#000000;stroke-width:0.6;" x="45.478125" xlink:href="#m1898aff0e3" y="228.877496"/>
       </g>
      </g>
     </g>
     <g id="ytick_12">
      <g id="line2d_13">
       <g>
        <use style="stroke:#000000;stroke-width:0.6;" x="45.478125" xlink:href="#m1898aff0e3" y="226.163634"/>
       </g>
      </g>
     </g>
     <g id="ytick_13">
      <g id="line2d_14">
       <g>
        <use style="stroke:#000000;stroke-width:0.6;" x="45.478125" xlink:href="#m1898aff0e3" y="223.812781"/>
       </g>
      </g>
     </g>
     <g id="ytick_14">
      <g id="line2d_15">
       <g>
        <use style="stroke:#000000;stroke-width:0.6;" x="45.478125" xlink:href="#m1898aff0e3" y="221.73918"/>
       </g>
      </g>
     </g>
     <g id="ytick_15">
      <g id="line2d_16">
       <g>
        <use style="stroke:#000000;stroke-width:0.6;" x="45.478125" xlink:href="#m1898aff0e3" y="207.68125"/>
       </g>
      </g>
     </g>
     <g id="ytick_16">
      <g id="line2d_17">
       <g>
        <use style="stroke:#000000;stroke-width:0.6;" x="45.478125" xlink:href="#m1898aff0e3" y="200.542935"/>
       </g>
      </g>
     </g>
     <g id="ytick_17">
      <g id="line2d_18">
       <g>
        <use style="stroke:#000000;stroke-width:0.6;" x="45.478125" xlink:href="#m1898aff0e3" y="195.478219"/>
       </g>
      </g>
     </g>
     <g id="ytick_18">
      <g id="line2d_19">
       <g>
        <use style="stroke:#000000;stroke-width:0.6;" x="45.478125" xlink:href="#m1898aff0e3" y="191.54972"/>
       </g>
      </g>
     </g>
     <g id="ytick_19">
      <g id="line2d_20">
       <g>
        <use style="stroke:#000000;stroke-width:0.6;" x="45.478125" xlink:href="#m1898aff0e3" y="188.339903"/>
       </g>
      </g>
     </g>
     <g id="ytick_20">
      <g id="line2d_21">
       <g>
        <use style="stroke:#000000;stroke-width:0.6;" x="45.478125" xlink:href="#m1898aff0e3" y="185.626041"/>
       </g>
      </g>
     </g>
     <g id="ytick_21">
      <g id="line2d_22">
       <g>
        <use style="stroke:#000000;stroke-width:0.6;" x="45.478125" xlink:href="#m1898aff0e3" y="183.275187"/>
       </g>
      </g>
     </g>
     <g id="ytick_22">
      <g id="line2d_23">
       <g>
        <use style="stroke:#000000;stroke-width:0.6;" x="45.478125" xlink:href="#m1898aff0e3" y="181.201587"/>
       </g>
      </g>
     </g>
     <g id="ytick_23">
      <g id="line2d_24">
       <g>
        <use style="stroke:#000000;stroke-width:0.6;" x="45.478125" xlink:href="#m1898aff0e3" y="167.143657"/>
       </g>
      </g>
     </g>
     <g id="ytick_24">
      <g id="line2d_25">
       <g>
        <use style="stroke:#000000;stroke-width:0.6;" x="45.478125" xlink:href="#m1898aff0e3" y="160.005341"/>
       </g>
      </g>
     </g>
     <g id="ytick_25">
      <g id="line2d_26">
       <g>
        <use style="stroke:#000000;stroke-width:0.6;" x="45.478125" xlink:href="#m1898aff0e3" y="154.940626"/>
       </g>
      </g>
     </g>
     <g id="ytick_26">
      <g id="line2d_27">
       <g>
        <use style="stroke:#000000;stroke-width:0.6;" x="45.478125" xlink:href="#m1898aff0e3" y="151.012127"/>
       </g>
      </g>
     </g>
     <g id="ytick_27">
      <g id="line2d_28">
       <g>
        <use style="stroke:#000000;stroke-width:0.6;" x="45.478125" xlink:href="#m1898aff0e3" y="147.80231"/>
       </g>
      </g>
     </g>
     <g id="ytick_28">
      <g id="line2d_29">
       <g>
        <use style="stroke:#000000;stroke-width:0.6;" x="45.478125" xlink:href="#m1898aff0e3" y="145.088448"/>
       </g>
      </g>
     </g>
     <g id="ytick_29">
      <g id="line2d_30">
       <g>
        <use style="stroke:#000000;stroke-width:0.6;" x="45.478125" xlink:href="#m1898aff0e3" y="142.737594"/>
       </g>
      </g>
     </g>
     <g id="ytick_30">
      <g id="line2d_31">
       <g>
        <use style="stroke:#000000;stroke-width:0.6;" x="45.478125" xlink:href="#m1898aff0e3" y="140.663994"/>
       </g>
      </g>
     </g>
     <g id="ytick_31">
      <g id="line2d_32">
       <g>
        <use style="stroke:#000000;stroke-width:0.6;" x="45.478125" xlink:href="#m1898aff0e3" y="126.606064"/>
       </g>
      </g>
     </g>
     <g id="ytick_32">
      <g id="line2d_33">
       <g>
        <use style="stroke:#000000;stroke-width:0.6;" x="45.478125" xlink:href="#m1898aff0e3" y="119.467748"/>
       </g>
      </g>
     </g>
     <g id="ytick_33">
      <g id="line2d_34">
       <g>
        <use style="stroke:#000000;stroke-width:0.6;" x="45.478125" xlink:href="#m1898aff0e3" y="114.403033"/>
       </g>
      </g>
     </g>
     <g id="ytick_34">
      <g id="line2d_35">
       <g>
        <use style="stroke:#000000;stroke-width:0.6;" x="45.478125" xlink:href="#m1898aff0e3" y="110.474534"/>
       </g>
      </g>
     </g>
     <g id="ytick_35">
      <g id="line2d_36">
       <g>
        <use style="stroke:#000000;stroke-width:0.6;" x="45.478125" xlink:href="#m1898aff0e3" y="107.264717"/>
       </g>
      </g>
     </g>
     <g id="ytick_36">
      <g id="line2d_37">
       <g>
        <use style="stroke:#000000;stroke-width:0.6;" x="45.478125" xlink:href="#m1898aff0e3" y="104.550855"/>
       </g>
      </g>
     </g>
     <g id="ytick_37">
      <g id="line2d_38">
       <g>
        <use style="stroke:#000000;stroke-width:0.6;" x="45.478125" xlink:href="#m1898aff0e3" y="102.200001"/>
       </g>
      </g>
     </g>
     <g id="ytick_38">
      <g id="line2d_39">
       <g>
        <use style="stroke:#000000;stroke-width:0.6;" x="45.478125" xlink:href="#m1898aff0e3" y="100.126401"/>
       </g>
      </g>
     </g>
     <g id="ytick_39">
      <g id="line2d_40">
       <g>
        <use style="stroke:#000000;stroke-width:0.6;" x="45.478125" xlink:href="#m1898aff0e3" y="86.068471"/>
       </g>
      </g>
     </g>
     <g id="ytick_40">
      <g id="line2d_41">
       <g>
        <use style="stroke:#000000;stroke-width:0.6;" x="45.478125" xlink:href="#m1898aff0e3" y="78.930155"/>
       </g>
      </g>
     </g>
     <g id="ytick_41">
      <g id="line2d_42">
       <g>
        <use style="stroke:#000000;stroke-width:0.6;" x="45.478125" xlink:href="#m1898aff0e3" y="73.865439"/>
       </g>
      </g>
     </g>
     <g id="ytick_42">
      <g id="line2d_43">
       <g>
        <use style="stroke:#000000;stroke-width:0.6;" x="45.478125" xlink:href="#m1898aff0e3" y="69.936941"/>
       </g>
      </g>
     </g>
     <g id="ytick_43">
      <g id="line2d_44">
       <g>
        <use style="stroke:#000000;stroke-width:0.6;" x="45.478125" xlink:href="#m1898aff0e3" y="66.727124"/>
       </g>
      </g>
     </g>
     <g id="ytick_44">
      <g id="line2d_45">
       <g>
        <use style="stroke:#000000;stroke-width:0.6;" x="45.478125" xlink:href="#m1898aff0e3" y="64.013262"/>
       </g>
      </g>
     </g>
     <g id="ytick_45">
      <g id="line2d_46">
       <g>
        <use style="stroke:#000000;stroke-width:0.6;" x="45.478125" xlink:href="#m1898aff0e3" y="61.662408"/>
       </g>
      </g>
     </g>
     <g id="ytick_46">
      <g id="line2d_47">
       <g>
        <use style="stroke:#000000;stroke-width:0.6;" x="45.478125" xlink:href="#m1898aff0e3" y="59.588808"/>
       </g>
      </g>
     </g>
     <g id="ytick_47">
      <g id="line2d_48">
       <g>
        <use style="stroke:#000000;stroke-width:0.6;" x="45.478125" xlink:href="#m1898aff0e3" y="45.530878"/>
       </g>
      </g>
     </g>
     <g id="ytick_48">
      <g id="line2d_49">
       <g>
        <use style="stroke:#000000;stroke-width:0.6;" x="45.478125" xlink:href="#m1898aff0e3" y="38.392562"/>
       </g>
      </g>
     </g>
     <g id="ytick_49">
      <g id="line2d_50">
       <g>
        <use style="stroke:#000000;stroke-width:0.6;" x="45.478125" xlink:href="#m1898aff0e3" y="33.327846"/>
       </g>
      </g>
     </g>
     <g id="ytick_50">
      <g id="line2d_51">
       <g>
        <use style="stroke:#000000;stroke-width:0.6;" x="45.478125" xlink:href="#m1898aff0e3" y="29.399348"/>
       </g>
      </g>
     </g>
     <g id="ytick_51">
      <g id="line2d_52">
       <g>
        <use style="stroke:#000000;stroke-width:0.6;" x="45.478125" xlink:href="#m1898aff0e3" y="26.18953"/>
       </g>
      </g>
     </g>
     <g id="ytick_52">
      <g id="line2d_53">
       <g>
        <use style="stroke:#000000;stroke-width:0.6;" x="45.478125" xlink:href="#m1898aff0e3" y="23.475669"/>
       </g>
      </g>
     </g>
     <g id="text_8">
      <!-- time ago (generations) -->
      <g transform="translate(14.798438 198.841094)rotate(-90)scale(0.1 -0.1)">
       <defs>
        <path d="M 18.3125 70.21875 
L 18.3125 54.6875 
L 36.8125 54.6875 
L 36.8125 47.703125 
L 18.3125 47.703125 
L 18.3125 18.015625 
Q 18.3125 11.328125 20.140625 9.421875 
Q 21.96875 7.515625 27.59375 7.515625 
L 36.8125 7.515625 
L 36.8125 0 
L 27.59375 0 
Q 17.1875 0 13.234375 3.875 
Q 9.28125 7.765625 9.28125 18.015625 
L 9.28125 47.703125 
L 2.6875 47.703125 
L 2.6875 54.6875 
L 9.28125 54.6875 
L 9.28125 70.21875 
z
" id="DejaVuSans-116"/>
        <path d="M 52 44.1875 
Q 55.375 50.25 60.0625 53.125 
Q 64.75 56 71.09375 56 
Q 79.640625 56 84.28125 50.015625 
Q 88.921875 44.046875 88.921875 33.015625 
L 88.921875 0 
L 79.890625 0 
L 79.890625 32.71875 
Q 79.890625 40.578125 77.09375 44.375 
Q 74.3125 48.1875 68.609375 48.1875 
Q 61.625 48.1875 57.5625 43.546875 
Q 53.515625 38.921875 53.515625 30.90625 
L 53.515625 0 
L 44.484375 0 
L 44.484375 32.71875 
Q 44.484375 40.625 41.703125 44.40625 
Q 38.921875 48.1875 33.109375 48.1875 
Q 26.21875 48.1875 22.15625 43.53125 
Q 18.109375 38.875 18.109375 30.90625 
L 18.109375 0 
L 9.078125 0 
L 9.078125 54.6875 
L 18.109375 54.6875 
L 18.109375 46.1875 
Q 21.1875 51.21875 25.484375 53.609375 
Q 29.78125 56 35.6875 56 
Q 41.65625 56 45.828125 52.96875 
Q 50 49.953125 52 44.1875 
z
" id="DejaVuSans-109"/>
        <path id="DejaVuSans-32"/>
        <path d="M 34.28125 27.484375 
Q 23.390625 27.484375 19.1875 25 
Q 14.984375 22.515625 14.984375 16.5 
Q 14.984375 11.71875 18.140625 8.90625 
Q 21.296875 6.109375 26.703125 6.109375 
Q 34.1875 6.109375 38.703125 11.40625 
Q 43.21875 16.703125 43.21875 25.484375 
L 43.21875 27.484375 
z
M 52.203125 31.203125 
L 52.203125 0 
L 43.21875 0 
L 43.21875 8.296875 
Q 40.140625 3.328125 35.546875 0.953125 
Q 30.953125 -1.421875 24.3125 -1.421875 
Q 15.921875 -1.421875 10.953125 3.296875 
Q 6 8.015625 6 15.921875 
Q 6 25.140625 12.171875 29.828125 
Q 18.359375 34.515625 30.609375 34.515625 
L 43.21875 34.515625 
L 43.21875 35.40625 
Q 43.21875 41.609375 39.140625 45 
Q 35.0625 48.390625 27.6875 48.390625 
Q 23 48.390625 18.546875 47.265625 
Q 14.109375 46.140625 10.015625 43.890625 
L 10.015625 52.203125 
Q 14.9375 54.109375 19.578125 55.046875 
Q 24.21875 56 28.609375 56 
Q 40.484375 56 46.34375 49.84375 
Q 52.203125 43.703125 52.203125 31.203125 
z
" id="DejaVuSans-97"/>
        <path d="M 30.609375 48.390625 
Q 23.390625 48.390625 19.1875 42.75 
Q 14.984375 37.109375 14.984375 27.296875 
Q 14.984375 17.484375 19.15625 11.84375 
Q 23.34375 6.203125 30.609375 6.203125 
Q 37.796875 6.203125 41.984375 11.859375 
Q 46.1875 17.53125 46.1875 27.296875 
Q 46.1875 37.015625 41.984375 42.703125 
Q 37.796875 48.390625 30.609375 48.390625 
z
M 30.609375 56 
Q 42.328125 56 49.015625 48.375 
Q 55.71875 40.765625 55.71875 27.296875 
Q 55.71875 13.875 49.015625 6.21875 
Q 42.328125 -1.421875 30.609375 -1.421875 
Q 18.84375 -1.421875 12.171875 6.21875 
Q 5.515625 13.875 5.515625 27.296875 
Q 5.515625 40.765625 12.171875 48.375 
Q 18.84375 56 30.609375 56 
z
" id="DejaVuSans-111"/>
        <path d="M 31 75.875 
Q 24.46875 64.65625 21.28125 53.65625 
Q 18.109375 42.671875 18.109375 31.390625 
Q 18.109375 20.125 21.3125 9.0625 
Q 24.515625 -2 31 -13.1875 
L 23.1875 -13.1875 
Q 15.875 -1.703125 12.234375 9.375 
Q 8.59375 20.453125 8.59375 31.390625 
Q 8.59375 42.28125 12.203125 53.3125 
Q 15.828125 64.359375 23.1875 75.875 
z
" id="DejaVuSans-40"/>
        <path d="M 44.28125 53.078125 
L 44.28125 44.578125 
Q 40.484375 46.53125 36.375 47.5 
Q 32.28125 48.484375 27.875 48.484375 
Q 21.1875 48.484375 17.84375 46.4375 
Q 14.5 44.390625 14.5 40.28125 
Q 14.5 37.15625 16.890625 35.375 
Q 19.28125 33.59375 26.515625 31.984375 
L 29.59375 31.296875 
Q 39.15625 29.25 43.1875 25.515625 
Q 47.21875 21.78125 47.21875 15.09375 
Q 47.21875 7.46875 41.1875 3.015625 
Q 35.15625 -1.421875 24.609375 -1.421875 
Q 20.21875 -1.421875 15.453125 -0.5625 
Q 10.6875 0.296875 5.421875 2 
L 5.421875 11.28125 
Q 10.40625 8.6875 15.234375 7.390625 
Q 20.0625 6.109375 24.8125 6.109375 
Q 31.15625 6.109375 34.5625 8.28125 
Q 37.984375 10.453125 37.984375 14.40625 
Q 37.984375 18.0625 35.515625 20.015625 
Q 33.0625 21.96875 24.703125 23.78125 
L 21.578125 24.515625 
Q 13.234375 26.265625 9.515625 29.90625 
Q 5.8125 33.546875 5.8125 39.890625 
Q 5.8125 47.609375 11.28125 51.796875 
Q 16.75 56 26.8125 56 
Q 31.78125 56 36.171875 55.265625 
Q 40.578125 54.546875 44.28125 53.078125 
z
" id="DejaVuSans-115"/>
        <path d="M 8.015625 75.875 
L 15.828125 75.875 
Q 23.140625 64.359375 26.78125 53.3125 
Q 30.421875 42.28125 30.421875 31.390625 
Q 30.421875 20.453125 26.78125 9.375 
Q 23.140625 -1.703125 15.828125 -13.1875 
L 8.015625 -13.1875 
Q 14.5 -2 17.703125 9.0625 
Q 20.90625 20.125 20.90625 31.390625 
Q 20.90625 42.671875 17.703125 53.65625 
Q 14.5 64.65625 8.015625 75.875 
z
" id="DejaVuSans-41"/>
       </defs>
       <use xlink:href="#DejaVuSans-116"/>
       <use x="39.208984" xlink:href="#DejaVuSans-105"/>
       <use x="66.992188" xlink:href="#DejaVuSans-109"/>
       <use x="164.404297" xlink:href="#DejaVuSans-101"/>
       <use x="225.927734" xlink:href="#DejaVuSans-32"/>
       <use x="257.714844" xlink:href="#DejaVuSans-97"/>
       <use x="318.994141" xlink:href="#DejaVuSans-103"/>
       <use x="382.470703" xlink:href="#DejaVuSans-111"/>
       <use x="443.652344" xlink:href="#DejaVuSans-32"/>
       <use x="475.439453" xlink:href="#DejaVuSans-40"/>
       <use x="514.453125" xlink:href="#DejaVuSans-103"/>
       <use x="577.929688" xlink:href="#DejaVuSans-101"/>
       <use x="639.453125" xlink:href="#DejaVuSans-110"/>
       <use x="702.832031" xlink:href="#DejaVuSans-101"/>
       <use x="764.355469" xlink:href="#DejaVuSans-114"/>
       <use x="805.46875" xlink:href="#DejaVuSans-97"/>
       <use x="866.748047" xlink:href="#DejaVuSans-116"/>
       <use x="905.957031" xlink:href="#DejaVuSans-105"/>
       <use x="933.740234" xlink:href="#DejaVuSans-111"/>
       <use x="994.921875" xlink:href="#DejaVuSans-110"/>
       <use x="1058.300781" xlink:href="#DejaVuSans-115"/>
       <use x="1110.400391" xlink:href="#DejaVuSans-41"/>
      </g>
     </g>
    </g>
    <g id="patch_4">
     <path d="M 45.478125 260.421875 
L 45.478125 22.318125 
" style="fill:none;stroke:#000000;stroke-linecap:square;stroke-linejoin:miter;stroke-width:0.8;"/>
    </g>
    <g id="text_9">
     <!-- HomSap__Zigzag_1S14.yaml -->
     <g transform="translate(185.0875 16.318125)scale(0.12 -0.12)">
      <defs>
       <path d="M 9.8125 72.90625 
L 19.671875 72.90625 
L 19.671875 43.015625 
L 55.515625 43.015625 
L 55.515625 72.90625 
L 65.375 72.90625 
L 65.375 0 
L 55.515625 0 
L 55.515625 34.71875 
L 19.671875 34.71875 
L 19.671875 0 
L 9.8125 0 
z
" id="DejaVuSans-72"/>
       <path d="M 53.515625 70.515625 
L 53.515625 60.890625 
Q 47.90625 63.578125 42.921875 64.890625 
Q 37.9375 66.21875 33.296875 66.21875 
Q 25.25 66.21875 20.875 63.09375 
Q 16.5 59.96875 16.5 54.203125 
Q 16.5 49.359375 19.40625 46.890625 
Q 22.3125 44.4375 30.421875 42.921875 
L 36.375 41.703125 
Q 47.40625 39.59375 52.65625 34.296875 
Q 57.90625 29 57.90625 20.125 
Q 57.90625 9.515625 50.796875 4.046875 
Q 43.703125 -1.421875 29.984375 -1.421875 
Q 24.8125 -1.421875 18.96875 -0.25 
Q 13.140625 0.921875 6.890625 3.21875 
L 6.890625 13.375 
Q 12.890625 10.015625 18.65625 8.296875 
Q 24.421875 6.59375 29.984375 6.59375 
Q 38.421875 6.59375 43.015625 9.90625 
Q 47.609375 13.234375 47.609375 19.390625 
Q 47.609375 24.75 44.3125 27.78125 
Q 41.015625 30.8125 33.5 32.328125 
L 27.484375 33.5 
Q 16.453125 35.6875 11.515625 40.375 
Q 6.59375 45.0625 6.59375 53.421875 
Q 6.59375 63.09375 13.40625 68.65625 
Q 20.21875 74.21875 32.171875 74.21875 
Q 37.3125 74.21875 42.625 73.28125 
Q 47.953125 72.359375 53.515625 70.515625 
z
" id="DejaVuSans-83"/>
       <path d="M 18.109375 8.203125 
L 18.109375 -20.796875 
L 9.078125 -20.796875 
L 9.078125 54.6875 
L 18.109375 54.6875 
L 18.109375 46.390625 
Q 20.953125 51.265625 25.265625 53.625 
Q 29.59375 56 35.59375 56 
Q 45.5625 56 51.78125 48.09375 
Q 58.015625 40.1875 58.015625 27.296875 
Q 58.015625 14.40625 51.78125 6.484375 
Q 45.5625 -1.421875 35.59375 -1.421875 
Q 29.59375 -1.421875 25.265625 0.953125 
Q 20.953125 3.328125 18.109375 8.203125 
z
M 48.6875 27.296875 
Q 48.6875 37.203125 44.609375 42.84375 
Q 40.53125 48.484375 33.40625 48.484375 
Q 26.265625 48.484375 22.1875 42.84375 
Q 18.109375 37.203125 18.109375 27.296875 
Q 18.109375 17.390625 22.1875 11.75 
Q 26.265625 6.109375 33.40625 6.109375 
Q 40.53125 6.109375 44.609375 11.75 
Q 48.6875 17.390625 48.6875 27.296875 
z
" id="DejaVuSans-112"/>
       <path d="M 50.984375 -16.609375 
L 50.984375 -23.578125 
L -0.984375 -23.578125 
L -0.984375 -16.609375 
z
" id="DejaVuSans-95"/>
       <path d="M 5.609375 72.90625 
L 62.890625 72.90625 
L 62.890625 65.375 
L 16.796875 8.296875 
L 64.015625 8.296875 
L 64.015625 0 
L 4.5 0 
L 4.5 7.515625 
L 50.59375 64.59375 
L 5.609375 64.59375 
z
" id="DejaVuSans-90"/>
       <path d="M 5.515625 54.6875 
L 48.1875 54.6875 
L 48.1875 46.484375 
L 14.40625 7.171875 
L 48.1875 7.171875 
L 48.1875 0 
L 4.296875 0 
L 4.296875 8.203125 
L 38.09375 47.515625 
L 5.515625 47.515625 
z
" id="DejaVuSans-122"/>
       <path d="M 10.6875 12.40625 
L 21 12.40625 
L 21 0 
L 10.6875 0 
z
" id="DejaVuSans-46"/>
       <path d="M 32.171875 -5.078125 
Q 28.375 -14.84375 24.75 -17.8125 
Q 21.140625 -20.796875 15.09375 -20.796875 
L 7.90625 -20.796875 
L 7.90625 -13.28125 
L 13.1875 -13.28125 
Q 16.890625 -13.28125 18.9375 -11.515625 
Q 21 -9.765625 23.484375 -3.21875 
L 25.09375 0.875 
L 2.984375 54.6875 
L 12.5 54.6875 
L 29.59375 11.921875 
L 46.6875 54.6875 
L 56.203125 54.6875 
z
" id="DejaVuSans-121"/>
       <path d="M 9.421875 75.984375 
L 18.40625 75.984375 
L 18.40625 0 
L 9.421875 0 
z
" id="DejaVuSans-108"/>
      </defs>
      <use xlink:href="#DejaVuSans-72"/>
      <use x="75.195312" xlink:href="#DejaVuSans-111"/>
      <use x="136.376953" xlink:href="#DejaVuSans-109"/>
      <use x="233.789062" xlink:href="#DejaVuSans-83"/>
      <use x="297.265625" xlink:href="#DejaVuSans-97"/>
      <use x="358.544922" xlink:href="#DejaVuSans-112"/>
      <use x="422.021484" xlink:href="#DejaVuSans-95"/>
      <use x="472.021484" xlink:href="#DejaVuSans-95"/>
      <use x="522.021484" xlink:href="#DejaVuSans-90"/>
      <use x="590.527344" xlink:href="#DejaVuSans-105"/>
      <use x="618.310547" xlink:href="#DejaVuSans-103"/>
      <use x="681.787109" xlink:href="#DejaVuSans-122"/>
      <use x="734.277344" xlink:href="#DejaVuSans-97"/>
      <use x="795.556641" xlink:href="#DejaVuSans-103"/>
      <use x="859.033203" xlink:href="#DejaVuSans-95"/>
      <use x="909.033203" xlink:href="#DejaVuSans-49"/>
      <use x="972.65625" xlink:href="#DejaVuSans-83"/>
      <use x="1036.132812" xlink:href="#DejaVuSans-49"/>
      <use x="1099.755859" xlink:href="#DejaVuSans-52"/>
      <use x="1163.378906" xlink:href="#DejaVuSans-46"/>
      <use x="1195.166016" xlink:href="#DejaVuSans-121"/>
      <use x="1254.345703" xlink:href="#DejaVuSans-97"/>
      <use x="1315.625" xlink:href="#DejaVuSans-109"/>
      <use x="1413.037109" xlink:href="#DejaVuSans-108"/>
     </g>
    </g>
   </g>
  </g>
  <defs>
   <clipPath id="pd0986d773c">
    <rect height="238.10375" width="452.121875" x="45.478125" y="22.318125"/>
   </clipPath>
  </defs>
 </g>
</svg>
