<?xml version="1.0" encoding="utf-8" standalone="no"?>
<!DOCTYPE svg PUBLIC "-//W3C//DTD SVG 1.1//EN"
  "http://www.w3.org/Graphics/SVG/1.1/DTD/svg11.dtd">
<!-- Created with matplotlib (https://matplotlib.org/) -->
<svg height="280.8pt" version="1.1" viewBox="0 0 504.8 280.8" width="504.8pt" xmlns="http://www.w3.org/2000/svg" xmlns:xlink="http://www.w3.org/1999/xlink">
 <metadata>
  <rdf:RDF xmlns:cc="http://creativecommons.org/ns#" xmlns:dc="http://purl.org/dc/elements/1.1/" xmlns:rdf="http://www.w3.org/1999/02/22-rdf-syntax-ns#">
   <cc:Work>
    <dc:type rdf:resource="http://purl.org/dc/dcmitype/StillImage"/>
    <dc:date>2021-04-19T08:13:26.628241</dc:date>
    <dc:format>image/svg+xml</dc:format>
    <dc:creator>
     <cc:Agent>
      <dc:title>Matplotlib v3.3.4, https://matplotlib.org/</dc:title>
     </cc:Agent>
    </dc:creator>
   </cc:Work>
  </rdf:RDF>
 </metadata>
 <defs>
  <style type="text/css">*{stroke-linecap:butt;stroke-linejoin:round;}</style>
 </defs>
 <g id="figure_1">
  <g id="patch_1">
   <path d="M 0 280.8 
L 504.8 280.8 
L 504.8 0 
L 0 0 
z
" style="fill:none;"/>
  </g>
  <g id="axes_1">
   <g id="patch_2">
    <path d="M 45.478125 260.421875 
L 497.6 260.421875 
L 497.6 22.318125 
L 45.478125 22.318125 
z
" style="fill:#ffffff;"/>
   </g>
   <g id="PolyCollection_1">
    <path clip-path="url(#p5c24a61aca)" d="M 275.073746 22.318125 
L 268.004379 22.318125 
L 268.004379 69.938875 
L 264.540293 69.938875 
L 264.540293 143.732931 
L 264.540293 143.732931 
L 263.179024 144.911607 
L 261.64543 146.090283 
L 259.933252 147.268959 
L 258.038006 148.447636 
L 255.957091 149.626312 
L 253.689838 150.804988 
L 251.237522 151.983664 
L 248.603312 153.16234 
L 245.7922 154.341017 
L 242.81088 155.519693 
L 239.667602 156.698369 
L 236.372003 157.877045 
L 232.93492 159.055721 
L 229.368195 160.234398 
L 225.684469 161.413074 
L 221.896986 162.59175 
L 218.019397 163.770426 
L 214.06557 164.949103 
L 210.049418 166.127779 
L 205.98474 167.306455 
L 201.885078 168.485131 
L 197.763589 169.663807 
L 193.63294 170.842484 
L 189.505213 172.02116 
L 185.391837 173.199836 
L 181.303527 174.378512 
L 177.250245 175.557188 
L 173.241172 176.735865 
L 169.28469 177.914541 
L 165.388383 179.093217 
L 161.559042 180.271893 
L 157.802679 181.450569 
L 154.12455 182.629246 
L 150.529182 183.807922 
L 147.020407 184.986598 
L 143.601397 186.165274 
L 140.274705 187.34395 
L 137.0423 188.522627 
L 133.905617 189.701303 
L 130.86559 190.879979 
L 127.9227 192.058655 
L 125.077012 193.237331 
L 122.328218 194.416008 
L 119.675671 195.594684 
L 117.118424 196.77336 
L 114.655267 197.952036 
L 112.284756 199.130712 
L 110.005245 200.309389 
L 107.814914 201.488065 
L 105.711798 202.666741 
L 103.69381 203.845417 
L 101.758763 205.024093 
L 99.904392 206.20277 
L 98.12837 207.381446 
L 96.428328 208.560122 
L 94.80187 209.738798 
L 93.246584 210.917474 
L 91.760055 212.096151 
L 90.339879 213.274827 
L 88.983667 214.453503 
L 87.689058 215.632179 
L 86.453723 216.810855 
L 85.275372 217.989532 
L 84.151761 219.168208 
L 83.080693 220.346884 
L 82.060024 221.52556 
L 81.087665 222.704236 
L 80.161583 223.882913 
L 79.279807 225.061589 
L 78.440425 226.240265 
L 77.641585 227.418941 
L 76.881498 228.597618 
L 76.158436 229.776294 
L 75.470733 230.95497 
L 74.816783 232.133646 
L 74.195041 233.312322 
L 73.604021 234.490999 
L 73.042295 235.669675 
L 72.508492 236.848351 
L 72.001298 238.027027 
L 71.519452 239.205703 
L 71.061748 240.38438 
L 70.627028 241.563056 
L 70.214186 242.741732 
L 69.822165 243.920408 
L 69.449954 245.099084 
L 69.096587 246.277761 
L 68.761141 247.456437 
L 68.442735 248.635113 
L 68.14053 249.813789 
L 67.853725 250.992465 
L 67.581554 252.171142 
L 67.32329 253.349818 
L 67.078239 254.528494 
L 66.84574 255.70717 
L 66.625163 256.885846 
L 66.41591 258.064523 
L 66.21741 259.243199 
L 66.029119 260.421875 
L 477.049006 260.421875 
L 477.049006 260.421875 
L 476.860715 259.243199 
L 476.662215 258.064523 
L 476.452962 256.885846 
L 476.232385 255.70717 
L 475.999886 254.528494 
L 475.754835 253.349818 
L 475.496571 252.171142 
L 475.2244 250.992465 
L 474.937595 249.813789 
L 474.63539 248.635113 
L 474.316984 247.456437 
L 473.981538 246.277761 
L 473.628171 245.099084 
L 473.25596 243.920408 
L 472.863939 242.741732 
L 472.451097 241.563056 
L 472.016377 240.38438 
L 471.558673 239.205703 
L 471.076827 238.027027 
L 470.569633 236.848351 
L 470.03583 235.669675 
L 469.474104 234.490999 
L 468.883084 233.312322 
L 468.261342 232.133646 
L 467.607392 230.95497 
L 466.919689 229.776294 
L 466.196627 228.597618 
L 465.43654 227.418941 
L 464.6377 226.240265 
L 463.798318 225.061589 
L 462.916542 223.882913 
L 461.99046 222.704236 
L 461.018101 221.52556 
L 459.997432 220.346884 
L 458.926364 219.168208 
L 457.802753 217.989532 
L 456.624402 216.810855 
L 455.389067 215.632179 
L 454.094458 214.453503 
L 452.738246 213.274827 
L 451.31807 212.096151 
L 449.831541 210.917474 
L 448.276255 209.738798 
L 446.649797 208.560122 
L 444.949755 207.381446 
L 443.173733 206.20277 
L 441.319362 205.024093 
L 439.384315 203.845417 
L 437.366327 202.666741 
L 435.263211 201.488065 
L 433.07288 200.309389 
L 430.793369 199.130712 
L 428.422858 197.952036 
L 425.959701 196.77336 
L 423.402454 195.594684 
L 420.749907 194.416008 
L 418.001113 193.237331 
L 415.155425 192.058655 
L 412.212535 190.879979 
L 409.172508 189.701303 
L 406.035825 188.522627 
L 402.80342 187.34395 
L 399.476728 186.165274 
L 396.057718 184.986598 
L 392.548943 183.807922 
L 388.953575 182.629246 
L 385.275446 181.450569 
L 381.519083 180.271893 
L 377.689742 179.093217 
L 373.793435 177.914541 
L 369.836953 176.735865 
L 365.82788 175.557188 
L 361.774598 174.378512 
L 357.686288 173.199836 
L 353.572912 172.02116 
L 349.445185 170.842484 
L 345.314536 169.663807 
L 341.193047 168.485131 
L 337.093385 167.306455 
L 333.028707 166.127779 
L 329.012555 164.949103 
L 325.058728 163.770426 
L 321.181139 162.59175 
L 317.393656 161.413074 
L 313.70993 160.234398 
L 310.143205 159.055721 
L 306.706122 157.877045 
L 303.410523 156.698369 
L 300.267245 155.519693 
L 297.285925 154.341017 
L 294.474813 153.16234 
L 291.840603 151.983664 
L 289.388287 150.804988 
L 287.121034 149.626312 
L 285.040119 148.447636 
L 283.144873 147.268959 
L 281.432695 146.090283 
L 279.899101 144.911607 
L 278.537832 143.732931 
L 278.537832 143.732931 
L 278.537832 69.938875 
L 275.073746 69.938875 
L 275.073746 22.318125 
z
" style="fill:#1f77b4;fill-opacity:0.5;"/>
   </g>
   <g id="patch_3">
    <path clip-path="url(#p5c24a61aca)" d="M 268.004379 22.318125 
L 268.004379 69.938875 
L 264.540293 69.938875 
L 264.540293 143.732931 
L 264.540293 143.732931 
L 263.179024 144.911607 
L 259.933252 147.268959 
L 255.957091 149.626312 
L 251.237522 151.983664 
L 245.7922 154.341017 
L 239.667602 156.698369 
L 232.93492 159.055721 
L 221.896986 162.59175 
L 210.049418 166.127779 
L 161.559042 180.271893 
L 150.529182 183.807922 
L 140.274705 187.34395 
L 130.86559 190.879979 
L 122.328218 194.416008 
L 117.118424 196.77336 
L 112.284756 199.130712 
L 107.814914 201.488065 
L 103.69381 203.845417 
L 99.904392 206.20277 
L 96.428328 208.560122 
L 93.246584 210.917474 
L 90.339879 213.274827 
L 87.689058 215.632179 
L 85.275372 217.989532 
L 83.080693 220.346884 
L 80.161583 223.882913 
L 77.641585 227.418941 
L 75.470733 230.95497 
L 73.604021 234.490999 
L 72.001298 238.027027 
L 70.627028 241.563056 
L 69.449954 245.099084 
L 68.14053 249.813789 
L 67.078239 254.528494 
L 66.21741 259.243199 
L 66.029119 260.421875 
M 275.073746 22.318125 
L 275.073746 69.938875 
L 278.537832 69.938875 
L 278.537832 143.732931 
L 278.537832 143.732931 
L 279.899101 144.911607 
L 283.144873 147.268959 
L 287.121034 149.626312 
L 291.840603 151.983664 
L 297.285925 154.341017 
L 303.410523 156.698369 
L 310.143205 159.055721 
L 321.181139 162.59175 
L 333.028707 166.127779 
L 381.519083 180.271893 
L 392.548943 183.807922 
L 402.80342 187.34395 
L 412.212535 190.879979 
L 420.749907 194.416008 
L 425.959701 196.77336 
L 430.793369 199.130712 
L 435.263211 201.488065 
L 439.384315 203.845417 
L 443.173733 206.20277 
L 446.649797 208.560122 
L 449.831541 210.917474 
L 452.738246 213.274827 
L 455.389067 215.632179 
L 457.802753 217.989532 
L 459.997432 220.346884 
L 462.916542 223.882913 
L 465.43654 227.418941 
L 467.607392 230.95497 
L 469.474104 234.490999 
L 471.076827 238.027027 
L 472.451097 241.563056 
L 473.628171 245.099084 
L 474.937595 249.813789 
L 475.999886 254.528494 
L 476.860715 259.243199 
L 477.049006 260.421875 
L 477.049006 260.421875 
" style="fill:none;stroke:#ffffff;stroke-linejoin:miter;stroke-width:3;"/>
    <path clip-path="url(#p5c24a61aca)" d="M 268.004379 22.318125 
L 268.004379 69.938875 
L 264.540293 69.938875 
L 264.540293 143.732931 
L 264.540293 143.732931 
L 263.179024 144.911607 
L 259.933252 147.268959 
L 255.957091 149.626312 
L 251.237522 151.983664 
L 245.7922 154.341017 
L 239.667602 156.698369 
L 232.93492 159.055721 
L 221.896986 162.59175 
L 210.049418 166.127779 
L 161.559042 180.271893 
L 150.529182 183.807922 
L 140.274705 187.34395 
L 130.86559 190.879979 
L 122.328218 194.416008 
L 117.118424 196.77336 
L 112.284756 199.130712 
L 107.814914 201.488065 
L 103.69381 203.845417 
L 99.904392 206.20277 
L 96.428328 208.560122 
L 93.246584 210.917474 
L 90.339879 213.274827 
L 87.689058 215.632179 
L 85.275372 217.989532 
L 83.080693 220.346884 
L 80.161583 223.882913 
L 77.641585 227.418941 
L 75.470733 230.95497 
L 73.604021 234.490999 
L 72.001298 238.027027 
L 70.627028 241.563056 
L 69.449954 245.099084 
L 68.14053 249.813789 
L 67.078239 254.528494 
L 66.21741 259.243199 
L 66.029119 260.421875 
M 275.073746 22.318125 
L 275.073746 69.938875 
L 278.537832 69.938875 
L 278.537832 143.732931 
L 278.537832 143.732931 
L 279.899101 144.911607 
L 283.144873 147.268959 
L 287.121034 149.626312 
L 291.840603 151.983664 
L 297.285925 154.341017 
L 303.410523 156.698369 
L 310.143205 159.055721 
L 321.181139 162.59175 
L 333.028707 166.127779 
L 381.519083 180.271893 
L 392.548943 183.807922 
L 402.80342 187.34395 
L 412.212535 190.879979 
L 420.749907 194.416008 
L 425.959701 196.77336 
L 430.793369 199.130712 
L 435.263211 201.488065 
L 439.384315 203.845417 
L 443.173733 206.20277 
L 446.649797 208.560122 
L 449.831541 210.917474 
L 452.738246 213.274827 
L 455.389067 215.632179 
L 457.802753 217.989532 
L 459.997432 220.346884 
L 462.916542 223.882913 
L 465.43654 227.418941 
L 467.607392 230.95497 
L 469.474104 234.490999 
L 471.076827 238.027027 
L 472.451097 241.563056 
L 473.628171 245.099084 
L 474.937595 249.813789 
L 475.999886 254.528494 
L 476.860715 259.243199 
L 477.049006 260.421875 
L 477.049006 260.421875 
" style="fill:none;stroke:#1f77b4;stroke-linejoin:miter;"/>
    <g id="matplotlib.axis_1">
     <g id="xtick_1">
      <g id="line2d_1"/>
      <g id="text_1">
       <!-- AFR -->
       <g transform="translate(261.76875 271.520312)scale(0.1 -0.1)">
        <defs>
         <path d="M 34.1875 63.1875 
L 20.796875 26.90625 
L 47.609375 26.90625 
z
M 28.609375 72.90625 
L 39.796875 72.90625 
L 67.578125 0 
L 57.328125 0 
L 50.6875 18.703125 
L 17.828125 18.703125 
L 11.1875 0 
L 0.78125 0 
z
" id="DejaVuSans-65"/>
         <path d="M 9.8125 72.90625 
L 51.703125 72.90625 
L 51.703125 64.59375 
L 19.671875 64.59375 
L 19.671875 43.109375 
L 48.578125 43.109375 
L 48.578125 34.8125 
L 19.671875 34.8125 
L 19.671875 0 
L 9.8125 0 
z
" id="DejaVuSans-70"/>
         <path d="M 44.390625 34.1875 
Q 47.5625 33.109375 50.5625 29.59375 
Q 53.5625 26.078125 56.59375 19.921875 
L 66.609375 0 
L 56 0 
L 46.6875 18.703125 
Q 43.0625 26.03125 39.671875 28.421875 
Q 36.28125 30.8125 30.421875 30.8125 
L 19.671875 30.8125 
L 19.671875 0 
L 9.8125 0 
L 9.8125 72.90625 
L 32.078125 72.90625 
Q 44.578125 72.90625 50.734375 67.671875 
Q 56.890625 62.453125 56.890625 51.90625 
Q 56.890625 45.015625 53.6875 40.46875 
Q 50.484375 35.9375 44.390625 34.1875 
z
M 19.671875 64.796875 
L 19.671875 38.921875 
L 32.078125 38.921875 
Q 39.203125 38.921875 42.84375 42.21875 
Q 46.484375 45.515625 46.484375 51.90625 
Q 46.484375 58.296875 42.84375 61.546875 
Q 39.203125 64.796875 32.078125 64.796875 
z
" id="DejaVuSans-82"/>
        </defs>
        <use xlink:href="#DejaVuSans-65"/>
        <use x="68.408203" xlink:href="#DejaVuSans-70"/>
        <use x="125.927734" xlink:href="#DejaVuSans-82"/>
       </g>
      </g>
     </g>
    </g>
    <g id="matplotlib.axis_2">
     <g id="ytick_1">
      <g id="line2d_2">
       <defs>
        <path d="M 0 0 
L -3.5 0 
" id="m27823a0984" style="stroke:#000000;stroke-width:0.8;"/>
       </defs>
       <g>
        <use style="stroke:#000000;stroke-width:0.8;" x="45.478125" xlink:href="#m27823a0984" y="260.421875"/>
       </g>
      </g>
      <g id="text_2">
       <!-- $\mathdefault{10^{0}}$ -->
       <g transform="translate(20.878125 264.221094)scale(0.1 -0.1)">
        <defs>
         <path d="M 12.40625 8.296875 
L 28.515625 8.296875 
L 28.515625 63.921875 
L 10.984375 60.40625 
L 10.984375 69.390625 
L 28.421875 72.90625 
L 38.28125 72.90625 
L 38.28125 8.296875 
L 54.390625 8.296875 
L 54.390625 0 
L 12.40625 0 
z
" id="DejaVuSans-49"/>
         <path d="M 31.78125 66.40625 
Q 24.171875 66.40625 20.328125 58.90625 
Q 16.5 51.421875 16.5 36.375 
Q 16.5 21.390625 20.328125 13.890625 
Q 24.171875 6.390625 31.78125 6.390625 
Q 39.453125 6.390625 43.28125 13.890625 
Q 47.125 21.390625 47.125 36.375 
Q 47.125 51.421875 43.28125 58.90625 
Q 39.453125 66.40625 31.78125 66.40625 
z
M 31.78125 74.21875 
Q 44.046875 74.21875 50.515625 64.515625 
Q 56.984375 54.828125 56.984375 36.375 
Q 56.984375 17.96875 50.515625 8.265625 
Q 44.046875 -1.421875 31.78125 -1.421875 
Q 19.53125 -1.421875 13.0625 8.265625 
Q 6.59375 17.96875 6.59375 36.375 
Q 6.59375 54.828125 13.0625 64.515625 
Q 19.53125 74.21875 31.78125 74.21875 
z
" id="DejaVuSans-48"/>
        </defs>
        <use transform="translate(0 0.765625)" xlink:href="#DejaVuSans-49"/>
        <use transform="translate(63.623047 0.765625)" xlink:href="#DejaVuSans-48"/>
        <use transform="translate(128.203125 39.046875)scale(0.7)" xlink:href="#DejaVuSans-48"/>
       </g>
      </g>
     </g>
     <g id="ytick_2">
      <g id="line2d_3">
       <g>
        <use style="stroke:#000000;stroke-width:0.8;" x="45.478125" xlink:href="#m27823a0984" y="209.926977"/>
       </g>
      </g>
      <g id="text_3">
       <!-- $\mathdefault{10^{1}}$ -->
       <g transform="translate(20.878125 213.726196)scale(0.1 -0.1)">
        <use transform="translate(0 0.684375)" xlink:href="#DejaVuSans-49"/>
        <use transform="translate(63.623047 0.684375)" xlink:href="#DejaVuSans-48"/>
        <use transform="translate(128.203125 38.965625)scale(0.7)" xlink:href="#DejaVuSans-49"/>
       </g>
      </g>
     </g>
     <g id="ytick_3">
      <g id="line2d_4">
       <g>
        <use style="stroke:#000000;stroke-width:0.8;" x="45.478125" xlink:href="#m27823a0984" y="159.432079"/>
       </g>
      </g>
      <g id="text_4">
       <!-- $\mathdefault{10^{2}}$ -->
       <g transform="translate(20.878125 163.231298)scale(0.1 -0.1)">
        <defs>
         <path d="M 19.1875 8.296875 
L 53.609375 8.296875 
L 53.609375 0 
L 7.328125 0 
L 7.328125 8.296875 
Q 12.9375 14.109375 22.625 23.890625 
Q 32.328125 33.6875 34.8125 36.53125 
Q 39.546875 41.84375 41.421875 45.53125 
Q 43.3125 49.21875 43.3125 52.78125 
Q 43.3125 58.59375 39.234375 62.25 
Q 35.15625 65.921875 28.609375 65.921875 
Q 23.96875 65.921875 18.8125 64.3125 
Q 13.671875 62.703125 7.8125 59.421875 
L 7.8125 69.390625 
Q 13.765625 71.78125 18.9375 73 
Q 24.125 74.21875 28.421875 74.21875 
Q 39.75 74.21875 46.484375 68.546875 
Q 53.21875 62.890625 53.21875 53.421875 
Q 53.21875 48.921875 51.53125 44.890625 
Q 49.859375 40.875 45.40625 35.40625 
Q 44.1875 33.984375 37.640625 27.21875 
Q 31.109375 20.453125 19.1875 8.296875 
z
" id="DejaVuSans-50"/>
        </defs>
        <use transform="translate(0 0.765625)" xlink:href="#DejaVuSans-49"/>
        <use transform="translate(63.623047 0.765625)" xlink:href="#DejaVuSans-48"/>
        <use transform="translate(128.203125 39.046875)scale(0.7)" xlink:href="#DejaVuSans-50"/>
       </g>
      </g>
     </g>
     <g id="ytick_4">
      <g id="line2d_5">
       <g>
        <use style="stroke:#000000;stroke-width:0.8;" x="45.478125" xlink:href="#m27823a0984" y="108.937181"/>
       </g>
      </g>
      <g id="text_5">
       <!-- $\mathdefault{10^{3}}$ -->
       <g transform="translate(20.878125 112.7364)scale(0.1 -0.1)">
        <defs>
         <path d="M 40.578125 39.3125 
Q 47.65625 37.796875 51.625 33 
Q 55.609375 28.21875 55.609375 21.1875 
Q 55.609375 10.40625 48.1875 4.484375 
Q 40.765625 -1.421875 27.09375 -1.421875 
Q 22.515625 -1.421875 17.65625 -0.515625 
Q 12.796875 0.390625 7.625 2.203125 
L 7.625 11.71875 
Q 11.71875 9.328125 16.59375 8.109375 
Q 21.484375 6.890625 26.8125 6.890625 
Q 36.078125 6.890625 40.9375 10.546875 
Q 45.796875 14.203125 45.796875 21.1875 
Q 45.796875 27.640625 41.28125 31.265625 
Q 36.765625 34.90625 28.71875 34.90625 
L 20.21875 34.90625 
L 20.21875 43.015625 
L 29.109375 43.015625 
Q 36.375 43.015625 40.234375 45.921875 
Q 44.09375 48.828125 44.09375 54.296875 
Q 44.09375 59.90625 40.109375 62.90625 
Q 36.140625 65.921875 28.71875 65.921875 
Q 24.65625 65.921875 20.015625 65.03125 
Q 15.375 64.15625 9.8125 62.3125 
L 9.8125 71.09375 
Q 15.4375 72.65625 20.34375 73.4375 
Q 25.25 74.21875 29.59375 74.21875 
Q 40.828125 74.21875 47.359375 69.109375 
Q 53.90625 64.015625 53.90625 55.328125 
Q 53.90625 49.265625 50.4375 45.09375 
Q 46.96875 40.921875 40.578125 39.3125 
z
" id="DejaVuSans-51"/>
        </defs>
        <use transform="translate(0 0.765625)" xlink:href="#DejaVuSans-49"/>
        <use transform="translate(63.623047 0.765625)" xlink:href="#DejaVuSans-48"/>
        <use transform="translate(128.203125 39.046875)scale(0.7)" xlink:href="#DejaVuSans-51"/>
       </g>
      </g>
     </g>
     <g id="ytick_5">
      <g id="line2d_6">
       <g>
        <use style="stroke:#000000;stroke-width:0.8;" x="45.478125" xlink:href="#m27823a0984" y="58.442283"/>
       </g>
      </g>
      <g id="text_6">
       <!-- $\mathdefault{10^{4}}$ -->
       <g transform="translate(20.878125 62.241502)scale(0.1 -0.1)">
        <defs>
         <path d="M 37.796875 64.3125 
L 12.890625 25.390625 
L 37.796875 25.390625 
z
M 35.203125 72.90625 
L 47.609375 72.90625 
L 47.609375 25.390625 
L 58.015625 25.390625 
L 58.015625 17.1875 
L 47.609375 17.1875 
L 47.609375 0 
L 37.796875 0 
L 37.796875 17.1875 
L 4.890625 17.1875 
L 4.890625 26.703125 
z
" id="DejaVuSans-52"/>
        </defs>
        <use transform="translate(0 0.684375)" xlink:href="#DejaVuSans-49"/>
        <use transform="translate(63.623047 0.684375)" xlink:href="#DejaVuSans-48"/>
        <use transform="translate(128.203125 38.965625)scale(0.7)" xlink:href="#DejaVuSans-52"/>
       </g>
      </g>
     </g>
     <g id="ytick_6">
      <g id="line2d_7">
       <defs>
        <path d="M 0 0 
L -2 0 
" id="m517768f2a2" style="stroke:#000000;stroke-width:0.6;"/>
       </defs>
       <g>
        <use style="stroke:#000000;stroke-width:0.6;" x="45.478125" xlink:href="#m517768f2a2" y="245.221396"/>
       </g>
      </g>
     </g>
     <g id="ytick_7">
      <g id="line2d_8">
       <g>
        <use style="stroke:#000000;stroke-width:0.6;" x="45.478125" xlink:href="#m517768f2a2" y="236.329686"/>
       </g>
      </g>
     </g>
     <g id="ytick_8">
      <g id="line2d_9">
       <g>
        <use style="stroke:#000000;stroke-width:0.6;" x="45.478125" xlink:href="#m517768f2a2" y="230.020917"/>
       </g>
      </g>
     </g>
     <g id="ytick_9">
      <g id="line2d_10">
       <g>
        <use style="stroke:#000000;stroke-width:0.6;" x="45.478125" xlink:href="#m517768f2a2" y="225.127456"/>
       </g>
      </g>
     </g>
     <g id="ytick_10">
      <g id="line2d_11">
       <g>
        <use style="stroke:#000000;stroke-width:0.6;" x="45.478125" xlink:href="#m517768f2a2" y="221.129207"/>
       </g>
      </g>
     </g>
     <g id="ytick_11">
      <g id="line2d_12">
       <g>
        <use style="stroke:#000000;stroke-width:0.6;" x="45.478125" xlink:href="#m517768f2a2" y="217.748736"/>
       </g>
      </g>
     </g>
     <g id="ytick_12">
      <g id="line2d_13">
       <g>
        <use style="stroke:#000000;stroke-width:0.6;" x="45.478125" xlink:href="#m517768f2a2" y="214.820438"/>
       </g>
      </g>
     </g>
     <g id="ytick_13">
      <g id="line2d_14">
       <g>
        <use style="stroke:#000000;stroke-width:0.6;" x="45.478125" xlink:href="#m517768f2a2" y="212.237497"/>
       </g>
      </g>
     </g>
     <g id="ytick_14">
      <g id="line2d_15">
       <g>
        <use style="stroke:#000000;stroke-width:0.6;" x="45.478125" xlink:href="#m517768f2a2" y="194.726498"/>
       </g>
      </g>
     </g>
     <g id="ytick_15">
      <g id="line2d_16">
       <g>
        <use style="stroke:#000000;stroke-width:0.6;" x="45.478125" xlink:href="#m517768f2a2" y="185.834788"/>
       </g>
      </g>
     </g>
     <g id="ytick_16">
      <g id="line2d_17">
       <g>
        <use style="stroke:#000000;stroke-width:0.6;" x="45.478125" xlink:href="#m517768f2a2" y="179.526019"/>
       </g>
      </g>
     </g>
     <g id="ytick_17">
      <g id="line2d_18">
       <g>
        <use style="stroke:#000000;stroke-width:0.6;" x="45.478125" xlink:href="#m517768f2a2" y="174.632558"/>
       </g>
      </g>
     </g>
     <g id="ytick_18">
      <g id="line2d_19">
       <g>
        <use style="stroke:#000000;stroke-width:0.6;" x="45.478125" xlink:href="#m517768f2a2" y="170.634309"/>
       </g>
      </g>
     </g>
     <g id="ytick_19">
      <g id="line2d_20">
       <g>
        <use style="stroke:#000000;stroke-width:0.6;" x="45.478125" xlink:href="#m517768f2a2" y="167.253838"/>
       </g>
      </g>
     </g>
     <g id="ytick_20">
      <g id="line2d_21">
       <g>
        <use style="stroke:#000000;stroke-width:0.6;" x="45.478125" xlink:href="#m517768f2a2" y="164.32554"/>
       </g>
      </g>
     </g>
     <g id="ytick_21">
      <g id="line2d_22">
       <g>
        <use style="stroke:#000000;stroke-width:0.6;" x="45.478125" xlink:href="#m517768f2a2" y="161.742599"/>
       </g>
      </g>
     </g>
     <g id="ytick_22">
      <g id="line2d_23">
       <g>
        <use style="stroke:#000000;stroke-width:0.6;" x="45.478125" xlink:href="#m517768f2a2" y="144.2316"/>
       </g>
      </g>
     </g>
     <g id="ytick_23">
      <g id="line2d_24">
       <g>
        <use style="stroke:#000000;stroke-width:0.6;" x="45.478125" xlink:href="#m517768f2a2" y="135.33989"/>
       </g>
      </g>
     </g>
     <g id="ytick_24">
      <g id="line2d_25">
       <g>
        <use style="stroke:#000000;stroke-width:0.6;" x="45.478125" xlink:href="#m517768f2a2" y="129.031121"/>
       </g>
      </g>
     </g>
     <g id="ytick_25">
      <g id="line2d_26">
       <g>
        <use style="stroke:#000000;stroke-width:0.6;" x="45.478125" xlink:href="#m517768f2a2" y="124.13766"/>
       </g>
      </g>
     </g>
     <g id="ytick_26">
      <g id="line2d_27">
       <g>
        <use style="stroke:#000000;stroke-width:0.6;" x="45.478125" xlink:href="#m517768f2a2" y="120.139411"/>
       </g>
      </g>
     </g>
     <g id="ytick_27">
      <g id="line2d_28">
       <g>
        <use style="stroke:#000000;stroke-width:0.6;" x="45.478125" xlink:href="#m517768f2a2" y="116.75894"/>
       </g>
      </g>
     </g>
     <g id="ytick_28">
      <g id="line2d_29">
       <g>
        <use style="stroke:#000000;stroke-width:0.6;" x="45.478125" xlink:href="#m517768f2a2" y="113.830642"/>
       </g>
      </g>
     </g>
     <g id="ytick_29">
      <g id="line2d_30">
       <g>
        <use style="stroke:#000000;stroke-width:0.6;" x="45.478125" xlink:href="#m517768f2a2" y="111.247701"/>
       </g>
      </g>
     </g>
     <g id="ytick_30">
      <g id="line2d_31">
       <g>
        <use style="stroke:#000000;stroke-width:0.6;" x="45.478125" xlink:href="#m517768f2a2" y="93.736702"/>
       </g>
      </g>
     </g>
     <g id="ytick_31">
      <g id="line2d_32">
       <g>
        <use style="stroke:#000000;stroke-width:0.6;" x="45.478125" xlink:href="#m517768f2a2" y="84.844992"/>
       </g>
      </g>
     </g>
     <g id="ytick_32">
      <g id="line2d_33">
       <g>
        <use style="stroke:#000000;stroke-width:0.6;" x="45.478125" xlink:href="#m517768f2a2" y="78.536223"/>
       </g>
      </g>
     </g>
     <g id="ytick_33">
      <g id="line2d_34">
       <g>
        <use style="stroke:#000000;stroke-width:0.6;" x="45.478125" xlink:href="#m517768f2a2" y="73.642762"/>
       </g>
      </g>
     </g>
     <g id="ytick_34">
      <g id="line2d_35">
       <g>
        <use style="stroke:#000000;stroke-width:0.6;" x="45.478125" xlink:href="#m517768f2a2" y="69.644513"/>
       </g>
      </g>
     </g>
     <g id="ytick_35">
      <g id="line2d_36">
       <g>
        <use style="stroke:#000000;stroke-width:0.6;" x="45.478125" xlink:href="#m517768f2a2" y="66.264041"/>
       </g>
      </g>
     </g>
     <g id="ytick_36">
      <g id="line2d_37">
       <g>
        <use style="stroke:#000000;stroke-width:0.6;" x="45.478125" xlink:href="#m517768f2a2" y="63.335744"/>
       </g>
      </g>
     </g>
     <g id="ytick_37">
      <g id="line2d_38">
       <g>
        <use style="stroke:#000000;stroke-width:0.6;" x="45.478125" xlink:href="#m517768f2a2" y="60.752803"/>
       </g>
      </g>
     </g>
     <g id="ytick_38">
      <g id="line2d_39">
       <g>
        <use style="stroke:#000000;stroke-width:0.6;" x="45.478125" xlink:href="#m517768f2a2" y="43.241804"/>
       </g>
      </g>
     </g>
     <g id="ytick_39">
      <g id="line2d_40">
       <g>
        <use style="stroke:#000000;stroke-width:0.6;" x="45.478125" xlink:href="#m517768f2a2" y="34.350094"/>
       </g>
      </g>
     </g>
     <g id="ytick_40">
      <g id="line2d_41">
       <g>
        <use style="stroke:#000000;stroke-width:0.6;" x="45.478125" xlink:href="#m517768f2a2" y="28.041325"/>
       </g>
      </g>
     </g>
     <g id="ytick_41">
      <g id="line2d_42">
       <g>
        <use style="stroke:#000000;stroke-width:0.6;" x="45.478125" xlink:href="#m517768f2a2" y="23.147864"/>
       </g>
      </g>
     </g>
     <g id="text_7">
      <!-- time ago (generations) -->
      <g transform="translate(14.798438 198.841094)rotate(-90)scale(0.1 -0.1)">
       <defs>
        <path d="M 18.3125 70.21875 
L 18.3125 54.6875 
L 36.8125 54.6875 
L 36.8125 47.703125 
L 18.3125 47.703125 
L 18.3125 18.015625 
Q 18.3125 11.328125 20.140625 9.421875 
Q 21.96875 7.515625 27.59375 7.515625 
L 36.8125 7.515625 
L 36.8125 0 
L 27.59375 0 
Q 17.1875 0 13.234375 3.875 
Q 9.28125 7.765625 9.28125 18.015625 
L 9.28125 47.703125 
L 2.6875 47.703125 
L 2.6875 54.6875 
L 9.28125 54.6875 
L 9.28125 70.21875 
z
" id="DejaVuSans-116"/>
        <path d="M 9.421875 54.6875 
L 18.40625 54.6875 
L 18.40625 0 
L 9.421875 0 
z
M 9.421875 75.984375 
L 18.40625 75.984375 
L 18.40625 64.59375 
L 9.421875 64.59375 
z
" id="DejaVuSans-105"/>
        <path d="M 52 44.1875 
Q 55.375 50.25 60.0625 53.125 
Q 64.75 56 71.09375 56 
Q 79.640625 56 84.28125 50.015625 
Q 88.921875 44.046875 88.921875 33.015625 
L 88.921875 0 
L 79.890625 0 
L 79.890625 32.71875 
Q 79.890625 40.578125 77.09375 44.375 
Q 74.3125 48.1875 68.609375 48.1875 
Q 61.625 48.1875 57.5625 43.546875 
Q 53.515625 38.921875 53.515625 30.90625 
L 53.515625 0 
L 44.484375 0 
L 44.484375 32.71875 
Q 44.484375 40.625 41.703125 44.40625 
Q 38.921875 48.1875 33.109375 48.1875 
Q 26.21875 48.1875 22.15625 43.53125 
Q 18.109375 38.875 18.109375 30.90625 
L 18.109375 0 
L 9.078125 0 
L 9.078125 54.6875 
L 18.109375 54.6875 
L 18.109375 46.1875 
Q 21.1875 51.21875 25.484375 53.609375 
Q 29.78125 56 35.6875 56 
Q 41.65625 56 45.828125 52.96875 
Q 50 49.953125 52 44.1875 
z
" id="DejaVuSans-109"/>
        <path d="M 56.203125 29.59375 
L 56.203125 25.203125 
L 14.890625 25.203125 
Q 15.484375 15.921875 20.484375 11.0625 
Q 25.484375 6.203125 34.421875 6.203125 
Q 39.59375 6.203125 44.453125 7.46875 
Q 49.3125 8.734375 54.109375 11.28125 
L 54.109375 2.78125 
Q 49.265625 0.734375 44.1875 -0.34375 
Q 39.109375 -1.421875 33.890625 -1.421875 
Q 20.796875 -1.421875 13.15625 6.1875 
Q 5.515625 13.8125 5.515625 26.8125 
Q 5.515625 40.234375 12.765625 48.109375 
Q 20.015625 56 32.328125 56 
Q 43.359375 56 49.78125 48.890625 
Q 56.203125 41.796875 56.203125 29.59375 
z
M 47.21875 32.234375 
Q 47.125 39.59375 43.09375 43.984375 
Q 39.0625 48.390625 32.421875 48.390625 
Q 24.90625 48.390625 20.390625 44.140625 
Q 15.875 39.890625 15.1875 32.171875 
z
" id="DejaVuSans-101"/>
        <path id="DejaVuSans-32"/>
        <path d="M 34.28125 27.484375 
Q 23.390625 27.484375 19.1875 25 
Q 14.984375 22.515625 14.984375 16.5 
Q 14.984375 11.71875 18.140625 8.90625 
Q 21.296875 6.109375 26.703125 6.109375 
Q 34.1875 6.109375 38.703125 11.40625 
Q 43.21875 16.703125 43.21875 25.484375 
L 43.21875 27.484375 
z
M 52.203125 31.203125 
L 52.203125 0 
L 43.21875 0 
L 43.21875 8.296875 
Q 40.140625 3.328125 35.546875 0.953125 
Q 30.953125 -1.421875 24.3125 -1.421875 
Q 15.921875 -1.421875 10.953125 3.296875 
Q 6 8.015625 6 15.921875 
Q 6 25.140625 12.171875 29.828125 
Q 18.359375 34.515625 30.609375 34.515625 
L 43.21875 34.515625 
L 43.21875 35.40625 
Q 43.21875 41.609375 39.140625 45 
Q 35.0625 48.390625 27.6875 48.390625 
Q 23 48.390625 18.546875 47.265625 
Q 14.109375 46.140625 10.015625 43.890625 
L 10.015625 52.203125 
Q 14.9375 54.109375 19.578125 55.046875 
Q 24.21875 56 28.609375 56 
Q 40.484375 56 46.34375 49.84375 
Q 52.203125 43.703125 52.203125 31.203125 
z
" id="DejaVuSans-97"/>
        <path d="M 45.40625 27.984375 
Q 45.40625 37.75 41.375 43.109375 
Q 37.359375 48.484375 30.078125 48.484375 
Q 22.859375 48.484375 18.828125 43.109375 
Q 14.796875 37.75 14.796875 27.984375 
Q 14.796875 18.265625 18.828125 12.890625 
Q 22.859375 7.515625 30.078125 7.515625 
Q 37.359375 7.515625 41.375 12.890625 
Q 45.40625 18.265625 45.40625 27.984375 
z
M 54.390625 6.78125 
Q 54.390625 -7.171875 48.1875 -13.984375 
Q 42 -20.796875 29.203125 -20.796875 
Q 24.46875 -20.796875 20.265625 -20.09375 
Q 16.0625 -19.390625 12.109375 -17.921875 
L 12.109375 -9.1875 
Q 16.0625 -11.328125 19.921875 -12.34375 
Q 23.78125 -13.375 27.78125 -13.375 
Q 36.625 -13.375 41.015625 -8.765625 
Q 45.40625 -4.15625 45.40625 5.171875 
L 45.40625 9.625 
Q 42.625 4.78125 38.28125 2.390625 
Q 33.9375 0 27.875 0 
Q 17.828125 0 11.671875 7.65625 
Q 5.515625 15.328125 5.515625 27.984375 
Q 5.515625 40.671875 11.671875 48.328125 
Q 17.828125 56 27.875 56 
Q 33.9375 56 38.28125 53.609375 
Q 42.625 51.21875 45.40625 46.390625 
L 45.40625 54.6875 
L 54.390625 54.6875 
z
" id="DejaVuSans-103"/>
        <path d="M 30.609375 48.390625 
Q 23.390625 48.390625 19.1875 42.75 
Q 14.984375 37.109375 14.984375 27.296875 
Q 14.984375 17.484375 19.15625 11.84375 
Q 23.34375 6.203125 30.609375 6.203125 
Q 37.796875 6.203125 41.984375 11.859375 
Q 46.1875 17.53125 46.1875 27.296875 
Q 46.1875 37.015625 41.984375 42.703125 
Q 37.796875 48.390625 30.609375 48.390625 
z
M 30.609375 56 
Q 42.328125 56 49.015625 48.375 
Q 55.71875 40.765625 55.71875 27.296875 
Q 55.71875 13.875 49.015625 6.21875 
Q 42.328125 -1.421875 30.609375 -1.421875 
Q 18.84375 -1.421875 12.171875 6.21875 
Q 5.515625 13.875 5.515625 27.296875 
Q 5.515625 40.765625 12.171875 48.375 
Q 18.84375 56 30.609375 56 
z
" id="DejaVuSans-111"/>
        <path d="M 31 75.875 
Q 24.46875 64.65625 21.28125 53.65625 
Q 18.109375 42.671875 18.109375 31.390625 
Q 18.109375 20.125 21.3125 9.0625 
Q 24.515625 -2 31 -13.1875 
L 23.1875 -13.1875 
Q 15.875 -1.703125 12.234375 9.375 
Q 8.59375 20.453125 8.59375 31.390625 
Q 8.59375 42.28125 12.203125 53.3125 
Q 15.828125 64.359375 23.1875 75.875 
z
" id="DejaVuSans-40"/>
        <path d="M 54.890625 33.015625 
L 54.890625 0 
L 45.90625 0 
L 45.90625 32.71875 
Q 45.90625 40.484375 42.875 44.328125 
Q 39.84375 48.1875 33.796875 48.1875 
Q 26.515625 48.1875 22.3125 43.546875 
Q 18.109375 38.921875 18.109375 30.90625 
L 18.109375 0 
L 9.078125 0 
L 9.078125 54.6875 
L 18.109375 54.6875 
L 18.109375 46.1875 
Q 21.34375 51.125 25.703125 53.5625 
Q 30.078125 56 35.796875 56 
Q 45.21875 56 50.046875 50.171875 
Q 54.890625 44.34375 54.890625 33.015625 
z
" id="DejaVuSans-110"/>
        <path d="M 41.109375 46.296875 
Q 39.59375 47.171875 37.8125 47.578125 
Q 36.03125 48 33.890625 48 
Q 26.265625 48 22.1875 43.046875 
Q 18.109375 38.09375 18.109375 28.8125 
L 18.109375 0 
L 9.078125 0 
L 9.078125 54.6875 
L 18.109375 54.6875 
L 18.109375 46.1875 
Q 20.953125 51.171875 25.484375 53.578125 
Q 30.03125 56 36.53125 56 
Q 37.453125 56 38.578125 55.875 
Q 39.703125 55.765625 41.0625 55.515625 
z
" id="DejaVuSans-114"/>
        <path d="M 44.28125 53.078125 
L 44.28125 44.578125 
Q 40.484375 46.53125 36.375 47.5 
Q 32.28125 48.484375 27.875 48.484375 
Q 21.1875 48.484375 17.84375 46.4375 
Q 14.5 44.390625 14.5 40.28125 
Q 14.5 37.15625 16.890625 35.375 
Q 19.28125 33.59375 26.515625 31.984375 
L 29.59375 31.296875 
Q 39.15625 29.25 43.1875 25.515625 
Q 47.21875 21.78125 47.21875 15.09375 
Q 47.21875 7.46875 41.1875 3.015625 
Q 35.15625 -1.421875 24.609375 -1.421875 
Q 20.21875 -1.421875 15.453125 -0.5625 
Q 10.6875 0.296875 5.421875 2 
L 5.421875 11.28125 
Q 10.40625 8.6875 15.234375 7.390625 
Q 20.0625 6.109375 24.8125 6.109375 
Q 31.15625 6.109375 34.5625 8.28125 
Q 37.984375 10.453125 37.984375 14.40625 
Q 37.984375 18.0625 35.515625 20.015625 
Q 33.0625 21.96875 24.703125 23.78125 
L 21.578125 24.515625 
Q 13.234375 26.265625 9.515625 29.90625 
Q 5.8125 33.546875 5.8125 39.890625 
Q 5.8125 47.609375 11.28125 51.796875 
Q 16.75 56 26.8125 56 
Q 31.78125 56 36.171875 55.265625 
Q 40.578125 54.546875 44.28125 53.078125 
z
" id="DejaVuSans-115"/>
        <path d="M 8.015625 75.875 
L 15.828125 75.875 
Q 23.140625 64.359375 26.78125 53.3125 
Q 30.421875 42.28125 30.421875 31.390625 
Q 30.421875 20.453125 26.78125 9.375 
Q 23.140625 -1.703125 15.828125 -13.1875 
L 8.015625 -13.1875 
Q 14.5 -2 17.703125 9.0625 
Q 20.90625 20.125 20.90625 31.390625 
Q 20.90625 42.671875 17.703125 53.65625 
Q 14.5 64.65625 8.015625 75.875 
z
" id="DejaVuSans-41"/>
       </defs>
       <use xlink:href="#DejaVuSans-116"/>
       <use x="39.208984" xlink:href="#DejaVuSans-105"/>
       <use x="66.992188" xlink:href="#DejaVuSans-109"/>
       <use x="164.404297" xlink:href="#DejaVuSans-101"/>
       <use x="225.927734" xlink:href="#DejaVuSans-32"/>
       <use x="257.714844" xlink:href="#DejaVuSans-97"/>
       <use x="318.994141" xlink:href="#DejaVuSans-103"/>
       <use x="382.470703" xlink:href="#DejaVuSans-111"/>
       <use x="443.652344" xlink:href="#DejaVuSans-32"/>
       <use x="475.439453" xlink:href="#DejaVuSans-40"/>
       <use x="514.453125" xlink:href="#DejaVuSans-103"/>
       <use x="577.929688" xlink:href="#DejaVuSans-101"/>
       <use x="639.453125" xlink:href="#DejaVuSans-110"/>
       <use x="702.832031" xlink:href="#DejaVuSans-101"/>
       <use x="764.355469" xlink:href="#DejaVuSans-114"/>
       <use x="805.46875" xlink:href="#DejaVuSans-97"/>
       <use x="866.748047" xlink:href="#DejaVuSans-116"/>
       <use x="905.957031" xlink:href="#DejaVuSans-105"/>
       <use x="933.740234" xlink:href="#DejaVuSans-111"/>
       <use x="994.921875" xlink:href="#DejaVuSans-110"/>
       <use x="1058.300781" xlink:href="#DejaVuSans-115"/>
       <use x="1110.400391" xlink:href="#DejaVuSans-41"/>
      </g>
     </g>
    </g>
    <g id="patch_4">
     <path d="M 45.478125 260.421875 
L 45.478125 22.318125 
" style="fill:none;stroke:#000000;stroke-linecap:square;stroke-linejoin:miter;stroke-width:0.8;"/>
    </g>
    <g id="text_8">
     <!-- HomSap__Africa_1T12.yaml -->
     <g transform="translate(188.344375 16.318125)scale(0.12 -0.12)">
      <defs>
       <path d="M 9.8125 72.90625 
L 19.671875 72.90625 
L 19.671875 43.015625 
L 55.515625 43.015625 
L 55.515625 72.90625 
L 65.375 72.90625 
L 65.375 0 
L 55.515625 0 
L 55.515625 34.71875 
L 19.671875 34.71875 
L 19.671875 0 
L 9.8125 0 
z
" id="DejaVuSans-72"/>
       <path d="M 53.515625 70.515625 
L 53.515625 60.890625 
Q 47.90625 63.578125 42.921875 64.890625 
Q 37.9375 66.21875 33.296875 66.21875 
Q 25.25 66.21875 20.875 63.09375 
Q 16.5 59.96875 16.5 54.203125 
Q 16.5 49.359375 19.40625 46.890625 
Q 22.3125 44.4375 30.421875 42.921875 
L 36.375 41.703125 
Q 47.40625 39.59375 52.65625 34.296875 
Q 57.90625 29 57.90625 20.125 
Q 57.90625 9.515625 50.796875 4.046875 
Q 43.703125 -1.421875 29.984375 -1.421875 
Q 24.8125 -1.421875 18.96875 -0.25 
Q 13.140625 0.921875 6.890625 3.21875 
L 6.890625 13.375 
Q 12.890625 10.015625 18.65625 8.296875 
Q 24.421875 6.59375 29.984375 6.59375 
Q 38.421875 6.59375 43.015625 9.90625 
Q 47.609375 13.234375 47.609375 19.390625 
Q 47.609375 24.75 44.3125 27.78125 
Q 41.015625 30.8125 33.5 32.328125 
L 27.484375 33.5 
Q 16.453125 35.6875 11.515625 40.375 
Q 6.59375 45.0625 6.59375 53.421875 
Q 6.59375 63.09375 13.40625 68.65625 
Q 20.21875 74.21875 32.171875 74.21875 
Q 37.3125 74.21875 42.625 73.28125 
Q 47.953125 72.359375 53.515625 70.515625 
z
" id="DejaVuSans-83"/>
       <path d="M 18.109375 8.203125 
L 18.109375 -20.796875 
L 9.078125 -20.796875 
L 9.078125 54.6875 
L 18.109375 54.6875 
L 18.109375 46.390625 
Q 20.953125 51.265625 25.265625 53.625 
Q 29.59375 56 35.59375 56 
Q 45.5625 56 51.78125 48.09375 
Q 58.015625 40.1875 58.015625 27.296875 
Q 58.015625 14.40625 51.78125 6.484375 
Q 45.5625 -1.421875 35.59375 -1.421875 
Q 29.59375 -1.421875 25.265625 0.953125 
Q 20.953125 3.328125 18.109375 8.203125 
z
M 48.6875 27.296875 
Q 48.6875 37.203125 44.609375 42.84375 
Q 40.53125 48.484375 33.40625 48.484375 
Q 26.265625 48.484375 22.1875 42.84375 
Q 18.109375 37.203125 18.109375 27.296875 
Q 18.109375 17.390625 22.1875 11.75 
Q 26.265625 6.109375 33.40625 6.109375 
Q 40.53125 6.109375 44.609375 11.75 
Q 48.6875 17.390625 48.6875 27.296875 
z
" id="DejaVuSans-112"/>
       <path d="M 50.984375 -16.609375 
L 50.984375 -23.578125 
L -0.984375 -23.578125 
L -0.984375 -16.609375 
z
" id="DejaVuSans-95"/>
       <path d="M 37.109375 75.984375 
L 37.109375 68.5 
L 28.515625 68.5 
Q 23.6875 68.5 21.796875 66.546875 
Q 19.921875 64.59375 19.921875 59.515625 
L 19.921875 54.6875 
L 34.71875 54.6875 
L 34.71875 47.703125 
L 19.921875 47.703125 
L 19.921875 0 
L 10.890625 0 
L 10.890625 47.703125 
L 2.296875 47.703125 
L 2.296875 54.6875 
L 10.890625 54.6875 
L 10.890625 58.5 
Q 10.890625 67.625 15.140625 71.796875 
Q 19.390625 75.984375 28.609375 75.984375 
z
" id="DejaVuSans-102"/>
       <path d="M 48.78125 52.59375 
L 48.78125 44.1875 
Q 44.96875 46.296875 41.140625 47.34375 
Q 37.3125 48.390625 33.40625 48.390625 
Q 24.65625 48.390625 19.8125 42.84375 
Q 14.984375 37.3125 14.984375 27.296875 
Q 14.984375 17.28125 19.8125 11.734375 
Q 24.65625 6.203125 33.40625 6.203125 
Q 37.3125 6.203125 41.140625 7.25 
Q 44.96875 8.296875 48.78125 10.40625 
L 48.78125 2.09375 
Q 45.015625 0.34375 40.984375 -0.53125 
Q 36.96875 -1.421875 32.421875 -1.421875 
Q 20.0625 -1.421875 12.78125 6.34375 
Q 5.515625 14.109375 5.515625 27.296875 
Q 5.515625 40.671875 12.859375 48.328125 
Q 20.21875 56 33.015625 56 
Q 37.15625 56 41.109375 55.140625 
Q 45.0625 54.296875 48.78125 52.59375 
z
" id="DejaVuSans-99"/>
       <path d="M -0.296875 72.90625 
L 61.375 72.90625 
L 61.375 64.59375 
L 35.5 64.59375 
L 35.5 0 
L 25.59375 0 
L 25.59375 64.59375 
L -0.296875 64.59375 
z
" id="DejaVuSans-84"/>
       <path d="M 10.6875 12.40625 
L 21 12.40625 
L 21 0 
L 10.6875 0 
z
" id="DejaVuSans-46"/>
       <path d="M 32.171875 -5.078125 
Q 28.375 -14.84375 24.75 -17.8125 
Q 21.140625 -20.796875 15.09375 -20.796875 
L 7.90625 -20.796875 
L 7.90625 -13.28125 
L 13.1875 -13.28125 
Q 16.890625 -13.28125 18.9375 -11.515625 
Q 21 -9.765625 23.484375 -3.21875 
L 25.09375 0.875 
L 2.984375 54.6875 
L 12.5 54.6875 
L 29.59375 11.921875 
L 46.6875 54.6875 
L 56.203125 54.6875 
z
" id="DejaVuSans-121"/>
       <path d="M 9.421875 75.984375 
L 18.40625 75.984375 
L 18.40625 0 
L 9.421875 0 
z
" id="DejaVuSans-108"/>
      </defs>
      <use xlink:href="#DejaVuSans-72"/>
      <use x="75.195312" xlink:href="#DejaVuSans-111"/>
      <use x="136.376953" xlink:href="#DejaVuSans-109"/>
      <use x="233.789062" xlink:href="#DejaVuSans-83"/>
      <use x="297.265625" xlink:href="#DejaVuSans-97"/>
      <use x="358.544922" xlink:href="#DejaVuSans-112"/>
      <use x="422.021484" xlink:href="#DejaVuSans-95"/>
      <use x="472.021484" xlink:href="#DejaVuSans-95"/>
      <use x="522.021484" xlink:href="#DejaVuSans-65"/>
      <use x="586.804688" xlink:href="#DejaVuSans-102"/>
      <use x="622.009766" xlink:href="#DejaVuSans-114"/>
      <use x="663.123047" xlink:href="#DejaVuSans-105"/>
      <use x="690.90625" xlink:href="#DejaVuSans-99"/>
      <use x="745.886719" xlink:href="#DejaVuSans-97"/>
      <use x="807.166016" xlink:href="#DejaVuSans-95"/>
      <use x="857.166016" xlink:href="#DejaVuSans-49"/>
      <use x="920.789062" xlink:href="#DejaVuSans-84"/>
      <use x="981.873047" xlink:href="#DejaVuSans-49"/>
      <use x="1045.496094" xlink:href="#DejaVuSans-50"/>
      <use x="1109.119141" xlink:href="#DejaVuSans-46"/>
      <use x="1140.90625" xlink:href="#DejaVuSans-121"/>
      <use x="1200.085938" xlink:href="#DejaVuSans-97"/>
      <use x="1261.365234" xlink:href="#DejaVuSans-109"/>
      <use x="1358.777344" xlink:href="#DejaVuSans-108"/>
     </g>
    </g>
   </g>
  </g>
  <defs>
   <clipPath id="p5c24a61aca">
    <rect height="238.10375" width="452.121875" x="45.478125" y="22.318125"/>
   </clipPath>
  </defs>
 </g>
</svg>
