<?xml version="1.0" encoding="utf-8" standalone="no"?>
<!DOCTYPE svg PUBLIC "-//W3C//DTD SVG 1.1//EN"
  "http://www.w3.org/Graphics/SVG/1.1/DTD/svg11.dtd">
<!-- Created with matplotlib (https://matplotlib.org/) -->
<svg height="280.8pt" version="1.1" viewBox="0 0 504.692454 280.8" width="504.692454pt" xmlns="http://www.w3.org/2000/svg" xmlns:xlink="http://www.w3.org/1999/xlink">
 <metadata>
  <rdf:RDF xmlns:cc="http://creativecommons.org/ns#" xmlns:dc="http://purl.org/dc/elements/1.1/" xmlns:rdf="http://www.w3.org/1999/02/22-rdf-syntax-ns#">
   <cc:Work>
    <dc:type rdf:resource="http://purl.org/dc/dcmitype/StillImage"/>
    <dc:date>2021-03-14T20:03:53.698242</dc:date>
    <dc:format>image/svg+xml</dc:format>
    <dc:creator>
     <cc:Agent>
      <dc:title>Matplotlib v3.3.4, https://matplotlib.org/</dc:title>
     </cc:Agent>
    </dc:creator>
   </cc:Work>
  </rdf:RDF>
 </metadata>
 <defs>
  <style type="text/css">*{stroke-linecap:butt;stroke-linejoin:round;}</style>
 </defs>
 <g id="figure_1">
  <g id="patch_1">
   <path d="M 0 280.8 
L 504.692454 280.8 
L 504.692454 0 
L 0 0 
z
" style="fill:none;"/>
  </g>
  <g id="axes_1">
   <g id="patch_2">
    <path d="M 12.988269 243.24375 
L 424.482298 243.24375 
L 424.482298 7.2 
L 12.988269 7.2 
z
" style="fill:#ffffff;"/>
   </g>
   <g id="matplotlib.axis_1">
    <g id="xtick_1">
     <g id="line2d_1">
      <defs>
       <path d="M 0 0 
L 0 3.5 
" id="m6aeb42a325" style="stroke:#000000;stroke-width:0.8;"/>
      </defs>
      <g>
       <use style="stroke:#000000;stroke-width:0.8;" x="424.482298" xlink:href="#m6aeb42a325" y="243.24375"/>
      </g>
     </g>
     <g id="text_1">
      <!-- $\mathdefault{10^{0}}$ -->
      <g transform="translate(415.682298 257.842188)scale(0.1 -0.1)">
       <defs>
        <path d="M 12.40625 8.296875 
L 28.515625 8.296875 
L 28.515625 63.921875 
L 10.984375 60.40625 
L 10.984375 69.390625 
L 28.421875 72.90625 
L 38.28125 72.90625 
L 38.28125 8.296875 
L 54.390625 8.296875 
L 54.390625 0 
L 12.40625 0 
z
" id="DejaVuSans-49"/>
        <path d="M 31.78125 66.40625 
Q 24.171875 66.40625 20.328125 58.90625 
Q 16.5 51.421875 16.5 36.375 
Q 16.5 21.390625 20.328125 13.890625 
Q 24.171875 6.390625 31.78125 6.390625 
Q 39.453125 6.390625 43.28125 13.890625 
Q 47.125 21.390625 47.125 36.375 
Q 47.125 51.421875 43.28125 58.90625 
Q 39.453125 66.40625 31.78125 66.40625 
z
M 31.78125 74.21875 
Q 44.046875 74.21875 50.515625 64.515625 
Q 56.984375 54.828125 56.984375 36.375 
Q 56.984375 17.96875 50.515625 8.265625 
Q 44.046875 -1.421875 31.78125 -1.421875 
Q 19.53125 -1.421875 13.0625 8.265625 
Q 6.59375 17.96875 6.59375 36.375 
Q 6.59375 54.828125 13.0625 64.515625 
Q 19.53125 74.21875 31.78125 74.21875 
z
" id="DejaVuSans-48"/>
       </defs>
       <use transform="translate(0 0.765625)" xlink:href="#DejaVuSans-49"/>
       <use transform="translate(63.623047 0.765625)" xlink:href="#DejaVuSans-48"/>
       <use transform="translate(128.203125 39.046875)scale(0.7)" xlink:href="#DejaVuSans-48"/>
      </g>
     </g>
    </g>
    <g id="xtick_2">
     <g id="line2d_2">
      <g>
       <use style="stroke:#000000;stroke-width:0.8;" x="342.785838" xlink:href="#m6aeb42a325" y="243.24375"/>
      </g>
     </g>
     <g id="text_2">
      <!-- $\mathdefault{10^{1}}$ -->
      <g transform="translate(333.985838 257.842188)scale(0.1 -0.1)">
       <use transform="translate(0 0.684375)" xlink:href="#DejaVuSans-49"/>
       <use transform="translate(63.623047 0.684375)" xlink:href="#DejaVuSans-48"/>
       <use transform="translate(128.203125 38.965625)scale(0.7)" xlink:href="#DejaVuSans-49"/>
      </g>
     </g>
    </g>
    <g id="xtick_3">
     <g id="line2d_3">
      <g>
       <use style="stroke:#000000;stroke-width:0.8;" x="261.089379" xlink:href="#m6aeb42a325" y="243.24375"/>
      </g>
     </g>
     <g id="text_3">
      <!-- $\mathdefault{10^{2}}$ -->
      <g transform="translate(252.289379 257.842188)scale(0.1 -0.1)">
       <defs>
        <path d="M 19.1875 8.296875 
L 53.609375 8.296875 
L 53.609375 0 
L 7.328125 0 
L 7.328125 8.296875 
Q 12.9375 14.109375 22.625 23.890625 
Q 32.328125 33.6875 34.8125 36.53125 
Q 39.546875 41.84375 41.421875 45.53125 
Q 43.3125 49.21875 43.3125 52.78125 
Q 43.3125 58.59375 39.234375 62.25 
Q 35.15625 65.921875 28.609375 65.921875 
Q 23.96875 65.921875 18.8125 64.3125 
Q 13.671875 62.703125 7.8125 59.421875 
L 7.8125 69.390625 
Q 13.765625 71.78125 18.9375 73 
Q 24.125 74.21875 28.421875 74.21875 
Q 39.75 74.21875 46.484375 68.546875 
Q 53.21875 62.890625 53.21875 53.421875 
Q 53.21875 48.921875 51.53125 44.890625 
Q 49.859375 40.875 45.40625 35.40625 
Q 44.1875 33.984375 37.640625 27.21875 
Q 31.109375 20.453125 19.1875 8.296875 
z
" id="DejaVuSans-50"/>
       </defs>
       <use transform="translate(0 0.765625)" xlink:href="#DejaVuSans-49"/>
       <use transform="translate(63.623047 0.765625)" xlink:href="#DejaVuSans-48"/>
       <use transform="translate(128.203125 39.046875)scale(0.7)" xlink:href="#DejaVuSans-50"/>
      </g>
     </g>
    </g>
    <g id="xtick_4">
     <g id="line2d_4">
      <g>
       <use style="stroke:#000000;stroke-width:0.8;" x="179.392919" xlink:href="#m6aeb42a325" y="243.24375"/>
      </g>
     </g>
     <g id="text_4">
      <!-- $\mathdefault{10^{3}}$ -->
      <g transform="translate(170.592919 257.842188)scale(0.1 -0.1)">
       <defs>
        <path d="M 40.578125 39.3125 
Q 47.65625 37.796875 51.625 33 
Q 55.609375 28.21875 55.609375 21.1875 
Q 55.609375 10.40625 48.1875 4.484375 
Q 40.765625 -1.421875 27.09375 -1.421875 
Q 22.515625 -1.421875 17.65625 -0.515625 
Q 12.796875 0.390625 7.625 2.203125 
L 7.625 11.71875 
Q 11.71875 9.328125 16.59375 8.109375 
Q 21.484375 6.890625 26.8125 6.890625 
Q 36.078125 6.890625 40.9375 10.546875 
Q 45.796875 14.203125 45.796875 21.1875 
Q 45.796875 27.640625 41.28125 31.265625 
Q 36.765625 34.90625 28.71875 34.90625 
L 20.21875 34.90625 
L 20.21875 43.015625 
L 29.109375 43.015625 
Q 36.375 43.015625 40.234375 45.921875 
Q 44.09375 48.828125 44.09375 54.296875 
Q 44.09375 59.90625 40.109375 62.90625 
Q 36.140625 65.921875 28.71875 65.921875 
Q 24.65625 65.921875 20.015625 65.03125 
Q 15.375 64.15625 9.8125 62.3125 
L 9.8125 71.09375 
Q 15.4375 72.65625 20.34375 73.4375 
Q 25.25 74.21875 29.59375 74.21875 
Q 40.828125 74.21875 47.359375 69.109375 
Q 53.90625 64.015625 53.90625 55.328125 
Q 53.90625 49.265625 50.4375 45.09375 
Q 46.96875 40.921875 40.578125 39.3125 
z
" id="DejaVuSans-51"/>
       </defs>
       <use transform="translate(0 0.765625)" xlink:href="#DejaVuSans-49"/>
       <use transform="translate(63.623047 0.765625)" xlink:href="#DejaVuSans-48"/>
       <use transform="translate(128.203125 39.046875)scale(0.7)" xlink:href="#DejaVuSans-51"/>
      </g>
     </g>
    </g>
    <g id="xtick_5">
     <g id="line2d_5">
      <g>
       <use style="stroke:#000000;stroke-width:0.8;" x="97.69646" xlink:href="#m6aeb42a325" y="243.24375"/>
      </g>
     </g>
     <g id="text_5">
      <!-- $\mathdefault{10^{4}}$ -->
      <g transform="translate(88.89646 257.842188)scale(0.1 -0.1)">
       <defs>
        <path d="M 37.796875 64.3125 
L 12.890625 25.390625 
L 37.796875 25.390625 
z
M 35.203125 72.90625 
L 47.609375 72.90625 
L 47.609375 25.390625 
L 58.015625 25.390625 
L 58.015625 17.1875 
L 47.609375 17.1875 
L 47.609375 0 
L 37.796875 0 
L 37.796875 17.1875 
L 4.890625 17.1875 
L 4.890625 26.703125 
z
" id="DejaVuSans-52"/>
       </defs>
       <use transform="translate(0 0.684375)" xlink:href="#DejaVuSans-49"/>
       <use transform="translate(63.623047 0.684375)" xlink:href="#DejaVuSans-48"/>
       <use transform="translate(128.203125 38.965625)scale(0.7)" xlink:href="#DejaVuSans-52"/>
      </g>
     </g>
    </g>
    <g id="xtick_6">
     <g id="line2d_6">
      <g>
       <use style="stroke:#000000;stroke-width:0.8;" x="16" xlink:href="#m6aeb42a325" y="243.24375"/>
      </g>
     </g>
     <g id="text_6">
      <!-- $\mathdefault{10^{5}}$ -->
      <g transform="translate(7.2 257.842188)scale(0.1 -0.1)">
       <defs>
        <path d="M 10.796875 72.90625 
L 49.515625 72.90625 
L 49.515625 64.59375 
L 19.828125 64.59375 
L 19.828125 46.734375 
Q 21.96875 47.46875 24.109375 47.828125 
Q 26.265625 48.1875 28.421875 48.1875 
Q 40.625 48.1875 47.75 41.5 
Q 54.890625 34.8125 54.890625 23.390625 
Q 54.890625 11.625 47.5625 5.09375 
Q 40.234375 -1.421875 26.90625 -1.421875 
Q 22.3125 -1.421875 17.546875 -0.640625 
Q 12.796875 0.140625 7.71875 1.703125 
L 7.71875 11.625 
Q 12.109375 9.234375 16.796875 8.0625 
Q 21.484375 6.890625 26.703125 6.890625 
Q 35.15625 6.890625 40.078125 11.328125 
Q 45.015625 15.765625 45.015625 23.390625 
Q 45.015625 31 40.078125 35.4375 
Q 35.15625 39.890625 26.703125 39.890625 
Q 22.75 39.890625 18.8125 39.015625 
Q 14.890625 38.140625 10.796875 36.28125 
z
" id="DejaVuSans-53"/>
       </defs>
       <use transform="translate(0 0.684375)" xlink:href="#DejaVuSans-49"/>
       <use transform="translate(63.623047 0.684375)" xlink:href="#DejaVuSans-48"/>
       <use transform="translate(128.203125 38.965625)scale(0.7)" xlink:href="#DejaVuSans-53"/>
      </g>
     </g>
    </g>
    <g id="xtick_7">
     <g id="line2d_7">
      <defs>
       <path d="M 0 0 
L 0 2 
" id="mf55635139d" style="stroke:#000000;stroke-width:0.6;"/>
      </defs>
      <g>
       <use style="stroke:#000000;stroke-width:0.6;" x="399.889213" xlink:href="#mf55635139d" y="243.24375"/>
      </g>
     </g>
    </g>
    <g id="xtick_8">
     <g id="line2d_8">
      <g>
       <use style="stroke:#000000;stroke-width:0.6;" x="385.503181" xlink:href="#mf55635139d" y="243.24375"/>
      </g>
     </g>
    </g>
    <g id="xtick_9">
     <g id="line2d_9">
      <g>
       <use style="stroke:#000000;stroke-width:0.6;" x="375.296128" xlink:href="#mf55635139d" y="243.24375"/>
      </g>
     </g>
    </g>
    <g id="xtick_10">
     <g id="line2d_10">
      <g>
       <use style="stroke:#000000;stroke-width:0.6;" x="367.378923" xlink:href="#mf55635139d" y="243.24375"/>
      </g>
     </g>
    </g>
    <g id="xtick_11">
     <g id="line2d_11">
      <g>
       <use style="stroke:#000000;stroke-width:0.6;" x="360.910096" xlink:href="#mf55635139d" y="243.24375"/>
      </g>
     </g>
    </g>
    <g id="xtick_12">
     <g id="line2d_12">
      <g>
       <use style="stroke:#000000;stroke-width:0.6;" x="355.44078" xlink:href="#mf55635139d" y="243.24375"/>
      </g>
     </g>
    </g>
    <g id="xtick_13">
     <g id="line2d_13">
      <g>
       <use style="stroke:#000000;stroke-width:0.6;" x="350.703043" xlink:href="#mf55635139d" y="243.24375"/>
      </g>
     </g>
    </g>
    <g id="xtick_14">
     <g id="line2d_14">
      <g>
       <use style="stroke:#000000;stroke-width:0.6;" x="346.524063" xlink:href="#mf55635139d" y="243.24375"/>
      </g>
     </g>
    </g>
    <g id="xtick_15">
     <g id="line2d_15">
      <g>
       <use style="stroke:#000000;stroke-width:0.6;" x="318.192753" xlink:href="#mf55635139d" y="243.24375"/>
      </g>
     </g>
    </g>
    <g id="xtick_16">
     <g id="line2d_16">
      <g>
       <use style="stroke:#000000;stroke-width:0.6;" x="303.806721" xlink:href="#mf55635139d" y="243.24375"/>
      </g>
     </g>
    </g>
    <g id="xtick_17">
     <g id="line2d_17">
      <g>
       <use style="stroke:#000000;stroke-width:0.6;" x="293.599669" xlink:href="#mf55635139d" y="243.24375"/>
      </g>
     </g>
    </g>
    <g id="xtick_18">
     <g id="line2d_18">
      <g>
       <use style="stroke:#000000;stroke-width:0.6;" x="285.682464" xlink:href="#mf55635139d" y="243.24375"/>
      </g>
     </g>
    </g>
    <g id="xtick_19">
     <g id="line2d_19">
      <g>
       <use style="stroke:#000000;stroke-width:0.6;" x="279.213636" xlink:href="#mf55635139d" y="243.24375"/>
      </g>
     </g>
    </g>
    <g id="xtick_20">
     <g id="line2d_20">
      <g>
       <use style="stroke:#000000;stroke-width:0.6;" x="273.74432" xlink:href="#mf55635139d" y="243.24375"/>
      </g>
     </g>
    </g>
    <g id="xtick_21">
     <g id="line2d_21">
      <g>
       <use style="stroke:#000000;stroke-width:0.6;" x="269.006584" xlink:href="#mf55635139d" y="243.24375"/>
      </g>
     </g>
    </g>
    <g id="xtick_22">
     <g id="line2d_22">
      <g>
       <use style="stroke:#000000;stroke-width:0.6;" x="264.827604" xlink:href="#mf55635139d" y="243.24375"/>
      </g>
     </g>
    </g>
    <g id="xtick_23">
     <g id="line2d_23">
      <g>
       <use style="stroke:#000000;stroke-width:0.6;" x="236.496294" xlink:href="#mf55635139d" y="243.24375"/>
      </g>
     </g>
    </g>
    <g id="xtick_24">
     <g id="line2d_24">
      <g>
       <use style="stroke:#000000;stroke-width:0.6;" x="222.110261" xlink:href="#mf55635139d" y="243.24375"/>
      </g>
     </g>
    </g>
    <g id="xtick_25">
     <g id="line2d_25">
      <g>
       <use style="stroke:#000000;stroke-width:0.6;" x="211.903209" xlink:href="#mf55635139d" y="243.24375"/>
      </g>
     </g>
    </g>
    <g id="xtick_26">
     <g id="line2d_26">
      <g>
       <use style="stroke:#000000;stroke-width:0.6;" x="203.986004" xlink:href="#mf55635139d" y="243.24375"/>
      </g>
     </g>
    </g>
    <g id="xtick_27">
     <g id="line2d_27">
      <g>
       <use style="stroke:#000000;stroke-width:0.6;" x="197.517177" xlink:href="#mf55635139d" y="243.24375"/>
      </g>
     </g>
    </g>
    <g id="xtick_28">
     <g id="line2d_28">
      <g>
       <use style="stroke:#000000;stroke-width:0.6;" x="192.047861" xlink:href="#mf55635139d" y="243.24375"/>
      </g>
     </g>
    </g>
    <g id="xtick_29">
     <g id="line2d_29">
      <g>
       <use style="stroke:#000000;stroke-width:0.6;" x="187.310124" xlink:href="#mf55635139d" y="243.24375"/>
      </g>
     </g>
    </g>
    <g id="xtick_30">
     <g id="line2d_30">
      <g>
       <use style="stroke:#000000;stroke-width:0.6;" x="183.131144" xlink:href="#mf55635139d" y="243.24375"/>
      </g>
     </g>
    </g>
    <g id="xtick_31">
     <g id="line2d_31">
      <g>
       <use style="stroke:#000000;stroke-width:0.6;" x="154.799834" xlink:href="#mf55635139d" y="243.24375"/>
      </g>
     </g>
    </g>
    <g id="xtick_32">
     <g id="line2d_32">
      <g>
       <use style="stroke:#000000;stroke-width:0.6;" x="140.413802" xlink:href="#mf55635139d" y="243.24375"/>
      </g>
     </g>
    </g>
    <g id="xtick_33">
     <g id="line2d_33">
      <g>
       <use style="stroke:#000000;stroke-width:0.6;" x="130.206749" xlink:href="#mf55635139d" y="243.24375"/>
      </g>
     </g>
    </g>
    <g id="xtick_34">
     <g id="line2d_34">
      <g>
       <use style="stroke:#000000;stroke-width:0.6;" x="122.289544" xlink:href="#mf55635139d" y="243.24375"/>
      </g>
     </g>
    </g>
    <g id="xtick_35">
     <g id="line2d_35">
      <g>
       <use style="stroke:#000000;stroke-width:0.6;" x="115.820717" xlink:href="#mf55635139d" y="243.24375"/>
      </g>
     </g>
    </g>
    <g id="xtick_36">
     <g id="line2d_36">
      <g>
       <use style="stroke:#000000;stroke-width:0.6;" x="110.351401" xlink:href="#mf55635139d" y="243.24375"/>
      </g>
     </g>
    </g>
    <g id="xtick_37">
     <g id="line2d_37">
      <g>
       <use style="stroke:#000000;stroke-width:0.6;" x="105.613665" xlink:href="#mf55635139d" y="243.24375"/>
      </g>
     </g>
    </g>
    <g id="xtick_38">
     <g id="line2d_38">
      <g>
       <use style="stroke:#000000;stroke-width:0.6;" x="101.434685" xlink:href="#mf55635139d" y="243.24375"/>
      </g>
     </g>
    </g>
    <g id="xtick_39">
     <g id="line2d_39">
      <g>
       <use style="stroke:#000000;stroke-width:0.6;" x="73.103375" xlink:href="#mf55635139d" y="243.24375"/>
      </g>
     </g>
    </g>
    <g id="xtick_40">
     <g id="line2d_40">
      <g>
       <use style="stroke:#000000;stroke-width:0.6;" x="58.717342" xlink:href="#mf55635139d" y="243.24375"/>
      </g>
     </g>
    </g>
    <g id="xtick_41">
     <g id="line2d_41">
      <g>
       <use style="stroke:#000000;stroke-width:0.6;" x="48.51029" xlink:href="#mf55635139d" y="243.24375"/>
      </g>
     </g>
    </g>
    <g id="xtick_42">
     <g id="line2d_42">
      <g>
       <use style="stroke:#000000;stroke-width:0.6;" x="40.593085" xlink:href="#mf55635139d" y="243.24375"/>
      </g>
     </g>
    </g>
    <g id="xtick_43">
     <g id="line2d_43">
      <g>
       <use style="stroke:#000000;stroke-width:0.6;" x="34.124257" xlink:href="#mf55635139d" y="243.24375"/>
      </g>
     </g>
    </g>
    <g id="xtick_44">
     <g id="line2d_44">
      <g>
       <use style="stroke:#000000;stroke-width:0.6;" x="28.654942" xlink:href="#mf55635139d" y="243.24375"/>
      </g>
     </g>
    </g>
    <g id="xtick_45">
     <g id="line2d_45">
      <g>
       <use style="stroke:#000000;stroke-width:0.6;" x="23.917205" xlink:href="#mf55635139d" y="243.24375"/>
      </g>
     </g>
    </g>
    <g id="xtick_46">
     <g id="line2d_46">
      <g>
       <use style="stroke:#000000;stroke-width:0.6;" x="19.738225" xlink:href="#mf55635139d" y="243.24375"/>
      </g>
     </g>
    </g>
    <g id="text_7">
     <!-- time ago (generations) -->
     <g transform="translate(161.26419 271.520312)scale(0.1 -0.1)">
      <defs>
       <path d="M 18.3125 70.21875 
L 18.3125 54.6875 
L 36.8125 54.6875 
L 36.8125 47.703125 
L 18.3125 47.703125 
L 18.3125 18.015625 
Q 18.3125 11.328125 20.140625 9.421875 
Q 21.96875 7.515625 27.59375 7.515625 
L 36.8125 7.515625 
L 36.8125 0 
L 27.59375 0 
Q 17.1875 0 13.234375 3.875 
Q 9.28125 7.765625 9.28125 18.015625 
L 9.28125 47.703125 
L 2.6875 47.703125 
L 2.6875 54.6875 
L 9.28125 54.6875 
L 9.28125 70.21875 
z
" id="DejaVuSans-116"/>
       <path d="M 9.421875 54.6875 
L 18.40625 54.6875 
L 18.40625 0 
L 9.421875 0 
z
M 9.421875 75.984375 
L 18.40625 75.984375 
L 18.40625 64.59375 
L 9.421875 64.59375 
z
" id="DejaVuSans-105"/>
       <path d="M 52 44.1875 
Q 55.375 50.25 60.0625 53.125 
Q 64.75 56 71.09375 56 
Q 79.640625 56 84.28125 50.015625 
Q 88.921875 44.046875 88.921875 33.015625 
L 88.921875 0 
L 79.890625 0 
L 79.890625 32.71875 
Q 79.890625 40.578125 77.09375 44.375 
Q 74.3125 48.1875 68.609375 48.1875 
Q 61.625 48.1875 57.5625 43.546875 
Q 53.515625 38.921875 53.515625 30.90625 
L 53.515625 0 
L 44.484375 0 
L 44.484375 32.71875 
Q 44.484375 40.625 41.703125 44.40625 
Q 38.921875 48.1875 33.109375 48.1875 
Q 26.21875 48.1875 22.15625 43.53125 
Q 18.109375 38.875 18.109375 30.90625 
L 18.109375 0 
L 9.078125 0 
L 9.078125 54.6875 
L 18.109375 54.6875 
L 18.109375 46.1875 
Q 21.1875 51.21875 25.484375 53.609375 
Q 29.78125 56 35.6875 56 
Q 41.65625 56 45.828125 52.96875 
Q 50 49.953125 52 44.1875 
z
" id="DejaVuSans-109"/>
       <path d="M 56.203125 29.59375 
L 56.203125 25.203125 
L 14.890625 25.203125 
Q 15.484375 15.921875 20.484375 11.0625 
Q 25.484375 6.203125 34.421875 6.203125 
Q 39.59375 6.203125 44.453125 7.46875 
Q 49.3125 8.734375 54.109375 11.28125 
L 54.109375 2.78125 
Q 49.265625 0.734375 44.1875 -0.34375 
Q 39.109375 -1.421875 33.890625 -1.421875 
Q 20.796875 -1.421875 13.15625 6.1875 
Q 5.515625 13.8125 5.515625 26.8125 
Q 5.515625 40.234375 12.765625 48.109375 
Q 20.015625 56 32.328125 56 
Q 43.359375 56 49.78125 48.890625 
Q 56.203125 41.796875 56.203125 29.59375 
z
M 47.21875 32.234375 
Q 47.125 39.59375 43.09375 43.984375 
Q 39.0625 48.390625 32.421875 48.390625 
Q 24.90625 48.390625 20.390625 44.140625 
Q 15.875 39.890625 15.1875 32.171875 
z
" id="DejaVuSans-101"/>
       <path id="DejaVuSans-32"/>
       <path d="M 34.28125 27.484375 
Q 23.390625 27.484375 19.1875 25 
Q 14.984375 22.515625 14.984375 16.5 
Q 14.984375 11.71875 18.140625 8.90625 
Q 21.296875 6.109375 26.703125 6.109375 
Q 34.1875 6.109375 38.703125 11.40625 
Q 43.21875 16.703125 43.21875 25.484375 
L 43.21875 27.484375 
z
M 52.203125 31.203125 
L 52.203125 0 
L 43.21875 0 
L 43.21875 8.296875 
Q 40.140625 3.328125 35.546875 0.953125 
Q 30.953125 -1.421875 24.3125 -1.421875 
Q 15.921875 -1.421875 10.953125 3.296875 
Q 6 8.015625 6 15.921875 
Q 6 25.140625 12.171875 29.828125 
Q 18.359375 34.515625 30.609375 34.515625 
L 43.21875 34.515625 
L 43.21875 35.40625 
Q 43.21875 41.609375 39.140625 45 
Q 35.0625 48.390625 27.6875 48.390625 
Q 23 48.390625 18.546875 47.265625 
Q 14.109375 46.140625 10.015625 43.890625 
L 10.015625 52.203125 
Q 14.9375 54.109375 19.578125 55.046875 
Q 24.21875 56 28.609375 56 
Q 40.484375 56 46.34375 49.84375 
Q 52.203125 43.703125 52.203125 31.203125 
z
" id="DejaVuSans-97"/>
       <path d="M 45.40625 27.984375 
Q 45.40625 37.75 41.375 43.109375 
Q 37.359375 48.484375 30.078125 48.484375 
Q 22.859375 48.484375 18.828125 43.109375 
Q 14.796875 37.75 14.796875 27.984375 
Q 14.796875 18.265625 18.828125 12.890625 
Q 22.859375 7.515625 30.078125 7.515625 
Q 37.359375 7.515625 41.375 12.890625 
Q 45.40625 18.265625 45.40625 27.984375 
z
M 54.390625 6.78125 
Q 54.390625 -7.171875 48.1875 -13.984375 
Q 42 -20.796875 29.203125 -20.796875 
Q 24.46875 -20.796875 20.265625 -20.09375 
Q 16.0625 -19.390625 12.109375 -17.921875 
L 12.109375 -9.1875 
Q 16.0625 -11.328125 19.921875 -12.34375 
Q 23.78125 -13.375 27.78125 -13.375 
Q 36.625 -13.375 41.015625 -8.765625 
Q 45.40625 -4.15625 45.40625 5.171875 
L 45.40625 9.625 
Q 42.625 4.78125 38.28125 2.390625 
Q 33.9375 0 27.875 0 
Q 17.828125 0 11.671875 7.65625 
Q 5.515625 15.328125 5.515625 27.984375 
Q 5.515625 40.671875 11.671875 48.328125 
Q 17.828125 56 27.875 56 
Q 33.9375 56 38.28125 53.609375 
Q 42.625 51.21875 45.40625 46.390625 
L 45.40625 54.6875 
L 54.390625 54.6875 
z
" id="DejaVuSans-103"/>
       <path d="M 30.609375 48.390625 
Q 23.390625 48.390625 19.1875 42.75 
Q 14.984375 37.109375 14.984375 27.296875 
Q 14.984375 17.484375 19.15625 11.84375 
Q 23.34375 6.203125 30.609375 6.203125 
Q 37.796875 6.203125 41.984375 11.859375 
Q 46.1875 17.53125 46.1875 27.296875 
Q 46.1875 37.015625 41.984375 42.703125 
Q 37.796875 48.390625 30.609375 48.390625 
z
M 30.609375 56 
Q 42.328125 56 49.015625 48.375 
Q 55.71875 40.765625 55.71875 27.296875 
Q 55.71875 13.875 49.015625 6.21875 
Q 42.328125 -1.421875 30.609375 -1.421875 
Q 18.84375 -1.421875 12.171875 6.21875 
Q 5.515625 13.875 5.515625 27.296875 
Q 5.515625 40.765625 12.171875 48.375 
Q 18.84375 56 30.609375 56 
z
" id="DejaVuSans-111"/>
       <path d="M 31 75.875 
Q 24.46875 64.65625 21.28125 53.65625 
Q 18.109375 42.671875 18.109375 31.390625 
Q 18.109375 20.125 21.3125 9.0625 
Q 24.515625 -2 31 -13.1875 
L 23.1875 -13.1875 
Q 15.875 -1.703125 12.234375 9.375 
Q 8.59375 20.453125 8.59375 31.390625 
Q 8.59375 42.28125 12.203125 53.3125 
Q 15.828125 64.359375 23.1875 75.875 
z
" id="DejaVuSans-40"/>
       <path d="M 54.890625 33.015625 
L 54.890625 0 
L 45.90625 0 
L 45.90625 32.71875 
Q 45.90625 40.484375 42.875 44.328125 
Q 39.84375 48.1875 33.796875 48.1875 
Q 26.515625 48.1875 22.3125 43.546875 
Q 18.109375 38.921875 18.109375 30.90625 
L 18.109375 0 
L 9.078125 0 
L 9.078125 54.6875 
L 18.109375 54.6875 
L 18.109375 46.1875 
Q 21.34375 51.125 25.703125 53.5625 
Q 30.078125 56 35.796875 56 
Q 45.21875 56 50.046875 50.171875 
Q 54.890625 44.34375 54.890625 33.015625 
z
" id="DejaVuSans-110"/>
       <path d="M 41.109375 46.296875 
Q 39.59375 47.171875 37.8125 47.578125 
Q 36.03125 48 33.890625 48 
Q 26.265625 48 22.1875 43.046875 
Q 18.109375 38.09375 18.109375 28.8125 
L 18.109375 0 
L 9.078125 0 
L 9.078125 54.6875 
L 18.109375 54.6875 
L 18.109375 46.1875 
Q 20.953125 51.171875 25.484375 53.578125 
Q 30.03125 56 36.53125 56 
Q 37.453125 56 38.578125 55.875 
Q 39.703125 55.765625 41.0625 55.515625 
z
" id="DejaVuSans-114"/>
       <path d="M 44.28125 53.078125 
L 44.28125 44.578125 
Q 40.484375 46.53125 36.375 47.5 
Q 32.28125 48.484375 27.875 48.484375 
Q 21.1875 48.484375 17.84375 46.4375 
Q 14.5 44.390625 14.5 40.28125 
Q 14.5 37.15625 16.890625 35.375 
Q 19.28125 33.59375 26.515625 31.984375 
L 29.59375 31.296875 
Q 39.15625 29.25 43.1875 25.515625 
Q 47.21875 21.78125 47.21875 15.09375 
Q 47.21875 7.46875 41.1875 3.015625 
Q 35.15625 -1.421875 24.609375 -1.421875 
Q 20.21875 -1.421875 15.453125 -0.5625 
Q 10.6875 0.296875 5.421875 2 
L 5.421875 11.28125 
Q 10.40625 8.6875 15.234375 7.390625 
Q 20.0625 6.109375 24.8125 6.109375 
Q 31.15625 6.109375 34.5625 8.28125 
Q 37.984375 10.453125 37.984375 14.40625 
Q 37.984375 18.0625 35.515625 20.015625 
Q 33.0625 21.96875 24.703125 23.78125 
L 21.578125 24.515625 
Q 13.234375 26.265625 9.515625 29.90625 
Q 5.8125 33.546875 5.8125 39.890625 
Q 5.8125 47.609375 11.28125 51.796875 
Q 16.75 56 26.8125 56 
Q 31.78125 56 36.171875 55.265625 
Q 40.578125 54.546875 44.28125 53.078125 
z
" id="DejaVuSans-115"/>
       <path d="M 8.015625 75.875 
L 15.828125 75.875 
Q 23.140625 64.359375 26.78125 53.3125 
Q 30.421875 42.28125 30.421875 31.390625 
Q 30.421875 20.453125 26.78125 9.375 
Q 23.140625 -1.703125 15.828125 -13.1875 
L 8.015625 -13.1875 
Q 14.5 -2 17.703125 9.0625 
Q 20.90625 20.125 20.90625 31.390625 
Q 20.90625 42.671875 17.703125 53.65625 
Q 14.5 64.65625 8.015625 75.875 
z
" id="DejaVuSans-41"/>
      </defs>
      <use xlink:href="#DejaVuSans-116"/>
      <use x="39.208984" xlink:href="#DejaVuSans-105"/>
      <use x="66.992188" xlink:href="#DejaVuSans-109"/>
      <use x="164.404297" xlink:href="#DejaVuSans-101"/>
      <use x="225.927734" xlink:href="#DejaVuSans-32"/>
      <use x="257.714844" xlink:href="#DejaVuSans-97"/>
      <use x="318.994141" xlink:href="#DejaVuSans-103"/>
      <use x="382.470703" xlink:href="#DejaVuSans-111"/>
      <use x="443.652344" xlink:href="#DejaVuSans-32"/>
      <use x="475.439453" xlink:href="#DejaVuSans-40"/>
      <use x="514.453125" xlink:href="#DejaVuSans-103"/>
      <use x="577.929688" xlink:href="#DejaVuSans-101"/>
      <use x="639.453125" xlink:href="#DejaVuSans-110"/>
      <use x="702.832031" xlink:href="#DejaVuSans-101"/>
      <use x="764.355469" xlink:href="#DejaVuSans-114"/>
      <use x="805.46875" xlink:href="#DejaVuSans-97"/>
      <use x="866.748047" xlink:href="#DejaVuSans-116"/>
      <use x="905.957031" xlink:href="#DejaVuSans-105"/>
      <use x="933.740234" xlink:href="#DejaVuSans-111"/>
      <use x="994.921875" xlink:href="#DejaVuSans-110"/>
      <use x="1058.300781" xlink:href="#DejaVuSans-115"/>
      <use x="1110.400391" xlink:href="#DejaVuSans-41"/>
     </g>
    </g>
   </g>
   <g id="matplotlib.axis_2">
    <g id="ytick_1">
     <g id="line2d_47">
      <defs>
       <path d="M 0 0 
L 3.5 0 
" id="m1f5d809550" style="stroke:#000000;stroke-width:0.8;"/>
      </defs>
      <g>
       <use style="stroke:#000000;stroke-width:0.8;" x="424.482298" xlink:href="#m1f5d809550" y="243.24375"/>
      </g>
     </g>
     <g id="text_8">
      <!-- 0 -->
      <g transform="translate(431.482298 247.042969)scale(0.1 -0.1)">
       <use xlink:href="#DejaVuSans-48"/>
      </g>
     </g>
    </g>
    <g id="ytick_2">
     <g id="line2d_48">
      <g>
       <use style="stroke:#000000;stroke-width:0.8;" x="424.482298" xlink:href="#m1f5d809550" y="211.678743"/>
      </g>
     </g>
     <g id="text_9">
      <!-- 10000 -->
      <g transform="translate(431.482298 215.477962)scale(0.1 -0.1)">
       <use xlink:href="#DejaVuSans-49"/>
       <use x="63.623047" xlink:href="#DejaVuSans-48"/>
       <use x="127.246094" xlink:href="#DejaVuSans-48"/>
       <use x="190.869141" xlink:href="#DejaVuSans-48"/>
       <use x="254.492188" xlink:href="#DejaVuSans-48"/>
      </g>
     </g>
    </g>
    <g id="ytick_3">
     <g id="line2d_49">
      <g>
       <use style="stroke:#000000;stroke-width:0.8;" x="424.482298" xlink:href="#m1f5d809550" y="180.113737"/>
      </g>
     </g>
     <g id="text_10">
      <!-- 20000 -->
      <g transform="translate(431.482298 183.912956)scale(0.1 -0.1)">
       <use xlink:href="#DejaVuSans-50"/>
       <use x="63.623047" xlink:href="#DejaVuSans-48"/>
       <use x="127.246094" xlink:href="#DejaVuSans-48"/>
       <use x="190.869141" xlink:href="#DejaVuSans-48"/>
       <use x="254.492188" xlink:href="#DejaVuSans-48"/>
      </g>
     </g>
    </g>
    <g id="ytick_4">
     <g id="line2d_50">
      <g>
       <use style="stroke:#000000;stroke-width:0.8;" x="424.482298" xlink:href="#m1f5d809550" y="148.54873"/>
      </g>
     </g>
     <g id="text_11">
      <!-- 30000 -->
      <g transform="translate(431.482298 152.347949)scale(0.1 -0.1)">
       <use xlink:href="#DejaVuSans-51"/>
       <use x="63.623047" xlink:href="#DejaVuSans-48"/>
       <use x="127.246094" xlink:href="#DejaVuSans-48"/>
       <use x="190.869141" xlink:href="#DejaVuSans-48"/>
       <use x="254.492188" xlink:href="#DejaVuSans-48"/>
      </g>
     </g>
    </g>
    <g id="ytick_5">
     <g id="line2d_51">
      <g>
       <use style="stroke:#000000;stroke-width:0.8;" x="424.482298" xlink:href="#m1f5d809550" y="116.983724"/>
      </g>
     </g>
     <g id="text_12">
      <!-- 40000 -->
      <g transform="translate(431.482298 120.782943)scale(0.1 -0.1)">
       <use xlink:href="#DejaVuSans-52"/>
       <use x="63.623047" xlink:href="#DejaVuSans-48"/>
       <use x="127.246094" xlink:href="#DejaVuSans-48"/>
       <use x="190.869141" xlink:href="#DejaVuSans-48"/>
       <use x="254.492188" xlink:href="#DejaVuSans-48"/>
      </g>
     </g>
    </g>
    <g id="ytick_6">
     <g id="line2d_52">
      <g>
       <use style="stroke:#000000;stroke-width:0.8;" x="424.482298" xlink:href="#m1f5d809550" y="85.418717"/>
      </g>
     </g>
     <g id="text_13">
      <!-- 50000 -->
      <g transform="translate(431.482298 89.217936)scale(0.1 -0.1)">
       <use xlink:href="#DejaVuSans-53"/>
       <use x="63.623047" xlink:href="#DejaVuSans-48"/>
       <use x="127.246094" xlink:href="#DejaVuSans-48"/>
       <use x="190.869141" xlink:href="#DejaVuSans-48"/>
       <use x="254.492188" xlink:href="#DejaVuSans-48"/>
      </g>
     </g>
    </g>
    <g id="ytick_7">
     <g id="line2d_53">
      <g>
       <use style="stroke:#000000;stroke-width:0.8;" x="424.482298" xlink:href="#m1f5d809550" y="53.853711"/>
      </g>
     </g>
     <g id="text_14">
      <!-- 60000 -->
      <g transform="translate(431.482298 57.65293)scale(0.1 -0.1)">
       <defs>
        <path d="M 33.015625 40.375 
Q 26.375 40.375 22.484375 35.828125 
Q 18.609375 31.296875 18.609375 23.390625 
Q 18.609375 15.53125 22.484375 10.953125 
Q 26.375 6.390625 33.015625 6.390625 
Q 39.65625 6.390625 43.53125 10.953125 
Q 47.40625 15.53125 47.40625 23.390625 
Q 47.40625 31.296875 43.53125 35.828125 
Q 39.65625 40.375 33.015625 40.375 
z
M 52.59375 71.296875 
L 52.59375 62.3125 
Q 48.875 64.0625 45.09375 64.984375 
Q 41.3125 65.921875 37.59375 65.921875 
Q 27.828125 65.921875 22.671875 59.328125 
Q 17.53125 52.734375 16.796875 39.40625 
Q 19.671875 43.65625 24.015625 45.921875 
Q 28.375 48.1875 33.59375 48.1875 
Q 44.578125 48.1875 50.953125 41.515625 
Q 57.328125 34.859375 57.328125 23.390625 
Q 57.328125 12.15625 50.6875 5.359375 
Q 44.046875 -1.421875 33.015625 -1.421875 
Q 20.359375 -1.421875 13.671875 8.265625 
Q 6.984375 17.96875 6.984375 36.375 
Q 6.984375 53.65625 15.1875 63.9375 
Q 23.390625 74.21875 37.203125 74.21875 
Q 40.921875 74.21875 44.703125 73.484375 
Q 48.484375 72.75 52.59375 71.296875 
z
" id="DejaVuSans-54"/>
       </defs>
       <use xlink:href="#DejaVuSans-54"/>
       <use x="63.623047" xlink:href="#DejaVuSans-48"/>
       <use x="127.246094" xlink:href="#DejaVuSans-48"/>
       <use x="190.869141" xlink:href="#DejaVuSans-48"/>
       <use x="254.492188" xlink:href="#DejaVuSans-48"/>
      </g>
     </g>
    </g>
    <g id="ytick_8">
     <g id="line2d_54">
      <g>
       <use style="stroke:#000000;stroke-width:0.8;" x="424.482298" xlink:href="#m1f5d809550" y="22.288704"/>
      </g>
     </g>
     <g id="text_15">
      <!-- 70000 -->
      <g transform="translate(431.482298 26.087923)scale(0.1 -0.1)">
       <defs>
        <path d="M 8.203125 72.90625 
L 55.078125 72.90625 
L 55.078125 68.703125 
L 28.609375 0 
L 18.3125 0 
L 43.21875 64.59375 
L 8.203125 64.59375 
z
" id="DejaVuSans-55"/>
       </defs>
       <use xlink:href="#DejaVuSans-55"/>
       <use x="63.623047" xlink:href="#DejaVuSans-48"/>
       <use x="127.246094" xlink:href="#DejaVuSans-48"/>
       <use x="190.869141" xlink:href="#DejaVuSans-48"/>
       <use x="254.492188" xlink:href="#DejaVuSans-48"/>
      </g>
     </g>
    </g>
    <g id="text_16">
     <!-- deme -->
     <g transform="translate(469.097142 132.820312)scale(0.1 -0.1)">
      <defs>
       <path d="M 45.40625 46.390625 
L 45.40625 75.984375 
L 54.390625 75.984375 
L 54.390625 0 
L 45.40625 0 
L 45.40625 8.203125 
Q 42.578125 3.328125 38.25 0.953125 
Q 33.9375 -1.421875 27.875 -1.421875 
Q 17.96875 -1.421875 11.734375 6.484375 
Q 5.515625 14.40625 5.515625 27.296875 
Q 5.515625 40.1875 11.734375 48.09375 
Q 17.96875 56 27.875 56 
Q 33.9375 56 38.25 53.625 
Q 42.578125 51.265625 45.40625 46.390625 
z
M 14.796875 27.296875 
Q 14.796875 17.390625 18.875 11.75 
Q 22.953125 6.109375 30.078125 6.109375 
Q 37.203125 6.109375 41.296875 11.75 
Q 45.40625 17.390625 45.40625 27.296875 
Q 45.40625 37.203125 41.296875 42.84375 
Q 37.203125 48.484375 30.078125 48.484375 
Q 22.953125 48.484375 18.875 42.84375 
Q 14.796875 37.203125 14.796875 27.296875 
z
" id="DejaVuSans-100"/>
      </defs>
      <use xlink:href="#DejaVuSans-100"/>
      <use x="63.476562" xlink:href="#DejaVuSans-101"/>
      <use x="125" xlink:href="#DejaVuSans-109"/>
      <use x="222.412109" xlink:href="#DejaVuSans-101"/>
     </g>
     <!-- size -->
     <g transform="translate(473.600267 144.018125)scale(0.1 -0.1)">
      <defs>
       <path d="M 5.515625 54.6875 
L 48.1875 54.6875 
L 48.1875 46.484375 
L 14.40625 7.171875 
L 48.1875 7.171875 
L 48.1875 0 
L 4.296875 0 
L 4.296875 8.203125 
L 38.09375 47.515625 
L 5.515625 47.515625 
z
" id="DejaVuSans-122"/>
      </defs>
      <use xlink:href="#DejaVuSans-115"/>
      <use x="52.099609" xlink:href="#DejaVuSans-105"/>
      <use x="79.882812" xlink:href="#DejaVuSans-122"/>
      <use x="132.373047" xlink:href="#DejaVuSans-101"/>
     </g>
    </g>
   </g>
   <path clip-path="url(#pab6e5c43a5)" d="M 12.988269 220.655831 
L 54.137672 220.655831 
" style="fill:none;stroke:#ffffff;stroke-width:3;"/>
   <path clip-path="url(#pab6e5c43a5)" d="M 12.988269 220.655831 
L 54.137672 220.655831 
" style="fill:none;stroke:#1f77b4;stroke-opacity:0.7;stroke-width:2;"/>
   <path clip-path="url(#pab6e5c43a5)" d="M 54.137672 220.655831 
L 54.407485 220.124315 
L 54.679366 219.580291 
L 54.953347 219.023465 
L 55.22946 218.453537 
L 55.507738 217.870198 
L 55.788217 217.273133 
L 56.07093 216.662017 
L 56.355914 216.036522 
L 56.643205 215.396308 
L 56.932842 214.741029 
L 57.224863 214.070331 
L 57.519307 213.383851 
L 57.816215 212.681217 
L 58.115629 211.962049 
L 58.417591 211.225959 
L 58.722145 210.472548 
L 59.029336 209.701408 
L 59.339209 208.912122 
L 59.651813 208.104264 
L 59.967196 207.277396 
L 60.285407 206.431071 
L 60.606498 205.564831 
L 60.930522 204.678207 
L 61.257532 203.770721 
L 61.587583 202.84188 
L 61.920734 201.891183 
L 62.257043 200.918114 
L 62.59657 199.922149 
L 62.939378 198.902747 
L 63.28553 197.859358 
L 63.635093 196.791417 
L 63.988134 195.698346 
L 64.344723 194.579554 
L 64.704932 193.434436 
L 65.068836 192.262372 
L 65.436511 191.062728 
L 65.808036 189.834855 
L 66.183493 188.57809 
L 66.562965 187.291751 
L 66.94654 185.975143 
L 67.334307 184.627554 
L 67.726358 183.248255 
L 68.12279 181.8365 
L 68.523702 180.391525 
L 68.929196 178.912547 
L 69.339378 177.398769 
L 69.754357 175.849369 
L 70.174247 174.26351 
L 70.599166 172.640335 
L 71.029236 170.978964 
L 71.464583 169.2785 
L 71.905338 167.538022 
L 72.351637 165.756589 
L 72.803621 163.933237 
L 73.261438 162.066979 
L 73.72524 160.156807 
L 74.195185 158.201686 
L 74.671438 156.20056 
L 75.15417 154.152344 
L 75.643562 152.055933 
L 76.139798 149.91019 
L 76.643074 147.713956 
L 77.15359 145.466042 
L 77.67156 143.165233 
L 78.197204 140.810283 
L 78.730753 138.399919 
L 79.272448 135.932836 
L 79.822541 133.407701 
L 80.381298 130.823147 
L 80.948995 128.177775 
L 81.525923 125.470155 
L 82.112388 122.698822 
L 82.70871 119.862277 
L 83.315226 116.958984 
L 83.93229 113.987375 
L 84.560277 110.94584 
L 85.199579 107.832735 
L 85.850612 104.646376 
L 86.513815 101.385038 
L 87.189651 98.046957 
L 87.878611 94.630328 
L 88.581214 91.133303 
L 89.298012 87.553988 
L 90.029591 83.890449 
L 90.776573 80.140703 
L 91.53962 76.302722 
L 92.319438 72.374429 
L 93.116782 68.353699 
L 93.932457 64.238358 
L 94.767327 60.026178 
L 95.622315 55.714881 
L 96.498417 51.302135 
L 97.3967 46.785553 
L 98.318319 42.162691 
L 99.264516 37.431048 
L 100.23664 32.588065 
L 101.236152 27.631121 
L 102.264639 22.557536 
L 103.323831 17.364563 
" style="fill:none;stroke:#ffffff;stroke-width:3;"/>
   <path clip-path="url(#pab6e5c43a5)" d="M 54.137672 220.655831 
L 54.407485 220.124315 
L 54.679366 219.580291 
L 54.953347 219.023465 
L 55.22946 218.453537 
L 55.507738 217.870198 
L 55.788217 217.273133 
L 56.07093 216.662017 
L 56.355914 216.036522 
L 56.643205 215.396308 
L 56.932842 214.741029 
L 57.224863 214.070331 
L 57.519307 213.383851 
L 57.816215 212.681217 
L 58.115629 211.962049 
L 58.417591 211.225959 
L 58.722145 210.472548 
L 59.029336 209.701408 
L 59.339209 208.912122 
L 59.651813 208.104264 
L 59.967196 207.277396 
L 60.285407 206.431071 
L 60.606498 205.564831 
L 60.930522 204.678207 
L 61.257532 203.770721 
L 61.587583 202.84188 
L 61.920734 201.891183 
L 62.257043 200.918114 
L 62.59657 199.922149 
L 62.939378 198.902747 
L 63.28553 197.859358 
L 63.635093 196.791417 
L 63.988134 195.698346 
L 64.344723 194.579554 
L 64.704932 193.434436 
L 65.068836 192.262372 
L 65.436511 191.062728 
L 65.808036 189.834855 
L 66.183493 188.57809 
L 66.562965 187.291751 
L 66.94654 185.975143 
L 67.334307 184.627554 
L 67.726358 183.248255 
L 68.12279 181.8365 
L 68.523702 180.391525 
L 68.929196 178.912547 
L 69.339378 177.398769 
L 69.754357 175.849369 
L 70.174247 174.26351 
L 70.599166 172.640335 
L 71.029236 170.978964 
L 71.464583 169.2785 
L 71.905338 167.538022 
L 72.351637 165.756589 
L 72.803621 163.933237 
L 73.261438 162.066979 
L 73.72524 160.156807 
L 74.195185 158.201686 
L 74.671438 156.20056 
L 75.15417 154.152344 
L 75.643562 152.055933 
L 76.139798 149.91019 
L 76.643074 147.713956 
L 77.15359 145.466042 
L 77.67156 143.165233 
L 78.197204 140.810283 
L 78.730753 138.399919 
L 79.272448 135.932836 
L 79.822541 133.407701 
L 80.381298 130.823147 
L 80.948995 128.177775 
L 81.525923 125.470155 
L 82.112388 122.698822 
L 82.70871 119.862277 
L 83.315226 116.958984 
L 83.93229 113.987375 
L 84.560277 110.94584 
L 85.199579 107.832735 
L 85.850612 104.646376 
L 86.513815 101.385038 
L 87.189651 98.046957 
L 87.878611 94.630328 
L 88.581214 91.133303 
L 89.298012 87.553988 
L 90.029591 83.890449 
L 90.776573 80.140703 
L 91.53962 76.302722 
L 92.319438 72.374429 
L 93.116782 68.353699 
L 93.932457 64.238358 
L 94.767327 60.026178 
L 95.622315 55.714881 
L 96.498417 51.302135 
L 97.3967 46.785553 
L 98.318319 42.162691 
L 99.264516 37.431048 
L 100.23664 32.588065 
L 101.236152 27.631121 
L 102.264639 22.557536 
L 103.323831 17.364563 
" style="fill:none;stroke:#1f77b4;stroke-opacity:0.7;stroke-width:2;"/>
   <path clip-path="url(#pab6e5c43a5)" d="M 103.323831 17.364563 
L 103.593645 22.557536 
L 103.865526 27.631121 
L 104.139507 32.588065 
L 104.41562 37.431048 
L 104.693898 42.162691 
L 104.974377 46.785553 
L 105.25709 51.302135 
L 105.542074 55.714881 
L 105.829366 60.026178 
L 106.119003 64.238358 
L 106.411024 68.353699 
L 106.705468 72.374429 
L 107.002376 76.302722 
L 107.30179 80.140703 
L 107.603752 83.890449 
L 107.908307 87.553988 
L 108.215498 91.133303 
L 108.525372 94.630328 
L 108.837976 98.046957 
L 109.153358 101.385038 
L 109.47157 104.646376 
L 109.792661 107.832735 
L 110.116685 110.94584 
L 110.443695 113.987375 
L 110.773747 116.958984 
L 111.106898 119.862277 
L 111.443207 122.698822 
L 111.782734 125.470155 
L 112.125542 128.177775 
L 112.471695 130.823147 
L 112.821258 133.407701 
L 113.174299 135.932836 
L 113.530888 138.399919 
L 113.891098 140.810283 
L 114.255002 143.165233 
L 114.622677 145.466042 
L 114.994202 147.713956 
L 115.369659 149.91019 
L 115.749132 152.055933 
L 116.132707 154.152344 
L 116.520474 156.20056 
L 116.912526 158.201686 
L 117.308958 160.156807 
L 117.70987 162.066979 
L 118.115364 163.933237 
L 118.525546 165.756589 
L 118.940526 167.538022 
L 119.360416 169.2785 
L 119.785336 170.978964 
L 120.215406 172.640335 
L 120.650753 174.26351 
L 121.091508 175.849369 
L 121.537808 177.398769 
L 121.989793 178.912547 
L 122.44761 180.391525 
L 122.911412 181.8365 
L 123.381357 183.248255 
L 123.857611 184.627554 
L 124.340344 185.975143 
L 124.829736 187.291751 
L 125.325972 188.57809 
L 125.829248 189.834855 
L 126.339766 191.062728 
L 126.857736 192.262372 
L 127.383381 193.434436 
L 127.91693 194.579554 
L 128.458625 195.698346 
L 129.008719 196.791417 
L 129.567476 197.859358 
L 130.135174 198.902747 
L 130.712103 199.922149 
L 131.298568 200.918114 
L 131.894891 201.891183 
L 132.501407 202.84188 
L 133.118472 203.770721 
L 133.74646 204.678207 
L 134.385763 205.564831 
L 135.036797 206.431071 
L 135.7 207.277396 
L 136.375837 208.104264 
L 137.064798 208.912122 
L 137.767402 209.701408 
L 138.484201 210.472548 
L 139.215781 211.225959 
L 139.962763 211.962049 
L 140.725811 212.681217 
L 141.505631 213.383851 
L 142.302976 214.070331 
L 143.118652 214.741029 
L 143.953523 215.396308 
L 144.808513 216.036522 
L 145.684616 216.662017 
L 146.582901 217.273133 
L 147.504521 217.870198 
L 148.45072 218.453537 
L 149.422846 219.023465 
L 150.422359 219.580291 
L 151.450848 220.124315 
L 152.510042 220.655831 
" style="fill:none;stroke:#ffffff;stroke-width:3;"/>
   <path clip-path="url(#pab6e5c43a5)" d="M 103.323831 17.364563 
L 103.593645 22.557536 
L 103.865526 27.631121 
L 104.139507 32.588065 
L 104.41562 37.431048 
L 104.693898 42.162691 
L 104.974377 46.785553 
L 105.25709 51.302135 
L 105.542074 55.714881 
L 105.829366 60.026178 
L 106.119003 64.238358 
L 106.411024 68.353699 
L 106.705468 72.374429 
L 107.002376 76.302722 
L 107.30179 80.140703 
L 107.603752 83.890449 
L 107.908307 87.553988 
L 108.215498 91.133303 
L 108.525372 94.630328 
L 108.837976 98.046957 
L 109.153358 101.385038 
L 109.47157 104.646376 
L 109.792661 107.832735 
L 110.116685 110.94584 
L 110.443695 113.987375 
L 110.773747 116.958984 
L 111.106898 119.862277 
L 111.443207 122.698822 
L 111.782734 125.470155 
L 112.125542 128.177775 
L 112.471695 130.823147 
L 112.821258 133.407701 
L 113.174299 135.932836 
L 113.530888 138.399919 
L 113.891098 140.810283 
L 114.255002 143.165233 
L 114.622677 145.466042 
L 114.994202 147.713956 
L 115.369659 149.91019 
L 115.749132 152.055933 
L 116.132707 154.152344 
L 116.520474 156.20056 
L 116.912526 158.201686 
L 117.308958 160.156807 
L 117.70987 162.066979 
L 118.115364 163.933237 
L 118.525546 165.756589 
L 118.940526 167.538022 
L 119.360416 169.2785 
L 119.785336 170.978964 
L 120.215406 172.640335 
L 120.650753 174.26351 
L 121.091508 175.849369 
L 121.537808 177.398769 
L 121.989793 178.912547 
L 122.44761 180.391525 
L 122.911412 181.8365 
L 123.381357 183.248255 
L 123.857611 184.627554 
L 124.340344 185.975143 
L 124.829736 187.291751 
L 125.325972 188.57809 
L 125.829248 189.834855 
L 126.339766 191.062728 
L 126.857736 192.262372 
L 127.383381 193.434436 
L 127.91693 194.579554 
L 128.458625 195.698346 
L 129.008719 196.791417 
L 129.567476 197.859358 
L 130.135174 198.902747 
L 130.712103 199.922149 
L 131.298568 200.918114 
L 131.894891 201.891183 
L 132.501407 202.84188 
L 133.118472 203.770721 
L 133.74646 204.678207 
L 134.385763 205.564831 
L 135.036797 206.431071 
L 135.7 207.277396 
L 136.375837 208.104264 
L 137.064798 208.912122 
L 137.767402 209.701408 
L 138.484201 210.472548 
L 139.215781 211.225959 
L 139.962763 211.962049 
L 140.725811 212.681217 
L 141.505631 213.383851 
L 142.302976 214.070331 
L 143.118652 214.741029 
L 143.953523 215.396308 
L 144.808513 216.036522 
L 145.684616 216.662017 
L 146.582901 217.273133 
L 147.504521 217.870198 
L 148.45072 218.453537 
L 149.422846 219.023465 
L 150.422359 219.580291 
L 151.450848 220.124315 
L 152.510042 220.655831 
" style="fill:none;stroke:#1f77b4;stroke-opacity:0.7;stroke-width:2;"/>
   <path clip-path="url(#pab6e5c43a5)" d="M 152.510042 220.655831 
L 152.779856 220.124315 
L 153.051738 219.580291 
L 153.325719 219.023465 
L 153.601832 218.453537 
L 153.880111 217.870198 
L 154.16059 217.273133 
L 154.443304 216.662017 
L 154.728288 216.036522 
L 155.01558 215.396308 
L 155.305218 214.741029 
L 155.597239 214.070331 
L 155.891684 213.383851 
L 156.188592 212.681217 
L 156.488007 211.962049 
L 156.789969 211.225959 
L 157.094524 210.472548 
L 157.401715 209.701408 
L 157.711589 208.912122 
L 158.024194 208.104264 
L 158.339577 207.277396 
L 158.657789 206.431071 
L 158.978881 205.564831 
L 159.302905 204.678207 
L 159.629915 203.770721 
L 159.959968 202.84188 
L 160.29312 201.891183 
L 160.629429 200.918114 
L 160.968957 199.922149 
L 161.311765 198.902747 
L 161.657918 197.859358 
L 162.007482 196.791417 
L 162.360523 195.698346 
L 162.717113 194.579554 
L 163.077323 193.434436 
L 163.441228 192.262372 
L 163.808904 191.062728 
L 164.18043 189.834855 
L 164.555887 188.57809 
L 164.93536 187.291751 
L 165.318936 185.975143 
L 165.706704 184.627554 
L 166.098756 183.248255 
L 166.49519 181.8365 
L 166.896102 180.391525 
L 167.301597 178.912547 
L 167.71178 177.398769 
L 168.12676 175.849369 
L 168.546651 174.26351 
L 168.971572 172.640335 
L 169.401642 170.978964 
L 169.83699 169.2785 
L 170.277747 167.538022 
L 170.724047 165.756589 
L 171.176033 163.933237 
L 171.633851 162.066979 
L 172.097654 160.156807 
L 172.5676 158.201686 
L 173.043855 156.20056 
L 173.526589 154.152344 
L 174.015982 152.055933 
L 174.512219 149.91019 
L 175.015496 147.713956 
L 175.526015 145.466042 
L 176.043987 143.165233 
L 176.569632 140.810283 
L 177.103183 138.399919 
L 177.644879 135.932836 
L 178.194974 133.407701 
L 178.753733 130.823147 
L 179.321432 128.177775 
L 179.898363 125.470155 
L 180.484829 122.698822 
L 181.081154 119.862277 
L 181.687672 116.958984 
L 182.304738 113.987375 
L 182.932727 110.94584 
L 183.572032 107.832735 
L 184.223068 104.646376 
L 184.886273 101.385038 
L 185.562112 98.046957 
L 186.251075 94.630328 
L 186.953681 91.133303 
L 187.670483 87.553988 
L 188.402065 83.890449 
L 189.14905 80.140703 
L 189.9121 76.302722 
L 190.691923 72.374429 
L 191.48927 68.353699 
L 192.30495 64.238358 
L 193.139823 60.026178 
L 193.994817 55.714881 
L 194.870923 51.302135 
L 195.769212 46.785553 
L 196.690835 42.162691 
L 197.637038 37.431048 
L 198.609168 32.588065 
L 199.608686 27.631121 
L 200.637179 22.557536 
L 201.696378 17.364563 
" style="fill:none;stroke:#ffffff;stroke-width:3;"/>
   <path clip-path="url(#pab6e5c43a5)" d="M 152.510042 220.655831 
L 152.779856 220.124315 
L 153.051738 219.580291 
L 153.325719 219.023465 
L 153.601832 218.453537 
L 153.880111 217.870198 
L 154.16059 217.273133 
L 154.443304 216.662017 
L 154.728288 216.036522 
L 155.01558 215.396308 
L 155.305218 214.741029 
L 155.597239 214.070331 
L 155.891684 213.383851 
L 156.188592 212.681217 
L 156.488007 211.962049 
L 156.789969 211.225959 
L 157.094524 210.472548 
L 157.401715 209.701408 
L 157.711589 208.912122 
L 158.024194 208.104264 
L 158.339577 207.277396 
L 158.657789 206.431071 
L 158.978881 205.564831 
L 159.302905 204.678207 
L 159.629915 203.770721 
L 159.959968 202.84188 
L 160.29312 201.891183 
L 160.629429 200.918114 
L 160.968957 199.922149 
L 161.311765 198.902747 
L 161.657918 197.859358 
L 162.007482 196.791417 
L 162.360523 195.698346 
L 162.717113 194.579554 
L 163.077323 193.434436 
L 163.441228 192.262372 
L 163.808904 191.062728 
L 164.18043 189.834855 
L 164.555887 188.57809 
L 164.93536 187.291751 
L 165.318936 185.975143 
L 165.706704 184.627554 
L 166.098756 183.248255 
L 166.49519 181.8365 
L 166.896102 180.391525 
L 167.301597 178.912547 
L 167.71178 177.398769 
L 168.12676 175.849369 
L 168.546651 174.26351 
L 168.971572 172.640335 
L 169.401642 170.978964 
L 169.83699 169.2785 
L 170.277747 167.538022 
L 170.724047 165.756589 
L 171.176033 163.933237 
L 171.633851 162.066979 
L 172.097654 160.156807 
L 172.5676 158.201686 
L 173.043855 156.20056 
L 173.526589 154.152344 
L 174.015982 152.055933 
L 174.512219 149.91019 
L 175.015496 147.713956 
L 175.526015 145.466042 
L 176.043987 143.165233 
L 176.569632 140.810283 
L 177.103183 138.399919 
L 177.644879 135.932836 
L 178.194974 133.407701 
L 178.753733 130.823147 
L 179.321432 128.177775 
L 179.898363 125.470155 
L 180.484829 122.698822 
L 181.081154 119.862277 
L 181.687672 116.958984 
L 182.304738 113.987375 
L 182.932727 110.94584 
L 183.572032 107.832735 
L 184.223068 104.646376 
L 184.886273 101.385038 
L 185.562112 98.046957 
L 186.251075 94.630328 
L 186.953681 91.133303 
L 187.670483 87.553988 
L 188.402065 83.890449 
L 189.14905 80.140703 
L 189.9121 76.302722 
L 190.691923 72.374429 
L 191.48927 68.353699 
L 192.30495 64.238358 
L 193.139823 60.026178 
L 193.994817 55.714881 
L 194.870923 51.302135 
L 195.769212 46.785553 
L 196.690835 42.162691 
L 197.637038 37.431048 
L 198.609168 32.588065 
L 199.608686 27.631121 
L 200.637179 22.557536 
L 201.696378 17.364563 
" style="fill:none;stroke:#1f77b4;stroke-opacity:0.7;stroke-width:2;"/>
   <path clip-path="url(#pab6e5c43a5)" d="M 201.696378 17.364563 
L 201.966194 22.557536 
L 202.238077 27.631121 
L 202.512059 32.588065 
L 202.788174 37.431048 
L 203.066454 42.162691 
L 203.346934 46.785553 
L 203.629649 51.302135 
L 203.914635 55.714881 
L 204.201929 60.026178 
L 204.491567 64.238358 
L 204.78359 68.353699 
L 205.078036 72.374429 
L 205.374947 76.302722 
L 205.674362 80.140703 
L 205.976327 83.890449 
L 206.280883 87.553988 
L 206.588076 91.133303 
L 206.897952 94.630328 
L 207.210558 98.046957 
L 207.525943 101.385038 
L 207.844157 104.646376 
L 208.16525 107.832735 
L 208.489276 110.94584 
L 208.816288 113.987375 
L 209.146343 116.958984 
L 209.479496 119.862277 
L 209.815808 122.698822 
L 210.155338 125.470155 
L 210.498148 128.177775 
L 210.844303 130.823147 
L 211.193869 133.407701 
L 211.546913 135.932836 
L 211.903505 138.399919 
L 212.263717 140.810283 
L 212.627624 143.165233 
L 212.995302 145.466042 
L 213.366831 147.713956 
L 213.74229 149.91019 
L 214.121766 152.055933 
L 214.505344 154.152344 
L 214.893115 156.20056 
L 215.28517 158.201686 
L 215.681606 160.156807 
L 216.082522 162.066979 
L 216.488019 163.933237 
L 216.898205 165.756589 
L 217.313188 167.538022 
L 217.733083 169.2785 
L 218.158006 170.978964 
L 218.58808 172.640335 
L 219.023431 174.26351 
L 219.464191 175.849369 
L 219.910495 177.398769 
L 220.362484 178.912547 
L 220.820306 180.391525 
L 221.284113 181.8365 
L 221.754063 183.248255 
L 222.230321 184.627554 
L 222.713059 185.975143 
L 223.202456 187.291751 
L 223.698698 188.57809 
L 224.20198 189.834855 
L 224.712503 191.062728 
L 225.230479 192.262372 
L 225.75613 193.434436 
L 226.289685 194.579554 
L 226.831387 195.698346 
L 227.381487 196.791417 
L 227.940251 197.859358 
L 228.507956 198.902747 
L 229.084892 199.922149 
L 229.671365 200.918114 
L 230.267695 201.891183 
L 230.87422 202.84188 
L 231.491293 203.770721 
L 232.119289 204.678207 
L 232.758601 205.564831 
L 233.409644 206.431071 
L 234.072857 207.277396 
L 234.748704 208.104264 
L 235.437675 208.912122 
L 236.14029 209.701408 
L 236.857101 210.472548 
L 237.588692 211.225959 
L 238.335687 211.962049 
L 239.098747 212.681217 
L 239.87858 213.383851 
L 240.675939 214.070331 
L 241.49163 214.741029 
L 242.326516 215.396308 
L 243.181522 216.036522 
L 244.057641 216.662017 
L 244.955944 217.273133 
L 245.877583 217.870198 
L 246.823801 218.453537 
L 247.795948 219.023465 
L 248.795483 219.580291 
L 249.823995 220.124315 
L 250.883213 220.655831 
" style="fill:none;stroke:#ffffff;stroke-width:3;"/>
   <path clip-path="url(#pab6e5c43a5)" d="M 201.696378 17.364563 
L 201.966194 22.557536 
L 202.238077 27.631121 
L 202.512059 32.588065 
L 202.788174 37.431048 
L 203.066454 42.162691 
L 203.346934 46.785553 
L 203.629649 51.302135 
L 203.914635 55.714881 
L 204.201929 60.026178 
L 204.491567 64.238358 
L 204.78359 68.353699 
L 205.078036 72.374429 
L 205.374947 76.302722 
L 205.674362 80.140703 
L 205.976327 83.890449 
L 206.280883 87.553988 
L 206.588076 91.133303 
L 206.897952 94.630328 
L 207.210558 98.046957 
L 207.525943 101.385038 
L 207.844157 104.646376 
L 208.16525 107.832735 
L 208.489276 110.94584 
L 208.816288 113.987375 
L 209.146343 116.958984 
L 209.479496 119.862277 
L 209.815808 122.698822 
L 210.155338 125.470155 
L 210.498148 128.177775 
L 210.844303 130.823147 
L 211.193869 133.407701 
L 211.546913 135.932836 
L 211.903505 138.399919 
L 212.263717 140.810283 
L 212.627624 143.165233 
L 212.995302 145.466042 
L 213.366831 147.713956 
L 213.74229 149.91019 
L 214.121766 152.055933 
L 214.505344 154.152344 
L 214.893115 156.20056 
L 215.28517 158.201686 
L 215.681606 160.156807 
L 216.082522 162.066979 
L 216.488019 163.933237 
L 216.898205 165.756589 
L 217.313188 167.538022 
L 217.733083 169.2785 
L 218.158006 170.978964 
L 218.58808 172.640335 
L 219.023431 174.26351 
L 219.464191 175.849369 
L 219.910495 177.398769 
L 220.362484 178.912547 
L 220.820306 180.391525 
L 221.284113 181.8365 
L 221.754063 183.248255 
L 222.230321 184.627554 
L 222.713059 185.975143 
L 223.202456 187.291751 
L 223.698698 188.57809 
L 224.20198 189.834855 
L 224.712503 191.062728 
L 225.230479 192.262372 
L 225.75613 193.434436 
L 226.289685 194.579554 
L 226.831387 195.698346 
L 227.381487 196.791417 
L 227.940251 197.859358 
L 228.507956 198.902747 
L 229.084892 199.922149 
L 229.671365 200.918114 
L 230.267695 201.891183 
L 230.87422 202.84188 
L 231.491293 203.770721 
L 232.119289 204.678207 
L 232.758601 205.564831 
L 233.409644 206.431071 
L 234.072857 207.277396 
L 234.748704 208.104264 
L 235.437675 208.912122 
L 236.14029 209.701408 
L 236.857101 210.472548 
L 237.588692 211.225959 
L 238.335687 211.962049 
L 239.098747 212.681217 
L 239.87858 213.383851 
L 240.675939 214.070331 
L 241.49163 214.741029 
L 242.326516 215.396308 
L 243.181522 216.036522 
L 244.057641 216.662017 
L 244.955944 217.273133 
L 245.877583 217.870198 
L 246.823801 218.453537 
L 247.795948 219.023465 
L 248.795483 219.580291 
L 249.823995 220.124315 
L 250.883213 220.655831 
" style="fill:none;stroke:#1f77b4;stroke-opacity:0.7;stroke-width:2;"/>
   <path clip-path="url(#pab6e5c43a5)" d="M 250.883213 220.655831 
L 251.153026 220.124315 
L 251.424905 219.580291 
L 251.698885 219.023465 
L 251.974996 218.453537 
L 252.253273 217.870198 
L 252.53375 217.273133 
L 252.816462 216.662017 
L 253.101444 216.036522 
L 253.388734 215.396308 
L 253.67837 214.741029 
L 253.970389 214.070331 
L 254.264831 213.383851 
L 254.561738 212.681217 
L 254.86115 211.962049 
L 255.16311 211.225959 
L 255.467663 210.472548 
L 255.774852 209.701408 
L 256.084724 208.912122 
L 256.397326 208.104264 
L 256.712707 207.277396 
L 257.030916 206.431071 
L 257.352005 205.564831 
L 257.676027 204.678207 
L 258.003035 203.770721 
L 258.333085 202.84188 
L 258.666234 201.891183 
L 259.00254 200.918114 
L 259.342065 199.922149 
L 259.684871 198.902747 
L 260.031021 197.859358 
L 260.380581 196.791417 
L 260.73362 195.698346 
L 261.090207 194.579554 
L 261.450414 193.434436 
L 261.814315 192.262372 
L 262.181988 191.062728 
L 262.55351 189.834855 
L 262.928964 188.57809 
L 263.308434 187.291751 
L 263.692006 185.975143 
L 264.07977 184.627554 
L 264.471819 183.248255 
L 264.868248 181.8365 
L 265.269157 180.391525 
L 265.674648 178.912547 
L 266.084826 177.398769 
L 266.499802 175.849369 
L 266.919689 174.26351 
L 267.344605 172.640335 
L 267.774672 170.978964 
L 268.210015 169.2785 
L 268.650766 167.538022 
L 269.097062 165.756589 
L 269.549043 163.933237 
L 270.006856 162.066979 
L 270.470653 160.156807 
L 270.940594 158.201686 
L 271.416843 156.20056 
L 271.899572 154.152344 
L 272.388959 152.055933 
L 272.885191 149.91019 
L 273.388461 147.713956 
L 273.898973 145.466042 
L 274.416938 143.165233 
L 274.942577 140.810283 
L 275.476121 138.399919 
L 276.01781 135.932836 
L 276.567898 133.407701 
L 277.126649 130.823147 
L 277.69434 128.177775 
L 278.271263 125.470155 
L 278.857721 122.698822 
L 279.454036 119.862277 
L 280.060546 116.958984 
L 280.677603 113.987375 
L 281.305583 110.94584 
L 281.944877 107.832735 
L 282.595903 104.646376 
L 283.259097 101.385038 
L 283.934925 98.046957 
L 284.623876 94.630328 
L 285.326471 91.133303 
L 286.04326 87.553988 
L 286.774829 83.890449 
L 287.5218 80.140703 
L 288.284836 76.302722 
L 289.064643 72.374429 
L 289.861976 68.353699 
L 290.677639 64.238358 
L 291.512496 60.026178 
L 292.367471 55.714881 
L 293.243558 51.302135 
L 294.141827 46.785553 
L 295.06343 42.162691 
L 296.009612 37.431048 
L 296.981718 32.588065 
L 297.981212 27.631121 
L 299.009679 22.557536 
L 300.068851 17.364563 
" style="fill:none;stroke:#ffffff;stroke-width:3;"/>
   <path clip-path="url(#pab6e5c43a5)" d="M 250.883213 220.655831 
L 251.153026 220.124315 
L 251.424905 219.580291 
L 251.698885 219.023465 
L 251.974996 218.453537 
L 252.253273 217.870198 
L 252.53375 217.273133 
L 252.816462 216.662017 
L 253.101444 216.036522 
L 253.388734 215.396308 
L 253.67837 214.741029 
L 253.970389 214.070331 
L 254.264831 213.383851 
L 254.561738 212.681217 
L 254.86115 211.962049 
L 255.16311 211.225959 
L 255.467663 210.472548 
L 255.774852 209.701408 
L 256.084724 208.912122 
L 256.397326 208.104264 
L 256.712707 207.277396 
L 257.030916 206.431071 
L 257.352005 205.564831 
L 257.676027 204.678207 
L 258.003035 203.770721 
L 258.333085 202.84188 
L 258.666234 201.891183 
L 259.00254 200.918114 
L 259.342065 199.922149 
L 259.684871 198.902747 
L 260.031021 197.859358 
L 260.380581 196.791417 
L 260.73362 195.698346 
L 261.090207 194.579554 
L 261.450414 193.434436 
L 261.814315 192.262372 
L 262.181988 191.062728 
L 262.55351 189.834855 
L 262.928964 188.57809 
L 263.308434 187.291751 
L 263.692006 185.975143 
L 264.07977 184.627554 
L 264.471819 183.248255 
L 264.868248 181.8365 
L 265.269157 180.391525 
L 265.674648 178.912547 
L 266.084826 177.398769 
L 266.499802 175.849369 
L 266.919689 174.26351 
L 267.344605 172.640335 
L 267.774672 170.978964 
L 268.210015 169.2785 
L 268.650766 167.538022 
L 269.097062 165.756589 
L 269.549043 163.933237 
L 270.006856 162.066979 
L 270.470653 160.156807 
L 270.940594 158.201686 
L 271.416843 156.20056 
L 271.899572 154.152344 
L 272.388959 152.055933 
L 272.885191 149.91019 
L 273.388461 147.713956 
L 273.898973 145.466042 
L 274.416938 143.165233 
L 274.942577 140.810283 
L 275.476121 138.399919 
L 276.01781 135.932836 
L 276.567898 133.407701 
L 277.126649 130.823147 
L 277.69434 128.177775 
L 278.271263 125.470155 
L 278.857721 122.698822 
L 279.454036 119.862277 
L 280.060546 116.958984 
L 280.677603 113.987375 
L 281.305583 110.94584 
L 281.944877 107.832735 
L 282.595903 104.646376 
L 283.259097 101.385038 
L 283.934925 98.046957 
L 284.623876 94.630328 
L 285.326471 91.133303 
L 286.04326 87.553988 
L 286.774829 83.890449 
L 287.5218 80.140703 
L 288.284836 76.302722 
L 289.064643 72.374429 
L 289.861976 68.353699 
L 290.677639 64.238358 
L 291.512496 60.026178 
L 292.367471 55.714881 
L 293.243558 51.302135 
L 294.141827 46.785553 
L 295.06343 42.162691 
L 296.009612 37.431048 
L 296.981718 32.588065 
L 297.981212 27.631121 
L 299.009679 22.557536 
L 300.068851 17.364563 
" style="fill:none;stroke:#1f77b4;stroke-opacity:0.7;stroke-width:2;"/>
   <path clip-path="url(#pab6e5c43a5)" d="M 300.068851 17.364563 
L 424.482298 17.364563 
" style="fill:none;stroke:#ffffff;stroke-width:3;"/>
   <path clip-path="url(#pab6e5c43a5)" d="M 300.068851 17.364563 
L 424.482298 17.364563 
" style="fill:none;stroke:#1f77b4;stroke-opacity:0.7;stroke-width:2;"/>
   <g id="line2d_55">
    <defs>
     <path d="M -3 -0 
L 3 3 
L 3 -3 
z
" id="m99f5cc2bcb" style="stroke:#1f77b4;stroke-linejoin:miter;"/>
    </defs>
    <g>
     <use style="fill:#1f77b4;stroke:#1f77b4;stroke-linejoin:miter;" x="12.988269" xlink:href="#m99f5cc2bcb" y="220.655831"/>
    </g>
   </g>
   <g id="patch_3">
    <path d="M 424.482298 243.24375 
L 424.482298 7.2 
" style="fill:none;stroke:#000000;stroke-linecap:square;stroke-linejoin:miter;stroke-width:0.8;"/>
   </g>
   <g id="patch_4">
    <path d="M 12.988269 243.24375 
L 424.482298 243.24375 
" style="fill:none;stroke:#000000;stroke-linecap:square;stroke-linejoin:miter;stroke-width:0.8;"/>
   </g>
  </g>
 </g>
 <defs>
  <clipPath id="pab6e5c43a5">
   <rect height="236.04375" width="411.494029" x="12.988269" y="7.2"/>
  </clipPath>
 </defs>
</svg>
