<?xml version="1.0" encoding="utf-8" standalone="no"?>
<!DOCTYPE svg PUBLIC "-//W3C//DTD SVG 1.1//EN"
  "http://www.w3.org/Graphics/SVG/1.1/DTD/svg11.dtd">
<svg xmlns:xlink="http://www.w3.org/1999/xlink" width="607.2pt" height="338.4pt" viewBox="0 0 607.2 338.4" xmlns="http://www.w3.org/2000/svg" version="1.1">
 <metadata>
  <rdf:RDF xmlns:dc="http://purl.org/dc/elements/1.1/" xmlns:cc="http://creativecommons.org/ns#" xmlns:rdf="http://www.w3.org/1999/02/22-rdf-syntax-ns#">
   <cc:Work>
    <dc:type rdf:resource="http://purl.org/dc/dcmitype/StillImage"/>
    <dc:date>2025-10-04T09:40:13.349182</dc:date>
    <dc:format>image/svg+xml</dc:format>
    <dc:creator>
     <cc:Agent>
      <dc:title>Matplotlib v3.10.6, https://matplotlib.org/</dc:title>
     </cc:Agent>
    </dc:creator>
   </cc:Work>
  </rdf:RDF>
 </metadata>
 <defs>
  <style type="text/css">*{stroke-linejoin: round; stroke-linecap: butt}</style>
 </defs>
 <g id="figure_1">
  <g id="patch_1">
   <path d="M 0 338.4 
L 607.2 338.4 
L 607.2 0 
L 0 0 
z
" style="fill: #ffffff"/>
  </g>
  <g id="axes_1">
   <g id="patch_2">
    <path d="M 46.965625 318.021875 
L 600 318.021875 
L 600 22.318125 
L 46.965625 22.318125 
z
" style="fill: #ffffff"/>
   </g>
   <g id="line2d_1">
    <path d="M 200.299442 161.717566 
L 201.299442 161.749002 
L 202.299442 161.785943 
L 203.299442 161.883689 
L 204.299442 161.916211 
L 205.299442 161.989835 
L 206.299442 162.028401 
L 207.299442 162.063814 
L 208.299442 162.121454 
L 209.299442 162.19184 
L 210.299442 162.243804 
L 211.299442 162.302894 
L 212.299442 162.391215 
L 213.299442 162.437359 
L 214.299442 162.47977 
L 215.299442 162.510263 
L 216.299442 162.536308 
L 217.299442 162.557508 
L 218.299442 162.611809 
L 219.299442 162.639747 
L 220.299442 162.669471 
L 221.299442 162.694866 
L 222.299442 162.706066 
L 223.299442 162.71619 
L 224.299442 162.715986 
L 225.299442 162.706476 
L 226.299442 162.694822 
L 227.299442 162.663793 
L 228.299442 162.652625 
L 229.299442 162.622507 
L 230.299442 162.56273 
L 231.299442 162.525539 
L 232.299442 162.486443 
L 233.299442 162.444003 
L 234.299442 162.411238 
L 235.299442 162.343812 
L 236.299442 162.304686 
L 237.299442 162.262011 
L 238.299442 162.191431 
L 239.299442 162.15504 
L 240.299442 162.096637 
L 241.299442 161.985684 
L 242.299442 161.915026 
L 243.299442 161.802086 
L 244.299442 161.756313 
L 245.299442 161.69503 
L 246.299442 161.64653 
L 247.299442 161.565708 
L 248.299442 161.447189 
L 249.299442 161.376978 
L 250.299442 161.293716 
L 251.299442 161.260574 
L 252.299442 161.209337 
L 253.299442 161.140938 
L 254.299442 161.074723 
L 255.299442 160.997806 
L 256.619695 160.97049 
" clip-path="url(#pcd4957f64f)" style="fill: none; stroke: #1f77b4; stroke-opacity: 0.5; stroke-width: 0.2; stroke-linecap: square"/>
   </g>
   <g id="line2d_2">
    <path d="M 200.299442 57.414623 
L 201.299442 57.446059 
L 202.299442 57.482999 
L 203.299442 57.580746 
L 204.299442 57.613267 
L 205.299442 57.686892 
L 206.299442 57.725458 
L 207.299442 57.760871 
L 208.299442 57.818511 
L 209.299442 57.888897 
L 210.299442 57.940861 
L 211.299442 57.999951 
L 212.299442 58.088272 
L 213.299442 58.134416 
L 214.299442 58.176827 
L 215.299442 58.20732 
L 216.299442 58.233365 
L 217.299442 58.254565 
L 218.299442 58.308866 
L 219.299442 58.336804 
L 220.299442 58.366528 
L 221.299442 58.391922 
L 222.299442 58.403123 
L 223.299442 58.413247 
L 224.299442 58.413042 
L 225.299442 58.403532 
L 226.299442 58.391879 
L 227.299442 58.36085 
L 228.299442 58.349682 
L 229.299442 58.319564 
L 230.299442 58.259787 
L 231.299442 58.222596 
L 232.299442 58.1835 
L 233.299442 58.14106 
L 234.299442 58.108295 
L 235.299442 58.040868 
L 236.299442 58.001743 
L 237.299442 57.959068 
L 238.299442 57.888487 
L 239.299442 57.852097 
L 240.299442 57.793693 
L 241.299442 57.682741 
L 242.299442 57.612082 
L 243.299442 57.499143 
L 244.299442 57.45337 
L 245.299442 57.392086 
L 246.299442 57.343587 
L 247.299442 57.262764 
L 248.299442 57.144246 
L 249.299442 57.074035 
L 250.299442 56.990772 
L 251.299442 56.957631 
L 252.299442 56.906393 
L 253.299442 56.837995 
L 254.299442 56.77178 
L 255.299442 56.694863 
L 256.619695 56.667547 
" clip-path="url(#pcd4957f64f)" style="fill: none; stroke: #1f77b4; stroke-opacity: 0.5; stroke-width: 0.2; stroke-linecap: square"/>
   </g>
   <g id="line2d_3">
    <path d="M 200.299442 39.556723 
L 201.299442 39.588159 
L 202.299442 39.6251 
L 203.299442 39.722846 
L 204.299442 39.755368 
L 205.299442 39.828992 
L 206.299442 39.867558 
L 207.299442 39.902971 
L 208.299442 39.960611 
L 209.299442 40.030997 
L 210.299442 40.082962 
L 211.299442 40.142051 
L 212.299442 40.230372 
L 213.299442 40.276517 
L 214.299442 40.318927 
L 215.299442 40.34942 
L 216.299442 40.375465 
L 217.299442 40.396665 
L 218.299442 40.450966 
L 219.299442 40.478904 
L 220.299442 40.508628 
L 221.299442 40.534023 
L 222.299442 40.545223 
L 223.299442 40.555347 
L 224.299442 40.555143 
L 225.299442 40.545633 
L 226.299442 40.533979 
L 227.299442 40.50295 
L 228.299442 40.491782 
L 229.299442 40.461664 
L 230.299442 40.401888 
L 231.299442 40.364696 
L 232.299442 40.3256 
L 233.299442 40.28316 
L 234.299442 40.250395 
L 235.299442 40.182969 
L 236.299442 40.143843 
L 237.299442 40.101168 
L 238.299442 40.030588 
L 239.299442 39.994197 
L 240.299442 39.935794 
L 241.299442 39.824841 
L 242.299442 39.754183 
L 243.299442 39.641243 
L 244.299442 39.59547 
L 245.299442 39.534187 
L 246.299442 39.485687 
L 247.299442 39.404865 
L 248.299442 39.286346 
L 249.299442 39.216135 
L 250.299442 39.132873 
L 251.299442 39.099731 
L 252.299442 39.048494 
L 253.299442 38.980095 
L 254.299442 38.91388 
L 255.299442 38.836963 
L 256.619695 38.809647 
" clip-path="url(#pcd4957f64f)" style="fill: none; stroke: #1f77b4; stroke-opacity: 0.5; stroke-width: 0.2; stroke-linecap: square"/>
   </g>
   <g id="line2d_4">
    <path d="M 200.299442 198.105643 
L 201.299442 198.137079 
L 202.299442 198.17402 
L 203.299442 198.271766 
L 204.299442 198.304288 
L 205.299442 198.377913 
L 206.299442 198.416478 
L 207.299442 198.451891 
L 208.299442 198.509531 
L 209.299442 198.579917 
L 210.299442 198.631882 
L 211.299442 198.690971 
L 212.299442 198.779292 
L 213.299442 198.825437 
L 214.299442 198.867848 
L 215.299442 198.89834 
L 216.299442 198.924385 
L 217.299442 198.945585 
L 218.299442 198.999886 
L 219.299442 199.027824 
L 220.299442 199.057548 
L 221.299442 199.082943 
L 222.299442 199.094143 
L 223.299442 199.104267 
L 224.299442 199.104063 
L 225.299442 199.094553 
L 226.299442 199.082899 
L 227.299442 199.05187 
L 228.299442 199.040702 
L 229.299442 199.010585 
L 230.299442 198.950808 
L 231.299442 198.913616 
L 232.299442 198.87452 
L 233.299442 198.83208 
L 234.299442 198.799315 
L 235.299442 198.731889 
L 236.299442 198.692763 
L 237.299442 198.650088 
L 238.299442 198.579508 
L 239.299442 198.543117 
L 240.299442 198.484714 
L 241.299442 198.373761 
L 242.299442 198.303103 
L 243.299442 198.190163 
L 244.299442 198.14439 
L 245.299442 198.083107 
L 246.299442 198.034608 
L 247.299442 197.953785 
L 248.299442 197.835266 
L 249.299442 197.765055 
L 250.299442 197.681793 
L 251.299442 197.648651 
L 252.299442 197.597414 
L 253.299442 197.529015 
L 254.299442 197.4628 
L 255.299442 197.385883 
L 256.619695 197.358567 
" clip-path="url(#pcd4957f64f)" style="fill: none; stroke: #1f77b4; stroke-opacity: 0.5; stroke-width: 0.2; stroke-linecap: square"/>
   </g>
   <g id="line2d_5">
    <path d="M 200.299442 168.31102 
L 201.299442 168.342456 
L 202.299442 168.379397 
L 203.299442 168.477143 
L 204.299442 168.509665 
L 205.299442 168.58329 
L 206.299442 168.621855 
L 207.299442 168.657268 
L 208.299442 168.714908 
L 209.299442 168.785294 
L 210.299442 168.837259 
L 211.299442 168.896348 
L 212.299442 168.984669 
L 213.299442 169.030814 
L 214.299442 169.073225 
L 215.299442 169.103717 
L 216.299442 169.129762 
L 217.299442 169.150962 
L 218.299442 169.205263 
L 219.299442 169.233201 
L 220.299442 169.262925 
L 221.299442 169.28832 
L 222.299442 169.29952 
L 223.299442 169.309644 
L 224.299442 169.30944 
L 225.299442 169.29993 
L 226.299442 169.288276 
L 227.299442 169.257247 
L 228.299442 169.246079 
L 229.299442 169.215962 
L 230.299442 169.156185 
L 231.299442 169.118993 
L 232.299442 169.079897 
L 233.299442 169.037457 
L 234.299442 169.004692 
L 235.299442 168.937266 
L 236.299442 168.89814 
L 237.299442 168.855465 
L 238.299442 168.784885 
L 239.299442 168.748494 
L 240.299442 168.690091 
L 241.299442 168.579138 
L 242.299442 168.50848 
L 243.299442 168.39554 
L 244.299442 168.349767 
L 245.299442 168.288484 
L 246.299442 168.239985 
L 247.299442 168.159162 
L 248.299442 168.040643 
L 249.299442 167.970432 
L 250.299442 167.88717 
L 251.299442 167.854028 
L 252.299442 167.802791 
L 253.299442 167.734392 
L 254.299442 167.668177 
L 255.299442 167.59126 
L 256.619695 167.563944 
" clip-path="url(#pcd4957f64f)" style="fill: none; stroke: #1f77b4; stroke-opacity: 0.5; stroke-width: 0.2; stroke-linecap: square"/>
   </g>
   <g id="line2d_6">
    <path d="M 200.299442 291.014733 
L 201.299442 291.046169 
L 202.299442 291.083109 
L 203.299442 291.180856 
L 204.299442 291.213378 
L 205.299442 291.287002 
L 206.299442 291.325568 
L 207.299442 291.360981 
L 208.299442 291.418621 
L 209.299442 291.489007 
L 210.299442 291.540971 
L 211.299442 291.600061 
L 212.299442 291.688382 
L 213.299442 291.734526 
L 214.299442 291.776937 
L 215.299442 291.80743 
L 216.299442 291.833475 
L 217.299442 291.854675 
L 218.299442 291.908976 
L 219.299442 291.936914 
L 220.299442 291.966638 
L 221.299442 291.992032 
L 222.299442 292.003233 
L 223.299442 292.013357 
L 224.299442 292.013152 
L 225.299442 292.003643 
L 226.299442 291.991989 
L 227.299442 291.96096 
L 228.299442 291.949792 
L 229.299442 291.919674 
L 230.299442 291.859897 
L 231.299442 291.822706 
L 232.299442 291.78361 
L 233.299442 291.74117 
L 234.299442 291.708405 
L 235.299442 291.640978 
L 236.299442 291.601853 
L 237.299442 291.559178 
L 238.299442 291.488597 
L 239.299442 291.452207 
L 240.299442 291.393803 
L 241.299442 291.282851 
L 242.299442 291.212192 
L 243.299442 291.099253 
L 244.299442 291.05348 
L 245.299442 290.992197 
L 246.299442 290.943697 
L 247.299442 290.862875 
L 248.299442 290.744356 
L 249.299442 290.674145 
L 250.299442 290.590883 
L 251.299442 290.557741 
L 252.299442 290.506503 
L 253.299442 290.438105 
L 254.299442 290.37189 
L 255.299442 290.294973 
L 256.619695 290.267657 
" clip-path="url(#pcd4957f64f)" style="fill: none; stroke: #1f77b4; stroke-opacity: 0.5; stroke-width: 0.2; stroke-linecap: square"/>
   </g>
   <g id="line2d_7">
    <path d="M 200.299442 265.815314 
L 201.299442 265.84675 
L 202.299442 265.88369 
L 203.299442 265.981437 
L 204.299442 266.013958 
L 205.299442 266.087583 
L 206.299442 266.126149 
L 207.299442 266.161562 
L 208.299442 266.219202 
L 209.299442 266.289588 
L 210.299442 266.341552 
L 211.299442 266.400642 
L 212.299442 266.488963 
L 213.299442 266.535107 
L 214.299442 266.577518 
L 215.299442 266.608011 
L 216.299442 266.634056 
L 217.299442 266.655256 
L 218.299442 266.709557 
L 219.299442 266.737495 
L 220.299442 266.767219 
L 221.299442 266.792613 
L 222.299442 266.803814 
L 223.299442 266.813938 
L 224.299442 266.813733 
L 225.299442 266.804223 
L 226.299442 266.79257 
L 227.299442 266.761541 
L 228.299442 266.750373 
L 229.299442 266.720255 
L 230.299442 266.660478 
L 231.299442 266.623287 
L 232.299442 266.584191 
L 233.299442 266.541751 
L 234.299442 266.508986 
L 235.299442 266.441559 
L 236.299442 266.402433 
L 237.299442 266.359759 
L 238.299442 266.289178 
L 239.299442 266.252787 
L 240.299442 266.194384 
L 241.299442 266.083432 
L 242.299442 266.012773 
L 243.299442 265.899834 
L 244.299442 265.854061 
L 245.299442 265.792777 
L 246.299442 265.744278 
L 247.299442 265.663455 
L 248.299442 265.544937 
L 249.299442 265.474726 
L 250.299442 265.391463 
L 251.299442 265.358322 
L 252.299442 265.307084 
L 253.299442 265.238686 
L 254.299442 265.172471 
L 255.299442 265.095553 
L 256.619695 265.068238 
" clip-path="url(#pcd4957f64f)" style="fill: none; stroke: #1f77b4; stroke-opacity: 0.5; stroke-width: 0.2; stroke-linecap: square"/>
   </g>
   <g id="line2d_8">
    <path d="M 200.299442 298.588939 
L 201.299442 298.620375 
L 202.299442 298.657316 
L 203.299442 298.755062 
L 204.299442 298.787584 
L 205.299442 298.861208 
L 206.299442 298.899774 
L 207.299442 298.935187 
L 208.299442 298.992827 
L 209.299442 299.063213 
L 210.299442 299.115178 
L 211.299442 299.174267 
L 212.299442 299.262588 
L 213.299442 299.308733 
L 214.299442 299.351144 
L 215.299442 299.381636 
L 216.299442 299.407681 
L 217.299442 299.428881 
L 218.299442 299.483182 
L 219.299442 299.51112 
L 220.299442 299.540844 
L 221.299442 299.566239 
L 222.299442 299.577439 
L 223.299442 299.587563 
L 224.299442 299.587359 
L 225.299442 299.577849 
L 226.299442 299.566195 
L 227.299442 299.535166 
L 228.299442 299.523998 
L 229.299442 299.493881 
L 230.299442 299.434104 
L 231.299442 299.396912 
L 232.299442 299.357816 
L 233.299442 299.315376 
L 234.299442 299.282611 
L 235.299442 299.215185 
L 236.299442 299.176059 
L 237.299442 299.133384 
L 238.299442 299.062804 
L 239.299442 299.026413 
L 240.299442 298.96801 
L 241.299442 298.857057 
L 242.299442 298.786399 
L 243.299442 298.673459 
L 244.299442 298.627686 
L 245.299442 298.566403 
L 246.299442 298.517903 
L 247.299442 298.437081 
L 248.299442 298.318562 
L 249.299442 298.248351 
L 250.299442 298.165089 
L 251.299442 298.131947 
L 252.299442 298.08071 
L 253.299442 298.012311 
L 254.299442 297.946096 
L 255.299442 297.869179 
L 256.619695 297.841863 
" clip-path="url(#pcd4957f64f)" style="fill: none; stroke: #1f77b4; stroke-opacity: 0.5; stroke-width: 0.2; stroke-linecap: square"/>
   </g>
   <g id="line2d_9">
    <path d="M 200.299442 298.56998 
L 201.299442 298.601416 
L 202.299442 298.638357 
L 203.299442 298.736103 
L 204.299442 298.768625 
L 205.299442 298.842249 
L 206.299442 298.880815 
L 207.299442 298.916228 
L 208.299442 298.973868 
L 209.299442 299.044254 
L 210.299442 299.096219 
L 211.299442 299.155308 
L 212.299442 299.243629 
L 213.299442 299.289774 
L 214.299442 299.332184 
L 215.299442 299.362677 
L 216.299442 299.388722 
L 217.299442 299.409922 
L 218.299442 299.464223 
L 219.299442 299.492161 
L 220.299442 299.521885 
L 221.299442 299.54728 
L 222.299442 299.55848 
L 223.299442 299.568604 
L 224.299442 299.5684 
L 225.299442 299.55889 
L 226.299442 299.547236 
L 227.299442 299.516207 
L 228.299442 299.505039 
L 229.299442 299.474921 
L 230.299442 299.415145 
L 231.299442 299.377953 
L 232.299442 299.338857 
L 233.299442 299.296417 
L 234.299442 299.263652 
L 235.299442 299.196226 
L 236.299442 299.1571 
L 237.299442 299.114425 
L 238.299442 299.043845 
L 239.299442 299.007454 
L 240.299442 298.949051 
L 241.299442 298.838098 
L 242.299442 298.76744 
L 243.299442 298.6545 
L 244.299442 298.608727 
L 245.299442 298.547444 
L 246.299442 298.498944 
L 247.299442 298.418122 
L 248.299442 298.299603 
L 249.299442 298.229392 
L 250.299442 298.14613 
L 251.299442 298.112988 
L 252.299442 298.061751 
L 253.299442 297.993352 
L 254.299442 297.927137 
L 255.299442 297.85022 
L 256.619695 297.822904 
" clip-path="url(#pcd4957f64f)" style="fill: none; stroke: #1f77b4; stroke-opacity: 0.5; stroke-width: 0.2; stroke-linecap: square"/>
   </g>
   <g id="line2d_10">
    <path d="M 200.299442 63.508218 
L 201.299442 63.539655 
L 202.299442 63.576595 
L 203.299442 63.674342 
L 204.299442 63.706863 
L 205.299442 63.780488 
L 206.299442 63.819054 
L 207.299442 63.854467 
L 208.299442 63.912107 
L 209.299442 63.982493 
L 210.299442 64.034457 
L 211.299442 64.093547 
L 212.299442 64.181868 
L 213.299442 64.228012 
L 214.299442 64.270423 
L 215.299442 64.300916 
L 216.299442 64.326961 
L 217.299442 64.348161 
L 218.299442 64.402462 
L 219.299442 64.430399 
L 220.299442 64.460123 
L 221.299442 64.485518 
L 222.299442 64.496719 
L 223.299442 64.506843 
L 224.299442 64.506638 
L 225.299442 64.497128 
L 226.299442 64.485475 
L 227.299442 64.454446 
L 228.299442 64.443278 
L 229.299442 64.41316 
L 230.299442 64.353383 
L 231.299442 64.316192 
L 232.299442 64.277096 
L 233.299442 64.234656 
L 234.299442 64.201891 
L 235.299442 64.134464 
L 236.299442 64.095338 
L 237.299442 64.052664 
L 238.299442 63.982083 
L 239.299442 63.945692 
L 240.299442 63.887289 
L 241.299442 63.776337 
L 242.299442 63.705678 
L 243.299442 63.592739 
L 244.299442 63.546966 
L 245.299442 63.485682 
L 246.299442 63.437183 
L 247.299442 63.35636 
L 248.299442 63.237841 
L 249.299442 63.167631 
L 250.299442 63.084368 
L 251.299442 63.051227 
L 252.299442 62.999989 
L 253.299442 62.931591 
L 254.299442 62.865375 
L 255.299442 62.788458 
L 256.619695 62.761143 
" clip-path="url(#pcd4957f64f)" style="fill: none; stroke: #1f77b4; stroke-opacity: 0.5; stroke-width: 0.2; stroke-linecap: square"/>
   </g>
   <g id="line2d_11">
    <path d="M 256.619695 30.323134 
L 255.619695 30.291698 
L 254.619695 30.254757 
L 253.619695 30.157011 
L 252.619695 30.124489 
L 251.619695 30.050864 
L 250.619695 30.012299 
L 249.619695 29.976886 
L 248.619695 29.919246 
L 247.619695 29.84886 
L 246.619695 29.796895 
L 245.619695 29.737806 
L 244.619695 29.649485 
L 243.619695 29.60334 
L 242.619695 29.560929 
L 241.619695 29.530437 
L 240.619695 29.504392 
L 239.619695 29.483192 
L 238.619695 29.428891 
L 237.619695 29.400953 
L 236.619695 29.371229 
L 235.619695 29.345834 
L 234.619695 29.334634 
L 233.619695 29.32451 
L 232.619695 29.324714 
L 231.619695 29.334224 
L 230.619695 29.345878 
L 229.619695 29.376907 
L 228.619695 29.388075 
L 227.619695 29.418192 
L 226.619695 29.477969 
L 225.619695 29.515161 
L 224.619695 29.554257 
L 223.619695 29.596697 
L 222.619695 29.629462 
L 221.619695 29.696888 
L 220.619695 29.736014 
L 219.619695 29.778689 
L 218.619695 29.849269 
L 217.619695 29.88566 
L 216.619695 29.944063 
L 215.619695 30.055016 
L 214.619695 30.125674 
L 213.619695 30.238614 
L 212.619695 30.284387 
L 211.619695 30.34567 
L 210.619695 30.394169 
L 209.619695 30.474992 
L 208.619695 30.593511 
L 207.619695 30.663722 
L 206.619695 30.746984 
L 205.619695 30.780126 
L 204.619695 30.831363 
L 203.619695 30.899762 
L 202.619695 30.965977 
L 201.619695 31.042894 
L 200.299442 31.07021 
" clip-path="url(#pcd4957f64f)" style="fill: none; stroke: #ff7f0e; stroke-opacity: 0.5; stroke-width: 0.2; stroke-linecap: square"/>
   </g>
   <g id="line2d_12">
    <path d="M 256.619695 97.114767 
L 255.619695 97.083331 
L 254.619695 97.046391 
L 253.619695 96.948644 
L 252.619695 96.916123 
L 251.619695 96.842498 
L 250.619695 96.803932 
L 249.619695 96.768519 
L 248.619695 96.710879 
L 247.619695 96.640493 
L 246.619695 96.588529 
L 245.619695 96.529439 
L 244.619695 96.441118 
L 243.619695 96.394974 
L 242.619695 96.352563 
L 241.619695 96.32207 
L 240.619695 96.296025 
L 239.619695 96.274825 
L 238.619695 96.220524 
L 237.619695 96.192586 
L 236.619695 96.162862 
L 235.619695 96.137468 
L 234.619695 96.126267 
L 233.619695 96.116143 
L 232.619695 96.116348 
L 231.619695 96.125858 
L 230.619695 96.137511 
L 229.619695 96.16854 
L 228.619695 96.179708 
L 227.619695 96.209826 
L 226.619695 96.269603 
L 225.619695 96.306794 
L 224.619695 96.34589 
L 223.619695 96.38833 
L 222.619695 96.421095 
L 221.619695 96.488522 
L 220.619695 96.527647 
L 219.619695 96.570322 
L 218.619695 96.640903 
L 217.619695 96.677293 
L 216.619695 96.735697 
L 215.619695 96.846649 
L 214.619695 96.917308 
L 213.619695 97.030247 
L 212.619695 97.07602 
L 211.619695 97.137304 
L 210.619695 97.185803 
L 209.619695 97.266626 
L 208.619695 97.385144 
L 207.619695 97.455355 
L 206.619695 97.538618 
L 205.619695 97.571759 
L 204.619695 97.622997 
L 203.619695 97.691395 
L 202.619695 97.75761 
L 201.619695 97.834527 
L 200.299442 97.861843 
" clip-path="url(#pcd4957f64f)" style="fill: none; stroke: #ff7f0e; stroke-opacity: 0.5; stroke-width: 0.2; stroke-linecap: square"/>
   </g>
   <g id="line2d_13">
    <path d="M 256.619695 160.637902 
L 255.619695 160.606465 
L 254.619695 160.569525 
L 253.619695 160.471778 
L 252.619695 160.439257 
L 251.619695 160.365632 
L 250.619695 160.327066 
L 249.619695 160.291653 
L 248.619695 160.234013 
L 247.619695 160.163627 
L 246.619695 160.111663 
L 245.619695 160.052573 
L 244.619695 159.964252 
L 243.619695 159.918108 
L 242.619695 159.875697 
L 241.619695 159.845204 
L 240.619695 159.819159 
L 239.619695 159.797959 
L 238.619695 159.743658 
L 237.619695 159.71572 
L 236.619695 159.685997 
L 235.619695 159.660602 
L 234.619695 159.649401 
L 233.619695 159.639277 
L 232.619695 159.639482 
L 231.619695 159.648992 
L 230.619695 159.660645 
L 229.619695 159.691674 
L 228.619695 159.702842 
L 227.619695 159.73296 
L 226.619695 159.792737 
L 225.619695 159.829928 
L 224.619695 159.869024 
L 223.619695 159.911464 
L 222.619695 159.944229 
L 221.619695 160.011656 
L 220.619695 160.050782 
L 219.619695 160.093456 
L 218.619695 160.164037 
L 217.619695 160.200428 
L 216.619695 160.258831 
L 215.619695 160.369783 
L 214.619695 160.440442 
L 213.619695 160.553381 
L 212.619695 160.599154 
L 211.619695 160.660438 
L 210.619695 160.708937 
L 209.619695 160.78976 
L 208.619695 160.908279 
L 207.619695 160.978489 
L 206.619695 161.061752 
L 205.619695 161.094893 
L 204.619695 161.146131 
L 203.619695 161.214529 
L 202.619695 161.280745 
L 201.619695 161.357662 
L 200.299442 161.384977 
" clip-path="url(#pcd4957f64f)" style="fill: none; stroke: #ff7f0e; stroke-opacity: 0.5; stroke-width: 0.2; stroke-linecap: square"/>
   </g>
   <g id="line2d_14">
    <path d="M 256.619695 81.35256 
L 255.619695 81.321123 
L 254.619695 81.284183 
L 253.619695 81.186436 
L 252.619695 81.153915 
L 251.619695 81.08029 
L 250.619695 81.041725 
L 249.619695 81.006311 
L 248.619695 80.948671 
L 247.619695 80.878285 
L 246.619695 80.826321 
L 245.619695 80.767231 
L 244.619695 80.67891 
L 243.619695 80.632766 
L 242.619695 80.590355 
L 241.619695 80.559862 
L 240.619695 80.533817 
L 239.619695 80.512617 
L 238.619695 80.458316 
L 237.619695 80.430379 
L 236.619695 80.400655 
L 235.619695 80.37526 
L 234.619695 80.36406 
L 233.619695 80.353936 
L 232.619695 80.35414 
L 231.619695 80.36365 
L 230.619695 80.375303 
L 229.619695 80.406333 
L 228.619695 80.417501 
L 227.619695 80.447618 
L 226.619695 80.507395 
L 225.619695 80.544587 
L 224.619695 80.583683 
L 223.619695 80.626122 
L 222.619695 80.658887 
L 221.619695 80.726314 
L 220.619695 80.76544 
L 219.619695 80.808114 
L 218.619695 80.878695 
L 217.619695 80.915086 
L 216.619695 80.973489 
L 215.619695 81.084442 
L 214.619695 81.1551 
L 213.619695 81.26804 
L 212.619695 81.313813 
L 211.619695 81.375096 
L 210.619695 81.423595 
L 209.619695 81.504418 
L 208.619695 81.622937 
L 207.619695 81.693147 
L 206.619695 81.77641 
L 205.619695 81.809552 
L 204.619695 81.860789 
L 203.619695 81.929187 
L 202.619695 81.995403 
L 201.619695 82.07232 
L 200.299442 82.099635 
" clip-path="url(#pcd4957f64f)" style="fill: none; stroke: #ff7f0e; stroke-opacity: 0.5; stroke-width: 0.2; stroke-linecap: square"/>
   </g>
   <g id="line2d_15">
    <path d="M 256.619695 181.62223 
L 255.619695 181.590794 
L 254.619695 181.553853 
L 253.619695 181.456107 
L 252.619695 181.423585 
L 251.619695 181.34996 
L 250.619695 181.311395 
L 249.619695 181.275982 
L 248.619695 181.218342 
L 247.619695 181.147956 
L 246.619695 181.095991 
L 245.619695 181.036902 
L 244.619695 180.948581 
L 243.619695 180.902436 
L 242.619695 180.860025 
L 241.619695 180.829533 
L 240.619695 180.803488 
L 239.619695 180.782288 
L 238.619695 180.727987 
L 237.619695 180.700049 
L 236.619695 180.670325 
L 235.619695 180.64493 
L 234.619695 180.63373 
L 233.619695 180.623606 
L 232.619695 180.62381 
L 231.619695 180.63332 
L 230.619695 180.644974 
L 229.619695 180.676003 
L 228.619695 180.687171 
L 227.619695 180.717288 
L 226.619695 180.777065 
L 225.619695 180.814257 
L 224.619695 180.853353 
L 223.619695 180.895793 
L 222.619695 180.928558 
L 221.619695 180.995984 
L 220.619695 181.03511 
L 219.619695 181.077785 
L 218.619695 181.148365 
L 217.619695 181.184756 
L 216.619695 181.243159 
L 215.619695 181.354112 
L 214.619695 181.42477 
L 213.619695 181.53771 
L 212.619695 181.583483 
L 211.619695 181.644766 
L 210.619695 181.693265 
L 209.619695 181.774088 
L 208.619695 181.892607 
L 207.619695 181.962818 
L 206.619695 182.04608 
L 205.619695 182.079222 
L 204.619695 182.130459 
L 203.619695 182.198858 
L 202.619695 182.265073 
L 201.619695 182.34199 
L 200.299442 182.369306 
" clip-path="url(#pcd4957f64f)" style="fill: none; stroke: #ff7f0e; stroke-opacity: 0.5; stroke-width: 0.2; stroke-linecap: square"/>
   </g>
   <g id="line2d_16">
    <path d="M 256.619695 192.784389 
L 255.619695 192.752953 
L 254.619695 192.716012 
L 253.619695 192.618266 
L 252.619695 192.585744 
L 251.619695 192.512119 
L 250.619695 192.473554 
L 249.619695 192.438141 
L 248.619695 192.380501 
L 247.619695 192.310115 
L 246.619695 192.25815 
L 245.619695 192.199061 
L 244.619695 192.11074 
L 243.619695 192.064595 
L 242.619695 192.022184 
L 241.619695 191.991692 
L 240.619695 191.965647 
L 239.619695 191.944447 
L 238.619695 191.890146 
L 237.619695 191.862208 
L 236.619695 191.832484 
L 235.619695 191.807089 
L 234.619695 191.795889 
L 233.619695 191.785765 
L 232.619695 191.785969 
L 231.619695 191.795479 
L 230.619695 191.807133 
L 229.619695 191.838162 
L 228.619695 191.84933 
L 227.619695 191.879447 
L 226.619695 191.939224 
L 225.619695 191.976416 
L 224.619695 192.015512 
L 223.619695 192.057952 
L 222.619695 192.090717 
L 221.619695 192.158143 
L 220.619695 192.197269 
L 219.619695 192.239944 
L 218.619695 192.310524 
L 217.619695 192.346915 
L 216.619695 192.405318 
L 215.619695 192.516271 
L 214.619695 192.586929 
L 213.619695 192.699869 
L 212.619695 192.745642 
L 211.619695 192.806925 
L 210.619695 192.855424 
L 209.619695 192.936247 
L 208.619695 193.054766 
L 207.619695 193.124977 
L 206.619695 193.208239 
L 205.619695 193.241381 
L 204.619695 193.292618 
L 203.619695 193.361017 
L 202.619695 193.427232 
L 201.619695 193.504149 
L 200.299442 193.531465 
" clip-path="url(#pcd4957f64f)" style="fill: none; stroke: #ff7f0e; stroke-opacity: 0.5; stroke-width: 0.2; stroke-linecap: square"/>
   </g>
   <g id="line2d_17">
    <path d="M 256.619695 75.099459 
L 255.619695 75.068023 
L 254.619695 75.031082 
L 253.619695 74.933336 
L 252.619695 74.900814 
L 251.619695 74.82719 
L 250.619695 74.788624 
L 249.619695 74.753211 
L 248.619695 74.695571 
L 247.619695 74.625185 
L 246.619695 74.57322 
L 245.619695 74.514131 
L 244.619695 74.42581 
L 243.619695 74.379665 
L 242.619695 74.337254 
L 241.619695 74.306762 
L 240.619695 74.280717 
L 239.619695 74.259517 
L 238.619695 74.205216 
L 237.619695 74.177278 
L 236.619695 74.147554 
L 235.619695 74.122159 
L 234.619695 74.110959 
L 233.619695 74.100835 
L 232.619695 74.101039 
L 231.619695 74.110549 
L 230.619695 74.122203 
L 229.619695 74.153232 
L 228.619695 74.1644 
L 227.619695 74.194517 
L 226.619695 74.254294 
L 225.619695 74.291486 
L 224.619695 74.330582 
L 223.619695 74.373022 
L 222.619695 74.405787 
L 221.619695 74.473213 
L 220.619695 74.512339 
L 219.619695 74.555014 
L 218.619695 74.625594 
L 217.619695 74.661985 
L 216.619695 74.720388 
L 215.619695 74.831341 
L 214.619695 74.901999 
L 213.619695 75.014939 
L 212.619695 75.060712 
L 211.619695 75.121995 
L 210.619695 75.170494 
L 209.619695 75.251317 
L 208.619695 75.369836 
L 207.619695 75.440047 
L 206.619695 75.523309 
L 205.619695 75.556451 
L 204.619695 75.607688 
L 203.619695 75.676087 
L 202.619695 75.742302 
L 201.619695 75.819219 
L 200.299442 75.846535 
" clip-path="url(#pcd4957f64f)" style="fill: none; stroke: #ff7f0e; stroke-opacity: 0.5; stroke-width: 0.2; stroke-linecap: square"/>
   </g>
   <g id="line2d_18">
    <path d="M 256.619695 154.78048 
L 255.619695 154.749043 
L 254.619695 154.712103 
L 253.619695 154.614356 
L 252.619695 154.581835 
L 251.619695 154.50821 
L 250.619695 154.469645 
L 249.619695 154.434231 
L 248.619695 154.376592 
L 247.619695 154.306205 
L 246.619695 154.254241 
L 245.619695 154.195151 
L 244.619695 154.10683 
L 243.619695 154.060686 
L 242.619695 154.018275 
L 241.619695 153.987782 
L 240.619695 153.961738 
L 239.619695 153.940537 
L 238.619695 153.886236 
L 237.619695 153.858299 
L 236.619695 153.828575 
L 235.619695 153.80318 
L 234.619695 153.79198 
L 233.619695 153.781856 
L 232.619695 153.78206 
L 231.619695 153.79157 
L 230.619695 153.803223 
L 229.619695 153.834253 
L 228.619695 153.845421 
L 227.619695 153.875538 
L 226.619695 153.935315 
L 225.619695 153.972507 
L 224.619695 154.011603 
L 223.619695 154.054042 
L 222.619695 154.086807 
L 221.619695 154.154234 
L 220.619695 154.19336 
L 219.619695 154.236034 
L 218.619695 154.306615 
L 217.619695 154.343006 
L 216.619695 154.401409 
L 215.619695 154.512362 
L 214.619695 154.58302 
L 213.619695 154.69596 
L 212.619695 154.741733 
L 211.619695 154.803016 
L 210.619695 154.851515 
L 209.619695 154.932338 
L 208.619695 155.050857 
L 207.619695 155.121067 
L 206.619695 155.20433 
L 205.619695 155.237472 
L 204.619695 155.288709 
L 203.619695 155.357107 
L 202.619695 155.423323 
L 201.619695 155.50024 
L 200.299442 155.527555 
" clip-path="url(#pcd4957f64f)" style="fill: none; stroke: #ff7f0e; stroke-opacity: 0.5; stroke-width: 0.2; stroke-linecap: square"/>
   </g>
   <g id="line2d_19">
    <path d="M 256.619695 35.006688 
L 255.619695 34.975252 
L 254.619695 34.938312 
L 253.619695 34.840565 
L 252.619695 34.808044 
L 251.619695 34.734419 
L 250.619695 34.695853 
L 249.619695 34.66044 
L 248.619695 34.6028 
L 247.619695 34.532414 
L 246.619695 34.48045 
L 245.619695 34.42136 
L 244.619695 34.333039 
L 243.619695 34.286895 
L 242.619695 34.244484 
L 241.619695 34.213991 
L 240.619695 34.187946 
L 239.619695 34.166746 
L 238.619695 34.112445 
L 237.619695 34.084507 
L 236.619695 34.054783 
L 235.619695 34.029389 
L 234.619695 34.018188 
L 233.619695 34.008064 
L 232.619695 34.008269 
L 231.619695 34.017779 
L 230.619695 34.029432 
L 229.619695 34.060461 
L 228.619695 34.071629 
L 227.619695 34.101747 
L 226.619695 34.161524 
L 225.619695 34.198715 
L 224.619695 34.237811 
L 223.619695 34.280251 
L 222.619695 34.313016 
L 221.619695 34.380443 
L 220.619695 34.419568 
L 219.619695 34.462243 
L 218.619695 34.532824 
L 217.619695 34.569214 
L 216.619695 34.627618 
L 215.619695 34.73857 
L 214.619695 34.809229 
L 213.619695 34.922168 
L 212.619695 34.967941 
L 211.619695 35.029225 
L 210.619695 35.077724 
L 209.619695 35.158547 
L 208.619695 35.277065 
L 207.619695 35.347276 
L 206.619695 35.430539 
L 205.619695 35.46368 
L 204.619695 35.514918 
L 203.619695 35.583316 
L 202.619695 35.649531 
L 201.619695 35.726448 
L 200.299442 35.753764 
" clip-path="url(#pcd4957f64f)" style="fill: none; stroke: #ff7f0e; stroke-opacity: 0.5; stroke-width: 0.2; stroke-linecap: square"/>
   </g>
   <g id="line2d_20">
    <path d="M 256.619695 298.330006 
L 255.619695 298.29857 
L 254.619695 298.261629 
L 253.619695 298.163883 
L 252.619695 298.131361 
L 251.619695 298.057737 
L 250.619695 298.019171 
L 249.619695 297.983758 
L 248.619695 297.926118 
L 247.619695 297.855732 
L 246.619695 297.803767 
L 245.619695 297.744678 
L 244.619695 297.656357 
L 243.619695 297.610212 
L 242.619695 297.567802 
L 241.619695 297.537309 
L 240.619695 297.511264 
L 239.619695 297.490064 
L 238.619695 297.435763 
L 237.619695 297.407825 
L 236.619695 297.378101 
L 235.619695 297.352706 
L 234.619695 297.341506 
L 233.619695 297.331382 
L 232.619695 297.331586 
L 231.619695 297.341096 
L 230.619695 297.35275 
L 229.619695 297.383779 
L 228.619695 297.394947 
L 227.619695 297.425065 
L 226.619695 297.484841 
L 225.619695 297.522033 
L 224.619695 297.561129 
L 223.619695 297.603569 
L 222.619695 297.636334 
L 221.619695 297.70376 
L 220.619695 297.742886 
L 219.619695 297.785561 
L 218.619695 297.856141 
L 217.619695 297.892532 
L 216.619695 297.950935 
L 215.619695 298.061888 
L 214.619695 298.132546 
L 213.619695 298.245486 
L 212.619695 298.291259 
L 211.619695 298.352542 
L 210.619695 298.401042 
L 209.619695 298.481864 
L 208.619695 298.600383 
L 207.619695 298.670594 
L 206.619695 298.753856 
L 205.619695 298.786998 
L 204.619695 298.838235 
L 203.619695 298.906634 
L 202.619695 298.972849 
L 201.619695 299.049766 
L 200.299442 299.077082 
" clip-path="url(#pcd4957f64f)" style="fill: none; stroke: #ff7f0e; stroke-opacity: 0.5; stroke-width: 0.2; stroke-linecap: square"/>
   </g>
   <g id="line2d_21">
    <path d="M 390.34593 87.215376 
L 391.34593 87.246812 
L 392.34593 87.283753 
L 393.34593 87.381499 
L 394.34593 87.414021 
L 395.34593 87.487646 
L 396.34593 87.526211 
L 397.34593 87.561624 
L 398.34593 87.619264 
L 399.34593 87.68965 
L 400.34593 87.741615 
L 401.34593 87.800704 
L 402.34593 87.889025 
L 403.34593 87.93517 
L 404.34593 87.977581 
L 405.34593 88.008073 
L 406.34593 88.034118 
L 407.34593 88.055318 
L 408.34593 88.109619 
L 409.34593 88.137557 
L 410.34593 88.167281 
L 411.34593 88.192676 
L 412.34593 88.203876 
L 413.34593 88.214 
L 414.34593 88.213796 
L 415.34593 88.204286 
L 416.34593 88.192632 
L 417.34593 88.161603 
L 418.34593 88.150435 
L 419.34593 88.120318 
L 420.34593 88.060541 
L 421.34593 88.023349 
L 422.34593 87.984253 
L 423.34593 87.941813 
L 424.34593 87.909048 
L 425.34593 87.841622 
L 426.34593 87.802496 
L 427.34593 87.759821 
L 428.34593 87.689241 
L 429.34593 87.65285 
L 430.34593 87.594447 
L 431.34593 87.483494 
L 432.34593 87.412836 
L 433.34593 87.299896 
L 434.34593 87.254123 
L 435.34593 87.19284 
L 436.34593 87.144341 
L 437.34593 87.063518 
L 438.34593 86.944999 
L 439.34593 86.874788 
L 440.34593 86.791526 
L 441.34593 86.758384 
L 442.34593 86.707147 
L 443.34593 86.638748 
L 444.34593 86.572533 
L 445.34593 86.495616 
L 446.666183 86.4683 
" clip-path="url(#pcd4957f64f)" style="fill: none; stroke: #ff7f0e; stroke-opacity: 0.5; stroke-width: 0.2; stroke-linecap: square"/>
   </g>
   <g id="line2d_22">
    <path d="M 390.34593 221.243312 
L 391.34593 221.274749 
L 392.34593 221.311689 
L 393.34593 221.409436 
L 394.34593 221.441957 
L 395.34593 221.515582 
L 396.34593 221.554147 
L 397.34593 221.589561 
L 398.34593 221.6472 
L 399.34593 221.717587 
L 400.34593 221.769551 
L 401.34593 221.828641 
L 402.34593 221.916962 
L 403.34593 221.963106 
L 404.34593 222.005517 
L 405.34593 222.03601 
L 406.34593 222.062054 
L 407.34593 222.083255 
L 408.34593 222.137556 
L 409.34593 222.165493 
L 410.34593 222.195217 
L 411.34593 222.220612 
L 412.34593 222.231812 
L 413.34593 222.241936 
L 414.34593 222.241732 
L 415.34593 222.232222 
L 416.34593 222.220569 
L 417.34593 222.189539 
L 418.34593 222.178371 
L 419.34593 222.148254 
L 420.34593 222.088477 
L 421.34593 222.051285 
L 422.34593 222.012189 
L 423.34593 221.96975 
L 424.34593 221.936985 
L 425.34593 221.869558 
L 426.34593 221.830432 
L 427.34593 221.787758 
L 428.34593 221.717177 
L 429.34593 221.680786 
L 430.34593 221.622383 
L 431.34593 221.51143 
L 432.34593 221.440772 
L 433.34593 221.327832 
L 434.34593 221.282059 
L 435.34593 221.220776 
L 436.34593 221.172277 
L 437.34593 221.091454 
L 438.34593 220.972935 
L 439.34593 220.902725 
L 440.34593 220.819462 
L 441.34593 220.78632 
L 442.34593 220.735083 
L 443.34593 220.666685 
L 444.34593 220.600469 
L 445.34593 220.523552 
L 446.666183 220.496237 
" clip-path="url(#pcd4957f64f)" style="fill: none; stroke: #ff7f0e; stroke-opacity: 0.5; stroke-width: 0.2; stroke-linecap: square"/>
   </g>
   <g id="line2d_23">
    <path d="M 390.34593 128.013319 
L 391.34593 128.044756 
L 392.34593 128.081696 
L 393.34593 128.179443 
L 394.34593 128.211964 
L 395.34593 128.285589 
L 396.34593 128.324154 
L 397.34593 128.359568 
L 398.34593 128.417207 
L 399.34593 128.487594 
L 400.34593 128.539558 
L 401.34593 128.598648 
L 402.34593 128.686969 
L 403.34593 128.733113 
L 404.34593 128.775524 
L 405.34593 128.806017 
L 406.34593 128.832061 
L 407.34593 128.853262 
L 408.34593 128.907563 
L 409.34593 128.9355 
L 410.34593 128.965224 
L 411.34593 128.990619 
L 412.34593 129.001819 
L 413.34593 129.011943 
L 414.34593 129.011739 
L 415.34593 129.002229 
L 416.34593 128.990576 
L 417.34593 128.959546 
L 418.34593 128.948378 
L 419.34593 128.918261 
L 420.34593 128.858484 
L 421.34593 128.821292 
L 422.34593 128.782196 
L 423.34593 128.739757 
L 424.34593 128.706992 
L 425.34593 128.639565 
L 426.34593 128.600439 
L 427.34593 128.557765 
L 428.34593 128.487184 
L 429.34593 128.450793 
L 430.34593 128.39239 
L 431.34593 128.281437 
L 432.34593 128.210779 
L 433.34593 128.097839 
L 434.34593 128.052066 
L 435.34593 127.990783 
L 436.34593 127.942284 
L 437.34593 127.861461 
L 438.34593 127.742942 
L 439.34593 127.672732 
L 440.34593 127.589469 
L 441.34593 127.556327 
L 442.34593 127.50509 
L 443.34593 127.436692 
L 444.34593 127.370476 
L 445.34593 127.293559 
L 446.666183 127.266244 
" clip-path="url(#pcd4957f64f)" style="fill: none; stroke: #ff7f0e; stroke-opacity: 0.5; stroke-width: 0.2; stroke-linecap: square"/>
   </g>
   <g id="line2d_24">
    <path d="M 390.34593 174.854713 
L 391.34593 174.886149 
L 392.34593 174.92309 
L 393.34593 175.020836 
L 394.34593 175.053358 
L 395.34593 175.126982 
L 396.34593 175.165548 
L 397.34593 175.200961 
L 398.34593 175.258601 
L 399.34593 175.328987 
L 400.34593 175.380951 
L 401.34593 175.440041 
L 402.34593 175.528362 
L 403.34593 175.574507 
L 404.34593 175.616917 
L 405.34593 175.64741 
L 406.34593 175.673455 
L 407.34593 175.694655 
L 408.34593 175.748956 
L 409.34593 175.776894 
L 410.34593 175.806618 
L 411.34593 175.832013 
L 412.34593 175.843213 
L 413.34593 175.853337 
L 414.34593 175.853133 
L 415.34593 175.843623 
L 416.34593 175.831969 
L 417.34593 175.80094 
L 418.34593 175.789772 
L 419.34593 175.759654 
L 420.34593 175.699878 
L 421.34593 175.662686 
L 422.34593 175.62359 
L 423.34593 175.58115 
L 424.34593 175.548385 
L 425.34593 175.480959 
L 426.34593 175.441833 
L 427.34593 175.399158 
L 428.34593 175.328578 
L 429.34593 175.292187 
L 430.34593 175.233784 
L 431.34593 175.122831 
L 432.34593 175.052173 
L 433.34593 174.939233 
L 434.34593 174.89346 
L 435.34593 174.832177 
L 436.34593 174.783677 
L 437.34593 174.702855 
L 438.34593 174.584336 
L 439.34593 174.514125 
L 440.34593 174.430863 
L 441.34593 174.397721 
L 442.34593 174.346484 
L 443.34593 174.278085 
L 444.34593 174.21187 
L 445.34593 174.134953 
L 446.666183 174.107637 
" clip-path="url(#pcd4957f64f)" style="fill: none; stroke: #ff7f0e; stroke-opacity: 0.5; stroke-width: 0.2; stroke-linecap: square"/>
   </g>
   <g id="line2d_25">
    <path d="M 390.34593 48.153785 
L 391.34593 48.185221 
L 392.34593 48.222162 
L 393.34593 48.319908 
L 394.34593 48.35243 
L 395.34593 48.426055 
L 396.34593 48.46462 
L 397.34593 48.500033 
L 398.34593 48.557673 
L 399.34593 48.628059 
L 400.34593 48.680024 
L 401.34593 48.739113 
L 402.34593 48.827434 
L 403.34593 48.873579 
L 404.34593 48.91599 
L 405.34593 48.946482 
L 406.34593 48.972527 
L 407.34593 48.993727 
L 408.34593 49.048028 
L 409.34593 49.075966 
L 410.34593 49.10569 
L 411.34593 49.131085 
L 412.34593 49.142285 
L 413.34593 49.152409 
L 414.34593 49.152205 
L 415.34593 49.142695 
L 416.34593 49.131041 
L 417.34593 49.100012 
L 418.34593 49.088844 
L 419.34593 49.058727 
L 420.34593 48.99895 
L 421.34593 48.961758 
L 422.34593 48.922662 
L 423.34593 48.880222 
L 424.34593 48.847457 
L 425.34593 48.780031 
L 426.34593 48.740905 
L 427.34593 48.69823 
L 428.34593 48.62765 
L 429.34593 48.591259 
L 430.34593 48.532856 
L 431.34593 48.421903 
L 432.34593 48.351245 
L 433.34593 48.238305 
L 434.34593 48.192532 
L 435.34593 48.131249 
L 436.34593 48.08275 
L 437.34593 48.001927 
L 438.34593 47.883408 
L 439.34593 47.813197 
L 440.34593 47.729935 
L 441.34593 47.696793 
L 442.34593 47.645556 
L 443.34593 47.577157 
L 444.34593 47.510942 
L 445.34593 47.434025 
L 446.666183 47.406709 
" clip-path="url(#pcd4957f64f)" style="fill: none; stroke: #ff7f0e; stroke-opacity: 0.5; stroke-width: 0.2; stroke-linecap: square"/>
   </g>
   <g id="line2d_26">
    <path d="M 390.34593 88.310599 
L 391.34593 88.342036 
L 392.34593 88.378976 
L 393.34593 88.476723 
L 394.34593 88.509244 
L 395.34593 88.582869 
L 396.34593 88.621435 
L 397.34593 88.656848 
L 398.34593 88.714488 
L 399.34593 88.784874 
L 400.34593 88.836838 
L 401.34593 88.895928 
L 402.34593 88.984249 
L 403.34593 89.030393 
L 404.34593 89.072804 
L 405.34593 89.103297 
L 406.34593 89.129342 
L 407.34593 89.150542 
L 408.34593 89.204843 
L 409.34593 89.23278 
L 410.34593 89.262504 
L 411.34593 89.287899 
L 412.34593 89.2991 
L 413.34593 89.309224 
L 414.34593 89.309019 
L 415.34593 89.299509 
L 416.34593 89.287856 
L 417.34593 89.256827 
L 418.34593 89.245659 
L 419.34593 89.215541 
L 420.34593 89.155764 
L 421.34593 89.118573 
L 422.34593 89.079477 
L 423.34593 89.037037 
L 424.34593 89.004272 
L 425.34593 88.936845 
L 426.34593 88.897719 
L 427.34593 88.855045 
L 428.34593 88.784464 
L 429.34593 88.748073 
L 430.34593 88.68967 
L 431.34593 88.578718 
L 432.34593 88.508059 
L 433.34593 88.39512 
L 434.34593 88.349347 
L 435.34593 88.288063 
L 436.34593 88.239564 
L 437.34593 88.158741 
L 438.34593 88.040222 
L 439.34593 87.970012 
L 440.34593 87.886749 
L 441.34593 87.853608 
L 442.34593 87.80237 
L 443.34593 87.733972 
L 444.34593 87.667756 
L 445.34593 87.590839 
L 446.666183 87.563524 
" clip-path="url(#pcd4957f64f)" style="fill: none; stroke: #ff7f0e; stroke-opacity: 0.5; stroke-width: 0.2; stroke-linecap: square"/>
   </g>
   <g id="line2d_27">
    <path d="M 390.34593 247.565854 
L 391.34593 247.59729 
L 392.34593 247.63423 
L 393.34593 247.731977 
L 394.34593 247.764499 
L 395.34593 247.838123 
L 396.34593 247.876689 
L 397.34593 247.912102 
L 398.34593 247.969742 
L 399.34593 248.040128 
L 400.34593 248.092092 
L 401.34593 248.151182 
L 402.34593 248.239503 
L 403.34593 248.285647 
L 404.34593 248.328058 
L 405.34593 248.358551 
L 406.34593 248.384596 
L 407.34593 248.405796 
L 408.34593 248.460097 
L 409.34593 248.488035 
L 410.34593 248.517759 
L 411.34593 248.543153 
L 412.34593 248.554354 
L 413.34593 248.564478 
L 414.34593 248.564273 
L 415.34593 248.554764 
L 416.34593 248.54311 
L 417.34593 248.512081 
L 418.34593 248.500913 
L 419.34593 248.470795 
L 420.34593 248.411018 
L 421.34593 248.373827 
L 422.34593 248.334731 
L 423.34593 248.292291 
L 424.34593 248.259526 
L 425.34593 248.1921 
L 426.34593 248.152974 
L 427.34593 248.110299 
L 428.34593 248.039719 
L 429.34593 248.003328 
L 430.34593 247.944924 
L 431.34593 247.833972 
L 432.34593 247.763314 
L 433.34593 247.650374 
L 434.34593 247.604601 
L 435.34593 247.543318 
L 436.34593 247.494818 
L 437.34593 247.413996 
L 438.34593 247.295477 
L 439.34593 247.225266 
L 440.34593 247.142004 
L 441.34593 247.108862 
L 442.34593 247.057625 
L 443.34593 246.989226 
L 444.34593 246.923011 
L 445.34593 246.846094 
L 446.666183 246.818778 
" clip-path="url(#pcd4957f64f)" style="fill: none; stroke: #ff7f0e; stroke-opacity: 0.5; stroke-width: 0.2; stroke-linecap: square"/>
   </g>
   <g id="line2d_28">
    <path d="M 390.34593 288.581148 
L 391.34593 288.612585 
L 392.34593 288.649525 
L 393.34593 288.747272 
L 394.34593 288.779793 
L 395.34593 288.853418 
L 396.34593 288.891984 
L 397.34593 288.927397 
L 398.34593 288.985037 
L 399.34593 289.055423 
L 400.34593 289.107387 
L 401.34593 289.166477 
L 402.34593 289.254798 
L 403.34593 289.300942 
L 404.34593 289.343353 
L 405.34593 289.373846 
L 406.34593 289.399891 
L 407.34593 289.421091 
L 408.34593 289.475392 
L 409.34593 289.503329 
L 410.34593 289.533053 
L 411.34593 289.558448 
L 412.34593 289.569649 
L 413.34593 289.579773 
L 414.34593 289.579568 
L 415.34593 289.570058 
L 416.34593 289.558405 
L 417.34593 289.527376 
L 418.34593 289.516208 
L 419.34593 289.48609 
L 420.34593 289.426313 
L 421.34593 289.389122 
L 422.34593 289.350026 
L 423.34593 289.307586 
L 424.34593 289.274821 
L 425.34593 289.207394 
L 426.34593 289.168268 
L 427.34593 289.125594 
L 428.34593 289.055013 
L 429.34593 289.018622 
L 430.34593 288.960219 
L 431.34593 288.849267 
L 432.34593 288.778608 
L 433.34593 288.665669 
L 434.34593 288.619896 
L 435.34593 288.558612 
L 436.34593 288.510113 
L 437.34593 288.42929 
L 438.34593 288.310771 
L 439.34593 288.240561 
L 440.34593 288.157298 
L 441.34593 288.124157 
L 442.34593 288.072919 
L 443.34593 288.004521 
L 444.34593 287.938305 
L 445.34593 287.861388 
L 446.666183 287.834073 
" clip-path="url(#pcd4957f64f)" style="fill: none; stroke: #ff7f0e; stroke-opacity: 0.5; stroke-width: 0.2; stroke-linecap: square"/>
   </g>
   <g id="line2d_29">
    <path d="M 390.34593 302.255979 
L 391.34593 302.287416 
L 392.34593 302.324356 
L 393.34593 302.422103 
L 394.34593 302.454624 
L 395.34593 302.528249 
L 396.34593 302.566814 
L 397.34593 302.602228 
L 398.34593 302.659868 
L 399.34593 302.730254 
L 400.34593 302.782218 
L 401.34593 302.841308 
L 402.34593 302.929629 
L 403.34593 302.975773 
L 404.34593 303.018184 
L 405.34593 303.048677 
L 406.34593 303.074722 
L 407.34593 303.095922 
L 408.34593 303.150223 
L 409.34593 303.17816 
L 410.34593 303.207884 
L 411.34593 303.233279 
L 412.34593 303.244479 
L 413.34593 303.254603 
L 414.34593 303.254399 
L 415.34593 303.244889 
L 416.34593 303.233236 
L 417.34593 303.202206 
L 418.34593 303.191038 
L 419.34593 303.160921 
L 420.34593 303.101144 
L 421.34593 303.063952 
L 422.34593 303.024856 
L 423.34593 302.982417 
L 424.34593 302.949652 
L 425.34593 302.882225 
L 426.34593 302.843099 
L 427.34593 302.800425 
L 428.34593 302.729844 
L 429.34593 302.693453 
L 430.34593 302.63505 
L 431.34593 302.524097 
L 432.34593 302.453439 
L 433.34593 302.340499 
L 434.34593 302.294726 
L 435.34593 302.233443 
L 436.34593 302.184944 
L 437.34593 302.104121 
L 438.34593 301.985602 
L 439.34593 301.915392 
L 440.34593 301.832129 
L 441.34593 301.798987 
L 442.34593 301.74775 
L 443.34593 301.679352 
L 444.34593 301.613136 
L 445.34593 301.536219 
L 446.666183 301.508904 
" clip-path="url(#pcd4957f64f)" style="fill: none; stroke: #ff7f0e; stroke-opacity: 0.5; stroke-width: 0.2; stroke-linecap: square"/>
   </g>
   <g id="line2d_30">
    <path d="M 390.34593 260.865318 
L 391.34593 260.896755 
L 392.34593 260.933695 
L 393.34593 261.031442 
L 394.34593 261.063963 
L 395.34593 261.137588 
L 396.34593 261.176154 
L 397.34593 261.211567 
L 398.34593 261.269207 
L 399.34593 261.339593 
L 400.34593 261.391557 
L 401.34593 261.450647 
L 402.34593 261.538968 
L 403.34593 261.585112 
L 404.34593 261.627523 
L 405.34593 261.658016 
L 406.34593 261.684061 
L 407.34593 261.705261 
L 408.34593 261.759562 
L 409.34593 261.787499 
L 410.34593 261.817223 
L 411.34593 261.842618 
L 412.34593 261.853819 
L 413.34593 261.863943 
L 414.34593 261.863738 
L 415.34593 261.854228 
L 416.34593 261.842575 
L 417.34593 261.811546 
L 418.34593 261.800378 
L 419.34593 261.77026 
L 420.34593 261.710483 
L 421.34593 261.673292 
L 422.34593 261.634196 
L 423.34593 261.591756 
L 424.34593 261.558991 
L 425.34593 261.491564 
L 426.34593 261.452438 
L 427.34593 261.409764 
L 428.34593 261.339183 
L 429.34593 261.302792 
L 430.34593 261.244389 
L 431.34593 261.133437 
L 432.34593 261.062778 
L 433.34593 260.949839 
L 434.34593 260.904066 
L 435.34593 260.842782 
L 436.34593 260.794283 
L 437.34593 260.71346 
L 438.34593 260.594941 
L 439.34593 260.524731 
L 440.34593 260.441468 
L 441.34593 260.408327 
L 442.34593 260.357089 
L 443.34593 260.288691 
L 444.34593 260.222475 
L 445.34593 260.145558 
L 446.666183 260.118243 
" clip-path="url(#pcd4957f64f)" style="fill: none; stroke: #ff7f0e; stroke-opacity: 0.5; stroke-width: 0.2; stroke-linecap: square"/>
   </g>
   <g id="line2d_31">
    <path d="M 446.666183 239.231337 
L 445.666183 239.1999 
L 444.666183 239.16296 
L 443.666183 239.065213 
L 442.666183 239.032692 
L 441.666183 238.959067 
L 440.666183 238.920501 
L 439.666183 238.885088 
L 438.666183 238.827448 
L 437.666183 238.757062 
L 436.666183 238.705098 
L 435.666183 238.646008 
L 434.666183 238.557687 
L 433.666183 238.511543 
L 432.666183 238.469132 
L 431.666183 238.438639 
L 430.666183 238.412594 
L 429.666183 238.391394 
L 428.666183 238.337093 
L 427.666183 238.309156 
L 426.666183 238.279432 
L 425.666183 238.254037 
L 424.666183 238.242836 
L 423.666183 238.232712 
L 422.666183 238.232917 
L 421.666183 238.242427 
L 420.666183 238.25408 
L 419.666183 238.285109 
L 418.666183 238.296277 
L 417.666183 238.326395 
L 416.666183 238.386172 
L 415.666183 238.423363 
L 414.666183 238.462459 
L 413.666183 238.504899 
L 412.666183 238.537664 
L 411.666183 238.605091 
L 410.666183 238.644217 
L 409.666183 238.686891 
L 408.666183 238.757472 
L 407.666183 238.793863 
L 406.666183 238.852266 
L 405.666183 238.963218 
L 404.666183 239.033877 
L 403.666183 239.146817 
L 402.666183 239.192589 
L 401.666183 239.253873 
L 400.666183 239.302372 
L 399.666183 239.383195 
L 398.666183 239.501714 
L 397.666183 239.571924 
L 396.666183 239.655187 
L 395.666183 239.688328 
L 394.666183 239.739566 
L 393.666183 239.807964 
L 392.666183 239.87418 
L 391.666183 239.951097 
L 390.34593 239.978412 
" clip-path="url(#pcd4957f64f)" style="fill: none; stroke: #2ca02c; stroke-opacity: 0.5; stroke-width: 0.2; stroke-linecap: square"/>
   </g>
   <g id="line2d_32">
    <path d="M 446.666183 178.852344 
L 445.666183 178.820908 
L 444.666183 178.783967 
L 443.666183 178.686221 
L 442.666183 178.653699 
L 441.666183 178.580075 
L 440.666183 178.541509 
L 439.666183 178.506096 
L 438.666183 178.448456 
L 437.666183 178.37807 
L 436.666183 178.326105 
L 435.666183 178.267016 
L 434.666183 178.178695 
L 433.666183 178.13255 
L 432.666183 178.09014 
L 431.666183 178.059647 
L 430.666183 178.033602 
L 429.666183 178.012402 
L 428.666183 177.958101 
L 427.666183 177.930163 
L 426.666183 177.900439 
L 425.666183 177.875044 
L 424.666183 177.863844 
L 423.666183 177.85372 
L 422.666183 177.853924 
L 421.666183 177.863434 
L 420.666183 177.875088 
L 419.666183 177.906117 
L 418.666183 177.917285 
L 417.666183 177.947403 
L 416.666183 178.007179 
L 415.666183 178.044371 
L 414.666183 178.083467 
L 413.666183 178.125907 
L 412.666183 178.158672 
L 411.666183 178.226098 
L 410.666183 178.265224 
L 409.666183 178.307899 
L 408.666183 178.378479 
L 407.666183 178.41487 
L 406.666183 178.473273 
L 405.666183 178.584226 
L 404.666183 178.654884 
L 403.666183 178.767824 
L 402.666183 178.813597 
L 401.666183 178.87488 
L 400.666183 178.92338 
L 399.666183 179.004202 
L 398.666183 179.122721 
L 397.666183 179.192932 
L 396.666183 179.276194 
L 395.666183 179.309336 
L 394.666183 179.360573 
L 393.666183 179.428972 
L 392.666183 179.495187 
L 391.666183 179.572104 
L 390.34593 179.59942 
" clip-path="url(#pcd4957f64f)" style="fill: none; stroke: #2ca02c; stroke-opacity: 0.5; stroke-width: 0.2; stroke-linecap: square"/>
   </g>
   <g id="line2d_33">
    <path d="M 446.666183 269.766993 
L 445.666183 269.735556 
L 444.666183 269.698616 
L 443.666183 269.600869 
L 442.666183 269.568348 
L 441.666183 269.494723 
L 440.666183 269.456157 
L 439.666183 269.420744 
L 438.666183 269.363104 
L 437.666183 269.292718 
L 436.666183 269.240754 
L 435.666183 269.181664 
L 434.666183 269.093343 
L 433.666183 269.047199 
L 432.666183 269.004788 
L 431.666183 268.974295 
L 430.666183 268.94825 
L 429.666183 268.92705 
L 428.666183 268.872749 
L 427.666183 268.844812 
L 426.666183 268.815088 
L 425.666183 268.789693 
L 424.666183 268.778492 
L 423.666183 268.768368 
L 422.666183 268.768573 
L 421.666183 268.778083 
L 420.666183 268.789736 
L 419.666183 268.820765 
L 418.666183 268.831933 
L 417.666183 268.862051 
L 416.666183 268.921828 
L 415.666183 268.959019 
L 414.666183 268.998115 
L 413.666183 269.040555 
L 412.666183 269.07332 
L 411.666183 269.140747 
L 410.666183 269.179873 
L 409.666183 269.222547 
L 408.666183 269.293128 
L 407.666183 269.329519 
L 406.666183 269.387922 
L 405.666183 269.498874 
L 404.666183 269.569533 
L 403.666183 269.682472 
L 402.666183 269.728245 
L 401.666183 269.789529 
L 400.666183 269.838028 
L 399.666183 269.918851 
L 398.666183 270.03737 
L 397.666183 270.10758 
L 396.666183 270.190843 
L 395.666183 270.223984 
L 394.666183 270.275222 
L 393.666183 270.34362 
L 392.666183 270.409836 
L 391.666183 270.486753 
L 390.34593 270.514068 
" clip-path="url(#pcd4957f64f)" style="fill: none; stroke: #2ca02c; stroke-opacity: 0.5; stroke-width: 0.2; stroke-linecap: square"/>
   </g>
   <g id="line2d_34">
    <path d="M 446.666183 76.943728 
L 445.666183 76.912292 
L 444.666183 76.875352 
L 443.666183 76.777605 
L 442.666183 76.745084 
L 441.666183 76.671459 
L 440.666183 76.632893 
L 439.666183 76.59748 
L 438.666183 76.53984 
L 437.666183 76.469454 
L 436.666183 76.41749 
L 435.666183 76.3584 
L 434.666183 76.270079 
L 433.666183 76.223935 
L 432.666183 76.181524 
L 431.666183 76.151031 
L 430.666183 76.124986 
L 429.666183 76.103786 
L 428.666183 76.049485 
L 427.666183 76.021547 
L 426.666183 75.991823 
L 425.666183 75.966429 
L 424.666183 75.955228 
L 423.666183 75.945104 
L 422.666183 75.945309 
L 421.666183 75.954819 
L 420.666183 75.966472 
L 419.666183 75.997501 
L 418.666183 76.008669 
L 417.666183 76.038787 
L 416.666183 76.098564 
L 415.666183 76.135755 
L 414.666183 76.174851 
L 413.666183 76.217291 
L 412.666183 76.250056 
L 411.666183 76.317483 
L 410.666183 76.356609 
L 409.666183 76.399283 
L 408.666183 76.469864 
L 407.666183 76.506255 
L 406.666183 76.564658 
L 405.666183 76.67561 
L 404.666183 76.746269 
L 403.666183 76.859208 
L 402.666183 76.904981 
L 401.666183 76.966265 
L 400.666183 77.014764 
L 399.666183 77.095587 
L 398.666183 77.214105 
L 397.666183 77.284316 
L 396.666183 77.367579 
L 395.666183 77.40072 
L 394.666183 77.451958 
L 393.666183 77.520356 
L 392.666183 77.586571 
L 391.666183 77.663489 
L 390.34593 77.690804 
" clip-path="url(#pcd4957f64f)" style="fill: none; stroke: #2ca02c; stroke-opacity: 0.5; stroke-width: 0.2; stroke-linecap: square"/>
   </g>
   <g id="line2d_35">
    <path d="M 446.666183 105.011735 
L 445.666183 104.980299 
L 444.666183 104.943358 
L 443.666183 104.845612 
L 442.666183 104.81309 
L 441.666183 104.739465 
L 440.666183 104.7009 
L 439.666183 104.665487 
L 438.666183 104.607847 
L 437.666183 104.537461 
L 436.666183 104.485496 
L 435.666183 104.426407 
L 434.666183 104.338086 
L 433.666183 104.291941 
L 432.666183 104.24953 
L 431.666183 104.219038 
L 430.666183 104.192993 
L 429.666183 104.171793 
L 428.666183 104.117492 
L 427.666183 104.089554 
L 426.666183 104.05983 
L 425.666183 104.034435 
L 424.666183 104.023235 
L 423.666183 104.013111 
L 422.666183 104.013315 
L 421.666183 104.022825 
L 420.666183 104.034479 
L 419.666183 104.065508 
L 418.666183 104.076676 
L 417.666183 104.106793 
L 416.666183 104.16657 
L 415.666183 104.203762 
L 414.666183 104.242858 
L 413.666183 104.285298 
L 412.666183 104.318063 
L 411.666183 104.385489 
L 410.666183 104.424615 
L 409.666183 104.46729 
L 408.666183 104.53787 
L 407.666183 104.574261 
L 406.666183 104.632664 
L 405.666183 104.743617 
L 404.666183 104.814275 
L 403.666183 104.927215 
L 402.666183 104.972988 
L 401.666183 105.034271 
L 400.666183 105.08277 
L 399.666183 105.163593 
L 398.666183 105.282112 
L 397.666183 105.352323 
L 396.666183 105.435585 
L 395.666183 105.468727 
L 394.666183 105.519964 
L 393.666183 105.588363 
L 392.666183 105.654578 
L 391.666183 105.731495 
L 390.34593 105.75881 
" clip-path="url(#pcd4957f64f)" style="fill: none; stroke: #2ca02c; stroke-opacity: 0.5; stroke-width: 0.2; stroke-linecap: square"/>
   </g>
   <g id="line2d_36">
    <path d="M 446.666183 249.482361 
L 445.666183 249.450924 
L 444.666183 249.413984 
L 443.666183 249.316237 
L 442.666183 249.283716 
L 441.666183 249.210091 
L 440.666183 249.171526 
L 439.666183 249.136112 
L 438.666183 249.078473 
L 437.666183 249.008086 
L 436.666183 248.956122 
L 435.666183 248.897032 
L 434.666183 248.808711 
L 433.666183 248.762567 
L 432.666183 248.720156 
L 431.666183 248.689663 
L 430.666183 248.663619 
L 429.666183 248.642418 
L 428.666183 248.588117 
L 427.666183 248.56018 
L 426.666183 248.530456 
L 425.666183 248.505061 
L 424.666183 248.493861 
L 423.666183 248.483737 
L 422.666183 248.483941 
L 421.666183 248.493451 
L 420.666183 248.505104 
L 419.666183 248.536134 
L 418.666183 248.547302 
L 417.666183 248.577419 
L 416.666183 248.637196 
L 415.666183 248.674388 
L 414.666183 248.713484 
L 413.666183 248.755923 
L 412.666183 248.788688 
L 411.666183 248.856115 
L 410.666183 248.895241 
L 409.666183 248.937915 
L 408.666183 249.008496 
L 407.666183 249.044887 
L 406.666183 249.10329 
L 405.666183 249.214243 
L 404.666183 249.284901 
L 403.666183 249.397841 
L 402.666183 249.443614 
L 401.666183 249.504897 
L 400.666183 249.553396 
L 399.666183 249.634219 
L 398.666183 249.752738 
L 397.666183 249.822948 
L 396.666183 249.906211 
L 395.666183 249.939353 
L 394.666183 249.99059 
L 393.666183 250.058988 
L 392.666183 250.125204 
L 391.666183 250.202121 
L 390.34593 250.229436 
" clip-path="url(#pcd4957f64f)" style="fill: none; stroke: #2ca02c; stroke-opacity: 0.5; stroke-width: 0.2; stroke-linecap: square"/>
   </g>
   <g id="line2d_37">
    <path d="M 446.666183 229.337776 
L 445.666183 229.30634 
L 444.666183 229.2694 
L 443.666183 229.171653 
L 442.666183 229.139131 
L 441.666183 229.065507 
L 440.666183 229.026941 
L 439.666183 228.991528 
L 438.666183 228.933888 
L 437.666183 228.863502 
L 436.666183 228.811538 
L 435.666183 228.752448 
L 434.666183 228.664127 
L 433.666183 228.617983 
L 432.666183 228.575572 
L 431.666183 228.545079 
L 430.666183 228.519034 
L 429.666183 228.497834 
L 428.666183 228.443533 
L 427.666183 228.415595 
L 426.666183 228.385871 
L 425.666183 228.360477 
L 424.666183 228.349276 
L 423.666183 228.339152 
L 422.666183 228.339357 
L 421.666183 228.348866 
L 420.666183 228.36052 
L 419.666183 228.391549 
L 418.666183 228.402717 
L 417.666183 228.432835 
L 416.666183 228.492612 
L 415.666183 228.529803 
L 414.666183 228.568899 
L 413.666183 228.611339 
L 412.666183 228.644104 
L 411.666183 228.71153 
L 410.666183 228.750656 
L 409.666183 228.793331 
L 408.666183 228.863912 
L 407.666183 228.900302 
L 406.666183 228.958706 
L 405.666183 229.069658 
L 404.666183 229.140316 
L 403.666183 229.253256 
L 402.666183 229.299029 
L 401.666183 229.360312 
L 400.666183 229.408812 
L 399.666183 229.489634 
L 398.666183 229.608153 
L 397.666183 229.678364 
L 396.666183 229.761626 
L 395.666183 229.794768 
L 394.666183 229.846006 
L 393.666183 229.914404 
L 392.666183 229.980619 
L 391.666183 230.057536 
L 390.34593 230.084852 
" clip-path="url(#pcd4957f64f)" style="fill: none; stroke: #2ca02c; stroke-opacity: 0.5; stroke-width: 0.2; stroke-linecap: square"/>
   </g>
   <g id="line2d_38">
    <path d="M 446.666183 79.711007 
L 445.666183 79.679571 
L 444.666183 79.642631 
L 443.666183 79.544884 
L 442.666183 79.512363 
L 441.666183 79.438738 
L 440.666183 79.400172 
L 439.666183 79.364759 
L 438.666183 79.307119 
L 437.666183 79.236733 
L 436.666183 79.184769 
L 435.666183 79.125679 
L 434.666183 79.037358 
L 433.666183 78.991214 
L 432.666183 78.948803 
L 431.666183 78.91831 
L 430.666183 78.892265 
L 429.666183 78.871065 
L 428.666183 78.816764 
L 427.666183 78.788826 
L 426.666183 78.759102 
L 425.666183 78.733708 
L 424.666183 78.722507 
L 423.666183 78.712383 
L 422.666183 78.712588 
L 421.666183 78.722098 
L 420.666183 78.733751 
L 419.666183 78.76478 
L 418.666183 78.775948 
L 417.666183 78.806066 
L 416.666183 78.865843 
L 415.666183 78.903034 
L 414.666183 78.94213 
L 413.666183 78.98457 
L 412.666183 79.017335 
L 411.666183 79.084762 
L 410.666183 79.123887 
L 409.666183 79.166562 
L 408.666183 79.237143 
L 407.666183 79.273533 
L 406.666183 79.331937 
L 405.666183 79.442889 
L 404.666183 79.513548 
L 403.666183 79.626487 
L 402.666183 79.67226 
L 401.666183 79.733544 
L 400.666183 79.782043 
L 399.666183 79.862866 
L 398.666183 79.981384 
L 397.666183 80.051595 
L 396.666183 80.134858 
L 395.666183 80.167999 
L 394.666183 80.219237 
L 393.666183 80.287635 
L 392.666183 80.35385 
L 391.666183 80.430767 
L 390.34593 80.458083 
" clip-path="url(#pcd4957f64f)" style="fill: none; stroke: #2ca02c; stroke-opacity: 0.5; stroke-width: 0.2; stroke-linecap: square"/>
   </g>
   <g id="line2d_39">
    <path d="M 446.666183 172.820976 
L 445.666183 172.78954 
L 444.666183 172.752599 
L 443.666183 172.654853 
L 442.666183 172.622331 
L 441.666183 172.548706 
L 440.666183 172.510141 
L 439.666183 172.474728 
L 438.666183 172.417088 
L 437.666183 172.346701 
L 436.666183 172.294737 
L 435.666183 172.235647 
L 434.666183 172.147326 
L 433.666183 172.101182 
L 432.666183 172.058771 
L 431.666183 172.028279 
L 430.666183 172.002234 
L 429.666183 171.981034 
L 428.666183 171.926732 
L 427.666183 171.898795 
L 426.666183 171.869071 
L 425.666183 171.843676 
L 424.666183 171.832476 
L 423.666183 171.822352 
L 422.666183 171.822556 
L 421.666183 171.832066 
L 420.666183 171.84372 
L 419.666183 171.874749 
L 418.666183 171.885917 
L 417.666183 171.916034 
L 416.666183 171.975811 
L 415.666183 172.013003 
L 414.666183 172.052099 
L 413.666183 172.094538 
L 412.666183 172.127304 
L 411.666183 172.19473 
L 410.666183 172.233856 
L 409.666183 172.27653 
L 408.666183 172.347111 
L 407.666183 172.383502 
L 406.666183 172.441905 
L 405.666183 172.552858 
L 404.666183 172.623516 
L 403.666183 172.736456 
L 402.666183 172.782229 
L 401.666183 172.843512 
L 400.666183 172.892011 
L 399.666183 172.972834 
L 398.666183 173.091353 
L 397.666183 173.161564 
L 396.666183 173.244826 
L 395.666183 173.277968 
L 394.666183 173.329205 
L 393.666183 173.397603 
L 392.666183 173.463819 
L 391.666183 173.540736 
L 390.34593 173.568051 
" clip-path="url(#pcd4957f64f)" style="fill: none; stroke: #2ca02c; stroke-opacity: 0.5; stroke-width: 0.2; stroke-linecap: square"/>
   </g>
   <g id="line2d_40">
    <path d="M 446.666183 282.044576 
L 445.666183 282.01314 
L 444.666183 281.9762 
L 443.666183 281.878453 
L 442.666183 281.845932 
L 441.666183 281.772307 
L 440.666183 281.733741 
L 439.666183 281.698328 
L 438.666183 281.640688 
L 437.666183 281.570302 
L 436.666183 281.518338 
L 435.666183 281.459248 
L 434.666183 281.370927 
L 433.666183 281.324783 
L 432.666183 281.282372 
L 431.666183 281.251879 
L 430.666183 281.225834 
L 429.666183 281.204634 
L 428.666183 281.150333 
L 427.666183 281.122395 
L 426.666183 281.092671 
L 425.666183 281.067277 
L 424.666183 281.056076 
L 423.666183 281.045952 
L 422.666183 281.046157 
L 421.666183 281.055666 
L 420.666183 281.06732 
L 419.666183 281.098349 
L 418.666183 281.109517 
L 417.666183 281.139635 
L 416.666183 281.199412 
L 415.666183 281.236603 
L 414.666183 281.275699 
L 413.666183 281.318139 
L 412.666183 281.350904 
L 411.666183 281.418331 
L 410.666183 281.457456 
L 409.666183 281.500131 
L 408.666183 281.570712 
L 407.666183 281.607102 
L 406.666183 281.665506 
L 405.666183 281.776458 
L 404.666183 281.847117 
L 403.666183 281.960056 
L 402.666183 282.005829 
L 401.666183 282.067112 
L 400.666183 282.115612 
L 399.666183 282.196434 
L 398.666183 282.314953 
L 397.666183 282.385164 
L 396.666183 282.468427 
L 395.666183 282.501568 
L 394.666183 282.552806 
L 393.666183 282.621204 
L 392.666183 282.687419 
L 391.666183 282.764336 
L 390.34593 282.791652 
" clip-path="url(#pcd4957f64f)" style="fill: none; stroke: #2ca02c; stroke-opacity: 0.5; stroke-width: 0.2; stroke-linecap: square"/>
   </g>
   <g id="patch_3">
    <path d="M 72.103551 22.318125 
L 72.103551 318.021875 
M 194.769098 22.318125 
L 194.769098 318.021875 
" clip-path="url(#pcd4957f64f)" style="fill: none; stroke: #ffffff; stroke-width: 3; stroke-linejoin: miter"/>
    <path d="M 72.103551 22.318125 
L 72.103551 318.021875 
M 194.769098 22.318125 
L 194.769098 318.021875 
" clip-path="url(#pcd4957f64f)" style="fill: none; stroke: #1f77b4; stroke-linejoin: miter"/>
   </g>
   <g id="FillBetweenPolyCollection_1">
    <path d="M 194.769098 22.318125 
L 72.103551 22.318125 
L 72.103551 318.021875 
L 194.769098 318.021875 
L 194.769098 318.021875 
L 194.769098 22.318125 
z
" clip-path="url(#pcd4957f64f)" style="fill: #1f77b4; fill-opacity: 0.5"/>
   </g>
   <g id="patch_4">
    <path d="M 262.150039 22.318125 
L 262.150039 318.021875 
M 384.815586 22.318125 
L 384.815586 318.021875 
" clip-path="url(#pcd4957f64f)" style="fill: none; stroke: #ffffff; stroke-width: 3; stroke-linejoin: miter"/>
    <path d="M 262.150039 22.318125 
L 262.150039 318.021875 
M 384.815586 22.318125 
L 384.815586 318.021875 
" clip-path="url(#pcd4957f64f)" style="fill: none; stroke: #ff7f0e; stroke-linejoin: miter"/>
   </g>
   <g id="FillBetweenPolyCollection_2">
    <path d="M 384.815586 22.318125 
L 262.150039 22.318125 
L 262.150039 318.021875 
L 384.815586 318.021875 
L 384.815586 318.021875 
L 384.815586 22.318125 
z
" clip-path="url(#pcd4957f64f)" style="fill: #ff7f0e; fill-opacity: 0.5"/>
   </g>
   <g id="patch_5">
    <path d="M 452.196527 22.318125 
L 452.196527 318.021875 
M 574.862074 22.318125 
L 574.862074 318.021875 
" clip-path="url(#pcd4957f64f)" style="fill: none; stroke: #ffffff; stroke-width: 3; stroke-linejoin: miter"/>
    <path d="M 452.196527 22.318125 
L 452.196527 318.021875 
M 574.862074 22.318125 
L 574.862074 318.021875 
" clip-path="url(#pcd4957f64f)" style="fill: none; stroke: #2ca02c; stroke-linejoin: miter"/>
   </g>
   <g id="FillBetweenPolyCollection_3">
    <path d="M 574.862074 22.318125 
L 452.196527 22.318125 
L 452.196527 318.021875 
L 574.862074 318.021875 
L 574.862074 318.021875 
L 574.862074 22.318125 
z
" clip-path="url(#pcd4957f64f)" style="fill: #2ca02c; fill-opacity: 0.5"/>
   </g>
   <g id="matplotlib.axis_1">
    <g id="xtick_1">
     <g id="line2d_41"/>
     <g id="text_1">
      <!-- deme1 -->
      <g transform="translate(116.057418 329.120312) scale(0.1 -0.1)">
       <defs>
        <path id="DejaVuSans-64" d="M 2906 2969 
L 2906 4863 
L 3481 4863 
L 3481 0 
L 2906 0 
L 2906 525 
Q 2725 213 2448 61 
Q 2172 -91 1784 -91 
Q 1150 -91 751 415 
Q 353 922 353 1747 
Q 353 2572 751 3078 
Q 1150 3584 1784 3584 
Q 2172 3584 2448 3432 
Q 2725 3281 2906 2969 
z
M 947 1747 
Q 947 1113 1208 752 
Q 1469 391 1925 391 
Q 2381 391 2643 752 
Q 2906 1113 2906 1747 
Q 2906 2381 2643 2742 
Q 2381 3103 1925 3103 
Q 1469 3103 1208 2742 
Q 947 2381 947 1747 
z
" transform="scale(0.015625)"/>
        <path id="DejaVuSans-65" d="M 3597 1894 
L 3597 1613 
L 953 1613 
Q 991 1019 1311 708 
Q 1631 397 2203 397 
Q 2534 397 2845 478 
Q 3156 559 3463 722 
L 3463 178 
Q 3153 47 2828 -22 
Q 2503 -91 2169 -91 
Q 1331 -91 842 396 
Q 353 884 353 1716 
Q 353 2575 817 3079 
Q 1281 3584 2069 3584 
Q 2775 3584 3186 3129 
Q 3597 2675 3597 1894 
z
M 3022 2063 
Q 3016 2534 2758 2815 
Q 2500 3097 2075 3097 
Q 1594 3097 1305 2825 
Q 1016 2553 972 2059 
L 3022 2063 
z
" transform="scale(0.015625)"/>
        <path id="DejaVuSans-6d" d="M 3328 2828 
Q 3544 3216 3844 3400 
Q 4144 3584 4550 3584 
Q 5097 3584 5394 3201 
Q 5691 2819 5691 2113 
L 5691 0 
L 5113 0 
L 5113 2094 
Q 5113 2597 4934 2840 
Q 4756 3084 4391 3084 
Q 3944 3084 3684 2787 
Q 3425 2491 3425 1978 
L 3425 0 
L 2847 0 
L 2847 2094 
Q 2847 2600 2669 2842 
Q 2491 3084 2119 3084 
Q 1678 3084 1418 2786 
Q 1159 2488 1159 1978 
L 1159 0 
L 581 0 
L 581 3500 
L 1159 3500 
L 1159 2956 
Q 1356 3278 1631 3431 
Q 1906 3584 2284 3584 
Q 2666 3584 2933 3390 
Q 3200 3197 3328 2828 
z
" transform="scale(0.015625)"/>
        <path id="DejaVuSans-31" d="M 794 531 
L 1825 531 
L 1825 4091 
L 703 3866 
L 703 4441 
L 1819 4666 
L 2450 4666 
L 2450 531 
L 3481 531 
L 3481 0 
L 794 0 
L 794 531 
z
" transform="scale(0.015625)"/>
       </defs>
       <use xlink:href="#DejaVuSans-64"/>
       <use xlink:href="#DejaVuSans-65" transform="translate(63.476562 0)"/>
       <use xlink:href="#DejaVuSans-6d" transform="translate(125 0)"/>
       <use xlink:href="#DejaVuSans-65" transform="translate(222.412109 0)"/>
       <use xlink:href="#DejaVuSans-31" transform="translate(283.935547 0)"/>
      </g>
     </g>
    </g>
    <g id="xtick_2">
     <g id="line2d_42"/>
     <g id="text_2">
      <!-- deme2 -->
      <g transform="translate(306.103906 329.120312) scale(0.1 -0.1)">
       <defs>
        <path id="DejaVuSans-32" d="M 1228 531 
L 3431 531 
L 3431 0 
L 469 0 
L 469 531 
Q 828 903 1448 1529 
Q 2069 2156 2228 2338 
Q 2531 2678 2651 2914 
Q 2772 3150 2772 3378 
Q 2772 3750 2511 3984 
Q 2250 4219 1831 4219 
Q 1534 4219 1204 4116 
Q 875 4013 500 3803 
L 500 4441 
Q 881 4594 1212 4672 
Q 1544 4750 1819 4750 
Q 2544 4750 2975 4387 
Q 3406 4025 3406 3419 
Q 3406 3131 3298 2873 
Q 3191 2616 2906 2266 
Q 2828 2175 2409 1742 
Q 1991 1309 1228 531 
z
" transform="scale(0.015625)"/>
       </defs>
       <use xlink:href="#DejaVuSans-64"/>
       <use xlink:href="#DejaVuSans-65" transform="translate(63.476562 0)"/>
       <use xlink:href="#DejaVuSans-6d" transform="translate(125 0)"/>
       <use xlink:href="#DejaVuSans-65" transform="translate(222.412109 0)"/>
       <use xlink:href="#DejaVuSans-32" transform="translate(283.935547 0)"/>
      </g>
     </g>
    </g>
    <g id="xtick_3">
     <g id="line2d_43"/>
     <g id="text_3">
      <!-- deme3 -->
      <g transform="translate(496.150394 329.120312) scale(0.1 -0.1)">
       <defs>
        <path id="DejaVuSans-33" d="M 2597 2516 
Q 3050 2419 3304 2112 
Q 3559 1806 3559 1356 
Q 3559 666 3084 287 
Q 2609 -91 1734 -91 
Q 1441 -91 1130 -33 
Q 819 25 488 141 
L 488 750 
Q 750 597 1062 519 
Q 1375 441 1716 441 
Q 2309 441 2620 675 
Q 2931 909 2931 1356 
Q 2931 1769 2642 2001 
Q 2353 2234 1838 2234 
L 1294 2234 
L 1294 2753 
L 1863 2753 
Q 2328 2753 2575 2939 
Q 2822 3125 2822 3475 
Q 2822 3834 2567 4026 
Q 2313 4219 1838 4219 
Q 1578 4219 1281 4162 
Q 984 4106 628 3988 
L 628 4550 
Q 988 4650 1302 4700 
Q 1616 4750 1894 4750 
Q 2613 4750 3031 4423 
Q 3450 4097 3450 3541 
Q 3450 3153 3228 2886 
Q 3006 2619 2597 2516 
z
" transform="scale(0.015625)"/>
       </defs>
       <use xlink:href="#DejaVuSans-64"/>
       <use xlink:href="#DejaVuSans-65" transform="translate(63.476562 0)"/>
       <use xlink:href="#DejaVuSans-6d" transform="translate(125 0)"/>
       <use xlink:href="#DejaVuSans-65" transform="translate(222.412109 0)"/>
       <use xlink:href="#DejaVuSans-33" transform="translate(283.935547 0)"/>
      </g>
     </g>
    </g>
   </g>
   <g id="matplotlib.axis_2">
    <g id="ytick_1">
     <g id="line2d_44">
      <defs>
       <path id="mbef416df3f" d="M 0 0 
L -3.5 0 
" style="stroke: #000000; stroke-width: 0.8"/>
      </defs>
      <g>
       <use xlink:href="#mbef416df3f" x="46.965625" y="318.021875" style="stroke: #000000; stroke-width: 0.8"/>
      </g>
     </g>
     <g id="text_4">
      <!-- 0 -->
      <g transform="translate(33.603125 321.821094) scale(0.1 -0.1)">
       <defs>
        <path id="DejaVuSans-30" d="M 2034 4250 
Q 1547 4250 1301 3770 
Q 1056 3291 1056 2328 
Q 1056 1369 1301 889 
Q 1547 409 2034 409 
Q 2525 409 2770 889 
Q 3016 1369 3016 2328 
Q 3016 3291 2770 3770 
Q 2525 4250 2034 4250 
z
M 2034 4750 
Q 2819 4750 3233 4129 
Q 3647 3509 3647 2328 
Q 3647 1150 3233 529 
Q 2819 -91 2034 -91 
Q 1250 -91 836 529 
Q 422 1150 422 2328 
Q 422 3509 836 4129 
Q 1250 4750 2034 4750 
z
" transform="scale(0.015625)"/>
       </defs>
       <use xlink:href="#DejaVuSans-30"/>
      </g>
     </g>
    </g>
    <g id="ytick_2">
     <g id="line2d_45">
      <g>
       <use xlink:href="#mbef416df3f" x="46.965625" y="265.684928" style="stroke: #000000; stroke-width: 0.8"/>
      </g>
     </g>
     <g id="text_5">
      <!-- 20 -->
      <g transform="translate(27.240625 269.484147) scale(0.1 -0.1)">
       <use xlink:href="#DejaVuSans-32"/>
       <use xlink:href="#DejaVuSans-30" transform="translate(63.623047 0)"/>
      </g>
     </g>
    </g>
    <g id="ytick_3">
     <g id="line2d_46">
      <g>
       <use xlink:href="#mbef416df3f" x="46.965625" y="213.347981" style="stroke: #000000; stroke-width: 0.8"/>
      </g>
     </g>
     <g id="text_6">
      <!-- 40 -->
      <g transform="translate(27.240625 217.1472) scale(0.1 -0.1)">
       <defs>
        <path id="DejaVuSans-34" d="M 2419 4116 
L 825 1625 
L 2419 1625 
L 2419 4116 
z
M 2253 4666 
L 3047 4666 
L 3047 1625 
L 3713 1625 
L 3713 1100 
L 3047 1100 
L 3047 0 
L 2419 0 
L 2419 1100 
L 313 1100 
L 313 1709 
L 2253 4666 
z
" transform="scale(0.015625)"/>
       </defs>
       <use xlink:href="#DejaVuSans-34"/>
       <use xlink:href="#DejaVuSans-30" transform="translate(63.623047 0)"/>
      </g>
     </g>
    </g>
    <g id="ytick_4">
     <g id="line2d_47">
      <g>
       <use xlink:href="#mbef416df3f" x="46.965625" y="161.011034" style="stroke: #000000; stroke-width: 0.8"/>
      </g>
     </g>
     <g id="text_7">
      <!-- 60 -->
      <g transform="translate(27.240625 164.810253) scale(0.1 -0.1)">
       <defs>
        <path id="DejaVuSans-36" d="M 2113 2584 
Q 1688 2584 1439 2293 
Q 1191 2003 1191 1497 
Q 1191 994 1439 701 
Q 1688 409 2113 409 
Q 2538 409 2786 701 
Q 3034 994 3034 1497 
Q 3034 2003 2786 2293 
Q 2538 2584 2113 2584 
z
M 3366 4563 
L 3366 3988 
Q 3128 4100 2886 4159 
Q 2644 4219 2406 4219 
Q 1781 4219 1451 3797 
Q 1122 3375 1075 2522 
Q 1259 2794 1537 2939 
Q 1816 3084 2150 3084 
Q 2853 3084 3261 2657 
Q 3669 2231 3669 1497 
Q 3669 778 3244 343 
Q 2819 -91 2113 -91 
Q 1303 -91 875 529 
Q 447 1150 447 2328 
Q 447 3434 972 4092 
Q 1497 4750 2381 4750 
Q 2619 4750 2861 4703 
Q 3103 4656 3366 4563 
z
" transform="scale(0.015625)"/>
       </defs>
       <use xlink:href="#DejaVuSans-36"/>
       <use xlink:href="#DejaVuSans-30" transform="translate(63.623047 0)"/>
      </g>
     </g>
    </g>
    <g id="ytick_5">
     <g id="line2d_48">
      <g>
       <use xlink:href="#mbef416df3f" x="46.965625" y="108.674087" style="stroke: #000000; stroke-width: 0.8"/>
      </g>
     </g>
     <g id="text_8">
      <!-- 80 -->
      <g transform="translate(27.240625 112.473306) scale(0.1 -0.1)">
       <defs>
        <path id="DejaVuSans-38" d="M 2034 2216 
Q 1584 2216 1326 1975 
Q 1069 1734 1069 1313 
Q 1069 891 1326 650 
Q 1584 409 2034 409 
Q 2484 409 2743 651 
Q 3003 894 3003 1313 
Q 3003 1734 2745 1975 
Q 2488 2216 2034 2216 
z
M 1403 2484 
Q 997 2584 770 2862 
Q 544 3141 544 3541 
Q 544 4100 942 4425 
Q 1341 4750 2034 4750 
Q 2731 4750 3128 4425 
Q 3525 4100 3525 3541 
Q 3525 3141 3298 2862 
Q 3072 2584 2669 2484 
Q 3125 2378 3379 2068 
Q 3634 1759 3634 1313 
Q 3634 634 3220 271 
Q 2806 -91 2034 -91 
Q 1263 -91 848 271 
Q 434 634 434 1313 
Q 434 1759 690 2068 
Q 947 2378 1403 2484 
z
M 1172 3481 
Q 1172 3119 1398 2916 
Q 1625 2713 2034 2713 
Q 2441 2713 2670 2916 
Q 2900 3119 2900 3481 
Q 2900 3844 2670 4047 
Q 2441 4250 2034 4250 
Q 1625 4250 1398 4047 
Q 1172 3844 1172 3481 
z
" transform="scale(0.015625)"/>
       </defs>
       <use xlink:href="#DejaVuSans-38"/>
       <use xlink:href="#DejaVuSans-30" transform="translate(63.623047 0)"/>
      </g>
     </g>
    </g>
    <g id="ytick_6">
     <g id="line2d_49">
      <g>
       <use xlink:href="#mbef416df3f" x="46.965625" y="56.33714" style="stroke: #000000; stroke-width: 0.8"/>
      </g>
     </g>
     <g id="text_9">
      <!-- 100 -->
      <g transform="translate(20.878125 60.136359) scale(0.1 -0.1)">
       <use xlink:href="#DejaVuSans-31"/>
       <use xlink:href="#DejaVuSans-30" transform="translate(63.623047 0)"/>
       <use xlink:href="#DejaVuSans-30" transform="translate(127.246094 0)"/>
      </g>
     </g>
    </g>
    <g id="text_10">
     <!-- time ago (years) -->
     <g transform="translate(14.798437 211.603594) rotate(-90) scale(0.1 -0.1)">
      <defs>
       <path id="DejaVuSans-74" d="M 1172 4494 
L 1172 3500 
L 2356 3500 
L 2356 3053 
L 1172 3053 
L 1172 1153 
Q 1172 725 1289 603 
Q 1406 481 1766 481 
L 2356 481 
L 2356 0 
L 1766 0 
Q 1100 0 847 248 
Q 594 497 594 1153 
L 594 3053 
L 172 3053 
L 172 3500 
L 594 3500 
L 594 4494 
L 1172 4494 
z
" transform="scale(0.015625)"/>
       <path id="DejaVuSans-69" d="M 603 3500 
L 1178 3500 
L 1178 0 
L 603 0 
L 603 3500 
z
M 603 4863 
L 1178 4863 
L 1178 4134 
L 603 4134 
L 603 4863 
z
" transform="scale(0.015625)"/>
       <path id="DejaVuSans-20" transform="scale(0.015625)"/>
       <path id="DejaVuSans-61" d="M 2194 1759 
Q 1497 1759 1228 1600 
Q 959 1441 959 1056 
Q 959 750 1161 570 
Q 1363 391 1709 391 
Q 2188 391 2477 730 
Q 2766 1069 2766 1631 
L 2766 1759 
L 2194 1759 
z
M 3341 1997 
L 3341 0 
L 2766 0 
L 2766 531 
Q 2569 213 2275 61 
Q 1981 -91 1556 -91 
Q 1019 -91 701 211 
Q 384 513 384 1019 
Q 384 1609 779 1909 
Q 1175 2209 1959 2209 
L 2766 2209 
L 2766 2266 
Q 2766 2663 2505 2880 
Q 2244 3097 1772 3097 
Q 1472 3097 1187 3025 
Q 903 2953 641 2809 
L 641 3341 
Q 956 3463 1253 3523 
Q 1550 3584 1831 3584 
Q 2591 3584 2966 3190 
Q 3341 2797 3341 1997 
z
" transform="scale(0.015625)"/>
       <path id="DejaVuSans-67" d="M 2906 1791 
Q 2906 2416 2648 2759 
Q 2391 3103 1925 3103 
Q 1463 3103 1205 2759 
Q 947 2416 947 1791 
Q 947 1169 1205 825 
Q 1463 481 1925 481 
Q 2391 481 2648 825 
Q 2906 1169 2906 1791 
z
M 3481 434 
Q 3481 -459 3084 -895 
Q 2688 -1331 1869 -1331 
Q 1566 -1331 1297 -1286 
Q 1028 -1241 775 -1147 
L 775 -588 
Q 1028 -725 1275 -790 
Q 1522 -856 1778 -856 
Q 2344 -856 2625 -561 
Q 2906 -266 2906 331 
L 2906 616 
Q 2728 306 2450 153 
Q 2172 0 1784 0 
Q 1141 0 747 490 
Q 353 981 353 1791 
Q 353 2603 747 3093 
Q 1141 3584 1784 3584 
Q 2172 3584 2450 3431 
Q 2728 3278 2906 2969 
L 2906 3500 
L 3481 3500 
L 3481 434 
z
" transform="scale(0.015625)"/>
       <path id="DejaVuSans-6f" d="M 1959 3097 
Q 1497 3097 1228 2736 
Q 959 2375 959 1747 
Q 959 1119 1226 758 
Q 1494 397 1959 397 
Q 2419 397 2687 759 
Q 2956 1122 2956 1747 
Q 2956 2369 2687 2733 
Q 2419 3097 1959 3097 
z
M 1959 3584 
Q 2709 3584 3137 3096 
Q 3566 2609 3566 1747 
Q 3566 888 3137 398 
Q 2709 -91 1959 -91 
Q 1206 -91 779 398 
Q 353 888 353 1747 
Q 353 2609 779 3096 
Q 1206 3584 1959 3584 
z
" transform="scale(0.015625)"/>
       <path id="DejaVuSans-28" d="M 1984 4856 
Q 1566 4138 1362 3434 
Q 1159 2731 1159 2009 
Q 1159 1288 1364 580 
Q 1569 -128 1984 -844 
L 1484 -844 
Q 1016 -109 783 600 
Q 550 1309 550 2009 
Q 550 2706 781 3412 
Q 1013 4119 1484 4856 
L 1984 4856 
z
" transform="scale(0.015625)"/>
       <path id="DejaVuSans-79" d="M 2059 -325 
Q 1816 -950 1584 -1140 
Q 1353 -1331 966 -1331 
L 506 -1331 
L 506 -850 
L 844 -850 
Q 1081 -850 1212 -737 
Q 1344 -625 1503 -206 
L 1606 56 
L 191 3500 
L 800 3500 
L 1894 763 
L 2988 3500 
L 3597 3500 
L 2059 -325 
z
" transform="scale(0.015625)"/>
       <path id="DejaVuSans-72" d="M 2631 2963 
Q 2534 3019 2420 3045 
Q 2306 3072 2169 3072 
Q 1681 3072 1420 2755 
Q 1159 2438 1159 1844 
L 1159 0 
L 581 0 
L 581 3500 
L 1159 3500 
L 1159 2956 
Q 1341 3275 1631 3429 
Q 1922 3584 2338 3584 
Q 2397 3584 2469 3576 
Q 2541 3569 2628 3553 
L 2631 2963 
z
" transform="scale(0.015625)"/>
       <path id="DejaVuSans-73" d="M 2834 3397 
L 2834 2853 
Q 2591 2978 2328 3040 
Q 2066 3103 1784 3103 
Q 1356 3103 1142 2972 
Q 928 2841 928 2578 
Q 928 2378 1081 2264 
Q 1234 2150 1697 2047 
L 1894 2003 
Q 2506 1872 2764 1633 
Q 3022 1394 3022 966 
Q 3022 478 2636 193 
Q 2250 -91 1575 -91 
Q 1294 -91 989 -36 
Q 684 19 347 128 
L 347 722 
Q 666 556 975 473 
Q 1284 391 1588 391 
Q 1994 391 2212 530 
Q 2431 669 2431 922 
Q 2431 1156 2273 1281 
Q 2116 1406 1581 1522 
L 1381 1569 
Q 847 1681 609 1914 
Q 372 2147 372 2553 
Q 372 3047 722 3315 
Q 1072 3584 1716 3584 
Q 2034 3584 2315 3537 
Q 2597 3491 2834 3397 
z
" transform="scale(0.015625)"/>
       <path id="DejaVuSans-29" d="M 513 4856 
L 1013 4856 
Q 1481 4119 1714 3412 
Q 1947 2706 1947 2009 
Q 1947 1309 1714 600 
Q 1481 -109 1013 -844 
L 513 -844 
Q 928 -128 1133 580 
Q 1338 1288 1338 2009 
Q 1338 2731 1133 3434 
Q 928 4138 513 4856 
z
" transform="scale(0.015625)"/>
      </defs>
      <use xlink:href="#DejaVuSans-74"/>
      <use xlink:href="#DejaVuSans-69" transform="translate(39.208984 0)"/>
      <use xlink:href="#DejaVuSans-6d" transform="translate(66.992188 0)"/>
      <use xlink:href="#DejaVuSans-65" transform="translate(164.404297 0)"/>
      <use xlink:href="#DejaVuSans-20" transform="translate(225.927734 0)"/>
      <use xlink:href="#DejaVuSans-61" transform="translate(257.714844 0)"/>
      <use xlink:href="#DejaVuSans-67" transform="translate(318.994141 0)"/>
      <use xlink:href="#DejaVuSans-6f" transform="translate(382.470703 0)"/>
      <use xlink:href="#DejaVuSans-20" transform="translate(443.652344 0)"/>
      <use xlink:href="#DejaVuSans-28" transform="translate(475.439453 0)"/>
      <use xlink:href="#DejaVuSans-79" transform="translate(514.453125 0)"/>
      <use xlink:href="#DejaVuSans-65" transform="translate(573.632812 0)"/>
      <use xlink:href="#DejaVuSans-61" transform="translate(635.15625 0)"/>
      <use xlink:href="#DejaVuSans-72" transform="translate(696.435547 0)"/>
      <use xlink:href="#DejaVuSans-73" transform="translate(737.548828 0)"/>
      <use xlink:href="#DejaVuSans-29" transform="translate(789.648438 0)"/>
     </g>
    </g>
   </g>
   <g id="line2d_50">
    <path d="M 257.619695 161.717566 
L 255.619695 160.717566 
L 255.619695 162.717566 
z
" clip-path="url(#pcd4957f64f)" style="fill: #1f77b4; fill-opacity: 0.5; stroke: #1f77b4; stroke-opacity: 0.5; stroke-linejoin: miter"/>
   </g>
   <g id="line2d_51">
    <path d="M 257.619695 57.414623 
L 255.619695 56.414623 
L 255.619695 58.414623 
z
" clip-path="url(#pcd4957f64f)" style="fill: #1f77b4; fill-opacity: 0.5; stroke: #1f77b4; stroke-opacity: 0.5; stroke-linejoin: miter"/>
   </g>
   <g id="line2d_52">
    <path d="M 257.619695 39.556723 
L 255.619695 38.556723 
L 255.619695 40.556723 
z
" clip-path="url(#pcd4957f64f)" style="fill: #1f77b4; fill-opacity: 0.5; stroke: #1f77b4; stroke-opacity: 0.5; stroke-linejoin: miter"/>
   </g>
   <g id="line2d_53">
    <path d="M 257.619695 198.105643 
L 255.619695 197.105643 
L 255.619695 199.105643 
z
" clip-path="url(#pcd4957f64f)" style="fill: #1f77b4; fill-opacity: 0.5; stroke: #1f77b4; stroke-opacity: 0.5; stroke-linejoin: miter"/>
   </g>
   <g id="line2d_54">
    <path d="M 257.619695 168.31102 
L 255.619695 167.31102 
L 255.619695 169.31102 
z
" clip-path="url(#pcd4957f64f)" style="fill: #1f77b4; fill-opacity: 0.5; stroke: #1f77b4; stroke-opacity: 0.5; stroke-linejoin: miter"/>
   </g>
   <g id="line2d_55">
    <path d="M 257.619695 291.014733 
L 255.619695 290.014733 
L 255.619695 292.014733 
z
" clip-path="url(#pcd4957f64f)" style="fill: #1f77b4; fill-opacity: 0.5; stroke: #1f77b4; stroke-opacity: 0.5; stroke-linejoin: miter"/>
   </g>
   <g id="line2d_56">
    <path d="M 257.619695 265.815314 
L 255.619695 264.815314 
L 255.619695 266.815314 
z
" clip-path="url(#pcd4957f64f)" style="fill: #1f77b4; fill-opacity: 0.5; stroke: #1f77b4; stroke-opacity: 0.5; stroke-linejoin: miter"/>
   </g>
   <g id="line2d_57">
    <path d="M 257.619695 298.588939 
L 255.619695 297.588939 
L 255.619695 299.588939 
z
" clip-path="url(#pcd4957f64f)" style="fill: #1f77b4; fill-opacity: 0.5; stroke: #1f77b4; stroke-opacity: 0.5; stroke-linejoin: miter"/>
   </g>
   <g id="line2d_58">
    <path d="M 257.619695 298.56998 
L 255.619695 297.56998 
L 255.619695 299.56998 
z
" clip-path="url(#pcd4957f64f)" style="fill: #1f77b4; fill-opacity: 0.5; stroke: #1f77b4; stroke-opacity: 0.5; stroke-linejoin: miter"/>
   </g>
   <g id="line2d_59">
    <path d="M 257.619695 63.508218 
L 255.619695 62.508218 
L 255.619695 64.508218 
z
" clip-path="url(#pcd4957f64f)" style="fill: #1f77b4; fill-opacity: 0.5; stroke: #1f77b4; stroke-opacity: 0.5; stroke-linejoin: miter"/>
   </g>
   <g id="line2d_60">
    <path d="M 199.299442 30.323134 
L 201.299442 31.323134 
L 201.299442 29.323134 
z
" clip-path="url(#pcd4957f64f)" style="fill: #ff7f0e; fill-opacity: 0.5; stroke: #ff7f0e; stroke-opacity: 0.5; stroke-linejoin: miter"/>
   </g>
   <g id="line2d_61">
    <path d="M 199.299442 97.114767 
L 201.299442 98.114767 
L 201.299442 96.114767 
z
" clip-path="url(#pcd4957f64f)" style="fill: #ff7f0e; fill-opacity: 0.5; stroke: #ff7f0e; stroke-opacity: 0.5; stroke-linejoin: miter"/>
   </g>
   <g id="line2d_62">
    <path d="M 199.299442 160.637902 
L 201.299442 161.637902 
L 201.299442 159.637902 
z
" clip-path="url(#pcd4957f64f)" style="fill: #ff7f0e; fill-opacity: 0.5; stroke: #ff7f0e; stroke-opacity: 0.5; stroke-linejoin: miter"/>
   </g>
   <g id="line2d_63">
    <path d="M 199.299442 81.35256 
L 201.299442 82.35256 
L 201.299442 80.35256 
z
" clip-path="url(#pcd4957f64f)" style="fill: #ff7f0e; fill-opacity: 0.5; stroke: #ff7f0e; stroke-opacity: 0.5; stroke-linejoin: miter"/>
   </g>
   <g id="line2d_64">
    <path d="M 199.299442 181.62223 
L 201.299442 182.62223 
L 201.299442 180.62223 
z
" clip-path="url(#pcd4957f64f)" style="fill: #ff7f0e; fill-opacity: 0.5; stroke: #ff7f0e; stroke-opacity: 0.5; stroke-linejoin: miter"/>
   </g>
   <g id="line2d_65">
    <path d="M 199.299442 192.784389 
L 201.299442 193.784389 
L 201.299442 191.784389 
z
" clip-path="url(#pcd4957f64f)" style="fill: #ff7f0e; fill-opacity: 0.5; stroke: #ff7f0e; stroke-opacity: 0.5; stroke-linejoin: miter"/>
   </g>
   <g id="line2d_66">
    <path d="M 199.299442 75.099459 
L 201.299442 76.099459 
L 201.299442 74.099459 
z
" clip-path="url(#pcd4957f64f)" style="fill: #ff7f0e; fill-opacity: 0.5; stroke: #ff7f0e; stroke-opacity: 0.5; stroke-linejoin: miter"/>
   </g>
   <g id="line2d_67">
    <path d="M 199.299442 154.78048 
L 201.299442 155.78048 
L 201.299442 153.78048 
z
" clip-path="url(#pcd4957f64f)" style="fill: #ff7f0e; fill-opacity: 0.5; stroke: #ff7f0e; stroke-opacity: 0.5; stroke-linejoin: miter"/>
   </g>
   <g id="line2d_68">
    <path d="M 199.299442 35.006688 
L 201.299442 36.006688 
L 201.299442 34.006688 
z
" clip-path="url(#pcd4957f64f)" style="fill: #ff7f0e; fill-opacity: 0.5; stroke: #ff7f0e; stroke-opacity: 0.5; stroke-linejoin: miter"/>
   </g>
   <g id="line2d_69">
    <path d="M 199.299442 298.330006 
L 201.299442 299.330006 
L 201.299442 297.330006 
z
" clip-path="url(#pcd4957f64f)" style="fill: #ff7f0e; fill-opacity: 0.5; stroke: #ff7f0e; stroke-opacity: 0.5; stroke-linejoin: miter"/>
   </g>
   <g id="line2d_70">
    <path d="M 447.666183 87.215376 
L 445.666183 86.215376 
L 445.666183 88.215376 
z
" clip-path="url(#pcd4957f64f)" style="fill: #ff7f0e; fill-opacity: 0.5; stroke: #ff7f0e; stroke-opacity: 0.5; stroke-linejoin: miter"/>
   </g>
   <g id="line2d_71">
    <path d="M 447.666183 221.243312 
L 445.666183 220.243312 
L 445.666183 222.243312 
z
" clip-path="url(#pcd4957f64f)" style="fill: #ff7f0e; fill-opacity: 0.5; stroke: #ff7f0e; stroke-opacity: 0.5; stroke-linejoin: miter"/>
   </g>
   <g id="line2d_72">
    <path d="M 447.666183 128.013319 
L 445.666183 127.013319 
L 445.666183 129.013319 
z
" clip-path="url(#pcd4957f64f)" style="fill: #ff7f0e; fill-opacity: 0.5; stroke: #ff7f0e; stroke-opacity: 0.5; stroke-linejoin: miter"/>
   </g>
   <g id="line2d_73">
    <path d="M 447.666183 174.854713 
L 445.666183 173.854713 
L 445.666183 175.854713 
z
" clip-path="url(#pcd4957f64f)" style="fill: #ff7f0e; fill-opacity: 0.5; stroke: #ff7f0e; stroke-opacity: 0.5; stroke-linejoin: miter"/>
   </g>
   <g id="line2d_74">
    <path d="M 447.666183 48.153785 
L 445.666183 47.153785 
L 445.666183 49.153785 
z
" clip-path="url(#pcd4957f64f)" style="fill: #ff7f0e; fill-opacity: 0.5; stroke: #ff7f0e; stroke-opacity: 0.5; stroke-linejoin: miter"/>
   </g>
   <g id="line2d_75">
    <path d="M 447.666183 88.310599 
L 445.666183 87.310599 
L 445.666183 89.310599 
z
" clip-path="url(#pcd4957f64f)" style="fill: #ff7f0e; fill-opacity: 0.5; stroke: #ff7f0e; stroke-opacity: 0.5; stroke-linejoin: miter"/>
   </g>
   <g id="line2d_76">
    <path d="M 447.666183 247.565854 
L 445.666183 246.565854 
L 445.666183 248.565854 
z
" clip-path="url(#pcd4957f64f)" style="fill: #ff7f0e; fill-opacity: 0.5; stroke: #ff7f0e; stroke-opacity: 0.5; stroke-linejoin: miter"/>
   </g>
   <g id="line2d_77">
    <path d="M 447.666183 288.581148 
L 445.666183 287.581148 
L 445.666183 289.581148 
z
" clip-path="url(#pcd4957f64f)" style="fill: #ff7f0e; fill-opacity: 0.5; stroke: #ff7f0e; stroke-opacity: 0.5; stroke-linejoin: miter"/>
   </g>
   <g id="line2d_78">
    <path d="M 447.666183 302.255979 
L 445.666183 301.255979 
L 445.666183 303.255979 
z
" clip-path="url(#pcd4957f64f)" style="fill: #ff7f0e; fill-opacity: 0.5; stroke: #ff7f0e; stroke-opacity: 0.5; stroke-linejoin: miter"/>
   </g>
   <g id="line2d_79">
    <path d="M 447.666183 260.865318 
L 445.666183 259.865318 
L 445.666183 261.865318 
z
" clip-path="url(#pcd4957f64f)" style="fill: #ff7f0e; fill-opacity: 0.5; stroke: #ff7f0e; stroke-opacity: 0.5; stroke-linejoin: miter"/>
   </g>
   <g id="line2d_80">
    <path d="M 389.34593 239.231337 
L 391.34593 240.231337 
L 391.34593 238.231337 
z
" clip-path="url(#pcd4957f64f)" style="fill: #2ca02c; fill-opacity: 0.5; stroke: #2ca02c; stroke-opacity: 0.5; stroke-linejoin: miter"/>
   </g>
   <g id="line2d_81">
    <path d="M 389.34593 178.852344 
L 391.34593 179.852344 
L 391.34593 177.852344 
z
" clip-path="url(#pcd4957f64f)" style="fill: #2ca02c; fill-opacity: 0.5; stroke: #2ca02c; stroke-opacity: 0.5; stroke-linejoin: miter"/>
   </g>
   <g id="line2d_82">
    <path d="M 389.34593 269.766993 
L 391.34593 270.766993 
L 391.34593 268.766993 
z
" clip-path="url(#pcd4957f64f)" style="fill: #2ca02c; fill-opacity: 0.5; stroke: #2ca02c; stroke-opacity: 0.5; stroke-linejoin: miter"/>
   </g>
   <g id="line2d_83">
    <path d="M 389.34593 76.943728 
L 391.34593 77.943728 
L 391.34593 75.943728 
z
" clip-path="url(#pcd4957f64f)" style="fill: #2ca02c; fill-opacity: 0.5; stroke: #2ca02c; stroke-opacity: 0.5; stroke-linejoin: miter"/>
   </g>
   <g id="line2d_84">
    <path d="M 389.34593 105.011735 
L 391.34593 106.011735 
L 391.34593 104.011735 
z
" clip-path="url(#pcd4957f64f)" style="fill: #2ca02c; fill-opacity: 0.5; stroke: #2ca02c; stroke-opacity: 0.5; stroke-linejoin: miter"/>
   </g>
   <g id="line2d_85">
    <path d="M 389.34593 249.482361 
L 391.34593 250.482361 
L 391.34593 248.482361 
z
" clip-path="url(#pcd4957f64f)" style="fill: #2ca02c; fill-opacity: 0.5; stroke: #2ca02c; stroke-opacity: 0.5; stroke-linejoin: miter"/>
   </g>
   <g id="line2d_86">
    <path d="M 389.34593 229.337776 
L 391.34593 230.337776 
L 391.34593 228.337776 
z
" clip-path="url(#pcd4957f64f)" style="fill: #2ca02c; fill-opacity: 0.5; stroke: #2ca02c; stroke-opacity: 0.5; stroke-linejoin: miter"/>
   </g>
   <g id="line2d_87">
    <path d="M 389.34593 79.711007 
L 391.34593 80.711007 
L 391.34593 78.711007 
z
" clip-path="url(#pcd4957f64f)" style="fill: #2ca02c; fill-opacity: 0.5; stroke: #2ca02c; stroke-opacity: 0.5; stroke-linejoin: miter"/>
   </g>
   <g id="line2d_88">
    <path d="M 389.34593 172.820976 
L 391.34593 173.820976 
L 391.34593 171.820976 
z
" clip-path="url(#pcd4957f64f)" style="fill: #2ca02c; fill-opacity: 0.5; stroke: #2ca02c; stroke-opacity: 0.5; stroke-linejoin: miter"/>
   </g>
   <g id="line2d_89">
    <path d="M 389.34593 282.044576 
L 391.34593 283.044576 
L 391.34593 281.044576 
z
" clip-path="url(#pcd4957f64f)" style="fill: #2ca02c; fill-opacity: 0.5; stroke: #2ca02c; stroke-opacity: 0.5; stroke-linejoin: miter"/>
   </g>
   <g id="patch_6">
    <path d="M 46.965625 318.021875 
L 46.965625 22.318125 
" style="fill: none; stroke: #000000; stroke-width: 0.8; stroke-linejoin: miter; stroke-linecap: square"/>
   </g>
   <g id="text_11">
    <!-- stepping_stone_model.yaml -->
    <g transform="translate(239.443437 16.318125) scale(0.12 -0.12)">
     <defs>
      <path id="DejaVuSans-70" d="M 1159 525 
L 1159 -1331 
L 581 -1331 
L 581 3500 
L 1159 3500 
L 1159 2969 
Q 1341 3281 1617 3432 
Q 1894 3584 2278 3584 
Q 2916 3584 3314 3078 
Q 3713 2572 3713 1747 
Q 3713 922 3314 415 
Q 2916 -91 2278 -91 
Q 1894 -91 1617 61 
Q 1341 213 1159 525 
z
M 3116 1747 
Q 3116 2381 2855 2742 
Q 2594 3103 2138 3103 
Q 1681 3103 1420 2742 
Q 1159 2381 1159 1747 
Q 1159 1113 1420 752 
Q 1681 391 2138 391 
Q 2594 391 2855 752 
Q 3116 1113 3116 1747 
z
" transform="scale(0.015625)"/>
      <path id="DejaVuSans-6e" d="M 3513 2113 
L 3513 0 
L 2938 0 
L 2938 2094 
Q 2938 2591 2744 2837 
Q 2550 3084 2163 3084 
Q 1697 3084 1428 2787 
Q 1159 2491 1159 1978 
L 1159 0 
L 581 0 
L 581 3500 
L 1159 3500 
L 1159 2956 
Q 1366 3272 1645 3428 
Q 1925 3584 2291 3584 
Q 2894 3584 3203 3211 
Q 3513 2838 3513 2113 
z
" transform="scale(0.015625)"/>
      <path id="DejaVuSans-5f" d="M 3263 -1063 
L 3263 -1509 
L -63 -1509 
L -63 -1063 
L 3263 -1063 
z
" transform="scale(0.015625)"/>
      <path id="DejaVuSans-6c" d="M 603 4863 
L 1178 4863 
L 1178 0 
L 603 0 
L 603 4863 
z
" transform="scale(0.015625)"/>
      <path id="DejaVuSans-2e" d="M 684 794 
L 1344 794 
L 1344 0 
L 684 0 
L 684 794 
z
" transform="scale(0.015625)"/>
     </defs>
     <use xlink:href="#DejaVuSans-73"/>
     <use xlink:href="#DejaVuSans-74" transform="translate(52.099609 0)"/>
     <use xlink:href="#DejaVuSans-65" transform="translate(91.308594 0)"/>
     <use xlink:href="#DejaVuSans-70" transform="translate(152.832031 0)"/>
     <use xlink:href="#DejaVuSans-70" transform="translate(216.308594 0)"/>
     <use xlink:href="#DejaVuSans-69" transform="translate(279.785156 0)"/>
     <use xlink:href="#DejaVuSans-6e" transform="translate(307.568359 0)"/>
     <use xlink:href="#DejaVuSans-67" transform="translate(370.947266 0)"/>
     <use xlink:href="#DejaVuSans-5f" transform="translate(434.423828 0)"/>
     <use xlink:href="#DejaVuSans-73" transform="translate(484.423828 0)"/>
     <use xlink:href="#DejaVuSans-74" transform="translate(536.523438 0)"/>
     <use xlink:href="#DejaVuSans-6f" transform="translate(575.732422 0)"/>
     <use xlink:href="#DejaVuSans-6e" transform="translate(636.914062 0)"/>
     <use xlink:href="#DejaVuSans-65" transform="translate(700.292969 0)"/>
     <use xlink:href="#DejaVuSans-5f" transform="translate(761.816406 0)"/>
     <use xlink:href="#DejaVuSans-6d" transform="translate(811.816406 0)"/>
     <use xlink:href="#DejaVuSans-6f" transform="translate(909.228516 0)"/>
     <use xlink:href="#DejaVuSans-64" transform="translate(970.410156 0)"/>
     <use xlink:href="#DejaVuSans-65" transform="translate(1033.886719 0)"/>
     <use xlink:href="#DejaVuSans-6c" transform="translate(1095.410156 0)"/>
     <use xlink:href="#DejaVuSans-2e" transform="translate(1123.193359 0)"/>
     <use xlink:href="#DejaVuSans-79" transform="translate(1154.980469 0)"/>
     <use xlink:href="#DejaVuSans-61" transform="translate(1214.160156 0)"/>
     <use xlink:href="#DejaVuSans-6d" transform="translate(1275.439453 0)"/>
     <use xlink:href="#DejaVuSans-6c" transform="translate(1372.851562 0)"/>
    </g>
   </g>
  </g>
 </g>
 <defs>
  <clipPath id="pcd4957f64f">
   <rect x="46.965625" y="22.318125" width="553.034375" height="295.70375"/>
  </clipPath>
 </defs>
</svg>